<?xml version="1.0" encoding="UTF-8" standalone="no"?>
<svg xmlns:xlink="http://www.w3.org/1999/xlink" height="27.65px" width="74.05px" xmlns="http://www.w3.org/2000/svg">
  <g transform="matrix(1.0, 0.0, 0.0, 1.0, 37.1, 13.8)">
    <path d="M9.6 10.1 L-34.5 -8.15 -9.3 -13.3 35.75 5.0 9.6 10.1" fill="#ffffff" fill-opacity="0.0" fill-rule="evenodd" stroke="none"/>
    <path d="M9.25 13.35 L-36.3 -6.05 -34.5 -8.15 9.6 10.1 9.25 13.35 9.6 10.1 35.75 5.0 36.35 7.8 9.25 13.35" fill="#000000" fill-opacity="0.2" fill-rule="evenodd" stroke="none"/>
    <path d="M-34.5 -8.15 L-36.3 -6.05 9.25 13.35 36.35 7.8 35.75 5.0 -9.3 -13.3 -34.5 -8.15" fill="none" stroke="#000000" stroke-linecap="round" stroke-linejoin="miter-clip" stroke-miterlimit="10.0" stroke-width="1.0"/>
    <path d="M9.25 13.35 L9.6 10.1 -34.5 -8.15 M9.6 10.1 L35.75 5.0" fill="none" stroke="#000000" stroke-linecap="round" stroke-linejoin="miter-clip" stroke-miterlimit="10.0" stroke-opacity="0.6" stroke-width="1.0"/>
  </g>
</svg>
