<?xml version="1.0" encoding="UTF-8" standalone="no"?>
<svg xmlns:xlink="http://www.w3.org/1999/xlink" height="9.05px" width="72.65px" xmlns="http://www.w3.org/2000/svg">
  <g transform="matrix(1.0, 0.0, 0.0, 1.0, 36.45, 4.75)">
    <path d="M-24.4 -3.75 L-21.05 -3.75 -22.25 -2.8 -25.7 -2.8 -24.4 -3.75" fill="#ffffff" fill-opacity="0.0" fill-rule="evenodd" stroke="none"/>
    <path d="M-24.4 -3.75 L-21.05 -3.75 -22.25 -2.8 -25.7 -2.8 -24.4 -3.75 Z" fill="none" stroke="#000000" stroke-linecap="butt" stroke-linejoin="miter-clip" stroke-miterlimit="10.0" stroke-opacity="0.4" stroke-width="1.0"/>
    <path d="M-26.1 -2.55 L-20.6 -2.55 -21.85 -1.45 -27.6 -1.45 -26.1 -2.55" fill="#ffffff" fill-opacity="0.0" fill-rule="evenodd" stroke="none"/>
    <path d="M-26.1 -2.55 L-20.6 -2.55 -21.85 -1.45 -27.6 -1.45 -26.1 -2.55 Z" fill="none" stroke="#000000" stroke-linecap="butt" stroke-linejoin="miter-clip" stroke-miterlimit="10.0" stroke-opacity="0.4" stroke-width="1.0"/>
    <path d="M-27.95 -1.2 L-21.4 -1.2 -22.75 0.05 -29.65 0.05 -27.95 -1.2" fill="#ffffff" fill-opacity="0.0" fill-rule="evenodd" stroke="none"/>
    <path d="M-27.95 -1.2 L-21.4 -1.2 -22.75 0.05 -29.65 0.05 -27.95 -1.2 Z" fill="none" stroke="#000000" stroke-linecap="butt" stroke-linejoin="miter-clip" stroke-miterlimit="10.0" stroke-opacity="0.4" stroke-width="1.0"/>
    <path d="M-26.4 1.75 L-32.05 1.75 -30.1 0.35 -24.75 0.35 -26.4 1.75" fill="#ffffff" fill-opacity="0.0" fill-rule="evenodd" stroke="none"/>
    <path d="M-26.4 1.75 L-32.05 1.75 -30.1 0.35 -24.75 0.35 -26.4 1.75 Z" fill="none" stroke="#000000" stroke-linecap="butt" stroke-linejoin="miter-clip" stroke-miterlimit="10.0" stroke-opacity="0.4" stroke-width="1.0"/>
    <path d="M-28.9 3.8 L-34.9 3.8 -32.6 2.15 -26.95 2.15 -28.9 3.8" fill="#ffffff" fill-opacity="0.0" fill-rule="evenodd" stroke="none"/>
    <path d="M-28.9 3.8 L-34.9 3.8 -32.6 2.15 -26.95 2.15 -28.9 3.8 Z" fill="none" stroke="#000000" stroke-linecap="butt" stroke-linejoin="miter-clip" stroke-miterlimit="10.0" stroke-opacity="0.4" stroke-width="1.0"/>
    <path d="M-26.1 2.15 L-20.45 2.15 -21.9 3.8 -27.95 3.8 -26.1 2.15" fill="#ffffff" fill-opacity="0.0" fill-rule="evenodd" stroke="none"/>
    <path d="M-26.1 2.15 L-20.45 2.15 -21.9 3.8 -27.95 3.8 -26.1 2.15 Z" fill="none" stroke="#000000" stroke-linecap="butt" stroke-linejoin="miter-clip" stroke-miterlimit="10.0" stroke-opacity="0.4" stroke-width="1.0"/>
    <path d="M27.5 3.8 L21.35 3.8 20.15 2.15 25.95 2.15 27.5 3.8" fill="#ffffff" fill-opacity="0.0" fill-rule="evenodd" stroke="none"/>
    <path d="M27.5 3.8 L21.35 3.8 20.15 2.15 25.95 2.15 27.5 3.8 Z" fill="none" stroke="#000000" stroke-linecap="butt" stroke-linejoin="miter-clip" stroke-miterlimit="10.0" stroke-opacity="0.4" stroke-width="1.0"/>
    <path d="M32.85 2.15 L34.85 3.8 28.45 3.8 26.8 2.15 32.85 2.15" fill="#ffffff" fill-opacity="0.0" fill-rule="evenodd" stroke="none"/>
    <path d="M32.85 2.15 L34.85 3.8 28.45 3.8 26.8 2.15 32.85 2.15 Z" fill="none" stroke="#000000" stroke-linecap="butt" stroke-linejoin="miter-clip" stroke-miterlimit="10.0" stroke-opacity="0.4" stroke-width="1.0"/>
    <path d="M-19.45 2.15 L19.15 2.15 20.25 3.8 -20.85 3.8 -19.45 2.15" fill="#ffffff" fill-opacity="0.0" fill-rule="evenodd" stroke="none"/>
    <path d="M-19.45 2.15 L19.15 2.15 20.25 3.8 -20.85 3.8 -19.45 2.15 Z" fill="none" stroke="#000000" stroke-linecap="butt" stroke-linejoin="miter-clip" stroke-miterlimit="10.0" stroke-opacity="0.4" stroke-width="1.0"/>
    <path d="M-17.9 -2.8 L-21.35 -2.8 -20.25 -3.75 -16.95 -3.75 -17.9 -2.8" fill="#ffffff" fill-opacity="0.0" fill-rule="evenodd" stroke="none"/>
    <path d="M-17.9 -2.8 L-21.35 -2.8 -20.25 -3.75 -16.95 -3.75 -17.9 -2.8 Z" fill="none" stroke="#000000" stroke-linecap="butt" stroke-linejoin="miter-clip" stroke-miterlimit="10.0" stroke-opacity="0.4" stroke-width="1.0"/>
    <path d="M-13.55 -2.8 L-17.05 -2.8 -16.15 -3.75 -12.8 -3.75 -13.55 -2.8" fill="#ffffff" fill-opacity="0.0" fill-rule="evenodd" stroke="none"/>
    <path d="M-13.55 -2.8 L-17.05 -2.8 -16.15 -3.75 -12.8 -3.75 -13.55 -2.8 Z" fill="none" stroke="#000000" stroke-linecap="butt" stroke-linejoin="miter-clip" stroke-miterlimit="10.0" stroke-opacity="0.4" stroke-width="1.0"/>
    <path d="M-17.2 -1.5 L-20.95 -1.45 -19.8 -2.55 -16.25 -2.55 -17.2 -1.5" fill="#ffffff" fill-opacity="0.0" fill-rule="evenodd" stroke="none"/>
    <path d="M-17.2 -1.5 L-20.95 -1.45 -19.8 -2.55 -16.25 -2.55 -17.2 -1.5 Z" fill="none" stroke="#000000" stroke-linecap="butt" stroke-linejoin="miter-clip" stroke-miterlimit="10.0" stroke-opacity="0.4" stroke-width="1.0"/>
    <path d="M-17.85 0.0 L-21.85 0.0 -20.55 -1.2 -16.8 -1.2 -17.85 0.0" fill="#ffffff" fill-opacity="0.0" fill-rule="evenodd" stroke="none"/>
    <path d="M-17.85 0.0 L-21.85 0.0 -20.55 -1.2 -16.8 -1.2 -17.85 0.0 Z" fill="none" stroke="#000000" stroke-linecap="butt" stroke-linejoin="miter-clip" stroke-miterlimit="10.0" stroke-opacity="0.4" stroke-width="1.0"/>
    <path d="M-24.0 0.35 L-19.95 0.35 -21.3 1.75 -25.55 1.75 -24.0 0.35" fill="#ffffff" fill-opacity="0.0" fill-rule="evenodd" stroke="none"/>
    <path d="M-24.0 0.35 L-19.95 0.35 -21.3 1.75 -25.55 1.75 -24.0 0.35 Z" fill="none" stroke="#000000" stroke-linecap="butt" stroke-linejoin="miter-clip" stroke-miterlimit="10.0" stroke-opacity="0.4" stroke-width="1.0"/>
    <path d="M-16.2 1.75 L-20.5 1.75 -19.2 0.35 -15.15 0.35 -16.2 1.75" fill="#ffffff" fill-opacity="0.0" fill-rule="evenodd" stroke="none"/>
    <path d="M-16.2 1.75 L-20.5 1.75 -19.2 0.35 -15.15 0.35 -16.2 1.75 Z" fill="none" stroke="#000000" stroke-linecap="butt" stroke-linejoin="miter-clip" stroke-miterlimit="10.0" stroke-opacity="0.4" stroke-width="1.0"/>
    <path d="M-11.1 1.75 L-15.4 1.75 -14.35 0.35 -10.35 0.35 -11.1 1.75" fill="#ffffff" fill-opacity="0.0" fill-rule="evenodd" stroke="none"/>
    <path d="M-11.1 1.75 L-15.4 1.75 -14.35 0.35 -10.35 0.35 -11.1 1.75 Z" fill="none" stroke="#000000" stroke-linecap="butt" stroke-linejoin="miter-clip" stroke-miterlimit="10.0" stroke-opacity="0.4" stroke-width="1.0"/>
    <path d="M-9.55 0.35 L-5.5 0.35 -5.95 1.75 -10.3 1.75 -9.55 0.35" fill="#ffffff" fill-opacity="0.0" fill-rule="evenodd" stroke="none"/>
    <path d="M-9.55 0.35 L-5.5 0.35 -5.95 1.75 -10.3 1.75 -9.55 0.35 Z" fill="none" stroke="#000000" stroke-linecap="butt" stroke-linejoin="miter-clip" stroke-miterlimit="10.0" stroke-opacity="0.4" stroke-width="1.0"/>
    <path d="M-0.85 1.75 L-5.15 1.75 -4.75 0.35 -0.65 0.35 -0.85 1.75" fill="#ffffff" fill-opacity="0.0" fill-rule="evenodd" stroke="none"/>
    <path d="M-0.85 1.75 L-5.15 1.75 -4.75 0.35 -0.65 0.35 -0.85 1.75 Z" fill="none" stroke="#000000" stroke-linecap="butt" stroke-linejoin="miter-clip" stroke-miterlimit="10.0" stroke-opacity="0.4" stroke-width="1.0"/>
    <path d="M4.3 1.75 L0.0 1.75 0.1 0.35 4.2 0.35 4.3 1.75" fill="#ffffff" fill-opacity="0.0" fill-rule="evenodd" stroke="none"/>
    <path d="M4.3 1.75 L0.0 1.75 0.1 0.35 4.2 0.35 4.3 1.75 Z" fill="none" stroke="#000000" stroke-linecap="butt" stroke-linejoin="miter-clip" stroke-miterlimit="10.0" stroke-opacity="0.4" stroke-width="1.0"/>
    <path d="M4.95 0.35 L9.0 0.35 9.45 1.75 5.1 1.75 4.95 0.35" fill="#ffffff" fill-opacity="0.0" fill-rule="evenodd" stroke="none"/>
    <path d="M4.95 0.35 L9.0 0.35 9.45 1.75 5.1 1.75 4.95 0.35 Z" fill="none" stroke="#000000" stroke-linecap="butt" stroke-linejoin="miter-clip" stroke-miterlimit="10.0" stroke-opacity="0.4" stroke-width="1.0"/>
    <path d="M14.6 1.75 L10.25 1.75 9.8 0.35 13.9 0.3 14.6 1.75" fill="#ffffff" fill-opacity="0.0" fill-rule="evenodd" stroke="none"/>
    <path d="M14.6 1.75 L10.25 1.75 9.8 0.35 13.9 0.3 14.6 1.75 Z" fill="none" stroke="#000000" stroke-linecap="butt" stroke-linejoin="miter-clip" stroke-miterlimit="10.0" stroke-opacity="0.4" stroke-width="1.0"/>
    <path d="M19.75 1.75 L15.4 1.75 14.7 0.3 18.75 0.3 19.75 1.75" fill="#ffffff" fill-opacity="0.0" fill-rule="evenodd" stroke="none"/>
    <path d="M19.75 1.75 L15.4 1.75 14.7 0.3 18.75 0.3 19.75 1.75 Z" fill="none" stroke="#000000" stroke-linecap="butt" stroke-linejoin="miter-clip" stroke-miterlimit="10.0" stroke-opacity="0.4" stroke-width="1.0"/>
    <path d="M32.35 1.75 L20.6 1.75 19.55 0.3 30.6 0.3 32.35 1.75" fill="#ffffff" fill-opacity="0.0" fill-rule="evenodd" stroke="none"/>
    <path d="M32.35 1.75 L20.6 1.75 19.55 0.3 30.6 0.3 32.35 1.75 Z" fill="none" stroke="#000000" stroke-linecap="butt" stroke-linejoin="miter-clip" stroke-miterlimit="10.0" stroke-opacity="0.4" stroke-width="1.0"/>
    <path d="M-13.05 0.0 L-17.0 0.0 -16.0 -1.2 -12.2 -1.2 -13.05 0.0" fill="#ffffff" fill-opacity="0.0" fill-rule="evenodd" stroke="none"/>
    <path d="M-13.05 0.0 L-17.0 0.0 -16.0 -1.2 -12.2 -1.2 -13.05 0.0 Z" fill="none" stroke="#000000" stroke-linecap="butt" stroke-linejoin="miter-clip" stroke-miterlimit="10.0" stroke-opacity="0.4" stroke-width="1.0"/>
    <path d="M-11.4 -1.2 L-7.65 -1.2 -8.2 0.0 -12.2 0.0 -11.4 -1.2" fill="#ffffff" fill-opacity="0.0" fill-rule="evenodd" stroke="none"/>
    <path d="M-11.4 -1.2 L-7.65 -1.2 -8.2 0.0 -12.2 0.0 -11.4 -1.2 Z" fill="none" stroke="#000000" stroke-linecap="butt" stroke-linejoin="miter-clip" stroke-miterlimit="10.0" stroke-opacity="0.4" stroke-width="1.0"/>
    <path d="M-3.35 0.0 L-7.35 0.0 -6.85 -1.2 -3.05 -1.2 -3.35 0.0" fill="#ffffff" fill-opacity="0.0" fill-rule="evenodd" stroke="none"/>
    <path d="M-3.35 0.0 L-7.35 0.0 -6.85 -1.2 -3.05 -1.2 -3.35 0.0 Z" fill="none" stroke="#000000" stroke-linecap="butt" stroke-linejoin="miter-clip" stroke-miterlimit="10.0" stroke-opacity="0.4" stroke-width="1.0"/>
    <path d="M1.5 0.0 L-2.5 0.0 -2.25 -1.2 1.55 -1.25 1.5 0.0" fill="#ffffff" fill-opacity="0.0" fill-rule="evenodd" stroke="none"/>
    <path d="M1.5 0.0 L-2.5 0.0 -2.25 -1.2 1.55 -1.25 1.5 0.0 Z" fill="none" stroke="#000000" stroke-linecap="butt" stroke-linejoin="miter-clip" stroke-miterlimit="10.0" stroke-opacity="0.4" stroke-width="1.0"/>
    <path d="M2.25 -1.25 L6.05 -1.25 6.3 0.0 2.25 0.0 2.25 -1.25" fill="#ffffff" fill-opacity="0.0" fill-rule="evenodd" stroke="none"/>
    <path d="M2.25 -1.25 L6.05 -1.25 6.3 0.0 2.25 0.0 2.25 -1.25 Z" fill="none" stroke="#000000" stroke-linecap="butt" stroke-linejoin="miter-clip" stroke-miterlimit="10.0" stroke-opacity="0.4" stroke-width="1.0"/>
    <path d="M11.1 0.0 L7.1 0.0 6.85 -1.25 10.65 -1.25 11.1 0.0" fill="#ffffff" fill-opacity="0.0" fill-rule="evenodd" stroke="none"/>
    <path d="M11.1 0.0 L7.1 0.0 6.85 -1.25 10.65 -1.25 11.1 0.0 Z" fill="none" stroke="#000000" stroke-linecap="butt" stroke-linejoin="miter-clip" stroke-miterlimit="10.0" stroke-opacity="0.4" stroke-width="1.0"/>
    <path d="M15.85 0.0 L11.85 0.0 11.35 -1.25 15.15 -1.25 15.85 0.0" fill="#ffffff" fill-opacity="0.0" fill-rule="evenodd" stroke="none"/>
    <path d="M15.85 0.0 L11.85 0.0 11.35 -1.25 15.15 -1.25 15.85 0.0 Z" fill="none" stroke="#000000" stroke-linecap="butt" stroke-linejoin="miter-clip" stroke-miterlimit="10.0" stroke-opacity="0.4" stroke-width="1.0"/>
    <path d="M19.65 -1.25 L20.65 0.0 16.6 0.0 15.85 -1.25 19.65 -1.25" fill="#ffffff" fill-opacity="0.0" fill-rule="evenodd" stroke="none"/>
    <path d="M19.65 -1.25 L20.65 0.0 16.6 0.0 15.85 -1.25 19.65 -1.25 Z" fill="none" stroke="#000000" stroke-linecap="butt" stroke-linejoin="miter-clip" stroke-miterlimit="10.0" stroke-opacity="0.4" stroke-width="1.0"/>
    <path d="M25.4 0.0 L21.35 0.0 20.35 -1.25 24.15 -1.25 25.4 0.0" fill="#ffffff" fill-opacity="0.0" fill-rule="evenodd" stroke="none"/>
    <path d="M25.4 0.0 L21.35 0.0 20.35 -1.25 24.15 -1.25 25.4 0.0 Z" fill="none" stroke="#000000" stroke-linecap="butt" stroke-linejoin="miter-clip" stroke-miterlimit="10.0" stroke-opacity="0.4" stroke-width="1.0"/>
    <path d="M-12.7 -1.5 L-16.45 -1.5 -15.5 -2.55 -11.95 -2.55 -12.7 -1.5" fill="#ffffff" fill-opacity="0.0" fill-rule="evenodd" stroke="none"/>
    <path d="M-12.7 -1.5 L-16.45 -1.5 -15.5 -2.55 -11.95 -2.55 -12.7 -1.5 Z" fill="none" stroke="#000000" stroke-linecap="butt" stroke-linejoin="miter-clip" stroke-miterlimit="10.0" stroke-opacity="0.4" stroke-width="1.0"/>
    <path d="M-11.2 -2.55 L-7.65 -2.55 -8.2 -1.5 -11.9 -1.5 -11.2 -2.55" fill="#ffffff" fill-opacity="0.0" fill-rule="evenodd" stroke="none"/>
    <path d="M-11.2 -2.55 L-7.65 -2.55 -8.2 -1.5 -11.9 -1.5 -11.2 -2.55 Z" fill="none" stroke="#000000" stroke-linecap="butt" stroke-linejoin="miter-clip" stroke-miterlimit="10.0" stroke-opacity="0.4" stroke-width="1.0"/>
    <path d="M-3.65 -1.5 L-7.4 -1.5 -6.9 -2.55 -3.35 -2.55 -3.65 -1.5" fill="#ffffff" fill-opacity="0.0" fill-rule="evenodd" stroke="none"/>
    <path d="M-3.65 -1.5 L-7.4 -1.5 -6.9 -2.55 -3.35 -2.55 -3.65 -1.5 Z" fill="none" stroke="#000000" stroke-linecap="butt" stroke-linejoin="miter-clip" stroke-miterlimit="10.0" stroke-opacity="0.4" stroke-width="1.0"/>
    <path d="M0.9 -1.5 L-2.85 -1.5 -2.6 -2.55 0.95 -2.55 0.9 -1.5" fill="#ffffff" fill-opacity="0.0" fill-rule="evenodd" stroke="none"/>
    <path d="M0.9 -1.5 L-2.85 -1.5 -2.6 -2.55 0.95 -2.55 0.9 -1.5 Z" fill="none" stroke="#000000" stroke-linecap="butt" stroke-linejoin="miter-clip" stroke-miterlimit="10.0" stroke-opacity="0.4" stroke-width="1.0"/>
    <path d="M5.45 -1.5 L1.7 -1.5 1.7 -2.55 5.3 -2.6 5.45 -1.5" fill="#ffffff" fill-opacity="0.0" fill-rule="evenodd" stroke="none"/>
    <path d="M5.45 -1.5 L1.7 -1.5 1.7 -2.55 5.3 -2.6 5.45 -1.5 Z" fill="none" stroke="#000000" stroke-linecap="butt" stroke-linejoin="miter-clip" stroke-miterlimit="10.0" stroke-opacity="0.4" stroke-width="1.0"/>
    <path d="M10.0 -1.5 L6.25 -1.5 6.05 -2.6 9.6 -2.6 10.0 -1.5" fill="#ffffff" fill-opacity="0.0" fill-rule="evenodd" stroke="none"/>
    <path d="M10.0 -1.5 L6.25 -1.5 6.05 -2.6 9.6 -2.6 10.0 -1.5 Z" fill="none" stroke="#000000" stroke-linecap="butt" stroke-linejoin="miter-clip" stroke-miterlimit="10.0" stroke-opacity="0.4" stroke-width="1.0"/>
    <path d="M14.55 -1.5 L10.8 -1.5 10.35 -2.6 13.95 -2.6 14.55 -1.5" fill="#ffffff" fill-opacity="0.0" fill-rule="evenodd" stroke="none"/>
    <path d="M14.55 -1.5 L10.8 -1.5 10.35 -2.6 13.95 -2.6 14.55 -1.5 Z" fill="none" stroke="#000000" stroke-linecap="butt" stroke-linejoin="miter-clip" stroke-miterlimit="10.0" stroke-opacity="0.4" stroke-width="1.0"/>
    <path d="M19.1 -1.5 L15.35 -1.5 14.7 -2.6 18.3 -2.6 19.1 -1.5" fill="#ffffff" fill-opacity="0.0" fill-rule="evenodd" stroke="none"/>
    <path d="M19.1 -1.5 L15.35 -1.5 14.7 -2.6 18.3 -2.6 19.1 -1.5 Z" fill="none" stroke="#000000" stroke-linecap="butt" stroke-linejoin="miter-clip" stroke-miterlimit="10.0" stroke-opacity="0.4" stroke-width="1.0"/>
    <path d="M27.1 -2.6 L28.3 -1.6 28.4 -1.55 30.1 -0.15 26.05 -0.15 24.6 -1.55 19.8 -1.5 18.95 -2.6 27.1 -2.6" fill="#ffffff" fill-opacity="0.0" fill-rule="evenodd" stroke="none"/>
    <path d="M27.1 -2.6 L18.95 -2.6 19.8 -1.5 24.6 -1.55 26.05 -0.15 30.1 -0.15 28.4 -1.55 28.3 -1.6 27.1 -2.6 Z" fill="none" stroke="#000000" stroke-linecap="butt" stroke-linejoin="miter-clip" stroke-miterlimit="10.0" stroke-opacity="0.4" stroke-width="1.0"/>
    <path d="M-9.2 -2.8 L-12.7 -2.8 -12.0 -3.75 -8.65 -3.75 -9.2 -2.8" fill="#ffffff" fill-opacity="0.0" fill-rule="evenodd" stroke="none"/>
    <path d="M-9.2 -2.8 L-12.7 -2.8 -12.0 -3.75 -8.65 -3.75 -9.2 -2.8 Z" fill="none" stroke="#000000" stroke-linecap="butt" stroke-linejoin="miter-clip" stroke-miterlimit="10.0" stroke-opacity="0.4" stroke-width="1.0"/>
    <path d="M-4.85 -2.85 L-8.35 -2.8 -7.85 -3.75 -4.5 -3.8 -4.85 -2.85" fill="#ffffff" fill-opacity="0.0" fill-rule="evenodd" stroke="none"/>
    <path d="M-4.85 -2.85 L-8.35 -2.8 -7.85 -3.75 -4.5 -3.8 -4.85 -2.85 Z" fill="none" stroke="#000000" stroke-linecap="butt" stroke-linejoin="miter-clip" stroke-miterlimit="10.0" stroke-opacity="0.4" stroke-width="1.0"/>
    <path d="M-0.5 -2.85 L-4.0 -2.85 -3.7 -3.8 -0.35 -3.8 -0.5 -2.85" fill="#ffffff" fill-opacity="0.0" fill-rule="evenodd" stroke="none"/>
    <path d="M-0.5 -2.85 L-4.0 -2.85 -3.7 -3.8 -0.35 -3.8 -0.5 -2.85 Z" fill="none" stroke="#000000" stroke-linecap="butt" stroke-linejoin="miter-clip" stroke-miterlimit="10.0" stroke-opacity="0.4" stroke-width="1.0"/>
    <path d="M3.9 -2.85 L0.4 -2.85 0.45 -3.8 3.8 -3.8 3.9 -2.85" fill="#ffffff" fill-opacity="0.0" fill-rule="evenodd" stroke="none"/>
    <path d="M3.9 -2.85 L0.4 -2.85 0.45 -3.8 3.8 -3.8 3.9 -2.85 Z" fill="none" stroke="#000000" stroke-linecap="butt" stroke-linejoin="miter-clip" stroke-miterlimit="10.0" stroke-opacity="0.4" stroke-width="1.0"/>
    <path d="M4.65 -3.8 L8.0 -3.8 8.25 -2.85 4.75 -2.85 4.65 -3.8" fill="#ffffff" fill-opacity="0.0" fill-rule="evenodd" stroke="none"/>
    <path d="M4.65 -3.8 L8.0 -3.8 8.25 -2.85 4.75 -2.85 4.65 -3.8 Z" fill="none" stroke="#000000" stroke-linecap="butt" stroke-linejoin="miter-clip" stroke-miterlimit="10.0" stroke-opacity="0.4" stroke-width="1.0"/>
    <path d="M12.65 -2.85 L9.15 -2.85 8.8 -3.8 12.15 -3.8 12.65 -2.85" fill="#ffffff" fill-opacity="0.0" fill-rule="evenodd" stroke="none"/>
    <path d="M12.65 -2.85 L9.15 -2.85 8.8 -3.8 12.15 -3.8 12.65 -2.85 Z" fill="none" stroke="#000000" stroke-linecap="butt" stroke-linejoin="miter-clip" stroke-miterlimit="10.0" stroke-opacity="0.4" stroke-width="1.0"/>
    <path d="M17.05 -2.85 L13.5 -2.85 13.0 -3.8 16.35 -3.8 17.05 -2.85" fill="#ffffff" fill-opacity="0.0" fill-rule="evenodd" stroke="none"/>
    <path d="M17.05 -2.85 L13.5 -2.85 13.0 -3.8 16.35 -3.8 17.05 -2.85 Z" fill="none" stroke="#000000" stroke-linecap="butt" stroke-linejoin="miter-clip" stroke-miterlimit="10.0" stroke-opacity="0.4" stroke-width="1.0"/>
    <path d="M26.75 -2.9 L17.9 -2.85 17.2 -3.8 25.6 -3.8 26.75 -2.9" fill="#ffffff" fill-opacity="0.0" fill-rule="evenodd" stroke="none"/>
    <path d="M26.75 -2.9 L17.9 -2.85 17.2 -3.8 25.6 -3.8 26.75 -2.9 Z" fill="none" stroke="#000000" stroke-linecap="butt" stroke-linejoin="miter-clip" stroke-miterlimit="10.0" stroke-opacity="0.4" stroke-width="1.0"/>
  </g>
</svg>
