<?xml version="1.0" encoding="UTF-8" standalone="no"?>
<svg xmlns:xlink="http://www.w3.org/1999/xlink" height="362.45px" width="604.15px" xmlns="http://www.w3.org/2000/svg">
  <g transform="matrix(1.0, 0.0, 0.0, 1.0, 302.65, 181.45)">
    <path d="M290.7 -175.7 L290.35 -178.2 -290.9 -85.7 -290.55 -83.2 290.7 -175.7 M-298.15 -77.2 Q-303.3 -80.25 -298.9 -83.7 -295.9 -85.95 -290.65 -87.55 L290.6 -180.05 Q300.6 -181.7 300.95 -176.7 301.2 -174.2 299.35 -171.3 254.0 -162.7 -272.6 -78.35 L-293.15 -75.05 -272.6 -78.35 -100.0 -65.65 -86.9 -73.8 -3.15 -66.95 -15.6 -59.45 248.85 -40.05 Q255.1 -35.3 252.2 -33.45 L248.1 -32.55 -62.8 -56.95 -78.65 19.5 Q-53.15 30.85 -27.65 42.15 -23.65 45.0 -30.65 46.5 -55.2 35.5 -79.7 24.45 L-111.05 175.6 -105.1 175.55 -106.8 177.1 Q-108.95 178.85 -111.55 179.7 -119.75 182.5 -128.65 175.7 L-124.3 175.65 -121.4 162.65 -89.75 19.95 -154.0 -9.2 -165.65 -14.5 Q-263.8 -59.2 -289.3 -72.2 -297.2 -76.2 -298.15 -77.2 -296.85 -76.4 -294.8 -75.65 L-293.15 -75.05 -294.8 -75.65 Q-296.85 -76.4 -298.15 -77.2 M-291.05 -74.85 L-293.15 -75.05 -291.05 -74.85 -282.55 -71.0 -88.65 15.05 -72.5 -57.7 -291.05 -74.85 M-62.8 -56.95 L-72.5 -57.7 -62.8 -56.95 M-69.4 -53.8 L-121.3 173.05 Q-111.4 134.55 -101.65 95.3 L-93.9 63.55 Q-80.65 8.85 -74.5 -20.45 -68.2 -50.45 -69.4 -53.8 M-100.0 -65.65 L-15.6 -59.45 -100.0 -65.65 M-89.75 19.95 L-88.65 15.05 -89.75 19.95 M-78.65 19.5 L-79.7 24.45 -78.65 19.5 M-111.05 175.6 L-124.3 175.65 -111.05 175.6" fill="#ffffff" fill-opacity="0.0" fill-rule="evenodd" stroke="none"/>
    <path d="M290.7 -175.7 L-290.55 -83.2 -290.9 -85.7 290.35 -178.2 290.7 -175.7 M-69.4 -53.8 Q-68.2 -50.45 -74.5 -20.45 -80.65 8.85 -93.9 63.55 L-101.65 95.3 Q-111.4 134.55 -121.3 173.05 L-69.4 -53.8" fill="#ffffff" fill-opacity="0.6" fill-rule="evenodd" stroke="none"/>
    <path d="M-272.6 -78.35 Q254.0 -162.7 299.35 -171.3 301.2 -174.2 300.95 -176.7 300.6 -181.7 290.6 -180.05 L-290.65 -87.55 Q-295.9 -85.95 -298.9 -83.7 -303.3 -80.25 -298.15 -77.2 -296.85 -76.4 -294.8 -75.65 L-293.15 -75.05 -291.05 -74.85 -72.5 -57.7 -88.65 15.05 -89.75 19.95 -154.0 -9.2 -165.65 -14.5 Q-263.8 -59.2 -289.3 -72.2 -297.2 -76.2 -298.15 -77.2 M-272.6 -78.35 L-100.0 -65.65 -86.9 -73.8 -3.15 -66.95 -15.6 -59.45 248.85 -40.05 Q255.1 -35.3 252.2 -33.45 L248.1 -32.55 -62.8 -56.95 -78.65 19.5 Q-53.15 30.85 -27.65 42.15 -23.65 45.0 -30.65 46.5 -55.2 35.5 -79.7 24.45 L-111.05 175.6 -105.1 175.55 -106.8 177.1 Q-108.95 178.85 -111.55 179.7 -119.75 182.5 -128.65 175.7 L-124.3 175.65 -121.4 162.65 -89.75 19.95 M-291.05 -74.85 L-282.55 -71.0 -88.65 15.05 M-79.7 24.45 L-78.65 19.5" fill="none" stroke="#000000" stroke-linecap="butt" stroke-linejoin="miter-clip" stroke-miterlimit="10.0" stroke-width="1.0"/>
    <path d="M-293.15 -75.05 L-272.6 -78.35 M-121.4 162.65 L-289.3 -72.2 M-72.5 -57.7 L-62.8 -56.95 M-15.6 -59.45 L-100.0 -65.65 M-124.3 175.65 L-111.05 175.6" fill="none" stroke="#000000" stroke-linecap="butt" stroke-linejoin="miter-clip" stroke-miterlimit="10.0" stroke-opacity="0.6" stroke-width="1.0"/>
  </g>
</svg>
