<?xml version="1.0" encoding="UTF-8" standalone="no"?>
<svg xmlns:xlink="http://www.w3.org/1999/xlink" height="12.05px" width="11.4px" xmlns="http://www.w3.org/2000/svg">
  <g transform="matrix(1.0, 0.0, 0.0, 1.0, 5.05, 5.0)">
    <path d="M2.5 -1.7 Q1.75 -2.4 0.75 -2.4 -0.2 -2.4 -0.95 -1.7 -1.65 -0.95 -1.65 0.0 -1.65 1.0 -0.95 1.7 -0.25 2.4 0.75 2.4 1.75 2.4 2.5 1.7 3.2 1.0 3.2 0.0 3.2 -1.0 2.5 -1.7 M3.2 -3.2 Q4.55 -1.85 4.55 0.0 4.55 1.9 3.2 3.2 1.9 4.55 0.0 4.55 -1.85 4.55 -3.2 3.2 -4.55 1.9 -4.55 0.0 -4.55 -1.85 -3.2 -3.2 -1.9 -4.5 0.0 -4.5 1.9 -4.5 3.2 -3.2" fill="#ffffff" fill-rule="evenodd" stroke="none"/>
    <path d="M2.5 -1.7 Q3.2 -1.0 3.2 0.0 3.2 1.0 2.5 1.7 1.75 2.4 0.75 2.4 -0.25 2.4 -0.95 1.7 -1.65 1.0 -1.65 0.0 -1.65 -0.95 -0.95 -1.7 -0.2 -2.4 0.75 -2.4 1.75 -2.4 2.5 -1.7" fill="#ffffff" fill-opacity="0.0" fill-rule="evenodd" stroke="none"/>
    <path d="M2.5 -1.7 Q3.2 -1.0 3.2 0.0 3.2 1.0 2.5 1.7 1.75 2.4 0.75 2.4 -0.25 2.4 -0.95 1.7 -1.65 1.0 -1.65 0.0 -1.65 -0.95 -0.95 -1.7 -0.2 -2.4 0.75 -2.4 1.75 -2.4 2.5 -1.7 M3.2 -3.2 Q4.55 -1.85 4.55 0.0 4.55 1.9 3.2 3.2 1.9 4.55 0.0 4.55 -1.85 4.55 -3.2 3.2 -4.55 1.9 -4.55 0.0 -4.55 -1.85 -3.2 -3.2 -1.9 -4.5 0.0 -4.5 1.9 -4.5 3.2 -3.2" fill="none" stroke="#000000" stroke-linecap="butt" stroke-linejoin="miter-clip" stroke-miterlimit="10.0" stroke-opacity="0.6" stroke-width="1.0"/>
  </g>
</svg>
