<?xml version="1.0" encoding="UTF-8" standalone="no"?>
<svg xmlns:xlink="http://www.w3.org/1999/xlink" height="52.1px" width="76.0px" xmlns="http://www.w3.org/2000/svg">
  <g transform="matrix(1.0, 0.0, 0.0, 1.0, 37.4, 26.05)">
    <path d="M0.4 -23.1 L0.55 -23.45 0.4 -23.85 0.0 -24.0 -0.35 -23.85 -0.5 -23.45 -0.35 -23.1 0.0 -22.95 0.4 -23.1 M29.85 -24.7 Q30.7 -23.8 30.7 -22.55 L30.7 14.85 Q30.7 16.1 29.85 16.95 L29.5 17.25 36.95 22.2 36.9 22.2 36.95 23.75 36.55 24.5 Q35.85 25.3 34.6 25.55 L-34.6 25.55 Q-35.85 25.3 -36.5 24.5 L-36.9 23.75 -36.9 22.2 -29.45 17.25 -29.8 16.95 Q-30.7 16.1 -30.7 14.85 L-30.7 -22.55 Q-30.7 -23.8 -29.8 -24.7 -28.95 -25.55 -27.7 -25.55 L27.7 -25.55 Q28.95 -25.55 29.85 -24.7 M-36.9 22.2 L16.65 22.1 20.7 22.15 36.9 22.2 20.7 22.15 16.65 22.1 -36.9 22.2 M-29.45 17.25 L29.5 17.25 -29.45 17.25" fill="#ffffff" fill-opacity="0.0" fill-rule="evenodd" stroke="none"/>
    <path d="M0.4 -23.1 L0.0 -22.95 -0.35 -23.1 -0.5 -23.45 -0.35 -23.85 0.0 -24.0 0.4 -23.85 0.55 -23.45 0.4 -23.1" fill="#000000" fill-opacity="0.49803922" fill-rule="evenodd" stroke="none"/>
    <path d="M0.4 -23.1 L0.0 -22.95 -0.35 -23.1 -0.5 -23.45 -0.35 -23.85 0.0 -24.0 0.4 -23.85 0.55 -23.45 0.4 -23.1" fill="none" stroke="#000000" stroke-linecap="butt" stroke-linejoin="miter-clip" stroke-miterlimit="10.0" stroke-opacity="0.6" stroke-width="1.0"/>
    <path d="M29.85 -24.7 Q30.7 -23.8 30.7 -22.55 L30.7 14.85 Q30.7 16.1 29.85 16.95 L29.5 17.25" fill="none" stroke="#000000" stroke-linecap="butt" stroke-linejoin="miter-clip" stroke-miterlimit="10.0" stroke-width="1.0"/>
    <path d="M29.5 17.25 L36.95 22.2 36.9 22.2 36.95 23.75 36.55 24.5 Q35.85 25.3 34.6 25.55 L-34.6 25.55 Q-35.85 25.3 -36.5 24.5 L-36.9 23.75 -36.9 22.2 -29.45 17.25" fill="none" stroke="#000000" stroke-linecap="round" stroke-linejoin="miter-clip" stroke-miterlimit="10.0" stroke-width="1.0"/>
    <path d="M-29.45 17.25 L-29.8 16.95 Q-30.7 16.1 -30.7 14.85 L-30.7 -22.55 Q-30.7 -23.8 -29.8 -24.7 -28.95 -25.55 -27.7 -25.55 L27.7 -25.55 Q28.95 -25.55 29.85 -24.7" fill="none" stroke="#000000" stroke-linecap="round" stroke-linejoin="miter-clip" stroke-miterlimit="10.0" stroke-width="1.0"/>
    <path d="M36.9 22.2 L20.7 22.15 16.65 22.1 -36.9 22.2 M29.5 17.25 L-29.45 17.25" fill="none" stroke="#000000" stroke-linecap="round" stroke-linejoin="miter-clip" stroke-miterlimit="10.0" stroke-opacity="0.6" stroke-width="1.0"/>
  </g>
</svg>
