<?xml version="1.0" encoding="UTF-8" standalone="no"?>
<svg xmlns:xlink="http://www.w3.org/1999/xlink" height="27.35px" width="278.8px" xmlns="http://www.w3.org/2000/svg">
  <g transform="matrix(1.0, 0.0, 0.0, 1.0, 139.4, 13.9)">
    <path d="M-105.25 -10.0 L-106.75 -0.85 Q-107.65 4.4 -108.95 7.9 L-115.75 9.05 -122.8 9.55 Q-133.7 8.9 -138.8 10.45 -138.4 7.75 -136.15 2.8 -133.75 -2.75 -133.15 -5.15 L-128.8 -12.95 -128.0 -11.8 Q-126.8 -10.55 -124.7 -9.8 -118.1 -7.15 -105.25 -10.0" fill="#ffffff" fill-opacity="0.0" fill-rule="evenodd" stroke="none"/>
    <path d="M-128.0 -11.8 L-128.8 -12.95 -133.15 -5.15 Q-133.75 -2.75 -136.15 2.8 -138.4 7.75 -138.8 10.45 -133.7 8.9 -122.8 9.55 L-115.75 9.05 -108.95 7.9 Q-107.65 4.4 -106.75 -0.85 L-105.25 -10.0" fill="none" stroke="#000000" stroke-linecap="butt" stroke-linejoin="miter-clip" stroke-miterlimit="10.0" stroke-width="1.0"/>
    <path d="M-105.25 -10.0 Q-118.1 -7.15 -124.7 -9.8 -126.8 -10.55 -128.0 -11.8 Z" fill="none" stroke="#000000" stroke-linecap="butt" stroke-linejoin="miter-clip" stroke-miterlimit="10.0" stroke-opacity="0.6" stroke-width="1.0"/>
    <path d="M137.65 -8.0 L138.85 1.9 Q135.1 2.6 130.4 7.85 L126.35 12.95 107.35 12.95 Q107.9 9.55 111.4 3.65 115.3 -2.95 115.85 -4.55 L116.0 -5.05 Q128.6 -3.05 137.65 -8.0" fill="#ffffff" fill-opacity="0.0" fill-rule="evenodd" stroke="none"/>
    <path d="M116.0 -5.05 L115.85 -4.55 Q115.3 -2.95 111.4 3.65 107.9 9.55 107.35 12.95 L126.35 12.95 130.4 7.85 Q135.1 2.6 138.85 1.9 L137.65 -8.0" fill="none" stroke="#000000" stroke-linecap="butt" stroke-linejoin="miter-clip" stroke-miterlimit="10.0" stroke-width="1.0"/>
    <path d="M137.65 -8.0 Q128.6 -3.05 116.0 -5.05 Z" fill="none" stroke="#000000" stroke-linecap="butt" stroke-linejoin="miter-clip" stroke-miterlimit="10.0" stroke-opacity="0.6" stroke-width="1.0"/>
  </g>
</svg>
