<?xml version="1.0" encoding="UTF-8" standalone="no"?>
<svg xmlns:xlink="http://www.w3.org/1999/xlink" height="304.2px" width="815.95px" xmlns="http://www.w3.org/2000/svg">
  <g transform="matrix(1.0, 0.0, 0.0, 1.0, 407.95, 152.1)">
    <path d="M404.9 -152.1 L404.9 -151.95 408.0 -152.1 408.0 -49.85 -250.5 -49.75 -250.5 -134.25 -407.95 -134.35 -407.95 -152.1 404.9 -152.1" fill="#ffffff" fill-opacity="0.0" fill-rule="evenodd" stroke="none"/>
    <path d="M-250.7 114.95 L-250.7 105.3 112.9 105.15 Q107.95 109.45 103.5 114.85 L-250.7 114.95" fill="#ffffff" fill-opacity="0.0" fill-rule="evenodd" stroke="none"/>
    <path d="M407.75 105.15 L407.75 114.85 221.95 114.85 Q218.0 110.0 212.5 105.15 L407.75 105.15" fill="#ffffff" fill-opacity="0.0" fill-rule="evenodd" stroke="none"/>
    <path d="M-250.7 133.35 L-250.7 123.7 97.05 123.8 Q94.3 128.5 92.2 133.45 L-250.7 133.35" fill="#ffffff" fill-opacity="0.0" fill-rule="evenodd" stroke="none"/>
    <path d="M233.1 133.45 Q231.0 128.5 228.25 123.8 L407.75 123.8 407.75 133.45 233.1 133.45" fill="#ffffff" fill-opacity="0.0" fill-rule="evenodd" stroke="none"/>
    <path d="M-250.7 151.85 L-250.7 142.1 89.35 142.3 Q87.95 147.7 87.4 152.1 L-250.7 151.85" fill="#ffffff" fill-opacity="0.0" fill-rule="evenodd" stroke="none"/>
    <path d="M237.9 152.1 Q237.35 147.7 235.95 142.3 L407.75 142.3 407.75 152.1 237.9 152.1" fill="#ffffff" fill-opacity="0.0" fill-rule="evenodd" stroke="none"/>
  </g>
</svg>
