<?xml version="1.0" encoding="UTF-8" standalone="no"?>
<svg xmlns:xlink="http://www.w3.org/1999/xlink" height="101.75px" width="113.0px" xmlns="http://www.w3.org/2000/svg">
  <g transform="matrix(1.0, 0.0, 0.0, 1.0, 56.5, 50.9)">
    <path d="M33.85 -31.05 L33.85 -35.1 4.05 -35.1 -41.85 -32.1 -42.05 -35.1 -7.35 -37.5 -56.0 -47.4 -55.4 -50.4 4.15 -38.2 46.95 -38.2 51.55 -36.15 Q56.0 -32.7 56.0 -25.2 L56.0 32.15 55.55 34.7 Q54.85 37.55 53.05 39.3 50.25 41.7 46.0 41.35 L22.65 41.35 6.25 50.35 4.75 47.7 22.0 38.25 33.85 38.25 33.85 34.7 38.75 34.7 38.75 38.25 46.15 38.25 Q49.1 38.6 50.95 37.0 52.25 35.95 52.7 33.9 L52.9 32.15 52.9 -25.2 Q52.9 -30.85 49.95 -33.6 L46.8 -35.1 38.75 -35.1 38.75 -31.05 36.6 -31.1 33.85 -31.05 M24.05 -21.4 L21.2 -21.4 3.1 41.7 0.25 40.9 18.9 -24.4 24.05 -24.4 24.05 -21.4 M33.85 -35.1 L33.85 -36.25 38.75 -36.25 38.75 -35.1 38.75 -36.25 33.85 -36.25 33.85 -35.1 M33.85 38.25 L33.85 40.9 38.75 40.9 38.75 38.25 38.75 40.9 33.85 40.9 33.85 38.25" fill="#000000" fill-opacity="0.4" fill-rule="evenodd" stroke="none"/>
    <path d="M24.05 -24.45 L24.05 -25.8 Q24.05 -29.6 27.75 -30.6 L32.95 -31.0 33.85 -31.05 36.6 -31.1 38.75 -31.05 39.2 -31.05 45.45 -30.6 Q49.1 -29.6 49.1 -25.8 L49.1 29.4 Q49.1 33.2 45.45 34.25 L38.75 34.7 33.85 34.7 27.75 34.25 Q24.05 33.2 24.05 29.4 L24.05 -21.4 24.05 -24.4 24.05 -24.45" fill="#ffffff" fill-opacity="0.0" fill-rule="evenodd" stroke="none"/>
    <path d="M33.85 -35.1 L4.05 -35.1 -41.85 -32.1 -42.05 -35.1 -7.35 -37.5 -56.0 -47.4 -55.4 -50.4 4.15 -38.2 46.95 -38.2 51.55 -36.15 Q56.0 -32.7 56.0 -25.2 L56.0 32.15 55.55 34.7 Q54.85 37.55 53.05 39.3 50.25 41.7 46.0 41.35 L22.65 41.35 6.25 50.35 4.75 47.7 22.0 38.25 33.85 38.25 M24.05 -21.4 L21.2 -21.4 3.1 41.7 0.25 40.9 18.9 -24.4 24.05 -24.4 M38.75 38.25 L46.15 38.25 Q49.1 38.6 50.95 37.0 52.25 35.95 52.7 33.9 L52.9 32.15 52.9 -25.2 Q52.9 -30.85 49.95 -33.6 L46.8 -35.1 38.75 -35.1" fill="none" stroke="#000000" stroke-linecap="round" stroke-linejoin="round" stroke-opacity="0.6" stroke-width="1.0"/>
    <path d="M24.05 -24.45 L24.05 -25.8 Q24.05 -29.6 27.75 -30.6 L32.95 -31.0 33.85 -31.05" fill="none" stroke="#000000" stroke-linecap="butt" stroke-linejoin="miter-clip" stroke-miterlimit="10.0" stroke-width="1.0"/>
    <path d="M33.85 -31.05 L33.85 -35.1 M33.85 38.25 L33.85 34.7 27.75 34.25 Q24.05 33.2 24.05 29.4 L24.05 -21.4 M38.75 34.7 L45.45 34.25 Q49.1 33.2 49.1 29.4 L49.1 -25.8 Q49.1 -29.6 45.45 -30.6 L39.2 -31.05 38.75 -31.05 38.75 -35.1 M38.75 34.7 L38.75 38.25" fill="none" stroke="#000000" stroke-linecap="round" stroke-linejoin="miter-clip" stroke-miterlimit="10.0" stroke-width="1.0"/>
    <path d="M24.05 -24.4 L24.05 -24.45" fill="none" stroke="#000000" stroke-linecap="round" stroke-linejoin="miter-clip" stroke-miterlimit="10.0" stroke-opacity="0.6" stroke-width="1.0"/>
    <path d="M38.75 -31.05 L36.6 -31.1 33.85 -31.05 M38.75 -35.1 L38.75 -36.25 33.85 -36.25 33.85 -35.1 M24.05 -21.4 L24.05 -24.4 M33.85 34.7 L38.75 34.7 M38.75 38.25 L38.75 40.9 33.85 40.9 33.85 38.25" fill="none" stroke="#000000" stroke-linecap="round" stroke-linejoin="miter-clip" stroke-miterlimit="10.0" stroke-opacity="0.6" stroke-width="1.0"/>
  </g>
</svg>
