<?xml version="1.0" encoding="UTF-8" standalone="no"?>
<svg xmlns:xlink="http://www.w3.org/1999/xlink" height="57.5px" width="57.5px" xmlns="http://www.w3.org/2000/svg">
  <g transform="matrix(1.0, 0.0, 0.0, 1.0, 28.75, 28.75)">
    <path d="M15.55 -15.6 Q9.1 -22.05 0.0 -22.05 -9.15 -22.05 -15.6 -15.6 -22.05 -9.15 -22.05 0.0 -22.05 9.1 -15.6 15.6 -9.15 22.05 0.0 22.05 9.1 22.05 15.55 15.6 22.0 9.1 22.0 0.0 22.0 -9.15 15.55 -15.6 M20.0 -19.95 Q28.25 -11.7 28.25 0.0 28.25 11.7 20.0 20.0 11.7 28.25 0.0 28.25 -11.7 28.25 -19.95 20.0 -28.25 11.7 -28.25 0.0 -28.25 -11.7 -19.95 -19.95 -11.7 -28.25 0.0 -28.25 11.7 -28.25 20.0 -19.95 M-11.75 -20.35 L-13.75 -23.35 -17.25 -21.15 Q-20.95 -18.35 -21.75 -15.65 L-18.75 -14.0 -11.75 -20.35" fill="#ffffff" fill-opacity="0.0" fill-rule="evenodd" stroke="none"/>
    <path d="M16.7 -10.15 Q15.5 -12.1 13.8 -13.8 15.5 -12.1 16.7 -10.15 18.1 -7.9 18.8 -5.35 18.1 -7.9 16.7 -10.15 L12.6 -7.65 16.7 -10.15 M19.5 0.0 Q19.5 -2.85 18.8 -5.35 19.5 -2.85 19.5 0.0 19.5 2.4 19.0 4.6 19.5 2.4 19.5 0.0 L14.7 0.0 19.5 0.0 M17.1 9.5 Q18.4 7.2 19.0 4.6 18.4 7.2 17.1 9.5 15.8 11.8 13.8 13.8 L13.8 13.85 13.8 13.8 Q15.8 11.8 17.1 9.5 L12.9 7.15 17.1 9.5 M10.15 16.7 L13.8 13.85 10.15 16.7 Q7.9 18.1 5.4 18.8 7.9 18.1 10.15 16.7 L7.7 12.65 10.15 16.7 M4.6 -19.0 L0.0 -19.5 -5.35 -18.8 Q-7.9 -18.1 -10.15 -16.7 L-13.8 -13.8 Q-15.8 -11.8 -17.1 -9.5 -18.4 -7.2 -19.0 -4.6 -19.5 -2.4 -19.5 0.0 -19.5 2.8 -18.8 5.4 -18.1 7.9 -16.7 10.2 -15.5 12.1 -13.8 13.8 -11.8 15.8 -9.5 17.1 -7.25 18.4 -4.65 19.0 L0.0 19.5 5.4 18.8 0.0 19.5 -4.65 19.0 Q-7.25 18.4 -9.5 17.1 -11.8 15.8 -13.8 13.8 -15.5 12.1 -16.7 10.2 -18.1 7.9 -18.8 5.4 -19.5 2.8 -19.5 0.0 -19.5 -2.4 -19.0 -4.6 -18.4 -7.2 -17.1 -9.5 -15.8 -11.8 -13.8 -13.8 L-10.15 -16.7 Q-7.9 -18.1 -5.35 -18.8 L0.0 -19.5 4.6 -19.0 Q7.2 -18.4 9.5 -17.1 7.2 -18.4 4.6 -19.0 L3.5 -14.35 4.6 -19.0 M13.8 -13.8 Q11.75 -15.8 9.5 -17.1 11.75 -15.8 13.8 -13.8 L10.4 -10.45 13.8 -13.8 M12.6 -7.65 Q11.7 -9.15 10.4 -10.45 11.7 -9.15 12.6 -7.65 13.65 -5.95 14.2 -4.05 13.65 -5.95 12.6 -7.65 M3.5 -14.35 L0.0 -14.75 0.0 -19.5 0.0 -14.75 3.5 -14.35 Q5.4 -13.9 7.15 -12.9 5.4 -13.9 3.5 -14.35 M9.5 -17.1 L7.15 -12.9 9.5 -17.1 M8.45 -8.5 Q4.95 -12.0 0.0 -12.0 -5.0 -12.0 -8.5 -8.5 -12.0 -5.0 -12.0 0.0 -12.0 4.95 -8.5 8.5 -5.0 12.0 0.0 12.0 4.95 12.0 8.45 8.5 11.95 4.95 11.95 0.0 11.95 -5.0 8.45 -8.5 M18.8 -5.35 L14.2 -4.05 18.8 -5.35 M15.55 -15.6 Q22.0 -9.15 22.0 0.0 22.0 9.1 15.55 15.6 9.1 22.05 0.0 22.05 -9.15 22.05 -15.6 15.6 -22.05 9.1 -22.05 0.0 -22.05 -9.15 -15.6 -15.6 -9.15 -22.05 0.0 -22.05 9.1 -22.05 15.55 -15.6 M10.4 -10.45 Q8.9 -11.95 7.15 -12.9 8.9 -11.95 10.4 -10.45 M14.35 3.5 L19.0 4.6 14.35 3.5 Q13.85 5.4 12.9 7.15 13.85 5.4 14.35 3.5 14.7 1.8 14.7 0.0 14.7 1.8 14.35 3.5 M10.4 10.45 Q11.9 8.9 12.9 7.15 11.9 8.9 10.4 10.45 L13.8 13.85 10.4 10.45 7.7 12.65 Q6.0 13.7 4.1 14.25 6.0 13.7 7.7 12.65 L10.4 10.45 M5.4 18.8 L4.1 14.25 5.4 18.8 M0.0 19.5 L0.0 14.75 4.1 14.25 0.0 14.75 0.0 19.5 M14.7 0.0 Q14.7 -2.15 14.2 -4.05 14.7 -2.15 14.7 0.0 M-5.35 -18.8 L-4.05 -14.2 Q-6.0 -13.7 -7.7 -12.6 L-10.15 -16.7 -7.7 -12.6 Q-6.0 -13.7 -4.05 -14.2 L-5.35 -18.8 M-13.8 -13.8 L-10.45 -10.45 Q-11.95 -8.95 -12.9 -7.2 -13.9 -5.45 -14.35 -3.45 L-19.0 -4.6 -14.35 -3.45 Q-13.9 -5.45 -12.9 -7.2 L-17.1 -9.5 -12.9 -7.2 Q-11.95 -8.95 -10.45 -10.45 L-13.8 -13.8 M-3.5 14.35 L0.0 14.75 -3.5 14.35 -4.65 19.0 -3.5 14.35 Q-5.5 13.9 -7.2 12.95 L-9.5 17.1 -7.2 12.95 Q-5.5 13.9 -3.5 14.35 M0.0 -14.75 L-4.05 -14.2 0.0 -14.75 M-14.35 -3.45 Q-14.75 -1.8 -14.75 0.0 -14.75 2.15 -14.2 4.1 -13.7 6.0 -12.6 7.7 L-16.7 10.2 -12.6 7.7 Q-13.7 6.0 -14.2 4.1 L-18.8 5.4 -14.2 4.1 Q-14.75 2.15 -14.75 0.0 L-19.5 0.0 -14.75 0.0 Q-14.75 -1.8 -14.35 -3.45 M-10.45 10.45 L-7.2 12.95 -10.45 10.45 -13.8 13.8 -10.45 10.45 Q-11.75 9.15 -12.6 7.7 -11.75 9.15 -10.45 10.45 M-7.7 -12.6 L-10.45 -10.45 -7.7 -12.6" fill="#000000" fill-opacity="0.2" fill-rule="evenodd" stroke="none"/>
    <path d="M8.45 -8.5 Q11.95 -5.0 11.95 0.0 11.95 4.95 8.45 8.5 4.95 12.0 0.0 12.0 -5.0 12.0 -8.5 8.5 -12.0 4.95 -12.0 0.0 -12.0 -5.0 -8.5 -8.5 -5.0 -12.0 0.0 -12.0 4.95 -12.0 8.45 -8.5 M-4.45 -9.0 Q-5.7 -8.6 -7.05 -7.4 -9.8 -4.95 -10.45 -1.0 L-0.1 -1.35 -4.45 -9.0" fill="#000000" fill-opacity="0.4" fill-rule="evenodd" stroke="none"/>
    <path d="M-11.75 -20.35 L-18.75 -14.0 -21.75 -15.65 Q-20.95 -18.35 -17.25 -21.15 L-13.75 -23.35 -11.75 -20.35 M-4.45 -9.0 L-0.1 -1.35 -10.45 -1.0 Q-9.8 -4.95 -7.05 -7.4 -5.7 -8.6 -4.45 -9.0" fill="#ffffff" fill-opacity="0.6" fill-rule="evenodd" stroke="none"/>
    <path d="M20.0 -19.95 Q28.25 -11.7 28.25 0.0 28.25 11.7 20.0 20.0 11.7 28.25 0.0 28.25 -11.7 28.25 -19.95 20.0 -28.25 11.7 -28.25 0.0 -28.25 -11.7 -19.95 -19.95 -11.7 -28.25 0.0 -28.25 11.7 -28.25 20.0 -19.95" fill="none" stroke="#000000" stroke-linecap="butt" stroke-linejoin="miter-clip" stroke-miterlimit="10.0" stroke-width="1.0"/>
    <path d="M8.45 -8.5 Q11.95 -5.0 11.95 0.0 11.95 4.95 8.45 8.5 4.95 12.0 0.0 12.0 -5.0 12.0 -8.5 8.5 -12.0 4.95 -12.0 0.0 -12.0 -5.0 -8.5 -8.5 -5.0 -12.0 0.0 -12.0 4.95 -12.0 8.45 -8.5 M15.55 -15.6 Q22.0 -9.15 22.0 0.0 22.0 9.1 15.55 15.6 9.1 22.05 0.0 22.05 -9.15 22.05 -15.6 15.6 -22.05 9.1 -22.05 0.0 -22.05 -9.15 -15.6 -15.6 -9.15 -22.05 0.0 -22.05 9.1 -22.05 15.55 -15.6 M-10.15 -16.7 L-7.7 -12.6 Q-6.0 -13.7 -4.05 -14.2 L-5.35 -18.8 M-19.0 -4.6 L-14.35 -3.45 Q-13.9 -5.45 -12.9 -7.2 L-17.1 -9.5 M-12.9 -7.2 Q-11.95 -8.95 -10.45 -10.45 L-13.8 -13.8 M-10.45 -10.45 L-7.7 -12.6 M-16.7 10.2 L-12.6 7.7 Q-13.7 6.0 -14.2 4.1 L-18.8 5.4 M-14.2 4.1 Q-14.75 2.15 -14.75 0.0 L-19.5 0.0 M-13.8 13.8 L-10.45 10.45 Q-11.75 9.15 -12.6 7.7 M-4.65 19.0 L-3.5 14.35 Q-5.5 13.9 -7.2 12.95 L-9.5 17.1 M-7.2 12.95 L-10.45 10.45 M-14.75 0.0 Q-14.75 -1.8 -14.35 -3.45 M-4.05 -14.2 L0.0 -14.75 M0.0 14.75 L-3.5 14.35" fill="none" stroke="#000000" stroke-linecap="butt" stroke-linejoin="miter-clip" stroke-miterlimit="10.0" stroke-opacity="0.6" stroke-width="1.0"/>
    <path d="M13.8 -13.8 Q15.5 -12.1 16.7 -10.15 M0.0 -19.5 L0.0 -14.75 3.5 -14.35" fill="none" stroke="#000000" stroke-linecap="butt" stroke-linejoin="miter-clip" stroke-miterlimit="10.0" stroke-opacity="0.6" stroke-width="1.0"/>
    <path d="M16.7 -10.15 Q18.1 -7.9 18.8 -5.35 19.5 -2.85 19.5 0.0 19.5 2.4 19.0 4.6 18.4 7.2 17.1 9.5 15.8 11.8 13.8 13.8 L13.8 13.85 10.15 16.7 Q7.9 18.1 5.4 18.8 L0.0 19.5 -4.65 19.0 Q-7.25 18.4 -9.5 17.1 -11.8 15.8 -13.8 13.8 -15.5 12.1 -16.7 10.2 -18.1 7.9 -18.8 5.4 -19.5 2.8 -19.5 0.0 -19.5 -2.4 -19.0 -4.6 -18.4 -7.2 -17.1 -9.5 -15.8 -11.8 -13.8 -13.8 L-10.15 -16.7 Q-7.9 -18.1 -5.35 -18.8 L0.0 -19.5 4.6 -19.0 Q7.2 -18.4 9.5 -17.1 11.75 -15.8 13.8 -13.8 L10.4 -10.45 Q11.7 -9.15 12.6 -7.65 L16.7 -10.15 M3.5 -14.35 L4.6 -19.0 M3.5 -14.35 Q5.4 -13.9 7.15 -12.9 L9.5 -17.1 M12.6 -7.65 Q13.65 -5.95 14.2 -4.05 L18.8 -5.35 M7.15 -12.9 Q8.9 -11.95 10.4 -10.45 M19.0 4.6 L14.35 3.5 Q13.85 5.4 12.9 7.15 L17.1 9.5 M12.9 7.15 Q11.9 8.9 10.4 10.45 L13.8 13.85 M19.5 0.0 L14.7 0.0 Q14.7 1.8 14.35 3.5 M10.15 16.7 L7.7 12.65 Q6.0 13.7 4.1 14.25 L5.4 18.8 M10.4 10.45 L7.7 12.65 M14.2 -4.05 Q14.7 -2.15 14.7 0.0" fill="none" stroke="#000000" stroke-linecap="round" stroke-linejoin="miter-clip" stroke-miterlimit="10.0" stroke-opacity="0.6" stroke-width="1.0"/>
    <path d="M4.1 14.25 L0.0 14.75 0.0 19.5" fill="none" stroke="#000000" stroke-linecap="round" stroke-linejoin="miter-clip" stroke-miterlimit="10.0" stroke-opacity="0.6" stroke-width="1.0"/>
  </g>
</svg>
