<?xml version="1.0" encoding="UTF-8" standalone="no"?>
<svg xmlns:xlink="http://www.w3.org/1999/xlink" height="165.45px" width="387.75px" xmlns="http://www.w3.org/2000/svg">
  <g transform="matrix(1.0, 0.0, 0.0, 1.0, 193.7, 82.7)">
    <path d="M97.5 -62.85 Q95.8 -64.6 93.5 -64.6 L-90.85 -64.6 Q-93.25 -64.6 -94.85 -62.85 -96.6 -61.15 -96.6 -58.85 -96.6 -56.45 -94.85 -54.7 -93.25 -53.1 -90.85 -53.1 L93.5 -53.1 Q95.8 -53.1 97.5 -54.7 99.15 -56.45 99.15 -58.85 99.15 -61.15 97.5 -62.85 M112.35 -64.25 L105.8 -65.3 105.8 -10.3 Q113.5 -11.25 118.1 -16.55 L121.1 -21.7 121.1 -56.9 Q119.25 -62.2 112.35 -64.25 M-124.2 -7.2 Q-126.95 -10.45 -128.1 -14.1 L-128.8 -17.1 -128.8 -61.5 Q-124.45 -73.9 -109.7 -79.3 -102.35 -81.95 -95.9 -82.2 L95.9 -82.2 109.85 -79.3 Q124.55 -73.9 128.8 -61.5 L128.8 -17.1 128.1 -14.1 Q126.95 -10.45 124.2 -7.2 115.35 2.9 94.3 4.3 L-94.3 4.3 Q-115.35 2.9 -124.2 -7.2 -115.35 2.9 -94.3 4.3 L94.3 4.3 Q115.35 2.9 124.2 -7.2 L187.7 -7.2 190.9 -1.7 Q194.0 5.3 192.95 13.5 L189.5 36.5 Q184.9 60.4 179.3 64.65 174.35 67.75 165.15 70.85 146.75 77.2 125.7 77.65 L125.7 70.85 111.2 70.85 108.1 82.25 90.5 82.25 87.4 72.35 76.0 72.35 72.1 81.55 -72.2 81.55 -76.0 72.35 -87.5 72.35 -90.5 82.25 -108.1 82.25 -111.2 70.85 -125.7 70.85 -125.7 77.65 Q-146.75 77.2 -165.15 70.85 L-179.3 64.65 Q-185.05 60.4 -189.5 36.5 L-192.95 13.5 Q-194.0 5.3 -190.9 -1.7 L-187.7 -7.2 -124.2 -7.2 M93.5 -11.0 Q95.8 -11.0 97.5 -12.75 99.15 -14.45 99.15 -16.75 99.15 -19.15 97.5 -20.8 95.8 -22.5 93.5 -22.5 L-90.85 -22.5 Q-93.25 -22.5 -94.85 -20.8 -96.6 -19.15 -96.6 -16.75 -96.6 -14.45 -94.85 -12.75 -93.25 -11.0 -90.85 -11.0 L93.5 -11.0 M99.15 -37.8 Q99.15 -40.2 97.5 -41.85 95.8 -43.55 93.5 -43.55 L-90.85 -43.55 Q-93.25 -43.55 -94.85 -41.85 -96.6 -40.2 -96.6 -37.8 -96.6 -35.4 -94.85 -33.65 -93.25 -32.05 -90.85 -32.05 L93.5 -32.05 Q95.8 -32.05 97.5 -33.65 99.15 -35.4 99.15 -37.8 M182.85 6.95 L185.15 3.25 Q180.55 6.8 173.9 7.85 L19.8 10.95 175.95 11.4 Q179.75 10.75 182.85 6.95 M127.2 33.4 L74.4 33.4 74.4 58.55 127.2 58.55 127.2 33.4 M57.85 57.75 L57.85 33.4 -56.1 33.4 -56.1 57.75 57.85 57.75 M-112.35 -64.25 Q-119.25 -62.2 -121.1 -56.9 L-121.1 -21.7 -118.1 -16.55 Q-113.5 -11.25 -105.8 -10.3 L-105.8 -65.3 Q-108.9 -65.3 -112.35 -64.25 M-74.4 58.55 L-74.4 33.4 -127.2 33.4 -127.2 58.55 -74.4 58.55 M-182.85 6.95 Q-179.75 10.75 -175.95 11.4 L31.65 11.4 -173.9 7.85 Q-180.55 6.8 -185.15 3.25 L-182.85 6.95" fill="#ffffff" fill-opacity="0.0" fill-rule="evenodd" stroke="none"/>
    <path d="M112.35 -64.25 Q119.25 -62.2 121.1 -56.9 L121.1 -21.7 118.1 -16.55 Q113.5 -11.25 105.8 -10.3 L105.8 -65.3 112.35 -64.25 M97.5 -62.85 Q99.15 -61.15 99.15 -58.85 99.15 -56.45 97.5 -54.7 95.8 -53.1 93.5 -53.1 L-90.85 -53.1 Q-93.25 -53.1 -94.85 -54.7 -96.6 -56.45 -96.6 -58.85 -96.6 -61.15 -94.85 -62.85 -93.25 -64.6 -90.85 -64.6 L93.5 -64.6 Q95.8 -64.6 97.5 -62.85 M99.15 -37.8 Q99.15 -35.4 97.5 -33.65 95.8 -32.05 93.5 -32.05 L-90.85 -32.05 Q-93.25 -32.05 -94.85 -33.65 -96.6 -35.4 -96.6 -37.8 -96.6 -40.2 -94.85 -41.85 -93.25 -43.55 -90.85 -43.55 L93.5 -43.55 Q95.8 -43.55 97.5 -41.85 99.15 -40.2 99.15 -37.8 M93.5 -11.0 L-90.85 -11.0 Q-93.25 -11.0 -94.85 -12.75 -96.6 -14.45 -96.6 -16.75 -96.6 -19.15 -94.85 -20.8 -93.25 -22.5 -90.85 -22.5 L93.5 -22.5 Q95.8 -22.5 97.5 -20.8 99.15 -19.15 99.15 -16.75 99.15 -14.45 97.5 -12.75 95.8 -11.0 93.5 -11.0 M127.2 33.4 L127.2 58.55 74.4 58.55 74.4 33.4 127.2 33.4 M57.85 57.75 L-56.1 57.75 -56.1 33.4 57.85 33.4 57.85 57.75 M-112.35 -64.25 Q-108.9 -65.3 -105.8 -65.3 L-105.8 -10.3 Q-113.5 -11.25 -118.1 -16.55 L-121.1 -21.7 -121.1 -56.9 Q-119.25 -62.2 -112.35 -64.25 M-74.4 58.55 L-127.2 58.55 -127.2 33.4 -74.4 33.4 -74.4 58.55" fill="#000000" fill-opacity="0.29803923" fill-rule="evenodd" stroke="none"/>
    <path d="M182.85 6.95 Q179.75 10.75 175.95 11.4 L19.8 10.95 173.9 7.85 Q180.55 6.8 185.15 3.25 L182.85 6.95 M-182.85 6.95 L-185.15 3.25 Q-180.55 6.8 -173.9 7.85 L31.65 11.4 -175.95 11.4 Q-179.75 10.75 -182.85 6.95" fill="#ffffff" fill-opacity="0.6" fill-rule="evenodd" stroke="none"/>
    <path d="M124.2 -7.2 Q126.95 -10.45 128.1 -14.1 L128.8 -17.1 128.8 -61.5 Q124.55 -73.9 109.85 -79.3 L95.9 -82.2 -95.9 -82.2 Q-102.35 -81.95 -109.7 -79.3 -124.45 -73.9 -128.8 -61.5 L-128.8 -17.1 -128.1 -14.1 Q-126.95 -10.45 -124.2 -7.2 L-187.7 -7.2 -190.9 -1.7 Q-194.0 5.3 -192.95 13.5 L-189.5 36.5 Q-185.05 60.4 -179.3 64.65 L-165.15 70.85 Q-146.75 77.2 -125.7 77.65 L-125.7 70.85 -111.2 70.85 -108.1 82.25 -90.5 82.25 -87.5 72.35 -76.0 72.35 -72.2 81.55 72.1 81.55 76.0 72.35 87.4 72.35 90.5 82.25 108.1 82.25 111.2 70.85 125.7 70.85 125.7 77.65 Q146.75 77.2 165.15 70.85 174.35 67.75 179.3 64.65 184.9 60.4 189.5 36.5 L192.95 13.5 Q194.0 5.3 190.9 -1.7 L187.7 -7.2 124.2 -7.2" fill="none" stroke="#000000" stroke-linecap="butt" stroke-linejoin="miter-clip" stroke-miterlimit="10.0" stroke-width="1.0"/>
    <path d="M112.35 -64.25 Q119.25 -62.2 121.1 -56.9 L121.1 -21.7 118.1 -16.55 Q113.5 -11.25 105.8 -10.3 L105.8 -65.3 112.35 -64.25 M97.5 -62.85 Q99.15 -61.15 99.15 -58.85 99.15 -56.45 97.5 -54.7 95.8 -53.1 93.5 -53.1 L-90.85 -53.1 Q-93.25 -53.1 -94.85 -54.7 -96.6 -56.45 -96.6 -58.85 -96.6 -61.15 -94.85 -62.85 -93.25 -64.6 -90.85 -64.6 L93.5 -64.6 Q95.8 -64.6 97.5 -62.85 M-124.2 -7.2 Q-115.35 2.9 -94.3 4.3 L94.3 4.3 Q115.35 2.9 124.2 -7.2 M99.15 -37.8 Q99.15 -35.4 97.5 -33.65 95.8 -32.05 93.5 -32.05 L-90.85 -32.05 Q-93.25 -32.05 -94.85 -33.65 -96.6 -35.4 -96.6 -37.8 -96.6 -40.2 -94.85 -41.85 -93.25 -43.55 -90.85 -43.55 L93.5 -43.55 Q95.8 -43.55 97.5 -41.85 99.15 -40.2 99.15 -37.8 M93.5 -11.0 L-90.85 -11.0 Q-93.25 -11.0 -94.85 -12.75 -96.6 -14.45 -96.6 -16.75 -96.6 -19.15 -94.85 -20.8 -93.25 -22.5 -90.85 -22.5 L93.5 -22.5 Q95.8 -22.5 97.5 -20.8 99.15 -19.15 99.15 -16.75 99.15 -14.45 97.5 -12.75 95.8 -11.0 93.5 -11.0 M127.2 33.4 L74.4 33.4 74.4 58.55 127.2 58.55 127.2 33.4 M57.85 57.75 L-56.1 57.75 -56.1 33.4 57.85 33.4 57.85 57.75 M-112.35 -64.25 Q-119.25 -62.2 -121.1 -56.9 L-121.1 -21.7 -118.1 -16.55 Q-113.5 -11.25 -105.8 -10.3 L-105.8 -65.3 Q-108.9 -65.3 -112.35 -64.25 M-74.4 58.55 L-127.2 58.55 -127.2 33.4 -74.4 33.4 -74.4 58.55" fill="none" stroke="#000000" stroke-linecap="butt" stroke-linejoin="miter-clip" stroke-miterlimit="10.0" stroke-opacity="0.6" stroke-width="1.0"/>
  </g>
</svg>
