<?xml version="1.0" encoding="UTF-8" standalone="no"?>
<svg xmlns:xlink="http://www.w3.org/1999/xlink" height="56.3px" width="26.3px" xmlns="http://www.w3.org/2000/svg">
  <g transform="matrix(1.0, 0.0, 0.0, 1.0, 13.15, 28.15)">
    <path d="M6.95 -9.75 L7.35 -15.0 Q7.35 -18.05 5.2 -20.2 7.35 -18.05 7.35 -15.0 L6.95 -9.75 Q8.65 -12.0 8.65 -15.0 8.65 -18.6 6.15 -21.1 3.6 -23.65 0.0 -23.65 -3.6 -23.65 -6.1 -21.1 -8.65 -18.6 -8.65 -15.0 -8.65 -12.25 -7.15 -10.1 L-7.35 -15.0 Q-7.35 -18.05 -5.2 -20.2 -3.05 -22.35 0.0 -22.35 3.05 -22.35 5.2 -20.2 3.05 -22.35 0.0 -22.35 -3.05 -22.35 -5.2 -20.2 -7.35 -18.05 -7.35 -15.0 L-7.15 -10.1 Q-8.65 -12.25 -8.65 -15.0 -8.65 -18.6 -6.1 -21.1 -3.6 -23.65 0.0 -23.65 3.6 -23.65 6.15 -21.1 8.65 -18.6 8.65 -15.0 8.65 -12.0 6.95 -9.75 L6.45 -4.05 Q3.5 27.65 0.0 27.65 -2.6 27.65 -5.2 7.85 L-6.6 -4.15 -8.95 -6.05 Q-12.65 -9.75 -12.65 -15.0 -12.65 -20.25 -8.95 -23.95 -5.25 -27.65 0.0 -27.65 5.25 -27.65 8.95 -23.95 12.65 -20.25 12.65 -15.0 12.65 -9.75 8.95 -6.05 L6.45 -4.05 6.95 -9.75 M-7.15 -10.1 L-6.6 -4.15 -7.15 -10.1 M-4.6 -17.5 Q-5.0 -16.5 -5.0 -15.65 -4.15 2.05 -1.8 14.8 -0.65 21.15 0.35 24.0 L-2.0 -20.35 Q-3.85 -19.5 -4.6 -17.5" fill="#ffffff" fill-opacity="0.0" fill-rule="evenodd" stroke="none"/>
    <path d="M-4.6 -17.5 Q-3.85 -19.5 -2.0 -20.35 L0.35 24.0 Q-0.65 21.15 -1.8 14.8 -4.15 2.05 -5.0 -15.65 -5.0 -16.5 -4.6 -17.5" fill="#ffffff" fill-opacity="0.6" fill-rule="evenodd" stroke="none"/>
    <path d="M5.2 -20.2 Q7.35 -18.05 7.35 -15.0 L6.95 -9.75" fill="none" stroke="#000000" stroke-linecap="butt" stroke-linejoin="miter-clip" stroke-miterlimit="10.0" stroke-opacity="0.6" stroke-width="1.0"/>
    <path d="M6.95 -9.75 Q8.65 -12.0 8.65 -15.0 8.65 -18.6 6.15 -21.1 3.6 -23.65 0.0 -23.65 -3.6 -23.65 -6.1 -21.1 -8.65 -18.6 -8.65 -15.0 -8.65 -12.25 -7.15 -10.1 L-7.35 -15.0 Q-7.35 -18.05 -5.2 -20.2 -3.05 -22.35 0.0 -22.35 3.05 -22.35 5.2 -20.2" fill="none" stroke="#000000" stroke-linecap="round" stroke-linejoin="miter-clip" stroke-miterlimit="10.0" stroke-opacity="0.6" stroke-width="1.0"/>
    <path d="M6.45 -4.05 L8.95 -6.05 Q12.65 -9.75 12.65 -15.0 12.65 -20.25 8.95 -23.95 5.25 -27.65 0.0 -27.65 -5.25 -27.65 -8.95 -23.95 -12.65 -20.25 -12.65 -15.0 -12.65 -9.75 -8.95 -6.05 L-6.6 -4.15 -7.15 -10.1 M6.45 -4.05 Q3.5 27.65 0.0 27.65 -2.6 27.65 -5.2 7.85 L-6.6 -4.15" fill="none" stroke="#000000" stroke-linecap="round" stroke-linejoin="miter-clip" stroke-miterlimit="10.0" stroke-width="1.0"/>
    <path d="M6.95 -9.75 L6.45 -4.05" fill="none" stroke="#000000" stroke-linecap="round" stroke-linejoin="miter-clip" stroke-miterlimit="10.0" stroke-width="1.0"/>
  </g>
</svg>
