<?xml version="1.0" encoding="UTF-8" standalone="no"?>
<svg xmlns:xlink="http://www.w3.org/1999/xlink" height="11.75px" width="187.65px" xmlns="http://www.w3.org/2000/svg">
  <g transform="matrix(1.0, 0.0, 0.0, 1.0, 93.8, 4.35)">
    <path d="M-92.1 -3.85 L0.75 -1.6 Q93.55 0.9 93.35 2.4 93.2 3.65 0.35 3.85 L-92.5 3.7 -93.2 0.9 Q-93.6 -2.2 -92.1 -3.85" fill="#ffffff" fill-opacity="0.0" fill-rule="evenodd" stroke="none"/>
    <path d="M-92.1 -3.85 L0.75 -1.6 Q93.55 0.9 93.35 2.4 93.2 3.65 0.35 3.85 L-92.5 3.7 -93.2 0.9 Q-93.6 -2.2 -92.1 -3.85 Z" fill="none" stroke="#000000" stroke-linecap="butt" stroke-linejoin="miter-clip" stroke-miterlimit="10.0" stroke-width="1.0"/>
    <path d="M-79.15 -1.85 L-79.85 -1.2 -90.1 -2.15 -79.15 -1.85" fill="#ffffff" fill-opacity="0.6" fill-rule="evenodd" stroke="none"/>
    <path d="M30.15 0.7 L29.55 1.25 17.6 1.1 18.3 0.4 30.15 0.7" fill="#ffffff" fill-opacity="0.6" fill-rule="evenodd" stroke="none"/>
    <path d="M-3.6 -0.1 L8.3 0.15 7.5 0.95 -4.45 0.75 -3.6 -0.1" fill="#ffffff" fill-opacity="0.6" fill-rule="evenodd" stroke="none"/>
    <path d="M-69.3 -1.65 L-57.25 -1.4 -58.3 -0.45 -70.2 -0.8 -69.3 -1.65" fill="#ffffff" fill-opacity="0.6" fill-rule="evenodd" stroke="none"/>
    <path d="M52.0 1.15 L51.6 1.55 39.7 1.35 40.2 0.9 52.0 1.15" fill="#ffffff" fill-opacity="0.6" fill-rule="evenodd" stroke="none"/>
    <path d="M-13.6 -0.35 L-14.55 0.55 -26.4 0.35 -25.45 -0.65 -13.6 -0.35" fill="#ffffff" fill-opacity="0.6" fill-rule="evenodd" stroke="none"/>
    <path d="M-47.35 -1.15 L-35.4 -0.85 -36.45 0.15 -48.35 -0.15 -47.35 -1.15" fill="#ffffff" fill-opacity="0.6" fill-rule="evenodd" stroke="none"/>
    <path d="M62.05 1.4 L73.85 1.7 73.8 1.75 61.8 1.65 62.05 1.4" fill="#ffffff" fill-opacity="0.6" fill-rule="evenodd" stroke="none"/>
  </g>
</svg>
