<?xml version="1.0" encoding="UTF-8" standalone="no"?>
<svg xmlns:xlink="http://www.w3.org/1999/xlink" height="95.55px" width="172.35px" xmlns="http://www.w3.org/2000/svg">
  <g transform="matrix(1.0, 0.0, 0.0, 1.0, 86.15, 47.75)">
    <path d="M15.15 -47.05 Q37.8 -46.7 57.05 -38.65 85.2 -26.95 85.7 -3.55 86.25 20.5 71.85 31.65 66.05 36.1 57.0 39.25 51.05 41.3 39.7 43.85 2.7 48.2 -34.35 47.1 -46.65 46.7 -58.5 40.9 -70.5 35.0 -77.9 25.45 -85.2 16.0 -85.6 5.0 -86.0 -4.8 -80.9 -16.8 -71.75 -38.45 -34.45 -44.75 -21.7 -46.85 -5.65 -47.2 L15.15 -47.05" fill="#ffffff" fill-opacity="0.0" fill-rule="evenodd" stroke="none"/>
    <path d="M85.7 -3.55 Q86.25 20.5 71.85 31.65 66.05 36.1 57.0 39.25 51.05 41.3 39.7 43.85 2.7 48.2 -34.35 47.1 -46.65 46.7 -58.5 40.9 -70.5 35.0 -77.9 25.45 -86.3 14.5 -85.6 1.35 -76.0 10.3 -60.0 15.7 -37.35 23.4 -5.9 22.2 30.05 20.85 54.0 13.5 76.1 6.7 85.65 -4.45 L85.7 -3.55" fill="#000000" fill-opacity="0.09803922" fill-rule="evenodd" stroke="none"/>
    <path d="M15.15 -47.05 Q37.8 -46.7 57.05 -38.65 85.2 -26.95 85.7 -3.55 86.25 20.5 71.85 31.65 66.05 36.1 57.0 39.25 51.05 41.3 39.7 43.85 2.7 48.2 -34.35 47.1 -46.65 46.7 -58.5 40.9 -70.5 35.0 -77.9 25.45 -85.2 16.0 -85.6 5.0 -86.0 -4.8 -80.9 -16.8 -71.75 -38.45 -34.45 -44.75 -21.7 -46.85 -5.65 -47.2 L15.15 -47.05 Z" fill="none" stroke="#000000" stroke-linecap="butt" stroke-linejoin="miter-clip" stroke-miterlimit="10.0" stroke-opacity="0.6" stroke-width="1.0"/>
    <path d="M-44.65 -1.75 Q-19.65 3.4 9.1 1.2 -3.75 4.45 -19.35 5.0 -50.45 6.15 -63.9 -7.3 L-58.95 -5.5 Q-52.45 -3.35 -44.65 -1.75" fill="#ffffff" fill-opacity="0.6" fill-rule="evenodd" stroke="none"/>
  </g>
</svg>
