<?xml version="1.0" encoding="UTF-8" standalone="no"?>
<svg xmlns:xlink="http://www.w3.org/1999/xlink" height="312.15px" width="92.6px" xmlns="http://www.w3.org/2000/svg">
  <g transform="matrix(1.0, 0.0, 0.0, 1.0, 46.35, 156.05)">
    <path d="M37.2 -154.95 Q37.65 -155.55 38.3 -155.55 38.95 -155.55 39.4 -154.95 39.85 -154.35 39.85 -153.5 L39.85 -145.85 Q41.35 -145.5 42.45 -144.35 44.15 -142.6 44.15 -140.2 L44.15 -132.0 Q44.15 -129.6 42.45 -127.9 41.3 -126.75 39.85 -126.35 L39.85 -121.85 Q41.35 -121.5 42.45 -120.35 44.15 -118.6 44.15 -116.2 L44.15 -108.1 Q44.15 -105.6 42.45 -103.9 41.3 -102.75 39.85 -102.35 L39.85 102.8 Q41.3 103.2 42.45 104.35 44.15 106.05 44.15 108.5 L44.15 116.6 Q44.15 119.1 42.45 120.8 41.35 121.9 39.85 122.3 L39.85 124.95 Q41.3 125.35 42.45 126.5 44.15 128.2 44.15 130.6 L44.15 138.8 Q44.15 141.25 42.45 142.95 41.35 144.1 39.85 144.5 L39.85 153.65 Q39.85 154.5 39.4 155.05 38.95 155.6 38.3 155.6 37.65 155.6 37.2 155.05 36.75 154.5 36.75 153.65 L36.75 144.45 Q35.3 144.05 34.15 142.95 32.45 141.25 32.45 138.8 L32.45 130.6 Q32.45 128.2 34.15 126.5 35.3 125.35 36.75 124.95 L36.75 122.25 Q35.3 121.9 34.15 120.8 32.45 119.1 32.45 116.6 L32.45 108.5 Q32.45 106.05 34.15 104.35 35.3 103.2 36.75 102.8 L36.75 -102.35 Q35.3 -102.75 34.15 -103.9 32.45 -105.6 32.45 -108.1 L32.45 -116.2 Q32.45 -118.6 34.15 -120.35 35.3 -121.45 36.75 -121.85 L36.75 -126.35 Q35.3 -126.75 34.15 -127.9 32.45 -129.6 32.45 -132.0 L32.45 -140.2 Q32.45 -142.6 34.15 -144.35 35.3 -145.45 36.75 -145.85 L36.75 -153.5 Q36.75 -154.35 37.2 -154.95 M39.85 -142.35 L39.85 -145.85 39.85 -142.35 39.85 -139.85 Q39.85 -139.1 39.4 -138.5 38.95 -137.9 38.3 -137.9 37.65 -137.9 37.2 -138.5 36.75 -139.1 36.75 -139.85 L36.75 -142.35 36.05 -141.7 Q35.1 -140.45 35.1 -138.8 L35.1 -133.15 Q35.1 -131.5 36.05 -130.25 L36.75 -129.55 36.75 -130.95 Q36.75 -131.8 37.2 -132.3 37.65 -132.9 38.3 -132.9 38.95 -132.9 39.4 -132.3 39.85 -131.8 39.85 -130.95 L39.85 -129.55 40.6 -130.25 Q41.5 -131.5 41.5 -133.15 L41.5 -138.8 Q41.5 -140.45 40.6 -141.7 L39.85 -142.35 M39.85 -126.35 L39.85 -129.55 39.85 -126.35 M36.75 -145.85 L36.75 -142.35 36.75 -145.85 M36.75 -126.35 L36.75 -129.55 36.75 -126.35 M39.85 -118.45 L39.85 -121.85 39.85 -118.45 39.85 -117.3 Q39.85 -116.45 39.4 -115.9 38.95 -115.3 38.3 -115.3 37.65 -115.3 37.2 -115.9 36.75 -116.45 36.75 -117.3 L36.75 -118.4 36.75 -121.85 36.75 -118.4 36.05 -117.75 Q35.1 -116.55 35.1 -114.85 L35.1 -109.2 Q35.1 -107.5 36.05 -106.3 L36.75 -105.65 36.75 -107.05 Q36.75 -107.8 37.2 -108.4 37.65 -109.0 38.3 -109.0 38.95 -109.0 39.4 -108.4 L39.85 -107.05 39.85 -105.6 40.6 -106.3 Q41.5 -107.5 41.5 -109.2 L41.5 -114.85 Q41.5 -116.55 40.6 -117.75 L39.85 -118.45 M39.85 -102.35 L39.85 -105.6 39.85 -102.35 M36.75 -102.35 L36.75 -105.65 36.75 -102.35 M39.85 119.1 L40.6 118.4 Q41.5 117.15 41.5 115.45 L41.5 109.85 Q41.5 108.15 40.6 106.95 L39.85 106.25 39.85 109.4 39.4 110.75 Q38.95 111.35 38.3 111.35 37.65 111.35 37.2 110.75 36.75 110.2 36.75 109.4 L36.75 106.3 36.05 106.95 Q35.1 108.15 35.1 109.85 L35.1 115.45 Q35.1 117.15 36.05 118.4 L36.75 119.05 36.75 115.6 Q36.75 114.75 37.2 114.2 37.65 113.65 38.3 113.65 38.95 113.65 39.4 114.2 39.85 114.75 39.85 115.6 L39.85 119.1 39.85 122.3 39.85 119.1 M39.85 141.25 L40.6 140.55 Q41.5 139.3 41.5 137.6 L41.5 131.95 Q41.5 130.35 40.6 129.1 L39.85 128.45 39.85 124.95 39.85 128.45 39.85 129.25 Q39.85 130.1 39.4 130.65 38.95 131.25 38.3 131.25 37.65 131.25 37.2 130.65 36.75 130.1 36.75 129.25 L36.75 128.45 36.05 129.1 Q35.1 130.35 35.1 131.95 L35.1 137.6 Q35.1 139.3 36.05 140.55 L36.75 141.2 36.75 140.0 Q36.75 139.2 37.2 138.6 37.65 138.0 38.3 138.0 38.95 138.0 39.4 138.6 39.85 139.2 39.85 140.0 L39.85 141.25 39.85 144.5 39.85 141.25 M39.85 102.8 L39.85 106.25 39.85 102.8 M36.75 102.8 L36.75 106.3 36.75 102.8 M36.75 122.25 L36.75 119.05 36.75 122.25 M36.75 124.95 L36.75 128.45 36.75 124.95 M36.75 141.2 L36.75 144.45 36.75 141.2 M-36.7 -153.5 L-36.7 -145.85 Q-35.25 -145.45 -34.15 -144.35 -32.4 -142.6 -32.4 -140.2 L-32.4 -132.0 Q-32.4 -129.6 -34.15 -127.9 -35.3 -126.75 -36.7 -126.35 L-36.7 -121.85 Q-35.25 -121.45 -34.15 -120.35 -32.4 -118.6 -32.4 -116.2 L-32.4 -108.1 Q-32.4 -105.6 -34.15 -103.9 -35.25 -102.75 -36.7 -102.35 L-36.7 102.85 Q-35.25 103.2 -34.15 104.35 -32.4 106.1 -32.4 108.5 L-32.4 116.6 Q-32.4 119.05 -34.15 120.8 -35.25 121.85 -36.7 122.25 L-36.7 125.0 Q-35.3 125.35 -34.15 126.5 -32.4 128.2 -32.4 130.6 L-32.4 138.8 Q-32.4 141.2 -34.15 142.95 -35.25 144.05 -36.7 144.45 L-36.7 153.65 Q-36.7 154.5 -37.15 155.05 -37.6 155.6 -38.35 155.6 -39.0 155.6 -39.45 155.05 L-39.9 153.65 -39.9 144.45 Q-41.35 144.05 -42.5 142.95 -44.2 141.25 -44.2 138.8 L-44.2 130.6 Q-44.2 128.2 -42.5 126.5 -41.35 125.35 -39.9 124.95 L-39.9 122.25 Q-41.35 121.9 -42.5 120.8 -44.2 119.1 -44.2 116.6 L-44.2 108.5 Q-44.2 106.05 -42.5 104.35 -41.35 103.2 -39.9 102.8 L-39.9 -102.35 Q-41.35 -102.75 -42.5 -103.9 -44.2 -105.6 -44.2 -108.1 L-44.2 -116.2 Q-44.2 -118.6 -42.5 -120.35 -41.35 -121.45 -39.9 -121.85 L-39.9 -126.35 Q-41.35 -126.75 -42.5 -127.9 -44.2 -129.6 -44.2 -132.0 L-44.2 -140.2 Q-44.2 -142.6 -42.5 -144.35 -41.35 -145.45 -39.9 -145.85 L-39.9 -153.5 Q-39.9 -154.35 -39.45 -154.95 -39.0 -155.55 -38.35 -155.55 -37.7 -155.55 -37.15 -154.95 -36.7 -154.35 -36.7 -153.5 M-39.9 -142.35 L-40.6 -141.7 Q-41.5 -140.45 -41.5 -138.8 L-41.5 -133.15 Q-41.5 -131.5 -40.6 -130.25 L-39.9 -129.55 -39.9 -130.95 Q-39.9 -131.8 -39.45 -132.3 -39.0 -132.9 -38.35 -132.9 -37.6 -132.9 -37.15 -132.3 -36.7 -131.8 -36.7 -130.95 L-36.7 -129.6 -36.05 -130.25 Q-35.15 -131.5 -35.15 -133.15 L-35.15 -138.8 Q-35.15 -140.45 -36.05 -141.7 L-36.7 -142.3 -36.7 -139.85 Q-36.7 -139.1 -37.15 -138.5 -37.7 -137.9 -38.35 -137.9 -39.0 -137.9 -39.45 -138.5 -39.9 -139.1 -39.9 -139.85 L-39.9 -142.35 -39.9 -145.85 -39.9 -142.35 M-39.9 -118.4 L-40.6 -117.75 Q-41.5 -116.55 -41.5 -114.85 L-41.5 -109.2 Q-41.5 -107.5 -40.6 -106.3 L-39.9 -105.65 -39.9 -107.05 -39.45 -108.4 Q-39.0 -109.0 -38.35 -109.0 -37.7 -109.0 -37.15 -108.4 -36.7 -107.8 -36.7 -107.05 L-36.7 -105.7 -36.05 -106.3 Q-35.15 -107.5 -35.15 -109.2 L-35.15 -114.85 Q-35.15 -116.55 -36.05 -117.75 L-36.7 -118.35 -36.7 -121.85 -36.7 -118.35 -36.7 -117.3 Q-36.7 -116.45 -37.15 -115.9 -37.7 -115.3 -38.35 -115.3 -39.0 -115.3 -39.45 -115.9 -39.9 -116.45 -39.9 -117.3 L-39.9 -118.4 -39.9 -121.85 -39.9 -118.4 M-36.7 -145.85 L-36.7 -142.3 -36.7 -145.85 M-36.7 -126.35 L-36.7 -129.6 -36.7 -126.35 M-39.9 -126.35 L-39.9 -129.55 -39.9 -126.35 M-36.7 -102.35 L-36.7 -105.7 -36.7 -102.35 M-39.9 -102.35 L-39.9 -105.65 -39.9 -102.35 M-39.9 106.3 L-40.6 106.95 Q-41.5 108.15 -41.5 109.85 L-41.5 115.45 Q-41.5 117.15 -40.6 118.4 L-39.9 119.05 -39.9 115.6 Q-39.9 114.75 -39.45 114.2 -39.0 113.65 -38.35 113.65 -37.6 113.65 -37.15 114.2 -36.7 114.75 -36.7 115.6 L-36.7 119.0 -36.05 118.4 Q-35.15 117.15 -35.15 115.45 L-35.15 109.85 Q-35.15 108.15 -36.05 106.95 L-36.7 106.35 -36.7 109.4 Q-36.7 110.2 -37.15 110.75 -37.7 111.35 -38.35 111.35 -39.0 111.35 -39.45 110.75 L-39.9 109.4 -39.9 106.3 -39.9 102.8 -39.9 106.3 M-36.7 106.35 L-36.7 102.85 -36.7 106.35 M-36.7 122.25 L-36.7 119.0 -36.7 122.25 M-39.9 119.05 L-39.9 122.25 -39.9 119.05 M-39.9 128.45 L-40.6 129.1 Q-41.5 130.35 -41.5 131.95 L-41.5 137.6 Q-41.5 139.3 -40.6 140.55 L-39.9 141.2 -39.9 140.0 -39.45 138.6 Q-39.0 138.0 -38.35 138.0 -37.7 138.0 -37.15 138.6 -36.7 139.2 -36.7 140.0 L-36.7 141.15 -36.05 140.55 Q-35.15 139.3 -35.15 137.6 L-35.15 131.95 Q-35.15 130.35 -36.05 129.1 L-36.7 128.5 -36.7 129.25 Q-36.7 130.1 -37.15 130.65 -37.7 131.25 -38.35 131.25 -39.0 131.25 -39.45 130.65 L-39.9 129.25 -39.9 128.45 -39.9 124.95 -39.9 128.45 M-36.7 128.5 L-36.7 125.0 -36.7 128.5 M-39.9 141.2 L-39.9 144.45 -39.9 141.2 M-36.7 144.45 L-36.7 141.15 -36.7 144.45" fill="#ffffff" fill-opacity="0.0" fill-rule="evenodd" stroke="none"/>
    <path d="M37.2 -154.95 Q37.65 -155.55 38.3 -155.55 38.95 -155.55 39.4 -154.95 39.85 -154.35 39.85 -153.5 L39.85 -145.85 M-36.7 -153.5 L-36.7 -145.85" fill="none" stroke="#000000" stroke-linecap="butt" stroke-linejoin="miter-clip" stroke-miterlimit="10.0" stroke-width="1.0"/>
    <path d="M39.85 -145.85 Q41.35 -145.5 42.45 -144.35 44.15 -142.6 44.15 -140.2 L44.15 -132.0 Q44.15 -129.6 42.45 -127.9 41.3 -126.75 39.85 -126.35 L39.85 -121.85 Q41.35 -121.5 42.45 -120.35 44.15 -118.6 44.15 -116.2 L44.15 -108.1 Q44.15 -105.6 42.45 -103.9 41.3 -102.75 39.85 -102.35 L39.85 102.8 Q41.3 103.2 42.45 104.35 44.15 106.05 44.15 108.5 L44.15 116.6 Q44.15 119.1 42.45 120.8 41.35 121.9 39.85 122.3 L39.85 124.95 Q41.3 125.35 42.45 126.5 44.15 128.2 44.15 130.6 L44.15 138.8 Q44.15 141.25 42.45 142.95 41.35 144.1 39.85 144.5 L39.85 153.65 Q39.85 154.5 39.4 155.05 38.95 155.6 38.3 155.6 37.65 155.6 37.2 155.05 36.75 154.5 36.75 153.65 L36.75 144.45 Q35.3 144.05 34.15 142.95 32.45 141.25 32.45 138.8 L32.45 130.6 Q32.45 128.2 34.15 126.5 35.3 125.35 36.75 124.95 L36.75 122.25 Q35.3 121.9 34.15 120.8 32.45 119.1 32.45 116.6 L32.45 108.5 Q32.45 106.05 34.15 104.35 35.3 103.2 36.75 102.8 L36.75 -102.35 Q35.3 -102.75 34.15 -103.9 32.45 -105.6 32.45 -108.1 L32.45 -116.2 Q32.45 -118.6 34.15 -120.35 35.3 -121.45 36.75 -121.85 L36.75 -126.35 Q35.3 -126.75 34.15 -127.9 32.45 -129.6 32.45 -132.0 L32.45 -140.2 Q32.45 -142.6 34.15 -144.35 35.3 -145.45 36.75 -145.85 M39.85 -142.35 L40.6 -141.7 Q41.5 -140.45 41.5 -138.8 L41.5 -133.15 Q41.5 -131.5 40.6 -130.25 L39.85 -129.55 39.85 -130.95 Q39.85 -131.8 39.4 -132.3 38.95 -132.9 38.3 -132.9 37.65 -132.9 37.2 -132.3 36.75 -131.8 36.75 -130.95 L36.75 -129.55 36.05 -130.25 Q35.1 -131.5 35.1 -133.15 L35.1 -138.8 Q35.1 -140.45 36.05 -141.7 L36.75 -142.35 36.75 -139.85 Q36.75 -139.1 37.2 -138.5 37.65 -137.9 38.3 -137.9 38.95 -137.9 39.4 -138.5 39.85 -139.1 39.85 -139.85 L39.85 -142.35 M39.85 -118.45 L40.6 -117.75 Q41.5 -116.55 41.5 -114.85 L41.5 -109.2 Q41.5 -107.5 40.6 -106.3 L39.85 -105.6 39.85 -107.05 39.4 -108.4 Q38.95 -109.0 38.3 -109.0 37.65 -109.0 37.2 -108.4 36.75 -107.8 36.75 -107.05 L36.75 -105.65 36.05 -106.3 Q35.1 -107.5 35.1 -109.2 L35.1 -114.85 Q35.1 -116.55 36.05 -117.75 L36.75 -118.4 36.75 -117.3 Q36.75 -116.45 37.2 -115.9 37.65 -115.3 38.3 -115.3 38.95 -115.3 39.4 -115.9 39.85 -116.45 39.85 -117.3 L39.85 -118.45 M39.85 106.25 L40.6 106.95 Q41.5 108.15 41.5 109.85 L41.5 115.45 Q41.5 117.15 40.6 118.4 L39.85 119.1 39.85 115.6 Q39.85 114.75 39.4 114.2 38.95 113.65 38.3 113.65 37.65 113.65 37.2 114.2 36.75 114.75 36.75 115.6 L36.75 119.05 36.05 118.4 Q35.1 117.15 35.1 115.45 L35.1 109.85 Q35.1 108.15 36.05 106.95 L36.75 106.3 36.75 109.4 Q36.75 110.2 37.2 110.75 37.65 111.35 38.3 111.35 38.95 111.35 39.4 110.75 L39.85 109.4 39.85 106.25 M39.85 128.45 L40.6 129.1 Q41.5 130.35 41.5 131.95 L41.5 137.6 Q41.5 139.3 40.6 140.55 L39.85 141.25 39.85 140.0 Q39.85 139.2 39.4 138.6 38.95 138.0 38.3 138.0 37.65 138.0 37.2 138.6 36.75 139.2 36.75 140.0 L36.75 141.2 36.05 140.55 Q35.1 139.3 35.1 137.6 L35.1 131.95 Q35.1 130.35 36.05 129.1 L36.75 128.45 36.75 129.25 Q36.75 130.1 37.2 130.65 37.65 131.25 38.3 131.25 38.95 131.25 39.4 130.65 39.85 130.1 39.85 129.25 L39.85 128.45 M-36.7 -145.85 Q-35.25 -145.45 -34.15 -144.35 -32.4 -142.6 -32.4 -140.2 L-32.4 -132.0 Q-32.4 -129.6 -34.15 -127.9 -35.3 -126.75 -36.7 -126.35 L-36.7 -121.85 Q-35.25 -121.45 -34.15 -120.35 -32.4 -118.6 -32.4 -116.2 L-32.4 -108.1 Q-32.4 -105.6 -34.15 -103.9 -35.25 -102.75 -36.7 -102.35 L-36.7 102.85 Q-35.25 103.2 -34.15 104.35 -32.4 106.1 -32.4 108.5 L-32.4 116.6 Q-32.4 119.05 -34.15 120.8 -35.25 121.85 -36.7 122.25 L-36.7 125.0 Q-35.3 125.35 -34.15 126.5 -32.4 128.2 -32.4 130.6 L-32.4 138.8 Q-32.4 141.2 -34.15 142.95 -35.25 144.05 -36.7 144.45 L-36.7 153.65 Q-36.7 154.5 -37.15 155.05 -37.6 155.6 -38.35 155.6 -39.0 155.6 -39.45 155.05 L-39.9 153.65 -39.9 144.45 Q-41.35 144.05 -42.5 142.95 -44.2 141.25 -44.2 138.8 L-44.2 130.6 Q-44.2 128.2 -42.5 126.5 -41.35 125.35 -39.9 124.95 L-39.9 122.25 Q-41.35 121.9 -42.5 120.8 -44.2 119.1 -44.2 116.6 L-44.2 108.5 Q-44.2 106.05 -42.5 104.35 -41.35 103.2 -39.9 102.8 L-39.9 -102.35 Q-41.35 -102.75 -42.5 -103.9 -44.2 -105.6 -44.2 -108.1 L-44.2 -116.2 Q-44.2 -118.6 -42.5 -120.35 -41.35 -121.45 -39.9 -121.85 L-39.9 -126.35 Q-41.35 -126.75 -42.5 -127.9 -44.2 -129.6 -44.2 -132.0 L-44.2 -140.2 Q-44.2 -142.6 -42.5 -144.35 -41.35 -145.45 -39.9 -145.85 M-39.9 -129.55 L-40.6 -130.25 Q-41.5 -131.5 -41.5 -133.15 L-41.5 -138.8 Q-41.5 -140.45 -40.6 -141.7 L-39.9 -142.35 -39.9 -139.85 Q-39.9 -139.1 -39.45 -138.5 -39.0 -137.9 -38.35 -137.9 -37.7 -137.9 -37.15 -138.5 -36.7 -139.1 -36.7 -139.85 L-36.7 -142.3 -36.05 -141.7 Q-35.15 -140.45 -35.15 -138.8 L-35.15 -133.15 Q-35.15 -131.5 -36.05 -130.25 L-36.7 -129.6 -36.7 -130.95 Q-36.7 -131.8 -37.15 -132.3 -37.6 -132.9 -38.35 -132.9 -39.0 -132.9 -39.45 -132.3 -39.9 -131.8 -39.9 -130.95 L-39.9 -129.55 M-39.9 -105.65 L-40.6 -106.3 Q-41.5 -107.5 -41.5 -109.2 L-41.5 -114.85 Q-41.5 -116.55 -40.6 -117.75 L-39.9 -118.4 -39.9 -117.3 Q-39.9 -116.45 -39.45 -115.9 -39.0 -115.3 -38.35 -115.3 -37.7 -115.3 -37.15 -115.9 -36.7 -116.45 -36.7 -117.3 L-36.7 -118.35 -36.05 -117.75 Q-35.15 -116.55 -35.15 -114.85 L-35.15 -109.2 Q-35.15 -107.5 -36.05 -106.3 L-36.7 -105.7 -36.7 -107.05 Q-36.7 -107.8 -37.15 -108.4 -37.7 -109.0 -38.35 -109.0 -39.0 -109.0 -39.45 -108.4 L-39.9 -107.05 -39.9 -105.65 M-39.9 106.3 L-40.6 106.95 Q-41.5 108.15 -41.5 109.85 L-41.5 115.45 Q-41.5 117.15 -40.6 118.4 L-39.9 119.05 -39.9 115.6 Q-39.9 114.75 -39.45 114.2 -39.0 113.65 -38.35 113.65 -37.6 113.65 -37.15 114.2 -36.7 114.75 -36.7 115.6 L-36.7 119.0 -36.05 118.4 Q-35.15 117.15 -35.15 115.45 L-35.15 109.85 Q-35.15 108.15 -36.05 106.95 L-36.7 106.35 -36.7 109.4 Q-36.7 110.2 -37.15 110.75 -37.7 111.35 -38.35 111.35 -39.0 111.35 -39.45 110.75 L-39.9 109.4 -39.9 106.3 M-39.9 128.45 L-40.6 129.1 Q-41.5 130.35 -41.5 131.95 L-41.5 137.6 Q-41.5 139.3 -40.6 140.55 L-39.9 141.2 -39.9 140.0 -39.45 138.6 Q-39.0 138.0 -38.35 138.0 -37.7 138.0 -37.15 138.6 -36.7 139.2 -36.7 140.0 L-36.7 141.15 -36.05 140.55 Q-35.15 139.3 -35.15 137.6 L-35.15 131.95 Q-35.15 130.35 -36.05 129.1 L-36.7 128.5 -36.7 129.25 Q-36.7 130.1 -37.15 130.65 -37.7 131.25 -38.35 131.25 -39.0 131.25 -39.45 130.65 L-39.9 129.25 -39.9 128.45" fill="none" stroke="#000000" stroke-linecap="round" stroke-linejoin="miter-clip" stroke-miterlimit="10.0" stroke-width="1.0"/>
    <path d="M36.75 -145.85 L36.75 -153.5 Q36.75 -154.35 37.2 -154.95 M-39.9 -145.85 L-39.9 -153.5 Q-39.9 -154.35 -39.45 -154.95 -39.0 -155.55 -38.35 -155.55 -37.7 -155.55 -37.15 -154.95 -36.7 -154.35 -36.7 -153.5" fill="none" stroke="#000000" stroke-linecap="round" stroke-linejoin="miter-clip" stroke-miterlimit="10.0" stroke-width="1.0"/>
    <path d="M39.85 -145.85 L39.85 -142.35 M39.85 -129.55 L39.85 -126.35 M36.75 -142.35 L36.75 -145.85 M36.75 -129.55 L36.75 -126.35 M39.85 -121.85 L39.85 -118.45 M39.85 -105.6 L39.85 -102.35 M36.75 -118.4 L36.75 -121.85 M36.75 -105.65 L36.75 -102.35 M39.85 119.1 L39.85 122.3 M39.85 141.25 L39.85 144.5 M39.85 106.25 L39.85 102.8 M36.75 106.3 L36.75 102.8 M36.75 119.05 L36.75 122.25 M36.75 128.45 L36.75 124.95 M39.85 124.95 L39.85 128.45 M36.75 144.45 L36.75 141.2 M-39.9 -142.35 L-39.9 -145.85 M-39.9 -118.4 L-39.9 -121.85 M-36.7 -142.3 L-36.7 -145.85 M-36.7 -129.6 L-36.7 -126.35 M-39.9 -129.55 L-39.9 -126.35 M-36.7 -121.85 L-36.7 -118.35 M-36.7 -105.7 L-36.7 -102.35 M-39.9 -105.65 L-39.9 -102.35 M-39.9 106.3 L-39.9 102.8 M-36.7 102.85 L-36.7 106.35 M-36.7 119.0 L-36.7 122.25 M-39.9 122.25 L-39.9 119.05 M-39.9 128.45 L-39.9 124.95 M-36.7 125.0 L-36.7 128.5 M-39.9 144.45 L-39.9 141.2 M-36.7 141.15 L-36.7 144.45" fill="none" stroke="#000000" stroke-linecap="round" stroke-linejoin="miter-clip" stroke-miterlimit="10.0" stroke-opacity="0.6" stroke-width="1.0"/>
  </g>
</svg>
