<?xml version="1.0" encoding="UTF-8" standalone="no"?>
<svg xmlns:xlink="http://www.w3.org/1999/xlink" height="51.3px" width="47.8px" xmlns="http://www.w3.org/2000/svg">
  <g transform="matrix(1.0, 0.0, 0.0, 1.0, 23.65, 25.45)">
    <path d="M-13.5 21.7 Q-12.85 19.95 -12.55 17.75 -12.2 15.0 -12.35 9.9 -12.4 7.95 -11.55 2.4 L-11.4 1.65 -11.4 1.45 Q-10.5 -3.75 -11.15 -6.85 L-8.35 1.45 -7.85 3.0 -7.55 4.0 Q-6.5 7.7 -6.7 10.25 -7.0 13.8 -9.75 18.3 L-12.25 21.85 Q-13.7 23.6 -15.3 24.95 -14.2 23.55 -13.5 21.7" fill="#000000" fill-opacity="0.4" fill-rule="evenodd" stroke="none"/>
    <path d="M9.35 4.3 L10.7 2.7 Q12.9 -0.2 14.8 -3.55 16.7 -6.9 20.15 -9.4 21.85 -10.6 23.2 -11.2 L21.9 -8.3 Q20.7 -5.05 20.9 -3.15 21.35 0.3 20.65 7.6 20.15 13.25 19.15 16.2 L19.1 16.2 17.85 15.6 16.6 14.05 Q13.95 9.7 11.95 7.2 L9.35 4.3 M7.6 7.6 Q7.5 6.2 8.3 5.4 L10.6 9.45 7.6 7.6 M-10.85 -24.95 L-10.85 -24.55 Q-10.7 -14.85 -3.55 4.5 L-3.45 4.85 -3.2 5.8 Q-2.35 9.95 -5.35 15.45 L-10.05 22.05 -12.25 21.85 -9.75 18.3 Q-7.0 13.8 -6.7 10.25 -6.5 7.7 -7.55 4.0 L-7.85 3.0 -8.35 1.45 -11.15 -6.85 Q-10.5 -3.75 -11.4 1.45 L-11.4 1.65 -11.55 2.4 Q-12.4 7.95 -12.35 9.9 -12.2 15.0 -12.55 17.75 -12.85 19.95 -13.5 21.7 L-17.7 21.3 -17.8 21.0 -18.3 19.65 Q-20.3 14.15 -21.55 9.35 L-22.0 7.7 -23.05 2.95 Q-23.35 1.3 -22.9 -1.05 L-22.7 -1.8 Q-22.05 -4.6 -20.4 -8.3 L-17.55 -14.0 Q-14.3 -20.0 -10.85 -24.95" fill="#ffffff" fill-opacity="0.0" fill-rule="evenodd" stroke="none"/>
    <path d="M9.35 4.3 L10.7 2.7 Q12.9 -0.2 14.8 -3.55 16.7 -6.9 20.15 -9.4 21.85 -10.6 23.2 -11.2 L21.9 -8.3 Q20.7 -5.05 20.9 -3.15 21.35 0.3 20.65 7.6 20.15 13.25 19.15 16.2 L19.1 16.2 M7.6 7.6 Q7.5 6.2 8.3 5.4 M-10.85 -24.95 Q-14.3 -20.0 -17.55 -14.0 L-20.4 -8.3 Q-22.05 -4.6 -22.7 -1.8 L-22.9 -1.05 Q-23.35 1.3 -23.05 2.95 L-21.95 8.0 -21.55 9.35 Q-20.3 14.15 -18.3 19.65 L-17.8 21.0 -17.7 21.3 M-10.05 22.05 L-5.35 15.45 Q-2.35 9.95 -3.2 5.8 L-3.45 4.85 -3.55 4.5 Q-10.7 -14.85 -10.85 -24.55" fill="none" stroke="#000000" stroke-linecap="butt" stroke-linejoin="miter-clip" stroke-miterlimit="10.0" stroke-width="1.0"/>
  </g>
</svg>
