<?xml version="1.0" encoding="UTF-8" standalone="no"?>
<svg xmlns:xlink="http://www.w3.org/1999/xlink" height="132.55px" width="34.45px" xmlns="http://www.w3.org/2000/svg">
  <g transform="matrix(1.0, 0.0, 0.0, 1.0, 17.25, 65.85)">
    <path d="M-8.25 30.2 L-1.35 30.0 Q5.85 29.9 7.6 30.2 10.15 30.6 12.8 34.3 15.9 38.65 15.55 43.75 15.2 49.2 15.5 53.9 15.75 58.5 16.45 59.6 17.3 60.85 15.15 62.8 12.85 64.9 9.95 64.25 L7.75 65.1 Q5.15 65.7 3.4 64.25 1.2 64.5 -0.95 64.25 -5.25 63.8 -5.0 61.45 -4.7 59.15 -2.7 56.8 L-0.8 54.95 -1.15 50.75 Q-1.4 45.85 -0.8 42.35 L-16.65 41.4 Q-16.05 38.7 -14.7 35.95 -12.05 30.45 -8.25 30.2" fill="#ffffff" fill-opacity="0.0" fill-rule="evenodd" stroke="none"/>
    <path d="M-8.25 30.2 L-1.35 30.0 Q5.85 29.9 7.6 30.2 10.15 30.6 12.8 34.3 15.9 38.65 15.55 43.75 15.2 49.2 15.5 53.9 15.75 58.5 16.45 59.6 17.3 60.85 15.15 62.8 12.85 64.9 9.95 64.25 L7.75 65.1 Q5.15 65.7 3.4 64.25 1.2 64.5 -0.95 64.25 -5.25 63.8 -5.0 61.45 -4.7 59.15 -2.7 56.8 L-0.8 54.95 -1.15 50.75 Q-1.4 45.85 -0.8 42.35 L-16.65 41.4 Q-16.05 38.7 -14.7 35.95 -12.05 30.45 -8.25 30.2 Z" fill="none" stroke="#000000" stroke-linecap="butt" stroke-linejoin="miter-clip" stroke-miterlimit="10.0" stroke-width="1.0"/>
    <path d="M3.4 64.25 Q6.2 61.35 7.25 58.9 L8.35 55.7 8.65 54.35" fill="none" stroke="#000000" stroke-linecap="butt" stroke-linejoin="miter-clip" stroke-miterlimit="10.0" stroke-opacity="0.6" stroke-width="1.0"/>
    <path d="M9.95 64.25 L11.5 62.8 Q13.1 61.05 13.55 59.6 L14.35 56.6 14.5 55.6" fill="none" stroke="#000000" stroke-linecap="butt" stroke-linejoin="miter-clip" stroke-miterlimit="10.0" stroke-opacity="0.6" stroke-width="1.0"/>
    <path d="M-1.85 -53.85 L2.35 -65.2 Q2.65 -66.15 5.85 -60.0 9.8 -52.4 10.95 -50.95 12.65 -48.9 12.75 -44.65 L12.45 -40.8 0.05 -28.7 Q-0.7 -28.55 -1.65 -29.55 -3.55 -31.5 -4.5 -37.15 -5.45 -42.8 -1.85 -53.85" fill="#ffffff" fill-opacity="0.0" fill-rule="evenodd" stroke="none"/>
    <path d="M12.45 -40.8 L12.75 -44.65 Q12.65 -48.9 10.95 -50.95 9.8 -52.4 5.85 -60.0 2.65 -66.15 2.35 -65.2 L-1.85 -53.85 Q-5.45 -42.8 -4.5 -37.15 -3.55 -31.5 -1.65 -29.55 -0.7 -28.55 0.05 -28.7" fill="none" stroke="#000000" stroke-linecap="butt" stroke-linejoin="miter-clip" stroke-miterlimit="10.0" stroke-width="1.0"/>
    <path d="M10.3 -40.1 L8.6 -35.2 8.8 -37.2 Q8.9 -39.15 8.4 -38.95 7.9 -38.8 7.5 -36.4 L7.25 -34.05 Q6.55 -34.45 5.9 -33.6 L5.35 -32.65 3.15 -32.1 3.05 -40.2 Q2.8 -43.85 4.25 -49.8 L4.55 -53.25 4.65 -55.85 6.25 -53.2 8.4 -49.3 9.9 -44.75 Q10.85 -41.25 10.3 -40.1" fill="#000000" fill-opacity="0.4" fill-rule="evenodd" stroke="none"/>
    <path d="M10.3 -40.1 L8.6 -35.2 8.8 -37.2 Q8.9 -39.15 8.4 -38.95 7.9 -38.8 7.5 -36.4 L7.25 -34.05 Q6.55 -34.45 5.9 -33.6 L5.35 -32.65 3.15 -32.1 3.05 -40.2 Q2.8 -43.85 4.25 -49.8 L4.55 -53.25 4.65 -55.85 6.25 -53.2 8.4 -49.3 9.9 -44.75 Q10.85 -41.25 10.3 -40.1 Z" fill="none" stroke="#000000" stroke-linecap="butt" stroke-linejoin="miter-clip" stroke-miterlimit="10.0" stroke-opacity="0.6" stroke-width="1.0"/>
  </g>
</svg>
