<?xml version="1.0" encoding="UTF-8" standalone="no"?>
<svg xmlns:xlink="http://www.w3.org/1999/xlink" height="83.1px" width="64.75px" xmlns="http://www.w3.org/2000/svg">
  <g transform="matrix(1.0, 0.0, 0.0, 1.0, 32.35, 40.95)">
    <path d="M5.2 -39.3 Q9.75 -41.35 16.6 -39.7 23.4 -38.2 26.7 -34.45 L30.35 -25.8 28.8 -21.45 30.6 -17.25 Q32.3 -13.0 31.75 -12.45 L28.7 -11.7 27.8 -7.4 26.25 -6.45 Q26.45 -3.6 25.55 -3.6 25.3 -3.6 24.75 -1.35 24.2 1.1 22.75 1.8 21.1 2.6 16.95 0.4 L13.05 -1.95 10.15 2.1 Q7.15 6.75 7.0 9.95 L10.3 27.8 Q12.0 36.85 11.9 40.4 L-28.5 38.35 Q-31.35 31.5 -31.8 25.05 -32.6 12.45 -24.45 2.8 L-21.7 -4.05 Q-18.6 -11.1 -17.25 -12.35 -15.0 -14.35 -4.0 -22.05 -3.25 -25.7 -1.7 -29.7 1.3 -37.6 5.2 -39.3" fill="#ffffff" fill-opacity="0.0" fill-rule="evenodd" stroke="none"/>
    <path d="M5.2 -39.3 Q1.3 -37.6 -1.7 -29.7 -3.25 -25.7 -4.0 -22.05 -15.0 -14.35 -17.25 -12.35 -18.6 -11.1 -21.7 -4.05 L-24.45 2.8 Q-32.6 12.45 -31.8 25.05 -31.35 31.5 -28.5 38.35 L11.9 40.4 Q12.0 36.85 10.3 27.8 L7.0 9.95 Q7.15 6.75 10.15 2.1 L13.05 -1.95 16.95 0.4 Q21.1 2.6 22.75 1.8 24.2 1.1 24.75 -1.35 25.3 -3.6 25.55 -3.6 26.45 -3.6 26.25 -6.45 L27.8 -7.4 28.7 -11.7 31.75 -12.45 Q32.3 -13.0 30.6 -17.25 L28.8 -21.45 30.35 -25.8 26.7 -34.45 Q23.4 -38.2 16.6 -39.7 9.75 -41.35 5.2 -39.3 Z" fill="none" stroke="#000000" stroke-linecap="butt" stroke-linejoin="miter-clip" stroke-miterlimit="10.0" stroke-width="1.0"/>
    <path d="M5.05 -4.05 L7.05 -15.65 Q9.75 -8.5 11.1 -5.95 12.0 -4.35 15.7 -1.8 18.25 -0.15 21.35 1.5 L19.6 1.1 Q17.8 0.45 15.35 -0.95 13.35 -2.25 13.3 -2.3 L12.95 -2.55 12.7 -2.25 10.3 1.0 Q7.9 4.6 7.05 7.55 L5.05 -4.05" fill="#000000" fill-opacity="0.2" fill-rule="evenodd" stroke="none"/>
    <path d="M28.6 -13.0 L26.15 -12.6 Q27.15 -13.6 28.6 -13.0" fill="#000000" fill-rule="evenodd" stroke="none"/>
    <path d="M28.5 -25.65 Q27.7 -24.75 26.2 -24.8 25.85 -24.8 23.45 -25.8 21.35 -26.65 19.45 -26.45 L18.25 -26.45 17.0 -26.55 19.1 -27.1 Q21.35 -27.5 22.85 -27.05 L28.5 -25.65" fill="#000000" fill-rule="evenodd" stroke="none"/>
    <path d="M26.4 -23.4 L25.65 -21.1 24.1 -21.0 Q22.85 -21.05 21.9 -22.05 L21.15 -23.1 22.15 -23.8 Q23.3 -24.45 24.1 -24.5 24.85 -24.5 25.6 -23.95 L26.4 -23.4" fill="#ffffff" fill-rule="evenodd" stroke="none"/>
    <path d="M26.4 -23.4 L25.6 -23.95 Q24.85 -24.5 24.1 -24.5 23.3 -24.45 22.15 -23.8 L21.15 -23.1 21.9 -22.05 Q22.85 -21.05 24.1 -21.0 L25.65 -21.1 26.4 -23.4 Z" fill="none" stroke="#000000" stroke-linecap="butt" stroke-linejoin="miter-clip" stroke-miterlimit="10.0" stroke-width="1.1500000000000001"/>
    <path d="M23.8 -22.95 L24.55 -23.8 25.65 -23.9 26.4 -23.4 25.65 -21.1 24.75 -21.05 Q24.15 -21.25 23.9 -21.85 23.65 -22.4 23.8 -22.95" fill="#000000" fill-rule="evenodd" stroke="none"/>
    <path d="M21.35 -8.3 L23.9 -7.7 Q25.4 -7.3 26.2 -6.5" fill="none" stroke="#000000" stroke-linecap="butt" stroke-linejoin="miter-clip" stroke-miterlimit="10.0" stroke-width="1.0"/>
  </g>
</svg>
