<?xml version="1.0" encoding="UTF-8" standalone="no"?>
<svg xmlns:xlink="http://www.w3.org/1999/xlink" height="109.45px" width="503.5px" xmlns="http://www.w3.org/2000/svg">
  <g transform="matrix(1.0, 0.0, 0.0, 1.0, 252.0, 54.2)">
    <path d="M-167.0 -43.3 Q-151.1 -48.25 -91.3 -47.7 -32.35 -47.2 -20.75 -42.55 -15.25 -40.35 -2.45 -26.7 9.7 -13.8 22.85 3.2 55.0 44.9 51.25 53.45 L-243.5 26.45 Q-247.4 25.95 -249.8 23.55 -254.45 18.9 -246.5 9.95 -236.15 -1.6 -210.1 -19.45 -182.45 -38.5 -167.0 -43.3" fill="#ffffff" fill-opacity="0.0" fill-rule="evenodd" stroke="none"/>
    <path d="M-167.0 -43.3 Q-151.1 -48.25 -91.3 -47.7 -32.35 -47.2 -20.75 -42.55 -15.25 -40.35 -2.45 -26.7 9.7 -13.8 22.85 3.2 55.0 44.9 51.25 53.45 L-243.5 26.45 Q-247.4 25.95 -249.8 23.55 -254.45 18.9 -246.5 9.95 -236.15 -1.6 -210.1 -19.45 -182.45 -38.5 -167.0 -43.3 Z" fill="none" stroke="#000000" stroke-linecap="butt" stroke-linejoin="miter-clip" stroke-miterlimit="10.0" stroke-width="1.0"/>
    <path d="M74.35 51.9 Q66.7 43.5 38.45 7.55 4.4 -35.7 1.75 -40.3 0.65 -42.25 14.75 -45.4 28.6 -48.55 48.7 -50.95 100.25 -57.15 123.25 -51.55 144.35 -46.35 200.05 -12.85 227.9 3.95 251.5 19.7 L74.35 51.9 76.55 54.05 73.75 51.95 74.35 51.9" fill="#ffffff" fill-opacity="0.0" fill-rule="evenodd" stroke="none"/>
    <path d="M74.45 51.9 L76.75 54.2 73.75 51.95 74.45 51.9" fill="#c9cacc" fill-rule="evenodd" stroke="none"/>
    <path d="M-59.65 -46.9 L-40.7 -45.7 -116.9 38.1 -137.0 36.2 -59.65 -46.9" fill="#ffffff" fill-opacity="0.6" fill-rule="evenodd" stroke="none"/>
    <path d="M-28.25 -44.25 Q-23.2 -43.5 -20.75 -42.55 -14.2 -39.9 2.0 -21.9 L-48.5 44.3 -101.95 39.45 -28.25 -44.25" fill="#ffffff" fill-opacity="0.6" fill-rule="evenodd" stroke="none"/>
    <path d="M134.2 -31.0 L134.45 -26.95 135.1 -19.9 144.1 -25.9 152.35 -34.9 144.1 -21.4 135.85 -12.4 128.35 1.85 Q131.2 1.85 134.6 5.6 136.25 7.5 137.35 9.35 L150.85 13.1 155.35 22.1 164.35 16.85 184.6 10.85 180.1 -3.4 193.6 -7.9 184.6 -1.9 186.1 4.85 190.6 14.6 171.1 22.1 158.35 33.35 108.1 53.6 124.6 40.1 121.6 25.85 111.1 12.35 126.85 -1.15 130.6 -19.15 Q133.4 -27.55 134.2 -31.0" fill="#000000" fill-opacity="0.4" fill-rule="evenodd" stroke="none"/>
    <path d="M134.2 -31.0 L134.45 -26.95 135.1 -19.9 144.1 -25.9 152.35 -34.9 144.1 -21.4 135.85 -12.4 128.35 1.85 Q131.2 1.85 134.6 5.6 136.25 7.5 137.35 9.35 L150.85 13.1 155.35 22.1 164.35 16.85 184.6 10.85 180.1 -3.4 193.6 -7.9 184.6 -1.9 186.1 4.85 190.6 14.6 171.1 22.1 158.35 33.35 108.1 53.6 124.6 40.1 121.6 25.85 111.1 12.35 126.85 -1.15 130.6 -19.15 Q133.4 -27.55 134.2 -31.0" fill="none" stroke="#000000" stroke-linecap="round" stroke-linejoin="miter-clip" stroke-miterlimit="10.0" stroke-opacity="0.6" stroke-width="1.0"/>
    <path d="M134.2 -31.0 Q134.65 -33.1 134.35 -33.4" fill="none" stroke="#000000" stroke-linecap="round" stroke-linejoin="miter-clip" stroke-miterlimit="10.0" stroke-opacity="0.6" stroke-width="1.0"/>
    <path d="M66.1 -13.9 L67.6 -1.15 81.1 0.35 90.85 15.35 111.1 12.35 99.1 21.35" fill="none" stroke="#000000" stroke-linecap="butt" stroke-linejoin="miter-clip" stroke-miterlimit="10.0" stroke-opacity="0.6" stroke-width="1.0"/>
    <path d="M81.1 0.35 L64.6 1.85 49.6 -1.15" fill="none" stroke="#000000" stroke-linecap="butt" stroke-linejoin="miter-clip" stroke-miterlimit="10.0" stroke-opacity="0.6" stroke-width="1.0"/>
    <path d="M150.85 13.1 L153.85 1.1 166.6 -7.15 159.1 -16.15" fill="none" stroke="#000000" stroke-linecap="butt" stroke-linejoin="miter-clip" stroke-miterlimit="10.0" stroke-opacity="0.6" stroke-width="1.0"/>
    <path d="M153.85 1.1 L161.35 1.85 171.85 -0.4" fill="none" stroke="#000000" stroke-linecap="butt" stroke-linejoin="miter-clip" stroke-miterlimit="10.0" stroke-opacity="0.6" stroke-width="1.0"/>
  </g>
</svg>
