<?xml version="1.0" encoding="UTF-8" standalone="no"?>
<svg xmlns:xlink="http://www.w3.org/1999/xlink" height="280.0px" width="824.9px" xmlns="http://www.w3.org/2000/svg">
  <g transform="matrix(1.0, 0.0, 0.0, 1.0, 413.6, 140.0)">
    <path d="M-291.3 -80.25 L-259.95 -96.5 Q-225.45 -113.75 -209.55 -118.5 -183.65 -126.05 -145.95 -131.75 -95.15 -139.5 -45.3 -139.5 8.85 -139.5 41.4 -136.4 71.4 -133.55 81.45 -128.25 L130.2 -104.4 Q180.65 -78.45 210.1 -58.15 L206.7 -56.25 201.5 -55.2 206.7 -56.25 210.1 -58.15 222.45 -65.25 243.45 -60.75 285.65 -53.6 286.3 -53.6 Q360.0 -52.1 371.7 -50.25 L369.85 -45.35 Q367.95 -40.1 367.95 -38.25 367.95 -36.35 371.35 -37.1 373.05 -37.5 374.7 -38.25 L377.95 -36.35 Q381.7 -33.75 384.45 -30.0 387.3 -26.25 389.95 -15.35 L391.95 -5.25 383.7 13.5 379.2 30.75 335.7 48.75 Q364.2 48.0 367.95 45.0 370.3 43.15 376.15 42.0 L381.45 41.25 381.45 58.5 394.05 52.2 Q406.8 46.8 407.7 51.0 408.55 54.75 409.5 67.75 410.4 80.1 410.7 81.0 411.45 83.25 405.45 109.5 280.2 127.5 261.45 129.0 L219.7 130.95 Q189.9 132.25 183.45 133.5 L160.5 137.35 145.95 139.5 134.7 134.25 125.7 87.0 127.45 82.2 Q129.3 77.2 130.2 75.75 131.2 74.35 128.95 65.2 L126.45 56.25 117.45 39.75 Q103.2 37.5 100.2 37.5 94.05 37.5 84.0 40.2 68.55 44.4 60.45 52.5 53.4 59.55 46.85 81.25 L-149.9 63.85 46.85 81.25 45.15 86.95 Q41.55 100.15 39.45 111.75 L-258.3 85.5 Q-260.7 78.25 -264.65 68.1 -272.55 47.85 -280.05 33.75 -284.6 25.15 -292.95 18.7 -301.55 12.0 -311.45 10.0 -335.25 4.95 -351.3 27.75 L-352.95 31.0 Q-354.75 35.2 -355.5 40.45 -357.95 57.1 -349.05 77.25 L-386.55 66.75 -391.05 57.75 -403.05 48.75 Q-404.9 45.0 -406.8 38.7 -410.55 26.2 -410.55 13.5 -411.3 12.6 -409.85 11.1 -407.1 8.1 -396.3 5.25 -396.3 -9.0 -394.8 -17.25 -393.35 -24.95 -388.05 -40.65 -382.05 -58.2 -379.05 -60.75 -375.15 -63.95 -351.95 -69.8 -325.85 -76.4 -299.55 -79.5 L-291.3 -80.25 Q-325.8 -63.75 -332.75 -61.7 L-351.9 -60.95 -365.75 -61.7 -351.9 -60.95 -332.75 -61.7 Q-325.8 -63.75 -291.3 -80.25 M201.5 -55.2 Q181.0 -68.65 157.5 -82.8 101.8 -116.3 80.7 -121.5 57.7 -127.1 6.15 -120.9 -13.95 -118.5 -27.8 -115.35 -41.9 -112.2 -40.8 -110.25 -38.45 -106.2 -8.3 -67.7 22.75 -28.2 31.9 -18.05 L38.15 -19.15 Q61.95 -11.25 64.2 -12.0 L78.85 -10.55 Q92.2 -8.9 93.45 -9.75 94.9 -10.65 108.9 -8.4 L122.7 -6.0 128.25 -8.6 Q134.05 -11.25 135.45 -11.25 137.7 -11.25 148.2 -0.75 L169.2 3.75 169.2 2.9 169.2 -18.75 109.95 -33.75 38.05 -19.2 Q39.15 -20.7 51.3 -27.9 63.1 -34.85 63.45 -36.0 63.9 -37.4 70.5 -42.8 L76.95 -48.0 106.2 -46.5 Q107.7 -46.85 131.95 -45.75 156.4 -44.6 158.7 -45.0 163.2 -45.75 180.45 -51.0 L201.5 -55.2 M-3.6 -39.95 L8.7 -38.25 Q11.55 -38.25 12.7 -33.0 13.2 -30.35 13.2 -27.75 12.1 -21.0 6.7 -16.65 1.2 -12.35 -7.8 -11.25 -15.45 -10.25 -16.8 -19.25 L-16.8 -22.95 -16.8 -19.25 Q-15.45 -10.25 -7.8 -11.25 1.2 -12.35 6.7 -16.65 12.1 -21.0 13.2 -27.75 13.2 -30.35 12.7 -33.0 11.55 -38.25 8.7 -38.25 L-3.6 -39.95 Q-10.55 -50.7 -23.9 -67.1 -36.6 -82.65 -48.35 -94.4 -60.8 -106.95 -66.05 -108.9 -77.25 -113.15 -134.15 -113.6 L-148.15 -113.65 Q-151.8 -98.5 -155.55 -71.3 -158.0 -53.6 -159.95 -35.35 L-16.8 -22.95 -16.8 -35.25 Q-16.8 -40.8 -5.7 -40.1 L-3.6 -39.95 M-149.9 63.85 Q-156.05 24.3 -157.8 6.25 -159.05 -6.9 -159.65 -22.4 L-159.95 -35.35 -159.65 -22.4 Q-159.05 -6.9 -157.8 6.25 -156.05 24.3 -149.9 63.85 L-147.8 77.25 -143.75 94.3 -147.8 77.25 -149.9 63.85 -269.75 53.25 -149.9 63.85 M275.7 16.5 Q273.45 16.5 252.45 6.75 225.45 10.5 220.95 12.0 218.2 13.0 214.8 22.0 213.1 26.5 211.95 30.75 L202.2 41.25 175.95 12.0 169.2 2.9 175.95 12.0 202.2 41.25 211.95 30.75 Q213.1 26.5 214.8 22.0 218.2 13.0 220.95 12.0 225.45 10.5 252.45 6.75 273.45 16.5 275.7 16.5 277.2 16.5 280.3 14.75 277.2 16.5 275.7 16.5 L278.4 15.7 280.3 14.75 284.05 12.4 285.65 11.1 286.05 10.7 Q286.95 9.7 286.95 9.0 286.95 7.6 299.7 -0.8 L312.45 -9.0 326.05 -17.75 Q340.15 -26.75 342.45 -27.75 344.15 -28.45 348.15 -30.8 L348.55 -31.05 348.45 -31.5 293.7 -27.75 271.2 -37.5 256.95 -24.75 223.95 -43.5 216.45 -24.75 189.45 -15.75 171.45 -21.75 216.45 5.25 Q250.2 -10.5 252.45 -10.5 253.9 -10.5 264.9 3.0 L275.7 16.5 M285.65 -53.6 L292.2 -52.5 367.95 -48.75 361.2 -39.0 Q353.35 -33.9 348.55 -31.05 353.35 -33.9 361.2 -39.0 L367.95 -48.75 292.2 -52.5 285.65 -53.6 M328.2 -6.75 Q326.35 -5.85 319.2 3.7 L310.2 15.75 Q308.25 18.15 294.55 26.95 L277.2 37.5 Q273.9 39.4 263.25 42.4 L253.2 45.0 304.2 42.75 313.3 32.55 Q322.9 22.2 325.2 21.75 328.95 21.0 357.45 12.75 L346.15 9.7 Q335.05 6.45 336.45 6.0 337.9 5.55 350.4 -1.8 L362.7 -9.0 384.45 -30.0 357.45 -18.0 343.95 -12.9 328.2 -6.75 M-294.8 -46.7 L-295.7 -31.85 Q-295.95 -16.1 -292.8 -11.75 -289.65 -7.35 -284.55 13.65 -282.0 24.15 -280.05 33.75 -282.0 24.15 -284.55 13.65 -289.65 -7.35 -292.8 -11.75 -295.95 -16.1 -295.7 -31.85 L-294.8 -46.7 M-283.95 -60.95 Q-291.6 -52.8 -287.1 -48.5 -284.85 -46.4 -281.1 -45.9 L-176.25 -36.8 Q-175.2 -52.6 -169.4 -79.1 -165.9 -95.55 -161.1 -113.55 -195.8 -113.0 -207.2 -109.65 -222.15 -105.2 -248.85 -87.9 -273.95 -71.55 -283.95 -60.95 M-161.1 -113.55 L-148.15 -113.65 -161.1 -113.55 M-176.25 -36.8 L-159.95 -35.35 -176.25 -36.8 M-362.75 17.25 Q-373.4 15.4 -393.05 14.25 L-410.55 13.5 -393.05 14.25 Q-373.4 15.4 -362.75 17.25" fill="#ffffff" fill-opacity="0.0" fill-rule="evenodd" stroke="none"/>
    <path d="M38.15 -19.15 L38.05 -19.2 109.95 -33.75 169.2 -18.75 169.2 2.9 169.2 3.75 148.2 -0.75 Q137.7 -11.25 135.45 -11.25 134.05 -11.25 128.25 -8.6 L122.7 -6.0 108.9 -8.4 Q94.9 -10.65 93.45 -9.75 92.2 -8.9 78.85 -10.55 L64.2 -12.0 Q61.95 -11.25 38.15 -19.15 M275.7 16.5 L264.9 3.0 Q253.9 -10.5 252.45 -10.5 250.2 -10.5 216.45 5.25 L171.45 -21.75 189.45 -15.75 216.45 -24.75 223.95 -43.5 256.95 -24.75 271.2 -37.5 293.7 -27.75 348.45 -31.5 348.55 -31.05 348.15 -30.8 Q344.15 -28.45 342.45 -27.75 340.15 -26.75 326.05 -17.75 L312.45 -9.0 299.7 -0.8 Q286.95 7.6 286.95 9.0 286.95 9.7 286.05 10.7 L285.65 11.1 284.05 12.4 280.3 14.75 278.4 15.7 275.7 16.5 M384.45 -30.0 L362.7 -9.0 350.4 -1.8 Q337.9 5.55 336.45 6.0 335.05 6.45 346.15 9.7 L357.45 12.75 Q328.95 21.0 325.2 21.75 322.9 22.2 313.3 32.55 L304.2 42.75 253.2 45.0 263.25 42.4 Q273.9 39.4 277.2 37.5 L294.55 26.95 Q308.25 18.15 310.2 15.75 L319.2 3.7 Q326.35 -5.85 328.2 -6.75 L343.95 -12.9 357.45 -18.0 384.45 -30.0" fill="#000000" fill-opacity="0.29803923" fill-rule="evenodd" stroke="none"/>
    <path d="M210.1 -58.15 Q180.65 -78.45 130.2 -104.4 L81.45 -128.25 Q71.4 -133.55 41.4 -136.4 8.85 -139.5 -45.3 -139.5 -95.15 -139.5 -145.95 -131.75 -183.65 -126.05 -209.55 -118.5 -225.45 -113.75 -259.95 -96.5 L-291.3 -80.25 -299.55 -79.5 Q-325.85 -76.4 -351.95 -69.8 -375.15 -63.95 -379.05 -60.75 -382.05 -58.2 -388.05 -40.65 -393.35 -24.95 -394.8 -17.25 -396.3 -9.0 -396.3 5.25 -407.1 8.1 -409.85 11.1 -411.3 12.6 -410.55 13.5 -410.55 26.2 -406.8 38.7 -404.9 45.0 -403.05 48.75 L-391.05 57.75 -386.55 66.75 -349.05 77.25 Q-357.95 57.1 -355.5 40.45 -354.75 35.2 -352.95 31.0 L-351.3 27.75 Q-335.25 4.95 -311.45 10.0 -301.55 12.0 -292.95 18.7 -284.6 25.15 -280.05 33.75 -272.55 47.85 -264.65 68.1 -260.7 78.25 -258.3 85.5 L39.45 111.75 Q41.55 100.15 45.15 86.95 L46.85 81.25 Q53.4 59.55 60.45 52.5 68.55 44.4 84.0 40.2 94.05 37.5 100.2 37.5 103.2 37.5 117.45 39.75 L126.45 56.25 128.95 65.2 Q131.2 74.35 130.2 75.75 129.3 77.2 127.45 82.2 L125.7 87.0 134.7 134.25 145.95 139.5 160.5 137.35 183.45 133.5 Q189.9 132.25 219.7 130.95 L261.45 129.0 Q280.2 127.5 405.45 109.5 411.45 83.25 410.7 81.0 410.4 80.1 409.5 67.75 408.55 54.75 407.7 51.0 406.8 46.8 394.05 52.2 L381.45 58.5 381.45 41.25 376.15 42.0 Q370.3 43.15 367.95 45.0 364.2 48.0 335.7 48.75 L379.2 30.75 383.7 13.5 391.95 -5.25 389.95 -15.35 Q387.3 -26.25 384.45 -30.0 381.7 -33.75 377.95 -36.35 L374.7 -38.25 Q373.05 -37.5 371.35 -37.1 367.95 -36.35 367.95 -38.25 367.95 -40.1 369.85 -45.35 L371.7 -50.25 Q360.0 -52.1 286.3 -53.6 L285.65 -53.6 243.45 -60.75 222.45 -65.25 210.1 -58.15 206.7 -56.25 201.5 -55.2 M-16.8 -22.95 L-16.8 -19.25 Q-15.45 -10.25 -7.8 -11.25 1.2 -12.35 6.7 -16.65 12.1 -21.0 13.2 -27.75 13.2 -30.35 12.7 -33.0 11.55 -38.25 8.7 -38.25 L-3.6 -39.95 -5.7 -40.1 Q-16.8 -40.8 -16.8 -35.25 L-16.8 -22.95 M169.2 2.9 L175.95 12.0 202.2 41.25 211.95 30.75 Q213.1 26.5 214.8 22.0 218.2 13.0 220.95 12.0 225.45 10.5 252.45 6.75 273.45 16.5 275.7 16.5 277.2 16.5 280.3 14.75 M348.55 -31.05 Q353.35 -33.9 361.2 -39.0 L367.95 -48.75 292.2 -52.5 285.65 -53.6 M-148.15 -113.65 L-161.1 -113.55 M-159.95 -35.35 L-176.25 -36.8" fill="none" stroke="#000000" stroke-linecap="round" stroke-linejoin="miter-clip" stroke-miterlimit="10.0" stroke-width="1.0"/>
    <path d="M-291.3 -80.25 Q-325.8 -63.75 -332.75 -61.7 L-351.9 -60.95 -365.75 -61.7 M46.85 81.25 L47.2 81.25 M-280.05 33.75 Q-282.0 24.15 -284.55 13.65 -289.65 -7.35 -292.8 -11.75 -295.95 -16.1 -295.7 -31.85 L-294.8 -46.7 M-161.1 -113.55 Q-195.8 -113.0 -207.2 -109.65 -222.15 -105.2 -248.85 -87.9 -273.95 -71.55 -283.95 -60.95 M-149.9 63.85 L-147.8 77.25 -143.75 94.3 M-149.9 63.85 L-269.75 53.25 M-410.55 13.5 L-393.05 14.25 Q-373.4 15.4 -362.75 17.25" fill="none" stroke="#000000" stroke-linecap="round" stroke-linejoin="miter-clip" stroke-miterlimit="10.0" stroke-opacity="0.6" stroke-width="1.0"/>
    <path d="M38.15 -19.15 L31.9 -18.05 Q22.75 -28.2 -8.3 -67.7 -38.45 -106.2 -40.8 -110.25 -41.9 -112.2 -27.8 -115.35 -13.95 -118.5 6.15 -120.9 57.7 -127.1 80.7 -121.5 101.8 -116.3 157.5 -82.8 181.0 -68.65 201.5 -55.2 L180.45 -51.0 Q163.2 -45.75 158.7 -45.0 156.4 -44.6 131.95 -45.75 107.7 -46.85 106.2 -46.5 L76.95 -48.0 70.5 -42.8 Q63.9 -37.4 63.45 -36.0 63.1 -34.85 51.3 -27.9 39.15 -20.7 38.05 -19.2 M-16.8 -22.95 L-159.95 -35.35 -159.65 -22.4 Q-159.05 -6.9 -157.8 6.25 -156.05 24.3 -149.9 63.85 L46.85 81.25 M-176.25 -36.8 Q-175.2 -52.6 -169.4 -79.1 -165.9 -95.55 -161.1 -113.55 M-3.6 -39.95 Q-10.55 -50.7 -23.9 -67.1 -36.6 -82.65 -48.35 -94.4 -60.8 -106.95 -66.05 -108.9 -77.25 -113.15 -134.15 -113.6 L-148.15 -113.65 Q-151.8 -98.5 -155.55 -71.3 -158.0 -53.6 -159.95 -35.35" fill="none" stroke="#000000" stroke-linecap="round" stroke-linejoin="miter-clip" stroke-miterlimit="10.0" stroke-opacity="0.6" stroke-width="1.0"/>
    <path d="M38.15 -19.15 L38.05 -19.2 109.95 -33.75 169.2 -18.75 169.2 2.9 169.2 3.75 148.2 -0.75 Q137.7 -11.25 135.45 -11.25 134.05 -11.25 128.25 -8.6 L122.7 -6.0 108.9 -8.4 Q94.9 -10.65 93.45 -9.75 92.2 -8.9 78.85 -10.55 L64.2 -12.0 Q61.95 -11.25 38.15 -19.15 M275.7 16.5 L264.9 3.0 Q253.9 -10.5 252.45 -10.5 250.2 -10.5 216.45 5.25 L171.45 -21.75 189.45 -15.75 216.45 -24.75 223.95 -43.5 256.95 -24.75 271.2 -37.5 293.7 -27.75 348.45 -31.5 348.55 -31.05 348.15 -30.8 Q344.15 -28.45 342.45 -27.75 340.15 -26.75 326.05 -17.75 L312.45 -9.0 299.7 -0.8 Q286.95 7.6 286.95 9.0 286.95 9.7 286.05 10.7 L285.65 11.1 284.05 12.4 280.3 14.75 278.4 15.7 275.7 16.5" fill="none" stroke="#000000" stroke-linecap="round" stroke-linejoin="miter-clip" stroke-miterlimit="10.0" stroke-opacity="0.8" stroke-width="1.0"/>
    <path d="M328.2 -6.75 Q326.35 -5.85 319.2 3.7 L310.2 15.75 Q308.25 18.15 294.55 26.95 L277.2 37.5 Q273.9 39.4 263.25 42.4 L253.2 45.0 304.2 42.75 313.3 32.55 Q322.9 22.2 325.2 21.75 328.95 21.0 357.45 12.75 L346.15 9.7 Q335.05 6.45 336.45 6.0 337.9 5.55 350.4 -1.8 L362.7 -9.0 384.45 -30.0" fill="none" stroke="#000000" stroke-linecap="butt" stroke-linejoin="miter-clip" stroke-miterlimit="10.0" stroke-opacity="0.8" stroke-width="1.0"/>
    <path d="M384.45 -30.0 L357.45 -18.0 343.95 -12.9 328.2 -6.75" fill="none" stroke="#000000" stroke-linecap="round" stroke-linejoin="miter-clip" stroke-miterlimit="10.0" stroke-opacity="0.8" stroke-width="1.0"/>
    <path d="M-283.95 -60.95 Q-291.6 -52.8 -287.1 -48.5 -284.85 -46.4 -281.1 -45.9 L-176.25 -36.8" fill="none" stroke="#000000" stroke-linecap="butt" stroke-linejoin="miter-clip" stroke-miterlimit="10.0" stroke-opacity="0.6" stroke-width="1.0"/>
    <path d="M-65.0 -117.8 Q-82.25 -120.65 -122.15 -121.5 L-165.8 -121.7 Q-138.45 -127.05 -96.35 -122.45 -78.75 -120.5 -65.0 -117.8 M-371.75 -48.75 L84.25 1.3 Q-28.8 -7.7 -142.25 -18.45 -369.3 -39.95 -371.75 -48.75" fill="#ffffff" fill-opacity="0.6" fill-rule="evenodd" stroke="none"/>
  </g>
</svg>
