<?xml version="1.0" encoding="UTF-8" standalone="no"?>
<svg xmlns:xlink="http://www.w3.org/1999/xlink" height="127.25px" width="138.0px" xmlns="http://www.w3.org/2000/svg">
  <g transform="matrix(1.0, 0.0, 0.0, 1.0, 68.5, 63.75)">
    <path d="M11.0 -21.0 L48.05 8.05 68.0 17.05 37.0 25.0 54.05 60.0 21.05 60.0 0.25 63.0 -24.5 21.75 -17.0 7.5 -41.0 -7.5 Q-52.25 -17.25 -59.0 -21.0 -63.2 -23.3 -66.05 -28.4 L-68.0 -33.0 -64.25 -45.0 -44.75 -63.0 -23.0 -38.0 -19.0 -57.95 11.0 -21.0" fill="#ffffff" fill-opacity="0.0" fill-rule="evenodd" stroke="none"/>
    <path d="M11.0 -21.0 L-19.0 -57.95 -23.0 -38.0 -44.75 -63.0 -64.25 -45.0 -68.0 -33.0 -66.05 -28.4 Q-63.2 -23.3 -59.0 -21.0 -52.25 -17.25 -41.0 -7.5 L-17.0 7.5 -24.5 21.75 0.25 63.0 21.05 60.0 54.05 60.0 37.0 25.0 68.0 17.05 48.05 8.05 11.0 -21.0 Z" fill="none" stroke="#000000" stroke-linecap="butt" stroke-linejoin="miter-clip" stroke-miterlimit="10.0" stroke-width="1.0"/>
  </g>
</svg>
