<?xml version="1.0" encoding="UTF-8" standalone="no"?>
<svg xmlns:xlink="http://www.w3.org/1999/xlink" height="12.05px" width="157.95px" xmlns="http://www.w3.org/2000/svg">
  <g transform="matrix(1.0, 0.0, 0.0, 1.0, 79.65, 5.1)">
    <path d="M-72.5 1.45 L-74.65 1.5 Q-76.95 1.25 -77.8 -0.35 L-76.8 -0.15 Q-75.75 -0.05 -75.4 -0.8 L-74.75 -2.4 Q-74.45 -3.1 -73.85 -3.4 L-65.0 -2.7 -52.0 -1.25 Q-32.7 0.5 14.85 -0.05 63.2 -0.6 76.4 -2.95 L77.2 -2.6 Q77.95 -2.1 77.75 -1.25 L71.85 -0.55 65.8 -0.25 32.55 0.85 -12.3 1.9 -21.7 1.9 -23.35 1.9 -23.6 1.9 -25.25 1.9 -27.05 1.85 -53.45 0.1 -72.2 -1.7 -72.4 -1.1 -72.5 1.45 M76.7 -1.9 L76.7 -2.15 36.4 -0.1 Q-7.9 1.7 -31.0 0.6 L-31.0 0.8 Q-22.25 1.25 -10.2 1.25 13.35 1.25 47.1 -0.3 L76.7 -1.9" fill="#ffffff" fill-opacity="0.0" fill-rule="evenodd" stroke="none"/>
    <path d="M65.8 -0.25 L71.85 -0.55 71.85 0.2 Q71.95 1.8 72.6 2.65 L62.2 3.4 61.55 2.65 Q61.25 2.15 61.9 2.05 L65.65 1.75 65.85 0.4 65.8 -0.25 M70.7 2.25 L66.95 2.3 63.35 2.7 70.7 2.25" fill="#000000" fill-opacity="0.4" fill-rule="evenodd" stroke="none"/>
    <path d="M76.7 -1.9 L47.1 -0.3 Q13.35 1.25 -10.2 1.25 -22.25 1.25 -31.0 0.8 L-31.0 0.6 Q-7.9 1.7 36.4 -0.1 L76.7 -2.15 76.7 -1.9 M70.7 2.25 L63.35 2.7 66.95 2.3 70.7 2.25" fill="#ffffff" fill-opacity="0.6" fill-rule="evenodd" stroke="none"/>
    <path d="M71.85 -0.55 L77.75 -1.25 Q77.95 -2.1 77.2 -2.6 L76.4 -2.95 Q63.2 -0.6 14.85 -0.05 -32.7 0.5 -52.0 -1.25 L-65.0 -2.7 -73.85 -3.4 Q-74.45 -3.1 -74.75 -2.4 L-75.4 -0.8 Q-75.75 -0.05 -76.8 -0.15 L-77.8 -0.35 Q-76.95 1.25 -74.65 1.5 L-72.5 1.45 -27.05 1.85 M71.85 -0.55 L71.85 0.2 Q71.95 1.8 72.6 2.65 L62.2 3.4 61.55 2.65 -12.3 1.9 M65.8 -0.25 L65.85 0.4 65.65 1.75 61.9 2.05 Q61.25 2.15 61.55 2.65" fill="none" stroke="#000000" stroke-linecap="butt" stroke-linejoin="miter-clip" stroke-miterlimit="10.0" stroke-width="1.0"/>
    <path d="M-72.5 1.45 L-72.4 -1.1 -72.2 -1.7 -53.45 0.1 -27.05 1.85 -25.25 1.9 -23.6 1.9 -23.35 1.9 -21.7 1.9 -12.3 1.9 32.55 0.85 65.8 -0.25 71.85 -0.55 Z" fill="none" stroke="#000000" stroke-linecap="butt" stroke-linejoin="miter-clip" stroke-miterlimit="10.0" stroke-opacity="0.6" stroke-width="1.0"/>
  </g>
</svg>
