<?xml version="1.0" encoding="UTF-8" standalone="no"?>
<svg xmlns:xlink="http://www.w3.org/1999/xlink" height="16.45px" width="50.7px" xmlns="http://www.w3.org/2000/svg">
  <g transform="matrix(1.0, 0.0, 0.0, 1.0, 25.6, 7.15)">
    <path d="M1.4 -4.65 L2.3 -3.8 Q2.75 -3.15 2.15 -2.75 2.85 -1.95 3.95 -1.45 L4.85 -1.1 Q5.25 -1.5 5.5 -1.4 L5.75 -0.9 8.05 -0.75 9.25 -0.8 11.6 -0.85 13.65 -0.75 14.75 -1.25 15.45 -0.5 15.95 -0.4 16.85 -0.3 17.1 -0.3 17.4 -0.5 17.25 -0.8 16.95 -1.05 16.7 -1.8 14.3 -2.05 9.3 -2.45 Q6.05 -2.85 4.65 -3.85 3.15 -4.85 1.8 -5.0 L1.4 -4.65 1.35 -4.7 1.4 -4.65 M-5.2 -3.4 L-5.15 -3.7 Q-4.85 -4.35 -4.2 -4.45 L-1.25 -4.85 1.25 -4.75 1.35 -4.7 1.4 -4.75 2.3 -5.4 Q3.9 -6.3 5.7 -6.5 L11.8 -6.15 Q15.9 -4.9 17.0 -1.05 L17.35 -0.75 Q17.6 -0.4 17.1 -0.25 L16.3 -0.3 16.15 -0.35 15.75 0.1 16.45 1.4 16.9 2.4 Q17.05 3.05 17.3 3.1 17.6 3.15 18.2 3.55 L18.75 3.95 19.2 4.1 20.15 4.1 Q20.65 4.0 20.9 4.3 L21.05 4.6 20.6 4.55 19.45 4.6 18.5 4.35 17.65 3.7 17.05 3.3 16.45 2.8 15.65 1.8 15.1 0.55 12.55 1.25 Q10.35 1.5 6.6 1.15 7.4 3.5 7.8 3.85 L9.4 5.0 Q10.55 5.65 11.4 5.8 L11.55 6.0 10.65 5.95 Q10.5 5.95 9.45 5.35 L7.85 4.45 Q7.2 4.0 6.55 2.75 L5.85 1.1 5.7 1.05 Q2.75 0.65 1.15 -0.9 L1.05 -0.75 Q0.65 -0.1 -0.4 0.25 L-0.5 0.3 -1.1 2.8 -1.45 5.45 -1.95 6.25 Q-2.25 6.65 -3.25 6.7 L-4.15 6.7 Q-3.6 6.55 -2.75 6.0 L-2.0 5.5 -1.9 4.7 -1.9 3.6 Q-2.0 2.5 -1.5 0.75 L-1.4 0.5 -2.1 0.55 Q-2.75 0.6 -3.25 0.25 L-3.6 -0.15 -4.1 -0.45 -4.25 0.0 -4.1 -0.55 -3.9 -1.5 Q-3.9 -1.0 -4.05 -0.5 L-3.55 -0.2 -3.55 -0.15 -3.4 0.05 -2.85 0.4 Q-2.4 -0.25 -2.45 -0.85 L-2.35 -1.15 -2.1 -1.25 -1.6 -1.2 -0.7 -1.1 -0.1 -1.15 0.0 -1.1 1.1 -1.4 1.4 -1.5 1.8 -2.65 -0.15 -1.8 -2.0 -1.55 -2.7 -2.1 -3.55 -2.85 Q-4.2 -3.35 -4.65 -3.35 L-4.75 -3.35 -4.8 -3.4 -4.75 -3.35 -4.65 -3.3 -4.65 -3.35 -4.65 -3.25 -4.65 -3.3 -4.65 -3.25 Q-3.85 -2.8 -3.9 -1.7 L-4.85 -0.4 Q-5.6 0.45 -7.8 0.55 L-7.75 0.75 -6.85 0.8 Q-6.45 0.4 -6.35 0.8 L-6.75 1.4 -7.6 2.15 -8.5 3.0 -9.1 4.0 -9.7 4.8 Q-10.15 5.25 -10.45 5.1 L-10.6 4.85 -9.95 4.45 Q-9.55 4.1 -9.1 3.35 L-8.7 2.7 -7.7 1.95 -7.1 1.05 -6.9 0.85 -7.75 0.75 -8.05 1.45 Q-8.55 2.2 -9.5 2.4 L-10.0 3.1 -10.55 3.9 Q-11.05 4.35 -11.3 4.2 L-11.5 3.95 -10.85 3.55 -10.0 2.5 -9.95 2.45 -10.6 2.5 -9.8 2.25 -9.6 1.8 -8.8 1.25 -8.8 1.2 -8.6 0.7 -8.6 0.55 -8.6 0.35 Q-8.5 0.2 -8.3 0.2 L-7.95 0.3 -7.8 0.55 -7.95 0.3 -8.3 0.2 Q-8.5 0.2 -8.6 0.35 L-8.6 0.55 -9.2 0.05 -8.95 -0.7 Q-12.8 -3.25 -17.2 -2.7 L-20.0 -2.0 -21.0 -1.55 Q-16.65 -3.9 -12.1 -2.6 -10.05 -2.0 -8.75 -1.05 L-8.7 -1.2 -7.8 -2.6 Q-7.5 -3.05 -6.2 -3.3 L-5.2 -3.4 -5.25 -3.2 -4.8 -3.4 -4.7 -3.4 Q-4.3 -3.4 -3.7 -3.0 L-2.8 -2.25 -2.0 -1.6 -1.65 -1.55 0.15 -2.0 2.0 -2.8 2.45 -3.2 2.3 -3.7 0.15 -2.65 -1.25 -2.35 -1.95 -2.55 -2.5 -2.95 -3.1 -3.45 Q-3.8 -3.95 -4.65 -3.95 L-4.95 -3.9 -5.2 -3.4 M2.1 -2.75 L2.05 -2.75 1.8 -2.65 1.75 -2.4 1.2 -0.95 1.15 -0.9 1.2 -0.95 Q1.95 -0.2 3.1 0.3 L3.95 0.25 4.05 -0.15 4.6 -0.9 4.8 -1.1 Q3.95 -1.35 3.3 -1.75 L2.1 -2.75 2.15 -2.75 2.1 -2.75 M-4.3 0.05 Q-4.45 0.45 -5.1 0.6 L-6.35 0.8 -5.85 0.7 -4.9 0.5 -4.3 0.05 M-0.5 0.3 L-0.45 -0.15 Q-0.4 -0.65 0.25 -0.6 L0.5 -0.65 0.25 -0.95 0.0 -1.1 0.25 -0.95 0.5 -0.65 0.25 -0.6 Q-0.4 -0.65 -0.45 -0.15 L-0.5 0.3 M4.85 -1.1 L4.8 -1.1 4.85 -1.1 M5.65 -0.05 L5.65 -0.2 5.45 -0.05 5.65 -0.05 5.85 1.1 5.65 -0.05 M5.8 -0.85 L5.75 -0.9 5.8 -0.85 6.15 0.0 7.35 0.0 7.3 0.1 7.0 0.55 6.9 0.85 6.95 0.85 7.4 0.6 7.85 0.15 7.85 0.1 10.25 -0.05 10.2 0.0 9.65 0.6 9.45 0.9 9.5 0.95 9.5 0.9 10.0 0.75 9.95 0.6 10.0 0.5 10.65 0.35 10.95 0.15 11.25 0.15 12.45 -0.3 13.55 -0.7 Q11.7 -0.9 9.25 -0.75 L5.8 -0.85 M13.65 -0.75 L13.55 -0.7 13.65 -0.75 M15.1 0.5 L15.0 0.3 14.65 -0.6 14.55 -0.6 Q14.15 -0.3 12.75 0.15 L13.1 0.15 13.5 0.4 12.75 1.2 Q14.2 1.0 15.1 0.5 L15.1 0.55 15.1 0.5 M16.15 -0.35 L16.1 -0.35 16.15 -0.35 M14.65 -0.6 L14.6 -0.65 14.55 -0.6 14.6 -0.65 14.65 -0.6 M16.1 -0.35 L15.45 -0.45 15.6 -0.15 15.7 0.05 16.1 -0.35 M15.75 0.1 L15.7 0.05 15.75 0.1 M15.45 -0.5 L15.45 -0.45 15.45 -0.5 M-8.75 -1.05 L-8.95 -0.7 -8.75 -1.05 M-6.8 -0.35 Q-6.6 -0.15 -6.3 -0.15 -6.0 -0.15 -5.85 -0.35 -5.65 -0.55 -5.65 -0.85 L-5.85 -1.3 -6.3 -1.5 -6.8 -1.3 -7.0 -0.85 -6.8 -0.35 M-4.1 -0.45 L-4.05 -0.5 -4.1 -0.45 M-6.9 0.85 L-6.85 0.8 -6.9 0.85 M-9.5 2.4 L-9.6 2.4 -9.95 2.45 -9.6 2.4 -9.5 2.4 M-0.7 -1.1 L-1.4 0.5 -0.7 -1.1 M3.95 0.25 L4.3 0.35 4.95 0.3 5.45 -0.05 4.95 0.3 4.3 0.35 3.95 0.25 M6.6 1.15 L6.55 1.1 6.15 0.0 6.55 1.1 6.6 1.15 M10.0 0.75 L10.0 0.8 Q10.2 1.0 10.7 0.8 L12.75 0.15 10.7 0.8 Q10.2 1.0 10.0 0.8 L10.0 0.75 M11.25 0.15 L10.65 0.35 11.25 0.15 M-9.8 2.25 Q-9.15 1.85 -8.8 1.25 -9.15 1.85 -9.8 2.25" fill="#ffffff" fill-opacity="0.0" fill-rule="evenodd" stroke="none"/>
    <path d="M2.15 -2.75 Q2.75 -3.15 2.3 -3.8 L1.4 -4.65 1.8 -5.0 Q3.15 -4.85 4.65 -3.85 6.05 -2.85 9.3 -2.45 L14.3 -2.05 16.7 -1.8 16.95 -1.05 17.25 -0.8 17.4 -0.5 17.1 -0.3 16.85 -0.3 15.95 -0.4 15.45 -0.5 14.75 -1.25 13.65 -0.75 11.6 -0.85 9.25 -0.8 8.05 -0.75 5.75 -0.9 5.5 -1.4 Q5.25 -1.5 4.85 -1.1 L3.95 -1.45 Q2.85 -1.95 2.15 -2.75 M-5.2 -3.4 L-4.95 -3.9 -4.65 -3.95 Q-3.8 -3.95 -3.1 -3.45 L-2.5 -2.95 -1.95 -2.55 -1.25 -2.35 0.15 -2.65 2.3 -3.7 2.45 -3.2 2.0 -2.8 0.15 -2.0 -1.65 -1.55 -2.0 -1.6 -2.8 -2.25 -3.7 -3.0 Q-4.3 -3.4 -4.7 -3.4 L-4.8 -3.4 -5.25 -3.2 -5.2 -3.4 M-4.65 -3.35 Q-4.2 -3.35 -3.55 -2.85 L-2.7 -2.1 -2.0 -1.55 -0.15 -1.8 1.8 -2.65 2.05 -2.75 2.1 -2.75 3.3 -1.75 Q3.95 -1.35 4.8 -1.1 L4.6 -0.9 4.05 -0.15 3.95 0.25 3.1 0.3 Q1.95 -0.2 1.2 -0.95 L1.75 -2.4 1.8 -2.65 1.4 -1.5 1.1 -1.4 0.0 -1.1 -0.1 -1.15 -0.7 -1.1 -1.6 -1.2 -2.1 -1.25 -2.35 -1.15 -2.45 -0.85 Q-2.4 -0.25 -2.85 0.4 L-3.4 0.05 -3.55 -0.15 -3.55 -0.2 -4.05 -0.5 Q-3.9 -1.0 -3.9 -1.5 L-4.1 -0.55 -4.25 0.0 -4.3 0.05 -4.9 0.5 -5.85 0.7 -6.35 0.8 Q-6.45 0.4 -6.85 0.8 L-7.75 0.75 -7.8 0.55 Q-5.6 0.45 -4.85 -0.4 L-3.9 -1.7 Q-3.85 -2.8 -4.65 -3.25 L-4.65 -3.35 M5.45 -0.05 L5.65 -0.2 5.65 -0.05 5.45 -0.05 M5.8 -0.85 L9.25 -0.75 Q11.7 -0.9 13.55 -0.7 L12.45 -0.3 11.25 0.15 10.95 0.15 10.65 0.35 10.0 0.5 9.95 0.6 10.0 0.75 9.5 0.9 9.5 0.95 9.45 0.9 9.65 0.6 10.2 0.0 10.25 -0.05 7.85 0.1 7.85 0.15 7.4 0.6 6.95 0.85 6.9 0.85 7.0 0.55 7.3 0.1 7.35 0.0 6.15 0.0 5.8 -0.85 M12.75 0.15 Q14.15 -0.3 14.55 -0.6 L14.65 -0.6 15.0 0.3 15.1 0.5 Q14.2 1.0 12.75 1.2 L13.5 0.4 13.1 0.15 12.75 0.15 M15.45 -0.45 L16.1 -0.35 15.7 0.05 15.6 -0.15 15.45 -0.45 M-3.9 -1.5 L-3.9 -1.7 -3.9 -1.5" fill="#000000" fill-opacity="0.2" fill-rule="evenodd" stroke="none"/>
    <path d="M-8.6 0.7 Q-9.55 0.85 -10.35 1.65 L-10.9 2.45 Q-11.1 1.55 -10.15 0.7 L-9.2 0.05 -8.6 0.55 -8.6 0.7" fill="#000000" fill-opacity="0.29803923" fill-rule="evenodd" stroke="none"/>
    <path d="M-6.8 -0.35 L-7.0 -0.85 -6.8 -1.3 -6.3 -1.5 -5.85 -1.3 -5.65 -0.85 Q-5.65 -0.55 -5.85 -0.35 -6.0 -0.15 -6.3 -0.15 -6.6 -0.15 -6.8 -0.35" fill="#000000" fill-rule="evenodd" stroke="none"/>
    <path d="M1.4 -4.65 L2.3 -3.8 Q2.75 -3.15 2.15 -2.75 L2.1 -2.75 2.05 -2.75 1.8 -2.65 -0.15 -1.8 -2.0 -1.55 -2.7 -2.1 -3.55 -2.85 Q-4.2 -3.35 -4.65 -3.35 L-4.65 -3.3 -4.75 -3.35 -4.65 -3.35 M4.85 -1.1 Q5.25 -1.5 5.5 -1.4 L5.75 -0.9 5.8 -0.85 9.25 -0.75 Q11.7 -0.9 13.55 -0.7 L13.65 -0.75 14.75 -1.25 15.45 -0.5 15.45 -0.45 16.1 -0.35 16.15 -0.35 15.75 0.1 16.45 1.4 16.9 2.4 Q17.05 3.05 17.3 3.1 17.6 3.15 18.2 3.55 L18.75 3.95 19.2 4.1 20.15 4.1 Q20.65 4.0 20.9 4.3 L21.05 4.6 20.6 4.55 19.45 4.6 18.5 4.35 17.65 3.7 17.05 3.3 16.45 2.8 15.65 1.8 15.1 0.55 12.55 1.25 Q10.35 1.5 6.6 1.15 7.4 3.5 7.8 3.85 L9.4 5.0 Q10.55 5.65 11.4 5.8 L11.55 6.0 10.65 5.95 Q10.5 5.95 9.45 5.35 L7.85 4.45 Q7.2 4.0 6.55 2.75 L5.85 1.1 5.7 1.05 Q2.75 0.65 1.15 -0.9 L1.05 -0.75 Q0.65 -0.1 -0.4 0.25 L-0.5 0.3 -1.1 2.8 -1.45 5.45 -1.95 6.25 Q-2.25 6.65 -3.25 6.7 L-4.15 6.7 Q-3.6 6.55 -2.75 6.0 L-2.0 5.5 -1.9 4.7 -1.9 3.6 Q-2.0 2.5 -1.5 0.75 L-1.4 0.5 -2.1 0.55 Q-2.75 0.6 -3.25 0.25 L-3.6 -0.15 -4.1 -0.45 -4.25 0.0 -4.3 0.05 Q-4.45 0.45 -5.1 0.6 L-6.35 0.8 -6.75 1.4 -7.6 2.15 -8.5 3.0 -9.1 4.0 -9.7 4.8 Q-10.15 5.25 -10.45 5.1 L-10.6 4.85 -9.95 4.45 Q-9.55 4.1 -9.1 3.35 L-8.7 2.7 -7.7 1.95 -7.1 1.05 -6.9 0.85 -7.75 0.75 -8.05 1.45 Q-8.55 2.2 -9.5 2.4 L-10.0 3.1 -10.55 3.9 Q-11.05 4.35 -11.3 4.2 L-11.5 3.95 -10.85 3.55 -10.0 2.5 -9.95 2.45 -10.6 2.5 -9.8 2.25 -9.6 1.8 -8.8 1.25 -8.8 1.2 -8.6 0.7 Q-9.55 0.85 -10.35 1.65 L-10.9 2.45 Q-11.1 1.55 -10.15 0.7 L-9.2 0.05 -8.95 -0.7 Q-12.8 -3.25 -17.2 -2.7 L-20.0 -2.0 -21.0 -1.55 Q-16.65 -3.9 -12.1 -2.6 -10.05 -2.0 -8.75 -1.05 L-8.7 -1.2 -7.8 -2.6 Q-7.5 -3.05 -6.2 -3.3 L-5.2 -3.4 -5.15 -3.7 Q-4.85 -4.35 -4.2 -4.45 L-1.25 -4.85 1.25 -4.75 1.35 -4.7 1.4 -4.75 2.3 -5.4 Q3.9 -6.3 5.7 -6.5 L11.8 -6.15 Q15.9 -4.9 17.0 -1.05 L17.35 -0.75 Q17.6 -0.4 17.1 -0.25 L16.3 -0.3 16.15 -0.35 M1.4 -4.65 L1.35 -4.7 M-4.8 -3.4 L-4.75 -3.35 M1.2 -0.95 L1.75 -2.4 1.8 -2.65 M0.0 -1.1 L0.25 -0.95 0.5 -0.65 0.25 -0.6 Q-0.4 -0.65 -0.45 -0.15 L-0.5 0.3 M1.15 -0.9 L1.2 -0.95 M3.95 0.25 L4.05 -0.15 4.6 -0.9 4.8 -1.1 Q3.95 -1.35 3.3 -1.75 L2.1 -2.75 M4.8 -1.1 L4.85 -1.1 M5.65 -0.05 L5.65 -0.2 5.45 -0.05 4.95 0.3 4.3 0.35 3.95 0.25 M5.65 -0.05 L5.85 1.1 M5.8 -0.85 L6.15 0.0 6.55 1.1 6.6 1.15 M10.0 0.75 L9.95 0.6 10.0 0.5 10.65 0.35 11.25 0.15 12.45 -0.3 13.55 -0.7 M15.1 0.5 L15.0 0.3 14.65 -0.6 14.55 -0.6 Q14.15 -0.3 12.75 0.15 L10.7 0.8 Q10.2 1.0 10.0 0.8 L10.0 0.75 M15.1 0.5 L15.1 0.55 M14.55 -0.6 L14.6 -0.65 14.65 -0.6 M15.7 0.05 L15.75 0.1 M15.7 0.05 L15.6 -0.15 15.45 -0.45 M-8.95 -0.7 L-8.75 -1.05 M-4.65 -3.3 L-4.65 -3.25 Q-3.85 -2.8 -3.9 -1.7 L-3.9 -1.5 Q-3.9 -1.0 -4.05 -0.5 L-4.1 -0.45 M-0.7 -1.1 L-0.1 -1.15 0.0 -1.1 M-6.35 0.8 Q-6.45 0.4 -6.85 0.8 L-6.9 0.85 M-7.8 0.55 L-7.75 0.75 M-8.6 0.55 L-8.6 0.35 Q-8.5 0.2 -8.3 0.2 L-7.95 0.3 -7.8 0.55 M-8.6 0.55 L-8.6 0.7 M-9.95 2.45 L-9.6 2.4 -9.5 2.4 M-9.2 0.05 L-8.6 0.55 M-8.8 1.25 Q-9.15 1.85 -9.8 2.25 M-1.4 0.5 L-0.7 -1.1" fill="none" stroke="#000000" stroke-linecap="butt" stroke-linejoin="miter-clip" stroke-miterlimit="10.0" stroke-opacity="0.8" stroke-width="1.0"/>
    <path d="M4.45 -5.5 L2.85 -5.05 2.3 -4.85 2.75 -5.15 4.25 -5.7 10.55 -6.0 11.25 -5.85 12.9 -5.15 Q15.45 -3.75 16.55 -1.15 16.1 -2.15 15.05 -3.25 12.9 -5.45 10.05 -5.75 L4.45 -5.5 M1.25 -4.2 L-0.9 -4.3 -3.85 -4.15 -3.15 -4.35 1.05 -4.55 1.25 -4.2 M-6.25 -3.05 L-4.9 -3.2 -4.5 -2.9 -4.4 -2.7 -5.05 -2.85 -7.35 -2.75 -6.25 -3.05 M-6.25 -1.25 Q-5.95 -1.25 -6.3 -0.9 -6.6 -0.6 -6.8 -0.75 L-6.65 -1.05 -6.25 -1.25" fill="#ffffff" fill-opacity="0.6" fill-rule="evenodd" stroke="none"/>
  </g>
</svg>
