<?xml version="1.0" encoding="UTF-8" standalone="no"?>
<svg xmlns:xlink="http://www.w3.org/1999/xlink" height="356.55px" width="1031.25px" xmlns="http://www.w3.org/2000/svg">
  <g transform="matrix(1.0, 0.0, 0.0, 1.0, 515.6, 178.3)">
    <path d="M387.65 -81.95 L387.2 -90.1 390.1 -91.4 Q393.6 -92.2 396.4 -90.1 L396.2 -79.35 396.3 -79.15 Q396.6 -78.5 396.2 -77.7 L395.6 -45.55 395.9 -49.85 399.1 -46.2 Q401.85 -41.7 399.3 -37.8 L395.35 -31.7 395.15 -20.75 395.25 -21.15 395.9 -23.95 398.95 -21.4 Q401.5 -18.45 399.3 -15.9 396.65 -12.75 394.95 -10.0 L394.75 -1.45 391.85 -1.45 Q390.3 -2.15 389.3 -3.9 387.5 -7.35 390.7 -12.4 L391.25 -13.2 390.65 -24.9 389.5 -23.35 Q387.9 -24.05 387.2 -25.9 385.8 -29.45 390.1 -34.9 L389.5 -46.35 389.5 -42.95 Q384.15 -45.65 380.85 -51.35 374.1 -62.7 383.8 -77.4 L385.55 -80.4 Q386.55 -81.5 387.65 -81.95 L391.25 -82.05 Q395.4 -80.65 396.2 -79.35 395.4 -80.65 391.25 -82.05 L387.65 -81.95 M388.2 -71.2 Q388.95 -73.4 390.55 -74.2 391.5 -74.7 392.4 -74.55 395.4 -76.35 396.2 -77.7 395.4 -76.35 392.4 -74.55 391.5 -74.7 390.55 -74.2 388.95 -73.4 388.2 -71.2 L387.85 -70.0 386.6 -68.75 Q385.4 -67.2 384.75 -65.15 383.05 -58.7 389.3 -50.65 L388.2 -71.2 M389.5 -46.35 L389.5 -50.4 389.3 -50.65 389.5 -50.4 389.5 -46.35 M390.65 -24.9 L395.35 -31.7 390.65 -24.9 M395.6 -45.55 L395.6 -45.4 Q394.35 -40.2 390.1 -34.9 394.35 -40.2 395.6 -45.4 L395.6 -45.55 M391.85 -1.45 Q391.85 -5.1 394.95 -10.0 391.85 -5.1 391.85 -1.45 M395.15 -20.75 Q393.9 -17.5 391.25 -13.2 393.9 -17.5 395.15 -20.75 M361.65 87.35 Q366.4 92.05 366.4 98.7 366.4 105.35 361.65 110.0 357.05 114.75 350.4 114.75 343.75 114.75 339.1 110.0 334.35 105.35 334.35 98.7 334.35 92.05 339.1 87.35 343.75 82.6 350.4 82.6 357.05 82.6 361.65 87.35 M113.15 97.15 L85.25 97.15 85.25 80.6 113.15 80.6 113.15 97.15 M27.4 80.6 L55.35 80.6 55.35 97.15 27.4 97.15 27.4 80.6 M-499.25 81.3 L-502.55 76.95 -503.25 112.35 -499.25 109.15 -499.25 81.3 M-505.45 74.4 L-489.35 74.4 -489.35 114.65 -505.45 114.65 -505.45 74.4 -505.45 114.65 -515.1 114.65 -515.1 74.4 -505.45 74.4" fill="#ffffff" fill-opacity="0.0" fill-rule="evenodd" stroke="none"/>
    <path d="M470.5 134.25 L470.55 134.25 470.5 135.25 470.5 134.25" fill="#000000" fill-opacity="0.2" fill-rule="evenodd" stroke="none"/>
    <path d="M-499.25 81.3 L-499.25 109.15 -503.25 112.35 -502.55 76.95 -499.25 81.3" fill="#ffffff" fill-opacity="0.6" fill-rule="evenodd" stroke="none"/>
    <path d="M27.4 -167.65 L27.4 -142.45 Q27.4 -141.65 26.55 -141.05 25.6 -140.5 24.35 -140.5 L-17.05 -140.5 Q-18.25 -140.5 -19.2 -141.05 -20.1 -141.65 -20.1 -142.45 L-20.1 -167.65 Q-20.1 -168.35 -19.2 -168.95 -18.25 -169.45 -17.05 -169.45 L24.35 -169.45 26.55 -168.95 Q27.4 -168.35 27.4 -167.65 M454.05 -168.95 L456.25 -169.45 497.65 -169.45 Q498.85 -169.45 499.85 -168.95 500.7 -168.35 500.7 -167.65 L500.7 -142.45 Q500.7 -141.65 499.85 -141.05 498.85 -140.5 497.65 -140.5 L456.25 -140.5 Q454.95 -140.5 454.05 -141.05 453.2 -141.65 453.2 -142.45 L453.2 -167.65 Q453.2 -168.35 454.05 -168.95 M415.05 -168.95 Q415.9 -168.35 415.9 -167.65 L415.9 -142.45 Q415.9 -141.65 415.05 -141.05 414.15 -140.5 412.85 -140.5 L371.45 -140.5 Q370.25 -140.5 369.3 -141.05 368.4 -141.65 368.4 -142.45 L368.4 -167.65 Q368.4 -168.35 369.3 -168.95 370.25 -169.45 371.45 -169.45 L412.85 -169.45 Q414.15 -169.45 415.05 -168.95 M340.5 177.75 L470.1 177.75 M113.15 97.15 L85.25 97.15 85.25 80.6 113.15 80.6 113.15 97.15 M27.4 80.6 L55.35 80.6 55.35 97.15 27.4 97.15 27.4 80.6 M-270.15 -69.3 L-164.75 -75.4 M-48.0 -25.9 L-48.0 14.45 -58.35 14.45 -58.35 -25.9 -48.0 -25.9 M-36.65 -171.55 L-36.65 169.4 -132.7 169.4 -132.7 -171.55 -36.65 -171.55 M-174.1 -74.45 L-172.5 171.5 -313.05 171.5 Q-328.55 134.35 -333.15 124.55 -336.15 118.4 -336.5 75.45 L-336.3 40.25 M-505.45 74.4 L-505.45 114.65 -489.35 114.65 -489.35 74.4 M-505.45 74.4 L-515.1 74.4 M-515.1 114.65 L-505.45 114.65 M-515.1 131.25 L-467.15 131.25 M-164.75 -177.8 L515.15 -177.8 M-164.75 177.75 L171.1 177.75" fill="none" stroke="#000000" stroke-linecap="butt" stroke-linejoin="miter-clip" stroke-miterlimit="10.0" stroke-opacity="0.6" stroke-width="1.0"/>
    <path d="M361.65 87.35 Q366.4 92.05 366.4 98.7 366.4 105.35 361.65 110.0 357.05 114.75 350.4 114.75 343.75 114.75 339.1 110.0 334.35 105.35 334.35 98.7 334.35 92.05 339.1 87.35 343.75 82.6 350.4 82.6 357.05 82.6 361.65 87.35 M-515.1 74.4 L-515.1 114.65" fill="none" stroke="#000000" stroke-linecap="butt" stroke-linejoin="miter-clip" stroke-miterlimit="10.0" stroke-opacity="0.8" stroke-width="1.0"/>
    <path d="M67.75 169.4 L67.75 167.4 -19.05 167.4 -19.05 18.55 67.75 18.55 158.65 18.55 158.65 167.4 67.75 167.4 67.75 18.55" fill="none" stroke="#000000" stroke-linecap="butt" stroke-linejoin="miter-clip" stroke-miterlimit="10.0" stroke-opacity="0.6" stroke-width="1.05"/>
    <path d="M-213.1 59.8 Q-214.35 58.55 -214.35 56.8 -214.35 55.15 -213.1 53.9 -211.9 52.7 -210.25 52.7 L-186.45 52.7 Q-184.7 52.7 -183.55 53.9 -182.3 55.15 -182.3 56.8 -182.3 58.55 -183.55 59.8 -184.75 61.0 -186.45 61.0 L-210.25 61.0 Q-211.9 61.0 -213.1 59.8" fill="none" stroke="#000000" stroke-linecap="butt" stroke-linejoin="miter-clip" stroke-miterlimit="10.0" stroke-width="1.0"/>
    <path d="M-489.35 74.4 L-505.45 74.4" fill="none" stroke="#000000" stroke-linecap="round" stroke-linejoin="round" stroke-opacity="0.6" stroke-width="1.0"/>
    <path d="M387.65 -81.95 L387.2 -90.1 390.1 -91.4 Q393.6 -92.2 396.4 -90.1 L396.2 -79.35 396.3 -79.15 Q396.6 -78.5 396.2 -77.7 L395.6 -45.55 395.9 -49.85 399.1 -46.2 Q401.85 -41.7 399.3 -37.8 L395.35 -31.7 395.15 -20.75 395.25 -21.15 395.9 -23.95 398.95 -21.4 Q401.5 -18.45 399.3 -15.9 396.65 -12.75 394.95 -10.0 L394.75 -1.45 391.85 -1.45 Q390.3 -2.15 389.3 -3.9 387.5 -7.35 390.7 -12.4 L391.25 -13.2 390.65 -24.9 389.5 -23.35 Q387.9 -24.05 387.2 -25.9 385.8 -29.45 390.1 -34.9 L389.5 -46.35 389.5 -42.95 Q384.15 -45.65 380.85 -51.35 374.1 -62.7 383.8 -77.4 L385.55 -80.4 Q386.55 -81.5 387.65 -81.95 L391.25 -82.05 Q395.4 -80.65 396.2 -79.35 M396.2 -77.7 Q395.4 -76.35 392.4 -74.55 391.5 -74.7 390.55 -74.2 388.95 -73.4 388.2 -71.2 L389.3 -50.65 389.5 -50.4 389.5 -46.35 M388.2 -71.2 L387.85 -70.0 386.6 -68.75 Q385.4 -67.2 384.75 -65.15 383.05 -58.7 389.3 -50.65 M395.35 -31.7 L390.65 -24.9 M390.1 -34.9 Q394.35 -40.2 395.6 -45.4 L395.6 -45.55 M394.95 -10.0 Q391.85 -5.1 391.85 -1.45 M391.25 -13.2 Q393.9 -17.5 395.15 -20.75" fill="none" stroke="#000000" stroke-linecap="round" stroke-linejoin="miter-clip" stroke-miterlimit="10.0" stroke-opacity="0.6" stroke-width="1.0"/>
  </g>
</svg>
