<?xml version="1.0" encoding="UTF-8" standalone="no"?>
<svg xmlns:xlink="http://www.w3.org/1999/xlink" height="303.7px" width="391.35px" xmlns="http://www.w3.org/2000/svg">
  <g transform="matrix(1.0, 0.0, 0.0, 1.0, 195.7, 151.85)">
    <path d="M156.2 -13.5 Q151.75 -24.6 143.95 -30.3 140.55 -31.95 137.05 -33.7 116.2 -37.45 17.5 -40.25 12.1 -40.9 3.25 -40.6 -2.25 -40.8 -7.15 -40.55 L-11.0 -40.25 Q-109.7 -37.45 -130.55 -33.7 -133.5 -33.1 -137.45 -30.3 -145.25 -24.6 -149.7 -13.5 L-175.6 57.3 Q-175.85 59.75 -173.85 60.35 L180.35 60.35 Q182.35 59.75 182.1 57.3 L156.2 -13.5 M184.1 -151.3 Q188.65 -151.3 191.9 -148.05 195.15 -144.9 195.15 -140.35 L195.15 140.35 Q195.15 144.9 191.9 148.05 188.65 151.25 184.1 151.25 L-184.25 151.25 Q-188.8 151.25 -191.95 148.05 -195.2 144.9 -195.2 140.35 L-195.2 -140.35 Q-195.2 -144.9 -191.95 -148.05 -188.8 -151.3 -184.25 -151.3 L184.1 -151.3" fill="#ffffff" fill-opacity="0.0" fill-rule="evenodd" stroke="none"/>
    <path d="M184.1 -151.3 L-184.25 -151.3 Q-188.8 -151.3 -191.95 -148.05 -195.2 -144.9 -195.2 -140.35 L-195.2 140.35 Q-195.2 144.9 -191.95 148.05 -188.8 151.25 -184.25 151.25 L184.1 151.25 Q188.65 151.25 191.9 148.05 195.15 144.9 195.15 140.35 L195.15 -140.35 Q195.15 -144.9 191.9 -148.05 188.65 -151.3 184.1 -151.3 M156.2 -13.5 L182.1 57.3 Q182.35 59.75 180.35 60.35 L-173.85 60.35 Q-175.85 59.75 -175.6 57.3 L-149.7 -13.5 Q-145.25 -24.6 -137.45 -30.3 -133.5 -33.1 -130.55 -33.7 -109.7 -37.45 -11.0 -40.25 L-7.15 -40.55 Q-2.25 -40.8 3.25 -40.6 12.1 -40.9 17.5 -40.25 116.2 -37.45 137.05 -33.7 140.55 -31.95 143.95 -30.3 151.75 -24.6 156.2 -13.5" fill="none" stroke="#000000" stroke-linecap="butt" stroke-linejoin="miter-clip" stroke-miterlimit="10.0" stroke-width="1.0"/>
    <path d="M-195.2 -136.0 L195.15 -136.0" fill="none" stroke="#000000" stroke-linecap="butt" stroke-linejoin="miter-clip" stroke-miterlimit="10.0" stroke-opacity="0.6" stroke-width="1.0"/>
  </g>
</svg>
