<?xml version="1.0" encoding="UTF-8" standalone="no"?>
<svg xmlns:xlink="http://www.w3.org/1999/xlink" height="54.75px" width="172.85px" xmlns="http://www.w3.org/2000/svg">
  <g transform="matrix(1.0, 0.0, 0.0, 1.0, 86.4, 27.35)">
    <path d="M2.45 -9.7 Q2.1 -10.95 2.55 -12.35 3.05 -13.85 4.9 -14.55 L6.75 -15.0 7.15 -14.85 7.3 -14.5 Q7.3 -14.0 6.8 -13.95 L5.4 -13.65 Q3.9 -13.1 3.55 -12.05 3.15 -10.75 3.55 -9.7 L3.6 -9.6 Q3.95 -8.85 4.55 -8.5 3.95 -8.85 3.6 -9.6 L3.55 -9.7 11.3 -10.05 39.95 -11.0 Q67.3 -12.25 72.65 -14.7 78.1 -17.25 81.1 -20.1 L82.6 -21.8 82.95 -22.4 83.1 -24.65 Q83.5 -26.9 84.55 -26.85 L84.65 -26.8 84.95 -25.9 Q85.45 -23.55 85.7 -16.55 86.05 -7.0 85.9 1.05 85.75 10.25 85.05 11.1 84.4 11.8 83.95 9.85 L83.6 7.7 Q82.75 6.0 80.55 4.05 76.15 0.25 69.55 -0.9 L50.8 -2.5 Q52.4 1.05 51.35 6.05 50.85 8.3 49.75 10.0 L51.35 11.8 53.7 9.0 Q56.1 6.35 56.05 6.9 55.85 8.45 53.4 11.5 50.2 15.5 46.4 15.95 L45.5 15.8 Q44.6 15.45 44.85 14.65 L44.85 13.7 43.9 14.0 40.3 14.6 Q39.25 16.05 37.1 16.4 L0.8 16.4 0.25 16.4 0.25 26.4 Q-0.05 26.9 -0.5 26.9 L-5.2 26.9 -6.0 26.7 -6.15 26.5 -6.15 1.75 -7.05 1.75 -7.05 26.4 Q-7.35 26.9 -7.8 26.9 L-12.5 26.9 -13.3 26.7 -13.45 26.5 -13.45 17.25 -13.7 17.25 -14.95 17.0 -14.95 26.4 -15.65 26.9 -20.35 26.9 -21.15 26.7 -21.35 26.5 -21.35 16.9 -38.75 16.9 -39.5 16.8 -52.55 16.8 -56.0 16.0 Q-59.85 14.65 -61.55 12.05 L-63.15 9.2 Q-64.55 5.65 -63.9 2.3 -63.25 -1.05 -61.0 -3.55 L-60.4 -4.05 -62.55 -4.05 -65.3 -4.05 -66.1 -4.4 -73.65 -4.3 -74.45 -4.55 -76.0 -4.3 -76.5 -4.4 -78.45 -4.4 -79.15 -3.6 Q-80.2 -2.85 -82.0 -3.0 L-82.85 -2.35 Q-83.85 -1.7 -84.6 -1.7 -84.9 -1.65 -85.25 -2.0 -85.9 -2.65 -85.9 -4.4 L-85.9 -7.3 -85.75 -8.9 Q-85.45 -10.4 -84.45 -9.9 L-82.55 -8.9 Q-81.8 -8.45 -81.45 -8.45 L-80.05 -8.35 Q-79.0 -8.1 -78.75 -7.3 L-77.45 -7.3 -77.05 -7.65 -76.0 -7.8 -74.3 -7.3 -69.55 -7.55 -65.85 -7.3 -65.8 -7.75 -65.2 -8.2 -49.05 -8.5 -47.8 -8.55 -21.35 -9.1 -21.35 -10.7 -18.85 -11.25 -18.85 -15.35 -19.7 -15.35 Q-20.1 -15.35 -20.35 -15.65 L-20.6 -16.3 -20.35 -16.9 -19.7 -17.2 -16.6 -17.2 Q-16.2 -17.2 -15.95 -16.9 -15.65 -16.65 -15.65 -16.3 -15.65 -15.9 -15.95 -15.65 -16.2 -15.35 -16.6 -15.35 L-17.3 -15.35 -17.3 -11.15 -16.8 -11.1 -14.95 -10.5 -14.95 -9.25 -13.45 -9.25 -13.45 -10.7 -11.15 -11.2 -11.15 -15.35 -11.75 -15.35 Q-12.15 -15.35 -12.4 -15.65 L-12.65 -16.3 -12.4 -16.9 Q-12.15 -17.2 -11.75 -17.2 L-8.65 -17.2 Q-8.25 -17.2 -8.0 -16.9 L-7.7 -16.3 Q-7.7 -15.9 -8.0 -15.65 -8.25 -15.35 -8.65 -15.35 L-9.6 -15.35 -9.6 -11.2 -8.9 -11.1 -7.05 -10.5 -7.05 -9.4 -6.15 -9.45 -6.15 -10.7 -3.55 -11.25 -3.55 -15.35 -4.05 -15.35 Q-4.45 -15.35 -4.7 -15.65 L-5.0 -16.3 -4.7 -16.9 -4.05 -17.2 -0.95 -17.2 Q-0.55 -17.2 -0.3 -16.9 L-0.05 -16.3 Q-0.05 -15.9 -0.3 -15.65 -0.55 -15.35 -0.95 -15.35 L-2.0 -15.35 -2.0 -11.15 -1.6 -11.1 0.25 -10.5 0.25 -9.6 2.45 -9.7 2.6 -9.2 3.0 -8.5 Q3.6 -7.7 4.55 -7.3 3.6 -7.7 3.0 -8.5 L2.6 -9.2 2.45 -9.7 M4.7 -7.25 L4.55 -7.3 -64.1 -7.55 -64.2 -7.55 -64.5 -6.7 -66.0 -6.85 -71.8 -6.7 -73.8 -6.35 -74.3 -6.65 -74.3 -7.3 -74.3 -6.65 -75.7 -7.05 Q-76.8 -7.15 -77.35 -6.35 L-78.65 -6.7 -79.3 -6.85 Q-80.35 -8.0 -82.25 -7.55 L-82.3 -7.55 -84.5 -9.1 -84.65 -8.85 -82.35 -7.3 -82.3 -7.3 -81.25 -7.4 Q-80.1 -7.35 -79.5 -6.65 L-79.45 -6.6 -78.65 -6.4 -77.2 -6.05 -77.2 -6.15 -76.85 -6.55 -75.75 -6.75 -74.35 -6.35 -73.9 -6.1 -73.85 -6.05 -73.75 -6.1 -72.1 -6.4 -66.0 -6.6 -64.35 -6.4 -64.0 -7.3 -11.25 -7.1 25.1 -7.05 39.65 -7.2 41.85 -7.35 41.8 -7.5 41.7 -7.4 41.65 -7.55 Q40.85 -7.3 11.9 -7.3 L11.8 -7.25 4.7 -7.25 M5.05 -8.25 L13.45 -8.05 11.9 -7.3 13.45 -8.05 5.05 -8.25 4.55 -8.5 5.05 -8.25 M-74.45 -4.55 L-74.35 -6.35 -74.45 -4.55 M0.25 7.1 L10.7 7.15 9.2 6.15 Q8.0 4.95 8.0 3.25 8.0 1.6 9.2 0.4 10.4 -0.8 12.1 -0.8 13.8 -0.8 14.95 0.4 16.15 1.6 16.15 3.25 16.15 4.95 14.95 6.15 14.3 6.85 13.45 7.15 L37.1 7.2 Q39.6 7.55 40.6 9.1 L41.2 10.5 Q43.5 10.25 45.0 9.3 L46.3 8.2 46.65 7.7 Q48.7 4.05 47.6 0.1 47.15 -1.65 46.35 -2.7 L34.05 -3.25 Q9.1 -4.3 0.25 -4.15 L0.25 7.1 -0.15 7.1 -0.3 10.45 37.95 10.45 41.2 10.5 37.95 10.45 -0.3 10.45 -0.15 7.1 0.25 7.1 M50.8 -2.5 Q50.2 -3.8 49.25 -4.9 46.15 -8.55 41.2 -8.45 L4.55 -8.5 41.2 -8.45 Q46.15 -8.55 49.25 -4.9 50.2 -3.8 50.8 -2.5 M46.75 -10.0 Q46.15 -9.8 48.8 -9.5 L55.6 -8.95 74.0 -9.7 Q80.95 -10.85 82.45 -15.15 82.9 -16.5 82.75 -18.0 L82.55 -19.25 Q78.4 -12.6 62.15 -10.65 L51.4 -9.95 46.75 -10.0 M46.35 -2.7 Q45.45 -3.95 44.15 -4.3 L30.5 -4.95 -62.55 -4.05 30.5 -4.95 44.15 -4.3 Q45.45 -3.95 46.35 -2.7 M49.75 10.0 L48.45 11.5 49.75 10.0 M46.55 12.9 L46.55 13.35 Q46.85 14.75 47.7 14.4 49.1 13.75 49.7 13.1 L48.45 11.5 Q47.6 12.3 46.55 12.9 L44.85 13.7 46.55 12.9 M37.95 14.6 L37.0 14.9 -1.15 14.9 -1.3 14.9 -2.75 15.05 Q-3.8 14.9 -4.15 14.05 -3.8 14.9 -2.75 15.05 L-1.3 14.9 -1.15 14.9 37.0 14.9 37.95 14.6 37.95 10.45 37.95 14.6 38.05 14.55 39.85 14.6 40.3 14.6 39.85 14.6 38.05 14.55 37.95 14.6 M14.35 1.0 Q13.4 0.05 12.1 0.05 10.75 0.05 9.8 1.0 8.85 1.95 8.85 3.25 8.85 4.6 9.8 5.55 10.75 6.5 12.1 6.5 13.4 6.5 14.35 5.55 15.3 4.6 15.3 3.25 15.3 1.95 14.35 1.0 M13.45 7.15 L12.1 7.35 10.7 7.15 12.1 7.35 13.45 7.15 M18.9 12.15 L36.85 11.7 -2.25 11.85 Q0.7 12.5 18.9 12.15 M1.55 7.85 L20.2 8.5 35.6 7.85 1.55 7.85 M-81.75 -8.35 L-82.2 -7.7 -82.25 -7.55 -82.2 -7.7 -81.75 -8.35 -81.45 -8.45 -81.75 -8.35 M-82.0 -3.0 Q-82.7 -5.85 -82.3 -7.3 -82.7 -5.85 -82.0 -3.0 M-78.75 -7.3 L-78.65 -6.7 -78.75 -7.3 M-60.4 -4.05 L-53.95 -4.05 -60.4 -4.05 M-78.45 -4.4 L-78.65 -6.4 -78.45 -4.4 M-21.35 -4.05 L-35.95 -4.05 -53.95 -4.05 -55.55 -3.45 Q-58.45 -1.8 -59.6 1.35 -61.45 6.5 -58.75 9.7 -55.05 14.05 -43.2 13.05 L-43.15 11.5 Q-43.05 10.6 -42.25 9.7 -40.65 7.85 -37.0 7.85 L-21.35 7.65 -21.35 1.75 -21.4 2.3 Q-21.45 3.45 -21.65 4.15 -21.95 5.4 -22.75 6.35 -23.85 7.6 -25.8 7.6 L-26.8 7.5 Q-28.0 7.3 -28.95 6.65 -29.9 5.95 -30.15 5.15 -30.6 3.85 -30.2 2.05 L-29.7 0.45 -29.4 0.15 -29.0 0.2 -28.75 0.5 -28.75 0.85 -29.2 2.2 Q-29.55 3.75 -29.2 4.8 L-28.25 5.85 -26.6 6.5 -24.85 6.45 Q-24.05 6.2 -23.55 5.65 -22.9 4.9 -22.65 3.9 L-22.45 2.25 -22.35 1.35 Q-22.2 0.9 -21.85 0.75 L-21.75 0.7 -21.35 0.7 -21.35 -4.05 -14.95 -4.1 -21.35 -4.05 M-13.45 -4.1 L-14.95 -4.1 -14.95 0.7 -16.7 0.7 -16.7 0.05 -16.9 -0.45 -17.45 -0.65 -17.95 -0.45 -18.15 0.05 -18.15 0.7 -19.45 0.7 -18.15 0.7 -18.15 0.05 -17.95 -0.45 -17.45 -0.65 -16.9 -0.45 -16.7 0.05 -16.7 0.7 -14.95 0.7 -13.45 0.7 -13.45 -4.1 -7.05 -4.1 -13.45 -4.1 M-6.15 -4.1 L-7.05 -4.1 -7.05 0.7 -9.15 0.7 -9.15 0.05 -9.35 -0.45 -9.85 -0.65 -10.35 -0.45 -10.6 0.05 -10.6 0.7 -11.3 0.7 -10.6 0.7 -10.6 0.05 -10.35 -0.45 -9.85 -0.65 -9.35 -0.45 -9.15 0.05 -9.15 0.7 -7.05 0.7 -6.15 0.7 -6.15 -4.1 -0.05 -4.15 0.25 -4.15 -0.05 -4.15 -6.15 -4.1 M-18.85 -11.25 L-17.3 -11.15 -18.85 -11.25 M-18.85 -15.35 L-17.3 -15.35 -18.85 -15.35 M-3.55 -15.35 L-2.0 -15.35 -3.55 -15.35 M-11.3 0.7 L-11.3 -3.95 -12.35 -3.95 -12.35 0.7 -11.3 0.7 M-3.55 -11.25 L-2.0 -11.15 -3.55 -11.25 M-1.75 0.05 L-1.95 -0.45 -2.45 -0.65 -2.95 -0.45 -3.15 0.05 -3.15 0.7 -4.15 0.7 -3.15 0.7 -3.15 0.05 -2.95 -0.45 -2.45 -0.65 -1.95 -0.45 -1.75 0.05 -1.75 0.7 -1.75 0.05 M-4.15 1.75 L-3.15 1.75 -3.15 2.55 -2.95 3.05 -2.45 3.25 Q-2.15 3.25 -1.95 3.05 L-1.75 2.55 -1.75 1.75 -0.9 1.75 -0.5 1.6 -0.35 1.25 Q-0.35 1.05 -0.5 0.85 -0.65 0.7 -0.9 0.7 L-1.75 0.7 -0.9 0.7 Q-0.65 0.7 -0.5 0.85 -0.35 1.05 -0.35 1.25 L-0.5 1.6 -0.9 1.75 -1.75 1.75 -1.75 2.55 -1.95 3.05 Q-2.15 3.25 -2.45 3.25 L-2.95 3.05 -3.15 2.55 -3.15 1.75 -4.15 1.75 -5.2 1.75 -5.2 26.1 -4.15 26.1 -4.15 14.05 -4.35 13.1 -4.15 11.85 -4.15 1.75 M-0.3 10.45 L-1.8 10.45 -3.1 10.75 Q-3.85 11.1 -4.15 11.85 -3.85 11.1 -3.1 10.75 L-1.8 10.45 -0.3 10.45 M-4.15 0.7 L-4.15 -3.95 -5.2 -3.95 -5.2 0.7 -4.15 0.7 M-11.15 -11.2 L-9.6 -11.2 -11.15 -11.2 M-9.6 -15.35 L-11.15 -15.35 -9.6 -15.35 M-7.05 -9.4 L-13.45 -9.25 -7.05 -9.4 M-19.45 0.7 L-19.45 -3.95 -20.5 -3.95 -20.5 0.7 -19.45 0.7 M-14.95 -9.25 L-21.35 -9.1 -14.95 -9.25 M-1.75 0.7 L-1.75 1.75 -1.75 0.7 M-3.15 0.7 L-3.15 1.75 -3.15 0.7 M-6.15 1.75 L-5.2 1.75 -6.15 1.75 M-5.2 0.7 L-6.15 0.7 -5.2 0.7 M-9.15 1.75 L-9.15 2.55 -9.35 3.05 Q-9.55 3.25 -9.85 3.25 L-10.35 3.05 -10.6 2.55 -10.6 1.75 -10.6 2.55 -10.35 3.05 -9.85 3.25 Q-9.55 3.25 -9.35 3.05 L-9.15 2.55 -9.15 1.75 -9.15 0.7 -9.15 1.75 -7.05 1.75 -9.15 1.75 M-11.3 11.1 L-9.55 11.1 Q-9.0 11.05 -8.8 9.75 -8.6 8.55 -8.85 8.1 -9.25 7.3 -10.1 7.05 L-10.15 7.05 -11.3 6.95 -10.15 7.05 -10.1 7.05 Q-9.25 7.3 -8.85 8.1 -8.6 8.55 -8.8 9.75 -9.0 11.05 -9.55 11.1 L-11.3 11.1 -11.9 11.05 -12.35 11.0 -13.1 11.0 -13.45 11.15 -13.1 11.0 -12.35 11.0 -12.35 13.15 -11.3 13.15 -11.3 11.1 M-11.3 17.25 L-10.25 17.25 Q-8.3 15.95 -9.0 14.4 L-10.05 13.15 -11.3 13.15 -10.05 13.15 -9.0 14.4 Q-8.3 15.95 -10.25 17.25 L-11.3 17.25 -12.35 17.25 -12.35 26.1 -11.3 26.1 -11.3 17.25 M-13.45 17.25 L-12.35 17.25 -13.45 17.25 M-10.6 0.7 L-10.6 1.75 -10.6 0.7 M-11.3 1.75 L-12.35 1.75 -12.35 7.05 -12.55 7.05 -13.45 7.25 -12.55 7.05 -12.35 7.05 -11.3 6.95 -11.3 1.75 -10.6 1.75 -11.3 1.75 M-13.45 7.25 L-13.45 1.75 -14.95 1.75 -14.95 7.75 -14.9 7.7 Q-14.25 7.4 -13.45 7.25 M-12.35 0.7 L-13.45 0.7 -12.35 0.7 M-13.45 1.75 L-12.35 1.75 -13.45 1.75 M-16.7 1.75 L-16.7 0.7 -16.7 1.75 -16.7 2.55 -16.9 3.05 -17.45 3.25 -17.95 3.05 -18.15 2.55 -18.15 1.75 -18.15 2.55 -17.95 3.05 -17.45 3.25 -16.9 3.05 -16.7 2.55 -16.7 1.75 -14.95 1.75 -16.7 1.75 M-18.15 0.7 L-18.15 1.75 -18.15 0.7 M-18.15 1.75 L-19.45 1.75 -18.15 1.75 M-19.45 11.3 L-19.8 11.7 -20.5 11.7 -20.5 13.25 -19.45 13.25 -19.45 11.3 Q-18.5 10.1 -18.95 8.8 L-19.45 8.1 -18.95 8.8 Q-18.5 10.1 -19.45 11.3 M-20.5 7.6 L-19.8 7.6 -19.45 8.1 -19.45 1.75 -20.5 1.75 -21.35 1.75 -20.5 1.75 -20.5 7.6 -21.35 7.65 -20.5 7.6 M-14.4 8.25 L-14.95 8.55 -15.9 9.2 Q-17.9 11.0 -16.75 13.95 L-16.25 13.9 Q-15.7 13.8 -15.7 13.35 -16.3 12.35 -16.35 11.45 -16.4 10.2 -14.95 8.9 L-13.65 7.95 -14.4 8.25 M-13.45 11.15 L-13.85 11.75 Q-14.0 12.6 -13.45 12.95 L-13.45 11.15 M-12.35 13.15 L-12.4 13.15 -13.45 12.95 -12.4 13.15 -12.35 13.15 M-14.95 7.75 Q-16.55 8.4 -17.25 9.95 -17.9 11.4 -17.6 13.2 -17.35 14.8 -16.35 15.95 L-14.95 17.0 -16.35 15.95 Q-17.35 14.8 -17.6 13.2 -17.9 11.4 -17.25 9.95 -16.55 8.4 -14.95 7.75 M-19.45 16.9 L-17.8 16.9 Q-17.3 15.2 -17.75 14.05 L-18.3 13.25 -19.45 13.25 -18.3 13.25 -17.75 14.05 Q-17.3 15.2 -17.8 16.9 L-19.45 16.9 -20.5 16.9 -20.5 26.1 -19.45 26.1 -19.45 16.9 M-1.15 14.9 Q-0.95 15.95 -0.05 16.3 L0.25 16.4 -0.05 16.3 Q-0.95 15.95 -1.15 14.9 M-21.35 16.9 L-20.5 16.9 -21.35 16.9 M-20.5 0.7 L-21.35 0.7 -20.5 0.7 M-21.35 10.0 L-27.15 9.55 -37.15 10.15 -19.95 10.15 -20.5 10.1 -21.35 10.0 M-21.35 11.7 L-20.5 11.7 -21.35 11.7 -37.7 11.7 -38.45 11.65 Q-39.2 11.8 -39.15 12.55 L-39.2 12.7 -39.0 13.0 -35.5 13.25 -21.35 13.25 -21.35 11.7 M-20.5 13.25 L-21.35 13.25 -20.5 13.25 M-21.35 15.2 L-27.15 14.75 -37.15 15.35 -19.95 15.35 -20.5 15.3 -21.35 15.2 M-43.2 13.05 Q-43.0 15.05 -41.2 16.1 L-39.5 16.8 -41.2 16.1 Q-43.0 15.05 -43.2 13.05 M-51.95 14.0 Q-60.75 12.0 -61.85 6.65 L-61.75 8.1 Q-61.4 9.8 -60.05 11.15 -55.8 15.55 -43.4 15.0 L-51.95 14.0 M0.25 -9.6 L-6.15 -9.45 0.25 -9.6 M-47.8 -8.55 L3.0 -8.5 -47.8 -8.55" fill="#ffffff" fill-opacity="0.0" fill-rule="evenodd" stroke="none"/>
    <path d="M4.55 -7.3 L4.7 -7.25 11.8 -7.25 11.9 -7.3 Q40.85 -7.3 41.65 -7.55 L41.7 -7.4 41.8 -7.5 41.85 -7.35 39.65 -7.2 25.1 -7.05 -11.25 -7.1 -64.0 -7.3 -64.35 -6.4 -66.0 -6.6 -72.1 -6.4 -73.75 -6.1 -73.85 -6.05 -73.9 -6.1 -74.35 -6.35 -74.3 -6.65 -74.35 -6.35 -75.75 -6.75 -76.85 -6.55 -77.2 -6.15 -77.2 -6.05 -78.65 -6.4 -79.45 -6.6 -79.5 -6.65 Q-80.1 -7.35 -81.25 -7.4 L-82.3 -7.3 -82.35 -7.3 -84.65 -8.85 -84.5 -9.1 -82.3 -7.55 -82.25 -7.55 -82.3 -7.3 -82.25 -7.55 Q-80.35 -8.0 -79.3 -6.85 L-78.65 -6.7 -77.35 -6.35 Q-76.8 -7.15 -75.7 -7.05 L-74.3 -6.65 -73.8 -6.35 -71.8 -6.7 -66.0 -6.85 -64.5 -6.7 -64.2 -7.55 -64.1 -7.55 4.55 -7.3 M46.75 -10.0 L51.4 -9.95 62.15 -10.65 Q78.4 -12.6 82.55 -19.25 L82.75 -18.0 Q82.9 -16.5 82.45 -15.15 80.95 -10.85 74.0 -9.7 L55.6 -8.95 48.8 -9.5 Q46.15 -9.8 46.75 -10.0 M1.55 7.85 L35.6 7.85 20.2 8.5 1.55 7.85 M18.9 12.15 Q0.7 12.5 -2.25 11.85 L36.85 11.7 18.9 12.15 M-78.65 -6.4 L-78.65 -6.7 -78.65 -6.4 M-12.35 0.7 L-12.35 -3.95 -11.3 -3.95 -11.3 0.7 -12.35 0.7 M-4.15 1.75 L-4.15 11.85 -4.35 13.1 -4.15 14.05 -4.15 26.1 -5.2 26.1 -5.2 1.75 -4.15 1.75 M-5.2 0.7 L-5.2 -3.95 -4.15 -3.95 -4.15 0.7 -5.2 0.7 M-20.5 0.7 L-20.5 -3.95 -19.45 -3.95 -19.45 0.7 -20.5 0.7 M-11.3 11.1 L-11.3 13.15 -12.35 13.15 -12.35 11.0 -11.9 11.05 -11.3 11.1 M-11.3 17.25 L-11.3 26.1 -12.35 26.1 -12.35 17.25 -11.3 17.25 M-12.35 1.75 L-11.3 1.75 -11.3 6.95 -12.35 7.05 -12.35 1.75 M-20.5 11.7 L-19.8 11.7 -19.45 11.3 -19.45 13.25 -20.5 13.25 -20.5 11.7 M-19.45 8.1 L-19.8 7.6 -20.5 7.6 -20.5 1.75 -19.45 1.75 -19.45 8.1 M-14.4 8.25 L-13.65 7.95 -14.95 8.9 Q-16.4 10.2 -16.35 11.45 -16.3 12.35 -15.7 13.35 -15.7 13.8 -16.25 13.9 L-16.75 13.95 Q-17.9 11.0 -15.9 9.2 L-14.95 8.55 -14.4 8.25 M-19.45 16.9 L-19.45 26.1 -20.5 26.1 -20.5 16.9 -19.45 16.9 M-21.35 10.0 L-20.5 10.1 -19.95 10.15 -37.15 10.15 -27.15 9.55 -21.35 10.0 M-21.35 15.2 L-20.5 15.3 -19.95 15.35 -37.15 15.35 -27.15 14.75 -21.35 15.2 M-51.95 14.0 L-43.4 15.0 Q-55.8 15.55 -60.05 11.15 -61.4 9.8 -61.75 8.1 L-61.85 6.65 Q-60.75 12.0 -51.95 14.0" fill="#ffffff" fill-opacity="0.6" fill-rule="evenodd" stroke="none"/>
    <path d="M4.55 -7.3 L4.7 -7.25 M11.8 -7.25 L11.9 -7.3 M5.05 -8.25 L4.55 -8.5 41.2 -8.45 Q46.15 -8.55 49.25 -4.9 50.2 -3.8 50.8 -2.5 M0.25 26.4 Q-0.05 26.9 -0.5 26.9 M-5.2 26.9 L-6.0 26.7 M-13.3 26.7 L-13.45 26.5 M-13.45 17.25 L-13.7 17.25 -14.95 17.0 -16.35 15.95 Q-17.35 14.8 -17.6 13.2 -17.9 11.4 -17.25 9.95 -16.55 8.4 -14.95 7.75 L-14.9 7.7 Q-14.25 7.4 -13.45 7.25 L-12.55 7.05 -12.35 7.05 -11.3 6.95 -10.15 7.05 -10.1 7.05 Q-9.25 7.3 -8.85 8.1 -8.6 8.55 -8.8 9.75 -9.0 11.05 -9.55 11.1 L-11.3 11.1 -11.9 11.05 -12.35 11.0 -13.1 11.0 -13.45 11.15 -13.85 11.75 Q-14.0 12.6 -13.45 12.95 L-12.4 13.15 -12.35 13.15 -11.3 13.15 -10.05 13.15 -9.0 14.4 Q-8.3 15.95 -10.25 17.25 L-11.3 17.25 -12.35 17.25 -13.45 17.25 M-20.35 26.9 L-21.15 26.7 M-21.35 16.9 L-38.75 16.9 -39.5 16.8 -52.55 16.8 -56.0 16.0 Q-59.85 14.65 -61.55 12.05 L-63.15 9.2 Q-64.55 5.65 -63.9 2.3 -63.25 -1.05 -61.0 -3.55 L-60.4 -4.05 -62.55 -4.05 -65.3 -4.05 -66.1 -4.4 -73.65 -4.3 -74.45 -4.55 -76.0 -4.3 -76.5 -4.4 -78.45 -4.4 -79.15 -3.6 Q-80.2 -2.85 -82.0 -3.0 L-82.85 -2.35 Q-83.85 -1.7 -84.6 -1.7 -84.9 -1.65 -85.25 -2.0 -85.9 -2.65 -85.9 -4.4 L-85.9 -7.3 -85.75 -8.9 Q-85.45 -10.4 -84.45 -9.9 L-82.55 -8.9 Q-81.8 -8.45 -81.45 -8.45 L-80.05 -8.35 Q-79.0 -8.1 -78.75 -7.3 L-77.45 -7.3 -77.05 -7.65 -76.0 -7.8 -74.3 -7.3 -69.55 -7.55 -65.85 -7.3 -65.8 -7.75 -65.2 -8.2 -49.05 -8.5 -47.8 -8.55 -21.35 -9.1 -14.95 -9.25 -13.45 -9.25 -7.05 -9.4 -6.15 -9.45 0.25 -9.6 M-74.35 -6.35 L-74.45 -4.55 M0.25 7.1 L10.7 7.15 9.2 6.15 Q8.0 4.95 8.0 3.25 8.0 1.6 9.2 0.4 10.4 -0.8 12.1 -0.8 13.8 -0.8 14.95 0.4 16.15 1.6 16.15 3.25 16.15 4.95 14.95 6.15 14.3 6.85 13.45 7.15 L37.1 7.2 Q39.6 7.55 40.6 9.1 L41.2 10.5 Q43.5 10.25 45.0 9.3 L46.3 8.2 46.65 7.7 Q48.7 4.05 47.6 0.1 47.15 -1.65 46.35 -2.7 L34.05 -3.25 Q9.1 -4.3 0.25 -4.15 L-0.05 -4.15 -6.15 -4.1 -7.05 -4.1 -13.45 -4.1 -14.95 -4.1 -21.35 -4.05 -35.95 -4.05 -53.95 -4.05 -55.55 -3.45 Q-58.45 -1.8 -59.6 1.35 -61.45 6.5 -58.75 9.7 -55.05 14.05 -43.2 13.05 L-43.15 11.5 Q-43.05 10.6 -42.25 9.7 -40.65 7.85 -37.0 7.85 L-21.35 7.65 -20.5 7.6 -19.8 7.6 -19.45 8.1 -18.95 8.8 Q-18.5 10.1 -19.45 11.3 L-19.8 11.7 -20.5 11.7 -21.35 11.7 -37.7 11.7 -38.45 11.65 Q-39.2 11.8 -39.15 12.55 L-39.2 12.7 -39.0 13.0 -35.5 13.25 -21.35 13.25 -20.5 13.25 -19.45 13.25 -18.3 13.25 -17.75 14.05 Q-17.3 15.2 -17.8 16.9 L-19.45 16.9 -20.5 16.9 -21.35 16.9 M0.25 7.1 L-0.15 7.1 -0.3 10.45 37.95 10.45 41.2 10.5 M-62.55 -4.05 L30.5 -4.95 44.15 -4.3 Q45.45 -3.95 46.35 -2.7 M48.45 11.5 L49.7 13.1 Q49.1 13.75 47.7 14.4 46.85 14.75 46.55 13.35 L46.55 12.9 Q47.6 12.3 48.45 11.5 M-4.15 14.05 Q-3.8 14.9 -2.75 15.05 L-1.3 14.9 -1.15 14.9 37.0 14.9 37.95 14.6 38.05 14.55 39.85 14.6 40.3 14.6 M14.35 1.0 Q15.3 1.95 15.3 3.25 15.3 4.6 14.35 5.55 13.4 6.5 12.1 6.5 10.75 6.5 9.8 5.55 8.85 4.6 8.85 3.25 8.85 1.95 9.8 1.0 10.75 0.05 12.1 0.05 13.4 0.05 14.35 1.0 M10.7 7.15 L12.1 7.35 13.45 7.15 M-81.75 -8.35 L-81.45 -8.45 M-82.3 -7.3 L-82.25 -7.55 M-78.65 -6.7 L-78.75 -7.3 M-4.15 11.85 Q-3.85 11.1 -3.1 10.75 L-1.8 10.45 -0.3 10.45 M-4.15 14.05 L-4.35 13.1 -4.15 11.85 M0.25 16.4 L-0.05 16.3 Q-0.95 15.95 -1.15 14.9 M-39.5 16.8 L-41.2 16.1 Q-43.0 15.05 -43.2 13.05 M3.0 -8.5 L-47.8 -8.55" fill="none" stroke="#000000" stroke-linecap="butt" stroke-linejoin="miter-clip" stroke-miterlimit="10.0" stroke-width="1.0"/>
    <path d="M0.25 16.4 L0.25 26.4 M-0.5 26.9 L-5.2 26.9 M-6.0 26.7 L-6.15 26.5 -6.15 1.75 -7.05 1.75 -7.05 26.4 Q-7.35 26.9 -7.8 26.9 L-12.5 26.9 -13.3 26.7 M-13.45 26.5 L-13.45 17.25 M-14.95 17.0 L-14.95 26.4 -15.65 26.9 -20.35 26.9 M-21.15 26.7 L-21.35 26.5 -21.35 16.9 M-21.35 -9.1 L-21.35 -10.7 -18.85 -11.25 -18.85 -15.35 -19.7 -15.35 Q-20.1 -15.35 -20.35 -15.65 L-20.6 -16.3 -20.35 -16.9 -19.7 -17.2 -16.6 -17.2 Q-16.2 -17.2 -15.95 -16.9 -15.65 -16.65 -15.65 -16.3 -15.65 -15.9 -15.95 -15.65 -16.2 -15.35 -16.6 -15.35 L-17.3 -15.35 -17.3 -11.15 -16.8 -11.1 -14.95 -10.5 -14.95 -9.25 M-13.45 -9.25 L-13.45 -10.7 -11.15 -11.2 -11.15 -15.35 -11.75 -15.35 Q-12.15 -15.35 -12.4 -15.65 L-12.65 -16.3 -12.4 -16.9 Q-12.15 -17.2 -11.75 -17.2 L-8.65 -17.2 Q-8.25 -17.2 -8.0 -16.9 L-7.7 -16.3 Q-7.7 -15.9 -8.0 -15.65 -8.25 -15.35 -8.65 -15.35 M-9.6 -15.35 L-9.6 -11.2 -8.9 -11.1 -7.05 -10.5 -7.05 -9.4 M-6.15 -9.45 L-6.15 -10.7 -3.55 -11.25 -3.55 -15.35 -4.05 -15.35 Q-4.45 -15.35 -4.7 -15.65 L-5.0 -16.3 -4.7 -16.9 -4.05 -17.2 -0.95 -17.2 Q-0.55 -17.2 -0.3 -16.9 L-0.05 -16.3 Q-0.05 -15.9 -0.3 -15.65 -0.55 -15.35 -0.95 -15.35 L-2.0 -15.35 -2.0 -11.15 -1.6 -11.1 0.25 -10.5 0.25 -9.6 M0.25 -4.15 L0.25 7.1 M-21.35 7.65 L-21.35 1.75 -21.4 2.3 Q-21.45 3.45 -21.65 4.15 -21.95 5.4 -22.75 6.35 -23.85 7.6 -25.8 7.6 L-26.8 7.5 Q-28.0 7.3 -28.95 6.65 -29.9 5.95 -30.15 5.15 -30.6 3.85 -30.2 2.05 L-29.7 0.45 -29.4 0.15 -29.0 0.2 -28.75 0.5 -28.75 0.85 -29.2 2.2 Q-29.55 3.75 -29.2 4.8 L-28.25 5.85 -26.6 6.5 -24.85 6.45 Q-24.05 6.2 -23.55 5.65 -22.9 4.9 -22.65 3.9 L-22.45 2.25 -22.35 1.35 Q-22.2 0.9 -21.85 0.75 L-21.75 0.7 -21.35 0.7 -21.35 -4.05 M-19.45 0.7 L-18.15 0.7 -18.15 0.05 -17.95 -0.45 -17.45 -0.65 -16.9 -0.45 -16.7 0.05 -16.7 0.7 -14.95 0.7 -14.95 -4.1 M-12.35 0.7 L-11.3 0.7 -10.6 0.7 -10.6 0.05 -10.35 -0.45 -9.85 -0.65 -9.35 -0.45 -9.15 0.05 -9.15 0.7 -7.05 0.7 -7.05 -4.1 M-4.15 0.7 L-3.15 0.7 -3.15 0.05 -2.95 -0.45 -2.45 -0.65 -1.95 -0.45 -1.75 0.05 M-1.75 0.7 L-0.9 0.7 Q-0.65 0.7 -0.5 0.85 -0.35 1.05 -0.35 1.25 L-0.5 1.6 -0.9 1.75 -1.75 1.75 -1.75 2.55 -1.95 3.05 Q-2.15 3.25 -2.45 3.25 L-2.95 3.05 -3.15 2.55 -3.15 1.75 -4.15 1.75 -5.2 1.75 -6.15 1.75 M-5.2 0.7 L-4.15 0.7 M-11.15 -15.35 L-9.6 -15.35 M-20.5 0.7 L-19.45 0.7 M-1.75 1.75 L-1.75 0.7 M-6.15 0.7 L-5.2 0.7 M-7.05 0.7 L-6.15 0.7 -6.15 -4.1 M-10.6 1.75 L-10.6 2.55 -10.35 3.05 -9.85 3.25 Q-9.55 3.25 -9.35 3.05 L-9.15 2.55 -9.15 1.75 -7.05 1.75 M-12.35 1.75 L-11.3 1.75 -10.6 1.75 M-14.95 0.7 L-13.45 0.7 -13.45 -4.1 M-13.45 7.25 L-13.45 1.75 -14.95 1.75 -14.95 7.75 M-12.35 1.75 L-13.45 1.75 M-13.45 0.7 L-12.35 0.7 M-16.7 1.75 L-14.95 1.75 M-18.15 1.75 L-18.15 2.55 -17.95 3.05 -17.45 3.25 -16.9 3.05 -16.7 2.55 -16.7 1.75 M-19.45 1.75 L-18.15 1.75 M-13.45 12.95 L-13.45 11.15 M-21.35 0.7 L-20.5 0.7 M-21.35 1.75 L-20.5 1.75 -19.45 1.75 M-21.35 11.7 L-21.35 13.25" fill="none" stroke="#000000" stroke-linecap="butt" stroke-linejoin="miter-clip" stroke-miterlimit="10.0" stroke-opacity="0.8" stroke-width="1.0"/>
    <path d="M4.7 -7.25 L11.8 -7.25 M11.9 -7.3 L13.45 -8.05 5.05 -8.25 M-8.65 -15.35 L-9.6 -15.35 M48.45 11.5 L49.75 10.0 M46.55 12.9 L44.85 13.7 M37.95 14.6 L37.95 10.45 M-82.25 -7.55 L-82.2 -7.7 -81.75 -8.35 M-82.3 -7.3 Q-82.7 -5.85 -82.0 -3.0 M-74.3 -6.65 L-74.3 -7.3 M-74.35 -6.35 L-74.3 -6.65 M-78.65 -6.7 L-78.65 -6.4 -78.45 -4.4 M-53.95 -4.05 L-60.4 -4.05 M-2.0 -15.35 L-3.55 -15.35 M-17.3 -15.35 L-18.85 -15.35 M-17.3 -11.15 L-18.85 -11.25 M-2.0 -11.15 L-3.55 -11.25 M-1.75 0.05 L-1.75 0.7 M-9.6 -11.2 L-11.15 -11.2 M-3.15 1.75 L-3.15 0.7 M-9.15 1.75 L-9.15 0.7 M-10.6 1.75 L-10.6 0.7 M-16.7 0.7 L-16.7 1.75 M-18.15 1.75 L-18.15 0.7" fill="none" stroke="#000000" stroke-linecap="butt" stroke-linejoin="miter-clip" stroke-miterlimit="10.0" stroke-opacity="0.6" stroke-width="1.0"/>
    <path d="M3.55 -9.7 Q3.15 -10.75 3.55 -12.05 3.9 -13.1 5.4 -13.65 L6.8 -13.95 Q7.3 -14.0 7.3 -14.5 L7.15 -14.85 6.75 -15.0 4.9 -14.55 Q3.05 -13.85 2.55 -12.35 2.1 -10.95 2.45 -9.7" fill="none" stroke="#000000" stroke-linecap="round" stroke-linejoin="miter-clip" stroke-miterlimit="10.0" stroke-opacity="0.6" stroke-width="1.0"/>
    <path d="M2.45 -9.7 L2.6 -9.2 3.0 -8.5 Q3.6 -7.7 4.55 -7.3" fill="none" stroke="#000000" stroke-linecap="round" stroke-linejoin="miter-clip" stroke-miterlimit="10.0" stroke-opacity="0.6" stroke-width="1.0"/>
    <path d="M4.55 -8.5 Q3.95 -8.85 3.6 -9.6 L3.55 -9.7" fill="none" stroke="#000000" stroke-linecap="butt" stroke-linejoin="miter-clip" stroke-miterlimit="10.0" stroke-opacity="0.6" stroke-width="1.0"/>
    <path d="M3.55 -9.7 L11.3 -10.05 39.95 -11.0 Q67.3 -12.25 72.65 -14.7 78.1 -17.25 81.1 -20.1 L82.6 -21.8 82.95 -22.4 83.1 -24.65 Q83.5 -26.9 84.55 -26.85 L84.65 -26.8 84.95 -25.9 Q85.45 -23.55 85.7 -16.55 86.05 -7.0 85.9 1.05 85.75 10.25 85.05 11.1 84.4 11.8 83.95 9.85 L83.6 7.7 Q82.75 6.0 80.55 4.05 76.15 0.25 69.55 -0.9 L50.8 -2.5 Q52.4 1.05 51.35 6.05 50.85 8.3 49.75 10.0 L51.35 11.8 53.7 9.0 Q56.1 6.35 56.05 6.9 55.85 8.45 53.4 11.5 50.2 15.5 46.4 15.95 L45.5 15.8 Q44.6 15.45 44.85 14.65 L44.85 13.7 43.9 14.0 40.3 14.6 Q39.25 16.05 37.1 16.4 L0.8 16.4 0.25 16.4" fill="none" stroke="#000000" stroke-linecap="round" stroke-linejoin="miter-clip" stroke-miterlimit="10.0" stroke-width="1.0"/>
    <path d="M0.25 -9.6 L2.45 -9.7" fill="none" stroke="#000000" stroke-linecap="butt" stroke-linejoin="miter-clip" stroke-miterlimit="10.0" stroke-width="1.0"/>
  </g>
</svg>
