<?xml version="1.0" encoding="UTF-8" standalone="no"?>
<svg xmlns:xlink="http://www.w3.org/1999/xlink" height="681.0px" width="4002.9px" xmlns="http://www.w3.org/2000/svg">
  <g transform="matrix(1.0, 0.0, 0.0, 1.0, 2001.5, 340.5)">
    <path d="M1561.25 227.5 L1561.25 -165.0 1550.0 -165.0 1550.0 -337.5 1550.0 -165.0 1393.75 -165.0 1393.75 -337.5 1393.75 -165.0 1237.5 -165.0 1237.5 -337.5 1237.5 -165.0 1086.25 -165.0 1086.25 227.5 1067.5 227.5 1067.5 -337.5 1237.5 -337.5 1393.75 -337.5 1550.0 -337.5 1698.75 -337.5 1698.75 227.5 1561.25 227.5 M-1690.0 227.5 L-1690.0 -337.5 -1057.5 -337.5 -1057.5 227.5 -1072.5 227.5 -1072.5 -175.0 -1212.5 -175.0 -1212.5 -335.0 -1212.5 -175.0 -1368.75 -175.0 -1525.0 -175.0 -1546.25 -175.0 -1546.25 227.5 -1690.0 227.5 M-862.5 227.5 L-862.5 -337.5 -400.0 -337.5 -400.0 -340.0 -305.0 -340.0 -305.0 -337.5 295.0 -337.5 295.0 -340.0 391.25 -340.0 391.25 -337.5 872.5 -337.5 872.5 227.5 820.0 227.5 820.0 -147.5 642.5 -147.5 820.0 -147.5 820.0 227.5 642.5 227.5 642.5 -147.5 616.25 -147.5 391.25 -147.5 391.25 -181.25 820.0 -181.25 820.0 -291.25 391.25 -291.25 391.25 -337.5 391.25 -291.25 820.0 -291.25 820.0 -181.25 391.25 -181.25 391.25 -147.5 391.25 227.5 295.0 227.5 295.0 -147.5 107.5 -147.5 -130.0 -147.5 -305.0 -147.5 -305.0 -181.25 295.0 -181.25 295.0 -147.5 295.0 -181.25 -305.0 -181.25 -305.0 -147.5 -304.95 227.5 -400.0 227.5 -400.0 -147.5 -617.5 -147.5 -720.0 -147.5 -816.25 -147.5 -816.25 227.5 -816.25 -147.5 -720.0 -147.5 -720.0 227.5 -816.25 227.5 -862.5 227.5 M295.0 -337.5 L295.0 -291.25 -305.0 -291.25 -305.0 -337.5 -305.0 -291.25 295.0 -291.25 295.0 -337.5 M391.25 -181.25 L391.25 -291.25 391.25 -181.25 M295.0 -291.25 L295.0 -181.25 295.0 -291.25 M-400.0 -291.25 L-400.0 -181.25 -400.0 -147.5 -400.0 -181.25 -816.25 -181.25 -816.25 -291.25 -400.0 -291.25 -400.0 -337.5 -400.0 -291.25 -816.25 -291.25 -816.25 -181.25 -400.0 -181.25 -400.0 -291.25 M-305.0 -181.25 L-305.0 -291.25 -305.0 -181.25 M-1368.75 -335.0 L-1368.75 -175.0 -1368.75 -335.0 M-1525.0 -335.0 L-1525.0 -175.0 -1525.0 -335.0" fill="#ffffff" fill-opacity="0.0" fill-rule="evenodd" stroke="none"/>
    <path d="M1550.0 -165.0 L1561.25 -165.0 1561.25 227.5 1698.75 227.5 1856.25 227.5 2000.0 340.0 0.0 340.0 -2000.0 340.0 -1850.0 227.5 -1690.0 227.5 -1546.25 227.5 -1546.25 -175.0 -1525.0 -175.0 -1368.75 -175.0 -1212.5 -175.0 -1072.5 -175.0 -1072.5 227.5 -1057.5 227.5 -862.5 227.5 -816.25 227.5 -720.0 227.5 -617.5 227.5 -400.0 227.5 -617.5 227.5 -720.0 227.5 -720.0 -147.5 -617.5 -147.5 -400.0 -147.5 -400.0 227.5 -304.95 227.5 -130.0 227.5 107.5 227.5 295.0 227.5 107.5 227.5 -130.0 227.5 -304.95 227.5 -305.0 -147.5 -130.0 -147.5 107.5 -147.5 295.0 -147.5 295.0 227.5 391.25 227.5 391.25 -147.5 616.25 -147.5 642.5 -147.5 642.5 227.5 820.0 227.5 872.5 227.5 1067.5 227.5 1086.25 227.5 1086.25 -165.0 1237.5 -165.0 1393.75 -165.0 1550.0 -165.0 1550.0 227.5 1550.0 -165.0 M1561.25 227.5 L1550.0 227.5 1561.25 227.5 M1393.75 227.5 L1393.75 -165.0 1393.75 227.5 1550.0 227.5 1393.75 227.5 1237.5 227.5 1393.75 227.5 M1237.5 227.5 L1237.5 -165.0 1237.5 227.5 1086.25 227.5 1237.5 227.5 M391.25 227.5 L616.25 227.5 642.5 227.5 616.25 227.5 391.25 227.5 M145.0 72.5 L145.0 15.0 145.0 72.5 M616.25 227.5 L616.25 -147.5 616.25 227.5 M107.5 227.5 L107.5 -147.5 107.5 227.5 M-1212.5 227.5 L-1212.5 -175.0 -1212.5 227.5 -1072.5 227.5 -1212.5 227.5 -1368.75 227.5 -1212.5 227.5 M-167.5 72.5 L-167.5 15.0 -167.5 72.5 M-83.75 72.5 L-83.75 15.0 -83.75 72.5 M-130.0 227.5 L-130.0 -147.5 -130.0 227.5 M-617.5 227.5 L-617.5 -147.5 -617.5 227.5 M-1525.0 227.5 L-1546.25 227.5 -1525.0 227.5 -1525.0 -175.0 -1525.0 227.5 -1368.75 227.5 -1525.0 227.5 M-1368.75 -175.0 L-1368.75 227.5 -1368.75 -175.0" fill="#000000" fill-opacity="0.4" fill-rule="evenodd" stroke="none"/>
    <path d="M1561.25 227.5 L1698.75 227.5 1698.75 -337.5 1550.0 -337.5 1393.75 -337.5 1237.5 -337.5 1067.5 -337.5 1067.5 227.5 1086.25 227.5 1237.5 227.5 1393.75 227.5 1550.0 227.5 1561.25 227.5 M1698.75 227.5 L1856.25 227.5 2000.0 340.0 0.0 340.0 -2000.0 340.0 -1850.0 227.5 -1690.0 227.5 -1690.0 -337.5 -1057.5 -337.5 -1057.5 227.5 -862.5 227.5 -862.5 -337.5 -400.0 -337.5 -400.0 -340.0 -305.0 -340.0 -305.0 -337.5 295.0 -337.5 295.0 -340.0 391.25 -340.0 391.25 -337.5 872.5 -337.5 872.5 227.5 1067.5 227.5 M391.25 -337.5 L391.25 -291.25 820.0 -291.25 820.0 -181.25 391.25 -181.25 391.25 -147.5 616.25 -147.5 642.5 -147.5 820.0 -147.5 820.0 227.5 872.5 227.5 M-305.0 -337.5 L-305.0 -291.25 295.0 -291.25 295.0 -337.5 M295.0 -147.5 L295.0 -181.25 -305.0 -181.25 -305.0 -147.5 -130.0 -147.5 107.5 -147.5 295.0 -147.5 295.0 227.5 391.25 227.5 391.25 -147.5 M295.0 -181.25 L295.0 -291.25 M391.25 -291.25 L391.25 -181.25 M642.5 227.5 L616.25 227.5 391.25 227.5 M295.0 227.5 L107.5 227.5 -130.0 227.5 -304.95 227.5 -400.0 227.5 -617.5 227.5 -720.0 227.5 -816.25 227.5 -862.5 227.5 M642.5 227.5 L820.0 227.5 M-400.0 -147.5 L-400.0 -181.25 -816.25 -181.25 -816.25 -291.25 -400.0 -291.25 -400.0 -337.5 M-400.0 -181.25 L-400.0 -291.25 M-720.0 -147.5 L-617.5 -147.5 -400.0 -147.5 -400.0 227.5 M-305.0 -291.25 L-305.0 -181.25 M-1072.5 227.5 L-1057.5 227.5 M-1212.5 227.5 L-1072.5 227.5 M-816.25 227.5 L-816.25 -147.5 -720.0 -147.5 M-305.0 -147.5 L-304.95 227.5 M-1546.25 227.5 L-1525.0 227.5 -1368.75 227.5 -1212.5 227.5 M-1690.0 227.5 L-1546.25 227.5" fill="none" stroke="#000000" stroke-linecap="butt" stroke-linejoin="miter-clip" stroke-miterlimit="10.0" stroke-width="1.0"/>
    <path d="M1550.0 -337.5 L1550.0 -165.0 1550.0 227.5 M1393.75 -337.5 L1393.75 -165.0 1393.75 227.5 M1237.5 -337.5 L1237.5 -165.0 1237.5 227.5 M145.0 15.0 L145.0 72.5 M107.5 -147.5 L107.5 227.5 M616.25 -147.5 L616.25 227.5 M-1212.5 -335.0 L-1212.5 -175.0 -1212.5 227.5 M-83.75 15.0 L-83.75 72.5 M-167.5 15.0 L-167.5 72.5 M-617.5 -147.5 L-617.5 227.5 M-130.0 -147.5 L-130.0 227.5 M-1525.0 -175.0 L-1525.0 -335.0 M-1368.75 -175.0 L-1368.75 -335.0 M-1525.0 227.5 L-1525.0 -175.0 M-1368.75 227.5 L-1368.75 -175.0" fill="none" stroke="#000000" stroke-linecap="butt" stroke-linejoin="miter-clip" stroke-miterlimit="10.0" stroke-width="1.0"/>
  </g>
</svg>
