<?xml version="1.0" encoding="UTF-8" standalone="no"?>
<svg xmlns:xlink="http://www.w3.org/1999/xlink" height="24.6px" width="49.3px" xmlns="http://www.w3.org/2000/svg">
  <g transform="matrix(1.0, 0.0, 0.0, 1.0, 24.65, 12.3)">
    <path d="M-10.65 -7.3 L-10.65 -11.8 -3.35 -11.8 -3.35 -7.3 24.15 -7.3 24.15 8.45 -3.35 8.45 -3.35 11.8 -10.65 11.8 -10.65 8.45 -24.15 8.45 -24.15 -7.3 -10.65 -7.3 -10.65 8.45 -10.65 -7.3 M-3.35 -7.3 L-3.35 8.45 -3.35 -7.3" fill="#ffffff" fill-opacity="0.0" fill-rule="evenodd" stroke="none"/>
    <path d="M-10.65 -7.3 L-10.65 -11.8 -3.35 -11.8 -3.35 -7.3 24.15 -7.3 24.15 8.45 -3.35 8.45 -3.35 11.8 -10.65 11.8 -10.65 8.45 -24.15 8.45 -24.15 -7.3 -10.65 -7.3 -10.65 8.45 M-3.35 8.45 L-3.35 -7.3" fill="none" stroke="#000000" stroke-linecap="round" stroke-linejoin="miter-clip" stroke-miterlimit="10.0" stroke-width="1.0"/>
  </g>
</svg>
