<?xml version="1.0" encoding="UTF-8" standalone="no"?>
<svg xmlns:xlink="http://www.w3.org/1999/xlink" height="325.55px" width="137.0px" xmlns="http://www.w3.org/2000/svg">
  <g transform="matrix(1.0, 0.0, 0.0, 1.0, 67.3, 160.95)">
    <path d="M-25.65 12.15 L-26.35 27.9 Q-26.75 46.5 -25.25 54.4 -24.2 59.75 -23.35 70.15 L-21.6 86.85 -20.45 93.3 -26.25 91.85 Q-28.4 91.2 -29.9 87.05 L-31.0 83.0 Q-34.65 69.8 -30.5 39.5 -29.2 30.0 -27.25 20.0 L-25.65 12.15 M1.0 128.2 L3.65 126.9 6.2 125.35 Q1.35 126.0 -1.9 127.8 -0.45 126.4 1.6 125.7 L5.6 124.5 Q7.7 123.7 10.65 121.85 L15.4 118.45 Q16.9 117.25 18.8 114.2 20.8 110.95 22.05 109.85 23.5 108.5 24.9 107.5 33.4 105.9 33.35 105.45 L34.9 108.45 Q36.2 112.05 34.65 115.25 L33.25 118.45 30.7 124.05 Q28.25 129.2 26.0 132.3 23.8 135.3 17.95 139.75 15.6 141.5 13.85 143.0 L13.85 142.65 13.95 140.4 11.35 142.9 12.0 140.9 12.7 138.9 11.25 140.05 Q11.95 139.0 13.3 137.7 L15.55 135.55 12.6 136.3 9.75 137.05 Q11.9 135.4 14.6 134.45 L12.0 134.85 9.4 135.65 11.7 134.25 13.95 132.75 Q5.35 133.3 2.75 136.2 L5.0 131.95 1.8 133.65 3.75 132.0 Q4.4 131.45 5.8 130.45 4.15 130.75 2.0 132.05 0.2 133.05 -1.4 134.45 -0.35 132.85 2.2 130.95 L6.0 127.65 Q5.0 127.65 3.8 128.2 L1.8 129.2 Q2.4 128.65 3.9 127.8 L6.0 126.35 3.5 127.25 1.0 128.2 M13.75 144.75 L13.75 144.2 14.6 143.9 13.75 144.75" fill="#000000" fill-opacity="0.4" fill-rule="evenodd" stroke="none"/>
    <path d="M-25.65 12.15 L-25.6 10.85 Q-26.0 8.45 -28.7 -1.1 -31.05 -9.3 -33.1 -19.8 -35.4 -31.8 -35.2 -36.5 L-33.5 -68.1 -34.85 -75.3 Q-35.1 -78.45 -26.65 -93.5 -33.3 -100.9 -40.0 -101.9 -42.1 -102.25 -43.95 -101.9 L-45.4 -101.45 Q-45.65 -100.7 -46.35 -99.8 -47.65 -98.0 -49.6 -97.15 -51.6 -96.3 -53.85 -96.0 L-55.7 -95.85 -57.45 -99.4 -59.95 -99.15 Q-61.5 -102.3 -64.6 -105.9 -66.6 -108.1 -66.8 -109.35 L-66.65 -110.15 -59.25 -121.8 -60.6 -128.05 Q-59.45 -129.95 -58.45 -132.25 -56.55 -136.85 -57.5 -138.8 -58.25 -140.3 -55.15 -141.4 L-51.9 -142.15 -39.15 -159.65 Q-36.2 -161.45 -24.4 -159.15 L-13.2 -156.5 Q4.3 -153.5 16.9 -147.75 26.65 -143.3 30.7 -138.85 33.35 -135.9 37.45 -127.7 L41.0 -120.05 39.75 -120.05 Q43.85 -111.55 47.45 -102.5 54.6 -84.8 56.0 -73.95 57.55 -62.7 52.0 -35.5 49.25 -21.95 46.2 -10.65 L47.05 -5.35 Q48.0 1.1 48.25 6.95 48.8 20.6 45.5 27.75 L46.2 25.95 Q41.4 18.7 38.35 15.65 33.35 10.55 27.1 8.75 23.2 7.55 19.6 7.25 15.0 6.85 12.05 7.9 10.2 8.65 7.95 10.3 L4.1 13.1 -0.4 15.5 Q-3.6 16.95 -5.0 17.9 -7.8 19.7 -8.8 21.95 -9.75 24.15 -9.3 27.5 L-7.75 34.7 Q-6.7 39.15 -6.6 42.0 L-5.5 63.9 -5.4 72.25 Q-5.35 77.3 -4.6 80.6 L-3.15 86.65 Q-2.2 90.3 -1.8 92.65 -1.7 88.55 1.4 84.2 4.6 79.65 8.4 78.85 11.05 78.35 15.1 79.5 17.05 80.05 21.35 81.85 22.95 82.45 31.35 86.45 39.2 89.5 40.35 86.25 40.25 87.25 41.05 88.0 L42.55 89.65 43.35 92.05 Q43.65 94.0 43.9 94.6 44.85 97.15 49.55 104.45 53.4 111.3 51.95 114.5 51.4 115.65 49.6 117.25 L48.3 118.45 47.05 120.05 Q45.7 122.65 44.65 127.5 L42.8 135.25 Q42.0 137.6 41.45 141.0 L40.55 146.7 Q39.85 150.2 36.85 153.1 34.05 155.85 30.15 157.25 L30.55 155.85 Q29.2 156.65 27.6 158.05 L24.8 160.45 Q25.7 156.55 31.6 151.45 28.05 153.55 26.35 154.9 23.3 157.3 22.8 159.65 L23.2 157.45 23.4 155.2 21.65 157.35 Q20.7 158.65 20.35 159.8 L20.85 157.05 21.4 154.25 19.4 157.35 17.4 160.45 Q17.25 158.5 17.45 155.25 L17.65 150.1 15.05 155.3 Q15.35 153.15 15.8 151.75 16.3 150.05 17.3 148.4 L14.3 151.25 16.4 148.4 18.55 145.6 14.6 148.2 17.25 144.65 15.2 146.15 13.0 147.5 15.15 144.55 11.95 146.6 13.75 144.75 14.6 143.9 13.75 144.2 Q11.2 145.2 9.65 146.9 11.05 145.3 13.85 143.0 15.6 141.5 17.95 139.75 23.8 135.3 26.0 132.3 28.25 129.2 30.7 124.05 L33.25 118.45 34.65 115.25 Q36.2 112.05 34.9 108.45 L33.35 105.45 Q33.4 105.9 24.9 107.5 L24.5 107.55 16.2 108.9 12.9 109.55 12.85 109.55 12.75 109.6 9.8 110.55 6.85 111.2 9.8 111.25 5.9 111.85 1.7 111.95 Q3.0 112.15 4.8 112.9 L7.85 114.1 Q3.95 113.4 -4.15 114.0 -3.75 114.1 -3.0 114.65 L-1.8 115.4 -4.65 115.05 Q-6.2 114.55 -7.45 113.65 L-6.85 114.95 -6.35 116.3 -9.85 113.3 -8.65 115.05 -7.5 116.85 -12.9 111.2 -11.35 113.75 -9.6 116.25 Q-17.25 108.3 -20.45 93.3 L-21.6 86.85 -23.35 70.15 Q-24.2 59.75 -25.25 54.4 -26.75 46.5 -26.35 27.9 L-25.65 12.15 M6.15 111.2 L6.85 111.2 6.15 111.2 M-26.0 -71.65 L-30.4 -74.25 -27.4 -72.3 -26.0 -71.65 -24.85 -71.0 Q-18.0 -67.8 -11.4 -67.8 -5.05 -67.8 1.85 -70.6 1.7 -68.9 2.4 -65.85 L3.6 -60.65 4.35 -55.35 Q4.8 -51.85 4.3 -50.1 3.05 -45.5 -3.2 -41.7 -8.55 -39.1 -11.45 -37.4 -8.5 -38.95 -4.0 -40.65 3.15 -43.3 5.6 -44.6 7.8 -42.7 6.55 -36.3 5.4 -30.5 3.25 -28.1 0.75 -25.25 -5.85 -22.7 -13.05 -19.9 -15.4 -17.85 -8.2 -17.75 -1.6 -19.85 5.5 -22.05 10.7 -26.35 9.4 -17.15 1.1 -9.1 -1.35 -6.75 -6.6 -2.45 -12.0 1.9 -14.4 4.3 -11.8 4.7 -7.4 2.85 -4.9 1.8 -0.75 -0.4 8.7 -4.9 12.35 -7.4 19.95 -12.6 21.3 -18.6 22.35 -23.15 21.2 -29.8 L18.9 -40.9 16.5 -51.1 Q14.75 -57.7 14.2 -61.25 12.95 -70.1 10.3 -77.65 L8.4 -76.85 8.35 -78.7 Q0.15 -73.05 -5.2 -71.2 -10.6 -69.3 -17.5 -69.85 -22.3 -70.2 -26.0 -71.65 M14.0 109.05 L16.2 108.9 14.0 109.05 M12.85 109.55 L12.95 109.5 9.55 109.85 12.95 109.5 12.85 109.55 M12.75 109.6 L9.55 109.85 12.75 109.6 M-47.65 -101.35 Q-47.25 -99.75 -47.85 -98.45 -46.1 -99.85 -45.45 -101.6 L-44.0 -102.05 Q-42.1 -102.4 -39.95 -102.05 -33.15 -101.05 -26.45 -93.4 -24.85 -96.4 -23.7 -99.35 -23.6 -101.6 -23.85 -111.45 L-24.2 -120.85 Q-24.85 -117.9 -26.7 -115.4 L-28.45 -113.45 Q-32.45 -111.75 -40.45 -107.5 L-47.65 -103.6 -47.65 -101.35" fill="#ffffff" fill-opacity="0.0" fill-rule="evenodd" stroke="none"/>
    <path d="M-26.0 -71.65 Q-22.3 -70.2 -17.5 -69.85 -10.6 -69.3 -5.2 -71.2 0.15 -73.05 8.35 -78.7 L8.4 -76.85 10.3 -77.65 Q12.95 -70.1 14.2 -61.25 14.75 -57.7 16.5 -51.1 L18.9 -40.9 21.2 -29.8 Q22.35 -23.15 21.3 -18.6 19.95 -12.6 12.35 -7.4 8.7 -4.9 -0.75 -0.4 -4.9 1.8 -7.4 2.85 -11.8 4.7 -14.4 4.3 -12.0 1.9 -6.6 -2.45 -1.35 -6.75 1.1 -9.1 9.4 -17.15 10.7 -26.35 5.5 -22.05 -1.6 -19.85 -8.2 -17.75 -15.4 -17.85 -13.05 -19.9 -5.85 -22.7 0.75 -25.25 3.25 -28.1 5.4 -30.5 6.55 -36.3 7.8 -42.7 5.6 -44.6 3.15 -43.3 -4.0 -40.65 -8.5 -38.95 -11.45 -37.4 -8.55 -39.1 -3.2 -41.7 3.05 -45.5 4.3 -50.1 4.8 -51.85 4.35 -55.35 L3.6 -60.65 2.4 -65.85 Q1.7 -68.9 1.85 -70.6 -5.05 -67.8 -11.4 -67.8 -18.0 -67.8 -24.85 -71.0 L-26.0 -71.65 -27.4 -72.3 -30.4 -74.25 -26.0 -71.65 M30.15 157.25 Q34.05 155.85 36.85 153.1 39.85 150.2 40.55 146.7 L41.45 141.0 Q42.0 137.6 42.8 135.25 L44.65 127.5 Q45.7 122.65 47.05 120.05 L48.3 118.45 49.6 117.25 Q51.4 115.65 51.95 114.5 53.4 111.3 49.55 104.45 44.85 97.15 43.9 94.6 43.65 94.0 43.35 92.05 L42.55 89.65 41.05 88.0 Q40.25 87.25 40.35 86.25 39.2 89.5 31.35 86.45 22.95 82.45 21.35 81.85 17.05 80.05 15.1 79.5 11.05 78.35 8.4 78.85 4.6 79.65 1.4 84.2 -1.7 88.55 -1.8 92.65 -2.2 90.3 -3.15 86.65 L-4.6 80.6 Q-5.35 77.3 -5.4 72.25 L-5.5 63.9 -6.6 42.0 Q-6.7 39.15 -7.75 34.7 L-9.3 27.5 Q-9.75 24.15 -8.8 21.95 -7.8 19.7 -5.0 17.9 -3.6 16.95 -0.4 15.5 L4.1 13.1 7.95 10.3 Q10.2 8.65 12.05 7.9 15.0 6.85 19.6 7.25 23.2 7.55 27.1 8.75 33.35 10.55 38.35 15.65 41.4 18.7 46.2 25.95 L45.5 27.75 42.45 32.25 Q35.85 38.6 26.95 53.3 L19.35 66.65 Q28.05 64.9 34.1 69.85 37.1 72.3 38.4 75.1 48.4 73.85 52.6 75.05 54.65 75.65 54.75 76.45 54.95 97.45 61.45 105.55 L65.55 109.4 Q67.15 110.7 66.65 112.2 65.25 116.55 62.6 121.7 L62.2 122.45 56.7 132.25 Q53.4 138.05 52.25 142.0 L50.95 147.1 Q50.05 151.1 50.9 151.95 L49.8 151.3 48.65 150.7 Q49.15 152.55 48.9 155.4 L47.35 153.25 Q46.45 151.85 45.6 151.4 44.85 153.45 44.3 156.65 44.15 156.05 43.6 155.2 L42.8 153.85 42.0 155.9 41.2 158.05 Q41.2 157.05 40.2 155.1 39.5 156.5 38.2 157.8 L35.6 159.6 36.65 157.65 37.4 155.55 Q31.6 158.6 28.7 159.85 L29.4 158.55 29.45 158.5 29.65 158.2 29.9 157.75 30.1 157.25 30.15 157.25 29.9 157.75 30.15 157.25 M-47.65 -101.35 L-47.65 -103.6 -40.45 -107.5 Q-32.45 -111.75 -28.45 -113.45 L-26.7 -115.4 Q-24.85 -117.9 -24.2 -120.85 L-23.85 -111.45 Q-23.6 -101.6 -23.7 -99.35 -24.85 -96.4 -26.45 -93.4 -33.15 -101.05 -39.95 -102.05 -42.1 -102.4 -44.0 -102.05 L-45.45 -101.6 Q-46.1 -99.85 -47.85 -98.45 -47.25 -99.75 -47.65 -101.35" fill="#000000" fill-opacity="0.2" fill-rule="evenodd" stroke="none"/>
    <path d="M45.5 27.75 Q48.8 20.6 48.25 6.95 48.0 1.1 47.05 -5.35 L46.2 -10.65 Q49.25 -21.95 52.0 -35.5 57.55 -62.7 56.0 -73.95 54.6 -84.8 47.45 -102.5 43.85 -111.55 39.75 -120.05 L41.0 -120.05 37.45 -127.7 Q33.35 -135.9 30.7 -138.85 26.65 -143.3 16.9 -147.75 4.3 -153.5 -13.2 -156.5 L-24.4 -159.15 Q-36.2 -161.45 -39.15 -159.65 L-51.9 -142.15 -55.15 -141.4 Q-58.25 -140.3 -57.5 -138.8 -56.55 -136.85 -58.45 -132.25 -59.45 -129.95 -60.6 -128.05 L-59.25 -121.8 -66.65 -110.15 -66.8 -109.35 Q-66.6 -108.1 -64.6 -105.9 -61.5 -102.3 -59.95 -99.15 L-57.45 -99.4 -55.7 -95.85 -53.85 -96.0 Q-51.6 -96.3 -49.6 -97.15 -47.65 -98.0 -46.35 -99.8 -45.65 -100.7 -45.4 -101.45 L-43.95 -101.9 Q-42.1 -102.25 -40.0 -101.9 -33.3 -100.9 -26.65 -93.5 -35.1 -78.45 -34.85 -75.3 L-33.5 -68.1 -35.2 -36.5 Q-35.4 -31.8 -33.1 -19.8 -31.05 -9.3 -28.7 -1.1 -26.0 8.45 -25.6 10.85 L-25.65 12.15 -26.35 27.9 Q-26.75 46.5 -25.25 54.4 -24.2 59.75 -23.35 70.15 L-21.6 86.85 -20.45 93.3 Q-17.25 108.3 -9.6 116.25 M9.8 111.25 L6.85 111.2 6.15 111.2 M50.9 151.95 Q50.05 151.1 50.95 147.1 L52.25 142.0 Q53.4 138.05 56.7 132.25 L62.2 122.45 62.6 121.7 Q65.25 116.55 66.65 112.2 67.15 110.7 65.55 109.4 L61.45 105.55 Q54.95 97.45 54.75 76.45 54.65 75.65 52.6 75.05 48.4 73.85 38.4 75.1 37.1 72.3 34.1 69.85 28.05 64.9 19.35 66.65 L26.95 53.3 Q35.85 38.6 42.45 32.25 L45.5 27.75 M1.0 128.2 L3.5 127.25 6.0 126.35 3.9 127.8 Q2.4 128.65 1.8 129.2 M13.85 143.0 Q15.6 141.5 17.95 139.75 23.8 135.3 26.0 132.3 28.25 129.2 30.7 124.05 L33.25 118.45 34.65 115.25 Q36.2 112.05 34.9 108.45 L33.35 105.45 Q33.4 105.9 24.9 107.5 L24.5 107.55 16.2 108.9 12.9 109.55 12.85 109.55 12.75 109.6 9.55 109.85 M-25.65 12.15 L-27.25 20.0 Q-29.2 30.0 -30.5 39.5 -34.65 69.8 -31.0 83.0 L-29.9 87.05 Q-28.4 91.2 -26.25 91.85 L-20.45 93.3" fill="none" stroke="#000000" stroke-linecap="butt" stroke-linejoin="miter-clip" stroke-miterlimit="10.0" stroke-width="1.0"/>
    <path d="M-9.6 116.25 L-11.35 113.75 -12.9 111.2 -7.5 116.85 -8.65 115.05 -9.85 113.3 -6.35 116.3 -6.85 114.95 -7.45 113.65 Q-6.2 114.55 -4.65 115.05 L-1.8 115.4 -3.0 114.65 Q-3.75 114.1 -4.15 114.0 3.95 113.4 7.85 114.1 L4.8 112.9 Q3.0 112.15 1.7 111.95 L5.9 111.85 9.8 111.25 M30.15 157.25 L29.9 157.75 29.65 158.2 29.45 158.5 29.4 158.55 28.7 159.85 Q31.6 158.6 37.4 155.55 L36.65 157.65 35.6 159.6 38.2 157.8 Q39.5 156.5 40.2 155.1 41.2 157.05 41.2 158.05 L42.0 155.9 42.8 153.85 43.6 155.2 Q44.15 156.05 44.3 156.65 44.85 153.45 45.6 151.4 46.45 151.85 47.35 153.25 L48.9 155.4 Q49.15 152.55 48.65 150.7 L49.8 151.3 50.9 151.95 M24.9 107.5 Q23.5 108.5 22.05 109.85 20.8 110.95 18.8 114.2 16.9 117.25 15.4 118.45 L10.65 121.85 Q7.7 123.7 5.6 124.5 L1.6 125.7 Q-0.45 126.4 -1.9 127.8 1.35 126.0 6.2 125.35 L3.65 126.9 1.0 128.2 M1.8 129.2 L3.8 128.2 Q5.0 127.65 6.0 127.65 L2.2 130.95 Q-0.35 132.85 -1.4 134.45 0.2 133.05 2.0 132.05 4.15 130.75 5.8 130.45 4.4 131.45 3.75 132.0 L1.8 133.65 5.0 131.95 2.75 136.2 Q5.35 133.3 13.95 132.75 L11.7 134.25 9.4 135.65 12.0 134.85 14.6 134.45 Q11.9 135.4 9.75 137.05 L12.6 136.3 15.55 135.55 13.3 137.7 Q11.95 139.0 11.25 140.05 L12.7 138.9 12.0 140.9 11.35 142.9 13.95 140.4 13.85 142.65 13.85 143.0 Q11.05 145.3 9.65 146.9 L9.4 147.15 M12.75 109.6 L9.8 110.55 6.85 111.2 M9.55 109.85 L12.95 109.5 12.85 109.55 M16.2 108.9 L14.0 109.05 M13.75 144.2 L13.75 144.75 14.6 143.9 13.75 144.2 Q11.2 145.2 9.65 146.9 M13.75 144.75 L11.95 146.6 15.15 144.55 13.0 147.5 15.2 146.15 17.25 144.65 14.6 148.2 18.55 145.6 16.4 148.4 14.3 151.25 17.3 148.4 Q16.3 150.05 15.8 151.75 15.35 153.15 15.05 155.3 L17.65 150.1 17.45 155.25 Q17.25 158.5 17.4 160.45 L19.4 157.35 21.4 154.25 20.85 157.05 20.35 159.8 Q20.7 158.65 21.65 157.35 L23.4 155.2 23.2 157.45 22.8 159.65 Q23.3 157.3 26.35 154.9 28.05 153.55 31.6 151.45 25.7 156.55 24.8 160.45 L27.6 158.05 Q29.2 156.65 30.55 155.85 L30.15 157.25" fill="none" stroke="#000000" stroke-linecap="butt" stroke-linejoin="miter-clip" stroke-miterlimit="10.0" stroke-opacity="0.6" stroke-width="1.0"/>
    <path d="M-52.6 -111.75 Q-58.5 -113.15 -59.8 -113.05 -60.6 -112.95 -61.85 -111.2 L-63.0 -109.5 -61.95 -111.45 Q-60.65 -113.5 -59.4 -113.8 -58.1 -114.1 -55.2 -112.95 -53.8 -112.4 -52.6 -111.75" fill="#ffffff" fill-opacity="0.6" fill-rule="evenodd" stroke="none"/>
  </g>
</svg>
