<?xml version="1.0" encoding="UTF-8" standalone="no"?>
<svg xmlns:xlink="http://www.w3.org/1999/xlink" height="224.7px" width="86.1px" xmlns="http://www.w3.org/2000/svg">
  <g transform="matrix(1.0, 0.0, 0.0, 1.0, 43.05, 112.35)">
    <path d="M35.95 10.85 L36.25 10.75 Q37.05 13.85 37.5 20.5 L37.95 25.8 Q38.3 28.8 39.0 31.0 40.0 29.4 40.15 26.55 L40.05 21.5 39.9 18.8 Q39.85 15.45 39.05 10.2 38.3 5.6 38.2 3.1 L38.7 3.0 40.0 7.75 41.3 12.55 Q40.65 4.3 38.25 -2.7 L37.95 -3.55 38.65 -3.0 Q40.85 -1.2 42.2 3.0 41.85 -0.65 40.35 -4.65 L39.45 -7.0 39.35 -7.25 38.8 -8.4 38.6 -8.9 38.3 -9.55 Q37.05 -12.55 36.5 -14.4 35.4 -18.45 35.45 -20.8 L35.9 -23.1 Q36.6 -25.4 36.45 -25.75 L36.85 -25.95 37.45 -24.25 37.65 -26.3 37.85 -30.8 38.2 -30.85 38.15 -33.35 38.65 -33.4 39.25 -31.2 39.25 -35.75 39.15 -35.75 Q38.25 -38.4 37.4 -44.45 L36.8 -48.25 37.2 -48.35 Q36.65 -50.45 36.45 -52.0 L36.95 -52.05 Q36.6 -53.75 36.55 -54.8 L37.05 -54.85 Q37.35 -53.7 38.05 -52.25 36.65 -57.0 36.55 -60.3 L37.05 -60.4 Q37.6 -59.2 38.5 -58.3 L37.7 -60.2 Q35.65 -64.9 35.05 -67.3 L35.35 -67.4 33.8 -70.6 34.25 -70.95 35.65 -69.8 35.85 -69.6 34.95 -71.45 33.7 -74.05 33.45 -74.95 34.1 -74.3 36.4 -72.2 35.15 -73.8 32.45 -77.45 32.1 -78.0 32.7 -77.85 35.25 -76.9 28.9 -81.5 27.85 -82.25 28.65 -82.25 29.05 -82.3 31.1 -82.2 33.05 -82.0 Q31.7 -83.6 27.2 -86.1 L24.55 -87.65 Q22.25 -89.15 18.15 -90.75 L14.4 -92.35 Q9.2 -94.8 5.65 -94.8 L4.45 -94.75 Q0.45 -94.35 -3.8 -91.8 L-1.95 -91.8 3.45 -91.05 4.0 -90.9 3.45 -90.6 2.45 -89.75 5.15 -89.2 Q9.5 -88.45 11.2 -87.65 L11.1 -87.2 10.05 -87.05 8.8 -86.9 Q10.6 -85.8 13.4 -85.0 15.9 -84.2 18.2 -84.0 L18.15 -83.5 16.45 -83.65 14.05 -83.85 13.7 -83.85 14.85 -82.95 17.65 -80.95 Q19.3 -80.0 20.65 -79.95 L20.65 -79.4 17.7 -79.95 14.85 -80.45 14.45 -80.45 Q15.5 -79.2 17.4 -77.85 L20.95 -75.65 Q25.25 -73.2 27.05 -71.45 L26.7 -71.05 23.9 -73.0 Q26.85 -69.8 28.4 -66.9 L28.0 -66.6 Q27.45 -67.05 26.05 -68.8 L25.4 -69.6 28.4 -64.2 28.0 -63.85 26.45 -65.2 22.05 -68.8 24.7 -65.6 27.05 -62.95 26.65 -62.6 23.85 -65.05 26.05 -61.15 28.25 -57.8 31.95 -52.0 Q33.75 -48.55 33.95 -45.75 L34.0 -45.0 33.5 -45.6 Q31.2 -48.15 29.85 -50.0 30.5 -46.65 31.1 -44.65 L31.45 -43.6 32.25 -40.8 Q32.65 -39.2 32.5 -37.9 L32.4 -37.0 31.9 -38.0 Q32.45 -35.65 32.25 -33.8 L31.75 -33.75 31.2 -35.15 Q31.8 -31.65 31.45 -29.3 L31.4 -28.6 31.0 -29.2 29.7 -32.0 28.6 -34.4 29.2 -30.75 Q30.05 -26.35 29.8 -24.2 L29.7 -23.5 29.3 -24.1 Q28.65 -25.15 28.2 -27.65 L27.8 -29.4 Q27.95 -22.65 29.75 -17.3 L29.85 -17.3 30.05 -16.4 Q30.85 -14.25 31.75 -12.8 L31.35 -12.45 31.0 -12.8 Q32.05 -9.05 33.25 -6.0 L32.8 -5.75 32.05 -6.55 33.85 -2.65 33.1 -3.05 Q31.25 -4.2 28.95 -6.2 32.05 -2.35 32.55 1.2 L32.65 2.0 32.1 1.4 30.25 -0.9 Q31.7 3.35 30.45 6.8 L30.3 7.2 30.05 6.95 Q29.0 6.15 28.5 4.5 L28.45 8.45 27.95 8.5 27.75 8.0 26.85 5.6 Q26.7 8.3 26.1 10.5 L25.85 11.4 25.35 9.3 24.45 6.35 Q23.95 9.15 24.05 12.1 L23.6 12.15 Q23.25 9.4 21.2 4.9 21.55 7.5 21.25 11.25 L20.3 18.0 19.65 22.6 19.15 22.6 19.15 21.35 Q19.25 18.95 19.0 17.8 18.05 19.65 17.3 24.5 L16.9 26.75 16.45 26.7 16.45 22.0 Q15.45 24.35 15.6 26.4 L15.05 26.5 Q14.45 23.7 14.35 20.2 13.95 22.7 13.85 28.0 L13.8 31.55 13.3 31.6 12.5 28.95 12.45 31.0 Q12.4 35.0 12.5 37.0 L12.0 37.1 Q11.75 35.85 11.15 35.2 L10.75 38.8 10.25 38.8 9.8 37.25 Q9.85 44.0 10.15 50.0 L10.45 57.55 Q10.55 58.85 11.2 61.2 L11.85 65.3 Q11.85 67.05 10.9 69.3 L8.95 73.25 Q6.85 77.05 6.4 79.05 6.1 80.35 5.85 83.65 5.6 88.4 4.95 90.25 3.85 93.4 1.05 93.4 L0.3 93.35 Q0.4 94.3 1.25 97.4 L2.3 101.15 4.6 101.3 Q7.35 101.3 8.8 100.45 10.25 99.6 10.75 96.8 11.05 95.25 11.05 92.15 11.05 90.5 12.05 82.7 L13.05 74.75 Q16.45 64.15 17.15 58.15 17.7 53.1 17.6 48.6 17.5 44.0 16.8 41.2 16.1 38.4 18.65 33.85 20.05 31.2 23.25 27.1 L23.55 26.65 23.75 26.8 Q20.45 31.15 19.05 33.6 16.35 38.35 17.05 41.15 17.8 44.1 17.85 48.85 17.9 53.35 17.4 58.15 16.7 64.3 13.3 74.8 L12.3 82.5 Q11.25 90.5 11.25 92.15 L11.0 96.95 Q10.45 99.8 8.9 100.7 7.45 101.55 4.65 101.55 L2.1 101.35 Q0.05 94.55 0.05 93.2 L1.5 85.05 Q2.85 77.7 2.45 76.9 2.0 76.0 1.0 75.85 L0.05 75.85 -1.3 77.95 Q-2.75 81.1 -3.35 86.4 -4.0 91.75 -3.75 95.05 L-3.35 97.3 -2.3 101.65 Q-1.7 106.75 -4.0 110.55 -4.95 111.4 -6.55 111.75 -9.8 112.35 -13.2 109.55 -14.55 99.35 -15.95 96.3 -16.75 94.4 -15.75 86.85 L-14.55 78.95 -14.65 74.45 Q-15.35 71.4 -18.35 74.85 L-22.4 86.1 -21.1 95.1 Q-20.15 104.45 -22.05 106.15 -24.4 108.25 -27.35 108.35 -30.4 108.4 -30.95 106.15 L-32.3 98.2 Q-33.3 91.95 -33.65 90.5 -34.1 88.8 -32.1 80.6 L-29.2 69.75 -28.95 65.15 Q-28.85 63.0 -26.85 60.55 L-27.05 57.4 Q-26.95 53.8 -25.5 51.7 L-22.1 46.25 Q-20.0 42.9 -18.35 41.2 L-14.7 38.55 Q-12.4 37.05 -11.5 35.4 -9.2 31.5 -9.4 24.2 L-9.45 12.5 Q-8.65 6.9 -6.75 3.4 -4.4 -0.95 0.0 -3.1 L-5.9 -10.95 Q-9.2 -15.85 -9.55 -19.8 L-10.9 -37.15 Q-11.55 -50.75 -12.75 -52.9 -13.1 -53.55 -14.5 -54.8 -16.05 -56.15 -17.35 -58.2 L-11.95 -85.1 -7.2 -89.65 Q-1.35 -94.35 4.4 -95.0 L9.65 -94.45 Q11.65 -93.9 14.5 -92.55 15.0 -92.3 19.65 -90.4 22.8 -89.1 24.7 -87.85 26.0 -87.0 29.45 -85.1 32.55 -83.25 33.55 -81.8 L31.1 -81.9 28.65 -82.0 37.05 -75.8 34.85 -76.8 32.65 -77.6 35.4 -74.0 38.1 -70.3 33.95 -74.15 35.2 -71.55 36.45 -68.95 35.2 -69.8 34.05 -70.75 35.45 -67.75 37.05 -64.9 35.35 -67.35 Q35.85 -65.35 37.05 -62.3 L39.15 -57.35 Q37.85 -58.25 36.8 -60.3 36.85 -56.15 39.4 -48.9 L37.95 -51.8 Q37.1 -53.55 36.8 -54.8 36.85 -53.1 37.65 -50.4 L39.0 -46.05 Q37.65 -48.2 36.7 -52.0 36.85 -50.8 37.75 -47.2 38.5 -44.2 38.45 -42.35 L37.85 -45.35 37.05 -48.3 38.05 -41.9 Q38.65 -38.0 39.4 -35.8 39.0 -38.3 39.1 -39.8 39.45 -37.65 39.45 -34.6 L39.45 -29.4 38.45 -33.35 38.45 -28.55 38.05 -30.8 37.95 -26.7 37.7 -22.6 36.7 -25.75 36.25 -23.4 35.65 -20.75 Q35.65 -18.4 36.75 -14.45 37.3 -12.55 38.6 -9.6 L38.65 -9.55 38.9 -8.9 39.6 -7.25 39.7 -7.0 40.6 -4.75 Q42.55 0.6 42.55 5.3 42.05 2.95 41.1 0.9 39.95 -1.6 38.5 -2.8 40.35 2.55 41.15 8.6 41.65 12.2 41.8 16.6 L40.85 11.6 38.45 3.1 Q38.55 5.4 39.4 10.9 40.1 15.85 40.15 18.8 L40.45 25.4 Q40.4 29.65 38.85 31.6 37.85 28.35 37.05 18.4 L36.25 12.4 35.95 10.85 36.25 12.4 Q36.65 15.4 36.45 19.25 L35.6 14.4 Q35.15 11.25 34.7 10.05 L34.5 14.9 34.3 19.7 Q33.55 18.7 33.25 16.85 L33.05 13.6 30.9 24.0 Q30.6 22.55 30.55 20.55 L30.65 17.05 28.7 21.55 26.95 26.1 Q26.65 23.8 27.35 21.6 L27.4 21.5 27.35 21.6 25.65 24.8 23.1 28.45 23.75 26.8 23.9 26.9 Q26.35 23.4 27.1 21.4 L27.4 21.5 27.6 21.6 Q27.05 23.25 27.1 25.0 L27.7 23.45 Q29.3 19.25 30.45 16.95 L30.9 17.05 30.85 18.2 30.95 22.75 32.8 13.6 33.05 13.6 33.25 13.6 33.3 14.5 Q33.45 17.6 34.05 18.8 L34.25 15.0 34.45 10.05 34.95 10.0 Q35.45 11.2 35.9 14.85 L36.25 17.0 Q36.25 13.4 35.75 10.85 L35.95 10.85 M-42.55 -100.9 Q-42.45 -103.6 -41.8 -106.4 -40.55 -111.85 -37.6 -111.85 -32.75 -111.85 -24.2 -110.5 -14.55 -108.95 -16.35 -107.6 L-23.1 -101.95 Q-28.45 -97.5 -30.9 -96.4 -33.35 -95.3 -36.3 -95.3 L-38.7 -95.5 -42.55 -100.9 M-38.05 -103.0 L-39.35 -100.0 -37.35 -98.65 Q-35.1 -97.5 -33.55 -98.2 -31.1 -99.35 -27.3 -102.7 L-33.35 -100.9 -34.5 -102.15 Q-35.35 -103.55 -33.75 -104.25 -31.35 -105.4 -28.65 -105.15 L-30.65 -107.4 -23.75 -107.2 -29.05 -108.15 Q-34.6 -108.85 -35.55 -107.6 -36.55 -106.35 -38.05 -103.0 M-3.2 70.1 L-3.45 70.5 -5.25 76.7 Q-7.3 83.55 -7.85 86.35 L-8.15 88.55 -8.65 91.65 Q-9.1 93.2 -10.1 93.7 L-12.2 94.0 -15.4 93.75 -16.1 93.55 Q-16.1 95.4 -15.75 96.1 -14.5 98.9 -13.0 109.35 -10.3 111.5 -7.75 111.5 -5.7 111.5 -4.25 110.35 -2.0 106.65 -2.6 101.65 L-3.6 97.35 Q-3.9 96.7 -4.0 94.95 -4.3 91.65 -3.65 86.35 -2.85 79.75 -1.0 76.7 -0.75 73.75 -1.3 72.45 L-1.3 72.4 Q-2.6 70.1 -3.2 70.1 M-19.65 71.8 L-19.65 71.35 Q-20.55 73.5 -23.3 77.4 L-26.15 81.75 Q-27.35 84.1 -27.45 86.35 -27.55 87.75 -27.1 90.45 -26.6 93.3 -26.6 95.2 -26.6 97.3 -27.55 98.5 -28.15 99.25 -30.5 100.8 L-31.55 101.3 -30.7 106.05 Q-30.25 108.05 -27.6 108.05 L-24.8 107.5 -22.3 105.9 Q-20.75 104.5 -21.2 97.45 -21.5 92.15 -22.7 86.1 -22.95 84.95 -21.25 81.5 -20.4 79.95 -20.3 79.3 -19.6 76.65 -19.65 71.8" fill="#ffffff" fill-opacity="0.0" fill-rule="evenodd" stroke="none"/>
    <path d="M23.75 26.8 L23.55 26.65 23.25 27.1 Q20.05 31.2 18.65 33.85 16.1 38.4 16.8 41.2 17.5 44.0 17.6 48.6 17.7 53.1 17.15 58.15 16.45 64.15 13.05 74.75 L12.05 82.7 Q11.05 90.5 11.05 92.15 11.05 95.25 10.75 96.8 10.25 99.6 8.8 100.45 7.35 101.3 4.6 101.3 L2.3 101.15 1.25 97.4 Q0.4 94.3 0.3 93.35 L1.05 93.4 Q3.85 93.4 4.95 90.25 5.6 88.4 5.85 83.65 6.1 80.35 6.4 79.05 6.85 77.05 8.95 73.25 L10.9 69.3 Q11.85 67.05 11.85 65.3 L11.2 61.2 Q10.55 58.85 10.45 57.55 L10.15 50.0 Q9.85 44.0 9.8 37.25 L10.25 38.8 10.75 38.8 11.15 35.2 Q11.75 35.85 12.0 37.1 L12.5 37.0 Q12.4 35.0 12.45 31.0 L12.5 28.95 13.3 31.6 13.8 31.55 13.85 28.0 Q13.95 22.7 14.35 20.2 14.45 23.7 15.05 26.5 L15.6 26.4 Q15.45 24.35 16.45 22.0 L16.45 26.7 16.9 26.75 17.3 24.5 Q18.05 19.65 19.0 17.8 19.25 18.95 19.15 21.35 L19.15 22.6 19.65 22.6 20.3 18.0 21.25 11.25 Q21.55 7.5 21.2 4.9 23.25 9.4 23.6 12.15 L24.05 12.1 Q23.95 9.15 24.45 6.35 L25.35 9.3 25.85 11.4 26.1 10.5 Q26.7 8.3 26.85 5.6 L27.75 8.0 27.95 8.5 28.45 8.45 28.5 4.5 Q29.0 6.15 30.05 6.95 L30.3 7.2 30.45 6.8 Q31.7 3.35 30.25 -0.9 L32.1 1.4 32.65 2.0 32.55 1.2 Q32.05 -2.35 28.95 -6.2 31.25 -4.2 33.1 -3.05 L33.85 -2.65 32.05 -6.55 32.8 -5.75 33.25 -6.0 Q32.05 -9.05 31.0 -12.8 L31.35 -12.45 31.75 -12.8 Q30.85 -14.25 30.05 -16.4 L29.85 -17.3 29.75 -17.3 Q27.95 -22.65 27.8 -29.4 L28.2 -27.65 Q28.65 -25.15 29.3 -24.1 L29.7 -23.5 29.8 -24.2 Q30.05 -26.35 29.2 -30.75 L28.6 -34.4 29.7 -32.0 31.0 -29.2 31.4 -28.6 31.45 -29.3 Q31.8 -31.65 31.2 -35.15 L31.75 -33.75 32.25 -33.8 Q32.45 -35.65 31.9 -38.0 L32.4 -37.0 32.5 -37.9 Q32.65 -39.2 32.25 -40.8 L31.45 -43.6 31.1 -44.65 Q30.5 -46.65 29.85 -50.0 31.2 -48.15 33.5 -45.6 L34.0 -45.0 33.95 -45.75 Q33.75 -48.55 31.95 -52.0 L28.25 -57.8 26.05 -61.15 23.85 -65.05 26.65 -62.6 27.05 -62.95 24.7 -65.6 22.05 -68.8 26.45 -65.2 28.0 -63.85 28.4 -64.2 25.4 -69.6 26.05 -68.8 Q27.45 -67.05 28.0 -66.6 L28.4 -66.9 Q26.85 -69.8 23.9 -73.0 L26.7 -71.05 27.05 -71.45 Q25.25 -73.2 20.95 -75.65 L17.4 -77.85 Q15.5 -79.2 14.45 -80.45 L14.85 -80.45 17.7 -79.95 20.65 -79.4 20.65 -79.95 Q19.3 -80.0 17.65 -80.95 L14.85 -82.95 13.7 -83.85 14.05 -83.85 16.45 -83.65 18.15 -83.5 18.2 -84.0 Q15.9 -84.2 13.4 -85.0 10.6 -85.8 8.8 -86.9 L10.05 -87.05 11.1 -87.2 11.2 -87.65 Q9.5 -88.45 5.15 -89.2 L2.45 -89.75 3.45 -90.6 4.0 -90.9 3.45 -91.05 -1.95 -91.8 -3.8 -91.8 Q0.45 -94.35 4.45 -94.75 L5.65 -94.8 Q9.2 -94.8 14.4 -92.35 L18.15 -90.75 Q22.25 -89.15 24.55 -87.65 L27.2 -86.1 Q31.7 -83.6 33.05 -82.0 L31.1 -82.2 29.05 -82.3 28.65 -82.25 27.85 -82.25 28.9 -81.5 35.25 -76.9 32.7 -77.85 32.1 -78.0 32.45 -77.45 35.15 -73.8 36.4 -72.2 34.1 -74.3 33.45 -74.95 33.7 -74.05 34.95 -71.45 35.85 -69.6 35.65 -69.8 34.25 -70.95 33.8 -70.6 35.35 -67.4 35.05 -67.3 Q35.65 -64.9 37.7 -60.2 L38.5 -58.3 Q37.6 -59.2 37.05 -60.4 L36.55 -60.3 Q36.65 -57.0 38.05 -52.25 37.35 -53.7 37.05 -54.85 L36.55 -54.8 Q36.6 -53.75 36.95 -52.05 L36.45 -52.0 Q36.65 -50.45 37.2 -48.35 L36.8 -48.25 37.4 -44.45 Q38.25 -38.4 39.15 -35.75 L39.25 -35.75 39.25 -31.2 38.65 -33.4 38.15 -33.35 38.2 -30.85 37.85 -30.8 37.65 -26.3 37.45 -24.25 36.85 -25.95 36.45 -25.75 Q36.6 -25.4 35.9 -23.1 L35.45 -20.8 Q35.4 -18.45 36.5 -14.4 37.05 -12.55 38.3 -9.55 L38.6 -8.9 38.8 -8.4 39.35 -7.25 39.45 -7.0 40.35 -4.65 Q41.85 -0.65 42.2 3.0 40.85 -1.2 38.65 -3.0 L37.95 -3.55 38.25 -2.7 Q40.65 4.3 41.3 12.55 L40.0 7.75 38.7 3.0 38.2 3.1 Q38.3 5.6 39.05 10.2 39.85 15.45 39.9 18.8 L40.05 21.5 40.15 26.55 Q40.0 29.4 39.0 31.0 38.3 28.8 37.95 25.8 L37.5 20.5 Q37.05 13.85 36.25 10.75 L35.95 10.85 35.75 10.85 Q36.25 13.4 36.25 17.0 L35.9 14.85 Q35.45 11.2 34.95 10.0 L34.45 10.05 34.25 15.0 34.05 18.8 Q33.45 17.6 33.3 14.5 L33.25 13.6 33.05 13.6 32.8 13.6 30.95 22.75 30.85 18.2 30.9 17.05 30.45 16.95 Q29.3 19.25 27.7 23.45 L27.1 25.0 Q27.05 23.25 27.6 21.6 L27.4 21.5 27.1 21.4 Q26.35 23.4 23.9 26.9 L23.75 26.8 M-38.05 -103.0 Q-36.55 -106.35 -35.55 -107.6 -34.6 -108.85 -29.05 -108.15 L-23.75 -107.2 -30.65 -107.4 -28.65 -105.15 Q-31.35 -105.4 -33.75 -104.25 -35.35 -103.55 -34.5 -102.15 L-33.35 -100.9 -27.3 -102.7 Q-31.1 -99.35 -33.55 -98.2 -35.1 -97.5 -37.35 -98.65 L-39.35 -100.0 -38.05 -103.0 M-19.65 71.8 Q-19.6 76.65 -20.3 79.3 -20.4 79.95 -21.25 81.5 -22.95 84.95 -22.7 86.1 -21.5 92.15 -21.2 97.45 -20.75 104.5 -22.3 105.9 L-24.8 107.5 -27.6 108.05 Q-30.25 108.05 -30.7 106.05 L-31.55 101.3 -30.5 100.8 Q-28.15 99.25 -27.55 98.5 -26.6 97.3 -26.6 95.2 -26.6 93.3 -27.1 90.45 -27.55 87.75 -27.45 86.35 -27.35 84.1 -26.15 81.75 L-23.3 77.4 Q-20.55 73.5 -19.65 71.35 L-19.65 71.8 M-3.2 70.1 Q-2.6 70.1 -1.3 72.4 L-1.3 72.45 Q-0.75 73.75 -1.0 76.7 -2.85 79.75 -3.65 86.35 -4.3 91.65 -4.0 94.95 -3.9 96.7 -3.6 97.35 L-2.6 101.65 Q-2.0 106.65 -4.25 110.35 -5.7 111.5 -7.75 111.5 -10.3 111.5 -13.0 109.35 -14.5 98.9 -15.75 96.1 -16.1 95.4 -16.1 93.55 L-15.4 93.75 -12.2 94.0 -10.1 93.7 Q-9.1 93.2 -8.65 91.65 L-8.15 88.55 -7.85 86.35 Q-7.3 83.55 -5.25 76.7 L-3.45 70.5 -3.2 70.1" fill="#000000" fill-opacity="0.2" fill-rule="evenodd" stroke="none"/>
    <path d="M-17.35 -58.2 Q-16.05 -56.15 -14.5 -54.8 -13.1 -53.55 -12.75 -52.9 -11.55 -50.75 -10.9 -37.15 L-9.55 -19.8 Q-9.2 -15.85 -5.9 -10.95 L0.0 -3.1 Q-4.4 -0.95 -6.75 3.4 -8.65 6.9 -9.45 12.5 L-9.4 24.2 Q-9.2 31.5 -11.5 35.4 -12.4 37.05 -14.7 38.55 L-18.35 41.2 Q-20.0 42.9 -22.1 46.25 L-25.5 51.7 Q-26.95 53.8 -27.05 57.4 L-26.85 60.55 Q-28.85 63.0 -28.95 65.15 L-29.2 69.75 -32.1 80.6 Q-34.1 88.8 -33.65 90.5 -33.3 91.95 -32.3 98.2 L-30.95 106.15 Q-30.4 108.4 -27.35 108.35 -24.4 108.25 -22.05 106.15 -20.15 104.45 -21.1 95.1 L-22.4 86.1 -18.35 74.85 Q-15.35 71.4 -14.65 74.45 L-14.55 78.95 -15.75 86.85 Q-16.75 94.4 -15.95 96.3 -14.55 99.35 -13.2 109.55 -9.8 112.35 -6.55 111.75 -4.95 111.4 -4.0 110.55 -1.7 106.75 -2.3 101.65 L-3.35 97.3 -3.75 95.05 Q-4.0 91.75 -3.35 86.4 -2.75 81.1 -1.3 77.95 L0.05 75.85 1.0 75.85 Q2.0 76.0 2.45 76.9 2.85 77.7 1.5 85.05 L0.05 93.2 Q0.05 94.55 2.1 101.35 L4.65 101.55 Q7.45 101.55 8.9 100.7 10.45 99.8 11.0 96.95 L11.25 92.15 Q11.25 90.5 12.3 82.5 L13.3 74.8 Q16.7 64.3 17.4 58.15 17.9 53.35 17.85 48.85 17.8 44.1 17.05 41.15 16.35 38.35 19.05 33.6 20.45 31.15 23.75 26.8 M-42.55 -100.9 Q-42.45 -103.6 -41.8 -106.4 -40.55 -111.85 -37.6 -111.85 -32.75 -111.85 -24.2 -110.5 -14.55 -108.95 -16.35 -107.6 L-23.1 -101.95 Q-28.45 -97.5 -30.9 -96.4 -33.35 -95.3 -36.3 -95.3 L-38.7 -95.5" fill="none" stroke="#000000" stroke-linecap="butt" stroke-linejoin="miter-clip" stroke-miterlimit="10.0" stroke-width="1.0"/>
    <path d="M35.95 10.85 L36.25 12.4 37.05 18.4 Q37.85 28.35 38.85 31.6 40.4 29.65 40.45 25.4 L40.15 18.8 Q40.1 15.85 39.4 10.9 38.55 5.4 38.45 3.1 L40.85 11.6 41.8 16.6 Q41.65 12.2 41.15 8.6 40.35 2.55 38.5 -2.8 39.95 -1.6 41.1 0.9 42.05 2.95 42.55 5.3 42.55 0.6 40.6 -4.75 L39.7 -7.0 39.6 -7.25 38.9 -8.9 38.65 -9.55 38.6 -9.6 Q37.3 -12.55 36.75 -14.45 35.65 -18.4 35.65 -20.75 L36.25 -23.4 36.7 -25.75 37.7 -22.6 37.95 -26.7 38.05 -30.8 38.45 -28.55 38.45 -33.35 39.45 -29.4 39.45 -34.6 Q39.45 -37.65 39.1 -39.8 39.0 -38.3 39.4 -35.8 38.65 -38.0 38.05 -41.9 L37.05 -48.3 37.85 -45.35 38.45 -42.35 Q38.5 -44.2 37.75 -47.2 36.85 -50.8 36.7 -52.0 37.65 -48.2 39.0 -46.05 L37.65 -50.4 Q36.85 -53.1 36.8 -54.8 37.1 -53.55 37.95 -51.8 L39.4 -48.9 Q36.85 -56.15 36.8 -60.3 37.85 -58.25 39.15 -57.35 L37.05 -62.3 Q35.85 -65.35 35.35 -67.35 L37.05 -64.9 35.45 -67.75 34.05 -70.75 35.2 -69.8 36.45 -68.95 35.2 -71.55 33.95 -74.15 38.1 -70.3 35.4 -74.0 32.65 -77.6 34.85 -76.8 37.05 -75.8 28.65 -82.0 31.1 -81.9 33.55 -81.8 Q32.55 -83.25 29.45 -85.1 26.0 -87.0 24.7 -87.85 22.8 -89.1 19.65 -90.4 15.0 -92.3 14.5 -92.55 11.65 -93.9 9.65 -94.45 L4.4 -95.0 Q-1.35 -94.35 -7.2 -89.65 L-11.95 -85.1 M38.45 -28.55 L38.45 -25.65 M41.8 16.6 L41.85 20.3 M27.4 21.5 L27.35 21.6 Q26.65 23.8 26.95 26.1 L28.7 21.55 30.65 17.05 30.55 20.55 Q30.6 22.55 30.9 24.0 L33.05 13.6 33.25 16.85 Q33.55 18.7 34.3 19.7 L34.5 14.9 34.7 10.05 Q35.15 11.25 35.6 14.4 L36.45 19.25 Q36.65 15.4 36.25 12.4 M23.75 26.8 L23.1 28.45 25.65 24.8 27.35 21.6" fill="none" stroke="#000000" stroke-linecap="butt" stroke-linejoin="miter-clip" stroke-miterlimit="10.0" stroke-opacity="0.6" stroke-width="1.0"/>
  </g>
</svg>
