<?xml version="1.0" encoding="UTF-8" standalone="no"?>
<svg xmlns:xlink="http://www.w3.org/1999/xlink" height="397.9px" width="442.35px" xmlns="http://www.w3.org/2000/svg">
  <g transform="matrix(1.0, 0.0, 0.0, 1.0, 221.15, 199.0)">
    <path d="M76.35 -169.15 L76.1 -169.8 Q74.35 -174.45 72.5 -176.6 L70.55 -178.1 70.55 -178.4 68.6 -178.1 1.3 -184.1 -51.45 -188.8 -58.9 -189.5 -58.9 -190.85 Q-59.8 -193.1 -61.6 -195.05 -64.05 -197.6 -66.9 -197.7 -64.05 -197.6 -61.6 -195.05 -59.8 -193.1 -58.9 -190.85 L-58.9 -189.5 -58.9 -182.75 -58.9 -174.7 -58.9 -168.0 -58.9 -167.65 -58.9 -158.85 -58.9 -155.3 -58.9 -154.2 -58.9 -143.2 -58.9 -139.85 -58.9 -137.05 -58.9 -129.8 -58.9 -121.55 -58.9 -117.25 -58.9 -106.15 -58.9 -100.25 -58.9 -94.9 -58.9 -84.75 -58.9 -80.45 -58.9 -72.25 -58.9 -63.35 -58.9 -62.2 -58.9 -61.85 -58.9 -48.85 -58.9 -39.25 -58.9 -35.15 -58.9 -22.85 -58.9 -17.8 -58.9 -12.7 -58.9 -6.95 -58.9 1.15 -58.9 5.75 -58.9 20.2 -58.9 24.2 -58.9 34.65 -58.9 41.5 -58.9 44.2 -58.9 51.25 -58.9 62.75 -58.9 66.35 -58.9 62.75 -50.5 66.2 -45.05 68.45 -44.05 68.85 -29.5 74.8 -25.5 76.45 -11.2 82.35 -4.25 85.2 10.7 91.35 22.4 96.15 22.5 97.0 22.4 96.15 25.2 97.3 22.5 97.0 25.2 97.3 39.5 103.15 47.8 106.55 72.05 116.5 79.3 119.5 88.25 123.15 80.0 123.0 88.25 123.15 109.25 131.8 118.9 135.75 133.6 141.8 141.15 144.9 162.95 153.85 165.65 154.95 182.05 161.7 169.75 163.1 182.05 161.7 198.85 168.6 208.7 172.65 76.35 -169.15 M-66.9 -197.7 Q-65.85 -198.4 -64.45 -198.3 L68.65 -186.45 Q71.15 -186.95 73.9 -185.75 79.9 -183.05 83.9 -172.7 L220.4 179.65 Q221.15 181.6 219.95 183.4 218.9 185.1 216.65 185.25 L-59.75 196.6 Q-64.6 199.2 -69.8 198.0 L-74.35 196.05 -73.65 61.85 -93.55 53.4 -154.6 55.95 -214.7 58.35 -214.7 58.6 Q-217.3 60.1 -219.2 59.5 L-220.6 58.6 -220.6 -109.7 Q-221.0 -114.15 -219.05 -116.7 L-217.1 -118.25 -70.15 -197.15 Q-68.45 -197.8 -66.9 -197.7 M134.8 145.1 L141.15 144.9 134.8 145.1 137.15 151.5 134.8 145.1 122.85 145.4 134.8 145.1 133.6 141.8 134.8 145.1 M165.45 163.55 L137.15 151.5 122.85 145.4 111.55 140.6 109.25 131.8 111.55 140.6 80.9 127.6 80.0 123.0 80.9 127.6 69.35 122.7 49.0 114.05 47.8 106.55 49.0 114.05 23.2 103.05 4.55 95.1 15.2 96.25 22.5 97.0 15.2 96.25 4.55 95.1 -3.95 91.5 -4.25 85.2 -3.95 91.5 -25.4 82.4 -25.5 76.45 -25.4 82.4 -45.0 74.05 -45.05 68.65 -45.0 74.05 -58.9 68.15 -58.9 66.35 -58.9 68.15 -58.9 86.35 -58.9 111.85 -58.9 134.8 -58.9 163.25 -58.9 188.2 -41.45 187.6 -19.25 186.75 6.95 185.7 38.8 184.4 64.85 183.3 92.6 182.15 123.5 180.9 149.3 179.8 178.85 178.6 198.9 177.75 171.25 166.0 165.45 163.55 169.75 163.1 165.45 163.55 M165.65 154.95 L169.75 163.1 165.65 154.95 M205.9 177.45 Q202.4 173.45 198.85 168.6 202.4 173.45 205.9 177.45 L210.5 177.25 208.7 172.65 210.5 177.25 205.9 177.45 198.9 177.75 205.9 177.45 M169.75 163.1 L171.25 166.0 169.75 163.1 M-59.75 196.6 L-58.9 196.05 -58.9 188.2 -58.9 196.05 -59.75 196.6 M80.0 123.0 L79.3 119.5 80.0 123.0 69.35 122.7 80.0 123.0 M22.5 97.0 L23.2 103.05 22.5 97.0 M-203.15 -117.7 L-208.75 -115.05 -210.1 -114.3 -204.0 -113.75 -190.2 -112.5 -174.1 -111.1 -158.45 -109.7 -158.35 -109.7 -156.2 -109.35 Q-153.65 -108.3 -151.75 -103.65 L-146.65 -90.55 -142.05 -78.6 -136.85 -65.15 -130.1 -47.7 -126.35 -38.1 -122.7 -28.6 -117.75 -15.85 -114.1 -6.35 -109.35 5.85 -103.6 20.65 -98.1 34.85 -92.6 49.1 -92.2 49.05 -80.75 53.75 -73.65 56.7 -73.6 45.4 -73.55 42.9 -73.5 30.3 -73.45 16.3 -73.35 2.7 -73.35 -0.55 -73.3 -9.1 -73.25 -24.15 -73.2 -35.8 -73.1 -48.6 -73.1 -54.05 -73.05 -61.3 -73.0 -70.95 -72.95 -82.55 -72.9 -92.15 -72.85 -102.55 -72.85 -104.0 -72.8 -113.0 -72.75 -125.0 -72.75 -132.1 -72.7 -138.55 -72.65 -146.4 -72.65 -149.05 -72.6 -156.95 -72.6 -162.2 -72.55 -169.05 -72.55 -175.7 Q-74.05 -179.1 -76.4 -178.35 L-78.5 -176.9 -90.9 -171.0 -111.8 -161.05 -129.25 -152.8 -145.8 -144.9 -161.0 -137.7 -175.15 -131.0 -190.4 -123.75 -203.15 -117.7 M-73.65 61.85 L-73.65 56.7 -73.65 61.85 M-214.7 2.15 L-214.7 54.75 -201.05 54.25 -191.65 53.85 -182.2 53.4 -172.7 52.95 -170.35 52.8 -163.25 52.45 -153.7 52.0 -144.75 51.5 -134.1 50.9 -124.7 50.35 -114.85 49.75 -96.8 48.4 -99.85 40.5 -104.75 27.85 -110.1 14.0 -115.9 -0.95 -119.15 -9.3 -122.55 -18.1 -126.65 -28.7 -130.9 -39.6 -130.95 -39.7 -135.55 -51.6 -138.95 -60.35 -142.65 -69.85 -147.25 -81.8 -149.5 -87.6 -151.75 -93.5 -155.75 -103.8 Q-156.25 -105.35 -157.6 -106.05 L-157.6 -106.1 -158.5 -106.05 -168.25 -106.9 -177.8 -107.75 -187.3 -108.55 -196.75 -109.4 -206.35 -110.25 -213.45 -110.85 -213.95 -109.85 Q-214.7 -108.15 -214.7 -106.7 L-214.7 -97.8 -214.7 -75.8 -214.7 -65.1 -214.7 -45.45 -214.7 -22.85 -214.7 -10.4 -214.7 2.15 M-210.1 -114.3 Q-212.25 -112.95 -213.45 -110.85 -212.25 -112.95 -210.1 -114.3 M-214.7 58.35 L-214.7 54.75 -214.7 58.35 M-45.05 68.65 L-44.05 68.85 -45.05 68.65 -45.05 68.45 -45.05 68.65 -58.9 66.35 -45.05 68.65 M-93.55 53.4 Q-92.65 53.4 -92.05 52.6 -91.55 51.85 -91.9 50.95 L-92.6 49.1 -91.9 50.95 Q-91.55 51.85 -92.05 52.6 -92.65 53.4 -93.55 53.4" fill="#ffffff" fill-opacity="0.0" fill-rule="evenodd" stroke="none"/>
    <path d="M-51.45 -188.8 L-46.0 -187.35" fill="none" stroke="#000000" stroke-linecap="butt" stroke-linejoin="miter-clip" stroke-miterlimit="10.0" stroke-opacity="0.6" stroke-width="1.0"/>
    <path d="M92.3 -108.5 L81.75 -106.85 82.35 -104.6 93.15 -105.45 92.3 -108.5 86.0 -131.7 76.35 -169.15 M72.5 -176.6 Q62.2 -175.0 50.5 -174.7 L51.9 -168.4 65.05 -172.95 68.85 -157.85 77.5 -158.7 69.25 -156.2 72.8 -141.9 82.25 -142.8 73.2 -140.45 76.3 -127.95 77.6 -122.9 87.8 -123.8 77.9 -121.85 81.75 -106.85 74.75 -105.75 75.3 -104.25 82.35 -104.6 87.4 -85.5 88.0 -83.3 99.15 -84.2 93.15 -105.45 M1.3 -184.1 L10.75 -182.3 Q40.9 -176.5 47.4 -174.65 L50.5 -174.7 M47.4 -174.65 L48.7 -174.2 Q49.35 -173.9 51.75 -168.35 L51.9 -168.4 52.1 -167.5 56.15 -157.35 68.85 -157.85 69.25 -156.2 57.9 -152.7 62.05 -141.45 72.8 -141.9 73.2 -140.45 63.35 -137.9 68.85 -122.5 77.6 -122.9 77.9 -121.85 69.65 -120.2 74.75 -105.75 66.4 -104.45 66.5 -104.15 75.3 -104.25 82.05 -85.0 87.4 -85.5 M-8.15 -179.4 L3.5 -177.65 3.8 -177.75 3.8 -177.6 15.65 -176.15 44.95 -174.6 47.4 -174.65 M51.75 -168.35 L52.1 -167.5 54.4 -157.35 56.15 -157.35 57.9 -152.7 55.55 -152.0 54.4 -157.35 44.2 -157.5 29.45 -158.35 31.85 -144.8 46.0 -149.1 47.6 -141.6 57.9 -141.4 55.55 -152.0 46.0 -149.1 44.2 -157.5 42.55 -165.15 51.75 -168.35 M3.8 -177.6 L3.5 -177.65 -8.15 -173.25 -8.15 -173.05 4.1 -170.5 3.8 -177.6 M14.55 -163.55 L16.75 -164.3 16.35 -168.6 12.75 -167.35 14.55 -163.55 16.2 -159.7 17.15 -159.6 16.75 -164.3 27.7 -168.25 27.05 -172.2 16.35 -168.6 15.65 -176.15 M4.1 -170.5 L11.8 -168.6 12.75 -167.35 4.35 -164.55 4.45 -161.25 7.15 -160.85 14.55 -163.55 M4.1 -170.5 L4.35 -164.55 -2.3 -162.3 4.45 -161.25 4.5 -159.9 7.15 -160.85 16.2 -159.7 17.45 -156.65 17.15 -159.6 24.45 -158.8 29.1 -160.45 27.7 -168.25 44.95 -174.6 M4.5 -159.9 L4.85 -152.0 17.45 -156.4 17.45 -156.65 17.55 -156.4 24.45 -158.8 29.45 -158.35 29.1 -160.45 42.55 -165.15 M17.45 -156.4 L17.55 -156.4 22.55 -143.4 26.0 -143.05 31.85 -144.8 32.25 -142.5 47.6 -141.6 49.15 -134.2 58.95 -136.75 57.9 -141.4 62.05 -141.45 63.35 -137.9 58.95 -136.75 60.55 -129.65 62.25 -122.4 68.85 -122.5 69.65 -120.2 63.05 -118.9 66.4 -104.45 64.55 -104.15 66.5 -104.15 71.25 -84.0 82.05 -85.0 82.7 -83.05 88.0 -83.3 92.1 -68.15 93.4 -63.45 96.7 -51.4 98.45 -45.15 103.25 -28.0 104.9 -22.25 104.95 -22.2 109.15 -7.6 111.15 -0.7 124.45 -1.6 116.35 -26.85 Q107.6 -54.65 99.15 -84.2 M22.55 -143.4 L23.0 -142.1 26.0 -143.05 32.25 -142.5 34.35 -130.35 49.15 -134.2 51.65 -122.55 62.25 -122.4 63.05 -118.9 52.85 -116.9 55.55 -104.35 64.55 -104.15 55.9 -102.8 60.15 -83.0 71.25 -84.0 71.55 -82.8 Q77.25 -82.85 82.7 -83.05 L87.95 -67.95 92.1 -68.15 M27.95 -128.7 L29.65 -124.0 35.55 -123.5 34.35 -130.35 27.95 -128.7 23.0 -142.1 18.85 -140.85 20.0 -128.3 20.15 -126.7 27.95 -128.7 M29.65 -124.0 L20.3 -125.0 21.7 -110.8 33.55 -113.1 29.65 -124.0 M22.55 -143.4 L18.6 -143.85 18.85 -140.85 5.45 -136.8 5.65 -131.1 5.85 -126.9 15.75 -125.55 20.15 -126.7 20.3 -125.0 15.75 -125.55 6.05 -123.0 6.75 -108.8 9.65 -108.4 21.7 -110.8 22.05 -106.85 36.3 -105.5 33.55 -113.1 37.25 -113.85 35.55 -123.5 51.65 -122.55 52.85 -116.9 37.25 -113.85 38.75 -105.3 55.55 -104.35 55.9 -102.8 39.65 -100.25 41.1 -91.85 43.95 -83.8 59.8 -82.95 60.15 -83.0 60.15 -82.95 71.55 -82.8 75.25 -67.45 87.95 -67.95 89.55 -63.25 93.4 -63.45 M5.45 -136.8 L5.1 -145.6 -7.8 -147.6 -8.25 -147.45 -8.35 -132.6 5.45 -136.8 M18.6 -143.85 L5.1 -145.6 4.85 -152.0 -7.8 -147.6 -8.25 -147.7 -8.25 -147.45 -20.05 -143.35 -15.15 -130.55 -8.35 -132.6 -8.35 -130.55 -8.35 -129.1 5.85 -126.9 6.05 -123.0 -8.35 -119.3 -8.3 -112.1 -7.95 -111.05 6.75 -108.8 6.8 -107.85 9.65 -108.4 22.05 -106.85 22.95 -97.6 38.25 -100.0 36.3 -105.5 38.75 -105.3 39.65 -100.25 38.25 -100.0 41.1 -91.85 42.5 -83.9 43.95 -83.8 44.7 -81.6 59.8 -82.95 60.15 -82.95 63.55 -66.95 75.25 -67.45 76.3 -62.95 Q83.15 -62.95 89.55 -63.25 L93.65 -51.35 96.7 -51.4 M17.45 -156.4 L18.6 -143.85 M42.5 -83.9 L42.95 -81.45 44.7 -81.6 50.0 -66.4 63.55 -66.95 64.4 -63.1 76.3 -62.95 79.2 -51.1 93.65 -51.35 95.85 -45.05 98.45 -45.15 M50.95 -63.75 L46.0 -64.05 48.35 -50.6 55.45 -50.75 50.95 -63.75 50.0 -66.4 45.6 -66.2 46.0 -64.05 29.3 -65.55 26.25 -65.4 27.85 -50.3 48.35 -50.6 49.15 -45.8 57.35 -45.3 55.45 -50.75 67.0 -50.9 64.4 -63.1 50.95 -63.75 M67.0 -50.9 L79.2 -51.1 80.8 -44.7 Q88.55 -44.7 95.85 -45.05 L101.65 -28.05 103.25 -28.0 M42.95 -81.45 L45.6 -66.2 29.3 -65.55 26.2 -65.85 26.25 -65.4 9.15 -64.7 9.25 -63.4 14.0 -50.05 27.85 -50.3 28.1 -47.7 49.15 -45.8 51.9 -30.25 62.7 -29.8 57.35 -45.3 68.3 -44.85 67.0 -50.9 M42.5 -83.9 L24.15 -85.55 24.75 -79.8 42.95 -81.45 M22.95 -97.6 L24.15 -85.55 7.85 -87.6 8.35 -78.3 24.75 -79.8 26.2 -65.85 8.95 -67.95 9.15 -64.7 8.8 -64.65 9.25 -63.4 10.05 -50.0 14.0 -50.05 14.25 -49.3 28.1 -47.7 29.9 -31.25 51.9 -30.25 53.15 -22.9 65.3 -22.2 62.7 -29.8 71.6 -29.4 68.3 -44.85 80.8 -44.7 84.75 -28.8 101.65 -28.05 103.7 -22.1 104.95 -22.2 M7.85 -87.6 L0.2 -88.7 4.05 -77.9 8.35 -78.3 8.95 -67.95 7.55 -68.15 8.8 -64.65 -8.05 -63.95 -7.95 -52.45 -2.75 -51.65 9.05 -49.95 10.05 -50.0 10.05 -49.85 14.25 -49.3 20.5 -31.65 29.9 -31.25 30.6 -24.85 53.15 -22.9 55.0 -12.5 69.1 -11.2 67.6 -15.5 65.3 -22.2 73.2 -21.9 71.6 -29.4 84.75 -28.8 85.6 -25.35 86.55 -21.7 Q95.4 -21.75 103.7 -22.1 L108.05 -9.3 108.65 -7.65 109.15 -7.6 M7.85 -87.6 L7.45 -95.2 -1.65 -93.75 0.2 -88.7 -6.55 -89.75 -8.25 -90.0 -8.15 -76.8 4.05 -77.9 7.55 -68.15 -4.7 -69.95 -8.1 -70.45 -8.05 -63.95 -16.5 -63.6 -12.95 -53.25 -7.95 -52.45 -7.9 -49.7 9.05 -49.95 10.05 -49.85 11.2 -32.05 20.5 -31.65 22.6 -25.7 30.6 -24.85 31.3 -18.65 31.75 -14.6 55.0 -12.5 55.15 -11.55 56.95 -1.55 72.7 -0.7 69.1 -11.2 75.7 -10.6 73.4 -20.9 73.2 -21.9 86.55 -21.7 89.65 -9.35 108.65 -7.65 111.0 -0.7 111.15 -0.7 112.15 2.6 117.4 18.25 118.0 19.9 132.4 22.05 124.45 -1.6 M6.8 -107.85 L7.45 -95.2 22.95 -97.6 M11.55 -27.05 L11.2 -32.05 -5.95 -32.8 -4.8 -29.35 -0.35 -28.7 11.55 -27.05 22.6 -25.7 23.5 -23.1 26.35 -15.1 31.75 -14.6 33.05 -3.55 56.95 -1.55 59.2 10.95 77.65 13.75 72.7 -0.7 77.95 -0.5 75.7 -10.6 89.65 -9.35 92.0 -0.25 Q101.85 -0.25 111.0 -0.7 L112.15 2.6 116.8 18.25 117.4 18.25 M2.7 -7.2 L13.05 -5.85 12.3 -16.35 -0.8 -17.55 2.7 -7.2 2.35 -7.25 -7.25 -8.6 -7.05 0.95 6.15 2.95 2.7 -7.2 M12.3 -16.35 L11.8 -23.1 11.55 -27.05 M26.35 -15.1 L30.3 -3.85 33.05 -3.55 34.3 7.2 59.2 10.95 60.4 17.5 79.25 18.45 77.65 13.75 81.25 14.3 77.95 -0.5 92.0 -0.25 96.4 16.6 109.25 18.55 116.8 18.25 117.25 19.8 118.0 19.9 122.15 32.1 136.0 32.4 132.4 22.05 M12.3 -16.35 L26.35 -15.1 M13.05 -5.85 L30.3 -3.85 34.15 7.15 34.3 7.2 34.4 7.9 37.1 15.6 60.4 17.5 62.05 26.65 82.9 29.1 79.25 18.45 82.2 18.55 81.25 14.3 96.4 16.6 96.95 18.75 109.25 18.55 117.25 19.8 121.0 32.05 122.15 32.1 125.4 41.75 128.75 51.7 132.4 62.5 146.65 61.7 Q141.35 47.8 136.0 32.4 M193.05 160.2 Q196.0 164.7 198.85 168.6 202.4 173.45 205.9 177.45 M182.05 161.7 L193.05 160.2 Q178.3 137.65 162.3 100.5 L145.55 101.65 146.45 104.3 152.25 121.6 156.3 133.7 160.55 143.8 159.65 143.85 162.95 153.85 M165.65 154.95 L160.55 143.8 M141.15 144.9 L134.8 145.1 137.15 151.5 Q140.0 159.05 142.7 165.45 L165.45 163.55 169.75 163.1 165.65 154.95 M169.75 163.1 L182.05 161.7 M171.25 166.0 L169.75 163.1 M171.25 166.0 Q175.2 173.25 178.85 178.6 M121.0 32.05 L124.05 41.9 125.4 41.75 M82.2 18.55 L96.95 18.75 100.15 30.75 121.0 32.05 M82.9 29.1 L84.65 29.3 82.2 18.55 M88.3 45.05 L89.55 48.7 105.45 50.2 103.8 44.1 88.3 45.05 88.15 44.5 88.25 45.05 88.3 45.05 M88.25 45.05 L89.1 48.65 89.55 48.7 94.25 62.5 109.0 62.8 105.45 50.2 127.1 51.6 124.05 41.9 105.5 43.9 103.8 44.1 100.15 30.75 84.65 29.3 88.15 44.5 82.9 29.1 M109.0 62.8 L110.85 69.35 133.35 70.9 130.65 62.55 Q120.2 62.9 109.0 62.8 M96.05 67.8 L94.25 62.5 92.3 62.4 93.5 67.5 96.05 67.8 110.85 69.35 114.6 82.35 Q126.25 82.25 137.0 81.75 L133.35 70.9 135.25 70.95 132.4 62.5 130.65 62.55 127.1 51.6 128.75 51.7 M100.95 82.3 L96.95 82.25 100.55 97.2 106.3 98.25 100.95 82.3 96.05 67.8 M100.95 82.3 L114.6 82.35 120.05 100.6 130.4 102.15 144.0 101.7 137.0 81.75 138.85 81.65 135.25 70.95 150.3 71.25 146.65 61.7 M93.5 67.5 L96.95 82.25 72.1 81.3 74.05 91.75 100.55 97.2 101.75 102.15 107.65 102.25 106.3 98.25 120.05 100.6 120.6 102.3 130.4 102.15 144.85 104.1 144.0 101.7 145.55 101.65 138.85 81.65 M89.1 48.65 L92.3 62.4 68.35 61.15 68.9 64.05 93.5 67.5 M46.6 42.9 L46.55 42.65 41.15 42.0 46.6 42.9 65.5 45.75 65.3 44.55 46.55 42.65 39.85 23.55 36.2 23.0 38.55 41.55 41.15 42.0 38.55 41.65 40.8 58.75 52.5 59.9 46.6 42.9 M62.05 26.65 L65.3 44.55 73.75 45.0 Q80.85 45.3 88.25 45.05 M34.15 7.15 L34.4 7.9 35.3 15.4 37.1 15.6 39.85 23.55 62.05 26.65 M35.3 15.4 L36.2 23.0 15.0 19.6 16.05 32.45 17.8 37.75 38.55 41.55 38.55 41.65 18.1 38.6 23.75 55.6 37.5 58.4 40.8 58.75 40.85 59.1 53.05 61.35 52.5 59.9 68.35 61.15 65.5 45.75 89.1 48.65 M-7.05 0.95 L-6.85 10.2 4.0 11.7 9.3 12.4 6.15 2.95 13.75 4.1 13.05 -5.85 M9.3 12.4 L14.45 13.05 13.75 4.1 34.15 7.15 M9.3 12.4 L11.55 19.0 15.0 19.6 14.45 13.05 35.3 15.4 M16.05 32.45 L16.45 37.5 17.8 37.75 18.1 38.6 16.55 38.35 18.0 54.35 23.75 55.6 24.2 56.95 37.5 58.4 40.85 59.1 43.7 79.4 59.7 80.6 53.05 61.35 68.9 64.05 72.1 81.3 59.7 80.6 62.65 89.1 74.05 91.75 75.8 101.15 101.75 102.15 107.05 123.3 114.7 123.2 107.65 102.25 120.6 102.3 127.15 122.9 151.45 121.65 144.85 104.1 146.45 104.3 M16.45 37.5 L16.55 38.35 -6.2 34.45 -6.05 39.65 -2.85 49.55 18.0 54.35 18.15 56.25 24.2 56.95 31.3 78.3 43.7 79.4 44.45 84.6 62.65 89.1 66.6 100.65 75.8 101.15 79.3 119.5 80.0 123.0 88.25 123.15 107.05 123.3 109.25 131.8 111.55 140.6 112.9 145.55 122.85 145.4 134.8 145.1 133.6 141.8 Q130.45 133.0 127.15 122.9 L114.7 123.2 118.9 135.75 M141.15 144.9 L159.65 143.85 156.3 133.7 151.45 121.65 152.25 121.6 M11.55 19.0 L16.05 32.45 M-2.85 49.55 L-1.5 53.65 9.95 55.2 18.15 56.25 20.25 77.2 31.3 78.3 32.3 81.35 44.45 84.6 46.65 99.2 66.6 100.65 72.05 116.5 M4.55 95.1 L15.2 96.25 22.5 97.0 22.4 96.15 20.35 77.95 16.35 76.8 11.9 76.3 5.6 75.6 10.7 91.35 M-4.25 85.2 L-3.95 91.5 -3.8 94.15 -25.2 91.4 -24.6 115.9 -2.3 118.1 -0.45 140.7 22.7 142.45 28.95 142.85 Q27.2 132.5 25.5 120.3 L50.35 121.85 49.0 114.05 47.8 106.55 46.65 99.2 37.95 98.5 39.5 103.15 M4.55 95.1 L-3.8 94.15 -2.3 118.1 19.25 119.85 25.5 120.3 23.2 103.05 22.5 97.0 25.2 97.3 37.95 98.5 32.3 81.35 20.35 77.95 20.25 77.2 16.35 76.8 4.9 73.35 5.6 75.6 -4.75 74.35 -4.25 85.2 M69.35 122.7 L80.0 123.0 80.9 127.6 84.4 145.3 112.9 145.55 Q116.15 157.6 118.95 166.75 L142.7 165.45 Q146.15 173.6 149.3 179.8 M-1.5 53.65 L4.9 73.35 -4.95 70.25 -4.75 74.35 -14.1 73.15 -11.2 82.35 M-25.5 76.45 L-25.4 82.4 -25.2 91.4 -39.65 89.35 -44.95 88.55 -44.75 113.55 -37.45 114.45 -24.6 115.9 -23.7 138.65 -0.45 140.7 Q1.0 155.8 2.75 166.65 L-22.05 165.6 Q-20.85 179.85 -19.25 186.75 M69.35 122.7 L50.35 121.85 Q52.45 134.1 54.5 144.3 L84.4 145.3 89.1 167.65 118.95 166.75 Q121.4 174.95 123.5 180.9 M38.8 184.4 Q36.3 177.45 33.95 167.55 L26.9 167.4 2.75 166.65 Q4.65 178.85 6.95 185.7 M92.6 182.15 Q91.2 177.3 89.1 167.65 L59.9 167.85 Q62.4 177.25 64.85 183.3 M54.5 144.3 L28.95 142.85 Q31.4 156.9 33.95 167.55 L59.9 167.85 Q57.25 157.95 54.5 144.3 M150.3 71.25 Q156.35 86.85 162.3 100.5 M-204.0 -113.75 L-196.75 -117.05 -203.15 -117.7 M-175.15 -131.0 L-167.6 -130.2 Q-160.3 -133.55 -152.95 -136.85 L-161.0 -137.7 M-196.75 -117.05 L-182.85 -115.65 -168.9 -121.55 -183.5 -123.05 -196.75 -117.05 M-190.2 -112.5 L-182.85 -115.65 -177.05 -115.05 -166.5 -113.9 -151.4 -119.6 -165.55 -121.2 -168.9 -121.55 -152.15 -128.6 -152.95 -128.7 -167.6 -130.2 -183.5 -123.05 -190.4 -123.75 M-196.75 -109.4 L-196.5 -98.5 -189.95 -98.75 -187.05 -98.95 -187.3 -108.55 M-174.1 -111.1 L-166.5 -113.9 -151.3 -112.1 -136.2 -117.15 -136.6 -117.45 -151.4 -119.6 -133.05 -126.45 -152.15 -128.6 -136.65 -135.15 -152.95 -136.85 -137.1 -144.0 -145.8 -144.9 M-177.8 -107.75 L-177.6 -99.75 -168.1 -100.9 -168.25 -106.9 M-158.35 -109.7 L-151.3 -112.1 -146.15 -111.2 Q-145.35 -111.0 -143.15 -106.7 L-132.55 -110.55 Q-135.15 -116.05 -136.2 -117.15 L-118.75 -123.05 Q-119.55 -124.45 -119.95 -124.55 L-133.05 -126.45 -115.95 -132.85 -135.5 -135.05 -136.65 -135.15 -119.95 -142.2 -137.1 -144.0 -119.85 -151.8 -129.25 -152.8 M-206.35 -110.25 L-206.05 -98.1 -196.5 -98.5 -196.25 -87.9 -190.75 -87.95 -186.8 -88.15 -187.05 -98.95 -177.6 -99.75 -177.3 -88.85 -167.8 -89.95 -168.1 -100.9 Q-162.1 -101.8 -158.4 -102.85 L-158.5 -106.05 M-177.3 -88.85 L-177.0 -76.7 -167.5 -77.55 -167.8 -89.95 -158.15 -91.7 -158.4 -102.85 -155.75 -103.8 M-196.25 -87.9 L-195.95 -76.0 -187.7 -76.1 -186.55 -76.15 -186.8 -88.15 -177.3 -88.85 M-186.25 -65.0 L-183.8 -65.0 -176.7 -65.2 -177.0 -76.7 -186.55 -76.15 -186.25 -65.0 -195.7 -65.0 -195.5 -56.95 -186.05 -57.1 -186.25 -65.0 M-186.05 -57.1 L-179.35 -57.2 -176.5 -57.25 -176.7 -65.2 -167.2 -65.7 -167.5 -77.55 -157.85 -78.95 -158.15 -91.7 Q-154.65 -92.5 -151.75 -93.5 M-176.5 -57.25 L-167.0 -57.6 -167.2 -65.7 -157.55 -66.55 -157.85 -78.95 Q-152.95 -79.85 -149.4 -81.0 L-149.5 -87.6 M-195.95 -76.0 L-195.7 -65.0 -205.25 -65.05 -205.05 -56.85 -195.5 -56.95 -195.25 -45.4 -185.75 -45.35 -186.05 -57.1 M-214.7 -97.8 L-206.05 -98.1 -205.8 -87.8 -196.25 -87.9 M-214.7 -75.8 L-205.5 -75.9 -205.8 -87.8 M-205.25 -65.05 L-214.7 -65.1 M-205.05 -56.85 L-204.75 -45.4 -195.25 -45.4 -194.95 -34.1 -185.45 -33.75 -185.75 -45.35 -182.3 -45.35 -176.2 -45.55 -176.5 -57.25 M-205.25 -65.05 L-205.5 -75.9 -195.95 -76.0 M-204.45 -34.45 L-204.75 -45.4 -214.7 -45.45 M-214.7 -10.4 L-203.75 -11.05 -204.1 -23.15 -214.7 -22.85 M-204.1 -23.15 L-204.45 -34.45 -194.95 -34.1 -194.65 -23.4 -185.2 -23.7 -185.45 -33.75 -177.8 -33.45 -175.9 -33.45 -176.2 -45.55 -166.7 -46.1 -167.0 -57.6 -157.35 -58.05 -157.55 -66.55 -149.05 -67.9 -149.4 -81.0 -147.25 -81.8 M-166.4 -33.6 L-175.9 -33.45 -175.9 -33.15 -175.65 -24.0 -166.15 -24.45 -166.4 -32.9 -166.4 -33.6 -166.7 -46.1 -157.1 -46.95 -157.35 -58.05 -148.8 -58.65 -149.05 -67.9 Q-144.95 -68.75 -142.65 -69.85 M-194.65 -23.4 L-194.35 -11.55 -184.85 -12.1 -185.2 -23.7 -176.5 -24.0 -175.65 -24.0 -175.3 -12.65 -165.85 -13.35 -166.15 -24.45 -156.6 -25.05 -156.8 -32.7 -156.8 -34.1 -166.4 -33.6 M-184.85 -12.1 L-175.6 -12.65 -175.3 -12.65 -174.85 2.8 -170.05 2.85 -165.35 2.85 -165.85 -13.35 -156.3 -14.05 -156.6 -25.05 -147.85 -25.65 -148.1 -34.9 -156.8 -34.1 -157.1 -46.95 -148.5 -48.15 -148.8 -58.65 Q-141.15 -59.4 -138.95 -60.35 L-138.6 -50.45 -135.55 -51.6 M-194.65 -23.4 L-204.1 -23.15 M-203.75 -11.05 L-194.35 -11.55 -193.9 2.5 -184.45 2.65 -184.85 -12.1 M-43.0 -186.6 Q-28.3 -182.95 -13.4 -180.3 L-8.15 -179.4 -8.15 -173.25 -8.45 -173.1 -8.15 -173.05 -8.2 -163.3 -2.3 -162.3 -8.2 -160.3 -8.25 -155.3 4.5 -159.9 M-24.85 -176.35 L-24.8 -182.45 -34.75 -178.2 -26.05 -176.6 -24.85 -176.35 -8.45 -173.1 -24.9 -166.95 -24.9 -166.45 -13.85 -164.3 -8.2 -163.3 -8.2 -160.3 -24.6 -154.75 -22.8 -150.4 -22.25 -150.3 -8.25 -155.3 -8.25 -147.7 -12.25 -148.4 -22.25 -150.3 -22.7 -150.1 -20.05 -143.35 -25.1 -141.55 -25.2 -132.2 -15.65 -130.4 -15.15 -130.55 -15.05 -130.3 -10.3 -129.45 -8.35 -129.1 -8.35 -119.3 -10.75 -118.65 -8.3 -112.1 -8.3 -111.1 -7.95 -111.05 -5.85 -105.35 6.8 -107.85 M-24.9 -166.45 L-25.75 -166.65 -31.8 -164.35 -29.15 -163.85 Q-28.35 -163.6 -25.0 -155.7 L-24.9 -166.45 M-34.75 -178.2 L-43.1 -174.7 -43.15 -170.6 Q-34.5 -168.45 -25.75 -166.65 L-24.9 -166.95 -24.85 -176.35 M-25.0 -155.7 L-24.6 -154.75 -25.0 -154.65 -25.05 -150.85 -22.8 -150.4 -22.7 -150.1 -25.05 -149.25 -25.1 -141.55 -41.95 -135.7 -25.2 -132.2 -25.25 -127.45 -15.65 -130.4 -15.05 -130.3 -10.75 -118.65 -25.35 -114.85 -25.35 -114.15 -8.45 -111.15 -8.3 -111.1 -8.3 -104.9 -5.85 -105.35 -1.65 -93.75 -8.25 -92.7 -8.25 -90.0 -16.5 -91.4 -25.55 -90.0 -25.55 -89.7 -20.65 -75.7 -8.15 -76.8 -8.1 -70.45 -19.5 -72.4 -16.5 -63.6 -25.75 -63.25 -25.8 -55.45 -12.95 -53.25 -11.7 -49.6 -7.9 -49.7 -7.75 -38.1 -5.95 -32.8 -7.7 -32.9 -7.65 -29.75 -4.8 -29.35 -3.25 -24.8 -0.8 -17.55 -7.45 -18.15 -7.45 -17.7 -7.25 -8.6 -22.75 -11.05 -19.4 -0.95 -7.05 0.95 M-25.05 -150.85 L-25.05 -149.25 -43.45 -142.65 -43.5 -139.3 -42.1 -135.75 -41.95 -135.7 -42.1 -135.65 -37.65 -123.7 -25.25 -127.45 -25.35 -114.85 -26.9 -114.45 -25.35 -114.15 -25.45 -101.5 -8.3 -104.9 -8.25 -92.7 -16.5 -91.4 -25.5 -93.05 -25.55 -90.0 -25.65 -89.95 -25.55 -89.7 -25.65 -75.25 -20.65 -75.7 -19.5 -72.4 -25.65 -73.5 -25.75 -63.25 -39.95 -62.65 -38.35 -57.8 -25.8 -55.45 -25.85 -49.4 -11.7 -49.6 -7.75 -38.1 -7.7 -32.9 -26.0 -33.7 -26.0 -32.8 -7.65 -29.75 -7.45 -18.15 -25.65 -19.8 -22.75 -11.05 -26.15 -11.6 -26.15 -1.95 -19.4 -0.95 -16.2 8.8 -6.85 10.2 -6.75 15.8 11.55 19.0 M-25.0 -155.7 L-25.0 -154.65 -32.0 -152.3 -25.05 -150.85 M-46.0 -187.35 L-43.0 -186.6 -43.05 -179.75 -34.75 -178.2 M-58.9 -174.7 L-49.2 -172.1 -43.1 -174.7 -43.05 -179.75 -58.9 -182.75 M-80.0 -169.85 L-72.55 -169.05 M-58.9 -167.65 L-43.2 -165.9 -43.15 -170.6 -47.8 -171.75 -49.2 -172.1 -58.9 -168.0 M-58.9 -158.85 L-51.65 -156.95 -43.25 -160.1 -43.2 -165.9 -31.8 -164.35 -43.25 -160.1 -43.3 -154.85 -32.0 -152.3 -43.4 -148.45 -43.45 -142.65 -44.6 -142.2 -43.5 -139.3 -43.5 -136.05 -42.1 -135.75 -42.1 -135.65 -43.5 -135.15 -43.65 -121.85 -37.65 -123.7 -34.85 -116.05 -26.9 -114.45 -33.65 -112.7 -29.4 -100.75 -25.45 -101.5 -25.5 -93.05 -26.8 -93.3 -25.65 -89.95 -44.05 -87.1 -44.15 -77.15 -31.9 -74.65 -25.65 -75.25 -25.65 -73.5 -31.9 -74.65 -43.7 -73.6 -39.95 -62.65 -44.35 -62.45 -44.35 -59.05 -38.35 -57.8 -35.45 -49.2 -25.85 -49.4 -26.0 -33.7 -30.3 -33.9 -30.2 -33.55 -26.0 -32.8 -26.1 -21.2 -25.65 -19.8 -26.1 -19.85 -26.15 -15.95 -26.15 -11.6 -42.65 -14.55 -39.15 -3.95 -26.15 -1.95 -26.1 7.2 -16.2 8.8 -14.35 14.45 -6.75 15.8 -6.25 32.8 16.45 37.5 M-58.9 -154.2 L-56.75 -155.0 -58.9 -155.3 M-58.9 -143.2 L-46.7 -147.3 Q-49.4 -153.7 -50.15 -153.9 L-56.75 -155.0 -51.65 -156.95 -47.35 -155.85 -43.3 -154.85 -43.4 -148.45 -46.7 -147.3 -44.6 -142.2 -54.35 -138.7 -46.85 -136.85 -43.5 -136.05 -43.5 -135.15 -58.9 -129.8 M-58.9 -121.55 L-50.9 -119.65 -43.65 -121.85 -43.7 -117.95 -34.85 -116.05 -33.65 -112.7 -43.8 -110.1 -43.95 -97.85 -29.4 -100.75 -26.8 -93.3 -43.95 -96.8 -44.05 -87.1 -48.1 -86.45 -44.95 -77.35 -44.15 -77.15 -44.2 -75.05 -43.7 -73.6 -44.2 -73.55 -44.35 -62.45 -57.7 -61.9 -44.65 -59.1 -44.35 -59.05 -44.45 -49.05 -35.45 -49.2 -30.3 -33.9 -32.7 -34.0 -30.2 -33.55 -27.95 -26.75 -26.1 -21.2 -26.1 -19.85 -44.75 -21.55 -44.75 -21.05 -42.65 -14.55 -43.25 -14.7 -44.85 -15.0 -44.9 -9.3 -44.9 -4.8 -39.15 -3.95 -36.05 5.5 -26.1 7.2 -26.1 12.25 -22.0 13.0 -14.35 14.45 -8.45 32.35 -6.25 32.8 -6.2 34.45 -7.85 34.15 -6.05 39.65 -5.75 48.85 -2.85 49.55 M-58.9 -137.05 L-54.35 -138.7 -58.9 -139.85 M-72.65 -149.05 L-77.8 -147.15 -72.65 -146.4 M-72.8 -113.0 L-75.75 -112.1 -72.85 -104.0 M-72.75 -125.0 L-79.65 -122.6 -75.75 -112.1 -92.1 -107.15 -88.85 -98.4 -72.85 -102.55 M-50.9 -119.65 L-46.25 -118.55 -43.7 -117.95 -43.8 -110.1 -55.25 -107.1 -52.35 -98.7 -46.45 -97.35 -43.95 -97.85 -43.95 -96.8 -45.7 -97.2 -46.45 -97.35 -51.5 -96.35 -48.1 -86.45 -58.9 -84.75 M-58.9 -80.45 L-45.2 -77.4 -44.95 -77.35 -44.2 -75.05 -44.2 -73.55 -58.9 -72.25 M-58.9 -63.35 L-58.45 -62.1 -57.7 -61.9 -58.4 -61.9 -54.05 -48.9 -44.45 -49.05 -44.6 -36.25 -44.0 -36.15 -32.7 -34.0 -44.65 -34.5 -44.75 -21.55 -44.95 -21.55 -44.75 -21.05 -44.85 -15.0 -58.9 -17.8 M-58.9 -12.7 L-56.8 -6.6 -44.9 -4.8 -44.95 3.85 -42.7 4.3 -36.05 5.5 -34.35 10.65 -26.1 12.25 -26.0 28.4 -8.45 32.35 -7.85 34.15 -26.0 30.75 -25.95 36.5 -23.4 44.45 -19.0 45.55 -5.75 48.85 -5.6 53.1 -1.5 53.65 M-58.9 -117.25 L-50.9 -119.65 M-58.9 -106.15 L-55.25 -107.1 -58.9 -117.25 M-58.9 -100.25 L-52.35 -98.7 -51.5 -96.35 -58.9 -94.9 M-111.8 -161.05 L-101.7 -160.0 -80.0 -169.85 -90.9 -171.0 M-119.85 -151.8 L-103.75 -150.15 -101.7 -149.9 -82.55 -158.0 -83.15 -158.1 -101.7 -160.0 -119.85 -151.8 M-151.75 -103.65 L-143.15 -106.7 -140.65 -101.4 -130.05 -105.1 -132.55 -110.55 -115.65 -116.6 Q-117.6 -121.1 -118.75 -123.05 L-101.1 -129.0 Q-102.05 -130.8 -102.5 -130.95 L-115.95 -132.85 -97.65 -139.7 -119.65 -142.2 -119.95 -142.2 -101.7 -149.9 -77.8 -147.15 -97.65 -139.7 -86.65 -138.05 Q-86.05 -137.9 -84.5 -134.6 L-72.7 -138.55 M-101.1 -129.0 L-84.5 -134.6 -82.05 -128.75 -72.75 -132.1 M-115.65 -116.6 L-113.3 -110.9 -95.85 -116.95 -98.25 -122.9 -115.65 -116.6 M-113.3 -110.9 L-109.7 -101.8 -92.1 -107.15 -95.85 -116.95 -79.65 -122.6 -82.05 -128.75 -98.25 -122.9 Q-100.0 -127.0 -101.1 -129.0 M-130.05 -105.1 L-113.3 -110.9 M-82.55 -81.05 L-85.65 -89.65 -103.75 -86.1 -100.85 -78.15 -82.55 -81.05 -72.95 -82.55 M-88.85 -98.4 L-85.65 -89.65 -72.9 -92.15 M-103.75 -86.1 L-120.85 -82.75 -118.0 -75.45 -100.85 -78.15 -97.4 -68.7 -78.8 -70.4 -82.55 -81.05 M-88.85 -98.4 L-106.6 -93.75 -103.75 -86.1 M-114.75 -67.15 L-111.85 -59.7 -94.4 -60.4 -97.4 -68.7 -114.75 -67.15 -118.0 -75.45 -129.05 -73.75 -126.0 -66.1 -114.75 -67.15 M-134.25 -86.6 L-123.5 -89.4 -126.5 -96.7 -137.15 -93.45 -134.25 -86.6 -131.8 -80.6 -120.85 -82.75 -123.5 -89.4 -106.6 -93.75 -109.7 -101.8 -126.5 -96.7 -130.05 -105.1 M-142.05 -78.6 L-131.8 -80.6 -129.05 -73.75 M-123.3 -59.2 L-126.0 -66.1 -136.85 -65.15 M-130.1 -47.7 L-118.9 -47.85 -123.3 -59.2 -111.85 -59.7 -107.4 -48.05 -90.1 -48.35 -94.4 -60.4 -75.6 -61.2 -78.8 -70.4 -73.0 -70.95 M-146.65 -90.55 L-137.15 -93.45 -140.65 -101.4 M-126.35 -38.1 L-115.0 -37.65 -118.9 -47.85 -107.4 -48.05 -103.25 -37.1 -85.85 -36.35 -90.1 -48.35 -73.1 -48.6 M-130.95 -39.7 Q-133.5 -38.0 -138.1 -36.75 L-137.75 -26.65 -130.2 -27.8 -130.9 -39.6 M-130.2 -27.8 L-126.65 -28.7 M-122.7 -28.6 L-111.15 -27.55 -111.35 -28.1 -115.0 -37.65 -103.25 -37.1 -101.6 -32.75 -99.25 -26.5 -81.85 -24.9 -83.15 -28.65 -85.85 -36.35 -73.2 -35.8 M-148.5 -48.15 L-148.1 -34.9 Q-142.3 -35.65 -138.1 -36.75 L-138.6 -50.45 Q-142.65 -49.15 -148.5 -48.15 M-156.3 -14.05 L-147.55 -14.85 -147.8 -23.25 -147.85 -25.65 -137.75 -26.65 -137.4 -15.85 -129.55 -16.85 -130.2 -27.8 M-129.55 -16.85 L-122.55 -18.1 M-137.4 -15.85 L-137.15 -8.7 -136.7 2.15 -128.5 1.55 -129.55 -16.85 M-147.55 -14.85 L-137.4 -15.85 M-114.1 -6.35 L-102.05 -3.6 -106.0 -14.05 -117.75 -15.85 M-109.35 5.85 L-97.1 9.5 -102.05 -3.6 -89.65 -0.8 -93.9 -12.25 -106.0 -14.05 -111.15 -27.55 -99.25 -26.5 -93.9 -12.25 -76.5 -9.6 -81.85 -24.9 -73.25 -24.15 M-89.65 -0.8 L-87.65 -0.35 -73.35 2.7 M-75.6 -61.2 L-73.05 -61.3 M-73.1 -54.05 L-75.6 -61.2 M-58.9 -62.2 L-58.45 -62.1 -58.4 -61.9 -58.9 -61.85 M-58.9 -48.85 L-54.05 -48.9 -50.2 -37.45 -44.6 -36.25 -44.65 -34.5 -49.3 -34.7 -46.85 -27.3 -44.95 -21.55 -58.9 -22.85 M-58.9 -39.25 L-50.2 -37.45 -49.3 -34.7 -58.9 -35.15 M-76.5 -9.6 L-73.3 -9.1 M-73.35 -0.55 L-76.5 -9.6 M-58.9 -6.95 L-56.8 -6.6 -53.85 2.15 -44.95 3.85 -45.0 8.55 -34.35 10.65 -28.8 27.7 -26.75 28.2 -26.0 28.4 -26.0 30.75 -27.95 30.4 -25.95 36.5 -25.9 43.8 -23.4 44.45 -21.35 50.75 -5.6 53.1 -4.95 70.25 -16.25 66.55 -14.1 73.15 -25.55 71.6 -25.5 76.45 M-58.9 1.15 L-53.85 2.15 -52.15 7.1 -45.0 8.55 -45.05 23.75 -28.8 27.7 -27.95 30.4 -45.05 27.0 -45.05 28.25 -41.2 39.65 -25.9 43.8 -25.85 50.05 -21.35 50.75 -16.25 66.55 -20.75 65.05 -25.7 63.35 -25.55 71.6 -30.8 70.85 -29.5 74.8 M-72.6 -162.2 L-82.55 -158.0 -72.6 -156.95 M-58.9 5.75 L-52.15 7.1 -46.7 23.35 -45.05 23.75 -45.05 27.0 -45.5 26.9 -45.05 28.25 -45.05 38.6 -41.2 39.65 -38.45 47.95 -25.85 50.05 -25.7 63.35 -34.3 60.35 -30.8 70.85 -40.55 69.4 -44.05 68.85 -45.05 68.65 -45.0 74.05 -44.95 88.55 -58.9 86.35 M-58.9 24.2 L-45.5 26.9 -46.7 23.35 -58.9 20.2 M-73.45 16.3 L-84.45 13.25 -78.8 28.65 -73.5 30.3 M-73.55 42.9 L-78.8 28.65 -81.7 27.75 -91.5 24.6 -85.7 40.25 -78.55 43.35 Q-76.1 44.35 -73.6 45.4 M-58.9 44.2 L-57.9 44.35 -58.9 41.5 M-45.05 38.6 L-45.05 46.75 -41.0 47.5 -38.45 47.95 -34.3 60.35 -45.05 56.45 -55.05 52.7 -50.5 66.2 M-57.9 44.35 L-45.05 46.75 -45.05 56.45 -45.05 68.45 -45.05 68.65 -58.9 66.35 M-58.9 111.85 L-44.75 113.55 -44.4 136.45 -36.5 137.35 -23.7 138.65 Q-23.0 154.4 -22.05 165.6 L-35.35 164.85 -43.55 164.3 Q-42.75 182.85 -41.45 187.6 M-58.9 34.65 L-45.05 38.6 M-58.9 51.25 L-55.05 52.7 -57.9 44.35 M-84.45 13.25 L-86.95 12.55 -97.1 9.5 -91.5 24.6 -103.6 20.65 M-98.1 34.85 L-85.7 40.25 -80.75 53.75 M-110.1 14.0 L-117.7 15.35 -117.55 18.45 -116.75 30.0 Q-108.4 29.1 -104.75 27.85 M-115.9 -0.95 Q-116.9 -0.45 -118.6 0.0 L-117.7 15.35 -127.55 16.6 -126.55 30.85 -116.75 30.0 -115.7 43.05 Q-104.15 42.05 -99.85 40.5 M-136.7 2.15 L-136.05 17.35 -127.55 16.6 -128.45 2.4 -128.5 1.55 -118.6 0.0 -119.15 -9.3 M-146.45 17.9 L-147.0 2.55 -155.8 2.75 -155.3 18.15 -146.45 17.9 -136.05 17.35 -135.4 31.3 -126.55 30.85 -125.45 43.75 -115.7 43.05 -114.85 49.75 M-145.25 44.6 L-145.9 31.7 -154.8 31.9 -154.25 44.8 -145.25 44.6 -134.7 44.2 -135.4 31.3 -145.9 31.7 -146.45 17.9 M-134.7 44.2 L-125.45 43.75 -124.7 50.35 M-155.3 18.15 L-154.8 31.9 -164.35 32.05 -163.75 44.95 -163.25 44.95 -154.25 44.8 -153.7 52.0 M-136.7 2.15 L-147.0 2.55 -147.55 -14.85 M-134.1 50.9 L-134.7 44.2 M-144.75 51.5 L-145.25 44.6 M-58.9 134.8 L-44.4 136.45 -43.55 164.3 -58.9 163.25 M-174.35 18.15 L-174.85 2.8 -184.45 2.65 -183.95 17.75 -175.7 18.1 -174.35 18.15 -164.85 18.2 -165.35 2.85 -155.8 2.75 -156.3 -14.05 M-193.9 2.5 L-193.45 17.3 -183.95 17.75 -183.4 31.95 -173.85 32.0 -174.35 18.15 M-192.3 44.95 L-192.9 31.9 -202.3 31.85 -201.7 44.95 -192.3 44.95 -182.8 44.95 -183.4 31.95 -192.9 31.9 -193.45 17.3 -202.9 16.9 -202.3 31.85 M-164.35 32.05 L-165.7 32.05 -173.85 32.0 -173.25 44.95 -163.75 44.95 -163.25 52.45 M-155.3 18.15 L-164.85 18.2 -164.35 32.05 M-182.8 44.95 L-173.25 44.95 -172.7 52.95 M-202.9 16.9 L-203.35 2.35 -214.7 2.15 M-201.05 54.25 L-201.7 44.95 M-193.9 2.5 L-203.35 2.35 -203.75 -11.05 M-182.2 53.4 L-182.8 44.95 M-191.65 53.85 L-192.3 44.95 M-84.45 13.25 L-89.65 -0.8" fill="none" stroke="#000000" stroke-linecap="round" stroke-linejoin="miter-clip" stroke-miterlimit="10.0" stroke-opacity="0.6" stroke-width="1.0"/>
    <path d="M76.35 -169.15 L76.1 -169.8 Q74.35 -174.45 72.5 -176.6 L70.55 -178.1 70.55 -178.4 68.6 -178.1 1.3 -184.1 -51.45 -188.8 -58.9 -189.5 -58.9 -190.85 Q-59.8 -193.1 -61.6 -195.05 -64.05 -197.6 -66.9 -197.7 -65.85 -198.4 -64.45 -198.3 L68.65 -186.45 Q71.15 -186.95 73.9 -185.75 79.9 -183.05 83.9 -172.7 L220.4 179.65 Q221.15 181.6 219.95 183.4 218.9 185.1 216.65 185.25 L-59.75 196.6 Q-64.6 199.2 -69.8 198.0 L-74.35 196.05 -73.65 61.85 -93.55 53.4 -154.6 55.95 -214.7 58.35 -214.7 58.6 Q-217.3 60.1 -219.2 59.5 L-220.6 58.6 -220.6 -109.7 Q-221.0 -114.15 -219.05 -116.7 L-217.1 -118.25 -70.15 -197.15 Q-68.45 -197.8 -66.9 -197.7 M198.85 168.6 L208.7 172.65 76.35 -169.15 M165.65 154.95 L182.05 161.7 198.85 168.6 M162.95 153.85 L165.65 154.95 M162.95 153.85 L141.15 144.9 133.6 141.8 118.9 135.75 109.25 131.8 88.25 123.15 79.3 119.5 72.05 116.5 47.8 106.55 39.5 103.15 25.2 97.3 22.4 96.15 10.7 91.35 -4.25 85.2 -11.2 82.35 -25.5 76.45 -29.5 74.8 -44.05 68.85 -45.05 68.45 -50.5 66.2 -58.9 62.75 -58.9 51.25 -58.9 44.2 -58.9 41.5 -58.9 34.65 -58.9 24.2 -58.9 20.2 -58.9 5.75 -58.9 1.15 -58.9 -6.95 -58.9 -12.7 -58.9 -17.8 -58.9 -22.85 -58.9 -35.15 -58.9 -39.25 -58.9 -48.85 -58.9 -61.85 -58.9 -62.2 -58.9 -63.35 -58.9 -72.25 -58.9 -80.45 -58.9 -84.75 -58.9 -94.9 -58.9 -100.25 -58.9 -106.15 -58.9 -117.25 -58.9 -121.55 -58.9 -129.8 -58.9 -137.05 -58.9 -139.85 -58.9 -143.2 -58.9 -154.2 -58.9 -155.3 -58.9 -158.85 -58.9 -167.65 -58.9 -168.0 -58.9 -174.7 -58.9 -182.75 -58.9 -189.5 M137.15 151.5 L165.45 163.55 171.25 166.0 198.9 177.75 205.9 177.45 210.5 177.25 208.7 172.65 M178.85 178.6 L198.9 177.75 M178.85 178.6 L149.3 179.8 123.5 180.9 92.6 182.15 64.85 183.3 38.8 184.4 6.95 185.7 -19.25 186.75 -41.45 187.6 -58.9 188.2 -58.9 196.05 -59.75 196.6 M111.55 140.6 L122.85 145.4 137.15 151.5 M-3.95 91.5 L4.55 95.1 23.2 103.05 49.0 114.05 69.35 122.7 80.9 127.6 111.55 140.6 M-25.4 82.4 L-3.95 91.5 M-203.15 -117.7 L-208.75 -115.05 -210.1 -114.3 -204.0 -113.75 -190.2 -112.5 -174.1 -111.1 -158.45 -109.7 -158.35 -109.7 -156.2 -109.35 Q-153.65 -108.3 -151.75 -103.65 L-146.65 -90.55 -142.05 -78.6 -136.85 -65.15 -130.1 -47.7 -126.35 -38.1 -122.7 -28.6 -117.75 -15.85 -114.1 -6.35 -109.35 5.85 -103.6 20.65 -98.1 34.85 -92.6 49.1 -91.9 50.95 Q-91.55 51.85 -92.05 52.6 -92.65 53.4 -93.55 53.4 M-203.15 -117.7 L-190.4 -123.75 -175.15 -131.0 -161.0 -137.7 -145.8 -144.9 -129.25 -152.8 -111.8 -161.05 -90.9 -171.0 -78.5 -176.9 -76.4 -178.35 Q-74.05 -179.1 -72.55 -175.7 L-72.55 -169.05 -72.6 -162.2 -72.6 -156.95 -72.65 -149.05 -72.65 -146.4 -72.7 -138.55 -72.75 -132.1 -72.75 -125.0 -72.8 -113.0 -72.85 -104.0 -72.85 -102.55 -72.9 -92.15 -72.95 -82.55 -73.0 -70.95 -73.05 -61.3 -73.1 -54.05 -73.1 -48.6 -73.2 -35.8 -73.25 -24.15 -73.3 -9.1 -73.35 -0.55 -73.35 2.7 -73.45 16.3 -73.5 30.3 -73.55 42.9 -73.6 45.4 -73.65 56.7 -73.65 61.85 M-214.7 54.75 L-214.7 2.15 -214.7 -10.4 -214.7 -22.85 -214.7 -45.45 -214.7 -65.1 -214.7 -75.8 -214.7 -97.8 -214.7 -106.7 Q-214.7 -108.15 -213.95 -109.85 L-213.45 -110.85 Q-212.25 -112.95 -210.1 -114.3 M-206.35 -110.25 L-213.45 -110.85 M-187.3 -108.55 L-196.75 -109.4 -206.35 -110.25 M-187.3 -108.55 L-177.8 -107.75 -168.25 -106.9 -158.5 -106.05 -157.6 -106.1 -157.6 -106.05 Q-156.25 -105.35 -155.75 -103.8 L-151.75 -93.5 -149.5 -87.6 -147.25 -81.8 -142.65 -69.85 -138.95 -60.35 -135.55 -51.6 -130.95 -39.7 -130.9 -39.6 -126.65 -28.7 -122.55 -18.1 -119.15 -9.3 -115.9 -0.95 -110.1 14.0 -104.75 27.85 -99.85 40.5 -96.8 48.4 -114.85 49.75 -124.7 50.35 -134.1 50.9 -144.75 51.5 -153.7 52.0 -163.25 52.45 -170.35 52.8 -172.7 52.95 -182.2 53.4 -191.65 53.85 -201.05 54.25 -214.7 54.75 -214.7 58.35 M-45.0 74.05 L-25.4 82.4 M-58.9 66.35 L-58.9 68.15 -45.0 74.05 M-58.9 86.35 L-58.9 111.85 -58.9 134.8 -58.9 163.25 -58.9 188.2 M-58.9 66.35 L-58.9 62.75 M-80.75 53.75 L-73.65 56.7 M-58.9 68.15 L-58.9 86.35 M-80.75 53.75 L-92.2 49.05 -92.6 49.1" fill="none" stroke="#000000" stroke-linecap="round" stroke-linejoin="miter-clip" stroke-miterlimit="10.0" stroke-width="1.0"/>
    <path d="M65.05 -172.95 L64.85 -173.75 M92.3 -108.5 L93.1 -108.65 M65.05 -172.95 L71.95 -175.35 M-8.15 -180.05 L-8.15 -179.4 M87.4 -85.5 L97.9 -86.45 M92.1 -68.15 L103.0 -68.6 M27.05 -172.2 L26.75 -173.75 M33.85 -174.5 L27.05 -172.2 M93.4 -63.45 L104.5 -64.35 M96.7 -51.4 L107.65 -51.6 M98.45 -45.15 L110.05 -46.05 M103.25 -28.0 L115.7 -27.45 M104.95 -22.2 L117.2 -23.1 M109.15 -7.6 L121.9 -6.45 M117.4 18.25 L129.85 17.35 M124.45 -1.6 L125.05 -1.65 M132.4 22.05 L133.0 22.15 M125.4 41.75 L137.8 40.35 M146.45 104.3 L163.9 106.2 M128.75 51.7 L142.7 52.05 M136.0 32.4 L137.0 32.4 M146.65 61.7 L147.25 61.65 M138.85 81.65 L152.9 80.65 M152.25 121.6 L170.35 119.85 M160.55 143.8 L181.6 141.9 M-205.8 -87.8 L-214.1 -87.75 M-129.05 -73.75 L-138.95 -72.2 M-140.65 -101.4 L-149.3 -98.4 M-202.3 31.85 L-214.1 31.8 M-201.7 44.95 L-214.1 44.95" fill="none" stroke="#000000" stroke-linecap="round" stroke-linejoin="miter-clip" stroke-miterlimit="10.0" stroke-opacity="0.6" stroke-width="1.0"/>
    <path d="M41.05 -172.2 L42.55 -165.15 M193.45 160.15 L193.05 160.2 M-213.5 -56.75 L-205.05 -56.85 M-213.5 -34.8 L-204.45 -34.45 M-43.0 -187.2 L-43.0 -186.6 M-73.15 -172.95 L-80.0 -169.85 M-133.4 -58.8 L-123.3 -59.2 M-143.75 -84.15 L-134.25 -86.6 M-214.1 16.35 L-202.9 16.9" fill="none" stroke="#000000" stroke-linecap="butt" stroke-linejoin="miter-clip" stroke-miterlimit="10.0" stroke-opacity="0.6" stroke-width="1.0"/>
    <path d="M-68.65 -184.8 L-68.65 188.7 -71.8 188.7 -71.8 -184.8 -68.65 -184.8" fill="#ffffff" fill-opacity="0.6" fill-rule="evenodd" stroke="none"/>
  </g>
</svg>
