<?xml version="1.0" encoding="UTF-8" standalone="no"?>
<svg xmlns:xlink="http://www.w3.org/1999/xlink" height="349.25px" width="508.15px" xmlns="http://www.w3.org/2000/svg">
  <g transform="matrix(1.0, 0.0, 0.0, 1.0, 254.85, 173.25)">
    <path d="M82.3 -130.15 Q68.5 -126.7 51.7 -126.45 38.85 -126.25 1.75 -129.5 20.55 -129.9 38.65 -132.3 60.95 -135.2 74.55 -140.35 86.4 -144.8 102.05 -151.45 L129.3 -163.25 Q143.5 -169.4 153.05 -171.3 164.35 -173.6 178.3 -172.2 198.4 -170.2 212.6 -162.5 227.25 -154.6 239.1 -138.85 252.2 -121.5 252.75 -105.0 253.3 -90.25 243.75 -77.0 234.5 -64.05 216.95 -54.1 201.0 -45.0 181.95 -40.35 166.25 -36.5 150.6 -35.65 145.4 -39.45 138.9 -42.75 145.4 -39.45 150.6 -35.65 166.9 -23.75 170.3 -7.4 172.3 2.35 171.3 17.35 L169.7 41.0 Q169.65 53.5 173.75 60.65 178.85 69.55 191.6 73.5 L193.95 75.1 Q196.95 76.9 200.3 78.15 203.0 79.15 214.05 105.1 226.0 133.3 230.3 138.5 235.7 145.15 236.2 154.1 236.45 158.55 235.6 161.7 L223.25 161.7 204.85 161.7 197.6 161.7 Q196.3 156.4 195.7 150.95 194.55 140.0 198.3 139.15 L204.3 138.5 Q203.15 130.4 198.2 120.85 188.35 101.75 169.6 94.7 160.0 91.1 153.9 92.5 152.25 92.9 147.0 95.95 144.4 97.5 141.75 94.8 138.55 91.6 130.95 78.8 124.35 67.75 119.2 55.7 L115.7 46.95 102.6 53.6 Q74.95 67.85 61.6 76.15 48.25 84.45 62.25 95.7 69.3 101.35 78.95 105.35 77.3 108.15 73.45 111.7 65.75 118.85 54.95 122.55 44.1 126.3 35.45 130.8 L28.95 134.5 2.35 136.25 -12.1 136.6 Q-24.0 136.45 -23.75 134.5 -22.85 128.55 -16.85 122.65 -13.85 119.7 -11.05 117.95 L-6.7 119.5 Q-1.05 121.0 5.6 120.6 12.25 120.15 25.6 112.7 32.25 109.0 37.6 105.35 42.75 100.75 40.2 94.05 37.3 86.6 26.25 84.75 16.25 83.1 16.6 75.5 16.7 73.1 17.85 70.4 L18.95 68.2 Q21.05 56.75 32.0 37.8 L25.6 41.65 Q-0.05 58.3 -24.15 63.45 -23.7 66.55 -23.9 70.55 L-24.25 73.95 -24.25 74.2 -24.3 74.4 Q-24.85 78.7 -25.75 81.95 L-29.25 76.5 -30.3 84.15 -31.75 95.9 Q-32.05 99.3 -33.95 90.7 L-35.75 81.45 -35.75 98.85 -40.75 89.4 Q-41.35 91.65 -43.1 95.05 -46.6 101.9 -52.25 107.8 -56.35 112.15 -69.75 134.95 -82.45 156.6 -87.25 160.55 -92.85 165.2 -99.1 168.55 L-104.25 171.0 -127.75 172.45 -129.55 172.5 -143.65 172.75 Q-155.05 172.65 -155.25 171.0 -155.6 168.35 -149.85 158.75 -144.7 150.05 -142.25 147.6 -140.8 146.15 -132.1 146.85 L-121.25 147.6 Q-119.25 147.3 -115.35 139.35 -107.65 123.35 -104.25 117.25 -93.75 98.35 -93.75 80.45 -93.75 78.3 -87.55 74.05 -80.9 69.5 -80.25 68.05 L-80.2 68.0 -80.2 67.85 -80.2 67.8 -80.2 67.6 -80.2 67.3 -80.35 66.7 -80.5 66.2 -80.5 66.1 -80.55 66.05 -80.6 65.85 -80.7 65.5 -80.75 65.4 -80.9 65.0 -81.05 64.7 -81.1 64.6 Q-82.95 60.45 -88.65 51.55 L-89.0 51.0 -89.05 50.95 Q-95.7 46.0 -101.75 39.45 L-102.4 47.7 Q-103.4 57.95 -105.05 67.55 -116.4 78.8 -123.05 86.75 -126.6 91.0 -133.3 101.85 -141.1 114.45 -145.05 119.9 -150.45 127.35 -153.3 136.65 -154.7 141.3 -155.05 144.45 L-157.4 145.95 Q-160.4 147.6 -163.75 148.45 -167.05 149.25 -171.75 154.9 L-175.75 160.4 -192.75 162.15 -211.75 164.35 Q-213.0 164.65 -220.25 164.4 L-245.05 163.05 -236.45 153.15 Q-227.65 142.7 -226.4 139.8 -225.2 137.05 -215.05 138.65 L-203.75 140.5 Q-202.0 139.9 -196.8 136.4 -191.15 132.6 -188.4 129.85 -185.35 126.85 -178.9 115.05 -172.35 103.05 -170.4 96.7 -168.75 91.35 -158.1 67.65 L-147.75 45.0 -146.4 33.7 Q-146.9 32.7 -148.5 31.75 -151.65 29.75 -157.05 29.75 -162.45 29.75 -173.95 36.05 L-174.35 36.3 -176.7 39.05 Q-179.0 41.95 -182.9 47.75 L-186.35 52.95 -196.05 58.05 -201.4 55.9 Q-207.9 62.95 -211.0 64.35 -212.95 65.25 -215.6 63.5 L-217.85 61.6 -219.7 51.1 Q-218.25 42.9 -217.95 40.1 -217.3 34.9 -223.25 29.15 -224.05 30.8 -228.5 32.75 -232.0 34.3 -234.95 35.0 L-237.8 35.5 -241.4 35.2 Q-242.6 34.65 -243.7 32.65 L-244.55 30.8 -248.1 27.65 Q-251.8 24.1 -252.5 22.15 -251.6 24.5 -246.2 29.4 L-242.7 21.5 -240.75 21.0 -237.9 20.0 Q-232.75 17.2 -233.9 13.9 -234.6 11.95 -240.7 12.6 L-246.65 13.6 -247.8 14.15 Q-245.95 13.15 -243.35 8.8 L-240.9 4.15 -239.95 3.0 -238.15 1.4 -234.45 -0.5 -233.35 -2.0 Q-232.05 -3.6 -230.9 -4.1 -229.0 -4.85 -226.9 -7.45 -227.6 -13.05 -228.15 -15.3 -228.6 -17.2 -224.55 -23.95 -220.35 -31.0 -217.35 -32.5 L-207.8 -38.35 Q-200.5 -42.85 -196.85 -43.75 L-187.15 -46.25 -185.05 -56.6 Q-184.3 -59.8 -183.85 -64.35 L-183.35 -70.65 -182.85 -76.95 Q-182.3 -80.95 -181.15 -81.45 -179.8 -82.0 -173.75 -71.2 -167.85 -60.55 -166.8 -56.25 -166.3 -54.25 -165.15 -52.05 L-157.75 -56.3 -148.75 -61.3 -134.6 -71.35 Q-117.85 -82.3 -104.75 -86.65 L-103.7 -86.6 Q-97.5 -89.8 -90.55 -91.85 L-89.7 -92.1 Q-76.55 -95.8 -60.7 -95.35 -32.6 -94.55 3.15 -80.65 L4.7 -82.7 Q11.55 -90.3 13.95 -94.25 15.9 -97.35 19.1 -101.3 22.85 -106.0 23.6 -105.75 24.45 -105.5 24.8 -101.85 25.1 -98.5 24.8 -96.15 24.65 -95.1 24.75 -85.7 24.8 -76.55 24.4 -74.65 L23.8 -72.55 Q53.1 -61.25 66.5 -57.55 81.9 -53.3 96.95 -53.85 104.75 -54.1 115.65 -51.45 127.65 -48.5 138.35 -43.05 L138.9 -42.75 Q146.95 -43.9 155.4 -45.8 L174.5 -49.9 Q186.2 -52.5 194.3 -55.25 216.8 -62.8 227.2 -76.25 238.85 -91.3 235.0 -111.1 231.15 -130.9 214.55 -140.85 200.9 -149.05 182.05 -150.4 165.35 -151.6 148.05 -147.35 140.25 -145.45 131.55 -140.8 125.85 -137.8 116.25 -131.5 101.5 -121.75 86.4 -119.0 73.45 -116.6 53.55 -118.5 59.4 -118.9 74.25 -122.0 L76.9 -122.5 69.3 -121.85 Q54.45 -120.7 43.45 -121.5 58.95 -123.75 72.25 -127.25 77.25 -128.55 82.3 -130.15 91.9 -132.55 100.05 -136.5 91.05 -132.9 82.3 -130.15 91.05 -132.9 100.05 -136.5 91.9 -132.55 82.3 -130.15 M76.9 -122.5 L95.05 -124.45 Q87.95 -124.65 76.9 -122.5 87.95 -124.65 95.05 -124.45 L76.9 -122.5 M100.4 -142.75 Q120.55 -150.35 130.95 -157.8 L82.3 -136.6 100.4 -142.75 M23.8 -72.55 Q22.85 -69.75 20.9 -66.15 L21.25 -64.0 Q20.95 -61.6 17.8 -60.4 L12.3 -60.25 Q8.65 -60.85 5.3 -62.45 -3.2 -66.55 -1.1 -72.3 L0.65 -76.2 3.15 -80.65 0.65 -76.2 -1.1 -72.3 Q-3.2 -66.55 5.3 -62.45 8.65 -60.85 12.3 -60.25 L17.8 -60.4 Q20.95 -61.6 21.25 -64.0 L20.9 -66.15 Q22.85 -69.75 23.8 -72.55 M226.6 144.7 Q221.55 145.7 221.9 153.8 222.05 157.85 223.25 161.7 222.05 157.85 221.9 153.8 221.55 145.7 226.6 144.7 M211.9 144.7 Q210.75 144.7 209.3 145.2 206.4 146.15 205.0 148.5 203.55 151.0 204.05 156.6 204.3 159.4 204.85 161.7 204.3 159.4 204.05 156.6 203.55 151.0 205.0 148.5 206.4 146.15 209.3 145.2 210.75 144.7 211.9 144.7 M115.7 46.95 L115.5 46.45 115.7 46.95 M115.5 46.45 L112.6 39.6 110.6 35.6 Q108.4 31.8 106.0 29.85 101.9 26.45 94.3 25.75 74.65 23.9 62.7 26.0 48.35 28.5 32.8 37.3 28.8 44.2 25.8 50.55 33.15 46.7 36.85 46.7 40.45 46.7 40.75 50.1 41.05 53.3 38.8 56.7 37.45 58.75 33.95 62.25 31.25 65.0 30.3 66.35 28.7 68.55 28.9 70.25 29.2 72.7 33.05 75.05 42.25 80.85 53.0 92.55 64.05 104.6 64.0 109.35 64.0 110.55 63.05 111.25 L58.75 113.6 Q35.5 126.4 25.95 134.25 L28.75 134.05 Q31.3 132.3 36.1 129.9 44.55 125.6 54.8 122.1 64.35 118.8 71.55 112.7 75.75 109.15 78.2 105.55 71.2 102.55 65.4 98.65 55.25 91.8 54.7 85.6 54.25 80.15 61.35 75.75 73.9 67.95 99.45 54.7 L115.5 46.45 M32.0 37.8 L32.8 37.3 32.0 37.8 M84.95 -7.4 L97.05 11.35 Q109.35 31.0 110.6 35.6 109.35 31.0 97.05 11.35 L84.95 -7.4 M3.75 125.25 Q2.3 125.05 0.2 125.2 -3.9 125.5 -6.8 127.15 -9.25 128.55 -10.95 132.7 L-12.1 136.6 -10.95 132.7 Q-9.25 128.55 -6.8 127.15 -3.9 125.5 0.2 125.2 2.3 125.05 3.75 125.25 M-165.15 -52.05 L-163.75 -49.55 Q-161.5 -45.95 -161.35 -45.25 -160.8 -43.0 -162.85 -28.85 -160.8 -43.0 -161.35 -45.25 -161.5 -45.95 -163.75 -49.55 L-165.15 -52.05 M-198.6 -16.95 L-200.95 -16.3 Q-206.5 -14.75 -208.05 -13.8 -209.9 -12.65 -211.45 -10.35 -212.7 -8.45 -213.2 -6.75 L-213.8 -4.9 -213.3 -4.75 -210.95 -4.55 Q-209.15 -4.45 -207.2 -6.0 -205.25 -7.45 -204.85 -9.1 -204.55 -10.45 -205.25 -11.65 L-206.05 -12.55 -202.25 -14.95 Q-200.0 -16.3 -198.6 -16.95 L-196.95 -17.5 -198.6 -16.95 M-187.65 -32.1 Q-188.5 -32.95 -188.25 -35.6 L-187.75 -40.95 -187.15 -46.25 -187.75 -40.95 -188.25 -35.6 Q-188.5 -32.95 -187.65 -32.1 M-90.55 -91.85 Q-102.15 -85.4 -108.45 -79.75 -112.1 -76.55 -122.35 -65.05 -112.1 -76.55 -108.45 -79.75 -102.15 -85.4 -90.55 -91.85 M-29.5 45.6 Q-33.6 42.25 -36.2 40.85 -39.8 38.85 -43.1 38.85 L-44.35 38.9 Q-47.95 39.35 -48.4 40.7 -48.85 42.05 -46.6 44.75 L-41.8 49.6 Q-37.35 53.75 -36.5 55.35 L-35.8 56.7 -37.2 56.0 Q-40.75 54.3 -42.75 52.8 -41.2 55.25 -39.0 59.25 L-36.15 64.1 -37.55 63.5 Q-42.1 61.45 -46.9 55.55 -44.3 61.5 -41.35 65.75 L-42.15 66.35 Q-43.55 64.55 -46.65 62.0 L-49.8 59.15 Q-48.25 63.0 -47.7 66.45 -47.0 70.8 -47.2 78.75 L-47.2 85.3 -48.1 85.55 -49.05 83.95 Q-51.85 79.25 -52.75 76.55 L-52.7 86.3 -53.65 86.55 Q-54.9 83.8 -55.65 81.05 L-56.85 91.45 -57.8 91.55 -58.3 88.25 Q-59.55 92.05 -62.35 96.9 L-67.7 105.25 Q-72.4 112.4 -73.85 115.35 L-81.5 131.55 -87.9 145.3 Q-90.9 151.6 -93.55 154.45 -96.5 157.6 -102.15 160.1 -104.9 161.35 -108.0 163.5 L-113.4 167.65 -118.3 171.45 -104.35 170.5 -98.8 167.85 Q-92.85 164.6 -87.55 160.15 -84.4 157.5 -78.95 149.15 -75.6 143.95 -68.75 132.25 L-59.95 117.6 Q-55.4 110.45 -52.6 107.5 -47.1 101.75 -43.6 94.95 -41.85 91.55 -41.2 89.3 L-40.85 88.05 -36.25 96.85 -36.25 81.45 -35.25 81.35 Q-33.45 91.55 -32.2 95.5 L-30.75 83.9 -29.7 76.4 -29.55 75.1 -25.95 80.7 Q-24.95 76.5 -24.5 72.0 -23.9 65.1 -25.2 60.7 L-29.5 45.6 M-152.4 -11.45 L-152.65 -12.15 -153.0 -10.75 Q-155.3 -1.05 -157.1 3.75 -160.35 12.35 -164.4 14.2 L-164.9 14.4 -165.1 13.9 Q-165.8 12.0 -166.5 7.9 -168.05 10.55 -169.6 15.5 -171.15 20.05 -172.15 21.95 L-172.7 23.0 -173.1 21.9 Q-174.7 16.75 -176.25 13.85 -175.3 19.4 -177.15 28.05 -179.0 36.45 -182.35 42.8 -187.0 51.5 -192.15 51.55 L-192.85 51.55 -192.65 50.9 Q-192.5 50.45 -192.5 49.8 -193.8 51.1 -197.9 53.35 L-201.35 55.4 -196.1 57.5 -186.7 52.6 Q-181.15 43.85 -177.1 38.75 -174.35 35.3 -170.75 31.9 -167.3 28.7 -165.75 28.05 L-163.3 26.7 Q-155.75 22.15 -150.65 20.65 -146.15 19.35 -133.95 18.6 -135.3 15.4 -137.65 12.1 L-142.2 6.3 -146.8 0.55 Q-148.6 -1.95 -150.05 -5.25 L-152.4 -11.45 M-42.25 3.35 Q-41.0 4.3 -33.7 29.35 -29.85 42.4 -24.75 60.55 L-24.15 63.45 -24.75 60.55 Q-29.85 42.4 -33.7 29.35 -41.0 4.3 -42.25 3.35 M-102.85 47.0 Q-106.05 41.05 -111.7 36.9 -117.35 32.7 -126.65 29.45 -134.25 26.8 -137.95 26.8 -140.95 26.8 -142.2 28.4 -144.25 31.0 -142.25 38.8 -141.6 41.25 -140.35 43.95 L-137.95 48.65 Q-135.65 52.85 -134.75 55.15 -133.35 58.85 -133.25 62.55 -133.0 69.65 -134.7 75.7 -136.05 80.7 -139.3 86.65 -153.45 112.7 -170.55 134.2 L-172.25 136.35 Q-176.55 141.8 -178.85 144.1 -182.5 147.75 -187.35 150.5 -189.4 151.65 -195.0 154.1 -200.3 156.35 -202.6 157.6 -206.65 159.8 -208.9 162.2 L-210.05 163.6 -191.35 161.45 -176.0 159.9 Q-173.9 156.65 -171.45 153.85 -167.1 148.8 -163.85 147.95 -159.2 146.8 -155.55 144.2 -154.95 140.1 -153.4 135.4 -150.55 126.65 -145.45 119.65 -141.6 114.35 -134.55 102.9 -127.1 90.8 -123.45 86.45 -116.95 78.7 -105.55 67.3 L-104.45 60.25 -102.85 47.0 M-101.75 39.45 L-105.05 35.7 -119.3 18.5 Q-144.0 19.2 -150.5 21.15 -154.85 22.4 -160.0 25.3 L-165.55 28.5 Q-167.0 29.15 -170.45 32.35 L-174.35 36.3 -170.45 32.35 Q-167.0 29.15 -165.55 28.5 L-160.0 25.3 Q-154.85 22.4 -150.5 21.15 -144.0 19.2 -119.3 18.5 L-105.05 35.7 -101.75 39.45 M-101.75 32.2 L-90.45 48.8 -89.05 50.95 -90.45 48.8 -101.75 32.2 M-107.25 153.6 L-109.75 153.15 Q-113.0 153.15 -116.45 155.3 -123.5 159.65 -126.35 166.45 -127.75 169.85 -127.75 172.45 -127.75 169.85 -126.35 166.45 -123.5 159.65 -116.45 155.3 -113.0 153.15 -109.75 153.15 L-107.25 153.6 M-122.75 153.6 Q-124.45 153.0 -126.9 152.85 -131.7 152.55 -135.15 154.75 -138.9 157.2 -141.65 165.2 -143.0 169.25 -143.65 172.75 -143.0 169.25 -141.65 165.2 -138.9 157.2 -135.15 154.75 -131.7 152.55 -126.9 152.85 -124.45 153.0 -122.75 153.6 M-202.25 149.1 Q-203.45 148.5 -205.4 148.25 -209.25 147.75 -212.75 149.6 -214.1 150.35 -217.3 157.45 L-220.25 164.4 -217.3 157.45 Q-214.1 150.35 -212.75 149.6 -209.25 147.75 -205.4 148.25 -203.45 148.5 -202.25 149.1" fill="#ffffff" fill-opacity="0.0" fill-rule="evenodd" stroke="none"/>
    <path d="M100.4 -142.75 L82.3 -136.6 130.95 -157.8 Q120.55 -150.35 100.4 -142.75 M110.6 35.6 L112.6 39.6 115.5 46.45 99.45 54.7 Q73.9 67.95 61.35 75.75 54.25 80.15 54.7 85.6 55.25 91.8 65.4 98.65 71.2 102.55 78.2 105.55 75.75 109.15 71.55 112.7 64.35 118.8 54.8 122.1 44.55 125.6 36.1 129.9 31.3 132.3 28.75 134.05 L25.95 134.25 Q35.5 126.4 58.75 113.6 L63.05 111.25 Q64.0 110.55 64.0 109.35 64.05 104.6 53.0 92.55 42.25 80.85 33.05 75.05 29.2 72.7 28.9 70.25 28.7 68.55 30.3 66.35 31.25 65.0 33.95 62.25 37.45 58.75 38.8 56.7 41.05 53.3 40.75 50.1 40.45 46.7 36.85 46.7 33.15 46.7 25.8 50.55 28.8 44.2 32.8 37.3 48.35 28.5 62.7 26.0 74.65 23.9 94.3 25.75 101.9 26.45 106.0 29.85 108.4 31.8 110.6 35.6 M-152.4 -11.45 L-150.05 -5.25 Q-148.6 -1.95 -146.8 0.55 L-142.2 6.3 -137.65 12.1 Q-135.3 15.4 -133.95 18.6 -146.15 19.35 -150.65 20.65 -155.75 22.15 -163.3 26.7 L-165.75 28.05 Q-167.3 28.7 -170.75 31.9 -174.35 35.3 -177.1 38.75 -181.15 43.85 -186.7 52.6 L-196.1 57.5 -201.35 55.4 -197.9 53.35 Q-193.8 51.1 -192.5 49.8 -192.5 50.45 -192.65 50.9 L-192.85 51.55 -192.15 51.55 Q-187.0 51.5 -182.35 42.8 -179.0 36.45 -177.15 28.05 -175.3 19.4 -176.25 13.85 -174.7 16.75 -173.1 21.9 L-172.7 23.0 -172.15 21.95 Q-171.15 20.05 -169.6 15.5 -168.05 10.55 -166.5 7.9 -165.8 12.0 -165.1 13.9 L-164.9 14.4 -164.4 14.2 Q-160.35 12.35 -157.1 3.75 -155.3 -1.05 -153.0 -10.75 L-152.65 -12.15 -152.4 -11.45 M-29.5 45.6 L-25.2 60.7 Q-23.9 65.1 -24.5 72.0 -24.95 76.5 -25.95 80.7 L-29.55 75.1 -29.7 76.4 -30.75 83.9 -32.2 95.5 Q-33.45 91.55 -35.25 81.35 L-36.25 81.45 -36.25 96.85 -40.85 88.05 -41.2 89.3 Q-41.85 91.55 -43.6 94.95 -47.1 101.75 -52.6 107.5 -55.4 110.45 -59.95 117.6 L-68.75 132.25 Q-75.6 143.95 -78.95 149.15 -84.4 157.5 -87.55 160.15 -92.85 164.6 -98.8 167.85 L-104.35 170.5 -118.3 171.45 -113.4 167.65 -108.0 163.5 Q-104.9 161.35 -102.15 160.1 -96.5 157.6 -93.55 154.45 -90.9 151.6 -87.9 145.3 L-81.5 131.55 -73.85 115.35 Q-72.4 112.4 -67.7 105.25 L-62.35 96.9 Q-59.55 92.05 -58.3 88.25 L-57.8 91.55 -56.85 91.45 -55.65 81.05 Q-54.9 83.8 -53.65 86.55 L-52.7 86.3 -52.75 76.55 Q-51.85 79.25 -49.05 83.95 L-48.1 85.55 -47.2 85.3 -47.2 78.75 Q-47.0 70.8 -47.7 66.45 -48.25 63.0 -49.8 59.15 L-46.65 62.0 Q-43.55 64.55 -42.15 66.35 L-41.35 65.75 Q-44.3 61.5 -46.9 55.55 -42.1 61.45 -37.55 63.5 L-36.15 64.1 -39.0 59.25 Q-41.2 55.25 -42.75 52.8 -40.75 54.3 -37.2 56.0 L-35.8 56.7 -36.5 55.35 Q-37.35 53.75 -41.8 49.6 L-46.6 44.75 Q-48.85 42.05 -48.4 40.7 -47.95 39.35 -44.35 38.9 L-43.1 38.85 Q-39.8 38.85 -36.2 40.85 -33.6 42.25 -29.5 45.6 M-102.85 47.0 L-104.45 60.25 -105.55 67.3 Q-116.95 78.7 -123.45 86.45 -127.1 90.8 -134.55 102.9 -141.6 114.35 -145.45 119.65 -150.55 126.65 -153.4 135.4 -154.95 140.1 -155.55 144.2 -159.2 146.8 -163.85 147.95 -167.1 148.8 -171.45 153.85 -173.9 156.65 -176.0 159.9 L-191.35 161.45 -210.05 163.6 -208.9 162.2 Q-206.65 159.8 -202.6 157.6 -200.3 156.35 -195.0 154.1 -189.4 151.65 -187.35 150.5 -182.5 147.75 -178.85 144.1 -176.55 141.8 -172.25 136.35 L-170.55 134.2 Q-153.45 112.7 -139.3 86.65 -136.05 80.7 -134.7 75.7 -133.0 69.65 -133.25 62.55 -133.35 58.85 -134.75 55.15 -135.65 52.85 -137.95 48.65 L-140.35 43.95 Q-141.6 41.25 -142.25 38.8 -144.25 31.0 -142.2 28.4 -140.95 26.8 -137.95 26.8 -134.25 26.8 -126.65 29.45 -117.35 32.7 -111.7 36.9 -106.05 41.05 -102.85 47.0" fill="#000000" fill-opacity="0.2" fill-rule="evenodd" stroke="none"/>
    <path d="M-252.5 22.15 Q-253.3 19.85 -251.95 17.45 -250.6 15.15 -248.2 14.3 L-247.8 14.15 -246.65 13.6 -240.7 12.6 Q-234.6 11.95 -233.9 13.9 -232.75 17.2 -237.9 20.0 L-240.75 21.0 -242.7 21.5 -246.2 29.4 Q-251.6 24.5 -252.5 22.15 M-198.6 -16.95 Q-200.0 -16.3 -202.25 -14.95 L-206.05 -12.55 -205.25 -11.65 Q-204.55 -10.45 -204.85 -9.1 -205.25 -7.45 -207.2 -6.0 -209.15 -4.45 -210.95 -4.55 L-213.3 -4.75 -213.8 -4.9 -213.2 -6.75 Q-212.7 -8.45 -211.45 -10.35 -209.9 -12.65 -208.05 -13.8 -206.5 -14.75 -200.95 -16.3 L-198.6 -16.95 M-210.85 -9.65 Q-213.05 -7.2 -211.25 -7.6 -209.45 -8.0 -208.7 -10.1 L-208.35 -12.15 -210.85 -9.65 M-244.25 17.95 Q-241.2 16.05 -242.75 15.3 L-248.0 17.55 Q-252.75 19.8 -250.25 19.8 -247.3 19.8 -244.25 17.95" fill="#000000" fill-rule="evenodd" stroke="none"/>
    <path d="M-210.85 -9.65 L-208.35 -12.15 -208.7 -10.1 Q-209.45 -8.0 -211.25 -7.6 -213.05 -7.2 -210.85 -9.65 M-244.25 17.95 Q-247.3 19.8 -250.25 19.8 -252.75 19.8 -248.0 17.55 L-242.75 15.3 Q-241.2 16.05 -244.25 17.95" fill="#ffffff" fill-opacity="0.6" fill-rule="evenodd" stroke="none"/>
    <path d="M150.6 -35.65 Q166.25 -36.5 181.95 -40.35 201.0 -45.0 216.95 -54.1 234.5 -64.05 243.75 -77.0 253.3 -90.25 252.75 -105.0 252.2 -121.5 239.1 -138.85 227.25 -154.6 212.6 -162.5 198.4 -170.2 178.3 -172.2 164.35 -173.6 153.05 -171.3 143.5 -169.4 129.3 -163.25 L102.05 -151.45 Q86.4 -144.8 74.55 -140.35 60.95 -135.2 38.65 -132.3 20.55 -129.9 1.75 -129.5 38.85 -126.25 51.7 -126.45 68.5 -126.7 82.3 -130.15 91.05 -132.9 100.05 -136.5 91.9 -132.55 82.3 -130.15 77.25 -128.55 72.25 -127.25 58.95 -123.75 43.45 -121.5 54.45 -120.7 69.3 -121.85 L76.9 -122.5 Q87.95 -124.65 95.05 -124.45 L76.9 -122.5 74.25 -122.0 Q59.4 -118.9 53.55 -118.5 73.45 -116.6 86.4 -119.0 101.5 -121.75 116.25 -131.5 125.85 -137.8 131.55 -140.8 140.25 -145.45 148.05 -147.35 165.35 -151.6 182.05 -150.4 200.9 -149.05 214.55 -140.85 231.15 -130.9 235.0 -111.1 238.85 -91.3 227.2 -76.25 216.8 -62.8 194.3 -55.25 186.2 -52.5 174.5 -49.9 L155.4 -45.8 Q146.95 -43.9 138.9 -42.75 145.4 -39.45 150.6 -35.65 166.9 -23.75 170.3 -7.4 172.3 2.35 171.3 17.35 L169.7 41.0 Q169.65 53.5 173.75 60.65 178.85 69.55 191.6 73.5 L193.95 75.1 Q196.95 76.9 200.3 78.15 203.0 79.15 214.05 105.1 226.0 133.3 230.3 138.5 235.7 145.15 236.2 154.1 236.45 158.55 235.6 161.7 L223.25 161.7 204.85 161.7 197.6 161.7 Q196.3 156.4 195.7 150.95 194.55 140.0 198.3 139.15 L204.3 138.5 Q203.15 130.4 198.2 120.85 188.35 101.75 169.6 94.7 160.0 91.1 153.9 92.5 152.25 92.9 147.0 95.95 144.4 97.5 141.75 94.8 138.55 91.6 130.95 78.8 124.35 67.75 119.2 55.7 L115.7 46.95 102.6 53.6 Q74.95 67.85 61.6 76.15 48.25 84.45 62.25 95.7 69.3 101.35 78.95 105.35 77.3 108.15 73.45 111.7 65.75 118.85 54.95 122.55 44.1 126.3 35.45 130.8 L28.95 134.5 2.35 136.25 -12.1 136.6 Q-24.0 136.45 -23.75 134.5 -22.85 128.55 -16.85 122.65 -13.85 119.7 -11.05 117.95 L-6.7 119.5 Q-1.05 121.0 5.6 120.6 12.25 120.15 25.6 112.7 32.25 109.0 37.6 105.35 42.75 100.75 40.2 94.05 37.3 86.6 26.25 84.75 16.25 83.1 16.6 75.5 16.7 73.1 17.85 70.4 L18.95 68.2 Q21.05 56.75 32.0 37.8 L25.6 41.65 Q-0.05 58.3 -24.15 63.45 -23.7 66.55 -23.9 70.55 L-24.25 73.95 -24.25 74.2 -24.3 74.4 Q-24.85 78.7 -25.75 81.95 L-29.25 76.5 -30.3 84.15 -31.75 95.9 Q-32.05 99.3 -33.95 90.7 L-35.75 81.45 -35.75 98.85 -40.75 89.4 Q-41.35 91.65 -43.1 95.05 -46.6 101.9 -52.25 107.8 -56.35 112.15 -69.75 134.95 -82.45 156.6 -87.25 160.55 -92.85 165.2 -99.1 168.55 L-104.25 171.0 -127.75 172.45 -129.55 172.5 -143.65 172.75 Q-155.05 172.65 -155.25 171.0 -155.6 168.35 -149.85 158.75 -144.7 150.05 -142.25 147.6 -140.8 146.15 -132.1 146.85 L-121.25 147.6 Q-119.25 147.3 -115.35 139.35 -107.65 123.35 -104.25 117.25 -93.75 98.35 -93.75 80.45 -93.75 78.3 -87.55 74.05 -80.9 69.5 -80.25 68.05 L-80.2 68.0 -80.2 67.85 -80.2 67.8 -80.2 67.6 -80.2 67.3 -80.35 66.7 -80.5 66.2 -80.5 66.1 -80.55 66.05 -80.6 65.85 -80.7 65.5 -80.75 65.4 -80.9 65.0 -81.05 64.7 -81.1 64.6 Q-82.95 60.45 -88.65 51.55 L-89.05 50.95 Q-95.7 46.0 -101.75 39.45 L-102.4 47.7 Q-103.4 57.95 -105.05 67.55 -116.4 78.8 -123.05 86.75 -126.6 91.0 -133.3 101.85 -141.1 114.45 -145.05 119.9 -150.45 127.35 -153.3 136.65 -154.7 141.3 -155.05 144.45 L-157.4 145.95 Q-160.4 147.6 -163.75 148.45 -167.05 149.25 -171.75 154.9 L-175.75 160.4 -192.75 162.15 -211.75 164.35 Q-213.0 164.65 -220.25 164.4 L-245.05 163.05 -236.45 153.15 Q-227.65 142.7 -226.4 139.8 -225.2 137.05 -215.05 138.65 L-203.75 140.5 Q-202.0 139.9 -196.8 136.4 -191.15 132.6 -188.4 129.85 -185.35 126.85 -178.9 115.05 -172.35 103.05 -170.4 96.7 -168.75 91.35 -158.1 67.65 L-147.75 45.0 -146.4 33.7 Q-146.9 32.7 -148.5 31.75 -151.65 29.75 -157.05 29.75 -162.45 29.75 -173.95 36.05 L-174.35 36.3 -176.7 39.05 Q-179.0 41.95 -182.9 47.75 L-186.35 52.95 -196.05 58.05 -201.4 55.9 Q-207.9 62.95 -211.0 64.35 -212.95 65.25 -215.6 63.5 L-217.85 61.6 -219.7 51.1 Q-218.25 42.9 -217.95 40.1 -217.3 34.9 -223.25 29.15 -224.05 30.8 -228.5 32.75 -232.0 34.3 -234.95 35.0 L-237.8 35.5 -241.4 35.2 Q-242.6 34.65 -243.7 32.65 L-244.55 30.8 -248.1 27.65 Q-251.8 24.1 -252.5 22.15 -253.3 19.85 -251.95 17.45 -250.6 15.15 -248.2 14.3 L-247.8 14.15 Q-245.95 13.15 -243.35 8.8 L-240.9 4.15 -239.95 3.0 -238.15 1.4 -234.45 -0.5 -233.35 -2.0 Q-232.05 -3.6 -230.9 -4.1 -229.0 -4.85 -226.9 -7.45 -227.6 -13.05 -228.15 -15.3 -228.6 -17.2 -224.55 -23.95 -220.35 -31.0 -217.35 -32.5 L-207.8 -38.35 Q-200.5 -42.85 -196.85 -43.75 L-187.15 -46.25 -185.05 -56.6 Q-184.3 -59.8 -183.85 -64.35 L-183.35 -70.65 -182.85 -76.95 Q-182.3 -80.95 -181.15 -81.45 -179.8 -82.0 -173.75 -71.2 -167.85 -60.55 -166.8 -56.25 -166.3 -54.25 -165.15 -52.05 L-157.75 -56.3 -148.75 -61.3 -134.6 -71.35 Q-117.85 -82.3 -104.75 -86.65 L-103.7 -86.6 Q-97.5 -89.8 -90.55 -91.85 L-89.7 -92.1 Q-76.55 -95.8 -60.7 -95.35 -32.6 -94.55 3.15 -80.65 L4.7 -82.7 Q11.55 -90.3 13.95 -94.25 15.9 -97.35 19.1 -101.3 22.85 -106.0 23.6 -105.75 24.45 -105.5 24.8 -101.85 25.1 -98.5 24.8 -96.15 24.65 -95.1 24.75 -85.7 24.8 -76.55 24.4 -74.65 L23.8 -72.55 Q53.1 -61.25 66.5 -57.55 81.9 -53.3 96.95 -53.85 104.75 -54.1 115.65 -51.45 127.65 -48.5 138.35 -43.05 L138.9 -42.75 M3.15 -80.65 L0.65 -76.2 -1.1 -72.3 Q-3.2 -66.55 5.3 -62.45 8.65 -60.85 12.3 -60.25 L17.8 -60.4 Q20.95 -61.6 21.25 -64.0 L20.9 -66.15 Q22.85 -69.75 23.8 -72.55 M115.5 46.45 L115.7 46.95 M110.6 35.6 L112.6 39.6 115.5 46.45 M32.8 37.3 L32.0 37.8 M32.8 37.3 Q48.35 28.5 62.7 26.0 74.65 23.9 94.3 25.75 101.9 26.45 106.0 29.85 108.4 31.8 110.6 35.6 109.35 31.0 97.05 11.35 L84.95 -7.4 M-162.85 -28.85 Q-160.8 -43.0 -161.35 -45.25 -161.5 -45.95 -163.75 -49.55 L-165.15 -52.05 M-198.6 -16.95 L-200.95 -16.3 Q-206.5 -14.75 -208.05 -13.8 -209.9 -12.65 -211.45 -10.35 -212.7 -8.45 -213.2 -6.75 L-213.8 -4.9 -213.3 -4.75 -210.95 -4.55 Q-209.15 -4.45 -207.2 -6.0 -205.25 -7.45 -204.85 -9.1 -204.55 -10.45 -205.25 -11.65 L-206.05 -12.55 -202.25 -14.95 Q-200.0 -16.3 -198.6 -16.95 L-196.95 -17.5 M-187.15 -46.25 L-187.75 -40.95 -188.25 -35.6 Q-188.5 -32.95 -187.65 -32.1 M-24.15 63.45 L-24.75 60.55 Q-29.85 42.4 -33.7 29.35 -41.0 4.3 -42.25 3.35 M-89.05 50.95 L-90.45 48.8 -101.75 32.2 M-174.35 36.3 L-170.45 32.35 Q-167.0 29.15 -165.55 28.5 L-160.0 25.3 Q-154.85 22.4 -150.5 21.15 -144.0 19.2 -119.3 18.5 L-105.05 35.7 -101.75 39.45 M-89.0 51.0 L-89.05 50.95 M-247.8 14.15 L-246.65 13.6 -240.7 12.6 Q-234.6 11.95 -233.9 13.9 -232.75 17.2 -237.9 20.0 L-240.75 21.0 -242.7 21.5 -246.2 29.4 Q-251.6 24.5 -252.5 22.15" fill="none" stroke="#000000" stroke-linecap="butt" stroke-linejoin="miter-clip" stroke-miterlimit="10.0" stroke-width="1.0"/>
    <path d="M204.85 161.7 Q204.3 159.4 204.05 156.6 203.55 151.0 205.0 148.5 206.4 146.15 209.3 145.2 210.75 144.7 211.9 144.7 M223.25 161.7 Q222.05 157.85 221.9 153.8 221.55 145.7 226.6 144.7 M-12.1 136.6 L-10.95 132.7 Q-9.25 128.55 -6.8 127.15 -3.9 125.5 0.2 125.2 2.3 125.05 3.75 125.25 M-122.35 -65.05 Q-112.1 -76.55 -108.45 -79.75 -102.15 -85.4 -90.55 -91.85 M-143.65 172.75 Q-143.0 169.25 -141.65 165.2 -138.9 157.2 -135.15 154.75 -131.7 152.55 -126.9 152.85 -124.45 153.0 -122.75 153.6 M-127.75 172.45 Q-127.75 169.85 -126.35 166.45 -123.5 159.65 -116.45 155.3 -113.0 153.15 -109.75 153.15 L-107.25 153.6 M-220.25 164.4 L-217.3 157.45 Q-214.1 150.35 -212.75 149.6 -209.25 147.75 -205.4 148.25 -203.45 148.5 -202.25 149.1" fill="none" stroke="#000000" stroke-linecap="butt" stroke-linejoin="miter-clip" stroke-miterlimit="10.0" stroke-opacity="0.6" stroke-width="1.0"/>
  </g>
</svg>
