<?xml version="1.0" encoding="UTF-8" standalone="no"?>
<svg xmlns:xlink="http://www.w3.org/1999/xlink" height="527.95px" width="185.9px" xmlns="http://www.w3.org/2000/svg">
  <g transform="matrix(1.0, 0.0, 0.0, 1.0, 92.95, 263.95)">
    <path d="M91.3 -112.5 Q92.45 -111.35 92.45 -109.7 92.45 -108.05 91.3 -106.85 90.1 -105.7 88.45 -105.7 85.05 -105.4 81.05 -101.05 L81.0 -101.0 Q74.95 -97.5 69.7 -91.15 L57.3 -76.35 Q50.2 -72.15 47.25 -70.95 44.25 -69.75 41.5 -69.7 L35.45 -69.7 Q29.45 -69.3 22.8 -60.5 L16.65 -52.0 16.6 -51.95 Q12.65 -46.55 9.85 -44.5 4.35 -40.25 -6.75 -38.0 L-7.0 -37.95 -11.55 -37.35 -11.55 -31.7 Q-11.55 12.95 -10.3 106.9 -8.9 213.25 -7.55 225.25 -7.1 229.2 -3.85 244.5 -0.6 259.75 -3.6 261.95 -6.65 264.1 -19.4 263.25 -24.75 264.25 -31.55 261.25 -29.45 252.1 -28.55 213.5 -27.75 177.7 -28.55 152.25 -29.25 130.55 -28.8 -32.0 -31.25 -36.1 -34.1 -36.95 -36.95 -37.85 -41.95 -40.55 -47.0 -43.3 -53.25 -41.2 -57.75 -39.2 -62.25 -40.85 -72.65 -49.25 -82.65 -58.1 -92.65 -66.95 -92.45 -68.45 -92.25 -69.95 -90.9 -70.9 -89.55 -71.9 -87.9 -71.65 -86.3 -71.4 -85.3 -70.05 -71.55 -51.1 -60.8 -48.7 L-55.6 -48.35 -50.9 -49.6 Q-47.75 -50.5 -40.15 -48.55 -32.5 -46.6 -28.8 -44.9 L-28.8 -52.1 -28.75 -61.35 -45.55 -64.85 Q-58.75 -67.75 -67.75 -72.65 -76.95 -77.7 -74.3 -79.35 -73.45 -79.9 -71.5 -80.05 L-69.75 -80.05 -52.9 -73.4 Q-34.9 -67.1 -28.75 -68.7 -28.25 -233.6 -27.55 -249.7 -26.9 -263.45 -19.15 -263.45 -15.3 -263.45 -11.55 -260.7 L-11.55 -119.25 Q26.9 -150.0 21.3 -145.0 L5.0 -127.0 Q-4.7 -116.45 -11.55 -111.05 L-11.55 -76.05 -9.35 -76.25 Q-4.75 -77.1 -0.15 -80.85 4.45 -84.6 9.65 -96.05 L13.95 -106.8 14.9 -107.0 Q16.0 -107.1 16.7 -106.45 18.85 -104.45 15.95 -96.1 12.2 -85.3 4.55 -77.65 -2.35 -70.8 -11.55 -67.4 L-11.55 -48.05 -3.3 -48.05 Q1.25 -49.45 4.3 -51.2 7.3 -53.0 10.15 -56.65 L10.1 -56.6 16.45 -65.35 Q26.05 -78.1 35.45 -77.7 L44.1 -77.6 44.3 -77.6 Q48.0 -77.7 50.5 -78.4 L50.45 -78.35 Q56.45 -80.4 62.15 -88.9 70.75 -101.9 75.15 -106.5 L75.2 -106.55 Q82.1 -114.0 88.45 -113.7 90.1 -113.7 91.3 -112.5" fill="#ffffff" fill-opacity="0.0" fill-rule="evenodd" stroke="none"/>
    <path d="M91.3 -112.5 Q90.1 -113.7 88.45 -113.7 82.1 -114.0 75.2 -106.55 L75.15 -106.5 Q70.75 -101.9 62.15 -88.9 56.45 -80.4 50.45 -78.35 L50.5 -78.4 Q48.0 -77.7 44.3 -77.6 L44.1 -77.6 35.45 -77.7 Q26.05 -78.1 16.45 -65.35 L10.1 -56.6 10.15 -56.65 Q7.3 -53.0 4.3 -51.2 1.25 -49.45 -3.3 -48.05 L-11.55 -48.05 -11.55 -67.4 Q-2.35 -70.8 4.55 -77.65 12.2 -85.3 15.95 -96.1 18.85 -104.45 16.7 -106.45 16.0 -107.1 14.9 -107.0 L13.95 -106.8 9.65 -96.05 Q4.45 -84.6 -0.15 -80.85 -4.75 -77.1 -9.35 -76.25 L-11.55 -76.05 -11.55 -111.05 Q-4.7 -116.45 5.0 -127.0 L21.3 -145.0 Q26.9 -150.0 -11.55 -119.25 L-11.55 -260.7 Q-15.3 -263.45 -19.15 -263.45 -26.9 -263.45 -27.55 -249.7 -28.25 -233.6 -28.75 -68.7 -34.9 -67.1 -52.9 -73.4 L-69.75 -80.05 -71.5 -80.05 Q-73.45 -79.9 -74.3 -79.35 -76.95 -77.7 -67.75 -72.65 -58.75 -67.75 -45.55 -64.85 L-28.75 -61.35 -28.8 -52.1 -28.8 -44.9 Q-32.5 -46.6 -40.15 -48.55 -47.75 -50.5 -50.9 -49.6 L-55.6 -48.35 -60.8 -48.7 Q-71.55 -51.1 -85.3 -70.05 -86.3 -71.4 -87.9 -71.65 -89.55 -71.9 -90.9 -70.9 -92.25 -69.95 -92.45 -68.45 -92.65 -66.95 -82.65 -58.1 -72.65 -49.25 -62.25 -40.85 -57.75 -39.2 -53.25 -41.2 -47.0 -43.3 -41.95 -40.55 -36.95 -37.85 -34.1 -36.95 -31.25 -36.1 -28.8 -32.0 -29.25 130.55 -28.55 152.25 -27.75 177.7 -28.55 213.5 -29.45 252.1 -31.55 261.25 -24.75 264.25 -19.4 263.25 -6.65 264.1 -3.6 261.95 -0.6 259.75 -3.85 244.5 -7.1 229.2 -7.55 225.25 -8.9 213.25 -10.3 106.9 -11.55 12.95 -11.55 -31.7 L-11.55 -37.35 -7.0 -37.95 -6.75 -38.0 Q4.35 -40.25 9.85 -44.5 12.65 -46.55 16.6 -51.95 L16.65 -52.0 22.8 -60.5 Q29.45 -69.3 35.45 -69.7 L41.5 -69.7 Q44.25 -69.75 47.25 -70.95 50.2 -72.15 57.3 -76.35 L69.7 -91.15 Q74.95 -97.5 81.0 -101.0 L81.05 -101.05 Q85.05 -105.4 88.45 -105.7 90.1 -105.7 91.3 -106.85 92.45 -108.05 92.45 -109.7 92.45 -111.35 91.3 -112.5 Z" fill="none" stroke="#000000" stroke-linecap="round" stroke-linejoin="round" stroke-width="1.0"/>
  </g>
</svg>
