<?xml version="1.0" encoding="UTF-8" standalone="no"?>
<svg xmlns:xlink="http://www.w3.org/1999/xlink" height="40.45px" width="104.85px" xmlns="http://www.w3.org/2000/svg">
  <g transform="matrix(1.0, 0.0, 0.0, 1.0, 52.5, 56.15)">
    <path d="M23.45 -36.35 Q19.0 -36.75 15.15 -38.25 L19.3 -37.05 23.45 -36.35 M-16.3 -48.25 L-16.4 -48.3 -15.8 -48.25 -16.3 -48.25 M50.25 -50.7 L50.25 -50.75 50.1 -50.45 50.25 -50.7" fill="#0e0e0e" fill-rule="evenodd" stroke="none"/>
    <path d="M48.05 -47.05 L47.5 -46.25 Q44.3 -41.8 39.9 -39.25 L39.1 -38.8 38.2 -38.5 31.65 -36.6 29.2 -36.3 25.75 -36.25 23.45 -36.35 19.3 -37.05 15.15 -38.25 15.3 -37.85 14.9 -38.0 4.65 -42.4 Q22.6 -36.0 37.8 -42.45 45.4 -45.65 49.4 -50.15 L50.0 -50.5 48.05 -47.05 M-20.55 -30.45 L-19.85 -31.75 -25.85 -31.6 -25.95 -31.6 -31.0 -32.25 Q-37.0 -33.5 -42.7 -36.75 -46.15 -38.7 -49.1 -41.15 L-49.45 -41.45 Q-42.9 -38.3 -35.7 -36.55 -21.1 -33.05 -12.35 -38.4 L-20.55 -30.45 M-15.3 -48.25 L-14.85 -48.25 -19.85 -54.1 Q-12.65 -51.0 -8.9 -47.75 L-10.6 -47.5 -16.65 -48.05 -15.1 -48.0 -15.3 -48.25" fill="#000000" fill-opacity="0.101960786" fill-rule="evenodd" stroke="none"/>
    <path d="M15.3 -37.85 L15.55 -37.3 Q16.85 -34.4 19.65 -31.7 21.3 -30.1 22.65 -29.25 13.6 -28.0 4.95 -31.25 2.25 -32.25 -0.05 -33.6 L-1.85 -34.75 Q-2.65 -31.8 -3.95 -29.3 -7.5 -22.3 -14.7 -19.0 -17.75 -17.6 -21.1 -17.05 L-23.85 -16.75 Q-24.0 -19.9 -23.4 -22.95 L-22.05 -27.6 -20.55 -30.45 -12.35 -38.4 Q-21.1 -33.05 -35.7 -36.55 -42.9 -38.3 -49.45 -41.45 L-49.95 -41.9 -50.35 -42.3 -51.35 -43.25 -44.65 -43.35 Q-37.05 -43.85 -32.35 -45.75 -27.65 -47.6 -20.8 -48.1 L-16.3 -48.25 -15.8 -48.25 -15.3 -48.25 -15.1 -48.0 -16.65 -48.05 -10.6 -47.5 -8.9 -47.75 Q-12.65 -51.0 -19.85 -54.1 L-20.85 -55.25 Q-10.55 -56.5 -5.4 -54.0 -2.85 -52.75 -2.35 -51.25 L-0.35 -46.75 3.5 -49.45 3.55 -49.5 Q10.85 -53.8 18.95 -52.3 21.7 -51.8 27.4 -49.9 32.75 -48.15 35.65 -47.75 42.55 -46.8 47.55 -49.7 50.05 -51.1 51.15 -52.75 L50.25 -50.7 50.1 -50.45 50.0 -50.5 49.4 -50.15 Q45.4 -45.65 37.8 -42.45 22.6 -36.0 4.65 -42.4 L14.9 -38.0 15.3 -37.85" fill="#ffffff" fill-opacity="0.0" fill-rule="evenodd" stroke="none"/>
    <path d="M15.15 -38.25 L15.3 -37.85 15.55 -37.3" fill="none" stroke="#0e0e0e" stroke-linecap="butt" stroke-linejoin="miter-clip" stroke-miterlimit="4.0" stroke-width="1.0"/>
    <path d="M15.55 -37.3 Q16.85 -34.4 19.65 -31.7 21.3 -30.1 22.65 -29.25 13.6 -28.0 4.95 -31.25 2.25 -32.25 -0.05 -33.6 L-1.85 -34.75 Q-2.65 -31.8 -3.95 -29.3 -7.5 -22.3 -14.7 -19.0 -17.75 -17.6 -21.1 -17.05 L-23.85 -16.75 Q-24.0 -19.9 -23.4 -22.95 L-22.05 -27.6 -20.55 -30.45 -19.85 -31.75 -25.85 -31.6 -25.95 -31.6 -31.0 -32.25 M19.3 -37.05 L15.15 -38.25" fill="none" stroke="#000000" stroke-linecap="butt" stroke-linejoin="miter-clip" stroke-miterlimit="4.0" stroke-opacity="0.6" stroke-width="1.0"/>
    <path d="M50.1 -50.45 L49.7 -49.65 48.05 -47.05 47.5 -46.25 Q44.3 -41.8 39.9 -39.25 L39.1 -38.8 38.2 -38.5 31.65 -36.6 29.2 -36.3 25.75 -36.25 23.45 -36.35 19.3 -37.05 M-31.0 -32.25 Q-37.0 -33.5 -42.7 -36.75 -46.15 -38.7 -49.1 -41.15 L-49.45 -41.45 -49.95 -41.9 -50.35 -42.3 -51.35 -43.25 -44.65 -43.35 Q-37.05 -43.85 -32.35 -45.75 -27.65 -47.6 -20.8 -48.1 L-16.3 -48.25 -15.8 -48.25 -15.3 -48.25 -14.85 -48.25 -19.85 -54.1 -20.85 -55.25 Q-10.55 -56.5 -5.4 -54.0 -2.85 -52.75 -2.35 -51.25 L-0.35 -46.75 3.5 -49.45 3.55 -49.5 Q10.85 -53.8 18.95 -52.3 21.7 -51.8 27.4 -49.9 32.75 -48.15 35.65 -47.75 42.55 -46.8 47.55 -49.7 50.05 -51.1 51.15 -52.75 L50.25 -50.7 50.1 -50.45" fill="none" stroke="#000000" stroke-linecap="butt" stroke-linejoin="miter-clip" stroke-miterlimit="4.0" stroke-width="1.0"/>
  </g>
</svg>
