<?xml version="1.0" encoding="UTF-8" standalone="no"?>
<svg xmlns:xlink="http://www.w3.org/1999/xlink" height="35.4px" width="13.55px" xmlns="http://www.w3.org/2000/svg">
  <g transform="matrix(1.0, 0.0, 0.0, 1.0, 3.9, 81.4)">
    <path d="M-0.35 -46.75 Q3.55 -58.05 2.35 -68.6 1.8 -73.9 0.4 -76.9 3.35 -75.8 6.55 -77.15 8.15 -77.85 9.15 -78.75 L3.55 -49.5 3.5 -49.45 -0.35 -46.75" fill="#000000" fill-opacity="0.101960786" fill-rule="evenodd" stroke="none"/>
    <path d="M9.15 -78.75 Q8.15 -77.85 6.55 -77.15 3.35 -75.8 0.4 -76.9 1.8 -73.9 2.35 -68.6 3.55 -58.05 -0.35 -46.75 L-1.85 -50.15 Q-0.7 -56.6 -1.2 -64.5 -1.55 -69.4 -2.45 -74.35 L-3.35 -78.25 Q2.6 -81.7 6.45 -80.55 8.4 -80.0 9.15 -78.75" fill="#ffffff" fill-opacity="0.0" fill-rule="evenodd" stroke="none"/>
    <path d="M-1.85 -50.15 L-0.35 -46.75 3.5 -49.45" fill="none" stroke="#000000" stroke-linecap="butt" stroke-linejoin="miter-clip" stroke-miterlimit="4.0" stroke-opacity="0.6" stroke-width="1.0"/>
    <path d="M9.15 -78.75 Q8.4 -80.0 6.45 -80.55 2.6 -81.7 -3.35 -78.25 L-2.45 -74.35 Q-1.55 -69.4 -1.2 -64.5 -0.7 -56.6 -1.85 -50.15 M3.5 -49.45 L3.55 -49.5 9.15 -78.75" fill="none" stroke="#000000" stroke-linecap="butt" stroke-linejoin="miter-clip" stroke-miterlimit="4.0" stroke-width="1.0"/>
  </g>
</svg>
