<?xml version="1.0" encoding="UTF-8" standalone="no"?>
<svg xmlns:xlink="http://www.w3.org/1999/xlink" height="15.5px" width="27.35px" xmlns="http://www.w3.org/2000/svg">
  <g transform="matrix(1.0, 0.0, 0.0, 1.0, 13.65, 4.05)">
    <path d="M10.0 -3.45 L10.65 -3.45 13.15 0.45 -12.45 0.45 -10.45 -3.55 -9.95 -3.55 10.0 -3.45" fill="#ffffff" fill-opacity="0.0" fill-rule="evenodd" stroke="none"/>
    <path d="M13.15 0.45 Q13.3 1.55 13.05 1.65 L11.3 1.65 10.95 1.65 10.0 1.65 -9.95 1.65 -11.2 1.65 -11.65 1.65 -12.3 1.65 -12.45 1.0 -12.45 0.45 13.15 0.45" fill="#000000" fill-opacity="0.101960786" fill-rule="evenodd" stroke="none"/>
    <path d="M11.3 1.65 Q11.3 2.15 11.55 2.3 L11.95 2.5 Q12.5 2.75 12.7 3.0 L12.95 3.9 12.4 4.6 11.8 4.75 11.85 10.9 11.45 10.95 11.45 4.8 10.9 4.65 10.55 4.1 Q10.55 3.8 10.85 3.6 L11.4 3.4 Q11.95 3.3 12.05 3.9 L12.05 4.1 11.5 4.1 11.35 3.85 11.4 3.8 Q10.95 3.8 10.95 4.1 L11.1 4.3 11.7 4.4 12.25 4.25 12.6 3.8 12.4 3.2 11.8 2.85 11.35 2.65 Q10.9 2.35 10.95 1.65 L11.3 1.65 M-11.2 1.65 L-11.55 2.05 -12.0 2.25 -12.6 2.6 -12.8 3.2 -12.45 3.65 -11.3 3.7 -11.15 3.5 -11.6 3.15 -11.6 3.25 -11.75 3.45 -12.2 3.45 -12.25 3.25 Q-12.15 2.75 -11.6 2.75 -10.7 2.85 -10.8 3.5 L-11.15 4.05 -11.65 4.15 -11.65 10.9 -12.05 10.9 -12.05 4.1 -12.65 3.95 -13.15 3.25 -12.9 2.35 -12.15 1.85 -11.75 1.7 -11.65 1.65 -11.2 1.65" fill="#000000" fill-opacity="0.8" fill-rule="evenodd" stroke="none"/>
    <path d="M10.0 -3.45 L10.65 -3.45 13.15 0.45 Q13.3 1.55 13.05 1.65 L11.3 1.65 Q11.3 2.15 11.55 2.3 L11.95 2.5 Q12.5 2.75 12.7 3.0 L12.95 3.9 12.4 4.6 11.8 4.75 11.85 10.9 11.45 10.95 11.45 4.8 10.9 4.65 10.55 4.1 Q10.55 3.8 10.85 3.6 L11.4 3.4 Q11.95 3.3 12.05 3.9 L12.05 4.1 11.5 4.1 11.35 3.85 11.4 3.8 Q10.95 3.8 10.95 4.1 L11.1 4.3 11.7 4.4 12.25 4.25 12.6 3.8 12.4 3.2 11.8 2.85 11.35 2.65 Q10.9 2.35 10.95 1.65 L10.0 1.65 M-9.95 1.65 L-11.2 1.65 -11.55 2.05 -12.0 2.25 -12.6 2.6 -12.8 3.2 -12.45 3.65 -11.3 3.7 -11.15 3.5 -11.6 3.15 -11.6 3.25 -11.75 3.45 -12.2 3.45 -12.25 3.25 Q-12.15 2.75 -11.6 2.75 -10.7 2.85 -10.8 3.5 L-11.15 4.05 -11.65 4.15 -11.65 10.9 -12.05 10.9 -12.05 4.1 -12.65 3.95 -13.15 3.25 -12.9 2.35 -12.15 1.85 -11.75 1.7 -11.65 1.65 -12.3 1.65 -12.45 1.0 -12.45 0.45 -10.45 -3.55 -9.95 -3.55 M11.3 1.65 L10.95 1.65 M-11.2 1.65 L-11.65 1.65" fill="none" stroke="#000000" stroke-linecap="round" stroke-linejoin="round" stroke-width="1.0"/>
    <path d="M10.0 1.65 L-9.95 1.65 M-9.95 -3.55 L10.0 -3.45" fill="none" stroke="#000000" stroke-linecap="round" stroke-linejoin="round" stroke-opacity="0.6" stroke-width="1.0"/>
    <path d="M13.15 0.45 L-12.45 0.45" fill="none" stroke="#000000" stroke-linecap="round" stroke-linejoin="round" stroke-opacity="0.4" stroke-width="1.0"/>
  </g>
</svg>
