<?xml version="1.0" encoding="UTF-8" standalone="no"?>
<svg xmlns:xlink="http://www.w3.org/1999/xlink" height="13.6px" width="15.75px" xmlns="http://www.w3.org/2000/svg">
  <g transform="matrix(1.0, 0.0, 0.0, 1.0, 7.4, 11.65)">
    <path d="M2.95 -3.95 L2.9 -3.95 1.7 -11.15 4.3 -11.15 7.75 -3.95 2.95 -3.95 M-1.55 -3.95 L-6.75 -3.95 -4.4 -11.15 -1.65 -11.15 -1.55 -3.95" fill="#ffffff" fill-opacity="0.0" fill-rule="evenodd" stroke="none"/>
    <path d="M7.75 -3.95 L7.85 -0.25 7.4 0.15 Q5.7 1.5 3.85 0.6 L3.05 0.1 2.95 -3.95 7.75 -3.95 M-6.75 -3.95 L-1.55 -3.95 -1.5 0.45 Q-3.05 1.8 -5.15 1.3 L-6.9 0.55 -6.75 -3.95" fill="#000000" fill-opacity="0.101960786" fill-rule="evenodd" stroke="none"/>
    <path d="M1.7 -11.15 L4.3 -11.15 M-1.65 -11.15 L-4.4 -11.15" fill="none" stroke="#000000" stroke-linecap="round" stroke-linejoin="round" stroke-width="1.0"/>
    <path d="M2.95 -3.95 L2.9 -3.95 M2.95 -3.95 L7.75 -3.95 M-6.75 -3.95 L-1.55 -3.95" fill="none" stroke="#000000" stroke-linecap="round" stroke-linejoin="round" stroke-opacity="0.4" stroke-width="1.0"/>
    <path d="M7.4 0.15 Q5.7 1.5 3.85 0.6 M-6.9 0.55 L-5.15 1.3 Q-3.05 1.8 -1.5 0.45" fill="none" stroke="#000000" stroke-linecap="round" stroke-linejoin="round" stroke-opacity="0.6" stroke-width="1.0"/>
    <path d="M7.85 -0.25 L7.4 0.15 M3.85 0.6 L3.05 0.1" fill="none" stroke="#000000" stroke-linecap="round" stroke-linejoin="round" stroke-opacity="0.6" stroke-width="1.0"/>
  </g>
</svg>
