<?xml version="1.0" encoding="UTF-8" standalone="no"?>
<svg xmlns:xlink="http://www.w3.org/1999/xlink" height="53.2px" width="15.85px" xmlns="http://www.w3.org/2000/svg">
  <g transform="matrix(1.0, 0.0, 0.0, 1.0, 11.25, 87.95)">
    <path d="M-2.85 -58.5 Q-4.0 -69.35 -8.05 -77.35 L-10.75 -81.95 -10.65 -82.8 Q-10.35 -83.85 -9.6 -84.7 -7.2 -87.45 -0.85 -87.45 L0.2 -86.65 Q1.1 -85.25 0.55 -82.55 0.45 -82.05 0.65 -80.75 0.85 -78.95 1.55 -75.55 L1.9 -73.8 2.75 -68.95 3.1 -66.95 3.25 -66.05 3.45 -64.3 3.65 -62.7 Q4.9 -51.25 2.8 -41.9 L1.5 -37.1 0.95 -35.65 0.8 -35.25 -3.65 -35.7 Q-3.0 -39.25 -2.8 -42.1 L-2.7 -43.0 Q-2.5 -45.65 -2.45 -48.45 -2.35 -53.75 -2.85 -58.5" fill="#ffffff" fill-opacity="0.0" fill-rule="evenodd" stroke="none"/>
    <path d="M1.5 -37.1 L0.95 -35.65 0.8 -35.25" fill="none" stroke="#0e0e0e" stroke-linecap="round" stroke-linejoin="round" stroke-width="1.0"/>
    <path d="M2.8 -41.9 L1.5 -37.1 M0.8 -35.25 L-3.65 -35.7 Q-3.0 -39.25 -2.8 -42.1 L-2.7 -43.0 Q-2.5 -45.65 -2.45 -48.45 -2.35 -53.75 -2.85 -58.5" fill="none" stroke="#000000" stroke-linecap="round" stroke-linejoin="round" stroke-opacity="0.6" stroke-width="1.0"/>
    <path d="M-2.85 -58.5 Q-4.0 -69.35 -8.05 -77.35 L-10.75 -81.95 -10.65 -82.8 Q-10.35 -83.85 -9.6 -84.7 -7.2 -87.45 -0.85 -87.45 L0.2 -86.65 Q1.1 -85.25 0.55 -82.55 0.45 -82.05 0.65 -80.75 0.85 -78.95 1.55 -75.55 L1.9 -73.8 2.75 -68.95 3.1 -66.95 3.25 -66.05 3.45 -64.3 3.65 -62.7 Q4.9 -51.25 2.8 -41.9" fill="none" stroke="#000000" stroke-linecap="round" stroke-linejoin="round" stroke-width="1.0"/>
  </g>
</svg>
