<?xml version="1.0" encoding="UTF-8" standalone="no"?>
<svg xmlns:xlink="http://www.w3.org/1999/xlink" height="12.85px" width="17.15px" xmlns="http://www.w3.org/2000/svg">
  <g transform="matrix(1.0, 0.0, 0.0, 1.0, 8.6, 6.45)">
    <path d="M8.05 1.9 L8.05 5.85 -3.15 5.85 Q-6.15 6.1 -7.4 4.55 L-8.0 3.5 -8.1 3.0 -8.1 -1.95 Q-7.95 -3.9 -6.05 -5.1 -5.15 -5.7 -4.25 -5.95 L7.95 -5.95 8.05 1.9 -7.85 1.9 8.05 1.9" fill="#ffffff" fill-opacity="0.0" fill-rule="evenodd" stroke="none"/>
    <path d="M7.95 -5.95 L-4.25 -5.95 Q-5.15 -5.7 -6.05 -5.1 -7.95 -3.9 -8.1 -1.95 L-8.1 3.0 -8.0 3.5 -7.4 4.55 Q-6.15 6.1 -3.15 5.85 L8.05 5.85" fill="none" stroke="#000000" stroke-linecap="butt" stroke-linejoin="miter-clip" stroke-miterlimit="4.0" stroke-width="1.0"/>
    <path d="M8.05 5.85 L8.05 1.9" fill="none" stroke="#000000" stroke-linecap="butt" stroke-linejoin="miter-clip" stroke-miterlimit="4.0" stroke-opacity="0.4" stroke-width="1.0"/>
    <path d="M8.05 1.9 L-7.85 1.9 M8.05 1.9 L7.95 -5.95" fill="none" stroke="#000000" stroke-linecap="round" stroke-linejoin="miter-clip" stroke-miterlimit="4.0" stroke-opacity="0.4" stroke-width="1.0"/>
    <path d="M-7.8 1.7 L7.85 1.7" fill="none" stroke="#ffffff" stroke-linecap="butt" stroke-linejoin="miter-clip" stroke-miterlimit="4.0" stroke-width="1.0"/>
  </g>
</svg>
