<?xml version="1.0" encoding="UTF-8" standalone="no"?>
<svg xmlns:xlink="http://www.w3.org/1999/xlink" height="67.5px" width="67.5px" xmlns="http://www.w3.org/2000/svg">
  <g transform="matrix(1.0, 0.0, 0.0, 1.0, 33.75, 33.75)">
    <path d="M23.55 -23.55 Q33.25 -13.75 33.25 0.0 33.25 13.75 23.55 23.55 13.75 33.25 0.0 33.25 -13.75 33.25 -23.55 23.55 -33.25 13.75 -33.25 0.0 -33.25 -13.75 -23.55 -23.55 -13.75 -33.25 0.0 -33.25 13.75 -33.25 23.55 -23.55 M20.7 -20.7 Q12.1 -29.3 0.0 -29.3 -12.1 -29.3 -20.7 -20.7 -29.3 -12.1 -29.3 0.0 -29.3 12.1 -20.7 20.7 -12.1 29.25 0.0 29.25 12.1 29.25 20.7 20.7 29.25 12.1 29.25 0.0 29.25 -12.1 20.7 -20.7" fill="#ffffff" fill-opacity="0.0" fill-rule="evenodd" stroke="none"/>
    <path d="M23.55 -23.55 Q33.25 -13.75 33.25 0.0 33.25 13.75 23.55 23.55 13.75 33.25 0.0 33.25 -13.75 33.25 -23.55 23.55 -33.25 13.75 -33.25 0.0 -33.25 -13.75 -23.55 -23.55 -13.75 -33.25 0.0 -33.25 13.75 -33.25 23.55 -23.55 M20.7 -20.7 Q29.25 -12.1 29.25 0.0 29.25 12.1 20.7 20.7 12.1 29.25 0.0 29.25 -12.1 29.25 -20.7 20.7 -29.3 12.1 -29.3 0.0 -29.3 -12.1 -20.7 -20.7 -12.1 -29.3 0.0 -29.3 12.1 -29.3 20.7 -20.7" fill="none" stroke="#000000" stroke-linecap="round" stroke-linejoin="round" stroke-width="1.0"/>
  </g>
</svg>
