<?xml version="1.0" encoding="UTF-8" standalone="no"?>
<svg xmlns:xlink="http://www.w3.org/1999/xlink" height="90.55px" width="146.3px" xmlns="http://www.w3.org/2000/svg">
  <g transform="matrix(1.0, 0.0, 0.0, 1.0, 73.15, 42.1)">
    <path d="M71.3 -26.9 L71.35 -26.85 71.15 -26.7 71.3 -26.9 M69.15 -21.9 L68.35 -17.35 66.55 -7.0 59.6 33.1 58.85 35.4 Q57.75 38.2 55.7 40.55 49.1 47.95 35.6 47.95 L-35.95 47.95 Q-49.45 47.95 -56.1 40.55 -58.15 38.2 -59.25 35.4 L-60.0 33.1 -66.95 -7.0 -68.75 -17.35 -69.6 -22.1 -69.0 -21.9 69.1 -21.9 69.15 -21.9" fill="#ffffff" fill-opacity="0.0" fill-rule="evenodd" stroke="none"/>
    <path d="M-71.6 -26.75 Q-66.4 -31.4 -48.15 -35.95 -27.1 -41.15 -3.85 -41.55 L0.0 -41.6 0.9 -41.6 5.95 -41.5 Q28.05 -40.95 48.15 -35.95 61.3 -32.7 67.4 -29.35 L71.15 -26.7 -71.5 -26.7 -71.6 -26.75" fill="#000000" fill-opacity="0.2" fill-rule="evenodd" stroke="none"/>
    <path d="M71.35 -26.85 Q72.65 -25.75 72.65 -24.8 72.65 -23.25 69.15 -21.9 L69.1 -21.9 -69.0 -21.9 -69.6 -22.1 Q-72.65 -23.4 -72.65 -24.8 -72.65 -25.65 -71.5 -26.7 L71.15 -26.7 71.35 -26.85" fill="#000000" fill-opacity="0.101960786" fill-rule="evenodd" stroke="none"/>
    <path d="M68.35 -17.35 L66.55 -7.0 M-66.95 -7.0 L-68.75 -17.35 M69.1 -21.9 L-69.0 -21.9" fill="none" stroke="#000000" stroke-linecap="round" stroke-linejoin="round" stroke-opacity="0.6" stroke-width="1.0"/>
    <path d="M-71.5 -26.7 L71.15 -26.7" fill="none" stroke="#000000" stroke-linecap="round" stroke-linejoin="round" stroke-opacity="0.4" stroke-width="1.0"/>
    <path d="M-71.6 -26.75 Q-66.4 -31.4 -48.15 -35.95 -27.1 -41.15 -3.85 -41.55 L0.0 -41.6 0.9 -41.6 5.95 -41.5 Q28.05 -40.95 48.15 -35.95 61.3 -32.7 67.4 -29.35 L71.3 -26.9 71.35 -26.85 Q72.65 -25.75 72.65 -24.8 72.65 -23.25 69.15 -21.9 L68.35 -17.35 M66.55 -7.0 L59.6 33.1 58.85 35.4 Q57.75 38.2 55.7 40.55 49.1 47.95 35.6 47.95 L-35.95 47.95 Q-49.45 47.95 -56.1 40.55 -58.15 38.2 -59.25 35.4 L-60.0 33.1 -66.95 -7.0 M-68.75 -17.35 L-69.6 -22.1 Q-72.65 -23.4 -72.65 -24.8 -72.65 -25.65 -71.5 -26.7 L-71.7 -26.7 -71.6 -26.75 M71.15 -26.7 L67.4 -29.35 M69.15 -21.9 L69.1 -21.9 M-69.0 -21.9 L-69.6 -22.1" fill="none" stroke="#000000" stroke-linecap="round" stroke-linejoin="round" stroke-width="1.0"/>
  </g>
</svg>
