<?xml version="1.0" encoding="UTF-8" standalone="no"?>
<svg xmlns:xlink="http://www.w3.org/1999/xlink" height="51.5px" width="308.1px" xmlns="http://www.w3.org/2000/svg">
  <g transform="matrix(1.0, 0.0, 0.0, 1.0, 154.05, 25.75)">
    <path d="M6.45 -2.6 L6.5 -2.6 0.4 -1.5 6.45 -2.6 M-123.25 -1.25 L-123.25 -1.3 -123.2 -1.3 -121.85 -1.05 -123.25 -1.25 -123.2 -1.3 -123.25 -1.25" fill="#ffffff" fill-rule="evenodd" stroke="none"/>
    <path d="M152.6 -15.25 Q154.8 -7.85 152.0 -4.05 150.65 -2.15 148.8 -1.75 L97.6 -1.9 39.1 -1.75 Q33.05 -1.55 28.15 0.85 L25.65 2.5 23.1 11.25 Q21.15 17.4 -2.1 21.3 -25.65 25.25 -61.2 25.25 -97.0 25.25 -122.35 20.7 -147.7 16.15 -147.7 9.75 L-153.55 -8.95 -153.3 -9.0 Q-151.8 -3.1 -126.65 1.2 -99.9 5.75 -62.15 5.75 -24.35 5.75 2.4 1.2 25.55 -2.75 28.65 -8.05 L29.1 -9.75 Q29.1 -11.05 28.05 -12.25 L28.1 -12.25 Q27.5 -13.8 36.0 -14.7 L44.6 -15.25 152.6 -15.25 M25.65 2.5 L28.65 -8.05 25.65 2.5" fill="#ffffff" fill-opacity="0.0" fill-rule="evenodd" stroke="none"/>
    <path d="M0.4 -1.5 L6.5 -2.6 Q16.1 -4.5 21.5 -6.8 25.3 -8.45 26.1 -9.75 25.4 -11.05 21.5 -12.75 14.55 -15.75 0.4 -18.05 -25.9 -22.25 -62.15 -22.25 -98.35 -22.25 -124.65 -18.05 -138.8 -15.75 -145.75 -12.75 -149.65 -11.05 -150.35 -9.75 -149.55 -8.45 -145.75 -6.8 -138.75 -3.8 -124.65 -1.5 L-123.25 -1.25 -121.85 -1.05 -73.25 2.65 -71.4 2.65 -70.55 2.7 -66.5 2.75 -62.15 2.75 Q-26.2 2.75 0.4 -1.5 M-153.3 -9.0 L-153.4 -9.75 Q-153.4 -16.2 -126.65 -20.7 -99.95 -25.25 -62.15 -25.25 -24.3 -25.25 2.4 -20.7 L7.85 -19.7 16.55 -19.5 35.6 -19.25 134.6 -20.25 152.6 -15.25 44.6 -15.25 36.0 -14.7 Q27.5 -13.8 28.1 -12.25 L28.05 -12.25 Q29.1 -11.05 29.1 -9.75 L28.65 -8.05 Q25.55 -2.75 2.4 1.2 -24.35 5.75 -62.15 5.75 -99.9 5.75 -126.65 1.2 -151.8 -3.1 -153.3 -9.0 M7.85 -19.7 Q24.3 -16.45 28.05 -12.25 24.3 -16.45 7.85 -19.7" fill="#000000" fill-opacity="0.101960786" fill-rule="evenodd" stroke="none"/>
    <path d="M6.5 -2.6 L6.45 -2.6 Q-5.8 -5.5 -21.6 -7.1 L-55.9 -8.75 Q-75.75 -8.75 -93.6 -6.75 L-97.8 -6.25 -98.9 -6.1 -121.85 -1.65 -123.25 -1.3 -123.25 -1.25 -124.65 -1.5 Q-138.75 -3.8 -145.75 -6.8 -149.55 -8.45 -150.35 -9.75 -149.65 -11.05 -145.75 -12.75 -138.8 -15.75 -124.65 -18.05 -98.35 -22.25 -62.15 -22.25 -25.9 -22.25 0.4 -18.05 14.55 -15.75 21.5 -12.75 25.4 -11.05 26.1 -9.75 25.3 -8.45 21.5 -6.8 16.1 -4.5 6.5 -2.6" fill="#000000" fill-opacity="0.2" fill-rule="evenodd" stroke="none"/>
    <path d="M-123.25 -1.3 L-121.85 -1.65 -123.2 -1.3 -123.25 -1.3" fill="#000000" fill-opacity="0.4" fill-rule="evenodd" stroke="none"/>
    <path d="M6.45 -2.6 L0.4 -1.5 Q-26.2 2.75 -62.15 2.75 L-66.5 2.75 -70.55 2.7 -71.4 2.65 -73.25 2.65 -121.85 -1.05 -123.2 -1.3 -121.85 -1.65 -98.9 -6.1 -97.8 -6.25 -93.6 -6.75 Q-75.75 -8.75 -55.9 -8.75 L-21.6 -7.1 Q-5.8 -5.5 6.45 -2.6" fill="#000000" fill-opacity="0.3019608" fill-rule="evenodd" stroke="none"/>
    <path d="M28.65 -8.05 L25.65 2.5" fill="none" stroke="#0e0e0e" stroke-linecap="round" stroke-linejoin="round" stroke-opacity="0.8" stroke-width="1.0"/>
    <path d="M-153.3 -9.0 L-153.4 -9.75 Q-153.4 -16.2 -126.65 -20.7 -99.95 -25.25 -62.15 -25.25 -24.3 -25.25 2.4 -20.7 L7.85 -19.7 16.55 -19.5 35.6 -19.25 134.6 -20.25 152.6 -15.25 Q154.8 -7.85 152.0 -4.05 150.65 -2.15 148.8 -1.75 L97.6 -1.9 39.1 -1.75 Q33.05 -1.55 28.15 0.85 L25.65 2.5 23.1 11.25 Q21.15 17.4 -2.1 21.3 -25.65 25.25 -61.2 25.25 -97.0 25.25 -122.35 20.7 -147.7 16.15 -147.7 9.75 L-153.55 -8.95 -153.3 -9.0" fill="none" stroke="#000000" stroke-linecap="round" stroke-linejoin="round" stroke-width="1.0"/>
    <path d="M0.4 -1.5 L6.5 -2.6 Q16.1 -4.5 21.5 -6.8 25.3 -8.45 26.1 -9.75 25.4 -11.05 21.5 -12.75 14.55 -15.75 0.4 -18.05 -25.9 -22.25 -62.15 -22.25 -98.35 -22.25 -124.65 -18.05 -138.8 -15.75 -145.75 -12.75 -149.65 -11.05 -150.35 -9.75 -149.55 -8.45 -145.75 -6.8 -138.75 -3.8 -124.65 -1.5 L-123.25 -1.25 -121.85 -1.05 -73.25 2.65 -71.4 2.65 -70.55 2.7 -66.5 2.75 -62.15 2.75 Q-26.2 2.75 0.4 -1.5 M-153.3 -9.0 Q-151.8 -3.1 -126.65 1.2 -99.9 5.75 -62.15 5.75 -24.35 5.75 2.4 1.2 25.55 -2.75 28.65 -8.05 L29.1 -9.75 Q29.1 -11.05 28.05 -12.25 24.3 -16.45 7.85 -19.7 M152.6 -15.25 L44.6 -15.25 36.0 -14.7 Q27.5 -13.8 28.1 -12.25 L28.05 -12.25" fill="none" stroke="#000000" stroke-linecap="round" stroke-linejoin="round" stroke-opacity="0.6" stroke-width="1.0"/>
    <path d="M6.5 -2.6 L6.45 -2.6 Q-5.8 -5.5 -21.6 -7.1 L-55.9 -8.75 Q-75.75 -8.75 -93.6 -6.75 L-97.8 -6.25 -98.9 -6.1 -121.85 -1.65 -123.2 -1.3 -123.25 -1.25" fill="none" stroke="#000000" stroke-linecap="round" stroke-linejoin="round" stroke-opacity="0.4" stroke-width="1.0"/>
  </g>
</svg>
