<?xml version="1.0" encoding="UTF-8" standalone="no"?>
<svg xmlns:xlink="http://www.w3.org/1999/xlink" height="11.85px" width="14.5px" xmlns="http://www.w3.org/2000/svg">
  <g transform="matrix(1.0, 0.0, 0.0, 1.0, 7.25, 5.95)">
    <path d="M4.55 -3.75 L4.25 -2.55 5.0 -2.45 6.0 -2.2 Q6.25 -2.05 6.15 -1.6 L5.9 -0.9 5.6 -0.6 5.45 -0.55 6.75 0.4 4.95 1.15 6.1 2.1 5.2 2.8 5.4 3.2 5.5 3.8 4.75 4.45 4.0 4.85 3.75 4.5 3.65 4.25 2.7 5.05 1.4 4.4 0.3 5.4 -1.55 5.25 -3.05 5.3 -3.9 5.05 -3.8 4.7 -3.55 4.55 -5.2 4.55 -5.2 3.25 -6.75 2.3 -5.45 1.5 -5.95 1.25 -6.45 0.7 -6.15 -0.95 -5.45 -1.05 Q-5.3 -1.05 -5.35 -1.9 L-5.45 -2.75 -4.15 -2.55 -4.25 -4.75 -3.5 -4.6 -2.8 -5.35 -1.2 -4.5 -1.1 -4.95 -0.6 -5.45 0.35 -5.4 1.15 -5.0 2.05 -4.9 2.6 -5.05 2.75 -3.55 4.55 -3.75" fill="#ffffff" fill-opacity="0.0" fill-rule="evenodd" stroke="none"/>
    <path d="M4.55 -3.75 L4.25 -2.55 5.0 -2.45 6.0 -2.2 Q6.25 -2.05 6.15 -1.6 L5.9 -0.9 5.6 -0.6 5.45 -0.55 6.75 0.4 4.95 1.15 6.1 2.1 5.2 2.8 5.4 3.2 5.5 3.8 4.75 4.45 4.0 4.85 3.75 4.5 3.65 4.25 2.7 5.05 1.4 4.4 0.3 5.4 -1.55 5.25 -3.05 5.3 -3.9 5.05 -3.8 4.7 -3.55 4.55 -5.2 4.55 -5.2 3.25 -6.75 2.3 -5.45 1.5 -5.95 1.25 -6.45 0.7 -6.15 -0.95 -5.45 -1.05 Q-5.3 -1.05 -5.35 -1.9 L-5.45 -2.75 -4.15 -2.55 -4.25 -4.75 -3.5 -4.6 -2.8 -5.35 -1.2 -4.5 -1.1 -4.95 -0.6 -5.45 0.35 -5.4 1.15 -5.0 2.05 -4.9 2.6 -5.05 2.75 -3.55 4.55 -3.75 Z" fill="none" stroke="#000000" stroke-linecap="round" stroke-linejoin="round" stroke-width="1.0"/>
  </g>
</svg>
