<?xml version="1.0" encoding="UTF-8" standalone="no"?>
<svg xmlns:xlink="http://www.w3.org/1999/xlink" height="565.15px" width="12.9px" xmlns="http://www.w3.org/2000/svg">
  <g transform="matrix(1.0, 0.0, 0.0, 1.0, 6.45, 283.65)">
    <path d="M-3.0 -269.55 L-4.25 -270.55 Q-5.95 -272.25 -5.95 -274.75 -5.95 -277.2 -4.25 -280.15 -2.6 -283.15 -0.1 -283.15 2.35 -283.15 4.15 -280.15 5.95 -277.2 5.95 -274.75 5.95 -272.25 4.2 -270.55 L3.0 -269.55 2.25 -269.2 0.0 -269.1 -2.25 -269.2 -3.0 -269.55 -2.25 -269.2 0.0 -269.1 2.25 -269.2 3.0 -269.55 3.0 279.0 Q3.0 279.8 2.1 280.4 1.2 281.0 0.0 281.0 -1.2 281.0 -2.1 280.4 -3.0 279.8 -3.0 279.0 L-3.0 -269.55" fill="#ffffff" fill-opacity="0.0" fill-rule="evenodd" stroke="none"/>
    <path d="M3.0 -269.55 L4.2 -270.55 Q5.95 -272.25 5.95 -274.75 5.95 -277.2 4.15 -280.15 2.35 -283.15 -0.1 -283.15 -2.6 -283.15 -4.25 -280.15 -5.95 -277.2 -5.95 -274.75 -5.95 -272.25 -4.25 -270.55 L-3.0 -269.55 -2.25 -269.2 0.0 -269.1 2.25 -269.2 3.0 -269.55 3.0 279.0 Q3.0 279.8 2.1 280.4 1.2 281.0 0.0 281.0 -1.2 281.0 -2.1 280.4 -3.0 279.8 -3.0 279.0 L-3.0 -269.55" fill="none" stroke="#000000" stroke-linecap="round" stroke-linejoin="round" stroke-width="1.0"/>
  </g>
</svg>
