<?xml version="1.0" encoding="UTF-8" standalone="no"?>
<svg xmlns:xlink="http://www.w3.org/1999/xlink" height="24.25px" width="22.35px" xmlns="http://www.w3.org/2000/svg">
  <g transform="matrix(1.0, 0.0, 0.0, 1.0, 10.8, 12.2)">
    <path d="M0.0 -0.95 Q-0.65 -0.2 -1.7 0.1 L-3.0 0.45 -4.3 0.65 Q-5.65 0.65 -6.4 -0.4 L-10.1 -9.05 Q-10.25 -10.05 -9.85 -10.5 -9.35 -10.95 -7.7 -11.3 -6.3 -11.65 -5.1 -11.3 -4.0 -11.0 -3.55 -10.1 L0.25 -2.4 Q0.55 -1.7 0.0 -0.95 M10.15 6.4 L10.9 7.4 10.9 7.65 Q10.85 8.2 10.2 8.7 L6.05 11.2 Q3.85 11.75 2.45 10.75 L-5.1 3.35 -3.75 2.9 -3.75 2.2 -0.1 0.9 0.5 1.35 1.9 0.8 10.15 6.4" fill="#ffffff" fill-opacity="0.0" fill-rule="evenodd" stroke="none"/>
    <path d="M0.0 -0.95 Q-0.65 -0.2 -1.7 0.1 L-3.0 0.45 -4.3 0.65 Q-5.65 0.65 -6.4 -0.4 L-10.1 -9.05 Q-10.25 -10.05 -9.85 -10.5 -9.35 -10.95 -7.7 -11.3 -6.3 -11.65 -5.1 -11.3 -4.0 -11.0 -3.55 -10.1 L0.25 -2.4 Q0.55 -1.7 0.0 -0.95 M1.9 0.8 L0.5 1.35 -0.1 0.9 -3.75 2.2 -3.75 2.9 -5.1 3.35 2.45 10.75 Q3.85 11.75 6.05 11.2 L10.2 8.7 Q10.85 8.2 10.9 7.65 L10.9 7.4 10.15 6.4" fill="none" stroke="#000000" stroke-linecap="square" stroke-linejoin="miter-clip" stroke-miterlimit="3.0" stroke-opacity="0.49803922" stroke-width="1.0"/>
  </g>
</svg>
