<?xml version="1.0" encoding="UTF-8" standalone="no"?>
<svg xmlns:xlink="http://www.w3.org/1999/xlink" height="10.6px" width="14.75px" xmlns="http://www.w3.org/2000/svg">
  <g transform="matrix(1.0, 0.0, 0.0, 1.0, 4.35, -0.4)">
    <path d="M0.95 1.6 Q1.65 1.3 2.05 1.6 L9.75 6.8 Q9.9 10.65 3.25 10.35 L-3.65 3.85 Q-3.9 3.5 -3.05 3.0 L0.95 1.6 M1.45 2.65 L0.25 2.7 -0.8 3.25 Q-1.2 3.6 -1.1 3.95 L-0.5 4.35 0.7 4.3 1.75 3.75 Q2.15 3.4 2.05 3.1 L1.45 2.65" fill="#ffffff" fill-opacity="0.0" fill-rule="evenodd" stroke="none"/>
    <path d="M1.45 2.65 L2.05 3.1 Q2.15 3.4 1.75 3.75 L0.7 4.3 -0.5 4.35 -1.1 3.95 Q-1.2 3.6 -0.8 3.25 L0.25 2.7 1.45 2.65 M0.95 1.6 L-3.05 3.0 Q-3.9 3.5 -3.65 3.85 L3.25 10.35 Q9.9 10.65 9.75 6.8 L2.05 1.6 Q1.65 1.3 0.95 1.6" fill="none" stroke="#000000" stroke-linecap="square" stroke-linejoin="miter-clip" stroke-miterlimit="3.0" stroke-opacity="0.49803922" stroke-width="1.0"/>
  </g>
</svg>
