<?xml version="1.0" encoding="UTF-8" standalone="no"?>
<svg xmlns:xlink="http://www.w3.org/1999/xlink" height="59.55px" width="25.0px" xmlns="http://www.w3.org/2000/svg">
  <g transform="matrix(1.0, 0.0, 0.0, 1.0, 12.5, 29.75)">
    <path d="M5.3 -16.45 Q4.45 -15.6 3.4 -15.05 L3.4 -12.85 Q6.2 -11.75 8.45 -8.8 9.95 -6.75 11.1 6.4 12.0 16.75 12.0 22.55 12.0 24.8 11.65 26.55 0.0 32.05 -11.65 26.55 -12.0 24.8 -12.0 22.55 -12.0 16.7 -11.15 6.4 -10.0 -6.75 -8.5 -8.8 -6.25 -11.75 -3.4 -12.85 L-3.4 -15.05 Q-4.3 -15.45 -5.3 -16.45 -7.5 -18.65 -7.5 -21.75 -7.5 -24.85 -5.3 -27.05 -3.1 -29.25 0.0 -29.25 3.1 -29.25 5.3 -27.05 7.5 -24.85 7.5 -21.75 7.5 -18.65 5.3 -16.45" fill="#ffffff" fill-opacity="0.0" fill-rule="evenodd" stroke="none"/>
    <path d="M5.3 -16.45 Q4.45 -15.6 3.4 -15.05 L3.4 -12.85 Q6.2 -11.75 8.45 -8.8 9.95 -6.75 11.1 6.4 12.0 16.75 12.0 22.55 12.0 24.8 11.65 26.55 0.0 32.05 -11.65 26.55 -12.0 24.8 -12.0 22.55 -12.0 16.7 -11.15 6.4 -10.0 -6.75 -8.5 -8.8 -6.25 -11.75 -3.4 -12.85 L-3.4 -15.05 Q-4.3 -15.45 -5.3 -16.45 -7.5 -18.65 -7.5 -21.75 -7.5 -24.85 -5.3 -27.05 -3.1 -29.25 0.0 -29.25 3.1 -29.25 5.3 -27.05 7.5 -24.85 7.5 -21.75 7.5 -18.65 5.3 -16.45 Z" fill="none" stroke="#000000" stroke-linecap="round" stroke-linejoin="round" stroke-width="1.0"/>
  </g>
</svg>
