<?xml version="1.0" encoding="UTF-8" standalone="no"?>
<svg xmlns:xlink="http://www.w3.org/1999/xlink" height="193.6px" width="350.35px" xmlns="http://www.w3.org/2000/svg">
  <g transform="matrix(1.0, 0.0, 0.0, 1.0, 175.15, 96.8)">
    <path d="M7.0 -52.3 Q34.1 -66.0 58.7 -65.4 82.75 -64.8 102.25 -52.25 109.8 -47.35 119.65 -37.7 L122.55 -38.55 Q130.0 -40.45 139.3 -35.5 146.45 -31.7 151.0 -26.45 154.6 -22.3 161.45 -8.65 168.65 5.75 170.45 13.45 172.6 22.5 174.3 41.7 176.1 61.8 174.3 62.0 173.15 62.8 168.35 62.45 L157.35 61.65 Q151.5 61.4 144.15 57.95 L140.95 56.4 Q142.15 57.4 141.4 61.05 137.1 62.1 133.75 72.5 130.45 67.4 133.1 61.35 128.1 65.9 125.45 73.15 123.7 68.6 125.45 63.6 121.75 65.65 120.65 70.3 118.55 65.75 119.4 60.65 L103.9 62.25 Q92.65 63.6 85.0 62.1 L90.3 66.8 Q98.6 77.95 99.9 77.95 L109.8 78.25 Q114.65 80.45 117.45 91.05 112.85 87.0 108.2 86.25 111.95 90.0 111.05 96.15 107.8 90.85 101.8 89.45 103.95 93.7 99.6 96.8 100.75 93.05 97.65 91.05 L84.6 79.85 46.6 50.5 42.2 50.75 32.25 49.7 31.15 49.45 Q34.75 50.7 37.0 53.7 39.55 55.7 39.9 63.6 32.85 56.0 29.05 57.2 30.3 59.8 30.0 64.55 23.0 57.65 18.8 57.5 21.3 60.45 19.45 64.55 15.3 57.3 7.95 53.35 -3.2 48.4 -4.15 45.4 L-4.4 41.15 -5.8 40.3 Q-17.7 32.85 -23.9 24.65 L-25.35 24.05 Q-30.5 21.9 -54.95 14.6 -79.4 7.25 -92.9 2.7 -105.0 -1.35 -113.6 -4.75 -121.9 -8.0 -128.7 -11.2 -148.8 -21.65 -157.35 -32.8 -165.9 -44.0 -152.7 -56.5 -139.6 -68.95 -137.6 -78.1 -136.2 -85.15 -142.15 -89.25 -147.7 -93.1 -157.25 -93.7 -166.25 -94.3 -173.15 -91.95 L-174.3 -92.05 -175.05 -92.9 Q-175.3 -93.5 -175.0 -94.05 L-174.1 -94.8 Q-166.65 -97.3 -157.05 -96.7 -146.5 -96.0 -140.45 -91.7 -132.8 -86.45 -134.65 -77.5 -136.6 -67.65 -150.65 -54.3 -161.75 -43.8 -152.85 -32.9 L-150.95 -30.8 Q-135.65 -17.35 -113.75 -8.9 -105.9 -5.9 -92.9 -2.35 -71.65 3.4 -30.35 11.7 -33.5 1.9 -32.8 -8.65 -31.8 -22.85 -24.3 -30.6 L-22.0 -32.85 Q-11.2 -43.05 7.0 -52.3" fill="#cccccc" fill-rule="evenodd" stroke="none"/>
  </g>
</svg>
