<?xml version="1.0" encoding="UTF-8" standalone="no"?>
<svg xmlns:xlink="http://www.w3.org/1999/xlink" height="35.2px" width="28.55px" xmlns="http://www.w3.org/2000/svg">
  <g transform="matrix(1.0, 0.0, 0.0, 1.0, 14.3, 17.6)">
    <path d="M13.75 -8.7 L11.35 0.2 Q9.45 5.95 7.15 6.3 6.0 6.5 5.7 7.9 L5.4 10.45 5.35 11.05 Q4.75 15.7 -0.05 17.1 -4.85 15.7 -5.45 11.05 L-5.45 10.3 -5.8 7.9 Q-6.1 6.5 -7.25 6.3 -9.55 5.95 -11.45 0.2 L-13.8 -8.65 Q-9.55 -8.65 -6.45 -10.15 -2.25 -12.3 -1.85 -17.1 L1.75 -17.1 Q2.15 -12.3 6.35 -10.2 9.3 -8.75 13.75 -8.7" fill="#ffffff" fill-opacity="0.0" fill-rule="evenodd" stroke="none"/>
    <path d="M13.75 -8.7 L11.35 0.2 Q9.45 5.95 7.15 6.3 6.0 6.5 5.7 7.9 L5.4 10.45 5.35 11.05 Q4.75 15.7 -0.05 17.1 -4.85 15.7 -5.45 11.05 L-5.45 10.3 -5.8 7.9 Q-6.1 6.5 -7.25 6.3 -9.55 5.95 -11.45 0.2 L-13.8 -8.65 Q-9.55 -8.65 -6.45 -10.15 -2.25 -12.3 -1.85 -17.1 L1.75 -17.1 Q2.15 -12.3 6.35 -10.2 9.3 -8.75 13.75 -8.7 Z" fill="none" stroke="#000000" stroke-linecap="round" stroke-linejoin="round" stroke-opacity="0.4" stroke-width="1.0"/>
    <path d="M2.85 -4.85 Q4.1 -3.2 4.1 -0.8 4.1 1.55 2.85 3.25 1.7 4.9 0.0 4.9 -1.65 4.9 -2.95 3.25 -4.15 1.55 -4.15 -0.8 -4.15 -3.2 -2.95 -4.85 -1.65 -6.55 0.0 -6.55 1.7 -6.55 2.85 -4.85 Z" fill="none" stroke="#000000" stroke-linecap="round" stroke-linejoin="round" stroke-opacity="0.4" stroke-width="1.0"/>
  </g>
</svg>
