<?xml version="1.0" encoding="UTF-8" standalone="no"?>
<svg xmlns:xlink="http://www.w3.org/1999/xlink" height="87.2px" width="209.5px" xmlns="http://www.w3.org/2000/svg">
  <g transform="matrix(1.0, 0.0, 0.0, 1.0, 104.75, 64.4)">
    <path d="M36.55 -12.2 Q37.65 -17.4 41.6 -21.35 L44.15 -23.5 Q46.15 -24.9 48.55 -25.8 L51.0 -26.45 Q51.1 -27.85 52.05 -29.15 53.2 -30.6 54.75 -30.6 56.25 -30.6 57.4 -29.15 58.4 -27.9 58.55 -26.45 62.95 -25.5 66.15 -22.9 L67.9 -21.35 Q70.05 -19.2 71.35 -16.7 73.35 -12.85 73.35 -8.2 73.35 -3.55 71.35 0.3 70.05 2.8 67.9 4.95 L66.15 6.55 Q63.0 9.05 58.55 10.05 58.35 11.7 57.4 12.85 56.3 14.2 54.75 14.2 53.2 14.2 52.05 12.85 51.2 11.8 51.0 10.05 L48.55 9.4 Q46.3 8.65 44.15 7.15 L41.6 4.95 Q37.65 1.0 36.55 -4.2 36.15 -6.1 36.15 -8.2 36.15 -10.3 36.55 -12.2 M56.55 -23.2 L52.55 -23.2 52.55 7.2 56.55 7.2 56.55 -23.2 56.55 7.2 52.55 7.2 52.55 -23.2 56.55 -23.2 M84.5 -13.2 L84.5 -13.25 Q84.7 -27.15 82.55 -36.05 84.9 -36.6 88.3 -45.9 91.7 -55.25 94.0 -55.8 98.2 -56.85 101.6 -45.0 105.4 -31.65 103.75 -13.2 102.15 4.55 98.1 5.95 95.15 7.0 92.15 0.0 91.5 -1.5 88.95 -4.75 85.85 -8.75 84.35 -8.7 L84.5 -13.2 M-97.45 -59.85 L-97.15 -63.9 -91.95 -63.9 -91.65 -59.85 -97.45 -59.85 M-99.8 -17.6 Q-102.1 -17.6 -103.4 -19.4 L-104.25 -21.2 -104.25 -39.2 Q-104.25 -41.95 -102.6 -43.7 -101.2 -45.15 -99.55 -45.2 L-99.8 -17.6" fill="#ffffff" fill-opacity="0.0" fill-rule="evenodd" stroke="none"/>
    <path d="M84.5 -13.25 L84.45 -13.25 84.5 -13.2 84.5 -13.25 M82.55 -36.05 Q84.9 -36.6 88.3 -45.9 91.7 -55.25 94.0 -55.8 98.2 -56.85 101.6 -45.0 105.4 -31.65 103.75 -13.2 102.15 4.55 98.1 5.95 95.15 7.0 92.15 0.0 91.5 -1.5 88.95 -4.75 85.85 -8.75 84.35 -8.7 L84.5 -13.2" fill="none" stroke="#000000" stroke-linecap="round" stroke-linejoin="round" stroke-width="1.0"/>
    <path d="M36.55 -12.2 Q37.65 -17.4 41.6 -21.35 L44.15 -23.5 Q46.15 -24.9 48.55 -25.8 L51.0 -26.45 Q51.1 -27.85 52.05 -29.15 53.2 -30.6 54.75 -30.6 56.25 -30.6 57.4 -29.15 58.4 -27.9 58.55 -26.45 62.95 -25.5 66.15 -22.9 L67.9 -21.35 Q70.05 -19.2 71.35 -16.7 73.35 -12.85 73.35 -8.2 73.35 -3.55 71.35 0.3 70.05 2.8 67.9 4.95 L66.15 6.55 Q63.0 9.05 58.55 10.05 58.35 11.7 57.4 12.85 56.3 14.2 54.75 14.2 53.2 14.2 52.05 12.85 51.2 11.8 51.0 10.05 L48.55 9.4 Q46.3 8.65 44.15 7.15 L41.6 4.95 Q37.65 1.0 36.55 -4.2 36.15 -6.1 36.15 -8.2 36.15 -10.3 36.55 -12.2 M-91.65 -59.85 L-91.95 -63.9 -97.15 -63.9 -97.45 -59.85 M-99.8 -17.6 Q-102.1 -17.6 -103.4 -19.4 L-104.25 -21.2 -104.25 -39.2 Q-104.25 -41.95 -102.6 -43.7 -101.2 -45.15 -99.55 -45.2" fill="none" stroke="#000000" stroke-linecap="round" stroke-linejoin="round" stroke-opacity="0.6" stroke-width="1.0"/>
    <path d="M56.55 -23.2 L56.55 7.2 52.55 7.2 52.55 -23.2 56.55 -23.2" fill="none" stroke="#000000" stroke-linecap="round" stroke-linejoin="round" stroke-opacity="0.4" stroke-width="1.0"/>
    <path d="M-91.25 22.3 L-89.8 -48.0 -89.6 -56.5" fill="none" stroke="#000000" stroke-linecap="round" stroke-linejoin="round" stroke-opacity="0.4" stroke-width="1.0"/>
    <path d="M-89.6 -56.5 L-89.55 -59.85" fill="none" stroke="#000000" stroke-linecap="round" stroke-linejoin="round" stroke-opacity="0.6" stroke-width="1.0"/>
  </g>
</svg>
