<?xml version="1.0" encoding="UTF-8" standalone="no"?>
<svg xmlns:xlink="http://www.w3.org/1999/xlink" height="55.9px" width="220.0px" xmlns="http://www.w3.org/2000/svg">
  <g transform="matrix(1.0, 0.0, 0.0, 1.0, 110.0, 68.5)">
    <path d="M62.55 -13.15 L62.4 -13.1 Q58.95 -15.55 56.1 -19.15 L55.75 -19.6 58.3 -16.75 Q60.3 -14.75 62.55 -13.15 M-96.6 -13.1 Q-100.05 -15.55 -102.9 -19.15 L-103.25 -19.6 -100.7 -16.75 -96.45 -13.15 -96.6 -13.1" fill="#d9d9d9" fill-rule="evenodd" stroke="none"/>
    <path d="M96.6 -13.25 L96.7 -13.2 97.35 -12.95 96.6 -13.25" fill="#aeaeae" fill-rule="evenodd" stroke="none"/>
    <path d="M55.15 -20.4 Q49.5 -28.05 49.5 -38.0 49.5 -50.4 58.3 -59.2 67.05 -68.0 79.5 -68.0 91.9 -68.0 100.7 -59.2 L100.85 -59.05 101.0 -58.85 103.75 -55.7 105.1 -53.75 105.1 -53.7 102.85 -56.75 Q96.35 -64.85 86.3 -67.2 94.3 -58.9 96.05 -49.85 99.0 -34.6 81.5 -23.5 68.55 -19.6 55.15 -20.4 M-103.85 -20.4 Q-109.5 -28.05 -109.5 -38.0 -109.5 -50.4 -100.7 -59.2 -91.95 -68.0 -79.5 -68.0 -73.8 -68.0 -68.8 -66.1 L-72.7 -67.2 Q-64.7 -58.9 -62.95 -49.85 -60.05 -34.95 -76.7 -24.0 L-77.5 -23.5 Q-84.85 -21.3 -92.3 -20.6 -98.05 -20.05 -103.85 -20.4" fill="#ffffff" fill-opacity="0.0" fill-rule="evenodd" stroke="none"/>
    <path d="M105.1 -53.75 L105.85 -52.55 Q109.5 -46.0 109.5 -38.0 109.5 -25.55 100.7 -16.75 98.75 -14.8 96.6 -13.25 L96.0 -13.45 95.3 -13.65 94.65 -13.85 94.05 -14.0 93.9 -14.05 93.85 -14.05 Q88.45 -15.45 80.9 -15.65 L78.7 -15.65 78.3 -15.6 77.95 -15.6 77.75 -15.6 72.65 -15.25 72.35 -15.25 72.1 -15.2 71.9 -15.2 71.65 -15.15 71.5 -15.15 71.2 -15.1 71.05 -15.1 70.9 -15.05 70.7 -15.05 70.55 -15.0 70.35 -15.0 70.2 -14.95 70.0 -14.95 69.8 -14.9 69.65 -14.9 69.5 -14.85 69.3 -14.85 69.15 -14.8 69.05 -14.8 68.9 -14.75 68.75 -14.75 63.25 -13.4 63.05 -13.35 62.55 -13.15 Q60.3 -14.75 58.3 -16.75 L55.75 -19.6 55.45 -20.0 55.15 -20.4 Q68.55 -19.6 81.5 -23.5 99.0 -34.6 96.05 -49.85 94.3 -58.9 86.3 -67.2 96.35 -64.85 102.85 -56.75 L105.1 -53.7 105.1 -53.75 M-103.25 -19.6 L-103.55 -20.0 -103.85 -20.4 Q-98.05 -20.05 -92.3 -20.6 -84.85 -21.3 -77.5 -23.5 L-76.7 -24.0 Q-60.05 -34.95 -62.95 -49.85 -64.7 -58.9 -72.7 -67.2 L-68.8 -66.1 Q-63.05 -63.95 -58.3 -59.2 L-58.15 -59.05 -58.0 -58.85 -55.25 -55.7 -53.9 -53.75 -52.6 -51.5 Q-49.5 -45.4 -49.5 -38.0 -49.5 -25.55 -58.3 -16.75 L-62.4 -13.25 -62.5 -13.25 -63.05 -13.45 -63.5 -13.6 -64.4 -13.9 Q-67.9 -15.1 -71.4 -15.2 L-74.95 -15.55 -80.2 -15.65 Q-89.15 -15.45 -95.1 -13.6 L-96.45 -13.15 -100.7 -16.75 -103.25 -19.6" fill="#000000" fill-opacity="0.101960786" fill-rule="evenodd" stroke="none"/>
    <path d="M55.15 -20.4 Q49.5 -28.05 49.5 -38.0 49.5 -50.4 58.3 -59.2 67.05 -68.0 79.5 -68.0 91.9 -68.0 100.7 -59.2 L100.85 -59.05 101.0 -58.85 103.75 -55.7 105.1 -53.75 105.85 -52.55 Q109.5 -46.0 109.5 -38.0 109.5 -25.55 100.7 -16.75 98.75 -14.8 96.6 -13.25 L96.7 -13.2 M62.55 -13.15 L62.4 -13.1 M55.75 -19.6 L55.45 -20.0 55.15 -20.4 M105.1 -53.7 L105.1 -53.75 M62.55 -13.15 Q60.3 -14.75 58.3 -16.75 L55.75 -19.6 M-103.25 -19.6 L-103.55 -20.0 -103.85 -20.4 Q-109.5 -28.05 -109.5 -38.0 -109.5 -50.4 -100.7 -59.2 -91.95 -68.0 -79.5 -68.0 -73.8 -68.0 -68.8 -66.1 -63.05 -63.95 -58.3 -59.2 L-58.15 -59.05 -58.0 -58.85 -55.25 -55.7 -53.9 -53.75 -52.6 -51.5 Q-49.5 -45.4 -49.5 -38.0 -49.5 -25.55 -58.3 -16.75 L-62.4 -13.25 M-96.45 -13.15 L-96.6 -13.1 M-96.45 -13.15 L-100.7 -16.75 -103.25 -19.6" fill="none" stroke="#000000" stroke-linecap="round" stroke-linejoin="round" stroke-width="1.0"/>
    <path d="M-62.4 -13.25 L-62.5 -13.25" fill="none" stroke="#000000" stroke-linecap="round" stroke-linejoin="round" stroke-opacity="0.6" stroke-width="1.0"/>
  </g>
</svg>
