<?xml version="1.0" encoding="UTF-8" standalone="no"?>
<svg xmlns:xlink="http://www.w3.org/1999/xlink" height="282.9px" width="96.7px" xmlns="http://www.w3.org/2000/svg">
  <g transform="matrix(1.0, 0.0, 0.0, 1.0, 48.35, 135.75)">
    <path d="M24.9 -135.3 L31.0 -135.3 31.0 -132.75 47.9 146.7 38.9 146.7 36.65 102.4 0.0 102.4 -36.65 102.4 -38.9 146.7 -47.9 146.7 -31.0 -132.75 -31.0 -135.3 -24.9 -135.3 -26.7 -99.05 0.0 -99.05 26.7 -99.05 24.9 -135.3 M-29.0 -52.8 L0.0 -52.8 29.0 -52.8 29.5 -42.25 29.0 -52.8 27.2 -88.55 0.0 -88.55 -27.2 -88.55 -29.0 -52.8 -29.5 -42.25 -29.0 -52.8 M29.5 -42.25 L28.9 -42.25 0.0 -42.25 -28.9 -42.25 -29.5 -42.25 -31.35 -5.25 0.0 -5.25 31.35 -5.25 31.5 -2.25 31.85 5.25 31.5 -2.25 31.35 -5.25 29.5 -42.25 M26.7 -99.05 L26.85 -96.05 27.2 -88.55 26.85 -96.05 26.7 -99.05 M33.7 42.35 L31.85 5.25 0.0 5.25 -31.85 5.25 -31.5 -2.25 -31.35 -5.25 -31.5 -2.25 -31.85 5.25 -33.7 42.35 -34.2 52.85 -33.7 42.35 0.0 42.35 33.7 42.35 34.2 52.85 33.7 42.35 M36.1 91.9 L34.2 52.85 0.0 52.85 -34.2 52.85 -36.1 91.9 -36.65 102.4 -36.1 91.9 0.0 91.9 36.1 91.9 36.65 102.4 36.1 91.9 M-26.7 -99.05 L-26.85 -96.05 -27.2 -88.55 -26.85 -96.05 -26.7 -99.05" fill="#ffffff" fill-opacity="0.0" fill-rule="evenodd" stroke="none"/>
    <path d="M24.9 -135.3 L31.0 -135.3 31.0 -132.75 47.9 146.7 38.9 146.7 M36.65 102.4 L0.0 102.4 -36.65 102.4 M-38.9 146.7 L-47.9 146.7 -31.0 -132.75 -31.0 -135.3 -24.9 -135.3 M-29.5 -42.25 L-28.9 -42.25 0.0 -42.25 28.9 -42.25 29.5 -42.25 M27.2 -88.55 L0.0 -88.55 -27.2 -88.55 M-31.85 5.25 L0.0 5.25 31.85 5.25 M-34.2 52.85 L0.0 52.85 34.2 52.85" fill="none" stroke="#000000" stroke-linecap="round" stroke-linejoin="round" stroke-width="0.9500000000000001"/>
    <path d="M38.9 146.7 L36.65 102.4 M-36.65 102.4 L-38.9 146.7 M-24.9 -135.3 L-26.7 -99.05 0.0 -99.05 26.7 -99.05 24.9 -135.3 M29.0 -52.8 L0.0 -52.8 -29.0 -52.8 -27.2 -88.55 M29.0 -52.8 L27.2 -88.55 M31.85 5.25 L33.7 42.35 0.0 42.35 -33.7 42.35 -31.85 5.25 M34.2 52.85 L36.1 91.9 0.0 91.9 -36.1 91.9 -34.2 52.85 M31.35 -5.25 L0.0 -5.25 -31.35 -5.25 -29.5 -42.25 M29.5 -42.25 L31.35 -5.25" fill="none" stroke="#000000" stroke-linecap="round" stroke-linejoin="round" stroke-opacity="0.6" stroke-width="0.9500000000000001"/>
    <path d="M-29.0 -52.8 L-29.5 -42.25 M29.5 -42.25 L29.0 -52.8 M27.2 -88.55 L26.85 -96.05 26.7 -99.05 M31.35 -5.25 L31.5 -2.25 31.85 5.25 M33.7 42.35 L34.2 52.85 M36.1 91.9 L36.65 102.4 M-31.35 -5.25 L-31.5 -2.25 -31.85 5.25 M-27.2 -88.55 L-26.85 -96.05 -26.7 -99.05 M-34.2 52.85 L-33.7 42.35 M-36.1 91.9 L-36.65 102.4" fill="none" stroke="#000000" stroke-linecap="round" stroke-linejoin="round" stroke-opacity="0.29803923" stroke-width="0.9500000000000001"/>
  </g>
</svg>
