<?xml version="1.0" encoding="UTF-8" standalone="no"?>
<svg xmlns:xlink="http://www.w3.org/1999/xlink" height="21.55px" width="68.75px" xmlns="http://www.w3.org/2000/svg">
  <g transform="matrix(1.0, 0.0, 0.0, 1.0, 34.35, 59.85)">
    <path d="M23.55 -38.3 L25.05 -38.75 24.85 -38.3 23.55 -38.3" fill="#fafafa" fill-rule="evenodd" stroke="none"/>
    <path d="M-31.7 -42.45 L-32.4 -42.7 -32.35 -42.7 -31.7 -42.45" fill="#d6d6d6" fill-rule="evenodd" stroke="none"/>
    <path d="M-31.5 -42.35 L-31.65 -42.4 -31.5 -42.35 -31.65 -42.4 -31.5 -42.4 -31.5 -42.35" fill="#ffffff" fill-rule="evenodd" stroke="none"/>
    <path d="M18.0 -47.05 Q28.4 -47.9 31.8 -49.35 30.15 -50.05 26.55 -50.65 L21.15 -51.35 9.75 -52.15 0.05 -52.35 -9.65 -52.15 -21.1 -51.35 -26.45 -50.65 -31.75 -49.35 Q-28.5 -47.9 -17.45 -47.0 L-3.7 -46.5 Q11.4 -46.15 18.0 -47.05 M8.05 -56.35 L8.6 -56.55 8.8 -57.1 8.6 -57.6 8.05 -57.85 -7.6 -57.85 -8.1 -57.6 -8.35 -57.1 -8.1 -56.55 -7.6 -56.35 8.05 -56.35 M-10.1 -53.65 L-10.1 -57.25 -10.05 -57.7 -9.45 -58.75 Q-8.85 -59.35 -7.95 -59.35 L8.0 -59.35 Q8.9 -59.35 9.55 -58.75 L10.1 -57.7 10.15 -57.25 10.15 -53.65 24.0 -52.55 28.55 -51.8 Q33.9 -50.7 33.9 -49.35 L33.9 -49.3 Q33.85 -48.0 28.55 -46.9 L28.55 -41.6 26.2 -41.15 24.25 -40.85 24.0 -40.85 21.8 -40.55 17.6 -40.15 15.4 -40.0 7.7 -39.65 2.8 -39.55 0.05 -39.55 -3.65 -39.55 -5.85 -39.6 -8.95 -39.7 -11.5 -39.8 -14.6 -39.95 -16.95 -40.1 -23.95 -40.85 -25.15 -41.0 -27.8 -41.45 -31.5 -42.35 -31.5 -42.4 -31.5 -47.65 -32.35 -47.95 -32.35 -42.7 -32.4 -42.7 -32.45 -42.7 Q-33.85 -43.35 -33.85 -44.05 L-33.85 -49.3 -33.85 -49.35 Q-33.85 -50.7 -28.5 -51.8 L-23.95 -52.55 -10.1 -53.65 0.05 -53.85 10.15 -53.65 0.05 -53.85 -10.1 -53.65 M-31.5 -47.65 Q-29.05 -46.85 -23.95 -46.15 L0.05 -44.85 Q7.1 -44.85 13.15 -45.15 L14.5 -45.25 24.0 -46.15 28.55 -46.9 24.0 -46.15 14.5 -45.25 13.15 -45.15 Q7.1 -44.85 0.05 -44.85 L-23.95 -46.15 Q-29.05 -46.85 -31.5 -47.65 M-33.85 -49.3 Q-33.85 -48.6 -32.35 -47.95 -33.85 -48.6 -33.85 -49.3" fill="#ffffff" fill-opacity="0.0" fill-rule="evenodd" stroke="none"/>
    <path d="M-17.45 -47.0 Q-28.5 -47.9 -31.75 -49.35 L-26.45 -50.65 -21.1 -51.35 -9.65 -52.15 0.05 -52.35 9.75 -52.15 21.15 -51.35 26.55 -50.65 Q30.15 -50.05 31.8 -49.35 28.4 -47.9 18.0 -47.05 L0.55 -47.7 -17.45 -47.0 M33.9 -49.3 L33.9 -44.05 Q33.9 -42.7 28.7 -41.6 L28.55 -41.6 28.55 -46.9 Q33.85 -48.0 33.9 -49.3" fill="#000000" fill-opacity="0.101960786" fill-rule="evenodd" stroke="none"/>
    <path d="M8.05 -56.35 L-7.6 -56.35 -8.1 -56.55 -8.35 -57.1 -8.1 -57.6 -7.6 -57.85 8.05 -57.85 8.6 -57.6 8.8 -57.1 8.6 -56.55 8.05 -56.35 M-31.65 -42.4 L-31.7 -42.45 -32.35 -42.7 -32.35 -47.95 -31.5 -47.65 -31.5 -42.4 -31.65 -42.4" fill="#ffffff" fill-opacity="0.3019608" fill-rule="evenodd" stroke="none"/>
    <path d="M18.0 -47.05 Q28.4 -47.9 31.8 -49.35 30.15 -50.05 26.55 -50.65 L21.15 -51.35 9.75 -52.15 0.05 -52.35 -9.65 -52.15 -21.1 -51.35 -26.45 -50.65 -31.75 -49.35 Q-28.5 -47.9 -17.45 -47.0 L0.55 -47.7 18.0 -47.05 M-10.1 -53.65 L-10.1 -57.25 -10.05 -57.7 -9.45 -58.75 Q-8.85 -59.35 -7.95 -59.35 L8.0 -59.35 Q8.9 -59.35 9.55 -58.75 L10.1 -57.7 M10.15 -57.25 L10.15 -53.65 M28.55 -46.9 L24.0 -46.15 14.5 -45.25 13.15 -45.15 Q7.1 -44.85 0.05 -44.85 L-23.95 -46.15 Q-29.05 -46.85 -31.5 -47.65 L-32.35 -47.95 Q-33.85 -48.6 -33.85 -49.3 M33.9 -49.3 Q33.85 -48.0 28.55 -46.9" fill="none" stroke="#000000" stroke-linecap="round" stroke-linejoin="round" stroke-opacity="0.4" stroke-width="1.0"/>
    <path d="M18.0 -47.05 Q11.4 -46.15 -3.7 -46.5 L-17.45 -47.0 M10.1 -57.7 L10.15 -57.25 M10.15 -53.65 L24.0 -52.55 28.55 -51.8 Q33.9 -50.7 33.9 -49.35 L33.9 -49.3 33.9 -44.05 Q33.9 -42.7 28.7 -41.6 L28.55 -41.6 26.2 -41.15 24.25 -40.85 24.0 -40.85 21.8 -40.55 17.6 -40.15 15.4 -40.0 7.7 -39.65 2.8 -39.55 0.05 -39.55 -3.65 -39.55 -5.85 -39.6 -8.95 -39.7 -11.5 -39.8 -14.6 -39.95 -16.95 -40.1 -23.95 -40.85 -25.15 -41.0 -27.8 -41.45 -31.5 -42.35 -31.65 -42.4 -31.7 -42.45 -32.4 -42.7 -32.45 -42.7 Q-33.85 -43.35 -33.85 -44.05 L-33.85 -49.3 -33.85 -49.35 Q-33.85 -50.7 -28.5 -51.8 L-23.95 -52.55 -10.1 -53.65 0.05 -53.85 10.15 -53.65" fill="none" stroke="#000000" stroke-linecap="round" stroke-linejoin="round" stroke-opacity="0.6" stroke-width="1.0"/>
  </g>
</svg>
