<?xml version="1.0" encoding="UTF-8" standalone="no"?>
<svg xmlns:xlink="http://www.w3.org/1999/xlink" height="43.35px" width="170.2px" xmlns="http://www.w3.org/2000/svg">
  <g transform="matrix(1.0, 0.0, 0.0, 1.0, 85.1, 14.65)">
    <path d="M-59.6 -14.15 L57.2 -14.15 84.6 28.2 -84.6 28.2 -59.6 -14.15" fill="#ffffff" fill-opacity="0.0" fill-rule="evenodd" stroke="none"/>
    <path d="M-59.6 -14.15 L-84.6 28.2 84.6 28.2 57.2 -14.15 -59.6 -14.15 Z" fill="none" stroke="#000000" stroke-linecap="round" stroke-linejoin="round" stroke-width="1.0"/>
    <path d="M-54.5 8.1 L50.5 8.1 58.55 22.1 -61.7 22.1 -54.5 8.1" fill="#000000" fill-opacity="0.49803922" fill-rule="evenodd" stroke="none"/>
    <path d="M50.5 -10.9 L-54.5 -10.9 -71.5 22.1 -61.7 22.1 -54.5 8.1 50.5 8.1 58.55 22.1 -61.7 22.1 M50.5 -10.9 L69.5 22.1 58.55 22.1" fill="none" stroke="#000000" stroke-linecap="round" stroke-linejoin="round" stroke-opacity="0.6" stroke-width="1.0"/>
    <path d="M-54.5 -10.9 L-54.5 8.1 M50.5 8.1 L50.5 -10.9 Z" fill="none" stroke="#000000" stroke-linecap="round" stroke-linejoin="round" stroke-opacity="0.4" stroke-width="1.0"/>
  </g>
</svg>
