<?xml version="1.0" encoding="UTF-8" standalone="no"?>
<svg xmlns:xlink="http://www.w3.org/1999/xlink" height="78.95px" width="289.8px" xmlns="http://www.w3.org/2000/svg">
  <g transform="matrix(1.0, 0.0, 0.0, 1.0, 144.9, 9.75)">
    <path d="M81.7 8.4 Q80.0 7.5 80.0 5.7 L82.1 1.3 Q84.5 -3.4 86.3 -4.9 L103.4 -7.2 Q123.5 -9.5 138.2 -9.2 L140.9 -7.8 Q143.8 -5.4 144.4 -0.6 144.3 1.3 143.3 3.5 141.2 7.8 136.7 9.0 L83.4 9.0 Q82.6 8.9 81.7 8.4 M-141.0 -7.8 Q-139.5 -9.0 -138.2 -9.2 -123.4 -9.5 -103.4 -7.2 L-86.3 -4.9 Q-83.4 -2.5 -80.0 5.7 -80.0 8.6 -83.4 9.0 L-136.7 9.0 Q-141.2 7.8 -143.2 3.5 L-144.4 -0.6 Q-143.8 -5.4 -141.0 -7.8" fill="#000000" fill-opacity="0.003921569" fill-rule="evenodd" stroke="none"/>
    <path d="M130.1 65.4 L127.1 68.3 102.1 68.7 Q101.2 57.9 112.0 56.9 120.4 56.1 128.1 59.9 132.3 62.0 130.1 65.4 M-103.6 68.7 L-128.6 68.3 Q-130.5 67.1 -131.6 65.4 -133.7 62.0 -129.5 59.9 -121.9 56.0 -113.5 56.9 -102.6 57.9 -103.6 68.7" fill="#ffffff" fill-opacity="0.0" fill-rule="evenodd" stroke="none"/>
    <path d="M81.7 8.4 Q80.0 7.5 80.0 5.7 L82.1 1.3 Q84.5 -3.4 86.3 -4.9 L103.4 -7.2 Q123.5 -9.5 138.2 -9.2 L140.9 -7.8 Q143.8 -5.4 144.4 -0.6 144.3 1.3 143.3 3.5 141.2 7.8 136.7 9.0 L83.4 9.0 Q82.6 8.9 81.7 8.4 M130.1 65.4 Q132.3 62.0 128.1 59.9 120.4 56.1 112.0 56.9 101.2 57.9 102.1 68.7 L127.1 68.3 130.1 65.4 M-141.0 -7.8 Q-143.8 -5.4 -144.4 -0.6 L-143.2 3.5 Q-141.2 7.8 -136.7 9.0 L-83.4 9.0 Q-80.0 8.6 -80.0 5.7 -83.4 -2.5 -86.3 -4.9 L-103.4 -7.2 Q-123.4 -9.5 -138.2 -9.2 -139.5 -9.0 -141.0 -7.8 M-103.6 68.7 L-128.6 68.3 Q-130.5 67.1 -131.6 65.4 -133.7 62.0 -129.5 59.9 -121.9 56.0 -113.5 56.9 -102.6 57.9 -103.6 68.7" fill="none" stroke="#000000" stroke-linecap="butt" stroke-linejoin="miter-clip" stroke-miterlimit="4.0" stroke-opacity="0.6" stroke-width="1.0"/>
  </g>
</svg>
