<?xml version="1.0" encoding="UTF-8" standalone="no"?>
<svg xmlns:xlink="http://www.w3.org/1999/xlink" height="19.0px" width="44.3px" xmlns="http://www.w3.org/2000/svg">
  <g transform="matrix(1.0, 0.0, 0.0, 1.0, 21.55, 16.05)">
    <path d="M4.1 -0.35 L4.1 -1.1 Q4.25 -1.65 4.8 -1.95 L7.5 -3.55 8.55 -3.7 8.85 -4.05 6.8 -6.1 16.15 -15.45 18.2 -13.4 20.2 -11.4 22.25 -9.35 12.9 0.0 10.85 -2.05 10.3 -1.5 10.3 -0.75 Q10.15 -0.15 9.6 0.15 L6.9 1.75 5.8 1.85 Q5.25 1.7 4.95 1.2 L4.7 0.7 M2.85 0.85 L2.8 1.15 Q2.75 1.7 2.3 2.15 1.8 2.5 1.25 2.45 L-1.95 2.15 Q-2.5 2.1 -2.9 1.65 -3.25 1.2 -3.2 0.65 L-3.15 0.05 M-4.35 -0.5 L-4.75 -0.1 Q-5.1 0.4 -5.7 0.4 -6.3 0.5 -6.75 0.1 L-9.15 -1.9 -9.4 -2.15 -10.8 -0.5 -20.9 -8.95 -19.05 -11.15 -21.05 -12.85 -19.15 -15.05 -17.15 -13.35 -15.3 -15.55 -5.2 -7.1 -6.65 -5.35 -6.45 -5.2 -4.05 -3.2 Q-3.6 -2.8 -3.5 -2.2 L-3.65 -1.4 M-3.0 -1.15 L-2.6 -1.75 -1.55 -2.05 1.65 -1.75 Q2.2 -1.7 2.6 -1.25 2.95 -0.85 2.9 -0.25 M7.15 -2.3 L8.55 -3.7 M8.85 -0.35 L7.0 -2.2 7.15 -2.3 M10.3 -1.5 L9.0 -0.2 8.85 -0.35 M-7.05 -4.85 L-7.45 -4.35 -8.55 -3.1 -8.95 -2.65 M-6.65 -5.35 L-7.05 -4.9 M-8.95 -2.7 L-9.4 -2.15" fill="none" stroke="#000000" stroke-linecap="round" stroke-linejoin="round" stroke-width="1.0"/>
    <path d="M4.7 0.7 L2.85 0.85 1.85 0.95 1.5 1.3 0.65 1.6 -1.15 1.4 Q-1.65 1.4 -2.0 1.0 L-2.25 0.45 -3.15 0.05 -4.35 -0.5 -5.2 -0.9 -5.85 -0.7 Q-6.35 -0.65 -6.75 -0.95 L-8.15 -2.15 Q-8.55 -2.45 -8.55 -3.0 L-8.55 -3.1 M-3.65 -1.4 L-3.0 -1.15 -2.0 -0.65 -1.8 -0.9 -0.95 -1.2 0.85 -1.0 Q1.35 -1.0 1.7 -0.6 L1.9 -0.2 2.9 -0.25 4.1 -0.35 5.15 -0.45 5.2 -0.8 5.75 -1.55 7.15 -2.3 M1.9 -0.2 L0.9 -0.1 0.6 0.1 0.55 0.5 0.7 0.9 Q0.8 1.05 1.0 1.0 L1.85 0.95 M10.85 -2.05 L12.1 -3.3 10.1 -5.3 8.85 -4.05 M5.15 -0.45 L5.8 -0.5 6.1 -0.4 6.25 0.0 6.2 0.4 5.9 0.6 5.75 0.65 6.1 0.8 7.05 0.65 8.65 -0.25 8.85 -0.35 M12.1 -3.3 L18.65 -9.85 16.65 -11.85 10.1 -5.3 M20.2 -11.4 L18.65 -9.85 M18.2 -13.4 L16.65 -11.85 M5.75 0.65 L4.7 0.7 M-19.05 -11.15 L-17.7 -10.05 -15.8 -12.25 -17.15 -13.35 M-17.7 -10.05 L-10.6 -4.05 -8.7 -6.25 -15.8 -12.25 M-7.05 -4.9 L-7.05 -4.85 M-7.45 -4.35 L-7.35 -4.4 -6.45 -4.15 -5.05 -2.95 Q-4.65 -2.65 -4.65 -2.1 L-4.6 -1.85 -3.65 -1.4 M-7.05 -4.9 L-8.7 -6.25 M-8.95 -2.65 L-8.95 -2.7 -10.6 -4.05 M-4.6 -1.85 L-5.5 -2.3 -5.85 -2.25 -6.1 -1.95 -6.15 -1.55 -6.0 -1.3 -5.2 -0.9 M-2.25 0.45 L-1.5 0.8 -1.15 0.75 -0.9 0.45 -0.85 0.05 -1.0 -0.2 -2.0 -0.65" fill="none" stroke="#000000" stroke-linecap="round" stroke-linejoin="round" stroke-opacity="0.4" stroke-width="1.0"/>
  </g>
</svg>
