<?xml version="1.0" encoding="UTF-8" standalone="no"?>
<svg xmlns:xlink="http://www.w3.org/1999/xlink" height="27.6px" width="15.6px" xmlns="http://www.w3.org/2000/svg">
  <g transform="matrix(1.0, 0.0, 0.0, 1.0, 7.8, 7.65)">
    <path d="M6.15 17.8 L6.15 18.0 6.1 18.15 6.15 17.8" fill="#ffffff" fill-opacity="0.6509804" fill-rule="evenodd" stroke="none"/>
    <path d="M7.3 -6.65 L5.15 -7.05 0.0 -7.15 -5.2 -7.05 -7.3 -6.65 -6.15 17.9 Q-6.15 18.6 -4.35 19.05 L0.0 19.45 4.35 19.05 Q5.9 18.6 6.1 18.15 L6.15 17.8 6.15 18.0 6.1 18.15 M7.3 -6.65 L6.15 17.8" fill="none" stroke="#000000" stroke-linecap="round" stroke-linejoin="round" stroke-width="1.0"/>
    <path d="M-7.3 -6.65 L-5.2 -6.3 0.0 -6.15 5.15 -6.3 7.3 -6.65 Z" fill="none" stroke="#000000" stroke-linecap="round" stroke-linejoin="round" stroke-opacity="0.3019608" stroke-width="1.0"/>
    <path d="M6.1 17.8 Q5.9 17.35 4.35 16.9 L0.0 16.5 -4.35 16.9 Q-6.15 17.4 -6.15 18.0" fill="none" stroke="#000000" stroke-linecap="round" stroke-linejoin="round" stroke-opacity="0.3019608" stroke-width="1.0"/>
    <path d="M6.1 16.2 Q5.9 16.65 4.35 17.1 L0.0 17.5 -4.35 17.1 Q-6.15 16.6 -6.15 16.05" fill="none" stroke="#000000" stroke-linecap="round" stroke-linejoin="round" stroke-opacity="0.3019608" stroke-width="1.0"/>
  </g>
</svg>
