<?xml version="1.0" encoding="UTF-8" standalone="no"?>
<svg xmlns:xlink="http://www.w3.org/1999/xlink" height="61.65px" width="289.7px" xmlns="http://www.w3.org/2000/svg">
  <g transform="matrix(1.0, 0.0, 0.0, 1.0, 124.45, 43.85)">
    <path d="M-122.75 -12.4 L-123.3 -11.7 -122.75 -12.4 M143.35 -30.45 L143.3 -30.5 143.35 -30.5 143.35 -30.45" fill="#dcddde" fill-rule="evenodd" stroke="none"/>
    <path d="M-35.65 -29.1 L-35.65 -22.35 -31.3 -22.35 -31.3 -18.0 -19.95 -18.35 -19.95 -23.0 -11.65 -23.35 -11.65 -16.65 -7.3 -17.0 -6.95 -22.65 -1.55 -22.95 -1.55 -16.95 0.3 -16.95 0.3 -23.05 5.2 -23.35 5.2 -16.95 7.05 -16.95 7.05 -23.45 11.95 -23.7 11.95 -16.95 13.8 -16.95 13.8 -23.85 18.7 -24.1 18.7 -16.95 20.55 -16.95 20.55 -24.2 25.45 -24.5 25.45 -16.95 27.3 -16.95 27.3 -24.6 32.2 -24.85 32.2 -16.95 34.05 -16.95 34.05 -24.95 40.7 -25.35 40.7 -28.0 45.05 -28.65 45.05 -23.5 45.05 -16.45 45.05 -23.5 84.5 -26.3 85.1 -24.75 Q85.75 -21.8 84.45 -19.25 L45.05 -16.45 45.05 -10.9 45.05 -3.85 45.05 -10.9 61.45 -12.05 62.35 -10.15 Q63.05 -7.4 61.5 -5.0 L45.05 -3.85 45.05 2.0 41.05 2.0 41.05 -1.35 40.1 -1.25 39.55 -9.15 Q39.45 -10.95 37.35 -12.05 35.25 -13.2 32.4 -13.0 L-32.6 -8.5 Q-35.2 -8.25 -37.0 -7.1 -38.55 -6.15 -38.95 -4.85 L-39.05 -4.6 -39.15 -3.65 -38.8 1.75 -123.9 9.0 -123.65 -9.65 -123.7 -10.8 -123.65 -10.95 -123.3 -11.7 -122.75 -12.4 -45.95 -21.0 -45.95 -18.0 -41.95 -18.0 -41.95 -29.1 -35.65 -29.1 M92.3 -26.85 L110.3 -28.1 111.1 -26.25 Q111.75 -23.45 110.4 -21.05 L92.4 -19.8 93.15 -21.3 Q94.05 -23.95 92.3 -26.85 M118.0 -28.65 L139.75 -30.2 138.25 -27.1 135.5 -22.8 118.35 -21.6 119.15 -23.1 Q120.15 -25.75 118.0 -28.65 M-0.2 1.9 L-0.45 -1.9 -0.15 -2.7 Q0.15 -3.05 0.6 -3.05 L1.4 -2.8 1.75 -2.05 2.0 1.65 2.0 2.1 -0.2 2.3 -0.2 1.9 M5.7 1.8 L5.7 1.25 5.45 -2.25 Q5.45 -2.7 5.75 -3.05 6.05 -3.4 6.5 -3.4 L7.3 -3.15 7.65 -2.4 7.85 1.05 7.9 1.6 5.7 1.8 M11.65 1.25 L11.6 0.7 11.4 -2.65 Q11.35 -3.05 11.65 -3.4 11.95 -3.75 12.4 -3.75 L13.2 -3.5 13.55 -2.75 13.75 0.55 13.8 1.05 11.65 1.25 M17.55 0.75 L17.5 0.3 17.3 -3.0 Q17.25 -3.45 17.55 -3.8 17.85 -4.1 18.3 -4.15 18.75 -4.15 19.1 -3.85 L19.45 -3.1 19.65 0.15 19.7 0.55 17.55 0.75 M23.4 0.2 L23.4 -0.2 23.2 -3.35 Q23.15 -3.8 23.45 -4.15 23.75 -4.45 24.2 -4.5 L25.0 -4.2 25.35 -3.45 25.55 -0.4 25.55 0.0 23.4 0.2 M29.3 -0.3 L29.1 -3.7 Q29.05 -4.15 29.35 -4.5 29.65 -4.8 30.1 -4.85 L30.9 -4.55 31.25 -3.8 31.45 -0.5 29.3 -0.3 M69.4 -5.55 L70.4 -7.15 Q71.4 -9.75 69.1 -12.6 L108.75 -15.45 Q109.9 -15.5 110.25 -14.6 L110.4 -14.0 110.55 -12.2 110.65 -10.3 110.6 -9.6 Q110.4 -8.5 109.25 -8.4 L69.4 -5.55 M143.45 -30.5 L161.95 -31.8 Q163.8 -31.9 164.3 -31.0 L164.7 -28.6 Q164.85 -26.6 164.65 -26.05 164.25 -24.9 162.45 -24.75 L143.35 -23.4 143.45 -28.75 143.85 -30.25 143.45 -30.4 143.45 -30.5 M-52.35 -1.45 L-52.25 -4.9 -118.3 1.15 -118.7 5.6 -52.35 -1.45 M-118.4 -8.1 L-118.75 -3.65 -52.45 -10.7 -52.35 -14.15 -118.4 -8.1 M-37.25 -33.85 L-39.5 -33.85 -38.45 -43.35 -37.25 -33.85 M-29.65 4.8 L-29.95 -0.15 -29.7 -0.95 -28.95 -1.3 Q-28.5 -1.35 -28.15 -1.05 L-27.8 -0.3 -27.5 4.65 -27.5 4.7 -29.65 4.9 -29.65 4.8 M-23.75 4.35 L-23.75 4.3 -24.05 -0.5 -23.8 -1.3 -23.05 -1.65 -22.25 -1.4 -21.9 -0.65 -21.6 4.1 -21.6 4.15 -23.75 4.35 M-17.85 3.85 L-17.85 3.75 -18.15 -0.85 -17.9 -1.65 -17.15 -2.0 Q-16.7 -2.05 -16.35 -1.75 -16.0 -1.45 -16.0 -1.0 L-15.7 3.5 -15.7 3.65 -17.85 3.85 M-11.95 3.3 L-12.0 3.1 -12.25 -1.2 Q-12.3 -1.65 -11.95 -2.0 L-11.25 -2.35 -10.45 -2.1 Q-10.1 -1.8 -10.1 -1.35 L-9.85 2.9 -9.8 3.15 -11.95 3.3 M-6.05 2.8 L-6.1 2.5 -6.35 -1.55 -6.05 -2.35 Q-5.75 -2.7 -5.3 -2.7 L-4.5 -2.45 Q-4.2 -2.15 -4.2 -1.7 L-3.95 2.3 -3.9 2.65 -6.05 2.8" fill="#ffffff" fill-opacity="0.0" fill-rule="evenodd" stroke="none"/>
    <path d="M-35.65 -29.1 L-41.95 -29.1 -43.25 -29.1 -43.25 -33.85 -39.5 -33.85 -37.25 -33.85 -34.6 -33.85 -34.6 -29.1 -35.65 -29.1 M-123.9 9.0 L-38.8 1.75 -39.15 -3.65 -39.05 -4.6 -39.1 -4.35 39.55 -9.05 39.55 -9.15 40.1 -1.25 40.3 1.4 Q40.4 3.2 38.5 4.6 36.6 6.0 33.75 6.2 L31.85 6.35 31.45 -0.5 31.25 -3.8 30.9 -4.55 30.1 -4.85 Q29.65 -4.8 29.35 -4.5 29.05 -4.15 29.1 -3.7 L29.3 -0.3 29.7 6.5 25.95 6.75 25.55 0.0 25.55 -0.4 25.35 -3.45 25.0 -4.2 24.2 -4.5 Q23.75 -4.45 23.45 -4.15 23.15 -3.8 23.2 -3.35 L23.4 -0.2 23.4 0.2 23.8 6.9 20.05 7.15 19.7 0.55 19.65 0.15 19.45 -3.1 19.1 -3.85 Q18.75 -4.15 18.3 -4.15 17.85 -4.1 17.55 -3.8 17.25 -3.45 17.3 -3.0 L17.5 0.3 17.55 0.75 17.9 7.3 14.15 7.55 13.8 1.05 13.75 0.55 13.55 -2.75 13.2 -3.5 12.4 -3.75 Q11.95 -3.75 11.65 -3.4 11.35 -3.05 11.4 -2.65 L11.6 0.7 11.65 1.25 12.0 7.7 8.25 8.0 7.9 1.6 7.85 1.05 7.65 -2.4 7.3 -3.15 6.5 -3.4 Q6.05 -3.4 5.75 -3.05 5.45 -2.7 5.45 -2.25 L5.7 1.25 5.7 1.8 6.1 8.1 2.35 8.4 2.0 2.1 2.0 1.65 1.75 -2.05 1.4 -2.8 0.6 -3.05 Q0.15 -3.05 -0.15 -2.7 L-0.45 -1.9 -0.2 1.9 -0.2 2.3 0.2 8.55 -3.55 8.8 -3.9 2.65 -3.95 2.3 -4.2 -1.7 Q-4.2 -2.15 -4.5 -2.45 L-5.3 -2.7 Q-5.75 -2.7 -6.05 -2.35 L-6.35 -1.55 -6.1 2.5 -6.05 2.8 -5.7 8.95 -9.45 9.2 -9.8 3.15 -9.85 2.9 -10.1 -1.35 Q-10.1 -1.8 -10.45 -2.1 L-11.25 -2.35 -11.95 -2.0 Q-12.3 -1.65 -12.25 -1.2 L-12.0 3.1 -11.95 3.3 -11.6 9.35 -15.35 9.6 -15.7 3.65 -15.7 3.5 -16.0 -1.0 Q-16.0 -1.45 -16.35 -1.75 -16.7 -2.05 -17.15 -2.0 L-17.9 -1.65 -18.15 -0.85 -17.85 3.75 -17.85 3.85 -17.5 9.75 -21.25 10.0 -21.6 4.15 -21.6 4.1 -21.9 -0.65 -22.25 -1.4 -23.05 -1.65 -23.8 -1.3 -24.05 -0.5 -23.75 4.3 -23.75 4.35 -23.4 10.15 -27.15 10.45 -27.5 4.7 -27.5 4.65 -27.8 -0.3 -28.15 -1.05 Q-28.5 -1.35 -28.95 -1.3 L-29.7 -0.95 -29.95 -0.15 -29.65 4.8 -29.65 4.9 -29.3 10.6 -31.3 10.7 Q-34.1 10.95 -36.2 9.8 -38.3 8.65 -38.45 6.85 L-38.5 5.7 -48.75 6.6 -52.65 6.95 -59.35 7.5 -63.7 7.9 -123.95 13.2 -123.9 9.0 M84.5 -26.3 L83.95 -27.6 91.45 -28.1 92.3 -26.85 Q94.05 -23.95 93.15 -21.3 L92.4 -19.8 91.45 -18.85 83.95 -18.35 84.45 -19.25 Q85.75 -21.8 85.1 -24.75 L84.5 -26.3 M110.3 -28.1 L109.95 -28.85 117.45 -29.35 118.0 -28.65 Q120.15 -25.75 119.15 -23.1 L118.35 -21.6 117.45 -20.8 109.95 -20.35 110.4 -21.05 Q111.75 -23.45 111.1 -26.25 L110.3 -28.1 M61.45 -12.05 L61.2 -12.65 68.7 -13.1 69.1 -12.6 Q71.4 -9.75 70.4 -7.15 L69.4 -5.55 68.7 -5.0 61.2 -4.6 61.5 -5.0 Q63.05 -7.4 62.35 -10.15 L61.45 -12.05 M110.4 -14.0 L122.3 -14.75 122.55 -11.0 110.65 -10.3 110.55 -12.2 110.4 -14.0 M-118.4 -8.1 L-52.35 -14.15 -52.45 -10.7 -118.75 -3.65 -118.4 -8.1 M-52.35 -1.45 L-118.7 5.6 -118.3 1.15 -52.25 -4.9 -52.35 -1.45 M-38.5 5.7 L-38.55 5.15 -38.5 5.7 M-38.8 1.75 L-38.55 5.15 -38.8 1.75" fill="#000000" fill-opacity="0.09803922" fill-rule="evenodd" stroke="none"/>
    <path d="M-39.05 -4.6 L-38.95 -4.85 Q-38.55 -6.15 -37.0 -7.1 -35.2 -8.25 -32.6 -8.5 L32.4 -13.0 Q35.25 -13.2 37.35 -12.05 39.45 -10.95 39.55 -9.15 L39.55 -9.05 -39.1 -4.35 -39.05 -4.6" fill="#000000" fill-opacity="0.2" fill-rule="evenodd" stroke="none"/>
    <path d="M-48.75 6.6 L-48.65 8.3 Q-48.8 12.95 -51.05 15.3 -53.35 17.65 -63.0 17.25 L-70.15 16.6 -69.9 16.0 -69.0 13.7 -60.55 14.3 -54.6 13.75 -53.2 13.2 Q-51.55 11.5 -51.65 7.2 L-52.65 6.95 -48.75 6.6" fill="#000000" fill-opacity="0.4" fill-rule="evenodd" stroke="none"/>
    <path d="M-59.35 7.5 Q-59.7 8.7 -59.45 10.0 -59.1 12.1 -58.3 12.4 -57.2 12.85 -59.3 13.4 -62.85 12.45 -63.65 9.05 L-63.7 7.9 -59.35 7.5" fill="#000000" fill-opacity="0.6" fill-rule="evenodd" stroke="none"/>
    <path d="M45.05 -23.5 L45.05 -28.65 40.7 -28.0 40.7 -25.35 34.05 -24.95 34.05 -16.95 32.2 -16.95 32.2 -24.85 27.3 -24.6 27.3 -16.95 25.45 -16.95 25.45 -24.5 20.55 -24.2 20.55 -16.95 18.7 -16.95 18.7 -24.1 13.8 -23.85 13.8 -16.95 11.95 -16.95 11.95 -23.7 7.05 -23.45 7.05 -16.95 5.2 -16.95 5.2 -23.35 0.3 -23.05 0.3 -16.95 -1.55 -16.95 -1.55 -22.95 -6.95 -22.65 -7.3 -17.0 -11.65 -16.65 -11.65 -23.35 -19.95 -23.0 -19.95 -18.35 -31.3 -18.0 -31.3 -22.35 -35.65 -22.35 -35.65 -29.1 -34.6 -29.1 -34.6 -33.85 -37.25 -33.85 -38.45 -43.35 -39.5 -33.85 -43.25 -33.85 -43.25 -29.1 -41.95 -29.1 -41.95 -18.0 -45.95 -18.0 -45.95 -21.0 -122.75 -12.4 -122.3 -12.75 M40.1 -1.25 L41.05 -1.35 41.05 2.0 45.05 2.0 45.05 -3.85 61.5 -5.0 61.2 -4.6 68.7 -5.0 69.4 -5.55 109.25 -8.4 Q110.4 -8.5 110.6 -9.6 L110.65 -10.3 122.55 -11.0 122.3 -14.75 110.4 -14.0 110.25 -14.6 Q109.9 -15.5 108.75 -15.45 L69.1 -12.6 68.7 -13.1 61.2 -12.65 61.45 -12.05 45.05 -10.9 45.05 -16.45 84.45 -19.25 83.95 -18.35 91.45 -18.85 92.4 -19.8 110.4 -21.05 109.95 -20.35 117.45 -20.8 118.35 -21.6 135.5 -22.8 M45.05 -23.5 L84.5 -26.3 83.95 -27.6 91.45 -28.1 92.3 -26.85 110.3 -28.1 109.95 -28.85 117.45 -29.35 118.0 -28.65 139.75 -30.2 M2.0 1.65 L2.0 2.1 2.35 8.4 6.1 8.1 5.7 1.8 5.7 1.25 M7.85 1.05 L7.9 1.6 8.25 8.0 12.0 7.7 11.65 1.25 11.6 0.7 M13.75 0.55 L13.8 1.05 14.15 7.55 17.9 7.3 17.55 0.75 17.5 0.3 M19.65 0.15 L19.7 0.55 20.05 7.15 23.8 6.9 23.4 0.2 23.4 -0.2 M25.55 -0.4 L25.55 0.0 25.95 6.75 29.7 6.5 29.3 -0.3 31.45 -0.5 31.85 6.35 33.75 6.2 Q36.6 6.0 38.5 4.6 40.4 3.2 40.3 1.4 L40.1 -1.25 M143.45 -30.5 L161.95 -31.8 Q163.8 -31.9 164.3 -31.0 L164.7 -28.6 Q164.85 -26.6 164.65 -26.05 164.25 -24.9 162.45 -24.75 L143.35 -23.4 M143.35 -30.45 L143.3 -30.5 143.35 -30.5 M25.55 0.0 L23.4 0.2 M19.7 0.55 L17.55 0.75 M13.8 1.05 L11.65 1.25 M7.9 1.6 L5.7 1.8 M-27.5 4.65 L-27.5 4.7 -27.15 10.45 -23.4 10.15 -23.75 4.35 -23.75 4.3 M-21.6 4.1 L-21.6 4.15 -21.25 10.0 -17.5 9.75 -17.85 3.85 -17.85 3.75 M-15.7 3.5 L-15.7 3.65 -15.35 9.6 -11.6 9.35 -11.95 3.3 -12.0 3.1 M-9.85 2.9 L-9.8 3.15 -9.45 9.2 -5.7 8.95 -6.05 2.8 -6.1 2.5 M-3.95 2.3 L-3.9 2.65 -3.55 8.8 0.2 8.55 -0.2 2.3 -0.2 1.9 M-3.9 2.65 L-6.05 2.8 M-15.7 3.65 L-17.85 3.85 M-9.8 3.15 L-11.95 3.3 M-21.6 4.15 L-23.75 4.35 M-29.65 4.9 L-29.65 4.8 M-27.5 4.7 L-29.65 4.9 -29.3 10.6 -31.3 10.7 Q-34.1 10.95 -36.2 9.8 -38.3 8.65 -38.45 6.85 L-38.5 5.7 -48.75 6.6 -48.65 8.3 Q-48.8 12.95 -51.05 15.3 -53.35 17.65 -63.0 17.25 L-70.15 16.6 M-69.0 13.7 L-60.55 14.3 -54.6 13.75 -53.2 13.2 Q-51.55 11.5 -51.65 7.2 L-52.65 6.95 -59.35 7.5 Q-59.7 8.7 -59.45 10.0 -59.1 12.1 -58.3 12.4 -57.2 12.85 -59.3 13.4 -62.85 12.45 -63.65 9.05 L-63.7 7.9 -123.95 13.2 M-38.55 5.15 L-38.5 5.7 M-48.75 6.6 L-52.65 6.95 M-63.7 7.9 L-59.35 7.5 M2.0 2.1 L-0.2 2.3" fill="none" stroke="#231f20" stroke-linecap="round" stroke-linejoin="round" stroke-width="1.0"/>
    <path d="M-35.65 -29.1 L-41.95 -29.1 M-38.8 1.75 L-39.15 -3.65 -39.05 -4.6 -38.95 -4.85 Q-38.55 -6.15 -37.0 -7.1 -35.2 -8.25 -32.6 -8.5 L32.4 -13.0 Q35.25 -13.2 37.35 -12.05 39.45 -10.95 39.55 -9.15 L40.1 -1.25 M45.05 -3.85 L45.05 -10.9 M45.05 -16.45 L45.05 -23.5 M-0.2 1.9 L-0.45 -1.9 -0.15 -2.7 Q0.15 -3.05 0.6 -3.05 L1.4 -2.8 1.75 -2.05 2.0 1.65 M5.7 1.25 L5.45 -2.25 Q5.45 -2.7 5.75 -3.05 6.05 -3.4 6.5 -3.4 L7.3 -3.15 7.65 -2.4 7.85 1.05 M11.6 0.7 L11.4 -2.65 Q11.35 -3.05 11.65 -3.4 11.95 -3.75 12.4 -3.75 L13.2 -3.5 13.55 -2.75 13.75 0.55 M17.5 0.3 L17.3 -3.0 Q17.25 -3.45 17.55 -3.8 17.85 -4.1 18.3 -4.15 18.75 -4.15 19.1 -3.85 L19.45 -3.1 19.65 0.15 M23.4 -0.2 L23.2 -3.35 Q23.15 -3.8 23.45 -4.15 23.75 -4.45 24.2 -4.5 L25.0 -4.2 25.35 -3.45 25.55 -0.4 M29.3 -0.3 L29.1 -3.7 Q29.05 -4.15 29.35 -4.5 29.65 -4.8 30.1 -4.85 L30.9 -4.55 31.25 -3.8 31.45 -0.5 M39.55 -9.05 L39.55 -9.15 M61.45 -12.05 L62.35 -10.15 Q63.05 -7.4 61.5 -5.0 M69.4 -5.55 L70.4 -7.15 Q71.4 -9.75 69.1 -12.6 M110.3 -28.1 L111.1 -26.25 Q111.75 -23.45 110.4 -21.05 M84.5 -26.3 L85.1 -24.75 Q85.75 -21.8 84.45 -19.25 M92.4 -19.8 L93.15 -21.3 Q94.05 -23.95 92.3 -26.85 M118.35 -21.6 L119.15 -23.1 Q120.15 -25.75 118.0 -28.65 M110.65 -10.3 L110.55 -12.2 110.4 -14.0 M-39.5 -33.85 L-37.25 -33.85 M-39.05 -4.6 L-39.1 -4.35 M-29.65 4.8 L-29.95 -0.15 -29.7 -0.95 -28.95 -1.3 Q-28.5 -1.35 -28.15 -1.05 L-27.8 -0.3 -27.5 4.65 M-23.75 4.3 L-24.05 -0.5 -23.8 -1.3 -23.05 -1.65 -22.25 -1.4 -21.9 -0.65 -21.6 4.1 M-17.85 3.75 L-18.15 -0.85 -17.9 -1.65 -17.15 -2.0 Q-16.7 -2.05 -16.35 -1.75 -16.0 -1.45 -16.0 -1.0 L-15.7 3.5 M-12.0 3.1 L-12.25 -1.2 Q-12.3 -1.65 -11.95 -2.0 L-11.25 -2.35 -10.45 -2.1 Q-10.1 -1.8 -10.1 -1.35 L-9.85 2.9 M-6.1 2.5 L-6.35 -1.55 -6.05 -2.35 Q-5.75 -2.7 -5.3 -2.7 L-4.5 -2.45 Q-4.2 -2.15 -4.2 -1.7 L-3.95 2.3 M-38.55 5.15 L-38.8 1.75" fill="none" stroke="#000000" stroke-linecap="round" stroke-linejoin="round" stroke-opacity="0.4" stroke-width="1.0"/>
  </g>
</svg>
