<?xml version="1.0" encoding="UTF-8" standalone="no"?>
<svg xmlns:xlink="http://www.w3.org/1999/xlink" height="404.5px" width="292.85px" xmlns="http://www.w3.org/2000/svg">
  <g transform="matrix(1.0, 0.0, 0.0, 1.0, 146.4, 202.25)">
    <path d="M52.7 -38.25 L52.15 -36.85 51.6 -35.65 52.7 -38.25 M109.6 -177.6 L108.5 -176.8 108.6 -176.85 109.6 -177.6" fill="#ffffff" fill-rule="evenodd" stroke="none"/>
    <path d="M102.3 -199.35 L102.05 -199.2 Q100.35 -198.25 99.8 -197.35 100.4 -198.35 102.3 -199.35 M102.8 -178.1 L106.25 -176.65 108.6 -176.85 108.5 -176.8 Q106.15 -175.8 102.8 -178.1 M78.4 -120.5 L77.7 -118.65 77.65 -118.6 78.4 -120.5 M73.7 -104.25 L73.15 -102.1 72.95 -101.4 73.7 -104.25 M69.5 -88.9 L69.4 -88.5 69.2 -87.85 69.5 -88.9 M53.25 -39.65 L52.8 -38.6 53.25 -39.65 M93.35 -166.95 L94.55 -167.45 94.5 -167.4 93.55 -167.0 93.35 -166.95 M68.4 -156.35 Q73.75 -163.1 79.2 -169.1 L78.7 -168.5 68.4 -156.35 M-76.3 -16.9 L-76.35 -16.95 -73.2 -17.5 -72.4 -17.65 -76.3 -16.9 M-18.3 -43.55 L-17.7 -44.2 -16.5 -45.55 -15.55 -46.45 -16.75 -45.25 -18.3 -43.55 M-91.7 -12.2 L-93.65 -11.25 -93.6 -11.3 -91.75 -12.25 -91.7 -12.2 M-104.3 -3.0 Q-107.05 -0.1 -108.9 3.15 L-109.0 3.1 Q-107.15 0.0 -104.5 -2.85 L-104.3 -3.0" fill="#c2c2c2" fill-rule="evenodd" stroke="none"/>
    <path d="M-128.75 77.35 L-128.9 78.5 -128.75 77.35" fill="#515151" fill-rule="evenodd" stroke="none"/>
    <path d="M11.6 193.1 L12.15 194.7 14.7 200.3 Q12.4 196.2 11.25 192.45 L11.35 192.45 11.6 193.1 M15.05 201.0 L15.2 201.25 15.05 201.0 M-3.05 194.35 L-2.85 193.85 -2.8 193.65 -2.55 193.0 -3.05 194.35 M-42.4 195.1 L-42.2 195.85 -42.2 195.9 -42.4 195.1 M-87.25 187.95 L-87.2 187.95 -85.8 190.1 -87.25 187.95" fill="#d9d9d9" fill-rule="evenodd" stroke="none"/>
    <path d="M-55.8 53.7 L-57.1 59.35 -57.2 59.4 -57.35 59.5 -55.9 53.65 -55.8 53.7 M-53.25 196.25 L-54.35 196.3 -55.05 196.3 -53.25 196.25 -54.35 196.3 -53.25 196.25" fill="#d7d7d7" fill-rule="evenodd" stroke="none"/>
    <path d="M103.95 -180.75 Q103.6 -179.25 102.8 -178.1 106.15 -175.8 108.5 -176.8 L109.6 -177.6 110.7 -179.7 112.9 -179.0 114.1 -178.4 114.6 -178.15 115.4 -177.65 115.45 -177.65 115.5 -177.6 Q121.75 -178.85 124.9 -173.65 126.5 -171.1 126.8 -168.25 129.15 -162.9 132.85 -152.4 136.25 -144.4 140.8 -143.6 145.4 -142.75 145.9 -135.4 146.15 -131.75 145.5 -128.25 142.15 -126.25 139.5 -130.9 138.15 -129.1 131.75 -133.0 124.25 -137.6 122.3 -137.6 114.8 -137.6 104.8 -142.1 101.05 -143.75 97.25 -146.15 L94.15 -148.25 94.1 -148.2 92.2 -147.15 91.55 -146.55 91.5 -146.45 88.35 -142.2 88.2 -142.0 88.1 -141.8 88.0 -141.65 87.9 -141.45 87.4 -140.55 85.75 -137.55 83.0 -131.75 82.55 -130.7 82.1 -129.7 81.75 -128.85 78.8 -121.65 78.6 -121.1 78.4 -120.5 77.65 -118.6 76.8 -116.25 74.75 -108.3 73.7 -104.25 72.95 -101.4 69.5 -88.9 69.2 -87.85 68.5 -85.5 67.45 -81.9 65.25 -74.4 59.65 -57.0 59.05 -55.25 56.65 -48.45 56.3 -47.45 53.25 -39.65 52.8 -38.6 52.7 -38.25 51.6 -35.65 52.15 -36.85 Q49.4 -30.65 47.5 -28.25 L46.85 -27.4 45.8 -26.0 45.5 -25.6 44.6 -24.35 40.2 -16.0 39.9 -15.25 39.85 -15.05 39.8 -14.9 39.05 -11.65 38.8 -8.15 38.75 -7.95 38.85 -6.4 42.15 4.4 Q47.15 13.6 41.85 23.6 39.15 28.6 35.5 31.75 26.95 38.15 20.65 53.4 19.05 57.35 12.8 77.1 10.9 83.1 12.3 102.25 13.6 119.9 10.8 124.4 7.5 129.85 6.8 151.35 6.5 162.1 6.8 171.75 L8.25 176.9 9.8 184.2 10.15 187.1 10.25 188.05 11.15 192.15 11.25 192.45 2.05 192.85 2.8 188.4 Q2.5 185.6 0.85 182.2 L-0.7 179.4 Q-1.0 175.05 1.35 147.05 L3.8 119.9 Q2.55 118.4 1.6 115.35 -0.25 109.2 1.3 101.4 3.2 92.0 3.2 70.8 3.2 49.55 1.3 48.4 -0.25 47.45 -4.2 47.2 L-7.85 47.1 Q-9.5 46.25 -15.5 47.6 L-21.2 49.1 Q-40.35 57.85 -54.7 54.0 L-55.8 53.7 -55.9 53.65 Q-59.6 52.5 -62.65 50.5 L-65.2 48.4 Q-65.85 58.75 -90.85 101.0 L-92.5 103.75 Q-97.2 112.65 -97.5 141.5 -97.8 169.15 -94.5 175.75 -91.9 181.0 -87.25 187.95 L-100.7 187.15 Q-100.8 184.6 -101.85 182.25 -102.7 180.35 -104.05 178.9 L-105.2 177.75 Q-101.45 170.25 -105.6 132.95 L-110.5 97.1 Q-105.3 83.65 -106.25 69.85 -106.6 64.7 -108.0 57.05 L-110.5 43.1 Q-112.15 33.35 -112.75 26.6 -115.3 48.95 -122.2 65.1 -125.7 73.3 -128.7 76.9 L-128.75 77.35 -130.7 78.65 -129.7 74.15 -133.2 77.9 -132.2 74.9 Q-126.15 69.2 -122.75 57.7 -119.8 47.65 -118.2 30.4 -116.95 16.95 -112.7 9.1 -111.4 6.7 -109.95 5.1 L-109.9 5.05 -109.9 5.0 -108.9 3.15 Q-107.05 -0.1 -104.3 -3.0 L-98.5 -8.25 -93.65 -11.25 -91.7 -12.2 Q-87.1 -14.35 -81.05 -15.9 L-76.3 -16.9 -72.4 -17.65 -61.55 -19.25 -60.85 -19.35 -60.7 -19.4 -59.6 -19.55 -45.65 -21.85 -45.5 -21.85 -45.05 -21.95 -42.4 -22.6 -42.25 -22.65 -42.1 -22.7 Q-33.2 -25.15 -29.85 -29.6 L-28.5 -31.35 -18.3 -43.55 -16.75 -45.25 -15.55 -46.45 -12.05 -50.0 -11.2 -50.9 -10.25 -51.45 -9.6 -51.85 9.95 -64.85 12.8 -66.9 Q20.3 -72.35 30.3 -89.5 L38.8 -105.6 42.15 -113.6 42.4 -114.2 Q51.7 -134.85 67.55 -155.25 L68.4 -156.35 78.7 -168.5 79.9 -169.8 80.0 -169.9 Q82.95 -167.1 87.15 -166.55 89.1 -166.35 91.3 -166.6 L93.2 -166.9 93.35 -166.95 93.55 -167.0 94.5 -167.4 94.55 -167.45 94.8 -168.1 Q95.45 -169.5 94.55 -169.8 L93.55 -169.85 Q88.55 -169.7 85.55 -172.45 L84.1 -174.15 82.8 -176.15 81.9 -177.7 80.55 -180.35 Q78.5 -184.55 75.7 -186.25 L73.3 -187.1 73.3 -186.95 73.0 -187.15 70.3 -188.1 Q71.85 -190.6 75.75 -189.35 77.7 -188.7 79.3 -187.6 81.6 -184.9 84.55 -182.1 L87.4 -179.5 89.65 -177.55 Q96.85 -180.95 103.95 -180.75 M-57.35 59.5 L-58.45 63.95 Q-63.2 79.6 -70.7 92.4 L-71.2 100.95 Q-71.95 110.35 -73.2 114.4 L-68.0 137.7 Q-61.9 163.1 -57.2 173.4 L-49.9 183.15 -47.65 186.3 -55.35 187.55 Q-56.6 185.15 -58.7 184.05 L-61.7 182.3 Q-63.2 181.0 -63.7 178.4 -64.1 176.2 -73.95 141.9 -83.0 110.4 -82.7 106.9 -82.35 102.75 -77.05 89.35 -72.25 77.05 -69.2 71.4 -67.0 67.35 -61.9 62.95 L-57.35 59.5 M89.65 -177.55 L94.1 -174.0 95.3 -173.1 Q96.75 -170.95 96.35 -169.4 96.05 -168.35 94.8 -167.6 L94.55 -167.45 94.8 -167.6 Q96.05 -168.35 96.35 -169.4 96.75 -170.95 95.3 -173.1 L94.1 -174.0 89.65 -177.55 M108.35 -165.9 Q106.85 -165.65 105.4 -164.85 L104.3 -164.1 Q109.0 -156.9 113.6 -158.8 115.95 -159.7 117.3 -162.1 113.25 -166.8 108.35 -165.9 M142.9 -136.8 Q142.8 -138.8 141.5 -140.25 L139.65 -142.0 139.65 -142.9 138.5 -142.9 135.25 -144.7 131.5 -144.8 131.55 -144.75 Q133.1 -144.15 135.85 -141.55 132.8 -139.7 131.25 -140.15 L129.25 -140.4 Q129.2 -139.3 129.5 -138.15 130.0 -136.05 131.7 -134.95 L133.7 -133.95 137.35 -132.5 141.25 -132.25 141.9 -132.45 140.15 -132.35 Q141.2 -132.7 141.95 -133.9 142.95 -135.3 142.9 -136.8 M-112.75 26.6 Q-113.45 19.25 -113.0 15.4 -112.35 9.9 -109.95 5.1 -112.35 9.9 -113.0 15.4 -113.45 19.25 -112.75 26.6" fill="#ffffff" fill-opacity="0.0" fill-rule="evenodd" stroke="none"/>
    <path d="M35.5 31.75 L32.65 36.65 Q29.65 42.5 28.8 47.1 28.4 49.3 26.4 54.3 L22.3 64.15 Q16.8 78.25 16.8 87.75 16.8 95.75 13.15 128.5 10.6 161.45 15.5 179.75 L16.9 181.75 9.8 184.2 8.25 176.9 6.8 171.75 Q6.5 162.1 6.8 151.35 7.5 129.85 10.8 124.4 13.6 119.9 12.3 102.25 10.9 83.1 12.8 77.1 19.05 57.35 20.65 53.4 26.95 38.15 35.5 31.75 M-2.8 193.65 L-1.85 191.1 Q-0.2 186.5 -2.85 183.0 L-5.85 180.4 Q-1.85 143.1 -1.85 130.4 -1.85 122.5 -3.85 116.65 L-5.85 112.4 Q-5.2 103.75 -3.85 93.75 -3.0 87.5 -5.35 66.7 L-7.85 47.1 -4.2 47.2 Q-0.25 47.45 1.3 48.4 3.2 49.55 3.2 70.8 3.2 92.0 1.3 101.4 -0.25 109.2 1.6 115.35 2.55 118.4 3.8 119.9 L1.35 147.05 Q-1.0 175.05 -0.7 179.4 L0.85 182.2 Q2.5 185.6 2.8 188.4 L2.05 192.85 -2.55 193.0 -2.8 193.65 M-59.2 188.9 L-66.7 180.4 Q-69.05 167.05 -72.8 152.45 -80.3 123.35 -87.2 117.4 -88.7 115.8 -89.8 112.4 -91.5 107.25 -90.85 101.0 -65.85 58.75 -65.2 48.4 L-62.65 50.5 Q-59.6 52.5 -55.9 53.65 L-57.35 59.5 -61.9 62.95 Q-67.0 67.35 -69.2 71.4 -72.25 77.05 -77.05 89.35 -82.35 102.75 -82.7 106.9 -83.0 110.4 -73.95 141.9 -64.1 176.2 -63.7 178.4 -63.2 181.0 -61.7 182.3 L-58.7 184.05 Q-56.6 185.15 -55.35 187.55 L-59.75 188.25 -59.2 188.9 M73.3 -186.95 L73.3 -187.1 75.7 -186.25 Q78.5 -184.55 80.55 -180.35 L81.9 -177.7 82.8 -176.15 84.1 -174.15 85.55 -172.45 Q88.55 -169.7 93.55 -169.85 L94.55 -169.8 Q95.45 -169.5 94.8 -168.1 L94.55 -167.45 93.35 -166.95 93.2 -166.9 91.3 -166.6 Q89.1 -166.35 87.15 -166.55 82.95 -167.1 80.0 -169.9 L78.65 -171.45 78.45 -171.7 77.45 -173.15 Q74.9 -177.4 75.3 -182.1 75.6 -185.35 73.3 -186.95" fill="#000000" fill-opacity="0.101960786" fill-rule="evenodd" stroke="none"/>
    <path d="M103.05 -188.65 L103.85 -185.45 Q104.35 -182.75 103.95 -180.75 96.85 -180.95 89.65 -177.55 L87.4 -179.5 84.55 -182.1 89.5 -181.6 88.15 -183.6 92.15 -182.6 90.8 -185.25 94.8 -183.6 94.5 -186.6 97.15 -183.9 96.5 -186.9 99.5 -184.6 99.5 -188.25 101.5 -186.6 102.8 -188.6 103.05 -188.65 M14.7 200.3 L14.85 200.6 14.9 200.7 15.05 201.0 15.2 201.25 15.25 201.3 15.25 201.35 15.4 201.55 15.5 201.7 15.5 201.75 -5.85 201.75 -3.05 194.35 -2.55 193.0 2.05 192.85 11.25 192.45 Q12.4 196.2 14.7 200.3 M-85.8 190.1 L-81.85 195.75 -102.5 195.75 Q-100.55 191.25 -100.7 187.15 L-87.25 187.95 -85.8 190.1 M77.45 -173.15 L78.45 -171.7 78.65 -171.45 80.0 -169.9 79.9 -169.8 79.2 -169.1 Q73.75 -163.1 68.4 -156.35 L67.55 -155.25 Q51.7 -134.85 42.4 -114.2 L42.15 -113.6 38.8 -105.6 30.3 -89.5 Q20.3 -72.35 12.8 -66.9 L9.95 -64.85 -9.6 -51.85 -10.25 -51.45 -11.2 -50.9 -12.05 -50.0 -12.7 -49.9 -14.5 -50.4 -11.5 -52.25 -15.2 -51.4 -12.7 -53.6 -8.85 -55.9 -12.5 -55.6 -4.7 -58.75 -4.85 -60.1 1.15 -61.4 -0.35 -62.75 4.5 -64.25 3.0 -65.25 6.15 -65.7 6.3 -65.75 6.25 -65.8 4.65 -67.25 8.3 -67.9 7.3 -68.9 10.65 -69.75 8.15 -71.25 13.3 -73.25 11.8 -75.25 14.65 -75.75 13.0 -77.4 16.3 -77.75 14.5 -79.75 17.3 -79.1 15.65 -82.1 20.15 -82.6 17.8 -84.25 22.8 -83.4 19.0 -86.25 23.15 -85.9 21.0 -87.75 25.8 -87.6 23.0 -90.1 26.0 -91.75 23.5 -93.75 28.0 -93.75 25.5 -96.9 29.0 -97.25 26.8 -99.4 29.8 -99.75 27.8 -102.25 31.0 -102.4 29.65 -104.1 32.5 -103.75 29.3 -106.9 32.5 -108.25 30.65 -109.6 34.5 -109.9 32.15 -112.9 36.15 -112.1 33.65 -113.6 36.5 -113.6 35.5 -114.1 37.0 -115.75 35.15 -117.75 39.0 -117.4 37.15 -119.75 40.15 -120.1 38.3 -121.4 39.65 -122.25 38.8 -123.4 40.3 -123.9 39.0 -125.9 42.3 -125.9 39.3 -130.1 42.15 -129.25 41.65 -132.1 44.65 -130.9 43.8 -132.6 43.8 -133.9 45.5 -133.25 44.5 -135.25 46.8 -135.25 45.5 -136.9 48.5 -137.9 47.15 -139.6 49.8 -139.25 48.5 -140.9 50.8 -141.6 50.5 -143.6 52.5 -144.9 51.5 -147.25 55.15 -146.6 54.15 -148.6 57.5 -148.6 55.5 -151.25 58.15 -150.9 58.15 -152.6 61.5 -153.6 60.5 -154.9 62.8 -155.25 62.5 -156.9 64.15 -157.6 62.8 -159.25 65.8 -159.6 64.8 -160.9 68.5 -160.25 65.5 -163.9 70.5 -162.9 67.15 -166.6 72.8 -164.9 69.15 -168.9 75.15 -167.9 72.15 -171.6 77.15 -171.25 74.8 -174.25 77.45 -173.15" fill="#000000" fill-opacity="0.3019608" fill-rule="evenodd" stroke="none"/>
    <path d="M16.9 181.75 L17.45 182.55 18.0 183.3 18.55 184.1 19.9 186.05 20.45 186.9 23.05 190.95 24.15 193.1 11.6 193.1 11.35 192.45 11.25 192.45 11.15 192.15 10.25 188.05 10.15 187.1 9.8 184.2 16.9 181.75 M-47.65 186.3 L-46.8 187.55 -42.4 195.1 -42.2 195.9 -53.25 196.25 -55.05 196.3 -59.2 196.4 -59.2 188.9 -59.75 188.25 -55.35 187.55 -47.65 186.3" fill="#000000" fill-opacity="0.3529412" fill-rule="evenodd" stroke="none"/>
    <path d="M108.6 -176.85 L109.0 -177.1 Q107.65 -177.55 107.1 -178.65 L106.8 -179.6 106.9 -180.5 Q107.05 -183.35 106.35 -187.4 L105.95 -189.45 104.55 -194.85 Q102.7 -195.65 102.3 -197.55 L102.3 -199.35 Q105.75 -201.2 107.9 -199.9 L108.0 -199.8 108.1 -199.75 108.2 -199.7 108.3 -199.6 108.45 -199.45 108.55 -199.65 108.6 -199.7 108.7 -199.8 109.55 -200.4 109.75 -200.5 109.8 -200.55 109.9 -200.6 110.4 -200.85 110.65 -200.95 110.95 -201.1 Q115.25 -202.7 117.2 -200.5 119.8 -197.6 116.75 -180.85 115.95 -178.8 114.6 -178.15 L114.1 -178.4 Q113.2 -179.05 112.85 -179.95 L112.75 -180.95 Q113.75 -184.6 113.4 -190.85 L112.8 -196.35 Q111.05 -197.4 111.0 -199.4 L111.25 -201.15 Q109.4 -200.55 108.55 -199.5 L108.5 -199.4 Q110.7 -197.15 110.85 -186.3 L110.8 -180.1 110.75 -179.75 110.7 -179.7 109.6 -177.6 108.6 -176.85 M108.5 -199.4 L108.45 -199.45 108.5 -199.4" fill="#ffffff" fill-opacity="0.101960786" fill-rule="evenodd" stroke="none"/>
    <path d="M99.8 -197.35 Q100.35 -198.25 102.05 -199.2 L102.3 -199.35 102.3 -197.55 Q102.7 -195.65 104.55 -194.85 L105.95 -189.45 106.35 -187.4 Q107.05 -183.35 106.9 -180.5 L106.8 -179.6 107.1 -178.65 Q107.65 -177.55 109.0 -177.1 L108.6 -176.85 106.25 -176.65 102.8 -178.1 Q103.6 -179.25 103.95 -180.75 104.35 -182.75 103.85 -185.45 L103.05 -188.65 100.3 -195.1 99.75 -195.65 99.8 -197.35 M108.5 -199.4 L108.55 -199.5 Q109.4 -200.55 111.25 -201.15 L111.0 -199.4 Q111.05 -197.4 112.8 -196.35 L113.4 -190.85 Q113.75 -184.6 112.75 -180.95 L112.85 -179.95 Q113.2 -179.05 114.1 -178.4 L112.9 -179.0 110.7 -179.7 110.75 -179.75 110.8 -180.1 110.85 -186.3 Q110.7 -197.15 108.5 -199.4" fill="#000000" fill-opacity="0.050980393" fill-rule="evenodd" stroke="none"/>
    <path d="M108.35 -165.9 Q113.25 -166.8 117.3 -162.1 115.95 -159.7 113.6 -158.8 109.0 -156.9 104.3 -164.1 L105.4 -164.85 Q106.85 -165.65 108.35 -165.9" fill="#000000" fill-opacity="0.8" fill-rule="evenodd" stroke="none"/>
    <path d="M-128.9 78.5 L-129.2 80.4 Q-129.35 82.45 -130.65 84.2 L-132.75 86.85 Q-134.8 89.7 -130.7 94.4 -126.15 99.6 -127.45 105.8 -128.15 108.95 -131.7 114.9 -134.7 119.9 -135.2 125.4 -136.15 123.85 -135.75 120.7 L-135.2 117.9 Q-138.65 119.8 -139.75 127.05 -140.3 130.65 -140.2 133.9 -142.4 131.7 -141.5 126.35 L-140.2 121.4 -143.2 127.9 -143.2 120.9 Q-143.2 117.65 -141.65 113.35 L-138.95 106.1 Q-138.35 104.3 -138.6 100.0 -138.85 95.95 -138.0 93.9 -138.85 94.35 -140.05 96.15 -141.2 97.95 -142.1 98.35 -143.55 88.3 -139.65 85.7 -144.1 86.25 -145.6 88.7 -143.05 84.0 -141.3 82.6 L-132.2 74.9 -133.2 77.9 -129.7 74.15 -130.7 78.65 -128.75 77.35 -128.9 78.5 M134.0 -137.5 L132.15 -139.25 Q136.1 -141.55 138.35 -139.1 139.3 -138.15 139.65 -136.85 L139.8 -136.25 139.65 -136.2 Q136.45 -135.9 134.0 -137.5" fill="#000000" fill-opacity="0.6" fill-rule="evenodd" stroke="none"/>
    <path d="M142.9 -136.8 Q142.95 -135.3 141.95 -133.9 141.2 -132.7 140.15 -132.35 L141.9 -132.45 141.25 -132.25 137.35 -132.5 133.7 -133.95 131.7 -134.95 Q130.0 -136.05 129.5 -138.15 129.2 -139.3 129.25 -140.4 L131.25 -140.15 Q132.8 -139.7 135.85 -141.55 133.1 -144.15 131.55 -144.75 L131.5 -144.8 135.25 -144.7 138.5 -142.9 139.65 -142.9 139.65 -142.0 141.5 -140.25 Q142.8 -138.8 142.9 -136.8 M134.0 -137.5 Q136.45 -135.9 139.65 -136.2 L139.8 -136.25 139.65 -136.85 Q139.3 -138.15 138.35 -139.1 136.1 -141.55 132.15 -139.25 L134.0 -137.5" fill="#000000" fill-opacity="0.4" fill-rule="evenodd" stroke="none"/>
    <path d="M102.3 -199.35 L102.05 -199.2 Q100.35 -198.25 99.8 -197.35 99.2 -196.5 99.75 -195.65 L100.3 -195.1 103.05 -188.65 M102.3 -199.35 Q105.75 -201.2 107.9 -199.9 L108.0 -199.8 108.1 -199.75 108.2 -199.7 108.3 -199.6 108.45 -199.45 108.55 -199.65 108.6 -199.7 108.7 -199.8 109.55 -200.4 109.75 -200.5 109.8 -200.55 109.9 -200.6 110.4 -200.85 110.65 -200.95 110.95 -201.1 Q115.25 -202.7 117.2 -200.5 119.8 -197.6 116.75 -180.85 115.95 -178.8 114.6 -178.15 L115.4 -177.65 115.45 -177.65 115.5 -177.6 Q121.75 -178.85 124.9 -173.65 126.5 -171.1 126.8 -168.25 129.15 -162.9 132.85 -152.4 136.25 -144.4 140.8 -143.6 145.4 -142.75 145.9 -135.4 146.15 -131.75 145.5 -128.25 142.15 -126.25 139.5 -130.9 138.15 -129.1 131.75 -133.0 124.25 -137.6 122.3 -137.6 114.8 -137.6 104.8 -142.1 101.05 -143.75 97.25 -146.15 L94.15 -148.25 94.1 -148.2 92.2 -147.15 91.5 -146.45 88.35 -142.2 87.4 -140.55 85.75 -137.55 83.0 -131.75 82.55 -130.7 81.75 -128.85 78.8 -121.65 78.4 -120.5 77.65 -118.6 76.8 -116.25 74.75 -108.3 73.7 -104.25 72.95 -101.4 69.5 -88.9 69.2 -87.85 68.5 -85.5 67.45 -81.9 65.25 -74.4 59.65 -57.0 59.05 -55.25 56.65 -48.45 56.3 -47.45 53.25 -39.65 52.8 -38.6 52.7 -38.25 52.15 -36.85 Q49.4 -30.65 47.5 -28.25 L46.85 -27.4 45.8 -26.0 44.6 -24.35 40.2 -16.0 39.9 -15.25 39.85 -15.05 39.8 -14.9 39.05 -11.65 38.8 -8.15 Q38.75 -7.3 38.85 -6.4 L42.15 4.4 Q47.15 13.6 41.85 23.6 39.15 28.6 35.5 31.75 L32.65 36.65 Q29.65 42.5 28.8 47.1 28.4 49.3 26.4 54.3 L22.3 64.15 Q16.8 78.25 16.8 87.75 16.8 95.75 13.15 128.5 10.6 161.45 15.5 179.75 L16.9 181.75 17.45 182.55 18.55 184.1 19.9 186.05 23.05 190.95 24.15 193.1 11.6 193.1 12.15 194.7 14.7 200.3 14.85 200.6 14.9 200.7 15.05 201.0 15.2 201.25 15.25 201.35 15.4 201.55 15.5 201.7 15.5 201.75 -5.85 201.75 -3.05 194.35 -2.55 193.0 M69.4 -88.5 L69.2 -87.85 M-2.85 193.85 L-2.8 193.65 -1.85 191.1 Q-0.2 186.5 -2.85 183.0 L-5.85 180.4 Q-1.85 143.1 -1.85 130.4 -1.85 122.5 -3.85 116.65 L-5.85 112.4 Q-5.2 103.75 -3.85 93.75 -3.0 87.5 -5.35 66.7 L-7.85 47.1 Q-9.5 46.25 -15.5 47.6 L-21.2 49.1 Q-40.35 57.85 -54.7 54.0 L-55.8 53.7 -55.9 53.65 -57.35 59.5 -58.45 63.95 Q-63.2 79.6 -70.7 92.4 L-71.2 100.95 Q-71.95 110.35 -73.2 114.4 L-68.0 137.7 Q-61.9 163.1 -57.2 173.4 L-49.9 183.15 -47.65 186.3 -46.8 187.55 -42.4 195.1 -42.2 195.85 -42.2 195.9 -53.25 196.25 -54.35 196.3 -55.05 196.3 -59.2 196.4 -59.2 188.9 -66.7 180.4 Q-69.05 167.05 -72.8 152.45 -80.3 123.35 -87.2 117.4 -88.7 115.8 -89.8 112.4 -91.5 107.25 -90.85 101.0 L-92.5 103.75 Q-97.2 112.65 -97.5 141.5 -97.8 169.15 -94.5 175.75 -91.9 181.0 -87.25 187.95 L-87.2 187.95 -85.8 190.1 -81.85 195.75 -102.5 195.75 Q-100.55 191.25 -100.7 187.15 -100.8 184.6 -101.85 182.25 -102.7 180.35 -104.05 178.9 L-105.2 177.75 Q-101.45 170.25 -105.6 132.95 L-110.5 97.1 Q-105.3 83.65 -106.25 69.85 -106.6 64.7 -108.0 57.05 L-110.5 43.1 Q-112.15 33.35 -112.75 26.6 -115.3 48.95 -122.2 65.1 -125.7 73.3 -128.7 76.9 L-128.75 77.35 -128.9 78.5 -129.2 80.4 Q-129.35 82.45 -130.65 84.2 L-132.75 86.85 Q-134.8 89.7 -130.7 94.4 -126.15 99.6 -127.45 105.8 -128.15 108.95 -131.7 114.9 -134.7 119.9 -135.2 125.4 -136.15 123.85 -135.75 120.7 L-135.2 117.9 Q-138.65 119.8 -139.75 127.05 -140.3 130.65 -140.2 133.9 -142.4 131.7 -141.5 126.35 L-140.2 121.4 -143.2 127.9 -143.2 120.9 Q-143.2 117.65 -141.65 113.35 L-138.95 106.1 Q-138.35 104.3 -138.6 100.0 -138.85 95.95 -138.0 93.9 -138.85 94.35 -140.05 96.15 -141.2 97.95 -142.1 98.35 -143.55 88.3 -139.65 85.7 -144.1 86.25 -145.6 88.7 L-145.9 89.2 M108.45 -199.45 L108.5 -199.4 M114.1 -178.4 L114.6 -178.15 M73.3 -186.95 Q75.6 -185.35 75.3 -182.1 74.9 -177.4 77.45 -173.15 M91.5 -146.45 L91.55 -146.55 92.2 -147.15 M87.4 -140.55 L87.9 -141.45 88.0 -141.65 88.1 -141.8 88.2 -142.0 88.35 -142.2 M81.75 -128.85 L82.1 -129.7 82.55 -130.7 M84.55 -182.1 Q81.6 -184.9 79.3 -187.6 77.7 -188.7 75.75 -189.35 71.85 -190.6 70.3 -188.1 L73.0 -187.15 73.3 -186.95 M-11.2 -50.9 L-10.25 -51.45 M38.8 -8.15 L38.75 -7.95 38.85 -6.4 M45.8 -26.0 L45.5 -25.6 44.6 -24.35 M51.6 -35.65 L52.15 -36.85 M17.45 182.55 L18.0 183.3 M11.25 192.45 L11.35 192.45 11.6 193.1 M11.15 192.15 L11.25 192.45 Q12.4 196.2 14.7 200.3 M19.9 186.05 L20.45 186.9 23.05 190.95 M15.25 201.35 L15.25 201.3 M15.2 201.25 L15.05 201.0 M-91.7 -12.2 Q-87.1 -14.35 -81.05 -15.9 L-76.3 -16.9 -72.4 -17.65 -61.55 -19.25 -60.85 -19.35 -60.7 -19.4 -59.6 -19.55 -45.65 -21.85 -45.05 -21.95 -42.4 -22.6 -42.25 -22.65 -42.1 -22.7 Q-33.2 -25.15 -29.85 -29.6 L-28.5 -31.35 -18.3 -43.55 -16.75 -45.25 -15.55 -46.45 -12.05 -50.0 M-93.65 -11.25 L-91.7 -12.2 M-93.65 -11.25 L-98.5 -8.25 -104.3 -3.0 Q-107.05 -0.1 -108.9 3.15 L-109.9 5.0 -109.9 5.05 -109.95 5.1 Q-111.4 6.7 -112.7 9.1 -116.95 16.95 -118.2 30.4 -119.8 47.65 -122.75 57.7 -126.15 69.2 -132.2 74.9 L-141.3 82.6 Q-143.05 84.0 -145.6 88.7 M-45.05 -21.95 L-45.5 -21.85 -45.65 -21.85 M-85.8 190.1 L-87.25 187.95 M-59.2 188.9 L-59.75 188.25 M-53.25 196.25 L-55.05 196.3 M-42.4 195.1 L-42.2 195.9" fill="none" stroke="#000000" stroke-linecap="round" stroke-linejoin="round" stroke-width="1.0"/>
    <path d="M103.05 -188.65 L103.85 -185.45 Q104.35 -182.75 103.95 -180.75 103.6 -179.25 102.8 -178.1 L106.25 -176.65 108.6 -176.85 109.6 -177.6 108.5 -176.8 M84.55 -182.1 L87.4 -179.5 89.65 -177.55 Q96.85 -180.95 103.95 -180.75 M108.5 -199.4 Q110.7 -197.15 110.85 -186.3 L110.8 -180.1 110.75 -179.75 110.7 -179.7 112.9 -179.0 114.1 -178.4 M110.7 -179.7 L109.6 -177.6 M77.45 -173.15 L78.45 -171.7 78.65 -171.45 80.0 -169.9 Q82.95 -167.1 87.15 -166.55 89.1 -166.35 91.3 -166.6 L93.2 -166.9 93.35 -166.95 94.55 -167.45 94.8 -167.6 Q96.05 -168.35 96.35 -169.4 96.75 -170.95 95.3 -173.1 L94.1 -174.0 89.65 -177.55 M-12.05 -50.0 L-11.2 -50.9 M-10.25 -51.45 L-9.6 -51.85 9.95 -64.85 12.8 -66.9 Q20.3 -72.35 30.3 -89.5 L38.8 -105.6 42.15 -113.6 42.4 -114.2 Q51.7 -134.85 67.55 -155.25 L68.4 -156.35 Q73.75 -163.1 79.2 -169.1 L79.9 -169.8 80.0 -169.9 M79.2 -169.1 L78.7 -168.5 68.4 -156.35 M35.5 31.75 Q26.95 38.15 20.65 53.4 19.05 57.35 12.8 77.1 10.9 83.1 12.3 102.25 13.6 119.9 10.8 124.4 7.5 129.85 6.8 151.35 6.5 162.1 6.8 171.75 L8.25 176.9 9.8 184.2 16.9 181.75 M9.8 184.2 L10.15 187.1 10.25 188.05 11.15 192.15 M2.05 192.85 L11.25 192.45 M-109.95 5.1 Q-112.35 9.9 -113.0 15.4 -113.45 19.25 -112.75 26.6 M-55.35 187.55 L-47.65 186.3 M-55.9 53.65 Q-59.6 52.5 -62.65 50.5 L-65.2 48.4 Q-65.85 58.75 -90.85 101.0 M-87.25 187.95 L-100.7 187.15 M-59.75 188.25 L-55.35 187.55 M-2.55 193.0 L2.05 192.85" fill="none" stroke="#000000" stroke-linecap="round" stroke-linejoin="round" stroke-opacity="0.6" stroke-width="1.0"/>
    <path d="M103.05 -188.65 L102.8 -188.6 101.5 -186.6 99.5 -188.25 99.5 -184.6 96.5 -186.9 97.15 -183.9 94.5 -186.6 94.8 -183.6 90.8 -185.25 92.15 -182.6 88.15 -183.6 89.5 -181.6 84.55 -182.1 M77.45 -173.15 L74.8 -174.25 77.15 -171.25 72.15 -171.6 75.15 -167.9 69.15 -168.9 72.8 -164.9 67.15 -166.6 70.5 -162.9 65.5 -163.9 68.5 -160.25 64.8 -160.9 65.8 -159.6 62.8 -159.25 64.15 -157.6 62.5 -156.9 62.8 -155.25 60.5 -154.9 61.5 -153.6 58.15 -152.6 58.15 -150.9 55.5 -151.25 57.5 -148.6 54.15 -148.6 55.15 -146.6 51.5 -147.25 52.5 -144.9 50.5 -143.6 50.8 -141.6 48.5 -140.9 49.8 -139.25 47.15 -139.6 48.5 -137.9 45.5 -136.9 46.8 -135.25 44.5 -135.25 45.5 -133.25 43.8 -133.9 43.8 -132.6 44.65 -130.9 41.65 -132.1 42.15 -129.25 39.3 -130.1 42.3 -125.9 39.0 -125.9 40.3 -123.9 38.8 -123.4 39.65 -122.25 38.3 -121.4 40.15 -120.1 37.15 -119.75 39.0 -117.4 35.15 -117.75 37.0 -115.75 35.5 -114.1 36.5 -113.6 33.65 -113.6 36.15 -112.1 32.15 -112.9 34.5 -109.9 30.65 -109.6 32.5 -108.25 29.3 -106.9 32.5 -103.75 29.65 -104.1 31.0 -102.4 27.8 -102.25 29.8 -99.75 26.8 -99.4 29.0 -97.25 25.5 -96.9 28.0 -93.75 23.5 -93.75 26.0 -91.75 23.0 -90.1 25.8 -87.6 21.0 -87.75 23.15 -85.9 19.0 -86.25 22.8 -83.4 17.8 -84.25 20.15 -82.6 15.65 -82.1 17.3 -79.1 14.5 -79.75 16.3 -77.75 13.0 -77.4 14.65 -75.75 11.8 -75.25 13.3 -73.25 8.15 -71.25 10.65 -69.75 7.3 -68.9 8.3 -67.9 4.65 -67.25 6.25 -65.8 M6.15 -65.7 L3.0 -65.25 4.5 -64.25 -0.35 -62.75 1.15 -61.4 -4.85 -60.1 -4.7 -58.75 -12.5 -55.6 -8.85 -55.9 -12.7 -53.6 -15.2 -51.4 -11.5 -52.25 -14.5 -50.4 -12.7 -49.9 -12.05 -50.0" fill="none" stroke="#000000" stroke-linecap="round" stroke-linejoin="round" stroke-width="1.0"/>
    <path d="M6.25 -65.8 L6.3 -65.75 6.15 -65.7" fill="none" stroke="#000000" stroke-linecap="round" stroke-linejoin="round" stroke-opacity="0.6" stroke-width="1.0"/>
    <path d="M134.0 -137.5 Q136.45 -135.9 139.65 -136.2 L139.8 -136.25 139.65 -136.85 Q139.3 -138.15 138.35 -139.1 136.1 -141.55 132.15 -139.25 L134.0 -137.5" fill="none" stroke="#000000" stroke-linecap="round" stroke-linejoin="round" stroke-opacity="0.4" stroke-width="1.0"/>
    <path d="M113.85 -163.05 Q113.85 -162.2 113.25 -161.65 112.7 -161.05 112.1 -161.25 111.5 -161.45 111.0 -162.05 L110.2 -163.25 Q109.95 -163.85 110.5 -164.45 111.1 -165.0 111.9 -165.0 112.7 -165.0 113.25 -164.45 113.85 -163.85 113.85 -163.05" fill="#ffffff" fill-rule="evenodd" stroke="none"/>
  </g>
</svg>
