<?xml version="1.0" encoding="UTF-8" standalone="no"?>
<svg xmlns:xlink="http://www.w3.org/1999/xlink" height="213.1px" width="104.85px" xmlns="http://www.w3.org/2000/svg">
  <g transform="matrix(1.0, 0.0, 0.0, 1.0, 61.45, 86.6)">
    <path d="M41.25 -81.65 L41.9 -80.55 42.9 -76.45 42.9 -76.3 42.9 -76.1 42.9 116.0 Q42.9 120.15 40.0 123.05 37.05 126.0 32.9 126.0 L26.45 126.0 Q30.45 125.9 33.3 123.0 36.25 120.05 36.25 115.8 L36.25 -16.75 -60.95 -16.75 -60.95 -22.75 36.25 -22.75 36.25 -79.95 Q36.25 -83.35 34.25 -86.0 37.05 -85.6 39.1 -83.95 L40.4 -82.7 41.25 -81.65" fill="#000000" fill-opacity="0.101960786" fill-rule="evenodd" stroke="none"/>
    <path d="M26.45 126.0 L-50.95 126.0 Q-55.1 126.0 -58.05 123.05 -60.95 120.15 -60.95 116.0 L-60.95 -16.75 36.25 -16.75 36.25 115.8 Q36.25 120.05 33.3 123.0 30.45 125.9 26.45 126.0 M-60.95 -22.75 L-60.95 -76.1 Q-60.95 -80.25 -58.05 -83.2 -55.1 -86.1 -50.95 -86.1 L32.9 -86.1 34.3 -86.0 34.25 -86.0 Q36.25 -83.35 36.25 -79.95 L36.25 -22.75 -60.95 -22.75" fill="#ffffff" fill-opacity="0.0" fill-rule="evenodd" stroke="none"/>
    <path d="M41.25 -81.65 L41.9 -80.55 42.9 -76.45 42.9 -76.3 42.9 -76.1 42.9 116.0 Q42.9 120.15 40.0 123.05 37.05 126.0 32.9 126.0 L26.45 126.0 -50.95 126.0 Q-55.1 126.0 -58.05 123.05 -60.95 120.15 -60.95 116.0 L-60.95 -16.75 -60.95 -22.75 -60.95 -76.1 Q-60.95 -80.25 -58.05 -83.2 -55.1 -86.1 -50.95 -86.1 L32.9 -86.1 34.3 -86.0 Q36.95 -85.7 39.1 -84.0 L40.0 -83.2 40.45 -82.7 41.25 -81.65 40.4 -82.7 39.1 -83.95 Q37.05 -85.6 34.25 -86.0" fill="none" stroke="#000000" stroke-linecap="round" stroke-linejoin="round" stroke-width="1.0"/>
  </g>
</svg>
