<?xml version="1.0" encoding="UTF-8" standalone="no"?>
<svg xmlns:xlink="http://www.w3.org/1999/xlink" height="42.2px" width="42.2px" xmlns="http://www.w3.org/2000/svg">
  <g transform="matrix(1.0, 0.0, 0.0, 1.0, 22.45, 25.3)">
    <path d="M-19.85 -0.45 L-20.1 0.2 -20.75 0.45 -21.35 0.2 -21.6 -0.45 -21.35 -1.05 -20.75 -1.3 -20.1 -1.05 -19.85 -0.45 -20.15 -3.1 -20.2 -4.25 -20.15 -5.3 Q-19.9 -10.35 -17.25 -14.35 L-17.85 -14.15 -18.45 -14.4 -18.7 -15.0 -18.45 -15.65 -17.85 -15.9 -17.2 -15.65 -16.95 -15.0 -17.1 -14.6 -14.65 -17.55 Q-12.7 -19.5 -10.45 -20.75 L-11.0 -20.55 -11.65 -20.8 -11.9 -21.4 -11.65 -22.05 -11.0 -22.3 -10.4 -22.05 -10.15 -21.4 -10.35 -20.8 Q-6.55 -23.0 -1.85 -23.1 -2.75 -23.1 -2.75 -23.95 -2.75 -24.8 -1.85 -24.8 -1.0 -24.8 -1.0 -23.95 -1.0 -23.1 -1.8 -23.1 L-1.35 -23.1 3.35 -22.55 2.75 -22.8 2.5 -23.45 2.75 -24.05 3.35 -24.3 4.0 -24.05 4.25 -23.45 4.0 -22.8 3.35 -22.55 Q7.0 -21.65 10.05 -19.25 L9.8 -19.9 10.05 -20.5 10.7 -20.75 11.3 -20.5 11.55 -19.9 11.3 -19.25 10.7 -19.0 10.05 -19.25 12.0 -17.55 Q14.0 -15.55 15.3 -13.2 L15.2 -13.45 15.45 -14.05 Q15.7 -14.3 16.05 -14.3 L16.7 -14.05 16.95 -13.45 16.7 -12.8 16.05 -12.55 15.55 -12.75 Q16.45 -10.95 16.95 -8.9 L16.95 -9.05 Q16.95 -9.95 17.8 -9.95 L18.45 -9.7 18.7 -9.05 18.45 -8.45 17.8 -8.2 Q17.2 -8.2 17.05 -8.6 17.5 -6.55 17.5 -4.3 L17.75 -4.9 Q18.05 -5.15 18.4 -5.15 L19.0 -4.9 19.25 -4.3 19.0 -3.65 18.4 -3.4 Q18.1 -3.5 17.75 -3.65 L17.5 -4.3 17.5 -4.25 17.2 -0.55 17.95 -1.0 Q18.8 -1.0 18.8 -0.15 18.8 0.75 17.95 0.75 17.1 0.75 17.1 -0.15 L17.1 -0.2 16.25 2.65 Q16.5 2.4 16.85 2.4 L17.5 2.65 17.75 3.25 17.5 3.9 16.85 4.15 16.25 3.9 16.0 3.3 15.05 5.15 14.6 5.9 15.05 5.8 Q15.9 5.8 15.9 6.7 15.9 7.55 15.05 7.55 14.2 7.55 14.2 6.7 L14.25 6.45 13.45 7.5 12.0 9.1 11.15 9.9 Q11.45 9.65 11.8 9.65 12.15 9.65 12.4 9.9 L12.65 10.55 12.4 11.15 11.8 11.4 11.15 11.15 10.9 10.55 11.15 9.9 Q9.5 11.35 7.65 12.4 L7.85 12.35 8.5 12.6 8.75 13.2 8.5 13.85 7.85 14.1 7.25 13.85 7.0 13.2 Q7.0 12.85 7.25 12.6 L7.3 12.6 6.35 13.05 3.9 13.9 4.45 14.45 3.9 13.9 -1.35 14.6 -6.55 13.95 -8.6 13.25 Q-11.9 11.85 -14.65 9.1 L-15.95 7.7 -15.9 8.05 Q-15.9 8.95 -16.75 8.95 -17.6 8.95 -17.6 8.05 -17.6 7.2 -16.75 7.2 L-16.25 7.3 Q-19.0 3.8 -19.85 -0.45 M-21.95 -4.35 Q-21.95 -5.2 -21.1 -5.2 -20.25 -5.2 -20.25 -4.35 -20.25 -3.5 -21.1 -3.5 -21.95 -3.5 -21.95 -4.35 M-20.75 -9.05 Q-19.85 -9.05 -19.85 -8.2 -19.85 -7.35 -20.75 -7.35 -21.6 -7.35 -21.6 -8.2 -21.6 -9.05 -20.75 -9.05 M-20.35 -12.25 L-19.7 -12.5 -19.1 -12.25 -18.85 -11.6 -19.1 -11.0 -19.7 -10.75 -20.35 -11.0 -20.6 -11.6 -20.35 -12.25 M-1.35 -19.95 L-1.65 -19.95 -1.65 -7.0 -1.35 -7.0 -1.0 -6.95 2.2 -19.55 -1.35 -19.95 M-7.5 -22.6 L-7.75 -23.2 -7.5 -23.85 -6.85 -24.1 -6.25 -23.85 -6.0 -23.2 -6.25 -22.6 -6.85 -22.35 -7.5 -22.6 M-5.7 -19.35 Q-7.4 -18.9 -8.95 -18.0 L-2.85 -6.6 -2.55 -6.75 -5.7 -19.35 M-1.95 -19.95 L-5.45 -19.45 -2.3 -6.85 -1.95 -6.95 -1.95 -19.95 M-14.15 -19.35 L-13.9 -18.7 -14.15 -18.1 -14.8 -17.85 -15.4 -18.1 -15.65 -18.7 -15.4 -19.35 -14.8 -19.6 -14.15 -19.35 M-16.8 -7.05 L-17.05 -4.3 -4.15 -4.3 -4.1 -4.5 -16.8 -7.05 M-17.05 -4.0 L-16.8 -1.45 -4.7 -4.0 -17.05 -4.0 M-16.05 -9.85 L-16.75 -7.3 -4.1 -4.75 -4.05 -4.95 -16.05 -9.85 M-12.15 -15.6 L-12.45 -15.35 -14.5 -12.8 -3.7 -5.7 -3.5 -6.0 -12.15 -15.6 M-3.1 -6.4 L-9.2 -17.85 -11.95 -15.8 -3.35 -6.2 -3.1 -6.4 M5.55 -18.4 L2.5 -19.5 -0.7 -6.9 -0.45 -6.85 5.55 -18.4 M-3.85 -5.45 L-14.7 -12.55 -15.95 -10.15 -3.95 -5.25 -3.85 -5.45 M-4.15 -3.9 L-16.8 -1.25 -15.75 2.2 -4.05 -3.45 -4.15 -3.9 M-2.85 -1.55 L-2.85 -1.65 -8.6 9.75 -8.45 9.8 -5.9 10.85 -4.5 11.15 -4.5 11.2 -1.95 11.45 -1.95 -1.45 -2.85 -1.55 M-3.35 -1.95 L-11.25 7.95 -8.9 9.6 -3.6 -0.7 Q-2.75 -2.15 -3.35 -1.95 M-3.65 -2.55 L-13.7 5.45 -12.45 6.85 -11.45 7.75 -3.45 -2.3 -3.65 -2.55 M-1.35 -1.4 L-1.65 -1.4 -1.65 11.45 -1.35 11.45 1.95 11.15 -1.2 -1.4 -1.35 -1.4 M-0.5 -1.3 L-0.95 -1.4 2.2 11.1 2.95 10.9 4.3 10.45 5.55 9.9 5.6 9.9 -0.5 -1.3 M-4.0 -3.2 L-15.65 2.4 -13.9 5.25 -3.8 -2.8 -4.0 -3.2 M10.5 -16.1 Q15.4 -11.2 15.4 -4.25 15.4 2.7 10.5 7.6 8.35 9.8 6.85 10.5 L4.65 11.45 3.25 11.9 2.5 12.1 -1.35 12.5 -6.1 11.85 -6.1 11.9 -6.1 11.85 -8.55 10.95 Q-11.05 9.75 -13.2 7.6 -18.1 2.7 -18.1 -4.25 -18.1 -11.2 -13.2 -16.1 -8.3 -21.0 -1.35 -21.0 5.6 -21.0 10.5 -16.1 M4.65 12.4 L6.0 11.9 Q8.8 10.6 11.15 8.25 14.4 4.95 15.6 0.85 L15.85 -0.05 Q16.3 -2.05 16.3 -4.25 16.3 -11.55 11.15 -16.75 5.95 -21.9 -1.35 -21.9 -8.65 -21.9 -13.85 -16.75 -19.0 -11.55 -19.0 -4.25 -19.0 3.05 -13.85 8.25 -11.45 10.65 -8.55 11.95 L-6.45 12.7 -4.25 13.25 -0.75 13.35 2.7 13.0 4.65 12.4 M13.25 -17.55 L13.9 -17.8 14.5 -17.55 14.75 -16.9 14.5 -16.3 13.9 -16.05 13.25 -16.3 13.0 -16.9 13.25 -17.55 M7.95 -21.45 L7.35 -21.2 Q6.5 -21.2 6.5 -22.05 6.5 -22.95 7.35 -22.95 8.2 -22.95 8.2 -22.05 L7.95 -21.45 M9.75 -15.35 L8.35 -16.6 0.3 -6.5 0.6 -6.25 10.7 -14.3 9.75 -15.35 M8.15 -16.75 L5.8 -18.3 -0.15 -6.7 0.05 -6.65 8.15 -16.75 M1.45 -4.35 L14.35 -4.4 Q14.35 -6.15 14.0 -7.75 L1.35 -5.05 1.45 -4.35 M1.25 -3.1 L13.2 1.75 14.0 -0.85 1.35 -3.4 1.25 -3.1 M1.0 -2.6 L11.75 4.45 13.1 2.05 1.15 -2.85 1.0 -2.6 M0.65 -2.2 L0.45 -2.0 9.0 7.6 9.75 6.85 11.6 4.7 0.85 -2.4 0.65 -2.2 M1.25 -5.25 L13.95 -7.95 12.7 -11.3 1.1 -5.65 1.25 -5.25 M0.95 -5.9 L12.6 -11.55 10.9 -14.05 0.8 -6.05 0.95 -5.9 M1.4 -3.65 L14.05 -1.1 14.35 -4.05 1.45 -4.0 1.4 -3.65 M5.9 9.75 Q7.45 8.9 8.8 7.75 L0.3 -1.85 -0.3 -1.5 5.9 9.75 M3.75 14.4 L4.0 15.05 3.75 15.65 3.15 15.9 2.5 15.65 2.25 15.05 2.5 14.4 Q2.8 14.15 3.15 14.15 L3.75 14.4 M-18.35 4.15 L-18.6 4.75 -19.2 5.0 -19.85 4.75 -20.1 4.15 -19.85 3.5 -19.2 3.25 Q-18.85 3.25 -18.6 3.5 L-18.35 4.15 M-12.9 11.1 L-13.15 11.75 -13.75 12.0 -14.4 11.75 -14.65 11.1 -14.4 10.5 -13.75 10.25 -13.15 10.5 -12.9 11.1 M-10.35 12.5 Q-10.0 12.5 -9.75 12.75 L-9.5 13.35 -9.75 14.0 -10.35 14.25 -11.0 14.0 -11.25 13.35 -11.0 12.75 -10.35 12.5 M-1.6 14.65 L-0.95 14.9 -0.7 15.55 -0.95 16.15 -1.6 16.4 -2.2 16.15 -2.45 15.55 -2.2 14.9 Q-1.95 14.65 -1.6 14.65" fill="#ffffff" fill-opacity="0.0" fill-rule="evenodd" stroke="none"/>
    <path d="M-19.85 -0.45 L-20.15 -3.1 -20.2 -4.25 -20.15 -5.3 Q-19.9 -10.35 -17.25 -14.35 L-17.85 -14.15 -18.45 -14.4 -18.7 -15.0 -18.45 -15.65 -17.85 -15.9 -17.2 -15.65 -16.95 -15.0 -17.1 -14.6 -14.65 -17.55 Q-12.7 -19.5 -10.45 -20.75 L-11.0 -20.55 -11.65 -20.8 -11.9 -21.4 -11.65 -22.05 -11.0 -22.3 -10.4 -22.05 -10.15 -21.4 -10.35 -20.8 Q-6.55 -23.0 -1.85 -23.1 -2.75 -23.1 -2.75 -23.95 -2.75 -24.8 -1.85 -24.8 -1.0 -24.8 -1.0 -23.95 -1.0 -23.1 -1.8 -23.1 L-1.35 -23.1 3.35 -22.55 Q7.0 -21.65 10.05 -19.25 L9.8 -19.9 10.05 -20.5 10.7 -20.75 11.3 -20.5 11.55 -19.9 11.3 -19.25 10.7 -19.0 10.05 -19.25 12.0 -17.55 Q14.0 -15.55 15.3 -13.2 L15.2 -13.45 15.45 -14.05 Q15.7 -14.3 16.05 -14.3 L16.7 -14.05 16.95 -13.45 16.7 -12.8 16.05 -12.55 15.55 -12.75 Q16.45 -10.95 16.95 -8.9 L16.95 -9.05 Q16.95 -9.95 17.8 -9.95 L18.45 -9.7 18.7 -9.05 18.45 -8.45 17.8 -8.2 Q17.2 -8.2 17.05 -8.6 17.5 -6.55 17.5 -4.3 L17.75 -4.9 Q18.05 -5.15 18.4 -5.15 L19.0 -4.9 19.25 -4.3 19.0 -3.65 18.4 -3.4 Q18.1 -3.5 17.75 -3.65 L17.5 -4.3 17.5 -4.25 17.2 -0.55 17.95 -1.0 Q18.8 -1.0 18.8 -0.15 18.8 0.75 17.95 0.75 17.1 0.75 17.1 -0.15 L17.1 -0.2 16.25 2.65 Q16.5 2.4 16.85 2.4 L17.5 2.65 17.75 3.25 17.5 3.9 16.85 4.15 16.25 3.9 16.0 3.3 15.05 5.15 14.6 5.9 15.05 5.8 Q15.9 5.8 15.9 6.7 15.9 7.55 15.05 7.55 14.2 7.55 14.2 6.7 L14.25 6.45 13.45 7.5 12.0 9.1 11.15 9.9 Q9.5 11.35 7.65 12.4 L7.85 12.35 8.5 12.6 8.75 13.2 8.5 13.85 7.85 14.1 7.25 13.85 7.0 13.2 Q7.0 12.85 7.25 12.6 L7.3 12.6 6.35 13.05 3.9 13.9 -1.35 14.6 -6.55 13.95 -8.6 13.25 Q-11.9 11.85 -14.65 9.1 L-15.95 7.7 -15.9 8.05 Q-15.9 8.95 -16.75 8.95 -17.6 8.95 -17.6 8.05 -17.6 7.2 -16.75 7.2 L-16.25 7.3 Q-19.0 3.8 -19.85 -0.45" fill="none" stroke="#000000" stroke-linecap="round" stroke-linejoin="round" stroke-width="1.0"/>
    <path d="M-19.85 -0.45 L-20.1 0.2 -20.75 0.45 -21.35 0.2 -21.6 -0.45 -21.35 -1.05 -20.75 -1.3 -20.1 -1.05 -19.85 -0.45 M3.35 -22.55 L2.75 -22.8 2.5 -23.45 2.75 -24.05 3.35 -24.3 4.0 -24.05 4.25 -23.45 4.0 -22.8 3.35 -22.55 M11.15 9.9 Q11.45 9.65 11.8 9.65 12.15 9.65 12.4 9.9 L12.65 10.55 12.4 11.15 11.8 11.4 11.15 11.15 10.9 10.55 11.15 9.9 M-21.95 -4.35 Q-21.95 -5.2 -21.1 -5.2 -20.25 -5.2 -20.25 -4.35 -20.25 -3.5 -21.1 -3.5 -21.95 -3.5 -21.95 -4.35 M-20.75 -9.05 Q-19.85 -9.05 -19.85 -8.2 -19.85 -7.35 -20.75 -7.35 -21.6 -7.35 -21.6 -8.2 -21.6 -9.05 -20.75 -9.05 M-20.35 -12.25 L-19.7 -12.5 -19.1 -12.25 -18.85 -11.6 -19.1 -11.0 -19.7 -10.75 -20.35 -11.0 -20.6 -11.6 -20.35 -12.25 M-7.5 -22.6 L-7.75 -23.2 -7.5 -23.85 -6.85 -24.1 -6.25 -23.85 -6.0 -23.2 -6.25 -22.6 -6.85 -22.35 -7.5 -22.6 M-14.15 -19.35 L-13.9 -18.7 -14.15 -18.1 -14.8 -17.85 -15.4 -18.1 -15.65 -18.7 -15.4 -19.35 -14.8 -19.6 -14.15 -19.35 M13.25 -17.55 L13.9 -17.8 14.5 -17.55 14.75 -16.9 14.5 -16.3 13.9 -16.05 13.25 -16.3 13.0 -16.9 13.25 -17.55 M7.95 -21.45 L7.35 -21.2 Q6.5 -21.2 6.5 -22.05 6.5 -22.95 7.35 -22.95 8.2 -22.95 8.2 -22.05 L7.95 -21.45 M3.75 14.4 L4.0 15.05 3.75 15.65 3.15 15.9 2.5 15.65 2.25 15.05 2.5 14.4 Q2.8 14.15 3.15 14.15 L3.75 14.4 M-18.35 4.15 L-18.6 4.75 -19.2 5.0 -19.85 4.75 -20.1 4.15 -19.85 3.5 -19.2 3.25 Q-18.85 3.25 -18.6 3.5 L-18.35 4.15 M-12.9 11.1 L-13.15 11.75 -13.75 12.0 -14.4 11.75 -14.65 11.1 -14.4 10.5 -13.75 10.25 -13.15 10.5 -12.9 11.1 M-10.35 12.5 Q-10.0 12.5 -9.75 12.75 L-9.5 13.35 -9.75 14.0 -10.35 14.25 -11.0 14.0 -11.25 13.35 -11.0 12.75 -10.35 12.5 M-1.6 14.65 L-0.95 14.9 -0.7 15.55 -0.95 16.15 -1.6 16.4 -2.2 16.15 -2.45 15.55 -2.2 14.9 Q-1.95 14.65 -1.6 14.65" fill="none" stroke="#000000" stroke-linecap="round" stroke-linejoin="round" stroke-width="1.0"/>
    <path d="M2.7 13.0 L-0.75 13.35 -4.25 13.25 -6.45 12.7 -8.55 11.95 Q-11.45 10.65 -13.85 8.25 -19.0 3.05 -19.0 -4.25 -19.0 -11.55 -13.85 -16.75 -8.65 -21.9 -1.35 -21.9 5.95 -21.9 11.15 -16.75 16.3 -11.55 16.3 -4.25 16.3 -2.05 15.85 -0.05 L15.6 0.85 Q14.4 4.95 11.15 8.25 8.8 10.6 6.0 11.9 L4.65 12.4" fill="none" stroke="#000000" stroke-linecap="round" stroke-linejoin="round" stroke-opacity="0.4" stroke-width="1.0"/>
    <path d="M-1.35 -19.95 L2.2 -19.55 -1.0 -6.95 -1.35 -7.0 -1.65 -7.0 -1.65 -19.95 -1.35 -19.95 M-1.95 -19.95 L-1.95 -6.95 -2.3 -6.85 -5.45 -19.45 -1.95 -19.95 M-5.7 -19.35 L-2.55 -6.75 -2.85 -6.6 -8.95 -18.0 Q-7.4 -18.9 -5.7 -19.35 M-12.15 -15.6 L-3.5 -6.0 -3.7 -5.7 -14.5 -12.8 -12.45 -15.35 -12.15 -15.6 M-16.05 -9.85 L-4.05 -4.95 -4.1 -4.75 -16.75 -7.3 -16.05 -9.85 M-17.05 -4.0 L-4.7 -4.0 -16.8 -1.45 -17.05 -4.0 M-16.8 -7.05 L-4.1 -4.5 -4.15 -4.3 -17.05 -4.3 -16.8 -7.05 M-3.1 -6.4 L-9.2 -17.85 -11.95 -15.8 -3.35 -6.2 -3.1 -6.4 M5.55 -18.4 L-0.45 -6.85 -0.7 -6.9 2.5 -19.5 5.55 -18.4 M-3.85 -5.45 L-14.7 -12.55 -15.95 -10.15 -3.95 -5.25 -3.85 -5.45 M-4.15 -3.9 L-16.8 -1.25 -15.75 2.2 -4.05 -3.45 -4.15 -3.9 M-2.85 -1.55 L-1.95 -1.45 -1.95 11.45 -4.5 11.2 -4.5 11.15 -5.9 10.85 -8.45 9.8 -8.6 9.75 -2.85 -1.65 -2.85 -1.55 M-3.35 -1.95 L-11.25 7.95 -8.9 9.6 -3.6 -0.7 Q-2.75 -2.15 -3.35 -1.95 M-3.65 -2.55 L-13.7 5.45 -12.45 6.85 -11.45 7.75 -3.45 -2.3 -3.65 -2.55 M-1.35 -1.4 L-1.65 -1.4 -1.65 11.45 -1.35 11.45 1.95 11.15 -1.2 -1.4 -1.35 -1.4 M-0.5 -1.3 L5.6 9.9 5.55 9.9 4.3 10.45 2.95 10.9 2.2 11.1 -0.95 -1.4 -0.5 -1.3 M-4.0 -3.2 L-15.65 2.4 -13.9 5.25 -3.8 -2.8 -4.0 -3.2 M10.5 -16.1 Q5.6 -21.0 -1.35 -21.0 -8.3 -21.0 -13.2 -16.1 -18.1 -11.2 -18.1 -4.25 -18.1 2.7 -13.2 7.6 -11.05 9.75 -8.55 10.95 L-6.1 11.85 -6.1 11.9 -6.1 11.85 -1.35 12.5 2.5 12.1 3.25 11.9 4.65 11.45 6.85 10.5 Q8.35 9.8 10.5 7.6 15.4 2.7 15.4 -4.25 15.4 -11.2 10.5 -16.1 M4.65 12.4 L2.7 13.0 M8.15 -16.75 L0.05 -6.65 -0.15 -6.7 5.8 -18.3 8.15 -16.75 M9.75 -15.35 L10.7 -14.3 0.6 -6.25 0.3 -6.5 8.35 -16.6 9.75 -15.35 M1.45 -4.35 L14.35 -4.4 Q14.35 -6.15 14.0 -7.75 L1.35 -5.05 1.45 -4.35 M1.25 -3.1 L13.2 1.75 14.0 -0.85 1.35 -3.4 1.25 -3.1 M1.0 -2.6 L11.75 4.45 13.1 2.05 1.15 -2.85 1.0 -2.6 M0.65 -2.2 L0.45 -2.0 9.0 7.6 9.75 6.85 11.6 4.7 0.85 -2.4 0.65 -2.2 M1.25 -5.25 L13.95 -7.95 12.7 -11.3 1.1 -5.65 1.25 -5.25 M0.95 -5.9 L12.6 -11.55 10.9 -14.05 0.8 -6.05 0.95 -5.9 M1.4 -3.65 L14.05 -1.1 14.35 -4.05 1.45 -4.0 1.4 -3.65 M5.9 9.75 L-0.3 -1.5 0.3 -1.85 8.8 7.75 Q7.45 8.9 5.9 9.75" fill="none" stroke="#000000" stroke-linecap="round" stroke-linejoin="round" stroke-opacity="0.4" stroke-width="1.0"/>
  </g>
</svg>
