<?xml version="1.0" encoding="UTF-8" standalone="no"?>
<svg xmlns:xlink="http://www.w3.org/1999/xlink" height="255.55px" width="172.15px" xmlns="http://www.w3.org/2000/svg">
  <g transform="matrix(1.0, 0.0, 0.0, 1.0, 95.3, 100.85)">
    <path d="M75.5 -68.45 Q76.5 -63.15 76.3 -58.25 72.75 -47.75 62.25 -27.15 L47.95 -5.75 Q44.35 -0.3 43.75 0.2 42.95 0.75 33.85 -5.6 L-3.65 -33.05 Q-6.25 -34.45 -12.7 -38.55 -22.45 -44.85 -22.25 -45.65 -22.0 -46.6 -17.75 -52.75 L10.7 -88.25 Q27.5 -102.75 42.75 -99.85 53.1 -97.9 62.65 -90.7 72.65 -83.2 75.5 -68.45 M24.8 38.75 Q25.5 44.75 21.3 58.9 17.05 73.0 13.9 81.95 10.7 90.85 2.65 107.15 -5.45 123.4 -13.85 131.35 -26.95 143.7 -37.95 149.2 -48.0 154.2 -57.85 154.2 -74.3 154.2 -84.7 139.5 -94.5 125.65 -94.5 105.75 L-94.8 87.95 Q-94.9 80.6 -94.0 75.65 -92.25 65.8 -79.0 36.35 -71.55 19.8 -59.5 3.15 -47.75 -13.15 -43.65 -13.15 L-27.95 -1.5 Q-9.1 12.1 6.75 21.55 L15.0 26.15 Q18.8 28.25 20.35 29.6 24.05 32.75 24.8 38.75" fill="#ffffff" fill-opacity="0.0" fill-rule="evenodd" stroke="none"/>
    <path d="M75.5 -68.45 Q72.65 -83.2 62.65 -90.7 53.1 -97.9 42.75 -99.85 27.5 -102.75 10.7 -88.25 L-17.75 -52.75 Q-22.0 -46.6 -22.25 -45.65 -22.45 -44.85 -12.7 -38.55 -6.25 -34.45 -3.65 -33.05 L33.85 -5.6 Q42.95 0.75 43.75 0.2 44.35 -0.3 47.95 -5.75 L62.25 -27.15 Q72.75 -47.75 76.3 -58.25 76.5 -63.15 75.5 -68.45 M24.8 38.75 Q25.5 44.75 21.3 58.9 17.05 73.0 13.9 81.95 10.7 90.85 2.65 107.15 -5.45 123.4 -13.85 131.35 -26.95 143.7 -37.95 149.2 -48.0 154.2 -57.85 154.2 -74.3 154.2 -84.7 139.5 -94.5 125.65 -94.5 105.75 L-94.8 87.95 Q-94.9 80.6 -94.0 75.65 -92.25 65.8 -79.0 36.35 -71.55 19.8 -59.5 3.15 -47.75 -13.15 -43.65 -13.15 L-27.95 -1.5 Q-9.1 12.1 6.75 21.55 L15.0 26.15 Q18.8 28.25 20.35 29.6 24.05 32.75 24.8 38.75" fill="none" stroke="#000000" stroke-linecap="round" stroke-linejoin="round" stroke-width="1.0"/>
  </g>
</svg>
