<?xml version="1.0" encoding="UTF-8" standalone="no"?>
<svg xmlns:xlink="http://www.w3.org/1999/xlink" height="196.8px" width="278.0px" xmlns="http://www.w3.org/2000/svg">
  <g transform="matrix(1.0, 0.0, 0.0, 1.0, 139.0, 98.4)">
    <path d="M79.75 -38.7 L79.85 -23.4 89.5 -23.35 89.7 -42.65 97.3 -50.95 104.9 -42.55 104.95 -23.35 114.1 -23.3 114.25 -50.7 121.85 -59.1 129.45 -50.7 129.6 -23.25 138.7 -23.25 138.6 -6.45 129.7 -6.55 130.1 63.15 138.9 63.05 139.0 79.75 130.15 79.75 130.25 98.05 113.45 98.05 113.55 79.75 105.1 79.75 105.1 97.95 88.3 97.85 88.5 79.7 80.6 79.7 80.7 98.05 63.9 98.05 64.0 79.7 57.35 79.7 57.45 98.05 40.65 98.05 40.75 79.65 32.5 79.65 32.6 98.05 15.8 98.05 15.95 79.65 7.7 79.6 7.8 98.05 -9.0 98.05 -8.9 79.6 -17.15 79.6 -17.05 98.05 -33.85 98.05 -33.75 79.55 -40.4 79.5 -40.35 98.05 -57.15 98.05 -57.0 79.45 -64.9 79.45 -64.75 97.85 -81.55 97.95 -81.5 79.4 -89.95 79.4 -89.85 98.05 -106.65 98.05 -106.55 79.35 -113.0 79.3 -112.9 98.4 -129.8 98.4 -129.7 79.3 -138.7 79.25 -138.6 62.45 -129.65 62.6 -129.35 -7.15 -138.9 -7.05 -139.0 -23.75 -129.3 -23.75 -129.1 -75.0 -127.2 -75.0 Q-126.25 -77.8 -127.2 -81.9 -128.75 -84.6 -127.85 -88.85 -127.0 -93.1 -125.45 -95.8 -124.05 -98.2 -121.85 -98.4 -119.25 -98.45 -117.75 -95.8 -116.2 -93.1 -115.3 -88.85 -114.45 -84.6 -116.0 -81.9 L-116.0 -81.85 -115.85 -81.9 Q-117.25 -77.4 -115.85 -75.0 L-113.85 -75.0 -113.55 -23.7 -106.0 -23.7 -105.85 -50.7 -98.25 -59.1 -90.65 -50.7 -90.5 -23.7 -81.35 -23.7 -81.35 -42.55 -73.75 -50.95 -66.15 -42.65 -65.95 -23.65 -56.3 -23.65 -56.2 -38.7 -48.55 -47.1 -41.0 -38.7 -40.9 -23.65 -33.1 -23.65 -33.05 -36.3 -25.45 -44.7 -17.85 -36.3 -17.75 -23.6 -8.35 -23.6 -8.3 -34.7 -0.7 -43.1 6.9 -34.7 7.0 -23.6 16.65 -23.55 16.7 -34.7 24.3 -43.1 31.9 -34.7 32.0 -23.5 41.4 -23.5 41.45 -36.3 49.05 -44.7 56.65 -36.3 56.75 -23.45 64.5 -23.4 64.55 -38.7 72.1 -47.1 79.75 -38.7 M114.0 -6.8 L104.95 -6.9 105.05 63.45 113.65 63.35 114.0 -6.8 M89.35 -7.15 L80.0 -7.3 80.5 63.7 88.65 63.6 89.35 -7.15 M64.4 -7.55 L56.85 -7.65 57.25 63.95 64.05 63.9 64.4 -7.55 M41.3 -7.85 L32.05 -8.0 32.45 64.25 40.85 64.15 41.3 -7.85 M16.55 -8.25 L7.1 -8.35 7.6 64.5 16.05 64.4 16.55 -8.25 M-8.45 -8.45 L-17.65 -8.35 -17.25 64.25 -8.8 64.35 -8.45 -8.45 M-33.2 -8.2 L-40.85 -8.1 -40.5 63.9 -33.65 64.0 -33.2 -8.2 M-56.4 -7.95 L-65.8 -7.85 -65.05 63.5 -56.9 63.65 -56.4 -7.95 M-106.05 -7.4 L-113.45 -7.3 -113.1 62.85 -106.45 62.95 -106.05 -7.4 M-81.4 -7.65 L-90.4 -7.55 -90.05 63.15 -81.5 63.3 -81.4 -7.65" fill="#dad9cf" fill-rule="evenodd" stroke="none"/>
  </g>
</svg>
