<?xml version="1.0" encoding="UTF-8" standalone="no"?>
<svg xmlns:xlink="http://www.w3.org/1999/xlink" height="48.75px" width="76.95px" xmlns="http://www.w3.org/2000/svg">
  <g transform="matrix(1.0, 0.0, 0.0, 1.0, 41.15, 20.65)">
    <path d="M-32.25 -5.45 L-32.8 3.05 -37.2 1.35 -37.65 4.6 Q-37.85 4.4 -40.5 5.5 L-39.4 -2.7 -32.25 -5.45" fill="#cccccc" fill-rule="evenodd" stroke="none"/>
    <path d="M-32.25 -5.45 L-32.8 3.05 -37.2 1.35 -37.65 4.6 Q-37.85 4.4 -40.5 5.5 L-39.4 -2.7 -32.25 -5.45 Z" fill="none" stroke="#000000" stroke-linecap="square" stroke-linejoin="round" stroke-opacity="0.4" stroke-width="1.0"/>
    <path d="M-33.65 27.45 L-38.25 27.45 -38.25 19.85 -33.65 19.85 -33.65 27.45 M-34.25 -9.05 L-34.25 -20.0 -31.55 -20.0 -31.55 -9.05 -34.25 -9.05 M32.45 -5.65 L32.45 -16.3 35.15 -16.3 35.15 -5.65 32.45 -5.65" fill="#cccccc" fill-rule="evenodd" stroke="none"/>
    <path d="M32.45 -5.65 L35.15 -5.65 35.15 -16.3 32.45 -16.3 32.45 -5.65 M-34.25 -9.05 L-31.55 -9.05 -31.55 -20.0 -34.25 -20.0 -34.25 -9.05 M-33.65 27.45 L-33.65 19.85 -38.25 19.85 -38.25 27.45 -33.65 27.45" fill="none" stroke="#000000" stroke-linecap="square" stroke-linejoin="round" stroke-opacity="0.4" stroke-width="1.0"/>
  </g>
</svg>
