<?xml version="1.0" encoding="UTF-8" standalone="no"?>
<svg xmlns:xlink="http://www.w3.org/1999/xlink" height="17.05px" width="21.0px" xmlns="http://www.w3.org/2000/svg">
  <g transform="matrix(1.0, 0.0, 0.0, 1.0, 10.5, 5.35)">
    <path d="M7.65 -1.3 L5.7 -1.45 5.3 0.85 8.95 2.1 7.65 -1.3 5.75 -3.4 5.7 -1.45 2.45 -0.15 5.3 0.85 6.85 3.4 7.9 3.1 8.95 2.1 M6.85 3.4 L5.35 4.1 6.85 4.0 7.9 3.1 M0.0 4.45 L0.0 1.85 -3.7 4.15 -1.85 4.65 0.0 4.45 1.85 4.65 3.7 4.15 0.0 1.85 -2.45 -0.15 -5.3 0.85 -3.7 4.15 -5.35 4.1 -3.7 4.75 -1.85 4.65 0.0 5.1 1.85 4.65 3.7 4.75 5.35 4.1 3.7 4.15 5.3 0.85 M0.0 9.8 L-3.7 4.75 -1.9 9.3 -6.85 4.0 -7.9 3.1 -8.95 2.1 -7.65 -1.3 -5.75 -3.4 -5.7 -1.45 -2.45 -0.15 2.45 -0.15 0.0 1.85 M3.7 4.75 L1.9 9.3 6.85 4.0 M0.0 9.8 L0.0 5.1 M0.0 9.8 L3.7 4.75 M-7.65 -1.3 L-5.7 -1.45 -5.3 0.85 -6.85 3.4 -5.35 4.1 -6.85 4.0 M-6.85 3.4 L-7.9 3.1 M-5.3 0.85 L-8.95 2.1" fill="none" stroke="#000000" stroke-linecap="round" stroke-linejoin="round" stroke-opacity="0.2" stroke-width="1.0"/>
    <path d="M8.95 2.1 L9.85 1.7 M7.65 -1.3 L9.05 -0.75 M7.9 3.1 L8.95 2.85 M-7.9 3.1 L-8.95 2.85 M7.65 -1.3 L9.85 0.65 M-8.95 2.1 L-9.85 1.7 M-7.65 -1.3 L-9.85 0.65" fill="none" stroke="#000000" stroke-linecap="round" stroke-linejoin="round" stroke-opacity="0.2" stroke-width="1.0"/>
    <path d="M0.0 11.05 L0.0 9.8 M-9.05 -0.75 L-7.65 -1.3" fill="none" stroke="#000000" stroke-linecap="square" stroke-linejoin="round" stroke-opacity="0.2" stroke-width="1.0"/>
    <path d="M2.45 -4.7 L-2.45 -4.7 -5.75 -3.4 -9.05 -0.75 -9.85 0.65 -9.85 1.7 -8.95 2.85 0.0 11.05 8.95 2.85 9.85 1.7 9.85 0.65 9.05 -0.75 5.75 -3.4 2.45 -4.7 Z" fill="none" stroke="#000000" stroke-linecap="square" stroke-linejoin="round" stroke-width="1.0"/>
  </g>
</svg>
