<?xml version="1.0" encoding="UTF-8" standalone="no"?>
<svg xmlns:xlink="http://www.w3.org/1999/xlink" height="28.35px" width="121.0px" xmlns="http://www.w3.org/2000/svg">
  <g transform="matrix(1.0, 0.0, 0.0, 1.0, 60.5, 49.75)">
    <path d="M40.45 -21.9 L40.45 -22.0 -38.7 -22.0 -38.7 -21.95 -52.0 -21.95 -53.85 -22.05 Q-60.0 -22.95 -60.0 -29.95 L-60.0 -49.25 60.0 -49.25 60.0 -29.9 Q60.0 -22.9 53.9 -22.0 L52.0 -21.9 40.45 -21.9" fill="#ffffff" fill-opacity="0.0" fill-rule="evenodd" stroke="none"/>
    <path d="M40.45 -22.0 L-38.7 -22.0 M-38.7 -21.95 L-52.0 -21.95 -53.85 -22.05 Q-60.0 -22.95 -60.0 -29.95 L-60.0 -49.25 M60.0 -49.25 L60.0 -29.9 Q60.0 -22.9 53.9 -22.0 L52.0 -21.9 40.45 -21.9" fill="none" stroke="#000000" stroke-linecap="round" stroke-linejoin="round" stroke-width="1.0"/>
  </g>
</svg>
