<?xml version="1.0" encoding="UTF-8" standalone="no"?>
<svg xmlns:xlink="http://www.w3.org/1999/xlink" height="26.3px" width="25.7px" xmlns="http://www.w3.org/2000/svg">
  <g transform="matrix(1.0, 0.0, 0.0, 1.0, 11.05, 13.4)">
    <path d="M5.95 -9.25 L5.95 -6.15 5.95 -9.25 6.75 -9.6 10.45 -9.8 Q12.45 -9.05 13.1 -6.5 L13.65 -4.35 Q15.2 3.45 11.75 6.75 10.35 8.2 8.1 8.2 L5.95 7.9 5.95 4.6 5.95 7.9 5.95 12.4 -6.3 9.7 -7.2 -3.9 5.95 -3.9 5.95 4.6 9.55 4.5 Q11.75 2.15 10.35 -4.35 L10.05 -5.7 9.3 -6.75 Q8.6 -6.95 6.9 -5.95 L5.95 -5.35 5.95 -6.15 -7.25 -6.15 -7.75 -12.8 -7.75 -12.9 5.95 -12.9 5.95 -9.25" fill="#ffffff" fill-opacity="0.0" fill-rule="evenodd" stroke="none"/>
    <path d="M-7.75 -12.9 L-7.75 -12.8 -7.25 -6.15 -10.55 -6.15 -10.55 -12.9 -7.75 -12.9 M-7.2 -3.9 L-6.3 9.7 5.95 12.4 -10.55 12.4 -10.55 -3.9 -7.2 -3.9" fill="#000000" fill-opacity="0.101960786" fill-rule="evenodd" stroke="none"/>
    <path d="M-7.25 -6.15 L5.95 -6.15 5.95 -5.35 5.95 -3.9 -7.2 -3.9 -10.55 -3.9 -10.55 -6.15 -7.25 -6.15" fill="#000000" fill-opacity="0.2" fill-rule="evenodd" stroke="none"/>
    <path d="M5.95 -9.25 L5.95 -12.9 -7.75 -12.9 -10.55 -12.9 -10.55 -6.15 -10.55 -3.9 -10.55 12.4 5.95 12.4 5.95 7.9 8.1 8.2 Q10.35 8.2 11.75 6.75 15.2 3.45 13.65 -4.35 L13.1 -6.5 Q12.45 -9.05 10.45 -9.8 L6.75 -9.6 5.95 -9.25 M5.95 -5.35 L6.9 -5.95 Q8.6 -6.95 9.3 -6.75 L10.05 -5.7 10.35 -4.35 Q11.75 2.15 9.55 4.5 L5.95 4.6 5.95 -3.9 5.95 -5.35" fill="none" stroke="#000000" stroke-linecap="round" stroke-linejoin="round" stroke-width="1.0"/>
    <path d="M5.95 -6.15 L5.95 -9.25 M5.95 -6.15 L5.95 -5.35 M5.95 4.6 L5.95 7.9" fill="none" stroke="#000000" stroke-linecap="round" stroke-linejoin="round" stroke-opacity="0.2" stroke-width="1.0"/>
  </g>
</svg>
