<?xml version="1.0" encoding="UTF-8" standalone="no"?>
<svg xmlns:xlink="http://www.w3.org/1999/xlink" height="137.15px" width="157.55px" xmlns="http://www.w3.org/2000/svg">
  <g transform="matrix(1.0, 0.0, 0.0, 1.0, 78.75, 78.0)">
    <path d="M-56.1 54.65 L-56.1 55.85 Q-58.2 54.8 -60.7 54.8 -63.0 54.8 -64.95 55.7 L-64.95 54.3 -56.1 54.65 M39.05 -34.45 L38.8 -33.3 38.8 -34.5 39.05 -34.45" fill="#a6a8ab" fill-rule="evenodd" stroke="none"/>
    <path d="M56.3 55.75 L56.3 55.85 56.3 55.95 56.3 55.75 M56.2 56.45 L55.75 58.5 54.75 58.55 54.2 58.65 53.95 58.45 55.75 58.5 55.7 57.45 Q55.75 56.3 56.3 55.95 L56.2 56.45 M-76.85 53.7 L-77.15 53.55 -77.4 53.3 -77.1 53.55 -77.0 53.5 -76.95 53.55 -76.85 53.7 -77.1 53.55 -76.85 53.7 M44.6 -60.25 L44.7 -60.75 44.5 -59.8 44.6 -60.25 M63.95 -70.15 L64.0 -70.15 64.0 -70.0 63.95 -70.15 M64.45 -67.8 L64.45 -67.75 64.45 -67.8 M65.15 -66.45 L65.2 -66.35 65.15 -66.45 M30.1 20.85 L30.0 20.75 30.05 20.7 30.1 20.85 M6.65 21.9 L6.65 21.95 4.05 21.8 6.65 21.9" fill="#aeb0b3" fill-rule="evenodd" stroke="none"/>
    <path d="M65.75 -65.65 L65.55 -65.9 65.75 -65.65" fill="#989a9d" fill-rule="evenodd" stroke="none"/>
    <path d="M30.05 20.65 L30.1 20.65 30.05 20.7 30.05 20.65" fill="#515254" fill-rule="evenodd" stroke="none"/>
    <path d="M71.05 -77.5 L71.15 -77.5 71.15 -77.45 71.05 -77.5 M69.15 -63.45 L68.15 -63.85 69.25 -63.75 69.15 -63.45" fill="#555658" fill-rule="evenodd" stroke="none"/>
    <path d="M70.95 -77.5 L71.05 -77.5 71.15 -77.45 70.95 -77.5 M31.65 18.9 L60.0 37.35 Q60.25 37.5 59.75 38.6 L56.3 55.75 56.3 55.95 -78.25 51.05 -78.25 50.85 Q-78.2 49.65 -77.6 48.85 -77.0 48.0 -76.2 48.05 L-75.05 48.1 51.75 52.8 54.4 39.7 28.5 22.85 25.8 22.75 22.05 22.6 6.65 21.95 6.65 21.9 28.75 22.4 28.95 22.05 Q29.5 21.15 30.0 20.75 L30.1 20.85 56.2 37.75 56.65 37.3 56.85 36.7 30.8 19.8 30.3 20.25 30.05 20.65 -75.3 17.0 Q-75.25 16.2 -74.8 15.6 -74.35 15.05 -73.7 15.05 L-70.85 15.15 -70.85 2.3 -71.2 1.65 -70.85 1.0 -70.85 -13.35 -71.2 -14.0 -70.85 -14.65 -70.85 -20.75 -73.15 -20.05 -74.6 -20.2 Q-75.3 -20.6 -75.55 -21.4 -75.75 -22.2 -75.4 -22.9 -75.05 -23.6 -74.3 -23.85 L44.6 -60.25 44.5 -59.8 44.45 -59.6 43.65 -55.8 44.45 -59.6 44.5 -59.8 44.7 -60.75 45.3 -63.55 45.45 -63.9 Q45.45 -64.45 45.6 -64.5 L63.95 -70.15 64.0 -70.0 64.05 -69.4 64.15 -69.05 47.05 -63.8 47.1 -63.15 Q47.3 -62.5 47.4 -62.6 L29.4 19.25 30.0 19.3 31.65 18.9 M40.45 -41.0 L43.65 -55.8 40.45 -54.8 38.8 -54.3 40.45 -54.8 40.45 -41.0 39.05 -34.45 40.45 -41.0 M38.8 -33.3 L39.05 -34.45 38.8 -34.5 33.8 -34.5 33.8 -14.85 34.85 -14.85 38.8 -33.3 M34.5 -13.2 L34.85 -14.85 34.5 -13.2 33.8 -13.2 33.8 -10.05 34.5 -13.2 M32.15 -2.35 L33.8 -10.05 32.15 -2.35 32.15 -13.2 27.45 -13.2 27.45 0.8 31.5 0.8 32.15 -2.35 M31.1 2.5 L31.5 0.8 31.1 2.5 27.45 2.5 27.45 18.85 27.6 18.85 31.1 2.5 M25.8 18.8 L27.45 18.85 25.8 18.8 25.8 2.5 22.15 2.5 22.15 18.65 25.8 18.8 M20.45 18.6 L22.15 18.65 20.45 18.6 20.45 2.5 16.8 2.5 16.8 18.45 20.45 18.6 M15.15 18.4 L16.8 18.45 15.15 18.4 15.15 2.5 11.45 2.5 11.45 18.25 15.15 18.4 M9.8 18.2 L11.45 18.25 9.8 18.2 9.8 2.5 6.15 2.5 6.15 18.05 9.8 18.2 M4.45 18.0 L6.15 18.05 4.45 18.0 4.45 2.5 0.8 2.5 0.8 17.85 4.45 18.0 M-0.85 17.8 L0.8 17.85 -0.85 17.8 -0.85 2.5 -4.55 2.5 -4.55 17.65 -0.85 17.8 M-6.2 17.6 L-4.55 17.65 -6.2 17.6 -6.2 2.5 -9.85 2.5 -9.85 17.45 -6.2 17.6 M-11.5 17.4 L-9.85 17.45 -11.5 17.4 -11.5 2.5 -15.2 2.5 -15.2 17.25 -11.5 17.4 M-16.85 17.2 L-15.2 17.25 -16.85 17.2 -16.85 2.5 -20.5 2.5 -20.5 17.05 -16.85 17.2 M-22.2 17.0 L-20.5 17.05 -22.2 17.0 -22.2 2.5 -25.85 2.5 -25.85 16.85 -22.2 17.0 M-27.5 16.8 L-25.85 16.85 -27.5 16.8 -27.5 2.5 -31.2 2.5 -31.2 16.65 -27.5 16.8 M-32.85 16.6 L-31.2 16.65 -32.85 16.6 -32.85 2.5 -36.5 2.5 -36.5 16.45 -32.85 16.6 M-38.2 16.4 L-36.5 16.45 -38.2 16.4 -38.2 2.5 -41.85 2.5 -41.85 16.25 -38.2 16.4 M-43.5 16.2 L-41.85 16.25 -43.5 16.2 -43.5 2.5 -47.2 2.5 -47.2 16.05 -43.5 16.2 M-48.85 16.0 L-47.2 16.05 -48.85 16.0 -48.85 2.5 -52.5 2.5 -52.5 15.85 -48.85 16.0 M-54.2 15.8 L-52.5 15.85 -54.2 15.8 -54.2 2.5 -57.85 2.5 -57.85 15.65 -54.2 15.8 M-59.5 15.6 L-57.85 15.65 -59.5 15.6 -59.5 2.5 -63.5 2.5 -63.5 15.45 -59.5 15.6 M-65.2 15.4 L-63.5 15.45 -65.2 15.4 -65.2 2.5 -69.2 2.5 -69.2 15.25 -65.2 15.4 M-70.85 15.15 L-69.2 15.25 -70.85 15.15 M42.0 -57.4 Q42.6 -57.6 42.4 -58.15 42.2 -58.8 41.6 -58.6 L-73.5 -23.2 Q-74.05 -23.0 -73.9 -22.4 -73.75 -21.8 -73.1 -22.0 L-70.75 -22.7 -70.4 -22.8 42.0 -57.4 M33.8 -52.75 L33.8 -36.15 38.8 -36.15 38.8 -54.3 33.8 -52.75 32.15 -52.25 33.8 -52.75 M27.45 -50.85 L27.45 -36.15 32.15 -36.15 32.15 -52.25 27.45 -50.85 25.8 -50.35 27.45 -50.85 M22.1 -49.2 L22.15 -49.0 22.15 -36.15 25.8 -36.15 25.8 -50.35 22.1 -49.2 20.45 -48.7 22.1 -49.2 M16.8 -47.55 L16.8 -36.15 20.45 -36.15 20.45 -48.7 16.8 -47.55 15.15 -47.05 16.8 -47.55 M11.45 -45.95 L11.45 -36.15 15.15 -36.15 15.15 -47.05 11.45 -45.95 9.8 -45.45 11.45 -45.95 M6.15 -44.3 L6.15 -36.15 9.8 -36.15 9.8 -45.45 6.15 -44.3 4.45 -43.8 6.15 -44.3 M0.8 -42.65 L0.8 -36.15 4.45 -36.15 4.45 -43.8 0.8 -42.65 -0.85 -42.15 0.8 -42.65 M-4.55 -41.05 L-4.55 -36.15 -0.85 -36.15 -0.85 -42.15 -4.55 -41.05 -6.2 -40.55 -4.55 -41.05 M-9.85 -39.4 L-9.85 -36.15 -6.2 -36.15 -6.2 -40.55 -9.85 -39.4 -11.5 -38.9 -9.85 -39.4 M-16.15 -37.5 L-16.05 -37.5 Q-15.2 -37.5 -15.2 -37.1 L-15.2 -36.15 -11.5 -36.15 -11.5 -38.9 -16.15 -37.5 -16.75 -37.3 -16.15 -37.5 M-20.5 -36.15 L-16.85 -36.15 -16.85 -37.1 -16.75 -37.3 -20.5 -36.15 -27.5 -34.0 -20.5 -36.15 M-31.2 -32.9 L-31.2 -14.85 -27.5 -14.85 -27.5 -34.0 -31.2 -32.9 -32.85 -32.4 -31.2 -32.9 M-36.5 -31.3 L-36.5 -14.85 -32.85 -14.85 -32.85 -32.4 -36.5 -31.3 -38.2 -30.75 -36.5 -31.3 M-41.85 -29.65 L-41.85 -14.85 -38.2 -14.85 -38.2 -30.75 -41.85 -29.65 -43.5 -29.15 -41.85 -29.65 M-47.2 -28.0 L-47.2 -14.85 -43.5 -14.85 -43.5 -29.15 -47.2 -28.0 -48.85 -27.5 -47.2 -28.0 M-53.1 -26.2 Q-52.5 -26.15 -52.5 -25.85 L-52.5 -14.85 -48.85 -14.85 -48.85 -27.5 -53.1 -26.2 -54.2 -25.85 -53.1 -26.2 M-57.85 -24.75 L-57.85 -14.85 -54.2 -14.85 -54.2 -25.85 -57.85 -24.75 -59.5 -24.25 -57.85 -24.75 M-63.5 -23.0 L-63.5 -14.85 -59.5 -14.85 -59.5 -24.25 -63.5 -23.0 -65.2 -22.45 -63.5 -23.0 M-69.2 -21.25 L-69.2 -14.85 -65.2 -14.85 -65.2 -22.45 -69.2 -21.25 -70.85 -20.75 -69.2 -21.25 M25.8 -34.5 L22.15 -34.5 22.15 -14.85 25.8 -14.85 25.8 -34.5 M4.45 -13.2 L0.8 -13.2 0.8 0.8 4.45 0.8 4.45 -13.2 M15.15 -13.2 L11.45 -13.2 11.45 0.8 15.15 0.8 15.15 -13.2 M9.8 -13.2 L6.15 -13.2 6.15 0.8 9.8 0.8 9.8 -13.2 M15.15 -34.5 L11.45 -34.5 11.45 -14.85 15.15 -14.85 15.15 -34.5 M9.8 -34.5 L6.15 -34.5 6.15 -14.85 9.8 -14.85 9.8 -34.5 M4.45 -34.5 L0.8 -34.5 0.8 -14.85 4.45 -14.85 4.45 -34.5 M32.15 -34.5 L27.45 -34.5 27.45 -14.85 32.15 -14.85 32.15 -34.5 M25.8 -13.2 L22.15 -13.2 22.15 0.8 25.8 0.8 25.8 -13.2 M20.45 -13.2 L16.8 -13.2 16.8 0.8 20.45 0.8 20.45 -13.2 M16.8 -34.5 L16.8 -14.85 20.45 -14.85 20.45 -34.5 16.8 -34.5 M53.05 54.7 Q53.05 54.05 52.35 54.05 L-76.1 49.4 Q-76.8 49.4 -76.8 50.0 L-76.6 50.45 -76.15 50.65 52.3 55.3 Q52.95 55.3 53.05 54.7 M-38.2 -13.2 L-41.85 -13.2 -41.85 0.8 -38.2 0.8 -38.2 -13.2 M-16.85 -13.2 L-20.5 -13.2 -20.5 0.8 -16.85 0.8 -16.85 -13.2 M-16.85 -14.85 L-16.85 -34.5 -20.5 -34.5 -20.5 -14.85 -16.85 -14.85 M-6.2 -13.2 L-9.85 -13.2 -9.85 0.8 -6.2 0.8 -6.2 -13.2 M-0.85 -13.2 L-4.55 -13.2 -4.55 0.8 -0.85 0.8 -0.85 -13.2 M-11.5 -13.2 L-15.2 -13.2 -15.2 0.8 -11.5 0.8 -11.5 -13.2 M-32.85 -13.2 L-36.5 -13.2 -36.5 0.8 -32.85 0.8 -32.85 -13.2 M-27.5 -13.2 L-31.2 -13.2 -31.2 0.8 -27.5 0.8 -27.5 -13.2 M-22.2 -13.2 L-25.85 -13.2 -25.85 0.8 -22.2 0.8 -22.2 -13.2 M-22.2 -34.5 L-25.85 -34.5 -25.85 -14.85 -22.2 -14.85 -22.2 -34.5 M-6.2 -34.5 L-9.85 -34.5 -9.85 -14.85 -6.2 -14.85 -6.2 -34.5 M-0.85 -34.5 L-4.55 -34.5 -4.55 -14.85 -0.85 -14.85 -0.85 -34.5 M-11.5 -34.5 L-15.2 -34.5 -15.2 -14.85 -11.5 -14.85 -11.5 -34.5 M-59.5 -13.2 L-63.5 -13.2 -63.5 0.8 -59.5 0.8 -59.5 -13.2 M-48.85 -13.2 L-52.5 -13.2 -52.5 0.8 -48.85 0.8 -48.85 -13.2 M-54.2 -13.2 L-57.85 -13.2 -57.85 0.8 -54.2 0.8 -54.2 -13.2 M-43.5 -13.2 L-47.2 -13.2 -47.2 0.8 -43.5 0.8 -43.5 -13.2 M-65.2 -13.2 L-69.2 -13.2 -69.2 0.8 -65.2 0.8 -65.2 -13.2" fill="#ffffff" fill-opacity="0.0" fill-rule="evenodd" stroke="none"/>
    <path d="M64.0 -70.15 L64.0 -70.35 Q64.0 -73.25 66.05 -75.35 L66.1 -75.4 Q68.1 -77.4 70.95 -77.5 L71.15 -77.45 Q73.4 -76.85 74.8 -75.05 76.25 -73.15 76.25 -70.75 76.25 -67.85 74.2 -65.8 72.15 -63.75 69.25 -63.75 L68.15 -63.85 Q66.75 -64.3 65.9 -65.5 L65.8 -65.6 65.75 -65.65 65.55 -65.9 65.2 -66.35 48.9 -61.35 31.65 18.9 30.0 19.3 29.4 19.25 47.4 -62.6 64.45 -67.8 64.45 -67.75 64.45 -67.8 64.15 -69.05 64.05 -69.4 64.0 -70.0 64.0 -70.15 M53.95 58.45 Q51.45 56.8 48.3 56.8 45.45 56.8 43.15 58.2 L-56.1 54.65 -64.95 54.3 -76.4 53.8 -76.85 53.7 -76.95 53.55 -77.0 53.5 -77.1 53.55 -77.4 53.3 -77.7 52.95 -77.75 52.9 Q-78.25 52.1 -78.25 51.05 L56.3 55.95 Q55.75 56.3 55.7 57.45 L55.75 58.5 53.95 58.45 M-75.05 48.1 L-71.5 47.15 Q-66.1 45.9 -62.35 45.9 L40.15 49.1 44.95 50.0 45.95 50.25 49.3 51.35 Q49.75 49.05 51.5 44.4 L53.25 39.95 51.55 40.05 50.75 39.95 25.8 22.75 28.5 22.85 54.4 39.7 51.75 52.8 49.3 51.35 51.75 52.8 -75.05 48.1 M1.5 21.75 L-73.85 19.05 -74.45 18.9 -74.9 18.45 Q-75.35 17.85 -75.3 17.0 L30.05 20.65 30.05 20.7 30.0 20.75 Q29.5 21.15 28.95 22.05 L28.75 22.4 6.65 21.9 4.05 21.8 1.5 21.75 M65.15 -66.45 L64.95 -66.75 64.75 -67.2 64.7 -67.25 64.45 -67.75 64.7 -67.25 64.75 -67.2 64.95 -66.75 65.15 -66.45 65.2 -66.35 65.15 -66.45" fill="#000000" fill-opacity="0.101960786" fill-rule="evenodd" stroke="none"/>
    <path d="M71.15 -77.5 Q74.1 -77.5 76.2 -75.4 78.3 -73.3 78.3 -70.35 78.3 -67.4 76.2 -65.3 74.1 -63.2 71.15 -63.2 L69.15 -63.45 69.25 -63.75 Q72.15 -63.75 74.2 -65.8 76.25 -67.85 76.25 -70.75 76.25 -73.15 74.8 -75.05 73.4 -76.85 71.15 -77.45 L71.15 -77.5 M45.95 50.25 L48.65 40.75 22.05 22.6 25.8 22.75 50.75 39.95 51.55 40.05 53.25 39.95 51.5 44.4 Q49.75 49.05 49.3 51.35 L45.95 50.25" fill="#000000" fill-opacity="0.2" fill-rule="evenodd" stroke="none"/>
    <path d="M64.0 -70.15 L64.0 -70.35 Q64.0 -73.25 66.05 -75.35 L66.1 -75.4 Q68.1 -77.4 70.95 -77.5 L71.05 -77.5 71.15 -77.5 Q74.1 -77.5 76.2 -75.4 78.3 -73.3 78.3 -70.35 78.3 -67.4 76.2 -65.3 74.1 -63.2 71.15 -63.2 L69.15 -63.45 68.15 -63.85 Q66.75 -64.3 65.9 -65.5 L65.8 -65.6 M65.75 -65.65 L65.55 -65.9 M65.2 -66.35 L48.9 -61.35 31.65 18.9 60.0 37.35 Q60.25 37.5 59.75 38.6 L56.3 55.75 56.3 55.85 56.2 56.45 55.75 58.5 54.75 58.55 M43.15 58.2 L-56.1 54.65 M-64.95 55.7 L-64.95 54.3 -76.4 53.8 -76.85 53.7 -77.15 53.55 -77.4 53.3 -77.7 52.95 -77.75 52.9 Q-78.25 52.1 -78.25 51.05 L-78.25 50.85 Q-78.2 49.65 -77.6 48.85 -77.0 48.0 -76.2 48.05 M-75.05 48.1 L-71.5 47.15 Q-66.1 45.9 -62.35 45.9 L40.15 49.1 44.95 50.0 M45.95 50.25 L48.65 40.75 22.05 22.6 6.65 21.95 1.5 21.75 -73.85 19.05 -74.45 18.9 -74.9 18.45 Q-75.35 17.85 -75.3 17.0 -75.25 16.2 -74.8 15.6 -74.35 15.05 -73.7 15.05 L-70.85 15.15 -70.85 2.3 -71.2 1.65 -70.85 1.0 -70.85 -13.35 -71.2 -14.0 -70.85 -14.65 -70.85 -20.75 -73.15 -20.05 -74.6 -20.2 Q-75.3 -20.6 -75.55 -21.4 -75.75 -22.2 -75.4 -22.9 -75.05 -23.6 -74.3 -23.85 L44.6 -60.25 44.7 -60.75 45.3 -63.55 45.45 -63.9 Q45.45 -64.45 45.6 -64.5 L63.95 -70.15 64.0 -70.15 M44.5 -59.8 L44.6 -60.25 M6.65 21.95 L4.05 21.8 1.5 21.75 M56.3 55.95 L56.3 55.85 M56.2 56.45 L56.3 55.95 M-76.85 53.7 L-77.1 53.55 -77.4 53.3" fill="none" stroke="#231f20" stroke-linecap="round" stroke-linejoin="round" stroke-width="1.0"/>
    <path d="M44.95 50.0 L45.95 50.25 49.3 51.35 51.75 52.8 M43.65 -55.8 L40.45 -41.0 39.05 -34.45 38.8 -33.3 34.85 -14.85 34.5 -13.2 33.8 -10.05 32.15 -2.35 31.5 0.8 31.1 2.5 27.6 18.85 27.45 18.85 25.8 18.8 22.15 18.65 20.45 18.6 16.8 18.45 15.15 18.4 11.45 18.25 9.8 18.2 6.15 18.05 4.45 18.0 0.8 17.85 -0.85 17.8 -4.55 17.65 -6.2 17.6 -9.85 17.45 -11.5 17.4 -15.2 17.25 -16.85 17.2 -20.5 17.05 -22.2 17.0 -25.85 16.85 -27.5 16.8 -31.2 16.65 -32.85 16.6 -36.5 16.45 -38.2 16.4 -41.85 16.25 -43.5 16.2 -47.2 16.05 -48.85 16.0 -52.5 15.85 -54.2 15.8 -57.85 15.65 -59.5 15.6 -63.5 15.45 -65.2 15.4 -69.2 15.25 -70.85 15.15 M44.5 -59.8 L44.45 -59.6 M38.8 -54.3 L40.45 -54.8 43.65 -55.8 M33.8 -52.75 L38.8 -54.3 38.8 -36.15 33.8 -36.15 33.8 -52.75 32.15 -52.25 32.15 -36.15 27.45 -36.15 27.45 -50.85 25.8 -50.35 25.8 -36.15 22.15 -36.15 22.15 -49.0 22.1 -49.2 20.45 -48.7 20.45 -36.15 16.8 -36.15 16.8 -47.55 15.15 -47.05 15.15 -36.15 11.45 -36.15 11.45 -45.95 9.8 -45.45 9.8 -36.15 6.15 -36.15 6.15 -44.3 4.45 -43.8 4.45 -36.15 0.8 -36.15 0.8 -42.65 -0.85 -42.15 -0.85 -36.15 -4.55 -36.15 -4.55 -41.05 -6.2 -40.55 -6.2 -36.15 -9.85 -36.15 -9.85 -39.4 -11.5 -38.9 -11.5 -36.15 -15.2 -36.15 -15.2 -37.1 Q-15.2 -37.5 -16.05 -37.5 L-16.15 -37.5 -16.75 -37.3 -16.85 -37.1 -16.85 -36.15 -20.5 -36.15 -27.5 -34.0 -27.5 -14.85 -31.2 -14.85 -31.2 -32.9 -32.85 -32.4 -32.85 -14.85 -36.5 -14.85 -36.5 -31.3 -38.2 -30.75 -38.2 -14.85 -41.85 -14.85 -41.85 -29.65 -43.5 -29.15 -43.5 -14.85 -47.2 -14.85 -47.2 -28.0 -48.85 -27.5 -48.85 -14.85 -52.5 -14.85 -52.5 -25.85 Q-52.5 -26.15 -53.1 -26.2 L-54.2 -25.85 -54.2 -14.85 -57.85 -14.85 -57.85 -24.75 -59.5 -24.25 -59.5 -14.85 -63.5 -14.85 -63.5 -23.0 -65.2 -22.45 -65.2 -14.85 -69.2 -14.85 -69.2 -21.25 -70.85 -20.75 M27.45 -50.85 L32.15 -52.25 M25.8 -34.5 L25.8 -14.85 22.15 -14.85 22.15 -34.5 25.8 -34.5 M38.8 -34.5 L38.8 -33.3 M34.85 -14.85 L33.8 -14.85 33.8 -34.5 38.8 -34.5 M32.15 -34.5 L32.15 -14.85 27.45 -14.85 27.45 -34.5 32.15 -34.5 M11.45 -45.95 L15.15 -47.05 M0.8 -42.65 L4.45 -43.8 M6.15 -44.3 L9.8 -45.45 M4.45 -34.5 L4.45 -14.85 0.8 -14.85 0.8 -34.5 4.45 -34.5 M9.8 -34.5 L9.8 -14.85 6.15 -14.85 6.15 -34.5 9.8 -34.5 M15.15 -34.5 L15.15 -14.85 11.45 -14.85 11.45 -34.5 15.15 -34.5 M9.8 -13.2 L9.8 0.8 6.15 0.8 6.15 -13.2 9.8 -13.2 M15.15 -13.2 L15.15 0.8 11.45 0.8 11.45 -13.2 15.15 -13.2 M4.45 -13.2 L4.45 0.8 0.8 0.8 0.8 -13.2 4.45 -13.2 M34.5 -13.2 L33.8 -13.2 33.8 -10.05 M25.8 -13.2 L25.8 0.8 22.15 0.8 22.15 -13.2 25.8 -13.2 M32.15 -2.35 L32.15 -13.2 27.45 -13.2 27.45 0.8 31.5 0.8 M16.8 -47.55 L20.45 -48.7 M16.8 -34.5 L20.45 -34.5 20.45 -14.85 16.8 -14.85 16.8 -34.5 M20.45 -13.2 L20.45 0.8 16.8 0.8 16.8 -13.2 20.45 -13.2 M25.8 -50.35 L22.1 -49.2 M40.45 -41.0 L40.45 -54.8 M25.8 18.8 L25.8 2.5 22.15 2.5 22.15 18.65 M31.1 2.5 L27.45 2.5 27.45 18.85 M20.45 18.6 L20.45 2.5 16.8 2.5 16.8 18.45 M15.15 18.4 L15.15 2.5 11.45 2.5 11.45 18.25 M9.8 18.2 L9.8 2.5 6.15 2.5 6.15 18.05 M4.45 18.0 L4.45 2.5 0.8 2.5 0.8 17.85 M-47.2 -28.0 L-43.5 -29.15 M-53.1 -26.2 L-48.85 -27.5 M-69.2 -21.25 L-65.2 -22.45 M-65.2 -13.2 L-65.2 0.8 -69.2 0.8 -69.2 -13.2 -65.2 -13.2 M-43.5 -13.2 L-43.5 0.8 -47.2 0.8 -47.2 -13.2 -43.5 -13.2 M-54.2 -13.2 L-54.2 0.8 -57.85 0.8 -57.85 -13.2 -54.2 -13.2 M-48.85 -13.2 L-48.85 0.8 -52.5 0.8 -52.5 -13.2 -48.85 -13.2 M-59.5 -13.2 L-59.5 0.8 -63.5 0.8 -63.5 -13.2 -59.5 -13.2 M-57.85 -24.75 L-54.2 -25.85 M-63.5 -23.0 L-59.5 -24.25 M-9.85 -39.4 L-6.2 -40.55 M-4.55 -41.05 L-0.85 -42.15 M-16.15 -37.5 L-11.5 -38.9 M-11.5 -34.5 L-11.5 -14.85 -15.2 -14.85 -15.2 -34.5 -11.5 -34.5 M-0.85 -34.5 L-0.85 -14.85 -4.55 -14.85 -4.55 -34.5 -0.85 -34.5 M-6.2 -34.5 L-6.2 -14.85 -9.85 -14.85 -9.85 -34.5 -6.2 -34.5 M-22.2 -34.5 L-22.2 -14.85 -25.85 -14.85 -25.85 -34.5 -22.2 -34.5 M-36.5 -31.3 L-32.85 -32.4 M-31.2 -32.9 L-27.5 -34.0 M-22.2 -13.2 L-22.2 0.8 -25.85 0.8 -25.85 -13.2 -22.2 -13.2 M-27.5 -13.2 L-27.5 0.8 -31.2 0.8 -31.2 -13.2 -27.5 -13.2 M-32.85 -13.2 L-32.85 0.8 -36.5 0.8 -36.5 -13.2 -32.85 -13.2 M-11.5 -13.2 L-11.5 0.8 -15.2 0.8 -15.2 -13.2 -11.5 -13.2 M-0.85 -13.2 L-0.85 0.8 -4.55 0.8 -4.55 -13.2 -0.85 -13.2 M-6.2 -13.2 L-6.2 0.8 -9.85 0.8 -9.85 -13.2 -6.2 -13.2 M-16.85 -14.85 L-20.5 -14.85 -20.5 -34.5 -16.85 -34.5 -16.85 -14.85 M-16.85 -13.2 L-16.85 0.8 -20.5 0.8 -20.5 -13.2 -16.85 -13.2 M-20.5 -36.15 L-16.75 -37.3 M-38.2 -13.2 L-38.2 0.8 -41.85 0.8 -41.85 -13.2 -38.2 -13.2 M-41.85 -29.65 L-38.2 -30.75 M-6.2 17.6 L-6.2 2.5 -9.85 2.5 -9.85 17.45 M-0.85 17.8 L-0.85 2.5 -4.55 2.5 -4.55 17.65 M-11.5 17.4 L-11.5 2.5 -15.2 2.5 -15.2 17.25 M-16.85 17.2 L-16.85 2.5 -20.5 2.5 -20.5 17.05 M-22.2 17.0 L-22.2 2.5 -25.85 2.5 -25.85 16.85 M-32.85 16.6 L-32.85 2.5 -36.5 2.5 -36.5 16.45 M-27.5 16.8 L-27.5 2.5 -31.2 2.5 -31.2 16.65 M-38.2 16.4 L-38.2 2.5 -41.85 2.5 -41.85 16.25 M-43.5 16.2 L-43.5 2.5 -47.2 2.5 -47.2 16.05 M-54.2 15.8 L-54.2 2.5 -57.85 2.5 -57.85 15.65 M-48.85 16.0 L-48.85 2.5 -52.5 2.5 -52.5 15.85 M-59.5 15.6 L-59.5 2.5 -63.5 2.5 -63.5 15.45 M-65.2 15.4 L-65.2 2.5 -69.2 2.5 -69.2 15.25" fill="none" stroke="#000000" stroke-linecap="round" stroke-linejoin="round" stroke-opacity="0.4" stroke-width="1.0"/>
    <path d="M65.8 -65.6 L65.75 -65.65 65.55 -65.9 65.2 -66.35 65.15 -66.45 64.95 -66.75 64.75 -67.2 64.7 -67.25 64.45 -67.75 64.45 -67.8 64.15 -69.05 64.05 -69.4 64.0 -70.0 M54.75 58.55 L54.2 58.65 M-56.1 54.65 L-56.1 55.85 M-76.2 48.05 L-75.05 48.1 51.75 52.8 54.4 39.7 28.5 22.85 25.8 22.75 22.05 22.6 M44.45 -59.6 L43.65 -55.8 M44.7 -60.75 L44.5 -59.8 M-64.95 54.3 L-56.1 54.65" fill="none" stroke="#000000" stroke-linecap="round" stroke-linejoin="round" stroke-opacity="0.6" stroke-width="1.0"/>
    <path d="M42.4 -58.15 Q42.6 -57.6 42.0 -57.4 L-70.4 -22.8 -70.75 -22.7 -73.1 -22.0 Q-73.75 -21.8 -73.9 -22.4 -74.05 -23.0 -73.5 -23.2 L41.6 -58.6 Q42.2 -58.8 42.4 -58.15 M53.05 54.7 Q52.95 55.3 52.3 55.3 L-76.15 50.65 -76.6 50.45 -76.8 50.0 Q-76.8 49.4 -76.1 49.4 L52.35 54.05 Q53.05 54.05 53.05 54.7 M56.85 36.7 L56.65 37.3 56.2 37.75 30.1 20.85 30.05 20.7 30.1 20.65 30.05 20.65 30.3 20.25 30.8 19.8 56.85 36.7 M47.4 -62.6 Q47.3 -62.5 47.1 -63.15 L47.05 -63.8 64.15 -69.05 64.45 -67.8 47.4 -62.6" fill="#ffffff" fill-opacity="0.3019608" fill-rule="evenodd" stroke="none"/>
  </g>
</svg>
