<?xml version="1.0" encoding="UTF-8" standalone="no"?>
<svg xmlns:xlink="http://www.w3.org/1999/xlink" height="183.7px" width="397.45px" xmlns="http://www.w3.org/2000/svg">
  <g transform="matrix(1.0, 0.0, 0.0, 1.0, 198.7, 143.0)">
    <path d="M147.4 -134.4 L180.25 -142.5 198.25 -92.25 Q188.65 -86.1 167.5 -75.9 L147.4 -134.4 M160.6 -72.75 Q134.2 -60.45 92.5 -43.05 L91.15 -44.4 Q86.05 -49.5 79.0 -49.5 71.8 -49.5 66.85 -44.4 62.8 -40.35 62.05 -35.25 L-12.65 -35.25 Q-12.8 -19.35 -29.6 -7.2 -45.5 -28.35 -51.2 -55.95 -53.3 -65.85 -53.75 -75.3 L-53.9 -80.7 Q-6.8 -94.65 64.45 -113.25 L140.2 -132.6 160.6 -72.75 M-37.25 -2.4 L-40.4 -0.75 Q-68.0 13.5 -107.0 13.5 L-119.0 13.05 -119.0 39.0 Q-133.55 41.1 -147.2 39.3 -156.5 37.95 -163.55 35.1 -177.35 29.25 -182.3 17.1 -187.7 3.9 -180.2 -11.25 -177.35 -17.1 -172.7 -23.1 -160.1 -39.3 -139.7 -50.55 -132.35 -54.6 -123.95 -58.05 L-111.8 -62.4 -93.95 -68.4 -62.9 -78.15 -62.75 -74.55 Q-62.3 -64.35 -60.05 -53.85 -54.05 -24.9 -37.25 -2.4" fill="#ffffff" fill-opacity="0.0" fill-rule="evenodd" stroke="none"/>
    <path d="M140.2 -132.6 L139.45 -134.55 Q139.0 -135.6 139.75 -136.8 140.5 -138.0 142.0 -138.45 L144.7 -138.6 Q146.05 -138.15 146.5 -136.95 L147.4 -134.4 167.5 -75.9 168.25 -73.5 Q168.7 -72.3 167.95 -71.1 167.2 -69.9 165.7 -69.45 L162.85 -69.3 Q161.5 -69.75 161.2 -70.95 L160.6 -72.75 140.2 -132.6 M-29.6 -7.2 Q-33.05 -4.8 -37.25 -2.4 -54.05 -24.9 -60.05 -53.85 -62.3 -64.35 -62.75 -74.55 L-62.9 -78.15 -62.75 -83.55 Q-62.6 -85.35 -61.25 -86.55 -59.9 -87.9 -57.95 -87.75 -56.15 -87.6 -54.95 -86.25 -53.6 -84.9 -53.75 -82.95 L-53.9 -80.7 -53.75 -75.3 Q-53.3 -65.85 -51.2 -55.95 -45.5 -28.35 -29.6 -7.2 M-163.55 35.1 L-177.95 39.75 Q-180.65 40.8 -183.35 39.3 -186.05 37.8 -187.1 34.8 L-197.75 2.55 Q-198.8 -0.45 -197.45 -3.3 -196.25 -6.0 -193.4 -6.9 L-180.2 -11.25 Q-187.7 3.9 -182.3 17.1 -177.35 29.25 -163.55 35.1 M-139.7 -50.55 L-140.45 -52.35 Q-141.5 -55.05 -140.15 -57.75 -138.95 -60.45 -135.95 -61.65 L-132.2 -63.15 -134.3 -68.55 Q-134.9 -69.9 -134.15 -71.4 -133.55 -72.75 -132.05 -73.35 L-115.7 -79.8 Q-114.05 -80.4 -112.7 -79.8 -111.35 -79.35 -110.75 -77.85 L-108.65 -72.45 -104.45 -74.1 -98.6 -74.25 Q-95.75 -73.05 -94.7 -70.35 L-93.95 -68.4 -111.8 -62.4 -123.95 -58.05 Q-132.35 -54.6 -139.7 -50.55 M-108.65 -72.45 L-132.2 -63.15 -108.65 -72.45" fill="#dedede" fill-opacity="0.2" fill-rule="evenodd" stroke="none"/>
    <path d="M140.2 -132.6 L160.6 -72.75 M147.4 -134.4 L167.5 -75.9 M-132.2 -63.15 L-108.65 -72.45 M-53.9 -80.7 L-53.75 -75.3 Q-53.3 -65.85 -51.2 -55.95 -45.5 -28.35 -29.6 -7.2 M-37.25 -2.4 Q-54.05 -24.9 -60.05 -53.85 -62.3 -64.35 -62.75 -74.55 L-62.9 -78.15 M-180.2 -11.25 Q-187.7 3.9 -182.3 17.1 -177.35 29.25 -163.55 35.1" fill="none" stroke="#000000" stroke-linecap="round" stroke-linejoin="round" stroke-opacity="0.6" stroke-width="1.0"/>
    <path d="M140.2 -132.6 L139.45 -134.55 Q139.0 -135.6 139.75 -136.8 140.5 -138.0 142.0 -138.45 L144.7 -138.6 Q146.05 -138.15 146.5 -136.95 L147.4 -134.4 180.25 -142.5 198.25 -92.25 Q188.65 -86.1 167.5 -75.9 L168.25 -73.5 Q168.7 -72.3 167.95 -71.1 167.2 -69.9 165.7 -69.45 L162.85 -69.3 Q161.5 -69.75 161.2 -70.95 L160.6 -72.75 Q134.2 -60.45 92.5 -43.05 L91.15 -44.4 Q86.05 -49.5 79.0 -49.5 71.8 -49.5 66.85 -44.4 62.8 -40.35 62.05 -35.25 L-12.65 -35.25 Q-12.8 -19.35 -29.6 -7.2 -33.05 -4.8 -37.25 -2.4 L-40.4 -0.75 Q-68.0 13.5 -107.0 13.5 L-119.0 13.05 -119.0 39.0 Q-133.55 41.1 -147.2 39.3 -156.5 37.95 -163.55 35.1 L-177.95 39.75 Q-180.65 40.8 -183.35 39.3 -186.05 37.8 -187.1 34.8 L-197.75 2.55 Q-198.8 -0.45 -197.45 -3.3 -196.25 -6.0 -193.4 -6.9 L-180.2 -11.25 Q-177.35 -17.1 -172.7 -23.1 -160.1 -39.3 -139.7 -50.55 L-140.45 -52.35 Q-141.5 -55.05 -140.15 -57.75 -138.95 -60.45 -135.95 -61.65 L-132.2 -63.15 -134.3 -68.55 Q-134.9 -69.9 -134.15 -71.4 -133.55 -72.75 -132.05 -73.35 L-115.7 -79.8 Q-114.05 -80.4 -112.7 -79.8 -111.35 -79.35 -110.75 -77.85 L-108.65 -72.45 -104.45 -74.1 -98.6 -74.25 Q-95.75 -73.05 -94.7 -70.35 L-93.95 -68.4 -62.9 -78.15 -62.75 -83.55 Q-62.6 -85.35 -61.25 -86.55 -59.9 -87.9 -57.95 -87.75 -56.15 -87.6 -54.95 -86.25 -53.6 -84.9 -53.75 -82.95 L-53.9 -80.7 Q-6.8 -94.65 64.45 -113.25 L140.2 -132.6 M-93.95 -68.4 L-111.8 -62.4 -123.95 -58.05 Q-132.35 -54.6 -139.7 -50.55" fill="none" stroke="#000000" stroke-linecap="round" stroke-linejoin="round" stroke-width="1.0"/>
  </g>
</svg>
