<?xml version="1.0" encoding="UTF-8" standalone="no"?>
<svg xmlns:xlink="http://www.w3.org/1999/xlink" height="501.05px" width="231.5px" xmlns="http://www.w3.org/2000/svg">
  <g transform="matrix(1.0, 0.0, 0.0, 1.0, 172.7, 198.3)">
    <path d="M17.9 -194.85 Q38.15 -200.75 58.3 -194.85 58.5 -7.85 45.7 103.05 L45.25 108.25 Q52.1 255.85 53.5 292.95 48.05 297.25 41.2 299.8 34.1 302.45 28.25 302.25 9.35 301.55 0.6 291.15 0.0 277.5 0.4 258.6 L1.5 221.85 Q2.05 207.05 10.1 166.2 17.45 128.75 21.3 104.85 -61.0 37.85 -110.9 -43.25 -154.75 -114.6 -172.2 -194.85 -169.9 -196.45 -167.75 -196.5 -165.0 -196.8 -162.2 -194.85 L-154.75 -194.45 -151.2 -194.85 Q-139.15 -199.75 -127.2 -194.85 -124.15 -194.1 -121.1 -194.85 -93.8 -198.6 -63.9 -194.85 -59.2 -193.8 -54.55 -193.4 -45.85 -192.5 -37.1 -193.4 L-27.7 -194.85 Q-16.3 -198.5 -5.0 -194.85 -2.1 -193.8 0.9 -193.4 6.5 -192.5 12.1 -193.4 15.0 -193.8 17.9 -194.85" fill="#ffffff" fill-opacity="0.0" fill-rule="evenodd" stroke="none"/>
    <path d="M17.9 -194.85 Q38.15 -200.75 58.3 -194.85 58.5 -7.85 45.7 103.05 L45.25 108.25 Q52.1 255.85 53.5 292.95 48.05 297.25 41.2 299.8 34.1 302.45 28.25 302.25 9.35 301.55 0.6 291.15 0.0 277.5 0.4 258.6 L1.5 221.85 Q2.05 207.05 10.1 166.2 17.45 128.75 21.3 104.85 -61.0 37.85 -110.9 -43.25 -154.75 -114.6 -172.2 -194.85 -169.9 -196.45 -167.75 -196.5 -165.0 -196.8 -162.2 -194.85 L-154.75 -194.45 -151.2 -194.85 Q-139.15 -199.75 -127.2 -194.85 -124.15 -194.1 -121.1 -194.85 -93.8 -198.6 -63.9 -194.85 -59.2 -193.8 -54.55 -193.4 -45.85 -192.5 -37.1 -193.4 L-27.7 -194.85 Q-16.3 -198.5 -5.0 -194.85 -2.1 -193.8 0.9 -193.4 6.5 -192.5 12.1 -193.4 15.0 -193.8 17.9 -194.85 Z" fill="none" stroke="#000000" stroke-linecap="round" stroke-linejoin="round" stroke-width="1.0"/>
    <path d="M-27.7 -194.85 Q-28.2 -130.75 -18.35 -74.45 -7.0 -8.9 16.45 34.65 21.8 43.65 23.1 49.35 24.35 55.2 19.45 49.35 L13.15 40.05 Q-18.65 -8.25 -39.95 -77.85 -58.6 -138.65 -63.9 -194.85 -45.85 -191.05 -27.7 -194.85 M-151.2 -194.85 Q-136.55 -129.35 -98.2 -57.5 -59.0 15.95 7.0 80.85 13.2 86.8 15.0 89.7 17.1 93.1 12.1 91.2 -57.9 27.4 -100.55 -46.5 -145.4 -124.1 -162.2 -194.85 -156.7 -193.95 -151.2 -194.85 M-121.1 -194.85 Q-107.05 -134.35 -63.85 -54.65 -20.35 25.45 7.9 53.95 36.05 82.5 36.7 86.45 37.25 90.4 31.15 87.4 -26.65 43.3 -68.95 -43.25 -111.35 -129.85 -127.2 -194.85 -124.15 -194.1 -121.1 -194.85" fill="#000000" fill-opacity="0.050980393" fill-rule="evenodd" stroke="none"/>
    <path d="M17.9 -194.85 Q19.5 -145.2 23.8 -88.7 29.5 -16.15 36.6 28.0 M-63.9 -194.85 Q-58.6 -138.65 -39.95 -77.85 -18.65 -8.25 13.15 40.05 L19.45 49.35 Q24.35 55.2 23.1 49.35 21.8 43.65 16.45 34.65 -7.0 -8.9 -18.35 -74.45 -28.2 -130.75 -27.7 -194.85 M-151.2 -194.85 Q-136.55 -129.35 -98.2 -57.5 -59.0 15.95 7.0 80.85 13.2 86.8 15.0 89.7 17.1 93.1 12.1 91.2 -57.9 27.4 -100.55 -46.5 -145.4 -124.1 -162.2 -194.85 M-121.1 -194.85 Q-107.05 -134.35 -63.85 -54.65 -20.35 25.45 7.9 53.95 36.05 82.5 36.7 86.45 37.25 90.4 31.15 87.4 -26.65 43.3 -68.95 -43.25 -111.35 -129.85 -127.2 -194.85 M18.0 173.2 L16.6 181.0 Q15.0 191.75 15.3 197.4 16.1 215.35 17.65 221.7 20.75 234.6 29.35 235.3 35.8 235.85 38.0 216.3 39.05 206.75 39.05 187.95 M-5.0 -194.85 Q2.75 -127.5 12.85 -62.25 25.1 16.8 37.6 59.35 M-112.15 -116.95 Q-102.55 -86.65 -80.3 -44.75 -55.4 2.2 -31.1 31.2" fill="none" stroke="#000000" stroke-linecap="round" stroke-linejoin="round" stroke-opacity="0.2" stroke-width="1.0"/>
  </g>
</svg>
