<?xml version="1.0" encoding="UTF-8" standalone="no"?>
<svg xmlns:xlink="http://www.w3.org/1999/xlink" height="20.0px" width="91.8px" xmlns="http://www.w3.org/2000/svg">
  <g transform="matrix(1.0, 0.0, 0.0, 1.0, 45.9, 10.0)">
    <path d="M1.65 -10.0 L2.6 -10.0 3.5 -8.55 3.5 -8.05 3.0 -7.85 4.4 -6.0 4.05 -5.3 4.55 -5.2 4.85 -4.0 5.15 -2.85 5.1 -2.55 Q5.1 -1.9 6.0 -0.8 L5.6 -0.4 6.55 0.05 6.5 0.5 6.9 0.55 6.85 1.55 7.25 1.9 7.15 2.5 7.25 2.85 8.05 4.25 7.9 4.55 8.4 4.9 8.4 5.65 8.95 5.7 8.9 6.05 9.15 6.9 10.2 7.7 10.5 7.6 11.05 7.8 11.4 7.7 12.1 8.35 12.1 8.9 11.85 9.25 8.65 9.8 5.5 10.0 4.3 9.1 5.4 8.35 5.55 8.4 6.15 8.0 6.2 7.15 5.9 7.1 6.1 6.65 5.8 6.5 4.95 4.95 5.25 4.75 Q4.7 4.75 4.7 4.25 L4.85 3.75 4.35 2.85 3.8 2.55 3.1 3.15 2.15 2.55 1.85 2.95 1.35 3.0 0.6 2.85 0.25 3.15 0.1 3.05 -0.15 3.2 -1.05 2.6 -1.4 3.15 -2.3 3.4 -2.5 2.85 -3.6 4.2 -3.25 4.6 -3.65 5.5 -3.85 5.45 -4.0 6.8 -4.2 7.1 -4.3 7.3 -3.7 7.75 -3.6 8.05 -2.0 8.45 -2.0 9.2 -2.8 9.7 -3.7 9.5 -4.3 9.75 -5.5 9.0 -5.5 9.35 -6.2 9.85 -7.45 9.2 -8.35 9.7 -9.15 9.35 -9.15 8.6 -8.1 8.35 -7.75 8.4 -7.2 7.8 -6.65 7.8 -6.15 7.35 -6.35 6.95 -6.2 6.65 -6.25 6.2 -5.65 5.55 -5.9 5.2 -5.9 4.7 -5.6 4.65 -5.7 4.15 Q-4.95 3.7 -4.5 3.75 L-5.0 3.35 -3.95 2.35 -3.75 1.5 -4.15 1.0 -3.8 0.5 -3.1 0.4 -3.1 0.0 -2.65 -0.25 -3.0 -0.7 -2.45 -1.35 -2.45 -1.75 -2.3 -1.9 -2.4 -2.55 -1.65 -3.5 -1.25 -3.5 -1.25 -3.75 -1.4 -4.75 -0.95 -5.3 -0.15 -5.05 -0.65 -5.85 0.05 -6.25 0.2 -7.65 Q0.7 -7.85 0.8 -8.0 L0.9 -9.2 1.35 -9.4 1.65 -10.0 M2.8 -3.9 L2.3 -4.05 Q2.0 -4.2 2.0 -4.55 2.0 -5.1 2.6 -5.15 L1.5 -6.1 1.2 -5.8 Q1.2 -4.8 0.8 -4.7 L0.85 -4.9 0.7 -4.7 0.8 -4.7 0.8 -4.65 0.9 -4.4 1.0 -4.1 Q1.0 -3.7 -0.1 -2.95 L-0.3 -3.0 -0.15 -2.95 -0.1 -2.95 0.05 -2.7 -0.9 -1.75 -0.7 -1.25 Q-0.7 -0.8 -1.15 -0.35 L-1.35 -0.15 -1.45 -0.2 -1.55 -0.1 -1.55 0.05 -1.35 -0.15 -1.05 0.0 -1.1 0.35 -1.05 0.55 -1.6 1.15 -1.55 1.3 Q-1.25 1.0 -0.85 1.0 L-0.6 1.0 -0.4 1.3 0.15 1.15 0.4 1.15 1.6 0.9 2.15 1.15 2.35 1.15 2.85 1.15 2.9 1.25 3.65 0.9 Q3.3 0.9 3.0 0.5 L3.35 0.2 Q3.1 0.2 3.1 -0.25 L3.3 -0.7 3.4 -0.65 3.7 -0.8 3.65 -0.9 3.3 -0.7 2.75 -1.1 3.0 -1.6 2.6 -1.8 2.6 -2.3 3.1 -2.4 2.25 -2.9 2.75 -3.55 2.7 -3.75 2.8 -3.9 2.95 -3.9 2.95 -3.95 2.8 -3.9 M20.2 -9.6 Q20.8 -9.6 21.1 -9.0 L21.5 -9.0 23.35 -8.05 24.2 -8.3 23.75 -9.45 24.35 -9.95 24.6 -10.0 Q25.25 -10.05 25.85 -9.45 25.75 -8.3 25.3 -8.0 L25.6 -7.75 Q25.6 -7.1 24.9 -6.9 L25.6 -6.55 25.1 -6.0 25.3 -4.7 24.7 -4.45 24.9 -4.45 24.9 -4.0 24.8 -3.9 24.8 -3.6 24.4 -3.45 24.35 -3.65 24.0 -3.25 23.6 -3.7 24.0 -4.45 23.4 -4.65 23.1 -5.4 23.65 -5.8 21.65 -7.75 20.6 -7.75 20.45 -8.05 20.1 -7.75 19.3 -7.75 19.05 -8.25 19.2 -8.5 18.9 -8.5 18.6 -7.75 17.95 -7.95 17.55 -7.8 17.35 -7.9 16.25 -6.4 16.1 -6.4 16.5 -5.75 16.25 -4.6 15.9 -4.4 15.75 -4.45 15.55 -4.2 15.6 -4.15 16.3 -4.55 17.2 -3.4 17.0 -3.05 17.75 -2.7 18.55 -2.0 18.55 -1.7 18.8 -1.7 19.35 -2.15 20.2 -2.3 20.5 -1.6 20.2 -1.05 20.5 -0.9 21.05 -1.1 21.9 -0.4 21.6 0.05 21.95 -0.1 22.55 0.7 22.55 1.0 22.65 1.25 22.9 0.9 24.0 1.4 24.0 1.8 Q24.65 1.95 24.9 2.5 L24.85 2.9 25.4 3.4 25.45 3.65 25.2 4.1 24.9 3.95 24.9 4.4 25.0 4.15 25.9 4.85 25.25 5.25 Q26.1 5.5 26.05 6.15 L25.7 6.3 26.2 6.8 25.8 7.25 25.85 7.45 Q25.85 8.0 24.85 8.2 L24.6 8.05 24.5 8.1 24.85 8.4 24.75 8.85 24.1 9.2 23.9 9.15 23.45 9.6 22.6 9.75 22.3 9.4 21.45 9.65 21.15 9.65 20.6 10.0 19.95 10.0 Q19.65 9.65 19.35 9.65 L18.6 9.8 17.9 9.7 Q17.6 9.65 17.6 9.35 L17.7 8.85 17.1 9.05 16.55 8.6 16.45 8.65 15.7 8.0 15.15 8.2 15.35 8.25 15.15 9.35 14.8 9.6 14.05 9.7 13.2 8.7 13.8 7.75 13.35 7.5 13.6 7.1 13.0 6.35 13.55 5.8 13.05 4.75 13.2 4.25 13.2 4.05 13.2 3.85 Q13.2 3.0 13.95 3.0 L14.7 3.35 14.7 4.25 Q15.4 4.8 15.4 5.25 L15.2 5.6 Q15.25 5.95 15.65 6.35 L15.85 6.25 Q16.65 6.5 17.75 7.15 L17.9 7.1 19.2 8.0 19.45 7.95 20.35 8.4 20.65 8.2 21.3 8.4 21.75 8.2 21.85 8.25 22.65 7.45 22.55 7.15 23.05 6.6 22.65 6.3 22.65 5.75 23.3 5.55 22.95 5.5 22.15 4.35 22.6 3.9 22.0 3.85 21.6 3.4 21.5 3.45 21.0 2.85 Q20.6 2.85 20.6 2.4 L20.65 2.15 20.4 2.15 19.8 1.65 20.1 1.3 19.2 1.5 18.55 1.0 18.75 0.65 18.45 0.4 17.45 0.45 16.8 0.05 16.55 -0.65 16.7 -0.8 16.1 -0.7 15.85 -0.85 14.95 -0.85 14.75 -1.5 14.3 -1.55 13.75 -2.6 14.35 -3.15 14.0 -3.25 13.8 -3.2 13.3 -3.8 13.65 -4.15 13.05 -4.65 14.0 -5.25 13.5 -5.7 Q13.6 -6.55 14.2 -6.8 L14.1 -7.35 15.25 -8.0 15.7 -7.9 15.95 -8.85 16.45 -9.1 17.45 -9.0 17.45 -9.5 17.75 -9.9 18.35 -9.9 19.55 -9.4 20.2 -9.6 M30.3 -9.4 L31.55 -9.6 31.95 -9.25 32.8 -9.9 32.95 -9.85 34.25 -9.85 34.6 -9.3 34.2 -8.7 33.95 -9.0 33.7 -9.0 33.35 -8.8 33.4 -8.7 32.35 -8.05 32.7 -7.75 32.5 -6.7 32.55 -6.25 32.25 -6.0 32.5 -5.6 Q32.3 -5.15 31.8 -5.0 L31.75 -4.9 32.3 -4.45 31.7 -3.75 32.5 -2.6 32.05 -1.95 Q32.05 -1.65 32.75 -1.25 L33.35 -1.7 33.8 -1.6 34.05 -1.05 34.65 -1.3 34.8 -1.1 34.8 -1.4 35.55 -1.75 36.05 -1.55 36.45 -1.65 37.25 -1.0 37.3 -1.05 37.6 -0.9 37.8 -1.25 38.35 -1.55 39.35 -1.1 40.15 -1.5 40.4 -1.45 40.7 -1.65 40.55 -2.1 41.0 -3.0 40.7 -3.6 40.9 -4.0 40.8 -4.55 41.25 -4.8 40.85 -4.8 40.65 -5.45 Q40.8 -6.15 41.2 -6.4 L40.8 -6.75 40.8 -7.3 40.45 -7.85 40.3 -7.8 39.9 -8.3 39.05 -7.95 38.5 -8.7 Q39.0 -9.45 39.65 -9.45 L39.95 -9.4 41.15 -10.0 Q41.9 -9.25 43.4 -9.25 L43.75 -9.45 44.25 -9.65 Q44.9 -9.65 45.9 -8.4 L45.05 -7.75 44.65 -8.2 43.4 -7.25 43.4 -5.7 42.95 -5.5 43.5 -4.9 43.15 -4.25 43.4 -3.9 43.15 -2.9 43.4 -2.65 43.5 -1.3 43.15 -0.9 43.1 -0.45 42.85 -0.25 43.0 0.2 42.75 0.55 43.1 1.0 42.45 1.75 42.95 2.55 42.9 3.5 42.7 3.5 43.1 3.85 42.75 4.3 42.85 4.9 42.7 5.7 42.85 5.75 42.95 6.2 42.6 6.8 43.75 7.85 43.75 8.5 Q44.1 8.4 44.4 8.25 L45.35 8.55 45.35 9.3 44.7 9.7 43.85 9.75 43.05 9.8 Q42.65 9.8 42.6 9.4 L41.5 10.0 41.25 9.8 41.05 9.95 40.65 9.75 40.35 9.9 39.8 9.35 39.45 9.75 39.3 9.7 38.9 9.8 38.35 9.2 39.6 7.9 40.25 7.4 Q40.4 7.15 40.65 7.05 L40.3 6.55 40.55 6.2 40.4 5.85 41.1 4.85 40.9 4.85 40.45 4.3 41.05 3.4 41.05 3.35 40.65 3.35 40.3 2.5 40.65 2.15 40.4 2.25 40.05 1.7 40.45 1.2 40.15 0.0 40.05 0.3 Q39.85 0.65 39.45 0.65 L39.1 0.65 38.8 0.25 38.8 0.35 38.35 0.0 37.8 0.55 36.4 -0.1 35.9 0.15 35.75 0.0 35.05 0.25 34.45 0.1 33.15 0.6 33.0 0.4 32.8 0.7 32.8 0.95 32.35 1.35 32.7 2.2 32.35 2.8 32.6 3.45 32.25 4.0 32.5 4.25 32.5 5.55 32.1 5.9 33.2 7.95 33.75 8.0 34.2 8.55 Q34.2 9.0 33.8 9.2 33.45 9.35 33.35 9.5 L32.7 9.3 32.35 9.4 31.75 9.2 31.25 9.3 30.65 9.4 30.2 9.3 29.95 9.05 29.75 9.45 29.2 9.55 28.7 9.15 27.8 9.35 27.4 8.6 28.2 8.0 28.8 8.1 28.85 7.8 29.5 7.55 29.55 7.45 29.35 6.75 29.5 6.35 Q29.4 5.75 30.0 5.5 L29.6 4.7 30.15 4.35 29.5 4.15 29.5 3.45 30.25 3.05 29.6 2.5 30.3 2.1 30.15 2.15 29.75 1.45 30.2 0.5 29.6 -0.65 30.05 -1.1 29.8 -1.5 30.4 -1.75 30.0 -1.8 29.8 -2.45 30.3 -2.8 29.85 -2.8 29.5 -3.2 29.5 -4.4 30.0 -4.85 29.45 -5.25 29.45 -6.15 30.05 -6.35 29.55 -6.95 Q29.5 -7.4 29.75 -7.5 L29.35 -7.7 29.5 -8.0 29.5 -8.15 29.0 -8.2 28.85 -8.1 27.35 -8.9 27.35 -9.45 27.9 -9.75 30.3 -9.4 M-40.7 -8.5 L-40.4 -8.7 -40.3 -8.95 -39.55 -9.35 -39.2 -9.15 -38.6 -9.4 -38.25 -9.25 Q-37.9 -9.25 -36.6 -10.0 L-36.35 -9.65 -35.9 -9.85 -35.35 -9.35 -34.95 -9.4 -34.3 -8.9 -33.75 -9.2 -32.85 -8.45 -32.8 -8.15 -32.5 -8.3 -32.25 -8.15 -31.15 -8.85 -31.25 -9.15 Q-30.65 -9.45 -30.05 -9.8 L-29.45 -9.3 -29.8 -9.0 -29.55 -8.8 -29.45 -7.85 -29.85 -7.55 -29.6 -7.55 Q-29.15 -6.05 -29.2 -5.0 L-29.2 -3.8 -29.95 -3.3 -30.4 -3.3 -30.45 -4.0 -30.6 -4.1 -31.0 -4.1 -31.15 -4.5 -30.85 -5.0 -31.35 -5.3 -31.3 -5.7 Q-31.55 -5.7 -31.85 -6.05 -32.15 -6.4 -32.45 -6.35 L-32.6 -6.9 -32.15 -7.3 -32.8 -7.0 -33.5 -7.25 -33.5 -7.45 -33.8 -7.25 -34.35 -7.25 -34.7 -7.85 -34.6 -8.05 -35.0 -7.9 -35.4 -8.1 -36.3 -7.95 -36.45 -8.4 -36.55 -8.4 -37.25 -8.25 -38.85 -7.05 -40.6 -5.9 -40.6 -5.8 Q-40.5 -4.5 -41.45 -4.5 L-41.95 -4.55 -42.25 -4.25 -41.5 -3.9 -41.5 -3.45 -42.85 -2.95 -42.9 -2.95 -42.95 -2.8 -42.85 -2.7 -42.4 -2.95 -41.85 -2.35 -42.3 -1.8 -42.15 -1.5 Q-42.15 -1.0 -42.8 -0.85 L-42.3 -0.35 -42.75 0.4 -43.05 0.4 -42.3 0.9 -42.3 1.6 -43.1 1.8 -42.9 1.9 -42.95 2.3 -42.85 2.15 -42.3 2.5 -42.3 3.15 -43.0 3.35 -42.0 4.1 -42.15 4.55 -41.7 5.25 -42.0 5.6 -41.1 6.15 -41.1 6.45 -40.85 7.0 -40.2 6.6 -39.75 7.1 -39.85 7.8 -39.35 7.55 -38.45 7.8 -38.0 7.6 -37.4 8.05 -36.9 7.8 -36.2 8.3 -35.45 7.85 -34.95 8.25 -33.85 7.65 -33.6 8.1 -32.85 7.25 -32.4 7.3 -32.4 7.35 -32.15 6.4 -31.35 5.9 -30.95 6.05 -31.1 5.9 -29.7 4.6 -29.15 5.1 -29.65 6.0 -30.2 6.25 -30.1 6.55 -30.65 7.3 -31.0 7.4 Q-31.55 8.5 -32.35 8.65 L-32.65 9.1 -34.9 9.7 -34.95 9.65 -37.15 9.95 -37.35 9.35 Q-37.6 9.85 -38.35 10.0 L-38.8 9.5 -39.4 9.75 -39.85 9.25 -40.1 9.3 -41.3 8.45 -42.4 7.9 -42.4 7.3 -43.15 7.35 -43.4 6.95 -43.7 6.8 -43.7 6.65 -44.2 6.2 -44.0 5.7 -44.35 5.7 Q-44.55 5.6 -44.8 5.45 L-44.4 4.7 -44.4 4.45 -45.1 4.45 -45.05 4.0 -45.4 3.6 -44.9 3.1 -45.5 3.0 -45.5 2.45 -44.75 2.0 -44.95 1.95 -45.25 2.0 -45.5 1.5 -45.1 1.1 -45.25 0.9 -45.65 0.8 -45.9 0.0 -45.15 -0.7 -45.4 -0.6 -45.75 -1.15 -44.95 -1.65 -45.25 -1.65 -45.65 -2.25 -45.05 -2.65 -45.45 -2.95 -44.9 -3.5 -45.3 -3.9 -44.0 -4.85 -44.1 -4.9 -44.2 -5.4 -43.65 -5.85 -43.95 -6.2 -43.4 -6.85 -43.1 -6.85 Q-42.65 -6.85 -42.15 -7.1 L-42.2 -7.25 Q-41.75 -8.15 -40.85 -8.15 L-40.75 -8.15 -40.7 -8.5 M-20.65 -10.0 Q-20.15 -10.0 -19.8 -9.6 L-19.55 -9.15 -18.95 -9.65 -17.95 -9.25 -17.65 -9.4 -17.3 -9.25 -16.8 -9.35 -16.05 -8.75 -16.25 -8.35 -15.95 -8.45 -15.65 -8.15 -15.35 -8.3 -14.65 -7.8 -14.75 -7.25 -14.4 -7.45 -14.05 -6.8 -13.5 -6.6 -13.25 -5.5 -13.6 -5.25 -13.1 -4.65 Q-13.15 -4.2 -13.45 -4.1 L-13.7 -4.0 -13.25 -3.35 -13.4 -2.9 -13.9 -2.75 -13.75 -2.65 -13.75 -1.9 -14.45 -1.55 -14.5 -1.35 -15.15 -1.05 -15.35 -1.45 -15.35 -0.9 -16.05 -0.35 -16.4 -0.6 -17.2 0.1 -17.4 -0.05 -17.7 0.75 -17.0 0.75 -17.1 1.8 -17.1 1.85 -16.9 1.85 -16.35 2.35 -16.35 2.85 -17.0 3.1 -16.85 3.1 -16.65 3.05 -15.3 4.2 -15.7 4.85 -14.55 6.3 -14.95 6.75 -14.85 6.95 -14.7 6.8 -13.7 7.45 -13.5 7.35 -12.75 8.25 -12.4 7.9 -11.65 7.9 -11.4 8.4 -11.1 7.9 -10.35 8.15 -10.25 8.8 -11.0 9.5 -12.0 9.5 -12.25 9.25 -12.65 9.45 -13.05 9.3 -13.6 9.65 -14.1 9.3 -14.6 9.65 -15.1 9.3 -16.4 9.95 -16.65 9.65 -16.8 9.95 -17.55 9.95 -17.85 9.3 -16.95 8.6 -16.6 8.85 -16.1 8.35 -16.3 8.35 -17.0 7.15 -16.5 6.55 -16.9 6.85 -17.5 6.55 -17.5 5.95 -16.9 5.7 -17.15 5.4 -17.25 5.55 -18.2 4.85 -18.1 4.25 -18.2 4.05 -18.45 4.15 -19.25 3.65 -19.2 3.05 -19.25 3.15 -19.65 2.65 -19.65 1.85 -20.35 1.05 Q-20.9 1.0 -20.95 0.45 L-21.6 1.1 -21.75 1.05 Q-22.4 1.55 -22.65 1.55 L-22.65 1.95 Q-22.65 2.95 -23.0 3.55 L-22.65 3.95 -22.65 5.0 -23.05 5.35 -22.65 6.05 -23.25 6.45 Q-22.65 6.5 -22.65 7.5 L-22.65 7.75 -22.75 7.8 -21.3 7.9 -21.3 8.85 -20.7 9.05 -20.7 9.6 -21.25 10.0 -21.95 9.7 -22.05 9.45 -22.35 9.6 -22.9 9.35 -23.6 9.65 -24.0 9.4 -24.5 9.6 -25.05 9.3 -25.6 9.45 -26.0 9.3 -26.6 9.8 -27.55 8.9 -27.55 8.4 -26.7 8.1 -26.35 8.45 -26.35 8.2 -25.85 7.95 -25.7 7.65 -25.75 7.35 -24.9 6.8 -25.45 6.65 -25.4 5.5 -25.3 5.5 -25.3 5.1 -25.55 4.7 -25.1 3.95 -25.3 3.85 -25.15 3.3 -25.55 2.9 -24.9 1.9 -25.3 1.9 -25.5 1.3 -25.0 0.7 -24.6 0.7 -24.4 0.55 -25.3 0.55 -25.3 -2.2 -24.7 -2.45 -25.15 -3.05 -25.1 -3.2 -25.7 -3.7 -25.1 -4.2 -25.8 -4.65 -25.25 -5.35 -25.15 -5.3 -25.45 -5.85 -25.3 -5.85 -25.05 -5.9 -25.4 -6.3 -25.3 -6.3 -25.3 -6.5 -25.45 -6.5 -25.8 -7.1 -25.35 -7.45 -25.65 -7.6 -25.75 -8.05 -26.35 -8.4 -26.35 -8.75 -26.55 -8.45 -27.75 -8.45 -28.05 -9.15 -27.9 -9.5 -26.25 -9.9 -25.5 -9.55 -25.2 -9.85 -24.65 -9.7 -24.6 -9.55 -24.15 -9.5 -23.1 -9.8 -22.2 -9.15 -21.15 -9.65 -21.0 -9.55 -20.65 -10.0 M-22.55 0.15 L-21.95 -0.55 -21.45 -0.4 -20.95 -0.85 -20.75 -0.85 Q-20.4 -0.85 -19.95 -1.15 L-19.85 -1.1 -19.5 -1.2 -19.15 -1.1 -18.65 -1.5 -18.45 -1.5 -18.25 -1.4 Q-18.25 -1.9 -17.7 -2.1 L-17.75 -2.3 -17.75 -2.45 -17.0 -2.6 -17.4 -3.1 Q-17.4 -3.45 -17.0 -3.4 L-16.8 -3.4 -17.25 -3.65 -17.4 -4.05 Q-17.4 -4.5 -16.7 -4.6 L-16.45 -5.0 -16.9 -4.75 Q-17.4 -5.1 -17.4 -5.45 L-17.15 -5.85 -16.7 -6.05 -17.0 -6.05 -17.4 -6.75 -17.35 -6.95 -17.7 -6.95 -18.25 -7.75 -18.95 -7.75 -19.2 -8.15 Q-19.6 -7.8 -20.4 -7.8 L-20.9 -8.15 -21.25 -8.45 -21.55 -7.9 -21.8 -8.0 -22.25 -7.85 -21.95 -7.4 -22.55 -6.9 -22.4 -6.9 -22.4 -6.0 -22.9 -5.25 -22.5 -4.95 -23.05 -2.6 -22.7 -1.95 -22.95 -1.4 -22.55 -0.95 -23.05 -0.2 -23.1 -0.2 -22.95 -0.15 -22.55 0.15 -22.65 0.2 -22.55 0.2 -22.55 0.15 M-16.5 -6.0 L-16.55 -6.05 -16.65 -6.05 -16.5 -6.0" fill="#000000" fill-rule="evenodd" stroke="none"/>
  </g>
</svg>
