<?xml version="1.0" encoding="UTF-8" standalone="no"?>
<svg xmlns:xlink="http://www.w3.org/1999/xlink" height="69.0px" width="69.0px" xmlns="http://www.w3.org/2000/svg">
  <g transform="matrix(1.0, 0.0, 0.0, 1.0, 35.1, 18.65)">
    <path d="M28.8 -2.35 L28.95 -2.1 Q31.55 2.1 32.8 6.9 33.9 11.15 33.9 15.85 L33.65 20.55 Q32.2 31.85 23.8 40.25 13.7 50.35 -0.6 50.35 -14.9 50.35 -25.0 40.25 -27.5 37.75 -29.35 35.0 L-30.4 33.35 Q-33.95 27.5 -34.8 20.55 L-35.1 15.85 Q-35.1 7.8 -31.9 1.1 -29.4 -4.15 -25.0 -8.55 -21.6 -11.95 -17.7 -14.2 -10.1 -18.65 -0.6 -18.65 8.9 -18.65 16.55 -14.2 20.4 -11.95 23.8 -8.55 26.7 -5.65 28.8 -2.35" fill="#ffffff" fill-opacity="0.0" fill-rule="evenodd" stroke="none"/>
  </g>
</svg>
