<?xml version="1.0" encoding="UTF-8" standalone="no"?>
<svg xmlns:xlink="http://www.w3.org/1999/xlink" height="19.2px" width="16.15px" xmlns="http://www.w3.org/2000/svg">
  <g transform="matrix(1.0, 0.0, 0.0, 1.0, 8.05, 2.6)">
    <path d="M-7.55 16.0 L-7.55 -2.55 7.55 -2.6 7.6 16.1 4.5 16.05 -2.35 16.0 -4.6 16.05 -7.55 16.0" fill="#ffffff" fill-opacity="0.0" fill-rule="evenodd" stroke="none"/>
    <path d="M4.5 16.05 L-2.35 16.0 -4.6 16.05" fill="none" stroke="#000000" stroke-linecap="round" stroke-linejoin="round" stroke-width="1.0"/>
    <path d="M7.6 16.1 L4.5 16.05 M-4.6 16.05 L-7.55 16.0" fill="none" stroke="#000000" stroke-linecap="round" stroke-linejoin="round" stroke-width="1.0"/>
    <path d="M3.45 5.0 L2.95 4.95 Q2.65 1.7 3.05 1.0 L3.1 0.9 Q3.4 0.45 4.0 0.35 L4.5 0.25 5.2 0.4 4.1 0.7 3.55 1.05 Q3.3 1.4 3.3 2.95 L3.45 5.0 M1.45 7.85 L1.1 7.9 -0.15 8.25 Q-0.95 8.6 -1.35 9.05 -2.1 10.0 -1.55 16.0 L-2.35 16.0 Q-2.85 10.85 -2.35 9.3 L-2.2 8.9 -2.15 8.8 -1.7 8.35 Q-1.2 8.0 -0.55 7.8 L0.35 7.65 1.45 7.85 M-5.45 5.4 L-5.9 5.35 Q-6.25 1.85 -5.8 1.3 L-5.55 1.0 Q-5.3 0.7 -4.35 0.65 L-3.65 0.8 -3.7 0.8 -4.65 1.0 -5.35 1.45 Q-5.75 1.9 -5.55 5.0 L-5.45 5.4" fill="#000000" fill-opacity="0.101960786" fill-rule="evenodd" stroke="none"/>
    <path d="M5.2 0.4 Q5.65 0.65 5.75 1.4 5.95 3.15 5.8 5.05 L3.45 5.0 3.3 2.95 Q3.3 1.4 3.55 1.05 L4.1 0.7 5.2 0.4 M-1.55 16.0 Q-2.1 10.0 -1.35 9.05 -0.95 8.6 -0.15 8.25 L1.1 7.9 1.45 7.85 Q2.4 8.25 2.55 9.65 2.95 12.75 2.65 16.05 L-1.55 16.0 M-3.65 0.8 Q-3.2 1.05 -3.1 1.8 -2.95 3.55 -3.05 5.45 L-5.45 5.4 -5.55 5.0 Q-5.75 1.9 -5.35 1.45 L-4.65 1.0 -3.7 0.8 -3.65 0.8" fill="#000000" fill-opacity="0.8" fill-rule="evenodd" stroke="none"/>
    <path d="M5.2 0.4 Q5.65 0.65 5.75 1.4 5.95 3.15 5.8 5.05 L3.45 5.0 2.95 4.95 Q2.65 1.7 3.05 1.0 L3.1 0.9 Q3.4 0.45 4.0 0.35 L4.5 0.25 5.2 0.4 M2.65 16.05 Q2.95 12.75 2.55 9.65 2.4 8.25 1.45 7.85 L0.35 7.65 -0.55 7.8 Q-1.2 8.0 -1.7 8.35 L-2.15 8.8 -2.2 8.9 -2.35 9.3 Q-2.85 10.85 -2.35 16.0 M-5.45 5.4 L-5.9 5.35 Q-6.25 1.85 -5.8 1.3 L-5.55 1.0 Q-5.3 0.7 -4.35 0.65 L-3.65 0.8 Q-3.2 1.05 -3.1 1.8 -2.95 3.55 -3.05 5.45 L-5.45 5.4" fill="none" stroke="#000000" stroke-linecap="round" stroke-linejoin="round" stroke-opacity="0.4" stroke-width="1.0"/>
    <path d="M-1.55 16.0 L2.65 16.05 M-2.35 16.0 L-1.55 16.0" fill="none" stroke="#000000" stroke-linecap="round" stroke-linejoin="round" stroke-width="1.0"/>
  </g>
</svg>
