<?xml version="1.0" encoding="UTF-8" standalone="no"?>
<svg xmlns:xlink="http://www.w3.org/1999/xlink" height="66.95px" width="663.8px" xmlns="http://www.w3.org/2000/svg">
  <g transform="matrix(1.0, 0.0, 0.0, 1.0, 331.05, 60.45)">
    <path d="M261.75 5.85 L261.75 -10.5 307.25 -10.5 307.25 5.9 303.0 5.9 303.25 0.8 302.95 -4.4 Q302.65 -6.55 302.25 -6.55 L289.65 -6.55 Q289.25 -6.55 288.9 -4.4 288.6 -2.2 288.6 0.8 288.6 3.75 288.9 5.9 L278.75 5.85 279.0 0.8 278.7 -4.4 Q278.4 -6.55 278.0 -6.55 L265.4 -6.55 Q265.0 -6.55 264.65 -4.4 264.35 -2.2 264.35 0.8 264.35 3.7 264.65 5.85 L261.75 5.85 M-228.7 -15.0 L-233.7 -15.0 -233.7 4.75 -320.2 4.55 -320.2 -38.5 -309.25 -38.5 -269.9 -38.5 -228.7 -38.5 -228.7 -15.0 M-328.55 -59.95 L-328.55 4.55 -330.55 4.55 -330.55 -59.95 -328.55 -59.95 M-310.7 -16.15 Q-311.15 -12.65 -311.15 -7.65 -311.15 -2.7 -310.7 0.8 -310.2 4.3 -309.55 4.3 L-289.05 4.3 Q-288.35 4.3 -287.9 0.8 -287.4 -2.7 -287.4 -7.65 -287.4 -12.6 -287.9 -16.15 -288.35 -19.65 -289.05 -19.65 L-309.55 -19.65 Q-310.2 -19.65 -310.7 -16.15 M-265.6 -16.15 Q-266.1 -12.6 -266.1 -7.65 -266.1 -2.7 -265.6 0.8 -265.15 4.3 -264.45 4.3 L-244.0 4.3 Q-243.3 4.3 -242.8 0.8 -242.35 -2.65 -242.35 -7.65 -242.35 -12.7 -242.8 -16.15 -243.3 -19.65 -244.0 -19.65 L-264.45 -19.65 Q-265.15 -19.65 -265.6 -16.15" fill="#ffffff" fill-opacity="0.0" fill-rule="evenodd" stroke="none"/>
    <path d="M107.65 5.5 L107.7 5.1 107.7 -3.45 Q107.7 -4.1 107.3 -4.5 106.85 -4.95 106.25 -4.95 L103.2 -4.95 Q102.6 -4.95 102.15 -4.5 101.7 -4.1 101.7 -3.45 L101.7 5.1 101.75 5.45 -52.4 5.15 -52.4 -3.45 Q-52.4 -4.1 -52.85 -4.5 -53.3 -4.95 -53.9 -4.95 L-56.95 -4.95 -57.95 -4.5 Q-58.4 -4.1 -58.4 -3.45 L-58.4 5.1 -212.55 4.8 -212.55 -3.45 Q-212.55 -4.1 -213.0 -4.5 -213.45 -4.95 -214.05 -4.95 L-217.1 -4.95 Q-217.7 -4.95 -218.1 -4.5 L-218.55 -3.45 -218.55 4.75 -233.7 4.75 -233.7 -15.0 -228.7 -15.0 261.75 -15.0 261.75 -10.5 261.75 5.85 107.65 5.5" fill="#000000" fill-opacity="0.09803922" fill-rule="evenodd" stroke="none"/>
    <path d="M-309.25 -38.5 L-309.25 -46.65 -269.9 -46.65 -269.9 -38.5 -309.25 -38.5" fill="#acacac" fill-opacity="0.09803922" fill-rule="evenodd" stroke="none"/>
    <path d="M101.75 5.45 L101.7 5.1 101.7 -3.45 Q101.7 -4.1 102.15 -4.5 102.6 -4.95 103.2 -4.95 L106.25 -4.95 Q106.85 -4.95 107.3 -4.5 107.7 -4.1 107.7 -3.45 L107.7 5.1 107.65 5.5 101.75 5.45 M-218.55 4.75 L-218.55 -3.45 -218.1 -4.5 Q-217.7 -4.95 -217.1 -4.95 L-214.05 -4.95 Q-213.45 -4.95 -213.0 -4.5 -212.55 -4.1 -212.55 -3.45 L-212.55 4.8 -218.55 4.75 M-58.4 5.1 L-58.4 -3.45 Q-58.4 -4.1 -57.95 -4.5 L-56.95 -4.95 -53.9 -4.95 Q-53.3 -4.95 -52.85 -4.5 -52.4 -4.1 -52.4 -3.45 L-52.4 5.15 -58.4 5.1" fill="#000000" fill-opacity="0.2" fill-rule="evenodd" stroke="none"/>
    <path d="M325.25 5.95 L325.25 -8.15 Q325.25 -9.55 326.3 -10.6 327.35 -11.65 328.75 -11.65 330.2 -11.65 331.25 -10.6 332.25 -9.6 332.25 -8.15 L332.25 6.0 325.25 5.95" fill="#ababab" fill-opacity="0.2" fill-rule="evenodd" stroke="none"/>
    <path d="M101.75 5.45 L101.7 5.1 101.7 -3.45 Q101.7 -4.1 102.15 -4.5 102.6 -4.95 103.2 -4.95 L106.25 -4.95 Q106.85 -4.95 107.3 -4.5 107.7 -4.1 107.7 -3.45 L107.7 5.1 107.65 5.5 M-58.4 5.1 L-58.4 -3.45 Q-58.4 -4.1 -57.95 -4.5 L-56.95 -4.95 -53.9 -4.95 Q-53.3 -4.95 -52.85 -4.5 -52.4 -4.1 -52.4 -3.45 L-52.4 5.15" fill="none" stroke="#aeaeae" stroke-linecap="butt" stroke-linejoin="miter-clip" stroke-miterlimit="4.0" stroke-opacity="0.4" stroke-width="1.0"/>
    <path d="M261.75 -10.5 L261.75 -15.0 -228.7 -15.0 -233.7 -15.0 -233.7 4.75 M307.25 5.9 L307.25 -10.5 261.75 -10.5 M325.25 5.95 L325.25 -8.15 Q325.25 -9.55 326.3 -10.6 327.35 -11.65 328.75 -11.65 330.2 -11.65 331.25 -10.6 332.25 -9.6 332.25 -8.15 L332.25 6.0 M-309.25 -38.5 L-309.25 -46.65 -269.9 -46.65 -269.9 -38.5 -228.7 -38.5 -228.7 -15.0 M-320.2 4.55 L-320.2 -38.5 -309.25 -38.5" fill="none" stroke="#231f20" stroke-linecap="butt" stroke-linejoin="miter-clip" stroke-miterlimit="4.0" stroke-width="1.0"/>
    <path d="M261.75 5.85 L261.75 -10.5" fill="none" stroke="#7a7a7a" stroke-linecap="butt" stroke-linejoin="miter-clip" stroke-miterlimit="4.0" stroke-opacity="0.6" stroke-width="1.0"/>
    <path d="M-328.55 -59.95 L-328.55 4.55 -330.55 4.55 -330.55 -59.95 -328.55 -59.95" fill="none" stroke="#4c4c4c" stroke-linecap="butt" stroke-linejoin="miter-clip" stroke-miterlimit="4.0" stroke-opacity="0.6" stroke-width="1.0"/>
    <path d="M-218.55 4.75 L-218.55 -3.45 -218.1 -4.5 Q-217.7 -4.95 -217.1 -4.95 L-214.05 -4.95 Q-213.45 -4.95 -213.0 -4.5 -212.55 -4.1 -212.55 -3.45 L-212.55 4.8 M-309.25 -38.5 L-269.9 -38.5" fill="none" stroke="#737373" stroke-linecap="butt" stroke-linejoin="miter-clip" stroke-miterlimit="4.0" stroke-opacity="0.4" stroke-width="1.0"/>
    <path d="M264.65 5.85 Q264.35 3.7 264.35 0.8 264.35 -2.2 264.65 -4.4 265.0 -6.55 265.4 -6.55 L278.0 -6.55 Q278.4 -6.55 278.7 -4.4 L279.0 0.8 278.75 5.85 278.45 5.85 278.7 2.7 278.4 -0.55 Q278.15 -1.9 277.75 -1.9 L266.3 -1.9 Q265.9 -1.9 265.6 -0.55 265.35 0.75 265.35 2.7 265.35 4.55 265.6 5.85 L264.65 5.85 M288.9 5.9 Q288.6 3.75 288.6 0.8 288.6 -2.2 288.9 -4.4 289.25 -6.55 289.65 -6.55 L302.25 -6.55 Q302.65 -6.55 302.95 -4.4 L303.25 0.8 303.0 5.65 302.75 5.65 302.95 2.7 302.65 -0.55 Q302.4 -1.9 302.0 -1.9 L290.55 -1.9 Q290.15 -1.9 289.85 -0.55 289.6 0.75 289.6 2.7 289.6 4.55 289.85 5.9 L288.9 5.9" fill="#000000" fill-opacity="0.2" fill-rule="evenodd" stroke="none"/>
    <path d="M-308.1 -12.1 Q-308.7 -12.1 -309.1 -9.9 -309.55 -7.7 -309.55 -4.6 -309.55 -1.5 -309.1 0.7 -308.7 2.9 -308.1 2.9 L-289.4 2.9 Q-288.8 2.9 -288.35 0.7 -287.95 -1.5 -287.95 -4.6 -287.95 -7.7 -288.35 -9.9 -288.8 -12.1 -289.4 -12.1 L-308.1 -12.1 M-309.55 4.3 Q-310.2 4.3 -310.7 0.8 -311.15 -2.7 -311.15 -7.65 -311.15 -12.65 -310.7 -16.15 -310.2 -19.65 -309.55 -19.65 L-289.05 -19.65 Q-288.35 -19.65 -287.9 -16.15 -287.4 -12.6 -287.4 -7.65 -287.4 -2.7 -287.9 0.8 -288.35 4.3 -289.05 4.3 L-309.55 4.3 M-244.35 -12.1 L-263.0 -12.1 Q-263.65 -12.1 -264.05 -9.9 -264.5 -7.75 -264.5 -4.6 -264.5 -1.45 -264.05 0.7 -263.65 2.9 -263.0 2.9 L-244.35 2.9 Q-243.7 2.9 -243.3 0.7 -242.85 -1.45 -242.85 -4.6 -242.85 -7.75 -243.3 -9.9 -243.7 -12.1 -244.35 -12.1 M-264.45 4.3 Q-265.15 4.3 -265.6 0.8 -266.1 -2.7 -266.1 -7.65 -266.1 -12.6 -265.6 -16.15 -265.15 -19.65 -264.45 -19.65 L-244.0 -19.65 Q-243.3 -19.65 -242.8 -16.15 -242.35 -12.7 -242.35 -7.65 -242.35 -2.65 -242.8 0.8 -243.3 4.3 -244.0 4.3 L-264.45 4.3" fill="#97999c" fill-rule="evenodd" stroke="none"/>
    <path d="M278.75 5.85 L279.0 0.8 278.7 -4.4 Q278.4 -6.55 278.0 -6.55 L265.4 -6.55 Q265.0 -6.55 264.65 -4.4 264.35 -2.2 264.35 0.8 264.35 3.7 264.65 5.85 M303.0 5.65 L303.25 0.8 302.95 -4.4 Q302.65 -6.55 302.25 -6.55 L289.65 -6.55 Q289.25 -6.55 288.9 -4.4 288.6 -2.2 288.6 0.8 288.6 3.75 288.9 5.9 M-309.55 4.3 Q-310.2 4.3 -310.7 0.8 -311.15 -2.7 -311.15 -7.65 -311.15 -12.65 -310.7 -16.15 -310.2 -19.65 -309.55 -19.65 L-289.05 -19.65 Q-288.35 -19.65 -287.9 -16.15 -287.4 -12.6 -287.4 -7.65 -287.4 -2.7 -287.9 0.8 -288.35 4.3 -289.05 4.3 M-264.45 4.3 Q-265.15 4.3 -265.6 0.8 -266.1 -2.7 -266.1 -7.65 -266.1 -12.6 -265.6 -16.15 -265.15 -19.65 -264.45 -19.65 L-244.0 -19.65 Q-243.3 -19.65 -242.8 -16.15 -242.35 -12.7 -242.35 -7.65 -242.35 -2.65 -242.8 0.8 -243.3 4.3 -244.0 4.3" fill="none" stroke="#000000" stroke-linecap="butt" stroke-linejoin="miter-clip" stroke-miterlimit="4.0" stroke-opacity="0.4" stroke-width="1.0"/>
  </g>
</svg>
