<?xml version="1.0" encoding="UTF-8" standalone="no"?>
<svg xmlns:xlink="http://www.w3.org/1999/xlink" height="100.35px" width="22.05px" xmlns="http://www.w3.org/2000/svg">
  <g transform="matrix(1.0, 0.0, 0.0, 1.0, 9.75, 49.25)">
    <path d="M1.5 -41.35 L2.05 17.85 4.55 17.85 Q8.2 19.4 10.1 25.05 11.3 28.65 11.7 33.5 L11.8 47.05 Q11.85 48.45 10.85 49.45 9.85 50.4 8.5 50.45 L-5.7 50.6 Q-7.1 50.6 -8.1 49.65 -9.1 48.7 -9.1 47.3 L-9.25 32.25 Q-8.9 27.65 -7.65 24.2 -5.85 19.4 -2.6 17.9 L-1.3 17.9 -1.9 -41.3 Q-2.7 -41.5 -3.3 -41.95 -4.1 -42.6 -4.05 -43.4 -4.05 -44.65 -3.0 -46.55 -1.7 -48.75 -0.3 -48.75 1.1 -48.75 2.4 -46.6 3.6 -44.7 3.55 -43.5 3.6 -42.7 2.8 -42.05 2.25 -41.6 1.5 -41.35" fill="#ffffff" fill-opacity="0.0" fill-rule="evenodd" stroke="none"/>
    <path d="M1.5 -41.35 L2.05 17.85 4.55 17.85 Q8.2 19.4 10.1 25.05 11.3 28.65 11.7 33.5 L11.8 47.05 Q11.85 48.45 10.85 49.45 9.85 50.4 8.5 50.45 L-5.7 50.6 Q-7.1 50.6 -8.1 49.65 -9.1 48.7 -9.1 47.3 L-9.25 32.25 Q-8.9 27.65 -7.65 24.2 -5.85 19.4 -2.6 17.9 L-1.3 17.9 -1.9 -41.3 Q-2.7 -41.5 -3.3 -41.95 -4.1 -42.6 -4.05 -43.4 -4.05 -44.65 -3.0 -46.55 -1.7 -48.75 -0.3 -48.75 1.1 -48.75 2.4 -46.6 3.6 -44.7 3.55 -43.5 3.6 -42.7 2.8 -42.05 2.25 -41.6 1.5 -41.35 Z" fill="none" stroke="#000000" stroke-linecap="round" stroke-linejoin="round" stroke-width="1.0"/>
  </g>
</svg>
