<?xml version="1.0" encoding="UTF-8" standalone="no"?>
<svg xmlns:xlink="http://www.w3.org/1999/xlink" height="99.85px" width="98.65px" xmlns="http://www.w3.org/2000/svg">
  <g transform="matrix(1.0, 0.0, 0.0, 1.0, 49.3, 49.95)">
    <path d="M27.45 -17.6 L26.35 -10.4 24.6 2.3 Q24.0 7.35 24.95 10.05 25.45 11.45 26.05 11.8 L25.4 16.15 Q24.8 20.75 25.1 21.85 25.55 23.6 24.45 30.05 L24.9 33.6 Q25.45 37.45 26.05 39.25 27.0 42.1 27.0 45.9 18.1 47.7 7.15 48.7 -14.75 50.7 -25.15 46.85 -25.75 45.8 -26.15 44.35 -26.95 41.5 -26.1 39.75 -24.65 36.9 -23.25 32.6 L-24.1 30.8 Q-24.8 28.55 -24.2 26.45 -23.6 24.4 -22.2 21.75 L-20.95 19.55 -24.65 2.3 -28.9 -12.85 -33.2 -3.4 Q-35.9 -3.05 -39.25 -4.0 -45.85 -5.85 -48.8 -12.4 L-44.65 -24.25 -39.8 -37.5 Q-36.0 -44.95 -17.55 -47.85 L-16.7 -46.25 Q-15.5 -44.3 -13.8 -42.65 -8.5 -37.5 -0.5 -37.5 7.5 -37.5 11.9 -43.15 14.05 -45.95 14.65 -48.8 L19.5 -49.2 Q24.7 -49.6 26.5 -49.3 28.3 -49.0 38.7 -40.35 L48.8 -31.8 48.35 -29.4 Q47.7 -26.45 46.65 -23.85 43.35 -15.6 37.4 -13.8 L27.45 -17.6 27.95 -22.8 27.15 -30.1 27.95 -22.8 27.45 -17.6 M6.7 20.9 Q-4.8 27.05 -15.2 31.2 L-2.75 27.45 Q10.75 22.35 16.1 15.55 12.45 17.8 6.7 20.9 M9.75 10.65 Q15.25 4.35 17.5 -1.95 9.8 9.3 -4.65 17.6 -9.15 20.15 -13.8 22.15 L-17.55 23.6 Q-1.25 23.3 9.75 10.65 M-21.25 -17.55 Q-19.6 -12.9 -16.95 -8.95 -8.4 3.6 7.55 4.2 2.25 2.65 -4.15 -1.3 -16.95 -9.25 -22.3 -21.4 L-21.25 -17.55 M-32.25 -23.75 Q-31.3 -19.5 -28.9 -12.85 -31.3 -19.5 -32.25 -23.75" fill="#ffffff" fill-opacity="0.0" fill-rule="evenodd" stroke="none"/>
    <path d="M6.7 20.9 Q12.45 17.8 16.1 15.55 10.75 22.35 -2.75 27.45 L-15.2 31.2 Q-4.8 27.05 6.7 20.9 M9.75 10.65 Q-1.25 23.3 -17.55 23.6 L-13.8 22.15 Q-9.15 20.15 -4.65 17.6 9.8 9.3 17.5 -1.95 15.25 4.35 9.75 10.65 M-21.25 -17.55 L-22.3 -21.4 Q-16.95 -9.25 -4.15 -1.3 2.25 2.65 7.55 4.2 -8.4 3.6 -16.95 -8.95 -19.6 -12.9 -21.25 -17.55" fill="#000000" fill-opacity="0.14901961" fill-rule="evenodd" stroke="none"/>
    <path d="M-28.9 -12.85 Q-31.3 -19.5 -32.25 -23.75" fill="none" stroke="#000000" stroke-linecap="butt" stroke-linejoin="miter-clip" stroke-miterlimit="4.0" stroke-width="1.0"/>
    <path d="M27.45 -17.6 L26.35 -10.4 24.6 2.3 Q24.0 7.35 24.95 10.05 25.45 11.45 26.05 11.8 L25.4 16.15 Q24.8 20.75 25.1 21.85 25.55 23.6 24.45 30.05 L24.9 33.6 Q25.45 37.45 26.05 39.25 27.0 42.1 27.0 45.9 18.1 47.7 7.15 48.7 -14.75 50.7 -25.15 46.85 -25.75 45.8 -26.15 44.35 -26.95 41.5 -26.1 39.75 -24.65 36.9 -23.25 32.6 L-24.1 30.8 Q-24.8 28.55 -24.2 26.45 -23.6 24.4 -22.2 21.75 L-20.95 19.55 -24.65 2.3 -28.9 -12.85 -33.2 -3.4 Q-35.9 -3.05 -39.25 -4.0 -45.85 -5.85 -48.8 -12.4 L-44.65 -24.25 -39.8 -37.5 Q-36.0 -44.95 -17.55 -47.85 L-16.7 -46.25 Q-15.5 -44.3 -13.8 -42.65 -8.5 -37.5 -0.5 -37.5 7.5 -37.5 11.9 -43.15 14.05 -45.95 14.65 -48.8 L19.5 -49.2 Q24.7 -49.6 26.5 -49.3 28.3 -49.0 38.7 -40.35 L48.8 -31.8 48.35 -29.4 Q47.7 -26.45 46.65 -23.85 43.35 -15.6 37.4 -13.8 L27.45 -17.6" fill="none" stroke="#000000" stroke-linecap="round" stroke-linejoin="miter-clip" stroke-miterlimit="4.0" stroke-width="1.0"/>
    <path d="M27.45 -17.6 L27.95 -22.8 27.15 -30.1" fill="none" stroke="#000000" stroke-linecap="round" stroke-linejoin="miter-clip" stroke-miterlimit="4.0" stroke-width="1.0"/>
  </g>
</svg>
