<?xml version="1.0" encoding="UTF-8" standalone="no"?>
<svg xmlns:xlink="http://www.w3.org/1999/xlink" height="38.0px" width="137.1px" xmlns="http://www.w3.org/2000/svg">
  <g transform="matrix(1.0, 0.0, 0.0, 1.0, -60.25, -38.1)">
    <path d="M61.45 57.75 L60.25 58.0 62.9 57.45 61.45 57.75" fill="#ffffff" fill-rule="evenodd" stroke="none"/>
    <path d="M157.95 64.85 Q156.85 66.75 154.25 65.15 L153.35 64.35 152.3 65.05 153.15 68.3 Q153.85 74.0 150.05 74.45 146.1 74.9 146.8 69.3 147.1 66.85 147.65 65.2 L147.45 65.2 Q145.45 65.05 144.55 63.5 143.65 61.9 143.85 58.9 144.0 56.65 144.75 55.65 145.75 54.2 147.95 55.35 147.85 53.8 148.05 51.7 148.6 46.0 152.4 47.35 156.05 48.65 154.05 54.05 L153.4 55.7 155.15 55.5 Q156.35 55.55 157.15 56.2 159.0 57.55 158.7 61.8 158.55 63.8 157.95 64.85 M171.25 43.25 L171.7 42.0 172.95 38.6 193.35 38.6 Q194.8 38.6 195.8 39.3 196.85 40.0 196.85 40.95 196.85 41.9 195.8 42.6 194.8 43.25 193.35 43.25 L171.25 43.25 M153.35 64.35 L153.65 63.95 Q154.7 62.6 154.75 60.7 154.85 58.8 154.0 57.4 153.3 56.3 152.3 56.05 L153.4 55.7 152.3 56.05 Q153.3 56.3 154.0 57.4 154.85 58.8 154.75 60.7 154.7 62.6 153.65 63.95 L153.35 64.35 M152.3 65.05 L151.35 65.2 Q150.0 65.15 149.1 63.7 L148.8 63.05 Q148.1 63.8 147.65 65.2 148.1 63.8 148.8 63.05 148.25 61.85 148.35 60.4 148.45 58.5 149.45 57.2 L149.9 56.7 148.3 55.55 147.95 55.35 148.3 55.55 149.9 56.7 149.45 57.2 Q148.45 58.5 148.35 60.4 148.25 61.85 148.8 63.05 L149.1 63.7 Q150.0 65.15 151.35 65.2 L152.3 65.05 M149.9 56.7 Q150.75 55.9 151.75 55.95 L152.3 56.05 151.75 55.95 Q150.75 55.9 149.9 56.7" fill="#d6d6d6" fill-opacity="0.0" fill-rule="evenodd" stroke="none"/>
    <path d="M167.6 44.85 L167.6 47.3 169.85 47.1 168.35 75.6 Q164.75 75.6 161.6 72.15 159.05 69.35 157.95 64.85 158.55 63.8 158.7 61.8 159.0 57.55 157.15 56.2 157.2 52.45 157.85 48.1 L159.6 47.95 159.6 45.55 162.1 45.35 162.1 47.75 165.1 47.5 165.1 45.05 167.6 44.85 M162.1 47.75 L162.1 52.95 Q162.1 53.45 161.75 53.75 161.4 54.1 160.85 54.1 160.35 54.1 159.95 53.75 159.6 53.45 159.6 52.95 L159.6 47.95 159.6 52.95 Q159.6 53.45 159.95 53.75 160.35 54.1 160.85 54.1 161.4 54.1 161.75 53.75 162.1 53.45 162.1 52.95 L162.1 47.75 M165.1 47.5 L165.1 53.1 Q165.1 53.65 165.45 54.0 165.85 54.35 166.35 54.35 166.9 54.35 167.25 54.0 167.6 53.65 167.6 53.1 L167.6 47.3 167.6 53.1 Q167.6 53.65 167.25 54.0 166.9 54.35 166.35 54.35 165.85 54.35 165.45 54.0 165.1 53.65 165.1 53.1 L165.1 47.5 M137.95 47.6 L143.2 47.6 141.75 65.2 Q139.0 67.1 130.2 65.85 123.65 64.85 115.85 62.55 110.9 61.1 84.55 59.2 L61.45 57.75 62.9 57.45 72.6 55.35 74.55 54.9 Q82.4 53.05 127.35 48.6 L137.95 47.6" fill="#000000" fill-opacity="0.09803922" fill-rule="evenodd" stroke="none"/>
    <path d="M167.6 44.85 L167.6 47.3 169.85 47.1 168.35 75.6 Q164.75 75.6 161.6 72.15 159.05 69.35 157.95 64.85 156.85 66.75 154.25 65.15 L153.35 64.35 152.3 65.05 153.15 68.3 Q153.85 74.0 150.05 74.45 146.1 74.9 146.8 69.3 147.1 66.85 147.65 65.2 L147.45 65.2 Q145.45 65.05 144.55 63.5 143.65 61.9 143.85 58.9 144.0 56.65 144.75 55.65 145.75 54.2 147.95 55.35 147.85 53.8 148.05 51.7 148.6 46.0 152.4 47.35 156.05 48.65 154.05 54.05 L153.4 55.7 155.15 55.5 Q156.35 55.55 157.15 56.2 157.2 52.45 157.85 48.1 L159.6 47.95 159.6 45.55 M162.1 45.35 L162.1 47.75 165.1 47.5 165.1 45.05 M172.95 38.6 L193.35 38.6 Q194.8 38.6 195.8 39.3 196.85 40.0 196.85 40.95 196.85 41.9 195.8 42.6 194.8 43.25 193.35 43.25 L171.25 43.25 M137.95 47.6 L143.2 47.6 141.75 65.2 Q139.0 67.1 130.2 65.85 123.65 64.85 115.85 62.55 110.9 61.1 84.55 59.2 L61.45 57.75 M157.95 64.85 Q158.55 63.8 158.7 61.8 159.0 57.55 157.15 56.2" fill="none" stroke="#231f20" stroke-linecap="round" stroke-linejoin="round" stroke-opacity="0.6" stroke-width="1.0"/>
    <path d="M167.6 47.3 L167.6 53.1 Q167.6 53.65 167.25 54.0 166.9 54.35 166.35 54.35 165.85 54.35 165.45 54.0 165.1 53.65 165.1 53.1 L165.1 47.5 M159.6 47.95 L159.6 52.95 Q159.6 53.45 159.95 53.75 160.35 54.1 160.85 54.1 161.4 54.1 161.75 53.75 162.1 53.45 162.1 52.95 L162.1 47.75 M153.4 55.7 L152.3 56.05 Q153.3 56.3 154.0 57.4 154.85 58.8 154.75 60.7 154.7 62.6 153.65 63.95 L153.35 64.35 M147.65 65.2 Q148.1 63.8 148.8 63.05 148.25 61.85 148.35 60.4 148.45 58.5 149.45 57.2 L149.9 56.7 148.3 55.55 147.95 55.35 M152.3 56.05 L151.75 55.95 Q150.75 55.9 149.9 56.7 M148.8 63.05 L149.1 63.7 Q150.0 65.15 151.35 65.2 L152.3 65.05" fill="none" stroke="#000000" stroke-linecap="round" stroke-linejoin="round" stroke-opacity="0.29803923" stroke-width="1.0"/>
  </g>
</svg>
