<?xml version="1.0" encoding="UTF-8" standalone="no"?>
<svg xmlns:xlink="http://www.w3.org/1999/xlink" height="22.2px" width="13.95px" xmlns="http://www.w3.org/2000/svg">
  <g transform="matrix(1.0, 0.0, 0.0, 1.0, 6.6, 36.1)">
    <path d="M0.0 -35.6 L3.4 -24.95 -0.25 -25.85 -0.25 -25.9 0.0 -35.6 M4.8 -18.95 L4.8 -18.9 5.15 -17.75 6.6 -14.75 6.6 -15.0 6.65 -15.15 6.7 -16.15 6.8 -15.2 6.85 -15.0 6.85 -14.4 2.25 -15.6 -0.5 -16.35 -0.15 -17.9 0.0 -18.9 0.05 -18.95 0.05 -19.25 0.15 -20.95 4.65 -19.35 4.8 -18.95" fill="#000000" fill-opacity="0.3019608" fill-rule="evenodd" stroke="none"/>
    <path d="M-0.25 -25.9 L-0.3 -25.9 -2.95 -24.9 Q-0.4 -33.25 0.0 -35.6 L-0.25 -25.9 M0.15 -20.95 L0.05 -19.25 0.05 -18.95 0.0 -18.9 -0.15 -17.9 -0.5 -16.35 -0.65 -16.4 -6.1 -14.9 Q-5.0 -17.25 -4.7 -18.9 L-4.65 -19.0 -4.65 -19.2 0.15 -20.95" fill="#000000" fill-opacity="0.4" fill-rule="evenodd" stroke="none"/>
    <path d="M0.0 -35.6 L3.4 -24.95 M-2.95 -24.9 Q-0.4 -33.25 0.0 -35.6 M6.85 -14.4 L6.85 -15.0 6.8 -15.2 6.7 -16.15 6.65 -15.15 6.6 -15.0 6.6 -14.75 5.15 -17.75 4.8 -18.9 4.8 -18.95 M-4.65 -19.2 L-4.65 -19.0 -4.7 -18.9 Q-5.0 -17.25 -6.1 -14.9" fill="none" stroke="#000000" stroke-linecap="round" stroke-linejoin="round" stroke-width="1.0"/>
    <path d="M3.4 -24.95 L-0.25 -25.85 -0.25 -25.9 0.0 -35.6 M-0.3 -25.9 L-2.95 -24.9 M4.8 -18.95 L4.65 -19.35 0.15 -20.95 0.05 -19.25 0.05 -18.95 0.0 -18.9 -0.15 -17.9 -0.5 -16.35 -0.65 -16.4 -6.1 -14.9 M2.25 -15.6 L6.85 -14.4 M0.15 -20.95 L-4.65 -19.2" fill="none" stroke="#000000" stroke-linecap="round" stroke-linejoin="round" stroke-opacity="0.6" stroke-width="1.0"/>
  </g>
</svg>
