<?xml version="1.0" encoding="UTF-8" standalone="no"?>
<svg xmlns:xlink="http://www.w3.org/1999/xlink" height="289.95px" width="341.8px" xmlns="http://www.w3.org/2000/svg">
  <g transform="matrix(1.0, 0.0, 0.0, 1.0, 170.7, 144.2)">
    <path d="M142.8 -132.4 Q140.1 -133.7 137.3 -134.0 L136.3 -134.0 Q130.6 -134.0 124.4 -129.3 120.8 -126.6 114.8 -120.1 L114.4 -119.7 Q119.4 -122.0 127.7 -127.1 L128.0 -126.7 Q122.0 -121.0 117.5 -115.8 114.5 -112.4 110.7 -109.5 108.1 -107.5 103.1 -104.4 L102.1 -103.7 110.6 -103.9 111.2 -103.8 110.7 -103.4 Q108.8 -101.7 104.0 -99.5 L98.9 -96.8 93.1 -92.2 Q88.9 -88.6 86.8 -87.3 89.4 -87.6 93.9 -89.2 99.5 -91.2 102.7 -91.2 L103.8 -91.2 104.5 -91.1 103.9 -90.7 Q100.5 -88.6 96.9 -79.8 95.8 -76.9 94.8 -75.1 93.5 -72.5 89.5 -67.3 85.8 -62.5 84.4 -60.0 82.0 -55.8 81.8 -52.0 L81.3 -51.9 Q79.6 -56.4 83.0 -63.5 78.6 -57.1 76.4 -51.7 74.9 -47.6 73.1 -44.2 71.9 -39.9 69.4 -37.9 L75.2 -38.7 74.9 -38.2 Q73.4 -36.3 71.2 -34.5 66.9 -31.0 62.7 -30.8 58.0 -30.7 52.5 -24.3 47.4 -18.3 44.8 -10.9 L48.6 -10.6 Q56.0 -10.6 61.2 -14.6 67.2 -19.3 71.5 -24.2 L72.0 -23.9 Q68.9 -20.2 61.4 -14.4 56.7 -10.8 50.1 -10.4 L44.5 -10.7 Q47.1 -18.1 52.3 -24.3 57.9 -30.9 62.7 -31.1 66.9 -31.2 71.2 -34.8 73.4 -36.6 74.7 -38.4 L68.5 -37.5 Q72.4 -40.1 73.5 -47.3 L73.7 -54.0 Q71.6 -62.8 80.3 -72.0 84.6 -76.6 89.3 -79.5 L80.8 -76.5 Q77.4 -86.1 85.1 -93.1 89.0 -96.7 93.5 -98.3 L85.7 -98.0 Q86.6 -102.9 95.5 -108.6 99.9 -111.5 104.2 -113.4 98.6 -114.3 96.1 -119.5 L94.6 -124.4 Q98.3 -119.4 107.0 -122.2 116.1 -125.0 124.6 -134.7 130.4 -141.3 136.2 -143.0 141.0 -144.5 147.2 -142.8 145.2 -136.9 143.5 -133.8 L142.8 -132.4 M71.55 -21.55 L71.5 -20.6 Q71.5 -18.0 72.6 -14.3 73.6 -15.5 76.4 -20.0 79.7 -25.2 82.0 -33.4 84.0 -40.7 84.3 -46.9 L85.1 -52.4 85.3 -52.3 85.6 -52.3 Q85.2 -50.6 85.8 -47.3 86.8 -42.1 90.7 -39.0 L90.1 -40.7 Q89.4 -45.0 94.0 -51.6 99.3 -58.9 101.7 -70.2 103.8 -80.4 102.1 -83.8 L102.0 -83.9 102.1 -84.0 104.3 -87.0 Q107.4 -90.0 113.1 -90.4 L114.1 -90.5 Q120.0 -90.9 121.5 -92.8 123.0 -94.6 125.8 -105.2 128.3 -114.1 138.45 -119.05 L138.4 -118.8 Q128.4 -113.7 126.1 -105.2 123.2 -94.2 121.5 -92.4 120.0 -90.7 113.2 -90.1 107.6 -89.7 104.4 -86.7 L102.3 -83.9 Q104.1 -80.5 101.9 -70.2 99.5 -58.9 94.2 -51.4 89.9 -45.4 90.3 -41.3 90.5 -39.0 92.2 -37.7 87.0 -40.8 85.6 -46.9 L85.3 -52.3 84.5 -46.8 Q84.3 -40.8 82.2 -33.5 80.0 -25.2 76.6 -19.9 L72.8 -14.0 72.5 -13.9 Q71.3 -18.1 71.5 -21.4 L71.55 -21.55 M149.3 -125.75 Q149.65 -131.55 149.1 -142.2 L157.1 -139.4 Q164.7 -136.6 167.0 -127.2 168.2 -122.5 167.9 -118.4 L170.2 -108.2 162.9 -119.2 163.2 -113.6 159.1 -120.4 158.7 -111.5 155.2 -120.0 Q154.3 -122.4 148.8 -121.9 L148.95 -122.65 148.9 -122.2 150.9 -122.2 149.3 -125.75 M-106.3 23.4 Q-115.5 23.2 -120.2 23.3 -125.2 23.3 -128.2 24.3 -132.3 25.5 -134.8 28.9 -143.3 40.0 -135.2 56.1 -130.3 65.8 -117.2 80.2 -109.9 88.2 -108.0 92.9 L-114.5 97.0 -117.4 98.6 -121.6 104.0 Q-122.4 109.3 -113.6 126.8 -117.7 138.6 -130.7 142.3 -134.7 143.5 -139.2 143.7 L-142.8 143.7 Q-138.1 139.8 -135.4 132.9 L-133.7 126.8 Q-137.4 132.9 -141.4 134.7 L-144.7 135.3 Q-131.0 127.0 -138.4 106.9 -143.5 92.9 -158.2 74.5 -163.1 68.3 -166.5 59.6 -170.1 50.4 -170.2 42.9 -170.3 30.6 -162.7 19.8 -155.6 9.7 -144.0 3.9 -132.2 -1.9 -120.3 -1.2 -107.3 -0.4 -97.9 8.0 -103.2 14.8 -106.3 23.4 M-154.2 18.4 Q-167.7 30.9 -160.0 52.1 -152.2 73.4 -140.9 90.9 L-137.0 96.6 Q-142.9 88.0 -147.8 76.1 -154.1 60.8 -156.9 44.7 L-158.4 35.8 Q-159.1 30.4 -158.2 26.9 -156.7 21.7 -150.4 16.9 -146.5 13.9 -139.2 10.2 -147.5 12.2 -154.2 18.4" fill="#ffffff" fill-opacity="0.0" fill-rule="evenodd" stroke="none"/>
    <path d="M72.0 -23.9 L71.5 -24.2 Q67.2 -19.3 61.2 -14.6 56.0 -10.6 48.6 -10.6 L44.8 -10.9 Q47.4 -18.3 52.5 -24.3 58.0 -30.7 62.7 -30.8 66.9 -31.0 71.2 -34.5 73.4 -36.3 74.9 -38.2 L75.2 -38.7 69.4 -37.9 Q71.9 -39.9 73.1 -44.2 74.9 -47.6 76.4 -51.7 78.6 -57.1 83.0 -63.5 79.6 -56.4 81.3 -51.9 L81.8 -52.0 Q82.0 -55.8 84.4 -60.0 85.8 -62.5 89.5 -67.3 93.5 -72.5 94.8 -75.1 95.8 -76.9 96.9 -79.8 100.5 -88.6 103.9 -90.7 L104.5 -91.1 103.8 -91.2 102.7 -91.2 Q99.5 -91.2 93.9 -89.2 89.4 -87.6 86.8 -87.3 88.9 -88.6 93.1 -92.2 L98.9 -96.8 104.0 -99.5 Q108.8 -101.7 110.7 -103.4 L111.2 -103.8 110.6 -103.9 102.1 -103.7 103.1 -104.4 Q108.1 -107.5 110.7 -109.5 114.5 -112.4 117.5 -115.8 122.0 -121.0 128.0 -126.7 L127.7 -127.1 Q119.4 -122.0 114.4 -119.7 L114.8 -120.1 Q120.8 -126.6 124.4 -129.3 130.6 -134.0 136.3 -134.0 L137.3 -134.0 Q140.1 -133.7 142.8 -132.4 L141.4 -129.2 140.2 -125.9 Q139.5 -123.7 138.95 -121.2 L138.8 -120.65 138.5 -119.1 138.45 -119.05 Q128.3 -114.1 125.8 -105.2 123.0 -94.6 121.5 -92.8 120.0 -90.9 114.1 -90.5 L113.1 -90.4 Q107.4 -90.0 104.3 -87.0 L102.1 -84.0 102.0 -83.9 102.1 -83.8 Q103.8 -80.4 101.7 -70.2 99.3 -58.9 94.0 -51.6 89.4 -45.0 90.1 -40.7 L90.7 -39.0 Q86.8 -42.1 85.8 -47.3 85.2 -50.6 85.6 -52.3 L85.3 -52.3 85.1 -52.4 84.3 -46.9 Q84.0 -40.7 82.0 -33.4 79.7 -25.2 76.4 -20.0 73.6 -15.5 72.6 -14.3 71.5 -18.0 71.5 -20.6 L71.55 -21.55 71.8 -23.5 72.0 -23.9 M149.3 -125.75 L150.9 -122.2 148.9 -122.2 148.95 -122.65 149.2 -125.9 149.3 -125.75 M-154.2 18.4 Q-147.5 12.2 -139.2 10.2 -146.5 13.9 -150.4 16.9 -156.7 21.7 -158.2 26.9 -159.1 30.4 -158.4 35.8 L-156.9 44.7 Q-154.1 60.8 -147.8 76.1 -142.9 88.0 -137.0 96.6 L-140.9 90.9 Q-152.2 73.4 -160.0 52.1 -167.7 30.9 -154.2 18.4" fill="#000000" fill-opacity="0.14901961" fill-rule="evenodd" stroke="none"/>
    <path d="M138.95 -121.2 Q139.5 -123.7 140.2 -125.9 M142.8 -132.4 L143.5 -133.8 Q145.2 -136.9 147.2 -142.8 141.0 -144.5 136.2 -143.0 130.4 -141.3 124.6 -134.7 116.1 -125.0 107.0 -122.2 98.3 -119.4 94.6 -124.4 L96.1 -119.5 Q98.6 -114.3 104.2 -113.4 99.9 -111.5 95.5 -108.6 86.6 -102.9 85.7 -98.0 L93.5 -98.3 Q89.0 -96.7 85.1 -93.1 77.4 -86.1 80.8 -76.5 L89.3 -79.5 Q84.6 -76.6 80.3 -72.0 71.6 -62.8 73.7 -54.0 L73.5 -47.3 Q72.4 -40.1 68.5 -37.5 L74.7 -38.4 Q73.4 -36.6 71.2 -34.8 66.9 -31.2 62.7 -31.1 57.9 -30.9 52.3 -24.3 47.1 -18.1 44.5 -10.7 L50.1 -10.4 Q56.7 -10.8 61.4 -14.4 68.9 -20.2 72.0 -23.9 M148.95 -122.65 L148.8 -121.9 Q154.3 -122.4 155.2 -120.0 L158.7 -111.5 159.1 -120.4 163.2 -113.6 162.9 -119.2 170.2 -108.2 167.9 -118.4 Q168.2 -122.5 167.0 -127.2 164.7 -136.6 157.1 -139.4 L149.1 -142.2 Q149.65 -131.55 149.3 -125.75 M85.3 -52.3 L85.6 -46.9 Q87.0 -40.8 92.2 -37.7 90.5 -39.0 90.3 -41.3 89.9 -45.4 94.2 -51.4 99.5 -58.9 101.9 -70.2 104.1 -80.5 102.3 -83.9 L104.4 -86.7 Q107.6 -89.7 113.2 -90.1 120.0 -90.7 121.5 -92.4 123.2 -94.2 126.1 -105.2 128.4 -113.7 138.4 -118.8 L138.45 -119.05 M71.55 -21.55 L71.5 -21.4 Q71.3 -18.1 72.5 -13.9 L72.8 -14.0 76.6 -19.9 Q80.0 -25.2 82.2 -33.5 84.3 -40.8 84.5 -46.8 L85.3 -52.3 M-106.3 23.4 Q-103.2 14.8 -97.9 8.0 -107.3 -0.4 -120.3 -1.2 -132.2 -1.9 -144.0 3.9 -155.6 9.7 -162.7 19.8 -170.3 30.6 -170.2 42.9 -170.1 50.4 -166.5 59.6 -163.1 68.3 -158.2 74.5 -143.5 92.9 -138.4 106.9 -131.0 127.0 -144.7 135.3 L-141.4 134.7 Q-137.4 132.9 -133.7 126.8 L-135.4 132.9 Q-138.1 139.8 -142.8 143.7 L-139.2 143.7 Q-134.7 143.5 -130.7 142.3 -117.7 138.6 -113.6 126.8 -122.4 109.3 -121.6 104.0 L-117.4 98.6 -114.5 97.0 -108.0 92.9 Q-109.9 88.2 -117.2 80.2 -130.3 65.8 -135.2 56.1 -143.3 40.0 -134.8 28.9 -132.3 25.5 -128.2 24.3 -125.2 23.3 -120.2 23.3 -115.5 23.2 -106.3 23.4" fill="none" stroke="#000000" stroke-linecap="butt" stroke-linejoin="miter-clip" stroke-miterlimit="4.0" stroke-width="1.0"/>
    <path d="M-143.7 55.6 Q-139.0 61.5 -133.6 70.2 -122.8 87.6 -119.6 101.8 L-121.3 104.0 Q-121.8 107.6 -118.5 115.6 -119.5 126.5 -127.0 133.3 -123.1 126.6 -123.2 113.6 -123.5 87.5 -143.7 55.6" fill="#000000" fill-opacity="0.14901961" fill-rule="evenodd" stroke="none"/>
  </g>
</svg>
