<?xml version="1.0" encoding="UTF-8" standalone="no"?>
<svg xmlns:xlink="http://www.w3.org/1999/xlink" height="142.85px" width="86.2px" xmlns="http://www.w3.org/2000/svg">
  <g transform="matrix(1.0, 0.0, 0.0, 1.0, 64.85, 66.05)">
    <path d="M-3.1 -65.45 L-3.15 -65.4 -3.4 -65.5 -3.1 -65.45 M18.1 47.8 L18.1 47.6 18.15 47.8 18.1 47.8 M14.15 -51.8 L14.15 -51.9 14.15 -52.45 14.25 -51.9 14.25 -51.85 14.15 -51.8 M20.1 65.85 L20.85 65.05 19.7 66.4 16.85 69.1 16.95 69.0 17.75 68.3 20.1 65.85 M-29.15 -59.95 L-28.3 -60.4 -28.35 -60.3 -29.15 -59.95 M-32.75 67.55 L-30.15 67.55 -32.75 67.6 -32.75 67.55" fill="#bababa" fill-rule="evenodd" stroke="none"/>
    <path d="M11.5 46.95 L11.75 47.0 11.5 47.0 11.5 46.95 M16.95 69.0 L20.1 65.85 17.75 68.3 16.95 69.0" fill="#949494" fill-rule="evenodd" stroke="none"/>
    <path d="M2.0 -64.65 L1.35 -64.8 -0.25 -65.15 2.0 -64.65 M11.75 46.95 L11.75 47.0 11.5 46.95 11.75 46.95 M13.85 -58.95 Q10.85 -61.1 8.1 -62.5 10.35 -61.4 12.5 -59.9 L12.8 -59.7 13.85 -58.95 M-2.6 -65.45 L-2.0 -65.4 -1.9 -65.4 -2.6 -65.45 M-3.45 -65.4 L-3.4 -65.5 -3.5 -65.25 -3.45 -65.4 M-45.0 -44.4 L-44.95 -44.4 Q-42.45 -45.75 -40.1 -46.2 -42.55 -45.65 -45.0 -44.4" fill="#e0e0e0" fill-rule="evenodd" stroke="none"/>
    <path d="M-8.5 37.85 L-8.05 37.65 -8.35 38.4 -8.5 37.85" fill="#b2b2b2" fill-rule="evenodd" stroke="none"/>
    <path d="M8.85 73.9 Q11.8 72.7 14.45 70.95 L16.95 69.0 16.85 69.1 16.3 69.55 14.45 70.95 Q11.75 72.8 8.85 73.95 L8.85 73.9" fill="#ababab" fill-rule="evenodd" stroke="none"/>
    <path d="M-8.35 38.4 L-8.5 37.85 -8.35 38.4" fill="#666666" fill-rule="evenodd" stroke="none"/>
    <path d="M-12.7 46.55 L-13.05 45.45 -13.0 45.45 Q-12.95 46.3 -12.7 46.55" fill="#4f4f4f" fill-rule="evenodd" stroke="none"/>
    <path d="M11.5 47.0 L11.35 53.05 Q11.0 66.0 10.5 69.4 L10.2 70.75 Q9.7 72.45 8.85 73.9 L8.85 73.95 5.35 75.05 Q-3.75 77.35 -17.25 75.45 -32.2 73.35 -30.15 67.55 -29.7 64.4 -29.9 54.75 -30.05 46.7 -30.65 34.1 L-29.5 34.85 Q-27.5 35.95 -25.85 35.75 -25.55 35.7 -21.75 36.9 L-18.35 37.95 -12.55 39.8 -12.8 41.45 Q-13.1 44.15 -13.0 45.45 L-13.05 45.45 -12.7 46.55 Q-11.95 47.3 -9.95 47.15 -8.0 47.0 -7.35 46.3 L-7.35 45.85 -7.45 44.6 -7.65 42.3 -7.8 41.35 -6.6 41.75 -5.0 42.3 -1.45 43.4 -1.4 43.45 11.3 46.9 11.5 46.95 11.5 47.0" fill="#000000" fill-opacity="0.2" fill-rule="evenodd" stroke="none"/>
    <path d="M-3.15 -65.4 L2.15 -63.7 Q7.9 -61.45 8.85 -58.95 L9.3 -44.9 Q9.4 -29.75 7.85 -24.45 L6.55 -17.25 Q5.65 -8.15 7.85 1.55 10.05 11.25 11.15 33.1 L11.6 42.3 11.75 46.95 11.5 46.95 11.3 46.9 -1.4 43.45 -1.45 43.4 -5.0 42.3 -6.6 41.75 -7.8 41.35 -8.35 38.4 -8.05 37.65 -8.0 37.55 Q-7.65 37.2 -7.65 36.75 L-7.65 35.15 Q-7.65 34.65 -8.0 34.35 -8.35 34.0 -8.8 34.0 L-9.2 34.0 -10.1 29.25 -10.6 25.9 Q-12.05 16.05 -13.7 -0.75 -16.0 -24.2 -10.0 -46.95 -8.15 -54.1 -5.65 -60.35 L-3.5 -65.25 -3.4 -65.5 -3.15 -65.4 M-12.55 39.8 L-18.35 37.95 -21.75 36.9 Q-25.55 35.7 -25.85 35.75 -27.5 35.95 -29.5 34.85 L-30.65 34.1 -31.0 27.65 -31.6 16.7 -33.65 -14.45 Q-33.1 -1.25 -33.85 16.3 -34.15 24.05 -34.75 32.65 L-35.5 42.85 -36.15 50.9 Q-36.95 59.3 -37.9 67.4 L-37.35 67.45 -39.0 67.3 Q-48.5 66.3 -51.65 62.55 -57.25 44.8 -61.0 24.05 -68.5 -17.45 -59.15 -32.45 -56.75 -35.35 -53.4 -38.35 L-52.4 -39.25 Q-48.5 -42.65 -44.95 -44.4 L-45.0 -44.4 Q-48.2 -37.9 -47.65 -27.35 -47.0 -13.8 -44.25 18.8 L-43.65 25.95 -43.65 26.0 Q-44.05 26.0 -44.35 26.35 -44.7 26.65 -44.7 27.15 L-44.7 28.75 Q-44.7 29.2 -44.35 29.55 -44.05 29.85 -43.65 29.85 L-44.15 33.45 Q-44.45 36.15 -44.35 37.45 -44.3 38.3 -44.05 38.55 -43.35 39.25 -41.3 39.15 -39.35 39.0 -38.65 38.3 L-39.1 33.2 Q-39.4 31.25 -39.85 29.85 L-39.35 29.55 Q-39.0 29.2 -39.0 28.75 L-39.0 27.15 Q-39.0 26.65 -39.35 26.35 -39.65 26.0 -40.15 26.0 L-40.65 26.0 -40.7 25.65 -41.4 16.95 Q-44.05 -14.3 -44.7 -27.5 -45.1 -36.15 -42.9 -41.75 L-40.5 -45.65 -40.1 -46.2 -38.15 -46.45 -37.05 -38.85 Q-35.6 -30.45 -34.15 -26.25 -34.0 -32.8 -33.15 -40.35 -31.55 -55.35 -28.35 -60.3 L-25.1 -61.85 Q-20.0 -63.9 -14.75 -64.9 L-14.3 -64.95 -13.95 -65.05 -13.75 -65.05 -13.5 -65.1 -6.75 -65.4 Q-11.0 -56.35 -13.85 -44.0 -18.8 -22.4 -16.65 -0.45 -15.2 14.55 -13.9 23.8 L-12.2 34.0 -12.25 34.0 Q-12.75 34.0 -13.05 34.35 -13.4 34.65 -13.4 35.15 L-13.4 36.75 -13.05 37.55 Q-12.75 37.85 -12.3 37.85 L-12.55 39.8 M-55.65 -30.7 L-56.2 -27.25 Q-58.4 -10.5 -53.5 25.3 -50.75 45.2 -47.4 61.8 -54.25 13.35 -55.65 -13.5 -56.1 -21.9 -55.9 -27.15 L-55.65 -30.7 M-61.8 -20.4 Q-62.5 -17.35 -62.75 -12.9 -63.6 1.35 -59.85 24.05 -61.85 -11.95 -61.15 -22.6 L-61.8 -20.4" fill="#ffffff" fill-opacity="0.0" fill-rule="evenodd" stroke="none"/>
    <path d="M1.35 -64.8 L2.0 -64.65 Q5.15 -63.9 8.1 -62.5 10.85 -61.1 13.85 -58.95 L14.15 -52.45 14.15 -51.9 14.15 -51.8 14.05 -43.35 13.35 -35.45 Q12.2 -25.95 15.25 15.0 L15.9 23.5 Q17.05 37.9 18.1 47.6 L18.1 47.8 11.75 47.0 11.75 46.95 11.6 42.3 11.15 33.1 Q10.05 11.25 7.85 1.55 5.65 -8.15 6.55 -17.25 L7.85 -24.45 Q9.4 -29.75 9.3 -44.9 L8.85 -58.95 Q7.9 -61.45 2.15 -63.7 L-3.15 -65.4 -3.1 -65.45 -2.55 -65.4 -1.9 -65.35 1.35 -64.8 M-30.65 34.1 Q-30.05 46.7 -29.9 54.75 -29.7 64.4 -30.15 67.55 L-32.75 67.55 -37.35 67.45 -37.9 67.4 Q-36.95 59.3 -36.15 50.9 L-35.5 42.85 -34.75 32.65 Q-34.15 24.05 -33.85 16.3 -33.1 -1.25 -33.65 -14.45 L-31.6 16.7 -31.0 27.65 -30.65 34.1 M-38.15 -46.45 L-38.05 -46.85 Q-37.65 -49.2 -36.45 -51.9 -33.85 -57.75 -29.15 -59.95 L-28.35 -60.3 Q-31.55 -55.35 -33.15 -40.35 -34.0 -32.8 -34.15 -26.25 -35.6 -30.45 -37.05 -38.85 L-38.15 -46.45 M-61.8 -20.4 L-61.15 -22.6 Q-61.85 -11.95 -59.85 24.05 -63.6 1.35 -62.75 -12.9 -62.5 -17.35 -61.8 -20.4" fill="#000000" fill-opacity="0.101960786" fill-rule="evenodd" stroke="none"/>
    <path d="M11.75 47.0 L18.1 47.8 18.15 47.8 Q19.45 59.95 20.75 64.6 L20.75 64.7 20.8 64.8 20.85 65.05 20.1 65.85 16.95 69.0 14.45 70.95 Q11.8 72.7 8.85 73.9 9.7 72.45 10.2 70.75 L10.5 69.4 Q11.0 66.0 11.35 53.05 L11.5 47.0 11.75 47.0 M-55.65 -30.7 L-55.9 -27.15 Q-56.1 -21.9 -55.65 -13.5 -54.25 13.35 -47.4 61.8 -50.75 45.2 -53.5 25.3 -58.4 -10.5 -56.2 -27.25 L-55.65 -30.7" fill="#000000" fill-opacity="0.3019608" fill-rule="evenodd" stroke="none"/>
    <path d="M18.1 47.6 Q17.05 37.9 15.9 23.5 L15.25 15.0 Q12.2 -25.95 13.35 -35.45 L14.05 -43.35 14.15 -51.8 14.15 -51.9 M14.25 -51.85 L14.15 -51.8 M16.95 69.0 L20.1 65.85 20.85 65.05 20.8 64.8 M-30.15 67.55 Q-32.2 73.35 -17.25 75.45 -3.75 77.35 5.35 75.05 L8.85 73.95 Q11.75 72.8 14.45 70.95 L16.3 69.55 16.85 69.1 16.95 69.0 M18.15 47.8 L18.1 47.6 M-28.35 -60.3 L-25.1 -61.85 Q-20.0 -63.9 -14.75 -64.9 L-14.3 -64.95 -13.95 -65.05 -13.75 -65.05 -13.5 -65.1 -6.75 -65.4 M-29.15 -59.95 Q-33.85 -57.75 -36.45 -51.9 -37.65 -49.2 -38.05 -46.85 L-38.15 -46.45 -40.1 -46.2 Q-42.45 -45.75 -44.95 -44.4 -48.5 -42.65 -52.4 -39.25 L-53.4 -38.35 Q-56.75 -35.35 -59.15 -32.45 -68.5 -17.45 -61.0 24.05 -57.25 44.8 -51.65 62.55 -48.5 66.3 -39.0 67.3 L-37.35 67.45 -32.75 67.55 -30.15 67.55 M-28.35 -60.3 L-29.15 -59.95 M-2.6 -65.45 L-2.0 -65.4 -1.9 -65.4 -2.6 -65.45 -3.1 -65.5 -3.4 -65.5" fill="none" stroke="#171717" stroke-linecap="round" stroke-linejoin="round" stroke-width="1.0"/>
    <path d="M-3.45 -65.4 L-3.5 -65.25 M-45.0 -44.4 Q-42.55 -45.65 -40.1 -46.2" fill="none" stroke="#000000" stroke-linecap="round" stroke-linejoin="round" stroke-width="1.0"/>
    <path d="M1.35 -64.8 L-1.9 -65.35 -2.55 -65.4 -3.1 -65.45 -3.4 -65.5 M14.15 -51.9 L14.15 -52.45 13.85 -58.95 12.8 -59.7 12.5 -59.9 Q10.35 -61.4 8.1 -62.5 5.15 -63.9 2.0 -64.65 L-0.25 -65.15 1.35 -64.8 M20.8 64.8 L20.75 64.7 20.75 64.6 Q19.45 59.95 18.15 47.8" fill="none" stroke="#000000" stroke-linecap="round" stroke-linejoin="round" stroke-opacity="0.6" stroke-width="1.0"/>
  </g>
</svg>
