<?xml version="1.0" encoding="UTF-8" standalone="no"?>
<svg xmlns:xlink="http://www.w3.org/1999/xlink" height="30.45px" width="77.65px" xmlns="http://www.w3.org/2000/svg">
  <g transform="matrix(1.0, 0.0, 0.0, 1.0, 38.65, 9.15)">
    <path d="M3.4 -6.8 Q6.95 -8.5 18.15 -8.65 29.35 -8.85 34.4 -4.1 39.05 0.25 38.35 1.1 29.2 12.0 17.7 8.7 L17.35 11.15 Q17.45 11.55 16.65 13.6 15.85 15.65 12.95 17.6 L8.5 20.35 Q6.9 21.2 3.0 20.4 1.3 20.0 0.2 18.8 -0.95 20.05 -2.7 20.4 -6.6 21.2 -8.2 20.35 L-12.65 17.6 Q-15.55 15.65 -16.35 13.6 L-17.05 11.15 -17.4 8.75 -17.4 8.7 Q-28.9 12.0 -38.05 1.1 -38.75 0.25 -34.1 -4.1 -29.05 -8.85 -17.85 -8.65 -6.7 -8.5 -3.1 -6.8 -4.2 -5.2 -3.35 -2.15 L-3.35 -2.1 -1.85 -0.7 Q-2.75 3.2 0.3 5.25 3.15 2.85 1.75 -0.75 L3.9 -2.1 3.85 -2.15 Q4.7 -5.2 3.4 -6.8 M-2.45 11.05 L-2.6 10.3 Q-2.7 8.75 -1.9 7.45 -2.7 8.75 -2.6 10.3 L-2.45 11.05 M-1.8 14.1 Q-1.3 17.15 0.2 18.8 -1.3 17.15 -1.8 14.1" fill="#ffffff" fill-opacity="0.0" fill-rule="evenodd" stroke="none"/>
    <path d="M3.4 -6.8 Q6.95 -8.5 18.15 -8.65 29.35 -8.85 34.4 -4.1 39.05 0.25 38.35 1.1 29.2 12.0 17.7 8.7 L17.35 11.15 Q17.45 11.55 16.65 13.6 15.85 15.65 12.95 17.6 L8.5 20.35 Q6.9 21.2 3.0 20.4 1.3 20.0 0.2 18.8 -0.95 20.05 -2.7 20.4 -6.6 21.2 -8.2 20.35 L-12.65 17.6 Q-15.55 15.65 -16.35 13.6 L-17.05 11.15 -17.4 8.75 -17.4 8.7 Q-28.9 12.0 -38.05 1.1 -38.75 0.25 -34.1 -4.1 -29.05 -8.85 -17.85 -8.65 -6.7 -8.5 -3.1 -6.8 M38.45 1.0 L38.4 1.0 38.4 1.05 38.45 1.0 38.5 0.95 38.4 1.0" fill="none" stroke="#000000" stroke-linecap="round" stroke-linejoin="round" stroke-width="1.0"/>
    <path d="M-1.9 7.45 Q-2.7 8.75 -2.6 10.3 L-2.45 11.05 M0.2 18.8 Q-1.3 17.15 -1.8 14.1" fill="none" stroke="#000000" stroke-linecap="round" stroke-linejoin="round" stroke-opacity="0.4" stroke-width="1.0"/>
    <path d="M3.4 -6.75 Q4.7 -5.2 3.85 -2.15 L11.85 7.05 Q13.35 8.75 17.7 8.7 M1.75 -0.75 Q3.15 2.85 0.3 5.25 -1.2 6.25 -1.9 7.45 M-3.1 -6.8 Q-4.2 -5.2 -3.35 -2.15 L-11.35 7.05 Q-12.85 8.75 -17.2 8.7 M-2.45 11.05 L-1.8 14.1 M0.3 5.25 Q-2.75 3.2 -1.85 -0.7" fill="none" stroke="#000000" stroke-linecap="round" stroke-linejoin="round" stroke-opacity="0.4" stroke-width="1.0"/>
  </g>
</svg>
