<?xml version="1.0" encoding="UTF-8" standalone="no"?>
<svg xmlns:xlink="http://www.w3.org/1999/xlink" height="16.6px" width="43.2px" xmlns="http://www.w3.org/2000/svg">
  <g transform="matrix(1.0, 0.0, 0.0, 1.0, 21.6, 4.15)">
    <path d="M21.1 -0.35 Q21.1 0.55 18.6 1.3 L15.95 6.15 Q14.8 8.25 12.35 9.95 0.25 13.95 -12.4 9.95 -14.75 8.3 -15.75 6.3 L-18.25 1.35 Q-21.1 0.6 -21.1 -0.35 -21.1 -1.7 -14.9 -2.65 L-13.8 -2.8 0.0 -3.65 13.75 -2.8 14.9 -2.65 Q21.1 -1.7 21.1 -0.35" fill="none" stroke="#000000" stroke-linecap="round" stroke-linejoin="round" stroke-width="1.0"/>
    <path d="M18.6 1.3 L16.4 1.8 16.25 1.8 14.9 2.0 0.0 2.95 -14.9 2.0 -16.15 1.8 -16.25 1.8 -16.45 1.75 -18.25 1.35" fill="none" stroke="#000000" stroke-linecap="round" stroke-linejoin="round" stroke-opacity="0.4" stroke-width="1.0"/>
    <path d="M10.75 -2.1 Q15.2 -1.4 15.2 -0.4 L15.2 -0.35 Q15.05 0.65 10.75 1.3 L0.0 2.0 -10.75 1.3 Q-15.05 0.65 -15.2 -0.3 L-15.2 -0.4 Q-15.2 -1.4 -10.75 -2.1 L0.0 -2.8 10.75 -2.1 Z" fill="none" stroke="#000000" stroke-linecap="round" stroke-linejoin="round" stroke-opacity="0.14901961" stroke-width="1.0"/>
  </g>
</svg>
