<?xml version="1.0" encoding="UTF-8" standalone="no"?>
<svg xmlns:xlink="http://www.w3.org/1999/xlink" height="128.8px" width="174.5px" xmlns="http://www.w3.org/2000/svg">
  <g transform="matrix(1.0, 0.0, 0.0, 1.0, 95.65, 111.55)">
    <path d="M63.4 -9.7 Q63.55 -12.65 59.6 -13.45 63.7 -14.95 66.1 -16.9 L70.3 -16.25 75.2 -14.9 Q77.35 -14.15 78.35 -13.15 75.8 -13.35 73.45 -13.15 L67.8 -12.15 Q65.95 -11.65 64.6 -10.7 L63.4 -9.7 M59.6 -13.45 Q66.6 -15.05 78.35 -13.15 66.6 -15.05 59.6 -13.45" fill="#ffffff" fill-opacity="0.6" fill-rule="evenodd" stroke="none"/>
    <path d="M63.4 -9.7 L63.5 -9.6 60.9 -7.9 58.45 -5.75 Q57.05 -3.95 52.6 -0.05 46.65 5.1 39.55 9.9 L36.5 11.6 33.1 12.85 28.3 14.15 25.4 14.8 16.1 16.4 11.95 16.75 1.4 16.2 -5.85 15.0 Q-11.4 13.7 -18.2 11.0 L-19.95 10.3 -26.95 6.45 Q-32.85 2.9 -37.05 -0.6 L-40.0 -3.1 -53.35 -2.55 -67.5 -1.65 -80.2 -0.75 -89.9 -0.15 -94.85 0.05 Q-95.15 0.0 -95.15 -0.1 L-94.25 -1.5 -92.35 -3.85 -90.3 -6.3 Q-89.5 -7.4 -89.45 -7.9 -89.5 -8.5 -90.65 -9.55 L-92.9 -11.45 Q-93.85 -12.35 -93.7 -12.7 L-90.3 -12.8 -82.05 -12.5 -70.65 -11.75 -58.3 -10.9 -46.85 -10.1 -42.2 -9.65 -42.2 -9.75 Q-40.65 -11.45 -27.55 -17.05 -23.5 -18.8 -19.05 -20.15 -20.5 -24.65 -21.75 -30.5 L-22.7 -35.8 Q-24.4 -46.4 -23.3 -54.35 L-21.6 -66.55 Q-19.85 -73.95 -15.8 -84.05 -11.85 -94.2 -5.25 -102.8 1.35 -111.4 13.25 -111.05 19.3 -110.95 23.55 -108.95 L23.6 -104.85 Q28.65 -106.65 34.85 -105.4 40.15 -104.35 43.6 -101.9 L34.55 -46.85 31.2 -32.65 32.1 -27.05 31.7 -25.85 34.35 -26.0 38.65 -26.75 42.35 -27.4 Q44.15 -27.65 46.85 -27.4 L47.95 -27.3 Q55.05 -26.25 59.35 -23.4 63.65 -20.6 66.1 -16.9 63.7 -14.95 59.6 -13.45 63.55 -12.65 63.4 -9.7 M25.45 -25.65 L31.7 -25.85 25.45 -25.65 25.1 -25.65 23.3 -30.8 24.25 -46.95 23.6 -104.85 24.25 -46.95 23.3 -30.8 25.1 -25.65 25.4 -24.8 25.45 -25.65 M24.35 -17.5 L25.4 -24.8 24.35 -17.5" fill="#ffffff" fill-opacity="0.0" fill-rule="evenodd" stroke="none"/>
    <path d="M23.6 -104.85 L23.55 -108.95 Q19.3 -110.95 13.25 -111.05 1.35 -111.4 -5.25 -102.8 -11.85 -94.2 -15.8 -84.05 -19.85 -73.95 -21.6 -66.55 L-23.3 -54.35 Q-24.4 -46.4 -22.7 -35.8 L-21.75 -30.5 Q-20.5 -24.65 -19.05 -20.15 -23.5 -18.8 -27.55 -17.05 -40.65 -11.45 -42.2 -9.75 L-42.2 -9.65 -46.85 -10.1 -58.3 -10.9 -70.65 -11.75 -82.05 -12.5 -90.3 -12.8 -93.7 -12.7 Q-93.85 -12.35 -92.9 -11.45 L-90.65 -9.55 Q-89.5 -8.5 -89.45 -7.9 -89.5 -7.4 -90.3 -6.3 L-92.35 -3.85 -94.25 -1.5 -95.15 -0.1 Q-95.15 0.0 -94.85 0.05 L-89.9 -0.15 -80.2 -0.75 -67.5 -1.65 -53.35 -2.55 -40.0 -3.1 -37.05 -0.6 Q-32.85 2.9 -26.95 6.45 L-19.95 10.3 -18.2 11.0 Q-11.4 13.7 -5.85 15.0 L1.4 16.2 11.95 16.75 16.1 16.4 25.4 14.8 28.3 14.15 33.1 12.85 36.5 11.6 39.55 9.9 Q46.65 5.1 52.6 -0.05 57.05 -3.95 58.45 -5.75 L60.9 -7.9 63.5 -9.6 63.4 -9.7 64.6 -10.7 Q65.95 -11.65 67.8 -12.15 L73.45 -13.15 Q75.8 -13.35 78.35 -13.15 77.35 -14.15 75.2 -14.9 L70.3 -16.25 66.1 -16.9 Q63.65 -20.6 59.35 -23.4 55.05 -26.25 47.95 -27.3 L46.85 -27.4 Q44.15 -27.65 42.35 -27.4 L38.65 -26.75 34.35 -26.0 31.7 -25.85 32.1 -27.05 31.2 -32.65 34.55 -46.85 43.6 -101.9 Q40.15 -104.35 34.85 -105.4 28.65 -106.65 23.6 -104.85 M25.1 -25.65 L25.45 -25.65 M25.4 -24.8 L25.1 -25.65" fill="none" stroke="#000000" stroke-linecap="round" stroke-linejoin="round" stroke-width="1.0"/>
    <path d="M31.7 -25.85 L25.45 -25.65 M25.4 -24.8 L24.35 -17.5 M23.6 -104.85 L24.25 -46.95 23.3 -30.8 25.1 -25.65 M78.35 -13.15 Q66.6 -15.05 59.6 -13.45" fill="none" stroke="#000000" stroke-linecap="round" stroke-linejoin="round" stroke-opacity="0.4" stroke-width="1.0"/>
    <path d="M59.6 -13.45 Q63.7 -14.95 66.1 -16.9" fill="none" stroke="#000000" stroke-linecap="round" stroke-linejoin="round" stroke-opacity="0.2" stroke-width="1.0"/>
    <path d="M52.3 -18.6 Q53.1 -19.25 54.2 -19.25 55.3 -19.05 55.9 -18.3 56.55 -17.45 56.45 -16.35 56.35 -15.15 55.6 -14.5 54.8 -13.75 53.7 -13.85 52.6 -13.95 51.9 -14.8 51.2 -15.6 51.4 -16.75 51.6 -17.85 52.3 -18.6 M54.05 -17.55 Q54.0 -18.25 53.3 -18.4 52.6 -18.4 52.45 -17.7 52.45 -17.0 53.15 -16.8 53.85 -16.85 54.05 -17.55" fill="#000000" fill-opacity="0.8980392" fill-rule="evenodd" stroke="none"/>
    <path d="M54.05 -17.55 Q53.85 -16.85 53.15 -16.8 52.45 -17.0 52.45 -17.7 52.6 -18.4 53.3 -18.4 54.0 -18.25 54.05 -17.55" fill="#ffffff" fill-opacity="0.7490196" fill-rule="evenodd" stroke="none"/>
    <path d="M52.3 -18.6 Q51.6 -17.85 51.4 -16.75 51.2 -15.6 51.9 -14.8 52.6 -13.95 53.7 -13.85 54.8 -13.75 55.6 -14.5 56.35 -15.15 56.45 -16.35 56.55 -17.45 55.9 -18.3 55.3 -19.05 54.2 -19.25 53.1 -19.25 52.3 -18.6 Z" fill="none" stroke="#ffffff" stroke-linecap="round" stroke-linejoin="round" stroke-opacity="0.49803922" stroke-width="1.0"/>
  </g>
</svg>
