<?xml version="1.0" encoding="UTF-8" standalone="no"?>
<svg xmlns:xlink="http://www.w3.org/1999/xlink" height="137.9px" width="122.55px" xmlns="http://www.w3.org/2000/svg">
  <g transform="matrix(1.0, 0.0, 0.0, 1.0, 63.65, 67.6)">
    <path d="M-49.85 -57.1 L-48.95 -58.6 Q-47.25 -60.9 -44.05 -62.8 -40.85 -64.6 -36.95 -65.8 -33.05 -67.0 -29.15 -67.1 L-28.25 -67.1 Q-22.55 -67.0 -17.95 -64.8 -13.35 -62.5 -10.75 -59.1 -9.65 -57.7 -9.05 -56.2 L-6.85 -52.4 Q-4.95 -49.1 -2.85 -46.2 -1.15 -44.1 0.95 -42.6 L3.55 -41.0 Q9.15 -37.2 13.95 -32.2 18.65 -27.1 21.65 -21.1 L23.45 -17.5 23.55 -17.5 Q26.75 -10.6 31.15 -3.8 33.85 0.5 36.65 4.4 L37.05 4.8 41.75 9.5 Q43.75 11.7 44.35 12.9 L44.55 13.5 44.55 13.6 45.05 14.1 46.35 15.9 47.05 16.9 47.65 17.9 48.85 19.3 49.35 20.0 51.75 23.0 53.65 25.8 53.95 26.7 Q55.05 28.1 55.55 29.2 L56.05 30.6 55.75 31.3 55.05 31.5 Q54.15 31.5 52.05 30.4 L46.85 27.6 Q41.55 25.6 35.95 22.8 L28.65 18.8 28.25 19.5 33.65 28.9 42.65 43.7 50.85 56.6 56.55 65.9 Q58.65 69.4 58.35 69.7 L57.95 69.8 Q57.05 69.8 54.95 68.9 L50.45 67.0 46.05 65.1 43.55 64.3 Q42.95 64.3 41.55 65.1 L38.35 66.8 35.05 68.5 32.65 69.3 32.35 69.2 Q31.85 69.0 30.35 65.9 L26.65 57.8 21.85 46.6 16.55 34.2 12.75 25.4 12.05 25.2 8.15 24.0 10.6 18.3 8.1 17.05 6.05 23.3 2.85 22.0 -2.85 19.4 -4.15 19.7 -6.95 20.3 -9.55 20.8 -11.3 19.3 -11.05 19.0 Q-9.95 17.8 -9.85 17.0 -9.65 16.1 -10.35 15.5 -11.05 14.9 -12.05 14.6 L-11.35 14.6 -17.65 10.2 Q-22.55 6.4 -26.55 2.0 -31.95 -4.0 -35.05 -10.9 -38.15 -17.8 -38.85 -24.5 -39.35 -29.9 -38.25 -34.5 -38.15 -36.3 -38.85 -37.8 -39.75 -39.9 -41.55 -42.0 L-44.55 -45.0 -47.15 -47.6 -47.25 -47.7 -49.75 -49.5 Q-50.65 -51.65 -47.05 -53.8 -48.85 -54.9 -49.85 -57.1" fill="#ffffff" fill-opacity="0.0" fill-rule="evenodd" stroke="none"/>
    <path d="M-49.85 -57.1 Q-48.85 -54.9 -47.05 -53.8 -50.65 -51.65 -49.75 -49.5 -51.6 -50.65 -53.65 -51.4 -57.45 -52.9 -61.45 -52.9 L-63.15 -52.8 Q-61.75 -53.9 -59.45 -54.6 L-54.65 -56.0 -49.95 -57.2 -49.85 -57.1 M-47.05 -53.8 Q-54.05 -55.0 -63.15 -52.8 -54.05 -55.0 -47.05 -53.8" fill="#ffffff" fill-opacity="0.6" fill-rule="evenodd" stroke="none"/>
    <path d="M-11.3 19.3 L-9.55 20.8 -11.05 21.7 -15.35 24.5 -20.35 27.7 -24.55 30.5 Q-25.35 30.9 -25.75 31.3 L-24.65 32.5 -24.25 33.8 -24.25 34.4 -24.35 34.6 -24.75 34.5 -25.35 34.1 -25.75 33.6 -25.95 33.6 -26.65 33.5 -27.85 33.4 Q-28.55 33.4 -29.55 33.9 -30.65 34.4 -31.05 35.0 -31.25 35.4 -30.95 36.2 L-30.35 37.5 -29.35 37.2 -28.65 37.0 -28.95 37.5 -29.85 38.3 -29.65 38.5 -29.55 38.7 -29.55 38.6 -29.45 38.6 -28.85 38.4 -28.25 38.2 -27.75 38.4 -27.45 38.1 -26.85 37.7 -26.95 38.2 -27.15 38.8 -26.75 38.9 -26.55 38.9 -25.95 38.1 -25.05 36.9 -24.65 36.2 -24.55 36.8 -24.85 38.2 Q-25.25 39.0 -26.15 39.9 -27.15 40.7 -28.05 40.8 L-28.15 40.8 -29.15 40.4 -30.95 40.9 -31.65 40.7 -32.45 40.1 -33.45 38.9 -34.25 38.5 -35.25 36.6 Q-35.85 35.2 -35.35 34.1 -34.95 32.9 -33.15 31.8 -32.35 31.2 -30.75 30.9 L-28.15 30.6 -26.95 29.9 -21.95 26.6 -16.15 22.7 -11.35 19.3 -11.3 19.3 M6.05 23.3 L8.1 17.05 10.6 18.3 8.15 24.0 7.65 25.0 5.75 29.9 3.45 35.5 1.55 40.2 1.35 40.7 2.05 41.2 3.25 42.6 3.65 43.8 3.55 44.4 3.55 44.7 3.05 44.5 2.45 44.1 2.05 43.7 1.65 43.5 1.25 43.4 0.65 43.3 -0.55 43.2 Q-1.25 43.2 -2.35 43.7 -3.35 44.2 -3.85 44.8 -4.05 45.2 -3.75 46.0 L-3.25 47.2 -2.25 46.8 -1.55 46.6 -1.75 47.1 -2.75 47.9 -2.45 48.3 -1.65 48.6 -1.55 48.6 -1.05 48.4 -0.45 48.2 0.05 48.4 0.45 48.1 1.05 47.7 0.95 48.2 0.65 48.8 1.15 48.9 1.25 48.9 1.95 48.1 2.75 46.9 3.25 46.2 3.25 46.8 Q3.35 47.3 2.95 48.2 L1.65 49.9 Q0.75 50.7 -0.15 50.8 L-0.25 50.8 -1.35 50.4 -3.15 50.9 -3.85 50.7 -4.55 50.1 -5.65 48.8 -5.85 48.6 Q-6.65 48.5 -7.05 48.1 L-7.95 46.4 -8.05 46.4 Q-8.65 45.0 -8.15 43.9 -7.75 42.7 -5.95 41.6 -5.15 41.0 -3.55 40.7 L-0.55 40.4 -0.15 39.4 1.85 34.3 4.15 28.3 6.05 23.3" fill="#000000" fill-opacity="0.6" fill-rule="evenodd" stroke="none"/>
    <path d="M8.15 24.0 L12.05 25.2 12.75 25.4 16.55 34.2 21.85 46.6 26.65 57.8 30.35 65.9 Q31.85 69.0 32.35 69.2 L32.65 69.3 35.05 68.5 38.35 66.8 41.55 65.1 Q42.95 64.3 43.55 64.3 L46.05 65.1 50.45 67.0 54.95 68.9 Q57.05 69.8 57.95 69.8 L58.35 69.7 Q58.65 69.4 56.55 65.9 L50.85 56.6 42.65 43.7 33.65 28.9 28.25 19.5 28.65 18.8 35.95 22.8 Q41.55 25.6 46.85 27.6 L52.05 30.4 Q54.15 31.5 55.05 31.5 L55.75 31.3 56.05 30.6 55.55 29.2 Q55.05 28.1 53.95 26.7 L53.65 25.8 51.75 23.0 49.35 20.0 48.85 19.3 47.65 17.9 47.05 16.9 46.35 15.9 45.05 14.1 44.55 13.6 44.55 13.5 44.35 12.9 Q43.75 11.7 41.75 9.5 L37.05 4.8 36.65 4.4 Q33.85 0.5 31.15 -3.8 26.75 -10.6 23.55 -17.5 L23.45 -17.5 21.65 -21.1 Q18.65 -27.1 13.95 -32.2 9.15 -37.2 3.55 -41.0 L0.95 -42.6 Q-1.15 -44.1 -2.85 -46.2 -4.95 -49.1 -6.85 -52.4 L-9.05 -56.2 Q-9.65 -57.7 -10.75 -59.1 -13.35 -62.5 -17.95 -64.8 -22.55 -67.0 -28.25 -67.1 L-29.15 -67.1 Q-33.05 -67.0 -36.95 -65.8 -40.85 -64.6 -44.05 -62.8 -47.25 -60.9 -48.95 -58.6 L-49.85 -57.1 -49.95 -57.2 -54.65 -56.0 -59.45 -54.6 Q-61.75 -53.9 -63.15 -52.8 L-61.45 -52.9 Q-57.45 -52.9 -53.65 -51.4 -51.6 -50.65 -49.75 -49.5 L-47.25 -47.7 -47.15 -47.6 -44.55 -45.0 -41.55 -42.0 Q-39.75 -39.9 -38.85 -37.8 -38.15 -36.3 -38.25 -34.5 -39.35 -29.9 -38.85 -24.5 -38.15 -17.8 -35.05 -10.9 -31.95 -4.0 -26.55 2.0 -22.55 6.4 -17.65 10.2 L-11.35 14.6 -12.05 14.6 Q-11.05 14.9 -10.35 15.5 -9.65 16.1 -9.85 17.0 -9.95 17.8 -11.05 19.0 L-11.3 19.3 -11.35 19.3 -16.15 22.7 -21.95 26.6 -26.95 29.9 -28.15 30.6 -30.75 30.9 Q-32.35 31.2 -33.15 31.8 -34.95 32.9 -35.35 34.1 -35.85 35.2 -35.25 36.6 L-34.25 38.5 -33.45 38.9 -32.45 40.1 -31.65 40.7 -30.95 40.9 -29.15 40.4 -28.15 40.8 -28.05 40.8 Q-27.15 40.7 -26.15 39.9 -25.25 39.0 -24.85 38.2 L-24.55 36.8 -24.65 36.2 -25.05 36.9 -25.95 38.1 -26.55 38.9 -26.75 38.9 -27.15 38.8 -26.95 38.2 -26.85 37.7 -27.45 38.1 -27.75 38.4 -28.25 38.2 -28.85 38.4 -29.45 38.6 -29.55 38.6 -29.55 38.7 -29.65 38.5 -29.85 38.3 -28.95 37.5 -28.65 37.0 -29.35 37.2 -30.35 37.5 -30.95 36.2 Q-31.25 35.4 -31.05 35.0 -30.65 34.4 -29.55 33.9 -28.55 33.4 -27.85 33.4 L-26.65 33.5 -25.95 33.6 -25.75 33.6 -25.35 34.1 -24.75 34.5 -24.35 34.6 -24.25 34.4 -24.25 33.8 -24.65 32.5 -25.75 31.3 Q-25.35 30.9 -24.55 30.5 L-20.35 27.7 -15.35 24.5 -11.05 21.7 -9.55 20.8 -6.95 20.3 -4.15 19.7 -2.85 19.4 2.85 22.0 6.05 23.3 8.1 17.05 M10.6 18.3 L8.15 24.0 7.65 25.0 5.75 29.9 3.45 35.5 1.55 40.2 1.35 40.7 2.05 41.2 3.25 42.6 3.65 43.8 3.55 44.4 3.55 44.7 3.05 44.5 2.45 44.1 2.05 43.7 1.65 43.5 1.25 43.4 0.65 43.3 -0.55 43.2 Q-1.25 43.2 -2.35 43.7 -3.35 44.2 -3.85 44.8 -4.05 45.2 -3.75 46.0 L-3.25 47.2 -2.25 46.8 -1.55 46.6 -1.75 47.1 -2.75 47.9 -2.45 48.3 -1.65 48.6 -1.55 48.6 -1.05 48.4 -0.45 48.2 0.05 48.4 0.45 48.1 1.05 47.7 0.95 48.2 0.65 48.8 1.15 48.9 1.25 48.9 1.95 48.1 2.75 46.9 3.25 46.2 3.25 46.8 Q3.35 47.3 2.95 48.2 L1.65 49.9 Q0.75 50.7 -0.15 50.8 L-0.25 50.8 -1.35 50.4 -3.15 50.9 -3.85 50.7 -4.55 50.1 -5.65 48.8 -5.85 48.6 Q-6.65 48.5 -7.05 48.1 L-7.95 46.4 -8.05 46.4 Q-8.65 45.0 -8.15 43.9 -7.75 42.7 -5.95 41.6 -5.15 41.0 -3.55 40.7 L-0.55 40.4 -0.15 39.4 1.85 34.3 4.15 28.3 6.05 23.3" fill="none" stroke="#000000" stroke-linecap="round" stroke-linejoin="round" stroke-width="1.0"/>
    <path d="M-49.85 -57.1 Q-48.85 -54.9 -47.05 -53.8" fill="none" stroke="#000000" stroke-linecap="round" stroke-linejoin="round" stroke-opacity="0.2" stroke-width="1.0"/>
    <path d="M-63.15 -52.8 Q-54.05 -55.0 -47.05 -53.8" fill="none" stroke="#000000" stroke-linecap="round" stroke-linejoin="round" stroke-opacity="0.4" stroke-width="1.0"/>
    <path d="M-39.65 -55.7 Q-39.75 -56.5 -40.45 -56.5 -41.15 -56.5 -41.25 -55.7 -41.15 -55.0 -40.45 -54.9 -39.75 -55.0 -39.65 -55.7 M-37.85 -52.8 Q-38.55 -52.1 -39.65 -52.0 -40.75 -52.1 -41.55 -52.8 -42.35 -53.6 -42.25 -54.7 -42.15 -55.9 -41.45 -56.6 -40.75 -57.4 -39.65 -57.4 -38.55 -57.4 -37.85 -56.6 -37.15 -55.9 -37.15 -54.7 -37.15 -53.6 -37.85 -52.8" fill="#000000" fill-opacity="0.8980392" fill-rule="evenodd" stroke="none"/>
    <path d="M-39.65 -55.7 Q-39.75 -55.0 -40.45 -54.9 -41.15 -55.0 -41.25 -55.7 -41.15 -56.5 -40.45 -56.5 -39.75 -56.5 -39.65 -55.7" fill="#ffffff" fill-opacity="0.7490196" fill-rule="evenodd" stroke="none"/>
    <path d="M-7.55 -8.5 L-6.75 -7.4 Q-5.45 -5.5 -3.95 -4.4 9.35 7.2 28.65 18.8 M12.75 25.4 Q23.65 33.9 26.25 34.4 L30.55 35.0 Q32.25 35.1 31.85 31.7 31.35 28.3 28.25 19.5" fill="none" stroke="#000000" stroke-linecap="round" stroke-linejoin="round" stroke-opacity="0.4" stroke-width="1.0"/>
    <path d="M-37.85 -52.8 Q-37.15 -53.6 -37.15 -54.7 -37.15 -55.9 -37.85 -56.6 -38.55 -57.4 -39.65 -57.4 -40.75 -57.4 -41.45 -56.6 -42.15 -55.9 -42.25 -54.7 -42.35 -53.6 -41.55 -52.8 -40.75 -52.1 -39.65 -52.0 -38.55 -52.1 -37.85 -52.8" fill="none" stroke="#ffffff" stroke-linecap="round" stroke-linejoin="round" stroke-opacity="0.49803922" stroke-width="1.0"/>
  </g>
</svg>
