<?xml version="1.0" encoding="UTF-8" standalone="no"?>
<svg xmlns:xlink="http://www.w3.org/1999/xlink" height="201.6px" width="840.95px" xmlns="http://www.w3.org/2000/svg">
  <g transform="matrix(1.0, 0.0, 0.0, 1.0, 420.45, 100.8)">
    <path d="M-420.45 -100.8 L-308.1 -100.8 -308.1 100.0 -417.55 100.8 -420.45 -100.8 M-279.3 -100.8 L-155.45 -100.8 -155.45 98.9 -279.3 99.8 -279.3 -100.8 M-126.65 -100.8 L-17.25 -100.8 -14.35 97.9 -126.65 98.7 -126.65 -100.8 M308.4 -100.8 L420.5 -100.8 420.5 97.9 310.75 97.9 308.4 -100.8 M155.85 -100.8 L279.4 -100.8 279.4 97.9 158.25 97.9 155.85 -100.8 M17.35 -100.8 L126.75 -100.8 126.75 97.9 17.35 97.9 17.35 -100.8" fill="#000000" fill-opacity="0.49803922" fill-rule="evenodd" stroke="none"/>
  </g>
</svg>
