<?xml version="1.0" encoding="UTF-8" standalone="no"?>
<svg xmlns:xlink="http://www.w3.org/1999/xlink" height="3661.75px" width="797.3px" xmlns="http://www.w3.org/2000/svg">
  <g transform="matrix(1.0, 0.0, 0.0, 1.0, 398.65, 1830.9)">
    <path d="M273.5 -1143.65 L274.05 -918.6 390.55 -919.0 390.55 -901.1 274.1 -900.7 274.65 -667.8 390.55 -668.2 390.55 -652.85 274.65 -652.45 275.35 -368.65 -60.0 -368.65 -60.65 -651.4 -395.35 -650.3 -395.35 -665.65 -60.7 -666.75 -61.25 -899.6 -395.35 -898.5 -395.35 -916.45 -61.3 -917.55 -61.85 -1142.6 -398.15 -1141.5 -398.15 -1156.85 -61.85 -1157.95 -62.55 -1441.3 272.8 -1443.85 273.5 -1159.0 387.75 -1159.4 387.75 -1144.05 273.5 -1143.65 M-58.65 -49.5 L-60.0 -332.8 275.35 -332.8 276.05 -50.6 392.95 -51.0 392.95 -33.1 276.1 -32.7 276.6 192.6 392.95 192.2 392.95 210.1 276.65 210.5 277.2 441.0 392.95 440.6 392.95 458.5 277.25 458.9 277.9 739.8 -54.85 742.35 -56.2 460.0 -392.95 461.1 -392.95 443.15 -56.3 442.05 -57.4 211.6 -392.95 212.7 -392.95 194.75 -57.5 193.65 -58.55 -31.6 -392.95 -30.5 -392.95 -48.45 -58.65 -49.5 M-54.15 1056.2 L-390.15 1057.3 -390.15 1041.95 -54.15 1040.85 -54.85 755.15 277.9 755.15 279.3 1039.8 395.75 1039.4 395.75 1054.75 279.35 1055.15 280.45 1280.6 395.75 1280.2 395.75 1298.1 280.5 1298.5 281.6 1529.0 398.15 1528.6 398.15 1546.5 281.7 1546.9 283.05 1830.35 -52.3 1830.35 -52.95 1548.0 -387.75 1549.1 -387.75 1531.15 -53.0 1530.05 -53.55 1299.6 -390.15 1300.7 -390.15 1282.75 -53.6 1281.65 -54.15 1056.2" fill="#ffffff" fill-opacity="0.0" fill-rule="evenodd" stroke="none"/>
    <path d="M-88.15 -1505.3 L-90.7 -1830.4 390.55 -1830.4 390.55 -1507.85 -88.15 -1505.3" fill="#000000" fill-opacity="0.09803922" fill-rule="evenodd" stroke="none"/>
    <path d="M-88.15 -1505.3 L-90.7 -1830.4 390.55 -1830.4 390.55 -1507.85" fill="none" stroke="#000000" stroke-linecap="round" stroke-linejoin="round" stroke-width="1.0"/>
    <path d="M273.5 -1143.65 L387.75 -1144.05 387.75 -1159.4 273.5 -1159.0 M-61.85 -1157.95 L-398.15 -1156.85 -398.15 -1141.5 -61.85 -1142.6 M-61.3 -917.55 L-395.35 -916.45 -395.35 -898.5 -61.25 -899.6 M-60.7 -666.75 L-395.35 -665.65 -395.35 -650.3 -60.65 -651.4 M274.65 -652.45 L390.55 -652.85 390.55 -668.2 274.65 -667.8 M274.1 -900.7 L390.55 -901.1 390.55 -919.0 274.05 -918.6 M-58.65 -49.5 L-392.95 -48.45 -392.95 -30.5 -58.55 -31.6 M-57.5 193.65 L-392.95 194.75 -392.95 212.7 -57.4 211.6 M-56.3 442.05 L-392.95 443.15 -392.95 461.1 -56.2 460.0 M277.25 458.9 L392.95 458.5 392.95 440.6 277.2 441.0 M276.65 210.5 L392.95 210.1 392.95 192.2 276.6 192.6 M276.1 -32.7 L392.95 -33.1 392.95 -51.0 276.05 -50.6 M-54.15 1040.85 L-390.15 1041.95 -390.15 1057.3 -54.15 1056.2 M-53.6 1281.65 L-390.15 1282.75 -390.15 1300.7 -53.55 1299.6 M-53.0 1530.05 L-387.75 1531.15 -387.75 1549.1 -52.95 1548.0 M281.7 1546.9 L398.15 1546.5 398.15 1528.6 281.6 1529.0 M280.5 1298.5 L395.75 1298.1 395.75 1280.2 280.45 1280.6 M279.35 1055.15 L395.75 1054.75 395.75 1039.4 279.3 1039.8 M277.9 755.15 L-54.85 755.15" fill="none" stroke="#000000" stroke-linecap="round" stroke-linejoin="round" stroke-opacity="0.2" stroke-width="1.0"/>
    <path d="M274.05 -918.6 L273.5 -1143.65 M273.5 -1159.0 L272.8 -1443.85 -62.55 -1441.3 -61.85 -1157.95 M-61.85 -1142.6 L-61.3 -917.55 M-61.25 -899.6 L-60.7 -666.75 M-60.65 -651.4 L-60.0 -368.65 275.35 -368.65 274.65 -652.45 M274.65 -667.8 L274.1 -900.7 M276.05 -50.6 L275.35 -332.8 -60.0 -332.8 -58.65 -49.5 M-58.55 -31.6 L-57.5 193.65 M-57.4 211.6 L-56.3 442.05 M-56.2 460.0 L-54.85 742.35 277.9 739.8 277.25 458.9 M277.2 441.0 L276.65 210.5 M276.6 192.6 L276.1 -32.7 M-54.15 1056.2 L-53.6 1281.65 M-53.55 1299.6 L-53.0 1530.05 M-52.95 1548.0 L-52.3 1830.35 283.05 1830.35 281.7 1546.9 M281.6 1529.0 L280.5 1298.5 M280.45 1280.6 L279.35 1055.15 M279.3 1039.8 L277.9 755.15 M-54.85 755.15 L-54.15 1040.85" fill="none" stroke="#000000" stroke-linecap="round" stroke-linejoin="round" stroke-opacity="0.4" stroke-width="1.0"/>
  </g>
</svg>
