<?xml version="1.0" encoding="UTF-8" standalone="no"?>
<svg xmlns:xlink="http://www.w3.org/1999/xlink" height="815.8px" width="1655.8px" xmlns="http://www.w3.org/2000/svg">
  <g transform="matrix(1.0, 0.0, 0.0, 1.0, 827.9, 407.9)">
    <path d="M460.6 268.6 L827.4 267.4 827.4 401.8 -827.4 407.4 -827.4 273.0 -454.6 271.8 -454.6 274.6 -252.2 271.0 460.6 268.6" fill="#000000" fill-opacity="0.09803922" fill-rule="evenodd" stroke="none"/>
    <path d="M-454.6 271.8 L-480.2 -397.0 460.6 -407.4 460.6 268.6 -252.2 271.0 -454.6 274.6 -454.6 271.8" fill="#ffffff" fill-opacity="0.0" fill-rule="evenodd" stroke="none"/>
    <path d="M-454.6 271.8 L-480.2 -397.0 460.6 -407.4 460.6 268.6 827.4 267.4 827.4 401.8 -827.4 407.4 -827.4 273.0 -454.6 271.8 -454.6 274.6 -252.2 271.0 460.6 268.6" fill="none" stroke="#000000" stroke-linecap="round" stroke-linejoin="round" stroke-opacity="0.6" stroke-width="1.0"/>
  </g>
</svg>
