<?xml version="1.0" encoding="UTF-8" standalone="no"?>
<svg xmlns:xlink="http://www.w3.org/1999/xlink" height="6.65px" width="7.9px" xmlns="http://www.w3.org/2000/svg">
  <g transform="matrix(1.0, 0.0, 0.0, 1.0, 3.95, 3.3)">
    <path d="M1.85 -3.25 L1.85 -1.25 0.45 -1.25 0.45 -3.3 1.85 -3.25 M1.85 -0.9 L1.85 1.05 0.45 1.05 0.45 -0.9 1.85 -0.9 M2.5 -1.25 L2.5 -3.25 3.85 -3.25 3.85 -1.25 2.5 -1.25 M3.85 -0.9 L3.9 1.05 2.5 1.05 2.5 -0.9 3.85 -0.9 M1.85 1.45 L1.85 3.35 0.45 3.35 0.45 1.45 1.85 1.45 M3.95 3.35 L2.5 3.35 2.5 1.45 3.9 1.45 3.95 3.35 M-0.55 -3.25 L-0.55 -1.3 -1.9 -1.3 -1.9 -3.3 -0.55 -3.25 M-2.55 -3.3 L-2.55 -1.3 -3.95 -1.3 -3.95 -3.3 -2.55 -3.3 M-2.55 -0.9 L-2.55 1.05 -3.95 1.05 -3.95 -0.9 -2.55 -0.9 M-0.55 -0.9 L-0.5 1.05 -1.9 1.05 -1.9 -0.9 -0.55 -0.9 M-0.5 1.4 L-0.45 3.3 -1.9 3.3 -1.9 1.4 -0.5 1.4 M-2.55 1.4 L-2.55 3.3 -3.95 3.3 -3.95 1.4 -2.55 1.4" fill="#000000" fill-opacity="0.5019608" fill-rule="evenodd" stroke="none"/>
  </g>
</svg>
