<?xml version="1.0" encoding="UTF-8" standalone="no"?>
<svg xmlns:xlink="http://www.w3.org/1999/xlink" height="55.45px" width="18.35px" xmlns="http://www.w3.org/2000/svg">
  <g transform="matrix(1.0, 0.0, 0.0, 1.0, 6.8, 26.95)">
    <path d="M1.95 -25.8 L4.6 -25.8 4.65 -20.8 2.1 -20.85 1.95 -25.8 M2.4 -25.2 L4.1 -25.2 4.15 -21.3 2.55 -21.35 2.4 -25.2 M4.35 -25.4 L2.2 -25.45 2.3 -21.1 4.4 -21.1 4.35 -25.4 M2.6 -23.6 L2.6 -23.0 2.9 -23.0 2.9 -23.6 2.6 -23.6 M3.5 21.4 L3.5 20.65 3.15 20.65 3.15 21.4 3.5 21.4 M1.45 21.4 L1.45 20.65 1.1 20.65 1.1 21.4 1.45 21.4 M1.6 18.6 L1.7 23.4 -0.4 23.35 -0.4 18.6 1.6 18.6 M5.05 23.45 L3.05 23.5 3.0 18.75 5.1 18.7 5.05 23.45 M1.95 23.65 L1.85 18.35 -0.7 18.3 -0.65 23.6 1.95 23.65 M2.75 18.5 L2.75 23.8 5.3 23.7 5.35 18.4 2.75 18.5 M5.65 17.95 L5.55 24.05 2.65 24.15 2.5 18.0 5.65 17.95 M2.1 18.0 L2.3 24.15 -0.95 24.05 -1.0 17.95 2.1 18.0" fill="#ffffff" fill-opacity="0.0" fill-rule="evenodd" stroke="none"/>
    <path d="M1.6 -25.9 L4.9 -25.9 5.0 -20.6 1.8 -20.55 1.6 -25.9 M1.95 -25.8 L2.1 -20.85 4.65 -20.8 4.6 -25.8 1.95 -25.8 M4.35 -25.4 L4.4 -21.1 2.3 -21.1 2.2 -25.45 4.35 -25.4 M2.4 -25.2 L2.55 -21.35 4.15 -21.3 4.1 -25.2 2.4 -25.2 M5.05 23.45 L5.1 18.7 3.0 18.75 3.05 23.5 5.05 23.45 M1.6 18.6 L-0.4 18.6 -0.4 23.35 1.7 23.4 1.6 18.6 M-1.35 24.4 L-1.4 17.55 6.05 17.55 5.95 24.4 -1.35 24.4 M2.75 18.5 L5.35 18.4 5.3 23.7 2.75 23.8 2.75 18.5 M1.95 23.65 L-0.65 23.6 -0.7 18.3 1.85 18.35 1.95 23.65 M2.1 18.0 L-1.0 17.95 -0.95 24.05 2.3 24.15 2.1 18.0 M5.65 17.95 L2.5 18.0 2.65 24.15 5.55 24.05 5.65 17.95" fill="#000000" fill-opacity="0.101960786" fill-rule="evenodd" stroke="none"/>
    <path d="M4.9 -25.9 L1.6 -25.9 1.2 -25.9 1.2 -26.45 5.4 -26.45 5.4 -25.9 4.9 -25.9" fill="#000000" fill-opacity="0.2" fill-rule="evenodd" stroke="none"/>
    <path d="M2.6 -23.6 L2.9 -23.6 2.9 -23.0 2.6 -23.0 2.6 -23.6 M3.5 21.4 L3.15 21.4 3.15 20.65 3.5 20.65 3.5 21.4 M1.45 21.4 L1.1 21.4 1.1 20.65 1.45 20.65 1.45 21.4" fill="#000000" fill-opacity="0.5019608" fill-rule="evenodd" stroke="none"/>
    <path d="M5.95 24.4 L8.25 24.4 8.25 25.35 9.5 25.35 9.5 26.6 11.05 26.6 11.05 28.0 -6.3 28.0 -6.3 26.6 -4.95 26.6 -4.95 25.35 -3.75 25.35 -3.75 24.4 -1.35 24.4 5.95 24.4 M9.5 26.6 L-4.95 26.6 9.5 26.6 M-3.75 25.35 L8.25 25.35 -3.75 25.35" fill="#ffffff" fill-opacity="0.2" fill-rule="evenodd" stroke="none"/>
    <path d="M9.5 26.6 L11.05 26.6 11.05 28.0 M-6.3 28.0 L-6.3 26.6 -4.95 26.6 9.5 26.6 M-1.35 24.4 L-1.4 17.55 6.05 17.55 5.95 24.4 M2.1 18.0 L-1.0 17.95 -0.95 24.05 2.3 24.15 2.1 18.0 M5.65 17.95 L2.5 18.0 2.65 24.15 5.55 24.05 5.65 17.95 M8.25 25.35 L-3.75 25.35" fill="none" stroke="#000000" stroke-linecap="round" stroke-linejoin="round" stroke-opacity="0.4" stroke-width="1.0"/>
    <path d="M4.9 -25.9 L1.6 -25.9 1.8 -20.55 5.0 -20.6 4.9 -25.9 5.4 -25.9 5.4 -26.45 1.2 -26.45 1.2 -25.9 1.6 -25.9 M1.95 -25.8 L2.1 -20.85 4.65 -20.8 4.6 -25.8 1.95 -25.8" fill="none" stroke="#000000" stroke-linecap="round" stroke-linejoin="round" stroke-opacity="0.4" stroke-width="1.0"/>
    <path d="M5.95 24.4 L8.25 24.4 8.25 25.35 9.5 25.35 9.5 26.6 M-4.95 26.6 L-4.95 25.35 -3.75 25.35 -3.75 24.4 -1.35 24.4 5.95 24.4" fill="none" stroke="#000000" stroke-linecap="round" stroke-linejoin="round" stroke-opacity="0.6" stroke-width="1.0"/>
    <path d="M11.05 28.0 L-6.3 28.0" fill="none" stroke="#000000" stroke-linecap="round" stroke-linejoin="round" stroke-width="1.0"/>
  </g>
</svg>
