<?xml version="1.0" encoding="UTF-8" standalone="no"?>
<svg xmlns:xlink="http://www.w3.org/1999/xlink" height="7.4px" width="7.65px" xmlns="http://www.w3.org/2000/svg">
  <g transform="matrix(1.0, 0.0, 0.0, 1.0, 3.7, 3.7)">
    <path d="M1.65 -0.05 Q1.65 1.55 0.05 1.55 -1.7 1.55 -1.7 -0.05 -1.7 -0.75 -1.2 -1.2 -0.65 -1.7 0.05 -1.7 0.7 -1.7 1.2 -1.2 L1.65 -0.05" fill="#000000" fill-rule="evenodd" stroke="none"/>
    <path d="M1.65 -0.05 L1.2 -1.2 Q0.7 -1.7 0.05 -1.7 -0.65 -1.7 -1.2 -1.2 -1.7 -0.75 -1.7 -0.05 -1.7 1.55 0.05 1.55 1.65 1.55 1.65 -0.05 M3.2 -0.05 Q3.2 1.25 2.25 2.2 1.35 3.2 0.05 3.2 -1.3 3.2 -2.25 2.2 -3.2 1.25 -3.2 -0.05 -3.2 -1.4 -2.25 -2.25 -1.3 -3.2 0.05 -3.2 1.35 -3.2 2.25 -2.25 3.2 -1.3 3.2 -0.05" fill="#ffffff" fill-opacity="0.0" fill-rule="evenodd" stroke="none"/>
    <path d="M1.65 -0.05 Q1.65 1.55 0.05 1.55 -1.7 1.55 -1.7 -0.05 -1.7 -0.75 -1.2 -1.2 -0.65 -1.7 0.05 -1.7 0.7 -1.7 1.2 -1.2 L1.65 -0.05 M3.2 -0.05 Q3.2 1.25 2.25 2.2 1.35 3.2 0.05 3.2 -1.3 3.2 -2.25 2.2 -3.2 1.25 -3.2 -0.05 -3.2 -1.4 -2.25 -2.25 -1.3 -3.2 0.05 -3.2 1.35 -3.2 2.25 -2.25 3.2 -1.3 3.2 -0.05" fill="none" stroke="#000000" stroke-linecap="butt" stroke-linejoin="miter-clip" stroke-miterlimit="4.0" stroke-opacity="0.6" stroke-width="1.0"/>
  </g>
</svg>
