<?xml version="1.0" encoding="UTF-8" standalone="no"?>
<svg xmlns:xlink="http://www.w3.org/1999/xlink" height="144.2px" width="113.4px" xmlns="http://www.w3.org/2000/svg">
  <g transform="matrix(1.0, 0.0, 0.0, 1.0, 48.4, 72.75)">
    <path d="M4.95 -71.35 L3.85 -56.65 Q2.85 -47.45 -0.55 -43.05 -2.35 -40.7 -10.6 -36.3 -16.65 -33.0 -18.3 -25.85 -18.7 -23.4 -18.6 -21.75 -17.9 -15.4 -8.8 -11.85 5.2 -7.45 11.4 -4.25 22.1 1.25 24.6 11.7 25.55 15.65 24.2 20.9 L22.1 30.1 Q21.15 36.55 23.2 43.05 25.3 49.2 29.7 54.3 36.7 62.15 52.1 64.2 L59.1 64.9 Q62.95 65.6 65.0 68.05 59.4 65.7 53.9 65.85 L43.15 67.1 Q40.7 67.5 32.0 64.5 24.45 61.85 22.0 63.95 L24.85 66.4 Q26.5 68.05 26.8 69.7 22.1 73.15 17.05 69.85 12.65 66.95 10.55 61.45 8.65 56.5 9.75 47.45 L11.65 32.85 12.1 20.05 Q11.55 13.05 7.55 8.5 3.95 4.55 -5.1 0.4 -16.5 -4.7 -19.0 -6.35 -23.95 -9.65 -31.1 -7.3 -38.8 -4.8 -42.8 -6.6 -48.15 -9.1 -48.4 -17.9 -48.55 -24.9 -45.95 -31.35 -42.5 -39.45 -32.35 -48.8 -19.15 -60.9 -16.4 -64.5 L-12.4 -70.0 Q-10.6 -72.05 -7.15 -72.6 -3.85 -73.15 4.95 -71.35" fill="#ffffff" fill-opacity="0.0" fill-rule="evenodd" stroke="none"/>
  </g>
</svg>
