<?xml version="1.0" encoding="UTF-8" standalone="no"?>
<svg xmlns:xlink="http://www.w3.org/1999/xlink" height="436.3px" width="45.9px" xmlns="http://www.w3.org/2000/svg">
  <g transform="matrix(1.0, 0.0, 0.0, 1.0, 23.6, 218.15)">
    <path d="M4.45 101.85 L6.9 106.55 6.95 106.6 7.15 106.95 10.45 111.7 10.95 112.3 12.25 113.9 Q7.7 108.85 4.35 101.85 L4.45 101.85" fill="#dbc282" fill-rule="evenodd" stroke="none"/>
    <path d="M-23.1 176.35 L-23.1 175.55 -23.05 175.55 -23.1 176.35" fill="#bda971" fill-rule="evenodd" stroke="none"/>
    <path d="M-2.1 -0.5 L-2.1 -217.65 0.9 -217.65 0.9 -0.5 -0.6 -0.65 -2.1 -0.5 -0.6 -0.65 0.9 -0.5 Q2.75 -0.1 4.1 1.35 6.1 3.25 6.1 6.05 6.1 8.85 4.1 10.75 L3.5 11.35 3.5 17.65 3.0 17.65 Q3.3 23.35 -1.8 25.65 L1.5 28.85 Q4.8 32.75 5.0 36.65 L1.6 63.65 Q-1.2 92.55 1.8 101.85 L0.5 101.85 2.5 107.85 Q5.2 114.55 8.3 117.75 L13.9 117.75 15.9 119.75 1.9 119.75 2.9 123.05 Q3.2 127.05 0.2 130.95 L0.2 148.85 6.2 157.95 Q12.5 168.45 13.7 175.25 L13.55 175.55 -23.05 175.55 Q-22.55 168.05 -16.0 158.55 -11.9 152.55 -7.4 148.25 L-7.4 137.05 Q-7.4 135.15 -9.2 133.05 L-11.1 131.35 Q-16.4 130.5 -18.4 125.4 L-18.6 124.85 -19.4 119.45 -18.4 118.65 Q-12.9 114.05 -8.2 106.55 L-5.55 101.85 -5.9 101.85 Q-4.7 83.45 -8.2 59.55 -11.0 40.35 -13.0 36.35 -13.9 34.45 -9.8 29.65 L-5.5 25.15 Q-8.3 23.25 -10.2 20.25 L-11.5 17.65 -4.8 17.65 -4.8 11.3 -5.4 10.75 Q-7.4 8.85 -7.4 6.05 -7.4 3.25 -5.4 1.35 -3.95 -0.1 -2.1 -0.5 M2.35 204.45 Q3.45 204.9 4.4 205.85 6.4 207.95 6.4 210.75 6.4 213.65 4.4 215.65 2.4 217.65 -0.5 217.65 -3.3 217.65 -5.4 215.65 -7.4 213.65 -7.4 210.75 -7.4 207.95 -5.4 205.85 -4.55 205.05 -3.6 204.6 -2.2 203.85 -0.5 203.85 1.05 203.85 2.35 204.45 M-4.8 17.65 L3.0 17.65 -4.8 17.65 M-4.8 11.3 Q-3.0 12.75 -0.6 12.75 1.75 12.75 3.5 11.35 1.75 12.75 -0.6 12.75 -3.0 12.75 -4.8 11.3 M-5.55 101.85 L0.5 101.85 -5.55 101.85" fill="#ffffff" fill-opacity="0.0" fill-rule="evenodd" stroke="none"/>
    <path d="M3.5 17.65 L10.2 17.65 Q8.7 22.15 4.2 25.15 L8.5 29.65 Q12.6 34.45 11.7 36.35 9.7 40.35 6.9 59.55 3.4 83.45 4.6 101.85 L4.45 101.85 4.35 101.85 Q7.7 108.85 12.25 113.9 L12.5 114.15 18.1 119.45 17.3 124.85 Q15.4 130.45 9.8 131.35 8.9 132.05 8.0 133.05 6.1 135.15 6.1 137.05 L6.1 148.25 Q10.6 152.55 14.7 158.55 21.55 168.5 21.8 176.25 L21.8 176.35 Q17.4 179.95 12.8 185.35 3.65 195.85 2.35 204.45 1.05 203.85 -0.5 203.85 -2.2 203.85 -3.6 204.6 -4.9 195.95 -14.1 185.35 L-23.1 176.35 -23.05 175.55 13.55 175.55 13.7 175.25 Q12.5 168.45 6.2 157.95 L0.2 148.85 0.2 130.95 Q3.2 127.05 2.9 123.05 L1.9 119.75 15.9 119.75 13.9 117.75 8.3 117.75 Q5.2 114.55 2.5 107.85 L0.5 101.85 1.8 101.85 Q-1.2 92.55 1.6 63.65 L5.0 36.65 Q4.8 32.75 1.5 28.85 L-1.8 25.65 Q3.3 23.35 3.0 17.65 L3.5 17.65 M1.8 101.85 L4.35 101.85 1.8 101.85" fill="#000000" fill-opacity="0.2" fill-rule="evenodd" stroke="none"/>
    <path d="M-23.05 175.55 Q-22.55 168.05 -16.0 158.55 -11.9 152.55 -7.4 148.25 L-7.4 137.05 Q-7.4 135.15 -9.2 133.05 L-11.1 131.35 Q-16.4 130.5 -18.4 125.4 L-18.6 124.85 -19.4 119.45 -18.4 118.65 Q-12.9 114.05 -8.2 106.55 L-5.55 101.85 -5.9 101.85 Q-4.7 83.45 -8.2 59.55 -11.0 40.35 -13.0 36.35 -13.9 34.45 -9.8 29.65 L-5.5 25.15 Q-8.3 23.25 -10.2 20.25 L-11.5 17.65 -4.8 17.65 -4.8 11.3 -5.4 10.75 Q-7.4 8.85 -7.4 6.05 -7.4 3.25 -5.4 1.35 -3.95 -0.1 -2.1 -0.5 M4.45 101.85 L4.35 101.85 M12.25 113.9 L10.95 112.3 10.45 111.7 M-23.05 175.55 L-23.1 176.35 M10.95 112.3 L11.6 113.1 M12.5 114.15 L12.25 113.9" fill="none" stroke="#000000" stroke-linecap="butt" stroke-linejoin="miter-clip" stroke-miterlimit="10.0" stroke-width="1.0"/>
    <path d="M-2.1 -0.5 L-0.6 -0.65 0.9 -0.5 M3.0 17.65 L-4.8 17.65 M4.35 101.85 L1.8 101.85 0.5 101.85 -5.55 101.85 M3.5 11.35 Q1.75 12.75 -0.6 12.75 -3.0 12.75 -4.8 11.3 M-3.6 204.6 Q-2.2 203.85 -0.5 203.85 1.05 203.85 2.35 204.45" fill="none" stroke="#000000" stroke-linecap="butt" stroke-linejoin="miter-clip" stroke-miterlimit="10.0" stroke-opacity="0.6" stroke-width="1.0"/>
    <path d="M0.9 -0.5 L0.9 -217.65 -2.1 -217.65 -2.1 -0.5" fill="none" stroke="#000000" stroke-linecap="butt" stroke-linejoin="miter-clip" stroke-miterlimit="10.0" stroke-opacity="0.4" stroke-width="1.0"/>
    <path d="M0.9 -0.5 Q2.75 -0.1 4.1 1.35 6.1 3.25 6.1 6.05 6.1 8.85 4.1 10.75 L3.5 11.35 3.5 17.65 3.0 17.65" fill="none" stroke="#000000" stroke-linecap="butt" stroke-linejoin="miter-clip" stroke-miterlimit="10.0" stroke-width="1.0"/>
    <path d="M3.5 17.65 L10.2 17.65 Q8.7 22.15 4.2 25.15 L8.5 29.65 Q12.6 34.45 11.7 36.35 9.7 40.35 6.9 59.55 3.4 83.45 4.6 101.85 L4.45 101.85 6.9 106.55 6.95 106.6 7.15 106.95 10.45 111.7 11.6 113.1 12.5 114.15 18.1 119.45 17.3 124.85 Q15.4 130.45 9.8 131.35 8.9 132.05 8.0 133.05 6.1 135.15 6.1 137.05 L6.1 148.25 Q10.6 152.55 14.7 158.55 21.55 168.5 21.8 176.25 L21.8 176.35 Q17.4 179.95 12.8 185.35 3.65 195.85 2.35 204.45 3.45 204.9 4.4 205.85 6.4 207.95 6.4 210.75 6.4 213.65 4.4 215.65 2.4 217.65 -0.5 217.65 -3.3 217.65 -5.4 215.65 -7.4 213.65 -7.4 210.75 -7.4 207.95 -5.4 205.85 -4.55 205.05 -3.6 204.6 -4.9 195.95 -14.1 185.35 L-23.1 176.35" fill="none" stroke="#000000" stroke-linecap="round" stroke-linejoin="miter-clip" stroke-miterlimit="10.0" stroke-width="1.0"/>
    <path d="M-8.8 36.05 L-5.8 59.15 Q-2.8 85.05 -3.2 99.25 -4.2 85.25 -5.7 70.35 -8.7 40.65 -11.3 36.05 L-8.8 36.05 M-2.6 205.55 Q-4.0 208.05 -3.2 212.05 -2.8 213.95 -2.1 215.45 -6.5 212.95 -5.0 209.05 L-2.6 205.55 M-5.4 149.45 Q-12.3 159.65 -14.4 168.65 -15.5 173.15 -15.2 175.55 L-20.0 175.55 Q-19.5 167.65 -12.4 157.75 -8.8 152.85 -5.4 149.45 M-4.0 103.45 Q-4.6 108.75 -9.1 114.65 L-13.6 119.45 Q-14.3 122.95 -12.6 126.65 L-10.7 129.55 Q-15.6 128.35 -16.5 123.35 L-16.4 118.55 Q-12.8 116.45 -8.1 109.75 -5.7 106.45 -4.0 103.45 M-1.5 1.35 Q-4.1 2.85 -4.4 6.25 -4.6 7.85 -4.3 9.25 -6.5 5.65 -4.2 3.15 -3.1 1.85 -1.5 1.35" fill="#ffffff" fill-rule="evenodd" stroke="none"/>
  </g>
</svg>
