<?xml version="1.0" encoding="UTF-8" standalone="no"?>
<svg xmlns:xlink="http://www.w3.org/1999/xlink" height="721.25px" width="608.5px" xmlns="http://www.w3.org/2000/svg">
  <g transform="matrix(1.0, 0.0, 0.0, 1.0, 304.25, 360.65)">
    <path d="M214.15 -233.3 Q220.4 -220.05 224.4 -207.75 228.65 -71.65 238.5 -25.3 243.55 -2.15 247.55 -6.4 274.35 -6.4 291.65 6.9 300.55 13.35 303.75 20.0 L303.75 346.8 267.3 360.1 36.35 356.65 -260.85 336.95 -260.85 -138.5 Q-260.85 -146.75 -275.55 -146.55 L-290.45 -144.9 -303.75 -359.55 Q-292.25 -363.4 -256.25 -341.65 -215.95 -317.5 -211.3 -316.7 -194.8 -313.45 -132.0 -286.9 L-72.6 -280.45 Q-51.85 -278.2 -23.85 -270.95 -9.95 -267.15 -0.1 -263.9 L24.25 -265.55 75.8 -267.15 Q112.25 -267.15 151.95 -263.9 L191.4 -263.9 Q201.65 -259.7 214.15 -233.3" fill="#ffffff" fill-opacity="0.0" fill-rule="evenodd" stroke="none"/>
    <path d="M214.15 -233.3 Q201.65 -259.7 191.4 -263.9 L151.95 -263.9 Q112.25 -267.15 75.8 -267.15 L24.25 -265.55 -0.1 -263.9 Q-9.95 -267.15 -23.85 -270.95 -51.85 -278.2 -72.6 -280.45 L-132.0 -286.9 Q-194.8 -313.45 -211.3 -316.7 -215.95 -317.5 -256.25 -341.65 -292.25 -363.4 -303.75 -359.55 L-290.45 -144.9 -275.55 -146.55 Q-260.85 -146.75 -260.85 -138.5 L-260.85 336.95 36.35 356.65 267.3 360.1 303.75 346.8 303.75 20.0 Q300.55 13.35 291.65 6.9 274.35 -6.4 247.55 -6.4 243.55 -2.15 238.5 -25.3 228.65 -71.65 224.4 -207.75 220.4 -220.05 214.15 -233.3 Z" fill="none" stroke="#000000" stroke-linecap="butt" stroke-linejoin="miter-clip" stroke-miterlimit="4.0" stroke-opacity="0.2" stroke-width="1.0"/>
    <path d="M92.1 -131.05 Q83.65 -236.35 82.45 -243.8 L94.15 -188.0 104.0 -250.65 120.5 -164.85 Q122.1 -177.55 123.95 -189.85 127.15 -214.2 127.15 -211.15 L127.15 -9.8 104.0 -212.8 100.6 -22.9 Q96.55 -76.45 92.1 -131.05 M193.2 -221.05 L203.05 3.5 Q194.8 -37.8 189.4 -86.55 178.7 -184.0 193.2 -221.05 M-100.8 -120.35 L-104.0 -235.95 -113.85 -62.55 -117.3 -164.85 -130.4 -65.8 -132.0 -255.65 -125.55 -173.1 -123.75 -267.15 -117.3 -183.0 -110.65 -275.4 -102.4 -247.4 -94.15 -263.9 -100.8 -120.35 M-254.2 -214.4 L-264.1 -161.65 -260.85 -324.95 -254.2 -254.05 -245.95 -311.85 -242.75 -161.65 -254.2 -214.4 M-57.7 -245.8 Q-44.4 -223.05 -48.0 -147.95 -49.85 -110.5 -54.45 -77.45 L-57.7 -245.8 M-14.8 -254.05 Q-9.55 -246.8 -10.95 -149.75 -11.6 -101.25 -13.2 -54.3 L-14.8 -254.05 M-33.1 -183.0 Q-24.85 -164.45 -28.1 -112.5 -29.7 -86.55 -33.1 -64.2 L-33.1 -183.0" fill="#000000" fill-opacity="0.2" fill-rule="evenodd" stroke="none"/>
    <path d="M-244.55 26.65 Q-244.35 81.8 -245.35 132.55 L-250.2 -106.25 Q-244.75 -83.9 -244.55 26.65" fill="#ffffff" fill-rule="evenodd" stroke="none"/>
    <path d="M174.1 -208.55 L174.1 -27.95 M161.8 -240.75 L161.8 -20.5 M183.95 110.8 L183.95 276.7 M169.25 36.5 L169.25 237.05 M280.6 66.1 L280.6 313.75 M-73.4 -235.95 L-73.4 -77.45 M-167.65 -238.35 L-167.65 -154.2 M-269.1 -337.2 L-269.1 -156.6 M-231.85 -290.3 L-231.85 -156.6" fill="none" stroke="#000000" stroke-linecap="butt" stroke-linejoin="miter-clip" stroke-miterlimit="4.0" stroke-opacity="0.2" stroke-width="1.0"/>
    <path d="M151.95 6.7 L191.4 16.75 Q199.65 18.8 215.95 19.8 233.25 20.8 238.5 19.2 243.35 17.55 250.0 40.35 255.85 60.45 255.85 68.7 L255.85 246.9 151.95 6.7" fill="#ffffff" fill-opacity="0.0" fill-rule="evenodd" stroke="none"/>
    <path d="M255.85 246.9 L255.85 68.7 Q255.85 60.45 250.0 40.35 243.35 17.55 238.5 19.2 233.25 20.8 215.95 19.8 199.65 18.8 191.4 16.75 L151.95 6.7" fill="none" stroke="#000000" stroke-linecap="butt" stroke-linejoin="miter-clip" stroke-miterlimit="4.0" stroke-opacity="0.2" stroke-width="1.0"/>
    <path d="M220.6 83.8 Q217.95 65.3 217.95 56.45 219.2 70.15 223.8 78.6 229.05 63.1 227.85 57.25 235.65 91.9 233.1 93.9 235.9 91.85 237.3 87.25 239.3 81.2 240.1 79.8 242.75 107.4 242.75 149.45 242.55 140.0 240.5 124.5 238.1 105.35 237.9 97.3 235.1 101.35 233.25 107.6 232.05 111.6 231.85 115.25 231.85 101.15 227.65 88.45 223.6 97.3 223.0 110.4 223.0 100.75 220.6 83.8" fill="#ffffff" fill-rule="evenodd" stroke="none"/>
    <path d="M211.35 68.7 L211.35 140.4" fill="none" stroke="#000000" stroke-linecap="butt" stroke-linejoin="miter-clip" stroke-miterlimit="4.0" stroke-opacity="0.2" stroke-width="1.0"/>
    <path d="M-142.85 -65.0 L-88.3 -52.7 Q-82.25 -51.3 -61.3 -48.65 -49.45 -47.05 -43.8 -42.85 -38.75 -39.0 -24.85 -30.75 -13.0 -22.3 -11.6 -13.05 -9.95 -3.75 -10.55 157.1 -10.95 237.65 -11.6 316.2 L-142.85 -65.0" fill="#ffffff" fill-opacity="0.0" fill-rule="evenodd" stroke="none"/>
    <path d="M-142.85 -65.0 L-88.3 -52.7 Q-82.25 -51.3 -61.3 -48.65 -49.45 -47.05 -43.8 -42.85 -38.75 -39.0 -24.85 -30.75 -13.0 -22.3 -11.6 -13.05 -9.95 -3.75 -10.55 157.1 -10.95 237.65 -11.6 316.2" fill="none" stroke="#000000" stroke-linecap="butt" stroke-linejoin="miter-clip" stroke-miterlimit="4.0" stroke-opacity="0.2" stroke-width="1.0"/>
    <path d="M-87.1 169.0 L-82.45 -6.4 Q-73.2 49.2 -80.25 152.5 -83.65 204.05 -89.1 244.5 L-87.15 170.7 -87.1 172.2 -87.1 169.0 M-125.55 -46.05 L-125.55 256.0 Q-131.2 200.8 -134.2 135.35 -139.85 4.5 -125.55 -46.05" fill="#000000" fill-opacity="0.2" fill-rule="evenodd" stroke="none"/>
    <path d="M-87.15 170.7 L-88.7 123.7 Q-90.5 75.15 -90.7 54.4 -92.95 64.1 -94.35 80.4 -95.15 90.45 -95.35 99.55 -95.35 63.3 -98.55 31.45 -101.6 53.8 -102.0 81.4 -102.2 58.05 -103.8 19.8 -105.8 -27.35 -105.8 -50.3 -104.6 -13.25 -101.4 6.5 -97.55 -34.6 -98.35 -48.85 L-95.35 -0.15 Q-92.95 41.75 -94.35 45.75 -92.3 40.35 -91.1 -1.15 -89.9 -45.25 -89.1 -49.3 -87.3 21.65 -87.1 169.0 L-87.1 172.2 -87.15 170.7" fill="#ffffff" fill-rule="evenodd" stroke="none"/>
    <path d="M-113.05 -13.05 L-113.05 328.65" fill="none" stroke="#000000" stroke-linecap="butt" stroke-linejoin="miter-clip" stroke-miterlimit="4.0" stroke-opacity="0.2" stroke-width="1.0"/>
    <path d="M9.95 18.4 L19.85 77.8 28.1 5.1 29.7 264.25 19.85 114.0 Q19.85 109.8 14.0 176.05 L8.15 242.9 9.95 18.4" fill="#000000" fill-opacity="0.2" fill-rule="evenodd" stroke="none"/>
    <path d="M-227.05 -112.1 L-227.05 194.95" fill="none" stroke="#000000" stroke-linecap="butt" stroke-linejoin="miter-clip" stroke-miterlimit="4.0" stroke-opacity="0.2" stroke-width="1.0"/>
    <path d="M-207.1 256.8 L-204.7 -89.75" fill="none" stroke="#000000" stroke-linecap="butt" stroke-linejoin="miter-clip" stroke-miterlimit="4.0" stroke-opacity="0.2" stroke-width="1.0"/>
  </g>
</svg>
