<?xml version="1.0" encoding="UTF-8" standalone="no"?>
<svg xmlns:xlink="http://www.w3.org/1999/xlink" height="163.85px" width="688.3px" xmlns="http://www.w3.org/2000/svg">
  <g transform="matrix(1.0, 0.0, 0.0, 1.0, 397.05, -77.15)">
    <path d="M-294.6 227.25 Q-335.7 227.25 -347.15 226.85 -337.5 198.85 -356.65 192.6 -384.4 189.15 -396.5 180.3 -388.85 160.2 -372.55 154.35 -360.45 149.7 -338.9 152.5 L-302.05 158.15 Q-280.9 160.4 -268.45 154.15 -256.35 148.3 -251.9 127.95 -247.3 107.4 -242.05 104.6 -229.35 97.55 -224.75 115.25 -222.5 124.15 -221.3 134.2 -206.8 132.0 -197.15 142.65 -185.65 155.75 -179.25 157.15 -173.6 158.55 -152.45 155.35 -128.5 151.5 -123.05 151.5 -113.0 151.3 -99.5 145.5 -92.05 142.05 -77.35 134.6 -51.55 122.5 -38.1 137.85 -30.65 127.55 -15.5 117.9 3.0 106.2 11.85 112.25 17.3 116.1 17.1 131.8 17.1 140.25 16.1 154.15 45.3 158.75 53.15 143.85 56.95 136.8 59.2 102.2 L72.85 108.0 Q80.1 112.05 84.35 118.1 88.4 96.35 100.65 85.45 111.55 76.0 124.2 78.0 136.5 79.85 142.15 91.1 148.4 103.6 142.15 121.1 173.95 121.7 181.8 123.75 204.35 129.55 200.95 150.9 229.95 140.25 244.25 139.25 269.4 137.4 282.5 155.75 292.55 169.65 290.35 200.65 288.1 233.25 273.2 240.5 L-294.6 227.25" fill="#ffffff" fill-rule="evenodd" stroke="none"/>
    <path d="M-294.6 227.25 Q-335.7 227.25 -347.15 226.85 -337.5 198.85 -356.65 192.6 -384.4 189.15 -396.5 180.3 -388.85 160.2 -372.55 154.35 -360.45 149.7 -338.9 152.5 L-302.05 158.15 Q-280.9 160.4 -268.45 154.15 -256.35 148.3 -251.9 127.95 -247.3 107.4 -242.05 104.6 -229.35 97.55 -224.75 115.25 -222.5 124.15 -221.3 134.2 -206.8 132.0 -197.15 142.65 -185.65 155.75 -179.25 157.15 -173.6 158.55 -152.45 155.35 -128.5 151.5 -123.05 151.5 -113.0 151.3 -99.5 145.5 -92.05 142.05 -77.35 134.6 -51.55 122.5 -38.1 137.85 -30.65 127.55 -15.5 117.9 3.0 106.2 11.85 112.25 17.3 116.1 17.1 131.8 17.1 140.25 16.1 154.15 45.3 158.75 53.15 143.85 56.95 136.8 59.2 102.2 L72.85 108.0 Q80.1 112.05 84.35 118.1 88.4 96.35 100.65 85.45 111.55 76.0 124.2 78.0 136.5 79.85 142.15 91.1 148.4 103.6 142.15 121.1 173.95 121.7 181.8 123.75 204.35 129.55 200.95 150.9 229.95 140.25 244.25 139.25 269.4 137.4 282.5 155.75 292.55 169.65 290.35 200.65 288.1 233.25 273.2 240.5" fill="none" stroke="#000000" stroke-linecap="butt" stroke-linejoin="miter-clip" stroke-miterlimit="10.0" stroke-opacity="0.2" stroke-width="1.0"/>
  </g>
</svg>
