<?xml version="1.0" encoding="UTF-8" standalone="no"?>
<svg xmlns:xlink="http://www.w3.org/1999/xlink" height="252.5px" width="173.2px" xmlns="http://www.w3.org/2000/svg">
  <g transform="matrix(1.0, 0.0, 0.0, 1.0, 73.05, 147.25)">
    <path d="M29.4 -101.65 Q33.65 -100.7 34.55 -103.25 L34.65 -93.35 37.0 -93.55 39.3 -93.95 Q39.2 -89.7 42.85 -89.1 46.1 -88.5 49.5 -90.7 50.95 -87.6 54.1 -83.15 L56.8 -79.3 53.45 -79.8 Q52.65 -80.1 51.85 -82.45 48.0 -77.05 46.0 -79.6 43.95 -83.85 42.05 -85.05 37.3 -87.9 35.95 -85.95 34.75 -84.55 35.25 -78.5 L32.35 -78.8 Q30.9 -78.9 29.7 -80.0 27.7 -75.45 23.25 -75.85 18.7 -76.25 18.6 -81.6 14.15 -81.2 9.8 -86.45 L9.5 -78.5 Q7.3 -80.4 6.55 -81.4 L5.55 -76.75 Q5.05 -73.95 3.85 -72.45 L2.15 -75.65 Q2.45 -70.0 -2.2 -68.8 -6.75 -67.7 -5.35 -74.15 L-8.5 -73.55 Q-8.4 -74.75 -8.6 -77.6 -8.9 -80.2 -8.7 -81.6 L-11.8 -81.8 -7.15 -91.5 Q-12.0 -88.4 -15.95 -91.3 -16.65 -87.8 -19.9 -85.55 -23.05 -83.35 -26.65 -83.55 -27.0 -86.05 -26.85 -87.3 -27.6 -84.75 -29.9 -83.45 -32.05 -82.25 -34.85 -82.45 -34.75 -78.2 -38.0 -74.95 -41.55 -71.4 -44.85 -74.85 -45.65 -70.1 -49.3 -69.6 -52.85 -69.1 -53.55 -74.15 L-56.6 -72.85 Q-56.2 -75.45 -57.3 -77.9 -58.5 -80.3 -60.7 -81.6 -60.0 -74.45 -64.95 -70.8 L-66.8 -73.55 Q-67.6 -75.15 -67.4 -77.3 L-69.8 -75.95 Q-70.75 -80.5 -68.6 -84.25 -74.05 -84.55 -71.95 -86.45 L-67.5 -89.2 Q-65.9 -90.3 -62.55 -90.9 -60.4 -91.85 -61.85 -96.35 -67.3 -95.75 -66.6 -98.8 -66.3 -100.6 -62.85 -105.15 -60.85 -101.95 -58.6 -100.0 -56.0 -97.85 -55.15 -99.35 L-56.0 -95.85 -56.6 -91.75 -54.15 -91.5 -51.85 -91.4 Q-50.5 -86.25 -47.0 -88.7 -43.45 -91.1 -44.15 -95.55 -38.9 -94.55 -37.9 -99.5 -37.1 -103.95 -39.8 -108.1 -36.05 -105.65 -32.55 -107.0 -28.8 -108.4 -29.2 -112.95 -28.0 -110.1 -25.65 -108.8 -23.15 -107.6 -20.4 -108.7 -24.25 -103.25 -23.45 -95.85 -21.1 -95.55 -19.0 -97.1 -17.15 -98.5 -16.25 -100.6 -17.7 -93.25 -12.55 -93.65 -7.35 -94.05 -8.5 -101.2 -4.05 -96.9 -2.0 -100.2 -0.2 -103.15 -1.8 -107.9 0.2 -104.95 3.45 -105.45 6.75 -106.05 8.1 -109.5 7.8 -106.6 5.85 -101.55 3.95 -96.25 3.65 -93.85 3.05 -88.7 5.45 -87.5 8.2 -86.05 12.15 -90.8 15.45 -88.2 18.4 -89.8 21.3 -91.4 20.6 -95.65 21.55 -94.65 23.35 -94.15 25.55 -93.65 26.05 -93.35 27.2 -99.6 23.45 -105.25 25.35 -102.55 29.4 -101.65" fill="#000000" fill-opacity="0.2" fill-rule="evenodd" stroke="none"/>
    <path d="M33.55 -137.1 Q33.45 -135.05 31.85 -132.05 30.0 -128.8 29.7 -127.4 L32.95 -128.4 Q34.75 -129.1 35.95 -130.45 37.6 -128.3 40.7 -128.6 44.15 -128.9 45.25 -127.9 47.8 -125.8 47.2 -122.75 46.4 -119.3 47.2 -118.1 49.6 -114.25 55.7 -116.4 60.65 -118.0 61.85 -110.9 67.4 -114.95 69.8 -109.0 70.75 -106.8 69.95 -104.95 68.9 -103.0 66.4 -102.95 72.15 -102.9 72.25 -97.4 72.45 -91.75 66.5 -90.7 63.95 -90.3 59.2 -91.95 54.05 -93.75 52.15 -93.75 52.95 -91.3 55.6 -86.9 57.5 -82.75 56.8 -79.3 L53.45 -79.8 Q52.65 -80.1 51.85 -82.45 48.0 -77.05 46.0 -79.6 43.95 -83.85 42.05 -85.05 37.3 -87.9 35.95 -85.95 34.75 -84.55 35.25 -78.5 L32.35 -78.8 Q30.9 -78.9 29.7 -80.0 27.7 -75.45 23.25 -75.85 18.7 -76.25 18.6 -81.6 14.15 -81.2 9.8 -86.45 L9.5 -78.5 Q7.3 -80.4 6.55 -81.4 L5.55 -76.75 Q5.05 -73.95 3.85 -72.45 L2.15 -75.65 Q2.45 -70.0 -2.2 -68.8 -6.75 -67.7 -5.35 -74.15 L-8.5 -73.55 Q-8.4 -74.75 -8.6 -77.6 -8.9 -80.2 -8.7 -81.6 L-11.8 -81.8 -7.15 -91.5 Q-12.0 -88.4 -15.95 -91.3 -16.65 -87.8 -19.9 -85.55 -23.05 -83.35 -26.65 -83.55 -27.0 -86.05 -26.85 -87.3 -27.6 -84.75 -29.9 -83.45 -32.05 -82.25 -34.85 -82.45 -34.75 -78.2 -38.0 -74.95 -41.55 -71.4 -44.85 -74.85 -45.65 -70.1 -49.3 -69.6 -52.85 -69.1 -53.55 -74.15 L-56.6 -72.85 Q-56.2 -75.45 -57.3 -77.9 -58.5 -80.3 -60.7 -81.6 -60.0 -74.45 -64.95 -70.8 L-66.8 -73.55 Q-67.6 -75.15 -67.4 -77.3 L-69.8 -75.95 Q-70.75 -80.5 -68.6 -84.25 -74.05 -84.55 -71.95 -86.45 L-67.5 -89.2 Q-65.9 -90.3 -62.55 -90.9 -60.4 -91.85 -61.85 -96.35 -69.1 -95.45 -65.35 -101.65 -59.8 -108.5 -59.9 -109.7 -54.45 -108.5 -50.9 -109.1 L-54.35 -113.15 Q-55.95 -115.45 -55.75 -118.0 L-51.75 -117.8 -47.7 -117.4 Q-47.8 -118.2 -47.5 -120.2 -47.2 -122.25 -47.4 -122.95 -43.55 -119.9 -39.2 -120.75 L-39.1 -122.65 Q-39.0 -123.95 -39.2 -124.55 L-35.45 -124.65 Q-38.3 -124.85 -35.45 -128.4 -32.85 -131.65 -31.2 -132.35 -27.6 -133.65 -24.35 -132.25 -21.2 -130.85 -19.6 -127.4 -19.5 -132.65 -16.55 -133.15 L-9.6 -132.35 Q-10.4 -137.3 -7.9 -139.7 -5.25 -142.25 -1.7 -137.4 0.8 -143.75 4.65 -141.05 8.6 -138.2 6.45 -132.45 10.5 -128.8 12.35 -132.25 13.35 -134.25 14.85 -139.4 15.35 -137.9 17.4 -134.95 19.5 -143.25 24.25 -145.0 29.3 -146.8 28.9 -136.4 L31.35 -136.8 33.55 -137.1" fill="#ffffff" fill-opacity="0.0" fill-rule="evenodd" stroke="none"/>
    <path d="M33.55 -137.1 L31.35 -136.8 28.9 -136.4 Q29.3 -146.8 24.25 -145.0 19.5 -143.25 17.4 -134.95 15.35 -137.9 14.85 -139.4 13.35 -134.25 12.35 -132.25 10.5 -128.8 6.45 -132.45 8.6 -138.2 4.65 -141.05 0.8 -143.75 -1.7 -137.4 -5.25 -142.25 -7.9 -139.7 -10.4 -137.3 -9.6 -132.35 L-16.55 -133.15 Q-19.5 -132.65 -19.6 -127.4 -21.2 -130.85 -24.35 -132.25 -27.6 -133.65 -31.2 -132.35 -32.85 -131.65 -35.45 -128.4 -38.3 -124.85 -35.45 -124.65 L-39.2 -124.55 Q-39.0 -123.95 -39.1 -122.65 L-39.2 -120.75 Q-43.55 -119.9 -47.4 -122.95 -47.2 -122.25 -47.5 -120.2 -47.8 -118.2 -47.7 -117.4 L-51.75 -117.8 -55.75 -118.0 Q-55.95 -115.45 -54.35 -113.15 L-50.9 -109.1 Q-54.45 -108.5 -59.9 -109.7 -59.8 -108.5 -65.35 -101.65 -69.1 -95.45 -61.85 -96.35 -60.4 -91.85 -62.55 -90.9 -65.9 -90.3 -67.5 -89.2 L-71.95 -86.45 Q-74.05 -84.55 -68.6 -84.25 -70.75 -80.5 -69.8 -75.95 L-67.4 -77.3 Q-67.6 -75.15 -66.8 -73.55 L-64.95 -70.8 Q-60.0 -74.45 -60.7 -81.6 -58.5 -80.3 -57.3 -77.9 -56.2 -75.45 -56.6 -72.85 L-53.55 -74.15 Q-52.85 -69.1 -49.3 -69.6 -45.65 -70.1 -44.85 -74.85 -41.55 -71.4 -38.0 -74.95 -34.75 -78.2 -34.85 -82.45 -32.05 -82.25 -29.9 -83.45 -27.6 -84.75 -26.85 -87.3 -27.0 -86.05 -26.65 -83.55 -23.05 -83.35 -19.9 -85.55 -16.65 -87.8 -15.95 -91.3 -12.0 -88.4 -7.15 -91.5 L-11.8 -81.8 -8.7 -81.6 Q-8.9 -80.2 -8.6 -77.6 -8.4 -74.75 -8.5 -73.55 L-5.35 -74.15 Q-6.75 -67.7 -2.2 -68.8 2.45 -70.0 2.15 -75.65 L3.85 -72.45 Q5.05 -73.95 5.55 -76.75 L6.55 -81.4 Q7.3 -80.4 9.5 -78.5 L9.8 -86.45 Q14.15 -81.2 18.6 -81.6 18.7 -76.25 23.25 -75.85 27.7 -75.45 29.7 -80.0 30.9 -78.9 32.35 -78.8 L35.25 -78.5 Q34.75 -84.55 35.95 -85.95 37.3 -87.9 42.05 -85.05 43.95 -83.85 46.0 -79.6 48.0 -77.05 51.85 -82.45 52.65 -80.1 53.45 -79.8 L56.8 -79.3 Q57.5 -82.75 55.6 -86.9 52.95 -91.3 52.15 -93.75 54.05 -93.75 59.2 -91.95 63.95 -90.3 66.5 -90.7 72.45 -91.75 72.25 -97.4 72.15 -102.9 66.4 -102.95 68.9 -103.0 69.95 -104.95 70.75 -106.8 69.8 -109.0 67.4 -114.95 61.85 -110.9 60.65 -118.0 55.7 -116.4 49.6 -114.25 47.2 -118.1 46.4 -119.3 47.2 -122.75 47.8 -125.8 45.25 -127.9 44.15 -128.9 40.7 -128.6 37.6 -128.3 35.95 -130.45 34.75 -129.1 32.95 -128.4 L29.7 -127.4 Q30.0 -128.8 31.85 -132.05 33.45 -135.05 33.55 -137.1 Z" fill="none" stroke="#000000" stroke-linecap="butt" stroke-linejoin="miter-clip" stroke-miterlimit="10.0" stroke-opacity="0.6" stroke-width="1.0"/>
    <path d="M33.55 -137.1 Q33.45 -135.05 31.85 -132.05 30.0 -128.8 29.7 -127.4 L32.95 -128.4 Q34.75 -129.1 35.95 -130.45 37.4 -128.6 39.7 -128.6 L42.75 -128.8 Q44.35 -128.8 45.25 -127.9 47.8 -125.8 47.2 -122.75 46.4 -119.3 47.2 -118.1 48.9 -115.35 51.55 -115.35 52.75 -115.35 54.85 -116.1 57.1 -116.9 57.9 -116.9 60.85 -116.9 61.85 -110.9 63.55 -112.25 65.5 -112.25 69.6 -112.25 70.25 -107.6 70.95 -103.05 66.4 -102.95 72.15 -102.85 72.25 -97.4 72.45 -91.75 66.5 -90.7 L65.2 -90.7 Q62.95 -90.7 58.5 -92.25 54.15 -93.75 52.15 -93.75 52.95 -91.3 55.6 -86.9 57.5 -82.75 56.8 -79.3 L53.45 -79.8 Q52.65 -80.1 51.85 -82.45 49.1 -78.7 47.5 -78.7 46.3 -78.7 44.95 -81.2 43.25 -84.35 42.05 -85.05 39.2 -86.75 37.6 -86.75 35.75 -86.75 35.35 -84.55 34.95 -82.75 35.25 -78.5 L32.35 -78.8 Q30.9 -78.9 29.7 -80.0 27.9 -75.85 23.75 -75.85 21.65 -75.85 20.3 -77.3 18.7 -78.8 18.6 -81.6 L18.0 -81.5 Q13.85 -81.5 9.8 -86.45 L9.5 -78.5 Q7.3 -80.4 6.55 -81.4 L5.55 -76.75 Q5.05 -73.95 3.85 -72.45 L2.15 -75.65 Q2.25 -72.75 0.5 -70.6 -1.1 -68.8 -3.05 -68.8 -4.55 -68.8 -5.25 -70.1 -5.95 -71.5 -5.35 -74.15 L-8.5 -73.55 Q-8.4 -74.75 -8.6 -77.6 -8.9 -80.2 -8.7 -81.6 L-11.8 -81.8 -7.15 -91.5 Q-9.7 -90.0 -11.9 -90.0 -14.05 -90.0 -15.95 -91.3 -16.65 -87.9 -19.7 -85.65 -22.75 -83.45 -26.25 -83.45 L-26.65 -83.55 Q-27.0 -86.05 -26.85 -87.3 -28.4 -82.45 -34.25 -82.45 L-34.85 -82.45 Q-34.75 -79.4 -36.8 -76.35 -38.9 -73.25 -41.65 -73.25 -43.25 -73.25 -44.85 -74.85 -45.25 -72.45 -46.8 -71.0 -48.1 -69.6 -49.7 -69.6 -52.95 -69.6 -53.55 -74.15 L-56.6 -72.85 Q-56.2 -75.45 -57.3 -77.9 -58.5 -80.3 -60.7 -81.6 -60.0 -74.45 -64.95 -70.8 L-66.8 -73.55 Q-67.6 -75.15 -67.4 -77.3 L-69.8 -75.95 Q-70.75 -80.5 -68.6 -84.25 -74.05 -84.55 -71.95 -86.45 L-67.5 -89.2 Q-65.9 -90.3 -62.55 -90.9 -60.4 -91.85 -61.85 -96.35 L-63.55 -96.25 Q-68.8 -96.25 -64.95 -102.15 -59.8 -108.6 -59.9 -109.7 L-53.65 -108.9 -50.9 -109.1 -54.35 -113.15 Q-55.95 -115.45 -55.75 -118.0 L-51.75 -117.8 -47.7 -117.4 Q-47.8 -118.2 -47.5 -120.2 -47.2 -122.25 -47.4 -122.95 -44.45 -120.5 -41.0 -120.5 L-39.2 -120.75 -39.1 -122.65 Q-39.0 -123.95 -39.2 -124.55 L-35.45 -124.65 Q-38.3 -124.85 -35.45 -128.4 -32.85 -131.65 -31.2 -132.35 L-27.7 -132.95 Q-25.15 -132.95 -22.95 -131.45 -20.8 -130.0 -19.6 -127.4 -19.5 -130.75 -18.4 -132.15 -17.5 -133.25 -15.55 -133.25 L-9.6 -132.35 Q-10.1 -135.5 -9.0 -137.9 -8.0 -140.55 -6.05 -140.55 -4.05 -140.55 -1.7 -137.4 0.0 -141.75 2.75 -141.75 5.05 -141.75 6.35 -138.9 7.8 -135.9 6.45 -132.45 8.5 -130.55 10.0 -130.55 11.85 -130.55 12.95 -133.85 L14.85 -139.4 Q15.35 -137.9 17.4 -134.95 18.4 -139.2 20.8 -142.25 23.25 -145.3 25.35 -145.3 29.2 -145.3 28.9 -136.4 L31.35 -136.8 33.55 -137.1 Z" fill="none" stroke="#000000" stroke-linecap="butt" stroke-linejoin="miter-clip" stroke-miterlimit="10.0" stroke-opacity="0.6" stroke-width="1.0"/>
    <path d="M87.2 79.95 L93.15 81.45 Q97.5 82.55 99.55 81.95 99.75 85.4 97.8 89.05 95.8 92.8 92.95 94.0 91.95 90.35 89.0 89.25 86.0 88.15 85.4 92.7 85.3 93.7 87.5 99.75 88.6 104.3 83.15 100.05 82.35 103.8 79.95 104.6 77.3 105.3 77.2 100.95 72.85 102.6 71.05 100.45 L68.5 95.0 Q69.6 92.25 69.0 89.35 68.3 85.8 65.2 86.2 62.55 86.6 63.25 90.25 64.45 95.7 64.25 96.6 L60.45 98.05 56.4 99.05 55.05 96.8 52.35 95.8 51.75 90.65 Q51.15 87.95 49.8 86.1 48.2 87.2 48.2 89.35 48.0 91.75 47.4 92.6 46.7 93.6 45.8 94.0 44.65 94.4 44.35 94.7 41.45 97.35 40.4 97.85 38.3 98.95 35.35 98.25 35.55 97.55 35.55 94.9 35.55 92.8 36.2 91.45 L34.15 91.65 32.15 91.75 Q32.85 86.1 30.7 81.85 28.4 77.1 24.75 81.45 24.15 82.25 24.15 85.7 24.25 88.55 21.65 89.55 18.3 90.85 16.35 88.25 14.85 86.1 14.85 82.45 14.15 83.1 13.55 83.0 17.4 79.05 15.15 76.0 13.05 73.0 7.9 74.3 8.2 77.4 6.25 79.05 4.65 80.45 2.75 79.75 -2.5 77.7 4.35 68.95 L2.15 69.15 -0.2 69.15 Q-0.9 62.55 3.85 60.95 10.1 58.75 11.0 57.1 8.1 53.55 6.65 50.55 3.95 44.5 12.35 46.4 L12.15 44.4 Q18.4 45.9 23.55 47.7 20.7 50.05 20.6 54.4 20.5 60.45 20.0 61.85 24.55 62.75 27.9 59.65 28.5 65.5 32.85 63.05 37.1 60.75 34.35 55.8 37.6 57.7 43.25 57.3 43.25 59.85 42.45 65.1 41.65 69.85 41.95 73.2 44.85 74.8 46.6 73.5 48.2 72.05 47.5 68.75 48.9 70.15 50.55 70.35 L53.75 70.75 53.55 67.7 Q53.35 66.1 52.35 64.8 54.65 67.0 56.9 66.9 59.2 66.9 59.5 63.9 59.6 67.2 58.0 72.35 L61.85 72.05 Q61.65 73.0 61.95 75.1 62.25 77.2 62.15 78.05 64.75 78.35 66.0 76.9 67.1 75.5 66.8 72.75 68.3 75.1 70.75 75.7 73.15 76.2 75.6 75.0 74.55 81.05 75.1 84.5 77.6 84.0 83.75 86.2 88.3 87.0 87.2 79.95" fill="#000000" fill-opacity="0.2" fill-rule="evenodd" stroke="none"/>
    <path d="M92.95 94.0 Q91.95 90.35 89.0 89.25 86.0 88.15 85.4 92.7 85.3 93.7 87.5 99.75 88.6 104.3 83.15 100.05 82.35 103.8 79.95 104.6 77.3 105.3 77.2 100.95 72.85 102.6 71.05 100.45 L68.5 95.0 Q69.6 92.25 69.0 89.35 68.3 85.8 65.2 86.2 62.55 86.6 63.25 90.25 64.45 95.7 64.25 96.6 L60.45 98.05 56.4 99.05 55.05 96.8 52.35 95.8 51.75 90.65 Q51.15 87.95 49.8 86.1 48.2 87.2 48.2 89.35 48.0 91.75 47.4 92.6 46.7 93.6 45.8 94.0 44.65 94.4 44.35 94.7 41.45 97.35 40.4 97.85 38.3 98.95 35.35 98.25 35.55 97.55 35.55 94.9 35.55 92.8 36.2 91.45 L34.15 91.65 32.15 91.75 Q32.85 86.1 30.7 81.85 28.4 77.1 24.75 81.45 24.15 82.25 24.15 85.7 24.25 88.55 21.65 89.55 18.3 90.85 16.35 88.25 14.85 86.1 14.85 82.45 14.15 83.1 13.55 83.0 17.4 79.05 15.15 76.0 13.05 73.0 7.9 74.3 8.2 77.4 6.25 79.05 4.65 80.45 2.75 79.75 -2.5 77.7 4.35 68.95 L2.15 69.15 -0.2 69.15 Q-0.9 62.55 3.85 60.95 10.1 58.75 11.0 57.1 8.1 53.55 6.65 50.55 3.95 44.5 12.35 46.4 11.2 42.85 13.45 39.95 15.55 37.0 17.5 41.25 15.95 37.6 17.3 34.6 18.5 31.85 21.3 31.25 24.15 30.55 26.15 32.65 28.5 35.1 28.1 40.15 33.55 37.8 34.85 34.8 36.2 31.55 33.75 25.8 L47.7 24.7 Q55.8 24.8 49.1 33.55 L51.45 33.25 53.75 32.95 52.15 38.8 Q51.05 42.55 53.05 43.45 56.0 44.9 57.8 41.25 59.3 38.2 58.8 35.4 67.2 34.9 67.8 41.45 67.9 43.05 66.1 52.95 66.9 52.75 69.2 52.95 L72.35 52.55 72.65 61.15 75.6 59.45 Q77.3 58.3 78.1 57.0 80.65 59.05 81.25 62.35 81.95 65.9 80.15 68.55 82.05 72.35 85.4 72.35 87.7 72.35 91.75 70.25 91.55 70.35 92.25 73.3 L93.05 76.7 Q100.35 75.7 99.55 83.7 98.6 91.55 92.95 94.0" fill="#ffffff" fill-opacity="0.0" fill-rule="evenodd" stroke="none"/>
    <path d="M92.95 94.0 Q91.95 90.35 89.0 89.25 86.0 88.15 85.4 92.7 85.3 93.7 87.5 99.75 88.6 104.3 83.15 100.05 82.35 103.8 79.95 104.6 77.3 105.3 77.2 100.95 72.85 102.6 71.05 100.45 L68.5 95.0 Q69.6 92.25 69.0 89.35 68.3 85.8 65.2 86.2 62.55 86.6 63.25 90.25 64.45 95.7 64.25 96.6 L60.45 98.05 56.4 99.05 55.05 96.8 52.35 95.8 51.75 90.65 Q51.15 87.95 49.8 86.1 48.2 87.2 48.2 89.35 48.0 91.75 47.4 92.6 46.7 93.6 45.8 94.0 44.65 94.4 44.35 94.7 41.45 97.35 40.4 97.85 38.3 98.95 35.35 98.25 35.55 97.55 35.55 94.9 35.55 92.8 36.2 91.45 L34.15 91.65 32.15 91.75 Q32.85 86.1 30.7 81.85 28.4 77.1 24.75 81.45 24.15 82.25 24.15 85.7 24.25 88.55 21.65 89.55 18.3 90.85 16.35 88.25 14.85 86.1 14.85 82.45 14.15 83.1 13.55 83.0 17.4 79.05 15.15 76.0 13.05 73.0 7.9 74.3 8.2 77.4 6.25 79.05 4.65 80.45 2.75 79.75 -2.5 77.7 4.35 68.95 L2.15 69.15 -0.2 69.15 Q-0.9 62.55 3.85 60.95 10.1 58.75 11.0 57.1 8.1 53.55 6.65 50.55 3.95 44.5 12.35 46.4 11.2 42.85 13.45 39.95 15.55 37.0 17.5 41.25 15.95 37.6 17.3 34.6 18.5 31.85 21.3 31.25 24.15 30.55 26.15 32.65 28.5 35.1 28.1 40.15 33.55 37.8 34.85 34.8 36.2 31.55 33.75 25.8 L47.7 24.7 Q55.8 24.8 49.1 33.55 L51.45 33.25 53.75 32.95 52.15 38.8 Q51.05 42.55 53.05 43.45 56.0 44.9 57.8 41.25 59.3 38.2 58.8 35.4 67.2 34.9 67.8 41.45 67.9 43.05 66.1 52.95 66.9 52.75 69.2 52.95 L72.35 52.55 72.65 61.15 75.6 59.45 Q77.3 58.3 78.1 57.0 80.65 59.05 81.25 62.35 81.95 65.9 80.15 68.55 82.05 72.35 85.4 72.35 87.7 72.35 91.75 70.25 91.55 70.35 92.25 73.3 L93.05 76.7 Q100.35 75.7 99.55 83.7 98.6 91.55 92.95 94.0 Z" fill="none" stroke="#000000" stroke-linecap="butt" stroke-linejoin="miter-clip" stroke-miterlimit="10.0" stroke-opacity="0.6" stroke-width="1.0"/>
  </g>
</svg>
