<?xml version="1.0" encoding="UTF-8" standalone="no"?>
<svg xmlns:xlink="http://www.w3.org/1999/xlink" height="528.8px" width="2226.9px" xmlns="http://www.w3.org/2000/svg">
  <g transform="matrix(1.0, 0.0, 0.0, 1.0, 1112.3, 108.55)">
    <path d="M531.15 -53.35 L530.95 -107.25 530.35 -108.0 782.9 -108.0 1114.1 414.1 840.6 419.2 792.45 418.1 792.45 419.75 -796.4 419.75 -796.4 418.75 -838.3 419.7 -1111.8 414.6 -780.6 -107.5 -528.05 -107.5 -528.65 -106.75 -528.8 -53.35 -519.75 -53.35 -519.75 -89.7 515.8 -89.7 515.8 -53.35 531.15 -53.35 537.15 -53.35 537.15 -16.95 537.15 -53.35 531.15 -53.35 M558.45 19.4 L558.45 -16.95 537.15 -16.95 558.45 -16.95 558.45 19.4 579.8 19.4 579.8 55.35 579.8 19.4 558.45 19.4 -562.05 19.4 558.45 19.4 M601.15 91.7 L601.15 55.35 579.8 55.35 601.15 55.35 601.15 91.7 622.1 91.7 622.1 128.1 622.1 91.7 601.15 91.7 -604.7 91.7 601.15 91.7 M643.45 164.45 L643.45 128.1 622.1 128.1 643.45 128.1 643.45 164.45 664.8 164.45 664.8 200.8 664.8 164.45 643.45 164.45 -647.4 164.45 643.45 164.45 M686.15 237.15 L686.15 200.8 664.8 200.8 686.15 200.8 686.15 237.15 707.5 237.15 707.5 273.55 707.5 237.15 686.15 237.15 -690.1 237.15 686.15 237.15 M728.8 309.9 L728.8 273.55 707.5 273.55 728.8 273.55 728.8 309.9 750.15 309.9 750.15 345.85 750.15 309.9 728.8 309.9 -732.4 309.9 728.8 309.9 M771.1 382.2 L771.1 345.85 750.15 345.85 771.1 345.85 771.1 382.2 792.45 382.2 792.45 418.1 792.45 382.2 771.1 382.2 -775.05 382.2 771.1 382.2 M530.95 -107.25 L840.6 419.2 530.95 -107.25 M-541.1 -16.95 L-541.1 -53.35 -528.8 -53.35 -541.1 -53.35 -541.1 -16.95 537.15 -16.95 -541.1 -16.95 -562.05 -16.95 -562.05 19.4 -562.05 -16.95 -541.1 -16.95 M-668.75 200.8 L664.8 200.8 -668.75 200.8 -690.1 200.8 -690.1 237.15 -690.1 200.8 -668.75 200.8 -668.75 164.45 -647.4 164.45 -668.75 164.45 -668.75 200.8 M-711.05 273.55 L-711.05 237.15 -690.1 237.15 -711.05 237.15 -711.05 273.55 707.5 273.55 -711.05 273.55 -732.4 273.55 -732.4 309.9 -753.7 309.9 -753.7 345.85 -753.7 309.9 -732.4 309.9 -732.4 273.55 -711.05 273.55 M750.15 345.85 L-753.7 345.85 750.15 345.85 M-796.4 418.75 L-796.4 382.2 -775.05 382.2 -796.4 382.2 -796.4 418.75 M-775.05 382.2 L-775.05 345.85 -753.7 345.85 -775.05 345.85 -775.05 382.2 M-583.35 55.35 L579.8 55.35 -583.35 55.35 -604.7 55.35 -604.7 91.7 -604.7 55.35 -583.35 55.35 -583.35 19.4 -562.05 19.4 -583.35 19.4 -583.35 55.35 M-626.05 128.1 L-626.05 91.7 -604.7 91.7 -626.05 91.7 -626.05 128.1 622.1 128.1 -626.05 128.1 -647.4 128.1 -647.4 164.45 -647.4 128.1 -626.05 128.1 M-528.65 -106.75 L-838.3 419.7 -528.65 -106.75 M-519.75 -53.35 L515.8 -53.35 -519.75 -53.35" fill="#ffffff" fill-opacity="0.0" fill-rule="evenodd" stroke="none"/>
    <path d="M792.45 419.75 L-796.4 419.75" fill="none" stroke="#000000" stroke-linecap="butt" stroke-linejoin="miter-clip" stroke-miterlimit="10.0" stroke-width="1.0"/>
    <path d="M530.35 -108.0 L782.9 -108.0 1114.1 414.1 M-1111.8 414.6 L-780.6 -107.5 -528.05 -107.5" fill="none" stroke="#000000" stroke-linecap="butt" stroke-linejoin="miter-clip" stroke-miterlimit="10.0" stroke-opacity="0.6" stroke-width="1.0"/>
    <path d="M531.15 -53.35 L530.95 -107.25 840.6 419.2 M-528.65 -106.75 L-528.8 -53.35 M-838.3 419.7 L-528.65 -106.75" fill="none" stroke="#000000" stroke-linecap="round" stroke-linejoin="miter-clip" stroke-miterlimit="10.0" stroke-opacity="0.4" stroke-width="1.0"/>
    <path d="M530.95 -107.25 L530.35 -108.0" fill="none" stroke="#000000" stroke-linecap="round" stroke-linejoin="miter-clip" stroke-miterlimit="10.0" stroke-opacity="0.4" stroke-width="1.0"/>
    <path d="M1114.1 414.1 L840.6 419.2" fill="none" stroke="#000000" stroke-linecap="butt" stroke-linejoin="miter-clip" stroke-miterlimit="10.0" stroke-width="1.0"/>
    <path d="M840.6 419.2 L792.45 418.1 M-796.4 418.75 L-838.3 419.7" fill="none" stroke="#000000" stroke-linecap="round" stroke-linejoin="miter-clip" stroke-miterlimit="10.0" stroke-width="1.0"/>
    <path d="M792.45 418.1 L792.45 419.75" fill="none" stroke="#000000" stroke-linecap="round" stroke-linejoin="miter-clip" stroke-miterlimit="10.0" stroke-opacity="0.4" stroke-width="1.0"/>
    <path d="M-796.4 419.75 L-796.4 418.75" fill="none" stroke="#000000" stroke-linecap="butt" stroke-linejoin="miter-clip" stroke-miterlimit="10.0" stroke-opacity="0.4" stroke-width="1.0"/>
    <path d="M-838.3 419.7 L-1111.8 414.6" fill="none" stroke="#000000" stroke-linecap="round" stroke-linejoin="miter-clip" stroke-miterlimit="10.0" stroke-width="1.0"/>
    <path d="M-528.05 -107.5 L-528.65 -106.75" fill="none" stroke="#000000" stroke-linecap="butt" stroke-linejoin="miter-clip" stroke-miterlimit="10.0" stroke-opacity="0.4" stroke-width="1.0"/>
    <path d="M-528.8 -53.35 L-519.75 -53.35 -519.75 -89.7 515.8 -89.7 515.8 -53.35 531.15 -53.35 537.15 -53.35 537.15 -16.95 558.45 -16.95 558.45 19.4 579.8 19.4 579.8 55.35 601.15 55.35 601.15 91.7 622.1 91.7 622.1 128.1 643.45 128.1 643.45 164.45 664.8 164.45 664.8 200.8 686.15 200.8 686.15 237.15 707.5 237.15 707.5 273.55 728.8 273.55 728.8 309.9 750.15 309.9 750.15 345.85 771.1 345.85 771.1 382.2 792.45 382.2 792.45 418.1 M-528.8 -53.35 L-541.1 -53.35 -541.1 -16.95 537.15 -16.95 M-541.1 -16.95 L-562.05 -16.95 -562.05 19.4 558.45 19.4 M664.8 200.8 L-668.75 200.8 -690.1 200.8 -690.1 237.15 686.15 237.15 M-690.1 237.15 L-711.05 237.15 -711.05 273.55 707.5 273.55 M728.8 309.9 L-732.4 309.9 -753.7 309.9 -753.7 345.85 750.15 345.85 M771.1 382.2 L-775.05 382.2 -796.4 382.2 -796.4 418.75 M-753.7 345.85 L-775.05 345.85 -775.05 382.2 M-711.05 273.55 L-732.4 273.55 -732.4 309.9 M643.45 164.45 L-647.4 164.45 -668.75 164.45 -668.75 200.8 M579.8 55.35 L-583.35 55.35 -604.7 55.35 -604.7 91.7 601.15 91.7 M-562.05 19.4 L-583.35 19.4 -583.35 55.35 M-604.7 91.7 L-626.05 91.7 -626.05 128.1 622.1 128.1 M-626.05 128.1 L-647.4 128.1 -647.4 164.45 M515.8 -53.35 L-519.75 -53.35" fill="none" stroke="#000000" stroke-linecap="round" stroke-linejoin="miter-clip" stroke-miterlimit="10.0" stroke-opacity="0.4" stroke-width="1.0"/>
  </g>
</svg>
