<?xml version="1.0" encoding="UTF-8" standalone="no"?>
<svg xmlns:xlink="http://www.w3.org/1999/xlink" height="84.55px" width="353.2px" xmlns="http://www.w3.org/2000/svg">
  <g transform="matrix(1.0, 0.0, 0.0, 1.0, 176.55, 42.2)">
    <path d="M176.05 -40.7 L160.95 41.75 -163.95 41.75 -176.0 -41.7 176.05 -40.7" fill="#66cc00" fill-opacity="0.0" fill-rule="evenodd" stroke="none"/>
    <path d="M176.05 -40.7 L-176.0 -41.7 -163.95 41.75 160.95 41.75 176.05 -40.7 Z" fill="none" stroke="#000000" stroke-linecap="butt" stroke-linejoin="miter-clip" stroke-miterlimit="10.0" stroke-width="1.0"/>
    <path d="M150.15 31.95 L163.75 -32.9 153.2 35.0 116.25 35.7 Q117.2 32.9 133.75 32.15 142.05 31.75 150.15 31.95 M-165.95 -32.9 L-162.15 -32.9 -153.85 34.2 -139.95 34.55 Q-125.55 35.35 -123.7 37.25 L-156.9 37.25 -165.95 -32.9 M-129.75 -31.4 L-130.45 5.6 -153.85 7.05 -153.85 3.3 -133.5 1.75 -132.0 -27.65 -157.6 -26.9 -156.9 -30.65 -129.75 -31.4 M-130.45 9.35 L-128.25 10.85 -148.6 13.1 -147.1 28.9 -138.1 29.1 Q-129.25 29.9 -129.75 32.75 L-150.1 31.2 -152.35 12.35 -130.45 9.35" fill="#000000" fill-opacity="0.4" fill-rule="evenodd" stroke="none"/>
    <path d="M89.5 -32.9 L109.85 -32.9 Q109.45 -30.45 106.1 -28.75 102.9 -27.1 99.25 -27.15 95.55 -27.2 92.85 -28.75 90.1 -30.35 89.5 -32.9" fill="#000000" fill-opacity="0.4" fill-rule="evenodd" stroke="none"/>
    <path d="M155.2 -32.4 L155.95 -28.65 130.3 -29.4 131.8 0.0 152.2 1.55 152.2 5.35 128.8 3.85 128.05 -33.15 155.2 -32.4" fill="#000000" fill-opacity="0.4" fill-rule="evenodd" stroke="none"/>
    <path d="M146.9 11.35 L126.55 9.1 128.8 7.6 150.65 10.6 148.4 29.5 128.05 31.0 Q127.55 28.15 136.4 27.35 140.85 27.0 145.4 27.15 L146.9 11.35" fill="#000000" fill-opacity="0.4" fill-rule="evenodd" stroke="none"/>
  </g>
</svg>
