<?xml version="1.0" encoding="UTF-8" standalone="no"?>
<svg xmlns:xlink="http://www.w3.org/1999/xlink" height="499.4px" width="856.3px" xmlns="http://www.w3.org/2000/svg">
  <g transform="matrix(1.0, 0.0, 0.0, 1.0, 428.1, 250.15)">
    <path d="M90.55 248.65 L176.25 244.2 155.4 227.9 129.55 -156.65 Q144.6 -157.5 155.7 -149.3 169.0 -139.3 172.3 -92.8 173.8 -67.4 174.1 -23.85 181.05 -37.45 181.35 -98.8 181.95 -154.15 194.95 -165.0 202.0 -170.5 227.2 -168.55 228.0 -115.6 225.5 -27.55 228.0 -115.6 227.2 -168.55 L238.5 -167.4 Q257.25 -165.3 285.65 -161.1 288.95 -88.55 291.4 -58.0 295.15 -10.5 302.15 28.75 L272.05 232.1 243.95 227.9 Q231.8 67.65 225.5 -27.55 220.35 -105.25 219.15 -139.6 217.65 -93.7 209.8 51.1 203.15 173.8 198.9 242.4 250.85 238.45 299.85 232.2 L299.9 232.8 299.85 232.2 322.5 229.1 Q310.1 206.4 320.1 13.9 L331.55 -163.85 Q342.05 -173.75 357.85 -173.75 L371.1 -172.9 367.85 222.45 402.0 216.4 Q392.0 182.55 380.55 -3.3 L380.55 -171.65 380.55 -3.3 371.65 -172.85 380.55 -171.65 395.05 -169.25 Q409.85 -168.35 427.7 -169.85 L427.7 211.25 Q372.35 223.9 299.9 232.8 240.5 240.05 169.6 244.8 L90.55 248.75 90.55 248.65 M-45.15 -87.4 L-45.5 -128.25 -35.3 -132.05 Q-20.5 -137.8 -10.55 -136.6 -3.3 -135.7 13.35 -126.6 27.85 -118.45 38.7 -119.65 49.3 -120.9 66.25 -129.95 85.85 -141.15 95.85 -146.25 112.7 -154.9 126.4 -156.4 L116.7 240.55 Q102.15 244.3 90.55 246.35 96.55 70.2 90.55 -85.0 L40.5 -87.4 39.05 -119.65 38.35 -87.4 -45.15 -87.4 M-54.1 -87.4 L-108.9 -85.0 Q-113.45 70.9 -108.9 217.65 -111.85 191.75 -113.9 146.9 -116.6 91.9 -116.6 60.45 -116.6 49.85 -123.55 144.15 L-130.8 240.55 Q-135.95 239.05 -157.35 234.85 L-156.2 -58.6 -157.35 234.85 -157.4 234.85 Q-170.7 232.1 -161.35 28.1 L-156.2 -58.6 -151.0 -145.65 Q-141.25 -145.5 -131.1 -136.6 -119.05 -125.7 -113.0 -123.9 -103.6 -121.2 -86.7 -121.5 -72.2 -121.8 -60.1 -123.9 -57.15 -124.35 -50.65 -126.5 L-49.85 -126.75 -50.8 -117.4 -50.65 -126.5 -50.8 -117.4 -54.1 -87.4 M-108.9 246.05 L-108.9 246.35 -122.65 245.45 -108.9 246.05 M-224.55 232.15 L-232.35 232.1 Q-254.9 231.7 -264.2 226.95 L-224.55 232.15 -264.2 226.95 Q-268.75 224.6 -270.15 221.25 -272.3 216.25 -273.2 169.25 L-273.15 164.1 -273.2 169.25 -273.35 162.75 -273.15 164.1 -272.25 168.65 -258.95 17.85 Q-249.3 -90.65 -236.0 -172.85 -235.4 -167.1 -231.45 -157.45 -228.15 -148.7 -227.85 -141.45 -224.2 -158.95 -216.65 -166.2 -207.3 -175.0 -185.5 -169.55 L-155.8 -161.95 -152.6 -161.1 -151.95 -153.4 -155.95 -121.35 -155.8 -161.95 -155.95 -121.35 -199.75 230.6 -224.55 232.15 M309.8 -57.7 Q309.2 -129.95 324.0 -154.45 326.95 -159.25 330.5 -162.85 L309.65 -21.85 309.8 -57.7 M-427.6 -94.6 Q-419.15 -113.95 -406.45 -129.95 -397.35 -141.7 -382.15 -156.3 -389.0 149.25 -392.25 173.5 -394.35 189.2 -411.3 197.65 -419.75 201.9 -427.6 202.8 L-427.6 -94.6 M-371.5 168.5 Q-375.55 123.0 -378.65 0.3 L-381.3 -157.1 -378.05 -160.15 Q-376.2 -127.85 -371.1 -100.05 -369.7 -103.75 -368.6 -108.3 -365.6 -120.45 -364.75 -138.7 -363.2 -165.9 -359.9 -177.7 L-320.9 -181.0 Q-295.25 -182.55 -282.25 -177.7 -278.6 -163.95 -277.1 -122.65 L-304.6 214.0 Q-317.6 214.3 -332.1 212.15 -360.8 207.65 -367.45 194.35 -369.6 190.15 -371.5 168.5 L-368.6 -108.3 -371.5 168.5" fill="#ffffff" fill-opacity="0.0" fill-rule="evenodd" stroke="none"/>
    <path d="M227.2 -168.55 Q202.0 -170.5 194.95 -165.0 181.95 -154.15 181.35 -98.8 181.05 -37.45 174.1 -23.85 173.8 -67.4 172.3 -92.8 169.0 -139.3 155.7 -149.3 144.6 -157.5 129.55 -156.65 L155.4 227.9 176.25 244.2 90.55 248.65 90.55 246.35 Q102.15 244.3 116.7 240.55 L126.4 -156.4 Q112.7 -154.9 95.85 -146.25 85.85 -141.15 66.25 -129.95 49.3 -120.9 38.7 -119.65 27.85 -118.45 13.35 -126.6 -3.3 -135.7 -10.55 -136.6 -20.5 -137.8 -35.3 -132.05 L-45.5 -128.25 -45.15 -87.4 -51.3 -87.4 -54.1 -87.4 -50.8 -117.4 -49.85 -126.75 -50.65 -126.5 Q-57.15 -124.35 -60.1 -123.9 -72.2 -121.8 -86.7 -121.5 -103.6 -121.2 -113.0 -123.9 -119.05 -125.7 -131.1 -136.6 -141.25 -145.5 -151.0 -145.65 L-156.2 -58.6 -155.95 -121.35 -156.2 -58.6 -161.35 28.1 Q-170.7 232.1 -157.4 234.85 L-157.35 234.85 Q-135.95 239.05 -130.8 240.55 L-123.55 144.15 Q-116.6 49.85 -116.6 60.45 -116.6 91.9 -113.9 146.9 -111.85 191.75 -108.9 217.65 L-108.9 246.05 -122.65 245.45 -157.35 240.9 -224.55 232.15 -199.75 230.6 -155.95 -121.35 -151.95 -153.4 -152.6 -161.1 -155.8 -161.95 -185.5 -169.55 Q-207.3 -175.0 -216.65 -166.2 -224.2 -158.95 -227.85 -141.45 -228.15 -148.7 -231.45 -157.45 -235.4 -167.1 -236.0 -172.85 -249.3 -90.65 -258.95 17.85 L-272.25 168.65 -273.15 164.1 -273.35 162.75 -273.2 169.25 Q-272.3 216.25 -270.15 221.25 -268.75 224.6 -264.2 226.95 L-273.2 225.8 -371.95 212.85 -393.7 210.0 -427.6 202.8 Q-419.75 201.9 -411.3 197.65 -394.35 189.2 -392.25 173.5 -389.0 149.25 -382.15 -156.3 -397.35 -141.7 -406.45 -129.95 -419.15 -113.95 -427.6 -94.6 L-427.6 -249.65 427.7 -249.65 427.7 -169.85 Q409.85 -168.35 395.05 -169.25 L380.55 -171.65 371.65 -172.85 380.55 -3.3 Q392.0 182.55 402.0 216.4 L367.85 222.45 371.1 -172.9 357.85 -173.75 Q342.05 -173.75 331.55 -163.85 L320.1 13.9 Q310.1 206.4 322.5 229.1 L299.85 232.2 Q250.85 238.45 198.9 242.4 203.15 173.8 209.8 51.1 217.65 -93.7 219.15 -139.6 220.35 -105.25 225.5 -27.55 231.8 67.65 243.95 227.9 L272.05 232.1 302.15 28.75 Q295.15 -10.5 291.4 -58.0 288.95 -88.55 285.65 -161.1 257.25 -165.3 238.5 -167.4 L227.2 -168.55 226.4 -197.95 227.2 -168.55 M223.4 239.05 L222.45 137.8 Q222.15 72.55 223.4 36.55 L225.5 -27.55 223.4 36.55 Q222.15 72.55 222.45 137.8 L223.4 239.05 M40.5 -87.4 L38.35 -87.4 39.05 -119.65 40.5 -87.4 M309.8 -57.7 L309.65 -21.85 330.5 -162.85 Q326.95 -159.25 324.0 -154.45 309.2 -129.95 309.8 -57.7 M-371.5 168.5 L-371.95 212.85 -371.5 168.5 Q-369.6 190.15 -367.45 194.35 -360.8 207.65 -332.1 212.15 -317.6 214.3 -304.6 214.0 L-277.1 -122.65 Q-278.6 -163.95 -282.25 -177.7 -295.25 -182.55 -320.9 -181.0 L-359.9 -177.7 Q-363.2 -165.9 -364.75 -138.7 -365.6 -120.45 -368.6 -108.3 -369.7 -103.75 -371.1 -100.05 -376.2 -127.85 -378.05 -160.15 L-381.3 -157.1 -378.65 0.3 Q-375.55 123.0 -371.5 168.5 M-367.45 -216.1 L-368.6 -108.3 -367.45 -216.1 M380.55 -208.85 L380.55 -171.65 380.55 -208.85 M380.55 217.6 L380.55 -3.3 380.55 217.6 M134.2 236.35 Q134.2 173.5 130.9 22.65 128.1 -92.65 127.45 -156.5 128.1 -92.65 130.9 22.65 134.2 173.5 134.2 236.35 M299.85 232.2 Q296.05 190.2 311.0 -197.35 296.05 190.2 299.85 232.2 M-155.6 -216.1 L-155.8 -161.95 -155.6 -216.1 M-51.3 -87.4 L-50.8 -117.4 -51.3 -87.4 M-49.5 -197.35 L-50.65 -126.5 -49.5 -197.35 M-273.2 225.8 Q-273.85 209.3 -273.2 169.25 -273.85 209.3 -273.2 225.8 M-157.35 240.9 L-157.35 234.85 -157.35 240.9 M-261.7 -197.35 Q-271.4 58.9 -273.15 164.1 -271.4 58.9 -261.7 -197.35" fill="#000000" fill-opacity="0.2" fill-rule="evenodd" stroke="none"/>
    <path d="M90.55 246.35 L90.55 248.65 90.55 248.75 M38.35 -87.4 L40.5 -87.4 90.55 -85.0 Q96.55 70.2 90.55 246.35 M38.35 -87.4 L-45.15 -87.4 -51.3 -87.4 -54.1 -87.4 -108.9 -85.0 Q-113.45 70.9 -108.9 217.65 L-108.9 246.05 -108.9 246.35" fill="none" stroke="#000000" stroke-linecap="butt" stroke-linejoin="round" stroke-opacity="0.8" stroke-width="1.0"/>
    <path d="M227.2 -168.55 L226.4 -197.95 M299.9 232.8 L299.85 232.2 Q296.05 190.2 311.0 -197.35 M225.5 -27.55 Q228.0 -115.6 227.2 -168.55 M225.5 -27.55 L223.4 36.55 Q222.15 72.55 222.45 137.8 L223.4 239.05 M-371.95 212.85 L-372.0 214.0 M-371.95 212.85 L-371.5 168.5 -368.6 -108.3 -367.45 -216.1 M380.55 -171.65 L380.55 -208.85 M380.55 -3.3 L380.55 217.6 M380.55 -171.65 L380.55 -3.3 M127.45 -156.5 Q128.1 -92.65 130.9 22.65 134.2 173.5 134.2 236.35 M-155.8 -161.95 L-155.6 -216.1 M-50.8 -117.4 L-51.3 -87.4 M-50.65 -126.5 L-49.5 -197.35 M-50.65 -126.5 L-50.8 -117.4 M-155.95 -121.35 L-156.2 -58.6 -157.35 234.85 -157.35 240.9 M-155.8 -161.95 L-155.95 -121.35 M-273.2 169.25 Q-273.85 209.3 -273.2 225.8 M-273.15 164.1 L-273.2 169.25 M-273.15 164.1 Q-271.4 58.9 -261.7 -197.35" fill="none" stroke="#000000" stroke-linecap="butt" stroke-linejoin="miter-clip" stroke-miterlimit="10.0" stroke-opacity="0.4" stroke-width="1.0"/>
    <path d="M90.55 248.75 L169.6 244.8 Q240.5 240.05 299.9 232.8 372.35 223.9 427.7 211.25 L427.7 -169.85 427.7 -249.65 -427.6 -249.65 -427.6 -94.6 -427.6 202.8 -393.7 210.0 -371.95 212.85 -273.2 225.8 -264.2 226.95 -224.55 232.15 -157.35 240.9 -122.65 245.45 -108.9 246.35" fill="none" stroke="#000000" stroke-linecap="butt" stroke-linejoin="miter-clip" stroke-miterlimit="10.0" stroke-width="1.0"/>
  </g>
</svg>
