<?xml version="1.0" encoding="UTF-8" standalone="no"?>
<svg xmlns:xlink="http://www.w3.org/1999/xlink" height="110.5px" width="69.15px" xmlns="http://www.w3.org/2000/svg">
  <g transform="matrix(1.0, 0.0, 0.0, 1.0, 34.7, 55.25)">
    <path d="M-31.5 -48.45 Q-28.55 -55.65 -26.9 -54.65 -26.1 -54.1 -25.75 -52.25 -31.7 -47.45 -29.15 -37.05 -27.9 -31.85 -25.35 -27.5 -24.55 -36.3 -19.15 -36.85 -16.5 -37.05 -13.95 -35.5 -15.35 -35.7 -17.1 -34.85 -20.55 -32.9 -21.95 -27.5 -23.35 -22.05 -19.75 -16.7 -17.95 -14.1 -15.9 -12.65 -14.5 -21.7 -10.1 -20.9 -7.9 -20.5 -5.95 -18.3 -9.1 -18.65 -10.15 -16.05 -11.3 -13.45 -10.1 -8.85 -9.3 -5.45 -2.1 -6.45 L12.05 -6.9 Q17.9 -5.5 17.1 0.5 16.65 3.35 15.05 6.1 5.1 4.15 -0.95 4.5 -5.55 4.75 -14.35 1.9 -23.3 -1.05 -22.7 -2.7 -22.3 -4.1 -19.75 -4.1 L-17.35 -3.85 Q-27.7 -11.1 -30.7 -14.1 -32.55 -16.05 -27.9 -15.5 L-22.7 -14.5 Q-32.15 -22.9 -33.35 -25.25 -34.1 -26.65 -31.3 -25.5 L-28.35 -24.05 Q-30.3 -27.25 -31.55 -31.9 -34.3 -41.3 -31.5 -48.45 M-2.55 19.1 Q-9.1 17.55 -9.55 17.7 -18.15 19.7 -7.9 28.9 -1.35 34.7 -0.1 40.1 0.45 41.95 0.05 48.95 -0.1 52.55 -2.7 54.1 -3.9 54.75 -5.15 54.75 -3.95 52.75 -5.75 50.75 -6.9 49.5 -6.35 47.15 L-5.55 45.15 Q-6.75 45.15 -5.75 42.9 L-4.55 40.55 Q-6.3 40.35 -6.9 38.7 L-7.1 36.95 Q-8.95 37.7 -8.95 35.9 L-8.55 33.95 -11.7 34.5 Q-13.55 34.75 -12.75 32.55 L-11.7 30.35 Q-13.35 30.35 -17.95 28.9 -20.9 27.95 -19.55 24.75 L-17.75 21.75 Q-21.35 19.1 -19.15 14.75 L-16.15 11.1 Q-15.1 5.55 -10.55 7.1 -8.3 7.75 -6.3 9.55 -3.75 9.15 4.25 14.15 L16.3 22.1 Q28.3 28.95 30.5 31.5 32.5 33.7 33.5 44.15 33.05 41.35 30.05 38.55 28.1 36.9 26.05 33.9 L24.45 31.15 24.1 34.75 Q22.5 34.5 20.3 30.7 L18.3 26.9 Q17.05 25.55 15.85 25.35 15.05 25.15 14.9 26.3 L15.05 27.35 13.7 25.55 Q12.65 22.1 9.25 20.15 L5.9 18.95 Q3.25 20.5 -2.55 19.1" fill="#ffffff" fill-opacity="0.0" fill-rule="evenodd" stroke="none"/>
    <path d="M-31.5 -48.45 Q-34.3 -41.3 -31.55 -31.9 -30.3 -27.25 -28.35 -24.05 L-31.3 -25.5 Q-34.1 -26.65 -33.35 -25.25 -32.15 -22.9 -22.7 -14.5 L-27.9 -15.5 Q-32.55 -16.05 -30.7 -14.1 -27.7 -11.1 -17.35 -3.85 L-19.75 -4.1 Q-22.3 -4.1 -22.7 -2.7 -23.3 -1.05 -14.35 1.9 -5.55 4.75 -0.95 4.5 5.1 4.15 15.05 6.1 16.65 3.35 17.1 0.5 17.9 -5.5 12.05 -6.9 L-2.1 -6.45 Q-9.3 -5.45 -10.1 -8.85 -11.3 -13.45 -10.15 -16.05 -9.1 -18.65 -5.95 -18.3 -7.9 -20.5 -10.1 -20.9 -14.5 -21.7 -15.9 -12.65 -17.95 -14.1 -19.75 -16.7 -23.35 -22.05 -21.95 -27.5 -20.55 -32.9 -17.1 -34.85 -15.35 -35.7 -13.95 -35.5 -16.5 -37.05 -19.15 -36.85 -24.55 -36.3 -25.35 -27.5 -27.9 -31.85 -29.15 -37.05 -31.7 -47.45 -25.75 -52.25 -26.1 -54.1 -26.9 -54.65 -28.55 -55.65 -31.5 -48.45" fill="none" stroke="#000000" stroke-linecap="butt" stroke-linejoin="miter-clip" stroke-miterlimit="4.0" stroke-width="1.0"/>
    <path d="M-2.55 19.1 Q3.25 20.5 5.9 18.95 L9.25 20.15 Q12.65 22.1 13.7 25.55 L15.05 27.35 14.9 26.3 Q15.05 25.15 15.85 25.35 17.05 25.55 18.3 26.9 L20.3 30.7 Q22.5 34.5 24.1 34.75 L24.45 31.15 26.05 33.9 Q28.1 36.9 30.05 38.55 33.05 41.35 33.5 44.15 32.5 33.7 30.5 31.5 28.3 28.95 16.3 22.1 L4.25 14.15 Q-3.75 9.15 -6.3 9.55 -8.3 7.75 -10.55 7.1 -15.1 5.55 -16.15 11.1 L-19.15 14.75 Q-21.35 19.1 -17.75 21.75 L-19.55 24.75 Q-20.9 27.95 -17.95 28.9 -13.35 30.35 -11.7 30.35 L-12.75 32.55 Q-13.55 34.75 -11.7 34.5 L-8.55 33.95 -8.95 35.9 Q-8.95 37.7 -7.1 36.95 L-6.9 38.7 Q-6.3 40.35 -4.55 40.55 L-5.75 42.9 Q-6.75 45.15 -5.55 45.15 L-6.35 47.15 Q-6.9 49.5 -5.75 50.75 -3.95 52.75 -5.15 54.75 -3.9 54.75 -2.7 54.1 -0.1 52.55 0.05 48.95 0.45 41.95 -0.1 40.1 -1.35 34.7 -7.9 28.9 -18.15 19.7 -9.55 17.7 -9.1 17.55 -2.55 19.1" fill="none" stroke="#000000" stroke-linecap="butt" stroke-linejoin="miter-clip" stroke-miterlimit="10.0" stroke-width="1.0"/>
  </g>
</svg>
