<?xml version="1.0" encoding="UTF-8" standalone="no"?>
<svg xmlns:xlink="http://www.w3.org/1999/xlink" height="39.95px" width="27.0px" xmlns="http://www.w3.org/2000/svg">
  <g transform="matrix(1.0, 0.0, 0.0, 1.0, 0.5, 0.5)">
    <path d="M11.15 29.85 L13.3 0.0 13.35 1.15 13.9 29.7 14.85 29.75 16.45 30.15 13.35 29.7 13.15 29.8 13.6 34.4 15.4 34.45 15.4 38.5 20.1 38.75 20.15 38.95 18.9 38.95 0.0 38.7 0.75 35.55 2.65 35.2 7.25 34.55 9.4 34.45 9.65 30.0 11.15 29.85 M9.9 34.4 L9.4 34.45 9.9 34.4" fill="#ffffff" fill-opacity="0.0" fill-rule="evenodd" stroke="none"/>
    <path d="M13.35 1.15 L13.35 0.7 14.85 29.75 13.9 29.7 13.35 1.15 M16.45 30.15 L17.15 34.55 18.4 34.65 25.5 35.7 26.0 38.95 20.15 38.95 20.1 38.75 15.4 38.5 15.4 34.45 13.6 34.4 13.15 29.8 13.35 29.7 16.45 30.15" fill="#000000" fill-opacity="0.09803922" fill-rule="evenodd" stroke="none"/>
    <path d="M11.15 29.85 L13.3 0.0 13.35 1.15 13.35 0.7 14.85 29.75 M20.15 38.95 L18.9 38.95" fill="none" stroke="#000000" stroke-linecap="round" stroke-linejoin="round" stroke-opacity="0.6" stroke-width="1.0"/>
    <path d="M9.4 34.45 L9.9 34.4" fill="none" stroke="#000000" stroke-linecap="round" stroke-linejoin="round" stroke-opacity="0.4" stroke-width="1.0"/>
    <path d="M14.85 29.75 L16.45 30.15 17.15 34.55 18.4 34.65 25.5 35.7 26.0 38.95 20.15 38.95 M18.9 38.95 L0.0 38.7 0.75 35.55 2.65 35.2 7.25 34.55 9.4 34.45 9.65 30.0 11.15 29.85 Z" fill="none" stroke="#000000" stroke-linecap="round" stroke-linejoin="round" stroke-width="1.0"/>
  </g>
</svg>
