<?xml version="1.0" encoding="UTF-8" standalone="no"?>
<svg xmlns:xlink="http://www.w3.org/1999/xlink" height="429.45px" width="66.95px" xmlns="http://www.w3.org/2000/svg">
  <g transform="matrix(1.0, 0.0, 0.0, 1.0, 0.5, 0.5)">
    <path d="M65.95 24.5 L65.95 31.1 21.35 31.1 21.35 24.5 65.95 24.5 M65.95 140.45 L65.95 153.5 0.05 153.5 0.05 140.45 65.95 140.45 M65.95 251.55 L65.95 264.05 0.15 264.05 0.15 251.55 65.95 251.55 M65.95 276.65 L65.95 283.3 0.2 283.3 0.2 276.65 65.95 276.65 M65.95 400.35 L65.95 405.3 0.3 405.3 0.3 400.35 65.95 400.35 M65.95 419.9 L65.95 421.8 0.3 421.8 0.3 419.9 65.95 419.9 M65.95 423.85 L65.95 426.2 0.3 426.2 0.3 423.85 65.95 423.85 M21.35 12.85 L21.35 0.0 65.95 0.0 65.95 12.85 21.35 12.85" fill="#000000" fill-opacity="0.14901961" fill-rule="evenodd" stroke="none"/>
    <path d="M65.95 24.5 L21.35 24.5 21.35 12.85 65.95 12.85 65.95 24.5 M21.35 31.1 L65.95 31.1 65.95 140.45 0.05 140.45 0.0 76.55 21.35 76.55 21.35 31.1 M65.95 153.5 L65.95 251.55 0.15 251.55 0.05 153.5 65.95 153.5 M65.95 264.05 L65.95 276.65 0.2 276.65 0.15 264.05 65.95 264.05 M65.95 283.3 L65.95 400.35 0.3 400.35 0.2 283.3 65.95 283.3 M65.95 405.3 L65.95 419.9 0.3 419.9 0.3 405.3 65.95 405.3 M65.95 421.8 L65.95 423.85 0.3 423.85 0.3 421.8 65.95 421.8 M65.95 426.2 L65.95 428.45 0.3 428.45 0.3 426.2 65.95 426.2" fill="#ffffff" fill-opacity="0.0" fill-rule="evenodd" stroke="none"/>
    <path d="M65.95 31.1 L65.95 24.5 65.95 12.85 65.95 0.0 21.35 0.0 21.35 12.85 21.35 24.5 21.35 31.1 21.35 76.55 0.0 76.55 0.05 140.45 0.05 153.5 0.15 251.55 0.15 264.05 0.2 276.65 0.2 283.3 0.3 400.35 0.3 405.3 0.3 419.9 0.3 421.8 0.3 423.85 0.3 426.2 0.3 428.45 65.95 428.45 65.95 426.2 65.95 423.85 65.95 421.8 65.95 419.9 65.95 405.3 65.95 400.35 65.95 283.3 65.95 276.65 65.95 264.05 65.95 251.55 65.95 153.5 65.95 140.45 65.95 31.1" fill="none" stroke="#000000" stroke-linecap="round" stroke-linejoin="miter-clip" stroke-miterlimit="4.0" stroke-width="1.0"/>
    <path d="M0.3 419.9 L65.95 419.9 M0.3 423.85 L65.95 423.85" fill="none" stroke="#000000" stroke-linecap="round" stroke-linejoin="miter-clip" stroke-miterlimit="4.0" stroke-opacity="0.4" stroke-width="1.0"/>
  </g>
</svg>
