<?xml version="1.0" encoding="UTF-8" standalone="no"?>
<svg xmlns:xlink="http://www.w3.org/1999/xlink" height="229.7px" width="155.65px" xmlns="http://www.w3.org/2000/svg">
  <g transform="matrix(1.0, 0.0, 0.0, 1.0, 3.25, 1.9)">
    <path d="M137.6 45.95 Q143.6 59.15 145.6 68.55 147.4 76.85 147.4 88.9 147.4 103.9 143.55 115.9 139.7 128.05 130.85 140.5 122.65 152.05 107.5 167.55 95.9 179.4 71.7 202.05 63.4 210.8 51.95 217.25 42.1 222.8 37.8 222.8 37.4 222.8 35.55 221.05 L27.85 214.5 20.85 219.0 Q15.7 221.9 13.4 222.3 12.8 215.0 7.15 192.45 1.75 171.2 1.75 165.1 3.4 155.35 4.05 153.4 M23.15 178.55 Q31.3 202.8 31.3 204.5 31.3 206.15 30.35 209.25 29.25 212.8 27.85 214.5" fill="none" stroke="#ffffff" stroke-linecap="round" stroke-linejoin="round" stroke-width="10.0"/>
    <path d="M4.05 153.4 Q1.8 147.55 1.8 142.55 1.8 135.15 4.05 128.9 5.5 124.95 9.05 119.05 12.75 112.8 14.0 109.7 16.25 104.1 16.25 97.8 16.25 91.15 13.9 84.65 11.55 78.1 11.55 76.45 13.3 67.9 14.1 65.4 19.2 57.1 19.7 53.3 19.4 49.7 19.85 46.75 L20.9 42.9 21.9 39.8 Q22.9 39.8 25.15 36.15 28.3 31.05 31.3 27.95 L34.05 32.85 Q36.65 37.25 39.55 40.5 48.65 50.65 61.55 50.65 71.35 50.65 91.7 36.05 113.15 20.65 125.55 3.1 L131.0 13.2 Q136.7 25.9 137.35 33.5 137.75 37.9 137.6 45.95 L137.7 51.2 Q137.7 78.85 124.65 95.65 119.35 102.45 109.6 110.8 97.3 120.8 90.15 126.75 L41.6 167.0 Q32.9 173.8 23.15 178.55 17.1 178.35 14.65 172.4 13.2 168.8 13.2 163.5 13.2 161.55 13.75 157.4 L14.6 149.65 Q24.3 139.85 32.6 135.85 45.05 130.8 57.5 124.6 87.85 109.45 109.15 84.5 117.55 74.7 122.4 65.65 126.9 57.35 126.85 52.85 M4.05 153.4 Q5.1 152.45 9.2 151.1 13.05 149.8 14.6 149.65" fill="none" stroke="#ffffff" stroke-linecap="round" stroke-linejoin="round" stroke-width="10.0"/>
  </g>
</svg>
