<?xml version="1.0" encoding="UTF-8" standalone="no"?>
<svg xmlns:xlink="http://www.w3.org/1999/xlink" height="321.55px" width="308.05px" xmlns="http://www.w3.org/2000/svg">
  <g transform="matrix(1.0, 0.0, 0.0, 1.0, 0.5, 0.5)">
    <path d="M186.75 64.0 L186.75 67.0 135.9 67.0 135.9 223.7 132.9 223.7 132.9 64.0 186.75 64.0 M305.65 312.2 L307.05 312.2 307.05 319.95 304.85 319.95 247.95 319.95 247.95 312.2 263.35 312.2 305.65 312.2 M1.55 319.55 L0.0 319.55 0.0 311.8 1.55 311.8 1.9 311.8 32.9 311.8 32.9 299.25 56.85 299.25 58.25 299.25 58.25 311.8 62.05 311.8 62.05 319.55 1.55 319.55 M220.25 260.75 L235.5 260.75 235.5 270.15 225.85 270.15 225.85 276.3 220.25 276.3 220.25 260.75 M98.25 191.7 L111.7 168.05 122.0 312.2 98.25 312.2 98.25 191.7 M57.3 263.55 L84.4 263.55 84.4 270.15 48.1 270.15 48.1 263.55 57.3 263.55 M58.25 311.8 L32.9 311.8 58.25 311.8 M228.35 312.2 L228.35 300.25 236.1 300.25 236.1 312.2 228.35 312.2" fill="#000000" fill-opacity="0.29803923" fill-rule="evenodd" stroke="none"/>
    <path d="M186.75 64.0 L132.9 64.0 132.9 223.7 135.9 223.7 135.9 67.0 186.75 67.0 186.75 64.0 M220.25 0.0 L302.75 0.0 302.75 270.15 305.65 270.15 305.65 312.2 263.35 312.2 247.95 311.8 247.95 312.2 247.95 319.95 244.45 319.95 244.45 320.55 68.05 320.55 68.05 319.95 68.05 312.2 84.2 312.2 84.2 271.15 76.5 271.15 Q74.65 274.9 69.55 282.65 L62.65 292.45 Q59.8 296.2 56.85 299.25 L32.9 299.25 32.9 311.8 1.9 311.8 1.55 311.8 1.55 270.15 4.95 270.15 4.95 0.0 98.25 0.0 98.25 191.65 57.3 263.55 48.1 263.55 48.1 270.15 4.95 270.15 48.1 270.15 84.4 270.15 85.2 270.15 85.2 312.2 98.25 312.2 122.0 312.2 220.25 312.2 225.85 312.2 225.85 276.3 225.85 270.15 235.5 270.15 256.45 270.15 256.45 260.75 235.5 260.75 220.25 260.75 220.25 0.0 M302.75 270.15 L256.45 270.15 302.75 270.15 M150.85 136.6 L150.85 143.9 155.05 143.9 155.05 136.6 150.85 136.6 M155.05 122.3 L150.85 122.3 150.85 129.65 155.05 129.65 155.05 122.3 M150.85 115.35 L155.05 115.35 155.05 108.05 150.85 108.05 150.85 115.35 M150.85 79.5 L150.85 86.8 155.05 86.8 155.05 79.5 150.85 79.5 M155.05 93.75 L150.85 93.75 150.85 101.1 155.05 101.1 155.05 93.75 M150.85 158.2 L155.05 158.2 155.05 150.85 150.85 150.85 150.85 158.2 M85.2 312.2 L84.2 312.2 85.2 312.2 M228.35 312.2 L225.85 312.2 228.35 312.2 236.1 312.2 236.1 300.25 228.35 300.25 228.35 312.2 M244.45 319.95 L244.45 312.2 236.1 312.2 244.45 312.2 244.45 319.95 M198.1 245.8 L118.55 245.8 118.55 44.25 198.1 44.25 198.1 245.8" fill="#ffffff" fill-opacity="0.0" fill-rule="evenodd" stroke="none"/>
    <path d="M98.25 0.0 L220.25 0.0 220.25 260.75 220.25 276.3 220.25 312.2 122.0 312.2 111.7 168.05 98.25 191.7 98.25 191.65 98.25 0.0 M235.5 260.75 L256.45 260.75 256.45 270.15 235.5 270.15 235.5 260.75 M198.1 245.8 L198.1 44.25 118.55 44.25 118.55 245.8 198.1 245.8" fill="#000000" fill-opacity="0.2" fill-rule="evenodd" stroke="none"/>
    <path d="M68.05 319.95 L1.55 319.95 1.55 319.55 62.05 319.55 62.05 311.8 58.25 311.8 58.25 299.25 56.85 299.25 Q59.8 296.2 62.65 292.45 L69.55 282.65 Q74.65 274.9 76.5 271.15 L84.2 271.15 84.2 312.2 68.05 312.2 68.05 319.95 M98.25 191.65 L98.25 191.7 98.25 312.2 85.2 312.2 85.2 270.15 84.4 270.15 84.4 263.55 57.3 263.55 98.25 191.65" fill="#000000" fill-opacity="0.09803922" fill-rule="evenodd" stroke="none"/>
    <path d="M220.25 312.2 L220.25 276.3 225.85 276.3 225.85 312.2 220.25 312.2" fill="#dbdcdd" fill-rule="evenodd" stroke="none"/>
    <path d="M220.25 0.0 L302.75 0.0 302.75 270.15 305.65 270.15 305.65 312.2 307.05 312.2 307.05 319.95 304.85 319.95 M247.95 319.95 L244.45 319.95 244.45 312.2 236.1 312.2 228.35 312.2 225.85 312.2 220.25 312.2 122.0 312.2 98.25 312.2 85.2 312.2 M244.45 320.55 L68.05 320.55 M68.05 319.95 L1.55 319.95 1.55 319.55 0.0 319.55 0.0 311.8 1.55 311.8 1.55 270.15 4.95 270.15 4.95 0.0 98.25 0.0 220.25 0.0 M62.05 319.55 L1.55 319.55 M84.2 312.2 L68.05 312.2 68.05 319.95 M1.55 311.8 L1.9 311.8" fill="none" stroke="#000000" stroke-linecap="round" stroke-linejoin="miter-clip" stroke-miterlimit="4.0" stroke-width="1.0"/>
    <path d="M304.85 319.95 L247.95 319.95 247.95 312.2 263.35 312.2 305.65 312.2 M244.45 319.95 L244.45 320.55 M68.05 320.55 L68.05 319.95 M220.25 0.0 L220.25 260.75 235.5 260.75 256.45 260.75 256.45 270.15 302.75 270.15 M98.25 191.65 L98.25 191.7 98.25 312.2 M220.25 312.2 L220.25 276.3 220.25 260.75 M98.25 0.0 L98.25 191.65 M57.3 263.55 L84.4 263.55 84.4 270.15 85.2 270.15 85.2 312.2 84.2 312.2 M48.1 270.15 L48.1 263.55 57.3 263.55 M48.1 270.15 L4.95 270.15 M56.85 299.25 L58.25 299.25 58.25 311.8 62.05 311.8 62.05 319.55 M1.9 311.8 L32.9 311.8 32.9 299.25 56.85 299.25 M32.9 311.8 L58.25 311.8 M84.4 270.15 L48.1 270.15 M225.85 276.3 L220.25 276.3 M235.5 270.15 L225.85 270.15 225.85 276.3 225.85 312.2 M228.35 312.2 L228.35 300.25 236.1 300.25 236.1 312.2 M235.5 270.15 L256.45 270.15 M198.1 245.8 L118.55 245.8 118.55 44.25 198.1 44.25 198.1 245.8" fill="none" stroke="#000000" stroke-linecap="round" stroke-linejoin="miter-clip" stroke-miterlimit="4.0" stroke-opacity="0.6" stroke-width="1.0"/>
    <path d="M155.05 93.75 L155.05 101.1 150.85 101.1 150.85 93.75 155.05 93.75 M150.85 79.5 L155.05 79.5 155.05 86.8 150.85 86.8 150.85 79.5 M150.85 115.35 L150.85 108.05 155.05 108.05 155.05 115.35 150.85 115.35 M155.05 122.3 L155.05 129.65 150.85 129.65 150.85 122.3 155.05 122.3 M150.85 136.6 L155.05 136.6 155.05 143.9 150.85 143.9 150.85 136.6 M150.85 158.2 L150.85 150.85 155.05 150.85 155.05 158.2 150.85 158.2" fill="none" stroke="#000000" stroke-linecap="round" stroke-linejoin="round" stroke-opacity="0.4" stroke-width="1.0"/>
  </g>
</svg>
