<?xml version="1.0" encoding="UTF-8" standalone="no"?>
<svg xmlns:xlink="http://www.w3.org/1999/xlink" height="59.7px" width="59.7px" xmlns="http://www.w3.org/2000/svg">
  <g transform="matrix(1.0, 0.0, 0.0, 1.0, 0.5, 0.55)">
    <path d="M58.7 29.3 Q58.7 41.45 50.1 50.05 41.5 58.65 29.35 58.65 17.2 58.65 8.6 50.05 0.0 41.45 0.0 29.3 0.0 17.15 8.6 8.55 17.2 -0.05 29.35 -0.05 41.5 -0.05 50.1 8.55 58.7 17.15 58.7 29.3" fill="#ffffff" fill-opacity="0.0" fill-rule="evenodd" stroke="none"/>
    <path d="M58.7 29.3 Q58.7 41.45 50.1 50.05 41.5 58.65 29.35 58.65 17.2 58.65 8.6 50.05 0.0 41.45 0.0 29.3 0.0 17.15 8.6 8.55 17.2 -0.05 29.35 -0.05 41.5 -0.05 50.1 8.55 58.7 17.15 58.7 29.3 Z" fill="none" stroke="#000000" stroke-linecap="round" stroke-linejoin="miter-clip" stroke-miterlimit="4.0" stroke-opacity="0.6" stroke-width="1.0"/>
  </g>
</svg>
