<?xml version="1.0" encoding="UTF-8" standalone="no"?>
<svg xmlns:xlink="http://www.w3.org/1999/xlink" height="234.0px" width="984.45px" xmlns="http://www.w3.org/2000/svg">
  <g transform="matrix(1.0, 0.0, 0.0, 1.0, 491.85, 82.3)">
    <path d="M492.1 50.15 L492.1 151.7 -491.35 151.7 -491.35 -67.4 -406.75 -75.9 -415.95 -74.15 -444.95 -68.2 Q-482.75 -59.75 -480.2 -56.4 -478.45 -54.0 -459.5 -52.0 L-439.35 -50.3 -401.55 -48.3 -388.05 -42.8 -294.55 -40.15 -277.0 -36.1 -345.25 -26.75 Q-414.65 -16.9 -420.55 -14.35 -426.45 -11.8 -386.1 -8.75 L-344.65 -6.2 -173.65 0.7 -151.9 1.85 -104.9 4.55 -36.9 9.9 -16.9 11.35 71.2 15.4 164.65 0.5 191.8 8.6 278.45 24.85 332.6 22.2 344.8 34.4 328.55 33.0 278.45 38.5 254.05 37.05 370.6 46.6 397.6 45.2 458.6 46.6 492.1 50.15 M226.95 -56.7 L232.0 -56.7 235.05 -62.8 242.2 -61.8 248.25 -53.65 235.05 -48.6 220.85 -52.65 226.95 -56.7 M309.25 -20.15 L318.4 -17.1 321.4 -12.0 303.15 -15.05 309.25 -20.15 M432.15 9.3 L403.7 11.35 379.35 11.35 387.45 6.25 395.6 3.2 399.65 5.25 404.75 6.25 406.75 0.2 415.9 -0.85 423.0 4.25 432.15 9.3 M-417.2 -35.4 L-421.25 -38.45 -427.35 -36.4 -432.45 -39.45 -437.5 -41.5 -444.65 -36.4 -439.55 -33.35 -427.35 -32.35 -420.25 -30.3 -417.2 -35.4 M130.4 37.75 L122.3 39.8 117.2 35.75 112.15 34.7 96.9 43.85 137.55 43.85 130.4 37.75 M-451.75 4.25 L-455.8 0.2 -461.9 -1.85 -465.95 1.2 -470.05 6.25 -451.75 4.25 M-436.5 35.75 L-440.55 29.65 -445.65 27.6 -445.65 36.75 -436.5 35.75 M-354.2 36.75 L-360.9 35.45 -369.05 29.95 -377.15 31.35 -381.25 40.8 -369.05 43.55 -350.15 43.55 -354.2 36.75 M-266.1 57.05 L-275.55 53.0 -281.05 53.0 -289.8 61.85 -248.55 62.45 -258.0 53.0 -266.1 57.05" fill="#000000" fill-opacity="0.2" fill-rule="evenodd" stroke="none"/>
    <path d="M28.8 -11.0 L27.8 -16.1 19.65 -15.05 28.8 -11.0 M-406.75 -75.9 L-382.35 -75.9 -336.65 -78.95 -184.25 -75.9 -172.05 -69.85 -36.9 -75.9 -4.4 -75.9 108.35 -78.95 129.7 -72.85 212.0 -78.95 230.3 -75.9 343.05 -72.85 370.5 -75.9 401.0 -75.9 492.1 -81.8 492.1 50.15 458.6 46.6 397.6 45.2 370.6 46.6 254.05 37.05 278.45 38.5 328.55 33.0 344.8 34.4 332.6 22.2 278.45 24.85 191.8 8.6 164.65 0.5 71.2 15.4 -16.9 11.35 -36.9 9.9 -104.9 4.55 -151.9 1.85 -173.65 0.7 -344.65 -6.2 -386.1 -8.75 Q-426.45 -11.8 -420.55 -14.35 -414.65 -16.9 -345.25 -26.75 L-277.0 -36.1 -294.55 -40.15 -388.05 -42.8 -401.55 -48.3 -439.35 -50.3 -459.5 -52.0 Q-478.45 -54.0 -480.2 -56.4 -482.75 -59.75 -444.95 -68.2 L-415.95 -74.15 -406.75 -75.9 M309.25 -20.15 L303.15 -15.05 321.4 -12.0 318.4 -17.1 309.25 -20.15 M226.95 -56.7 L220.85 -52.65 235.05 -48.6 248.25 -53.65 242.2 -61.8 235.05 -62.8 232.0 -56.7 226.95 -56.7 M411.85 -31.3 L406.75 -35.4 401.7 -32.35 411.85 -31.3 M432.15 9.3 L423.0 4.25 415.9 -0.85 406.75 0.2 404.75 6.25 399.65 5.25 395.6 3.2 387.45 6.25 379.35 11.35 403.7 11.35 432.15 9.3 M-164.2 -36.4 L-171.35 -33.35 -156.1 -32.35 -164.2 -36.4 M-51.45 -24.2 L-60.6 -22.2 -66.7 -17.1 -46.35 -19.15 -51.45 -24.2" fill="#ffffff" fill-opacity="0.0" fill-rule="evenodd" stroke="none"/>
    <path d="M28.8 -11.0 L19.65 -15.05 27.8 -16.1 28.8 -11.0 M411.85 -31.3 L401.7 -32.35 406.75 -35.4 411.85 -31.3 M130.4 37.75 L137.55 43.85 96.9 43.85 112.15 34.7 117.2 35.75 122.3 39.8 130.4 37.75 M-417.2 -35.4 L-420.25 -30.3 -427.35 -32.35 -439.55 -33.35 -444.65 -36.4 -437.5 -41.5 -432.45 -39.45 -427.35 -36.4 -421.25 -38.45 -417.2 -35.4 M-164.2 -36.4 L-156.1 -32.35 -171.35 -33.35 -164.2 -36.4 M-51.45 -24.2 L-46.35 -19.15 -66.7 -17.1 -60.6 -22.2 -51.45 -24.2 M-266.1 57.05 L-258.0 53.0 -248.55 62.45 -289.8 61.85 -281.05 53.0 -275.55 53.0 -266.1 57.05 M-354.2 36.75 L-350.15 43.55 -369.05 43.55 -381.25 40.8 -377.15 31.35 -369.05 29.95 -360.9 35.45 -354.2 36.75 M-436.5 35.75 L-445.65 36.75 -445.65 27.6 -440.55 29.65 -436.5 35.75 M-451.75 4.25 L-470.05 6.25 -465.95 1.2 -461.9 -1.85 -455.8 0.2 -451.75 4.25" fill="#000000" fill-opacity="0.6" fill-rule="evenodd" stroke="none"/>
    <path d="M-406.75 -75.9 L-382.35 -75.9 -336.65 -78.95 -184.25 -75.9 -172.05 -69.85 -36.9 -75.9 -4.4 -75.9 108.35 -78.95 129.7 -72.85 212.0 -78.95 230.3 -75.9 343.05 -72.85 370.5 -75.9 401.0 -75.9 492.1 -81.8 M-491.35 -67.4 L-406.75 -75.9 M-164.2 -36.4 L-156.1 -32.35 -171.35 -33.35 -164.2 -36.4" fill="none" stroke="#000000" stroke-linecap="round" stroke-linejoin="miter-clip" stroke-miterlimit="4.0" stroke-width="1.0"/>
  </g>
</svg>
