<?xml version="1.0" encoding="UTF-8" standalone="no"?>
<svg xmlns:xlink="http://www.w3.org/1999/xlink" height="279.25px" width="650.05px" xmlns="http://www.w3.org/2000/svg">
  <g transform="matrix(1.0, 0.0, 0.0, 1.0, 0.5, 0.5)">
    <path d="M0.0 0.9 L7.05 0.3 12.65 0.0 Q23.25 0.0 34.65 2.95 49.05 6.7 67.75 15.75 99.8 45.15 104.0 62.55 106.35 56.55 116.85 46.9 128.15 36.6 142.8 27.85 180.8 5.2 210.65 10.1 241.65 15.15 259.75 23.1 275.15 29.85 277.2 36.55 284.05 52.35 289.65 75.4 292.45 87.0 293.9 95.75 306.25 66.1 333.0 49.1 357.55 33.45 385.3 33.45 398.1 33.45 416.0 38.9 431.7 43.7 437.1 47.65 448.5 54.15 460.85 65.75 467.5 72.0 476.75 82.2 475.65 83.5 470.0 84.9 464.6 86.2 463.05 88.85 461.15 92.1 457.8 103.7 454.55 115.0 454.4 118.5 466.0 102.35 494.25 92.1 501.2 89.55 509.2 87.4 L517.6 85.3 Q528.35 82.85 539.8 81.3 L558.45 79.6 M581.2 152.6 Q581.75 158.4 575.8 170.15 570.1 181.4 560.25 194.65 538.4 223.85 517.6 237.15 L515.7 238.3 517.6 241.6 Q527.95 258.65 545.65 269.1 561.1 278.25 572.6 278.25 579.35 278.25 586.35 275.9 596.9 272.4 601.85 264.8 614.6 251.7 626.75 232.65 637.7 215.45 639.75 207.4 L646.05 182.05 Q647.95 174.25 649.05 172.1 M293.9 95.75 Q293.45 113.9 291.45 136.1 287.5 180.45 280.05 200.5 283.8 207.45 287.75 211.1 293.2 216.15 303.4 219.95 325.6 228.3 390.5 236.85 L395.15 237.5 409.7 238.2 419.7 224.3 432.4 198.1 Q438.3 185.45 441.85 175.7 449.8 153.55 454.4 118.5 M515.7 238.3 L504.1 246.85 Q501.55 248.7 499.3 250.0 492.0 254.2 486.75 256.05 477.95 259.05 467.05 259.05 452.55 259.05 437.35 244.3 432.7 239.85 426.8 232.7 L419.7 224.3 M104.0 62.55 L105.95 70.35 Q122.05 53.4 134.4 45.4 154.5 32.4 176.5 32.4 188.15 32.4 209.55 35.6 237.7 39.8 242.15 45.85 249.25 39.05 260.15 36.8 269.2 34.9 277.2 36.55 M0.0 212.05 Q11.2 212.85 48.6 206.05 84.5 199.5 86.0 197.65 94.45 193.05 98.65 175.25 99.7 170.7 101.8 158.95 103.75 148.0 105.25 142.2 107.05 118.05 107.45 99.25 L107.7 81.05 105.95 70.35 M67.75 15.75 L62.55 15.5 Q42.05 15.5 27.15 20.3 15.8 24.0 0.0 33.55 M280.05 200.5 L273.4 216.8 Q205.95 226.45 199.0 226.85 L190.05 227.5 182.85 227.85 Q141.75 227.85 124.4 202.45 117.25 192.0 112.45 175.2 109.45 164.7 105.25 142.2" fill="none" stroke="#000000" stroke-linecap="round" stroke-linejoin="miter-clip" stroke-miterlimit="4.0" stroke-width="1.0"/>
  </g>
</svg>
