<?xml version="1.0" encoding="UTF-8" standalone="no"?>
<svg xmlns:xlink="http://www.w3.org/1999/xlink" height="361.2px" width="686.2px" xmlns="http://www.w3.org/2000/svg">
  <g transform="matrix(1.0, 0.0, 0.0, 1.0, 0.5, 0.0)">
    <path d="M685.2 350.3 L685.2 360.7 154.0 360.7 154.0 205.2 132.3 202.75 Q105.0 200.0 77.0 198.6 L21.7 196.7 Q8.05 196.4 0.0 196.4 L0.0 137.1 45.4 136.9 Q183.25 136.9 305.8 144.35 L305.8 316.4 685.2 350.3" fill="#ffffff" fill-opacity="0.0" fill-rule="evenodd" stroke="none"/>
    <path d="M305.8 44.3 L305.8 144.35 Q183.25 136.9 45.4 136.9 L0.0 137.1 0.0 0.15 Q3.45 0.95 4.6 2.45 6.55 4.95 6.55 8.3 L6.55 32.8 93.95 33.5 93.95 8.3 Q93.95 4.9 95.9 2.45 97.85 0.0 100.6 0.0 103.35 0.0 105.3 2.45 107.25 4.9 107.25 8.3 L107.25 33.75 145.2 34.95 206.9 37.35 206.9 12.75 Q206.9 9.3 208.85 6.9 210.8 4.45 213.55 4.45 216.3 4.45 218.2 6.9 220.15 9.3 220.15 12.75 L220.15 38.1 305.8 44.3 M0.0 196.4 Q8.05 196.4 21.7 196.7 L77.0 198.6 Q105.0 200.0 132.3 202.75 L154.0 205.2 154.0 360.7 0.0 360.7 0.0 196.4" fill="#000000" fill-opacity="0.09803922" fill-rule="evenodd" stroke="none"/>
    <path d="M305.8 144.35 Q505.95 156.45 665.15 188.4 L685.2 192.55 685.2 350.3 305.8 316.4 305.8 144.35" fill="#000000" fill-opacity="0.14901961" fill-rule="evenodd" stroke="none"/>
    <path d="M663.05 114.8 L663.05 95.65 Q663.05 92.2 665.0 89.8 666.95 87.35 669.7 87.35 672.45 87.35 674.4 89.8 676.35 92.2 676.35 95.65 L676.35 120.25 685.2 124.1 685.2 192.55 665.15 188.4 Q505.95 156.45 305.8 144.35 L305.8 44.3 305.8 44.25 319.8 45.6 319.8 19.45 Q319.8 16.0 321.75 13.55 323.7 11.1 326.45 11.1 329.2 11.1 331.15 13.55 333.1 16.0 333.1 19.45 L333.1 46.85 412.8 56.1 412.8 32.7 Q412.8 29.25 414.75 26.85 416.7 24.4 419.5 24.4 422.25 24.4 424.15 26.85 426.1 29.25 426.1 32.7 L426.1 57.95 Q453.95 61.9 512.5 72.65 L512.5 47.45 Q512.5 44.05 514.45 41.6 516.35 39.15 519.1 39.15 521.85 39.15 523.8 41.6 525.75 44.05 525.75 47.45 L525.75 75.4 Q564.95 83.6 598.85 93.3 L598.85 71.3 Q598.85 67.85 600.8 65.45 602.75 63.0 605.5 63.0 608.25 63.0 610.2 65.45 612.15 67.85 612.15 71.3 L612.15 97.2 624.25 101.4 663.05 114.8" fill="#000000" fill-opacity="0.24705882" fill-rule="evenodd" stroke="none"/>
    <path d="M676.35 120.25 L676.35 95.65 Q676.35 92.2 674.4 89.8 672.45 87.35 669.7 87.35 666.95 87.35 665.0 89.8 663.05 92.2 663.05 95.65 L663.05 114.8" fill="none" stroke="#000000" stroke-linecap="round" stroke-linejoin="miter-clip" stroke-miterlimit="4.0" stroke-width="1.0"/>
    <path d="M685.2 192.55 L685.2 124.1 676.35 120.25 M154.0 360.7 L685.2 360.7 685.2 350.3 685.2 192.55" fill="none" stroke="#000000" stroke-linecap="round" stroke-linejoin="miter-clip" stroke-miterlimit="4.0" stroke-opacity="0.6" stroke-width="1.0"/>
    <path d="M154.0 360.7 L0.0 360.7" fill="none" stroke="#000000" stroke-linecap="round" stroke-linejoin="round" stroke-width="1.0"/>
  </g>
</svg>
