<?xml version="1.0" encoding="UTF-8" standalone="no"?>
<svg xmlns:xlink="http://www.w3.org/1999/xlink" height="40.25px" width="33.25px" xmlns="http://www.w3.org/2000/svg">
  <g transform="matrix(1.0, 0.0, 0.0, 1.0, 0.9, 0.5)">
    <path d="M16.95 9.05 L22.6 12.25 Q24.3 13.35 25.6 14.8 29.35 19.1 28.0 24.95 L20.0 23.65 19.6 23.65 19.75 16.25 Q19.75 13.55 16.95 9.05" fill="#000000" fill-opacity="0.2" fill-rule="evenodd" stroke="none"/>
    <path d="M16.95 9.05 Q19.75 13.55 19.75 16.25 L19.6 23.65 8.2 23.65 3.95 25.0 Q3.7 23.05 4.2 20.7 5.4 14.95 10.8 12.0 L15.9 8.45 16.05 8.55 16.95 9.05 M27.55 29.1 L27.55 39.25 9.5 38.85 9.5 33.65 Q9.4 31.65 8.2 30.5 L7.05 29.7 Q6.1 30.25 5.65 32.2 L5.35 34.0 5.35 38.75 4.25 38.7 4.25 29.0 4.25 27.25 10.6 26.3 20.2 26.3 27.55 27.45 27.55 29.1 M23.95 29.1 Q22.8 29.35 22.05 30.8 L21.5 32.15 21.5 38.15 25.65 38.15 Q26.05 38.15 25.65 32.5 25.65 30.95 24.8 29.9 L23.95 29.1 M12.75 30.95 L11.95 32.9 11.95 38.5 18.7 38.35 18.7 32.9 Q18.1 30.9 16.55 29.65 L15.15 28.75 Q13.85 28.95 12.75 30.95" fill="#000000" fill-opacity="0.09803922" fill-rule="evenodd" stroke="none"/>
    <path d="M19.6 23.65 L20.0 23.65 28.0 24.95 29.25 25.15 31.5 27.6 27.55 29.1 27.55 27.45 20.2 26.3 10.6 26.3 4.25 27.25 4.25 29.0 2.7 28.95 0.0 26.2 3.95 25.0 8.2 23.65 19.6 23.65" fill="#000000" fill-opacity="0.047058824" fill-rule="evenodd" stroke="none"/>
    <path d="M9.5 38.85 L5.35 38.75 5.35 34.0 5.65 32.2 Q6.1 30.25 7.05 29.7 L8.2 30.5 Q9.4 31.65 9.5 33.65 L9.5 38.85 M12.75 30.95 Q13.85 28.95 15.15 28.75 L16.55 29.65 Q18.1 30.9 18.7 32.9 L18.7 38.35 11.95 38.5 11.95 32.9 12.75 30.95 M23.95 29.1 L24.8 29.9 Q25.65 30.95 25.65 32.5 26.05 38.15 25.65 38.15 L21.5 38.15 21.5 32.15 22.05 30.8 Q22.8 29.35 23.95 29.1" fill="#000000" fill-opacity="0.44705883" fill-rule="evenodd" stroke="none"/>
    <path d="M28.0 24.95 Q29.35 19.1 25.6 14.8 24.3 13.35 22.6 12.25 L16.95 9.05 M28.0 24.95 L29.25 25.15 31.5 27.6 27.55 29.1 27.55 39.25 9.5 38.85 M5.35 38.75 L4.25 38.7 4.25 29.0 2.7 28.95 0.0 26.2 3.95 25.0 Q3.7 23.05 4.2 20.7 5.4 14.95 10.8 12.0 L15.9 8.45 16.05 8.55 16.05 0.0" fill="none" stroke="#000000" stroke-linecap="round" stroke-linejoin="miter-clip" stroke-miterlimit="4.0" stroke-opacity="0.6" stroke-width="1.0"/>
    <path d="M19.6 23.65 L20.0 23.65 28.0 24.95 M9.5 38.85 L5.35 38.75 5.35 34.0 5.65 32.2 Q6.1 30.25 7.05 29.7 L8.2 30.5 Q9.4 31.65 9.5 33.65 L9.5 38.85 M16.95 9.05 L16.05 8.55 M3.95 25.0 L8.2 23.65 19.6 23.65 M27.55 29.1 L27.55 27.45 20.2 26.3 10.6 26.3 4.25 27.25 4.25 29.0 M12.75 30.95 Q13.85 28.95 15.15 28.75 L16.55 29.65 Q18.1 30.9 18.7 32.9 L18.7 38.35 11.95 38.5 11.95 32.9 12.75 30.95 M23.95 29.1 L24.8 29.9 Q25.65 30.95 25.65 32.5 26.05 38.15 25.65 38.15 L21.5 38.15 21.5 32.15 22.05 30.8 Q22.8 29.35 23.95 29.1" fill="none" stroke="#000000" stroke-linecap="round" stroke-linejoin="miter-clip" stroke-miterlimit="4.0" stroke-opacity="0.4" stroke-width="1.0"/>
  </g>
</svg>
