<?xml version="1.0" encoding="UTF-8" standalone="no"?>
<svg xmlns:xlink="http://www.w3.org/1999/xlink" height="277.5px" width="434.75px" xmlns="http://www.w3.org/2000/svg">
  <g transform="matrix(1.0, 0.0, 0.0, 1.0, 0.5, 0.6)">
    <path d="M399.7 276.4 L405.2 100.85 409.6 101.1 409.75 96.25 405.35 96.0 Q405.05 96.1 405.6 87.7 405.95 82.45 409.3 80.35 409.6 80.15 409.85 80.05 411.2 79.3 412.55 79.3 L412.75 72.35 406.1 71.6 Q406.45 63.2 408.25 55.1 408.95 51.9 409.85 49.3 414.2 36.4 422.6 38.45 427.9 39.75 430.7 45.35 433.2 50.45 433.65 59.15 434.05 67.05 432.9 74.5 L426.65 73.85 426.15 80.75 429.15 82.1 Q430.1 82.9 430.7 84.0 431.95 86.25 431.7 89.9 L431.1 98.6 430.7 98.6 426.35 98.4 426.05 103.25 430.7 103.5 430.8 103.5 419.6 276.4 M327.1 276.4 L336.0 93.7 339.4 94.0 339.65 89.25 336.25 88.95 Q336.05 89.1 336.7 79.95 337.1 74.25 339.7 72.45 341.0 71.6 342.2 71.85 L342.6 64.75 337.4 64.2 Q337.85 54.55 341.5 45.35 346.4 32.95 355.4 29.55 360.65 27.6 367.25 28.65 L371.2 29.55 Q385.8 34.05 389.9 53.45 391.65 61.9 391.3 70.0 L384.4 69.25 383.85 76.25 387.15 77.95 Q390.35 80.7 390.0 85.85 L389.3 94.35 385.1 94.05 384.7 98.85 388.9 99.15 374.25 276.4 M229.7 276.4 L239.95 83.75 243.55 84.05 243.85 79.4 240.2 79.15 240.65 70.3 Q240.95 64.7 243.45 62.55 244.7 61.5 245.9 61.55 L246.35 54.4 241.5 53.85 241.6 52.2 Q241.8 49.75 242.65 46.1 244.3 38.8 247.65 32.95 258.25 14.15 281.1 16.45 293.7 17.7 301.85 25.0 L302.95 26.0 303.85 26.9 Q309.15 32.45 312.3 40.9 316.3 51.6 316.05 61.9 L311.45 61.4 310.95 68.5 313.15 69.6 Q315.3 71.85 314.9 77.55 L314.25 86.7 311.15 86.45 310.8 91.15 313.9 91.4 312.55 109.9 302.95 242.1 301.85 257.25 301.3 264.8 300.45 276.4 M126.1 276.4 L140.7 73.5 143.9 73.85 144.15 69.35 141.0 69.0 Q140.8 69.3 141.7 59.65 142.25 53.6 144.8 51.75 146.1 50.8 147.25 51.05 L147.65 43.75 142.85 43.2 Q143.4 34.3 148.35 25.6 L148.6 25.2 Q153.35 17.05 160.95 12.8 170.65 7.3 185.0 8.15 L185.75 8.2 Q193.0 8.7 198.7 10.8 212.8 15.9 217.25 30.65 219.95 39.4 219.0 47.95 L218.45 51.3 218.45 51.35 213.35 50.8 212.85 58.05 215.35 59.65 Q217.75 62.3 217.3 67.85 L216.7 76.75 213.5 76.6 213.15 81.15 216.35 81.3 202.65 276.4 M48.35 276.4 L62.25 65.35 66.15 65.8 66.45 61.45 62.5 61.0 Q62.2 60.9 63.15 51.5 63.75 45.65 67.0 43.65 68.6 42.65 70.1 42.85 L70.65 35.45 64.25 34.75 64.3 34.05 Q64.35 24.7 68.2 16.2 70.2 11.9 72.9 8.95 76.4 5.15 81.15 3.7 87.2 1.8 95.2 3.6 98.3 4.3 101.0 5.4 115.25 10.95 119.55 26.8 121.5 34.1 121.2 40.9 L114.9 40.2 114.35 47.55 115.3 47.65 Q116.4 47.9 117.3 48.6 120.15 50.85 119.7 56.95 L118.8 66.75 115.35 66.55 115.0 71.0 118.4 71.2 99.65 276.4 M0.0 276.4 L15.0 60.5 19.25 60.85 19.6 56.55 15.3 56.2 Q15.2 56.3 16.05 45.55 16.6 38.85 19.45 37.6 L21.4 37.45 22.25 37.75 22.85 30.25 17.15 29.65 17.4 26.05 Q17.75 19.4 19.8 12.8 23.95 -0.35 32.4 0.0 L34.15 0.3 Q41.2 2.15 44.15 17.2 L44.3 18.0 Q45.7 25.4 45.75 32.75 L38.5 31.95 37.75 39.4 38.95 39.65 Q40.35 40.0 41.45 40.85 43.85 42.65 44.3 45.95 44.5 47.35 44.3 49.1 L44.25 49.5 Q43.0 59.1 43.25 59.05 L38.85 58.7 38.4 63.0 42.8 63.35 21.2 276.4" fill="none" stroke="#000000" stroke-linecap="butt" stroke-linejoin="miter-clip" stroke-miterlimit="4.0" stroke-opacity="0.8" stroke-width="1.0"/>
  </g>
</svg>
