<?xml version="1.0" encoding="UTF-8" standalone="no"?>
<svg xmlns:xlink="http://www.w3.org/1999/xlink" height="307.5px" width="1170.3px" xmlns="http://www.w3.org/2000/svg">
  <g transform="matrix(1.0, 0.0, 0.0, 1.0, 0.5, 0.5)">
    <path d="M1160.85 132.6 L1127.75 261.5 1164.45 261.3 1141.7 306.5 19.25 306.5 0.0 266.55 36.65 266.4 17.1 144.35 60.9 154.15 73.0 112.55 171.75 157.6 178.65 109.1 228.9 121.25 225.4 147.2 268.7 148.95 265.25 126.45 350.1 121.25 358.8 86.6 282.6 86.6 292.95 57.15 384.75 58.9 388.2 136.8 440.2 133.35 441.9 86.6 467.9 98.7 469.6 138.55 511.2 136.8 523.3 60.6 557.95 60.6 566.6 84.85 542.35 95.25 544.1 131.6 632.4 133.35 639.35 79.65 677.45 83.15 684.4 145.5 743.25 135.1 741.55 55.4 765.8 48.5 767.5 133.35 817.75 138.55 819.45 107.4 786.55 97.0 821.2 81.4 862.75 126.45 947.65 131.6 964.95 100.45 1016.9 98.7 1025.55 129.9 1081.0 128.15 1112.15 100.45 1160.85 132.6 M998.65 216.0 L935.55 222.95 954.55 241.1 1011.6 241.1 998.65 216.0 M658.05 165.9 L683.1 203.9 702.1 225.55 705.55 178.0 677.05 175.4 658.05 165.9 M879.35 244.55 L875.9 184.9 853.4 206.5 825.75 190.95 837.85 235.05 879.35 244.55 M351.1 171.95 L411.65 187.5 442.75 200.45 442.75 241.1 490.3 244.55 505.85 231.6 588.0 229.0 474.75 209.95 430.65 171.95 351.1 171.95 M171.3 229.0 L215.4 206.5 180.8 181.45 140.2 194.4 171.3 229.0" fill="#ffffff" fill-opacity="0.0" fill-rule="evenodd" stroke="none"/>
    <path d="M998.65 216.0 L1011.6 241.1 954.55 241.1 935.55 222.95 998.65 216.0 M171.3 229.0 L140.2 194.4 180.8 181.45 215.4 206.5 171.3 229.0" fill="#000000" fill-opacity="0.29803923" fill-rule="evenodd" stroke="none"/>
    <path d="M17.1 144.35 L15.7 135.6 22.8 32.9 161.35 34.65 220.25 19.05 272.2 34.65 370.9 0.0 486.95 1.75 613.35 26.0 713.8 22.5 803.9 10.45 956.3 8.65 997.85 19.05 1169.3 17.3 1162.4 126.45 1160.85 132.6 1112.15 100.45 1081.0 128.15 1025.55 129.9 1016.9 98.7 964.95 100.45 947.65 131.6 862.75 126.45 821.2 81.4 786.55 97.0 819.45 107.4 817.75 138.55 767.5 133.35 765.8 48.5 741.55 55.4 743.25 135.1 684.4 145.5 677.45 83.15 639.35 79.65 632.4 133.35 544.1 131.6 542.35 95.25 566.6 84.85 557.95 60.6 523.3 60.6 511.2 136.8 469.6 138.55 467.9 98.7 441.9 86.6 440.2 133.35 388.2 136.8 384.75 58.9 292.95 57.15 282.6 86.6 358.8 86.6 350.1 121.25 265.25 126.45 268.7 148.95 225.4 147.2 228.9 121.25 178.65 109.1 171.75 157.6 73.0 112.55 60.9 154.15 17.1 144.35 M879.35 244.55 L837.85 235.05 825.75 190.95 853.4 206.5 875.9 184.9 879.35 244.55 M658.05 165.9 L677.05 175.4 705.55 178.0 702.1 225.55 683.1 203.9 658.05 165.9 M351.1 171.95 L430.65 171.95 474.75 209.95 588.0 229.0 505.85 231.6 490.3 244.55 442.75 241.1 442.75 200.45 411.65 187.5 351.1 171.95" fill="#000000" fill-opacity="0.14901961" fill-rule="evenodd" stroke="none"/>
    <path d="M17.1 144.35 L15.7 135.6 22.8 32.9 161.35 34.65 220.25 19.05 272.2 34.65 370.9 0.0 486.95 1.75 613.35 26.0 713.8 22.5 803.9 10.45 956.3 8.65 997.85 19.05 1169.3 17.3 1162.4 126.45 1160.85 132.6 1127.75 261.5 1164.45 261.3 1141.7 306.5 19.25 306.5 0.0 266.55 36.65 266.4 17.1 144.35 Z" fill="none" stroke="#000000" stroke-linecap="round" stroke-linejoin="round" stroke-width="1.0"/>
  </g>
</svg>
