<?xml version="1.0" encoding="UTF-8" standalone="no"?>
<svg xmlns:xlink="http://www.w3.org/1999/xlink" height="184.9px" width="642.55px" xmlns="http://www.w3.org/2000/svg">
  <g transform="matrix(1.0, 0.0, 0.0, 1.0, 0.5, 0.5)">
    <path d="M0.0 183.9 L0.0 0.0 641.55 0.0 641.55 4.9 9.8 4.9 9.8 15.75 Q60.35 17.9 109.5 22.2 L90.35 48.25 90.5 166.6 129.75 166.6 129.75 48.75 110.9 22.3 174.5 28.8 160.25 48.25 160.4 166.6 199.65 166.6 199.65 48.75 186.45 30.25 237.2 37.15 229.05 48.25 229.2 166.6 268.45 166.6 268.45 48.75 263.1 41.2 298.75 47.35 298.05 48.25 298.2 166.6 337.45 166.6 337.45 54.9 366.85 61.25 366.95 166.6 406.2 166.6 406.2 70.75 Q421.2 74.6 435.65 78.7 L435.75 166.6 475.0 166.6 475.0 90.6 Q490.1 95.5 504.5 100.65 L504.55 166.6 543.8 166.6 543.8 115.75 Q598.25 138.2 641.55 165.3 L641.55 183.9 516.05 183.9 516.05 182.6 514.35 183.9 345.85 183.9 345.85 182.6 344.15 183.9 175.65 183.9 175.65 182.6 173.95 183.9 0.0 183.9" fill="#ffffff" fill-opacity="0.0" fill-rule="evenodd" stroke="none"/>
    <path d="M641.55 4.9 L641.55 165.3 Q598.25 138.2 543.8 115.75 L543.8 48.75 524.2 21.25 504.4 48.25 504.5 100.65 Q490.1 95.5 475.0 90.6 L475.0 48.75 455.4 21.25 435.6 48.25 435.65 78.7 Q421.2 74.6 406.2 70.75 L406.2 48.75 386.6 21.25 366.8 48.25 366.85 61.25 337.45 54.9 337.45 48.75 317.85 21.25 298.75 47.35 263.1 41.2 248.85 21.25 237.2 37.15 186.45 30.25 180.05 21.25 174.5 28.8 110.9 22.3 110.15 21.25 109.5 22.2 Q60.35 17.9 9.8 15.75 L9.8 4.9 641.55 4.9" fill="#000000" fill-opacity="0.09803922" fill-rule="evenodd" stroke="none"/>
    <path d="M0.0 183.9 L0.0 0.0 641.55 0.0 641.55 4.9 641.55 165.3 641.55 183.9" fill="none" stroke="#000000" stroke-linecap="round" stroke-linejoin="miter-clip" stroke-miterlimit="4.0" stroke-width="1.0"/>
    <path d="M516.05 183.9 L516.05 182.6 514.35 183.9 M345.85 183.9 L345.85 182.6 344.15 183.9 M175.65 183.9 L175.65 182.6 173.95 183.9" fill="none" stroke="#000000" stroke-linecap="round" stroke-linejoin="round" stroke-opacity="0.4" stroke-width="1.0"/>
    <path d="M641.55 183.9 L516.05 183.9 M514.35 183.9 L345.85 183.9 M344.15 183.9 L175.65 183.9 M173.95 183.9 L0.0 183.9 Z" fill="none" stroke="#000000" stroke-linecap="round" stroke-linejoin="miter-clip" stroke-miterlimit="4.0" stroke-opacity="0.6" stroke-width="1.0"/>
  </g>
</svg>
