<?xml version="1.0" encoding="UTF-8" standalone="no"?>
<svg xmlns:xlink="http://www.w3.org/1999/xlink" height="197.95px" width="288.3px" xmlns="http://www.w3.org/2000/svg">
  <g transform="matrix(1.0, 0.0, 0.0, 1.0, 0.5, 0.5)">
    <path d="M271.8 69.05 L249.7 69.05 234.7 69.05 152.3 69.05 M276.05 121.15 L158.8 121.15 158.8 139.9 M241.35 139.9 L241.35 180.0 207.55 180.0 M287.3 184.85 L282.05 184.85 M276.05 98.1 L159.5 98.1 159.5 91.45 151.65 91.45 151.65 66.0 M77.2 182.3 L77.2 180.0 97.1 180.0 M126.9 134.25 L126.9 134.7 126.95 135.4 M144.9 134.25 L145.1 135.4 M142.1 99.45 L78.45 99.45 M142.1 103.05 L78.45 103.05 M276.05 111.55 L159.7 111.55 M276.05 107.3 L159.7 107.3 M276.05 101.85 L159.7 101.85" fill="none" stroke="#000000" stroke-linecap="butt" stroke-linejoin="miter-clip" stroke-miterlimit="4.0" stroke-opacity="0.6" stroke-width="1.0"/>
    <path d="M282.05 139.9 L284.9 139.9 M56.5 0.0 L0.0 0.0" fill="none" stroke="#000000" stroke-linecap="butt" stroke-linejoin="miter-clip" stroke-miterlimit="4.0" stroke-width="1.0"/>
    <path d="M207.0 123.65 L207.25 136.8 M214.4 123.65 L214.65 136.8 M221.8 123.65 L222.1 136.8 M236.65 123.65 L236.95 136.8 M229.2 123.65 L229.5 136.8 M162.95 123.65 L163.2 136.8 M177.35 123.65 L177.6 136.8 M169.95 123.65 L170.2 136.8 M199.6 123.65 L199.85 136.8 M184.8 123.65 L185.05 136.8 M192.2 123.65 L192.45 136.8 M272.35 123.65 L277.2 136.8 M250.7 123.65 L251.75 136.8 M257.7 123.65 L259.75 136.8 M244.05 123.65 L244.35 136.8 M264.85 123.65 L268.1 136.8 M130.85 25.8 L132.85 42.7 M137.45 25.8 L139.85 42.7 M125.0 25.8 L126.5 42.7 M81.7 17.45 L82.0 42.7 M119.05 25.8 L119.8 42.7 M113.4 25.8 L113.65 42.7 M88.05 25.8 L88.3 42.7 M94.4 25.8 L94.65 42.7 M100.7 25.8 L100.95 42.7 M107.05 25.8 L107.3 42.7 M104.75 59.55 L104.95 88.6 M110.25 59.55 L110.45 88.6 M115.8 59.55 L116.0 88.6 M82.65 59.55 L82.85 88.6 M88.15 59.55 L88.35 88.6 M93.7 59.55 L93.9 88.6 M99.2 59.55 L99.4 88.6 M126.25 59.55 L126.5 68.15 127.1 88.6 M131.45 59.55 L131.7 68.15 132.35 88.6 M136.3 59.55 L137.35 88.6 M142.15 59.55 L143.4 88.6 M121.3 59.55 L121.5 88.6 M50.1 24.9 L50.35 42.7 M56.45 17.45 L56.55 42.7 M75.4 17.45 L75.65 42.7 M69.05 17.45 L69.35 42.7 M62.75 17.45 L63.0 42.7 M66.0 59.55 L66.3 88.6 M71.6 59.55 L71.8 88.6 M77.1 59.55 L77.3 88.6 M71.65 119.45 L71.8 135.4 M77.15 119.45 L77.3 135.4 M136.7 119.45 L138.8 134.7 138.9 135.4 M131.5 119.45 L132.95 135.4 M126.3 119.45 L126.9 134.25 M142.4 119.45 L144.9 134.25 M104.8 119.45 L104.95 135.4 M110.3 119.45 L110.45 135.4 M115.85 119.45 L116.0 135.4 M82.7 119.45 L82.85 135.4 M88.2 119.45 L88.35 135.4 M93.75 119.45 L93.9 135.4 M99.25 119.45 L99.4 135.4 M121.35 119.45 L121.5 135.4" fill="none" stroke="#000000" stroke-linecap="butt" stroke-linejoin="miter-clip" stroke-miterlimit="4.0" stroke-opacity="0.4" stroke-width="1.0"/>
    <path d="M272.55 71.45 L267.05 71.45 M158.8 139.9 L160.8 139.9 M282.05 180.0 L247.85 180.0 247.85 139.9 M0.0 56.1 L49.0 56.1 49.0 48.45 56.8 48.45 56.8 48.5 M143.9 55.1 L56.8 55.1" fill="none" stroke="#000000" stroke-linecap="butt" stroke-linejoin="miter-clip" stroke-miterlimit="4.0" stroke-opacity="0.6" stroke-width="1.0"/>
    <path d="M267.05 71.45 L270.9 92.15 M251.8 71.45 L253.3 92.15 M244.45 71.45 L245.45 92.15 M259.4 71.45 L262.25 92.15 M190.7 71.45 L191.0 92.15 M182.9 71.45 L183.25 92.15 M167.3 71.45 L167.65 92.15 M175.1 71.45 L175.45 92.15 M221.85 71.45 L222.25 92.15 M206.3 71.45 L206.65 92.15 M237.45 71.45 L237.85 92.15" fill="none" stroke="#000000" stroke-linecap="round" stroke-linejoin="miter-clip" stroke-miterlimit="4.0" stroke-opacity="0.4" stroke-width="1.0"/>
    <path d="M259.4 71.45 L251.8 71.45 244.45 71.45 237.45 71.45 229.7 71.45 221.85 71.45 214.1 71.45 206.3 71.45 198.5 71.45 190.7 71.45 182.9 71.45 175.1 71.45 167.3 71.45 159.5 71.45 M267.05 71.45 L259.4 71.45 M160.8 139.9 L167.3 139.9 201.05 139.9 207.55 139.9 241.35 139.9 247.85 139.9 M201.05 139.9 L201.05 180.0 167.3 180.0 167.3 139.9 M207.55 180.0 L207.55 139.9 M56.8 48.5 L57.35 51.6 57.4 51.55 57.45 52.1 145.2 52.1 146.45 48.5 146.45 92.65 141.25 92.65 141.25 96.3 67.2 96.3 67.2 92.65 61.35 92.65 61.35 86.0 56.8 86.0 56.8 55.1 56.8 52.1 57.35 51.6 M97.1 180.0 L97.1 139.9 65.25 139.9 65.25 117.5 141.55 117.7 146.45 117.7 149.1 133.25 149.1 139.9 103.6 139.9 103.6 180.0 160.8 180.0 160.8 139.9 M103.6 139.9 L97.1 139.9" fill="none" stroke="#000000" stroke-linecap="round" stroke-linejoin="miter-clip" stroke-miterlimit="4.0" stroke-opacity="0.6" stroke-width="1.0"/>
    <path d="M198.85 92.15 L198.5 71.45 M230.0 92.15 L229.7 71.45 M214.4 92.15 L214.1 71.45 M159.85 92.15 L159.5 71.45" fill="none" stroke="#000000" stroke-linecap="butt" stroke-linejoin="miter-clip" stroke-miterlimit="4.0" stroke-opacity="0.4" stroke-width="1.0"/>
    <path d="M247.85 139.9 L282.05 139.9 M282.05 184.85 L77.2 184.85 M159.5 71.45 L152.3 71.45 M49.0 56.1 L49.0 182.3" fill="none" stroke="#000000" stroke-linecap="round" stroke-linejoin="miter-clip" stroke-miterlimit="4.0" stroke-opacity="0.6" stroke-width="1.0"/>
    <path d="M77.2 182.3 L77.2 184.85" fill="none" stroke="#000000" stroke-linecap="round" stroke-linejoin="miter-clip" stroke-miterlimit="4.0" stroke-width="1.0"/>
    <path d="M49.0 182.3 L77.2 182.3" fill="none" stroke="#000000" stroke-linecap="butt" stroke-linejoin="miter-clip" stroke-miterlimit="4.0" stroke-width="1.0"/>
    <path d="M77.2 184.85 L77.2 196.95 87.85 196.95" fill="none" stroke="#000000" stroke-linecap="round" stroke-linejoin="miter-clip" stroke-miterlimit="4.0" stroke-width="1.0"/>
  </g>
</svg>
