<?xml version="1.0" encoding="UTF-8" standalone="no"?>
<svg xmlns:xlink="http://www.w3.org/1999/xlink" height="84.25px" width="733.55px" xmlns="http://www.w3.org/2000/svg">
  <g transform="matrix(1.0, 0.0, 0.0, 1.0, 0.85, 0.5)">
    <path d="M720.4 22.3 L720.95 21.3 699.0 64.1 Q619.2 76.95 508.95 81.25 437.75 84.05 366.0 82.95 294.25 84.05 222.95 81.25 112.7 76.95 32.9 64.1 L10.95 21.3 11.5 22.3 366.0 34.0 720.4 22.3" fill="#ffffff" fill-opacity="0.0" fill-rule="evenodd" stroke="none"/>
    <path d="M720.95 21.3 L720.4 22.3 366.0 34.0 11.5 22.3 10.95 21.3 0.0 0.0 366.0 12.1 731.9 0.0 720.95 21.3" fill="#ffffff" fill-opacity="0.09803922" fill-rule="evenodd" stroke="none"/>
    <path d="M720.4 22.3 L720.95 21.3 731.9 0.0 366.0 12.1 0.0 0.0 10.95 21.3 11.5 22.3 M10.95 21.3 L32.9 64.1 Q112.7 76.95 222.95 81.25 294.25 84.05 366.0 82.95 437.75 84.05 508.95 81.25 619.2 76.95 699.0 64.1 L720.95 21.3" fill="none" stroke="#000000" stroke-linecap="round" stroke-linejoin="miter-clip" stroke-miterlimit="4.0" stroke-width="1.0"/>
    <path d="M11.5 22.3 L366.0 34.0 720.4 22.3 Z" fill="none" stroke="#000000" stroke-linecap="round" stroke-linejoin="miter-clip" stroke-miterlimit="4.0" stroke-opacity="0.6" stroke-width="1.0"/>
  </g>
</svg>
