<?xml version="1.0" encoding="UTF-8" standalone="no"?>
<svg xmlns:xlink="http://www.w3.org/1999/xlink" height="1744.1px" width="1147.8px" xmlns="http://www.w3.org/2000/svg">
  <g transform="matrix(1.0, 0.0, 0.0, 1.0, -115.05, 0.5)">
    <path d="M1262.35 1644.8 L1262.35 1743.1 159.25 1743.1 159.25 1644.8 1262.35 1644.8" fill="#000000" fill-opacity="0.34901962" fill-rule="evenodd" stroke="none"/>
    <path d="M159.25 1028.95 L159.25 973.3 1262.3 973.3 1262.3 1028.95 159.25 1028.95" fill="#000000" fill-opacity="0.2" fill-rule="evenodd" stroke="none"/>
    <path d="M1262.35 389.35 L1262.35 431.05 163.85 431.05 159.25 426.9 159.25 389.35 1262.35 389.35" fill="#000000" fill-opacity="0.09803922" fill-rule="evenodd" stroke="none"/>
    <path d="M160.15 117.4 L159.25 117.4 159.25 0.0 1262.35 0.0 1262.35 117.4 160.15 117.4 M1140.3 529.15 L973.45 529.15 973.45 876.6 1140.3 876.6 1140.3 529.15 M1262.35 431.05 L1262.35 1644.8 159.25 1644.8 159.25 1644.5 900.8 1643.85 900.8 1337.95 159.25 1337.95 159.25 1028.95 1262.3 1028.95 1262.3 973.3 159.25 973.3 159.25 426.9 163.85 431.05 1262.35 431.05 M380.15 529.15 L213.3 529.15 213.3 876.6 380.15 876.6 380.15 529.15 M747.85 529.15 L581.0 529.15 581.0 876.6 747.85 876.6 747.85 529.15" fill="#ffffff" fill-opacity="0.0" fill-rule="evenodd" stroke="none"/>
    <path d="M160.15 117.4 L159.25 117.4 159.25 0.0 1262.35 0.0 1262.35 117.4 M1262.35 389.35 L1262.35 431.05 1262.35 1644.8 1262.35 1743.1 M159.25 1743.1 L159.25 1644.8 159.25 1644.5 115.55 1644.5 115.55 1337.95 159.25 1337.95 159.25 1028.95 159.25 973.3 159.25 426.9 159.25 389.35 M1262.3 973.3 L1262.3 1028.95 M159.25 1644.8 L1262.35 1644.8" fill="none" stroke="#000000" stroke-linecap="round" stroke-linejoin="miter-clip" stroke-miterlimit="4.0" stroke-width="1.0"/>
    <path d="M1262.35 1743.1 L159.25 1743.1 M1262.3 1028.95 L159.25 1028.95 M159.25 973.3 L1262.3 973.3" fill="none" stroke="#000000" stroke-linecap="round" stroke-linejoin="miter-clip" stroke-miterlimit="4.0" stroke-opacity="0.6" stroke-width="1.0"/>
  </g>
</svg>
