<?xml version="1.0" encoding="UTF-8" standalone="no"?>
<svg xmlns:xlink="http://www.w3.org/1999/xlink" height="446.0px" width="378.75px" xmlns="http://www.w3.org/2000/svg">
  <g transform="matrix(1.0, 0.0, 0.0, 1.0, 0.5, 0.5)">
    <path d="M317.55 262.05 L317.5 262.4 317.5 262.05 317.55 262.05 317.5 262.05 317.5 261.9 317.55 262.05" fill="#e5e6e7" fill-rule="evenodd" stroke="none"/>
    <path d="M71.85 227.15 L71.85 55.65 199.1 55.65 317.5 55.65 317.5 227.15 199.3 227.15 71.85 227.15 M317.5 262.4 L317.5 424.1 199.15 424.1 71.85 424.1 71.85 261.9 199.3 261.9 317.5 262.05 317.5 262.4 M199.1 55.65 L199.3 227.15 199.1 55.65 M199.15 424.1 L199.3 261.9 199.15 424.1" fill="#ffffff" fill-opacity="0.09803922" fill-rule="evenodd" stroke="none"/>
    <path d="M57.95 37.1 L0.0 37.1 0.0 0.0 377.75 0.0 377.75 37.1 331.4 37.1 331.4 445.0 57.95 445.0 57.95 37.1 331.4 37.1 57.95 37.1 M317.5 227.15 L317.5 55.65 199.1 55.65 71.85 55.65 71.85 227.15 71.85 261.9 71.85 227.15 199.3 227.15 317.5 227.15 317.55 262.05 317.5 227.15 M317.5 262.4 L317.55 262.05 317.5 261.9 317.5 262.05 199.3 261.9 71.85 261.9 71.85 424.1 199.15 424.1 317.5 424.1 317.5 262.4" fill="#ffffff" fill-opacity="0.0" fill-rule="evenodd" stroke="none"/>
    <path d="M57.95 37.1 L0.0 37.1 0.0 0.0 377.75 0.0 377.75 37.1 331.4 37.1 331.4 445.0 57.95 445.0 57.95 37.1" fill="none" stroke="#000000" stroke-linecap="round" stroke-linejoin="miter-clip" stroke-miterlimit="4.0" stroke-width="1.0"/>
    <path d="M57.95 37.1 L331.4 37.1 M71.85 227.15 L71.85 55.65 199.1 55.65 317.5 55.65 317.5 227.15 317.55 262.05 317.5 262.4 317.5 424.1 199.15 424.1 71.85 424.1 71.85 261.9 71.85 227.15 199.3 227.15 317.5 227.15 M317.5 262.05 L317.5 262.4 M317.5 262.05 L317.55 262.05 317.5 261.9 317.5 262.05 199.3 261.9 71.85 261.9" fill="none" stroke="#000000" stroke-linecap="round" stroke-linejoin="miter-clip" stroke-miterlimit="4.0" stroke-opacity="0.6" stroke-width="1.0"/>
    <path d="M199.3 227.15 L199.1 55.65 M199.3 261.9 L199.15 424.1" fill="none" stroke="#000000" stroke-linecap="round" stroke-linejoin="miter-clip" stroke-miterlimit="4.0" stroke-opacity="0.4" stroke-width="1.0"/>
  </g>
</svg>
