<?xml version="1.0" encoding="UTF-8" standalone="no"?>
<svg xmlns:xlink="http://www.w3.org/1999/xlink" height="46.5px" width="13.9px" xmlns="http://www.w3.org/2000/svg">
  <g transform="matrix(1.0, 0.0, 0.0, 1.0, 0.5, 0.5)">
    <path d="M12.9 25.2 L12.3 42.2 12.25 42.5 0.15 42.5 0.15 42.2 0.75 25.2 12.9 25.2 M0.3 4.7 L0.15 2.65 0.0 0.8 2.1 0.4 6.35 0.0 Q9.25 -0.05 12.1 0.8 L12.25 2.65 12.4 4.7 0.3 4.7" fill="#000000" fill-opacity="0.047058824" fill-rule="evenodd" stroke="none"/>
    <path d="M12.4 4.7 L12.55 7.0 12.9 15.65 12.9 21.7 12.9 22.65 12.9 25.2 0.75 25.2 0.8 22.35 0.8 21.75 0.8 15.65 0.65 11.5 0.45 7.5 0.3 4.7 12.4 4.7 M12.25 42.5 L12.1 44.7 11.05 45.1 6.5 45.5 1.55 45.1 0.0 44.7 0.15 42.5 12.25 42.5" fill="#ffffff" fill-opacity="0.14901961" fill-rule="evenodd" stroke="none"/>
    <path d="M12.4 4.7 L12.55 7.0 12.9 15.65 12.9 21.7 12.9 22.65 12.9 25.2 12.3 42.2 M0.15 42.2 L0.75 25.2 0.8 22.35 0.8 21.75 0.8 15.65 0.65 11.5 0.45 7.5 0.3 4.7 0.15 2.65 M12.25 2.65 L12.4 4.7" fill="none" stroke="#000000" stroke-linecap="round" stroke-linejoin="round" stroke-opacity="0.4" stroke-width="1.0"/>
    <path d="M12.3 42.2 L12.25 42.5 12.1 44.7 11.05 45.1 6.5 45.5 1.55 45.1 0.0 44.7 0.15 42.5 0.15 42.2 M0.15 2.65 L0.0 0.8 2.1 0.4 6.35 0.0 Q9.25 -0.05 12.1 0.8 L12.25 2.65" fill="none" stroke="#000000" stroke-linecap="round" stroke-linejoin="round" stroke-width="1.0"/>
  </g>
</svg>
