<?xml version="1.0" encoding="UTF-8" standalone="no"?>
<svg xmlns:xlink="http://www.w3.org/1999/xlink" height="111.75px" width="36.55px" xmlns="http://www.w3.org/2000/svg">
  <g transform="matrix(1.0, 0.0, 0.0, 1.0, 0.5, 0.5)">
    <path d="M11.95 47.75 Q11.85 48.1 12.1 50.55 12.35 52.85 11.95 53.55 4.6 66.85 5.25 79.95 5.8 91.05 11.5 98.0 16.9 104.65 22.4 102.7 28.45 100.55 29.7 88.9 30.8 78.5 28.7 69.05 27.0 61.3 23.35 55.05 24.9 51.5 24.75 47.9 28.1 50.25 30.65 55.35 34.25 62.55 35.25 73.05 36.2 83.25 34.35 92.25 32.35 101.85 27.85 106.3 19.0 115.0 10.65 106.75 3.0 99.2 0.45 83.05 -1.55 70.45 4.9 57.8 7.0 53.75 9.6 50.35 11.7 47.6 11.95 47.75" fill="#000000" fill-opacity="0.29803923" fill-rule="evenodd" stroke="none"/>
    <path d="M11.95 47.75 L13.15 42.45 Q13.8 36.05 13.05 17.65 L12.2 0.55 25.4 0.0 24.4 20.85 Q23.55 42.2 24.25 44.7 L24.75 47.9 Q24.9 51.5 23.35 55.05 L17.75 54.45 11.95 53.55 Q12.35 52.85 12.1 50.55 11.85 48.1 11.95 47.75" fill="#ffffff" fill-opacity="0.0" fill-rule="evenodd" stroke="none"/>
    <path d="M24.75 47.9 L24.25 44.7 Q23.55 42.2 24.4 20.85 L25.4 0.0 12.2 0.55 13.05 17.65 Q13.8 36.05 13.15 42.45 L11.95 47.75 Q11.7 47.6 9.6 50.35 7.0 53.75 4.9 57.8 -1.55 70.45 0.45 83.05 3.0 99.2 10.65 106.75 19.0 115.0 27.85 106.3 32.35 101.85 34.35 92.25 36.2 83.25 35.25 73.05 34.25 62.55 30.65 55.35 28.1 50.25 24.75 47.9 M11.95 53.55 L17.75 54.45 23.35 55.05 Q27.0 61.3 28.7 69.05 30.8 78.5 29.7 88.9 28.45 100.55 22.4 102.7 16.9 104.65 11.5 98.0 5.8 91.05 5.25 79.95 4.6 66.85 11.95 53.55" fill="none" stroke="#000000" stroke-linecap="round" stroke-linejoin="miter-clip" stroke-miterlimit="4.0" stroke-width="1.0"/>
    <path d="M11.95 47.75 Q11.85 48.1 12.1 50.55 12.35 52.85 11.95 53.55 M23.35 55.05 Q24.9 51.5 24.75 47.9 Z" fill="none" stroke="#000000" stroke-linecap="round" stroke-linejoin="miter-clip" stroke-miterlimit="4.0" stroke-opacity="0.6" stroke-width="1.0"/>
  </g>
</svg>
