<?xml version="1.0" encoding="UTF-8" standalone="no"?>
<svg xmlns:xlink="http://www.w3.org/1999/xlink" height="152.35px" width="593.8px" xmlns="http://www.w3.org/2000/svg">
  <g transform="matrix(1.0, 0.0, 0.0, 1.0, 0.5, 1.95)">
    <path d="M586.0 7.4 Q593.0 14.6 592.8 24.55 L591.0 116.2 Q590.8 126.15 583.55 133.1 576.3 140.0 566.25 139.8 556.15 139.6 549.15 132.4 542.15 125.25 542.35 115.25 L544.15 23.6 Q544.35 13.65 551.6 6.7 558.85 -0.2 568.9 0.0 579.0 0.2 586.0 7.4 M41.2 6.7 Q48.45 13.65 48.65 23.6 L50.45 115.25 Q50.65 125.25 43.65 132.4 36.65 139.6 26.55 139.8 16.5 140.0 9.25 133.1 2.0 126.15 1.8 116.2 L0.0 24.55 Q-0.2 14.6 6.8 7.4 13.8 0.2 23.9 0.0 33.95 -0.2 41.2 6.7 M296.4 26.45 L304.2 26.95 Q313.9 31.5 316.05 39.1 L315.8 96.45 314.9 133.05 Q314.7 141.95 308.25 148.0 306.3 149.9 296.4 149.9 286.5 149.9 284.55 148.0 278.1 141.95 277.9 133.05 L277.0 96.45 276.75 39.1 Q278.9 31.5 288.6 26.95 L296.4 26.45" fill="#ffffff" fill-opacity="0.0" fill-rule="evenodd" stroke="none"/>
    <path d="M586.0 7.4 Q593.0 14.6 592.8 24.55 L591.0 116.2 Q590.8 126.15 583.55 133.1 576.3 140.0 566.25 139.8 556.15 139.6 549.15 132.4 542.15 125.25 542.35 115.25 L544.15 23.6 Q544.35 13.65 551.6 6.7 558.85 -0.2 568.9 0.0 579.0 0.2 586.0 7.4 M296.4 26.45 L288.6 26.95 Q278.9 31.5 276.75 39.1 L277.0 96.45 277.9 133.05 Q278.1 141.95 284.55 148.0 286.5 149.9 296.4 149.9 306.3 149.9 308.25 148.0 314.7 141.95 314.9 133.05 L315.8 96.45 316.05 39.1 Q313.9 31.5 304.2 26.95 L296.4 26.45 M41.2 6.7 Q33.95 -0.2 23.9 0.0 13.8 0.2 6.8 7.4 -0.2 14.6 0.0 24.55 L1.8 116.2 Q2.0 126.15 9.25 133.1 16.5 140.0 26.55 139.8 36.65 139.6 43.65 132.4 50.65 125.25 50.45 115.25 L48.65 23.6 Q48.45 13.65 41.2 6.7" fill="none" stroke="#000000" stroke-linecap="round" stroke-linejoin="miter-clip" stroke-miterlimit="4.0" stroke-opacity="0.4" stroke-width="1.0"/>
  </g>
</svg>
