<?xml version="1.0" encoding="UTF-8" standalone="no"?>
<svg xmlns:xlink="http://www.w3.org/1999/xlink" height="608.1px" width="2395.1px" xmlns="http://www.w3.org/2000/svg">
  <g transform="matrix(1.0, 0.0, 0.0, 1.0, 1.85, 0.5)">
    <path d="M1189.5 318.55 L1191.25 318.85 1194.8 319.55 1189.5 318.55" fill="#a0a2a4" fill-rule="evenodd" stroke="none"/>
    <path d="M1849.6 205.9 L1853.55 208.7 Q1828.3 223.45 1818.2 219.25 1813.15 217.1 1813.15 212.05 1823.7 197.3 1839.65 201.55 1844.65 202.85 1849.6 205.9" fill="#000000" fill-opacity="0.8" fill-rule="evenodd" stroke="none"/>
    <path d="M2365.8 249.15 Q2341.85 251.3 2227.6 224.7 L2170.45 211.0 Q2123.65 199.4 2069.25 185.1 2042.0 177.95 1998.65 187.75 1970.0 193.55 1931.9 207.0 1888.95 222.15 1853.55 239.0 1749.95 222.55 1598.3 229.75 L1581.15 230.65 Q1527.7 233.65 1476.45 239.4 L1471.6 239.95 Q1412.3 246.8 1368.25 255.85 1342.15 261.25 1303.05 266.35 1247.75 273.6 1166.45 280.35 1083.4 287.25 993.1 292.1 L995.25 292.35 945.6 288.05 822.3 279.45 Q729.6 273.15 513.9 312.75 406.05 332.55 316.75 353.6 L312.2 355.7 Q305.95 359.1 297.8 365.4 271.7 385.65 235.9 427.75 205.9 463.0 136.05 552.05 L99.85 597.9 Q87.55 613.2 94.35 603.0 101.25 592.65 109.0 567.7 114.7 549.3 123.0 515.35 132.25 476.6 137.0 457.95 145.15 425.9 151.65 407.55 160.6 382.15 190.3 357.45 202.5 347.25 218.2 337.2 235.05 326.4 254.0 317.0 L269.6 309.8 Q274.6 295.95 285.05 281.65 306.1 252.85 349.15 222.25 400.75 185.6 481.5 148.0 539.15 121.15 605.6 96.5 626.45 88.8 645.55 82.25 L660.55 77.25 Q702.7 51.95 685.85 30.05 680.55 23.2 670.05 17.5 664.75 14.7 660.55 13.2 696.35 -1.55 769.65 12.8 792.55 17.25 816.45 24.1 L835.8 30.05 Q1078.05 -12.05 1405.75 4.8 1508.15 10.05 1606.85 20.55 1637.75 23.85 1664.45 27.3 L1685.05 30.05 1739.4 25.0 Q1797.55 19.95 1816.5 19.95 1835.45 19.95 1864.95 25.0 L1890.65 30.05 Q1990.3 31.2 2087.15 65.7 2164.65 93.3 2236.9 140.9 2288.5 174.85 2332.3 215.4 2354.2 235.65 2365.8 249.15 M2307.65 211.85 Q2297.65 202.95 2285.45 193.35 2246.5 162.75 2200.65 136.65 2136.5 100.15 2067.85 78.05 1982.05 50.4 1894.0 46.9 L1885.95 44.05 Q1874.05 40.9 1854.85 39.35 1793.35 34.3 1681.7 46.9 1721.3 43.55 1766.8 43.95 1857.8 44.8 1887.25 63.75 1898.2 62.3 1918.6 62.85 1959.35 64.05 2006.45 74.3 2072.45 88.7 2141.75 119.25 2228.35 157.4 2315.25 218.8 L2307.65 211.85 M1472.75 239.0 L1476.45 239.4 1472.75 239.0 M1849.6 205.9 Q1844.65 202.85 1839.65 201.55 1823.7 197.3 1813.15 212.05 1813.15 217.1 1818.2 219.25 1828.3 223.45 1853.55 208.7 L1849.6 205.9 M704.85 83.05 Q688.15 86.45 669.75 90.9 610.65 105.1 555.65 124.85 478.6 152.5 420.65 187.25 348.3 230.7 310.05 282.85 317.85 275.25 333.95 262.65 366.2 237.35 407.8 212.05 540.9 131.15 717.8 80.6 L704.85 83.05" fill="#ffffff" fill-opacity="0.0" fill-rule="evenodd" stroke="none"/>
    <path d="M2365.8 249.15 Q2381.2 250.35 2388.05 254.75 2394.1 258.65 2392.35 263.9 2390.7 268.8 2383.35 272.35 2375.6 276.1 2365.8 276.1 2348.95 276.1 2330.4 289.6 2321.15 296.3 2315.25 303.05 2258.15 372.05 2134.15 407.0 2026.0 437.5 1877.55 439.55 1747.25 441.35 1611.5 421.55 1486.2 403.25 1401.95 373.85 1364.7 360.85 1324.8 349.7 L1298.95 342.7 Q1248.85 329.7 1194.8 319.55 L1191.25 318.85 1189.5 318.55 Q1162.3 313.5 1133.7 309.15 L1088.5 302.7 1088.15 302.65 1059.45 299.1 995.25 292.35 993.1 292.1 Q1083.4 287.25 1166.45 280.35 1247.75 273.6 1303.05 266.35 1342.15 261.25 1368.25 255.85 1412.3 246.8 1471.6 239.95 L1476.45 239.4 Q1880.0 283.15 2043.55 262.2 2094.85 255.6 2115.8 243.3 2122.35 239.45 2125.1 235.5 L2126.5 232.3 2125.1 235.5 Q2122.35 239.45 2115.8 243.3 2094.85 255.6 2043.55 262.2 1880.0 283.15 1476.45 239.4 1527.7 233.65 1581.15 230.65 L1598.3 229.75 Q1749.95 222.55 1853.55 239.0 1888.95 222.15 1931.9 207.0 1970.0 193.55 1998.65 187.75 2042.0 177.95 2069.25 185.1 2123.65 199.4 2170.45 211.0 L2227.6 224.7 Q2341.85 251.3 2365.8 249.15 M1887.25 228.9 Q1916.75 213.75 1954.25 200.7 1978.25 192.35 1998.65 187.75 1978.25 192.35 1954.25 200.7 1916.75 213.75 1887.25 228.9 M1145.85 282.85 Q1157.7 282.85 1173.0 286.4 1185.55 289.35 1206.4 296.15 L1249.75 310.75 Q1280.05 320.85 1306.75 328.75 1484.6 381.4 1745.7 407.55 1896.3 422.6 2021.6 405.5 2121.85 391.8 2201.5 358.25 2258.35 334.3 2299.2 302.8 2312.0 292.95 2321.6 283.55 L2328.7 276.1 2321.6 283.55 Q2312.0 292.95 2299.2 302.8 2258.35 334.3 2201.5 358.25 2121.85 391.8 2021.6 405.5 1896.3 422.6 1745.7 407.55 1484.6 381.4 1306.75 328.75 1280.05 320.85 1249.75 310.75 L1206.4 296.15 Q1185.55 289.35 1173.0 286.4 1157.7 282.85 1145.85 282.85 M1223.35 276.1 Q1259.15 278.2 1351.0 304.3 1379.75 312.5 1410.55 322.05 L1435.65 330.0 Q1677.8 379.85 1866.0 381.15 2016.6 382.2 2126.1 352.35 2204.25 331.05 2254.1 296.4 2269.65 285.55 2280.5 274.7 L2288.25 266.0 2280.5 274.7 Q2269.65 285.55 2254.1 296.4 2204.25 331.05 2126.1 352.35 2016.6 382.2 1866.0 381.15 1677.8 379.85 1435.65 330.0 L1410.55 322.05 Q1379.75 312.5 1351.0 304.3 1259.15 278.2 1223.35 276.1 M1303.05 266.35 Q1332.15 268.45 1394.8 282.85 1417.7 288.1 1442.5 294.45 L1462.65 299.7 Q1688.55 344.85 1859.9 348.3 1997.05 351.0 2093.25 327.05 2161.95 309.95 2203.35 281.2 2216.3 272.2 2224.95 263.1 L2231.0 255.85 2224.95 263.1 Q2216.3 272.2 2203.35 281.2 2161.95 309.95 2093.25 327.05 1997.05 351.0 1859.9 348.3 1688.55 344.85 1462.65 299.7 L1442.5 294.45 Q1417.7 288.1 1394.8 282.85 1332.15 268.45 1303.05 266.35 M2032.2 218.8 L2011.8 224.45 Q1985.8 231.05 1957.65 236.05 1867.5 252.05 1789.55 245.75 1659.95 235.25 1587.35 231.0 L1581.15 230.65 1587.35 231.0 Q1659.95 235.25 1789.55 245.75 1867.5 252.05 1957.65 236.05 1985.8 231.05 2011.8 224.45 L2032.2 218.8 M1439.05 259.25 Q1682.35 303.25 1852.4 310.65 1988.5 316.55 2071.75 298.85 2131.25 286.2 2158.45 263.05 2166.9 255.8 2171.15 248.4 L2173.7 242.4 2171.15 248.4 Q2166.9 255.8 2158.45 263.05 2131.25 286.2 2071.75 298.85 1988.5 316.55 1852.4 310.65 1682.35 303.25 1439.05 259.25" fill="#ffffff" fill-opacity="0.44705883" fill-rule="evenodd" stroke="none"/>
    <path d="M285.05 281.65 Q274.6 295.95 269.6 309.8 L254.0 317.0 Q235.05 326.4 218.2 337.2 202.5 347.25 190.3 357.45 171.9 356.85 152.05 351.95 130.15 346.55 109.55 336.45 91.05 327.4 77.5 316.55 56.45 299.7 26.1 304.75 10.95 307.25 0.0 313.15 L50.55 276.1 Q115.85 255.05 209.35 266.85 238.55 270.55 267.1 277.05 L285.05 281.65" fill="#000000" fill-opacity="0.047058824" fill-rule="evenodd" stroke="none"/>
    <path d="M2307.65 211.85 L2315.25 218.8 Q2228.35 157.4 2141.75 119.25 2072.45 88.7 2006.45 74.3 1959.35 64.05 1918.6 62.85 1898.2 62.3 1887.25 63.75 1857.8 44.8 1766.8 43.95 1721.3 43.55 1681.7 46.9 1793.35 34.3 1854.85 39.35 1874.05 40.9 1885.95 44.05 L1894.0 46.9 Q1982.05 50.4 2067.85 78.05 2136.5 100.15 2200.65 136.65 2246.5 162.75 2285.45 193.35 2297.65 202.95 2307.65 211.85 M704.85 83.05 L717.8 80.6 Q540.9 131.15 407.8 212.05 366.2 237.35 333.95 262.65 317.85 275.25 310.05 282.85 348.3 230.7 420.65 187.25 478.6 152.5 555.65 124.85 610.65 105.1 669.75 90.9 688.15 86.45 704.85 83.05" fill="#ffffff" fill-opacity="0.54901963" fill-rule="evenodd" stroke="none"/>
    <path d="M1194.8 319.55 Q1248.85 329.7 1298.95 342.7 L1324.8 349.7 Q1364.7 360.85 1401.95 373.85 1486.2 403.25 1611.5 421.55 1747.25 441.35 1877.55 439.55 2026.0 437.5 2134.15 407.0 2258.15 372.05 2315.25 303.05 2321.15 296.3 2330.4 289.6 2348.95 276.1 2365.8 276.1 2375.6 276.1 2383.35 272.35 2390.7 268.8 2392.35 263.9 2394.1 258.65 2388.05 254.75 2381.2 250.35 2365.8 249.15 2354.2 235.65 2332.3 215.4 2288.5 174.85 2236.9 140.9 2164.65 93.3 2087.15 65.7 1990.3 31.2 1890.65 30.05 L1864.95 25.0 Q1835.45 19.95 1816.5 19.95 1797.55 19.95 1739.4 25.0 L1685.05 30.05 1664.45 27.3 Q1637.75 23.85 1606.85 20.55 1508.15 10.05 1405.75 4.8 1078.05 -12.05 835.8 30.05 L816.45 24.1 Q792.55 17.25 769.65 12.8 696.35 -1.55 660.55 13.2 664.75 14.7 670.05 17.5 680.55 23.2 685.85 30.05 702.7 51.95 660.55 77.25 L645.55 82.25 Q626.45 88.8 605.6 96.5 539.15 121.15 481.5 148.0 400.75 185.6 349.15 222.25 306.1 252.85 285.05 281.65 L267.1 277.05 Q238.55 270.55 209.35 266.85 115.85 255.05 50.55 276.1 L0.0 313.15 Q10.95 307.25 26.1 304.75 56.45 299.7 77.5 316.55 91.05 327.4 109.55 336.45 130.15 346.55 152.05 351.95 171.9 356.85 190.3 357.45 160.6 382.15 151.65 407.55 145.15 425.9 137.0 457.95 132.25 476.6 123.0 515.35 114.7 549.3 109.0 567.7 101.25 592.65 94.35 603.0 87.55 613.2 99.85 597.9 L136.05 552.05 Q205.9 463.0 235.9 427.75 271.7 385.65 297.8 365.4 305.95 359.1 312.2 355.7 L316.75 353.6 Q406.05 332.55 513.9 312.75 729.6 273.15 822.3 279.45 L945.6 288.05 995.25 292.35 1059.45 299.1 1088.15 302.65 1088.5 302.7 1133.7 309.15 Q1162.3 313.5 1189.5 318.55 L1194.8 319.55" fill="none" stroke="#000000" stroke-linecap="round" stroke-linejoin="miter-clip" stroke-miterlimit="4.0" stroke-width="1.0"/>
    <path d="M2288.25 266.0 L2280.5 274.7 Q2269.65 285.55 2254.1 296.4 2204.25 331.05 2126.1 352.35 2016.6 382.2 1866.0 381.15 1677.8 379.85 1435.65 330.0 L1410.55 322.05 Q1379.75 312.5 1351.0 304.3 1259.15 278.2 1223.35 276.1 M2328.7 276.1 L2321.6 283.55 Q2312.0 292.95 2299.2 302.8 2258.35 334.3 2201.5 358.25 2121.85 391.8 2021.6 405.5 1896.3 422.6 1745.7 407.55 1484.6 381.4 1306.75 328.75 1280.05 320.85 1249.75 310.75 L1206.4 296.15 Q1185.55 289.35 1173.0 286.4 1157.7 282.85 1145.85 282.85 M1476.45 239.4 L1472.75 239.0 M1581.15 230.65 L1587.35 231.0 Q1659.95 235.25 1789.55 245.75 1867.5 252.05 1957.65 236.05 1985.8 231.05 2011.8 224.45 L2032.2 218.8 M2231.0 255.85 L2224.95 263.1 Q2216.3 272.2 2203.35 281.2 2161.95 309.95 2093.25 327.05 1997.05 351.0 1859.9 348.3 1688.55 344.85 1462.65 299.7 L1442.5 294.45 Q1417.7 288.1 1394.8 282.85 1332.15 268.45 1303.05 266.35 M2126.5 232.3 L2125.1 235.5 Q2122.35 239.45 2115.8 243.3 2094.85 255.6 2043.55 262.2 1880.0 283.15 1476.45 239.4 M2173.7 242.4 L2171.15 248.4 Q2166.9 255.8 2158.45 263.05 2131.25 286.2 2071.75 298.85 1988.5 316.55 1852.4 310.65 1682.35 303.25 1439.05 259.25" fill="none" stroke="#000000" stroke-linecap="round" stroke-linejoin="miter-clip" stroke-miterlimit="4.0" stroke-opacity="0.4" stroke-width="1.0"/>
    <path d="M2365.8 249.15 Q2341.85 251.3 2227.6 224.7 L2170.45 211.0 Q2123.65 199.4 2069.25 185.1 2042.0 177.95 1998.65 187.75 1978.25 192.35 1954.25 200.7 1916.75 213.75 1887.25 228.9 M285.05 281.65 Q274.6 295.95 269.6 309.8 L254.0 317.0 Q235.05 326.4 218.2 337.2 202.5 347.25 190.3 357.45" fill="none" stroke="#000000" stroke-linecap="round" stroke-linejoin="miter-clip" stroke-miterlimit="4.0" stroke-opacity="0.6" stroke-width="1.0"/>
  </g>
</svg>
