<?xml version="1.0" encoding="UTF-8" standalone="no"?>
<svg xmlns:xlink="http://www.w3.org/1999/xlink" height="559.35px" width="685.55px" xmlns="http://www.w3.org/2000/svg">
  <g transform="matrix(1.0, 0.0, 0.0, 1.0, 0.5, 0.5)">
    <path d="M612.1 245.65 Q611.85 247.45 612.1 249.4 L611.95 247.6 612.1 245.65 M435.15 177.25 L436.0 176.35 436.3 176.1 435.15 177.25 M309.0 220.5 L304.25 219.4 303.05 216.2 Q301.4 215.25 299.75 214.4 304.05 216.45 307.75 219.45 L309.0 220.5 M79.95 272.55 L75.4 269.55 77.0 270.6 79.95 272.55 M71.2 266.5 L67.15 263.2 66.55 262.65 70.6 266.0 71.2 266.5 M45.25 227.8 Q43.6 220.1 45.25 211.75 46.95 203.5 51.35 196.9 56.05 189.95 62.6 186.65 66.5 184.65 70.7 184.2 67.2 184.7 63.85 186.15 53.4 191.85 48.05 203.95 42.75 215.95 45.25 227.75 L45.25 227.8 M201.85 241.5 L202.95 241.0 202.55 241.2 201.85 241.5 M208.05 238.5 L209.0 237.95 208.75 238.1 208.05 238.5 M218.0 232.3 L239.0 216.5 237.1 217.9 231.55 222.1 220.45 230.55 218.0 232.3 M274.05 210.75 L278.05 210.3 276.25 210.45 274.05 210.75" fill="#c0c2c4" fill-rule="evenodd" stroke="none"/>
    <path d="M480.65 284.45 Q478.55 280.6 477.9 277.0 475.9 265.0 486.2 259.15 489.95 257.0 496.25 255.15 L506.75 252.25 Q518.45 248.9 527.9 237.95 534.3 230.5 542.05 216.0 L550.0 200.4 Q554.4 191.65 557.85 186.55 567.45 172.45 583.35 165.95 598.0 159.95 616.9 162.2 635.4 164.4 649.9 173.45 665.45 183.1 670.0 197.05 675.15 212.85 664.75 230.55 658.65 241.0 648.1 248.9 636.4 257.7 626.45 257.3 622.8 257.15 618.9 255.25 L612.45 251.5 612.4 251.45 612.25 250.4 612.1 249.4 Q611.85 247.45 612.1 245.65 L612.45 243.65 614.0 239.85 Q621.75 246.7 629.7 248.1 637.2 249.4 643.6 245.7 649.9 242.1 653.7 234.5 657.65 226.6 658.05 216.2 658.8 196.65 644.65 183.75 630.65 170.95 610.65 172.1 594.35 173.0 583.65 183.65 575.05 192.15 568.7 208.75 566.9 213.35 559.05 239.05 553.4 257.35 547.95 266.25 538.7 281.4 523.0 286.95 507.85 292.3 490.1 287.6 L487.65 286.95 485.95 286.4 480.65 284.45 M403.65 194.85 Q391.2 189.4 384.8 181.45 377.1 171.95 385.15 165.3 388.7 162.4 394.05 159.6 L403.25 155.0 Q414.15 149.35 418.6 141.2 425.15 129.3 425.7 105.8 425.15 78.25 425.7 65.05 426.65 42.05 434.25 30.4 443.95 15.45 466.9 13.5 483.35 12.1 495.95 20.8 507.1 28.5 514.4 43.45 520.9 56.8 523.4 73.85 525.75 89.6 524.1 104.35 522.2 106.35 520.0 107.55 L515.15 108.95 513.8 109.05 Q505.35 109.3 506.95 101.15 507.4 99.0 509.2 93.65 510.95 88.65 511.25 86.3 513.3 71.35 510.0 55.5 506.55 39.05 494.6 28.35 481.05 16.2 465.45 21.6 448.0 27.7 445.85 46.0 444.4 58.7 450.55 78.85 455.65 95.65 456.7 109.8 457.9 125.35 454.55 141.3 L440.75 170.9 439.35 172.65 436.3 176.1 436.0 176.35 435.15 177.25 428.85 182.9 418.4 189.65 412.9 192.15 403.75 194.85 403.65 194.85 M304.25 219.4 Q293.45 217.65 282.25 222.85 273.75 226.8 265.25 234.7 L266.15 233.9 Q283.25 218.5 299.8 219.0 308.0 229.8 314.5 248.7 315.9 252.65 323.6 279.4 326.1 287.95 332.75 306.8 L332.0 307.75 326.15 314.1 322.9 317.1 303.1 334.5 Q291.9 344.5 284.45 352.2 264.6 372.7 254.55 394.45 243.2 418.95 240.9 444.0 238.4 470.75 246.55 495.0 252.85 513.7 264.05 525.05 278.85 540.05 295.3 532.45 305.85 527.65 306.15 513.75 306.4 503.25 301.2 491.05 300.5 489.4 298.4 486.1 296.6 483.25 296.3 481.95 295.35 478.0 304.7 476.65 312.6 475.55 325.8 486.2 334.0 492.9 337.0 500.5 339.95 508.05 338.55 518.7 L337.5 524.4 336.9 526.5 336.45 527.75 Q328.75 537.15 317.55 542.1 306.75 546.9 294.35 546.95 267.95 547.0 248.0 527.95 226.0 506.9 222.25 470.35 219.5 443.55 226.75 405.55 229.75 389.95 239.15 367.2 252.8 334.25 254.4 329.7 257.9 319.75 258.15 314.3 258.5 306.75 254.05 299.2 L245.5 285.05 Q240.4 276.55 237.65 270.45 L238.0 269.9 238.45 269.2 239.25 267.85 240.3 266.2 241.65 264.0 242.3 263.0 246.6 256.6 247.15 255.85 247.35 255.55 247.55 255.3 247.7 255.1 248.5 254.05 250.0 251.95 265.25 234.7 250.0 251.95 248.5 254.05 247.7 255.1 247.55 255.3 247.35 255.55 247.15 255.85 246.6 256.6 242.3 263.0 241.65 264.0 240.3 266.2 239.25 267.85 238.45 269.2 238.0 269.9 237.65 270.45 Q228.3 286.15 219.9 305.55 212.65 322.3 208.45 335.8 L187.2 333.8 Q178.15 332.5 161.15 328.95 143.55 325.25 135.1 323.95 L117.05 321.05 Q105.85 319.35 97.75 318.95 75.15 317.9 61.45 326.25 50.1 333.15 41.75 348.95 33.65 364.3 33.35 378.2 33.2 384.25 36.45 390.7 39.6 396.9 45.0 401.9 57.2 413.15 69.85 410.75 72.5 410.25 76.1 407.9 L82.3 403.5 Q89.75 398.45 93.65 401.65 101.5 408.1 92.4 418.75 89.0 422.75 84.0 426.25 79.6 429.4 76.45 430.45 L62.75 432.75 55.65 432.2 Q52.1 431.6 48.4 430.45 34.1 419.2 27.0 401.55 16.35 375.45 20.4 356.15 24.9 334.75 47.55 320.9 66.4 309.4 94.85 304.2 108.85 301.6 145.15 298.45 L166.65 296.8 Q179.25 295.5 187.6 292.15 196.45 288.65 198.45 284.1 199.6 281.45 198.7 274.85 186.95 278.15 172.35 279.35 165.55 279.9 134.35 280.4 109.65 280.8 98.2 281.45 L79.95 272.55 77.0 270.6 75.4 269.55 74.9 269.2 71.2 266.5 70.6 266.0 66.55 262.65 66.2 262.35 59.85 256.0 Q48.55 243.35 45.25 227.8 L45.25 227.75 Q42.75 215.95 48.05 203.95 53.4 191.85 63.85 186.15 67.2 184.7 70.7 184.2 L77.75 184.35 78.0 184.4 78.7 184.55 83.1 185.75 87.8 187.6 88.1 187.75 Q83.65 190.25 73.6 193.6 65.2 197.2 62.8 203.45 59.15 213.15 66.1 226.45 72.2 238.2 81.4 244.65 97.95 256.25 119.15 262.1 140.35 267.95 160.25 266.35 175.55 265.1 183.8 259.6 191.25 254.65 196.2 243.75 L196.2 243.7 196.95 243.45 201.85 241.5 202.55 241.2 202.95 241.0 208.05 238.5 208.75 238.1 209.0 237.95 213.15 235.55 218.0 232.3 220.45 230.55 231.55 222.1 237.1 217.9 239.0 216.5 242.6 213.85 Q257.75 203.1 271.95 211.2 L274.05 210.75 276.25 210.45 278.05 210.3 279.85 210.2 286.35 210.45 Q289.7 210.85 292.95 211.8 L299.75 214.4 Q301.4 215.25 303.05 216.2 L304.25 219.4 M271.95 211.2 L270.5 211.55 Q267.15 212.4 264.2 213.9 L252.5 223.65 Q249.35 227.9 243.35 237.15 L234.3 250.45 Q223.15 265.3 209.4 271.1 L201.65 273.95 198.7 274.8 198.7 274.85 198.7 274.8 201.65 273.95 209.4 271.1 Q223.15 265.3 234.3 250.45 L243.35 237.15 Q249.35 227.9 252.5 223.65 L264.2 213.9 Q267.15 212.4 270.5 211.55 L271.95 211.2" fill="#000000" fill-opacity="0.2" fill-rule="evenodd" stroke="none"/>
    <path d="M612.45 251.5 L618.9 255.25 Q622.8 257.15 626.45 257.3 636.4 257.7 648.1 248.9 658.65 241.0 664.75 230.55 675.15 212.85 670.0 197.05 665.45 183.1 649.9 173.45 635.4 164.4 616.9 162.2 598.0 159.95 583.35 165.95 567.45 172.45 557.85 186.55 554.4 191.65 550.0 200.4 L542.05 216.0 Q534.3 230.5 527.9 237.95 518.45 248.9 506.75 252.25 L496.25 255.15 Q489.95 257.0 486.2 259.15 475.9 265.0 477.9 277.0 478.55 280.6 480.65 284.45 L485.95 286.4 Q469.9 281.45 455.0 270.75 433.95 255.55 436.25 240.5 437.3 233.75 441.35 229.95 445.45 226.15 451.75 226.05 457.15 225.95 468.35 230.4 478.75 234.55 485.05 233.7 494.45 232.45 502.1 228.85 510.8 224.8 516.3 218.05 521.4 211.85 528.2 201.15 L539.5 183.5 Q553.7 162.8 569.9 154.85 584.8 147.55 603.7 147.15 622.3 146.75 639.55 153.05 657.5 159.65 669.05 171.85 681.65 185.2 684.0 202.85 686.15 218.75 679.65 236.55 673.0 254.75 660.9 264.9 655.55 269.4 648.5 271.35 641.5 273.25 634.65 272.25 618.95 269.95 613.65 255.55 L612.45 251.5 M524.1 104.35 Q525.75 89.6 523.4 73.85 520.9 56.8 514.4 43.45 507.1 28.5 495.95 20.8 483.35 12.1 466.9 13.5 443.95 15.45 434.25 30.4 426.65 42.05 425.7 65.05 425.15 78.25 425.7 105.8 425.15 129.3 418.6 141.2 414.15 149.35 403.25 155.0 L394.05 159.6 Q388.7 162.4 385.15 165.3 377.1 171.95 384.8 181.45 391.2 189.4 403.65 194.85 393.9 196.8 384.25 194.7 367.7 191.1 354.75 176.05 350.05 170.6 347.15 165.3 343.0 157.6 344.5 152.85 346.7 146.15 353.2 146.1 L359.25 146.8 365.7 147.7 Q382.3 148.55 393.35 141.25 405.75 133.15 406.9 117.1 407.6 107.6 406.0 92.45 L403.55 67.6 Q402.8 53.6 405.25 43.6 408.3 31.15 416.75 21.65 431.65 4.9 456.3 1.0 480.55 -2.85 500.6 7.85 514.25 15.15 522.7 31.1 530.2 45.3 531.85 62.4 533.3 78.2 530.6 90.4 527.6 103.8 520.0 107.55 522.2 106.35 524.1 104.35 M309.0 220.5 Q316.25 222.75 323.35 228.2 333.35 235.95 339.15 247.3 344.9 258.5 345.45 271.15 346.05 284.25 339.55 296.6 336.5 302.35 332.0 307.75 L332.75 306.8 Q326.1 287.95 323.6 279.4 315.9 252.65 314.5 248.7 308.0 229.8 299.8 219.0 283.25 218.5 266.15 233.9 L265.25 234.7 Q273.75 226.8 282.25 222.85 293.45 217.65 304.25 219.4 L309.0 220.5 M336.9 526.5 Q331.35 544.75 311.45 553.2 301.15 557.6 288.95 558.25 277.15 558.9 266.15 555.9 243.65 549.7 227.45 527.75 214.2 509.85 206.6 483.65 197.2 451.25 197.2 414.85 197.15 380.15 205.6 345.85 206.8 341.05 208.45 335.8 212.65 322.3 219.9 305.55 228.3 286.15 237.65 270.45 240.4 276.55 245.5 285.05 L254.05 299.2 Q258.5 306.75 258.15 314.3 257.9 319.75 254.4 329.7 252.8 334.25 239.15 367.2 229.75 389.95 226.75 405.55 219.5 443.55 222.25 470.35 226.0 506.9 248.0 527.95 267.95 547.0 294.35 546.95 306.75 546.9 317.55 542.1 328.75 537.15 336.45 527.75 L336.9 526.5 M55.65 432.2 Q46.85 430.9 37.8 426.0 19.95 416.4 9.15 398.35 -2.0 379.8 0.45 356.6 2.8 334.6 16.2 316.35 22.25 308.15 32.15 301.5 40.25 296.1 51.65 291.35 69.4 283.95 92.25 281.85 L98.2 281.45 Q109.65 280.8 134.35 280.4 165.55 279.9 172.35 279.35 186.95 278.15 198.7 274.85 199.6 281.45 198.45 284.1 196.45 288.65 187.6 292.15 179.25 295.5 166.65 296.8 L145.15 298.45 Q108.85 301.6 94.85 304.2 66.4 309.4 47.55 320.9 24.9 334.75 20.4 356.15 16.35 375.45 27.0 401.55 34.1 419.2 48.4 430.45 52.1 431.6 55.65 432.2 M87.8 187.6 Q89.7 188.45 91.7 189.5 100.5 194.15 102.4 198.8 103.6 201.65 102.95 205.5 102.3 209.2 100.25 212.25 95.3 219.6 88.6 215.95 91.45 210.05 90.3 206.35 89.3 203.2 86.0 202.9 82.7 202.65 79.8 205.25 76.6 208.2 76.0 213.1 74.65 224.6 89.6 232.95 96.6 236.85 113.95 242.3 132.5 248.05 151.1 249.05 170.7 250.15 188.7 245.9 L196.2 243.75 Q191.25 254.65 183.8 259.6 175.55 265.1 160.25 266.35 140.35 267.95 119.15 262.1 97.95 256.25 81.4 244.65 72.2 238.2 66.1 226.45 59.15 213.15 62.8 203.45 65.2 197.2 73.6 193.6 83.65 190.25 88.1 187.75 L87.8 187.6" fill="#ffffff" fill-opacity="0.0" fill-rule="evenodd" stroke="none"/>
    <path d="M480.65 284.45 L485.95 286.4 487.65 286.95 490.1 287.6 Q507.85 292.3 523.0 286.95 538.7 281.4 547.95 266.25 553.4 257.35 559.05 239.05 566.9 213.35 568.7 208.75 575.05 192.15 583.65 183.65 594.35 173.0 610.65 172.1 630.65 170.95 644.65 183.75 658.8 196.65 658.05 216.2 657.65 226.6 653.7 234.5 649.9 242.1 643.6 245.7 637.2 249.4 629.7 248.1 621.75 246.7 614.0 239.85 L612.45 243.65 612.1 245.65 Q611.85 247.45 612.1 249.4 L612.25 250.4 612.4 251.45 612.45 251.5 613.65 255.55 Q618.95 269.95 634.65 272.25 641.5 273.25 648.5 271.35 655.55 269.4 660.9 264.9 673.0 254.75 679.65 236.55 686.15 218.75 684.0 202.85 681.65 185.2 669.05 171.85 657.5 159.65 639.55 153.05 622.3 146.75 603.7 147.15 584.8 147.55 569.9 154.85 553.7 162.8 539.5 183.5 L528.2 201.15 Q521.4 211.85 516.3 218.05 510.8 224.8 502.1 228.85 494.45 232.45 485.05 233.7 478.75 234.55 468.35 230.4 457.15 225.95 451.75 226.05 445.45 226.15 441.35 229.95 437.3 233.75 436.25 240.5 433.95 255.55 455.0 270.75 469.9 281.45 485.95 286.4 M403.65 194.85 L403.75 194.85 412.9 192.15 418.4 189.65 428.85 182.9 435.15 177.25 436.0 176.35 436.3 176.1 439.35 172.65 440.75 170.9 454.55 141.3 Q457.9 125.35 456.7 109.8 455.65 95.65 450.55 78.85 444.4 58.7 445.85 46.0 448.0 27.7 465.45 21.6 481.05 16.2 494.6 28.35 506.55 39.05 510.0 55.5 513.3 71.35 511.25 86.3 510.95 88.65 509.2 93.65 507.4 99.0 506.95 101.15 505.35 109.3 513.8 109.05 L515.15 108.95 520.0 107.55 Q522.2 106.35 524.1 104.35 M403.65 194.85 Q393.9 196.8 384.25 194.7 367.7 191.1 354.75 176.05 350.05 170.6 347.15 165.3 343.0 157.6 344.5 152.85 346.7 146.15 353.2 146.1 L359.25 146.8 365.7 147.7 Q382.3 148.55 393.35 141.25 405.75 133.15 406.9 117.1 407.6 107.6 406.0 92.45 L403.55 67.6 Q402.8 53.6 405.25 43.6 408.3 31.15 416.75 21.65 431.65 4.9 456.3 1.0 480.55 -2.85 500.6 7.85 514.25 15.15 522.7 31.1 530.2 45.3 531.85 62.4 533.3 78.2 530.6 90.4 527.6 103.8 520.0 107.55 M436.3 176.1 L435.15 177.25 M332.0 307.75 Q336.5 302.35 339.55 296.6 346.05 284.25 345.45 271.15 344.9 258.5 339.15 247.3 333.35 235.95 323.35 228.2 316.25 222.75 309.0 220.5 L304.25 219.4 Q293.45 217.65 282.25 222.85 273.75 226.8 265.25 234.7 M332.75 306.8 L332.0 307.75 326.15 314.1 322.9 317.1 303.1 334.5 Q291.9 344.5 284.45 352.2 264.6 372.7 254.55 394.45 243.2 418.95 240.9 444.0 238.4 470.75 246.55 495.0 252.85 513.7 264.05 525.05 278.85 540.05 295.3 532.45 305.85 527.65 306.15 513.75 306.4 503.25 301.2 491.05 300.5 489.4 298.4 486.1 296.6 483.25 296.3 481.95 295.35 478.0 304.7 476.65 312.6 475.55 325.8 486.2 334.0 492.9 337.0 500.5 339.95 508.05 338.55 518.7 L337.5 524.4 336.9 526.5 Q331.35 544.75 311.45 553.2 301.15 557.6 288.95 558.25 277.15 558.9 266.15 555.9 243.65 549.7 227.45 527.75 214.2 509.85 206.6 483.65 197.2 451.25 197.2 414.85 197.15 380.15 205.6 345.85 206.8 341.05 208.45 335.8 L187.2 333.8 Q178.15 332.5 161.15 328.95 143.55 325.25 135.1 323.95 L117.05 321.05 Q105.85 319.35 97.75 318.95 75.15 317.9 61.45 326.25 50.1 333.15 41.75 348.95 33.65 364.3 33.35 378.2 33.2 384.25 36.45 390.7 39.6 396.9 45.0 401.9 57.2 413.15 69.85 410.75 72.5 410.25 76.1 407.9 L82.3 403.5 Q89.75 398.45 93.65 401.65 101.5 408.1 92.4 418.75 89.0 422.75 84.0 426.25 79.6 429.4 76.45 430.45 L62.75 432.75 55.65 432.2 Q46.85 430.9 37.8 426.0 19.95 416.4 9.15 398.35 -2.0 379.8 0.45 356.6 2.8 334.6 16.2 316.35 22.25 308.15 32.15 301.5 40.25 296.1 51.65 291.35 69.4 283.95 92.25 281.85 L98.2 281.45 79.95 272.55 75.4 269.55 74.9 269.2 71.2 266.5 67.15 263.2 66.55 262.65 66.2 262.35 59.85 256.0 Q48.55 243.35 45.25 227.8 L45.25 227.75 Q42.75 215.95 48.05 203.95 53.4 191.85 63.85 186.15 67.2 184.7 70.7 184.2 L77.75 184.35 78.0 184.4 78.7 184.55 83.1 185.75 87.8 187.6 Q89.7 188.45 91.7 189.5 100.5 194.15 102.4 198.8 103.6 201.65 102.95 205.5 102.3 209.2 100.25 212.25 95.3 219.6 88.6 215.95 91.45 210.05 90.3 206.35 89.3 203.2 86.0 202.9 82.7 202.65 79.8 205.25 76.6 208.2 76.0 213.1 74.65 224.6 89.6 232.95 96.6 236.85 113.95 242.3 132.5 248.05 151.1 249.05 170.7 250.15 188.7 245.9 L196.2 243.75 196.2 243.7 196.95 243.45 201.85 241.5 202.95 241.0 208.05 238.5 209.0 237.95 213.15 235.55 218.0 232.3 239.0 216.5 242.6 213.85 Q257.75 203.1 271.95 211.2 L274.05 210.75 278.05 210.3 279.85 210.2 286.35 210.45 Q289.7 210.85 292.95 211.8 L299.75 214.4 Q304.05 216.45 307.75 219.45 L309.0 220.5 M612.1 249.4 L611.95 247.6 612.1 245.65 M87.8 187.6 L88.1 187.75 M71.2 266.5 L70.6 266.0 66.55 262.65 M75.4 269.55 L77.0 270.6 79.95 272.55 M299.75 214.4 Q301.4 215.25 303.05 216.2 M274.05 210.75 L276.25 210.45 278.05 210.3 M239.0 216.5 L237.1 217.9 231.55 222.1 220.45 230.55 218.0 232.3 M202.95 241.0 L202.55 241.2 201.85 241.5 M209.0 237.95 L208.75 238.1 208.05 238.5 M336.45 527.75 L336.9 526.5 M55.65 432.2 Q52.1 431.6 48.4 430.45" fill="none" stroke="#000000" stroke-linecap="round" stroke-linejoin="miter-clip" stroke-miterlimit="4.0" stroke-width="1.0"/>
    <path d="M265.25 234.7 L266.15 233.9 Q283.25 218.5 299.8 219.0 M198.7 274.85 Q186.95 278.15 172.35 279.35 165.55 279.9 134.35 280.4 109.65 280.8 98.2 281.45 M198.7 274.85 L198.7 274.8 201.65 273.95 209.4 271.1 Q223.15 265.3 234.3 250.45 L243.35 237.15 Q249.35 227.9 252.5 223.65 L264.2 213.9 Q267.15 212.4 270.5 211.55 L271.95 211.2 M237.65 270.45 L238.0 269.9 238.45 269.2 239.25 267.85 240.3 266.2 241.65 264.0 242.3 263.0 246.6 256.6 247.15 255.85 247.35 255.55 247.55 255.3 247.7 255.1 248.5 254.05 250.0 251.95 265.25 234.7 M208.45 335.8 Q212.65 322.3 219.9 305.55 228.3 286.15 237.65 270.45" fill="none" stroke="#000000" stroke-linecap="round" stroke-linejoin="miter-clip" stroke-miterlimit="4.0" stroke-opacity="0.6" stroke-width="1.0"/>
  </g>
</svg>
