<?xml version="1.0" encoding="UTF-8" standalone="no"?>
<svg xmlns:xlink="http://www.w3.org/1999/xlink" height="31.35px" width="66.1px" xmlns="http://www.w3.org/2000/svg">
  <g transform="matrix(1.0, 0.0, 0.0, 1.0, 0.55, 0.5)">
    <path d="M63.45 14.5 Q64.3 15.0 64.05 15.35 63.35 16.4 60.0 18.35 56.55 20.25 55.55 20.0 56.2 19.3 56.5 18.15 L56.75 16.3 56.5 18.15 Q56.2 19.3 55.55 20.0 L55.45 19.95 53.0 21.4 52.45 21.65 Q50.05 22.7 48.7 22.35 L48.25 22.75 47.0 23.7 45.85 24.35 Q44.55 25.05 43.35 25.4 L42.3 25.65 39.5 25.55 39.15 25.85 38.95 26.0 Q37.4 27.1 35.15 28.0 L34.55 28.25 Q29.7 29.9 25.3 28.45 L25.1 28.35 Q23.85 29.0 22.35 29.45 L19.2 30.1 18.7 30.2 Q12.55 30.95 7.85 28.0 L7.15 27.55 6.1 26.75 Q3.45 24.6 1.95 22.1 0.9 20.35 0.4 18.4 -0.7 13.9 1.3 13.15 L2.5 13.55 Q2.75 13.65 4.6 14.7 L7.15 16.0 Q6.1 18.65 4.95 20.05 3.6 21.55 1.95 22.1 3.6 21.55 4.95 20.05 6.1 18.65 7.15 16.0 L10.25 17.1 11.5 17.5 13.7 18.15 Q17.45 19.1 19.45 18.8 21.25 18.5 23.2 16.7 L25.15 14.65 23.9 20.95 Q23.05 25.7 20.7 28.5 L18.7 30.2 20.7 28.5 Q23.05 25.7 23.9 20.95 L25.15 14.65 26.1 13.45 28.3 10.5 29.8 8.15 Q29.1 10.15 28.85 15.45 28.65 20.55 29.1 21.4 L29.75 22.25 30.1 22.4 Q31.75 23.05 34.0 22.4 36.05 21.8 37.45 20.5 38.65 19.3 40.05 16.2 L40.15 16.0 40.7 13.9 41.15 11.65 Q41.15 12.55 41.5 14.35 41.85 16.15 41.8 17.1 L42.0 19.2 42.05 19.3 Q42.4 20.1 43.7 20.15 46.3 20.3 47.85 17.25 L49.0 14.1 48.95 14.75 Q48.6 18.7 46.9 21.45 L44.85 24.05 43.35 25.4 44.85 24.05 46.9 21.45 Q48.6 18.7 48.95 14.75 L49.0 14.1 49.7 12.05 49.95 15.35 49.85 16.4 Q49.7 18.6 49.25 20.05 48.8 21.8 48.25 22.75 48.8 21.8 49.25 20.05 49.7 18.6 49.85 16.4 L49.95 15.35 49.95 15.75 Q49.95 17.25 50.1 17.6 50.4 18.4 51.55 18.55 53.55 18.8 54.45 16.75 L54.8 15.8 Q55.1 14.65 55.05 13.2 L55.25 14.65 Q55.55 15.85 55.95 16.1 L56.75 16.3 57.65 16.25 59.4 15.9 61.25 15.3 63.45 14.5 M34.55 28.25 L36.35 26.45 Q39.1 22.45 40.15 16.0 39.1 22.45 36.35 26.45 L34.55 28.25 M52.45 21.65 Q54.55 19.45 54.8 15.8 54.55 19.45 52.45 21.65 M22.35 29.45 Q26.55 26.1 27.35 17.0 27.7 13.25 28.3 10.5 27.7 13.25 27.35 17.0 26.55 26.1 22.35 29.45 M7.85 28.0 Q11.65 26.5 13.7 18.15 11.65 26.5 7.85 28.0 M6.1 26.75 Q9.25 25.25 11.45 17.7 L11.5 17.5 11.45 17.7 Q9.25 25.25 6.1 26.75 M39.15 25.85 Q41.2 22.9 42.05 19.3 41.2 22.9 39.15 25.85 M25.3 28.45 Q28.15 26.65 29.75 22.25 28.15 26.65 25.3 28.45" fill="#000000" fill-opacity="0.14901961" fill-rule="evenodd" stroke="none"/>
    <path d="M63.45 14.5 L61.25 15.3 59.4 15.9 57.65 16.25 56.75 16.3 56.75 15.95 Q56.8 14.05 55.75 11.85 56.8 14.05 56.75 15.95 L56.75 16.3 55.95 16.1 Q55.55 15.85 55.25 14.65 L55.05 13.2 Q55.1 14.65 54.8 15.8 L54.45 16.75 Q53.55 18.8 51.55 18.55 50.4 18.4 50.1 17.6 49.95 17.25 49.95 15.75 L49.95 15.35 49.7 12.05 49.0 14.1 47.85 17.25 Q46.3 20.3 43.7 20.15 42.4 20.1 42.05 19.3 L42.5 16.4 Q42.95 12.2 41.9 8.35 L40.9 5.6 43.95 5.65 Q46.9 6.1 48.55 7.6 L49.45 8.65 49.5 8.7 49.5 8.75 51.65 9.35 Q53.15 9.9 54.25 10.7 L55.45 11.75 55.75 11.85 60.05 13.1 Q62.5 13.9 63.45 14.5 M1.3 13.15 L5.6 7.1 Q9.25 3.0 12.95 1.3 14.85 0.4 16.75 0.15 L18.25 0.05 20.45 0.0 20.65 0.0 Q24.1 0.2 27.2 1.5 L29.15 2.5 Q30.2 3.1 30.9 3.75 L34.1 3.4 34.35 3.4 Q37.9 3.5 40.3 5.55 L40.35 5.55 40.9 5.6 41.9 8.35 Q42.95 12.2 42.5 16.4 L42.05 19.3 42.0 19.2 41.8 17.1 Q41.85 16.15 41.5 14.35 41.15 12.55 41.15 11.65 L40.7 13.9 40.15 16.0 40.4 14.05 40.75 9.55 40.75 8.35 40.4 5.6 40.35 5.55 40.4 5.6 40.75 8.35 40.75 9.55 40.4 14.05 40.15 16.0 40.05 16.2 Q38.65 19.3 37.45 20.5 36.05 21.8 34.0 22.4 31.75 23.05 30.1 22.4 L29.75 22.25 30.55 19.45 Q31.15 16.85 31.8 9.55 32.05 6.75 33.3 4.7 L34.35 3.4 33.3 4.7 Q32.05 6.75 31.8 9.55 31.15 16.85 30.55 19.45 L29.75 22.25 29.1 21.4 Q28.65 20.55 28.85 15.45 29.1 10.15 29.8 8.15 L28.3 10.5 26.1 13.45 25.15 14.65 26.3 9.45 Q27.75 3.5 29.15 2.5 27.75 3.5 26.3 9.45 L25.15 14.65 23.2 16.7 Q21.25 18.5 19.45 18.8 17.45 19.1 13.7 18.15 L11.5 17.5 Q12.7 13.45 13.85 6.85 14.55 3.9 16.45 1.7 17.45 0.6 18.25 0.05 17.45 0.6 16.45 1.7 14.55 3.9 13.85 6.85 12.7 13.45 11.5 17.5 L10.25 17.1 7.15 16.0 4.6 14.7 Q2.75 13.65 2.5 13.55 L1.3 13.15 M48.55 7.6 Q49.2 11.0 49.0 14.1 49.2 11.0 48.55 7.6 M49.5 8.75 Q50.25 11.25 49.95 15.35 50.25 11.25 49.5 8.75 M54.25 10.7 Q54.75 12.4 54.8 14.55 L54.8 15.8 54.8 14.55 Q54.75 12.4 54.25 10.7 M28.3 10.5 Q29.25 5.8 30.9 3.75 29.25 5.8 28.3 10.5 M20.45 0.0 Q17.1 2.15 15.75 7.25 L14.1 16.25 13.7 18.15 14.1 16.25 15.75 7.25 Q17.1 2.15 20.45 0.0 M12.95 1.3 Q10.3 4.0 8.75 10.55 L7.15 16.0 8.75 10.55 Q10.3 4.0 12.95 1.3" fill="#ffffff" fill-opacity="0.0" fill-rule="evenodd" stroke="none"/>
    <path d="M55.55 20.0 Q56.55 20.25 60.0 18.35 63.35 16.4 64.05 15.35 64.3 15.0 63.45 14.5 62.5 13.9 60.05 13.1 L55.75 11.85 55.45 11.75 54.25 10.7 Q53.15 9.9 51.65 9.35 L49.5 8.75 49.5 8.7 49.45 8.65 48.55 7.6 Q46.9 6.1 43.95 5.65 L40.9 5.6 40.35 5.55 40.3 5.55 Q37.9 3.5 34.35 3.4 L34.1 3.4 30.9 3.75 Q30.2 3.1 29.15 2.5 L27.2 1.5 Q24.1 0.2 20.65 0.0 L20.45 0.0 18.25 0.05 16.75 0.15 Q14.85 0.4 12.95 1.3 9.25 3.0 5.6 7.1 L1.3 13.15 Q-0.7 13.9 0.4 18.4 0.9 20.35 1.95 22.1 3.45 24.6 6.1 26.75 L7.15 27.55 7.85 28.0 Q12.55 30.95 18.7 30.2 L19.2 30.1 22.35 29.45 Q23.85 29.0 25.1 28.35 L25.3 28.45 Q29.7 29.9 34.55 28.25 L35.15 28.0 Q37.4 27.1 38.95 26.0 L39.15 25.85 39.5 25.55 42.3 25.65 43.35 25.4 Q44.55 25.05 45.85 24.35 L47.0 23.7 48.25 22.75 48.7 22.35 Q50.05 22.7 52.45 21.65 L53.0 21.4 55.45 19.95 55.55 20.0" fill="none" stroke="#000000" stroke-linecap="round" stroke-linejoin="miter-clip" stroke-miterlimit="4.0" stroke-width="1.0"/>
    <path d="M55.75 11.85 Q56.8 14.05 56.75 15.95 L56.75 16.3" fill="none" stroke="#000000" stroke-linecap="round" stroke-linejoin="miter-clip" stroke-miterlimit="4.0" stroke-opacity="0.4" stroke-width="1.0"/>
    <path d="M56.75 16.3 L56.5 18.15 Q56.2 19.3 55.55 20.0 M40.15 16.0 L40.4 14.05 40.75 9.55 40.75 8.35 40.4 5.6 40.35 5.55 M40.9 5.6 L41.9 8.35 Q42.95 12.2 42.5 16.4 L42.05 19.3 Q41.2 22.9 39.15 25.85 M49.0 14.1 Q49.2 11.0 48.55 7.6 M43.35 25.4 L44.85 24.05 46.9 21.45 Q48.6 18.7 48.95 14.75 L49.0 14.1 M49.95 15.35 Q50.25 11.25 49.5 8.75 M49.95 15.35 L49.85 16.4 Q49.7 18.6 49.25 20.05 48.8 21.8 48.25 22.75 M40.15 16.0 Q39.1 22.45 36.35 26.45 L34.55 28.25 M54.8 15.8 Q54.55 19.45 52.45 21.65 M54.8 15.8 L54.8 14.55 Q54.75 12.4 54.25 10.7 M34.35 3.4 L33.3 4.7 Q32.05 6.75 31.8 9.55 31.15 16.85 30.55 19.45 L29.75 22.25 Q28.15 26.65 25.3 28.45 M25.15 14.65 L26.3 9.45 Q27.75 3.5 29.15 2.5 M28.3 10.5 Q27.7 13.25 27.35 17.0 26.55 26.1 22.35 29.45 M18.7 30.2 L20.7 28.5 Q23.05 25.7 23.9 20.95 L25.15 14.65 M13.7 18.15 Q11.65 26.5 7.85 28.0 M30.9 3.75 Q29.25 5.8 28.3 10.5 M18.25 0.05 Q17.45 0.6 16.45 1.7 14.55 3.9 13.85 6.85 12.7 13.45 11.5 17.5 L11.45 17.7 Q9.25 25.25 6.1 26.75 M13.7 18.15 L14.1 16.25 15.75 7.25 Q17.1 2.15 20.45 0.0 M1.95 22.1 Q3.6 21.55 4.95 20.05 6.1 18.65 7.15 16.0 L8.75 10.55 Q10.3 4.0 12.95 1.3" fill="none" stroke="#000000" stroke-linecap="round" stroke-linejoin="miter-clip" stroke-miterlimit="4.0" stroke-opacity="0.29803923" stroke-width="1.0"/>
  </g>
</svg>
