<?xml version="1.0" encoding="UTF-8" standalone="no"?>
<svg xmlns:xlink="http://www.w3.org/1999/xlink" height="107.4px" width="83.2px" xmlns="http://www.w3.org/2000/svg">
  <g transform="matrix(1.0, 0.0, 0.0, 1.0, 2.0, 1.4)">
    <path d="M28.15 57.2 L24.3 52.15 Q19.5 44.95 17.75 37.75 16.9 34.35 16.8 31.1 L0.0 28.8 16.75 29.7 Q16.85 12.0 38.45 0.0 L33.2 4.05 Q27.25 9.35 23.65 15.65 19.65 22.6 19.05 29.85 L27.9 30.1 Q54.2 29.95 62.25 29.65 L63.2 24.7 Q64.8 20.15 68.15 22.0 71.75 23.95 70.95 25.75 L66.6 30.25 Q65.5 31.35 64.6 33.45 71.4 35.85 75.9 38.45 83.65 42.95 78.95 45.5 74.95 47.65 69.35 47.65 65.55 47.65 61.5 46.65 60.65 54.75 61.9 59.45 62.6 62.05 61.25 65.45 60.55 67.3 57.65 72.4 51.4 83.45 50.45 92.65 L51.1 98.15 Q51.5 103.65 50.35 103.75 49.45 103.85 46.6 105.15 44.0 106.05 43.1 104.6 42.2 103.05 44.8 101.95 L47.55 101.15 47.75 93.65 Q48.2 85.45 49.15 82.25 49.75 80.3 54.2 70.6 58.0 62.4 57.7 61.1 L53.2 65.6 Q48.5 70.85 47.45 74.9 46.35 78.95 45.3 88.45 L44.5 97.2 40.15 99.25 Q35.95 100.85 36.8 98.45 37.7 96.05 39.2 94.8 L40.5 94.0 41.5 83.45 Q42.8 72.5 44.45 70.5 L55.1 57.2 56.05 48.7 Q57.35 39.45 59.25 35.5 L18.95 31.3 Q18.5 43.85 28.15 57.2 M75.8 42.9 Q74.1 39.3 63.65 36.0 62.5 39.45 61.9 43.8 77.55 46.5 75.8 42.9" fill="#ffffff" fill-opacity="0.0" fill-rule="evenodd" stroke="none"/>
    <path d="M28.15 57.2 Q18.5 43.85 18.95 31.3 L59.25 35.5 Q57.35 39.45 56.05 48.7 L55.1 57.2 44.45 70.5 Q42.8 72.5 41.5 83.45 L40.5 94.0 39.2 94.8 Q37.7 96.05 36.8 98.45 35.95 100.85 40.15 99.25 L44.5 97.2 45.3 88.45 Q46.35 78.95 47.45 74.9 48.5 70.85 53.2 65.6 L57.7 61.1 Q58.0 62.4 54.2 70.6 49.75 80.3 49.15 82.25 48.2 85.45 47.75 93.65 L47.55 101.15 44.8 101.95 Q42.2 103.05 43.1 104.6 44.0 106.05 46.6 105.15 49.45 103.85 50.35 103.75 51.5 103.65 51.1 98.15 L50.45 92.65 Q51.4 83.45 57.65 72.4 60.55 67.3 61.25 65.45 62.6 62.05 61.9 59.45 60.65 54.75 61.5 46.65 65.55 47.65 69.35 47.65 74.95 47.65 78.95 45.5 83.65 42.95 75.9 38.45 71.4 35.85 64.6 33.45 65.5 31.35 66.6 30.25 L70.95 25.75 Q71.75 23.95 68.15 22.0 64.8 20.15 63.2 24.7 L62.25 29.65 Q54.2 29.95 27.9 30.1 L19.05 29.85 Q19.65 22.6 23.65 15.65 27.25 9.35 33.2 4.05 L38.45 0.0 Q16.85 12.0 16.75 29.7 L0.0 28.8 16.8 31.1 Q16.9 34.35 17.75 37.75 19.5 44.95 24.3 52.15 L28.15 57.2 28.7 57.9" fill="none" stroke="#000000" stroke-linecap="round" stroke-linejoin="miter-clip" stroke-miterlimit="4.0" stroke-opacity="0.6" stroke-width="1.0"/>
    <path d="M75.8 42.9 Q77.55 46.5 61.9 43.8 62.5 39.45 63.65 36.0 74.1 39.3 75.8 42.9" fill="none" stroke="#000000" stroke-linecap="round" stroke-linejoin="miter-clip" stroke-miterlimit="4.0" stroke-opacity="0.4" stroke-width="1.0"/>
  </g>
</svg>
