<?xml version="1.0" encoding="UTF-8" standalone="no"?>
<svg xmlns:xlink="http://www.w3.org/1999/xlink" height="65.45px" width="137.5px" xmlns="http://www.w3.org/2000/svg">
  <g transform="matrix(1.0, 0.0, 0.0, 1.0, 0.5, 1.8)">
    <path d="M90.8 30.15 Q92.1 32.7 94.15 34.6 L103.95 43.0 Q110.75 48.9 113.85 53.2 L116.35 56.5 115.2 56.75 Q113.75 56.8 112.05 56.05 L104.2 48.75 Q97.0 41.85 91.8 40.1 87.4 38.6 83.7 35.35 L83.65 35.35 Q85.1 38.65 87.55 41.0 L97.35 49.4 Q104.15 55.3 107.3 59.6 L109.8 62.9 108.65 63.1 Q107.15 63.15 105.45 62.45 L97.65 55.15 Q90.45 48.25 85.25 46.45 78.85 44.3 73.9 38.45 L66.6 38.95 Q60.4 38.8 46.1 33.15 38.95 30.35 33.05 27.55 L29.4 28.65 25.15 33.75 Q20.7 38.5 17.55 47.25 14.35 56.05 16.0 59.5 L13.75 56.4 14.05 49.6 Q14.75 42.2 16.7 39.3 18.6 36.6 21.35 31.35 15.45 33.85 12.8 36.65 9.45 40.3 4.45 48.55 L0.15 56.1 0.0 52.25 3.3 44.55 Q7.0 36.45 8.85 34.7 11.55 33.65 14.7 30.55 21.1 24.35 23.65 14.05 L25.4 10.85 23.9 10.9 Q22.1 11.2 20.85 12.55 22.75 9.2 26.0 6.2 32.6 0.1 39.55 1.65 44.95 2.85 53.7 6.45 62.25 9.95 68.4 11.25 L79.25 11.95 Q83.75 11.9 85.4 13.9 87.4 16.35 99.95 14.1 110.95 12.15 119.45 8.95 L118.25 5.75 Q116.9 2.15 116.45 0.0 118.75 2.75 121.9 7.35 L121.5 5.2 Q121.45 2.65 123.25 0.7 L124.55 4.2 Q125.75 8.0 125.2 9.45 126.85 11.9 130.1 15.45 132.15 17.65 134.35 19.25 L136.15 20.45 134.1 21.75 128.3 21.5 Q126.7 20.85 124.4 18.45 122.9 16.85 118.2 16.7 111.65 16.5 103.75 19.8 95.35 23.3 92.15 28.3 L90.8 30.15" fill="#ffffff" fill-opacity="0.0" fill-rule="evenodd" stroke="none"/>
    <path d="M90.8 30.15 L92.15 28.3 Q95.35 23.3 103.75 19.8 111.65 16.5 118.2 16.7 122.9 16.85 124.4 18.45 126.7 20.85 128.3 21.5 L134.1 21.75 136.15 20.45 134.35 19.25 Q132.15 17.65 130.1 15.45 126.85 11.9 125.2 9.45 125.75 8.0 124.55 4.2 L123.25 0.7 Q121.45 2.65 121.5 5.2 L121.9 7.35 Q118.75 2.75 116.45 0.0 116.9 2.15 118.25 5.75 L119.45 8.95 Q110.95 12.15 99.95 14.1 87.4 16.35 85.4 13.9 83.75 11.9 79.25 11.95 L68.4 11.25 Q62.25 9.95 53.7 6.45 44.95 2.85 39.55 1.65 32.6 0.1 26.0 6.2 22.75 9.2 20.85 12.55 22.1 11.2 23.9 10.9 L25.4 10.85 23.65 14.05 Q21.1 24.35 14.7 30.55 11.55 33.65 8.85 34.7 7.0 36.45 3.3 44.55 L0.0 52.25 0.15 56.1 4.45 48.55 Q9.45 40.3 12.8 36.65 15.45 33.85 21.35 31.35 18.6 36.6 16.7 39.3 14.75 42.2 14.05 49.6 L13.75 56.4 16.0 59.5 Q14.35 56.05 17.55 47.25 20.7 38.5 25.15 33.75 L29.4 28.65 33.05 27.55 Q38.95 30.35 46.1 33.15 60.4 38.8 66.6 38.95 L73.9 38.45 Q78.85 44.3 85.25 46.45 90.45 48.25 97.65 55.15 L105.45 62.45 Q107.15 63.15 108.65 63.1 L109.8 62.9 107.3 59.6 Q104.15 55.3 97.35 49.4 L87.55 41.0 Q85.1 38.65 83.65 35.35 L83.7 35.35 Q87.4 38.6 91.8 40.1 97.0 41.85 104.2 48.75 L112.05 56.05 Q113.75 56.8 115.2 56.75 L116.35 56.5 113.85 53.2 Q110.75 48.9 103.95 43.0 L94.15 34.6 Q92.1 32.7 90.8 30.15 Z" fill="none" stroke="#000000" stroke-linecap="round" stroke-linejoin="miter-clip" stroke-miterlimit="4.0" stroke-opacity="0.6" stroke-width="1.0"/>
  </g>
</svg>
