<?xml version="1.0" encoding="UTF-8" standalone="no"?>
<svg xmlns:xlink="http://www.w3.org/1999/xlink" height="149.6px" width="655.9px" xmlns="http://www.w3.org/2000/svg">
  <g transform="matrix(1.0, 0.0, 0.0, 1.0, 0.65, 0.5)">
    <path d="M654.2 142.15 Q654.9 142.7 654.7 142.95 L652.85 144.3 Q650.0 146.1 642.75 144.65 639.15 143.95 636.1 142.85 L649.8 135.75 Q651.35 140.05 654.2 142.15 M65.7 137.15 Q73.3 138.6 80.0 140.35 93.3 143.9 88.55 145.7 79.4 149.15 71.45 148.4 60.75 147.4 65.7 137.15" fill="#000000" fill-opacity="0.4" fill-rule="evenodd" stroke="none"/>
    <path d="M587.45 48.5 L587.7 48.55 Q593.4 50.35 603.3 51.75 L612.05 52.85 625.75 67.05 615.85 68.5 601.4 69.9 Q595.35 69.9 574.05 67.05 L564.9 59.95 Q568.35 56.4 572.9 53.2 L573.7 52.65 Q582.05 47.0 587.45 48.5 M163.05 94.5 Q166.85 91.65 171.05 89.35 179.45 84.7 181.3 87.35 183.2 90.05 183.95 95.4 L184.35 100.2 171.45 98.95 Q159.25 97.15 163.05 94.5 M42.35 117.2 L19.95 114.1 Q0.95 111.2 0.0 112.0 L3.25 87.0 29.3 69.9 30.95 46.25 44.0 19.95 47.25 33.1 40.7 47.55 39.1 67.25 45.6 84.35 30.95 84.35 21.15 92.25 40.4 109.9 43.9 117.05 42.35 117.2" fill="#000000" fill-opacity="0.29803923" fill-rule="evenodd" stroke="none"/>
    <path d="M187.3 63.3 L162.9 59.35 141.7 48.85 122.15 35.75 107.3 35.25 118.9 44.9 118.9 51.5 104.25 44.9 96.65 49.0 122.15 65.95 Q127.45 66.95 131.75 68.55 140.3 71.85 135.2 75.15 130.5 78.15 122.55 80.75 113.9 83.5 112.4 84.35 110.9 85.15 108.2 86.35 L108.35 86.25 95.15 75.4 83.05 68.55 89.6 84.35 73.3 83.05 69.45 76.45 Q64.95 69.25 61.9 65.95 59.25 63.1 52.95 63.45 L49.55 63.55 Q48.3 63.3 48.85 62.0 L50.7 56.1 Q51.8 52.55 53.75 50.15 55.8 47.7 64.75 42.8 L73.3 38.35 81.45 34.55 Q89.6 30.35 89.6 27.85 89.6 25.4 82.25 23.1 78.6 21.95 74.9 21.3 L80.75 0.0 85.35 0.85 Q89.6 1.85 89.6 2.9 89.6 4.4 94.05 9.45 97.9 13.85 96.1 16.0 94.05 18.45 103.85 22.1 L114.0 25.2 136.8 29.15 156.35 44.9 171.05 55.45 187.3 63.3" fill="#ffffff" fill-opacity="0.0" fill-rule="evenodd" stroke="none"/>
    <path d="M573.7 52.65 Q565.65 54.55 561.7 54.55 557.3 54.55 550.5 51.55 542.25 47.85 540.45 47.45 L526.55 46.9 511.55 47.45 Q503.9 47.45 478.05 43.15 L484.15 34.6 500.9 21.8 516.1 27.5 522.75 27.3 Q529.95 26.95 532.8 26.05 537.1 24.75 544.25 25.35 552.1 26.05 551.1 28.9 550.15 31.6 566.45 35.5 L583.0 38.9 587.45 48.5 Q582.05 47.0 573.7 52.65 M122.15 65.95 L96.65 49.0 104.25 44.9 118.9 51.5 118.9 44.9 107.3 35.25 122.15 35.75 141.7 48.85 162.9 59.35 187.3 63.3 122.15 65.95 M80.75 0.0 L74.9 21.3 Q78.6 21.95 82.25 23.1 89.6 25.4 89.6 27.85 89.6 30.35 81.45 34.55 L73.3 38.35 64.75 42.8 Q55.8 47.7 53.75 50.15 51.8 52.55 50.7 56.1 L48.85 62.0 Q48.3 63.3 49.55 63.55 L52.95 63.45 Q59.25 63.1 61.9 65.95 64.95 69.25 69.45 76.45 L73.3 83.05 89.6 84.35 83.05 68.55 95.15 75.4 108.35 86.25 108.2 86.35 89.6 93.55 Q91.25 96.15 92.25 99.0 94.25 104.55 91.2 105.4 L70.05 110.65 58.05 113.95 Q45.4 117.2 42.35 117.2 L43.9 117.05 40.4 109.9 21.15 92.25 30.95 84.35 45.6 84.35 39.1 67.25 40.7 47.55 47.25 33.1 44.0 19.95 74.9 0.25 80.75 0.0" fill="#000000" fill-opacity="0.14901961" fill-rule="evenodd" stroke="none"/>
    <path d="M654.2 142.15 Q654.9 142.7 654.7 142.95 L652.85 144.3 Q650.0 146.1 642.75 144.65 639.15 143.95 636.1 142.85 L649.8 135.75 Q651.35 140.05 654.2 142.15 M587.45 48.5 L587.7 48.55 Q593.4 50.35 603.3 51.75 L612.05 52.85 625.75 67.05 615.85 68.5 601.4 69.9 Q595.35 69.9 574.05 67.05 L564.9 59.95 Q568.35 56.4 572.9 53.2 L573.7 52.65 Q565.65 54.55 561.7 54.55 557.3 54.55 550.5 51.55 542.25 47.85 540.45 47.45 L526.55 46.9 511.55 47.45 Q503.9 47.45 478.05 43.15 L484.15 34.6 500.9 21.8 516.1 27.5 522.75 27.3 Q529.95 26.95 532.8 26.05 537.1 24.75 544.25 25.35 552.1 26.05 551.1 28.9 550.15 31.6 566.45 35.5 L583.0 38.9 587.45 48.5 Q582.05 47.0 573.7 52.65 M163.05 94.5 Q166.85 91.65 171.05 89.35 179.45 84.7 181.3 87.35 183.2 90.05 183.95 95.4 L184.35 100.2 171.45 98.95 Q159.25 97.15 163.05 94.5 M122.15 65.95 L187.3 63.3 171.05 55.45 156.35 44.9 136.8 29.15 114.0 25.2 103.85 22.1 Q94.05 18.45 96.1 16.0 97.9 13.85 94.05 9.45 89.6 4.4 89.6 2.9 89.6 1.85 85.35 0.85 L80.75 0.0 74.9 0.25 44.0 19.95 30.95 46.25 29.3 69.9 3.25 87.0 0.0 112.0 Q0.95 111.2 19.95 114.1 L42.35 117.2 Q45.4 117.2 58.05 113.95 L70.05 110.65 91.2 105.4 Q94.25 104.55 92.25 99.0 91.25 96.15 89.6 93.55 L108.2 86.35 Q110.9 85.15 112.4 84.35 113.9 83.5 122.55 80.75 130.5 78.15 135.2 75.15 140.3 71.85 131.75 68.55 127.45 66.95 122.15 65.95 M65.7 137.15 Q73.3 138.6 80.0 140.35 93.3 143.9 88.55 145.7 79.4 149.15 71.45 148.4 60.75 147.4 65.7 137.15" fill="none" stroke="#000000" stroke-linecap="round" stroke-linejoin="miter-clip" stroke-miterlimit="4.0" stroke-width="1.0"/>
  </g>
</svg>
