<?xml version="1.0" encoding="UTF-8" standalone="no"?>
<svg xmlns:xlink="http://www.w3.org/1999/xlink" height="1328.9px" width="2045.9px" xmlns="http://www.w3.org/2000/svg">
  <g transform="matrix(1.0, 0.0, 0.0, 1.0, 1022.95, 664.45)">
    <path d="M662.7 -399.5 Q670.3 -408.0 700.6 -398.5 726.3 -390.5 743.6 -379.25 759.1 -369.2 767.95 -355.65 775.05 -344.85 779.45 -328.9 782.05 -319.55 786.25 -299.85 790.55 -281.8 796.5 -269.25 M638.05 -311.5 Q659.8 -290.4 663.35 -261.15 666.9 -231.45 649.6 -208.5 642.6 -199.25 629.35 -190.45 622.9 -186.15 604.4 -175.95 588.4 -167.15 580.65 -161.2 569.0 -152.35 564.0 -142.3 579.1 -129.65 587.0 -121.1 604.3 -102.4 609.75 -82.9 616.2 -59.7 607.5 -31.55 601.5 -12.2 586.3 5.8 L587.65 5.45 Q600.2 2.45 619.05 6.05 629.0 7.95 651.9 14.7 671.45 20.45 679.8 21.15 710.7 23.7 739.0 1.65 753.15 -9.35 766.95 -26.85 774.35 -36.3 781.65 -47.55 787.45 -56.5 793.0 -68.65 797.2 -77.85 801.25 -88.8 811.15 -117.7 816.85 -131.9 823.45 -148.3 830.15 -156.9 836.85 -165.6 845.9 -169.4 850.65 -171.4 857.3 -172.55 853.55 -180.9 848.45 -195.15 841.05 -215.8 836.55 -225.05 828.7 -240.95 818.7 -249.75 806.55 -260.4 789.5 -262.35 777.9 -263.7 763.95 -258.75 753.35 -255.05 738.15 -246.35 721.0 -236.05 712.5 -231.3 697.8 -223.1 687.35 -219.95 M764.8 -22.7 Q769.6 -24.75 774.45 -26.25 796.75 -33.15 819.55 -28.1 844.55 -22.65 867.75 -3.6 873.8 1.35 879.45 7.0 893.55 21.15 905.1 39.5 920.5 64.0 927.4 89.6 935.85 121.0 926.25 153.2 L924.55 158.55 Q915.05 186.0 894.35 206.15 870.95 228.85 841.0 234.35 808.2 240.35 775.4 223.75 M859.9 -167.1 L857.3 -172.55 867.6 -173.7 Q874.9 -174.15 898.65 -174.15 M247.2 -86.1 Q246.6 -105.8 242.4 -135.4 237.25 -168.9 235.1 -185.75 231.35 -214.85 231.5 -235.95 231.6 -247.9 232.85 -258.85 234.45 -272.65 237.9 -284.9 240.9 -295.65 246.4 -305.55 253.0 -317.7 263.2 -328.6 281.05 -347.65 305.65 -358.8 L312.1 -361.5 306.0 -373.6 Q300.7 -384.35 298.2 -390.25 290.8 -407.6 286.2 -424.2 283.65 -433.35 281.95 -442.25 272.35 -492.7 294.65 -518.9 314.45 -542.15 346.65 -552.4 357.0 -555.7 368.65 -557.65 384.6 -560.35 401.2 -560.35 426.05 -560.35 452.25 -554.4 523.45 -538.15 574.05 -507.45 640.05 -467.35 655.65 -410.1 M312.1 -361.5 Q333.9 -370.15 356.2 -370.4 383.5 -370.65 405.8 -358.15 408.25 -356.8 410.6 -355.25 424.65 -359.95 435.35 -368.35 447.65 -378.05 453.55 -390.95 459.55 -404.2 457.8 -418.6 455.95 -433.85 445.6 -448.3 435.25 -462.8 424.55 -480.4 L405.65 -512.2 M641.55 -403.05 L599.45 -419.0 Q567.1 -430.8 543.6 -435.55 472.6 -449.9 458.5 -406.55 M-150.7 61.8 Q-142.8 46.85 -133.1 14.25 -113.75 -50.9 -104.95 -138.9 -98.15 -207.1 -96.05 -222.15 -91.5 -254.9 -83.8 -274.05 -75.8 -294.2 -58.4 -314.7 -44.7 -330.9 -9.9 -364.3 42.95 -414.9 58.8 -484.45 63.75 -506.2 64.4 -527.25 64.6 -533.8 64.35 -539.5 L64.05 -543.9 162.7 -631.95 231.35 -663.95 M251.5 -617.65 Q281.8 -610.3 301.95 -594.8 323.45 -578.2 335.25 -550.95 M21.8 -212.9 Q22.5 -237.4 31.95 -257.45 40.15 -274.7 55.85 -290.6 L57.65 -292.35 Q68.95 -303.45 88.05 -317.65 L123.15 -343.85 Q139.85 -357.05 156.1 -378.55 172.0 -399.6 184.05 -424.0 196.45 -449.1 202.0 -472.3 207.95 -497.2 204.9 -515.7 M102.8 -65.0 Q104.35 -77.9 112.85 -92.5 117.45 -100.4 130.85 -118.5 L135.9 -125.45 Q144.55 -137.65 148.85 -145.7 157.45 -161.65 159.15 -176.9 160.9 -192.65 159.65 -203.85 158.5 -213.65 154.7 -222.65 152.4 -228.1 145.9 -239.55 138.75 -252.15 134.7 -260.8 127.5 -276.3 126.85 -301.4 126.65 -309.5 127.05 -322.75 L127.5 -343.2 M-185.95 12.5 Q-187.3 17.9 -186.65 27.85 -186.0 38.25 -183.4 48.75 -176.85 75.25 -163.9 82.0 -149.9 89.35 -128.8 77.05 -113.65 68.15 -97.8 51.25 -87.6 40.35 -74.7 16.2 -61.45 -8.7 -52.15 -19.2 -43.35 -29.1 -19.75 -54.4 0.5 -76.15 11.6 -89.1 46.35 -129.6 64.05 -167.1 M-404.25 -72.0 Q-436.15 -58.6 -460.6 -36.95 L-460.65 -34.8 Q-460.6 -27.5 -459.85 -18.9 -457.4 8.6 -449.15 38.9 -426.45 122.05 -368.05 198.8 -358.5 211.35 -347.95 223.75 L-344.25 228.15 Q-328.8 246.95 -318.3 265.4 -306.15 286.75 -300.65 307.65 -297.3 298.9 -292.45 292.35 -284.2 281.35 -270.45 275.25 -260.15 270.65 -242.35 267.4 L-210.55 261.75 Q-183.2 256.0 -156.15 230.6 -145.9 220.95 -133.6 206.55 L-112.85 181.4 Q-82.8 144.9 -56.8 124.8 -22.65 98.35 14.8 90.75 25.55 88.55 42.4 87.6 L72.05 86.2 Q109.05 84.25 127.1 75.35 L130.25 73.7 Q142.4 66.65 158.55 49.6 L173.15 33.75 Q181.6 24.55 187.1 19.6 L222.55 -12.75 Q244.55 -32.5 261.4 -45.15 308.5 -80.55 349.3 -86.1 388.35 -91.4 421.95 -92.3 469.1 -93.55 497.2 -85.65 532.5 -75.75 535.5 -51.95 539.1 -23.75 497.2 23.05 467.95 55.75 422.05 111.15 383.55 157.6 366.05 175.8 338.95 203.95 314.0 218.65 286.2 235.05 250.7 241.4 219.15 247.05 194.0 238.1 185.35 235.0 174.9 229.25 163.9 222.9 158.7 220.25 150.0 215.8 143.05 214.55 134.45 213.0 125.45 215.65 105.1 221.55 74.65 251.95 48.15 278.45 15.55 325.2 L12.75 329.45 Q-19.8 377.9 -36.3 399.85 -65.4 438.7 -90.75 455.95 -122.3 477.45 -157.75 473.75 M564.0 -142.3 L550.85 -153.0 Q523.7 -174.55 512.9 -185.25 497.55 -200.45 484.65 -227.3 480.55 -235.8 464.05 -276.65 451.7 -307.15 441.1 -323.6 427.85 -344.0 410.6 -355.25 M342.25 -290.35 Q329.25 -274.55 330.75 -244.45 331.65 -226.15 339.15 -196.45 L346.45 -166.4 Q349.8 -150.5 349.8 -138.8 349.75 -109.95 328.2 -86.1 M454.95 82.9 Q502.4 69.5 542.9 42.9 L544.5 41.85 Q554.2 35.4 562.5 28.75 576.35 17.55 586.3 5.8 M542.9 42.9 Q539.45 49.8 539.3 58.25 539.0 73.75 550.75 82.4 L562.25 89.45 Q570.15 94.0 574.65 97.7 590.3 110.65 598.75 126.8 606.1 141.0 608.75 159.45 610.8 173.45 610.55 195.35 L609.85 234.5 M377.5 167.45 Q389.2 164.0 399.0 167.05 420.7 173.8 432.85 212.65 439.1 232.8 442.15 259.8 444.4 279.75 444.4 297.7 M335.25 442.1 Q355.75 426.15 376.95 401.55 395.2 380.45 412.2 355.0 416.15 349.15 422.35 336.65 429.2 322.8 432.55 317.25 445.85 295.3 464.6 292.4 481.1 289.8 495.6 294.95 509.15 299.75 519.1 310.55 526.15 318.2 530.45 327.75 559.15 337.75 592.7 338.95 635.2 340.45 659.25 325.1 672.3 316.75 683.0 301.9 690.3 291.75 700.0 272.75 711.75 249.85 715.95 242.9 725.7 226.85 736.55 217.4 745.85 209.35 758.95 200.9 L778.5 188.0 Q788.5 180.65 794.95 172.25 802.7 162.05 807.9 147.1 818.15 117.45 816.4 98.6 814.4 77.15 796.5 54.75 M530.45 327.75 Q532.0 331.3 533.2 335.1 537.7 349.45 535.95 364.6 M486.65 431.5 Q472.85 431.25 445.65 441.75 413.45 455.15 397.15 460.85 368.7 470.85 351.1 469.7 328.6 468.25 317.65 449.1 313.2 441.35 312.1 429.35 311.3 420.75 312.1 406.25 L313.3 382.5 Q313.5 369.45 311.35 361.1 307.85 347.7 299.35 333.55 294.75 325.85 289.3 319.05 284.4 312.9 278.8 307.45 266.0 295.05 252.15 288.9 236.8 282.1 222.0 283.9 M173.25 663.95 Q134.65 663.95 103.25 658.55 71.35 653.05 35.9 640.1 L18.5 634.2 Q10.3 631.3 7.45 628.3 3.85 624.55 5.5 618.35 7.3 611.7 15.55 600.35 23.05 590.0 43.0 580.65 46.85 578.85 59.65 573.35 69.65 569.1 74.75 566.3 L102.0 551.85 Q120.35 541.75 132.55 532.8 141.55 526.2 148.15 519.6 167.3 500.35 166.35 480.85 165.05 454.4 132.65 422.8 122.65 413.1 105.15 398.65 86.55 383.3 81.65 378.7 M331.7 537.15 Q296.25 493.5 237.1 495.35 195.35 496.65 148.15 519.6 M1022.45 233.15 Q1006.35 208.25 987.75 198.6 968.65 188.65 933.85 188.55 M983.15 26.55 Q968.6 25.35 950.9 19.8 L919.75 8.95 M-312.75 -487.55 Q-332.1 -482.25 -358.05 -480.5 -410.0 -476.95 -443.0 -494.6 -461.8 -504.6 -460.3 -513.95 -459.05 -522.15 -441.65 -530.65 -427.95 -537.4 -399.95 -546.1 L-347.95 -561.5 Q-324.25 -568.6 -299.7 -583.6 -282.5 -594.1 -260.3 -611.65 L-229.55 -635.75 Q-223.35 -640.15 -218.3 -642.65 -211.95 -645.85 -207.5 -646.0 M-207.05 -646.0 L-183.85 -646.1 Q-155.85 -645.45 -132.2 -641.6 -56.5 -629.25 -52.15 -589.65 -49.6 -566.85 -57.0 -532.2 -63.85 -500.4 -78.1 -462.85 -91.6 -427.3 -109.05 -393.55 -126.5 -359.95 -143.7 -336.1 -158.0 -316.3 -180.05 -295.8 -205.55 -273.4 -218.1 -261.75 -240.05 -241.3 -254.15 -221.7 L-257.4 -217.05 Q-273.55 -193.3 -284.55 -163.55 -294.85 -135.7 -298.75 -94.1 -299.65 -84.35 -300.2 -73.8 -302.95 -21.95 -296.4 31.45 -289.8 85.55 -276.1 120.2 -261.2 157.85 -242.25 160.4 M-154.25 -586.15 Q-164.6 -570.75 -179.25 -546.9 -208.5 -499.25 -229.95 -457.15 -260.0 -398.25 -270.1 -358.85 -276.55 -333.65 -274.65 -317.25 -272.85 -301.55 -263.4 -293.85 L-258.8 -289.9 Q-253.5 -284.6 -250.2 -278.0 -239.65 -256.9 -252.85 -230.5 M-696.55 -343.2 L-697.5 -342.85 Q-669.45 -328.2 -626.1 -343.2 -584.7 -357.5 -574.55 -360.35 -556.1 -365.5 -543.8 -364.3 -532.4 -363.2 -513.7 -355.05 L-464.1 -332.6 Q-409.1 -308.4 -371.25 -340.95 -359.4 -351.15 -350.75 -365.8 -346.4 -373.1 -344.4 -378.4 M-257.4 -217.05 L-256.65 -227.7 Q-254.75 -250.35 -255.9 -262.6 -260.35 -309.45 -305.65 -272.75 -329.4 -253.5 -357.8 -241.35 -367.7 -237.1 -381.4 -232.35 L-403.35 -224.75 Q-428.15 -215.85 -442.35 -204.9 -451.15 -198.1 -458.65 -188.8 -467.55 -177.9 -474.7 -163.55 -481.35 -150.25 -493.6 -138.7 -502.9 -129.95 -518.95 -119.2 -537.7 -107.15 -547.25 -100.55 -563.9 -89.1 -575.05 -78.2 -605.3 -48.7 -615.35 -4.15 -623.45 31.95 -619.65 81.5 -617.6 108.4 -612.05 139.25 -596.3 226.4 -565.2 277.6 -540.35 318.5 -506.8 334.7 -482.9 346.25 -457.0 344.25 -444.1 343.25 -435.95 339.95 M-682.45 -244.55 L-664.35 -249.1 Q-642.7 -253.85 -624.8 -254.7 -567.6 -257.35 -569.8 -219.95 -571.15 -196.85 -563.95 -180.05 -556.4 -162.45 -541.6 -156.95 -525.35 -150.95 -503.4 -161.0 -484.95 -169.4 -464.0 -188.6 -457.15 -194.85 -450.05 -202.3 M-664.85 -128.35 Q-681.55 -133.65 -699.6 -134.95 -735.7 -137.6 -742.3 -117.8 -746.3 -105.85 -743.95 -81.35 -741.65 -56.75 -734.4 -35.05 -726.3 -10.8 -715.6 -1.9 -703.05 8.45 -689.5 -5.1 -677.9 -16.65 -667.1 -40.05 L-658.75 -58.9 Q-653.9 -69.7 -650.3 -75.95 -640.3 -93.35 -627.6 -96.7 -611.95 -100.85 -587.4 -86.1 M-495.8 5.45 L-490.9 -2.7 Q-484.2 -12.8 -475.15 -22.7 -468.25 -30.25 -460.6 -36.95 M-697.5 -342.85 Q-704.5 -340.45 -714.65 -336.0 -736.35 -326.4 -754.2 -314.55 -811.4 -276.7 -809.2 -230.5 -808.0 -204.65 -813.05 -183.0 -817.25 -165.2 -826.8 -146.4 -830.55 -139.1 -845.85 -113.15 -858.5 -91.65 -865.55 -75.55 -880.95 -40.35 -878.3 -17.45 -877.0 -6.0 -872.6 -1.6 M-738.8 -388.95 Q-737.05 -388.95 -734.7 -385.7 -733.4 -383.9 -729.6 -377.35 -720.9 -362.25 -712.8 -354.2 -705.85 -347.25 -697.5 -342.85 M-907.8 -149.5 Q-913.1 -146.2 -920.55 -139.2 -935.55 -125.2 -946.55 -106.8 -981.75 -47.8 -964.15 33.6 M-904.3 58.25 L-899.55 65.3 Q-892.75 73.65 -882.3 80.25 -848.8 101.4 -791.6 97.0 -764.35 94.9 -726.8 89.45 L-671.9 81.6 Q-644.9 78.3 -630.2 79.65 -624.4 80.2 -619.65 81.5 M-1008.75 320.2 Q-1014.75 310.5 -1018.2 300.1 -1032.3 257.25 -999.35 209.7 -986.4 191.0 -972.75 179.4 -976.15 174.6 -980.25 167.6 -990.35 150.35 -995.85 133.55 -1013.45 79.85 -978.25 51.2 -959.85 36.25 -938.5 25.05 -910.9 10.6 -878.35 2.35 -820.8 -12.2 -770.5 -1.6 L-764.6 2.75 Q-757.2 7.9 -749.8 12.05 -726.0 25.25 -710.65 23.05 M-710.65 156.85 L-708.65 157.8 Q-706.15 159.15 -703.8 161.15 -696.35 167.5 -693.0 178.0 -686.4 199.0 -697.75 231.1 -704.55 250.1 -717.65 273.05 -737.55 307.85 -731.3 343.55 -725.75 375.35 -702.7 395.85 -691.95 405.45 -679.55 409.95 -666.8 414.65 -654.3 413.2 -626.0 410.0 -608.5 378.7 L-602.1 384.35 Q-593.85 391.45 -584.55 398.3 -554.75 420.3 -525.3 432.4 -484.1 449.35 -449.55 444.1 -406.35 437.5 -376.1 396.35 M-972.75 179.4 Q-951.95 161.75 -929.55 160.55 -899.85 159.0 -868.65 186.35 -846.35 205.85 -825.55 237.9 -815.15 253.9 -809.2 266.0 M-911.35 269.55 L-896.9 282.75 Q-879.8 299.05 -866.9 314.45 -841.55 344.65 -837.5 364.65 L-831.9 370.15 -816.5 384.4 Q-790.1 407.75 -762.55 425.35 -724.05 450.0 -688.85 459.7 -644.8 471.8 -608.5 459.7 L-534.55 431.5 M-1003.25 328.25 Q-989.2 346.8 -965.05 362.4 -929.5 385.35 -889.45 392.4 -871.5 395.55 -858.7 393.9 -845.45 392.25 -840.9 385.75 -834.95 377.25 -837.5 364.65 M-300.65 307.65 Q-298.9 314.3 -297.85 320.9 -291.15 362.55 -311.85 398.95 -320.95 414.95 -334.6 428.8 -342.9 437.2 -352.8 444.8 -354.6 448.95 -355.6 454.2 -359.6 475.5 -349.3 504.05 -338.95 532.75 -320.35 551.1 -299.55 571.55 -277.5 568.85 M-136.65 642.8 Q-173.95 631.1 -180.6 589.1 -183.05 573.4 -181.7 550.95 -181.3 544.8 -178.1 513.3 -175.5 487.35 -177.0 475.15 -179.2 458.0 -190.45 439.35 -194.8 432.1 -204.2 420.15 L-220.4 399.65 Q-237.35 377.25 -239.1 364.2 -239.0 362.7 -239.3 361.1 M-352.8 444.8 Q-359.4 449.8 -366.75 454.5 -400.25 475.95 -439.45 484.35" fill="none" stroke="#000000" stroke-linecap="round" stroke-linejoin="miter-clip" stroke-miterlimit="4.0" stroke-opacity="0.6" stroke-width="1.0"/>
  </g>
</svg>
