<?xml version="1.0" encoding="UTF-8" standalone="no"?>
<svg xmlns:xlink="http://www.w3.org/1999/xlink" height="110.5px" width="44.15px" xmlns="http://www.w3.org/2000/svg">
  <g transform="matrix(1.0, 0.0, 0.0, 1.0, 1.95, 0.5)">
    <path d="M31.95 13.35 Q26.55 18.95 25.7 27.75 25.05 34.35 26.7 39.7 26.6 47.8 27.95 56.6 28.45 72.7 26.9 84.45 25.3 97.05 12.45 104.35 6.05 108.0 0.0 109.1 5.7 106.1 11.5 99.7 9.5 101.35 7.15 102.7 3.95 104.35 1.45 104.7 13.25 99.4 18.05 79.8 22.45 62.1 19.6 40.35 17.35 23.45 31.3 8.85 36.35 3.55 41.7 0.0 35.55 5.5 31.95 13.35" fill="#000000" fill-opacity="0.69803923" fill-rule="evenodd" stroke="none"/>
    <path d="M31.95 13.35 Q26.55 18.95 25.7 27.75 25.05 34.35 26.7 39.7 M27.95 56.6 Q28.45 72.7 26.9 84.45 25.3 97.05 12.45 104.35 6.05 108.0 0.0 109.1 5.7 106.1 11.5 99.7 9.5 101.35 7.15 102.7 3.95 104.35 1.45 104.7 13.25 99.4 18.05 79.8 22.45 62.1 19.6 40.35 17.35 23.45 31.3 8.85 36.35 3.55 41.7 0.0" fill="none" stroke="#000000" stroke-linecap="round" stroke-linejoin="miter-clip" stroke-miterlimit="4.0" stroke-width="1.0"/>
  </g>
</svg>
