<?xml version="1.0" encoding="UTF-8" standalone="no"?>
<svg xmlns:xlink="http://www.w3.org/1999/xlink" height="236.3px" width="445.45px" xmlns="http://www.w3.org/2000/svg">
  <g transform="matrix(1.0, 0.0, 0.0, 1.0, 0.2, 0.05)">
    <path d="M409.4 22.8 L418.8 30.85 Q420.2 32.0 420.55 34.9 L420.6 37.55 425.35 47.1 Q430.6 57.5 433.15 61.7 435.65 65.9 438.25 75.0 L440.3 83.2 442.75 85.15 444.2 86.8 Q445.2 88.2 445.2 89.45 445.2 91.8 443.2 96.1 441.2 100.4 439.85 101.1 L438.4 101.05 Q436.8 101.15 436.25 102.0 435.9 103.7 435.45 104.45 434.7 105.85 431.35 105.55 L425.3 105.85 423.3 106.45 Q418.8 104.25 416.15 101.55 L415.1 99.8 410.15 91.25 404.5 80.95 Q403.4 78.75 393.55 69.1 L388.7 64.5 Q384.4 62.85 380.75 60.5 374.2 56.25 370.85 50.25 370.0 48.75 369.45 47.25 L369.15 47.85 Q366.0 55.45 353.95 78.75 355.1 72.9 355.75 66.95 L356.15 62.15 Q354.2 70.3 335.1 86.05 L322.15 96.1 316.35 100.2 Q313.35 105.9 309.0 112.5 L305.55 117.65 305.6 117.65 Q303.95 120.55 300.6 124.0 L296.7 127.55 289.35 133.1 Q285.85 135.4 281.95 137.45 273.85 141.6 264.0 144.5 L255.75 156.3 254.15 158.6 Q243.65 174.05 240.3 180.75 L235.35 190.6 230.1 197.85 Q224.75 205.7 224.2 208.5 223.75 210.75 224.35 221.35 224.45 231.9 221.5 236.2 218.15 236.3 214.3 234.8 206.55 231.8 204.05 223.7 209.4 214.3 211.2 208.5 L215.7 196.0 218.8 187.9 Q220.15 166.85 221.05 160.6 221.4 158.2 224.1 149.65 226.2 143.15 226.7 139.0 L226.85 137.35 227.35 130.15 Q228.15 120.55 229.7 110.6 L229.85 109.5 Q230.9 102.9 232.25 96.15 L232.75 92.9 Q221.35 90.9 207.6 87.35 179.05 79.95 166.15 71.55 L166.8 75.65 Q167.45 80.9 167.6 86.4 L167.65 88.15 Q167.8 96.7 166.5 105.5 165.65 111.1 164.25 117.2 L163.8 117.6 Q157.25 123.1 149.0 129.05 L142.15 133.8 Q129.9 141.8 122.6 143.6 L121.8 143.8 Q113.3 146.0 111.5 149.0 110.55 150.55 111.45 151.65 L120.3 173.35 Q129.2 195.95 129.75 200.45 130.2 204.15 128.45 215.9 126.75 226.9 127.05 229.7 126.8 227.85 127.3 223.75 L128.55 215.05 121.65 211.85 Q116.1 208.75 115.45 207.95 114.6 206.8 114.8 202.4 114.85 201.5 115.85 198.6 116.8 196.0 116.55 193.95 116.3 191.95 115.0 189.05 L112.75 184.3 Q110.8 179.75 107.2 173.45 L101.1 162.85 Q94.35 150.5 99.1 143.65 101.0 140.85 105.75 137.35 111.9 133.1 115.45 130.45 128.8 120.6 127.05 108.55 125.65 98.65 113.45 85.9 102.3 74.3 96.6 65.1 87.85 51.0 89.25 39.65 L93.95 30.55 Q95.55 27.5 97.1 25.15 94.65 17.6 84.7 12.4 78.45 9.15 71.25 8.2 64.15 7.25 59.1 8.95 50.7 11.75 39.75 25.8 L34.75 32.25 30.9 37.1 31.2 34.25 31.7 30.6 29.05 32.6 31.6 29.25 34.45 25.35 Q37.8 20.5 40.25 17.4 46.0 10.2 52.8 5.35 66.25 -4.15 90.85 3.25 103.15 6.9 112.75 12.5 L113.0 12.55 Q115.8 11.45 119.1 10.65 129.0 11.25 135.15 12.5 L150.8 13.05 169.15 11.6 201.45 8.65 180.6 7.95 182.7 7.95 236.25 10.25 Q242.45 10.5 252.45 9.95 L267.85 9.35 Q284.6 15.85 294.45 18.75 300.05 20.45 301.85 26.05 302.45 27.9 302.55 29.65 L302.5 31.3 Q306.55 29.1 334.95 14.2 L335.0 14.2 335.05 14.2 Q343.5 11.95 349.9 12.5 L351.85 12.7 352.55 12.95 Q357.65 14.95 360.1 17.55 362.35 20.0 361.75 23.3 361.45 24.75 359.35 29.45 L365.65 25.8 Q368.8 24.25 374.4 23.6 L385.25 23.25 390.55 23.95 Q387.8 20.55 387.15 16.5 386.55 12.45 388.25 9.3 L388.6 9.2 Q391.75 8.9 396.0 11.15 L398.5 13.35 398.55 13.35 409.4 22.8 M407.3 48.2 L408.5 48.4 Q416.1 49.55 413.9 41.15 412.45 38.9 409.7 37.2 404.2 33.7 397.8 36.2 L393.3 38.9 393.55 41.2 Q394.0 43.95 395.05 46.4 398.3 54.2 405.85 55.9 404.3 54.8 402.8 52.95 399.95 49.35 400.45 45.8 L400.85 46.4 Q402.95 49.2 407.3 48.2 M436.95 82.65 Q435.65 75.6 430.15 66.2 L429.95 65.85 424.5 57.55 429.95 65.85 430.15 66.2 Q435.65 75.6 436.95 82.65 L437.05 82.7 436.95 82.65 434.9 82.3 436.95 82.65 M438.2 82.85 L437.05 82.7 438.2 82.85 Q441.95 84.0 444.2 86.8 441.95 84.0 438.2 82.85 M427.2 102.55 L426.9 102.3 Q422.4 98.75 422.4 97.05 422.4 95.0 419.95 91.0 L419.75 90.7 Q417.35 86.9 416.15 87.25 414.45 88.35 415.55 89.9 416.1 90.7 417.0 91.25 L419.7 97.05 427.2 102.55 431.35 105.55 427.2 102.55 M436.8 92.95 Q437.5 96.65 438.05 97.5 439.5 96.15 440.0 94.5 441.0 91.15 436.25 89.45 L436.8 92.95 M302.2 29.8 L302.55 29.65 302.2 29.8 M253.85 94.1 L253.1 95.15 256.55 96.65 Q262.9 92.7 271.15 88.85 282.35 83.65 293.4 71.4 298.9 65.3 302.2 60.25 L290.55 67.85 Q277.4 76.2 269.95 79.9 262.5 83.65 253.85 94.1 M233.6 86.8 L232.75 92.9 233.6 86.8 M152.15 54.55 L155.75 57.0 Q159.9 60.6 162.7 66.3 167.25 75.45 167.65 88.15 167.25 75.45 162.7 66.3 159.9 60.6 155.75 57.0 L152.15 54.55 M236.85 143.85 Q240.45 132.6 236.7 120.8 L236.35 129.2 Q235.6 137.3 233.45 142.15 L232.7 143.6 226.55 154.9 Q223.75 161.05 223.75 166.85 L223.3 179.45 222.85 188.35 224.7 177.25 Q227.0 163.45 228.8 159.85 234.1 151.5 236.45 145.05 L236.85 143.85 M97.1 25.15 Q98.6 22.8 100.05 21.15 104.8 15.7 113.0 12.55 104.8 15.7 100.05 21.15 98.6 22.8 97.1 25.15 M160.2 75.45 Q159.95 79.9 158.05 85.05 155.95 90.8 152.5 95.35 L139.05 114.4 Q150.3 112.55 155.95 97.85 159.9 87.6 160.2 75.45 M210.3 212.95 Q215.15 219.65 219.8 220.25 222.1 220.55 223.45 219.5 222.1 220.55 219.8 220.25 215.15 219.65 210.3 212.95" fill="#ffffff" fill-opacity="0.0" fill-rule="evenodd" stroke="none"/>
    <path d="M405.65 42.65 Q405.1 42.35 404.25 42.35 L402.85 42.65 Q402.25 42.95 402.25 43.4 402.25 43.8 402.85 44.1 L404.25 44.4 405.65 44.1 Q406.25 43.8 406.25 43.4 406.25 42.95 405.65 42.65 M400.45 45.8 L399.75 44.1 399.55 42.95 401.15 41.95 Q403.15 41.05 405.4 41.6 407.6 42.15 408.3 45.05 408.6 46.5 408.5 47.85 L407.3 48.2 Q402.95 49.2 400.85 46.4 L400.45 45.8" fill="#000000" fill-opacity="0.8" fill-rule="evenodd" stroke="none"/>
    <path d="M335.85 125.8 L335.8 125.85 Q327.15 134.1 320.3 139.55 L320.3 139.6 319.1 140.5 Q311.95 142.95 305.6 142.25 302.7 141.95 294.0 139.15 286.75 136.75 282.35 137.35 L281.95 137.45 Q285.85 135.4 289.35 133.1 L296.7 127.55 300.6 124.0 Q303.95 120.55 305.6 117.65 L305.55 117.65 309.0 112.5 Q313.35 105.9 316.35 100.2 L322.15 96.1 335.1 86.05 Q354.2 70.3 356.15 62.15 L355.75 66.95 Q355.1 72.9 353.95 78.75 366.0 55.45 369.15 47.85 L369.45 47.25 Q370.0 48.75 370.85 50.25 374.2 56.25 380.75 60.5 384.4 62.85 388.7 64.5 L393.55 69.1 Q403.4 78.75 404.5 80.95 L410.15 91.25 415.1 99.8 412.65 96.85 Q409.25 93.3 404.85 91.15 402.85 90.15 400.6 89.45 L382.2 83.75 Q375.3 81.3 372.8 79.3 371.65 78.4 371.4 77.55 L367.95 66.75 366.75 63.15 366.0 61.85 Q366.1 67.85 366.3 69.95 366.7 74.45 367.9 77.9 368.95 80.9 371.1 84.3 374.05 88.95 376.25 88.3 373.6 89.15 369.4 87.65 363.55 85.6 362.6 85.5 L366.1 87.9 Q368.0 89.3 369.1 90.7 351.65 95.3 342.2 113.15 L339.05 119.5 335.85 125.8 M164.65 117.55 L164.25 117.2 Q165.65 111.1 166.5 105.5 167.8 96.7 167.65 88.15 L167.6 86.4 Q167.45 80.9 166.8 75.65 L166.15 71.55 Q179.05 79.95 207.6 87.35 221.35 90.9 232.75 92.9 L232.25 96.15 Q230.9 102.9 229.85 109.5 227.9 111.05 224.45 112.75 218.3 115.95 209.9 114.75 206.05 114.2 195.3 111.0 189.4 109.25 185.75 107.3 180.9 104.75 177.85 100.95 176.05 98.7 173.25 94.1 L168.75 87.3 Q169.15 104.2 164.65 117.55 M127.05 229.7 L127.1 229.95 Q121.4 229.85 115.95 227.5 105.1 222.8 106.5 211.6 L109.8 204.3 110.1 203.55 Q110.55 201.45 110.45 198.7 110.2 193.2 107.4 190.15 105.5 188.05 96.4 169.3 87.35 150.65 83.7 146.75 83.6 145.3 83.85 143.55 84.4 140.1 86.35 138.7 L91.35 134.2 Q96.8 128.8 99.35 124.35 101.5 121.65 102.15 116.65 103.5 106.55 96.2 94.85 76.2 62.45 88.15 41.6 L89.05 40.05 89.25 39.65 Q87.85 51.0 96.6 65.1 102.3 74.3 113.45 85.9 125.65 98.65 127.05 108.55 128.8 120.6 115.45 130.45 111.9 133.1 105.75 137.35 101.0 140.85 99.1 143.65 94.35 150.5 101.1 162.85 L107.2 173.45 Q110.8 179.75 112.75 184.3 L115.0 189.05 Q116.3 191.95 116.55 193.95 116.8 196.0 115.85 198.6 114.85 201.5 114.8 202.4 114.6 206.8 115.45 207.95 116.1 208.75 121.65 211.85 L128.55 215.05 127.3 223.75 Q126.8 227.85 127.05 229.7 M119.1 10.65 L119.0 10.65 120.25 10.4 121.4 10.15 125.75 9.35 130.9 8.75 180.6 7.95 201.45 8.65 169.15 11.6 150.8 13.05 135.15 12.5 Q129.0 11.25 119.1 10.65 M267.85 9.35 L268.15 9.35 272.1 9.5 282.0 10.55 285.2 11.1 289.7 12.2 303.7 16.85 306.05 17.85 313.35 17.95 323.95 17.45 324.7 17.3 328.55 16.1 335.05 14.15 335.05 14.2 335.0 14.2 334.95 14.2 Q306.55 29.1 302.5 31.3 L302.55 29.65 Q302.45 27.9 301.85 26.05 300.05 20.45 294.45 18.75 284.6 15.85 267.85 9.35 M352.55 12.95 Q364.2 17.0 364.65 17.45 L370.05 17.05 Q376.1 16.95 379.45 18.3 L381.85 14.45 Q384.4 10.55 385.25 10.25 L385.35 10.25 386.65 9.75 388.25 9.25 388.25 9.3 Q386.55 12.45 387.15 16.5 387.8 20.55 390.55 23.95 L385.25 23.25 374.4 23.6 Q368.8 24.25 365.65 25.8 L359.35 29.45 Q361.45 24.75 361.75 23.3 362.35 20.0 360.1 17.55 357.65 14.95 352.55 12.95 M407.3 48.2 L408.5 47.85 Q408.6 46.5 408.3 45.05 407.6 42.15 405.4 41.6 403.15 41.05 401.15 41.95 L399.55 42.95 399.75 44.1 400.45 45.8 Q399.95 49.35 402.8 52.95 404.3 54.8 405.85 55.9 398.3 54.2 395.05 46.4 394.0 43.95 393.55 41.2 L393.3 38.9 397.8 36.2 Q404.2 33.7 409.7 37.2 412.45 38.9 413.9 41.15 416.1 49.55 408.5 48.4 L407.3 48.2 M365.4 59.05 L366.75 63.15 365.4 59.05 M302.55 29.65 Q318.35 21.4 323.95 17.45 318.35 21.4 302.55 29.65 M253.85 94.1 Q262.5 83.65 269.95 79.9 277.4 76.2 290.55 67.85 L302.2 60.25 Q298.9 65.3 293.4 71.4 282.35 83.65 271.15 88.85 262.9 92.7 256.55 96.65 L253.1 95.15 253.85 94.1 M236.85 143.85 L236.45 145.05 Q234.1 151.5 228.8 159.85 227.0 163.45 224.7 177.25 L222.85 188.35 223.3 179.45 223.75 166.85 Q223.75 161.05 226.55 154.9 L232.7 143.6 233.45 142.15 Q235.6 137.3 236.35 129.2 L236.7 120.8 Q240.45 132.6 236.85 143.85 M160.2 75.45 Q159.9 87.6 155.95 97.85 150.3 112.55 139.05 114.4 L152.5 95.35 Q155.95 90.8 158.05 85.05 159.95 79.9 160.2 75.45 M109.8 204.3 Q112.35 208.55 119.1 211.75 123.95 214.1 128.55 215.05 123.95 214.1 119.1 211.75 112.35 208.55 109.8 204.3" fill="#000000" fill-opacity="0.09803922" fill-rule="evenodd" stroke="none"/>
    <path d="M416.15 101.55 Q413.8 102.35 410.5 102.8 403.9 103.7 399.15 102.0 390.65 97.85 385.0 96.5 374.75 94.1 365.1 99.75 361.6 101.8 356.7 106.0 L353.55 108.75 352.45 109.75 351.45 110.65 350.6 111.55 338.4 123.35 335.85 125.8 339.05 119.5 342.2 113.15 Q351.65 95.3 369.1 90.7 368.0 89.3 366.1 87.9 L362.6 85.5 Q363.55 85.6 369.4 87.65 373.6 89.15 376.25 88.3 374.05 88.95 371.1 84.3 368.95 80.9 367.9 77.9 366.7 74.45 366.3 69.95 366.1 67.85 366.0 61.85 L366.75 63.15 367.95 66.75 371.4 77.55 Q371.65 78.4 372.8 79.3 375.3 81.3 382.2 83.75 L400.6 89.45 Q402.85 90.15 404.85 91.15 409.25 93.3 412.65 96.85 L415.1 99.8 416.15 101.55 M320.3 139.55 Q322.7 157.25 319.0 165.0 316.35 166.05 313.0 167.85 306.25 171.45 302.75 175.3 L294.65 185.3 Q291.25 189.3 288.05 191.05 290.5 187.05 293.45 176.8 296.2 167.15 299.5 162.75 300.65 161.2 307.8 155.75 316.9 148.75 320.9 145.2 L320.3 139.6 320.3 139.55 M297.3 153.3 L281.65 161.15 Q270.0 166.9 266.7 165.55 265.3 164.95 263.65 163.75 L262.7 162.95 261.5 161.95 261.4 161.85 261.05 161.5 260.55 161.05 258.85 159.35 258.7 159.2 257.2 157.7 256.6 157.1 256.8 157.35 255.75 156.3 264.0 144.5 Q273.85 141.6 281.95 137.45 L282.35 137.35 Q286.75 136.75 294.0 139.15 302.7 141.95 305.6 142.25 311.95 142.95 319.1 140.5 L319.4 140.4 314.7 143.8 310.7 146.35 307.4 148.1 297.3 153.3 M226.7 139.0 L224.85 138.15 Q209.5 131.4 200.0 130.65 188.9 129.7 178.1 125.3 169.45 121.75 164.85 117.7 L164.5 117.95 164.65 117.55 Q169.15 104.2 168.75 87.3 L173.25 94.1 Q176.05 98.7 177.85 100.95 180.9 104.75 185.75 107.3 189.4 109.25 195.3 111.0 206.05 114.2 209.9 114.75 218.3 115.95 224.45 112.75 227.9 111.05 229.85 109.5 L229.7 110.6 Q228.15 120.55 227.35 130.15 L226.85 137.35 226.7 139.0 M30.9 37.1 Q30.3 37.55 28.5 42.35 26.75 47.05 24.35 48.5 20.05 51.1 15.1 50.15 L10.3 48.45 Q5.5 45.3 3.65 43.25 L0.05 38.25 0.0 38.15 Q4.25 41.3 7.9 42.25 L13.45 42.95 Q6.5 41.25 2.95 37.1 0.55 34.2 0.55 31.8 0.55 28.9 1.2 27.35 L2.65 24.55 Q1.9 26.6 2.0 28.15 3.45 33.15 10.4 35.75 15.05 37.5 18.8 37.5 21.2 37.5 25.35 35.05 L29.05 32.6 31.7 30.6 31.2 34.25 30.9 37.1 M416.15 87.25 Q417.35 86.9 419.75 90.7 L419.95 91.0 Q422.4 95.0 422.4 97.05 422.4 98.75 426.9 102.3 L427.2 102.55 419.7 97.05 417.0 91.25 Q416.1 90.7 415.55 89.9 414.45 88.35 416.15 87.25 M436.8 92.95 L436.25 89.45 Q441.0 91.15 440.0 94.5 439.5 96.15 438.05 97.5 437.5 96.65 436.8 92.95 M401.8 94.25 Q395.25 91.85 388.15 88.6 376.65 83.25 372.8 79.3 376.65 83.25 388.15 88.6 395.25 91.85 401.8 94.25" fill="#000000" fill-opacity="0.2" fill-rule="evenodd" stroke="none"/>
    <path d="M352.45 109.75 L350.6 111.55 351.45 110.65 352.45 109.75 M257.2 157.7 L256.8 157.35 256.6 157.1 257.2 157.7" fill="#a2a4a6" fill-rule="evenodd" stroke="none"/>
    <path d="M288.05 191.05 L288.0 191.1 286.7 191.7 285.35 192.15 285.3 192.2 284.05 192.4 283.1 192.55 269.75 194.75 Q258.6 196.6 254.9 199.25 255.6 195.35 257.55 190.65 261.35 181.25 267.35 177.1 L271.2 171.45 278.35 172.1 Q282.0 172.0 284.65 171.1 287.75 170.0 289.55 167.8 292.9 163.7 295.45 158.1 L297.3 153.35 297.3 153.3 307.4 148.1 310.7 146.35 314.7 143.8 319.4 140.4 319.1 140.5 320.3 139.6 320.9 145.2 Q316.9 148.75 307.8 155.75 300.65 161.2 299.5 162.75 296.2 167.15 293.45 176.8 290.5 187.05 288.05 191.05 M142.15 133.8 Q150.2 140.7 156.7 148.9 161.5 155.0 165.35 160.65 L170.9 169.45 Q173.65 174.2 174.65 176.75 174.8 179.2 173.4 181.5 170.6 186.05 163.05 185.15 L153.7 187.55 Q151.8 177.25 149.85 169.95 149.55 168.8 149.65 164.8 L149.65 164.4 Q149.65 161.55 148.3 159.4 144.1 153.0 121.8 143.8 L122.6 143.6 Q129.9 141.8 142.15 133.8 M149.65 164.4 Q156.55 166.75 161.85 163.65 164.05 162.35 165.35 160.65 164.05 162.35 161.85 163.65 156.55 166.75 149.65 164.4" fill="#000000" fill-opacity="0.29803923" fill-rule="evenodd" stroke="none"/>
    <path d="M2.65 24.55 L2.3 25.9 Q2.0 27.3 2.0 28.15 1.9 26.6 2.65 24.55" fill="#8a8c8e" fill-rule="evenodd" stroke="none"/>
    <path d="M405.65 42.65 Q406.25 42.95 406.25 43.4 406.25 43.8 405.65 44.1 L404.25 44.4 402.85 44.1 Q402.25 43.8 402.25 43.4 402.25 42.95 402.85 42.65 L404.25 42.35 Q405.1 42.35 405.65 42.65" fill="#ffffff" fill-rule="evenodd" stroke="none"/>
    <path d="M409.4 22.8 L418.8 30.85 Q420.2 32.0 420.55 34.9 L420.6 37.55 425.35 47.1 Q430.6 57.5 433.15 61.7 435.65 65.9 438.25 75.0 L440.3 83.2 M444.2 86.8 Q445.2 88.2 445.2 89.45 445.2 91.8 443.2 96.1 441.2 100.4 439.85 101.1 L438.4 101.05 Q436.8 101.15 436.25 102.0 435.9 103.7 435.45 104.45 434.7 105.85 431.35 105.55 L425.3 105.85 423.3 106.45 Q418.8 104.25 416.15 101.55 413.8 102.35 410.5 102.8 403.9 103.7 399.15 102.0 390.65 97.85 385.0 96.5 374.75 94.1 365.1 99.75 361.6 101.8 356.7 106.0 L353.55 108.75 352.45 109.75 350.6 111.55 338.4 123.35 335.85 125.8 335.8 125.85 Q327.15 134.1 320.3 139.55 322.7 157.25 319.0 165.0 316.35 166.05 313.0 167.85 306.25 171.45 302.75 175.3 L294.65 185.3 Q291.25 189.3 288.05 191.05 L288.0 191.1 286.7 191.7 285.35 192.15 285.3 192.2 284.05 192.4 283.1 192.55 269.75 194.75 Q258.6 196.6 254.9 199.25 255.6 195.35 257.55 190.65 261.35 181.25 267.35 177.1 L271.2 171.45 278.35 172.1 Q282.0 172.0 284.65 171.1 287.75 170.0 289.55 167.8 292.9 163.7 295.45 158.1 L297.3 153.35 297.3 153.3 281.65 161.15 Q270.0 166.9 266.7 165.55 265.3 164.95 263.65 163.75 L262.7 162.95 261.5 161.95 261.4 161.85 261.05 161.5 260.55 161.05 258.85 159.35 258.7 159.2 257.2 157.7 256.8 157.35 255.75 156.3 254.15 158.6 Q243.65 174.05 240.3 180.75 L235.35 190.6 230.1 197.85 Q224.75 205.7 224.2 208.5 223.75 210.75 224.35 221.35 224.45 231.9 221.5 236.2 218.15 236.3 214.3 234.8 206.55 231.8 204.05 223.7 209.4 214.3 211.2 208.5 L215.7 196.0 218.8 187.9 Q220.15 166.85 221.05 160.6 221.4 158.2 224.1 149.65 226.2 143.15 226.7 139.0 L224.85 138.15 Q209.5 131.4 200.0 130.65 188.9 129.7 178.1 125.3 169.45 121.75 164.85 117.7 M164.65 117.55 L164.25 117.2 163.8 117.6 Q157.25 123.1 149.0 129.05 L142.15 133.8 Q150.2 140.7 156.7 148.9 161.5 155.0 165.35 160.65 L170.9 169.45 Q173.65 174.2 174.65 176.75 174.8 179.2 173.4 181.5 170.6 186.05 163.05 185.15 L153.7 187.55 Q151.8 177.25 149.85 169.95 149.55 168.8 149.65 164.8 L149.65 164.4 Q149.65 161.55 148.3 159.4 144.1 153.0 121.8 143.8 113.3 146.0 111.5 149.0 110.55 150.55 111.45 151.65 L120.3 173.35 Q129.2 195.95 129.75 200.45 130.2 204.15 128.45 215.9 126.75 226.9 127.05 229.7 L127.1 229.95 Q121.4 229.85 115.95 227.5 105.1 222.8 106.5 211.6 L109.8 204.3 110.1 203.55 Q110.55 201.45 110.45 198.7 110.2 193.2 107.4 190.15 105.5 188.05 96.4 169.3 87.35 150.65 83.7 146.75 83.6 145.3 83.85 143.55 84.4 140.1 86.35 138.7 L91.35 134.2 Q96.8 128.8 99.35 124.35 101.5 121.65 102.15 116.65 103.5 106.55 96.2 94.85 76.2 62.45 88.15 41.6 L89.05 40.05 89.25 39.65 93.95 30.55 Q95.55 27.5 97.1 25.15 94.65 17.6 84.7 12.4 78.45 9.15 71.25 8.2 64.15 7.25 59.1 8.95 50.7 11.75 39.75 25.8 L34.75 32.25 30.9 37.1 Q30.3 37.55 28.5 42.35 26.75 47.05 24.35 48.5 20.05 51.1 15.1 50.15 L10.3 48.45 Q5.5 45.3 3.65 43.25 L0.05 38.25 0.0 38.15 Q4.25 41.3 7.9 42.25 L13.45 42.95 Q6.5 41.25 2.95 37.1 0.55 34.2 0.55 31.8 0.55 28.9 1.2 27.35 L2.65 24.55 2.3 25.9 Q2.0 27.3 2.0 28.15 3.45 33.15 10.4 35.75 15.05 37.5 18.8 37.5 21.2 37.5 25.35 35.05 L29.05 32.6 31.6 29.25 34.45 25.35 Q37.8 20.5 40.25 17.4 46.0 10.2 52.8 5.35 66.25 -4.15 90.85 3.25 103.15 6.9 112.75 12.5 L113.0 12.55 Q115.8 11.45 119.1 10.65 L119.0 10.65 120.25 10.4 121.4 10.15 125.75 9.35 130.9 8.75 180.6 7.95 182.7 7.95 236.25 10.25 Q242.45 10.5 252.45 9.95 L267.85 9.35 268.15 9.35 272.1 9.5 282.0 10.55 285.2 11.1 289.7 12.2 303.7 16.85 306.05 17.85 313.35 17.95 323.95 17.45 324.7 17.3 328.55 16.1 335.05 14.15 335.05 14.2 Q343.5 11.95 349.9 12.5 L351.85 12.7 352.55 12.95 Q364.2 17.0 364.65 17.45 L370.05 17.05 Q376.1 16.95 379.45 18.3 L381.85 14.45 Q384.4 10.55 385.25 10.25 L385.35 10.25 386.65 9.75 388.25 9.25 388.25 9.3 388.6 9.2 Q391.75 8.9 396.0 11.15 L398.5 13.35 398.55 13.35 M335.05 14.2 L335.0 14.2 334.95 14.2 M320.3 139.6 L320.3 139.55 M281.95 137.45 Q273.85 141.6 264.0 144.5 L255.75 156.3 M2.65 24.55 Q1.9 26.6 2.0 28.15" fill="none" stroke="#000000" stroke-linecap="round" stroke-linejoin="miter-clip" stroke-miterlimit="4.0" stroke-width="0.1"/>
    <path d="M400.45 45.8 L399.75 44.1 399.55 42.95 401.15 41.95 Q403.15 41.05 405.4 41.6 407.6 42.15 408.3 45.05 408.6 46.5 408.5 47.85 L407.3 48.2 Q402.95 49.2 400.85 46.4 L400.45 45.8 M30.9 37.1 L31.2 34.25 31.7 30.6 29.05 32.6" fill="none" stroke="#000000" stroke-linecap="round" stroke-linejoin="miter-clip" stroke-miterlimit="4.0" stroke-opacity="0.4" stroke-width="0.1"/>
    <path d="M424.5 57.55 L429.95 65.85 430.15 66.2 Q435.65 75.6 436.95 82.65 L434.9 82.3 M437.05 82.7 L438.2 82.85 M427.2 102.55 L426.9 102.3 Q422.4 98.75 422.4 97.05 422.4 95.0 419.95 91.0 L419.75 90.7 Q417.35 86.9 416.15 87.25 M427.2 102.55 L431.35 105.55 M415.1 99.8 L416.15 101.55 M366.75 63.15 L365.4 59.05 M372.8 79.3 Q371.65 78.4 371.4 77.55 L367.95 66.75 366.75 63.15 M372.8 79.3 Q375.3 81.3 382.2 83.75 L400.6 89.45 Q402.85 90.15 404.85 91.15 409.25 93.3 412.65 96.85 L415.1 99.8 M372.8 79.3 Q376.65 83.25 388.15 88.6 395.25 91.85 401.8 94.25 M323.95 17.45 Q318.35 21.4 302.55 29.65" fill="none" stroke="#000000" stroke-linecap="round" stroke-linejoin="round" stroke-opacity="0.6" stroke-width="0.1"/>
    <path d="M436.95 82.65 L437.05 82.7 M438.2 82.85 Q441.95 84.0 444.2 86.8 M302.55 29.65 L302.2 29.8" fill="none" stroke="#000000" stroke-linecap="round" stroke-linejoin="round" stroke-width="0.1"/>
    <path d="M398.55 13.35 L409.4 22.8 M229.85 109.5 Q230.9 102.9 232.25 96.15 L232.75 92.9 233.6 86.8 M167.65 88.15 Q167.8 96.7 166.5 105.5 165.65 111.1 164.25 117.2 M167.65 88.15 Q167.25 75.45 162.7 66.3 159.9 60.6 155.75 57.0 L152.15 54.55 M226.7 139.0 L226.85 137.35 227.35 130.15 Q228.15 120.55 229.7 110.6 L229.85 109.5 M305.6 117.65 Q303.95 120.55 300.6 124.0 L296.7 127.55 289.35 133.1 Q285.85 135.4 281.95 137.45 M297.3 153.3 L307.4 148.1 310.7 146.35 314.7 143.8 319.4 140.4 319.1 140.5 M113.0 12.55 Q104.8 15.7 100.05 21.15 98.6 22.8 97.1 25.15 M121.8 143.8 L122.6 143.6 Q129.9 141.8 142.15 133.8 M165.35 160.65 Q164.05 162.35 161.85 163.65 156.55 166.75 149.65 164.4 M128.55 215.05 Q123.95 214.1 119.1 211.75 112.35 208.55 109.8 204.3 M223.45 219.5 Q222.1 220.55 219.8 220.25 215.15 219.65 210.3 212.95" fill="none" stroke="#000000" stroke-linecap="round" stroke-linejoin="miter-clip" stroke-miterlimit="4.0" stroke-opacity="0.6" stroke-width="0.1"/>
  </g>
</svg>
