<?xml version="1.0" encoding="UTF-8" standalone="no"?>
<svg xmlns:xlink="http://www.w3.org/1999/xlink" height="187.2px" width="90.9px" xmlns="http://www.w3.org/2000/svg">
  <g transform="matrix(1.0, 0.0, 0.0, 1.0, 0.5, 0.5)">
    <path d="M53.25 20.55 L4.65 21.25 4.35 9.4 15.4 5.2 Q29.8 0.8 46.65 0.1 63.5 -0.6 78.4 4.45 85.85 7.0 89.9 9.7 L89.25 20.0 83.5 20.1 83.65 15.45 Q81.2 14.6 77.7 13.7 70.65 11.95 65.25 11.9 59.9 11.85 54.65 14.55 L52.2 16.15 50.45 17.25 53.25 20.55" fill="#000000" fill-opacity="0.09803922" fill-rule="evenodd" stroke="none"/>
    <path d="M83.5 20.1 L82.7 42.35 89.45 153.5 88.05 159.8 Q85.9 166.85 82.25 170.5 78.65 174.15 71.15 177.35 L64.35 179.85 11.45 186.2 Q9.25 181.65 8.85 179.5 8.65 178.35 9.0 176.05 L60.15 171.0 63.75 170.25 67.1 168.85 Q70.2 167.3 73.5 164.7 76.6 162.2 78.35 159.65 79.3 158.1 79.75 156.55 L79.95 153.2 74.55 44.15 Q64.0 31.6 55.55 20.5 L52.2 16.15 54.65 14.55 Q59.9 11.85 65.25 11.9 70.65 11.95 77.7 13.7 81.2 14.6 83.65 15.45 L83.5 20.1" fill="#ffffff" fill-opacity="0.0" fill-rule="evenodd" stroke="none"/>
    <path d="M9.0 176.05 L9.1 175.3 9.65 172.75 60.3 168.3 63.35 167.55 66.15 166.2 Q68.75 164.65 71.5 162.1 74.1 159.65 75.55 157.15 76.35 155.65 76.75 154.1 L76.9 150.8 71.5 43.7 61.15 30.5 53.25 20.55 50.45 17.25 52.2 16.15 55.55 20.5 Q64.0 31.6 74.55 44.15 L79.95 153.2 79.75 156.55 Q79.3 158.1 78.35 159.65 76.6 162.2 73.5 164.7 70.2 167.3 67.1 168.85 L63.75 170.25 60.15 171.0 9.0 176.05" fill="#ffffff" fill-opacity="0.29803923" fill-rule="evenodd" stroke="none"/>
    <path d="M4.65 21.25 L0.15 21.25 0.0 11.9 4.35 9.4 4.65 21.25" fill="#000000" fill-opacity="0.24705882" fill-rule="evenodd" stroke="none"/>
    <path d="M83.5 20.1 L82.7 42.35 89.45 153.5 88.05 159.8 Q85.9 166.85 82.25 170.5 78.65 174.15 71.15 177.35 L64.35 179.85 11.45 186.2 Q9.25 181.65 8.85 179.5 8.65 178.35 9.0 176.05 L9.1 175.3 9.65 172.75 60.3 168.3 63.35 167.55 66.15 166.2 Q68.75 164.65 71.5 162.1 74.1 159.65 75.55 157.15 76.35 155.65 76.75 154.1 L76.9 150.8 71.5 43.7 61.15 30.5 53.25 20.55 4.65 21.25 0.15 21.25 0.0 11.9 4.35 9.4 15.4 5.2 Q29.8 0.8 46.65 0.1 63.5 -0.6 78.4 4.45 85.85 7.0 89.9 9.7 L89.25 20.0 83.5 20.1 83.65 15.45 Q81.2 14.6 77.7 13.7 70.65 11.95 65.25 11.9 59.9 11.85 54.65 14.55 L52.2 16.15 50.45 17.25 53.25 20.55 M4.35 9.4 L4.65 21.25" fill="none" stroke="#000000" stroke-linecap="round" stroke-linejoin="round" stroke-width="1.0"/>
  </g>
</svg>
