<?xml version="1.0" encoding="UTF-8" standalone="no"?>
<svg xmlns:xlink="http://www.w3.org/1999/xlink" height="22.2px" width="233.2px" xmlns="http://www.w3.org/2000/svg">
  <g transform="matrix(1.0, 0.0, 0.0, 1.0, 0.0, 0.0)">
    <path d="M225.15 14.05 Q207.15 17.4 164.25 19.85 119.05 22.5 79.25 22.15 32.85 21.7 13.5 17.15 -21.25 8.95 33.3 3.5 L72.95 0.65 Q66.0 1.7 57.6 3.65 45.05 6.6 34.9 9.85 33.55 18.05 126.0 14.05 L189.7 10.45 218.75 8.4 Q231.85 9.45 233.1 11.0 234.2 12.4 225.15 14.05 M125.95 7.55 L157.3 8.0 177.6 8.05 Q54.35 12.8 62.25 6.7 64.7 4.8 79.95 2.05 L92.9 0.0 Q63.65 5.4 116.55 7.25 L125.95 7.55" fill="#000000" fill-opacity="0.14901961" fill-rule="evenodd" stroke="none"/>
  </g>
</svg>
