<?xml version="1.0" encoding="UTF-8" standalone="no"?>
<svg xmlns:xlink="http://www.w3.org/1999/xlink" height="111.75px" width="556.95px" xmlns="http://www.w3.org/2000/svg">
  <g transform="matrix(1.0, 0.0, 0.0, 1.0, -26.1, -62.45)">
    <path d="M553.8 167.7 Q552.75 159.3 556.05 150.55 557.15 147.2 562.7 141.15 567.4 136.25 568.3 129.35 568.95 125.55 567.4 116.85 565.85 107.7 566.05 103.7 L577.0 122.0 Q583.7 133.15 583.0 144.5 L578.55 164.8 553.8 167.95 553.8 167.7 M443.6 173.05 Q443.6 150.0 442.05 139.85 441.15 134.5 434.0 129.35 428.65 125.55 431.15 111.5 432.25 105.7 447.4 86.75 462.8 67.1 463.0 66.45 463.25 72.7 459.45 98.8 456.75 118.2 460.55 129.55 463.7 138.25 475.75 144.05 488.0 150.1 490.9 158.55 493.1 164.65 493.8 171.0 L493.8 171.3 443.6 173.5 443.6 173.05 M213.1 172.45 Q220.4 159.5 223.45 152.1 229.05 138.95 228.15 124.0 227.7 117.75 222.8 106.8 218.55 97.25 219.45 87.85 220.8 75.35 227.05 70.7 230.6 68.0 238.2 62.45 224.35 79.85 230.15 95.45 234.4 108.4 252.45 120.2 L251.8 140.5 Q251.15 160.65 251.35 173.75 L251.35 174.2 212.75 173.05 213.1 172.45 M52.35 161.9 L39.35 160.35 26.75 158.95 Q23.2 121.05 39.7 84.3 35.85 96.35 36.6 106.25 37.15 113.75 40.8 123.05 L47.65 139.85 Q51.5 150.7 52.35 161.9" fill="#ffffff" fill-opacity="0.0" fill-rule="evenodd" stroke="none"/>
  </g>
</svg>
