<?xml version="1.0" encoding="UTF-8" standalone="no"?>
<svg xmlns:xlink="http://www.w3.org/1999/xlink" height="225.1px" width="792.5px" xmlns="http://www.w3.org/2000/svg">
  <g transform="matrix(1.0, 0.0, 0.0, 1.0, -66.95, -13.7)">
    <path d="M381.35 133.15 Q384.3 138.35 392.3 146.25 401.2 155.0 403.7 158.55 410.25 167.75 410.95 175.95 411.6 182.8 408.15 194.75 413.7 180.8 426.25 174.2 436.95 168.55 454.15 167.75 448.95 172.2 446.2 175.7 442.4 180.55 441.65 185.3 453.8 187.0 466.7 183.35 481.1 179.3 487.8 170.55 484.85 175.4 486.85 178.9 488.65 182.0 493.6 183.05 L503.6 182.75 Q509.2 181.25 512.5 177.6 517.0 172.6 518.25 164.65 519.45 157.15 517.3 149.55 515.1 141.7 510.2 136.7 504.8 131.25 497.5 130.75 516.5 131.0 524.0 136.15 531.95 141.6 537.7 159.2 542.45 146.1 551.4 141.1 561.0 135.75 574.5 140.3 L573.7 143.3 572.85 146.3 Q576.65 140.75 585.05 138.35 592.75 136.15 602.1 137.2 611.3 138.2 618.5 141.85 626.2 145.75 628.8 151.35 616.3 154.1 610.5 156.6 600.2 161.05 600.7 169.9 601.2 179.3 612.5 183.75 622.55 187.65 631.95 185.25 652.25 180.0 649.5 157.35 648.55 149.25 644.45 138.2 L637.5 121.3 643.25 120.75 643.35 120.75 Q647.1 125.2 652.7 127.35 L652.7 127.4 Q651.9 134.25 655.95 141.3 658.55 145.85 665.25 153.3 672.5 161.3 674.75 164.8 679.05 171.3 678.65 177.25 680.4 170.0 682.8 156.95 685.1 146.3 688.15 140.8 692.15 133.6 699.45 130.5 707.65 127.0 721.5 127.85 717.45 129.75 713.25 135.6 709.2 141.35 707.25 147.75 705.15 154.65 706.75 159.05 708.6 164.05 715.05 164.35 715.7 157.25 719.55 153.3 723.95 148.85 730.15 151.6 723.0 163.65 721.35 169.1 717.65 181.1 728.65 180.85 740.3 180.6 748.05 160.35 751.05 152.55 752.55 143.9 753.95 135.95 753.45 131.2 755.1 134.75 760.3 144.2 764.65 152.25 766.5 156.95 772.25 171.6 766.05 183.5 770.45 177.35 779.75 174.7 787.05 172.65 796.55 172.9 793.1 177.85 790.6 183.45 787.95 189.4 786.95 195.0 791.55 194.4 798.2 192.4 L809.25 189.0 Q822.6 185.4 832.5 188.95 L830.1 191.35 Q826.45 195.05 827.3 201.5 828.15 207.55 832.75 214.75 842.7 230.35 859.45 238.8 L66.95 238.8 Q91.25 228.8 103.5 215.8 115.1 203.6 114.65 190.25 114.5 185.5 123.75 190.6 L131.85 195.2 Q136.55 197.8 139.15 198.25 135.3 187.8 133.9 177.35 132.8 169.3 132.6 155.4 136.4 164.8 145.45 174.1 154.0 182.95 163.65 188.15 154.3 180.45 149.3 168.25 144.65 156.8 144.65 143.5 144.6 130.45 149.1 118.7 153.75 106.55 162.2 98.65 160.2 112.5 161.9 122.0 163.8 132.75 171.2 143.65 175.55 150.0 184.7 161.9 192.2 172.65 194.45 182.25 196.3 176.85 196.2 168.55 L195.7 154.05 Q195.6 145.6 197.4 140.1 199.75 132.95 205.8 128.05 204.55 136.4 210.0 144.25 214.1 150.15 223.6 157.55 L239.9 169.95 Q248.85 177.25 252.25 183.4 252.6 179.5 251.45 174.2 L249.1 164.95 Q246.15 153.5 248.9 147.45 251.6 153.65 255.35 158.35 260.0 164.15 265.2 166.05 L265.65 156.95 Q265.7 151.8 265.1 147.95 267.15 154.25 271.45 160.55 L279.25 170.85 Q283.9 176.8 286.0 181.05 288.9 186.95 289.1 193.4 294.75 178.6 314.0 167.55 329.25 158.8 347.9 154.8 339.7 160.95 337.25 171.45 334.55 183.05 343.2 188.35 341.9 175.4 353.95 166.4 355.9 164.95 364.9 159.35 371.7 155.1 375.1 151.7 379.25 147.55 380.7 142.75 381.95 138.55 381.35 133.15 M591.8 20.05 Q593.15 17.25 595.95 15.6 598.95 13.85 603.35 13.7 599.0 14.0 591.8 20.05" fill="#ffffff" fill-opacity="0.0" fill-rule="evenodd" stroke="none"/>
    <path d="M803.65 100.25 Q799.8 99.1 795.5 98.45 800.6 97.55 803.65 100.25" fill="#000000" fill-opacity="0.24705882" fill-rule="evenodd" stroke="none"/>
    <path d="M381.35 133.15 Q377.65 126.55 378.3 119.9 380.8 128.6 381.35 133.15" fill="#ffffff" fill-opacity="0.34901962" fill-rule="evenodd" stroke="none"/>
  </g>
</svg>
