<?xml version="1.0" encoding="UTF-8" standalone="no"?>
<svg xmlns:xlink="http://www.w3.org/1999/xlink" height="36.2px" width="106.05px" xmlns="http://www.w3.org/2000/svg">
  <g transform="matrix(1.0, 0.0, 0.0, 1.0, 2.0, 1.0)">
    <path d="M18.7 32.3 L18.35 31.9 Q13.25 25.9 6.6 23.35 4.2 22.45 1.85 22.1 L0.0 21.95 Q8.0 21.25 18.65 26.55 L23.0 28.9 27.65 31.95 Q28.8 34.85 24.5 34.7 L20.0 33.95 18.85 32.5 19.25 32.0 18.7 32.3 M32.8 24.2 Q28.0 17.0 21.1 13.65 18.7 12.55 16.45 12.0 L14.6 11.7 Q22.65 11.65 32.75 17.85 36.35 20.05 39.2 22.25 L41.25 23.95 Q42.25 26.95 37.95 26.45 L33.5 25.35 32.8 24.2 M50.95 20.6 Q47.25 14.1 41.4 10.4 39.25 9.05 37.0 8.2 L35.2 7.7 Q43.15 8.65 52.55 15.9 55.85 18.45 58.35 20.95 L60.3 23.0 Q60.9 26.05 56.7 25.05 L52.4 23.45 50.95 20.6" fill="#ffffff" fill-opacity="0.2" fill-rule="evenodd" stroke="none"/>
    <path d="M94.45 17.3 Q91.4 9.75 85.75 4.7 83.25 2.45 80.55 1.05 L78.35 0.0 Q88.8 3.75 96.9 13.55 L100.3 18.05 Q101.9 20.45 102.95 22.65 104.8 26.05 100.85 25.45 L96.55 24.15 Q95.7 20.5 94.45 17.3" fill="#ffffff" fill-opacity="0.29803923" fill-rule="evenodd" stroke="none"/>
    <path d="M94.45 17.3 Q95.7 20.5 96.55 24.15 L100.85 25.45 Q104.8 26.05 102.95 22.65 101.9 20.45 100.3 18.05 L96.9 13.55 Q88.8 3.75 78.35 0.0 L80.55 1.05 Q83.25 2.45 85.75 4.7 91.4 9.75 94.45 17.3 M50.95 20.6 L52.4 23.45 56.7 25.05 Q60.9 26.05 60.3 23.0 L58.35 20.95 Q55.85 18.45 52.55 15.9 43.15 8.65 35.2 7.7 L37.0 8.2 Q39.25 9.05 41.4 10.4 47.25 14.1 50.95 20.6 M32.8 24.2 L33.5 25.35 37.95 26.45 Q42.25 26.95 41.25 23.95 L39.2 22.25 Q36.35 20.05 32.75 17.85 22.65 11.65 14.6 11.7 L16.45 12.0 Q18.7 12.55 21.1 13.65 28.0 17.0 32.8 24.2 M18.85 32.5 L20.0 33.95 24.5 34.7 Q28.8 34.85 27.65 31.95 L23.0 28.9 18.65 26.55 Q8.0 21.25 0.0 21.95 L1.85 22.1 Q4.2 22.45 6.6 23.35 13.25 25.9 18.35 31.9 L18.7 32.3" fill="none" stroke="#000000" stroke-linecap="round" stroke-linejoin="miter-clip" stroke-miterlimit="4.0" stroke-opacity="0.6" stroke-width="1.0"/>
  </g>
</svg>
