<?xml version="1.0" encoding="UTF-8" standalone="no"?>
<svg xmlns:xlink="http://www.w3.org/1999/xlink" height="76.5px" width="50.7px" xmlns="http://www.w3.org/2000/svg">
  <g transform="matrix(1.0, 0.0, 0.0, 1.0, 0.5, 0.5)">
    <path d="M0.0 42.9 L3.05 46.4 Q5.45 49.8 6.5 54.8 7.45 59.65 6.6 63.0 5.9 65.75 7.55 64.95 L9.3 63.55 Q12.2 59.85 9.05 47.6 12.55 58.65 15.6 62.45 17.6 65.05 22.95 66.3 L25.95 66.85 33.25 67.35 Q33.55 67.3 32.65 66.7 30.9 65.45 25.1 62.7 23.95 62.15 22.95 61.45 18.75 58.4 16.45 51.85 15.6 49.3 15.05 46.55 L14.75 44.25 16.85 48.1 Q19.4 52.1 22.95 55.5 L24.0 56.45 Q28.3 60.2 36.75 59.2 L39.2 58.9 44.4 57.55 39.2 56.95 36.3 56.45 Q32.55 55.8 26.55 50.35 L21.3 45.05 25.45 48.35 Q30.65 51.9 35.7 52.95 L39.2 53.15 Q41.95 52.85 43.8 51.0 45.3 49.5 45.75 47.8 L39.2 47.55 36.8 47.2 Q33.75 46.65 30.05 43.9 L27.0 41.2 34.6 44.45 39.2 44.95 Q42.45 44.6 44.8 42.1 46.7 40.05 47.4 37.65 45.4 39.75 42.5 40.1 L40.05 40.1 Q45.3 39.35 45.9 28.15 46.3 21.0 45.35 14.05 L45.35 14.0 45.5 14.55 Q51.4 36.95 49.05 48.85 47.35 57.5 43.9 62.8 41.8 66.05 39.2 67.95 37.05 69.45 34.6 70.05 L22.95 72.95 20.7 73.45 Q6.25 76.5 3.3 75.0 2.35 74.95 1.55 74.05 -0.1 72.45 0.6 68.7 1.3 64.95 0.85 56.7 L0.15 48.25 0.0 44.7 0.0 42.9" fill="#000000" fill-opacity="0.101960786" fill-rule="evenodd" stroke="none"/>
    <path d="M45.35 14.05 Q46.3 21.0 45.9 28.15 45.3 39.35 40.05 40.1 L42.5 40.1 Q45.4 39.75 47.4 37.65 46.7 40.05 44.8 42.1 42.45 44.6 39.2 44.95 L34.6 44.45 27.0 41.2 30.05 43.9 Q33.75 46.65 36.8 47.2 L39.2 47.55 45.75 47.8 Q45.3 49.5 43.8 51.0 41.95 52.85 39.2 53.15 L35.7 52.95 Q30.65 51.9 25.45 48.35 L21.3 45.05 26.55 50.35 Q32.55 55.8 36.3 56.45 L39.2 56.95 44.4 57.55 39.2 58.9 36.75 59.2 Q28.3 60.2 24.0 56.45 L22.95 55.5 Q19.4 52.1 16.85 48.1 L14.75 44.25 15.05 46.55 Q15.6 49.3 16.45 51.85 18.75 58.4 22.95 61.45 23.95 62.15 25.1 62.7 30.9 65.45 32.65 66.7 33.55 67.3 33.25 67.35 L25.95 66.85 22.95 66.3 Q17.6 65.05 15.6 62.45 12.55 58.65 9.05 47.6 12.2 59.85 9.3 63.55 L7.55 64.95 Q5.9 65.75 6.6 63.0 7.45 59.65 6.5 54.8 5.45 49.8 3.05 46.4 L0.0 42.9 Q0.0 37.65 0.9 37.65 2.5 37.65 4.7 38.5 L6.05 38.4 9.85 38.25 13.75 38.7 15.8 39.3 18.35 39.75 22.1 39.6 22.95 39.4 24.7 38.9 27.25 39.05 32.15 39.3 30.15 38.0 29.3 37.15 Q28.6 36.2 29.2 35.5 32.0 30.25 32.65 25.8 33.35 20.75 31.6 15.7 L30.15 12.35 28.7 9.05 Q27.6 6.05 28.25 2.8 28.9 -1.05 31.85 0.35 35.6 2.1 39.2 5.45 L40.05 6.25 Q43.8 10.0 45.35 14.05" fill="#ffffff" fill-opacity="0.09803922" fill-rule="evenodd" stroke="none"/>
    <path d="M0.0 42.9 L0.0 44.7 0.15 48.25 0.85 56.7 Q1.3 64.95 0.6 68.7 -0.1 72.45 1.55 74.05 2.35 74.95 3.3 75.0 6.25 76.5 20.7 73.45 L22.95 72.95 34.6 70.05 Q37.05 69.45 39.2 67.95 41.8 66.05 43.9 62.8 47.35 57.5 49.05 48.85 51.4 36.95 45.5 14.55 L45.35 14.0 M45.35 14.05 Q43.8 10.0 40.05 6.25 L39.2 5.45 Q35.6 2.1 31.85 0.35 28.9 -1.05 28.25 2.8 27.6 6.05 28.7 9.05 L30.15 12.35 31.6 15.7 Q33.35 20.75 32.65 25.8 32.0 30.25 29.2 35.5 28.6 36.2 29.3 37.15 L30.15 38.0 32.15 39.3 27.25 39.05 24.7 38.9 22.95 39.4 22.1 39.6 18.35 39.75 15.8 39.3 13.75 38.7 9.85 38.25 6.05 38.4 4.7 38.5 Q2.5 37.65 0.9 37.65 0.0 37.65 0.0 42.9 Z" fill="none" stroke="#000000" stroke-linecap="butt" stroke-linejoin="miter-clip" stroke-miterlimit="4.0" stroke-width="1.0"/>
  </g>
</svg>
