<?xml version="1.0" encoding="UTF-8" standalone="no"?>
<svg xmlns:xlink="http://www.w3.org/1999/xlink" height="26.85px" width="28.35px" xmlns="http://www.w3.org/2000/svg">
  <g transform="matrix(1.0, 0.0, 0.0, 1.0, 0.0, 0.0)">
    <path d="M26.3 5.45 L26.3 5.4 26.55 4.8 26.75 5.4 Q27.05 7.35 26.3 8.3 L25.8 9.1 Q25.7 9.1 25.65 9.2 L25.55 9.3 25.55 9.4 25.75 9.7 25.8 10.0 25.85 9.85 25.9 9.7 26.2 9.4 26.2 9.35 26.05 9.15 26.2 8.85 Q26.4 8.5 26.5 8.75 L26.55 8.8 26.85 8.35 26.9 8.25 Q27.1 7.7 27.25 8.0 L27.25 8.8 26.85 9.85 26.85 11.3 26.85 11.35 27.45 10.5 27.65 10.25 Q27.9 9.65 27.9 10.1 L27.85 10.95 Q27.6 12.65 26.8 13.3 L26.1 14.1 26.45 13.8 26.55 13.7 Q27.2 13.15 27.95 13.1 28.45 13.1 28.35 13.3 L28.0 13.7 Q27.65 14.65 26.65 15.1 25.95 15.4 25.65 15.85 L25.55 16.1 26.25 15.65 27.05 15.15 Q27.35 14.8 27.35 15.1 L27.15 15.95 28.15 15.9 Q28.45 15.8 28.3 16.1 L27.6 16.6 Q26.2 17.25 25.95 17.4 L25.6 17.6 Q25.2 17.85 24.95 18.1 25.4 17.8 25.95 17.7 L27.45 17.4 Q28.0 17.1 27.9 17.4 L27.65 17.9 27.6 17.9 Q26.3 19.2 25.25 19.2 24.45 19.2 23.95 19.5 L24.0 19.3 Q24.0 18.95 23.65 18.95 L23.55 19.0 23.4 17.85 Q23.15 16.95 23.35 16.3 L23.6 15.3 23.7 14.55 24.05 14.95 24.2 15.25 24.3 15.4 24.05 14.35 Q23.7 12.7 24.5 13.65 25.2 14.45 25.3 15.15 L25.3 15.25 25.3 15.8 25.45 15.35 25.4 15.35 25.45 15.25 Q25.55 14.3 25.0 13.8 24.25 13.1 24.05 11.75 L24.05 11.7 24.0 11.1 Q24.05 11.0 24.7 11.4 L24.75 11.45 24.4 10.35 23.35 9.55 23.1 8.85 Q22.25 8.15 22.1 7.0 22.0 6.25 22.2 6.25 L22.85 6.95 23.25 7.25 22.65 6.15 22.5 5.4 22.45 5.35 24.3 3.5 24.4 4.25 24.4 5.5 24.4 5.0 24.7 3.35 24.7 3.25 24.7 3.1 Q24.7 2.7 24.95 2.9 L25.35 3.4 Q25.8 4.2 25.55 5.55 L25.35 6.7 25.25 7.55 25.25 7.7 25.25 7.85 25.3 8.0 Q25.3 7.0 25.65 6.45 L26.3 5.45 M21.6 1.95 L22.1 1.95 Q23.4 2.4 23.65 3.3 L23.65 3.15 23.6 2.9 Q23.5 2.1 24.15 3.2 L24.25 3.3 22.2 5.2 21.2 3.9 Q20.8 2.55 21.35 3.25 21.4 3.35 22.55 3.85 L22.3 3.35 21.85 2.4 21.6 1.95 M23.65 5.85 L23.45 5.75 23.35 5.7 22.75 5.5 22.95 5.75 23.05 5.85 23.1 5.9 24.0 6.55 24.05 6.6 24.25 6.7 24.55 6.9 24.35 6.6 24.45 6.55 24.55 6.35 24.55 6.3 24.4 6.05 24.2 6.0 Q24.05 6.0 24.0 6.1 L23.95 6.1 23.65 5.85 M22.15 12.15 L22.15 12.5 Q22.15 16.2 20.7 18.9 L20.05 19.95 19.75 20.35 19.7 20.6 19.5 21.5 19.1 21.25 19.0 21.2 18.9 21.3 18.8 21.45 18.95 21.5 19.05 21.5 19.45 21.7 19.0 22.5 18.95 22.35 18.85 22.35 18.75 22.25 18.7 22.05 18.55 22.05 18.5 22.0 18.45 22.0 18.45 21.85 18.25 22.1 18.2 22.1 18.25 22.15 18.3 22.3 18.35 22.35 18.5 22.4 18.55 22.6 18.75 22.7 18.8 22.8 18.3 23.25 18.85 22.9 19.05 23.0 19.05 22.95 19.15 23.2 19.3 23.3 19.35 23.25 20.0 23.0 20.2 22.9 20.75 22.7 20.7 22.7 20.05 22.9 20.1 22.8 Q20.2 22.35 19.9 21.9 L19.7 21.65 19.55 21.5 Q19.75 20.8 20.2 20.25 L21.45 22.55 Q22.35 22.4 22.9 22.55 L23.75 22.9 23.8 22.95 23.3 23.35 23.25 23.4 22.15 23.8 20.55 23.95 21.3 24.35 21.65 24.75 21.25 24.8 21.1 24.8 19.6 24.9 19.15 24.95 20.55 25.8 20.95 26.05 Q20.95 26.25 20.4 26.25 18.75 26.4 17.2 25.45 L16.3 25.0 15.6 26.25 15.6 26.4 15.55 26.35 15.3 26.85 15.45 26.25 14.2 25.35 Q13.3 25.8 12.75 26.4 L12.7 25.6 13.4 25.0 12.85 24.85 Q12.15 24.85 11.2 25.45 9.6 26.4 7.95 26.25 7.45 26.25 7.45 26.05 L7.8 25.8 9.2 24.95 8.75 24.9 7.3 24.8 7.15 24.8 6.7 24.75 7.05 24.35 7.85 23.95 6.2 23.8 5.15 23.4 5.05 23.35 4.6 22.9 Q4.7 22.8 5.45 22.55 6.05 22.35 6.9 22.55 L8.15 20.25 8.2 20.25 8.8 21.5 8.8 21.55 8.65 21.65 8.45 21.9 Q8.15 22.3 8.25 22.8 L8.3 22.9 7.65 22.7 8.35 22.95 8.4 23.0 9.0 23.25 9.1 23.3 9.2 23.2 9.3 23.05 9.3 23.0 9.5 22.9 10.05 23.25 9.6 22.8 9.6 22.75 9.65 22.7 9.8 22.6 9.85 22.45 9.9 22.4 10.05 22.35 10.1 22.3 10.15 22.15 10.4 21.9 10.6 22.05 10.7 22.35 11.1 23.15 10.95 23.1 Q10.6 23.1 10.6 23.4 10.6 23.7 10.95 23.7 L11.25 23.4 11.25 23.35 Q11.5 23.65 11.9 23.8 L10.95 22.65 10.7 22.1 10.95 22.15 11.1 22.0 11.1 21.95 11.05 21.85 10.85 21.75 10.6 21.7 10.7 21.55 10.95 21.35 11.1 21.15 11.55 21.65 12.3 23.05 12.75 23.9 13.25 24.25 16.5 21.7 17.15 21.05 17.4 20.8 17.45 20.75 17.65 20.4 17.7 20.45 18.9 18.9 19.2 18.4 19.75 17.3 Q19.55 17.6 19.2 17.6 L19.6 17.0 18.9 17.55 18.85 17.55 18.95 17.45 19.0 17.4 18.6 17.75 18.4 17.85 18.55 17.7 19.1 16.8 19.25 16.6 Q20.3 14.8 20.6 13.1 L20.6 12.9 20.65 12.75 Q20.95 9.95 19.15 7.45 L18.85 7.05 18.4 6.5 18.15 7.1 17.9 6.0 17.6 6.65 17.6 6.4 17.4 5.9 17.0 5.7 16.65 5.6 16.45 5.6 16.35 5.6 16.3 5.55 16.3 5.6 16.0 5.65 15.95 5.5 15.65 4.8 Q14.3 4.7 13.9 4.0 L13.35 3.65 13.15 3.3 Q13.0 2.85 13.25 2.25 L13.3 2.1 13.3 1.95 13.15 1.6 Q12.8 1.05 13.15 0.55 13.55 -0.1 14.45 0.05 15.15 0.2 15.2 1.0 L15.3 1.8 15.55 2.0 16.65 2.85 Q17.35 3.3 18.1 4.1 L19.8 6.1 20.1 6.5 20.65 7.4 Q22.0 9.75 22.15 12.05 L22.15 12.15 M25.7 11.9 L25.7 12.0 26.0 12.2 26.05 12.2 26.3 11.9 26.15 11.65 26.0 11.6 Q25.7 11.6 25.7 11.9 M22.65 17.15 L23.0 16.6 23.05 17.1 23.4 18.2 23.4 18.25 23.45 18.5 23.45 19.05 23.35 19.3 23.05 20.05 23.15 19.9 23.45 19.55 23.65 19.6 23.8 19.6 23.65 19.7 24.15 19.6 24.3 19.55 25.3 19.45 25.15 19.9 Q24.35 20.9 23.55 21.25 L23.75 21.25 24.4 21.35 Q25.2 21.5 24.4 21.75 L23.9 22.05 22.6 20.55 22.6 20.5 22.5 20.45 22.6 20.2 22.65 20.05 22.6 19.65 22.6 19.55 22.5 19.65 22.25 20.15 21.75 19.55 22.25 19.15 22.5 19.0 Q22.3 18.0 22.65 17.25 L22.65 17.15 M21.55 19.35 L21.15 19.05 21.15 19.0 Q21.4 18.4 21.55 18.55 L21.6 19.3 21.6 19.4 21.55 19.35 M13.5 1.05 L13.65 1.2 13.8 1.05 13.65 0.9 Q13.5 0.9 13.5 1.05 M6.75 1.95 L6.5 2.4 6.05 3.35 5.8 3.85 7.0 3.25 Q7.55 2.55 7.15 3.9 L6.2 5.2 4.15 3.3 4.2 3.2 Q4.45 2.75 4.65 2.65 4.85 2.45 4.75 2.9 L4.75 3.1 4.75 3.25 Q5.0 2.35 6.3 1.95 L6.75 1.95 M5.6 5.5 L5.0 5.7 4.9 5.75 4.75 5.8 4.4 6.1 4.35 6.05 4.15 6.0 3.95 6.05 Q3.8 6.1 3.8 6.3 L3.8 6.35 3.9 6.55 4.0 6.6 3.75 7.0 4.1 6.7 4.3 6.6 4.4 6.55 5.25 5.9 5.4 5.75 5.6 5.5 M5.9 5.4 L5.7 6.15 5.15 7.25 5.5 6.95 6.15 6.25 6.25 7.0 Q6.15 8.15 5.3 8.8 L5.0 9.55 3.95 10.35 3.6 11.45 3.65 11.4 Q4.3 11.0 4.35 11.1 L4.3 11.7 4.3 11.75 Q4.1 13.1 3.35 13.8 2.8 14.3 2.95 15.2 L2.95 15.25 3.05 15.7 3.05 15.15 Q3.15 14.45 3.85 13.65 4.65 12.75 4.3 14.35 L4.1 15.35 4.15 15.25 4.3 14.95 4.65 14.55 4.75 15.3 5.0 16.3 4.95 17.85 Q4.75 18.45 4.85 19.0 L4.7 18.95 Q4.35 18.95 4.35 19.3 L4.4 19.5 3.15 19.2 Q2.05 19.2 0.75 17.9 L0.45 17.4 Q0.35 17.1 0.9 17.4 L2.4 17.7 2.5 17.75 2.85 17.85 Q3.15 17.9 3.45 18.1 L2.75 17.6 2.45 17.4 0.75 16.6 Q0.2 16.4 0.05 16.1 -0.1 15.8 0.2 15.9 L1.25 15.95 1.0 15.1 1.35 15.15 2.1 15.65 2.5 15.85 2.8 16.05 2.75 15.85 Q2.4 15.4 1.7 15.1 0.7 14.65 0.35 13.7 L0.0 13.3 Q-0.1 13.1 0.4 13.1 1.15 13.15 1.8 13.7 L2.3 14.2 1.55 13.3 Q0.75 12.65 0.5 10.95 L0.45 10.1 Q0.45 9.65 0.7 10.25 L0.9 10.55 1.5 11.35 1.5 11.3 Q1.35 10.45 1.55 9.85 L1.1 8.8 Q1.0 8.25 1.15 8.0 1.25 7.7 1.45 8.25 L1.5 8.35 1.9 8.85 1.9 8.75 Q2.0 8.5 2.15 8.85 L2.3 9.15 2.15 9.35 2.15 9.4 Q2.15 9.7 2.5 9.7 L2.5 9.75 2.5 9.8 2.55 10.0 2.6 9.7 2.8 9.4 2.75 9.2 2.55 9.1 2.05 8.3 Q1.3 7.35 1.6 5.4 L1.8 4.8 2.05 5.4 2.7 6.45 3.1 7.95 3.15 7.7 3.15 7.55 2.85 5.55 Q2.55 4.2 3.05 3.4 L3.45 2.9 3.65 3.1 3.65 3.25 3.65 3.35 3.95 5.0 3.95 5.65 4.05 5.5 4.0 4.25 Q3.95 3.85 4.05 3.5 L5.9 5.35 5.9 5.4 M2.35 12.2 L2.65 11.9 2.35 11.6 2.2 11.65 Q2.05 11.7 2.05 11.9 L2.1 12.05 2.15 12.15 2.35 12.2 M5.35 16.6 L5.7 17.15 5.75 17.25 Q6.05 18.0 5.9 19.05 L6.1 19.15 6.65 19.6 6.1 20.2 5.85 19.65 5.8 19.55 5.75 19.8 5.85 20.45 5.85 20.5 4.5 22.05 4.0 21.75 Q3.2 21.5 4.0 21.35 L4.6 21.25 4.85 21.25 3.2 19.9 Q2.85 19.45 3.05 19.45 L4.05 19.55 4.25 19.6 4.7 19.7 4.6 19.6 4.7 19.6 4.95 19.55 5.2 19.9 5.35 20.05 5.0 19.35 5.0 19.3 5.0 19.2 5.0 19.1 4.95 19.05 4.9 18.5 4.95 18.25 4.95 18.2 Q5.4 17.4 5.3 17.1 5.25 16.6 5.35 16.6 M8.65 20.6 L8.65 20.3 Q8.6 19.8 8.7 19.75 L9.2 20.3 9.9 21.05 10.3 21.5 10.1 21.35 9.45 21.2 9.3 21.25 8.85 21.5 8.65 20.6 M9.45 21.45 Q9.85 21.35 10.15 21.7 L9.95 21.8 9.9 22.0 9.85 22.05 9.7 22.05 9.6 22.3 9.4 22.35 9.35 22.5 8.95 21.7 9.3 21.5 9.45 21.45 M7.2 19.1 L6.85 19.35 6.8 19.45 6.75 19.3 Q6.7 18.7 6.8 18.55 L7.2 19.0 7.25 19.05 7.2 19.1 M9.05 22.85 L9.0 22.85 8.55 22.8 Q8.3 22.55 8.5 22.2 L8.9 21.75 9.25 22.6 9.1 22.7 9.05 22.85 M10.5 21.3 L10.5 20.8 10.7 20.4 10.95 20.8 10.5 21.3 M17.15 23.6 L17.45 23.7 17.75 23.4 17.45 23.1 17.15 23.6 M13.5 24.3 L14.2 24.6 15.1 24.25 15.6 23.9 16.05 23.05 16.1 23.0 Q14.7 23.95 13.5 24.3 M19.25 22.7 L19.1 22.6 19.5 21.75 19.85 22.2 Q20.1 22.55 19.85 22.8 L19.35 22.85 19.25 22.7 M15.85 24.9 L15.55 24.85 15.5 24.85 15.0 25.0 15.65 25.6 15.85 24.9" fill="#ffffff" fill-opacity="0.0" fill-rule="evenodd" stroke="none"/>
  </g>
</svg>
