<?xml version="1.0" encoding="UTF-8" standalone="no"?>
<svg xmlns:xlink="http://www.w3.org/1999/xlink" height="610.95px" width="420.7px" xmlns="http://www.w3.org/2000/svg">
  <g transform="matrix(1.0, 0.0, 0.0, 1.0, 209.6, 305.45)">
    <path d="M209.1 -252.05 L208.25 -251.9 208.25 -252.05 209.1 -252.05" fill="#595959" fill-rule="evenodd" stroke="none"/>
    <path d="M209.1 -252.05 L208.25 -252.05 208.25 -251.9 208.25 305.0 155.4 305.0 155.2 -161.65 155.2 -169.35 17.2 -252.05 -209.1 -252.05 -209.1 -304.95 209.1 -304.95 209.1 -252.05 M55.55 -252.05 L67.05 -244.9 148.75 -193.95 Q152.1 -191.85 155.4 -189.8 L155.2 -169.35 155.4 -189.8 155.4 -252.0 155.4 -252.05 55.55 -252.05 17.2 -252.05 55.55 -252.05 M155.4 -252.05 L208.25 -252.05 155.4 -252.05" fill="#ffffff" fill-opacity="0.0" fill-rule="evenodd" stroke="none"/>
    <path d="M155.4 305.0 L148.75 293.95 148.75 -165.6 16.9 -244.9 -177.4 -244.9 -209.1 -252.05 17.2 -252.05 16.9 -244.9 17.2 -252.05 155.2 -169.35 155.2 -161.65 148.75 -165.6 155.2 -161.65 155.4 305.0 M67.05 -244.9 L55.55 -252.05 155.4 -252.05 155.4 -252.0 148.75 -244.8 155.4 -252.0 155.4 -189.8 Q152.1 -191.85 148.75 -193.95 L148.75 -244.8 67.05 -244.9" fill="#000000" fill-opacity="0.4" fill-rule="evenodd" stroke="none"/>
    <path d="M208.25 -251.9 L209.1 -252.05 208.25 -252.05 208.25 -251.9 208.25 305.0 155.4 305.0 148.75 293.95 148.75 -165.6 16.9 -244.9 -177.4 -244.9 -209.1 -252.05 -209.1 -304.95 209.1 -304.95 209.1 -252.05 M148.75 -193.95 L67.05 -244.9 148.75 -244.8 148.75 -193.95 M155.4 -252.0 L155.4 -252.05" fill="none" stroke="#000000" stroke-linecap="round" stroke-linejoin="miter-clip" stroke-miterlimit="4.0" stroke-width="1.0"/>
    <path d="M16.9 -244.9 L17.2 -252.05 -209.1 -252.05 M67.05 -244.9 L55.55 -252.05 17.2 -252.05 155.2 -169.35 155.4 -189.8 Q152.1 -191.85 148.75 -193.95 M148.75 -244.8 L155.4 -252.0 155.4 -189.8 M155.4 -252.05 L55.55 -252.05 M148.75 -165.6 L155.2 -161.65 155.2 -169.35 M208.25 -252.05 L155.4 -252.05 M155.4 305.0 L155.2 -161.65" fill="none" stroke="#000000" stroke-linecap="round" stroke-linejoin="miter-clip" stroke-miterlimit="4.0" stroke-opacity="0.6" stroke-width="1.0"/>
  </g>
</svg>
