<?xml version="1.0" encoding="UTF-8" standalone="no"?>
<svg xmlns:xlink="http://www.w3.org/1999/xlink" height="159.35px" width="819.75px" xmlns="http://www.w3.org/2000/svg">
  <g transform="matrix(1.0, 0.0, 0.0, 1.0, 659.1, 71.75)">
    <path d="M45.3 48.6 L45.6 5.0 10.3 4.65 11.65 49.25 45.3 48.6 M45.6 -47.6 L9.0 -47.6 10.3 -5.65 45.6 -5.35 45.6 -47.6 M-59.25 -71.25 L59.25 -69.9 58.95 68.25 -55.25 71.25 -59.25 -71.25 M-41.95 50.95 L-1.0 49.6 -2.35 4.65 -42.95 4.65 -41.95 50.95 M-44.25 -47.6 L-43.25 -5.65 -2.65 -5.65 -3.65 -47.6 -44.25 -47.6" fill="#000000" fill-opacity="0.2" fill-rule="evenodd" stroke="none"/>
    <path d="M-59.25 -71.25 L-55.25 71.25 58.95 68.25 59.25 -69.9 -59.25 -71.25" fill="none" stroke="#000000" stroke-linecap="butt" stroke-linejoin="miter-clip" stroke-miterlimit="10.0" stroke-width="1.0"/>
    <path d="M45.6 -47.6 L45.6 -5.35 10.3 -5.65 9.0 -47.6 45.6 -47.6 M45.3 48.6 L11.65 49.25 10.3 4.65 45.6 5.0 45.3 48.6 M-44.25 -47.6 L-3.65 -47.6 -2.65 -5.65 -43.25 -5.65 -44.25 -47.6 M-41.95 50.95 L-42.95 4.65 -2.35 4.65 -1.0 49.6 -41.95 50.95" fill="none" stroke="#000000" stroke-linecap="butt" stroke-linejoin="miter-clip" stroke-miterlimit="10.0" stroke-opacity="0.6" stroke-width="1.0"/>
  </g>
</svg>
