<?xml version="1.0" encoding="UTF-8" standalone="no"?>
<svg xmlns:xlink="http://www.w3.org/1999/xlink" height="23.15px" width="8.0px" xmlns="http://www.w3.org/2000/svg">
  <g transform="matrix(1.0, 0.0, 0.0, 1.0, 2.8, 11.6)">
    <path d="M2.15 8.75 Q2.15 9.75 1.5 10.4 0.9 11.05 0.0 11.05 -0.9 11.05 -1.45 10.4 -2.1 9.65 -2.1 8.75 L-2.1 -8.8 Q-2.1 -9.75 -1.45 -10.4 -0.9 -11.1 0.0 -11.1 0.9 -11.1 1.5 -10.4 2.15 -9.75 2.15 -8.8 L2.15 8.75" fill="#000000" fill-opacity="0.09803922" fill-rule="evenodd" stroke="none"/>
    <path d="M2.15 8.75 Q2.15 9.75 1.5 10.4 0.9 11.05 0.0 11.05 -0.9 11.05 -1.45 10.4 -2.1 9.65 -2.1 8.75 L-2.1 -8.8 Q-2.1 -9.75 -1.45 -10.4 -0.9 -11.1 0.0 -11.1 0.9 -11.1 1.5 -10.4 2.15 -9.75 2.15 -8.8 L2.15 8.75 Z" fill="none" stroke="#000000" stroke-linecap="butt" stroke-linejoin="miter-clip" stroke-miterlimit="10.0" stroke-opacity="0.6" stroke-width="1.0"/>
  </g>
</svg>
