<?xml version="1.0" encoding="UTF-8" standalone="no"?>
<svg xmlns:xlink="http://www.w3.org/1999/xlink" height="170.35px" width="23.35px" xmlns="http://www.w3.org/2000/svg">
  <g transform="matrix(1.0, 0.0, 0.0, 1.0, 10.8, 80.95)">
    <path d="M-0.7 -50.0 Q-4.1 -50.35 -6.65 -52.9 -9.65 -55.85 -9.65 -60.05 -9.65 -64.2 -6.65 -67.2 L-5.6 -68.1 -5.6 -75.25 -1.0 -75.25 -1.0 -78.6 Q-1.0 -79.35 -0.4 -79.85 0.1 -80.45 0.85 -80.45 1.65 -80.45 2.15 -79.85 2.7 -79.35 2.7 -78.6 L2.7 -75.25 7.0 -75.25 7.0 -67.75 7.6 -67.2 Q10.6 -64.2 10.6 -60.05 10.6 -55.85 7.6 -52.9 5.3 -50.6 2.2 -50.05 L2.2 -53.75 Q3.8 -54.2 5.05 -55.45 6.95 -57.35 6.95 -60.05 6.95 -62.75 5.05 -64.6 L3.5 -65.8 2.7 -65.8 2.7 -63.85 Q2.7 -63.1 2.15 -62.55 1.65 -62.0 0.85 -62.0 0.1 -62.0 -0.4 -62.55 -1.0 -63.1 -1.0 -63.85 L-1.0 -65.8 -2.55 -65.8 Q-3.4 -65.35 -4.1 -64.6 -6.0 -62.75 -6.0 -60.05 -6.0 -57.35 -4.1 -55.45 -2.65 -53.95 -0.7 -53.65 L-0.7 -50.0 M2.7 -66.15 L3.5 -65.8 2.7 -66.15 2.7 -65.8 2.7 -66.15 2.7 -69.9 Q5.1 -69.4 7.0 -67.75 5.1 -69.4 2.7 -69.9 L2.7 -66.15 M-1.0 -75.25 L-1.0 -70.05 -1.0 -66.4 -1.0 -65.8 -1.0 -66.4 -2.55 -65.8 -1.0 -66.4 -1.0 -70.05 Q-3.55 -69.7 -5.6 -68.1 -3.55 -69.7 -1.0 -70.05 L-1.0 -75.25 M2.7 -69.9 L2.7 -75.25 2.7 -69.9 M-7.3 68.65 Q-9.55 65.95 -9.55 62.35 -9.55 58.15 -6.55 55.15 -4.05 52.65 -0.7 52.3 L-0.7 55.95 Q-2.6 56.25 -4.0 57.75 -5.9 59.65 -5.9 62.35 -5.9 64.45 -4.7 66.1 L-4.4 65.85 4.4 65.85 5.05 67.0 5.15 66.9 6.45 65.1 Q7.05 63.85 7.05 62.35 7.05 59.65 5.15 57.75 3.85 56.45 2.2 56.0 L2.2 52.35 Q5.35 52.8 7.7 55.15 10.7 58.15 10.7 62.35 10.7 65.45 9.05 67.9 11.4 71.35 11.9 75.95 12.45 80.8 10.95 83.6 10.15 84.95 9.3 85.4 L1.4 85.3 1.75 86.8 0.0 87.2 -8.75 87.2 Q-10.05 83.55 -10.2 79.05 -10.35 72.65 -7.3 68.65 -6.2 67.2 -4.7 66.1 -6.2 67.2 -7.3 68.65 M1.05 83.3 L0.7 79.65 1.05 83.3 8.75 83.3 Q10.85 76.75 8.45 71.7 L7.4 69.85 Q4.85 72.1 1.5 72.35 L1.95 71.15 Q2.75 69.25 3.9 67.95 L4.0 67.85 Q4.6 67.25 5.05 67.0 4.6 67.25 4.0 67.85 L3.9 67.95 Q2.75 69.25 1.95 71.15 L1.5 72.35 Q4.85 72.1 7.4 69.85 L7.7 69.5 9.05 67.9 7.7 69.5 7.4 69.85 8.45 71.7 Q10.85 76.75 8.75 83.3 L1.05 83.3 1.4 85.3 1.05 83.3 M0.0 87.2 L-0.7 84.45 Q-1.35 80.7 -1.2 75.45 L-0.85 72.35 -0.85 72.3 Q-0.4 70.25 0.6 68.8 L1.65 67.5 Q3.0 66.15 4.4 65.85 3.0 66.15 1.65 67.5 L0.6 68.8 Q-0.4 70.25 -0.85 72.3 L-0.85 72.35 -1.2 75.45 Q-1.35 80.7 -0.7 84.45 L0.0 87.2 M0.7 77.3 L0.7 79.65 0.7 78.25 0.7 77.3 Q0.8 74.6 1.5 72.35 0.8 74.6 0.7 77.3" fill="#000000" fill-opacity="0.29803923" fill-rule="evenodd" stroke="none"/>
    <path d="M-0.7 -50.0 Q-4.1 -50.35 -6.65 -52.9 -9.65 -55.85 -9.65 -60.05 -9.65 -64.2 -6.65 -67.2 L-5.6 -68.1 -5.6 -75.25 -1.0 -75.25 -1.0 -78.6 Q-1.0 -79.35 -0.4 -79.85 0.1 -80.45 0.85 -80.45 1.65 -80.45 2.15 -79.85 2.7 -79.35 2.7 -78.6 L2.7 -75.25 7.0 -75.25 7.0 -67.75 7.6 -67.2 Q10.6 -64.2 10.6 -60.05 10.6 -55.85 7.6 -52.9 5.3 -50.6 2.2 -50.05 M2.7 -75.25 L2.7 -69.9 M-1.0 -65.8 L-1.0 -66.4 -2.55 -65.8 M-1.0 -66.4 L-1.0 -70.05 Q-3.55 -69.7 -5.6 -68.1 M-1.0 -70.05 L-1.0 -75.25 M-0.7 52.3 Q-4.05 52.65 -6.55 55.15 -9.55 58.15 -9.55 62.35 -9.55 65.95 -7.3 68.65 -6.2 67.2 -4.7 66.1 -5.9 64.45 -5.9 62.35 -5.9 59.65 -4.0 57.75 -2.6 56.25 -0.7 55.95 M-4.7 66.1 L-4.4 65.85 4.4 65.85 5.05 67.0 5.15 66.9 6.45 65.1 Q7.05 63.85 7.05 62.35 7.05 59.65 5.15 57.75 3.85 56.45 2.2 56.0 M2.2 52.35 Q5.35 52.8 7.7 55.15 10.7 58.15 10.7 62.35 10.7 65.45 9.05 67.9 11.4 71.35 11.9 75.95 12.45 80.8 10.95 83.6 10.15 84.95 9.3 85.4 L1.4 85.3 1.75 86.8 0.0 87.2 -8.75 87.2 Q-10.05 83.55 -10.2 79.05 -10.35 72.65 -7.3 68.65 M4.4 65.85 Q3.0 66.15 1.65 67.5 L0.6 68.8 Q-0.4 70.25 -0.85 72.3 L-0.85 72.35 -1.2 75.45 Q-1.35 80.7 -0.7 84.45 L0.0 87.2 M5.05 67.0 Q4.6 67.25 4.0 67.85 L3.9 67.95 Q2.75 69.25 1.95 71.15 L1.5 72.35 Q4.85 72.1 7.4 69.85 L7.7 69.5 9.05 67.9 M7.4 69.85 L8.45 71.7 Q10.85 76.75 8.75 83.3 L1.05 83.3 1.4 85.3 M0.7 79.65 L1.05 83.3 M0.7 77.3 L0.7 79.65 0.7 78.25 0.7 77.3 Q0.8 74.6 1.5 72.35" fill="none" stroke="#000000" stroke-linecap="butt" stroke-linejoin="miter-clip" stroke-miterlimit="10.0" stroke-opacity="0.6" stroke-width="1.0"/>
    <path d="M2.2 -53.75 Q3.8 -54.2 5.05 -55.45 6.95 -57.35 6.95 -60.05 6.95 -62.75 5.05 -64.6 L3.5 -65.8 M7.0 -67.75 Q5.1 -69.4 2.7 -69.9 L2.7 -66.15" fill="none" stroke="#000000" stroke-linecap="butt" stroke-linejoin="miter-clip" stroke-miterlimit="10.0" stroke-opacity="0.6" stroke-width="1.0"/>
    <path d="M3.5 -65.8 L2.7 -65.8 2.7 -66.15 3.5 -65.8" fill="none" stroke="#000000" stroke-linecap="round" stroke-linejoin="miter-clip" stroke-miterlimit="10.0" stroke-opacity="0.6" stroke-width="1.0"/>
    <path d="M2.7 -65.8 L2.7 -63.85 Q2.7 -63.1 2.15 -62.55 1.65 -62.0 0.85 -62.0 0.1 -62.0 -0.4 -62.55 -1.0 -63.1 -1.0 -63.85 L-1.0 -65.8 -2.55 -65.8 Q-3.4 -65.35 -4.1 -64.6 -6.0 -62.75 -6.0 -60.05 -6.0 -57.35 -4.1 -55.45 -2.65 -53.95 -0.7 -53.65" fill="none" stroke="#000000" stroke-linecap="round" stroke-linejoin="miter-clip" stroke-miterlimit="10.0" stroke-opacity="0.6" stroke-width="1.0"/>
  </g>
</svg>
