<?xml version="1.0" encoding="UTF-8" standalone="no"?>
<svg xmlns:xlink="http://www.w3.org/1999/xlink" height="488.0px" width="973.95px" xmlns="http://www.w3.org/2000/svg">
  <g transform="matrix(1.0, 0.0, 0.0, 1.0, 486.95, 244.0)">
    <path d="M-144.05 -204.0 L-113.1 -243.5 81.5 -243.5 151.4 -161.35 243.1 -53.6 307.2 21.75 390.45 119.6 486.5 232.55 485.9 232.55 -486.45 232.55 -397.7 119.45 -321.1 21.75 -262.1 -53.5 -218.85 -108.65 -177.5 -161.35 151.4 -161.35 -177.5 -161.35 -144.05 -204.0 114.7 -204.0 -144.05 -204.0 M195.05 -108.65 L-218.85 -108.65 195.05 -108.65 M-397.7 119.45 L390.45 119.6 -397.7 119.45 M-321.1 21.75 L307.2 21.75 -321.1 21.75 M-262.1 -53.5 L243.1 -53.6 -262.1 -53.5" fill="#ffffff" fill-opacity="0.0" fill-rule="evenodd" stroke="none"/>
    <path d="M485.9 232.55 L485.9 243.5 -486.45 243.5 -486.45 232.55 485.9 232.55" fill="#000000" fill-opacity="0.4" fill-rule="evenodd" stroke="none"/>
    <path d="M151.4 -161.35 L81.5 -243.5 -113.1 -243.5 -144.05 -204.0 -177.5 -161.35 -218.85 -108.65 -262.1 -53.5 -321.1 21.75 -397.7 119.45 -486.45 232.55 M243.1 -53.6 L151.4 -161.35 M485.9 232.55 L486.5 232.55 390.45 119.6 307.2 21.75 243.1 -53.6" fill="none" stroke="#000000" stroke-linecap="round" stroke-linejoin="round" stroke-width="1.0"/>
    <path d="M-144.05 -204.0 L114.7 -204.0 M151.4 -161.35 L-177.5 -161.35 M-218.85 -108.65 L195.05 -108.65 M485.9 232.55 L485.9 243.5 -486.45 243.5 -486.45 232.55 485.9 232.55 M390.45 119.6 L-397.7 119.45 M307.2 21.75 L-321.1 21.75 M243.1 -53.6 L-262.1 -53.5" fill="none" stroke="#000000" stroke-linecap="round" stroke-linejoin="miter-clip" stroke-miterlimit="4.0" stroke-opacity="0.6" stroke-width="1.0"/>
    <path d="M390.45 119.6 L390.9 119.6 M307.2 21.75 L308.05 21.75" fill="none" stroke="#000000" stroke-linecap="round" stroke-linejoin="miter-clip" stroke-miterlimit="4.0" stroke-width="1.0"/>
  </g>
</svg>
