<?xml version="1.0" encoding="UTF-8" standalone="no"?>
<svg xmlns:xlink="http://www.w3.org/1999/xlink" height="209.6px" width="113.2px" xmlns="http://www.w3.org/2000/svg">
  <g transform="matrix(1.0, 0.0, 0.0, 1.0, 56.6, 104.8)">
    <path d="M-56.1 90.9 Q-26.3 92.35 -2.8 92.15 36.2 91.75 42.2 86.5 49.35 80.25 46.65 -2.75 45.65 -32.85 43.75 -60.85 41.95 -87.2 40.85 -89.95 39.15 -94.25 -8.65 -99.7 L-56.1 -104.3 56.1 -104.3 56.1 102.25 -56.1 104.3 -56.1 90.9" fill="#000000" fill-opacity="0.29803923" fill-rule="evenodd" stroke="none"/>
    <path d="M-56.1 -104.3 L-8.65 -99.7 Q39.15 -94.25 40.85 -89.95 41.95 -87.2 43.75 -60.85 45.65 -32.85 46.65 -2.75 49.35 80.25 42.2 86.5 36.2 91.75 -2.8 92.15 -26.3 92.35 -56.1 90.9 L-56.1 -104.3" fill="#ffffff" fill-opacity="0.0" fill-rule="evenodd" stroke="none"/>
    <path d="M-56.1 90.9 L-56.1 104.3 56.1 102.25 56.1 -104.3 -56.1 -104.3 -56.1 90.9 Z" fill="none" stroke="#000000" stroke-linecap="butt" stroke-linejoin="miter-clip" stroke-miterlimit="4.0" stroke-opacity="0.6" stroke-width="1.0"/>
  </g>
</svg>
