<?xml version="1.0" encoding="UTF-8" standalone="no"?>
<svg xmlns:xlink="http://www.w3.org/1999/xlink" height="443.25px" width="349.45px" xmlns="http://www.w3.org/2000/svg">
  <g transform="matrix(1.0, 0.0, 0.0, 1.0, 0.5, 0.5)">
    <path d="M261.35 35.05 L261.35 79.75 261.35 35.05 296.65 35.05 261.35 79.75 204.35 151.9 177.55 185.8 147.4 147.65 90.4 75.55 58.4 35.05 90.4 35.05 147.4 35.05 204.35 35.05 261.35 35.05 M204.35 151.9 L204.35 35.05 204.35 151.9 M261.35 131.25 L321.65 53.4 321.65 197.6 261.35 197.6 261.35 131.25 261.35 197.6 209.95 197.6 261.35 131.25 M90.4 197.6 L90.4 133.35 90.4 197.6 26.7 197.6 26.7 54.3 90.4 133.35 142.2 197.6 90.4 197.6 M90.4 75.55 L90.4 35.05 90.4 75.55 M90.4 295.0 L90.4 241.15 90.4 295.0 26.7 375.7 26.7 241.15 90.4 241.15 132.9 241.15 90.4 295.0 M147.4 35.05 L147.4 147.65 147.4 35.05 M90.4 349.2 L147.4 275.45 176.35 238.0 177.3 238.0 204.35 271.65 261.35 342.5 311.7 405.1 261.35 405.1 204.35 405.1 147.4 405.1 90.4 405.1 47.15 405.1 90.4 349.2 90.4 405.1 90.4 349.2 M261.35 290.7 L261.35 241.15 261.35 290.7 222.15 241.15 261.35 241.15 321.65 241.15 321.65 366.95 261.35 290.7 M147.4 405.1 L147.4 275.45 147.4 405.1 M204.35 405.1 L204.35 271.65 204.35 405.1 M261.35 405.1 L261.35 342.5 261.35 405.1" fill="#000000" fill-opacity="0.2" fill-rule="evenodd" stroke="none"/>
    <path d="M261.35 35.05 L204.35 35.05 147.4 35.05 90.4 35.05 58.4 35.05 90.4 75.55 147.4 147.65 177.55 185.8 204.35 151.9 261.35 79.75 296.65 35.05 261.35 35.05 M261.35 197.6 L321.65 197.6 321.65 53.4 261.35 131.25 209.95 197.6 261.35 197.6 M90.4 197.6 L142.2 197.6 90.4 133.35 26.7 54.3 26.7 197.6 90.4 197.6 M90.4 295.0 L132.9 241.15 90.4 241.15 26.7 241.15 26.7 375.7 90.4 295.0 M90.4 349.2 L47.15 405.1 90.4 405.1 147.4 405.1 204.35 405.1 261.35 405.1 311.7 405.1 261.35 342.5 204.35 271.65 177.3 238.0 176.35 238.0 147.4 275.45 90.4 349.2 M261.35 290.7 L321.65 366.95 321.65 241.15 261.35 241.15 222.15 241.15 261.35 290.7 M0.0 0.0 L348.45 0.0 348.45 442.25 0.0 442.25 0.0 0.0" fill="#ffffff" fill-opacity="0.0" fill-rule="evenodd" stroke="none"/>
    <path d="M261.35 79.75 L261.35 35.05 204.35 35.05 204.35 151.9 261.35 79.75 296.65 35.05 261.35 35.05 M204.35 151.9 L177.55 185.8 147.4 147.65 90.4 75.55 58.4 35.05 90.4 35.05 147.4 35.05 204.35 35.05 M261.35 197.6 L321.65 197.6 321.65 53.4 261.35 131.25 261.35 197.6 209.95 197.6 261.35 131.25 M90.4 35.05 L90.4 75.55 M90.4 133.35 L90.4 197.6 142.2 197.6 90.4 133.35 26.7 54.3 26.7 197.6 90.4 197.6 M147.4 147.65 L147.4 35.05 M90.4 241.15 L90.4 295.0 132.9 241.15 90.4 241.15 26.7 241.15 M26.7 375.7 L90.4 295.0 M90.4 349.2 L147.4 275.45 176.35 238.0 177.3 238.0 204.35 271.65 261.35 342.5 311.7 405.1 261.35 405.1 204.35 405.1 147.4 405.1 90.4 405.1 47.15 405.1 90.4 349.2 90.4 405.1 M261.35 241.15 L261.35 290.7 321.65 366.95 321.65 241.15 261.35 241.15 222.15 241.15 261.35 290.7 M261.35 342.5 L261.35 405.1 M204.35 271.65 L204.35 405.1 M147.4 275.45 L147.4 405.1" fill="none" stroke="#000000" stroke-linecap="round" stroke-linejoin="miter-clip" stroke-miterlimit="4.0" stroke-opacity="0.6" stroke-width="1.0"/>
    <path d="M26.7 241.15 L26.7 375.7" fill="none" stroke="#000000" stroke-linecap="round" stroke-linejoin="round" stroke-opacity="0.6" stroke-width="1.0"/>
    <path d="M0.0 0.0 L0.0 442.25 348.45 442.25 348.45 0.0 0.0 0.0" fill="none" stroke="#000000" stroke-linecap="round" stroke-linejoin="miter-clip" stroke-miterlimit="4.0" stroke-width="1.0"/>
  </g>
</svg>
