<?xml version="1.0" encoding="UTF-8" standalone="no"?>
<svg xmlns:xlink="http://www.w3.org/1999/xlink" height="170.2px" width="135.85px" xmlns="http://www.w3.org/2000/svg">
  <g transform="matrix(1.0, 0.0, 0.0, 1.0, 0.5, 0.5)">
    <path d="M100.15 50.95 Q100.15 71.3 85.7 85.7 71.3 100.15 50.95 100.15 30.6 100.15 16.15 85.7 1.7 71.3 1.7 50.95 1.7 30.6 16.15 16.15 30.6 1.7 50.95 1.7 71.3 1.7 85.7 16.15 100.15 30.6 100.15 50.95 M85.05 85.05 Q99.15 70.9 99.15 50.95 99.15 30.95 85.05 16.85 70.9 2.7 50.95 2.7 30.95 2.7 16.85 16.85 2.7 30.95 2.7 50.95 2.7 70.9 16.85 85.05 30.95 99.15 50.95 99.15 70.9 99.15 85.05 85.05" fill="#ffffff" fill-opacity="0.14901961" fill-rule="evenodd" stroke="none"/>
    <path d="M85.05 85.05 Q70.9 99.15 50.95 99.15 30.95 99.15 16.85 85.05 2.7 70.9 2.7 50.95 2.7 30.95 16.85 16.85 30.95 2.7 50.95 2.7 70.9 2.7 85.05 16.85 99.15 30.95 99.15 50.95 99.15 70.9 85.05 85.05 M100.15 50.95 Q100.15 30.6 85.7 16.15 71.3 1.7 50.95 1.7 30.6 1.7 16.15 16.15 1.7 30.6 1.7 50.95 1.7 71.3 16.15 85.7 30.6 100.15 50.95 100.15 71.3 100.15 85.7 85.7 100.15 71.3 100.15 50.95 M86.95 86.95 Q72.05 101.9 50.95 101.9 29.85 101.9 14.9 86.95 0.0 72.05 0.0 50.95 0.0 29.85 14.9 14.9 29.85 0.0 50.95 0.0 72.05 0.0 86.95 14.9 101.9 29.85 101.9 50.95 101.9 72.05 86.95 86.95 M50.95 15.35 Q36.2 15.35 25.8 25.8 15.35 36.2 15.35 50.95 15.35 65.65 25.8 76.1 36.2 86.5 50.95 86.5 65.65 86.5 76.1 76.1 86.5 65.65 86.5 50.95 86.5 36.2 76.1 25.8 65.65 15.35 50.95 15.35" fill="#000000" fill-opacity="0.29803923" fill-rule="evenodd" stroke="none"/>
    <path d="M134.85 169.2 L110.3 169.2 110.3 102.35 134.85 102.35 134.85 169.2" fill="#000000" fill-opacity="0.2" fill-rule="evenodd" stroke="none"/>
    <path d="M86.95 86.95 Q72.05 101.9 50.95 101.9 29.85 101.9 14.9 86.95 0.0 72.05 0.0 50.95 0.0 29.85 14.9 14.9 29.85 0.0 50.95 0.0 72.05 0.0 86.95 14.9 101.9 29.85 101.9 50.95 101.9 72.05 86.95 86.95 M134.85 169.2 L110.3 169.2 110.3 102.35 134.85 102.35 134.85 169.2" fill="none" stroke="#000000" stroke-linecap="round" stroke-linejoin="miter-clip" stroke-miterlimit="4.0" stroke-width="1.0"/>
    <path d="M50.95 15.35 Q36.2 15.35 25.8 25.8 15.35 36.2 15.35 50.95 15.35 65.65 25.8 76.1 36.2 86.5 50.95 86.5 65.65 86.5 76.1 76.1 86.5 65.65 86.5 50.95 86.5 36.2 76.1 25.8 65.65 15.35 50.95 15.35" fill="none" stroke="#000000" stroke-linecap="round" stroke-linejoin="miter-clip" stroke-miterlimit="4.0" stroke-opacity="0.6" stroke-width="1.0"/>
  </g>
</svg>
