<?xml version="1.0" encoding="UTF-8" standalone="no"?>
<svg xmlns:xlink="http://www.w3.org/1999/xlink" height="55.8px" width="44.0px" xmlns="http://www.w3.org/2000/svg">
  <g transform="matrix(1.0, 0.0, 0.0, 1.0, 0.5, 0.5)">
    <path d="M35.25 11.5 Q34.7 17.3 29.7 22.9 L26.45 26.55 Q25.0 28.35 25.05 29.65 25.45 41.55 34.15 47.65 38.55 50.7 42.8 51.35 L43.0 54.8 Q38.95 54.75 34.2 53.35 24.7 50.5 21.1 43.6 17.5 36.75 16.95 28.3 16.7 24.1 17.15 21.25 L13.2 20.85 Q8.75 20.1 6.1 18.25 3.45 16.4 1.45 13.7 L0.0 11.35 16.55 5.75 33.1 0.0 34.4 3.3 Q35.65 7.45 35.25 11.5" fill="#000000" fill-opacity="0.29803923" fill-rule="evenodd" stroke="none"/>
    <path d="M35.25 11.5 Q35.65 7.45 34.4 3.3 L33.1 0.0 16.55 5.75 0.0 11.35 1.45 13.7 Q3.45 16.4 6.1 18.25 8.75 20.1 13.2 20.85 L17.15 21.25 Q16.7 24.1 16.95 28.3 17.5 36.75 21.1 43.6 24.7 50.5 34.2 53.35 38.95 54.75 43.0 54.8 L42.8 51.35 Q38.55 50.7 34.15 47.65 25.45 41.55 25.05 29.65 25.0 28.35 26.45 26.55 L29.7 22.9 Q34.7 17.3 35.25 11.5 Z" fill="none" stroke="#000000" stroke-linecap="round" stroke-linejoin="round" stroke-opacity="0.4" stroke-width="1.0"/>
  </g>
</svg>
