<?xml version="1.0" encoding="UTF-8" standalone="no"?>
<svg xmlns:xlink="http://www.w3.org/1999/xlink" height="34.25px" width="31.65px" xmlns="http://www.w3.org/2000/svg">
  <g transform="matrix(1.0, 0.0, 0.0, 1.0, 15.8, 17.15)">
    <path d="M-5.8 16.6 L-7.9 16.4 Q-11.0 16.05 -12.85 13.15 -15.95 8.45 -14.9 -3.1 -14.35 -9.75 -12.6 -16.55 L-6.6 -15.05 Q-8.35 -8.15 -8.9 -1.0 -9.5 7.15 -7.75 9.8 L-6.85 10.5 Q-2.8 11.2 3.05 6.6 7.45 3.25 10.2 -0.45 L15.15 3.35 Q4.1 16.6 -5.8 16.6" fill="#000000" fill-opacity="0.4" fill-rule="evenodd" stroke="none"/>
    <path d="M-5.8 16.6 L-7.9 16.4 Q-11.0 16.05 -12.85 13.15 -15.95 8.45 -14.9 -3.1 -14.35 -9.75 -12.6 -16.55 L-6.6 -15.05 Q-8.35 -8.15 -8.9 -1.0 -9.5 7.15 -7.75 9.8 L-6.85 10.5 Q-2.8 11.2 3.05 6.6 7.45 3.25 10.2 -0.45 L15.15 3.35 Q4.1 16.6 -5.8 16.6 Z" fill="none" stroke="#000000" stroke-linecap="butt" stroke-linejoin="miter-clip" stroke-miterlimit="10.0" stroke-opacity="0.6" stroke-width="1.0"/>
  </g>
</svg>
