<?xml version="1.0" encoding="UTF-8" standalone="no"?>
<svg xmlns:xlink="http://www.w3.org/1999/xlink" height="104.5px" width="272.7px" xmlns="http://www.w3.org/2000/svg">
  <g transform="matrix(1.0, 0.0, 0.0, 1.0, 136.35, 52.25)">
    <path d="M0.0 -32.05 Q-34.85 -32.05 -59.45 -22.65 -84.1 -13.25 -84.1 0.0 -84.1 13.25 -59.45 22.65 -34.85 32.0 0.0 32.0 34.85 32.0 59.45 22.65 84.05 13.25 84.05 0.0 84.05 -13.3 59.45 -22.65 34.85 -32.05 0.0 -32.05 M96.05 -36.6 Q114.85 -29.45 125.15 -20.15 135.85 -10.55 135.85 0.0 135.85 10.55 125.15 20.15 114.85 29.45 96.05 36.6 56.25 51.75 0.0 51.75 -56.3 51.75 -96.05 36.6 -114.85 29.45 -125.2 20.15 -135.85 10.55 -135.85 0.0 -135.85 -10.55 -125.2 -20.15 -114.85 -29.45 -96.05 -36.6 -56.3 -51.75 0.0 -51.75 56.25 -51.75 96.05 -36.6" fill="#ffffff" fill-opacity="0.0" fill-rule="evenodd" stroke="none"/>
    <path d="M0.0 -32.05 Q-34.85 -32.05 -59.45 -22.65 -84.1 -13.25 -84.1 0.0 -84.1 13.25 -59.45 22.65 -34.85 32.0 0.0 32.0 34.85 32.0 59.45 22.65 84.05 13.25 84.05 0.0 84.05 -13.3 59.45 -22.65 34.85 -32.05 0.0 -32.05 M96.05 -36.6 Q56.25 -51.75 0.0 -51.75 -56.3 -51.75 -96.05 -36.6 -114.85 -29.45 -125.2 -20.15 -135.85 -10.55 -135.85 0.0 -135.85 10.55 -125.2 20.15 -114.85 29.45 -96.05 36.6 -56.3 51.75 0.0 51.75 56.25 51.75 96.05 36.6 114.85 29.45 125.15 20.15 135.85 10.55 135.85 0.0 135.85 -10.55 125.15 -20.15 114.85 -29.45 96.05 -36.6" fill="none" stroke="#000000" stroke-linecap="round" stroke-linejoin="miter-clip" stroke-miterlimit="4.0" stroke-opacity="0.6" stroke-width="1.0"/>
  </g>
</svg>
