<?xml version="1.0" encoding="UTF-8" standalone="no"?>
<svg xmlns:xlink="http://www.w3.org/1999/xlink" height="1196.65px" width="4215.85px" xmlns="http://www.w3.org/2000/svg">
  <g transform="matrix(1.0, 0.0, 0.0, 1.0, 2107.9, 548.1)">
    <path d="M2081.3 -505.85 L2093.3 -510.9 2107.45 -510.9 2107.45 -472.2 2107.1 -472.2 2107.1 648.05 1053.55 639.2 -1053.6 640.45 -2107.25 648.05 -2107.25 -425.7 -1948.25 -425.7 Q-1964.75 -415.15 -1980.3 -402.65 L-2009.25 -377.4 Q-2019.6 -368.1 -2021.55 -369.95 -2025.7 -374.05 -2024.1 -175.5 -2023.15 -76.05 -2021.55 24.05 L-2000.0 24.6 Q-2004.5 -339.15 -1999.45 -333.4 -1997.7 -331.45 -1988.4 -340.9 -1968.9 -360.6 -1962.7 -366.25 -1919.3 -405.7 -1867.2 -425.7 L-1838.45 -425.7 Q-1786.25 -405.7 -1743.0 -366.25 -1736.8 -360.6 -1717.2 -340.9 -1707.9 -331.45 -1706.25 -333.4 -1703.15 -337.0 -1703.6 -194.7 -1703.95 -100.35 -1705.7 24.4 L-1693.15 24.05 Q-1691.4 -76.05 -1690.6 -175.5 -1688.85 -374.05 -1693.15 -369.95 -1695.0 -368.1 -1705.45 -377.4 -1727.25 -396.9 -1734.25 -402.65 -1749.8 -415.15 -1766.3 -425.7 L-1543.0 -425.7 Q-1571.75 -410.35 -1597.65 -389.5 L-1626.55 -364.4 Q-1636.9 -355.05 -1638.9 -356.9 -1643.0 -361.05 -1641.4 -162.35 -1640.5 -62.95 -1638.9 37.15 L-1617.35 37.75 Q-1619.05 -86.65 -1619.4 -181.35 -1619.85 -323.75 -1616.75 -320.15 -1615.05 -318.3 -1605.7 -327.75 -1586.35 -347.25 -1580.0 -353.1 -1532.9 -395.95 -1475.55 -415.9 L-1473.55 -416.9 Q-1471.25 -417.95 -1470.25 -417.6 -1469.1 -417.95 -1466.8 -416.9 L-1464.8 -415.9 Q-1407.45 -395.95 -1360.35 -353.1 -1354.0 -347.35 -1334.65 -327.75 -1325.2 -318.3 -1323.6 -320.15 -1320.5 -323.75 -1320.95 -181.6 -1321.3 -87.25 -1323.0 37.5 L-1310.45 37.15 Q-1308.75 -62.95 -1307.95 -162.35 -1306.3 -361.05 -1310.45 -356.9 -1312.3 -355.05 -1322.8 -364.4 -1344.55 -383.75 -1351.6 -389.5 -1377.5 -410.35 -1406.2 -425.7 L-1160.05 -425.7 Q-1176.6 -415.15 -1192.15 -402.65 -1199.05 -397.0 -1221.05 -377.4 -1231.45 -368.1 -1233.4 -369.95 -1237.55 -374.05 -1235.95 -175.5 -1235.0 -76.05 -1233.4 24.05 L-1211.85 24.6 Q-1216.35 -339.15 -1211.3 -333.4 -1209.55 -331.45 -1200.2 -340.9 -1180.75 -360.6 -1174.55 -366.25 -1131.15 -405.7 -1079.05 -425.7 L-1050.3 -425.7 Q-998.1 -405.7 -954.85 -366.25 -948.65 -360.6 -929.05 -340.9 -919.7 -331.45 -918.1 -333.4 -915.0 -337.0 -915.45 -194.7 -915.8 -100.35 -917.55 24.4 L-905.0 24.05 Q-903.25 -76.05 -902.45 -175.5 -900.7 -374.05 -905.0 -369.95 -906.8 -368.1 -917.3 -377.4 -939.05 -396.9 -946.1 -402.65 -961.65 -415.15 -978.15 -425.7 L950.65 -425.7 Q934.1 -415.15 918.55 -402.65 911.65 -397.0 889.65 -377.4 879.15 -368.1 877.3 -369.95 873.15 -374.05 874.75 -175.5 875.7 -76.05 877.3 24.05 L889.85 24.4 Q888.15 -100.35 887.8 -194.7 887.35 -337.0 890.45 -333.4 892.15 -331.45 901.5 -340.9 920.95 -360.6 927.2 -366.25 970.55 -405.7 1022.65 -425.7 L1051.45 -425.7 Q1103.6 -405.7 1146.85 -366.25 1153.1 -360.6 1172.65 -340.9 1182.0 -331.45 1183.6 -333.4 1186.7 -337.0 1186.25 -194.5 1185.9 -99.8 1184.2 24.6 L1205.7 24.05 Q1207.45 -76.05 1208.25 -175.5 1209.85 -374.05 1205.7 -369.95 1203.9 -368.1 1193.4 -377.4 1171.6 -396.9 1164.5 -402.65 1148.95 -415.15 1132.45 -425.7 L1378.65 -425.7 Q1349.95 -410.35 1324.05 -389.5 1317.0 -383.85 1295.1 -364.4 1284.65 -355.05 1282.8 -356.9 1278.65 -361.05 1280.25 -162.35 1281.15 -62.95 1282.8 37.15 L1295.35 37.5 Q1290.85 -326.05 1295.9 -320.15 1297.65 -318.3 1307.0 -327.75 1326.35 -347.25 1332.65 -353.1 1379.8 -395.95 1437.15 -415.9 L1439.2 -416.9 Q1441.4 -417.95 1442.55 -417.6 1444.3 -418.2 1447.85 -415.9 1505.35 -395.95 1552.35 -353.1 1558.8 -347.25 1578.15 -327.75 1587.45 -318.3 1589.1 -320.15 1592.2 -323.75 1591.75 -181.35 1591.4 -86.65 1589.65 37.75 L1611.2 37.15 Q1612.95 -62.95 1613.75 -162.35 1615.35 -361.05 1611.2 -356.9 1609.35 -355.05 1598.9 -364.4 1577.1 -383.75 1569.95 -389.5 1544.05 -410.35 1515.35 -425.7 L1738.6 -425.7 Q1722.1 -415.15 1706.6 -402.65 1699.55 -396.9 1677.8 -377.4 1667.3 -368.1 1665.45 -369.95 1661.3 -374.05 1662.95 -175.5 1663.85 -76.05 1665.45 24.05 L1678.0 24.4 Q1673.5 -339.15 1678.6 -333.4 1680.3 -331.45 1689.55 -340.9 1709.1 -360.6 1715.35 -366.25 1758.6 -405.7 1810.75 -425.7 L1839.6 -425.7 Q1891.75 -405.7 1935.0 -366.25 1941.25 -360.6 1960.8 -340.9 1970.15 -331.45 1971.75 -333.4 1976.85 -339.15 1972.35 24.6 L1993.9 24.05 Q1995.6 -76.05 1996.4 -175.5 1998.05 -374.05 1993.9 -369.95 1991.9 -368.1 1981.55 -377.4 1959.45 -397.1 1952.65 -402.65 1937.1 -415.15 1920.6 -425.7 L2081.3 -425.7 2081.3 -505.85 M1707.75 -298.65 L1707.75 -59.3 1944.75 -59.3 1944.75 -298.65 1707.75 -298.65 M1326.15 -298.65 L1326.15 -59.3 1563.15 -59.3 1563.15 -298.65 1326.15 -298.65 M1443.25 129.65 L1441.05 130.8 Q1376.8 150.65 1324.05 193.15 1317.1 198.65 1295.1 218.25 1284.65 227.6 1282.8 225.75 1278.65 221.6 1280.25 420.3 1281.15 519.6 1282.8 619.8 L1295.35 620.15 Q1290.85 256.75 1295.9 262.5 1297.65 264.35 1307.0 254.9 1326.35 235.3 1332.65 229.55 1379.8 186.6 1437.15 166.65 L1439.2 165.6 Q1441.4 164.55 1442.55 164.9 1444.3 164.35 1447.85 166.65 1505.35 186.6 1552.35 229.55 1558.7 235.3 1578.15 254.9 1587.45 264.35 1589.1 262.5 1592.2 258.9 1591.75 401.3 1591.4 496.0 1589.65 620.4 L1611.2 619.8 Q1612.95 519.6 1613.75 420.3 1615.35 221.6 1611.2 225.75 1609.35 227.6 1598.9 218.25 1577.1 198.8 1569.95 193.15 1517.2 150.65 1452.95 130.8 1449.0 128.4 1446.95 129.1 1445.65 128.65 1443.25 129.65 M1835.6 117.7 Q1831.7 115.25 1829.6 115.85 1828.35 115.5 1825.95 116.55 L1823.6 117.7 Q1759.25 137.4 1706.6 179.9 1699.55 185.65 1677.8 205.1 1667.3 214.45 1665.45 212.6 1661.3 208.35 1662.95 407.05 1663.85 506.45 1665.45 606.7 L1678.0 607.05 Q1673.5 243.5 1678.6 249.35 1680.3 251.2 1689.55 241.75 1708.75 222.3 1715.35 216.3 1762.35 173.45 1819.8 153.5 L1821.8 152.35 Q1824.1 151.35 1825.1 151.65 1826.95 151.1 1830.55 153.5 1888.0 173.45 1935.0 216.3 1941.6 222.3 1960.8 241.75 1970.15 251.2 1971.75 249.35 1976.85 243.5 1972.35 607.25 L1993.9 606.7 Q1995.6 506.45 1996.4 407.05 1998.05 208.35 1993.9 212.6 1991.9 214.45 1981.55 205.1 1959.45 185.4 1952.65 179.9 1899.9 137.4 1835.6 117.7 M1707.75 307.75 L1707.75 547.1 1944.75 547.1 1944.75 307.75 1707.75 307.75 M1326.15 307.75 L1326.15 547.1 1563.15 547.1 1563.15 307.75 1326.15 307.75 M336.15 264.35 L336.15 504.35 444.2 504.35 444.2 264.35 336.15 264.35 M325.15 -353.45 L325.15 -113.45 433.2 -113.45 433.2 -353.45 325.15 -353.45 M921.7 -298.65 L921.7 -59.3 1158.7 -59.3 1158.7 -298.65 921.7 -298.65 M240.4 606.7 L262.85 606.7 262.85 124.05 Q238.2 79.55 192.95 26.35 102.4 -80.1 -0.7 -123.65 L-18.35 -123.65 Q-121.45 -80.1 -211.95 26.35 -257.25 79.55 -281.9 124.05 L-281.9 606.7 -259.45 606.7 -238.8 606.7 -221.55 606.7 -202.5 606.7 -183.65 606.7 -154.35 606.7 -154.35 612.35 133.15 612.35 133.1 606.7 164.6 606.7 183.5 606.7 202.5 606.7 219.65 606.7 240.4 606.7 M1037.75 116.55 L1035.6 117.7 Q971.3 137.4 918.55 179.9 911.65 185.55 889.65 205.1 879.15 214.45 877.3 212.6 873.15 208.35 874.75 407.05 875.7 506.45 877.3 606.7 L889.85 607.05 Q888.15 482.3 887.8 387.95 887.35 245.8 890.45 249.35 892.15 251.2 901.5 241.75 920.75 222.3 927.2 216.3 974.3 173.45 1031.65 153.5 L1033.6 152.35 Q1035.95 151.35 1036.95 151.65 1038.8 151.1 1042.4 153.5 1099.85 173.45 1146.85 216.3 1153.4 222.3 1172.65 241.75 1182.0 251.2 1183.6 249.35 1186.7 245.8 1186.25 388.15 1185.9 482.85 1184.2 607.25 L1205.7 606.7 Q1207.45 506.45 1208.25 407.05 1209.85 208.35 1205.7 212.6 1203.9 214.45 1193.4 205.1 1171.6 185.65 1164.5 179.9 1111.7 137.4 1047.45 117.7 1043.55 115.25 1041.45 115.85 1040.2 115.5 1037.75 116.55 M-476.05 -353.45 L-476.05 -113.45 -368.0 -113.45 -368.0 -353.45 -476.05 -353.45 M639.0 -50.7 L639.0 367.65 764.7 367.65 764.7 -50.7 639.0 -50.7 M921.7 307.75 L921.7 547.1 1158.7 547.1 1158.7 307.75 921.7 307.75 M-774.7 -51.0 L-774.7 367.35 -653.7 367.35 -653.7 -51.0 -774.7 -51.0 M-1187.35 -298.65 L-1187.35 -59.3 -950.35 -59.3 -950.35 -298.65 -1187.35 -298.65 M-917.3 205.1 Q-939.05 185.65 -946.1 179.9 -998.85 137.4 -1063.15 117.7 L-1065.45 116.55 Q-1067.85 115.5 -1069.15 115.85 -1070.4 115.5 -1072.95 116.55 L-1075.1 117.7 Q-1139.4 137.4 -1192.15 179.9 -1199.05 185.55 -1221.05 205.1 -1231.45 214.45 -1233.4 212.6 -1237.55 208.35 -1235.95 407.05 -1235.0 506.45 -1233.4 606.7 L-1211.85 607.25 Q-1216.35 243.5 -1211.3 249.35 -1209.55 251.2 -1200.2 241.75 -1181.0 222.3 -1174.55 216.3 -1127.4 173.45 -1070.05 153.5 L-1068.0 152.35 Q-1065.8 151.35 -1064.65 151.65 -1063.6 151.35 -1061.3 152.35 -1060.25 152.95 -1059.35 153.5 -1001.85 173.45 -954.85 216.3 -948.3 222.3 -929.05 241.75 -919.7 251.2 -918.1 249.35 -915.0 245.8 -915.45 387.95 -915.8 482.3 -917.55 607.05 L-905.0 606.7 Q-903.25 506.45 -902.45 407.05 -900.7 208.35 -905.0 212.6 -906.8 214.45 -917.3 205.1 M-465.05 264.35 L-465.05 504.35 -357.0 504.35 -357.0 264.35 -465.05 264.35 M-1185.3 307.75 L-1185.3 547.1 -948.3 547.1 -948.3 307.75 -1185.3 307.75 M-1590.2 -298.65 L-1590.2 -59.3 -1353.2 -59.3 -1353.2 -298.65 -1590.2 -298.65 M-1970.15 -298.65 L-1970.15 -59.3 -1733.15 -59.3 -1733.15 -298.65 -1970.15 -298.65 M-2021.55 212.6 Q-2025.7 208.35 -2024.1 407.05 -2023.15 506.45 -2021.55 606.7 L-2000.0 607.25 Q-2004.5 243.5 -1999.45 249.35 -1997.7 251.2 -1988.4 241.75 -1969.15 222.3 -1962.7 216.3 -1915.55 173.45 -1858.2 153.5 L-1856.15 152.35 Q-1853.95 151.35 -1852.8 151.65 -1851.75 151.35 -1849.45 152.35 L-1847.5 153.5 Q-1790.0 173.45 -1743.0 216.3 -1736.45 222.3 -1717.2 241.75 -1707.9 251.2 -1706.25 249.35 -1703.15 245.8 -1703.6 387.95 -1703.95 482.3 -1705.7 607.05 L-1693.15 606.7 Q-1691.4 506.45 -1690.6 407.05 -1688.85 208.35 -1693.15 212.6 -1695.0 214.45 -1705.45 205.1 -1727.25 185.65 -1734.25 179.9 -1787.0 137.4 -1851.3 117.7 L-1853.6 116.55 Q-1856.0 115.5 -1857.3 115.85 -1858.55 115.5 -1861.1 116.55 L-1863.3 117.7 Q-1927.55 137.4 -1980.3 179.9 -1987.2 185.55 -2009.25 205.1 -2019.6 214.45 -2021.55 212.6 M-1970.15 302.4 L-1970.15 541.75 -1733.15 541.75 -1733.15 302.4 -1970.15 302.4 M-1470.9 129.65 Q-1473.35 128.65 -1474.6 129.1 -1475.9 128.65 -1478.4 129.65 L-1480.6 130.8 Q-1544.9 150.65 -1597.65 193.15 -1604.55 198.65 -1626.55 218.25 -1636.9 227.6 -1638.9 225.75 -1643.0 221.6 -1641.4 420.3 -1640.5 519.6 -1638.9 619.8 L-1617.35 620.4 Q-1619.05 496.0 -1619.4 401.3 -1619.85 258.9 -1616.75 262.5 -1615.05 264.35 -1605.7 254.9 -1586.35 235.3 -1580.0 229.55 -1532.9 186.6 -1475.55 166.65 L-1473.55 165.6 Q-1471.25 164.55 -1470.25 164.9 -1469.1 164.55 -1466.8 165.6 -1465.75 166.05 -1464.8 166.65 -1407.45 186.6 -1360.35 229.55 -1354.1 235.2 -1334.65 254.9 -1325.2 264.35 -1323.6 262.5 -1320.5 258.9 -1320.95 401.2 -1321.3 495.55 -1323.0 620.15 L-1310.45 619.8 Q-1308.75 519.6 -1307.95 420.3 -1306.3 221.6 -1310.45 225.75 -1312.3 227.6 -1322.8 218.25 -1344.55 198.8 -1351.6 193.15 -1404.35 150.65 -1468.6 130.8 L-1470.9 129.65 M-1590.2 302.4 L-1590.2 541.75 -1353.2 541.75 -1353.2 302.4 -1590.2 302.4" fill="#ffffff" fill-opacity="0.0" fill-rule="evenodd" stroke="none"/>
    <path d="M2107.45 -510.9 L2093.3 -510.9 2081.3 -505.85 25.2 -502.5 25.0 -502.4 -52.65 -502.4 -52.9 -502.5 -2107.4 -505.85 -2107.4 -548.1 0.0 -548.1 2107.45 -548.1 2107.45 -510.9 M1920.6 -425.7 Q1937.1 -415.15 1952.65 -402.65 1959.45 -397.1 1981.55 -377.4 1991.9 -368.1 1993.9 -369.95 1998.05 -374.05 1996.4 -175.5 1995.6 -76.05 1993.9 24.05 L1972.35 24.6 Q1976.85 -339.15 1971.75 -333.4 1970.15 -331.45 1960.8 -340.9 1941.25 -360.6 1935.0 -366.25 1891.75 -405.7 1839.6 -425.7 L1830.55 -429.0 Q1826.95 -431.45 1825.1 -430.85 1824.1 -431.2 1821.8 -430.15 L1819.8 -429.0 1810.75 -425.7 Q1758.6 -405.7 1715.35 -366.25 1709.1 -360.6 1689.55 -340.9 1680.3 -331.45 1678.6 -333.4 1673.5 -339.15 1678.0 24.4 L1665.45 24.05 Q1663.85 -76.05 1662.95 -175.5 1661.3 -374.05 1665.45 -369.95 1667.3 -368.1 1677.8 -377.4 1699.55 -396.9 1706.6 -402.65 1722.1 -415.15 1738.6 -425.7 1778.2 -450.95 1823.6 -464.85 L1825.95 -466.0 Q1828.35 -467.05 1829.6 -466.7 1831.7 -467.25 1835.6 -464.85 1880.95 -450.95 1920.6 -425.7 M1515.35 -425.7 Q1544.05 -410.35 1569.95 -389.5 1577.1 -383.75 1598.9 -364.4 1609.35 -355.05 1611.2 -356.9 1615.35 -361.05 1613.75 -162.35 1612.95 -62.95 1611.2 37.15 L1589.65 37.75 Q1591.4 -86.65 1591.75 -181.35 1592.2 -323.75 1589.1 -320.15 1587.45 -318.3 1578.15 -327.75 1558.8 -347.25 1552.35 -353.1 1505.35 -395.95 1447.85 -415.9 1444.3 -418.2 1442.55 -417.6 1441.4 -417.95 1439.2 -416.9 L1437.15 -415.9 Q1379.8 -395.95 1332.65 -353.1 1326.35 -347.25 1307.0 -327.75 1297.65 -318.3 1295.9 -320.15 1290.85 -326.05 1295.35 37.5 L1282.8 37.15 Q1281.15 -62.95 1280.25 -162.35 1278.65 -361.05 1282.8 -356.9 1284.65 -355.05 1295.1 -364.4 1317.0 -383.85 1324.05 -389.5 1349.95 -410.35 1378.65 -425.7 1408.35 -441.65 1441.05 -451.7 L1443.25 -452.85 Q1445.65 -453.9 1446.95 -453.55 1449.0 -454.15 1452.95 -451.7 1485.65 -441.65 1515.35 -425.7 M1132.45 -425.7 Q1148.95 -415.15 1164.5 -402.65 1171.6 -396.9 1193.4 -377.4 1203.9 -368.1 1205.7 -369.95 1209.85 -374.05 1208.25 -175.5 1207.45 -76.05 1205.7 24.05 L1184.2 24.6 Q1185.9 -99.8 1186.25 -194.5 1186.7 -337.0 1183.6 -333.4 1182.0 -331.45 1172.65 -340.9 1153.1 -360.6 1146.85 -366.25 1103.6 -405.7 1051.45 -425.7 L1042.4 -429.0 Q1038.8 -431.45 1036.95 -430.85 1035.95 -431.2 1033.6 -430.15 L1031.65 -429.0 1022.65 -425.7 Q970.55 -405.7 927.2 -366.25 920.95 -360.6 901.5 -340.9 892.15 -331.45 890.45 -333.4 887.35 -337.0 887.8 -194.7 888.15 -100.35 889.85 24.4 L877.3 24.05 Q875.7 -76.05 874.75 -175.5 873.15 -374.05 877.3 -369.95 879.15 -368.1 889.65 -377.4 911.65 -397.0 918.55 -402.65 934.1 -415.15 950.65 -425.7 990.25 -450.95 1035.6 -464.85 L1037.75 -466.0 Q1040.2 -467.05 1041.45 -466.7 1043.55 -467.25 1047.45 -464.85 1092.8 -450.95 1132.45 -425.7 M-978.15 -425.7 Q-961.65 -415.15 -946.1 -402.65 -939.05 -396.9 -917.3 -377.4 -906.8 -368.1 -905.0 -369.95 -900.7 -374.05 -902.45 -175.5 -903.25 -76.05 -905.0 24.05 L-917.55 24.4 Q-915.8 -100.35 -915.45 -194.7 -915.0 -337.0 -918.1 -333.4 -919.7 -331.45 -929.05 -340.9 -948.65 -360.6 -954.85 -366.25 -998.1 -405.7 -1050.3 -425.7 L-1059.35 -429.0 -1061.3 -430.15 Q-1063.6 -431.2 -1064.65 -430.85 -1065.8 -431.2 -1068.0 -430.15 L-1070.05 -429.0 -1079.05 -425.7 Q-1131.15 -405.7 -1174.55 -366.25 -1180.75 -360.6 -1200.2 -340.9 -1209.55 -331.45 -1211.3 -333.4 -1216.35 -339.15 -1211.85 24.6 L-1233.4 24.05 Q-1235.0 -76.05 -1235.95 -175.5 -1237.55 -374.05 -1233.4 -369.95 -1231.45 -368.1 -1221.05 -377.4 -1199.05 -397.0 -1192.15 -402.65 -1176.6 -415.15 -1160.05 -425.7 -1120.45 -450.95 -1075.1 -464.85 L-1072.95 -466.0 Q-1070.4 -467.05 -1069.15 -466.7 -1067.85 -467.05 -1065.45 -466.0 L-1063.15 -464.85 Q-1017.8 -450.95 -978.15 -425.7 M-1406.2 -425.7 Q-1377.5 -410.35 -1351.6 -389.5 -1344.55 -383.75 -1322.8 -364.4 -1312.3 -355.05 -1310.45 -356.9 -1306.3 -361.05 -1307.95 -162.35 -1308.75 -62.95 -1310.45 37.15 L-1323.0 37.5 Q-1321.3 -87.25 -1320.95 -181.6 -1320.5 -323.75 -1323.6 -320.15 -1325.2 -318.3 -1334.65 -327.75 -1354.0 -347.35 -1360.35 -353.1 -1407.45 -395.95 -1464.8 -415.9 L-1466.8 -416.9 Q-1469.1 -417.95 -1470.25 -417.6 -1471.25 -417.95 -1473.55 -416.9 L-1475.55 -415.9 Q-1532.9 -395.95 -1580.0 -353.1 -1586.35 -347.25 -1605.7 -327.75 -1615.05 -318.3 -1616.75 -320.15 -1619.85 -323.75 -1619.4 -181.35 -1619.05 -86.65 -1617.35 37.75 L-1638.9 37.15 Q-1640.5 -62.95 -1641.4 -162.35 -1643.0 -361.05 -1638.9 -356.9 -1636.9 -355.05 -1626.55 -364.4 L-1597.65 -389.5 Q-1571.75 -410.35 -1543.0 -425.7 -1513.3 -441.65 -1480.6 -451.7 L-1478.4 -452.85 Q-1475.9 -453.9 -1474.6 -453.55 -1473.35 -453.9 -1470.9 -452.85 L-1468.6 -451.7 Q-1435.9 -441.65 -1406.2 -425.7 M-1766.3 -425.7 Q-1749.8 -415.15 -1734.25 -402.65 -1727.25 -396.9 -1705.45 -377.4 -1695.0 -368.1 -1693.15 -369.95 -1688.85 -374.05 -1690.6 -175.5 -1691.4 -76.05 -1693.15 24.05 L-1705.7 24.4 Q-1703.95 -100.35 -1703.6 -194.7 -1703.15 -337.0 -1706.25 -333.4 -1707.9 -331.45 -1717.2 -340.9 -1736.8 -360.6 -1743.0 -366.25 -1786.25 -405.7 -1838.45 -425.7 L-1847.5 -429.0 -1849.45 -430.15 Q-1851.75 -431.2 -1852.8 -430.85 -1853.95 -431.2 -1856.15 -430.15 L-1858.2 -429.0 -1867.2 -425.7 Q-1919.3 -405.7 -1962.7 -366.25 -1968.9 -360.6 -1988.4 -340.9 -1997.7 -331.45 -1999.45 -333.4 -2004.5 -339.15 -2000.0 24.6 L-2021.55 24.05 Q-2023.15 -76.05 -2024.1 -175.5 -2025.7 -374.05 -2021.55 -369.95 -2019.6 -368.1 -2009.25 -377.4 L-1980.3 -402.65 Q-1964.75 -415.15 -1948.25 -425.7 -1908.65 -450.95 -1863.3 -464.85 L-1861.1 -466.0 Q-1858.55 -467.05 -1857.3 -466.7 -1856.0 -467.05 -1853.6 -466.0 L-1851.3 -464.85 Q-1805.95 -450.95 -1766.3 -425.7 M1835.6 117.7 Q1899.9 137.4 1952.65 179.9 1959.45 185.4 1981.55 205.1 1991.9 214.45 1993.9 212.6 1998.05 208.35 1996.4 407.05 1995.6 506.45 1993.9 606.7 L1972.35 607.25 Q1976.85 243.5 1971.75 249.35 1970.15 251.2 1960.8 241.75 1941.6 222.3 1935.0 216.3 1888.0 173.45 1830.55 153.5 1826.95 151.1 1825.1 151.65 1824.1 151.35 1821.8 152.35 L1819.8 153.5 Q1762.35 173.45 1715.35 216.3 1708.75 222.3 1689.55 241.75 1680.3 251.2 1678.6 249.35 1673.5 243.5 1678.0 607.05 L1665.45 606.7 Q1663.85 506.45 1662.95 407.05 1661.3 208.35 1665.45 212.6 1667.3 214.45 1677.8 205.1 1699.55 185.65 1706.6 179.9 1759.25 137.4 1823.6 117.7 L1825.95 116.55 Q1828.35 115.5 1829.6 115.85 1831.7 115.25 1835.6 117.7 M1443.25 129.65 Q1445.65 128.65 1446.95 129.1 1449.0 128.4 1452.95 130.8 1517.2 150.65 1569.95 193.15 1577.1 198.8 1598.9 218.25 1609.35 227.6 1611.2 225.75 1615.35 221.6 1613.75 420.3 1612.95 519.6 1611.2 619.8 L1589.65 620.4 Q1591.4 496.0 1591.75 401.3 1592.2 258.9 1589.1 262.5 1587.45 264.35 1578.15 254.9 1558.7 235.3 1552.35 229.55 1505.35 186.6 1447.85 166.65 1444.3 164.35 1442.55 164.9 1441.4 164.55 1439.2 165.6 L1437.15 166.65 Q1379.8 186.6 1332.65 229.55 1326.35 235.3 1307.0 254.9 1297.65 264.35 1295.9 262.5 1290.85 256.75 1295.35 620.15 L1282.8 619.8 Q1281.15 519.6 1280.25 420.3 1278.65 221.6 1282.8 225.75 1284.65 227.6 1295.1 218.25 1317.1 198.65 1324.05 193.15 1376.8 150.65 1441.05 130.8 L1443.25 129.65 M133.1 606.7 L114.05 606.7 114.05 214.1 Q100.3 185.65 64.75 169.75 31.8 154.9 -9.45 154.9 -50.8 154.9 -83.75 169.75 -119.35 185.65 -133.05 214.1 L-133.05 606.7 -154.35 606.7 -183.65 606.7 -183.65 190.85 Q-167.85 162.4 -138.95 128.4 -81.0 60.3 -15.1 32.55 L-3.95 32.55 Q62.1 60.3 119.9 128.4 148.8 162.4 164.6 190.85 L164.6 606.7 133.1 606.7 M1037.75 116.55 Q1040.2 115.5 1041.45 115.85 1043.55 115.25 1047.45 117.7 1111.7 137.4 1164.5 179.9 1171.6 185.65 1193.4 205.1 1203.9 214.45 1205.7 212.6 1209.85 208.35 1208.25 407.05 1207.45 506.45 1205.7 606.7 L1184.2 607.25 Q1185.9 482.85 1186.25 388.15 1186.7 245.8 1183.6 249.35 1182.0 251.2 1172.65 241.75 1153.4 222.3 1146.85 216.3 1099.85 173.45 1042.4 153.5 1038.8 151.1 1036.95 151.65 1035.95 151.35 1033.6 152.35 L1031.65 153.5 Q974.3 173.45 927.2 216.3 920.75 222.3 901.5 241.75 892.15 251.2 890.45 249.35 887.35 245.8 887.8 387.95 888.15 482.3 889.85 607.05 L877.3 606.7 Q875.7 506.45 874.75 407.05 873.15 208.35 877.3 212.6 879.15 214.45 889.65 205.1 911.65 185.55 918.55 179.9 971.3 137.4 1035.6 117.7 L1037.75 116.55 M-917.3 205.1 Q-906.8 214.45 -905.0 212.6 -900.7 208.35 -902.45 407.05 -903.25 506.45 -905.0 606.7 L-917.55 607.05 Q-915.8 482.3 -915.45 387.95 -915.0 245.8 -918.1 249.35 -919.7 251.2 -929.05 241.75 -948.3 222.3 -954.85 216.3 -1001.85 173.45 -1059.35 153.5 -1060.25 152.95 -1061.3 152.35 -1063.6 151.35 -1064.65 151.65 -1065.8 151.35 -1068.0 152.35 L-1070.05 153.5 Q-1127.4 173.45 -1174.55 216.3 -1181.0 222.3 -1200.2 241.75 -1209.55 251.2 -1211.3 249.35 -1216.35 243.5 -1211.85 607.25 L-1233.4 606.7 Q-1235.0 506.45 -1235.95 407.05 -1237.55 208.35 -1233.4 212.6 -1231.45 214.45 -1221.05 205.1 -1199.05 185.55 -1192.15 179.9 -1139.4 137.4 -1075.1 117.7 L-1072.95 116.55 Q-1070.4 115.5 -1069.15 115.85 -1067.85 115.5 -1065.45 116.55 L-1063.15 117.7 Q-998.85 137.4 -946.1 179.9 -939.05 185.65 -917.3 205.1 M-2021.55 212.6 Q-2019.6 214.45 -2009.25 205.1 -1987.2 185.55 -1980.3 179.9 -1927.55 137.4 -1863.3 117.7 L-1861.1 116.55 Q-1858.55 115.5 -1857.3 115.85 -1856.0 115.5 -1853.6 116.55 L-1851.3 117.7 Q-1787.0 137.4 -1734.25 179.9 -1727.25 185.65 -1705.45 205.1 -1695.0 214.45 -1693.15 212.6 -1688.85 208.35 -1690.6 407.05 -1691.4 506.45 -1693.15 606.7 L-1705.7 607.05 Q-1703.95 482.3 -1703.6 387.95 -1703.15 245.8 -1706.25 249.35 -1707.9 251.2 -1717.2 241.75 -1736.45 222.3 -1743.0 216.3 -1790.0 173.45 -1847.5 153.5 L-1849.45 152.35 Q-1851.75 151.35 -1852.8 151.65 -1853.95 151.35 -1856.15 152.35 L-1858.2 153.5 Q-1915.55 173.45 -1962.7 216.3 -1969.15 222.3 -1988.4 241.75 -1997.7 251.2 -1999.45 249.35 -2004.5 243.5 -2000.0 607.25 L-2021.55 606.7 Q-2023.15 506.45 -2024.1 407.05 -2025.7 208.35 -2021.55 212.6 M-1470.9 129.65 L-1468.6 130.8 Q-1404.35 150.65 -1351.6 193.15 -1344.55 198.8 -1322.8 218.25 -1312.3 227.6 -1310.45 225.75 -1306.3 221.6 -1307.95 420.3 -1308.75 519.6 -1310.45 619.8 L-1323.0 620.15 Q-1321.3 495.55 -1320.95 401.2 -1320.5 258.9 -1323.6 262.5 -1325.2 264.35 -1334.65 254.9 -1354.1 235.2 -1360.35 229.55 -1407.45 186.6 -1464.8 166.65 -1465.75 166.05 -1466.8 165.6 -1469.1 164.55 -1470.25 164.9 -1471.25 164.55 -1473.55 165.6 L-1475.55 166.65 Q-1532.9 186.6 -1580.0 229.55 -1586.35 235.3 -1605.7 254.9 -1615.05 264.35 -1616.75 262.5 -1619.85 258.9 -1619.4 401.3 -1619.05 496.0 -1617.35 620.4 L-1638.9 619.8 Q-1640.5 519.6 -1641.4 420.3 -1643.0 221.6 -1638.9 225.75 -1636.9 227.6 -1626.55 218.25 -1604.55 198.65 -1597.65 193.15 -1544.9 150.65 -1480.6 130.8 L-1478.4 129.65 Q-1475.9 128.65 -1474.6 129.1 -1473.35 128.65 -1470.9 129.65" fill="#000000" fill-opacity="0.29803923" fill-rule="evenodd" stroke="none"/>
    <path d="M-2107.4 -505.85 L-52.9 -502.5 -52.65 -502.4 25.0 -502.4 25.2 -502.5 2081.3 -505.85 2081.3 -425.7 1920.6 -425.7 Q1880.95 -450.95 1835.6 -464.85 1831.7 -467.25 1829.6 -466.7 1828.35 -467.05 1825.95 -466.0 L1823.6 -464.85 Q1778.2 -450.95 1738.6 -425.7 L1515.35 -425.7 Q1485.65 -441.65 1452.95 -451.7 1449.0 -454.15 1446.95 -453.55 1445.65 -453.9 1443.25 -452.85 L1441.05 -451.7 Q1408.35 -441.65 1378.65 -425.7 L1132.45 -425.7 Q1092.8 -450.95 1047.45 -464.85 1043.55 -467.25 1041.45 -466.7 1040.2 -467.05 1037.75 -466.0 L1035.6 -464.85 Q990.25 -450.95 950.65 -425.7 L-978.15 -425.7 Q-1017.8 -450.95 -1063.15 -464.85 L-1065.45 -466.0 Q-1067.85 -467.05 -1069.15 -466.7 -1070.4 -467.05 -1072.95 -466.0 L-1075.1 -464.85 Q-1120.45 -450.95 -1160.05 -425.7 L-1406.2 -425.7 Q-1435.9 -441.65 -1468.6 -451.7 L-1470.9 -452.85 Q-1473.35 -453.9 -1474.6 -453.55 -1475.9 -453.9 -1478.4 -452.85 L-1480.6 -451.7 Q-1513.3 -441.65 -1543.0 -425.7 L-1766.3 -425.7 Q-1805.95 -450.95 -1851.3 -464.85 L-1853.6 -466.0 Q-1856.0 -467.05 -1857.3 -466.7 -1858.55 -467.05 -1861.1 -466.0 L-1863.3 -464.85 Q-1908.65 -450.95 -1948.25 -425.7 L-2107.25 -425.7 -2107.4 -425.7 -2107.4 -505.85 M1839.6 -425.7 L1810.75 -425.7 1819.8 -429.0 1821.8 -430.15 Q1824.1 -431.2 1825.1 -430.85 1826.95 -431.45 1830.55 -429.0 L1839.6 -425.7 M1051.45 -425.7 L1022.65 -425.7 1031.65 -429.0 1033.6 -430.15 Q1035.95 -431.2 1036.95 -430.85 1038.8 -431.45 1042.4 -429.0 L1051.45 -425.7 M-1050.3 -425.7 L-1079.05 -425.7 -1070.05 -429.0 -1068.0 -430.15 Q-1065.8 -431.2 -1064.65 -430.85 -1063.6 -431.2 -1061.3 -430.15 L-1059.35 -429.0 -1050.3 -425.7 M-1838.45 -425.7 L-1867.2 -425.7 -1858.2 -429.0 -1856.15 -430.15 Q-1853.95 -431.2 -1852.8 -430.85 -1851.75 -431.2 -1849.45 -430.15 L-1847.5 -429.0 -1838.45 -425.7 M240.4 606.7 L240.4 152.6 Q217.8 111.8 176.25 62.95 93.2 -34.7 -1.4 -74.7 L-17.5 -74.7 Q-112.2 -34.7 -195.25 62.95 -236.85 111.8 -259.45 152.6 L-259.45 606.7 -281.9 606.7 -281.9 124.05 Q-257.25 79.55 -211.95 26.35 -121.45 -80.1 -18.35 -123.65 L-0.7 -123.65 Q102.4 -80.1 192.95 26.35 238.2 79.55 262.85 124.05 L262.85 606.7 240.4 606.7 M-154.35 606.7 L-133.05 606.7 -133.05 214.1 Q-119.35 185.65 -83.75 169.75 -50.8 154.9 -9.45 154.9 31.8 154.9 64.75 169.75 100.3 185.65 114.05 214.1 L114.05 606.7 133.1 606.7 133.15 612.35 -154.35 612.35 -154.35 606.7" fill="#000000" fill-opacity="0.14901961" fill-rule="evenodd" stroke="none"/>
    <path d="M-259.45 606.7 L-259.45 152.6 Q-236.85 111.8 -195.25 62.95 -112.2 -34.7 -17.5 -74.7 L-1.4 -74.7 Q93.2 -34.7 176.25 62.95 217.8 111.8 240.4 152.6 L240.4 606.7 219.65 606.7 219.65 161.6 Q198.95 124.15 160.8 79.35 84.65 -10.3 -2.1 -46.9 L-16.95 -46.9 Q-103.7 -10.3 -179.95 79.35 -218.1 124.15 -238.8 161.6 L-238.8 606.7 -259.45 606.7 M183.5 606.7 L183.5 179.9 Q166.1 148.35 133.95 110.65 69.8 35.2 -3.25 4.35 L-15.8 4.35 Q-88.85 35.2 -153.0 110.65 -185.0 148.35 -202.5 179.9 L-202.5 606.7 -221.55 606.7 -221.55 168.95 Q-202.3 134.3 -167.15 92.9 -96.65 10.1 -16.35 -23.75 L-2.65 -23.75 Q77.65 10.1 148.15 92.9 183.4 134.3 202.5 168.95 L202.5 606.7 183.5 606.7" fill="#000000" fill-opacity="0.44705883" fill-rule="evenodd" stroke="none"/>
    <path d="M-238.8 606.7 L-238.8 161.6 Q-218.1 124.15 -179.95 79.35 -103.7 -10.3 -16.95 -46.9 L-2.1 -46.9 Q84.65 -10.3 160.8 79.35 198.95 124.15 219.65 161.6 L219.65 606.7 202.5 606.7 202.5 168.95 Q183.4 134.3 148.15 92.9 77.65 10.1 -2.65 -23.75 L-16.35 -23.75 Q-96.65 10.1 -167.15 92.9 -202.3 134.3 -221.55 168.95 L-221.55 606.7 -238.8 606.7 M164.6 606.7 L164.6 190.85 Q148.8 162.4 119.9 128.4 62.1 60.3 -3.95 32.55 L-15.1 32.55 Q-81.0 60.3 -138.95 128.4 -167.85 162.4 -183.65 190.85 L-183.65 606.7 -202.5 606.7 -202.5 179.9 Q-185.0 148.35 -153.0 110.65 -88.85 35.2 -15.8 4.35 L-3.25 4.35 Q69.8 35.2 133.95 110.65 166.1 148.35 183.5 179.9 L183.5 606.7 164.6 606.7" fill="#000000" fill-opacity="0.09803922" fill-rule="evenodd" stroke="none"/>
    <path d="M-2107.25 -425.7 L-2107.25 648.05 -1053.6 640.45 1053.55 639.2 2107.1 648.05 2107.1 -472.2 2107.45 -472.2 2107.45 -510.9 M-2107.4 -505.85 L-2107.4 -425.7 -2107.25 -425.7 Z" fill="none" stroke="#000000" stroke-linecap="round" stroke-linejoin="miter-clip" stroke-miterlimit="4.0" stroke-width="1.0"/>
  </g>
</svg>
