<?xml version="1.0" encoding="UTF-8" standalone="no"?>
<svg xmlns:xlink="http://www.w3.org/1999/xlink" height="264.4px" width="321.65px" xmlns="http://www.w3.org/2000/svg">
  <g transform="matrix(1.0, 0.0, 0.0, 1.0, 160.8, 132.2)">
    <path d="M56.85 -105.6 L63.0 -104.2 77.0 -101.2 95.5 -101.2 Q97.3 -101.7 108.0 -106.45 118.2 -111.0 124.9 -112.7 L131.85 -113.95 Q142.5 -112.6 145.9 -101.2 L147.35 -100.25 150.4 -97.0 Q154.2 -91.75 153.65 -84.1 L153.4 -80.0 Q152.8 -74.2 150.5 -64.9 L149.8 -62.0 Q148.4 -54.1 147.8 -48.35 145.25 -24.25 153.4 -18.65 L151.9 -16.05 152.2 -15.6 151.85 -16.0 150.2 -13.2 Q146.95 -6.4 146.65 0.45 146.95 7.25 150.2 14.1 151.65 17.1 153.05 19.05 L153.1 19.0 153.4 19.4 153.55 19.6 Q151.45 22.45 149.85 25.75 148.5 28.6 147.65 31.5 144.9 40.8 147.7 50.45 L148.1 51.8 152.7 66.15 Q155.65 75.65 156.3 81.65 157.85 96.15 147.35 101.35 L145.0 103.05 Q140.6 105.8 135.95 105.65 L129.85 105.05 125.4 104.0 Q119.0 102.25 109.15 97.9 99.1 93.45 97.15 92.9 L95.65 92.5 80.15 92.5 Q75.1 93.25 65.2 95.55 L46.7 99.7 41.1 100.6 35.5 100.9 26.7 100.2 Q22.3 99.45 17.85 98.1 13.15 96.65 9.0 94.65 L2.7 92.9 Q1.05 89.45 0.35 85.7 L129.1 85.7 129.1 -86.2 0.3 -86.2 Q2.0 -95.15 8.8 -102.15 L11.25 -104.4 16.75 -106.4 Q30.05 -110.5 42.95 -108.55 L46.0 -108.0 56.85 -105.6 M15.15 118.0 Q16.75 121.15 16.8 124.05 16.9 125.9 15.9 127.65 14.85 129.5 13.05 130.4 L11.55 131.15 8.65 131.7 Q6.15 131.65 4.1 130.05 L3.6 129.65 Q2.3 128.45 1.4 126.7 -1.2 131.65 -5.85 131.7 -7.95 131.7 -10.25 130.4 -12.05 129.5 -13.1 127.65 -14.1 125.9 -14.0 124.05 -13.95 121.05 -12.25 117.8 L-11.6 116.65 Q-10.4 114.7 -8.4 112.1 L-6.85 110.25 -5.5 110.55 -2.1 111.1 -2.0 113.4 -1.9 114.0 -2.0 113.4 -2.1 111.1 Q4.15 111.8 9.4 109.9 L11.2 112.1 11.5 112.5 11.55 112.55 Q13.95 115.65 15.05 117.8 L15.15 118.0 M-131.8 -113.85 L-125.65 -112.7 Q-119.0 -111.0 -108.75 -106.45 -98.05 -101.75 -96.25 -101.2 L-77.75 -101.2 -63.75 -104.2 -56.05 -105.95 -46.8 -108.0 -40.85 -108.9 Q-29.35 -110.05 -17.5 -106.4 -11.4 -104.5 -7.2 -102.25 -5.3 -99.9 -3.55 -96.5 L-1.95 -93.05 Q-12.05 -100.4 -23.9 -101.7 -35.2 -103.0 -52.75 -98.85 -71.85 -94.35 -83.05 -93.6 -101.1 -92.4 -112.95 -98.45 -126.25 -105.35 -135.5 -104.1 -144.65 -102.9 -146.2 -94.35 -145.4 -97.8 -141.45 -99.75 -133.5 -103.6 -117.55 -95.9 -107.3 -91.0 -94.8 -89.7 -83.6 -88.5 -71.2 -90.25 -65.2 -91.1 -52.55 -94.3 -39.85 -97.5 -33.55 -98.4 -14.5 -101.15 -1.85 -92.85 -0.5 -89.5 0.3 -86.2 L-129.9 -86.2 -129.9 85.7 0.25 85.7 -0.65 88.75 -2.15 92.9 -3.85 93.05 -5.75 93.3 -5.6 93.15 -5.0 92.6 Q-17.35 98.35 -37.7 94.95 L-54.8 91.35 Q-65.65 88.9 -71.2 88.1 -83.6 86.35 -94.8 87.55 -107.3 88.85 -117.55 93.75 -133.05 101.2 -141.0 97.85 -145.15 96.05 -146.15 92.3 -144.6 100.75 -135.45 101.95 -126.25 103.15 -112.95 96.3 -101.1 90.25 -83.05 91.45 -71.85 92.2 -52.75 96.7 -38.15 100.15 -28.4 99.85 L-21.45 99.2 -21.5 99.25 -26.1 100.2 -34.9 100.9 -40.5 100.6 -46.1 99.7 -64.6 95.55 Q-74.55 93.25 -79.55 92.5 L-95.05 92.5 -96.55 92.9 Q-98.5 93.45 -108.55 97.9 -118.4 102.25 -124.8 104.0 L-129.3 105.1 -135.35 105.65 Q-140.0 105.8 -144.4 103.05 -148.6 100.45 -150.95 96.25 L-151.75 94.55 Q-154.8 89.15 -153.85 80.0 -153.25 74.35 -150.95 65.4 L-147.65 53.05 -147.2 49.2 Q-145.9 36.55 -147.5 29.05 L-148.1 27.15 -149.9 22.7 Q-151.15 20.7 -152.85 19.55 L-152.15 18.65 -152.2 18.55 -152.1 18.45 -152.05 18.5 Q-150.85 16.7 -149.65 14.1 -146.35 7.25 -146.05 0.45 -146.35 -6.4 -149.65 -13.2 L-152.85 -18.65 Q-150.3 -22.1 -148.3 -27.9 -147.35 -30.7 -146.75 -33.55 -146.3 -39.8 -147.2 -48.35 L-147.95 -54.3 -151.1 -66.2 Q-153.4 -75.15 -154.0 -80.8 -155.65 -96.7 -145.35 -101.2 -142.05 -112.3 -131.8 -113.85 M-11.6 -116.65 L-12.25 -117.8 Q-13.95 -121.05 -14.0 -124.0 -14.1 -125.85 -13.1 -127.65 -12.05 -129.5 -10.25 -130.4 -7.95 -131.7 -5.85 -131.7 -3.35 -131.65 -1.3 -130.05 0.3 -128.75 1.4 -126.7 L1.6 -127.05 Q2.6 -128.9 4.1 -130.05 L4.3 -130.2 Q6.25 -131.65 8.65 -131.7 10.8 -131.7 13.05 -130.4 14.85 -129.5 15.9 -127.65 16.9 -125.85 16.8 -124.0 16.75 -121.15 15.15 -118.0 L15.05 -117.8 Q13.85 -115.5 11.2 -112.1 L9.8 -110.4 Q4.4 -112.4 -2.15 -111.7 L-5.5 -111.15 -7.25 -110.75 -8.4 -112.1 Q-10.4 -114.7 -11.6 -116.65 M145.3 -100.8 L144.7 -101.2 145.1 -101.0 Q142.4 -103.5 137.8 -104.1 128.55 -105.35 115.25 -98.45 103.4 -92.4 85.35 -93.6 74.15 -94.35 55.0 -98.85 37.45 -103.0 26.2 -101.7 12.75 -100.2 1.65 -91.0 14.8 -101.45 35.85 -98.4 42.15 -97.5 54.85 -94.3 67.5 -91.1 73.5 -90.25 85.9 -88.5 97.1 -89.7 109.6 -91.0 119.85 -95.9 135.8 -103.6 143.75 -99.75 147.75 -97.8 148.5 -94.35 147.75 -98.4 145.3 -100.8 M4.75 -114.0 L6.4 -115.95 7.25 -117.0 Q8.6 -118.75 9.6 -120.65 10.8 -122.95 10.7 -124.0 L10.6 -124.65 10.05 -125.05 8.65 -125.55 8.6 -125.55 Q8.0 -125.55 7.25 -124.45 L6.75 -123.65 Q5.5 -121.3 4.7 -116.75 L4.55 -115.7 4.75 -114.0 4.2 -113.35 4.55 -115.7 4.2 -113.35 4.75 -114.0 M1.4 -126.7 L1.3 -126.5 Q-0.8 -122.4 -1.7 -115.8 -0.8 -122.4 1.3 -126.5 L1.4 -126.7 M128.5 -97.0 L122.8 -95.05 Q141.85 -96.55 133.7 -62.3 129.4 -44.4 134.9 -30.4 137.6 -23.4 141.2 -20.0 136.2 -29.6 136.85 -44.55 137.5 -59.15 143.25 -73.2 147.95 -84.75 143.35 -91.7 141.9 -93.9 139.7 -95.35 L137.8 -96.4 Q134.8 -98.55 128.5 -97.0 M139.05 18.85 Q136.6 22.3 134.9 26.65 129.4 40.65 133.7 58.55 141.85 92.8 122.8 91.3 L128.5 93.25 Q134.8 94.8 137.8 92.65 L139.7 91.6 Q141.9 90.15 143.35 87.95 147.95 81.0 143.25 69.45 137.5 55.4 136.85 40.85 136.2 25.85 141.2 16.25 140.3 17.1 139.05 18.85 M115.25 96.3 Q128.55 103.15 137.8 101.95 146.9 100.75 148.45 92.3 147.45 96.05 143.3 97.85 135.35 101.2 119.85 93.75 109.6 88.85 97.1 87.55 85.9 86.35 73.5 88.1 67.55 88.95 56.7 91.7 L39.5 95.7 Q19.1 99.55 6.5 92.5 16.9 99.3 29.6 99.85 39.7 100.3 55.0 96.7 74.15 92.2 85.35 91.45 103.4 90.25 115.25 96.3 M4.75 114.0 L4.55 115.75 4.7 116.75 Q5.5 121.3 6.75 123.65 7.8 125.55 8.6 125.55 L8.65 125.55 10.05 125.05 10.6 124.65 10.7 124.05 Q10.8 123.0 9.6 120.7 8.3 118.25 6.4 115.95 L4.75 114.0 4.2 113.4 4.55 115.75 4.2 113.4 4.75 114.0 M-1.7 115.8 Q-0.8 122.4 1.3 126.5 L1.4 126.7 1.3 126.5 Q-0.8 122.4 -1.7 115.8 L-1.9 114.0 -3.6 115.95 Q-5.5 118.25 -6.75 120.7 -7.95 123.0 -7.85 124.05 L-7.75 124.65 -7.25 125.05 -5.85 125.55 -5.8 125.55 Q-5.0 125.55 -3.95 123.65 -2.45 121.0 -1.7 115.8 M-1.7 -115.8 Q-2.5 -121.0 -3.95 -123.65 -5.0 -125.55 -5.8 -125.55 L-5.85 -125.55 -7.25 -125.05 -7.75 -124.65 -7.85 -124.0 Q-7.95 -123.0 -6.75 -120.65 -5.5 -118.25 -3.6 -115.95 L-1.9 -113.95 -1.7 -115.8 M-1.9 -113.95 L-2.0 -113.4 -2.15 -111.7 -2.0 -113.4 -1.9 -113.95 M-123.85 -95.05 Q-126.4 -96.25 -129.55 -97.0 -135.9 -98.55 -138.85 -96.4 L-140.75 -95.35 Q-142.95 -93.9 -144.4 -91.7 -149.0 -84.75 -144.3 -73.2 -138.55 -59.15 -137.9 -44.55 -137.25 -29.6 -142.25 -20.0 -138.65 -23.4 -135.95 -30.4 -130.5 -44.4 -134.75 -62.3 -139.4 -81.7 -135.2 -89.7 -132.0 -95.7 -123.85 -95.05 M-142.25 16.25 Q-137.25 25.85 -137.9 40.85 -138.55 55.4 -144.3 69.45 -149.0 81.0 -144.4 87.95 -142.1 91.45 -138.85 92.65 -135.9 94.8 -129.55 93.25 -126.4 92.5 -123.85 91.3 -132.0 91.95 -135.2 85.95 -139.4 77.95 -134.75 58.55 -130.5 40.65 -135.95 26.65 -137.65 22.3 -140.1 18.85 L-142.25 16.25" fill="#ffffff" fill-opacity="0.0" fill-rule="evenodd" stroke="none"/>
    <path d="M2.7 92.9 L9.0 94.65 Q13.15 96.65 17.85 98.1 22.3 99.45 26.7 100.2 L35.5 100.9 41.1 100.6 46.7 99.7 65.2 95.55 Q75.1 93.25 80.15 92.5 L95.65 92.5 97.15 92.9 Q99.1 93.45 109.15 97.9 119.0 102.25 125.4 104.0 L129.85 105.05 135.95 105.65 Q140.6 105.8 145.0 103.05 L147.35 101.35 Q157.85 96.15 156.3 81.65 155.65 75.65 152.7 66.15 L148.1 51.8 147.7 50.45 Q144.9 40.8 147.65 31.5 148.5 28.6 149.85 25.75 151.45 22.45 153.55 19.6 L153.4 19.4 153.1 19.0 153.05 19.05 Q151.65 17.1 150.2 14.1 146.95 7.25 146.65 0.45 146.95 -6.4 150.2 -13.2 L151.85 -16.0 152.2 -15.6 151.9 -16.05 153.4 -18.65 Q145.25 -24.25 147.8 -48.35 148.4 -54.1 149.8 -62.0 L150.5 -64.9 Q152.8 -74.2 153.4 -80.0 L153.65 -84.1 Q154.2 -91.75 150.4 -97.0 L147.35 -100.25 145.9 -101.2 Q142.5 -112.6 131.85 -113.95 L138.95 -113.75 Q148.85 -112.1 152.05 -101.2 L153.5 -100.25 Q155.25 -98.85 156.55 -97.0 159.0 -93.6 159.65 -89.25 160.7 -85.15 159.95 -80.1 L157.25 -65.4 Q155.1 -53.95 154.3 -46.3 153.15 -35.35 154.2 -28.25 155.85 -20.3 159.55 -17.75 L158.9 -16.6 Q157.75 -14.4 156.35 -11.05 153.45 -4.2 153.15 2.45 L153.45 5.6 Q154.35 9.85 156.35 14.1 L159.95 21.55 Q151.75 27.1 154.3 51.2 L155.0 57.2 159.1 80.6 159.85 84.15 Q160.6 87.45 160.2 90.7 159.85 95.35 157.6 99.0 155.6 102.2 152.7 103.95 148.45 113.7 137.1 113.95 L135.45 113.95 131.7 113.8 132.1 113.75 Q124.15 112.8 111.85 107.6 L96.45 101.1 94.95 100.7 80.85 100.7 Q75.8 101.45 65.85 103.75 L57.2 105.75 47.35 107.9 47.2 107.95 44.8 108.35 42.85 108.65 39.45 108.95 36.05 109.05 27.0 108.45 Q22.1 107.8 17.2 106.3 L12.1 104.5 8.8 101.5 Q4.95 97.5 2.7 92.9 M-55.9 105.9 L-65.3 103.75 Q-75.25 101.45 -80.25 100.7 L-94.35 100.7 -95.9 101.1 Q-96.25 101.2 -111.25 107.6 L-114.2 108.8 Q-118.6 110.55 -122.3 111.7 L-125.35 112.55 -130.4 113.6 -131.5 113.75 -131.1 113.8 -134.85 113.95 -136.3 113.95 Q-147.85 113.8 -152.1 103.95 -155.0 102.2 -157.0 99.0 -158.35 96.75 -159.0 94.15 -160.9 89.3 -160.0 83.0 -155.75 62.2 -154.35 49.2 -151.85 25.15 -160.0 19.55 -158.45 17.5 -156.8 14.1 -153.55 7.25 -153.25 0.45 -153.55 -6.4 -156.8 -13.2 L-160.0 -18.65 Q-151.85 -24.25 -154.35 -48.35 -155.2 -55.95 -157.3 -67.4 L-160.0 -82.1 Q-161.3 -91.05 -157.0 -97.0 -155.7 -98.9 -153.95 -100.25 L-152.5 -101.2 Q-148.7 -113.85 -135.8 -114.05 L-131.25 -113.95 -131.8 -113.85 Q-142.05 -112.3 -145.35 -101.2 -155.65 -96.7 -154.0 -80.8 -153.4 -75.15 -151.1 -66.2 L-147.95 -54.3 -147.2 -48.35 Q-146.3 -39.8 -146.75 -33.55 -147.35 -30.7 -148.3 -27.9 -150.3 -22.1 -152.85 -18.65 L-149.65 -13.2 Q-146.35 -6.4 -146.05 0.45 -146.35 7.25 -149.65 14.1 -150.85 16.7 -152.05 18.5 L-152.1 18.45 -152.2 18.55 -152.15 18.65 -152.85 19.55 Q-151.15 20.7 -149.9 22.7 L-148.1 27.15 -147.5 29.05 Q-145.9 36.55 -147.2 49.2 L-147.65 53.05 -150.95 65.4 Q-153.25 74.35 -153.85 80.0 -154.8 89.15 -151.75 94.55 L-150.95 96.25 Q-148.6 100.45 -144.4 103.05 -140.0 105.8 -135.35 105.65 L-129.3 105.1 -124.8 104.0 Q-118.4 102.25 -108.55 97.9 -98.5 93.45 -96.55 92.9 L-95.05 92.5 -79.55 92.5 Q-74.55 93.25 -64.6 95.55 L-46.1 99.7 -40.5 100.6 -34.9 100.9 -26.1 100.2 -21.5 99.25 -21.45 99.2 -21.25 99.05 -21.2 99.05 -21.15 99.05 -20.9 99.0 -20.75 99.0 -20.4 98.85 -20.1 98.8 -5.6 93.15 -5.75 93.3 -3.85 93.05 -2.15 92.9 -3.55 95.9 Q-6.05 100.8 -8.95 103.5 -12.3 105.0 -16.6 106.3 -21.3 107.7 -25.95 108.35 L-34.55 109.05 -36.2 109.05 -41.05 108.8 -46.75 107.9 -55.9 105.9" fill="#000000" fill-opacity="0.29803923" fill-rule="evenodd" stroke="none"/>
    <path d="M145.3 -100.8 Q147.75 -98.4 148.5 -94.35 147.75 -97.8 143.75 -99.75 135.8 -103.6 119.85 -95.9 109.6 -91.0 97.1 -89.7 85.9 -88.5 73.5 -90.25 67.5 -91.1 54.85 -94.3 42.15 -97.5 35.85 -98.4 14.8 -101.45 1.65 -91.0 12.75 -100.2 26.2 -101.7 37.45 -103.0 55.0 -98.85 74.15 -94.35 85.35 -93.6 103.4 -92.4 115.25 -98.45 128.55 -105.35 137.8 -104.1 142.4 -103.5 145.1 -101.0 L144.7 -101.2 145.3 -100.8 M128.5 -97.0 Q134.8 -98.55 137.8 -96.4 L139.7 -95.35 Q141.9 -93.9 143.35 -91.7 147.95 -84.75 143.25 -73.2 137.5 -59.15 136.85 -44.55 136.2 -29.6 141.2 -20.0 137.6 -23.4 134.9 -30.4 129.4 -44.4 133.7 -62.3 141.85 -96.55 122.8 -95.05 L128.5 -97.0 M115.25 96.3 Q103.4 90.25 85.35 91.45 74.15 92.2 55.0 96.7 39.7 100.3 29.6 99.85 16.9 99.3 6.5 92.5 19.1 99.55 39.5 95.7 L56.7 91.7 Q67.55 88.95 73.5 88.1 85.9 86.35 97.1 87.55 109.6 88.85 119.85 93.75 135.35 101.2 143.3 97.85 147.45 96.05 148.45 92.3 146.9 100.75 137.8 101.95 128.55 103.15 115.25 96.3 M139.05 18.85 Q140.3 17.1 141.2 16.25 136.2 25.85 136.85 40.85 137.5 55.4 143.25 69.45 147.95 81.0 143.35 87.95 141.9 90.15 139.7 91.6 L137.8 92.65 Q134.8 94.8 128.5 93.25 L122.8 91.3 Q141.85 92.8 133.7 58.55 129.4 40.65 134.9 26.65 136.6 22.3 139.05 18.85 M-1.85 -92.85 Q-14.5 -101.15 -33.55 -98.4 -39.85 -97.5 -52.55 -94.3 -65.2 -91.1 -71.2 -90.25 -83.6 -88.5 -94.8 -89.7 -107.3 -91.0 -117.55 -95.9 -133.5 -103.6 -141.45 -99.75 -145.4 -97.8 -146.2 -94.35 -144.65 -102.9 -135.5 -104.1 -126.25 -105.35 -112.95 -98.45 -101.1 -92.4 -83.05 -93.6 -71.85 -94.35 -52.75 -98.85 -35.2 -103.0 -23.9 -101.7 -12.05 -100.4 -1.95 -93.05 L-1.85 -92.85 M-123.85 -95.05 Q-132.0 -95.7 -135.2 -89.7 -139.4 -81.7 -134.75 -62.3 -130.5 -44.4 -135.95 -30.4 -138.65 -23.4 -142.25 -20.0 -137.25 -29.6 -137.9 -44.55 -138.55 -59.15 -144.3 -73.2 -149.0 -84.75 -144.4 -91.7 -142.95 -93.9 -140.75 -95.35 L-138.85 -96.4 Q-135.9 -98.55 -129.55 -97.0 -126.4 -96.25 -123.85 -95.05 M-21.45 99.2 L-28.4 99.85 Q-38.15 100.15 -52.75 96.7 -71.85 92.2 -83.05 91.45 -101.1 90.25 -112.95 96.3 -126.25 103.15 -135.45 101.95 -144.6 100.75 -146.15 92.3 -145.15 96.05 -141.0 97.85 -133.05 101.2 -117.55 93.75 -107.3 88.85 -94.8 87.55 -83.6 86.35 -71.2 88.1 -65.65 88.9 -54.8 91.35 L-37.7 94.95 Q-17.35 98.35 -5.0 92.6 L-5.6 93.15 -20.1 98.8 -20.4 98.85 -20.75 99.0 -20.9 99.0 -21.15 99.05 -21.2 99.05 -21.25 99.05 -21.45 99.2 M-142.25 16.25 L-140.1 18.85 Q-137.65 22.3 -135.95 26.65 -130.5 40.65 -134.75 58.55 -139.4 77.95 -135.2 85.95 -132.0 91.95 -123.85 91.3 -126.4 92.5 -129.55 93.25 -135.9 94.8 -138.85 92.65 -142.1 91.45 -144.4 87.95 -149.0 81.0 -144.3 69.45 -138.55 55.4 -137.9 40.85 -137.25 25.85 -142.25 16.25" fill="#ffffff" fill-opacity="0.24705882" fill-rule="evenodd" stroke="none"/>
    <path d="M11.25 -104.4 L8.8 -102.15 Q2.0 -95.15 0.3 -86.2 -0.5 -89.5 -1.85 -92.85 L-1.95 -93.05 -3.55 -96.5 Q-5.3 -99.9 -7.2 -102.25 -11.2 -107.05 -16.05 -107.35 L-13.05 -108.8 -12.05 -109.2 -7.25 -110.75 -5.5 -111.15 -2.15 -111.7 Q4.4 -112.4 9.8 -110.4 L13.15 -108.8 15.3 -107.35 Q13.35 -106.25 11.25 -104.4 M0.35 85.7 Q1.05 89.45 2.7 92.9 4.95 97.5 8.8 101.5 L12.1 104.5 15.3 106.7 12.7 108.4 Q11.1 109.3 9.4 109.9 4.15 111.8 -2.1 111.1 L-5.5 110.55 -6.85 110.25 -11.55 108.75 -13.05 108.15 -16.05 106.7 Q-12.25 106.5 -8.95 103.5 -6.05 100.8 -3.55 95.9 L-2.15 92.9 -0.65 88.75 0.25 85.7 0.3 85.55 0.35 85.7" fill="#000000" fill-opacity="0.14901961" fill-rule="evenodd" stroke="none"/>
    <path d="M56.85 -105.6 L46.0 -108.0 42.95 -108.55 42.0 -109.25 Q39.0 -111.5 37.55 -113.25 33.75 -116.5 29.15 -116.6 23.5 -116.75 16.05 -111.15 L13.15 -108.8 9.8 -110.4 11.2 -112.1 Q13.85 -115.5 15.05 -117.8 L15.15 -118.0 Q22.45 -122.7 29.15 -122.75 36.05 -122.75 41.7 -117.75 L42.95 -116.5 Q44.15 -115.3 45.7 -114.15 47.45 -112.75 49.35 -111.9 51.4 -110.95 52.85 -111.0 54.05 -111.0 55.2 -111.65 L55.2 -111.85 Q55.2 -113.35 54.7 -113.95 L54.15 -114.45 52.55 -114.7 50.55 -114.5 Q49.3 -114.25 48.2 -114.95 47.15 -115.6 46.9 -116.9 46.65 -118.15 47.35 -119.2 48.05 -120.25 49.3 -120.5 L52.55 -120.85 Q54.9 -120.9 56.85 -119.95 58.75 -119.0 59.8 -117.4 61.3 -115.1 61.3 -111.85 L61.1 -109.35 Q60.85 -108.3 60.15 -107.7 58.6 -106.3 56.85 -105.6 M57.2 105.75 Q58.75 106.45 60.15 107.75 60.85 108.3 61.1 109.35 L61.3 111.85 Q61.3 115.1 59.8 117.4 58.75 119.0 56.85 119.95 54.9 120.9 52.55 120.85 L49.3 120.5 Q48.05 120.25 47.35 119.2 46.65 118.15 46.9 116.9 47.15 115.65 48.2 114.95 49.3 114.25 50.55 114.5 L52.55 114.75 54.15 114.45 54.7 114.0 Q55.2 113.35 55.2 111.85 L55.2 111.65 Q54.2 111.1 52.85 111.0 51.4 110.95 49.35 111.9 47.5 112.8 45.7 114.15 44.15 115.3 42.95 116.5 L41.7 117.75 Q36.15 122.75 29.15 122.75 22.45 122.7 15.15 118.0 L15.05 117.8 Q13.95 115.65 11.55 112.55 L11.5 112.5 11.2 112.1 9.4 109.9 Q11.1 109.3 12.7 108.4 14.3 109.85 16.05 111.15 23.5 116.75 29.15 116.6 33.65 116.6 37.55 113.25 39.0 111.5 42.0 109.25 L42.85 108.65 44.8 108.35 47.2 107.95 47.35 107.9 57.2 105.75 M-11.6 116.65 Q-19.9 122.65 -27.55 122.75 -34.6 122.75 -40.1 117.75 L-40.4 117.5 -41.35 116.5 Q-43.2 114.6 -45.85 112.95 -49.15 110.9 -51.25 111.0 -52.65 111.1 -53.6 111.65 L-53.6 111.85 Q-53.6 113.35 -53.1 114.0 L-52.55 114.45 -50.95 114.75 -48.95 114.5 Q-47.7 114.25 -46.6 114.95 -45.55 115.65 -45.3 116.9 -45.05 118.15 -45.75 119.2 -46.45 120.25 -47.7 120.5 L-50.95 120.85 Q-53.3 120.9 -55.3 119.95 -57.2 119.0 -58.2 117.4 -59.75 115.1 -59.75 111.85 L-59.5 109.35 Q-59.25 108.3 -58.55 107.75 -57.3 106.6 -55.9 105.9 L-46.75 107.9 -41.05 108.8 -40.4 109.25 Q-37.9 111.15 -35.95 113.25 -32.05 116.6 -27.55 116.6 -23.6 116.65 -18.75 114.0 -15.1 111.95 -11.55 108.75 L-6.85 110.25 -8.4 112.1 Q-10.4 114.7 -11.6 116.65 M-56.05 -105.95 L-58.55 -107.7 Q-59.25 -108.3 -59.5 -109.35 L-59.75 -111.85 Q-59.75 -115.1 -58.2 -117.4 -57.2 -119.0 -55.3 -119.95 -53.3 -120.9 -50.95 -120.85 L-47.7 -120.5 Q-46.45 -120.25 -45.75 -119.2 -45.05 -118.15 -45.3 -116.9 -45.55 -115.6 -46.6 -114.95 -47.65 -114.25 -48.95 -114.5 L-50.95 -114.7 -52.55 -114.45 -53.1 -113.95 Q-53.6 -113.35 -53.6 -111.85 L-53.6 -111.65 Q-52.5 -111.0 -51.25 -111.0 -49.15 -110.9 -45.85 -112.95 -43.2 -114.6 -41.35 -116.5 L-40.4 -117.5 -40.1 -117.75 Q-34.5 -122.75 -27.55 -122.75 -19.9 -122.65 -11.6 -116.65 -10.4 -114.7 -8.4 -112.1 L-7.25 -110.75 -12.05 -109.2 Q-15.35 -112.1 -18.75 -114.0 -23.6 -116.65 -27.55 -116.6 -32.15 -116.5 -35.95 -113.25 -37.9 -111.1 -40.4 -109.25 L-40.85 -108.9 -46.8 -108.0 -56.05 -105.95" fill="#ffffff" fill-opacity="0.09803922" fill-rule="evenodd" stroke="none"/>
    <path d="M131.85 -113.95 L124.9 -112.7 Q118.2 -111.0 108.0 -106.45 97.3 -101.7 95.5 -101.2 L77.0 -101.2 63.0 -104.2 56.85 -105.6 46.0 -108.0 42.95 -108.55 Q30.05 -110.5 16.75 -106.4 L11.25 -104.4 8.8 -102.15 Q2.0 -95.15 0.3 -86.2 -0.5 -89.5 -1.85 -92.85 L-1.95 -93.05 -3.55 -96.5 Q-5.3 -99.9 -7.2 -102.25 -11.2 -107.05 -16.05 -107.35 L-13.05 -108.8 -12.05 -109.2 -7.25 -110.75 -8.4 -112.1 Q-10.4 -114.7 -11.6 -116.65 L-12.25 -117.8 Q-13.95 -121.05 -14.0 -124.0 -14.1 -125.85 -13.1 -127.65 -12.05 -129.5 -10.25 -130.4 -7.95 -131.7 -5.85 -131.7 -3.35 -131.65 -1.3 -130.05 0.3 -128.75 1.4 -126.7 L1.6 -127.05 Q2.6 -128.9 4.1 -130.05 L4.3 -130.2 Q6.25 -131.65 8.65 -131.7 10.8 -131.7 13.05 -130.4 14.85 -129.5 15.9 -127.65 16.9 -125.85 16.8 -124.0 16.75 -121.15 15.15 -118.0 22.45 -122.7 29.15 -122.75 36.05 -122.75 41.7 -117.75 L42.95 -116.5 Q44.15 -115.3 45.7 -114.15 47.45 -112.75 49.35 -111.9 51.4 -110.95 52.85 -111.0 54.05 -111.0 55.2 -111.65 L55.2 -111.85 Q55.2 -113.35 54.7 -113.95 L54.15 -114.45 52.55 -114.7 50.55 -114.5 Q49.3 -114.25 48.2 -114.95 47.15 -115.6 46.9 -116.9 46.65 -118.15 47.35 -119.2 48.05 -120.25 49.3 -120.5 L52.55 -120.85 Q54.9 -120.9 56.85 -119.95 58.75 -119.0 59.8 -117.4 61.3 -115.1 61.3 -111.85 L61.1 -109.35 Q60.85 -108.3 60.15 -107.7 58.6 -106.3 56.85 -105.6 M0.35 85.7 Q1.05 89.45 2.7 92.9 4.95 97.5 8.8 101.5 L12.1 104.5 15.3 106.7 12.7 108.4 Q11.1 109.3 9.4 109.9 L11.2 112.1 11.5 112.5 M131.85 -113.95 L138.95 -113.75 Q148.85 -112.1 152.05 -101.2 L153.5 -100.25 Q155.25 -98.85 156.55 -97.0 159.0 -93.6 159.65 -89.25 160.7 -85.15 159.95 -80.1 L157.25 -65.4 Q155.1 -53.95 154.3 -46.3 153.15 -35.35 154.2 -28.25 155.85 -20.3 159.55 -17.75 L158.9 -16.6 Q157.75 -14.4 156.35 -11.05 153.45 -4.2 153.15 2.45 L153.45 5.6 Q154.35 9.85 156.35 14.1 L159.95 21.55 Q151.75 27.1 154.3 51.2 L155.0 57.2 159.1 80.6 159.85 84.15 Q160.6 87.45 160.2 90.7 159.85 95.35 157.6 99.0 155.6 102.2 152.7 103.95 148.45 113.7 137.1 113.95 L135.45 113.95 131.7 113.8 132.1 113.75 Q124.15 112.8 111.85 107.6 L96.45 101.1 94.95 100.7 80.85 100.7 Q75.8 101.45 65.85 103.75 L57.2 105.75 Q58.75 106.45 60.15 107.75 60.85 108.3 61.1 109.35 L61.3 111.85 Q61.3 115.1 59.8 117.4 58.75 119.0 56.85 119.95 54.9 120.9 52.55 120.85 L49.3 120.5 Q48.05 120.25 47.35 119.2 46.65 118.15 46.9 116.9 47.15 115.65 48.2 114.95 49.3 114.25 50.55 114.5 L52.55 114.75 54.15 114.45 54.7 114.0 Q55.2 113.35 55.2 111.85 L55.2 111.65 Q54.2 111.1 52.85 111.0 51.4 110.95 49.35 111.9 47.5 112.8 45.7 114.15 44.15 115.3 42.95 116.5 L41.7 117.75 Q36.15 122.75 29.15 122.75 22.45 122.7 15.15 118.0 16.75 121.15 16.8 124.05 16.9 125.9 15.9 127.65 14.85 129.5 13.05 130.4 L11.55 131.15 8.65 131.7 Q6.15 131.65 4.1 130.05 L3.6 129.65 Q2.3 128.45 1.4 126.7 -1.2 131.65 -5.85 131.7 -7.95 131.7 -10.25 130.4 -12.05 129.5 -13.1 127.65 -14.1 125.9 -14.0 124.05 -13.95 121.05 -12.25 117.8 L-11.6 116.65 Q-19.9 122.65 -27.55 122.75 -34.6 122.75 -40.1 117.75 L-40.4 117.5 -41.35 116.5 Q-43.2 114.6 -45.85 112.95 -49.15 110.9 -51.25 111.0 -52.65 111.1 -53.6 111.65 L-53.6 111.85 Q-53.6 113.35 -53.1 114.0 L-52.55 114.45 -50.95 114.75 -48.95 114.5 Q-47.7 114.25 -46.6 114.95 -45.55 115.65 -45.3 116.9 -45.05 118.15 -45.75 119.2 -46.45 120.25 -47.7 120.5 L-50.95 120.85 Q-53.3 120.9 -55.3 119.95 -57.2 119.0 -58.2 117.4 -59.75 115.1 -59.75 111.85 L-59.5 109.35 Q-59.25 108.3 -58.55 107.75 -57.3 106.6 -55.9 105.9 L-65.3 103.75 Q-75.25 101.45 -80.25 100.7 L-94.35 100.7 -95.9 101.1 Q-96.25 101.2 -111.25 107.6 L-114.2 108.8 Q-118.6 110.55 -122.3 111.7 L-125.35 112.55 -130.4 113.6 -131.5 113.75 -131.1 113.8 -134.85 113.95 -136.3 113.95 Q-147.85 113.8 -152.1 103.95 -155.0 102.2 -157.0 99.0 -158.35 96.75 -159.0 94.15 -160.9 89.3 -160.0 83.0 -155.75 62.2 -154.35 49.2 -151.85 25.15 -160.0 19.55 -158.45 17.5 -156.8 14.1 -153.55 7.25 -153.25 0.45 -153.55 -6.4 -156.8 -13.2 L-160.0 -18.65 Q-151.85 -24.25 -154.35 -48.35 -155.2 -55.95 -157.3 -67.4 L-160.0 -82.1 Q-161.3 -91.05 -157.0 -97.0 -155.7 -98.9 -153.95 -100.25 L-152.5 -101.2 Q-148.7 -113.85 -135.8 -114.05 L-131.25 -113.95 -131.8 -113.85 -125.65 -112.7 Q-119.0 -111.0 -108.75 -106.45 -98.05 -101.75 -96.25 -101.2 L-77.75 -101.2 -63.75 -104.2 -56.05 -105.95 -58.55 -107.7 Q-59.25 -108.3 -59.5 -109.35 L-59.75 -111.85 Q-59.75 -115.1 -58.2 -117.4 -57.2 -119.0 -55.3 -119.95 -53.3 -120.9 -50.95 -120.85 L-47.7 -120.5 Q-46.45 -120.25 -45.75 -119.2 -45.05 -118.15 -45.3 -116.9 -45.55 -115.6 -46.6 -114.95 -47.65 -114.25 -48.95 -114.5 L-50.95 -114.7 -52.55 -114.45 -53.1 -113.95 Q-53.6 -113.35 -53.6 -111.85 L-53.6 -111.65 Q-52.5 -111.0 -51.25 -111.0 -49.15 -110.9 -45.85 -112.95 -43.2 -114.6 -41.35 -116.5 L-40.4 -117.5 -40.1 -117.75 Q-34.5 -122.75 -27.55 -122.75 -19.9 -122.65 -11.6 -116.65 M-1.7 -115.8 Q-0.8 -122.4 1.3 -126.5 L1.4 -126.7 M15.15 -118.0 L15.05 -117.8 Q13.85 -115.5 11.2 -112.1 L9.8 -110.4 13.15 -108.8 16.05 -111.15 Q23.5 -116.75 29.15 -116.6 33.75 -116.5 37.55 -113.25 39.0 -111.5 42.0 -109.25 L42.95 -108.55 M13.15 -108.8 L15.3 -107.35 Q13.35 -106.25 11.25 -104.4 M0.25 85.7 L0.3 85.55 0.35 85.7 M42.85 108.65 L44.8 108.35 47.2 107.95 47.35 107.9 57.2 105.75 M42.85 108.65 L42.0 109.25 Q39.0 111.5 37.55 113.25 33.65 116.6 29.15 116.6 23.5 116.75 16.05 111.15 14.3 109.85 12.7 108.4 M11.55 112.55 Q13.95 115.65 15.05 117.8 L15.15 118.0 M42.85 108.65 L39.45 108.95 36.05 109.05 27.0 108.45 Q22.1 107.8 17.2 106.3 L12.1 104.5 M1.4 126.7 L1.3 126.5 Q-0.8 122.4 -1.7 115.8 L-1.9 114.0 -2.0 113.4 -2.1 111.1 -5.5 110.55 -6.85 110.25 -8.4 112.1 Q-10.4 114.7 -11.6 116.65 M-40.85 -108.9 L-46.8 -108.0 -56.05 -105.95 M-1.9 -113.95 L-1.7 -115.8 M-12.05 -109.2 Q-15.35 -112.1 -18.75 -114.0 -23.6 -116.65 -27.55 -116.6 -32.15 -116.5 -35.95 -113.25 -37.9 -111.1 -40.4 -109.25 L-40.85 -108.9 Q-29.35 -110.05 -17.5 -106.4 -11.4 -104.5 -7.2 -102.25 M-2.15 -111.7 L-2.0 -113.4 -1.9 -113.95 M-7.25 -110.75 L-5.5 -111.15 -2.15 -111.7 Q4.4 -112.4 9.8 -110.4 M-2.15 92.9 L-0.65 88.75 0.25 85.7 M-8.95 103.5 Q-6.05 100.8 -3.55 95.9 L-2.15 92.9 M-8.95 103.5 Q-12.25 106.5 -16.05 106.7 L-13.05 108.15 -11.55 108.75 -6.85 110.25 M-11.55 108.75 Q-15.1 111.95 -18.75 114.0 -23.6 116.65 -27.55 116.6 -32.05 116.6 -35.95 113.25 -37.9 111.15 -40.4 109.25 L-41.05 108.8 -46.75 107.9 -55.9 105.9 M-41.05 108.8 L-36.2 109.05 -34.55 109.05 -25.95 108.35 Q-21.3 107.7 -16.6 106.3 -12.3 105.0 -8.95 103.5 M-2.1 111.1 Q4.15 111.8 9.4 109.9" fill="none" stroke="#000000" stroke-linecap="round" stroke-linejoin="miter-clip" stroke-miterlimit="4.0" stroke-width="1.0"/>
    <path d="M0.3 -86.2 L129.1 -86.2 129.1 85.7 0.35 85.7 M4.75 -114.0 L6.4 -115.95 7.25 -117.0 Q8.6 -118.75 9.6 -120.65 10.8 -122.95 10.7 -124.0 L10.6 -124.65 10.05 -125.05 8.65 -125.55 8.6 -125.55 Q8.0 -125.55 7.25 -124.45 L6.75 -123.65 Q5.5 -121.3 4.7 -116.75 L4.55 -115.7 4.75 -114.0 4.2 -113.35 4.55 -115.7 M11.5 112.5 L11.55 112.55 M4.75 114.0 L4.55 115.75 4.7 116.75 Q5.5 121.3 6.75 123.65 7.8 125.55 8.6 125.55 L8.65 125.55 10.05 125.05 10.6 124.65 10.7 124.05 Q10.8 123.0 9.6 120.7 8.3 118.25 6.4 115.95 L4.75 114.0 4.2 113.4 4.55 115.75 M-1.7 115.8 Q-2.45 121.0 -3.95 123.65 -5.0 125.55 -5.8 125.55 L-5.85 125.55 -7.25 125.05 -7.75 124.65 -7.85 124.05 Q-7.95 123.0 -6.75 120.7 -5.5 118.25 -3.6 115.95 L-1.9 114.0 M-1.7 -115.8 Q-2.5 -121.0 -3.95 -123.65 -5.0 -125.55 -5.8 -125.55 L-5.85 -125.55 -7.25 -125.05 -7.75 -124.65 -7.85 -124.0 Q-7.95 -123.0 -6.75 -120.65 -5.5 -118.25 -3.6 -115.95 L-1.9 -113.95 M0.25 85.7 L-129.9 85.7 -129.9 -86.2 0.3 -86.2" fill="none" stroke="#000000" stroke-linecap="round" stroke-linejoin="miter-clip" stroke-miterlimit="4.0" stroke-opacity="0.6" stroke-width="1.0"/>
  </g>
</svg>
