<?xml version="1.0" encoding="UTF-8" standalone="no"?>
<svg xmlns:xlink="http://www.w3.org/1999/xlink" height="114.15px" width="80.95px" xmlns="http://www.w3.org/2000/svg">
  <g transform="matrix(1.0, 0.0, 0.0, 1.0, 40.45, 57.1)">
    <path d="M40.0 -15.8 L40.0 -11.95 10.15 0.35 0.4 0.35 10.15 0.35 -38.85 20.55 -38.85 16.35 0.4 0.35 40.0 -15.8 M-39.95 -0.95 L-39.95 -12.25 40.0 -44.9 40.0 -36.3 -39.95 -0.95" fill="#ffffff" fill-opacity="0.29803923" fill-rule="evenodd" stroke="none"/>
    <path d="M40.0 -11.95 L40.0 0.35 40.0 56.55 -39.95 56.55 -39.95 0.35 -39.95 -0.95 40.0 -36.3 40.0 -15.8 0.4 0.35 -38.85 16.35 -38.85 20.55 10.15 0.35 40.0 -11.95 M-39.95 -12.25 L-39.95 -56.6 40.0 -56.6 40.0 -44.9 -39.95 -12.25 M40.0 0.35 L10.15 0.35 40.0 0.35 M0.4 0.35 L-39.95 0.35 0.4 0.35" fill="#ffffff" fill-opacity="0.0" fill-rule="evenodd" stroke="none"/>
    <path d="M40.0 -15.8 L40.0 -11.95 40.0 0.35 40.0 56.55 -39.95 56.55 -39.95 0.35 -39.95 -0.95 -39.95 -12.25 -39.95 -56.6 40.0 -56.6 40.0 -44.9 40.0 -36.3 40.0 -15.8 M0.4 0.35 L10.15 0.35 40.0 0.35 M-39.95 0.35 L0.4 0.35" fill="none" stroke="#000000" stroke-linecap="round" stroke-linejoin="miter-clip" stroke-miterlimit="4.0" stroke-opacity="0.6" stroke-width="1.0"/>
  </g>
</svg>
