<?xml version="1.0" encoding="UTF-8" standalone="no"?>
<svg xmlns:xlink="http://www.w3.org/1999/xlink" height="1405.95px" width="418.1px" xmlns="http://www.w3.org/2000/svg">
  <g transform="matrix(1.0, 0.0, 0.0, 1.0, 209.05, 702.95)">
    <path d="M73.15 -449.45 L73.15 -405.55 49.0 -405.55 49.0 -449.45 73.15 -449.45 M13.9 -405.55 L-10.25 -405.55 -10.25 -449.45 13.9 -449.45 13.9 -405.55 M132.45 -405.55 L108.3 -405.55 108.3 -449.45 132.45 -449.45 132.45 -405.55 M191.7 -449.45 L191.7 -405.55 167.55 -405.55 167.55 -449.45 191.7 -449.45 M208.55 200.55 L208.55 297.15 -208.55 297.15 -208.55 200.55 208.55 200.55 M-163.9 -449.45 L-163.9 -405.55 -188.05 -405.55 -188.05 -449.45 -163.9 -449.45 M-104.65 -405.55 L-128.8 -405.55 -128.8 -449.45 -104.65 -449.45 -104.65 -405.55 M-45.35 -449.45 L-45.35 -405.55 -69.5 -405.55 -69.5 -449.45 -45.35 -449.45" fill="#000000" fill-opacity="0.24705882" fill-rule="evenodd" stroke="none"/>
    <path d="M191.7 -449.45 L167.55 -449.45 167.55 -405.55 191.7 -405.55 191.7 -449.45 M132.45 -405.55 L132.45 -449.45 108.3 -449.45 108.3 -405.55 132.45 -405.55 M13.9 -405.55 L13.9 -449.45 -10.25 -449.45 -10.25 -405.55 13.9 -405.55 M73.15 -449.45 L49.0 -449.45 49.0 -405.55 73.15 -405.55 73.15 -449.45 M199.65 -399.45 L-197.35 -399.45 -197.35 -463.9 199.65 -463.9 199.65 -399.45 M-45.35 -449.45 L-69.5 -449.45 -69.5 -405.55 -45.35 -405.55 -45.35 -449.45 M-104.65 -405.55 L-104.65 -449.45 -128.8 -449.45 -128.8 -405.55 -104.65 -405.55 M-163.9 -449.45 L-188.05 -449.45 -188.05 -405.55 -163.9 -405.55 -163.9 -449.45" fill="#000000" fill-opacity="0.047058824" fill-rule="evenodd" stroke="none"/>
    <path d="M199.65 -399.45 L199.65 -463.9 -197.35 -463.9 -197.35 -399.45 199.65 -399.45 M208.55 297.15 L208.55 702.5 -208.55 702.5 -208.55 297.15 208.55 297.15 M-208.55 200.55 L-208.55 -702.45 208.55 -702.45 208.55 200.55 -208.55 200.55" fill="#ffffff" fill-opacity="0.0" fill-rule="evenodd" stroke="none"/>
    <path d="M208.55 200.55 L208.55 297.15 208.55 702.5 -208.55 702.5 -208.55 297.15 -208.55 200.55 -208.55 -702.45 208.55 -702.45 208.55 200.55" fill="none" stroke="#000000" stroke-linecap="round" stroke-linejoin="miter-clip" stroke-miterlimit="4.0" stroke-width="1.0"/>
    <path d="M199.65 -399.45 L-197.35 -399.45 -197.35 -463.9 199.65 -463.9 199.65 -399.45" fill="none" stroke="#000000" stroke-linecap="round" stroke-linejoin="miter-clip" stroke-miterlimit="4.0" stroke-opacity="0.4" stroke-width="1.0"/>
  </g>
</svg>
