<?xml version="1.0" encoding="UTF-8" standalone="no"?>
<svg xmlns:xlink="http://www.w3.org/1999/xlink" height="656.4px" width="79.7px" xmlns="http://www.w3.org/2000/svg">
  <g transform="matrix(1.0, 0.0, 0.0, 1.0, 39.85, 328.2)">
    <path d="M1.65 -285.25 Q5.1 -285.9 7.65 -286.75 L7.65 -275.3 Q5.1 -273.15 1.65 -271.95 -4.75 -269.75 -14.25 -270.8 L-17.9 -271.3 -23.5 -272.5 -26.6 -273.45 -27.3 -273.65 -27.85 -273.65 -39.35 -273.65 -39.35 -284.55 -27.85 -285.5 -26.6 -285.6 -26.2 -285.65 Q-22.15 -284.65 -17.9 -284.25 -10.65 -283.55 -2.75 -284.55 L1.65 -285.25 M-26.2 -273.65 L-26.2 -285.65 -26.2 -273.65 M1.6 134.25 L7.65 132.75 7.65 144.2 Q5.05 146.35 1.6 147.55 -4.8 149.75 -14.25 148.7 L-17.9 148.2 -23.5 147.0 -26.65 146.05 -27.3 145.85 -27.9 145.85 -39.35 145.85 -39.35 134.9 -27.9 133.95 -26.65 133.85 -26.2 133.8 -17.9 135.25 Q-10.65 135.95 -2.75 134.95 L1.6 134.25 M-26.2 145.85 L-26.2 133.8 -26.2 145.85" fill="#ffffff" fill-opacity="0.2" fill-rule="evenodd" stroke="none"/>
    <path d="M1.65 -285.25 L-2.75 -284.55 Q-10.65 -283.55 -17.9 -284.25 L-17.9 -326.1 -26.6 -326.1 -26.6 -285.6 -27.85 -285.5 -27.85 -327.7 1.65 -327.7 1.65 -285.25 M1.6 134.25 L-2.75 134.95 Q-10.65 135.95 -17.9 135.25 L-17.9 -271.3 -14.25 -270.8 Q-4.75 -269.75 1.65 -271.95 L1.6 134.25 M1.6 147.55 L1.6 246.8 Q1.6 258.2 3.95 269.15 5.5 276.8 8.45 283.2 11.55 290.0 15.25 293.3 17.75 295.55 22.3 296.85 26.55 298.0 31.6 298.1 29.85 298.15 28.4 299.5 27.25 300.55 26.3 302.45 24.05 306.75 24.05 312.9 L24.05 313.7 Q19.9 312.45 16.0 310.5 9.8 307.4 5.0 302.8 -5.35 292.95 -11.2 276.6 -17.7 258.05 -17.9 234.8 L-17.9 148.2 -14.25 148.7 Q-4.8 149.75 1.6 147.55 M31.6 327.7 L27.95 327.7 27.3 327.7 Q18.0 327.6 9.5 324.1 1.25 320.75 -4.95 314.8 -15.25 305.05 -21.15 288.65 -27.5 270.5 -27.9 246.8 L-27.9 145.85 -27.3 145.85 -26.65 146.05 -26.65 243.55 Q-26.45 266.75 -19.95 285.35 -14.05 301.75 -3.7 311.55 2.5 317.5 10.75 320.85 18.5 324.0 26.85 324.4 L27.4 325.2 28.4 326.35 Q29.85 327.65 31.6 327.7 M-27.9 133.95 L-27.85 -273.65 -27.3 -273.65 -26.6 -273.45 -26.65 133.85 -27.9 133.95" fill="#ffffff" fill-opacity="0.0" fill-rule="evenodd" stroke="none"/>
    <path d="M31.6 298.1 L31.7 298.1 Q34.85 298.1 37.1 302.45 39.35 306.75 39.35 312.9 39.35 319.05 37.1 323.4 35.1 327.25 32.35 327.65 L31.85 327.7 31.6 327.7 Q29.85 327.65 28.4 326.35 L27.4 325.2 26.85 324.4 26.3 323.4 Q24.2 319.35 24.05 313.7 L24.05 312.9 Q24.05 306.75 26.3 302.45 27.25 300.55 28.4 299.5 29.85 298.15 31.6 298.1" fill="#000000" fill-opacity="0.14901961" fill-rule="evenodd" stroke="none"/>
    <path d="M-17.9 -284.25 Q-22.15 -284.65 -26.2 -285.65 L-26.6 -285.6 -26.6 -326.1 -17.9 -326.1 -17.9 -284.25 M-17.9 135.25 L-26.2 133.8 -26.65 133.85 -26.6 -273.45 -23.5 -272.5 -17.9 -271.3 -17.9 135.25 M-17.9 148.2 L-17.9 234.8 Q-17.7 258.05 -11.2 276.6 -5.35 292.95 5.0 302.8 9.8 307.4 16.0 310.5 19.9 312.45 24.05 313.7 24.2 319.35 26.3 323.4 L26.85 324.4 Q18.5 324.0 10.75 320.85 2.5 317.5 -3.7 311.55 -14.05 301.75 -19.95 285.35 -26.45 266.75 -26.65 243.55 L-26.65 146.05 -23.5 147.0 -17.9 148.2" fill="#000000" fill-opacity="0.24705882" fill-rule="evenodd" stroke="none"/>
    <path d="M1.65 -271.95 Q5.1 -273.15 7.65 -275.3 L7.65 -286.75 Q5.1 -285.9 1.65 -285.25 L-2.75 -284.55 Q-10.65 -283.55 -17.9 -284.25 -22.15 -284.65 -26.2 -285.65 L-26.6 -285.6 -27.85 -285.5 -27.85 -327.7 1.65 -327.7 1.65 -285.25 M1.6 147.55 Q5.05 146.35 7.65 144.2 L7.65 132.75 1.6 134.25 -2.75 134.95 Q-10.65 135.95 -17.9 135.25 L-26.2 133.8 -26.65 133.85 -27.9 133.95 -27.85 -273.65 -39.35 -273.65 -39.35 -284.55 -27.85 -285.5 M1.6 147.55 L1.6 246.8 Q1.6 258.2 3.95 269.15 5.5 276.8 8.45 283.2 11.55 290.0 15.25 293.3 17.75 295.55 22.3 296.85 26.55 298.0 31.6 298.1 L31.7 298.1 Q34.85 298.1 37.1 302.45 39.35 306.75 39.35 312.9 39.35 319.05 37.1 323.4 35.1 327.25 32.35 327.65 L31.85 327.7 31.6 327.7 27.95 327.7 27.3 327.7 Q18.0 327.6 9.5 324.1 1.25 320.75 -4.95 314.8 -15.25 305.05 -21.15 288.65 -27.5 270.5 -27.9 246.8 L-27.9 145.85 -39.35 145.85 -39.35 134.9 -27.9 133.95 M-17.9 148.2 L-23.5 147.0 -26.65 146.05 -27.3 145.85 -27.9 145.85 M1.65 -271.95 L1.6 134.25 M-27.85 -273.65 L-27.3 -273.65 -26.6 -273.45 -23.5 -272.5 -17.9 -271.3 -14.25 -270.8 Q-4.75 -269.75 1.65 -271.95 M1.6 147.55 Q-4.8 149.75 -14.25 148.7 L-17.9 148.2" fill="none" stroke="#000000" stroke-linecap="round" stroke-linejoin="miter-clip" stroke-miterlimit="4.0" stroke-width="1.0"/>
    <path d="M-26.2 -285.65 L-26.2 -273.65 M-26.2 133.8 L-26.2 145.85 M24.05 313.7 L24.05 312.9 Q24.05 306.75 26.3 302.45 27.25 300.55 28.4 299.5 29.85 298.15 31.6 298.1 M26.85 324.4 L26.3 323.4 Q24.2 319.35 24.05 313.7 M31.6 327.7 Q29.85 327.65 28.4 326.35 L27.4 325.2 26.85 324.4" fill="none" stroke="#000000" stroke-linecap="round" stroke-linejoin="miter-clip" stroke-miterlimit="4.0" stroke-opacity="0.6" stroke-width="1.0"/>
  </g>
</svg>
