<?xml version="1.0" encoding="UTF-8" standalone="no"?>
<svg xmlns:xlink="http://www.w3.org/1999/xlink" height="945.95px" width="3771.9px" xmlns="http://www.w3.org/2000/svg">
  <g transform="matrix(1.0, 0.0, 0.0, 1.0, 0.5, 0.5)">
    <path d="M3423.1 250.85 L3770.9 250.85 3770.9 413.8 3423.1 413.8 3423.1 250.85 M2460.4 88.0 L2458.6 88.0 2454.45 88.0 2431.1 0.0 2618.2 1.4 Q2806.55 2.35 2812.6 0.0 L2777.4 88.0 2460.4 88.0 M2777.4 117.3 L3458.3 117.3 3423.1 205.3 2777.4 205.3 2777.4 117.3 M2673.15 158.4 L2623.9 240.1 2623.9 695.05 2673.15 752.65 2567.5 752.65 2567.5 158.4 2673.15 158.4 M2621.85 697.25 L2621.85 242.3 2572.6 160.6 2572.6 746.05 2621.85 697.25 M1339.8 0.0 L1316.45 88.0 1310.5 88.0 1309.25 88.0 993.5 88.0 958.3 0.0 1339.8 0.0 M0.0 413.8 L0.0 250.85 347.8 250.85 347.8 413.8 0.0 413.8 M347.8 205.3 L312.6 117.3 993.5 117.3 993.5 205.3 347.8 205.3 M1202.7 752.65 L1097.75 752.65 1147.0 695.05 1147.0 240.1 1097.75 158.4 1202.7 158.4 1153.45 240.1 1153.45 695.05 1202.7 752.65" fill="#000000" fill-opacity="0.29803923" fill-rule="evenodd" stroke="none"/>
    <path d="M3770.9 413.8 L3770.9 937.65 3423.1 937.65 3423.1 413.8 3770.9 413.8 M2777.4 939.15 L2777.4 944.95 2460.4 944.95 2460.4 88.0 2777.4 88.0 2777.4 117.3 2777.4 205.3 2777.4 939.15 M3428.15 429.5 L3764.15 429.5 3764.15 417.65 3428.15 417.65 3428.15 429.5 M2673.15 158.4 L2567.5 158.4 2567.5 752.65 2673.15 752.65 2673.15 158.4 M2747.15 815.4 L2491.9 815.4 2491.9 832.05 2747.15 832.05 2747.15 815.4 M2747.15 880.85 L2491.9 880.85 2491.9 897.5 2747.15 897.5 2747.15 880.85 M1310.5 88.0 L1310.5 944.95 993.5 944.95 993.5 939.15 993.5 938.95 993.5 205.3 993.5 117.3 993.5 88.0 1309.25 88.0 1310.5 88.0 M347.8 937.65 L0.0 937.65 0.0 413.8 347.8 413.8 347.8 937.65 M1202.7 752.65 L1203.4 752.65 1203.4 158.4 1202.7 158.4 1097.75 158.4 1097.75 752.65 1202.7 752.65 M6.75 417.65 L6.75 429.5 342.75 429.5 342.75 417.65 6.75 417.65 M1279.0 897.5 L1279.0 880.85 1023.65 880.85 1023.65 897.5 1279.0 897.5 M1279.0 832.05 L1279.0 815.4 1023.65 815.4 1023.65 832.05 1279.0 832.05" fill="#000000" fill-opacity="0.14901961" fill-rule="evenodd" stroke="none"/>
    <path d="M3417.85 366.35 L3417.85 378.05 2785.35 378.05 2785.35 366.35 3417.85 366.35 M985.55 378.05 L353.05 378.05 353.05 366.35 985.55 366.35 985.55 378.05" fill="#000000" fill-opacity="0.09803922" fill-rule="evenodd" stroke="none"/>
    <path d="M3423.1 205.3 L3423.1 250.85 3423.1 413.8 3423.1 937.65 3423.1 939.15 2777.4 939.15 2777.4 205.3 3423.1 205.3 M3417.85 366.35 L2785.35 366.35 2785.35 378.05 3417.85 378.05 3417.85 366.35 M2621.85 697.25 L2572.6 746.05 2572.6 160.6 2621.85 242.3 2621.85 697.25 M2783.3 360.85 L3417.15 360.85 2783.3 360.85 M993.5 939.15 L347.8 939.15 347.8 937.65 347.8 413.8 347.8 250.85 347.8 205.3 993.5 205.3 993.5 938.95 993.5 939.15 M1097.75 752.65 L1097.75 158.4 1147.0 240.1 1147.0 695.05 1097.75 752.65 M985.55 378.05 L985.55 366.35 353.05 366.35 353.05 378.05 985.55 378.05 M987.6 360.85 L353.75 360.85 987.6 360.85" fill="#ffffff" fill-opacity="0.0" fill-rule="evenodd" stroke="none"/>
    <path d="M2673.15 752.65 L2623.9 695.05 2623.9 240.1 2673.15 158.4 2673.15 752.65 M2747.15 880.85 L2747.15 897.5 2491.9 897.5 2491.9 880.85 2747.15 880.85 M2747.15 815.4 L2747.15 832.05 2491.9 832.05 2491.9 815.4 2747.15 815.4 M1202.7 158.4 L1202.7 752.65 1153.45 695.05 1153.45 240.1 1202.7 158.4 M1279.0 832.05 L1023.65 832.05 1023.65 815.4 1279.0 815.4 1279.0 832.05 M1279.0 897.5 L1023.65 897.5 1023.65 880.85 1279.0 880.85 1279.0 897.5" fill="#000000" fill-opacity="0.44705883" fill-rule="evenodd" stroke="none"/>
    <path d="M3428.15 429.5 L3428.15 417.65 3764.15 417.65 3764.15 429.5 3428.15 429.5 M6.75 417.65 L342.75 417.65 342.75 429.5 6.75 429.5 6.75 417.65" fill="#000000" fill-opacity="0.24705882" fill-rule="evenodd" stroke="none"/>
    <path d="M1202.7 158.4 L1203.4 158.4 1203.4 752.65 1202.7 752.65 1202.7 158.4" fill="#a7a9ac" fill-rule="evenodd" stroke="none"/>
    <path d="M3423.1 205.3 L3423.1 250.85 3770.9 250.85 3770.9 413.8 3770.9 937.65 3423.1 937.65 M3423.1 939.15 L2777.4 939.15 2777.4 944.95 2460.4 944.95 2460.4 88.0 M2458.6 88.0 L2454.45 88.0 2431.1 0.0 M2812.6 0.0 L2777.4 88.0 2777.4 117.3 3458.3 117.3 3423.1 205.3 M1339.8 0.0 L1316.45 88.0 1310.5 88.0 1310.5 944.95 993.5 944.95 993.5 939.15 347.8 939.15 M347.8 937.65 L0.0 937.65 0.0 413.8 0.0 250.85 347.8 250.85 347.8 205.3 312.6 117.3 993.5 117.3 993.5 88.0 958.3 0.0 M1310.5 88.0 L1309.25 88.0 M993.5 938.95 L993.5 939.15" fill="none" stroke="#000000" stroke-linecap="round" stroke-linejoin="miter-clip" stroke-miterlimit="4.0" stroke-width="1.0"/>
    <path d="M3423.1 937.65 L3423.1 939.15 M2460.4 88.0 L2458.6 88.0 M2431.1 0.0 L2618.2 1.4 Q2806.55 2.35 2812.6 0.0 M3423.1 205.3 L2777.4 205.3 2777.4 939.15 M3423.1 413.8 L3770.9 413.8 M3423.1 250.85 L3423.1 413.8 3423.1 937.65 M2673.15 158.4 L2567.5 158.4 2567.5 752.65 2673.15 752.65 2673.15 158.4 M2777.4 117.3 L2777.4 205.3 M3417.15 360.85 L2783.3 360.85 M347.8 939.15 L347.8 937.65 347.8 413.8 347.8 250.85 M958.3 0.0 L1339.8 0.0 M1309.25 88.0 L993.5 88.0 M1202.7 158.4 L1203.4 158.4 1203.4 752.65 1202.7 752.65 1097.75 752.65 1097.75 158.4 1202.7 158.4 M993.5 117.3 L993.5 205.3 993.5 938.95 M0.0 413.8 L347.8 413.8 M353.75 360.85 L987.6 360.85 M993.5 205.3 L347.8 205.3 M2777.4 88.0 L2460.4 88.0" fill="none" stroke="#000000" stroke-linecap="round" stroke-linejoin="miter-clip" stroke-miterlimit="4.0" stroke-opacity="0.6" stroke-width="1.0"/>
  </g>
</svg>
