<?xml version="1.0" encoding="UTF-8" standalone="no"?>
<svg xmlns:xlink="http://www.w3.org/1999/xlink" height="473.35px" width="1292.0px" xmlns="http://www.w3.org/2000/svg">
  <g transform="matrix(1.0, 0.0, 0.0, 1.0, 656.6, 212.95)">
    <path d="M220.85 -206.85 L412.2 -206.85 412.2 -142.05 415.15 -142.05 415.15 -211.05 220.85 -211.05 220.85 -206.85 M2.15 -206.85 L193.5 -206.85 193.5 -142.05 196.45 -142.05 196.45 -211.05 2.15 -211.05 2.15 -206.85 M86.65 -113.45 L23.95 -48.55 23.95 -113.45 86.65 -113.45 M23.95 -1.5 L133.95 -113.45 162.35 -113.45 24.15 25.2 24.15 51.2 183.25 -113.45 198.95 -113.45 198.95 260.4 23.95 260.4 23.95 -1.5 M322.25 -113.45 L216.25 -12.55 216.25 -113.45 322.25 -113.45 M216.25 7.1 L346.95 -113.45 381.35 -113.45 216.25 50.35 216.25 7.1 M216.25 -212.95 L417.2 -212.95 417.2 -139.85 216.25 -139.85 216.25 -212.95 M198.95 -139.85 L-1.95 -139.85 -1.95 -212.95 198.95 -212.95 198.95 -139.85 M438.7 -206.85 L630.1 -206.85 630.1 -142.05 633.05 -142.05 633.05 -211.05 438.7 -211.05 438.7 -206.85 M417.2 -109.25 L417.2 260.4 216.25 260.4 216.25 87.55 417.2 -109.25 M526.05 -113.45 L434.5 -26.3 434.5 -6.4 550.5 -113.45 585.45 -113.45 434.5 36.35 434.5 73.6 625.45 -113.45 635.4 -113.45 635.4 260.4 434.45 260.4 434.45 -113.45 526.05 -113.45 M434.45 -212.95 L635.4 -212.95 635.4 -139.85 434.45 -139.85 434.45 -212.95 M55.3 42.65 L35.85 42.65 35.85 102.05 55.3 102.05 55.3 42.65 M-434.05 -206.85 L-242.65 -206.85 -242.65 -142.05 -239.7 -142.05 -239.7 -211.05 -434.05 -211.05 -434.05 -206.85 M-550.6 -113.45 L-656.6 -9.0 -656.6 -113.45 -550.6 -113.45 M-656.6 38.1 L-503.45 -113.45 -455.7 -113.45 -455.7 -98.9 -656.6 103.6 -656.6 38.1 M-455.7 -68.8 L-455.7 260.4 -656.6 260.4 -656.6 128.95 -455.7 -68.8 M-458.45 -142.05 L-458.45 -211.05 -652.75 -211.05 -652.75 -206.85 -461.4 -206.85 -461.4 -142.05 -458.45 -142.05 M-333.6 -113.45 L-438.4 -10.15 -438.4 -113.45 -333.6 -113.45 M-438.4 36.95 L-286.4 -113.45 -237.45 -113.45 -237.45 260.4 -438.4 260.4 -438.4 127.8 -238.65 -68.8 -238.65 -98.9 -438.4 102.4 -438.4 36.95 M-438.4 -212.95 L-237.45 -212.95 -237.45 -139.85 -438.4 -139.85 -438.4 -212.95 M-455.7 -139.85 L-656.6 -139.85 -656.6 -212.95 -455.7 -212.95 -455.7 -139.85 M-215.75 -206.85 L-24.35 -206.85 -24.35 -142.05 -21.4 -142.05 -21.4 -211.05 -215.75 -211.05 -215.75 -206.85 M-220.2 -34.75 L-220.2 -113.45 -140.3 -113.45 -220.2 -34.75 M-93.1 -113.45 L-62.9 -113.45 -220.2 41.3 -220.2 12.3 -93.1 -113.45 M-45.2 -110.55 L-45.2 260.4 -220.2 260.4 -220.2 67.3 -45.2 -110.55 M-220.2 -212.95 L-19.25 -212.95 -19.25 -139.85 -220.2 -139.85 -220.2 -212.95 M-56.0 42.65 L-75.4 42.65 -75.4 102.05 -56.0 102.05 -56.0 42.65" fill="#ffffff" fill-opacity="0.09803922" fill-rule="evenodd" stroke="none"/>
    <path d="M2.15 -206.85 L2.15 -211.05 196.45 -211.05 196.45 -142.05 193.5 -142.05 193.5 -206.85 2.15 -206.85 M220.85 -206.85 L220.85 -211.05 415.15 -211.05 415.15 -142.05 412.2 -142.05 412.2 -206.85 220.85 -206.85 M86.65 -113.45 L133.95 -113.45 23.95 -1.5 23.6 -1.15 23.6 -48.2 23.95 -48.55 86.65 -113.45 M162.35 -113.45 L183.25 -113.45 24.15 51.2 24.15 25.2 162.35 -113.45 M216.25 -12.55 L322.25 -113.45 346.95 -113.45 216.25 7.1 216.25 -12.55 M438.7 -206.85 L438.7 -211.05 633.05 -211.05 633.05 -142.05 630.1 -142.05 630.1 -206.85 438.7 -206.85 M381.35 -113.45 L417.2 -113.45 417.2 -109.25 216.25 87.55 216.25 50.35 381.35 -113.45 M550.5 -113.45 L434.5 -6.4 434.5 -26.3 526.05 -113.45 550.5 -113.45 M625.45 -113.45 L434.5 73.6 434.5 36.35 585.45 -113.45 625.45 -113.45 M-434.05 -206.85 L-434.05 -211.05 -239.7 -211.05 -239.7 -142.05 -242.65 -142.05 -242.65 -206.85 -434.05 -206.85 M-550.6 -113.45 L-503.45 -113.45 -656.6 38.1 -656.6 -9.0 -550.6 -113.45 M-455.7 -98.9 L-455.7 -68.8 -656.6 128.95 -656.6 103.6 -455.7 -98.9 M-438.4 -10.15 L-333.6 -113.45 -286.4 -113.45 -438.4 36.95 -438.4 -10.15 M-458.45 -142.05 L-461.4 -142.05 -461.4 -206.85 -652.75 -206.85 -652.75 -211.05 -458.45 -211.05 -458.45 -142.05 M-438.4 102.4 L-238.65 -98.9 -238.65 -68.8 -438.4 127.8 -438.4 102.4 M-215.75 -206.85 L-215.75 -211.05 -21.4 -211.05 -21.4 -142.05 -24.35 -142.05 -24.35 -206.85 -215.75 -206.85 M-140.3 -113.45 L-93.1 -113.45 -220.2 12.3 -220.2 -34.75 -140.3 -113.45 M-62.9 -113.45 L-42.35 -113.45 -45.2 -110.55 -220.2 67.3 -220.2 41.3 -62.9 -113.45" fill="#ffffff" fill-opacity="0.29803923" fill-rule="evenodd" stroke="none"/>
  </g>
</svg>
