<?xml version="1.0" encoding="UTF-8" standalone="no"?>
<svg xmlns:xlink="http://www.w3.org/1999/xlink" height="557.4px" width="712.8px" xmlns="http://www.w3.org/2000/svg">
  <g transform="matrix(1.0, 0.0, 0.0, 1.0, 0.5, 0.5)">
    <path d="M657.55 21.65 L670.8 46.95 660.1 46.95 40.4 46.95 660.1 46.95 670.8 67.4 659.45 67.4 670.8 89.1 660.1 89.1 670.8 109.55 660.7 109.55 670.8 128.85 660.1 128.85 670.8 149.3 659.45 149.3 670.8 171.0 660.1 171.0 670.8 191.45 660.1 191.45 670.8 211.95 660.1 211.95 670.8 232.4 659.45 232.4 670.8 254.1 660.1 254.1 670.8 274.6 660.75 274.6 670.8 293.85 660.1 293.85 670.8 314.3 659.45 314.3 670.8 336.0 660.1 336.0 670.8 356.45 659.45 356.45 670.8 378.15 660.1 378.15 670.8 398.6 659.45 398.6 670.8 420.3 660.1 420.3 670.8 440.8 660.75 440.8 670.8 460.05 660.1 460.05 670.8 480.5 659.45 480.5 670.8 502.2 660.1 502.2 670.8 522.7 27.7 522.7 40.4 502.2 27.7 502.2 41.15 480.5 27.7 480.5 40.4 460.05 27.7 460.05 39.6 440.8 27.7 440.8 40.4 420.3 27.7 420.3 41.15 398.6 27.7 398.6 40.4 378.15 27.7 378.15 41.15 356.45 27.7 356.45 40.4 336.0 27.7 336.0 41.15 314.3 27.7 314.3 40.35 293.85 27.7 293.85 39.6 274.6 27.7 274.6 40.4 254.1 27.7 254.1 41.15 232.4 27.7 232.4 40.4 211.95 27.7 211.95 40.4 191.45 27.7 191.45 40.4 171.0 27.7 171.0 41.15 149.3 27.7 149.3 40.4 128.85 27.7 128.85 39.65 109.55 27.7 109.55 40.4 89.1 27.7 89.1 41.15 67.4 27.7 67.4 40.4 46.95 27.7 46.95 43.2 21.9 43.35 21.65 616.3 21.55 618.6 21.55 638.05 21.6 639.05 21.6 657.55 21.65 M41.15 67.4 L659.45 67.4 41.15 67.4 M660.1 89.1 L40.4 89.1 660.1 89.1 M39.65 109.55 L660.7 109.55 39.65 109.55 M660.1 128.85 L40.4 128.85 660.1 128.85 M40.4 171.0 L660.1 171.0 40.4 171.0 M660.1 191.45 L40.4 191.45 660.1 191.45 M41.15 149.3 L659.45 149.3 41.15 149.3 M40.4 211.95 L660.1 211.95 40.4 211.95 M659.45 232.4 L41.15 232.4 659.45 232.4 M39.6 274.6 L660.75 274.6 39.6 274.6 M660.1 293.85 L40.35 293.85 660.1 293.85 M40.4 254.1 L660.1 254.1 40.4 254.1 M41.15 314.3 L659.45 314.3 41.15 314.3 M660.1 336.0 L40.4 336.0 660.1 336.0 M41.15 356.45 L659.45 356.45 41.15 356.45 M660.1 378.15 L40.4 378.15 660.1 378.15 M40.4 420.3 L660.1 420.3 40.4 420.3 M660.75 440.8 L39.6 440.8 660.75 440.8 M41.15 398.6 L659.45 398.6 41.15 398.6 M40.4 460.05 L660.1 460.05 40.4 460.05 M659.45 480.5 L41.15 480.5 659.45 480.5 M40.4 502.2 L660.1 502.2 40.4 502.2" fill="#000000" fill-opacity="0.14901961" fill-rule="evenodd" stroke="none"/>
    <path d="M660.1 46.95 L670.8 46.95 657.55 21.65 639.05 21.6 638.05 21.6 635.25 21.5 627.8 21.3 671.2 20.85 672.1 534.45 27.3 535.55 26.4 21.9 43.2 21.9 27.7 46.95 40.4 46.95 27.7 67.4 41.15 67.4 27.7 89.1 40.4 89.1 27.7 109.55 39.65 109.55 27.7 128.85 40.4 128.85 27.7 149.3 41.15 149.3 27.7 171.0 40.4 171.0 27.7 191.45 40.4 191.45 27.7 211.95 40.4 211.95 27.7 232.4 41.15 232.4 27.7 254.1 40.4 254.1 27.7 274.6 39.6 274.6 27.7 293.85 40.35 293.85 27.7 314.3 41.15 314.3 27.7 336.0 40.4 336.0 27.7 356.45 41.15 356.45 27.7 378.15 40.4 378.15 27.7 398.6 41.15 398.6 27.7 420.3 40.4 420.3 27.7 440.8 39.6 440.8 27.7 460.05 40.4 460.05 27.7 480.5 41.15 480.5 27.7 502.2 40.4 502.2 27.7 522.7 670.8 522.7 660.1 502.2 670.8 502.2 659.45 480.5 670.8 480.5 660.1 460.05 670.8 460.05 660.75 440.8 670.8 440.8 660.1 420.3 670.8 420.3 659.45 398.6 670.8 398.6 660.1 378.15 670.8 378.15 659.45 356.45 670.8 356.45 660.1 336.0 670.8 336.0 659.45 314.3 670.8 314.3 660.1 293.85 670.8 293.85 660.75 274.6 670.8 274.6 660.1 254.1 670.8 254.1 659.45 232.4 670.8 232.4 660.1 211.95 670.8 211.95 660.1 191.45 670.8 191.45 660.1 171.0 670.8 171.0 659.45 149.3 670.8 149.3 660.1 128.85 670.8 128.85 660.7 109.55 670.8 109.55 660.1 89.1 670.8 89.1 659.45 67.4 670.8 67.4 660.1 46.95 M618.6 21.55 L616.3 21.55 617.5 21.5 618.6 21.55 M309.5 556.4 L315.85 552.0 Q323.95 547.1 333.0 544.65 337.85 543.35 342.7 542.8 349.35 542.05 355.95 542.8 372.8 544.7 389.0 556.4 L309.5 556.4" fill="#000000" fill-opacity="0.34901962" fill-rule="evenodd" stroke="none"/>
    <path d="M616.3 21.55 L43.35 21.65 43.2 21.9 26.4 21.9 27.3 535.55 672.1 534.45 671.2 20.85 627.8 21.3 620.8 21.45 617.5 21.5 616.3 21.55 M309.5 556.4 L0.0 556.4 0.0 0.0 698.5 0.0 698.5 556.4 389.0 556.4 Q372.8 544.7 355.95 542.8 349.35 542.05 342.7 542.8 337.85 543.35 333.0 544.65 323.95 547.1 315.85 552.0 L309.5 556.4" fill="#ffffff" fill-opacity="0.0" fill-rule="evenodd" stroke="none"/>
    <path d="M660.1 46.95 L670.8 46.95 657.55 21.65 M639.05 21.6 L638.05 21.6 635.25 21.5 620.8 21.45 M43.35 21.65 L43.2 21.9 27.7 46.95 40.4 46.95 660.1 46.95 670.8 67.4 659.45 67.4 670.8 89.1 660.1 89.1 670.8 109.55 660.7 109.55 670.8 128.85 660.1 128.85 670.8 149.3 659.45 149.3 670.8 171.0 660.1 171.0 670.8 191.45 660.1 191.45 670.8 211.95 660.1 211.95 670.8 232.4 659.45 232.4 670.8 254.1 660.1 254.1 670.8 274.6 660.75 274.6 670.8 293.85 660.1 293.85 670.8 314.3 659.45 314.3 670.8 336.0 660.1 336.0 670.8 356.45 659.45 356.45 670.8 378.15 660.1 378.15 670.8 398.6 659.45 398.6 670.8 420.3 660.1 420.3 670.8 440.8 660.75 440.8 670.8 460.05 660.1 460.05 670.8 480.5 659.45 480.5 670.8 502.2 660.1 502.2 670.8 522.7 27.7 522.7 40.4 502.2 27.7 502.2 41.15 480.5 27.7 480.5 40.4 460.05 27.7 460.05 39.6 440.8 27.7 440.8 40.4 420.3 27.7 420.3 41.15 398.6 27.7 398.6 40.4 378.15 27.7 378.15 41.15 356.45 27.7 356.45 40.4 336.0 27.7 336.0 41.15 314.3 27.7 314.3 40.35 293.85 27.7 293.85 39.6 274.6 27.7 274.6 40.4 254.1 27.7 254.1 41.15 232.4 27.7 232.4 40.4 211.95 27.7 211.95 40.4 191.45 27.7 191.45 40.4 171.0 27.7 171.0 41.15 149.3 27.7 149.3 40.4 128.85 27.7 128.85 39.65 109.55 27.7 109.55 40.4 89.1 27.7 89.1 41.15 67.4 27.7 67.4 40.4 46.95 M617.5 21.5 L616.3 21.55 M660.1 502.2 L40.4 502.2 M41.15 480.5 L659.45 480.5 M660.1 460.05 L40.4 460.05 M659.45 398.6 L41.15 398.6 M39.6 440.8 L660.75 440.8 M660.1 420.3 L40.4 420.3 M40.4 378.15 L660.1 378.15 M659.45 356.45 L41.15 356.45 M40.4 336.0 L660.1 336.0 M659.45 314.3 L41.15 314.3 M660.1 254.1 L40.4 254.1 M40.35 293.85 L660.1 293.85 M660.75 274.6 L39.6 274.6 M41.15 232.4 L659.45 232.4 M660.1 211.95 L40.4 211.95 M659.45 149.3 L41.15 149.3 M40.4 191.45 L660.1 191.45 M660.1 171.0 L40.4 171.0 M40.4 128.85 L660.1 128.85 M660.7 109.55 L39.65 109.55 M40.4 89.1 L660.1 89.1 M659.45 67.4 L41.15 67.4" fill="none" stroke="#000000" stroke-linecap="round" stroke-linejoin="miter-clip" stroke-miterlimit="4.0" stroke-opacity="0.4" stroke-width="1.0"/>
    <path d="M657.55 21.65 L639.05 21.6 M638.05 21.6 L618.6 21.55 616.3 21.55 43.35 21.65 M309.5 556.4 L315.85 552.0 Q323.95 547.1 333.0 544.65 337.85 543.35 342.7 542.8 349.35 542.05 355.95 542.8 372.8 544.7 389.0 556.4 M627.8 21.3 L671.2 20.85 672.1 534.45 27.3 535.55 26.4 21.9 43.2 21.9 M620.8 21.45 L617.5 21.5 M627.8 21.3 L620.8 21.45" fill="none" stroke="#000000" stroke-linecap="round" stroke-linejoin="miter-clip" stroke-miterlimit="4.0" stroke-opacity="0.6" stroke-width="1.0"/>
    <path d="M389.0 556.4 L698.5 556.4 698.5 0.0 0.0 0.0 0.0 556.4 309.5 556.4 389.0 556.4" fill="none" stroke="#000000" stroke-linecap="round" stroke-linejoin="miter-clip" stroke-miterlimit="4.0" stroke-width="1.0"/>
  </g>
</svg>
