<?xml version="1.0" encoding="UTF-8" standalone="no"?>
<svg xmlns:xlink="http://www.w3.org/1999/xlink" height="112.6px" width="119.75px" xmlns="http://www.w3.org/2000/svg">
  <g transform="matrix(1.0, 0.0, 0.0, 1.0, 0.5, 0.5)">
    <path d="M51.0 0.45 L51.0 0.0 70.4 0.0 70.4 0.45 70.4 33.75 67.5 32.3 63.95 35.2 61.05 33.05 56.75 37.35 53.85 33.05 51.0 36.65 51.0 0.45 M44.55 89.1 L56.75 89.1 56.75 103.45 44.55 103.45 44.55 89.1" fill="#000000" fill-opacity="0.2" fill-rule="evenodd" stroke="none"/>
    <path d="M70.4 0.45 L118.75 0.45 118.75 111.6 0.0 111.6 0.0 0.45 51.0 0.45 51.0 36.65 53.85 33.05 56.75 37.35 61.05 33.05 63.95 35.2 67.5 32.3 70.4 33.75 70.4 0.45 M44.55 89.1 L44.55 103.45 56.75 103.45 56.75 89.1 44.55 89.1 M11.5 89.1 L11.5 103.45 40.95 103.45 40.95 89.1 11.5 89.1" fill="#ffffff" fill-opacity="0.0" fill-rule="evenodd" stroke="none"/>
    <path d="M11.5 89.1 L40.95 89.1 40.95 103.45 11.5 103.45 11.5 89.1" fill="#ffffff" fill-opacity="0.2" fill-rule="evenodd" stroke="none"/>
    <path d="M51.0 0.45 L51.0 0.0 70.4 0.0 70.4 0.45 70.4 33.75 67.5 32.3 63.95 35.2 61.05 33.05 56.75 37.35 53.85 33.05 51.0 36.65 51.0 0.45" fill="none" stroke="#000000" stroke-linecap="round" stroke-linejoin="miter-clip" stroke-miterlimit="4.0" stroke-opacity="0.6" stroke-width="1.0"/>
    <path d="M70.4 0.45 L118.75 0.45 118.75 111.6 0.0 111.6 0.0 0.45 51.0 0.45 Z" fill="none" stroke="#000000" stroke-linecap="round" stroke-linejoin="miter-clip" stroke-miterlimit="4.0" stroke-width="1.0"/>
  </g>
</svg>
