<?xml version="1.0" encoding="UTF-8" standalone="no"?>
<svg xmlns:xlink="http://www.w3.org/1999/xlink" height="58.9px" width="31.3px" xmlns="http://www.w3.org/2000/svg">
  <g transform="matrix(1.0, 0.0, 0.0, 1.0, 0.5, 0.5)">
    <path d="M11.4 3.2 L10.0 3.2 Q9.35 3.2 8.85 2.7 8.4 2.25 8.4 1.6 8.4 0.95 8.85 0.45 9.35 0.0 10.0 0.0 L20.0 0.0 Q20.65 0.0 21.1 0.45 21.6 0.95 21.6 1.6 21.6 2.25 21.1 2.7 20.65 3.2 20.0 3.2 L18.95 3.2 11.4 3.2" fill="#000000" fill-opacity="0.14901961" fill-rule="evenodd" stroke="none"/>
    <path d="M18.95 3.2 Q18.35 5.35 18.3 7.95 18.25 14.3 22.45 17.6 27.5 21.6 29.35 30.1 31.15 38.55 29.55 50.05 L28.5 53.6 Q28.1 54.55 26.35 55.6 22.85 57.6 16.05 57.85 L16.05 57.9 14.25 57.9 14.25 57.85 Q7.5 57.6 4.0 55.6 2.2 54.55 1.8 53.6 L0.75 50.05 Q-0.85 38.55 0.95 30.1 2.8 21.6 7.85 17.6 12.1 14.3 12.05 7.95 12.0 5.35 11.4 3.2 L18.95 3.2 M5.75 32.6 L5.75 45.05 25.7 45.4 25.7 32.6 5.75 32.6" fill="#ffffff" fill-opacity="0.0" fill-rule="evenodd" stroke="none"/>
    <path d="M5.75 32.6 L25.7 32.6 25.7 45.4 5.75 45.05 5.75 32.6" fill="#000000" fill-opacity="0.24705882" fill-rule="evenodd" stroke="none"/>
    <path d="M11.4 3.2 L10.0 3.2 Q9.35 3.2 8.85 2.7 8.4 2.25 8.4 1.6 8.4 0.95 8.85 0.45 9.35 0.0 10.0 0.0 L20.0 0.0 Q20.65 0.0 21.1 0.45 21.6 0.95 21.6 1.6 21.6 2.25 21.1 2.7 20.65 3.2 20.0 3.2 L18.95 3.2 Q18.35 5.35 18.3 7.95 18.25 14.3 22.45 17.6 27.5 21.6 29.35 30.1 31.15 38.55 29.55 50.05 L28.5 53.6 Q28.1 54.55 26.35 55.6 22.85 57.6 16.05 57.85 L16.05 57.9 14.25 57.9 14.25 57.85 Q7.5 57.6 4.0 55.6 2.2 54.55 1.8 53.6 L0.75 50.05 Q-0.85 38.55 0.95 30.1 2.8 21.6 7.85 17.6 12.1 14.3 12.05 7.95 12.0 5.35 11.4 3.2" fill="none" stroke="#000000" stroke-linecap="round" stroke-linejoin="miter-clip" stroke-miterlimit="4.0" stroke-width="1.0"/>
    <path d="M11.4 3.2 L18.95 3.2" fill="none" stroke="#000000" stroke-linecap="round" stroke-linejoin="miter-clip" stroke-miterlimit="4.0" stroke-opacity="0.6" stroke-width="1.0"/>
  </g>
</svg>
