<?xml version="1.0" encoding="UTF-8" standalone="no"?>
<svg xmlns:xlink="http://www.w3.org/1999/xlink" height="113.25px" width="110.65px" xmlns="http://www.w3.org/2000/svg">
  <g transform="matrix(1.0, 0.0, 0.0, 1.0, 0.85, 0.45)">
    <path d="M78.85 47.35 L106.75 47.35 Q107.65 47.35 108.2 47.7 108.75 48.05 109.0 48.75 109.25 49.4 109.3 51.15 L109.3 51.2 109.3 51.4 109.3 51.5 108.85 53.85 Q108.3 54.95 106.75 54.95 L2.4 54.95 Q1.0 54.95 0.45 54.05 L0.2 53.4 0.0 51.85 0.0 51.8 Q0.0 49.35 0.2 48.75 L0.45 48.25 Q0.65 47.9 1.0 47.7 1.55 47.35 2.4 47.35 L31.2 47.35 37.35 47.35 39.4 47.35 70.6 47.35 76.95 47.35 78.85 47.35 M102.45 56.95 Q102.5 60.7 101.85 68.75 L101.2 76.2 100.5 83.0 100.25 85.6 Q97.35 112.3 95.65 112.3 L15.35 112.3 Q13.7 112.3 10.45 85.6 L10.15 83.0 9.4 76.2 8.3 65.0 Q7.85 59.75 7.9 56.95 L11.9 56.95 98.25 56.95 102.45 56.95 M88.6 96.8 Q88.6 96.3 88.25 95.9 87.9 95.55 87.35 95.55 86.85 95.55 86.45 95.9 86.1 96.3 86.1 96.8 L86.1 106.95 Q86.1 107.45 86.45 107.8 86.85 108.15 87.35 108.15 87.85 108.15 88.25 107.8 88.6 107.45 88.6 106.95 L88.6 96.8 M83.2 96.8 Q83.2 96.3 82.8 95.9 82.45 95.55 81.95 95.55 81.45 95.55 81.05 95.9 80.7 96.3 80.7 96.8 L80.7 106.95 Q80.7 107.45 81.05 107.8 81.45 108.15 81.95 108.15 82.45 108.15 82.8 107.8 83.2 107.45 83.2 106.95 L83.2 96.8 M81.95 77.85 Q81.45 77.85 81.05 78.2 80.7 78.6 80.7 79.1 L80.7 89.25 Q80.7 89.8 81.05 90.15 81.45 90.5 81.95 90.5 82.45 90.5 82.8 90.15 83.2 89.75 83.2 89.25 L83.2 79.1 Q83.2 78.6 82.8 78.2 82.45 77.85 81.95 77.85 M86.45 78.2 Q86.1 78.6 86.1 79.1 L86.1 89.25 Q86.1 89.8 86.45 90.15 86.85 90.5 87.35 90.5 87.9 90.5 88.25 90.15 88.6 89.8 88.6 89.25 L88.6 79.1 Q88.6 78.6 88.25 78.2 87.9 77.85 87.35 77.85 86.85 77.85 86.45 78.2 M91.85 78.2 Q91.5 78.6 91.5 79.1 L91.5 89.25 Q91.5 89.8 91.85 90.15 L92.75 90.5 Q93.3 90.5 93.65 90.15 94.0 89.8 94.0 89.25 L94.0 79.1 Q94.0 78.6 93.65 78.2 93.3 77.85 92.75 77.85 92.25 77.85 91.85 78.2 M87.35 60.2 Q86.85 60.2 86.45 60.55 86.1 60.95 86.1 61.45 L86.1 71.6 Q86.1 72.1 86.45 72.45 86.85 72.8 87.35 72.8 87.85 72.8 88.25 72.45 88.6 72.1 88.6 71.6 L88.6 61.45 Q88.6 60.95 88.25 60.55 87.9 60.2 87.35 60.2 M83.2 61.45 Q83.2 60.95 82.8 60.55 82.45 60.2 81.95 60.2 81.45 60.2 81.05 60.55 80.7 60.95 80.7 61.45 L80.7 71.6 Q80.7 72.1 81.05 72.45 81.45 72.8 81.95 72.8 82.45 72.8 82.8 72.45 83.2 72.1 83.2 71.6 L83.2 61.45 M92.75 60.2 Q92.25 60.2 91.85 60.55 91.5 60.95 91.5 61.45 L91.5 71.6 Q91.5 72.1 91.85 72.45 L92.75 72.8 Q93.25 72.8 93.65 72.45 L94.0 71.6 94.0 61.45 Q94.0 60.95 93.65 60.55 93.3 60.2 92.75 60.2 M34.95 53.6 Q35.65 52.85 35.65 51.75 35.65 50.7 34.9 49.95 34.15 49.2 33.1 49.2 L32.2 49.35 Q31.7 49.55 31.3 49.95 30.7 50.55 30.6 51.4 L30.55 51.5 30.55 51.85 30.55 52.0 Q30.6 52.8 31.15 53.4 L31.3 53.6 31.35 53.65 Q32.1 54.35 33.1 54.35 34.1 54.35 34.85 53.65 L34.9 53.6 34.95 53.6 M34.45 69.5 L34.45 61.45 Q34.45 60.95 34.1 60.55 33.75 60.2 33.2 60.2 32.7 60.2 32.3 60.55 31.95 60.95 31.95 61.45 L31.95 69.5 31.6 69.5 31.6 95.4 78.8 95.4 78.8 69.5 77.75 69.5 77.75 61.45 77.4 60.55 Q77.05 60.2 76.5 60.2 76.0 60.2 75.65 60.55 75.3 60.95 75.3 61.45 L75.3 69.5 72.35 69.5 72.35 61.45 Q72.35 60.95 72.0 60.55 71.65 60.2 71.1 60.2 70.6 60.2 70.2 60.55 69.85 60.95 69.85 61.45 L69.85 69.5 66.95 69.5 66.95 61.45 Q66.95 60.95 66.6 60.55 66.25 60.2 65.7 60.2 65.2 60.2 64.8 60.55 64.45 60.95 64.45 61.45 L64.45 69.5 61.5 69.5 61.5 61.45 61.15 60.55 Q60.8 60.2 60.3 60.2 59.8 60.2 59.4 60.55 59.05 60.95 59.05 61.45 L59.05 69.5 56.1 69.5 56.1 61.45 Q56.1 60.95 55.75 60.55 55.4 60.2 54.85 60.2 54.35 60.2 54.0 60.55 53.6 60.95 53.6 61.45 L53.6 69.5 50.7 69.5 50.7 61.45 Q50.7 60.95 50.35 60.55 50.0 60.2 49.45 60.2 48.95 60.2 48.55 60.55 48.2 60.95 48.2 61.45 L48.2 69.5 45.3 69.5 45.3 61.45 Q45.3 60.95 44.9 60.55 44.55 60.2 44.05 60.2 43.55 60.2 43.15 60.55 42.8 60.95 42.8 61.45 L42.8 69.5 39.85 69.5 39.85 61.45 Q39.85 60.95 39.5 60.55 39.15 60.2 38.6 60.2 38.1 60.2 37.75 60.55 37.4 60.95 37.4 61.45 L37.4 69.5 34.45 69.5 M23.6 61.45 L23.25 60.55 Q22.9 60.2 22.4 60.2 21.9 60.2 21.5 60.55 21.15 60.95 21.15 61.45 L21.15 71.6 Q21.15 72.1 21.5 72.45 L22.4 72.8 Q22.9 72.8 23.25 72.45 L23.6 71.6 23.6 61.45 M29.05 61.45 Q29.05 60.95 28.7 60.55 28.35 60.2 27.8 60.2 27.3 60.2 26.9 60.55 26.55 60.95 26.55 61.45 L26.55 71.6 Q26.55 72.1 26.9 72.45 27.3 72.8 27.8 72.8 28.3 72.8 28.7 72.45 29.05 72.1 29.05 71.6 L29.05 61.45 M32.3 95.9 Q31.95 96.3 31.95 96.8 L31.95 106.95 Q31.95 107.45 32.3 107.8 32.7 108.15 33.2 108.15 L34.1 107.8 Q34.45 107.45 34.45 106.95 L34.45 96.8 Q34.45 96.3 34.1 95.9 33.75 95.55 33.2 95.55 32.7 95.55 32.3 95.9 M26.9 95.9 Q26.55 96.3 26.55 96.8 L26.55 106.95 Q26.55 107.45 26.9 107.8 27.3 108.15 27.8 108.15 28.3 108.15 28.7 107.8 29.05 107.45 29.05 106.95 L29.05 96.8 Q29.05 96.3 28.7 95.9 28.35 95.55 27.8 95.55 27.3 95.55 26.9 95.9 M21.5 95.9 Q21.15 96.3 21.15 96.8 L21.15 106.95 Q21.15 107.45 21.5 107.8 L22.4 108.15 Q22.9 108.15 23.25 107.8 L23.6 106.95 23.6 96.8 23.25 95.9 Q22.9 95.55 22.4 95.55 21.9 95.55 21.5 95.9 M27.8 77.85 Q27.3 77.85 26.9 78.2 26.55 78.6 26.55 79.1 L26.55 89.25 Q26.55 89.8 26.9 90.15 27.3 90.5 27.8 90.5 28.35 90.5 28.7 90.15 29.05 89.8 29.05 89.25 L29.05 79.1 Q29.05 78.6 28.7 78.2 28.35 77.85 27.8 77.85 M23.6 79.1 L23.25 78.2 Q22.9 77.85 22.4 77.85 21.9 77.85 21.5 78.2 21.15 78.6 21.15 79.1 L21.15 89.25 Q21.15 89.8 21.5 90.15 L22.4 90.5 Q22.9 90.5 23.25 90.15 L23.6 89.25 23.6 79.1 M16.1 78.2 Q15.7 78.6 15.7 79.1 L15.7 89.25 Q15.7 89.75 16.1 90.15 16.45 90.5 16.95 90.5 17.5 90.5 17.85 90.15 18.2 89.8 18.2 89.25 L18.2 79.1 Q18.2 78.6 17.85 78.2 17.5 77.85 16.95 77.85 16.45 77.85 16.1 78.2 M16.95 60.2 Q16.45 60.2 16.1 60.55 15.7 60.95 15.7 61.45 L15.7 71.6 Q15.7 72.1 16.1 72.45 16.45 72.8 16.95 72.8 L17.85 72.45 18.2 71.6 18.2 61.45 Q18.2 60.95 17.85 60.55 17.5 60.2 16.95 60.2 M39.85 96.8 Q39.85 96.3 39.5 95.9 39.15 95.55 38.6 95.55 38.1 95.55 37.75 95.9 37.4 96.3 37.4 96.8 L37.4 106.95 Q37.4 107.45 37.75 107.8 38.1 108.15 38.6 108.15 39.1 108.15 39.5 107.8 L39.85 106.95 39.85 96.8 M78.65 52.05 L78.65 52.0 78.65 51.5 78.65 51.4 78.6 51.25 Q78.45 50.5 77.9 49.95 77.15 49.2 76.1 49.2 75.05 49.2 74.3 49.95 73.55 50.7 73.55 51.75 73.55 52.85 74.3 53.6 L74.35 53.65 Q75.1 54.35 76.1 54.35 77.1 54.35 77.85 53.65 L77.9 53.6 Q78.55 52.95 78.65 52.05 M75.65 95.9 Q75.3 96.3 75.3 96.8 L75.3 106.95 Q75.3 107.45 75.65 107.8 76.0 108.15 76.5 108.15 77.0 108.15 77.4 107.8 77.75 107.45 77.75 106.95 L77.75 96.8 77.4 95.9 Q77.05 95.55 76.5 95.55 76.0 95.55 75.65 95.9 M64.8 95.9 Q64.45 96.3 64.45 96.8 L64.45 106.95 Q64.45 107.45 64.8 107.8 65.2 108.15 65.7 108.15 66.2 108.15 66.6 107.8 L66.95 106.95 66.95 96.8 Q66.95 96.3 66.6 95.9 66.25 95.55 65.7 95.55 65.2 95.55 64.8 95.9 M70.2 95.9 Q69.85 96.3 69.85 96.8 L69.85 106.95 Q69.85 107.45 70.2 107.8 70.6 108.15 71.1 108.15 L72.0 107.8 Q72.35 107.45 72.35 106.95 L72.35 96.8 Q72.35 96.3 72.0 95.9 71.65 95.55 71.1 95.55 70.6 95.55 70.2 95.9 M60.3 95.55 Q59.8 95.55 59.4 95.9 59.05 96.3 59.05 96.8 L59.05 106.95 Q59.05 107.45 59.4 107.8 L60.3 108.15 61.15 107.8 61.5 106.95 61.5 96.8 61.15 95.9 Q60.8 95.55 60.3 95.55 M54.85 95.55 Q54.35 95.55 54.0 95.9 53.6 96.3 53.6 96.8 L53.6 106.95 Q53.6 107.45 54.0 107.8 54.35 108.15 54.85 108.15 L55.75 107.8 56.1 106.95 56.1 96.8 Q56.1 96.3 55.75 95.9 55.4 95.55 54.85 95.55 M48.55 95.9 Q48.2 96.3 48.2 96.8 L48.2 106.95 Q48.2 107.45 48.55 107.8 48.95 108.15 49.45 108.15 L50.35 107.8 50.7 106.95 50.7 96.8 Q50.7 96.3 50.35 95.9 50.0 95.55 49.45 95.55 48.95 95.55 48.55 95.9 M44.05 95.55 Q43.55 95.55 43.15 95.9 42.8 96.3 42.8 96.8 L42.8 106.95 Q42.8 107.45 43.15 107.8 43.55 108.15 44.05 108.15 44.55 108.15 44.9 107.8 45.3 107.45 45.3 106.95 L45.3 96.8 Q45.3 96.3 44.9 95.9 44.55 95.55 44.05 95.55" fill="#ffffff" fill-opacity="0.0" fill-rule="evenodd" stroke="none"/>
    <path d="M109.3 51.5 L109.3 52.15 Q109.3 54.75 109.0 55.55 108.5 56.95 106.75 56.95 L102.45 56.95 98.25 56.95 11.9 56.95 7.9 56.95 2.4 56.95 Q0.65 56.95 0.2 55.55 0.05 55.05 0.05 53.4 L0.0 52.15 0.0 51.85 0.2 53.4 0.45 54.05 Q1.0 54.95 2.4 54.95 L106.75 54.95 Q108.3 54.95 108.85 53.85 L109.3 51.5 M92.75 60.2 Q93.3 60.2 93.65 60.55 94.0 60.95 94.0 61.45 L94.0 71.6 93.65 72.45 Q93.25 72.8 92.75 72.8 L91.85 72.45 Q91.5 72.1 91.5 71.6 L91.5 61.45 Q91.5 60.95 91.85 60.55 92.25 60.2 92.75 60.2 M83.2 61.45 L83.2 71.6 Q83.2 72.1 82.8 72.45 82.45 72.8 81.95 72.8 81.45 72.8 81.05 72.45 80.7 72.1 80.7 71.6 L80.7 61.45 Q80.7 60.95 81.05 60.55 81.45 60.2 81.95 60.2 82.45 60.2 82.8 60.55 83.2 60.95 83.2 61.45 M87.35 60.2 Q87.9 60.2 88.25 60.55 88.6 60.95 88.6 61.45 L88.6 71.6 Q88.6 72.1 88.25 72.45 87.85 72.8 87.35 72.8 86.85 72.8 86.45 72.45 86.1 72.1 86.1 71.6 L86.1 61.45 Q86.1 60.95 86.45 60.55 86.85 60.2 87.35 60.2 M91.85 78.2 Q92.25 77.85 92.75 77.85 93.3 77.85 93.65 78.2 94.0 78.6 94.0 79.1 L94.0 89.25 Q94.0 89.8 93.65 90.15 93.3 90.5 92.75 90.5 L91.85 90.15 Q91.5 89.8 91.5 89.25 L91.5 79.1 Q91.5 78.6 91.85 78.2 M86.45 78.2 Q86.85 77.85 87.35 77.85 87.9 77.85 88.25 78.2 88.6 78.6 88.6 79.1 L88.6 89.25 Q88.6 89.8 88.25 90.15 87.9 90.5 87.35 90.5 86.85 90.5 86.45 90.15 86.1 89.8 86.1 89.25 L86.1 79.1 Q86.1 78.6 86.45 78.2 M81.95 77.85 Q82.45 77.85 82.8 78.2 83.2 78.6 83.2 79.1 L83.2 89.25 Q83.2 89.75 82.8 90.15 82.45 90.5 81.95 90.5 81.45 90.5 81.05 90.15 80.7 89.8 80.7 89.25 L80.7 79.1 Q80.7 78.6 81.05 78.2 81.45 77.85 81.95 77.85 M83.2 96.8 L83.2 106.95 Q83.2 107.45 82.8 107.8 82.45 108.15 81.95 108.15 81.45 108.15 81.05 107.8 80.7 107.45 80.7 106.95 L80.7 96.8 Q80.7 96.3 81.05 95.9 81.45 95.55 81.95 95.55 82.45 95.55 82.8 95.9 83.2 96.3 83.2 96.8 M88.6 96.8 L88.6 106.95 Q88.6 107.45 88.25 107.8 87.85 108.15 87.35 108.15 86.85 108.15 86.45 107.8 86.1 107.45 86.1 106.95 L86.1 96.8 Q86.1 96.3 86.45 95.9 86.85 95.55 87.35 95.55 87.9 95.55 88.25 95.9 88.6 96.3 88.6 96.8 M31.95 69.5 L31.95 61.45 Q31.95 60.95 32.3 60.55 32.7 60.2 33.2 60.2 33.75 60.2 34.1 60.55 34.45 60.95 34.45 61.45 L34.45 69.5 31.95 69.5 M37.4 69.5 L37.4 61.45 Q37.4 60.95 37.75 60.55 38.1 60.2 38.6 60.2 39.15 60.2 39.5 60.55 39.85 60.95 39.85 61.45 L39.85 69.5 37.4 69.5 M42.8 69.5 L42.8 61.45 Q42.8 60.95 43.15 60.55 43.55 60.2 44.05 60.2 44.55 60.2 44.9 60.55 45.3 60.95 45.3 61.45 L45.3 69.5 42.8 69.5 M48.2 69.5 L48.2 61.45 Q48.2 60.95 48.55 60.55 48.95 60.2 49.45 60.2 50.0 60.2 50.35 60.55 50.7 60.95 50.7 61.45 L50.7 69.5 48.2 69.5 M53.6 69.5 L53.6 61.45 Q53.6 60.95 54.0 60.55 54.35 60.2 54.85 60.2 55.4 60.2 55.75 60.55 56.1 60.95 56.1 61.45 L56.1 69.5 53.6 69.5 M59.05 69.5 L59.05 61.45 Q59.05 60.95 59.4 60.55 59.8 60.2 60.3 60.2 60.8 60.2 61.15 60.55 L61.5 61.45 61.5 69.5 59.05 69.5 M64.45 69.5 L64.45 61.45 Q64.45 60.95 64.8 60.55 65.2 60.2 65.7 60.2 66.25 60.2 66.6 60.55 66.95 60.95 66.95 61.45 L66.95 69.5 64.45 69.5 M69.85 69.5 L69.85 61.45 Q69.85 60.95 70.2 60.55 70.6 60.2 71.1 60.2 71.65 60.2 72.0 60.55 72.35 60.95 72.35 61.45 L72.35 69.5 69.85 69.5 M75.3 69.5 L75.3 61.45 Q75.3 60.95 75.65 60.55 76.0 60.2 76.5 60.2 77.05 60.2 77.4 60.55 L77.75 61.45 77.75 69.5 75.3 69.5 M29.05 61.45 L29.05 71.6 Q29.05 72.1 28.7 72.45 28.3 72.8 27.8 72.8 27.3 72.8 26.9 72.45 26.55 72.1 26.55 71.6 L26.55 61.45 Q26.55 60.95 26.9 60.55 27.3 60.2 27.8 60.2 28.35 60.2 28.7 60.55 29.05 60.95 29.05 61.45 M23.6 61.45 L23.6 71.6 23.25 72.45 Q22.9 72.8 22.4 72.8 L21.5 72.45 Q21.15 72.1 21.15 71.6 L21.15 61.45 Q21.15 60.95 21.5 60.55 21.9 60.2 22.4 60.2 22.9 60.2 23.25 60.55 L23.6 61.45 M16.95 60.2 Q17.5 60.2 17.85 60.55 18.2 60.95 18.2 61.45 L18.2 71.6 17.85 72.45 16.95 72.8 Q16.45 72.8 16.1 72.45 15.7 72.1 15.7 71.6 L15.7 61.45 Q15.7 60.95 16.1 60.55 16.45 60.2 16.95 60.2 M16.1 78.2 Q16.45 77.85 16.95 77.85 17.5 77.85 17.85 78.2 18.2 78.6 18.2 79.1 L18.2 89.25 Q18.2 89.8 17.85 90.15 17.5 90.5 16.95 90.5 16.45 90.5 16.1 90.15 15.7 89.75 15.7 89.25 L15.7 79.1 Q15.7 78.6 16.1 78.2 M23.6 79.1 L23.6 89.25 23.25 90.15 Q22.9 90.5 22.4 90.5 L21.5 90.15 Q21.15 89.8 21.15 89.25 L21.15 79.1 Q21.15 78.6 21.5 78.2 21.9 77.85 22.4 77.85 22.9 77.85 23.25 78.2 L23.6 79.1 M27.8 77.85 Q28.35 77.85 28.7 78.2 29.05 78.6 29.05 79.1 L29.05 89.25 Q29.05 89.8 28.7 90.15 28.35 90.5 27.8 90.5 27.3 90.5 26.9 90.15 26.55 89.8 26.55 89.25 L26.55 79.1 Q26.55 78.6 26.9 78.2 27.3 77.85 27.8 77.85 M21.5 95.9 Q21.9 95.55 22.4 95.55 22.9 95.55 23.25 95.9 L23.6 96.8 23.6 106.95 23.25 107.8 Q22.9 108.15 22.4 108.15 L21.5 107.8 Q21.15 107.45 21.15 106.95 L21.15 96.8 Q21.15 96.3 21.5 95.9 M26.9 95.9 Q27.3 95.55 27.8 95.55 28.35 95.55 28.7 95.9 29.05 96.3 29.05 96.8 L29.05 106.95 Q29.05 107.45 28.7 107.8 28.3 108.15 27.8 108.15 27.3 108.15 26.9 107.8 26.55 107.45 26.55 106.95 L26.55 96.8 Q26.55 96.3 26.9 95.9 M32.3 95.9 Q32.7 95.55 33.2 95.55 33.75 95.55 34.1 95.9 34.45 96.3 34.45 96.8 L34.45 106.95 Q34.45 107.45 34.1 107.8 L33.2 108.15 Q32.7 108.15 32.3 107.8 31.95 107.45 31.95 106.95 L31.95 96.8 Q31.95 96.3 32.3 95.9 M39.85 96.8 L39.85 106.95 39.5 107.8 Q39.1 108.15 38.6 108.15 38.1 108.15 37.75 107.8 37.4 107.45 37.4 106.95 L37.4 96.8 Q37.4 96.3 37.75 95.9 38.1 95.55 38.6 95.55 39.15 95.55 39.5 95.9 39.85 96.3 39.85 96.8 M44.05 95.55 Q44.55 95.55 44.9 95.9 45.3 96.3 45.3 96.8 L45.3 106.95 Q45.3 107.45 44.9 107.8 44.55 108.15 44.05 108.15 43.55 108.15 43.15 107.8 42.8 107.45 42.8 106.95 L42.8 96.8 Q42.8 96.3 43.15 95.9 43.55 95.55 44.05 95.55 M48.55 95.9 Q48.95 95.55 49.45 95.55 50.0 95.55 50.35 95.9 50.7 96.3 50.7 96.8 L50.7 106.95 50.35 107.8 49.45 108.15 Q48.95 108.15 48.55 107.8 48.2 107.45 48.2 106.95 L48.2 96.8 Q48.2 96.3 48.55 95.9 M54.85 95.55 Q55.4 95.55 55.75 95.9 56.1 96.3 56.1 96.8 L56.1 106.95 55.75 107.8 54.85 108.15 Q54.35 108.15 54.0 107.8 53.6 107.45 53.6 106.95 L53.6 96.8 Q53.6 96.3 54.0 95.9 54.35 95.55 54.85 95.55 M60.3 95.55 Q60.8 95.55 61.15 95.9 L61.5 96.8 61.5 106.95 61.15 107.8 60.3 108.15 59.4 107.8 Q59.05 107.45 59.05 106.95 L59.05 96.8 Q59.05 96.3 59.4 95.9 59.8 95.55 60.3 95.55 M70.2 95.9 Q70.6 95.55 71.1 95.55 71.65 95.55 72.0 95.9 72.35 96.3 72.35 96.8 L72.35 106.95 Q72.35 107.45 72.0 107.8 L71.1 108.15 Q70.6 108.15 70.2 107.8 69.85 107.45 69.85 106.95 L69.85 96.8 Q69.85 96.3 70.2 95.9 M64.8 95.9 Q65.2 95.55 65.7 95.55 66.25 95.55 66.6 95.9 66.95 96.3 66.95 96.8 L66.95 106.95 66.6 107.8 Q66.2 108.15 65.7 108.15 65.2 108.15 64.8 107.8 64.45 107.45 64.45 106.95 L64.45 96.8 Q64.45 96.3 64.8 95.9 M75.65 95.9 Q76.0 95.55 76.5 95.55 77.05 95.55 77.4 95.9 L77.75 96.8 77.75 106.95 Q77.75 107.45 77.4 107.8 77.0 108.15 76.5 108.15 76.0 108.15 75.65 107.8 75.3 107.45 75.3 106.95 L75.3 96.8 Q75.3 96.3 75.65 95.9" fill="#000000" fill-opacity="0.4" fill-rule="evenodd" stroke="none"/>
    <path d="M53.55 0.4 Q54.8 0.9 55.55 1.85 L55.35 2.1 Q54.6 3.3 55.0 4.45 L55.55 5.9 39.4 47.35 37.35 47.35 54.0 4.5 Q54.45 3.35 53.75 2.15 53.0 0.95 51.5 0.4 L50.85 0.15 53.55 0.4 M56.45 1.0 L56.9 0.75 56.95 0.7 57.0 0.7 57.6 0.4 60.45 0.25 Q61.8 0.65 62.2 1.8 L78.85 47.35 76.95 47.35 60.65 2.55 Q60.3 1.5 59.05 1.05 L56.45 1.0 M30.6 51.4 Q30.7 50.55 31.3 49.95 31.7 49.55 32.2 49.35 L33.1 49.2 Q34.15 49.2 34.9 49.95 35.65 50.7 35.65 51.75 35.65 52.85 34.95 53.6 L34.9 53.6 34.85 53.65 Q34.1 54.35 33.1 54.35 32.1 54.35 31.35 53.65 L31.3 53.6 31.15 53.4 Q30.6 52.8 30.55 52.0 L30.55 51.85 30.7 52.5 31.15 53.25 31.35 53.4 31.75 53.65 32.65 53.85 33.6 53.65 34.15 53.25 Q34.75 52.65 34.75 51.75 34.75 50.9 34.15 50.25 33.5 49.65 32.65 49.65 L32.2 49.7 31.15 50.25 31.0 50.45 30.95 50.55 30.9 50.6 30.6 51.4 M78.65 52.0 L78.65 52.05 Q78.55 52.95 77.9 53.6 L77.85 53.65 Q77.1 54.35 76.1 54.35 75.1 54.35 74.35 53.65 L74.3 53.6 Q73.55 52.85 73.55 51.75 73.55 50.7 74.3 49.95 75.05 49.2 76.1 49.2 77.15 49.2 77.9 49.95 78.45 50.5 78.6 51.25 L78.3 50.6 78.3 50.55 78.2 50.45 78.05 50.25 78.0 50.2 Q77.35 49.65 76.55 49.65 75.7 49.65 75.05 50.25 74.45 50.9 74.45 51.75 74.45 52.65 75.05 53.25 L75.65 53.65 76.55 53.85 77.5 53.65 78.05 53.25 78.1 53.2 78.5 52.65 78.65 52.0" fill="#000000" fill-opacity="0.49803922" fill-rule="evenodd" stroke="none"/>
    <path d="M31.2 47.35 L48.9 1.7 Q49.35 0.55 50.7 0.2 L50.75 0.2 50.85 0.15 51.5 0.4 Q53.0 0.95 53.75 2.15 54.45 3.35 54.0 4.5 L37.35 47.35 31.2 47.35 M55.55 1.85 L56.45 1.0 59.05 1.05 Q60.3 1.5 60.65 2.55 L76.95 47.35 70.6 47.35 55.55 5.9 55.0 4.45 Q54.6 3.3 55.35 2.1 L55.55 1.85" fill="#000000" fill-opacity="0.34901962" fill-rule="evenodd" stroke="none"/>
    <path d="M50.85 0.15 L50.8 0.15 Q52.15 -0.2 53.55 0.4 L50.85 0.15" fill="#696a6c" fill-rule="evenodd" stroke="none"/>
    <path d="M30.6 51.4 L30.9 50.6 30.95 50.55 31.0 50.45 31.15 50.25 32.2 49.7 32.65 49.65 Q33.5 49.65 34.15 50.25 34.75 50.9 34.75 51.75 34.75 52.65 34.15 53.25 L33.6 53.65 32.65 53.85 31.75 53.65 31.35 53.4 31.15 53.25 30.7 52.5 30.55 51.85 30.55 51.5 30.6 51.4 M31.95 94.4 L31.95 93.25 76.75 93.25 76.75 70.0 77.95 70.0 77.95 94.4 31.95 94.4 M78.65 52.0 L78.5 52.65 78.1 53.2 78.05 53.25 77.5 53.65 76.55 53.85 75.65 53.65 75.05 53.25 Q74.45 52.65 74.45 51.75 74.45 50.9 75.05 50.25 75.7 49.65 76.55 49.65 77.35 49.65 78.0 50.2 L78.05 50.25 78.2 50.45 78.3 50.55 78.3 50.6 78.6 51.25 78.65 51.4 78.65 51.5 78.65 52.0" fill="#000000" fill-opacity="0.14901961" fill-rule="evenodd" stroke="none"/>
    <path d="M34.45 69.5 L37.4 69.5 39.85 69.5 42.8 69.5 45.3 69.5 48.2 69.5 50.7 69.5 53.6 69.5 56.1 69.5 59.05 69.5 61.5 69.5 64.45 69.5 66.95 69.5 69.85 69.5 72.35 69.5 75.3 69.5 77.75 69.5 78.8 69.5 78.8 95.4 31.6 95.4 31.6 69.5 31.95 69.5 34.45 69.5 M31.95 94.4 L77.95 94.4 77.95 70.0 76.75 70.0 76.75 93.25 31.95 93.25 31.95 94.4" fill="#ffffff" fill-opacity="0.14901961" fill-rule="evenodd" stroke="none"/>
    <path d="M78.85 47.35 L106.75 47.35 Q107.65 47.35 108.2 47.7 108.75 48.05 109.0 48.75 109.25 49.4 109.3 51.15 L109.3 51.2 109.3 51.4 109.3 51.5 109.3 52.15 Q109.3 54.75 109.0 55.55 108.5 56.95 106.75 56.95 L102.45 56.95 Q102.5 60.7 101.85 68.75 L101.2 76.2 100.5 83.0 100.25 85.6 Q97.35 112.3 95.65 112.3 L15.35 112.3 Q13.7 112.3 10.45 85.6 L10.15 83.0 9.4 76.2 8.3 65.0 Q7.85 59.75 7.9 56.95 L2.4 56.95 Q0.65 56.95 0.2 55.55 0.05 55.05 0.05 53.4 L0.0 52.15 0.0 51.85 0.0 51.8 Q0.0 49.35 0.2 48.75 L0.45 48.25 Q0.65 47.9 1.0 47.7 1.55 47.35 2.4 47.35 L31.2 47.35 48.9 1.7 Q49.35 0.55 50.7 0.2 L50.75 0.2 50.85 0.15 53.55 0.4 Q54.8 0.9 55.55 1.85 L56.45 1.0 56.9 0.75 56.95 0.7 57.0 0.7 57.6 0.4 60.45 0.25 Q61.8 0.65 62.2 1.8 L78.85 47.35 76.95 47.35 70.6 47.35 39.4 47.35 37.35 47.35 31.2 47.35 M102.45 56.95 L98.25 56.95 M11.9 56.95 L7.9 56.95 M55.55 1.85 L55.35 2.1 Q54.6 3.3 55.0 4.45 L55.55 5.9 70.6 47.35 M39.4 47.35 L55.55 5.9" fill="none" stroke="#000000" stroke-linecap="round" stroke-linejoin="miter-clip" stroke-miterlimit="4.0" stroke-width="1.0"/>
    <path d="M34.95 53.6 Q35.65 52.85 35.65 51.75 35.65 50.7 34.9 49.95 34.15 49.2 33.1 49.2 L32.2 49.35 Q31.7 49.55 31.3 49.95 30.7 50.55 30.6 51.4 L30.9 50.6 30.95 50.55 31.0 50.45 31.15 50.25 32.2 49.7 32.65 49.65 Q33.5 49.65 34.15 50.25 34.75 50.9 34.75 51.75 34.75 52.65 34.15 53.25 L33.6 53.65 32.65 53.85 31.75 53.65 31.35 53.4 31.15 53.25 30.7 52.5 30.55 51.85 30.55 52.0 Q30.6 52.8 31.15 53.4 L31.3 53.6 31.35 53.65 Q32.1 54.35 33.1 54.35 34.1 54.35 34.85 53.65 L34.9 53.6 M30.55 51.85 L30.55 51.5 30.6 51.4 M78.1 53.2 L78.05 53.25 77.5 53.65 76.55 53.85 75.65 53.65 75.05 53.25 Q74.45 52.65 74.45 51.75 74.45 50.9 75.05 50.25 75.7 49.65 76.55 49.65 77.35 49.65 78.0 50.2 L78.05 50.25 78.2 50.45 78.3 50.55 M78.3 50.6 L78.6 51.25 Q78.45 50.5 77.9 49.95 77.15 49.2 76.1 49.2 75.05 49.2 74.3 49.95 73.55 50.7 73.55 51.75 73.55 52.85 74.3 53.6 L74.35 53.65 Q75.1 54.35 76.1 54.35 77.1 54.35 77.85 53.65 L77.9 53.6 Q78.55 52.95 78.65 52.05 M78.65 51.5 L78.65 51.4 78.6 51.25" fill="none" stroke="#000000" stroke-linecap="round" stroke-linejoin="miter-clip" stroke-miterlimit="4.0" stroke-opacity="0.4" stroke-width="1.0"/>
    <path d="M98.25 56.95 L11.9 56.95 M34.9 53.6 L34.95 53.6 M34.45 69.5 L37.4 69.5 39.85 69.5 42.8 69.5 45.3 69.5 48.2 69.5 50.7 69.5 53.6 69.5 56.1 69.5 59.05 69.5 61.5 69.5 64.45 69.5 66.95 69.5 69.85 69.5 72.35 69.5 75.3 69.5 77.75 69.5 78.8 69.5 78.8 95.4 31.6 95.4 31.6 69.5 31.95 69.5 34.45 69.5 M78.65 52.05 L78.65 52.0 78.5 52.65 78.1 53.2 M78.3 50.55 L78.3 50.6 M78.65 52.0 L78.65 51.5" fill="none" stroke="#000000" stroke-linecap="round" stroke-linejoin="miter-clip" stroke-miterlimit="4.0" stroke-opacity="0.6" stroke-width="1.0"/>
  </g>
</svg>
