<?xml version="1.0" encoding="UTF-8" standalone="no"?>
<svg xmlns:xlink="http://www.w3.org/1999/xlink" height="97.6px" width="146.35px" xmlns="http://www.w3.org/2000/svg">
  <g transform="matrix(1.0, 0.0, 0.0, 1.0, 73.15, 48.8)">
    <path d="M72.1 -36.75 L72.6 -32.75 Q72.95 -27.65 71.75 -22.7 68.05 -6.75 51.15 2.95 29.4 15.45 -50.05 48.3 -55.15 38.55 -60.9 26.15 -67.55 10.6 -70.5 0.4 -74.25 -12.25 -71.45 -13.9 L67.2 -48.3 72.1 -36.75" fill="#ffffff" fill-opacity="0.0" fill-rule="evenodd" stroke="none"/>
    <path d="M72.1 -36.75 L72.6 -32.75 Q72.95 -27.65 71.75 -22.7 68.05 -6.75 51.15 2.95 29.4 15.45 -50.05 48.3 -55.15 38.55 -60.9 26.15 -67.55 10.6 -70.5 0.4 -74.25 -12.25 -71.45 -13.9 L67.2 -48.3 72.1 -36.75 Z" fill="none" stroke="#000000" stroke-linecap="round" stroke-linejoin="round" stroke-width="1.0"/>
  </g>
</svg>
