<?xml version="1.0" encoding="UTF-8" standalone="no"?>
<svg xmlns:xlink="http://www.w3.org/1999/xlink" height="978.75px" width="2006.05px" xmlns="http://www.w3.org/2000/svg">
  <g transform="matrix(1.0, 0.0, 0.0, 1.0, 1002.3, 766.75)">
    <path d="M123.7 196.75 L123.8 182.4 124.0 152.6 124.1 133.75 124.1 -73.7 124.05 -86.15 123.95 -109.55 123.7 -176.75 -123.05 -176.75 -122.8 -109.55 -122.7 -86.15 -122.65 -73.7 -122.65 133.75 -122.75 152.6 -122.95 182.4 -123.05 196.75 -145.9 196.75 -145.9 182.4 -145.9 152.6 -145.9 -86.15 -145.9 -109.55 -145.9 -196.75 145.95 -196.75 145.95 196.75 123.7 196.75" fill="#ffffff" fill-opacity="0.0" fill-rule="evenodd" stroke="none"/>
    <path d="M714.75 -128.7 L714.3 -129.05 712.8 -130.3 Q702.65 -138.55 691.15 -145.4 686.5 -148.15 681.6 -150.7 676.45 -153.4 671.05 -155.8 654.7 -163.1 636.05 -168.05 L573.5 -104.15 737.6 -104.15 735.95 -106.55 Q732.9 -110.7 728.9 -115.1 L726.7 -117.5 723.65 -120.65 715.2 -128.35 714.75 -128.7 M378.3 -145.4 L385.0 -150.7 387.65 -152.7 392.0 -155.8 Q456.55 -200.95 552.25 -199.75 L554.45 -199.75 Q650.1 -200.95 714.7 -155.8 L719.0 -152.7 721.7 -150.7 728.35 -145.4 Q737.1 -138.2 744.65 -130.3 749.7 -125.0 754.25 -119.35 758.85 -113.65 762.3 -108.35 L764.1 -104.1 764.1 104.8 341.8 104.8 341.8 -104.15 344.35 -108.35 Q347.8 -113.65 352.4 -119.35 363.65 -133.3 378.3 -145.4 M734.45 -84.15 L652.95 -84.15 652.95 81.1 734.45 81.1 734.45 -84.15 M498.7 -600.65 L422.0 -600.65 422.0 -471.95 498.7 -471.95 498.7 -600.65 M590.95 -738.25 L514.25 -738.25 514.25 -616.2 590.95 -616.2 590.95 -738.25 M590.95 -600.65 L514.25 -600.65 514.25 -471.95 590.95 -471.95 590.95 -600.65 M498.7 -738.25 L422.0 -738.25 422.0 -616.2 498.7 -616.2 498.7 -738.25 M404.2 -766.25 L608.75 -766.25 608.75 -443.95 404.2 -443.95 404.2 -766.25 M70.75 -616.2 L70.75 -738.25 -5.9 -738.25 -5.9 -616.2 70.75 -616.2 M88.55 -766.25 L88.55 -443.95 -115.95 -443.95 -115.95 -766.25 88.55 -766.25 M70.75 -471.95 L70.75 -600.65 -5.9 -600.65 -5.9 -471.95 70.75 -471.95 M370.65 -104.3 L370.55 -104.15 523.75 -104.15 463.6 -165.6 Q449.75 -161.35 437.25 -155.8 L426.65 -150.7 417.1 -145.4 Q404.35 -137.85 393.35 -128.6 L390.15 -125.85 389.1 -124.95 388.2 -124.05 386.0 -122.05 384.45 -120.6 382.0 -118.1 382.0 -118.05 379.2 -115.1 Q375.6 -111.1 372.75 -107.35 L372.15 -106.55 370.65 -104.3 M450.7 -84.15 L369.2 -84.15 369.2 81.1 450.7 81.1 450.7 -84.15 M478.4 -169.55 L542.45 -104.15 542.6 -104.15 542.6 -177.25 Q508.05 -176.7 478.4 -169.55 M535.95 81.1 L535.95 -84.15 466.25 -84.15 466.25 81.1 535.95 81.1 M635.15 -84.15 L565.55 -84.15 565.55 81.1 635.15 81.1 635.15 -84.15 M620.95 -171.65 Q590.85 -177.8 555.95 -177.5 L555.95 -105.25 620.95 -171.65 M-541.65 -738.25 L-618.35 -738.25 -618.35 -616.2 -541.65 -616.2 -541.65 -738.25 M-541.65 -600.65 L-618.35 -600.65 -618.35 -471.95 -541.65 -471.95 -541.65 -600.65 M-449.4 -738.25 L-526.1 -738.25 -526.1 -616.2 -449.4 -616.2 -449.4 -738.25 M-21.5 -738.25 L-98.15 -738.25 -98.15 -616.2 -21.5 -616.2 -21.5 -738.25 M-21.5 -600.65 L-98.15 -600.65 -98.15 -471.95 -21.5 -471.95 -21.5 -600.65 M-636.15 -766.25 L-431.6 -766.25 -431.6 -443.95 -636.15 -443.95 -636.15 -766.25 M-814.15 104.8 L-814.15 -104.15 Q-810.9 -110.25 -803.55 -119.35 -788.8 -137.6 -768.3 -152.7 -702.65 -201.0 -603.7 -199.75 L-601.5 -199.75 Q-502.55 -201.0 -437.3 -152.65 -416.9 -137.55 -402.3 -119.35 -395.0 -110.2 -391.8 -104.1 L-391.8 104.8 -814.15 104.8 M-449.4 -600.65 L-526.1 -600.65 -526.1 -471.95 -449.4 -471.95 -449.4 -600.65 M-613.35 -104.15 L-613.35 -177.25 Q-647.9 -176.7 -677.55 -169.55 L-613.5 -104.15 -613.35 -104.15 M-440.0 -127.75 L-443.1 -130.3 Q-474.8 -156.1 -519.85 -168.05 L-582.4 -104.15 -418.25 -104.15 -419.05 -105.3 -419.2 -105.6 -419.35 -105.8 -419.65 -106.25 -419.95 -106.65 -420.1 -106.85 -420.4 -107.3 -420.55 -107.5 -420.7 -107.65 -426.95 -115.1 -428.55 -116.85 -429.45 -117.9 -430.95 -119.4 -438.05 -126.05 -439.0 -126.9 -440.0 -127.75 M-520.7 -84.15 L-590.35 -84.15 -590.35 81.1 -520.7 81.1 -520.7 -84.15 M-534.95 -171.65 Q-565.05 -177.8 -600.0 -177.5 L-600.0 -105.25 -534.95 -171.65 M-421.45 81.1 L-421.45 -84.15 -502.95 -84.15 -502.95 81.1 -421.45 81.1 M-766.8 -124.95 L-774.9 -117.1 -776.75 -115.1 -781.8 -109.2 -782.15 -108.7 -783.9 -106.45 -784.2 -106.0 -784.35 -105.75 -784.85 -105.05 -785.15 -104.6 -785.2 -104.55 -785.3 -104.4 -785.4 -104.2 -785.45 -104.15 -632.2 -104.15 -692.35 -165.6 Q-733.5 -153.05 -762.6 -128.6 L-766.35 -125.4 -766.8 -124.95 M-689.65 -84.15 L-689.65 81.1 -620.0 81.1 -620.0 -84.15 -689.65 -84.15 M-705.25 -84.15 L-786.75 -84.15 -786.75 81.1 -705.25 81.1 -705.25 -84.15" fill="#000000" fill-opacity="0.14901961" fill-rule="evenodd" stroke="none"/>
    <path d="M714.75 -128.7 L715.2 -128.35 714.8 -128.65 714.75 -128.7 M382.0 -118.1 L384.45 -120.6 382.15 -118.25 382.0 -118.1 M-766.35 -125.4 L-766.55 -125.2 -766.8 -124.95 -766.35 -125.4" fill="#c2c2c2" fill-rule="evenodd" stroke="none"/>
    <path d="M388.2 -124.05 L389.1 -124.95 390.15 -125.85 388.2 -124.05 M-440.0 -127.75 L-439.0 -126.9 -438.05 -126.05 -440.0 -127.75" fill="#646464" fill-rule="evenodd" stroke="none"/>
    <path d="M378.3 -145.4 Q363.65 -133.3 352.4 -119.35 347.8 -113.65 344.35 -108.35 L341.8 -104.15 341.8 104.8 764.1 104.8 764.1 -104.1 762.3 -108.35 Q758.85 -113.65 754.25 -119.35 749.7 -125.0 744.65 -130.3 737.1 -138.2 728.35 -145.4 L721.7 -150.7 719.0 -152.7 714.7 -155.8 Q650.1 -200.95 554.45 -199.75 L552.25 -199.75 Q456.55 -200.95 392.0 -155.8 L387.65 -152.7 385.0 -150.7 378.3 -145.4 M498.7 -738.25 L498.7 -616.2 422.0 -616.2 422.0 -738.25 498.7 -738.25 M590.95 -600.65 L590.95 -471.95 514.25 -471.95 514.25 -600.65 590.95 -600.65 M590.95 -738.25 L590.95 -616.2 514.25 -616.2 514.25 -738.25 590.95 -738.25 M498.7 -600.65 L498.7 -471.95 422.0 -471.95 422.0 -600.65 498.7 -600.65 M70.75 -616.2 L-5.9 -616.2 -5.9 -738.25 70.75 -738.25 70.75 -616.2 M70.75 -471.95 L-5.9 -471.95 -5.9 -600.65 70.75 -600.65 70.75 -471.95 M-123.05 196.75 L-122.95 182.4 -122.75 152.6 -122.65 133.75 -122.65 -73.7 -122.7 -86.15 -122.8 -109.55 -123.05 -176.75 123.7 -176.75 123.95 -109.55 124.05 -86.15 124.1 -73.7 124.1 133.75 124.0 152.6 123.8 182.4 123.7 196.75 M370.65 -104.3 L372.15 -106.55 372.75 -107.35 Q375.6 -111.1 379.2 -115.1 L382.0 -118.05 M-21.5 -600.65 L-21.5 -471.95 -98.15 -471.95 -98.15 -600.65 -21.5 -600.65 M-21.5 -738.25 L-21.5 -616.2 -98.15 -616.2 -98.15 -738.25 -21.5 -738.25 M-449.4 -738.25 L-449.4 -616.2 -526.1 -616.2 -526.1 -738.25 -449.4 -738.25 M-541.65 -600.65 L-541.65 -471.95 -618.35 -471.95 -618.35 -600.65 -541.65 -600.65 M-541.65 -738.25 L-541.65 -616.2 -618.35 -616.2 -618.35 -738.25 -541.65 -738.25 M-449.4 -600.65 L-449.4 -471.95 -526.1 -471.95 -526.1 -600.65 -449.4 -600.65 M-814.15 104.8 L-391.8 104.8 -391.8 -104.1 Q-395.0 -110.2 -402.3 -119.35 -416.9 -137.55 -437.3 -152.65 -502.55 -201.0 -601.5 -199.75 L-603.7 -199.75 Q-702.65 -201.0 -768.3 -152.7 -788.8 -137.6 -803.55 -119.35 -810.9 -110.25 -814.15 -104.15 L-814.15 104.8 M-419.05 -105.3 L-418.25 -104.15 M-7.3 -17.4 L-7.3 -16.95" fill="none" stroke="#000000" stroke-linecap="round" stroke-linejoin="miter-clip" stroke-miterlimit="4.0" stroke-opacity="0.6" stroke-width="1.0"/>
    <path d="M404.2 -766.25 L404.2 -443.95 608.75 -443.95 608.75 -766.25 404.2 -766.25 M88.55 -766.25 L-115.95 -766.25 -115.95 -443.95 88.55 -443.95 88.55 -766.25 M123.7 196.75 L145.95 196.75 145.95 -196.75 -145.9 -196.75 -145.9 -109.55 -145.9 -86.15 -145.9 152.6 -145.9 182.4 -145.9 196.75 -123.05 196.75 M-636.15 -766.25 L-636.15 -443.95 -431.6 -443.95 -431.6 -766.25 -636.15 -766.25" fill="none" stroke="#000000" stroke-linecap="round" stroke-linejoin="miter-clip" stroke-miterlimit="4.0" stroke-width="1.0"/>
    <path d="M715.2 -128.35 L723.65 -120.65 726.7 -117.5 728.9 -115.1 Q732.9 -110.7 735.95 -106.55 L737.6 -104.15 573.5 -104.15 636.05 -168.05 Q654.7 -163.1 671.05 -155.8 676.45 -153.4 681.6 -150.7 686.5 -148.15 691.15 -145.4 702.65 -138.55 712.8 -130.3 L714.3 -129.05 714.75 -128.7 715.2 -128.35 M734.45 -84.15 L734.45 81.1 652.95 81.1 652.95 -84.15 734.45 -84.15 M390.15 -125.85 L393.35 -128.6 Q404.35 -137.85 417.1 -145.4 L426.65 -150.7 437.25 -155.8 Q449.75 -161.35 463.6 -165.6 L523.75 -104.15 370.55 -104.15 370.65 -104.3 M382.0 -118.1 L384.45 -120.6 386.0 -122.05 388.2 -124.05 390.15 -125.85 M450.7 -84.15 L450.7 81.1 369.2 81.1 369.2 -84.15 450.7 -84.15 M478.4 -169.55 L542.45 -104.15 542.6 -104.15 542.6 -177.25 Q508.05 -176.7 478.4 -169.55 M620.95 -171.65 L555.95 -105.25 555.95 -177.5 Q590.85 -177.8 620.95 -171.65 M635.15 -84.15 L635.15 81.1 565.55 81.1 565.55 -84.15 635.15 -84.15 M535.95 81.1 L466.25 81.1 466.25 -84.15 535.95 -84.15 535.95 81.1 M-613.35 -104.15 L-613.35 -177.25 Q-647.9 -176.7 -677.55 -169.55 L-613.5 -104.15 -613.35 -104.15 M-534.95 -171.65 L-600.0 -105.25 -600.0 -177.5 Q-565.05 -177.8 -534.95 -171.65 M-520.7 -84.15 L-520.7 81.1 -590.35 81.1 -590.35 -84.15 -520.7 -84.15 M-418.25 -104.15 L-582.4 -104.15 -519.85 -168.05 Q-474.8 -156.1 -443.1 -130.3 L-440.0 -127.75 -438.05 -126.05 -430.95 -119.4 -428.55 -116.85 -426.95 -115.1 -420.7 -107.65 -419.9 -106.55 -419.35 -105.8 -419.2 -105.6 -419.05 -105.3 M-421.45 81.1 L-502.95 81.1 -502.95 -84.15 -421.45 -84.15 -421.45 81.1 M-766.8 -124.95 L-774.9 -117.1 -776.75 -115.1 -781.8 -109.2 -782.15 -108.7 -783.9 -106.45 -784.2 -106.0 -784.35 -105.75 -784.85 -105.05 -785.15 -104.6 -785.2 -104.55 -785.3 -104.4 -785.4 -104.2 -785.45 -104.15 -632.2 -104.15 -692.35 -165.6 Q-733.5 -153.05 -762.6 -128.6 L-766.35 -125.4 -766.8 -124.95 M-705.25 -84.15 L-705.25 81.1 -786.75 81.1 -786.75 -84.15 -705.25 -84.15 M-689.65 -84.15 L-620.0 -84.15 -620.0 81.1 -689.65 81.1 -689.65 -84.15" fill="none" stroke="#000000" stroke-linecap="round" stroke-linejoin="miter-clip" stroke-miterlimit="4.0" stroke-opacity="0.4" stroke-width="1.0"/>
    <path d="M875.45 -214.75 L904.6 -214.7 958.8 -157.0 958.8 -214.65 1003.25 -214.6 1003.25 211.5 958.8 211.5 958.8 -130.2 875.45 -214.75 M958.8 -157.0 L958.8 -130.2 958.8 -157.0 M163.45 -215.7 L192.6 -215.65 238.8 -166.5 238.8 -215.6 283.25 -215.55 283.25 -157.0 338.2 -215.45 367.25 -215.4 283.25 -130.2 283.25 207.8 238.8 207.8 238.8 -139.15 163.45 -215.7 M238.8 -139.15 L238.8 -166.5 238.8 -139.15 M283.25 -130.2 L283.25 -157.0 283.25 -130.2 M339.55 160.25 L339.55 207.65 321.8 207.65 321.8 160.25 339.55 160.25 M781.15 160.25 L781.15 207.65 763.35 207.65 763.35 160.25 781.15 160.25 M-159.05 -216.15 L-130.0 -216.1 -214.7 -130.15 -214.7 -157.0 -214.7 -130.15 -214.7 207.8 -259.15 207.8 -259.15 -139.15 -259.15 -166.5 -259.15 -139.15 -335.25 -216.4 -306.0 -216.35 -259.15 -166.5 -259.15 -216.3 -214.7 -216.25 -214.7 -157.0 -159.05 -216.15 M-874.8 -217.25 L-871.6 -217.2 -957.35 -130.15 -957.35 -157.0 -957.35 -130.15 -957.35 211.5 -1001.8 211.5 -1001.8 -217.45 -957.35 -217.35 -957.35 -157.0 -900.7 -217.3 -874.8 -217.25 M-840.05 160.25 L-822.3 160.25 -822.3 207.65 -840.05 207.65 -840.05 160.25 M-398.45 160.25 L-380.7 160.25 -380.7 207.65 -398.45 207.65 -398.45 160.25" fill="#000000" fill-opacity="0.29803923" fill-rule="evenodd" stroke="none"/>
    <path d="M113.05 -73.15 L117.85 -73.05 126.5 -72.25 126.5 135.2 112.7 135.8 Q97.2 135.6 83.8 130.75 64.1 123.6 55.7 108.5 48.5 95.55 26.85 87.4 16.05 83.35 6.7 81.85 L6.7 -15.95 Q12.45 -14.25 18.9 -14.15 L29.05 -14.85 Q53.55 -18.55 64.35 -42.65 75.15 -66.7 101.1 -71.9 L113.05 -73.15 M65.05 -16.35 L110.5 -16.35 65.05 -16.35 M65.05 90.35 L110.5 90.35 65.05 90.35 M65.05 37.0 L110.5 37.0 65.05 37.0 M65.05 54.8 L110.5 54.8 65.05 54.8 M65.05 72.55 L110.5 72.55 65.05 72.55 M65.05 1.45 L110.5 1.45 65.05 1.45 M65.05 19.25 L110.5 19.25 65.05 19.25 M-107.5 -73.25 Q-101.9 -73.15 -95.75 -71.9 -70.8 -66.7 -60.4 -42.65 -50.0 -18.55 -26.4 -14.85 L-17.35 -14.25 -11.25 -14.7 -4.9 -15.95 -4.9 81.85 -10.7 83.1 Q-17.85 84.85 -24.35 87.4 -45.15 95.55 -52.1 108.5 -60.15 123.6 -79.15 130.75 -92.0 135.6 -106.85 135.8 L-120.25 135.2 -120.25 -72.25 -107.5 -73.25 M-61.1 -16.35 L-104.8 -16.35 -61.1 -16.35 M-61.1 90.35 L-104.8 90.35 -61.1 90.35 M-61.1 37.0 L-104.8 37.0 -61.1 37.0 M-61.1 54.8 L-104.8 54.8 -61.1 54.8 M-61.1 72.55 L-104.8 72.55 -61.1 72.55 M-61.1 1.45 L-104.8 1.45 -61.1 1.45 M-61.1 19.25 L-104.8 19.25 -61.1 19.25" fill="#ffffff" fill-opacity="0.0" fill-rule="evenodd" stroke="none"/>
    <path d="M321.8 160.25 L304.0 160.25 304.0 142.45 807.85 142.45 807.85 160.25 781.15 160.25 763.35 160.25 339.55 160.25 321.8 160.25 M-822.3 160.25 L-840.05 160.25 -857.85 160.25 -857.85 142.45 -354.0 142.45 -354.0 160.25 -380.7 160.25 -398.45 160.25 -822.3 160.25" fill="#000000" fill-opacity="0.14901961" fill-rule="evenodd" stroke="none"/>
    <path d="M875.45 -214.75 L958.8 -130.2 958.8 211.5 1003.25 211.5 1003.25 -214.6 M958.8 -157.0 L904.6 -214.7 M958.8 -157.0 L958.8 -214.65 M192.6 -215.65 L238.8 -166.5 238.8 -215.6 M283.25 -215.55 L283.25 -157.0 338.2 -215.45 M367.25 -215.4 L283.25 -130.2 283.25 207.8 M238.8 207.8 L238.8 -139.15 163.45 -215.7 M110.5 -16.35 L65.05 -16.35 M110.5 19.25 L65.05 19.25 M110.5 1.45 L65.05 1.45 M110.5 72.55 L65.05 72.55 M110.5 54.8 L65.05 54.8 M110.5 37.0 L65.05 37.0 M110.5 90.35 L65.05 90.35 M-159.05 -216.15 L-214.7 -157.0 -214.7 -216.25 M-214.7 -130.15 L-130.0 -216.1 M-259.15 -216.3 L-259.15 -166.5 -306.0 -216.35 M-259.15 -139.15 L-259.15 207.8 M-214.7 207.8 L-214.7 -130.15 M-104.8 -16.35 L-61.1 -16.35 M-335.25 -216.4 L-259.15 -139.15 M-957.35 -130.15 L-871.6 -217.2 -874.8 -217.25 M-900.7 -217.3 L-957.35 -157.0 -957.35 -217.35 M-957.35 -130.15 L-957.35 211.5 -1001.8 211.5 -1001.8 -217.45 M-104.8 19.25 L-61.1 19.25 M-104.8 1.45 L-61.1 1.45 M-104.8 72.55 L-61.1 72.55 M-104.8 54.8 L-61.1 54.8 M-104.8 37.0 L-61.1 37.0 M-104.8 90.35 L-61.1 90.35" fill="none" stroke="#000000" stroke-linecap="round" stroke-linejoin="miter-clip" stroke-miterlimit="4.0" stroke-width="1.0"/>
    <path d="M958.8 -130.2 L958.8 -157.0 M113.05 -73.15 L101.1 -71.9 Q75.15 -66.7 64.35 -42.65 53.55 -18.55 29.05 -14.85 L18.9 -14.15 Q12.45 -14.25 6.7 -15.95 L6.7 81.85 Q16.05 83.35 26.85 87.4 48.5 95.55 55.7 108.5 64.1 123.6 83.8 130.75 97.2 135.6 112.7 135.8 L126.5 135.2 126.5 -72.25 117.85 -73.05 113.05 -73.15 M283.25 -157.0 L283.25 -130.2 M238.8 -166.5 L238.8 -139.15 M339.55 160.25 L339.55 207.65 321.8 207.65 321.8 160.25 304.0 160.25 304.0 142.45 807.85 142.45 807.85 160.25 781.15 160.25 781.15 207.65 763.35 207.65 763.35 160.25 339.55 160.25 M-214.7 -157.0 L-214.7 -130.15 M-259.15 -166.5 L-259.15 -139.15 M-107.5 -73.25 Q-101.9 -73.15 -95.75 -71.9 -70.8 -66.7 -60.4 -42.65 -50.0 -18.55 -26.4 -14.85 L-17.35 -14.25 -11.25 -14.7 -4.9 -15.95 -4.9 81.85 -10.7 83.1 Q-17.85 84.85 -24.35 87.4 -45.15 95.55 -52.1 108.5 -60.15 123.6 -79.15 130.75 -92.0 135.6 -106.85 135.8 L-120.25 135.2 -120.25 -72.25 -107.5 -73.25 M-957.35 -157.0 L-957.35 -130.15 M-840.05 160.25 L-840.05 207.65 -822.3 207.65 -822.3 160.25 -398.45 160.25 -398.45 207.65 -380.7 207.65 -380.7 160.25 -354.0 160.25 -354.0 142.45 -857.85 142.45 -857.85 160.25 -840.05 160.25" fill="none" stroke="#000000" stroke-linecap="round" stroke-linejoin="miter-clip" stroke-miterlimit="4.0" stroke-opacity="0.6" stroke-width="1.0"/>
    <path d="M339.55 160.25 L321.8 160.25 M781.15 160.25 L763.35 160.25 M-822.3 160.25 L-840.05 160.25 M-398.45 160.25 L-380.7 160.25" fill="none" stroke="#000000" stroke-linecap="round" stroke-linejoin="miter-clip" stroke-miterlimit="4.0" stroke-opacity="0.4" stroke-width="1.0"/>
  </g>
</svg>
