<?xml version="1.0" encoding="UTF-8" standalone="no"?>
<svg xmlns:xlink="http://www.w3.org/1999/xlink" height="136.65px" width="51.45px" xmlns="http://www.w3.org/2000/svg">
  <g transform="matrix(1.0, 0.0, 0.0, 1.0, 24.9, 67.3)">
    <path d="M-19.1 -34.0 L-19.55 -40.05 -19.75 -40.35 -21.0 -42.15 -22.35 -45.1 -22.4 -45.25 -22.4 -45.45 -22.45 -45.75 -22.45 -45.8 Q-22.4 -46.85 -20.9 -49.35 L-19.35 -51.7 -18.95 -54.7 Q-19.25 -60.6 -16.7 -63.2 -15.4 -64.55 -11.35 -65.9 L-10.2 -66.15 -8.8 -66.25 -7.35 -66.2 -4.65 -65.75 -1.6 -64.95 -0.7 -64.65 -0.7 -64.35 Q1.5 -65.2 3.7 -65.7 L5.7 -66.05 7.5 -66.15 9.15 -66.0 9.55 -65.9 9.6 -65.9 Q13.7 -64.7 15.05 -63.45 17.65 -60.95 17.6 -55.05 L18.1 -52.05 19.75 -49.75 Q21.4 -47.3 21.45 -46.25 21.55 -44.8 19.4 -41.3 L18.8 -40.4 20.0 -24.7 20.95 -20.35 Q21.8 -16.4 22.6 -13.75 L23.0 -12.45 Q24.5 -7.7 25.5 0.05 L24.0 -4.2 24.5 -0.45 Q25.0 3.8 23.25 21.8 25.6 31.1 25.2 36.75 L24.0 33.85 Q23.9 35.3 24.35 37.45 L25.0 41.0 Q24.05 39.85 23.75 38.6 L24.35 42.2 Q24.65 44.4 24.45 45.8 23.35 44.4 23.25 42.75 L23.45 47.25 23.45 51.8 Q23.0 51.25 22.85 50.1 L22.8 48.5 Q21.95 51.45 20.75 57.5 L20.7 54.15 Q20.05 55.3 19.5 57.5 L18.5 61.0 Q18.2 59.3 18.3 56.6 L17.1 59.6 Q16.3 61.3 15.3 62.25 L15.3 61.15 15.25 60.05 Q14.4 60.6 13.3 62.05 L11.55 64.3 11.5 61.85 Q10.1 63.05 8.8 64.75 L8.8 63.7 8.75 62.65 Q6.65 63.85 5.75 65.75 L5.75 62.8 4.3 64.3 3.0 66.0 3.0 62.05 Q1.3 63.3 -0.3 66.55 L-0.75 65.05 Q-1.05 64.05 -1.4 63.55 L-2.5 66.0 -3.05 65.0 -3.65 64.05 Q-4.15 65.15 -4.3 66.55 L-5.3 65.05 -6.05 63.3 -6.15 64.2 -6.2 65.2 -8.25 61.35 -8.3 63.3 -9.75 61.4 -11.2 59.55 -11.2 62.5 Q-12.4 60.2 -15.95 57.35 -19.45 54.55 -20.6 52.2 -23.8 45.55 -24.35 36.9 -24.55 33.25 -23.7 26.95 -22.75 20.0 -22.75 17.05 L-23.35 2.25 Q-23.9 -10.35 -23.75 -12.2 L-23.45 -13.75 -21.7 -19.05 Q-19.5 -24.75 -19.25 -25.7 -18.8 -27.55 -19.1 -34.0 M16.35 -34.35 L16.35 -34.4 15.9 -32.95 16.35 -34.35 M-10.0 -13.3 L-9.85 -13.15 -10.0 -13.35 -10.1 -13.5 -10.0 -13.3" fill="#ffffff" fill-opacity="0.0" fill-rule="evenodd" stroke="none"/>
    <path d="M-11.2 62.5 L-12.25 60.95 -12.5 60.6 -11.25 61.1 -11.2 62.5 M-9.7 61.45 L-8.25 61.5 -8.3 63.3 -9.7 61.45 M18.5 61.0 Q18.2 59.3 18.3 56.6 L17.1 59.6 Q16.3 61.3 15.3 62.25 L15.3 61.15 15.25 60.05 Q14.4 60.6 13.3 62.05 L11.55 64.3 11.5 61.85 Q10.1 63.05 8.8 64.75 L8.8 63.7 8.75 62.65 Q6.65 63.85 5.75 65.75 L5.75 62.8 4.3 64.3 3.0 66.0 3.0 62.05 Q1.3 63.3 -0.3 66.55 L-0.75 65.05 Q-1.05 64.05 -1.4 63.55 L-2.5 66.0 -3.05 65.0 -3.65 64.05 Q-4.15 65.15 -4.3 66.55 L-5.3 65.05 -6.05 63.3 -6.15 64.2 -6.2 65.2 -7.5 62.8 -8.15 61.5 Q-6.85 61.4 -5.65 60.9 L-2.3 58.1 Q-0.25 56.5 1.0 58.5 2.2 57.1 2.85 54.4 L3.75 49.8 Q4.4 50.45 4.85 51.6 L5.6 53.7 Q7.0 51.5 7.85 47.2 8.7 42.95 8.3 40.3 7.4 41.95 6.0 45.7 6.1 44.2 6.8 41.3 L7.65 36.95 Q4.4 41.65 3.7 44.35 3.5 40.9 6.2 32.8 8.6 25.55 7.45 21.25 6.55 23.45 6.35 25.05 L6.7 18.15 Q6.65 19.15 6.2 20.4 L5.1 23.05 4.85 12.1 Q4.55 5.8 2.7 1.55 L2.85 6.2 Q2.85 9.0 2.25 10.7 -0.05 2.55 -3.35 -1.4 -3.25 1.6 -3.4 3.1 -4.7 1.9 -6.5 -1.65 -8.2 -5.05 -9.6 -6.15 L-9.65 -4.9 -9.7 -3.6 Q-10.85 -5.1 -11.75 -7.85 L-13.05 -12.5 Q-13.4 -11.5 -13.3 -9.1 -13.45 -11.55 -14.6 -16.45 -15.8 -21.55 -15.95 -24.1 L-16.7 -30.85 -16.5 -33.2 -15.7 -30.9 -14.85 -27.7 -14.25 -23.7 -13.85 -21.2 -13.2 -18.95 Q-12.6 -17.25 -11.65 -15.85 L-10.3 -13.75 -10.1 -13.5 -10.0 -13.35 -9.85 -13.15 Q-7.85 -10.6 -5.3 -9.05 -3.35 -7.7 -0.7 -7.2 L0.7 -7.0 1.35 -7.0 3.75 -7.4 5.8 -8.4 7.9 -10.1 10.05 -12.85 10.25 -13.15 10.3 -13.2 10.65 -13.75 11.95 -16.1 12.35 -17.0 Q13.5 -19.65 13.95 -22.35 L14.0 -22.9 14.55 -27.75 15.9 -32.95 16.35 -34.4 16.65 -35.25 18.8 -40.4 20.0 -24.7 20.95 -20.35 Q21.8 -16.4 22.6 -13.75 L23.0 -12.45 Q24.5 -7.7 25.5 0.05 L24.0 -4.2 24.5 -0.45 Q25.0 3.8 23.25 21.8 25.6 31.1 25.2 36.75 L24.0 33.85 Q23.9 35.3 24.35 37.45 L25.0 41.0 Q24.05 39.85 23.75 38.6 L24.35 42.2 Q24.65 44.4 24.45 45.8 23.35 44.4 23.25 42.75 L23.45 47.25 23.45 51.8 Q23.0 51.25 22.85 50.1 L22.8 48.5 Q21.95 51.45 20.75 57.5 L20.7 54.15 Q20.05 55.3 19.5 57.5 L18.5 61.0" fill="#000000" fill-opacity="0.2" fill-rule="evenodd" stroke="none"/>
    <path d="M3.05 -7.25 Q6.45 -10.55 6.75 -13.95 7.05 -16.8 5.25 -18.15 3.65 -19.4 0.6 -19.2 L3.5 -19.5 6.5 -19.7 Q9.4 -20.15 9.5 -23.7 9.55 -26.25 8.35 -29.5 7.65 -31.3 7.6 -32.1 7.55 -32.95 8.2 -34.95 9.35 -38.8 11.2 -39.75 L16.3 -42.15 Q19.1 -43.95 18.55 -47.2 17.8 -51.65 14.25 -51.4 11.15 -51.2 8.0 -48.0 9.25 -49.65 12.25 -52.45 L15.5 -55.55 Q16.55 -57.15 15.9 -60.05 L15.2 -63.25 Q17.65 -60.8 17.6 -55.05 L18.1 -52.05 19.75 -49.75 Q21.4 -47.3 21.45 -46.25 21.55 -44.6 18.8 -40.4 L16.65 -35.25 Q14.45 -29.15 14.1 -24.1 13.8 -19.15 10.85 -14.1 7.5 -8.35 3.05 -7.25" fill="#000000" fill-opacity="0.2" fill-rule="evenodd" stroke="none"/>
    <path d="M1.25 -28.6 Q4.45 -31.2 6.95 -30.6 9.25 -30.0 9.25 -27.45 9.25 -25.5 5.85 -24.35 L2.45 -23.6 2.45 -18.65 Q6.7 -18.6 9.7 -17.55 L-7.15 -17.85 -1.25 -18.55 2.1 -18.65 0.25 -18.95 0.25 -23.6 Q-4.05 -24.1 -5.9 -25.1 -7.2 -25.8 -7.0 -27.55 -6.85 -29.15 -5.75 -30.1 -4.9 -30.85 -1.75 -29.8 L1.25 -28.6 M21.0 -45.8 Q19.75 -39.9 16.05 -39.6 14.85 -39.5 13.6 -39.95 L12.55 -40.45 Q14.1 -47.0 17.7 -47.05 19.5 -47.1 21.0 -45.8 M-22.45 -45.8 L-21.5 -46.45 Q-20.3 -47.1 -19.15 -47.05 -15.55 -47.0 -14.0 -40.45 -15.6 -39.4 -17.45 -39.6 -21.2 -39.9 -22.45 -45.8" fill="#000000" fill-opacity="0.8980392" fill-rule="evenodd" stroke="none"/>
    <path d="M21.0 -45.8 Q19.5 -47.1 17.7 -47.05 14.1 -47.0 12.55 -40.45 L13.6 -39.95 Q14.85 -39.5 16.05 -39.6 19.75 -39.9 21.0 -45.8 M-22.45 -45.8 L-21.5 -46.45 Q-20.3 -47.1 -19.15 -47.05 -15.55 -47.0 -14.0 -40.45 -15.6 -39.4 -17.45 -39.6 -21.2 -39.9 -22.45 -45.8" fill="none" stroke="#000000" stroke-linecap="butt" stroke-linejoin="miter-clip" stroke-miterlimit="10.0" stroke-opacity="0.6" stroke-width="1.0"/>
    <path d="M18.8 -40.4 L19.4 -41.3 Q21.55 -44.8 21.45 -46.25 21.4 -47.3 19.75 -49.75 L18.1 -52.05 17.6 -55.05 Q17.65 -60.95 15.05 -63.45 13.7 -64.7 9.6 -65.9 L9.55 -65.9 9.15 -66.0 7.5 -66.15 5.7 -66.05 3.7 -65.7 Q1.5 -65.2 -0.7 -64.35 L-0.7 -64.65 -1.6 -64.95 -4.65 -65.75 -7.35 -66.2 -8.8 -66.25 -10.2 -66.15 -11.35 -65.9 Q-15.4 -64.55 -16.7 -63.2 -19.25 -60.6 -18.95 -54.7 L-19.35 -51.7 -20.9 -49.35 Q-22.4 -46.85 -22.45 -45.8 L-22.45 -45.75 -22.4 -45.45 -22.4 -45.25 -22.35 -45.1 -21.0 -42.15 -19.75 -40.35 -19.55 -40.05 -17.6 -35.85 -17.5 -35.7 -17.2 -35.0 -15.7 -30.9 -14.85 -27.7 -14.25 -23.7 -13.85 -21.2 -13.2 -18.95 Q-12.6 -17.25 -11.65 -15.85 L-10.3 -13.75 -10.1 -13.5 -10.0 -13.35 -9.85 -13.15 Q-7.85 -10.6 -5.3 -9.05 -3.35 -7.7 -0.7 -7.2 L0.7 -7.0 1.35 -7.0 3.75 -7.4 5.8 -8.4 7.9 -10.1 10.05 -12.85 10.25 -13.15 10.3 -13.2 10.65 -13.75 11.95 -16.1 12.35 -17.0 Q13.5 -19.65 13.95 -22.35 L14.0 -22.9 14.55 -27.75 15.9 -32.95 16.35 -34.4 16.65 -35.25 18.8 -40.4 20.0 -24.7 20.95 -20.35 Q21.8 -16.4 22.6 -13.75 L23.0 -12.45 Q24.5 -7.7 25.5 0.05 L24.0 -4.2 24.5 -0.45 Q25.0 3.8 23.25 21.8 25.6 31.1 25.2 36.75 L24.0 33.85 Q23.9 35.3 24.35 37.45 L25.0 41.0 Q24.05 39.85 23.75 38.6 L24.35 42.2 Q24.65 44.4 24.45 45.8 23.35 44.4 23.25 42.75 L23.45 47.25 23.45 51.8 Q23.0 51.25 22.85 50.1 L22.8 48.5 Q21.95 51.45 20.75 57.5 L20.7 54.15 Q20.05 55.3 19.5 57.5 L18.5 61.0 Q18.2 59.3 18.3 56.6 L17.1 59.6 Q16.3 61.3 15.3 62.25 L15.3 61.15 15.25 60.05 Q14.4 60.6 13.3 62.05 L11.55 64.3 11.5 61.85 Q10.1 63.05 8.8 64.75 L8.8 63.7 8.75 62.65 Q6.65 63.85 5.75 65.75 L5.75 62.8 4.3 64.3 3.0 66.0 3.0 62.05 Q1.3 63.3 -0.3 66.55 L-0.75 65.05 Q-1.05 64.05 -1.4 63.55 L-2.5 66.0 -3.05 65.0 -3.65 64.05 Q-4.15 65.15 -4.3 66.55 L-5.3 65.05 -6.05 63.3 -6.15 64.2 -6.2 65.2 -8.25 61.35 -8.3 63.3 -9.75 61.4 -11.2 59.55 -11.2 62.5 Q-12.4 60.2 -15.95 57.35 -19.45 54.55 -20.6 52.2 -23.8 45.55 -24.35 36.9 -24.55 33.25 -23.7 26.95 -22.75 20.0 -22.75 17.05 L-23.35 2.25 Q-23.9 -10.35 -23.75 -12.2 L-23.45 -13.75 -21.7 -19.05 Q-19.5 -24.75 -19.25 -25.7 -18.8 -27.55 -19.1 -34.0 L-19.55 -40.05 M15.9 -32.95 L16.35 -34.35 16.35 -34.4 M-10.1 -13.5 L-10.0 -13.3 -9.85 -13.15" fill="none" stroke="#000000" stroke-linecap="round" stroke-linejoin="miter-clip" stroke-miterlimit="10.0" stroke-width="1.0"/>
  </g>
</svg>
