<?xml version="1.0" encoding="UTF-8" standalone="no"?>
<svg xmlns:xlink="http://www.w3.org/1999/xlink" height="39.55px" width="11.45px" xmlns="http://www.w3.org/2000/svg">
  <g transform="matrix(1.0, 0.0, 0.0, 1.0, 5.75, 19.8)">
    <path d="M-3.9 -4.0 L-3.85 -4.05 Q-1.3 -5.45 0.3 -7.0 2.0 -8.6 3.15 -11.0 1.35 -9.7 0.55 -9.25 -1.05 -8.3 -2.4 -7.95 L-5.15 -8.05 -5.15 -7.9 Q-5.1 -8.95 -4.6 -9.65 -3.8 -10.85 -1.3 -12.4 L1.55 -14.35 2.25 -15.0 Q3.4 -16.25 4.45 -15.25 L5.2 -14.0 5.2 18.05 5.2 18.2 Q4.05 19.65 0.65 19.1 L-2.5 18.2 -2.7 18.05 Q-3.2 17.6 -3.4 16.3 -3.75 14.6 -3.6 11.4 L-3.35 6.75 Q-3.25 4.35 -3.4 3.7 L-4.0 1.4 Q-4.35 0.15 -4.3 -0.9 L-4.0 -3.2 -4.0 -3.45 -3.9 -4.0" fill="#ffffff" fill-opacity="0.0" fill-rule="evenodd" stroke="none"/>
    <path d="M-5.15 -7.9 L-5.15 -8.05 -2.4 -7.95 Q-1.05 -8.3 0.55 -9.25 1.35 -9.7 3.15 -11.0 2.0 -8.6 0.3 -7.0 -1.3 -5.45 -3.85 -4.05 L-3.9 -4.0 -3.65 -5.75 -4.15 -5.6 -4.2 -5.6 Q-4.85 -5.55 -5.1 -6.15 L-5.15 -6.3 -5.2 -6.55 -5.25 -7.0 -5.2 -7.55 -5.15 -7.85 -5.15 -7.9" fill="#000000" fill-opacity="0.09803922" fill-rule="evenodd" stroke="none"/>
    <path d="M-5.15 -6.3 L-5.1 -6.15 Q-4.85 -5.55 -4.2 -5.6 -5.0 -5.5 -5.15 -6.3" fill="#ffffff" fill-rule="evenodd" stroke="none"/>
    <path d="M-3.9 -4.0 L-4.0 -3.45 -4.0 -3.2 -4.3 -0.9 Q-4.35 0.15 -4.0 1.4 L-3.4 3.7 Q-3.25 4.35 -3.35 6.75 L-3.6 11.4 Q-3.75 14.6 -3.4 16.3 -3.2 17.6 -2.7 18.05 M5.2 18.05 L5.2 -14.0 4.45 -15.25 Q3.4 -16.25 2.25 -15.0 L1.55 -14.35 -1.3 -12.4 Q-3.8 -10.85 -4.6 -9.65 -5.1 -8.95 -5.15 -7.9 L-5.15 -7.85 -5.2 -7.55 -5.25 -7.0 -5.2 -6.55 -5.15 -6.3 Q-5.0 -5.5 -4.2 -5.6 L-4.15 -5.6 -3.65 -5.75 -3.9 -4.0 M1.55 -14.35 L1.55 -19.3" fill="none" stroke="#000000" stroke-linecap="round" stroke-linejoin="round" stroke-width="1.0"/>
    <path d="M-2.7 18.05 L-2.5 18.2 0.65 19.1 Q4.05 19.65 5.2 18.2 L5.2 18.05" fill="none" stroke="#000000" stroke-linecap="round" stroke-linejoin="round" stroke-opacity="0.4" stroke-width="1.0"/>
  </g>
</svg>
