<?xml version="1.0" encoding="UTF-8" standalone="no"?>
<svg xmlns:xlink="http://www.w3.org/1999/xlink" height="95.9px" width="134.3px" xmlns="http://www.w3.org/2000/svg">
  <g transform="matrix(1.0, 0.0, 0.0, 1.0, 67.55, 47.95)">
    <path d="M-3.35 -33.65 L6.3 -44.85 12.5 -47.4 13.6 -46.6 11.1 -46.0 -1.0 -31.7 -3.35 -33.65 M24.3 -10.45 L51.15 -41.6 58.8 -44.7 60.2 -43.75 Q58.3 -43.55 57.05 -42.95 L27.3 -7.95 24.3 -10.45 M41.0 13.5 L40.25 13.6 39.05 13.55 20.35 8.65 22.65 6.0 35.65 9.4 41.0 13.5 M-17.5 47.2 L-22.25 44.5 Q-22.4 44.15 -22.15 43.4 -21.6 41.95 -19.45 40.15 L-8.65 27.65 Q-21.4 21.8 -34.2 15.9 L-35.7 15.2 Q-36.55 14.8 -36.75 14.1 -37.0 13.4 -36.5 12.75 -36.0 12.1 -35.0 11.95 L-33.25 12.15 -31.65 12.9 -6.05 24.65 7.9 8.5 9.2 7.0 10.1 6.0 7.9 5.4 Q7.0 5.2 6.65 4.6 6.3 4.05 6.7 3.45 7.1 2.9 8.0 2.65 8.9 2.4 9.75 2.65 L11.05 3.0 12.4 3.35 18.55 -3.8 21.7 -1.35 -18.1 45.5 -17.75 47.0 -17.5 47.2 M-49.15 26.95 L-49.75 26.8 -53.45 25.2 Q-53.6 24.9 -53.35 24.3 -52.95 23.1 -51.15 21.65 L-21.55 -12.55 -21.25 -12.35 -18.9 -10.65 -50.05 26.0 -49.15 26.95 M-16.35 -18.6 L-10.1 -25.8 -7.65 -23.9 -13.8 -16.65 -16.35 -18.6 M10.1 6.0 L12.4 3.35 10.1 6.0 M-6.05 24.65 L-8.65 27.65 -6.05 24.65" fill="#000000" fill-opacity="0.14901961" fill-rule="evenodd" stroke="none"/>
    <path d="M13.6 -46.6 L16.05 -46.7 19.0 -46.45 3.35 -28.05 -1.0 -31.7 11.1 -46.0 13.6 -46.6 M-34.2 15.9 L-43.55 26.8 Q-46.5 28.2 -48.6 27.25 L-49.15 26.95 -50.05 26.0 -18.9 -10.65 -14.35 -7.4 -31.65 12.9 -33.25 12.15 -35.0 11.95 Q-36.0 12.1 -36.5 12.75 -37.0 13.4 -36.75 14.1 -36.55 14.8 -35.7 15.2 L-34.2 15.9 M-9.4 -13.15 L-13.8 -16.65 -7.65 -23.9 -3.15 -20.45 -9.4 -13.15" fill="#000000" fill-opacity="0.34901962" fill-rule="evenodd" stroke="none"/>
    <path d="M3.35 -28.05 L24.3 -10.45 27.3 -7.95 31.7 -4.25 65.35 24.0 Q64.8 27.35 61.7 27.55 L58.7 27.1 41.0 13.5 35.65 9.4 26.15 2.05 21.7 -1.35 26.15 2.05 22.65 6.0 20.35 8.65 -13.0 46.45 Q-16.3 48.0 -17.5 47.2 L-17.75 47.0 -18.1 45.5 21.7 -1.35 18.55 -3.8 -3.15 -20.45 -7.65 -23.9 -10.1 -25.8 -15.2 -29.75 -17.95 -31.85 -5.05 -35.1 -3.35 -33.65 -1.0 -31.7 3.35 -28.05 M60.2 -43.75 L62.85 -43.8 66.25 -43.45 31.7 -4.25 27.3 -7.95 57.05 -42.95 Q58.3 -43.55 60.2 -43.75 M-21.9 -12.85 L-22.05 -12.9 -22.85 -13.5 -63.5 -42.55 -66.3 -44.55 -52.3 -47.0 -16.35 -18.6 -13.8 -16.65 -9.4 -13.15 Q0.85 -5.05 11.05 3.0 L9.75 2.65 Q8.9 2.4 8.0 2.65 7.1 2.9 6.7 3.45 6.3 4.05 6.65 4.6 7.0 5.2 7.9 5.4 L10.1 6.0 9.2 7.0 7.9 8.5 -13.7 -6.95 -14.35 -7.4 -18.9 -10.65 -21.25 -12.35 -21.9 -12.85 M-15.2 -29.75 L-10.5 -29.6 60.8 26.2 62.05 26.95 58.7 27.1 62.05 26.95 60.8 26.2 -10.5 -29.6 -15.2 -29.75 M-63.5 -42.55 L-58.75 -42.4 9.2 7.0 -58.75 -42.4 -63.5 -42.55" fill="#ffffff" fill-opacity="0.0" fill-rule="evenodd" stroke="none"/>
    <path d="M-21.55 -12.55 L-21.9 -12.85 -21.25 -12.35 -21.55 -12.55" fill="#cfcfcf" fill-rule="evenodd" stroke="none"/>
    <path d="M-3.35 -33.65 L6.3 -44.85 12.5 -47.4 13.6 -46.6 16.05 -46.7 19.0 -46.45 M51.15 -41.6 L58.8 -44.7 60.2 -43.75 62.85 -43.8 66.25 -43.45 M-49.15 26.95 L-49.75 26.8 M-21.55 -12.55 L-21.9 -12.85 -22.05 -12.9 M-63.5 -42.55 L-66.3 -44.55 -52.3 -47.0 M-10.1 -25.8 L-15.2 -29.75 -17.95 -31.85 -5.05 -35.1 -3.35 -33.65 -1.0 -31.7 11.1 -46.0 13.6 -46.6 M27.3 -7.95 L31.7 -4.25 M27.3 -7.95 L24.3 -10.45 M18.55 -3.8 L21.7 -1.35 26.15 2.05 M35.65 9.4 L41.0 13.5 M60.2 -43.75 Q58.3 -43.55 57.05 -42.95 L27.3 -7.95 M9.2 7.0 L-58.75 -42.4 -63.5 -42.55 M58.7 27.1 L62.05 26.95 60.8 26.2 -10.5 -29.6 -15.2 -29.75 M-21.25 -12.35 L-21.9 -12.85 M-21.25 -12.35 L-21.55 -12.55 M-14.35 -7.4 L-13.7 -6.95 M7.9 8.5 L9.2 7.0 10.1 6.0 7.9 5.4 Q7.0 5.2 6.65 4.6 6.3 4.05 6.7 3.45 7.1 2.9 8.0 2.65 8.9 2.4 9.75 2.65 L11.05 3.0 12.4 3.35 10.1 6.0 M-9.4 -13.15 L-13.8 -16.65 -16.35 -18.6 M-18.9 -10.65 L-14.35 -7.4 M-7.65 -23.9 L-13.8 -16.65 M-3.15 -20.45 L-7.65 -23.9 -10.1 -25.8 M-21.25 -12.35 L-18.9 -10.65 -50.05 26.0 -49.15 26.95 M-31.65 12.9 L-33.25 12.15 -35.0 11.95 Q-36.0 12.1 -36.5 12.75 -37.0 13.4 -36.75 14.1 -36.55 14.8 -35.7 15.2 L-34.2 15.9 M21.7 -1.35 L-18.1 45.5 -17.75 47.0 -17.5 47.2 M-8.65 27.65 L-6.05 24.65 M22.65 6.0 L20.35 8.65 M-1.0 -31.7 L3.35 -28.05" fill="none" stroke="#000000" stroke-linecap="round" stroke-linejoin="miter-clip" stroke-miterlimit="4.0" stroke-opacity="0.6" stroke-width="1.0"/>
    <path d="M19.0 -46.45 L3.35 -28.05 24.3 -10.45 51.15 -41.6 M66.25 -43.45 L31.7 -4.25 65.35 24.0 Q64.8 27.35 61.7 27.55 L58.7 27.1 41.0 13.5 40.25 13.6 39.05 13.55 20.35 8.65 -13.0 46.45 Q-16.3 48.0 -17.5 47.2 L-22.25 44.5 Q-22.4 44.15 -22.15 43.4 -21.6 41.95 -19.45 40.15 L-8.65 27.65 Q-21.4 21.8 -34.2 15.9 L-43.55 26.8 Q-46.5 28.2 -48.6 27.25 L-49.15 26.95 M-49.75 26.8 L-53.45 25.2 Q-53.6 24.9 -53.35 24.3 -52.95 23.1 -51.15 21.65 L-21.55 -12.55 M-22.05 -12.9 L-22.85 -13.5 -63.5 -42.55 M-52.3 -47.0 L-16.35 -18.6 -10.1 -25.8 M26.15 2.05 L35.65 9.4 22.65 6.0 26.15 2.05 M-13.7 -6.95 L7.9 8.5 -6.05 24.65 -31.65 12.9 -14.35 -7.4 M11.05 3.0 Q0.85 -5.05 -9.4 -13.15 L-3.15 -20.45 18.55 -3.8 12.4 3.35" fill="none" stroke="#000000" stroke-linecap="round" stroke-linejoin="miter-clip" stroke-miterlimit="4.0" stroke-width="1.0"/>
  </g>
</svg>
