<?xml version="1.0" encoding="UTF-8" standalone="no"?>
<svg xmlns:xlink="http://www.w3.org/1999/xlink" height="105.7px" width="151.0px" xmlns="http://www.w3.org/2000/svg">
  <g transform="matrix(1.0, 0.0, 0.0, 1.0, 75.55, 53.0)">
    <path d="M10.65 15.6 L6.1 -49.1 Q6.05 -50.3 6.9 -51.25 7.8 -52.15 9.15 -52.25 10.55 -52.35 11.55 -51.55 12.6 -50.8 12.65 -49.55 L17.2 14.95 10.65 15.6 M66.3 37.35 L10.15 22.8 9.85 15.65 66.3 26.65 66.3 37.35 M-69.9 23.85 L-74.95 -48.8 Q-75.05 -50.15 -74.2 -51.15 -73.3 -52.15 -71.95 -52.25 -70.6 -52.35 -69.6 -51.5 -68.55 -50.6 -68.45 -49.25 L-63.35 23.4 -63.45 24.5 -64.1 24.3 -69.65 24.9 -69.9 23.85 M-17.75 52.2 L-72.45 32.3 -72.75 25.2 -67.75 26.7 -67.5 26.75 -67.4 26.8 -17.75 41.5 -17.75 52.2" fill="#000000" fill-opacity="0.14901961" fill-rule="evenodd" stroke="none"/>
    <path d="M74.65 25.2 L74.95 35.3 66.3 37.35 66.3 26.65 74.65 25.2 M-9.45 40.05 L-9.15 50.15 -17.75 52.2 -17.75 41.5 -9.45 40.05" fill="#000000" fill-opacity="0.34901962" fill-rule="evenodd" stroke="none"/>
    <path d="M17.2 14.95 L18.5 14.8 74.65 25.2 66.3 26.65 9.85 15.65 10.65 15.6 17.2 14.95 M-63.45 24.5 L-9.45 40.05 -17.75 41.5 -67.4 26.8 -67.5 26.75 -67.75 26.7 -72.75 25.2 -69.65 24.9 -64.1 24.3 -63.45 24.5" fill="#ffffff" fill-opacity="0.0" fill-rule="evenodd" stroke="none"/>
    <path d="M10.65 15.6 L6.1 -49.1 Q6.05 -50.3 6.9 -51.25 7.8 -52.15 9.15 -52.25 10.55 -52.35 11.55 -51.55 12.6 -50.8 12.65 -49.55 L17.2 14.95 M18.5 14.8 L74.65 25.2 74.95 35.3 66.3 37.35 10.15 22.8 9.85 15.65 M-69.9 23.85 L-74.95 -48.8 Q-75.05 -50.15 -74.2 -51.15 -73.3 -52.15 -71.95 -52.25 -70.6 -52.35 -69.6 -51.5 -68.55 -50.6 -68.45 -49.25 L-63.35 23.4 M-63.45 24.5 L-9.45 40.05 -9.15 50.15 -17.75 52.2 -72.45 32.3 -72.75 25.2 -69.65 24.9" fill="none" stroke="#000000" stroke-linecap="round" stroke-linejoin="miter-clip" stroke-miterlimit="4.0" stroke-width="1.0"/>
    <path d="M17.2 14.95 L18.5 14.8 M9.85 15.65 L10.65 15.6 17.2 14.95 M74.65 25.2 L66.3 26.65 66.3 37.35 M66.3 26.65 L9.85 15.65 M-63.35 23.4 L-63.45 24.5 -64.1 24.3 -69.65 24.9 -69.9 23.85 M-9.45 40.05 L-17.75 41.5 -17.75 52.2 M-17.75 41.5 L-67.4 26.8 -67.5 26.75 -67.75 26.7 -72.75 25.2" fill="none" stroke="#000000" stroke-linecap="round" stroke-linejoin="miter-clip" stroke-miterlimit="4.0" stroke-opacity="0.6" stroke-width="1.0"/>
  </g>
</svg>
