<?xml version="1.0" encoding="UTF-8" standalone="no"?>
<svg xmlns:xlink="http://www.w3.org/1999/xlink" height="190.4px" width="1342.5px" xmlns="http://www.w3.org/2000/svg">
  <g transform="matrix(1.0, 0.0, 0.0, 1.0, 671.1, 95.2)">
    <path d="M77.35 -50.85 Q73.05 -51.6 68.25 -52.95 63.5 -54.3 51.9 -58.35 L50.05 -58.95 99.8 -62.8 Q130.9 -66.25 253.8 -60.7 L370.5 -54.5 439.0 -55.9 467.1 -56.45 470.95 -56.55 416.55 -50.9 310.7 -40.65 273.15 -42.4 169.15 -47.9 153.2 -52.2 Q139.7 -55.6 119.3 -52.75 L102.85 -50.5 77.35 -50.85 M533.9 -28.45 L531.25 -29.2 Q523.25 -31.55 518.0 -34.8 526.15 -35.3 536.7 -34.35 L566.65 -26.85 533.9 -28.45 M626.55 42.9 L649.5 44.95 494.85 53.25 550.05 69.8 531.9 66.95 Q506.95 63.7 473.05 61.55 364.65 54.65 207.55 61.55 L304.9 53.6 Q409.9 44.6 447.85 39.45 485.85 34.25 571.5 39.1 L581.2 39.7 626.55 42.9 M-557.45 26.95 Q-534.2 25.65 -518.95 22.45 -505.1 19.55 -489.0 22.15 -479.7 23.7 -457.5 30.05 -434.25 36.7 -418.75 39.55 -393.65 44.15 -367.05 44.15 -325.4 44.15 -259.65 37.9 L-215.95 34.05 Q-193.9 32.55 -179.2 33.3 -151.35 34.65 -88.4 35.2 L-24.5 35.45 Q-16.2 35.45 88.75 37.65 L31.1 43.9 Q-31.75 49.9 -57.65 48.5 -81.25 47.3 -133.55 51.6 -181.85 55.6 -184.75 55.0 -203.7 50.95 -287.3 53.65 L-367.05 57.2 -491.35 37.65 -433.35 61.55 -481.35 50.4 Q-533.15 39.0 -552.1 37.65 -571.1 36.3 -606.3 31.4 L-614.4 30.25 -584.3 31.65 Q-579.75 31.9 -567.6 31.65 -552.8 31.4 -546.15 31.45 -519.7 31.7 -510.9 36.4 -520.4 31.05 -540.55 29.0 L-555.4 27.3 -557.45 26.95 M-529.0 -44.55 L-646.05 -46.2 -588.15 -48.0 -544.55 -49.65 Q-438.2 -53.8 -414.0 -57.25 -389.85 -60.7 -291.8 -52.45 L-226.8 -46.4 -198.55 -43.45 -250.65 -42.1 -294.9 -41.0 -320.65 -40.5 Q-393.0 -39.2 -397.45 -40.7 -402.6 -42.4 -524.85 -44.5 L-529.0 -44.55" fill="#000000" fill-opacity="0.24705882" fill-rule="evenodd" stroke="none"/>
    <path d="M87.05 -23.65 L83.45 -25.3 139.55 -26.55 87.05 -23.65 M-184.4 1.1 L-180.9 1.75 -187.9 1.65 -184.4 1.1" fill="#ffffff" fill-opacity="0.14901961" fill-rule="evenodd" stroke="none"/>
    <path d="M439.0 -55.9 L370.5 -54.5 253.8 -60.7 Q130.9 -66.25 99.8 -62.8 L50.05 -58.95 Q30.6 -65.5 20.2 -65.0 -2.45 -63.95 -31.05 -56.15 L-36.2 -54.65 -112.9 -51.7 -46.9 -51.6 -55.25 -49.2 Q-70.15 -44.9 -80.65 -42.45 L-81.55 -42.25 -120.5 -47.25 Q-239.3 -61.75 -298.0 -60.0 L-375.35 -62.8 -317.3 -84.85 -329.3 -87.65 -328.45 -87.6 -327.65 -87.6 -224.75 -84.15 Q-175.55 -83.0 -165.4 -84.85 -143.6 -88.8 -25.2 -92.1 91.05 -95.35 110.85 -93.15 126.4 -91.45 298.35 -87.95 L467.2 -84.85 613.55 -91.65 623.35 -91.95 480.65 -82.2 215.85 -65.55 324.25 -59.3 Q396.95 -55.85 439.0 -55.9 M-111.9 -36.95 Q-118.05 -36.5 -123.1 -36.9 L-84.25 -33.55 -97.55 -29.85 Q-126.9 -22.0 -146.45 -24.1 -126.8 -20.05 -103.05 -21.0 -86.7 -21.65 -59.95 -25.45 L-16.95 -31.05 Q7.3 -33.3 26.15 -31.45 34.4 -30.65 57.5 -26.15 L64.4 -24.85 33.5 -24.1 Q44.9 -22.4 75.2 -23.25 L90.05 -22.15 87.05 -23.65 139.55 -26.55 255.55 -28.6 Q309.35 -29.4 354.75 -29.7 L339.8 -27.85 Q362.25 -21.4 395.45 -20.95 432.85 -21.5 451.6 -20.65 L481.6 -18.55 511.7 -17.05 544.75 -19.1 Q567.4 -20.0 575.65 -15.1 566.2 -21.1 546.25 -25.55 L533.9 -28.45 566.65 -26.85 536.7 -34.35 551.05 -32.5 581.2 -27.0 585.85 -26.2 Q606.55 -22.65 620.3 -22.8 638.55 -23.0 652.2 -29.2 L611.5 -31.95 Q594.45 -33.2 581.2 -35.2 L571.25 -36.95 539.4 -43.2 Q521.8 -46.2 506.8 -46.2 L491.5 -45.65 489.3 -46.2 646.75 -71.05 505.9 -71.05 670.9 -94.7 670.9 75.5 586.0 86.4 481.0 86.4 Q387.1 86.4 378.8 83.65 373.6 81.9 227.9 88.15 L119.2 93.0 108.1 83.65 282.1 75.35 130.2 61.55 -41.1 70.5 -154.35 75.35 -145.6 76.8 -168.15 75.35 -292.45 89.15 -425.05 78.1 -475.8 78.45 Q-527.6 79.15 -532.8 80.85 -537.95 82.6 -555.2 77.8 -563.85 75.35 -571.45 72.6 L-670.6 75.5 -670.6 9.2 -564.45 4.4 Q-574.15 6.4 -585.65 10.25 L-620.4 22.4 Q-629.25 25.15 -637.5 26.85 L-637.75 26.8 -637.55 26.85 Q-648.55 29.05 -658.4 29.3 -639.4 29.3 -614.4 30.25 L-606.3 31.4 Q-571.1 36.3 -552.1 37.65 -533.15 39.0 -481.35 50.4 L-433.35 61.55 -491.35 37.65 -367.05 57.2 -287.3 53.65 Q-203.7 50.95 -184.75 55.0 -181.85 55.6 -133.55 51.6 -81.25 47.3 -57.65 48.5 -31.75 49.9 31.1 43.9 L88.75 37.65 Q-16.2 35.45 -24.5 35.45 L-88.4 35.2 Q-151.35 34.65 -179.2 33.3 -193.9 32.55 -215.95 34.05 L-259.65 37.9 Q-325.4 44.15 -367.05 44.15 -393.65 44.15 -418.75 39.55 -434.25 36.7 -457.5 30.05 -479.7 23.7 -489.0 22.15 -505.1 19.55 -518.95 22.45 -534.2 25.65 -557.45 26.95 -563.6 25.75 -567.1 23.8 -558.3 23.8 -540.6 19.6 -523.95 15.65 -513.45 16.3 -502.35 17.0 -482.45 22.55 -461.65 28.4 -451.35 29.4 -461.0 23.15 -481.1 17.75 -506.9 10.8 -512.6 8.55 -523.0 4.45 -533.55 3.0 L-361.5 -4.75 -321.9 -7.45 Q-309.65 -7.0 -286.6 -2.7 -261.55 1.9 -248.05 1.4 -235.05 0.9 -217.7 1.1 -224.6 2.7 -233.55 3.55 L-264.85 4.95 Q-282.35 5.5 -288.2 7.25 L-246.8 8.0 Q-222.1 8.15 -205.95 4.95 L-187.9 1.65 -180.9 1.75 -184.4 1.1 -171.0 -0.4 Q-155.4 -1.1 -135.9 4.0 -102.4 12.7 -54.1 11.85 L-12.7 10.25 12.3 9.35 Q21.5 9.6 29.3 9.05 22.0 9.05 12.3 9.35 L-6.55 8.05 Q-18.5 6.9 -42.0 3.4 -52.4 1.9 -78.4 0.25 L-94.25 -0.95 Q-78.3 -0.35 -59.3 -1.0 L-41.75 -1.85 Q-58.75 -1.2 -80.4 -4.2 -91.7 -5.8 -121.45 -11.45 -128.1 -12.75 -137.65 -16.55 -143.15 -18.75 -154.25 -23.45 -174.8 -31.65 -187.45 -29.2 -197.05 -27.35 -225.1 -19.3 -237.75 -15.7 -247.7 -13.6 L-358.75 -21.35 Q-441.6 -17.9 -564.55 -9.6 L-670.6 -3.9 -670.6 -94.6 Q-631.25 -80.2 -592.55 -78.4 -514.8 -74.85 -494.1 -76.6 -473.4 -78.3 -426.4 -76.25 L-383.6 -73.8 -601.85 -48.95 -588.15 -48.0 -646.05 -46.2 -529.0 -44.55 -491.7 -42.75 Q-374.6 -37.4 -320.65 -40.5 L-294.9 -41.0 -250.65 -42.1 Q-212.8 -41.8 -163.3 -39.65 L-111.9 -36.95 M122.9 38.6 L144.95 42.05 Q176.95 46.8 196.95 44.0 215.0 41.45 248.75 34.85 284.05 28.0 300.55 25.5 L305.35 25.0 Q320.6 23.95 343.7 30.15 L362.45 35.25 Q373.35 38.05 381.55 39.1 352.25 27.2 343.95 24.5 327.75 19.25 314.75 18.15 L317.15 18.25 332.15 19.65 Q342.45 21.0 376.9 28.1 404.7 33.8 421.9 34.45 412.7 25.7 389.95 23.05 L371.3 21.3 Q360.65 20.15 354.35 18.25 L342.1 14.8 Q332.75 12.05 326.75 9.55 310.7 2.8 313.6 -4.0 L329.1 -4.75 Q389.5 -8.2 508.95 -5.45 544.5 -4.65 581.2 -3.35 L585.05 -3.2 616.35 -2.0 510.0 -11.65 Q392.6 -21.35 337.35 -21.35 292.35 -21.35 173.35 -12.35 L102.35 -7.35 87.3 -6.7 163.0 -4.1 Q235.2 -2.2 286.25 -3.2 275.45 -0.75 263.3 3.8 L239.1 13.45 Q224.75 19.05 214.45 21.6 L187.95 28.2 Q172.65 31.55 162.5 31.25 L196.5 32.95 174.9 34.85 132.95 38.2 122.9 38.6 118.75 37.95 Q103.55 35.75 92.5 35.25 103.5 38.95 122.9 38.6 M87.3 -6.7 L69.4 -7.55 Q71.4 -6.25 87.3 -6.7 M626.55 42.9 L581.2 39.7 571.5 39.1 Q485.85 34.25 447.85 39.45 409.9 44.6 304.9 53.6 L207.55 61.55 Q364.65 54.65 473.05 61.55 506.95 63.7 531.9 66.95 L550.05 69.8 494.85 53.25 649.5 44.95 626.55 42.9 M93.1 49.4 L82.3 48.65 Q76.3 48.0 71.65 46.75 L64.95 44.7 Q61.05 43.6 58.15 43.65 55.65 43.65 50.95 44.75 L-3.1 57.1 Q8.05 64.65 27.15 61.3 L42.45 57.75 Q51.85 55.45 57.85 54.95 L75.9 55.5 93.95 58.15 Q120.65 62.05 147.65 60.4 144.4 58.3 143.0 54.1 141.65 50.2 142.3 45.95 141.5 47.35 141.8 49.7 L142.5 53.65 Q142.7 55.75 141.3 57.5 139.85 59.3 138.2 58.35 137.4 57.9 136.6 56.25 134.15 51.1 131.75 45.15 129.25 48.8 123.8 49.95 L113.7 50.45 93.1 49.4 M-320.65 -7.5 L-256.9 -11.9 -262.95 -11.1 Q-295.15 -7.9 -320.65 -7.5 M-195.3 -11.7 Q-196.45 -9.85 -198.1 -8.15 L-199.0 -9.2 -195.3 -11.7 M-168.15 14.55 Q-202.7 12.85 -310.4 19.05 L-411.25 25.6 -168.15 28.4 55.6 28.4 -35.55 22.55 -168.15 14.55" fill="#ffffff" fill-opacity="0.0" fill-rule="evenodd" stroke="none"/>
    <path d="M77.35 -50.85 L102.85 -50.5 102.7 -50.5 85.05 -49.9 77.35 -50.85 M169.15 -47.9 L273.15 -42.4 310.7 -40.65 416.55 -50.9 470.95 -56.55 474.4 -56.9 467.1 -56.45 439.0 -55.9 Q396.95 -55.85 324.25 -59.3 L215.85 -65.55 480.65 -82.2 623.35 -91.95 632.25 -92.6 670.9 -94.7 505.9 -71.05 646.75 -71.05 489.3 -46.2 491.5 -45.65 506.8 -46.2 Q521.8 -46.2 539.4 -43.2 L571.25 -36.95 581.2 -35.2 Q594.45 -33.2 611.5 -31.95 L652.2 -29.2 Q638.55 -23.0 620.3 -22.8 606.55 -22.65 585.85 -26.2 L581.2 -27.0 551.05 -32.5 536.7 -34.35 Q526.15 -35.3 518.0 -34.8 523.25 -31.55 531.25 -29.2 L533.9 -28.45 546.25 -25.55 Q566.2 -21.1 575.65 -15.1 567.4 -20.0 544.75 -19.1 L511.7 -17.05 481.6 -18.55 451.6 -20.65 Q432.85 -21.5 395.45 -20.95 362.25 -21.4 339.8 -27.85 L354.75 -29.7 Q309.35 -29.4 255.55 -28.6 L139.55 -26.55 83.45 -25.3 87.05 -23.65 90.05 -22.15 75.2 -23.25 Q44.9 -22.4 33.5 -24.1 L64.4 -24.85 57.5 -26.15 Q34.4 -30.65 26.15 -31.45 7.3 -33.3 -16.95 -31.05 L-59.95 -25.45 Q-86.7 -21.65 -103.05 -21.0 -126.8 -20.05 -146.45 -24.1 -126.9 -22.0 -97.55 -29.85 L-84.25 -33.55 -78.05 -35.25 -73.65 -36.4 -60.85 -39.4 -49.4 -41.35 Q-42.25 -42.25 -29.4 -45.45 L-8.45 -50.3 -1.25 -51.4 Q9.4 -52.7 18.1 -51.3 25.85 -50.05 32.05 -46.7 42.05 -41.25 61.2 -34.2 L68.05 -31.65 Q76.55 -30.75 87.2 -32.65 92.3 -33.6 107.15 -37.45 L122.85 -41.7 Q130.85 -43.8 136.25 -44.55 149.9 -46.55 166.5 -42.6 190.6 -36.9 204.2 -35.6 222.1 -33.95 242.9 -37.0 224.3 -35.2 197.6 -40.9 186.8 -43.25 169.15 -47.9 M-36.2 -54.65 L-46.9 -51.6 -112.9 -51.7 -36.2 -54.65 M-81.55 -42.25 Q-94.6 -39.2 -102.35 -38.05 L-111.9 -36.95 -163.3 -39.65 Q-212.8 -41.8 -250.65 -42.1 L-198.55 -43.45 -226.8 -46.4 -291.8 -52.45 Q-389.85 -60.7 -414.0 -57.25 -438.2 -53.8 -544.55 -49.65 L-588.15 -48.0 -601.85 -48.95 -383.6 -73.8 -426.4 -76.25 Q-473.4 -78.3 -494.1 -76.6 -514.8 -74.85 -592.55 -78.4 -631.25 -80.2 -670.6 -94.6 L-670.6 -94.65 Q-604.8 -90.75 -550.2 -91.5 -495.65 -92.25 -490.7 -91.3 L-485.65 -90.45 -480.75 -91.0 Q-474.0 -91.55 -460.5 -91.55 L-432.0 -91.15 -431.1 -91.1 -430.25 -91.1 -428.15 -91.05 -427.25 -91.05 -333.6 -87.85 -333.0 -87.8 -331.25 -87.75 -329.35 -87.65 -329.3 -87.65 -317.3 -84.85 -375.35 -62.8 -298.0 -60.0 Q-239.3 -61.75 -120.5 -47.25 L-81.55 -42.25 M122.9 38.6 Q103.5 38.95 92.5 35.25 103.55 35.75 118.75 37.95 L122.9 38.6 132.95 38.2 174.9 34.85 196.5 32.95 162.5 31.25 Q172.65 31.55 187.95 28.2 L214.45 21.6 Q224.75 19.05 239.1 13.45 L263.3 3.8 Q275.45 -0.75 286.25 -3.2 235.2 -2.2 163.0 -4.1 L87.3 -6.7 102.35 -7.35 173.35 -12.35 Q292.35 -21.35 337.35 -21.35 392.6 -21.35 510.0 -11.65 L616.35 -2.0 585.05 -3.2 581.2 -3.35 Q544.5 -4.65 508.95 -5.45 389.5 -8.2 329.1 -4.75 L313.6 -4.0 Q310.7 2.8 326.75 9.55 332.75 12.05 342.1 14.8 L354.35 18.25 Q360.65 20.15 371.3 21.3 L389.95 23.05 Q412.7 25.7 421.9 34.45 404.7 33.8 376.9 28.1 342.45 21.0 332.15 19.65 L317.15 18.25 314.75 18.15 Q327.75 19.25 343.95 24.5 352.25 27.2 381.55 39.1 373.35 38.05 362.45 35.25 L343.7 30.15 Q320.6 23.95 305.35 25.0 L300.55 25.5 Q284.05 28.0 248.75 34.85 215.0 41.45 196.95 44.0 176.95 46.8 144.95 42.05 L122.9 38.6 M87.3 -6.7 Q71.4 -6.25 69.4 -7.55 L87.3 -6.7 M-145.6 76.8 L-154.35 75.35 -41.1 70.5 130.2 61.55 282.1 75.35 108.1 83.65 119.2 93.0 83.25 94.7 3.1 86.4 -145.6 76.8 M-670.6 9.2 L-670.6 -3.9 -564.55 -9.6 Q-441.6 -17.9 -358.75 -21.35 L-247.7 -13.6 -256.9 -11.9 -320.65 -7.5 -323.4 -7.5 -321.9 -7.45 -361.5 -4.75 -533.55 3.0 -550.8 2.45 Q-557.1 2.9 -564.45 4.4 L-670.6 9.2 M12.3 9.35 L-12.7 10.25 -54.1 11.85 Q-102.4 12.7 -135.9 4.0 -155.4 -1.1 -171.0 -0.4 L-184.4 1.1 -187.9 1.65 -205.95 4.95 Q-222.1 8.15 -246.8 8.0 L-288.2 7.25 Q-282.35 5.5 -264.85 4.95 L-233.55 3.55 Q-224.6 2.7 -217.7 1.1 -210.6 -0.5 -205.7 -2.9 -201.1 -5.15 -198.1 -8.15 -196.45 -9.85 -195.3 -11.7 -193.05 -15.45 -192.7 -20.15 -192.45 -23.7 -155.85 -14.55 -117.7 -4.3 -114.65 -3.7 -106.5 -2.15 -94.25 -0.95 L-78.4 0.25 Q-52.4 1.9 -42.0 3.4 -18.5 6.9 -6.55 8.05 L12.3 9.35 M-529.0 -44.55 L-524.85 -44.5 Q-402.6 -42.4 -397.45 -40.7 -393.0 -39.2 -320.65 -40.5 -374.6 -37.4 -491.7 -42.75 L-529.0 -44.55 M-168.15 14.55 L-35.55 22.55 55.6 28.4 -168.15 28.4 -411.25 25.6 -310.4 19.05 Q-202.7 12.85 -168.15 14.55" fill="#000000" fill-opacity="0.09803922" fill-rule="evenodd" stroke="none"/>
    <path d="M470.95 -56.55 L467.1 -56.45 474.4 -56.9 470.95 -56.55 M-430.3 -91.1 L-428.65 -91.05 -428.15 -91.05 -430.25 -91.1 -431.1 -91.1 -430.3 -91.1" fill="#ededee" fill-rule="evenodd" stroke="none"/>
    <path d="M-331.25 -87.75 L-329.45 -87.7 -329.35 -87.65 -331.25 -87.75" fill="#dadbdc" fill-rule="evenodd" stroke="none"/>
    <path d="M12.3 9.35 Q22.0 9.05 29.3 9.05 21.5 9.6 12.3 9.35" fill="#e4e5e6" fill-rule="evenodd" stroke="none"/>
    <path d="M-637.55 26.85 L-637.75 26.8 -637.5 26.85 -637.55 26.85" fill="#bec0c2" fill-rule="evenodd" stroke="none"/>
    <path d="M50.05 -58.95 L51.9 -58.35 Q63.5 -54.3 68.25 -52.95 73.05 -51.6 77.35 -50.85 L85.05 -49.9 102.7 -50.5 102.85 -50.5 119.3 -52.75 Q139.7 -55.6 153.2 -52.2 L169.15 -47.9 Q186.8 -43.25 197.6 -40.9 224.3 -35.2 242.9 -37.0 222.1 -33.95 204.2 -35.6 190.6 -36.9 166.5 -42.6 149.9 -46.55 136.25 -44.55 130.85 -43.8 122.85 -41.7 L107.15 -37.45 Q92.3 -33.6 87.2 -32.65 76.55 -30.75 68.05 -31.65 L61.2 -34.2 Q42.05 -41.25 32.05 -46.7 25.85 -50.05 18.1 -51.3 9.4 -52.7 -1.25 -51.4 L-8.45 -50.3 -29.4 -45.45 Q-42.25 -42.25 -49.4 -41.35 L-60.85 -39.4 -73.65 -36.4 -78.05 -35.25 -84.25 -33.55 -123.1 -36.9 Q-118.05 -36.5 -111.9 -36.95 L-102.35 -38.05 Q-94.6 -39.2 -81.55 -42.25 L-80.65 -42.45 Q-70.15 -44.9 -55.25 -49.2 L-46.9 -51.6 -36.2 -54.65 -31.05 -56.15 Q-2.45 -63.95 20.2 -65.0 30.6 -65.5 50.05 -58.95 M93.1 49.4 L113.7 50.45 123.8 49.95 Q129.25 48.8 131.75 45.15 134.15 51.1 136.6 56.25 137.4 57.9 138.2 58.35 139.85 59.3 141.3 57.5 142.7 55.75 142.5 53.65 L141.8 49.7 Q141.5 47.35 142.3 45.95 141.65 50.2 143.0 54.1 144.4 58.3 147.65 60.4 120.65 62.05 93.95 58.15 L75.9 55.5 57.85 54.95 Q51.85 55.45 42.45 57.75 L27.15 61.3 Q8.05 64.65 -3.1 57.1 L50.95 44.75 Q55.65 43.65 58.15 43.65 61.05 43.6 64.95 44.7 L71.65 46.75 Q76.3 48.0 82.3 48.65 L93.1 49.4 M-217.7 1.1 Q-235.05 0.9 -248.05 1.4 -261.55 1.9 -286.6 -2.7 -309.65 -7.0 -321.9 -7.45 L-323.4 -7.5 -320.65 -7.5 Q-295.15 -7.9 -262.95 -11.1 L-256.9 -11.9 -247.7 -13.6 Q-237.75 -15.7 -225.1 -19.3 -197.05 -27.35 -187.45 -29.2 -174.8 -31.65 -154.25 -23.45 -143.15 -18.75 -137.65 -16.55 -128.1 -12.75 -121.45 -11.45 -91.7 -5.8 -80.4 -4.2 -58.75 -1.2 -41.75 -1.85 L-59.3 -1.0 Q-78.3 -0.35 -94.25 -0.95 -106.5 -2.15 -114.65 -3.7 -117.7 -4.3 -155.85 -14.55 -192.45 -23.7 -192.7 -20.15 -193.05 -15.45 -195.3 -11.7 L-199.0 -9.2 -198.1 -8.15 Q-201.1 -5.15 -205.7 -2.9 -210.6 -0.5 -217.7 1.1 M-533.55 3.0 Q-523.0 4.45 -512.6 8.55 -506.9 10.8 -481.1 17.75 -461.0 23.15 -451.35 29.4 -461.65 28.4 -482.45 22.55 -502.35 17.0 -513.45 16.3 -523.95 15.65 -540.6 19.6 -558.3 23.8 -567.1 23.8 -563.6 25.75 -557.45 26.95 L-555.4 27.3 -540.55 29.0 Q-520.4 31.05 -510.9 36.4 -519.7 31.7 -546.15 31.45 -552.8 31.4 -567.6 31.65 -579.75 31.9 -584.3 31.65 L-614.4 30.25 Q-639.4 29.3 -658.4 29.3 -648.55 29.05 -637.55 26.85 L-637.5 26.85 Q-629.25 25.15 -620.4 22.4 L-585.65 10.25 Q-574.15 6.4 -564.45 4.4 -557.1 2.9 -550.8 2.45 L-533.55 3.0" fill="#ffffff" fill-opacity="0.24705882" fill-rule="evenodd" stroke="none"/>
    <path d="M670.9 -94.7 L632.25 -92.6 623.35 -91.95 613.55 -91.65 467.2 -84.85 298.35 -87.95 Q126.4 -91.45 110.85 -93.15 91.05 -95.35 -25.2 -92.1 -143.6 -88.8 -165.4 -84.85 -175.55 -83.0 -224.75 -84.15 L-327.65 -87.6 -328.45 -87.6 -329.3 -87.65 M632.25 -92.6 L613.55 -91.65 M119.2 93.0 L227.9 88.15 Q373.6 81.9 378.8 83.65 387.1 86.4 481.0 86.4 L586.0 86.4 670.9 75.5 M119.2 93.0 L83.25 94.7 3.1 86.4 -145.6 76.8 -168.15 75.35 -292.45 89.15 -425.05 78.1 -475.8 78.45 Q-527.6 79.15 -532.8 80.85 -537.95 82.6 -555.2 77.8 -563.85 75.35 -571.45 72.6 L-670.6 75.5 M-670.6 -94.65 Q-604.8 -90.75 -550.2 -91.5 -495.65 -92.25 -490.7 -91.3 L-485.65 -90.45 -480.75 -91.0 Q-474.0 -91.55 -460.5 -91.55 L-432.0 -91.15 -430.3 -91.1 -428.65 -91.05 -427.25 -91.05 -333.6 -87.85 M-333.0 -87.8 L-331.25 -87.75 -329.35 -87.65 -328.45 -87.6 M-432.0 -91.15 L-431.1 -91.1 -430.3 -91.1 M-428.65 -91.05 L-428.15 -91.05 -427.25 -91.05" fill="none" stroke="#000000" stroke-linecap="round" stroke-linejoin="miter-clip" stroke-miterlimit="4.0" stroke-width="1.0"/>
  </g>
</svg>
