<?xml version="1.0" encoding="UTF-8" standalone="no"?>
<svg xmlns:xlink="http://www.w3.org/1999/xlink" height="314.8px" width="193.35px" xmlns="http://www.w3.org/2000/svg">
  <g transform="matrix(1.0, 0.0, 0.0, 1.0, 96.7, 157.4)">
    <path d="M0.0 -156.75 L0.95 -156.85 0.95 -156.65 Q55.75 -150.5 81.45 -110.3 89.45 -97.7 93.6 -83.25 94.9 -78.75 95.65 -74.55 L96.15 -71.3 96.15 156.9 -96.2 156.9 -96.2 -71.3 -93.65 -83.25 Q-89.5 -97.75 -81.45 -110.3 -55.75 -150.5 -0.95 -156.65 L-0.95 -156.85 0.0 -156.75" fill="#ffffff" fill-opacity="0.0" fill-rule="evenodd" stroke="none"/>
    <path d="M0.0 -156.75 L-0.95 -156.85 -0.95 -156.65 Q-55.75 -150.5 -81.45 -110.3 -89.5 -97.75 -93.65 -83.25 L-96.2 -71.3 -96.2 156.9 96.15 156.9 96.15 -71.3 95.65 -74.55 Q94.9 -78.75 93.6 -83.25 89.45 -97.7 81.45 -110.3 55.75 -150.5 0.95 -156.65 L0.95 -156.85 0.0 -156.75 Z" fill="none" stroke="#000000" stroke-linecap="round" stroke-linejoin="miter-clip" stroke-miterlimit="4.0" stroke-opacity="0.6" stroke-width="1.0"/>
  </g>
</svg>
