<?xml version="1.0" encoding="UTF-8" standalone="no"?>
<svg xmlns:xlink="http://www.w3.org/1999/xlink" height="288.6px" width="194.55px" xmlns="http://www.w3.org/2000/svg">
  <g transform="matrix(1.0, 0.0, 0.0, 1.0, 97.3, 144.3)">
    <path d="M96.75 -81.8 L96.75 -52.95 15.8 -52.95 15.8 143.8 -15.85 143.8 -15.85 -52.95 -96.8 -52.95 -96.8 -81.8 -15.85 -81.8 -15.85 -143.8 15.8 -143.8 15.8 -81.8 96.75 -81.8" fill="#ffffff" fill-opacity="0.0" fill-rule="evenodd" stroke="none"/>
    <path d="M96.75 -81.8 L15.8 -81.8 15.8 -143.8 -15.85 -143.8 -15.85 -81.8 -96.8 -81.8 -96.8 -52.95 -15.85 -52.95 -15.85 143.8 15.8 143.8 15.8 -52.95 96.75 -52.95 96.75 -81.8 Z" fill="none" stroke="#000000" stroke-linecap="round" stroke-linejoin="miter-clip" stroke-miterlimit="4.0" stroke-width="1.0"/>
  </g>
</svg>
