<?xml version="1.0" encoding="UTF-8" standalone="no"?>
<svg xmlns:xlink="http://www.w3.org/1999/xlink" height="302.4px" width="2147.05px" xmlns="http://www.w3.org/2000/svg">
  <g transform="matrix(1.0, 0.0, 0.0, 1.0, 1073.5, 151.2)">
    <path d="M1002.75 -150.65 L996.8 -137.4 Q989.0 -120.65 979.8 -103.05 950.45 -46.85 918.4 -3.55 881.7 46.05 832.0 75.95 792.6 99.65 751.6 107.65 L666.65 107.65 589.55 -15.6 589.2 -16.15 507.65 -150.65 1002.75 -150.65 M-1002.7 -150.65 L-507.6 -150.65 -508.15 -149.75 -568.6 -49.7 -568.7 -49.5 -587.15 -19.3 -589.85 -15.05 -666.6 107.65 -860.45 107.65 Q-841.35 82.1 -827.45 58.8 -820.85 47.75 -815.45 37.15 -794.1 -4.65 -792.8 -35.85 -791.6 -65.45 -824.1 -90.1 L-827.45 -92.55 Q-853.0 -110.85 -896.4 -125.55 -929.5 -136.75 -969.4 -144.8 -989.35 -148.85 -1002.7 -150.65" fill="#000000" fill-opacity="0.14901961" fill-rule="evenodd" stroke="none"/>
    <path d="M751.6 107.65 Q792.6 99.65 832.0 75.95 881.7 46.05 918.4 -3.55 950.45 -46.85 979.8 -103.05 989.0 -120.65 996.8 -137.4 L1002.75 -150.65 1067.3 107.65 1049.55 107.65 751.6 107.65 M589.55 -15.6 L666.65 107.65 663.7 107.65 652.5 89.1 589.9 -14.95 589.55 -15.6 M-591.75 -11.75 L-652.4 88.95 -663.7 107.65 -666.6 107.65 -589.85 -15.05 -591.75 -11.75 M-1049.45 107.65 L-1067.25 107.65 -1002.7 -150.65 Q-989.35 -148.85 -969.4 -144.8 -929.5 -136.75 -896.4 -125.55 -853.0 -110.85 -827.45 -92.55 L-824.1 -90.1 Q-791.6 -65.45 -792.8 -35.85 -794.1 -4.65 -815.45 37.15 -820.85 47.75 -827.45 58.8 -841.35 82.1 -860.45 107.65 L-1049.45 107.65" fill="#ffffff" fill-opacity="0.0" fill-rule="evenodd" stroke="none"/>
    <path d="M751.6 107.65 L1049.55 107.65 1072.7 150.7 1014.7 150.7 658.35 150.7 652.5 89.1 663.7 107.65 666.65 107.65 751.6 107.65 M-652.4 88.95 L-658.3 150.7 -1013.8 150.7 -1072.65 150.7 -1049.45 107.65 -860.45 107.65 -666.6 107.65 -663.7 107.65 -652.4 88.95" fill="#000000" fill-opacity="0.2" fill-rule="evenodd" stroke="none"/>
    <path d="M1049.55 107.65 L1067.3 107.65 1002.75 -150.65 507.65 -150.65 M1014.7 150.7 L1072.7 150.7 1049.55 107.65 M-1002.7 -150.65 L-507.6 -150.65 -508.15 -149.75 M-1013.8 150.7 L-1072.65 150.7 -1049.45 107.65 -1067.25 107.65 -1002.7 -150.65" fill="none" stroke="#000000" stroke-linecap="round" stroke-linejoin="miter-clip" stroke-miterlimit="4.0" stroke-width="1.0"/>
    <path d="M751.6 107.65 L1049.55 107.65 M507.65 -150.65 L589.2 -16.15 589.55 -15.6 589.9 -14.95 589.2 -16.15 M666.65 107.65 L751.6 107.65 M652.5 89.1 L663.7 107.65 666.65 107.65 M1014.7 150.7 L658.35 150.7 652.5 89.1 589.9 -14.95 M-508.15 -149.75 L-568.6 -49.7 M-568.7 -49.5 L-587.15 -19.3 -591.75 -11.75 -652.4 88.95 -658.3 150.7 -1013.8 150.7 M-860.45 107.65 L-666.6 107.65 -663.7 107.65 -652.4 88.95 M-589.85 -15.05 L-587.15 -19.3 M-589.85 -15.05 L-591.75 -11.75 M-1049.45 107.65 L-860.45 107.65" fill="none" stroke="#000000" stroke-linecap="round" stroke-linejoin="miter-clip" stroke-miterlimit="4.0" stroke-opacity="0.6" stroke-width="1.0"/>
  </g>
</svg>
