<?xml version="1.0" encoding="UTF-8" standalone="no"?>
<svg xmlns:xlink="http://www.w3.org/1999/xlink" height="146.55px" width="74.6px" xmlns="http://www.w3.org/2000/svg">
  <g transform="matrix(1.0, 0.0, 0.0, 1.0, 37.3, 73.25)">
    <path d="M-0.25 -72.75 L0.4 -72.75 1.4 -72.75 1.95 -72.7 2.7 -72.65 4.15 -72.5 Q12.5 -71.55 19.35 -65.9 L20.6 -64.9 23.0 -62.5 Q27.1 -57.95 29.05 -52.2 L11.45 -52.2 10.75 -57.75 Q9.7 -63.8 7.8 -66.15 4.65 -70.05 -0.25 -72.75" fill="#000000" fill-opacity="0.34901962" fill-rule="evenodd" stroke="none"/>
    <path d="M2.7 -72.65 L3.4 -72.6 4.1 -72.55 4.15 -72.5 2.7 -72.65" fill="#979797" fill-rule="evenodd" stroke="none"/>
    <path d="M29.05 -52.2 L36.8 -52.2 36.8 -41.0 31.2 -41.0 31.2 -35.9 -31.15 -35.9 -31.15 -41.0 -36.8 -41.0 -36.8 -52.2 -28.25 -52.2 Q-25.8 -59.45 -19.8 -64.9 -11.4 -72.5 -0.25 -72.75 4.65 -70.05 7.8 -66.15 9.7 -63.8 10.75 -57.75 L11.45 -52.2 29.05 -52.2 M-36.3 62.1 L-36.3 63.4 36.45 63.4 36.45 62.1 -36.3 62.1 M-30.8 57.05 L-30.8 58.3 30.9 58.3 30.9 57.05 -30.8 57.05 M36.45 -50.35 L36.45 -51.65 -36.3 -51.65 -36.3 -50.35 36.45 -50.35 M-31.15 56.45 L31.2 56.45 31.2 61.55 36.8 61.55 36.8 72.8 -36.8 72.8 -36.8 61.55 -31.15 61.55 -31.15 56.45 M11.45 -52.2 L-28.25 -52.2 11.45 -52.2 M31.2 61.55 L-31.15 61.55 31.2 61.55 M-31.15 -41.0 L31.2 -41.0 -31.15 -41.0" fill="#000000" fill-opacity="0.2" fill-rule="evenodd" stroke="none"/>
    <path d="M36.45 -50.35 L-36.3 -50.35 -36.3 -51.65 36.45 -51.65 36.45 -50.35 M-30.8 57.05 L30.9 57.05 30.9 58.3 -30.8 58.3 -30.8 57.05 M-36.3 62.1 L36.45 62.1 36.45 63.4 -36.3 63.4 -36.3 62.1" fill="#ffffff" fill-opacity="0.09803922" fill-rule="evenodd" stroke="none"/>
    <path d="M-0.25 -72.75 L0.4 -72.75 1.4 -72.75 1.95 -72.7 2.7 -72.65 3.4 -72.6 4.1 -72.55 4.15 -72.5 Q12.5 -71.55 19.35 -65.9 L20.6 -64.9 23.0 -62.5 Q27.1 -57.95 29.05 -52.2 L36.8 -52.2 36.8 -41.0 31.2 -41.0 31.2 -35.9 -31.15 -35.9 -31.15 -41.0 -36.8 -41.0 -36.8 -52.2 -28.25 -52.2 Q-25.8 -59.45 -19.8 -64.9 -11.4 -72.5 -0.25 -72.75 M4.15 -72.5 L2.7 -72.65 M-31.15 56.45 L31.2 56.45 31.2 61.55 36.8 61.55 36.8 72.8 -36.8 72.8 -36.8 61.55 -31.15 61.55 -31.15 56.45" fill="none" stroke="#000000" stroke-linecap="round" stroke-linejoin="miter-clip" stroke-miterlimit="4.0" stroke-width="1.0"/>
    <path d="M11.45 -52.2 L29.05 -52.2 M31.2 -41.0 L-31.15 -41.0 M-31.15 61.55 L31.2 61.55 M-28.25 -52.2 L11.45 -52.2" fill="none" stroke="#000000" stroke-linecap="round" stroke-linejoin="miter-clip" stroke-miterlimit="4.0" stroke-opacity="0.6" stroke-width="1.0"/>
  </g>
</svg>
