<?xml version="1.0" encoding="UTF-8" standalone="no"?>
<svg xmlns:xlink="http://www.w3.org/1999/xlink" height="665.45px" width="19.35px" xmlns="http://www.w3.org/2000/svg">
  <g transform="matrix(1.0, 0.0, 0.0, 1.0, 0.5, 0.5)">
    <path d="M0.0 158.15 L0.0 4.95 2.95 2.35 Q6.45 -0.2 9.05 0.0 11.7 0.2 15.3 2.6 L18.35 4.95 18.35 158.15 0.0 158.15" fill="#000000" fill-opacity="0.047058824" fill-rule="evenodd" stroke="none"/>
    <path d="M4.55 265.55 L14.7 265.55 14.7 374.9 4.55 374.9 4.55 265.55 M4.55 466.75 L14.7 466.75 14.7 664.45 4.55 664.45 4.55 466.75" fill="#ffffff" fill-opacity="0.0" fill-rule="evenodd" stroke="none"/>
    <path d="M4.55 265.55 L14.7 265.55 M14.7 374.9 L4.55 374.9 M4.55 466.75 L14.7 466.75 M14.7 664.45 L4.55 664.45" fill="none" stroke="#000000" stroke-linecap="round" stroke-linejoin="round" stroke-opacity="0.4" stroke-width="1.0"/>
    <path d="M0.0 158.15 L0.0 4.95 2.95 2.35 Q6.45 -0.2 9.05 0.0 11.7 0.2 15.3 2.6 L18.35 4.95 18.35 158.15 M14.7 265.55 L14.7 374.9 M4.55 374.9 L4.55 265.55 M14.7 466.75 L14.7 664.45 M4.55 664.45 L4.55 466.75" fill="none" stroke="#000000" stroke-linecap="round" stroke-linejoin="round" stroke-width="1.0"/>
    <path d="M18.35 158.15 L0.0 158.15" fill="none" stroke="#000000" stroke-linecap="round" stroke-linejoin="round" stroke-opacity="0.6" stroke-width="1.0"/>
  </g>
</svg>
