<?xml version="1.0" encoding="UTF-8" standalone="no"?>
<svg xmlns:xlink="http://www.w3.org/1999/xlink" height="165.95px" width="24.7px" xmlns="http://www.w3.org/2000/svg">
  <g transform="matrix(1.0, 0.0, 0.0, 1.0, 0.5, 0.5)">
    <path d="M13.8 12.35 Q13.8 8.4 13.1 7.15 12.2 5.5 9.3 4.95 L8.6 4.85 10.15 4.7 Q12.95 4.7 14.7 5.95 16.15 6.95 16.3 11.65 L16.35 12.3 16.35 12.35 16.15 12.35 16.0 12.35 15.15 12.35 16.0 12.35 16.15 12.35 16.15 14.7 15.15 14.7 15.15 12.35 13.8 12.35 M4.0 10.15 L2.6 10.45 Q1.1 10.4 0.4 8.0 0.05 6.75 0.0 5.55 L0.2 4.65 0.45 3.9 1.15 2.65 1.6 2.2 2.05 1.7 Q2.65 1.2 3.35 0.85 4.2 0.45 5.3 0.2 L7.75 0.0 7.4 0.1 Q2.65 1.8 2.25 5.95 2.0 8.55 4.0 10.15 M17.3 1.9 L18.9 1.6 19.55 1.2 Q20.3 0.8 20.95 0.75 L21.7 0.75 20.9 1.2 20.25 1.85 20.05 2.15 17.3 1.9" fill="#ffffff" fill-opacity="0.14901961" fill-rule="evenodd" stroke="none"/>
    <path d="M21.7 0.75 Q23.25 1.1 23.6 3.55 24.1 6.35 22.3 6.6 L20.95 6.55 20.35 6.4 Q19.95 6.6 19.5 7.05 18.65 7.85 18.4 8.9 L18.35 10.75 18.4 12.3 18.4 12.35 16.35 12.35 16.35 12.3 16.3 11.65 Q16.15 6.95 14.7 5.95 12.95 4.7 10.15 4.7 L8.6 4.85 Q6.9 4.65 6.05 5.35 5.45 5.85 5.15 7.3 L4.6 9.45 4.0 10.15 Q2.0 8.55 2.25 5.95 2.65 1.8 7.4 0.1 L7.75 0.0 7.9 0.0 15.6 1.8 16.6 1.9 17.3 1.9 20.05 2.15 20.25 1.85 20.9 1.2 21.7 0.75 M18.4 14.7 L18.4 15.0 18.4 16.3 17.9 158.1 17.45 158.3 16.15 158.45 14.95 158.3 14.55 158.1 13.85 15.95 13.85 14.7 15.15 14.7 16.15 14.7 16.35 14.7 16.35 15.0 16.5 71.4 17.25 67.55 17.35 15.0 17.35 14.7 18.4 14.7" fill="#ffffff" fill-opacity="0.0" fill-rule="evenodd" stroke="none"/>
    <path d="M18.4 12.35 L18.4 12.4 18.4 13.0 18.4 13.75 18.4 13.85 18.4 14.05 18.4 14.7 17.35 14.7 17.35 15.0 17.25 67.55 16.5 71.4 16.35 15.0 16.35 14.7 17.35 14.7 16.35 14.7 16.15 14.7 16.15 12.35 16.35 12.35 18.4 12.35 M13.85 14.7 L13.8 12.4 13.8 12.35 15.15 12.35 15.15 14.7 13.85 14.7" fill="#ffffff" fill-opacity="0.29803923" fill-rule="evenodd" stroke="none"/>
    <path d="M17.9 158.1 L17.95 158.05 18.5 164.1 18.2 164.5 Q17.75 164.95 16.4 164.95 15.05 164.95 14.45 164.5 L14.05 164.1 14.45 158.05 14.55 158.1 14.95 158.3 16.15 158.45 17.45 158.3 17.9 158.1" fill="#000000" fill-opacity="0.64705884" fill-rule="evenodd" stroke="none"/>
    <path d="M21.7 0.75 Q23.25 1.1 23.6 3.55 24.1 6.35 22.3 6.6 L20.95 6.55 20.35 6.4 Q19.95 6.6 19.5 7.05 18.65 7.85 18.4 8.9 L18.35 10.75 18.4 12.3 M18.4 12.4 L18.4 13.0 18.4 13.75 18.4 13.85 18.4 14.05 18.4 14.7 18.4 15.0 18.4 16.3 17.9 158.1 17.95 158.05 18.5 164.1 18.2 164.5 Q17.75 164.95 16.4 164.95 15.05 164.95 14.45 164.5 L14.05 164.1 14.45 158.05 14.55 158.1 13.85 15.95 13.85 14.7 13.8 12.4 13.8 12.35 Q13.8 8.4 13.1 7.15 12.2 5.5 9.3 4.95 L8.6 4.85 Q6.9 4.65 6.05 5.35 5.45 5.85 5.15 7.3 L4.6 9.45 4.0 10.15 2.6 10.45 Q1.1 10.4 0.4 8.0 0.05 6.75 0.0 5.55 L0.2 4.65 0.45 3.9 1.15 2.65 1.6 2.2 2.05 1.7 Q2.65 1.2 3.35 0.85 4.2 0.45 5.3 0.2 L7.75 0.0 7.9 0.0 15.6 1.8 16.6 1.9 17.3 1.9 18.9 1.6 19.55 1.2 Q20.3 0.8 20.95 0.75 L21.7 0.75" fill="none" stroke="#000000" stroke-linecap="round" stroke-linejoin="round" stroke-width="1.0"/>
    <path d="M18.4 12.3 L18.4 12.35 18.4 12.4 M13.8 12.35 L15.15 12.35 16.0 12.35 16.15 12.35 16.35 12.35 18.4 12.35 M17.35 14.7 L16.35 14.7 16.15 14.7 15.15 14.7 13.85 14.7 M18.4 14.7 L17.35 14.7 M14.55 158.1 L14.95 158.3 16.15 158.45 17.45 158.3 17.9 158.1" fill="none" stroke="#000000" stroke-linecap="round" stroke-linejoin="round" stroke-opacity="0.4" stroke-width="1.0"/>
  </g>
</svg>
