<?xml version="1.0" encoding="UTF-8" standalone="no"?>
<svg xmlns:xlink="http://www.w3.org/1999/xlink" height="107.05px" width="905.15px" xmlns="http://www.w3.org/2000/svg">
  <g transform="matrix(1.0, 0.0, 0.0, 1.0, 452.6, 53.5)">
    <path d="M135.75 -42.85 L135.75 53.05 -137.75 53.05 -137.75 51.2 -123.2 51.2 -123.2 -42.85 135.75 -42.85 M439.8 -39.7 L434.7 -39.7 434.7 40.3 198.45 40.3 198.45 43.9 439.8 43.9 439.8 -39.7 M123.5 -39.7 L118.4 -39.7 118.4 40.3 -117.85 40.3 -117.85 43.9 123.5 43.9 123.5 -39.7 M452.05 -42.85 L452.05 53.05 178.55 53.05 178.55 51.2 193.1 51.2 193.1 -42.85 452.05 -42.85 M-190.85 -39.7 L-195.95 -39.7 -195.95 40.3 -432.2 40.3 -432.2 43.9 -190.85 43.9 -190.85 -39.7 M-178.6 -42.85 L-178.6 53.05 -452.1 53.05 -452.1 51.2 -437.55 51.2 -437.55 -42.85 -178.6 -42.85" fill="#ffffff" fill-opacity="0.0" fill-rule="evenodd" stroke="none"/>
    <path d="M123.5 -39.7 L123.5 43.9 -117.85 43.9 -117.85 40.3 118.4 40.3 118.4 -39.7 123.5 -39.7 M439.8 -39.7 L439.8 43.9 198.45 43.9 198.45 40.3 434.7 40.3 434.7 -39.7 439.8 -39.7 M-190.85 -39.7 L-190.85 43.9 -432.2 43.9 -432.2 40.3 -195.95 40.3 -195.95 -39.7 -190.85 -39.7" fill="#ffffff" fill-opacity="0.14901961" fill-rule="evenodd" stroke="none"/>
    <path d="M-137.75 51.2 L-137.75 -53.0 135.75 -53.0 135.75 -42.85 -123.2 -42.85 -123.2 51.2 -137.75 51.2 M178.55 51.2 L178.55 -53.0 452.05 -53.0 452.05 -42.85 193.1 -42.85 193.1 51.2 178.55 51.2 M-452.1 51.2 L-452.1 -53.0 -178.6 -53.0 -178.6 -42.85 -437.55 -42.85 -437.55 51.2 -452.1 51.2" fill="#000000" fill-opacity="0.2" fill-rule="evenodd" stroke="none"/>
    <path d="M-137.75 51.2 L-137.75 -53.0 135.75 -53.0 135.75 -42.85 135.75 53.05 -137.75 53.05 -137.75 51.2 M178.55 51.2 L178.55 -53.0 452.05 -53.0 452.05 -42.85 452.05 53.05 178.55 53.05 178.55 51.2 M-452.1 51.2 L-452.1 -53.0 -178.6 -53.0 -178.6 -42.85 -178.6 53.05 -452.1 53.05 -452.1 51.2" fill="none" stroke="#000000" stroke-linecap="round" stroke-linejoin="miter-clip" stroke-miterlimit="4.0" stroke-opacity="0.6" stroke-width="1.0"/>
  </g>
</svg>
