<?xml version="1.0" encoding="UTF-8" standalone="no"?>
<svg xmlns:xlink="http://www.w3.org/1999/xlink" height="192.8px" width="146.5px" xmlns="http://www.w3.org/2000/svg">
  <g transform="matrix(1.0, 0.0, 0.0, 1.0, 73.25, 96.4)">
    <path d="M-70.45 -70.15 L-70.45 -95.9 70.4 -95.9 70.4 -72.75 -70.45 -70.15 M70.4 39.5 L70.4 39.55 -70.45 39.55 -70.45 39.5 70.4 39.5" fill="#d4d5d7" fill-rule="evenodd" stroke="none"/>
    <path d="M70.4 -58.0 L70.4 11.05 65.15 4.25 58.0 15.75 54.15 -24.3 34.95 6.45 31.2 -0.65 Q27.6 -7.9 28.3 -8.35 26.5 -7.55 -7.05 2.25 L-40.25 11.9 -49.05 -5.1 -55.65 5.9 -62.25 -22.65 -70.45 -11.45 -70.45 -58.0 70.4 -58.0" fill="#ffffff" fill-opacity="0.0" fill-rule="evenodd" stroke="none"/>
    <path d="M70.4 -72.75 L70.4 -58.0 -70.45 -58.0 -70.45 -70.15 70.4 -72.75" fill="#000000" fill-opacity="0.49803922" fill-rule="evenodd" stroke="none"/>
    <path d="M70.4 11.05 L70.4 39.5 -70.45 39.5 -70.45 -11.45 -62.25 -22.65 -55.65 5.9 -49.05 -5.1 -40.25 11.9 -7.05 2.25 Q26.5 -7.55 28.3 -8.35 27.6 -7.9 31.2 -0.65 L34.95 6.45 54.15 -24.3 58.0 15.75 65.15 4.25 70.4 11.05 M72.75 58.55 L67.85 95.9 -66.45 95.9 -72.75 58.55 0.7 59.2 72.75 58.55" fill="#000000" fill-opacity="0.34901962" fill-rule="evenodd" stroke="none"/>
    <path d="M-70.45 -70.15 L-70.45 -95.9 70.4 -95.9 70.4 -72.75 70.4 -58.0 70.4 11.05 70.4 39.5 70.4 39.55 M-70.45 39.55 L-70.45 39.5 -70.45 -11.45 -70.45 -58.0 -70.45 -70.15 M67.85 95.9 L72.75 58.55 M-72.75 58.55 L-66.45 95.9" fill="none" stroke="#000000" stroke-linecap="round" stroke-linejoin="miter-clip" stroke-miterlimit="4.0" stroke-width="1.0"/>
    <path d="M70.4 39.55 L-70.45 39.55 M72.75 58.55 L0.7 59.2 -72.75 58.55 M-66.45 95.9 L67.85 95.9" fill="none" stroke="#000000" stroke-linecap="round" stroke-linejoin="miter-clip" stroke-miterlimit="4.0" stroke-opacity="0.6" stroke-width="1.0"/>
  </g>
</svg>
