<?xml version="1.0" encoding="UTF-8" standalone="no"?>
<svg xmlns:xlink="http://www.w3.org/1999/xlink" height="56.65px" width="61.9px" xmlns="http://www.w3.org/2000/svg">
  <g transform="matrix(1.0, 0.0, 0.0, 1.0, 30.95, 28.35)">
    <path d="M22.45 27.3 L22.45 -6.5 24.75 -7.35 Q27.6 -7.95 30.45 -6.5 L30.45 26.5 Q29.9 27.1 28.6 27.45 L22.45 27.3 M3.1 6.2 Q2.55 6.8 1.25 7.15 L-4.9 6.95 -4.9 -26.85 -2.6 -27.7 Q0.25 -28.25 3.1 -26.85 L3.1 6.2 M-30.45 27.25 L-30.45 -6.55 -28.2 -7.4 Q-25.35 -8.0 -22.5 -6.55 L-22.5 26.5 Q-23.05 27.05 -24.35 27.45 L-30.45 27.25" fill="#ffffff" fill-opacity="0.0" fill-rule="evenodd" stroke="none"/>
    <path d="M22.45 27.3 L22.45 -6.5 24.75 -7.35 Q27.6 -7.95 30.45 -6.5 L30.45 26.5 M-4.9 6.95 L-4.9 -26.85 -2.6 -27.7 Q0.25 -28.25 3.1 -26.85 L3.1 6.2 M-30.45 27.25 L-30.45 -6.55 -28.2 -7.4 Q-25.35 -8.0 -22.5 -6.55 L-22.5 26.5" fill="none" stroke="#000000" stroke-linecap="round" stroke-linejoin="miter-clip" stroke-miterlimit="4.0" stroke-width="1.0"/>
    <path d="M30.45 26.5 Q29.9 27.1 28.6 27.45 L22.45 27.3 M3.1 6.2 Q2.55 6.8 1.25 7.15 L-4.9 6.95 M-22.5 26.5 Q-23.05 27.05 -24.35 27.45 L-30.45 27.25" fill="none" stroke="#000000" stroke-linecap="round" stroke-linejoin="miter-clip" stroke-miterlimit="4.0" stroke-opacity="0.6" stroke-width="1.0"/>
  </g>
</svg>
