<?xml version="1.0" encoding="UTF-8" standalone="no"?>
<svg xmlns:xlink="http://www.w3.org/1999/xlink" height="402.4px" width="755.75px" xmlns="http://www.w3.org/2000/svg">
  <g transform="matrix(1.0, 0.0, 0.0, 1.0, 363.6, 214.15)">
    <path d="M265.55 -202.95 L264.6 -203.7 265.8 -203.9 266.4 -205.0 266.9 -203.9 268.1 -203.7 267.25 -202.95 267.4 -201.75 266.4 -202.25 265.25 -201.75 265.55 -202.95 M142.75 -104.65 L143.0 -104.05 143.7 -103.95 143.2 -103.45 143.3 -102.85 142.75 -103.1 142.15 -102.85 142.25 -103.45 141.75 -103.95 142.4 -104.05 142.75 -104.65 M32.0 -150.4 L32.3 -152.3 30.85 -153.65 32.85 -153.9 33.7 -155.7 34.55 -153.9 36.45 -153.65 35.1 -152.3 35.4 -150.4 33.7 -151.25 32.0 -150.4 M53.35 -139.95 L53.6 -138.75 52.5 -139.25 51.45 -138.75 51.6 -139.95 50.75 -140.8 51.95 -141.0 52.5 -142.05 53.1 -141.0 54.3 -140.8 53.35 -139.95 M53.1 -62.0 L54.3 -61.8 53.35 -60.95 53.6 -59.75 52.5 -60.35 51.45 -59.75 51.6 -60.95 50.75 -61.8 51.95 -62.0 52.5 -63.1 53.1 -62.0 M9.15 -68.65 L9.65 -67.5 10.85 -67.35 10.0 -66.45 10.2 -65.25 9.15 -65.85 8.05 -65.25 8.2 -66.45 7.35 -67.35 8.55 -67.5 9.15 -68.65 M161.3 -76.8 L161.35 -76.3 160.95 -76.55 160.5 -76.3 160.5 -76.8 160.15 -77.15 160.7 -77.15 160.95 -77.65 161.1 -77.15 161.65 -77.15 161.3 -76.8 M136.05 -53.45 L136.5 -53.4 136.15 -53.05 136.2 -52.6 135.8 -52.8 135.35 -52.6 135.45 -53.05 135.1 -53.4 135.6 -53.45 135.8 -53.9 136.05 -53.45 M109.1 -48.75 L110.1 -48.1 111.25 -48.75 111.05 -47.5 111.9 -46.65 110.7 -46.5 110.1 -45.35 109.6 -46.5 108.4 -46.65 109.25 -47.5 109.1 -48.75 M320.85 -129.3 L321.2 -131.0 319.95 -132.2 321.7 -132.45 322.45 -133.95 323.25 -132.4 324.9 -132.1 323.7 -130.9 323.95 -129.2 322.4 -130.05 320.85 -129.3 M162.85 -173.65 L163.35 -172.7 164.4 -172.5 163.6 -171.75 163.85 -170.7 162.85 -171.15 161.9 -170.7 162.05 -171.75 161.3 -172.5 162.4 -172.7 162.85 -173.65 M211.35 -109.65 L212.55 -109.8 213.05 -110.95 213.65 -109.8 214.85 -109.65 214.0 -108.75 214.2 -107.55 213.05 -108.15 212.05 -107.55 212.2 -108.75 211.35 -109.65 M173.25 -46.25 L172.65 -46.55 172.05 -46.25 172.25 -46.9 171.7 -47.35 172.4 -47.45 172.65 -48.05 173.0 -47.45 173.6 -47.35 173.15 -46.9 173.25 -46.25 M244.1 -29.0 L245.1 -28.5 246.25 -29.0 246.05 -27.8 246.9 -26.95 245.7 -26.75 245.1 -25.65 244.6 -26.75 243.4 -26.95 244.25 -27.8 244.1 -29.0 M384.65 -212.0 L383.8 -212.85 385.1 -213.0 385.6 -214.15 386.2 -213.0 387.45 -212.75 386.5 -211.9 386.75 -210.7 385.6 -211.3 384.4 -210.7 384.65 -212.0 M386.4 -112.15 L386.65 -113.75 385.45 -114.9 387.1 -115.15 387.85 -116.7 388.65 -115.15 390.25 -114.9 389.05 -113.75 389.3 -112.15 387.85 -112.9 386.4 -112.15 M388.8 23.75 L390.1 24.35 391.4 23.75 391.15 25.1 392.15 26.15 390.8 26.3 390.1 27.6 389.5 26.3 388.05 26.15 389.05 25.1 388.8 23.75 M365.2 -50.1 L366.95 -50.95 366.65 -49.05 368.05 -47.6 366.05 -47.35 365.2 -45.55 364.35 -47.35 362.35 -47.6 363.75 -49.05 363.5 -50.95 365.2 -50.1 M328.35 20.0 L327.45 19.15 328.65 19.0 329.2 17.85 329.7 19.0 330.9 19.15 330.05 20.0 330.3 21.25 329.2 20.6 328.15 21.25 328.35 20.0 M246.3 70.5 L247.5 70.7 246.65 71.55 246.9 72.75 245.8 72.15 244.75 72.75 244.95 71.55 244.1 70.7 245.3 70.5 245.8 69.4 246.3 70.5 M306.7 84.2 L306.95 82.55 305.75 81.35 307.5 81.1 308.15 79.65 308.95 81.1 310.6 81.35 309.4 82.55 309.65 84.2 308.15 83.45 306.7 84.2 M292.75 102.9 L292.5 104.55 293.7 105.75 292.0 105.9 291.3 107.45 290.5 105.9 288.85 105.75 290.1 104.55 289.75 102.9 291.3 103.65 292.75 102.9 M222.7 186.1 L222.45 184.9 223.55 185.45 224.6 184.9 224.45 186.1 225.3 187.0 224.1 187.15 223.55 188.25 222.95 187.15 221.75 187.0 222.7 186.1 M213.3 152.5 L214.2 153.4 213.0 153.55 212.45 154.65 211.85 153.55 210.65 153.4 211.5 152.5 211.35 151.3 212.45 151.9 213.5 151.3 213.3 152.5 M171.45 161.75 L171.3 162.85 172.05 163.55 170.95 163.7 170.5 164.65 170.0 163.7 168.95 163.55 169.75 162.85 169.55 161.75 170.5 162.25 171.45 161.75 M172.05 91.8 L171.7 91.2 171.0 91.1 171.55 90.6 171.45 89.95 172.05 90.25 172.55 89.95 172.5 90.6 173.0 91.1 172.3 91.2 172.05 91.8 M228.4 13.4 L229.85 12.6 229.6 14.25 230.8 15.35 229.15 15.65 228.4 17.2 227.7 15.65 226.0 15.35 227.2 14.25 226.95 12.6 228.4 13.4 M110.8 89.1 L111.3 90.15 112.55 90.3 111.65 91.2 111.9 92.4 110.8 91.85 109.75 92.4 109.95 91.2 109.1 90.3 110.3 90.15 110.8 89.1 M135.55 96.35 L135.45 96.8 135.8 97.1 135.35 97.2 135.1 97.65 134.9 97.2 134.4 97.1 134.75 96.8 134.65 96.35 135.1 96.5 135.55 96.35 M65.75 25.6 L67.4 25.35 68.15 23.9 68.85 25.35 70.55 25.6 69.3 26.85 69.6 28.45 68.15 27.7 Q67.4 28.1 66.6 28.45 L66.95 26.85 65.75 25.6 M159.8 120.05 L160.25 120.2 160.7 120.05 160.6 120.45 160.95 120.8 160.4 120.9 160.25 121.35 160.0 120.9 159.55 120.8 159.9 120.45 159.8 120.05 M53.6 184.5 L52.4 184.65 51.9 185.75 51.25 184.65 50.05 184.5 50.95 183.6 50.75 182.4 51.9 183.0 52.9 182.4 52.75 183.6 53.6 184.5 M51.9 104.1 L52.9 103.5 52.75 104.7 53.6 105.55 52.4 105.75 51.9 106.85 51.25 105.75 50.05 105.55 50.95 104.7 50.75 103.5 51.9 104.1 M-335.55 -108.15 L-336.65 -107.55 -336.5 -108.75 -337.35 -109.65 -336.15 -109.8 -335.55 -110.95 -335.0 -109.8 -333.8 -109.65 -334.7 -108.75 -334.5 -107.55 -335.55 -108.15 M-331.4 -62.0 L-330.2 -61.8 -331.05 -60.95 -330.9 -59.75 -331.9 -60.35 -333.05 -59.75 -332.85 -60.95 -333.75 -61.8 -332.5 -62.0 -331.9 -63.1 -331.4 -62.0 M-133.45 -199.05 L-132.4 -201.1 -131.35 -199.05 -129.05 -198.7 -130.75 -197.1 -130.35 -194.85 -132.4 -195.85 -134.45 -194.85 -134.05 -197.1 -135.75 -198.7 -133.45 -199.05 M-286.6 -206.1 L-283.5 -206.55 -282.15 -209.3 -280.75 -206.55 -277.75 -206.1 -279.95 -203.95 -279.35 -200.95 -282.15 -202.35 -284.9 -200.95 -284.35 -203.95 -286.6 -206.1 M-224.75 -138.75 L-224.6 -139.95 -225.45 -140.8 -224.25 -141.0 -223.7 -142.05 -223.1 -141.0 -221.9 -140.8 -222.85 -139.95 -222.6 -138.75 -223.7 -139.25 -224.75 -138.75 M-317.8 -125.65 L-318.65 -124.8 -318.5 -123.6 -319.5 -124.2 -320.65 -123.6 -320.45 -124.8 -321.3 -125.65 -320.1 -125.85 -319.5 -126.95 -319.0 -125.85 -317.8 -125.65 M-278.25 -84.5 L-278.1 -83.25 -279.2 -83.8 -280.25 -83.25 -280.05 -84.5 -280.9 -85.35 -279.7 -85.5 -279.2 -86.55 -278.6 -85.5 -277.4 -85.35 -278.25 -84.5 M-307.55 -40.45 L-306.1 -39.7 -304.6 -40.45 -304.85 -38.8 -303.65 -37.6 -305.3 -37.45 -306.1 -35.9 -306.85 -37.45 -308.5 -37.6 -307.3 -38.8 -307.55 -40.45 M-262.9 -37.35 L-262.65 -35.35 -264.4 -36.3 -266.1 -35.35 -265.75 -37.35 -267.15 -38.65 -265.25 -39.0 -264.4 -40.7 -263.5 -39.0 -261.55 -38.65 -262.9 -37.35 M-220.95 -8.85 L-221.55 -7.7 -222.1 -8.85 -223.3 -9.0 -222.4 -9.85 -222.6 -11.1 -221.55 -10.5 -220.45 -11.1 -220.6 -9.85 -219.75 -9.0 -220.95 -8.85 M-75.95 -137.3 L-75.0 -139.1 -74.15 -137.3 -72.25 -137.05 -73.65 -135.65 -73.3 -133.75 -75.0 -134.6 -76.85 -133.75 -76.5 -135.65 -77.85 -137.05 -75.95 -137.3 M-131.0 -81.4 L-132.9 -83.2 -130.35 -83.55 -129.1 -85.85 -128.0 -83.55 -125.4 -83.2 -127.25 -81.4 -126.8 -78.8 -129.1 -80.0 -131.45 -78.8 -131.0 -81.4 M-12.4 -63.7 L-11.6 -62.25 -10.0 -62.0 -11.2 -60.8 -10.95 -59.15 -12.4 -59.95 -13.85 -59.15 -13.6 -60.8 -14.8 -62.0 -13.15 -62.25 -12.4 -63.7 M-74.15 -45.2 L-72.25 -44.95 -73.65 -43.55 -73.3 -41.6 -75.0 -42.5 -76.85 -41.6 -76.5 -43.55 -77.85 -44.95 -75.95 -45.2 -75.0 -46.9 -74.15 -45.2 M-23.85 11.65 L-22.75 11.05 -22.9 12.25 -22.05 13.15 -23.25 13.3 -23.85 14.4 -24.35 13.3 -25.55 13.15 -24.7 12.25 -24.9 11.05 -23.85 11.65 M-23.7 30.45 L-23.15 29.35 -22.65 30.45 -21.45 30.6 -22.3 31.4 -22.05 32.6 -23.15 32.1 -24.2 32.6 -24.0 31.4 -24.9 30.6 -23.7 30.45 M-189.5 27.15 L-189.85 29.05 -188.5 30.45 -190.4 30.7 -191.25 32.5 -192.2 30.7 -194.1 30.45 -192.7 29.05 -193.05 27.15 -191.25 28.1 -189.5 27.15 M-7.5 163.35 L-6.45 164.0 -5.35 163.35 -5.5 164.6 -4.65 165.45 -5.85 165.6 -6.45 166.75 -6.95 165.6 -8.15 165.45 -7.3 164.6 -7.5 163.35 M-75.7 178.35 L-74.0 177.4 -74.35 179.4 -72.95 180.8 -74.85 181.05 -75.7 182.75 -76.55 181.05 -78.55 180.8 -77.1 179.4 -77.45 177.4 -75.7 178.35 M-14.3 104.55 L-14.55 102.9 Q-13.8 103.3 -13.1 103.65 L-11.6 102.9 -11.85 104.55 -10.65 105.75 -12.3 105.9 -13.1 107.45 -13.75 105.9 -15.5 105.75 -14.3 104.55 M-77.45 85.3 L-75.7 86.25 -74.0 85.3 -74.35 87.3 -72.95 88.6 -74.85 88.95 -75.7 90.65 -76.55 88.95 -78.55 88.6 -77.1 87.3 -77.45 85.3 M-300.4 27.1 L-301.25 27.95 -301.1 29.15 -302.1 28.55 -303.25 29.15 -302.95 27.95 -303.9 27.1 -302.7 26.9 -302.1 25.8 -301.6 26.9 -300.4 27.1 M-306.15 81.1 L-305.4 79.65 -304.7 81.1 -302.95 81.35 -304.2 82.55 -303.9 84.2 -305.4 83.45 -306.95 84.2 -306.6 82.55 -307.8 81.35 -306.15 81.1 M-363.6 103.75 L-362.75 102.9 -362.95 101.7 -361.9 102.2 -360.8 101.7 -361.05 102.9 -360.1 103.75 -361.4 103.95 -361.9 104.95 -362.4 103.95 -363.6 103.75 M-181.7 151.9 L-179.35 150.7 -179.8 153.2 -177.9 155.1 -180.45 155.45 -181.7 157.75 -182.8 155.45 -185.4 155.1 -183.5 153.2 -184.0 150.7 -181.7 151.9 M-224.3 183.0 L-223.3 182.4 -223.45 183.6 -222.6 184.5 -223.8 184.65 -224.3 185.75 -224.9 184.65 -226.15 184.5 -225.25 183.6 -225.45 182.4 -224.3 183.0 M-280.4 129.15 L-281.6 129.0 -280.75 128.15 -280.9 126.95 -279.8 127.55 -278.75 126.95 -278.95 128.15 -278.1 129.0 -279.3 129.15 -279.8 130.3 -280.4 129.15" fill="#ffffff" fill-opacity="0.0" fill-rule="evenodd" stroke="none"/>
  </g>
</svg>
