<?xml version="1.0" encoding="UTF-8" standalone="no"?>
<svg xmlns:xlink="http://www.w3.org/1999/xlink" height="2886.05px" width="1711.65px" xmlns="http://www.w3.org/2000/svg">
  <g transform="matrix(1.0, 0.0, 0.0, 1.0, 855.85, 1442.95)">
    <path d="M122.65 -1325.25 L122.65 -1325.3 122.45 -1326.7 122.65 -1325.25 M-437.15 475.85 L-436.3 475.9 -437.55 475.85 -437.15 475.85 M-383.35 491.85 L-381.0 492.75 Q-374.65 497.05 -368.55 502.4 -375.7 496.45 -383.35 491.85 M-329.45 553.8 Q-325.95 560.55 -322.65 567.9 L-323.1 568.4 -329.45 553.8 M28.3 759.8 Q34.95 801.85 38.15 848.2 L29.35 767.7 28.3 759.8 M825.75 1295.2 L826.35 1295.0 826.4 1295.0 825.75 1295.2" fill="#ffffff" fill-rule="evenodd" stroke="none"/>
    <path d="M-329.55 553.65 L-329.45 553.8 -329.55 553.65 M40.15 884.35 L40.25 886.3 40.8 899.3 41.15 916.95 41.05 919.55 Q40.8 901.65 40.15 884.35 M-286.5 944.35 L-278.0 936.55 -278.5 943.8 -286.5 944.35" fill="#c2c2c2" fill-rule="evenodd" stroke="none"/>
    <path d="M122.65 -1325.3 Q105.15 -1388.85 76.7 -1397.4 L69.7 -1389.05 6.0 -733.5 Q2.25 -731.4 -0.7 -727.0 -7.65 -718.65 -7.65 -707.5 -7.65 -696.35 -0.7 -688.0 0.25 -686.55 1.35 -685.35 L-2.7 -643.9 -7.4 -589.1 -7.65 -589.1 Q-16.0 -589.1 -21.55 -580.75 -28.55 -572.4 -28.55 -561.25 -28.55 -550.1 -21.55 -541.75 -17.55 -535.7 -12.05 -534.0 L-20.1 -435.8 Q-25.35 -440.1 -31.3 -440.1 -39.65 -440.1 -45.25 -431.7 -52.2 -423.35 -52.2 -412.2 -52.2 -401.1 -45.25 -392.7 -39.65 -384.35 -31.3 -384.35 -27.55 -384.35 -24.05 -386.05 L-31.8 -284.35 Q-36.2 -286.85 -42.45 -286.85 -50.8 -286.85 -56.4 -278.5 -63.35 -270.15 -63.35 -259.0 -63.35 -247.9 -56.4 -239.5 -50.8 -231.15 -42.45 -231.15 -38.7 -231.15 -35.6 -232.05 L-43.05 -123.95 Q-47.4 -126.7 -52.2 -126.7 -60.55 -126.7 -66.15 -118.35 -73.1 -110.0 -73.1 -98.85 -73.1 -87.7 -66.15 -79.35 -60.55 -71.0 -52.2 -71.0 -49.2 -71.0 -46.4 -72.05 -49.9 -15.75 -52.7 35.95 -57.1 33.45 -63.35 33.45 -71.7 33.45 -77.3 41.8 -84.25 50.15 -84.25 61.3 -84.25 72.45 -77.3 80.8 -71.7 89.15 -63.35 89.15 -58.9 89.15 -55.4 87.9 -66.95 320.6 -62.6 450.8 -19.4 318.5 36.3 191.75 146.3 -60.35 203.4 -24.15 L242.4 116.55 Q293.95 271.1 362.2 343.55 468.05 457.75 643.55 789.25 841.3 1163.9 820.4 1292.0 L826.35 1295.0 825.75 1295.2 804.05 1296.2 Q771.9 1292.35 721.5 1260.95 L720.95 1260.6 720.4 1260.25 718.95 1259.3 715.9 1257.4 708.7 1252.7 704.85 1250.15 702.55 1248.6 701.9 1248.15 700.75 1247.35 699.1 1246.2 692.85 1241.9 692.15 1241.4 691.4 1240.85 691.05 1240.6 690.65 1240.35 690.3 1240.1 689.55 1239.6 687.15 1237.85 686.4 1237.3 686.0 1237.05 682.75 1234.65 681.95 1234.1 681.55 1233.8 681.15 1233.5 Q419.3 1041.3 356.6 1009.3 160.25 910.6 40.8 899.3 L40.25 886.3 40.15 884.35 38.15 848.2 Q34.95 801.85 28.3 759.8 L29.35 767.7 Q25.55 744.45 20.95 722.35 -13.85 548.3 -100.2 528.8 -50.05 647.15 -65.4 980.05 -82.1 992.55 -115.5 1005.1 -182.4 1031.55 -267.35 1034.35 L-267.35 1032.55 Q-267.3 978.05 -263.9 923.6 -259.45 852.2 -249.25 780.85 -223.6 600.5 -170.75 547.8 L-169.9 546.95 Q-189.35 457.75 -238.1 467.5 -280.35 517.25 -322.65 567.9 -280.35 517.25 -238.1 467.5 -189.35 457.75 -169.9 546.95 -148.45 526.0 -122.5 526.0 -23.6 526.0 18.2 705.65 L18.45 706.65 28.3 759.8 18.45 706.65 18.2 705.65 Q-23.6 526.0 -122.5 526.0 -148.45 526.0 -169.9 546.95 L-170.75 547.8 -172.65 539.9 Q-240.6 631.4 -282.85 719.65 L-283.25 720.55 Q-328.2 814.55 -343.95 904.85 L-855.1 1363.05 Q-852.3 1424.3 -830.0 1442.45 -857.85 1421.55 -855.1 1337.95 L-846.7 1258.6 Q-845.1 1246.25 -828.25 1217.3 -776.75 1128.9 -582.75 885.95 -579.9 794.65 -565.4 704.25 -560.15 671.0 -553.7 642.65 -600.55 615.75 -651.75 597.05 L-774.3 567.8 Q-809.1 470.3 -614.15 251.6 -519.8 143.6 -417.35 54.4 -404.75 -152.35 -388.5 -299.9 -323.05 -896.0 -70.95 -1306.85 62.75 -1524.15 108.7 -1393.2 L110.15 -1388.65 122.45 -1326.7 122.65 -1325.3 M-437.15 475.85 Q-428.75 241.0 -417.35 54.4 -428.75 241.0 -437.15 475.85 L-437.55 475.85 -438.65 475.85 Q-516.0 475.85 -553.7 642.65 -516.0 475.85 -438.65 475.85 L-437.55 475.85 -436.3 475.9 -437.15 475.85 M-417.55 479.0 L-423.25 476.9 -423.5 476.85 -436.3 475.9 -423.5 476.85 -423.25 476.9 -417.55 479.0 Q-391.15 534.95 -382.75 640.1 L-323.1 568.4 -322.65 567.9 Q-325.95 560.55 -329.45 553.8 L-329.55 553.65 Q-351.25 512.0 -381.0 492.75 L-383.35 491.85 Q-399.45 482.2 -417.75 478.65 L-417.55 479.0 M-87.7 -870.1 Q-41.75 -857.55 -4.15 -854.75 L2.85 -987.1 Q-62.6 -982.9 -123.9 -1016.35 L-171.25 -1049.75 -213.05 -938.35 Q-178.2 -895.15 -87.7 -870.1 M-587.65 360.25 Q-614.15 360.25 -633.65 383.95 -651.75 407.6 -651.75 442.45 -651.75 477.25 -633.65 500.95 -614.15 526.0 -587.65 526.0 -561.2 526.0 -543.1 500.95 -523.6 477.25 -523.6 442.45 -523.6 407.6 -543.1 383.95 -561.2 360.25 -587.65 360.25 M-555.65 442.45 Q-555.65 460.55 -565.4 471.7 -573.75 484.2 -587.65 484.2 -601.6 484.2 -609.95 471.7 -619.7 460.55 -619.7 442.45 -619.7 425.7 -609.95 413.2 -601.6 400.65 -587.65 400.65 -573.75 400.65 -565.4 413.2 -555.65 425.7 -555.65 442.45 M-382.75 640.1 Q-459.95 733.35 -537.55 829.6 L-582.75 885.95 -537.55 829.6 Q-459.95 733.35 -382.75 640.1" fill="#ffffff" fill-opacity="0.0" fill-rule="evenodd" stroke="none"/>
    <path d="M6.0 -733.5 L69.7 -1389.05 76.7 -1397.4 Q105.15 -1388.85 122.65 -1325.3 L122.65 -1325.25 Q130.8 -1295.6 136.55 -1253.95 137.45 -1250.45 149.6 -1112.5 L170.0 -898.8 Q217.35 -387.65 235.45 -273.45 295.35 92.85 429.05 322.65 476.4 404.85 572.5 567.8 654.65 711.25 704.8 822.65 732.65 885.35 802.3 1035.75 856.6 1172.25 855.25 1264.15 L853.65 1268.7 852.7 1271.0 852.55 1271.3 Q844.05 1290.05 826.35 1295.0 L820.4 1292.0 Q841.3 1163.9 643.55 789.25 468.05 457.75 362.2 343.55 293.95 271.1 242.4 116.55 L203.4 -24.15 Q146.3 -60.35 36.3 191.75 -19.4 318.5 -62.6 450.8 -66.95 320.6 -55.4 87.9 -42.45 83.25 -42.45 61.3 -42.45 41.75 -52.7 35.95 -49.9 -15.75 -46.4 -72.05 -41.35 -74.0 -36.9 -79.35 -31.3 -87.7 -31.3 -98.85 -31.3 -110.0 -36.9 -118.35 -39.85 -121.9 -43.05 -123.95 L-35.6 -232.05 Q-21.55 -236.15 -21.55 -259.0 -21.55 -278.5 -31.8 -284.35 L-24.05 -386.05 Q-19.8 -388.1 -16.0 -392.7 -10.4 -401.1 -10.4 -412.2 -10.4 -423.35 -16.0 -431.7 -18.0 -434.1 -20.1 -435.8 L-12.05 -534.0 -7.65 -533.4 Q13.25 -533.4 13.25 -561.25 13.25 -588.95 -7.4 -589.1 L-2.7 -643.9 1.35 -685.35 Q6.35 -679.65 13.25 -679.65 34.15 -679.65 34.15 -707.5 34.15 -735.35 13.25 -735.35 9.3 -735.35 6.0 -733.5 M2.85 218.2 Q65.55 -93.8 124.05 -528.3 L170.0 -898.8 2.85 218.2 M-417.55 479.0 L-417.75 478.65 Q-399.45 482.2 -383.35 491.85 -375.7 496.45 -368.55 502.4 -374.65 497.05 -381.0 492.75 -351.25 512.0 -329.55 553.65 L-329.45 553.8 -323.1 568.4 -382.75 640.1 Q-391.15 534.95 -417.55 479.0 M38.15 848.2 L40.15 884.35 Q40.8 901.65 41.05 919.55 L37.7 1048.3 Q-151.75 1063.6 -267.35 1034.35 -182.4 1031.55 -115.5 1005.1 -82.1 992.55 -65.4 980.05 -50.05 647.15 -100.2 528.8 -13.85 548.3 20.95 722.35 25.55 744.45 29.35 767.7 L38.15 848.2 M-830.0 1442.45 Q-852.3 1424.3 -855.1 1363.05 L-343.95 904.85 Q-328.2 814.55 -283.25 720.55 L-282.85 719.65 Q-240.6 631.4 -172.65 539.9 L-170.75 547.8 Q-223.6 600.5 -249.25 780.85 -259.45 852.2 -263.9 923.6 L-278.0 936.55 -286.5 944.35 -830.0 1442.45" fill="#000000" fill-opacity="0.2" fill-rule="evenodd" stroke="none"/>
    <path d="M170.0 -898.8 L124.05 -528.3 Q65.55 -93.8 2.85 218.2 L170.0 -898.8" fill="#ffffff" fill-opacity="0.2509804" fill-rule="evenodd" stroke="none"/>
    <path d="M6.0 -733.5 Q9.3 -735.35 13.25 -735.35 34.15 -735.35 34.15 -707.5 34.15 -679.65 13.25 -679.65 6.35 -679.65 1.35 -685.35 0.25 -686.55 -0.7 -688.0 -7.65 -696.35 -7.65 -707.5 -7.65 -718.65 -0.7 -727.0 2.25 -731.4 6.0 -733.5 M-7.4 -589.1 Q13.25 -588.95 13.25 -561.25 13.25 -533.4 -7.65 -533.4 L-12.05 -534.0 Q-17.55 -535.7 -21.55 -541.75 -28.55 -550.1 -28.55 -561.25 -28.55 -572.4 -21.55 -580.75 -16.0 -589.1 -7.65 -589.1 L-7.4 -589.1 M-20.1 -435.8 Q-18.0 -434.1 -16.0 -431.7 -10.4 -423.35 -10.4 -412.2 -10.4 -401.1 -16.0 -392.7 -19.8 -388.1 -24.05 -386.05 -27.55 -384.35 -31.3 -384.35 -39.65 -384.35 -45.25 -392.7 -52.2 -401.1 -52.2 -412.2 -52.2 -423.35 -45.25 -431.7 -39.65 -440.1 -31.3 -440.1 -25.35 -440.1 -20.1 -435.8 M-31.8 -284.35 Q-21.55 -278.5 -21.55 -259.0 -21.55 -236.15 -35.6 -232.05 -38.7 -231.15 -42.45 -231.15 -50.8 -231.15 -56.4 -239.5 -63.35 -247.9 -63.35 -259.0 -63.35 -270.15 -56.4 -278.5 -50.8 -286.85 -42.45 -286.85 -36.2 -286.85 -31.8 -284.35 M-43.05 -123.95 Q-39.85 -121.9 -36.9 -118.35 -31.3 -110.0 -31.3 -98.85 -31.3 -87.7 -36.9 -79.35 -41.35 -74.0 -46.4 -72.05 -49.2 -71.0 -52.2 -71.0 -60.55 -71.0 -66.15 -79.35 -73.1 -87.7 -73.1 -98.85 -73.1 -110.0 -66.15 -118.35 -60.55 -126.7 -52.2 -126.7 -47.4 -126.7 -43.05 -123.95 M-52.7 35.95 Q-42.45 41.75 -42.45 61.3 -42.45 83.25 -55.4 87.9 -58.9 89.15 -63.35 89.15 -71.7 89.15 -77.3 80.8 -84.25 72.45 -84.25 61.3 -84.25 50.15 -77.3 41.8 -71.7 33.45 -63.35 33.45 -57.1 33.45 -52.7 35.95 M826.35 1295.0 Q844.05 1290.05 852.55 1271.3 L852.7 1271.0 853.65 1268.7 855.25 1264.15 Q856.6 1172.25 802.3 1035.75 732.65 885.35 704.8 822.65 654.65 711.25 572.5 567.8 476.4 404.85 429.05 322.65 295.35 92.85 235.45 -273.45 217.35 -387.65 170.0 -898.8 L124.05 -528.3 Q65.55 -93.8 2.85 218.2 M170.0 -898.8 L149.6 -1112.5 Q137.45 -1250.45 136.55 -1253.95 130.8 -1295.6 122.65 -1325.25 L122.65 -1325.3 122.45 -1326.7 110.15 -1388.65 108.7 -1393.2 Q62.75 -1524.15 -70.95 -1306.85 -323.05 -896.0 -388.5 -299.9 -404.75 -152.35 -417.35 54.4 -428.75 241.0 -437.15 475.85 L-436.3 475.9 -423.5 476.85 -423.25 476.9 -417.55 479.0 -417.75 478.65 Q-399.45 482.2 -383.35 491.85 L-381.0 492.75 Q-351.25 512.0 -329.55 553.65 L-329.45 553.8 Q-325.95 560.55 -322.65 567.9 -280.35 517.25 -238.1 467.5 -189.35 457.75 -169.9 546.95 -148.45 526.0 -122.5 526.0 -23.6 526.0 18.2 705.65 L18.45 706.65 28.3 759.8 Q34.95 801.85 38.15 848.2 L40.15 884.35 40.25 886.3 40.8 899.3 Q160.25 910.6 356.6 1009.3 419.3 1041.3 681.15 1233.5 L681.55 1233.8 681.95 1234.1 682.75 1234.65 686.0 1237.05 686.4 1237.3 687.15 1237.85 689.55 1239.6 690.3 1240.1 690.65 1240.35 691.05 1240.6 691.4 1240.85 692.15 1241.4 692.85 1241.9 699.1 1246.2 700.75 1247.35 701.9 1248.15 702.55 1248.6 704.85 1250.15 708.7 1252.7 715.9 1257.4 718.95 1259.3 720.4 1260.25 720.95 1260.6 721.5 1260.95 Q771.9 1292.35 804.05 1296.2 L825.75 1295.2 826.35 1295.0 826.4 1295.0 825.75 1295.2 M122.65 -1325.25 L122.45 -1326.7 M28.3 759.8 L29.35 767.7 38.15 848.2 M29.35 767.7 Q25.55 744.45 20.95 722.35 -13.85 548.3 -100.2 528.8 M-267.35 1034.35 Q-151.75 1063.6 37.7 1048.3 L41.05 919.55 Q40.8 901.65 40.15 884.35 M-87.7 -870.1 Q-178.2 -895.15 -213.05 -938.35 L-171.25 -1049.75 -123.9 -1016.35 Q-62.6 -982.9 2.85 -987.1 L-4.15 -854.75 Q-41.75 -857.55 -87.7 -870.1 M-417.35 54.4 Q-519.8 143.6 -614.15 251.6 -809.1 470.3 -774.3 567.8 L-651.75 597.05 Q-600.55 615.75 -553.7 642.65 -516.0 475.85 -438.65 475.85 L-437.55 475.85 -437.15 475.85 M-437.55 475.85 L-436.3 475.9 M-329.55 553.65 L-329.45 553.8 -323.1 568.4 -322.65 567.9 M-381.0 492.75 Q-374.65 497.05 -368.55 502.4 M-830.0 1442.45 Q-857.85 1421.55 -855.1 1337.95 L-846.7 1258.6 Q-845.1 1246.25 -828.25 1217.3 -776.75 1128.9 -582.75 885.95 -579.9 794.65 -565.4 704.25 -560.15 671.0 -553.7 642.65 M-382.75 640.1 L-323.1 568.4 M-170.75 547.8 L-169.9 546.95 M-830.0 1442.45 L-286.5 944.35 -278.0 936.55 -263.9 923.6 Q-259.45 852.2 -249.25 780.85 -223.6 600.5 -170.75 547.8 M-278.0 936.55 L-278.5 943.8 -286.5 944.35 M-263.9 923.6 Q-267.3 978.05 -267.35 1032.55 L-267.35 1034.35 M-582.75 885.95 L-537.55 829.6 Q-459.95 733.35 -382.75 640.1 M41.05 919.55 L41.15 916.95 40.8 899.3 M41.05 919.55 Q41.95 980.7 37.7 1048.3" fill="none" stroke="#000000" stroke-linecap="round" stroke-linejoin="miter-clip" stroke-miterlimit="4.0" stroke-width="1.0"/>
  </g>
</svg>
