<?xml version="1.0" encoding="UTF-8" standalone="no"?>
<svg xmlns:xlink="http://www.w3.org/1999/xlink" height="52.4px" width="14.35px" xmlns="http://www.w3.org/2000/svg">
  <g transform="matrix(1.0, 0.0, 0.0, 1.0, 7.2, 26.2)">
    <path d="M6.45 -17.15 L-5.0 -20.95 -3.95 -26.2 7.15 -21.35 6.45 -17.15 M4.75 -6.1 L-6.4 -9.9 -5.35 -14.75 5.05 -10.55 4.75 -6.1 M-4.05 17.6 Q-5.0 17.6 -5.6 16.9 -6.3 16.1 -6.3 15.0 -6.3 13.95 -5.6 13.2 -5.0 12.4 -4.05 12.4 -3.15 12.4 -2.5 13.2 -1.85 13.95 -1.85 15.0 -1.85 16.1 -2.5 16.9 -3.15 17.6 -4.05 17.6 M-6.55 21.75 Q-5.9 21.0 -5.0 21.0 -4.1 21.0 -3.45 21.75 -2.75 22.55 -2.75 23.6 -2.75 24.7 -3.45 25.45 -4.1 26.2 -5.0 26.2 -5.9 26.2 -6.55 25.45 -7.2 24.7 -7.2 23.6 -7.2 22.55 -6.55 21.75" fill="#ffffff" fill-opacity="0.0" fill-rule="evenodd" stroke="none"/>
  </g>
</svg>
