<?xml version="1.0" encoding="UTF-8" standalone="no"?>
<svg xmlns:xlink="http://www.w3.org/1999/xlink" height="1837.5px" width="5342.85px" xmlns="http://www.w3.org/2000/svg">
  <g transform="matrix(1.0, 0.0, 0.0, 1.0, 2680.1, 1021.35)">
    <path d="M-1281.95 328.05 Q-1277.95 359.0 -1277.95 392.85 -1277.95 404.9 -1278.5 416.95 -1280.25 457.15 -1288.25 493.3 -1289.95 501.35 -1291.95 509.15 -1303.55 554.3 -1325.55 591.95 -1340.45 617.2 -1357.1 635.0 -1377.75 656.8 -1401.3 666.55 -1415.05 671.7 -1428.85 673.45 L-1439.75 674.0 Q-1486.2 674.0 -1522.95 635.0 -1539.0 618.35 -1553.35 594.25 L-1554.5 591.95 Q-1574.6 557.2 -1586.1 516.4 -1592.6 493.2 -1596.35 468.05 -1611.85 459.45 -1620.45 446.25 -1635.4 424.45 -1642.25 367.05 -1644.55 346.95 -1649.15 328.05 L-1345.05 328.05 -1435.15 399.75 -1385.8 328.6 -1412.2 328.6 -1437.45 393.45 -1432.25 328.6 -1441.55 328.6 -1443.75 328.6 -1437.45 398.6 -1466.7 328.6 -1489.6 328.6 -1495.4 328.6 -1439.75 402.05 -1535.55 333.2 -1535.0 328.6 Q-1547.05 328.05 -1558.5 328.6 -1565.4 361.3 -1565.4 398.6 -1565.4 443.35 -1556.2 481.25 -1547.05 519.65 -1528.1 551.8 -1518.9 567.85 -1508.6 579.9 -1499.5 590.35 -1489.6 597.75 -1467.55 614.2 -1441.55 615.4 L-1437.45 615.5 Q-1384.65 615.5 -1347.35 551.8 -1335.9 532.85 -1327.85 511.05 -1314.65 473.2 -1311.2 427.85 -1310.05 413.55 -1310.05 398.6 -1310.05 361.3 -1316.4 328.05 L-1281.95 328.05 M-726.55 324.6 Q-724.25 332.05 -724.25 339.5 -723.7 352.15 -724.85 363.6 -808.05 395.15 -902.7 426.15 -927.5 434.1 -949.95 440.9 -1099.2 485.75 -1146.55 477.8 -1185.55 470.9 -1205.65 451.4 -1210.8 446.25 -1214.8 440.5 -1224.0 426.7 -1230.3 400.35 -1234.9 381.95 -1237.75 356.75 -1239.5 341.8 -1242.35 328.05 L-726.55 324.6 M-1897.0 325.75 L-1832.75 410.1 -1923.4 344.7 -1921.1 325.15 -1942.35 325.15 Q-1952.1 362.45 -1952.1 406.65 -1952.1 491.55 -1916.5 551.8 -1880.95 611.45 -1831.05 611.45 -1781.1 611.45 -1745.55 551.8 -1710.55 491.55 -1710.55 406.65 -1710.55 364.25 -1719.1 327.6 L-1685.3 328.05 Q-1680.15 362.45 -1680.15 401.5 -1680.15 511.65 -1724.9 589.65 -1740.95 617.2 -1758.75 635.0 -1777.1 652.2 -1796.6 660.25 -1809.25 665.4 -1822.45 666.55 L-1833.35 667.15 Q-1874.05 667.15 -1907.35 635.0 -1925.7 617.2 -1941.75 589.65 -1986.5 511.65 -1986.5 401.5 -1986.5 360.75 -1980.2 324.0 L-1728.35 327.45 -1828.75 407.8 -1772.5 327.45 Q-1787.45 326.9 -1801.2 326.9 L-1830.45 402.05 -1824.7 326.9 -1837.9 326.3 -1831.05 406.65 -1864.3 326.3 Q-1880.95 325.75 -1897.0 325.75" fill="#000000" fill-opacity="0.101960786" fill-rule="evenodd" stroke="none"/>
    <path d="M352.7 137.0 L380.8 155.9 388.25 161.1 Q415.95 181.15 441.1 205.35 L443.9 208.1 Q479.5 243.7 503.55 283.85 509.05 293.05 514.2 302.6 L516.75 307.4 Q546.05 365.35 554.05 431.9 558.1 462.3 563.8 485.25 571.3 516.8 582.75 533.45 587.35 540.35 593.65 546.65 617.75 570.15 664.8 578.2 730.8 589.65 959.7 515.65 1073.9 478.95 1174.85 439.9 1168.55 497.3 1126.65 530.0 1085.35 562.15 904.05 637.85 755.45 699.85 524.8 765.25 L356.1 807.1 Q408.35 786.45 448.5 716.45 479.5 662.55 493.8 597.15 503.0 554.1 505.3 505.9 505.85 491.0 505.85 476.05 505.85 382.55 481.2 307.95 473.75 286.15 464.55 266.05 457.1 250.0 448.5 235.65 438.9 219.15 428.7 205.35 408.3 177.85 385.4 161.1 353.8 138.15 316.55 136.4 L352.7 137.0 M120.9 567.3 Q124.1 588.5 128.95 608.55 143.15 667.3 171.35 716.45 172.5 718.2 173.1 719.9 L128.95 733.55 Q84.9 746.8 37.1 760.1 L-122.4 800.25 Q-73.05 780.15 -35.2 714.2 -13.95 677.45 -0.75 635.0 3.25 620.65 6.7 605.75 19.35 550.65 19.35 486.95 19.35 422.7 6.7 367.65 0.4 340.65 -8.8 316.0 -19.7 285.6 -35.2 259.2 -44.25 243.35 -53.95 230.2 -99.5 168.5 -159.1 165.65 L-125.85 166.25 -99.45 184.6 Q-69.45 204.4 -43.0 230.2 L-39.2 233.95 Q-12.8 260.35 6.7 289.0 14.2 300.0 21.25 311.85 L23.35 315.4 Q56.6 374.5 65.25 445.1 73.25 514.5 91.6 540.9 101.95 556.95 120.9 567.3 M-1685.3 328.05 L-1660.65 328.05 -1649.15 328.05 Q-1644.55 346.95 -1642.25 367.05 -1635.4 424.45 -1620.45 446.25 -1611.85 459.45 -1596.35 468.05 -1592.6 493.2 -1586.1 516.4 -1574.6 557.2 -1554.5 591.95 L-1553.35 594.25 -1586.1 604.4 Q-1621.9 615.25 -1660.65 626.1 L-1665.8 627.55 -1796.6 660.25 Q-1777.1 652.2 -1758.75 635.0 -1740.95 617.2 -1724.9 589.65 -1680.15 511.65 -1680.15 401.5 -1680.15 362.45 -1685.3 328.05 M-1401.3 666.55 Q-1377.75 656.8 -1357.1 635.0 -1340.45 617.2 -1325.55 591.95 -1303.55 554.3 -1291.95 509.15 -1289.95 501.35 -1288.25 493.3 -1280.25 457.15 -1278.5 416.95 -1277.95 404.9 -1277.95 392.85 -1277.95 359.0 -1281.95 328.05 L-1256.15 328.05 -1242.35 328.05 Q-1239.5 341.8 -1237.75 356.75 -1234.9 381.95 -1230.3 400.35 -1224.0 426.7 -1214.8 440.5 -1210.8 446.25 -1205.65 451.4 -1185.55 470.9 -1146.55 477.8 -1099.2 485.75 -949.95 440.9 -927.5 434.1 -902.7 426.15 -808.05 395.15 -724.85 363.6 -730.0 410.65 -764.4 437.65 -798.85 464.6 -948.6 526.55 L-949.95 527.15 Q-1072.45 578.5 -1262.45 632.15 L-1401.3 666.55" fill="#000000" fill-opacity="0.2509804" fill-rule="evenodd" stroke="none"/>
    <path d="M428.4 309.1 Q467.45 381.95 467.45 482.4 467.45 500.75 466.3 518.55 462.25 573.05 445.65 618.35 435.85 644.75 422.1 668.3 376.75 744.6 312.5 744.6 264.9 744.6 227.6 702.15 215.0 687.8 203.5 668.3 181.1 629.85 169.65 583.35 158.15 536.9 158.15 482.4 158.15 384.85 195.45 312.55 198.9 305.1 203.5 297.65 248.85 221.3 312.5 221.3 376.75 221.3 422.1 297.65 425.55 303.35 428.4 309.1 M447.35 379.1 L393.4 371.65 315.95 483.55 447.35 379.1 M391.7 273.55 L325.7 307.95 313.1 476.65 391.7 273.55 M292.45 253.45 L244.25 317.7 312.5 482.4 292.45 253.45 M311.95 490.4 L310.2 491.55 181.7 594.85 236.2 601.15 310.8 492.7 236.2 686.65 302.2 653.35 314.25 483.55 311.95 490.4 M318.25 491.55 L422.65 628.1 424.95 631.0 425.55 626.95 432.45 572.45 317.7 489.85 317.1 489.25 317.1 489.85 316.55 489.25 317.1 490.4 337.75 718.2 385.4 654.5 318.25 491.55 M194.9 403.2 L310.2 486.4 201.8 344.7 194.9 403.2 M199.5 518.55 L310.2 491.55 172.5 447.95 199.5 518.55 M425.55 461.15 L314.8 488.1 453.1 532.3 425.55 461.15 M-1495.4 328.6 L-1489.6 328.6 -1466.7 328.6 -1437.45 398.6 -1443.75 328.6 -1441.55 328.6 -1432.25 328.6 -1437.45 393.45 -1412.2 328.6 -1385.8 328.6 -1435.15 399.75 -1345.05 328.05 -1316.4 328.05 Q-1310.05 361.3 -1310.05 398.6 -1310.05 413.55 -1311.2 427.85 -1314.65 473.2 -1327.85 511.05 -1335.9 532.85 -1347.35 551.8 -1384.65 615.5 -1437.45 615.5 L-1441.55 615.4 Q-1467.55 614.2 -1489.6 597.75 -1499.5 590.35 -1508.6 579.9 -1518.9 567.85 -1528.1 551.8 -1547.05 519.65 -1556.2 481.25 -1565.4 443.35 -1565.4 398.6 -1565.4 361.3 -1558.5 328.6 -1547.05 328.05 -1535.0 328.6 L-1535.55 333.2 -1439.75 402.05 -1495.4 328.6 M-1897.0 325.75 Q-1880.95 325.75 -1864.3 326.3 L-1831.05 406.65 -1837.9 326.3 -1824.7 326.9 -1830.45 402.05 -1801.2 326.9 Q-1787.45 326.9 -1772.5 327.45 L-1828.75 407.8 -1728.35 327.45 -1719.15 327.45 Q-1710.55 364.2 -1710.55 406.65 -1710.55 491.55 -1745.55 551.8 -1781.1 611.45 -1831.05 611.45 -1880.95 611.45 -1916.5 551.8 -1952.1 491.55 -1952.1 406.65 -1952.1 362.45 -1942.35 325.15 L-1921.1 325.15 -1923.4 344.7 -1832.75 410.1 -1897.0 325.75 M-1827.0 413.55 L-1743.25 523.1 -1737.5 477.2 -1827.0 412.95 -1827.6 411.8 -1827.6 412.4 -1828.15 411.8 -1827.6 412.95 -1811.55 590.8 -1774.25 541.5 -1827.0 413.55 M-1827.6 411.8 L-1721.45 445.65 -1742.7 390.0 -1829.3 411.25 -1827.6 411.8 M-1832.75 415.25 L-1891.3 566.15 -1839.05 540.35 -1829.9 407.8 -1831.6 412.95 -1933.15 494.45 -1891.3 499.6 -1832.75 415.25 M-1919.4 434.75 L-1832.75 413.55 -1940.6 379.7 -1919.4 434.75 M-1434.0 405.5 L-1417.35 593.7 -1377.2 540.9 -1433.4 406.05 -1346.2 519.1 -1344.5 521.4 -1343.9 517.95 -1338.75 473.2 -1434.0 404.9 -1434.55 404.35 -1434.0 405.5 M-1438.6 406.65 L-1501.15 567.3 -1446.6 539.75 -1436.3 399.75 -1437.6 404.3 -1437.95 405.4 -1438.05 405.55 -1437.95 405.4 -1438.0 405.5 -1438.05 405.55 -1545.9 491.0 -1501.15 496.7 -1438.6 406.65 M-1530.95 428.45 L-1439.75 406.05 -1553.35 369.9 -1530.95 428.45 M-1435.7 403.2 L-1321.55 439.9 -1343.9 380.8 -1435.7 403.2 M-266.4 318.3 Q-223.95 246.0 -163.15 246.0 -103.45 246.0 -61.0 316.55 -60.45 317.15 -59.85 318.3 -17.4 390.6 -17.4 493.3 -17.4 573.05 -43.2 635.0 -50.65 652.2 -59.85 668.3 -102.9 740.55 -163.15 740.55 -223.95 740.55 -266.4 668.3 -275.6 652.2 -283.05 635.0 -309.45 573.05 -309.45 493.3 -309.45 391.15 -267.0 319.45 -266.4 318.85 -266.4 318.3 M-182.65 276.4 L-227.95 337.2 -163.15 493.3 -182.65 276.4 M-88.55 295.35 L-151.1 327.45 -162.55 487.55 -88.55 295.35 M-36.35 395.15 L-87.4 388.3 -160.25 493.85 -36.35 395.15 M-158.55 500.15 L-159.1 499.6 -31.15 539.75 -56.4 472.6 -161.4 498.45 -159.7 499.0 -159.1 500.15 -139.6 715.9 -94.3 655.65 -158.55 500.75 -57.0 633.3 -50.1 578.2 -158.55 500.15 M-164.3 500.75 L-287.05 598.85 -236.0 605.15 -165.4 503.6 -236.0 686.05 -173.45 653.95 -162.0 493.85 -164.3 500.75 M-275.0 418.1 L-165.4 496.7 -268.15 362.45 -275.0 418.1 M-295.65 460.0 L-270.4 527.15 -165.4 501.3 -295.65 460.0" fill="#000000" fill-opacity="0.7490196" fill-rule="evenodd" stroke="none"/>
    <path d="M2091.75 -831.5 L2155.35 -882.3 2328.7 -1020.85 2662.05 -997.9 Q2638.5 -945.75 2608.8 -882.3 2584.95 -831.3 2557.05 -773.0 2500.25 -781.6 2408.45 -792.5 L2328.7 -802.25 Q2316.65 -798.8 2303.45 -790.8 2276.5 -774.7 2271.3 -750.6 2266.15 -725.95 2279.35 -699.0 2286.25 -685.2 2293.7 -676.6 L2508.25 -672.0 Q2412.95 -478.9 2339.05 -343.75 2270.7 -218.8 2220.6 -143.45 2166.0 -61.25 2133.05 -38.0 L1196.65 11.35 1943.15 63.55 2219.1 83.05 2246.65 102.0 Q2273.05 124.95 2268.45 143.3 2263.85 161.1 2254.65 166.25 2239.75 172.0 2225.4 181.15 2212.2 189.75 1659.1 183.45 1353.9 179.45 910.95 170.85 L727.9 167.4 Q627.5 148.45 464.55 139.85 L352.7 137.0 316.55 136.4 309.65 135.85 Q271.2 135.85 237.95 158.8 127.75 156.5 10.15 153.6 -773.05 134.7 -799.4 117.45 -819.5 103.7 -815.5 76.15 -811.45 49.2 -788.5 23.95 L-949.95 21.85 -2591.85 0.4 Q-2592.4 -50.05 -2631.4 -144.15 L-2679.6 -246.3 Q-2617.1 -271.55 -2558.55 -291.05 L-2430.6 -283.0 Q-2286.0 -274.4 -2202.25 -270.95 -2067.4 -265.8 -1680.15 -287.6 L-1751.3 -408.65 Q-1935.45 -414.4 -2097.85 -424.75 -2198.8 -431.6 -2290.05 -445.4 L-2361.2 -458.0 -2343.95 -467.2 Q-2268.25 -501.05 -2173.0 -528.6 -1867.2 -615.2 -1468.4 -600.85 -1295.95 -594.55 -949.95 -570.05 -599.2 -545.3 -70.0 -501.9 L10.15 -495.3 Q638.0 -443.7 1248.65 -388.95 L1506.5 -365.65 1988.45 -749.45 2091.75 -831.5 2098.6 -830.95 2091.75 -831.5 M869.65 -249.75 Q853.55 -233.65 853.0 -210.15 853.0 -187.2 868.5 -170.0 883.4 -153.9 905.2 -153.35 927.6 -152.2 943.65 -168.85 959.15 -184.9 959.7 -207.85 960.85 -231.35 945.35 -248.0 929.85 -265.2 907.5 -265.2 885.7 -265.8 869.65 -249.75 M700.35 -269.25 Q678.55 -269.8 662.5 -253.15 646.45 -237.7 646.45 -214.15 645.85 -190.65 660.8 -174.0 676.25 -157.35 698.65 -156.8 720.45 -156.2 736.5 -172.85 752.6 -188.9 752.6 -211.85 753.75 -235.4 738.25 -252.05 722.75 -268.65 700.35 -269.25 M230.45 -261.8 Q214.4 -245.7 214.4 -222.2 213.85 -199.25 229.3 -182.05 244.25 -165.4 266.6 -164.8 289.0 -164.8 304.5 -180.9 319.95 -196.95 320.55 -219.9 321.7 -243.4 306.2 -260.05 290.7 -276.7 268.35 -277.25 246.55 -277.85 230.45 -261.8 M1175.45 -204.4 Q1176.0 -227.35 1160.5 -244.55 1145.05 -260.65 1122.65 -261.8 1100.85 -261.8 1084.8 -245.7 1068.7 -229.65 1068.15 -206.15 1068.15 -183.2 1083.65 -166.55 1098.55 -149.35 1120.35 -148.75 1143.3 -148.75 1158.8 -164.8 1174.85 -180.9 1175.45 -204.4 M15.3 -265.2 Q10.15 -260.05 6.7 -254.3 -0.75 -242.25 -0.75 -226.2 -1.35 -209.0 6.7 -195.25 9.55 -190.65 13.6 -186.05 29.1 -169.4 50.9 -168.85 73.25 -168.25 89.3 -184.9 104.8 -200.95 105.4 -223.9 106.55 -247.45 91.05 -264.1 75.55 -280.7 53.2 -281.3 31.35 -281.85 15.3 -265.2 M528.25 -216.45 Q528.25 -239.4 512.75 -256.6 497.85 -272.7 475.45 -273.85 453.65 -273.85 437.6 -257.75 422.1 -241.7 420.95 -218.2 420.95 -195.25 436.45 -178.6 451.35 -161.35 473.15 -160.8 495.55 -160.8 511.6 -176.85 527.65 -192.95 528.25 -216.45 M1005.05 68.7 L-556.7 4.45 45.7 49.2 1005.05 68.7 M6.7 -446.55 L-75.9 -452.85 -464.85 -482.2 -949.95 -517.95 Q-1435.05 -552.95 -1521.8 -554.95 -1780.55 -561.3 -2013.5 -513.1 -2085.8 -497.6 -2147.75 -479.25 L-2194.2 -463.15 -2151.75 -456.3 Q-2099.0 -447.7 -2049.05 -444.25 -1968.15 -438.5 -1892.45 -441.35 L-1811.55 -461.45 Q-1692.2 -482.7 -1498.25 -486.1 -1390.35 -488.35 -949.95 -468.4 L-464.85 -444.85 -36.35 -422.45 6.7 -420.15 Q617.75 -387.45 1192.65 -354.15 612.6 -400.05 6.7 -446.55 M1196.65 11.35 L667.1 -25.95 Q267.2 -47.2 10.15 -49.5 -108.6 -50.65 -157.95 -46.6 L-490.75 -31.15 Q-708.2 -21.4 -744.35 -6.45 -768.45 3.85 -788.5 23.95 -768.45 3.85 -744.35 -6.45 -708.2 -21.4 -490.75 -31.15 L-157.95 -46.6 Q-108.6 -50.65 10.15 -49.5 267.2 -47.2 667.1 -25.95 L1196.65 11.35 M2345.35 -993.3 L1578.8 -381.1 2367.15 -957.75 2616.7 -976.7 2345.35 -993.3 M-639.9 -238.25 Q-640.5 -214.75 -625.6 -198.1 -610.1 -181.45 -587.7 -180.9 -565.9 -180.3 -549.85 -196.95 -533.75 -213.0 -533.75 -235.95 -532.65 -259.5 -548.1 -276.15 -563.6 -292.75 -586.0 -292.75 -607.8 -293.35 -623.85 -277.25 -639.9 -261.2 -639.9 -238.25 M-416.75 -273.85 Q-432.8 -257.75 -433.35 -234.25 -433.35 -211.3 -417.9 -194.1 -402.95 -177.45 -381.15 -176.85 -358.8 -176.85 -342.7 -192.95 -327.2 -209.0 -326.65 -232.5 -325.5 -255.45 -341.0 -272.1 -357.05 -288.75 -378.85 -289.3 -400.65 -289.9 -416.75 -273.85 M-116.65 -268.1 Q-131.55 -284.75 -153.95 -285.3 -176.35 -285.9 -191.8 -269.25 -207.3 -253.15 -207.9 -230.2 -208.45 -206.7 -193.55 -190.05 -178.05 -173.4 -155.65 -172.85 -133.85 -172.3 -117.8 -188.9 -101.75 -204.4 -101.75 -227.95 -101.15 -251.45 -116.65 -268.1 M-1046.15 -285.3 Q-1061.65 -269.25 -1062.8 -246.3 -1063.35 -222.75 -1047.85 -206.15 -1032.35 -188.9 -1010.0 -188.9 -988.2 -188.35 -972.1 -204.4 -956.05 -220.45 -955.5 -244.0 -955.5 -266.95 -971.0 -284.15 -985.9 -300.2 -1007.7 -301.35 -1030.05 -301.95 -1046.15 -285.3 M-765.0 -200.95 Q-748.95 -216.45 -748.95 -240.0 -748.35 -263.5 -763.85 -280.15 -778.75 -296.8 -801.15 -297.35 -823.5 -297.95 -839.0 -281.3 -855.1 -265.2 -855.1 -242.25 -855.65 -218.75 -840.75 -202.1 -825.25 -185.45 -802.85 -184.9 -781.05 -184.3 -765.0 -200.95" fill="#ffffff" fill-opacity="0.0" fill-rule="evenodd" stroke="none"/>
    <path d="M6.7 -446.55 Q612.6 -400.05 1192.65 -354.15 617.75 -387.45 6.7 -420.15 L-36.35 -422.45 -464.85 -444.85 -949.95 -468.4 Q-1390.35 -488.35 -1498.25 -486.1 -1692.2 -482.7 -1811.55 -461.45 L-1892.45 -441.35 Q-1968.15 -438.5 -2049.05 -444.25 -2099.0 -447.7 -2151.75 -456.3 L-2194.2 -463.15 -2147.75 -479.25 Q-2085.8 -497.6 -2013.5 -513.1 -1780.55 -561.3 -1521.8 -554.95 -1435.05 -552.95 -949.95 -517.95 L-464.85 -482.2 -75.9 -452.85 6.7 -446.55 M1005.05 68.7 L45.7 49.2 -556.7 4.45 1005.05 68.7 M2345.35 -993.3 L2616.7 -976.7 2367.15 -957.75 1578.8 -381.1 2345.35 -993.3" fill="#ffffff" fill-opacity="0.2" fill-rule="evenodd" stroke="none"/>
    <path d="M1174.85 439.9 Q1073.9 478.95 959.7 515.65 730.8 589.65 664.8 578.2 617.75 570.15 593.65 546.65 587.35 540.35 582.75 533.45 571.3 516.8 563.8 485.25 558.1 462.3 554.05 431.9 546.05 365.35 516.75 307.4 L514.2 302.6 Q509.05 293.05 503.55 283.85 479.5 243.7 443.9 208.1 L441.1 205.35 Q415.95 181.15 388.25 161.1 L380.8 155.9 352.7 137.0 464.55 139.85 Q627.5 148.45 727.9 167.4 735.35 168.55 742.85 170.25 895.45 201.8 1019.95 262.05 1054.4 278.7 1080.75 295.35 1173.7 353.3 1175.45 410.65 1176.0 426.15 1174.85 439.9 M316.55 136.4 Q353.8 138.15 385.4 161.1 408.3 177.85 428.7 205.35 438.9 219.15 448.5 235.65 457.1 250.0 464.55 266.05 473.75 286.15 481.2 307.95 505.85 382.55 505.85 476.05 505.85 491.0 505.3 505.9 503.0 554.1 493.8 597.15 479.5 662.55 448.5 716.45 408.35 786.45 356.1 807.1 340.05 812.85 324.0 815.15 L309.65 815.75 Q229.9 815.75 173.1 719.9 172.5 718.2 171.35 716.45 143.15 667.3 128.95 608.55 124.1 588.5 120.9 567.3 114.0 524.25 114.0 476.05 114.0 404.65 128.95 343.9 132.75 328.45 137.5 313.7 150.7 271.8 171.35 235.65 180.85 219.2 191.1 205.35 196.9 197.45 202.95 190.35 196.9 197.45 191.1 205.35 180.85 219.2 171.35 235.65 150.7 271.8 137.5 313.7 132.75 328.45 128.95 343.9 114.0 404.65 114.0 476.05 114.0 524.25 120.9 567.3 101.95 556.95 91.6 540.9 73.25 514.5 65.25 445.1 56.6 374.5 23.35 315.4 L21.25 311.85 Q14.2 300.0 6.7 289.0 -12.8 260.35 -39.2 233.95 L-43.0 230.2 Q-69.45 204.4 -99.45 184.6 L-125.85 166.25 -19.7 169.1 6.7 170.85 Q122.6 177.7 202.95 190.35 219.55 170.85 237.95 158.8 271.2 135.85 309.65 135.85 L316.55 136.4 M428.4 309.1 Q425.55 303.35 422.1 297.65 376.75 221.3 312.5 221.3 248.85 221.3 203.5 297.65 198.9 305.1 195.45 312.55 158.15 384.85 158.15 482.4 158.15 536.9 169.65 583.35 181.1 629.85 203.5 668.3 215.0 687.8 227.6 702.15 264.9 744.6 312.5 744.6 376.75 744.6 422.1 668.3 435.85 644.75 445.65 618.35 462.25 573.05 466.3 518.55 467.45 500.75 467.45 482.4 467.45 381.95 428.4 309.1 M447.35 379.1 L315.95 483.55 393.4 371.65 447.35 379.1 M391.7 273.55 L313.1 476.65 325.7 307.95 391.7 273.55 M292.45 253.45 L312.5 482.4 244.25 317.7 292.45 253.45 M311.95 490.4 L310.8 492.7 236.2 601.15 181.7 594.85 310.2 491.55 311.95 490.4 314.25 483.55 302.2 653.35 236.2 686.65 310.8 492.7 313.1 489.25 311.95 490.4 M318.25 491.55 L317.7 489.85 432.45 572.45 425.55 626.95 422.65 628.1 318.25 491.55 385.4 654.5 337.75 718.2 317.1 490.4 318.25 491.55 M194.9 403.2 L201.8 344.7 310.2 486.4 194.9 403.2 M199.5 518.55 L172.5 447.95 310.2 491.55 199.5 518.55 M-159.1 165.65 Q-99.5 168.5 -53.95 230.2 -44.25 243.35 -35.2 259.2 -19.7 285.6 -8.8 316.0 0.4 340.65 6.7 367.65 19.35 422.7 19.35 486.95 19.35 550.65 6.7 605.75 3.25 620.65 -0.75 635.0 -13.95 677.45 -35.2 714.2 -73.05 780.15 -122.4 800.25 -137.3 806.0 -152.8 807.7 L-166.0 808.25 Q-242.9 808.25 -296.8 714.2 -318.05 677.45 -330.65 635.0 -351.3 567.85 -351.3 486.95 -351.3 394.0 -324.95 320.0 -313.45 287.9 -296.8 259.2 -287.75 243.35 -278.0 230.2 -229.95 165.1 -166.0 165.1 L-159.1 165.65 M425.55 461.15 L453.1 532.3 314.8 488.1 425.55 461.15 M-1827.0 412.95 L-1737.5 477.2 -1743.25 523.1 -1827.0 413.55 -1774.25 541.5 -1811.55 590.8 -1827.6 412.95 -1827.0 413.55 -1827.0 412.95 M-1827.6 411.8 L-1829.3 411.25 -1742.7 390.0 -1721.45 445.65 -1827.6 411.8 M-1832.75 415.25 L-1830.45 411.8 -1831.6 412.95 -1832.75 415.25 -1891.3 499.6 -1933.15 494.45 -1831.6 412.95 -1829.9 407.8 -1839.05 540.35 -1891.3 566.15 -1832.75 415.25 M-1919.4 434.75 L-1940.6 379.7 -1832.75 413.55 -1919.4 434.75 M-1434.0 405.5 L-1433.4 406.05 -1377.2 540.9 -1417.35 593.7 -1434.0 405.5 M-1433.4 406.05 L-1434.0 404.9 -1338.75 473.2 -1343.9 517.95 -1346.2 519.1 -1433.4 406.05 M-1437.6 404.3 L-1436.3 399.75 -1446.6 539.75 -1501.15 567.3 -1438.6 406.65 -1501.15 496.7 -1545.9 491.0 -1438.05 405.55 -1438.45 406.4 -1438.6 406.65 -1438.45 406.4 -1438.0 405.5 -1437.95 405.4 -1437.6 404.3 M-1435.7 403.2 L-1343.9 380.8 -1321.55 439.9 -1435.7 403.2 M-1530.95 428.45 L-1553.35 369.9 -1439.75 406.05 -1530.95 428.45 M-266.4 318.3 Q-266.4 318.85 -267.0 319.45 -309.45 391.15 -309.45 493.3 -309.45 573.05 -283.05 635.0 -275.6 652.2 -266.4 668.3 -223.95 740.55 -163.15 740.55 -102.9 740.55 -59.85 668.3 -50.65 652.2 -43.2 635.0 -17.4 573.05 -17.4 493.3 -17.4 390.6 -59.85 318.3 -60.45 317.15 -61.0 316.55 -103.45 246.0 -163.15 246.0 -223.95 246.0 -266.4 318.3 M-182.65 276.4 L-163.15 493.3 -227.95 337.2 -182.65 276.4 M-88.55 295.35 L-162.55 487.55 -151.1 327.45 -88.55 295.35 M-36.35 395.15 L-160.25 493.85 -87.4 388.3 -36.35 395.15 M-158.55 500.75 L-158.55 500.15 -50.1 578.2 -57.0 633.3 -158.55 500.75 -94.3 655.65 -139.6 715.9 -159.1 500.15 -158.55 500.75 M-159.7 499.0 L-161.4 498.45 -56.4 472.6 -31.15 539.75 -159.1 499.6 -159.7 499.0 M-164.3 500.75 L-165.4 503.6 -236.0 605.15 -287.05 598.85 -164.3 500.75 -162.0 493.85 -173.45 653.95 -236.0 686.05 -165.4 503.6 -162.55 499.0 -164.3 500.75 M-275.0 418.1 L-268.15 362.45 -165.4 496.7 -275.0 418.1 M-295.65 460.0 L-165.4 501.3 -270.4 527.15 -295.65 460.0" fill="#000000" fill-opacity="0.101960786" fill-rule="evenodd" stroke="none"/>
    <path d="M881.1 -237.1 Q869.65 -225.65 869.05 -209.55 868.5 -193.5 879.4 -182.05 890.3 -170.0 905.8 -170.0 920.7 -170.0 932.15 -180.9 943.05 -192.35 943.65 -207.85 943.65 -224.5 932.75 -235.95 922.4 -248.0 906.9 -248.0 892.0 -248.0 881.1 -237.1 M869.65 -249.75 Q885.7 -265.8 907.5 -265.2 929.85 -265.2 945.35 -248.0 960.85 -231.35 959.7 -207.85 959.15 -184.9 943.65 -168.85 927.6 -152.2 905.2 -153.35 883.4 -153.9 868.5 -170.0 853.0 -187.2 853.0 -210.15 853.55 -233.65 869.65 -249.75 M673.4 -241.15 Q662.5 -229.65 661.95 -213.6 661.95 -197.5 672.85 -185.45 683.15 -174.0 698.65 -174.0 714.15 -173.4 725.05 -184.9 735.95 -195.8 736.5 -211.85 737.1 -227.95 726.2 -240.0 715.3 -251.45 700.35 -252.05 684.9 -252.05 673.4 -241.15 M700.35 -269.25 Q722.75 -268.65 738.25 -252.05 753.75 -235.4 752.6 -211.85 752.6 -188.9 736.5 -172.85 720.45 -156.2 698.65 -156.8 676.25 -157.35 660.8 -174.0 645.85 -190.65 646.45 -214.15 646.45 -237.7 662.5 -253.15 678.55 -269.8 700.35 -269.25 M1158.8 -204.4 Q1158.8 -220.45 1148.45 -231.95 1137.55 -243.4 1122.1 -244.0 1107.15 -244.55 1096.25 -233.1 1084.8 -221.6 1084.8 -205.55 1084.2 -188.9 1095.1 -178.0 1105.45 -166.55 1120.95 -165.95 1135.85 -165.4 1147.35 -176.85 1158.8 -188.35 1158.8 -204.4 M1175.45 -204.4 Q1174.85 -180.9 1158.8 -164.8 1143.3 -148.75 1120.35 -148.75 1098.55 -149.35 1083.65 -166.55 1068.15 -183.2 1068.15 -206.15 1068.7 -229.65 1084.8 -245.7 1100.85 -261.8 1122.65 -261.8 1145.05 -260.65 1160.5 -244.55 1176.0 -227.35 1175.45 -204.4 M230.45 -261.8 Q246.55 -277.85 268.35 -277.25 290.7 -276.7 306.2 -260.05 321.7 -243.4 320.55 -219.9 319.95 -196.95 304.5 -180.9 289.0 -164.8 266.6 -164.8 244.25 -165.4 229.3 -182.05 213.85 -199.25 214.4 -222.2 214.4 -245.7 230.45 -261.8 M79.0 -252.05 Q68.1 -263.5 52.6 -263.5 37.1 -264.1 26.2 -253.15 15.3 -241.7 14.75 -225.65 14.75 -209.55 25.05 -197.5 35.95 -186.05 50.9 -185.45 66.95 -185.45 77.85 -196.95 88.75 -207.85 89.3 -223.9 89.3 -240.55 79.0 -252.05 M241.35 -249.15 Q230.45 -237.7 229.9 -221.6 229.9 -205.0 240.2 -194.1 251.1 -182.05 266.6 -182.05 282.1 -181.45 293.0 -192.35 303.9 -203.85 304.5 -219.9 304.5 -235.95 294.15 -248.0 283.25 -259.5 268.35 -260.05 252.25 -260.05 241.35 -249.15 M15.3 -265.2 Q31.35 -281.85 53.2 -281.3 75.55 -280.7 91.05 -264.1 106.55 -247.45 105.4 -223.9 104.8 -200.95 89.3 -184.9 73.25 -168.25 50.9 -168.85 29.1 -169.4 13.6 -186.05 9.55 -190.65 6.7 -195.25 -1.35 -209.0 -0.75 -226.2 -0.75 -242.25 6.7 -254.3 10.15 -260.05 15.3 -265.2 M511.6 -216.45 Q511.6 -232.5 501.3 -244.0 490.4 -255.45 474.9 -256.05 459.95 -256.6 448.5 -245.15 438.15 -233.65 437.6 -217.6 437.0 -200.95 447.9 -190.05 458.25 -178.6 473.75 -178.0 488.65 -177.45 500.15 -188.9 511.05 -200.4 511.6 -216.45 M528.25 -216.45 Q527.65 -192.95 511.6 -176.85 495.55 -160.8 473.15 -160.8 451.35 -161.35 436.45 -178.6 420.95 -195.25 420.95 -218.2 422.1 -241.7 437.6 -257.75 453.65 -273.85 475.45 -273.85 497.85 -272.7 512.75 -256.6 528.25 -239.4 528.25 -216.45 M-417.3 -233.65 Q-417.3 -217.05 -406.95 -206.15 -396.05 -194.1 -380.6 -194.1 -365.65 -193.5 -354.2 -204.4 -343.3 -215.9 -342.7 -232.5 -342.7 -248.6 -353.05 -260.05 -363.95 -271.55 -379.45 -272.1 -394.35 -272.1 -405.25 -261.2 -416.75 -249.75 -417.3 -233.65 M-416.75 -273.85 Q-400.65 -289.9 -378.85 -289.3 -357.05 -288.75 -341.0 -272.1 -325.5 -255.45 -326.65 -232.5 -327.2 -209.0 -342.7 -192.95 -358.8 -176.85 -381.15 -176.85 -402.95 -177.45 -417.9 -194.1 -433.35 -211.3 -433.35 -234.25 -432.8 -257.75 -416.75 -273.85 M-639.9 -238.25 Q-639.9 -261.2 -623.85 -277.25 -607.8 -293.35 -586.0 -292.75 -563.6 -292.75 -548.1 -276.15 -532.65 -259.5 -533.75 -235.95 -533.75 -213.0 -549.85 -196.95 -565.9 -180.3 -587.7 -180.9 -610.1 -181.45 -625.6 -198.1 -640.5 -214.75 -639.9 -238.25 M-128.15 -256.05 Q-139.05 -267.5 -153.95 -267.5 -169.45 -268.1 -180.9 -256.6 -191.8 -245.7 -191.8 -229.1 -192.4 -213.0 -181.5 -201.55 -171.15 -190.05 -155.65 -189.5 -140.2 -189.5 -129.3 -200.95 -118.4 -211.85 -117.8 -227.95 -117.25 -244.55 -128.15 -256.05 M-623.85 -237.7 Q-624.45 -221.6 -613.55 -209.55 -603.2 -198.1 -587.7 -197.5 -572.2 -197.5 -561.3 -208.4 -550.4 -219.9 -549.85 -235.95 -549.25 -252.05 -560.15 -263.5 -571.05 -275.55 -586.0 -275.55 -601.5 -276.15 -612.95 -265.2 -623.85 -253.75 -623.85 -237.7 M-116.65 -268.1 Q-101.15 -251.45 -101.75 -227.95 -101.75 -204.4 -117.8 -188.9 -133.85 -172.3 -155.65 -172.85 -178.05 -173.4 -193.55 -190.05 -208.45 -206.7 -207.9 -230.2 -207.3 -253.15 -191.8 -269.25 -176.35 -285.9 -153.95 -285.3 -131.55 -284.75 -116.65 -268.1 M-982.45 -271.55 Q-993.35 -283.0 -1008.85 -283.6 -1023.75 -284.15 -1035.25 -272.7 -1046.15 -261.2 -1046.15 -245.15 -1046.7 -229.1 -1035.8 -217.6 -1024.9 -206.15 -1010.0 -205.55 -995.05 -205.0 -983.6 -216.45 -972.7 -227.95 -972.1 -244.0 -971.55 -260.05 -982.45 -271.55 M-1046.15 -285.3 Q-1030.05 -301.95 -1007.7 -301.35 -985.9 -300.2 -971.0 -284.15 -955.5 -266.95 -955.5 -244.0 -956.05 -220.45 -972.1 -204.4 -988.2 -188.35 -1010.0 -188.9 -1032.35 -188.9 -1047.85 -206.15 -1063.35 -222.75 -1062.8 -246.3 -1061.65 -269.25 -1046.15 -285.3 M-775.35 -267.5 Q-786.25 -279.0 -801.15 -279.55 -816.65 -280.15 -828.1 -268.65 -839.0 -257.75 -839.6 -241.15 -839.6 -225.05 -828.7 -213.6 -818.35 -202.1 -802.85 -201.55 -787.35 -200.95 -776.45 -212.45 -765.55 -223.35 -765.0 -240.0 -765.0 -256.05 -775.35 -267.5 M-765.0 -200.95 Q-781.05 -184.3 -802.85 -184.9 -825.25 -185.45 -840.75 -202.1 -855.65 -218.75 -855.1 -242.25 -855.1 -265.2 -839.0 -281.3 -823.5 -297.95 -801.15 -297.35 -778.75 -296.8 -763.85 -280.15 -748.35 -263.5 -748.95 -240.0 -748.95 -216.45 -765.0 -200.95" fill="#ffffff" fill-opacity="0.09803922" fill-rule="evenodd" stroke="none"/>
    <path d="M2557.05 -773.0 Q2584.95 -831.3 2608.8 -882.3 2638.5 -945.75 2662.05 -997.9 L2328.7 -1020.85 2155.35 -882.3 2091.75 -831.5 2098.6 -830.95 M237.95 158.8 Q127.75 156.5 10.15 153.6 -773.05 134.7 -799.4 117.45 -819.5 103.7 -815.5 76.15 -811.45 49.2 -788.5 23.95 -768.45 3.85 -744.35 -6.45 -708.2 -21.4 -490.75 -31.15 L-157.95 -46.6 Q-108.6 -50.65 10.15 -49.5 267.2 -47.2 667.1 -25.95 L1196.65 11.35 1943.15 63.55 2219.1 83.05 2246.65 102.0 Q2273.05 124.95 2268.45 143.3 2263.85 161.1 2254.65 166.25 2239.75 172.0 2225.4 181.15 2212.2 189.75 1659.1 183.45 1353.9 179.45 910.95 170.85 L727.9 167.4 M-2679.6 -246.3 Q-2617.1 -271.55 -2558.55 -291.05 L-2399.65 -439.05 -2361.2 -458.0 -2343.95 -467.2 Q-2268.25 -501.05 -2173.0 -528.6 -1867.2 -615.2 -1468.4 -600.85 -1295.95 -594.55 -949.95 -570.05 -599.2 -545.3 -70.0 -501.9 L10.15 -495.3 Q638.0 -443.7 1248.65 -388.95 L1506.5 -365.65 1988.45 -749.45 2091.75 -831.5 M2133.05 -38.0 Q2166.0 -61.25 2220.6 -143.45 2270.7 -218.8 2339.05 -343.75 2412.95 -478.9 2508.25 -672.0" fill="none" stroke="#000000" stroke-linecap="butt" stroke-linejoin="miter-clip" stroke-miterlimit="10.0" stroke-width="1.0"/>
    <path d="M881.1 -237.1 Q892.0 -248.0 906.9 -248.0 922.4 -248.0 932.75 -235.95 943.65 -224.5 943.65 -207.85 943.05 -192.35 932.15 -180.9 920.7 -170.0 905.8 -170.0 890.3 -170.0 879.4 -182.05 868.5 -193.5 869.05 -209.55 869.65 -225.65 881.1 -237.1 M673.4 -241.15 Q684.9 -252.05 700.35 -252.05 715.3 -251.45 726.2 -240.0 737.1 -227.95 736.5 -211.85 735.95 -195.8 725.05 -184.9 714.15 -173.4 698.65 -174.0 683.15 -174.0 672.85 -185.45 661.95 -197.5 661.95 -213.6 662.5 -229.65 673.4 -241.15 M1158.8 -204.4 Q1158.8 -188.35 1147.35 -176.85 1135.85 -165.4 1120.95 -165.95 1105.45 -166.55 1095.1 -178.0 1084.2 -188.9 1084.8 -205.55 1084.8 -221.6 1096.25 -233.1 1107.15 -244.55 1122.1 -244.0 1137.55 -243.4 1148.45 -231.95 1158.8 -220.45 1158.8 -204.4 M241.35 -249.15 Q252.25 -260.05 268.35 -260.05 283.25 -259.5 294.15 -248.0 304.5 -235.95 304.5 -219.9 303.9 -203.85 293.0 -192.35 282.1 -181.45 266.6 -182.05 251.1 -182.05 240.2 -194.1 229.9 -205.0 229.9 -221.6 230.45 -237.7 241.35 -249.15 M79.0 -252.05 Q89.3 -240.55 89.3 -223.9 88.75 -207.85 77.85 -196.95 66.95 -185.45 50.9 -185.45 35.95 -186.05 25.05 -197.5 14.75 -209.55 14.75 -225.65 15.3 -241.7 26.2 -253.15 37.1 -264.1 52.6 -263.5 68.1 -263.5 79.0 -252.05 M511.6 -216.45 Q511.05 -200.4 500.15 -188.9 488.65 -177.45 473.75 -178.0 458.25 -178.6 447.9 -190.05 437.0 -200.95 437.6 -217.6 438.15 -233.65 448.5 -245.15 459.95 -256.6 474.9 -256.05 490.4 -255.45 501.3 -244.0 511.6 -232.5 511.6 -216.45 M317.7 489.85 L317.1 489.85 316.55 489.25 317.1 490.4 318.25 491.55 422.65 628.1 424.95 631.0 425.55 626.95 432.45 572.45 317.7 489.85 M194.9 403.2 L201.8 344.7 310.2 486.4 194.9 403.2 M-1535.0 328.6 L-1535.55 333.2 -1439.75 402.05 -1495.4 328.6 M-1897.0 325.75 L-1832.75 410.1 -1923.4 344.7 -1921.1 325.15 M-1827.0 412.95 L-1737.5 477.2 -1743.25 523.1 -1827.0 413.55 -1827.6 412.95 -1828.15 411.8 -1827.6 412.4 -1827.0 412.95 M-1433.4 406.05 L-1434.0 405.5 -1434.55 404.35 -1434.0 404.9 -1338.75 473.2 -1343.9 517.95 -1344.5 521.4 -1346.2 519.1 -1433.4 406.05 M-417.3 -233.65 Q-416.75 -249.75 -405.25 -261.2 -394.35 -272.1 -379.45 -272.1 -363.95 -271.55 -353.05 -260.05 -342.7 -248.6 -342.7 -232.5 -343.3 -215.9 -354.2 -204.4 -365.65 -193.5 -380.6 -194.1 -396.05 -194.1 -406.95 -206.15 -417.3 -217.05 -417.3 -233.65 M-623.85 -237.7 Q-623.85 -253.75 -612.95 -265.2 -601.5 -276.15 -586.0 -275.55 -571.05 -275.55 -560.15 -263.5 -549.25 -252.05 -549.85 -235.95 -550.4 -219.9 -561.3 -208.4 -572.2 -197.5 -587.7 -197.5 -603.2 -198.1 -613.55 -209.55 -624.45 -221.6 -623.85 -237.7 M-128.15 -256.05 Q-117.25 -244.55 -117.8 -227.95 -118.4 -211.85 -129.3 -200.95 -140.2 -189.5 -155.65 -189.5 -171.15 -190.05 -181.5 -201.55 -192.4 -213.0 -191.8 -229.1 -191.8 -245.7 -180.9 -256.6 -169.45 -268.1 -153.95 -267.5 -139.05 -267.5 -128.15 -256.05 M-982.45 -271.55 Q-971.55 -260.05 -972.1 -244.0 -972.7 -227.95 -983.6 -216.45 -995.05 -205.0 -1010.0 -205.55 -1024.9 -206.15 -1035.8 -217.6 -1046.7 -229.1 -1046.15 -245.15 -1046.15 -261.2 -1035.25 -272.7 -1023.75 -284.15 -1008.85 -283.6 -993.35 -283.0 -982.45 -271.55 M-775.35 -267.5 Q-765.0 -256.05 -765.0 -240.0 -765.55 -223.35 -776.45 -212.45 -787.35 -200.95 -802.85 -201.55 -818.35 -202.1 -828.7 -213.6 -839.6 -225.05 -839.6 -241.15 -839.0 -257.75 -828.1 -268.65 -816.65 -280.15 -801.15 -279.55 -786.25 -279.0 -775.35 -267.5 M-158.55 500.15 L-159.1 499.6 M-159.1 500.15 L-158.55 500.75 -57.0 633.3 -50.1 578.2 -158.55 500.15 M-159.1 500.15 L-159.7 499.0 M-275.0 418.1 L-268.15 362.45 -165.4 496.7 -275.0 418.1" fill="none" stroke="#000000" stroke-linecap="butt" stroke-linejoin="miter-clip" stroke-miterlimit="10.0" stroke-opacity="0.4" stroke-width="0.6000000000000001"/>
    <path d="M869.65 -249.75 Q885.7 -265.8 907.5 -265.2 929.85 -265.2 945.35 -248.0 960.85 -231.35 959.7 -207.85 959.15 -184.9 943.65 -168.85 927.6 -152.2 905.2 -153.35 883.4 -153.9 868.5 -170.0 853.0 -187.2 853.0 -210.15 853.55 -233.65 869.65 -249.75 M700.35 -269.25 Q722.75 -268.65 738.25 -252.05 753.75 -235.4 752.6 -211.85 752.6 -188.9 736.5 -172.85 720.45 -156.2 698.65 -156.8 676.25 -157.35 660.8 -174.0 645.85 -190.65 646.45 -214.15 646.45 -237.7 662.5 -253.15 678.55 -269.8 700.35 -269.25 M1175.45 -204.4 Q1174.85 -180.9 1158.8 -164.8 1143.3 -148.75 1120.35 -148.75 1098.55 -149.35 1083.65 -166.55 1068.15 -183.2 1068.15 -206.15 1068.7 -229.65 1084.8 -245.7 1100.85 -261.8 1122.65 -261.8 1145.05 -260.65 1160.5 -244.55 1176.0 -227.35 1175.45 -204.4 M230.45 -261.8 Q246.55 -277.85 268.35 -277.25 290.7 -276.7 306.2 -260.05 321.7 -243.4 320.55 -219.9 319.95 -196.95 304.5 -180.9 289.0 -164.8 266.6 -164.8 244.25 -165.4 229.3 -182.05 213.85 -199.25 214.4 -222.2 214.4 -245.7 230.45 -261.8 M15.3 -265.2 Q31.35 -281.85 53.2 -281.3 75.55 -280.7 91.05 -264.1 106.55 -247.45 105.4 -223.9 104.8 -200.95 89.3 -184.9 73.25 -168.25 50.9 -168.85 29.1 -169.4 13.6 -186.05 9.55 -190.65 6.7 -195.25 -1.35 -209.0 -0.75 -226.2 -0.75 -242.25 6.7 -254.3 10.15 -260.05 15.3 -265.2 M528.25 -216.45 Q527.65 -192.95 511.6 -176.85 495.55 -160.8 473.15 -160.8 451.35 -161.35 436.45 -178.6 420.95 -195.25 420.95 -218.2 422.1 -241.7 437.6 -257.75 453.65 -273.85 475.45 -273.85 497.85 -272.7 512.75 -256.6 528.25 -239.4 528.25 -216.45 M-416.75 -273.85 Q-400.65 -289.9 -378.85 -289.3 -357.05 -288.75 -341.0 -272.1 -325.5 -255.45 -326.65 -232.5 -327.2 -209.0 -342.7 -192.95 -358.8 -176.85 -381.15 -176.85 -402.95 -177.45 -417.9 -194.1 -433.35 -211.3 -433.35 -234.25 -432.8 -257.75 -416.75 -273.85 M-639.9 -238.25 Q-639.9 -261.2 -623.85 -277.25 -607.8 -293.35 -586.0 -292.75 -563.6 -292.75 -548.1 -276.15 -532.65 -259.5 -533.75 -235.95 -533.75 -213.0 -549.85 -196.95 -565.9 -180.3 -587.7 -180.9 -610.1 -181.45 -625.6 -198.1 -640.5 -214.75 -639.9 -238.25 M-116.65 -268.1 Q-101.15 -251.45 -101.75 -227.95 -101.75 -204.4 -117.8 -188.9 -133.85 -172.3 -155.65 -172.85 -178.05 -173.4 -193.55 -190.05 -208.45 -206.7 -207.9 -230.2 -207.3 -253.15 -191.8 -269.25 -176.35 -285.9 -153.95 -285.3 -131.55 -284.75 -116.65 -268.1 M-1046.15 -285.3 Q-1030.05 -301.95 -1007.7 -301.35 -985.9 -300.2 -971.0 -284.15 -955.5 -266.95 -955.5 -244.0 -956.05 -220.45 -972.1 -204.4 -988.2 -188.35 -1010.0 -188.9 -1032.35 -188.9 -1047.85 -206.15 -1063.35 -222.75 -1062.8 -246.3 -1061.65 -269.25 -1046.15 -285.3 M-765.0 -200.95 Q-781.05 -184.3 -802.85 -184.9 -825.25 -185.45 -840.75 -202.1 -855.65 -218.75 -855.1 -242.25 -855.1 -265.2 -839.0 -281.3 -823.5 -297.95 -801.15 -297.35 -778.75 -296.8 -763.85 -280.15 -748.35 -263.5 -748.95 -240.0 -748.95 -216.45 -765.0 -200.95" fill="none" stroke="#000000" stroke-linecap="butt" stroke-linejoin="miter-clip" stroke-miterlimit="10.0" stroke-opacity="0.4" stroke-width="0.9"/>
    <path d="M1174.85 439.9 Q1176.0 426.15 1175.45 410.65 1173.7 353.3 1080.75 295.35 1054.4 278.7 1019.95 262.05 895.45 201.8 742.85 170.25 735.35 168.55 727.9 167.4 627.5 148.45 464.55 139.85 L352.7 137.0 316.55 136.4 Q353.8 138.15 385.4 161.1 408.3 177.85 428.7 205.35 438.9 219.15 448.5 235.65 457.1 250.0 464.55 266.05 473.75 286.15 481.2 307.95 505.85 382.55 505.85 476.05 505.85 491.0 505.3 505.9 503.0 554.1 493.8 597.15 479.5 662.55 448.5 716.45 408.35 786.45 356.1 807.1 L524.8 765.25 Q755.45 699.85 904.05 637.85 1085.35 562.15 1126.65 530.0 1168.55 497.3 1174.85 439.9 M237.95 158.8 Q219.55 170.85 202.95 190.35 196.9 197.45 191.1 205.35 180.85 219.2 171.35 235.65 150.7 271.8 137.5 313.7 132.75 328.45 128.95 343.9 114.0 404.65 114.0 476.05 114.0 524.25 120.9 567.3 124.1 588.5 128.95 608.55 143.15 667.3 171.35 716.45 M173.1 719.9 Q229.9 815.75 309.65 815.75 L324.0 815.15 Q340.05 812.85 356.1 807.1 M316.55 136.4 L309.65 135.85 Q271.2 135.85 237.95 158.8 M-125.85 166.25 L-19.7 169.1 6.7 170.85 Q122.6 177.7 202.95 190.35 M-122.4 800.25 L37.1 760.1 Q84.9 746.8 128.95 733.55 L173.1 719.9 M-122.4 800.25 Q-73.05 780.15 -35.2 714.2 -13.95 677.45 -0.75 635.0 3.25 620.65 6.7 605.75 19.35 550.65 19.35 486.95 19.35 422.7 6.7 367.65 0.4 340.65 -8.8 316.0 -19.7 285.6 -35.2 259.2 -44.25 243.35 -53.95 230.2 -99.5 168.5 -159.1 165.65 L-166.0 165.1 Q-229.95 165.1 -278.0 230.2 -287.75 243.35 -296.8 259.2 -313.45 287.9 -324.95 320.0 -351.3 394.0 -351.3 486.95 -351.3 567.85 -330.65 635.0 -318.05 677.45 -296.8 714.2 -242.9 808.25 -166.0 808.25 L-152.8 807.7 Q-137.3 806.0 -122.4 800.25 M-1796.6 660.25 Q-1809.25 665.4 -1822.45 666.55 L-1833.35 667.15 Q-1874.05 667.15 -1907.35 635.0 -1925.7 617.2 -1941.75 589.65 -1986.5 511.65 -1986.5 401.5 -1986.5 360.75 -1980.2 324.0 M-1596.35 468.05 Q-1602.1 432.45 -1602.1 392.85 -1602.1 359.0 -1598.1 328.6 M-1596.35 468.05 Q-1592.6 493.2 -1586.1 516.4 -1574.6 557.2 -1554.5 591.95 L-1553.35 594.25 Q-1539.0 618.35 -1522.95 635.0 -1486.2 674.0 -1439.75 674.0 L-1428.85 673.45 Q-1415.05 671.7 -1401.3 666.55 -1377.75 656.8 -1357.1 635.0 -1340.45 617.2 -1325.55 591.95 -1303.55 554.3 -1291.95 509.15 -1289.95 501.35 -1288.25 493.3 -1280.25 457.15 -1278.5 416.95 -1277.95 404.9 -1277.95 392.85 -1277.95 359.0 -1281.95 328.05 M-724.85 363.6 Q-723.7 352.15 -724.25 339.5 -724.25 332.05 -726.55 324.6 M-1796.6 660.25 Q-1777.1 652.2 -1758.75 635.0 -1740.95 617.2 -1724.9 589.65 -1680.15 511.65 -1680.15 401.5 -1680.15 362.45 -1685.3 328.05 M-1553.35 594.25 L-1586.1 604.4 Q-1621.9 615.25 -1660.65 626.1 L-1665.8 627.55 -1796.6 660.25 M-1401.3 666.55 L-1262.45 632.15 Q-1072.45 578.5 -949.95 527.15 L-948.6 526.55 Q-798.85 464.6 -764.4 437.65 -730.0 410.65 -724.85 363.6 M-159.1 165.65 L-125.85 166.25" fill="none" stroke="#000000" stroke-linecap="butt" stroke-linejoin="miter-clip" stroke-miterlimit="10.0" stroke-width="0.8"/>
    <path d="M428.4 309.1 Q467.45 381.95 467.45 482.4 467.45 500.75 466.3 518.55 462.25 573.05 445.65 618.35 435.85 644.75 422.1 668.3 376.75 744.6 312.5 744.6 264.9 744.6 227.6 702.15 215.0 687.8 203.5 668.3 181.1 629.85 169.65 583.35 158.15 536.9 158.15 482.4 158.15 384.85 195.45 312.55 198.9 305.1 203.5 297.65 248.85 221.3 312.5 221.3 376.75 221.3 422.1 297.65 425.55 303.35 428.4 309.1 M292.45 253.45 L312.5 482.4 244.25 317.7 292.45 253.45 M318.25 491.55 L317.7 489.85 317.1 489.25 317.1 489.85 317.1 490.4 337.75 718.2 385.4 654.5 318.25 491.55 M-1466.7 328.6 L-1437.45 398.6 -1443.75 328.6 M-1316.4 328.05 Q-1310.05 361.3 -1310.05 398.6 -1310.05 413.55 -1311.2 427.85 -1314.65 473.2 -1327.85 511.05 -1335.9 532.85 -1347.35 551.8 -1384.65 615.5 -1437.45 615.5 L-1441.55 615.4 Q-1467.55 614.2 -1489.6 597.75 -1499.5 590.35 -1508.6 579.9 -1518.9 567.85 -1528.1 551.8 -1547.05 519.65 -1556.2 481.25 -1565.4 443.35 -1565.4 398.6 -1565.4 361.3 -1558.5 328.6 M-1942.35 325.15 Q-1952.1 362.45 -1952.1 406.65 -1952.1 491.55 -1916.5 551.8 -1880.95 611.45 -1831.05 611.45 -1781.1 611.45 -1745.55 551.8 -1710.55 491.55 -1710.55 406.65 -1710.55 364.2 -1719.15 327.45 M-1837.9 326.3 L-1831.05 406.65 -1864.3 326.3 M-1827.0 413.55 L-1774.25 541.5 -1811.55 590.8 -1827.6 412.95 -1827.6 412.4 -1827.6 411.8 -1827.0 412.95 -1827.0 413.55 M-1434.0 405.5 L-1417.35 593.7 -1377.2 540.9 -1433.4 406.05 -1434.0 404.9 -1434.0 405.5 M-266.4 318.3 Q-223.95 246.0 -163.15 246.0 -103.45 246.0 -61.0 316.55 -60.45 317.15 -59.85 318.3 -17.4 390.6 -17.4 493.3 -17.4 573.05 -43.2 635.0 -50.65 652.2 -59.85 668.3 -102.9 740.55 -163.15 740.55 -223.95 740.55 -266.4 668.3 -275.6 652.2 -283.05 635.0 -309.45 573.05 -309.45 493.3 -309.45 391.15 -267.0 319.45 -266.4 318.85 -266.4 318.3 M-182.65 276.4 L-163.15 493.3 -227.95 337.2 -182.65 276.4 M-158.55 500.75 L-158.55 500.15 M-159.1 499.6 L-159.1 500.15 -139.6 715.9 -94.3 655.65 -158.55 500.75" fill="none" stroke="#000000" stroke-linecap="butt" stroke-linejoin="miter-clip" stroke-miterlimit="10.0" stroke-opacity="0.4" stroke-width="0.75"/>
    <path d="M447.35 379.1 L315.95 483.55 393.4 371.65 447.35 379.1 M311.95 490.4 L310.2 491.55 181.7 594.85 236.2 601.15 310.8 492.7 313.1 489.25 311.95 490.4 M-1385.8 328.6 L-1435.15 399.75 -1345.05 328.05 M-1728.35 327.45 L-1828.75 407.8 -1772.5 327.45 M-1832.75 415.25 L-1830.45 411.8 -1831.6 412.95 -1933.15 494.45 -1891.3 499.6 -1832.75 415.25 M-1438.6 406.65 L-1501.15 496.7 -1545.9 491.0 -1438.05 405.55 -1437.95 405.4 -1437.6 404.3 M-1438.45 406.4 L-1438.05 405.55 -1438.0 405.5 M-36.35 395.15 L-160.25 493.85 -87.4 388.3 -36.35 395.15 M-164.3 500.75 L-287.05 598.85 -236.0 605.15 -165.4 503.6 -162.55 499.0 -164.3 500.75" fill="none" stroke="#000000" stroke-linecap="butt" stroke-linejoin="miter-clip" stroke-miterlimit="10.0" stroke-opacity="0.4" stroke-width="0.55"/>
    <path d="M391.7 273.55 L313.1 476.65 325.7 307.95 391.7 273.55 M310.8 492.7 L311.95 490.4 314.25 483.55 302.2 653.35 236.2 686.65 310.8 492.7 M-1432.25 328.6 L-1437.45 393.45 -1412.2 328.6 M-1801.2 326.9 L-1830.45 402.05 -1824.7 326.9 M-1831.6 412.95 L-1832.75 415.25 -1891.3 566.15 -1839.05 540.35 -1829.9 407.8 -1831.6 412.95 M-1437.6 404.3 L-1436.3 399.75 -1446.6 539.75 -1501.15 567.3 -1438.6 406.65 -1438.45 406.4 -1438.0 405.5 -1437.95 405.4 M-88.55 295.35 L-162.55 487.55 -151.1 327.45 -88.55 295.35 M-165.4 503.6 L-164.3 500.75 -162.0 493.85 -173.45 653.95 -236.0 686.05 -165.4 503.6" fill="none" stroke="#000000" stroke-linecap="butt" stroke-linejoin="miter-clip" stroke-miterlimit="10.0" stroke-opacity="0.4" stroke-width="0.7000000000000001"/>
    <path d="M199.5 518.55 L310.2 491.55 172.5 447.95 199.5 518.55 M425.55 461.15 L314.8 488.1 453.1 532.3 425.55 461.15 M-1827.6 411.8 L-1829.3 411.25 -1742.7 390.0 -1721.45 445.65 -1827.6 411.8 M-1919.4 434.75 L-1940.6 379.7 -1832.75 413.55 -1919.4 434.75 M-1435.7 403.2 L-1343.9 380.8 -1321.55 439.9 -1435.7 403.2 M-1530.95 428.45 L-1553.35 369.9 -1439.75 406.05 -1530.95 428.45 M-159.7 499.0 L-161.4 498.45 -56.4 472.6 -31.15 539.75 -159.1 499.6 -159.7 499.0 M-295.65 460.0 L-165.4 501.3 -270.4 527.15 -295.65 460.0" fill="none" stroke="#000000" stroke-linecap="butt" stroke-linejoin="miter-clip" stroke-miterlimit="10.0" stroke-opacity="0.4" stroke-width="0.65"/>
    <path d="M171.35 716.45 Q172.5 718.2 173.1 719.9 M422.65 628.1 L425.55 626.95 M-1346.2 519.1 L-1343.9 517.95" fill="none" stroke="#000000" stroke-linecap="butt" stroke-linejoin="miter-clip" stroke-miterlimit="10.0" stroke-opacity="0.4" stroke-width="0.8"/>
    <path d="M-2361.2 -458.0 L-2290.05 -445.4 Q-2198.8 -431.6 -2097.85 -424.75 -1935.45 -414.4 -1751.3 -408.65 L-1680.15 -287.6 Q-2067.4 -265.8 -2202.25 -270.95 -2286.0 -274.4 -2430.6 -283.0 L-2558.55 -291.05" fill="none" stroke="#000000" stroke-linecap="butt" stroke-linejoin="miter-clip" stroke-miterlimit="10.0" stroke-opacity="0.6" stroke-width="1.0"/>
  </g>
</svg>
