<?xml version="1.0" encoding="UTF-8" standalone="no"?>
<svg xmlns:xlink="http://www.w3.org/1999/xlink" height="78.85px" width="43.25px" xmlns="http://www.w3.org/2000/svg">
  <g transform="matrix(1.0, 0.0, 0.0, 1.0, 19.85, 64.4)">
    <path d="M8.3 -24.95 Q7.75 -23.5 6.5 -23.35 L-17.25 -24.65 Q-18.45 -24.45 -18.95 -26.7 -19.45 -29.0 -19.0 -32.35 -17.9 -40.9 -12.55 -46.05 -7.65 -50.8 -0.35 -43.15 3.3 -39.3 5.95 -34.55 9.4 -27.9 8.3 -24.95" fill="#ffffff" fill-opacity="0.0" fill-rule="evenodd" stroke="none"/>
    <path d="M8.3 -24.95 Q9.4 -27.9 5.95 -34.55 3.3 -39.3 -0.35 -43.15 -7.65 -50.8 -12.55 -46.05 -17.9 -40.9 -19.0 -32.35 -19.45 -29.0 -18.95 -26.7 -18.45 -24.45 -17.25 -24.65 L6.5 -23.35 Q7.75 -23.5 8.3 -24.95 Z" fill="none" stroke="#000000" stroke-linecap="butt" stroke-linejoin="miter-clip" stroke-miterlimit="4.0" stroke-opacity="0.4" stroke-width="1.0"/>
    <path d="M3.2 -61.95 Q6.2 -66.5 14.55 -60.4 22.4 -54.7 18.5 -41.35 16.55 -34.65 13.0 -29.1 12.3 -27.15 11.0 -26.15 8.5 -24.2 5.7 -29.1 L5.05 -38.0 Q4.1 -47.75 2.8 -51.8 0.75 -58.25 3.2 -61.95" fill="#ffffff" fill-opacity="0.0" fill-rule="evenodd" stroke="none"/>
    <path d="M3.2 -61.95 Q6.2 -66.5 14.55 -60.4 22.4 -54.7 18.5 -41.35 16.55 -34.65 13.0 -29.1 12.3 -27.15 11.0 -26.15 8.5 -24.2 5.7 -29.1 L5.05 -38.0 Q4.1 -47.75 2.8 -51.8 0.75 -58.25 3.2 -61.95 Z" fill="none" stroke="#000000" stroke-linecap="butt" stroke-linejoin="miter-clip" stroke-miterlimit="4.0" stroke-opacity="0.4" stroke-width="1.0"/>
    <path d="M8.95 -24.65 Q9.95 -23.25 10.15 -21.25 L5.3 -12.75 Q0.35 -3.05 -0.3 3.0 -1.2 11.35 -3.8 13.0 -6.95 14.95 -11.8 6.15 -16.2 -1.85 -7.15 -13.8 -2.6 -19.75 2.8 -24.15 6.9 -27.4 8.95 -24.65" fill="#ffffff" fill-opacity="0.0" fill-rule="evenodd" stroke="none"/>
    <path d="M8.95 -24.65 Q6.9 -27.4 2.8 -24.15 -2.6 -19.75 -7.15 -13.8 -16.2 -1.85 -11.8 6.15 -6.95 14.95 -3.8 13.0 -1.2 11.35 -0.3 3.0 0.35 -3.05 5.3 -12.75 L10.15 -21.25 Q9.95 -23.25 8.95 -24.65 Z" fill="none" stroke="#000000" stroke-linecap="butt" stroke-linejoin="miter-clip" stroke-miterlimit="4.0" stroke-opacity="0.4" stroke-width="1.0"/>
    <path d="M11.0 -29.0 Q13.9 -27.2 14.85 -20.5 15.5 -15.75 19.25 -7.2 21.15 -2.9 22.9 0.4 L21.75 6.8 Q19.8 13.25 15.85 13.45 11.95 13.6 8.7 -4.2 L6.2 -22.05 Q7.8 -31.0 11.0 -29.0" fill="#ffffff" fill-opacity="0.0" fill-rule="evenodd" stroke="none"/>
    <path d="M11.0 -29.0 Q7.8 -31.0 6.2 -22.05 L8.7 -4.2 Q11.95 13.6 15.85 13.45 19.8 13.25 21.75 6.8 L22.9 0.4 Q21.15 -2.9 19.25 -7.2 15.5 -15.75 14.85 -20.5 13.9 -27.2 11.0 -29.0 Z" fill="none" stroke="#000000" stroke-linecap="butt" stroke-linejoin="miter-clip" stroke-miterlimit="4.0" stroke-opacity="0.4" stroke-width="1.0"/>
  </g>
</svg>
