<?xml version="1.0" encoding="UTF-8" standalone="no"?>
<svg xmlns:xlink="http://www.w3.org/1999/xlink" height="29.75px" width="221.05px" xmlns="http://www.w3.org/2000/svg">
  <g transform="matrix(1.0, 0.0, 0.0, 1.0, 110.55, 14.9)">
    <path d="M45.8 -14.4 L64.95 -14.4 79.85 5.5 55.05 5.5 45.8 -14.4 M-70.1 -14.4 L-48.85 -14.4 -52.0 5.5 -81.3 5.5 -70.1 -14.4 M-13.4 -14.4 L12.25 -14.4 13.8 5.5 -14.95 5.5 -13.4 -14.4" fill="#ffffff" fill-opacity="0.0" fill-rule="evenodd" stroke="none"/>
    <path d="M64.95 -14.4 L88.4 -14.4 110.0 5.5 79.85 5.5 64.95 -14.4 M-110.05 5.5 L-90.7 -14.4 -70.1 -14.4 -81.3 5.5 -110.05 5.5 M-48.85 -14.4 L-13.4 -14.4 -14.95 5.5 -52.0 5.5 -48.85 -14.4 M12.25 -14.4 L45.8 -14.4 55.05 5.5 13.8 5.5 12.25 -14.4" fill="#000000" fill-opacity="0.6" fill-rule="evenodd" stroke="none"/>
    <path d="M110.0 5.5 L98.35 14.35 94.15 14.35 Q95.5 11.35 93.5 9.5 L91.2 8.25 -76.85 8.25 Q-86.5 8.0 -92.1 10.35 -95.8 11.9 -97.35 14.35 L-98.95 14.35 -110.05 5.5 -81.3 5.5 -52.0 5.5 -14.95 5.5 13.8 5.5 55.05 5.5 79.85 5.5 110.0 5.5" fill="#000000" fill-opacity="0.8" fill-rule="evenodd" stroke="none"/>
    <path d="M94.15 14.35 L-97.35 14.35 Q-95.8 11.9 -92.1 10.35 -86.5 8.0 -76.85 8.25 L91.2 8.25 93.5 9.5 Q95.5 11.35 94.15 14.35" fill="#000000" fill-opacity="0.72156864" fill-rule="evenodd" stroke="none"/>
    <path d="M45.8 -14.4 L64.95 -14.4 88.4 -14.4 110.0 5.5 98.35 14.35 94.15 14.35 -97.35 14.35 -98.95 14.35 -110.05 5.5 -90.7 -14.4 -70.1 -14.4 -48.85 -14.4 -13.4 -14.4 12.25 -14.4 45.8 -14.4 M55.05 5.5 L79.85 5.5 110.0 5.5 M-52.0 5.5 L-14.95 5.5 13.8 5.5 55.05 5.5 M-110.05 5.5 L-81.3 5.5 -52.0 5.5" fill="none" stroke="#000000" stroke-linecap="round" stroke-linejoin="round" stroke-width="1.0"/>
  </g>
</svg>
