<?xml version="1.0" encoding="UTF-8" standalone="no"?>
<svg xmlns:xlink="http://www.w3.org/1999/xlink" height="71.65px" width="88.3px" xmlns="http://www.w3.org/2000/svg">
  <g transform="matrix(1.0, 0.0, 0.0, 1.0, 44.0, 35.75)">
    <path d="M32.7 -28.5 L32.95 -28.4 33.05 -28.35 33.6 -28.05 34.0 -27.75 32.7 -28.5 M-43.25 -9.7 L-43.25 -9.8 -43.2 -9.9 -43.25 -9.7" fill="#9c9c9c" fill-rule="evenodd" stroke="none"/>
    <path d="M25.5 -31.05 L25.85 -31.1 Q29.95 -29.9 32.7 -28.5 L25.5 -31.05" fill="#7d7d7d" fill-rule="evenodd" stroke="none"/>
    <path d="M-42.25 -11.4 L-31.6 -27.95 -31.3 -28.15 -30.85 -28.45 -30.65 -28.55 -30.5 -28.65 -30.3 -28.75 -30.05 -28.95 -29.85 -29.05 -29.65 -29.15 -29.45 -29.25 -28.5 -29.75 -28.3 -29.85 -27.65 -30.2 -25.55 -31.15 -25.05 -31.35 -24.55 -31.55 -24.3 -31.65 -23.15 -32.05 -22.55 -32.25 -22.25 -32.35 -21.05 -32.75 -20.1 -33.0 -19.75 -33.1 -19.25 -33.25 -18.7 -33.35 -18.35 -33.45 -18.1 -33.5 -17.4 -33.65 -16.75 -33.8 -15.5 -34.05 -14.95 -34.15 -13.95 -34.3 -13.65 -34.35 -13.45 -34.4 -12.75 -34.5 -11.0 -34.7 -10.65 -34.75 -9.45 -34.85 -9.1 -34.9 -8.85 -34.9 -8.35 -34.95 -7.9 -35.0 -6.55 -35.1 Q6.2 -35.85 19.35 -32.95 L20.45 -32.7 20.75 -32.6 21.5 -32.45 25.5 -31.05 Q24.35 -30.8 24.1 -30.05 L28.0 -23.7 Q31.0 -16.4 27.0 -11.65 25.75 -10.15 21.7 -9.3 12.6 -7.45 -10.35 -8.65 L-42.25 -11.4 M33.6 -28.05 L35.75 -26.55 34.05 -27.75 34.0 -27.75 33.6 -28.05 M14.35 -15.45 Q14.35 -16.5 13.2 -16.5 12.15 -16.7 11.95 -15.55 11.95 -14.75 13.1 -14.5 14.35 -14.5 14.35 -15.45 M18.45 -23.35 Q19.5 -23.15 19.7 -24.3 19.7 -25.1 18.55 -25.35 17.3 -25.35 17.3 -24.4 17.3 -23.35 18.45 -23.35 M9.7 -29.25 Q9.7 -30.05 8.55 -30.25 7.35 -30.25 7.35 -29.35 7.35 -28.3 8.45 -28.3 9.7 -28.3 9.7 -29.25 M5.7 -24.8 Q5.7 -25.75 4.55 -25.75 3.4 -25.95 3.4 -24.8 3.2 -23.9 4.55 -23.9 5.7 -23.7 5.7 -24.8 M38.65 25.3 L38.35 25.25 38.25 25.2 38.65 25.3 M38.2 25.2 L36.15 26.25 Q36.15 26.85 35.65 27.45 34.6 28.9 32.25 29.3 L-3.8 28.2 -41.65 26.35 -41.65 30.75 Q-42.2 24.5 -40.85 21.0 L-7.25 22.55 -6.65 22.65 Q-5.6 22.85 -4.35 22.65 L-4.3 22.65 -1.85 22.8 2.0 23.0 37.5 25.15 38.2 25.2 M-0.8 -18.0 Q0.45 -18.0 0.45 -18.95 0.45 -19.75 -0.7 -20.0 -1.95 -20.0 -1.95 -19.05 -1.95 -18.0 -0.8 -18.0 M-1.1 -29.85 Q-0.1 -29.85 0.15 -30.8 0.15 -31.8 -1.0 -31.8 -2.25 -32.0 -2.25 -30.9 -2.25 -30.05 -1.1 -29.85 M-8.0 -25.55 Q-8.0 -24.7 -6.85 -24.5 -5.65 -24.5 -5.65 -25.45 -5.65 -26.45 -6.75 -26.45 -8.0 -26.65 -8.0 -25.55 M-15.4 -25.55 Q-15.4 -26.55 -16.55 -26.55 -17.6 -26.55 -17.8 -25.65 -17.8 -24.6 -16.65 -24.6 -15.4 -24.6 -15.4 -25.55 M-19.75 -29.15 Q-19.45 -29.45 -19.45 -29.85 -19.2 -30.7 -20.55 -30.9 -21.7 -30.9 -21.7 -29.95 -21.9 -28.95 -20.55 -28.95 -20.15 -28.85 -19.75 -29.15" fill="#ffffff" fill-opacity="0.0" fill-rule="evenodd" stroke="none"/>
    <path d="M5.7 -24.8 Q5.7 -23.7 4.55 -23.9 3.2 -23.9 3.4 -24.8 3.4 -25.95 4.55 -25.75 5.7 -25.75 5.7 -24.8 M9.7 -29.25 Q9.7 -28.3 8.45 -28.3 7.35 -28.3 7.35 -29.35 7.35 -30.25 8.55 -30.25 9.7 -30.05 9.7 -29.25 M18.45 -23.35 Q17.3 -23.35 17.3 -24.4 17.3 -25.35 18.55 -25.35 19.7 -25.1 19.7 -24.3 19.5 -23.15 18.45 -23.35 M14.35 -15.45 Q14.35 -14.5 13.1 -14.5 11.95 -14.75 11.95 -15.55 12.15 -16.7 13.2 -16.5 14.35 -16.5 14.35 -15.45 M-19.75 -29.15 Q-20.15 -28.85 -20.55 -28.95 -21.9 -28.95 -21.7 -29.95 -21.7 -30.9 -20.55 -30.9 -19.2 -30.7 -19.45 -29.85 -19.45 -29.45 -19.75 -29.15 M-15.4 -25.55 Q-15.4 -24.6 -16.65 -24.6 -17.8 -24.6 -17.8 -25.65 -17.6 -26.55 -16.55 -26.55 -15.4 -26.55 -15.4 -25.55 M-8.0 -25.55 Q-8.0 -26.65 -6.75 -26.45 -5.65 -26.45 -5.65 -25.45 -5.65 -24.5 -6.85 -24.5 -8.0 -24.7 -8.0 -25.55 M-1.1 -29.85 Q-2.25 -30.05 -2.25 -30.9 -2.25 -32.0 -1.0 -31.8 0.15 -31.8 0.15 -30.8 -0.1 -29.85 -1.1 -29.85 M-0.8 -18.0 Q-1.95 -18.0 -1.95 -19.05 -1.95 -20.0 -0.7 -20.0 0.45 -19.75 0.45 -18.95 0.45 -18.0 -0.8 -18.0" fill="#ffffff" fill-opacity="0.54901963" fill-rule="evenodd" stroke="none"/>
    <path d="M-42.25 -11.4 L-10.35 -8.65 Q12.6 -7.45 21.7 -9.3 25.75 -10.15 27.0 -11.65 31.0 -16.4 28.0 -23.7 L24.1 -30.05 Q24.35 -30.8 25.5 -31.05 L32.7 -28.5 34.0 -27.75 34.05 -27.75 35.75 -26.55 Q42.35 -21.0 43.55 -10.2 44.1 -4.75 43.35 -0.5 L40.7 -0.25 Q26.55 0.6 -8.2 -2.4 L-40.3 -5.65 Q-43.25 -5.6 -43.5 -8.2 L-43.45 -8.35 -43.3 -9.2 -43.2 -9.75 -43.25 -9.7 -43.2 -9.9 -42.25 -11.4 M38.65 25.3 L38.8 25.3 38.95 25.3 39.0 25.3 39.15 25.3 41.05 25.5 41.2 25.5 41.7 27.05 Q42.0 29.75 40.9 35.3 L-41.65 30.75 -41.65 26.35 -3.8 28.2 32.25 29.3 Q34.6 28.9 35.65 27.45 36.15 26.85 36.15 26.25 L38.2 25.2 38.25 25.2 38.35 25.25 38.65 25.3" fill="#000000" fill-opacity="0.14901961" fill-rule="evenodd" stroke="none"/>
    <path d="M25.5 -31.05 L21.5 -32.45 20.75 -32.6 20.45 -32.7 19.35 -32.95 Q6.2 -35.85 -6.55 -35.1 L-7.9 -35.0 -8.35 -34.95 -8.85 -34.9 -9.1 -34.9 -9.45 -34.85 -10.65 -34.75 -11.0 -34.7 -12.75 -34.5 -13.45 -34.4 -13.65 -34.35 -13.95 -34.3 -14.95 -34.15 -15.5 -34.05 -16.75 -33.8 -17.4 -33.65 -18.1 -33.5 -18.35 -33.45 -18.7 -33.35 -19.25 -33.25 -19.75 -33.1 -20.1 -33.0 -21.05 -32.75 -22.25 -32.35 -22.55 -32.25 -23.15 -32.05 -24.3 -31.65 -24.55 -31.55 -25.05 -31.35 -25.55 -31.15 -27.65 -30.2 -28.3 -29.85 -28.5 -29.75 -29.45 -29.25 -29.65 -29.15 -29.85 -29.05 -30.05 -28.95 -30.3 -28.75 -30.5 -28.65 -30.65 -28.55 -30.85 -28.45 -31.3 -28.15 -31.6 -27.95 -42.25 -11.4 -43.2 -9.9 -43.25 -9.8 -43.25 -9.7 M32.7 -28.5 L32.95 -28.4 33.05 -28.35 33.6 -28.05 35.75 -26.55 Q42.35 -21.0 43.55 -10.2 44.1 -4.75 43.35 -0.5 L40.7 -0.25 Q26.55 0.6 -8.2 -2.4 L-40.3 -5.65 Q-43.25 -5.6 -43.5 -8.2 L-43.45 -8.35 -43.3 -9.2 -43.2 -9.75 M34.0 -27.75 L33.6 -28.05 M35.75 -26.55 L34.05 -27.75 34.0 -27.75 M32.7 -28.5 L25.5 -31.05 M-41.65 30.75 L40.9 35.3 Q42.0 29.75 41.7 27.05 L41.2 25.5 41.05 25.5 39.15 25.3 39.0 25.3 38.95 25.3 38.8 25.3 38.65 25.3 38.35 25.25 38.25 25.2 38.2 25.2 37.5 25.15 2.0 23.0 -1.85 22.8 -4.3 22.65 -4.35 22.65 Q-5.6 22.85 -6.65 22.65 L-7.25 22.55 -40.85 21.0 Q-42.2 24.5 -41.65 30.75 M38.25 25.2 L38.65 25.3" fill="none" stroke="#000000" stroke-linecap="round" stroke-linejoin="miter-clip" stroke-miterlimit="4.0" stroke-width="1.0"/>
  </g>
</svg>
