<?xml version="1.0" encoding="UTF-8" standalone="no"?>
<svg xmlns:xlink="http://www.w3.org/1999/xlink" height="260.2px" width="658.3px" xmlns="http://www.w3.org/2000/svg">
  <g transform="matrix(1.0, 0.0, 0.0, 1.0, 329.15, 130.05)">
    <path d="M-326.95 -105.1 L-144.2 -113.55 Q-118.05 -108.85 -83.55 -107.05 -47.85 -105.1 -8.75 -106.7 34.85 -108.5 75.65 -113.7 117.9 -119.1 142.7 -126.3 L204.0 -129.55 328.65 -123.6 325.95 -123.4 -248.5 -86.8 -326.95 -105.1" fill="#ffffff" fill-opacity="0.2" fill-rule="evenodd" stroke="none"/>
    <path d="M-248.5 -86.8 L325.95 -123.4 327.75 -123.5 327.75 -1.8 -249.2 129.6 -249.2 -86.75 -248.5 -86.8 M326.5 -98.0 L-248.2 -46.65 -248.3 -19.05 326.5 -80.35 326.5 -98.0" fill="#ffffff" fill-opacity="0.0" fill-rule="evenodd" stroke="none"/>
    <path d="M-326.75 -74.95 L-326.95 -75.05 -327.1 -46.5 -326.85 -46.4 -327.3 73.35 -250.55 127.6 -250.55 82.05 Q-294.05 33.05 -309.5 -33.55 L-311.1 -40.8 -250.45 -19.15 -250.1 -46.85 -315.8 -70.95 Q-317.35 -86.6 -316.7 -101.2 L-326.65 -103.65 -326.75 -74.95 M-249.2 -86.75 L-249.2 129.6 -252.55 127.3 -262.7 120.25 -328.65 74.75 -327.9 -105.0 -249.2 -86.75" fill="#000000" fill-opacity="0.2" fill-rule="evenodd" stroke="none"/>
    <path d="M-326.85 -46.4 L-311.1 -40.8 -309.5 -33.55 Q-294.05 33.05 -250.55 82.05 L-250.55 127.6 -327.3 73.35 -326.85 -46.4 M-315.8 -70.95 L-326.75 -74.95 -326.65 -103.65 -316.7 -101.2 Q-317.35 -86.6 -315.8 -70.95" fill="#000000" fill-opacity="0.34901962" fill-rule="evenodd" stroke="none"/>
    <path d="M-252.55 127.3 L-262.75 120.5 -262.7 120.25 -252.55 127.3" fill="#c2c1c1" fill-rule="evenodd" stroke="none"/>
    <path d="M328.65 -123.6 L204.0 -129.55 142.7 -126.3 Q117.9 -119.1 75.65 -113.7 34.85 -108.5 -8.75 -106.7 -47.85 -105.1 -83.55 -107.05 -118.05 -108.85 -144.2 -113.55 L-326.95 -105.1 M-249.2 129.6 L327.75 -1.8 327.75 -123.5 325.95 -123.4 M-248.5 -86.8 L-249.2 -86.75 M-249.2 129.6 L-252.55 127.3 -262.75 120.5 -262.7 120.25 -328.65 74.75 -327.9 -105.0 M-262.7 120.25 L-252.55 127.3" fill="none" stroke="#000000" stroke-linecap="round" stroke-linejoin="miter-clip" stroke-miterlimit="10.0" stroke-width="1.0"/>
    <path d="M-326.95 -105.1 L-248.5 -86.8 325.95 -123.4 M-249.2 -86.75 L-249.2 129.6 M-327.9 -105.0 L-249.2 -86.75" fill="none" stroke="#000000" stroke-linecap="round" stroke-linejoin="miter-clip" stroke-miterlimit="10.0" stroke-opacity="0.6" stroke-width="1.0"/>
  </g>
</svg>
