<?xml version="1.0" encoding="UTF-8" standalone="no"?>
<svg xmlns:xlink="http://www.w3.org/1999/xlink" height="89.1px" width="86.7px" xmlns="http://www.w3.org/2000/svg">
  <g transform="matrix(1.0, 0.0, 0.0, 1.0, 43.35, 37.5)">
    <path d="M-9.85 39.3 Q-21.4 37.25 -30.3 30.2 -42.85 20.25 -42.85 6.2 -42.85 -4.25 -35.4 -12.85 -28.1 -21.25 -16.25 -25.1 -8.95 -27.2 -5.95 -31.65 -4.4 -33.9 -4.35 -35.7 L6.75 -36.5 Q7.4 -29.1 13.1 -26.0 26.2 -22.7 34.45 -13.9 42.85 -4.95 42.85 6.2 42.85 20.25 30.3 30.2 21.0 37.55 8.8 39.45 L8.5 39.5 2.25 40.05 0.45 40.1 0.0 40.1 -9.85 39.3" fill="#ffffff" fill-opacity="0.0" fill-rule="evenodd" stroke="none"/>
    <path d="M0.45 40.1 L2.25 40.05 8.5 39.5 8.95 40.85 7.95 41.9 Q7.1 42.35 6.25 42.35 L5.4 42.15 5.15 42.5 6.05 43.1 6.4 43.35 3.4 43.5 2.5 43.5 2.85 43.85 5.2 45.1 Q7.8 46.2 8.1 47.05 8.3 47.5 8.0 48.1 7.45 46.95 6.25 46.2 L3.8 45.05 Q1.95 44.35 0.95 43.7 L0.6 44.0 1.65 45.65 1.7 45.8 1.55 45.7 Q-0.35 45.05 -0.5 44.1 L-1.0 44.15 Q-1.05 44.85 -2.1 46.75 L-3.1 48.8 -2.95 47.2 -2.8 45.6 -3.25 46.0 Q-5.25 47.65 -5.8 49.65 -6.15 49.0 -5.75 48.2 L-4.7 46.85 Q-3.75 45.75 -3.55 45.25 -3.1 44.35 -3.65 43.5 L-3.7 43.4 -5.6 43.1 -5.65 43.3 -6.1 44.6 -6.25 43.1 -6.15 41.85 -5.7 42.3 -5.2 42.25 -4.95 41.05 -3.4 42.9 -3.4 42.2 -2.25 43.4 -2.15 42.9 -1.85 42.25 -1.65 41.85 -1.55 41.85 -1.0 42.2 0.45 40.1" fill="#000000" fill-opacity="0.6" fill-rule="evenodd" stroke="none"/>
    <path d="M-9.85 39.3 L0.0 40.1 0.45 40.1 -1.0 42.2 -1.55 41.85 -1.65 41.85 -1.85 42.25 -2.15 42.9 -2.25 43.4 -3.4 42.2 -3.4 42.9 -4.95 41.05 -5.2 42.25 -5.7 42.3 -6.15 41.85 -6.25 43.1 -6.1 44.6 -5.65 43.3 -5.6 43.1 -3.7 43.4 -3.65 43.5 Q-3.1 44.35 -3.55 45.25 -3.75 45.75 -4.7 46.85 L-5.75 48.2 Q-6.15 49.0 -5.8 49.65 -5.25 47.65 -3.25 46.0 L-2.8 45.6 -2.95 47.2 -3.1 48.8 -2.1 46.75 Q-1.05 44.85 -1.0 44.15 L-0.5 44.1 Q-0.35 45.05 1.55 45.7 L1.7 45.8 1.65 45.65 0.6 44.0 0.95 43.7 Q1.95 44.35 3.8 45.05 L6.25 46.2 Q7.45 46.95 8.0 48.1 8.3 47.5 8.1 47.05 7.8 46.2 5.2 45.1 L2.85 43.85 2.5 43.5 3.4 43.5 6.4 43.35 6.05 43.1 5.15 42.5 5.4 42.15 6.25 42.35 Q7.1 42.35 7.95 41.9 L8.95 40.85 8.5 39.5 8.8 39.45 Q9.3 40.5 9.2 40.9 9.0 41.7 7.65 42.25 L5.3 42.4 7.0 43.45 3.05 43.7 Q3.85 44.45 6.85 45.65 9.2 46.9 7.95 48.65 7.3 46.8 4.95 45.75 L0.8 43.85 1.6 45.0 2.25 46.2 0.25 45.35 Q-0.6 44.85 -0.7 44.15 -0.75 44.85 -1.75 46.65 -3.05 49.0 -3.15 49.85 -3.45 49.2 -3.35 48.05 L-3.1 46.15 Q-5.35 48.0 -5.7 50.25 -6.85 48.9 -5.05 46.9 -3.15 44.75 -3.85 43.55 L-5.4 43.35 -6.35 45.65 -6.4 44.1 -6.7 42.5 Q-8.95 42.3 -8.95 41.1 L-10.4 41.05 -9.85 39.3" fill="#000000" fill-opacity="0.4" fill-rule="evenodd" stroke="none"/>
    <path d="M8.8 39.45 Q21.0 37.55 30.3 30.2 42.85 20.25 42.85 6.2 42.85 -4.95 34.45 -13.9 26.2 -22.7 13.1 -26.0 7.4 -29.1 6.75 -36.5 L-4.35 -35.7 Q-4.4 -33.9 -5.95 -31.65 -8.95 -27.2 -16.25 -25.1 -28.1 -21.25 -35.4 -12.85 -42.85 -4.25 -42.85 6.2 -42.85 20.25 -30.3 30.2 -21.4 37.25 -9.85 39.3 L0.0 40.1 0.45 40.1 2.25 40.05 8.5 39.5 8.8 39.45 Q9.3 40.5 9.2 40.9 9.0 41.7 7.65 42.25 L5.3 42.4 7.0 43.45 3.05 43.7 Q3.85 44.45 6.85 45.65 9.2 46.9 7.95 48.65 7.3 46.8 4.95 45.75 L0.8 43.85 1.6 45.0 2.25 46.2 0.25 45.35 Q-0.6 44.85 -0.7 44.15 -0.75 44.85 -1.75 46.65 -3.05 49.0 -3.15 49.85 -3.45 49.2 -3.35 48.05 L-3.1 46.15 Q-5.35 48.0 -5.7 50.25 -6.85 48.9 -5.05 46.9 -3.15 44.75 -3.85 43.55 L-5.4 43.35 -6.35 45.65 -6.4 44.1 -6.7 42.5 Q-8.95 42.3 -8.95 41.1 L-10.4 41.05 -9.85 39.3" fill="none" stroke="#000000" stroke-linecap="round" stroke-linejoin="miter-clip" stroke-miterlimit="4.0" stroke-width="1.0"/>
    <path d="M8.5 39.5 L8.95 40.85 7.95 41.9 Q7.1 42.35 6.25 42.35 L5.4 42.15 5.15 42.5 6.05 43.1 6.4 43.35 3.4 43.5 2.5 43.5 2.85 43.85 5.2 45.1 Q7.8 46.2 8.1 47.05 8.3 47.5 8.0 48.1 7.45 46.95 6.25 46.2 L3.8 45.05 Q1.95 44.35 0.95 43.7 L0.6 44.0 1.65 45.65 1.7 45.8 1.55 45.7 Q-0.35 45.05 -0.5 44.1 L-1.0 44.15 Q-1.05 44.85 -2.1 46.75 L-3.1 48.8 -2.95 47.2 -2.8 45.6 -3.25 46.0 Q-5.25 47.65 -5.8 49.65 -6.15 49.0 -5.75 48.2 L-4.7 46.85 Q-3.75 45.75 -3.55 45.25 -3.1 44.35 -3.65 43.5 L-3.7 43.4 -5.6 43.1 -5.65 43.3 -6.1 44.6 -6.25 43.1 -6.15 41.85 -5.7 42.3 -5.2 42.25 -4.95 41.05 -3.4 42.9 -3.4 42.2 -2.25 43.4 -2.15 42.9 -1.85 42.25 -1.65 41.85 -1.55 41.85 -1.0 42.2 0.45 40.1" fill="none" stroke="#000000" stroke-linecap="round" stroke-linejoin="miter-clip" stroke-miterlimit="10.0" stroke-opacity="0.4" stroke-width="1.0"/>
    <path d="M22.35 6.55 Q22.35 -6.4 16.95 -15.65 11.55 -24.9 3.85 -25.3 L4.4 -25.35 Q12.3 -25.35 17.9 -16.0 23.45 -6.65 23.45 6.55 23.45 19.75 17.9 29.05 12.3 38.4 4.4 38.4 L3.85 38.35 Q11.55 38.0 16.95 28.75 22.35 19.45 22.35 6.55 M31.75 6.7 Q31.75 -6.5 25.05 -15.9 18.35 -25.25 8.8 -25.5 L9.2 -25.5 Q18.9 -25.5 25.75 -16.05 32.6 -6.65 32.6 6.7 32.6 20.0 25.75 29.45 18.9 38.9 9.2 38.9 L8.8 38.85 Q18.35 38.65 25.05 29.25 31.75 19.9 31.75 6.7 M-17.8 5.95 Q-17.8 19.05 -12.55 28.45 -7.3 37.8 0.2 38.15 L-0.35 38.2 Q-8.05 38.2 -13.45 28.75 -18.9 19.3 -18.9 5.95 -18.9 -7.45 -13.45 -16.85 -8.05 -26.3 -0.35 -26.3 L0.2 -26.3 Q-7.3 -25.9 -12.55 -16.55 -17.8 -7.15 -17.8 5.95 M-31.4 6.6 Q-31.4 19.55 -24.7 28.8 -18.05 38.05 -8.5 38.25 L-8.9 38.3 Q-18.55 38.3 -25.4 29.0 -32.2 19.75 -32.2 6.6 -32.2 -6.55 -25.4 -15.8 -18.55 -25.1 -8.9 -25.1 L-8.5 -25.1 Q-18.05 -24.85 -24.7 -15.65 -31.4 -6.4 -31.4 6.6 M2.4 -22.35 Q2.1 -14.15 1.95 38.9 0.05 22.9 1.05 -1.3 1.55 -13.45 2.4 -22.35" fill="#ffffff" fill-opacity="0.29803923" fill-rule="evenodd" stroke="none"/>
  </g>
</svg>
