<?xml version="1.0" encoding="UTF-8" standalone="no"?>
<svg xmlns:xlink="http://www.w3.org/1999/xlink" height="464.35px" width="22.55px" xmlns="http://www.w3.org/2000/svg">
  <g transform="matrix(1.0, 0.0, 0.0, 1.0, 11.05, -31.75)">
    <path d="M2.95 32.25 L2.95 477.55 Q2.95 478.2 3.4 478.6 3.85 479.05 4.45 479.05 5.1 479.05 5.5 478.6 L5.95 477.55 5.95 32.25 9.95 32.25 9.95 481.55 Q9.95 487.35 6.95 491.5 4.5 494.85 1.25 495.45 L3.45 494.6 Q0.55 493.05 -1.2 489.55 -3.05 485.95 -3.05 481.55 L-3.05 32.3 2.95 32.25" fill="#ffffff" fill-opacity="0.0" fill-rule="evenodd" stroke="none"/>
    <path d="M1.25 495.45 L-0.15 495.6 -0.3 495.6 Q-4.55 495.6 -7.55 491.5 -10.55 487.35 -10.55 481.55 L-10.55 32.3 -10.25 32.3 -3.05 32.3 -3.05 481.55 Q-3.05 485.95 -1.2 489.55 0.55 493.05 3.45 494.6 L1.25 495.45" fill="#000000" fill-opacity="0.34901962" fill-rule="evenodd" stroke="none"/>
    <path d="M2.95 32.25 L5.95 32.25 5.95 477.55 5.5 478.6 Q5.1 479.05 4.45 479.05 3.85 479.05 3.4 478.6 2.95 478.2 2.95 477.55 L2.95 32.25" fill="#ffffff" fill-opacity="0.2509804" fill-rule="evenodd" stroke="none"/>
    <path d="M9.95 32.25 L9.95 481.55 Q9.95 487.35 6.95 491.5 4.5 494.85 1.25 495.45 L-0.15 495.6 -0.3 495.6 Q-4.55 495.6 -7.55 491.5 -10.55 487.35 -10.55 481.55 L-10.55 32.3 -10.25 32.3" fill="none" stroke="#000000" stroke-linecap="round" stroke-linejoin="miter-clip" stroke-miterlimit="4.0" stroke-width="1.0"/>
    <path d="M5.95 32.25 L2.95 32.25 -3.05 32.3 -10.25 32.3 M5.95 32.25 L9.95 32.25 11.0 32.25" fill="none" stroke="#000000" stroke-linecap="round" stroke-linejoin="miter-clip" stroke-miterlimit="4.0" stroke-opacity="0.6" stroke-width="1.0"/>
  </g>
</svg>
