<?xml version="1.0" encoding="UTF-8" standalone="no"?>
<svg xmlns:xlink="http://www.w3.org/1999/xlink" height="225.0px" width="379.1px" xmlns="http://www.w3.org/2000/svg">
  <g transform="matrix(1.0, 0.0, 0.0, 1.0, 189.5, 112.5)">
    <path d="M161.0 -37.0 L161.0 112.0 145.0 112.0 145.0 39.0 145.0 35.0 145.0 31.0 145.0 35.0 -155.0 35.0 -155.0 39.0 -155.0 112.0 -169.0 112.0 -169.0 -19.3 -166.25 -19.15 -163.4 -19.0 -155.0 -18.55 -155.0 -18.5 -155.0 11.0 145.0 11.0 145.0 -32.3 158.0 -32.3 158.0 -37.0 161.0 -37.0 M152.0 -25.85 Q152.0 -28.0 150.0 -28.0 148.0 -28.0 148.0 -25.85 L148.0 106.4 Q148.0 108.5 150.0 108.5 152.0 108.5 152.0 106.4 L152.0 -25.85 M145.0 19.0 L145.0 15.0 -155.0 15.0 -155.0 19.0 -155.0 31.0 -155.0 35.0 -155.0 31.0 145.0 31.0 145.0 19.0 M145.0 11.0 L145.0 15.0 145.0 11.0 M-162.5 -16.0 Q-162.5 -18.0 -164.5 -18.0 -166.5 -18.0 -166.5 -16.0 L-166.5 108.5 Q-166.5 110.5 -164.5 110.5 -162.5 110.5 -162.5 108.5 L-162.5 -16.0 M-155.0 15.0 L-155.0 11.0 -155.0 15.0" fill="#ffffff" fill-opacity="0.0" fill-rule="evenodd" stroke="none"/>
    <path d="M152.0 -25.85 L152.0 106.4 Q152.0 108.5 150.0 108.5 148.0 108.5 148.0 106.4 L148.0 -25.85 Q148.0 -28.0 150.0 -28.0 152.0 -28.0 152.0 -25.85 M-162.5 -16.0 L-162.5 108.5 Q-162.5 110.5 -164.5 110.5 -166.5 110.5 -166.5 108.5 L-166.5 -16.0 Q-166.5 -18.0 -164.5 -18.0 -162.5 -18.0 -162.5 -16.0" fill="#ffffff" fill-opacity="0.3019608" fill-rule="evenodd" stroke="none"/>
    <path d="M145.0 39.0 L-155.0 39.0 -155.0 35.0 145.0 35.0 145.0 39.0 M145.0 -32.3 L62.65 -32.3 62.45 -37.0 158.0 -37.0 158.0 -32.3 145.0 -32.3 M145.0 15.0 L145.0 19.0 -155.0 19.0 -155.0 15.0 145.0 15.0" fill="#000000" fill-opacity="0.101960786" fill-rule="evenodd" stroke="none"/>
    <path d="M173.35 -82.35 L175.3 -73.0 91.8 -52.85 173.35 -82.35 M83.85 -50.0 L175.1 -50.0 175.1 -37.0 161.0 -37.0 158.0 -37.0 62.45 -37.0 61.85 -50.0 83.85 -50.0 M-181.9 -45.0 L-189.0 -45.0 -189.0 -64.0 -180.35 -64.0 Q-181.35 -63.35 -181.35 -62.6 L-181.9 -45.0" fill="#ffffff" fill-opacity="0.101960786" fill-rule="evenodd" stroke="none"/>
    <path d="M61.4 -60.75 L61.35 -61.15 61.3 -62.6 Q61.3 -63.35 60.3 -64.0 L62.0 -64.0 115.9 -81.65 142.0 -91.5 Q127.95 -88.35 123.3 -92.85 121.85 -94.3 121.55 -96.3 L121.5 -98.0 163.5 -112.0 171.3 -111.55 Q179.95 -109.95 184.0 -104.0 L189.0 -88.0 173.35 -82.35 91.8 -52.85 83.85 -50.0 61.85 -50.0 61.4 -60.75" fill="#000000" fill-opacity="0.2" fill-rule="evenodd" stroke="none"/>
    <path d="M115.9 -81.65 Q118.25 -94.7 121.5 -98.0 L121.55 -96.3 Q121.85 -94.3 123.3 -92.85 127.95 -88.35 142.0 -91.5 L115.9 -81.65" fill="#000000" fill-opacity="0.3019608" fill-rule="evenodd" stroke="none"/>
    <path d="M60.3 -64.0 L62.0 -64.0 115.9 -81.65 Q118.25 -94.7 121.5 -98.0 L163.5 -112.0 171.3 -111.55 Q179.95 -109.95 184.0 -104.0 L189.0 -88.0 173.35 -82.35 175.3 -73.0 91.8 -52.85 83.85 -50.0 175.1 -50.0 175.1 -37.0 161.0 -37.0 161.0 112.0 145.0 112.0 145.0 39.0 -155.0 39.0 -155.0 112.0 -169.0 112.0 -169.0 -19.3 M-155.0 -18.5 L-155.0 11.0 145.0 11.0 145.0 -32.3 62.65 -32.3 M145.0 19.0 L145.0 31.0 -155.0 31.0 -155.0 19.0 M-180.35 -64.0 L-189.0 -64.0 -189.0 -45.0 -181.9 -45.0" fill="none" stroke="#000000" stroke-linecap="round" stroke-linejoin="miter-clip" stroke-miterlimit="3.0" stroke-width="1.0"/>
    <path d="M-155.0 19.0 L145.0 19.0" fill="none" stroke="#000000" stroke-linecap="round" stroke-linejoin="miter-clip" stroke-miterlimit="3.0" stroke-width="1.0"/>
    <path d="M61.4 -60.75 L61.35 -61.15 M145.0 19.0 L145.0 15.0 M-155.0 15.0 L-155.0 19.0" fill="none" stroke="#000000" stroke-linecap="round" stroke-linejoin="miter-clip" stroke-miterlimit="3.0" stroke-opacity="0.6" stroke-width="1.0"/>
    <path d="M61.35 -61.15 L61.3 -62.6 Q61.3 -63.35 60.3 -64.0 M-169.0 -19.3 L-166.25 -19.15 -163.4 -19.0 -155.0 -18.55 -155.0 -18.5 M62.65 -32.3 L62.45 -37.0 61.85 -50.0 61.4 -60.75 M161.0 -37.0 L158.0 -37.0 62.45 -37.0 M61.85 -50.0 L83.85 -50.0 M145.0 31.0 L145.0 35.0 145.0 39.0 M145.0 15.0 L145.0 11.0 M-181.9 -45.0 L-181.35 -62.6 Q-181.35 -63.35 -180.35 -64.0 M-155.0 11.0 L-155.0 15.0 M-155.0 35.0 L-155.0 39.0 M-155.0 31.0 L-155.0 35.0" fill="none" stroke="#000000" stroke-linecap="round" stroke-linejoin="miter-clip" stroke-miterlimit="3.0" stroke-opacity="0.6" stroke-width="1.0"/>
    <path d="M158.0 -37.0 L158.0 -32.3 145.0 -32.3 M91.8 -52.85 L173.35 -82.35" fill="none" stroke="#000000" stroke-linecap="round" stroke-linejoin="miter-clip" stroke-miterlimit="3.0" stroke-opacity="0.4" stroke-width="1.0"/>
  </g>
</svg>
