<?xml version="1.0" encoding="UTF-8" standalone="no"?>
<svg xmlns:xlink="http://www.w3.org/1999/xlink" height="194.45px" width="72.85px" xmlns="http://www.w3.org/2000/svg">
  <g transform="matrix(1.0, 0.0, 0.0, 1.0, 26.85, 95.6)">
    <path d="M40.85 98.35 L-26.35 98.35 -26.35 -86.05 40.85 -95.1 40.85 86.05 40.85 97.85 40.85 98.35" fill="#ffffff" fill-opacity="0.0" fill-rule="evenodd" stroke="none"/>
    <path d="M40.85 -95.1 L45.5 -95.1 45.5 98.35 40.85 98.35 40.85 97.85 40.85 86.05 40.85 -95.1" fill="#ffffff" fill-opacity="0.101960786" fill-rule="evenodd" stroke="none"/>
    <path d="M45.5 -95.1 L45.5 98.35 40.85 98.35 -26.35 98.35 M40.85 97.85 L40.85 98.35" fill="none" stroke="#000000" stroke-linecap="round" stroke-linejoin="miter-clip" stroke-miterlimit="3.0" stroke-width="1.0"/>
    <path d="M40.85 -95.1 L45.5 -95.1 M-26.35 98.35 L-26.35 -86.05 40.85 -95.1 40.85 86.05 40.85 97.85" fill="none" stroke="#000000" stroke-linecap="round" stroke-linejoin="miter-clip" stroke-miterlimit="3.0" stroke-opacity="0.6" stroke-width="1.0"/>
  </g>
</svg>
