<?xml version="1.0" encoding="UTF-8" standalone="no"?>
<svg xmlns:xlink="http://www.w3.org/1999/xlink" height="28.75px" width="172.7px" xmlns="http://www.w3.org/2000/svg">
  <g transform="matrix(1.0, 0.0, 0.0, 1.0, 86.15, 14.4)">
    <path d="M83.15 -10.9 Q75.65 -5.5 61.7 -0.1 33.8 10.6 1.5 10.4 -30.8 10.2 -59.7 -0.35 -74.15 -5.65 -82.15 -10.9 L-83.3 -7.7 Q-76.0 -3.7 -66.2 0.2 -49.9 6.6 -32.45 10.05 -15.05 13.5 2.75 13.5 46.25 13.5 84.0 -7.35 L83.15 -10.9 M84.4 -7.25 Q46.55 13.85 2.75 13.85 -15.05 13.85 -32.45 10.4 -50.05 6.95 -66.3 0.5 L-69.8 -0.95 Q-78.85 -4.7 -82.15 -6.7 -85.5 -8.7 -85.6 -9.95 -85.75 -11.25 -85.35 -12.35 -84.95 -13.5 -83.7 -13.8 -82.45 -14.1 -81.35 -13.45 -76.15 -10.45 -67.35 -6.75 -49.8 0.6 -31.0 4.25 -5.6 9.25 19.4 6.75 52.25 3.4 81.35 -12.75 L83.75 -13.0 Q85.0 -12.65 85.65 -11.5 86.3 -10.35 85.95 -9.15 85.55 -7.9 84.4 -7.25" fill="#ffffff" fill-opacity="0.0" fill-rule="evenodd" stroke="none"/>
    <path d="M83.15 -10.9 L84.0 -7.35 Q46.25 13.5 2.75 13.5 -15.05 13.5 -32.45 10.05 -49.9 6.6 -66.2 0.2 -76.0 -3.7 -83.3 -7.7 L-82.15 -10.9 Q-74.15 -5.65 -59.7 -0.35 -30.8 10.2 1.5 10.4 33.8 10.6 61.7 -0.1 75.65 -5.5 83.15 -10.9" fill="#000000" fill-opacity="0.3019608" fill-rule="evenodd" stroke="none"/>
    <path d="M84.4 -7.25 Q46.55 13.85 2.75 13.85 -15.05 13.85 -32.45 10.4 -50.05 6.95 -66.3 0.5 L-69.8 -0.95 Q-78.85 -4.7 -82.15 -6.7 -85.5 -8.7 -85.6 -9.95 -85.75 -11.25 -85.35 -12.35 -84.95 -13.5 -83.7 -13.8 -82.45 -14.1 -81.35 -13.45 -76.15 -10.45 -67.35 -6.75 -49.8 0.6 -31.0 4.25 -5.6 9.25 19.4 6.75 52.25 3.4 81.35 -12.75 L83.75 -13.0 Q85.0 -12.65 85.65 -11.5 86.3 -10.35 85.95 -9.15 85.55 -7.9 84.4 -7.25 Z" fill="none" stroke="#000000" stroke-linecap="butt" stroke-linejoin="miter-clip" stroke-miterlimit="4.0" stroke-width="1.0"/>
  </g>
</svg>
