<?xml version="1.0" encoding="UTF-8" standalone="no"?>
<svg xmlns:xlink="http://www.w3.org/1999/xlink" height="55.35px" width="38.2px" xmlns="http://www.w3.org/2000/svg">
  <g transform="matrix(1.0, 0.0, 0.0, 1.0, 1.55, 0.6)">
    <path d="M12.0 11.6 Q19.75 3.1 22.85 0.95 24.85 -0.45 27.5 0.25 28.8 0.55 29.65 1.2 30.5 1.4 34.55 5.95 37.0 8.7 35.65 12.15 35.05 13.85 33.85 14.95 L23.95 24.15 Q16.5 22.25 13.65 16.9 12.8 15.2 12.45 13.4 L12.3 11.95 12.0 11.6 M24.3 1.9 L24.45 1.35 Q22.85 1.6 17.8 7.2 15.25 10.0 13.05 12.75 L23.15 3.3 Q25.3 6.4 29.4 8.6 31.45 9.75 33.05 10.2 26.45 6.75 24.75 3.7 24.25 2.75 24.3 1.9" fill="#000000" fill-opacity="0.8509804" fill-rule="evenodd" stroke="none"/>
    <path d="M24.3 1.9 Q24.25 2.75 24.75 3.7 26.45 6.75 33.05 10.2 31.45 9.75 29.4 8.6 25.3 6.4 23.15 3.3 L13.05 12.75 Q15.25 10.0 17.8 7.2 22.85 1.6 24.45 1.35 L24.3 1.9" fill="#000000" fill-opacity="0.6" fill-rule="evenodd" stroke="none"/>
    <path d="M24.35 24.5 L22.0 26.3 Q22.15 27.6 21.9 29.6 21.5 32.8 19.75 34.5 L19.75 34.45 19.45 33.5 Q20.35 32.55 20.75 30.45 L20.95 27.6 19.95 27.6 19.9 26.75 19.85 26.8 18.35 27.9 15.05 30.25 13.9 30.55 12.1 30.7 10.8 30.65 8.4 29.9 8.3 29.6 Q16.75 28.45 14.0 25.8 12.0 23.85 10.3 19.3 L8.9 14.8 8.9 14.75 9.15 14.6 9.1 14.5 9.05 14.15 11.6 11.1 11.6 12.05 Q11.7 14.65 12.6 16.8 13.9 19.8 16.85 21.8 L17.85 22.4 Q20.65 23.95 23.45 24.4 L24.35 24.5 M19.15 36.55 L19.05 36.65 18.75 36.95 18.35 37.15 17.7 37.4 17.7 40.15 17.7 42.4 17.7 45.0 17.7 46.75 17.7 48.65 17.7 48.7 17.7 48.75 19.55 48.95 22.3 49.45 23.0 49.65 23.2 49.7 24.9 50.25 25.3 50.35 25.45 50.45 27.5 51.3 30.6 53.0 31.4 53.55 31.75 53.8 24.15 53.9 23.65 53.9 23.6 53.9 Q25.2 53.45 24.9 52.55 24.3 50.9 19.3 49.45 L17.25 48.9 16.35 48.7 16.1 48.7 15.9 39.55 15.85 39.55 13.1 39.5 13.1 39.35 13.1 37.85 12.7 37.7 12.6 37.65 12.35 37.5 12.3 37.45 Q11.6 36.95 11.35 36.15 L12.15 36.25 12.3 36.25 12.95 36.0 13.05 35.9 13.3 35.3 13.1 34.55 Q12.85 34.25 12.4 34.2 L11.6 34.05 11.7 33.9 11.75 33.8 12.6 33.05 Q14.2 33.05 14.75 34.45 15.05 35.1 15.0 35.8 L19.75 35.15 19.75 35.2 Q19.65 36.0 19.15 36.55 M22.0 26.3 L21.35 26.8 20.0 26.7 19.95 26.65 19.85 26.65 Q17.95 26.3 15.9 25.15 10.35 22.1 9.15 14.6 10.35 22.1 15.9 25.15 17.95 26.3 19.85 26.65 L19.95 26.65 20.0 26.7 21.35 26.8 22.0 26.3 M19.95 26.65 L19.9 26.7 19.85 26.7 18.35 27.9 19.85 26.7 19.9 26.7 19.95 26.65 M5.95 28.15 L6.2 29.65 4.3 31.35 4.25 31.35 3.95 31.3 3.85 31.3 3.75 31.25 3.55 31.15 5.2 29.0 Q5.5 28.45 4.5 27.3 L5.0 26.75 5.95 28.15 M17.7 37.4 L17.6 37.4 14.2 37.9 17.6 37.4 17.7 37.4 M13.9 37.95 L13.75 37.95 13.1 37.85 13.75 37.95 13.9 37.95 14.2 37.9 14.15 37.9 13.9 37.95 M12.6 37.65 L12.3 37.45 12.6 37.65 M16.35 48.7 L17.6 48.75 17.7 48.75 17.6 48.75 16.35 48.7 M25.45 50.45 L24.9 50.25 25.45 50.45" fill="#000000" fill-opacity="0.4" fill-rule="evenodd" stroke="none"/>
    <path d="M12.0 11.6 L12.3 11.95 12.45 13.4 Q12.8 15.2 13.65 16.9 16.5 22.25 23.95 24.15 L24.35 24.5 23.45 24.4 Q20.65 23.95 17.85 22.4 L16.85 21.8 Q13.9 19.8 12.6 16.8 11.7 14.65 11.6 12.05 L11.6 11.1 12.0 11.6 M19.75 34.5 Q19.9 35.5 19.3 36.4 L19.15 36.55 Q19.65 36.0 19.75 35.2 L19.75 35.15 15.0 35.8 Q15.05 35.1 14.75 34.45 14.2 33.05 12.6 33.05 12.95 32.85 13.4 32.8 L16.8 32.25 Q17.8 32.05 18.65 32.65 19.65 31.4 19.9 29.05 L19.85 26.8 19.9 26.75 19.95 27.6 20.95 27.6 20.75 30.45 Q20.35 32.55 19.45 33.5 L19.75 34.45 19.75 34.5 M9.9 20.5 L9.55 20.3 9.45 20.35 9.65 20.7 Q9.85 21.05 9.55 21.25 L6.05 21.65 6.0 21.6 5.95 21.55 5.95 21.45 Q5.9 21.1 6.15 20.8 L6.75 20.5 9.15 20.25 9.8 20.4 9.9 20.5 M5.95 22.2 L6.2 22.75 Q6.55 23.2 7.2 23.3 L7.4 28.8 Q8.45 34.45 12.3 34.7 L12.75 35.0 Q13.1 35.45 13.05 35.9 L12.95 36.0 12.3 36.25 12.15 36.25 11.35 36.15 Q9.35 35.65 8.0 33.95 L7.75 33.6 7.7 33.55 Q6.7 32.0 6.2 29.75 L6.2 29.65 5.95 28.15 5.85 27.2 5.85 27.05 5.8 26.65 5.8 26.5 5.95 22.2 M19.45 33.5 L18.75 32.7 18.65 32.65 18.75 32.7 19.45 33.5" fill="#ffffff" fill-opacity="0.7019608" fill-rule="evenodd" stroke="none"/>
    <path d="M25.3 50.35 L27.2 51.1 25.45 50.45 25.3 50.35 M8.9 14.75 L9.1 14.5 9.15 14.6 8.9 14.75 M3.5 31.1 L3.55 31.15 3.75 31.25 3.7 31.25 3.5 31.1" fill="#a3a3a3" fill-rule="evenodd" stroke="none"/>
    <path d="M23.0 53.95 L0.0 54.25 Q4.85 50.8 9.85 49.5 L10.8 49.3 12.75 48.95 12.8 48.95 13.1 48.9 13.1 46.95 13.1 45.1 13.1 44.05 13.1 43.5 13.1 41.0 13.1 39.5 15.85 39.55 15.9 39.55 16.1 48.7 14.95 48.75 14.4 48.75 14.05 48.8 13.85 48.8 13.1 48.9 13.85 48.8 14.05 48.8 14.4 48.75 14.95 48.75 16.1 48.7 16.35 48.7 17.25 48.9 19.3 49.45 Q24.3 50.9 24.9 52.55 25.2 53.45 23.6 53.9 L23.0 53.95 M2.75 30.3 L2.35 29.4 4.5 27.3 Q5.5 28.45 5.2 29.0 L3.55 31.15 3.5 31.1 3.4 31.05 2.95 30.6 2.85 30.5 2.85 30.45 2.8 30.4 2.75 30.3 M5.0 26.75 L4.35 24.7 Q4.15 23.35 4.35 21.1 L8.9 14.75 8.9 14.8 10.3 19.3 Q12.0 23.85 14.0 25.8 16.75 28.45 8.3 29.6 8.05 28.45 7.95 27.1 7.7 24.45 8.0 22.15 L9.3 21.95 Q9.7 21.9 9.9 21.65 L10.1 21.0 9.9 20.5 9.8 20.4 9.15 20.25 6.75 20.5 6.15 20.8 Q5.9 21.1 5.95 21.45 L5.95 21.55 6.0 21.6 6.0 21.65 5.95 21.8 5.9 22.1 5.95 22.15 5.95 22.2 5.8 26.5 5.8 26.65 5.85 27.05 5.85 27.2 5.95 28.15 5.0 26.75 M13.85 48.8 L14.4 48.75 13.85 48.8" fill="#000000" fill-opacity="0.003921569" fill-rule="evenodd" stroke="none"/>
    <path d="M6.05 21.65 L9.55 21.25 Q9.85 21.05 9.65 20.7 L9.45 20.35 9.55 20.3 9.9 20.5 10.1 21.0 9.9 21.65 Q9.7 21.9 9.3 21.95 L8.0 22.15 6.9 22.25 6.3 22.05 6.05 21.65 6.3 22.05 6.9 22.25 Q6.2 22.3 6.0 21.65 L6.05 21.65" fill="#bfbfbf" fill-rule="evenodd" stroke="none"/>
    <path d="M6.0 21.6 L6.05 21.65 6.0 21.65 6.0 21.6" fill="#f0f0f0" fill-rule="evenodd" stroke="none"/>
    <path d="M4.5 27.3 L4.45 27.25 5.0 26.75 4.5 27.3 M8.3 29.6 L8.4 29.9 Q8.85 31.6 9.65 32.65 10.4 33.65 11.6 34.05 L12.4 34.2 Q12.85 34.25 13.1 34.55 L13.3 35.3 13.05 35.9 Q13.1 35.45 12.75 35.0 L12.3 34.7 Q8.45 34.45 7.4 28.8 L7.2 23.3 Q6.55 23.2 6.2 22.75 L5.95 22.2 5.95 22.15 5.95 21.8 5.95 22.15 5.9 22.1 5.95 21.8 6.0 21.65 Q6.2 22.3 6.9 22.25 L8.0 22.15 Q7.7 24.45 7.95 27.1 8.05 28.45 8.3 29.6 M10.8 30.65 L12.1 30.7 13.9 30.55 12.55 30.7 10.8 30.65 M12.6 33.05 L11.75 33.8 11.7 33.9 Q12.0 33.3 12.6 33.05 M13.9 37.95 L14.15 37.9 14.2 37.9 13.9 37.95" fill="#878787" fill-rule="evenodd" stroke="none"/>
    <path d="M17.7 40.15 Q18.9 40.75 19.35 42.0 19.95 43.4 19.3 44.3 18.8 45.0 17.9 45.0 L17.7 45.0 17.8 43.3 17.95 43.3 17.8 42.6 17.7 42.4 17.7 40.15 M17.7 46.75 L18.4 47.05 Q19.7 47.8 19.55 48.85 L19.55 48.95 17.7 48.75 17.7 48.7 17.75 48.65 17.7 48.65 17.7 46.75 M9.85 49.5 Q9.1 49.1 8.3 49.05 7.45 49.0 7.0 49.4 6.6 49.7 6.85 50.35 L5.3 51.05 Q4.55 49.25 5.9 48.15 6.85 47.35 8.25 47.35 9.7 47.4 11.0 48.2 L12.75 48.95 10.8 49.3 9.85 49.5 M13.1 46.95 L12.15 46.5 Q11.2 46.0 11.2 45.25 11.2 44.4 11.75 43.95 12.1 43.6 12.6 43.5 L13.1 43.5 13.1 44.05 13.0 45.05 13.1 45.1 13.1 46.95 M13.1 41.0 L11.85 40.95 8.45 40.8 7.5 40.65 Q5.1 40.2 3.35 38.8 1.2 37.1 1.0 34.35 0.8 31.8 2.5 30.05 L2.75 30.3 2.8 30.4 2.85 30.45 2.85 30.5 2.95 30.6 3.4 31.05 3.5 31.1 3.7 31.25 Q2.55 32.35 2.65 34.2 2.85 36.25 4.4 37.45 5.85 38.6 7.95 39.05 L11.9 39.3 13.1 39.35 13.1 39.5 13.1 41.0" fill="#000000" fill-opacity="0.7019608" fill-rule="evenodd" stroke="none"/>
    <path d="M23.95 24.15 L33.85 14.95 Q35.05 13.85 35.65 12.15 37.0 8.7 34.55 5.95 30.5 1.4 29.65 1.2 28.8 0.55 27.5 0.25 24.85 -0.45 22.85 0.95 19.75 3.1 12.0 11.6 L12.3 11.95 12.45 13.4 Q12.8 15.2 13.65 16.9 16.5 22.25 23.95 24.15 L24.35 24.5 22.0 26.3 Q22.15 27.6 21.9 29.6 21.5 32.8 19.75 34.5 19.9 35.5 19.3 36.4 L19.15 36.55 19.05 36.65 18.75 36.95 18.35 37.15 17.7 37.4 17.7 40.15 Q18.9 40.75 19.35 42.0 19.95 43.4 19.3 44.3 18.8 45.0 17.9 45.0 L17.7 45.0 17.7 46.75 18.4 47.05 Q19.7 47.8 19.55 48.85 L19.55 48.95 22.3 49.45 23.0 49.65 23.2 49.7 24.9 50.25 25.3 50.35 27.2 51.1 29.75 52.45 31.4 53.55 31.75 53.8 24.15 53.9 23.0 53.95 0.0 54.25 Q4.85 50.8 9.85 49.5 9.1 49.1 8.3 49.05 7.45 49.0 7.0 49.4 6.6 49.7 6.85 50.35 L5.3 51.05 Q4.55 49.25 5.9 48.15 6.85 47.35 8.25 47.35 9.7 47.4 11.0 48.2 L12.75 48.95 12.8 48.95 13.1 48.9 13.1 46.95 12.15 46.5 Q11.2 46.0 11.2 45.25 11.2 44.4 11.75 43.95 12.1 43.6 12.6 43.5 L13.1 43.5 13.1 41.0 11.85 40.95 8.45 40.8 7.5 40.65 Q5.1 40.2 3.35 38.8 1.2 37.1 1.0 34.35 0.8 31.8 2.5 30.05 L2.75 30.3 2.35 29.4 4.5 27.3 5.0 26.75 5.95 28.15 6.2 29.65 6.2 29.75 Q6.7 32.0 7.7 33.55 L7.75 33.6 8.0 33.95 Q9.35 35.65 11.35 36.15 L12.15 36.25 12.3 36.25 12.95 36.0 13.05 35.9 13.3 35.3 13.1 34.55 Q12.85 34.25 12.4 34.2 L11.6 34.05 Q10.4 33.65 9.65 32.65 8.85 31.6 8.4 29.9 L10.8 30.65 12.1 30.7 13.9 30.55 15.05 30.25 18.35 27.9 19.85 26.7 19.9 26.7 19.95 26.65 20.0 26.7 21.35 26.8 22.0 26.3 M5.0 26.75 L4.35 24.7 Q4.15 23.35 4.35 21.1 L8.9 14.75 9.1 14.5 9.05 14.15 11.6 11.1 12.0 11.6 M9.1 14.5 L9.15 14.6 Q10.35 22.1 15.9 25.15 17.95 26.3 19.85 26.65 L19.95 26.65 M8.3 29.6 L8.4 29.9 M9.9 20.5 L9.8 20.4 9.15 20.25 6.75 20.5 6.15 20.8 Q5.9 21.1 5.95 21.45 L5.95 21.55 6.0 21.6 6.05 21.65 6.3 22.05 6.9 22.25 8.0 22.15 9.3 21.95 Q9.7 21.9 9.9 21.65 L10.1 21.0 9.9 20.5 M6.0 21.65 L6.0 21.6 M5.95 22.15 L5.95 22.2 5.8 26.5 5.8 26.65 5.85 27.05 5.85 27.2 5.95 28.15 M5.95 21.8 L5.95 22.15 M19.45 33.5 L19.75 34.45 19.75 34.5 M19.85 26.8 L19.9 29.05 Q19.65 31.4 18.65 32.65 L18.75 32.7 19.45 33.5 M11.7 33.9 L11.75 33.8 12.6 33.05 Q12.95 32.85 13.4 32.8 L16.8 32.25 Q17.8 32.05 18.65 32.65 M11.7 33.9 L11.6 34.05 M8.0 22.15 Q7.7 24.45 7.95 27.1 8.05 28.45 8.3 29.6 M2.75 30.3 L2.8 30.4 2.85 30.45 2.85 30.5 2.95 30.6 3.4 31.05 3.5 31.1 3.55 31.15 3.75 31.25 3.7 31.25 Q2.55 32.35 2.65 34.2 2.85 36.25 4.4 37.45 5.85 38.6 7.95 39.05 L11.9 39.3 13.1 39.35 13.1 37.85 12.7 37.7 12.6 37.65 12.35 37.5 12.3 37.45 Q11.6 36.95 11.35 36.15 M3.75 31.25 L3.85 31.3 3.95 31.3 4.25 31.35 4.3 31.35 6.2 29.65 M3.5 31.1 L3.7 31.25 M13.1 39.5 L13.1 41.0 M14.2 37.9 L17.6 37.4 17.7 37.4 M17.7 45.0 L17.8 43.3 17.95 43.3 17.8 42.6 17.7 42.4 17.7 45.0 M17.7 42.4 L17.7 40.15 M13.1 39.35 L13.1 39.5 M13.1 37.85 L13.75 37.95 13.9 37.95 14.15 37.9 14.2 37.9 13.9 37.95 M12.3 37.45 L12.6 37.65 M13.1 43.5 L13.1 44.05 13.1 45.1 13.1 46.95 M13.1 44.05 L13.0 45.05 13.1 45.1 M16.1 48.7 L14.95 48.75 14.4 48.75 14.05 48.8 13.85 48.8 13.1 48.9 M14.4 48.75 L13.85 48.8 M12.75 48.95 L10.8 49.3 9.85 49.5 M17.7 48.75 L17.6 48.75 16.35 48.7 16.1 48.7 M23.65 53.9 L24.15 53.9 M17.7 48.75 L17.7 48.7 17.7 48.65 17.7 46.75 M17.7 48.7 L17.75 48.65 17.7 48.65 M19.55 48.95 L17.7 48.75 M30.6 53.0 L31.4 53.55 M25.45 50.45 L27.2 51.1 M30.6 53.0 L29.75 52.45 M23.6 53.9 L23.0 53.95 M24.9 50.25 L25.45 50.45" fill="none" stroke="#000000" stroke-linecap="round" stroke-linejoin="miter-clip" stroke-miterlimit="4.0" stroke-opacity="0.6" stroke-width="1.0"/>
  </g>
</svg>
