<?xml version="1.0" encoding="UTF-8" standalone="no"?>
<svg xmlns:xlink="http://www.w3.org/1999/xlink" height="698.2px" width="1266.2px" xmlns="http://www.w3.org/2000/svg">
  <g transform="matrix(1.0, 0.0, 0.0, 1.0, 0.5, -12.8)">
    <path d="M1130.95 37.0 L1265.2 37.25 1265.2 44.15 1121.95 36.85 1130.95 37.0 M1265.2 706.8 Q1246.65 712.55 1222.6 709.4 1195.95 705.85 1210.55 692.05 1224.25 679.2 1192.8 684.25 L1158.65 692.05 756.95 686.05 Q752.85 547.1 752.55 408.55 752.0 132.65 770.6 108.9 L790.4 104.95 Q810.9 102.75 814.35 111.9 817.75 121.2 830.05 342.8 836.2 453.65 841.65 562.55 842.9 527.55 844.5 488.9 846.55 442.3 849.15 390.5 858.75 201.25 869.0 114.75 L876.65 111.9 Q885.9 108.75 894.95 107.4 923.65 103.0 937.3 117.8 950.95 132.55 964.6 357.85 967.75 409.65 970.35 460.85 973.35 521.0 975.55 580.15 978.95 480.0 983.75 372.2 993.3 156.45 1000.15 117.8 L1006.3 114.5 Q1013.7 110.8 1020.35 108.9 1041.55 103.0 1046.6 117.8 1049.05 124.9 1053.05 188.4 L1061.35 321.35 Q1074.05 507.75 1090.35 509.5 1094.55 509.9 1097.7 498.15 1101.4 483.95 1103.6 452.25 1106.05 416.6 1108.1 320.95 1110.15 222.15 1112.6 183.1 1116.85 116.8 1125.85 106.05 L1164.1 100.0 Q1162.05 202.35 1162.05 311.4 1162.05 529.45 1172.3 562.55 1175.75 462.35 1180.9 355.25 1191.15 141.0 1199.65 106.05 L1218.75 100.0 1265.2 706.8 M756.6 686.05 L174.85 677.3 Q142.5 684.7 99.45 683.15 L62.85 680.3 Q64.6 695.05 32.5 689.2 16.35 686.2 0.0 680.3 L5.05 92.1 Q17.75 86.1 25.25 91.55 35.5 98.9 35.5 126.65 35.5 168.9 46.45 287.5 51.9 346.8 57.35 397.6 58.3 348.55 60.1 299.5 61.05 274.9 62.15 250.3 69.0 103.0 79.25 103.0 95.6 103.0 114.75 100.0 L120.2 562.55 Q122.25 520.3 124.6 477.95 128.55 407.3 133.2 336.55 148.25 109.7 158.45 106.05 161.2 162.75 166.65 217.95 176.8 319.3 189.1 321.35 L191.25 320.95 191.95 320.55 Q198.65 315.6 201.4 283.65 202.75 266.45 204.25 212.05 205.6 162.3 208.2 140.3 212.15 107.0 221.35 103.0 238.4 95.65 258.9 98.65 269.15 100.15 276.0 103.0 L308.75 427.0 Q310.8 348.95 315.35 269.85 324.2 111.5 336.1 106.05 348.1 100.4 376.15 382.45 390.05 523.45 401.7 665.55 L412.6 194.3 456.05 668.4 Q457.55 535.2 461.0 400.5 467.95 131.05 478.2 123.65 488.45 116.25 514.4 114.75 527.4 114.1 538.3 114.75 L549.25 668.4 551.7 586.05 551.7 585.05 Q554.6 493.95 558.8 402.25 571.1 135.15 584.8 129.55 598.45 123.95 614.85 123.25 L628.5 123.65 626.45 150.55 Q624.25 183.25 624.15 211.25 623.45 301.15 642.15 312.2 661.0 323.3 668.55 220.1 672.2 168.6 672.2 114.75 L682.2 107.8 Q692.45 104.1 694.1 120.65 700.25 270.4 710.05 406.1 723.2 586.7 739.85 651.05 747.85 682.0 756.6 686.05 M1221.5 688.1 Q1198.15 700.4 1213.45 705.3 1221.1 707.75 1233.4 707.75 L1221.5 437.8 1221.5 688.1 M55.6 688.1 Q69.95 684.4 47.55 668.95 L47.55 418.65 36.85 688.65 43.55 689.05 Q51.2 689.2 55.6 688.1" fill="#ffffff" fill-opacity="0.0" fill-rule="evenodd" stroke="none"/>
    <path d="M1090.35 509.5 Q1093.75 508.55 1097.7 498.15 1094.55 509.9 1090.35 509.5" fill="#8e8e8e" fill-rule="evenodd" stroke="none"/>
    <path d="M756.95 686.05 L756.65 686.05 756.6 686.05 756.95 686.05 M1221.5 688.1 L1221.5 437.8 1233.4 707.75 Q1221.1 707.75 1213.45 705.3 1198.15 700.4 1221.5 688.1 M55.6 688.1 Q51.2 689.2 43.55 689.05 L36.85 688.65 47.55 418.65 47.55 668.95 Q69.95 684.4 55.6 688.1" fill="#000000" fill-opacity="0.09803922" fill-rule="evenodd" stroke="none"/>
    <path d="M1121.95 36.85 L1265.2 44.15 1265.2 706.8 1218.75 100.0 1199.65 106.05 Q1191.15 141.0 1180.9 355.25 1175.75 462.35 1172.3 562.55 1162.05 529.45 1162.05 311.4 1162.05 202.35 1164.1 100.0 L1125.85 106.05 Q1116.85 116.8 1112.6 183.1 1110.15 222.15 1108.1 320.95 1106.05 416.6 1103.6 452.25 1101.4 483.95 1097.7 498.15 1093.75 508.55 1090.35 509.5 1074.05 507.75 1061.35 321.35 L1053.05 188.4 Q1049.05 124.9 1046.6 117.8 1041.55 103.0 1020.35 108.9 1013.7 110.8 1006.3 114.5 L1000.15 117.8 Q993.3 156.45 983.75 372.2 978.95 480.0 975.55 580.15 973.35 521.0 970.35 460.85 967.75 409.65 964.6 357.85 950.95 132.55 937.3 117.8 923.65 103.0 894.95 107.4 885.9 108.75 876.65 111.9 L869.0 114.75 Q858.75 201.25 849.15 390.5 846.55 442.3 844.5 488.9 842.9 527.55 841.65 562.55 836.2 453.65 830.05 342.8 817.75 121.2 814.35 111.9 810.9 102.75 790.4 104.95 L770.6 108.9 Q752.0 132.65 752.55 408.55 752.85 547.1 756.95 686.05 L756.6 686.05 Q747.85 682.0 739.85 651.05 723.2 586.7 710.05 406.1 700.25 270.4 694.1 120.65 692.45 104.1 682.2 107.8 L672.2 114.75 Q672.2 168.6 668.55 220.1 661.0 323.3 642.15 312.2 623.45 301.15 624.15 211.25 624.25 183.25 626.45 150.55 L628.5 123.65 614.85 123.25 Q598.45 123.95 584.8 129.55 571.1 135.15 558.8 402.25 554.6 493.95 551.7 585.05 L551.7 586.05 549.25 668.4 538.3 114.75 Q527.4 114.1 514.4 114.75 488.45 116.25 478.2 123.65 467.95 131.05 461.0 400.5 457.55 535.2 456.05 668.4 L412.6 194.3 401.7 665.55 Q390.05 523.45 376.15 382.45 348.1 100.4 336.1 106.05 324.2 111.5 315.35 269.85 310.8 348.95 308.75 427.0 L276.0 103.0 Q269.15 100.15 258.9 98.65 238.4 95.65 221.35 103.0 212.15 107.0 208.2 140.3 205.6 162.3 204.25 212.05 202.75 266.45 201.4 283.65 198.65 315.6 191.95 320.55 L191.25 320.95 189.1 321.35 Q176.8 319.3 166.65 217.95 161.2 162.75 158.45 106.05 148.25 109.7 133.2 336.55 128.55 407.3 124.6 477.95 122.25 520.3 120.2 562.55 L114.75 100.0 Q95.6 103.0 79.25 103.0 69.0 103.0 62.15 250.3 61.05 274.9 60.1 299.5 58.3 348.55 57.35 397.6 51.9 346.8 46.45 287.5 35.5 168.9 35.5 126.65 35.5 98.9 25.25 91.55 17.75 86.1 5.05 92.1 L4.9 92.1 5.05 88.55 Q4.9 86.75 5.05 85.0 L5.45 35.25 Q23.9 22.95 120.35 17.6 L198.65 14.75 Q245.35 13.65 303.45 13.65 364.25 13.65 437.5 14.75 491.2 15.45 551.7 16.95 595.85 17.9 643.8 19.25 L665.1 19.8 729.35 21.7 851.35 25.95 960.0 30.05 1073.95 34.85 1115.25 36.55 1121.95 36.85" fill="#000000" fill-opacity="0.14901961" fill-rule="evenodd" stroke="none"/>
    <path d="M1265.2 44.15 L1265.2 37.25 1130.95 37.0 1115.25 36.55 1073.95 34.85 960.0 30.05 851.35 25.95 729.35 21.7 665.1 19.8 643.8 19.25 Q595.85 17.9 551.7 16.95 491.2 15.45 437.5 14.75 364.25 13.65 303.45 13.65 245.35 13.65 198.65 14.75 L120.35 17.6 Q23.9 22.95 5.45 35.25 L5.05 85.0 Q4.9 86.75 5.05 88.55 L4.9 92.1 5.05 92.1 0.0 680.3 Q16.35 686.2 32.5 689.2 64.6 695.05 62.85 680.3 L99.45 683.15 Q142.5 684.7 174.85 677.3 L756.6 686.05 756.95 686.05 1158.65 692.05 1192.8 684.25 Q1224.25 679.2 1210.55 692.05 1195.95 705.85 1222.6 709.4 1246.65 712.55 1265.2 706.8 L1265.2 44.15 Z" fill="none" stroke="#000000" stroke-linecap="round" stroke-linejoin="miter-clip" stroke-miterlimit="4.0" stroke-width="1.0"/>
    <path d="M739.85 651.05 Q747.9 682.1 756.65 686.05 L746.0 685.9 Q742.6 675.1 739.85 651.05" fill="#000000" fill-opacity="0.2" fill-rule="evenodd" stroke="none"/>
    <path d="M1073.95 34.85 Q1074.05 135.0 1076.0 241.85 1080.1 470.85 1090.35 509.5 1093.75 508.55 1097.7 498.15 1099.9 491.9 1102.35 482.3 1115.35 430.65 1120.4 309.2 M967.35 665.55 Q972.0 615.55 970.35 460.85 969.55 387.75 967.35 291.45 964.2 154.65 960.0 30.05 M851.35 25.95 Q846.7 112.6 843.45 211.65 835.8 437.1 844.5 488.9 M739.85 651.05 Q730.3 565.95 728.65 314.4 727.7 163.8 729.35 21.7 M739.85 651.05 Q742.6 675.1 746.0 685.9 M643.8 19.25 Q649.55 81.15 653.1 143.85 661.3 286.0 647.65 291.6 633.95 297.05 629.85 256.6 L628.5 214.9 M551.7 585.05 Q545.15 562.65 547.9 283.1 549.1 148.5 551.7 16.95 M437.5 14.75 Q439.4 135.25 442.4 265.35 448.55 538.5 453.6 591.9 M198.65 14.75 Q191.0 92.75 186.2 169.0 176.8 317.8 189.1 321.35 L191.25 320.95 191.95 320.55 Q206.85 310.55 212.85 253.6 214.75 235.4 215.45 214.5 L215.85 197.3 M306.05 491.9 Q307.4 464.55 307.8 416.85 308.35 339.55 306.7 208.8 305.35 104.1 303.45 13.65 M125.7 591.9 L120.35 17.6 M60.1 32.4 L60.1 432.85" fill="none" stroke="#000000" stroke-linecap="round" stroke-linejoin="miter-clip" stroke-miterlimit="4.0" stroke-opacity="0.2" stroke-width="1.0"/>
  </g>
</svg>
