<?xml version="1.0" encoding="UTF-8" standalone="no"?>
<svg xmlns:xlink="http://www.w3.org/1999/xlink" height="148.25px" width="192.7px" xmlns="http://www.w3.org/2000/svg">
  <g transform="matrix(1.0, 0.0, 0.0, 1.0, 96.35, 103.1)">
    <path d="M-24.3 14.3 L-24.3 14.35 -24.5 14.2 -24.3 14.3 M39.15 10.05 L39.2 9.9 39.4 9.8 39.15 10.05" fill="#999999" fill-rule="evenodd" stroke="none"/>
    <path d="M4.85 -97.7 Q3.8 -99.2 4.2 -100.4 4.6 -101.65 6.15 -102.05 7.75 -102.45 9.15 -101.65 10.7 -100.7 11.05 -98.6 10.6 -101.55 14.2 -101.95 16.15 -102.15 19.85 -102.0 20.3 -98.25 17.5 -94.4 L19.85 -94.65 Q20.7 -90.75 18.15 -87.6 20.1 -89.9 22.2 -89.95 24.55 -90.0 24.95 -86.75 L26.2 -90.95 Q26.6 -90.3 29.3 -87.85 30.35 -92.1 36.2 -94.05 35.9 -92.5 35.75 -89.25 38.75 -92.05 41.85 -92.1 45.05 -92.15 41.55 -87.9 46.45 -90.4 47.95 -87.25 48.55 -86.0 47.75 -84.75 46.9 -83.35 44.7 -82.8 L46.9 -82.7 Q47.0 -80.05 44.9 -77.0 L40.95 -72.1 Q44.85 -74.3 45.75 -69.8 46.9 -72.5 48.75 -72.95 50.75 -73.45 52.2 -70.95 L56.6 -72.45 Q59.05 -72.9 60.65 -71.45 L57.95 -68.3 Q62.4 -69.1 65.2 -66.9 L62.95 -64.65 Q66.6 -64.05 69.0 -61.4 67.55 -58.55 61.7 -58.25 65.7 -57.9 67.25 -56.3 68.6 -54.85 67.55 -53.3 66.55 -51.75 64.1 -51.5 61.3 -51.15 58.25 -52.95 61.2 -51.0 62.05 -47.65 58.7 -47.3 55.85 -49.35 57.55 -46.55 57.0 -43.2 50.45 -46.05 48.35 -48.0 48.8 -46.75 48.8 -42.55 L46.0 -46.35 Q48.45 -41.55 46.3 -38.85 44.1 -36.05 40.2 -39.95 41.2 -37.05 38.8 -34.85 37.1 -36.7 33.15 -38.5 33.85 -34.45 30.8 -32.45 32.1 -32.9 33.05 -33.45 L33.3 -32.65 33.95 -34.3 36.35 -32.8 37.45 -31.4 37.7 -30.6 38.4 -31.4 39.2 -32.0 40.65 -33.0 40.65 -31.4 Q40.45 -29.85 39.5 -28.15 L37.0 -23.75 40.65 -24.15 Q40.8 -22.45 39.65 -20.35 L37.65 -16.75 Q42.65 -19.7 44.4 -19.75 L44.75 -18.45 Q44.9 -20.9 47.0 -22.35 L50.05 -19.3 Q48.8 -20.8 49.7 -23.7 50.45 -26.15 52.05 -28.1 54.25 -26.15 55.0 -24.15 54.4 -27.05 57.1 -29.4 60.8 -27.1 58.95 -22.6 60.3 -25.05 61.35 -25.45 62.3 -25.8 62.7 -24.45 63.7 -21.2 61.1 -17.3 L66.45 -18.5 65.8 -15.8 Q67.5 -19.2 69.05 -21.1 71.85 -19.4 71.85 -15.5 72.4 -19.0 74.9 -20.75 77.45 -22.45 80.9 -21.65 81.15 -18.55 79.15 -15.05 81.45 -15.65 82.15 -16.0 81.4 -13.05 79.3 -9.85 85.15 -11.95 87.9 -11.65 L88.45 -11.55 Q88.35 -10.35 87.9 -9.4 87.15 -7.85 85.45 -7.15 L87.9 -6.6 Q90.35 -5.9 91.75 -4.7 94.15 -2.75 87.95 -2.1 88.35 -1.7 93.55 -0.5 96.95 0.3 95.35 3.3 L91.9 3.25 Q96.0 5.15 94.95 8.25 94.0 11.0 90.4 11.85 L89.7 11.95 90.4 11.85 Q91.7 11.65 92.95 12.25 95.7 13.65 94.75 17.2 90.55 15.85 87.9 14.65 86.6 14.05 85.65 13.5 87.2 14.45 87.9 17.25 L88.1 18.15 87.9 18.15 Q84.9 17.8 83.45 16.95 86.75 19.0 85.0 20.95 83.3 22.9 79.95 22.4 82.9 24.75 81.85 26.9 80.75 29.1 78.5 26.6 79.45 28.15 79.1 29.55 78.75 30.9 77.55 31.5 74.45 33.0 72.15 28.8 72.65 32.9 69.8 32.65 67.1 32.4 66.6 29.25 67.1 33.3 64.0 35.6 61.35 33.15 57.05 26.9 57.75 29.75 56.05 31.5 54.25 33.35 52.15 30.65 53.9 34.4 51.05 35.6 48.3 36.75 46.45 33.45 48.25 36.95 45.8 39.85 42.55 39.0 41.3 35.7 41.55 39.0 39.95 41.7 38.75 40.7 37.6 38.6 L35.65 35.05 34.45 38.6 Q30.1 36.85 29.85 31.75 29.0 33.75 28.05 38.6 25.35 38.45 24.15 35.45 23.7 37.65 22.35 39.2 L20.85 38.35 22.7 35.3 Q23.6 33.85 28.1 28.35 32.6 22.8 41.7 17.8 40.0 16.25 40.1 14.25 38.4 15.15 36.95 16.0 L37.75 13.8 37.05 14.05 37.85 11.7 Q38.25 10.75 39.15 10.05 L39.4 9.8 39.2 9.9 Q35.4 11.3 32.6 10.9 L32.85 10.4 Q22.9 25.2 15.6 29.85 L15.55 29.85 Q9.9 15.35 11.15 3.4 11.95 -4.05 13.8 -11.8 L15.55 -18.0 15.6 -18.1 Q19.8 -26.15 23.35 -31.4 L23.9 -32.15 Q23.1 -33.8 23.0 -35.15 L23.0 -35.25 23.0 -35.35 23.0 -35.45 23.0 -35.55 18.8 -32.05 18.95 -33.9 19.25 -39.2 Q18.5 -38.25 17.2 -37.5 L15.0 -36.3 Q16.05 -38.8 16.75 -39.75 13.5 -37.9 10.7 -38.7 12.75 -41.3 15.2 -42.65 L14.15 -42.6 Q12.6 -42.65 12.3 -43.6 11.5 -46.2 18.05 -47.55 11.5 -46.2 12.3 -43.6 12.6 -42.65 14.15 -42.6 L15.2 -42.65 Q16.45 -42.9 17.9 -43.8 16.45 -42.9 15.2 -42.65 12.75 -41.3 10.7 -38.7 13.5 -37.9 16.75 -39.75 16.05 -38.8 15.0 -36.3 L17.2 -37.5 Q18.5 -38.25 19.25 -39.2 L18.95 -33.9 16.85 -31.4 15.6 -29.8 Q12.6 -25.85 11.15 -23.0 7.35 -15.45 4.85 -13.55 1.8 -29.45 1.65 -40.35 L1.65 -41.35 0.65 -40.15 Q-0.8 -38.85 -2.05 -39.6 L-2.2 -28.9 Q-2.25 -18.8 -1.8 -11.7 L-1.45 -6.65 -1.75 2.1 Q-2.4 11.35 -3.95 14.1 -10.7 14.65 -19.2 11.75 -18.7 13.0 -18.5 14.65 L-24.3 14.3 -24.5 14.2 -24.3 14.35 Q-23.3 15.1 -22.65 16.1 L-17.85 17.75 Q-9.25 21.35 -3.6 30.95 L-3.85 34.15 Q-4.0 37.0 -5.25 38.1 -6.65 36.8 -7.5 33.9 -8.4 30.65 -9.25 29.55 -9.7 28.95 -11.7 28.35 -13.3 27.85 -13.85 26.3 -12.85 29.45 -14.0 32.3 -17.2 32.15 -18.95 28.65 -18.1 31.3 -18.5 36.05 -23.15 36.95 -23.95 32.55 -25.05 35.25 -24.8 39.2 -28.85 38.9 -28.95 34.45 -30.8 37.15 -30.5 40.45 -33.65 39.65 -33.8 32.4 -34.65 35.1 -36.75 35.4 -38.8 35.75 -39.7 33.3 -38.75 36.4 -39.3 39.85 -43.15 39.7 -44.25 35.7 L-44.5 40.15 Q-44.95 42.95 -46.7 43.1 -48.55 43.25 -49.95 40.9 -51.05 39.0 -51.15 37.25 -51.0 43.7 -54.05 44.55 -57.1 45.35 -56.95 38.1 -59.1 42.9 -60.7 43.35 -62.55 43.9 -62.6 37.45 L-64.65 41.35 Q-65.85 43.6 -68.05 43.6 -68.25 41.3 -67.0 38.0 L-64.95 32.55 Q-66.5 34.6 -68.35 34.25 -70.25 33.85 -70.65 31.35 -72.45 37.3 -73.95 39.25 -76.3 37.35 -75.65 32.55 -78.55 39.95 -80.35 37.9 -82.2 35.9 -79.55 29.4 -82.2 33.25 -85.65 32.9 -85.75 28.85 -82.05 23.8 -85.8 26.3 -89.45 26.0 -89.05 23.85 -85.8 19.4 -91.05 22.6 -93.4 19.75 -92.15 17.85 -87.25 13.4 -89.65 14.5 -91.75 14.05 -93.6 13.65 -94.4 12.3 -95.15 10.95 -94.25 9.7 -93.2 8.3 -90.35 7.8 -93.55 8.2 -95.0 7.05 -96.25 6.05 -95.7 4.35 -95.2 2.6 -93.35 1.45 -91.4 0.15 -88.95 0.25 -91.35 0.05 -91.95 -0.9 -92.5 -1.75 -91.45 -2.95 -88.75 -5.8 -83.9 -5.5 -85.0 -6.2 -85.45 -7.2 L-86.3 -9.05 -82.05 -8.8 Q-84.4 -9.5 -85.65 -12.8 -82.85 -14.5 -79.5 -14.35 -80.5 -14.7 -83.8 -17.85 -81.1 -19.35 -78.6 -18.25 -80.55 -19.7 -80.7 -21.75 -80.85 -24.0 -78.7 -25.4 -76.9 -26.55 -73.3 -25.05 L-68.35 -22.45 -69.3 -26.05 Q-65.8 -26.35 -63.85 -23.9 L-65.2 -28.45 Q-64.2 -27.25 -61.25 -25.65 -58.55 -24.2 -58.05 -23.65 -61.3 -27.95 -58.55 -28.85 -55.95 -29.7 -52.7 -27.05 -55.65 -29.55 -55.95 -31.35 -56.2 -32.95 -54.3 -33.55 -50.1 -34.85 -45.15 -31.6 -47.3 -33.35 -47.95 -37.45 L-43.55 -36.15 Q-45.1 -37.0 -45.65 -37.95 -46.85 -39.9 -44.55 -42.3 L-44.55 -42.4 -48.55 -43.3 Q-47.95 -47.8 -46.35 -50.1 L-53.6 -49.55 Q-51.75 -51.9 -48.85 -53.7 L-49.35 -54.35 -53.55 -53.3 -53.55 -55.0 -50.95 -55.55 -48.2 -55.7 -52.95 -59.35 Q-55.75 -61.95 -50.4 -61.4 L-52.5 -65.85 Q-49.35 -67.45 -46.35 -65.1 -46.9 -65.85 -46.95 -66.65 L-47.3 -68.25 -42.0 -67.55 -36.9 -66.4 Q-39.65 -68.15 -42.25 -72.0 -41.05 -71.3 -38.15 -70.8 L-41.0 -76.35 -35.3 -76.5 Q-36.1 -76.9 -36.55 -78.6 -37.05 -80.4 -36.6 -82.05 L-32.8 -81.8 Q-31.2 -80.85 -31.0 -78.6 -31.2 -85.45 -21.85 -77.8 L-24.85 -82.55 Q-26.5 -85.4 -26.5 -87.75 -23.05 -87.0 -20.6 -85.3 -22.4 -86.65 -23.65 -89.35 -24.95 -92.25 -24.6 -94.7 -20.35 -95.6 -18.1 -92.45 -19.7 -94.8 -19.4 -96.5 -19.15 -98.05 -17.55 -98.3 -16.0 -98.6 -14.35 -97.4 -12.45 -96.05 -11.5 -93.45 -11.95 -94.75 -11.6 -97.1 -11.2 -99.65 -10.25 -100.55 -7.8 -99.1 -6.7 -96.2 L-6.4 -97.85 Q-1.9 -97.25 -0.15 -93.25 -1.0 -95.35 -0.7 -100.35 2.95 -100.0 4.85 -97.7 L5.25 -97.2 4.85 -97.7 M31.3 -41.25 Q31.1 -37.95 29.55 -35.8 28.65 -34.55 26.25 -35.4 25.6 -32.75 24.25 -31.4 L23.9 -32.15 24.25 -31.4 Q25.6 -32.75 26.25 -35.4 28.65 -34.55 29.55 -35.8 31.1 -37.95 31.3 -41.25 M9.9 -59.5 Q11.2 -58.45 10.95 -57.4 10.7 -56.5 9.4 -56.05 6.3 -55.05 4.55 -57.45 8.65 -51.25 7.9 -50.0 6.95 -48.45 4.95 -49.45 4.2 -49.85 3.65 -50.3 L2.6 -51.75 3.65 -50.3 Q4.2 -49.85 4.95 -49.45 6.95 -48.45 7.9 -50.0 8.65 -51.25 4.55 -57.45 L4.25 -57.85 4.55 -57.45 Q6.3 -55.05 9.4 -56.05 10.7 -56.5 10.95 -57.4 11.2 -58.45 9.9 -59.5 M35.7 -8.55 Q34.05 -10.05 31.9 -10.6 27.85 -8.8 29.0 -6.35 29.95 -4.3 33.15 -4.45 28.25 -3.75 26.95 -0.95 30.45 0.15 33.0 -0.35 L28.35 1.55 Q30.1 1.25 33.75 1.65 L30.25 6.45 32.65 6.85 35.0 6.65 Q34.15 7.5 32.85 10.4 34.15 7.5 35.0 6.65 L32.65 6.85 30.25 6.45 33.75 1.65 Q30.1 1.25 28.35 1.55 L33.0 -0.35 Q30.45 0.15 26.95 -0.95 28.25 -3.75 33.15 -4.45 29.95 -4.3 29.0 -6.35 27.85 -8.8 31.9 -10.6 34.05 -10.05 35.7 -8.55 M3.65 -50.3 Q5.25 -47.9 6.0 -45.2 4.4 -43.7 2.45 -43.9 L1.7 -45.45 1.9 -44.5 2.0 -42.75 1.65 -41.35 2.0 -42.75 1.9 -44.5 1.7 -45.45 2.45 -43.9 Q4.4 -43.7 6.0 -45.2 5.25 -47.9 3.65 -50.3 M25.95 -11.35 Q24.55 -12.75 24.5 -14.6 24.45 -17.2 27.05 -19.15 30.25 -17.4 31.3 -14.2 30.25 -17.4 27.05 -19.15 24.45 -17.2 24.5 -14.6 24.55 -12.75 25.95 -11.35 L27.3 -10.35 25.95 -11.35 23.15 -13.35 Q20.25 -15.15 18.65 -13.6 16.45 -11.5 19.0 -9.6 21.05 -8.1 23.55 -7.9 19.3 -7.8 16.85 -4.9 20.85 -3.95 22.25 -4.1 18.25 -3.5 15.75 -1.1 19.2 0.05 21.65 -0.7 17.45 1.1 15.65 3.9 17.85 5.25 20.6 4.7 17.85 5.25 15.65 3.9 17.45 1.1 21.65 -0.7 19.2 0.05 15.75 -1.1 18.25 -3.5 22.25 -4.1 20.85 -3.95 16.85 -4.9 19.3 -7.8 23.55 -7.9 21.05 -8.1 19.0 -9.6 16.45 -11.5 18.65 -13.6 20.25 -15.15 23.15 -13.35 L25.95 -11.35 M34.4 -4.6 L33.15 -4.45 34.4 -4.6 M71.55 0.9 Q74.0 3.4 72.85 5.6 71.75 7.8 68.45 5.55 70.0 8.0 70.25 11.45 L67.8 12.0 Q66.9 12.15 65.5 11.15 67.3 15.3 64.25 16.0 63.15 16.25 62.4 15.45 61.6 14.6 62.0 12.95 60.75 16.2 60.1 19.1 58.5 18.05 58.25 15.5 L58.2 11.0 Q56.6 11.4 54.2 11.0 L54.45 16.55 Q50.85 16.4 49.65 14.8 50.45 19.8 47.55 19.05 46.15 18.7 44.8 15.85 43.15 17.95 41.95 18.0 L41.7 17.8 41.95 18.0 Q43.15 17.95 44.8 15.85 46.15 18.7 47.55 19.05 50.45 19.8 49.65 14.8 50.85 16.4 54.45 16.55 L54.2 11.0 Q56.6 11.4 58.2 11.0 L58.25 15.5 Q58.5 18.05 60.1 19.1 60.75 16.2 62.0 12.95 61.6 14.6 62.4 15.45 63.15 16.25 64.25 16.0 67.3 15.3 65.5 11.15 66.9 12.15 67.8 12.0 L70.25 11.45 Q70.0 8.0 68.45 5.55 71.75 7.8 72.85 5.6 74.0 3.4 71.55 0.9 M66.5 28.8 L66.6 29.25 66.5 28.8 M46.3 33.2 L46.45 33.45 46.3 33.2 M40.1 14.25 Q40.15 13.1 40.75 11.8 39.7 13.05 37.75 13.8 39.7 13.05 40.75 11.8 40.15 13.1 40.1 14.25 M-44.45 -31.1 L-45.15 -31.6 -44.45 -31.1 M-52.7 -27.05 L-52.5 -26.9 -52.7 -27.05 M-1.8 -11.7 L-3.9 -11.3 -5.15 -10.15 Q-4.95 -11.5 -5.4 -12.75 -6.1 -14.45 -7.75 -15.4 -9.35 -16.3 -10.5 -15.7 -11.75 -15.05 -11.5 -12.85 -12.4 -15.6 -15.35 -15.1 -15.05 -19.0 -16.05 -21.05 -16.35 -21.75 -17.95 -20.0 L-18.2 -19.7 Q-18.05 -22.6 -18.6 -23.3 -19.55 -24.6 -21.1 -24.3 -22.6 -24.05 -23.2 -22.55 -23.95 -20.85 -22.9 -18.65 L-24.45 -19.55 -27.0 -19.45 Q-28.65 -18.4 -27.35 -15.5 -28.35 -17.3 -30.0 -17.3 -31.6 -17.3 -32.8 -15.55 -29.85 -20.55 -31.8 -25.05 L-31.65 -28.65 -31.65 -28.7 -31.7 -29.1 Q-32.15 -31.9 -34.05 -33.05 L-34.95 -30.75 -35.4 -29.1 -35.4 -28.65 -35.4 -28.25 -35.6 -28.65 -35.95 -29.1 -36.9 -30.0 -38.45 -31.1 -39.1 -29.1 -39.2 -28.65 Q-39.4 -26.85 -38.6 -25.1 -39.4 -25.85 -40.5 -26.15 L-41.4 -26.4 -42.25 -26.7 Q-42.6 -24.3 -41.4 -22.2 L-41.1 -21.75 -41.4 -22.2 Q-42.6 -24.3 -42.25 -26.7 L-41.4 -26.4 -40.5 -26.15 Q-39.4 -25.85 -38.6 -25.1 -39.4 -26.85 -39.2 -28.65 L-39.1 -29.1 -38.45 -31.1 -36.9 -30.0 -35.95 -29.1 -35.6 -28.65 -35.4 -28.25 -35.4 -28.65 -35.4 -29.1 -34.95 -30.75 -34.05 -33.05 Q-32.15 -31.9 -31.7 -29.1 L-31.65 -28.7 -31.65 -28.65 -31.8 -25.05 Q-29.85 -20.55 -32.8 -15.55 -31.6 -17.3 -30.0 -17.3 -28.35 -17.3 -27.35 -15.5 -28.65 -18.4 -27.0 -19.45 L-24.45 -19.55 -22.9 -18.65 Q-23.95 -20.85 -23.2 -22.55 -22.6 -24.05 -21.1 -24.3 -19.55 -24.6 -18.6 -23.3 -18.05 -22.6 -18.2 -19.7 L-17.95 -20.0 Q-16.35 -21.75 -16.05 -21.05 -15.05 -19.0 -15.35 -15.1 -12.4 -15.6 -11.5 -12.85 -11.75 -15.05 -10.5 -15.7 -9.35 -16.3 -7.75 -15.4 -6.1 -14.45 -5.4 -12.75 -4.95 -11.5 -5.15 -10.15 L-3.9 -11.3 -1.8 -11.7 M-20.95 -50.7 Q-24.15 -49.95 -26.35 -47.6 -28.7 -45.05 -28.4 -42.0 -25.15 -41.1 -21.0 -44.8 -22.8 -41.95 -23.4 -38.75 -20.45 -40.3 -18.55 -42.45 -19.5 -37.7 -16.75 -37.35 -14.05 -37.0 -13.9 -41.7 -12.6 -36.85 -9.7 -36.3 -9.85 -40.0 -9.0 -43.6 -8.0 -39.2 -4.05 -39.45 -3.8 -41.5 -3.9 -42.6 L-3.95 -42.95 -3.9 -42.6 Q-3.6 -40.75 -2.45 -39.85 L-2.05 -39.6 -2.45 -39.85 Q-3.6 -40.75 -3.9 -42.6 -3.8 -41.5 -4.05 -39.45 -8.0 -39.2 -9.0 -43.6 -9.85 -40.0 -9.7 -36.3 -12.6 -36.85 -13.9 -41.7 -14.05 -37.0 -16.75 -37.35 -19.5 -37.7 -18.55 -42.45 -20.45 -40.3 -23.4 -38.75 -22.8 -41.95 -21.0 -44.8 -25.15 -41.1 -28.4 -42.0 -28.7 -45.05 -26.35 -47.6 -24.15 -49.95 -20.95 -50.7 M-5.7 -8.6 L-5.15 -10.15 -5.7 -8.6 M-22.65 16.1 Q-21.45 17.85 -21.65 20.3 L-24.25 20.0 Q-25.6 19.75 -26.7 18.75 -25.7 20.45 -26.05 23.45 -29.3 23.85 -32.15 20.45 -31.95 22.2 -32.4 26.0 -35.75 23.75 -35.55 18.7 -37.1 23.7 -39.85 24.75 -40.65 22.7 -39.85 20.35 -39.1 18.05 -37.3 16.65 -39.1 18.05 -39.85 20.35 -40.65 22.7 -39.85 24.75 -37.1 23.7 -35.55 18.7 -35.75 23.75 -32.4 26.0 -31.95 22.2 -32.15 20.45 -29.3 23.85 -26.05 23.45 -25.7 20.45 -26.7 18.75 -25.6 19.75 -24.25 20.0 L-21.65 20.3 Q-21.45 17.85 -22.65 16.1 M-24.7 -0.35 Q-21.9 -0.65 -19.65 0.7 -17.35 2.1 -16.6 4.7 -20.25 4.95 -21.05 4.65 -18.25 6.2 -16.6 9.75 L-18.6 9.9 Q-19.45 10.0 -20.75 9.3 -19.75 10.25 -19.2 11.75 -19.75 10.25 -20.75 9.3 -19.45 10.0 -18.6 9.9 L-16.6 9.75 Q-18.25 6.2 -21.05 4.65 -20.25 4.95 -16.6 4.7 -17.35 2.1 -19.65 0.7 -21.9 -0.65 -24.7 -0.35 M-51.15 36.95 L-51.15 37.25 -51.15 36.95" fill="#ffffff" fill-opacity="0.0" fill-rule="evenodd" stroke="none"/>
    <path d="M90.4 11.85 Q94.0 11.0 94.95 8.25 96.0 5.15 91.9 3.25 L95.35 3.3 Q96.95 0.3 93.55 -0.5 88.35 -1.7 87.95 -2.1 94.15 -2.75 91.75 -4.7 90.35 -5.9 87.9 -6.6 L85.45 -7.15 Q87.15 -7.85 87.9 -9.4 88.35 -10.35 88.45 -11.55 L87.9 -11.65 Q85.15 -11.95 79.3 -9.85 81.4 -13.05 82.15 -16.0 81.45 -15.65 79.15 -15.05 81.15 -18.55 80.9 -21.65 77.45 -22.45 74.9 -20.75 72.4 -19.0 71.85 -15.5 71.85 -19.4 69.05 -21.1 67.5 -19.2 65.8 -15.8 L66.45 -18.5 61.1 -17.3 Q63.7 -21.2 62.7 -24.45 62.3 -25.8 61.35 -25.45 60.3 -25.05 58.95 -22.6 60.8 -27.1 57.1 -29.4 54.4 -27.05 55.0 -24.15 54.25 -26.15 52.05 -28.1 50.45 -26.15 49.7 -23.7 48.8 -20.8 50.05 -19.3 L47.0 -22.35 Q44.9 -20.9 44.75 -18.45 L44.4 -19.75 Q42.65 -19.7 37.65 -16.75 L39.65 -20.35 Q40.8 -22.45 40.65 -24.15 L37.0 -23.75 39.5 -28.15 Q40.45 -29.85 40.65 -31.4 L40.65 -33.0 39.2 -32.0 38.4 -31.4 37.7 -30.6 37.45 -31.4 36.35 -32.8 33.95 -34.3 33.3 -32.65 33.05 -33.45 Q32.1 -32.9 30.8 -32.45 33.85 -34.45 33.15 -38.5 37.1 -36.7 38.8 -34.85 41.2 -37.05 40.2 -39.95 44.1 -36.05 46.3 -38.85 48.45 -41.55 46.0 -46.35 L48.8 -42.55 Q48.8 -46.75 48.35 -48.0 50.45 -46.05 57.0 -43.2 57.55 -46.55 55.85 -49.35 58.7 -47.3 62.05 -47.65 61.2 -51.0 58.25 -52.95 61.3 -51.15 64.1 -51.5 66.55 -51.75 67.55 -53.3 68.6 -54.85 67.25 -56.3 65.7 -57.9 61.7 -58.25 67.55 -58.55 69.0 -61.4 66.6 -64.05 62.95 -64.65 L65.2 -66.9 Q62.4 -69.1 57.95 -68.3 L60.65 -71.45 Q59.05 -72.9 56.6 -72.45 L52.2 -70.95 Q50.75 -73.45 48.75 -72.95 46.9 -72.5 45.75 -69.8 44.85 -74.3 40.95 -72.1 L44.9 -77.0 Q47.0 -80.05 46.9 -82.7 L44.7 -82.8 Q46.9 -83.35 47.75 -84.75 48.55 -86.0 47.95 -87.25 46.45 -90.4 41.55 -87.9 45.05 -92.15 41.85 -92.1 38.75 -92.05 35.75 -89.25 35.9 -92.5 36.2 -94.05 30.35 -92.1 29.3 -87.85 26.6 -90.3 26.2 -90.95 L24.95 -86.75 Q24.55 -90.0 22.2 -89.95 20.1 -89.9 18.15 -87.6 20.7 -90.75 19.85 -94.65 L17.5 -94.4 Q20.3 -98.25 19.85 -102.0 16.15 -102.15 14.2 -101.95 10.6 -101.55 11.05 -98.6 10.7 -100.7 9.15 -101.65 7.75 -102.45 6.15 -102.05 4.6 -101.65 4.2 -100.4 3.8 -99.2 4.85 -97.7 L5.25 -97.2 M-3.6 30.95 L-3.85 34.15 Q-4.0 37.0 -5.25 38.1 -6.65 36.8 -7.5 33.9 -8.4 30.65 -9.25 29.55 -9.7 28.95 -11.7 28.35 -13.3 27.85 -13.85 26.3 -12.85 29.45 -14.0 32.3 -17.2 32.15 -18.95 28.65 -18.1 31.3 -18.5 36.05 -23.15 36.95 -23.95 32.55 -25.05 35.25 -24.8 39.2 -28.85 38.9 -28.95 34.45 -30.8 37.15 -30.5 40.45 -33.65 39.65 -33.8 32.4 -34.65 35.1 -36.75 35.4 -38.8 35.75 -39.7 33.3 -38.75 36.4 -39.3 39.85 -43.15 39.7 -44.25 35.7 L-44.5 40.15 Q-44.95 42.95 -46.7 43.1 -48.55 43.25 -49.95 40.9 -51.05 39.0 -51.15 37.25 -51.0 43.7 -54.05 44.55 -57.1 45.35 -56.95 38.1 -59.1 42.9 -60.7 43.35 -62.55 43.9 -62.6 37.45 L-64.65 41.35 Q-65.85 43.6 -68.05 43.6 -68.25 41.3 -67.0 38.0 L-64.95 32.55 Q-66.5 34.6 -68.35 34.25 -70.25 33.85 -70.65 31.35 -72.45 37.3 -73.95 39.25 -76.3 37.35 -75.65 32.55 -78.55 39.95 -80.35 37.9 -82.2 35.9 -79.55 29.4 -82.2 33.25 -85.65 32.9 -85.75 28.85 -82.05 23.8 -85.8 26.3 -89.45 26.0 -89.05 23.85 -85.8 19.4 -91.05 22.6 -93.4 19.75 -92.15 17.85 -87.25 13.4 -89.65 14.5 -91.75 14.05 -93.6 13.65 -94.4 12.3 -95.15 10.95 -94.25 9.7 -93.2 8.3 -90.35 7.8 -93.55 8.2 -95.0 7.05 -96.25 6.05 -95.7 4.35 -95.2 2.6 -93.35 1.45 -91.4 0.15 -88.95 0.25 -91.35 0.05 -91.95 -0.9 -92.5 -1.75 -91.45 -2.95 -88.75 -5.8 -83.9 -5.5 -85.0 -6.2 -85.45 -7.2 L-86.3 -9.05 -82.05 -8.8 Q-84.4 -9.5 -85.65 -12.8 -82.85 -14.5 -79.5 -14.35 -80.5 -14.7 -83.8 -17.85 -81.1 -19.35 -78.6 -18.25 -80.55 -19.7 -80.7 -21.75 -80.85 -24.0 -78.7 -25.4 -76.9 -26.55 -73.3 -25.05 L-68.35 -22.45 -69.3 -26.05 Q-65.8 -26.35 -63.85 -23.9 L-65.2 -28.45 Q-64.2 -27.25 -61.25 -25.65 -58.55 -24.2 -58.05 -23.65 -61.3 -27.95 -58.55 -28.85 -55.95 -29.7 -52.7 -27.05 -55.65 -29.55 -55.95 -31.35 -56.2 -32.95 -54.3 -33.55 -50.1 -34.85 -45.15 -31.6 -47.3 -33.35 -47.95 -37.45 L-43.55 -36.15 Q-45.1 -37.0 -45.65 -37.95 -46.85 -39.9 -44.55 -42.3 L-44.55 -42.4 -48.55 -43.3 Q-47.95 -47.8 -46.35 -50.1 L-53.6 -49.55 Q-51.75 -51.9 -48.85 -53.7 L-49.35 -54.35 -53.55 -53.3 -53.55 -55.0 -50.95 -55.55 -48.2 -55.7 -52.95 -59.35 Q-55.75 -61.95 -50.4 -61.4 L-52.5 -65.85 Q-49.35 -67.45 -46.35 -65.1 -46.9 -65.85 -46.95 -66.65 L-47.3 -68.25 -42.0 -67.55 -36.9 -66.4 Q-39.65 -68.15 -42.25 -72.0 -41.05 -71.3 -38.15 -70.8 L-41.0 -76.35 -35.3 -76.5 Q-36.1 -76.9 -36.55 -78.6 -37.05 -80.4 -36.6 -82.05 L-32.8 -81.8 Q-31.2 -80.85 -31.0 -78.6 -31.2 -85.45 -21.85 -77.8 L-24.85 -82.55 Q-26.5 -85.4 -26.5 -87.75 -23.05 -87.0 -20.6 -85.3 -22.4 -86.65 -23.65 -89.35 -24.95 -92.25 -24.6 -94.7 -20.35 -95.6 -18.1 -92.45 -19.7 -94.8 -19.4 -96.5 -19.15 -98.05 -17.55 -98.3 -16.0 -98.6 -14.35 -97.4 -12.45 -96.05 -11.5 -93.45 -11.95 -94.75 -11.6 -97.1 -11.2 -99.65 -10.25 -100.55 -7.8 -99.1 -6.7 -96.2 L-6.4 -97.85 Q-1.9 -97.25 -0.15 -93.25 -1.0 -95.35 -0.7 -100.35 2.95 -100.0 4.85 -97.7 M89.7 11.95 L90.4 11.85 Q91.7 11.65 92.95 12.25 95.7 13.65 94.75 17.2 90.55 15.85 87.9 14.65 86.6 14.05 85.65 13.5 87.2 14.45 87.9 17.25 L88.1 18.15 87.9 18.15 Q84.9 17.8 83.45 16.95 86.75 19.0 85.0 20.95 83.3 22.9 79.95 22.4 82.9 24.75 81.85 26.9 80.75 29.1 78.5 26.6 79.45 28.15 79.1 29.55 78.75 30.9 77.55 31.5 74.45 33.0 72.15 28.8 72.65 32.9 69.8 32.65 67.1 32.4 66.6 29.25 67.1 33.3 64.0 35.6 61.35 33.15 57.05 26.9 57.75 29.75 56.05 31.5 54.25 33.35 52.15 30.65 53.9 34.4 51.05 35.6 48.3 36.75 46.45 33.45 48.25 36.95 45.8 39.85 42.55 39.0 41.3 35.7 41.55 39.0 39.95 41.7 38.75 40.7 37.6 38.6 L35.65 35.05 34.45 38.6 Q30.1 36.85 29.85 31.75 29.0 33.75 28.05 38.6 25.35 38.45 24.15 35.45 23.7 37.65 22.35 39.2 L20.85 38.35 M46.45 33.45 L46.3 33.2 M66.6 29.25 L66.5 28.8 M-52.5 -26.9 L-52.7 -27.05 M-45.15 -31.6 L-44.45 -31.1 M-51.15 37.25 L-51.15 36.95" fill="none" stroke="#000000" stroke-linecap="round" stroke-linejoin="miter-clip" stroke-miterlimit="3.0" stroke-width="1.0"/>
    <path d="M2.6 -51.75 L3.65 -50.3 Q4.2 -49.85 4.95 -49.45 6.95 -48.45 7.9 -50.0 8.65 -51.25 4.55 -57.45 L4.25 -57.85 M4.55 -57.45 Q6.3 -55.05 9.4 -56.05 10.7 -56.5 10.95 -57.4 11.2 -58.45 9.9 -59.5 M23.9 -32.15 L24.25 -31.4 Q25.6 -32.75 26.25 -35.4 28.65 -34.55 29.55 -35.8 31.1 -37.95 31.3 -41.25 M18.95 -33.9 L18.8 -32.05 23.0 -35.55 23.0 -35.45 23.0 -35.35 23.0 -35.25 23.0 -35.15 Q23.1 -33.8 23.9 -32.15 L23.35 -31.4 Q19.8 -26.15 15.6 -18.1 L15.55 -18.0 13.8 -11.8 Q11.95 -4.05 11.15 3.4 9.9 15.35 15.55 29.85 L15.6 29.85 Q22.9 25.2 32.85 10.4 34.15 7.5 35.0 6.65 L32.65 6.85 30.25 6.45 33.75 1.65 Q30.1 1.25 28.35 1.55 L33.0 -0.35 Q30.45 0.15 26.95 -0.95 28.25 -3.75 33.15 -4.45 29.95 -4.3 29.0 -6.35 27.85 -8.8 31.9 -10.6 34.05 -10.05 35.7 -8.55 M18.05 -47.55 Q11.5 -46.2 12.3 -43.6 12.6 -42.65 14.15 -42.6 L15.2 -42.65 Q16.45 -42.9 17.9 -43.8 M15.2 -42.65 Q12.75 -41.3 10.7 -38.7 13.5 -37.9 16.75 -39.75 16.05 -38.8 15.0 -36.3 L17.2 -37.5 Q18.5 -38.25 19.25 -39.2 L18.95 -33.9 16.85 -31.4 15.6 -29.8 Q12.6 -25.85 11.15 -23.0 7.35 -15.45 4.85 -13.55 1.8 -29.45 1.65 -40.35 L1.65 -41.35 0.65 -40.15 Q-0.8 -38.85 -2.05 -39.6 L-2.2 -28.9 Q-2.25 -18.8 -1.8 -11.7 L-1.45 -6.65 -1.75 2.1 Q-2.4 11.35 -3.95 14.1 -10.7 14.65 -19.2 11.75 -18.7 13.0 -18.5 14.65 L-24.3 14.3 -24.3 14.35 Q-23.3 15.1 -22.65 16.1 L-17.85 17.75 Q-9.25 21.35 -3.6 30.95 M1.65 -41.35 L2.0 -42.75 1.9 -44.5 1.7 -45.45 2.45 -43.9 Q4.4 -43.7 6.0 -45.2 5.25 -47.9 3.65 -50.3 M33.15 -4.45 L34.4 -4.6 M20.85 38.35 L22.7 35.3 Q23.6 33.85 28.1 28.35 32.6 22.8 41.7 17.8 40.0 16.25 40.1 14.25 38.4 15.15 36.95 16.0 L37.75 13.8 37.05 14.05 37.85 11.7 Q38.25 10.75 39.15 10.05 L39.2 9.9 Q35.4 11.3 32.6 10.9 L32.85 10.4 M41.7 17.8 L41.95 18.0 Q43.15 17.95 44.8 15.85 46.15 18.7 47.55 19.05 50.45 19.8 49.65 14.8 50.85 16.4 54.45 16.55 L54.2 11.0 Q56.6 11.4 58.2 11.0 L58.25 15.5 Q58.5 18.05 60.1 19.1 60.75 16.2 62.0 12.95 61.6 14.6 62.4 15.45 63.15 16.25 64.25 16.0 67.3 15.3 65.5 11.15 66.9 12.15 67.8 12.0 L70.25 11.45 Q70.0 8.0 68.45 5.55 71.75 7.8 72.85 5.6 74.0 3.4 71.55 0.9 M39.2 9.9 L39.4 9.8 39.15 10.05 M37.75 13.8 Q39.7 13.05 40.75 11.8 40.15 13.1 40.1 14.25 M-3.95 -42.95 L-3.9 -42.6 Q-3.6 -40.75 -2.45 -39.85 L-2.05 -39.6 M-3.9 -42.6 Q-3.8 -41.5 -4.05 -39.45 -8.0 -39.2 -9.0 -43.6 -9.85 -40.0 -9.7 -36.3 -12.6 -36.85 -13.9 -41.7 -14.05 -37.0 -16.75 -37.35 -19.5 -37.7 -18.55 -42.45 -20.45 -40.3 -23.4 -38.75 -22.8 -41.95 -21.0 -44.8 -25.15 -41.1 -28.4 -42.0 -28.7 -45.05 -26.35 -47.6 -24.15 -49.95 -20.95 -50.7 M-19.2 11.75 Q-19.75 10.25 -20.75 9.3 -19.45 10.0 -18.6 9.9 L-16.6 9.75 Q-18.25 6.2 -21.05 4.65 -20.25 4.95 -16.6 4.7 -17.35 2.1 -19.65 0.7 -21.9 -0.65 -24.7 -0.35 M-37.3 16.65 Q-39.1 18.05 -39.85 20.35 -40.65 22.7 -39.85 24.75 -37.1 23.7 -35.55 18.7 -35.75 23.75 -32.4 26.0 -31.95 22.2 -32.15 20.45 -29.3 23.85 -26.05 23.45 -25.7 20.45 -26.7 18.75 -25.6 19.75 -24.25 20.0 L-21.65 20.3 Q-21.45 17.85 -22.65 16.1 M-24.3 14.35 L-24.5 14.2 -24.3 14.3" fill="none" stroke="#000000" stroke-linecap="round" stroke-linejoin="miter-clip" stroke-miterlimit="3.0" stroke-opacity="0.6" stroke-width="1.0"/>
    <path d="M27.3 -10.35 L25.95 -11.35 23.15 -13.35 Q20.25 -15.15 18.65 -13.6 16.45 -11.5 19.0 -9.6 21.05 -8.1 23.55 -7.9 19.3 -7.8 16.85 -4.9 20.85 -3.95 22.25 -4.1 18.25 -3.5 15.75 -1.1 19.2 0.05 21.65 -0.7 17.45 1.1 15.65 3.9 17.85 5.25 20.6 4.7 M31.3 -14.2 Q30.25 -17.4 27.05 -19.15 24.45 -17.2 24.5 -14.6 24.55 -12.75 25.95 -11.35 M-41.1 -21.75 L-41.4 -22.2 Q-42.6 -24.3 -42.25 -26.7 L-41.4 -26.4 -40.5 -26.15 Q-39.4 -25.85 -38.6 -25.1 -39.4 -26.85 -39.2 -28.65 L-39.1 -29.1 -38.45 -31.1 -36.9 -30.0 -35.95 -29.1 -35.6 -28.65 -35.4 -28.25 -35.4 -28.65 -35.4 -29.1 -34.95 -30.75 -34.05 -33.05 Q-32.15 -31.9 -31.7 -29.1 L-31.65 -28.7 -31.65 -28.65 -31.8 -25.05 Q-29.85 -20.55 -32.8 -15.55 -31.6 -17.3 -30.0 -17.3 -28.35 -17.3 -27.35 -15.5 -28.65 -18.4 -27.0 -19.45 L-24.45 -19.55 -22.9 -18.65 Q-23.95 -20.85 -23.2 -22.55 -22.6 -24.05 -21.1 -24.3 -19.55 -24.6 -18.6 -23.3 -18.05 -22.6 -18.2 -19.7 L-17.95 -20.0 Q-16.35 -21.75 -16.05 -21.05 -15.05 -19.0 -15.35 -15.1 -12.4 -15.6 -11.5 -12.85 -11.75 -15.05 -10.5 -15.7 -9.35 -16.3 -7.75 -15.4 -6.1 -14.45 -5.4 -12.75 -4.95 -11.5 -5.15 -10.15 L-3.9 -11.3 -1.8 -11.7 M-5.15 -10.15 L-5.7 -8.6" fill="none" stroke="#000000" stroke-linecap="round" stroke-linejoin="miter-clip" stroke-miterlimit="3.0" stroke-opacity="0.4" stroke-width="1.0"/>
  </g>
</svg>
