<?xml version="1.0" encoding="UTF-8" standalone="no"?>
<svg xmlns:xlink="http://www.w3.org/1999/xlink" height="167.85px" width="126.3px" xmlns="http://www.w3.org/2000/svg">
  <g transform="matrix(1.0, 0.0, 0.0, 1.0, 63.15, 83.9)">
    <path d="M-53.7 74.3 L-53.7 -54.9 Q-53.4 -59.1 -51.4 -63.95 -47.5 -73.6 -39.45 -76.7" fill="none" stroke="#ffffff" stroke-linecap="butt" stroke-linejoin="miter-clip" stroke-miterlimit="4.0" stroke-opacity="0.49803922" stroke-width="3.0"/>
    <path d="M-56.85 74.25 L-56.85 -55.25 Q-55.75 -65.35 -50.4 -72.1 -46.35 -77.3 -40.15 -80.25 -33.4 -83.4 -26.05 -83.4 L31.45 -83.4 32.2 -83.15 Q45.1 -78.7 51.75 -67.0 56.7 -58.25 56.7 -49.35 L56.7 80.5 59.7 80.8 Q62.65 81.2 62.65 81.85 62.65 82.5 59.7 82.95 L52.45 83.45 45.2 82.95 Q42.2 82.5 42.2 81.85 42.2 81.2 45.2 80.8 L47.4 80.55 47.4 -49.35 Q47.3 -54.3 45.1 -59.6 40.6 -70.1 29.9 -74.1 L-26.3 -74.1 Q-31.3 -74.2 -36.4 -71.65 -46.1 -66.95 -47.55 -54.45 L-47.55 74.25 -45.1 74.55 Q-42.1 74.95 -42.1 75.55 -42.1 76.2 -45.1 76.7 L-52.35 77.15 -59.6 76.7 Q-62.65 76.2 -62.65 75.55 -62.65 74.95 -59.6 74.55 L-56.85 74.25 -52.35 74.05 -47.55 74.25 -52.35 74.05 -56.85 74.25 M56.7 80.5 L52.45 80.35 47.4 80.55 52.45 80.35 56.7 80.5" fill="#ffffff" fill-opacity="0.0" fill-rule="evenodd" stroke="none"/>
    <path d="M-56.85 74.25 L-56.85 -55.25 Q-55.75 -65.35 -50.4 -72.1 -46.35 -77.3 -40.15 -80.25 -33.4 -83.4 -26.05 -83.4 L31.45 -83.4 32.2 -83.15 Q45.1 -78.7 51.75 -67.0 56.7 -58.25 56.7 -49.35 L56.7 80.5 M47.4 80.55 L47.4 -49.35 Q47.3 -54.3 45.1 -59.6 40.6 -70.1 29.9 -74.1 L-26.3 -74.1 Q-31.3 -74.2 -36.4 -71.65 -46.1 -66.95 -47.55 -54.45 L-47.55 74.25" fill="none" stroke="#000000" stroke-linecap="round" stroke-linejoin="miter-clip" stroke-miterlimit="4.0" stroke-width="1.0"/>
    <path d="M56.7 80.5 L59.7 80.8 Q62.65 81.2 62.65 81.85 62.65 82.5 59.7 82.95 L52.45 83.45 45.2 82.95 Q42.2 82.5 42.2 81.85 42.2 81.2 45.2 80.8 L47.4 80.55 52.45 80.35 56.7 80.5 M-47.55 74.25 L-45.1 74.55 Q-42.1 74.95 -42.1 75.55 -42.1 76.2 -45.1 76.7 L-52.35 77.15 -59.6 76.7 Q-62.65 76.2 -62.65 75.55 -62.65 74.95 -59.6 74.55 L-56.85 74.25 -52.35 74.05 -47.55 74.25" fill="none" stroke="#000000" stroke-linecap="round" stroke-linejoin="miter-clip" stroke-miterlimit="4.0" stroke-opacity="0.6" stroke-width="1.0"/>
  </g>
</svg>
