<?xml version="1.0" encoding="UTF-8" standalone="no"?>
<svg xmlns:xlink="http://www.w3.org/1999/xlink" height="61.5px" width="36.6px" xmlns="http://www.w3.org/2000/svg">
  <g transform="matrix(1.0, 0.0, 0.0, 1.0, 17.8, 33.05)">
    <path d="M-0.15 -22.3 L-0.15 -2.8 5.45 -2.35 5.45 -21.65 8.05 -21.35 5.45 -21.65 -0.15 -22.3 -2.75 -22.6 -0.15 -22.3 M-9.95 -3.5 L-2.75 -3.0 -2.75 -22.6 -9.45 -23.4 -9.95 -3.5 -10.05 0.25 -9.95 -3.5 M-2.75 19.1 L-2.75 0.7 -10.05 0.25 -10.5 18.55 -2.75 19.1 -0.15 19.3 -2.75 19.1 M5.45 19.7 L5.45 1.25 -0.15 0.9 -0.15 19.3 5.45 19.7 8.05 19.85 5.45 19.7 M13.95 1.8 L8.05 1.4 8.05 19.85 13.95 20.25 13.95 1.8 13.95 -1.7 13.95 1.8 M8.05 -21.35 L8.05 -2.15 13.95 -1.7 13.95 -20.65 8.05 -21.35 M18.3 -27.35 L18.3 27.95 -14.85 25.65 -13.4 -31.1 18.3 -27.35" fill="#ffffff" fill-opacity="0.0" fill-rule="evenodd" stroke="none"/>
    <path d="M18.3 -27.35 L-13.4 -31.1 -14.85 25.65 18.3 27.95 18.3 -27.35" fill="none" stroke="#000000" stroke-linecap="butt" stroke-linejoin="miter-clip" stroke-miterlimit="4.0" stroke-width="1.0"/>
    <path d="M5.45 -21.65 L5.45 -2.35 -0.15 -2.8 -0.15 -22.3 -2.75 -22.6 -2.75 -3.0 -9.95 -3.5 -10.05 0.25 -2.75 0.7 -2.75 19.1 -0.15 19.3 -0.15 0.9 5.45 1.25 5.45 19.7 8.05 19.85 8.05 1.4 13.95 1.8 13.95 -1.7 8.05 -2.15 8.05 -21.35 5.45 -21.65 -0.15 -22.3 M8.05 -21.35 L13.95 -20.65 13.95 -1.7 M13.95 1.8 L13.95 20.25 8.05 19.85 M-9.95 -3.5 L-9.45 -23.4 -2.75 -22.6 M-2.75 19.1 L-10.5 18.55 -10.05 0.25 M5.45 19.7 L-0.15 19.3" fill="none" stroke="#000000" stroke-linecap="round" stroke-linejoin="miter-clip" stroke-miterlimit="4.0" stroke-opacity="0.4" stroke-width="1.0"/>
  </g>
</svg>
