<?xml version="1.0" encoding="UTF-8" standalone="no"?>
<svg xmlns:xlink="http://www.w3.org/1999/xlink" height="94.9px" width="176.55px" xmlns="http://www.w3.org/2000/svg">
  <g transform="matrix(1.0, 0.0, 0.0, 1.0, 88.25, 47.45)">
    <path d="M72.3 6.75 L72.3 46.95 63.95 46.95 63.95 32.5 63.95 28.6 63.95 6.75 72.3 6.75 M-66.45 32.5 L-66.45 46.95 -74.8 46.95 -74.8 6.75 -66.45 6.75 -66.45 28.6 -66.45 32.5" fill="#000000" fill-opacity="0.101960786" fill-rule="evenodd" stroke="none"/>
    <path d="M55.55 -14.45 L-55.95 -14.45 -63.45 -14.45 -76.7 -14.45 -76.7 -21.45 -74.4 -21.45 -74.4 -16.45 76.8 -16.45 76.8 -14.45 63.05 -14.45 55.55 -14.45 M76.8 -38.45 L76.8 -36.45 63.05 -36.45 55.55 -36.45 -55.95 -36.45 -63.45 -36.45 -76.7 -36.45 -76.7 -43.45 -74.4 -43.45 -74.4 -38.45 76.8 -38.45 M76.8 -27.75 L76.8 -25.75 63.05 -25.75 55.55 -25.75 -55.95 -25.75 -63.45 -25.75 -76.7 -25.75 -76.7 -32.75 -74.4 -32.75 -74.4 -27.75 76.8 -27.75 M63.95 32.5 L-66.45 32.5 -66.45 28.6 63.95 28.6 63.95 32.5" fill="#000000" fill-opacity="0.2" fill-rule="evenodd" stroke="none"/>
    <path d="M55.55 -11.45 L55.55 -14.45 63.05 -14.45 63.05 -11.45 62.3 -11.45 55.55 -11.45 M-55.95 -14.45 L-55.95 -11.45 -62.7 -11.45 -63.45 -11.45 -63.45 -14.45 -55.95 -14.45 M63.05 -36.45 L63.05 -32.75 55.55 -32.75 55.55 -36.45 63.05 -36.45 M63.05 -25.75 L63.05 -21.45 55.55 -21.45 55.55 -25.75 63.05 -25.75 M-63.45 -21.45 L-63.45 -25.75 -55.95 -25.75 -55.95 -21.45 -63.45 -21.45 M-63.45 -32.75 L-63.45 -36.45 -55.95 -36.45 -55.95 -32.75 -63.45 -32.75 M-63.45 -43.45 L-63.45 -46.95 -55.95 -46.95 -55.95 -43.45 -63.45 -43.45 M55.55 -43.45 L55.55 -46.95 63.05 -46.95 63.05 -43.45 55.55 -43.45" fill="#000000" fill-opacity="0.3019608" fill-rule="evenodd" stroke="none"/>
    <path d="M12.3 -6.4 L37.3 -6.4 62.3 -6.4 87.8 -6.4 87.8 6.75 72.3 6.75 63.95 6.75 -66.45 6.75 -74.8 6.75 -87.75 6.75 -87.75 -6.4 -87.7 -6.4 -62.7 -6.4 -37.7 -6.4 -12.7 -6.4 12.3 -6.4" fill="#ffffff" fill-opacity="0.0" fill-rule="evenodd" stroke="none"/>
    <path d="M12.3 -11.45 L37.3 -11.45 37.3 -6.4 37.3 -11.45 55.55 -11.45 62.3 -11.45 62.3 -6.4 62.3 -11.45 63.05 -11.45 87.8 -11.45 87.8 -6.4 62.3 -6.4 37.3 -6.4 12.3 -6.4 12.3 -11.45 12.3 -6.4 -12.7 -6.4 -37.7 -6.4 -37.7 -11.45 -12.7 -11.45 12.3 -11.45 M-55.95 -11.45 L-37.7 -11.45 -37.7 -6.4 -62.7 -6.4 -62.7 -11.45 -62.7 -6.4 -87.7 -6.4 -87.7 -11.45 -63.45 -11.45 -62.7 -11.45 -55.95 -11.45 M76.8 -43.45 L76.8 -38.45 -74.4 -38.45 -74.4 -43.45 -63.45 -43.45 -55.95 -43.45 55.55 -43.45 63.05 -43.45 76.8 -43.45 M63.05 -32.75 L76.8 -32.75 76.8 -27.75 -74.4 -27.75 -74.4 -32.75 -63.45 -32.75 -55.95 -32.75 55.55 -32.75 63.05 -32.75 M63.05 -21.45 L76.8 -21.45 76.8 -16.45 -74.4 -16.45 -74.4 -21.45 -63.45 -21.45 -55.95 -21.45 55.55 -21.45 63.05 -21.45 M-12.7 -11.45 L-12.7 -6.4 -12.7 -11.45" fill="#000000" fill-opacity="0.050980393" fill-rule="evenodd" stroke="none"/>
    <path d="M37.3 -11.45 L12.3 -11.45 -12.7 -11.45 -37.7 -11.45 -55.95 -11.45 -62.7 -11.45 -63.45 -11.45 -87.7 -11.45 -87.7 -6.4 -87.75 -6.4 -87.75 6.75 -74.8 6.75 -74.8 46.95 -66.45 46.95 -66.45 32.5 63.95 32.5 63.95 46.95 72.3 46.95 72.3 6.75 87.8 6.75 87.8 -6.4 87.8 -11.45 63.05 -11.45 62.3 -11.45 55.55 -11.45 37.3 -11.45 M55.55 -14.45 L-55.95 -14.45 M76.8 -43.45 L76.8 -38.45 76.8 -36.45 63.05 -36.45 M76.8 -32.75 L76.8 -27.75 76.8 -25.75 63.05 -25.75 M76.8 -21.45 L76.8 -16.45 76.8 -14.45 63.05 -14.45 M-63.45 -14.45 L-76.7 -14.45 -76.7 -21.45 -74.4 -21.45 M-63.45 -25.75 L-76.7 -25.75 -76.7 -32.75 M-63.45 -36.45 L-76.7 -36.45 -76.7 -43.45 M55.55 -36.45 L-55.95 -36.45 M55.55 -25.75 L-55.95 -25.75 M63.95 6.75 L63.95 28.6 M63.95 6.75 L-66.45 6.75 -66.45 28.6" fill="none" stroke="#000000" stroke-linecap="round" stroke-linejoin="miter-clip" stroke-miterlimit="3.0" stroke-width="1.0"/>
    <path d="M12.3 -6.4 L37.3 -6.4 62.3 -6.4 87.8 -6.4 M55.55 -11.45 L55.55 -14.45 63.05 -14.45 63.05 -11.45 M-55.95 -14.45 L-55.95 -11.45 M63.05 -36.45 L63.05 -32.75 76.8 -32.75 M63.05 -25.75 L63.05 -21.45 76.8 -21.45 M-63.45 -11.45 L-63.45 -14.45 -55.95 -14.45 M-74.4 -21.45 L-63.45 -21.45 -63.45 -25.75 -55.95 -25.75 -55.95 -21.45 55.55 -21.45 63.05 -21.45 M-76.7 -32.75 L-74.4 -32.75 -63.45 -32.75 -63.45 -36.45 -55.95 -36.45 -55.95 -32.75 55.55 -32.75 63.05 -32.75 M-76.7 -43.45 L-74.4 -43.45 -63.45 -43.45 -63.45 -46.95 -55.95 -46.95 -55.95 -43.45 55.55 -43.45 55.55 -46.95 63.05 -46.95 63.05 -43.45 76.8 -43.45 M55.55 -32.75 L55.55 -36.45 63.05 -36.45 M55.55 -25.75 L63.05 -25.75 M55.55 -21.45 L55.55 -25.75 M55.55 -43.45 L63.05 -43.45 M63.95 28.6 L63.95 32.5 M63.95 28.6 L-66.45 28.6 -66.45 32.5 M72.3 6.75 L63.95 6.75 M-63.45 -21.45 L-55.95 -21.45 M-63.45 -32.75 L-55.95 -32.75 M-63.45 -43.45 L-55.95 -43.45 M-37.7 -6.4 L-12.7 -6.4 12.3 -6.4 M-62.7 -6.4 L-37.7 -6.4 M-87.7 -6.4 L-62.7 -6.4 M-66.45 6.75 L-74.8 6.75" fill="none" stroke="#000000" stroke-linecap="round" stroke-linejoin="miter-clip" stroke-miterlimit="3.0" stroke-opacity="0.6" stroke-width="1.0"/>
    <path d="M12.3 -11.45 L12.3 -6.4 M37.3 -6.4 L37.3 -11.45 M62.3 -6.4 L62.3 -11.45 M-62.7 -6.4 L-62.7 -11.45 M-12.7 -6.4 L-12.7 -11.45 M-37.7 -6.4 L-37.7 -11.45" fill="none" stroke="#000000" stroke-linecap="round" stroke-linejoin="miter-clip" stroke-miterlimit="3.0" stroke-opacity="0.4" stroke-width="1.0"/>
    <path d="M0.0 -2.45 Q-5.9 -1.95 -11.3 -3.85 L-12.55 -4.7 -13.55 -5.7 Q-8.3 -6.2 -3.3 -4.7 1.6 -3.15 6.6 -2.35 8.35 -2.15 9.8 -1.1 8.25 1.1 5.45 1.55 0.7 2.25 -3.9 1.45 L-18.85 -1.75 -26.8 -3.45 -46.5 -4.95 -52.2 -5.05 M36.4 1.5 Q41.1 1.4 45.55 2.75 46.75 3.1 47.25 4.2 46.45 5.4 44.55 5.4 37.75 5.8 31.15 3.95 23.5 1.7 17.3 -3.25 L45.5 -1.75 59.15 -1.2 70.55 -1.2 Q76.05 -1.2 81.35 -1.45 L87.35 -1.55 M15.8 6.75 L7.15 5.65 -4.2 3.8 -5.45 3.6 -17.1 3.25 -28.35 3.6 -30.5 4.1 Q-34.9 5.65 -39.6 6.3 M-48.9 3.65 Q-53.4 3.5 -57.8 4.55 L-58.5 4.75 Q-54.5 6.2 -50.05 4.95 -47.1 4.0 -43.95 3.55 -39.0 3.55 -34.35 2.45 -50.6 -0.75 -66.95 0.9 L-77.35 1.95 -84.6 1.6 Q-86.3 1.25 -87.35 0.2 M41.4 0.6 Q47.05 0.7 52.55 2.15 L57.0 2.95 68.9 3.35 79.55 3.0 87.55 3.65" fill="none" stroke="#000000" stroke-linecap="round" stroke-linejoin="miter-clip" stroke-miterlimit="3.0" stroke-opacity="0.14901961" stroke-width="1.0"/>
  </g>
</svg>
