<?xml version="1.0" encoding="UTF-8" standalone="no"?>
<svg xmlns:xlink="http://www.w3.org/1999/xlink" height="120.6px" width="157.4px" xmlns="http://www.w3.org/2000/svg">
  <g transform="matrix(1.0, 0.0, 0.0, 1.0, 78.7, 60.3)">
    <path d="M-41.65 -16.85 L-38.35 -19.0 Q-33.3 -22.2 -28.45 -24.55 L-34.4 -21.2 -41.65 -16.85 M42.15 -47.95 L41.05 -48.7 40.1 -49.3 42.15 -47.95 M3.5 39.9 L6.65 39.6 15.55 38.55 18.3 38.15 Q27.35 36.75 32.85 34.85 26.95 37.1 18.3 38.15 11.05 39.6 3.5 39.9 M50.05 37.65 L44.2 43.0 Q45.95 41.5 47.65 39.95 L50.05 37.65" fill="#999999" fill-rule="evenodd" stroke="none"/>
    <path d="M25.9 -56.25 L31.75 -53.95 40.1 -49.3 41.05 -48.7 42.15 -47.95 49.8 -41.9 50.75 -41.0 52.3 -39.5 Q61.5 -29.1 69.75 -12.0 L69.85 -11.7 70.0 -11.4 70.2 -10.85 70.5 -10.05 70.7 -9.5 70.85 -9.0 72.75 -8.6 Q74.9 -7.95 76.25 -6.9 80.6 -3.6 75.2 2.65 L74.9 2.85 73.9 3.35 69.95 5.15 68.75 5.7 68.7 5.9 Q65.6 18.9 55.5 31.45 L53.85 33.5 50.05 37.65 47.65 39.95 Q45.95 41.5 44.2 43.0 L40.9 45.65 40.65 45.85 40.25 46.15 Q26.65 55.45 15.4 57.95 L13.6 58.3 Q0.35 61.1 -14.05 58.55 6.55 59.55 18.95 53.65 25.15 50.65 27.2 47.5 L25.4 47.85 14.2 50.0 Q24.5 46.9 33.2 38.65 37.55 34.5 39.85 31.0 37.05 33.25 32.85 34.85 27.35 36.75 18.3 38.15 L15.55 38.55 6.65 39.6 3.5 39.9 -0.15 40.0 -9.25 40.15 -12.95 39.5 Q2.65 38.75 17.45 34.15 26.35 31.4 32.7 28.5 13.95 32.9 -14.55 30.15 -28.8 28.75 -39.3 26.5 -30.25 28.05 -21.85 26.7 -17.65 26.0 -15.3 25.0 -29.3 24.45 -47.85 19.55 -58.9 16.65 -67.85 13.35 L-68.5 12.65 -67.9 12.0 -59.25 8.65 Q-29.0 10.6 4.95 4.3 L-11.25 3.75 Q-26.3 2.65 -35.8 0.0 5.75 0.95 27.9 -7.7 38.95 -12.0 41.7 -16.5 35.15 -14.95 19.5 -14.05 L5.2 -13.5 Q16.15 -14.45 28.25 -20.05 34.35 -22.85 38.2 -25.5 34.35 -28.3 11.75 -30.05 L-10.35 -31.0 Q-19.05 -29.3 -28.45 -24.55 -33.3 -22.2 -38.35 -19.0 L-41.65 -16.85 -47.8 -13.0 Q-42.15 -19.55 -30.65 -27.7 L-20.3 -34.5 Q-4.05 -39.8 23.95 -36.45 37.95 -34.75 48.7 -32.0 L45.9 -33.7 45.5 -33.95 Q37.7 -40.15 18.7 -42.9 L15.85 -43.1 14.9 -43.25 4.45 -44.05 2.2 -44.1 0.85 -44.05 -2.8 -44.0 Q9.1 -48.05 29.1 -43.95 39.1 -41.85 46.7 -39.0 46.1 -42.05 37.65 -48.35 32.4 -52.25 25.9 -56.25 M38.5 -30.0 L29.4 -31.0 -0.5 -32.0 -10.35 -31.0 -0.5 -32.0 29.4 -31.0 38.5 -30.0 M55.15 -1.5 L49.55 -1.85 46.7 -1.5 Q31.05 2.75 14.65 3.9 33.1 5.7 59.35 2.1 58.85 -0.6 55.15 -1.5 M55.5 19.0 L50.45 22.15 Q44.45 26.2 39.85 31.0 44.45 26.2 50.45 22.15 L55.5 19.0 M36.5 42.0 Q32.65 45.3 25.4 47.85 32.65 45.3 36.5 42.0 M-67.15 12.0 L-67.9 12.0 -67.15 12.0 Q-15.05 26.4 35.3 15.95 55.25 11.8 68.7 5.9 55.25 11.8 35.3 15.95 -15.05 26.4 -67.15 12.0" fill="#000000" fill-opacity="0.101960786" fill-rule="evenodd" stroke="none"/>
    <path d="M25.95 -56.35 L25.9 -56.25 Q32.4 -52.25 37.65 -48.35 46.1 -42.05 46.7 -39.0 39.1 -41.85 29.1 -43.95 9.1 -48.05 -2.8 -44.0 L0.85 -44.05 4.45 -44.05 15.85 -43.1 18.7 -42.9 Q37.7 -40.15 45.5 -33.95 L45.9 -33.7 48.7 -32.0 Q37.95 -34.75 23.95 -36.45 -4.05 -39.8 -20.3 -34.5 L-30.65 -27.7 Q-42.15 -19.55 -47.8 -13.0 L-41.65 -16.85 Q-46.35 -13.7 -50.8 -10.05 L-55.5 -6.0 -50.8 -10.05 Q-46.35 -13.7 -41.65 -16.85 L-34.4 -21.2 -28.45 -24.55 Q-19.05 -29.3 -10.35 -31.0 L11.75 -30.05 Q34.35 -28.3 38.2 -25.5 34.35 -22.85 28.25 -20.05 16.15 -14.45 5.2 -13.5 L19.5 -14.05 Q35.15 -14.95 41.7 -16.5 38.95 -12.0 27.9 -7.7 5.75 0.95 -35.8 0.0 -26.3 2.65 -11.25 3.75 L4.95 4.3 Q-29.0 10.6 -59.25 8.65 L-67.9 12.0 -69.25 11.95 Q-71.65 11.75 -73.8 10.85 -80.0 8.35 -77.5 1.65 L-75.65 -0.85 Q-73.15 -3.25 -69.8 -2.65 -67.65 -10.65 -63.45 -20.1 -55.15 -39.05 -45.15 -46.35 -34.25 -54.3 -17.7 -57.65 -4.55 -60.3 9.5 -59.65 17.75 -59.3 25.95 -56.35 M55.15 -1.5 Q58.85 -0.6 59.35 2.1 33.1 5.7 14.65 3.9 31.05 2.75 46.7 -1.5 L49.55 -1.85 55.15 -1.5 M-67.85 13.35 Q-58.9 16.65 -47.85 19.55 -29.3 24.45 -15.3 25.0 -17.65 26.0 -21.85 26.7 -30.25 28.05 -39.3 26.5 -28.8 28.75 -14.55 30.15 13.95 32.9 32.7 28.5 26.35 31.4 17.45 34.15 2.65 38.75 -12.95 39.5 L-16.15 38.65 -12.95 39.5 -6.5 40.35 3.5 39.9 Q11.05 39.6 18.3 38.15 26.95 37.1 32.85 34.85 37.8 33.15 39.85 31.0 37.55 34.5 33.2 38.65 24.5 46.9 14.2 50.0 L25.4 47.85 27.2 47.5 Q25.15 50.65 18.95 53.65 6.55 59.55 -14.05 58.55 L-14.05 58.6 Q-26.3 56.4 -38.8 50.35 -45.35 47.2 -54.5 33.55 -59.95 25.4 -63.15 19.0 -63.75 17.75 -66.85 14.45 L-67.85 13.4 -67.85 13.35 M-26.5 48.35 Q-34.6 46.9 -39.2 44.8 L-42.15 43.0 -39.2 44.8 Q-34.6 46.9 -26.5 48.35 M4.85 52.35 L17.2 50.2 25.4 47.85 17.2 50.2 4.85 52.35" fill="#ffffff" fill-opacity="0.0" fill-rule="evenodd" stroke="none"/>
    <path d="M15.85 -43.1 L18.7 -42.9 Q37.7 -40.15 45.5 -33.95 L45.9 -33.7 M-41.65 -16.85 L-38.35 -19.0 Q-33.3 -22.2 -28.45 -24.55 -19.05 -29.3 -10.35 -31.0 L-0.5 -32.0 29.4 -31.0 38.5 -30.0 M15.85 -43.1 L4.45 -44.05 0.85 -44.05 M-41.65 -16.85 Q-46.35 -13.7 -50.8 -10.05 L-55.5 -6.0 M6.65 39.6 L15.55 38.55 18.3 38.15 Q27.35 36.75 32.85 34.85 37.8 33.15 39.85 31.0 44.45 26.2 50.45 22.15 L55.5 19.0 M-42.15 43.0 L-39.2 44.8 Q-34.6 46.9 -26.5 48.35 M25.4 47.85 Q32.65 45.3 36.5 42.0 M25.4 47.85 L17.2 50.2 4.85 52.35" fill="none" stroke="#000000" stroke-linecap="round" stroke-linejoin="round" stroke-opacity="0.4" stroke-width="1.0"/>
    <path d="M3.5 39.9 L6.65 39.6 M-16.15 38.65 L-12.95 39.5 -6.5 40.35 3.5 39.9" fill="none" stroke="#0e0e0e" stroke-linecap="round" stroke-linejoin="round" stroke-opacity="0.4" stroke-width="1.0"/>
    <path d="M-67.15 12.0 Q-15.05 26.4 35.3 15.95 55.25 11.8 68.7 5.9" fill="none" stroke="#000000" stroke-linecap="butt" stroke-linejoin="round" stroke-opacity="0.6" stroke-width="1.0"/>
    <path d="M31.75 -53.95 Q28.85 -55.35 25.95 -56.35 17.75 -59.3 9.5 -59.65 -4.55 -60.3 -17.7 -57.65 -34.25 -54.3 -45.15 -46.35 -55.15 -39.05 -63.45 -20.1 -67.65 -10.65 -69.8 -2.65 -73.15 -3.25 -75.65 -0.85 L-77.5 1.65 Q-80.0 8.35 -73.8 10.85 -71.65 11.75 -69.25 11.95 L-67.9 12.0 -67.15 12.0 M49.8 -41.9 L42.15 -47.95 41.05 -48.7 40.1 -49.3 31.75 -53.95 M52.3 -39.5 L49.8 -41.9 M73.9 3.35 L74.9 2.85 75.2 2.65 Q80.6 -3.6 76.25 -6.9 74.9 -7.95 72.75 -8.6 L70.85 -9.0 70.7 -9.5 70.5 -10.05 70.2 -10.85 70.0 -11.4 69.85 -11.7 69.75 -12.0 Q61.5 -29.1 52.3 -39.5 M73.9 3.35 L68.7 5.9 Q65.6 18.9 55.5 31.45 L53.85 33.5 50.05 37.65 47.65 39.95 Q45.95 41.5 44.2 43.0 L40.9 45.65 40.65 45.85 40.25 46.15 Q26.65 55.45 15.4 57.95 4.95 60.45 -6.45 59.55 L-14.05 58.6 Q-26.3 56.4 -38.8 50.35 -45.35 47.2 -54.5 33.55 -59.95 25.4 -63.15 19.0 -63.75 17.75 -66.85 14.45 L-67.85 13.4 -69.25 11.95" fill="none" stroke="#000000" stroke-linecap="butt" stroke-linejoin="round" stroke-width="1.0"/>
  </g>
</svg>
