<?xml version="1.0" encoding="UTF-8" standalone="no"?>
<svg xmlns:xlink="http://www.w3.org/1999/xlink" height="24.1px" width="139.7px" xmlns="http://www.w3.org/2000/svg">
  <g transform="matrix(1.0, 0.0, 0.0, 1.0, 69.85, 9.55)">
    <path d="M-56.75 8.05 Q-57.25 8.4 -57.85 8.6 -59.35 9.3 -61.15 9.3 -64.55 9.3 -66.95 6.9 -69.35 4.5 -69.35 1.1 -69.35 -2.3 -66.95 -4.7 -64.55 -7.1 -61.15 -7.1 -59.25 -7.1 -57.65 -6.35 L-57.45 -6.25 -57.3 -6.2 -57.25 -6.2 Q-55.6 -5.35 -48.3 -4.5 L-37.9 -3.55 Q-28.9 -2.95 5.15 -3.0 45.35 -3.1 48.05 -5.25 51.45 -7.95 53.55 -8.65 56.0 -9.45 59.65 -8.65 62.8 -7.95 65.75 -4.75 67.75 -2.6 69.35 0.3 58.55 -3.95 57.65 -2.7 56.1 -0.5 55.65 2.55 55.25 5.1 55.7 7.2 55.95 8.25 59.4 9.45 L65.4 11.45 Q62.7 13.2 58.9 13.8 53.55 14.7 50.6 12.3 48.5 10.6 46.4 8.3 45.15 6.95 44.1 6.65 L28.6 5.85 Q11.9 5.25 -4.2 5.1 -48.4 4.7 -56.75 8.05" fill="#cacaca" fill-opacity="0.0" fill-rule="evenodd" stroke="none"/>
    <path d="M69.35 0.3 Q67.75 -2.6 65.75 -4.75 62.8 -7.95 59.65 -8.65 56.0 -9.45 53.55 -8.65 51.45 -7.95 48.05 -5.25 45.35 -3.1 5.15 -3.0 -28.9 -2.95 -37.9 -3.55 L-48.3 -4.5 Q-55.6 -5.35 -57.25 -6.2 L-57.3 -6.2 -57.45 -6.25 -57.65 -6.35 Q-59.25 -7.1 -61.15 -7.1 -64.55 -7.1 -66.95 -4.7 -69.35 -2.3 -69.35 1.1 -69.35 4.5 -66.95 6.9 -64.55 9.3 -61.15 9.3 -59.35 9.3 -57.85 8.6 -57.25 8.4 -56.75 8.05" fill="none" stroke="#000000" stroke-linecap="round" stroke-linejoin="round" stroke-width="1.0"/>
    <path d="M-56.75 8.05 Q-48.4 4.7 -4.2 5.1 11.9 5.25 28.6 5.85 L44.1 6.65 Q45.15 6.95 46.4 8.3 48.5 10.6 50.6 12.3 53.55 14.7 58.9 13.8 62.7 13.2 65.4 11.45 L59.4 9.45 Q55.95 8.25 55.7 7.2 55.25 5.1 55.65 2.55 56.1 -0.5 57.65 -2.7 58.55 -3.95 69.35 0.3 Z" fill="none" stroke="#000000" stroke-linecap="round" stroke-linejoin="round" stroke-opacity="0.6" stroke-width="1.0"/>
    <path d="M-56.75 8.05 L-55.35 6.9 Q-52.95 4.5 -52.95 1.1 -52.95 -2.3 -55.35 -4.7 -56.35 -5.7 -57.25 -6.2 M-65.35 -2.95 Q-67.0 -1.3 -67.0 1.05 -67.0 3.4 -65.35 5.05 -63.7 6.7 -61.35 6.7 -59.0 6.7 -57.35 5.05 -55.7 3.4 -55.7 1.05 -55.7 -1.3 -57.35 -2.95 -59.0 -4.6 -61.35 -4.6 -63.7 -4.6 -65.35 -2.95" fill="none" stroke="#000000" stroke-linecap="round" stroke-linejoin="round" stroke-opacity="0.4" stroke-width="1.0"/>
  </g>
</svg>
