<?xml version="1.0" encoding="UTF-8" standalone="no"?>
<svg xmlns:xlink="http://www.w3.org/1999/xlink" height="155.05px" width="171.7px" xmlns="http://www.w3.org/2000/svg">
  <g transform="matrix(1.0, 0.0, 0.0, 1.0, 85.8, 17.05)">
    <path d="M25.8 -15.95 Q40.9 -14.9 51.5 -11.5 78.95 -2.6 84.5 25.2 89.25 49.25 68.25 76.95 L66.5 79.2 66.05 79.8 47.35 99.6 45.9 100.95 44.7 102.05 23.05 119.85 10.9 127.3 Q2.3 132.7 0.75 136.05 3.15 130.6 0.45 123.5 -2.25 116.45 -9.4 109.1 -25.2 92.85 -52.0 84.1 L-64.35 78.5 -67.85 76.1 Q-77.9 68.6 -82.4 56.6 -84.75 50.35 -85.25 43.6 L-85.3 38.1 Q-81.55 3.95 -40.8 -9.7 -20.4 -16.55 -0.65 -16.55 17.2 -16.55 25.8 -15.95" fill="#ffffff" fill-opacity="0.0" fill-rule="evenodd" stroke="none"/>
    <path d="M25.8 -15.95 Q17.2 -16.55 -0.65 -16.55 -20.4 -16.55 -40.8 -9.7 -81.55 3.95 -85.3 38.1 L-85.25 43.6 Q-84.75 50.35 -82.4 56.6 -77.9 68.6 -67.85 76.1 L-64.35 78.5 -52.0 84.1 Q-25.2 92.85 -9.4 109.1 -2.25 116.45 0.45 123.5 3.15 130.6 0.75 136.05 2.3 132.7 10.9 127.3 L23.05 119.85 44.7 102.05 45.9 100.95 47.35 99.6 66.05 79.8 66.5 79.2 68.25 76.95 Q89.25 49.25 84.5 25.2 78.95 -2.6 51.5 -11.5 40.9 -14.9 25.8 -15.95 Z" fill="none" stroke="#000000" stroke-linecap="butt" stroke-linejoin="miter-clip" stroke-miterlimit="4.0" stroke-width="1.0"/>
    <path d="M14.55 -16.1 L14.8 -16.45 Q43.15 -15.8 58.35 -8.8 79.65 0.95 84.5 25.2 89.45 50.25 66.5 79.2 51.5 98.1 23.05 119.85 L16.5 124.0 Q10.75 127.4 8.25 129.05 15.75 120.7 22.15 108.75 30.9 92.45 36.55 71.2 44.9 39.95 30.55 8.8 23.4 -6.75 14.55 -16.1" fill="#000000" fill-opacity="0.24705882" fill-rule="evenodd" stroke="none"/>
    <path d="M84.5 25.2 Q85.5 30.35 85.35 35.9 69.9 44.8 30.6 49.8 3.8 53.2 -15.05 53.35 -55.85 53.8 -84.65 46.75 L-84.95 46.6 -85.4 40.45 -85.3 38.1 Q-84.6 31.15 -82.05 24.7 L-81.5 24.45 Q-54.65 27.65 -19.1 26.95 12.6 26.4 40.1 22.25 57.1 19.75 71.2 16.15 L76.05 14.7 80.85 13.5 Q83.3 19.0 84.5 25.2" fill="#000000" fill-opacity="0.24705882" fill-rule="evenodd" stroke="none"/>
    <path d="M68.25 76.95 Q58.9 75.95 51.35 72.75 39.75 67.95 23.2 69.35 7.95 70.65 -14.0 77.45 -27.5 81.65 -44.6 80.25 -56.25 79.35 -67.85 76.05" fill="none" stroke="#000000" stroke-linecap="butt" stroke-linejoin="miter-clip" stroke-miterlimit="4.0" stroke-opacity="0.29803923" stroke-width="1.0"/>
  </g>
</svg>
