<?xml version="1.0" encoding="UTF-8" standalone="no"?>
<svg xmlns:xlink="http://www.w3.org/1999/xlink" height="30.9px" width="5.0px" xmlns="http://www.w3.org/2000/svg">
  <g transform="matrix(1.0, 0.0, 0.0, 1.0, 2.5, 15.45)">
    <path d="M1.6 -14.4 L1.15 -15.3 1.85 -15.45 2.45 -14.25 2.45 -13.5 -2.4 -13.5 -2.4 -14.4 1.6 -14.4 M-2.4 -11.8 L-1.85 -11.8 -1.3 -11.25 Q0.25 -9.55 0.95 -9.55 1.75 -9.55 1.75 -10.45 1.75 -10.95 1.35 -11.45 L2.0 -11.75 Q2.5 -11.15 2.5 -10.25 2.5 -8.65 1.05 -8.65 0.05 -8.65 -1.25 -10.1 L-1.65 -10.5 -1.65 -8.55 -2.4 -8.55 -2.4 -11.8 M-1.45 -7.65 L-1.75 -6.55 Q-1.75 -5.55 -1.0 -5.55 -0.15 -5.55 -0.15 -6.65 L-0.15 -7.1 0.5 -7.1 0.5 -6.65 Q0.5 -5.7 1.2 -5.7 1.8 -5.7 1.8 -6.5 L1.5 -7.45 2.15 -7.7 Q2.5 -7.15 2.5 -6.3 2.5 -5.6 2.15 -5.15 1.85 -4.75 1.35 -4.75 0.5 -4.75 0.2 -5.65 0.05 -4.6 -1.0 -4.6 -1.65 -4.6 -2.05 -5.1 -2.5 -5.6 -2.5 -6.5 -2.5 -7.4 -2.15 -7.85 L-1.45 -7.65 M1.7 -0.75 L1.7 -2.6 0.7 -2.75 0.75 -2.4 Q0.75 -1.7 0.4 -1.2 0.05 -0.6 -0.8 -0.6 -1.55 -0.6 -2.0 -1.1 -2.5 -1.65 -2.5 -2.55 L-2.2 -3.85 -1.5 -3.65 -1.75 -2.6 Q-1.75 -1.5 -0.9 -1.5 0.05 -1.5 0.05 -2.9 L0.0 -3.55 2.45 -3.25 2.45 -0.75 1.7 -0.75 M0.85 5.05 Q-0.05 5.05 -0.05 5.85 -0.05 6.35 0.35 6.6 L0.6 6.65 Q1.85 6.65 1.85 5.85 1.85 5.05 0.85 5.05 M-1.75 4.55 L-1.75 5.05 Q-1.65 5.75 -1.35 6.05 -0.95 6.5 -0.3 6.65 -0.7 6.25 -0.7 5.6 -0.7 4.95 -0.3 4.55 0.15 4.1 0.8 4.1 1.5 4.1 2.0 4.6 2.5 5.1 2.5 5.85 2.5 7.6 0.45 7.6 -0.95 7.6 -1.8 6.75 -2.35 6.2 -2.45 5.1 L-2.5 4.55 -1.75 4.55 M-0.5 2.2 L0.85 2.2 1.7 2.25 1.7 2.2 -0.45 0.9 -0.5 0.9 -0.5 2.2 M-2.4 2.2 L-1.2 2.2 -1.2 0.0 -0.6 0.0 2.45 2.0 2.45 3.05 -0.5 3.05 -0.5 3.7 -1.2 3.7 -1.2 3.05 -2.4 3.05 -2.4 2.2 M1.7 11.25 L1.7 9.4 0.7 9.25 0.75 9.6 Q0.75 10.3 0.4 10.8 0.05 11.4 -0.8 11.4 -1.55 11.4 -2.0 10.9 -2.5 10.35 -2.5 9.45 L-2.2 8.15 -1.5 8.35 -1.75 9.45 Q-1.75 10.5 -0.9 10.5 0.05 10.5 0.05 9.1 L0.0 8.45 2.45 8.75 2.45 11.25 1.7 11.25 M-2.4 12.2 L-1.85 12.2 -1.3 12.75 Q0.25 14.45 0.95 14.45 1.75 14.45 1.75 13.55 1.75 13.05 1.35 12.55 L2.0 12.25 Q2.5 12.85 2.5 13.75 2.5 15.35 1.05 15.35 0.05 15.35 -1.25 13.9 L-1.65 13.5 -1.65 15.45 -2.4 15.45 -2.4 12.2" fill="#000000" fill-opacity="0.4" fill-rule="evenodd" stroke="none"/>
  </g>
</svg>
