<?xml version="1.0" encoding="UTF-8" standalone="no"?>
<svg xmlns:xlink="http://www.w3.org/1999/xlink" height="8.3px" width="25.2px" xmlns="http://www.w3.org/2000/svg">
  <g transform="matrix(1.0, 0.0, 0.0, 1.0, 11.1, 5.6)">
    <path d="M-9.85 0.6 L-10.55 -2.2 -9.1 -3.15 Q-1.55 -4.95 4.0 -5.1 L4.05 -5.1 Q7.05 -5.15 9.25 -3.75 10.8 -2.75 12.5 -0.5 L13.4 0.65 11.25 2.2 10.35 1.05 Q8.3 -1.4 3.5 -1.3 L3.4 -1.3 Q-2.65 -1.15 -8.4 0.25 L-9.85 0.6" fill="#ffffff" fill-opacity="0.0" fill-rule="evenodd" stroke="none"/>
    <path d="M-9.85 0.6 L-8.4 0.25 Q-2.65 -1.15 3.4 -1.3 L3.5 -1.3 Q8.3 -1.4 10.35 1.05 L11.25 2.2" fill="none" stroke="#000000" stroke-linecap="round" stroke-linejoin="miter-clip" stroke-miterlimit="3.0" stroke-opacity="0.69803923" stroke-width="1.0"/>
    <path d="M11.25 2.2 L13.4 0.65 12.5 -0.5 Q10.8 -2.75 9.25 -3.75 7.05 -5.15 4.05 -5.1 L4.0 -5.1 Q-1.55 -4.95 -9.1 -3.15 L-10.55 -2.2 -9.85 0.6 Z" fill="none" stroke="#000000" stroke-linecap="round" stroke-linejoin="miter-clip" stroke-miterlimit="3.0" stroke-opacity="0.4" stroke-width="1.0"/>
  </g>
</svg>
