<?xml version="1.0" encoding="UTF-8" standalone="no"?>
<svg xmlns:xlink="http://www.w3.org/1999/xlink" height="15.25px" width="21.15px" xmlns="http://www.w3.org/2000/svg">
  <g transform="matrix(1.0, 0.0, 0.0, 1.0, 9.8, 10.2)">
    <path d="M-9.3 -1.0 Q-8.15 -4.65 -5.95 -6.7 -3.55 -8.95 -0.1 -8.9 5.2 -8.85 9.95 -1.25 8.6 1.2 6.25 2.95 3.9 4.65 -0.2 4.55 -4.3 4.4 -6.45 2.65 -8.65 0.9 -9.3 -1.0" fill="#ffffff" fill-opacity="0.0" fill-rule="evenodd" stroke="none"/>
    <path d="M9.95 -1.25 Q8.6 1.2 6.25 2.95 3.9 4.65 -0.2 4.55 -4.3 4.4 -6.45 2.65 -8.65 0.9 -9.3 -1.0" fill="none" stroke="#000000" stroke-linecap="round" stroke-linejoin="round" stroke-opacity="0.4" stroke-width="1.0"/>
    <path d="M-9.3 -1.0 Q-8.15 -4.65 -5.95 -6.7 -3.55 -8.95 -0.1 -8.9 5.2 -8.85 9.95 -1.25 Z" fill="none" stroke="#000000" stroke-linecap="round" stroke-linejoin="round" stroke-width="1.0"/>
    <path d="M-7.95 -6.0 Q-6.3 -8.0 -4.8 -8.75 -3.2 -9.5 -0.3 -9.7 2.4 -9.85 5.4 -8.0 7.05 -7.0 10.85 -3.75" fill="none" stroke="#000000" stroke-linecap="round" stroke-linejoin="round" stroke-opacity="0.2" stroke-width="1.0"/>
  </g>
</svg>
