<?xml version="1.0" encoding="UTF-8" standalone="no"?>
<svg xmlns:xlink="http://www.w3.org/1999/xlink" height="11.25px" width="23.75px" xmlns="http://www.w3.org/2000/svg">
  <g transform="matrix(1.0, 0.0, 0.0, 1.0, 14.15, 6.05)">
    <path d="M-9.7 -2.2 Q-4.55 -5.9 -0.3 -5.5 4.15 -5.35 9.1 1.4 L5.95 3.55 Q3.45 5.05 -0.65 4.6 -4.75 4.1 -6.75 2.15 -8.75 0.2 -9.7 -2.2" fill="#ffffff" fill-opacity="0.0" fill-rule="evenodd" stroke="none"/>
    <path d="M9.1 1.4 L5.95 3.55 Q3.45 5.05 -0.65 4.6 -4.75 4.1 -6.75 2.15 -8.75 0.2 -9.7 -2.2" fill="none" stroke="#000000" stroke-linecap="round" stroke-linejoin="round" stroke-opacity="0.4" stroke-width="1.0"/>
    <path d="M-9.7 -2.2 Q-4.55 -5.9 -0.3 -5.5 4.15 -5.35 9.1 1.4 Z" fill="none" stroke="#000000" stroke-linecap="round" stroke-linejoin="round" stroke-width="1.0"/>
    <path d="M-9.9 -3.85 Q-7.25 -5.15 -1.5 -5.55 M-12.45 3.2 Q-15.3 -2.5 -11.4 -5.5" fill="none" stroke="#000000" stroke-linecap="round" stroke-linejoin="round" stroke-opacity="0.2" stroke-width="1.0"/>
  </g>
</svg>
