<?xml version="1.0" encoding="UTF-8" standalone="no"?>
<svg xmlns:xlink="http://www.w3.org/1999/xlink" height="106.6px" width="145.2px" xmlns="http://www.w3.org/2000/svg">
  <g transform="matrix(1.0, 0.0, 0.0, 1.0, 73.35, 47.8)">
    <path d="M-71.25 -33.0 Q-70.4 -35.5 -69.15 -37.4 -61.95 -48.55 -42.5 -47.15 -23.1 -45.75 -11.7 -38.95 L-6.5 -35.75 7.6 -27.15 9.9 -25.85 Q21.5 -19.15 32.05 -14.7 47.1 -8.05 57.0 -1.3 68.75 6.7 70.35 13.15 72.15 20.85 70.7 28.65 69.5 35.2 66.25 37.4 64.4 52.4 56.05 55.8 59.15 48.05 58.35 39.75 L55.65 40.05 52.25 40.2 52.15 40.2 Q50.6 51.5 42.0 58.3 45.4 45.7 43.95 39.8 L36.95 38.7 Q36.45 46.5 28.6 56.7 31.3 45.3 29.25 36.9 15.25 33.15 -14.95 22.1 -20.25 20.2 -27.5 19.0 -38.65 17.05 -45.85 18.85 L-46.55 18.85 Q-51.85 18.8 -56.55 17.6 -64.3 15.6 -70.45 10.45 -71.25 6.7 -71.3 3.05 -75.45 -21.2 -71.25 -33.0" fill="#ffffff" fill-opacity="0.0" fill-rule="evenodd" stroke="none"/>
    <path d="M-46.55 18.85 L-45.85 18.85 Q-38.65 17.05 -27.5 19.0 -20.25 20.2 -14.95 22.1 15.25 33.15 29.25 36.9 31.3 45.3 28.6 56.7 36.45 46.5 36.95 38.7 L43.95 39.8 Q45.4 45.7 42.0 58.3 50.6 51.5 52.15 40.2 L52.25 40.2 55.65 40.05 58.35 39.75 Q59.15 48.05 56.05 55.8 64.4 52.4 66.25 37.4 69.5 35.2 70.7 28.65 72.15 20.85 70.35 13.15 68.75 6.7 57.0 -1.3 47.1 -8.05 32.05 -14.7 21.5 -19.15 9.9 -25.85 L7.6 -27.15 -6.5 -35.75 -11.7 -38.95 Q-23.1 -45.75 -42.5 -47.15 -61.95 -48.55 -69.15 -37.4 -70.4 -35.5 -71.25 -33.0" fill="none" stroke="#000000" stroke-linecap="round" stroke-linejoin="round" stroke-width="1.0"/>
  </g>
</svg>
