<?xml version="1.0" encoding="UTF-8" standalone="no"?>
<svg xmlns:xlink="http://www.w3.org/1999/xlink" height="47.25px" width="103.35px" xmlns="http://www.w3.org/2000/svg">
  <g transform="matrix(1.0, 0.0, 0.0, 1.0, 44.75, 9.15)">
    <path d="M58.0 32.55 L57.8 32.75 57.8 32.6 58.0 32.55 M-40.4 19.1 L-40.55 18.85 -40.05 18.85 -40.4 19.1" fill="#666600" fill-opacity="0.0" fill-rule="evenodd" stroke="none"/>
    <path d="M-13.7 -1.25 Q-2.6 5.4 16.95 11.05 L44.15 19.85 Q59.4 24.8 58.0 32.55 L57.8 32.6 Q49.7 33.5 40.2 28.8 27.75 23.55 14.95 19.65 -3.95 13.55 -12.75 13.4 L-22.05 13.4 -23.3 13.7 -22.55 12.95 -20.4 10.85 Q-17.15 7.4 -15.3 3.5 -14.3 1.2 -13.7 -1.25" fill="#000000" fill-opacity="0.3019608" fill-rule="evenodd" stroke="none"/>
    <path d="M-13.0 -8.65 Q-12.8 -4.8 -13.7 -1.35 L-13.7 -1.25 Q-14.3 1.2 -15.3 3.5 -17.15 7.4 -20.4 10.85 L-22.55 12.95 -23.3 13.7 -22.05 13.4 -12.75 13.4 Q-3.95 13.55 14.95 19.65 27.75 23.55 40.2 28.8 49.7 33.5 57.8 32.6 L57.8 32.75 Q56.6 34.25 54.15 35.7 51.5 37.15 48.7 37.6 47.25 37.75 36.6 34.1 25.6 30.4 19.65 30.7 11.35 31.25 -5.45 30.25 -23.05 29.15 -31.05 27.4 -37.25 26.05 -40.4 19.1 L-40.05 18.85 -40.55 18.85 -41.4 16.7 Q-42.9 12.45 -44.25 1.05 L-13.0 -8.65" fill="#ffffff" fill-opacity="0.0" fill-rule="evenodd" stroke="none"/>
    <path d="M-13.7 -1.25 Q-2.6 5.4 16.95 11.05 L44.15 19.85 Q59.4 24.8 58.0 32.55 L57.8 32.75 Q56.6 34.25 54.15 35.7 51.5 37.15 48.7 37.6 47.25 37.75 36.6 34.1 25.6 30.4 19.65 30.7 11.35 31.25 -5.45 30.25 -23.05 29.15 -31.05 27.4 -37.25 26.05 -40.4 19.1 L-40.55 18.85 -41.4 16.7 Q-42.9 12.45 -44.25 1.05 M-23.3 13.7 L-22.05 13.4 -12.75 13.4 Q-3.95 13.55 14.95 19.65 27.75 23.55 40.2 28.8 49.7 33.5 57.8 32.6 L58.0 32.55" fill="none" stroke="#000000" stroke-linecap="round" stroke-linejoin="round" stroke-width="1.0"/>
    <path d="M-13.0 -8.65 Q-12.8 -4.8 -13.7 -1.35 L-13.7 -1.25 Q-14.3 1.2 -15.3 3.5 -17.15 7.4 -20.4 10.85 L-22.55 12.95 -23.3 13.7" fill="none" stroke="#000000" stroke-linecap="round" stroke-linejoin="round" stroke-opacity="0.6" stroke-width="1.0"/>
  </g>
</svg>
