<?xml version="1.0" encoding="UTF-8" standalone="no"?>
<svg xmlns:xlink="http://www.w3.org/1999/xlink" height="91.95px" width="187.6px" xmlns="http://www.w3.org/2000/svg">
  <g transform="matrix(1.0, 0.0, 0.0, 1.0, 64.65, -7.05)">
    <path d="M-45.95 7.55 Q-39.55 9.8 -31.05 13.75 -22.85 17.5 -10.95 16.6 0.85 15.75 22.0 16.75 43.1 17.65 61.7 20.45 74.8 22.4 102.1 39.15 L110.3 45.2 Q120.15 52.4 122.05 64.4 124.0 76.45 116.8 86.35 109.65 96.2 97.6 98.1 85.55 100.05 75.7 92.85 L74.15 91.65 Q40.05 75.45 17.3 78.75 L-7.55 82.1 -43.55 84.8 -52.6 84.5 Q-79.65 44.95 -45.95 7.55" fill="#ffffff" fill-opacity="0.0" fill-rule="evenodd" stroke="none"/>
    <path d="M-45.95 7.55 Q-39.55 9.8 -31.05 13.75 -22.85 17.5 -10.95 16.6 0.85 15.75 22.0 16.75 43.1 17.65 61.7 20.45 74.8 22.4 102.1 39.15 L110.3 45.2 Q120.15 52.4 122.05 64.4 124.0 76.45 116.8 86.35 109.65 96.2 97.6 98.1 85.55 100.05 75.7 92.85 L74.15 91.65 Q40.05 75.45 17.3 78.75 L-7.55 82.1 -43.55 84.8 -52.6 84.5" fill="none" stroke="#000000" stroke-linecap="round" stroke-linejoin="round" stroke-width="1.0"/>
  </g>
</svg>
