<?xml version="1.0" encoding="UTF-8" standalone="no"?>
<svg xmlns:xlink="http://www.w3.org/1999/xlink" height="141.85px" width="402.8px" xmlns="http://www.w3.org/2000/svg">
  <g transform="matrix(1.0, 0.0, 0.0, 1.0, 213.2, 71.85)">
    <path d="M154.1 60.85 L147.3 61.15 142.9 61.05 66.75 66.75 Q16.8 70.95 -19.2 68.7 L-63.2 67.2 -67.4 67.1 Q-92.4 66.3 -109.55 64.2 -165.1 57.55 -212.7 30.0 -189.5 37.4 -159.35 37.05 -137.35 36.75 -104.7 31.8 -87.75 29.3 -67.4 23.45 -33.55 13.75 9.6 -5.1 32.75 -15.15 69.9 -35.6 91.3 -47.3 113.3 -60.15 L114.2 -60.7 115.35 -61.35 115.8 -61.6 Q129.85 -69.5 148.0 -71.2 166.15 -72.9 189.1 -55.2 179.95 -10.15 154.1 60.85" fill="#ffffff" fill-opacity="0.0" fill-rule="evenodd" stroke="none"/>
    <path d="M189.1 -55.2 Q166.15 -72.9 148.0 -71.2 129.85 -69.5 115.8 -61.6 L115.35 -61.35 114.2 -60.7 113.3 -60.15 Q91.3 -47.3 69.9 -35.6 32.75 -15.15 9.6 -5.1 -33.55 13.75 -67.4 23.45 -87.75 29.3 -104.7 31.8 -137.35 36.75 -159.35 37.05 -189.5 37.4 -212.7 30.0 -165.1 57.55 -109.55 64.2 -92.4 66.3 -67.4 67.1 L-63.2 67.2 -19.2 68.7 Q16.8 70.95 66.75 66.75 L142.9 61.05 147.3 61.15 154.1 60.85" fill="none" stroke="#000000" stroke-linecap="round" stroke-linejoin="round" stroke-width="1.0"/>
  </g>
</svg>
