<?xml version="1.0" encoding="UTF-8" standalone="no"?>
<svg xmlns:xlink="http://www.w3.org/1999/xlink" height="48.2px" width="171.35px" xmlns="http://www.w3.org/2000/svg">
  <g transform="matrix(1.0, 0.0, 0.0, 1.0, 89.1, 60.8)">
    <path d="M47.5 -57.7 L47.65 -57.5 Q37.9 -52.5 36.85 -17.25 22.2 -50.9 30.8 -55.9 L31.35 -55.95 47.5 -57.7 M5.1 -52.85 L19.85 -54.65 Q11.1 -51.0 10.7 -20.0 -2.35 -48.6 5.1 -52.85 M81.75 -60.3 Q69.35 -55.95 66.55 -13.1 50.75 -53.1 60.9 -58.8 L81.75 -60.3 M-87.75 -44.3 L-81.7 -44.9 Q-84.75 -42.2 -84.7 -30.0 -90.4 -41.9 -87.75 -44.3 M-18.2 -50.2 L-5.95 -51.55 Q-13.3 -48.3 -13.65 -22.2 -24.95 -46.85 -18.2 -50.2 M-72.85 -45.75 L-65.15 -46.4 Q-69.5 -44.3 -70.3 -28.7 -76.35 -43.35 -72.85 -45.75 M-47.85 -47.65 Q-53.15 -45.3 -54.35 -26.9 -61.2 -44.3 -57.0 -47.05 L-47.85 -47.65 M-38.25 -48.35 L-27.6 -49.25 Q-33.75 -46.45 -34.75 -24.65 -43.3 -45.1 -38.25 -48.35" fill="#ffffff" fill-opacity="0.0" fill-rule="evenodd" stroke="none"/>
    <path d="M47.65 -57.5 L48.2 -57.75 47.5 -57.7 M47.65 -57.5 Q37.9 -52.5 36.85 -17.25 22.2 -50.9 30.8 -55.9 M19.85 -54.65 Q11.1 -51.0 10.7 -20.0 -2.35 -48.6 5.1 -52.85 M60.9 -58.8 Q50.75 -53.1 66.55 -13.1 69.35 -55.95 81.75 -60.3 M-81.7 -44.9 Q-84.75 -42.2 -84.7 -30.0 -90.4 -41.9 -87.75 -44.3 M-5.95 -51.55 Q-13.3 -48.3 -13.65 -22.2 -24.95 -46.85 -18.2 -50.2 M-65.15 -46.4 Q-69.5 -44.3 -70.3 -28.7 -76.35 -43.35 -72.85 -45.75 M-47.85 -47.65 Q-53.15 -45.3 -54.35 -26.9 -61.2 -44.3 -57.0 -47.05 M-27.6 -49.25 Q-33.75 -46.45 -34.75 -24.65 -43.3 -45.1 -38.25 -48.35" fill="none" stroke="#000000" stroke-linecap="round" stroke-linejoin="round" stroke-opacity="0.3019608" stroke-width="1.0"/>
  </g>
</svg>
