<?xml version="1.0" encoding="UTF-8" standalone="no"?>
<svg xmlns:xlink="http://www.w3.org/1999/xlink" height="283.2px" width="400.5px" xmlns="http://www.w3.org/2000/svg">
  <g transform="matrix(1.0, 0.0, 0.0, 1.0, 204.7, 141.6)">
    <path d="M97.1 -132.75 Q103.3 -129.4 120.45 -117.55 135.0 -107.8 142.65 -105.2 150.3 -102.6 166.45 -81.55 182.55 -60.5 190.15 -28.9 206.05 20.4 172.9 50.3 162.05 60.05 146.5 70.3 131.15 80.05 126.85 83.1 115.3 91.1 69.4 111.4 32.1 128.05 7.95 137.35 -6.45 142.95 -34.6 140.2 L-81.15 133.8 Q-99.7 131.4 -117.65 126.3 -127.25 123.6 -147.55 116.4 -158.15 112.65 -168.4 100.75 -178.1 93.3 -191.6 78.45 -205.15 63.6 -204.15 36.45 -203.15 9.3 -190.7 -4.45 -178.25 -18.25 -166.1 -24.8 -149.65 -41.55 -75.1 -80.25 -19.7 -109.05 39.5 -135.3 68.45 -148.1 97.1 -132.75" fill="#ffffff" fill-opacity="0.0" fill-rule="evenodd" stroke="none"/>
    <path d="M97.1 -132.75 Q68.45 -148.1 39.5 -135.3 -19.7 -109.05 -75.1 -80.25 -149.65 -41.55 -166.1 -24.8 -178.25 -18.25 -190.7 -4.45 -203.15 9.3 -204.15 36.45 -205.15 63.6 -191.6 78.45 -178.1 93.3 -168.4 100.75 -158.15 112.65 -147.55 116.4 -127.25 123.6 -117.65 126.3 -99.7 131.4 -81.15 133.8 L-34.6 140.2 Q-6.45 142.95 7.95 137.35 32.1 128.05 69.4 111.4 115.3 91.1 126.85 83.1 131.15 80.05 146.5 70.3 162.05 60.05 172.9 50.3 206.05 20.4 190.15 -28.9 182.55 -60.5 166.45 -81.55 150.3 -102.6 142.65 -105.2 135.0 -107.8 120.45 -117.55 103.3 -129.4 97.1 -132.75 Z" fill="none" stroke="#000000" stroke-linecap="round" stroke-linejoin="round" stroke-width="1.0"/>
  </g>
</svg>
