<?xml version="1.0" encoding="UTF-8" standalone="no"?>
<svg xmlns:xlink="http://www.w3.org/1999/xlink" height="136.4px" width="54.75px" xmlns="http://www.w3.org/2000/svg">
  <g transform="matrix(1.0, 0.0, 0.0, 1.0, 27.55, 64.55)">
    <path d="M25.0 -55.6 L25.05 -53.35 Q28.6 -36.8 24.45 3.7 21.5 32.8 17.55 52.8 L14.15 67.4 Q-0.9 76.35 -16.0 67.4 L-15.05 63.25 -15.0 61.75 -16.9 45.1 -17.3 41.95 -21.7 9.7 Q-28.6 -39.5 -26.6 -53.85 L-26.65 -55.6 Q-2.85 -73.5 25.0 -55.6" fill="#ffffff" fill-opacity="0.0" fill-rule="evenodd" stroke="none"/>
    <path d="M25.0 -55.6 L25.05 -53.35 Q28.6 -36.8 24.45 3.7 21.5 32.8 17.55 52.8 L14.15 67.4 M-16.0 67.4 L-15.05 63.25 -15.0 61.75 -16.9 45.1 -17.3 41.95 -21.7 9.7 Q-28.6 -39.5 -26.6 -53.85 L-26.65 -55.6" fill="none" stroke="#000000" stroke-linecap="round" stroke-linejoin="round" stroke-width="1.0"/>
  </g>
</svg>
