<?xml version="1.0" encoding="UTF-8" standalone="no"?>
<svg xmlns:xlink="http://www.w3.org/1999/xlink" height="46.85px" width="75.5px" xmlns="http://www.w3.org/2000/svg">
  <g transform="matrix(1.0, 0.0, 0.0, 1.0, 37.75, 19.3)">
    <path d="M-36.25 0.9 L-37.0 -2.6 -37.25 -5.75 -37.15 -7.6 Q-23.8 -31.0 5.25 -7.6 L15.85 1.45 Q21.95 6.8 30.3 13.55 35.9 18.7 37.25 24.25 30.6 26.95 8.25 27.05 -14.55 27.15 -26.45 24.25 -32.4 22.85 -33.55 12.85 -34.2 7.3 -34.85 4.35 L-34.75 4.35 -34.9 4.2 -35.3 2.7 -35.95 1.35 -36.25 0.9" fill="#ffffff" fill-opacity="0.0" fill-rule="evenodd" stroke="none"/>
    <path d="M-36.25 0.9 L-37.0 -2.6 -37.25 -5.75 -37.15 -7.6 M5.25 -7.6 L15.85 1.45 Q21.95 6.8 30.3 13.55 35.9 18.7 37.25 24.25 30.6 26.95 8.25 27.05 -14.55 27.15 -26.45 24.25 -32.4 22.85 -33.55 12.85 -34.2 7.3 -34.85 4.35 L-34.9 4.2 Q-35.65 3.3 -36.1 1.45 L-36.25 0.9 Z" fill="none" stroke="#000000" stroke-linecap="round" stroke-linejoin="round" stroke-width="1.0"/>
  </g>
</svg>
