<?xml version="1.0" encoding="UTF-8" standalone="no"?>
<svg xmlns:xlink="http://www.w3.org/1999/xlink" height="11.4px" width="41.35px" xmlns="http://www.w3.org/2000/svg">
  <g transform="matrix(1.0, 0.0, 0.0, 1.0, 23.9, 5.15)">
    <path d="M10.65 -2.7 Q14.1 -1.35 15.55 0.2 17.0 1.9 16.8 2.5 L15.65 4.25 14.0 5.6 Q13.45 5.65 12.5 4.75 L11.65 3.8 Q9.1 1.85 1.9 1.2 L1.85 1.2 1.8 1.2 -5.4 1.75 -5.5 1.75 -12.1 2.65 -18.05 2.85 -22.8 2.65 Q-23.2 2.4 -23.25 0.2 -23.25 -2.0 -22.8 -2.35 L-18.35 -2.5 -11.4 -2.75 -6.3 -3.55 -1.3 -4.25 2.4 -4.45 Q6.7 -4.2 10.65 -2.7" fill="#ffffff" fill-opacity="0.0" fill-rule="evenodd" stroke="none"/>
    <path d="M10.65 -2.7 Q14.1 -1.35 15.55 0.2 17.0 1.9 16.8 2.5 L15.65 4.25 14.0 5.6 Q13.45 5.65 12.5 4.75 L11.65 3.8 Q9.1 1.85 1.9 1.2 L1.85 1.2 1.8 1.2 -5.4 1.75 -5.5 1.75 -12.1 2.65 -18.05 2.85 -22.8 2.65 Q-23.2 2.4 -23.25 0.2 -23.25 -2.0 -22.8 -2.35 L-18.35 -2.5 -11.4 -2.75 -6.3 -3.55 -1.3 -4.25 2.4 -4.45 Q6.7 -4.2 10.65 -2.7 Z" fill="none" stroke="#000000" stroke-linecap="square" stroke-linejoin="miter-clip" stroke-miterlimit="3.0" stroke-opacity="0.69803923" stroke-width="1.0"/>
  </g>
</svg>
