<?xml version="1.0" encoding="UTF-8" standalone="no"?>
<svg xmlns:xlink="http://www.w3.org/1999/xlink" height="23.5px" width="32.9px" xmlns="http://www.w3.org/2000/svg">
  <g transform="matrix(1.0, 0.0, 0.0, 1.0, 15.55, 13.4)">
    <path d="M6.5 -4.75 L12.3 -1.0 Q16.9 4.4 16.85 5.1 16.85 5.65 15.55 7.6 14.2 9.6 13.85 9.6 13.4 9.6 9.55 7.0 4.3 3.9 -4.4 1.05 -11.15 -1.2 -13.5 -4.15 -15.7 -6.75 -14.8 -10.75 L-13.55 -12.6 -10.95 -12.9 -8.3 -12.8 -6.7 -11.45 -4.8 -9.95 -3.85 -9.35 -1.2 -8.45 Q2.85 -7.1 6.5 -4.75" fill="#ffffff" fill-opacity="0.0" fill-rule="evenodd" stroke="none"/>
    <path d="M6.5 -4.75 Q2.85 -7.1 -1.2 -8.45 L-3.85 -9.35 -4.8 -9.95 -6.7 -11.45 -8.3 -12.8 -10.95 -12.9 -13.55 -12.6 -14.8 -10.75 Q-15.7 -6.75 -13.5 -4.15 -11.15 -1.2 -4.4 1.05 4.3 3.9 9.55 7.0 13.4 9.6 13.85 9.6 14.2 9.6 15.55 7.6 16.85 5.65 16.85 5.1 16.9 4.4 12.3 -1.0 L6.5 -4.75 Z" fill="none" stroke="#000000" stroke-linecap="round" stroke-linejoin="miter-clip" stroke-miterlimit="3.0" stroke-opacity="0.69803923" stroke-width="1.0"/>
  </g>
</svg>
