<?xml version="1.0" encoding="UTF-8" standalone="no"?>
<svg xmlns:xlink="http://www.w3.org/1999/xlink" height="8.7px" width="21.95px" xmlns="http://www.w3.org/2000/svg">
  <g transform="matrix(1.0, 0.0, 0.0, 1.0, 9.8, 4.45)">
    <path d="M-9.3 -0.85 Q-8.6 -1.3 -5.3 -2.55 -2.0 -3.85 2.05 -3.8 6.1 -3.8 9.85 -1.15 L6.65 -0.95 1.7 -1.2 -3.95 -1.0 -9.3 -0.85" fill="#ffffff" fill-opacity="0.0" fill-rule="evenodd" stroke="none"/>
    <path d="M9.85 -1.15 L6.65 -0.95 1.7 -1.2 -3.95 -1.0 -9.3 -0.85" fill="none" stroke="#000000" stroke-linecap="round" stroke-linejoin="round" stroke-opacity="0.4" stroke-width="1.0"/>
    <path d="M-9.3 -0.85 Q-8.6 -1.3 -5.3 -2.55 -2.0 -3.85 2.05 -3.8 6.1 -3.8 9.85 -1.15 Z" fill="none" stroke="#000000" stroke-linecap="round" stroke-linejoin="round" stroke-width="1.0"/>
    <path d="M-0.35 -3.7 Q7.4 -4.7 11.0 -1.6 M9.85 -1.2 Q10.85 -0.95 11.4 0.1 L11.65 0.95 M3.95 3.3 L-3.2 3.65 Q-5.75 3.35 -8.3 0.4" fill="none" stroke="#000000" stroke-linecap="round" stroke-linejoin="round" stroke-opacity="0.2" stroke-width="1.0"/>
  </g>
</svg>
