<?xml version="1.0" encoding="UTF-8" standalone="no"?>
<svg xmlns:xlink="http://www.w3.org/1999/xlink" height="32.2px" width="30.4px" xmlns="http://www.w3.org/2000/svg">
  <g transform="matrix(1.0, 0.0, 0.0, 1.0, 15.2, 16.1)">
    <path d="M8.65 -13.35 Q11.35 -15.8 12.65 -16.1 12.95 -15.15 12.3 -13.15 L11.75 -11.5 11.35 -10.05 11.0 -7.6 10.45 -5.2 10.55 -5.1 12.15 -3.25 12.75 -2.4 14.2 -0.15 Q15.15 1.85 15.2 4.1 15.25 6.4 14.6 8.25 14.1 9.6 13.0 11.0 L10.45 14.1 Q8.5 16.05 7.1 16.1 L1.65 15.85 Q-2.3 15.4 -3.95 14.65 L-9.5 11.8 Q-13.45 9.45 -14.25 7.8 -15.2 5.75 -15.2 4.6 L-14.8 0.7 Q-14.35 -1.7 -13.3 -3.3 L-13.6 -6.05 Q-13.55 -8.7 -12.05 -11.5 -9.65 -11.65 -7.15 -9.85 L-5.45 -8.4 -4.85 -7.8 -2.2 -8.4 1.6 -8.6 Q2.2 -9.15 3.55 -9.6 L5.45 -10.4 6.7 -11.55 8.65 -13.35" fill="#ffffff" fill-rule="evenodd" stroke="none"/>
  </g>
</svg>
