<?xml version="1.0" encoding="UTF-8" standalone="no"?>
<svg xmlns:xlink="http://www.w3.org/1999/xlink" height="32.95px" width="37.0px" xmlns="http://www.w3.org/2000/svg">
  <g transform="matrix(1.0, 0.0, 0.0, 1.0, 18.5, 16.45)">
    <path d="M0.65 -16.4 L5.3 -16.1 Q11.2 -15.65 13.4 -12.6 L14.15 -11.3 Q16.55 -7.2 17.75 -3.15 19.15 1.5 17.85 3.75 L17.2 4.5 17.95 7.5 18.0 9.55 17.45 11.95 Q17.0 13.7 16.3 14.2 L13.9 15.65 Q12.1 16.5 10.35 16.5 8.5 16.5 5.05 14.8 1.7 13.15 1.0 11.9 L0.3 10.0 0.15 9.3 Q-2.75 8.45 -4.8 7.4 -5.8 8.65 -7.7 9.05 L-10.3 9.1 -12.2 8.65 -13.95 6.95 -16.15 3.75 Q-17.35 1.85 -17.95 0.35 -18.65 -1.3 -18.45 -1.9 -17.5 -4.3 -13.85 -7.7 -10.25 -11.05 -7.55 -12.15 -5.35 -14.6 -3.9 -15.45 -2.45 -16.3 0.65 -16.4" fill="#ffffff" fill-rule="evenodd" stroke="none"/>
  </g>
</svg>
