<?xml version="1.0" encoding="UTF-8" standalone="no"?>
<svg xmlns:xlink="http://www.w3.org/1999/xlink" height="33.95px" width="38.0px" xmlns="http://www.w3.org/2000/svg">
  <g transform="matrix(1.0, 0.0, 0.0, 1.0, 14.45, 13.2)">
    <path d="M18.7 -7.55 Q21.1 -3.45 22.3 0.6 23.7 5.25 22.4 7.5 L21.75 8.25 22.5 11.25 22.55 13.3 22.0 15.7 Q21.55 17.45 20.85 17.95 L18.45 19.4 Q16.65 20.25 14.9 20.25 13.05 20.25 9.6 18.55 6.25 16.9 5.55 15.65 L4.85 13.75 4.7 13.05 Q1.8 12.2 -0.25 11.15 -1.25 12.4 -3.15 12.8 L-5.75 12.85 -7.65 12.4 -9.4 10.7 -11.6 7.5 Q-12.8 5.6 -13.4 4.1 -14.1 2.45 -13.9 1.85 -12.95 -0.55 -9.3 -3.95 -5.7 -7.3 -3.0 -8.4 -0.8 -10.85 0.65 -11.7 2.1 -12.55 5.2 -12.65 L9.85 -12.35 Q15.75 -11.9 17.95 -8.85 L18.7 -7.55 19.05 -6.35 20.3 -0.6 20.8 4.35 21.75 8.25 M-0.25 11.15 Q0.5 10.1 0.65 8.6 0.85 6.85 0.35 4.55 L-0.75 0.6 Q-1.45 -1.75 -1.5 -3.25 -1.55 -5.3 -0.6 -6.95" fill="none" stroke="#000000" stroke-linecap="round" stroke-linejoin="round" stroke-width="1.0"/>
    <path d="M21.4 11.7 Q21.7 11.95 21.45 13.05 L20.75 14.65 19.75 16.05 18.7 16.9 17.45 16.0 16.4 15.05 15.25 13.2 15.65 12.25 16.7 11.35 17.55 11.15 19.1 11.05 20.3 11.15 Q21.0 11.35 21.4 11.7" fill="#333333" fill-rule="evenodd" stroke="none"/>
    <path d="M21.4 11.7 Q21.0 11.35 20.3 11.15 L19.1 11.05 17.55 11.15 16.7 11.35 15.65 12.25 15.25 13.2 16.4 15.05 17.45 16.0 18.7 16.9 19.75 16.05 20.75 14.65 21.45 13.05 Q21.7 11.95 21.4 11.7 Z" fill="none" stroke="#000000" stroke-linecap="round" stroke-linejoin="round" stroke-width="1.0"/>
  </g>
</svg>
