<?xml version="1.0" encoding="UTF-8" standalone="no"?>
<svg xmlns:xlink="http://www.w3.org/1999/xlink" height="39.3px" width="30.0px" xmlns="http://www.w3.org/2000/svg">
  <g transform="matrix(1.0, 0.0, 0.0, 1.0, 15.0, 19.65)">
    <path d="M9.7 -14.2 L8.15 -10.0 7.9 -10.0 8.25 -9.75 9.6 -8.35 10.15 -7.55 10.6 -6.65 11.3 -5.4 Q12.35 -3.0 12.15 -1.35 L11.8 0.4 11.3 1.9 Q10.75 3.5 11.15 4.55 L13.2 8.25 14.9 11.75 Q15.1 13.1 14.9 14.9 14.6 16.85 13.9 17.35 L11.5 18.8 Q9.7 19.65 7.95 19.65 6.1 19.65 2.65 17.95 -0.7 16.3 -1.4 15.05 L-2.1 13.15 -2.25 12.45 Q-9.5 10.3 -11.45 6.85 -13.35 3.7 -13.7 1.8 -13.7 0.15 -12.95 -2.55 -14.1 -4.65 -14.75 -9.7 -15.6 -16.55 -13.25 -17.85 -11.7 -18.45 -7.55 -13.1 L-6.05 -11.8 -6.05 -11.75 -5.95 -11.7 -6.0 -11.85 Q-3.15 -13.55 -0.45 -13.45 L2.9 -12.95 4.45 -14.35 6.65 -16.55 8.45 -18.55 9.9 -19.65 10.7 -19.2 11.15 -18.2 9.7 -14.2" fill="#ffffff" fill-rule="evenodd" stroke="none"/>
  </g>
</svg>
