<?xml version="1.0" encoding="UTF-8" standalone="no"?>
<svg xmlns:xlink="http://www.w3.org/1999/xlink" height="100.5px" width="48.75px" xmlns="http://www.w3.org/2000/svg">
  <g transform="matrix(1.0, 0.0, 0.0, 1.0, 24.4, 50.2)">
    <path d="M-23.8 -45.95 L-20.05 -48.7 Q-15.55 -50.95 -11.75 -48.2 L23.75 31.55 21.5 32.65 Q19.85 35.6 20.2 41.65 20.5 45.55 21.35 49.3 L19.25 49.75 -23.8 -45.95" fill="#000000" fill-opacity="0.2" fill-rule="evenodd" stroke="none"/>
    <path d="M-23.8 -45.95 L19.25 49.75 21.35 49.3 Q20.5 45.55 20.2 41.65 19.85 35.6 21.5 32.65 L23.75 31.55 -11.75 -48.2 Q-15.55 -50.95 -20.05 -48.7 L-23.8 -45.95 Z" fill="none" stroke="#000000" stroke-linecap="butt" stroke-linejoin="miter-clip" stroke-miterlimit="10.0" stroke-width="1.0"/>
    <path d="M21.05 30.1 L18.25 30.95 -14.75 -47.05 21.05 30.1" fill="#ffffff" fill-rule="evenodd" stroke="none"/>
  </g>
</svg>
