<?xml version="1.0" encoding="UTF-8" standalone="no"?>
<svg xmlns:xlink="http://www.w3.org/1999/xlink" height="56.15px" width="42.15px" xmlns="http://www.w3.org/2000/svg">
  <g transform="matrix(1.0, 0.0, 0.0, 1.0, 19.65, 27.55)">
    <path d="M3.3 0.0 L1.75 1.8 -1.25 4.35 Q-3.35 5.5 -6.35 5.9 L-7.7 6.0 Q-10.35 6.0 -12.85 4.7 L-13.65 4.3 -14.25 3.9 Q-15.95 2.75 -17.35 1.1 -18.85 -0.7 -19.4 -3.75 L-19.65 -6.45 -19.6 -6.45 -19.35 -4.1 Q-18.85 -1.25 -17.4 0.6 L-17.1 0.95 -14.2 3.6 -13.6 4.0 -12.1 4.75 Q-9.3 6.0 -6.4 5.6 L-5.05 5.4 -4.05 5.2 Q-2.35 4.75 -1.0 3.95 0.45 3.15 2.05 1.4 L3.3 0.0 M21.9 -13.7 L22.5 -13.45 Q21.35 -10.95 19.9 -8.95 L18.15 -6.4 14.1 -0.4 Q12.15 2.35 11.3 2.95 L10.45 3.55 9.35 4.4 Q9.0 4.8 8.75 5.65 8.25 7.05 6.85 8.55 L4.8 10.45 Q3.95 11.15 3.25 12.55 L2.4 14.7 1.55 16.45 0.05 18.45 Q-0.65 19.35 -2.75 23.7 L-4.95 28.6 -5.75 28.35 -5.7 28.2 -5.2 28.35 -3.0 23.5 -0.15 18.2 1.3 16.25 2.2 14.45 Q2.45 13.4 3.0 12.3 3.7 10.95 4.55 10.25 L6.6 8.35 Q8.05 6.8 8.5 5.45 8.8 4.55 9.15 4.15 L10.2 3.3 11.05 2.7 Q11.9 2.1 13.85 -0.65 L17.95 -6.6 19.65 -9.2 Q21.05 -11.1 22.1 -13.4 L21.9 -13.7" fill="#ffffff" fill-opacity="0.6" fill-rule="evenodd" stroke="none"/>
    <path d="M-19.6 -6.45 L-19.6 -6.9 Q-19.55 -7.2 -19.25 -7.15 L-19.0 -6.9 -18.8 -4.3 Q-18.25 -1.35 -16.8 0.4 -15.35 2.1 -13.55 3.25 L-13.45 3.25 -13.45 3.3 -11.85 4.15 Q-9.05 5.4 -6.2 5.0 -3.3 4.6 -1.3 3.45 0.05 2.7 1.65 1.05 L6.2 -4.45 10.0 -9.6 11.55 -12.15 Q13.2 -14.75 13.9 -14.85 L13.95 -14.85 14.75 -14.75 14.95 -14.4 Q14.9 -14.15 14.65 -14.2 L13.95 -14.25 13.85 -14.2 13.05 -13.3 12.45 -12.5 10.5 -9.3 6.6 -4.0 5.0 -2.05 3.3 0.0 2.05 1.4 Q0.45 3.15 -1.0 3.95 -2.35 4.75 -4.05 5.2 L-5.05 5.4 -6.15 5.55 -7.5 5.65 Q-10.15 5.65 -12.7 4.4 L-13.6 3.95 -13.6 4.0 -14.2 3.6 -14.2 3.55 Q-15.9 2.4 -17.25 0.75 L-17.4 0.6 Q-18.85 -1.25 -19.35 -4.1 L-19.6 -6.45 M-13.65 4.3 Q-14.45 7.9 -14.35 9.6 L-14.5 14.15 -14.6 15.7 Q-15.0 21.0 -15.3 22.0 -15.55 22.95 -15.3 26.1 L-15.3 26.5 -15.95 26.5 -15.95 26.1 Q-16.3 23.1 -15.95 21.85 -15.65 20.7 -15.3 15.65 L-15.2 14.1 Q-14.95 11.25 -15.05 9.6 -15.15 7.8 -14.25 3.9 L-13.65 4.3 M-5.7 28.2 L-6.0 28.1 -3.75 23.1 Q-1.65 18.7 -0.85 17.65 1.05 15.3 1.35 14.25 L2.05 12.3 Q2.9 10.45 4.05 9.6 7.05 7.1 7.7 5.15 8.05 4.1 8.5 3.6 L9.75 2.6 10.55 2.0 Q11.35 1.45 13.6 -1.7 L17.25 -7.1 19.0 -9.7 Q20.35 -11.6 21.5 -14.05 L21.75 -13.95 21.9 -13.7 22.1 -13.4 Q21.05 -11.1 19.65 -9.2 L17.95 -6.6 13.85 -0.65 Q11.9 2.1 11.05 2.7 L10.2 3.3 9.15 4.15 Q8.8 4.55 8.5 5.45 8.05 6.8 6.6 8.35 L4.55 10.25 Q3.7 10.95 3.0 12.3 2.45 13.4 2.2 14.45 L1.3 16.25 -0.15 18.2 -3.0 23.5 -5.2 28.35 -5.7 28.2" fill="#000000" fill-opacity="0.29803923" fill-rule="evenodd" stroke="none"/>
    <path d="M-18.7 -9.3 Q-15.2 -10.5 -11.45 -10.25 -6.95 -9.9 -1.55 -5.2 1.2 -2.85 3.0 -0.55" fill="none" stroke="#000000" stroke-linecap="butt" stroke-linejoin="miter-clip" stroke-miterlimit="10.0" stroke-opacity="0.6" stroke-width="1.0"/>
    <path d="M10.5 -9.3 L11.55 -9.35 13.0 -9.75 15.25 -12.55 14.9 -13.5 Q14.4 -14.4 13.95 -14.25 M5.4 -2.6 Q7.3 -1.8 7.8 -2.15 L9.35 -3.95 Q10.55 -5.5 10.4 -5.9 L9.45 -7.85 M-1.9 4.15 Q-0.3 5.4 0.25 5.2 L2.25 3.9 Q3.8 2.7 3.75 2.25 L3.3 0.1" fill="none" stroke="#000000" stroke-linecap="butt" stroke-linejoin="miter-clip" stroke-miterlimit="4.0" stroke-opacity="0.6" stroke-width="1.0"/>
    <path d="M14.75 -14.75 L11.2 -18.75 Q7.05 -23.1 3.65 -24.55 0.25 -26.0 -2.9 -26.7 L-5.35 -27.05" fill="none" stroke="#ffffff" stroke-linecap="butt" stroke-linejoin="miter-clip" stroke-miterlimit="10.0" stroke-opacity="0.8" stroke-width="1.0"/>
  </g>
</svg>
