<?xml version="1.0" encoding="UTF-8" standalone="no"?>
<svg xmlns:xlink="http://www.w3.org/1999/xlink" height="150.1px" width="393.9px" xmlns="http://www.w3.org/2000/svg">
  <g transform="matrix(1.0, 0.0, 0.0, 1.0, 111.85, 119.7)">
    <path d="M-101.95 -97.2 Q-101.85 -101.55 -99.05 -104.95 L-99.8 -103.9 -101.95 -97.2" fill="#ffffff" fill-rule="evenodd" stroke="none"/>
    <path d="M-93.2 29.9 L-96.55 29.65 Q-101.75 28.85 -105.75 25.45 L-106.05 25.15 Q-111.35 20.4 -111.35 13.65 L-111.35 -102.95 Q-111.35 -109.7 -106.05 -114.45 -100.75 -119.2 -93.2 -119.2 L263.4 -119.2 Q270.9 -119.2 276.25 -114.45 281.55 -109.7 281.55 -102.95 L281.55 13.65 Q281.55 20.4 276.25 25.15 272.15 28.8 266.75 29.65 L263.4 29.9 -93.2 29.9 M-99.8 -103.9 L-99.05 -104.95 Q-101.85 -101.55 -101.95 -97.2 L-101.95 -96.85 -101.95 7.55 Q-101.95 13.6 -96.9 17.85 -91.85 22.1 -84.7 22.1 L253.75 22.1 253.95 22.1 255.55 22.05 258.35 21.55 263.15 19.05 Q132.8 21.25 41.95 -13.35 19.2 -22.0 -1.05 -32.95 -11.4 -38.55 -20.9 -44.65 -43.1 -58.95 -60.5 -75.95 L-61.8 -77.2 Q-78.7 -94.0 -88.8 -110.95 -94.5 -109.75 -98.2 -105.9 L-99.8 -103.9 M270.4 -75.95 L-60.5 -75.95 270.4 -75.95 M-99.05 -104.95 L-98.15 -105.95 -97.9 -106.2 -97.4 -106.7 -97.3 -106.8 -96.9 -107.15 Q-91.85 -111.4 -84.7 -111.4 L253.75 -111.4 Q260.9 -111.4 265.95 -107.15 271.0 -102.9 271.0 -96.85 L271.0 7.55 Q271.0 13.6 265.95 17.85 261.55 21.55 255.55 22.05 261.55 21.55 265.95 17.85 271.0 13.6 271.0 7.55 L271.0 -96.85 Q271.0 -102.9 265.95 -107.15 260.9 -111.4 253.75 -111.4 L-84.7 -111.4 Q-91.85 -111.4 -96.9 -107.15 L-97.3 -106.8 -97.4 -106.7 -97.9 -106.2 -98.15 -105.95 -99.05 -104.95 M270.4 -13.35 L41.95 -13.35 270.4 -13.35 M270.4 -44.65 L-20.9 -44.65 270.4 -44.65" fill="#ffffff" fill-opacity="0.0" fill-rule="evenodd" stroke="none"/>
    <path d="M-101.95 -97.2 L-99.8 -103.9 -98.2 -105.9 Q-94.5 -109.75 -88.8 -110.95 -78.7 -94.0 -61.8 -77.2 L-60.5 -75.95 Q-43.1 -58.95 -20.9 -44.65 -11.4 -38.55 -1.05 -32.95 19.2 -22.0 41.95 -13.35 132.8 21.25 263.15 19.05 L258.35 21.55 255.55 22.05 253.95 22.1 253.75 22.1 -84.7 22.1 Q-91.85 22.1 -96.9 17.85 -101.95 13.6 -101.95 7.55 L-101.95 -96.85 -101.95 -97.2 M-101.65 -13.35 L41.95 -13.35 -101.65 -13.35 M-101.65 -75.95 L-60.5 -75.95 -101.65 -75.95 M-101.65 -44.65 L-20.9 -44.65 -101.65 -44.65" fill="#000000" fill-opacity="0.101960786" fill-rule="evenodd" stroke="none"/>
    <path d="M-93.2 29.9 L-96.55 29.65 Q-101.75 28.85 -105.75 25.45 L-106.05 25.15 Q-111.35 20.4 -111.35 13.65 L-111.35 -102.95 Q-111.35 -109.7 -106.05 -114.45 -100.75 -119.2 -93.2 -119.2 L263.4 -119.2 Q270.9 -119.2 276.25 -114.45 281.55 -109.7 281.55 -102.95 L281.55 13.65 Q281.55 20.4 276.25 25.15 272.15 28.8 266.75 29.65" fill="none" stroke="#000000" stroke-linecap="round" stroke-linejoin="round" stroke-width="1.0"/>
    <path d="M266.75 29.65 L263.4 29.9 -93.2 29.9 M-99.8 -103.9 L-99.05 -104.95 Q-101.85 -101.55 -101.95 -97.2 L-101.95 -96.85 -101.95 7.55 Q-101.95 13.6 -96.9 17.85 -91.85 22.1 -84.7 22.1 L253.75 22.1 253.95 22.1 255.55 22.05 Q261.55 21.55 265.95 17.85 271.0 13.6 271.0 7.55 L271.0 -96.85 Q271.0 -102.9 265.95 -107.15 260.9 -111.4 253.75 -111.4 L-84.7 -111.4 Q-91.85 -111.4 -96.9 -107.15 L-97.3 -106.8 -97.4 -106.7 -97.9 -106.2 -98.15 -105.95 -99.05 -104.95" fill="none" stroke="#000000" stroke-linecap="round" stroke-linejoin="round" stroke-opacity="0.6" stroke-width="1.0"/>
    <path d="M-60.5 -75.95 L270.4 -75.95 M41.95 -13.35 L-101.65 -13.35 M41.95 -13.35 L270.4 -13.35 M-20.9 -44.65 L270.4 -44.65 M-20.9 -44.65 L-101.65 -44.65 M-60.5 -75.95 L-101.65 -75.95" fill="none" stroke="#000000" stroke-linecap="round" stroke-linejoin="round" stroke-opacity="0.4" stroke-width="1.0"/>
  </g>
</svg>
