<?xml version="1.0" encoding="UTF-8" standalone="no"?>
<svg xmlns:xlink="http://www.w3.org/1999/xlink" height="10.6px" width="179.5px" xmlns="http://www.w3.org/2000/svg">
  <g transform="matrix(1.0, 0.0, 0.0, 1.0, 89.75, 57.6)">
    <path d="M49.1 -57.0 L47.8 -55.8 48.9 -57.0 49.1 -57.0" fill="#ff0000" fill-rule="evenodd" stroke="none"/>
    <path d="M40.3 -52.45 L40.4 -52.45 40.3 -51.95 40.3 -52.45 M40.3 -54.35 L40.4 -54.4 40.3 -54.3 40.3 -54.35 M-55.9 -56.3 L-55.35 -56.95 -55.3 -57.0 -55.25 -57.1 -55.35 -56.95 -55.9 -56.3" fill="#ffffff" fill-rule="evenodd" stroke="none"/>
    <path d="M45.75 -51.3 Q46.55 -54.25 47.8 -55.8 L49.1 -57.0 51.1 -57.0 53.35 -57.0 84.65 -57.0 Q86.5 -56.95 87.85 -55.6 89.2 -54.3 89.25 -52.35 L89.25 -52.1 89.15 -51.3 45.75 -51.3 M-89.15 -51.3 L-89.25 -52.1 -89.25 -52.35 Q-89.2 -54.3 -87.85 -55.6 -86.55 -56.95 -84.6 -57.0 L-55.3 -57.0 -55.35 -56.95 -55.9 -56.3 Q-57.75 -54.1 -58.65 -51.3 L-89.15 -51.3" fill="#ffffff" fill-opacity="0.0" fill-rule="evenodd" stroke="none"/>
    <path d="M45.75 -51.3 L89.15 -51.3 Q88.9 -49.95 87.85 -48.9 86.5 -47.55 84.65 -47.5 L53.55 -47.5 44.9 -47.5 44.95 -47.8 45.75 -51.3 M-89.15 -51.3 L-58.65 -51.3 -58.9 -50.55 -59.05 -49.85 -59.25 -49.1 -59.55 -47.5 -84.6 -47.5 Q-86.55 -47.55 -87.85 -48.9 -88.9 -49.95 -89.15 -51.3" fill="#000000" fill-opacity="0.101960786" fill-rule="evenodd" stroke="none"/>
    <path d="M47.8 -55.8 Q46.55 -54.25 45.75 -51.3 L44.95 -47.8 44.9 -47.5 M49.1 -57.0 L47.8 -55.8 M-58.65 -51.3 Q-57.75 -54.1 -55.9 -56.3 L-55.35 -56.95 M-59.55 -47.5 L-59.25 -49.1 -59.05 -49.85 -58.9 -50.55 -58.65 -51.3" fill="none" stroke="#000000" stroke-linecap="round" stroke-linejoin="round" stroke-opacity="0.6" stroke-width="1.0"/>
    <path d="M-55.25 -57.1 L-55.35 -56.95" fill="none" stroke="#000000" stroke-linecap="round" stroke-linejoin="round" stroke-width="1.0"/>
    <path d="M53.35 -57.0 L51.1 -57.0 49.1 -57.0 M53.55 -47.5 L44.9 -47.5" fill="none" stroke="#000000" stroke-linecap="butt" stroke-linejoin="miter-clip" stroke-miterlimit="3.0" stroke-opacity="0.6" stroke-width="1.0"/>
    <path d="M89.15 -51.3 L89.25 -52.1 89.25 -52.35 Q89.2 -54.3 87.85 -55.6 86.5 -56.95 84.65 -57.0 L53.35 -57.0 M53.55 -47.5 L84.65 -47.5 Q86.5 -47.55 87.85 -48.9 88.9 -49.95 89.15 -51.3 M-55.3 -57.0 L-84.6 -57.0 Q-86.55 -56.95 -87.85 -55.6 -89.2 -54.3 -89.25 -52.35 L-89.25 -52.1 -89.15 -51.3 Q-88.9 -49.95 -87.85 -48.9 -86.55 -47.55 -84.6 -47.5 L-59.55 -47.5" fill="none" stroke="#000000" stroke-linecap="butt" stroke-linejoin="miter-clip" stroke-miterlimit="3.0" stroke-width="1.0"/>
  </g>
</svg>
