<?xml version="1.0" encoding="UTF-8" standalone="no"?>
<svg xmlns:xlink="http://www.w3.org/1999/xlink" height="484.05px" width="1701.7px" xmlns="http://www.w3.org/2000/svg">
  <g transform="matrix(1.0, 0.0, 0.0, 1.0, 1192.35, 215.5)">
    <path d="M-1101.6 -124.8 Q-668.9 -183.7 -164.7 -191.45 204.0 -196.9 507.0 -176.05 L508.85 -175.95 508.85 50.45 Q9.5 67.0 -536.2 156.1 -852.55 207.7 -1101.6 268.05 L-1101.6 -124.8" fill="#ffffff" fill-opacity="0.0" fill-rule="evenodd" stroke="none"/>
    <path d="M507.0 -178.7 L507.0 -176.05 Q204.0 -196.9 -164.7 -191.45 -668.9 -183.7 -1101.6 -124.8 L-1191.85 -156.05 -1101.6 -124.8 -1101.6 268.05 -1191.85 224.6 -1191.85 -156.05 Q-770.95 -213.5 -243.15 -214.95 106.65 -216.0 454.4 -192.95 L507.0 -178.7" fill="#ffffff" fill-opacity="0.6" fill-rule="evenodd" stroke="none"/>
    <path d="M454.4 -192.95 Q106.65 -216.0 -243.15 -214.95 -770.95 -213.5 -1191.85 -156.05 M508.85 50.45 Q9.5 67.0 -536.2 156.1 -852.55 207.7 -1101.6 268.05" fill="none" stroke="#000000" stroke-linecap="butt" stroke-linejoin="miter-clip" stroke-miterlimit="4.0" stroke-width="1.0"/>
    <path d="M-1191.85 -156.05 L-1101.6 -124.8 -1101.6 268.05" fill="none" stroke="#000000" stroke-linecap="round" stroke-linejoin="miter-clip" stroke-miterlimit="4.0" stroke-opacity="0.6" stroke-width="1.0"/>
    <path d="M507.0 -176.05 L507.0 -178.7 M507.0 -176.05 L508.85 -175.95 M-1101.6 268.05 L-1191.85 224.6" fill="none" stroke="#000000" stroke-linecap="round" stroke-linejoin="miter-clip" stroke-miterlimit="4.0" stroke-width="1.0"/>
    <path d="M507.0 -178.7 L454.4 -192.95 M508.85 -175.95 L508.85 50.45 M-1191.85 224.6 L-1191.85 -156.05" fill="none" stroke="#000000" stroke-linecap="butt" stroke-linejoin="miter-clip" stroke-miterlimit="4.0" stroke-width="1.0"/>
    <path d="M-1101.6 -124.8 Q-668.9 -183.7 -164.7 -191.45" fill="none" stroke="#000000" stroke-linecap="round" stroke-linejoin="miter-clip" stroke-miterlimit="4.0" stroke-opacity="0.6" stroke-width="1.0"/>
    <path d="M-164.7 -191.45 Q204.0 -196.9 507.0 -176.05" fill="none" stroke="#000000" stroke-linecap="butt" stroke-linejoin="miter-clip" stroke-miterlimit="4.0" stroke-opacity="0.6" stroke-width="1.0"/>
    <path d="M208.5 -205.5 L265.35 -191.25 265.35 58.4 M-377.55 -213.9 L-301.85 -191.45 -301.65 117.25 M-1043.25 -174.3 L-946.4 -146.4 -946.4 229.6" fill="none" stroke="#000000" stroke-linecap="butt" stroke-linejoin="miter-clip" stroke-miterlimit="4.0" stroke-opacity="0.6" stroke-width="1.0"/>
  </g>
</svg>
