<?xml version="1.0" encoding="UTF-8" standalone="no"?>
<svg xmlns:xlink="http://www.w3.org/1999/xlink" height="168.4px" width="284.0px" xmlns="http://www.w3.org/2000/svg">
  <g transform="matrix(1.0, 0.0, 0.0, 1.0, 152.55, 51.6)">
    <path d="M30.5 -32.7 L58.3 -32.7 127.65 -32.7 127.65 50.75 58.3 50.75 58.3 34.7 30.5 34.7 30.5 -32.7 16.75 -32.7 16.75 54.05 130.95 54.05 130.95 -46.35 21.05 -46.4 20.05 -46.4 8.8 -36.95 8.85 -36.5 9.25 -32.7 12.85 -32.7 16.75 -32.7 M12.85 -32.7 L12.85 43.0 Q12.85 45.45 11.65 46.8 L11.55 46.9 11.4 47.05 10.15 48.4 10.1 48.4 9.85 48.6 9.3 49.15 9.1 49.35 Q7.8 50.15 5.65 50.15 L-13.85 50.15 -13.85 91.65 -28.95 110.2 -29.4 110.2 Q-29.8 111.3 -30.45 112.05 L-30.55 112.2 -30.75 112.4 -32.65 114.3 -33.4 115.05 -33.65 115.25 Q-35.25 116.3 -37.95 116.3 L-136.75 116.3 Q-143.35 116.3 -143.35 109.7 L-143.35 8.6 Q-143.35 5.55 -141.95 3.9 L-141.9 3.9 -141.45 3.35 -139.6 1.5 -139.15 1.05 Q-137.5 -0.4 -134.4 -0.4 L-122.05 -0.4 -122.05 -9.1 -152.05 -9.1 -152.05 -14.8 -78.0 -51.1 21.05 -51.1 21.05 -46.4 M9.85 48.6 L10.15 48.4 M58.3 34.7 L58.3 -32.7 M-110.0 -5.05 L-110.0 -9.1 -113.3 -9.1 -113.3 -5.05 -110.0 -5.05 -78.65 -5.05 -78.65 -9.1 -110.0 -9.1 M-113.3 -9.1 L-122.05 -9.1 M-45.45 -9.1 L-48.45 -9.1 -48.45 -0.4 -45.55 -0.4 -45.55 -8.65 -45.45 -9.1 -25.15 -9.1 8.85 -36.5 M-78.65 -5.05 L-56.8 -5.05 -56.8 -9.1 -78.65 -9.1 M-48.45 -9.1 L-56.8 -9.1 M-45.55 -0.4 L-35.6 -0.4 Q-29.65 -0.4 -29.05 5.0 L-13.85 5.0 -13.85 44.55 -13.85 50.15 M-122.05 -0.4 L-48.45 -0.4 M-29.05 5.0 L-29.0 6.2 -29.0 18.75 -28.95 18.75 -13.85 5.0 M-13.85 44.55 L-28.95 59.25 -28.95 110.2 M-28.95 59.25 L-28.95 18.75 M-29.0 18.75 L-29.0 107.3 Q-29.0 108.95 -29.4 110.2" fill="none" stroke="#000000" stroke-linecap="round" stroke-linejoin="round" stroke-width="1.0"/>
    <path d="M130.95 -36.95 L12.85 -36.95 10.9 -36.95 9.4 -36.95 8.8 -36.95 M21.05 -51.1 L10.25 -42.7 7.95 -40.9 -25.15 -15.25 -25.15 -9.1 M58.3 50.75 L20.6 50.75 20.05 -32.7 M20.6 50.75 L30.5 34.7 M58.3 2.15 L127.65 2.15 M-25.15 -15.25 L-78.65 -15.05 -152.05 -14.8 M-141.45 3.35 L-140.3 2.65 Q-138.85 2.0 -136.75 2.0 L-37.95 2.0 Q-33.5 2.0 -32.05 5.0 -31.35 6.45 -31.35 8.6 L-31.35 109.7 -31.35 110.2 Q-31.45 112.0 -32.0 113.25 L-32.4 114.0" fill="none" stroke="#000000" stroke-linecap="round" stroke-linejoin="round" stroke-opacity="0.4" stroke-width="1.0"/>
  </g>
</svg>
