<?xml version="1.0" encoding="UTF-8" standalone="no"?>
<svg xmlns:xlink="http://www.w3.org/1999/xlink" height="36.6px" width="34.05px" xmlns="http://www.w3.org/2000/svg">
  <g transform="matrix(1.0, 0.0, 0.0, 1.0, 17.05, 18.3)">
    <path d="M12.7 -13.0 Q17.0 -8.0 17.0 -0.4 17.0 8.3 12.25 13.35 7.45 18.3 -0.35 18.3 -8.0 18.3 -12.65 13.05 -17.05 8.1 -17.05 0.3 -17.05 -7.85 -12.4 -13.0 -7.5 -18.3 0.2 -18.3 8.05 -18.3 12.7 -13.0 M0.0 -11.95 Q-4.0 -11.95 -6.3 -8.5 -8.55 -5.15 -8.55 0.1 -8.55 5.45 -6.3 8.6 -3.9 11.95 0.0 11.95 4.05 11.95 6.3 8.5 8.6 5.15 8.6 -0.1 8.6 -5.15 6.4 -8.4 4.05 -11.95 0.0 -11.95" fill="#ffffff" fill-opacity="0.0" fill-rule="evenodd" stroke="none"/>
  </g>
</svg>
