<?xml version="1.0" encoding="UTF-8" standalone="no"?>
<svg xmlns:xlink="http://www.w3.org/1999/xlink" height="45.0px" width="69.1px" xmlns="http://www.w3.org/2000/svg">
  <g transform="matrix(1.0, 0.0, 0.0, 1.0, 34.5, 22.5)">
    <path d="M-26.75 -4.55 L20.75 -21.95 32.65 -8.2 32.5 -8.35 Q19.0 -2.2 -0.65 -1.45 -13.6 -1.0 -27.2 -2.9 L-26.75 -4.55" fill="#ffffff" fill-opacity="0.0" fill-rule="evenodd" stroke="none"/>
    <path d="M32.65 -8.2 L33.9 -6.75 -0.3 21.4 -33.85 22.0 -27.85 -0.55 -27.25 -2.9 -27.2 -2.9 Q-13.6 -1.0 -0.65 -1.45 19.0 -2.2 32.5 -8.35 L32.65 -8.2 M-27.85 -0.55 L-27.2 -2.9 -27.85 -0.55" fill="#000000" fill-opacity="0.2" fill-rule="evenodd" stroke="none"/>
    <path d="M32.65 -8.2 L33.9 -6.75 -0.3 21.4 -33.85 22.0 -27.85 -0.55 -27.2 -2.9 -26.75 -4.55" fill="none" stroke="#000000" stroke-linecap="butt" stroke-linejoin="miter-clip" stroke-miterlimit="10.0" stroke-width="1.0"/>
    <path d="M-26.75 -4.55 L20.75 -21.95 32.65 -8.2 Z" fill="none" stroke="#000000" stroke-linecap="butt" stroke-linejoin="miter-clip" stroke-miterlimit="10.0" stroke-opacity="0.8" stroke-width="1.0"/>
    <path d="M5.85 -5.45 Q6.5 -6.8 8.3 -7.9 9.95 -8.9 11.65 -9.15 L14.45 -9.35 Q16.25 -9.2 16.5 -8.3 16.8 -7.25 14.9 -5.6 13.35 -4.3 11.9 -3.7 9.8 -2.8 7.5 -3.1 4.85 -3.4 5.85 -5.45 M13.0 -7.9 L11.95 -8.3 Q10.9 -8.5 9.9 -7.9 8.85 -7.35 8.45 -6.35 8.05 -5.4 8.5 -4.55 8.95 -3.75 10.0 -3.6 11.05 -3.45 12.05 -4.05 13.1 -4.6 13.5 -5.6 L13.7 -6.55 13.2 -6.5 12.65 -6.85 Q12.5 -7.15 12.65 -7.5 L13.0 -7.9 M-9.0 -2.4 Q-4.55 -3.05 -4.15 -1.5 -3.85 -0.45 -5.75 1.15 -7.3 2.5 -8.8 3.1 -10.9 4.0 -13.15 3.7 -15.85 3.4 -14.8 1.3 -14.15 -0.05 -12.35 -1.1 -10.7 -2.1 -9.0 -2.4 M-7.65 -1.15 L-8.7 -1.55 Q-9.75 -1.7 -10.75 -1.1 -11.8 -0.55 -12.2 0.4 -12.6 1.4 -12.15 2.2 -11.65 3.05 -10.6 3.2 -9.6 3.35 -8.55 2.75 -7.55 2.2 -7.15 1.2 -6.9 0.7 -6.95 0.2 L-7.45 0.25 Q-7.8 0.2 -8.0 -0.05 L-8.0 -0.7 -7.65 -1.15" fill="#ffffff" fill-rule="evenodd" stroke="none"/>
    <path d="M13.7 -6.55 L13.5 -5.6 Q13.1 -4.6 12.05 -4.05 11.05 -3.45 10.0 -3.6 8.95 -3.75 8.5 -4.55 8.05 -5.4 8.45 -6.35 8.85 -7.35 9.9 -7.9 10.9 -8.5 11.95 -8.3 L13.0 -7.9 12.65 -7.5 Q12.5 -7.15 12.65 -6.85 L13.2 -6.5 13.7 -6.55 M-6.95 0.2 Q-6.9 0.7 -7.15 1.2 -7.55 2.2 -8.55 2.75 -9.6 3.35 -10.6 3.2 -11.65 3.05 -12.15 2.2 -12.6 1.4 -12.2 0.4 -11.8 -0.55 -10.75 -1.1 -9.75 -1.7 -8.7 -1.55 L-7.65 -1.15 -8.0 -0.7 -8.0 -0.05 Q-7.8 0.2 -7.45 0.25 L-6.95 0.2" fill="#000000" fill-rule="evenodd" stroke="none"/>
    <path d="M5.85 -5.45 Q4.85 -3.4 7.5 -3.1 9.8 -2.8 11.9 -3.7 13.35 -4.3 14.9 -5.6 16.8 -7.25 16.5 -8.3 16.25 -9.2 14.45 -9.35 L11.65 -9.15 Q9.95 -8.9 8.3 -7.9 6.5 -6.8 5.85 -5.45 M13.0 -7.9 L11.95 -8.3 Q10.9 -8.5 9.9 -7.9 8.85 -7.35 8.45 -6.35 8.05 -5.4 8.5 -4.55 8.95 -3.75 10.0 -3.6 11.05 -3.45 12.05 -4.05 13.1 -4.6 13.5 -5.6 L13.7 -6.55 M-9.0 -2.4 Q-10.7 -2.1 -12.35 -1.1 -14.15 -0.05 -14.8 1.3 -15.85 3.4 -13.15 3.7 -10.9 4.0 -8.8 3.1 -7.3 2.5 -5.75 1.15 -3.85 -0.45 -4.15 -1.5 -4.55 -3.05 -9.0 -2.4 M-6.95 0.2 Q-6.9 0.7 -7.15 1.2 -7.55 2.2 -8.55 2.75 -9.6 3.35 -10.6 3.2 -11.65 3.05 -12.15 2.2 -12.6 1.4 -12.2 0.4 -11.8 -0.55 -10.75 -1.1 -9.75 -1.7 -8.7 -1.55 L-7.65 -1.15 M-4.45 13.0 Q-5.0 11.7 -5.9 10.95 -7.7 9.45 -9.6 12.05" fill="none" stroke="#000000" stroke-linecap="butt" stroke-linejoin="miter-clip" stroke-miterlimit="10.0" stroke-width="1.0"/>
  </g>
</svg>
