<?xml version="1.0" encoding="UTF-8" standalone="no"?>
<svg xmlns:xlink="http://www.w3.org/1999/xlink" height="280.4px" width="1703.1px" xmlns="http://www.w3.org/2000/svg">
  <g transform="matrix(1.0, 0.0, 0.0, 1.0, 852.3, 320.7)">
    <path d="M702.25 -61.8 Q701.3 -71.95 697.2 -87.2 689.0 -117.7 673.2 -143.25 651.15 -179.05 617.05 -199.85 574.45 -225.9 515.45 -226.9 456.45 -225.9 414.25 -199.4 380.45 -178.2 358.95 -141.75 343.55 -115.75 335.85 -84.7 333.45 -74.95 332.05 -65.95 L331.2 -58.85 189.8 -58.85 Q188.7 -69.15 184.4 -84.7 175.8 -115.75 159.7 -141.75 137.15 -178.2 102.85 -199.4 59.9 -225.9 0.9 -226.9 -58.1 -225.9 -101.1 -199.0 -135.45 -177.5 -158.05 -140.45 -174.15 -114.05 -182.8 -82.5 -187.1 -66.75 -188.2 -56.25 L-329.35 -56.5 -330.35 -63.7 Q-331.9 -72.85 -334.5 -82.7 -342.85 -114.2 -358.75 -140.6 -381.0 -177.55 -415.2 -199.05 -457.9 -225.9 -516.9 -226.9 -575.9 -225.9 -618.6 -198.55 -652.75 -176.7 -674.95 -139.1 -690.8 -112.25 -699.1 -80.2 -703.2 -64.15 -704.2 -53.5 L-851.8 -40.85 -851.8 -320.2 850.3 -320.2 850.3 -40.85 702.25 -61.8" fill="#ffffff" fill-opacity="0.0" fill-rule="evenodd" stroke="none"/>
    <path d="M702.25 -61.8 L850.3 -40.85 850.3 -320.2 -851.8 -320.2 -851.8 -40.85 -704.2 -53.5 Q-703.2 -64.15 -699.1 -80.2 -690.8 -112.25 -674.95 -139.1 -652.75 -176.7 -618.6 -198.55 -575.9 -225.9 -516.9 -226.9 -457.9 -225.9 -415.2 -199.05 -381.0 -177.55 -358.75 -140.6 -342.85 -114.2 -334.5 -82.7 -331.9 -72.85 -330.35 -63.7 L-329.35 -56.5 -188.2 -56.25 Q-187.1 -66.75 -182.8 -82.5 -174.15 -114.05 -158.05 -140.45 -135.45 -177.5 -101.1 -199.0 -58.1 -225.9 0.9 -226.9 59.9 -225.9 102.85 -199.4 137.15 -178.2 159.7 -141.75 175.8 -115.75 184.4 -84.7 188.7 -69.15 189.8 -58.85 L331.2 -58.85 332.05 -65.95 Q333.45 -74.95 335.85 -84.7 343.55 -115.75 358.95 -141.75 380.45 -178.2 414.25 -199.4 456.45 -225.9 515.45 -226.9 574.45 -225.9 617.05 -199.85 651.15 -179.05 673.2 -143.25 689.0 -117.7 697.2 -87.2 701.3 -71.95 702.25 -61.8 Z" fill="none" stroke="#000000" stroke-linecap="butt" stroke-linejoin="miter-clip" stroke-miterlimit="4.0" stroke-width="1.0"/>
    <path d="M-722.75 -62.1 Q-721.45 -74.35 -716.7 -92.5 -706.9 -128.9 -688.75 -158.8 -630.45 -254.05 -509.4 -247.15 L-482.3 -245.85 Q-449.45 -241.8 -420.4 -228.05 -327.25 -184.6 -306.85 -62.1" fill="none" stroke="#000000" stroke-linecap="butt" stroke-linejoin="miter-clip" stroke-miterlimit="4.0" stroke-opacity="0.29803923" stroke-width="1.0"/>
    <path d="M-206.55 -62.1 Q-205.25 -74.35 -200.5 -92.5 -190.7 -128.9 -172.6 -158.8 -114.25 -254.05 6.75 -247.15 L33.9 -245.85 Q66.7 -241.8 95.8 -228.05 188.9 -184.6 209.3 -62.1" fill="none" stroke="#000000" stroke-linecap="butt" stroke-linejoin="miter-clip" stroke-miterlimit="4.0" stroke-opacity="0.29803923" stroke-width="1.0"/>
    <path d="M309.6 -62.1 Q310.9 -74.35 315.65 -92.5 325.45 -128.9 343.6 -158.8 401.9 -254.05 522.95 -247.15 L550.05 -245.85 Q582.9 -241.8 611.95 -228.05 705.1 -184.6 725.5 -62.1" fill="none" stroke="#000000" stroke-linecap="butt" stroke-linejoin="miter-clip" stroke-miterlimit="4.0" stroke-opacity="0.29803923" stroke-width="1.0"/>
  </g>
</svg>
