<?xml version="1.0" encoding="UTF-8" standalone="no"?>
<svg xmlns:xlink="http://www.w3.org/1999/xlink" height="65.95px" width="149.3px" xmlns="http://www.w3.org/2000/svg">
  <g transform="matrix(1.0, 0.0, 0.0, 1.0, 113.8, 27.35)">
    <path d="M5.55 5.7 Q7.2 4.9 7.95 2.7 8.85 0.1 8.0 -2.85 7.15 -5.85 5.0 -7.55 3.95 -8.35 2.95 -8.6 3.95 -8.35 5.0 -7.55 7.15 -5.85 8.0 -2.85 8.85 0.1 7.95 2.7 7.2 4.9 5.55 5.7 L6.05 5.8 5.55 5.7 4.95 5.9 3.25 6.05 4.95 5.9 5.55 5.7 M17.0 16.85 L19.75 14.95 Q22.15 12.65 20.2 10.45 18.3 8.35 10.95 6.65 L6.05 5.8 Q-2.4 10.5 -15.55 7.9 -29.65 5.15 -33.55 -3.35 -35.3 -7.3 -34.95 -12.45 -34.8 -15.05 -30.4 -18.85 -26.25 -22.45 -22.75 -23.6 -20.5 -24.35 -17.7 -22.3 L-13.65 -18.45 Q-5.8 -10.65 -3.95 -9.2 -5.35 -8.3 -6.0 -6.2 -6.95 -3.35 -5.95 0.05 L-5.05 2.2 -5.95 0.05 Q-6.95 -3.35 -6.0 -6.2 -5.35 -8.3 -3.95 -9.2 L-2.8 -9.75 Q-0.6 -10.35 1.65 -8.7 L2.95 -8.6 4.65 -10.55 7.95 -9.8 Q12.05 -8.5 15.95 -6.25 21.5 -3.0 25.85 1.7 30.7 7.3 29.6 13.95 29.2 16.6 27.85 17.7 26.45 18.95 24.85 17.7 22.0 15.65 19.2 16.05 L17.0 16.85 19.2 16.05 Q22.0 15.65 24.85 17.7 26.45 18.95 27.85 17.7 29.2 16.6 29.6 13.95 30.7 7.3 25.85 1.7 31.4 7.75 35.0 16.25 34.25 17.4 32.5 18.95 28.95 22.05 24.05 23.85 23.05 23.85 21.7 22.95 18.95 21.2 17.0 16.85 M3.25 6.05 Q4.55 5.05 5.2 3.05 6.15 0.15 5.15 -3.2 4.2 -6.6 1.9 -8.5 L1.65 -8.7 1.9 -8.5 Q4.2 -6.6 5.15 -3.2 6.15 0.15 5.2 3.05 4.55 5.05 3.25 6.05 L2.0 6.6 Q-0.25 7.25 -2.6 5.35 -4.1 4.1 -5.05 2.2 -4.1 4.1 -2.6 5.35 -0.25 7.25 2.0 6.6 L3.25 6.05 M-21.1 -8.15 L-20.3 -6.25 Q-19.15 -3.95 -17.6 -2.15 -12.6 3.65 -5.05 2.2 -12.6 3.65 -17.6 -2.15 -19.15 -3.95 -20.3 -6.25 L-21.1 -8.15" fill="#000000" fill-opacity="0.2" fill-rule="evenodd" stroke="none"/>
    <path d="M2.95 -8.6 Q3.95 -8.35 5.0 -7.55 7.15 -5.85 8.0 -2.85 8.85 0.1 7.95 2.7 7.2 4.9 5.55 5.7 L4.95 5.9 3.25 6.05 2.0 6.6 Q-0.25 7.25 -2.6 5.35 -4.1 4.1 -5.05 2.2 L-5.95 0.05 Q-6.95 -3.35 -6.0 -6.2 -5.35 -8.3 -3.95 -9.2 L-2.8 -9.75 Q-0.6 -10.35 1.65 -8.7 L1.9 -8.5 Q4.2 -6.6 5.15 -3.2 6.15 0.15 5.2 3.05 4.55 5.05 3.25 6.05 M2.95 -8.6 L1.65 -8.7" fill="none" stroke="#000000" stroke-linecap="round" stroke-linejoin="miter-clip" stroke-miterlimit="4.0" stroke-opacity="0.6" stroke-width="1.0"/>
    <path d="M5.55 5.7 L6.05 5.8 10.95 6.65 Q18.3 8.35 20.2 10.45 22.15 12.65 19.75 14.95 L17.0 16.85 Q18.95 21.2 21.7 22.95 23.05 23.85 24.05 23.85 28.95 22.05 32.5 18.95 34.25 17.4 35.0 16.25 31.4 7.75 25.85 1.7 21.5 -3.0 15.95 -6.25 12.05 -8.5 7.95 -9.8 L4.65 -10.55 2.95 -8.6 M-3.95 -9.2 Q-5.8 -10.65 -13.65 -18.45 L-17.7 -22.3 Q-20.5 -24.35 -22.75 -23.6 -26.25 -22.45 -30.4 -18.85 -34.8 -15.05 -34.95 -12.45 -35.3 -7.3 -33.55 -3.35 -29.65 5.15 -15.55 7.9 -2.4 10.5 6.05 5.8" fill="none" stroke="#000000" stroke-linecap="round" stroke-linejoin="miter-clip" stroke-miterlimit="4.0" stroke-width="1.0"/>
    <path d="M17.0 16.85 L19.2 16.05 Q22.0 15.65 24.85 17.7 26.45 18.95 27.85 17.7 29.2 16.6 29.6 13.95 30.7 7.3 25.85 1.7" fill="none" stroke="#000000" stroke-linecap="round" stroke-linejoin="miter-clip" stroke-miterlimit="4.0" stroke-opacity="0.4" stroke-width="1.0"/>
    <path d="M-5.05 2.2 Q-12.6 3.65 -17.6 -2.15 -19.15 -3.95 -20.3 -6.25 L-21.1 -8.15" fill="none" stroke="#000000" stroke-linecap="round" stroke-linejoin="miter-clip" stroke-miterlimit="4.0" stroke-opacity="0.4" stroke-width="1.0"/>
    <path d="M-100.15 -9.05 Q-91.9 -22.0 -88.35 -26.05 -86.35 -28.25 -80.95 -24.35 -78.2 -22.45 -75.9 -20.05 -72.15 -15.95 -83.0 -0.2 -86.4 4.7 -90.9 10.25 L-94.65 14.75 Q-88.2 25.9 -94.8 33.1 -96.9 35.3 -100.05 36.95 L-102.75 38.05 Q-106.15 34.8 -109.1 30.15 -115.0 20.8 -112.6 13.7 -110.0 6.3 -100.15 -9.05" fill="#000000" fill-opacity="0.003921569" fill-rule="evenodd" stroke="none"/>
    <path d="M-100.15 -9.05 Q-110.0 6.3 -112.6 13.7 -115.0 20.8 -109.1 30.15 -106.15 34.8 -102.75 38.05 L-100.05 36.95 Q-96.9 35.3 -94.8 33.1 -88.2 25.9 -94.65 14.75 L-90.9 10.25 Q-86.4 4.7 -83.0 -0.2 -72.15 -15.95 -75.9 -20.05 -78.2 -22.45 -80.95 -24.35 -86.35 -28.25 -88.35 -26.05 -91.9 -22.0 -100.15 -9.05 Z" fill="none" stroke="#000000" stroke-linecap="butt" stroke-linejoin="miter-clip" stroke-miterlimit="4.0" stroke-width="1.0"/>
    <path d="M-80.3 -23.6 Q-76.15 -19.9 -85.45 -4.8 -92.5 6.65 -97.8 12.0 -99.65 13.95 -99.6 15.75 -99.55 16.7 -99.15 17.15 -94.0 26.75 -98.15 33.25 -99.45 35.25 -101.55 36.7 L-103.35 37.8" fill="none" stroke="#000000" stroke-linecap="butt" stroke-linejoin="miter-clip" stroke-miterlimit="4.0" stroke-opacity="0.6" stroke-width="1.0"/>
  </g>
</svg>
