<?xml version="1.0" encoding="UTF-8" standalone="no"?>
<svg xmlns:xlink="http://www.w3.org/1999/xlink" height="70.45px" width="39.85px" xmlns="http://www.w3.org/2000/svg">
  <g transform="matrix(1.0, 0.0, 0.0, 1.0, -20.5, -86.6)">
    <path d="M41.05 94.9 L43.15 92.85 Q51.25 85.35 56.35 87.65 L58.1 101.35 Q59.85 115.55 59.85 117.9 59.85 121.6 56.85 146.9 53.9 148.2 50.05 149.05 L43.2 149.7 Q45.7 131.6 45.7 126.8 45.7 123.55 44.6 109.25 L43.5 95.6 41.05 94.9 M29.25 155.85 L29.0 155.8 25.8 154.6 25.0 154.25 23.55 153.5 21.15 152.1 Q29.35 132.0 29.35 129.05 L28.25 116.05 27.1 105.25 27.1 104.15 27.25 101.95 27.75 99.9 31.6 101.55 Q31.6 102.75 35.8 119.15 L40.0 135.25 33.55 123.85 35.1 133.35 Q36.4 143.1 35.3 144.65 33.45 147.3 29.25 155.85" fill="#000000" fill-opacity="0.2" fill-rule="evenodd" stroke="none"/>
    <path d="M43.2 149.7 L42.75 152.85 40.5 154.7 Q37.5 156.55 33.8 156.55 L29.25 155.85 Q33.45 147.3 35.3 144.65 36.4 143.1 35.1 133.35 L33.55 123.85 40.0 135.25 35.8 119.15 Q31.6 102.75 31.6 101.55 L27.75 99.9 27.25 101.95 Q28.2 95.35 35.05 94.6 L41.05 94.9 43.5 95.6 44.6 109.25 Q45.7 123.55 45.7 126.8 45.7 131.6 43.2 149.7 M25.8 154.6 L25.25 154.35 25.0 154.25 25.8 154.6" fill="#ffffff" fill-opacity="0.0" fill-rule="evenodd" stroke="none"/>
    <path d="M41.05 94.9 L43.15 92.85 Q51.25 85.35 56.35 87.65 L58.1 101.35 Q59.85 115.55 59.85 117.9 59.85 121.6 56.85 146.9 53.9 148.2 50.05 149.05 L43.2 149.7" fill="none" stroke="#000000" stroke-linecap="butt" stroke-linejoin="miter-clip" stroke-miterlimit="10.0" stroke-width="1.0"/>
    <path d="M35.05 94.6 Q26.65 95.5 27.1 105.25 L28.25 116.05 29.35 129.05 Q29.35 132.0 21.15 152.1 L25.25 154.35 Q30.1 156.55 33.8 156.55 37.5 156.55 40.5 154.7 L42.75 152.85 Q45.7 132.0 45.7 126.8 45.7 123.55 44.6 109.25 L43.5 95.6 Q39.25 94.1 35.05 94.6 Z" fill="none" stroke="#000000" stroke-linecap="butt" stroke-linejoin="miter-clip" stroke-miterlimit="10.0" stroke-width="1.0"/>
  </g>
</svg>
