<?xml version="1.0" encoding="UTF-8" standalone="no"?>
<svg xmlns:xlink="http://www.w3.org/1999/xlink" height="27.8px" width="23.5px" xmlns="http://www.w3.org/2000/svg">
  <g transform="matrix(1.0, 0.0, 0.0, 1.0, 11.75, 13.9)">
    <path d="M9.75 -0.15 L10.15 -0.95 Q10.7 -1.8 11.25 -1.85 11.85 -1.9 11.7 -0.25 L11.35 2.2 Q11.25 2.9 10.3 3.85 L9.4 4.65 9.25 6.05 8.7 7.8 Q8.1 8.95 6.55 10.7 L3.45 13.25 2.1 13.9 -3.3 13.9 Q-4.65 13.9 -7.0 11.1 L-9.3 7.9 -9.55 5.6 -9.55 3.7 Q-10.3 3.45 -11.1 2.25 -11.65 1.35 -11.75 -0.75 -11.85 -2.85 -11.25 -3.55 -10.7 -4.1 -10.25 -3.0 L-9.9 -1.75 Q-9.4 -1.55 -8.95 -2.05 -8.05 -3.0 -8.15 -6.3 -8.25 -9.95 -6.7 -11.85 -5.4 -13.5 -3.55 -13.3 -2.45 -13.15 -1.05 -12.2 0.2 -11.35 0.9 -11.45 1.35 -11.5 3.05 -12.9 4.5 -14.2 5.95 -13.8 7.7 -13.3 8.85 -10.45 9.9 -7.9 9.75 -5.7 9.55 -3.2 9.75 -0.15" fill="#ffffff" fill-opacity="0.0" fill-rule="evenodd" stroke="none"/>
  </g>
</svg>
