<?xml version="1.0" encoding="UTF-8" standalone="no"?>
<svg xmlns:xlink="http://www.w3.org/1999/xlink" height="18.75px" width="22.95px" xmlns="http://www.w3.org/2000/svg">
  <g transform="matrix(1.0, 0.0, 0.0, 1.0, 11.5, 9.4)">
    <path d="M-7.8 -5.7 L-8.7 -5.2 -9.15 -4.45 Q-9.4 -2.95 -8.1 -1.3 L-6.55 0.6 Q-6.35 1.0 -6.35 2.6 L-6.25 4.95 Q-6.1 5.7 -4.95 6.85 L-3.8 7.9 -2.9 8.25 -1.1 8.55 1.45 8.65 3.6 8.45 4.45 8.0 4.4 8.1 2.2 9.35 -3.2 9.35 Q-4.55 9.35 -6.9 6.55 L-9.2 3.35 -9.45 1.05 -9.45 -0.85 -9.8 -1.0 -9.65 -2.2 -10.3 -3.8 -10.55 -5.1 Q-10.85 -6.1 -11.05 -5.4 L-11.0 -6.4 Q-10.85 -7.35 -10.65 -7.05 -11.0 -7.7 -11.5 -7.4 L-11.15 -8.1 Q-10.6 -8.65 -10.15 -7.55 L-9.8 -6.3 -9.25 -6.35 Q-8.6 -6.6 -8.3 -7.7 L-8.2 -7.65 -7.55 -8.6 Q-6.95 -9.4 -5.55 -9.4 -4.0 -9.4 -2.75 -8.25 -1.65 -7.2 -0.8 -7.25 L-0.15 -7.55 Q-0.15 -6.85 -0.45 -6.6 L-0.75 -6.5 -0.65 -5.65 Q-0.45 -5.25 -0.6 -5.05 L-0.85 -1.35 -1.5 -1.25 Q-1.8 -1.4 -2.45 -0.65 L-2.95 0.35 -1.1 0.0 Q-0.45 0.7 0.3 0.35 L0.95 -0.15 1.25 -0.1 2.45 0.85 0.35 1.5 -1.75 1.5 -3.9 0.9 Q-3.95 0.5 -3.05 -0.65 L-2.1 -1.7 Q-1.5 -4.45 -1.65 -4.9 -1.75 -5.15 -2.1 -5.1 L-2.45 -5.05 -3.25 -6.3 -5.25 -6.5 -6.35 -6.2 -6.7 -5.8 -7.8 -5.7 Q-7.2 -4.35 -5.55 -3.6 -4.6 -3.15 -3.7 -3.05 -6.4 -2.95 -7.45 -4.6 L-7.8 -5.7 M1.6 -1.0 Q2.65 -1.5 3.05 -0.7 L3.2 0.15 Q2.7 -0.85 2.1 -1.0 L1.6 -1.0 M2.35 -4.2 L3.3 -3.85 Q4.45 -3.55 5.65 -3.85 L4.45 -3.3 Q3.15 -2.95 2.35 -4.2 M9.9 -2.2 L9.85 -1.65 9.95 -3.7 11.0 -4.95 Q11.45 -5.25 11.25 -4.2 L10.95 -3.1 Q10.85 -3.55 10.35 -3.45 10.05 -3.4 9.9 -2.2 M4.45 8.0 L6.55 5.2 Q6.8 4.85 7.05 2.1 L7.3 -1.0 Q7.55 -1.75 8.85 -2.85 L9.5 -4.05 9.65 -4.7 Q9.3 -1.55 9.85 -1.0 10.25 -0.6 10.9 -1.45 L11.45 -2.35 Q11.35 -1.65 10.4 -0.7 L9.5 0.1 9.35 1.5 8.8 3.25 Q8.2 4.4 6.65 6.15 L4.75 7.9 4.45 8.0 M4.55 3.45 L0.5 3.7 -4.95 3.55 -3.2 3.25 -1.4 3.25 -0.6 3.45 0.85 3.2 2.65 3.15 4.55 3.45 M2.7 5.2 L2.3 5.65 Q1.5 6.15 -0.5 6.4 -2.55 6.6 -3.35 5.8 -3.75 5.35 -3.85 4.35 L-3.4 4.9 Q-2.85 5.45 -2.2 5.45 L0.35 5.55 2.7 5.2" fill="#000000" fill-opacity="0.29803923" fill-rule="evenodd" stroke="none"/>
    <path d="M6.4 -6.5 L7.05 -5.9 6.9 -5.4 6.05 -4.7 4.55 -4.55 3.7 -4.6 Q2.85 -4.7 2.8 -5.3 L3.6 -6.35 6.4 -6.5 M-6.0 -6.5 L-3.25 -6.35 -2.45 -5.3 Q-2.5 -4.7 -3.35 -4.6 L-5.7 -4.7 -6.55 -5.4 -6.7 -5.9 -6.0 -6.5" fill="#ffffff" fill-rule="evenodd" stroke="none"/>
  </g>
</svg>
