<?xml version="1.0" encoding="UTF-8" standalone="no"?>
<svg xmlns:xlink="http://www.w3.org/1999/xlink" height="137.7px" width="123.15px" xmlns="http://www.w3.org/2000/svg">
  <g transform="matrix(1.0, 0.0, 0.0, 1.0, 61.6, 68.85)">
    <path d="M44.3 -41.35 L44.25 -41.45 44.05 -41.75 44.3 -41.35 M40.5 -47.45 L39.75 -48.55 39.95 -48.25 40.5 -47.5 40.5 -47.45 M26.1 -62.1 L25.45 -62.5 25.35 -62.6 25.3 -62.6 26.9 -61.6 26.1 -62.1" fill="#ffffff" fill-rule="evenodd" stroke="none"/>
    <path d="M39.75 -48.55 L38.35 -50.4 35.75 -53.65 35.5 -53.9 35.25 -54.2 Q38.9 -50.2 41.95 -45.35 L40.55 -47.45 40.5 -47.45 40.5 -47.5 39.95 -48.25 39.75 -48.55 M-44.35 52.7 L-42.9 53.25 -43.35 53.1 -43.55 53.0 -43.7 52.95 -44.35 52.7" fill="#ebebeb" fill-rule="evenodd" stroke="none"/>
    <path d="M2.65 -57.95 L3.45 -58.9 2.55 -57.8 2.65 -57.95 M-4.65 -22.2 L-4.45 -20.85 -4.55 -21.25 -4.65 -22.2 M42.1 -45.05 L40.95 -46.85 40.5 -47.45 40.55 -47.45 41.95 -45.35 42.1 -45.05 M27.9 -60.85 L26.1 -62.1 26.9 -61.6 27.2 -61.4 27.9 -60.85 M35.15 -54.3 L35.25 -54.2 35.5 -53.9 35.15 -54.3 M40.95 -46.85 L40.55 -47.45 40.95 -46.85 M39.45 38.1 L39.5 38.05 39.55 37.95 40.3 36.5 40.5 35.0 40.5 35.5 40.3 36.5 39.85 37.5 39.55 37.95 39.45 38.1 M-18.95 42.1 L-17.0 43.05 -13.55 44.65 -16.35 43.4 -17.65 42.8 -18.95 42.1" fill="#dedede" fill-rule="evenodd" stroke="none"/>
    <path d="M40.15 33.4 L40.3 33.75 40.25 33.75 40.2 33.5 40.15 33.4 M53.6 14.75 L53.85 13.7 54.45 10.85 54.4 11.25 53.7 14.5 53.6 14.75 M55.25 3.85 L55.25 3.55 55.25 3.7 55.25 3.85 M-45.05 52.4 L-44.35 52.7 -45.1 52.4 -45.05 52.4 M18.0 55.3 L19.0 55.05 18.15 55.3 18.0 55.3" fill="#c7c7c7" fill-rule="evenodd" stroke="none"/>
    <path d="M42.8 38.1 L42.8 38.15 42.8 38.1 42.8 38.15 42.95 39.0 42.8 38.1 M43.05 38.9 L43.15 39.25 43.15 39.45 43.05 38.9" fill="#a3a3a3" fill-rule="evenodd" stroke="none"/>
    <path d="M-42.9 53.25 L-40.4 54.05 -43.35 53.1 -42.9 53.25 M25.85 55.3 L24.55 55.7 26.6 55.0 25.85 55.3" fill="#6e6e6e" fill-rule="evenodd" stroke="none"/>
    <path d="M9.15 50.2 L8.95 50.25 8.7 50.25 9.15 50.2 M7.1 50.2 L6.7 50.2 Q2.7 50.05 -0.4 49.0 3.9 50.05 7.1 50.2" fill="#bdbdbd" fill-rule="evenodd" stroke="none"/>
    <path d="M2.65 -57.95 Q6.5 -62.85 12.2 -64.6 L16.1 -65.3 20.05 -65.25 22.6 -64.15 25.2 -62.7 25.3 -62.6 25.35 -62.6 25.45 -62.5 26.1 -62.1 27.9 -60.85 30.2 -59.05 30.5 -58.85 33.35 -56.15 33.5 -56.05 33.85 -55.7 33.9 -55.65 38.05 -50.8 38.35 -50.4 39.75 -48.55 40.5 -47.45 40.95 -46.85 42.1 -45.05 43.95 -42.0 44.05 -41.75 44.25 -41.45 44.3 -41.35 44.6 -40.8 45.1 -39.85 Q48.45 -33.55 50.35 -28.1 L51.15 -25.7 52.15 -22.3 Q53.0 -19.55 54.4 -11.6 L54.65 -9.9 Q55.6 -2.95 55.25 3.55 L55.25 3.85 54.45 10.85 53.85 13.7 53.6 14.75 52.9 17.35 52.55 18.35 Q50.85 23.35 48.35 26.9 45.9 30.35 42.65 32.45 L42.4 32.65 42.65 32.45 42.65 32.5 Q47.1 29.8 50.2 25.8 54.0 20.9 55.8 14.0 56.9 9.75 57.3 5.1 L57.45 1.35 Q57.55 -9.95 55.0 -20.4 52.0 -32.7 45.35 -43.85 41.6 -50.15 37.1 -55.3 L36.85 -55.6 32.95 -59.65 30.55 -61.7 Q22.3 -68.3 14.0 -67.9 11.0 -67.75 8.4 -66.65 L6.35 -65.65 6.35 -65.6 6.45 -65.4 4.9 -65.0 Q8.5 -67.2 13.35 -68.0 25.85 -70.15 38.25 -58.7 51.0 -46.95 57.15 -26.55 63.5 -5.8 59.55 11.45 55.75 28.1 42.75 32.65 L42.7 32.55 42.45 32.6 42.4 32.65 42.1 32.8 41.95 32.9 40.55 33.6 40.3 33.75 40.15 33.4 Q38.35 29.15 28.3 25.25 L23.8 23.65 Q18.45 21.9 13.5 20.85 L12.0 20.55 11.95 20.55 Q4.6 11.0 0.15 -1.6 L-1.2 -5.75 -2.15 -9.25 -3.95 -16.55 -4.45 -20.85 -4.65 -22.2 Q-5.55 -31.7 -4.7 -37.1 L-4.0 -42.3 -2.7 -48.0 Q-1.75 -51.85 2.55 -57.8 L3.45 -58.9 2.65 -57.95 M25.05 63.55 Q11.5 67.85 -0.6 68.15 L-0.85 68.15 -1.6 68.2 -2.1 68.25 -3.75 68.3 -4.85 68.35 -5.15 68.35 -5.45 68.35 -5.75 68.35 -6.05 68.35 -7.6 68.35 -8.9 68.35 Q-30.1 68.35 -45.0 62.8 -60.85 56.95 -60.85 48.1 L-61.05 43.75 Q-61.15 41.5 -60.85 39.95 L-60.85 40.1 -60.8 40.85 -60.65 42.0 -59.8 44.45 -58.7 46.2 -56.05 48.95 -55.0 56.9 -52.7 58.6 -52.5 51.4 Q-49.35 53.2 -45.0 54.8 -30.05 60.3 -8.9 60.3 L-3.05 60.2 0.3 60.05 0.8 60.0 2.75 59.85 Q12.4 59.3 24.55 55.7 L25.85 55.3 26.45 56.75 Q27.0 58.65 26.9 60.65 L26.5 63.05 25.05 63.55 M-0.4 49.0 L-2.75 48.9 Q-8.6 50.35 -16.95 51.2 L-45.05 52.4 -47.05 51.5 Q-49.35 50.5 -50.95 49.55 L-53.75 47.7 -56.1 45.4 -56.45 43.25 Q-56.45 35.55 -42.5 30.15 -36.55 27.85 -29.55 26.5 -31.95 28.05 -32.0 30.1 -32.05 31.4 -31.1 32.9 L-29.1 35.35 Q-27.15 37.3 -23.95 39.3 L-18.95 42.1 -17.65 42.8 -16.35 43.4 -13.55 44.65 -13.2 44.8 Q-9.2 46.45 -4.85 47.75 L-2.25 48.55 -0.4 49.0" fill="#ffffff" fill-opacity="0.0" fill-rule="evenodd" stroke="none"/>
    <path d="M40.5 35.5 Q41.75 35.4 42.8 38.1 L42.95 39.0 42.8 38.15 43.0 38.6 43.05 38.75 43.05 38.9 43.15 39.45 43.2 39.7 43.2 39.95 43.25 40.45 43.3 41.15 43.0 48.1 Q43.0 57.0 27.15 62.8 L26.5 63.05 26.9 60.65 Q27.0 58.65 26.45 56.75 L25.85 55.3 26.6 55.0 27.15 54.8 Q37.75 50.9 41.3 45.65 43.0 43.05 43.0 40.1 L43.0 39.85 43.0 40.1 Q43.0 43.05 41.3 45.65 37.75 50.9 27.15 54.8 L26.6 55.0 24.55 55.7 Q12.4 59.3 2.75 59.85 L0.8 60.0 0.3 60.05 -3.05 60.2 -8.9 60.3 Q-30.05 60.3 -45.0 54.8 -49.35 53.2 -52.5 51.4 L-56.05 48.95 -58.7 46.2 -59.8 44.45 -60.65 42.0 -60.8 40.85 -60.85 40.1 -60.85 39.95 Q-60.7 31.2 -45.0 25.4 -30.1 19.85 -8.9 19.85 L-7.65 19.85 Q-11.85 20.45 -16.45 21.75 L-18.3 22.25 Q-32.75 23.2 -43.7 27.25 -58.15 32.55 -58.15 40.1 -58.15 42.9 -56.1 45.4 L-53.75 47.7 -50.95 49.55 Q-49.35 50.5 -47.05 51.5 L-45.05 52.4 -45.1 52.4 -44.35 52.7 -43.7 52.95 -43.55 53.0 -43.35 53.1 -40.4 54.05 -42.9 53.25 -44.35 52.7 -45.05 52.4 -16.95 51.2 Q-8.6 50.35 -2.75 48.9 L-0.4 49.0 Q2.7 50.05 6.7 50.2 L7.1 50.2 8.7 50.25 8.95 50.25 9.15 50.2 9.2 50.2 10.8 50.1 11.7 50.05 Q20.8 49.1 29.55 45.05 L30.35 44.65 31.15 44.25 Q35.75 41.95 38.1 39.7 38.9 41.4 38.9 43.25 L38.75 44.6 Q34.6 50.55 21.5 54.35 L19.0 55.05 18.0 55.3 Q6.15 58.2 -8.45 58.25 L-8.9 58.25 Q-25.9 58.25 -38.75 54.55 L-40.4 54.05 -38.75 54.55 Q-25.9 58.25 -8.9 58.25 L-8.45 58.25 Q6.15 58.2 18.0 55.3 L18.15 55.3 25.9 52.95 Q40.3 47.6 40.3 40.1 40.3 38.75 39.85 37.5 L40.3 36.5 40.5 35.5 M42.95 39.0 L43.0 39.85 42.95 39.0" fill="#000000" fill-opacity="0.101960786" fill-rule="evenodd" stroke="none"/>
    <path d="M-52.5 51.4 L-52.7 58.6 -55.0 56.9 -56.05 48.95 -52.5 51.4" fill="#ffffff" fill-opacity="0.2" fill-rule="evenodd" stroke="none"/>
    <path d="M20.05 -65.25 L16.1 -65.3 12.2 -64.6 Q6.5 -62.85 2.65 -57.95 L2.55 -57.8 Q-1.75 -51.85 -2.7 -48.0 L-4.0 -42.3 -4.7 -37.1 Q-5.55 -31.7 -4.65 -22.2 L-4.55 -21.25 -4.45 -20.85 -3.95 -16.55 -2.15 -9.25 -1.2 -5.75 0.15 -1.6 Q4.6 11.0 11.95 20.55 L7.7 19.85 Q-0.95 9.0 -5.8 -6.9 -12.1 -27.65 -8.15 -44.9 L-7.95 -45.7 -7.85 -46.05 -7.8 -46.3 -7.65 -47.0 Q-4.45 -58.8 2.85 -63.55 L4.9 -65.0 6.45 -65.4 7.6 -65.75 Q13.7 -67.6 20.05 -65.25 M19.0 55.05 L21.5 54.35 Q34.6 50.55 38.75 44.6 L38.9 43.25 Q38.9 41.4 38.1 39.7 L38.3 39.5 39.2 38.5 39.45 38.1 39.55 37.95 39.85 37.5 Q40.3 38.75 40.3 40.1 40.3 47.6 25.9 52.95 L18.15 55.3 19.0 55.05 M-18.3 22.25 L-19.3 22.55 -28.2 25.75 -29.55 26.5 Q-36.55 27.85 -42.5 30.15 -56.45 35.55 -56.45 43.25 L-56.1 45.4 Q-58.15 42.9 -58.15 40.1 -58.15 32.55 -43.7 27.25 -32.75 23.2 -18.3 22.25" fill="#000000" fill-opacity="0.2" fill-rule="evenodd" stroke="none"/>
    <path d="M42.65 32.45 Q45.9 30.35 48.35 26.9 50.85 23.35 52.55 18.35 L52.9 17.35 53.6 14.75 53.7 14.5 54.4 11.25 54.45 10.85 55.25 3.85 55.25 3.7 55.25 3.55 Q55.6 -2.95 54.65 -9.9 L54.4 -11.6 Q53.0 -19.55 52.15 -22.3 L51.15 -25.7 50.35 -28.1 Q48.45 -33.55 45.1 -39.85 L44.6 -40.8 44.3 -41.35 44.05 -41.75 43.95 -42.0 42.1 -45.05 41.95 -45.35 Q38.9 -50.2 35.25 -54.2 L35.15 -54.3 35.5 -53.9 35.75 -53.65 38.35 -50.4 38.05 -50.8 33.9 -55.65 33.85 -55.7 33.5 -56.05 33.35 -56.15 30.5 -58.85 30.2 -59.05 27.9 -60.85 27.2 -61.4 26.9 -61.6 25.3 -62.6 25.2 -62.7 22.6 -64.15 20.05 -65.25 Q13.7 -67.6 7.6 -65.75 L6.45 -65.4 6.35 -65.6 6.35 -65.65 8.4 -66.65 Q11.0 -67.75 14.0 -67.9 22.3 -68.3 30.55 -61.7 L32.95 -59.65 36.85 -55.6 37.1 -55.3 Q41.6 -50.15 45.35 -43.85 52.0 -32.7 55.0 -20.4 57.55 -9.95 57.45 1.35 L57.3 5.1 Q56.9 9.75 55.8 14.0 54.0 20.9 50.2 25.8 47.1 29.8 42.65 32.5 L42.65 32.45" fill="#ffffff" fill-opacity="0.101960786" fill-rule="evenodd" stroke="none"/>
    <path d="M11.95 20.55 L12.0 20.55 M40.3 33.75 L40.55 33.6 41.95 32.9 42.1 32.8 42.4 32.65 42.65 32.45 M4.9 -65.0 L2.85 -63.55 Q-4.45 -58.8 -7.65 -47.0 L-7.8 -46.3 -7.85 -46.05 -7.95 -45.7 -8.15 -44.9 Q-12.1 -27.65 -5.8 -6.9 -0.95 9.0 7.7 19.85 M42.75 32.65 Q55.75 28.1 59.55 11.45 63.5 -5.8 57.15 -26.55 51.0 -46.95 38.25 -58.7 25.85 -70.15 13.35 -68.0 8.5 -67.2 4.9 -65.0 M42.7 32.55 L42.45 32.6 42.4 32.65 M41.95 32.9 L42.75 32.65 M40.5 35.5 Q41.75 35.4 42.8 38.1 L42.8 38.15 43.0 38.6 43.05 38.75 43.05 38.9 43.15 39.25 43.15 39.45 43.2 39.7 43.3 41.15 43.0 48.1 Q43.0 57.0 27.15 62.8 L26.5 63.05 25.05 63.55 Q11.5 67.85 -0.6 68.15 L-0.85 68.15 -1.6 68.2 -2.1 68.25 -3.75 68.3 -4.85 68.35 -5.15 68.35 -5.45 68.35 -5.75 68.35 -6.05 68.35 -7.6 68.35 -8.9 68.35 Q-30.1 68.35 -45.0 62.8 -60.85 56.95 -60.85 48.1 L-61.05 43.75 Q-61.15 41.5 -60.85 39.95 -60.7 31.2 -45.0 25.4 -30.1 19.85 -8.9 19.85 L-7.65 19.85 -7.4 19.85 -7.1 19.8 M43.05 38.9 L43.15 39.45 M43.2 39.7 L43.2 39.95 M42.8 38.1 L42.8 38.15 42.95 39.0 43.0 39.85 M40.15 33.4 L40.2 33.5 40.25 33.75 40.3 33.75 M26.5 63.05 L25.05 63.55" fill="none" stroke="#000000" stroke-linecap="round" stroke-linejoin="round" stroke-width="1.0"/>
    <path d="M20.05 -65.25 L16.1 -65.3 12.2 -64.6 Q6.5 -62.85 2.65 -57.95 L3.45 -58.9 M2.55 -57.8 Q-1.75 -51.85 -2.7 -48.0 L-4.0 -42.3 -4.7 -37.1 Q-5.55 -31.7 -4.65 -22.2 L-4.55 -21.25 -4.45 -20.85 -3.95 -16.55 -2.15 -9.25 -1.2 -5.75 0.15 -1.6 Q4.6 11.0 11.95 20.55 M42.65 32.45 Q45.9 30.35 48.35 26.9 50.85 23.35 52.55 18.35 L52.9 17.35 53.6 14.75 53.85 13.7 54.45 10.85 55.25 3.85 55.25 3.55 Q55.6 -2.95 54.65 -9.9 L54.4 -11.6 Q53.0 -19.55 52.15 -22.3 L51.15 -25.7 50.35 -28.1 Q48.45 -33.55 45.1 -39.85 L44.6 -40.8 44.3 -41.35 44.25 -41.45 44.05 -41.75 43.95 -42.0 42.1 -45.05 40.95 -46.85 40.5 -47.45 39.75 -48.55 38.35 -50.4 38.05 -50.8 33.9 -55.65 33.85 -55.7 33.5 -56.05 33.35 -56.15 30.5 -58.85 30.2 -59.05 27.9 -60.85 26.1 -62.1 25.45 -62.5 M25.35 -62.6 L25.3 -62.6 26.9 -61.6 26.1 -62.1 M25.2 -62.7 L22.6 -64.15 20.05 -65.25 Q13.7 -67.6 7.6 -65.75 L6.45 -65.4 4.9 -65.0 M2.65 -57.95 L2.55 -57.8 M27.9 -60.85 L27.2 -61.4 26.9 -61.6 M35.15 -54.3 L35.25 -54.2 Q38.9 -50.2 41.95 -45.35 L42.1 -45.05 M39.75 -48.55 L39.95 -48.25 M40.5 -47.45 L40.55 -47.45 40.95 -46.85 M44.05 -41.75 L44.3 -41.35 M55.25 3.55 L55.25 3.7 M26.6 55.0 L27.15 54.8 Q37.75 50.9 41.3 45.65 43.0 43.05 43.0 40.1 L43.0 39.85 M9.2 50.2 L9.15 50.2 M-45.05 52.4 L-44.35 52.7 -43.7 52.95 -43.55 53.0 -43.35 53.1 -42.9 53.25 -40.4 54.05 -38.75 54.55 Q-25.9 58.25 -8.9 58.25 L-8.45 58.25 Q6.15 58.2 18.0 55.3 L19.0 55.05 21.5 54.35 Q34.6 50.55 38.75 44.6 L38.9 43.25 Q38.9 41.4 38.1 39.7 L38.3 39.5 M39.85 37.5 Q40.3 38.75 40.3 40.1 40.3 47.6 25.9 52.95 L18.15 55.3 18.0 55.3 M24.55 55.7 Q12.4 59.3 2.75 59.85 L0.8 60.0 0.3 60.05 -3.05 60.2 -8.9 60.3 Q-30.05 60.3 -45.0 54.8 -49.35 53.2 -52.5 51.4 L-56.05 48.95 -58.7 46.2 -59.8 44.45 -60.65 42.0 -60.8 40.85 -60.85 40.1 -60.85 39.95 M24.55 55.7 L26.6 55.0 M-56.1 45.4 L-53.75 47.7 -50.95 49.55 Q-49.35 50.5 -47.05 51.5 L-45.05 52.4 M-18.3 22.25 Q-32.75 23.2 -43.7 27.25 -58.15 32.55 -58.15 40.1 -58.15 42.9 -56.1 45.4 M-43.35 53.1 L-40.4 54.05" fill="none" stroke="#000000" stroke-linecap="round" stroke-linejoin="round" stroke-opacity="0.6" stroke-width="1.0"/>
    <path d="M-56.1 45.4 L-56.45 43.25 Q-56.45 35.55 -42.5 30.15 -36.55 27.85 -29.55 26.5" fill="none" stroke="#000000" stroke-linecap="round" stroke-linejoin="round" stroke-opacity="0.4" stroke-width="1.0"/>
  </g>
</svg>
