<?xml version="1.0" encoding="UTF-8" standalone="no"?>
<svg xmlns:xlink="http://www.w3.org/1999/xlink" height="607.0px" width="8226.25px" xmlns="http://www.w3.org/2000/svg">
  <g transform="matrix(1.0, 0.0, 0.0, 1.0, 4113.1, 303.5)">
    <path d="M2912.65 249.0 L3488.65 285.0 4112.65 303.0 2056.3 303.0 0.0 303.0 -2056.3 303.0 -4112.6 303.0 -3350.6 189.0 -2972.6 99.0 -2822.6 39.0 -2726.6 57.0 -2546.6 39.0 -2402.6 63.0 -2228.6 -33.0 -2132.6 -63.0 -2054.6 -39.0 -2000.6 -99.0 -1940.6 -75.0 -1832.6 -51.0 -1599.05 -45.0 -1413.05 -147.0 -1383.05 -129.0 -1305.05 -177.0 -1215.05 -141.0 -1089.05 -183.0 -1011.05 -153.0 -861.05 -201.0 -777.05 -159.0 -729.05 -171.0 -627.05 -141.0 -537.05 -123.0 -393.05 -165.0 -345.05 -201.0 -297.05 -207.0 -273.05 -189.0 -135.05 -207.0 -45.05 -231.0 -3.05 -231.0 68.95 -279.0 152.95 -267.0 260.95 -303.0 368.95 -225.0 410.95 -231.0 470.95 -213.0 554.65 -207.0 764.65 -141.0 914.65 -69.0 986.65 -87.0 1010.65 -57.0 1046.65 -81.0 1148.65 -57.0 1232.65 -33.0 1328.65 -51.0 1358.65 -39.0 1418.65 -63.0 1502.65 -27.0 1718.65 33.0 1892.65 99.0 2090.65 57.0 2228.65 99.0 2402.65 195.0 2456.65 165.0 2540.65 195.0 2678.65 219.0 2912.65 249.0" fill="#ffffff" fill-opacity="0.0" fill-rule="evenodd" stroke="none"/>
    <path d="M2912.65 249.0 L3488.65 285.0 4112.65 303.0 2056.3 303.0 0.0 303.0 -2056.3 303.0 -4112.6 303.0 -3350.6 189.0 -2972.6 99.0 -2822.6 39.0 -2726.6 57.0 -2546.6 39.0 -2402.6 63.0 -2228.6 -33.0 -2132.6 -63.0 -2054.6 -39.0 -2000.6 -99.0 -1940.6 -75.0 -1832.6 -51.0 -1599.05 -45.0 -1413.05 -147.0 -1383.05 -129.0 -1305.05 -177.0 -1215.05 -141.0 -1089.05 -183.0 -1011.05 -153.0 -861.05 -201.0 -777.05 -159.0 -729.05 -171.0 -627.05 -141.0 -537.05 -123.0 -393.05 -165.0 -345.05 -201.0 -297.05 -207.0 -273.05 -189.0 -135.05 -207.0 -45.05 -231.0 -3.05 -231.0 68.95 -279.0 152.95 -267.0 260.95 -303.0 368.95 -225.0 410.95 -231.0 470.95 -213.0 554.65 -207.0 764.65 -141.0 914.65 -69.0 986.65 -87.0 1010.65 -57.0 1046.65 -81.0 1148.65 -57.0 1232.65 -33.0 1328.65 -51.0 1358.65 -39.0 1418.65 -63.0 1502.65 -27.0 1718.65 33.0 1892.65 99.0 2090.65 57.0 2228.65 99.0 2402.65 195.0 2456.65 165.0 2540.65 195.0 2678.65 219.0 2912.65 249.0 Z" fill="none" stroke="#000000" stroke-linecap="round" stroke-linejoin="round" stroke-width="1.0"/>
  </g>
</svg>
