<?xml version="1.0" encoding="UTF-8" standalone="no"?>
<svg xmlns:xlink="http://www.w3.org/1999/xlink" height="44.2px" width="73.95px" xmlns="http://www.w3.org/2000/svg">
  <g transform="matrix(1.0, 0.0, 0.0, 1.0, 37.0, 22.1)">
    <path d="M-36.55 -7.6 Q-35.0 -14.6 -28.4 -15.25 -22.9 -15.8 -17.1 -12.35 -13.25 -10.05 -10.25 -0.4 L-6.55 11.55 -21.6 22.1 Q-24.45 20.35 -24.95 20.1 L-27.65 19.85 Q-30.6 19.85 -34.25 9.95 -38.1 -0.45 -36.55 -7.6 M28.85 -14.3 Q31.3 -12.1 34.05 -6.2 36.6 -0.85 36.85 1.65 37.1 4.05 36.85 9.55 36.6 15.35 36.05 16.7 35.6 17.75 32.25 13.4 27.7 7.5 25.7 5.8 22.9 3.45 20.15 0.4 L18.0 -2.15 Q18.3 -7.15 17.35 -11.7 16.3 -16.95 14.45 -19.2 12.6 -21.45 13.35 -21.85 L16.1 -21.95 Q17.6 -21.7 21.85 -19.2 26.3 -16.6 28.85 -14.3" fill="#cccccc" fill-rule="evenodd" stroke="none"/>
  </g>
</svg>
