<?xml version="1.0" encoding="UTF-8" standalone="no"?>
<svg xmlns:xlink="http://www.w3.org/1999/xlink" height="209.45px" width="339.05px" xmlns="http://www.w3.org/2000/svg">
  <g transform="matrix(1.0, 0.0, 0.0, 1.0, 156.45, 97.35)">
    <path d="M110.25 111.4 L109.55 111.5 107.6 111.6 110.25 111.4 M-60.9 97.65 L-61.05 98.4 -60.85 97.35 -60.9 97.65 M156.1 -73.25 Q156.1 -72.7 155.7 -72.35 155.35 -72.0 154.95 -72.1 L154.25 -72.6 153.75 -73.4 Q153.6 -73.75 153.95 -74.15 154.3 -74.5 154.85 -74.5 155.35 -74.5 155.7 -74.15 L156.1 -73.25" fill="#ffffff" fill-rule="evenodd" stroke="none"/>
    <path d="M118.55 109.85 L118.6 110.05 110.25 111.4 118.55 109.85 M135.5 -44.65 L135.45 -45.55 135.45 -46.35 135.5 -44.65" fill="#dedede" fill-rule="evenodd" stroke="none"/>
    <path d="M103.8 32.1 L104.35 33.0 104.05 32.55 103.8 32.1 M42.8 -46.1 L42.85 -46.55 43.1 -47.95 43.15 -48.0 43.15 -48.05 43.2 -48.15 43.7 -49.35 43.75 -49.5 43.7 -49.4 Q43.0 -47.95 42.85 -46.55 L42.8 -45.55 42.8 -46.1" fill="#bababa" fill-rule="evenodd" stroke="none"/>
    <path d="M42.8 -45.55 L42.85 -44.9 43.1 -43.65 43.2 -43.4 43.25 -43.2 46.85 -45.35 Q51.25 -47.25 55.4 -46.15 L55.0 -41.05 Q60.2 -39.9 59.85 -45.0 L61.05 -45.75 Q62.6 -46.6 64.35 -46.9 69.9 -48.0 75.2 -43.8 L75.6 -48.9 76.75 -47.5 Q78.1 -45.65 79.05 -43.4 82.05 -36.15 79.9 -27.4 L84.05 -30.55 83.6 -23.15 Q84.15 -15.05 88.95 -11.25 L88.4 -19.2 89.7 -18.6 Q91.25 -17.75 92.6 -16.35 96.85 -11.9 97.4 -3.8 97.65 0.2 96.85 5.15 L95.5 13.15 Q94.35 22.35 99.6 30.25 99.15 23.0 103.25 19.1 L102.5 20.7 Q101.8 22.75 101.8 25.0 L101.8 25.15 Q101.9 28.35 103.5 31.5 L103.8 32.1 104.05 32.55 103.9 33.2 101.6 45.25 Q99.2 58.15 98.9 62.2 98.0 74.0 98.65 80.5 100.05 94.5 107.4 97.7 L110.45 95.5 Q114.1 93.65 116.9 95.2 L119.8 98.45 Q122.55 102.95 121.9 109.2 L118.55 109.85 Q116.7 100.8 110.6 101.6 108.65 101.8 106.5 103.05 L104.75 104.2 Q100.05 106.2 96.75 102.9 85.4 86.2 85.4 76.9 85.4 73.75 85.7 70.8 L86.4 66.05 87.4 62.2 84.75 64.9 84.75 56.9 Q85.55 52.3 83.25 36.8 L80.75 22.2 Q43.25 33.45 14.75 25.8 6.15 23.5 -4.2 18.55 -14.6 13.6 -17.25 12.9 -26.45 10.4 -34.85 9.9 L-41.45 9.9 Q-50.0 34.25 -61.75 48.2 L-70.45 57.55 Q-75.1 62.45 -77.45 66.4 -82.45 74.85 -78.2 83.7 -76.05 88.15 -72.95 90.9 L-65.15 91.35 -64.45 91.4 Q-60.05 92.05 -60.8 97.05 L-60.85 97.35 -61.05 98.4 -62.25 101.5 -62.45 101.9 Q-67.45 103.9 -85.45 101.4 L-90.1 95.7 Q-97.6 78.85 -99.1 67.1 -99.55 63.4 -99.4 60.7 L-99.1 58.7 Q-95.65 55.25 -91.7 45.5 L-88.45 36.4 Q-86.9 27.95 -90.0 0.35 L-92.9 -21.4 -95.3 -16.95 Q-97.7 -11.85 -98.45 -7.6 -100.35 26.15 -120.2 39.1 -126.9 43.45 -134.75 44.8 -140.55 45.75 -143.45 44.9 -146.55 43.95 -151.55 43.85 L-155.95 43.9 -155.0 43.85 Q-154.95 41.25 -154.4 39.0 L-154.95 38.9 Q-141.45 40.9 -132.95 38.4 -117.85 34.0 -111.95 15.65 -110.15 10.05 -108.05 -0.95 -105.8 -12.85 -104.45 -17.6 -100.7 -30.7 -90.95 -39.7 -87.9 -42.55 -84.6 -44.6 L-81.95 -46.1 Q-68.0 -54.15 -35.55 -54.35 -6.55 -54.55 16.05 -49.1 30.1 -45.75 42.8 -46.1 L42.8 -45.55 M-42.1 31.6 L-42.45 32.3 Q-53.45 54.3 -58.45 62.4 -63.45 70.55 -56.95 81.55 -53.7 87.05 -49.45 90.9 L-40.95 90.4 -38.65 92.3 Q-36.25 94.55 -35.95 96.4 L-35.95 99.9 -37.05 99.95 -37.5 99.95 -36.85 99.9 -39.95 95.4 Q-41.5 94.45 -48.15 94.35 L-54.45 94.4 Q-61.0 90.65 -65.15 79.9 L-67.95 69.9 Q-67.95 66.45 -62.2 54.85 L-56.45 43.9 Q-50.7 35.4 -42.1 31.6 M156.1 -74.7 L153.9 -75.6 150.05 -73.8 Q152.95 -71.8 156.55 -69.95 158.35 -72.05 156.1 -74.7 M140.35 -82.9 Q141.3 -83.5 142.4 -83.75 L142.2 -86.65 Q143.05 -87.8 144.35 -88.6 147.0 -90.25 149.4 -88.6 L152.15 -90.95 163.9 -77.9 Q181.05 -62.25 182.1 -60.35 178.45 -57.55 172.3 -57.0 L170.65 -57.4 171.2 -55.85 Q171.95 -54.25 172.9 -53.75 L176.05 -52.85 177.15 -52.55 179.7 -54.9 179.7 -52.5 Q179.15 -48.75 176.55 -45.05 L175.45 -41.15 Q173.4 -37.15 168.55 -36.4 164.85 -34.7 159.65 -36.35 L156.25 -34.95 154.6 -34.0 Q156.05 -35.0 158.2 -35.85 156.05 -37.05 154.5 -38.5 152.25 -40.5 151.1 -42.95 150.6 -44.0 150.55 -45.9 150.5 -47.15 148.85 -48.75 L145.9 -50.5 Q143.9 -51.45 143.05 -52.5 140.15 -56.15 142.65 -64.15 143.55 -67.15 141.6 -70.4 139.1 -74.55 138.9 -76.1 138.65 -78.0 140.35 -82.9 M129.25 -87.0 L128.2 -86.8 Q124.95 -86.2 122.5 -84.35 L116.4 -90.1 Q113.9 -90.45 113.55 -84.0 L113.9 -82.75 Q111.7 -90.15 114.2 -93.9 115.45 -95.75 117.75 -96.5 L119.75 -96.85 Q122.65 -92.8 129.25 -87.0 M175.3 -46.65 Q176.2 -48.5 176.05 -52.85 176.2 -48.5 175.3 -46.65 L176.55 -45.05 175.3 -46.65 Q175.0 -46.0 174.5 -45.65 172.5 -44.25 169.35 -43.45 165.1 -42.35 161.9 -43.6 165.1 -42.35 169.35 -43.45 172.5 -44.25 174.5 -45.65 175.0 -46.0 175.3 -46.65 M-81.95 -46.1 L-87.7 -38.85 Q-93.45 -30.6 -93.45 -25.6 L-92.9 -21.4 -93.45 -25.6 Q-93.45 -30.6 -87.7 -38.85 L-81.95 -46.1" fill="#ffffff" fill-opacity="0.0" fill-rule="evenodd" stroke="none"/>
    <path d="M107.6 111.6 L96.0 111.1 92.9 110.7 92.65 110.3 91.2 108.0 90.25 106.5 88.9 104.25 88.5 103.5 88.0 102.65 Q86.15 99.45 85.05 97.0 L84.9 96.7 84.1 91.9 82.45 83.4 81.7 80.15 Q78.8 67.95 75.9 65.7 L74.9 70.7 Q72.95 62.4 74.35 59.85 L73.95 60.5 Q77.95 51.75 72.3 33.9 L70.85 34.2 63.55 35.5 54.6 36.8 Q35.4 39.05 14.95 34.15 -8.95 28.45 -30.45 14.4 L-30.85 14.15 -32.9 12.9 Q-36.15 11.1 -38.75 10.35 L-41.45 9.9 -34.85 9.9 Q-26.45 10.4 -17.25 12.9 -14.6 13.6 -4.2 18.55 6.15 23.5 14.75 25.8 43.25 33.45 80.75 22.2 L83.25 36.8 Q85.55 52.3 84.75 56.9 L84.75 64.9 87.4 62.2 86.4 66.05 85.7 70.8 Q85.4 73.75 85.4 76.9 85.4 86.2 96.75 102.9 100.05 106.2 104.75 104.2 L106.5 103.05 Q108.65 101.8 110.6 101.6 116.7 100.8 118.55 109.85 L110.25 111.4 107.6 111.6 M154.6 -34.0 L152.0 -31.1 146.95 -36.05 146.55 -30.95 Q143.9 -32.95 141.6 -36.2 137.0 -42.6 138.85 -48.65 L135.55 -43.35 135.5 -44.65 135.45 -46.35 135.7 -52.05 135.75 -52.9 Q136.75 -63.3 140.55 -67.65 L135.55 -65.85 Q135.1 -69.8 135.75 -74.05 136.8 -80.75 140.35 -82.9 138.65 -78.0 138.9 -76.1 139.1 -74.55 141.6 -70.4 143.55 -67.15 142.65 -64.15 140.15 -56.15 143.05 -52.5 143.9 -51.45 145.9 -50.5 L148.85 -48.75 Q150.5 -47.15 150.55 -45.9 150.6 -44.0 151.1 -42.95 152.25 -40.5 154.5 -38.5 156.05 -37.05 158.2 -35.85 156.05 -35.0 154.6 -34.0 M122.5 -84.35 L121.75 -83.8 124.5 -82.45 120.8 -80.5 Q118.4 -78.75 116.6 -76.25 L113.9 -82.75 113.55 -84.0 Q113.9 -90.45 116.4 -90.1 L122.5 -84.35" fill="#000000" fill-opacity="0.101960786" fill-rule="evenodd" stroke="none"/>
    <path d="M88.5 103.5 L88.05 105.4 Q84.95 106.05 76.95 105.55 L69.55 104.9 67.55 98.9 Q66.8 94.75 67.8 65.7 68.75 38.1 68.05 37.4 67.25 36.6 63.55 35.5 L70.85 34.2 72.3 33.9 Q77.95 51.75 73.95 60.5 L74.35 59.85 Q72.95 62.4 74.9 70.7 L75.9 65.7 Q78.8 67.95 81.7 80.15 L82.45 83.4 Q81.8 87.65 82.55 91.4 L84.1 91.9 84.9 96.7 85.05 97.0 Q86.15 99.45 88.0 102.65 L88.5 103.5 M-32.9 12.9 L-42.1 31.6 Q-50.7 35.4 -56.45 43.9 L-62.2 54.85 Q-67.95 66.45 -67.95 69.9 L-65.15 79.9 Q-61.0 90.65 -54.45 94.4 L-48.15 94.35 Q-41.5 94.45 -39.95 95.4 L-36.85 99.9 -37.5 99.95 -38.0 99.95 -58.95 100.4 -60.9 97.65 -60.85 97.35 -60.8 97.05 Q-60.05 92.05 -64.45 91.4 L-65.15 91.35 Q-75.85 75.1 -77.45 66.4 -75.1 62.45 -70.45 57.55 L-61.75 48.2 Q-50.0 34.25 -41.45 9.9 L-38.75 10.35 Q-36.15 11.1 -32.9 12.9" fill="#000000" fill-opacity="0.15294118" fill-rule="evenodd" stroke="none"/>
    <path d="M156.1 -74.7 Q158.35 -72.05 156.55 -69.95 152.95 -71.8 150.05 -73.8 L153.9 -75.6 156.1 -74.7 M182.1 -60.35 L181.9 -58.65 Q181.35 -56.75 179.75 -54.95 L179.7 -54.9 177.15 -52.55 176.05 -52.85 172.9 -53.75 Q171.95 -54.25 171.2 -55.85 L170.65 -57.4 172.3 -57.0 Q178.45 -57.55 182.1 -60.35 M156.1 -73.25 L155.7 -74.15 Q155.35 -74.5 154.85 -74.5 154.3 -74.5 153.95 -74.15 153.6 -73.75 153.75 -73.4 L154.25 -72.6 154.95 -72.1 Q155.35 -72.0 155.7 -72.35 156.1 -72.7 156.1 -73.25" fill="#000000" fill-opacity="0.8" fill-rule="evenodd" stroke="none"/>
    <path d="M103.8 32.1 L104.35 33.0 M104.05 32.55 L103.9 33.2 101.6 45.25 Q99.2 58.15 98.9 62.2 98.0 74.0 98.65 80.5 100.05 94.5 107.4 97.7 L110.45 95.5 Q114.1 93.65 116.9 95.2 L119.8 98.45 Q122.55 102.95 121.9 109.2 L118.55 109.85 110.25 111.4 109.55 111.5 107.6 111.6 96.0 111.1 92.9 110.7 92.65 110.3 91.2 108.0 90.25 106.5 88.9 104.25 88.5 103.5 88.05 105.4 Q84.95 106.05 76.95 105.55 L69.55 104.9 67.55 98.9 Q66.8 94.75 67.8 65.7 68.75 38.1 68.05 37.4 67.25 36.6 63.55 35.5 L54.6 36.8 Q35.4 39.05 14.95 34.15 -8.95 28.45 -30.45 14.4 L-30.85 14.15 -32.9 12.9 -42.1 31.6 -42.45 32.3 Q-53.45 54.3 -58.45 62.4 -63.45 70.55 -56.95 81.55 -53.7 87.05 -49.45 90.9 L-40.95 90.4 -38.65 92.3 Q-36.25 94.55 -35.95 96.4 L-35.95 99.9 -37.05 99.95 -38.0 99.95 -58.95 100.4 -60.9 97.65 M-61.05 98.4 L-62.25 101.5 -62.45 101.9 Q-67.45 103.9 -85.45 101.4 L-90.1 95.7 Q-97.6 78.85 -99.1 67.1 -99.55 63.4 -99.4 60.7 L-99.1 58.7 Q-95.65 55.25 -91.7 45.5 L-88.45 36.4 Q-86.9 27.95 -90.0 0.35 L-92.9 -21.4 -95.3 -16.95 Q-97.7 -11.85 -98.45 -7.6 -100.35 26.15 -120.2 39.1 -126.9 43.45 -134.75 44.8 -140.55 45.75 -143.45 44.9 -146.55 43.95 -151.55 43.85 L-155.95 43.9 M-154.95 38.9 Q-141.45 40.9 -132.95 38.4 -117.85 34.0 -111.95 15.65 -110.15 10.05 -108.05 -0.95 -105.8 -12.85 -104.45 -17.6 -100.7 -30.7 -90.95 -39.7 -87.9 -42.55 -84.6 -44.6 L-81.95 -46.1 Q-68.0 -54.15 -35.55 -54.35 -6.55 -54.55 16.05 -49.1 30.1 -45.75 42.8 -46.1 M42.85 -46.55 L42.8 -45.55 M163.9 -77.9 Q181.05 -62.25 182.1 -60.35 L181.9 -58.65 Q181.35 -56.75 179.75 -54.95 L179.7 -54.9 179.7 -52.5 Q179.15 -48.75 176.55 -45.05 L175.45 -41.15 Q173.4 -37.15 168.55 -36.4 164.85 -34.7 159.65 -36.35 L156.25 -34.95 154.6 -34.0 152.0 -31.1 M84.1 91.9 L82.55 91.4 Q81.8 87.65 82.45 83.4 L84.1 91.9 M84.9 96.7 L85.05 97.0 M-65.15 91.35 L-72.95 90.9 Q-76.05 88.15 -78.2 83.7 -82.45 74.85 -77.45 66.4 -75.85 75.1 -65.15 91.35 M-60.8 97.05 L-60.85 97.35 -61.05 98.4 M-37.5 99.95 L-38.0 99.95 M-37.05 99.95 L-37.5 99.95" fill="none" stroke="#000000" stroke-linecap="round" stroke-linejoin="round" stroke-width="1.0"/>
    <path d="M42.8 -45.55 L42.85 -44.9 43.1 -43.65 43.2 -43.4 43.25 -43.2 46.85 -45.35 Q51.25 -47.25 55.4 -46.15 L55.0 -41.05 Q60.2 -39.9 59.85 -45.0 L61.05 -45.75 Q62.6 -46.6 64.35 -46.9 69.9 -48.0 75.2 -43.8 L75.6 -48.9 76.75 -47.5 Q78.1 -45.65 79.05 -43.4 82.05 -36.15 79.9 -27.4 L84.05 -30.55 83.6 -23.15 Q84.15 -15.05 88.95 -11.25 L88.4 -19.2 89.7 -18.6 Q91.25 -17.75 92.6 -16.35 96.85 -11.9 97.4 -3.8 97.65 0.2 96.85 5.15 L95.5 13.15 Q94.35 22.35 99.6 30.25 99.15 23.0 103.25 19.1 L102.5 20.7 Q101.8 22.75 101.8 25.0 L101.8 25.15 Q101.9 28.35 103.5 31.5 L103.8 32.1 M140.35 -82.9 Q141.3 -83.5 142.4 -83.75 L142.2 -86.65 Q143.05 -87.8 144.35 -88.6 147.0 -90.25 149.4 -88.6 L152.15 -90.95 163.9 -77.9 M152.0 -31.1 L146.95 -36.05 146.55 -30.95 Q143.9 -32.95 141.6 -36.2 137.0 -42.6 138.85 -48.65 L135.55 -43.35 135.5 -44.65 135.45 -45.55 135.45 -46.35 135.7 -52.05 135.75 -52.9 Q136.75 -63.3 140.55 -67.65 L135.55 -65.85 Q135.1 -69.8 135.75 -74.05 136.8 -80.75 140.35 -82.9 M116.6 -76.25 L113.9 -82.75 Q111.7 -90.15 114.2 -93.9 115.45 -95.75 117.75 -96.5 L119.75 -96.85 Q122.65 -92.8 129.25 -87.0 M135.5 -44.65 L135.45 -46.35 M176.55 -45.05 L175.3 -46.65 Q175.0 -46.0 174.5 -45.65 172.5 -44.25 169.35 -43.45 165.1 -42.35 161.9 -43.6 M176.05 -52.85 Q176.2 -48.5 175.3 -46.65 M82.45 83.4 L81.7 80.15 Q78.8 67.95 75.9 65.7 L74.9 70.7 Q72.95 62.4 74.35 59.85 L73.95 60.5 Q77.95 51.75 72.3 33.9 L70.85 34.2 63.55 35.5 M84.1 91.9 L84.9 96.7 M85.05 97.0 Q86.15 99.45 88.0 102.65 L88.5 103.5 M-92.9 -21.4 L-93.45 -25.6 Q-93.45 -30.6 -87.7 -38.85 L-81.95 -46.1 M-41.45 9.9 L-38.75 10.35 Q-36.15 11.1 -32.9 12.9 M-77.45 66.4 Q-75.1 62.45 -70.45 57.55 L-61.75 48.2 Q-50.0 34.25 -41.45 9.9 M-65.15 91.35 L-64.45 91.4 Q-60.05 92.05 -60.8 97.05" fill="none" stroke="#000000" stroke-linecap="round" stroke-linejoin="round" stroke-opacity="0.6" stroke-width="1.0"/>
  </g>
</svg>
