<?xml version="1.0" encoding="UTF-8" standalone="no"?>
<svg xmlns:xlink="http://www.w3.org/1999/xlink" height="102.5px" width="27.65px" xmlns="http://www.w3.org/2000/svg">
  <g transform="matrix(1.0, 0.0, 0.0, 1.0, 13.8, 51.3)">
    <path d="M-12.5 -48.4 Q-12.45 -49.35 -8.7 -50.0 L-0.45 -50.65 8.65 -50.0 Q12.4 -49.3 12.4 -48.35 L12.4 -48.3 Q12.35 -47.45 8.65 -46.8 L-0.45 -46.15 -8.7 -46.85 Q-12.45 -47.45 -12.5 -48.4 -12.45 -47.45 -8.7 -46.85 L-0.45 -46.15 8.65 -46.8 Q12.35 -47.45 12.4 -48.3 L12.4 10.55 12.95 10.95 12.95 11.0 Q13.35 11.6 13.35 12.3 13.35 13.1 12.95 13.6 L12.5 14.0 12.5 14.05 12.5 47.0 Q7.55 50.7 0.25 50.7 -7.15 50.7 -12.3 46.8 L-12.3 14.2 -12.95 13.65 Q-13.3 13.1 -13.3 12.35 -13.3 11.65 -12.95 11.05 L-12.45 10.65 -12.5 -48.4 M-12.45 10.65 L-10.15 11.8 Q-5.6 13.6 0.0 13.6 5.95 13.6 10.35 11.7 L11.0 11.45 Q11.8 11.15 12.4 10.55 11.8 11.15 11.0 11.45 L10.35 11.7 Q5.95 13.6 0.0 13.6 -5.6 13.6 -10.15 11.8 L-12.45 10.65 M12.5 14.05 L10.35 15.2 Q5.95 17.1 0.0 17.1 -5.6 17.1 -10.15 15.3 L-12.3 14.2 -10.15 15.3 Q-5.6 17.1 0.0 17.1 5.95 17.1 10.35 15.2 L12.5 14.05" fill="#ffffff" fill-opacity="0.0" fill-rule="evenodd" stroke="none"/>
    <path d="M12.4 10.55 L12.95 10.95 12.95 11.0 Q13.35 11.6 13.35 12.3 13.35 13.1 12.95 13.6 L12.5 14.0 12.5 14.05 12.5 47.0 Q7.55 50.7 0.25 50.7 -7.15 50.7 -12.3 46.8 L-12.3 14.2 -12.95 13.65 Q-13.3 13.1 -13.3 12.35 -13.3 11.65 -12.95 11.05 L-12.45 10.65" fill="none" stroke="#000000" stroke-linecap="round" stroke-linejoin="round" stroke-width="1.0"/>
    <path d="M-12.3 14.2 L-10.15 15.3 Q-5.6 17.1 0.0 17.1 5.95 17.1 10.35 15.2 L12.5 14.05 M12.4 10.55 Q11.8 11.15 11.0 11.45 L10.35 11.7 Q5.95 13.6 0.0 13.6 -5.6 13.6 -10.15 11.8 L-12.45 10.65" fill="none" stroke="#000000" stroke-linecap="round" stroke-linejoin="round" stroke-opacity="0.4" stroke-width="1.0"/>
    <path d="M12.4 -48.3 L12.4 -48.35 Q12.4 -49.3 8.65 -50.0 L-0.45 -50.65 -8.7 -50.0 Q-12.45 -49.35 -12.5 -48.4 L-12.45 10.65 M12.4 -48.3 L12.4 10.55" fill="none" stroke="#000000" stroke-linecap="round" stroke-linejoin="bevel" stroke-width="1.0"/>
    <path d="M-12.5 -48.4 Q-12.45 -47.45 -8.7 -46.85 L-0.45 -46.15 8.65 -46.8 Q12.35 -47.45 12.4 -48.3" fill="none" stroke="#000000" stroke-linecap="round" stroke-linejoin="bevel" stroke-opacity="0.6" stroke-width="1.0"/>
  </g>
</svg>
