<?xml version="1.0" encoding="UTF-8" standalone="no"?>
<svg xmlns:xlink="http://www.w3.org/1999/xlink" height="24.45px" width="33.2px" xmlns="http://www.w3.org/2000/svg">
  <g transform="matrix(1.0, 0.0, 0.0, 1.0, 16.6, 15.75)">
    <path d="M4.0 -9.4 L3.1 -8.65 1.3 -9.05 8.35 -15.25 15.35 -9.3 13.4 -9.2 12.9 -9.45 12.9 -9.65 8.5 -13.25 4.0 -9.4 M4.1 -8.1 L4.45 -1.6 12.55 -1.7 12.65 -3.9 16.1 2.0 13.45 2.0 5.25 2.0 -0.45 -6.15 -6.35 1.95 -13.1 1.95 -16.1 1.95 -11.0 -8.7 4.1 -8.1 M5.9 7.55 L4.0 7.65 -0.85 3.45 -5.25 7.3 -5.35 7.4 -6.3 8.2 -7.75 7.85 -8.0 7.65 -1.05 1.6 5.9 7.55" fill="#ffffff" fill-opacity="0.0" fill-rule="evenodd" stroke="none"/>
    <path d="M4.0 -9.4 L3.1 -8.65 1.3 -9.05 8.35 -15.25 15.35 -9.3 13.4 -9.2 12.9 -9.45 12.9 -9.65 M4.1 -8.1 L-11.0 -8.7 -16.1 1.95 -13.1 1.95 M13.45 2.0 L16.1 2.0 12.65 -3.9" fill="none" stroke="#000000" stroke-linecap="round" stroke-linejoin="round" stroke-width="1.0"/>
    <path d="M12.9 -9.65 L8.5 -13.25 4.0 -9.4 M12.65 -3.9 L12.55 -1.7 4.45 -1.6 4.1 -8.1 M-13.1 1.95 L-6.35 1.95 -0.45 -6.15 5.25 2.0 13.45 2.0 M5.9 7.55 L-1.05 1.6 -8.0 7.65 -7.75 7.85 -6.3 8.2 -5.35 7.4 -5.25 7.3 -0.85 3.45 4.0 7.65 5.9 7.55" fill="none" stroke="#000000" stroke-linecap="round" stroke-linejoin="round" stroke-opacity="0.6" stroke-width="1.0"/>
  </g>
</svg>
