<?xml version="1.0" encoding="UTF-8" standalone="no"?>
<svg xmlns:xlink="http://www.w3.org/1999/xlink" height="176.25px" width="500.9px" xmlns="http://www.w3.org/2000/svg">
  <g transform="matrix(1.0, 0.0, 0.0, 1.0, 250.45, 88.1)">
    <path d="M125.9 -38.9 L125.75 -39.3 126.0 -38.7 125.9 -38.9 M87.15 -2.45 L87.85 -2.5 88.95 -2.5 87.15 -2.45 M-57.25 68.3 L-56.95 68.25 -56.35 68.15 -56.95 68.25 -57.25 68.35 -57.25 68.3 M-63.0 61.35 L-64.55 61.15 -63.0 61.3 -63.0 61.35 -63.0 61.3 -61.45 61.45 -61.85 61.45 -63.0 61.35 M-66.9 67.5 L-66.45 67.4 -66.9 67.55 -66.9 67.5 M72.65 71.3 L72.75 71.3 73.55 71.15 72.75 71.3 72.65 71.35 72.65 71.3" fill="#ffffff" fill-rule="evenodd" stroke="none"/>
    <path d="M-76.9 -86.25 L-77.1 -86.55 -77.15 -86.7 -77.15 -86.75 -77.2 -86.85 -77.25 -87.6 33.45 -84.35 Q55.75 -83.9 62.15 -82.35 65.35 -81.55 64.1 -80.9 -50.9 -81.9 -64.55 -82.45 -72.45 -82.75 -75.55 -84.9 L-76.05 -85.25 -76.1 -85.3 -76.55 -85.75 -76.9 -86.25 M-87.5 -84.9 L-87.5 -84.1 -89.2 -84.1 -93.0 -84.1 -95.0 -84.1 -95.0 -84.9 -95.0 -86.25 -95.0 -86.9 -87.5 -86.9 -87.5 -86.25 -87.5 -84.9 M-89.2 -80.9 L-86.2 -80.9 -83.35 -60.4 -87.35 -60.4 -95.8 -60.4 -99.35 -60.4 -96.35 -80.9 -93.0 -80.9 -89.2 -80.9 M-79.85 -56.4 L-81.5 -40.75 -96.9 -40.75 -96.2 -53.25 -79.85 -56.4 M-110.0 -84.9 Q-113.1 -82.75 -121.0 -82.45 L-249.7 -80.9 Q-250.0 -81.05 -249.9 -81.35 -249.75 -81.85 -247.75 -82.35 -241.3 -83.9 -219.0 -84.35 -183.35 -85.1 -108.35 -87.6 -108.2 -86.95 -108.6 -86.25 L-109.55 -85.25 -110.0 -84.9 M107.8 -38.9 L107.8 -39.6 115.3 -39.6 115.3 -38.9 115.3 -37.6 115.3 -36.75 113.65 -36.75 109.8 -36.75 107.8 -36.75 107.8 -37.6 107.8 -38.9 M125.75 -39.3 L125.65 -39.55 125.6 -40.25 222.7 -37.0 Q242.25 -36.55 247.9 -35.0 250.75 -34.25 249.65 -33.6 148.7 -34.55 136.7 -35.1 130.45 -35.4 127.65 -37.15 L127.0 -37.6 126.65 -37.9 126.55 -38.0 126.0 -38.7 125.75 -39.3 M108.55 -19.0 L109.65 -30.25 108.5 -30.4 106.75 -19.0 104.4 -19.0 106.5 -33.6 109.8 -33.6 113.65 -33.6 116.65 -33.6 118.7 -19.0 115.6 -19.0 115.0 -30.4 113.0 -30.25 113.6 -19.0 108.55 -19.0 M94.25 -38.9 L93.5 -37.9 93.2 -37.6 Q90.65 -35.45 84.15 -35.1 L-20.9 -33.6 Q-21.15 -33.75 -21.1 -34.05 -20.95 -34.55 -19.3 -35.0 -14.05 -36.55 4.15 -37.0 L94.5 -40.25 Q94.6 -39.6 94.25 -38.9 M-94.35 -77.75 L-96.7 -62.4 -94.7 -62.4 -93.2 -77.6 -94.35 -77.75 M-87.85 -77.75 L-89.85 -77.6 -89.0 -62.25 -87.0 -62.25 -87.85 -77.75" fill="#ffffff" fill-opacity="0.0" fill-rule="evenodd" stroke="none"/>
    <path d="M-87.35 -56.4 L-79.85 -56.4 -96.2 -53.25 -96.9 -40.75 -101.75 -40.75 -103.85 -56.4 -95.5 -56.4 -87.35 -56.4 M106.75 -19.0 L108.5 -30.4 109.65 -30.25 108.55 -19.0 106.75 -19.0 108.55 -19.0 113.6 -19.0 113.0 -30.25 115.0 -30.4 115.6 -19.0 118.7 -19.0 118.9 -19.0 125.5 -15.95 126.45 -15.4 126.45 -1.8 121.75 -3.55 113.7 -5.95 87.85 -5.95 113.7 -5.95 121.75 -3.55 126.45 -1.8 126.45 -15.4 Q132.9 -11.55 135.65 -6.75 L136.2 3.3 136.35 6.35 135.75 6.1 129.3 3.45 129.1 3.4 128.65 3.2 113.65 -2.25 112.3 -2.35 111.7 -2.35 88.95 -2.5 87.85 -2.5 87.85 -5.95 88.15 -19.0 104.4 -19.0 106.75 -19.0 M94.95 -15.6 L94.95 -12.7 102.05 -12.7 102.05 -15.6 94.95 -15.6 M89.65 -10.25 L89.65 -7.4 96.75 -7.4 96.75 -10.25 89.65 -10.25 M115.6 -19.0 L113.6 -19.0 115.6 -19.0 M-94.35 -77.75 L-93.2 -77.6 -94.7 -62.4 -96.7 -62.4 -94.35 -77.75 M-87.85 -77.75 L-87.0 -62.25 -89.0 -62.25 -89.85 -77.6 -87.85 -77.75 M-57.45 72.9 Q-56.5 72.1 -55.2 72.1 -53.75 72.1 -52.65 73.15 -51.6 74.25 -51.6 75.7 -51.6 77.2 -52.65 78.25 -53.75 79.3 -55.2 79.3 -56.7 79.3 -57.75 78.25 L-57.85 78.15 Q-57.2 76.65 -57.2 74.9 -57.2 73.85 -57.45 72.9 M-62.2 72.45 Q-61.25 73.5 -61.25 74.9 -61.25 76.4 -62.3 77.45 L-62.65 77.75 Q-63.6 78.5 -64.85 78.5 -66.35 78.5 -67.4 77.45 -68.45 76.4 -68.45 74.9 -68.45 73.4 -67.4 72.35 -66.35 71.3 -64.85 71.3 -63.35 71.3 -62.3 72.35 L-62.2 72.45 M126.45 -1.8 Q132.2 0.6 136.2 3.3 132.2 0.6 126.45 -1.8 M71.8 80.8 L71.8 80.0 Q71.8 78.6 71.35 77.35 L72.15 76.15 Q73.2 75.1 74.7 75.1 76.2 75.1 77.25 76.15 78.3 77.25 78.3 78.7 78.3 80.2 77.25 81.25 76.2 82.3 74.7 82.3 73.2 82.3 72.15 81.25 L71.8 80.8 M67.75 80.0 L67.5 81.4 66.7 82.55 Q65.65 83.6 64.15 83.6 62.65 83.6 61.6 82.55 60.55 81.5 60.55 80.0 60.55 78.5 61.6 77.45 62.65 76.4 64.15 76.4 65.65 76.4 66.7 77.45 L67.1 77.9 Q67.75 78.8 67.75 80.0" fill="#000000" fill-opacity="0.101960786" fill-rule="evenodd" stroke="none"/>
    <path d="M-89.2 -84.1 L-89.2 -80.9 -93.0 -80.9 -93.0 -84.1 -89.2 -84.1 M-87.35 -60.4 L-87.35 -56.4 -95.5 -56.4 -95.8 -60.4 -87.35 -60.4 M109.8 -36.75 L113.65 -36.75 113.65 -33.6 109.8 -33.6 109.8 -36.75 M94.95 -15.6 L102.05 -15.6 102.05 -12.7 94.95 -12.7 94.95 -15.6 M81.5 -4.2 L81.65 -12.5 83.1 -15.35 Q84.7 -18.35 85.65 -19.0 L88.15 -19.0 87.85 -5.95 87.7 -5.95 87.85 -5.95 87.85 -2.5 87.15 -2.45 82.3 -2.4 81.55 -2.4 81.45 -2.4 81.5 -4.2 87.7 -5.95 81.5 -4.2 M89.65 -10.25 L96.75 -10.25 96.75 -7.4 89.65 -7.4 89.65 -10.25 M-53.15 68.3 L-53.6 68.2 -53.7 68.2 -54.8 68.05 -54.85 68.05 -54.95 68.05 -55.0 68.05 -55.1 68.05 -55.2 68.05 -55.4 68.05 -56.35 68.15 -56.95 68.25 -57.25 68.3 -57.5 61.8 -53.3 62.15 -53.15 68.3 M-64.55 61.15 L-63.0 61.35 -62.8 67.5 -63.6 67.35 -64.65 67.25 -64.75 67.25 -64.85 67.25 -65.0 67.25 -65.1 67.25 -65.15 67.25 -66.05 67.35 -66.45 67.4 -66.9 67.5 -67.1 60.9 -64.55 61.15 M65.9 72.5 L65.05 72.35 64.5 72.3 64.45 72.3 64.35 72.3 64.25 72.3 64.15 72.3 63.85 72.3 62.85 72.4 61.75 72.65 61.55 72.75 61.4 72.8 61.4 70.15 65.9 70.0 65.9 72.5 M76.75 71.3 L76.25 71.2 74.7 71.05 74.55 71.05 74.45 71.05 73.55 71.15 72.75 71.3 72.65 71.3 72.5 66.6 76.6 66.65 76.75 71.3" fill="#000000" fill-opacity="0.2" fill-rule="evenodd" stroke="none"/>
    <path d="M-75.55 -84.9 L-87.5 -84.9 -87.5 -86.25 -76.9 -86.25 -76.55 -85.75 -76.1 -85.3 -76.05 -85.25 -75.55 -84.9 M-95.0 -84.9 L-110.0 -84.9 -109.55 -85.25 -108.6 -86.25 -95.0 -86.25 -95.0 -84.9 M107.8 -38.9 L107.8 -37.6 93.2 -37.6 93.5 -37.9 94.25 -38.9 107.8 -38.9 M115.3 -37.6 L115.3 -38.9 125.9 -38.9 126.0 -38.7 126.55 -38.0 126.65 -37.9 127.0 -37.6 115.3 -37.6" fill="#000000" fill-opacity="0.4" fill-rule="evenodd" stroke="none"/>
    <path d="M-56.35 68.15 L-55.4 68.05 -55.2 68.05 -55.1 68.05 -55.0 68.05 -54.95 68.05 -54.85 68.05 -54.8 68.05 -53.7 68.2 -53.6 68.2 -53.15 68.3 Q-52.15 68.6 -51.2 69.15 L-49.8 70.3 Q-47.55 72.55 -47.55 75.7 -47.55 78.9 -49.8 81.15 -52.05 83.4 -55.2 83.4 -58.35 83.4 -60.55 81.25 L-59.45 80.3 -57.85 78.15 -59.45 80.3 -60.55 81.25 Q-62.4 82.55 -64.85 82.55 -68.05 82.55 -70.25 80.3 -72.5 78.1 -72.5 74.9 -72.5 71.7 -70.25 69.5 L-70.2 69.45 -70.15 69.4 -70.1 69.35 -70.05 69.3 -70.0 69.25 -69.85 69.15 -69.8 69.1 -69.75 69.05 -69.7 69.0 -69.6 68.95 -69.55 68.9 -69.5 68.85 -69.4 68.75 -69.35 68.7 -68.15 68.0 -66.9 67.55 -66.45 67.4 -66.05 67.35 -65.15 67.25 -65.1 67.25 -65.0 67.25 -64.85 67.25 -64.75 67.25 -64.65 67.25 -63.6 67.35 -62.8 67.5 Q-60.95 68.0 -59.5 69.45 L-58.5 68.8 -57.25 68.35 -56.95 68.25 -56.35 68.15 M-57.45 72.9 Q-57.95 70.95 -59.45 69.5 L-59.5 69.45 -59.45 69.5 Q-57.95 70.95 -57.45 72.9 -57.2 73.85 -57.2 74.9 -57.2 76.65 -57.85 78.15 L-57.75 78.25 Q-56.7 79.3 -55.2 79.3 -53.75 79.3 -52.65 78.25 -51.6 77.2 -51.6 75.7 -51.6 74.25 -52.65 73.15 -53.75 72.1 -55.2 72.1 -56.5 72.1 -57.45 72.9 M-62.2 72.45 L-62.3 72.35 Q-63.35 71.3 -64.85 71.3 -66.35 71.3 -67.4 72.35 -68.45 73.4 -68.45 74.9 -68.45 76.4 -67.4 77.45 -66.35 78.5 -64.85 78.5 -63.6 78.5 -62.65 77.75 L-62.3 77.45 Q-61.25 76.4 -61.25 74.9 -61.25 73.5 -62.2 72.45 M61.4 72.8 L61.55 72.75 61.75 72.65 62.85 72.4 63.85 72.3 64.15 72.3 64.25 72.3 64.35 72.3 64.45 72.3 64.5 72.3 65.05 72.35 65.9 72.5 Q67.5 72.85 68.8 73.85 L69.55 74.55 Q70.8 75.8 71.35 77.35 70.8 75.8 69.55 74.55 L68.8 73.85 69.3 73.3 69.5 73.15 69.6 73.0 71.4 71.8 Q72.0 71.5 72.65 71.35 L72.75 71.3 73.55 71.15 74.45 71.05 74.55 71.05 74.7 71.05 76.25 71.2 76.75 71.3 Q78.4 71.75 79.7 72.9 L79.85 73.05 80.05 73.25 80.1 73.3 Q82.35 75.55 82.35 78.7 82.35 81.9 80.1 84.15 77.9 86.4 74.7 86.4 72.05 86.4 70.1 84.85 L69.55 85.4 Q67.35 87.65 64.15 87.65 60.95 87.65 58.75 85.4 56.5 83.2 56.5 80.0 56.5 76.8 58.75 74.55 L58.85 74.45 58.95 74.35 59.05 74.3 Q60.1 73.25 61.4 72.8 M71.8 80.8 Q71.55 83.1 70.1 84.85 71.55 83.1 71.8 80.8 L72.15 81.25 Q73.2 82.3 74.7 82.3 76.2 82.3 77.25 81.25 78.3 80.2 78.3 78.7 78.3 77.25 77.25 76.15 76.2 75.1 74.7 75.1 73.2 75.1 72.15 76.15 L71.35 77.35 Q71.8 78.6 71.8 80.0 L71.8 80.8 M67.75 80.0 Q67.75 78.8 67.1 77.9 L66.7 77.45 Q65.65 76.4 64.15 76.4 62.65 76.4 61.6 77.45 60.55 78.5 60.55 80.0 60.55 81.5 61.6 82.55 62.65 83.6 64.15 83.6 65.65 83.6 66.7 82.55 L67.5 81.4 67.75 80.0" fill="#000000" fill-opacity="0.6" fill-rule="evenodd" stroke="none"/>
    <path d="M-76.9 -86.25 L-77.1 -86.55 -77.15 -86.7 -77.15 -86.75 -77.2 -86.85 -77.25 -87.6 33.45 -84.35 Q55.75 -83.9 62.15 -82.35 65.35 -81.55 64.1 -80.9 -50.9 -81.9 -64.55 -82.45 -72.45 -82.75 -75.55 -84.9 L-87.5 -84.9 -87.5 -84.1 -89.2 -84.1 -89.2 -80.9 -86.2 -80.9 -83.35 -60.4 -87.35 -60.4 -87.35 -56.4 -79.85 -56.4 -81.5 -40.75 M-101.75 -40.75 L-103.85 -56.4 -95.5 -56.4 -95.8 -60.4 -99.35 -60.4 -96.35 -80.9 -93.0 -80.9 -93.0 -84.1 -95.0 -84.1 -95.0 -84.9 -110.0 -84.9 Q-113.1 -82.75 -121.0 -82.45 L-249.7 -80.9 Q-250.0 -81.05 -249.9 -81.35 -249.75 -81.85 -247.75 -82.35 -241.3 -83.9 -219.0 -84.35 -183.35 -85.1 -108.35 -87.6 -108.2 -86.95 -108.6 -86.25 L-95.0 -86.25 -95.0 -86.9 -87.5 -86.9 -87.5 -86.25 -76.9 -86.25 M115.3 -38.9 L115.3 -39.6 107.8 -39.6 107.8 -38.9 94.25 -38.9 Q94.6 -39.6 94.5 -40.25 L4.15 -37.0 Q-14.05 -36.55 -19.3 -35.0 -20.95 -34.55 -21.1 -34.05 -21.15 -33.75 -20.9 -33.6 L84.15 -35.1 Q90.65 -35.45 93.2 -37.6 L107.8 -37.6 107.8 -36.75 109.8 -36.75 109.8 -33.6 106.5 -33.6 104.4 -19.0 88.15 -19.0 85.65 -19.0 Q84.7 -18.35 83.1 -15.35 L81.65 -12.5 81.5 -4.2 81.45 -2.4 M113.65 -36.75 L115.3 -36.75 115.3 -37.6 127.0 -37.6 127.65 -37.15 Q130.45 -35.4 136.7 -35.1 148.7 -34.55 249.65 -33.6 250.75 -34.25 247.9 -35.0 242.25 -36.55 222.7 -37.0 L125.6 -40.25 125.65 -39.55 125.75 -39.3 126.0 -38.7 M115.3 -38.9 L125.9 -38.9 M118.7 -19.0 L116.65 -33.6 113.65 -33.6 113.65 -36.75 M87.7 -5.95 L87.85 -5.95 M126.45 -15.4 L125.5 -15.95 118.9 -19.0 118.7 -19.0 M136.2 3.3 L135.65 -6.75 Q132.9 -11.55 126.45 -15.4 M-89.2 -84.1 L-93.0 -84.1 M-53.15 68.3 L-53.3 62.15 M-57.5 61.8 L-57.25 68.3 -57.25 68.35 M-58.5 68.8 L-59.5 69.45 Q-60.95 68.0 -62.8 67.5 L-63.0 61.35 -63.0 61.3 M-60.55 81.25 Q-58.35 83.4 -55.2 83.4 -52.05 83.4 -49.8 81.15 -47.55 78.9 -47.55 75.7 -47.55 72.55 -49.8 70.3 L-51.2 69.15 Q-52.15 68.6 -53.15 68.3 M-57.25 68.3 L-58.5 68.8 M-67.1 60.9 L-66.9 67.5 -68.15 68.0 -69.35 68.7 -69.4 68.75 -69.5 68.85 -69.55 68.9 -69.6 68.95 -69.7 69.0 -69.75 69.05 -69.8 69.1 -69.85 69.15 -70.0 69.25 -70.05 69.3 -70.1 69.35 -70.15 69.4 -70.2 69.45 -70.25 69.5 Q-72.5 71.7 -72.5 74.9 -72.5 78.1 -70.25 80.3 -68.05 82.55 -64.85 82.55 -62.4 82.55 -60.55 81.25 M136.35 6.35 L136.2 3.3 M65.9 72.5 L65.9 70.0 M61.4 70.15 L61.4 72.8 Q60.1 73.25 59.05 74.3 L58.95 74.35 58.85 74.45 58.75 74.55 Q56.5 76.8 56.5 80.0 56.5 83.2 58.75 85.4 60.95 87.65 64.15 87.65 67.35 87.65 69.55 85.4 L70.1 84.85 Q72.05 86.4 74.7 86.4 77.9 86.4 80.1 84.15 82.35 81.9 82.35 78.7 82.35 75.55 80.1 73.3 L80.05 73.25 79.85 73.05 79.7 72.9 Q78.4 71.75 76.75 71.3 L76.6 66.65 M68.8 73.85 Q67.5 72.85 65.9 72.5 M71.4 71.8 L69.6 73.0 69.5 73.15 69.3 73.3 68.8 73.85 M72.5 66.6 L72.65 71.3 72.75 71.3 M71.4 71.8 L72.65 71.3 72.65 71.35" fill="none" stroke="#000000" stroke-linecap="round" stroke-linejoin="round" stroke-width="1.0"/>
    <path d="M-81.5 -40.75 L-96.9 -40.75 -101.75 -40.75 M106.75 -19.0 L108.55 -19.0 113.6 -19.0 115.6 -19.0 118.7 -19.0 M104.4 -19.0 L106.75 -19.0 M81.45 -2.4 L81.55 -2.4 82.3 -2.4 87.15 -2.45 87.85 -2.5 88.95 -2.5 87.15 -2.45 M136.35 6.35 L135.75 6.1 129.3 3.45 129.1 3.4 128.65 3.2 113.65 -2.25 112.3 -2.35 111.7 -2.35 88.95 -2.5 M-53.3 62.15 L-57.5 61.8 M-64.55 61.15 L-63.0 61.35 M-64.55 61.15 L-67.1 60.9 M65.9 70.0 L61.4 70.15 M76.6 66.65 L72.5 66.6" fill="none" stroke="#000000" stroke-linecap="round" stroke-linejoin="round" stroke-opacity="0.6" stroke-width="1.0"/>
    <path d="M-76.9 -86.25 L-76.55 -85.75 -76.1 -85.3 -76.05 -85.25 -75.55 -84.9 M107.8 -38.9 L107.8 -37.6 M109.8 -36.75 L113.65 -36.75 M115.3 -37.6 L115.3 -38.9 M113.65 -33.6 L109.8 -33.6 M93.2 -37.6 L93.5 -37.9 94.25 -38.9 M81.5 -4.2 L87.7 -5.95 M87.85 -5.95 L113.7 -5.95 121.75 -3.55 126.45 -1.8 126.45 -15.4 M126.0 -38.7 L126.55 -38.0 126.65 -37.9 127.0 -37.6 M-95.0 -84.9 L-95.0 -86.25 M-87.5 -86.25 L-87.5 -84.9 M-93.0 -80.9 L-89.2 -80.9 M-108.6 -86.25 L-109.55 -85.25 -110.0 -84.9 M-87.35 -60.4 L-95.8 -60.4 M-95.5 -56.4 L-87.35 -56.4 M-56.35 68.15 L-55.4 68.05 -55.2 68.05 -55.1 68.05 -55.0 68.05 -54.95 68.05 -54.85 68.05 -54.8 68.05 -53.7 68.2 -53.6 68.2 -53.15 68.3 M-57.25 68.3 L-56.95 68.25 -56.35 68.15 M-59.5 69.45 L-59.45 69.5 Q-57.95 70.95 -57.45 72.9 -57.2 73.85 -57.2 74.9 -57.2 76.65 -57.85 78.15 L-59.45 80.3 -60.55 81.25 M-66.9 67.5 L-66.45 67.4 -66.05 67.35 -65.15 67.25 -65.1 67.25 -65.0 67.25 -64.85 67.25 -64.75 67.25 -64.65 67.25 -63.6 67.35 -62.8 67.5 M-66.9 67.55 L-66.9 67.5 M136.2 3.3 Q132.2 0.6 126.45 -1.8 M61.4 72.8 L61.55 72.75 61.75 72.65 62.85 72.4 63.85 72.3 64.15 72.3 64.25 72.3 64.35 72.3 64.45 72.3 64.5 72.3 65.05 72.35 65.9 72.5 M70.1 84.85 Q71.55 83.1 71.8 80.8 L71.8 80.0 Q71.8 78.6 71.35 77.35 70.8 75.8 69.55 74.55 L68.8 73.85 M73.55 71.15 L74.45 71.05 74.55 71.05 74.7 71.05 76.25 71.2 76.75 71.3 M72.75 71.3 L73.55 71.15" fill="none" stroke="#000000" stroke-linecap="round" stroke-linejoin="round" stroke-opacity="0.6" stroke-width="1.0"/>
    <path d="M108.55 -19.0 L109.65 -30.25 108.5 -30.4 106.75 -19.0 M113.6 -19.0 L113.0 -30.25 115.0 -30.4 115.6 -19.0 M94.95 -15.6 L102.05 -15.6 102.05 -12.7 94.95 -12.7 94.95 -15.6 M89.65 -10.25 L96.75 -10.25 96.75 -7.4 89.65 -7.4 89.65 -10.25 M-94.35 -77.75 L-96.7 -62.4 -94.7 -62.4 -93.2 -77.6 -94.35 -77.75 M-87.85 -77.75 L-87.0 -62.25 -89.0 -62.25 -89.85 -77.6 -87.85 -77.75 M-57.45 72.9 Q-56.5 72.1 -55.2 72.1 -53.75 72.1 -52.65 73.15 -51.6 74.25 -51.6 75.7 -51.6 77.2 -52.65 78.25 -53.75 79.3 -55.2 79.3 -56.7 79.3 -57.75 78.25 L-57.85 78.15 M-62.2 72.45 Q-61.25 73.5 -61.25 74.9 -61.25 76.4 -62.3 77.45 L-62.65 77.75 Q-63.6 78.5 -64.85 78.5 -66.35 78.5 -67.4 77.45 -68.45 76.4 -68.45 74.9 -68.45 73.4 -67.4 72.35 -66.35 71.3 -64.85 71.3 -63.35 71.3 -62.3 72.35 L-62.2 72.45 M71.35 77.35 L72.15 76.15 Q73.2 75.1 74.7 75.1 76.2 75.1 77.25 76.15 78.3 77.25 78.3 78.7 78.3 80.2 77.25 81.25 76.2 82.3 74.7 82.3 73.2 82.3 72.15 81.25 L71.8 80.8 M67.75 80.0 L67.5 81.4 66.7 82.55 Q65.65 83.6 64.15 83.6 62.65 83.6 61.6 82.55 60.55 81.5 60.55 80.0 60.55 78.5 61.6 77.45 62.65 76.4 64.15 76.4 65.65 76.4 66.7 77.45 L67.1 77.9 Q67.75 78.8 67.75 80.0" fill="none" stroke="#000000" stroke-linecap="round" stroke-linejoin="round" stroke-opacity="0.4" stroke-width="1.0"/>
  </g>
</svg>
