<?xml version="1.0" encoding="UTF-8" standalone="no"?>
<svg xmlns:xlink="http://www.w3.org/1999/xlink" height="16.15px" width="39.45px" xmlns="http://www.w3.org/2000/svg">
  <g transform="matrix(1.0, 0.0, 0.0, 1.0, 27.45, 9.0)">
    <path d="M11.35 -8.25 L11.35 6.0 3.6 6.0 3.6 -8.25 11.35 -8.25 M-6.2 -8.25 L-6.2 6.5 -13.85 6.5 -13.85 -8.25 -6.2 -8.25 M-19.1 -8.35 L-15.95 -8.35 -15.95 6.4 -19.1 6.4 -19.15 6.4 -19.8 6.3 -20.5 5.75 -20.75 5.1 -20.75 -6.8 -20.5 -7.45 -19.8 -7.95 -19.15 -8.2 Q-18.95 -8.2 -19.1 -8.35 M-23.85 -6.15 L-23.85 4.55 Q-25.3 5.15 -26.8 4.55 L-26.8 -6.15 Q-25.45 -6.7 -23.85 -6.15" fill="#000000" fill-opacity="0.8" fill-rule="evenodd" stroke="none"/>
    <path d="M11.35 -8.25 L11.35 6.0 3.6 6.0 3.6 -8.25 11.35 -8.25 M-6.2 -8.25 L-6.2 6.5 -13.85 6.5 -13.85 -8.25 -6.2 -8.25 M-19.1 -8.35 L-15.95 -8.35 -15.95 6.4 -19.1 6.4 -19.15 6.4 -19.8 6.3 -20.5 5.75 -20.75 5.1 -20.75 -6.8 -20.5 -7.45 -19.8 -7.95 -19.15 -8.2 Q-18.95 -8.2 -19.1 -8.35 M-23.85 -6.15 L-23.85 4.55 Q-25.3 5.15 -26.8 4.55 L-26.8 -6.15 Q-25.45 -6.7 -23.85 -6.15" fill="none" stroke="#000000" stroke-linecap="square" stroke-linejoin="round" stroke-opacity="0.4" stroke-width="1.0"/>
  </g>
</svg>
