<?xml version="1.0" encoding="UTF-8" standalone="no"?>
<svg xmlns:xlink="http://www.w3.org/1999/xlink" height="115.25px" width="46.95px" xmlns="http://www.w3.org/2000/svg">
  <g transform="matrix(1.0, 0.0, 0.0, 1.0, -114.65, 57.6)">
    <path d="M143.45 -30.4 L143.35 -30.45 143.45 -30.4" fill="#dcddde" fill-rule="evenodd" stroke="none"/>
    <path d="M143.35 -30.45 L143.35 -30.5 143.45 -30.4 143.35 -30.45" fill="#757679" fill-rule="evenodd" stroke="none"/>
    <path d="M139.15 -44.6 L142.1 -31.05 140.3 -31.85 140.05 -30.95 137.65 -41.95 137.6 -42.0 137.6 -41.95 134.8 -29.85 132.65 -29.7 136.15 -44.6 136.25 -44.6 137.05 -44.6 139.15 -44.6 M138.85 -9.7 L138.9 -9.55 153.85 46.9 153.9 47.15 153.75 48.25 Q153.45 48.75 152.9 48.9 L151.8 48.75 Q151.3 48.45 151.15 47.9 L150.9 46.9 136.5 -7.65 136.95 -7.95 137.1 -8.05 138.85 -9.7 M132.05 -6.3 L124.9 36.0 124.65 37.25 124.1 38.1 123.05 38.3 Q122.5 38.25 122.15 37.8 121.8 37.35 121.85 36.8 L122.0 36.0 130.3 -12.75 130.55 -14.2 130.55 -7.1 131.8 -6.4 132.05 -6.3 M137.6 -42.0 L137.05 -44.6 137.6 -42.0" fill="#ffffff" fill-opacity="0.0" fill-rule="evenodd" stroke="none"/>
    <path d="M136.95 -48.35 L136.95 -57.1 138.95 -57.1 138.95 -48.35 136.95 -48.35" fill="#000000" fill-opacity="0.003921569" fill-rule="evenodd" stroke="none"/>
    <path d="M143.45 -30.4 L143.2 -15.85 Q141.35 -12.3 138.85 -9.7 L137.1 -8.05 136.95 -7.95 136.5 -7.65 133.7 -5.85 133.7 -16.85 133.75 -16.85 Q137.1 -19.55 139.6 -23.1 L141.4 -26.1 Q142.75 -28.6 143.35 -30.45 L143.45 -30.4 M161.05 49.05 L159.05 56.35 Q154.3 57.5 149.65 56.95 L145.9 56.2 143.55 49.1 Q143.95 49.7 146.05 50.2 L152.25 50.75 158.5 50.2 Q160.7 49.7 161.05 49.05 M130.85 37.95 L129.1 44.4 120.7 44.95 117.35 44.3 115.25 38.0 Q115.6 38.5 117.45 38.9 L123.05 39.4 128.6 38.9 Q130.55 38.5 130.85 37.95" fill="#000000" fill-opacity="0.2" fill-rule="evenodd" stroke="none"/>
    <path d="M138.95 -48.35 L141.7 -48.35 141.7 -44.6 139.15 -44.6 137.05 -44.6 136.25 -44.6 136.15 -44.6 133.2 -44.6 133.2 -48.35 136.95 -48.35 138.95 -48.35 M153.85 46.9 L158.5 47.45 Q161.1 48.0 161.1 48.8 L161.05 49.05 Q160.7 49.7 158.5 50.2 L152.25 50.75 146.05 50.2 Q143.95 49.7 143.55 49.1 L143.45 48.8 Q143.45 48.0 146.05 47.45 L150.9 46.9 151.15 47.9 Q151.3 48.45 151.8 48.75 L152.9 48.9 Q153.45 48.75 153.75 48.25 L153.9 47.15 153.85 46.9 M124.9 36.0 L128.6 36.45 Q130.9 37.0 130.9 37.7 L130.85 37.95 Q130.55 38.5 128.6 38.9 L123.05 39.4 117.45 38.9 Q115.6 38.5 115.25 38.0 L115.15 37.7 Q115.15 37.0 117.45 36.45 L122.0 36.0 121.85 36.8 Q121.8 37.35 122.15 37.8 122.5 38.25 123.05 38.3 L124.1 38.1 124.65 37.25 124.9 36.0" fill="#000000" fill-opacity="0.09803922" fill-rule="evenodd" stroke="none"/>
    <path d="M142.1 -31.05 L143.35 -30.45 Q142.75 -28.6 141.4 -26.1 L139.6 -23.1 Q137.1 -19.55 133.75 -16.85 L133.7 -16.85 133.7 -5.85 132.05 -6.3 131.8 -6.4 130.55 -7.1 130.55 -14.2 130.3 -12.75 129.95 -12.65 128.2 -11.85 127.1 -22.25 135.5 -22.8 138.25 -27.1 139.75 -30.2 140.05 -30.95 140.3 -31.85 142.1 -31.05 M130.55 -14.2 L130.55 -17.85 Q133.3 -20.05 135.5 -22.8 133.3 -20.05 130.55 -17.85 L130.55 -14.2" fill="#000000" fill-opacity="0.29803923" fill-rule="evenodd" stroke="none"/>
    <path d="M136.95 -48.35 L136.95 -57.1 138.95 -57.1 138.95 -48.35 141.7 -48.35 141.7 -44.6 139.15 -44.6 142.1 -31.05 143.35 -30.45 M143.45 -30.4 L143.2 -15.85 Q141.35 -12.3 138.85 -9.7 L138.9 -9.55 153.85 46.9 158.5 47.45 Q161.1 48.0 161.1 48.8 L161.05 49.05 159.05 56.35 Q154.3 57.5 149.65 56.95 L145.9 56.2 143.55 49.1 143.45 48.8 Q143.45 48.0 146.05 47.45 L150.9 46.9 136.5 -7.65 136.95 -7.95 137.1 -8.05 138.85 -9.7 M132.05 -6.3 L124.9 36.0 128.6 36.45 Q130.9 37.0 130.9 37.7 L130.85 37.95 129.1 44.4 120.7 44.95 117.35 44.3 115.25 38.0 115.15 37.7 Q115.15 37.0 117.45 36.45 L122.0 36.0 130.3 -12.75 129.95 -12.65 128.2 -11.85 127.1 -22.25 135.5 -22.8 138.25 -27.1 139.75 -30.2 140.05 -30.95 137.65 -41.95 M137.6 -41.95 L134.8 -29.85 132.65 -29.7 136.15 -44.6 133.2 -44.6 133.2 -48.35 136.95 -48.35 M136.25 -44.6 L136.15 -44.6 M133.75 -16.85 L133.7 -16.85 M131.8 -6.4 L132.05 -6.3 M130.55 -14.2 L130.3 -12.75 M122.0 36.0 L121.85 36.8 M150.9 46.9 L151.15 47.9 M153.9 47.15 L153.85 46.9" fill="none" stroke="#231f20" stroke-linecap="round" stroke-linejoin="round" stroke-width="1.0"/>
    <path d="M137.65 -41.95 L137.6 -42.0 137.6 -41.95 M136.95 -48.35 L138.95 -48.35 M139.15 -44.6 L137.05 -44.6 137.6 -42.0 M137.05 -44.6 L136.25 -44.6 M130.55 -14.2 L130.55 -7.1 131.8 -6.4 M121.85 36.8 Q121.8 37.35 122.15 37.8 122.5 38.25 123.05 38.3 L124.1 38.1 124.65 37.25 124.9 36.0 M130.85 37.95 Q130.55 38.5 128.6 38.9 L123.05 39.4 117.45 38.9 Q115.6 38.5 115.25 38.0 M151.15 47.9 Q151.3 48.45 151.8 48.75 L152.9 48.9 Q153.45 48.75 153.75 48.25 L153.9 47.15 M161.05 49.05 Q160.7 49.7 158.5 50.2 L152.25 50.75 146.05 50.2 Q143.95 49.7 143.55 49.1" fill="none" stroke="#000000" stroke-linecap="round" stroke-linejoin="round" stroke-opacity="0.4" stroke-width="1.0"/>
    <path d="M136.5 -7.65 L133.7 -5.85 132.05 -6.3" fill="none" stroke="#000000" stroke-linecap="round" stroke-linejoin="round" stroke-width="1.0"/>
    <path d="M140.05 -30.95 L140.3 -31.85 142.1 -31.05 M135.5 -22.8 Q133.3 -20.05 130.55 -17.85 L130.55 -14.2" fill="none" stroke="#000000" stroke-linecap="round" stroke-linejoin="round" stroke-opacity="0.6" stroke-width="1.0"/>
  </g>
</svg>
