<?xml version="1.0" encoding="UTF-8" standalone="no"?>
<svg xmlns:xlink="http://www.w3.org/1999/xlink" height="84.3px" width="154.85px" xmlns="http://www.w3.org/2000/svg">
  <g transform="matrix(1.0, 0.0, 0.0, 1.0, 73.95, 101.5)">
    <path d="M6.55 -32.65 L7.05 -32.2 7.45 -31.8 6.55 -32.65" fill="#e3e3e3" fill-rule="evenodd" stroke="none"/>
    <path d="M-1.5 -52.6 L-1.05 -52.4 -2.25 -52.85 -1.5 -52.6 M1.2 -51.0 L1.7 -50.55 1.75 -50.45 1.2 -51.0" fill="#ffffff" fill-rule="evenodd" stroke="none"/>
    <path d="M-10.2 -18.75 L-9.75 -18.6 -8.65 -18.1 -6.85 -17.2 -6.95 -17.2 -10.2 -18.75 M-34.0 -34.55 L-33.95 -34.15 -34.0 -34.15 -34.0 -34.55" fill="#e6e6e6" fill-rule="evenodd" stroke="none"/>
    <path d="M-1.5 -52.6 Q3.45 -56.25 9.5 -59.9 41.75 -79.35 80.4 -79.05 L75.3 -72.45 Q68.8 -64.45 61.7 -57.25 41.3 -36.55 22.95 -29.2 L21.6 -30.85 18.05 -35.0 24.45 -35.45 Q22.25 -35.15 18.4 -36.6 L15.4 -37.9 15.25 -38.1 Q18.25 -38.15 23.8 -39.8 L25.75 -40.45 23.6 -40.1 13.9 -39.55 10.95 -42.5 15.1 -45.85 21.85 -46.25 Q28.35 -44.3 38.45 -43.95 35.7 -44.2 31.7 -45.5 L27.35 -47.15 Q33.65 -48.55 41.45 -51.2 35.65 -49.75 26.2 -48.85 L17.9 -48.3 Q21.05 -51.5 27.35 -54.85 L33.05 -57.55 Q43.25 -59.1 55.85 -62.75 50.2 -61.25 43.4 -60.85 L37.35 -60.75 Q45.4 -64.35 71.55 -74.45 58.1 -72.5 37.8 -62.65 L20.2 -53.25 31.65 -63.85 Q26.45 -61.3 13.15 -49.65 L12.45 -49.05 8.15 -45.15 6.6 -46.5 7.75 -48.45 11.25 -55.15 7.45 -50.95 5.1 -47.8 1.9 -50.3 -1.05 -52.4 -1.5 -52.6 M1.2 -51.0 L1.75 -50.45 1.7 -50.55 1.2 -51.0 M3.5 -35.0 L6.55 -32.65 7.45 -31.8 8.9 -30.3 -4.7 -28.15 3.5 -35.0 M9.65 -29.55 L10.75 -28.35 4.7 -23.35 -10.85 -19.05 -11.35 -19.2 -11.4 -19.25 -12.75 -19.7 -12.85 -19.8 -13.3 -20.2 -13.35 -20.3 Q-10.4 -23.0 -5.6 -25.0 L-0.7 -26.6 8.05 -26.2 2.3 -28.05 9.65 -29.55 M-30.0 -54.25 L-32.15 -58.9 Q-37.15 -69.4 -40.3 -73.15 L-34.75 -60.15 Q-39.25 -66.6 -45.8 -74.4 -58.95 -89.95 -69.35 -96.45 L-46.15 -72.65 Q-53.55 -75.5 -59.95 -80.4 L-55.55 -76.85 Q-48.8 -71.6 -43.75 -68.4 L-40.05 -64.1 Q-37.25 -60.55 -35.7 -57.55 L-34.65 -55.2 -37.25 -56.5 Q-47.0 -61.4 -53.0 -66.1 L-42.9 -57.65 Q-48.35 -57.55 -52.0 -58.55 L-48.95 -57.45 Q-42.9 -55.4 -38.85 -54.9 L-38.7 -54.9 -33.25 -52.1 -32.8 -51.25 -36.75 -47.35 Q-39.4 -48.6 -41.65 -49.9 L-44.05 -51.45 -41.1 -48.95 -37.65 -46.5 -38.75 -45.5 Q-41.55 -45.55 -43.4 -46.15 L-44.75 -46.8 -43.5 -45.95 Q-41.8 -44.85 -40.15 -44.3 L-43.75 -41.45 -48.25 -38.75 -49.1 -39.6 -52.4 -45.45 Q-57.1 -54.55 -60.85 -65.75 -63.55 -73.8 -64.45 -78.55 -65.4 -83.45 -69.55 -92.7 L-73.45 -101.0 Q-47.85 -91.55 -30.55 -70.4 -23.75 -62.05 -20.1 -54.9 L-20.9 -55.35 -20.95 -55.3 -29.35 -54.9 -29.35 -54.95 -30.0 -54.25 M-33.95 -34.15 L-33.35 -28.5 -32.55 -24.3 -31.95 -21.85 Q-37.7 -24.7 -43.05 -31.05 L-40.15 -32.35 -34.35 -34.95 -34.0 -34.55 -34.0 -34.15 -33.95 -34.15" fill="#ffffff" fill-opacity="0.0" fill-rule="evenodd" stroke="none"/>
    <path d="M5.1 -47.8 L7.45 -50.95 11.25 -55.15 7.75 -48.45 6.6 -46.5 5.1 -47.8 M8.15 -45.15 L12.45 -49.05 13.15 -49.65 Q26.45 -61.3 31.65 -63.85 L20.2 -53.25 37.8 -62.65 Q58.1 -72.5 71.55 -74.45 45.4 -64.35 37.35 -60.75 L43.4 -60.85 Q50.2 -61.25 55.85 -62.75 43.25 -59.1 33.05 -57.55 L27.35 -54.85 Q21.05 -51.5 17.9 -48.3 L26.2 -48.85 Q35.65 -49.75 41.45 -51.2 33.65 -48.55 27.35 -47.15 L31.7 -45.5 Q35.7 -44.2 38.45 -43.95 28.35 -44.3 21.85 -46.25 L15.1 -45.85 10.95 -42.5 8.15 -45.15 M13.9 -39.55 L23.6 -40.1 25.75 -40.45 23.8 -39.8 Q18.25 -38.15 15.25 -38.1 L13.9 -39.55 M15.4 -37.9 L18.4 -36.6 Q22.25 -35.15 24.45 -35.45 L18.05 -35.0 15.4 -37.9 M8.9 -30.3 L9.65 -29.55 2.3 -28.05 8.05 -26.2 -0.7 -26.6 -5.6 -25.0 Q-10.4 -23.0 -13.35 -20.3 -15.45 -22.7 -13.65 -26.4 -12.6 -28.45 -8.0 -31.75 -2.9 -35.45 -0.75 -38.35 L3.5 -35.0 -4.7 -28.15 8.9 -30.3 M-32.8 -51.25 L-33.25 -52.1 -38.7 -54.9 -38.85 -54.9 Q-42.9 -55.4 -48.95 -57.45 L-52.0 -58.55 Q-48.35 -57.55 -42.9 -57.65 L-53.0 -66.1 Q-47.0 -61.4 -37.25 -56.5 L-34.65 -55.2 -35.7 -57.55 Q-37.25 -60.55 -40.05 -64.1 L-43.75 -68.4 Q-48.8 -71.6 -55.55 -76.85 L-59.95 -80.4 Q-53.55 -75.5 -46.15 -72.65 L-69.35 -96.45 Q-58.95 -89.95 -45.8 -74.4 -39.25 -66.6 -34.75 -60.15 L-40.3 -73.15 Q-37.15 -69.4 -32.15 -58.9 L-30.0 -54.25 -32.8 -51.25 M-40.15 -44.3 Q-41.8 -44.85 -43.5 -45.95 L-44.75 -46.8 -43.4 -46.15 Q-41.55 -45.55 -38.75 -45.5 L-40.15 -44.3 M-37.65 -46.5 L-41.1 -48.95 -44.05 -51.45 -41.65 -49.9 Q-39.4 -48.6 -36.75 -47.35 L-37.65 -46.5" fill="#000000" fill-opacity="0.14901961" fill-rule="evenodd" stroke="none"/>
    <path d="M22.95 -29.2 Q41.3 -36.55 61.7 -57.25 68.8 -64.45 75.3 -72.45 L80.4 -79.05 Q41.75 -79.35 9.5 -59.9 3.45 -56.25 -1.5 -52.6 L-1.05 -52.4 M4.7 -23.35 L-10.85 -19.05 -10.2 -18.75 M-11.35 -19.2 L-10.85 -19.05 M-20.1 -54.9 Q-23.75 -62.05 -30.55 -70.4 -47.85 -91.55 -73.45 -101.0 L-69.55 -92.7 Q-65.4 -83.45 -64.45 -78.55 -63.55 -73.8 -60.85 -65.75 -57.1 -54.55 -52.4 -45.45 L-49.1 -39.6 M-2.25 -52.85 L-6.2 -53.1 M-1.5 -52.6 L-2.25 -52.85 M-31.95 -21.85 Q-37.7 -24.7 -43.05 -31.05" fill="none" stroke="#000000" stroke-linecap="round" stroke-linejoin="round" stroke-width="1.0"/>
  </g>
</svg>
