<?xml version="1.0" encoding="UTF-8" standalone="no"?>
<svg xmlns:xlink="http://www.w3.org/1999/xlink" height="43.25px" width="62.75px" xmlns="http://www.w3.org/2000/svg">
  <g transform="matrix(1.0, 0.0, 0.0, 1.0, 30.55, 110.7)">
    <path d="M-8.65 -110.2 Q-10.1 -105.85 -7.1 -102.7 -5.6 -101.1 -3.8 -100.4 3.35 -101.5 11.05 -95.05 14.3 -92.35 16.0 -89.45 L18.85 -90.45 Q23.05 -91.3 25.05 -88.6 27.0 -85.95 26.9 -83.0 L26.35 -77.6 Q26.3 -74.5 28.8 -73.95 30.3 -73.65 31.7 -74.5 L30.8 -73.65 28.9 -73.0 28.75 -73.0 27.3 -73.55 Q26.45 -73.95 25.8 -74.45 24.45 -75.55 23.8 -77.15 24.6 -76.25 25.4 -75.9 23.9 -78.75 24.05 -82.4 24.2 -84.7 22.6 -86.5 L21.0 -87.9 Q23.4 -87.45 24.4 -85.15 23.55 -88.9 20.2 -89.4 L17.2 -89.15 17.05 -89.15 17.05 -89.05 16.25 -89.05 16.05 -89.4 16.6 -88.3 17.2 -87.05 Q17.8 -85.4 17.9 -82.95 L17.9 -82.3 17.9 -82.2 17.9 -81.95 17.9 -81.85 17.85 -81.6 17.85 -81.45 17.8 -81.2 17.8 -81.1 17.7 -80.55 17.65 -80.3 Q17.1 -77.5 16.15 -75.25 L15.5 -73.85 16.55 -76.4 Q14.75 -74.65 13.5 -74.95 L12.55 -75.25 Q10.9 -76.1 10.65 -78.7 L10.75 -81.85 10.7 -81.6 Q10.1 -78.5 8.05 -79.05 8.0 -81.65 6.15 -84.9 L4.35 -87.6 Q6.05 -84.5 6.3 -81.65 4.9 -84.85 0.0 -89.05 L3.25 -84.95 Q5.3 -82.65 5.45 -79.25 5.55 -76.65 4.55 -74.65 L5.35 -75.95 Q4.4 -73.95 2.3 -72.0 L2.0 -71.95 1.95 -71.95 1.9 -71.95 1.85 -71.95 1.75 -71.95 0.4 -72.5 Q1.55 -72.2 2.5 -73.1 L2.75 -73.3 2.75 -73.35 2.9 -73.5 3.25 -74.05 3.55 -74.65 3.8 -75.45 3.85 -75.75 3.9 -75.9 3.9 -76.05 3.95 -76.15 3.95 -76.3 3.95 -76.35 3.95 -76.4 Q4.7 -81.95 0.7 -84.6 -2.7 -86.8 -4.4 -89.85 L-5.4 -92.45 -5.45 -92.4 -5.0 -96.75 -5.25 -96.4 Q-8.3 -92.6 -7.75 -89.15 -9.05 -93.05 -7.6 -96.95 L-7.35 -97.65 -8.6 -95.9 -9.05 -92.55 Q-8.95 -89.4 -6.95 -86.85 -6.35 -85.7 -5.35 -84.95 L-3.5 -84.2 -2.55 -83.65 Q-8.8 -84.7 -10.95 -89.6 -11.65 -91.1 -11.85 -92.85 L-11.85 -93.45 -11.85 -93.05 -11.0 -98.35 Q-14.55 -99.65 -19.0 -98.15 L-21.05 -97.25 Q-19.25 -99.65 -15.45 -100.45 -17.3 -100.3 -19.3 -99.4 -22.8 -97.85 -23.6 -94.7 -24.05 -93.8 -24.1 -92.7 -24.35 -87.2 -27.85 -84.95 L-27.7 -84.65 Q-26.05 -85.3 -25.2 -86.6 -26.35 -84.65 -28.8 -84.15 L-28.9 -84.15 -29.25 -84.1 -29.35 -84.1 -29.75 -84.05 -29.85 -84.05 -30.05 -84.05 Q-25.0 -86.0 -26.4 -94.75 -24.25 -102.05 -16.55 -102.65 -12.65 -102.9 -9.25 -101.75 -10.8 -104.45 -9.85 -107.6 L-8.65 -110.2" fill="#ffffff" fill-opacity="0.0" fill-rule="evenodd" stroke="none"/>
    <path d="M28.9 -73.0 L29.0 -72.95 28.0 -72.8 27.9 -72.8 26.9 -72.85 23.3 -74.45 23.95 -72.95 Q24.95 -71.3 27.0 -70.65 24.1 -69.95 21.2 -70.75 17.5 -71.8 16.15 -75.25 17.1 -77.5 17.65 -80.3 L17.7 -80.55 17.8 -81.1 17.8 -81.2 17.85 -81.45 17.85 -81.6 17.9 -81.85 17.9 -81.95 17.9 -82.2 17.9 -82.3 17.9 -82.95 Q17.8 -85.4 17.2 -87.05 L16.6 -88.3 16.25 -89.05 17.05 -89.05 17.05 -89.15 17.2 -89.15 20.2 -89.4 Q23.55 -88.9 24.4 -85.15 23.4 -87.45 21.0 -87.9 L22.6 -86.5 Q24.2 -84.7 24.05 -82.4 23.9 -78.75 25.4 -75.9 24.6 -76.25 23.8 -77.15 24.45 -75.55 25.8 -74.45 26.45 -73.95 27.3 -73.55 L28.75 -73.0 28.9 -73.0 26.9 -72.85 28.9 -73.0 M15.5 -73.85 L15.05 -73.1 13.5 -71.0 12.7 -70.2 12.35 -69.9 11.9 -69.55 Q10.35 -68.3 8.95 -68.0 L8.7 -67.95 8.75 -70.45 6.0 -70.75 Q6.95 -72.3 7.0 -74.15 L6.8 -75.7 4.7 -73.1 Q3.9 -72.5 3.1 -72.2 L2.6 -72.05 2.3 -72.0 Q4.4 -73.95 5.35 -75.95 L4.55 -74.65 Q5.55 -76.65 5.45 -79.25 5.3 -82.65 3.25 -84.95 L0.0 -89.05 Q4.9 -84.85 6.3 -81.65 6.05 -84.5 4.35 -87.6 L6.15 -84.9 Q8.0 -81.65 8.05 -79.05 10.1 -78.5 10.7 -81.6 L10.75 -81.85 10.65 -78.7 Q10.9 -76.1 12.55 -75.25 L13.5 -74.95 Q14.75 -74.65 16.55 -76.4 L15.5 -73.85 M-5.45 -92.4 L-6.35 -91.0 Q-8.0 -87.75 -4.35 -84.85 L-3.5 -84.2 -5.35 -84.95 Q-6.35 -85.7 -6.95 -86.85 -8.95 -89.4 -9.05 -92.55 L-8.6 -95.9 -7.35 -97.65 -7.6 -96.95 Q-9.05 -93.05 -7.75 -89.15 -8.3 -92.6 -5.25 -96.4 L-5.0 -96.75 -5.45 -92.4 M-11.85 -93.45 L-11.9 -94.3 Q-18.5 -92.05 -21.1 -86.25 L-21.7 -84.6 Q-22.35 -82.65 -22.35 -80.95 L-22.45 -81.1 -22.55 -81.2 Q-24.1 -83.15 -24.55 -85.45 L-24.75 -87.5 -25.2 -86.6 Q-26.05 -85.3 -27.7 -84.65 L-27.85 -84.95 Q-24.35 -87.2 -24.1 -92.7 -24.05 -93.8 -23.6 -94.7 -22.8 -97.85 -19.3 -99.4 -17.3 -100.3 -15.45 -100.45 -19.25 -99.65 -21.05 -97.25 L-19.0 -98.15 Q-14.55 -99.65 -11.0 -98.35 L-11.85 -93.05 -11.85 -93.45" fill="#000000" fill-opacity="0.2" fill-rule="evenodd" stroke="none"/>
    <path d="M1.15 -79.7 Q1.75 -78.35 0.35 -77.45 -0.35 -80.9 -4.2 -81.2 L-7.85 -80.85 Q-4.65 -82.45 -1.9 -81.85 0.4 -81.35 1.15 -79.7 M-18.95 -88.3 L-17.35 -89.1 Q-15.0 -88.2 -15.05 -84.45 -16.3 -88.45 -18.4 -87.5 L-20.25 -85.8 Q-20.45 -87.2 -18.95 -88.3" fill="#000000" fill-opacity="0.7019608" fill-rule="evenodd" stroke="none"/>
    <path d="M-8.65 -110.2 Q-10.1 -105.85 -7.1 -102.7 -5.6 -101.1 -3.8 -100.4 3.35 -101.5 11.05 -95.05 14.3 -92.35 16.0 -89.45 L18.85 -90.45 Q23.05 -91.3 25.05 -88.6 27.0 -85.95 26.9 -83.0 L26.35 -77.6 Q26.3 -74.5 28.8 -73.95 30.3 -73.65 31.7 -74.5 L30.8 -73.65 28.9 -73.0 26.9 -72.85 23.3 -74.45 23.95 -72.95 Q24.95 -71.3 27.0 -70.65 24.1 -69.95 21.2 -70.75 17.5 -71.8 16.15 -75.25 L15.5 -73.85 15.05 -73.1 13.5 -71.0 M28.0 -72.8 L27.9 -72.8 26.9 -72.85 M-22.35 -80.95 L-22.45 -81.1 -22.55 -81.2 Q-24.1 -83.15 -24.55 -85.45 L-24.75 -87.5 -25.2 -86.6 Q-26.35 -84.65 -28.8 -84.15 L-28.9 -84.15 -29.25 -84.1 -29.35 -84.1 -29.75 -84.05 -29.85 -84.05 -30.05 -84.05 Q-25.0 -86.0 -26.4 -94.75 -24.25 -102.05 -16.55 -102.65 -12.65 -102.9 -9.25 -101.75" fill="none" stroke="#000000" stroke-linecap="round" stroke-linejoin="round" stroke-width="1.0"/>
    <path d="M13.5 -71.0 L12.7 -70.2 12.35 -69.9 11.9 -69.55 Q10.35 -68.3 8.95 -68.0 L8.7 -67.95 8.75 -70.45 6.0 -70.75 Q6.95 -72.3 7.0 -74.15 L6.8 -75.7 4.7 -73.1 Q3.9 -72.5 3.1 -72.2 L2.6 -72.05 2.3 -72.0 2.0 -71.95 1.95 -71.95 1.9 -71.95 1.85 -71.95 1.75 -71.95 0.4 -72.5 Q1.55 -72.2 2.5 -73.1 L2.75 -73.3 2.75 -73.35 2.9 -73.5 3.25 -74.05 3.55 -74.65 3.8 -75.45 3.85 -75.75 3.9 -75.9 3.9 -76.05 3.95 -76.15 3.95 -76.3 3.95 -76.35 3.95 -76.4 Q4.7 -81.95 0.7 -84.6 -2.7 -86.8 -4.4 -89.85 L-5.4 -92.45 -5.45 -92.4 -6.35 -91.0 Q-8.0 -87.75 -4.35 -84.85 L-3.5 -84.2 -2.55 -83.65 Q-8.8 -84.7 -10.95 -89.6 -11.65 -91.1 -11.85 -92.85 L-11.85 -93.45 -11.9 -94.3 Q-18.5 -92.05 -21.1 -86.25 L-21.7 -84.6 Q-22.35 -82.65 -22.35 -80.95 M16.6 -88.3 L16.05 -89.4 16.25 -89.05 16.6 -88.3 17.2 -87.05 Q17.8 -85.4 17.9 -82.95 L17.9 -82.3 17.9 -82.2 17.9 -81.95 17.9 -81.85 17.85 -81.6 17.85 -81.45 17.8 -81.2 17.8 -81.1 17.7 -80.55 17.65 -80.3 Q17.1 -77.5 16.15 -75.25" fill="none" stroke="#000000" stroke-linecap="round" stroke-linejoin="round" stroke-opacity="0.6" stroke-width="1.0"/>
    <path d="M-9.25 -101.75 Q-10.8 -104.45 -9.85 -107.6 L-8.65 -110.2 Z" fill="none" stroke="#000000" stroke-linecap="round" stroke-linejoin="round" stroke-opacity="0.4" stroke-width="1.0"/>
  </g>
</svg>
