<?xml version="1.0" encoding="UTF-8" standalone="no"?>
<svg xmlns:xlink="http://www.w3.org/1999/xlink" height="133.9px" width="146.8px" xmlns="http://www.w3.org/2000/svg">
  <g transform="matrix(1.0, 0.0, 0.0, 1.0, 73.4, 66.95)">
    <path d="M36.05 -60.55 Q44.9 -56.3 47.85 -46.45 50.75 -36.6 46.05 -27.05 43.75 -22.4 40.4 -19.2 L46.1 -19.6 Q57.3 -19.5 65.15 -12.05 73.0 -4.6 72.9 5.8 72.75 16.2 64.7 23.5 56.7 30.75 45.4 30.65 37.2 30.5 30.8 26.5 32.9 29.75 34.1 33.85 37.15 44.15 32.65 53.45 28.15 62.65 18.75 65.45 9.4 68.3 0.6 63.1 -8.15 57.8 -11.2 47.5 -12.1 44.4 -12.3 41.35 -14.65 45.75 -18.85 49.4 -26.85 56.5 -37.05 56.55 -47.2 56.6 -53.55 49.7 -60.0 42.75 -58.8 32.95 -57.75 23.8 -50.8 17.15 -56.0 16.65 -60.8 14.05 -69.8 9.1 -72.2 -0.5 -74.6 -10.05 -69.0 -18.65 -63.35 -27.25 -53.0 -29.85 -45.9 -31.65 -39.5 -29.85 -40.6 -32.25 -41.25 -34.95 -43.85 -45.3 -38.9 -54.35 -33.95 -63.35 -24.35 -65.7 -14.8 -68.15 -6.2 -62.5 1.15 -57.7 4.1 -49.45 8.8 -57.85 17.65 -61.25 27.2 -64.95 36.05 -60.55 M20.8 -21.45 Q12.5 -29.8 0.7 -29.8 -11.05 -29.8 -19.4 -21.45 -27.45 -13.4 -27.7 -2.05 L-27.7 -1.35 Q-27.7 10.4 -19.4 18.75 -11.05 27.05 0.7 27.05 12.5 27.05 20.8 18.75 29.15 10.4 29.15 -1.35 L29.15 -2.05 Q28.9 -13.4 20.8 -21.45" fill="#ffffff" fill-opacity="0.0" fill-rule="evenodd" stroke="none"/>
    <path d="M36.05 -60.55 Q44.9 -56.3 47.85 -46.45 50.75 -36.6 46.05 -27.05 43.75 -22.4 40.4 -19.2 L46.1 -19.6 Q57.3 -19.5 65.15 -12.05 73.0 -4.6 72.9 5.8 72.75 16.2 64.7 23.5 56.7 30.75 45.4 30.65 37.2 30.5 30.8 26.5 32.9 29.75 34.1 33.85 37.15 44.15 32.65 53.45 28.15 62.65 18.75 65.45 9.4 68.3 0.6 63.1 -8.15 57.8 -11.2 47.5 -12.1 44.4 -12.3 41.35 -14.65 45.75 -18.85 49.4 -26.85 56.5 -37.05 56.55 -47.2 56.6 -53.55 49.7 -60.0 42.75 -58.8 32.95 -57.75 23.8 -50.8 17.15 -56.0 16.65 -60.8 14.05 -69.8 9.1 -72.2 -0.5 -74.6 -10.05 -69.0 -18.65 -63.35 -27.25 -53.0 -29.85 -45.9 -31.65 -39.5 -29.85 -40.6 -32.25 -41.25 -34.95 -43.85 -45.3 -38.9 -54.35 -33.95 -63.35 -24.35 -65.7 -14.8 -68.15 -6.2 -62.5 1.15 -57.7 4.1 -49.45 8.8 -57.85 17.65 -61.25 27.2 -64.95 36.05 -60.55" fill="none" stroke="#000000" stroke-linecap="round" stroke-linejoin="round" stroke-width="1.0"/>
    <path d="M20.8 -21.45 Q28.9 -13.4 29.15 -2.05 L29.15 -1.35 Q29.15 10.4 20.8 18.75 12.5 27.05 0.7 27.05 -11.05 27.05 -19.4 18.75 -27.7 10.4 -27.7 -1.35 L-27.7 -2.05 Q-27.45 -13.4 -19.4 -21.45 -11.05 -29.8 0.7 -29.8 12.5 -29.8 20.8 -21.45" fill="none" stroke="#000000" stroke-linecap="round" stroke-linejoin="round" stroke-opacity="0.6" stroke-width="1.0"/>
  </g>
</svg>
