<?xml version="1.0" encoding="UTF-8" standalone="no"?>
<svg xmlns:xlink="http://www.w3.org/1999/xlink" height="183.5px" width="317.75px" xmlns="http://www.w3.org/2000/svg">
  <g transform="matrix(1.0, 0.0, 0.0, 1.0, 82.25, 45.6)">
    <path d="M73.8 -7.3 Q73.8 12.05 76.4 20.4 79.4 29.85 80.65 32.9 L87.85 35.6 Q98.75 39.7 101.7 41.45 111.25 46.85 113.2 46.95 115.1 47.05 116.9 45.85 119.15 44.5 123.4 44.5 127.8 44.35 135.3 49.4 143.45 54.85 145.6 55.0 149.3 55.6 153.7 55.2 L163.05 53.9 173.9 54.35 183.15 55.65 Q185.7 55.75 189.55 54.1 191.95 52.95 195.3 51.5 199.2 55.3 202.3 59.05 L205.6 63.45 Q209.4 68.8 211.65 74.25 L211.9 74.65 212.05 75.0 204.8 75.3 Q196.65 75.65 193.85 76.75 190.05 78.2 184.55 79.15 178.35 80.25 174.0 80.0 170.75 79.7 167.35 75.4 163.8 70.95 160.6 70.25 L153.9 69.4 148.7 68.75 Q147.25 68.35 143.7 66.8 141.25 65.65 138.15 65.3 L132.3 65.5 124.35 65.2 Q120.8 64.8 114.75 61.05 112.6 59.75 110.5 58.75 L90.1 53.3 90.8 58.0 93.75 63.8 97.05 69.9 Q104.7 84.3 105.4 90.65 106.35 99.95 103.75 120.0 L102.9 119.45 Q99.55 117.25 98.45 109.8 97.35 102.7 93.45 100.65 90.6 99.0 87.05 98.9 85.5 86.3 80.65 75.35 L70.8 53.65 68.75 46.95 Q60.1 44.3 58.35 44.4 55.5 44.55 48.75 47.7 42.15 51.0 37.7 51.15 33.35 51.3 27.1 48.75 20.9 46.35 18.1 46.45 15.1 46.65 8.75 48.7 1.8 51.2 -1.45 51.7 L-10.05 52.15 -20.85 53.2 Q-25.2 53.85 -32.6 55.9 -37.05 57.05 -59.4 60.85 L-61.7 42.7 -62.4 37.8 Q-47.9 35.85 -45.5 34.6 -41.9 32.8 -39.7 32.35 L-27.4 32.15 Q-16.1 32.05 -10.95 31.75 -5.4 31.3 -1.4 30.0 2.8 28.4 4.25 28.25 6.6 27.95 13.3 28.15 L24.65 28.2 36.7 26.85 41.85 26.15 41.95 26.15 42.1 26.1 42.35 26.15 62.4 27.05 56.45 4.85 49.3 -21.3 49.4 -21.2 Q54.1 -17.4 62.0 -12.75 69.25 -8.5 73.8 -7.3 M203.8 122.9 Q201.35 122.8 196.85 120.1 192.8 117.6 189.05 114.1 186.1 111.35 171.25 105.85 L156.85 100.9 Q150.0 97.15 99.8 61.4 L118.45 67.65 Q127.1 69.5 131.2 72.05 159.6 90.75 175.85 93.6 181.5 94.65 187.25 101.2 193.25 108.45 195.2 109.05 196.25 109.6 203.0 110.4 207.8 111.05 212.85 114.3 218.75 118.25 230.7 125.2 L235.5 136.35 230.0 136.65 223.95 137.55 218.95 131.65 Q216.45 128.6 211.5 125.75 206.55 123.0 203.8 122.9 M133.0 19.85 Q126.65 23.65 119.35 26.65 111.5 29.7 105.85 30.35 101.8 30.9 96.0 33.7 L85.3 29.4 86.65 28.45 Q89.65 26.45 102.55 23.6 115.6 20.75 119.9 18.2 L144.25 3.55 147.2 4.4 Q149.15 5.2 150.9 6.15 L152.15 8.65 153.1 10.15 Q140.3 15.25 133.0 19.85 M55.05 21.9 L34.05 20.95 34.05 20.85 Q28.1 17.05 25.5 15.95 17.4 12.25 -3.8 0.55 -24.0 -10.75 -30.45 -15.0 -37.85 -19.9 -80.85 -37.0 L-82.25 -40.4 -77.15 -41.6 Q-74.1 -44.65 -69.15 -45.45 -66.55 -45.75 -64.15 -45.4 -41.8 -36.4 -32.55 -31.75 -26.6 -28.7 -14.65 -18.7 -1.85 -8.0 4.9 -4.05 18.7 4.0 42.45 12.6 46.8 16.15 55.05 21.9 M3.3 92.8 Q-8.0 99.4 -13.2 105.0 -18.9 111.0 -28.2 125.35 L-35.2 129.55 Q-45.8 136.05 -48.35 137.2 L-53.85 137.9 -54.35 123.05 Q-31.5 105.85 -21.0 98.45 -14.9 94.1 4.8 84.5 25.3 74.45 28.0 72.65 31.35 70.45 49.05 57.0 L66.55 56.15 64.8 57.2 Q55.0 63.55 52.0 66.7 47.4 71.45 38.15 76.6 29.9 81.1 21.65 83.95 13.65 86.65 3.3 92.8" fill="#ffffff" fill-opacity="0.0" fill-rule="evenodd" stroke="none"/>
  </g>
</svg>
