<?xml version="1.0" encoding="UTF-8" standalone="no"?>
<svg xmlns:xlink="http://www.w3.org/1999/xlink" height="16.5px" width="23.4px" xmlns="http://www.w3.org/2000/svg">
  <g transform="matrix(1.0, 0.0, 0.0, 1.0, 11.7, 8.25)">
    <path d="M-4.55 -7.55 Q3.65 -8.3 11.2 -6.5 L11.2 5.8 Q7.9 6.95 3.45 7.45 -1.45 8.05 -5.35 7.35 -8.55 6.75 -11.1 5.3 L-11.2 -6.5 -9.4 -6.9 -4.55 -7.55 M-5.35 0.0 L10.95 0.0 -5.35 0.0 -5.35 7.35 -5.35 0.0 -5.35 -7.2 -5.35 0.0" fill="#000000" fill-opacity="0.003921569" fill-rule="evenodd" stroke="none"/>
    <path d="M-4.55 -7.55 Q3.65 -8.3 11.2 -6.5 L11.2 5.8 Q7.9 6.95 3.45 7.45 -1.45 8.05 -5.35 7.35" fill="none" stroke="#000000" stroke-linecap="butt" stroke-linejoin="miter-clip" stroke-miterlimit="4.0" stroke-width="1.0"/>
    <path d="M-5.35 7.35 Q-8.55 6.75 -11.1 5.3 L-11.2 -6.5 -9.4 -6.9 -4.55 -7.55" fill="none" stroke="#000000" stroke-linecap="round" stroke-linejoin="miter-clip" stroke-miterlimit="4.0" stroke-width="1.0"/>
    <path d="M-5.35 0.0 L-5.35 7.35" fill="none" stroke="#000000" stroke-linecap="round" stroke-linejoin="miter-clip" stroke-miterlimit="4.0" stroke-opacity="0.4" stroke-width="1.0"/>
    <path d="M-5.35 -7.2 L-5.35 0.0" fill="none" stroke="#000000" stroke-linecap="butt" stroke-linejoin="miter-clip" stroke-miterlimit="4.0" stroke-opacity="0.4" stroke-width="1.0"/>
    <path d="M10.95 0.0 L-5.35 0.0" fill="none" stroke="#000000" stroke-linecap="round" stroke-linejoin="miter-clip" stroke-miterlimit="4.0" stroke-opacity="0.4" stroke-width="1.0"/>
    <path d="M11.1 -0.1 L-5.25 -0.1 M-5.5 -7.3 L-5.5 7.15" fill="none" stroke="#ffffff" stroke-linecap="butt" stroke-linejoin="miter-clip" stroke-miterlimit="4.0" stroke-width="1.0"/>
  </g>
</svg>
