<?xml version="1.0" encoding="UTF-8" standalone="no"?>
<svg xmlns:xlink="http://www.w3.org/1999/xlink" height="28.4px" width="126.55px" xmlns="http://www.w3.org/2000/svg">
  <g transform="matrix(1.0, 0.0, 0.0, 1.0, 51.3, 76.65)">
    <path d="M-50.8 -66.15 L-50.8 -76.15 74.75 -76.15 74.75 -66.15 -50.8 -66.15 M8.95 -52.5 Q8.95 -53.85 9.8 -54.85 L10.05 -55.15 Q11.15 -56.2 12.65 -56.2 14.25 -56.2 15.3 -55.15 16.4 -54.0 16.4 -52.5 16.4 -51.2 15.65 -50.2 L15.3 -49.8 Q14.25 -48.75 12.65 -48.75 11.15 -48.75 10.05 -49.8 8.95 -50.95 8.95 -52.5" fill="#ffffff" fill-opacity="0.0" fill-rule="evenodd" stroke="none"/>
    <path d="M8.95 -52.5 Q8.95 -53.85 9.8 -54.85 L10.05 -55.15 Q11.15 -56.2 12.65 -56.2 14.25 -56.2 15.3 -55.15 16.4 -54.0 16.4 -52.5 16.4 -51.2 15.65 -50.2 L15.3 -49.8 Q14.25 -48.75 12.65 -48.75 11.15 -48.75 10.05 -49.8 8.95 -50.95 8.95 -52.5" fill="none" stroke="#0e0e0e" stroke-linecap="round" stroke-linejoin="round" stroke-opacity="0.6" stroke-width="1.0"/>
    <path d="M-50.8 -66.15 L-50.8 -76.15 74.75 -76.15 74.75 -66.15" fill="none" stroke="#000000" stroke-linecap="round" stroke-linejoin="round" stroke-width="1.0"/>
  </g>
</svg>
