<?xml version="1.0" encoding="UTF-8" standalone="no"?>
<svg xmlns:xlink="http://www.w3.org/1999/xlink" height="111.75px" width="283.15px" xmlns="http://www.w3.org/2000/svg">
  <g transform="matrix(1.0, 0.0, 0.0, 1.0, 142.0, 1.9)">
    <path d="M23.1 66.3 L17.7 65.75 48.2 66.15 23.1 66.3" fill="#ffffff" fill-rule="evenodd" stroke="none"/>
    <path d="M-121.1 91.8 L-121.1 66.3 -121.1 30.6 -121.1 0.0 111.2 2.85 112.3 30.6 6.2 30.8 112.3 40.25 112.3 66.3 48.2 66.15 17.7 65.75 23.1 66.3 111.75 75.35 111.75 91.8 -121.1 91.8 M6.2 30.8 L-121.1 30.6 6.2 30.8 M-121.1 66.3 L23.1 66.3 -121.1 66.3" fill="#ffffff" fill-opacity="0.0" fill-rule="evenodd" stroke="none"/>
    <path d="M-29.3 -1.0 L-29.25 -1.4 -29.3 -1.0 M-121.1 -1.4 L-29.25 -1.4 120.25 -1.4 120.25 30.6 120.25 66.3 120.25 91.8 111.75 91.8 111.75 75.35 23.1 66.3 48.2 66.15 112.3 66.3 112.3 40.25 6.2 30.8 112.3 30.6 120.25 30.6 112.3 30.6 111.2 2.85 -121.1 0.0 -121.1 -1.4 M120.25 66.3 L112.3 66.3 120.25 66.3" fill="#000000" fill-opacity="0.101960786" fill-rule="evenodd" stroke="none"/>
    <path d="M120.65 109.35 L-141.5 109.35 -141.5 91.8 120.25 98.85 120.65 109.35" fill="#000000" fill-opacity="0.050980393" fill-rule="evenodd" stroke="none"/>
    <path d="M120.25 91.8 L140.65 91.8 140.65 109.35 120.65 109.35 120.25 98.85 -141.5 91.8 -121.1 91.8 111.75 91.8 120.25 91.8" fill="#000000" fill-opacity="0.15294118" fill-rule="evenodd" stroke="none"/>
    <path d="M-29.25 -1.4 L-29.3 -1.0 M120.25 -1.4 L120.25 30.6 120.25 66.3 120.25 91.8 140.65 91.8 140.65 109.35 120.65 109.35 -141.5 109.35 -141.5 91.8 -121.1 91.8 -121.1 66.3 -121.1 30.6 -121.1 0.0 -121.1 -1.4" fill="none" stroke="#000000" stroke-linecap="round" stroke-linejoin="round" stroke-width="1.0"/>
    <path d="M111.75 91.8 L120.25 91.8 M111.75 91.8 L-121.1 91.8" fill="none" stroke="#000000" stroke-linecap="round" stroke-linejoin="round" stroke-opacity="0.6" stroke-width="1.0"/>
    <path d="M112.3 30.6 L120.25 30.6 M112.3 30.6 L6.2 30.8 -121.1 30.6 M112.3 66.3 L120.25 66.3 M23.1 66.3 L48.2 66.15 112.3 66.3 M23.1 66.3 L-121.1 66.3" fill="none" stroke="#000000" stroke-linecap="round" stroke-linejoin="round" stroke-opacity="0.4" stroke-width="1.0"/>
  </g>
</svg>
