<?xml version="1.0" encoding="UTF-8" standalone="no"?>
<svg xmlns:xlink="http://www.w3.org/1999/xlink" height="52.5px" width="149.95px" xmlns="http://www.w3.org/2000/svg">
  <g transform="matrix(1.0, 0.0, 0.0, 1.0, 75.65, 38.35)">
    <path d="M5.25 -2.6 L5.2 -4.35 Q5.2 -6.85 5.6 -9.2 6.95 -17.9 13.55 -24.5 21.9 -32.85 33.7 -32.85 45.5 -32.85 53.85 -24.5 62.2 -16.15 62.2 -4.35 L62.15 -2.15 61.85 0.35 Q61.25 4.2 59.65 7.65 L50.9 7.65 Q50.4 4.55 48.15 2.25 50.4 4.55 50.9 7.65 L59.65 7.65 Q58.15 10.85 55.85 13.65 L51.0 13.65 51.0 9.3 50.9 7.65 44.0 7.65 50.9 7.65 51.0 9.3 51.0 13.65 18.25 13.65 11.6 13.65 Q9.25 10.85 7.75 7.65 5.55 2.9 5.25 -2.6 M20.0 3.65 Q18.7 5.45 18.4 7.65 L7.75 7.65 18.4 7.65 Q18.7 5.45 20.0 3.65 21.0 5.35 22.5 6.85 L23.35 7.65 Q27.75 11.5 33.7 11.5 39.65 11.5 44.0 7.65 L44.85 6.85 Q46.95 4.75 48.15 2.25 49.5 -0.8 49.5 -4.35 49.5 -10.9 44.85 -15.55 40.25 -20.15 33.7 -20.15 27.15 -20.15 22.5 -15.55 17.85 -10.9 17.85 -4.35 17.85 0.1 20.0 3.65 M18.25 13.65 L18.25 9.3 Q18.25 8.45 18.4 7.65 L23.35 7.65 18.4 7.65 Q18.25 8.45 18.25 9.3 L18.25 13.65 M-14.7 7.65 Q-16.2 10.85 -18.5 13.65 L-24.85 13.65 -57.6 13.65 -62.75 13.65 Q-65.05 10.9 -66.5 7.85 L-66.55 7.7 -57.45 7.65 Q-57.05 4.75 -54.95 2.5 -57.05 4.75 -57.45 7.65 L-66.55 7.7 Q-68.85 2.8 -69.1 -2.85 L-69.15 -4.35 Q-69.15 -7.15 -68.65 -9.7 -67.2 -18.1 -60.8 -24.5 -52.45 -32.85 -40.65 -32.85 -28.85 -32.85 -20.5 -24.5 -12.15 -16.15 -12.15 -4.35 L-12.25 -1.6 Q-12.7 3.35 -14.7 7.65 L-24.95 7.65 -24.85 9.3 -24.85 13.65 -24.85 9.3 -24.95 7.65 -14.7 7.65 M-26.75 3.4 Q-24.8 -0.1 -24.8 -4.35 -24.8 -10.9 -29.45 -15.55 -34.1 -20.15 -40.65 -20.15 -47.2 -20.15 -51.85 -15.55 -56.5 -10.9 -56.5 -4.35 -56.5 -0.6 -54.95 2.5 -53.85 4.85 -51.85 6.85 L-51.0 7.65 Q-46.6 11.5 -40.65 11.5 -34.7 11.5 -30.3 7.65 L-24.95 7.65 Q-25.35 5.3 -26.75 3.4 -25.35 5.3 -24.95 7.65 L-30.3 7.65 -29.45 6.85 Q-27.85 5.25 -26.75 3.4 M-57.6 13.65 L-57.45 7.65 -51.0 7.65 -57.45 7.65 -57.6 13.65" fill="#ffffff" fill-opacity="0.0" fill-rule="evenodd" stroke="none"/>
    <path d="M5.2 -4.35 L4.95 -4.3 Q4.5 -6.75 4.5 -9.35 4.5 -21.15 12.85 -29.5 21.2 -37.85 33.0 -37.85 44.8 -37.85 53.15 -29.5 57.7 -24.95 59.8 -19.3 57.75 -23.55 54.15 -27.15 45.8 -35.5 34.0 -35.5 22.2 -35.5 13.85 -27.15 6.3 -19.6 5.6 -9.2 6.3 -19.6 13.85 -27.15 22.2 -35.5 34.0 -35.5 45.8 -35.5 54.15 -27.15 57.75 -23.55 59.8 -19.3 61.15 -16.45 61.85 -13.3 62.5 -10.3 62.5 -7.0 L62.4 -4.3 62.2 -4.35 Q62.2 -16.15 53.85 -24.5 45.5 -32.85 33.7 -32.85 21.9 -32.85 13.55 -24.5 6.95 -17.9 5.6 -9.2 5.2 -6.85 5.2 -4.35 M-69.4 -4.3 Q-69.8 -6.75 -69.8 -9.35 -69.8 -16.75 -66.5 -22.8 -64.55 -26.35 -61.5 -29.45 L-61.45 -29.5 Q-53.1 -37.85 -41.3 -37.85 -29.5 -37.85 -21.15 -29.5 -16.6 -24.95 -14.5 -19.3 -11.8 -13.75 -11.8 -7.0 L-11.9 -4.3 -12.15 -4.35 Q-12.15 -16.15 -20.5 -24.5 -28.85 -32.85 -40.65 -32.85 -52.45 -32.85 -60.8 -24.5 -67.2 -18.1 -68.65 -9.7 -69.15 -7.15 -69.15 -4.35 L-69.4 -4.3 M-14.5 -19.3 Q-16.55 -23.55 -20.15 -27.15 -28.5 -35.5 -40.3 -35.5 -52.1 -35.5 -60.45 -27.15 -67.8 -19.8 -68.65 -9.7 -67.8 -19.8 -60.45 -27.15 -52.1 -35.5 -40.3 -35.5 -28.5 -35.5 -20.15 -27.15 -16.55 -23.55 -14.5 -19.3" fill="#000000" fill-opacity="0.101960786" fill-rule="evenodd" stroke="none"/>
    <path d="M20.0 3.65 Q17.85 0.1 17.85 -4.35 17.85 -10.9 22.5 -15.55 27.15 -20.15 33.7 -20.15 40.25 -20.15 44.85 -15.55 49.5 -10.9 49.5 -4.35 49.5 -0.8 48.15 2.25 45.15 -0.7 41.0 -0.7 L28.25 -0.7 Q24.1 -0.7 21.2 2.2 L20.0 3.65 21.2 2.2 Q24.1 -0.7 28.25 -0.7 L41.0 -0.7 Q45.15 -0.7 48.15 2.25 46.95 4.75 44.85 6.85 L44.0 7.65 23.35 7.65 44.0 7.65 Q39.65 11.5 33.7 11.5 27.75 11.5 23.35 7.65 L22.5 6.85 Q21.0 5.35 20.0 3.65 M-54.95 2.5 Q-56.5 -0.6 -56.5 -4.35 -56.5 -10.9 -51.85 -15.55 -47.2 -20.15 -40.65 -20.15 -34.1 -20.15 -29.45 -15.55 -24.8 -10.9 -24.8 -4.35 -24.8 -0.1 -26.75 3.4 L-27.8 2.2 Q-30.7 -0.7 -34.85 -0.7 L-47.6 -0.7 Q-51.75 -0.7 -54.7 2.2 L-54.95 2.5 -54.7 2.2 Q-51.75 -0.7 -47.6 -0.7 L-34.85 -0.7 Q-30.7 -0.7 -27.8 2.2 L-26.75 3.4 Q-27.85 5.25 -29.45 6.85 L-30.3 7.65 Q-34.7 11.5 -40.65 11.5 -46.6 11.5 -51.0 7.65 L-30.3 7.65 -51.0 7.65 -51.85 6.85 Q-53.85 4.85 -54.95 2.5" fill="#000000" fill-opacity="0.050980393" fill-rule="evenodd" stroke="none"/>
    <path d="M20.0 3.65 Q17.85 0.1 17.85 -4.35 17.85 -10.9 22.5 -15.55 27.15 -20.15 33.7 -20.15 40.25 -20.15 44.85 -15.55 49.5 -10.9 49.5 -4.35 49.5 -0.8 48.15 2.25 46.95 4.75 44.85 6.85 L44.0 7.65 Q39.65 11.5 33.7 11.5 27.75 11.5 23.35 7.65 L22.5 6.85 Q21.0 5.35 20.0 3.65 M5.6 -9.2 Q6.3 -19.6 13.85 -27.15 22.2 -35.5 34.0 -35.5 45.8 -35.5 54.15 -27.15 57.75 -23.55 59.8 -19.3 M-68.65 -9.7 Q-67.8 -19.8 -60.45 -27.15 -52.1 -35.5 -40.3 -35.5 -28.5 -35.5 -20.15 -27.15 -16.55 -23.55 -14.5 -19.3 M-54.95 2.5 Q-56.5 -0.6 -56.5 -4.35 -56.5 -10.9 -51.85 -15.55 -47.2 -20.15 -40.65 -20.15 -34.1 -20.15 -29.45 -15.55 -24.8 -10.9 -24.8 -4.35 -24.8 -0.1 -26.75 3.4 -27.85 5.25 -29.45 6.85 L-30.3 7.65 Q-34.7 11.5 -40.65 11.5 -46.6 11.5 -51.0 7.65 L-51.85 6.85 Q-53.85 4.85 -54.95 2.5" fill="none" stroke="#000000" stroke-linecap="round" stroke-linejoin="round" stroke-opacity="0.4" stroke-width="1.0"/>
    <path d="M5.25 -2.6 L5.2 -4.35 Q5.2 -6.85 5.6 -9.2 6.95 -17.9 13.55 -24.5 21.9 -32.85 33.7 -32.85 45.5 -32.85 53.85 -24.5 62.2 -16.15 62.2 -4.35 L62.15 -2.15 M7.75 7.65 L18.4 7.65 Q18.7 5.45 20.0 3.65 L21.2 2.2 Q24.1 -0.7 28.25 -0.7 L41.0 -0.7 Q45.15 -0.7 48.15 2.25 50.4 4.55 50.9 7.65 L59.65 7.65 M44.0 7.65 L50.9 7.65 51.0 9.3 51.0 13.65 55.85 13.65 M23.35 7.65 L44.0 7.65 M23.35 7.65 L18.4 7.65 Q18.25 8.45 18.25 9.3 L18.25 13.65 51.0 13.65 M18.25 13.65 L11.6 13.65 M7.75 7.65 L-14.7 7.65 -24.95 7.65 -24.85 9.3 -24.85 13.65 -57.6 13.65 -62.75 13.65 M-18.5 13.65 L-24.85 13.65 M-69.15 -4.35 Q-69.15 -7.15 -68.65 -9.7 -67.2 -18.1 -60.8 -24.5 -52.45 -32.85 -40.65 -32.85 -28.85 -32.85 -20.5 -24.5 -12.15 -16.15 -12.15 -4.35 L-12.25 -1.6 M-69.1 -2.85 L-69.15 -4.35 M-26.75 3.4 Q-25.35 5.3 -24.95 7.65 L-30.3 7.65 -51.0 7.65 -57.45 7.65 -57.6 13.65 M-54.95 2.5 L-54.7 2.2 Q-51.75 -0.7 -47.6 -0.7 L-34.85 -0.7 Q-30.7 -0.7 -27.8 2.2 L-26.75 3.4 M-54.95 2.5 Q-57.05 4.75 -57.45 7.65 L-66.55 7.7" fill="none" stroke="#000000" stroke-linecap="round" stroke-linejoin="round" stroke-opacity="0.6" stroke-width="1.0"/>
    <path d="M4.95 -4.3 L5.25 -2.6 Q5.55 2.9 7.75 7.65 9.25 10.85 11.6 13.65 M59.65 7.65 Q61.25 4.2 61.85 0.35 L62.15 -2.15 62.4 -4.3 62.5 -7.0 Q62.5 -10.3 61.85 -13.3 61.15 -16.45 59.8 -19.3 57.7 -24.95 53.15 -29.5 44.8 -37.85 33.0 -37.85 21.2 -37.85 12.85 -29.5 4.5 -21.15 4.5 -9.35 4.5 -6.75 4.95 -4.3 M55.85 13.65 Q58.15 10.85 59.65 7.65 L64.45 7.65 65.65 7.75 66.5 7.85 Q68.4 8.2 70.1 9.3 72.6 10.9 73.8 13.65 M-14.7 7.65 Q-16.2 10.85 -18.5 13.65 M-62.75 13.65 Q-65.05 10.9 -66.5 7.85 L-66.55 7.7 Q-69.3 7.9 -71.55 9.4 -73.95 11.0 -75.15 13.65 M-69.4 -4.3 Q-69.8 -6.75 -69.8 -9.35 -69.8 -16.75 -66.5 -22.8 -64.55 -26.35 -61.5 -29.45 L-61.45 -29.5 Q-53.1 -37.85 -41.3 -37.85 -29.5 -37.85 -21.15 -29.5 -16.6 -24.95 -14.5 -19.3 -11.8 -13.75 -11.8 -7.0 L-11.9 -4.3 -12.25 -1.6 Q-12.7 3.35 -14.7 7.65 M-69.1 -2.85 L-69.4 -4.3 M-66.55 7.7 Q-68.85 2.8 -69.1 -2.85" fill="none" stroke="#000000" stroke-linecap="round" stroke-linejoin="round" stroke-width="1.0"/>
  </g>
</svg>
