<?xml version="1.0" encoding="UTF-8" standalone="no"?>
<svg xmlns:xlink="http://www.w3.org/1999/xlink" height="62.5px" width="28.85px" xmlns="http://www.w3.org/2000/svg">
  <g transform="matrix(1.0, 0.0, 0.0, 1.0, -75.95, 109.6)">
    <path d="M76.5 -100.35 L76.45 -100.75 76.45 -100.8 76.5 -100.35 M97.15 -48.45 L96.65 -48.05 95.85 -47.7 95.3 -47.6 93.05 -47.65 95.35 -47.7 95.85 -47.8 Q96.7 -48.0 97.15 -48.45" fill="#858585" fill-rule="evenodd" stroke="none"/>
    <path d="M80.7 -106.65 L81.6 -106.4 Q83.45 -105.65 84.3 -103.25 84.65 -105.25 85.3 -106.9 86.65 -110.25 88.3 -108.55 89.0 -107.2 88.3 -103.9 89.3 -105.9 90.8 -107.4 93.8 -110.4 96.05 -108.15 97.0 -107.3 96.7 -105.9 96.55 -104.65 93.65 -102.55 L97.0 -103.9 Q100.3 -104.55 100.3 -101.25 99.9 -100.25 96.3 -98.55 L100.3 -99.25 Q104.3 -99.25 104.3 -95.9 103.5 -94.05 100.3 -92.55 L101.65 -90.3 Q103.0 -87.8 103.0 -86.55 102.85 -85.55 101.75 -84.95 100.7 -84.4 99.15 -84.6 L99.1 -85.2 Q100.9 -88.9 97.9 -93.2 94.95 -97.45 90.5 -98.8 L85.4 -98.6 Q82.3 -98.05 81.15 -99.0 80.2 -99.75 79.75 -101.75 79.0 -104.95 80.7 -106.65 M100.95 -70.15 L101.0 -70.2 101.05 -70.2 101.35 -68.9 Q101.65 -66.75 101.0 -64.9 103.05 -59.05 100.55 -57.4 99.3 -56.55 97.65 -56.9 98.85 -50.5 97.15 -48.5 L95.95 -48.3 95.6 -48.25 95.45 -48.25 Q89.85 -47.85 89.9 -53.4 89.9 -55.25 90.55 -57.5 L91.15 -59.4 91.05 -59.4 Q86.45 -59.35 86.75 -62.65 L88.0 -66.05 Q89.9 -65.4 92.7 -66.05 95.15 -66.7 98.35 -68.4 L100.25 -69.45 101.0 -69.9 100.95 -70.15" fill="#ffffff" fill-opacity="0.0" fill-rule="evenodd" stroke="none"/>
    <path d="M99.1 -85.2 Q98.05 -95.25 81.0 -93.9 L78.1 -94.35 Q76.85 -97.4 76.5 -100.35 L76.45 -100.8 76.5 -103.4 Q77.05 -106.8 80.7 -106.65 79.0 -104.95 79.75 -101.75 80.2 -99.75 81.15 -99.0 82.3 -98.05 85.4 -98.6 L90.5 -98.8 Q94.95 -97.45 97.9 -93.2 100.9 -88.9 99.1 -85.2 M97.15 -48.5 L97.15 -48.45 Q96.7 -48.0 95.85 -47.8 L95.35 -47.7 93.05 -47.65 91.15 -47.95 89.65 -48.25 Q85.9 -49.05 85.1 -53.4 L85.0 -57.55 Q80.4 -58.8 80.9 -64.3 L82.3 -69.55 82.75 -70.3 83.75 -69.7 Q85.65 -68.75 88.0 -68.35 90.9 -67.85 94.1 -68.3 96.05 -68.55 98.15 -69.2 L100.35 -69.95 100.95 -70.15 101.0 -69.9 100.25 -69.45 98.35 -68.4 Q95.15 -66.7 92.7 -66.05 89.9 -65.4 88.0 -66.05 L86.75 -62.65 Q86.45 -59.35 91.05 -59.4 L91.15 -59.4 90.55 -57.5 Q89.9 -55.25 89.9 -53.4 89.85 -47.85 95.45 -48.25 L95.6 -48.25 95.95 -48.3 97.15 -48.5" fill="#000000" fill-opacity="0.101960786" fill-rule="evenodd" stroke="none"/>
    <path d="M80.0 -84.05 Q79.4 -85.95 80.3 -87.25 83.65 -89.3 85.0 -86.8 85.65 -85.55 85.65 -83.9 80.65 -81.4 80.0 -84.05 M84.3 -86.0 Q84.3 -86.5 83.9 -86.9 L83.05 -87.25 Q82.5 -87.25 82.15 -86.9 81.8 -86.5 81.95 -86.15 L82.45 -85.35 83.15 -84.85 Q83.55 -84.75 83.9 -85.1 84.3 -85.45 84.3 -86.0" fill="#000000" fill-opacity="0.8" fill-rule="evenodd" stroke="none"/>
    <path d="M84.3 -86.0 Q84.3 -85.45 83.9 -85.1 83.55 -84.75 83.15 -84.85 L82.45 -85.35 81.95 -86.15 Q81.8 -86.5 82.15 -86.9 82.5 -87.25 83.05 -87.25 L83.9 -86.9 Q84.3 -86.5 84.3 -86.0" fill="#ffffff" fill-rule="evenodd" stroke="none"/>
    <path d="M80.7 -106.65 L81.6 -106.4 Q83.45 -105.65 84.3 -103.25 84.65 -105.25 85.3 -106.9 86.65 -110.25 88.3 -108.55 89.0 -107.2 88.3 -103.9 89.3 -105.9 90.8 -107.4 93.8 -110.4 96.05 -108.15 97.0 -107.3 96.7 -105.9 96.55 -104.65 93.65 -102.55 L97.0 -103.9 Q100.3 -104.55 100.3 -101.25 99.9 -100.25 96.3 -98.55 L100.3 -99.25 Q104.3 -99.25 104.3 -95.9 103.5 -94.05 100.3 -92.55 L101.65 -90.3 Q103.0 -87.8 103.0 -86.55 102.85 -85.55 101.75 -84.95 100.7 -84.4 99.15 -84.6 M78.1 -94.35 Q76.85 -97.4 76.5 -100.35 L76.45 -100.75 76.45 -100.8 76.5 -103.4 Q77.05 -106.8 80.7 -106.65 M101.05 -70.2 L101.35 -68.9 Q101.65 -66.75 101.0 -64.9 103.05 -59.05 100.55 -57.4 99.3 -56.55 97.65 -56.9 98.85 -50.5 97.15 -48.5 L97.15 -48.45 96.65 -48.05 95.85 -47.7" fill="none" stroke="#000000" stroke-linecap="round" stroke-linejoin="round" stroke-width="1.0"/>
    <path d="M99.15 -84.6 L99.1 -85.2 Q98.05 -95.25 81.0 -93.9 L78.1 -94.35 M100.95 -70.15 L101.0 -70.2 101.05 -70.2 M95.85 -47.7 L95.3 -47.6 93.05 -47.65 91.15 -47.95 89.65 -48.25 Q85.9 -49.05 85.1 -53.4 L85.0 -57.55 Q80.4 -58.8 80.9 -64.3 L82.3 -69.55 82.75 -70.3 83.75 -69.7 Q85.65 -68.75 88.0 -68.35 90.9 -67.85 94.1 -68.3 96.05 -68.55 98.15 -69.2 L100.35 -69.95 100.95 -70.15" fill="none" stroke="#000000" stroke-linecap="round" stroke-linejoin="round" stroke-opacity="0.6" stroke-width="1.0"/>
  </g>
</svg>
