<?xml version="1.0" encoding="UTF-8" standalone="no"?>
<svg xmlns:xlink="http://www.w3.org/1999/xlink" height="105.5px" width="460.25px" xmlns="http://www.w3.org/2000/svg">
  <g transform="matrix(1.0, 0.0, 0.0, 1.0, 228.4, -3.0)">
    <path d="M162.2 37.3 Q169.7 30.45 179.85 30.9 190.65 31.35 197.6 39.75 190.85 33.0 181.45 32.65 171.3 32.2 163.8 39.05 156.35 45.95 155.9 56.1 155.45 65.5 161.55 72.8 153.8 65.1 154.3 54.3 154.7 44.15 162.2 37.3 M180.2 46.45 Q176.05 46.25 172.95 49.05 169.9 51.9 169.75 56.0 169.6 59.95 172.05 62.85 168.9 59.7 169.1 55.3 169.25 51.15 172.3 48.35 175.4 45.5 179.55 45.7 183.95 45.95 186.8 49.35 184.05 46.6 180.2 46.45 M-168.5 33.3 L-173.3 32.65 Q-183.45 32.2 -190.95 39.05 -198.45 45.95 -198.9 56.1 -199.25 65.5 -193.2 72.8 -200.95 65.15 -200.5 54.3 -200.05 44.15 -192.55 37.3 -185.05 30.45 -174.95 30.9 -171.95 31.0 -169.3 31.75 -162.2 33.65 -157.15 39.75 -162.15 34.8 -168.5 33.3 M-175.25 45.7 Q-170.8 45.95 -167.95 49.35 -170.8 46.6 -174.6 46.45 -178.7 46.25 -181.8 49.05 -184.85 51.9 -185.05 56.0 -185.2 59.85 -182.7 62.85 -185.9 59.65 -185.7 55.3 -185.5 51.15 -182.45 48.35 -179.4 45.5 -175.25 45.7" fill="#ffffff" fill-opacity="0.3019608" fill-rule="evenodd" stroke="none"/>
    <path d="M162.2 37.3 Q154.7 44.15 154.3 54.3 153.8 65.1 161.55 72.8 155.45 65.5 155.9 56.1 156.35 45.95 163.8 39.05 171.3 32.2 181.45 32.65 190.85 33.0 197.6 39.75 190.65 31.35 179.85 30.9 169.7 30.45 162.2 37.3 M179.65 43.5 Q174.6 43.3 170.85 46.7 167.1 50.15 166.85 55.2 166.65 60.3 170.05 64.05 173.5 67.8 178.6 68.0 183.65 68.25 187.4 64.8 191.2 61.35 191.4 56.3 191.6 51.25 188.15 47.5 184.7 43.75 179.65 43.5 M199.2 37.35 Q206.85 45.65 206.35 56.95 205.85 68.25 197.55 75.85 195.75 77.5 193.85 78.75 186.8 83.4 177.95 83.0 170.3 82.65 164.35 78.75 161.45 76.9 159.0 74.2 151.4 65.85 151.9 54.55 152.4 43.3 160.7 35.65 169.05 28.05 180.3 28.55 191.6 29.0 199.2 37.35 M-151.0 67.65 Q-153.2 72.15 -157.25 75.85 -165.55 83.5 -176.85 83.0 -188.1 82.5 -195.75 74.2 -203.4 65.85 -202.9 54.55 -202.4 43.3 -194.05 35.65 -185.75 28.05 -174.45 28.55 L-170.7 28.95 Q-161.9 30.4 -155.55 37.35 -147.9 45.65 -148.4 56.95 -148.65 62.75 -151.0 67.65 M-168.5 33.3 Q-162.15 34.8 -157.15 39.75 -162.2 33.65 -169.3 31.75 -171.95 31.0 -174.95 30.9 -185.05 30.45 -192.55 37.3 -200.05 44.15 -200.5 54.3 -200.95 65.15 -193.2 72.8 -199.25 65.5 -198.9 56.1 -198.45 45.95 -190.95 39.05 -183.45 32.2 -173.3 32.65 L-168.5 33.3 M-166.6 47.5 Q-170.05 43.75 -175.1 43.5 -180.2 43.3 -183.95 46.7 -187.65 50.15 -187.9 55.2 -188.1 60.3 -184.7 64.05 -181.25 67.8 -176.2 68.0 -171.1 68.25 -167.35 64.8 -163.6 61.35 -163.4 56.3 -163.15 51.25 -166.6 47.5" fill="#ffffff" fill-opacity="0.0" fill-rule="evenodd" stroke="none"/>
    <path d="M199.2 37.35 Q191.6 29.0 180.3 28.55 169.05 28.05 160.7 35.65 152.4 43.3 151.9 54.55 151.4 65.85 159.0 74.2 161.45 76.9 164.35 78.75 170.3 82.65 177.95 83.0 186.8 83.4 193.85 78.75 195.75 77.5 197.55 75.85 205.85 68.25 206.35 56.95 206.85 45.65 199.2 37.35 M202.25 34.55 Q211.0 44.15 210.45 57.1 209.9 70.05 200.4 78.75 L200.3 78.85 Q190.7 87.65 177.75 87.05 166.05 86.55 157.8 78.75 L156.0 76.95 Q147.25 67.35 147.8 54.4 148.35 41.45 157.95 32.65 167.5 23.9 180.5 24.45 193.5 25.0 202.25 34.55 M-151.0 67.65 Q-148.65 62.75 -148.4 56.95 -147.9 45.65 -155.55 37.35 -161.9 30.4 -170.7 28.95 L-174.45 28.55 Q-185.75 28.05 -194.05 35.65 -202.4 43.3 -202.9 54.55 -203.4 65.85 -195.75 74.2 -188.1 82.5 -176.85 83.0 -165.55 83.5 -157.25 75.85 -153.2 72.15 -151.0 67.65 M-148.75 72.05 Q-151.0 75.7 -154.45 78.85 -164.05 87.65 -177.0 87.05 -190.0 86.5 -198.75 76.95 -207.5 67.35 -206.95 54.4 -206.4 41.4 -196.85 32.65 -187.25 23.9 -174.3 24.45 L-172.95 24.55 Q-160.85 25.5 -152.55 34.55 -143.8 44.15 -144.35 57.1 -144.7 65.45 -148.75 72.05" fill="#000000" fill-opacity="0.101960786" fill-rule="evenodd" stroke="none"/>
    <path d="M179.65 43.5 Q184.7 43.75 188.15 47.5 191.6 51.25 191.4 56.3 191.2 61.35 187.4 64.8 183.65 68.25 178.6 68.0 173.5 67.8 170.05 64.05 166.65 60.3 166.85 55.2 167.1 50.15 170.85 46.7 174.6 43.3 179.65 43.5 M180.2 46.45 Q184.05 46.6 186.8 49.35 183.95 45.95 179.55 45.7 175.4 45.5 172.3 48.35 169.25 51.15 169.1 55.3 168.9 59.7 172.05 62.85 169.6 59.95 169.75 56.0 169.9 51.9 172.95 49.05 176.05 46.25 180.2 46.45 M-166.6 47.5 Q-163.15 51.25 -163.4 56.3 -163.6 61.35 -167.35 64.8 -171.1 68.25 -176.2 68.0 -181.25 67.8 -184.7 64.05 -188.1 60.3 -187.9 55.2 -187.65 50.15 -183.95 46.7 -180.2 43.3 -175.1 43.5 -170.05 43.75 -166.6 47.5 M-175.25 45.7 Q-179.4 45.5 -182.45 48.35 -185.5 51.15 -185.7 55.3 -185.9 59.65 -182.7 62.85 -185.2 59.85 -185.05 56.0 -184.85 51.9 -181.8 49.05 -178.7 46.25 -174.6 46.45 -170.8 46.6 -167.95 49.35 -170.8 45.95 -175.25 45.7" fill="#000000" fill-opacity="0.2" fill-rule="evenodd" stroke="none"/>
    <path d="M202.25 34.55 Q193.5 25.0 180.5 24.45 167.5 23.9 157.95 32.65 148.35 41.45 147.8 54.4 147.25 67.35 156.0 76.95 L157.8 78.75 Q166.05 86.55 177.75 87.05 190.7 87.65 200.3 78.85 L200.4 78.75 Q209.9 70.05 210.45 57.1 211.0 44.15 202.25 34.55 M214.45 94.25 Q198.5 108.9 176.85 107.95 155.2 107.0 140.6 91.05 125.95 75.1 126.9 53.5 127.85 31.85 143.8 17.25 159.75 2.6 181.4 3.55 203.0 4.5 217.65 20.45 232.3 36.4 231.3 58.05 230.35 79.65 214.45 94.25 M-148.75 72.05 Q-144.7 65.45 -144.35 57.1 -143.8 44.15 -152.55 34.55 -160.85 25.5 -172.95 24.55 L-174.3 24.45 Q-187.25 23.9 -196.85 32.65 -206.4 41.4 -206.95 54.4 -207.5 67.35 -198.75 76.95 -190.0 86.5 -177.0 87.05 -164.05 87.65 -154.45 78.85 -151.0 75.7 -148.75 72.05 M-140.35 94.25 Q-156.3 108.9 -177.9 107.95 -199.55 107.0 -214.15 91.05 -228.8 75.1 -227.85 53.5 -226.9 31.85 -210.95 17.25 -195.0 2.6 -173.4 3.55 -151.75 4.5 -137.15 20.45 -122.5 36.4 -123.45 58.05 -124.4 79.65 -140.35 94.25" fill="#000000" fill-opacity="0.8" fill-rule="evenodd" stroke="none"/>
    <path d="M179.65 43.5 Q184.7 43.75 188.15 47.5 191.6 51.25 191.4 56.3 191.2 61.35 187.4 64.8 183.65 68.25 178.6 68.0 173.5 67.8 170.05 64.05 166.65 60.3 166.85 55.2 167.1 50.15 170.85 46.7 174.6 43.3 179.65 43.5 M-166.6 47.5 Q-163.15 51.25 -163.4 56.3 -163.6 61.35 -167.35 64.8 -171.1 68.25 -176.2 68.0 -181.25 67.8 -184.7 64.05 -188.1 60.3 -187.9 55.2 -187.65 50.15 -183.95 46.7 -180.2 43.3 -175.1 43.5 -170.05 43.75 -166.6 47.5" fill="none" stroke="#000000" stroke-linecap="round" stroke-linejoin="round" stroke-opacity="0.4" stroke-width="1.0"/>
    <path d="M199.2 37.35 Q206.85 45.65 206.35 56.95 205.85 68.25 197.55 75.85 195.75 77.5 193.85 78.75 186.8 83.4 177.95 83.0 170.3 82.65 164.35 78.75 161.45 76.9 159.0 74.2 151.4 65.85 151.9 54.55 152.4 43.3 160.7 35.65 169.05 28.05 180.3 28.55 191.6 29.0 199.2 37.35 M202.25 34.55 Q211.0 44.15 210.45 57.1 209.9 70.05 200.4 78.75 L200.3 78.85 Q190.7 87.65 177.75 87.05 166.05 86.55 157.8 78.75 L156.0 76.95 Q147.25 67.35 147.8 54.4 148.35 41.45 157.95 32.65 167.5 23.9 180.5 24.45 193.5 25.0 202.25 34.55 M-151.0 67.65 Q-153.2 72.15 -157.25 75.85 -165.55 83.5 -176.85 83.0 -188.1 82.5 -195.75 74.2 -203.4 65.85 -202.9 54.55 -202.4 43.3 -194.05 35.65 -185.75 28.05 -174.45 28.55 L-170.7 28.95 Q-161.9 30.4 -155.55 37.35 -147.9 45.65 -148.4 56.95 -148.65 62.75 -151.0 67.65 M-148.75 72.05 Q-151.0 75.7 -154.45 78.85 -164.05 87.65 -177.0 87.05 -190.0 86.5 -198.75 76.95 -207.5 67.35 -206.95 54.4 -206.4 41.4 -196.85 32.65 -187.25 23.9 -174.3 24.45 L-172.95 24.55 Q-160.85 25.5 -152.55 34.55 -143.8 44.15 -144.35 57.1 -144.7 65.45 -148.75 72.05" fill="none" stroke="#000000" stroke-linecap="round" stroke-linejoin="round" stroke-opacity="0.6" stroke-width="1.0"/>
    <path d="M214.45 94.25 Q198.5 108.9 176.85 107.95 155.2 107.0 140.6 91.05 125.95 75.1 126.9 53.5 127.85 31.85 143.8 17.25 159.75 2.6 181.4 3.55 203.0 4.5 217.65 20.45 232.3 36.4 231.3 58.05 230.35 79.65 214.45 94.25 M-140.35 94.25 Q-156.3 108.9 -177.9 107.95 -199.55 107.0 -214.15 91.05 -228.8 75.1 -227.85 53.5 -226.9 31.85 -210.95 17.25 -195.0 2.6 -173.4 3.55 -151.75 4.5 -137.15 20.45 -122.5 36.4 -123.45 58.05 -124.4 79.65 -140.35 94.25" fill="none" stroke="#000000" stroke-linecap="round" stroke-linejoin="round" stroke-width="1.0"/>
  </g>
</svg>
