<?xml version="1.0" encoding="UTF-8" standalone="no"?>
<svg xmlns:xlink="http://www.w3.org/1999/xlink" height="76.55px" width="31.65px" xmlns="http://www.w3.org/2000/svg">
  <g transform="matrix(1.0, 0.0, 0.0, 1.0, -16.6, -99.0)">
    <path d="M22.75 113.15 L20.05 112.8 Q17.7 111.65 18.55 108.95 19.15 106.95 21.3 104.85 29.0 103.75 36.95 101.4 44.5 99.1 46.3 99.6 L46.5 99.6 Q47.95 100.2 47.75 103.25 47.5 106.25 45.35 107.55 L45.0 107.75 Q42.5 109.15 32.45 111.55 L27.9 112.55 26.8 112.75 22.75 113.15 26.8 112.75 26.8 125.15 26.5 125.15 26.8 125.35 Q27.55 125.75 28.15 126.75 29.35 128.55 29.5 130.95 L29.5 131.7 29.35 133.6 Q29.05 134.95 28.25 135.45 26.8 136.5 25.0 136.5 L24.7 136.5 Q23.05 136.5 21.8 135.6 20.9 134.95 20.6 133.5 L20.4 131.7 20.5 130.9 Q20.6 129.15 21.25 127.75 L21.8 126.75 Q22.2 126.05 22.75 125.55 L22.75 113.15 M22.75 125.55 Q23.75 124.65 25.0 124.65 25.8 124.65 26.5 125.15 25.8 124.65 25.0 124.65 23.75 124.65 22.75 125.55" fill="#000000" fill-opacity="0.050980393" fill-rule="evenodd" stroke="none"/>
    <path d="M29.35 133.6 L33.0 172.65 Q25.45 177.15 18.0 173.2 L17.1 172.65 20.6 133.5 Q20.9 134.95 21.8 135.6 23.05 136.5 24.7 136.5 L25.0 136.5 Q26.8 136.5 28.25 135.45 29.05 134.95 29.35 133.6" fill="#ffffff" fill-opacity="0.0" fill-rule="evenodd" stroke="none"/>
    <path d="M26.8 112.75 L27.9 112.55 32.45 111.55 Q42.5 109.15 45.0 107.75 L45.35 107.55 Q47.5 106.25 47.75 103.25 47.95 100.2 46.5 99.6 L46.3 99.6 Q44.5 99.1 36.95 101.4 29.0 103.75 21.3 104.85 19.15 106.95 18.55 108.95 17.7 111.65 20.05 112.8 L22.75 113.15 26.8 112.75 M26.8 125.15 L26.8 125.35 Q27.55 125.75 28.15 126.75 29.35 128.55 29.5 130.95 L29.5 131.7 29.35 133.6 33.0 172.65 Q25.45 177.15 18.0 173.2 L17.1 172.65 20.6 133.5 20.4 131.7 20.5 130.9 Q20.6 129.15 21.25 127.75 L21.8 126.75 Q22.2 126.05 22.75 125.55 M26.8 125.35 L26.5 125.15" fill="none" stroke="#000000" stroke-linecap="round" stroke-linejoin="round" stroke-width="1.0"/>
    <path d="M26.5 125.15 Q25.8 124.65 25.0 124.65 23.75 124.65 22.75 125.55 M20.6 133.5 Q20.9 134.95 21.8 135.6 23.05 136.5 24.7 136.5 L25.0 136.5 Q26.8 136.5 28.25 135.45 29.05 134.95 29.35 133.6" fill="none" stroke="#000000" stroke-linecap="round" stroke-linejoin="round" stroke-opacity="0.4" stroke-width="1.0"/>
    <path d="M26.8 112.75 L26.8 125.15 M22.75 125.55 L22.75 113.15" fill="none" stroke="#000000" stroke-linecap="round" stroke-linejoin="round" stroke-opacity="0.7019608" stroke-width="1.0"/>
  </g>
</svg>
