<?xml version="1.0" encoding="UTF-8" standalone="no"?>
<svg xmlns:xlink="http://www.w3.org/1999/xlink" height="96.05px" width="94.05px" xmlns="http://www.w3.org/2000/svg">
  <g transform="matrix(1.0, 0.0, 0.0, 1.0, 47.0, 48.0)">
    <path d="M34.05 -46.2 Q34.45 -46.9 35.1 -47.15 L36.2 -47.25 Q36.65 -47.0 36.7 -46.25 L36.35 -44.8 Q35.95 -44.05 35.3 -43.85 L34.2 -43.75 Q33.7 -44.05 33.7 -44.75 33.65 -45.45 34.05 -46.2 M3.15 -5.55 Q3.15 -6.35 3.75 -6.95 4.3 -7.55 5.15 -7.55 5.95 -7.55 6.55 -6.95 7.15 -6.35 7.15 -5.55 7.15 -4.7 6.55 -4.15 5.95 -3.55 5.15 -3.55 4.3 -3.55 3.75 -4.15 3.15 -4.7 3.15 -5.55 M46.2 2.75 Q46.6 2.95 46.55 3.65 L46.1 5.0 45.15 6.05 Q44.6 6.45 44.2 6.25 43.85 6.05 43.85 5.35 43.9 4.75 44.3 4.0 44.7 3.3 45.25 2.95 45.85 2.55 46.2 2.75 M15.9 34.85 L15.05 36.0 Q14.55 36.4 14.25 36.25 13.95 36.1 14.05 35.5 14.1 34.9 14.5 34.15 14.85 33.45 15.35 33.0 15.85 32.6 16.15 32.75 16.45 32.9 16.35 33.5 L15.9 34.85 M-43.3 -15.15 Q-43.5 -14.35 -44.1 -13.9 -44.75 -13.45 -45.35 -13.6 -46.0 -13.8 -46.3 -14.5 -46.6 -15.15 -46.4 -15.95 -46.2 -16.7 -45.6 -17.2 -45.0 -17.7 -44.35 -17.5 -43.75 -17.35 -43.4 -16.6 -43.1 -15.9 -43.3 -15.15 M-24.35 -47.5 Q-23.85 -47.35 -23.7 -46.7 -23.5 -46.0 -23.7 -45.25 -23.9 -44.45 -24.4 -44.0 -24.85 -43.45 -25.35 -43.6 -25.8 -43.7 -26.0 -44.4 -26.2 -45.05 -26.0 -45.85 L-25.3 -47.1 Q-24.8 -47.6 -24.35 -47.5 M-25.55 -3.65 Q-26.1 -3.9 -26.25 -4.55 -26.45 -5.3 -26.15 -6.05 -25.85 -6.85 -25.25 -7.15 L-24.05 -7.35 Q-23.5 -7.15 -23.35 -6.45 -23.15 -5.75 -23.45 -4.95 -23.75 -4.2 -24.35 -3.85 L-25.55 -3.65 M-33.7 24.4 Q-33.5 25.1 -33.95 25.85 -34.35 26.55 -35.1 26.8 L-36.4 26.75 Q-37.0 26.4 -37.1 25.6 -37.25 24.85 -36.85 24.15 -36.4 23.4 -35.7 23.2 L-34.4 23.25 Q-33.8 23.6 -33.7 24.4 M-10.85 47.55 Q-11.7 47.55 -12.25 46.95 -12.85 46.4 -12.85 45.55 -12.85 44.75 -12.25 44.15 -11.7 43.55 -10.85 43.55 -10.05 43.55 -9.45 44.15 -8.85 44.75 -8.85 45.55 -8.85 46.4 -9.45 46.95 -10.05 47.55 -10.85 47.55" fill="#ffffff" fill-opacity="0.0" fill-rule="evenodd" stroke="none"/>
    <path d="M34.05 -46.2 Q34.45 -46.9 35.1 -47.15 L36.2 -47.25 Q36.65 -47.0 36.7 -46.25 L36.35 -44.8 Q35.95 -44.05 35.3 -43.85 L34.2 -43.75 Q33.7 -44.05 33.7 -44.75 33.65 -45.45 34.05 -46.2 M3.15 -5.55 Q3.15 -6.35 3.75 -6.95 4.3 -7.55 5.15 -7.55 5.95 -7.55 6.55 -6.95 7.15 -6.35 7.15 -5.55 7.15 -4.7 6.55 -4.15 5.95 -3.55 5.15 -3.55 4.3 -3.55 3.75 -4.15 3.15 -4.7 3.15 -5.55 M46.2 2.75 Q46.6 2.95 46.55 3.65 L46.1 5.0 45.15 6.05 Q44.6 6.45 44.2 6.25 43.85 6.05 43.85 5.35 43.9 4.75 44.3 4.0 44.7 3.3 45.25 2.95 45.85 2.55 46.2 2.75 M15.9 34.85 L15.05 36.0 Q14.55 36.4 14.25 36.25 13.95 36.1 14.05 35.5 14.1 34.9 14.5 34.15 14.85 33.45 15.35 33.0 15.85 32.6 16.15 32.75 16.45 32.9 16.35 33.5 L15.9 34.85 M-43.3 -15.15 Q-43.5 -14.35 -44.1 -13.9 -44.75 -13.45 -45.35 -13.6 -46.0 -13.8 -46.3 -14.5 -46.6 -15.15 -46.4 -15.95 -46.2 -16.7 -45.6 -17.2 -45.0 -17.7 -44.35 -17.5 -43.75 -17.35 -43.4 -16.6 -43.1 -15.9 -43.3 -15.15 M-24.35 -47.5 Q-23.85 -47.35 -23.7 -46.7 -23.5 -46.0 -23.7 -45.25 -23.9 -44.45 -24.4 -44.0 -24.85 -43.45 -25.35 -43.6 -25.8 -43.7 -26.0 -44.4 -26.2 -45.05 -26.0 -45.85 L-25.3 -47.1 Q-24.8 -47.6 -24.35 -47.5 M-25.55 -3.65 Q-26.1 -3.9 -26.25 -4.55 -26.45 -5.3 -26.15 -6.05 -25.85 -6.85 -25.25 -7.15 L-24.05 -7.35 Q-23.5 -7.15 -23.35 -6.45 -23.15 -5.75 -23.45 -4.95 -23.75 -4.2 -24.35 -3.85 L-25.55 -3.65 M-33.7 24.4 Q-33.5 25.1 -33.95 25.85 -34.35 26.55 -35.1 26.8 L-36.4 26.75 Q-37.0 26.4 -37.1 25.6 -37.25 24.85 -36.85 24.15 -36.4 23.4 -35.7 23.2 L-34.4 23.25 Q-33.8 23.6 -33.7 24.4 M-10.85 47.55 Q-11.7 47.55 -12.25 46.95 -12.85 46.4 -12.85 45.55 -12.85 44.75 -12.25 44.15 -11.7 43.55 -10.85 43.55 -10.05 43.55 -9.45 44.15 -8.85 44.75 -8.85 45.55 -8.85 46.4 -9.45 46.95 -10.05 47.55 -10.85 47.55" fill="none" stroke="#000000" stroke-linecap="round" stroke-linejoin="round" stroke-opacity="0.4" stroke-width="1.0"/>
  </g>
</svg>
