<?xml version="1.0" encoding="UTF-8" standalone="no"?>
<svg xmlns:xlink="http://www.w3.org/1999/xlink" height="260.0px" width="67.0px" xmlns="http://www.w3.org/2000/svg">
  <g transform="matrix(1.0, 0.0, 0.0, 1.0, 33.5, 130.0)">
    <path d="M32.6 -125.05 L23.75 -125.05 23.75 -123.7 25.5 -123.7 Q27.85 -120.15 25.5 -116.6 L23.75 -116.6 23.75 -114.75 Q16.3 -110.6 16.15 -102.85 L18.2 -102.85 Q19.1 -101.3 18.2 -99.75 L16.7 -99.75 16.7 -97.8 16.7 99.75 18.2 99.75 Q19.1 101.3 18.2 102.85 L16.15 102.85 Q16.3 110.6 23.75 114.75 L23.75 116.6 25.5 116.6 Q27.85 120.15 25.5 123.7 L23.75 123.7 23.75 125.05 32.6 125.05 Q33.4 127.45 32.6 129.5 L-32.6 129.5 Q-33.4 127.45 -32.6 125.05 L-23.75 125.05 -23.75 123.7 -25.5 123.7 Q-27.85 120.15 -25.5 116.6 L-23.75 116.6 -23.75 114.75 Q-16.3 110.6 -16.15 102.85 L-18.2 102.85 Q-19.1 101.3 -18.2 99.75 L-16.7 99.75 -16.7 97.8 -16.7 -97.8 -16.7 -99.75 -18.2 -99.75 Q-19.1 -101.3 -18.2 -102.85 L-16.15 -102.85 Q-16.3 -110.6 -23.75 -114.75 L-23.75 -116.6 -25.5 -116.6 Q-27.85 -120.15 -25.5 -123.7 L-23.75 -123.7 -23.75 -125.05 -32.6 -125.05 Q-33.4 -127.45 -32.6 -129.5 L32.6 -129.5 Q33.4 -127.45 32.6 -125.05" fill="#ffffff" fill-opacity="0.0" fill-rule="evenodd" stroke="none"/>
    <path d="M32.6 -125.05 Q33.4 -127.45 32.6 -129.5 L-32.6 -129.5 Q-33.4 -127.45 -32.6 -125.05 L-23.75 -125.05 -23.75 -123.7 -25.5 -123.7 Q-27.85 -120.15 -25.5 -116.6 L-23.75 -116.6 -23.75 -114.75 Q-16.3 -110.6 -16.15 -102.85 L-18.2 -102.85 Q-19.1 -101.3 -18.2 -99.75 L-16.7 -99.75 -16.7 -97.8 -16.7 97.8 -16.7 99.75 -18.2 99.75 Q-19.1 101.3 -18.2 102.85 L-16.15 102.85 Q-16.3 110.6 -23.75 114.75 L-23.75 116.6 -25.5 116.6 Q-27.85 120.15 -25.5 123.7 L-23.75 123.7 -23.75 125.05 -32.6 125.05 Q-33.4 127.45 -32.6 129.5 L32.6 129.5 Q33.4 127.45 32.6 125.05 L23.75 125.05 23.75 123.7 25.5 123.7 Q27.85 120.15 25.5 116.6 L23.75 116.6 23.75 114.75 Q16.3 110.6 16.15 102.85 L18.2 102.85 Q19.1 101.3 18.2 99.75 L16.7 99.75 16.7 -97.8 16.7 -99.75 18.2 -99.75 Q19.1 -101.3 18.2 -102.85 L16.15 -102.85 Q16.3 -110.6 23.75 -114.75 L23.75 -116.6 25.5 -116.6 Q27.85 -120.15 25.5 -123.7 L23.75 -123.7 23.75 -125.05 32.6 -125.05 Z" fill="none" stroke="#000000" stroke-linecap="round" stroke-linejoin="round" stroke-width="1.0"/>
  </g>
</svg>
