<?xml version="1.0" encoding="UTF-8" standalone="no"?>
<svg xmlns:xlink="http://www.w3.org/1999/xlink" height="164.1px" width="146.2px" xmlns="http://www.w3.org/2000/svg">
  <g transform="matrix(1.0, 0.0, 0.0, 1.0, 72.5, 68.25)">
    <path d="M11.3 -64.1 L10.65 -65.75 Q13.3 -69.1 15.05 -66.35 L34.95 -17.8 34.65 -17.7 32.5 -11.8 34.65 -17.7 34.95 -17.8 Q38.25 -18.55 39.15 -16.1 L37.5 -11.5 55.45 32.3 72.25 29.5 Q73.65 30.25 72.25 33.75 L57.05 36.35 73.05 75.4 Q71.35 77.7 68.6 77.2 L67.2 73.75 -17.85 92.05 -17.35 93.55 Q-19.15 95.75 -21.95 95.05 L-36.85 48.7 -62.6 48.7 -62.85 49.8 -67.35 49.9 -67.35 48.9 -67.3 48.7 -69.05 48.7 Q-70.95 47.0 -70.2 45.5 -69.55 44.05 -69.2 44.0 L-67.1 43.95 -66.25 43.85 -55.2 -8.1 -71.85 -59.6 Q-70.45 -61.85 -67.3 -60.6 L-66.3 -57.55 11.3 -64.1 13.45 -64.3 Q15.6 -63.25 15.05 -59.5 L13.25 -59.35 15.05 -59.5 Q15.6 -63.25 13.45 -64.3 L11.3 -64.1 M32.5 -11.8 L13.25 -59.35 -64.75 -52.75 -66.3 -57.55 -64.75 -52.75 -35.3 38.2 18.25 28.5 32.5 -11.8 M37.5 -11.5 L35.25 -5.1 37.5 -11.5 M50.7 33.05 L55.45 32.3 50.7 33.05 35.25 -5.1 22.35 31.4 21.65 32.45 20.5 32.95 -33.75 42.8 -33.45 43.8 -15.0 43.7 50.7 33.05 M-38.45 43.85 L-33.45 43.8 -38.45 43.85 -38.5 43.7 -39.95 39.1 -38.5 43.7 -39.4 43.85 -38.45 43.85 M-61.6 43.95 L-39.4 43.85 -61.6 43.95 -66.25 43.95 -61.6 43.95 -61.4 42.95 -61.6 43.95 M-67.1 43.95 L-66.25 43.95 -67.1 43.95 M57.05 36.35 L52.35 37.15 57.05 36.35 M65.35 69.2 L67.25 68.8 Q69.95 70.2 68.2 73.5 L67.2 73.75 68.2 73.5 Q69.95 70.2 67.25 68.8 L65.35 69.2 52.35 37.15 -15.85 48.7 -31.85 48.7 -19.35 87.4 65.35 69.2 M-17.85 92.05 L-19.35 87.4 -17.85 92.05 M-33.75 42.8 L-35.3 38.2 -33.75 42.8 M-52.5 0.3 L-51.15 -6.3 Q-50.95 -11.5 -54.65 -10.85 L-55.2 -8.1 -54.65 -10.85 Q-50.95 -11.5 -51.15 -6.3 L-52.5 0.3 -61.4 42.95 -39.95 39.1 -52.5 0.3 M-36.85 48.7 L-31.85 48.7 -36.85 48.7 M-66.25 43.85 L-66.25 43.95 -66.25 43.85 M-67.3 48.7 L-62.6 48.7 -67.3 48.7" fill="#dad9cf" fill-rule="evenodd" stroke="none"/>
    <path d="M34.95 -17.8 L15.05 -66.35 Q13.3 -69.1 10.65 -65.75 L11.3 -64.1 13.45 -64.3 Q15.6 -63.25 15.05 -59.5 L13.25 -59.35 32.5 -11.8 34.65 -17.7 34.95 -17.8 Q38.25 -18.55 39.15 -16.1 L37.5 -11.5 55.45 32.3 72.25 29.5 Q73.65 30.25 72.25 33.75 L57.05 36.35 73.05 75.4 Q71.35 77.7 68.6 77.2 L67.2 73.75 -17.85 92.05 -17.35 93.55 Q-19.15 95.75 -21.95 95.05 L-36.85 48.7 -62.6 48.7 -62.85 49.8 -67.35 49.9 -67.35 48.9 -67.3 48.7 -69.05 48.7 Q-70.95 47.0 -70.2 45.5 -69.55 44.05 -69.2 44.0 L-67.1 43.95 -66.25 43.85 -55.2 -8.1 -71.85 -59.6 Q-70.45 -61.85 -67.3 -60.6 L-66.3 -57.55 11.3 -64.1 M35.25 -5.1 L37.5 -11.5 M55.45 32.3 L50.7 33.05 -15.0 43.7 -33.45 43.8 -38.45 43.85 -39.4 43.85 -61.6 43.95 -66.25 43.95 -67.1 43.95 M52.35 37.15 L57.05 36.35 M50.7 33.05 L35.25 -5.1 22.35 31.4 21.65 32.45 20.5 32.95 -33.75 42.8 -33.45 43.8 M67.2 73.75 L68.2 73.5 Q69.95 70.2 67.25 68.8 L65.35 69.2 -19.35 87.4 -17.85 92.05 M65.35 69.2 L52.35 37.15 -15.85 48.7 -31.85 48.7 -19.35 87.4 M32.5 -11.8 L18.25 28.5 -35.3 38.2 -33.75 42.8 M-64.75 -52.75 L-66.3 -57.55 M-55.2 -8.1 L-54.65 -10.85 Q-50.95 -11.5 -51.15 -6.3 L-52.5 0.3 -39.95 39.1 -38.5 43.7 -38.45 43.85 M-31.85 48.7 L-36.85 48.7 M-38.5 43.7 L-39.4 43.85 M-66.25 43.95 L-66.25 43.85 M-61.6 43.95 L-61.4 42.95 -52.5 0.3 M-62.6 48.7 L-67.3 48.7 M-61.4 42.95 L-39.95 39.1 M-35.3 38.2 L-64.75 -52.75 13.25 -59.35" fill="none" stroke="#000000" stroke-linecap="round" stroke-linejoin="round" stroke-opacity="0.6" stroke-width="1.0"/>
  </g>
</svg>
