<?xml version="1.0" encoding="UTF-8" standalone="no"?>
<svg xmlns:xlink="http://www.w3.org/1999/xlink" height="203.85px" width="79.7px" xmlns="http://www.w3.org/2000/svg">
  <g transform="matrix(1.0, 0.0, 0.0, 1.0, 39.9, 100.0)">
    <path d="M13.5 -99.5 L18.4 -69.95 -39.9 -69.35 -26.25 -88.4 2.5 -89.5 13.05 -100.0 13.5 -99.5 M1.6 -10.2 Q-3.6 -7.15 -10.7 -7.5 -17.85 -7.9 -22.75 -11.5 -27.6 -15.1 -27.35 -19.7 -27.15 -24.35 -21.9 -27.45 -16.7 -30.55 -9.55 -30.15 -2.45 -29.8 2.45 -26.15 7.3 -22.55 7.1 -17.9 6.85 -13.3 1.6 -10.2 M19.25 88.05 L39.8 77.25 39.75 91.35 19.25 103.85 -39.9 97.85 -39.9 83.75 19.2 88.05 19.25 88.05" fill="#ffffff" fill-opacity="0.0" fill-rule="evenodd" stroke="none"/>
  </g>
</svg>
