<?xml version="1.0" encoding="UTF-8" standalone="no"?>
<svg xmlns:xlink="http://www.w3.org/1999/xlink" height="275.75px" width="486.6px" xmlns="http://www.w3.org/2000/svg">
  <g transform="matrix(1.0, 0.0, 0.0, 1.0, 243.3, 160.5)">
    <path d="M228.75 75.35 Q231.2 74.6 236.3 77.35 242.25 80.65 242.7 87.7 244.15 109.4 218.15 114.25 L217.5 114.35 Q210.65 115.2 204.05 114.2 196.75 113.05 193.55 110.35 L191.45 108.1 Q189.2 104.95 187.6 99.55 186.65 96.35 199.6 95.8 212.7 96.6 215.75 95.9 220.35 94.9 225.15 91.55 227.55 89.2 228.75 75.35 M-161.1 99.05 L-161.55 101.4 Q-162.5 104.65 -165.0 106.7 -169.0 110.05 -178.6 111.3 L-194.6 111.95 Q-216.0 111.45 -225.35 108.2 -243.95 101.9 -242.7 83.55 -242.3 76.5 -236.3 73.2 -231.2 70.45 -229.45 71.9 L-229.2 83.05 -228.6 83.85 Q-220.0 95.65 -182.25 95.2 L-178.6 94.75 -169.15 93.6 Q-159.5 92.8 -160.4 95.9 L-161.1 99.05 M-229.5 55.1 L-229.6 55.1 Q-233.2 55.1 -235.65 50.35 -238.2 45.6 -238.2 39.0 -238.2 32.35 -235.65 27.65 -233.2 22.9 -229.6 22.9 -229.4 22.9 -229.05 15.25 -228.95 23.0 -228.75 23.0 -227.6 23.2 -227.3 24.45 -226.8 26.85 -226.25 27.7 -223.7 32.3 -223.7 39.05 -223.7 45.85 -226.25 50.4 L-227.6 53.85 Q-228.0 55.0 -229.4 55.1 L-229.5 55.1 M-216.65 -58.05 L-216.45 -67.3 -211.4 -67.3 -211.2 -67.3 -209.15 -67.3 -209.15 -71.1 -209.15 -76.75 Q-209.15 -77.9 -208.3 -78.8 -207.4 -79.65 -206.25 -79.65 -205.15 -79.65 -204.35 -78.95 L-203.7 -78.45 Q-203.2 -77.8 -203.35 -76.75 L-203.35 -75.95 -203.35 -66.7 -203.35 -49.1 Q-203.35 -47.95 -204.2 -47.05 -205.1 -46.2 -206.25 -46.2 -207.4 -46.2 -208.3 -47.05 -209.15 -47.95 -209.15 -49.1 L-209.15 -56.6 -209.15 -62.95 -211.2 -62.95 -213.55 -62.95 -214.1 -45.1 -214.25 -39.65 -210.6 -39.65 -209.9 -30.9 -215.45 -30.3 -217.15 -30.15 -216.65 -58.05 M-209.15 -62.95 L-209.15 -67.3 -209.15 -62.95 M-225.85 -16.5 Q-225.85 -18.9 -224.8 -20.65 -223.8 -22.3 -222.35 -22.3 -220.9 -22.3 -219.85 -20.65 -218.85 -18.9 -218.85 -16.5 -218.85 -14.1 -219.85 -12.4 -220.65 -11.1 -221.7 -10.75 L-222.35 -10.65 -223.0 -10.75 -224.0 -11.15 Q-224.55 -11.55 -224.8 -12.4 -225.85 -15.3 -225.85 -16.5" fill="#ffffff" fill-opacity="0.49803922" fill-rule="evenodd" stroke="none"/>
    <path d="M-172.75 -125.6 Q-181.0 -126.1 -181.3 -127.5 -184.05 -138.5 -156.55 -148.45 -133.25 -156.85 -108.5 -158.85 -89.7 -160.4 21.05 -159.9 128.25 -159.4 147.85 -158.15 163.7 -157.15 184.95 -144.8 203.7 -134.0 209.0 -126.05 L-35.9 -125.55 -162.95 -125.3 -35.9 -125.55 209.0 -126.05 211.55 -120.3 213.7 -114.6 196.6 -114.45 Q184.95 -114.45 184.95 -102.8 L184.95 -58.4 Q184.95 -46.75 196.6 -46.75 L227.9 -46.75 228.5 -35.05 Q229.9 9.0 229.95 29.6 230.1 59.75 228.75 75.35 227.55 89.2 225.15 91.55 220.35 94.9 215.75 95.9 212.7 96.6 199.6 95.8 186.65 96.35 187.6 99.55 189.2 104.95 191.45 108.1 184.7 107.8 182.8 106.2 180.65 104.45 174.1 89.45 167.95 75.25 166.05 74.9 164.6 74.6 151.25 74.65 141.15 74.65 124.1 74.95 L85.55 75.55 Q67.1 75.9 56.9 76.35 L45.1 77.05 Q40.6 77.85 33.6 92.2 26.85 106.2 25.45 106.2 L-46.1 105.95 Q-48.15 104.95 -50.75 99.95 L-57.4 85.5 Q-67.45 63.55 -77.4 59.5 -85.75 56.1 -96.7 55.1 -109.6 53.9 -120.55 56.85 -149.55 64.45 -153.85 96.65 -154.05 98.4 -156.55 98.9 L-159.15 99.05 -161.1 99.05 -160.4 95.9 Q-159.5 92.8 -169.15 93.6 L-178.6 94.75 -182.25 95.2 Q-220.0 95.65 -228.6 83.85 L-229.2 83.05 -229.45 71.9 -229.5 55.1 -229.4 55.1 Q-228.0 55.0 -227.6 53.85 L-226.25 50.4 Q-223.7 45.85 -223.7 39.05 -223.7 32.3 -226.25 27.7 -226.8 26.85 -227.3 24.45 -227.6 23.2 -228.75 23.0 -228.95 23.0 -229.05 15.25 L-228.3 -15.25 Q-227.75 -30.9 -225.9 -37.3 -223.7 -45.0 -216.65 -58.05 L-217.15 -30.15 -215.45 -30.3 -209.9 -30.9 -210.6 -39.65 -214.25 -39.65 -214.1 -45.1 Q-213.4 -48.0 -211.2 -52.6 L-209.15 -56.6 -209.15 -49.1 Q-209.15 -47.95 -208.3 -47.05 -207.4 -46.2 -206.25 -46.2 -205.1 -46.2 -204.2 -47.05 -203.35 -47.95 -203.35 -49.1 L-203.35 -66.7 -199.9 -71.9 -197.35 -75.65 -181.7 -98.3 -162.95 -125.3 -172.75 -125.6 M69.75 -103.25 Q69.75 -114.9 58.1 -114.9 L-10.35 -114.9 Q-22.0 -114.9 -22.0 -103.25 L-22.0 -58.85 Q-22.0 -47.2 -10.35 -47.2 L58.1 -47.2 Q69.75 -47.2 69.75 -58.85 L69.75 -103.25 M93.4 -114.9 Q81.75 -114.9 81.75 -103.25 L81.75 -58.85 Q81.75 -47.2 93.4 -47.2 L161.8 -47.2 Q173.45 -47.2 173.45 -58.85 L173.45 -103.25 Q173.45 -114.9 161.8 -114.9 L93.4 -114.9 M-140.75 -115.5 L-156.4 -115.5 Q-158.5 -115.5 -163.15 -110.6 L-164.55 -109.1 Q-170.5 -102.55 -179.95 -89.15 -188.25 -77.4 -197.35 -63.5 L-200.05 -59.45 Q-204.05 -53.75 -199.4 -50.5 -198.45 -49.8 -197.35 -49.3 -193.9 -47.8 -188.4 -47.8 L-173.35 -47.8 -140.75 -115.5 M-215.45 -8.05 Q-215.7 -21.0 -215.45 -30.3 -215.7 -21.0 -215.45 -8.05 -204.65 -18.95 -181.95 -25.15 -161.1 -30.75 -128.15 -33.0 -106.6 -34.45 -77.45 -34.25 -47.1 -33.6 -36.0 -33.5 -47.1 -33.6 -77.45 -34.25 -106.6 -34.45 -128.15 -33.0 -161.1 -30.75 -181.95 -25.15 -204.65 -18.95 -215.45 -8.05 -215.8 14.95 -214.6 52.9 L-213.3 88.7 -190.15 90.7 -178.6 91.1 Q-166.0 91.1 -164.55 88.7 -162.65 85.5 -160.3 79.25 L-156.3 68.6 Q-150.95 55.65 -141.95 51.6 -131.05 46.55 -82.3 46.4 L-35.7 47.2 Q-35.45 44.3 -35.6 18.05 L-36.0 -33.5 -35.6 18.05 Q-35.45 44.3 -35.7 47.2 L-82.3 46.4 Q-131.05 46.55 -141.95 51.6 -150.95 55.65 -156.3 68.6 L-160.3 79.25 Q-162.65 85.5 -164.55 88.7 -166.0 91.1 -178.6 91.1 L-190.15 90.7 -213.3 88.7 -214.6 52.9 Q-215.8 14.95 -215.45 -8.05 -218.75 -4.6 -223.05 3.1 -226.4 9.05 -229.05 15.25 -226.4 9.05 -223.05 3.1 -218.75 -4.6 -215.45 -8.05 M-35.9 -125.55 L-36.1 -97.8 Q-36.25 -65.75 -36.0 -33.5 -36.25 -65.75 -36.1 -97.8 L-35.9 -125.55 M-225.85 -16.5 Q-225.85 -15.3 -224.8 -12.4 -224.55 -11.55 -224.0 -11.15 L-223.0 -10.75 -222.35 -10.65 -221.7 -10.75 Q-220.65 -11.1 -219.85 -12.4 -218.85 -14.1 -218.85 -16.5 -218.85 -18.9 -219.85 -20.65 -220.9 -22.3 -222.35 -22.3 -223.8 -22.3 -224.8 -20.65 -225.85 -18.9 -225.85 -16.5 M-168.6 -47.8 L-55.9 -47.8 Q-44.3 -47.8 -44.3 -59.45 L-44.3 -103.85 Q-44.3 -115.5 -55.9 -115.5 L-136.35 -115.5 -168.6 -47.8 M-45.0 -11.8 L-63.95 -11.8 Q-65.9 -11.8 -67.3 -10.45 -68.65 -9.05 -68.65 -7.1 -68.65 -5.1 -67.3 -3.75 -65.9 -2.35 -63.95 -2.35 L-45.0 -2.35 Q-43.05 -2.35 -41.65 -3.75 -40.25 -5.1 -40.25 -7.1 -40.25 -9.05 -41.65 -10.45 -43.05 -11.8 -45.0 -11.8 -43.05 -11.8 -41.65 -10.45 -40.25 -9.05 -40.25 -7.1 -40.25 -5.1 -41.65 -3.75 -43.05 -2.35 -45.0 -2.35 L-63.95 -2.35 Q-65.9 -2.35 -67.3 -3.75 -68.65 -5.1 -68.65 -7.1 -68.65 -9.05 -67.3 -10.45 -65.9 -11.8 -63.95 -11.8 L-45.0 -11.8 M-36.0 -33.5 L228.5 -35.05 -36.0 -33.5" fill="#ffffff" fill-opacity="0.0" fill-rule="evenodd" stroke="none"/>
    <path d="M-172.75 -125.6 L-162.95 -125.3 -35.9 -125.55 209.0 -126.05 M-216.65 -58.05 L-216.45 -67.3 -211.4 -67.3 M-209.15 -71.1 L-209.15 -76.75 Q-209.15 -77.9 -208.3 -78.8 -207.4 -79.65 -206.25 -79.65 -205.15 -79.65 -204.35 -78.95 L-203.7 -78.45 Q-203.2 -77.8 -203.35 -76.75 L-203.35 -75.95 -203.35 -66.7 -203.35 -49.1 Q-203.35 -47.95 -204.2 -47.05 -205.1 -46.2 -206.25 -46.2 -207.4 -46.2 -208.3 -47.05 -209.15 -47.95 -209.15 -49.1 L-209.15 -56.6 -211.2 -52.6 Q-213.4 -48.0 -214.1 -45.1 L-214.25 -39.65 -210.6 -39.65 -209.9 -30.9 -215.45 -30.3 M191.45 108.1 Q189.2 104.95 187.6 99.55 186.65 96.35 199.6 95.8 212.7 96.6 215.75 95.9 220.35 94.9 225.15 91.55 227.55 89.2 228.75 75.35 M-140.75 -115.5 L-173.35 -47.8 M-162.95 -125.3 L-181.7 -98.3 -197.35 -75.65 -199.9 -71.9 -203.35 -66.7 M-215.45 -8.05 Q-204.65 -18.95 -181.95 -25.15 -161.1 -30.75 -128.15 -33.0 -106.6 -34.45 -77.45 -34.25 -47.1 -33.6 -36.0 -33.5 L228.5 -35.05 M-209.15 -71.1 L-209.15 -67.3 -209.15 -62.95 -209.15 -56.6 M-211.2 -67.3 L-209.15 -67.3 M-209.15 -62.95 L-211.2 -62.95 -213.55 -62.95 -214.1 -45.1 M-217.15 -30.15 L-216.65 -58.05 M-225.85 -16.5 Q-225.85 -15.3 -224.8 -12.4 -224.55 -11.55 -224.0 -11.15 L-223.0 -10.75 -222.35 -10.65 -221.7 -10.75 Q-220.65 -11.1 -219.85 -12.4 -218.85 -14.1 -218.85 -16.5 -218.85 -18.9 -219.85 -20.65 -220.9 -22.3 -222.35 -22.3 -223.8 -22.3 -224.8 -20.65 -225.85 -18.9 -225.85 -16.5 M-168.6 -47.8 L-136.35 -115.5 M-45.0 -11.8 Q-43.05 -11.8 -41.65 -10.45 -40.25 -9.05 -40.25 -7.1 -40.25 -5.1 -41.65 -3.75 -43.05 -2.35 -45.0 -2.35 L-63.95 -2.35 Q-65.9 -2.35 -67.3 -3.75 -68.65 -5.1 -68.65 -7.1 -68.65 -9.05 -67.3 -10.45 -65.9 -11.8 -63.95 -11.8 L-45.0 -11.8 M-215.45 -8.05 Q-218.75 -4.6 -223.05 3.1 -226.4 9.05 -229.05 15.25 M-229.45 71.9 L-229.2 83.05 -228.6 83.85 Q-220.0 95.65 -182.25 95.2 L-178.6 94.75 -169.15 93.6 Q-159.5 92.8 -160.4 95.9 L-161.1 99.05" fill="none" stroke="#000000" stroke-linecap="round" stroke-linejoin="round" stroke-opacity="0.6" stroke-width="1.0"/>
    <path d="M93.4 -114.9 L161.8 -114.9 Q173.45 -114.9 173.45 -103.25 L173.45 -58.85 Q173.45 -47.2 161.8 -47.2 L93.4 -47.2 Q81.75 -47.2 81.75 -58.85 L81.75 -103.25 Q81.75 -114.9 93.4 -114.9 M69.75 -103.25 L69.75 -58.85 Q69.75 -47.2 58.1 -47.2 L-10.35 -47.2 Q-22.0 -47.2 -22.0 -58.85 L-22.0 -103.25 Q-22.0 -114.9 -10.35 -114.9 L58.1 -114.9 Q69.75 -114.9 69.75 -103.25 M209.0 -126.05 Q203.7 -134.0 184.95 -144.8 163.7 -157.15 147.85 -158.15 128.25 -159.4 21.05 -159.9 -89.7 -160.4 -108.5 -158.85 -133.25 -156.85 -156.55 -148.45 -184.05 -138.5 -181.3 -127.5 -181.0 -126.1 -172.75 -125.6 -178.1 -118.9 -197.75 -89.05 L-204.35 -78.95 M209.0 -126.05 L211.55 -120.3 213.7 -114.6 Q217.5 -103.25 221.45 -85.55 224.55 -71.6 227.9 -46.75 L228.5 -35.05 Q229.9 9.0 229.95 29.6 230.1 59.75 228.75 75.35 231.2 74.6 236.3 77.35 242.25 80.65 242.7 87.7 244.15 109.4 218.15 114.25 L217.5 114.35 Q210.65 115.2 204.05 114.2 196.75 113.05 193.55 110.35 L191.45 108.1 Q184.7 107.8 182.8 106.2 180.65 104.45 174.1 89.45 167.95 75.25 166.05 74.9 164.6 74.6 151.25 74.65 141.15 74.65 124.1 74.95 L85.55 75.55 Q67.1 75.9 56.9 76.35 L45.1 77.05 Q40.6 77.85 33.6 92.2 26.85 106.2 25.45 106.2 L-46.1 105.95 Q-48.15 104.95 -50.75 99.95 L-57.4 85.5 Q-67.45 63.55 -77.4 59.5 -85.75 56.1 -96.7 55.1 -109.6 53.9 -120.55 56.85 -149.55 64.45 -153.85 96.65 -154.05 98.4 -156.55 98.9 L-159.15 99.05 -161.1 99.05 -161.55 101.4 Q-162.5 104.65 -165.0 106.7 -169.0 110.05 -178.6 111.3 L-194.6 111.95 Q-216.0 111.45 -225.35 108.2 -243.95 101.9 -242.7 83.55 -242.3 76.5 -236.3 73.2 -231.2 70.45 -229.45 71.9 L-229.5 55.1 -229.6 55.1 Q-233.2 55.1 -235.65 50.35 -238.2 45.6 -238.2 39.0 -238.2 32.35 -235.65 27.65 -233.2 22.9 -229.6 22.9 -229.4 22.9 -229.05 15.25 L-228.3 -15.25 Q-227.75 -30.9 -225.9 -37.3 -223.7 -45.0 -216.65 -58.05 M-211.4 -67.3 L-211.2 -67.65 -209.15 -71.1 M227.9 -46.75 L196.6 -46.75 Q184.95 -46.75 184.95 -58.4 L184.95 -102.8 Q184.95 -114.45 196.6 -114.45 L213.7 -114.6 M-173.35 -47.8 L-188.4 -47.8 Q-193.9 -47.8 -197.35 -49.3 -198.45 -49.8 -199.4 -50.5 -204.05 -53.75 -200.05 -59.45 L-197.35 -63.5 Q-188.25 -77.4 -179.95 -89.15 -170.5 -102.55 -164.55 -109.1 L-163.15 -110.6 Q-158.5 -115.5 -156.4 -115.5 L-140.75 -115.5 M-211.4 -67.3 L-211.2 -67.3 M-215.45 -30.3 L-217.15 -30.15 M-136.35 -115.5 L-55.9 -115.5 Q-44.3 -115.5 -44.3 -103.85 L-44.3 -59.45 Q-44.3 -47.8 -55.9 -47.8 L-168.6 -47.8 M-229.4 55.1 L-229.5 55.1" fill="none" stroke="#000000" stroke-linecap="round" stroke-linejoin="round" stroke-width="1.0"/>
    <path d="M-229.05 15.25 Q-228.95 23.0 -228.75 23.0 -227.6 23.2 -227.3 24.45 -226.8 26.85 -226.25 27.7 -223.7 32.3 -223.7 39.05 -223.7 45.85 -226.25 50.4 L-227.6 53.85 Q-228.0 55.0 -229.4 55.1" fill="none" stroke="#000000" stroke-linecap="round" stroke-linejoin="round" stroke-opacity="0.64705884" stroke-width="1.0"/>
    <path d="M-215.45 -30.3 Q-215.7 -21.0 -215.45 -8.05 -215.8 14.95 -214.6 52.9 L-213.3 88.7 -190.15 90.7 -178.6 91.1 Q-166.0 91.1 -164.55 88.7 -162.65 85.5 -160.3 79.25 L-156.3 68.6 Q-150.95 55.65 -141.95 51.6 -131.05 46.55 -82.3 46.4 L-35.7 47.2 Q-35.45 44.3 -35.6 18.05 L-36.0 -33.5 Q-36.25 -65.75 -36.1 -97.8 L-35.9 -125.55" fill="none" stroke="#000000" stroke-linecap="round" stroke-linejoin="round" stroke-opacity="0.4" stroke-width="1.0"/>
  </g>
</svg>
