<?xml version="1.0" encoding="UTF-8" standalone="no"?>
<svg xmlns:xlink="http://www.w3.org/1999/xlink" height="12.95px" width="16.1px" xmlns="http://www.w3.org/2000/svg">
  <g transform="matrix(1.0, 0.0, 0.0, 1.0, 8.05, 15.0)">
    <path d="M-7.55 -13.5 L7.55 -13.6 7.55 -11.65 -7.55 -11.55 -7.55 -13.5 M7.55 -10.8 L7.55 -8.9 -7.55 -8.8 -7.55 -10.7 7.55 -10.8 M7.55 -8.0 L7.55 -6.15 -7.55 -6.05 -7.55 -7.9 7.55 -8.0 M7.55 -5.25 L7.55 -3.35 -7.55 -3.3 -7.55 -5.15 7.55 -5.25" fill="#ffffff" fill-opacity="0.0" fill-rule="evenodd" stroke="none"/>
    <path d="M7.55 -14.5 L7.55 -13.6 -7.55 -13.5 -7.55 -14.25 -7.55 -14.4 7.55 -14.5 M7.55 -11.65 L7.55 -10.8 -7.55 -10.7 -7.55 -11.55 7.55 -11.65 M7.55 -8.9 L7.55 -8.0 -7.55 -7.9 -7.55 -8.8 7.55 -8.9 M7.55 -6.15 L7.55 -5.25 -7.55 -5.15 -7.55 -6.05 7.55 -6.15 M7.55 -3.35 L7.55 -2.6 -7.55 -2.55 -7.55 -3.3 7.55 -3.35" fill="#000000" fill-opacity="0.101960786" fill-rule="evenodd" stroke="none"/>
    <path d="M7.55 -14.5 L-7.55 -14.4 -7.55 -14.25" fill="none" stroke="#000000" stroke-linecap="round" stroke-linejoin="round" stroke-width="1.0"/>
    <path d="M7.55 -13.6 L7.55 -14.5 M-7.55 -14.25 L-7.55 -13.5 -7.55 -11.55 -7.55 -10.7 -7.55 -8.8 -7.55 -7.9 -7.55 -6.05 -7.55 -5.15 -7.55 -3.3 -7.55 -2.55 M7.55 -13.6 L7.55 -11.65 7.55 -10.8 7.55 -8.9 7.55 -8.0 7.55 -6.15 7.55 -5.25 7.55 -3.35 7.55 -2.6" fill="none" stroke="#000000" stroke-linecap="round" stroke-linejoin="round" stroke-opacity="0.6" stroke-width="1.0"/>
    <path d="M7.55 -2.6 L-7.55 -2.55" fill="none" stroke="#000000" stroke-linecap="round" stroke-linejoin="round" stroke-opacity="0.4" stroke-width="1.0"/>
  </g>
</svg>
