<?xml version="1.0" encoding="UTF-8" standalone="no"?>
<svg xmlns:xlink="http://www.w3.org/1999/xlink" height="47.9px" width="27.6px" xmlns="http://www.w3.org/2000/svg">
  <g transform="matrix(1.0, 0.0, 0.0, 1.0, 13.9, 27.85)">
    <path d="M6.15 18.8 L6.15 18.85 6.15 18.8" fill="#f4e071" fill-rule="evenodd" stroke="none"/>
    <path d="M-12.85 -20.4 L-13.4 -20.8 Q-10.35 -21.45 -8.15 -24.35 -7.3 -25.45 -6.8 -26.5 L-6.55 -27.15 6.45 -27.35 6.85 -26.35 Q7.85 -24.45 10.3 -22.65 11.85 -21.5 13.2 -20.85 L12.85 -20.55 11.4 -20.15 10.95 -20.25 Q8.8 -21.7 7.15 -24.1 L5.9 -26.25 5.55 -26.1 6.7 -24.05 Q8.25 -21.75 10.3 -20.25 9.3 -19.55 8.3 -19.75 L7.65 -19.95 Q6.0 -21.55 5.0 -24.0 L4.3 -26.15 3.9 -26.1 4.6 -23.95 Q5.55 -21.65 7.05 -20.0 L4.75 -19.7 3.6 -20.05 3.6 -20.1 Q2.9 -21.8 2.55 -24.1 L2.35 -26.1 1.95 -26.1 2.15 -24.05 Q2.5 -21.7 3.2 -20.0 L3.25 -19.95 0.95 -19.75 -0.25 -20.05 -0.25 -20.1 -0.65 -26.2 -1.05 -26.2 -0.65 -20.0 -0.65 -19.95 -3.1 -19.7 -4.1 -20.05 Q-2.85 -22.8 -2.7 -26.15 L-3.1 -26.15 Q-3.2 -22.75 -4.55 -20.0 L-4.5 -20.0 -6.35 -19.85 -7.2 -20.1 Q-5.0 -22.95 -4.35 -26.1 L-4.75 -26.2 Q-5.1 -24.25 -6.45 -22.0 L-7.7 -20.1 -7.7 -20.05 -9.45 -19.85 -9.95 -20.1 Q-6.8 -22.85 -5.45 -26.15 L-5.8 -26.3 Q-6.75 -23.9 -8.7 -21.85 L-10.4 -20.25 -12.65 -20.2 -12.85 -20.4 M-8.65 -2.75 L-9.0 -3.05 Q-8.2 -3.2 -7.45 -3.6 -6.25 -4.3 -5.3 -5.55 L-4.2 -7.5 4.9 -7.65 5.05 -7.35 5.1 -7.25 5.1 -7.2 Q5.7 -5.75 7.6 -4.35 L9.6 -3.1 9.35 -2.85 8.35 -2.6 8.05 -2.65 7.8 -2.8 Q6.4 -3.85 5.4 -5.35 L4.5 -6.85 4.25 -6.75 5.1 -5.3 Q6.15 -3.7 7.6 -2.65 L7.7 -2.7 Q6.95 -2.15 6.15 -2.3 L5.75 -2.4 5.75 -2.45 Q4.55 -3.55 3.85 -5.25 L3.4 -6.8 3.1 -6.75 3.6 -5.2 Q4.25 -3.6 5.35 -2.45 L3.7 -2.3 2.9 -2.5 2.6 -3.3 2.5 -3.8 2.35 -4.4 2.15 -5.35 2.0 -6.75 1.75 -6.75 1.9 -5.3 2.05 -4.4 2.2 -3.8 2.65 -2.55 2.65 -2.5 1.05 -2.3 0.2 -2.5 -0.05 -6.85 -0.35 -6.8 -0.1 -2.45 0.1 -2.55 Q-0.65 -2.05 -1.5 -2.2 L-1.8 -2.25 -2.5 -2.5 -1.7 -5.35 -1.55 -6.8 -1.8 -6.8 -2.1 -4.4 -2.25 -3.9 -2.8 -2.5 -2.65 -2.6 Q-3.1 -2.2 -4.05 -2.35 L-4.9 -2.6 -4.7 -2.55 Q-3.1 -4.55 -2.7 -6.75 L-2.95 -6.8 Q-3.4 -4.65 -4.9 -2.6 L-4.95 -2.55 -6.25 -2.35 -6.55 -2.5 Q-4.5 -4.2 -3.45 -6.75 L-3.7 -6.85 Q-4.75 -4.2 -6.9 -2.65 L-8.5 -2.6 -8.65 -2.75 M6.15 18.8 Q4.95 17.7 4.25 16.0 L3.8 14.45 3.5 14.5 4.0 16.05 Q4.65 17.65 5.75 18.8 L4.1 18.95 3.3 18.75 3.0 17.95 2.9 17.45 2.75 16.85 2.55 15.9 2.4 14.5 2.15 14.5 2.3 15.95 2.45 16.85 2.6 17.45 3.05 18.7 3.05 18.75 1.45 18.95 0.6 18.75 0.35 14.4 0.05 14.45 0.3 18.85 -1.1 19.05 -1.4 19.0 -2.1 18.75 -1.3 15.9 -1.15 14.45 -1.4 14.45 -1.7 16.85 -1.85 17.35 -2.4 18.75 -3.65 18.9 -4.5 18.65 -4.3 18.7 Q-2.7 16.7 -2.3 14.5 L-2.55 14.45 Q-3.0 16.6 -4.5 18.65 L-4.55 18.7 -5.85 18.9 -6.15 18.75 Q-4.1 17.05 -3.05 14.5 L-3.3 14.4 Q-4.35 17.05 -6.5 18.6 L-8.1 18.65 -8.25 18.5 -8.6 18.2 -7.05 17.65 Q-5.85 16.95 -4.9 15.7 L-3.8 13.75 5.3 13.6 5.5 14.05 Q6.15 15.5 8.0 16.9 L10.0 18.15 9.75 18.4 8.75 18.65 8.45 18.6 8.2 18.45 Q6.8 17.4 5.8 15.9 L4.9 14.4 4.65 14.5 5.5 15.95 Q6.55 17.55 8.0 18.6 L8.0 18.65 Q7.3 19.1 6.55 18.95 L6.15 18.85 6.15 18.8" fill="#ffffff" fill-opacity="0.0" fill-rule="evenodd" stroke="none"/>
    <path d="M-12.85 -20.4 L-12.65 -20.2 -10.4 -20.25 -8.7 -21.85 Q-6.75 -23.9 -5.8 -26.3 L-5.45 -26.15 Q-6.8 -22.85 -9.95 -20.1 L-9.45 -19.85 -7.7 -20.05 -7.7 -20.1 -6.45 -22.0 Q-5.1 -24.25 -4.75 -26.2 L-4.35 -26.1 Q-5.0 -22.95 -7.2 -20.1 L-6.35 -19.85 -4.5 -20.0 -4.55 -20.0 Q-3.2 -22.75 -3.1 -26.15 L-2.7 -26.15 Q-2.85 -22.8 -4.1 -20.05 L-3.1 -19.7 -0.65 -19.95 -0.65 -20.0 -1.05 -26.2 -0.65 -26.2 -0.25 -20.1 -0.25 -20.05 0.95 -19.75 3.25 -19.95 3.2 -20.0 Q2.5 -21.7 2.15 -24.05 L1.95 -26.1 2.35 -26.1 2.55 -24.1 Q2.9 -21.8 3.6 -20.1 L3.6 -20.05 4.75 -19.7 7.05 -20.0 Q5.55 -21.65 4.6 -23.95 L3.9 -26.1 4.3 -26.15 5.0 -24.0 Q6.0 -21.55 7.65 -19.95 L8.3 -19.75 Q9.3 -19.55 10.3 -20.25 8.25 -21.75 6.7 -24.05 L5.55 -26.1 5.9 -26.25 7.15 -24.1 Q8.8 -21.7 10.95 -20.25 L11.4 -20.15 12.85 -20.55 13.2 -20.3 13.1 -20.15 13.0 -20.05 12.95 -20.05 12.75 -19.9 12.3 -19.7 11.65 -19.55 11.4 -19.55 10.45 -19.75 Q9.4 -18.9 8.3 -19.1 L7.35 -19.45 Q6.25 -18.8 4.75 -19.1 L3.45 -19.5 Q2.5 -18.85 0.95 -19.1 L-0.4 -19.5 Q-1.7 -18.7 -3.1 -19.05 L-4.35 -19.5 Q-5.05 -18.9 -6.35 -19.2 L-7.5 -19.6 Q-8.45 -18.9 -9.45 -19.2 L-10.25 -19.65 -12.25 -19.6 -12.65 -19.6 -12.95 -19.85 -13.4 -20.25 -12.85 -20.4 M-8.65 -2.75 L-8.5 -2.6 -6.9 -2.65 Q-4.75 -4.2 -3.7 -6.85 L-3.45 -6.75 Q-4.5 -4.2 -6.55 -2.5 L-6.25 -2.35 -4.95 -2.55 -4.9 -2.6 Q-3.4 -4.65 -2.95 -6.8 L-2.7 -6.75 Q-3.1 -4.55 -4.7 -2.55 L-4.9 -2.6 -4.05 -2.35 Q-3.1 -2.2 -2.65 -2.6 L-2.8 -2.5 -2.25 -3.9 -2.1 -4.4 -1.8 -6.8 -1.55 -6.8 -1.7 -5.35 -2.5 -2.5 -1.8 -2.25 -1.5 -2.2 Q-0.65 -2.05 0.1 -2.55 L-0.1 -2.45 -0.35 -6.8 -0.05 -6.85 0.2 -2.5 1.05 -2.3 2.65 -2.5 2.65 -2.55 2.2 -3.8 2.05 -4.4 1.9 -5.3 1.75 -6.75 2.0 -6.75 2.15 -5.35 2.35 -4.4 2.5 -3.8 2.6 -3.3 2.9 -2.5 3.7 -2.3 5.35 -2.45 Q4.25 -3.6 3.6 -5.2 L3.1 -6.75 3.4 -6.8 3.85 -5.25 Q4.55 -3.55 5.75 -2.45 L5.75 -2.4 6.15 -2.3 Q6.95 -2.15 7.7 -2.7 L7.6 -2.65 Q6.15 -3.7 5.1 -5.3 L4.25 -6.75 4.5 -6.85 5.4 -5.35 Q6.4 -3.85 7.8 -2.8 L8.05 -2.65 8.35 -2.6 9.35 -2.85 9.6 -2.7 Q9.1 -2.15 8.35 -2.15 L7.7 -2.3 Q6.95 -1.7 6.15 -1.85 L5.5 -2.1 Q4.55 -1.55 3.75 -1.8 L2.8 -2.1 2.65 -2.0 1.05 -1.8 0.8 -1.85 0.1 -2.1 Q-0.6 -1.65 -1.5 -1.75 L-1.8 -1.8 -2.65 -2.15 Q-3.1 -1.7 -4.05 -1.9 L-4.9 -2.2 Q-5.55 -1.7 -6.25 -1.9 L-6.8 -2.2 Q-7.15 -2.05 -7.45 -2.0 L-8.5 -2.2 -9.0 -2.65 -8.65 -2.75 M-8.25 18.5 L-8.1 18.65 -6.5 18.6 Q-4.35 17.05 -3.3 14.4 L-3.05 14.5 Q-4.1 17.05 -6.15 18.75 L-5.85 18.9 -4.55 18.7 -4.5 18.65 Q-3.0 16.6 -2.55 14.45 L-2.3 14.5 Q-2.7 16.7 -4.3 18.7 L-4.5 18.65 -3.65 18.9 -2.4 18.75 -1.85 17.35 -1.7 16.85 -1.4 14.45 -1.15 14.45 -1.3 15.9 -2.1 18.75 -1.4 19.0 -1.1 19.05 0.3 18.85 0.05 14.45 0.35 14.4 0.6 18.75 1.45 18.95 3.05 18.75 3.05 18.7 2.6 17.45 2.45 16.85 2.3 15.95 2.15 14.5 2.4 14.5 2.55 15.9 2.75 16.85 2.9 17.45 3.0 17.95 3.3 18.75 4.1 18.95 5.75 18.8 Q4.65 17.65 4.0 16.05 L3.5 14.5 3.8 14.45 4.25 16.0 Q4.95 17.7 6.15 18.8 L6.15 18.85 6.55 18.95 Q7.3 19.1 8.0 18.65 L8.0 18.6 Q6.55 17.55 5.5 15.95 L4.65 14.5 4.9 14.4 5.8 15.9 Q6.8 17.4 8.2 18.45 L8.45 18.6 8.75 18.65 9.75 18.4 10.0 18.55 Q9.5 19.1 8.75 19.1 L8.1 18.95 Q7.35 19.55 6.55 19.4 L5.9 19.15 Q4.95 19.7 4.15 19.45 L3.2 19.15 3.05 19.25 1.45 19.45 1.2 19.4 0.5 19.15 Q-0.2 19.6 -1.1 19.5 L-1.4 19.45 -2.25 19.1 Q-2.7 19.55 -3.65 19.35 L-4.5 19.05 Q-5.15 19.55 -5.85 19.35 L-6.4 19.05 -7.05 19.25 -8.1 19.05 -8.6 18.6 -8.25 18.5" fill="#000000" fill-opacity="0.101960786" fill-rule="evenodd" stroke="none"/>
    <path d="M13.1 -20.15 L13.0 -20.05 12.95 -20.05 12.75 -19.9 12.3 -19.7 11.65 -19.55 M-12.25 -19.6 L-12.65 -19.6 -12.95 -19.85" fill="none" stroke="#000000" stroke-linecap="round" stroke-linejoin="round" stroke-width="1.0"/>
    <path d="M12.85 -20.55 L13.2 -20.85 Q11.85 -21.5 10.3 -22.65 7.85 -24.45 6.85 -26.35 L6.45 -27.35 -6.55 -27.15 -6.8 -26.5 Q-7.3 -25.45 -8.15 -24.35 -10.35 -21.45 -13.4 -20.8 L-12.85 -20.4 M9.35 -2.85 L9.6 -3.1 7.6 -4.35 Q5.7 -5.75 5.1 -7.2 L5.1 -7.25 5.05 -7.35 4.9 -7.65 -4.2 -7.5 -5.3 -5.55 Q-6.25 -4.3 -7.45 -3.6 -8.2 -3.2 -9.0 -3.05 L-8.65 -2.75 -9.0 -2.65 -8.5 -2.2 -7.45 -2.0 Q-7.15 -2.05 -6.8 -2.2 L-6.25 -1.9 Q-5.55 -1.7 -4.9 -2.2 L-4.05 -1.9 Q-3.1 -1.7 -2.65 -2.15 L-1.8 -1.8 -1.5 -1.75 Q-0.6 -1.65 0.1 -2.1 L0.8 -1.85 1.05 -1.8 2.65 -2.0 2.8 -2.1 3.75 -1.8 Q4.55 -1.55 5.5 -2.1 L6.15 -1.85 Q6.95 -1.7 7.7 -2.3 L8.35 -2.15 Q9.1 -2.15 9.6 -2.7 L9.35 -2.85 M9.75 18.4 L10.0 18.15 8.0 16.9 Q6.15 15.5 5.5 14.05 L5.3 13.6 -3.8 13.75 -4.9 15.7 Q-5.85 16.95 -7.05 17.65 L-8.6 18.2 -8.25 18.5 -8.6 18.6 -8.1 19.05 -7.05 19.25 -6.4 19.05 -5.85 19.35 Q-5.15 19.55 -4.5 19.05 L-3.65 19.35 Q-2.7 19.55 -2.25 19.1 L-1.4 19.45 -1.1 19.5 Q-0.2 19.6 0.5 19.15 L1.2 19.4 1.45 19.45 3.05 19.25 3.2 19.15 4.15 19.45 Q4.95 19.7 5.9 19.15 L6.55 19.4 Q7.35 19.55 8.1 18.95 L8.75 19.1 Q9.5 19.1 10.0 18.55 L9.75 18.4" fill="none" stroke="#000000" stroke-linecap="round" stroke-linejoin="round" stroke-opacity="0.6" stroke-width="1.0"/>
    <path d="M12.85 -20.55 L13.2 -20.3 13.1 -20.15 M11.65 -19.55 L11.4 -19.55 10.45 -19.75 Q9.4 -18.9 8.3 -19.1 L7.35 -19.45 Q6.25 -18.8 4.75 -19.1 L3.45 -19.5 Q2.5 -18.85 0.95 -19.1 L-0.4 -19.5 Q-1.7 -18.7 -3.1 -19.05 L-4.35 -19.5 Q-5.05 -18.9 -6.35 -19.2 L-7.5 -19.6 Q-8.45 -18.9 -9.45 -19.2 L-10.25 -19.65 -12.25 -19.6 M-12.95 -19.85 L-13.4 -20.25 -12.85 -20.4" fill="none" stroke="#000000" stroke-linecap="round" stroke-linejoin="round" stroke-opacity="0.6" stroke-width="1.0"/>
  </g>
</svg>
