<?xml version="1.0" encoding="UTF-8" standalone="no"?>
<svg xmlns:xlink="http://www.w3.org/1999/xlink" height="75.3px" width="46.3px" xmlns="http://www.w3.org/2000/svg">
  <g transform="matrix(1.0, 0.0, 0.0, 1.0, 23.15, 36.8)">
    <path d="M0.0 -33.35 Q13.05 -34.3 18.15 -36.8 L18.2 -35.8 Q18.35 -34.7 18.7 -34.25 L20.6 -31.5 22.75 -28.0 23.0 -27.35 Q23.25 -26.3 23.05 -24.35 L23.05 29.8 22.85 31.8 Q22.3 34.0 20.4 35.1 18.8 36.0 15.45 36.85 8.8 38.6 0.0 38.5 -8.8 38.6 -15.5 36.85 L-20.45 35.1 Q-22.35 34.0 -22.9 31.8 L-23.1 29.8 -23.1 -24.35 Q-23.25 -26.3 -23.05 -27.35 L-22.8 -28.0 -20.6 -31.5 -18.75 -34.25 Q-18.4 -34.7 -18.25 -35.8 L-18.2 -36.8 Q-13.05 -34.3 0.0 -33.35" fill="#ffffff" fill-opacity="0.0" fill-rule="evenodd" stroke="none"/>
    <path d="M-16.5 -33.45 L-16.15 -34.4 -16.15 -31.05 -19.1 -25.8 -19.55 4.35 -21.0 5.55 -21.0 -26.65 -19.5 -29.0 -17.45 -31.7 Q-16.9 -32.35 -16.5 -33.45" fill="#ffffff" fill-opacity="0.8" fill-rule="evenodd" stroke="none"/>
    <path d="M-21.0 32.45 L-21.0 24.0 -18.95 21.15 -19.1 33.95 -21.0 32.45" fill="#ffffff" fill-opacity="0.8" fill-rule="evenodd" stroke="none"/>
  </g>
</svg>
