<?xml version="1.0" encoding="UTF-8" standalone="no"?>
<svg xmlns:xlink="http://www.w3.org/1999/xlink" height="8.8px" width="15.4px" xmlns="http://www.w3.org/2000/svg">
  <g transform="matrix(1.0, 0.0, 0.0, 1.0, 7.6, 10.6)">
    <path d="M-6.35 -8.3 L-6.4 -8.35 -6.35 -8.3" fill="#111011" fill-rule="evenodd" stroke="none"/>
    <path d="M6.95 -6.2 Q6.95 -4.75 6.1 -3.75 L5.1 -2.95 4.1 -2.7 Q2.95 -2.7 2.15 -3.75 1.3 -4.75 1.35 -6.2 1.3 -7.45 1.9 -8.3 L2.15 -8.65 2.5 -8.95 2.6 -9.05 2.65 -9.1 Q3.25 -9.65 4.1 -9.65 L5.1 -9.45 6.1 -8.65 Q6.95 -7.65 6.95 -6.2 M3.15 -8.1 L4.65 -6.6 4.65 -6.45 4.75 -6.0 4.65 -5.4 Q4.6 -4.4 4.95 -3.8 5.3 -5.05 4.95 -6.15 L5.1 -6.45 4.85 -6.9 4.7 -6.8 Q4.0 -8.6 2.8 -9.0 L2.65 -9.05 3.15 -8.1 M-6.35 -8.3 L-6.2 -8.6 Q-5.6 -9.6 -4.8 -9.6 -3.95 -9.6 -3.35 -8.6 -2.75 -7.65 -2.75 -6.25 -2.75 -4.85 -3.35 -3.9 -3.95 -2.9 -4.8 -2.9 -5.6 -2.9 -6.2 -3.9 -6.8 -4.85 -6.8 -6.25 -6.8 -7.45 -6.35 -8.3 L-6.05 -7.7 -4.95 -6.6 -5.05 -6.3 -4.95 -5.9 -5.05 -5.3 Q-5.1 -4.5 -4.8 -4.0 -4.5 -5.05 -4.8 -5.95 L-4.7 -6.3 -4.9 -6.65 Q-5.45 -8.05 -6.35 -8.3" fill="#ffffff" fill-opacity="0.0" fill-rule="evenodd" stroke="none"/>
    <path d="M6.95 -6.2 Q6.95 -7.65 6.1 -8.65 L5.1 -9.45 4.1 -9.65 Q3.25 -9.65 2.65 -9.1 L2.6 -9.05 2.5 -8.95 2.15 -8.65 1.9 -8.3 Q1.3 -7.45 1.35 -6.2 1.3 -4.75 2.15 -3.75 2.95 -2.7 4.1 -2.7 L5.1 -2.95 6.1 -3.75 Q6.95 -4.75 6.95 -6.2 M7.3 -6.2 Q7.3 -4.6 6.4 -3.45 5.45 -2.3 4.15 -2.3 2.85 -2.3 1.95 -3.45 1.05 -4.6 1.05 -6.2 1.05 -7.8 1.95 -8.95 2.85 -10.1 4.15 -10.1 5.45 -10.1 6.4 -8.95 7.3 -7.8 7.3 -6.2" fill="#000000" fill-opacity="0.101960786" fill-rule="evenodd" stroke="none"/>
    <path d="M3.15 -8.1 L2.65 -9.05 2.8 -9.0 Q4.0 -8.6 4.7 -6.8 L4.85 -6.9 5.1 -6.45 4.95 -6.15 Q5.3 -5.05 4.95 -3.8 4.6 -4.4 4.65 -5.4 L4.75 -6.0 4.65 -6.45 4.65 -6.6 3.15 -8.1 M-6.35 -8.3 Q-5.45 -8.05 -4.9 -6.65 L-4.7 -6.3 -4.8 -5.95 Q-4.5 -5.05 -4.8 -4.0 -5.1 -4.5 -5.05 -5.3 L-4.95 -5.9 -5.05 -6.3 -4.95 -6.6 -6.05 -7.7 -6.35 -8.3" fill="#000000" fill-opacity="0.6" fill-rule="evenodd" stroke="none"/>
    <path d="M-6.35 -8.3 Q-6.8 -7.45 -6.8 -6.25 -6.8 -4.85 -6.2 -3.9 -5.6 -2.9 -4.8 -2.9 -3.95 -2.9 -3.35 -3.9 -2.75 -4.85 -2.75 -6.25 -2.75 -7.65 -3.35 -8.6 -3.95 -9.6 -4.8 -9.6 -5.6 -9.6 -6.2 -8.6 L-6.35 -8.3 -6.4 -8.35 -6.35 -8.3 M-3.15 -8.95 Q-2.45 -7.8 -2.45 -6.25 -2.45 -4.65 -3.15 -3.55 -3.8 -2.45 -4.8 -2.45 -5.75 -2.45 -6.4 -3.55 -7.1 -4.7 -7.1 -6.25 -7.1 -7.8 -6.4 -8.95 -5.75 -10.05 -4.8 -10.05 -3.8 -10.05 -3.15 -8.95" fill="#000000" fill-opacity="0.2" fill-rule="evenodd" stroke="none"/>
    <path d="M7.3 -6.2 Q7.3 -4.6 6.4 -3.45 5.45 -2.3 4.15 -2.3 2.85 -2.3 1.95 -3.45 1.05 -4.6 1.05 -6.2 1.05 -7.8 1.95 -8.95 2.85 -10.1 4.15 -10.1 5.45 -10.1 6.4 -8.95 7.3 -7.8 7.3 -6.2 M3.15 -8.1 L4.65 -6.6 4.65 -6.45 4.75 -6.0 4.65 -5.4 Q4.6 -4.4 4.95 -3.8 5.3 -5.05 4.95 -6.15 L5.1 -6.45 4.85 -6.9 4.7 -6.8 Q4.0 -8.6 2.8 -9.0 L2.65 -9.05 3.15 -8.1 M-6.35 -8.3 Q-6.8 -7.45 -6.8 -6.25 -6.8 -4.85 -6.2 -3.9 -5.6 -2.9 -4.8 -2.9 -3.95 -2.9 -3.35 -3.9 -2.75 -4.85 -2.75 -6.25 -2.75 -7.65 -3.35 -8.6 -3.95 -9.6 -4.8 -9.6 -5.6 -9.6 -6.2 -8.6 L-6.35 -8.3 Q-5.45 -8.05 -4.9 -6.65 L-4.7 -6.3 -4.8 -5.95 Q-4.5 -5.05 -4.8 -4.0 -5.1 -4.5 -5.05 -5.3 L-4.95 -5.9 -5.05 -6.3 -4.95 -6.6 -6.05 -7.7 -6.35 -8.3" fill="none" stroke="#000000" stroke-linecap="round" stroke-linejoin="round" stroke-opacity="0.4" stroke-width="1.0"/>
    <path d="M6.95 -6.2 Q6.95 -4.75 6.1 -3.75 L5.1 -2.95 4.1 -2.7 Q2.95 -2.7 2.15 -3.75 1.3 -4.75 1.35 -6.2 1.3 -7.45 1.9 -8.3 L2.15 -8.65 2.5 -8.95 2.6 -9.05 2.65 -9.1 Q3.25 -9.65 4.1 -9.65 L5.1 -9.45 6.1 -8.65 Q6.95 -7.65 6.95 -6.2 M-3.15 -8.95 Q-2.45 -7.8 -2.45 -6.25 -2.45 -4.65 -3.15 -3.55 -3.8 -2.45 -4.8 -2.45 -5.75 -2.45 -6.4 -3.55 -7.1 -4.7 -7.1 -6.25 -7.1 -7.8 -6.4 -8.95 -5.75 -10.05 -4.8 -10.05 -3.8 -10.05 -3.15 -8.95" fill="none" stroke="#000000" stroke-linecap="round" stroke-linejoin="round" stroke-opacity="0.4" stroke-width="1.0"/>
  </g>
</svg>
