<?xml version="1.0" encoding="UTF-8" standalone="no"?>
<svg xmlns:xlink="http://www.w3.org/1999/xlink" height="76.9px" width="175.75px" xmlns="http://www.w3.org/2000/svg">
  <g transform="matrix(1.0, 0.0, 0.0, 1.0, 87.85, 18.95)">
    <path d="M23.85 36.3 L24.05 36.6 23.7 36.5 23.85 36.3" fill="#ffffff" fill-rule="evenodd" stroke="none"/>
    <path d="M24.05 36.6 L24.1 36.7 23.7 36.55 23.7 36.5 24.05 36.6" fill="#231f20" fill-rule="evenodd" stroke="none"/>
    <path d="M-7.05 40.5 L-7.05 40.6 -7.05 40.5 -7.05 40.45 -7.05 40.5" fill="#7b7b7b" fill-rule="evenodd" stroke="none"/>
    <path d="M20.45 31.95 L23.15 30.7 24.15 30.15 Q22.55 31.2 20.45 31.95 M20.1 32.2 L17.8 32.75 20.05 32.1 20.1 32.2" fill="#808080" fill-rule="evenodd" stroke="none"/>
    <path d="M-49.6 3.7 L-49.3 3.6 -49.1 5.1 -49.6 3.7 M-53.2 3.2 L-52.8 2.95 -52.6 4.1 -53.2 3.2 M-26.25 34.65 L-27.9 34.35 Q-31.25 33.2 -35.55 27.65 L-36.85 25.85 -41.6 12.85 -38.45 6.55 Q-34.65 -0.25 -31.35 -2.9 -28.65 -5.05 -17.65 -6.95 L-11.2 -8.2 -11.05 -8.2 -6.95 -9.2 Q-2.9 -10.3 -0.6 -11.4 L2.45 -9.25 3.35 -8.3 5.3 -5.45 4.35 -4.75 -13.85 10.35 Q-12.55 13.4 -3.75 12.8 L-1.25 12.55 -0.7 15.95 Q-0.65 17.1 1.0 19.65 L1.8 20.85 2.45 21.8 3.25 22.85 2.45 21.8 1.8 20.85 1.0 19.65 Q-0.65 17.1 -0.7 15.95 L-1.25 12.55 8.9 10.85 8.9 12.85 Q8.9 16.4 8.5 19.75 L8.35 20.85 7.75 23.95 6.15 20.85 Q4.7 21.1 3.75 22.15 L3.25 22.85 Q2.15 24.8 4.15 28.1 L5.15 29.15 4.0 31.25 Q2.6 33.15 0.9 33.85 L-3.0 34.05 -5.85 33.85 -5.25 31.25 -3.05 23.1 Q-3.15 22.35 -3.55 21.9 L-3.6 21.85 -3.55 21.9 -3.7 21.95 -3.6 21.85 Q-3.9 21.55 -4.3 21.35 L-5.35 21.1 Q-6.9 21.8 -10.0 25.75 L-11.3 27.45 -14.5 32.0 -16.4 31.8 Q-20.05 31.55 -22.1 33.1 L-22.35 33.3 -22.4 33.15 -22.7 29.1 Q-23.3 28.55 -24.05 28.6 L-24.6 28.85 Q-25.4 29.5 -26.2 31.8 L-26.25 31.8 -26.3 32.05 -26.25 31.8 -26.2 31.8 -26.3 32.05 -26.35 32.1 -26.25 34.65 M47.2 -0.7 Q48.95 5.95 49.35 11.95 L49.4 14.85 49.1 20.85 Q48.7 24.45 47.8 27.8 46.25 33.65 43.55 37.7 L33.6 38.3 Q37.55 34.65 39.7 27.95 40.8 24.55 41.35 20.85 41.8 17.75 41.9 14.45 L41.9 12.85 Q41.9 6.8 40.8 1.7 L44.8 0.2 47.2 -0.7 M58.15 33.0 Q60.15 27.55 60.85 20.85 L61.15 14.85 61.0 11.0 Q60.85 9.35 60.85 6.7 L61.9 7.85 60.85 6.7 60.85 6.65 Q60.7 6.5 60.85 6.6 L60.5 5.75 61.9 7.85 64.2 11.2 Q66.6 15.3 66.8 19.6 L66.8 20.85 66.7 22.15 Q65.75 28.95 58.15 33.0 M60.85 6.7 L60.85 6.6 60.85 6.7 M16.5 32.9 Q19.15 27.6 20.1 20.85 L20.35 18.85 20.65 12.85 20.45 8.0 29.7 5.35 Q30.15 8.9 30.15 12.85 L30.0 17.35 29.6 20.85 28.4 26.45 26.9 30.95 25.85 30.15 26.9 30.95 27.0 31.05 26.75 31.3 25.85 30.15 25.0 29.5 24.15 30.15 23.15 30.7 20.45 31.95 16.5 32.9 M21.95 35.95 L23.4 35.6 23.85 36.3 23.7 36.5 23.7 36.55 21.95 35.95 M24.9 30.5 L24.65 30.8 24.85 30.45 24.9 30.5 M-6.8 40.45 L-7.05 40.5 -7.05 40.45 -6.8 40.45 M-11.2 32.9 L-11.1 32.75 Q-9.85 31.55 -8.75 29.85 -9.55 31.15 -10.05 33.15 L-11.2 32.9" fill="#ffffff" fill-opacity="0.0" fill-rule="evenodd" stroke="none"/>
    <path d="M-49.6 3.7 L-49.65 3.45 Q-52.0 -3.1 -54.3 -6.55 L-55.2 -7.75 Q-57.45 -10.5 -63.05 -13.55 -66.4 -15.4 -68.7 -14.65 L-70.35 -13.55 Q-73.45 -11.5 -75.2 -11.15 L-76.35 -11.25 Q-77.0 -15.65 -72.8 -17.7 -67.85 -20.05 -60.7 -14.9 -56.2 -11.65 -53.3 -6.95 -51.95 -4.65 -50.9 -2.05 -49.7 1.05 -49.3 3.6 L-49.6 3.7 M-53.2 3.2 L-53.35 3.0 Q-55.25 0.4 -57.55 -0.35 L-59.25 -0.65 -63.6 -0.65 Q-66.55 -0.5 -71.65 2.45 L-76.1 5.35 -78.25 8.95 -79.1 10.1 Q-81.9 12.15 -84.9 11.55 L-87.35 10.6 Q-81.55 4.35 -72.9 0.5 -68.55 -1.45 -65.35 -2.15 -61.4 -2.75 -58.6 -2.0 -56.05 -1.4 -54.45 0.3 -53.3 1.6 -52.8 2.95 L-53.2 3.2 M-26.25 34.65 L-26.35 32.1 -26.3 32.05 -26.2 31.8 Q-25.4 29.5 -24.6 28.85 L-24.05 28.6 Q-23.3 28.55 -22.7 29.1 L-22.4 33.15 -22.35 33.3 Q-21.9 37.05 -20.7 42.75 L-26.05 47.75 -33.35 46.75 -34.3 46.55 -37.95 46.05 -39.4 45.95 -40.7 46.1 -42.0 48.45 Q-44.05 51.75 -46.4 54.45 L-46.7 54.75 Q-51.7 57.05 -54.0 55.5 -54.75 55.0 -55.1 54.15 L-55.35 53.45 -54.9 53.0 -51.85 49.95 -49.05 47.3 -41.7 40.75 Q-35.45 42.75 -30.9 42.85 L-30.4 42.85 -27.05 42.45 Q-26.5 42.15 -26.25 40.75 L-26.05 36.9 -26.25 34.65 M-14.5 32.0 L-11.3 27.45 -10.0 25.75 Q-6.9 21.8 -5.35 21.1 L-4.3 21.35 Q-3.9 21.55 -3.6 21.85 L-3.7 21.95 -3.55 21.9 Q-3.15 22.35 -3.05 23.1 L-5.25 31.25 -5.85 33.85 Q-6.85 38.5 -6.8 40.45 L-6.7 41.45 -4.0 46.0 Q-0.9 50.55 0.95 50.75 L5.1 51.25 Q9.0 52.1 7.95 53.75 L5.5 55.6 Q2.75 57.45 1.3 57.45 L-2.35 52.75 Q-2.95 51.6 -4.3 50.05 -7.1 47.0 -11.05 45.1 L-11.0 39.2 Q-10.75 35.65 -10.05 33.15 -9.55 31.15 -8.75 29.85 -9.85 31.55 -11.1 32.75 L-11.2 32.9 Q-13.85 35.2 -15.05 32.75 L-14.5 32.0 M5.15 29.15 L4.15 28.1 Q2.15 24.8 3.25 22.85 L3.75 22.15 Q4.7 21.1 6.15 20.85 L7.75 23.95 Q9.85 27.55 12.5 30.1 L15.65 32.6 16.5 32.9 20.45 31.95 20.05 32.1 17.8 32.75 20.1 32.2 Q23.5 31.85 24.65 30.8 L24.9 30.5 Q26.75 31.65 27.65 33.45 L26.75 31.3 27.0 31.05 28.15 32.35 Q28.75 35.05 29.95 37.9 L29.95 37.95 Q31.1 40.6 32.75 43.4 L33.15 44.1 36.65 49.1 41.9 47.85 Q42.65 47.6 44.9 51.6 L38.2 52.3 34.65 52.1 28.3 42.9 24.1 36.7 24.05 36.6 23.85 36.3 23.4 35.6 21.95 35.95 15.15 37.6 Q12.95 37.15 8.35 32.55 L5.15 29.15 M66.7 22.15 L66.8 20.85 66.8 19.6 Q66.6 15.3 64.2 11.2 L72.0 14.1 Q81.3 16.75 87.4 14.85 85.05 16.75 80.7 18.6 77.55 20.0 74.25 20.85 L72.1 21.35 66.7 22.15 M76.1 17.65 Q78.7 17.5 80.65 16.75 76.45 17.3 71.85 16.15 L71.6 16.05 67.65 14.75 Q69.45 16.55 71.95 17.25 L76.1 17.65 M-7.05 40.5 L-6.8 40.45 -7.05 40.45 -7.05 40.5 -7.05 40.6 -7.05 40.5 M-7.05 40.45 Q-7.05 37.65 -6.2 33.8 L-5.05 29.25 -3.05 23.1 Q-5.85 27.8 -6.75 33.75 L-6.9 34.95 Q-7.3 38.2 -7.05 40.45 M-3.7 21.95 L-5.55 22.1 Q-7.2 22.95 -9.7 26.05 L-11.85 28.95 Q-8.85 25.3 -5.95 23.25 -4.55 22.25 -3.7 21.95 M-26.3 32.15 L-26.0 33.95 -25.7 36.9 -25.85 40.75 Q-25.25 38.7 -25.25 35.95 -25.2 34.05 -25.65 33.05 L-26.3 32.15" fill="#000000" fill-opacity="0.3019608" fill-rule="evenodd" stroke="none"/>
    <path d="M76.1 17.65 L71.95 17.25 Q69.45 16.55 67.65 14.75 L71.6 16.05 71.85 16.15 Q76.45 17.3 80.65 16.75 78.7 17.5 76.1 17.65 M24.15 30.15 L25.0 29.5 25.85 30.15 26.75 31.3 27.65 33.45 Q26.75 31.65 24.9 30.5 L24.85 30.45 24.65 30.8 Q23.5 31.85 20.1 32.2 L20.05 32.1 20.45 31.95 Q22.55 31.2 24.15 30.15 M-7.05 40.45 Q-7.3 38.2 -6.9 34.95 L-6.75 33.75 Q-5.85 27.8 -3.05 23.1 L-5.05 29.25 -6.2 33.8 Q-7.05 37.65 -7.05 40.45 M-3.7 21.95 Q-4.55 22.25 -5.95 23.25 -8.85 25.3 -11.85 28.95 L-9.7 26.05 Q-7.2 22.95 -5.55 22.1 L-3.7 21.95 M-26.3 32.15 L-25.65 33.05 Q-25.2 34.05 -25.25 35.95 -25.25 38.7 -25.85 40.75 L-25.7 36.9 -26.0 33.95 -26.3 32.15" fill="#ffffff" fill-opacity="0.5019608" fill-rule="evenodd" stroke="none"/>
    <path d="M64.2 11.2 L61.9 7.85 60.85 6.7 60.85 6.65 Q60.7 6.5 60.85 6.6" fill="none" stroke="#231f20" stroke-linecap="round" stroke-linejoin="round" stroke-width="1.0"/>
    <path d="M-0.6 -11.4 Q-2.9 -10.3 -6.95 -9.2 L-11.05 -8.2 -11.2 -8.2 -17.65 -6.95 Q-28.65 -5.05 -31.35 -2.9 -34.65 -0.25 -38.45 6.55 L-41.6 12.85 -36.85 25.85 -35.55 27.65 Q-31.25 33.2 -27.9 34.35 L-26.25 34.65 -26.05 36.9 -26.25 40.75 Q-26.5 42.15 -27.05 42.45 L-30.4 42.85 -30.9 42.85 Q-35.45 42.75 -41.7 40.75 L-49.05 47.3 -51.85 49.95 -54.9 53.0 -55.35 53.45 -55.1 54.15 Q-54.75 55.0 -54.0 55.5 -51.7 57.05 -46.7 54.75 L-46.4 54.45 Q-44.05 51.75 -42.0 48.45 L-40.7 46.1 -39.4 45.95 -37.95 46.05 -34.3 46.55 -33.35 46.75 -26.05 47.75 -20.7 42.75 Q-21.9 37.05 -22.35 33.3 L-22.1 33.1 Q-20.05 31.55 -16.4 31.8 L-14.5 32.0 -15.05 32.75 Q-13.85 35.2 -11.2 32.9 L-10.05 33.15 Q-10.75 35.65 -11.0 39.2 L-11.05 45.1 Q-7.1 47.0 -4.3 50.05 -2.95 51.6 -2.35 52.75 L1.3 57.45 Q2.75 57.45 5.5 55.6 L7.95 53.75 Q9.0 52.1 5.1 51.25 L0.95 50.75 Q-0.9 50.55 -4.0 46.0 L-6.7 41.45 -6.8 40.45 Q-6.85 38.5 -5.85 33.85 L-3.0 34.05 0.9 33.85 Q2.6 33.15 4.0 31.25 L5.15 29.15 8.35 32.55 Q12.95 37.15 15.15 37.6 L21.95 35.95 23.4 35.6 23.85 36.3 24.05 36.6 24.1 36.7 28.3 42.9 34.65 52.1 38.2 52.3 44.9 51.6 Q42.65 47.6 41.9 47.85 L36.65 49.1 33.15 44.1 32.75 43.4 Q31.1 40.6 29.95 37.95 L29.95 37.9 Q28.75 35.05 28.15 32.35 M-26.35 32.1 L-26.3 32.05 -26.25 31.8 -26.2 31.8 M-3.6 21.85 L-3.55 21.9 M3.25 22.85 L2.45 21.8 1.8 20.85 1.0 19.65 Q-0.65 17.1 -0.7 15.95 L-1.25 12.55 M43.55 37.7 L33.6 38.3 M58.15 33.0 Q65.75 28.95 66.7 22.15 M25.0 29.5 L25.85 30.15 M7.75 23.95 L8.35 20.85 8.5 19.75 Q8.9 16.4 8.9 12.85 L8.9 10.85 M23.7 36.55 L24.1 36.7 M23.85 36.3 L23.7 36.5 24.05 36.6 M23.7 36.55 L21.95 35.95 M27.0 31.05 L26.9 30.95 M-10.05 33.15 Q-9.55 31.15 -8.75 29.85 -9.85 31.55 -11.1 32.75 L-11.2 32.9" fill="none" stroke="#000000" stroke-linecap="round" stroke-linejoin="round" stroke-width="1.0"/>
    <path d="M-49.3 3.6 Q-49.7 1.05 -50.9 -2.05 -51.95 -4.65 -53.3 -6.95 -56.2 -11.65 -60.7 -14.9 -67.85 -20.05 -72.8 -17.7 -77.0 -15.65 -76.35 -11.25 L-75.2 -11.15 Q-73.45 -11.5 -70.35 -13.55 L-68.7 -14.65 Q-66.4 -15.4 -63.05 -13.55 -57.45 -10.5 -55.2 -7.75 L-54.3 -6.55 Q-52.0 -3.1 -49.65 3.45 L-49.6 3.7 -49.1 5.1 -49.3 3.6 M-52.8 2.95 Q-53.3 1.6 -54.45 0.3 -56.05 -1.4 -58.6 -2.0 -61.4 -2.75 -65.35 -2.15 -68.55 -1.45 -72.9 0.5 -81.55 4.35 -87.35 10.6 L-84.9 11.55 Q-81.9 12.15 -79.1 10.1 L-78.25 8.95 -76.1 5.35 -71.65 2.45 Q-66.55 -0.5 -63.6 -0.65 L-59.25 -0.65 -57.55 -0.35 Q-55.25 0.4 -53.35 3.0 L-53.2 3.2 -52.6 4.1 -52.8 2.95 M66.7 22.15 L72.1 21.35 74.25 20.85 Q77.55 20.0 80.7 18.6 85.05 16.75 87.4 14.85 81.3 16.75 72.0 14.1 L64.2 11.2" fill="none" stroke="#000000" stroke-linecap="round" stroke-linejoin="round" stroke-width="1.0"/>
    <path d="M-26.25 34.65 L-26.35 32.1 M-26.2 31.8 Q-25.4 29.5 -24.6 28.85 L-24.05 28.6 Q-23.3 28.55 -22.7 29.1 L-22.4 33.15 -22.35 33.3 M-14.5 32.0 L-11.3 27.45 -10.0 25.75 Q-6.9 21.8 -5.35 21.1 L-4.3 21.35 Q-3.9 21.55 -3.6 21.85 M-3.55 21.9 Q-3.15 22.35 -3.05 23.1 L-5.25 31.25 -5.85 33.85 M5.15 29.15 L4.15 28.1 Q2.15 24.8 3.25 22.85 L3.75 22.15 Q4.7 21.1 6.15 20.85 L7.75 23.95 Q9.85 27.55 12.5 30.1 L15.65 32.6 16.5 32.9 20.45 31.95 Q22.55 31.2 24.15 30.15 L25.0 29.5 M47.2 -0.7 Q48.95 5.95 49.35 11.95 L49.4 14.85 49.1 20.85 Q48.7 24.45 47.8 27.8 46.25 33.65 43.55 37.7 M33.6 38.3 Q37.55 34.65 39.7 27.95 40.8 24.55 41.35 20.85 41.8 17.75 41.9 14.45 L41.9 12.85 Q41.9 6.8 40.8 1.7 M60.85 6.7 Q60.85 9.35 61.0 11.0 L61.15 14.85 60.85 20.85 Q60.15 27.55 58.15 33.0 M66.7 22.15 L66.8 20.85 66.8 19.6 Q66.6 15.3 64.2 11.2 M60.85 6.6 L60.85 6.7 M20.45 8.0 L20.65 12.85 20.35 18.85 20.1 20.85 Q19.15 27.6 16.5 32.9 M25.85 30.15 L26.9 30.95 28.4 26.45 29.6 20.85 30.0 17.35 30.15 12.85 Q30.15 8.9 29.7 5.35 M28.15 32.35 L27.0 31.05" fill="none" stroke="#000000" stroke-linecap="round" stroke-linejoin="round" stroke-opacity="0.6" stroke-width="1.0"/>
    <path d="M-1.25 12.55 L-3.75 12.8 Q-12.55 13.4 -13.85 10.35 L4.35 -4.75 5.3 -5.45 3.35 -8.3 2.45 -9.25 -0.6 -11.4" fill="none" stroke="#000000" stroke-linecap="round" stroke-linejoin="round" stroke-opacity="0.4" stroke-width="1.0"/>
  </g>
</svg>
