<?xml version="1.0" encoding="UTF-8" standalone="no"?>
<svg xmlns:xlink="http://www.w3.org/1999/xlink" height="176.9px" width="286.6px" xmlns="http://www.w3.org/2000/svg">
  <g transform="matrix(1.0, 0.0, 0.0, 1.0, 143.3, 88.2)">
    <path d="M109.8 -88.2 Q130.1 -24.0 130.5 -17.2 125.6 -31.8 119.7 -47.8 107.9 -79.9 103.0 -87.2 L109.8 -88.2 M143.3 36.8 L142.8 78.3 Q138.0 86.0 136.6 83.6 L139.9 24.7 Q143.3 35.4 143.3 36.8 M-110.0 -88.2 L-103.2 -87.2 Q-108.1 -79.9 -119.9 -47.8 -125.8 -31.8 -130.7 -17.2 -130.4 -21.4 -120.2 -55.2 L-110.0 -88.2 M-143.3 36.8 Q-143.3 35.9 -141.6 30.2 L-139.9 24.7 -136.5 83.6 Q-137.4 85.1 -140.2 81.9 L-142.8 78.3 -143.3 36.8" fill="#ffffff" fill-opacity="0.49803922" fill-rule="evenodd" stroke="none"/>
    <path d="M-116.15 9.2 L-60.35 9.2 Q-60.95 6.9 -60.7 4.5 -60.2 -1.3 -54.3 -2.2 L56.5 -2.2 Q62.4 -1.3 62.9 4.5 63.15 6.9 62.55 9.2 L114.65 9.2 M62.55 9.2 L62.45 9.6 62.3 10.1 M136.0 60.7 L132.0 61.0 Q127.5 62.1 125.4 66.0 L118.6 78.7 Q112.9 86.9 105.2 88.2 L-103.8 88.2 Q-111.4 86.9 -117.1 78.7 L-124.0 66.0 Q-126.1 62.1 -130.6 61.0 L-134.6 60.7 M-60.1 10.1 L-60.25 9.6 -60.35 9.2 62.55 9.2" fill="none" stroke="#ffffff" stroke-linecap="butt" stroke-linejoin="miter-clip" stroke-miterlimit="4.0" stroke-opacity="0.49803922" stroke-width="1.0"/>
  </g>
</svg>
