<?xml version="1.0" encoding="UTF-8" standalone="no"?>
<svg xmlns:xlink="http://www.w3.org/1999/xlink" height="147.75px" width="113.15px" xmlns="http://www.w3.org/2000/svg">
  <g transform="matrix(1.0, 0.0, 0.0, 1.0, 48.25, 76.8)">
    <path d="M46.85 28.0 L46.8 28.1 46.55 27.9 46.85 28.0" fill="#999999" fill-rule="evenodd" stroke="none"/>
    <path d="M16.95 -75.25 L16.35 -75.6 16.4 -75.6 16.95 -75.25 M48.3 29.05 L49.75 29.95 49.95 30.1 50.0 30.15 48.3 29.05" fill="#bababa" fill-rule="evenodd" stroke="none"/>
    <path d="M12.5 -59.9 L12.8 -59.7 13.85 -58.95 Q10.85 -61.1 8.1 -62.5 10.35 -61.4 12.5 -59.9" fill="#e0e0e0" fill-rule="evenodd" stroke="none"/>
    <path d="M45.3 29.9 L45.35 29.95 45.3 29.9" fill="#525252" fill-rule="evenodd" stroke="none"/>
    <path d="M18.15 47.6 L18.15 47.8 18.1 47.6 18.15 47.6 M20.75 64.6 L20.8 64.8 20.75 64.7 20.75 64.6 M25.2 52.7 L25.05 52.8 25.2 52.7" fill="#949494" fill-rule="evenodd" stroke="none"/>
    <path d="M51.65 45.15 L51.6 45.1 50.95 44.5 50.95 44.45 50.85 44.4 50.95 44.45 51.65 45.15" fill="#757575" fill-rule="evenodd" stroke="none"/>
    <path d="M47.4 36.55 L47.65 36.45 47.65 36.55 47.4 36.55" fill="#b0b0b0" fill-rule="evenodd" stroke="none"/>
    <path d="M14.45 70.95 L16.95 69.0 16.85 69.1 16.3 69.55 14.45 70.95" fill="#ababab" fill-rule="evenodd" stroke="none"/>
    <path d="M-3.5 -65.25 L-3.75 -65.5 -3.45 -65.4 -3.5 -65.25 M-40.7 25.65 L-40.65 26.0 -40.7 26.0 -40.7 25.65" fill="#b2b2b2" fill-rule="evenodd" stroke="none"/>
    <path d="M-39.85 29.85 Q-39.4 31.25 -39.1 33.2 -39.4 31.25 -39.85 29.85 L-40.05 29.35 -40.0 29.35 -39.85 29.85 M-8.7 37.35 L-8.5 37.85 -8.7 37.35" fill="#666666" fill-rule="evenodd" stroke="none"/>
    <path d="M-43.25 28.55 L-43.55 29.05 -43.65 28.85 -43.65 27.15 -43.45 26.95 -43.25 27.15 -43.25 28.55 M-12.2 37.05 L-12.35 36.85 -12.35 35.15 -12.1 34.95 -12.0 35.0 Q-11.9 35.0 -11.9 35.15 L-11.9 36.55 -12.2 37.05" fill="#e3e3e3" fill-rule="evenodd" stroke="none"/>
    <path d="M-13.0 45.45 Q-12.95 46.3 -12.7 46.55 L-13.05 45.45 -13.0 45.45" fill="#4f4f4f" fill-rule="evenodd" stroke="none"/>
    <path d="M16.35 -75.6 L14.85 -74.6 12.5 -59.9 Q10.35 -61.4 8.1 -62.5 5.15 -63.9 2.0 -64.65 L-2.0 -65.4 -1.05 -70.25 Q0.4 -75.95 1.85 -75.95 L10.0 -76.3 Q14.8 -76.35 16.4 -75.6 L16.35 -75.6 M12.8 -59.7 L15.15 -61.85 17.7 -63.45 Q20.3 -64.85 23.2 -65.2 L23.65 -65.25 25.85 -65.7 Q27.45 -65.9 29.15 -65.7 L31.55 -65.3 Q40.95 -62.9 48.55 -50.6 60.1 -31.85 61.9 -27.35 65.9 -17.35 63.55 -4.6 61.35 7.3 56.95 19.7 54.75 25.9 53.0 29.75 L52.75 29.85 51.35 30.1 50.0 30.15 49.95 30.1 49.75 29.95 48.3 29.05 46.8 28.1 46.85 28.0 48.1 24.7 48.2 24.35 Q52.1 13.5 53.95 1.9 L55.15 -9.6 Q52.6 -28.05 41.35 -42.65 35.7 -49.95 29.15 -55.0 L26.5 -56.95 Q25.05 -57.95 23.2 -58.3 20.8 -58.85 17.8 -58.3 L13.95 -57.15 13.85 -58.95 12.8 -59.7 M4.85 -73.8 Q8.4 -73.55 12.35 -73.75 L8.85 -74.5 2.15 -74.1 4.85 -73.8 M-3.75 -65.5 L-3.5 -65.25 -3.65 -64.9 -5.65 -60.35 Q-8.15 -54.1 -10.0 -46.95 -16.0 -24.2 -13.7 -0.75 -11.75 19.15 -10.1 29.25 L-9.2 34.0 -12.2 34.0 Q-14.15 25.05 -16.65 -0.45 -18.8 -22.4 -13.85 -44.0 -11.05 -56.0 -7.0 -64.9 L-6.75 -65.4 -6.65 -65.65 -3.75 -65.5 M-43.65 26.0 L-43.65 25.95 Q-46.95 -12.35 -47.65 -27.35 -48.2 -37.9 -45.0 -44.4 -42.55 -45.65 -40.1 -46.2 L-40.5 -45.65 -42.9 -41.75 Q-45.1 -36.15 -44.7 -27.5 -43.95 -12.55 -40.7 25.65 L-40.7 26.0 -43.65 26.0" fill="#ffffff" fill-opacity="0.0" fill-rule="evenodd" stroke="none"/>
    <path d="M13.95 -57.15 L17.8 -58.3 Q20.8 -58.85 23.2 -58.3 25.05 -57.95 26.5 -56.95 L29.15 -55.0 Q35.7 -49.95 41.35 -42.65 52.6 -28.05 55.15 -9.6 L53.95 1.9 Q52.1 13.5 48.2 24.35 L48.1 24.7 46.85 28.0 46.55 27.9 46.5 27.85 45.55 27.65 45.4 27.65 44.95 26.95 44.75 26.45 44.7 26.4 45.35 24.7 45.45 24.35 Q47.3 19.15 49.0 12.8 53.05 -2.45 52.05 -10.6 50.75 -21.15 40.65 -37.15 34.25 -47.25 29.15 -51.3 25.9 -53.85 23.2 -53.95 L23.0 -53.95 20.25 -53.8 15.05 -52.4 14.35 -51.95 14.25 -51.85 14.15 -52.45 13.95 -57.15 M42.6 34.5 L42.65 34.5 42.5 39.85 42.9 43.4 42.65 43.7 42.1 44.45 Q37.85 50.25 32.5 55.1 L29.15 57.9 26.45 59.95 26.65 61.05 23.2 63.55 20.8 64.8 20.75 64.6 Q19.45 59.95 18.15 47.8 L18.15 47.6 19.65 47.8 Q21.8 48.3 23.2 49.3 L24.65 50.75 25.05 52.8 25.25 53.65 Q27.0 52.7 29.15 50.95 L31.45 48.95 32.5 48.0 Q35.85 44.75 38.6 40.9 L39.7 39.3 42.6 34.5 M43.65 35.15 L45.6 36.4 47.4 36.55 47.65 36.55 Q47.6 39.5 48.55 41.65 49.15 42.95 49.9 43.7 L50.85 44.4 50.95 44.45 50.95 44.5 51.6 45.1 Q49.65 46.5 47.6 46.15 L46.0 45.55 Q45.35 45.25 44.9 44.45 L44.55 43.7 Q44.0 42.35 43.8 40.15 43.55 37.9 43.65 35.15 M45.3 29.9 L45.35 29.95 48.5 31.95 Q48.85 32.15 48.55 32.65 L47.55 34.2 47.35 34.5 46.9 34.45 43.65 32.4 45.3 29.9 M25.25 53.65 L26.45 59.95 25.25 53.65 M-12.2 34.0 L-9.2 34.0 -8.8 34.0 Q-8.35 34.0 -8.0 34.35 -7.65 34.65 -7.65 35.15 L-7.65 36.75 Q-7.65 37.2 -8.0 37.55 L-8.05 37.65 -8.5 37.85 -8.7 37.35 -9.6 37.55 -9.05 45.1 Q-9.45 45.8 -12.65 45.45 L-13.0 45.45 Q-13.1 44.15 -12.8 41.45 L-12.3 37.85 Q-12.75 37.85 -13.05 37.55 L-13.4 36.75 -13.4 35.15 Q-13.4 34.65 -13.05 34.35 -12.75 34.0 -12.25 34.0 L-12.2 34.0 M-40.65 26.0 L-40.15 26.0 Q-39.65 26.0 -39.35 26.35 -39.0 26.65 -39.0 27.15 L-39.0 28.75 Q-39.0 29.2 -39.35 29.55 L-39.85 29.85 -40.0 29.35 -40.05 29.35 -40.9 29.55 -40.35 37.1 -44.0 37.45 -44.35 37.45 Q-44.45 36.15 -44.15 33.45 L-43.65 29.85 Q-44.05 29.85 -44.35 29.55 -44.7 29.2 -44.7 28.75 L-44.7 27.15 Q-44.7 26.65 -44.35 26.35 -44.05 26.0 -43.65 26.0 L-40.7 26.0 -40.65 26.0 M-40.3 28.7 L-40.0 29.35 -40.3 28.7 -41.7 28.2 Q-42.75 28.0 -43.25 28.55 -42.75 28.0 -41.7 28.2 L-40.3 28.7 M-43.55 29.05 L-43.25 28.55 -43.25 27.15 -43.45 26.95 -43.65 27.15 -43.65 28.85 -43.55 29.05 -43.65 29.85 -43.55 29.05 M-12.2 37.05 L-12.3 37.85 -12.2 37.05 -11.9 36.55 -11.9 35.15 Q-11.9 35.0 -12.0 35.0 L-12.1 34.95 -12.35 35.15 -12.35 36.85 -12.2 37.05 M-8.7 37.35 L-8.95 36.7 Q-9.6 36.35 -10.35 36.2 -11.4 36.0 -11.9 36.55 -11.4 36.0 -10.35 36.2 -9.6 36.35 -8.95 36.7 L-8.7 37.35" fill="#000000" fill-opacity="0.101960786" fill-rule="evenodd" stroke="none"/>
    <path d="M12.5 -59.9 L14.85 -74.6 16.35 -75.6 16.95 -75.25 17.15 -74.95 Q18.0 -72.95 17.8 -65.95 L17.7 -63.45 15.15 -61.85 12.8 -59.7 12.5 -59.9 M4.85 -73.8 L2.15 -74.1 8.85 -74.5 12.35 -73.75 Q8.4 -73.55 4.85 -73.8 M41.7 33.4 L42.25 34.15 42.6 34.5 39.7 39.3 38.6 40.9 Q35.85 44.75 32.5 48.0 L31.45 48.95 29.15 50.95 Q27.0 52.7 25.25 53.65 L25.05 52.8 25.2 52.7 25.4 52.6 26.95 51.65 29.15 49.9 30.55 48.7 34.7 44.05 38.6 38.8 39.7 37.0 41.7 33.4 M42.65 34.5 L43.65 35.15 Q43.55 37.9 43.8 40.15 44.0 42.35 44.55 43.7 L44.9 44.45 Q45.35 45.25 46.0 45.55 L47.6 46.15 Q49.65 46.5 51.6 45.1 L51.65 45.15 51.65 45.3 51.5 45.75 Q49.2 47.95 46.8 47.7 45.65 47.55 44.85 47.05 43.7 46.55 43.15 44.45 L42.95 43.7 42.9 43.4 42.5 39.85 42.65 34.5 M43.65 32.4 Q43.3 32.2 43.6 31.7 L44.6 30.15 Q44.95 29.65 45.3 29.9 L43.65 32.4 M-39.1 33.2 L-38.65 38.3 Q-39.35 39.0 -41.3 39.15 -43.35 39.25 -44.05 38.55 -44.3 38.3 -44.35 37.45 L-44.0 37.45 -40.35 37.1 -40.9 29.55 -40.05 29.35 -39.85 29.85 Q-39.4 31.25 -39.1 33.2 M-8.7 37.35 L-8.5 37.85 -7.95 40.95 -7.65 42.55 -7.45 44.6 -7.35 45.85 -7.35 46.3 Q-8.0 47.0 -9.95 47.15 -11.95 47.3 -12.7 46.55 -12.95 46.3 -13.0 45.45 L-12.65 45.45 Q-9.45 45.8 -9.05 45.1 L-9.6 37.55 -8.7 37.35" fill="#000000" fill-opacity="0.2" fill-rule="evenodd" stroke="none"/>
    <path d="M46.8 28.1 L48.3 29.05 50.0 30.15 Q50.5 30.65 50.6 31.5 50.65 32.6 50.0 33.6 L49.0 35.15 47.65 36.45 47.4 36.55 45.6 36.4 43.65 35.15 42.65 34.5 42.6 34.5 42.25 34.15 41.7 33.4 41.6 32.85 Q41.5 31.75 42.15 30.75 L43.15 29.2 Q43.8 28.2 44.8 27.8 L45.4 27.65 45.55 27.65 46.5 27.85 46.55 27.9 46.8 28.1 M45.35 29.95 L45.3 29.9 Q44.95 29.65 44.6 30.15 L43.6 31.7 Q43.3 32.2 43.65 32.4 L46.9 34.45 47.35 34.5 47.55 34.2 48.55 32.65 Q48.85 32.15 48.5 31.95 L45.35 29.95 M49.65 32.85 L49.6 32.6 Q49.5 32.5 49.4 32.7 L48.05 34.8 48.1 35.0 48.3 34.95 49.65 32.85 M44.35 29.4 L44.3 29.15 Q44.15 29.15 44.1 29.25 L42.75 31.35 42.75 31.6 43.0 31.5 44.35 29.4" fill="#000000" fill-opacity="0.5019608" fill-rule="evenodd" stroke="none"/>
    <path d="M44.35 29.4 L43.0 31.5 42.75 31.6 42.75 31.35 44.1 29.25 Q44.15 29.15 44.3 29.15 L44.35 29.4 M49.65 32.85 L48.3 34.95 48.1 35.0 48.05 34.8 49.4 32.7 Q49.5 32.5 49.6 32.6 L49.65 32.85" fill="#ffffff" fill-opacity="0.2" fill-rule="evenodd" stroke="none"/>
    <path d="M17.7 -63.45 L17.8 -65.95 Q18.0 -72.95 17.15 -74.95 L16.95 -75.25 16.4 -75.6 Q14.8 -76.35 10.0 -76.3 L1.85 -75.95 Q0.4 -75.95 -1.05 -70.25 L-2.0 -65.4 M50.0 30.15 L51.35 30.1 52.75 29.85 53.0 29.75 Q54.75 25.9 56.95 19.7 61.35 7.3 63.55 -4.6 65.9 -17.35 61.9 -27.35 60.1 -31.85 48.55 -50.6 40.95 -62.9 31.55 -65.3 L29.15 -65.7 Q27.45 -65.9 25.85 -65.7 L23.65 -65.25 23.2 -65.2 Q20.3 -64.85 17.7 -63.45 M14.35 -51.95 L15.05 -52.4 20.25 -53.8 23.0 -53.95 23.2 -53.95 Q25.9 -53.85 29.15 -51.3 34.25 -47.25 40.65 -37.15 50.75 -21.15 52.05 -10.6 53.05 -2.45 49.0 12.8 47.3 19.15 45.45 24.35 L45.35 24.7 44.7 26.4 44.75 26.45 44.95 26.95 45.4 27.65" fill="none" stroke="#171717" stroke-linecap="round" stroke-linejoin="round" stroke-width="1.0"/>
    <path d="M45.4 27.65 L44.8 27.8 Q43.8 28.2 43.15 29.2 L42.15 30.75 Q41.5 31.75 41.6 32.85 L41.7 33.4 M47.65 36.45 L49.0 35.15 50.0 33.6 Q50.65 32.6 50.6 31.5 50.5 30.65 50.0 30.15 M47.65 36.55 L47.65 36.45 M26.45 59.95 L29.15 57.9 32.5 55.1 Q37.85 50.25 42.1 44.45 L42.65 43.7 42.9 43.4 42.95 43.7 43.15 44.45 Q43.7 46.55 44.85 47.05 45.65 47.55 46.8 47.7 49.2 47.95 51.5 45.75 L51.65 45.3 51.65 45.15 50.95 44.45 50.85 44.4 49.9 43.7 Q49.15 42.95 48.55 41.65 47.6 39.5 47.65 36.55 M25.2 52.7 L25.05 52.8" fill="none" stroke="#000000" stroke-linecap="round" stroke-linejoin="round" stroke-width="1.0"/>
    <path d="M18.15 47.6 L18.1 47.6 M20.8 64.8 L23.2 63.55 26.65 61.05 26.45 59.95 M25.05 52.8 L24.65 50.75 23.2 49.3 Q21.8 48.3 19.65 47.8 L18.15 47.6 M41.7 33.4 L39.7 37.0 38.6 38.8 34.7 44.05 30.55 48.7 29.15 49.9 26.95 51.65 25.4 52.6 25.2 52.7" fill="none" stroke="#303030" stroke-linecap="round" stroke-linejoin="round" stroke-width="1.0"/>
    <path d="M12.8 -59.7 L15.15 -61.85 17.7 -63.45 M46.8 28.1 L48.3 29.05 49.75 29.95 49.95 30.1 50.0 30.15 M45.55 27.65 L46.5 27.85 46.55 27.9 46.8 28.1 M41.7 33.4 L42.25 34.15 42.6 34.5 42.65 34.5 43.65 35.15 45.6 36.4 47.4 36.55 M42.9 43.4 L42.5 39.85 42.65 34.5 M26.45 59.95 L25.25 53.65 25.05 52.8 M-3.75 -65.5 L-6.65 -65.65 -6.75 -65.4 -7.0 -64.9 Q-11.05 -56.0 -13.85 -44.0 -18.8 -22.4 -16.65 -0.45 -14.15 25.05 -12.2 34.0 L-12.25 34.0 Q-12.75 34.0 -13.05 34.35 -13.4 34.65 -13.4 35.15 L-13.4 36.75 -13.05 37.55 Q-12.75 37.85 -12.3 37.85 L-12.2 37.05 M-9.2 34.0 L-10.1 29.25 Q-11.75 19.15 -13.7 -0.75 -16.0 -24.2 -10.0 -46.95 -8.15 -54.1 -5.65 -60.35 L-3.65 -64.9 -3.5 -65.25 -3.45 -65.4 -3.75 -65.5 M-43.65 26.0 L-43.65 25.95 Q-46.95 -12.35 -47.65 -27.35 -48.2 -37.9 -45.0 -44.4 -42.55 -45.65 -40.1 -46.2 L-40.5 -45.65 -42.9 -41.75 Q-45.1 -36.15 -44.7 -27.5 -43.95 -12.55 -40.7 25.65 L-40.65 26.0 -40.15 26.0 Q-39.65 26.0 -39.35 26.35 -39.0 26.65 -39.0 27.15 L-39.0 28.75 Q-39.0 29.2 -39.35 29.55 L-39.85 29.85 Q-39.4 31.25 -39.1 33.2 L-38.65 38.3 Q-39.35 39.0 -41.3 39.15 -43.35 39.25 -44.05 38.55 -44.3 38.3 -44.35 37.45 -44.45 36.15 -44.15 33.45 L-43.65 29.85 Q-44.05 29.85 -44.35 29.55 -44.7 29.2 -44.7 28.75 L-44.7 27.15 Q-44.7 26.65 -44.35 26.35 -44.05 26.0 -43.65 26.0 L-40.7 26.0 -40.65 26.0 M-40.3 28.7 L-41.7 28.2 Q-42.75 28.0 -43.25 28.55 M-43.55 29.05 L-43.65 29.85 M-8.5 37.85 L-8.05 37.65 -8.0 37.55 Q-7.65 37.2 -7.65 36.75 L-7.65 35.15 Q-7.65 34.65 -8.0 34.35 -8.35 34.0 -8.8 34.0 L-9.2 34.0 M-13.0 45.45 Q-12.95 46.3 -12.7 46.55 -11.95 47.3 -9.95 47.15 -8.0 47.0 -7.35 46.3 L-7.35 45.85 -7.45 44.6 -7.65 42.55 -7.95 40.95 -8.5 37.85 M-12.3 37.85 L-12.8 41.45 Q-13.1 44.15 -13.0 45.45" fill="none" stroke="#000000" stroke-linecap="round" stroke-linejoin="round" stroke-opacity="0.6" stroke-width="1.0"/>
    <path d="M45.3 29.9 L45.35 29.95 48.5 31.95 Q48.85 32.15 48.55 32.65 L47.55 34.2 47.35 34.5 46.9 34.45 43.65 32.4 Q43.3 32.2 43.6 31.7 L44.6 30.15 Q44.95 29.65 45.3 29.9 M-12.2 34.0 L-9.2 34.0 M-39.85 29.85 L-40.0 29.35 -40.3 28.7 M-43.25 28.55 L-43.55 29.05 M-11.9 36.55 Q-11.4 36.0 -10.35 36.2 -9.6 36.35 -8.95 36.7 L-8.7 37.35 -8.5 37.85 M-12.2 37.05 L-11.9 36.55" fill="none" stroke="#000000" stroke-linecap="round" stroke-linejoin="round" stroke-opacity="0.4" stroke-width="1.0"/>
  </g>
</svg>
