<?xml version="1.0" encoding="UTF-8" standalone="no"?>
<svg xmlns:xlink="http://www.w3.org/1999/xlink" height="90.5px" width="105.95px" xmlns="http://www.w3.org/2000/svg">
  <g transform="matrix(1.0, 0.0, 0.0, 1.0, 52.95, 45.25)">
    <path d="M36.1 -39.6 L36.1 -37.85 35.05 -36.5 7.0 -36.5 Q6.1 -37.95 6.05 -40.05 6.0 -42.1 6.75 -44.7 L23.65 -45.15 Q25.55 -39.4 36.1 -39.6 M34.7 -33.15 Q34.9 -32.55 35.25 -32.2 36.3 -31.2 39.2 -30.8 L39.6 -30.8 Q40.8 -30.6 41.8 -28.4 42.85 -25.75 43.9 -24.7 L26.75 -24.7 Q25.8 -26.2 25.7 -28.25 25.65 -30.25 26.45 -32.95 L34.7 -33.15 M3.8 -40.05 Q3.75 -37.95 2.75 -36.5 L-23.65 -36.5 Q-18.3 -40.45 -17.2 -45.25 L3.1 -44.7 3.35 -43.85 3.8 -40.05 M51.8 12.55 Q50.85 17.25 49.95 19.2 L48.05 21.35 26.75 21.35 Q25.8 19.95 25.7 17.85 25.65 15.8 26.45 13.15 L51.8 12.55 M45.7 24.3 Q44.45 26.1 44.55 28.25 44.7 31.0 43.9 32.5 L43.3 33.15 16.05 33.15 Q15.15 31.75 15.05 29.6 14.95 27.6 15.8 24.95 L45.7 24.3 M43.95 1.2 Q45.85 4.25 44.3 9.4 L6.75 10.35 7.0 1.2 43.95 1.2 M23.25 -33.85 L22.95 -24.7 -13.9 -24.7 Q-14.95 -26.2 -15.0 -28.25 -15.0 -30.25 -14.25 -32.95 L23.25 -33.85 M27.65 -1.3 Q26.7 -2.8 26.7 -4.9 26.55 -6.95 27.35 -9.4 L27.35 -9.5 51.75 -10.1 52.0 -8.65 51.4 -4.6 Q51.4 -3.3 52.5 -2.1 L53.0 -1.3 27.65 -1.3 M25.65 -9.85 L25.4 -0.65 -11.5 -0.65 Q-12.55 -2.1 -12.55 -4.2 -12.65 -6.25 -11.8 -8.85 L25.65 -9.85 M1.35 -21.6 Q2.6 -21.6 3.8 -20.7 L3.8 -13.05 -11.9 -12.25 -24.3 -11.9 -27.35 -11.9 -32.5 -12.45 Q-35.15 -13.45 -35.15 -18.25 -35.15 -19.4 -34.55 -19.8 L-34.15 -20.1 -29.55 -21.25 -26.8 -21.3 -21.25 -20.9 -13.85 -20.7 -13.45 -20.7 1.35 -21.6 M8.15 -15.95 Q8.1 -18.05 8.8 -20.7 L46.3 -21.6 46.0 -12.45 9.1 -12.45 Q8.6 -13.3 8.4 -14.1 L8.15 -15.95 M1.25 10.5 L-7.05 11.1 -8.2 11.1 -35.15 9.95 -35.15 2.3 Q-33.9 1.3 -32.7 1.3 L-17.8 2.3 -11.45 2.0 -10.05 1.95 -4.55 1.65 -1.8 1.7 2.9 2.9 3.2 3.1 Q3.8 3.6 3.8 4.75 3.8 7.05 3.15 8.65 2.5 10.05 1.25 10.5 M23.25 41.7 L16.2 45.25 -14.7 45.25 -15.0 36.15 22.45 37.05 Q23.3 39.65 23.25 41.7 M19.2 22.25 L-17.75 22.25 -17.95 13.05 19.45 13.95 Q20.2 16.25 20.25 18.25 20.25 20.5 19.2 22.25 M12.9 33.8 L-24.55 32.9 Q-25.35 30.25 -25.3 28.2 -25.25 26.15 -24.35 24.55 L12.6 24.55 12.9 33.8 M-41.3 -9.1 L-41.05 -9.5 -15.0 -8.85 -14.8 -8.15 Q-14.25 -6.0 -14.25 -4.2 -14.3 -2.1 -15.3 -0.65 L-45.6 -0.65 Q-46.0 -1.6 -46.0 -2.35 -46.0 -3.1 -44.15 -5.25 -41.95 -8.0 -41.3 -9.1 M-30.05 28.5 Q-29.55 31.85 -30.9 34.15 L-51.7 34.15 -50.85 31.05 Q-50.45 29.25 -48.75 28.0 -50.95 27.75 -52.95 25.4 L-30.65 25.8 -30.05 28.5 M-17.95 -28.05 Q-17.95 -26.55 -18.3 -25.35 L-19.0 -23.75 -37.45 -23.75 -37.4 -24.0 Q-35.0 -29.4 -34.25 -29.8 -33.1 -30.8 -30.6 -32.25 L-18.8 -32.0 Q-18.15 -29.75 -17.95 -28.05" fill="#cccccc" fill-rule="evenodd" stroke="none"/>
  </g>
</svg>
