<?xml version="1.0" encoding="UTF-8" standalone="no"?>
<svg xmlns:xlink="http://www.w3.org/1999/xlink" height="76.8px" width="83.8px" xmlns="http://www.w3.org/2000/svg">
  <g transform="matrix(1.0, 0.0, 0.0, 1.0, 41.9, 38.4)">
    <path d="M25.6 -15.0 L27.9 -11.35 Q30.4 -7.25 31.05 -5.2 32.2 -1.95 33.25 5.2 L39.8 17.15 41.4 19.3 35.4 22.6 10.9 28.55 -11.45 35.1 -15.85 35.7 -23.0 37.9 Q-25.15 32.7 -29.65 18.7 L-34.4 4.05 Q-34.8 2.85 -34.2 1.2 -33.45 -0.45 -34.4 -2.45 -35.4 -4.85 -36.15 -11.0 L-36.55 -16.7 -41.4 -31.9 -28.2 -31.05 -20.25 -29.75 -15.3 -33.05 -9.85 -32.5 -3.3 -34.65 8.2 -36.35 22.3 -37.9 25.6 -15.0" fill="#ffffff" fill-opacity="0.0" fill-rule="evenodd" stroke="none"/>
    <path d="M25.6 -15.0 L27.9 -11.35 Q30.4 -7.25 31.05 -5.2 32.2 -1.95 33.25 5.2 L39.8 17.15 41.4 19.3 35.4 22.6 10.9 28.55 -11.45 35.1 -15.85 35.7 -23.0 37.9 Q-25.15 32.7 -29.65 18.7 L-34.4 4.05 Q-34.8 2.85 -34.2 1.2 -33.45 -0.45 -34.4 -2.45 -35.4 -4.85 -36.15 -11.0 L-36.55 -16.7 -41.4 -31.9 -28.2 -31.05 -20.25 -29.75 -15.3 -33.05 -9.85 -32.5 -3.3 -34.65 8.2 -36.35 22.3 -37.9 25.6 -15.0 Z" fill="none" stroke="#000000" stroke-linecap="round" stroke-linejoin="round" stroke-width="1.0"/>
  </g>
</svg>
