<?xml version="1.0" encoding="UTF-8" standalone="no"?>
<svg xmlns:xlink="http://www.w3.org/1999/xlink" height="16.6px" width="10.4px" xmlns="http://www.w3.org/2000/svg">
  <g transform="matrix(1.0, 0.0, 0.0, 1.0, 3.65, 35.8)">
    <path d="M1.8 -19.7 L3.6 -26.55 Q5.25 -32.5 4.25 -30.95 L1.0 -24.85 -1.6 -19.75 -3.15 -19.75 Q0.8 -28.2 5.25 -34.65 6.55 -36.5 6.15 -33.1 5.8 -30.2 4.35 -24.65 L3.0 -19.7 1.8 -19.7" fill="#ffffff" fill-opacity="0.0" fill-rule="evenodd" stroke="none"/>
    <path d="M1.8 -19.7 L3.6 -26.55 Q5.25 -32.5 4.25 -30.95 L1.0 -24.85 -1.6 -19.75 M-3.15 -19.75 Q0.8 -28.2 5.25 -34.65 6.55 -36.5 6.15 -33.1 5.8 -30.2 4.35 -24.65 L3.0 -19.7" fill="none" stroke="#000000" stroke-linecap="round" stroke-linejoin="round" stroke-opacity="0.6" stroke-width="1.0"/>
  </g>
</svg>
