<?xml version="1.0" encoding="UTF-8" standalone="no"?>
<svg xmlns:xlink="http://www.w3.org/1999/xlink" height="294.8px" width="899.55px" xmlns="http://www.w3.org/2000/svg">
  <g transform="matrix(1.0, 0.0, 0.0, 1.0, 449.75, 147.4)">
    <path d="M17.35 -100.8 L17.35 97.9 126.75 97.9 126.75 -100.8 17.35 -100.8 M155.85 -100.8 L158.25 97.9 279.4 97.9 279.4 -100.8 155.85 -100.8 M308.4 -100.8 L310.75 97.9 420.5 97.9 420.5 -100.8 308.4 -100.8 M14.45 144.0 L-446.35 146.9 -449.25 -144.0 -11.45 -146.75 -11.45 -146.9 449.3 -146.9 449.3 144.0 14.45 144.0 M-126.65 -100.8 L-126.65 98.7 -14.35 97.9 -17.25 -100.8 -126.65 -100.8 M-279.3 -100.8 L-279.3 99.8 -155.45 98.9 -155.45 -100.8 -279.3 -100.8 M-420.45 -100.8 L-417.55 100.8 -308.1 100.0 -308.1 -100.8 -420.45 -100.8" fill="#ffffff" fill-opacity="0.0" fill-rule="evenodd" stroke="none"/>
    <path d="M14.45 144.0 L-446.35 146.9 -449.25 -144.0 -11.45 -146.75 -11.45 -146.9 449.3 -146.9 449.3 144.0 14.45 144.0 Z" fill="none" stroke="#000000" stroke-linecap="round" stroke-linejoin="round" stroke-opacity="0.4" stroke-width="1.0"/>
  </g>
</svg>
