<?xml version="1.0" encoding="UTF-8" standalone="no"?>
<svg xmlns:xlink="http://www.w3.org/1999/xlink" height="193.0px" width="1164.5px" xmlns="http://www.w3.org/2000/svg">
  <g transform="matrix(1.0, 0.0, 0.0, 1.0, 582.25, 96.5)">
    <path d="M24.0 72.95 L116.2 72.95 116.2 -69.1 24.0 -69.1 24.0 72.95 M174.75 72.95 L263.05 72.95 263.05 -69.1 174.75 -69.1 174.75 72.95 M326.4 72.95 L418.6 72.95 418.6 -69.1 326.4 -69.1 326.4 72.95 M554.9 -96.0 Q581.75 -96.0 581.75 -84.5 581.75 -72.95 554.9 -72.95 L478.1 -72.95 478.1 69.1 554.9 69.1 Q581.75 69.1 581.75 80.65 581.75 92.15 554.9 92.15 L-554.85 96.0 Q-581.75 96.0 -581.75 84.5 -581.75 72.95 -554.85 72.95 L-485.75 72.95 -485.75 -69.1 -554.85 -69.1 Q-581.75 -69.1 -581.75 -80.65 -581.75 -92.15 -554.85 -92.15 L554.9 -96.0 M-429.6 72.95 L-337.4 72.95 -337.4 -69.1 -429.6 -69.1 -429.6 72.95 M-278.4 72.95 L-186.2 72.95 -186.2 -69.1 -278.4 -69.1 -278.4 72.95 M-127.2 72.95 L-35.0 72.95 -35.0 -69.1 -127.2 -69.1 -127.2 72.95" fill="#ffffff" fill-opacity="0.0" fill-rule="evenodd" stroke="none"/>
    <path d="M24.0 -69.1 L116.2 -69.1 116.2 72.95 24.0 72.95 M174.75 -69.1 L263.05 -69.1 263.05 72.95 174.75 72.95 M326.4 -69.1 L418.6 -69.1 418.6 72.95 326.4 72.95 M478.1 -72.95 L554.9 -72.95 Q581.75 -72.95 581.75 -84.5 581.75 -96.0 554.9 -96.0 M-554.85 -92.15 Q-581.75 -92.15 -581.75 -80.65 -581.75 -69.1 -554.85 -69.1 L-485.75 -69.1 -485.75 72.95 -554.85 72.95 Q-581.75 72.95 -581.75 84.5 -581.75 96.0 -554.85 96.0 M554.9 92.15 Q581.75 92.15 581.75 80.65 581.75 69.1 554.9 69.1 L478.1 69.1 M-429.6 -69.1 L-337.4 -69.1 -337.4 72.95 -429.6 72.95 M-278.4 -69.1 L-186.2 -69.1 -186.2 72.95 -278.4 72.95 M-127.2 -69.1 L-35.0 -69.1 -35.0 72.95 -127.2 72.95" fill="none" stroke="#000000" stroke-linecap="round" stroke-linejoin="round" stroke-opacity="0.4" stroke-width="1.0"/>
    <path d="M24.0 72.95 L24.0 -69.1 M174.75 72.95 L174.75 -69.1 M326.4 72.95 L326.4 -69.1 M478.1 69.1 L478.1 -72.95 M-429.6 72.95 L-429.6 -69.1 M-278.4 72.95 L-278.4 -69.1 M-127.2 72.95 L-127.2 -69.1" fill="none" stroke="#000000" stroke-linecap="round" stroke-linejoin="round" stroke-opacity="0.6" stroke-width="1.0"/>
    <path d="M554.9 -96.0 L-554.85 -92.15" fill="none" stroke="#000000" stroke-linecap="round" stroke-linejoin="round" stroke-width="1.0"/>
  </g>
</svg>
