<?xml version="1.0" encoding="UTF-8" standalone="no"?>
<svg xmlns:xlink="http://www.w3.org/1999/xlink" height="39.0px" width="32.4px" xmlns="http://www.w3.org/2000/svg">
  <g transform="matrix(1.0, 0.0, 0.0, 1.0, 16.2, 19.5)">
    <path d="M0.0 18.5 L-6.15 18.95 Q-1.85 14.2 -8.35 0.0 -10.4 -4.45 -13.25 -9.3 L-15.7 -13.25 Q-15.35 -14.45 -13.85 -14.9 L-12.45 -15.15 -9.05 -8.75 -9.15 -9.95 Q-9.15 -13.7 -6.5 -16.35 -3.85 -19.0 -0.15 -19.0 3.6 -19.0 6.25 -16.35 8.85 -13.7 8.85 -9.95 L8.65 -7.95 12.4 -15.15 13.85 -14.9 Q15.35 -14.45 15.7 -13.25 L13.25 -9.3 Q10.4 -4.45 8.35 0.0 1.85 14.2 6.15 18.95 L0.0 18.5 5.05 18.15 0.0 18.5 M0.0 8.55 L5.05 18.15 0.0 8.55 6.5 -3.8 6.25 -3.6 Q3.6 -0.95 -0.15 -0.95 -3.7 -0.95 -6.25 -3.35 L0.0 8.55 M-9.05 -8.75 L-6.25 -3.35 -9.05 -8.75 M8.65 -7.95 L6.5 -3.8 8.65 -7.95" fill="#ffffff" fill-opacity="0.0" fill-rule="evenodd" stroke="none"/>
    <path d="M0.0 18.5 L-6.15 18.95 Q-1.85 14.2 -8.35 0.0 -10.4 -4.45 -13.25 -9.3 L-15.7 -13.25 Q-15.35 -14.45 -13.85 -14.9 L-12.45 -15.15 -9.05 -8.75 -9.15 -9.95 Q-9.15 -13.7 -6.5 -16.35 -3.85 -19.0 -0.15 -19.0 3.6 -19.0 6.25 -16.35 8.85 -13.7 8.85 -9.95 L8.65 -7.95 12.4 -15.15 13.85 -14.9 Q15.35 -14.45 15.7 -13.25 L13.25 -9.3 Q10.4 -4.45 8.35 0.0 1.85 14.2 6.15 18.95 L0.0 18.5 M0.0 8.55 L-6.25 -3.35 Q-3.7 -0.95 -0.15 -0.95 3.6 -0.95 6.25 -3.6 L6.5 -3.8 0.0 8.55" fill="none" stroke="#000000" stroke-linecap="round" stroke-linejoin="miter-clip" stroke-miterlimit="10.0" stroke-width="1.0"/>
    <path d="M0.0 18.5 L5.05 18.15" fill="none" stroke="#000000" stroke-linecap="round" stroke-linejoin="miter-clip" stroke-miterlimit="10.0" stroke-width="1.0"/>
    <path d="M5.05 18.15 L0.0 8.55" fill="none" stroke="#000000" stroke-linecap="butt" stroke-linejoin="miter-clip" stroke-miterlimit="10.0" stroke-opacity="0.6" stroke-width="1.0"/>
    <path d="M-6.25 -3.35 L-9.05 -8.75 M6.5 -3.8 L8.65 -7.95" fill="none" stroke="#000000" stroke-linecap="round" stroke-linejoin="miter-clip" stroke-miterlimit="10.0" stroke-opacity="0.6" stroke-width="1.0"/>
    <path d="M0.5 -13.95 Q-0.25 -13.5 -1.25 -13.5 -2.25 -13.5 -3.0 -13.95 -3.7 -14.4 -3.7 -15.05 -3.7 -15.65 -3.0 -16.1 -2.25 -16.55 -1.25 -16.55 L0.5 -16.1 Q1.2 -15.65 1.2 -15.05 1.2 -14.4 0.5 -13.95" fill="#ffffff" fill-opacity="0.8" fill-rule="evenodd" stroke="none"/>
    <path d="M-7.35 -0.8 L-14.05 -13.0 Q-6.9 -3.95 -3.25 7.6 -1.45 13.4 -1.05 17.35 L-3.15 17.35 Q-1.1 12.4 -7.35 -0.8" fill="#ffffff" fill-opacity="0.8" fill-rule="evenodd" stroke="none"/>
  </g>
</svg>
