<?xml version="1.0" encoding="UTF-8" standalone="no"?>
<svg xmlns:xlink="http://www.w3.org/1999/xlink" height="25.15px" width="72.7px" xmlns="http://www.w3.org/2000/svg">
  <g transform="matrix(1.0, 0.0, 0.0, 1.0, 35.55, 218.85)">
    <path d="M7.9 -203.45 Q5.35 -200.9 1.75 -200.9 -1.9 -200.9 -4.45 -203.45 -7.0 -206.0 -7.0 -209.6 -7.0 -213.2 -4.45 -215.75 -1.9 -218.35 1.75 -218.35 5.35 -218.35 7.9 -215.75 10.45 -213.2 10.45 -209.6 10.45 -206.0 7.9 -203.45" fill="#ffffff" fill-opacity="0.0" fill-rule="evenodd" stroke="none"/>
    <path d="M7.9 -203.45 Q5.35 -200.9 1.75 -200.9 -1.9 -200.9 -4.45 -203.45 -7.0 -206.0 -7.0 -209.6 -7.0 -213.2 -4.45 -215.75 -1.9 -218.35 1.75 -218.35 5.35 -218.35 7.9 -215.75 10.45 -213.2 10.45 -209.6 10.45 -206.0 7.9 -203.45 Z" fill="none" stroke="#000000" stroke-linecap="butt" stroke-linejoin="miter-clip" stroke-miterlimit="10.0" stroke-opacity="0.6" stroke-width="1.0"/>
    <path d="M-31.75 -204.1 Q-30.1 -205.8 -27.7 -205.8 -25.3 -205.8 -23.6 -204.1 -21.9 -202.4 -21.9 -200.0 -21.9 -197.6 -23.6 -195.9 -25.3 -194.2 -27.7 -194.2 -30.1 -194.2 -31.75 -195.9 -33.45 -197.6 -33.45 -200.0 -33.45 -202.4 -31.75 -204.1" fill="#ffffff" fill-opacity="0.0" fill-rule="evenodd" stroke="none"/>
    <path d="M-31.75 -204.1 Q-30.1 -205.8 -27.7 -205.8 -25.3 -205.8 -23.6 -204.1 -21.9 -202.4 -21.9 -200.0 -21.9 -197.6 -23.6 -195.9 -25.3 -194.2 -27.7 -194.2 -30.1 -194.2 -31.75 -195.9 -33.45 -197.6 -33.45 -200.0 -33.45 -202.4 -31.75 -204.1 Z" fill="none" stroke="#000000" stroke-linecap="butt" stroke-linejoin="miter-clip" stroke-miterlimit="10.0" stroke-opacity="0.6" stroke-width="1.0"/>
    <path d="M26.8 -204.1 Q28.45 -205.8 30.85 -205.8 33.25 -205.8 34.95 -204.1 36.65 -202.4 36.65 -200.0 36.65 -197.6 34.95 -195.9 33.25 -194.2 30.85 -194.2 28.45 -194.2 26.8 -195.9 25.1 -197.6 25.1 -200.0 25.1 -202.4 26.8 -204.1" fill="#ffffff" fill-opacity="0.0" fill-rule="evenodd" stroke="none"/>
    <path d="M26.8 -204.1 Q28.45 -205.8 30.85 -205.8 33.25 -205.8 34.95 -204.1 36.65 -202.4 36.65 -200.0 36.65 -197.6 34.95 -195.9 33.25 -194.2 30.85 -194.2 28.45 -194.2 26.8 -195.9 25.1 -197.6 25.1 -200.0 25.1 -202.4 26.8 -204.1 Z" fill="none" stroke="#000000" stroke-linecap="butt" stroke-linejoin="miter-clip" stroke-miterlimit="10.0" stroke-opacity="0.6" stroke-width="1.0"/>
    <path d="M-27.8 -198.6 L-29.55 -204.55 Q-28.0 -205.3 -25.0 -204.15 L-27.8 -198.6" fill="#ffffff" fill-opacity="0.8" fill-rule="evenodd" stroke="none"/>
    <path d="M30.2 -198.8 L26.45 -200.4 27.0 -201.95 Q27.65 -203.55 28.4 -203.95 L30.2 -198.8" fill="#ffffff" fill-opacity="0.8" fill-rule="evenodd" stroke="none"/>
    <path d="M-5.65 -210.1 Q-5.25 -213.05 -3.75 -214.5 L1.6 -211.25 -5.8 -207.4 -5.65 -210.1" fill="#ffffff" fill-opacity="0.8" fill-rule="evenodd" stroke="none"/>
  </g>
</svg>
