<?xml version="1.0" encoding="UTF-8" standalone="no"?>
<svg xmlns:xlink="http://www.w3.org/1999/xlink" height="143.3px" width="323.3px" xmlns="http://www.w3.org/2000/svg">
  <g transform="matrix(1.0, 0.0, 0.0, 1.0, 55.4, -14.6)">
    <path d="M262.95 27.35 L262.95 51.8 262.85 51.8 143.6 51.8 Q121.9 45.4 113.25 33.15 111.15 30.3 110.05 27.35 L262.95 27.35" fill="#000000" fill-opacity="0.2" fill-rule="evenodd" stroke="none"/>
    <path d="M-54.9 15.1 L267.4 15.1 267.4 27.35 262.95 27.35 110.05 27.35 Q111.15 30.3 113.25 33.15 121.9 45.4 143.6 51.8 L262.85 51.8 262.85 74.75 259.75 74.75 259.75 157.4 59.35 157.4 59.35 73.3 Q50.15 63.7 46.95 44.55 45.8 38.15 45.55 31.3 L45.55 27.35 -54.9 27.35 -54.9 15.1 M59.35 73.3 L60.85 74.75 59.35 73.3 M45.55 27.35 L110.05 27.35 45.55 27.35 M60.85 74.75 L259.75 74.75 60.85 74.75" fill="#ffffff" fill-opacity="0.0" fill-rule="evenodd" stroke="none"/>
    <path d="M-54.9 15.1 L267.4 15.1 267.4 27.35 262.95 27.35 M59.35 157.4 L59.35 73.3 M45.55 31.3 L45.55 27.35" fill="none" stroke="#000000" stroke-linecap="butt" stroke-linejoin="miter-clip" stroke-miterlimit="10.0" stroke-width="1.0"/>
    <path d="M113.25 33.15 Q121.9 45.4 143.6 51.8" fill="none" stroke="#000000" stroke-linecap="butt" stroke-linejoin="miter-clip" stroke-miterlimit="10.0" stroke-opacity="0.6" stroke-width="1.0"/>
    <path d="M262.95 27.35 L110.05 27.35 45.55 27.35" fill="none" stroke="#000000" stroke-linecap="round" stroke-linejoin="miter-clip" stroke-miterlimit="10.0" stroke-opacity="0.6" stroke-width="1.0"/>
    <path d="M262.95 51.8 L262.85 51.8 M262.85 74.75 L259.75 74.75 M259.75 157.4 L59.35 157.4 M46.95 44.55 Q45.8 38.15 45.55 31.3 M-54.9 27.35 L-54.9 15.1 M60.85 74.75 L59.35 73.3" fill="none" stroke="#000000" stroke-linecap="butt" stroke-linejoin="miter-clip" stroke-miterlimit="10.0" stroke-width="1.0"/>
    <path d="M110.05 27.35 Q111.15 30.3 113.25 33.15 M259.75 74.75 L60.85 74.75" fill="none" stroke="#000000" stroke-linecap="round" stroke-linejoin="miter-clip" stroke-miterlimit="10.0" stroke-opacity="0.6" stroke-width="1.0"/>
    <path d="M262.95 27.35 L262.95 51.8 M262.85 51.8 L262.85 74.75 M259.75 74.75 L259.75 157.4 M59.35 73.3 Q50.15 63.7 46.95 44.55 M45.55 27.35 L-54.9 27.35" fill="none" stroke="#000000" stroke-linecap="round" stroke-linejoin="miter-clip" stroke-miterlimit="10.0" stroke-width="1.0"/>
    <path d="M143.6 51.8 L262.85 51.8" fill="none" stroke="#000000" stroke-linecap="butt" stroke-linejoin="miter-clip" stroke-miterlimit="10.0" stroke-opacity="0.6" stroke-width="1.0"/>
    <path d="M-20.25 143.65 Q-20.25 141.5 -18.7 140.05 -17.25 138.5 -15.1 138.5 -12.95 138.5 -11.5 140.05 -10.05 141.5 -10.05 143.65 -10.05 145.75 -11.5 147.2 -12.95 148.65 -15.1 148.65 -17.25 148.65 -18.7 147.2 -20.25 145.75 -20.25 143.65" fill="#ffffff" fill-opacity="0.0" fill-rule="evenodd" stroke="none"/>
    <path d="M-20.25 143.65 Q-20.25 141.5 -18.7 140.05 -17.25 138.5 -15.1 138.5 -12.95 138.5 -11.5 140.05 -10.05 141.5 -10.05 143.65 -10.05 145.75 -11.5 147.2 -12.95 148.65 -15.1 148.65 -17.25 148.65 -18.7 147.2 -20.25 145.75 -20.25 143.65 Z" fill="none" stroke="#000000" stroke-linecap="butt" stroke-linejoin="miter-clip" stroke-miterlimit="10.0" stroke-width="1.0"/>
    <path d="M261.3 31.4 L115.4 31.4 115.4 28.35 261.3 28.35 261.3 31.4" fill="#ffffff" fill-opacity="0.8" fill-rule="evenodd" stroke="none"/>
  </g>
</svg>
