<?xml version="1.0" encoding="UTF-8" standalone="no"?>
<svg xmlns:xlink="http://www.w3.org/1999/xlink" height="75.35px" width="78.3px" xmlns="http://www.w3.org/2000/svg">
  <g transform="matrix(1.0, 0.0, 0.0, 1.0, 116.5, 58.4)">
    <path d="M-48.2 -52.6 Q-50.05 -51.35 -49.9 -50.4 -49.65 -48.95 -45.95 -42.9 L-44.75 -43.8 Q-43.65 -45.0 -44.1 -46.65 -45.1 -50.2 -45.6 -51.15 -46.75 -53.55 -48.2 -52.6 M-82.8 -17.25 L-81.65 -14.9 Q-80.8 -13.15 -79.5 -12.6 -75.65 -10.95 -66.45 -19.45 -66.25 -22.7 -66.35 -26.4 -66.55 -33.75 -67.95 -35.85 -69.5 -38.2 -76.75 -28.5 -84.05 -18.8 -82.8 -17.25 M-87.3 -30.65 Q-85.25 -34.25 -82.1 -38.0 -75.75 -45.45 -70.15 -45.9 L-67.35 -46.25 Q-64.2 -46.15 -62.35 -44.05 -60.45 -41.95 -58.25 -31.8 -57.15 -26.7 -56.4 -22.05 -54.55 -24.45 -53.1 -27.95 -50.2 -34.95 -52.3 -40.3 -54.4 -45.65 -55.4 -50.2 L-56.0 -53.7 -53.25 -56.05 Q-50.0 -58.25 -47.45 -57.8 -44.4 -57.25 -42.1 -53.45 -39.8 -49.7 -39.25 -44.4 -38.6 -38.0 -41.95 -30.15 -46.05 -20.6 -54.15 -15.0 -66.05 -6.8 -72.75 -0.85 L-62.6 0.45 Q-52.2 2.15 -50.8 4.0 -50.0 5.1 -59.45 7.9 -68.7 10.7 -80.9 13.05 -112.95 19.3 -115.95 14.05 L-87.3 -30.65" fill="#ffffff" fill-opacity="0.0" fill-rule="evenodd" stroke="none"/>
    <path d="M-87.3 -30.65 L-115.95 14.05 Q-112.95 19.3 -80.9 13.05 -68.7 10.7 -59.45 7.9 -50.0 5.1 -50.8 4.0 -52.2 2.15 -62.6 0.45 L-72.75 -0.85 Q-66.05 -6.8 -54.15 -15.0 -46.05 -20.6 -41.95 -30.15 -38.6 -38.0 -39.25 -44.4 -39.8 -49.7 -42.1 -53.45 -44.4 -57.25 -47.45 -57.8 -50.0 -58.25 -53.25 -56.05 L-56.0 -53.7 -55.4 -50.2 Q-54.4 -45.65 -52.3 -40.3 -50.2 -34.95 -53.1 -27.95 -54.55 -24.45 -56.4 -22.05 -57.15 -26.7 -58.25 -31.8 -60.45 -41.95 -62.35 -44.05 -64.2 -46.15 -67.35 -46.25 L-70.15 -45.9 Q-75.75 -45.45 -82.1 -38.0 -85.25 -34.25 -87.3 -30.65 M-82.8 -17.25 Q-84.05 -18.8 -76.75 -28.5 -69.5 -38.2 -67.95 -35.85 -66.55 -33.75 -66.35 -26.4 -66.25 -22.7 -66.45 -19.45 -75.65 -10.95 -79.5 -12.6 -80.8 -13.15 -81.65 -14.9 L-82.8 -17.25 M-48.2 -52.6 Q-46.75 -53.55 -45.6 -51.15 -45.1 -50.2 -44.1 -46.65 -43.65 -45.0 -44.75 -43.8 L-45.95 -42.9 Q-49.65 -48.95 -49.9 -50.4 -50.05 -51.35 -48.2 -52.6" fill="none" stroke="#000000" stroke-linecap="butt" stroke-linejoin="miter-clip" stroke-miterlimit="10.0" stroke-width="1.0"/>
    <path d="M-93.6 -6.8 L-73.9 -11.65 -75.0 -9.05 -95.85 -3.45 -93.6 -6.8" fill="#000000" fill-opacity="0.4" fill-rule="evenodd" stroke="none"/>
    <path d="M-93.6 -6.8 L-73.9 -11.65 -75.0 -9.05 -95.85 -3.45 -93.6 -6.8 Z" fill="none" stroke="#000000" stroke-linecap="butt" stroke-linejoin="miter-clip" stroke-miterlimit="10.0" stroke-opacity="0.6" stroke-width="1.0"/>
    <path d="M-98.8 2.7 L-79.1 -2.15 -80.2 0.45 -101.05 6.05 -98.8 2.7" fill="#000000" fill-opacity="0.4" fill-rule="evenodd" stroke="none"/>
    <path d="M-98.8 2.7 L-79.1 -2.15 -80.2 0.45 -101.05 6.05 -98.8 2.7 Z" fill="none" stroke="#000000" stroke-linecap="butt" stroke-linejoin="miter-clip" stroke-miterlimit="10.0" stroke-opacity="0.6" stroke-width="1.0"/>
    <path d="M-78.0 -39.95 Q-74.3 -43.2 -70.55 -44.3 L-67.55 -44.75 Q-74.3 -44.55 -92.6 -17.25 -101.8 -3.65 -109.6 9.95 L-111.1 9.55 -96.8 -13.25 Q-81.7 -36.65 -78.0 -39.95" fill="#ffffff" fill-opacity="0.6" fill-rule="evenodd" stroke="none"/>
    <path d="M-48.75 -38.05 Q-48.45 -35.6 -49.5 -31.45 -50.95 -26.0 -54.05 -22.15 -52.8 -24.75 -51.7 -27.95 -49.45 -34.35 -50.15 -37.5 L-54.9 -52.85 -51.95 -46.3 Q-48.95 -39.45 -48.75 -38.05" fill="#ffffff" fill-opacity="0.6" fill-rule="evenodd" stroke="none"/>
  </g>
</svg>
