<?xml version="1.0" encoding="UTF-8" standalone="no"?>
<svg xmlns:xlink="http://www.w3.org/1999/xlink" height="13.15px" width="48.2px" xmlns="http://www.w3.org/2000/svg">
  <g transform="matrix(1.0, 0.0, 0.0, 1.0, 23.95, 6.55)">
    <path d="M6.55 -0.05 L6.85 -0.05 Q7.25 -0.15 8.45 -1.2 L8.85 -1.5 8.85 3.1 8.8 3.15 8.0 3.45 6.65 3.45 6.6 3.45 6.65 3.45 8.0 3.45 7.75 3.5 7.75 5.8 Q7.35 6.1 6.9 6.0 L6.6 5.8 6.6 3.45 5.8 3.1 5.9 1.35 5.95 0.55 6.5 -0.05 6.55 -0.05 M13.3 -1.3 L13.35 -1.2 13.45 -1.05 14.3 -0.25 12.8 2.45 10.5 2.75 13.3 -1.3 M-20.95 -0.5 L-20.6 -0.85 -19.9 -1.5 -19.85 -1.5 -19.6 -1.7 -19.6 -1.75 -19.55 -1.7 -19.55 -1.65 -19.5 -1.65 -17.05 2.75 -19.7 2.2 -20.95 -0.5 M-16.25 -2.1 L-15.3 -1.3 Q-13.85 0.05 -13.6 0.05 -13.2 0.05 -12.55 -1.4 L-12.5 0.05 -12.7 1.35 -12.85 1.6 -13.3 1.9 -14.65 2.0 -13.3 1.9 -13.1 5.9 -14.0 5.8 -14.65 2.0 -15.05 1.85 -16.05 1.2 -16.25 -2.1 M-19.85 -1.5 L-19.55 -1.7 -19.85 -1.5" fill="#000000" fill-opacity="0.2" fill-rule="evenodd" stroke="none"/>
    <path d="M8.85 -1.5 L8.45 -1.2 Q7.25 -0.15 6.85 -0.05 L6.55 -0.05 Q6.1 -0.25 5.9 -1.25 L5.75 -2.5 18.3 -2.25 5.75 -2.5 -12.0 -2.8 -21.35 -3.0 -22.65 -3.35 -21.35 -3.0 -12.0 -2.8 -12.55 -1.4 Q-13.2 0.05 -13.6 0.05 -13.85 0.05 -15.3 -1.3 L-16.25 -2.1 Q-17.05 -2.7 -17.55 -2.75 L-18.05 -2.7 -19.3 -1.95 -19.55 -1.8 -19.6 -1.75 -19.6 -1.7 -19.85 -1.5 -19.9 -1.5 -20.6 -0.85 -20.95 -0.5 -21.25 -0.2 Q-21.8 -0.45 -22.35 -2.1 L-22.65 -3.35 -22.7 -3.4 Q-23.85 -3.95 -23.15 -4.75 L-23.05 -4.75 -22.7 -4.55 -21.35 -4.15 19.3 -3.35 Q20.8 -3.35 22.25 -3.95 22.95 -4.2 23.35 -4.5 L23.4 -4.55 23.45 -4.1 23.35 -3.35 Q22.95 -3.1 22.25 -2.8 20.8 -2.25 19.3 -2.25 L18.3 -2.25 17.3 -2.25 17.5 -2.1 15.95 -0.35 Q15.35 0.1 14.7 -0.05 L14.3 -0.25 13.45 -1.05 13.35 -1.2 13.3 -1.3 12.7 -2.1 10.25 -2.1 Q9.7 -2.1 8.85 -1.5 M6.5 -0.05 L5.95 0.55 5.9 1.35 -12.7 1.35 -12.5 0.05 6.5 -0.05" fill="#ffffff" fill-opacity="0.0" fill-rule="evenodd" stroke="none"/>
    <path d="M23.4 -4.55 L23.35 -4.5 Q22.95 -4.2 22.25 -3.95 20.8 -3.35 19.3 -3.35 L-21.35 -4.15 -22.7 -4.55 -23.05 -4.75 Q-23.75 -5.25 -23.15 -5.9 L13.95 -6.05 Q23.8 -5.8 23.4 -4.55" fill="#ffffff" fill-opacity="0.2" fill-rule="evenodd" stroke="none"/>
    <path d="M18.3 -2.25 L19.3 -2.25 Q20.8 -2.25 22.25 -2.8 22.95 -3.1 23.35 -3.35 L23.45 -4.1 23.4 -4.55 23.35 -4.5 Q22.95 -4.2 22.25 -3.95 20.8 -3.35 19.3 -3.35 L-21.35 -4.15 -22.7 -4.55 -23.05 -4.75 -23.15 -4.75 Q-23.85 -3.95 -22.7 -3.4 L-22.65 -3.35 -21.35 -3.0 -12.0 -2.8 5.75 -2.5 M-23.05 -4.75 Q-23.75 -5.25 -23.15 -5.9 L13.95 -6.05 Q23.8 -5.8 23.4 -4.55 M13.3 -1.3 L10.5 2.75 12.8 2.45 14.3 -0.25 M6.6 3.45 L6.6 5.8 6.9 6.0 Q7.35 6.1 7.75 5.8 L7.75 3.5 M-20.95 -0.5 L-20.6 -0.85 -19.9 -1.5 -19.85 -1.5 -19.55 -1.7 -19.6 -1.75 M-19.3 -1.95 L-18.05 -2.7 -17.55 -2.75 Q-17.05 -2.7 -16.25 -2.1 L-15.3 -1.3 Q-13.85 0.05 -13.6 0.05 -13.2 0.05 -12.55 -1.4 L-12.0 -2.8 M-22.65 -3.35 L-22.35 -2.1 Q-21.8 -0.45 -21.25 -0.2 L-20.95 -0.5 -19.7 2.2 -17.05 2.75 -19.5 -1.65 -19.55 -1.65 -19.55 -1.7 -19.3 -1.95 M-14.65 2.0 L-13.3 1.9 -12.85 1.6 -12.7 1.35 -12.5 0.05 -12.55 -1.4 M-14.65 2.0 L-14.0 5.8 -13.1 5.9 -13.3 1.9 M-16.25 -2.1 L-16.05 1.2 -15.05 1.85 -14.65 2.0 M5.9 1.35 L-12.7 1.35 M-12.5 0.05 L6.5 -0.05" fill="none" stroke="#000000" stroke-linecap="butt" stroke-linejoin="miter-clip" stroke-miterlimit="4.0" stroke-opacity="0.6" stroke-width="1.0"/>
    <path d="M6.55 -0.05 L6.85 -0.05 Q7.25 -0.15 8.45 -1.2 L8.85 -1.5 Q9.7 -2.1 10.25 -2.1 L12.7 -2.1 13.3 -1.3 13.35 -1.2 13.45 -1.05 14.3 -0.25 14.7 -0.05 Q15.35 0.1 15.95 -0.35 L17.5 -2.1 17.3 -2.25 M6.55 -0.05 L6.5 -0.05 5.95 0.55 5.9 1.35 5.8 3.1 6.6 3.45 6.65 3.45 8.0 3.45 8.8 3.15 8.85 3.1 8.85 -1.5" fill="none" stroke="#000000" stroke-linecap="round" stroke-linejoin="miter-clip" stroke-miterlimit="4.0" stroke-opacity="0.6" stroke-width="1.0"/>
    <path d="M18.3 -2.25 L5.75 -2.5 5.9 -1.25 Q6.1 -0.25 6.55 -0.05" fill="none" stroke="#000000" stroke-linecap="butt" stroke-linejoin="miter-clip" stroke-miterlimit="4.0" stroke-opacity="0.6" stroke-width="1.0"/>
  </g>
</svg>
