<?xml version="1.0" encoding="UTF-8" standalone="no"?>
<svg xmlns:xlink="http://www.w3.org/1999/xlink" height="11.05px" width="12.25px" xmlns="http://www.w3.org/2000/svg">
  <g transform="matrix(1.0, 0.0, 0.0, 1.0, 6.2, 4.85)">
    <path d="M3.3 0.15 Q3.25 1.5 2.25 2.4 1.25 3.35 -0.15 3.3 -1.5 3.25 -2.45 2.25 -3.35 1.25 -3.3 -0.15 -3.2 -1.5 -2.25 -2.4 -1.25 -3.3 0.1 -3.3 1.5 -3.25 2.4 -2.25 3.35 -1.25 3.3 0.15" fill="#ffffff" fill-opacity="0.0" fill-rule="evenodd" stroke="none"/>
    <path d="M3.3 0.15 Q3.25 1.5 2.25 2.4 1.25 3.35 -0.15 3.3 -1.5 3.25 -2.45 2.25 -3.35 1.25 -3.3 -0.15 -3.2 -1.5 -2.25 -2.4 -1.25 -3.3 0.1 -3.3 1.5 -3.25 2.4 -2.25 3.35 -1.25 3.3 0.15 Z" fill="none" stroke="#000000" stroke-linecap="butt" stroke-linejoin="miter-clip" stroke-miterlimit="10.0" stroke-width="1.0"/>
  </g>
</svg>
