<?xml version="1.0" encoding="UTF-8" standalone="no"?>
<svg xmlns:xlink="http://www.w3.org/1999/xlink" height="154.85px" width="36.25px" xmlns="http://www.w3.org/2000/svg">
  <g transform="matrix(1.0, 0.0, 0.0, 1.0, 18.15, 77.45)">
    <path d="M10.1 48.35 L10.05 45.25 12.8 48.4 Q16.8 53.4 17.6 56.7 L17.6 62.9 14.95 62.9 14.95 56.7 Q14.1 53.4 10.15 48.4 L10.1 48.35 M-5.95 54.6 L-2.75 54.6 -0.35 57.3 1.75 59.7 4.15 62.9 Q6.75 66.75 7.45 69.6 L7.45 76.9 4.25 76.9 4.25 69.6 Q3.25 65.6 -1.45 59.7 L-5.95 54.6" fill="#000000" fill-opacity="0.2" fill-rule="evenodd" stroke="none"/>
    <path d="M4.0 -10.5 L3.3 -36.4 -3.05 -64.7 Q-3.0 -65.4 -3.9 -66.45 -5.7 -68.55 -10.7 -70.15 L-11.05 -69.75 Q-11.2 -68.6 -10.4 -65.05 L-8.5 -57.35 -6.6 -50.4 Q-5.3 -45.6 -4.05 -39.25 L-2.8 -6.4 -1.8 19.95 -2.8 -6.4 4.0 -10.5 4.65 13.8 4.0 -10.5 M5.35 44.65 L4.65 13.8 -1.8 19.95 -0.6 50.3 0.2 49.25 Q3.05 46.05 5.35 44.65 L5.55 55.5 Q7.35 56.7 9.0 56.2 9.8 55.95 10.3 55.5 L10.1 48.35 10.3 55.5 Q9.8 55.95 9.0 56.2 7.35 56.7 5.55 55.5 L5.35 44.65 M10.05 45.25 L10.1 48.35 10.15 48.4 Q14.1 53.4 14.95 56.7 L14.95 62.9 4.15 62.9 1.75 59.7 -0.35 57.3 -2.75 54.6 -5.95 54.6 -6.75 55.0 -5.95 54.6 -1.45 59.7 Q3.25 65.6 4.25 69.6 L4.25 76.9 -16.75 76.9 -16.75 65.1 -13.25 60.7 Q-9.65 56.6 -6.75 55.0 L-10.4 -38.3 Q-11.7 -44.7 -14.55 -53.55 -16.6 -60.05 -17.35 -67.05 -18.1 -73.8 -17.1 -75.55 L-15.95 -76.4 Q-14.55 -77.25 -12.95 -76.8 -10.4 -76.2 -2.4 -71.4 L-0.75 -69.7 Q1.15 -66.9 2.35 -61.5 L7.2 -41.4 Q7.95 -38.25 7.75 -35.45 L10.05 45.25 M-0.6 50.3 L-0.35 57.3 -0.6 50.3" fill="#ffffff" fill-opacity="0.0" fill-rule="evenodd" stroke="none"/>
    <path d="M-2.8 -6.4 L-4.05 -39.25 Q-5.3 -45.6 -6.6 -50.4 L-8.5 -57.35 -10.4 -65.05 Q-11.2 -68.6 -11.05 -69.75 L-10.7 -70.15 Q-5.7 -68.55 -3.9 -66.45 -3.0 -65.4 -3.05 -64.7 L3.3 -36.4 4.0 -10.5 4.65 13.8 5.35 44.65 5.55 55.5 Q7.35 56.7 9.0 56.2 9.8 55.95 10.3 55.5 L10.1 48.35 10.05 45.25 7.75 -35.45 Q7.95 -38.25 7.2 -41.4 L2.35 -61.5 Q1.15 -66.9 -0.75 -69.7 L-2.4 -71.4 Q-10.4 -76.2 -12.95 -76.8 -14.55 -77.25 -15.95 -76.4 L-17.1 -75.55 Q-18.1 -73.8 -17.35 -67.05 -16.6 -60.05 -14.55 -53.55 -11.7 -44.7 -10.4 -38.3 L-6.75 55.0 -5.95 54.6 -2.75 54.6 -0.35 57.3 -0.6 50.3 -1.8 19.95 -2.8 -6.4 4.0 -10.5 M-0.6 50.3 L0.2 49.25 Q3.05 46.05 5.35 44.65 M10.1 48.35 L10.15 48.4 Q14.1 53.4 14.95 56.7 L14.95 62.9 17.6 62.9 17.6 56.7 Q16.8 53.4 12.8 48.4 L10.05 45.25 M4.25 76.9 L7.45 76.9 7.45 69.6 Q6.75 66.75 4.15 62.9 L1.75 59.7 -0.35 57.3 M4.15 62.9 L14.95 62.9 M-5.95 54.6 L-1.45 59.7 Q3.25 65.6 4.25 69.6 L4.25 76.9 -16.75 76.9 -16.75 65.1 -13.25 60.7 Q-9.65 56.6 -6.75 55.0 M-1.8 19.95 L4.65 13.8" fill="none" stroke="#000000" stroke-linecap="round" stroke-linejoin="miter-clip" stroke-miterlimit="10.0" stroke-width="1.0"/>
    <path d="M-15.85 -71.1 L-15.75 -72.1 Q-15.65 -70.05 -14.85 -66.7 L-13.25 -61.2 -7.2 -39.25 -6.45 31.2 -8.8 -38.95 -14.55 -61.2 Q-15.9 -66.6 -15.85 -71.1" fill="#ffffff" fill-rule="evenodd" stroke="none"/>
  </g>
</svg>
