<?xml version="1.0" encoding="UTF-8" standalone="no"?>
<svg xmlns:xlink="http://www.w3.org/1999/xlink" height="301.7px" width="390.2px" xmlns="http://www.w3.org/2000/svg">
  <g transform="matrix(1.0, 0.0, 0.0, 1.0, 195.1, 150.85)">
    <path d="M107.3 -143.5 L102.75 -132.9 Q102.35 -132.25 100.35 -131.65 96.25 -130.5 88.25 -130.5 L2.15 -133.7 -0.1 -133.7 -2.65 -133.65 -48.75 -132.05 -88.75 -130.5 Q-96.75 -130.5 -100.85 -131.65 L-103.25 -132.9 -107.75 -143.45 -103.25 -132.9 -100.85 -131.65 Q-96.75 -130.5 -88.75 -130.5 L-48.75 -132.05 -2.65 -133.65 -0.1 -133.7 2.15 -133.7 88.25 -130.5 Q96.25 -130.5 100.35 -131.65 102.35 -132.25 102.75 -132.9 L107.3 -143.5 120.2 -141.85 Q128.5 -132.0 145.7 -95.25 154.15 -77.2 161.0 -61.0 L161.25 -61.1 170.9 -62.55 Q181.4 -63.6 185.4 -61.4 190.3 -58.9 184.55 -51.95 180.5 -47.0 175.75 -45.8 L176.9 -44.6 177.15 -44.2 Q179.95 -38.8 185.55 -17.1 L188.1 -6.9 193.8 17.35 Q195.45 31.8 193.8 70.55 L193.8 70.6 190.45 113.55 190.2 114.6 189.85 115.7 174.45 141.25 Q160.9 147.85 93.85 149.65 L93.8 149.65 Q69.7 150.35 41.2 150.35 L4.15 150.05 3.35 150.05 2.55 150.05 1.7 150.05 0.9 150.05 0.05 150.05 Q-53.15 150.8 -93.8 149.65 -160.9 147.85 -174.45 141.25 L-177.8 136.5 Q-183.25 128.7 -186.35 123.0 L-189.35 116.8 -189.75 115.65 -190.1 114.6 -190.35 113.65 -193.55 74.2 -193.55 73.9 -193.55 73.4 -193.6 72.85 -193.6 72.55 -193.6 72.3 -193.6 72.0 -193.65 71.75 -193.65 71.45 -193.7 71.2 -193.7 70.9 -193.75 70.6 -193.75 70.55 Q-194.6 51.2 -194.6 37.9 -194.6 24.6 -193.75 17.35 L-193.55 16.55 -193.35 15.75 -187.35 -9.6 -187.15 -10.5 -186.9 -11.35 -176.9 -44.5 -176.85 -44.6 -175.65 -45.8 Q-180.45 -47.0 -184.55 -51.95 -190.2 -58.9 -185.25 -61.4 -181.25 -63.6 -170.75 -62.55 L-161.1 -61.1 -160.85 -61.0 Q-154.05 -77.2 -145.55 -95.25 -128.45 -132.0 -120.15 -141.85 L-107.75 -143.45 -89.4 -145.3 Q-50.95 -149.1 -12.55 -150.05 L-12.55 -150.35 12.65 -150.35 12.65 -150.05 Q51.1 -149.1 89.4 -145.3 L107.3 -143.5 M117.3 -118.2 Q84.8 -123.5 15.25 -123.15 L12.85 -123.15 11.65 -123.15 10.45 -123.15 7.95 -123.1 5.4 -123.1 0.05 -123.05 -5.3 -123.1 -7.85 -123.1 -10.3 -123.15 -11.55 -123.15 -12.75 -123.15 -15.1 -123.15 Q-84.7 -123.5 -117.1 -118.2 L-121.3 -117.5 Q-127.3 -105.3 -133.3 -91.25 L-133.95 -89.6 Q-144.3 -64.4 -144.35 -54.4 L-144.3 -53.1 -142.0 -41.65 Q-138.75 -27.6 -134.65 -14.55 -128.2 5.7 -120.65 20.1 L-119.55 20.7 Q-116.7 21.95 -111.05 23.0 -92.95 26.4 -53.8 27.1 L52.45 27.1 Q91.6 26.4 109.7 23.0 118.8 21.35 119.95 19.75 118.8 21.35 109.7 23.0 91.6 26.4 52.45 27.1 L-53.8 27.1 Q-92.95 26.4 -111.05 23.0 -116.7 21.95 -119.55 20.7 L-120.65 20.1 Q-128.2 5.7 -134.65 -14.55 -138.75 -27.6 -142.0 -41.65 L-144.3 -53.1 Q-130.3 -50.85 -108.8 -48.35 L-106.3 -48.1 -103.4 -47.75 Q-58.8 -42.8 -18.65 -41.35 L-18.5 -40.95 18.65 -40.95 18.65 -41.35 103.55 -47.75 106.45 -48.1 110.65 -48.55 136.05 -51.8 144.35 -53.1 144.4 -54.4 134.1 -89.55 133.4 -91.25 121.45 -117.5 117.3 -118.2 M18.65 -40.95 L18.65 -40.9 -18.55 -40.9 -18.65 -41.35 -18.55 -40.9 18.65 -40.9 18.65 -40.95 M161.0 -61.0 L161.25 -60.45 175.75 -45.8 161.25 -60.45 161.0 -61.0 M103.55 -47.75 L106.4 -48.05 110.65 -48.55 106.4 -48.05 103.55 -47.75 M-121.3 19.75 L-120.65 20.1 Q-112.6 35.5 -103.25 44.15 L-93.9 46.75 Q-82.45 49.5 -71.85 50.2 L72.0 50.2 Q82.6 49.5 93.95 46.75 99.7 45.4 103.25 44.15 121.45 27.45 134.65 -14.55 138.85 -27.7 142.0 -41.65 L144.35 -53.1 142.0 -41.65 Q138.85 -27.7 134.65 -14.55 121.45 27.45 103.25 44.15 99.7 45.4 93.95 46.75 82.6 49.5 72.0 50.2 L-71.85 50.2 Q-82.45 49.5 -93.9 46.75 L-103.25 44.15 Q-112.6 35.5 -120.65 20.1 L-121.3 19.75 M176.9 -44.6 L173.3 100.0 Q170.25 102.7 166.05 105.65 157.65 111.45 151.55 112.15 144.55 113.0 12.65 112.6 L12.65 112.5 -12.55 112.5 -12.55 112.6 Q-144.4 113.0 -151.45 112.15 -157.45 111.45 -165.95 105.65 -169.55 102.85 -173.2 100.0 L-176.85 -44.6 -173.2 100.0 Q-169.55 102.85 -165.95 105.65 -157.45 111.45 -151.45 112.15 -144.4 113.0 -12.55 112.6 L-12.55 112.5 12.65 112.5 12.65 112.6 Q144.55 113.0 151.55 112.15 157.65 111.45 166.05 105.65 170.25 102.7 173.3 100.0 L176.9 -44.6 M-31.1 15.25 Q-28.9 17.35 -26.0 17.35 L24.65 17.35 Q27.65 17.35 29.75 15.25 31.85 13.15 31.85 10.1 31.85 7.05 29.75 4.85 27.65 2.75 24.65 2.75 L-26.0 2.75 Q-29.0 2.75 -31.1 4.85 -33.2 7.05 -33.2 10.1 -33.2 13.15 -31.1 15.25 M-79.65 89.05 L-89.9 108.5 90.05 108.5 Q85.2 98.85 79.75 89.05 68.95 69.65 65.9 69.65 L-65.9 69.65 Q-68.8 69.65 -79.65 89.05 M-186.9 -11.35 L-187.15 -10.45 -187.35 -9.6 -187.15 -10.45 -186.9 -11.35 M-103.4 -47.75 L-106.3 -48.05 -108.8 -48.35 -106.3 -48.05 -103.4 -47.75 M-175.65 -45.8 L-161.1 -60.45 -160.85 -61.0 -161.1 -60.45 -175.65 -45.8 M-177.8 136.5 L-181.4 131.05 -186.35 123.0 -181.4 131.05 -177.8 136.5" fill="#ffffff" fill-opacity="0.0" fill-rule="evenodd" stroke="none"/>
    <path d="M-79.65 89.05 Q-68.8 69.65 -65.9 69.65 L65.9 69.65 Q68.95 69.65 79.75 89.05 85.2 98.85 90.05 108.5 L-89.9 108.5 -79.65 89.05" fill="#000000" fill-opacity="0.49803922" fill-rule="evenodd" stroke="none"/>
    <path d="M-31.1 15.25 Q-33.2 13.15 -33.2 10.1 -33.2 7.05 -31.1 4.85 -29.0 2.75 -26.0 2.75 L24.65 2.75 Q27.65 2.75 29.75 4.85 31.85 7.05 31.85 10.1 31.85 13.15 29.75 15.25 27.65 17.35 24.65 17.35 L-26.0 17.35 Q-28.9 17.35 -31.1 15.25" fill="#000000" fill-opacity="0.24705882" fill-rule="evenodd" stroke="none"/>
    <path d="M-18.65 -41.35 L-18.55 -40.9 18.65 -40.9 18.65 -40.95 M193.8 70.6 L190.45 113.55 190.2 114.6 189.85 115.7 174.45 141.25 Q160.9 147.85 93.85 149.65 L93.8 149.65 Q69.7 150.35 41.2 150.35 L4.15 150.05 3.35 150.05 2.55 150.05 1.7 150.05 0.9 150.05 0.05 150.05 Q-53.15 150.8 -93.8 149.65 -160.9 147.85 -174.45 141.25 L-177.8 136.5 Q-183.25 128.7 -186.35 123.0 L-189.35 116.8 -189.75 115.65 -190.1 114.6 -190.35 113.65 -193.55 74.2 -193.55 73.9 -193.55 73.4 -193.6 72.85 -193.6 72.55 -193.6 72.3 -193.6 72.0 -193.65 71.75 -193.65 71.45 -193.7 71.2 -193.7 70.9 -193.75 70.6 M-193.75 70.55 Q-194.6 51.2 -194.6 37.9 -194.6 24.6 -193.75 17.35 L-193.55 16.55 -193.35 15.75 -187.35 -9.6 -187.15 -10.5 -186.9 -11.35 -176.9 -44.5 -176.85 -44.6 -175.65 -45.8 Q-180.45 -47.0 -184.55 -51.95 -190.2 -58.9 -185.25 -61.4 -181.25 -63.6 -170.75 -62.55 L-161.1 -61.1 -160.85 -61.0 Q-154.05 -77.2 -145.55 -95.25 -128.45 -132.0 -120.15 -141.85 L-107.75 -143.45 M-176.85 -44.6 L-173.2 100.0 Q-169.55 102.85 -165.95 105.65 -157.45 111.45 -151.45 112.15 -144.4 113.0 -12.55 112.6 L-12.55 112.5 12.65 112.5 12.65 112.6 Q144.55 113.0 151.55 112.15 157.65 111.45 166.05 105.65 170.25 102.7 173.3 100.0 L176.9 -44.6 M-31.1 15.25 Q-33.2 13.15 -33.2 10.1 -33.2 7.05 -31.1 4.85 -29.0 2.75 -26.0 2.75 L24.65 2.75 Q27.65 2.75 29.75 4.85 31.85 7.05 31.85 10.1 31.85 13.15 29.75 15.25 27.65 17.35 24.65 17.35 L-26.0 17.35 Q-28.9 17.35 -31.1 15.25 M-79.65 89.05 L-89.9 108.5 90.05 108.5 Q85.2 98.85 79.75 89.05 68.95 69.65 65.9 69.65 L-65.9 69.65 Q-68.8 69.65 -79.65 89.05 M-187.35 -9.6 L-187.15 -10.45 -186.9 -11.35 M-133.95 -89.6 L-133.3 -91.25 Q-127.3 -105.3 -121.3 -117.5 L-117.1 -118.2 M-160.85 -61.0 L-161.1 -60.45 -175.65 -45.8 M-108.8 -48.35 L-106.3 -48.05 -103.4 -47.75 M-108.8 -48.35 Q-130.3 -50.85 -144.3 -53.1 M-186.35 123.0 L-181.4 131.05 -177.8 136.5" fill="none" stroke="#000000" stroke-linecap="butt" stroke-linejoin="miter-clip" stroke-miterlimit="10.0" stroke-width="1.0"/>
    <path d="M-107.75 -143.45 L-108.1 -144.25 M-144.3 -53.1 L-142.0 -41.65 Q-138.75 -27.6 -134.65 -14.55 -128.2 5.7 -120.65 20.1 L-119.55 20.7 Q-116.7 21.95 -111.05 23.0 -92.95 26.4 -53.8 27.1 L52.45 27.1 Q91.6 26.4 109.7 23.0 118.8 21.35 119.95 19.75" fill="none" stroke="#000000" stroke-linecap="butt" stroke-linejoin="miter-clip" stroke-miterlimit="10.0" stroke-opacity="0.6" stroke-width="1.0"/>
    <path d="M107.3 -143.5 L107.6 -144.25 M144.35 -53.1 L142.0 -41.65 Q138.85 -27.7 134.65 -14.55 121.45 27.45 103.25 44.15 99.7 45.4 93.95 46.75 82.6 49.5 72.0 50.2 L-71.85 50.2 Q-82.45 49.5 -93.9 46.75 L-103.25 44.15 Q-112.6 35.5 -120.65 20.1 L-121.3 19.75" fill="none" stroke="#000000" stroke-linecap="round" stroke-linejoin="miter-clip" stroke-miterlimit="10.0" stroke-opacity="0.6" stroke-width="1.0"/>
    <path d="M-107.75 -143.45 L-103.25 -132.9 -100.85 -131.65 Q-96.75 -130.5 -88.75 -130.5 L-48.75 -132.05 -2.65 -133.65 -0.1 -133.7 2.15 -133.7 88.25 -130.5 Q96.25 -130.5 100.35 -131.65 102.35 -132.25 102.75 -132.9 L107.3 -143.5" fill="none" stroke="#000000" stroke-linecap="butt" stroke-linejoin="miter-clip" stroke-miterlimit="10.0" stroke-opacity="0.6" stroke-width="1.0"/>
    <path d="M107.3 -143.5 L89.4 -145.3 Q51.1 -149.1 12.65 -150.05 L12.65 -150.35 -12.55 -150.35 -12.55 -150.05 Q-50.95 -149.1 -89.4 -145.3 L-107.75 -143.45 M175.75 -45.8 L176.9 -44.6 177.15 -44.2 Q179.95 -38.8 185.55 -17.1 L188.1 -6.9 193.8 17.35 Q195.45 31.8 193.8 70.55" fill="none" stroke="#000000" stroke-linecap="round" stroke-linejoin="miter-clip" stroke-miterlimit="10.0" stroke-width="1.0"/>
    <path d="M161.0 -61.0 Q154.15 -77.2 145.7 -95.25 128.5 -132.0 120.2 -141.85 L107.3 -143.5 M134.1 -89.55 L133.4 -91.2 121.45 -117.45 117.3 -118.2 Q84.8 -123.5 15.25 -123.15 L12.85 -123.15 11.65 -123.15 10.45 -123.15 7.95 -123.1 5.4 -123.1 0.05 -123.05 -5.3 -123.1 -7.85 -123.1 -10.3 -123.15 -11.55 -123.15 -12.75 -123.15 -15.1 -123.15 Q-84.7 -123.5 -117.1 -118.2 L-121.3 -117.45 -133.3 -91.2 -133.95 -89.6 Q-144.3 -64.4 -144.35 -54.4 L-144.3 -53.1 -108.8 -48.35 -106.3 -48.1 -103.4 -47.75 Q-58.8 -42.8 -18.65 -41.35 L-18.5 -40.95 18.65 -40.95 18.65 -41.35 103.55 -47.75 106.45 -48.1 110.65 -48.55 136.05 -51.8 144.35 -53.1 144.4 -54.4 134.1 -89.55 133.4 -91.25 121.45 -117.5 117.3 -118.2 M161.0 -61.0 L161.25 -61.1 170.9 -62.55 Q181.4 -63.6 185.4 -61.4 190.3 -58.9 184.55 -51.95 180.5 -47.0 175.75 -45.8 L161.25 -60.45 161.0 -61.0 M110.65 -48.55 L106.4 -48.05 103.55 -47.75" fill="none" stroke="#000000" stroke-linecap="round" stroke-linejoin="miter-clip" stroke-miterlimit="10.0" stroke-width="1.0"/>
    <path d="M157.85 -21.9 L158.4 -60.45 168.8 -45.45 161.35 54.4 Q158.0 23.0 157.85 -21.9 M-160.6 -17.0 Q-160.7 27.85 -164.15 59.35 L-171.6 -40.6 -161.1 -55.5 -160.6 -17.0" fill="#ffffff" fill-opacity="0.8" fill-rule="evenodd" stroke="none"/>
  </g>
</svg>
