<?xml version="1.0" encoding="UTF-8" standalone="no"?>
<svg xmlns:xlink="http://www.w3.org/1999/xlink" height="150.8px" width="147.25px" xmlns="http://www.w3.org/2000/svg">
  <g transform="matrix(1.0, 0.0, 0.0, 1.0, 73.6, 75.4)">
    <path d="M0.1 -74.9 Q30.35 -74.9 51.75 -52.95 73.15 -30.9 73.15 0.05 73.15 31.05 51.75 53.0 30.35 74.9 0.1 74.9 -30.25 74.9 -51.65 53.0 -73.1 31.05 -73.1 0.05 -73.1 -31.0 -51.65 -52.95 -30.25 -74.9 0.1 -74.9 M33.9 -34.6 Q19.85 -49.0 0.1 -49.0 -19.75 -49.0 -33.7 -34.6 -47.7 -20.3 -47.7 0.05 -47.7 20.3 -33.7 34.6 -19.75 49.0 0.1 49.0 19.85 49.0 33.9 34.6 47.85 20.3 47.85 0.05 47.85 -20.2 33.9 -34.6" fill="#ffffff" fill-opacity="0.0" fill-rule="evenodd" stroke="none"/>
    <path d="M33.9 -34.6 Q47.85 -20.2 47.85 0.05 47.85 20.3 33.9 34.6 19.85 49.0 0.1 49.0 -19.75 49.0 -33.7 34.6 -47.7 20.3 -47.7 0.05 -47.7 -20.3 -33.7 -34.6 -19.75 -49.0 0.1 -49.0 19.85 -49.0 33.9 -34.6 M0.1 -74.9 Q-30.25 -74.9 -51.65 -52.95 -73.1 -31.0 -73.1 0.05 -73.1 31.05 -51.65 53.0 -30.25 74.9 0.1 74.9 30.35 74.9 51.75 53.0 73.15 31.05 73.15 0.05 73.15 -30.9 51.75 -52.95 30.35 -74.9 0.1 -74.9" fill="none" stroke="#000000" stroke-linecap="butt" stroke-linejoin="miter-clip" stroke-miterlimit="4.0" stroke-width="1.0"/>
  </g>
</svg>
