<?xml version="1.0" encoding="UTF-8" standalone="no"?>
<svg xmlns:xlink="http://www.w3.org/1999/xlink" height="16.3px" width="10.1px" xmlns="http://www.w3.org/2000/svg">
  <g transform="matrix(1.0, 0.0, 0.0, 1.0, 5.4, 8.5)">
    <path d="M4.2 -5.4 Q4.2 -4.6 3.65 -4.05 3.1 -3.5 2.3 -3.5 L-2.3 -3.5 Q-3.05 -3.5 -3.65 -4.05 -4.2 -4.6 -4.2 -5.4 -4.2 -6.2 -3.65 -6.8 -3.1 -7.35 -2.3 -7.35 L2.3 -7.35 Q3.1 -7.35 3.65 -6.8 4.2 -6.2 4.2 -5.4" fill="#ffffff" fill-opacity="0.0" fill-rule="evenodd" stroke="none"/>
    <path d="M4.2 -5.4 Q4.2 -4.6 3.65 -4.05 3.1 -3.5 2.3 -3.5 L-2.3 -3.5 Q-3.05 -3.5 -3.65 -4.05 -4.2 -4.6 -4.2 -5.4 -4.2 -6.2 -3.65 -6.8 -3.1 -7.35 -2.3 -7.35 L2.3 -7.35 Q3.1 -7.35 3.65 -6.8 4.2 -6.2 4.2 -5.4 Z" fill="none" stroke="#000000" stroke-linecap="butt" stroke-linejoin="miter-clip" stroke-miterlimit="4.0" stroke-width="1.0"/>
    <path d="M4.2 5.4 Q4.2 6.2 3.65 6.75 3.1 7.3 2.3 7.3 L-2.3 7.3 Q-3.05 7.3 -3.65 6.75 -4.2 6.2 -4.2 5.4 -4.2 4.6 -3.65 4.05 -3.05 3.45 -2.3 3.45 L2.3 3.45 Q3.1 3.45 3.65 4.05 4.2 4.6 4.2 5.4" fill="#ffffff" fill-opacity="0.0" fill-rule="evenodd" stroke="none"/>
    <path d="M4.2 5.4 Q4.2 6.2 3.65 6.75 3.1 7.3 2.3 7.3 L-2.3 7.3 Q-3.05 7.3 -3.65 6.75 -4.2 6.2 -4.2 5.4 -4.2 4.6 -3.65 4.05 -3.05 3.45 -2.3 3.45 L2.3 3.45 Q3.1 3.45 3.65 4.05 4.2 4.6 4.2 5.4 Z" fill="none" stroke="#000000" stroke-linecap="butt" stroke-linejoin="miter-clip" stroke-miterlimit="4.0" stroke-width="1.0"/>
  </g>
</svg>
