<?xml version="1.0" encoding="UTF-8" standalone="no"?>
<svg xmlns:xlink="http://www.w3.org/1999/xlink" height="110.75px" width="113.35px" xmlns="http://www.w3.org/2000/svg">
  <g transform="matrix(1.0, 0.0, 0.0, 1.0, 56.65, 55.35)">
    <path d="M1.75 -16.65 Q8.05 -31.75 10.4 -36.2 12.65 -40.8 9.65 -47.55 L6.3 -53.45 Q13.65 -56.7 23.9 -52.3 L24.05 -52.45 27.9 -50.3 27.9 -50.2 Q37.55 -43.7 38.9 -35.95 L32.3 -35.45 Q25.3 -34.05 22.9 -29.45 19.75 -23.25 12.1 -10.75 L11.05 -11.95 Q7.05 -15.95 1.75 -16.65 7.05 -15.95 11.05 -11.95 L12.1 -10.75 Q13.85 -8.55 14.8 -6.0 L36.05 -7.2 Q41.05 -7.2 45.55 -13.05 47.65 -15.95 48.9 -18.95 55.15 -13.95 56.05 -2.2 L56.15 -2.2 56.15 0.05 56.15 2.3 56.05 2.3 Q55.15 13.8 48.9 19.05 47.65 16.2 45.55 13.2 41.05 7.3 36.05 7.3 L14.8 6.1 13.15 9.4 26.05 26.7 Q28.9 31.05 36.05 31.7 L42.55 31.3 Q41.9 39.45 33.15 46.7 L33.3 46.8 29.55 49.45 29.55 49.3 Q19.65 54.95 12.15 52.45 13.8 49.8 14.9 46.3 17.15 39.2 14.3 34.95 11.0 30.0 3.65 16.45 L-0.6 16.95 -1.75 16.9 Q-7.5 30.9 -10.35 36.3 -12.6 40.95 -9.6 47.7 -8.1 51.05 -6.2 53.55 -13.2 56.7 -23.85 52.45 L-23.95 52.55 -27.85 50.45 -27.85 50.3 Q-37.35 43.8 -38.85 36.05 L-32.2 35.55 Q-25.2 34.2 -22.85 29.55 -19.8 23.6 -12.5 11.65 -14.75 9.15 -15.85 6.2 L-35.95 7.3 Q-40.95 7.3 -45.35 13.2 L-48.85 19.05 Q-55.1 13.8 -55.95 2.3 L-56.1 2.3 -56.1 0.05 -56.1 -2.2 -55.95 -2.2 Q-55.1 -13.95 -48.85 -18.95 L-45.35 -13.05 Q-40.95 -7.2 -35.95 -7.2 L-15.85 -6.05 Q-15.1 -8.2 -13.7 -10.05 -22.75 -21.9 -25.95 -26.7 -28.7 -30.95 -35.85 -31.55 L-42.45 -31.2 Q-41.85 -39.3 -33.1 -46.55 L-33.2 -46.7 -29.45 -49.3 -29.45 -49.2 Q-19.6 -54.8 -12.1 -52.45 L-14.85 -46.2 Q-16.95 -39.05 -14.2 -34.8 -11.4 -30.5 -3.65 -16.5 L-0.6 -16.8 1.75 -16.65 M3.65 16.45 Q7.75 15.35 11.05 12.05 L13.15 9.4 11.05 12.05 Q7.75 15.35 3.65 16.45 M14.8 6.1 Q15.8 3.3 15.8 0.05 15.8 -3.2 14.8 -6.0 15.8 -3.2 15.8 0.05 15.8 3.3 14.8 6.1 M-3.65 -16.5 Q-8.45 -15.65 -12.1 -11.95 L-13.7 -10.05 -12.1 -11.95 Q-8.45 -15.65 -3.65 -16.5 M-12.5 11.65 L-12.1 12.05 Q-7.75 16.5 -1.75 16.9 -7.75 16.5 -12.1 12.05 L-12.5 11.65 M-15.85 -6.05 Q-16.95 -3.25 -16.95 0.05 -16.95 3.35 -15.85 6.2 -16.95 3.35 -16.95 0.05 -16.95 -3.25 -15.85 -6.05" fill="#ffffff" fill-opacity="0.0" fill-rule="evenodd" stroke="none"/>
    <path d="M12.1 -10.75 Q19.75 -23.25 22.9 -29.45 25.3 -34.05 32.3 -35.45 L38.9 -35.95 Q37.55 -43.7 27.9 -50.2 L27.9 -50.3 24.05 -52.45 23.9 -52.3 Q13.65 -56.7 6.3 -53.45 L9.65 -47.55 Q12.65 -40.8 10.4 -36.2 8.05 -31.75 1.75 -16.65 L-0.6 -16.8 -3.65 -16.5 Q-11.4 -30.5 -14.2 -34.8 -16.95 -39.05 -14.85 -46.2 L-12.1 -52.45 Q-19.6 -54.8 -29.45 -49.2 L-29.45 -49.3 -33.2 -46.7 -33.1 -46.55 Q-41.85 -39.3 -42.45 -31.2 L-35.85 -31.55 Q-28.7 -30.95 -25.95 -26.7 -22.75 -21.9 -13.7 -10.05 -15.1 -8.2 -15.85 -6.05 L-35.95 -7.2 Q-40.95 -7.2 -45.35 -13.05 L-48.85 -18.95 Q-55.1 -13.95 -55.95 -2.2 L-56.1 -2.2 -56.1 0.05 -56.1 2.3 -55.95 2.3 Q-55.1 13.8 -48.85 19.05 L-45.35 13.2 Q-40.95 7.3 -35.95 7.3 L-15.85 6.2 Q-14.75 9.15 -12.5 11.65 -19.8 23.6 -22.85 29.55 -25.2 34.2 -32.2 35.55 L-38.85 36.05 Q-37.35 43.8 -27.85 50.3 L-27.85 50.45 -23.95 52.55 -23.85 52.45 Q-13.2 56.7 -6.2 53.55 -8.1 51.05 -9.6 47.7 -12.6 40.95 -10.35 36.3 -7.5 30.9 -1.75 16.9 L-0.6 16.95 3.65 16.45 Q11.0 30.0 14.3 34.95 17.15 39.2 14.9 46.3 13.8 49.8 12.15 52.45 19.65 54.95 29.55 49.3 L29.55 49.45 33.3 46.8 33.15 46.7 Q41.9 39.45 42.55 31.3 L36.05 31.7 Q28.9 31.05 26.05 26.7 L13.15 9.4 14.8 6.1 36.05 7.3 Q41.05 7.3 45.55 13.2 47.65 16.2 48.9 19.05 55.15 13.8 56.05 2.3 L56.15 2.3 56.15 0.05 56.15 -2.2 56.05 -2.2 Q55.15 -13.95 48.9 -18.95 47.65 -15.95 45.55 -13.05 41.05 -7.2 36.05 -7.2 L14.8 -6.0 Q13.85 -8.55 12.1 -10.75" fill="none" stroke="#000000" stroke-linecap="round" stroke-linejoin="miter-clip" stroke-miterlimit="4.0" stroke-opacity="0.6" stroke-width="1.0"/>
    <path d="M1.75 -16.65 Q7.05 -15.95 11.05 -11.95 L12.1 -10.75 M13.15 9.4 L11.05 12.05 Q7.75 15.35 3.65 16.45 M14.8 -6.0 Q15.8 -3.2 15.8 0.05 15.8 3.3 14.8 6.1 M-13.7 -10.05 L-12.1 -11.95 Q-8.45 -15.65 -3.65 -16.5 M-1.75 16.9 Q-7.75 16.5 -12.1 12.05 L-12.5 11.65 M-15.85 6.2 Q-16.95 3.35 -16.95 0.05 -16.95 -3.25 -15.85 -6.05" fill="none" stroke="#000000" stroke-linecap="round" stroke-linejoin="miter-clip" stroke-miterlimit="4.0" stroke-opacity="0.4" stroke-width="1.0"/>
  </g>
</svg>
