<?xml version="1.0" encoding="UTF-8" standalone="no"?>
<svg xmlns:xlink="http://www.w3.org/1999/xlink" height="36.6px" width="69.5px" xmlns="http://www.w3.org/2000/svg">
  <g transform="matrix(1.0, 0.0, 0.0, 1.0, 34.75, 18.3)">
    <path d="M19.7 -6.05 L23.65 -6.9 24.6 -2.3 20.65 -1.45 21.65 3.45 27.55 2.25 28.5 6.85 16.0 9.4 11.15 -14.25 23.65 -16.85 24.6 -12.2 18.7 -11.0 19.7 -6.05 M26.35 -10.4 Q24.55 -15.75 24.3 -16.95 L30.9 -18.3 31.6 -11.55 Q32.05 -6.0 32.8 -2.25 L28.85 -1.45 Q28.1 -5.15 26.35 -10.4 M34.6 5.6 L30.35 6.5 30.15 6.35 29.25 2.05 29.4 1.85 33.65 1.0 33.85 1.15 34.75 5.4 34.6 5.6 M-4.1 -4.2 Q-0.6 2.8 0.15 6.5 L0.85 9.8 1.55 12.4 -4.05 13.55 Q-4.75 13.7 -5.15 12.8 L-6.05 9.5 -6.15 9.2 -8.75 9.7 -7.8 14.3 -14.4 15.65 -15.6 9.75 Q-16.4 6.05 -15.9 -1.75 L-15.3 -8.8 -7.45 -10.45 -4.1 -4.2 M15.05 9.6 L2.55 12.2 -2.35 -11.5 4.25 -12.85 8.15 6.25 14.1 5.0 15.05 9.6 M-24.9 -2.05 Q-25.15 -3.05 -27.05 -2.65 -29.05 -2.2 -28.75 -0.9 -28.4 0.8 -22.95 3.15 -17.5 5.45 -17.05 7.65 L-16.15 12.25 Q-15.7 14.45 -17.25 15.7 -18.8 16.95 -23.05 17.8 -30.75 19.4 -31.45 16.1 L-32.25 12.15 -27.0 11.05 -26.6 13.05 Q-26.3 14.35 -24.2 13.9 -22.0 13.5 -22.4 11.85 -22.75 10.1 -28.05 7.7 -33.35 5.25 -33.8 3.05 L-34.65 -1.05 Q-35.1 -3.2 -33.6 -4.45 -32.1 -5.7 -28.05 -6.55 L-22.15 -6.95 Q-20.3 -6.55 -19.95 -4.75 L-19.25 -1.15 -24.5 -0.05 -24.9 -2.05 M-10.7 -6.35 Q-10.9 -5.45 -10.55 -1.35 L-10.0 3.75 -9.7 5.1 -7.1 4.55 -7.35 3.2 -8.8 -1.7 Q-10.15 -5.65 -10.7 -6.35" fill="#ffffff" fill-opacity="0.0" fill-rule="evenodd" stroke="none"/>
  </g>
</svg>
