<?xml version="1.0" encoding="UTF-8" standalone="no"?>
<svg xmlns:xlink="http://www.w3.org/1999/xlink" height="51.1px" width="234.15px" xmlns="http://www.w3.org/2000/svg">
  <g transform="matrix(1.0, 0.0, 0.0, 1.0, 117.25, 25.55)">
    <path d="M-30.1 -0.15 L-48.75 -0.15 -59.4 6.85 -53.45 10.0 -45.15 10.05 -30.1 -0.15 M-25.7 -0.1 L-26.1 -0.1 -41.05 10.1 -30.8 10.15 -1.2 2.9 3.55 -0.5 -25.7 -0.15 -25.7 -0.1 M-47.45 -3.55 L-62.0 -2.95 -77.65 7.0 -62.9 6.5 -47.45 -3.55 M97.75 -16.85 L89.15 -16.55 85.3 -10.65 94.75 -11.1 97.75 -16.85 M20.75 -1.7 L22.75 -3.2 47.2 -3.2 52.55 -6.9 15.25 -6.05 3.6 2.45 54.15 1.45 63.75 -7.15 56.8 -7.0 49.2 -1.7 20.75 -1.7 M5.2 -12.2 L5.8 -12.65 20.4 -12.65 29.05 -18.9 39.7 -20.05 41.35 -22.45 43.5 -22.65 45.4 -22.45 40.75 -15.7 38.05 -13.7 58.9 -13.75 57.1 -12.35 36.15 -12.3 30.1 -7.8 65.35 -8.6 74.8 -17.5 111.7 -18.6 110.0 -17.05 102.0 -16.95 99.15 -11.3 103.6 -11.5 102.0 -10.1 101.95 -10.05 80.05 -9.05 84.9 -16.45 77.5 -16.25 69.55 -8.7 69.6 -8.7 58.6 1.25 95.7 -4.6 93.75 -2.9 57.3 2.85 37.15 3.25 32.55 6.95 59.05 5.4 88.35 1.8 86.4 3.5 58.35 6.95 30.55 8.55 25.3 12.8 64.75 8.65 52.65 20.2 47.8 20.5 58.0 10.8 18.1 15.05 32.8 3.35 0.3 4.0 -28.8 11.05 -29.25 14.65 1.25 8.5 5.85 20.8 0.55 20.45 -2.9 10.75 -12.9 12.8 -13.3 19.45 -14.45 19.35 -18.2 19.5 -17.7 13.75 -29.45 16.15 -29.9 20.05 -34.85 20.2 -33.5 11.7 -54.4 11.6 -66.3 19.65 -70.1 19.3 -57.9 11.2 -63.8 8.0 -99.65 9.2 -97.15 7.65 -81.85 7.15 -66.1 -2.8 -80.9 -2.35 -78.65 -3.7 -47.1 -4.9 -48.4 -7.2 -48.85 -6.95 -73.55 -6.9 -71.15 -8.35 -49.1 -8.3 -52.35 -13.8 -42.8 -21.2 -38.85 -21.4 -47.9 -14.35 -42.25 -5.15 -41.1 -5.15 -46.55 -1.6 -26.55 -1.6 -17.4 -3.2 Q-21.2 -3.65 -22.1 -4.95 -23.0 -6.25 -20.5 -7.95 -18.65 -9.2 -15.35 -10.25 -12.2 -11.3 -8.45 -11.95 L-13.45 -14.45 -32.3 -14.4 -20.2 -22.25 -17.55 -22.35 -15.95 -22.1 -26.3 -15.8 -8.0 -15.85 -3.65 -12.65 -0.25 -12.75 5.2 -12.2 M7.35 -11.25 Q8.95 -9.85 6.35 -8.0 3.85 -6.25 -1.1 -4.9 -6.05 -3.55 -11.25 -3.2 L-11.15 -3.05 -18.7 -1.7 5.6 -2.0 13.05 -7.4 25.9 -7.7 36.55 -15.55 38.8 -18.75 31.6 -17.95 22.45 -11.3 7.35 -11.25 M2.35 -8.0 Q4.35 -9.35 3.0 -10.4 1.6 -11.35 -2.3 -11.35 L-10.35 -10.35 Q-14.6 -9.35 -16.6 -7.95 -18.7 -6.5 -17.4 -5.55 -16.1 -4.55 -12.15 -4.55 -8.15 -4.55 -3.95 -5.55 0.35 -6.55 2.35 -8.0" fill="#ffffff" fill-opacity="0.0" fill-rule="evenodd" stroke="none"/>
    <path d="M-13.85 -24.75 Q-49.6 -1.8 -85.4 21.1" fill="none" stroke="#000000" stroke-linecap="butt" stroke-linejoin="miter-clip" stroke-miterlimit="4.0" stroke-opacity="0.6" stroke-width="1.0"/>
    <path d="M10.9 -21.95 L-57.05 23.9" fill="none" stroke="#000000" stroke-linecap="butt" stroke-linejoin="miter-clip" stroke-miterlimit="4.0" stroke-opacity="0.6" stroke-width="1.0"/>
    <path d="M47.05 -25.05 L-18.7 22.45" fill="none" stroke="#000000" stroke-linecap="butt" stroke-linejoin="miter-clip" stroke-miterlimit="4.0" stroke-opacity="0.6" stroke-width="1.0"/>
    <path d="M79.4 -22.25 L18.8 25.05" fill="none" stroke="#000000" stroke-linecap="butt" stroke-linejoin="miter-clip" stroke-miterlimit="4.0" stroke-opacity="0.6" stroke-width="1.0"/>
    <path d="M7.3 -19.55 L-17.55 -22.35 -50.9 -20.85 -115.4 18.9 -80.85 18.2 -52.65 20.95 -14.45 19.35 22.75 21.95 68.35 19.25 115.45 -21.8 76.35 -19.9 43.7 -22.65 26.0 -21.05 7.3 -19.55 Z" fill="none" stroke="#000000" stroke-linecap="butt" stroke-linejoin="miter-clip" stroke-miterlimit="4.0" stroke-opacity="0.4" stroke-width="1.0"/>
  </g>
</svg>
