<?xml version="1.0" encoding="UTF-8" standalone="no"?>
<svg xmlns:xlink="http://www.w3.org/1999/xlink" height="69.95px" width="200.85px" xmlns="http://www.w3.org/2000/svg">
  <g transform="matrix(1.0, 0.0, 0.0, 1.0, 100.4, 35.0)">
    <path d="M92.9 -32.25 L92.9 -33.6 -95.55 -33.6 -95.55 -32.25 92.9 -32.25 M99.95 -23.9 L-99.9 -23.9 -99.9 -34.5 99.95 -34.5 99.95 -23.9 M-92.0 20.55 L-92.0 21.9 90.3 21.9 90.3 20.55 -92.0 20.55 M-99.9 19.9 L99.95 19.9 99.95 34.45 -99.9 34.45 -99.9 19.9" fill="#ffffff" fill-opacity="0.0" fill-rule="evenodd" stroke="none"/>
    <path d="M92.9 -32.25 L-95.55 -32.25 -95.55 -33.6 92.9 -33.6 92.9 -32.25 M-92.0 20.55 L90.3 20.55 90.3 21.9 -92.0 21.9 -92.0 20.55" fill="#ffffff" fill-opacity="0.49803922" fill-rule="evenodd" stroke="none"/>
    <path d="M99.95 -23.9 L-99.9 -23.9 -99.9 -34.5 99.95 -34.5 99.95 -23.9 M-99.9 19.9 L99.95 19.9 99.95 34.45 -99.9 34.45 -99.9 19.9" fill="none" stroke="#000000" stroke-linecap="butt" stroke-linejoin="miter-clip" stroke-miterlimit="4.0" stroke-width="1.0"/>
  </g>
</svg>
