<?xml version="1.0" encoding="UTF-8" standalone="no"?>
<svg xmlns:xlink="http://www.w3.org/1999/xlink" height="74.9px" width="74.35px" xmlns="http://www.w3.org/2000/svg">
  <g transform="matrix(1.0, 0.0, 0.0, 1.0, 37.9, 38.45)">
    <path d="M26.45 -25.3 Q36.65 -14.05 35.9 1.1 35.15 16.3 23.9 26.45 12.65 36.65 -2.55 35.9 -17.7 35.15 -27.9 23.9 -38.1 12.65 -37.35 -2.5 -36.6 -17.7 -25.35 -27.9 -14.1 -38.1 1.1 -37.35 16.25 -36.6 26.45 -25.3" fill="#ffffff" fill-opacity="0.0" fill-rule="evenodd" stroke="none"/>
    <path d="M26.45 -25.3 Q36.65 -14.05 35.9 1.1 35.15 16.3 23.9 26.45 12.65 36.65 -2.55 35.9 -17.7 35.15 -27.9 23.9 -38.1 12.65 -37.35 -2.5 -36.6 -17.7 -25.35 -27.9 -14.1 -38.1 1.1 -37.35 16.25 -36.6 26.45 -25.3 Z" fill="none" stroke="#000000" stroke-linecap="butt" stroke-linejoin="miter-clip" stroke-miterlimit="4.0" stroke-opacity="0.6" stroke-width="1.0"/>
  </g>
</svg>
