<?xml version="1.0" encoding="UTF-8" standalone="no"?>
<svg xmlns:xlink="http://www.w3.org/1999/xlink" height="583.8px" width="9.0px" xmlns="http://www.w3.org/2000/svg">
  <g transform="matrix(1.0, 0.0, 0.0, 1.0, 4.5, 301.15)">
    <path d="M1.5 205.3 L3.25 204.25 3.75 205.8 Q3.95 207.65 2.4 209.15 L2.1 209.45 3.25 208.75 3.75 210.3 Q3.95 212.15 2.4 213.6 L2.15 213.85 3.25 213.2 3.75 214.75 Q3.95 216.6 2.4 218.1 L2.15 218.35 3.25 217.7 3.75 219.25 Q3.95 221.1 2.4 222.55 L2.15 222.8 3.25 222.15 3.75 223.7 Q3.95 225.55 2.4 227.05 L2.15 227.3 3.25 226.65 3.75 228.2 Q3.95 230.05 2.4 231.55 L2.25 231.7 3.25 231.1 3.75 232.65 Q3.95 234.5 2.4 236.0 L2.15 236.25 3.25 235.6 3.75 237.15 Q3.95 239.0 2.4 240.5 L1.65 241.2 3.25 240.25 3.75 241.8 Q3.95 243.65 2.4 245.15 L2.1 245.45 3.25 244.75 3.75 246.3 Q3.95 248.15 2.4 249.6 L2.15 249.85 3.25 249.2 3.75 250.75 Q3.95 252.6 2.4 254.1 L2.15 254.35 3.25 253.7 3.75 255.25 Q3.95 257.1 2.4 258.55 L2.15 258.8 3.25 258.15 3.75 259.7 Q3.95 261.55 2.4 263.05 L2.15 263.3 3.25 262.65 3.75 264.2 Q3.95 266.05 2.4 267.55 L2.25 267.7 3.25 267.1 3.75 268.65 Q3.95 270.5 2.4 272.0 L2.15 272.25 3.25 271.6 3.75 273.15 Q3.9 274.6 3.0 275.85 L3.4 275.5 3.95 277.6 Q4.25 279.9 3.15 281.0 L1.05 281.45 Q-1.45 281.7 -3.35 280.95 -3.85 280.3 -3.95 279.3 -4.2 277.75 -3.15 276.4 L-3.35 276.5 Q-3.85 275.85 -3.95 274.8 -4.2 273.25 -3.15 271.9 L-3.35 272.0 Q-3.85 271.35 -3.95 270.35 -4.2 268.8 -3.15 267.45 L-3.35 267.55 Q-3.85 266.9 -3.95 265.85 -4.2 264.3 -3.15 262.95 L-3.35 263.05 Q-3.85 262.4 -3.95 261.4 -4.2 259.75 -3.05 258.4 L-3.35 258.55 Q-3.85 257.9 -3.95 256.9 -4.2 255.35 -3.15 254.0 L-3.35 254.1 Q-3.85 253.45 -3.95 252.45 -4.2 250.8 -3.05 249.45 L-3.35 249.6 Q-3.85 248.95 -3.95 247.95 -4.25 246.1 -2.75 244.55 L-3.35 244.95 Q-3.85 244.3 -3.95 243.3 -4.2 241.75 -3.15 240.4 L-3.35 240.5 Q-3.85 239.85 -3.95 238.8 -4.2 237.25 -3.15 235.9 L-3.35 236.0 Q-3.85 235.35 -3.95 234.35 -4.2 232.8 -3.15 231.45 L-3.35 231.55 Q-3.85 230.9 -3.95 229.85 -4.2 228.3 -3.15 226.95 L-3.35 227.05 Q-3.85 226.4 -3.95 225.4 -4.2 223.75 -3.05 222.4 L-3.35 222.55 Q-3.85 221.9 -3.95 220.9 -4.2 219.35 -3.15 218.0 L-3.35 218.1 Q-3.85 217.45 -3.95 216.45 -4.2 214.8 -3.05 213.45 L-3.35 213.6 Q-3.85 212.95 -3.95 211.95 -4.25 210.1 -2.75 208.55 L-3.35 208.95 Q-3.85 208.3 -3.95 207.3 -4.2 205.7 -3.1 204.3 L-3.35 204.45 Q-3.85 203.8 -3.95 202.8 -4.15 201.4 -3.35 200.2 -3.85 199.55 -3.95 198.55 -4.25 196.6 -2.6 195.0 L-3.35 195.5 Q-3.85 194.85 -3.95 193.85 -4.2 192.3 -3.15 190.95 L-3.35 191.05 Q-3.85 190.4 -3.95 189.4 -4.2 187.8 -3.1 186.4 L-3.35 186.55 Q-3.85 185.9 -3.95 184.9 -4.2 183.35 -3.15 182.0 L-3.35 182.1 Q-3.85 181.45 -3.95 180.4 -4.2 178.85 -3.15 177.5 L-3.35 177.6 Q-3.85 176.95 -3.95 175.95 -4.25 174.1 -2.75 172.55 L-3.35 172.95 Q-3.85 172.3 -3.95 171.3 -4.2 169.7 -3.1 168.3 L-3.35 168.45 Q-3.85 167.8 -3.95 166.8 -4.2 165.25 -3.15 163.9 L-3.35 164.0 Q-3.85 163.35 -3.95 162.35 -4.2 160.75 -3.1 159.35 L-3.35 159.5 Q-3.85 158.85 -3.95 157.85 -4.2 156.3 -3.15 154.95 L-3.35 155.05 Q-3.85 154.4 -3.95 153.4 -4.2 151.8 -3.1 150.4 L-3.35 150.55 Q-3.85 149.9 -3.95 148.9 -4.2 147.35 -3.15 146.0 L-3.35 146.1 Q-3.85 145.45 -3.95 144.4 -4.2 142.85 -3.15 141.5 L-3.35 141.6 Q-3.85 140.95 -3.95 139.95 -4.25 138.1 -2.7 136.55 L-3.35 136.9 Q-3.85 136.25 -3.95 135.25 -4.2 133.7 -3.15 132.35 L-3.35 132.45 Q-3.85 131.8 -3.95 130.8 -4.2 129.15 -3.05 127.8 L-3.35 127.95 Q-3.85 127.3 -3.95 126.3 -4.2 124.75 -3.15 123.4 L-3.35 123.5 Q-3.85 122.85 -3.95 121.85 -4.2 120.2 -3.05 118.85 L-3.35 119.0 Q-3.85 118.35 -3.95 117.35 -4.2 115.8 -3.15 114.45 L-3.35 114.55 Q-3.85 113.9 -3.95 112.9 -4.2 111.25 -3.05 109.9 L-3.35 110.05 Q-3.85 109.4 -3.95 108.4 -4.2 106.85 -3.15 105.5 L-3.35 105.6 Q-3.85 104.95 -3.95 103.95 -4.25 102.1 -2.7 100.5 L-3.35 100.9 Q-3.85 100.25 -3.95 99.25 -4.2 97.7 -3.15 96.35 L-3.35 96.45 Q-3.85 95.8 -3.95 94.8 -4.2 93.15 -3.05 91.8 L-3.35 91.95 Q-3.85 91.3 -3.95 90.3 -4.2 88.75 -3.15 87.4 L-3.35 87.5 Q-3.85 86.85 -3.95 85.85 -4.2 84.2 -3.05 82.85 L-3.35 83.0 Q-3.85 82.35 -3.95 81.35 -4.2 79.8 -3.15 78.45 L-3.35 78.55 Q-3.85 77.9 -3.95 76.9 -4.2 75.25 -3.05 73.9 L-3.35 74.05 Q-3.85 73.4 -3.95 72.4 -4.2 70.85 -3.15 69.5 L-3.35 69.6 Q-3.85 68.95 -3.95 67.95 -4.25 66.1 -2.7 64.5 L-3.35 64.9 Q-3.85 64.25 -3.95 63.25 -4.2 61.7 -3.15 60.35 L-3.35 60.45 Q-3.85 59.8 -3.95 58.75 -4.2 57.2 -3.15 55.85 L-3.35 55.95 Q-3.85 55.3 -3.95 54.3 -4.2 52.75 -3.15 51.4 L-3.35 51.5 Q-3.85 50.85 -3.95 49.8 -4.2 48.25 -3.15 46.9 L-3.35 47.0 Q-3.85 46.35 -3.95 45.35 -4.2 43.7 -3.05 42.35 L-3.35 42.5 Q-3.85 41.85 -3.95 40.85 -4.2 39.3 -3.15 37.95 L-3.35 38.05 Q-3.85 37.4 -3.95 36.4 -4.2 34.75 -3.05 33.4 L-3.35 33.55 Q-3.85 32.9 -3.95 31.9 -4.25 30.05 -2.75 28.5 L-3.35 28.9 Q-3.85 28.25 -3.95 27.25 -4.2 25.7 -3.15 24.35 L-3.35 24.45 Q-3.85 23.8 -3.95 22.75 -4.2 21.2 -3.15 19.85 L-3.35 19.95 Q-3.85 19.3 -3.95 18.3 -4.2 16.75 -3.15 15.4 L-3.35 15.5 Q-3.85 14.85 -3.95 13.8 -4.2 12.25 -3.15 10.9 L-3.35 11.0 Q-3.85 10.35 -3.95 9.35 -4.2 7.7 -3.05 6.35 L-3.35 6.5 Q-3.85 5.85 -3.95 4.85 -4.2 3.3 -3.15 1.95 L-3.35 2.05 Q-3.85 1.4 -3.95 0.4 -4.2 -1.25 -3.05 -2.6 L-3.35 -2.45 Q-3.85 -3.1 -3.95 -4.1 -4.25 -5.95 -2.75 -7.5 L-3.35 -7.1 -3.95 -8.75 Q-4.2 -10.35 -3.1 -11.75 L-3.35 -11.6 -3.95 -13.25 Q-4.2 -14.8 -3.15 -16.15 L-3.35 -16.05 -3.95 -17.7 Q-4.2 -19.3 -3.1 -20.7 L-3.35 -20.55 -3.95 -22.2 Q-4.2 -23.8 -3.15 -25.15 L-3.35 -25.0 -3.95 -26.65 Q-4.2 -28.25 -3.1 -29.65 L-3.35 -29.5 -3.95 -31.15 Q-4.2 -32.75 -3.15 -34.1 L-3.35 -33.95 -3.95 -35.65 Q-4.2 -37.25 -3.15 -38.6 L-3.35 -38.45 -3.95 -40.1 Q-4.25 -42.0 -2.65 -43.55 L-3.35 -43.1 -3.95 -44.75 Q-4.2 -46.35 -3.1 -47.75 L-3.35 -47.6 -3.95 -49.25 Q-4.2 -50.85 -3.15 -52.2 L-3.35 -52.05 -3.95 -53.7 Q-4.2 -55.3 -3.1 -56.7 L-3.35 -56.55 -3.95 -58.2 Q-4.2 -59.8 -3.15 -61.15 L-3.35 -61.0 -3.95 -62.65 Q-4.2 -64.25 -3.1 -65.65 L-3.35 -65.5 -3.95 -67.15 Q-4.2 -68.75 -3.15 -70.1 L-3.35 -69.95 -3.95 -71.65 Q-4.2 -73.25 -3.15 -74.6 L-3.35 -74.45 -3.95 -76.1 Q-4.25 -78.1 -2.5 -79.75 L-1.45 -80.7 -3.35 -79.35 -3.95 -81.0 Q-4.2 -82.6 -3.15 -83.95 L-3.35 -83.8 -3.95 -85.45 Q-4.2 -87.05 -3.1 -88.45 L-3.35 -88.3 -3.95 -89.95 Q-4.2 -91.55 -3.15 -92.9 L-3.35 -92.75 -3.95 -94.4 Q-4.2 -96.0 -3.1 -97.4 L-3.35 -97.25 -3.95 -98.9 Q-4.2 -100.5 -3.15 -101.85 L-3.35 -101.7 -3.95 -103.4 Q-4.2 -105.0 -3.15 -106.35 L-3.35 -106.2 -3.95 -107.85 Q-4.2 -109.45 -3.15 -110.8 L-3.35 -110.65 -3.95 -112.35 Q-4.25 -114.25 -2.65 -115.8 L-3.35 -115.35 -3.95 -117.0 Q-4.2 -118.6 -3.15 -119.95 L-3.35 -119.8 -3.95 -121.45 Q-4.2 -123.05 -3.1 -124.45 L-3.35 -124.3 -3.95 -125.95 Q-4.2 -127.55 -3.15 -128.9 L-3.35 -128.75 -3.95 -130.4 Q-4.2 -132.0 -3.1 -133.4 L-3.35 -133.25 -3.95 -134.9 Q-4.2 -136.5 -3.15 -137.85 L-3.35 -137.7 -3.95 -139.4 Q-4.2 -141.0 -3.15 -142.35 L-3.35 -142.2 -3.95 -143.85 Q-4.2 -145.45 -3.15 -146.8 L-3.35 -146.65 -3.95 -148.35 Q-4.25 -150.35 -2.5 -152.0 L-1.75 -152.7 -3.35 -151.55 -3.95 -153.2 Q-4.2 -154.8 -3.1 -156.2 L-3.35 -156.05 -3.95 -157.7 Q-4.2 -159.3 -3.15 -160.65 L-3.35 -160.5 -3.95 -162.2 Q-4.2 -163.8 -3.15 -165.15 L-3.35 -165.0 -3.95 -166.65 Q-4.2 -168.25 -3.15 -169.6 L-3.35 -169.45 -3.95 -171.15 Q-4.2 -172.75 -3.15 -174.1 L-3.35 -173.95 -3.95 -175.6 Q-4.2 -177.2 -3.15 -178.55 L-3.35 -178.4 -3.95 -180.1 Q-4.2 -181.7 -3.15 -183.05 L-3.35 -182.9 -3.95 -184.55 Q-4.25 -186.45 -2.65 -188.0 L-3.35 -187.55 -3.95 -189.2 Q-4.2 -190.8 -3.1 -192.2 L-3.35 -192.05 -3.95 -193.7 Q-4.2 -195.3 -3.15 -196.65 L-3.35 -196.5 -3.95 -198.2 Q-4.2 -199.8 -3.15 -201.15 L-3.35 -201.0 -3.95 -202.65 Q-4.2 -204.25 -3.15 -205.6 L-3.35 -205.45 -3.95 -207.15 Q-4.2 -208.75 -3.15 -210.1 L-3.35 -209.95 -3.95 -211.6 Q-4.2 -213.2 -3.15 -214.55 L-3.35 -214.4 -3.95 -216.1 Q-4.2 -217.7 -3.15 -219.05 L-3.35 -218.9 -3.95 -220.55 Q-4.25 -222.55 -2.5 -224.2 L-1.45 -225.15 -3.35 -223.8 -3.95 -225.45 Q-4.2 -227.05 -3.15 -228.4 L-3.35 -228.25 -3.95 -229.95 Q-4.2 -231.55 -3.15 -232.9 L-3.35 -232.75 -3.95 -234.4 Q-4.2 -236.0 -3.15 -237.35 L-3.35 -237.2 -3.95 -238.9 Q-4.2 -240.5 -3.15 -241.85 L-3.35 -241.7 -3.95 -243.35 Q-4.2 -244.95 -3.15 -246.3 L-3.35 -246.15 -3.95 -247.85 Q-4.2 -249.45 -3.15 -250.8 L-3.35 -250.65 -3.95 -252.3 Q-4.2 -253.9 -3.15 -255.25 L-3.35 -255.1 -3.95 -256.8 Q-4.25 -258.7 -2.65 -260.25 L-3.35 -259.8 -3.95 -261.45 Q-4.2 -263.05 -3.15 -264.4 L-3.35 -264.25 -3.95 -265.95 Q-4.2 -267.55 -3.15 -268.9 L-3.35 -268.75 -3.95 -270.4 Q-4.2 -272.0 -3.15 -273.35 L-3.35 -273.2 -3.95 -274.9 Q-4.2 -276.5 -3.15 -277.85 L-3.35 -277.7 -3.95 -279.35 Q-4.2 -280.95 -3.15 -282.3 L-3.35 -282.15 -3.95 -283.85 Q-4.2 -285.45 -3.15 -286.8 L-3.35 -286.65 -3.95 -288.3 Q-4.2 -289.9 -3.15 -291.25 L-3.35 -291.1 -3.95 -292.8 Q-4.25 -294.8 -2.5 -296.45 0.3 -299.1 3.25 -300.5 L3.75 -298.95 Q3.95 -297.1 2.4 -295.6 L2.35 -295.5 3.25 -296.0 3.75 -294.45 Q3.95 -292.65 2.45 -291.15 L3.25 -291.55 3.75 -290.0 Q3.95 -288.15 2.4 -286.65 L2.35 -286.55 3.25 -287.05 3.75 -285.5 Q3.95 -283.7 2.45 -282.2 L3.25 -282.6 3.75 -281.05 Q3.95 -279.15 2.4 -277.7 L2.35 -277.6 3.25 -278.1 3.75 -276.55 Q3.95 -274.75 2.45 -273.25 L3.25 -273.65 3.75 -272.1 Q3.95 -270.2 2.4 -268.75 L2.35 -268.65 3.25 -269.15 3.75 -267.6 Q3.95 -265.75 2.4 -264.25 L1.85 -263.75 3.25 -264.5 3.75 -262.95 Q3.95 -261.1 2.4 -259.6 L2.35 -259.5 3.25 -260.0 3.75 -258.45 Q3.95 -256.65 2.45 -255.15 L3.25 -255.55 3.75 -254.0 Q3.95 -252.15 2.4 -250.65 L2.35 -250.55 3.25 -251.05 3.75 -249.5 Q3.95 -247.7 2.45 -246.2 L3.25 -246.6 3.75 -245.05 Q3.95 -243.15 2.4 -241.7 L2.35 -241.6 3.25 -242.1 3.75 -240.55 Q3.95 -238.75 2.45 -237.25 L3.25 -237.65 3.75 -236.1 Q3.95 -234.2 2.4 -232.75 L2.35 -232.65 3.25 -233.15 3.75 -231.6 Q3.95 -229.75 2.4 -228.25 L0.6 -226.7 3.25 -228.25 3.75 -226.7 Q3.95 -224.9 2.45 -223.4 L3.25 -223.8 3.75 -222.25 Q3.95 -220.35 2.4 -218.9 L2.35 -218.8 3.25 -219.3 3.75 -217.75 Q3.95 -215.95 2.45 -214.45 L3.25 -214.85 3.75 -213.3 Q3.95 -211.4 2.4 -209.95 L2.35 -209.85 3.25 -210.35 3.75 -208.8 Q3.95 -207.0 2.45 -205.5 L3.25 -205.9 3.75 -204.35 Q3.95 -202.45 2.4 -201.0 L2.35 -200.9 3.25 -201.4 3.75 -199.85 Q3.95 -198.05 2.45 -196.55 L3.25 -196.95 3.75 -195.4 Q3.95 -193.5 2.4 -192.05 L1.75 -191.4 3.25 -192.25 3.75 -190.7 Q3.95 -188.9 2.45 -187.4 L3.25 -187.8 3.75 -186.25 Q3.95 -184.35 2.4 -182.9 L2.35 -182.8 3.25 -183.3 3.75 -181.75 Q3.95 -179.95 2.45 -178.45 L3.25 -178.85 3.75 -177.3 Q3.95 -175.4 2.4 -173.95 L2.35 -173.85 3.25 -174.35 3.75 -172.8 Q3.95 -171.0 2.45 -169.5 L3.25 -169.9 3.75 -168.35 Q3.95 -166.45 2.4 -165.0 L2.35 -164.9 3.25 -165.4 3.75 -163.85 Q3.95 -162.05 2.45 -160.55 L3.25 -160.95 3.75 -159.4 Q3.95 -157.5 2.4 -156.05 L0.9 -154.7 3.25 -156.05 3.75 -154.5 Q3.95 -152.6 2.4 -151.15 L2.35 -151.05 3.25 -151.55 3.75 -150.0 Q3.95 -148.2 2.45 -146.7 L3.25 -147.1 3.75 -145.55 Q3.95 -143.65 2.4 -142.2 L2.35 -142.1 3.25 -142.6 3.75 -141.05 Q3.95 -139.25 2.45 -137.75 L3.25 -138.15 3.75 -136.6 Q3.95 -134.7 2.4 -133.25 L2.35 -133.15 3.25 -133.65 3.75 -132.1 Q3.95 -130.3 2.45 -128.8 L3.25 -129.2 3.75 -127.65 Q3.95 -125.75 2.4 -124.3 L2.35 -124.2 3.25 -124.7 3.75 -123.15 Q3.95 -121.3 2.4 -119.8 L1.85 -119.3 3.25 -120.05 3.75 -118.5 Q3.95 -116.6 2.4 -115.15 L2.35 -115.05 3.25 -115.55 3.75 -114.0 Q3.95 -112.2 2.45 -110.7 L3.25 -111.1 3.75 -109.55 Q3.95 -107.65 2.4 -106.2 L2.35 -106.1 3.25 -106.6 3.75 -105.05 Q3.95 -103.25 2.45 -101.75 L3.25 -102.15 3.75 -100.6 Q3.95 -98.7 2.4 -97.25 L2.35 -97.15 3.25 -97.65 3.75 -96.1 Q3.95 -94.3 2.45 -92.8 L3.25 -93.2 3.75 -91.65 Q3.95 -89.75 2.4 -88.3 L2.35 -88.2 3.25 -88.7 3.75 -87.15 Q3.95 -85.3 2.4 -83.8 L0.6 -82.25 3.25 -83.8 3.75 -82.25 Q3.95 -80.45 2.45 -78.95 L3.25 -79.35 3.75 -77.8 Q3.95 -75.9 2.4 -74.45 L2.35 -74.35 3.25 -74.85 3.75 -73.3 Q3.95 -71.5 2.45 -70.0 L3.25 -70.4 3.75 -68.85 Q3.95 -66.95 2.4 -65.5 L2.35 -65.4 3.25 -65.9 3.75 -64.35 Q3.95 -62.55 2.45 -61.05 L3.25 -61.45 3.75 -59.9 Q3.95 -58.0 2.4 -56.55 L2.35 -56.45 3.25 -56.95 3.75 -55.4 Q3.95 -53.6 2.45 -52.1 L3.25 -52.5 3.75 -50.95 Q3.95 -49.05 2.4 -47.6 L1.75 -46.95 3.25 -47.8 3.75 -46.25 Q3.95 -44.45 2.45 -42.95 L3.25 -43.35 3.75 -41.8 Q3.95 -39.9 2.4 -38.45 L2.35 -38.35 3.25 -38.85 3.75 -37.3 Q3.95 -35.5 2.45 -34.0 L3.25 -34.4 3.75 -32.85 Q3.95 -30.95 2.4 -29.5 L2.35 -29.4 3.25 -29.9 3.75 -28.35 Q3.95 -26.55 2.45 -25.05 L3.25 -25.45 3.75 -23.9 Q3.95 -22.0 2.4 -20.55 L2.35 -20.45 3.25 -20.95 3.75 -19.4 Q3.95 -17.6 2.45 -16.1 L3.25 -16.5 3.75 -14.95 Q3.95 -13.05 2.4 -11.6 L1.75 -11.0 3.25 -11.8 3.75 -10.25 Q3.95 -8.4 2.4 -6.9 L2.35 -6.8 3.25 -7.3 3.75 -5.75 Q3.95 -3.9 2.4 -2.45 L2.35 -2.35 3.25 -2.85 3.75 -1.3 Q3.95 0.55 2.4 2.05 L2.35 2.15 3.25 1.65 3.75 3.2 Q3.95 5.05 2.4 6.5 L2.35 6.6 3.25 6.1 3.75 7.65 Q3.95 9.5 2.4 11.0 L2.35 11.1 3.25 10.6 3.75 12.15 Q3.95 13.95 2.45 15.45 L3.25 15.05 3.75 16.6 Q3.95 18.45 2.4 19.95 L2.35 20.05 3.25 19.55 3.75 21.1 Q3.95 22.95 2.4 24.45 L1.9 24.95 3.25 24.2 3.75 25.75 Q3.95 27.6 2.4 29.1 L2.15 29.35 3.25 28.7 3.75 30.25 Q3.95 32.1 2.4 33.55 L2.15 33.8 3.25 33.15 3.75 34.7 Q3.95 36.55 2.4 38.05 L2.15 38.3 3.25 37.65 3.75 39.2 Q3.95 41.05 2.4 42.5 L2.15 42.75 3.25 42.1 3.75 43.65 Q3.95 45.5 2.4 47.0 L2.15 47.25 3.25 46.6 3.75 48.15 Q3.95 50.0 2.4 51.5 L2.25 51.65 3.25 51.05 3.75 52.6 Q3.95 54.45 2.4 55.95 L2.15 56.2 3.25 55.55 3.75 57.1 Q3.95 58.95 2.4 60.45 L1.65 61.15 3.25 60.2 3.75 61.75 Q3.95 63.65 2.4 65.1 L2.15 65.35 3.25 64.7 3.75 66.25 Q3.95 68.1 2.4 69.6 L2.25 69.75 3.25 69.15 3.75 70.7 Q3.95 72.6 2.4 74.05 L2.15 74.3 3.25 73.65 3.75 75.2 Q3.95 77.05 2.4 78.55 L2.25 78.7 3.25 78.1 3.75 79.65 Q3.95 81.55 2.4 83.0 L2.15 83.25 3.25 82.6 3.75 84.15 Q3.95 86.0 2.4 87.5 L2.25 87.65 3.25 87.05 3.75 88.6 Q3.95 90.5 2.4 91.95 L2.15 92.2 3.25 91.55 3.75 93.1 Q3.95 94.95 2.4 96.45 L1.65 97.15 3.25 96.2 3.75 97.75 Q3.95 99.65 2.4 101.1 L2.15 101.35 3.25 100.7 3.75 102.25 Q3.95 104.1 2.4 105.6 L2.25 105.75 3.25 105.15 3.75 106.7 Q3.95 108.6 2.4 110.05 L2.15 110.3 3.25 109.65 3.75 111.2 Q3.95 113.05 2.4 114.55 L2.25 114.7 3.25 114.1 3.75 115.65 Q3.95 117.55 2.4 119.0 L2.15 119.25 3.25 118.6 3.75 120.15 Q3.95 122.0 2.4 123.5 L2.25 123.65 3.25 123.05 3.75 124.6 Q3.95 126.5 2.4 127.95 L2.15 128.2 3.25 127.55 3.75 129.1 Q3.95 130.95 2.4 132.45 L1.55 133.25 3.25 132.25 3.75 133.8 Q3.95 135.65 2.4 137.15 L2.25 137.3 3.25 136.7 3.75 138.25 Q3.95 140.15 2.4 141.6 L2.15 141.85 3.25 141.2 3.75 142.75 Q3.95 144.6 2.4 146.1 L2.25 146.25 3.25 145.65 3.75 147.2 Q3.95 149.1 2.4 150.55 L2.15 150.8 3.25 150.15 3.75 151.7 Q3.95 153.55 2.4 155.05 L2.25 155.2 3.25 154.6 3.75 156.15 Q3.95 158.05 2.4 159.5 L2.15 159.75 3.25 159.1 3.75 160.65 Q3.95 162.5 2.4 164.0 L2.25 164.15 3.25 163.55 3.75 165.1 Q3.95 167.0 2.4 168.45 L1.5 169.3 3.25 168.25 3.75 169.8 Q3.95 171.65 2.4 173.15 L2.25 173.3 3.25 172.7 3.75 174.25 Q3.95 176.15 2.4 177.6 L2.15 177.85 3.25 177.2 3.75 178.75 Q3.95 180.6 2.4 182.1 L2.25 182.25 3.25 181.65 3.75 183.2 Q3.95 185.1 2.4 186.55 L2.15 186.8 3.25 186.15 3.75 187.7 Q3.95 189.55 2.4 191.05 L1.65 191.75 3.25 190.8 Q3.85 191.7 3.75 192.95 3.7 194.35 2.65 195.45 L3.25 195.1 3.75 196.65 Q3.95 198.5 2.4 200.0 L2.25 200.15 3.25 199.55 3.75 201.1 Q3.95 203.0 2.4 204.45 L1.5 205.3 1.45 205.3 1.5 205.3 M-2.75 208.55 L-2.5 208.3 Q-0.75 206.65 1.45 205.3 -0.75 206.65 -2.5 208.3 L-2.75 208.55 M-3.15 -286.8 L-1.45 -288.0 2.4 -291.1 2.45 -291.15 2.4 -291.1 -1.45 -288.0 -3.15 -286.8 M-3.15 -277.85 L-1.45 -279.05 2.4 -282.15 2.45 -282.2 2.4 -282.15 -1.45 -279.05 -3.15 -277.85 M-3.15 -268.9 L-1.45 -270.1 2.4 -273.2 2.45 -273.25 2.4 -273.2 -1.45 -270.1 -3.15 -268.9 M-3.15 -250.8 L-1.45 -252.0 2.4 -255.1 2.45 -255.15 2.4 -255.1 -1.45 -252.0 -3.15 -250.8 M-3.15 -241.85 L-1.45 -243.05 2.4 -246.15 2.45 -246.2 2.4 -246.15 -1.45 -243.05 -3.15 -241.85 M-3.15 -232.9 L-1.45 -234.1 2.4 -237.2 2.45 -237.25 2.4 -237.2 -1.45 -234.1 -3.15 -232.9 M-3.15 -219.05 L-1.45 -220.25 2.4 -223.35 2.45 -223.4 2.4 -223.35 -1.45 -220.25 -3.15 -219.05 M-3.15 -210.1 L-1.45 -211.3 2.4 -214.4 2.45 -214.45 2.4 -214.4 -1.45 -211.3 -3.15 -210.1 M-3.15 -201.15 L-1.45 -202.35 2.4 -205.45 2.45 -205.5 2.4 -205.45 -1.45 -202.35 -3.15 -201.15 M-3.1 -192.2 L-1.45 -193.4 2.4 -196.5 2.45 -196.55 2.4 -196.5 -1.45 -193.4 -3.1 -192.2 M-3.15 -183.05 L-1.45 -184.25 2.4 -187.35 2.45 -187.4 2.4 -187.35 -1.45 -184.25 -3.15 -183.05 M-3.15 -174.1 L-1.45 -175.3 2.4 -178.4 2.45 -178.45 2.4 -178.4 -1.45 -175.3 -3.15 -174.1 M-3.15 -165.15 L-1.45 -166.35 2.4 -169.45 2.45 -169.5 2.4 -169.45 -1.45 -166.35 -3.15 -165.15 M-3.1 -156.2 L-1.45 -157.4 2.4 -160.5 2.45 -160.55 2.4 -160.5 -1.45 -157.4 -3.1 -156.2 M-3.15 -142.35 L-1.45 -143.55 2.4 -146.65 2.45 -146.7 2.4 -146.65 -1.45 -143.55 -3.15 -142.35 M-3.1 -133.4 L-1.45 -134.6 2.4 -137.7 2.45 -137.75 2.4 -137.7 -1.45 -134.6 -3.1 -133.4 M-3.1 -124.45 L-1.45 -125.65 2.4 -128.75 2.45 -128.8 2.4 -128.75 -1.45 -125.65 -3.1 -124.45 M-3.15 -106.35 L-1.45 -107.55 2.4 -110.65 2.45 -110.7 2.4 -110.65 -1.45 -107.55 -3.15 -106.35 M-3.1 -97.4 L-1.45 -98.6 2.4 -101.7 2.45 -101.75 2.4 -101.7 -1.45 -98.6 -3.1 -97.4 M-3.1 -88.45 L-1.45 -89.65 2.4 -92.75 2.45 -92.8 2.4 -92.75 -1.45 -89.65 -3.1 -88.45 M-3.15 -74.6 L-1.45 -75.8 2.4 -78.9 2.45 -78.95 2.4 -78.9 -1.45 -75.8 -3.15 -74.6 M-3.1 -65.65 L-1.45 -66.85 2.4 -69.95 2.45 -70.0 2.4 -69.95 -1.45 -66.85 -3.1 -65.65 M-3.1 -56.7 L-1.45 -57.9 2.4 -61.0 2.45 -61.05 2.4 -61.0 -1.45 -57.9 -3.1 -56.7 M-3.1 -47.75 L-1.45 -48.95 2.4 -52.05 2.45 -52.1 2.4 -52.05 -1.45 -48.95 -3.1 -47.75 M-3.15 -38.6 L-1.45 -39.8 2.4 -42.9 2.45 -42.95 2.4 -42.9 -1.45 -39.8 -3.15 -38.6 M-3.1 -29.65 L-1.45 -30.85 2.4 -33.95 2.45 -34.0 2.4 -33.95 -1.45 -30.85 -3.1 -29.65 M-3.1 -20.7 L2.4 -25.0 2.45 -25.05 2.4 -25.0 -3.1 -20.7 M-3.1 -11.75 L2.4 -16.05 2.45 -16.1 2.4 -16.05 -3.1 -11.75 M-3.15 -291.25 L-1.45 -292.45 2.35 -295.5 -1.45 -292.45 -3.15 -291.25 M-3.15 -282.3 L-1.45 -283.5 2.35 -286.55 -1.45 -283.5 -3.15 -282.3 M-3.15 -273.35 L-1.45 -274.55 2.35 -277.6 -1.45 -274.55 -3.15 -273.35 M-2.65 -260.25 L-1.45 -261.15 Q0.4 -262.5 1.85 -263.75 0.4 -262.5 -1.45 -261.15 L-2.65 -260.25 M-3.15 -264.4 L-1.45 -265.6 2.35 -268.65 -1.45 -265.6 -3.15 -264.4 M-3.15 -255.25 L-1.45 -256.45 2.35 -259.5 -1.45 -256.45 -3.15 -255.25 M-3.15 -246.3 L-1.45 -247.5 2.35 -250.55 -1.45 -247.5 -3.15 -246.3 M-3.15 -237.35 L-1.45 -238.55 2.35 -241.6 -1.45 -238.55 -3.15 -237.35 M-3.15 -228.4 L-1.45 -229.6 2.35 -232.65 -1.45 -229.6 -3.15 -228.4 M-3.15 -214.55 L-1.45 -215.75 2.35 -218.8 -1.45 -215.75 -3.15 -214.55 M-3.15 -205.6 L-1.45 -206.8 2.35 -209.85 -1.45 -206.8 -3.15 -205.6 M-3.15 -196.65 L-1.45 -197.85 2.35 -200.9 -1.45 -197.85 -3.15 -196.65 M-2.65 -188.0 L-1.45 -188.9 1.75 -191.4 -1.45 -188.9 -2.65 -188.0 M-3.15 -178.55 L-1.45 -179.75 2.35 -182.8 -1.45 -179.75 -3.15 -178.55 M-3.15 -169.6 L-1.45 -170.8 2.35 -173.85 -1.45 -170.8 -3.15 -169.6 M-3.15 -160.65 L-1.45 -161.85 2.35 -164.9 -1.45 -161.85 -3.15 -160.65 M-3.15 -146.8 L-1.45 -148.0 2.35 -151.05 -1.45 -148.0 -3.15 -146.8 M-3.15 -137.85 L-1.45 -139.05 2.35 -142.1 -1.45 -139.05 -3.15 -137.85 M-3.15 -128.9 L-1.45 -130.1 2.35 -133.15 -1.45 -130.1 -3.15 -128.9 M-3.15 -119.95 L-1.45 -121.15 2.35 -124.2 -1.45 -121.15 -3.15 -119.95 M-2.65 -115.8 L-1.45 -116.7 Q0.4 -118.05 1.85 -119.3 0.4 -118.05 -1.45 -116.7 L-2.65 -115.8 M-3.15 -101.85 L-1.45 -103.05 2.35 -106.1 -1.45 -103.05 -3.15 -101.85 M-3.15 -110.8 L-1.45 -112.0 2.35 -115.05 -1.45 -112.0 -3.15 -110.8 M-3.15 -92.9 L-1.45 -94.1 2.35 -97.15 -1.45 -94.1 -3.15 -92.9 M-3.15 -83.95 L-1.45 -85.15 2.35 -88.2 -1.45 -85.15 -3.15 -83.95 M-3.15 -70.1 L-1.45 -71.3 2.35 -74.35 -1.45 -71.3 -3.15 -70.1 M-3.15 -52.2 L-1.45 -53.4 2.35 -56.45 -1.45 -53.4 -3.15 -52.2 M-3.15 -61.15 L-1.45 -62.35 2.35 -65.4 -1.45 -62.35 -3.15 -61.15 M-2.65 -43.55 L-1.45 -44.45 1.75 -46.95 -1.45 -44.45 -2.65 -43.55 M-3.15 -34.1 L-1.45 -35.3 2.35 -38.35 -1.45 -35.3 -3.15 -34.1 M-3.15 -25.15 L-1.45 -26.35 2.35 -29.4 -1.45 -26.35 -3.15 -25.15 M1.45 61.25 Q-0.75 62.6 -2.5 64.25 L-2.7 64.5 -2.5 64.25 Q-0.75 62.6 1.45 61.25 L1.65 61.15 1.45 61.25 M1.45 133.3 Q-0.75 134.65 -2.5 136.3 L-2.7 136.55 -2.5 136.3 Q-0.75 134.65 1.45 133.3 L1.55 133.25 1.45 133.3 M-3.15 19.85 L2.4 15.5 2.45 15.45 2.4 15.5 -3.15 19.85 M-3.35 200.2 Q-0.15 198.1 2.4 195.7 L2.65 195.45 2.4 195.7 Q-0.15 198.1 -3.35 200.2 M-3.15 1.95 Q-0.1 -0.1 2.35 -2.35 -0.1 -0.1 -3.15 1.95 M3.0 275.85 L-3.35 280.95 3.0 275.85 M-3.15 276.4 L2.15 272.25 -3.15 276.4 M-3.15 271.9 Q-0.15 269.9 2.25 267.7 -0.15 269.9 -3.15 271.9 M-3.15 267.45 L2.15 263.3 -3.15 267.45 M-3.15 262.95 L2.15 258.8 -3.15 262.95 M-3.05 258.4 Q-0.2 256.5 2.15 254.35 -0.2 256.5 -3.05 258.4 M-3.15 254.0 L2.15 249.85 -3.15 254.0 M-3.05 249.45 L2.1 245.45 -3.05 249.45 M-2.75 244.55 L1.65 241.2 -2.75 244.55 M-3.15 240.4 L2.15 236.25 -3.15 240.4 M-3.15 235.9 Q-0.15 233.9 2.25 231.7 -0.15 233.9 -3.15 235.9 M-3.15 231.45 L2.15 227.3 -3.15 231.45 M-3.15 226.95 L2.15 222.8 -3.15 226.95 M-3.05 222.4 Q-0.2 220.5 2.15 218.35 -0.2 220.5 -3.05 222.4 M-3.15 218.0 L2.15 213.85 -3.15 218.0 M-3.05 213.45 L2.1 209.45 -3.05 213.45 M-3.1 204.3 Q-0.15 202.3 2.25 200.15 -0.15 202.3 -3.1 204.3 M-2.6 195.0 L1.65 191.75 -2.6 195.0 M-3.15 190.95 L2.15 186.8 -3.15 190.95 M-3.1 186.4 Q-0.15 184.4 2.25 182.25 -0.15 184.4 -3.1 186.4 M-3.15 182.0 L2.15 177.85 -3.15 182.0 M-3.15 177.5 Q-0.15 175.5 2.25 173.3 -0.15 175.5 -3.15 177.5 M-2.75 172.55 L1.5 169.3 -2.75 172.55 M-3.1 168.3 Q-0.15 166.3 2.25 164.15 -0.15 166.3 -3.1 168.3 M-3.15 163.9 L2.15 159.75 -3.15 163.9 M-3.1 159.35 Q-0.15 157.35 2.25 155.2 -0.15 157.35 -3.1 159.35 M-3.15 154.95 L2.15 150.8 -3.15 154.95 M-3.1 150.4 Q-0.15 148.4 2.25 146.25 -0.15 148.4 -3.1 150.4 M-3.15 146.0 L2.15 141.85 -3.15 146.0 M-3.15 141.5 Q-0.15 139.5 2.25 137.3 -0.15 139.5 -3.15 141.5 M-3.15 132.35 L2.15 128.2 -3.15 132.35 M-3.05 127.8 Q-0.1 125.8 2.25 123.65 -0.1 125.8 -3.05 127.8 M-3.15 123.4 L2.15 119.25 -3.15 123.4 M-3.05 118.85 Q-0.1 116.85 2.25 114.7 -0.1 116.85 -3.05 118.85 M-3.15 114.45 L2.15 110.3 -3.15 114.45 M-3.05 109.9 Q-0.1 107.9 2.25 105.75 -0.1 107.9 -3.05 109.9 M-3.15 105.5 L2.15 101.35 -3.15 105.5 M-2.7 100.5 Q-0.35 98.9 1.65 97.15 -0.35 98.9 -2.7 100.5 M-3.15 96.35 L2.15 92.2 -3.15 96.35 M-3.05 91.8 Q-0.1 89.8 2.25 87.65 -0.1 89.8 -3.05 91.8 M-3.15 87.4 L2.15 83.25 -3.15 87.4 M-3.05 82.85 Q-0.1 80.85 2.25 78.7 -0.1 80.85 -3.05 82.85 M-3.15 78.45 L2.15 74.3 -3.15 78.45 M-3.05 73.9 Q-0.1 71.9 2.25 69.75 -0.1 71.9 -3.05 73.9 M-3.15 69.5 L2.15 65.35 -3.15 69.5 M-3.15 60.35 L2.15 56.2 -3.15 60.35 M-3.15 55.85 Q-0.15 53.85 2.25 51.65 -0.15 53.85 -3.15 55.85 M-3.15 51.4 L2.15 47.25 -3.15 51.4 M-3.15 46.9 L2.15 42.75 -3.15 46.9 M-3.05 42.35 Q-0.2 40.45 2.15 38.3 -0.2 40.45 -3.05 42.35 M-3.15 37.95 L2.15 33.8 -3.15 37.95 M-3.05 33.4 Q-0.2 31.5 2.15 29.35 -0.2 31.5 -3.05 33.4 M-2.75 28.5 L1.9 24.95 -2.75 28.5 M-3.15 24.35 Q-0.1 22.3 2.35 20.05 -0.1 22.3 -3.15 24.35 M-3.15 15.4 Q-0.1 13.35 2.35 11.1 -0.1 13.35 -3.15 15.4 M-3.15 10.9 Q-0.1 8.85 2.35 6.6 -0.1 8.85 -3.15 10.9 M-3.05 6.35 L2.35 2.15 -3.05 6.35 M-3.05 -2.6 Q-0.1 -4.55 2.35 -6.8 -0.1 -4.55 -3.05 -2.6 M-1.45 -225.15 Q-0.35 -225.95 0.6 -226.7 -0.35 -225.95 -1.45 -225.15 M0.9 -154.7 L-1.75 -152.7 0.9 -154.7 M-2.75 -7.5 Q-0.3 -9.15 1.75 -11.0 -0.3 -9.15 -2.75 -7.5 M-3.15 -16.15 Q-0.1 -18.2 2.35 -20.45 -0.1 -18.2 -3.15 -16.15 M-1.45 -80.7 Q-0.35 -81.5 0.6 -82.25 -0.35 -81.5 -1.45 -80.7" fill="#ffffff" fill-opacity="0.0" fill-rule="evenodd" stroke="none"/>
    <path d="M1.5 205.3 L3.25 204.25 3.75 205.8 Q3.95 207.65 2.4 209.15 L2.1 209.45 3.25 208.75 3.75 210.3 Q3.95 212.15 2.4 213.6 L2.15 213.85 3.25 213.2 3.75 214.75 Q3.95 216.6 2.4 218.1 L2.15 218.35 3.25 217.7 3.75 219.25 Q3.95 221.1 2.4 222.55 L2.15 222.8 3.25 222.15 3.75 223.7 Q3.95 225.55 2.4 227.05 L2.15 227.3 3.25 226.65 3.75 228.2 Q3.95 230.05 2.4 231.55 L2.25 231.7 3.25 231.1 3.75 232.65 Q3.95 234.5 2.4 236.0 L2.15 236.25 3.25 235.6 3.75 237.15 Q3.95 239.0 2.4 240.5 L1.65 241.2 3.25 240.25 3.75 241.8 Q3.95 243.65 2.4 245.15 L2.1 245.45 3.25 244.75 3.75 246.3 Q3.95 248.15 2.4 249.6 L2.15 249.85 3.25 249.2 3.75 250.75 Q3.95 252.6 2.4 254.1 L2.15 254.35 3.25 253.7 3.75 255.25 Q3.95 257.1 2.4 258.55 L2.15 258.8 3.25 258.15 3.75 259.7 Q3.95 261.55 2.4 263.05 L2.15 263.3 3.25 262.65 3.75 264.2 Q3.95 266.05 2.4 267.55 L2.25 267.7 3.25 267.1 3.75 268.65 Q3.95 270.5 2.4 272.0 L2.15 272.25 3.25 271.6 3.75 273.15 Q3.9 274.6 3.0 275.85 L3.4 275.5 3.95 277.6 Q4.25 279.9 3.15 281.0 L1.05 281.45 Q-1.45 281.7 -3.35 280.95 -3.85 280.3 -3.95 279.3 -4.2 277.75 -3.15 276.4 L-3.35 276.5 Q-3.85 275.85 -3.95 274.8 -4.2 273.25 -3.15 271.9 L-3.35 272.0 Q-3.85 271.35 -3.95 270.35 -4.2 268.8 -3.15 267.45 L-3.35 267.55 Q-3.85 266.9 -3.95 265.85 -4.2 264.3 -3.15 262.95 L-3.35 263.05 Q-3.85 262.4 -3.95 261.4 -4.2 259.75 -3.05 258.4 L-3.35 258.55 Q-3.85 257.9 -3.95 256.9 -4.2 255.35 -3.15 254.0 L-3.35 254.1 Q-3.85 253.45 -3.95 252.45 -4.2 250.8 -3.05 249.45 L-3.35 249.6 Q-3.85 248.95 -3.95 247.95 -4.25 246.1 -2.75 244.55 L-3.35 244.95 Q-3.85 244.3 -3.95 243.3 -4.2 241.75 -3.15 240.4 L-3.35 240.5 Q-3.85 239.85 -3.95 238.8 -4.2 237.25 -3.15 235.9 L-3.35 236.0 Q-3.85 235.35 -3.95 234.35 -4.2 232.8 -3.15 231.45 L-3.35 231.55 Q-3.85 230.9 -3.95 229.85 -4.2 228.3 -3.15 226.95 L-3.35 227.05 Q-3.85 226.4 -3.95 225.4 -4.2 223.75 -3.05 222.4 L-3.35 222.55 Q-3.85 221.9 -3.95 220.9 -4.2 219.35 -3.15 218.0 L-3.35 218.1 Q-3.85 217.45 -3.95 216.45 -4.2 214.8 -3.05 213.45 L-3.35 213.6 Q-3.85 212.95 -3.95 211.95 -4.25 210.1 -2.75 208.55 L-3.35 208.95 Q-3.85 208.3 -3.95 207.3 -4.2 205.7 -3.1 204.3 L-3.35 204.45 Q-3.85 203.8 -3.95 202.8 -4.15 201.4 -3.35 200.2 -3.85 199.55 -3.95 198.55 -4.25 196.6 -2.6 195.0 L-3.35 195.5 Q-3.85 194.85 -3.95 193.85 -4.2 192.3 -3.15 190.95 L-3.35 191.05 Q-3.85 190.4 -3.95 189.4 -4.2 187.8 -3.1 186.4 L-3.35 186.55 Q-3.85 185.9 -3.95 184.9 -4.2 183.35 -3.15 182.0 L-3.35 182.1 Q-3.85 181.45 -3.95 180.4 -4.2 178.85 -3.15 177.5 L-3.35 177.6 Q-3.85 176.95 -3.95 175.95 -4.25 174.1 -2.75 172.55 L-3.35 172.95 Q-3.85 172.3 -3.95 171.3 -4.2 169.7 -3.1 168.3 L-3.35 168.45 Q-3.85 167.8 -3.95 166.8 -4.2 165.25 -3.15 163.9 L-3.35 164.0 Q-3.85 163.35 -3.95 162.35 -4.2 160.75 -3.1 159.35 L-3.35 159.5 Q-3.85 158.85 -3.95 157.85 -4.2 156.3 -3.15 154.95 L-3.35 155.05 Q-3.85 154.4 -3.95 153.4 -4.2 151.8 -3.1 150.4 L-3.35 150.55 Q-3.85 149.9 -3.95 148.9 -4.2 147.35 -3.15 146.0 L-3.35 146.1 Q-3.85 145.45 -3.95 144.4 -4.2 142.85 -3.15 141.5 L-3.35 141.6 Q-3.85 140.95 -3.95 139.95 -4.25 138.1 -2.7 136.55 L-3.35 136.9 Q-3.85 136.25 -3.95 135.25 -4.2 133.7 -3.15 132.35 L-3.35 132.45 Q-3.85 131.8 -3.95 130.8 -4.2 129.15 -3.05 127.8 L-3.35 127.95 Q-3.85 127.3 -3.95 126.3 -4.2 124.75 -3.15 123.4 L-3.35 123.5 Q-3.85 122.85 -3.95 121.85 -4.2 120.2 -3.05 118.85 L-3.35 119.0 Q-3.85 118.35 -3.95 117.35 -4.2 115.8 -3.15 114.45 L-3.35 114.55 Q-3.85 113.9 -3.95 112.9 -4.2 111.25 -3.05 109.9 L-3.35 110.05 Q-3.85 109.4 -3.95 108.4 -4.2 106.85 -3.15 105.5 L-3.35 105.6 Q-3.85 104.95 -3.95 103.95 -4.25 102.1 -2.7 100.5 L-3.35 100.9 Q-3.85 100.25 -3.95 99.25 -4.2 97.7 -3.15 96.35 L-3.35 96.45 Q-3.85 95.8 -3.95 94.8 -4.2 93.15 -3.05 91.8 L-3.35 91.95 Q-3.85 91.3 -3.95 90.3 -4.2 88.75 -3.15 87.4 L-3.35 87.5 Q-3.85 86.85 -3.95 85.85 -4.2 84.2 -3.05 82.85 L-3.35 83.0 Q-3.85 82.35 -3.95 81.35 -4.2 79.8 -3.15 78.45 L-3.35 78.55 Q-3.85 77.9 -3.95 76.9 -4.2 75.25 -3.05 73.9 L-3.35 74.05 Q-3.85 73.4 -3.95 72.4 -4.2 70.85 -3.15 69.5 L-3.35 69.6 Q-3.85 68.95 -3.95 67.95 -4.25 66.1 -2.7 64.5 L-3.35 64.9 Q-3.85 64.25 -3.95 63.25 -4.2 61.7 -3.15 60.35 L-3.35 60.45 Q-3.85 59.8 -3.95 58.75 -4.2 57.2 -3.15 55.85 L-3.35 55.95 Q-3.85 55.3 -3.95 54.3 -4.2 52.75 -3.15 51.4 L-3.35 51.5 Q-3.85 50.85 -3.95 49.8 -4.2 48.25 -3.15 46.9 L-3.35 47.0 Q-3.85 46.35 -3.95 45.35 -4.2 43.7 -3.05 42.35 L-3.35 42.5 Q-3.85 41.85 -3.95 40.85 -4.2 39.3 -3.15 37.95 L-3.35 38.05 Q-3.85 37.4 -3.95 36.4 -4.2 34.75 -3.05 33.4 L-3.35 33.55 Q-3.85 32.9 -3.95 31.9 -4.25 30.05 -2.75 28.5 L-3.35 28.9 Q-3.85 28.25 -3.95 27.25 -4.2 25.7 -3.15 24.35 L-3.35 24.45 Q-3.85 23.8 -3.95 22.75 -4.2 21.2 -3.15 19.85 L-3.35 19.95 Q-3.85 19.3 -3.95 18.3 -4.2 16.75 -3.15 15.4 L-3.35 15.5 Q-3.85 14.85 -3.95 13.8 -4.2 12.25 -3.15 10.9 L-3.35 11.0 Q-3.85 10.35 -3.95 9.35 -4.2 7.7 -3.05 6.35 L-3.35 6.5 Q-3.85 5.85 -3.95 4.85 -4.2 3.3 -3.15 1.95 L-3.35 2.05 Q-3.85 1.4 -3.95 0.4 -4.2 -1.25 -3.05 -2.6 L-3.35 -2.45 Q-3.85 -3.1 -3.95 -4.1 -4.25 -5.95 -2.75 -7.5 L-3.35 -7.1 -3.95 -8.75 Q-4.2 -10.35 -3.1 -11.75 L-3.35 -11.6 -3.95 -13.25 Q-4.2 -14.8 -3.15 -16.15 L-3.35 -16.05 -3.95 -17.7 Q-4.2 -19.3 -3.1 -20.7 L-3.35 -20.55 -3.95 -22.2 Q-4.2 -23.8 -3.15 -25.15 L-3.35 -25.0 -3.95 -26.65 Q-4.2 -28.25 -3.1 -29.65 L-3.35 -29.5 -3.95 -31.15 Q-4.2 -32.75 -3.15 -34.1 L-3.35 -33.95 -3.95 -35.65 Q-4.2 -37.25 -3.15 -38.6 L-3.35 -38.45 -3.95 -40.1 Q-4.25 -42.0 -2.65 -43.55 L-3.35 -43.1 -3.95 -44.75 Q-4.2 -46.35 -3.1 -47.75 L-3.35 -47.6 -3.95 -49.25 Q-4.2 -50.85 -3.15 -52.2 L-3.35 -52.05 -3.95 -53.7 Q-4.2 -55.3 -3.1 -56.7 L-3.35 -56.55 -3.95 -58.2 Q-4.2 -59.8 -3.15 -61.15 L-3.35 -61.0 -3.95 -62.65 Q-4.2 -64.25 -3.1 -65.65 L-3.35 -65.5 -3.95 -67.15 Q-4.2 -68.75 -3.15 -70.1 L-3.35 -69.95 -3.95 -71.65 Q-4.2 -73.25 -3.15 -74.6 L-3.35 -74.45 -3.95 -76.1 Q-4.25 -78.1 -2.5 -79.75 L-1.45 -80.7 -3.35 -79.35 -3.95 -81.0 Q-4.2 -82.6 -3.15 -83.95 L-3.35 -83.8 -3.95 -85.45 Q-4.2 -87.05 -3.1 -88.45 L-3.35 -88.3 -3.95 -89.95 Q-4.2 -91.55 -3.15 -92.9 L-3.35 -92.75 -3.95 -94.4 Q-4.2 -96.0 -3.1 -97.4 L-3.35 -97.25 -3.95 -98.9 Q-4.2 -100.5 -3.15 -101.85 L-3.35 -101.7 -3.95 -103.4 Q-4.2 -105.0 -3.15 -106.35 L-3.35 -106.2 -3.95 -107.85 Q-4.2 -109.45 -3.15 -110.8 L-3.35 -110.65 -3.95 -112.35 Q-4.25 -114.25 -2.65 -115.8 L-3.35 -115.35 -3.95 -117.0 Q-4.2 -118.6 -3.15 -119.95 L-3.35 -119.8 -3.95 -121.45 Q-4.2 -123.05 -3.1 -124.45 L-3.35 -124.3 -3.95 -125.95 Q-4.2 -127.55 -3.15 -128.9 L-3.35 -128.75 -3.95 -130.4 Q-4.2 -132.0 -3.1 -133.4 L-3.35 -133.25 -3.95 -134.9 Q-4.2 -136.5 -3.15 -137.85 L-3.35 -137.7 -3.95 -139.4 Q-4.2 -141.0 -3.15 -142.35 L-3.35 -142.2 -3.95 -143.85 Q-4.2 -145.45 -3.15 -146.8 L-3.35 -146.65 -3.95 -148.35 Q-4.25 -150.35 -2.5 -152.0 L-1.75 -152.7 -3.35 -151.55 -3.95 -153.2 Q-4.2 -154.8 -3.1 -156.2 L-3.35 -156.05 -3.95 -157.7 Q-4.2 -159.3 -3.15 -160.65 L-3.35 -160.5 -3.95 -162.2 Q-4.2 -163.8 -3.15 -165.15 L-3.35 -165.0 -3.95 -166.65 Q-4.2 -168.25 -3.15 -169.6 L-3.35 -169.45 -3.95 -171.15 Q-4.2 -172.75 -3.15 -174.1 L-3.35 -173.95 -3.95 -175.6 Q-4.2 -177.2 -3.15 -178.55 L-3.35 -178.4 -3.95 -180.1 Q-4.2 -181.7 -3.15 -183.05 L-3.35 -182.9 -3.95 -184.55 Q-4.25 -186.45 -2.65 -188.0 L-3.35 -187.55 -3.95 -189.2 Q-4.2 -190.8 -3.1 -192.2 L-3.35 -192.05 -3.95 -193.7 Q-4.2 -195.3 -3.15 -196.65 L-3.35 -196.5 -3.95 -198.2 Q-4.2 -199.8 -3.15 -201.15 L-3.35 -201.0 -3.95 -202.65 Q-4.2 -204.25 -3.15 -205.6 L-3.35 -205.45 -3.95 -207.15 Q-4.2 -208.75 -3.15 -210.1 L-3.35 -209.95 -3.95 -211.6 Q-4.2 -213.2 -3.15 -214.55 L-3.35 -214.4 -3.95 -216.1 Q-4.2 -217.7 -3.15 -219.05 L-3.35 -218.9 -3.95 -220.55 Q-4.25 -222.55 -2.5 -224.2 L-1.45 -225.15 -3.35 -223.8 -3.95 -225.45 Q-4.2 -227.05 -3.15 -228.4 L-3.35 -228.25 -3.95 -229.95 Q-4.2 -231.55 -3.15 -232.9 L-3.35 -232.75 -3.95 -234.4 Q-4.2 -236.0 -3.15 -237.35 L-3.35 -237.2 -3.95 -238.9 Q-4.2 -240.5 -3.15 -241.85 L-3.35 -241.7 -3.95 -243.35 Q-4.2 -244.95 -3.15 -246.3 L-3.35 -246.15 -3.95 -247.85 Q-4.2 -249.45 -3.15 -250.8 L-3.35 -250.65 -3.95 -252.3 Q-4.2 -253.9 -3.15 -255.25 L-3.35 -255.1 -3.95 -256.8 Q-4.25 -258.7 -2.65 -260.25 L-3.35 -259.8 -3.95 -261.45 Q-4.2 -263.05 -3.15 -264.4 L-3.35 -264.25 -3.95 -265.95 Q-4.2 -267.55 -3.15 -268.9 L-3.35 -268.75 -3.95 -270.4 Q-4.2 -272.0 -3.15 -273.35 L-3.35 -273.2 -3.95 -274.9 Q-4.2 -276.5 -3.15 -277.85 L-3.35 -277.7 -3.95 -279.35 Q-4.2 -280.95 -3.15 -282.3 L-3.35 -282.15 -3.95 -283.85 Q-4.2 -285.45 -3.15 -286.8 L-3.35 -286.65 -3.95 -288.3 Q-4.2 -289.9 -3.15 -291.25 L-3.35 -291.1 -3.95 -292.8 Q-4.25 -294.8 -2.5 -296.45 0.3 -299.1 3.25 -300.5 L3.75 -298.95 Q3.95 -297.1 2.4 -295.6 L2.35 -295.5 3.25 -296.0 3.75 -294.45 Q3.95 -292.65 2.45 -291.15 L3.25 -291.55 3.75 -290.0 Q3.95 -288.15 2.4 -286.65 L2.35 -286.55 3.25 -287.05 3.75 -285.5 Q3.95 -283.7 2.45 -282.2 L3.25 -282.6 3.75 -281.05 Q3.95 -279.15 2.4 -277.7 L2.35 -277.6 3.25 -278.1 3.75 -276.55 Q3.95 -274.75 2.45 -273.25 L3.25 -273.65 3.75 -272.1 Q3.95 -270.2 2.4 -268.75 L2.35 -268.65 3.25 -269.15 3.75 -267.6 Q3.95 -265.75 2.4 -264.25 L1.85 -263.75 3.25 -264.5 3.75 -262.95 Q3.95 -261.1 2.4 -259.6 L2.35 -259.5 3.25 -260.0 3.75 -258.45 Q3.95 -256.65 2.45 -255.15 L3.25 -255.55 3.75 -254.0 Q3.95 -252.15 2.4 -250.65 L2.35 -250.55 3.25 -251.05 3.75 -249.5 Q3.95 -247.7 2.45 -246.2 L3.25 -246.6 3.75 -245.05 Q3.95 -243.15 2.4 -241.7 L2.35 -241.6 3.25 -242.1 3.75 -240.55 Q3.95 -238.75 2.45 -237.25 L3.25 -237.65 3.75 -236.1 Q3.95 -234.2 2.4 -232.75 L2.35 -232.65 3.25 -233.15 3.75 -231.6 Q3.95 -229.75 2.4 -228.25 L0.6 -226.7 3.25 -228.25 3.75 -226.7 Q3.95 -224.9 2.45 -223.4 L3.25 -223.8 3.75 -222.25 Q3.95 -220.35 2.4 -218.9 L2.35 -218.8 3.25 -219.3 3.75 -217.75 Q3.95 -215.95 2.45 -214.45 L3.25 -214.85 3.75 -213.3 Q3.95 -211.4 2.4 -209.95 L2.35 -209.85 3.25 -210.35 3.75 -208.8 Q3.95 -207.0 2.45 -205.5 L3.25 -205.9 3.75 -204.35 Q3.95 -202.45 2.4 -201.0 L2.35 -200.9 3.25 -201.4 3.75 -199.85 Q3.95 -198.05 2.45 -196.55 L3.25 -196.95 3.75 -195.4 Q3.95 -193.5 2.4 -192.05 L1.75 -191.4 3.25 -192.25 3.75 -190.7 Q3.95 -188.9 2.45 -187.4 L3.25 -187.8 3.75 -186.25 Q3.95 -184.35 2.4 -182.9 L2.35 -182.8 3.25 -183.3 3.75 -181.75 Q3.95 -179.95 2.45 -178.45 L3.25 -178.85 3.75 -177.3 Q3.95 -175.4 2.4 -173.95 L2.35 -173.85 3.25 -174.35 3.75 -172.8 Q3.95 -171.0 2.45 -169.5 L3.25 -169.9 3.75 -168.35 Q3.95 -166.45 2.4 -165.0 L2.35 -164.9 3.25 -165.4 3.75 -163.85 Q3.95 -162.05 2.45 -160.55 L3.25 -160.95 3.75 -159.4 Q3.95 -157.5 2.4 -156.05 L0.9 -154.7 3.25 -156.05 3.75 -154.5 Q3.95 -152.6 2.4 -151.15 L2.35 -151.05 3.25 -151.55 3.75 -150.0 Q3.95 -148.2 2.45 -146.7 L3.25 -147.1 3.75 -145.55 Q3.95 -143.65 2.4 -142.2 L2.35 -142.1 3.25 -142.6 3.75 -141.05 Q3.95 -139.25 2.45 -137.75 L3.25 -138.15 3.75 -136.6 Q3.95 -134.7 2.4 -133.25 L2.35 -133.15 3.25 -133.65 3.75 -132.1 Q3.95 -130.3 2.45 -128.8 L3.25 -129.2 3.75 -127.65 Q3.95 -125.75 2.4 -124.3 L2.35 -124.2 3.25 -124.7 3.75 -123.15 Q3.95 -121.3 2.4 -119.8 L1.85 -119.3 3.25 -120.05 3.75 -118.5 Q3.95 -116.6 2.4 -115.15 L2.35 -115.05 3.25 -115.55 3.75 -114.0 Q3.95 -112.2 2.45 -110.7 L3.25 -111.1 3.75 -109.55 Q3.95 -107.65 2.4 -106.2 L2.35 -106.1 3.25 -106.6 3.75 -105.05 Q3.95 -103.25 2.45 -101.75 L3.25 -102.15 3.75 -100.6 Q3.95 -98.7 2.4 -97.25 L2.35 -97.15 3.25 -97.65 3.75 -96.1 Q3.95 -94.3 2.45 -92.8 L3.25 -93.2 3.75 -91.65 Q3.95 -89.75 2.4 -88.3 L2.35 -88.2 3.25 -88.7 3.75 -87.15 Q3.95 -85.3 2.4 -83.8 L0.6 -82.25 3.25 -83.8 3.75 -82.25 Q3.95 -80.45 2.45 -78.95 L3.25 -79.35 3.75 -77.8 Q3.95 -75.9 2.4 -74.45 L2.35 -74.35 3.25 -74.85 3.75 -73.3 Q3.95 -71.5 2.45 -70.0 L3.25 -70.4 3.75 -68.85 Q3.95 -66.95 2.4 -65.5 L2.35 -65.4 3.25 -65.9 3.75 -64.35 Q3.95 -62.55 2.45 -61.05 L3.25 -61.45 3.75 -59.9 Q3.95 -58.0 2.4 -56.55 L2.35 -56.45 3.25 -56.95 3.75 -55.4 Q3.95 -53.6 2.45 -52.1 L3.25 -52.5 3.75 -50.95 Q3.95 -49.05 2.4 -47.6 L1.75 -46.95 3.25 -47.8 3.75 -46.25 Q3.95 -44.45 2.45 -42.95 L3.25 -43.35 3.75 -41.8 Q3.95 -39.9 2.4 -38.45 L2.35 -38.35 3.25 -38.85 3.75 -37.3 Q3.95 -35.5 2.45 -34.0 L3.25 -34.4 3.75 -32.85 Q3.95 -30.95 2.4 -29.5 L2.35 -29.4 3.25 -29.9 3.75 -28.35 Q3.95 -26.55 2.45 -25.05 L3.25 -25.45 3.75 -23.9 Q3.95 -22.0 2.4 -20.55 L2.35 -20.45 3.25 -20.95 3.75 -19.4 Q3.95 -17.6 2.45 -16.1 L3.25 -16.5 3.75 -14.95 Q3.95 -13.05 2.4 -11.6 L1.75 -11.0 3.25 -11.8 3.75 -10.25 Q3.95 -8.4 2.4 -6.9 L2.35 -6.8 3.25 -7.3 3.75 -5.75 Q3.95 -3.9 2.4 -2.45 L2.35 -2.35 3.25 -2.85 3.75 -1.3 Q3.95 0.55 2.4 2.05 L2.35 2.15 3.25 1.65 3.75 3.2 Q3.95 5.05 2.4 6.5 L2.35 6.6 3.25 6.1 3.75 7.65 Q3.95 9.5 2.4 11.0 L2.35 11.1 3.25 10.6 3.75 12.15 Q3.95 13.95 2.45 15.45 L3.25 15.05 3.75 16.6 Q3.95 18.45 2.4 19.95 L2.35 20.05 3.25 19.55 3.75 21.1 Q3.95 22.95 2.4 24.45 L1.9 24.95 3.25 24.2 3.75 25.75 Q3.95 27.6 2.4 29.1 L2.15 29.35 3.25 28.7 3.75 30.25 Q3.95 32.1 2.4 33.55 L2.15 33.8 3.25 33.15 3.75 34.7 Q3.95 36.55 2.4 38.05 L2.15 38.3 3.25 37.65 3.75 39.2 Q3.95 41.05 2.4 42.5 L2.15 42.75 3.25 42.1 3.75 43.65 Q3.95 45.5 2.4 47.0 L2.15 47.25 3.25 46.6 3.75 48.15 Q3.95 50.0 2.4 51.5 L2.25 51.65 3.25 51.05 3.75 52.6 Q3.95 54.45 2.4 55.95 L2.15 56.2 3.25 55.55 3.75 57.1 Q3.95 58.95 2.4 60.45 L1.65 61.15 3.25 60.2 3.75 61.75 Q3.95 63.65 2.4 65.1 L2.15 65.35 3.25 64.7 3.75 66.25 Q3.95 68.1 2.4 69.6 L2.25 69.75 3.25 69.15 3.75 70.7 Q3.95 72.6 2.4 74.05 L2.15 74.3 3.25 73.65 3.75 75.2 Q3.95 77.05 2.4 78.55 L2.25 78.7 3.25 78.1 3.75 79.65 Q3.95 81.55 2.4 83.0 L2.15 83.25 3.25 82.6 3.75 84.15 Q3.95 86.0 2.4 87.5 L2.25 87.65 3.25 87.05 3.75 88.6 Q3.95 90.5 2.4 91.95 L2.15 92.2 3.25 91.55 3.75 93.1 Q3.95 94.95 2.4 96.45 L1.65 97.15 3.25 96.2 3.75 97.75 Q3.95 99.65 2.4 101.1 L2.15 101.35 3.25 100.7 3.75 102.25 Q3.95 104.1 2.4 105.6 L2.25 105.75 3.25 105.15 3.75 106.7 Q3.95 108.6 2.4 110.05 L2.15 110.3 3.25 109.65 3.75 111.2 Q3.95 113.05 2.4 114.55 L2.25 114.7 3.25 114.1 3.75 115.65 Q3.95 117.55 2.4 119.0 L2.15 119.25 3.25 118.6 3.75 120.15 Q3.95 122.0 2.4 123.5 L2.25 123.65 3.25 123.05 3.75 124.6 Q3.95 126.5 2.4 127.95 L2.15 128.2 3.25 127.55 3.75 129.1 Q3.95 130.95 2.4 132.45 L1.55 133.25 3.25 132.25 3.75 133.8 Q3.95 135.65 2.4 137.15 L2.25 137.3 3.25 136.7 3.75 138.25 Q3.95 140.15 2.4 141.6 L2.15 141.85 3.25 141.2 3.75 142.75 Q3.95 144.6 2.4 146.1 L2.25 146.25 3.25 145.65 3.75 147.2 Q3.95 149.1 2.4 150.55 L2.15 150.8 3.25 150.15 3.75 151.7 Q3.95 153.55 2.4 155.05 L2.25 155.2 3.25 154.6 3.75 156.15 Q3.95 158.05 2.4 159.5 L2.15 159.75 3.25 159.1 3.75 160.65 Q3.95 162.5 2.4 164.0 L2.25 164.15 3.25 163.55 3.75 165.1 Q3.95 167.0 2.4 168.45 L1.5 169.3 3.25 168.25 3.75 169.8 Q3.95 171.65 2.4 173.15 L2.25 173.3 3.25 172.7 3.75 174.25 Q3.95 176.15 2.4 177.6 L2.15 177.85 3.25 177.2 3.75 178.75 Q3.95 180.6 2.4 182.1 L2.25 182.25 3.25 181.65 3.75 183.2 Q3.95 185.1 2.4 186.55 L2.15 186.8 3.25 186.15 3.75 187.7 Q3.95 189.55 2.4 191.05 L1.65 191.75 3.25 190.8 Q3.85 191.7 3.75 192.95 3.7 194.35 2.65 195.45 L3.25 195.1 3.75 196.65 Q3.95 198.5 2.4 200.0 L2.25 200.15 3.25 199.55 3.75 201.1 Q3.95 203.0 2.4 204.45 L1.5 205.3" fill="none" stroke="#000000" stroke-linecap="round" stroke-linejoin="miter-clip" stroke-miterlimit="4.0" stroke-width="1.0"/>
    <path d="M1.5 205.3 L1.45 205.3" fill="none" stroke="#000000" stroke-linecap="round" stroke-linejoin="miter-clip" stroke-miterlimit="4.0" stroke-width="1.0"/>
    <path d="M1.45 205.3 Q-0.75 206.65 -2.5 208.3 L-2.75 208.55" fill="none" stroke="#000000" stroke-linecap="butt" stroke-linejoin="miter-clip" stroke-miterlimit="4.0" stroke-opacity="0.4" stroke-width="1.0"/>
    <path d="M2.45 -291.15 L2.4 -291.1 -1.45 -288.0 -3.15 -286.8 M2.45 -282.2 L2.4 -282.15 -1.45 -279.05 -3.15 -277.85 M2.45 -273.25 L2.4 -273.2 -1.45 -270.1 -3.15 -268.9 M2.45 -255.15 L2.4 -255.1 -1.45 -252.0 -3.15 -250.8 M2.45 -246.2 L2.4 -246.15 -1.45 -243.05 -3.15 -241.85 M2.45 -237.25 L2.4 -237.2 -1.45 -234.1 -3.15 -232.9 M2.45 -223.4 L2.4 -223.35 -1.45 -220.25 -3.15 -219.05 M2.45 -214.45 L2.4 -214.4 -1.45 -211.3 -3.15 -210.1 M2.45 -205.5 L2.4 -205.45 -1.45 -202.35 -3.15 -201.15 M2.45 -196.55 L2.4 -196.5 -1.45 -193.4 -3.1 -192.2 M2.45 -187.4 L2.4 -187.35 -1.45 -184.25 -3.15 -183.05 M2.45 -178.45 L2.4 -178.4 -1.45 -175.3 -3.15 -174.1 M2.45 -169.5 L2.4 -169.45 -1.45 -166.35 -3.15 -165.15 M2.45 -160.55 L2.4 -160.5 -1.45 -157.4 -3.1 -156.2 M2.45 -146.7 L2.4 -146.65 -1.45 -143.55 -3.15 -142.35 M2.45 -137.75 L2.4 -137.7 -1.45 -134.6 -3.1 -133.4 M2.45 -128.8 L2.4 -128.75 -1.45 -125.65 -3.1 -124.45 M2.45 -110.7 L2.4 -110.65 -1.45 -107.55 -3.15 -106.35 M2.45 -101.75 L2.4 -101.7 -1.45 -98.6 -3.1 -97.4 M2.45 -92.8 L2.4 -92.75 -1.45 -89.65 -3.1 -88.45 M2.45 -78.95 L2.4 -78.9 -1.45 -75.8 -3.15 -74.6 M2.45 -70.0 L2.4 -69.95 -1.45 -66.85 -3.1 -65.65 M2.45 -61.05 L2.4 -61.0 -1.45 -57.9 -3.1 -56.7 M2.45 -52.1 L2.4 -52.05 -1.45 -48.95 -3.1 -47.75 M2.45 -42.95 L2.4 -42.9 -1.45 -39.8 -3.15 -38.6 M2.45 -34.0 L2.4 -33.95 -1.45 -30.85 -3.1 -29.65 M2.45 -25.05 L2.4 -25.0 -3.1 -20.7 M2.45 -16.1 L2.4 -16.05 -3.1 -11.75 M2.35 -295.5 L-1.45 -292.45 -3.15 -291.25 M2.35 -286.55 L-1.45 -283.5 -3.15 -282.3 M2.35 -277.6 L-1.45 -274.55 -3.15 -273.35 M1.85 -263.75 Q0.4 -262.5 -1.45 -261.15 L-2.65 -260.25 M2.35 -268.65 L-1.45 -265.6 -3.15 -264.4 M2.35 -259.5 L-1.45 -256.45 -3.15 -255.25 M2.35 -250.55 L-1.45 -247.5 -3.15 -246.3 M2.35 -241.6 L-1.45 -238.55 -3.15 -237.35 M2.35 -232.65 L-1.45 -229.6 -3.15 -228.4 M2.35 -218.8 L-1.45 -215.75 -3.15 -214.55 M2.35 -209.85 L-1.45 -206.8 -3.15 -205.6 M2.35 -200.9 L-1.45 -197.85 -3.15 -196.65 M1.75 -191.4 L-1.45 -188.9 -2.65 -188.0 M2.35 -182.8 L-1.45 -179.75 -3.15 -178.55 M2.35 -173.85 L-1.45 -170.8 -3.15 -169.6 M2.35 -164.9 L-1.45 -161.85 -3.15 -160.65 M2.35 -151.05 L-1.45 -148.0 -3.15 -146.8 M2.35 -142.1 L-1.45 -139.05 -3.15 -137.85 M2.35 -133.15 L-1.45 -130.1 -3.15 -128.9 M2.35 -124.2 L-1.45 -121.15 -3.15 -119.95 M1.85 -119.3 Q0.4 -118.05 -1.45 -116.7 L-2.65 -115.8 M2.35 -106.1 L-1.45 -103.05 -3.15 -101.85 M2.35 -115.05 L-1.45 -112.0 -3.15 -110.8 M2.35 -97.15 L-1.45 -94.1 -3.15 -92.9 M2.35 -88.2 L-1.45 -85.15 -3.15 -83.95 M2.35 -74.35 L-1.45 -71.3 -3.15 -70.1 M2.35 -56.45 L-1.45 -53.4 -3.15 -52.2 M2.35 -65.4 L-1.45 -62.35 -3.15 -61.15 M1.75 -46.95 L-1.45 -44.45 -2.65 -43.55 M2.35 -38.35 L-1.45 -35.3 -3.15 -34.1 M2.35 -29.4 L-1.45 -26.35 -3.15 -25.15 M2.45 15.45 L2.4 15.5 -3.15 19.85 M2.35 -2.35 Q-0.1 -0.1 -3.15 1.95 M-3.35 280.95 L3.0 275.85 M2.15 272.25 L-3.15 276.4 M2.25 267.7 Q-0.15 269.9 -3.15 271.9 M2.15 263.3 L-3.15 267.45 M2.15 258.8 L-3.15 262.95 M2.15 254.35 Q-0.2 256.5 -3.05 258.4 M2.15 249.85 L-3.15 254.0 M2.1 245.45 L-3.05 249.45 M1.65 241.2 L-2.75 244.55 M2.15 236.25 L-3.15 240.4 M2.25 231.7 Q-0.15 233.9 -3.15 235.9 M2.15 227.3 L-3.15 231.45 M2.15 222.8 L-3.15 226.95 M2.15 218.35 Q-0.2 220.5 -3.05 222.4 M2.15 213.85 L-3.15 218.0 M2.1 209.45 L-3.05 213.45 M2.25 200.15 Q-0.15 202.3 -3.1 204.3 M1.65 191.75 L-2.6 195.0 M2.15 186.8 L-3.15 190.95 M2.25 182.25 Q-0.15 184.4 -3.1 186.4 M2.15 177.85 L-3.15 182.0 M2.25 173.3 Q-0.15 175.5 -3.15 177.5 M1.5 169.3 L-2.75 172.55 M2.25 164.15 Q-0.15 166.3 -3.1 168.3 M2.15 159.75 L-3.15 163.9 M2.25 155.2 Q-0.15 157.35 -3.1 159.35 M2.15 150.8 L-3.15 154.95 M2.25 146.25 Q-0.15 148.4 -3.1 150.4 M2.15 141.85 L-3.15 146.0 M2.25 137.3 Q-0.15 139.5 -3.15 141.5 M2.15 128.2 L-3.15 132.35 M2.25 123.65 Q-0.1 125.8 -3.05 127.8 M2.15 119.25 L-3.15 123.4 M2.25 114.7 Q-0.1 116.85 -3.05 118.85 M2.15 110.3 L-3.15 114.45 M2.25 105.75 Q-0.1 107.9 -3.05 109.9 M2.15 101.35 L-3.15 105.5 M1.65 97.15 Q-0.35 98.9 -2.7 100.5 M2.15 92.2 L-3.15 96.35 M2.25 87.65 Q-0.1 89.8 -3.05 91.8 M2.15 83.25 L-3.15 87.4 M2.25 78.7 Q-0.1 80.85 -3.05 82.85 M2.15 74.3 L-3.15 78.45 M2.25 69.75 Q-0.1 71.9 -3.05 73.9 M2.15 65.35 L-3.15 69.5 M2.15 56.2 L-3.15 60.35 M2.25 51.65 Q-0.15 53.85 -3.15 55.85 M2.15 47.25 L-3.15 51.4 M2.15 42.75 L-3.15 46.9 M2.15 38.3 Q-0.2 40.45 -3.05 42.35 M2.15 33.8 L-3.15 37.95 M2.15 29.35 Q-0.2 31.5 -3.05 33.4 M1.9 24.95 L-2.75 28.5 M2.35 20.05 Q-0.1 22.3 -3.15 24.35 M2.35 11.1 Q-0.1 13.35 -3.15 15.4 M2.35 6.6 Q-0.1 8.85 -3.15 10.9 M2.35 2.15 L-3.05 6.35 M2.35 -6.8 Q-0.1 -4.55 -3.05 -2.6 M0.6 -226.7 Q-0.35 -225.95 -1.45 -225.15 M-1.75 -152.7 L0.9 -154.7 M1.75 -11.0 Q-0.3 -9.15 -2.75 -7.5 M2.35 -20.45 Q-0.1 -18.2 -3.15 -16.15 M0.6 -82.25 Q-0.35 -81.5 -1.45 -80.7" fill="none" stroke="#000000" stroke-linecap="round" stroke-linejoin="miter-clip" stroke-miterlimit="4.0" stroke-opacity="0.4" stroke-width="1.0"/>
    <path d="M-2.7 64.5 L-2.5 64.25 Q-0.75 62.6 1.45 61.25 M-2.7 136.55 L-2.5 136.3 Q-0.75 134.65 1.45 133.3 M2.65 195.45 L2.4 195.7 Q-0.15 198.1 -3.35 200.2" fill="none" stroke="#000000" stroke-linecap="round" stroke-linejoin="miter-clip" stroke-miterlimit="4.0" stroke-opacity="0.4" stroke-width="1.0"/>
    <path d="M1.45 61.25 L1.65 61.15 M1.45 133.3 L1.55 133.25" fill="none" stroke="#000000" stroke-linecap="butt" stroke-linejoin="miter-clip" stroke-miterlimit="4.0" stroke-width="1.0"/>
  </g>
</svg>
