<?xml version="1.0" encoding="UTF-8" standalone="no"?>
<svg xmlns:xlink="http://www.w3.org/1999/xlink" height="14.8px" width="59.1px" xmlns="http://www.w3.org/2000/svg">
  <g transform="matrix(1.0, 0.0, 0.0, 1.0, 28.55, -42.7)">
    <path d="M-19.55 44.75 Q-11.1 43.2 1.0 43.2 13.1 43.2 21.55 44.75 30.05 46.3 30.05 48.55 L30.05 48.6 Q30.0 50.75 21.55 52.35 13.05 53.9 1.0 53.9 -11.05 53.9 -19.55 52.35 -28.0 50.75 -28.05 48.6 L-28.05 48.55 Q-28.05 46.3 -19.55 44.75" fill="#ffffff" fill-opacity="0.0" fill-rule="evenodd" stroke="none"/>
    <path d="M30.05 48.6 L30.05 51.6 Q30.05 53.85 21.55 55.45 13.05 57.0 1.0 57.0 -11.05 57.0 -19.55 55.45 -28.05 53.85 -28.05 51.6 L-28.05 48.6 Q-28.0 50.75 -19.55 52.35 -11.05 53.9 1.0 53.9 13.05 53.9 21.55 52.35 30.0 50.75 30.05 48.6" fill="#000000" fill-opacity="0.2" fill-rule="evenodd" stroke="none"/>
    <path d="M-19.55 44.75 Q-11.1 43.2 1.0 43.2 13.1 43.2 21.55 44.75 30.05 46.3 30.05 48.55 L30.05 48.6 M21.55 55.45 Q13.05 57.0 1.0 57.0 -11.05 57.0 -19.55 55.45 -28.05 53.85 -28.05 51.6 L-28.05 48.6" fill="none" stroke="#000000" stroke-linecap="butt" stroke-linejoin="miter-clip" stroke-miterlimit="4.0" stroke-width="1.0"/>
    <path d="M21.55 52.35 Q13.05 53.9 1.0 53.9 -11.05 53.9 -19.55 52.35" fill="none" stroke="#000000" stroke-linecap="butt" stroke-linejoin="miter-clip" stroke-miterlimit="4.0" stroke-opacity="0.4" stroke-width="1.0"/>
    <path d="M30.05 51.6 Q30.05 53.85 21.55 55.45 M-28.05 48.55 Q-28.05 46.3 -19.55 44.75" fill="none" stroke="#000000" stroke-linecap="butt" stroke-linejoin="miter-clip" stroke-miterlimit="4.0" stroke-width="1.0"/>
    <path d="M30.05 48.6 L30.05 51.6 M-28.05 48.6 L-28.05 48.55" fill="none" stroke="#000000" stroke-linecap="round" stroke-linejoin="miter-clip" stroke-miterlimit="4.0" stroke-width="1.0"/>
    <path d="M30.05 48.6 Q30.0 50.75 21.55 52.35" fill="none" stroke="#000000" stroke-linecap="round" stroke-linejoin="miter-clip" stroke-miterlimit="4.0" stroke-opacity="0.4" stroke-width="1.0"/>
    <path d="M-19.55 52.35 Q-28.0 50.75 -28.05 48.6" fill="none" stroke="#000000" stroke-linecap="butt" stroke-linejoin="miter-clip" stroke-miterlimit="4.0" stroke-opacity="0.4" stroke-width="1.0"/>
  </g>
</svg>
