<?xml version="1.0" encoding="UTF-8" standalone="no"?>
<svg xmlns:xlink="http://www.w3.org/1999/xlink" height="198.05px" width="124.0px" xmlns="http://www.w3.org/2000/svg">
  <g transform="matrix(1.0, 0.0, 0.0, 1.0, 62.0, 99.0)">
    <path d="M60.55 17.55 L60.95 20.55 59.65 13.35 60.55 17.55 M41.9 80.2 L41.35 80.75 41.0 81.05 41.9 80.2" fill="#d4b781" fill-rule="evenodd" stroke="none"/>
    <path d="M13.9 -37.35 Q30.6 -33.25 43.5 -18.85 57.5 -3.2 60.55 17.55 L59.65 13.35 Q56.3 -1.1 47.2 -12.6 L46.25 -13.75 Q31.0 -32.25 9.4 -32.25 L6.5 -32.15 Q-13.25 -31.0 -27.45 -13.75 -41.3 3.0 -42.55 26.1 L-42.7 30.8 Q-42.7 56.95 -27.45 75.4 -13.25 92.65 6.5 93.8 L9.3 93.9 9.4 93.9 14.55 93.65 16.8 93.35 17.8 93.15 18.75 93.0 41.0 81.05 41.35 80.75 35.1 86.4 Q25.25 94.2 13.6 97.0 7.05 98.55 0.0 98.55 -7.05 98.55 -13.55 97.0 -30.45 92.95 -43.5 78.4 -61.5 58.25 -61.5 29.8 L-61.4 26.1 Q-60.3 0.0 -43.5 -18.85 -30.4 -33.45 -13.45 -37.45 -7.0 -39.0 0.0 -39.0 7.25 -39.0 13.9 -37.35" fill="#ffffff" fill-opacity="0.0" fill-rule="evenodd" stroke="none"/>
    <path d="M11.75 -67.85 Q13.9 -71.3 13.9 -75.55 13.9 -81.35 10.05 -85.5 6.15 -89.6 0.7 -89.6 -4.75 -89.6 -8.65 -85.5 -12.5 -81.35 -12.5 -75.55 -12.5 -71.2 -10.35 -67.85 L-8.6 -65.65 Q-8.45 -64.95 -7.85 -64.35 -4.25 -60.5 -6.35 -56.7 -8.1 -53.5 -11.95 -54.55 -8.1 -53.5 -6.35 -56.7 -4.25 -60.5 -7.85 -64.35 -8.45 -64.95 -8.6 -65.65 L-10.35 -67.85 -8.95 -69.5 Q-4.95 -73.5 0.7 -73.5 6.35 -73.5 10.35 -69.5 L11.75 -67.85 11.7 -67.8 Q14.6 -63.95 14.2 -59.4 L14.35 -59.55 14.2 -59.4 Q14.6 -63.95 11.7 -67.8 L11.75 -67.85 M-11.95 -54.55 L-13.55 -55.15 Q-18.4 -57.35 -21.4 -63.7 -24.1 -69.35 -24.1 -75.1 -24.1 -84.8 -17.65 -91.65 -11.2 -98.5 -2.05 -98.5 7.05 -98.5 13.5 -91.65 19.95 -84.8 19.95 -75.1 19.95 -66.2 14.35 -59.55 14.25 -54.05 10.35 -50.15 9.15 -48.95 7.8 -48.1 L13.9 -46.6 13.9 -37.35 Q7.25 -39.0 0.0 -39.0 -7.0 -39.0 -13.45 -37.45 L-13.45 -46.15 -5.95 -47.85 Q-7.55 -48.75 -8.95 -50.15 -10.95 -52.15 -11.95 -54.55 M60.95 20.55 Q61.45 25.05 61.5 29.8 L61.5 30.8 Q61.5 47.05 55.6 60.3 L46.75 74.85 46.25 75.4 45.7 76.05 41.9 80.2 41.0 81.05 18.75 93.0 17.8 93.15 16.8 93.35 14.55 93.65 9.4 93.9 9.3 93.9 6.5 93.8 5.2 93.7 Q22.45 92.05 35.1 78.6 L39.25 73.7 Q53.15 55.55 53.15 30.8 53.15 6.05 39.25 -12.05 25.4 -30.1 5.2 -32.05 L6.5 -32.15 9.4 -32.25 Q31.0 -32.25 46.25 -13.75 L47.2 -12.6 Q56.3 -1.1 59.65 13.35 L60.95 20.55 M-11.8 -92.55 L-9.95 -94.35 Q-19.05 -90.0 -20.95 -80.4 -21.9 -75.6 -21.05 -71.65 -21.5 -79.45 -15.75 -87.7 L-11.8 -92.55 M-4.8 -48.1 L-5.95 -47.85 -4.8 -48.1 Q1.9 -49.0 7.8 -48.1 1.9 -49.0 -4.8 -48.1" fill="#000000" fill-opacity="0.2" fill-rule="evenodd" stroke="none"/>
    <path d="M-11.8 -92.55 L-15.75 -87.7 Q-21.5 -79.45 -21.05 -71.65 -21.9 -75.6 -20.95 -80.4 -19.05 -90.0 -9.95 -94.35 L-11.8 -92.55" fill="#ffffff" fill-opacity="0.8" fill-rule="evenodd" stroke="none"/>
    <path d="M5.2 93.7 L6.5 93.8 9.3 93.9 9.4 93.9 14.55 93.65 16.8 93.35 17.8 93.15 18.75 93.0 M41.0 81.05 L41.9 80.2 M6.5 -32.15 L5.2 -32.05 M-5.95 -47.85 L-4.8 -48.1 M59.65 13.35 L60.55 17.55 M60.95 20.55 L59.65 13.35 M41.35 80.75 L41.0 81.05" fill="none" stroke="#000000" stroke-linecap="butt" stroke-linejoin="miter-clip" stroke-miterlimit="4.0" stroke-width="1.0"/>
    <path d="M5.2 -32.05 Q25.4 -30.1 39.25 -12.05 53.15 6.05 53.15 30.8 53.15 55.55 39.25 73.7 L35.1 78.6 Q22.45 92.05 5.2 93.7 M18.75 93.0 L41.0 81.05 M59.65 13.35 Q56.3 -1.1 47.2 -12.6 L46.25 -13.75 Q31.0 -32.25 9.4 -32.25 L6.5 -32.15 Q-13.25 -31.0 -27.45 -13.75 -41.3 3.0 -42.55 26.1 L-42.7 30.8 Q-42.7 56.95 -27.45 75.4 -13.25 92.65 6.5 93.8 M-4.8 -48.1 Q1.9 -49.0 7.8 -48.1" fill="none" stroke="#000000" stroke-linecap="butt" stroke-linejoin="miter-clip" stroke-miterlimit="4.0" stroke-opacity="0.6" stroke-width="1.0"/>
    <path d="M-10.35 -67.85 Q-12.5 -71.2 -12.5 -75.55 -12.5 -81.35 -8.65 -85.5 -4.75 -89.6 0.7 -89.6 6.15 -89.6 10.05 -85.5 13.9 -81.35 13.9 -75.55 13.9 -71.3 11.75 -67.85 M-13.45 -37.45 Q-7.0 -39.0 0.0 -39.0 7.25 -39.0 13.9 -37.35" fill="none" stroke="#000000" stroke-linecap="butt" stroke-linejoin="miter-clip" stroke-miterlimit="4.0" stroke-opacity="0.6" stroke-width="1.0"/>
    <path d="M11.75 -67.85 L11.7 -67.8 Q14.6 -63.95 14.2 -59.4 L14.35 -59.55" fill="none" stroke="#000000" stroke-linecap="round" stroke-linejoin="miter-clip" stroke-miterlimit="4.0" stroke-opacity="0.6" stroke-width="1.0"/>
    <path d="M14.35 -59.55 Q19.95 -66.2 19.95 -75.1 19.95 -84.8 13.5 -91.65 7.05 -98.5 -2.05 -98.5 -11.2 -98.5 -17.65 -91.65 -24.1 -84.8 -24.1 -75.1 -24.1 -69.35 -21.4 -63.7 -18.4 -57.35 -13.55 -55.15 L-11.95 -54.55 Q-8.1 -53.5 -6.35 -56.7 -4.25 -60.5 -7.85 -64.35 -8.45 -64.95 -8.6 -65.65 L-10.35 -67.85" fill="none" stroke="#000000" stroke-linecap="round" stroke-linejoin="miter-clip" stroke-miterlimit="4.0" stroke-opacity="0.6" stroke-width="1.0"/>
    <path d="M-10.35 -67.85 L-8.95 -69.5 Q-4.95 -73.5 0.7 -73.5 6.35 -73.5 10.35 -69.5 L11.75 -67.85" fill="none" stroke="#000000" stroke-linecap="butt" stroke-linejoin="miter-clip" stroke-miterlimit="4.0" stroke-width="1.0"/>
    <path d="M14.35 -59.55 Q14.25 -54.05 10.35 -50.15 9.15 -48.95 7.8 -48.1 L13.9 -46.6 13.9 -37.35" fill="none" stroke="#000000" stroke-linecap="round" stroke-linejoin="miter-clip" stroke-miterlimit="4.0" stroke-width="1.0"/>
    <path d="M13.9 -37.35 Q30.6 -33.25 43.5 -18.85 57.5 -3.2 60.55 17.55 L60.95 20.55 Q61.45 25.05 61.5 29.8 L61.5 30.8 Q61.5 47.05 55.6 60.3 L46.75 74.85 46.25 75.4 45.7 76.05 41.9 80.2 41.35 80.75 35.1 86.4 Q25.25 94.2 13.6 97.0 7.05 98.55 0.0 98.55 -7.05 98.55 -13.55 97.0 -30.45 92.95 -43.5 78.4 -61.5 58.25 -61.5 29.8 L-61.4 26.1 Q-60.3 0.0 -43.5 -18.85 -30.4 -33.45 -13.45 -37.45 L-13.45 -46.15 -5.95 -47.85 Q-7.55 -48.75 -8.95 -50.15 -10.95 -52.15 -11.95 -54.55" fill="none" stroke="#000000" stroke-linecap="round" stroke-linejoin="miter-clip" stroke-miterlimit="4.0" stroke-width="1.0"/>
    <path d="M0.75 -66.2 Q-0.3 -65.6 -1.75 -65.6 -3.15 -65.6 -4.2 -66.2 -5.2 -66.85 -5.2 -67.7 -5.2 -68.55 -4.2 -69.2 -3.15 -69.8 -1.75 -69.8 -0.3 -69.8 0.75 -69.2 1.75 -68.55 1.75 -67.7 1.75 -66.85 0.75 -66.2" fill="#ffffff" fill-opacity="0.8" fill-rule="evenodd" stroke="none"/>
    <path d="M-11.45 -38.5 L-11.45 -45.45 -9.7 -45.45 -9.7 -38.5 -11.45 -38.5" fill="#ffffff" fill-opacity="0.8" fill-rule="evenodd" stroke="none"/>
    <path d="M5.15 -35.25 L6.45 -35.2 Q-15.2 -34.5 -30.3 -15.1 -43.95 2.4 -45.35 26.1 L-45.5 31.5 Q-45.5 58.65 -30.3 78.1 -18.55 93.2 -2.8 97.0 1.65 98.1 6.45 98.25 L5.15 98.25 Q-0.45 98.25 -5.6 97.0 -20.95 93.3 -32.65 78.7 -48.3 59.15 -48.3 31.5 L-48.15 26.1 Q-46.75 1.9 -32.65 -15.7 -17.0 -35.25 5.15 -35.25" fill="#ffffff" fill-opacity="0.69803923" fill-rule="evenodd" stroke="none"/>
  </g>
</svg>
