<?xml version="1.0" encoding="UTF-8" standalone="no"?>
<svg xmlns:xlink="http://www.w3.org/1999/xlink" height="75.25px" width="91.45px" xmlns="http://www.w3.org/2000/svg">
  <g transform="matrix(1.0, 0.0, 0.0, 1.0, 18.5, 36.15)">
    <path d="M21.2 -33.55 Q24.3 -26.9 25.15 -25.65 28.3 -21.15 33.45 -19.85 L42.35 -18.05 Q45.3 -17.05 45.7 -13.0 46.25 -6.7 46.5 -5.95 47.2 -3.35 50.25 -1.6 L57.0 1.8 Q60.2 3.75 59.1 6.65 57.65 10.45 57.8 12.15 58.0 14.45 60.8 18.05 65.15 23.6 67.8 28.15 71.7 34.7 70.75 37.15 69.35 40.85 42.85 35.15 41.35 34.5 15.8 15.3 -9.75 -3.9 -10.2 -4.75 L-17.85 -19.0 Q-12.45 -21.6 -9.05 -23.85 L-3.35 -28.45 Q0.75 -31.55 5.5 -32.4 9.35 -33.1 15.4 -35.35 19.8 -36.5 21.2 -33.55" fill="#ffffff" fill-opacity="0.0" fill-rule="evenodd" stroke="none"/>
    <path d="M21.2 -33.55 Q24.3 -26.9 25.15 -25.65 28.3 -21.15 33.45 -19.85 L42.35 -18.05 Q45.3 -17.05 45.7 -13.0 46.25 -6.7 46.5 -5.95 47.2 -3.35 50.25 -1.6 L57.0 1.8 Q60.2 3.75 59.1 6.65 57.65 10.45 57.8 12.15 58.0 14.45 60.8 18.05 65.15 23.6 67.8 28.15 71.7 34.7 70.75 37.15 69.35 40.85 42.85 35.15 41.35 34.5 15.8 15.3 -9.75 -3.9 -10.2 -4.75 L-17.85 -19.0 Q-12.45 -21.6 -9.05 -23.85 L-3.35 -28.45 Q0.75 -31.55 5.5 -32.4 9.35 -33.1 15.4 -35.35 19.8 -36.5 21.2 -33.55 Z" fill="none" stroke="#000000" stroke-linecap="butt" stroke-linejoin="miter-clip" stroke-miterlimit="10.0" stroke-width="1.0"/>
    <path d="M26.7 -18.3 Q32.9 -14.75 38.85 -8.8 L34.3 -9.4 29.75 -9.85 Q32.25 -7.45 39.0 -2.8 45.35 1.55 48.2 4.55 52.8 9.45 56.7 19.9 61.7 33.5 63.35 36.45 58.75 33.9 49.15 29.7 L37.8 24.55 Q31.05 21.55 26.15 20.1 23.5 19.3 15.25 15.45 8.45 12.25 4.2 11.75 -1.3 11.15 -4.5 9.55 -8.85 7.35 -10.25 2.9 -10.85 1.05 -10.8 -1.85 -10.75 -5.7 -10.85 -6.6 -10.9 -7.25 -11.5 -9.7 -11.9 -11.55 -11.8 -12.9 -11.45 -16.65 -9.0 -19.9 -6.65 -23.1 -3.15 -24.65 -1.2 -25.5 6.45 -26.8 15.0 -28.25 14.85 -26.65 14.75 -25.75 13.55 -24.85 12.25 -23.85 12.1 -23.05 19.25 -22.6 26.7 -18.3" fill="#000000" fill-opacity="0.2" fill-rule="evenodd" stroke="none"/>
  </g>
</svg>
