<?xml version="1.0" encoding="UTF-8" standalone="no"?>
<svg xmlns:xlink="http://www.w3.org/1999/xlink" height="473.05px" width="2747.6px" xmlns="http://www.w3.org/2000/svg">
  <g transform="matrix(1.0, 0.0, 0.0, 1.0, 1598.4, 238.75)">
    <path d="M-784.95 -70.4 L-784.95 -218.45 -923.25 -218.45 -923.25 -70.4 -784.95 -70.4 M-1075.95 -218.45 L-1075.95 -70.4 -933.15 -70.4 -933.15 -218.45 -1075.95 -218.45 M-124.8 -216.95 L-275.4 -216.95 -275.4 -68.9 -124.8 -68.9 -124.8 -216.95 M-384.75 -216.95 L-524.85 -216.95 -524.85 -68.9 -384.75 -68.9 -384.75 -216.95 M-534.9 -68.9 L-534.9 -216.95 -679.5 -216.95 -679.5 -68.9 -534.9 -68.9 M644.1 -216.95 L519.15 -216.95 519.15 -68.9 644.1 -68.9 644.1 -216.95 M313.8 -216.95 L313.8 -68.9 459.75 -68.9 459.75 -216.95 313.8 -216.95 M31.5 -68.9 L31.5 -216.95 -114.3 -216.95 -114.3 -68.9 31.5 -68.9 M303.45 -68.9 L303.45 -216.95 152.7 -216.95 152.7 -68.9 303.45 -68.9 M812.7 -233.75 L872.7 -42.65 -1148.7 -42.65 -1148.4 -233.75 812.7 -233.75 M773.7 -216.95 L652.8 -216.95 652.8 -68.9 773.7 -68.9 773.7 -216.95" fill="#ffffff" fill-opacity="0.0" fill-rule="evenodd" stroke="none"/>
    <path d="M773.7 -216.95 L773.7 -68.9 652.8 -68.9 652.8 -216.95 773.7 -216.95 M812.7 -233.75 L-1148.4 -233.75 -1148.7 -42.65 872.7 -42.65 812.7 -233.75 M303.45 -68.9 L152.7 -68.9 152.7 -216.95 303.45 -216.95 303.45 -68.9 M31.5 -68.9 L-114.3 -68.9 -114.3 -216.95 31.5 -216.95 31.5 -68.9 M313.8 -216.95 L459.75 -216.95 459.75 -68.9 313.8 -68.9 313.8 -216.95 M644.1 -216.95 L644.1 -68.9 519.15 -68.9 519.15 -216.95 644.1 -216.95 M-534.9 -68.9 L-679.5 -68.9 -679.5 -216.95 -534.9 -216.95 -534.9 -68.9 M-384.75 -216.95 L-384.75 -68.9 -524.85 -68.9 -524.85 -216.95 -384.75 -216.95 M-124.8 -216.95 L-124.8 -68.9 -275.4 -68.9 -275.4 -216.95 -124.8 -216.95 M-1075.95 -218.45 L-933.15 -218.45 -933.15 -70.4 -1075.95 -70.4 -1075.95 -218.45 M-784.95 -70.4 L-923.25 -70.4 -923.25 -218.45 -784.95 -218.45 -784.95 -70.4" fill="none" stroke="#000000" stroke-linecap="butt" stroke-linejoin="miter-clip" stroke-miterlimit="10.0" stroke-opacity="0.8" stroke-width="1.0"/>
    <path d="M-965.25 146.8 L-965.25 133.15 -832.35 133.15 -834.6 139.75 Q-836.1 143.95 -836.7 146.8 L-965.25 146.8" fill="#000000" fill-opacity="0.2" fill-rule="evenodd" stroke="none"/>
    <path d="M-965.25 146.8 L-836.7 146.8 Q-836.1 143.95 -834.6 139.75 L-832.35 133.15 -965.25 133.15 -965.25 146.8 Z" fill="none" stroke="#000000" stroke-linecap="butt" stroke-linejoin="miter-clip" stroke-miterlimit="10.0" stroke-opacity="0.6" stroke-width="1.0"/>
    <path d="M-589.2 148.9 Q-589.95 145.9 -594.15 133.15 L668.4 133.15 665.85 139.75 Q663.9 144.1 663.3 146.8 L-589.2 148.9" fill="#000000" fill-opacity="0.2" fill-rule="evenodd" stroke="none"/>
    <path d="M-589.2 148.9 L663.3 146.8 Q663.9 144.1 665.85 139.75 L668.4 133.15 -594.15 133.15 Q-589.95 145.9 -589.2 148.9 Z" fill="none" stroke="#000000" stroke-linecap="butt" stroke-linejoin="miter-clip" stroke-miterlimit="10.0" stroke-opacity="0.6" stroke-width="1.0"/>
    <path d="M992.1 133.15 L996.75 146.8 910.95 146.8 Q910.35 144.1 908.85 139.9 L906.6 133.15 992.1 133.15" fill="#000000" fill-opacity="0.2" fill-rule="evenodd" stroke="none"/>
    <path d="M992.1 133.15 L906.6 133.15 908.85 139.9 Q910.35 144.1 910.95 146.8 L996.75 146.8 992.1 133.15 Z" fill="none" stroke="#000000" stroke-linecap="butt" stroke-linejoin="miter-clip" stroke-miterlimit="10.0" stroke-opacity="0.6" stroke-width="1.0"/>
    <path d="M-890.85 -42.65 L-890.85 233.8" fill="none" stroke="#000000" stroke-linecap="butt" stroke-linejoin="miter-clip" stroke-miterlimit="10.0" stroke-opacity="0.8" stroke-width="1.0"/>
    <path d="M-894.15 -42.65 L-894.15 233.8" fill="none" stroke="#ffffff" stroke-linecap="butt" stroke-linejoin="miter-clip" stroke-miterlimit="10.0" stroke-width="1.0"/>
    <path d="M-471.45 -42.65 L-471.45 233.65" fill="none" stroke="#000000" stroke-linecap="butt" stroke-linejoin="miter-clip" stroke-miterlimit="10.0" stroke-opacity="0.8" stroke-width="1.0"/>
    <path d="M-475.35 -42.65 L-475.35 233.65" fill="none" stroke="#ffffff" stroke-linecap="butt" stroke-linejoin="miter-clip" stroke-miterlimit="10.0" stroke-width="1.0"/>
    <path d="M118.65 -42.65 L118.65 229.45" fill="none" stroke="#000000" stroke-linecap="butt" stroke-linejoin="miter-clip" stroke-miterlimit="10.0" stroke-opacity="0.8" stroke-width="1.0"/>
    <path d="M115.5 -42.65 L115.5 232.6" fill="none" stroke="#ffffff" stroke-linecap="butt" stroke-linejoin="miter-clip" stroke-miterlimit="10.0" stroke-width="1.0"/>
    <path d="M538.05 -42.65 L538.05 232.9" fill="none" stroke="#000000" stroke-linecap="butt" stroke-linejoin="miter-clip" stroke-miterlimit="10.0" stroke-opacity="0.8" stroke-width="1.0"/>
    <path d="M535.5 -42.65 L535.5 232.9" fill="none" stroke="#ffffff" stroke-linecap="butt" stroke-linejoin="miter-clip" stroke-miterlimit="10.0" stroke-width="1.0"/>
    <path d="M-582.9 187.6 L655.5 187.6" fill="none" stroke="#000000" stroke-linecap="butt" stroke-linejoin="miter-clip" stroke-miterlimit="10.0" stroke-width="1.0"/>
    <path d="M-784.95 -70.4 L-784.95 -218.45 -923.25 -218.45 -923.25 -70.4 -784.95 -70.4 M-933.15 -70.4 L-933.15 -218.45 -1075.95 -218.45 -1075.95 -70.4 -933.15 -70.4 M-751.8 -225.2 L-751.8 -62.15 -1107.0 -62.15 -1107.0 -225.2 -751.8 -225.2" fill="#ffffff" fill-opacity="0.0" fill-rule="evenodd" stroke="none"/>
    <path d="M-751.8 -225.2 L-1107.0 -225.2 -1107.0 -62.15 -751.8 -62.15 -751.8 -225.2 M-933.15 -70.4 L-1075.95 -70.4 -1075.95 -218.45 -933.15 -218.45 -933.15 -70.4 M-784.95 -70.4 L-923.25 -70.4 -923.25 -218.45 -784.95 -218.45 -784.95 -70.4" fill="none" stroke="#000000" stroke-linecap="butt" stroke-linejoin="miter-clip" stroke-miterlimit="10.0" stroke-width="1.0"/>
    <path d="M-384.75 -216.95 L-524.85 -216.95 -524.85 -68.9 -384.75 -68.9 -384.75 -216.95 M-679.5 -216.95 L-679.5 -68.9 -534.9 -68.9 -534.9 -216.95 -679.5 -216.95 M-711.0 -60.65 L-711.0 -223.7 -351.3 -223.7 -351.3 -60.65 -711.0 -60.65" fill="#ffffff" fill-opacity="0.0" fill-rule="evenodd" stroke="none"/>
    <path d="M-711.0 -60.65 L-351.3 -60.65 -351.3 -223.7 -711.0 -223.7 -711.0 -60.65 M-679.5 -216.95 L-534.9 -216.95 -534.9 -68.9 -679.5 -68.9 -679.5 -216.95 M-384.75 -216.95 L-384.75 -68.9 -524.85 -68.9 -524.85 -216.95 -384.75 -216.95" fill="none" stroke="#000000" stroke-linecap="butt" stroke-linejoin="miter-clip" stroke-miterlimit="10.0" stroke-width="1.0"/>
    <path d="M-124.8 -216.95 L-275.4 -216.95 -275.4 -68.9 -124.8 -68.9 -124.8 -216.95 M31.5 -68.9 L31.5 -216.95 -114.3 -216.95 -114.3 -68.9 31.5 -68.9 M66.6 -223.7 L66.6 -60.65 -308.25 -60.65 -308.25 -223.7 66.6 -223.7" fill="#ffffff" fill-opacity="0.0" fill-rule="evenodd" stroke="none"/>
    <path d="M66.6 -223.7 L-308.25 -223.7 -308.25 -60.65 66.6 -60.65 66.6 -223.7 M31.5 -68.9 L-114.3 -68.9 -114.3 -216.95 31.5 -216.95 31.5 -68.9 M-124.8 -216.95 L-124.8 -68.9 -275.4 -68.9 -275.4 -216.95 -124.8 -216.95" fill="none" stroke="#000000" stroke-linecap="butt" stroke-linejoin="miter-clip" stroke-miterlimit="10.0" stroke-width="1.0"/>
    <path d="M303.45 -68.9 L303.45 -216.95 152.7 -216.95 152.7 -68.9 303.45 -68.9 M459.75 -68.9 L459.75 -216.95 313.8 -216.95 313.8 -68.9 459.75 -68.9 M494.7 -223.7 L494.7 -60.65 120.0 -60.65 120.0 -223.7 494.7 -223.7" fill="#ffffff" fill-opacity="0.0" fill-rule="evenodd" stroke="none"/>
    <path d="M494.7 -223.7 L120.0 -223.7 120.0 -60.65 494.7 -60.65 494.7 -223.7 M459.75 -68.9 L313.8 -68.9 313.8 -216.95 459.75 -216.95 459.75 -68.9 M303.45 -68.9 L152.7 -68.9 152.7 -216.95 303.45 -216.95 303.45 -68.9" fill="none" stroke="#000000" stroke-linecap="butt" stroke-linejoin="miter-clip" stroke-miterlimit="10.0" stroke-width="1.0"/>
    <path d="M773.7 -68.9 L773.7 -216.95 652.8 -216.95 652.8 -68.9 773.7 -68.9 M492.0 -223.7 L802.8 -223.7 802.8 -60.65 492.0 -60.65 492.0 -223.7 M644.1 -216.95 L519.15 -216.95 519.15 -68.9 644.1 -68.9 644.1 -216.95" fill="#ffffff" fill-opacity="0.0" fill-rule="evenodd" stroke="none"/>
    <path d="M644.1 -216.95 L644.1 -68.9 519.15 -68.9 519.15 -216.95 644.1 -216.95 M492.0 -223.7 L492.0 -60.65 802.8 -60.65 802.8 -223.7 492.0 -223.7 M773.7 -68.9 L652.8 -68.9 652.8 -216.95 773.7 -216.95 773.7 -68.9" fill="none" stroke="#000000" stroke-linecap="butt" stroke-linejoin="miter-clip" stroke-miterlimit="10.0" stroke-width="1.0"/>
    <path d="M951.0 -67.7 L1124.55 -67.7 1124.55 -224.6 889.8 -224.6 951.0 -67.7 M1148.7 -58.85 L926.1 -58.85 864.9 -231.8 1148.7 -231.8 1148.7 -58.85" fill="#ffffff" fill-opacity="0.0" fill-rule="evenodd" stroke="none"/>
    <path d="M1148.7 -58.85 L1148.7 -231.8 864.9 -231.8 926.1 -58.85 1148.7 -58.85 M951.0 -67.7 L889.8 -224.6 1124.55 -224.6 1124.55 -67.7 951.0 -67.7" fill="none" stroke="#000000" stroke-linecap="butt" stroke-linejoin="miter-clip" stroke-miterlimit="10.0" stroke-width="1.0"/>
  </g>
</svg>
