<?xml version="1.0" encoding="UTF-8" standalone="no"?>
<svg xmlns:xlink="http://www.w3.org/1999/xlink" height="554.5px" width="2462.2px" xmlns="http://www.w3.org/2000/svg">
  <g transform="matrix(1.0, 0.0, 0.0, 1.0, 1231.1, 277.25)">
    <path d="M-1215.15 203.85 L-1215.15 205.35 Q-1217.55 217.5 -1202.1 246.9 -1195.55 259.3 -1188.65 269.85 L-1230.6 269.85 -1230.6 203.85 -1215.15 203.85 M1180.65 266.65 L1180.65 232.2 1220.15 232.2 1230.6 232.2 1230.6 276.75 1180.65 276.75 1180.65 266.65" fill="#000000" fill-rule="evenodd" stroke="none"/>
    <path d="M-867.7 273.35 L-825.15 273.3 Q-827.4 232.2 -826.8 218.25 -825.6 188.4 -815.4 166.95 -790.2 114.3 -729.3 98.4 -702.15 91.2 -675.3 94.65 -647.7 98.25 -626.7 112.2 -580.05 143.4 -570.75 209.7 -565.95 243.3 -571.05 273.15 L-570.6 273.3 -867.75 273.45 -867.7 273.35 M667.35 273.35 L670.05 273.3 Q667.95 240.0 670.65 217.95 673.95 190.95 685.35 166.95 710.55 114.3 771.3 98.4 798.45 91.2 825.3 94.65 852.9 98.25 873.9 112.2 921.45 143.85 930.0 211.95 934.2 246.0 928.95 273.75 L667.35 273.35" fill="#000000" fill-opacity="0.4" fill-rule="evenodd" stroke="none"/>
    <path d="M904.05 -184.95 L965.25 -28.05 1143.3 -28.05 1143.3 -184.95 904.05 -184.95 M667.05 -29.25 L787.95 -29.25 787.95 -177.3 667.05 -177.3 667.05 -29.25 M658.35 -29.25 L658.35 -177.3 533.4 -177.3 533.4 -29.25 658.35 -29.25 M-1215.15 203.85 L-1215.15 -198.45 Q-1213.95 -217.65 -1199.55 -237.15 -1170.6 -275.85 -1104.45 -276.75 L1143.9 -272.25 1170.3 -265.65 Q1198.95 -255.45 1209.9 -237.3 L1220.15 232.2 1180.65 232.2 1180.65 266.65 928.95 273.75 Q934.2 246.0 930.0 211.95 921.45 143.85 873.9 112.2 852.9 98.25 825.3 94.65 798.45 91.2 771.3 98.4 710.55 114.3 685.35 166.95 673.95 190.95 670.65 217.95 667.95 240.0 670.05 273.3 L667.35 273.35 666.45 273.35 612.45 273.3 -570.6 273.3 -571.05 273.15 Q-565.95 243.3 -570.75 209.7 -580.05 143.4 -626.7 112.2 -647.7 98.25 -675.3 94.65 -702.15 91.2 -729.3 98.4 -790.2 114.3 -815.4 166.95 -825.6 188.4 -826.8 218.25 -827.4 232.2 -825.15 273.3 L-867.7 273.35 -1186.05 273.75 -1188.65 269.85 Q-1195.55 259.3 -1202.1 246.9 -1217.55 217.5 -1215.15 205.35 L-1215.15 203.85 M328.05 -29.25 L474.0 -29.25 474.0 -177.3 328.05 -177.3 328.05 -29.25 M166.95 -29.25 L317.7 -29.25 317.7 -177.3 166.95 -177.3 166.95 -29.25 M45.75 -29.25 L45.75 -177.3 -100.05 -177.3 -100.05 -29.25 45.75 -29.25 M1162.95 -19.2 L1162.95 258.75 1035.9 258.75 940.35 -19.2 1035.9 258.75 1162.95 258.75 1162.95 -19.2 M-261.15 -177.3 L-261.15 -29.25 -110.55 -29.25 -110.55 -177.3 -261.15 -177.3 M-510.6 -177.3 L-510.6 -29.25 -370.5 -29.25 -370.5 -177.3 -510.6 -177.3 M-520.65 -29.25 L-520.65 -177.3 -665.25 -177.3 -665.25 -29.25 -520.65 -29.25 M-1157.4 -105.6 L-1157.4 -189.15 -1200.15 -189.15 -1198.2 -105.6 -1157.4 -105.6 -1198.2 -105.6 -1200.15 -189.15 -1157.4 -189.15 -1157.4 -105.6 M-909.0 -178.8 L-909.0 -30.75 -770.7 -30.75 -770.7 -178.8 -909.0 -178.8 M-1061.7 -178.8 L-1061.7 -30.75 -918.9 -30.75 -918.9 -178.8 -1061.7 -178.8 M-968.55 199.95 L-968.55 100.95 -974.4 100.95 -974.4 199.95 -968.55 199.95 -974.4 199.95 -974.4 100.95 -968.55 100.95 -968.55 199.95 M-951.0 207.75 L-951.0 91.35 -1186.05 91.35 -1186.05 207.75 -951.0 207.75 -1186.05 207.75 -1186.05 91.35 -951.0 91.35 -951.0 207.75 M-1166.55 100.95 L-1172.4 100.95 -1172.4 199.95 -1166.55 199.95 -1166.55 100.95 -1166.55 199.95 -1172.4 199.95 -1172.4 100.95 -1166.55 100.95 M-1150.05 100.95 L-1155.9 100.95 -1155.9 199.95 -1150.05 199.95 -1150.05 100.95 -1150.05 199.95 -1155.9 199.95 -1155.9 100.95 -1150.05 100.95 M-1051.05 100.95 L-1056.9 100.95 -1056.9 199.95 -1051.05 199.95 -1051.05 100.95 -1051.05 199.95 -1056.9 199.95 -1056.9 100.95 -1051.05 100.95 M-1034.55 100.95 L-1040.4 100.95 -1040.4 199.95 -1034.55 199.95 -1034.55 100.95 -1034.55 199.95 -1040.4 199.95 -1040.4 100.95 -1034.55 100.95 M-1018.05 100.95 L-1023.9 100.95 -1023.9 199.95 -1018.05 199.95 -1018.05 100.95 -1018.05 199.95 -1023.9 199.95 -1023.9 100.95 -1018.05 100.95 M-1001.55 100.95 L-1007.4 100.95 -1007.4 199.95 -1001.55 199.95 -1001.55 100.95 -1001.55 199.95 -1007.4 199.95 -1007.4 100.95 -1001.55 100.95 M-985.05 100.95 L-990.9 100.95 -990.9 199.95 -985.05 199.95 -985.05 100.95 -985.05 199.95 -990.9 199.95 -990.9 100.95 -985.05 100.95 M-1117.05 100.95 L-1122.9 100.95 -1122.9 199.95 -1117.05 199.95 -1117.05 100.95 -1117.05 199.95 -1122.9 199.95 -1122.9 100.95 -1117.05 100.95 M-1100.55 100.95 L-1106.4 100.95 -1106.4 199.95 -1100.55 199.95 -1100.55 100.95 -1100.55 199.95 -1106.4 199.95 -1106.4 100.95 -1100.55 100.95 M-1084.05 100.95 L-1089.9 100.95 -1089.9 199.95 -1084.05 199.95 -1084.05 100.95 -1084.05 199.95 -1089.9 199.95 -1089.9 100.95 -1084.05 100.95 M-1067.55 100.95 L-1073.4 100.95 -1073.4 199.95 -1067.55 199.95 -1067.55 100.95 -1067.55 199.95 -1073.4 199.95 -1073.4 100.95 -1067.55 100.95 M-1139.4 199.95 L-1133.55 199.95 -1133.55 100.95 -1139.4 100.95 -1139.4 199.95 -1139.4 100.95 -1133.55 100.95 -1133.55 199.95 -1139.4 199.95" fill="#ffffff" fill-opacity="0.0" fill-rule="evenodd" stroke="none"/>
    <path d="M658.35 -29.25 L533.4 -29.25 533.4 -177.3 658.35 -177.3 658.35 -29.25 M667.05 -29.25 L667.05 -177.3 787.95 -177.3 787.95 -29.25 667.05 -29.25 M904.05 -184.95 L1143.3 -184.95 1143.3 -28.05 965.25 -28.05 904.05 -184.95 M45.75 -29.25 L-100.05 -29.25 -100.05 -177.3 45.75 -177.3 45.75 -29.25 M166.95 -29.25 L166.95 -177.3 317.7 -177.3 317.7 -29.25 166.95 -29.25 M328.05 -29.25 L328.05 -177.3 474.0 -177.3 474.0 -29.25 328.05 -29.25 M-520.65 -29.25 L-665.25 -29.25 -665.25 -177.3 -520.65 -177.3 -520.65 -29.25 M-510.6 -177.3 L-370.5 -177.3 -370.5 -29.25 -510.6 -29.25 -510.6 -177.3 M-261.15 -177.3 L-110.55 -177.3 -110.55 -29.25 -261.15 -29.25 -261.15 -177.3 M-1157.4 -105.6 L-1198.2 -105.6 -1200.15 -189.15 -1157.4 -189.15 -1157.4 -105.6 M-1061.7 -178.8 L-918.9 -178.8 -918.9 -30.75 -1061.7 -30.75 -1061.7 -178.8 M-909.0 -178.8 L-770.7 -178.8 -770.7 -30.75 -909.0 -30.75 -909.0 -178.8 M-951.0 207.75 L-1186.05 207.75 -1186.05 91.35 -951.0 91.35 -951.0 207.75" fill="none" stroke="#000000" stroke-linecap="butt" stroke-linejoin="miter-clip" stroke-miterlimit="10.0" stroke-width="1.0"/>
    <path d="M-968.55 199.95 L-974.4 199.95 -974.4 100.95 -968.55 100.95 -968.55 199.95 M-1067.55 100.95 L-1067.55 199.95 -1073.4 199.95 -1073.4 100.95 -1067.55 100.95 M-1084.05 100.95 L-1084.05 199.95 -1089.9 199.95 -1089.9 100.95 -1084.05 100.95 M-1100.55 100.95 L-1100.55 199.95 -1106.4 199.95 -1106.4 100.95 -1100.55 100.95 M-1117.05 100.95 L-1117.05 199.95 -1122.9 199.95 -1122.9 100.95 -1117.05 100.95 M-985.05 100.95 L-985.05 199.95 -990.9 199.95 -990.9 100.95 -985.05 100.95 M-1001.55 100.95 L-1001.55 199.95 -1007.4 199.95 -1007.4 100.95 -1001.55 100.95 M-1018.05 100.95 L-1018.05 199.95 -1023.9 199.95 -1023.9 100.95 -1018.05 100.95 M-1034.55 100.95 L-1034.55 199.95 -1040.4 199.95 -1040.4 100.95 -1034.55 100.95 M-1051.05 100.95 L-1051.05 199.95 -1056.9 199.95 -1056.9 100.95 -1051.05 100.95 M-1150.05 100.95 L-1150.05 199.95 -1155.9 199.95 -1155.9 100.95 -1150.05 100.95 M-1166.55 100.95 L-1166.55 199.95 -1172.4 199.95 -1172.4 100.95 -1166.55 100.95 M-1139.4 199.95 L-1139.4 100.95 -1133.55 100.95 -1133.55 199.95 -1139.4 199.95" fill="none" stroke="#000000" stroke-linecap="butt" stroke-linejoin="miter-clip" stroke-miterlimit="10.0" stroke-opacity="0.6" stroke-width="1.0"/>
    <path d="M940.35 -19.2 L1035.9 258.75 1162.95 258.75 1162.95 -19.2" fill="none" stroke="#000000" stroke-linecap="butt" stroke-linejoin="miter-clip" stroke-miterlimit="10.0" stroke-opacity="0.8" stroke-width="1.0"/>
    <path d="M1220.15 232.2 L1209.9 -237.3 Q1198.95 -255.45 1170.3 -265.65 L1143.9 -272.25 -1104.45 -276.75 Q-1170.6 -275.85 -1199.55 -237.15 -1213.95 -217.65 -1215.15 -198.45 L-1215.15 203.85 -1215.15 205.35 Q-1217.55 217.5 -1202.1 246.9 -1195.55 259.3 -1188.65 269.85 L-1186.05 273.75 -867.7 273.35 -825.15 273.3 Q-827.4 232.2 -826.8 218.25 -825.6 188.4 -815.4 166.95 -790.2 114.3 -729.3 98.4 -702.15 91.2 -675.3 94.65 -647.7 98.25 -626.7 112.2 -580.05 143.4 -570.75 209.7 -565.95 243.3 -571.05 273.15 L-570.6 273.3 612.45 273.3 666.45 273.35 667.35 273.35 670.05 273.3 Q667.95 240.0 670.65 217.95 673.95 190.95 685.35 166.95 710.55 114.3 771.3 98.4 798.45 91.2 825.3 94.65 852.9 98.25 873.9 112.2 921.45 143.85 930.0 211.95 934.2 246.0 928.95 273.75 L1180.65 266.65 1180.65 232.2 1220.15 232.2 1230.6 232.2 1230.6 276.75 1180.65 276.75 1180.65 266.65 M667.35 273.35 L928.95 273.75 M-867.7 273.35 L-867.75 273.45 -570.6 273.3 M-1215.15 203.85 L-1230.6 203.85 -1230.6 269.85 -1188.65 269.85" fill="none" stroke="#000000" stroke-linecap="round" stroke-linejoin="miter-clip" stroke-miterlimit="10.0" stroke-width="1.0"/>
    <path d="M1171.65 -248.7 L-1132.2 -255.75 Q-1130.25 -257.7 -1126.05 -259.95 -1117.65 -264.45 -1106.25 -266.1 L1143.3 -259.05 1171.65 -248.7" fill="#ffffff" fill-rule="evenodd" stroke="none"/>
  </g>
</svg>
