<?xml version="1.0" encoding="UTF-8" standalone="no"?>
<svg xmlns:xlink="http://www.w3.org/1999/xlink" height="76.15px" width="97.35px" xmlns="http://www.w3.org/2000/svg">
  <g transform="matrix(1.0, 0.0, 0.0, 1.0, 48.65, 37.65)">
    <path d="M21.15 -23.7 L21.65 -16.0 19.2 -23.95 Q19.45 -15.55 19.2 -16.5 L16.2 -25.1 16.7 -16.5 12.9 -26.05 12.65 -17.7 10.2 -26.05 9.0 -17.25 6.65 -27.75 5.7 -24.5 Q5.05 -20.95 6.0 -18.05 4.05 -23.15 3.1 -28.25 L1.95 -24.7 Q1.0 -20.55 1.85 -17.7 -0.05 -22.75 -0.7 -28.25 L-1.7 -24.75 Q-2.5 -20.8 -1.45 -17.95 L-3.25 -21.05 Q-5.0 -24.9 -5.25 -28.9 -5.6 -32.95 -5.6 -31.8 L-5.5 -29.85 -6.9 -26.8 Q-7.95 -23.0 -6.25 -19.6 -7.2 -20.45 -8.15 -22.1 -10.1 -25.35 -10.3 -28.9 L-10.85 -25.9 Q-11.4 -22.5 -11.25 -20.55 L-12.65 -23.05 Q-14.0 -26.15 -13.7 -29.15 L-14.75 -25.95 Q-15.8 -22.35 -15.3 -19.6 -16.1 -20.4 -16.9 -22.15 -18.55 -25.55 -18.2 -29.85 L-19.35 -27.35 Q-20.5 -24.5 -20.3 -22.75 -20.8 -23.2 -21.2 -24.5 -22.0 -27.1 -21.55 -30.85 L-22.9 -28.55 Q-24.35 -25.95 -24.35 -24.2 L-25.1 -25.95 Q-25.85 -28.3 -25.35 -31.3 L-26.4 -30.0 Q-27.35 -28.25 -27.05 -25.55 L-28.1 -27.05 Q-29.15 -29.05 -28.65 -31.55 L-29.3 -30.0 Q-29.9 -27.9 -29.4 -25.55 L-30.6 -27.45 Q-31.8 -29.8 -31.35 -32.3 L-31.75 -30.6 Q-32.15 -28.5 -31.8 -26.3 L-32.95 -28.1 Q-34.1 -30.35 -33.95 -32.8 L-34.75 -30.9 Q-35.45 -28.75 -35.15 -27.25 -37.35 -31.3 -36.85 -33.5 L-37.65 -31.55 Q-38.4 -29.45 -38.2 -28.5 L-39.05 -30.9 Q-39.85 -33.5 -39.7 -33.9 -38.95 -36.1 -40.25 -32.95 -41.05 -31.15 -40.9 -29.6 -42.75 -31.1 -42.5 -34.15 L-43.55 -33.35 Q-44.55 -32.15 -44.2 -30.35 L-45.1 -32.15 Q-46.0 -34.0 -45.65 -34.9 L-46.25 -33.6 Q-46.7 -32.05 -46.4 -30.35 L-47.45 -31.9 Q-48.5 -33.75 -48.0 -35.85 -47.8 -37.15 -37.65 -37.15 L-15.2 -35.75 Q17.6 -32.05 21.15 -23.7 M7.4 -0.55 L8.1 3.5 9.0 7.15 11.9 5.7 12.4 -3.4 13.55 4.7 Q16.7 4.0 16.7 3.1 L16.45 -6.95 17.85 1.9 Q19.45 0.2 19.7 -0.55 L19.6 -3.7 Q19.35 -6.7 19.45 -7.2 19.6 -7.75 20.65 -4.35 L21.65 -0.8 Q22.6 4.3 6.8 13.95 -9.4 22.8 -9.65 23.1 -32.8 40.1 -33.2 36.45 -33.5 34.3 -32.25 30.15 L-30.85 26.5 -31.1 34.35 -28.5 33.65 Q-29.25 30.3 -28.65 26.75 L-28.0 23.85 -27.75 29.25 Q-27.7 32.35 -26.8 31.95 -25.0 31.05 -25.25 23.6 L-24.85 31.05 -22.75 29.1 Q-23.05 27.25 -22.35 22.3 L-21.85 19.3 -21.8 23.5 Q-21.6 25.85 -21.55 28.15 L-19.9 28.15 Q-18.3 27.8 -18.45 26.5 -18.6 25.15 -17.95 20.2 L-17.25 15.5 -16.75 25.3 Q-14.15 24.55 -14.15 22.6 L-13.7 12.15 -12.7 21.75 -10.05 19.05 -9.85 9.5 -8.15 17.7 -5.75 16.45 -5.5 7.65 -4.35 14.75 -1.95 13.8 -0.7 4.0 -0.55 12.65 3.1 10.95 3.65 5.75 Q4.3 0.65 4.45 1.15 L5.45 10.0 7.15 8.55 7.4 -0.55 M25.7 -24.2 L43.35 -22.75 48.1 -11.25 Q41.9 -7.65 35.65 -4.35 23.1 2.2 22.75 0.65 22.2 -2.65 24.25 -15.55 L25.7 -24.2" fill="#ffffff" fill-opacity="0.29803923" fill-rule="evenodd" stroke="none"/>
    <path d="M21.15 -23.7 L21.65 -16.0 19.2 -23.95 Q19.45 -15.55 19.2 -16.5 L16.2 -25.1 16.7 -16.5 12.9 -26.05 12.65 -17.7 10.2 -26.05 9.0 -17.25 6.65 -27.75 5.7 -24.5 Q5.05 -20.95 6.0 -18.05 4.05 -23.15 3.1 -28.25 L1.95 -24.7 Q1.0 -20.55 1.85 -17.7 -0.05 -22.75 -0.7 -28.25 L-1.7 -24.75 Q-2.5 -20.8 -1.45 -17.95 L-3.25 -21.05 Q-5.0 -24.9 -5.25 -28.9 -5.6 -32.95 -5.6 -31.8 L-5.5 -29.85 -6.9 -26.8 Q-7.95 -23.0 -6.25 -19.6 -7.2 -20.45 -8.15 -22.1 -10.1 -25.35 -10.3 -28.9 L-10.85 -25.9 Q-11.4 -22.5 -11.25 -20.55 L-12.65 -23.05 Q-14.0 -26.15 -13.7 -29.15 L-14.75 -25.95 Q-15.8 -22.35 -15.3 -19.6 -16.1 -20.4 -16.9 -22.15 -18.55 -25.55 -18.2 -29.85 L-19.35 -27.35 Q-20.5 -24.5 -20.3 -22.75 -20.8 -23.2 -21.2 -24.5 -22.0 -27.1 -21.55 -30.85 L-22.9 -28.55 Q-24.35 -25.95 -24.35 -24.2 L-25.1 -25.95 Q-25.85 -28.3 -25.35 -31.3 L-26.4 -30.0 Q-27.35 -28.25 -27.05 -25.55 L-28.1 -27.05 Q-29.15 -29.05 -28.65 -31.55 L-29.3 -30.0 Q-29.9 -27.9 -29.4 -25.55 L-30.6 -27.45 Q-31.8 -29.8 -31.35 -32.3 L-31.75 -30.6 Q-32.15 -28.5 -31.8 -26.3 L-32.95 -28.1 Q-34.1 -30.35 -33.95 -32.8 L-34.75 -30.9 Q-35.45 -28.75 -35.15 -27.25 -37.35 -31.3 -36.85 -33.5 L-37.65 -31.55 Q-38.4 -29.45 -38.2 -28.5 L-39.05 -30.9 Q-39.85 -33.5 -39.7 -33.9 -38.95 -36.1 -40.25 -32.95 -41.05 -31.15 -40.9 -29.6 -42.75 -31.1 -42.5 -34.15 L-43.55 -33.35 Q-44.55 -32.15 -44.2 -30.35 L-45.1 -32.15 Q-46.0 -34.0 -45.65 -34.9 L-46.25 -33.6 Q-46.7 -32.05 -46.4 -30.35 L-47.45 -31.9 Q-48.5 -33.75 -48.0 -35.85 -47.8 -37.15 -37.65 -37.15 L-15.2 -35.75 Q17.6 -32.05 21.15 -23.7 M25.7 -24.2 L24.25 -15.55 Q22.2 -2.65 22.75 0.65 23.1 2.2 35.65 -4.35 41.9 -7.65 48.1 -11.25 L43.35 -22.75 25.7 -24.2" fill="none" stroke="#000000" stroke-linecap="butt" stroke-linejoin="miter-clip" stroke-miterlimit="4.0" stroke-opacity="0.6" stroke-width="1.0"/>
    <path d="M-25.25 23.6 Q-25.0 31.05 -26.8 31.95 -27.7 32.35 -27.75 29.25 L-28.0 23.85 -28.65 26.75 Q-29.25 30.3 -28.5 33.65 L-31.1 34.35 -30.85 26.5 -32.25 30.15 Q-33.5 34.3 -33.2 36.45 -32.8 40.1 -9.65 23.1 -9.4 22.8 6.8 13.95 22.6 4.3 21.65 -0.8 L20.65 -4.35 Q19.6 -7.75 19.45 -7.2 19.35 -6.7 19.6 -3.7 L19.7 -0.55 Q19.45 0.2 17.85 1.9 L16.45 -6.95 16.7 3.1 Q16.7 4.0 13.55 4.7 L12.4 -3.4 11.9 5.7 9.0 7.15 8.1 3.5 7.4 -0.55 7.15 8.55 5.45 10.0 4.45 1.15 Q4.3 0.65 3.65 5.75 L3.1 10.95 -0.55 12.65 -0.7 4.0 -1.95 13.8 -4.35 14.75 -5.5 7.65 -5.75 16.45 -8.15 17.7 -9.85 9.5 -10.05 19.05 -12.7 21.75 -13.7 12.15 -14.15 22.6 Q-14.15 24.55 -16.75 25.3 L-17.25 15.5 -17.95 20.2 Q-18.6 25.15 -18.45 26.5 -18.3 27.8 -19.9 28.15 L-21.55 28.15 Q-21.6 25.85 -21.8 23.5 L-21.85 19.3 -22.35 22.3 Q-23.05 27.25 -22.75 29.1 L-24.85 31.05 -25.25 23.6" fill="none" stroke="#000000" stroke-linecap="round" stroke-linejoin="miter-clip" stroke-miterlimit="4.0" stroke-opacity="0.6" stroke-width="1.0"/>
    <path d="M-25.25 23.6 L-25.35 21.95 M7.4 -0.55 L7.4 -1.2 M-21.85 19.3 L-21.8 18.35" fill="none" stroke="#000000" stroke-linecap="round" stroke-linejoin="miter-clip" stroke-miterlimit="4.0" stroke-opacity="0.6" stroke-width="1.0"/>
  </g>
</svg>
