<?xml version="1.0" encoding="UTF-8" standalone="no"?>
<svg xmlns:xlink="http://www.w3.org/1999/xlink" height="196.6px" width="68.4px" xmlns="http://www.w3.org/2000/svg">
  <g transform="matrix(1.0, 0.0, 0.0, 1.0, 44.75, 93.65)">
    <path d="M-12.65 12.5 Q-12.95 11.55 -15.85 7.3 -18.05 3.3 -17.0 2.15 -22.15 7.35 -22.3 14.45 -21.2 23.1 -21.05 28.2 L-20.65 41.95 Q-20.35 50.3 -19.55 55.7 -12.95 40.85 -11.85 27.1 -11.0 17.45 -12.65 12.5 M5.6 -61.05 Q7.95 -55.85 8.5 -55.0 L19.25 -42.9 Q25.7 -35.2 22.65 -28.45 L16.9 -31.1 Q13.3 -32.6 11.4 -33.95 4.5 -32.85 4.25 -25.6 L5.75 -13.05 Q6.3 -9.75 5.35 -6.45 3.95 -1.4 3.85 -0.3 3.4 2.45 4.5 6.6 L5.9 13.35 Q6.3 19.8 2.6 29.95 -2.35 43.3 -3.05 46.6 -4.15 52.5 -8.95 62.4 -14.05 72.3 -15.0 77.55 -16.5 87.45 -19.0 94.75 -23.55 108.2 -27.95 99.55 -28.35 98.7 -28.5 92.1 -28.5 85.8 -28.2 84.15 -27.95 81.55 -26.0 76.45 -23.65 70.65 -23.25 68.45 -27.65 68.35 -27.5 64.05 -27.5 61.75 -26.95 56.8 -27.4 53.5 -30.4 49.2 -34.25 43.7 -34.95 42.2 -37.0 37.55 -37.15 33.25 L-36.85 24.35 Q-36.75 20.9 -38.25 16.5 L-40.7 8.95 Q-42.65 1.1 -39.35 -8.0 -34.1 -22.7 -33.85 -24.2 -32.75 -29.45 -35.75 -38.25 -36.6 -40.85 -41.25 -51.7 L-44.3 -58.85 Q-45.4 -62.7 -43.75 -65.85 -42.35 -68.6 -38.5 -70.0 -34.0 -71.35 -32.05 -72.45 L-33.85 -74.25 Q-35.1 -75.75 -36.05 -76.2 -35.75 -76.85 -34.1 -86.65 -33.15 -91.6 -27.25 -93.1 -22.85 -94.2 -16.8 -93.1 -11.0 -92.15 -6.9 -89.65 -2.5 -87.2 -1.65 -84.45 -0.55 -81.15 -4.85 -78.5 L-10.9 -77.7 Q-15.0 -77.15 -14.85 -74.25 -14.75 -72.2 -7.3 -70.0 1.1 -67.5 2.2 -66.55 3.85 -65.2 5.6 -61.05" fill="#ffffff" fill-opacity="0.0" fill-rule="evenodd" stroke="none"/>
  </g>
</svg>
