<?xml version="1.0" encoding="UTF-8" standalone="no"?>
<svg xmlns:xlink="http://www.w3.org/1999/xlink" height="136.95px" width="137.05px" xmlns="http://www.w3.org/2000/svg">
  <g transform="matrix(1.0, 0.0, 0.0, 1.0, 68.35, 73.95)">
    <path d="M-1.4 43.35 L-1.4 43.1 -57.0 39.55 Q-49.1 30.5 -41.15 12.0 -25.35 -24.95 -25.35 -72.0 L25.55 -72.0 Q25.55 -24.95 41.5 12.0 49.45 30.5 57.4 39.55 L1.8 43.1 1.8 43.35 0.2 43.2 -1.4 43.35" fill="#ffffff" fill-opacity="0.0" fill-rule="evenodd" stroke="none"/>
    <path d="M-1.4 43.35 L0.2 43.2 1.8 43.35 1.8 43.1 57.4 39.55 Q49.45 30.5 41.5 12.0 25.55 -24.95 25.55 -72.0 L-25.35 -72.0 Q-25.35 -24.95 -41.15 12.0 -49.1 30.5 -57.0 39.55 L-1.4 43.1 -1.4 43.35 Z" fill="none" stroke="#000000" stroke-linecap="butt" stroke-linejoin="miter-clip" stroke-miterlimit="4.0" stroke-width="1.0"/>
    <path d="M-25.4 -66.35 L-41.75 -72.0 -25.25 -72.0 -25.4 -66.35" fill="#000000" fill-opacity="0.2" fill-rule="evenodd" stroke="none"/>
    <path d="M-25.4 -66.35 L-41.75 -72.0 -25.25 -72.0 -25.4 -66.35 Z" fill="none" stroke="#000000" stroke-linecap="butt" stroke-linejoin="miter-clip" stroke-miterlimit="4.0" stroke-opacity="0.4" stroke-width="1.0"/>
    <path d="M25.85 -66.35 L25.7 -72.0 42.25 -72.0 25.85 -66.35" fill="#000000" fill-opacity="0.2" fill-rule="evenodd" stroke="none"/>
    <path d="M25.85 -66.35 L42.25 -72.0 25.7 -72.0 25.85 -66.35 Z" fill="none" stroke="#000000" stroke-linecap="butt" stroke-linejoin="miter-clip" stroke-miterlimit="4.0" stroke-opacity="0.4" stroke-width="1.0"/>
    <path d="M-15.05 -72.0 Q-14.45 -48.85 -16.7 -23.85 -20.8 20.95 -33.05 41.1 L-57.0 39.55 Q-48.15 29.25 -39.75 8.1 -25.4 -28.0 -25.35 -72.0 L-15.05 -72.0" fill="#000000" fill-opacity="0.2" fill-rule="evenodd" stroke="none"/>
    <path d="M66.8 55.35 L52.0 62.5 -51.3 62.5 -66.4 55.35 66.8 55.35" fill="#ffffff" fill-opacity="0.0" fill-rule="evenodd" stroke="none"/>
    <path d="M66.8 55.35 L-66.4 55.35 -51.3 62.5 52.0 62.5 66.8 55.35 Z" fill="none" stroke="#000000" stroke-linecap="butt" stroke-linejoin="miter-clip" stroke-miterlimit="4.0" stroke-opacity="0.6" stroke-width="1.0"/>
    <path d="M51.55 60.5 L-50.9 60.5 -57.5 57.35 58.05 57.35 51.55 60.5" fill="#000000" fill-opacity="0.2" fill-rule="evenodd" stroke="none"/>
    <path d="M51.55 60.5 L-50.9 60.5 -57.5 57.35 58.05 57.35 51.55 60.5 Z" fill="none" stroke="#000000" stroke-linecap="butt" stroke-linejoin="miter-clip" stroke-miterlimit="4.0" stroke-opacity="0.2" stroke-width="1.0"/>
  </g>
</svg>
