<?xml version="1.0" encoding="UTF-8" standalone="no"?>
<svg xmlns:xlink="http://www.w3.org/1999/xlink" height="125.8px" width="134.2px" xmlns="http://www.w3.org/2000/svg">
  <g transform="matrix(1.0, 0.0, 0.0, 1.0, 66.9, 69.95)">
    <path d="M66.8 36.55 L66.8 55.35 -66.4 55.35 -66.4 36.55 66.8 36.55" fill="#ffffff" fill-opacity="0.0" fill-rule="evenodd" stroke="none"/>
    <path d="M66.8 36.55 L66.8 55.35 M-66.4 55.35 L-66.4 36.55" fill="none" stroke="#000000" stroke-linecap="butt" stroke-linejoin="miter-clip" stroke-miterlimit="4.0" stroke-width="1.0"/>
    <path d="M66.8 55.35 L-66.4 55.35 M-66.4 36.55 L66.8 36.55 Z" fill="none" stroke="#000000" stroke-linecap="butt" stroke-linejoin="miter-clip" stroke-miterlimit="4.0" stroke-opacity="0.6" stroke-width="1.0"/>
    <path d="M53.3 -69.95 L53.3 34.65 52.15 34.65 52.15 -69.95 53.3 -69.95 M63.8 39.95 L-64.15 39.95 -64.15 38.05 63.8 38.05 63.8 39.95 M-60.0 -69.95 L-60.0 34.65 -61.15 34.65 -61.15 -69.95 -60.0 -69.95" fill="#ffffff" fill-opacity="0.8" fill-rule="evenodd" stroke="none"/>
  </g>
</svg>
