<?xml version="1.0" encoding="UTF-8" standalone="no"?>
<svg xmlns:xlink="http://www.w3.org/1999/xlink" height="45.4px" width="25.25px" xmlns="http://www.w3.org/2000/svg">
  <g transform="matrix(1.0, 0.0, 0.0, 1.0, 414.8, 147.25)">
    <path d="M-401.1 -119.75 Q-398.7 -119.35 -396.8 -118.1 -390.5 -114.05 -390.1 -103.2 L-392.0 -104.0 -397.15 -105.3 Q-405.9 -106.55 -413.95 -102.55 -414.75 -105.9 -413.75 -109.8 -411.85 -117.25 -403.6 -119.75 L-402.75 -145.25 -401.55 -119.85 -401.1 -119.75" fill="#ffffff" fill-opacity="0.0" fill-rule="evenodd" stroke="none"/>
    <path d="M-401.1 -119.75 Q-398.7 -119.35 -396.8 -118.1 -390.5 -114.05 -390.1 -103.2 L-392.0 -104.0 -397.15 -105.3 Q-405.9 -106.55 -413.95 -102.55 -414.75 -105.9 -413.75 -109.8 -411.85 -117.25 -403.6 -119.75 L-402.75 -145.25 -401.55 -119.85 -401.1 -119.75 Z" fill="none" stroke="#000000" stroke-linecap="butt" stroke-linejoin="miter-clip" stroke-miterlimit="4.0" stroke-width="1.0"/>
  </g>
</svg>
