<?xml version="1.0" encoding="UTF-8" standalone="no"?>
<svg xmlns:xlink="http://www.w3.org/1999/xlink" height="136.25px" width="52.85px" xmlns="http://www.w3.org/2000/svg">
  <g transform="matrix(1.0, 0.0, 0.0, 1.0, 144.75, 115.3)">
    <path d="M-143.9 -111.9 L-134.25 -114.8 -120.1 -111.9 Q-120.75 -111.9 -120.45 -68.55 L-120.1 -25.3 -117.2 -23.4 -117.2 -5.05 -108.3 -3.25 Q-98.25 -1.0 -92.4 1.4 L-92.4 20.4 -143.6 13.3 -142.0 -109.65 -143.9 -111.9" fill="#ffffff" fill-opacity="0.0" fill-rule="evenodd" stroke="none"/>
    <path d="M-143.9 -111.9 L-134.25 -114.8 -120.1 -111.9 Q-120.75 -111.9 -120.45 -68.55 L-120.1 -25.3 -117.2 -23.4 -117.2 -5.05 -108.3 -3.25 Q-98.25 -1.0 -92.4 1.4 L-92.4 20.4 -143.6 13.3 -142.0 -109.65 -143.9 -111.9 Z" fill="none" stroke="#000000" stroke-linecap="butt" stroke-linejoin="miter-clip" stroke-miterlimit="4.0" stroke-width="1.0"/>
    <path d="M-134.0 14.75 L-143.6 13.3 -142.0 -109.65 -143.9 -111.9 -134.25 -114.8 -134.0 14.75" fill="#000000" fill-opacity="0.2" fill-rule="evenodd" stroke="none"/>
    <path d="M-134.25 -114.8 L-143.9 -111.9 -142.0 -109.65 -143.6 13.3 -134.0 14.75" fill="none" stroke="#000000" stroke-linecap="butt" stroke-linejoin="miter-clip" stroke-miterlimit="4.0" stroke-width="1.0"/>
    <path d="M-134.0 14.75 L-134.25 -114.8 Z" fill="none" stroke="#000000" stroke-linecap="butt" stroke-linejoin="miter-clip" stroke-miterlimit="4.0" stroke-opacity="0.6" stroke-width="1.0"/>
  </g>
</svg>
