<?xml version="1.0" encoding="UTF-8" standalone="no"?>
<svg xmlns:xlink="http://www.w3.org/1999/xlink" height="129.45px" width="72.45px" xmlns="http://www.w3.org/2000/svg">
  <g transform="matrix(1.0, 0.0, 0.0, 1.0, 36.2, 69.8)">
    <path d="M7.15 -64.75 Q7.75 -63.8 6.65 -63.0 8.5 -63.15 8.65 -61.85 8.8 -60.6 7.4 -59.7 9.5 -60.25 9.25 -58.9 9.05 -57.6 7.55 -56.95 9.2 -56.95 8.9 -55.6 8.65 -54.35 7.55 -53.7 L7.4 -53.6 6.0 -54.45 1.35 -57.95 -2.6 -57.95 Q-3.35 -60.25 -3.1 -62.85 -2.8 -65.95 -1.15 -67.85 0.65 -70.0 3.55 -69.8 5.6 -69.65 6.15 -68.5 6.7 -67.3 5.3 -65.8 6.6 -65.65 7.15 -64.75" fill="#ffffff" fill-rule="evenodd" stroke="none"/>
    <path d="M-10.1 -68.05 Q-8.55 -70.0 -7.1 -69.7 -6.0 -69.45 -5.5 -68.25 -5.2 -67.5 -5.0 -65.8 -4.55 -61.3 -4.9 -57.95 L-6.1 -57.95 -5.5 -59.6 -7.8 -56.55 -13.7 -55.15 -14.0 -55.0 Q-16.2 -55.3 -15.3 -58.15 -14.9 -59.45 -14.05 -60.05 -15.0 -60.45 -15.2 -61.6 -15.6 -63.45 -13.35 -63.1 L-13.95 -63.8 Q-14.3 -64.65 -13.7 -65.5 -13.15 -66.3 -12.0 -66.2 L-10.15 -65.8 Q-11.5 -66.2 -10.1 -68.05" fill="#ffffff" fill-rule="evenodd" stroke="none"/>
    <path d="M9.25 -52.5 Q12.6 -50.35 13.05 -49.3 L14.95 -41.8 Q16.55 -34.9 17.05 -33.55 18.0 -31.0 20.8 -12.7 L19.9 -12.5 22.4 -10.6 Q25.2 -8.35 25.5 -7.3 L25.65 -6.65 30.2 -16.75 36.25 -19.75 36.25 59.65 16.35 59.65 15.75 59.6 21.35 53.1 14.35 50.75 1.8 48.0 6.0 22.35 11.6 18.2 15.3 -5.1 21.35 -3.25 22.45 -4.1 21.9 -4.7 Q19.95 -6.95 19.15 -7.3 18.1 -7.75 19.15 -6.05 L20.35 -4.25 18.0 -6.35 Q17.1 -7.1 16.45 -9.65 L16.1 -11.7 14.95 -11.5 Q13.55 -24.65 12.6 -26.75 L7.65 -38.95 7.65 -35.2 Q7.7 -25.25 8.15 -23.5 L10.15 -15.05 Q11.45 -8.3 10.7 -5.9 10.15 -4.0 9.65 3.15 8.8 10.1 6.25 12.9 L-0.55 6.65 Q-1.7 22.05 -2.45 23.0 L-5.65 26.85 -5.5 29.3 -5.35 38.3 -5.0 46.45 -3.85 53.95 -9.25 55.8 -11.5 56.75 Q-14.25 57.7 -16.75 57.7 -19.25 57.7 -19.65 56.55 L-19.55 55.35 -18.25 54.0 Q-19.85 53.45 -21.45 51.15 -23.8 47.8 -24.05 46.2 L-23.8 45.25 -26.1 44.55 -27.3 41.3 -25.85 39.7 Q-24.25 38.05 -23.55 37.75 L-22.35 37.3 -21.35 34.55 Q-20.15 31.55 -19.1 30.25 L-14.7 25.1 -14.45 24.85 -18.15 8.2 -20.2 -0.75 Q-22.05 -10.75 -21.2 -15.75 -20.35 -20.5 -17.5 -29.55 L-19.55 -25.1 -21.3 -20.8 Q-23.1 -15.7 -23.55 -11.75 -23.95 -7.95 -22.65 -1.15 L-21.45 5.4 -24.95 13.6 Q-25.9 9.85 -26.1 5.15 -26.25 2.2 -28.45 -0.7 L-30.6 -3.05 Q-32.0 -4.2 -32.45 -6.7 -33.4 -11.7 -28.7 -18.3 -27.55 -24.2 -28.25 -24.65 -30.45 -26.1 -33.55 -34.1 L-36.2 -41.8 Q-33.55 -46.05 -23.35 -51.0 -18.25 -53.5 -13.7 -55.15 L-7.8 -56.55 -5.5 -59.6 -6.1 -57.95 1.35 -57.95 6.0 -54.45 9.25 -52.5 M-12.05 47.4 Q-11.6 45.75 -11.35 42.45 -11.25 41.1 -12.4 34.95 L-18.15 41.75 -18.05 44.4 Q-17.9 47.2 -17.45 48.1 L-15.75 51.35 -12.05 47.4 M-23.3 -28.45 Q-21.75 -32.2 -20.4 -36.7 L-18.4 -44.35 -28.25 -39.9 Q-27.65 -36.8 -23.3 -28.45" fill="#ffffff" fill-opacity="0.0" fill-rule="evenodd" stroke="none"/>
    <path d="M-11.6 -35.6 L-18.55 -27.2 Q-12.45 -35.75 -8.1 -45.4 L-4.95 -53.4 Q-4.75 -45.55 -11.6 -35.6 M6.35 -2.05 Q4.75 -7.85 1.7 -14.65 -1.35 -21.4 -2.6 -32.8 L-3.1 -41.8 Q-2.8 -38.45 -0.75 -29.75 1.65 -19.6 3.45 -14.3 5.6 -8.0 7.05 0.85 L6.35 -2.05" fill="#ffffff" fill-opacity="0.49803922" fill-rule="evenodd" stroke="none"/>
  </g>
</svg>
