<?xml version="1.0" encoding="UTF-8" standalone="no"?>
<svg xmlns:xlink="http://www.w3.org/1999/xlink" height="24.25px" width="178.15px" xmlns="http://www.w3.org/2000/svg">
  <g transform="matrix(1.0, 0.0, 0.0, 1.0, 89.1, 12.1)">
    <path d="M88.55 -9.4 L6.8 -7.8 -13.2 -7.95 Q-33.75 -7.95 -36.85 -7.35 -40.55 -6.6 -48.75 -3.9 -57.0 -1.2 -64.5 1.8 -70.8 4.25 -79.05 6.75 L-86.05 8.75 Q-86.7 8.85 -86.9 8.0 L-86.9 7.95 -86.45 2.7 -86.45 0.45 -87.8 -1.25 -86.85 -0.25 -86.45 0.45 -86.45 -0.2 -86.45 -2.4 Q-86.55 -2.9 -87.45 -3.8 L-87.8 -3.65 Q-84.9 -5.2 -71.6 -5.9 -60.4 -6.5 -57.0 -6.2 -55.55 -6.1 -54.65 -5.35 L-54.05 -4.65 -35.85 -11.6 88.55 -11.4 88.55 -9.4" fill="#ffffff" fill-opacity="0.0" fill-rule="evenodd" stroke="none"/>
    <path d="M88.55 -9.4 L88.55 -8.4 6.8 -6.4 -13.2 -5.8 -36.85 -4.45 Q-40.55 -3.7 -48.75 -1.0 -57.0 1.75 -64.5 4.7 -70.8 7.2 -79.05 9.7 L-86.05 11.65 Q-87.25 11.85 -86.95 8.3 L-86.9 8.0 -86.95 8.3 Q-87.25 11.85 -86.05 11.65 -86.75 11.8 -86.95 10.6 L-86.95 7.8 -86.9 7.95 -86.9 8.0 Q-86.7 8.85 -86.05 8.75 L-79.05 6.75 Q-70.8 4.25 -64.5 1.8 -57.0 -1.2 -48.75 -3.9 -40.55 -6.6 -36.85 -7.35 -33.75 -7.95 -13.2 -7.95 L6.8 -7.8 88.55 -9.4 M-87.8 -1.25 Q-88.9 -2.35 -88.5 -3.1 L-87.8 -3.65 -87.45 -3.8 Q-86.55 -2.9 -86.45 -2.4 L-86.45 -0.2 -86.45 0.45 -86.85 -0.25 -87.8 -1.25" fill="#000000" fill-opacity="0.2" fill-rule="evenodd" stroke="none"/>
    <path d="M-86.05 11.65 L-79.05 9.7 Q-70.8 7.2 -64.5 4.7 -57.0 1.75 -48.75 -1.0 -40.55 -3.7 -36.85 -4.45 L-13.2 -5.8 6.8 -6.4 88.55 -8.4 88.55 -9.4 88.55 -11.4 -35.85 -11.6 -54.05 -4.65 -54.65 -5.35 Q-55.55 -6.1 -57.0 -6.2 -60.4 -6.5 -71.6 -5.9 -84.9 -5.2 -87.8 -3.65 L-88.5 -3.1 Q-88.9 -2.35 -87.8 -1.25 L-86.45 0.45 -86.45 2.7 -86.9 7.95 -86.9 8.0 -86.95 8.3 Q-87.25 11.85 -86.05 11.65 Z" fill="none" stroke="#000000" stroke-linecap="butt" stroke-linejoin="miter-clip" stroke-miterlimit="4.0" stroke-opacity="0.6" stroke-width="1.0"/>
  </g>
</svg>
