<?xml version="1.0" encoding="UTF-8" standalone="no"?>
<svg xmlns:xlink="http://www.w3.org/1999/xlink" height="98.05px" width="794.55px" xmlns="http://www.w3.org/2000/svg">
  <g transform="matrix(1.0, 0.0, 0.0, 1.0, 396.9, 38.75)">
    <path d="M-379.65 -12.2 L-395.9 -33.75 Q-354.2 -31.95 25.05 -34.85 L136.0 -35.3 Q88.8 -34.25 36.15 -33.5 L268.35 -31.95 Q266.55 -29.3 261.75 -26.4 252.1 -20.45 237.25 -18.5 213.4 -15.6 -46.65 -14.15 L27.55 -12.2 -379.65 -12.2 27.55 -12.2 235.75 -6.75 Q231.7 -2.25 226.05 2.25 214.95 11.2 207.55 11.2 L-76.35 9.6 -19.35 11.5 197.05 18.6 Q189.6 29.05 170.65 43.8 153.95 56.8 142.9 57.25 L140.05 57.15 Q34.0 57.65 -75.3 57.55 -293.85 57.35 -311.0 54.55 -315.95 53.75 -336.0 35.45 -353.05 19.9 -360.45 11.5 L-375.0 -6.05 -379.65 -12.2 M395.65 -38.25 L395.95 -38.25 Q388.9 -30.0 380.05 -21.8 366.7 -9.45 349.2 2.7 L348.3 2.95 Q365.55 -9.2 378.9 -21.5 391.35 -33.3 395.65 -38.25 M380.05 -21.8 L378.9 -21.5 380.05 -21.8 M-19.35 11.5 L-360.45 11.5 -19.35 11.5" fill="#ffffff" fill-opacity="0.0" fill-rule="evenodd" stroke="none"/>
    <path d="M27.55 -12.2 L-46.65 -14.15 Q213.4 -15.6 237.25 -18.5 252.1 -20.45 261.75 -26.4 266.55 -29.3 268.35 -31.95 L36.15 -33.5 Q88.8 -34.25 136.0 -35.3 L368.95 -37.95 395.65 -38.25 Q391.35 -33.3 378.9 -21.5 363.4 -16.35 322.15 -13.7 L282.45 -12.2 27.55 -12.2 282.45 -12.2 322.15 -13.7 Q363.4 -16.35 378.9 -21.5 365.55 -9.2 348.3 2.95 L349.2 2.7 Q328.35 17.1 306.5 27.4 280.75 39.55 247.65 49.1 220.9 56.8 189.5 57.95 176.7 58.45 142.9 57.25 153.95 56.8 170.65 43.8 189.6 29.05 197.05 18.6 L-19.35 11.5 -76.35 9.6 207.55 11.2 Q214.95 11.2 226.05 2.25 231.7 -2.25 235.75 -6.75 L27.55 -12.2 M348.3 2.95 Q333.1 8.2 293.35 10.35 L255.55 11.5 -19.35 11.5 255.55 11.5 293.35 10.35 Q333.1 8.2 348.3 2.95" fill="#000000" fill-opacity="0.2" fill-rule="evenodd" stroke="none"/>
    <path d="M136.0 -35.3 L25.05 -34.85 Q-354.2 -31.95 -395.9 -33.75 L-379.65 -12.2 -375.0 -6.05 -360.45 11.5 Q-353.05 19.9 -336.0 35.45 -315.95 53.75 -311.0 54.55 -293.85 57.35 -75.3 57.55 34.0 57.65 140.05 57.15 L142.9 57.25 Q176.7 58.45 189.5 57.95 220.9 56.8 247.65 49.1 280.75 39.55 306.5 27.4 328.35 17.1 349.2 2.7 366.7 -9.45 380.05 -21.8 388.9 -30.0 395.95 -38.25 L395.65 -38.25 368.95 -37.95 136.0 -35.3" fill="none" stroke="#000000" stroke-linecap="butt" stroke-linejoin="miter-clip" stroke-miterlimit="4.0" stroke-width="1.0"/>
    <path d="M-379.65 -12.2 L27.55 -12.2 282.45 -12.2 322.15 -13.7 Q363.4 -16.35 378.9 -21.5 L380.05 -21.8 M-360.45 11.5 L-361.05 11.5 M-19.35 11.5 L255.55 11.5 293.35 10.35 Q333.1 8.2 348.3 2.95 L349.2 2.7 M-380.4 -12.2 L-379.65 -12.2 M-360.45 11.5 L-19.35 11.5" fill="none" stroke="#000000" stroke-linecap="butt" stroke-linejoin="miter-clip" stroke-miterlimit="4.0" stroke-opacity="0.4" stroke-width="1.0"/>
  </g>
</svg>
