<?xml version="1.0" encoding="UTF-8" standalone="no"?>
<svg xmlns:xlink="http://www.w3.org/1999/xlink" height="1382.2px" width="926.55px" xmlns="http://www.w3.org/2000/svg">
  <g transform="matrix(1.0, 0.0, 0.0, 1.0, 455.6, 676.5)">
    <path d="M190.6 -275.05 Q219.3 -268.5 230.85 -260.7 249.6 -248.2 243.95 -224.15 233.35 -223.55 211.5 -233.2 188.1 -244.45 180.0 -247.55 174.4 -249.45 146.95 -267.55 124.8 -282.2 112.6 -280.95 114.15 -259.45 95.15 -264.75 76.1 -270.05 74.55 -287.5 L57.05 -282.5 Q46.15 -279.1 40.25 -280.35 36.15 -280.95 29.95 -291.25 24.65 -300.3 14.0 -298.45 7.45 -297.5 2.15 -287.2 -3.75 -276.6 -9.7 -274.4 -12.5 -273.45 -25.6 -275.95 -39.65 -278.75 -43.1 -278.45 -47.15 -298.75 -70.2 -293.75 -97.35 -284.1 -107.35 -285.35 -106.75 -289.05 -108.3 -298.45 -109.5 -307.2 -108.65 -310.9 -112.35 -296.85 -146.35 -295.6 -180.05 -294.35 -188.45 -305.3 -171.95 -327.45 -142.6 -332.45 L-88.3 -334.6 Q-73.05 -334.95 -51.5 -350.2 -29.05 -366.15 -16.25 -367.05 -12.5 -352.1 -1.6 -353.95 4.95 -355.2 20.55 -360.5 46.15 -363.65 51.75 -363.3 63.0 -362.7 81.7 -354.3 98.25 -346.8 150.05 -327.15 193.4 -305.6 190.6 -275.05 M67.7 -532.45 L54.25 -533.05 Q45.55 -533.05 41.45 -534.9 43.65 -529.0 74.85 -496.55 98.25 -472.5 87.65 -454.75 81.7 -458.15 67.35 -461.9 53.0 -465.35 47.7 -468.45 44.6 -470.65 32.1 -481.9 18.4 -494.35 20.9 -494.35 -0.35 -495.3 -0.35 -461.6 -0.35 -443.2 -1.9 -436.95 -5.0 -425.4 -15.95 -424.15 -21.25 -434.15 -28.4 -429.15 -32.45 -426.35 -42.15 -411.7 -64.0 -379.25 -80.2 -383.6 -76.15 -404.5 -94.25 -405.75 -117.35 -407.3 -121.1 -416.7 -127.95 -434.45 -104.55 -442.9 -91.75 -447.55 -67.75 -451.3 -73.95 -471.3 -75.55 -480.0 -78.35 -495.3 -70.2 -508.1 -63.65 -518.4 -44.65 -529.3 -24.05 -541.15 -17.5 -549.6 -7.5 -562.05 -1.6 -582.05 4.35 -600.75 3.7 -617.6 L-4.7 -648.2 Q-10.3 -669.1 -0.35 -673.75 28.7 -687.2 49.9 -619.5 64.25 -574.25 67.7 -532.45 M112.3 -169.55 Q124.15 -164.9 154.4 -161.15 177.5 -158.35 194.35 -145.85 202.15 -139.95 210.9 -132.45 218.4 -126.5 230.85 -122.15 268.6 -109.35 278.3 -103.1 300.75 -88.15 300.45 -59.15 300.1 -37.6 287.65 -26.35 273.6 -13.55 255.5 -27.3 252.7 -29.5 249.25 -38.2 246.15 -46.65 241.8 -48.5 238.05 -50.4 230.55 -49.45 223.35 -48.2 223.05 -48.5 L219.65 -49.45 Q209.0 -49.45 204.95 -51.65 198.4 -54.75 199.65 -70.65 188.75 -72.85 177.5 -61.6 166.25 -50.1 160.35 -50.7 151.6 -51.35 146.6 -62.25 140.4 -75.65 136.3 -78.15 130.7 -81.6 107.95 -84.1 85.8 -86.25 78.9 -84.4 81.1 -50.1 69.85 -49.15 58.95 -48.5 48.05 -78.15 46.8 -81.3 48.05 -90.0 49.25 -98.45 47.4 -101.85 44.9 -106.25 37.1 -106.85 29.3 -107.5 28.35 -109.35 20.9 -119.35 18.7 -123.7 14.95 -131.2 17.75 -141.8 L54.25 -143.05 Q36.5 -164.6 29.95 -176.75 18.4 -198.9 52.4 -206.4 69.25 -210.15 84.85 -193.9 104.8 -172.4 112.3 -169.55 M13.4 -36.65 Q22.75 -32.0 23.4 -16.4 24.0 2.95 26.5 6.7 33.05 17.3 41.45 20.75 46.8 22.95 61.45 27.0 64.85 28.25 73.0 27.3 80.8 26.05 84.55 27.6 87.95 29.15 90.45 36.05 92.95 43.2 95.15 44.15 107.95 49.45 148.8 58.2 183.45 69.4 185.6 90.65 175.65 92.2 145.7 84.1 118.85 76.9 108.85 80.95 102.65 83.45 96.7 101.25 91.4 117.45 78.3 118.7 66.75 119.65 44.6 95.0 21.8 69.4 4.35 68.15 2.45 85.95 -4.4 95.3 -13.75 107.5 -27.45 95.35 -24.75 97.85 -39.65 104.35 -54.3 110.6 -58.7 110.3 -66.8 110.0 -80.85 98.1 -94.85 85.95 -103.3 85.0 -115.15 83.45 -127.95 90.95 -145.75 101.25 -150.4 102.8 -155.1 104.35 -165.7 102.8 -174.75 101.85 -181.6 105.6 -187.2 108.75 -195.35 119.95 -203.45 131.2 -210.3 134.65 -216.25 137.75 -228.7 138.05 -241.8 138.7 -244.3 139.6 -253.35 143.35 -270.85 169.25 -286.1 192.35 -300.5 192.35 L-293.9 176.1 Q-289.55 164.9 -290.8 158.95 -292.05 153.35 -302.35 146.8 -312.0 141.2 -311.4 135.55 -310.15 120.6 -278.65 108.75 -261.8 102.5 -234.65 95.65 -240.9 87.2 -243.7 84.7 -234.95 75.05 -214.05 68.15 L-180.05 57.55 Q-176.9 56.3 -142.3 35.1 -119.2 21.35 -101.75 24.2 -98.3 40.7 -89.25 35.1 -83.95 31.65 -71.45 20.1 -69.3 18.85 -64.3 11.05 -59.0 2.95 -57.1 1.1 L-48.7 -0.8 Q-39.95 -2.65 -36.85 -5.15 -30.6 -9.85 -15.3 -28.25 0.3 -43.2 13.4 -36.65 M413.05 375.5 Q487.3 402.95 465.5 433.85 457.7 445.05 451.45 439.75 443.0 432.9 441.75 433.2 422.1 438.5 418.7 442.55 416.2 445.4 407.15 470.35 395.6 469.1 385.0 449.45 374.7 430.7 360.0 430.7 365.95 457.85 343.5 450.35 316.35 436.0 308.85 432.9 284.15 422.45 276.1 430.1 L275.5 430.7 Q274.1 432.25 273.3 434.45 L273.0 435.3 272.85 435.7 272.55 436.45 Q270.75 441.45 268.0 451.6 263.6 463.45 254.55 471.25 252.05 468.45 245.85 445.05 L243.0 435.7 Q238.9 424.4 234.3 423.2 226.8 421.35 216.5 435.1 206.5 448.5 194.35 443.2 190.0 441.3 182.5 421.35 L174.15 398.1 173.15 395.45 Q157.55 370.5 155.35 361.45 151.6 346.45 179.7 349.9 181.55 350.2 220.25 368.6 257.7 386.7 257.4 385.45 257.05 384.2 255.8 373.0 254.9 365.2 251.45 360.2 256.15 362.7 269.55 371.75 282.05 379.85 288.25 379.55 300.1 378.9 302.95 371.1 303.7 369.1 304.55 367.4 307.7 361.3 312.6 359.6 324.45 355.85 354.1 360.2 384.35 365.2 413.05 375.5 M118.85 229.15 Q138.5 260.05 143.5 264.1 155.35 274.1 172.85 284.05 184.8 293.3 186.2 313.7 L186.25 314.35 Q171.25 315.3 161.1 313.7 154.55 312.7 150.05 310.6 147.25 309.35 122.3 291.25 103.55 277.5 95.15 277.85 82.65 277.85 81.1 304.35 78.9 302.8 69.85 301.25 60.5 299.65 58.65 298.4 59.25 319.95 54.25 339.3 48.05 363.3 34.9 372.35 25.85 357.4 23.7 331.8 20.55 300.6 17.75 291.55 -1.6 301.85 -23.4 302.15 -50.55 302.5 -30.6 274.7 -34.65 278.75 -41.85 280.65 L-53.35 283.75 Q-53.7 276.6 -57.1 270.65 L-64.0 261.0 Q-84.25 286.9 -90.2 293.45 -105.8 310.6 -121.4 318.4 -125.75 320.6 -137.95 322.75 -150.4 325.25 -155.7 327.75 -159.45 329.3 -166.65 337.1 -172.85 344.3 -179.1 345.55 -200.95 349.9 -202.5 337.4 -203.75 328.05 -193.45 308.1 -188.8 298.75 -176.3 287.2 -169.75 277.5 -186.3 264.1 -171.95 243.5 -150.7 230.7 -128.25 217.0 -104.25 216.05 -96.45 215.75 -81.15 215.75 -67.1 215.45 -56.5 213.55 -55.85 213.55 -40.6 208.25 -30.6 205.15 -24.35 208.55 -15.95 213.55 -15.95 229.15 -15.95 246.3 -12.5 250.05 -4.7 258.8 -4.4 259.4 -2.2 263.5 -2.5 273.8 14.35 272.85 17.45 241.0 20.55 208.55 34.3 206.4 42.4 205.15 49.9 214.2 58.0 224.15 61.45 224.5 68.0 225.1 73.6 217.6 79.85 210.15 84.85 209.8 106.05 209.2 118.85 229.15 M-269.6 321.8 Q-266.45 320.9 -252.75 311.55 -242.45 304.65 -230.6 305.3 -231.5 323.05 -257.1 342.75 -288.6 367.05 -293.9 375.2 -273.0 378.6 -243.05 375.8 -212.8 373.3 -193.15 366.15 -195.0 367.05 -204.05 379.25 -213.75 392.0 -219.65 394.85 -225.3 397.35 -241.8 398.6 -261.15 400.15 -265.2 401.05 -291.45 405.15 -311.1 408.85 -349.15 416.35 -351.35 423.85 L-354.75 450.05 Q-356.65 465.35 -365.7 471.25 -376.0 458.5 -371.9 438.2 -377.85 439.75 -390.35 434.15 -401.55 428.85 -405.3 430.7 -413.1 435.1 -413.4 451.6 -414.05 469.4 -419.65 474.1 -434.0 486.85 -438.05 475.65 -440.55 458.5 -443.35 451.3 L-451.5 429.45 Q-456.5 413.85 -454.6 408.85 -450.85 400.45 -431.85 392.0 -408.45 382.05 -404.7 378.9 -402.2 376.75 -399.7 368.95 -397.5 361.15 -393.75 358.65 -386.6 353.65 -371.6 350.55 L-348.2 345.55 Q-342.3 343.65 -328.85 335.25 -316.1 326.8 -311.4 325.55 -305.15 324.3 -290.8 324.3 -278.0 324.65 -269.6 321.8 M-112.05 -212.95 Q-112.35 -209.5 -110.15 -202.0 -108.6 -196.4 -111.1 -190.5 -98.95 -189.85 -51.8 -191.4 -12.5 -188.0 -20.3 -159.9 -41.2 -157.7 -57.45 -161.45 -54.6 -150.85 -31.55 -123.1 -13.15 -101.25 -16.85 -78.45 -32.15 -78.45 -50.55 -104.05 -68.35 -129.35 -84.25 -128.1 -88.95 -127.75 -96.45 -119.35 -104.55 -110.3 -107.95 -108.75 -120.15 -103.1 -148.55 -104.7 -177.55 -109.05 -189.4 -109.65 -208.1 -110.6 -226.55 -97.5 -246.8 -82.55 -254.3 -79.1 -269.3 -72.25 -287.05 -75.05 -281.75 -103.1 -246.5 -122.75 -224.05 -134.95 -183.8 -145.85 -200.95 -156.8 -186.6 -170.5 -178.8 -178.3 -158.85 -190.15 -151.05 -195.8 -139.8 -207.95 -128.9 -216.7 -112.05 -212.95 M26.5 586.4 Q15.9 576.75 8.1 557.4 1.55 568.3 -26.55 564.85 -54.6 561.45 -61.15 572.05 -75.55 594.5 -88.3 620.1 -98.0 638.5 -106.4 649.1 -110.45 593.25 -127.65 582.95 -136.35 597.3 -137.0 639.45 -137.3 678.75 -151.95 694.95 -159.75 685.6 -161.95 665.95 -164.75 638.5 -166.3 633.8 -170.05 651.0 -180.05 651.6 -190.35 652.55 -195.35 634.45 -206.55 644.45 -212.2 669.7 -218.1 696.2 -226.55 704.95 -237.15 690.0 -238.1 651.9 -239.3 611.05 -246.5 596.7 -256.5 599.2 -261.5 617.6 -266.8 636.3 -276.75 639.75 -275.5 612.6 -281.45 596.7 L-290.5 598.55 -299.55 600.75 Q-307.05 568.95 -289.55 548.95 -278.95 537.1 -249.0 516.2 -242.75 511.2 -224.95 480.65 -211.25 456.9 -193.45 454.4 -191.9 457.55 -190.05 472.2 -188.15 485.6 -185.95 487.8 -176.3 498.4 -175.05 495.0 -171.3 484.4 -165.7 480.65 -160.7 477.5 -155.1 469.1 -151.05 462.85 -142.6 461.3 -139.15 460.65 -128.55 466.9 -117.95 473.15 -111.4 471.9 -87.05 466.9 -73.35 452.55 -64.6 448.5 -36.55 478.15 -20.95 494.65 23.05 518.05 64.55 539.9 79.25 558.65 97.0 581.1 102.95 589.5 118.55 612.3 119.15 623.2 121.05 651.6 107.95 637.9 99.8 629.45 89.2 609.8 88.25 621.35 82.65 631.95 77.65 641.6 71.1 646.6 68.95 642.25 63.65 624.8 60.2 612.9 52.1 606.35 33.35 592.65 26.5 586.4" fill="#ffffff" fill-opacity="0.0" fill-rule="evenodd" stroke="none"/>
    <path d="M67.7 -532.45 Q64.25 -574.25 49.9 -619.5 28.7 -687.2 -0.35 -673.75 -10.3 -669.1 -4.7 -648.2 L3.7 -617.6 Q4.35 -600.75 -1.6 -582.05 -7.5 -562.05 -17.5 -549.6 -24.05 -541.15 -44.65 -529.3 -63.65 -518.4 -70.2 -508.1 -78.35 -495.3 -75.55 -480.0 -73.95 -471.3 -67.75 -451.3 -91.75 -447.55 -104.55 -442.9 -127.95 -434.45 -121.1 -416.7 -117.35 -407.3 -94.25 -405.75 -76.15 -404.5 -80.2 -383.6 -64.0 -379.25 -42.15 -411.7 -32.45 -426.35 -28.4 -429.15 -21.25 -434.15 -15.95 -424.15 -5.0 -425.4 -1.9 -436.95 -0.35 -443.2 -0.35 -461.6 -0.35 -495.3 20.9 -494.35 18.4 -494.35 32.1 -481.9 44.6 -470.65 47.7 -468.45 53.0 -465.35 67.35 -461.9 81.7 -458.15 87.65 -454.75 98.25 -472.5 74.85 -496.55 43.65 -529.0 41.45 -534.9 45.55 -533.05 54.25 -533.05 L67.7 -532.45 M190.6 -275.05 Q193.4 -305.6 150.05 -327.15 98.25 -346.8 81.7 -354.3 63.0 -362.7 51.75 -363.3 46.15 -363.65 20.55 -360.5 4.95 -355.2 -1.6 -353.95 -12.5 -352.1 -16.25 -367.05 -29.05 -366.15 -51.5 -350.2 -73.05 -334.95 -88.3 -334.6 L-142.6 -332.45 Q-171.95 -327.45 -188.45 -305.3 -180.05 -294.35 -146.35 -295.6 -112.35 -296.85 -108.65 -310.9 -109.5 -307.2 -108.3 -298.45 -106.75 -289.05 -107.35 -285.35 -97.35 -284.1 -70.2 -293.75 -47.15 -298.75 -43.1 -278.45 -39.65 -278.75 -25.6 -275.95 -12.5 -273.45 -9.7 -274.4 -3.75 -276.6 2.15 -287.2 7.45 -297.5 14.0 -298.45 24.65 -300.3 29.95 -291.25 36.15 -280.95 40.25 -280.35 46.15 -279.1 57.05 -282.5 L74.55 -287.5 Q76.1 -270.05 95.15 -264.75 114.15 -259.45 112.6 -280.95 124.8 -282.2 146.95 -267.55 174.4 -249.45 180.0 -247.55 188.1 -244.45 211.5 -233.2 233.35 -223.55 243.95 -224.15 249.6 -248.2 230.85 -260.7 219.3 -268.5 190.6 -275.05 M112.3 -169.55 Q124.15 -164.9 154.4 -161.15 177.5 -158.35 194.35 -145.85 202.15 -139.95 210.9 -132.45 218.4 -126.5 230.85 -122.15 268.6 -109.35 278.3 -103.1 300.75 -88.15 300.45 -59.15 300.1 -37.6 287.65 -26.35 273.6 -13.55 255.5 -27.3 252.7 -29.5 249.25 -38.2 246.15 -46.65 241.8 -48.5 238.05 -50.4 230.55 -49.45 223.35 -48.2 223.05 -48.5 L219.65 -49.45 Q209.0 -49.45 204.95 -51.65 198.4 -54.75 199.65 -70.65 188.75 -72.85 177.5 -61.6 166.25 -50.1 160.35 -50.7 151.6 -51.35 146.6 -62.25 140.4 -75.65 136.3 -78.15 130.7 -81.6 107.95 -84.1 85.8 -86.25 78.9 -84.4 81.1 -50.1 69.85 -49.15 58.95 -48.5 48.05 -78.15 46.8 -81.3 48.05 -90.0 49.25 -98.45 47.4 -101.85 44.9 -106.25 37.1 -106.85 29.3 -107.5 28.35 -109.35 20.9 -119.35 18.7 -123.7 14.95 -131.2 17.75 -141.8 L54.25 -143.05 Q36.5 -164.6 29.95 -176.75 18.4 -198.9 52.4 -206.4 69.25 -210.15 84.85 -193.9 104.8 -172.4 112.3 -169.55 M13.4 -36.65 Q0.3 -43.2 -15.3 -28.25 -30.6 -9.85 -36.85 -5.15 -39.95 -2.65 -48.7 -0.8 L-57.1 1.1 Q-59.0 2.95 -64.3 11.05 -69.3 18.85 -71.45 20.1 -83.95 31.65 -89.25 35.1 -98.3 40.7 -101.75 24.2 -119.2 21.35 -142.3 35.1 -176.9 56.3 -180.05 57.55 L-214.05 68.15 Q-234.95 75.05 -243.7 84.7 -240.9 87.2 -234.65 95.65 -261.8 102.5 -278.65 108.75 -310.15 120.6 -311.4 135.55 -312.0 141.2 -302.35 146.8 -292.05 153.35 -290.8 158.95 -289.55 164.9 -293.9 176.1 L-300.5 192.35 Q-286.1 192.35 -270.85 169.25 -253.35 143.35 -244.3 139.6 -241.8 138.7 -228.7 138.05 -216.25 137.75 -210.3 134.65 -203.45 131.2 -195.35 119.95 -187.2 108.75 -181.6 105.6 -174.75 101.85 -165.7 102.8 -155.1 104.35 -150.4 102.8 -145.75 101.25 -127.95 90.95 -115.15 83.45 -103.3 85.0 -94.85 85.95 -80.85 98.1 -66.8 110.0 -58.7 110.3 -54.3 110.6 -39.65 104.35 -24.75 97.85 -27.45 95.35 -13.75 107.5 -4.4 95.3 2.45 85.95 4.35 68.15 21.8 69.4 44.6 95.0 66.75 119.65 78.3 118.7 91.4 117.45 96.7 101.25 102.65 83.45 108.85 80.95 118.85 76.9 145.7 84.1 175.65 92.2 185.6 90.65 183.45 69.4 148.8 58.2 107.95 49.45 95.15 44.15 92.95 43.2 90.45 36.05 87.95 29.15 84.55 27.6 80.8 26.05 73.0 27.3 64.85 28.25 61.45 27.0 46.8 22.95 41.45 20.75 33.05 17.3 26.5 6.7 24.0 2.95 23.4 -16.4 22.75 -32.0 13.4 -36.65 M413.05 375.5 Q487.3 402.95 465.5 433.85 457.7 445.05 451.45 439.75 443.0 432.9 441.75 433.2 422.1 438.5 418.7 442.55 416.2 445.4 407.15 470.35 395.6 469.1 385.0 449.45 374.7 430.7 360.0 430.7 365.95 457.85 343.5 450.35 316.35 436.0 308.85 432.9 284.15 422.45 276.1 430.1 L275.5 430.7 Q274.1 432.25 273.3 434.45 L273.0 435.3 272.85 435.7 272.55 436.45 Q270.75 441.45 268.0 451.6 263.6 463.45 254.55 471.25 252.05 468.45 245.85 445.05 L243.0 435.7 Q238.9 424.4 234.3 423.2 226.8 421.35 216.5 435.1 206.5 448.5 194.35 443.2 190.0 441.3 182.5 421.35 L174.15 398.1 173.15 395.45 Q157.55 370.5 155.35 361.45 151.6 346.45 179.7 349.9 181.55 350.2 220.25 368.6 257.7 386.7 257.4 385.45 257.05 384.2 255.8 373.0 254.9 365.2 251.45 360.2 256.15 362.7 269.55 371.75 282.05 379.85 288.25 379.55 300.1 378.9 302.95 371.1 303.7 369.1 304.55 367.4 307.7 361.3 312.6 359.6 324.45 355.85 354.1 360.2 384.35 365.2 413.05 375.5 M118.85 229.15 Q138.5 260.05 143.5 264.1 155.35 274.1 172.85 284.05 184.8 293.3 186.2 313.7 L186.25 314.35 Q171.25 315.3 161.1 313.7 154.55 312.7 150.05 310.6 147.25 309.35 122.3 291.25 103.55 277.5 95.15 277.85 82.65 277.85 81.1 304.35 78.9 302.8 69.85 301.25 60.5 299.65 58.65 298.4 59.25 319.95 54.25 339.3 48.05 363.3 34.9 372.35 25.85 357.4 23.7 331.8 20.55 300.6 17.75 291.55 -1.6 301.85 -23.4 302.15 -50.55 302.5 -30.6 274.7 -34.65 278.75 -41.85 280.65 L-53.35 283.75 Q-53.7 276.6 -57.1 270.65 L-64.0 261.0 Q-84.25 286.9 -90.2 293.45 -105.8 310.6 -121.4 318.4 -125.75 320.6 -137.95 322.75 -150.4 325.25 -155.7 327.75 -159.45 329.3 -166.65 337.1 -172.85 344.3 -179.1 345.55 -200.95 349.9 -202.5 337.4 -203.75 328.05 -193.45 308.1 -188.8 298.75 -176.3 287.2 -169.75 277.5 -186.3 264.1 -171.95 243.5 -150.7 230.7 -128.25 217.0 -104.25 216.05 -96.45 215.75 -81.15 215.75 -67.1 215.45 -56.5 213.55 -55.85 213.55 -40.6 208.25 -30.6 205.15 -24.35 208.55 -15.95 213.55 -15.95 229.15 -15.95 246.3 -12.5 250.05 -4.7 258.8 -4.4 259.4 -2.2 263.5 -2.5 273.8 14.35 272.85 17.45 241.0 20.55 208.55 34.3 206.4 42.4 205.15 49.9 214.2 58.0 224.15 61.45 224.5 68.0 225.1 73.6 217.6 79.85 210.15 84.85 209.8 106.05 209.2 118.85 229.15 M26.5 586.4 Q33.35 592.65 52.1 606.35 60.2 612.9 63.65 624.8 68.95 642.25 71.1 646.6 77.65 641.6 82.65 631.95 88.25 621.35 89.2 609.8 99.8 629.45 107.95 637.9 121.05 651.6 119.15 623.2 118.55 612.3 102.95 589.5 97.0 581.1 79.25 558.65 64.55 539.9 23.05 518.05 -20.95 494.65 -36.55 478.15 -64.6 448.5 -73.35 452.55 -87.05 466.9 -111.4 471.9 -117.95 473.15 -128.55 466.9 -139.15 460.65 -142.6 461.3 -151.05 462.85 -155.1 469.1 -160.7 477.5 -165.7 480.65 -171.3 484.4 -175.05 495.0 -176.3 498.4 -185.95 487.8 -188.15 485.6 -190.05 472.2 -191.9 457.55 -193.45 454.4 -211.25 456.9 -224.95 480.65 -242.75 511.2 -249.0 516.2 -278.95 537.1 -289.55 548.95 -307.05 568.95 -299.55 600.75 L-290.5 598.55 -281.45 596.7 Q-275.5 612.6 -276.75 639.75 -266.8 636.3 -261.5 617.6 -256.5 599.2 -246.5 596.7 -239.3 611.05 -238.1 651.9 -237.15 690.0 -226.55 704.95 -218.1 696.2 -212.2 669.7 -206.55 644.45 -195.35 634.45 -190.35 652.55 -180.05 651.6 -170.05 651.0 -166.3 633.8 -164.75 638.5 -161.95 665.95 -159.75 685.6 -151.95 694.95 -137.3 678.75 -137.0 639.45 -136.35 597.3 -127.65 582.95 -110.45 593.25 -106.4 649.1 -98.0 638.5 -88.3 620.1 -75.55 594.5 -61.15 572.05 -54.6 561.45 -26.55 564.85 1.55 568.3 8.1 557.4 15.9 576.75 26.5 586.4 M-112.05 -212.95 Q-128.9 -216.7 -139.8 -207.95 -151.05 -195.8 -158.85 -190.15 -178.8 -178.3 -186.6 -170.5 -200.95 -156.8 -183.8 -145.85 -224.05 -134.95 -246.5 -122.75 -281.75 -103.1 -287.05 -75.05 -269.3 -72.25 -254.3 -79.1 -246.8 -82.55 -226.55 -97.5 -208.1 -110.6 -189.4 -109.65 -177.55 -109.05 -148.55 -104.7 -120.15 -103.1 -107.95 -108.75 -104.55 -110.3 -96.45 -119.35 -88.95 -127.75 -84.25 -128.1 -68.35 -129.35 -50.55 -104.05 -32.15 -78.45 -16.85 -78.45 -13.15 -101.25 -31.55 -123.1 -54.6 -150.85 -57.45 -161.45 -41.2 -157.7 -20.3 -159.9 -12.5 -188.0 -51.8 -191.4 -98.95 -189.85 -111.1 -190.5 -108.6 -196.4 -110.15 -202.0 -112.35 -209.5 -112.05 -212.95 M-269.6 321.8 Q-278.0 324.65 -290.8 324.3 -305.15 324.3 -311.4 325.55 -316.1 326.8 -328.85 335.25 -342.3 343.65 -348.2 345.55 L-371.6 350.55 Q-386.6 353.65 -393.75 358.65 -397.5 361.15 -399.7 368.95 -402.2 376.75 -404.7 378.9 -408.45 382.05 -431.85 392.0 -450.85 400.45 -454.6 408.85 -456.5 413.85 -451.5 429.45 L-443.35 451.3 Q-440.55 458.5 -438.05 475.65 -434.0 486.85 -419.65 474.1 -414.05 469.4 -413.4 451.6 -413.1 435.1 -405.3 430.7 -401.55 428.85 -390.35 434.15 -377.85 439.75 -371.9 438.2 -376.0 458.5 -365.7 471.25 -356.65 465.35 -354.75 450.05 L-351.35 423.85 Q-349.15 416.35 -311.1 408.85 -291.45 405.15 -265.2 401.05 -261.15 400.15 -241.8 398.6 -225.3 397.35 -219.65 394.85 -213.75 392.0 -204.05 379.25 -195.0 367.05 -193.15 366.15 -212.8 373.3 -243.05 375.8 -273.0 378.6 -293.9 375.2 -288.6 367.05 -257.1 342.75 -231.5 323.05 -230.6 305.3 -242.45 304.65 -252.75 311.55 -266.45 320.9 -269.6 321.8" fill="none" stroke="#000000" stroke-linecap="butt" stroke-linejoin="miter-clip" stroke-miterlimit="4.0" stroke-opacity="0.4" stroke-width="1.0"/>
  </g>
</svg>
