<?xml version="1.0" encoding="UTF-8" standalone="no"?>
<svg xmlns:xlink="http://www.w3.org/1999/xlink" height="179.4px" width="104.15px" xmlns="http://www.w3.org/2000/svg">
  <g transform="matrix(1.0, 0.0, 0.0, 1.0, 40.45, 86.75)">
    <path d="M-8.1 31.35 L-5.75 33.25 Q-3.45 35.55 -3.85 37.45 -4.35 40.05 -6.15 41.95 -8.05 44.05 -9.35 42.35 -10.45 40.8 -11.55 37.15 L-12.4 33.8 -8.1 31.35" fill="#ffffff" fill-opacity="0.0" fill-rule="evenodd" stroke="none"/>
    <path d="M-8.1 31.35 L-5.75 33.25 Q-3.45 35.55 -3.85 37.45 -4.35 40.05 -6.15 41.95 -8.05 44.05 -9.35 42.35 -10.45 40.8 -11.55 37.15 L-12.4 33.8 -8.1 31.35 Z" fill="none" stroke="#000000" stroke-linecap="butt" stroke-linejoin="miter-clip" stroke-miterlimit="4.0" stroke-opacity="0.4" stroke-width="1.0"/>
    <path d="M22.25 19.45 Q24.25 22.2 22.4 22.2 20.1 22.2 18.1 20.45 15.9 18.55 18.75 17.3 20.25 16.65 22.25 19.45" fill="#000000" fill-opacity="0.09803922" fill-rule="evenodd" stroke="none"/>
    <path d="M22.25 19.45 Q24.25 22.2 22.4 22.2 20.1 22.2 18.1 20.45 15.9 18.55 18.75 17.3 20.25 16.65 22.25 19.45 Z" fill="none" stroke="#000000" stroke-linecap="butt" stroke-linejoin="miter-clip" stroke-miterlimit="4.0" stroke-opacity="0.4" stroke-width="1.0"/>
    <path d="M37.15 -7.25 Q39.15 -8.8 39.5 -6.5 39.85 -4.25 38.5 -4.5 36.5 -5.25 35.25 -5.25 L37.15 -7.25" fill="#000000" fill-opacity="0.09803922" fill-rule="evenodd" stroke="none"/>
    <path d="M37.15 -7.25 Q39.15 -8.8 39.5 -6.5 39.85 -4.25 38.5 -4.5 36.5 -5.25 35.25 -5.25 L37.15 -7.25 Z" fill="none" stroke="#000000" stroke-linecap="butt" stroke-linejoin="miter-clip" stroke-miterlimit="4.0" stroke-opacity="0.4" stroke-width="1.0"/>
    <path d="M-11.6 -42.5 Q-9.5 -44.65 -8.7 -43.1 L-6.2 -39.75 Q-5.05 -38.25 -6.9 -38.25 L-12.1 -38.25 Q-14.8 -38.5 -13.6 -40.05 L-11.6 -42.5" fill="#000000" fill-opacity="0.09803922" fill-rule="evenodd" stroke="none"/>
    <path d="M-11.6 -42.5 Q-9.5 -44.65 -8.7 -43.1 L-6.2 -39.75 Q-5.05 -38.25 -6.9 -38.25 L-12.1 -38.25 Q-14.8 -38.5 -13.6 -40.05 L-11.6 -42.5 Z" fill="none" stroke="#000000" stroke-linecap="butt" stroke-linejoin="miter-clip" stroke-miterlimit="4.0" stroke-opacity="0.4" stroke-width="1.0"/>
    <path d="M-26.35 74.55 Q-25.25 72.7 -23.35 73.5 -20.3 74.7 -17.25 77.15 L-22.35 78.45 Q-27.4 79.2 -27.05 76.55 -26.9 75.5 -26.35 74.55" fill="#000000" fill-opacity="0.09803922" fill-rule="evenodd" stroke="none"/>
    <path d="M-26.35 74.55 Q-25.25 72.7 -23.35 73.5 -20.3 74.7 -17.25 77.15 L-22.35 78.45 Q-27.4 79.2 -27.05 76.55 -26.9 75.5 -26.35 74.55 Z" fill="none" stroke="#000000" stroke-linecap="butt" stroke-linejoin="miter-clip" stroke-miterlimit="4.0" stroke-opacity="0.4" stroke-width="1.0"/>
    <path d="M6.5 63.75 L9.0 63.7 Q8.5 65.8 7.6 66.25 6.45 66.85 3.5 65.55 L6.5 63.75" fill="#000000" fill-opacity="0.09803922" fill-rule="evenodd" stroke="none"/>
    <path d="M6.5 63.75 L9.0 63.7 Q8.5 65.8 7.6 66.25 6.45 66.85 3.5 65.55 L6.5 63.75 Z" fill="none" stroke="#000000" stroke-linecap="butt" stroke-linejoin="miter-clip" stroke-miterlimit="4.0" stroke-opacity="0.4" stroke-width="1.0"/>
    <path d="M33.65 -78.85 Q35.35 -80.7 36.45 -79.15 37.65 -77.55 35.95 -77.0 L32.2 -76.7 33.65 -78.85" fill="#000000" fill-opacity="0.09803922" fill-rule="evenodd" stroke="none"/>
    <path d="M33.65 -78.85 Q35.35 -80.7 36.45 -79.15 37.65 -77.55 35.95 -77.0 L32.2 -76.7 33.65 -78.85 Z" fill="none" stroke="#000000" stroke-linecap="butt" stroke-linejoin="miter-clip" stroke-miterlimit="4.0" stroke-opacity="0.4" stroke-width="1.0"/>
    <path d="M17.4 -73.25 Q19.2 -74.35 20.0 -72.4 20.8 -70.35 19.45 -70.5 18.85 -70.55 15.7 -71.8 L17.4 -73.25" fill="#000000" fill-opacity="0.09803922" fill-rule="evenodd" stroke="none"/>
    <path d="M17.4 -73.25 Q19.2 -74.35 20.0 -72.4 20.8 -70.35 19.45 -70.5 18.85 -70.55 15.7 -71.8 L17.4 -73.25 Z" fill="none" stroke="#000000" stroke-linecap="butt" stroke-linejoin="miter-clip" stroke-miterlimit="4.0" stroke-opacity="0.4" stroke-width="1.0"/>
    <path d="M32.5 37.4 Q33.7 35.25 35.25 36.85 36.45 38.15 38.5 38.3 39.0 38.3 38.9 38.45 L37.65 39.45 Q35.8 40.9 33.5 40.55 L31.6 39.9 Q31.9 38.5 32.5 37.4" fill="#000000" fill-opacity="0.09803922" fill-rule="evenodd" stroke="none"/>
    <path d="M32.5 37.4 Q33.7 35.25 35.25 36.85 36.45 38.15 38.5 38.3 39.0 38.3 38.9 38.45 L37.65 39.45 Q35.8 40.9 33.5 40.55 L31.6 39.9 Q31.9 38.5 32.5 37.4 Z" fill="none" stroke="#000000" stroke-linecap="butt" stroke-linejoin="miter-clip" stroke-miterlimit="4.0" stroke-opacity="0.4" stroke-width="1.0"/>
    <path d="M-7.1 40.9 L-5.05 40.5 Q-6.05 42.2 -7.2 42.8 -8.45 43.5 -9.35 42.35 -10.45 40.8 -11.55 37.15 L-12.4 33.8 -8.5 31.6 -8.5 39.1 -8.0 40.15 -7.1 40.9" fill="#000000" fill-opacity="0.09803922" fill-rule="evenodd" stroke="none"/>
    <path d="M23.6 -34.0 Q24.35 -34.85 25.45 -34.25 26.6 -33.7 27.05 -32.55 L27.3 -31.5 Q27.1 -30.55 25.2 -28.5 L23.35 -26.65 22.3 -28.95 Q21.5 -31.5 23.05 -33.05 L23.6 -34.0" fill="#000000" fill-opacity="0.09803922" fill-rule="evenodd" stroke="none"/>
    <path d="M10.5 -46.5 L8.7 -43.4 7.65 -44.15 Q6.7 -45.15 7.45 -46.5 8.1 -47.55 10.5 -46.5" fill="#000000" fill-opacity="0.09803922" fill-rule="evenodd" stroke="none"/>
    <path d="M63.2 -85.35 Q64.05 -83.9 62.7 -83.7 61.15 -83.5 61.0 -84.75 60.9 -86.05 62.1 -86.75 L63.2 -85.35" fill="#000000" fill-opacity="0.09803922" fill-rule="evenodd" stroke="none"/>
    <path d="M11.1 -82.8 Q9.6 -80.3 8.15 -79.45 6.35 -78.35 6.55 -81.6 11.75 -83.85 11.1 -82.8" fill="#000000" fill-opacity="0.09803922" fill-rule="evenodd" stroke="none"/>
    <path d="M13.85 69.2 L16.25 69.3 20.0 69.8 Q21.8 70.45 24.85 72.25 L26.6 74.7 Q28.6 77.15 29.75 77.15 L33.55 77.4 Q35.8 78.1 34.65 80.8 L33.5 83.65 32.8 85.1 Q32.05 86.65 18.95 84.15 L5.95 81.4 9.0 72.85 13.85 69.2" fill="#ffffff" fill-opacity="0.0" fill-rule="evenodd" stroke="none"/>
    <path d="M13.85 69.2 L16.25 69.3 20.0 69.8 Q21.8 70.45 24.85 72.25 L26.6 74.7 Q28.6 77.15 29.75 77.15 L33.55 77.4 Q35.8 78.1 34.65 80.8 L33.5 83.65 32.8 85.1 Q32.05 86.65 18.95 84.15 L5.95 81.4 9.0 72.85 13.85 69.2 Z" fill="none" stroke="#000000" stroke-linecap="butt" stroke-linejoin="miter-clip" stroke-miterlimit="4.0" stroke-opacity="0.4" stroke-width="1.0"/>
    <path d="M-39.85 82.05 Q-39.1 80.55 -37.95 79.15 -35.65 76.4 -33.75 77.15 L-28.65 78.85 -25.8 79.6 -18.5 79.6 Q-14.8 78.35 -13.0 78.35 -11.35 78.35 -9.8 80.9 -8.1 83.6 -9.35 85.7 -9.8 86.45 -9.55 89.45 -9.45 91.1 -13.0 91.8 -16.8 92.55 -25.95 89.5 -30.55 88.0 -34.35 86.3 L-39.85 82.05" fill="#ffffff" fill-opacity="0.0" fill-rule="evenodd" stroke="none"/>
    <path d="M-39.85 82.05 Q-39.1 80.55 -37.95 79.15 -35.65 76.4 -33.75 77.15 L-28.65 78.85 -25.8 79.6 -18.5 79.6 Q-14.8 78.35 -13.0 78.35 -11.35 78.35 -9.8 80.9 -8.1 83.6 -9.35 85.7 -9.8 86.45 -9.55 89.45 -9.45 91.1 -13.0 91.8 -16.8 92.55 -25.95 89.5 -30.55 88.0 -34.35 86.3 L-39.85 82.05 Z" fill="none" stroke="#000000" stroke-linecap="butt" stroke-linejoin="miter-clip" stroke-miterlimit="4.0" stroke-opacity="0.4" stroke-width="1.0"/>
    <path d="M-23.45 82.5 L-20.3 82.0 -11.25 79.2 Q-9.8 80.4 -9.15 82.15 -8.4 84.15 -9.35 85.7 -9.8 86.45 -9.55 89.45 -9.45 91.1 -13.0 91.8 -16.8 92.55 -25.95 89.5 -30.55 88.0 -34.35 86.3 L-39.85 82.05 -38.1 79.35 Q-36.0 76.7 -34.2 77.0 -34.45 79.05 -33.95 80.05 -33.2 81.5 -30.65 82.05 L-23.45 82.5" fill="#000000" fill-opacity="0.09803922" fill-rule="evenodd" stroke="none"/>
    <path d="M9.0 72.85 L13.85 69.2 Q14.1 70.25 17.15 74.1 L22.2 76.75 23.65 82.45 25.9 77.15 26.95 77.75 Q28.2 78.3 29.35 78.15 L32.15 77.95 34.0 77.55 Q35.65 78.35 34.65 80.8 L33.5 83.65 32.8 85.1 Q32.05 86.65 18.95 84.15 L5.95 81.4 9.0 72.85" fill="#000000" fill-opacity="0.09803922" fill-rule="evenodd" stroke="none"/>
    <path d="M47.55 84.65 Q48.8 81.2 50.5 80.8 L56.0 80.2 62.7 88.75 46.85 89.35 Q46.35 87.85 47.55 84.65" fill="#ffffff" fill-opacity="0.0" fill-rule="evenodd" stroke="none"/>
    <path d="M47.55 84.65 Q48.8 81.2 50.5 80.8 L56.0 80.2 62.7 88.75 46.85 89.35 Q46.35 87.85 47.55 84.65 Z" fill="none" stroke="#000000" stroke-linecap="butt" stroke-linejoin="miter-clip" stroke-miterlimit="4.0" stroke-opacity="0.4" stroke-width="1.0"/>
    <path d="M62.7 88.75 L46.85 89.35 Q46.5 88.4 47.0 86.35 47.5 84.25 48.45 82.7 49.1 84.25 50.5 84.45 L55.4 85.5 56.0 81.85 58.0 82.75 62.7 88.75" fill="#000000" fill-opacity="0.09803922" fill-rule="evenodd" stroke="none"/>
  </g>
</svg>
