<?xml version="1.0" encoding="UTF-8" standalone="no"?>
<svg xmlns:xlink="http://www.w3.org/1999/xlink" height="145.95px" width="192.65px" xmlns="http://www.w3.org/2000/svg">
  <g transform="matrix(1.0, 0.0, 0.0, 1.0, 95.2, 207.3)">
    <path d="M0.95 -61.95 Q-14.8 -71.05 -34.55 -92.05 -74.1 -133.9 -94.6 -192.85 L-79.55 -197.4 Q-59.95 -202.5 -38.25 -204.75 31.05 -212.45 96.85 -191.1 90.2 -169.25 75.0 -142.3 44.35 -88.2 0.95 -61.95" fill="#ffffff" fill-opacity="0.0" fill-rule="evenodd" stroke="none"/>
    <path d="M0.95 -61.95 Q-14.8 -71.05 -34.55 -92.05 -74.1 -133.9 -94.6 -192.85 L-79.55 -197.4 Q-59.95 -202.5 -38.25 -204.75 31.05 -212.45 96.85 -191.1 90.2 -169.25 75.0 -142.3 44.35 -88.2 0.95 -61.95 Z" fill="none" stroke="#000000" stroke-linecap="butt" stroke-linejoin="miter-clip" stroke-miterlimit="10.0" stroke-opacity="0.4" stroke-width="1.0"/>
  </g>
</svg>
