<?xml version="1.0" encoding="UTF-8" standalone="no"?>
<svg xmlns:xlink="http://www.w3.org/1999/xlink" height="102.0px" width="348.75px" xmlns="http://www.w3.org/2000/svg">
  <g transform="matrix(1.0, 0.0, 0.0, 1.0, 174.35, 51.0)">
    <path d="M120.75 -40.5 L124.5 -40.5 Q129.0 -40.1 132.9 -38.75 140.15 -36.1 143.75 -30.5 146.5 -26.35 147.25 -20.6 M50.0 40.5 Q50.25 33.4 49.25 27.25 48.25 21.5 46.15 16.5 L41.65 8.9 M-119.75 -34.25 Q-123.75 -33.6 -128.6 -30.5 -134.6 -26.6 -138.5 -20.0 -141.0 -16.0 -142.75 -10.75 M-61.5 7.4 Q-65.0 9.5 -68.25 14.5 -71.25 19.25 -72.35 24.9 -73.6 30.9 -72.75 38.15" fill="none" stroke="#ffffff" stroke-linecap="round" stroke-linejoin="round" stroke-opacity="0.49803922" stroke-width="1.0"/>
    <path d="M-59.75 8.15 Q-26.1 22.0 10.5 16.5 25.15 14.25 39.4 9.65 L41.65 8.9 Q61.5 2.15 80.5 -9.5 L116.75 -36.75 119.0 -38.85 120.75 -40.5 123.0 -42.75 129.65 -49.35 130.65 -50.5 162.9 -50.5 Q153.65 -39.85 143.75 -30.5 L142.0 -28.85 Q123.75 -11.75 103.5 1.4 77.25 18.25 49.25 27.25 48.0 27.65 46.75 28.15 31.25 32.9 15.25 35.25 3.4 37.15 -10.1 37.15 -41.25 37.15 -70.25 25.75 -69.1 20.0 -66.25 15.25 -63.1 10.4 -59.75 8.15 -63.1 10.4 -66.25 15.25 -69.1 20.0 -70.25 25.75 -71.35 25.25 -72.35 24.9 -91.25 17.15 -109.1 4.65 -123.85 -5.75 -137.0 -18.5 L-138.5 -20.0 Q-152.6 -33.85 -164.75 -50.5 L-134.0 -50.5 Q-127.25 -41.85 -119.75 -34.25 L-118.5 -32.85 Q-112.0 -26.25 -105.1 -20.35 -84.0 -2.1 -61.5 7.4 L-59.75 8.15 M39.4 9.65 L43.75 17.25 Q45.75 22.25 46.75 28.15 45.75 22.25 43.75 17.25 L39.4 9.65 M142.0 -28.85 Q138.4 -34.5 131.15 -37.1 127.25 -38.5 122.75 -38.85 L119.0 -38.85 122.75 -38.85 Q127.25 -38.5 131.15 -37.1 138.4 -34.5 142.0 -28.85 M-137.0 -18.5 Q-133.1 -25.1 -127.25 -29.0 -122.35 -32.25 -118.5 -32.85 -122.35 -32.25 -127.25 -29.0 -133.1 -25.1 -137.0 -18.5" fill="#ffffff" fill-opacity="0.0" fill-rule="evenodd" stroke="none"/>
    <path d="M162.9 -50.5 L173.9 -50.5 171.5 -47.35 148.4 -21.6 147.25 -20.6 145.5 -18.85 Q130.25 -4.0 113.25 8.15 83.0 29.75 50.0 40.5 L47.5 41.25 Q31.65 46.15 15.25 48.65 2.15 50.5 -10.1 50.5 -41.5 50.5 -70.5 39.0 L-71.35 38.75 -72.75 38.15 -75.75 36.9 Q-98.0 27.15 -118.85 10.75 L-121.75 8.4 -123.0 7.4 Q-132.6 -0.6 -141.25 -9.25 L-142.75 -10.75 -144.6 -12.75 Q-159.1 -28.1 -170.5 -45.25 L-172.1 -47.75 -172.5 -48.35 -173.1 -49.35 -173.85 -50.5 -164.75 -50.5 Q-152.6 -33.85 -138.5 -20.0 L-137.0 -18.5 Q-139.5 -14.5 -141.25 -9.25 -139.5 -14.5 -137.0 -18.5 -123.85 -5.75 -109.1 4.65 -91.25 17.15 -72.35 24.9 -71.35 25.25 -70.25 25.75 -41.25 37.15 -10.1 37.15 3.4 37.15 15.25 35.25 31.25 32.9 46.75 28.15 48.0 27.65 49.25 27.25 77.25 18.25 103.5 1.4 123.75 -11.75 142.0 -28.85 144.75 -24.75 145.5 -18.85 144.75 -24.75 142.0 -28.85 L143.75 -30.5 Q153.65 -39.85 162.9 -50.5 M47.5 41.25 Q47.75 34.25 46.75 28.15 47.75 34.25 47.5 41.25 M-70.5 39.0 Q-71.35 31.75 -70.25 25.75 -71.35 31.75 -70.5 39.0" fill="#000000" fill-opacity="0.2" fill-rule="evenodd" stroke="none"/>
    <path d="M-59.75 8.15 Q-26.1 22.0 10.5 16.5 25.15 14.25 39.4 9.65 L41.65 8.9 Q61.5 2.15 80.5 -9.5 L116.75 -36.75 119.0 -38.85 120.75 -40.5 123.0 -42.75 129.65 -49.35 130.65 -50.5 162.9 -50.5 173.9 -50.5 171.5 -47.35 148.4 -21.6 145.5 -18.85 Q130.25 -4.0 113.25 8.15 83.0 29.75 50.0 40.5 L47.5 41.25 Q31.65 46.15 15.25 48.65 2.15 50.5 -10.1 50.5 -41.5 50.5 -70.5 39.0 L-71.35 38.75 -72.75 38.15 -75.75 36.9 Q-98.0 27.15 -118.85 10.75 L-121.75 8.4 -123.0 7.4 Q-132.6 -0.6 -141.25 -9.25 L-142.75 -10.75 -144.6 -12.75 Q-159.1 -28.1 -170.5 -45.25 L-172.1 -47.75 -172.5 -48.35 -173.1 -49.35 -173.85 -50.5 -164.75 -50.5 -134.0 -50.5 Q-127.25 -41.85 -119.75 -34.25 L-118.5 -32.85 Q-112.0 -26.25 -105.1 -20.35 -84.0 -2.1 -61.5 7.4 L-59.75 8.15" fill="none" stroke="#000000" stroke-linecap="round" stroke-linejoin="round" stroke-width="1.0"/>
    <path d="M-59.75 8.15 Q-63.1 10.4 -66.25 15.25 -69.1 20.0 -70.25 25.75 -71.35 31.75 -70.5 39.0 M46.75 28.15 Q45.75 22.25 43.75 17.25 L39.4 9.65 M145.5 -18.85 Q144.75 -24.75 142.0 -28.85 138.4 -34.5 131.15 -37.1 127.25 -38.5 122.75 -38.85 L119.0 -38.85 M46.75 28.15 Q47.75 34.25 47.5 41.25 M-137.0 -18.5 Q-139.5 -14.5 -141.25 -9.25 M-118.5 -32.85 Q-122.35 -32.25 -127.25 -29.0 -133.1 -25.1 -137.0 -18.5" fill="none" stroke="#000000" stroke-linecap="round" stroke-linejoin="round" stroke-opacity="0.6" stroke-width="1.0"/>
  </g>
</svg>
