<?xml version="1.0" encoding="UTF-8" standalone="no"?>
<svg xmlns:xlink="http://www.w3.org/1999/xlink" height="3218.8px" width="9462.6px" xmlns="http://www.w3.org/2000/svg">
  <g transform="matrix(1.0, 0.0, 0.0, 1.0, 4731.3, 1609.45)">
    <path d="M-2517.9 -1234.8 Q-2403.1 -1241.45 -2329.25 -1260.7 -2283.75 -1273.3 -2189.25 -1314.25 -2097.9 -1353.8 -2045.75 -1366.4 -2000.25 -1377.25 -1759.1 -1399.3 -1575.0 -1415.05 -1486.8 -1468.6 -1486.8 -1474.9 -1493.1 -1479.8 -1499.4 -1484.35 -1499.4 -1489.25 -1392.3 -1539.65 -1237.95 -1555.4 -1190.7 -1559.95 -967.05 -1568.0 -894.6 -1571.15 -795.2 -1552.25 -640.85 -1519.0 -346.5 -1555.4 -303.8 -1559.95 -218.75 -1574.3 -141.75 -1583.75 -91.35 -1578.85 -97.65 -1571.15 -110.25 -1547.35 -121.1 -1525.3 -129.15 -1517.6 -64.4 -1511.3 8.05 -1523.9 42.7 -1530.2 204.75 -1575.7 326.2 -1608.95 406.35 -1608.95 869.4 -1607.2 979.65 -1599.5 1313.55 -1580.6 1542.1 -1496.95 L1530.9 -1464.05 Q1625.4 -1426.25 1721.65 -1424.5 1850.8 -1424.5 1855.35 -1512.7 1932.7 -1528.45 2024.05 -1476.65 2170.35 -1396.15 2176.65 -1394.75 2230.2 -1377.25 2323.3 -1367.8 2455.6 -1353.8 2472.75 -1350.65 L2461.9 -1314.25 Q2491.65 -1304.8 2655.45 -1270.15 2770.6 -1246.7 2838.15 -1204.0 2884.0 -1175.65 2961.0 -1118.95 3028.9 -1071.7 3093.3 -1052.8 3140.55 -1038.8 3228.75 -1035.65 3285.45 -1032.5 3354.75 -985.25 3395.7 -956.9 3499.65 -904.75 3597.3 -856.1 3636.85 -826.0 L3605.35 -785.05 Q3655.75 -742.7 3778.6 -660.8 3885.7 -582.05 3915.45 -504.7 3892.0 -504.7 3879.4 -500.15 3863.65 -495.25 3965.85 -359.8 4018.0 -290.5 4079.25 -210.35 4216.45 47.95 3921.75 281.05 3844.75 341.95 3725.05 411.6 3747.45 243.25 3649.1 68.25 L3646.3 63.35 3641.4 54.6 Q3639.65 52.15 3638.25 49.7 3655.75 -71.75 3643.15 -282.8 3625.65 -551.95 3625.65 -577.15 L3591.0 -385.0 Q3553.2 -210.35 3512.25 -119.0 L3528.0 -100.8 3526.2 -102.75 3524.5 -104.7 3522.05 -107.45 Q3500.7 -131.6 3477.25 -155.75 L3462.2 -171.15 3441.2 -191.8 3433.5 -199.15 3428.25 -204.05 Q3391.85 -238.7 3356.15 -271.25 L3353.3 -273.85 3348.45 -278.25 3353.3 -273.85 3348.45 -277.9 3348.45 -278.25 Q3356.5 -337.05 3397.45 -577.15 3427.2 -749.0 3422.65 -799.4 3392.55 -643.3 3299.8 -322.0 L3305.05 -317.25 Q3142.1 -459.95 2987.4 -564.7 L2992.5 -561.4 Q2991.1 -580.3 2987.95 -761.6 2984.8 -879.55 2972.2 -944.3 2953.3 -711.2 2934.4 -599.2 2893.8 -625.1 2853.9 -648.2 2647.75 -767.2 2405.2 -847.0 2397.15 -966.7 2400.3 -1101.8 2403.45 -1213.45 2412.9 -1285.9 2353.05 -1222.9 2329.6 -1104.95 2312.1 -1017.1 2312.1 -875.7 2252.6 -892.85 2191.0 -907.9 1584.45 -1054.55 15.75 -1068.55 L14.7 -1068.55 -18.9 -1068.55 Q-19.6 -1068.9 -20.3 -1068.55 -42.35 -1152.2 -48.65 -1300.25 -59.85 -1158.85 -81.55 -1067.5 -199.15 -1064.7 -428.4 -1054.55 -558.6 -1048.95 -667.8 -1042.3 -686.7 -1110.2 -686.7 -1271.9 -686.7 -1445.15 -703.85 -1530.2 L-724.5 -1528.45 Q-725.9 -1448.3 -740.25 -1341.2 -744.8 -1316.0 -771.75 -1155.35 L-790.3 -1034.6 Q-957.95 -1022.7 -1062.95 -1008.7 L-1072.75 -1007.3 -1085.35 -1005.55 -1100.4 -1003.45 -1649.2 -914.2 -1664.3 -911.45 -1658.3 -912.8 Q-1688.4 -966.35 -1689.8 -1086.05 -1686.65 -1234.1 -1692.95 -1319.15 -1692.95 -1249.85 -1741.95 -1193.15 -1789.2 -1139.6 -1796.9 -1191.4 -1803.2 -1078.0 -1814.4 -1013.6 -1827.0 -931.7 -1853.6 -871.85 -2163.35 -803.25 -2347.8 -730.1 L-2360.75 -725.2 -2450.7 -691.25 -2451.4 -690.9 -2452.1 -690.9 Q-2513.7 -765.1 -2526.3 -938.0 -2532.25 -1047.55 -2517.9 -1234.8 M3717.35 416.15 L3657.15 449.75 Q3430.35 572.6 3427.2 574.0 3428.6 572.95 3430.35 572.25 3431.75 571.2 3433.15 570.5 L3438.75 567.0 Q3440.15 565.95 3442.25 564.9 L3713.5 418.25 3717.35 416.15 M-3711.75 196.0 Q-3772.3 148.05 -3803.45 125.3 -3915.45 41.65 -3979.85 -66.85 -4055.45 -192.85 -4036.55 -315.7 -4027.1 -377.3 -3953.25 -454.3 -3860.15 -548.8 -3843.0 -580.3 L-3893.4 -585.2 Q-3872.75 -613.55 -3587.85 -734.65 -3343.55 -837.2 -3381.35 -917.35 -3320.1 -947.45 -3192.35 -986.65 -3063.2 -1026.2 -3005.1 -1054.55 -2984.45 -1065.4 -2858.45 -1133.3 -2770.25 -1180.55 -2712.15 -1204.0 -2729.3 -1218.35 -2734.2 -1227.8 -2666.3 -1232.35 -2529.45 -1234.1 L-2523.85 -1234.45 Q-2529.8 -1136.8 -2534.0 -928.55 -2542.05 -734.65 -2581.6 -641.55 -2584.05 -640.85 -2587.2 -639.45 -2732.8 -584.15 -2843.4 -540.4 L-2895.9 -519.75 Q-2904.65 -516.6 -2912.7 -513.1 -2921.45 -509.95 -2929.85 -506.45 L-2952.95 -497.0 Q-2962.75 -493.15 -2971.85 -489.3 L-2976.75 -487.55 Q-2978.85 -486.85 -2980.95 -485.8 L-3082.1 -443.1 -3089.8 -439.85 -3064.95 -451.15 Q-3102.75 -448.0 -3119.9 -451.15 -3150.0 -457.45 -3175.2 -481.25 -3219.3 -523.6 -3230.15 -696.85 -3233.3 -878.15 -3235.05 -911.05 -3261.65 -797.65 -3267.95 -632.45 -3272.85 -537.95 -3279.15 -347.2 -3328.15 -320.25 -3366.3 -294.7 -3331.3 -319.2 -3286.85 -344.05 -3367.35 -342.65 -3393.95 -347.2 -3444.35 -356.65 -3496.5 -394.45 -3491.6 -367.85 -3499.65 -308.0 -3505.95 -246.4 -3502.8 -221.2 -3564.05 -303.1 -3605.0 -448.0 -3641.4 -577.15 -3645.95 -701.75 -3645.95 -665.35 -3683.75 -339.5 -3710.7 -104.65 -3644.55 19.6 L-3627.75 45.5 Q-3666.25 112.7 -3711.75 196.0 M1176.7 -1323.7 Q1162.35 -1495.55 1156.05 -1528.45 1132.6 -1452.85 1130.85 -1295.35 1127.7 -1098.65 1120.0 -1040.2 L1208.2 -1035.65 Q1192.45 -1137.85 1176.7 -1323.7 M301.0 -1065.4 L367.15 -1064.0 367.15 -1068.55 Q354.55 -1153.6 365.4 -1303.4 381.15 -1471.75 384.3 -1550.5 L381.15 -1550.5 Q360.85 -1342.6 301.0 -1065.4 M1551.55 -1008.7 L1653.75 -997.85 Q1624.0 -1120.7 1615.95 -1319.15 L1575.0 -1369.55 Q1575.0 -1147.3 1551.55 -1008.7 M-2858.45 -774.2 Q-2882.25 -936.25 -2893.1 -982.1 -2891.7 -876.4 -2912.0 -736.4 -2923.2 -657.65 -2946.65 -500.15 L-2790.9 -561.4 Q-2830.1 -619.85 -2858.45 -774.2 M-2041.2 -1244.95 Q-2064.65 -1193.15 -2082.15 -1070.3 -2091.6 -1002.4 -2104.2 -887.6 L-2111.9 -808.85 -1984.5 -841.75 Q-2023.7 -972.65 -2041.2 -1244.95 M-1144.85 -997.85 L-1074.15 -1007.3 Q-1113.35 -1090.6 -1115.1 -1246.7 -1110.2 -1419.95 -1110.2 -1487.5 -1127.7 -1411.9 -1125.95 -1241.8 -1124.55 -1078.0 -1144.85 -997.85" fill="#ffffff" fill-opacity="0.2" fill-rule="evenodd" stroke="none"/>
    <path d="M3336.9 -288.4 Q3342.85 -283.5 3348.45 -278.25 L3348.45 -277.9 Q3344.95 -281.4 3341.45 -284.2 3339.0 -286.3 3336.9 -288.4 M-3487.4 -180.95 L-3585.05 -26.6 -3595.2 -10.5 Q-3528.7 -123.55 -3487.4 -180.95 M-3277.75 -347.55 Q-3203.55 -388.5 -3103.8 -433.3 L-3277.75 -347.55 M-1687.0 -906.85 L-1693.3 -905.45 -1694.55 -905.35 -1687.0 -906.85" fill="#000000" fill-opacity="0.2" fill-rule="evenodd" stroke="none"/>
    <path d="M-2452.1 -690.9 L-2451.4 -690.9 -2450.7 -691.25 -2360.75 -725.2 -2347.8 -730.1 Q-2163.35 -803.25 -1853.6 -871.85 -1787.8 -886.55 -1716.4 -900.9 L-1697.85 -904.75 -1695.75 -905.1 -1694.55 -905.35 -1693.3 -905.45 -1687.0 -906.85 -1676.85 -908.6 -1664.3 -911.45 -1649.2 -914.2 -1100.4 -1003.45 -1085.35 -1005.55 -1072.75 -1007.3 -1062.95 -1008.7 Q-957.95 -1022.7 -790.3 -1034.6 L-667.8 -1042.3 Q-558.6 -1048.95 -428.4 -1054.55 -199.15 -1064.7 -81.55 -1067.5 L-80.15 -1067.5 -33.25 -1068.2 -20.3 -1068.55 Q-19.6 -1068.9 -18.9 -1068.55 L14.7 -1068.55 15.75 -1068.55 Q1584.45 -1054.55 2191.0 -907.9 2252.6 -892.85 2312.1 -875.7 2359.35 -862.05 2405.2 -847.0 2647.75 -767.2 2853.9 -648.2 2893.8 -625.1 2934.4 -599.2 L2974.65 -572.95 Q2976.4 -571.55 2978.5 -570.5 L2982.35 -568.05 2987.4 -564.7 Q3142.1 -459.95 3305.05 -317.25 L3310.3 -312.55 3312.05 -310.8 3318.0 -305.55 3320.45 -303.1 3336.9 -288.4 Q3339.0 -286.3 3341.45 -284.2 3344.95 -281.4 3348.45 -277.9 L3353.3 -273.85 3356.15 -271.25 Q3391.85 -238.7 3428.25 -204.05 L3433.5 -199.15 3441.2 -191.8 3462.2 -171.15 3477.25 -155.75 Q3500.7 -131.6 3522.05 -107.45 L3524.5 -104.7 3526.2 -102.75 3528.0 -100.8 Q3531.5 -96.95 3534.65 -92.75 3584.35 -35.0 3620.75 21.35 L3635.1 44.45 Q3636.85 46.9 3638.25 49.7 3639.65 52.15 3641.4 54.6 L3646.3 63.35 3649.1 68.25 Q3747.45 243.25 3725.05 411.6 L3725.05 411.95 3717.35 416.15 3713.5 418.25 3442.25 564.9 Q3440.15 565.95 3438.75 567.0 L3433.15 570.5 Q3431.75 571.2 3430.35 572.25 3428.6 572.95 3427.2 574.0 3383.1 604.1 3369.1 614.95 3345.3 629.3 3299.8 645.05 3202.15 667.1 3158.05 681.1 3101.35 700.0 2994.25 696.85 2885.4 693.7 2836.75 708.05 2794.05 720.65 2712.15 781.9 2627.1 844.9 2581.6 860.65 2504.25 885.85 2384.55 907.9 2331.0 917.35 2186.1 938.0 2110.5 948.85 1992.55 944.3 1842.75 939.4 1795.5 941.15 1710.45 945.7 1612.8 992.95 1496.25 1051.4 1447.6 1062.25 1379.7 1079.75 1252.3 1068.55 1105.65 1057.7 1055.25 1062.25 989.1 1070.3 864.85 1106.35 738.85 1142.75 674.1 1150.45 607.95 1158.5 500.85 1145.9 371.7 1130.15 327.6 1130.15 40.95 1130.15 -32.9 1127.0 -303.8 1114.4 -308.7 1065.4 -346.5 1064.0 -442.4 1065.4 -529.2 1067.15 -576.45 1062.25 -615.65 1059.1 -735.35 1029.35 -836.15 1004.15 -897.75 1008.7 -938.7 1013.6 -1018.85 1038.8 -1089.9 1062.25 -1143.45 1062.25 -1201.55 1064.0 -1275.75 1041.95 -1357.65 1013.6 -1403.15 999.25 -1576.4 942.55 -1661.45 920.5 -1806.35 879.55 -1940.4 873.25 -2025.45 870.1 -2220.75 866.95 -2404.85 863.8 -2504.25 859.25 -2497.95 803.95 -2749.95 679.7 -2965.55 572.6 -3083.85 539.35 -3153.15 526.75 -3182.9 520.45 -3233.3 511.0 -3261.65 482.65 -3279.15 466.9 -3283.7 424.55 -3288.6 388.15 -3329.55 361.55 -3367.35 336.35 -3449.25 320.6 -3542.0 303.1 -3575.25 287.35 -3622.15 266.0 -3686.9 215.6 L-3690.05 213.15 Q-3700.9 205.1 -3712.1 196.0 L-3711.75 196.0 Q-3666.25 112.7 -3627.75 45.5 -3626.7 44.1 -3626.0 42.35 L-3595.2 -10.5 -3585.05 -26.6 -3487.4 -180.95 Q-3469.55 -205.8 -3456.95 -219.8 -3444.35 -233.45 -3428.25 -247.45 L-3369.8 -291.9 -3366.3 -294.7 Q-3328.15 -320.25 -3279.15 -347.2 L-3277.75 -347.55 -3103.8 -433.3 -3099.75 -435.2 -3095.75 -437.15 -3092.35 -438.7 -3089.8 -439.85 -3082.1 -443.1 -3099.75 -435.2 -3082.1 -443.1 -2980.95 -485.8 Q-2978.85 -486.85 -2976.75 -487.55 L-2971.85 -489.3 Q-2962.75 -493.15 -2952.95 -497.0 L-2929.85 -506.45 Q-2921.45 -509.95 -2912.7 -513.1 -2904.65 -516.6 -2895.9 -519.75 L-2843.4 -540.4 Q-2732.8 -584.15 -2587.2 -639.45 -2584.05 -640.85 -2581.6 -641.55 -2520.0 -665.35 -2452.1 -690.9 M362.25 -563.15 Q302.4 -470.05 137.2 -276.5 241.15 -389.9 378.0 -509.6 406.35 -533.05 589.05 -701.75 761.6 -856.8 782.95 -860.65 612.85 -835.45 530.95 -772.45 466.2 -723.8 362.25 -563.15 M855.4 -263.9 L650.65 -304.85 1197.0 -163.1 Q1083.6 -213.5 855.4 -263.9 M831.6 -547.4 L1026.9 -506.45 Q1255.45 -456.05 1419.25 -405.65 1368.85 -451.15 1269.45 -492.1 1072.75 -572.6 831.6 -547.4 M1901.2 -208.6 Q1965.6 -211.75 2384.55 -249.55 2776.9 -281.05 2816.1 -263.9 2534.35 -399.35 2354.8 -399.35 2213.05 -397.6 1921.5 -292.25 1756.3 -232.4 1337.35 -145.6 1592.5 -189.7 1901.2 -208.6 M2609.95 114.1 Q2564.1 -87.5 2349.9 -163.1 L2496.55 -5.6 Q2638.3 175.7 2613.1 301.7 2633.4 216.65 2609.95 114.1 M3312.05 -310.8 Q3140.9 -461.65 2978.5 -570.5 3140.9 -461.65 3312.05 -310.8 M3534.65 -92.75 L3526.2 -102.75 3534.65 -92.75 M1682.1 747.25 Q1782.9 772.45 1874.25 742.7 1920.1 726.95 1945.3 706.3 1540.35 545.65 1460.2 525.35 1214.5 463.75 1094.8 463.75 1041.25 463.75 784.35 413.35 526.05 362.95 488.25 362.95 437.85 362.95 288.4 309.4 134.05 252.7 103.95 241.85 L488.25 443.45 779.8 506.45 Q1077.3 572.6 1115.1 585.2 1170.4 604.1 1360.8 659.05 1571.85 718.9 1682.1 747.25 M2317.0 230.65 Q2315.25 161.35 2282.35 93.8 L2249.1 38.5 Q2324.7 254.45 2173.5 451.15 2126.25 512.75 2061.85 566.3 L2006.55 605.5 Q2323.3 454.3 2317.0 230.65 M166.95 856.1 Q-315.0 830.9 -403.2 868.7 L30.1 901.6 Q490.0 926.8 630.0 889.0 408.1 868.7 166.95 856.1 M-366.8 -758.45 L-563.85 -730.1 42.7 -771.05 Q-133.7 -783.65 -366.8 -758.45 M-1091.3 -386.75 L-970.2 -408.8 Q-798.35 -434.0 -544.95 -446.6 -579.6 -476.35 -666.05 -484.4 -837.9 -500.15 -1091.3 -386.75 M-807.8 362.95 Q-889.7 375.55 -932.4 393.05 -984.2 416.5 -1009.4 422.8 -1028.3 427.7 -1442.7 563.15 -1800.05 679.7 -1853.6 687.4 L-1130.85 626.15 -281.75 301.7 Q-666.05 342.65 -807.8 362.95 M-2419.2 298.55 Q-2423.75 432.25 -2392.25 476.35 -2401.7 456.05 -2408.0 386.75 -2425.5 189.7 -2215.85 -47.95 L-2406.6 159.95 -2419.2 298.55 M-1688.4 337.75 Q-1626.8 479.5 -1475.6 504.7 -1541.75 454.3 -1604.75 391.3 -1677.2 317.45 -1704.15 265.3 L-1688.4 337.75 M-1738.8 -267.05 Q-2028.6 -372.4 -2170.35 -374.15 -2351.3 -374.15 -2629.9 -238.7 -2592.45 -255.85 -2201.85 -224.35 -1997.1 -208.6 -1718.15 -183.4 -1409.45 -164.5 -1154.3 -120.4 -1570.1 -205.45 -1738.8 -267.05 M-3369.8 -291.9 Q-3330.25 -318.85 -3277.75 -347.55 -3330.25 -318.85 -3369.8 -291.9 M-1649.2 -914.2 L-1676.85 -908.6 -1649.2 -914.2" fill="#ffffff" fill-opacity="0.0" fill-rule="evenodd" stroke="none"/>
    <path d="M-2517.9 -1234.8 Q-2532.25 -1047.55 -2526.3 -938.0 -2513.7 -765.1 -2452.1 -690.9 -2520.0 -665.35 -2581.6 -641.55 -2542.05 -734.65 -2534.0 -928.55 -2529.8 -1136.8 -2523.85 -1234.45 L-2523.15 -1246.7 -2516.85 -1248.1 Q-2517.55 -1241.45 -2517.9 -1234.8 M-1853.6 -871.85 Q-1827.0 -931.7 -1814.4 -1013.6 -1803.2 -1078.0 -1796.9 -1191.4 -1789.2 -1139.6 -1741.95 -1193.15 -1692.95 -1249.85 -1692.95 -1319.15 -1686.65 -1234.1 -1689.8 -1086.05 -1688.4 -966.35 -1658.3 -912.8 L-1664.3 -911.45 -1676.85 -908.6 -1687.0 -906.85 -1694.55 -905.35 -1695.75 -905.1 -1697.85 -904.75 -1716.4 -900.9 Q-1787.8 -886.55 -1853.6 -871.85 M-790.3 -1034.6 L-771.75 -1155.35 Q-744.8 -1316.0 -740.25 -1341.2 -725.9 -1448.3 -724.5 -1528.45 L-703.85 -1530.2 Q-686.7 -1445.15 -686.7 -1271.9 -686.7 -1110.2 -667.8 -1042.3 L-790.3 -1034.6 M-81.55 -1067.5 Q-59.85 -1158.85 -48.65 -1300.25 -42.35 -1152.2 -20.3 -1068.55 L-33.25 -1068.2 -80.15 -1067.5 -81.55 -1067.5 M2312.1 -875.7 Q2312.1 -1017.1 2329.6 -1104.95 2353.05 -1222.9 2412.9 -1285.9 2403.45 -1213.45 2400.3 -1101.8 2397.15 -966.7 2405.2 -847.0 2359.35 -862.05 2312.1 -875.7 M2934.4 -599.2 Q2953.3 -711.2 2972.2 -944.3 2984.8 -879.55 2987.95 -761.6 2991.1 -580.3 2992.5 -561.4 L2987.4 -564.7 2982.35 -568.05 2978.5 -570.5 Q2976.4 -571.55 2974.65 -572.95 L2934.4 -599.2 M3305.05 -317.25 L3299.8 -322.0 Q3392.55 -643.3 3422.65 -799.4 3427.2 -749.0 3397.45 -577.15 3356.5 -337.05 3348.45 -278.25 3342.85 -283.5 3336.9 -288.4 L3320.45 -303.1 3318.0 -305.55 3312.05 -310.8 3310.3 -312.55 3305.05 -317.25 M3528.0 -100.8 L3512.25 -119.0 Q3553.2 -210.35 3591.0 -385.0 L3625.65 -577.15 Q3625.65 -551.95 3643.15 -282.8 3655.75 -71.75 3638.25 49.7 3636.85 46.9 3635.1 44.45 L3620.75 21.35 Q3584.35 -35.0 3534.65 -92.75 3531.5 -96.95 3528.0 -100.8 M301.0 -1065.4 Q360.85 -1342.6 381.15 -1550.5 L384.3 -1550.5 Q381.15 -1471.75 365.4 -1303.4 354.55 -1153.6 367.15 -1068.55 L367.15 -1064.0 301.0 -1065.4 M1176.7 -1323.7 Q1192.45 -1137.85 1208.2 -1035.65 L1120.0 -1040.2 Q1127.7 -1098.65 1130.85 -1295.35 1132.6 -1452.85 1156.05 -1528.45 1162.35 -1495.55 1176.7 -1323.7 M362.25 -563.15 Q466.2 -723.8 530.95 -772.45 612.85 -835.45 782.95 -860.65 761.6 -856.8 589.05 -701.75 406.35 -533.05 378.0 -509.6 241.15 -389.9 137.2 -276.5 302.4 -470.05 362.25 -563.15 M855.4 -263.9 Q1083.6 -213.5 1197.0 -163.1 L650.65 -304.85 855.4 -263.9 M831.6 -547.4 Q1072.75 -572.6 1269.45 -492.1 1368.85 -451.15 1419.25 -405.65 1255.45 -456.05 1026.9 -506.45 L831.6 -547.4 M1551.55 -1008.7 Q1575.0 -1147.3 1575.0 -1369.55 L1615.95 -1319.15 Q1624.0 -1120.7 1653.75 -997.85 L1551.55 -1008.7 M2609.95 114.1 Q2633.4 216.65 2613.1 301.7 2638.3 175.7 2496.55 -5.6 L2349.9 -163.1 Q2564.1 -87.5 2609.95 114.1 M1901.2 -208.6 Q1592.5 -189.7 1337.35 -145.6 1756.3 -232.4 1921.5 -292.25 2213.05 -397.6 2354.8 -399.35 2534.35 -399.35 2816.1 -263.9 2776.9 -281.05 2384.55 -249.55 1965.6 -211.75 1901.2 -208.6 M3636.85 624.4 L3504.55 651.35 Q4054.05 444.85 4351.9 100.1 4581.85 -167.65 4636.8 -482.65 4674.6 -696.85 4063.5 -1035.65 3871.35 -1141.0 3638.25 -1246.7 L3442.95 -1331.75 Q3917.2 -1191.4 3961.3 -1177.4 4257.4 -1079.75 4427.5 -972.65 4881.1 -687.4 4657.45 -199.15 4443.25 270.2 3951.85 507.85 3798.9 582.05 3636.85 624.4 M1520.05 1582.0 L2134.3 1465.45 Q2808.4 1333.15 3098.2 1257.55 3570.7 1134.7 3847.9 1026.2 4043.2 948.85 4178.65 868.7 4135.95 898.45 4088.7 929.95 3668.35 1212.05 3200.4 1339.45 2732.8 1465.45 2079.0 1536.5 L1520.05 1582.0 M2317.0 230.65 Q2323.3 454.3 2006.55 605.5 L2061.85 566.3 Q2126.25 512.75 2173.5 451.15 2324.7 254.45 2249.1 38.5 L2282.35 93.8 Q2315.25 161.35 2317.0 230.65 M1682.1 747.25 Q1571.85 718.9 1360.8 659.05 1170.4 604.1 1115.1 585.2 1077.3 572.6 779.8 506.45 L488.25 443.45 103.95 241.85 Q134.05 252.7 288.4 309.4 437.85 362.95 488.25 362.95 526.05 362.95 784.35 413.35 1041.25 463.75 1094.8 463.75 1214.5 463.75 1460.2 525.35 1540.35 545.65 1945.3 706.3 1920.1 726.95 1874.25 742.7 1782.9 772.45 1682.1 747.25 M2491.65 1115.8 Q1949.85 1243.55 1326.15 1361.5 75.6 1599.5 -341.6 1561.7 -666.05 1533.35 -1255.1 1586.9 -1754.55 1634.15 -1940.4 1582.0 -2168.6 1519.0 -2987.6 1048.25 L-3762.5 589.75 Q-3742.2 597.8 -3378.2 789.95 -3000.2 989.8 -2749.95 1096.9 -2398.55 1246.7 -2091.6 1334.9 -1740.2 1433.95 -1556.1 1419.95 -1373.4 1405.6 -845.6 1415.05 -366.8 1423.1 -58.1 1440.25 189.0 1454.6 611.1 1404.2 907.2 1369.55 1479.1 1278.2 L2491.65 1115.8 M166.95 856.1 Q408.1 868.7 630.0 889.0 490.0 926.8 30.1 901.6 L-403.2 868.7 Q-315.0 830.9 166.95 856.1 M-366.8 -758.45 Q-133.7 -783.65 42.7 -771.05 L-563.85 -730.1 -366.8 -758.45 M-1091.3 -386.75 Q-837.9 -500.15 -666.05 -484.4 -579.6 -476.35 -544.95 -446.6 -798.35 -434.0 -970.2 -408.8 L-1091.3 -386.75 M-807.8 362.95 Q-666.05 342.65 -281.75 301.7 L-1130.85 626.15 -1853.6 687.4 Q-1800.05 679.7 -1442.7 563.15 -1028.3 427.7 -1009.4 422.8 -984.2 416.5 -932.4 393.05 -889.7 375.55 -807.8 362.95 M-3595.2 -10.5 L-3626.0 42.35 Q-3626.7 44.1 -3627.75 45.5 L-3644.55 19.6 Q-3710.7 -104.65 -3683.75 -339.5 -3645.95 -665.35 -3645.95 -701.75 -3641.4 -577.15 -3605.0 -448.0 -3564.05 -303.1 -3502.8 -221.2 -3505.95 -246.4 -3499.65 -308.0 -3491.6 -367.85 -3496.5 -394.45 -3444.35 -356.65 -3393.95 -347.2 -3367.35 -342.65 -3286.85 -344.05 -3331.3 -319.2 -3366.3 -294.7 L-3369.8 -291.9 -3428.25 -247.45 Q-3444.35 -233.45 -3456.95 -219.8 -3469.55 -205.8 -3487.4 -180.95 -3528.7 -123.55 -3595.2 -10.5 M-1688.4 337.75 L-1704.15 265.3 Q-1677.2 317.45 -1604.75 391.3 -1541.75 454.3 -1475.6 504.7 -1626.8 479.5 -1688.4 337.75 M-2419.2 298.55 L-2406.6 159.95 -2215.85 -47.95 Q-2425.5 189.7 -2408.0 386.75 -2401.7 456.05 -2392.25 476.35 -2423.75 432.25 -2419.2 298.55 M-1738.8 -267.05 Q-1570.1 -205.45 -1154.3 -120.4 -1409.45 -164.5 -1718.15 -183.4 -1997.1 -208.6 -2201.85 -224.35 -2592.45 -255.85 -2629.9 -238.7 -2351.3 -374.15 -2170.35 -374.15 -2028.6 -372.4 -1738.8 -267.05 M-2858.45 -774.2 Q-2830.1 -619.85 -2790.9 -561.4 L-2946.65 -500.15 Q-2923.2 -657.65 -2912.0 -736.4 -2891.7 -876.4 -2893.1 -982.1 -2882.25 -936.25 -2858.45 -774.2 M-3089.8 -439.85 L-3092.35 -438.7 -3095.75 -437.15 -3099.75 -435.2 -3103.8 -433.3 Q-3203.55 -388.5 -3277.75 -347.55 L-3279.15 -347.2 Q-3272.85 -537.95 -3267.95 -632.45 -3261.65 -797.65 -3235.05 -911.05 -3233.3 -878.15 -3230.15 -696.85 -3219.3 -523.6 -3175.2 -481.25 -3150.0 -457.45 -3119.9 -451.15 -3102.75 -448.0 -3064.95 -451.15 L-3089.8 -439.85 M-4310.6 213.5 Q-4650.8 35.35 -4713.8 -178.85 -4794.3 -454.3 -4504.5 -752.15 -4276.65 -984.2 -3853.85 -1195.25 -3881.5 -1180.55 -3909.15 -1164.8 -4384.8 -901.6 -4510.8 -624.4 -4652.55 -314.3 -4498.2 -78.05 -4378.5 107.8 -3984.75 347.2 -4142.25 301.7 -4310.6 213.5 M-4025.7 -846.65 Q-3721.55 -1125.25 -3195.5 -1287.65 -2932.65 -1367.8 -2729.3 -1393.0 -3209.85 -1244.95 -3691.8 -1013.6 -3923.15 -901.6 -4025.7 -846.65 M-1144.85 -997.85 Q-1124.55 -1078.0 -1125.95 -1241.8 -1127.7 -1411.9 -1110.2 -1487.5 -1110.2 -1419.95 -1115.1 -1246.7 -1113.35 -1090.6 -1074.15 -1007.3 L-1144.85 -997.85 M-2041.2 -1244.95 Q-2023.7 -972.65 -1984.5 -841.75 L-2111.9 -808.85 -2104.2 -887.6 Q-2091.6 -1002.4 -2082.15 -1070.3 -2064.65 -1193.15 -2041.2 -1244.95" fill="#000000" fill-opacity="0.14901961" fill-rule="evenodd" stroke="none"/>
    <path d="M3725.05 411.6 Q3844.75 341.95 3921.75 281.05 4216.45 47.95 4079.25 -210.35 4018.0 -290.5 3965.85 -359.8 3863.65 -495.25 3879.4 -500.15 3892.0 -504.7 3915.45 -504.7 3885.7 -582.05 3778.6 -660.8 3655.75 -742.7 3605.35 -785.05 L3636.85 -826.0 Q3597.3 -856.1 3499.65 -904.75 3395.7 -956.9 3354.75 -985.25 3285.45 -1032.5 3228.75 -1035.65 3140.55 -1038.8 3093.3 -1052.8 3028.9 -1071.7 2961.0 -1118.95 2884.0 -1175.65 2838.15 -1204.0 2770.6 -1246.7 2655.45 -1270.15 2491.65 -1304.8 2461.9 -1314.25 L2472.75 -1350.65 Q2455.6 -1353.8 2323.3 -1367.8 2230.2 -1377.25 2176.65 -1394.75 2170.35 -1396.15 2024.05 -1476.65 1932.7 -1528.45 1855.35 -1512.7 1850.8 -1424.5 1721.65 -1424.5 1625.4 -1426.25 1530.9 -1464.05 L1542.1 -1496.95 Q1313.55 -1580.6 979.65 -1599.5 869.4 -1607.2 406.35 -1608.95 326.2 -1608.95 204.75 -1575.7 42.7 -1530.2 8.05 -1523.9 -64.4 -1511.3 -129.15 -1517.6 -121.1 -1525.3 -110.25 -1547.35 -97.65 -1571.15 -91.35 -1578.85 -141.75 -1583.75 -218.75 -1574.3 -303.8 -1559.95 -346.5 -1555.4 -640.85 -1519.0 -795.2 -1552.25 -894.6 -1571.15 -967.05 -1568.0 -1190.7 -1559.95 -1237.95 -1555.4 -1392.3 -1539.65 -1499.4 -1489.25 -1499.4 -1484.35 -1493.1 -1479.8 -1486.8 -1474.9 -1486.8 -1468.6 -1575.0 -1415.05 -1759.1 -1399.3 -2000.25 -1377.25 -2045.75 -1366.4 -2097.9 -1353.8 -2189.25 -1314.25 -2283.75 -1273.3 -2329.25 -1260.7 -2403.1 -1241.45 -2517.9 -1234.8 M3717.35 416.15 L3657.15 449.75 Q3430.35 572.6 3427.2 574.0 3383.1 604.1 3369.1 614.95 3345.3 629.3 3299.8 645.05 3202.15 667.1 3158.05 681.1 3101.35 700.0 2994.25 696.85 2885.4 693.7 2836.75 708.05 2794.05 720.65 2712.15 781.9 2627.1 844.9 2581.6 860.65 2504.25 885.85 2384.55 907.9 2331.0 917.35 2186.1 938.0 2110.5 948.85 1992.55 944.3 1842.75 939.4 1795.5 941.15 1710.45 945.7 1612.8 992.95 1496.25 1051.4 1447.6 1062.25 1379.7 1079.75 1252.3 1068.55 1105.65 1057.7 1055.25 1062.25 989.1 1070.3 864.85 1106.35 738.85 1142.75 674.1 1150.45 607.95 1158.5 500.85 1145.9 371.7 1130.15 327.6 1130.15 40.95 1130.15 -32.9 1127.0 -303.8 1114.4 -308.7 1065.4 -346.5 1064.0 -442.4 1065.4 -529.2 1067.15 -576.45 1062.25 -615.65 1059.1 -735.35 1029.35 -836.15 1004.15 -897.75 1008.7 -938.7 1013.6 -1018.85 1038.8 -1089.9 1062.25 -1143.45 1062.25 -1201.55 1064.0 -1275.75 1041.95 -1357.65 1013.6 -1403.15 999.25 -1576.4 942.55 -1661.45 920.5 -1806.35 879.55 -1940.4 873.25 -2025.45 870.1 -2220.75 866.95 -2404.85 863.8 -2504.25 859.25 -2497.95 803.95 -2749.95 679.7 -2965.55 572.6 -3083.85 539.35 -3153.15 526.75 -3182.9 520.45 -3233.3 511.0 -3261.65 482.65 -3279.15 466.9 -3283.7 424.55 -3288.6 388.15 -3329.55 361.55 -3367.35 336.35 -3449.25 320.6 -3542.0 303.1 -3575.25 287.35 -3622.15 266.0 -3686.9 215.6 L-3690.05 213.15 Q-3700.9 205.1 -3712.1 196.0 M-3711.75 196.0 Q-3772.3 148.05 -3803.45 125.3 -3915.45 41.65 -3979.85 -66.85 -4055.45 -192.85 -4036.55 -315.7 -4027.1 -377.3 -3953.25 -454.3 -3860.15 -548.8 -3843.0 -580.3 L-3893.4 -585.2 Q-3872.75 -613.55 -3587.85 -734.65 -3343.55 -837.2 -3381.35 -917.35 -3320.1 -947.45 -3192.35 -986.65 -3063.2 -1026.2 -3005.1 -1054.55 -2984.45 -1065.4 -2858.45 -1133.3 -2770.25 -1180.55 -2712.15 -1204.0 -2729.3 -1218.35 -2734.2 -1227.8 -2666.3 -1232.35 -2529.45 -1234.1 L-2523.85 -1234.45 M3713.5 418.25 L3442.25 564.9 Q3440.15 565.95 3438.75 567.0 L3433.15 570.5 Q3431.75 571.2 3430.35 572.25 3428.6 572.95 3427.2 574.0" fill="none" stroke="#000000" stroke-linecap="butt" stroke-linejoin="miter-clip" stroke-miterlimit="4.0" stroke-width="1.0"/>
    <path d="M-2452.1 -690.9 L-2451.4 -690.9 -2450.7 -691.25 -2360.75 -725.2 -2347.8 -730.1 Q-2163.35 -803.25 -1853.6 -871.85 -1787.8 -886.55 -1716.4 -900.9 L-1697.85 -904.75 -1695.75 -905.1 -1694.55 -905.35 -1687.0 -906.85 -1676.85 -908.6 -1649.2 -914.2 -1100.4 -1003.45 -1085.35 -1005.55 -1072.75 -1007.3 -1062.95 -1008.7 Q-957.95 -1022.7 -790.3 -1034.6 L-667.8 -1042.3 Q-558.6 -1048.95 -428.4 -1054.55 -199.15 -1064.7 -81.55 -1067.5 L-80.15 -1067.5 -33.25 -1068.2 -20.3 -1068.55 Q-19.6 -1068.9 -18.9 -1068.55 L14.7 -1068.55 15.75 -1068.55 Q1584.45 -1054.55 2191.0 -907.9 2252.6 -892.85 2312.1 -875.7 2359.35 -862.05 2405.2 -847.0 2647.75 -767.2 2853.9 -648.2 2893.8 -625.1 2934.4 -599.2 L2974.65 -572.95 Q2976.4 -571.55 2978.5 -570.5 3140.9 -461.65 3312.05 -310.8 L3318.0 -305.55 3320.45 -303.1 3336.9 -288.4 Q3342.85 -283.5 3348.45 -278.25 L3353.3 -273.85 3356.15 -271.25 Q3391.85 -238.7 3428.25 -204.05 L3433.5 -199.15 3441.2 -191.8 3462.2 -171.15 3477.25 -155.75 Q3500.7 -131.6 3522.05 -107.45 L3524.5 -104.7 3526.2 -102.75 3534.65 -92.75 Q3584.35 -35.0 3620.75 21.35 L3635.1 44.45 Q3636.85 46.9 3638.25 49.7 3639.65 52.15 3641.4 54.6 L3646.3 63.35 3649.1 68.25 Q3747.45 243.25 3725.05 411.6 L3725.05 411.95 M-3712.1 196.0 L-3711.75 196.0 Q-3666.25 112.7 -3627.75 45.5 -3626.7 44.1 -3626.0 42.35 L-3595.2 -10.5 Q-3528.7 -123.55 -3487.4 -180.95 -3469.55 -205.8 -3456.95 -219.8 -3444.35 -233.45 -3428.25 -247.45 L-3369.8 -291.9 Q-3330.25 -318.85 -3277.75 -347.55 -3203.55 -388.5 -3103.8 -433.3 L-3099.75 -435.2 -3082.1 -443.1 -2980.95 -485.8 Q-2978.85 -486.85 -2976.75 -487.55 L-2971.85 -489.3 Q-2962.75 -493.15 -2952.95 -497.0 L-2929.85 -506.45 Q-2921.45 -509.95 -2912.7 -513.1 -2904.65 -516.6 -2895.9 -519.75 L-2843.4 -540.4 Q-2732.8 -584.15 -2587.2 -639.45 -2584.05 -640.85 -2581.6 -641.55 -2520.0 -665.35 -2452.1 -690.9" fill="none" stroke="#000000" stroke-linecap="butt" stroke-linejoin="miter-clip" stroke-miterlimit="4.0" stroke-opacity="0.6" stroke-width="1.0"/>
  </g>
</svg>
