<?xml version="1.0" encoding="UTF-8" standalone="no"?>
<svg xmlns:xlink="http://www.w3.org/1999/xlink" height="445.1px" width="445.0px" xmlns="http://www.w3.org/2000/svg">
  <g transform="matrix(1.0, 0.0, 0.0, 1.0, 207.75, 222.55)">
    <path d="M101.35 -205.05 Q141.25 -188.15 172.05 -157.35 202.85 -126.55 219.75 -86.55 237.25 -45.25 237.25 0.05 237.25 45.35 219.75 86.65 202.85 126.65 172.05 157.35 141.35 188.15 101.35 205.05 60.05 222.55 14.75 222.55 -30.55 222.55 -71.85 205.05 -111.75 188.15 -142.55 157.35 -173.35 126.55 -190.25 86.65 -207.75 45.35 -207.75 0.05 -207.75 -45.25 -190.25 -86.55 -173.35 -126.55 -142.55 -157.35 -111.75 -188.15 -71.85 -205.05 -30.55 -222.55 14.75 -222.55 60.05 -222.55 101.35 -205.05" fill="#ffffff" fill-opacity="0.0" fill-rule="evenodd" stroke="none"/>
  </g>
</svg>
