<?xml version="1.0" encoding="UTF-8" standalone="no"?>
<svg xmlns:xlink="http://www.w3.org/1999/xlink" height="2187.15px" width="2080.0px" xmlns="http://www.w3.org/2000/svg">
  <g transform="matrix(1.0, 0.0, 0.0, 1.0, 1040.0, 1093.05)">
    <path d="M634.95 1092.2 L484.95 1092.05 474.3 1091.9 471.6 1091.9 463.5 1091.75 463.5 1038.2 Q461.7 973.4 433.35 926.6 402.75 877.55 360.0 877.55 321.3 877.55 292.5 918.05 264.15 958.55 257.85 1019.3 L256.95 1019.3 256.95 1092.2 85.5 1092.2 85.5 1038.2 Q83.7 973.4 55.35 926.6 24.75 877.55 -18.0 877.55 -56.7 877.55 -85.5 918.05 -113.85 958.55 -120.15 1019.3 L-121.05 1019.3 -121.95 1092.2 -292.5 1092.2 -292.5 1040.45 Q-293.85 974.3 -322.65 926.6 -353.25 877.55 -396.0 877.55 -434.25 877.55 -463.05 918.05 -491.85 958.55 -498.15 1019.3 L-499.05 1019.3 -499.05 1092.2 -694.35 1092.2 -694.35 1037.75 Q-696.15 982.85 -717.3 939.65 -740.25 894.2 -775.35 881.6 L-775.35 765.05 754.65 765.05 754.65 879.8 Q745.65 877.55 738.0 877.55 699.3 877.55 670.5 918.05 642.15 958.55 635.85 1019.3 L634.95 1019.3 634.95 1092.2 M-61.35 -618.25 Q-193.2 -603.25 -291.15 -505.75 -406.35 -390.55 -406.35 -227.2 -406.35 -64.3 -291.15 51.35 -205.35 136.85 -93.45 158.9 L-433.35 158.9 -433.35 -618.25 -61.35 -618.25 M68.25 158.9 Q180.15 136.85 265.95 51.35 381.15 -64.3 381.15 -227.2 381.15 -390.55 265.95 -505.75 168.0 -603.25 36.15 -618.25 L412.65 -618.25 412.65 158.9 68.25 158.9 M-887.4 441.05 L877.5 441.05 877.5 508.55 -887.4 508.55 -887.4 441.05" fill="#000000" fill-opacity="0.09803922" fill-rule="evenodd" stroke="none"/>
    <path d="M-628.2 -868.45 L-628.2 -942.25 613.8 -942.25 613.8 -868.45 -628.2 -868.45" fill="#000000" fill-opacity="0.2" fill-rule="evenodd" stroke="none"/>
    <path d="M-694.35 1092.2 L-877.5 1092.2 -877.5 616.55 -1039.5 616.55 -1039.5 346.55 -681.75 346.55 -681.75 -760.45 -830.25 -760.45 -830.25 -868.45 -702.0 -868.45 -702.0 -1092.55 702.0 -1092.55 702.0 -868.45 830.25 -868.45 830.25 -760.45 681.75 -760.45 681.75 346.55 1039.5 346.55 1039.5 616.55 877.5 616.55 877.5 1092.2 634.95 1092.2 634.95 1019.3 635.85 1019.3 Q642.15 958.55 670.5 918.05 699.3 877.55 738.0 877.55 745.65 877.55 754.65 879.8 L754.65 765.05 -775.35 765.05 -775.35 881.6 Q-740.25 894.2 -717.3 939.65 -696.15 982.85 -694.35 1037.75 L-694.35 1092.2 M471.6 1091.9 L256.95 1092.2 256.95 1019.3 257.85 1019.3 Q264.15 958.55 292.5 918.05 321.3 877.55 360.0 877.55 402.75 877.55 433.35 926.6 461.7 973.4 463.5 1038.2 L463.5 1091.75 471.6 1091.9 M85.5 1092.2 L-121.95 1092.2 -121.05 1019.3 -120.15 1019.3 Q-113.85 958.55 -85.5 918.05 -56.7 877.55 -18.0 877.55 24.75 877.55 55.35 926.6 83.7 973.4 85.5 1038.2 L85.5 1092.2 M-292.5 1092.2 L-499.05 1092.2 -499.05 1019.3 -498.15 1019.3 Q-491.85 958.55 -463.05 918.05 -434.25 877.55 -396.0 877.55 -353.25 877.55 -322.65 926.6 -293.85 974.3 -292.5 1040.45 L-292.5 1092.2 M613.8 -868.45 L613.8 -942.25 -628.2 -942.25 -628.2 -868.45 613.8 -868.45 702.0 -868.45 613.8 -868.45 M-61.35 -618.25 Q-37.5 -620.95 -12.6 -620.95 12.3 -620.95 36.15 -618.25 168.0 -603.25 265.95 -505.75 381.15 -390.55 381.15 -227.2 381.15 -64.3 265.95 51.35 180.15 136.85 68.25 158.9 29.4 166.55 -12.6 166.55 -54.6 166.55 -93.45 158.9 -205.35 136.85 -291.15 51.35 -406.35 -64.3 -406.35 -227.2 -406.35 -390.55 -291.15 -505.75 -193.2 -603.25 -61.35 -618.25 M-12.6 -593.95 Q-164.7 -593.95 -271.8 -486.85 -379.35 -379.3 -379.35 -227.2 -379.35 -75.1 -271.8 32.0 -164.25 139.55 -12.6 139.55 139.5 139.55 246.6 32.0 354.15 -75.1 354.15 -227.2 354.15 -379.3 246.6 -486.85 139.5 -593.95 -12.6 -593.95 M484.65 -683.95 L-505.35 -683.95 -505.35 225.05 484.65 225.05 484.65 -683.95 M-681.75 -760.45 L-613.35 -760.45 610.65 -760.45 -613.35 -760.45 -613.35 346.55 610.65 346.55 610.65 -760.45 681.75 -760.45 610.65 -760.45 610.65 346.55 -613.35 346.55 -613.35 -760.45 -681.75 -760.45 M-628.2 -868.45 L-702.0 -868.45 -628.2 -868.45 M-887.4 441.05 L-887.4 508.55 877.5 508.55 877.5 441.05 -887.4 441.05 M-877.5 616.55 L877.5 616.55 -877.5 616.55 M681.75 346.55 L610.65 346.55 681.75 346.55 M-613.35 346.55 L-681.75 346.55 -613.35 346.55" fill="#ffffff" fill-opacity="0.0" fill-rule="evenodd" stroke="none"/>
    <path d="M36.15 -618.25 Q12.3 -620.95 -12.6 -620.95 -37.5 -620.95 -61.35 -618.25 L-433.35 -618.25 -433.35 158.9 -93.45 158.9 Q-54.6 166.55 -12.6 166.55 29.4 166.55 68.25 158.9 L412.65 158.9 412.65 -618.25 36.15 -618.25 M-12.6 -593.95 Q139.5 -593.95 246.6 -486.85 354.15 -379.3 354.15 -227.2 354.15 -75.1 246.6 32.0 139.5 139.55 -12.6 139.55 -164.25 139.55 -271.8 32.0 -379.35 -75.1 -379.35 -227.2 -379.35 -379.3 -271.8 -486.85 -164.7 -593.95 -12.6 -593.95 M484.65 -683.95 L484.65 225.05 -505.35 225.05 -505.35 -683.95 484.65 -683.95" fill="#000000" fill-opacity="0.4" fill-rule="evenodd" stroke="none"/>
    <path d="M-694.35 1092.2 L-877.5 1092.2 -877.5 616.55 -1039.5 616.55 -1039.5 346.55 -681.75 346.55 -681.75 -760.45 -830.25 -760.45 -830.25 -868.45 -702.0 -868.45 -702.0 -1092.55 702.0 -1092.55 702.0 -868.45 830.25 -868.45 830.25 -760.45 681.75 -760.45 681.75 346.55 1039.5 346.55 1039.5 616.55 877.5 616.55 877.5 1092.2 634.95 1092.2 484.95 1092.05 474.3 1091.9 471.6 1091.9 256.95 1092.2 85.5 1092.2 -121.95 1092.2 -292.5 1092.2 -499.05 1092.2 -694.35 1092.2" fill="none" stroke="#000000" stroke-linecap="butt" stroke-linejoin="miter-clip" stroke-miterlimit="4.0" stroke-width="1.0"/>
    <path d="M-628.2 -868.45 L-628.2 -942.25 613.8 -942.25 613.8 -868.45 702.0 -868.45 M36.15 -618.25 Q12.3 -620.95 -12.6 -620.95 -37.5 -620.95 -61.35 -618.25 -193.2 -603.25 -291.15 -505.75 -406.35 -390.55 -406.35 -227.2 -406.35 -64.3 -291.15 51.35 -205.35 136.85 -93.45 158.9 -54.6 166.55 -12.6 166.55 29.4 166.55 68.25 158.9 180.15 136.85 265.95 51.35 381.15 -64.3 381.15 -227.2 381.15 -390.55 265.95 -505.75 168.0 -603.25 36.15 -618.25 M-12.6 -593.95 Q139.5 -593.95 246.6 -486.85 354.15 -379.3 354.15 -227.2 354.15 -75.1 246.6 32.0 139.5 139.55 -12.6 139.55 -164.25 139.55 -271.8 32.0 -379.35 -75.1 -379.35 -227.2 -379.35 -379.3 -271.8 -486.85 -164.7 -593.95 -12.6 -593.95 M-628.2 -868.45 L613.8 -868.45 M610.65 -760.45 L-613.35 -760.45 -613.35 346.55 610.65 346.55 610.65 -760.45 681.75 -760.45 M-702.0 -868.45 L-628.2 -868.45 M-613.35 -760.45 L-681.75 -760.45 M-681.75 346.55 L-613.35 346.55 M610.65 346.55 L681.75 346.55 M877.5 616.55 L-877.5 616.55" fill="none" stroke="#000000" stroke-linecap="butt" stroke-linejoin="miter-clip" stroke-miterlimit="4.0" stroke-opacity="0.6" stroke-width="1.0"/>
  </g>
</svg>
