<?xml version="1.0" encoding="UTF-8" standalone="no"?>
<svg xmlns:xlink="http://www.w3.org/1999/xlink" height="380.15px" width="68.85px" xmlns="http://www.w3.org/2000/svg">
  <g transform="matrix(1.0, 0.0, 0.0, 1.0, -181.2, 35.45)">
    <path d="M181.7 -15.2 Q182.7 -20.25 184.75 -25.05 188.75 -35.15 194.0 -34.95 202.05 -34.75 219.75 -29.9 L218.75 -2.7 Q218.75 10.15 219.75 9.75 L211.7 58.5 240.1 98.15 239.7 135.6 Q239.7 174.3 241.5 180.5 244.15 190.4 249.55 230.05 L246.95 326.7 203.45 344.0 207.5 225.2 199.45 158.35 196.8 93.95 189.95 -5.15 181.7 -15.2" fill="#ffffff" fill-opacity="0.0" fill-rule="evenodd" stroke="none"/>
    <path d="M246.95 326.7 L249.55 230.05 Q244.15 190.4 241.5 180.5 239.7 174.3 239.7 135.6 L240.1 98.15 211.7 58.5 219.75 9.75 Q218.75 10.15 218.75 -2.7 L219.75 -29.9 Q202.05 -34.75 194.0 -34.95 188.75 -35.15 184.75 -25.05 182.7 -20.25 181.7 -15.2" fill="none" stroke="#000000" stroke-linecap="butt" stroke-linejoin="miter-clip" stroke-miterlimit="10.0" stroke-width="1.0"/>
    <path d="M181.7 -15.2 L189.95 -5.15 196.8 93.95 199.45 158.35 207.5 225.2 203.45 344.0 246.95 326.7 Z" fill="none" stroke="#000000" stroke-linecap="butt" stroke-linejoin="miter-clip" stroke-miterlimit="10.0" stroke-opacity="0.2" stroke-width="1.0"/>
    <path d="M186.75 -29.5 L194.0 -34.95 Q202.45 -34.75 219.75 -29.9 L205.25 -10.95 207.3 -0.5 202.65 10.55 203.45 81.45 215.35 117.9 206.25 122.75 211.7 169.05 225.2 205.3 219.75 213.55 237.9 256.45 238.7 324.1 204.45 334.15 204.05 328.1 207.5 225.2 199.45 158.35 196.8 93.95 189.95 -5.15 181.7 -15.2 182.9 -20.25 Q184.55 -25.85 186.75 -29.5" fill="#000000" fill-opacity="0.2" fill-rule="evenodd" stroke="none"/>
  </g>
</svg>
