<?xml version="1.0" encoding="UTF-8" standalone="no"?>
<svg xmlns:xlink="http://www.w3.org/1999/xlink" height="23.65px" width="20.5px" xmlns="http://www.w3.org/2000/svg">
  <g transform="matrix(1.0, 0.0, 0.0, 1.0, 10.1, 11.8)">
    <path d="M0.35 9.3 Q-1.25 10.5 -3.3 11.05 -7.4 12.15 -9.6 8.95 L-9.6 -2.35 -6.2 -6.7 Q-1.6 -11.1 4.65 -11.3 L9.65 -3.05 7.5 -2.35 7.5 4.85 0.35 4.85 0.35 9.3" fill="#ffffff" fill-opacity="0.0" fill-rule="evenodd" stroke="none"/>
    <path d="M0.35 9.3 Q-1.25 10.5 -3.3 11.05 -7.4 12.15 -9.6 8.95 L-9.6 -2.35 -6.2 -6.7 Q-1.6 -11.1 4.65 -11.3 L9.65 -3.05 7.5 -2.35 7.5 4.85 0.35 4.85 0.35 9.3 Z" fill="none" stroke="#000000" stroke-linecap="butt" stroke-linejoin="miter-clip" stroke-miterlimit="10.0" stroke-opacity="0.6" stroke-width="1.0"/>
  </g>
</svg>
