<?xml version="1.0" encoding="UTF-8" standalone="no"?>
<svg xmlns:xlink="http://www.w3.org/1999/xlink" height="12.95px" width="33.45px" xmlns="http://www.w3.org/2000/svg">
  <g transform="matrix(1.0, 0.0, 0.0, 1.0, 16.7, 6.95)">
    <path d="M-8.4 -5.5 L-4.95 -5.2 5.0 -4.85 Q11.75 -5.0 16.05 -3.75 14.35 -0.25 11.3 2.2 6.25 6.15 -0.7 5.4 -6.95 4.75 -11.35 0.95 -14.25 -1.55 -16.0 -5.1 L-8.4 -5.5" fill="#ffffff" fill-opacity="0.0" fill-rule="evenodd" stroke="none"/>
    <path d="M-8.4 -5.5 L-16.0 -5.1 Q-14.25 -1.55 -11.35 0.95 -6.95 4.75 -0.7 5.4 6.25 6.15 11.3 2.2 14.35 -0.25 16.05 -3.75 11.75 -5.0 5.0 -4.85 L-4.95 -5.2 -8.4 -5.5 Z" fill="none" stroke="#000000" stroke-linecap="butt" stroke-linejoin="miter-clip" stroke-miterlimit="10.0" stroke-opacity="0.6" stroke-width="1.0"/>
  </g>
</svg>
