<?xml version="1.0" encoding="UTF-8" standalone="no"?>
<svg xmlns:xlink="http://www.w3.org/1999/xlink" height="123.8px" width="95.4px" xmlns="http://www.w3.org/2000/svg">
  <g transform="matrix(1.0, 0.0, 0.0, 1.0, 47.75, 61.9)">
    <path d="M26.85 -61.0 L26.85 -56.25 28.75 -53.5 33.95 -46.4 Q40.15 -38.35 42.3 -34.4 47.25 -25.1 47.05 -15.65 46.7 -0.5 42.3 14.0 35.85 35.2 21.15 54.15 L17.1 60.15 14.1 60.75 0.65 61.4 -0.75 61.4 -14.2 60.75 -17.2 60.15 -21.2 54.15 Q-35.95 35.2 -42.4 14.0 -46.8 -0.55 -47.15 -15.65 -47.35 -25.1 -42.35 -34.4 -40.2 -38.35 -34.0 -46.4 -29.65 -52.15 -26.95 -56.25 L-26.95 -61.0 Q-22.75 -61.5 -0.05 -61.35 22.7 -61.5 26.85 -61.0" fill="#666600" fill-opacity="0.0" fill-rule="evenodd" stroke="none"/>
    <path d="M26.85 -61.0 Q22.7 -61.5 -0.05 -61.35 -22.75 -61.5 -26.95 -61.0 L-26.95 -56.25 Q-29.65 -52.15 -34.0 -46.4 -40.2 -38.35 -42.35 -34.4 -47.35 -25.1 -47.15 -15.65 -46.8 -0.55 -42.4 14.0 -35.95 35.2 -21.2 54.15 L-17.2 60.15 -14.2 60.75 -0.75 61.4 0.65 61.4 14.1 60.75 17.1 60.15 21.15 54.15 Q35.85 35.2 42.3 14.0 46.7 -0.5 47.05 -15.65 47.25 -25.1 42.3 -34.4 40.15 -38.35 33.95 -46.4 L28.75 -53.5 26.85 -56.25 26.85 -61.0 Z" fill="none" stroke="#000000" stroke-linecap="butt" stroke-linejoin="miter-clip" stroke-miterlimit="10.0" stroke-width="1.0"/>
    <path d="M8.85 -52.65 L0.7 -52.45 -11.85 -52.25 Q-20.1 -52.25 -28.6 -54.1 L-27.0 -56.45 -27.0 -61.2 Q-22.8 -61.7 -0.1 -61.55 22.65 -61.7 26.8 -61.2 L26.8 -56.45 28.7 -53.7 33.9 -46.6 Q40.1 -38.55 42.25 -34.6 47.2 -25.3 47.0 -15.85 46.65 -0.7 42.25 13.8 35.8 35.0 21.1 53.95 L17.05 59.95 14.3 60.55 1.95 61.2 Q25.5 9.05 25.75 7.8 26.85 3.55 27.9 -2.95 29.65 -13.85 29.35 -21.35 29.05 -28.75 24.85 -41.45 L20.7 -52.65 8.85 -52.65" fill="#000000" fill-opacity="0.2" fill-rule="evenodd" stroke="none"/>
    <path d="M32.45 -48.5 L33.85 -46.7 Q18.65 -43.85 3.95 -43.35 -17.45 -42.6 -33.8 -46.95 L-32.0 -49.4 Q-19.05 -47.25 -5.5 -46.6 15.2 -45.65 32.45 -48.5" fill="#000000" fill-opacity="0.2" fill-rule="evenodd" stroke="none"/>
    <path d="M37.95 -41.35 Q21.35 -38.35 5.0 -37.7 -19.5 -36.7 -38.05 -41.4 L-36.3 -43.8 Q-21.95 -41.55 -6.65 -40.9 17.1 -39.85 36.55 -43.15 L37.95 -41.35" fill="#000000" fill-opacity="0.2" fill-rule="evenodd" stroke="none"/>
    <path d="M-44.8 4.6 L-45.5 1.1 Q-35.8 2.7 -28.35 8.2 -16.0 17.35 -14.85 34.7 -13.8 49.5 -14.9 60.45 L-16.75 60.15 -17.25 59.95 -18.1 58.7 Q-16.0 41.45 -19.5 27.5 -22.1 17.0 -30.85 10.75 -36.8 6.45 -44.8 4.6" fill="#000000" fill-opacity="0.2" fill-rule="evenodd" stroke="none"/>
    <path d="M-32.55 17.5 Q-36.95 13.55 -43.15 11.45 L-44.05 8.0 Q-35.6 10.3 -29.9 15.7 -21.55 23.6 -20.7 36.75 -20.0 46.95 -20.4 55.2 L-21.25 53.95 -23.0 51.65 Q-22.4 40.05 -24.75 30.45 -26.7 22.65 -32.55 17.5" fill="#000000" fill-opacity="0.2" fill-rule="evenodd" stroke="none"/>
    <path d="M-40.8 18.8 L-42.15 14.8 Q-35.65 17.85 -31.6 23.1 -26.4 29.9 -25.75 39.9 L-25.35 48.4 -28.0 44.5 Q-28.35 38.9 -29.6 33.9 -32.05 24.15 -40.8 18.8" fill="#000000" fill-opacity="0.2" fill-rule="evenodd" stroke="none"/>
    <path d="M36.5 28.8 Q30.9 29.6 25.95 31.05 15.6 34.15 9.7 43.2 5.7 49.35 4.2 57.4 L0.7 58.25 Q1.9 48.45 7.05 40.75 15.65 28.05 32.95 26.1 L37.95 25.6 36.5 28.8" fill="#000000" fill-opacity="0.2" fill-rule="evenodd" stroke="none"/>
    <path d="M33.35 35.15 L29.1 36.25 Q21.4 38.55 16.5 44.6 12.8 49.1 10.95 55.4 L7.55 56.45 Q9.5 47.95 14.6 42.05 22.0 33.4 35.05 31.9 L33.35 35.15" fill="#000000" fill-opacity="0.2" fill-rule="evenodd" stroke="none"/>
    <path d="M31.65 38.2 L29.25 42.25 Q22.15 45.55 18.2 52.75 L14.25 54.3 Q16.45 48.95 20.2 45.15 24.85 40.35 31.65 38.2" fill="#000000" fill-opacity="0.2" fill-rule="evenodd" stroke="none"/>
  </g>
</svg>
