<?xml version="1.0" encoding="UTF-8" standalone="no"?>
<svg xmlns:xlink="http://www.w3.org/1999/xlink" height="219.65px" width="66.05px" xmlns="http://www.w3.org/2000/svg">
  <g transform="matrix(1.0, 0.0, 0.0, 1.0, 33.05, 109.2)">
    <path d="M5.85 6.0 L-13.55 -16.1 Q-4.85 -18.55 6.15 -6.4 11.6 -0.25 15.35 6.35 L8.25 27.55 5.85 6.0" fill="#b0766a" fill-opacity="0.0" fill-rule="evenodd" stroke="none"/>
    <path d="M5.85 6.0 L8.25 27.55 15.35 6.35 Q11.6 -0.25 6.15 -6.4 -4.85 -18.55 -13.55 -16.1 L5.85 6.0 Z" fill="none" stroke="#000000" stroke-linecap="butt" stroke-linejoin="miter-clip" stroke-miterlimit="10.0" stroke-width="1.0"/>
    <path d="M-32.55 59.2 Q-32.75 55.85 -27.4 53.5 -24.75 52.3 -22.05 51.8 L-6.3 67.55 -0.2 84.65 10.7 107.7 -0.2 95.55 -2.05 92.7 Q-12.35 76.65 -12.35 72.5 -12.35 69.4 -22.45 64.05 L-32.55 59.2" fill="#ffffff" fill-opacity="0.0" fill-rule="evenodd" stroke="none"/>
    <path d="M-32.55 59.2 L-22.45 64.05 Q-12.35 69.4 -12.35 72.5 -12.35 76.65 -2.05 92.7 L-0.2 95.55 10.7 107.7 -0.2 84.65 -6.3 67.55 -22.05 51.8 Q-24.75 52.3 -27.4 53.5 -32.75 55.85 -32.55 59.2 Z" fill="none" stroke="#000000" stroke-linecap="butt" stroke-linejoin="miter-clip" stroke-miterlimit="10.0" stroke-width="1.0"/>
    <path d="M0.5 -97.85 L4.45 -107.75 32.5 -7.6 32.5 33.6 25.25 -13.7 0.5 -97.85" fill="#ffffff" fill-opacity="0.0" fill-rule="evenodd" stroke="none"/>
    <path d="M0.5 -97.85 L25.25 -13.7 32.5 33.6 32.5 -7.6 4.45 -107.75 0.5 -97.85 Z" fill="none" stroke="#000000" stroke-linecap="butt" stroke-linejoin="miter-clip" stroke-miterlimit="10.0" stroke-width="1.0"/>
  </g>
</svg>
