<?xml version="1.0" encoding="UTF-8" standalone="no"?>
<svg xmlns:xlink="http://www.w3.org/1999/xlink" height="303.15px" width="149.05px" xmlns="http://www.w3.org/2000/svg">
  <g transform="matrix(1.0, 0.0, 0.0, 1.0, 72.35, 122.75)">
    <path d="M-26.15 -120.05 L21.7 -122.25 76.1 179.9 -71.8 179.9 -26.15 -120.05" fill="#ffffff" fill-opacity="0.0" fill-rule="evenodd" stroke="none"/>
    <path d="M-26.15 -120.05 L-71.8 179.9 76.1 179.9 21.7 -122.25 -26.15 -120.05 Z" fill="none" stroke="#000000" stroke-linecap="butt" stroke-linejoin="miter-clip" stroke-miterlimit="10.0" stroke-width="1.0"/>
    <path d="M-22.45 169.4 L-22.45 84.65 20.6 84.65 20.6 169.4 -22.45 169.4" fill="#000000" fill-opacity="0.2" fill-rule="evenodd" stroke="none"/>
    <path d="M-22.45 70.85 L-22.45 -13.9 20.6 -13.9 20.6 70.85 -22.45 70.85" fill="#000000" fill-opacity="0.2" fill-rule="evenodd" stroke="none"/>
    <path d="M20.6 -111.0 L20.6 -26.25 -22.45 -26.25 -22.45 -111.0 20.6 -111.0" fill="#000000" fill-opacity="0.2" fill-rule="evenodd" stroke="none"/>
    <path d="M-56.5 175.6 L-65.25 174.85 -23.2 -114.95 -56.5 175.6" fill="#ffffff" fill-opacity="0.6" fill-rule="evenodd" stroke="none"/>
  </g>
</svg>
