<?xml version="1.0" encoding="UTF-8" standalone="no"?>
<svg xmlns:xlink="http://www.w3.org/1999/xlink" height="234.65px" width="42.5px" xmlns="http://www.w3.org/2000/svg">
  <g transform="matrix(1.0, 0.0, 0.0, 1.0, 21.3, 89.25)">
    <path d="M18.1 108.05 L20.05 106.8 21.2 108.05 16.5 113.25 Q10.8 120.9 0.75 121.25 -1.25 121.35 -2.0 123.3 -2.45 124.4 -2.7 126.75 -3.15 128.55 -3.1 131.4 L-2.95 136.9 0.45 133.9 4.25 131.2 Q6.5 129.65 8.3 128.85 9.9 128.1 10.8 128.85 11.65 129.65 11.35 131.45 L10.55 136.6 Q10.25 139.05 10.4 139.7 10.8 141.25 12.9 141.75 14.15 142.05 14.1 143.0 14.0 143.85 13.05 144.45 11.45 145.35 9.3 145.35 L-14.1 145.4 -12.1 144.7 Q-9.75 142.85 -9.75 142.2 L-10.5 128.45 -20.85 131.05 -21.3 130.0 -16.95 122.75 Q-14.15 118.65 -9.9 117.95 -8.8 117.8 -8.25 116.5 -8.0 116.05 -9.35 114.95 -13.0 111.75 -10.6 108.8 -9.4 107.4 -7.65 107.35 -5.9 107.35 -4.05 108.65 -1.25 110.7 -1.5 113.2 -1.6 115.7 -4.7 117.95 L-0.75 117.95 Q10.55 118.2 16.45 109.55 L18.1 108.05 M6.8 134.7 L3.5 138.9 7.4 139.6 7.4 134.85 6.8 134.7 M-10.7 126.35 L-12.05 122.2 -16.1 127.45 -10.7 126.35" fill="#ffffff" fill-opacity="0.0" fill-rule="evenodd" stroke="none"/>
    <path d="M13.15 26.45 L6.1 25.2 Q2.1 24.3 1.15 20.0 L-0.75 24.1 Q1.7 26.9 5.55 28.05 L12.6 29.4 14.4 29.75 Q15.1 30.1 14.75 31.2 L13.7 31.9 12.25 32.1 -0.8 30.8 Q-1.35 30.8 -2.05 31.2 L-3.4 32.05 -3.0 32.9 13.65 32.9 Q13.35 37.0 9.75 39.9 6.15 42.65 0.85 42.95 -5.2 43.35 -9.9 40.55 -14.6 37.7 -15.5 33.0 L-6.55 33.0 -6.4 31.95 -15.95 31.1 -16.0 30.85 -13.45 30.5 -10.95 30.25 -8.0 30.55 -4.9 30.65 -7.5 28.8 Q-11.3 26.4 -13.0 24.3 -15.35 21.4 -15.25 17.55 -15.25 17.15 -16.1 16.45 L-17.35 15.6 -14.9 13.7 Q-12.7 12.45 -12.05 12.5 -9.45 13.0 -8.1 11.75 -7.0 10.75 -6.45 8.2 L-5.9 7.15 Q-5.5 11.7 -8.45 13.9 -10.6 15.5 -8.6 17.85 L-7.2 18.0 Q-6.05 17.8 -5.5 17.3 -3.7 15.45 -1.35 12.0 0.45 9.55 1.15 9.45 1.9 9.35 4.25 11.25 L16.45 21.15 9.0 21.15 13.15 26.45" fill="#ffffff" fill-opacity="0.0" fill-rule="evenodd" stroke="none"/>
    <path d="M-8.1 -81.85 L-3.75 -71.0 Q-3.15 -74.8 -0.15 -76.9 1.85 -78.2 6.45 -79.5 3.5 -80.6 2.8 -81.35 1.55 -82.7 2.2 -85.45 2.8 -88.1 4.3 -88.85 L7.85 -89.2 Q12.7 -89.0 12.3 -83.9 L11.6 -73.8 11.0 -63.65 Q10.85 -61.6 11.05 -58.15 L11.3 -52.75 Q11.2 -50.9 10.35 -46.55 L15.85 -43.25 -13.05 -43.25 Q-13.6 -43.25 -14.4 -43.8 L-15.8 -44.65 -14.9 -46.0 -13.9 -47.15 -7.05 -50.45 -11.0 -57.35 -11.45 -59.1 -11.75 -61.05 -9.55 -61.15 -7.5 -60.9 Q-3.95 -59.2 2.85 -55.1 4.3 -58.4 3.2 -63.3 1.75 -69.6 1.85 -71.25 L0.85 -71.5 -3.75 -62.8 -14.6 -79.8 -13.2 -80.7 -6.75 -71.15 -6.25 -71.35 -9.75 -81.2 -8.1 -81.85" fill="#ffffff" fill-opacity="0.0" fill-rule="evenodd" stroke="none"/>
  </g>
</svg>
