<?xml version="1.0" encoding="UTF-8" standalone="no"?>
<svg xmlns:xlink="http://www.w3.org/1999/xlink" height="32.1px" width="72.6px" xmlns="http://www.w3.org/2000/svg">
  <g transform="matrix(1.0, 0.0, 0.0, 1.0, 36.3, 16.0)">
    <path d="M10.4 6.2 L12.75 4.45 Q15.4 2.5 16.95 1.8 15.4 3.0 13.6 5.6 12.3 7.75 9.9 10.0 5.1 14.55 -0.35 15.3 L-12.7 14.9 Q-18.45 13.75 -21.15 11.35 -23.0 9.7 -28.85 8.85 -34.45 8.0 -35.15 7.05 L-31.5 7.55 -24.05 7.25 -20.05 6.4 -23.55 8.35 Q-22.6 9.05 -21.05 9.15 -17.85 9.3 -14.5 6.2 L-15.9 8.5 Q-12.7 10.05 -7.8 10.55 1.9 11.5 10.4 6.2" fill="#ffffff" fill-opacity="0.0" fill-rule="evenodd" stroke="none"/>
    <path d="M13.55 -6.75 Q19.15 -4.25 22.4 -4.7 L23.8 -6.05 27.15 -8.95 Q32.35 -13.1 34.75 -12.75 L35.6 -11.25 Q36.2 -9.15 35.2 -6.45 L32.8 0.25 Q33.6 2.75 34.05 5.8 34.85 11.8 32.9 14.3 L29.3 11.6 Q25.3 8.1 23.35 4.4 21.2 0.25 18.4 1.2 16.15 1.9 13.3 5.9 11.95 8.05 9.5 10.3 4.65 14.85 -0.8 15.4 L-13.0 14.75 Q-18.6 13.55 -21.3 11.2 -23.15 9.6 -28.9 8.8 -34.4 8.1 -35.15 7.15 -35.8 6.1 -35.8 4.95 -33.7 4.2 -30.2 4.85 L-29.0 4.95 Q-29.0 4.15 -29.45 3.05 -30.3 0.85 -32.35 -0.45 L-32.65 -1.25 Q-32.8 -2.15 -32.0 -2.5 L-30.7 -4.3 Q-28.85 -6.35 -26.05 -7.7 -23.45 -10.15 -19.2 -12.35 -10.65 -16.65 -2.2 -15.05 L-0.35 -14.6 Q2.1 -13.75 4.95 -11.7 9.05 -8.75 13.55 -6.75 Z" fill="none" stroke="#000000" stroke-linecap="butt" stroke-linejoin="miter-clip" stroke-miterlimit="10.0" stroke-opacity="0.8" stroke-width="1.0"/>
  </g>
</svg>
