<?xml version="1.0" encoding="UTF-8" standalone="no"?>
<svg xmlns:xlink="http://www.w3.org/1999/xlink" height="93.0px" width="1120.1px" xmlns="http://www.w3.org/2000/svg">
  <g transform="matrix(1.0, 0.0, 0.0, 1.0, 560.05, 46.5)">
    <path d="M22.75 -2.6 Q22.25 -3.6 20.95 -4.3 18.35 -5.5 14.45 -3.6 L22.75 -2.6 M156.15 -1.9 L140.85 -0.5 185.25 2.7 Q176.05 -2.6 171.45 -2.6 L156.15 -1.9 M94.75 -1.5 L88.05 -0.5 Q89.95 2.1 92.55 0.6 L94.75 -1.5 M48.25 -2.6 L42.15 -1.9 Q37.25 -1.2 35.95 -0.5 L53.75 2.7 Q50.05 -2.6 48.25 -2.6 M121.75 -4.3 Q120.25 -5.5 117.95 -3.6 L122.85 -2.6 Q122.55 -3.6 121.75 -4.3 M287.95 -1.5 L271.05 -0.5 Q275.85 2.1 282.35 0.6 285.65 -0.2 287.95 -1.5 M358.45 -2.6 Q357.65 -3.6 355.75 -4.3 351.95 -5.5 346.15 -3.6 L358.45 -2.6 M364.55 -0.9 L357.55 -0.1 Q351.95 0.8 350.55 1.5 L371.05 4.2 Q366.75 -1.0 364.55 -0.9 M449.05 -4.6 Q447.35 -5.9 444.75 -3.9 L450.35 -3.0 Q449.95 -4.0 449.05 -4.6 M73.35 3.7 L67.15 0.6 Q65.25 0.6 69.15 2.2 L73.35 3.7 M108.85 5.8 L103.95 1.6 Q102.05 4.9 105.25 5.7 L108.85 5.8 M234.35 3.7 L218.95 0.6 Q214.25 0.6 223.85 2.2 L234.35 3.7 M323.15 5.8 L310.95 1.6 Q306.15 4.9 314.15 5.7 318.15 6.1 323.15 5.8 M393.55 4.6 L386.45 1.7 Q384.25 1.8 388.65 3.2 L393.55 4.6 M410.35 0.1 Q412.65 2.6 415.55 1.0 417.05 0.1 418.05 -1.2 L410.35 0.1 M434.45 5.7 L428.65 1.7 Q426.55 5.0 430.25 5.7 432.15 6.0 434.45 5.7 M-525.15 -46.0 L-193.45 -46.0 -144.45 -25.2 -142.0 -9.0 473.45 -9.0 559.55 12.8 -138.75 12.8 -559.55 12.8 -559.55 -25.2 -358.15 -25.2 -364.45 -27.8 -367.65 -29.3 -388.45 -31.4 -398.55 -29.8 -406.25 -28.3 -427.05 -29.3 -433.95 -29.8 -438.55 -30.4 -452.15 -33.5 -467.75 -34.5 -488.65 -33.5 Q-491.85 -33.5 -499.45 -36.6 L-500.6 -37.1 -475.75 -34.5 Q-482.05 -39.8 -485.15 -39.8 L-495.55 -39.1 -503.1 -38.3 -506.35 -39.8 -525.15 -46.0 M-144.45 -25.2 L-358.15 -25.2 -144.45 -25.2 M-390.25 -35.6 Q-393.45 -32.3 -387.95 -31.5 -385.25 -31.1 -381.85 -31.4 L-390.25 -35.6 M-405.85 -38.7 L-417.35 -37.7 Q-414.05 -35.1 -409.65 -36.6 -407.45 -37.4 -405.85 -38.7 M-452.85 -36.6 Q-456.05 -36.6 -449.55 -35.0 L-442.35 -33.5 -452.85 -36.6 M-359.65 -41.5 Q-362.35 -42.7 -366.25 -40.8 L-357.85 -39.8 Q-358.35 -40.8 -359.65 -41.5 M-338.45 -39.1 Q-346.75 -38.4 -348.85 -37.7 L-318.65 -34.5 Q-324.85 -39.8 -328.05 -39.8 L-338.45 -39.1 M-248.75 -38.7 L-260.25 -37.7 Q-256.95 -35.1 -252.55 -36.6 -250.25 -37.4 -248.75 -38.7 M-285.25 -33.5 L-295.65 -36.6 Q-298.85 -36.6 -292.35 -35.0 L-285.25 -33.5 M-209.15 -40.8 L-200.75 -39.8 Q-201.25 -40.8 -202.55 -41.5 -205.25 -42.7 -209.15 -40.8 M-224.75 -31.4 L-233.05 -35.6 Q-236.35 -32.3 -230.85 -31.5 -228.15 -31.1 -224.75 -31.4 M-142.0 -9.0 L-141.8 -7.6 -142.0 -9.0 M-61.75 3.7 L-72.15 0.6 Q-75.35 0.6 -68.85 2.2 L-61.75 3.7 M-1.25 5.8 L-9.55 1.6 Q-12.75 4.9 -7.35 5.7 -4.65 6.1 -1.25 5.8 M-25.25 -1.5 L-36.65 -0.5 Q-33.35 2.1 -28.95 0.6 -26.75 -0.2 -25.25 -1.5 M-104.45 -2.6 L-114.85 -1.9 Q-123.15 -1.2 -125.35 -0.5 L-95.05 2.7 Q-101.35 -2.6 -104.45 -2.6 M-141.8 -7.6 L-138.75 12.8 -141.8 -7.6" fill="#ffffff" fill-opacity="0.0" fill-rule="evenodd" stroke="none"/>
    <path d="M22.75 -2.6 L14.45 -3.6 Q18.35 -5.5 20.95 -4.3 22.25 -3.6 22.75 -2.6 M48.25 -2.6 Q50.05 -2.6 53.75 2.7 L35.95 -0.5 Q37.25 -1.2 42.15 -1.9 L48.25 -2.6 M94.75 -1.5 L92.55 0.6 Q89.95 2.1 88.05 -0.5 L94.75 -1.5 M156.15 -1.9 L171.45 -2.6 Q176.05 -2.6 185.25 2.7 L140.85 -0.5 156.15 -1.9 M121.75 -4.3 Q122.55 -3.6 122.85 -2.6 L117.95 -3.6 Q120.25 -5.5 121.75 -4.3 M287.95 -1.5 Q285.65 -0.2 282.35 0.6 275.85 2.1 271.05 -0.5 L287.95 -1.5 M358.45 -2.6 L346.15 -3.6 Q351.95 -5.5 355.75 -4.3 357.65 -3.6 358.45 -2.6 M364.55 -0.9 Q366.75 -1.0 371.05 4.2 L350.55 1.5 Q351.95 0.8 357.55 -0.1 L364.55 -0.9 M449.05 -4.6 Q449.95 -4.0 450.35 -3.0 L444.75 -3.9 Q447.35 -5.9 449.05 -4.6 M434.45 5.7 Q432.15 6.0 430.25 5.7 426.55 5.0 428.65 1.7 L434.45 5.7 M410.35 0.1 L418.05 -1.2 Q417.05 0.1 415.55 1.0 412.65 2.6 410.35 0.1 M393.55 4.6 L388.65 3.2 Q384.25 1.8 386.45 1.7 L393.55 4.6 M323.15 5.8 Q318.15 6.1 314.15 5.7 306.15 4.9 310.95 1.6 L323.15 5.8 M234.35 3.7 L223.85 2.2 Q214.25 0.6 218.95 0.6 L234.35 3.7 M108.85 5.8 L105.25 5.7 Q102.05 4.9 103.95 1.6 L108.85 5.8 M73.35 3.7 L69.15 2.2 Q65.25 0.6 67.15 0.6 L73.35 3.7 M-559.55 -25.2 L-532.85 -46.0 -525.15 -46.0 -506.35 -39.8 -503.1 -38.3 -495.55 -39.1 -485.15 -39.8 Q-482.05 -39.8 -475.75 -34.5 L-500.6 -37.1 -499.45 -36.6 Q-491.85 -33.5 -488.65 -33.5 L-467.75 -34.5 -452.15 -33.5 -438.55 -30.4 -433.95 -29.8 -427.05 -29.3 -406.25 -28.3 -398.55 -29.8 -388.45 -31.4 -367.65 -29.3 -364.45 -27.8 -358.15 -25.2 -559.55 -25.2 M-452.85 -36.6 L-442.35 -33.5 -449.55 -35.0 Q-456.05 -36.6 -452.85 -36.6 M-405.85 -38.7 Q-407.45 -37.4 -409.65 -36.6 -414.05 -35.1 -417.35 -37.7 L-405.85 -38.7 M-390.25 -35.6 L-381.85 -31.4 Q-385.25 -31.1 -387.95 -31.5 -393.45 -32.3 -390.25 -35.6 M-359.65 -41.5 Q-358.35 -40.8 -357.85 -39.8 L-366.25 -40.8 Q-362.35 -42.7 -359.65 -41.5 M-338.45 -39.1 L-328.05 -39.8 Q-324.85 -39.8 -318.65 -34.5 L-348.85 -37.7 Q-346.75 -38.4 -338.45 -39.1 M-285.25 -33.5 L-292.35 -35.0 Q-298.85 -36.6 -295.65 -36.6 L-285.25 -33.5 M-248.75 -38.7 Q-250.25 -37.4 -252.55 -36.6 -256.95 -35.1 -260.25 -37.7 L-248.75 -38.7 M-209.15 -40.8 Q-205.25 -42.7 -202.55 -41.5 -201.25 -40.8 -200.75 -39.8 L-209.15 -40.8 M-224.75 -31.4 Q-228.15 -31.1 -230.85 -31.5 -236.35 -32.3 -233.05 -35.6 L-224.75 -31.4 M-104.45 -2.6 Q-101.35 -2.6 -95.05 2.7 L-125.35 -0.5 Q-123.15 -1.2 -114.85 -1.9 L-104.45 -2.6 M-25.25 -1.5 Q-26.75 -0.2 -28.95 0.6 -33.35 2.1 -36.65 -0.5 L-25.25 -1.5 M-1.25 5.8 Q-4.65 6.1 -7.35 5.7 -12.75 4.9 -9.55 1.6 L-1.25 5.8 M-61.75 3.7 L-68.85 2.2 Q-75.35 0.6 -72.15 0.6 L-61.75 3.7" fill="#000000" fill-opacity="0.2" fill-rule="evenodd" stroke="none"/>
    <path d="M559.55 19.0 L559.55 46.0 -559.55 46.0 -559.55 19.0 559.55 19.0" fill="#000000" fill-opacity="0.14901961" fill-rule="evenodd" stroke="none"/>
    <path d="M-559.55 19.0 L-559.55 46.0 559.55 46.0 559.55 19.0 M-525.15 -46.0 L-193.45 -46.0 -144.45 -25.2 -142.0 -9.0 473.45 -9.0 559.55 12.8 M-559.55 12.8 L-559.55 -25.2 -532.85 -46.0 -525.15 -46.0 M-141.8 -7.6 L-142.0 -9.0" fill="none" stroke="#000000" stroke-linecap="butt" stroke-linejoin="miter-clip" stroke-miterlimit="4.0" stroke-width="1.0"/>
    <path d="M559.55 19.0 L-559.55 19.0 M559.55 12.8 L-138.75 12.8 -559.55 12.8 M-358.15 -25.2 L-144.45 -25.2 M-358.15 -25.2 L-559.55 -25.2 M-138.75 12.8 L-141.8 -7.6" fill="none" stroke="#000000" stroke-linecap="butt" stroke-linejoin="miter-clip" stroke-miterlimit="4.0" stroke-opacity="0.6" stroke-width="1.0"/>
  </g>
</svg>
