<?xml version="1.0" encoding="UTF-8" standalone="no"?>
<svg xmlns:xlink="http://www.w3.org/1999/xlink" height="156.6px" width="399.5px" xmlns="http://www.w3.org/2000/svg">
  <g transform="matrix(1.0, 0.0, 0.0, 1.0, 199.75, 78.05)">
    <path d="M-82.6 -23.1 Q-84.55 -28.45 -82.1 -35.75 L-79.25 -41.95 -77.55 -42.45 -73.3 -42.85 Q-66.35 -42.6 -61.45 -36.75 -55.05 -29.1 -47.65 -27.2 -39.3 -25.05 -31.15 -31.0 L-27.7 -33.3 Q-23.25 -36.05 -17.8 -38.45 -12.55 -40.7 -7.45 -42.2 L-7.1 -42.35 -4.8 -43.35 Q-6.65 -39.95 -5.35 -36.4 L-3.75 -34.7 Q-1.3 -32.8 3.05 -31.9 -2.65 -29.45 -7.1 -25.55 -11.1 -22.05 -14.05 -17.4 L-64.85 -17.4 Q-73.15 -21.1 -82.6 -23.1 M90.7 -0.65 Q96.6 -7.3 97.4 -11.7 L102.75 10.3 98.2 19.55 Q93.0 29.75 89.7 34.55 90.8 31.45 90.35 29.1 89.65 25.5 85.5 24.45 85.0 25.8 83.5 26.5 80.5 27.95 75.55 24.95 73.7 23.85 79.0 15.1 84.05 6.8 90.7 -0.65 M103.1 -78.05 Q103.3 -77.1 106.85 -72.15 L99.55 -69.0 96.15 -67.4 94.05 -72.3 103.1 -78.05" fill="#000000" fill-rule="evenodd" stroke="none"/>
    <path d="M5.0 -15.55 L11.6 -15.1 Q13.95 -14.35 14.35 -13.2 L20.9 -1.05 Q27.45 11.75 27.45 15.05 27.45 18.3 25.35 20.4 L23.25 21.85 19.45 21.6 21.2 20.4 Q23.25 18.3 23.25 15.05 23.25 11.75 16.75 -1.05 L10.2 -13.2 Q9.8 -14.35 7.45 -15.1 L5.0 -15.55 M-2.05 -14.25 L-2.9 -14.25 -2.7 -14.3 -2.55 -14.3 -2.05 -14.25 M76.25 -17.85 Q72.75 -20.5 68.6 -21.2 57.8 -23.15 46.45 -21.9 L37.2 -20.2 Q34.6 -19.15 32.1 -16.9 27.15 -12.45 27.8 -6.6 28.45 -0.5 31.05 3.15 29.4 1.95 28.15 0.4 26.9 -1.1 26.05 -3.0 25.45 -4.4 25.0 -6.2 L24.3 -10.05 Q23.65 -15.95 28.6 -20.4 31.1 -22.6 33.7 -23.65 L42.95 -25.35 65.1 -24.7 65.7 -24.55 Q70.15 -23.65 73.55 -20.75 L76.35 -17.8 76.25 -17.85 M-0.45 35.45 L40.0 36.5 38.95 38.9 -1.15 38.2 Q-7.75 38.2 -9.5 36.8 L-8.45 33.35 -5.65 34.4 Q-2.4 35.45 -0.45 35.45 M-50.25 15.45 L-55.05 10.35 -60.65 5.25 Q-72.95 -5.05 -87.6 -9.85 -67.85 -4.75 -52.15 9.4 L-47.6 13.8 -47.4 14.0 Q-30.9 31.05 -23.4 54.55 L-26.2 62.65 Q-29.95 71.15 -34.65 73.3 -31.65 69.55 -29.25 62.9 L-27.5 56.95 Q-34.65 33.1 -50.25 15.45" fill="#ffffff" fill-rule="evenodd" stroke="none"/>
    <path d="M3.05 -31.9 L4.0 -31.7 Q1.2 -30.55 -1.25 -29.05 1.65 -30.5 4.95 -31.55 L5.0 -31.55 11.05 -31.15 26.35 -30.45 29.85 -30.25 33.0 -30.1 36.1 -29.9 37.1 -29.85 42.2 -29.7 45.1 -29.6 47.95 -29.5 51.5 -29.4 53.2 -29.35 54.15 -29.35 66.05 -29.2 67.6 -29.25 67.65 -29.25 67.7 -29.2 66.05 -29.2 67.7 -29.2 Q71.05 -28.25 74.1 -27.0 L74.7 -26.8 Q80.45 -24.5 85.1 -21.5 93.65 -15.95 93.55 -9.8 93.45 -4.55 86.7 3.55 80.05 11.5 75.0 20.3 69.65 29.6 71.5 30.8 L72.7 31.5 Q76.8 33.75 79.45 32.4 80.95 31.6 81.45 30.2 86.7 31.6 86.45 37.15 86.3 39.95 85.1 42.45 L84.8 43.45 Q87.8 39.7 88.95 36.15 90.15 33.8 90.25 31.2 90.5 26.0 85.4 24.7 L85.5 24.45 Q90.7 25.75 90.45 31.0 90.35 33.6 89.15 35.95 85.9 45.75 71.0 54.65 66.35 57.45 61.1 59.8 L56.75 61.6 -1.4 63.05 -6.55 63.15 Q-12.3 60.15 -16.4 48.15 -18.1 43.15 -19.55 36.55 -21.05 29.55 -22.05 21.6 L-22.25 19.5 -17.8 17.2 Q-12.55 13.4 -11.25 7.2 -9.95 1.0 -8.9 -5.95 L-8.1 -11.65 -9.15 -17.4 -11.6 -17.4 -14.05 -17.4 Q-11.1 -22.05 -7.1 -25.55 -2.65 -29.45 3.05 -31.9 M77.25 -29.45 L77.4 -29.45 77.9 -29.5 Q84.1 -27.2 89.15 -24.2 97.7 -19.0 97.6 -13.2 97.5 -8.25 90.7 -0.65 84.05 6.8 79.0 15.1 73.7 23.85 75.55 24.95 80.5 27.95 83.5 26.5 L84.65 25.8 83.3 26.7 Q80.35 28.1 75.55 25.25 L75.35 25.15 Q73.5 24.05 78.8 15.3 83.85 7.0 90.5 -0.45 97.3 -8.05 97.4 -13.0 97.5 -18.8 88.95 -24.0 83.8 -27.15 77.25 -29.45 M-193.9 55.95 Q-199.25 51.9 -199.25 46.5 -197.05 38.15 -193.85 28.15 -187.45 8.05 -182.35 -0.45 L-179.95 -3.15 Q-177.15 -5.8 -175.35 -5.4 L-166.4 -4.5 -153.75 -3.55 -153.9 -3.3 Q-160.8 2.9 -167.65 10.05 -176.75 19.55 -179.4 24.55 L-179.6 24.9 -181.45 27.65 -186.65 36.85 -187.65 38.85 -191.8 49.05 -193.4 54.2 -193.9 55.95 M19.45 21.6 L23.25 21.85 25.35 20.4 Q27.45 18.3 27.45 15.05 27.45 11.75 20.9 -1.05 L14.35 -13.2 Q13.95 -14.35 11.6 -15.1 L5.0 -15.55 Q0.5 -16.0 -7.05 -14.25 L-2.7 -14.3 -2.9 -14.25 -2.05 -14.25 Q2.4 -13.85 3.9 -11.65 5.8 -9.0 9.6 2.15 13.3 13.05 13.3 15.55 13.3 17.5 8.1 19.35 L2.85 20.8 19.1 21.85 19.45 21.6 M76.25 -17.85 L76.35 -17.8 73.55 -20.75 Q70.15 -23.65 65.7 -24.55 L65.1 -24.7 42.95 -25.35 33.7 -23.65 Q31.1 -22.6 28.6 -20.4 23.65 -15.95 24.3 -10.05 L25.0 -6.2 Q25.45 -4.4 26.05 -3.0 26.9 -1.1 28.15 0.4 29.4 1.95 31.05 3.15 39.35 9.1 59.35 7.7 69.85 6.95 75.25 2.2 80.0 -1.95 79.85 -8.1 79.75 -13.4 76.25 -17.85 M75.55 24.95 L75.55 25.25 75.55 24.95 M146.4 -13.75 Q146.8 -12.2 146.5 -10.4 L146.05 -10.05 Q131.35 0.65 123.65 18.75 119.85 27.75 118.95 34.65 L114.5 39.85 Q113.85 40.5 112.95 40.1 L112.15 39.6 Q112.65 17.25 127.4 -1.25 134.75 -10.5 142.0 -15.3 145.6 -16.75 146.4 -13.75 M152.75 -21.05 Q157.6 -23.45 163.15 -25.05 180.85 -30.25 199.0 -25.5 L199.25 -25.25 Q199.35 -24.85 198.7 -24.2 197.65 -23.15 187.75 -20.55 183.55 -21.2 176.85 -20.45 163.35 -19.0 150.6 -12.15 149.35 -13.25 148.55 -14.65 146.95 -17.5 149.05 -18.95 L152.75 -21.05 M-7.4 29.6 Q-1.25 32.6 4.95 32.3 12.6 31.9 30.9 32.25 L57.25 33.35 70.15 32.9 Q71.6 32.4 72.7 31.5 71.6 32.4 70.15 32.9 L57.25 33.35 30.9 32.25 Q12.6 31.9 4.95 32.3 -1.25 32.6 -7.4 29.6 L-7.6 29.5 -7.4 29.6 M-1.4 63.05 Q-11.4 52.3 -10.5 39.85 -10.25 35.95 -8.9 32.35 L-7.6 29.5 -8.9 32.35 Q-10.25 35.95 -10.5 39.85 -11.4 52.3 -1.4 63.05 M-0.45 35.45 Q-2.4 35.45 -5.65 34.4 L-8.45 33.35 -9.5 36.8 Q-7.75 38.2 -1.15 38.2 L38.95 38.9 40.0 36.5 -0.45 35.45 M-7.6 29.5 L-12.3 26.55 Q-14.9 29.8 -15.9 39.3 -16.4 44.05 -16.4 48.15 -16.4 44.05 -15.9 39.3 -14.9 29.8 -12.3 26.55 L-7.6 29.5" fill="#000000" fill-opacity="0.29803923" fill-rule="evenodd" stroke="none"/>
    <path d="M51.4 -67.8 L45.7 -66.05 37.1 -63.05 30.4 -60.45 Q22.75 -57.3 17.1 -54.45 9.45 -50.65 5.45 -47.45 -1.7 -41.75 0.4 -36.1 L0.3 -35.75 Q0.25 -35.3 0.5 -34.85 1.4 -39.4 8.8 -44.3 12.15 -46.5 17.1 -49.0 22.9 -51.9 30.9 -55.25 L37.1 -57.7 45.7 -60.7 51.5 -62.45 57.25 -64.0 Q65.0 -65.95 71.55 -66.8 L74.1 -67.1 75.7 -67.2 80.55 -67.25 Q84.7 -66.85 87.95 -60.2 89.55 -56.9 90.35 -53.65 91.2 -51.6 91.65 -48.9 91.5 -54.9 89.85 -58.85 89.05 -62.1 87.45 -65.4 84.2 -72.05 80.05 -72.45 L75.7 -72.45 71.1 -72.05 64.65 -71.0 56.75 -69.25 51.4 -67.8 M3.05 -31.9 Q-0.15 -32.55 -2.4 -33.8 -3.85 -34.6 -4.75 -35.6 L-5.35 -36.4 Q-7.65 -42.6 0.25 -48.9 5.65 -53.25 17.1 -58.55 21.9 -60.8 27.8 -63.25 L37.1 -66.85 39.8 -67.8 45.7 -69.75 49.85 -71.0 56.85 -72.9 60.65 -73.8 72.65 -76.0 82.55 -76.5 Q87.1 -76.05 90.7 -68.75 92.5 -65.05 93.35 -61.5 96.1 -54.9 95.1 -45.2 94.05 -35.0 89.5 -31.5 L88.9 -31.1 88.7 -31.05 88.5 -30.95 88.3 -30.9 Q85.45 -29.9 77.9 -29.5 L77.4 -29.45 77.25 -29.45 76.15 -29.4 75.7 -29.4 69.85 -29.25 67.65 -29.25 67.6 -29.25 66.05 -29.2 54.15 -29.35 53.2 -29.35 51.5 -29.4 47.95 -29.5 45.1 -29.6 26.35 -30.45 45.1 -29.6 42.2 -29.7 33.0 -30.1 29.85 -30.25 26.35 -30.45 11.05 -31.15 5.0 -31.55 4.95 -31.55 4.0 -31.7 3.05 -31.9 M-23.0 54.55 L-26.05 63.2 Q-30.15 72.15 -35.25 73.7 L-58.0 73.7 Q-65.6 69.25 -76.1 65.35 -97.1 57.65 -111.7 60.75 -124.55 63.45 -146.0 71.25 -164.75 78.05 -167.15 78.05 L-181.0 77.45 -190.5 76.8 -193.2 73.65 Q-195.95 70.1 -196.35 68.15 -196.0 64.6 -194.7 59.0 L-193.9 55.95 -193.4 54.2 -191.8 49.05 -187.65 38.85 -186.95 37.4 -186.65 36.85 -181.45 27.65 -179.6 24.9 -179.4 24.55 Q-163.65 1.95 -136.8 -7.25 -98.05 -20.5 -65.05 -0.45 -57.75 3.95 -51.4 9.75 L-46.7 14.3 Q-42.8 18.35 -39.3 23.0 -28.55 37.2 -23.0 54.55 M-64.75 -17.4 L-14.05 -17.4 -11.6 -17.4 -11.25 -15.45 -12.05 -9.8 Q-13.1 -2.85 -14.4 3.35 -15.7 9.55 -20.95 13.35 L-25.9 15.9 -31.35 15.7 -32.35 13.8 -35.05 9.15 Q-40.8 -0.2 -47.55 -6.25 L-47.8 -6.5 Q-50.75 -9.15 -54.15 -11.5 -57.85 -14.0 -61.95 -16.05 L-64.75 -17.4 M-50.25 15.45 Q-34.65 33.1 -27.5 56.95 L-29.25 62.9 Q-31.65 69.55 -34.65 73.3 -29.95 71.15 -26.2 62.65 L-23.4 54.55 Q-30.9 31.05 -47.4 14.0 L-47.6 13.8 -52.15 9.4 Q-67.85 -4.75 -87.6 -9.85 -72.95 -5.05 -60.65 5.25 L-55.05 10.35 -50.25 15.45" fill="#ffffff" fill-opacity="0.0" fill-rule="evenodd" stroke="none"/>
    <path d="M51.4 -67.8 L56.75 -69.25 64.65 -71.0 71.1 -72.05 75.7 -72.45 80.05 -72.45 Q84.2 -72.05 87.45 -65.4 89.05 -62.1 89.85 -58.85 91.5 -54.9 91.65 -48.9 91.2 -51.6 90.35 -53.65 89.55 -56.9 87.95 -60.2 84.7 -66.85 80.55 -67.25 L75.7 -67.2 74.1 -67.1 71.55 -66.8 Q65.0 -65.95 57.25 -64.0 L51.5 -62.45 45.7 -60.7 37.1 -57.7 30.9 -55.25 Q22.9 -51.9 17.1 -49.0 12.15 -46.5 8.8 -44.3 1.4 -39.4 0.5 -34.85 0.25 -35.3 0.3 -35.75 L0.4 -36.1 Q-1.7 -41.75 5.45 -47.45 9.45 -50.65 17.1 -54.45 22.75 -57.3 30.4 -60.45 L37.1 -63.05 45.7 -66.05 51.4 -67.8 M4.0 -31.7 L4.95 -31.55 Q1.65 -30.5 -1.25 -29.05 1.2 -30.55 4.0 -31.7 M67.65 -29.25 L69.85 -29.25 75.7 -29.4 76.15 -29.4 77.25 -29.45 Q83.8 -27.15 88.95 -24.0 97.5 -18.8 97.4 -13.0 97.3 -8.05 90.5 -0.45 83.85 7.0 78.8 15.3 73.5 24.05 75.35 25.15 L75.55 25.25 Q80.35 28.1 83.3 26.7 L84.65 25.8 85.3 24.65 85.4 24.7 Q90.5 26.0 90.25 31.2 90.15 33.8 88.95 36.15 87.8 39.7 84.8 43.45 L85.1 42.45 Q86.3 39.95 86.45 37.15 86.7 31.6 81.45 30.2 80.95 31.6 79.45 32.4 76.8 33.75 72.7 31.5 L71.5 30.8 Q69.65 29.6 75.0 20.3 80.05 11.5 86.7 3.55 93.45 -4.55 93.55 -9.8 93.65 -15.95 85.1 -21.5 80.45 -24.5 74.7 -26.8 L74.1 -27.0 Q71.05 -28.25 67.7 -29.2 L69.85 -29.25 67.7 -29.2 67.65 -29.25 M75.55 25.25 Q75.2 29.4 72.7 31.5 75.2 29.4 75.55 25.25" fill="#ffffff" fill-opacity="0.4" fill-rule="evenodd" stroke="none"/>
    <path d="M-29.5 19.45 Q-26.2 26.4 -24.0 33.8 -22.1 40.2 -22.35 48.0 -22.5 51.9 -23.0 54.55 -28.55 37.2 -39.3 23.0 -42.8 18.35 -46.7 14.3 L-51.4 9.75 Q-57.75 3.95 -65.05 -0.45 -98.05 -20.5 -136.8 -7.25 L-143.65 -6.55 -151.4 -5.4 -153.9 -3.3 -153.75 -3.55 -166.4 -4.5 Q-164.2 -8.25 -160.0 -11.9 L-156.2 -14.85 Q-151.5 -17.9 -143.15 -20.2 L-129.3 -23.25 Q-108.05 -27.6 -86.65 -23.9 -74.5 -21.8 -64.75 -17.4 L-61.95 -16.05 Q-57.85 -14.0 -54.15 -11.5 -50.75 -9.15 -47.8 -6.5 L-47.55 -6.25 Q-40.8 -0.2 -35.05 9.15 L-33.45 11.9 -32.35 13.8 -31.35 15.7 -29.5 19.45 M5.0 -15.55 L7.45 -15.1 Q9.8 -14.35 10.2 -13.2 L16.75 -1.05 Q23.25 11.75 23.25 15.05 23.25 18.3 21.2 20.4 L19.45 21.6 19.1 21.85 2.85 20.8 8.1 19.35 Q13.3 17.5 13.3 15.55 13.3 13.05 9.6 2.15 5.8 -9.0 3.9 -11.65 2.4 -13.85 -2.05 -14.25 L-2.55 -14.3 -2.7 -14.3 -7.05 -14.25 Q0.5 -16.0 5.0 -15.55 M31.05 3.15 Q28.45 -0.5 27.8 -6.6 27.15 -12.45 32.1 -16.9 34.6 -19.15 37.2 -20.2 L46.45 -21.9 Q57.8 -23.15 68.6 -21.2 72.75 -20.5 76.25 -17.85 79.75 -13.4 79.85 -8.1 80.0 -1.95 75.25 2.2 69.85 6.95 59.35 7.7 39.35 9.1 31.05 3.15" fill="#ffffff" fill-opacity="0.29803923" fill-rule="evenodd" stroke="none"/>
    <path d="M-22.25 19.5 L-22.75 19.75 -26.0 19.75 -29.5 19.45 -31.35 15.7 -25.9 15.9 -20.95 13.35 Q-15.7 9.55 -14.4 3.35 -13.1 -2.85 -12.05 -9.8 L-11.25 -15.45 -11.6 -17.4 -9.15 -17.4 -8.1 -11.65 -8.9 -5.95 Q-9.95 1.0 -11.25 7.2 -12.55 13.4 -17.8 17.2 L-22.25 19.5" fill="#000000" fill-opacity="0.2" fill-rule="evenodd" stroke="none"/>
    <path d="M77.9 -29.5 Q85.45 -29.9 88.3 -30.9 L88.5 -30.95 88.7 -31.05 88.9 -31.1 89.5 -31.5 Q94.05 -35.0 95.1 -45.2 96.1 -54.9 93.35 -61.5 92.5 -65.05 90.7 -68.75 87.1 -76.05 82.55 -76.5 L72.65 -76.0 60.65 -73.8 56.85 -72.9 49.85 -71.0 45.7 -69.75 39.8 -67.8 37.1 -66.85 27.8 -63.25 Q21.9 -60.8 17.1 -58.55 5.65 -53.25 0.25 -48.9 -7.65 -42.6 -5.35 -36.4 L-4.75 -35.6 Q-3.85 -34.6 -2.4 -33.8 -0.15 -32.55 3.05 -31.9 L4.0 -31.7 M4.95 -31.55 L5.0 -31.55 M77.25 -29.45 L77.4 -29.45 77.9 -29.5 Q84.1 -27.2 89.15 -24.2 97.7 -19.0 97.6 -13.2 97.5 -8.25 90.7 -0.65 84.05 6.8 79.0 15.1 73.7 23.85 75.55 24.95 80.5 27.95 83.5 26.5 L84.65 25.8 M85.4 24.7 L85.5 24.45 Q90.7 25.75 90.45 31.0 90.35 33.6 89.15 35.95 85.9 45.75 71.0 54.65 66.35 57.45 61.1 59.8 L56.75 61.6 -1.4 63.05 -6.55 63.15 Q-12.3 60.15 -16.4 48.15 -18.1 43.15 -19.55 36.55 -21.05 29.55 -22.05 21.6 L-22.25 19.5 M-29.5 19.45 Q-26.2 26.4 -24.0 33.8 -22.1 40.2 -22.35 48.0 -22.5 51.9 -23.0 54.55 L-26.05 63.2 Q-30.15 72.15 -35.25 73.7 L-58.0 73.7 Q-65.6 69.25 -76.1 65.35 -97.1 57.65 -111.7 60.75 -124.55 63.45 -146.0 71.25 -164.75 78.05 -167.15 78.05 L-181.0 77.45 -190.5 76.8 -193.2 73.65 Q-195.95 70.1 -196.35 68.15 -196.0 64.6 -194.7 59.0 L-193.9 55.95 Q-199.25 51.9 -199.25 46.5 -197.05 38.15 -193.85 28.15 -187.45 8.05 -182.35 -0.45 L-179.95 -3.15 Q-177.15 -5.8 -175.35 -5.4 L-166.4 -4.5 Q-164.2 -8.25 -160.0 -11.9 L-156.2 -14.85 Q-151.5 -17.9 -143.15 -20.2 L-129.3 -23.25 Q-108.05 -27.6 -86.65 -23.9 -74.5 -21.8 -64.75 -17.4 L-61.95 -16.05 Q-57.85 -14.0 -54.15 -11.5 -50.75 -9.15 -47.8 -6.5 L-47.55 -6.25 Q-40.8 -0.2 -35.05 9.15 L-33.45 11.9 -32.35 13.8 -31.35 15.7 -29.5 19.45 M-14.05 -17.4 Q-11.1 -22.05 -7.1 -25.55 -2.65 -29.45 3.05 -31.9 M75.55 25.25 L75.55 24.95 M-7.4 29.6 L-7.6 29.5 M-153.9 -3.3 L-153.75 -3.55 -166.4 -4.5 M-187.65 38.85 L-186.65 36.85 M-179.4 24.55 Q-163.65 1.95 -136.8 -7.25" fill="none" stroke="#000000" stroke-linecap="butt" stroke-linejoin="miter-clip" stroke-miterlimit="4.0" stroke-width="1.0"/>
    <path d="M4.0 -31.7 L4.95 -31.55 M5.0 -31.55 L11.05 -31.15 26.35 -30.45 45.1 -29.6 47.95 -29.5 51.5 -29.4 53.2 -29.35 54.15 -29.35 66.05 -29.2 67.6 -29.25 67.65 -29.25 69.85 -29.25 75.7 -29.4 76.15 -29.4 77.25 -29.45 M42.2 -29.7 L37.1 -29.85 36.1 -29.9 33.0 -30.1 29.85 -30.25 26.35 -30.45 M67.7 -29.2 L69.85 -29.25 M66.05 -29.2 L67.7 -29.2 M42.2 -29.7 L45.1 -29.6 M33.0 -30.1 L42.2 -29.7 M72.7 31.5 Q71.6 32.4 70.15 32.9 L57.25 33.35 30.9 32.25 Q12.6 31.9 4.95 32.3 -1.25 32.6 -7.4 29.6 M-7.6 29.5 L-8.9 32.35 Q-10.25 35.95 -10.5 39.85 -11.4 52.3 -1.4 63.05 M72.7 31.5 Q75.2 29.4 75.55 25.25 M-153.9 -3.3 L-151.4 -5.4 -143.65 -6.55 -136.8 -7.25 Q-98.05 -20.5 -65.05 -0.45 -57.75 3.95 -51.4 9.75 L-46.7 14.3 Q-42.8 18.35 -39.3 23.0 -28.55 37.2 -23.0 54.55 M-16.4 48.15 Q-16.4 44.05 -15.9 39.3 -14.9 29.8 -12.3 26.55 L-7.6 29.5 M-179.4 24.55 Q-176.75 19.55 -167.65 10.05 -160.8 2.9 -153.9 -3.3 M-193.9 55.95 L-193.4 54.2 -191.8 49.05 -187.65 38.85 -186.95 37.4 -186.65 36.85 -181.45 27.65 -179.6 24.9 -179.4 24.55" fill="none" stroke="#000000" stroke-linecap="butt" stroke-linejoin="miter-clip" stroke-miterlimit="4.0" stroke-opacity="0.6" stroke-width="1.0"/>
    <path d="M146.4 -13.75 Q145.6 -16.75 142.0 -15.3 134.75 -10.5 127.4 -1.25 112.65 17.25 112.15 39.6 L112.95 40.1 Q113.85 40.5 114.5 39.85 L118.95 34.65 Q119.85 27.75 123.65 18.75 131.35 0.65 146.05 -10.05 L146.5 -10.4 Q146.8 -12.2 146.4 -13.75 M152.75 -21.05 Q157.6 -23.45 163.15 -25.05 180.85 -30.25 199.0 -25.5 L199.25 -25.25 Q199.35 -24.85 198.7 -24.2 197.65 -23.15 187.75 -20.55 183.55 -21.2 176.85 -20.45 163.35 -19.0 150.6 -12.15 149.35 -13.25 148.55 -14.65 146.95 -17.5 149.05 -18.95 L152.75 -21.05" fill="none" stroke="#231f20" stroke-linecap="butt" stroke-linejoin="miter-clip" stroke-miterlimit="4.0" stroke-width="1.0"/>
    <path d="M-166.65 -0.45 Q-162.5 -2.65 -155.25 -2.35 -162.35 4.15 -168.7 10.85 -177.4 20.05 -179.8 24.8 -182.55 23.9 -177.05 13.05 -171.5 2.1 -166.65 -0.45" fill="#ffffff" fill-rule="evenodd" stroke="none"/>
    <path d="M-29.6 19.35 Q-37.4 2.8 -47.85 -6.5 -55.05 -13.0 -64.9 -17.4 L-9.2 -17.4 -8.15 -11.65 Q-9.2 -2.75 -11.3 7.2 -12.6 13.4 -17.85 17.2 -20.45 19.1 -22.8 19.75 L-29.6 19.35" fill="#ffffff" fill-opacity="0.0" fill-rule="evenodd" stroke="none"/>
    <path d="M-29.6 19.35 L-22.8 19.75" fill="none" stroke="#000000" stroke-linecap="butt" stroke-linejoin="miter-clip" stroke-miterlimit="4.0" stroke-width="1.0"/>
    <path d="M-22.8 19.75 Q-20.45 19.1 -17.85 17.2 -12.6 13.4 -11.3 7.2 -9.2 -2.75 -8.15 -11.65 L-9.2 -17.4 -64.9 -17.4 Q-55.05 -13.0 -47.85 -6.5 -37.4 2.8 -29.6 19.35 Z" fill="none" stroke="#000000" stroke-linecap="butt" stroke-linejoin="miter-clip" stroke-miterlimit="4.0" stroke-opacity="0.6" stroke-width="1.0"/>
  </g>
</svg>
