<?xml version="1.0" encoding="UTF-8" standalone="no"?>
<svg xmlns:xlink="http://www.w3.org/1999/xlink" height="63.1px" width="71.35px" xmlns="http://www.w3.org/2000/svg">
  <g transform="matrix(1.0, 0.0, 0.0, 1.0, 35.65, 31.55)">
    <path d="M24.9 21.95 Q14.6 31.05 0.05 31.05 -14.55 31.05 -24.85 21.95 -35.15 12.85 -35.15 0.0 -35.15 -12.85 -24.85 -21.95 -14.55 -31.05 0.05 -31.05 14.6 -31.05 24.9 -21.95 35.2 -12.85 35.2 0.0 35.2 12.85 24.9 21.95" fill="#ffffff" fill-opacity="0.0" fill-rule="evenodd" stroke="none"/>
    <path d="M24.9 21.95 Q14.6 31.05 0.05 31.05 -14.55 31.05 -24.85 21.95 -35.15 12.85 -35.15 0.0 -35.15 -12.85 -24.85 -21.95 -14.55 -31.05 0.05 -31.05 14.6 -31.05 24.9 -21.95 35.2 -12.85 35.2 0.0 35.2 12.85 24.9 21.95 Z" fill="none" stroke="#000000" stroke-linecap="butt" stroke-linejoin="miter-clip" stroke-miterlimit="4.0" stroke-width="1.0"/>
    <path d="M25.65 -19.75 Q24.4 -20.15 25.2 -18.5 26.5 -15.75 26.75 -6.15 L26.8 2.4 Q26.8 -5.05 22.5 -13.15 18.5 -20.6 15.7 -21.3 13.75 -21.75 13.5 -12.25 13.4 -7.5 13.65 -2.65 L10.8 -11.8 Q7.6 -20.85 5.7 -20.55 3.75 -20.2 2.1 -6.8 1.25 -0.1 0.8 6.5 0.95 -6.9 -1.65 -14.7 -3.8 -21.1 -6.4 -20.8 -10.1 -20.3 -11.55 -4.0 -12.25 4.15 -12.25 12.2 -16.4 3.25 -17.6 -9.45 L-17.95 -20.3 Q-24.2 -13.4 -24.6 1.0 -24.85 8.2 -23.8 14.0 -31.15 1.85 -28.2 -9.95 -27.25 -13.6 -25.3 -17.35 L-23.35 -21.05 Q-22.9 -22.8 -24.55 -22.2 -19.7 -26.4 -13.45 -28.65 -7.0 -31.05 0.05 -31.05 8.85 -31.05 16.6 -27.4 24.1 -23.85 28.95 -17.7 L25.65 -19.75" fill="#000000" fill-opacity="0.14901961" fill-rule="evenodd" stroke="none"/>
    <path d="M18.8 -24.3 L21.45 -20.65 Q24.35 -15.85 25.8 -10.45 30.4 6.9 18.5 24.35 M9.55 -25.1 L10.85 -21.75 Q12.25 -17.3 13.0 -11.95 15.3 5.15 9.85 25.0 M0.8 -25.5 L0.8 25.25 M-18.15 -24.9 L-20.8 -21.1 Q-23.75 -16.15 -25.25 -10.55 -29.95 7.25 -18.1 24.75 M-9.2 -25.3 L-10.45 -21.9 Q-11.9 -17.4 -12.6 -12.0 -14.95 5.25 -9.5 25.15" fill="none" stroke="#000000" stroke-linecap="butt" stroke-linejoin="miter-clip" stroke-miterlimit="4.0" stroke-opacity="0.4" stroke-width="1.0"/>
  </g>
</svg>
