<?xml version="1.0" encoding="UTF-8" standalone="no"?>
<svg xmlns:xlink="http://www.w3.org/1999/xlink" height="51.0px" width="51.0px" xmlns="http://www.w3.org/2000/svg">
  <g transform="matrix(1.0, 0.0, 0.0, 1.0, 25.5, 25.5)">
    <path d="M-17.8 -17.8 Q-10.6 -25.0 -0.2 -25.0 10.2 -25.0 17.8 -17.8 25.0 -10.2 25.0 0.2 25.0 10.6 17.8 17.8 10.2 25.0 -0.2 25.0 -10.2 25.0 -17.8 17.8 -25.0 10.6 -25.0 0.2 -25.0 -10.2 -17.8 -17.8" fill="#000000" fill-opacity="0.29803923" fill-rule="evenodd" stroke="none"/>
    <path d="M-17.8 -17.8 Q-25.0 -10.2 -25.0 0.2 -25.0 10.6 -17.8 17.8 -10.2 25.0 -0.2 25.0 10.2 25.0 17.8 17.8 25.0 10.6 25.0 0.2 25.0 -10.2 17.8 -17.8 10.2 -25.0 -0.2 -25.0 -10.6 -25.0 -17.8 -17.8 Z" fill="none" stroke="#000000" stroke-linecap="butt" stroke-linejoin="miter-clip" stroke-miterlimit="10.0" stroke-width="1.0"/>
  </g>
</svg>
