<?xml version="1.0" encoding="UTF-8" standalone="no"?>
<svg xmlns:xlink="http://www.w3.org/1999/xlink" height="245.85px" width="431.5px" xmlns="http://www.w3.org/2000/svg">
  <g transform="matrix(1.0, 0.0, 0.0, 1.0, 216.55, 123.6)">
    <path d="M-3.55 5.85 L214.95 -25.75 214.95 -2.4 214.85 -2.4 -3.55 30.35 -3.55 5.85 M214.95 17.25 L214.95 78.55 -3.55 121.75 -3.55 55.8 214.95 17.25" fill="#ffffff" fill-opacity="0.0" fill-rule="evenodd" stroke="none"/>
    <path d="M-3.55 121.75 L-216.05 -9.15 -216.05 -122.7 -3.55 5.85 -3.55 30.35 214.85 -2.4 214.95 -2.4 214.95 17.25 -3.55 55.8 -3.55 121.75 M-3.55 30.35 L-3.55 55.8 -3.55 30.35" fill="#000000" fill-opacity="0.4" fill-rule="evenodd" stroke="none"/>
    <path d="M-3.55 5.85 L214.95 -25.75 214.95 -2.4 214.95 17.25 214.95 78.55 -3.55 121.75 -3.55 55.8 -3.55 30.35 -3.55 5.85" fill="none" stroke="#000000" stroke-linecap="butt" stroke-linejoin="miter-clip" stroke-miterlimit="4.0" stroke-width="0.05"/>
    <path d="M-3.55 121.75 L-216.05 -9.15 -216.05 -122.7 -3.55 5.85" fill="none" stroke="#000000" stroke-linecap="butt" stroke-linejoin="miter-clip" stroke-miterlimit="4.0" stroke-width="1.0"/>
    <path d="M-3.55 55.8 L214.95 17.25" fill="none" stroke="#000000" stroke-linecap="butt" stroke-linejoin="miter-clip" stroke-miterlimit="4.0" stroke-opacity="0.6" stroke-width="0.05"/>
  </g>
</svg>
