<?xml version="1.0" encoding="UTF-8" standalone="no"?>
<svg xmlns:xlink="http://www.w3.org/1999/xlink" height="775.6px" width="553.45px" xmlns="http://www.w3.org/2000/svg">
  <g transform="matrix(1.0, 0.0, 0.0, 1.0, 277.55, 386.0)">
    <path d="M53.8 -225.15 L55.4 -218.05 57.15 -208.85 58.5 -198.45 Q59.4 -191.6 60.25 -186.7 L82.5 -170.3 105.15 -138.8 Q125.5 -113.4 138.0 -107.7 141.05 -106.3 143.65 -106.1 L142.1 -100.15 124.25 -100.15 127.3 -86.85 127.05 -86.15 126.75 -85.5 130.2 -76.55 130.15 -76.5 140.55 -53.05 Q161.5 -53.05 179.7 -37.9 186.35 -32.45 198.6 -17.3 L237.45 33.4 Q245.75 37.15 252.25 43.1 255.3 46.0 256.85 48.2 256.15 50.4 252.6 73.25 L252.5 73.95 Q250.65 85.6 249.75 88.8 L264.15 89.0 274.7 96.45 275.4 140.55 267.2 182.95 271.65 236.4 273.15 287.1 275.4 287.1 275.4 389.1 -99.95 389.1 -99.95 191.8 -96.2 182.95 -99.95 154.35 -99.95 95.45 -79.85 85.25 63.45 85.25 Q72.65 87.3 90.0 92.05 L136.15 90.5 168.85 87.6 218.2 88.25 222.45 83.95 225.5 52.8 Q219.9 41.75 179.55 10.25 138.35 -20.2 134.6 -23.3 130.0 -27.05 115.55 -32.15 L101.95 -36.55 89.8 -56.7 90.95 -57.7 Q84.1 -51.8 77.6 -47.55 62.1 -37.35 55.3 -42.25 48.65 -46.85 33.5 -52.5 L19.55 -57.05 Q15.15 -60.6 10.1 -63.9 2.4 -60.45 -7.7 -52.2 -16.55 -45.05 -23.2 -38.1 L-10.95 -22.45 Q1.0 -4.75 -0.9 6.5 L-1.1 7.9 -1.5 20.3 Q-1.15 27.2 0.3 35.6 L1.65 42.95 Q1.7 42.7 2.0 43.45 L3.3 47.05 4.2 49.65 4.2 49.7 4.3 49.95 4.3 50.05 4.35 50.2 6.6 57.25 Q9.65 66.85 10.8 73.95 11.75 79.95 11.35 84.15 L11.3 85.0 -50.5 85.0 Q-38.75 78.7 -31.95 73.95 -26.85 70.35 -24.55 67.6 -17.05 58.6 -23.2 45.3 -28.8 33.25 -36.95 4.45 L-44.1 -21.75 Q-50.95 -28.55 -55.35 -36.05 -60.1 -43.7 -58.95 -47.1 -57.9 -49.85 -44.3 -71.8 L-39.15 -79.3 -39.0 -79.35 -42.7 -78.15 -43.0 -78.0 -43.1 -78.0 -42.85 -78.3 -41.7 -79.75 Q-34.3 -89.05 -24.2 -99.6 L-16.15 -107.7 Q-0.15 -123.15 12.2 -129.4 L13.6 -130.1 -2.25 -163.3 -1.5 -164.1 -2.2 -163.4 Q-4.65 -165.95 -13.5 -173.75 L-32.15 -190.6 -58.35 -214.75 -86.6 -268.35 -107.8 -274.3 -109.4 -272.8 Q-112.65 -270.05 -116.75 -267.85 -130.85 -260.2 -147.7 -260.85 -207.8 -261.9 -243.55 -291.7 -269.4 -313.1 -275.7 -341.35 -279.45 -358.05 -272.8 -367.75 L-265.3 -374.05 -250.5 -372.7 -249.0 -381.55 Q-221.05 -389.9 -181.6 -380.7 -161.85 -375.9 -147.7 -369.65 L-148.95 -351.7 -145.55 -349.7 Q-134.95 -343.15 -126.85 -334.95 L-124.8 -332.7 -124.25 -332.1 -121.75 -329.15 -118.65 -325.05 -101.6 -325.05 Q-99.2 -317.3 -98.15 -310.45 L-97.7 -306.8 -75.75 -301.1 Q-65.55 -301.1 -54.65 -294.3 -49.35 -291.05 -45.95 -287.65 L-43.55 -287.9 -40.3 -287.9 -19.25 -283.2 -13.3 -284.75 Q-6.15 -286.45 -0.85 -286.45 L0.55 -286.4 3.25 -286.1 Q12.1 -284.75 33.0 -278.8 44.95 -274.2 95.5 -243.05 105.65 -236.25 120.05 -208.75 L123.05 -202.85 Q131.25 -186.35 137.2 -171.55 L128.35 -170.0 120.85 -159.65 Q117.95 -167.15 113.7 -175.45 105.55 -192.15 99.9 -196.75 95.5 -200.45 88.3 -208.75 L84.75 -212.9 76.1 -223.65 50.9 -240.0 53.8 -225.15" fill="#ffffff" fill-opacity="0.0" fill-rule="evenodd" stroke="none"/>
    <path d="M-130.05 -283.35 L-161.05 -274.4 -165.5 -274.55 -169.55 -274.85 -170.2 -274.9 -175.7 -275.6 -179.15 -276.2 -187.45 -278.45 -193.7 -280.15 -200.05 -281.9 Q-230.3 -292.55 -247.7 -311.75 -264.85 -331.0 -259.05 -347.6 -258.25 -349.95 -256.95 -352.1 L-254.5 -355.6 -253.55 -356.65 Q-247.75 -362.95 -237.25 -366.25 L-236.4 -366.45 -229.7 -368.1 -225.25 -368.85 -225.0 -368.85 -224.95 -368.85 -223.4 -369.05 -215.95 -369.5 Q-207.05 -369.65 -197.05 -368.1 L-197.25 -367.85 Q-208.25 -356.6 -206.95 -342.95 -205.1 -320.75 -169.65 -299.75 -148.3 -287.1 -130.05 -283.35 L-119.0 -286.55 Q-122.35 -283.55 -124.45 -282.2 L-130.05 -283.35 M-32.9 140.4 L-18.6 139.95 -15.7 220.05 -0.9 287.1 70.6 309.4 Q161.5 299.05 165.95 300.55 L181.6 301.05 197.25 300.55 Q199.45 300.55 208.3 302.95 L208.3 334.8 -32.9 334.8 -32.9 140.4 M51.2 -45.85 Q40.8 -56.25 25.35 -94.35 L11.9 -130.25 51.2 -45.85" fill="#000000" fill-opacity="0.4" fill-rule="evenodd" stroke="none"/>
    <path d="M-243.55 -291.7 Q-269.4 -313.1 -275.7 -341.35 -279.45 -358.05 -272.8 -367.75 L-265.3 -374.05 -250.5 -372.7 -249.0 -381.55 Q-221.05 -389.9 -181.6 -380.7 -161.85 -375.9 -147.7 -369.65 L-148.95 -351.7 -145.55 -349.7 Q-134.95 -343.15 -126.85 -334.95 L-124.8 -332.7 -122.35 -332.35 -121.75 -329.15 -118.65 -325.05 -101.6 -325.05 Q-99.2 -317.3 -98.15 -310.45 L-97.7 -306.8 Q-96.35 -292.2 -101.9 -282.0 -104.25 -277.8 -107.8 -274.3 L-109.4 -272.8 Q-112.65 -270.05 -116.75 -267.85 -130.85 -260.2 -147.7 -260.85 -207.8 -261.9 -243.55 -291.7 M-130.05 -283.35 L-124.45 -282.2 Q-122.35 -283.55 -119.0 -286.55 L-130.05 -283.35 Q-148.3 -287.1 -169.65 -299.75 -205.1 -320.75 -206.95 -342.95 -208.25 -356.6 -197.25 -367.85 L-197.05 -368.1 Q-207.05 -369.65 -215.95 -369.5 L-224.25 -369.0 -224.95 -368.85 -225.0 -368.85 -225.25 -368.85 -229.7 -368.1 -236.4 -366.45 -237.25 -366.25 Q-247.75 -362.95 -253.55 -356.65 L-254.5 -355.6 -256.95 -352.1 Q-258.25 -349.95 -259.05 -347.6 -264.85 -331.0 -247.7 -311.75 -230.3 -292.55 -200.05 -281.9 L-193.7 -280.15 -187.45 -278.45 -179.15 -276.2 -175.7 -275.6 -172.3 -275.1 -170.2 -274.9 -169.55 -274.85 -165.5 -274.55 -161.05 -274.4 -130.05 -283.35" fill="#000000" fill-opacity="0.29803923" fill-rule="evenodd" stroke="none"/>
    <path d="M4.65 -169.3 L7.05 -171.05 4.2 -169.0 4.65 -169.3 M-86.6 -268.35 L-107.8 -274.3 Q-104.25 -277.8 -101.9 -282.0 -71.95 -271.45 -58.35 -271.45 L-58.35 -283.35 -44.6 -269.7 Q-28.25 -254.4 -15.15 -246.05 L-36.05 -241.65 -20.6 -221.55 Q-14.2 -214.6 -7.35 -208.75 7.8 -195.75 25.05 -188.05 L31.3 -182.5 26.55 -180.9 Q21.65 -179.25 18.2 -177.55 L18.3 -177.45 Q29.65 -169.15 35.15 -165.2 44.65 -158.35 51.6 -154.2 75.35 -140.05 92.4 -134.5 L49.35 -133.15 71.1 -119.35 73.1 -118.25 Q85.85 -111.45 97.0 -107.7 107.25 -104.25 116.2 -103.35 L80.5 -100.3 92.9 -96.75 Q108.9 -92.15 126.25 -87.55 L126.75 -85.5 130.2 -76.55 130.15 -76.5 Q115.4 -66.7 110.8 -59.05 L131.7 -41.15 Q129.5 -48.65 140.4 -41.65 150.8 -35.05 161.5 -23.3 174.8 -8.3 216.5 27.45 L233.0 48.2 222.45 83.95 225.5 52.8 Q219.9 41.75 179.55 10.25 138.35 -20.2 134.6 -23.3 130.0 -27.05 115.55 -32.15 L101.95 -36.55 89.8 -56.7 90.95 -57.7 Q84.1 -51.8 77.6 -47.55 62.1 -37.35 55.3 -42.25 48.65 -46.85 33.5 -52.5 L19.55 -57.05 Q15.15 -60.6 10.1 -63.9 L10.1 -63.95 9.85 -64.05 6.3 -66.3 6.0 -66.55 2.45 -68.55 1.45 -69.15 Q-1.35 -70.75 -4.9 -72.45 -9.3 -74.6 -13.6 -76.15 L-23.35 -79.15 -30.0 -80.05 -36.25 -79.85 -39.0 -79.35 -42.7 -78.15 -43.0 -78.0 -43.1 -78.0 -42.85 -78.3 -41.7 -79.75 Q-34.3 -89.05 -24.2 -99.6 L-16.15 -107.7 Q-0.15 -123.15 12.2 -129.4 L25.35 -94.35 Q40.8 -56.25 51.2 -45.85 L12.3 -129.45 13.6 -130.1 -2.25 -163.3 -1.5 -164.1 -2.2 -163.4 Q-4.65 -165.95 -13.5 -173.75 L-32.15 -190.6 -58.35 -214.75 -86.6 -268.35 M93.5 -60.0 L97.9 -64.1 96.1 -62.45 93.5 -60.0 M131.7 141.25 L197.25 142.6 191.8 139.55 208.3 139.55 208.3 302.95 Q199.45 300.55 197.25 300.55 L181.6 301.05 165.95 300.55 Q161.5 299.05 70.6 309.4 L-0.9 287.1 -15.7 220.05 -18.6 139.95 -11.25 139.7 33.35 142.6 61.75 148.55 131.7 141.25 M-99.95 95.45 L-85.8 112.8 -81.25 194.85 -84.3 223.1 -90.25 233.5 -81.25 266.2 -85.8 354.2 -88.7 382.45 -92.1 389.1 -99.95 389.1 -99.95 191.8 -96.2 182.95 -99.95 154.35 -99.95 95.45 M99.9 -66.1 L99.35 -65.5 101.8 -67.95 99.9 -66.1" fill="#000000" fill-opacity="0.2" fill-rule="evenodd" stroke="none"/>
    <path d="M-107.8 -274.3 L-86.6 -268.35 -58.35 -214.75 -32.15 -190.6 -13.5 -173.75 Q-4.65 -165.95 -2.2 -163.4 L-1.5 -164.1 -0.05 -165.5 0.0 -165.55 3.45 -168.45 4.2 -169.0 4.65 -169.3 7.05 -171.05 7.55 -171.4 8.05 -171.7 18.2 -177.55 Q21.65 -179.25 26.55 -180.9 L33.3 -183.0 39.65 -184.6 59.8 -186.6 60.25 -186.7 Q59.4 -191.6 58.5 -198.45 L57.15 -208.85 55.4 -218.05 53.8 -225.15 50.9 -240.0 76.1 -223.65 84.75 -212.9 88.3 -208.75 Q95.5 -200.45 99.9 -196.75 105.55 -192.15 113.7 -175.45 117.95 -167.15 120.85 -159.65 L128.35 -170.0 137.2 -171.55 Q131.25 -186.35 123.05 -202.85 L120.05 -208.75 Q105.65 -236.25 95.5 -243.05 44.95 -274.2 33.0 -278.8 12.1 -284.75 3.25 -286.1 L0.55 -286.4 -0.85 -286.45 Q-6.15 -286.45 -13.3 -284.75 L-19.25 -283.2 -40.3 -287.9 -43.55 -287.9 -45.95 -287.65 Q-49.35 -291.05 -54.65 -294.3 -65.55 -301.1 -75.75 -301.1 L-97.7 -306.8 M60.25 -186.7 L82.5 -170.3 105.15 -138.8 Q125.5 -113.4 138.0 -107.7 141.05 -106.3 143.65 -106.1 L142.1 -100.15 124.25 -100.15 127.3 -86.85 127.05 -86.15 126.75 -85.5 130.2 -76.55 130.15 -76.5 140.55 -53.05 Q161.5 -53.05 179.7 -37.9 186.35 -32.45 198.6 -17.3 L237.45 33.4 Q245.75 37.15 252.25 43.1 255.3 46.0 256.85 48.2 256.15 50.4 252.6 73.25 L252.5 73.95 Q250.65 85.6 249.75 88.8 L264.15 89.0 274.7 96.45 275.4 140.55 267.2 182.95 271.65 236.4 273.15 287.1 275.4 287.1 275.4 389.1 -99.95 389.1 -99.95 191.8 -96.2 182.95 -99.95 154.35 -99.95 95.45 -79.85 85.25 63.45 85.25 Q72.65 87.3 90.0 92.05 L136.15 90.5 168.85 87.6 218.2 88.25 222.45 83.95 225.5 52.8 Q219.9 41.75 179.55 10.25 138.35 -20.2 134.6 -23.3 130.0 -27.05 115.55 -32.15 L101.95 -36.55 89.8 -56.7 90.95 -57.7 Q84.1 -51.8 77.6 -47.55 62.1 -37.35 55.3 -42.25 48.65 -46.85 33.5 -52.5 L19.55 -57.05 Q15.15 -60.6 10.1 -63.9 2.4 -60.45 -7.7 -52.2 -16.55 -45.05 -23.2 -38.1 L-10.95 -22.45 Q1.0 -4.75 -0.9 6.5 L-1.1 7.9 -1.5 20.3 Q-1.15 27.2 0.3 35.6 L1.65 42.95 Q1.7 42.7 2.0 43.45 L3.3 47.05 4.2 49.65 4.2 49.7 4.3 49.95 4.3 50.05 4.35 50.2 6.6 57.25 Q9.65 66.85 10.8 73.95 11.75 79.95 11.35 84.15 L11.3 85.0 -50.5 85.0 Q-38.75 78.7 -31.95 73.95 -26.85 70.35 -24.55 67.6 -17.05 58.6 -23.2 45.3 -28.8 33.25 -36.95 4.45 L-44.1 -21.75 Q-50.95 -28.55 -55.35 -36.05 -60.1 -43.7 -58.95 -47.1 -57.9 -49.85 -44.3 -71.8 L-39.15 -79.3 -39.0 -79.35 -42.7 -78.15 -43.0 -78.0 -43.1 -78.0 -42.85 -78.3 -41.7 -79.75 Q-34.3 -89.05 -24.2 -99.6 L-16.15 -107.7 Q-0.15 -123.15 12.2 -129.4 L13.6 -130.1 -2.25 -163.3 -1.5 -164.1 M126.75 -85.5 L108.0 -73.25 101.85 -68.0 101.8 -67.95 99.35 -65.5 97.9 -64.1 96.1 -62.45 93.5 -60.0 90.95 -57.7 M-39.0 -79.35 L-36.25 -79.85 -35.6 -79.9 -31.45 -80.1 -30.0 -80.05 -23.35 -79.15 -13.6 -76.15 Q-9.3 -74.6 -4.9 -72.45 -1.35 -70.75 1.45 -69.15 L2.45 -68.55 6.0 -66.55 6.3 -66.3 8.4 -64.9 9.85 -64.05 10.1 -63.95 10.1 -63.9 M131.7 141.25 L61.75 148.55 33.35 142.6 -11.25 139.7 -32.9 140.4 -32.9 334.8 208.3 334.8 208.3 139.55 191.8 139.55 197.25 142.6 131.7 141.25 M218.2 88.25 L249.75 88.8" fill="none" stroke="#000000" stroke-linecap="round" stroke-linejoin="round" stroke-opacity="0.8980392" stroke-width="1.0"/>
    <path d="M-6.3 -275.85 L22.8 -244.55 Q27.85 -239.5 40.6 -208.75 L49.55 -186.5" fill="none" stroke="#000000" stroke-linecap="butt" stroke-linejoin="miter-clip" stroke-miterlimit="4.0" stroke-opacity="0.6" stroke-width="1.0"/>
    <path d="M-148.95 -351.7 L-145.55 -349.7 Q-134.95 -343.15 -126.85 -334.95 L-124.8 -332.7 -124.25 -332.1 -121.75 -329.15 -118.65 -325.05 Q-107.95 -309.6 -112.65 -296.05 L-115.0 -291.1 Q-120.6 -281.95 -133.95 -277.7 L-143.15 -275.4 -146.3 -274.95 -157.0 -274.2 -161.75 -274.2 -169.55 -274.85 -170.2 -274.9 -172.3 -275.1 -175.7 -275.6 -179.15 -276.2 -187.45 -278.45 -193.7 -280.15 -200.05 -281.9 Q-230.3 -292.55 -247.7 -311.75 -264.85 -331.0 -259.05 -347.6 -258.25 -349.95 -256.95 -352.1 L-254.5 -355.6 -253.55 -356.65 Q-247.75 -362.95 -237.25 -366.25 L-236.4 -366.45 -229.7 -368.1 -225.25 -368.85 -225.0 -368.85 -224.95 -368.85 -224.25 -369.0 -213.7 -369.65 -212.6 -369.65 Q-193.3 -369.45 -171.85 -362.0 -159.25 -357.55 -148.95 -351.7 M41.85 -113.75 L72.15 -99.8 Q106.5 -85.85 126.75 -85.5" fill="none" stroke="#000000" stroke-linecap="round" stroke-linejoin="round" stroke-opacity="0.6" stroke-width="1.0"/>
    <path d="M-97.7 -306.8 Q-96.35 -292.2 -101.9 -282.0 -104.25 -277.8 -107.8 -274.3 L-109.4 -272.8 Q-112.65 -270.05 -116.75 -267.85 -130.85 -260.2 -147.7 -260.85 -207.8 -261.9 -243.55 -291.7 -269.4 -313.1 -275.7 -341.35 -279.45 -358.05 -272.8 -367.75 L-265.3 -374.05 -250.5 -372.7 -249.0 -381.55 Q-221.05 -389.9 -181.6 -380.7 -161.85 -375.9 -147.7 -369.65 L-148.95 -351.7 M-118.65 -325.05 L-101.6 -325.05 Q-99.2 -317.3 -98.15 -310.45 L-97.7 -306.8" fill="none" stroke="#000000" stroke-linecap="round" stroke-linejoin="miter-clip" stroke-miterlimit="4.0" stroke-width="1.0"/>
    <path d="M-124.8 -332.7 L-122.35 -332.35 -121.75 -329.15" fill="none" stroke="#000000" stroke-linecap="round" stroke-linejoin="miter-clip" stroke-miterlimit="4.0" stroke-opacity="0.6" stroke-width="1.0"/>
    <path d="M-2.25 -163.3 L31.8 -140.15 Q55.0 -125.75 73.1 -118.25 84.75 -113.45 94.25 -111.55" fill="none" stroke="#000000" stroke-linecap="round" stroke-linejoin="miter-clip" stroke-miterlimit="4.0" stroke-opacity="0.6" stroke-width="1.0"/>
    <path d="M12.2 -129.4 L25.35 -94.35 Q40.8 -56.25 51.2 -45.85" fill="none" stroke="#000000" stroke-linecap="round" stroke-linejoin="miter-clip" stroke-miterlimit="4.0" stroke-width="1.0"/>
  </g>
</svg>
