<?xml version="1.0" encoding="UTF-8" standalone="no"?>
<svg xmlns:xlink="http://www.w3.org/1999/xlink" height="8.3px" width="12.9px" xmlns="http://www.w3.org/2000/svg">
  <g transform="matrix(1.0, 0.0, 0.0, 1.0, 6.45, 4.0)">
    <path d="M-5.6 1.7 L-5.65 1.2 Q-5.65 -0.9 -4.7 -1.65 L-3.25 -1.85 -1.75 -1.45 -0.05 -1.6 Q1.1 -1.85 1.6 -2.2 L2.9 -3.25 4.45 -3.35 Q5.45 -3.0 5.6 -2.35 L5.45 -0.65 5.65 1.3 Q5.85 2.45 5.5 2.85 4.95 3.55 4.1 3.55 L2.4 3.1 -0.8 2.05 Q-2.6 1.7 -4.05 2.45 L-5.05 2.5 -5.6 1.7" fill="#ffffff" fill-opacity="0.0" fill-rule="evenodd" stroke="none"/>
    <path d="M-5.6 1.7 L-5.05 2.5 -4.05 2.45 Q-2.6 1.7 -0.8 2.05 L2.4 3.1 4.1 3.55 Q4.95 3.55 5.5 2.85 5.85 2.45 5.65 1.3 L5.45 -0.65 5.6 -2.35 Q5.45 -3.0 4.45 -3.35 L2.9 -3.25 1.6 -2.2 Q1.1 -1.85 -0.05 -1.6 L-1.75 -1.45 -3.25 -1.85 -4.7 -1.65 Q-5.65 -0.9 -5.65 1.2 L-5.6 1.7 Z" fill="none" stroke="#000000" stroke-linecap="butt" stroke-linejoin="miter-clip" stroke-miterlimit="4.0" stroke-width="1.0"/>
    <path d="M4.75 -0.05 Q5.05 -2.1 5.25 -2.35 L5.45 -2.55 5.55 -1.75 5.4 -0.7 5.6 1.25 Q5.8 2.4 5.45 2.8 4.9 3.5 4.05 3.5 L2.35 3.05 Q0.1 2.2 -0.85 2.0 -2.65 1.65 -4.1 2.4 -5.2 2.95 -5.55 2.05 L-3.9 1.55 -1.15 1.15 0.3 0.95 Q1.05 0.7 1.4 0.05 L1.8 -1.5 Q2.25 -2.7 2.75 -1.75 L2.7 -0.3 Q2.55 0.7 3.05 1.0 4.25 1.75 4.75 -0.05" fill="#000000" fill-opacity="0.047058824" fill-rule="evenodd" stroke="none"/>
  </g>
</svg>
