<?xml version="1.0" encoding="UTF-8" standalone="no"?>
<svg xmlns:xlink="http://www.w3.org/1999/xlink" height="16.95px" width="11.15px" xmlns="http://www.w3.org/2000/svg">
  <g transform="matrix(1.0, 0.0, 0.0, 1.0, -24.45, -453.85)">
    <path d="M34.65 457.05 Q33.2 456.15 30.85 456.15 29.15 456.15 27.85 456.8 L26.9 457.4 26.5 470.3 25.0 470.3 25.5 455.7 26.55 455.05 Q27.95 454.35 29.85 454.35 32.9 454.35 34.6 455.7 L34.65 457.05" fill="#000000" fill-opacity="0.14901961" fill-rule="evenodd" stroke="none"/>
    <path d="M26.5 470.3 L26.9 457.4 27.85 456.8 Q29.15 456.15 30.85 456.15 33.2 456.15 34.65 457.05 L35.1 470.3 26.5 470.3" fill="#000000" fill-opacity="0.29803923" fill-rule="evenodd" stroke="none"/>
    <path d="M34.65 457.05 L34.6 455.7 Q32.9 454.35 29.85 454.35 27.95 454.35 26.55 455.05 L25.5 455.7 25.0 470.3 26.5 470.3 35.1 470.3 34.65 457.05 Z" fill="none" stroke="#000000" stroke-linecap="round" stroke-linejoin="miter-clip" stroke-miterlimit="4.0" stroke-opacity="0.6" stroke-width="1.0"/>
  </g>
</svg>
