<?xml version="1.0" encoding="UTF-8" standalone="no"?>
<svg xmlns:xlink="http://www.w3.org/1999/xlink" height="79.75px" width="221.95px" xmlns="http://www.w3.org/2000/svg">
  <g transform="matrix(1.0, 0.0, 0.0, 1.0, 0.5, 0.5)">
    <path d="M175.3 57.5 L220.95 57.5 220.95 78.75 0.0 76.8 0.0 57.5 38.7 57.5 38.7 42.5 55.6 42.5 55.6 32.7 102.25 36.8 102.25 39.9 86.6 42.5 102.25 42.5 109.7 42.5 150.95 42.5 175.3 42.5 Q153.0 47.75 124.7 52.7 L93.9 57.5 175.3 57.5 M59.55 25.6 L60.05 7.75 139.7 10.65 140.65 22.85 59.6 25.0 59.55 25.6 M63.05 7.75 L63.55 2.4 128.4 2.4 128.4 3.7 63.05 7.75 M38.7 57.5 L93.9 57.5 38.7 57.5 M109.7 37.45 L113.9 37.8 109.7 38.6 109.7 37.45 M86.6 42.5 L55.6 42.5 86.6 42.5" fill="#ffffff" fill-opacity="0.0" fill-rule="evenodd" stroke="none"/>
    <path d="M55.6 32.7 L55.6 27.05 59.55 25.6 59.6 25.0 140.65 22.85 139.7 10.65 60.05 7.75 63.05 7.75 128.4 3.7 128.4 2.4 142.95 2.4 143.0 2.8 143.5 7.75 146.45 7.75 147.0 25.6 150.95 27.05 150.95 42.5 109.7 42.5 109.7 38.6 113.9 37.8 109.7 37.45 109.7 34.8 102.25 34.8 102.25 36.8 55.6 32.7 M175.3 42.5 L175.3 57.5 93.9 57.5 124.7 52.7 Q153.0 47.75 175.3 42.5 M143.5 7.75 L63.05 7.75 143.5 7.75 M102.25 39.9 L102.25 42.5 86.6 42.5 102.25 39.9 M55.6 27.05 L150.95 27.05 55.6 27.05" fill="#000000" fill-opacity="0.14901961" fill-rule="evenodd" stroke="none"/>
    <path d="M65.9 0.55 L66.55 0.0 79.45 0.0 79.45 1.3 65.9 1.3 65.9 0.55 M128.4 0.0 L140.05 0.0 140.65 0.5 142.95 2.4 128.4 2.4 128.4 0.0" fill="#000000" fill-opacity="0.2" fill-rule="evenodd" stroke="none"/>
    <path d="M63.55 2.4 L65.9 0.55 65.9 1.3 79.45 1.3 79.45 0.0 128.4 0.0 128.4 2.4 63.55 2.4" fill="#000000" fill-opacity="0.047058824" fill-rule="evenodd" stroke="none"/>
    <path d="M102.25 36.8 L102.25 34.8 109.7 34.8 109.7 37.45 109.7 38.6 109.7 42.5 102.25 42.5 102.25 39.9 102.25 36.8" fill="#000000" fill-opacity="0.34901962" fill-rule="evenodd" stroke="none"/>
    <path d="M175.3 57.5 L220.95 57.5 220.95 78.75 0.0 76.8 0.0 57.5 38.7 57.5 38.7 42.5 55.6 42.5 55.6 32.7 M55.6 27.05 L59.55 25.6 60.05 7.75 63.05 7.75 63.55 2.4 65.9 0.55 M140.65 0.5 L142.95 2.4 M143.0 2.8 L143.5 7.75 146.45 7.75 147.0 25.6 150.95 27.05 150.95 42.5 175.3 42.5 175.3 57.5" fill="none" stroke="#000000" stroke-linecap="round" stroke-linejoin="miter-clip" stroke-miterlimit="4.0" stroke-width="1.0"/>
    <path d="M55.6 32.7 L55.6 27.05 M65.9 0.55 L66.55 0.0 M140.05 0.0 L140.65 0.5 M142.95 2.4 L143.0 2.8 M102.25 36.8 L102.25 34.8 109.7 34.8 109.7 37.45 109.7 38.6 109.7 42.5 M102.25 42.5 L102.25 39.9 102.25 36.8" fill="none" stroke="#000000" stroke-linecap="round" stroke-linejoin="miter-clip" stroke-miterlimit="4.0" stroke-opacity="0.6" stroke-width="1.0"/>
    <path d="M66.55 0.0 L79.45 0.0 128.4 0.0 140.05 0.0 M175.3 57.5 L93.9 57.5 38.7 57.5 M128.4 2.4 L142.95 2.4 M63.05 7.75 L143.5 7.75 M109.7 42.5 L150.95 42.5 M102.25 42.5 L109.7 42.5 M86.6 42.5 L102.25 42.5 M150.95 27.05 L55.6 27.05 M55.6 42.5 L86.6 42.5 M63.55 2.4 L128.4 2.4" fill="none" stroke="#000000" stroke-linecap="round" stroke-linejoin="miter-clip" stroke-miterlimit="4.0" stroke-opacity="0.4" stroke-width="1.0"/>
  </g>
</svg>
