<?xml version="1.0" encoding="UTF-8" standalone="no"?>
<svg xmlns:xlink="http://www.w3.org/1999/xlink" height="167.4px" width="25.3px" xmlns="http://www.w3.org/2000/svg">
  <g transform="matrix(1.0, 0.0, 0.0, 1.0, 0.5, 2.0)">
    <path d="M3.75 16.8 L6.5 15.5 Q6.4 13.7 7.05 11.8 L7.1 11.7 Q8.45 8.15 12.1 7.55 L12.75 0.0 13.0 7.6 13.95 7.85 Q15.05 8.15 15.8 8.6 17.85 9.8 18.5 11.7 19.05 13.05 19.05 14.75 L23.3 18.3 Q18.45 15.75 10.6 16.05 L3.75 16.8 23.3 18.3 19.3 19.05 19.3 27.3 17.55 26.65 18.05 26.8 17.8 22.9 Q17.3 18.3 16.0 18.75 14.75 19.2 14.4 23.45 L14.25 26.1 16.85 26.45 16.8 30.05 16.75 30.1 14.25 32.3 14.25 66.4 17.8 66.65 17.8 69.65 15.25 71.65 16.05 102.0 18.55 101.75 18.3 104.25 18.15 104.35 16.75 105.1 Q15.15 106.15 15.0 107.25 L15.0 138.9 4.25 139.6 3.8 139.8 4.25 108.0 3.8 106.75 Q3.2 105.5 2.25 105.5 L2.25 102.5 4.75 102.5 5.75 72.65 Q4.5 70.65 3.25 70.4 L3.0 66.9 5.75 66.9 6.75 32.55 4.5 31.55 4.5 27.55 6.75 26.85 6.75 18.55 3.75 16.8 M8.5 19.25 Q7.65 20.6 8.1 26.55 L9.7 26.25 9.5 23.35 Q9.1 18.4 8.5 19.25 M12.0 18.55 Q11.05 18.55 10.85 22.0 L10.75 26.15 13.15 26.1 13.25 22.85 Q13.25 18.55 12.0 18.55" fill="#000000" fill-opacity="0.047058824" fill-rule="evenodd" stroke="none"/>
    <path d="M3.75 16.8 L10.6 16.05 Q18.45 15.75 23.3 18.3 L3.75 16.8 M15.0 138.9 L15.0 107.25 Q15.15 106.15 16.75 105.1 L18.15 104.35 18.3 104.25 18.55 101.75 16.05 102.0 15.25 71.65 17.8 69.65 17.8 66.65 14.25 66.4 14.25 32.3 16.75 30.1 16.8 30.05 16.85 26.45 17.55 26.65 19.3 27.3 19.9 27.6 20.45 27.85 21.55 28.65 21.55 31.3 19.3 32.8 21.3 66.9 23.3 67.4 23.3 70.9 22.05 71.7 Q20.8 72.75 20.8 73.7 L22.55 101.75 24.3 101.75 24.3 105.0 23.4 106.05 Q22.45 107.35 22.3 108.75 L22.8 140.1 22.65 140.15 15.25 138.85 15.0 138.9" fill="#000000" fill-opacity="0.14901961" fill-rule="evenodd" stroke="none"/>
    <path d="M3.8 139.8 L4.25 139.6 15.0 138.9 15.25 138.85 22.65 140.15 24.05 140.35 24.05 164.9 15.25 164.9 4.3 164.9 0.0 164.9 0.0 141.35 3.8 139.8" fill="#ffffff" fill-opacity="0.0" fill-rule="evenodd" stroke="none"/>
    <path d="M23.3 18.3 L19.05 14.75 Q19.05 13.05 18.5 11.7 17.85 9.8 15.8 8.6 15.05 8.15 13.95 7.85 L13.0 7.6 12.75 0.0 12.1 7.55 Q8.45 8.15 7.1 11.7 L7.05 11.8 Q6.4 13.7 6.5 15.5 L3.75 16.8 6.75 18.55 6.75 26.85 4.5 27.55 4.5 31.55 6.75 32.55 5.75 66.9 3.0 66.9 3.25 70.4 Q4.5 70.65 5.75 72.65 L4.75 102.5 2.25 102.5 2.25 105.5 Q3.2 105.5 3.8 106.75 L4.25 108.0 3.8 139.8 0.0 141.35 0.0 164.9 4.3 164.9 M19.3 27.3 L19.3 19.05 23.3 18.3 M22.8 140.1 L22.3 108.75 Q22.45 107.35 23.4 106.05 L24.3 105.0 24.3 101.75 22.55 101.75 20.8 73.7 Q20.8 72.75 22.05 71.7 L23.3 70.9 23.3 67.4 21.3 66.9 19.3 32.8 21.55 31.3 21.55 28.65 20.45 27.85 19.9 27.6 19.3 27.3 M15.25 164.9 L24.05 164.9 24.05 140.35 22.65 140.15" fill="none" stroke="#000000" stroke-linecap="round" stroke-linejoin="miter-clip" stroke-miterlimit="4.0" stroke-width="1.0"/>
    <path d="M3.8 139.8 L4.25 139.6 15.0 138.9 15.25 138.85 22.65 140.15 22.8 140.1 M4.3 164.9 L15.25 164.9" fill="none" stroke="#000000" stroke-linecap="round" stroke-linejoin="miter-clip" stroke-miterlimit="4.0" stroke-opacity="0.6" stroke-width="1.0"/>
  </g>
</svg>
