<?xml version="1.0" encoding="UTF-8" standalone="no"?>
<svg xmlns:xlink="http://www.w3.org/1999/xlink" height="64.4px" width="12.75px" xmlns="http://www.w3.org/2000/svg">
  <g transform="matrix(1.0, 0.0, 0.0, 1.0, 0.5, 0.5)">
    <path d="M1.7 2.65 L0.0 2.65 0.0 0.55 0.0 0.0 11.55 0.0 11.55 0.15 11.55 2.65 9.85 2.65 1.7 2.65 M10.1 60.8 L11.75 60.8 11.75 63.4 8.15 63.4 0.0 63.4 0.0 60.8 1.95 60.8 10.1 60.8 M2.2 58.7 L2.2 9.7 2.2 4.75 6.0 4.75 6.0 9.7 6.0 58.7 2.2 58.7" fill="#ffffff" fill-opacity="0.0" fill-rule="evenodd" stroke="none"/>
    <path d="M9.85 2.65 L9.85 3.75 9.85 4.75 9.7 4.75 9.3 4.75 9.1 4.75 9.1 8.05 9.1 9.7 9.1 58.7 10.1 58.7 10.1 60.8 1.95 60.8 1.95 58.7 2.2 58.7 6.0 58.7 6.0 9.7 6.0 4.75 2.2 4.75 1.7 4.75 1.7 3.75 1.7 2.65 9.85 2.65" fill="#000000" fill-opacity="0.09803922" fill-rule="evenodd" stroke="none"/>
    <path d="M1.7 2.65 L0.0 2.65 0.0 0.55 0.0 0.0 11.55 0.0 11.55 0.15 11.55 2.65 9.85 2.65 9.85 3.75 9.85 4.75 9.7 4.75 9.3 4.75 9.1 4.75 9.1 8.05 9.1 9.7 9.1 58.7 10.1 58.7 10.1 60.8 11.75 60.8 11.75 63.4 8.15 63.4 0.0 63.4 0.0 60.8 1.95 60.8 1.95 58.7 2.2 58.7 2.2 9.7 2.2 4.75 1.7 4.75 1.7 3.75 1.7 2.65 Z" fill="none" stroke="#000000" stroke-linecap="round" stroke-linejoin="miter-clip" stroke-miterlimit="4.0" stroke-opacity="0.6" stroke-width="1.0"/>
  </g>
</svg>
