<?xml version="1.0" encoding="UTF-8" standalone="no"?>
<svg xmlns:xlink="http://www.w3.org/1999/xlink" height="275.1px" width="103.0px" xmlns="http://www.w3.org/2000/svg">
  <g transform="matrix(1.0, 0.0, 0.0, 1.0, 0.5, -1.55)">
    <path d="M0.0 120.85 L0.0 116.15 12.7 117.25 13.4 117.3 5.1 118.1 6.45 120.4 12.3 123.55 24.75 133.3 32.5 135.05 Q36.2 137.0 35.85 137.0 L30.95 137.5 28.4 138.85 32.3 141.15 35.85 141.15 38.55 143.05 43.9 144.45 46.55 140.45 46.8 140.4 46.3 145.0 36.35 145.0 35.35 145.0 30.2 144.9 30.2 145.0 30.0 145.0 26.6 139.3 28.4 136.55 33.0 136.55 24.55 135.3 17.3 129.05 10.0 124.05 2.65 121.25 0.0 120.85 M49.35 236.8 L49.2 205.3 64.95 205.2 65.05 236.75 49.35 236.8" fill="#000000" fill-opacity="0.4" fill-rule="evenodd" stroke="none"/>
    <path d="M0.0 237.9 L0.0 161.2 22.0 161.1 22.25 237.8 0.0 237.9" fill="#000000" fill-opacity="0.49803922" fill-rule="evenodd" stroke="none"/>
    <path d="M0.0 156.75 L0.0 153.7 30.25 153.6 30.25 156.65 0.0 156.75" fill="#000000" fill-opacity="0.09803922" fill-rule="evenodd" stroke="none"/>
    <path d="M0.0 31.7 L0.0 1.65 0.15 1.55 6.6 8.55 13.25 17.7 13.8 18.3 15.75 22.0 9.9 23.55 7.2 25.95 10.55 27.5 13.6 26.55 16.6 28.7 19.1 31.75 21.15 35.75 19.7 41.25 26.05 39.1 29.7 39.7 38.85 51.9 38.85 54.65 42.85 55.9 47.4 60.15 48.65 60.45 48.65 68.1 45.6 69.0 40.7 68.1 26.95 67.2 33.95 69.65 26.35 69.65 12.7 67.8 0.0 68.25 0.0 41.25 4.7 41.5 Q5.65 42.1 14.2 40.35 L0.0 39.6 0.0 34.6 1.05 33.9 6.95 33.8 11.65 33.9 14.2 34.2 Q15.4 34.55 15.2 33.1 L14.8 31.45 0.0 31.7 M45.95 77.55 L43.75 81.55 44.4 84.65 44.4 95.3 51.4 93.2 53.75 93.2 45.25 96.35 40.4 96.55 35.15 96.65 29.15 96.95 28.7 96.95 22.25 97.35 13.1 97.05 Q15.8 98.5 16.25 98.15 L19.3 97.95 22.0 98.15 25.25 99.05 36.0 98.15 40.45 98.4 31.5 100.45 Q40.35 100.55 40.6 100.3 L41.9 100.3 43.0 100.45 42.9 103.3 40.45 104.1 44.15 105.45 32.75 104.5 27.45 106.55 33.65 106.95 50.1 106.4 49.15 103.55 50.75 98.95 51.2 102.35 52.45 98.25 53.8 96.4 53.55 107.5 52.4 110.25 50.65 110.45 47.65 109.9 Q49.85 111.95 49.45 111.95 L37.85 110.9 34.65 111.85 49.45 113.9 47.0 114.35 46.15 114.45 34.35 114.45 34.2 116.85 45.35 118.2 53.25 116.25 53.25 122.1 35.25 121.25 37.85 126.15 41.7 126.65 38.45 126.95 41.35 131.0 41.75 131.6 48.95 132.0 50.5 129.45 49.7 133.15 41.25 132.95 40.95 132.5 40.2 131.5 39.85 131.0 36.95 127.1 25.9 106.4 17.05 100.7 3.9 98.8 3.85 98.8 3.75 98.8 0.0 98.6 0.0 79.35 2.3 79.45 19.1 78.2 22.7 76.95 45.8 77.75 45.95 77.55 M41.3 276.15 L36.8 276.15 0.0 276.1 0.0 272.5 0.0 269.25 36.8 269.25 40.2 269.25 40.75 269.25 40.75 272.45 41.35 272.45 41.3 276.15 M0.0 238.25 L0.0 237.9 22.25 237.8 22.0 161.1 0.0 161.2 0.0 156.75 30.25 156.65 30.25 153.6 30.2 145.0 30.2 144.9 35.35 145.0 36.35 145.0 36.9 244.1 36.9 247.45 36.85 248.7 30.55 248.7 30.55 241.85 30.5 238.25 0.0 238.25 M30.85 58.8 L30.1 57.7 28.95 57.55 27.7 57.7 Q27.45 57.7 26.85 58.25 L26.35 58.75 28.75 59.3 29.3 61.35 38.0 62.15 43.0 60.9 45.6 60.8 42.65 59.4 41.7 59.6 40.15 59.95 37.55 60.35 35.35 60.55 33.4 59.95 31.6 59.85 30.85 58.8" fill="#ffffff" fill-opacity="0.0" fill-rule="evenodd" stroke="none"/>
    <path d="M0.0 255.55 L0.0 251.9 0.0 248.65 30.55 248.7 36.85 248.7 37.3 248.7 37.3 251.9 37.85 251.9 37.85 255.55 37.3 255.55 36.8 255.55 0.0 255.55" fill="#000000" fill-opacity="0.14901961" fill-rule="evenodd" stroke="none"/>
    <path d="M13.8 18.3 L20.0 25.35 Q30.6 32.4 31.25 33.25 L35.85 41.8 38.85 46.4 41.65 48.9 47.7 49.8 48.65 52.55 48.65 60.45 47.4 60.15 42.85 55.9 38.85 54.65 38.85 51.9 29.7 39.7 26.05 39.1 19.7 41.25 21.15 35.75 19.1 31.75 16.6 28.7 13.6 26.55 10.55 27.5 7.2 25.95 9.9 23.55 15.75 22.0 13.8 18.3 M48.65 68.1 L48.65 69.95 45.95 77.55 45.8 77.75 22.7 76.95 19.1 78.2 2.3 79.45 0.0 79.35 0.0 68.25 12.7 67.8 26.35 69.65 33.95 69.65 26.95 67.2 40.7 68.1 45.6 69.0 48.65 68.1 M53.75 93.2 L53.85 93.2 53.85 96.3 53.8 96.4 52.45 98.25 51.2 102.35 50.75 98.95 49.15 103.55 50.1 106.4 33.65 106.95 27.45 106.55 32.75 104.5 44.15 105.45 40.45 104.1 42.9 103.3 43.0 100.45 41.9 100.3 40.6 100.3 Q40.35 100.55 31.5 100.45 L40.45 98.4 36.0 98.15 25.25 99.05 22.0 98.15 19.3 97.95 16.25 98.15 Q15.8 98.5 13.1 97.05 L22.25 97.35 28.7 96.95 29.15 96.95 35.15 96.65 40.4 96.55 45.25 96.35 53.75 93.2 M52.4 110.25 L52.45 110.25 50.5 114.85 53.25 116.05 53.25 116.25 45.35 118.2 34.2 116.85 34.35 114.45 46.15 114.45 47.0 114.35 49.45 113.9 34.65 111.85 37.85 110.9 49.45 111.95 Q49.85 111.95 47.65 109.9 L50.65 110.45 52.4 110.25 M53.25 122.1 L53.25 123.75 Q52.35 124.35 51.4 125.0 L49.6 126.15 50.8 128.9 50.5 129.45 48.95 132.0 41.75 131.6 41.35 131.0 38.45 126.95 41.7 126.65 37.85 126.15 35.25 121.25 53.25 122.1 M0.0 248.65 L0.0 247.45 0.0 245.05 0.0 241.8 30.55 241.85 30.55 248.7 0.0 248.65 M0.0 41.25 L0.0 39.6 14.2 40.35 Q5.65 42.1 4.7 41.5 L0.0 41.25 M0.0 34.6 L0.0 31.7 14.8 31.45 15.2 33.1 Q15.4 34.55 14.2 34.2 L11.65 33.9 6.95 33.8 1.05 33.9 0.0 34.6 M30.85 58.8 L31.6 59.85 33.4 59.95 35.35 60.55 37.55 60.35 40.15 59.95 41.7 59.6 42.65 59.4 45.6 60.8 43.0 60.9 38.0 62.15 29.3 61.35 28.75 59.3 26.35 58.75 26.85 58.25 Q27.45 57.7 27.7 57.7 L28.95 57.55 30.1 57.7 30.85 58.8" fill="#000000" fill-opacity="0.2" fill-rule="evenodd" stroke="none"/>
    <path d="M51.4 125.0 L52.0 126.9 54.95 136.95 61.0 144.45 61.05 156.45 77.55 156.4 77.9 248.0 87.65 247.9 87.7 261.4 87.7 265.2 102.0 270.4 102.0 276.1 55.2 276.15 47.75 276.15 41.3 276.15 41.35 272.45 40.75 272.45 40.75 269.25 40.2 269.25 36.8 269.25 0.0 269.25 0.0 265.65 0.0 262.35 0.0 261.4 0.0 258.75 0.0 255.55 36.8 255.55 37.3 255.55 37.85 255.55 37.85 251.9 37.3 251.9 37.3 248.7 36.85 248.7 36.9 247.45 36.9 244.1 36.35 145.0 46.3 145.0 46.8 140.4 45.9 137.8 44.4 136.45 42.0 134.1 41.85 133.85 41.75 133.65 41.25 132.95 49.7 133.15 50.5 129.45 50.8 128.9 49.6 126.15 51.4 125.0 M0.0 153.7 L0.0 131.0 0.0 120.85 2.65 121.25 10.0 124.05 17.3 129.05 24.55 135.3 33.0 136.55 28.4 136.55 26.6 139.3 30.0 145.0 30.2 145.0 30.25 153.6 0.0 153.7 M49.35 236.8 L65.05 236.75 64.95 205.2 49.2 205.3 49.35 236.8 M39.05 258.9 L39.05 258.75 39.05 258.9" fill="#000000" fill-opacity="0.047058824" fill-rule="evenodd" stroke="none"/>
    <path d="M0.0 241.8 L0.0 238.25 30.5 238.25 30.55 241.85 0.0 241.8" fill="#000000" fill-opacity="0.24705882" fill-rule="evenodd" stroke="none"/>
    <path d="M0.0 116.15 L0.0 106.9 0.0 98.6 3.75 98.8 3.85 98.8 3.9 98.8 17.05 100.7 25.9 106.4 36.95 127.1 39.85 131.0 40.2 131.5 40.95 132.5 41.25 132.95 41.75 133.65 41.85 133.85 42.0 134.1 44.4 136.45 45.9 137.8 46.8 140.4 46.55 140.45 43.9 144.45 38.55 143.05 35.85 141.15 32.3 141.15 28.4 138.85 30.95 137.5 35.85 137.0 Q36.2 137.0 32.5 135.05 L24.75 133.3 12.3 123.55 6.45 120.4 5.1 118.1 13.4 117.3 12.7 117.25 0.0 116.15" fill="#000000" fill-opacity="0.29803923" fill-rule="evenodd" stroke="none"/>
    <path d="M87.7 261.4 L87.7 265.2 102.0 270.4 102.0 276.1 55.2 276.15 47.75 276.15 41.3 276.15 36.8 276.15 0.0 276.1" fill="none" stroke="#000000" stroke-linecap="butt" stroke-linejoin="miter-clip" stroke-miterlimit="4.0" stroke-width="1.0"/>
  </g>
</svg>
