<?xml version="1.0" encoding="UTF-8" standalone="no"?>
<svg xmlns:xlink="http://www.w3.org/1999/xlink" height="13.65px" width="46.25px" xmlns="http://www.w3.org/2000/svg">
  <g transform="matrix(1.0, 0.0, 0.0, 1.0, 0.5, 0.5)">
    <path d="M45.25 6.35 Q45.25 7.65 43.55 8.8 41.9 9.9 38.6 10.8 32.0 12.65 22.6 12.65 L12.4 12.0 6.6 10.8 Q2.85 9.75 1.25 8.5 0.0 7.5 0.0 6.35 0.0 3.7 6.6 1.85 13.25 0.0 22.6 0.0 31.95 0.0 38.6 1.85 45.25 3.75 45.25 6.35 M44.7 5.85 Q44.7 3.75 38.25 2.25 31.8 0.8 22.75 0.8 13.7 0.8 7.25 2.25 0.85 3.75 0.85 5.85 0.85 6.75 2.05 7.55 3.6 8.5 7.25 9.35 L12.85 10.3 22.75 10.8 Q31.85 10.8 38.25 9.35 41.45 8.65 43.05 7.75 44.7 6.85 44.7 5.85" fill="#000000" fill-opacity="0.047058824" fill-rule="evenodd" stroke="none"/>
    <path d="M44.7 5.85 Q44.7 6.85 43.05 7.75 41.45 8.65 38.25 9.35 31.85 10.8 22.75 10.8 L12.85 10.3 7.25 9.35 Q3.6 8.5 2.05 7.55 0.85 6.75 0.85 5.85 0.85 3.75 7.25 2.25 13.7 0.8 22.75 0.8 31.8 0.8 38.25 2.25 44.7 3.75 44.7 5.85" fill="#000000" fill-opacity="0.4" fill-rule="evenodd" stroke="none"/>
    <path d="M44.7 5.85 Q44.7 3.75 38.25 2.25 31.8 0.8 22.75 0.8 13.7 0.8 7.25 2.25 0.85 3.75 0.85 5.85 0.85 6.75 2.05 7.55 3.6 8.5 7.25 9.35 L12.85 10.3 22.75 10.8 Q31.85 10.8 38.25 9.35 41.45 8.65 43.05 7.75 44.7 6.85 44.7 5.85" fill="none" stroke="#000000" stroke-linecap="round" stroke-linejoin="miter-clip" stroke-miterlimit="4.0" stroke-opacity="0.4" stroke-width="1.0"/>
    <path d="M45.25 6.35 Q45.25 3.75 38.6 1.85 31.95 0.0 22.6 0.0 13.25 0.0 6.6 1.85 0.0 3.7 0.0 6.35 0.0 7.5 1.25 8.5 2.85 9.75 6.6 10.8 L12.4 12.0 22.6 12.65 Q32.0 12.65 38.6 10.8 41.9 9.9 43.55 8.8 45.25 7.65 45.25 6.35" fill="none" stroke="#000000" stroke-linecap="round" stroke-linejoin="miter-clip" stroke-miterlimit="4.0" stroke-opacity="0.6" stroke-width="1.0"/>
  </g>
</svg>
