<?xml version="1.0" encoding="UTF-8" standalone="no"?>
<svg xmlns:xlink="http://www.w3.org/1999/xlink" height="451.35px" width="578.95px" xmlns="http://www.w3.org/2000/svg">
  <g transform="matrix(1.0, 0.0, 0.0, 1.0, 0.5, 0.5)">
    <path d="M561.95 63.95 Q554.7 60.75 541.0 55.8 529.65 51.7 517.5 47.85 L517.5 306.5 Q519.45 304.4 522.0 302.6 531.3 296.0 543.2 295.9 553.85 295.9 560.8 302.15 564.55 305.55 566.55 310.65 568.65 315.95 568.65 322.55 568.65 329.4 566.45 337.6 561.35 356.65 544.8 374.4 537.95 381.75 529.45 388.65 L577.95 388.65 577.95 407.35 517.5 407.35 517.5 450.35 506.25 450.35 506.25 407.35 465.1 407.35 465.1 450.35 453.9 450.35 453.9 407.35 412.75 407.35 412.75 450.35 401.5 450.35 401.5 407.35 355.35 407.35 355.35 450.35 344.15 450.35 344.15 407.35 298.0 407.35 298.0 450.35 286.8 450.35 286.8 407.35 240.65 407.35 240.65 450.35 229.45 450.35 229.45 407.35 183.3 407.35 183.3 450.35 172.05 450.35 172.05 407.35 125.95 407.35 125.95 450.35 114.7 450.35 114.7 407.35 68.6 407.35 68.6 450.35 57.35 450.35 57.35 407.35 11.2 407.35 11.2 450.35 0.0 450.35 0.0 53.85 1.05 53.85 0.95 53.65 Q70.4 25.15 145.0 11.75 210.2 0.0 278.25 0.0 383.0 0.0 485.05 26.8 536.1 40.2 566.5 53.7 L561.95 63.95 M465.1 33.4 L465.1 305.55 468.7 302.6 Q478.0 296.0 489.9 295.9 499.6 295.9 506.25 301.1 L506.25 44.4 Q494.55 40.9 482.2 37.65 L465.1 33.4 M412.75 22.7 L412.75 303.9 414.45 302.6 Q423.75 296.0 435.65 295.9 446.3 295.9 453.25 302.15 L453.9 302.8 453.9 30.8 Q433.5 26.25 412.75 22.7 M392.3 19.5 Q373.8 16.8 355.35 15.05 L355.35 307.95 Q357.7 305.05 361.15 302.6 370.45 296.0 382.35 295.9 393.0 295.9 399.95 302.15 L401.5 303.7 401.5 20.9 402.25 21.0 392.3 19.5 M389.05 318.95 Q390.15 321.4 390.1 324.1 390.05 331.45 384.05 338.0 377.75 344.85 370.0 344.9 364.1 344.9 359.35 340.4 357.15 338.3 355.35 335.4 L355.35 388.65 356.35 388.65 Q368.95 379.55 378.45 369.3 393.95 352.65 398.35 335.7 400.3 328.35 400.3 322.55 400.25 312.7 394.9 307.7 390.25 303.4 382.35 303.4 378.0 303.4 373.5 304.85 369.0 306.25 365.5 308.75 361.95 311.25 360.05 314.3 358.1 317.45 358.15 320.75 358.15 322.7 358.75 324.5 363.0 337.3 370.0 337.4 372.05 337.45 374.35 336.25 376.65 335.05 378.55 332.95 380.45 330.95 381.55 328.45 382.65 326.0 382.6 324.1 382.55 321.65 380.95 320.35 378.6 318.4 373.05 318.4 L370.65 318.5 Q369.1 318.6 367.95 317.6 366.75 316.6 366.6 315.05 366.5 313.5 367.5 312.35 368.45 311.15 370.0 311.0 L373.05 310.9 Q381.2 310.9 385.65 314.55 387.9 316.3 389.05 318.95 M329.95 303.4 Q325.6 303.4 321.1 304.85 316.6 306.25 313.15 308.75 309.6 311.25 307.7 314.3 305.75 317.45 305.75 320.75 305.75 322.5 306.35 324.5 310.65 337.3 317.65 337.4 319.65 337.45 322.0 336.25 324.3 335.05 326.2 332.95 328.1 330.95 329.2 328.45 330.3 326.0 330.25 324.1 330.2 321.75 328.6 320.35 326.25 318.4 320.7 318.4 L318.3 318.5 Q316.75 318.6 315.55 317.6 314.35 316.6 314.25 315.05 314.1 313.5 315.1 312.35 316.1 311.15 317.65 311.0 L320.7 310.9 Q328.85 310.9 333.3 314.55 335.5 316.35 336.65 318.95 337.75 321.4 337.7 324.1 337.65 331.5 331.7 338.0 328.85 341.1 325.45 342.9 321.65 344.85 317.65 344.9 311.75 344.9 307.0 340.4 302.0 335.65 299.25 326.8 298.3 323.8 298.3 320.75 298.6 309.8 308.75 302.6 318.05 296.0 329.95 295.9 338.15 295.9 344.15 299.6 L344.15 14.0 298.0 11.5 298.0 388.65 303.95 388.65 Q316.55 379.55 326.1 369.3 338.9 355.5 344.15 341.5 L344.15 309.5 342.5 307.7 Q337.9 303.4 329.95 303.4 M331.6 374.4 Q324.75 381.75 316.25 388.65 L344.15 388.65 344.15 358.15 Q339.05 366.4 331.6 374.4 M401.5 348.95 Q395.55 362.0 383.95 374.4 377.1 381.75 368.6 388.65 L401.5 388.65 401.5 348.95 M480.6 310.9 Q488.8 310.9 493.2 314.55 495.45 316.3 496.6 318.95 497.7 321.4 497.65 324.1 497.6 331.45 491.6 338.0 485.3 344.85 477.55 344.9 471.65 344.9 466.9 340.4 L465.1 338.5 465.1 387.75 Q476.95 379.05 486.0 369.3 501.45 352.65 505.9 335.7 L506.25 334.35 506.25 313.35 Q504.9 310.0 502.45 307.7 497.8 303.4 489.9 303.4 485.55 303.4 481.05 304.85 476.55 306.25 473.05 308.75 469.5 311.25 467.6 314.3 465.65 317.45 465.7 320.75 465.7 322.7 466.3 324.5 470.55 337.3 477.55 337.4 479.6 337.45 481.9 336.25 484.2 335.05 486.1 332.95 488.0 330.95 489.1 328.45 490.2 326.0 490.15 324.1 490.1 321.75 488.5 320.35 486.15 318.4 480.6 318.4 L478.2 318.5 Q476.65 318.6 475.5 317.6 474.3 316.6 474.15 315.05 474.05 313.5 475.05 312.35 476.0 311.15 477.55 311.0 L480.6 310.9 M453.6 322.55 Q453.55 312.6 448.2 307.7 443.55 303.4 435.65 303.4 431.3 303.4 426.8 304.85 422.3 306.25 418.85 308.75 415.3 311.25 413.35 314.3 L412.75 315.4 412.75 326.45 Q416.9 337.3 423.3 337.4 425.35 337.45 427.65 336.25 429.95 335.05 431.85 332.95 433.75 330.95 434.85 328.45 435.95 326.0 435.9 324.1 435.85 321.65 434.25 320.35 432.0 318.4 426.35 318.4 L423.95 318.5 Q422.4 318.6 421.25 317.6 420.05 316.6 419.9 315.05 419.8 313.5 420.8 312.35 421.8 311.15 423.35 311.0 L426.35 310.9 Q434.55 310.9 439.0 314.55 441.2 316.35 442.35 318.95 443.45 321.4 443.4 324.1 443.35 331.45 437.35 338.0 431.05 344.85 423.3 344.9 417.45 344.9 412.75 340.5 L412.75 386.35 Q423.45 378.3 431.8 369.3 447.25 352.65 451.7 335.7 453.6 328.5 453.6 322.55 M421.9 388.65 L453.9 388.65 453.9 350.85 Q448.0 362.9 437.25 374.4 430.4 381.75 421.9 388.65 M531.5 318.5 Q529.95 318.6 528.8 317.6 527.6 316.6 527.45 315.05 527.35 313.5 528.35 312.35 529.35 311.15 530.9 311.0 L533.9 310.9 Q542.1 310.9 546.55 314.55 548.75 316.35 549.9 318.95 551.0 321.4 550.95 324.1 550.9 331.45 544.9 338.0 538.6 344.85 530.85 344.9 524.95 344.9 520.2 340.4 L517.5 337.3 517.5 388.45 Q529.95 379.45 539.3 369.3 554.8 352.65 559.2 335.7 561.15 328.6 561.15 322.55 561.1 312.6 555.75 307.7 551.1 303.4 543.2 303.4 538.85 303.4 534.35 304.85 529.85 306.25 526.35 308.75 522.8 311.25 520.9 314.3 518.95 317.45 519.0 320.75 519.0 322.7 519.6 324.5 523.9 337.3 530.85 337.4 532.9 337.45 535.2 336.25 537.5 335.05 539.4 332.95 541.3 330.95 542.4 328.45 543.5 326.0 543.45 324.1 543.4 321.65 541.8 320.35 539.45 318.4 533.9 318.4 L531.5 318.5 M491.5 374.4 Q484.65 381.75 476.15 388.65 L506.25 388.65 506.25 354.5 Q500.6 364.65 491.5 374.4 M278.25 11.25 Q259.35 11.25 240.65 12.2 L240.65 317.35 Q242.25 308.65 250.8 302.6 260.1 296.0 272.0 295.9 280.6 295.9 286.8 300.0 L286.8 11.3 278.25 11.25 M183.3 17.25 L183.3 314.8 Q185.55 307.75 192.8 302.6 202.1 296.0 214.0 295.9 223.1 295.9 229.45 300.45 L229.45 12.8 Q206.2 14.3 183.3 17.25 M125.95 26.9 L125.95 313.1 Q128.45 307.1 134.85 302.6 144.1 296.0 156.0 295.9 165.55 295.9 172.05 300.9 L172.05 18.75 146.95 22.8 Q136.4 24.7 125.95 26.9 M11.2 61.6 L11.2 310.65 Q13.8 306.15 18.85 302.6 28.15 296.0 40.05 295.9 50.45 295.9 57.35 301.9 L57.35 45.0 Q34.0 52.45 11.2 61.6 M68.6 41.5 L68.6 311.7 Q71.2 306.6 76.85 302.6 86.15 296.0 98.05 295.9 108.0 295.9 114.7 301.35 L114.7 29.35 Q91.4 34.65 68.6 41.5 M73.8 320.75 Q73.8 322.55 74.45 324.5 78.7 337.3 85.7 337.4 87.75 337.45 90.05 336.25 92.35 335.05 94.25 332.95 96.15 330.95 97.25 328.45 98.35 326.0 98.3 324.1 98.25 321.75 96.65 320.35 94.3 318.4 88.75 318.4 L86.35 318.5 Q84.8 318.6 83.65 317.6 82.45 316.6 82.3 315.05 82.15 313.5 83.15 312.35 84.15 311.15 85.7 311.0 L88.75 310.9 Q96.9 310.9 101.35 314.55 103.6 316.3 104.75 318.95 105.8 321.35 105.8 324.1 105.75 331.45 99.75 338.0 93.45 344.85 85.7 344.9 79.8 344.9 75.05 340.4 71.15 336.7 68.6 330.45 L68.6 388.65 72.0 388.65 Q84.6 379.55 94.15 369.3 109.6 352.65 114.05 335.7 L114.7 333.05 114.7 314.1 Q113.35 310.2 110.6 307.7 105.95 303.4 98.05 303.4 93.7 303.4 89.2 304.85 84.7 306.25 81.2 308.75 77.65 311.25 75.75 314.3 73.8 317.45 73.8 320.75 M52.6 307.7 Q47.95 303.4 40.05 303.4 35.7 303.4 31.2 304.85 26.7 306.25 23.25 308.75 19.7 311.25 17.8 314.3 15.85 317.45 15.85 320.75 15.85 322.5 16.45 324.5 20.75 337.3 27.7 337.4 29.75 337.45 32.05 336.25 34.35 335.05 36.25 332.95 38.15 330.95 39.25 328.45 40.35 326.0 40.3 324.1 40.25 321.65 38.65 320.35 36.4 318.4 30.75 318.4 L28.35 318.5 Q26.8 318.6 25.65 317.6 24.45 316.6 24.3 315.05 24.2 313.5 25.2 312.35 26.2 311.15 27.75 311.0 L30.75 310.9 Q38.95 310.9 43.4 314.55 45.6 316.35 46.75 318.95 47.85 321.4 47.8 324.1 47.75 331.4 41.8 338.0 35.4 344.85 27.7 344.9 21.8 344.9 17.05 340.4 13.55 337.1 11.2 331.8 L11.2 388.65 14.05 388.65 Q26.65 379.55 36.15 369.3 51.65 352.65 56.05 335.7 L57.35 329.8 57.35 316.35 Q56.15 310.95 52.6 307.7 M41.65 374.4 Q34.8 381.75 26.3 388.65 L57.35 388.65 57.35 352.7 Q51.55 363.8 41.65 374.4 M159.35 314.55 Q161.55 316.35 162.7 318.95 163.8 321.4 163.75 324.1 163.7 331.5 157.75 338.0 154.9 341.1 151.5 342.9 147.7 344.85 143.7 344.9 137.8 344.9 133.05 340.4 128.6 336.2 125.95 328.75 L125.95 388.65 130.0 388.65 Q142.6 379.55 152.15 369.3 167.6 352.65 172.05 335.7 L172.05 312.55 Q170.75 309.7 168.55 307.7 163.9 303.4 156.0 303.4 151.65 303.4 147.15 304.85 142.65 306.25 139.2 308.75 135.65 311.25 133.75 314.3 131.8 317.45 131.8 320.75 131.8 322.5 132.4 324.5 136.7 337.3 143.7 337.4 145.7 337.45 148.05 336.25 150.35 335.05 152.25 332.95 154.1 330.9 155.25 328.45 156.35 326.0 156.3 324.1 156.25 321.75 154.65 320.35 152.3 318.4 146.75 318.4 L144.35 318.5 Q142.8 318.6 141.6 317.6 140.4 316.6 140.3 315.05 140.15 313.5 141.15 312.35 142.15 311.15 143.7 311.0 L146.75 310.9 Q154.9 310.9 159.35 314.55 M114.7 353.95 Q109.0 364.35 99.65 374.4 92.8 381.75 84.3 388.65 L114.7 388.65 114.7 353.95 M142.25 388.65 L172.05 388.65 172.05 355.0 Q166.45 364.85 157.6 374.4 150.8 381.75 142.25 388.65 M226.55 307.7 Q221.9 303.4 214.0 303.4 209.65 303.4 205.15 304.85 200.65 306.25 197.15 308.75 193.6 311.25 191.7 314.3 189.75 317.45 189.8 320.75 189.8 322.5 190.4 324.5 194.7 337.3 201.65 337.4 203.7 337.45 206.0 336.25 208.3 335.05 210.2 332.95 212.1 330.95 213.2 328.45 214.3 326.0 214.25 324.1 214.2 321.65 212.6 320.35 210.35 318.4 204.7 318.4 L202.3 318.5 Q200.75 318.6 199.6 317.6 198.4 316.6 198.25 315.05 198.15 313.5 199.15 312.35 200.15 311.15 201.7 311.0 L204.7 310.9 Q212.9 310.9 217.35 314.55 219.55 316.35 220.7 318.95 221.8 321.4 221.75 324.1 221.7 331.4 215.75 338.0 209.35 344.85 201.65 344.9 195.75 344.9 191.0 340.4 186.0 335.65 183.3 326.8 L183.3 388.65 188.0 388.65 Q200.6 379.55 210.1 369.3 224.7 353.6 229.45 337.7 L229.45 311.4 Q228.3 309.3 226.55 307.7 M240.65 324.45 L240.65 388.65 245.95 388.65 Q258.55 379.55 268.1 369.3 281.75 354.6 286.8 339.7 L286.8 310.35 Q285.85 308.9 284.55 307.7 279.9 303.4 272.0 303.4 267.65 303.4 263.15 304.85 258.65 306.25 255.15 308.75 251.6 311.25 249.7 314.3 247.75 317.45 247.75 320.75 247.75 322.55 248.4 324.5 252.65 337.3 259.65 337.4 261.7 337.45 264.0 336.25 266.25 335.05 268.2 332.95 270.1 330.95 271.2 328.45 272.3 326.0 272.25 324.1 272.2 321.75 270.6 320.35 268.25 318.4 262.7 318.4 L260.3 318.5 Q258.75 318.6 257.6 317.6 256.4 316.6 256.25 315.05 256.1 313.5 257.1 312.35 258.1 311.15 259.65 311.0 L262.7 310.9 Q270.85 310.9 275.3 314.55 277.55 316.35 278.7 318.95 279.8 321.4 279.7 324.1 279.7 331.4 273.7 338.0 267.4 344.85 259.65 344.9 253.75 344.9 249.0 340.4 244.0 335.65 241.25 326.8 L240.65 324.45 M215.6 374.4 Q208.75 381.75 200.25 388.65 L229.45 388.65 229.45 356.05 Q224.0 365.4 215.6 374.4 M258.25 388.65 L286.8 388.65 286.8 357.15 Q281.5 365.9 273.6 374.4 266.75 381.75 258.25 388.65" fill="#ffffff" fill-opacity="0.0" fill-rule="evenodd" stroke="none"/>
    <path d="M465.1 33.4 L465.1 305.55 468.7 302.6 Q478.0 296.0 489.9 295.9 499.6 295.9 506.25 301.1 L506.25 44.4 Q494.55 40.9 482.2 37.65 L465.1 33.4 M412.75 22.7 L412.75 303.9 414.45 302.6 Q423.75 296.0 435.65 295.9 446.3 295.9 453.25 302.15 L453.9 302.8 453.9 30.8 Q433.5 26.25 412.75 22.7 M392.3 19.5 Q373.8 16.8 355.35 15.05 L355.35 307.95 Q357.7 305.05 361.15 302.6 370.45 296.0 382.35 295.9 393.0 295.9 399.95 302.15 L401.5 303.7 401.5 20.9 402.25 21.0 392.3 19.5 M389.05 318.95 Q390.15 321.4 390.1 324.1 390.05 331.45 384.05 338.0 377.75 344.85 370.0 344.9 364.1 344.9 359.35 340.4 357.15 338.3 355.35 335.4 L355.35 388.65 356.35 388.65 Q368.95 379.55 378.45 369.3 393.95 352.65 398.35 335.7 400.3 328.35 400.3 322.55 400.25 312.7 394.9 307.7 390.25 303.4 382.35 303.4 378.0 303.4 373.5 304.85 369.0 306.25 365.5 308.75 361.95 311.25 360.05 314.3 358.1 317.45 358.15 320.75 358.15 322.7 358.75 324.5 363.0 337.3 370.0 337.4 372.05 337.45 374.35 336.25 376.65 335.05 378.55 332.95 380.45 330.95 381.55 328.45 382.65 326.0 382.6 324.1 382.55 321.65 380.95 320.35 378.6 318.4 373.05 318.4 L370.65 318.5 Q369.1 318.6 367.95 317.6 366.75 316.6 366.6 315.05 366.5 313.5 367.5 312.35 368.45 311.15 370.0 311.0 L373.05 310.9 Q381.2 310.9 385.65 314.55 387.9 316.3 389.05 318.95 M329.95 303.4 Q325.6 303.4 321.1 304.85 316.6 306.25 313.15 308.75 309.6 311.25 307.7 314.3 305.75 317.45 305.75 320.75 305.75 322.5 306.35 324.5 310.65 337.3 317.65 337.4 319.65 337.45 322.0 336.25 324.3 335.05 326.2 332.95 328.1 330.95 329.2 328.45 330.3 326.0 330.25 324.1 330.2 321.75 328.6 320.35 326.25 318.4 320.7 318.4 L318.3 318.5 Q316.75 318.6 315.55 317.6 314.35 316.6 314.25 315.05 314.1 313.5 315.1 312.35 316.1 311.15 317.65 311.0 L320.7 310.9 Q328.85 310.9 333.3 314.55 335.5 316.35 336.65 318.95 337.75 321.4 337.7 324.1 337.65 331.5 331.7 338.0 328.85 341.1 325.45 342.9 321.65 344.85 317.65 344.9 311.75 344.9 307.0 340.4 302.0 335.65 299.25 326.8 298.3 323.8 298.3 320.75 298.6 309.8 308.75 302.6 318.05 296.0 329.95 295.9 338.15 295.9 344.15 299.6 L344.15 14.0 298.0 11.5 298.0 388.65 303.95 388.65 Q316.55 379.55 326.1 369.3 338.9 355.5 344.15 341.5 L344.15 309.5 342.5 307.7 Q337.9 303.4 329.95 303.4 M331.6 374.4 Q324.75 381.75 316.25 388.65 L344.15 388.65 344.15 358.15 Q339.05 366.4 331.6 374.4 M401.5 348.95 Q395.55 362.0 383.95 374.4 377.1 381.75 368.6 388.65 L401.5 388.65 401.5 348.95 M480.6 310.9 Q488.8 310.9 493.2 314.55 495.45 316.3 496.6 318.95 497.7 321.4 497.65 324.1 497.6 331.45 491.6 338.0 485.3 344.85 477.55 344.9 471.65 344.9 466.9 340.4 L465.1 338.5 465.1 387.75 Q476.95 379.05 486.0 369.3 501.45 352.65 505.9 335.7 L506.25 334.35 506.25 313.35 Q504.9 310.0 502.45 307.7 497.8 303.4 489.9 303.4 485.55 303.4 481.05 304.85 476.55 306.25 473.05 308.75 469.5 311.25 467.6 314.3 465.65 317.45 465.7 320.75 465.7 322.7 466.3 324.5 470.55 337.3 477.55 337.4 479.6 337.45 481.9 336.25 484.2 335.05 486.1 332.95 488.0 330.95 489.1 328.45 490.2 326.0 490.15 324.1 490.1 321.75 488.5 320.35 486.15 318.4 480.6 318.4 L478.2 318.5 Q476.65 318.6 475.5 317.6 474.3 316.6 474.15 315.05 474.05 313.5 475.05 312.35 476.0 311.15 477.55 311.0 L480.6 310.9 M453.6 322.55 Q453.55 312.6 448.2 307.7 443.55 303.4 435.65 303.4 431.3 303.4 426.8 304.85 422.3 306.25 418.85 308.75 415.3 311.25 413.35 314.3 L412.75 315.4 412.75 326.45 Q416.9 337.3 423.3 337.4 425.35 337.45 427.65 336.25 429.95 335.05 431.85 332.95 433.75 330.95 434.85 328.45 435.95 326.0 435.9 324.1 435.85 321.65 434.25 320.35 432.0 318.4 426.35 318.4 L423.95 318.5 Q422.4 318.6 421.25 317.6 420.05 316.6 419.9 315.05 419.8 313.5 420.8 312.35 421.8 311.15 423.35 311.0 L426.35 310.9 Q434.55 310.9 439.0 314.55 441.2 316.35 442.35 318.95 443.45 321.4 443.4 324.1 443.35 331.45 437.35 338.0 431.05 344.85 423.3 344.9 417.45 344.9 412.75 340.5 L412.75 386.35 Q423.45 378.3 431.8 369.3 447.25 352.65 451.7 335.7 453.6 328.5 453.6 322.55 M421.9 388.65 L453.9 388.65 453.9 350.85 Q448.0 362.9 437.25 374.4 430.4 381.75 421.9 388.65 M531.5 318.5 Q529.95 318.6 528.8 317.6 527.6 316.6 527.45 315.05 527.35 313.5 528.35 312.35 529.35 311.15 530.9 311.0 L533.9 310.9 Q542.1 310.9 546.55 314.55 548.75 316.35 549.9 318.95 551.0 321.4 550.95 324.1 550.9 331.45 544.9 338.0 538.6 344.85 530.85 344.9 524.95 344.9 520.2 340.4 L517.5 337.3 517.5 388.45 Q529.95 379.45 539.3 369.3 554.8 352.65 559.2 335.7 561.15 328.6 561.15 322.55 561.1 312.6 555.75 307.7 551.1 303.4 543.2 303.4 538.85 303.4 534.35 304.85 529.85 306.25 526.35 308.75 522.8 311.25 520.9 314.3 518.95 317.45 519.0 320.75 519.0 322.7 519.6 324.5 523.9 337.3 530.85 337.4 532.9 337.45 535.2 336.25 537.5 335.05 539.4 332.95 541.3 330.95 542.4 328.45 543.5 326.0 543.45 324.1 543.4 321.65 541.8 320.35 539.45 318.4 533.9 318.4 L531.5 318.5 M491.5 374.4 Q484.65 381.75 476.15 388.65 L506.25 388.65 506.25 354.5 Q500.6 364.65 491.5 374.4 M278.25 11.25 Q259.35 11.25 240.65 12.2 L240.65 317.35 Q242.25 308.65 250.8 302.6 260.1 296.0 272.0 295.9 280.6 295.9 286.8 300.0 L286.8 11.3 278.25 11.25 M183.3 17.25 L183.3 314.8 Q185.55 307.75 192.8 302.6 202.1 296.0 214.0 295.9 223.1 295.9 229.45 300.45 L229.45 12.8 Q206.2 14.3 183.3 17.25 M125.95 26.9 L125.95 313.1 Q128.45 307.1 134.85 302.6 144.1 296.0 156.0 295.9 165.55 295.9 172.05 300.9 L172.05 18.75 146.95 22.8 Q136.4 24.7 125.95 26.9 M11.2 61.6 L11.2 310.65 Q13.8 306.15 18.85 302.6 28.15 296.0 40.05 295.9 50.45 295.9 57.35 301.9 L57.35 45.0 Q34.0 52.45 11.2 61.6 M68.6 41.5 L68.6 311.7 Q71.2 306.6 76.85 302.6 86.15 296.0 98.05 295.9 108.0 295.9 114.7 301.35 L114.7 29.35 Q91.4 34.65 68.6 41.5 M73.8 320.75 Q73.8 322.55 74.45 324.5 78.7 337.3 85.7 337.4 87.75 337.45 90.05 336.25 92.35 335.05 94.25 332.95 96.15 330.95 97.25 328.45 98.35 326.0 98.3 324.1 98.25 321.75 96.65 320.35 94.3 318.4 88.75 318.4 L86.35 318.5 Q84.8 318.6 83.65 317.6 82.45 316.6 82.3 315.05 82.15 313.5 83.15 312.35 84.15 311.15 85.7 311.0 L88.75 310.9 Q96.9 310.9 101.35 314.55 103.6 316.3 104.75 318.95 105.8 321.35 105.8 324.1 105.75 331.45 99.75 338.0 93.45 344.85 85.7 344.9 79.8 344.9 75.05 340.4 71.15 336.7 68.6 330.45 L68.6 388.65 72.0 388.65 Q84.6 379.55 94.15 369.3 109.6 352.65 114.05 335.7 L114.7 333.05 114.7 314.1 Q113.35 310.2 110.6 307.7 105.95 303.4 98.05 303.4 93.7 303.4 89.2 304.85 84.7 306.25 81.2 308.75 77.65 311.25 75.75 314.3 73.8 317.45 73.8 320.75 M52.6 307.7 Q47.95 303.4 40.05 303.4 35.7 303.4 31.2 304.85 26.7 306.25 23.25 308.75 19.7 311.25 17.8 314.3 15.85 317.45 15.85 320.75 15.85 322.5 16.45 324.5 20.75 337.3 27.7 337.4 29.75 337.45 32.05 336.25 34.35 335.05 36.25 332.95 38.15 330.95 39.25 328.45 40.35 326.0 40.3 324.1 40.25 321.65 38.65 320.35 36.4 318.4 30.75 318.4 L28.35 318.5 Q26.8 318.6 25.65 317.6 24.45 316.6 24.3 315.05 24.2 313.5 25.2 312.35 26.2 311.15 27.75 311.0 L30.75 310.9 Q38.95 310.9 43.4 314.55 45.6 316.35 46.75 318.95 47.85 321.4 47.8 324.1 47.75 331.4 41.8 338.0 35.4 344.85 27.7 344.9 21.8 344.9 17.05 340.4 13.55 337.1 11.2 331.8 L11.2 388.65 14.05 388.65 Q26.65 379.55 36.15 369.3 51.65 352.65 56.05 335.7 L57.35 329.8 57.35 316.35 Q56.15 310.95 52.6 307.7 M41.65 374.4 Q34.8 381.75 26.3 388.65 L57.35 388.65 57.35 352.7 Q51.55 363.8 41.65 374.4 M159.35 314.55 Q161.55 316.35 162.7 318.95 163.8 321.4 163.75 324.1 163.7 331.5 157.75 338.0 154.9 341.1 151.5 342.9 147.7 344.85 143.7 344.9 137.8 344.9 133.05 340.4 128.6 336.2 125.95 328.75 L125.95 388.65 130.0 388.65 Q142.6 379.55 152.15 369.3 167.6 352.65 172.05 335.7 L172.05 312.55 Q170.75 309.7 168.55 307.7 163.9 303.4 156.0 303.4 151.65 303.4 147.15 304.85 142.65 306.25 139.2 308.75 135.65 311.25 133.75 314.3 131.8 317.45 131.8 320.75 131.8 322.5 132.4 324.5 136.7 337.3 143.7 337.4 145.7 337.45 148.05 336.25 150.35 335.05 152.25 332.95 154.1 330.9 155.25 328.45 156.35 326.0 156.3 324.1 156.25 321.75 154.65 320.35 152.3 318.4 146.75 318.4 L144.35 318.5 Q142.8 318.6 141.6 317.6 140.4 316.6 140.3 315.05 140.15 313.5 141.15 312.35 142.15 311.15 143.7 311.0 L146.75 310.9 Q154.9 310.9 159.35 314.55 M114.7 353.95 Q109.0 364.35 99.65 374.4 92.8 381.75 84.3 388.65 L114.7 388.65 114.7 353.95 M142.25 388.65 L172.05 388.65 172.05 355.0 Q166.45 364.85 157.6 374.4 150.8 381.75 142.25 388.65 M226.55 307.7 Q221.9 303.4 214.0 303.4 209.65 303.4 205.15 304.85 200.65 306.25 197.15 308.75 193.6 311.25 191.7 314.3 189.75 317.45 189.8 320.75 189.8 322.5 190.4 324.5 194.7 337.3 201.65 337.4 203.7 337.45 206.0 336.25 208.3 335.05 210.2 332.95 212.1 330.95 213.2 328.45 214.3 326.0 214.25 324.1 214.2 321.65 212.6 320.35 210.35 318.4 204.7 318.4 L202.3 318.5 Q200.75 318.6 199.6 317.6 198.4 316.6 198.25 315.05 198.15 313.5 199.15 312.35 200.15 311.15 201.7 311.0 L204.7 310.9 Q212.9 310.9 217.35 314.55 219.55 316.35 220.7 318.95 221.8 321.4 221.75 324.1 221.7 331.4 215.75 338.0 209.35 344.85 201.65 344.9 195.75 344.9 191.0 340.4 186.0 335.65 183.3 326.8 L183.3 388.65 188.0 388.65 Q200.6 379.55 210.1 369.3 224.7 353.6 229.45 337.7 L229.45 311.4 Q228.3 309.3 226.55 307.7 M240.65 324.45 L240.65 388.65 245.95 388.65 Q258.55 379.55 268.1 369.3 281.75 354.6 286.8 339.7 L286.8 310.35 Q285.85 308.9 284.55 307.7 279.9 303.4 272.0 303.4 267.65 303.4 263.15 304.85 258.65 306.25 255.15 308.75 251.6 311.25 249.7 314.3 247.75 317.45 247.75 320.75 247.75 322.55 248.4 324.5 252.65 337.3 259.65 337.4 261.7 337.45 264.0 336.25 266.25 335.05 268.2 332.95 270.1 330.95 271.2 328.45 272.3 326.0 272.25 324.1 272.2 321.75 270.6 320.35 268.25 318.4 262.7 318.4 L260.3 318.5 Q258.75 318.6 257.6 317.6 256.4 316.6 256.25 315.05 256.1 313.5 257.1 312.35 258.1 311.15 259.65 311.0 L262.7 310.9 Q270.85 310.9 275.3 314.55 277.55 316.35 278.7 318.95 279.8 321.4 279.7 324.1 279.7 331.4 273.7 338.0 267.4 344.85 259.65 344.9 253.75 344.9 249.0 340.4 244.0 335.65 241.25 326.8 L240.65 324.45 M215.6 374.4 Q208.75 381.75 200.25 388.65 L229.45 388.65 229.45 356.05 Q224.0 365.4 215.6 374.4 M258.25 388.65 L286.8 388.65 286.8 357.15 Q281.5 365.9 273.6 374.4 266.75 381.75 258.25 388.65" fill="none" stroke="#000000" stroke-linecap="round" stroke-linejoin="miter-clip" stroke-miterlimit="4.0" stroke-opacity="0.4" stroke-width="1.0"/>
    <path d="M561.95 63.95 Q554.7 60.75 541.0 55.8 529.65 51.7 517.5 47.85 L517.5 306.5 Q519.45 304.4 522.0 302.6 531.3 296.0 543.2 295.9 553.85 295.9 560.8 302.15 564.55 305.55 566.55 310.65 568.65 315.95 568.65 322.55 568.65 329.4 566.45 337.6 561.35 356.65 544.8 374.4 537.95 381.75 529.45 388.65 L577.95 388.65 577.95 407.35 517.5 407.35 517.5 450.35 506.25 450.35 506.25 407.35 465.1 407.35 465.1 450.35 453.9 450.35 453.9 407.35 412.75 407.35 412.75 450.35 401.5 450.35 401.5 407.35 355.35 407.35 355.35 450.35 344.15 450.35 344.15 407.35 298.0 407.35 298.0 450.35 286.8 450.35 286.8 407.35 240.65 407.35 240.65 450.35 229.45 450.35 229.45 407.35 183.3 407.35 183.3 450.35 172.05 450.35 172.05 407.35 125.95 407.35 125.95 450.35 114.7 450.35 114.7 407.35 68.6 407.35 68.6 450.35 57.35 450.35 57.35 407.35 11.2 407.35 11.2 450.35 0.0 450.35 0.0 53.85 1.05 53.85 0.95 53.65 Q70.4 25.15 145.0 11.75 210.2 0.0 278.25 0.0 383.0 0.0 485.05 26.8 536.1 40.2 566.5 53.7 L561.95 63.95" fill="none" stroke="#000000" stroke-linecap="round" stroke-linejoin="miter-clip" stroke-miterlimit="4.0" stroke-opacity="0.6" stroke-width="1.0"/>
  </g>
</svg>
