<?xml version="1.0" encoding="UTF-8" standalone="no"?>
<svg xmlns:xlink="http://www.w3.org/1999/xlink" height="116.55px" width="619.2px" xmlns="http://www.w3.org/2000/svg">
  <g transform="matrix(1.0, 0.0, 0.0, 1.0, 309.65, 58.25)">
    <path d="M305.1 -36.9 L306.65 -36.9 306.7 -36.25 305.1 -36.9" fill="#dc6a58" fill-rule="evenodd" stroke="none"/>
    <path d="M306.7 -36.25 L306.75 -36.25 306.7 -36.25 309.05 48.05 296.5 48.05 296.5 48.15 287.45 50.85 Q277.6 53.6 273.15 53.6 269.35 53.6 261.7 51.8 254.05 49.95 251.55 49.95 L241.7 48.6 Q235.15 47.8 231.85 49.95 228.5 52.25 219.95 51.35 L212.1 49.95 181.0 52.95 171.35 53.4 Q172.05 52.1 163.05 51.2 151.7 50.1 142.6 51.55 L128.95 54.6 116.35 55.5 103.8 56.4 Q97.1 57.8 89.9 57.8 L73.25 56.4 66.75 55.5 58.9 54.6 Q44.55 52.4 37.8 51.95 26.3 51.15 19.4 54.6 13.2 57.75 -9.1 55.95 L-36.25 54.6 Q-41.35 55.65 -48.8 54.45 L-61.4 52.85 Q-65.55 52.85 -73.5 50.35 -80.05 48.3 -82.9 49.25 L-93.45 51.25 Q-102.0 52.65 -108.05 54.6 -114.05 56.65 -125.55 56.2 -137.6 55.75 -140.4 56.4 -143.7 57.25 -153.35 52.85 -163.4 48.3 -169.1 49.25 L-182.3 50.35 Q-189.05 50.75 -194.2 52.85 -199.7 55.0 -210.1 54.2 L-224.75 52.85 -235.25 51.95 -244.5 51.05 Q-246.3 51.05 -254.35 48.4 -262.45 45.65 -269.65 45.65 L-281.95 45.0 -293.0 45.65 Q-299.7 46.8 -305.1 44.6 L-309.15 42.1 -303.75 -36.9 -301.95 -36.9 -247.95 -57.75 251.1 -57.75 305.1 -36.9 306.7 -36.25 -303.65 -36.25 -301.95 -36.9 -303.65 -36.25 306.7 -36.25" fill="#ffffff" fill-opacity="0.0" fill-rule="evenodd" stroke="none"/>
    <path d="M306.7 -36.25 L306.75 -36.25 306.7 -36.25 309.05 48.05 296.5 48.05 296.5 48.15 287.45 50.85 Q277.6 53.6 273.15 53.6 269.35 53.6 261.7 51.8 254.05 49.95 251.55 49.95 L241.7 48.6 Q235.15 47.8 231.85 49.95 228.5 52.25 219.95 51.35 L212.1 49.95 181.0 52.95 171.35 53.4 Q172.05 52.1 163.05 51.2 151.7 50.1 142.6 51.55 L128.95 54.6 116.35 55.5 103.8 56.4 Q97.1 57.8 89.9 57.8 L73.25 56.4 66.75 55.5 58.9 54.6 Q44.55 52.4 37.8 51.95 26.3 51.15 19.4 54.6 13.2 57.75 -9.1 55.95 L-36.25 54.6 Q-41.35 55.65 -48.8 54.45 L-61.4 52.85 Q-65.55 52.85 -73.5 50.35 -80.05 48.3 -82.9 49.25 L-93.45 51.25 Q-102.0 52.65 -108.05 54.6 -114.05 56.65 -125.55 56.2 -137.6 55.75 -140.4 56.4 -143.7 57.25 -153.35 52.85 -163.4 48.3 -169.1 49.25 L-182.3 50.35 Q-189.05 50.75 -194.2 52.85 -199.7 55.0 -210.1 54.2 L-224.75 52.85 -235.25 51.95 -244.5 51.05 Q-246.3 51.05 -254.35 48.4 -262.45 45.65 -269.65 45.65 L-281.95 45.0 -293.0 45.65 Q-299.7 46.8 -305.1 44.6 L-309.15 42.1 -303.75 -36.9 -301.95 -36.9 -247.95 -57.75 251.1 -57.75 305.1 -36.9 306.65 -36.9 306.7 -36.25 305.1 -36.9 M306.7 -36.25 L-303.65 -36.25 -301.95 -36.9" fill="none" stroke="#000000" stroke-linecap="round" stroke-linejoin="miter-clip" stroke-miterlimit="4.0" stroke-opacity="0.4" stroke-width="1.0"/>
    <path d="M21.75 -26.6 Q16.95 -23.15 14.65 -17.9 12.15 -12.3 12.15 32.35 L10.55 -9.05 10.5 -9.1 Q8.75 -13.05 6.35 -17.05 1.6 -24.85 -2.4 -26.85 L-3.55 -27.1 Q-6.6 -27.1 -11.6 -20.1 -15.0 -15.4 -20.65 -5.15 L-23.05 -0.95 Q-23.3 -3.8 -25.15 -14.3 L-27.0 -25.0 -27.7 -24.95 -27.7 12.6 Q-27.7 16.65 -30.4 46.0 L-34.2 -29.15 -34.35 -29.25 Q-40.1 -32.4 -43.6 -32.4 -45.1 -32.4 -45.9 -31.6 -48.4 -29.15 -48.4 -6.6 -48.4 0.6 -46.6 33.05 L-47.05 31.05 Q-49.45 19.6 -50.35 13.65 -52.1 2.4 -51.7 -5.75 -51.2 -17.3 -58.65 -23.65 -61.05 -25.65 -63.85 -26.85 L-65.55 -27.45 -65.55 39.15 Q-68.55 28.65 -67.35 -3.6 L-65.9 -27.55 -66.35 -27.7 -78.75 -27.7 -78.75 -27.35 Q-79.45 -11.0 -80.4 3.65 -81.5 20.75 -82.2 23.8 -82.9 21.0 -84.15 1.95 -85.4 -15.55 -86.0 -21.3 -86.85 -28.95 -87.9 -29.25 L-88.55 -29.4 Q-90.45 -29.4 -93.15 -26.9 -95.65 -24.55 -96.25 -22.65 -97.1 -20.15 -98.95 -1.4 -100.8 18.4 -100.3 23.75 -99.9 27.8 -102.75 35.15 -104.55 39.9 -107.3 45.0 -106.0 32.8 -111.0 0.5 L-116.3 -29.8 -116.45 -30.1 -116.7 -30.1 -119.9 -29.45 Q-123.2 -28.15 -124.25 -25.1 -125.6 -20.85 -125.8 22.2 L-127.55 -3.45 Q-127.55 -6.9 -128.2 -14.6 -129.25 -25.5 -130.75 -27.55 -132.35 -29.65 -138.35 -29.65 L-142.2 -29.45 -143.9 -29.25 -144.1 -29.25 -144.15 -29.1 Q-147.35 -23.7 -151.1 2.65 L-150.5 37.95 Q-156.8 25.45 -155.0 -6.0 -155.4 -16.35 -154.65 -18.45 -154.35 -19.55 -154.95 -20.5 -156.35 -22.8 -163.15 -24.7 -167.45 -25.8 -170.15 -26.1 L-178.45 -26.1 -182.25 15.4 -185.3 -4.2 Q-187.35 -18.95 -187.35 -25.75 -187.35 -29.35 -187.85 -30.9 -188.3 -32.5 -189.45 -32.5 -190.35 -32.5 -192.3 -30.8 -194.05 -29.25 -194.6 -29.25 L-194.75 -29.25 -200.0 -30.45 -204.35 3.4 Q-209.15 37.85 -209.15 23.6 -209.15 9.4 -208.0 -14.25 L-207.0 -31.7 -207.25 -31.75 -209.2 9.8 -210.5 -32.65 -210.95 -32.45 -217.35 -30.05 Q-218.4 -29.75 -219.1 -17.15 -219.75 -6.85 -220.6 22.05 L-221.2 40.6 -222.5 8.05 Q-223.6 -24.75 -224.05 -27.4 -224.8 -31.75 -238.0 -31.75 L-240.4 -31.7 -240.7 -31.65 -243.7 -12.9 -249.7 -30.9 -250.0 -30.9 -254.4 -30.55 -251.0 35.55 Q-255.2 25.5 -255.35 -5.75 L-254.75 -30.55 -262.75 -30.1 Q-263.55 -30.1 -264.05 -26.0 -264.9 -18.7 -265.55 2.95 L-266.2 30.2 -269.65 -0.5 Q-271.9 -21.25 -271.9 -24.2 -271.9 -27.1 -283.3 -29.45 -291.35 -31.1 -303.7 -32.1 L-303.4 -36.6 306.35 -36.6 306.4 -34.35 298.7 -31.2 Q290.35 -27.9 289.15 -26.8 286.95 -24.55 283.65 11.1 L274.55 -27.7 274.25 -27.7 Q272.45 -27.7 270.7 -27.1 267.25 -26.05 266.75 -23.45 266.3 -21.15 265.15 -2.05 L263.75 24.7 Q256.95 -11.65 256.3 -22.6 255.8 -29.85 252.5 -29.85 251.05 -29.85 249.3 -28.35 L247.7 -26.8 247.6 -26.65 247.6 -26.5 Q248.25 -22.1 246.55 -11.95 L243.2 4.25 242.95 5.35 Q242.45 -3.05 240.5 -14.7 238.5 -27.25 237.05 -29.15 235.3 -31.45 228.55 -31.45 L221.9 -30.8 Q218.6 -30.25 216.65 -29.25 213.8 -27.8 214.2 2.2 214.35 19.65 215.55 42.65 209.8 25.55 205.15 10.65 197.3 -14.4 196.45 -21.0 195.25 -30.3 188.55 -30.3 L184.05 -29.5 183.25 -29.25 Q181.25 -28.8 181.3 -7.15 181.3 6.6 182.05 24.7 L166.8 -28.55 166.55 -28.5 160.2 -27.75 Q154.55 -26.7 153.5 -25.15 152.55 -23.7 152.45 -14.7 L152.6 -2.7 Q137.35 -17.95 135.75 -20.4 134.55 -22.15 128.5 -23.8 123.0 -25.3 119.45 -25.3 116.3 -25.3 115.05 -15.55 114.3 -10.25 114.3 -4.2 114.3 2.0 110.6 52.55 L104.65 16.55 Q100.35 -8.75 98.3 -17.3 97.15 -22.2 96.5 -22.2 L96.0 -21.9 Q94.65 -19.2 93.7 30.95 L88.7 -20.2 Q88.3 -24.3 85.45 -25.85 83.45 -27.0 80.05 -27.0 L76.45 -26.9 72.35 -27.4 63.5 -28.3 Q59.3 -28.3 57.8 -26.8 54.95 -23.95 53.0 18.7 L43.2 -22.8 43.05 -22.85 Q30.75 -29.4 27.4 -29.4 L26.8 -29.25 Q24.35 -28.5 21.75 -26.6" fill="#000000" fill-opacity="0.2" fill-rule="evenodd" stroke="none"/>
    <path d="M-114.65 -36.25 L-111.8 -12.75 Q-109.1 12.1 -109.8 18.8 L-114.65 -36.25" fill="#000000" fill-opacity="0.2" fill-rule="evenodd" stroke="none"/>
    <path d="M10.95 -32.1 Q9.15 -33.1 8.7 -16.65 8.55 -12.05 8.55 4.7 L7.7 24.05 Q7.0 36.2 7.4 43.3 M51.65 -33.7 L51.65 -32.1 51.65 -30.7 51.55 -17.6 Q51.5 -9.75 51.6 -4.6 51.95 11.7 53.05 21.5 54.8 36.75 58.85 46.85 M100.75 -35.75 L103.25 -11.2 106.75 20.5 M153.4 -34.55 Q153.1 -22.0 155.0 -3.35 L158.15 27.7 M275.45 -33.35 L275.45 -11.6 275.45 37.3 M247.95 -33.35 Q252.0 -20.8 252.5 0.85 253.0 23.05 249.1 36.1 M192.9 -33.35 Q194.45 -33.1 201.7 4.3 210.25 48.3 210.85 50.5 M110.3 -34.55 Q110.3 11.05 106.75 44.45 M-254.65 -35.05 L-255.35 -5.75 Q-255.2 25.5 -251.0 35.55 M-206.8 -35.05 L-208.0 -14.25 Q-209.15 9.4 -209.15 23.6 -209.15 37.85 -204.35 3.4 L-199.6 -33.85 M-151.75 -36.25 L-153.0 -27.5 Q-154.35 -16.8 -154.95 -6.8 -156.9 25.3 -150.5 37.95 M-114.65 -36.25 L-111.8 -12.75 Q-109.1 12.1 -109.8 18.8 M-105.0 -35.05 L-107.1 -0.6 Q-109.55 35.3 -111.0 42.75 M-65.55 -33.85 L-67.35 -3.6 Q-68.55 28.65 -65.55 39.15 M-26.15 -35.75 Q-28.6 -29.9 -28.0 -18.3 -27.7 -11.95 -26.0 0.1 -21.1 -2.1 -18.5 -13.05 -16.6 -21.3 -16.6 -29.75" fill="none" stroke="#000000" stroke-linecap="butt" stroke-linejoin="miter-clip" stroke-miterlimit="4.0" stroke-opacity="0.4" stroke-width="1.0"/>
  </g>
</svg>
