<?xml version="1.0" encoding="UTF-8" standalone="no"?>
<svg xmlns:xlink="http://www.w3.org/1999/xlink" height="33.95px" width="32.4px" xmlns="http://www.w3.org/2000/svg">
  <g transform="matrix(1.0, 0.0, 0.0, 1.0, 16.2, 17.75)">
    <path d="M15.7 -0.1 Q15.9 6.45 11.4 11.0 6.65 15.7 0.1 15.7 -6.25 15.9 -11.0 11.4 -15.7 6.9 -15.7 0.3 -15.9 -6.25 -11.2 -10.95 -6.65 -15.5 -0.1 -15.7 6.45 -15.7 11.0 -11.2 15.7 -6.45 15.7 -0.1" fill="#ffffff" fill-opacity="0.0" fill-rule="evenodd" stroke="none"/>
    <path d="M15.7 -0.1 Q15.9 6.45 11.4 11.0 6.65 15.7 0.1 15.7 -6.25 15.9 -11.0 11.4 -15.7 6.9 -15.7 0.3 -15.9 -6.25 -11.2 -10.95 -6.65 -15.5 -0.1 -15.7 6.45 -15.7 11.0 -11.2 15.7 -6.45 15.7 -0.1 Z" fill="none" stroke="#000000" stroke-linecap="butt" stroke-linejoin="miter-clip" stroke-miterlimit="4.0" stroke-opacity="0.2" stroke-width="1.0"/>
  </g>
</svg>
