<?xml version="1.0" encoding="UTF-8" standalone="no"?>
<svg xmlns:xlink="http://www.w3.org/1999/xlink" height="525.55px" width="883.95px" xmlns="http://www.w3.org/2000/svg">
  <g transform="matrix(1.0, 0.0, 0.0, 1.0, 443.5, 307.05)">
    <path d="M129.2 -267.8 L129.2 -286.25 -159.6 -286.25 -159.6 -267.8 129.2 -267.8 M-193.65 -174.3 L-193.65 -306.55 168.7 -306.55 168.7 -174.3 -193.65 -174.3" fill="#ffffff" fill-opacity="0.0" fill-rule="evenodd" stroke="none"/>
    <path d="M129.2 -267.8 L-159.6 -267.8 -159.6 -286.25 129.2 -286.25 129.2 -267.8 M168.7 -174.3 L332.35 -174.3 334.95 -174.3 334.95 194.9 334.95 218.0 -335.35 218.0 -335.35 194.9 -335.35 -174.3 -193.65 -174.3 168.7 -174.3 M386.7 -208.4 L386.7 -209.15 439.95 -209.15 439.95 215.95 386.7 215.95 386.7 194.9 386.7 -208.4 M-389.95 194.9 L-389.95 215.95 -443.0 215.95 -443.0 -209.15 -389.95 -209.15 -389.95 -208.4 -389.95 194.9 M-238.0 158.05 L-238.0 162.5 238.15 162.5 238.15 158.05 -238.0 158.05 M236.85 156.75 L236.85 -125.35 -237.25 -125.35 -237.25 156.75 236.85 156.75" fill="#000000" fill-opacity="0.2" fill-rule="evenodd" stroke="none"/>
    <path d="M332.35 -174.3 L386.7 -208.4 386.7 194.9 334.95 194.9 334.95 -174.3 332.35 -174.3 M-335.35 194.9 L-389.95 194.9 -389.95 -208.4 -335.35 -174.3 -335.35 194.9" fill="#d6d6d6" fill-opacity="0.0" fill-rule="evenodd" stroke="none"/>
    <path d="M-238.0 158.05 L238.15 158.05 238.15 162.5 -238.0 162.5 -238.0 158.05" fill="#000000" fill-opacity="0.4" fill-rule="evenodd" stroke="none"/>
    <path d="M386.7 -208.4 L386.7 -209.15 439.95 -209.15 M-443.0 -209.15 L-389.95 -209.15 -389.95 -208.4 M332.35 -174.3 L334.95 -174.3" fill="none" stroke="#000000" stroke-linecap="butt" stroke-linejoin="miter-clip" stroke-miterlimit="4.0" stroke-width="1.0"/>
    <path d="M-193.65 -174.3 L-193.65 -306.55 168.7 -306.55 168.7 -174.3 M439.95 -209.15 L439.95 215.95 M-443.0 215.95 L-443.0 -209.15" fill="none" stroke="#000000" stroke-linecap="butt" stroke-linejoin="miter-clip" stroke-miterlimit="4.0" stroke-opacity="0.8" stroke-width="1.0"/>
    <path d="M168.7 -174.3 L332.35 -174.3 386.7 -208.4 386.7 194.9 334.95 194.9 334.95 218.0 -335.35 218.0 -335.35 194.9 -389.95 194.9 -389.95 215.95 -443.0 215.95 M439.95 215.95 L386.7 215.95 386.7 194.9 M-389.95 -208.4 L-335.35 -174.3 -193.65 -174.3 168.7 -174.3 M334.95 -174.3 L334.95 194.9 M-335.35 194.9 L-335.35 -174.3 M-389.95 194.9 L-389.95 -208.4" fill="none" stroke="#000000" stroke-linecap="butt" stroke-linejoin="miter-clip" stroke-miterlimit="4.0" stroke-opacity="0.6" stroke-width="1.0"/>
    <path d="M236.85 156.75 L-237.25 156.75 -237.25 -125.35 236.85 -125.35 236.85 156.75" fill="none" stroke="#000000" stroke-linecap="butt" stroke-linejoin="miter-clip" stroke-miterlimit="4.0" stroke-opacity="0.4" stroke-width="1.0"/>
    <path d="M336.25 -166.15 L-329.25 -166.15 -329.25 -170.8 336.25 -170.8 336.25 -166.15" fill="#f2f2f2" fill-opacity="0.8" fill-rule="evenodd" stroke="none"/>
    <path d="M169.8 -300.2 L-189.4 -300.2 -189.4 -304.65 169.8 -304.65 169.8 -300.2" fill="#f2f2f2" fill-opacity="0.8" fill-rule="evenodd" stroke="none"/>
  </g>
</svg>
