<?xml version="1.0" encoding="UTF-8" standalone="no"?>
<svg xmlns:xlink="http://www.w3.org/1999/xlink" height="130.45px" width="99.9px" xmlns="http://www.w3.org/2000/svg">
  <g transform="matrix(1.0, 0.0, 0.0, 1.0, 53.05, 58.1)">
    <path d="M29.6 0.5 L29.6 4.1 19.25 4.1 19.25 -16.55 29.6 -16.55 29.6 -7.3 46.35 -7.3 46.35 0.5 29.6 0.5 29.6 -7.3 29.6 0.5" fill="#ffffff" fill-opacity="0.0" fill-rule="evenodd" stroke="none"/>
    <path d="M29.6 0.5 L29.6 4.1 19.25 4.1 19.25 -16.55 29.6 -16.55 29.6 -7.3 46.35 -7.3 46.35 0.5 29.6 0.5 29.6 -7.3" fill="none" stroke="#000000" stroke-linecap="round" stroke-linejoin="miter-clip" stroke-miterlimit="4.0" stroke-opacity="0.2" stroke-width="1.0"/>
    <path d="M35.45 71.85 L19.25 71.85 19.25 65.35 35.45 65.35 35.45 71.85" fill="#ffffff" fill-opacity="0.0" fill-rule="evenodd" stroke="none"/>
    <path d="M35.45 71.85 L19.25 71.85 19.25 65.35 35.45 65.35 35.45 71.85 Z" fill="none" stroke="#000000" stroke-linecap="butt" stroke-linejoin="miter-clip" stroke-miterlimit="4.0" stroke-opacity="0.2" stroke-width="1.0"/>
    <path d="M32.8 -18.0 L31.45 -57.15 33.9 -57.6 38.5 -19.45 38.8 -17.0 Q36.9 -15.5 34.65 -15.8 L32.85 -16.45 32.8 -18.0 32.85 -16.45 34.65 -15.8 Q36.9 -15.5 38.8 -17.0 L38.5 -19.45 Q45.65 -16.45 39.0 -13.9 31.8 -11.05 30.8 -14.1 30.2 -16.15 31.8 -17.55 L32.8 -18.0" fill="#ffffff" fill-opacity="0.0" fill-rule="evenodd" stroke="none"/>
    <path d="M38.5 -19.45 L33.9 -57.6 31.45 -57.15 32.8 -18.0 32.85 -16.45 34.65 -15.8 Q36.9 -15.5 38.8 -17.0 L38.5 -19.45 Q45.65 -16.45 39.0 -13.9 31.8 -11.05 30.8 -14.1 30.2 -16.15 31.8 -17.55 L32.8 -18.0" fill="none" stroke="#000000" stroke-linecap="round" stroke-linejoin="miter-clip" stroke-miterlimit="4.0" stroke-opacity="0.2" stroke-width="1.0"/>
    <path d="M-45.45 9.0 L2.25 9.0 2.25 17.3 -45.45 17.3 -45.45 9.0" fill="#000000" fill-opacity="0.2" fill-rule="evenodd" stroke="none"/>
    <path d="M-44.2 28.3 L0.25 28.3 0.25 48.3 -44.2 48.3 -44.2 28.3" fill="#000000" fill-opacity="0.4" fill-rule="evenodd" stroke="none"/>
    <path d="M-45.45 9.0 L-45.45 17.3 2.25 17.3 2.25 9.0 -45.45 9.0 M-44.2 28.3 L-44.2 48.3 0.25 48.3 0.25 28.3 -44.2 28.3 M-52.55 3.55 L10.0 3.55 10.0 54.5 -52.55 54.5 -52.55 3.55" fill="#ffffff" fill-opacity="0.0" fill-rule="evenodd" stroke="none"/>
    <path d="M-45.45 9.0 L2.25 9.0 2.25 17.3 -45.45 17.3 -45.45 9.0 M-44.2 28.3 L0.25 28.3 0.25 48.3 -44.2 48.3 -44.2 28.3 M-52.55 3.55 L10.0 3.55 10.0 54.5 -52.55 54.5 -52.55 3.55" fill="none" stroke="#000000" stroke-linecap="butt" stroke-linejoin="miter-clip" stroke-miterlimit="4.0" stroke-opacity="0.2" stroke-width="1.0"/>
    <path d="M-27.75 -23.9 Q-25.65 -26.05 -22.65 -26.05 -19.65 -26.05 -17.45 -23.9 -15.3 -21.8 -15.3 -18.8 -15.3 -15.8 -17.45 -13.7 -19.55 -11.55 -22.65 -11.55 -25.65 -11.55 -27.75 -13.7 -29.9 -15.8 -29.9 -18.8 -29.9 -21.8 -27.75 -23.9" fill="#000000" fill-opacity="0.4" fill-rule="evenodd" stroke="none"/>
    <path d="M-22.3 -28.2 Q-17.9 -28.2 -14.8 -25.1 -11.75 -22.1 -11.75 -17.75 -11.75 -13.35 -14.8 -10.3 -17.9 -7.2 -22.3 -7.2 -26.65 -7.2 -29.65 -10.3 -32.7 -13.35 -32.7 -17.75 -32.7 -22.0 -29.65 -25.1 -26.55 -28.2 -22.3 -28.2 M-27.75 -23.9 Q-29.9 -21.8 -29.9 -18.8 -29.9 -15.8 -27.75 -13.7 -25.65 -11.55 -22.65 -11.55 -19.55 -11.55 -17.45 -13.7 -15.3 -15.8 -15.3 -18.8 -15.3 -21.8 -17.45 -23.9 -19.65 -26.05 -22.65 -26.05 -25.65 -26.05 -27.75 -23.9" fill="#ffffff" fill-opacity="0.0" fill-rule="evenodd" stroke="none"/>
    <path d="M-22.3 -28.2 Q-17.9 -28.2 -14.8 -25.1 -11.75 -22.1 -11.75 -17.75 -11.75 -13.35 -14.8 -10.3 -17.9 -7.2 -22.3 -7.2 -26.65 -7.2 -29.65 -10.3 -32.7 -13.35 -32.7 -17.75 -32.7 -22.0 -29.65 -25.1 -26.55 -28.2 -22.3 -28.2 M-27.75 -23.9 Q-25.65 -26.05 -22.65 -26.05 -19.65 -26.05 -17.45 -23.9 -15.3 -21.8 -15.3 -18.8 -15.3 -15.8 -17.45 -13.7 -19.55 -11.55 -22.65 -11.55 -25.65 -11.55 -27.75 -13.7 -29.9 -15.8 -29.9 -18.8 -29.9 -21.8 -27.75 -23.9" fill="none" stroke="#000000" stroke-linecap="butt" stroke-linejoin="miter-clip" stroke-miterlimit="4.0" stroke-opacity="0.2" stroke-width="1.0"/>
  </g>
</svg>
