<?xml version="1.0" encoding="UTF-8" standalone="no"?>
<svg xmlns:xlink="http://www.w3.org/1999/xlink" height="67.0px" width="219.0px" xmlns="http://www.w3.org/2000/svg">
  <g transform="matrix(1.0, 0.0, 0.0, 1.0, 109.5, 33.5)">
    <path d="M109.0 -33.0 L109.0 9.25 87.65 9.25 87.65 33.0 -95.0 33.0 -95.0 9.25 -109.0 9.25 -109.0 -33.0 109.0 -33.0" fill="#ffffff" fill-opacity="0.0" fill-rule="evenodd" stroke="none"/>
    <path d="M109.0 -33.0 L109.0 9.25 87.65 9.25 87.65 33.0 -95.0 33.0 -95.0 9.25 -109.0 9.25 -109.0 -33.0 109.0 -33.0 Z" fill="none" stroke="#000000" stroke-linecap="butt" stroke-linejoin="miter-clip" stroke-miterlimit="4.0" stroke-width="1.0"/>
    <path d="M87.65 9.25 L-95.0 9.25" fill="none" stroke="#000000" stroke-linecap="butt" stroke-linejoin="miter-clip" stroke-miterlimit="4.0" stroke-opacity="0.4" stroke-width="1.0"/>
    <path d="M-80.35 -31.75 L-80.35 8.0 -91.0 8.0 -91.0 -31.75 -80.35 -31.75" fill="#ffffff" fill-opacity="0.6" fill-rule="evenodd" stroke="none"/>
    <path d="M-77.0 -31.75 L-77.0 8.0 -78.35 8.0 -78.35 -31.75 -77.0 -31.75" fill="#ffffff" fill-opacity="0.6" fill-rule="evenodd" stroke="none"/>
    <path d="M107.5 -31.75 L107.5 8.0 105.15 8.0 105.15 -31.75 107.5 -31.75" fill="#ffffff" fill-opacity="0.6" fill-rule="evenodd" stroke="none"/>
  </g>
</svg>
