<?xml version="1.0" encoding="UTF-8" standalone="no"?>
<svg xmlns:xlink="http://www.w3.org/1999/xlink" height="1055.85px" width="294.15px" xmlns="http://www.w3.org/2000/svg">
  <g transform="matrix(1.0, 0.0, 0.0, 1.0, 0.5, 0.5)">
    <path d="M269.65 1010.65 L269.45 1011.0 268.5 1012.5 268.95 1011.75 269.65 1010.65 M258.8 1023.85 Q254.1 1028.4 248.6 1032.3 L249.15 1031.9 Q254.05 1028.35 258.25 1024.35 L258.8 1023.85" fill="#d2d4d5" fill-rule="evenodd" stroke="none"/>
    <path d="M271.5 1007.4 L270.85 1008.6 269.95 1010.15 269.65 1010.65 268.95 1011.75 271.5 1007.4 M264.75 1017.4 L264.25 1018.05 264.1 1018.2 261.95 1020.65 261.65 1020.95 258.8 1023.85 258.25 1024.35 259.45 1023.15 264.75 1017.4" fill="#b8babc" fill-rule="evenodd" stroke="none"/>
    <path d="M234.85 1040.5 L233.55 1041.15 226.4 1044.3 226.1 1044.4 Q230.65 1042.55 234.85 1040.5" fill="#a6a8aa" fill-rule="evenodd" stroke="none"/>
    <path d="M89.05 1045.85 Q54.25 1037.7 14.65 1022.6 21.0 1015.55 30.15 1001.3 48.55 972.8 62.85 936.9 108.6 821.95 96.45 675.9 90.45 603.75 64.3 508.95 57.9 485.7 41.65 431.25 27.35 383.2 20.5 357.0 -1.2 274.05 0.05 217.45 1.6 145.75 38.0 87.75 74.9 29.0 122.45 9.3 163.4 -7.7 205.05 6.45 223.45 12.7 239.6 24.55 255.1 35.95 266.45 51.05 277.7 66.0 283.15 82.35 288.75 99.2 287.3 115.0 284.55 145.05 262.4 164.65 242.95 181.9 216.7 185.15 191.1 188.3 176.1 176.35 159.65 163.3 166.55 138.4 167.55 148.15 173.35 154.45 185.05 167.1 209.4 150.05 223.5 140.15 228.5 118.7 233.25 98.45 227.9 77.55 222.35 55.65 208.3 44.35 192.45 31.6 170.45 37.1 162.2 39.15 154.6 43.55 126.05 47.0 102.5 61.85 80.05 75.95 63.6 99.35 47.9 121.65 39.05 150.2 30.45 178.0 29.25 208.5 28.1 238.35 28.3 254.95 28.7 287.85 33.1 311.65 44.75 374.75 83.85 375.3 74.8 376.55 69.65 383.3 63.55 391.3 65.15 403.25 66.8 415.2 75.3 423.75 84.75 433.25 98.9 433.85 98.85 442.05 93.4 447.5 88.3 452.6 79.45 454.4 76.85 467.85 80.5 475.25 83.5 481.35 91.8 484.85 L108.95 490.05 Q120.55 493.4 127.55 497.85 108.75 499.45 95.65 511.1 81.55 523.6 81.85 541.5 82.2 563.2 101.3 573.55 108.45 577.4 119.7 580.5 L139.2 585.25 Q133.25 593.5 125.0 601.2 115.95 609.7 114.4 611.6 110.05 617.0 109.2 624.15 108.25 632.3 111.2 646.55 114.85 664.05 119.7 668.25 123.45 671.45 130.6 667.85 L137.4 664.1 Q141.85 661.65 145.35 660.5 155.55 657.05 165.55 661.3 152.0 665.7 141.45 673.45 131.5 680.7 125.7 689.75 120.05 698.55 119.35 707.35 118.65 716.35 123.3 723.5 134.0 739.95 166.3 740.6 158.5 752.9 140.7 758.3 141.7 759.8 143.2 766.45 144.7 773.05 145.75 774.65 140.7 767.3 132.5 772.35 125.5 776.65 117.55 788.9 110.45 799.85 105.7 812.0 100.95 824.15 101.75 829.25 105.25 850.85 123.1 861.05 135.55 868.2 160.15 871.5 159.2 879.4 151.2 883.7 146.15 886.45 134.35 889.05 122.15 891.75 118.2 893.75 111.1 897.25 111.5 903.9 111.8 909.0 118.45 913.7 127.5 919.05 132.45 922.1 141.45 927.65 145.4 933.55 150.75 941.55 149.1 952.55 147.2 938.35 135.65 930.55 125.25 923.5 110.45 923.6 95.95 923.7 84.05 930.6 71.3 937.95 67.1 950.35 60.25 970.6 67.55 981.4 72.95 989.45 88.2 994.0 105.8 998.05 112.85 1000.75 124.8 1005.3 125.2 1014.3 125.1 1012.7 119.8 1014.9 114.45 1017.15 107.5 1021.8 89.35 1033.8 84.5 1044.7 L89.05 1045.85 M69.65 197.75 Q68.05 199.35 65.75 199.35 63.5 199.35 61.9 197.75 60.25 196.15 60.25 193.85 60.25 191.6 61.9 190.0 63.5 188.4 65.75 188.4 68.05 188.4 69.65 190.0 71.25 191.6 71.25 193.85 71.25 196.15 69.65 197.75 M52.5 263.55 Q50.25 265.75 47.1 265.75 43.95 265.75 41.75 263.55 39.5 261.3 39.5 258.15 39.5 255.0 41.75 252.8 43.95 250.6 47.1 250.6 50.25 250.6 52.5 252.8 54.7 255.0 54.7 258.15 54.7 261.3 52.5 263.55 M96.2 309.25 Q99.35 311.7 99.35 315.1 99.35 318.55 96.2 321.0 93.05 323.4 88.6 323.4 84.15 323.4 81.0 321.0 77.85 318.55 77.85 315.1 77.85 311.7 81.0 309.25 84.15 306.85 88.6 306.85 93.05 306.85 96.2 309.25 M99.35 391.95 Q104.4 391.95 108.0 394.7 111.55 397.4 111.55 401.3 111.55 405.15 108.0 407.9 104.4 410.65 99.35 410.65 94.35 410.65 90.75 407.9 87.2 405.15 87.2 401.3 87.2 397.4 90.75 394.7 94.3 391.95 99.35 391.95 M196.9 588.25 Q201.0 592.0 201.0 597.25 201.0 602.55 196.9 606.3 192.8 610.05 187.0 610.05 181.2 610.05 177.1 606.3 173.0 602.55 173.0 597.25 173.0 592.0 177.1 588.25 181.2 584.5 187.0 584.5 192.8 584.5 196.9 588.25 M139.15 479.0 Q135.05 475.85 135.05 471.4 135.05 466.95 139.15 463.8 143.2 460.65 149.0 460.65 154.8 460.65 158.95 463.8 163.05 466.95 163.05 471.4 163.05 475.85 158.95 479.0 154.8 482.15 149.0 482.15 143.2 482.15 139.15 479.0 M138.2 538.6 Q138.2 543.05 134.1 546.2 130.0 549.35 124.2 549.35 118.4 549.35 114.3 546.2 110.2 543.05 110.2 538.6 110.2 534.15 114.3 531.0 118.4 527.85 124.2 527.85 130.0 527.85 134.1 531.0 138.2 534.15 138.2 538.6 M159.25 685.05 Q165.05 685.05 169.15 688.8 173.25 692.5 173.25 697.8 173.25 703.1 169.15 706.85 165.05 710.6 159.25 710.6 153.45 710.6 149.35 706.85 145.25 703.1 145.25 697.8 145.25 692.5 149.35 688.8 153.45 685.05 159.25 685.05 M216.8 768.25 Q212.0 763.85 212.0 757.7 212.0 751.55 216.8 747.2 221.55 742.85 228.35 742.85 235.1 742.85 239.9 747.2 244.65 751.55 244.65 757.7 244.65 763.85 239.9 768.25 235.1 772.6 228.35 772.6 221.55 772.6 216.8 768.25 M176.15 837.15 Q170.2 842.55 161.85 842.55 153.5 842.55 147.6 837.15 141.7 831.75 141.7 824.15 141.7 816.55 147.6 811.15 153.5 805.75 161.85 805.75 170.2 805.75 176.15 811.15 182.05 816.55 182.05 824.15 182.05 831.75 176.15 837.15 M236.0 936.5 Q230.1 941.9 221.75 941.9 213.4 941.9 207.5 936.5 201.6 931.1 201.6 923.5 201.6 915.9 207.5 910.5 213.4 905.1 221.75 905.1 230.1 905.1 236.0 910.5 241.9 915.9 241.9 923.5 241.9 931.1 236.0 936.5 M93.35 960.75 Q93.35 954.45 98.25 950.0 103.1 945.55 110.0 945.55 116.9 945.55 121.8 950.0 126.65 954.45 126.65 960.75 126.65 967.0 121.8 971.45 116.9 975.9 110.0 975.9 103.1 975.9 98.25 971.45 93.35 967.0 93.35 960.75" fill="#ffffff" fill-opacity="0.2" fill-rule="evenodd" stroke="none"/>
    <path d="M166.3 397.65 L166.25 397.55 167.0 399.3 Q189.85 453.7 208.3 503.1 219.15 532.05 228.45 559.25 L229.0 561.0 Q220.25 549.25 202.7 537.9 199.05 535.5 172.65 520.5 182.9 510.2 187.05 497.2 191.0 484.7 188.7 471.9 186.4 459.05 178.15 448.4 169.55 437.25 155.9 430.55 166.55 424.75 167.6 415.0 168.2 409.35 166.3 397.65 M290.35 821.85 Q300.95 933.25 271.7 1007.0 L271.5 1007.4 268.95 1011.75 268.5 1012.5 268.2 1012.95 264.75 1017.4 259.45 1023.15 258.25 1024.35 Q254.05 1028.35 249.15 1031.9 L248.6 1032.3 234.85 1040.5 Q230.65 1042.55 226.1 1044.4 L214.05 1046.95 216.05 1043.2 222.15 1031.05 Q228.6 1019.55 230.85 1012.15 237.55 990.25 216.45 980.3 233.1 980.9 246.55 975.5 259.55 970.3 267.9 960.2 276.25 950.1 278.8 936.55 281.45 922.55 277.55 906.7 270.25 876.9 247.5 870.8 238.2 868.3 224.1 868.95 L196.8 871.75 Q202.75 868.55 211.55 861.3 222.0 852.8 228.85 844.5 247.85 821.35 228.7 813.3 256.7 809.55 268.6 789.9 279.15 772.5 273.75 750.15 268.4 728.1 251.25 715.5 232.35 701.65 208.35 707.65 217.5 701.15 223.45 689.45 229.25 678.05 229.55 666.55 229.85 654.25 223.6 646.7 216.55 638.2 202.5 637.75 220.4 635.9 230.75 624.5 240.6 613.55 240.8 597.05 279.5 719.1 289.55 814.6 L290.35 821.85 M57.7 185.8 Q61.05 182.45 65.75 182.45 70.5 182.45 73.85 185.8 77.2 189.15 77.2 193.85 77.2 198.6 73.85 201.9 70.5 205.25 65.75 205.25 61.05 205.25 57.7 201.9 54.35 198.6 54.35 193.85 54.35 189.15 57.7 185.8 M69.65 197.75 Q71.25 196.15 71.25 193.85 71.25 191.6 69.65 190.0 68.05 188.4 65.75 188.4 63.5 188.4 61.9 190.0 60.25 191.6 60.25 193.85 60.25 196.15 61.9 197.75 63.5 199.35 65.75 199.35 68.05 199.35 69.65 197.75 M58.3 247.0 Q62.9 251.6 62.9 258.15 62.9 264.7 58.3 269.3 53.65 273.9 47.1 273.9 40.55 273.9 35.9 269.3 31.25 264.7 31.25 258.15 31.25 251.65 35.9 247.0 40.55 242.4 47.1 242.4 53.65 242.4 58.3 247.0 M52.5 263.55 Q54.7 261.3 54.7 258.15 54.7 255.0 52.5 252.8 50.25 250.6 47.1 250.6 43.95 250.6 41.75 252.8 39.5 255.0 39.5 258.15 39.5 261.3 41.75 263.55 43.95 265.75 47.1 265.75 50.25 265.75 52.5 263.55 M66.2 315.1 Q66.2 308.0 72.75 302.95 79.35 297.9 88.6 297.9 97.85 297.9 104.45 302.95 111.0 308.0 111.0 315.1 111.0 322.25 104.45 327.3 97.85 332.35 88.6 332.35 79.35 332.35 72.75 327.3 66.2 322.25 66.2 315.1 M99.35 391.95 Q94.3 391.95 90.75 394.7 87.2 397.4 87.2 401.3 87.2 405.15 90.75 407.9 94.35 410.65 99.35 410.65 104.4 410.65 108.0 407.9 111.55 405.15 111.55 401.3 111.55 397.4 108.0 394.7 104.4 391.95 99.35 391.95 M96.2 309.25 Q93.05 306.85 88.6 306.85 84.15 306.85 81.0 309.25 77.85 311.7 77.85 315.1 77.85 318.55 81.0 321.0 84.15 323.4 88.6 323.4 93.05 323.4 96.2 321.0 99.35 318.55 99.35 315.1 99.35 311.7 96.2 309.25 M99.35 381.8 Q109.85 381.8 117.3 387.5 124.7 393.25 124.7 401.3 124.7 409.35 117.3 415.05 109.85 420.75 99.35 420.75 88.9 420.75 81.45 415.05 74.05 409.35 74.05 401.3 74.05 393.25 81.45 387.5 88.9 381.8 99.35 381.8 M169.6 487.25 Q161.05 493.8 149.0 493.8 136.95 493.8 128.45 487.25 119.9 480.65 119.9 471.4 119.9 462.15 128.45 455.55 136.95 449.0 149.0 449.0 161.05 449.0 169.6 455.55 178.15 462.15 178.15 471.4 178.15 480.65 169.6 487.25 M187.0 570.75 Q199.05 570.75 207.6 578.55 216.1 586.3 216.1 597.25 216.1 608.25 207.6 616.0 199.05 623.8 187.0 623.8 174.95 623.8 166.4 616.0 157.9 608.25 157.9 597.25 157.9 586.3 166.4 578.55 174.95 570.75 187.0 570.75 M139.15 479.0 Q143.2 482.15 149.0 482.15 154.8 482.15 158.95 479.0 163.05 475.85 163.05 471.4 163.05 466.95 158.95 463.8 154.8 460.65 149.0 460.65 143.2 460.65 139.15 463.8 135.05 466.95 135.05 471.4 135.05 475.85 139.15 479.0 M196.9 588.25 Q192.8 584.5 187.0 584.5 181.2 584.5 177.1 588.25 173.0 592.0 173.0 597.25 173.0 602.55 177.1 606.3 181.2 610.05 187.0 610.05 192.8 610.05 196.9 606.3 201.0 602.55 201.0 597.25 201.0 592.0 196.9 588.25 M153.3 538.6 Q153.3 547.85 144.8 554.45 136.25 561.0 124.2 561.0 112.15 561.0 103.6 554.45 95.1 547.85 95.1 538.6 95.1 529.35 103.6 522.75 112.15 516.2 124.2 516.2 136.25 516.2 144.8 522.75 153.3 529.35 153.3 538.6 M138.2 538.6 Q138.2 534.15 134.1 531.0 130.0 527.85 124.2 527.85 118.4 527.85 114.3 531.0 110.2 534.15 110.2 538.6 110.2 543.05 114.3 546.2 118.4 549.35 124.2 549.35 130.0 549.35 134.1 546.2 138.2 543.05 138.2 538.6 M159.25 671.25 Q171.3 671.25 179.85 679.05 188.35 686.8 188.35 697.8 188.35 708.8 179.85 716.55 171.3 724.35 159.25 724.35 147.2 724.35 138.7 716.55 130.15 708.8 130.15 697.8 130.15 686.8 138.7 679.05 147.2 671.25 159.25 671.25 M159.25 685.05 Q153.45 685.05 149.35 688.8 145.25 692.5 145.25 697.8 145.25 703.1 149.35 706.85 153.45 710.6 159.25 710.6 165.05 710.6 169.15 706.85 173.25 703.1 173.25 697.8 173.25 692.5 169.15 688.8 165.05 685.05 159.25 685.05 M228.35 726.8 Q242.4 726.8 252.3 735.85 262.25 744.9 262.25 757.7 262.25 770.5 252.3 779.55 242.4 788.6 228.35 788.6 214.3 788.6 204.35 779.55 194.4 770.5 194.4 757.7 194.4 744.9 204.35 735.85 214.3 726.8 228.35 726.8 M176.15 837.15 Q182.05 831.75 182.05 824.15 182.05 816.55 176.15 811.15 170.2 805.75 161.85 805.75 153.5 805.75 147.6 811.15 141.7 816.55 141.7 824.15 141.7 831.75 147.6 837.15 153.5 842.55 161.85 842.55 170.2 842.55 176.15 837.15 M216.8 768.25 Q221.55 772.6 228.35 772.6 235.1 772.6 239.9 768.25 244.65 763.85 244.65 757.7 244.65 751.55 239.9 747.2 235.1 742.85 228.35 742.85 221.55 742.85 216.8 747.2 212.0 751.55 212.0 757.7 212.0 763.85 216.8 768.25 M191.55 851.2 Q179.25 862.4 161.85 862.4 144.5 862.4 132.2 851.2 119.95 840.0 119.95 824.15 119.95 808.3 132.2 797.15 144.5 785.95 161.85 785.95 179.25 785.95 191.55 797.15 203.8 808.3 203.8 824.15 203.8 840.0 191.55 851.2 M236.0 936.5 Q241.9 931.1 241.9 923.5 241.9 915.9 236.0 910.5 230.1 905.1 221.75 905.1 213.4 905.1 207.5 910.5 201.6 915.9 201.6 923.5 201.6 931.1 207.5 936.5 213.4 941.9 221.75 941.9 230.1 941.9 236.0 936.5 M192.1 896.45 Q204.4 885.25 221.75 885.25 239.1 885.25 251.4 896.45 263.7 907.65 263.7 923.5 263.7 939.3 251.4 950.5 239.1 961.7 221.75 961.7 204.4 961.7 192.1 950.5 179.8 939.3 179.8 923.5 179.8 907.65 192.1 896.45 M110.0 929.15 Q124.35 929.15 134.5 938.4 144.65 947.65 144.65 960.75 144.65 973.8 134.5 983.05 124.35 992.3 110.0 992.3 95.7 992.3 85.55 983.05 75.4 973.8 75.4 960.75 75.4 947.65 85.55 938.4 95.7 929.15 110.0 929.15 M93.35 960.75 Q93.35 967.0 98.25 971.45 103.1 975.9 110.0 975.9 116.9 975.9 121.8 971.45 126.65 967.0 126.65 960.75 126.65 954.45 121.8 950.0 116.9 945.55 110.0 945.55 103.1 945.55 98.25 950.0 93.35 954.45 93.35 960.75" fill="#000000" fill-opacity="0.2" fill-rule="evenodd" stroke="none"/>
    <path d="M154.6 43.55 L155.4 43.45 Q136.05 54.35 121.3 78.7 107.1 102.25 100.0 133.6 L98.85 138.7 Q93.85 163.35 94.25 189.0 L94.25 189.45 94.3 192.15 94.55 198.3 Q95.35 213.95 98.2 228.7 101.65 246.6 108.1 263.05 112.75 274.85 128.9 311.5 150.0 359.35 161.05 385.35 L166.3 397.65 Q168.2 409.35 167.6 415.0 166.55 424.75 155.9 430.55 169.55 437.25 178.15 448.4 186.4 459.05 188.7 471.9 191.0 484.7 187.05 497.2 182.9 510.2 172.65 520.5 199.05 535.5 202.7 537.9 220.25 549.25 229.0 561.0 L228.45 559.25 236.65 583.9 Q280.6 718.85 290.35 821.85 L289.55 814.6 Q279.5 719.1 240.8 597.05 240.6 613.55 230.75 624.5 220.4 635.9 202.5 637.75 216.55 638.2 223.6 646.7 229.85 654.25 229.55 666.55 229.25 678.05 223.45 689.45 217.5 701.15 208.35 707.65 232.35 701.65 251.25 715.5 268.4 728.1 273.75 750.15 279.15 772.5 268.6 789.9 256.7 809.55 228.7 813.3 247.85 821.35 228.85 844.5 222.0 852.8 211.55 861.3 202.75 868.55 196.8 871.75 L224.1 868.95 Q238.2 868.3 247.5 870.8 270.25 876.9 277.55 906.7 281.45 922.55 278.8 936.55 276.25 950.1 267.9 960.2 259.55 970.3 246.55 975.5 233.1 980.9 216.45 980.3 237.55 990.25 230.85 1012.15 228.6 1019.55 222.15 1031.05 L216.05 1043.2 214.05 1046.95 213.3 1047.1 147.95 1054.85 142.1 1054.45 119.5 1051.8 Q104.8 1049.5 89.05 1045.85 L84.5 1044.7 Q89.35 1033.8 107.5 1021.8 114.45 1017.15 119.8 1014.9 125.1 1012.7 125.2 1014.3 124.8 1005.3 112.85 1000.75 105.8 998.05 88.2 994.0 72.95 989.45 67.55 981.4 60.25 970.6 67.1 950.35 71.3 937.95 84.05 930.6 95.95 923.7 110.45 923.6 125.25 923.5 135.65 930.55 147.2 938.35 149.1 952.55 150.75 941.55 145.4 933.55 141.45 927.65 132.45 922.1 127.5 919.05 118.45 913.7 111.8 909.0 111.5 903.9 111.1 897.25 118.2 893.75 122.15 891.75 134.35 889.05 146.15 886.45 151.2 883.7 159.2 879.4 160.15 871.5 135.55 868.2 123.1 861.05 105.25 850.85 101.75 829.25 100.95 824.15 105.7 812.0 110.45 799.85 117.55 788.9 125.5 776.65 132.5 772.35 140.7 767.3 145.75 774.65 144.7 773.05 143.2 766.45 141.7 759.8 140.7 758.3 158.5 752.9 166.3 740.6 134.0 739.95 123.3 723.5 118.65 716.35 119.35 707.35 120.05 698.55 125.7 689.75 131.5 680.7 141.45 673.45 152.0 665.7 165.55 661.3 155.55 657.05 145.35 660.5 141.85 661.65 137.4 664.1 L130.6 667.85 Q123.45 671.45 119.7 668.25 114.85 664.05 111.2 646.55 108.25 632.3 109.2 624.15 110.05 617.0 114.4 611.6 115.95 609.7 125.0 601.2 133.25 593.5 139.2 585.25 L119.7 580.5 Q108.45 577.4 101.3 573.55 82.2 563.2 81.85 541.5 81.55 523.6 95.65 511.1 108.75 499.45 127.55 497.85 120.55 493.4 108.95 490.05 L91.8 484.85 Q83.5 481.35 80.5 475.25 76.85 467.85 79.45 454.4 88.3 452.6 93.4 447.5 98.85 442.05 98.9 433.85 84.75 433.25 75.3 423.75 66.8 415.2 65.15 403.25 63.55 391.3 69.65 383.3 74.8 376.55 83.85 375.3 44.75 374.75 33.1 311.65 28.7 287.85 28.3 254.95 28.1 238.35 29.25 208.5 30.45 178.0 39.05 150.2 47.9 121.65 63.6 99.35 80.05 75.95 102.5 61.85 126.05 47.0 154.6 43.55 M57.7 185.8 Q54.35 189.15 54.35 193.85 54.35 198.6 57.7 201.9 61.05 205.25 65.75 205.25 70.5 205.25 73.85 201.9 77.2 198.6 77.2 193.85 77.2 189.15 73.85 185.8 70.5 182.45 65.75 182.45 61.05 182.45 57.7 185.8 M58.3 247.0 Q53.65 242.4 47.1 242.4 40.55 242.4 35.9 247.0 31.25 251.65 31.25 258.15 31.25 264.7 35.9 269.3 40.55 273.9 47.1 273.9 53.65 273.9 58.3 269.3 62.9 264.7 62.9 258.15 62.9 251.6 58.3 247.0 M66.2 315.1 Q66.2 322.25 72.75 327.3 79.35 332.35 88.6 332.35 97.85 332.35 104.45 327.3 111.0 322.25 111.0 315.1 111.0 308.0 104.45 302.95 97.85 297.9 88.6 297.9 79.35 297.9 72.75 302.95 66.2 308.0 66.2 315.1 M99.35 381.8 Q88.9 381.8 81.45 387.5 74.05 393.25 74.05 401.3 74.05 409.35 81.45 415.05 88.9 420.75 99.35 420.75 109.85 420.75 117.3 415.05 124.7 409.35 124.7 401.3 124.7 393.25 117.3 387.5 109.85 381.8 99.35 381.8 M187.0 570.75 Q174.95 570.75 166.4 578.55 157.9 586.3 157.9 597.25 157.9 608.25 166.4 616.0 174.95 623.8 187.0 623.8 199.05 623.8 207.6 616.0 216.1 608.25 216.1 597.25 216.1 586.3 207.6 578.55 199.05 570.75 187.0 570.75 M169.6 487.25 Q178.15 480.65 178.15 471.4 178.15 462.15 169.6 455.55 161.05 449.0 149.0 449.0 136.95 449.0 128.45 455.55 119.9 462.15 119.9 471.4 119.9 480.65 128.45 487.25 136.95 493.8 149.0 493.8 161.05 493.8 169.6 487.25 M153.3 538.6 Q153.3 529.35 144.8 522.75 136.25 516.2 124.2 516.2 112.15 516.2 103.6 522.75 95.1 529.35 95.1 538.6 95.1 547.85 103.6 554.45 112.15 561.0 124.2 561.0 136.25 561.0 144.8 554.45 153.3 547.85 153.3 538.6 M159.25 671.25 Q147.2 671.25 138.7 679.05 130.15 686.8 130.15 697.8 130.15 708.8 138.7 716.55 147.2 724.35 159.25 724.35 171.3 724.35 179.85 716.55 188.35 708.8 188.35 697.8 188.35 686.8 179.85 679.05 171.3 671.25 159.25 671.25 M228.35 726.8 Q214.3 726.8 204.35 735.85 194.4 744.9 194.4 757.7 194.4 770.5 204.35 779.55 214.3 788.6 228.35 788.6 242.4 788.6 252.3 779.55 262.25 770.5 262.25 757.7 262.25 744.9 252.3 735.85 242.4 726.8 228.35 726.8 M191.55 851.2 Q203.8 840.0 203.8 824.15 203.8 808.3 191.55 797.15 179.25 785.95 161.85 785.95 144.5 785.95 132.2 797.15 119.95 808.3 119.95 824.15 119.95 840.0 132.2 851.2 144.5 862.4 161.85 862.4 179.25 862.4 191.55 851.2 M110.0 929.15 Q95.7 929.15 85.55 938.4 75.4 947.65 75.4 960.75 75.4 973.8 85.55 983.05 95.7 992.3 110.0 992.3 124.35 992.3 134.5 983.05 144.65 973.8 144.65 960.75 144.65 947.65 134.5 938.4 124.35 929.15 110.0 929.15 M192.1 896.45 Q179.8 907.65 179.8 923.5 179.8 939.3 192.1 950.5 204.4 961.7 221.75 961.7 239.1 961.7 251.4 950.5 263.7 939.3 263.7 923.5 263.7 907.65 251.4 896.45 239.1 885.25 221.75 885.25 204.4 885.25 192.1 896.45" fill="#ffffff" fill-opacity="0.0" fill-rule="evenodd" stroke="none"/>
    <path d="M89.05 1045.85 Q54.25 1037.7 14.65 1022.6 21.0 1015.55 30.15 1001.3 48.55 972.8 62.85 936.9 108.6 821.95 96.45 675.9 90.45 603.75 64.3 508.95 57.9 485.7 41.65 431.25 27.35 383.2 20.5 357.0 -1.2 274.05 0.05 217.45 1.6 145.75 38.0 87.75 74.9 29.0 122.45 9.3 163.4 -7.7 205.05 6.45 223.45 12.7 239.6 24.55 255.1 35.95 266.45 51.05 277.7 66.0 283.15 82.35 288.75 99.2 287.3 115.0 284.55 145.05 262.4 164.65 242.95 181.9 216.7 185.15 191.1 188.3 176.1 176.35 159.65 163.3 166.55 138.4 167.55 148.15 173.35 154.45 185.05 167.1 209.4 150.05 223.5 140.15 228.5 118.7 233.25 98.45 227.9 77.55 222.35 55.65 208.3 44.35 192.45 31.6 170.45 37.1 162.2 39.15 154.6 43.55 L155.4 43.45 Q136.05 54.35 121.3 78.7 107.1 102.25 100.0 133.6 L98.85 138.7 Q93.85 163.35 94.25 189.0 L94.25 189.45 94.3 192.15 94.55 198.3 Q95.35 213.95 98.2 228.7 101.65 246.6 108.1 263.05 112.75 274.85 128.9 311.5 150.0 359.35 161.05 385.35 L166.3 397.65 166.25 397.55 167.0 399.3 Q189.85 453.7 208.3 503.1 219.15 532.05 228.45 559.25 L236.65 583.9 Q280.6 718.85 290.35 821.85 300.95 933.25 271.7 1007.0 M271.5 1007.4 L270.85 1008.6 269.95 1010.15 269.65 1010.65 269.45 1011.0 268.5 1012.5 268.2 1012.95 264.75 1017.4 264.25 1018.05 M264.1 1018.2 L261.95 1020.65 261.65 1020.95 258.8 1023.85 Q254.1 1028.4 248.6 1032.3 L234.85 1040.5 Q230.65 1042.55 226.1 1044.4 L214.05 1046.95 213.3 1047.1 147.95 1054.85 142.1 1054.45 119.5 1051.8 Q104.8 1049.5 89.05 1045.85 Z" fill="none" stroke="#000000" stroke-linecap="round" stroke-linejoin="round" stroke-width="1.0"/>
  </g>
</svg>
