<?xml version="1.0" encoding="UTF-8" standalone="no"?>
<svg xmlns:xlink="http://www.w3.org/1999/xlink" height="1218.1px" width="2478.05px" xmlns="http://www.w3.org/2000/svg">
  <g transform="matrix(1.0, 0.0, 0.0, 1.0, 0.0, 0.0)">
    <path d="M2421.35 1218.1 Q2422.4 1190.45 2419.2 1146.5 2412.4 1049.65 2387.55 949.8 2355.3 820.65 2298.35 705.95 2214.25 536.45 2076.35 398.35 1845.05 166.6 1516.0 86.35 1413.2 61.25 1312.95 54.25 L1254.3 51.9 1233.3 52.35 Q1203.35 51.7 1152.55 56.4 1051.45 65.5 948.45 92.3 619.4 177.45 397.2 404.55 175.05 631.6 93.65 950.65 68.2 1050.3 59.9 1147.35 56.3 1190.7 56.7 1218.1 L0.4 1218.1 Q-0.85 1190.25 1.9 1145.85 8.3 1046.65 34.0 943.45 116.4 613.35 361.1 366.1 605.8 118.85 944.2 34.9 1050.0 8.8 1152.35 2.2 1203.55 -1.2 1233.7 0.7 L1256.25 0.5 1318.45 3.25 Q1424.9 11.15 1533.0 37.7 1879.05 122.45 2112.5 361.4 2221.05 472.3 2298.35 604.2 2387.55 756.1 2435.35 935.55 2463.4 1040.3 2473.4 1142.25 2478.05 1189.0 2478.05 1218.1 L2421.35 1218.1" fill="#ffffff" fill-opacity="0.0" fill-rule="evenodd" stroke="none"/>
  </g>
</svg>
