<?xml version="1.0" encoding="UTF-8" standalone="no"?>
<svg xmlns:xlink="http://www.w3.org/1999/xlink" height="331.15px" width="640.3px" xmlns="http://www.w3.org/2000/svg">
  <g transform="matrix(1.0, 0.0, 0.0, 1.0, 0.5, 0.5)">
    <path d="M621.85 71.95 Q639.3 90.15 639.3 115.85 639.3 141.55 621.85 159.7 604.45 177.9 579.8 177.9 555.15 177.9 537.75 159.7 520.3 141.55 520.3 115.85 520.3 90.15 537.75 71.95 555.15 53.8 579.8 53.8 604.45 53.8 621.85 71.95 M613.9 80.25 Q599.8 65.5 579.8 65.5 559.8 65.5 545.7 80.25 531.55 95.0 531.55 115.85 531.55 136.7 545.7 151.45 559.8 166.15 579.8 166.15 599.8 166.15 613.9 151.45 628.05 136.7 628.05 115.85 628.05 95.0 613.9 80.25 M389.35 84.5 L388.45 83.55 Q371.35 65.7 349.15 55.9 326.15 45.75 301.0 45.75 275.85 45.75 252.85 55.9 230.65 65.7 213.5 83.55 L210.65 86.65 Q195.6 103.35 187.0 124.55 177.3 148.5 177.3 174.75 177.3 201.0 187.0 224.95 195.6 246.15 210.65 262.9 L213.5 265.95 Q230.65 283.8 252.85 293.6 275.8 303.75 301.0 303.75 326.15 303.75 349.15 293.6 371.35 283.8 388.45 265.95 L389.35 265.0 Q405.85 247.5 415.0 224.95 424.7 201.0 424.7 174.75 424.7 148.5 415.0 124.55 405.85 102.0 389.35 84.5 M461.05 107.9 Q474.35 140.75 474.35 176.7 474.35 219.45 455.8 257.25 437.85 293.8 406.2 318.4 L220.9 330.15 Q181.95 306.9 159.05 266.65 135.45 225.15 135.45 176.7 135.45 140.75 148.75 107.9 161.65 76.2 185.1 51.75 208.55 27.3 238.95 13.9 270.45 0.0 304.9 0.0 339.4 0.0 370.85 13.9 401.25 27.3 424.75 51.75 448.2 76.2 461.05 107.9 M59.5 65.5 Q39.5 65.5 25.35 80.25 11.2 95.0 11.2 115.85 11.2 136.7 25.35 151.45 39.5 166.15 59.5 166.15 79.5 166.15 93.6 151.45 107.75 136.7 107.75 115.85 107.75 95.0 93.6 80.25 79.5 65.5 59.5 65.5 M59.5 53.8 Q84.15 53.8 101.55 71.95 119.0 90.15 119.0 115.85 119.0 141.55 101.55 159.7 84.15 177.9 59.5 177.9 34.85 177.9 17.4 159.7 0.0 141.55 0.0 115.85 0.0 90.1 17.4 71.95 34.85 53.8 59.5 53.8" fill="#000000" fill-opacity="0.29803923" fill-rule="evenodd" stroke="none"/>
    <path d="M613.9 80.25 Q628.05 95.0 628.05 115.85 628.05 136.7 613.9 151.45 599.8 166.15 579.8 166.15 559.8 166.15 545.7 151.45 531.55 136.7 531.55 115.85 531.55 95.0 545.7 80.25 559.8 65.5 579.8 65.5 599.8 65.5 613.9 80.25 M59.5 65.5 Q79.5 65.5 93.6 80.25 107.75 95.0 107.75 115.85 107.75 136.7 93.6 151.45 79.5 166.15 59.5 166.15 39.5 166.15 25.35 151.45 11.2 136.7 11.2 115.85 11.2 95.0 25.35 80.25 39.5 65.5 59.5 65.5" fill="#000000" fill-opacity="0.4" fill-rule="evenodd" stroke="none"/>
    <path d="M621.85 71.95 Q639.3 90.15 639.3 115.85 639.3 141.55 621.85 159.7 604.45 177.9 579.8 177.9 555.15 177.9 537.75 159.7 520.3 141.55 520.3 115.85 520.3 90.15 537.75 71.95 555.15 53.8 579.8 53.8 604.45 53.8 621.85 71.95 M461.05 107.9 Q448.2 76.2 424.75 51.75 401.25 27.3 370.85 13.9 339.4 0.0 304.9 0.0 270.45 0.0 238.95 13.9 208.55 27.3 185.1 51.75 161.65 76.2 148.75 107.9 135.45 140.75 135.45 176.7 135.45 225.15 159.05 266.65 181.95 306.9 220.9 330.15 L406.2 318.4 Q437.85 293.8 455.8 257.25 474.35 219.45 474.35 176.7 474.35 140.75 461.05 107.9 M59.5 53.8 Q84.15 53.8 101.55 71.95 119.0 90.15 119.0 115.85 119.0 141.55 101.55 159.7 84.15 177.9 59.5 177.9 34.85 177.9 17.4 159.7 0.0 141.55 0.0 115.85 0.0 90.1 17.4 71.95 34.85 53.8 59.5 53.8" fill="none" stroke="#000000" stroke-linecap="round" stroke-linejoin="miter-clip" stroke-miterlimit="4.0" stroke-width="1.0"/>
    <path d="M613.9 80.25 Q628.05 95.0 628.05 115.85 628.05 136.7 613.9 151.45 599.8 166.15 579.8 166.15 559.8 166.15 545.7 151.45 531.55 136.7 531.55 115.85 531.55 95.0 545.7 80.25 559.8 65.5 579.8 65.5 599.8 65.5 613.9 80.25 M59.5 65.5 Q79.5 65.5 93.6 80.25 107.75 95.0 107.75 115.85 107.75 136.7 93.6 151.45 79.5 166.15 59.5 166.15 39.5 166.15 25.35 151.45 11.2 136.7 11.2 115.85 11.2 95.0 25.35 80.25 39.5 65.5 59.5 65.5" fill="none" stroke="#000000" stroke-linecap="round" stroke-linejoin="miter-clip" stroke-miterlimit="4.0" stroke-opacity="0.4" stroke-width="1.0"/>
  </g>
</svg>
