<?xml version="1.0" encoding="UTF-8" standalone="no"?>
<svg xmlns:xlink="http://www.w3.org/1999/xlink" height="524.35px" width="741.85px" xmlns="http://www.w3.org/2000/svg">
  <g transform="matrix(1.0, 0.0, 0.0, 1.0, 0.45, 0.45)">
    <path d="M288.0 318.55 L290.0 317.5 290.2 317.45 288.0 318.55" fill="#ebeced" fill-rule="evenodd" stroke="none"/>
    <path d="M656.6 492.45 L652.75 488.25 638.35 501.35 634.65 504.15 633.3 504.45 Q618.75 504.45 596.95 442.8 593.5 446.7 590.15 452.4 583.85 463.2 576.65 484.4 573.85 492.75 571.55 500.25 570.4 503.6 569.2 503.6 567.25 504.4 564.55 496.7 559.2 481.6 554.15 439.1 L553.5 429.3 551.15 433.35 546.95 439.6 543.85 443.95 521.3 474.1 Q520.0 475.85 518.0 477.1 516.55 478.05 516.15 478.05 511.9 478.05 511.9 462.4 511.9 454.1 512.9 441.2 514.65 419.5 518.55 397.8 476.9 464.35 467.2 464.35 463.25 464.35 463.25 453.25 463.25 445.35 465.8 429.1 469.85 403.55 478.55 372.85 456.5 408.9 435.15 431.55 416.55 451.3 408.5 451.3 406.3 451.3 405.1 449.0 404.0 446.85 404.0 443.1 404.0 434.25 408.35 419.0 413.55 400.65 428.7 359.05 398.15 393.7 377.75 408.7 363.2 419.35 354.8 419.35 350.2 419.35 350.2 414.15 350.2 408.5 355.75 396.65 364.65 377.65 386.05 346.95 365.95 369.65 338.25 386.85 312.85 402.7 300.5 402.7 294.05 402.7 294.05 398.1 294.05 387.85 315.2 361.05 324.5 349.3 341.9 330.0 339.2 331.65 326.5 338.0 310.85 345.85 294.55 353.4 286.0 357.35 273.0 360.65 259.95 363.95 252.8 363.95 243.85 363.95 240.55 361.0 239.5 360.05 239.15 358.95 L239.0 357.9 Q239.0 355.65 240.5 354.0 L249.3 343.7 251.95 341.5 262.75 333.45 Q267.1 330.4 287.3 318.9 L288.0 318.55 290.2 317.45 290.0 317.5 272.3 321.4 241.7 326.05 240.65 326.15 192.75 327.5 Q190.7 327.5 188.7 326.35 186.55 325.15 186.55 323.7 186.55 314.05 257.85 284.1 230.25 292.4 203.55 296.05 185.8 298.45 171.7 298.45 156.0 298.45 148.5 295.6 143.6 293.75 143.6 291.7 143.6 288.2 156.6 283.1 170.25 277.7 197.45 270.9 169.45 274.7 155.8 274.7 131.75 274.7 112.2 270.45 98.25 267.45 80.5 260.5 69.3 256.15 64.65 251.4 62.05 248.75 62.05 246.9 62.05 245.95 63.2 245.55 L66.05 245.25 73.75 246.3 85.7 247.35 Q99.8 247.35 120.45 241.55 142.0 235.5 172.65 222.6 169.0 223.7 158.05 224.35 L141.35 224.95 Q95.85 224.95 46.1 208.7 26.5 202.3 13.65 195.55 1.2 189.05 1.2 185.45 1.2 184.5 2.05 184.1 L5.05 183.7 Q9.7 183.7 19.0 185.95 L38.3 191.0 Q67.35 198.25 90.25 198.25 112.0 198.25 130.75 192.65 141.5 189.4 158.65 181.3 140.1 182.25 114.2 176.4 89.85 170.95 65.2 160.9 40.55 150.9 23.3 139.5 4.95 127.3 0.05 116.8 L0.25 115.6 2.2 115.35 Q4.35 115.35 12.85 119.7 25.1 126.0 35.7 130.1 77.45 146.3 142.95 152.75 93.45 137.15 62.65 106.45 50.4 94.2 43.6 81.85 37.45 70.65 37.45 62.75 37.45 58.1 47.7 64.1 58.7 70.5 73.9 85.1 86.15 96.8 105.35 104.6 128.65 114.05 156.55 115.0 124.1 88.35 112.45 71.15 107.8 64.3 104.45 56.2 L98.75 41.05 Q92.8 25.5 92.6 11.95 92.5 6.8 93.35 3.35 94.1 0.25 95.15 0.05 103.85 5.45 113.9 21.9 119.15 30.55 125.75 42.7 L134.65 56.05 Q140.05 63.35 154.2 78.3 163.3 87.9 184.25 99.65 204.35 111.0 226.4 119.3 287.15 140.6 399.35 188.5 L477.45 222.1 Q515.8 238.6 529.5 243.85 543.85 249.35 577.75 278.7 596.9 295.2 615.95 313.65 629.3 326.6 656.6 357.05 L657.15 357.7 665.3 367.4 665.35 367.5 665.55 367.7 665.6 367.8 665.65 367.8 Q675.7 383.85 675.7 408.95 675.7 426.35 671.25 447.45 666.1 471.65 656.6 492.45 M665.6 367.8 L665.35 367.5 665.6 367.8 M172.65 222.6 L174.05 222.0 172.65 222.6" fill="#000000" fill-opacity="0.2" fill-rule="evenodd" stroke="none"/>
    <path d="M665.65 367.8 Q675.9 380.3 686.2 393.85 714.85 431.55 725.65 452.35 L725.95 452.9 Q733.85 465.7 737.8 477.6 740.9 487.05 740.9 493.7 740.9 496.5 740.5 498.4 L739.5 501.45 Q738.2 503.95 735.4 505.5 732.95 506.85 730.95 506.85 723.15 506.85 711.3 500.35 698.4 493.25 674.2 475.05 L677.5 478.95 Q679.8 482.25 685.7 495.25 692.55 510.25 693.85 514.25 694.5 516.35 694.5 520.2 694.5 523.4 692.9 523.4 689.6 523.4 683.3 518.0 677.2 512.75 656.6 492.45 666.1 471.65 671.25 447.45 675.7 426.35 675.7 408.95 675.7 383.85 665.65 367.8" fill="#ffffff" fill-opacity="0.0" fill-rule="evenodd" stroke="none"/>
    <path d="M665.65 367.8 Q675.9 380.3 686.2 393.85 714.85 431.55 725.65 452.35 M725.95 452.9 Q733.85 465.7 737.8 477.6 740.9 487.05 740.9 493.7 740.9 496.5 740.5 498.4 L739.5 501.45 M95.15 0.05 Q103.85 5.45 113.9 21.9 119.15 30.55 125.75 42.7 L134.65 56.05 Q140.05 63.35 154.2 78.3 163.3 87.9 184.25 99.65 204.35 111.0 226.4 119.3 287.15 140.6 399.35 188.5 L477.45 222.1 Q515.8 238.6 529.5 243.85 543.85 249.35 577.75 278.7 596.9 295.2 615.95 313.65 629.3 326.6 656.6 357.05 L657.15 357.7 665.3 367.4 665.35 367.5 665.55 367.7 M665.6 367.8 L665.65 367.8 M665.35 367.5 L665.6 367.8" fill="none" stroke="#000000" stroke-linecap="round" stroke-linejoin="round" stroke-width="1.0"/>
    <path d="M725.65 452.35 L725.95 452.9 M739.5 501.45 Q738.2 503.95 735.4 505.5 732.95 506.85 730.95 506.85 723.15 506.85 711.3 500.35 698.4 493.25 674.2 475.05 L677.5 478.95 Q679.8 482.25 685.7 495.25 692.55 510.25 693.85 514.25 694.5 516.35 694.5 520.2 694.5 523.4 692.9 523.4 689.6 523.4 683.3 518.0 677.2 512.75 656.6 492.45 L652.75 488.25 638.35 501.35 634.65 504.15 633.3 504.45 Q618.75 504.45 596.95 442.8 593.5 446.7 590.15 452.4 583.85 463.2 576.65 484.4 573.85 492.75 571.55 500.25 570.4 503.6 569.2 503.6 567.25 504.4 564.55 496.7 559.2 481.6 554.15 439.1 L553.5 429.3 551.15 433.35 546.95 439.6 543.85 443.95 521.3 474.1 Q520.0 475.85 518.0 477.1 516.55 478.05 516.15 478.05 511.9 478.05 511.9 462.4 511.9 454.1 512.9 441.2 514.65 419.5 518.55 397.8 476.9 464.35 467.2 464.35 463.25 464.35 463.25 453.25 463.25 445.35 465.8 429.1 469.85 403.55 478.55 372.85 456.5 408.9 435.15 431.55 416.55 451.3 408.5 451.3 406.3 451.3 405.1 449.0 404.0 446.85 404.0 443.1 404.0 434.25 408.35 419.0 413.55 400.65 428.7 359.05 398.15 393.7 377.75 408.7 363.2 419.35 354.8 419.35 350.2 419.35 350.2 414.15 350.2 408.5 355.75 396.65 364.65 377.65 386.05 346.95 365.95 369.65 338.25 386.85 312.85 402.7 300.5 402.7 294.05 402.7 294.05 398.1 294.05 387.85 315.2 361.05 324.5 349.3 341.9 330.0 339.2 331.65 326.5 338.0 310.85 345.85 294.55 353.4 286.0 357.35 273.0 360.65 259.95 363.95 252.8 363.95 243.85 363.95 240.55 361.0 239.5 360.05 239.15 358.95 L239.0 357.9 Q239.0 355.65 240.5 354.0 L249.3 343.7 251.95 341.5 262.75 333.45 Q267.1 330.4 287.3 318.9 L288.0 318.55 290.0 317.5 272.3 321.4 241.7 326.05 240.65 326.15 192.75 327.5 Q190.7 327.5 188.7 326.35 186.55 325.15 186.55 323.7 186.55 314.05 257.85 284.1 230.25 292.4 203.55 296.05 185.8 298.45 171.7 298.45 156.0 298.45 148.5 295.6 143.6 293.75 143.6 291.7 143.6 288.2 156.6 283.1 170.25 277.7 197.45 270.9 169.45 274.7 155.8 274.7 131.75 274.7 112.2 270.45 98.25 267.45 80.5 260.5 69.3 256.15 64.65 251.4 62.05 248.75 62.05 246.9 62.05 245.95 63.2 245.55 L66.05 245.25 73.75 246.3 85.7 247.35 Q99.8 247.35 120.45 241.55 142.0 235.5 172.65 222.6 169.0 223.7 158.05 224.35 L141.35 224.95 Q95.85 224.95 46.1 208.7 26.5 202.3 13.65 195.55 1.2 189.05 1.2 185.45 1.2 184.5 2.05 184.1 L5.05 183.7 Q9.7 183.7 19.0 185.95 L38.3 191.0 Q67.35 198.25 90.25 198.25 112.0 198.25 130.75 192.65 141.5 189.4 158.65 181.3 140.1 182.25 114.2 176.4 89.85 170.95 65.2 160.9 40.55 150.9 23.3 139.5 4.95 127.3 0.05 116.8 L0.25 115.6 2.2 115.35 Q4.35 115.35 12.85 119.7 25.1 126.0 35.7 130.1 77.45 146.3 142.95 152.75 93.45 137.15 62.65 106.45 50.4 94.2 43.6 81.85 37.45 70.65 37.45 62.75 37.45 58.1 47.7 64.1 58.7 70.5 73.9 85.1 86.15 96.8 105.35 104.6 128.65 114.05 156.55 115.0 124.1 88.35 112.45 71.15 107.8 64.3 104.45 56.2 L98.75 41.05 Q92.8 25.5 92.6 11.95 92.5 6.8 93.35 3.35 94.1 0.25 95.15 0.05 M174.05 222.0 L172.65 222.6 M288.0 318.55 L290.2 317.45 290.0 317.5" fill="none" stroke="#000000" stroke-linecap="round" stroke-linejoin="round" stroke-opacity="0.6" stroke-width="1.0"/>
  </g>
</svg>
