<?xml version="1.0" encoding="UTF-8" standalone="no"?>
<svg xmlns:xlink="http://www.w3.org/1999/xlink" height="159.7px" width="513.8px" xmlns="http://www.w3.org/2000/svg">
  <g transform="matrix(1.0, 0.0, 0.0, 1.0, 0.5, 0.55)">
    <path d="M146.65 114.25 L146.55 114.35 145.8 114.2 146.65 114.25" fill="#ebeced" fill-rule="evenodd" stroke="none"/>
    <path d="M501.6 101.5 Q501.6 102.35 498.8 102.95 L492.0 103.55 485.15 102.95 Q482.35 102.35 482.35 101.5 482.35 100.65 485.15 100.0 L492.0 99.4 498.8 100.0 Q501.6 100.65 501.6 101.5 M326.25 137.45 L329.4 137.25 Q333.85 137.25 333.85 137.9 333.85 138.6 329.4 138.6 324.95 138.6 324.95 137.9 324.95 137.65 326.25 137.45 M435.25 123.3 Q438.35 123.8 438.35 124.5 438.35 125.2 435.25 125.75 L427.7 126.25 420.15 125.75 Q417.05 125.2 417.05 124.5 417.05 123.8 420.15 123.3 L427.7 122.8 435.25 123.3 M236.2 154.5 L229.35 155.1 222.55 154.5 Q219.75 153.9 219.75 153.05 219.75 152.2 222.55 151.6 L229.35 151.0 236.2 151.6 Q239.0 152.2 239.0 153.05 239.0 153.9 236.2 154.5 M304.85 144.9 Q302.25 144.25 302.25 143.4 302.25 142.55 304.85 141.95 L311.2 141.35 317.5 141.95 Q320.1 142.55 320.1 143.4 320.1 144.25 317.5 144.9 L311.2 145.5 304.85 144.9 M250.7 146.15 Q250.7 145.3 253.7 144.7 L261.0 144.1 268.3 144.7 Q271.3 145.3 271.3 146.15 271.3 147.0 268.3 147.65 L261.0 148.25 253.7 147.65 Q250.7 147.0 250.7 146.15 M88.7 61.95 L89.25 62.05 Q92.9 62.7 91.2 63.65 L90.75 63.9 Q90.5 62.75 88.7 61.95 M93.95 86.35 Q93.95 86.65 92.25 86.85 L88.1 87.05 83.95 86.85 Q82.25 86.65 82.25 86.35 82.25 86.1 83.95 85.85 L88.1 85.65 92.25 85.85 Q93.95 86.1 93.95 86.35 M55.1 35.5 L50.0 35.0 Q47.85 34.45 47.85 33.75 47.85 33.05 50.0 32.55 L55.1 32.05 60.2 32.55 Q62.3 33.05 62.3 33.75 62.3 34.45 60.2 35.0 L55.1 35.5 M30.0 16.6 Q30.0 17.3 27.7 17.8 L22.1 18.3 16.5 17.8 Q14.2 17.3 14.2 16.6 14.2 15.9 16.5 15.35 L22.1 14.85 27.7 15.35 Q30.0 15.9 30.0 16.6 M54.25 111.3 L46.5 111.8 38.7 111.3 Q35.5 110.75 35.5 110.05 35.5 109.35 38.7 108.85 L46.5 108.35 54.25 108.85 Q57.5 109.35 57.5 110.05 57.5 110.75 54.25 111.3 M18.4 135.65 L28.6 135.15 38.85 135.65 Q43.05 136.2 43.05 136.9 43.05 137.6 38.85 138.1 L28.6 138.6 18.4 138.1 Q14.2 137.6 14.2 136.9 14.2 136.2 18.4 135.65" fill="#ffffff" fill-opacity="0.2" fill-rule="evenodd" stroke="none"/>
    <path d="M502.3 90.5 Q502.3 89.9 503.2 89.5 L505.4 89.1 507.6 89.5 Q508.5 89.9 508.5 90.5 508.5 91.05 507.6 91.45 L505.4 91.85 503.2 91.45 Q502.3 91.05 502.3 90.5 M0.0 95.4 Q2.8 93.8 5.25 94.0 6.85 94.2 9.15 96.25 11.4 98.25 9.1 98.5 L17.25 98.9 Q22.15 100.0 17.0 103.4 28.45 104.25 24.45 107.55 21.35 110.1 12.15 112.65 14.6 114.6 19.7 114.8 24.1 115.0 27.85 113.95 27.2 116.5 22.7 117.8 17.5 118.85 15.6 119.55 19.2 122.75 34.0 122.7 48.95 122.65 48.15 118.6 L52.9 118.55 Q55.5 118.7 56.9 120.0 L54.55 122.25 Q53.05 123.6 52.05 124.0 L53.95 124.25 Q53.2 126.95 47.25 128.45 39.15 130.45 38.45 130.85 41.8 132.35 48.4 132.3 L58.85 131.6 65.9 129.7 Q70.45 128.45 72.5 129.85 L71.7 130.6 Q69.6 132.15 64.95 133.05 L63.15 133.45 Q59.0 134.5 57.4 136.5 60.6 140.55 68.85 141.25 73.5 141.6 82.15 141.45 81.2 145.0 76.25 145.55 70.25 145.5 67.9 145.6 67.8 151.7 89.75 149.6 L105.7 148.05 Q113.4 147.5 114.65 148.95 113.6 150.0 111.55 150.95 L108.25 152.35 Q111.95 154.65 119.0 153.25 127.05 151.65 130.3 152.5 L129.0 154.1 127.65 155.65 137.7 156.45 Q144.55 156.85 147.35 158.65 L0.0 158.65 0.0 95.4 M411.05 158.65 Q417.7 156.8 431.4 156.25 L453.95 155.65 452.6 155.1 450.75 155.1 442.5 154.5 Q439.05 153.9 439.05 153.05 439.05 152.2 442.5 151.6 L450.75 151.0 459.0 151.6 Q462.4 152.2 462.4 153.05 462.4 153.5 461.5 153.9 L464.65 154.1 480.5 154.45 474.35 153.65 Q470.6 153.4 469.1 151.1 472.65 150.9 484.4 151.4 495.05 151.25 497.85 147.7 489.65 147.6 486.3 144.95 L492.45 144.2 Q496.45 144.0 498.4 142.75 495.9 140.65 488.35 140.75 481.3 140.85 478.2 137.1 485.35 139.3 491.55 139.8 500.1 140.55 502.9 137.35 L502.65 137.4 496.8 137.9 490.95 137.4 Q488.55 136.9 488.55 136.2 488.55 135.5 490.95 135.0 L491.35 134.95 489.75 133.2 Q490.55 134.45 498.1 132.05 L512.8 126.85 512.8 158.65 411.05 158.65 M507.65 114.75 L502.3 115.25 496.95 114.75 Q494.75 114.2 494.75 113.5 494.75 112.8 496.95 112.3 L502.3 111.8 507.65 112.3 Q509.85 112.8 509.85 113.5 509.85 114.2 507.65 114.75 M362.3 133.7 Q364.8 134.3 364.8 135.15 364.8 136.0 362.3 136.65 L356.2 137.25 350.1 136.65 Q347.6 136.0 347.6 135.15 347.6 134.3 350.1 133.7 L356.2 133.1 362.3 133.7 M473.1 110.4 L477.2 110.8 Q478.9 111.25 478.9 111.8 478.9 112.35 477.2 112.75 L473.1 113.15 468.95 112.75 Q467.25 112.35 467.25 111.8 467.25 111.25 468.95 110.8 L473.1 110.4 M462.25 134.2 L468.6 133.8 474.95 134.2 Q477.55 134.6 477.55 135.15 477.55 135.75 474.95 136.15 L468.6 136.55 462.25 136.15 Q459.65 135.75 459.65 135.15 459.65 134.6 462.25 134.2 M447.65 138.1 L443.5 138.6 439.4 138.1 Q437.65 137.6 437.65 136.9 437.65 136.2 439.4 135.65 L443.5 135.15 447.65 135.65 Q449.35 136.2 449.35 136.9 449.35 137.6 447.65 138.1 M412.25 147.55 L418.1 148.05 Q420.5 148.55 420.5 149.25 420.5 149.95 418.1 150.5 L412.25 151.0 406.4 150.5 Q404.0 149.95 404.0 149.25 404.0 148.55 406.4 148.05 L412.25 147.55 M226.95 115.85 Q225.7 117.0 222.9 116.95 L220.55 117.0 218.4 117.25 Q221.5 118.2 223.5 119.9 L227.65 123.75 225.4 123.65 Q224.55 123.5 220.55 122.0 217.7 120.9 215.4 121.3 215.5 121.9 215.2 122.8 214.85 123.8 214.85 124.2 212.65 124.55 210.35 123.75 211.4 122.55 211.2 121.4 211.0 120.4 209.95 119.45 208.0 117.7 205.3 117.25 L199.5 117.5 193.8 118.9 197.1 119.65 Q199.0 120.25 199.4 121.6 196.3 121.45 194.5 121.6 L192.85 121.85 Q190.3 122.55 190.15 126.4 191.55 126.75 191.55 127.25 191.55 127.95 188.75 128.5 L181.95 129.0 175.1 128.5 Q172.3 127.95 172.3 127.25 172.3 126.8 173.35 126.5 L166.45 127.3 Q167.0 123.9 160.35 124.25 L157.85 124.6 157.7 124.85 159.85 125.0 162.0 125.25 Q163.75 125.55 164.35 126.2 165.0 126.85 165.05 128.55 165.05 129.05 166.3 129.1 L168.85 129.1 Q172.25 129.35 171.1 132.5 169.9 131.7 167.8 131.5 164.75 131.15 161.65 132.5 L165.05 132.8 Q168.2 133.25 168.2 133.8 168.2 134.35 165.05 134.75 L157.5 135.15 150.0 134.75 Q146.85 134.35 146.85 133.8 146.85 133.25 150.0 132.8 L155.25 132.45 Q154.5 131.55 153.2 130.8 148.8 128.15 140.65 129.35 L140.65 132.75 134.3 133.45 Q127.6 133.3 126.15 129.35 L126.15 127.4 Q125.95 126.8 124.9 126.3 L124.4 126.1 121.95 126.25 Q117.45 126.65 114.2 127.55 L111.2 129.25 Q108.7 130.75 108.95 130.8 L105.1 130.25 101.15 129.95 Q101.3 128.45 100.55 127.6 99.4 126.25 96.15 126.45 93.8 126.65 92.0 127.25 90.2 127.8 89.0 128.8 L89.7 129.65 90.5 130.45 83.7 129.45 Q87.7 126.2 81.9 125.15 L74.35 124.65 Q76.45 121.75 81.55 121.2 L89.65 121.55 Q88.8 121.35 87.75 120.75 L85.75 119.65 Q86.55 117.8 90.75 117.3 L90.7 116.35 Q91.55 112.65 96.25 112.65 L104.1 112.35 Q106.95 112.25 108.35 113.25 L107.5 115.05 Q107.9 114.55 109.3 114.6 L111.3 114.6 112.5 114.0 Q113.25 113.55 113.7 113.45 116.95 112.65 122.6 114.8 122.65 112.9 125.9 112.45 128.75 112.1 130.45 112.85 L130.95 111.75 128.5 110.95 Q126.85 110.2 127.3 109.05 127.9 107.65 131.5 107.35 133.4 107.2 136.4 107.3 L139.3 107.1 142.2 107.35 Q144.45 107.95 144.7 109.0 144.95 110.15 142.5 110.65 146.45 111.05 147.15 112.7 L147.45 113.6 Q150.35 111.55 157.55 111.4 162.6 111.3 170.9 111.6 L168.65 109.9 Q167.2 108.7 166.25 108.25 L169.15 107.75 172.2 107.6 Q169.15 106.1 167.25 103.15 166.8 102.45 170.4 102.05 174.05 101.7 177.65 102.1 181.85 102.6 182.8 104.0 184.0 105.7 179.8 108.4 L187.7 108.55 Q187.35 109.3 187.4 110.45 L187.35 112.35 192.45 112.7 Q195.75 112.8 197.35 111.9 200.2 110.3 199.65 108.3 199.05 106.4 196.3 106.0 L202.05 105.8 207.9 104.9 Q204.9 101.45 210.4 100.5 213.6 99.95 218.1 100.35 L221.85 100.75 Q223.9 101.25 224.8 102.8 226.8 106.15 224.2 107.2 L219.2 108.05 Q222.95 107.55 226.6 109.85 230.3 112.2 227.65 115.15 L226.95 115.85 M203.25 140.65 L195.45 140.05 Q192.25 139.45 192.25 138.6 192.25 137.75 195.45 137.15 L203.25 136.55 211.0 137.15 Q214.25 137.75 214.25 138.6 L213.55 139.35 215.25 139.3 221.85 140.0 Q224.55 140.7 224.55 141.7 224.55 142.7 221.85 143.4 L215.25 144.1 208.7 143.4 Q206.0 142.7 206.0 141.7 206.0 141.05 207.15 140.55 L203.25 140.65 M180.8 135.1 Q183.3 135.7 183.3 136.55 183.3 137.4 180.8 138.0 L174.7 138.6 168.6 138.0 Q166.1 137.4 166.1 136.55 166.1 135.7 168.6 135.1 L174.7 134.5 180.8 135.1 M278.85 156.5 Q278.85 155.65 282.3 155.0 L290.55 154.4 298.8 155.0 Q302.25 155.65 302.25 156.5 302.25 157.35 298.8 157.95 L290.55 158.55 282.3 157.95 Q278.85 157.35 278.85 156.5 M309.25 153.8 L302.95 154.4 296.6 153.8 Q294.0 153.2 294.0 152.35 294.0 151.5 296.6 150.9 L302.95 150.3 309.25 150.9 Q311.85 151.5 311.85 152.35 311.85 153.2 309.25 153.8 M90.75 63.9 Q90.9 64.65 90.25 65.6 L92.6 65.75 94.95 66.0 Q96.85 66.35 97.5 67.0 98.25 67.7 98.3 69.45 98.3 70.0 99.65 70.0 L102.45 70.0 Q106.15 70.25 104.9 73.55 103.6 72.75 101.3 72.5 96.75 72.0 91.95 74.85 L88.35 74.85 Q87.7 73.2 85.3 71.8 80.45 69.0 71.5 70.3 L71.5 73.85 64.55 74.55 Q57.3 74.45 55.7 70.3 L55.7 68.25 Q55.45 67.6 54.3 67.1 52.0 66.1 47.55 66.7 46.8 65.45 44.85 64.4 41.0 62.35 35.3 63.65 L32.2 65.15 Q31.7 63.5 29.5 62.1 25.2 59.3 16.9 60.6 L16.85 56.75 Q17.8 52.85 22.95 52.9 L31.5 52.55 Q34.6 52.45 36.15 53.5 L35.25 55.4 Q35.65 54.85 37.25 54.9 L39.4 54.9 40.75 54.3 42.05 53.7 Q45.75 52.9 51.8 55.1 51.85 53.15 55.4 52.65 L60.4 53.05 Q60.85 52.55 60.9 51.95 L58.2 51.15 Q56.45 50.35 56.95 49.15 57.6 47.7 61.5 47.4 63.6 47.2 66.9 47.3 L70.05 47.1 73.2 47.35 Q75.7 48.0 76.0 49.1 76.25 50.25 73.55 50.8 77.9 51.2 78.65 52.9 79.2 54.1 78.8 54.4 L77.25 54.5 Q80.0 55.0 80.75 55.5 81.95 56.4 81.9 59.0 81.9 58.5 78.7 58.95 75.55 59.4 75.0 59.85 L85.2 60.95 88.7 61.95 Q90.5 62.75 90.75 63.9 M120.05 68.5 L134.0 69.6 Q146.0 71.15 136.55 73.3 126.05 75.7 118.25 72.45 115.3 71.2 115.55 70.0 115.9 68.75 120.05 68.5 M138.35 88.35 Q139.05 87.1 145.5 85.65 L155.65 86.35 Q164.6 87.4 158.55 89.1 150.55 91.4 141.45 89.95 137.8 89.4 138.35 88.35 M27.25 70.55 Q27.25 69.7 29.95 69.1 L36.55 68.5 43.1 69.1 Q45.8 69.7 45.8 70.55 45.8 71.4 43.1 72.0 L36.55 72.6 29.95 72.0 Q27.25 71.4 27.25 70.55 M18.4 135.65 Q14.2 136.2 14.2 136.9 14.2 137.6 18.4 138.1 L28.6 138.6 38.85 138.1 Q43.05 137.6 43.05 136.9 43.05 136.2 38.85 135.65 L28.6 135.15 18.4 135.65 M146.65 114.25 L145.8 114.2 146.55 114.35 146.65 114.25 M130.3 103.35 Q133.1 103.85 133.1 104.55 133.1 105.25 130.3 105.8 L123.5 106.3 116.7 105.8 Q113.85 105.25 113.85 104.55 113.85 103.85 116.7 103.35 L123.5 102.85 130.3 103.35 M129.0 138.95 Q129.0 139.65 125.55 140.15 L117.3 140.65 109.05 140.15 Q105.6 139.65 105.6 138.95 105.6 138.25 109.05 137.75 L117.3 137.25 125.55 137.75 Q129.0 138.25 129.0 138.95 M155.1 154.6 L146.85 155.1 138.6 154.6 Q135.2 154.1 135.2 153.4 135.2 152.7 138.6 152.15 L146.85 151.65 155.1 152.15 Q158.55 152.7 158.55 153.4 158.55 154.1 155.1 154.6" fill="#000000" fill-opacity="0.14901961" fill-rule="evenodd" stroke="none"/>
    <path d="M502.3 90.5 Q502.3 91.05 503.2 91.45 L505.4 91.85 507.6 91.45 Q508.5 91.05 508.5 90.5 508.5 89.9 507.6 89.5 L505.4 89.1 503.2 89.5 Q502.3 89.9 502.3 90.5 M0.0 95.4 L0.0 0.0 Q14.9 1.4 35.2 6.45 67.6 14.6 103.55 30.0 124.1 38.8 153.45 54.85 L203.4 82.4 Q232.7 98.05 255.75 107.15 285.05 118.75 312.55 123.5 361.7 132.0 422.55 112.65 438.45 107.6 465.3 97.0 487.85 88.1 495.4 86.35 L512.8 82.65 512.8 126.85 498.1 132.05 Q490.55 134.45 489.75 133.2 L491.35 134.95 490.95 135.0 Q488.55 135.5 488.55 136.2 488.55 136.9 490.95 137.4 L496.8 137.9 502.65 137.4 502.9 137.35 Q500.1 140.55 491.55 139.8 485.35 139.3 478.2 137.1 481.3 140.85 488.35 140.75 495.9 140.65 498.4 142.75 496.45 144.0 492.45 144.2 L486.3 144.95 Q489.65 147.6 497.85 147.7 495.05 151.25 484.4 151.4 472.65 150.9 469.1 151.1 470.6 153.4 474.35 153.65 L480.5 154.45 464.65 154.1 461.5 153.9 Q462.4 153.5 462.4 153.05 462.4 152.2 459.0 151.6 L450.75 151.0 442.5 151.6 Q439.05 152.2 439.05 153.05 439.05 153.9 442.5 154.5 L450.75 155.1 452.6 155.1 453.95 155.65 431.4 156.25 Q417.7 156.8 411.05 158.65 L147.35 158.65 Q144.55 156.85 137.7 156.45 L127.65 155.65 129.0 154.1 130.3 152.5 Q127.05 151.65 119.0 153.25 111.95 154.65 108.25 152.35 L111.55 150.95 Q113.6 150.0 114.65 148.95 113.4 147.5 105.7 148.05 L89.75 149.6 Q67.8 151.7 67.9 145.6 70.25 145.5 76.25 145.55 81.2 145.0 82.15 141.45 73.5 141.6 68.85 141.25 60.6 140.55 57.4 136.5 59.0 134.5 63.15 133.45 62.3 134.25 62.3 135.15 62.3 137.15 66.35 138.55 70.35 140.0 76.05 140.0 81.75 140.0 85.8 138.55 89.8 137.15 89.8 135.15 89.8 133.15 85.8 131.75 81.75 130.35 76.05 130.35 L71.7 130.6 76.05 130.35 Q81.75 130.35 85.8 131.75 89.8 133.15 89.8 135.15 89.8 137.15 85.8 138.55 81.75 140.0 76.05 140.0 70.35 140.0 66.35 138.55 62.3 137.15 62.3 135.15 62.3 134.25 63.15 133.45 L64.95 133.05 Q69.6 132.15 71.7 130.6 L72.5 129.85 Q70.45 128.45 65.9 129.7 L58.85 131.6 48.4 132.3 Q41.8 132.35 38.45 130.85 39.15 130.45 47.25 128.45 53.2 126.95 53.95 124.25 L52.05 124.0 Q53.05 123.6 54.55 122.25 L56.9 120.0 Q55.5 118.7 52.9 118.55 L48.15 118.6 Q48.95 122.65 34.0 122.7 19.2 122.75 15.6 119.55 17.5 118.85 22.7 117.8 27.2 116.5 27.85 113.95 24.1 115.0 19.7 114.8 14.6 114.6 12.15 112.65 21.35 110.1 24.45 107.55 28.45 104.25 17.0 103.4 22.15 100.0 17.25 98.9 L9.1 98.5 Q11.4 98.25 9.15 96.25 6.85 94.2 5.25 94.0 2.8 93.8 0.0 95.4 M507.65 114.75 Q509.85 114.2 509.85 113.5 509.85 112.8 507.65 112.3 L502.3 111.8 496.95 112.3 Q494.75 112.8 494.75 113.5 494.75 114.2 496.95 114.75 L502.3 115.25 507.65 114.75 M501.6 101.5 Q501.6 100.65 498.8 100.0 L492.0 99.4 485.15 100.0 Q482.35 100.65 482.35 101.5 482.35 102.35 485.15 102.95 L492.0 103.55 498.8 102.95 Q501.6 102.35 501.6 101.5 M383.0 143.3 Q380.6 142.4 377.15 142.4 373.7 142.4 371.3 143.3 368.9 144.2 368.9 145.5 368.9 146.75 371.3 147.65 373.75 148.55 377.15 148.55 380.6 148.55 383.0 147.65 385.4 146.8 385.4 145.5 385.4 144.2 383.0 143.3 385.4 144.2 385.4 145.5 385.4 146.8 383.0 147.65 380.6 148.55 377.15 148.55 373.75 148.55 371.3 147.65 368.9 146.75 368.9 145.5 368.9 144.2 371.3 143.3 373.7 142.4 377.15 142.4 380.6 142.4 383.0 143.3 M494.05 123.5 Q494.05 122.45 491.65 121.75 489.25 121.0 485.8 121.0 482.4 121.0 479.95 121.75 477.55 122.45 477.55 123.5 477.55 124.5 479.95 125.25 L485.8 125.95 491.65 125.25 Q494.05 124.5 494.05 123.5 494.05 124.5 491.65 125.25 L485.8 125.95 479.95 125.25 Q477.55 124.5 477.55 123.5 477.55 122.45 479.95 121.75 482.4 121.0 485.8 121.0 489.25 121.0 491.65 121.75 494.05 122.45 494.05 123.5 M395.1 137.8 Q397.95 138.6 401.9 138.6 405.9 138.6 408.75 137.8 411.55 137.0 411.55 135.85 411.55 134.7 408.75 133.9 405.9 133.1 401.9 133.1 397.95 133.1 395.1 133.9 392.3 134.7 392.3 135.85 392.3 137.0 395.1 137.8 392.3 137.0 392.3 135.85 392.3 134.7 395.1 133.9 397.95 133.1 401.9 133.1 405.9 133.1 408.75 133.9 411.55 134.7 411.55 135.85 411.55 137.0 408.75 137.8 405.9 138.6 401.9 138.6 397.95 138.6 395.1 137.8 M326.25 137.45 Q324.95 137.65 324.95 137.9 324.95 138.6 329.4 138.6 333.85 138.6 333.85 137.9 333.85 137.25 329.4 137.25 L326.25 137.45 M362.3 133.7 L356.2 133.1 350.1 133.7 Q347.6 134.3 347.6 135.15 347.6 136.0 350.1 136.65 L356.2 137.25 362.3 136.65 Q364.8 136.0 364.8 135.15 364.8 134.3 362.3 133.7 M326.3 153.75 L331.2 153.15 Q333.2 152.5 333.2 151.65 333.2 150.8 331.2 150.2 L326.3 149.6 321.45 150.2 Q319.45 150.8 319.45 151.65 319.45 152.5 321.45 153.15 L326.3 153.75 321.45 153.15 Q319.45 152.5 319.45 151.65 319.45 150.8 321.45 150.2 L326.3 149.6 331.2 150.2 Q333.2 150.8 333.2 151.65 333.2 152.5 331.2 153.15 L326.3 153.75 M473.1 110.4 L468.95 110.8 Q467.25 111.25 467.25 111.8 467.25 112.35 468.95 112.75 L473.1 113.15 477.2 112.75 Q478.9 112.35 478.9 111.8 478.9 111.25 477.2 110.8 L473.1 110.4 M454.5 113.95 Q456.9 113.35 456.9 112.5 456.9 111.65 454.5 111.0 L448.65 110.4 442.8 111.0 Q440.4 111.65 440.4 112.5 440.4 113.35 442.8 113.95 L448.65 114.55 454.5 113.95 448.65 114.55 442.8 113.95 Q440.4 113.35 440.4 112.5 440.4 111.65 442.8 111.0 L448.65 110.4 454.5 111.0 Q456.9 111.65 456.9 112.5 456.9 113.35 454.5 113.95 M447.65 138.1 Q449.35 137.6 449.35 136.9 449.35 136.2 447.65 135.65 L443.5 135.15 439.4 135.65 Q437.65 136.2 437.65 136.9 437.65 137.6 439.4 138.1 L443.5 138.6 447.65 138.1 M462.25 134.2 Q459.65 134.6 459.65 135.15 459.65 135.75 462.25 136.15 L468.6 136.55 474.95 136.15 Q477.55 135.75 477.55 135.15 477.55 134.6 474.95 134.2 L468.6 133.8 462.25 134.2 M459.65 146.15 Q459.65 147.0 462.5 147.65 L469.3 148.25 476.1 147.65 Q478.9 147.0 478.9 146.15 478.9 145.3 476.1 144.7 L469.3 144.1 462.5 144.7 Q459.65 145.3 459.65 146.15 459.65 145.3 462.5 144.7 L469.3 144.1 476.1 144.7 Q478.9 145.3 478.9 146.15 478.9 147.0 476.1 147.65 L469.3 148.25 462.5 147.65 Q459.65 147.0 459.65 146.15 M435.25 123.3 L427.7 122.8 420.15 123.3 Q417.05 123.8 417.05 124.5 417.05 125.2 420.15 125.75 L427.7 126.25 435.25 125.75 Q438.35 125.2 438.35 124.5 438.35 123.8 435.25 123.3 M412.25 147.55 L406.4 148.05 Q404.0 148.55 404.0 149.25 404.0 149.95 406.4 150.5 L412.25 151.0 418.1 150.5 Q420.5 149.95 420.5 149.25 420.5 148.55 418.1 148.05 L412.25 147.55 M181.2 86.65 Q179.35 87.3 179.35 88.15 179.35 89.0 181.2 89.6 183.0 90.2 185.55 90.2 L189.95 89.6 Q191.75 89.0 191.75 88.15 191.75 87.3 189.95 86.65 L185.55 86.05 Q183.0 86.05 181.2 86.65 183.0 86.05 185.55 86.05 L189.95 86.65 Q191.75 87.3 191.75 88.15 191.75 89.0 189.95 89.6 L185.55 90.2 Q183.0 90.2 181.2 89.6 179.35 89.0 179.35 88.15 179.35 87.3 181.2 86.65 M226.95 115.85 L227.65 115.15 Q230.3 112.2 226.6 109.85 222.95 107.55 219.2 108.05 L224.2 107.2 Q226.8 106.15 224.8 102.8 223.9 101.25 221.85 100.75 L218.1 100.35 Q213.6 99.95 210.4 100.5 204.9 101.45 207.9 104.9 L202.05 105.8 196.3 106.0 Q199.05 106.4 199.65 108.3 200.2 110.3 197.35 111.9 195.75 112.8 192.45 112.7 L187.35 112.35 187.4 110.45 Q187.35 109.3 187.7 108.55 L179.8 108.4 Q184.0 105.7 182.8 104.0 181.85 102.6 177.65 102.1 174.05 101.7 170.4 102.05 166.8 102.45 167.25 103.15 169.15 106.1 172.2 107.6 L169.15 107.75 166.25 108.25 Q167.2 108.7 168.65 109.9 L170.9 111.6 Q162.6 111.3 157.55 111.4 150.35 111.55 147.45 113.6 L147.15 112.7 Q146.45 111.05 142.5 110.65 144.95 110.15 144.7 109.0 144.45 107.95 142.2 107.35 L139.3 107.1 136.4 107.3 Q133.4 107.2 131.5 107.35 127.9 107.65 127.3 109.05 126.85 110.2 128.5 110.95 L130.95 111.75 130.45 112.85 Q128.75 112.1 125.9 112.45 122.65 112.9 122.6 114.8 116.95 112.65 113.7 113.45 113.25 113.55 112.5 114.0 L111.3 114.6 109.3 114.6 Q107.9 114.55 107.5 115.05 L108.35 113.25 Q106.95 112.25 104.1 112.35 L96.25 112.65 Q91.55 112.65 90.7 116.35 L90.75 117.3 Q86.55 117.8 85.75 119.65 L87.75 120.75 Q88.8 121.35 89.65 121.55 L81.55 121.2 Q76.45 121.75 74.35 124.65 L81.9 125.15 Q87.7 126.2 83.7 129.45 L90.5 130.45 89.7 129.65 89.0 128.8 Q90.2 127.8 92.0 127.25 93.8 126.65 96.15 126.45 99.4 126.25 100.55 127.6 101.3 128.45 101.15 129.95 L105.1 130.25 108.95 130.8 Q108.7 130.75 111.2 129.25 L114.2 127.55 Q117.45 126.65 121.95 126.25 L124.4 126.1 124.9 126.3 Q125.95 126.8 126.15 127.4 L126.15 129.35 Q127.6 133.3 134.3 133.45 L140.65 132.75 140.65 129.35 Q148.8 128.15 153.2 130.8 154.5 131.55 155.25 132.45 L150.0 132.8 Q146.85 133.25 146.85 133.8 146.85 134.35 150.0 134.75 L157.5 135.15 165.05 134.75 Q168.2 134.35 168.2 133.8 168.2 133.25 165.05 132.8 L161.65 132.5 Q164.75 131.15 167.8 131.5 169.9 131.7 171.1 132.5 172.25 129.35 168.85 129.1 L166.3 129.1 Q165.05 129.05 165.05 128.55 165.0 126.85 164.35 126.2 163.75 125.55 162.0 125.25 L159.85 125.0 157.7 124.85 157.85 124.6 160.35 124.25 Q167.0 123.9 166.45 127.3 L173.35 126.5 Q172.3 126.8 172.3 127.25 172.3 127.95 175.1 128.5 L181.95 129.0 188.75 128.5 Q191.55 127.95 191.55 127.25 191.55 126.75 190.15 126.4 190.3 122.55 192.85 121.85 L194.5 121.6 Q196.3 121.45 199.4 121.6 199.0 120.25 197.1 119.65 L193.8 118.9 199.5 117.5 205.3 117.25 Q208.0 117.7 209.95 119.45 211.0 120.4 211.2 121.4 211.4 122.55 210.35 123.75 212.65 124.55 214.85 124.2 214.85 123.8 215.2 122.8 215.5 121.9 215.4 121.3 217.7 120.9 220.55 122.0 224.55 123.5 225.4 123.65 L227.65 123.75 223.5 119.9 Q221.5 118.2 218.4 117.25 L220.55 117.0 222.9 116.95 Q225.7 117.0 226.95 115.85 M220.1 128.5 Q217.7 129.55 217.7 131.05 217.7 132.55 220.1 133.6 222.5 134.65 225.95 134.65 229.35 134.65 231.8 133.6 234.2 132.55 234.2 131.05 234.2 129.55 231.8 128.5 229.35 127.45 225.95 127.45 222.5 127.45 220.1 128.5 222.5 127.45 225.95 127.45 229.35 127.45 231.8 128.5 234.2 129.55 234.2 131.05 234.2 132.55 231.8 133.6 229.35 134.65 225.95 134.65 222.5 134.65 220.1 133.6 217.7 132.55 217.7 131.05 217.7 129.55 220.1 128.5 M203.25 140.65 L207.15 140.55 Q206.0 141.05 206.0 141.7 206.0 142.7 208.7 143.4 L215.25 144.1 221.85 143.4 Q224.55 142.7 224.55 141.7 224.55 140.7 221.85 140.0 L215.25 139.3 213.55 139.35 214.25 138.6 Q214.25 137.75 211.0 137.15 L203.25 136.55 195.45 137.15 Q192.25 137.75 192.25 138.6 192.25 139.45 195.45 140.05 L203.25 140.65 M206.7 148.25 Q206.7 147.1 205.1 146.3 203.45 145.5 201.2 145.5 198.9 145.5 197.3 146.3 195.7 147.1 195.7 148.25 195.7 149.4 197.3 150.2 198.9 151.0 201.2 151.0 203.45 151.0 205.1 150.2 206.7 149.4 206.7 148.25 206.7 149.4 205.1 150.2 203.45 151.0 201.2 151.0 198.9 151.0 197.3 150.2 195.7 149.4 195.7 148.25 195.7 147.1 197.3 146.3 198.9 145.5 201.2 145.5 203.45 145.5 205.1 146.3 206.7 147.1 206.7 148.25 M180.8 135.1 L174.7 134.5 168.6 135.1 Q166.1 135.7 166.1 136.55 166.1 137.4 168.6 138.0 L174.7 138.6 180.8 138.0 Q183.3 137.4 183.3 136.55 183.3 135.7 180.8 135.1 M165.15 150.4 Q168.2 149.75 168.2 148.9 168.2 148.05 165.15 147.45 L157.85 146.85 150.55 147.45 Q147.55 148.05 147.55 148.9 147.55 149.75 150.55 150.4 L157.85 151.0 165.15 150.4 157.85 151.0 150.55 150.4 Q147.55 149.75 147.55 148.9 147.55 148.05 150.55 147.45 L157.85 146.85 165.15 147.45 Q168.2 148.05 168.2 148.9 168.2 149.75 165.15 150.4 M236.2 154.5 Q239.0 153.9 239.0 153.05 239.0 152.2 236.2 151.6 L229.35 151.0 222.55 151.6 Q219.75 152.2 219.75 153.05 219.75 153.9 222.55 154.5 L229.35 155.1 236.2 154.5 M288.0 123.2 L285.55 123.6 Q284.55 124.0 284.55 124.55 284.55 125.15 285.55 125.55 L288.0 125.95 290.45 125.55 Q291.45 125.15 291.45 124.55 291.45 124.0 290.45 123.6 L288.0 123.2 290.45 123.6 Q291.45 124.0 291.45 124.55 291.45 125.15 290.45 125.55 L288.0 125.95 285.55 125.55 Q284.55 125.15 284.55 124.55 284.55 124.0 285.55 123.6 L288.0 123.2 M286.15 140.0 Q289.2 138.85 289.2 137.25 289.2 135.6 286.15 134.45 283.15 133.3 278.85 133.3 274.55 133.3 271.55 134.45 268.55 135.6 268.55 137.25 268.55 138.85 271.55 140.0 274.6 141.15 278.85 141.15 283.15 141.15 286.15 140.0 283.15 141.15 278.85 141.15 274.6 141.15 271.55 140.0 268.55 138.85 268.55 137.25 268.55 135.6 271.55 134.45 274.55 133.3 278.85 133.3 283.15 133.3 286.15 134.45 289.2 135.6 289.2 137.25 289.2 138.85 286.15 140.0 M304.85 144.9 L311.2 145.5 317.5 144.9 Q320.1 144.25 320.1 143.4 320.1 142.55 317.5 141.95 L311.2 141.35 304.85 141.95 Q302.25 142.55 302.25 143.4 302.25 144.25 304.85 144.9 M265.0 118.55 Q263.75 119.05 263.75 119.75 263.75 120.45 265.0 120.95 L268.05 121.45 271.1 120.95 Q272.35 120.45 272.35 119.75 272.35 119.05 271.1 118.55 269.85 118.05 268.05 118.05 266.3 118.05 265.0 118.55 266.3 118.05 268.05 118.05 269.85 118.05 271.1 118.55 272.35 119.05 272.35 119.75 272.35 120.45 271.1 120.95 L268.05 121.45 265.0 120.95 Q263.75 120.45 263.75 119.75 263.75 119.05 265.0 118.55 M250.7 146.15 Q250.7 147.0 253.7 147.65 L261.0 148.25 268.3 147.65 Q271.3 147.0 271.3 146.15 271.3 145.3 268.3 144.7 L261.0 144.1 253.7 144.7 Q250.7 145.3 250.7 146.15 M309.25 153.8 Q311.85 153.2 311.85 152.35 311.85 151.5 309.25 150.9 L302.95 150.3 296.6 150.9 Q294.0 151.5 294.0 152.35 294.0 153.2 296.6 153.8 L302.95 154.4 309.25 153.8 M278.85 156.5 Q278.85 157.35 282.3 157.95 L290.55 158.55 298.8 157.95 Q302.25 157.35 302.25 156.5 302.25 155.65 298.8 155.0 L290.55 154.4 282.3 155.0 Q278.85 155.65 278.85 156.5 M113.15 56.7 Q111.1 57.3 111.1 58.15 111.1 59.0 113.15 59.65 L118.0 60.25 122.85 59.65 Q124.85 59.0 124.85 58.15 124.85 57.3 122.85 56.7 L118.0 56.1 113.15 56.7 118.0 56.1 122.85 56.7 Q124.85 57.3 124.85 58.15 124.85 59.0 122.85 59.65 L118.0 60.25 113.15 59.65 Q111.1 59.0 111.1 58.15 111.1 57.3 113.15 56.7 M91.2 47.85 Q88.35 47.85 86.35 48.45 84.3 49.05 84.3 49.9 84.3 50.75 86.35 51.4 88.35 52.0 91.2 52.0 L96.05 51.4 Q98.05 50.75 98.05 49.9 98.05 49.05 96.05 48.45 L91.2 47.85 96.05 48.45 Q98.05 49.05 98.05 49.9 98.05 50.75 96.05 51.4 L91.2 52.0 Q88.35 52.0 86.35 51.4 84.3 50.75 84.3 49.9 84.3 49.05 86.35 48.45 88.35 47.85 91.2 47.85 M88.7 61.95 L85.2 60.95 75.0 59.85 Q75.55 59.4 78.7 58.95 81.9 58.5 81.9 59.0 81.95 56.4 80.75 55.5 80.0 55.0 77.25 54.5 L78.8 54.4 Q79.2 54.1 78.65 52.9 77.9 51.2 73.55 50.8 76.25 50.25 76.0 49.1 75.7 48.0 73.2 47.35 L70.05 47.1 66.9 47.3 Q63.6 47.2 61.5 47.4 57.6 47.7 56.95 49.15 56.45 50.35 58.2 51.15 L60.9 51.95 Q60.85 52.55 60.4 53.05 L55.4 52.65 Q51.85 53.15 51.8 55.1 45.75 52.9 42.05 53.7 L40.75 54.3 39.4 54.9 37.25 54.9 Q35.65 54.85 35.25 55.4 L36.15 53.5 Q34.6 52.45 31.5 52.55 L22.95 52.9 Q17.8 52.85 16.85 56.75 L16.9 60.6 Q25.2 59.3 29.5 62.1 31.7 63.5 32.2 65.15 L35.3 63.65 Q41.0 62.35 44.85 64.4 46.8 65.45 47.55 66.7 52.0 66.1 54.3 67.1 55.45 67.6 55.7 68.25 L55.7 70.3 Q57.3 74.45 64.55 74.55 L71.5 73.85 71.5 70.3 Q80.45 69.0 85.3 71.8 87.7 73.2 88.35 74.85 L91.95 74.85 Q96.75 72.0 101.3 72.5 103.6 72.75 104.9 73.55 106.15 70.25 102.45 70.0 L99.65 70.0 Q98.3 70.0 98.3 69.45 98.25 67.7 97.5 67.0 96.85 66.35 94.95 66.0 L92.6 65.75 90.25 65.6 Q90.9 64.65 90.75 63.9 L91.2 63.65 Q92.9 62.7 89.25 62.05 L88.7 61.95 M120.05 68.5 Q115.9 68.75 115.55 70.0 115.3 71.2 118.25 72.45 126.05 75.7 136.55 73.3 146.0 71.15 134.0 69.6 L120.05 68.5 M93.95 86.35 Q93.95 86.1 92.25 85.85 L88.1 85.65 83.95 85.85 Q82.25 86.1 82.25 86.35 82.25 86.65 83.95 86.85 L88.1 87.05 92.25 86.85 Q93.95 86.65 93.95 86.35 M113.85 83.6 L116.3 83.2 Q117.3 82.8 117.3 82.25 117.3 81.65 116.3 81.25 L113.85 80.85 111.45 81.25 Q110.45 81.65 110.45 82.25 110.45 82.8 111.45 83.2 L113.85 83.6 111.45 83.2 Q110.45 82.8 110.45 82.25 110.45 81.65 111.45 81.25 L113.85 80.85 116.3 81.25 Q117.3 81.65 117.3 82.25 117.3 82.8 116.3 83.2 L113.85 83.6 M138.35 88.35 Q137.8 89.4 141.45 89.95 150.55 91.4 158.55 89.1 164.6 87.4 155.65 86.35 L145.5 85.65 Q139.05 87.1 138.35 88.35 M30.0 16.6 Q30.0 15.9 27.7 15.35 L22.1 14.85 16.5 15.35 Q14.2 15.9 14.2 16.6 14.2 17.3 16.5 17.8 L22.1 18.3 27.7 17.8 Q30.0 17.3 30.0 16.6 M55.1 35.5 L60.2 35.0 Q62.3 34.45 62.3 33.75 62.3 33.05 60.2 32.55 L55.1 32.05 50.0 32.55 Q47.85 33.05 47.85 33.75 47.85 34.45 50.0 35.0 L55.1 35.5 M36.2 36.15 Q36.2 35.3 33.8 34.7 L27.95 34.1 22.1 34.7 Q19.7 35.3 19.7 36.15 19.7 37.0 22.1 37.65 L27.95 38.25 33.8 37.65 Q36.2 37.0 36.2 36.15 36.2 37.0 33.8 37.65 L27.95 38.25 22.1 37.65 Q19.7 37.0 19.7 36.15 19.7 35.3 22.1 34.7 L27.95 34.1 33.8 34.7 Q36.2 35.3 36.2 36.15 M27.25 70.55 Q27.25 71.4 29.95 72.0 L36.55 72.6 43.1 72.0 Q45.8 71.4 45.8 70.55 45.8 69.7 43.1 69.1 L36.55 68.5 29.95 69.1 Q27.25 69.7 27.25 70.55 M33.25 80.95 Q32.25 81.4 32.25 81.95 32.25 82.5 33.25 82.9 L35.7 83.3 38.1 82.9 Q39.1 82.5 39.1 81.95 39.1 81.4 38.1 80.95 L35.7 80.55 33.25 80.95 35.7 80.55 38.1 80.95 Q39.1 81.4 39.1 81.95 39.1 82.5 38.1 82.9 L35.7 83.3 33.25 82.9 Q32.25 82.5 32.25 81.95 32.25 81.4 33.25 80.95 M66.45 100.8 Q66.45 99.95 64.65 99.35 62.8 98.75 60.25 98.75 L55.9 99.35 Q54.05 99.95 54.05 100.8 54.05 101.65 55.9 102.25 L60.25 102.85 Q62.8 102.85 64.65 102.25 66.45 101.65 66.45 100.8 66.45 101.65 64.65 102.25 62.8 102.85 60.25 102.85 L55.9 102.25 Q54.05 101.65 54.05 100.8 54.05 99.95 55.9 99.35 L60.25 98.75 Q62.8 98.75 64.65 99.35 66.45 99.95 66.45 100.8 M54.25 111.3 Q57.5 110.75 57.5 110.05 57.5 109.35 54.25 108.85 L46.5 108.35 38.7 108.85 Q35.5 109.35 35.5 110.05 35.5 110.75 38.7 111.3 L46.5 111.8 54.25 111.3 M129.0 138.95 Q129.0 138.25 125.55 137.75 L117.3 137.25 109.05 137.75 Q105.6 138.25 105.6 138.95 105.6 139.65 109.05 140.15 L117.3 140.65 125.55 140.15 Q129.0 139.65 129.0 138.95 M130.3 103.35 L123.5 102.85 116.7 103.35 Q113.85 103.85 113.85 104.55 113.85 105.25 116.7 105.8 L123.5 106.3 130.3 105.8 Q133.1 105.25 133.1 104.55 133.1 103.85 130.3 103.35 M92.0 127.25 L98.75 127.6 100.55 127.6 98.75 127.6 92.0 127.25 M155.1 154.6 Q158.55 154.1 158.55 153.4 158.55 152.7 155.1 152.15 L146.85 151.65 138.6 152.15 Q135.2 152.7 135.2 153.4 135.2 154.1 138.6 154.6 L146.85 155.1 155.1 154.6" fill="#ffffff" fill-opacity="0.0" fill-rule="evenodd" stroke="none"/>
    <path d="M512.8 126.85 L512.8 82.65 495.4 86.35 Q487.85 88.1 465.3 97.0 438.45 107.6 422.55 112.65 361.7 132.0 312.55 123.5 285.05 118.75 255.75 107.15 232.7 98.05 203.4 82.4 L153.45 54.85 Q124.1 38.8 103.55 30.0 67.6 14.6 35.2 6.45 14.9 1.4 0.0 0.0 L0.0 95.4 0.0 158.65 147.35 158.65 411.05 158.65 512.8 158.65 512.8 126.85" fill="none" stroke="#000000" stroke-linecap="round" stroke-linejoin="miter-clip" stroke-miterlimit="4.0" stroke-width="1.0"/>
    <path d="M494.05 123.5 Q494.05 124.5 491.65 125.25 L485.8 125.95 479.95 125.25 Q477.55 124.5 477.55 123.5 477.55 122.45 479.95 121.75 482.4 121.0 485.8 121.0 489.25 121.0 491.65 121.75 494.05 122.45 494.05 123.5 M383.0 143.3 Q385.4 144.2 385.4 145.5 385.4 146.8 383.0 147.65 380.6 148.55 377.15 148.55 373.75 148.55 371.3 147.65 368.9 146.75 368.9 145.5 368.9 144.2 371.3 143.3 373.7 142.4 377.15 142.4 380.6 142.4 383.0 143.3 M206.7 148.25 Q206.7 149.4 205.1 150.2 203.45 151.0 201.2 151.0 198.9 151.0 197.3 150.2 195.7 149.4 195.7 148.25 195.7 147.1 197.3 146.3 198.9 145.5 201.2 145.5 203.45 145.5 205.1 146.3 206.7 147.1 206.7 148.25 M288.0 123.2 L290.45 123.6 Q291.45 124.0 291.45 124.55 291.45 125.15 290.45 125.55 L288.0 125.95 285.55 125.55 Q284.55 125.15 284.55 124.55 284.55 124.0 285.55 123.6 L288.0 123.2 M113.85 83.6 L111.45 83.2 Q110.45 82.8 110.45 82.25 110.45 81.65 111.45 81.25 L113.85 80.85 116.3 81.25 Q117.3 81.65 117.3 82.25 117.3 82.8 116.3 83.2 L113.85 83.6 M33.25 80.95 L35.7 80.55 38.1 80.95 Q39.1 81.4 39.1 81.95 39.1 82.5 38.1 82.9 L35.7 83.3 33.25 82.9 Q32.25 82.5 32.25 81.95 32.25 81.4 33.25 80.95 M100.55 127.6 L98.75 127.6 92.0 127.25" fill="none" stroke="#000000" stroke-linecap="round" stroke-linejoin="miter-clip" stroke-miterlimit="4.0" stroke-opacity="0.4" stroke-width="1.0"/>
    <path d="M71.7 130.6 L76.05 130.35 Q81.75 130.35 85.8 131.75 89.8 133.15 89.8 135.15 89.8 137.15 85.8 138.55 81.75 140.0 76.05 140.0 70.35 140.0 66.35 138.55 62.3 137.15 62.3 135.15 62.3 134.25 63.15 133.45 M395.1 137.8 Q392.3 137.0 392.3 135.85 392.3 134.7 395.1 133.9 397.95 133.1 401.9 133.1 405.9 133.1 408.75 133.9 411.55 134.7 411.55 135.85 411.55 137.0 408.75 137.8 405.9 138.6 401.9 138.6 397.95 138.6 395.1 137.8 M326.3 153.75 L321.45 153.15 Q319.45 152.5 319.45 151.65 319.45 150.8 321.45 150.2 L326.3 149.6 331.2 150.2 Q333.2 150.8 333.2 151.65 333.2 152.5 331.2 153.15 L326.3 153.75 M454.5 113.95 L448.65 114.55 442.8 113.95 Q440.4 113.35 440.4 112.5 440.4 111.65 442.8 111.0 L448.65 110.4 454.5 111.0 Q456.9 111.65 456.9 112.5 456.9 113.35 454.5 113.95 M459.65 146.15 Q459.65 145.3 462.5 144.7 L469.3 144.1 476.1 144.7 Q478.9 145.3 478.9 146.15 478.9 147.0 476.1 147.65 L469.3 148.25 462.5 147.65 Q459.65 147.0 459.65 146.15 M181.2 86.65 Q183.0 86.05 185.55 86.05 L189.95 86.65 Q191.75 87.3 191.75 88.15 191.75 89.0 189.95 89.6 L185.55 90.2 Q183.0 90.2 181.2 89.6 179.35 89.0 179.35 88.15 179.35 87.3 181.2 86.65 M220.1 128.5 Q222.5 127.45 225.95 127.45 229.35 127.45 231.8 128.5 234.2 129.55 234.2 131.05 234.2 132.55 231.8 133.6 229.35 134.65 225.95 134.65 222.5 134.65 220.1 133.6 217.7 132.55 217.7 131.05 217.7 129.55 220.1 128.5 M165.15 150.4 L157.85 151.0 150.55 150.4 Q147.55 149.75 147.55 148.9 147.55 148.05 150.55 147.45 L157.85 146.85 165.15 147.45 Q168.2 148.05 168.2 148.9 168.2 149.75 165.15 150.4 M286.15 140.0 Q283.15 141.15 278.85 141.15 274.6 141.15 271.55 140.0 268.55 138.85 268.55 137.25 268.55 135.6 271.55 134.45 274.55 133.3 278.85 133.3 283.15 133.3 286.15 134.45 289.2 135.6 289.2 137.25 289.2 138.85 286.15 140.0 M265.0 118.55 Q266.3 118.05 268.05 118.05 269.85 118.05 271.1 118.55 272.35 119.05 272.35 119.75 272.35 120.45 271.1 120.95 L268.05 121.45 265.0 120.95 Q263.75 120.45 263.75 119.75 263.75 119.05 265.0 118.55 M91.2 47.85 L96.05 48.45 Q98.05 49.05 98.05 49.9 98.05 50.75 96.05 51.4 L91.2 52.0 Q88.35 52.0 86.35 51.4 84.3 50.75 84.3 49.9 84.3 49.05 86.35 48.45 88.35 47.85 91.2 47.85 M113.15 56.7 L118.0 56.1 122.85 56.7 Q124.85 57.3 124.85 58.15 124.85 59.0 122.85 59.65 L118.0 60.25 113.15 59.65 Q111.1 59.0 111.1 58.15 111.1 57.3 113.15 56.7 M36.2 36.15 Q36.2 37.0 33.8 37.65 L27.95 38.25 22.1 37.65 Q19.7 37.0 19.7 36.15 19.7 35.3 22.1 34.7 L27.95 34.1 33.8 34.7 Q36.2 35.3 36.2 36.15 M66.45 100.8 Q66.45 101.65 64.65 102.25 62.8 102.85 60.25 102.85 L55.9 102.25 Q54.05 101.65 54.05 100.8 54.05 99.95 55.9 99.35 L60.25 98.75 Q62.8 98.75 64.65 99.35 66.45 99.95 66.45 100.8" fill="none" stroke="#000000" stroke-linecap="round" stroke-linejoin="miter-clip" stroke-miterlimit="4.0" stroke-opacity="0.6" stroke-width="1.0"/>
  </g>
</svg>
