<?xml version="1.0" encoding="UTF-8" standalone="no"?>
<svg xmlns:xlink="http://www.w3.org/1999/xlink" height="17.2px" width="139.4px" xmlns="http://www.w3.org/2000/svg">
  <g transform="matrix(1.0, 0.0, 0.0, 1.0, 0.5, 0.5)">
    <path d="M111.8 0.75 L138.4 0.0 138.4 11.45 115.85 9.9 Q114.95 9.0 114.0 7.5 112.1 4.55 111.95 1.6 L111.8 0.75 M26.55 0.75 L26.4 1.6 Q26.25 4.55 24.4 7.5 L22.55 9.9 0.0 11.45 0.0 0.0 26.55 0.75" fill="#ffffff" fill-opacity="0.0" fill-rule="evenodd" stroke="none"/>
    <path d="M111.8 0.75 L111.95 1.6 Q112.1 4.55 114.0 7.5 114.95 9.0 115.85 9.9 L138.4 11.45 138.4 16.2 110.4 14.3 110.4 0.85 111.8 0.7 111.8 0.75 M0.0 11.45 L22.55 9.9 24.4 7.5 Q26.25 4.55 26.4 1.6 L26.55 0.75 26.55 0.7 28.0 0.85 28.0 14.3 0.0 16.2 0.0 11.45" fill="#000000" fill-opacity="0.24705882" fill-rule="evenodd" stroke="none"/>
    <path d="M138.4 11.45 L138.4 0.0 111.8 0.75 111.8 0.7 110.4 0.85 110.4 14.3 138.4 16.2 138.4 11.45 M0.0 11.45 L0.0 16.2 28.0 14.3 28.0 0.85 26.55 0.7 26.55 0.75 0.0 0.0 0.0 11.45" fill="none" stroke="#000000" stroke-linecap="round" stroke-linejoin="miter-clip" stroke-miterlimit="4.0" stroke-width="1.0"/>
  </g>
</svg>
