<?xml version="1.0" encoding="UTF-8" standalone="no"?>
<svg xmlns:xlink="http://www.w3.org/1999/xlink" height="300.45px" width="370.65px" xmlns="http://www.w3.org/2000/svg">
  <g transform="matrix(1.0, 0.0, 0.0, 1.0, 0.5, 0.5)">
    <path d="M367.1 204.9 L369.65 211.1 364.8 214.65 367.9 222.15 363.5 227.9 363.95 246.0 362.9 248.1 362.15 249.55 356.4 238.95 356.0 243.8 354.65 248.2 351.55 242.45 348.9 248.65 342.3 250.85 338.75 247.35 335.2 251.75 332.15 246.9 328.6 253.05 322.4 248.65 317.1 250.0 310.95 252.2 306.95 247.75 304.75 251.3 301.65 251.75 293.25 250.0 291.2 247.45 289.3 245.1 290.6 233.65 283.55 228.35 275.15 225.25 270.75 230.1 267.2 227.9 263.25 229.2 261.0 228.35 258.35 231.45 250.4 231.45 247.75 235.4 243.8 232.75 241.15 234.5 239.7 234.0 236.3 232.75 Q229.25 236.3 222.15 239.8 L219.5 235.4 201.85 238.5 200.05 242.45 195.65 241.6 191.25 246.45 188.6 246.45 187.25 253.95 185.05 253.95 181.95 262.8 184.15 264.55 180.2 270.75 184.15 272.5 180.65 283.1 182.4 291.95 179.9 289.65 176.2 286.2 174.9 294.15 170.05 283.55 171.8 295.45 163.85 297.7 159.9 291.95 157.65 294.6 153.7 292.8 151.5 299.45 146.65 299.0 144.0 291.5 141.75 294.6 140.0 290.6 137.35 296.35 128.95 299.45 125.0 295.9 118.8 295.05 113.95 298.1 108.65 293.7 103.95 294.2 100.25 294.6 103.35 289.75 103.35 281.35 99.35 279.55 99.8 274.7 90.1 274.25 96.7 270.3 91.0 265.45 88.75 269.4 84.35 273.85 81.25 270.3 78.6 276.5 73.3 274.25 67.15 276.9 62.7 273.85 45.95 274.7 45.05 272.05 42.3 272.3 40.2 272.5 43.7 261.45 39.3 263.25 44.6 253.95 44.6 247.35 42.4 248.65 44.05 235.45 47.25 234.95 52.1 225.7 53.45 230.55 54.3 241.6 59.6 241.6 60.95 245.55 70.2 246.45 79.05 250.0 78.15 240.25 83.45 242.45 84.8 253.95 86.1 247.35 94.05 253.5 100.25 253.5 100.7 260.15 104.65 252.65 107.3 257.95 110.4 239.8 115.7 250.4 117.9 242.9 123.2 256.15 123.65 242.05 129.85 242.45 133.4 239.4 141.75 237.15 144.0 245.1 146.65 242.9 154.15 250.0 158.55 245.55 162.95 249.1 164.3 243.8 173.55 247.75 177.55 246.45 182.4 248.65 182.4 240.7 185.05 240.7 198.3 227.45 198.3 232.3 208.9 225.25 212.9 227.9 218.6 225.25 234.1 228.8 240.25 222.6 247.75 227.9 254.4 219.95 265.45 220.4 277.35 218.6 279.55 213.75 286.2 214.2 291.95 209.8 300.35 209.8 310.5 204.5 306.05 212.45 315.8 210.25 323.3 203.15 325.5 212.45 328.15 207.15 329.9 215.55 333.9 208.9 337.45 215.95 347.15 211.1 355.1 215.1 356.4 200.55 359.5 208.9 364.8 204.05 367.1 204.9" fill="#ffffff" fill-opacity="0.0" fill-rule="evenodd" stroke="none"/>
    <path d="M16.9 5.4 L24.75 0.0 26.05 5.3 34.3 4.5 37.6 6.25 47.6 13.25 61.3 14.55 67.05 18.1 69.3 27.4 70.6 27.8 73.3 56.9 73.3 56.95 63.15 69.8 63.15 57.4 57.4 66.7 48.6 62.7 50.35 53.9 44.15 59.2 40.2 56.55 33.1 54.75 37.55 45.95 27.8 52.55 21.65 48.15 29.6 42.85 15.0 45.5 20.3 39.3 10.6 43.3 5.75 38.4 1.15 41.25 0.0 41.95 11.5 18.55 7.95 16.8 16.9 5.4" fill="#000000" fill-opacity="0.047058824" fill-rule="evenodd" stroke="none"/>
    <path d="M367.1 204.9 L364.8 204.05 359.5 208.9 356.4 200.55 355.1 215.1 347.15 211.1 337.45 215.95 333.9 208.9 329.9 215.55 328.15 207.15 325.5 212.45 323.3 203.15 315.8 210.25 306.05 212.45 310.5 204.5 300.35 209.8 291.95 209.8 286.2 214.2 279.55 213.75 277.35 218.6 265.45 220.4 254.4 219.95 247.75 227.9 240.25 222.6 234.1 228.8 218.6 225.25 212.9 227.9 208.9 225.25 198.3 232.3 198.3 227.45 185.05 240.7 182.4 240.7 182.4 248.65 177.55 246.45 173.55 247.75 164.3 243.8 162.95 249.1 158.55 245.55 154.15 250.0 146.65 242.9 144.0 245.1 141.75 237.15 133.4 239.4 129.85 242.45 123.65 242.05 123.2 256.15 117.9 242.9 115.7 250.4 110.4 239.8 107.3 257.95 104.65 252.65 100.7 260.15 100.25 253.5 94.05 253.5 86.1 247.35 84.8 253.95 83.45 242.45 78.15 240.25 79.05 250.0 70.2 246.45 60.95 245.55 59.6 241.6 54.3 241.6 53.45 230.55 52.1 225.7 47.25 234.95 44.05 235.45 M42.3 272.3 L45.05 272.05 45.95 274.7 62.7 273.85 67.15 276.9 73.3 274.25 78.6 276.5 81.25 270.3 84.35 273.85 88.75 269.4 91.0 265.45 96.7 270.3 M103.95 294.2 L108.65 293.7 113.95 298.1 118.8 295.05 125.0 295.9 128.95 299.45 137.35 296.35 140.0 290.6 141.75 294.6 144.0 291.5 146.65 299.0 151.5 299.45 153.7 292.8 157.65 294.6 159.9 291.95 163.85 297.7 171.8 295.45 170.05 283.55 174.9 294.15 176.2 286.2 179.9 289.65 M291.2 247.45 L293.25 250.0 301.65 251.75 304.75 251.3 306.95 247.75 310.95 252.2 317.1 250.0 322.4 248.65 328.6 253.05 332.15 246.9 335.2 251.75 338.75 247.35 342.3 250.85 348.9 248.65 351.55 242.45 354.65 248.2 356.0 243.8 356.4 238.95 362.15 249.55 362.9 248.1 M73.3 56.95 L73.3 56.9 70.6 27.8 69.3 27.4 67.05 18.1 61.3 14.55 47.6 13.25 37.6 6.25 34.3 4.5 26.05 5.3 24.75 0.0 16.9 5.4" fill="none" stroke="#000000" stroke-linecap="round" stroke-linejoin="round" stroke-opacity="0.4" stroke-width="1.0"/>
    <path d="M362.9 248.1 L363.95 246.0 363.5 227.9 367.9 222.15 364.8 214.65 369.65 211.1 367.1 204.9 M44.05 235.45 L42.4 248.65 44.6 247.35 44.6 253.95 39.3 263.25 43.7 261.45 40.2 272.5 42.3 272.3 M179.9 289.65 L182.4 291.95 180.65 283.1 184.15 272.5 180.2 270.75 184.15 264.55 181.95 262.8 185.05 253.95 187.25 253.95 188.6 246.45 191.25 246.45 195.65 241.6 200.05 242.45 201.85 238.5 219.5 235.4 222.15 239.8 Q229.25 236.3 236.3 232.75 L239.7 234.0 M16.9 5.4 L7.95 16.8 11.5 18.55 0.0 41.95 1.15 41.25" fill="none" stroke="#000000" stroke-linecap="round" stroke-linejoin="round" stroke-width="1.0"/>
    <path d="M96.7 270.3 L90.1 274.25 99.8 274.7 99.35 279.55 103.35 281.35 103.35 289.75 100.25 294.6 103.95 294.2 M239.7 234.0 L241.15 234.5 243.8 232.75 247.75 235.4 250.4 231.45 258.35 231.45 261.0 228.35 263.25 229.2 267.2 227.9 270.75 230.1 275.15 225.25 283.55 228.35 290.6 233.65 289.3 245.1 291.2 247.45" fill="none" stroke="#000000" stroke-linecap="round" stroke-linejoin="round" stroke-opacity="0.6" stroke-width="1.0"/>
  </g>
</svg>
