<?xml version="1.0" encoding="UTF-8" standalone="no"?>
<svg xmlns:xlink="http://www.w3.org/1999/xlink" height="97.6px" width="94.35px" xmlns="http://www.w3.org/2000/svg">
  <g transform="matrix(1.0, 0.0, 0.0, 1.0, 0.5, 0.5)">
    <path d="M9.5 94.2 L1.9 89.95 0.0 75.6 12.6 41.6 Q13.2 40.0 11.75 36.05 L10.45 33.0 18.3 37.95 19.25 44.1 9.05 65.0 9.75 77.15 9.75 94.2 9.5 94.2" fill="#000000" fill-opacity="0.2" fill-rule="evenodd" stroke="none"/>
    <path d="M14.2 10.25 Q13.1 9.2 20.8 5.05 24.65 2.95 28.75 1.1 L38.45 1.5 51.1 0.85 Q55.1 -0.45 63.7 0.2 L71.5 1.1 Q93.5 3.85 92.1 4.55 L84.1 8.25 Q73.15 13.0 69.6 13.0 L63.65 13.1 42.9 13.7 21.15 14.4 20.45 14.4 Q17.55 12.95 15.35 11.25 L14.2 10.25" fill="#ffffff" fill-opacity="0.14901961" fill-rule="evenodd" stroke="none"/>
    <path d="M85.95 91.35 L85.75 92.2 70.55 92.2 47.75 96.45 Q42.05 97.25 9.75 94.25 L9.75 94.2 17.75 94.45 18.05 89.1 11.4 82.5 20.9 71.55 27.8 44.95 38.25 37.35 31.6 24.7 21.15 14.4 42.9 13.7 63.65 13.1 67.7 17.95 73.4 14.6 76.25 23.85 61.85 31.0 51.8 29.4 31.85 21.55 38.95 30.8 61.05 37.95 82.9 42.45 61.05 37.95 38.95 30.8 31.85 21.55 51.8 29.4 61.85 31.0 59.15 32.3 51.1 34.35 82.9 42.45 83.15 62.15 73.55 66.45 74.95 67.2 81.7 70.7 81.35 73.7 79.95 84.25 83.65 88.65 Q85.5 91.3 85.95 91.35 M60.1 61.0 L74.95 67.2 60.1 61.0 M59.65 88.55 L55.35 75.0 58.9 54.35 49.65 47.2 45.4 37.2 46.1 52.9 51.1 61.0 42.55 82.35 19.95 88.65 18.05 94.35 19.95 88.65 42.55 82.35 51.1 61.0 46.1 52.9 45.4 37.2 49.65 47.2 58.9 54.35 55.35 75.0 59.65 88.55 M93.35 24.7 L76.75 29.35 67.7 29.15 93.35 24.7" fill="#ffffff" fill-opacity="0.0" fill-rule="evenodd" stroke="none"/>
    <path d="M9.75 94.25 L9.5 94.2 9.75 94.2 9.75 94.25 M81.35 73.7 L81.7 70.7 81.75 70.7 81.35 73.7 M83.65 88.65 L85.95 91.35 Q85.5 91.3 83.65 88.65" fill="#babcbe" fill-rule="evenodd" stroke="none"/>
    <path d="M81.7 70.7 L74.95 67.2 81.75 70.0 81.7 70.7 M81.35 73.7 L80.3 83.55 83.65 88.65 79.95 84.25 81.35 73.7" fill="#a4a6a8" fill-rule="evenodd" stroke="none"/>
    <path d="M92.1 4.55 L93.35 24.7 86.7 31.45 90.5 40.75 88.6 60.15 89.55 73.65 85.95 91.35 83.65 88.65 80.3 83.55 81.35 73.7 81.75 70.7 81.7 70.7 81.75 70.0 74.95 67.2 73.55 66.45 83.15 62.15 82.9 42.45 51.1 34.35 59.15 32.3 61.85 31.0 76.25 23.85 73.4 14.6 67.7 17.95 63.65 13.1 69.6 13.0 Q73.15 13.0 84.1 8.25 L92.1 4.55 M10.45 33.0 L10.2 32.45 12.6 21.35 14.2 10.25 15.35 11.25 Q17.55 12.95 20.45 14.4 L21.15 14.4 31.6 24.7 38.25 37.35 27.8 44.95 20.9 71.55 11.4 82.5 18.05 89.1 17.75 94.45 9.75 94.2 9.75 77.15 9.05 65.0 19.25 44.1 18.3 37.95 10.45 33.0 M74.6 32.95 L61.85 31.0 74.6 32.95 M67.7 29.15 L76.75 29.35 93.35 24.7 67.7 29.15" fill="#000000" fill-opacity="0.09803922" fill-rule="evenodd" stroke="none"/>
    <path d="M92.1 4.55 L93.35 24.7 86.7 31.45 90.5 40.75 88.6 60.15 89.55 73.65 85.95 91.35 85.75 92.2 70.55 92.2 47.75 96.45 Q42.05 97.25 9.75 94.25 L9.5 94.2 1.9 89.95 0.0 75.6 12.6 41.6 Q13.2 40.0 11.75 36.05 L10.45 33.0 10.2 32.45 12.6 21.35 14.2 10.25 Q13.1 9.2 20.8 5.05 24.65 2.95 28.75 1.1 L38.45 1.5 51.1 0.85 Q55.1 -0.45 63.7 0.2 L71.5 1.1 Q93.5 3.85 92.1 4.55 M81.7 70.7 L81.75 70.0 M9.75 94.2 L9.75 94.25 M21.15 14.4 L20.45 14.4" fill="none" stroke="#000000" stroke-linecap="round" stroke-linejoin="miter-clip" stroke-miterlimit="4.0" stroke-width="1.0"/>
    <path d="M92.1 4.55 L84.1 8.25 Q73.15 13.0 69.6 13.0 L63.65 13.1 42.9 13.7 21.15 14.4 M81.35 73.7 L81.7 70.7 M74.95 67.2 L60.1 61.0 M81.75 70.0 L74.95 67.2 M81.35 73.7 L80.3 83.55 83.65 88.65 Q85.5 91.3 85.95 91.35 M93.35 24.7 L76.75 29.35 67.7 29.15 M20.45 14.4 Q17.55 12.95 15.35 11.25 L14.2 10.25 M10.45 33.0 L18.3 37.95 19.25 44.1 9.05 65.0 9.75 77.15 9.75 94.2" fill="none" stroke="#000000" stroke-linecap="round" stroke-linejoin="miter-clip" stroke-miterlimit="4.0" stroke-opacity="0.6" stroke-width="1.0"/>
    <path d="M61.85 31.0 L74.6 32.95 M82.9 42.45 L61.05 37.95 38.95 30.8 31.85 21.55 51.8 29.4 61.85 31.0 M18.05 94.35 L19.95 88.65 42.55 82.35 51.1 61.0 46.1 52.9 45.4 37.2 49.65 47.2 58.9 54.35 55.35 75.0 59.65 88.55" fill="none" stroke="#000000" stroke-linecap="round" stroke-linejoin="miter-clip" stroke-miterlimit="4.0" stroke-opacity="0.4" stroke-width="1.0"/>
  </g>
</svg>
