<?xml version="1.0" encoding="UTF-8" standalone="no"?>
<svg xmlns:xlink="http://www.w3.org/1999/xlink" height="175.5px" width="909.15px" xmlns="http://www.w3.org/2000/svg">
  <g transform="matrix(1.0, 0.0, 0.0, 1.0, 0.5, 1.6)">
    <path d="M172.45 62.7 L187.65 48.8 193.75 39.15 208.95 21.75 253.85 9.9 263.6 23.85 305.95 27.8 340.15 20.85 353.45 17.4 395.55 23.85 434.65 23.85 443.65 22.6 Q452.9 21.1 453.85 20.0 L479.7 22.6 502.5 18.3 510.1 22.6 532.95 16.55 535.95 12.15 551.2 0.0 545.1 13.05 543.55 22.6 558.8 21.75 580.1 19.15 605.65 10.85 636.6 13.85 656.15 29.8 674.4 32.25 691.1 47.9 709.35 55.75 720.0 58.35 723.05 68.8 726.1 74.05 759.55 85.35 779.35 104.5 805.2 121.05 887.35 153.3 894.0 153.75 Q901.2 154.65 904.05 156.8 904.65 157.25 905.65 158.95 906.8 160.9 908.15 162.2 L908.15 173.25 232.45 173.4 Q230.55 171.2 227.2 170.7 221.1 169.85 187.65 169.85 L167.3 167.9 Q151.35 165.85 148.1 164.65 145.25 163.55 126.6 160.95 L108.55 158.5 88.8 158.2 Q68.25 158.0 64.45 158.5 L46.95 157.55 34.05 155.9 Q58.35 143.7 70.55 138.5 77.4 135.55 81.75 130.3 L84.45 127.1 Q85.8 125.7 87.25 125.4 89.1 125.1 97.15 121.6 104.55 118.45 107.05 118.45 109.9 118.45 125.5 114.1 L140.5 109.7 120.75 100.15 154.2 90.55 210.45 86.2 196.75 82.6 Q182.35 78.95 178.55 78.4 174.75 77.85 163.3 78.5 L152.65 79.3 125.3 74.9 173.95 67.05 Q177.75 66.5 187.65 63.7 L196.8 60.95 172.45 62.7 M692.05 119.4 L724.6 121.05 Q727.45 121.6 741.5 118.35 L755.0 114.95 709.35 115.85 614.3 112.8 586.15 112.35 Q578.55 112.35 555.0 117.6 L532.95 122.8 475.15 117.6 457.85 122.7 Q442.25 127.7 450.8 127.15 L470.75 127.85 491.85 129.8 Q503.25 130.45 538.6 130.45 574.0 130.45 578.55 129.8 582.35 129.25 631.05 128.6 L678.95 128.05 655.75 126.2 625.7 123.65 Q620.0 123.15 611.65 121.2 L604.4 119.3 Q647.0 118.45 656.15 118.45 664.4 118.45 692.05 119.4 M791.5 158.5 L725.55 158.3 700.25 156.75 Q693.6 155.65 671.15 157.0 L650.05 158.5 671.15 157.0 Q693.6 155.65 700.25 156.75 L725.55 158.3 791.5 158.5 M496.6 76.85 L516.2 74.9 478.15 73.15 452.3 71.4 436.15 71.55 Q418.3 71.75 409.75 72.3 L374.35 74.7 345.85 75.8 309.35 71.4 Q251.55 72.3 257.6 72.3 L320.0 75.8 301.0 78.1 Q282.7 80.45 286.5 81.0 290.2 81.55 325.5 80.9 L365.6 80.15 398.1 77.65 434.05 75.8 456.7 76.35 Q471.0 76.55 473.6 77.55 L496.6 76.85 M312.4 123.65 L277.4 121.95 240.9 121.95 277.4 121.95 312.4 123.65 M263.7 125.4 L234.8 126.3 205.9 123.65 234.8 126.3 263.7 125.4 M604.4 108.85 L575.5 108.85 514.85 111.8 Q490.15 112.9 487.3 112.35 L455.35 110.6 487.3 112.35 Q490.15 112.9 514.85 111.8 L575.5 108.85 604.4 108.85" fill="#ffffff" fill-opacity="0.0" fill-rule="evenodd" stroke="none"/>
    <path d="M172.45 62.7 L196.8 60.95 187.65 63.7 Q177.75 66.5 173.95 67.05 L125.3 74.9 152.65 79.3 163.3 78.5 Q174.75 77.85 178.55 78.4 182.35 78.95 196.75 82.6 L210.45 86.2 154.2 90.55 120.75 100.15 140.5 109.7 125.5 114.1 Q109.9 118.45 107.05 118.45 104.55 118.45 97.15 121.6 89.1 125.1 87.25 125.4 85.8 125.7 84.45 127.1 L81.75 130.3 Q77.4 135.55 70.55 138.5 58.35 143.7 34.05 155.9 L46.95 157.55 64.45 158.5 Q68.25 158.0 88.8 158.2 L108.55 158.5 126.6 160.95 Q145.25 163.55 148.1 164.65 151.35 165.85 167.3 167.9 L187.65 169.85 Q221.1 169.85 227.2 170.7 230.55 171.2 232.45 173.4 L0.0 172.75 0.15 160.45 20.35 150.7 Q49.25 136.75 53.8 135.0 56.65 133.9 69.95 126.95 L82.7 120.2 99.45 108.85 105.5 97.55 113.1 75.8 134.4 68.8 172.45 62.7 M692.05 119.4 Q664.4 118.45 656.15 118.45 647.0 118.45 604.4 119.3 L611.65 121.2 Q620.0 123.15 625.7 123.65 L655.75 126.2 678.95 128.05 631.05 128.6 Q582.35 129.25 578.55 129.8 574.0 130.45 538.6 130.45 503.25 130.45 491.85 129.8 L470.75 127.85 450.8 127.15 Q442.25 127.7 457.85 122.7 L475.15 117.6 532.95 122.8 555.0 117.6 Q578.55 112.35 586.15 112.35 L614.3 112.8 709.35 115.85 755.0 114.95 741.5 118.35 Q727.45 121.6 724.6 121.05 L692.05 119.4 M496.6 76.85 L473.6 77.55 Q471.0 76.55 456.7 76.35 L434.05 75.8 398.1 77.65 365.6 80.15 325.5 80.9 Q290.2 81.55 286.5 81.0 282.7 80.45 301.0 78.1 L320.0 75.8 257.6 72.3 Q251.55 72.3 309.35 71.4 L345.85 75.8 374.35 74.7 409.75 72.3 Q418.3 71.75 436.15 71.55 L452.3 71.4 478.15 73.15 516.2 74.9 496.6 76.85" fill="#000000" fill-opacity="0.2" fill-rule="evenodd" stroke="none"/>
    <path d="M908.15 173.25 L908.15 162.2 Q906.8 160.9 905.65 158.95 904.65 157.25 904.05 156.8 901.2 154.65 894.0 153.75 L887.35 153.3 805.2 121.05 779.35 104.5 759.55 85.35 726.1 74.05 723.05 68.8 720.0 58.35 709.35 55.75 691.1 47.9 674.4 32.25 656.15 29.8 636.6 13.85 605.65 10.85 580.1 19.15 558.8 21.75 543.55 22.6 545.1 13.05 551.2 0.0 535.95 12.15 532.95 16.55 510.1 22.6 502.5 18.3 479.7 22.6 453.85 20.0 Q452.9 21.1 443.65 22.6 L434.65 23.85 395.55 23.85 353.45 17.4 340.15 20.85 305.95 27.8 263.6 23.85 253.85 9.9 208.95 21.75 193.75 39.15 187.65 48.8 172.45 62.7 134.4 68.8 113.1 75.8 105.5 97.55 99.45 108.85 82.7 120.2 69.95 126.95 Q56.65 133.9 53.8 135.0 49.25 136.75 20.35 150.7 L0.15 160.45 0.0 172.75 M650.05 158.5 L671.15 157.0 Q693.6 155.65 700.25 156.75 L725.55 158.3 791.5 158.5 M455.35 110.6 L487.3 112.35 Q490.15 112.9 514.85 111.8 L575.5 108.85 604.4 108.85 M205.9 123.65 L234.8 126.3 263.7 125.4 M240.9 121.95 L277.4 121.95 312.4 123.65" fill="none" stroke="#000000" stroke-linecap="round" stroke-linejoin="miter-clip" stroke-miterlimit="4.0" stroke-opacity="0.6" stroke-width="1.0"/>
    <path d="M232.45 173.4 L908.15 173.25 M0.0 172.75 L232.45 173.4" fill="none" stroke="#000000" stroke-linecap="round" stroke-linejoin="miter-clip" stroke-miterlimit="4.0" stroke-width="1.0"/>
  </g>
</svg>
