<?xml version="1.0" encoding="UTF-8" standalone="no"?>
<svg xmlns:xlink="http://www.w3.org/1999/xlink" height="28.4px" width="32.2px" xmlns="http://www.w3.org/2000/svg">
  <g transform="matrix(1.0, 0.0, 0.0, 1.0, 16.1, 14.2)">
    <path d="M3.6 -13.55 Q8.5 -12.95 11.55 -10.5 14.4 -8.2 15.3 -3.7 L15.6 -1.25 15.4 1.15 Q15.3 1.85 15.35 3.15 L15.3 5.1 15.1 6.15 14.2 7.75 13.15 9.15 11.95 10.6 Q10.3 12.25 8.65 12.35 L7.2 12.35 5.7 12.45 3.25 12.95 0.8 13.4 Q-5.15 14.35 -8.9 12.5 -10.9 11.5 -12.6 9.45 -14.3 7.4 -14.8 5.35 L-15.4 2.65 -15.6 -0.1 -15.25 -3.0 -14.4 -5.75 Q-12.55 -9.9 -9.3 -11.6 -7.7 -12.4 -5.05 -13.0 -0.7 -14.05 3.6 -13.55" fill="#ffffff" fill-opacity="0.0" fill-rule="evenodd" stroke="none"/>
    <path d="M3.6 -13.55 Q-0.7 -14.05 -5.05 -13.0 -7.7 -12.4 -9.3 -11.6 -12.55 -9.9 -14.4 -5.75 L-15.25 -3.0 -15.6 -0.1 -15.4 2.65 -14.8 5.35 Q-14.3 7.4 -12.6 9.45 -10.9 11.5 -8.9 12.5 -5.15 14.35 0.8 13.4 L3.25 12.95 5.7 12.45 7.2 12.35 8.65 12.35 Q10.3 12.25 11.95 10.6 L13.15 9.15 14.2 7.75 15.1 6.15 15.3 5.1 15.35 3.15 Q15.3 1.85 15.4 1.15 L15.6 -1.25 15.3 -3.7 Q14.4 -8.2 11.55 -10.5 8.5 -12.95 3.6 -13.55 Z" fill="none" stroke="#000000" stroke-linecap="butt" stroke-linejoin="miter-clip" stroke-miterlimit="4.0" stroke-width="1.0"/>
    <path d="M10.65 -7.7 Q13.05 -5.7 13.85 -1.85 14.2 0.1 13.95 2.25 13.7 4.25 12.9 6.3 L11.9 8.45 10.8 9.7 Q10.1 10.35 9.4 10.7 L7.75 11.7 Q6.8 12.2 5.9 12.15 L3.75 12.35 1.6 12.8 Q-3.45 13.6 -6.6 12.0 -8.3 11.15 -9.7 9.4 -11.1 7.65 -11.6 5.9 L-12.1 3.6 -12.25 1.25 -11.95 -1.25 -11.2 -3.6 Q-9.65 -7.15 -6.9 -8.6 L-3.35 -9.85 3.95 -10.3 Q8.1 -9.8 10.65 -7.7" fill="#ffffff" fill-opacity="0.0" fill-rule="evenodd" stroke="none"/>
    <path d="M10.65 -7.7 Q8.1 -9.8 3.95 -10.3 L-3.35 -9.85 -6.9 -8.6 Q-9.65 -7.15 -11.2 -3.6 L-11.95 -1.25 -12.25 1.25 -12.1 3.6 -11.6 5.9 Q-11.1 7.65 -9.7 9.4 -8.3 11.15 -6.6 12.0 -3.45 13.6 1.6 12.8 L3.75 12.35 5.9 12.15 Q6.8 12.2 7.75 11.7 L9.4 10.7 Q10.1 10.35 10.8 9.7 L11.9 8.45 12.9 6.3 Q13.7 4.25 13.95 2.25 14.2 0.1 13.85 -1.85 13.05 -5.7 10.65 -7.7 Z" fill="none" stroke="#000000" stroke-linecap="butt" stroke-linejoin="miter-clip" stroke-miterlimit="4.0" stroke-opacity="0.6" stroke-width="1.0"/>
    <path d="M9.6 -6.8 Q11.65 -5.05 12.3 -1.65 12.6 0.05 12.4 1.85 L11.7 5.35 11.65 5.65 Q10.9 8.3 7.75 9.7 5.7 10.65 1.85 11.3 -2.4 12.0 -5.1 10.6 -6.55 9.85 -7.75 8.3 -8.95 6.8 -9.35 5.25 L-9.75 3.2 -9.85 1.1 -9.6 -1.05 -9.0 -3.15 Q-7.7 -6.3 -5.35 -7.55 L-2.3 -8.65 3.9 -9.1 Q7.4 -8.65 9.6 -6.8" fill="#ffffff" fill-opacity="0.0" fill-rule="evenodd" stroke="none"/>
    <path d="M9.6 -6.8 Q7.4 -8.65 3.9 -9.1 L-2.3 -8.65 -5.35 -7.55 Q-7.7 -6.3 -9.0 -3.15 L-9.6 -1.05 -9.85 1.1 -9.75 3.2 -9.35 5.25 Q-8.95 6.8 -7.75 8.3 -6.55 9.85 -5.1 10.6 -2.4 12.0 1.85 11.3 5.7 10.65 7.75 9.7 10.9 8.3 11.65 5.65 L11.7 5.35 12.4 1.85 Q12.6 0.05 12.3 -1.65 11.65 -5.05 9.6 -6.8 Z" fill="none" stroke="#000000" stroke-linecap="butt" stroke-linejoin="miter-clip" stroke-miterlimit="4.0" stroke-opacity="0.6" stroke-width="1.0"/>
    <path d="M4.1 -4.75 L6.05 -4.0 7.8 -2.55 9.0 -0.7 9.6 0.55 Q9.9 1.35 9.8 1.9 L9.7 3.2 9.5 4.5 8.8 6.75 Q8.25 7.8 7.15 8.55 L4.4 9.85 1.35 10.4 Q-0.7 10.35 -2.4 9.55 -4.15 8.75 -5.25 7.15 -7.2 4.4 -6.8 0.6 -6.7 -0.6 -6.2 -1.6 L-4.8 -3.45 Q-4.0 -4.15 -2.75 -4.6 L-0.35 -5.1 2.05 -5.15 4.1 -4.75" fill="#000000" fill-opacity="0.047058824" fill-rule="evenodd" stroke="none"/>
    <path d="M4.1 -4.75 L2.05 -5.15 -0.35 -5.1 -2.75 -4.6 Q-4.0 -4.15 -4.8 -3.45 L-6.2 -1.6 Q-6.7 -0.6 -6.8 0.6 -7.2 4.4 -5.25 7.15 -4.15 8.75 -2.4 9.55 -0.7 10.35 1.35 10.4 L4.4 9.85 7.15 8.55 Q8.25 7.8 8.8 6.75 L9.5 4.5 9.7 3.2 9.8 1.9 Q9.9 1.35 9.6 0.55 L9.0 -0.7 7.8 -2.55 6.05 -4.0 4.1 -4.75 Z" fill="none" stroke="#000000" stroke-linecap="butt" stroke-linejoin="miter-clip" stroke-miterlimit="4.0" stroke-opacity="0.4" stroke-width="1.0"/>
    <path d="M0.55 -1.9 L3.05 -1.65 5.35 -0.5 Q7.25 0.75 7.55 3.05 7.75 4.05 7.55 5.15 L6.8 7.1 Q6.2 8.25 5.15 8.95 4.15 9.6 2.9 9.8 L0.4 9.75 Q-0.9 9.55 -2.05 8.9 L-3.15 8.25 Q-4.05 7.55 -4.5 6.55 L-5.05 4.4 Q-5.15 3.3 -4.9 2.2 -4.65 1.05 -4.1 0.2 -3.55 -0.7 -2.05 -1.25 L0.55 -1.9" fill="#000000" fill-opacity="0.09803922" fill-rule="evenodd" stroke="none"/>
    <path d="M0.55 -1.9 L-2.05 -1.25 Q-3.55 -0.7 -4.1 0.2 -4.65 1.05 -4.9 2.2 -5.15 3.3 -5.05 4.4 L-4.5 6.55 Q-4.05 7.55 -3.15 8.25 L-2.05 8.9 Q-0.9 9.55 0.4 9.75 L2.9 9.8 Q4.15 9.6 5.15 8.95 6.2 8.25 6.8 7.1 L7.55 5.15 Q7.75 4.05 7.55 3.05 7.25 0.75 5.35 -0.5 L3.05 -1.65 0.55 -1.9 Z" fill="none" stroke="#000000" stroke-linecap="butt" stroke-linejoin="miter-clip" stroke-miterlimit="4.0" stroke-opacity="0.4" stroke-width="1.0"/>
    <path d="M5.45 4.3 L5.6 5.75 5.2 6.6 4.7 7.4 4.4 8.05 4.05 8.6 Q3.25 9.3 1.9 9.35 0.6 9.45 -0.35 8.9 -1.45 8.3 -2.0 7.15 -2.55 6.1 -2.5 4.8 L-2.2 3.4 -1.35 2.25 Q-0.55 1.65 0.4 1.5 L2.35 1.45 Q3.3 1.6 4.1 2.25 4.85 2.9 5.25 3.8 L5.45 4.3" fill="#000000" fill-opacity="0.14901961" fill-rule="evenodd" stroke="none"/>
    <path d="M5.45 4.3 L5.25 3.8 Q4.85 2.9 4.1 2.25 3.3 1.6 2.35 1.45 L0.4 1.5 Q-0.55 1.65 -1.35 2.25 L-2.2 3.4 -2.5 4.8 Q-2.55 6.1 -2.0 7.15 -1.45 8.3 -0.35 8.9 0.6 9.45 1.9 9.35 3.25 9.3 4.05 8.6 L4.4 8.05 4.7 7.4 5.2 6.6 5.6 5.75 5.45 4.3 Z" fill="none" stroke="#000000" stroke-linecap="butt" stroke-linejoin="miter-clip" stroke-miterlimit="4.0" stroke-opacity="0.4" stroke-width="1.0"/>
    <path d="M0.05 5.2 Q0.45 4.6 0.95 4.35 L2.05 4.1 Q2.8 4.2 3.4 4.75 4.0 5.3 4.3 6.0 4.55 6.75 4.4 7.45 4.25 8.2 3.6 8.65 2.55 9.35 1.35 9.0 L0.35 8.45 -0.3 7.5 -0.4 6.35 0.05 5.2" fill="#000000" fill-opacity="0.2" fill-rule="evenodd" stroke="none"/>
    <path d="M8.35 -8.8 L9.9 -7.85 Q12.25 -5.8 12.5 -1.65 L11.55 -4.7 Q10.1 -7.95 7.65 -9.0 L7.85 -8.95 8.35 -8.8 M1.95 10.3 L4.9 10.0 Q1.7 11.2 -0.9 10.3 -1.75 10.05 -2.4 9.6 L-2.9 9.2 Q-1.3 10.35 1.95 10.3 M14.5 4.35 L13.45 6.5 12.85 7.2 Q14.75 4.7 14.8 0.2 14.85 -2.1 14.5 -3.85 15.85 0.65 14.5 4.35 M6.75 5.55 Q6.5 6.95 4.75 8.4 L5.8 7.15 Q6.85 5.65 6.65 4.45 L6.75 4.75 6.75 5.55 M-5.95 -0.3 L-5.4 -1.85 Q-5.85 -0.5 -5.8 2.15 L-5.7 4.45 Q-6.3 1.85 -5.95 -0.3 M-0.55 -1.6 Q-1.8 -1.05 -2.45 -0.5 L-3.65 1.35 Q-4.15 2.35 -4.2 3.9 L-4.15 5.2 -4.35 4.3 -4.1 1.4 Q-3.7 -0.2 -2.05 -1.05 L-0.55 -1.6 M-12.1 -7.25 Q-12.95 -5.95 -13.45 -4.45 L-13.85 -3.3 Q-13.1 -8.3 -9.05 -11.0 -7.8 -11.85 -6.35 -12.35 L-5.55 -12.55 Q-9.6 -11.25 -12.1 -7.25 M-9.1 -0.05 L-8.8 2.75 Q-8.0 7.1 -5.4 8.95 L-6.2 8.35 -7.8 6.6 Q-10.0 3.35 -9.05 -1.2 L-9.1 -0.05 M-9.55 -5.15 L-8.95 -6.0 Q-10.95 -2.55 -11.15 1.7 -11.25 3.8 -10.9 5.25 -12.2 1.2 -10.7 -2.8 L-9.55 -5.15 M-2.55 4.05 Q-2.75 5.95 -1.8 7.5 L-2.05 7.3 -2.55 6.6 Q-3.05 5.35 -2.45 3.25 L-2.55 4.05" fill="#ffffff" fill-opacity="0.8" fill-rule="evenodd" stroke="none"/>
  </g>
</svg>
