<?xml version="1.0" encoding="UTF-8" standalone="no"?>
<svg xmlns:xlink="http://www.w3.org/1999/xlink" height="2098.75px" width="2098.65px" xmlns="http://www.w3.org/2000/svg">
  <g transform="matrix(1.0, 0.0, 0.0, 1.0, 0.5, 0.5)">
    <path d="M1572.85 140.1 L1575.75 141.85 Q1691.85 209.5 1787.45 304.35 1875.65 391.9 1940.8 497.0 1972.2 547.7 1997.45 601.1 1959.6 588.4 1926.3 584.95 1960.8 574.0 1966.85 561.0 1971.95 549.9 1956.25 538.8 1942.7 529.15 1918.4 522.3 1895.5 515.85 1877.15 515.55 L1879.05 514.9 1878.6 514.85 Q1847.35 513.55 1825.2 510.5 1846.1 499.95 1870.4 490.45 1896.5 480.3 1919.7 474.1 1885.6 473.85 1868.75 474.25 1839.45 474.95 1818.35 479.7 1805.8 482.55 1791.2 488.95 1783.35 492.45 1765.7 501.5 1749.5 509.8 1740.2 513.65 1725.8 519.6 1713.1 521.85 1722.2 506.6 1741.4 492.55 1755.2 482.45 1780.45 469.1 L1821.7 447.0 Q1844.1 433.95 1856.6 421.8 1765.25 447.1 1712.65 468.1 1646.0 494.7 1600.45 527.9 1590.7 534.95 1581.95 542.35 L1591.5 532.6 Q1611.25 513.1 1638.9 491.25 1650.75 481.95 1701.9 444.0 1740.8 415.2 1762.9 395.8 1794.35 368.2 1813.9 341.75 1793.0 342.3 1769.85 350.2 1751.65 356.4 1727.9 368.85 L1687.0 391.25 Q1662.8 404.45 1646.1 411.05 L1677.9 383.7 Q1697.25 366.8 1710.1 353.45 1745.6 316.5 1755.05 282.6 1693.25 273.1 1616.85 322.1 1558.5 359.45 1506.25 419.6 1511.1 413.05 1548.75 371.95 1586.8 330.35 1606.9 303.65 1673.75 214.95 1612.55 206.0 1581.05 201.4 1530.0 240.3 1489.6 271.05 1447.9 319.65 L1478.95 281.55 Q1498.8 256.6 1511.05 237.95 1543.5 188.55 1541.15 154.75 1527.15 153.45 1514.5 159.5 1502.6 165.25 1493.35 176.75 1497.1 170.25 1497.65 161.85 L1498.45 144.2 Q1468.25 136.25 1431.15 173.8 1402.25 203.05 1370.45 258.5 1385.85 216.4 1393.05 176.55 1400.85 133.15 1397.05 101.4 1384.15 103.3 1372.0 111.45 1361.25 118.6 1350.6 131.1 1351.8 108.55 1350.15 93.6 1347.8 72.65 1339.55 58.55 1327.75 61.95 1317.05 73.3 1307.45 83.5 1303.0 94.95 1306.6 76.45 1300.5 66.75 1293.65 56.0 1276.0 58.8 1269.05 75.7 1255.5 106.7 1241.15 139.75 1234.8 154.9 1213.65 205.6 1202.45 244.8 1213.1 204.0 1216.15 154.9 1218.95 110.25 1215.55 53.1 1202.8 58.9 1194.9 71.35 1187.75 82.65 1185.35 98.1 1186.45 80.4 1183.0 66.9 1178.85 50.75 1168.3 41.35 1153.85 47.8 1145.55 63.45 1138.9 76.05 1137.7 91.15 1138.25 79.75 1135.75 71.25 1133.05 62.15 1127.45 58.25 1121.75 54.35 1114.5 56.7 1106.8 59.15 1098.95 68.3 1087.8 81.25 1081.15 107.25 1076.3 126.25 1072.55 159.6 1068.75 196.85 1066.35 214.15 1062.2 243.8 1055.85 259.85 1057.55 224.8 1057.9 208.7 1058.7 172.55 1056.75 144.25 1051.3 63.95 1024.05 41.1 1013.2 50.5 1008.3 69.85 1005.5 80.95 1004.05 100.4 1002.3 72.4 991.15 50.8 978.3 25.9 955.6 15.8 954.85 28.2 954.75 55.0 954.65 80.9 953.75 94.0 948.55 73.6 935.65 63.8 921.5 53.0 902.2 58.8 899.4 105.6 899.9 169.65 L901.7 280.8 Q895.15 262.5 887.6 218.45 877.65 160.8 873.4 142.2 863.4 98.4 849.35 72.15 831.8 39.45 805.6 28.45 L812.8 26.65 835.8 22.25 Q864.7 17.0 894.25 12.7 988.85 -1.0 1054.75 0.1 1120.65 1.25 1228.05 18.75 1281.75 27.5 1322.25 36.05 L1323.25 36.35 1326.25 37.15 1333.55 39.1 1440.1 75.45 1457.05 82.45 Q1467.95 87.05 1478.65 91.9 L1572.85 140.1 M2015.2 640.6 L2015.75 641.95 2017.4 645.85 2023.15 659.95 2023.5 660.9 Q1999.95 658.6 1970.5 663.75 1999.5 652.2 2015.2 640.6 M1964.9 718.9 Q1987.55 704.85 1998.15 697.1 2017.0 683.25 2027.1 670.2 2035.9 692.8 2043.25 714.65 2007.8 714.6 1964.9 718.9 M2022.8 762.75 Q2009.65 762.5 1986.5 762.85 2019.65 751.35 2048.65 731.25 2054.2 748.8 2058.65 764.75 L2022.8 762.75 M1370.45 258.5 Q1360.45 285.8 1348.5 309.7 1336.4 333.9 1323.95 351.25 1347.05 299.45 1370.45 258.5 M1970.5 663.75 Q1930.1 679.95 1873.9 693.05 1825.15 704.4 1803.1 705.45 1832.6 703.0 1885.95 686.7 1921.6 675.75 1928.3 673.85 1952.35 667.0 1970.5 663.75 M2009.1 852.7 Q1974.85 857.25 1941.35 858.8 1908.7 860.35 1884.75 858.65 L1943.25 855.75 2009.1 852.7 Q2045.9 847.8 2076.85 840.15 L2080.7 860.2 Q2052.45 852.45 2009.1 852.7 M2006.55 1132.1 Q1969.05 1138.65 1938.85 1138.65 1905.5 1138.7 1884.6 1130.65 L1945.6 1131.15 Q1983.4 1131.35 2006.55 1132.1 2050.95 1124.4 2095.9 1109.35 L2093.7 1139.65 Q2055.1 1133.75 2006.55 1132.1 M2012.4 986.65 Q1970.25 991.9 1930.95 992.05 L1964.75 989.9 2012.4 986.65 Q2055.95 981.25 2094.8 971.2 L2096.3 995.7 Q2081.15 989.15 2057.95 987.1 2038.9 985.4 2012.4 986.65 M1996.9 939.0 Q2004.85 937.1 2019.1 935.05 L2043.85 931.55 Q2074.6 926.7 2089.5 918.0 L2092.2 941.2 2043.8 941.0 1996.9 939.0 M2066.15 793.0 L2071.55 815.5 Q2033.65 816.5 2014.75 816.65 L1958.35 814.75 Q1965.2 812.3 1980.0 810.2 L2009.05 806.5 Q2049.1 801.35 2066.15 793.0 M1805.35 1455.2 Q1828.85 1459.45 1869.15 1470.5 1915.7 1483.3 1933.25 1487.15 1969.35 1495.1 1997.9 1495.65 1984.85 1523.5 1971.1 1548.7 1921.3 1533.95 1852.8 1502.95 1831.65 1493.4 1795.7 1476.3 1756.35 1457.6 1741.55 1450.8 1770.25 1448.9 1805.35 1455.2 M1802.7 1494.05 Q1824.9 1500.95 1857.3 1514.7 L1911.5 1537.75 Q1942.65 1550.3 1966.85 1556.35 1954.05 1579.4 1941.65 1599.4 1922.35 1569.1 1852.15 1532.05 1827.7 1519.1 1794.4 1504.05 L1746.05 1482.65 Q1772.55 1484.7 1802.7 1494.05 M1943.65 1453.5 Q1899.75 1448.6 1879.15 1440.25 1907.2 1439.7 1948.95 1443.35 L2018.35 1449.45 2012.45 1463.5 Q1998.65 1460.05 1978.8 1457.45 L1943.65 1453.5 M1929.6 1285.85 Q1854.8 1269.0 1803.65 1249.4 1849.35 1251.65 1936.7 1264.05 L2004.35 1273.3 Q2042.3 1278.1 2072.0 1280.2 2068.5 1295.95 2064.5 1311.55 1984.9 1298.3 1929.6 1285.85 M2031.35 1416.5 L2029.05 1422.5 Q2020.5 1420.55 2003.2 1417.75 1988.6 1415.35 1983.85 1413.85 L2004.45 1414.95 2031.35 1416.5 M1985.75 1367.1 Q1991.55 1365.75 2016.2 1361.35 2038.9 1357.3 2052.6 1353.8 L2046.05 1374.45 Q2033.15 1372.25 2010.05 1370.05 1989.6 1368.05 1985.75 1367.1 M2080.6 1237.95 L2077.0 1256.65 2018.9 1241.85 Q1987.0 1233.3 1963.9 1225.65 1973.6 1223.9 1988.8 1225.35 1999.55 1226.4 2018.6 1229.75 L2050.25 1235.15 Q2068.15 1237.8 2080.6 1237.95 M2092.8 1149.9 L2092.7 1150.55 Q2076.1 1154.3 2056.05 1152.5 2064.4 1149.5 2074.05 1148.9 2083.3 1148.3 2092.8 1149.9 M2097.5 1061.95 L2097.35 1072.75 Q2056.15 1068.55 2033.85 1067.45 2073.25 1067.45 2097.5 1061.95 M2096.6 1003.1 L2097.15 1017.0 Q2082.75 1016.5 2059.85 1017.6 L2023.75 1019.1 Q2066.45 1006.9 2096.6 1003.1 M2087.6 903.6 Q2075.55 900.8 2053.1 899.3 2027.45 897.55 2018.15 896.05 2035.0 896.7 2051.5 894.35 2070.6 891.65 2084.95 885.45 L2087.6 903.6 M805.6 93.45 Q794.1 73.7 783.85 63.6 769.4 49.3 752.8 48.0 751.85 63.95 751.85 84.1 751.8 96.9 752.25 120.4 735.05 95.3 714.25 75.9 713.45 95.4 718.5 118.05 722.3 134.95 730.9 159.05 740.9 186.0 745.45 199.35 753.3 222.3 756.2 239.15 744.2 224.05 732.15 200.8 725.1 187.15 711.8 158.85 699.4 133.4 688.8 117.4 674.3 95.6 656.7 80.45 656.1 92.65 655.95 119.2 655.85 144.65 655.05 157.75 642.0 142.75 631.6 135.1 617.75 124.8 603.05 122.6 604.95 132.55 610.45 154.4 615.7 175.3 617.55 185.55 604.85 170.5 584.65 165.95 567.6 162.05 544.6 165.55 543.55 204.25 569.2 264.55 587.05 306.55 616.9 356.85 599.8 343.15 577.85 319.0 565.25 305.15 540.0 276.3 517.45 251.35 499.75 236.6 476.6 217.3 453.5 207.9 457.35 220.6 466.0 239.15 475.9 259.6 480.2 269.45 467.5 258.3 455.8 252.55 441.35 245.4 427.05 245.65 428.3 249.55 429.5 255.8 L431.55 266.4 Q434.35 279.25 440.5 287.0 429.8 282.95 416.0 282.55 L390.85 283.0 Q408.35 320.95 439.4 356.4 472.05 393.65 506.4 412.4 492.85 406.0 465.1 385.0 424.55 354.3 415.65 348.2 386.15 327.85 365.1 320.55 338.5 311.35 320.3 320.6 321.6 329.1 327.8 350.7 333.55 370.95 334.8 381.75 324.9 375.25 313.15 373.85 305.2 372.85 291.9 374.2 L270.5 375.7 Q258.3 375.55 248.35 371.25 355.25 245.05 495.45 157.85 638.1 69.05 801.0 29.6 801.35 38.95 803.55 61.35 805.5 81.7 805.6 93.45 M235.05 569.0 Q198.6 558.95 174.45 565.45 144.9 573.35 128.0 606.45 145.85 615.05 171.8 626.0 L216.0 644.45 Q269.4 667.1 300.75 687.2 255.35 669.8 205.65 659.0 153.75 647.7 107.7 645.95 124.75 661.35 150.15 677.75 162.15 685.45 196.5 705.7 225.75 722.9 241.75 734.05 265.45 750.55 281.0 767.1 263.7 765.6 220.75 757.05 176.15 748.15 153.35 745.8 115.5 741.9 89.85 748.15 58.7 755.7 41.4 778.75 55.2 788.65 75.75 795.65 91.0 800.9 115.15 806.0 L155.2 814.4 Q177.45 819.55 191.45 825.45 156.7 827.8 109.55 827.6 L27.35 826.4 Q51.4 840.4 81.55 849.4 111.8 858.4 139.8 859.85 129.45 862.9 114.05 864.75 L85.1 867.35 Q45.1 870.45 26.5 875.7 35.05 884.65 50.15 888.4 61.75 891.25 80.6 891.55 91.35 891.75 112.85 891.6 131.2 891.95 142.05 894.85 116.4 896.95 81.6 905.2 36.3 915.9 6.55 931.15 21.1 801.1 67.1 679.1 111.95 560.05 184.35 454.9 198.2 495.65 265.8 549.6 291.65 570.25 320.4 588.65 345.7 604.9 363.1 613.1 342.2 609.4 300.9 592.9 L267.85 579.9 Q249.1 572.85 235.05 569.0 M308.5 488.55 Q287.15 461.65 259.35 451.15 233.85 441.5 192.75 442.75 208.8 420.1 229.15 394.55 L272.7 444.2 Q293.95 469.05 308.5 488.55 M1.2 998.5 L1.2 998.15 Q44.2 1004.6 99.3 1006.7 131.45 1007.95 197.95 1008.15 161.35 1008.45 105.25 1023.3 51.2 1037.65 0.1 1059.75 L0.0 1055.25 1.2 998.5 M937.15 2091.9 L929.9 2091.0 Q938.75 2081.7 944.95 2064.9 948.75 2054.55 953.5 2034.6 956.25 2044.7 964.5 2058.25 975.35 2076.0 977.5 2080.6 986.25 2073.25 996.95 2053.8 1009.9 2030.25 1015.1 2023.7 1015.95 2029.4 1017.1 2042.95 1018.15 2055.3 1019.35 2061.95 1023.2 2083.3 1036.1 2094.95 1066.1 2073.15 1080.65 2019.5 1091.85 1978.4 1093.7 1919.35 1096.15 1965.65 1104.25 2008.8 1113.85 2059.8 1129.4 2094.65 L1124.5 2095.1 1050.6 2097.75 1048.8 2097.75 1047.5 2097.75 1046.2 2097.75 1045.2 2097.75 937.15 2091.9 M1.8 1110.25 L1.15 1099.05 20.3 1099.95 Q13.5 1104.55 1.8 1110.25 M539.65 1387.8 Q425.0 1437.35 340.05 1481.35 232.95 1536.9 152.45 1593.8 131.75 1559.7 114.05 1525.05 160.55 1512.95 222.1 1485.95 261.35 1468.75 313.8 1442.0 301.3 1450.6 284.25 1459.0 275.05 1463.6 253.35 1473.2 233.35 1482.05 222.6 1487.55 206.0 1496.15 193.7 1505.2 215.75 1506.3 242.0 1499.25 263.15 1493.6 290.6 1481.5 301.2 1476.85 338.1 1459.1 366.7 1445.35 383.25 1439.15 406.8 1430.35 461.6 1413.75 513.75 1397.95 539.65 1387.8 M66.75 1417.85 L63.6 1409.5 Q78.05 1405.6 88.55 1403.95 79.45 1410.3 66.75 1417.85 M86.6 1466.8 Q134.4 1451.9 141.05 1450.1 171.95 1441.65 195.3 1440.4 150.1 1456.45 96.2 1488.15 L86.6 1466.8 M39.9 1336.6 L46.8 1334.3 41.35 1341.35 39.9 1336.6 M26.3 1283.45 Q43.45 1279.6 62.4 1274.35 46.9 1279.6 27.55 1288.85 L26.3 1283.45 M88.85 1200.35 Q114.55 1193.0 124.75 1190.4 143.9 1185.55 157.15 1183.9 123.15 1190.65 85.45 1211.15 62.65 1223.6 19.85 1252.8 16.65 1236.8 13.6 1217.85 39.3 1214.5 88.85 1200.35 M281.05 1562.85 Q329.8 1543.2 398.4 1511.8 350.3 1544.5 309.85 1585.05 265.1 1629.95 239.75 1674.75 262.3 1667.75 284.45 1659.1 308.95 1649.6 329.3 1639.5 302.75 1664.25 288.15 1679.2 262.05 1705.9 249.25 1727.65 200.1 1669.7 159.8 1605.6 215.0 1589.55 281.05 1562.85 M1191.5 2028.6 Q1202.45 2063.05 1217.0 2084.25 L1176.15 2090.0 Q1179.2 2025.15 1178.9 1975.6 1183.15 2002.2 1191.5 2028.6 M1253.7 2077.65 L1253.7 2044.25 Q1253.8 2025.0 1254.55 2011.0 1268.3 2020.8 1280.3 2036.05 1291.25 2049.95 1300.0 2067.4 1276.15 2073.25 1253.7 2077.65 M741.55 2051.95 L723.5 2046.2 Q732.6 2027.6 741.6 2004.8 748.7 1986.8 757.15 1962.35 744.25 2003.55 741.55 2051.95 M690.65 2034.95 L685.6 2033.1 688.3 2029.05 690.65 2034.95 M766.8 2059.3 Q772.9 2023.1 775.6 2012.55 782.1 1987.05 793.6 1971.3 794.5 1984.95 793.45 2018.2 792.4 2049.8 793.9 2066.45 L766.8 2059.3 M912.45 2018.65 Q915.4 2005.25 917.7 1997.7 916.25 2026.95 917.9 2045.25 920.25 2071.15 929.2 2090.9 L891.65 2086.0 Q900.55 2070.85 907.35 2041.95 L912.45 2018.65 M854.15 1974.15 L858.85 1921.55 Q861.5 1890.8 864.05 1874.3 864.1 1893.0 862.3 1924.0 L859.3 1977.15 Q856.3 2042.7 863.7 2081.45 L831.3 2075.1 Q847.2 2039.45 854.15 1974.15 M1310.2 2064.9 Q1311.65 2057.95 1313.65 2036.0 1315.35 2017.6 1318.85 2006.65 1331.35 2019.75 1342.15 2028.9 1356.15 2040.85 1369.1 2047.85 1338.5 2057.65 1310.2 2064.9 M1561.45 1886.35 L1574.9 1904.8 Q1591.45 1927.15 1604.45 1938.5 1584.3 1951.15 1565.15 1961.95 1563.05 1949.5 1556.0 1914.85 1550.0 1885.5 1547.75 1868.65 1553.55 1875.55 1561.45 1886.35 M1403.75 1714.0 Q1426.0 1738.5 1446.7 1774.1 1459.85 1796.6 1481.2 1840.4 1503.8 1886.75 1515.05 1906.75 1535.25 1942.6 1556.2 1966.95 1474.05 2012.5 1385.3 2042.6 1387.45 2032.6 1387.8 2017.5 L1387.95 1991.8 Q1406.3 2014.6 1434.4 2020.3 1436.5 2005.25 1432.7 1987.35 1430.2 1975.9 1423.0 1955.3 1415.25 1933.1 1412.8 1923.2 1408.3 1905.15 1409.4 1890.25 1432.8 1927.45 1439.85 1937.3 1458.5 1963.35 1477.25 1978.2 1481.6 1947.35 1472.55 1910.95 1466.0 1884.55 1449.0 1844.9 L1434.75 1812.1 Q1426.3 1792.7 1421.25 1779.45 1406.95 1742.25 1403.75 1714.0 M1625.45 1886.75 Q1644.35 1900.45 1654.4 1905.3 1634.15 1919.7 1612.75 1933.35 1609.45 1922.3 1601.25 1900.95 1594.95 1881.95 1595.8 1867.55 1606.15 1872.75 1625.45 1886.75 M1645.5 1870.55 Q1635.45 1854.85 1632.75 1840.3 1643.95 1845.15 1662.95 1858.7 1682.2 1872.45 1692.4 1877.0 1679.9 1886.75 1665.45 1897.3 1649.7 1877.1 1645.5 1870.55 M1673.85 1634.7 Q1684.95 1643.45 1699.0 1656.9 L1723.6 1681.1 Q1754.55 1711.7 1774.55 1724.7 1804.3 1744.05 1833.9 1744.3 1775.9 1809.7 1708.25 1864.45 1695.25 1839.15 1677.5 1810.4 1664.2 1788.85 1643.45 1757.85 1662.85 1785.55 1690.0 1804.8 1723.45 1828.5 1750.1 1823.15 1730.4 1766.45 1694.5 1709.15 1663.55 1659.85 1618.35 1606.7 1645.0 1611.85 1673.85 1634.7 M1833.4 1704.05 Q1848.15 1711.0 1859.05 1714.9 1848.6 1727.6 1834.8 1743.25 1825.6 1723.3 1800.75 1704.5 1792.55 1698.35 1778.6 1689.25 L1756.75 1674.9 Q1777.8 1677.6 1808.3 1692.0 L1833.4 1704.05 M1849.45 1675.55 Q1830.65 1665.4 1821.9 1660.45 L1861.9 1659.1 1902.05 1658.9 Q1889.15 1676.85 1876.65 1692.9 1866.1 1684.85 1849.45 1675.55 M1941.35 1599.85 Q1926.3 1624.15 1910.6 1646.7 1900.5 1627.6 1868.65 1614.2 1858.05 1609.75 1841.15 1604.35 L1815.6 1596.1 Q1834.95 1595.1 1878.8 1598.6 1919.85 1601.9 1941.35 1599.85 M626.85 2009.3 L619.9 2006.25 623.85 1997.4 Q625.4 2002.05 626.85 2009.3 M314.75 1750.7 Q303.25 1766.85 295.95 1779.0 L279.2 1761.35 Q288.2 1754.55 305.5 1739.5 321.1 1727.15 334.0 1724.0 L314.75 1750.7 M498.05 1941.6 Q520.4 1929.4 541.5 1902.0 558.35 1880.1 576.0 1846.2 560.2 1880.3 551.75 1906.3 541.0 1939.35 539.65 1965.95 518.35 1954.15 498.05 1941.6 M456.4 1914.45 Q468.4 1904.2 485.45 1885.05 506.9 1861.05 511.2 1856.75 502.8 1878.05 497.4 1895.1 490.65 1916.6 487.45 1934.95 472.15 1925.25 456.4 1914.45 M406.9 1878.35 Q426.45 1857.2 434.3 1849.6 450.0 1834.4 463.6 1826.2 452.45 1846.0 445.2 1860.2 435.7 1878.9 429.15 1895.1 L406.9 1878.35 M385.2 1745.9 Q397.35 1734.85 404.9 1728.6 432.15 1706.05 478.8 1670.35 L548.1 1616.95 Q494.1 1661.6 448.05 1717.25 397.6 1778.2 364.25 1843.5 341.75 1824.15 318.3 1801.4 337.1 1789.4 364.0 1765.25 L385.2 1745.9" fill="#000000" fill-opacity="0.29803923" fill-rule="evenodd" stroke="none"/>
    <path d="M1600.45 527.9 Q1646.0 494.7 1712.65 468.1 1765.25 447.1 1856.6 421.8 1844.1 433.95 1821.7 447.0 L1780.45 469.1 Q1755.2 482.45 1741.4 492.55 1722.2 506.6 1713.1 521.85 1725.8 519.6 1740.2 513.65 1749.5 509.8 1765.7 501.5 1783.35 492.45 1791.2 488.95 1805.8 482.55 1818.35 479.7 1839.45 474.95 1868.75 474.25 1885.6 473.85 1919.7 474.1 1896.5 480.3 1870.4 490.45 1846.1 499.95 1825.2 510.5 1847.35 513.55 1878.6 514.85 L1879.05 514.9 1877.15 515.55 Q1895.5 515.85 1918.4 522.3 1942.7 529.15 1956.25 538.8 1971.95 549.9 1966.85 561.0 1960.8 574.0 1926.3 584.95 1959.6 588.4 1997.45 601.1 1972.2 547.7 1940.8 497.0 1875.65 391.9 1787.45 304.35 1691.85 209.5 1575.75 141.85 L1572.85 140.1 Q1691.65 208.45 1790.45 307.25 1935.6 452.4 2015.2 640.6 1999.5 652.2 1970.5 663.75 1999.95 658.6 2023.5 660.9 L2023.15 659.95 Q2097.65 846.05 2097.65 1048.9 2097.65 1262.3 2015.2 1457.15 1935.6 1645.4 1790.45 1790.55 1645.25 1935.7 1457.05 2015.3 1297.0 2083.0 1124.5 2095.1 L1129.4 2094.65 Q1113.85 2059.8 1104.25 2008.8 1096.15 1965.65 1093.7 1919.35 1091.85 1978.4 1080.65 2019.5 1066.1 2073.15 1036.1 2094.95 1023.2 2083.3 1019.35 2061.95 1018.15 2055.3 1017.1 2042.95 1015.95 2029.4 1015.1 2023.7 1009.9 2030.25 996.95 2053.8 986.25 2073.25 977.5 2080.6 975.35 2076.0 964.5 2058.25 956.25 2044.7 953.5 2034.6 948.75 2054.55 944.95 2064.9 938.75 2081.7 929.9 2091.0 L937.15 2091.9 Q783.85 2075.95 640.55 2015.3 452.3 1935.7 307.15 1790.55 162.0 1645.4 82.4 1457.15 1.15 1265.2 0.0 1055.25 L0.1 1059.75 Q51.2 1037.65 105.25 1023.3 161.35 1008.45 197.95 1008.15 131.45 1007.95 99.3 1006.7 44.2 1004.6 1.2 998.15 L1.2 998.5 Q9.75 812.35 82.4 640.65 162.0 452.4 307.15 307.25 452.3 162.1 640.55 82.45 724.9 46.75 812.8 26.65 L805.6 28.45 Q831.8 39.45 849.35 72.15 863.4 98.4 873.4 142.2 877.65 160.8 887.6 218.45 895.15 262.5 901.7 280.8 L899.9 169.65 Q899.4 105.6 902.2 58.8 921.5 53.0 935.65 63.8 948.55 73.6 953.75 94.0 954.65 80.9 954.75 55.0 954.85 28.2 955.6 15.8 978.3 25.9 991.15 50.8 1002.3 72.4 1004.05 100.4 1005.5 80.95 1008.3 69.85 1013.2 50.5 1024.05 41.1 1051.3 63.95 1056.75 144.25 1058.7 172.55 1057.9 208.7 1057.55 224.8 1055.85 259.85 1062.2 243.8 1066.35 214.15 1068.75 196.85 1072.55 159.6 1076.3 126.25 1081.15 107.25 1087.8 81.25 1098.95 68.3 1106.8 59.15 1114.5 56.7 1121.75 54.35 1127.45 58.25 1133.05 62.15 1135.75 71.25 1138.25 79.75 1137.7 91.15 1138.9 76.05 1145.55 63.45 1153.85 47.8 1168.3 41.35 1178.85 50.75 1183.0 66.9 1186.45 80.4 1185.35 98.1 1187.75 82.65 1194.9 71.35 1202.8 58.9 1215.55 53.1 1218.95 110.25 1216.15 154.9 1213.1 204.0 1202.45 244.8 1213.65 205.6 1234.8 154.9 1241.15 139.75 1255.5 106.7 1269.05 75.7 1276.0 58.8 1293.65 56.0 1300.5 66.75 1306.6 76.45 1303.0 94.95 1307.45 83.5 1317.05 73.3 1327.75 61.95 1339.55 58.55 1347.8 72.65 1350.15 93.6 1351.8 108.55 1350.6 131.1 1361.25 118.6 1372.0 111.45 1384.15 103.3 1397.05 101.4 1400.85 133.15 1393.05 176.55 1385.85 216.4 1370.45 258.5 1402.25 203.05 1431.15 173.8 1468.25 136.25 1498.45 144.2 L1497.65 161.85 Q1497.1 170.25 1493.35 176.75 1502.6 165.25 1514.5 159.5 1527.15 153.45 1541.15 154.75 1543.5 188.55 1511.05 237.95 1498.8 256.6 1478.95 281.55 L1447.9 319.65 Q1489.6 271.05 1530.0 240.3 1581.05 201.4 1612.55 206.0 1673.75 214.95 1606.9 303.65 1586.8 330.35 1548.75 371.95 1511.1 413.05 1506.25 419.6 1558.5 359.45 1616.85 322.1 1693.25 273.1 1755.05 282.6 1745.6 316.5 1710.1 353.45 1697.25 366.8 1677.9 383.7 L1646.1 411.05 Q1662.8 404.45 1687.0 391.25 L1727.9 368.85 Q1751.65 356.4 1769.85 350.2 1793.0 342.3 1813.9 341.75 1794.35 368.2 1762.9 395.8 1740.8 415.2 1701.9 444.0 1650.75 481.95 1638.9 491.25 1611.25 513.1 1591.5 532.6 1581.9 537.8 1569.05 545.4 1529.6 568.75 1490.65 597.15 1378.85 678.45 1308.45 772.75 1299.95 764.7 1291.1 757.35 1324.15 729.25 1374.5 679.85 1411.2 643.85 1440.55 613.15 1376.05 650.5 1309.6 721.4 1294.8 737.2 1283.35 751.05 1269.1 739.75 1253.9 730.0 1238.65 720.2 1222.45 711.85 L1258.65 673.55 Q1316.5 611.5 1369.35 550.9 1538.65 356.9 1595.35 250.15 1576.5 267.85 1546.95 297.35 1487.85 356.45 1434.35 415.5 1272.9 593.7 1217.85 709.5 1209.4 705.3 1200.7 701.55 L1196.9 699.9 Q1180.25 692.85 1163.3 687.55 1197.8 620.9 1245.75 445.0 1277.8 327.6 1301.8 218.15 1263.25 265.85 1229.5 355.1 1202.45 426.45 1179.7 521.05 1163.4 588.65 1150.9 661.0 L1147.25 682.9 Q1133.55 679.2 1119.6 676.65 1106.05 674.15 1092.3 672.65 1104.35 640.4 1108.3 593.8 1109.4 580.85 1109.8 569.1 1111.9 555.85 1113.6 542.6 1123.4 465.8 1117.85 399.2 1110.95 315.9 1080.4 253.35 1077.15 268.45 1073.1 294.2 1065.0 345.7 1060.95 399.05 1057.3 446.6 1057.2 490.65 1048.35 412.7 1024.2 362.25 1025.55 437.0 1030.2 517.05 1036.35 622.8 1045.75 670.4 L1023.25 671.3 933.45 132.7 1023.25 671.3 Q992.85 673.4 963.6 680.35 L955.55 682.35 938.4 621.8 Q911.55 529.75 886.1 453.0 804.7 207.45 768.0 207.45 774.35 231.8 785.25 269.9 807.1 346.15 830.05 414.95 896.1 613.05 948.6 684.25 927.05 690.3 906.15 699.0 L904.55 691.7 Q901.05 676.45 896.35 659.55 881.4 605.4 860.2 554.35 830.5 482.85 792.6 427.8 769.7 394.55 744.45 368.3 717.35 340.1 687.55 319.9 692.25 334.6 701.55 358.95 720.15 407.7 743.15 456.0 815.4 607.75 903.7 700.0 877.8 711.0 854.2 725.45 844.9 731.1 836.05 737.3 L831.05 727.75 Q807.7 684.05 776.0 639.8 731.65 577.95 676.9 523.9 608.55 456.35 527.8 404.95 591.85 487.7 663.9 573.75 774.3 705.65 823.65 746.3 805.2 760.25 788.35 776.65 775.5 762.85 762.25 749.9 705.45 694.4 662.5 675.7 683.9 707.35 713.05 738.9 747.0 775.6 774.45 790.85 759.9 806.5 747.35 823.5 706.2 796.2 657.9 765.95 536.45 689.9 479.75 666.5 490.1 676.2 507.5 690.95 542.4 720.5 577.85 745.9 672.25 813.65 741.25 832.0 722.6 858.75 708.8 888.7 L707.1 892.35 Q667.2 878.95 621.8 868.65 475.3 835.35 327.6 845.4 L360.1 854.1 Q401.95 864.55 448.5 873.45 578.6 898.25 702.5 903.0 697.5 915.1 693.35 927.45 626.5 921.7 559.8 920.05 340.95 914.7 207.5 954.75 L267.8 958.15 Q342.4 961.7 413.65 962.1 583.1 963.1 687.45 946.8 679.05 977.25 675.95 1008.9 674.7 1021.65 674.3 1034.7 L591.85 1038.15 Q453.05 1047.5 399.65 1077.55 L436.2 1073.85 523.8 1064.2 Q616.65 1053.25 674.15 1043.55 L674.1 1046.65 674.15 1051.4 Q643.3 1052.05 610.25 1055.05 460.65 1068.7 323.25 1123.9 L356.85 1122.1 Q399.9 1119.15 446.95 1113.2 565.75 1098.15 674.75 1069.1 675.45 1081.45 676.95 1093.65 679.8 1116.4 685.35 1138.55 L670.75 1141.65 Q603.05 1156.5 537.15 1176.95 444.85 1205.55 369.5 1241.25 275.25 1285.85 212.85 1339.05 L274.9 1318.55 Q350.9 1292.85 421.05 1267.0 602.15 1200.2 689.2 1152.55 695.2 1173.1 703.7 1193.1 707.15 1201.25 710.95 1209.25 715.85 1219.45 721.35 1229.35 690.9 1243.5 661.25 1261.0 559.85 1321.1 506.45 1397.8 L725.15 1236.1 Q738.2 1258.5 754.3 1278.9 710.7 1316.6 661.25 1363.1 527.8 1488.55 474.4 1568.6 L516.75 1529.15 Q568.05 1481.05 613.2 1437.15 716.8 1336.4 759.75 1285.7 771.3 1299.7 784.35 1312.75 794.3 1322.7 804.85 1331.8 796.65 1342.2 786.5 1355.55 750.85 1402.4 719.95 1447.85 621.2 1593.3 607.85 1670.0 L639.65 1623.2 Q677.85 1566.3 709.95 1515.9 792.55 1386.1 810.9 1336.95 818.75 1343.45 826.9 1349.5 800.65 1387.2 770.15 1438.3 690.0 1572.6 653.45 1687.85 L659.65 1680.65 Q667.65 1671.15 676.5 1659.85 704.7 1623.75 730.7 1583.15 804.3 1468.0 835.7 1355.8 842.95 1360.85 850.45 1365.55 L842.55 1383.7 Q810.2 1458.95 782.65 1531.9 694.6 1765.45 687.9 1888.9 L713.25 1832.75 Q743.95 1762.5 770.65 1692.05 841.85 1504.05 862.95 1373.1 880.05 1382.9 898.3 1390.95 L903.95 1393.4 Q917.9 1399.3 932.15 1404.05 922.25 1493.75 914.1 1594.65 896.75 1809.5 906.8 1872.85 L914.7 1809.05 Q923.9 1731.45 930.15 1662.65 947.95 1466.7 936.7 1405.5 961.65 1413.45 987.45 1417.8 981.3 1496.95 977.4 1588.1 974.3 1661.1 973.9 1722.95 972.8 1879.05 988.85 1964.15 L997.15 1897.05 Q1006.4 1814.0 1011.25 1734.4 1023.2 1539.4 1006.1 1420.4 L1026.2 1422.2 1027.45 1443.0 Q1032.65 1525.4 1042.25 1604.65 1061.35 1762.55 1093.15 1871.3 L1093.6 1863.05 1093.9 1873.75 Q1112.85 1938.0 1136.3 1984.95 L1124.8 1903.4 Q1110.45 1804.4 1096.25 1716.7 1062.75 1509.65 1039.4 1422.8 L1050.4 1422.95 1064.95 1422.7 1093.8 1420.55 Q1096.25 1434.0 1099.6 1449.2 1116.95 1527.9 1146.95 1584.6 L1143.8 1559.65 Q1139.45 1529.15 1133.6 1501.2 1122.95 1450.1 1109.65 1418.4 1123.75 1416.15 1137.6 1412.9 1154.2 1408.9 1170.45 1403.45 1181.3 1454.6 1197.7 1515.9 1243.1 1685.35 1296.45 1782.1 L1282.35 1726.05 Q1264.85 1658.0 1247.75 1597.95 1208.15 1458.9 1181.5 1399.55 L1196.9 1393.4 Q1205.3 1389.85 1213.5 1385.95 L1214.85 1397.85 Q1221.65 1453.6 1235.15 1507.25 1254.0 1582.3 1283.35 1642.35 1320.1 1717.4 1371.35 1764.55 L1369.4 1753.75 Q1366.75 1739.75 1363.25 1723.85 1352.05 1672.95 1336.4 1621.75 1303.45 1513.85 1259.4 1431.45 1254.75 1393.05 1239.7 1372.0 1256.75 1362.05 1272.7 1350.4 1288.95 1407.6 1308.45 1472.5 1364.5 1659.35 1397.85 1739.4 L1382.15 1676.25 Q1362.85 1600.0 1344.5 1534.55 1307.0 1400.8 1282.55 1342.9 1290.4 1336.75 1297.95 1330.15 1324.85 1418.65 1406.55 1569.3 1441.15 1633.1 1481.7 1700.65 1501.95 1734.45 1515.3 1755.45 1491.75 1647.8 1386.3 1449.2 1351.85 1384.35 1316.1 1323.85 L1312.1 1317.1 1316.5 1312.75 Q1332.15 1297.05 1345.7 1280.0 1369.35 1311.1 1413.85 1352.5 1431.75 1373.55 1450.8 1393.35 1504.5 1449.1 1559.9 1486.55 1629.1 1533.4 1697.0 1548.8 1687.3 1536.85 1669.75 1517.55 1634.7 1478.95 1595.65 1442.3 1569.8 1418.05 1544.25 1396.5 1450.9 1317.85 1361.55 1275.6 L1353.3 1270.1 Q1371.95 1244.9 1386.2 1216.8 L1568.65 1333.75 Q1528.6 1267.05 1440.55 1227.0 1416.1 1215.9 1390.45 1208.05 L1397.15 1193.1 Q1406.15 1171.85 1412.4 1150.0 1468.8 1179.0 1600.7 1220.35 1690.1 1248.35 1771.5 1269.7 1684.75 1196.3 1524.65 1156.25 1474.6 1143.75 1423.2 1136.05 L1416.35 1135.05 Q1423.65 1104.65 1425.8 1073.05 L1707.45 1125.55 Q1650.75 1088.85 1515.95 1074.2 1473.85 1069.6 1428.95 1067.75 L1426.15 1067.7 Q1426.7 1057.25 1426.7 1046.65 1426.7 1033.9 1425.9 1021.3 1424.15 995.1 1418.9 969.7 L1636.6 963.3 Q1533.95 987.25 1440.0 1022.2 L1436.65 1023.45 1445.25 1023.5 1457.2 1023.3 1469.65 1022.8 Q1511.95 1020.75 1558.4 1013.75 1666.75 997.5 1767.4 959.45 L1926.3 954.75 Q1877.4 942.3 1825.05 935.55 L1840.85 928.25 Q1822.65 929.8 1800.65 932.75 1764.3 929.0 1726.35 927.95 1641.3 925.65 1552.0 936.75 1488.15 944.65 1428.65 958.5 L1417.05 961.25 Q1412.65 942.45 1406.35 924.05 1402.15 912.0 1397.15 900.15 L1393.1 890.9 1389.2 882.6 1396.65 880.2 Q1407.25 876.65 1419.65 871.95 1459.3 856.95 1501.25 835.95 1635.6 768.8 1743.45 667.35 1698.85 686.1 1632.15 722.35 1499.1 794.75 1389.05 882.35 1383.3 870.4 1376.75 859.05 L1477.9 810.65 Q1441.2 810.65 1394.5 840.0 1384.0 846.6 1373.9 854.2 1361.9 834.05 1347.5 815.6 1412.15 789.3 1562.0 702.55 1663.45 643.85 1755.5 586.45 1615.35 613.15 1449.9 722.55 1398.2 756.75 1350.15 795.1 L1338.55 804.55 Q1328.1 792.15 1316.5 780.55 L1315.55 779.6 1323.7 774.2 Q1362.45 747.65 1401.1 717.65 1524.7 621.75 1600.7 527.75 L1600.45 527.9 M1910.25 730.55 Q1926.05 725.3 1393.1 890.9 1926.05 725.3 1910.25 730.55 M2022.8 762.75 L2058.65 764.75 Q2054.2 748.8 2048.65 731.25 2019.65 751.35 1986.5 762.85 2009.65 762.5 2022.8 762.75 M1964.9 718.9 Q2007.8 714.6 2043.25 714.65 2035.9 692.8 2027.1 670.2 2017.0 683.25 1998.15 697.1 1987.55 704.85 1964.9 718.9 M1370.45 258.5 Q1347.05 299.45 1323.95 351.25 1336.4 333.9 1348.5 309.7 1360.45 285.8 1370.45 258.5 M1568.65 383.6 Q1483.25 475.7 1399.2 567.75 1289.05 688.4 1253.9 730.0 1289.05 688.4 1399.2 567.75 1483.25 475.7 1568.65 383.6 M1970.5 663.75 Q1952.35 667.0 1928.3 673.85 1921.6 675.75 1885.95 686.7 1832.6 703.0 1803.1 705.45 1825.15 704.4 1873.9 693.05 1930.1 679.95 1970.5 663.75 M2009.1 852.7 L1943.25 855.75 1884.75 858.65 Q1908.7 860.35 1941.35 858.8 1974.85 857.25 2009.1 852.7 2052.45 852.45 2080.7 860.2 L2076.85 840.15 Q2045.9 847.8 2009.1 852.7 M2006.55 1132.1 Q1983.4 1131.35 1945.6 1131.15 L1884.6 1130.65 Q1905.5 1138.7 1938.85 1138.65 1969.05 1138.65 2006.55 1132.1 2055.1 1133.75 2093.7 1139.65 L2095.9 1109.35 Q2050.95 1124.4 2006.55 1132.1 M1814.2 869.35 L1406.35 924.05 1814.2 869.35 M1440.0 1022.2 L1425.9 1021.3 1440.0 1022.2 M1707.45 1504.55 L1544.25 1396.5 1707.45 1504.55 M1534.95 1234.4 Q1547.25 1244.05 1561.5 1254.25 1607.25 1286.9 1655.9 1313.2 1723.95 1350.05 1788.1 1368.95 1868.25 1392.55 1937.6 1386.65 1924.7 1378.2 1902.15 1365.1 1857.05 1339.0 1808.75 1315.9 1654.15 1242.15 1525.5 1226.85 L1534.95 1234.4 M1248.4 1931.55 L1137.6 1412.9 1248.4 1931.55 M1929.6 1285.85 Q1984.9 1298.3 2064.5 1311.55 2068.5 1295.95 2072.0 1280.2 2042.3 1278.1 2004.35 1273.3 L1936.7 1264.05 Q1849.35 1251.65 1803.65 1249.4 1854.8 1269.0 1929.6 1285.85 M1943.65 1453.5 L1978.8 1457.45 Q1998.65 1460.05 2012.45 1463.5 L2018.35 1449.45 1948.95 1443.35 Q1907.2 1439.7 1879.15 1440.25 1899.75 1448.6 1943.65 1453.5 M1802.7 1494.05 Q1772.55 1484.7 1746.05 1482.65 L1794.4 1504.05 Q1827.7 1519.1 1852.15 1532.05 1922.35 1569.1 1941.65 1599.4 1954.05 1579.4 1966.85 1556.35 1942.65 1550.3 1911.5 1537.75 L1857.3 1514.7 Q1824.9 1500.95 1802.7 1494.05 M1805.35 1455.2 Q1770.25 1448.9 1741.55 1450.8 1756.35 1457.6 1795.7 1476.3 1831.65 1493.4 1852.8 1502.95 1921.3 1533.95 1971.1 1548.7 1984.85 1523.5 1997.9 1495.65 1969.35 1495.1 1933.25 1487.15 1915.7 1483.3 1869.15 1470.5 1828.85 1459.45 1805.35 1455.2 M2066.15 793.0 Q2049.1 801.35 2009.05 806.5 L1980.0 810.2 Q1965.2 812.3 1958.35 814.75 L2014.75 816.65 Q2033.65 816.5 2071.55 815.5 L2066.15 793.0 M1996.9 939.0 L2043.8 941.0 2092.2 941.2 2089.5 918.0 Q2074.6 926.7 2043.85 931.55 L2019.1 935.05 Q2004.85 937.1 1996.9 939.0 M2012.4 986.65 L1964.75 989.9 1930.95 992.05 Q1970.25 991.9 2012.4 986.65 2038.9 985.4 2057.95 987.1 2081.15 989.15 2096.3 995.7 L2094.8 971.2 Q2055.95 981.25 2012.4 986.65 M2087.6 903.6 L2084.95 885.45 Q2070.6 891.65 2051.5 894.35 2035.0 896.7 2018.15 896.05 2027.45 897.55 2053.1 899.3 2075.55 900.8 2087.6 903.6 M2096.6 1003.1 Q2066.45 1006.9 2023.75 1019.1 L2059.85 1017.6 Q2082.75 1016.5 2097.15 1017.0 L2096.6 1003.1 M2097.5 1061.95 Q2073.25 1067.45 2033.85 1067.45 2056.15 1068.55 2097.35 1072.75 L2097.5 1061.95 M2092.8 1149.9 Q2083.3 1148.3 2074.05 1148.9 2064.4 1149.5 2056.05 1152.5 2076.1 1154.3 2092.7 1150.55 L2092.8 1149.9 M2080.6 1237.95 Q2068.15 1237.8 2050.25 1235.15 L2018.6 1229.75 Q1999.55 1226.4 1988.8 1225.35 1973.6 1223.9 1963.9 1225.65 1987.0 1233.3 2018.9 1241.85 L2077.0 1256.65 2080.6 1237.95 M1985.75 1367.1 Q1989.6 1368.05 2010.05 1370.05 2033.15 1372.25 2046.05 1374.45 L2052.6 1353.8 Q2038.9 1357.3 2016.2 1361.35 1991.55 1365.75 1985.75 1367.1 M2031.35 1416.5 L2004.45 1414.95 1983.85 1413.85 Q1988.6 1415.35 2003.2 1417.75 2020.5 1420.55 2029.05 1422.5 L2031.35 1416.5 M1969.0 1056.15 L1457.2 1023.3 1969.0 1056.15 M1062.3 594.7 Q1066.55 634.65 1074.4 671.1 L1059.25 670.45 1059.5 667.8 Q1062.15 630.85 1062.3 594.7 M1195.0 234.15 L1119.6 676.65 1195.0 234.15 M805.6 93.45 Q805.5 81.7 803.55 61.35 801.35 38.95 801.0 29.6 638.1 69.05 495.45 157.85 355.25 245.05 248.35 371.25 258.3 375.55 270.5 375.7 L291.9 374.2 Q305.2 372.85 313.15 373.85 324.9 375.25 334.8 381.75 333.55 370.95 327.8 350.7 321.6 329.1 320.3 320.6 338.5 311.35 365.1 320.55 386.15 327.85 415.65 348.2 424.55 354.3 465.1 385.0 492.85 406.0 506.4 412.4 472.05 393.65 439.4 356.4 408.35 320.95 390.85 283.0 L416.0 282.55 Q429.8 282.95 440.5 287.0 434.35 279.25 431.55 266.4 L429.5 255.8 Q428.3 249.55 427.05 245.65 441.35 245.4 455.8 252.55 467.5 258.3 480.2 269.45 475.9 259.6 466.0 239.15 457.35 220.6 453.5 207.9 476.6 217.3 499.75 236.6 517.45 251.35 540.0 276.3 565.25 305.15 577.85 319.0 599.8 343.15 616.9 356.85 587.05 306.55 569.2 264.55 543.55 204.25 544.6 165.55 567.6 162.05 584.65 165.95 604.85 170.5 617.55 185.55 615.7 175.3 610.45 154.4 604.95 132.55 603.05 122.6 617.75 124.8 631.6 135.1 642.0 142.75 655.05 157.75 655.85 144.65 655.95 119.2 656.1 92.65 656.7 80.45 674.3 95.6 688.8 117.4 699.4 133.4 711.8 158.85 725.1 187.15 732.15 200.8 744.2 224.05 756.2 239.15 753.3 222.3 745.45 199.35 740.9 186.0 730.9 159.05 722.3 134.95 718.5 118.05 713.45 95.4 714.25 75.9 735.05 95.3 752.25 120.4 751.8 96.9 751.85 84.1 751.85 63.95 752.8 48.0 769.4 49.3 783.85 63.6 794.1 73.7 805.6 93.45 M901.45 340.9 L963.6 680.35 901.45 340.9 M666.55 207.45 L744.45 368.3 666.55 207.45 M671.2 645.35 Q663.25 631.9 653.7 617.25 623.0 570.15 587.3 527.95 537.3 468.85 484.45 427.85 418.4 376.65 351.65 356.9 360.6 369.5 376.8 389.85 409.3 430.65 445.9 469.7 563.0 594.75 677.25 655.85 L671.2 645.35 M768.0 575.75 L854.2 725.45 768.0 575.75 M1472.6 218.15 L1200.7 701.55 1472.6 218.15 M308.5 488.55 Q293.95 469.05 272.7 444.2 L229.15 394.55 Q208.8 420.1 192.75 442.75 233.85 441.5 259.35 451.15 287.15 461.65 308.5 488.55 M235.05 569.0 Q249.1 572.85 267.85 579.9 L300.9 592.9 Q342.2 609.4 363.1 613.1 345.7 604.9 320.4 588.65 291.65 570.25 265.8 549.6 198.2 495.65 184.35 454.9 111.95 560.05 67.1 679.1 21.1 801.1 6.55 931.15 36.3 915.9 81.6 905.2 116.4 896.95 142.05 894.85 131.2 891.95 112.85 891.6 91.35 891.75 80.6 891.55 61.75 891.25 50.15 888.4 35.05 884.65 26.5 875.7 45.1 870.45 85.1 867.35 L114.05 864.75 Q129.45 862.9 139.8 859.85 111.8 858.4 81.55 849.4 51.4 840.4 27.35 826.4 L109.55 827.6 Q156.7 827.8 191.45 825.45 177.45 819.55 155.2 814.4 L115.15 806.0 Q91.0 800.9 75.75 795.65 55.2 788.65 41.4 778.75 58.7 755.7 89.85 748.15 115.5 741.9 153.35 745.8 176.15 748.15 220.75 757.05 263.7 765.6 281.0 767.1 265.45 750.55 241.75 734.05 225.75 722.9 196.5 705.7 162.15 685.45 150.15 677.75 124.75 661.35 107.7 645.95 153.75 647.7 205.65 659.0 255.35 669.8 300.75 687.2 269.4 667.1 216.0 644.45 L171.8 626.0 Q145.85 615.05 128.0 606.45 144.9 573.35 174.45 565.45 198.6 558.95 235.05 569.0 M1.8 1110.25 Q13.5 1104.55 20.3 1099.95 L1.15 1099.05 1.8 1110.25 M88.85 1200.35 Q39.3 1214.5 13.6 1217.85 16.65 1236.8 19.85 1252.8 62.65 1223.6 85.45 1211.15 123.15 1190.65 157.15 1183.9 143.9 1185.55 124.75 1190.4 114.55 1193.0 88.85 1200.35 M26.3 1283.45 L27.55 1288.85 Q46.9 1279.6 62.4 1274.35 43.45 1279.6 26.3 1283.45 M39.9 1336.6 L41.35 1341.35 46.8 1334.3 39.9 1336.6 M86.6 1466.8 L96.2 1488.15 Q150.1 1456.45 195.3 1440.4 171.95 1441.65 141.05 1450.1 134.4 1451.9 86.6 1466.8 M66.75 1417.85 Q79.45 1410.3 88.55 1403.95 78.05 1405.6 63.6 1409.5 L66.75 1417.85 M539.65 1387.8 Q513.75 1397.95 461.6 1413.75 406.8 1430.35 383.25 1439.15 366.7 1445.35 338.1 1459.1 301.2 1476.85 290.6 1481.5 263.15 1493.6 242.0 1499.25 215.75 1506.3 193.7 1505.2 206.0 1496.15 222.6 1487.55 233.35 1482.05 253.35 1473.2 275.05 1463.6 284.25 1459.0 301.3 1450.6 313.8 1442.0 261.35 1468.75 222.1 1485.95 160.55 1512.95 114.05 1525.05 131.75 1559.7 152.45 1593.8 232.95 1536.9 340.05 1481.35 425.0 1437.35 539.65 1387.8 555.55 1381.6 567.6 1375.8 L539.65 1387.8 M282.25 1419.15 L357.4 1381.05 Q447.75 1335.45 523.1 1298.4 649.8 1236.1 710.95 1209.25 649.8 1236.1 523.1 1298.4 447.75 1335.45 357.4 1381.05 L282.25 1419.15 M281.05 1562.85 Q215.0 1589.55 159.8 1605.6 200.1 1669.7 249.25 1727.65 262.05 1705.9 288.15 1679.2 302.75 1664.25 329.3 1639.5 308.95 1649.6 284.45 1659.1 262.3 1667.75 239.75 1674.75 265.1 1629.95 309.85 1585.05 350.3 1544.5 398.4 1511.8 329.8 1543.2 281.05 1562.85 M218.2 698.55 Q366.05 736.35 556.5 818.0 623.55 846.7 678.35 873.45 696.8 882.45 708.8 888.7 696.8 882.45 678.35 873.45 623.55 846.7 556.5 818.0 366.05 736.35 218.2 698.55 M260.9 1050.85 L675.95 1008.9 260.9 1050.85 M207.5 1210.95 L676.95 1093.65 207.5 1210.95 M854.15 1974.15 Q847.2 2039.45 831.3 2075.1 L863.7 2081.45 Q856.3 2042.7 859.3 1977.15 L862.3 1924.0 Q864.1 1893.0 864.05 1874.3 861.5 1890.8 858.85 1921.55 L854.15 1974.15 M912.45 2018.65 L907.35 2041.95 Q900.55 2070.85 891.65 2086.0 L929.2 2090.9 Q920.25 2071.15 917.9 2045.25 916.25 2026.95 917.7 1997.7 915.4 2005.25 912.45 2018.65 M766.8 2059.3 L793.9 2066.45 Q792.4 2049.8 793.45 2018.2 794.5 1984.95 793.6 1971.3 782.1 1987.05 775.6 2012.55 772.9 2023.1 766.8 2059.3 M690.65 2034.95 L688.3 2029.05 685.6 2033.1 690.65 2034.95 M741.55 2051.95 Q744.25 2003.55 757.15 1962.35 748.7 1986.8 741.6 2004.8 732.6 2027.6 723.5 2046.2 L741.55 2051.95 M1253.7 2077.65 Q1276.15 2073.25 1300.0 2067.4 1291.25 2049.95 1280.3 2036.05 1268.3 2020.8 1254.55 2011.0 1253.8 2025.0 1253.7 2044.25 L1253.7 2077.65 M1191.5 2028.6 Q1183.15 2002.2 1178.9 1975.6 1179.2 2025.15 1176.15 2090.0 L1217.0 2084.25 Q1202.45 2063.05 1191.5 2028.6 M960.15 1990.3 L973.9 1722.95 960.15 1990.3 M385.2 1745.9 L364.0 1765.25 Q337.1 1789.4 318.3 1801.4 341.75 1824.15 364.25 1843.5 397.6 1778.2 448.05 1717.25 494.1 1661.6 548.1 1616.95 L478.8 1670.35 Q432.15 1706.05 404.9 1728.6 397.35 1734.85 385.2 1745.9 M406.9 1878.35 L429.15 1895.1 Q435.7 1878.9 445.2 1860.2 452.45 1846.0 463.6 1826.2 450.0 1834.4 434.3 1849.6 426.45 1857.2 406.9 1878.35 M456.4 1914.45 Q472.15 1925.25 487.45 1934.95 490.65 1916.6 497.4 1895.1 502.8 1878.05 511.2 1856.75 506.9 1861.05 485.45 1885.05 468.4 1904.2 456.4 1914.45 M498.05 1941.6 Q518.35 1954.15 539.65 1965.95 541.0 1939.35 551.75 1906.3 560.2 1880.3 576.0 1846.2 558.35 1880.1 541.5 1902.0 520.4 1929.4 498.05 1941.6 M314.75 1750.7 L334.0 1724.0 Q321.1 1727.15 305.5 1739.5 288.2 1754.55 279.2 1761.35 L295.95 1779.0 Q303.25 1766.85 314.75 1750.7 M626.85 2009.3 Q625.4 2002.05 623.85 1997.4 L619.9 2006.25 626.85 2009.3 M1941.35 1599.85 Q1919.85 1601.9 1878.8 1598.6 1834.95 1595.1 1815.6 1596.1 L1841.15 1604.35 Q1858.05 1609.75 1868.65 1614.2 1900.5 1627.6 1910.6 1646.7 1926.3 1624.15 1941.35 1599.85 M1849.45 1675.55 Q1866.1 1684.85 1876.65 1692.9 1889.15 1676.85 1902.05 1658.9 L1861.9 1659.1 1821.9 1660.45 Q1830.65 1665.4 1849.45 1675.55 M1833.4 1704.05 L1808.3 1692.0 Q1777.8 1677.6 1756.75 1674.9 L1778.6 1689.25 Q1792.55 1698.35 1800.75 1704.5 1825.6 1723.3 1834.8 1743.25 1848.6 1727.6 1859.05 1714.9 1848.15 1711.0 1833.4 1704.05 M1673.85 1634.7 Q1645.0 1611.85 1618.35 1606.7 1663.55 1659.85 1694.5 1709.15 1730.4 1766.45 1750.1 1823.15 1723.45 1828.5 1690.0 1804.8 1662.85 1785.55 1643.45 1757.85 1664.2 1788.85 1677.5 1810.4 1695.25 1839.15 1708.25 1864.45 1775.9 1809.7 1833.9 1744.3 1804.3 1744.05 1774.55 1724.7 1754.55 1711.7 1723.6 1681.1 L1699.0 1656.9 Q1684.95 1643.45 1673.85 1634.7 M1645.5 1870.55 Q1649.7 1877.1 1665.45 1897.3 1679.9 1886.75 1692.4 1877.0 1682.2 1872.45 1662.95 1858.7 1643.95 1845.15 1632.75 1840.3 1635.45 1854.85 1645.5 1870.55 M1625.45 1886.75 Q1606.15 1872.75 1595.8 1867.55 1594.95 1881.95 1601.25 1900.95 1609.45 1922.3 1612.75 1933.35 1634.15 1919.7 1654.4 1905.3 1644.35 1900.45 1625.45 1886.75 M1403.75 1714.0 Q1406.95 1742.25 1421.25 1779.45 1426.3 1792.7 1434.75 1812.1 L1449.0 1844.9 Q1466.0 1884.55 1472.55 1910.95 1481.6 1947.35 1477.25 1978.2 1458.5 1963.35 1439.85 1937.3 1432.8 1927.45 1409.4 1890.25 1408.3 1905.15 1412.8 1923.2 1415.25 1933.1 1423.0 1955.3 1430.2 1975.9 1432.7 1987.35 1436.5 2005.25 1434.4 2020.3 1406.3 2014.6 1387.95 1991.8 L1387.8 2017.5 Q1387.45 2032.6 1385.3 2042.6 1474.05 2012.5 1556.2 1966.95 1535.25 1942.6 1515.05 1906.75 1503.8 1886.75 1481.2 1840.4 1459.85 1796.6 1446.7 1774.1 1426.0 1738.5 1403.75 1714.0 M1561.45 1886.35 Q1553.55 1875.55 1547.75 1868.65 1550.0 1885.5 1556.0 1914.85 1563.05 1949.5 1565.15 1961.95 1584.3 1951.15 1604.45 1938.5 1591.45 1927.15 1574.9 1904.8 L1561.45 1886.35 M1310.2 2064.9 Q1338.5 2057.65 1369.1 2047.85 1356.15 2040.85 1342.15 2028.9 1331.35 2019.75 1318.85 2006.65 1315.35 2017.6 1313.65 2036.0 1311.65 2057.95 1310.2 2064.9 M805.35 1899.55 L898.3 1390.95 805.35 1899.55 M1136.3 1803.45 L1064.95 1422.7 1136.3 1803.45" fill="#ffffff" fill-opacity="0.0" fill-rule="evenodd" stroke="none"/>
    <path d="M1333.55 39.1 L1326.25 37.15 1323.25 36.35 1333.55 39.1 M1353.3 1270.1 L1361.55 1275.6 1356.5 1273.2 1352.9 1270.6 1353.3 1270.1" fill="#e1e2e3" fill-rule="evenodd" stroke="none"/>
    <path d="M1591.5 532.6 L1581.95 542.35 Q1590.7 534.95 1600.45 527.9 L1600.7 527.75 Q1524.7 621.75 1401.1 717.65 1362.45 747.65 1323.7 774.2 L1315.55 779.6 1308.45 772.75 Q1378.85 678.45 1490.65 597.15 1529.6 568.75 1569.05 545.4 1581.9 537.8 1591.5 532.6 M1389.05 882.35 Q1499.1 794.75 1632.15 722.35 1698.85 686.1 1743.45 667.35 1635.6 768.8 1501.25 835.95 1459.3 856.95 1419.65 871.95 1407.25 876.65 1396.65 880.2 L1389.2 882.6 1389.05 882.35 M1217.85 709.5 Q1272.9 593.7 1434.35 415.5 1487.85 356.45 1546.95 297.35 1576.5 267.85 1595.35 250.15 1538.65 356.9 1369.35 550.9 1316.5 611.5 1258.65 673.55 L1222.45 711.85 1217.85 709.5 M1800.65 932.75 Q1822.65 929.8 1840.85 928.25 L1825.05 935.55 Q1796.55 948.4 1767.4 959.45 1666.75 997.5 1558.4 1013.75 1511.95 1020.75 1469.65 1022.8 L1457.2 1023.3 1445.25 1023.5 1436.65 1023.45 1440.0 1022.2 Q1533.95 987.25 1636.6 963.3 1676.65 953.9 1718.0 946.2 1764.45 937.55 1800.65 932.75 M1361.55 1275.6 Q1450.9 1317.85 1544.25 1396.5 1569.8 1418.05 1595.65 1442.3 1634.7 1478.95 1669.75 1517.55 1687.3 1536.85 1697.0 1548.8 1629.1 1533.4 1559.9 1486.55 1504.5 1449.1 1450.8 1393.35 1431.75 1373.55 1413.85 1352.5 1395.75 1331.15 1378.8 1308.5 1368.3 1294.5 1359.5 1281.55 L1352.8 1271.5 1356.5 1273.2 1361.55 1275.6 M1534.95 1234.4 L1525.5 1226.85 Q1654.15 1242.15 1808.75 1315.9 1857.05 1339.0 1902.15 1365.1 1924.7 1378.2 1937.6 1386.65 1868.25 1392.55 1788.1 1368.95 1723.95 1350.05 1655.9 1313.2 1607.25 1286.9 1561.5 1254.25 1547.25 1244.05 1534.95 1234.4 M1259.4 1431.45 Q1303.45 1513.85 1336.4 1621.75 1352.05 1672.95 1363.25 1723.85 1366.75 1739.75 1369.4 1753.75 L1371.35 1764.55 Q1320.1 1717.4 1283.35 1642.35 1254.0 1582.3 1235.15 1507.25 1221.65 1453.6 1214.85 1397.85 L1213.5 1385.95 1225.1 1380.1 Q1226.5 1388.25 1228.4 1397.8 1239.05 1451.2 1259.05 1504.55 L1260.7 1485.7 Q1262.05 1462.7 1260.4 1441.85 L1259.4 1431.45 M1057.2 490.65 Q1057.3 446.6 1060.95 399.05 1065.0 345.7 1073.1 294.2 1077.15 268.45 1080.4 253.35 1110.95 315.9 1117.85 399.2 1123.4 465.8 1113.6 542.6 1111.9 555.85 1109.8 569.1 1103.25 610.6 1092.65 651.9 L1087.2 672.1 1074.4 671.1 Q1066.55 634.65 1062.3 594.7 1057.05 545.4 1057.2 490.65 M903.7 700.0 Q815.4 607.75 743.15 456.0 720.15 407.7 701.55 358.95 692.25 334.6 687.55 319.9 717.35 340.1 744.45 368.3 L904.85 699.55 744.45 368.3 Q769.7 394.55 792.6 427.8 830.5 482.85 860.2 554.35 881.4 605.4 896.35 659.55 901.05 676.45 904.55 691.7 L906.15 699.0 904.85 699.55 903.95 699.9 903.7 700.0 M671.2 645.35 L677.25 655.85 Q563.0 594.75 445.9 469.7 409.3 430.65 376.8 389.85 360.6 369.5 351.65 356.9 418.4 376.65 484.45 427.85 537.3 468.85 587.3 527.95 623.0 570.15 653.7 617.25 663.25 631.9 671.2 645.35 M707.1 892.35 L703.7 900.15 702.5 903.0 Q578.6 898.25 448.5 873.45 401.95 864.55 360.1 854.1 L327.6 845.4 Q475.3 835.35 621.8 868.65 667.2 878.95 707.1 892.35 M674.15 1051.4 Q674.25 1060.3 674.75 1069.1 565.75 1098.15 446.95 1113.2 399.9 1119.15 356.85 1122.1 L323.25 1123.9 Q460.65 1068.7 610.25 1055.05 643.3 1052.05 674.15 1051.4 M826.9 1349.5 L835.7 1355.8 Q804.3 1468.0 730.7 1583.15 704.7 1623.75 676.5 1659.85 667.65 1671.15 659.65 1680.65 L653.45 1687.85 Q690.0 1572.6 770.15 1438.3 800.65 1387.2 826.9 1349.5 M987.45 1417.8 L1006.1 1420.4 Q1023.2 1539.4 1011.25 1734.4 1006.4 1814.0 997.15 1897.05 L988.85 1964.15 Q972.8 1879.05 973.9 1722.95 974.3 1661.1 977.4 1588.1 981.3 1496.95 987.45 1417.8" fill="#000000" fill-opacity="0.14901961" fill-rule="evenodd" stroke="none"/>
    <path d="M1338.55 804.55 L1350.15 795.1 Q1398.2 756.75 1449.9 722.55 1615.35 613.15 1755.5 586.45 1663.45 643.85 1562.0 702.55 1412.15 789.3 1347.5 815.6 L1338.55 804.55 M1373.9 854.2 Q1384.0 846.6 1394.5 840.0 1441.2 810.65 1477.9 810.65 L1376.75 859.05 1373.9 854.2 M1283.35 751.05 Q1294.8 737.2 1309.6 721.4 1376.05 650.5 1440.55 613.15 1411.2 643.85 1374.5 679.85 1324.15 729.25 1291.1 757.35 L1283.35 751.05 M1800.65 932.75 Q1764.45 937.55 1718.0 946.2 1676.65 953.9 1636.6 963.3 L1418.9 969.7 1417.05 961.25 1428.65 958.5 Q1488.15 944.65 1552.0 936.75 1641.3 925.65 1726.35 927.95 1764.3 929.0 1800.65 932.75 M1767.4 959.45 Q1796.55 948.4 1825.05 935.55 1877.4 942.3 1926.3 954.75 L1767.4 959.45 M1426.15 1067.7 L1428.95 1067.75 Q1473.85 1069.6 1515.95 1074.2 1650.75 1088.85 1707.45 1125.55 L1425.8 1073.05 1426.15 1067.7 M1416.35 1135.05 L1423.2 1136.05 Q1474.6 1143.75 1524.65 1156.25 1684.75 1196.3 1771.5 1269.7 1690.1 1248.35 1600.7 1220.35 1468.8 1179.0 1412.4 1150.0 L1416.35 1135.05 M1390.45 1208.05 Q1416.1 1215.9 1440.55 1227.0 1528.6 1267.05 1568.65 1333.75 L1386.2 1216.8 1390.45 1208.05 M1356.5 1273.2 L1352.8 1271.5 1359.5 1281.55 Q1368.3 1294.5 1378.8 1308.5 1395.75 1331.15 1413.85 1352.5 1369.35 1311.1 1345.7 1280.0 L1352.9 1270.6 1356.5 1273.2 M1312.1 1317.1 L1316.1 1323.85 Q1351.85 1384.35 1386.3 1449.2 1491.75 1647.8 1515.3 1755.45 1501.95 1734.45 1481.7 1700.65 1441.15 1633.1 1406.55 1569.3 1324.85 1418.65 1297.95 1330.15 L1312.1 1317.1 M1282.55 1342.9 Q1307.0 1400.8 1344.5 1534.55 1362.85 1600.0 1382.15 1676.25 L1397.85 1739.4 Q1364.5 1659.35 1308.45 1472.5 1288.95 1407.6 1272.7 1350.4 L1282.55 1342.9 M1239.7 1372.0 Q1254.75 1393.05 1259.4 1431.45 L1260.4 1441.85 Q1262.05 1462.7 1260.7 1485.7 L1259.05 1504.55 Q1239.05 1451.2 1228.4 1397.8 1226.5 1388.25 1225.1 1380.1 1232.5 1376.2 1239.7 1372.0 M1181.5 1399.55 Q1208.15 1458.9 1247.75 1597.95 1264.85 1658.0 1282.35 1726.05 L1296.45 1782.1 Q1243.1 1685.35 1197.7 1515.9 1181.3 1454.6 1170.45 1403.45 L1181.5 1399.55 M1057.2 490.65 Q1057.05 545.4 1062.3 594.7 1062.15 630.85 1059.5 667.8 L1059.25 670.45 1050.4 670.35 1045.75 670.4 Q1036.35 622.8 1030.2 517.05 1025.55 437.0 1024.2 362.25 1048.35 412.7 1057.2 490.65 M1087.2 672.1 L1092.65 651.9 Q1103.25 610.6 1109.8 569.1 1109.4 580.85 1108.3 593.8 1104.35 640.4 1092.3 672.65 L1087.2 672.1 M948.6 684.25 Q896.1 613.05 830.05 414.95 807.1 346.15 785.25 269.9 774.35 231.8 768.0 207.45 804.7 207.45 886.1 453.0 911.55 529.75 938.4 621.8 L955.55 682.35 948.6 684.25 M788.35 776.65 L784.35 780.55 774.45 790.85 Q747.0 775.6 713.05 738.9 683.9 707.35 662.5 675.7 705.45 694.4 762.25 749.9 775.5 762.85 788.35 776.65 M747.35 823.5 L741.25 832.0 Q672.25 813.65 577.85 745.9 542.4 720.5 507.5 690.95 490.1 676.2 479.75 666.5 536.45 689.9 657.9 765.95 706.2 796.2 747.35 823.5 M693.35 927.45 Q690.15 937.05 687.45 946.8 583.1 963.1 413.65 962.1 342.4 961.7 267.8 958.15 L207.5 954.75 Q340.95 914.7 559.8 920.05 626.5 921.7 693.35 927.45 M674.3 1034.7 Q674.15 1039.1 674.15 1043.55 616.65 1053.25 523.8 1064.2 L436.2 1073.85 399.65 1077.55 Q453.05 1047.5 591.85 1038.15 L674.3 1034.7 M685.35 1138.55 Q687.1 1145.55 689.2 1152.55 602.15 1200.2 421.05 1267.0 350.9 1292.85 274.9 1318.55 L212.85 1339.05 Q275.25 1285.85 369.5 1241.25 444.85 1205.55 537.15 1176.95 603.05 1156.5 670.75 1141.65 L685.35 1138.55 M721.35 1229.35 L725.15 1236.1 506.45 1397.8 Q559.85 1321.1 661.25 1261.0 690.9 1243.5 721.35 1229.35 M754.3 1278.9 L759.75 1285.7 Q716.8 1336.4 613.2 1437.15 568.05 1481.05 516.75 1529.15 L474.4 1568.6 Q527.8 1488.55 661.25 1363.1 710.7 1316.6 754.3 1278.9 M804.85 1331.8 L810.9 1336.95 Q792.55 1386.1 709.95 1515.9 677.85 1566.3 639.65 1623.2 L607.85 1670.0 Q621.2 1593.3 719.95 1447.85 750.85 1402.4 786.5 1355.55 796.65 1342.2 804.85 1331.8 M850.45 1365.55 L862.95 1373.1 Q841.85 1504.05 770.65 1692.05 743.95 1762.5 713.25 1832.75 L687.9 1888.9 Q694.6 1765.45 782.65 1531.9 810.2 1458.95 842.55 1383.7 L850.45 1365.55 M932.15 1404.05 L936.7 1405.5 Q947.95 1466.7 930.15 1662.65 923.9 1731.45 914.7 1809.05 L906.8 1872.85 Q896.75 1809.5 914.1 1594.65 922.25 1493.75 932.15 1404.05 M1026.2 1422.2 L1039.4 1422.8 Q1062.75 1509.65 1096.25 1716.7 1110.45 1804.4 1124.8 1903.4 L1136.3 1984.95 Q1112.85 1938.0 1093.9 1873.75 L1093.6 1863.05 1093.15 1871.3 Q1061.35 1762.55 1042.25 1604.65 1032.65 1525.4 1027.45 1443.0 L1026.2 1422.2 M1093.8 1420.55 L1109.65 1418.4 Q1122.95 1450.1 1133.6 1501.2 1139.45 1529.15 1143.8 1559.65 L1146.95 1584.6 Q1116.95 1527.9 1099.6 1449.2 1096.25 1434.0 1093.8 1420.55 M823.65 746.3 Q774.3 705.65 663.9 573.75 591.85 487.7 527.8 404.95 608.55 456.35 676.9 523.9 731.65 577.95 776.0 639.8 807.7 684.05 831.05 727.75 L836.05 737.3 823.65 746.3 M1147.25 682.9 L1150.9 661.0 Q1163.4 588.65 1179.7 521.05 1202.45 426.45 1229.5 355.1 1263.25 265.85 1301.8 218.15 1277.8 327.6 1245.75 445.0 1197.8 620.9 1163.3 687.55 L1147.25 682.9" fill="#000000" fill-rule="evenodd" stroke="none"/>
    <path d="M539.65 1387.8 L567.6 1375.8 Q555.55 1381.6 539.65 1387.8" fill="#aaacae" fill-rule="evenodd" stroke="none"/>
    <path d="M1572.85 140.1 L1478.65 91.9 Q1467.95 87.05 1457.05 82.45 L1440.1 75.45 1333.55 39.1 1323.25 36.35 1322.25 36.05 Q1281.75 27.5 1228.05 18.75 1120.65 1.25 1054.75 0.1 988.85 -1.0 894.25 12.7 864.7 17.0 835.8 22.25 L812.8 26.65 Q724.9 46.75 640.55 82.45 452.3 162.1 307.15 307.25 162.0 452.4 82.4 640.65 9.75 812.35 1.2 998.5 L0.0 1055.25 Q1.15 1265.2 82.4 1457.15 162.0 1645.4 307.15 1790.55 452.3 1935.7 640.55 2015.3 783.85 2075.95 937.15 2091.9 L1045.2 2097.75 1046.2 2097.75 1047.5 2097.75 1048.8 2097.75 1050.6 2097.75 1124.5 2095.1 Q1297.0 2083.0 1457.05 2015.3 1645.25 1935.7 1790.45 1790.55 1935.6 1645.4 2015.2 1457.15 2097.65 1262.3 2097.65 1048.9 2097.65 846.05 2023.15 659.95 L2017.4 645.85 M2015.2 640.6 Q1935.6 452.4 1790.45 307.25 1691.65 208.45 1572.85 140.1" fill="none" stroke="#000000" stroke-linecap="round" stroke-linejoin="round" stroke-width="1.0"/>
    <path d="M1393.1 890.9 Q1926.05 725.3 1910.25 730.55 M1253.9 730.0 Q1289.05 688.4 1399.2 567.75 1483.25 475.7 1568.65 383.6 M1406.35 924.05 L1814.2 869.35 M1425.9 1021.3 L1440.0 1022.2 M1353.3 1270.1 L1361.55 1275.6 M1544.25 1396.5 L1707.45 1504.55 M1137.6 1412.9 L1248.4 1931.55 M1457.2 1023.3 L1969.0 1056.15 M1119.6 676.65 L1195.0 234.15 M963.6 680.35 L901.45 340.9 M904.85 699.55 L744.45 368.3 666.55 207.45 M854.2 725.45 L768.0 575.75 M1200.7 701.55 L1472.6 218.15 M1023.25 671.3 L933.45 132.7 M710.95 1209.25 Q649.8 1236.1 523.1 1298.4 447.75 1335.45 357.4 1381.05 L282.25 1419.15 M708.8 888.7 Q696.8 882.45 678.35 873.45 623.55 846.7 556.5 818.0 366.05 736.35 218.2 698.55 M676.95 1093.65 L207.5 1210.95 M675.95 1008.9 L260.9 1050.85 M973.9 1722.95 L960.15 1990.3 M1064.95 1422.7 L1136.3 1803.45 M898.3 1390.95 L805.35 1899.55" fill="none" stroke="#000000" stroke-linecap="butt" stroke-linejoin="miter-clip" stroke-miterlimit="4.0" stroke-opacity="0.4" stroke-width="1.0"/>
    <path d="M1315.55 779.6 L1316.5 780.55 Q1328.1 792.15 1338.55 804.55 L1347.5 815.6 Q1361.9 834.05 1373.9 854.2 L1376.75 859.05 Q1383.3 870.4 1389.05 882.35 L1389.2 882.6 1393.1 890.9 1397.15 900.15 Q1402.15 912.0 1406.35 924.05 1412.65 942.45 1417.05 961.25 L1418.9 969.7 Q1424.15 995.1 1425.9 1021.3 1426.7 1033.9 1426.7 1046.65 1426.7 1057.25 1426.15 1067.7 L1425.8 1073.05 Q1423.65 1104.65 1416.35 1135.05 L1412.4 1150.0 Q1406.15 1171.85 1397.15 1193.1 L1390.45 1208.05 1386.2 1216.8 Q1371.95 1244.9 1353.3 1270.1 L1352.9 1270.6 1345.7 1280.0 Q1332.15 1297.05 1316.5 1312.75 L1312.1 1317.1 1297.95 1330.15 Q1290.4 1336.75 1282.55 1342.9 L1272.7 1350.4 Q1256.75 1362.05 1239.7 1372.0 1232.5 1376.2 1225.1 1380.1 L1213.5 1385.95 Q1205.3 1389.85 1196.9 1393.4 L1181.5 1399.55 1170.45 1403.45 Q1154.2 1408.9 1137.6 1412.9 1123.75 1416.15 1109.65 1418.4 L1093.8 1420.55 1064.95 1422.7 1050.4 1422.95 1039.4 1422.8 1026.2 1422.2 1006.1 1420.4 987.45 1417.8 Q961.65 1413.45 936.7 1405.5 L932.15 1404.05 Q917.9 1399.3 903.95 1393.4 L898.3 1390.95 Q880.05 1382.9 862.95 1373.1 L850.45 1365.55 Q842.95 1360.85 835.7 1355.8 L826.9 1349.5 Q818.75 1343.45 810.9 1336.95 L804.85 1331.8 Q794.3 1322.7 784.35 1312.75 771.3 1299.7 759.75 1285.7 L754.3 1278.9 Q738.2 1258.5 725.15 1236.1 L721.35 1229.35 Q715.85 1219.45 710.95 1209.25 707.15 1201.25 703.7 1193.1 695.2 1173.1 689.2 1152.55 687.1 1145.55 685.35 1138.55 679.8 1116.4 676.95 1093.65 675.45 1081.45 674.75 1069.1 674.25 1060.3 674.15 1051.4 L674.1 1046.65 674.15 1043.55 Q674.15 1039.1 674.3 1034.7 674.7 1021.65 675.95 1008.9 679.05 977.25 687.45 946.8 690.15 937.05 693.35 927.45 697.5 915.1 702.5 903.0 L703.7 900.15 707.1 892.35 708.8 888.7 Q722.6 858.75 741.25 832.0 L747.35 823.5 Q759.9 806.5 774.45 790.85 L784.35 780.55 788.35 776.65 Q805.2 760.25 823.65 746.3 L836.05 737.3 Q844.9 731.1 854.2 725.45 877.8 711.0 903.7 700.0 L903.95 699.9 904.85 699.55 906.15 699.0 Q927.05 690.3 948.6 684.25 L955.55 682.35 963.6 680.35 Q992.85 673.4 1023.25 671.3 L1045.75 670.4 1050.4 670.35 1059.25 670.45 1074.4 671.1 1087.2 672.1 1092.3 672.65 Q1106.05 674.15 1119.6 676.65 1133.55 679.2 1147.25 682.9 L1163.3 687.55 Q1180.25 692.85 1196.9 699.9 L1200.7 701.55 Q1209.4 705.3 1217.85 709.5 L1222.45 711.85 Q1238.65 720.2 1253.9 730.0 1269.1 739.75 1283.35 751.05 L1291.1 757.35 Q1299.95 764.7 1308.45 772.75 L1315.55 779.6" fill="none" stroke="#000000" stroke-linecap="round" stroke-linejoin="miter-clip" stroke-miterlimit="4.0" stroke-opacity="0.6" stroke-width="1.0"/>
  </g>
</svg>
