<?xml version="1.0" encoding="UTF-8" standalone="no"?>
<svg xmlns:xlink="http://www.w3.org/1999/xlink" height="30.55px" width="84.6px" xmlns="http://www.w3.org/2000/svg">
  <g transform="matrix(1.0, 0.0, 0.0, 1.0, 0.0, 0.0)">
    <path d="M27.15 30.25 Q14.9 29.75 7.2 28.45 1.35 27.5 0.0 26.55 3.35 19.55 9.25 13.65 22.95 0.0 42.3 0.0 56.25 0.0 67.3 7.15 L62.2 6.85 Q47.35 6.85 36.85 15.6 29.25 21.95 27.15 30.25" fill="#ffffff" fill-opacity="0.0" fill-rule="evenodd" stroke="none"/>
    <path d="M67.3 7.15 Q71.5 9.85 75.3 13.65 81.2 19.55 84.6 26.55 82.8 27.6 76.5 28.65 63.85 30.7 41.4 30.55 L27.15 30.25 Q29.25 21.95 36.85 15.6 47.35 6.85 62.2 6.85 L67.3 7.15" fill="#ffffff" fill-opacity="0.14901961" fill-rule="evenodd" stroke="none"/>
  </g>
</svg>
