<?xml version="1.0" encoding="UTF-8" standalone="no"?>
<svg xmlns:xlink="http://www.w3.org/1999/xlink" height="137.95px" width="635.95px" xmlns="http://www.w3.org/2000/svg">
  <g transform="matrix(1.0, 0.0, 0.0, 1.0, 317.95, 68.15)">
    <path d="M304.15 -35.4 Q306.25 -29.95 312.05 12.8 L317.5 54.55 312.35 57.3 310.35 58.15 Q302.25 61.7 297.75 61.7 L295.7 61.45 285.95 57.55 Q280.75 55.65 275.15 56.0 L272.35 56.25 259.55 59.95 253.1 62.15 246.0 64.7 240.15 66.35 235.6 66.6 Q232.85 65.75 210.95 63.25 L183.75 59.75 182.35 59.5 175.9 59.0 173.25 58.95 160.35 59.35 156.55 59.55 148.9 59.75 148.7 59.75 Q142.4 59.75 138.3 60.8 L130.25 63.25 123.4 65.55 110.3 66.6 92.35 65.8 76.8 64.95 58.05 65.15 Q47.25 65.5 41.75 66.6 L21.05 67.25 -0.05 65.8 -6.7 66.6 -10.15 66.85 -18.25 67.2 -21.1 67.25 -41.8 66.6 Q-47.3 65.5 -58.05 65.15 L-76.85 64.95 -92.3 65.8 -110.25 66.6 Q-119.55 66.6 -123.45 65.55 -126.9 64.1 -130.3 63.25 L-138.25 60.8 Q-142.35 59.75 -148.7 59.75 L-160.85 59.35 -166.25 59.1 -173.2 58.95 -175.75 59.0 -182.15 59.5 -183.8 59.75 -210.9 63.25 Q-232.8 65.75 -235.55 66.6 L-240.05 66.35 -245.9 64.7 -253.05 62.15 Q-256.5 60.9 -259.45 59.95 L-272.3 56.25 -275.7 55.95 Q-280.95 55.75 -285.9 57.55 L-286.3 57.75 -287.35 58.15 Q-294.85 61.2 -295.75 61.45 L-297.15 61.7 -297.7 61.7 Q-302.05 61.7 -309.55 58.5 L-317.45 54.55 -312.0 12.8 Q-306.2 -29.95 -304.1 -35.4 -302.0 -40.8 -298.65 -46.5 L-295.75 -51.0 295.7 -51.0 298.65 -46.5 Q302.05 -40.8 304.15 -35.4 M-293.9 -51.2 L-237.25 -67.65 240.3 -67.65 295.05 -51.2 -293.9 -51.2" fill="#ffffff" fill-opacity="0.0" fill-rule="evenodd" stroke="none"/>
    <path d="M295.05 -51.2 L240.3 -67.65 -237.25 -67.65 -293.9 -51.2" fill="none" stroke="#000000" stroke-linecap="round" stroke-linejoin="round" stroke-width="1.0"/>
    <path d="M304.15 -35.4 Q302.05 -40.8 298.65 -46.5 L295.7 -51.0 -295.75 -51.0 -298.65 -46.5 Q-302.0 -40.8 -304.1 -35.4 -306.2 -29.95 -312.0 12.8 L-317.45 54.55 -309.55 58.5 Q-302.05 61.7 -297.7 61.7 L-297.15 61.7 -295.75 61.45 Q-294.85 61.2 -287.35 58.15 L-286.3 57.75 -285.9 57.55 Q-280.95 55.75 -275.7 55.95 L-272.3 56.25 -259.45 59.95 Q-256.5 60.9 -253.05 62.15 L-245.9 64.7 -240.05 66.35 -235.55 66.6 Q-232.8 65.75 -210.9 63.25 L-183.8 59.75 -182.15 59.5 -175.75 59.0 -173.2 58.95 -166.25 59.1 -160.85 59.35 -148.7 59.75 Q-142.35 59.75 -138.25 60.8 L-130.3 63.25 Q-126.9 64.1 -123.45 65.55 -119.55 66.6 -110.25 66.6 L-92.3 65.8 -76.85 64.95 -58.05 65.15 Q-47.3 65.5 -41.8 66.6 L-21.1 67.25 -18.25 67.2 -10.15 66.85 -6.7 66.6 -0.05 65.8 21.05 67.25 41.75 66.6 Q47.25 65.5 58.05 65.15 L76.8 64.95 92.35 65.8 110.3 66.6 123.4 65.55 130.25 63.25 138.3 60.8 Q142.4 59.75 148.7 59.75 L148.9 59.75 156.55 59.55 160.35 59.35 173.25 58.95 175.9 59.0 182.35 59.5 183.75 59.75 210.95 63.25 Q232.85 65.75 235.6 66.6 L240.15 66.35 246.0 64.7 253.1 62.15 259.55 59.95 272.35 56.25 275.15 56.0 Q280.75 55.65 285.95 57.55 L295.7 61.45 297.75 61.7 Q302.25 61.7 310.35 58.15 L312.35 57.3 317.5 54.55 312.05 12.8 Q306.25 -29.95 304.15 -35.4" fill="none" stroke="#000000" stroke-linecap="butt" stroke-linejoin="miter-clip" stroke-miterlimit="10.0" stroke-width="1.0"/>
    <path d="M20.75 67.25 Q21.7 50.2 28.2 25.1 35.95 -2.65 38.95 -16.0 38.95 -9.0 37.65 21.3 37.5 51.25 42.75 66.45 L41.75 66.6 20.75 67.25 M82.85 65.1 Q91.2 47.6 95.65 13.95 96.3 8.7 99.35 -26.25 104.7 -10.5 105.25 14.7 L106.35 56.35 Q106.65 60.9 108.2 66.6 L94.35 66.0 82.85 65.1 M223.65 64.7 Q228.9 48.9 229.95 22.8 230.85 -0.2 228.35 -17.05 231.15 -3.75 236.0 24.25 240.8 49.25 246.3 64.6 238.05 67.5 235.6 66.6 L223.65 64.7 M177.3 59.0 Q179.7 41.2 178.9 15.75 181.55 43.8 187.55 60.4 L183.75 59.75 177.3 59.0 M262.05 58.95 L262.15 2.0 Q262.55 14.75 265.2 28.6 268.05 43.0 272.9 56.2 L272.35 56.25 Q268.2 56.9 262.05 58.95 M-145.85 59.85 Q-140.35 48.0 -134.85 26.5 -128.3 0.85 -125.3 -7.4 -125.85 34.2 -116.4 66.55 -121.5 66.2 -124.4 65.25 -127.5 63.95 -130.3 63.25 L-137.45 61.05 Q-141.15 60.0 -145.85 59.85 M-253.35 -35.05 Q-253.75 -6.1 -252.4 14.3 -250.55 42.9 -244.95 65.0 L-258.85 60.05 Q-267.6 57.0 -272.3 56.25 -278.6 55.3 -284.1 57.0 L-292.6 60.4 Q-291.0 57.7 -283.3 46.65 -277.3 38.05 -274.5 32.15 -267.75 18.15 -262.25 -0.95 -260.55 -6.65 -253.35 -35.05" fill="#000000" fill-opacity="0.09803922" fill-rule="evenodd" stroke="none"/>
  </g>
</svg>
