<?xml version="1.0" encoding="UTF-8" standalone="no"?>
<svg xmlns:xlink="http://www.w3.org/1999/xlink" height="139.45px" width="170.75px" xmlns="http://www.w3.org/2000/svg">
  <g transform="matrix(1.0, 0.0, 0.0, 1.0, 57.55, 69.05)">
    <path d="M43.6 46.7 L44.0 4.8 10.15 4.8 11.3 47.45 43.6 46.7 M44.0 -45.9 L8.65 -45.9 9.8 -5.15 44.0 -5.15 44.0 -45.9 M-57.05 -68.55 L57.05 -67.4 57.05 65.9 -53.25 68.6 -57.05 -68.55 M-40.15 49.0 L-0.95 47.85 -2.15 4.8 -41.3 4.45 -40.15 49.0 M-42.85 -45.9 L-41.7 -5.15 -2.5 -5.15 -3.3 -45.9 -42.85 -45.9" fill="#000000" fill-opacity="0.29803923" fill-rule="evenodd" stroke="none"/>
    <path d="M-57.05 -68.55 L-53.25 68.6 57.05 65.9 57.05 -67.4 -57.05 -68.55" fill="none" stroke="#000000" stroke-linecap="butt" stroke-linejoin="miter-clip" stroke-miterlimit="10.0" stroke-width="1.0"/>
    <path d="M44.0 -45.9 L44.0 -5.15 9.8 -5.15 8.65 -45.9 44.0 -45.9 M43.6 46.7 L11.3 47.45 10.15 4.8 44.0 4.8 43.6 46.7 M-42.85 -45.9 L-3.3 -45.9 -2.5 -5.15 -41.7 -5.15 -42.85 -45.9 M-40.15 49.0 L-41.3 4.45 -2.15 4.8 -0.95 47.85 -40.15 49.0" fill="none" stroke="#000000" stroke-linecap="butt" stroke-linejoin="miter-clip" stroke-miterlimit="10.0" stroke-opacity="0.6" stroke-width="1.0"/>
  </g>
</svg>
