<?xml version="1.0" encoding="UTF-8" standalone="no"?>
<svg xmlns:xlink="http://www.w3.org/1999/xlink" height="641.3px" width="409.0px" xmlns="http://www.w3.org/2000/svg">
  <g transform="matrix(1.0, 0.0, 0.0, 1.0, 204.5, 320.45)">
    <path d="M2.65 -319.9 Q85.1 -318.75 152.8 -285.25 173.95 -274.8 191.1 -262.3 199.65 -256.1 204.0 -251.95 L204.0 319.9 0.0 318.2 -204.0 319.9 -204.0 -251.95 Q-199.65 -256.1 -191.1 -262.3 -173.95 -274.75 -152.8 -285.25 -85.1 -318.75 -2.65 -319.9 L-2.65 -319.95 2.65 -319.95 2.65 -319.9 M184.8 -241.5 Q107.35 -287.05 31.6 -297.4 -29.0 -305.7 -85.75 -291.2 -126.3 -280.85 -160.9 -260.15 -178.15 -249.8 -187.35 -241.5 L-187.35 110.65 -187.35 319.3 -54.95 131.0 -54.95 71.95 52.4 67.55 52.4 163.0 184.8 319.3 184.8 50.25 184.8 -241.5" fill="#000000" fill-opacity="0.4" fill-rule="evenodd" stroke="none"/>
    <path d="M-137.85 -215.35 L-132.3 -218.65 Q-125.0 -222.7 -116.35 -226.65 -88.65 -239.15 -57.65 -245.4 -14.25 -254.2 29.45 -249.2 84.1 -242.9 136.2 -215.25 84.1 -242.9 29.45 -249.2 -14.25 -254.2 -57.65 -245.4 -88.65 -239.15 -116.35 -226.65 -125.0 -222.7 -132.3 -218.65 L-137.85 -215.35 M184.8 -241.5 L136.2 -215.25 52.4 -170.05 -54.95 -170.05 -187.35 -241.5 Q-178.15 -249.8 -160.9 -260.15 -126.3 -280.85 -85.75 -291.2 -29.0 -305.7 31.6 -297.4 107.35 -287.05 184.8 -241.5 M85.65 -190.95 Q28.2 -213.8 -37.15 -204.65 -57.55 -201.8 -76.3 -196.1 L-91.0 -190.95 -76.3 -196.1 Q-57.55 -201.8 -37.15 -204.65 28.2 -213.8 85.65 -190.95" fill="#000000" fill-opacity="0.29803923" fill-rule="evenodd" stroke="none"/>
    <path d="M136.2 -215.25 L184.8 -241.5 184.8 50.25 52.4 -170.05 136.2 -215.25 M-187.35 -241.5 L-54.95 -170.05 Q-77.2 -125.5 -104.9 -68.15 -160.25 46.6 -187.35 110.65 L-187.35 -241.5" fill="#000000" fill-opacity="0.14901961" fill-rule="evenodd" stroke="none"/>
    <path d="M-187.35 110.65 Q-160.25 46.6 -104.9 -68.15 -77.2 -125.5 -54.95 -170.05 L-54.95 71.95 -54.95 131.0 -187.35 319.3 -187.35 110.65 M52.4 67.55 L52.4 -170.05 184.8 50.25 184.8 319.3 52.4 163.0 52.4 67.55" fill="#ffffff" fill-opacity="0.0" fill-rule="evenodd" stroke="none"/>
    <path d="M-2.65 -319.9 Q-85.1 -318.75 -152.8 -285.25 -173.95 -274.75 -191.1 -262.3 -199.65 -256.1 -204.0 -251.95 L-204.0 319.9 0.0 318.2 204.0 319.9 204.0 -251.95 Q199.65 -256.1 191.1 -262.3 173.95 -274.8 152.8 -285.25 85.1 -318.75 2.65 -319.9 M136.2 -215.25 Q84.1 -242.9 29.45 -249.2 -14.25 -254.2 -57.65 -245.4 -88.65 -239.15 -116.35 -226.65 -125.0 -222.7 -132.3 -218.65 L-137.85 -215.35 M-91.0 -190.95 L-76.3 -196.1 Q-57.55 -201.8 -37.15 -204.65 28.2 -213.8 85.65 -190.95" fill="none" stroke="#000000" stroke-linecap="round" stroke-linejoin="miter-clip" stroke-miterlimit="4.0" stroke-opacity="0.6" stroke-width="1.0"/>
    <path d="M2.65 -319.9 L2.65 -319.95 -2.65 -319.95 -2.65 -319.9 M136.2 -215.25 L184.8 -241.5 Q107.35 -287.05 31.6 -297.4 -29.0 -305.7 -85.75 -291.2 -126.3 -280.85 -160.9 -260.15 -178.15 -249.8 -187.35 -241.5 L-54.95 -170.05 52.4 -170.05 136.2 -215.25 M-54.95 -170.05 L-54.95 71.95 52.4 67.55 52.4 -170.05 M184.8 50.25 L184.8 -241.5 M-187.35 110.65 L-187.35 319.3 -54.95 131.0 -54.95 71.95 M52.4 67.55 L52.4 163.0 184.8 319.3 184.8 50.25 M-187.35 -241.5 L-187.35 110.65" fill="none" stroke="#000000" stroke-linecap="round" stroke-linejoin="miter-clip" stroke-miterlimit="4.0" stroke-width="1.0"/>
  </g>
</svg>
