<?xml version="1.0" encoding="UTF-8" standalone="no"?>
<svg xmlns:xlink="http://www.w3.org/1999/xlink" height="1199.25px" width="1969.25px" xmlns="http://www.w3.org/2000/svg">
  <g transform="matrix(1.0, 0.0, 0.0, 1.0, 984.6, 599.6)">
    <path d="M837.8 -479.0 L837.4 -479.3 837.15 -479.5 836.65 -479.9 836.15 -480.3 835.3 -480.95 834.1 -481.85 834.1 -481.9 Q762.25 -536.4 687.2 -550.5 L682.05 -551.45 675.15 -552.5 Q652.9 -555.75 630.7 -555.35 652.9 -555.75 675.15 -552.5 L630.7 -555.35 615.7 -554.7 615.05 -554.65 614.75 -554.6 614.25 -554.6 602.25 -553.4 Q581.35 -550.9 560.5 -545.2 581.35 -550.9 602.25 -553.4 L560.5 -545.2 553.65 -543.25 544.05 -540.2 Q514.7 -530.4 487.45 -514.85 514.7 -530.4 544.05 -540.2 L487.45 -514.85 469.85 -504.05 469.7 -503.95 469.2 -503.6 468.7 -503.3 467.5 -502.55 467.15 -502.3 Q454.35 -493.75 443.65 -484.85 L435.45 -477.7 435.45 -321.3 207.2 -321.3 207.2 -477.7 206.25 -478.45 205.5 -479.0 206.25 -478.45 205.7 -478.85 205.5 -479.0 205.1 -479.3 204.85 -479.5 204.35 -479.9 203.85 -480.3 203.0 -480.95 201.8 -481.85 201.8 -481.9 Q129.95 -536.4 54.95 -550.5 L49.8 -551.45 43.05 -552.5 Q21.6 -555.6 0.25 -555.35 L-0.05 -555.35 -0.3 -555.35 -16.7 -554.7 -18.0 -554.6 Q-34.05 -553.4 -50.05 -550.25 L-50.3 -550.25 -51.95 -549.9 -50.3 -550.25 -50.05 -550.25 Q-34.05 -553.4 -18.0 -554.6 L-16.7 -554.7 -17.25 -554.65 -18.0 -554.6 -50.05 -550.25 -51.95 -549.9 -76.65 -543.85 -78.65 -543.25 -79.05 -543.1 -79.15 -543.1 -79.45 -543.0 -99.9 -536.05 Q-133.95 -523.15 -165.15 -502.3 -185.55 -488.6 -196.85 -477.7 L-196.85 -321.3 -403.85 -321.3 -403.85 -477.7 -404.8 -478.45 -405.55 -479.0 -404.8 -478.45 -405.35 -478.85 -405.55 -479.0 -405.95 -479.3 -406.2 -479.5 -406.7 -479.9 -407.2 -480.3 -408.05 -480.95 -409.25 -481.85 -409.25 -481.9 Q-481.15 -536.45 -556.25 -550.55 L-561.3 -551.45 -568.5 -552.55 Q-590.5 -555.7 -612.45 -555.35 -590.5 -555.7 -568.5 -552.55 L-612.45 -555.35 -627.75 -554.7 -629.15 -554.6 Q-645.9 -553.3 -662.6 -549.95 -645.9 -553.3 -629.15 -554.6 L-627.75 -554.7 -628.35 -554.65 -629.15 -554.6 -662.4 -550.0 -662.6 -549.95 -663.2 -549.85 -663.45 -549.8 -663.85 -549.75 -668.2 -548.8 Q-676.85 -546.95 -685.5 -544.45 L-686.3 -544.25 -687.25 -543.95 -687.7 -543.85 -689.75 -543.25 -690.15 -543.1 -690.25 -543.1 -690.55 -543.0 -711.0 -536.05 Q-745.05 -523.15 -776.25 -502.3 -796.65 -488.6 -807.95 -477.7 L-807.95 -321.3 -929.8 -321.3 -929.8 -599.1 931.3 -599.1 931.3 -321.3 839.5 -321.3 839.5 -477.7 838.55 -478.45 838.0 -478.85 837.8 -479.0 838.55 -478.45 837.8 -479.0" fill="#000000" fill-opacity="0.14901961" fill-rule="evenodd" stroke="none"/>
    <path d="M804.7 -15.85 Q800.25 -45.45 783.05 -70.9 766.2 -95.7 738.85 -114.0 711.5 -132.35 676.55 -142.15 640.65 -152.25 600.45 -152.25 557.25 -152.25 519.0 -140.5 481.85 -129.1 453.85 -108.1 425.75 -87.0 410.55 -59.05 394.85 -30.25 394.8 2.45 L396.05 532.25 807.45 532.25 804.7 -15.85 M209.45 -15.85 Q205.0 -45.45 187.8 -70.9 170.95 -95.7 143.6 -114.0 116.25 -132.35 81.3 -142.15 45.45 -152.25 5.25 -152.25 -37.95 -152.25 -76.2 -140.5 -113.35 -129.1 -141.4 -108.1 -169.45 -87.05 -184.7 -59.05 -200.4 -30.25 -200.45 2.45 L-199.15 532.25 212.2 532.25 209.45 -15.85 M-929.8 540.95 L-929.8 -296.2 937.9 -296.2 937.9 540.95 -929.8 540.95 M-389.75 -15.85 Q-394.15 -45.45 -411.4 -70.9 -428.2 -95.7 -455.55 -114.0 -482.95 -132.35 -517.9 -142.15 -553.75 -152.25 -594.0 -152.25 -637.15 -152.25 -675.4 -140.5 -712.55 -129.1 -740.55 -108.1 -768.65 -87.0 -783.85 -59.05 -799.55 -30.25 -799.65 2.45 L-798.35 532.25 -386.95 532.25 -389.75 -15.85" fill="#ffffff" fill-opacity="0.0" fill-rule="evenodd" stroke="none"/>
    <path d="M937.9 540.95 L984.15 540.95 984.15 599.15 -984.1 599.15 -984.1 540.95 -929.8 540.95 937.9 540.95" fill="#000000" fill-opacity="0.34901962" fill-rule="evenodd" stroke="none"/>
    <path d="M675.15 -552.5 L682.05 -551.45 687.2 -550.5 Q762.25 -536.4 834.1 -481.9 L834.1 -481.85 835.3 -480.95 836.15 -480.3 836.65 -479.9 837.15 -479.5 837.4 -479.3 837.8 -479.0 838.0 -478.85 838.55 -478.45 839.5 -477.7 839.5 -321.3 839.5 -306.8 807.8 -306.55 807.75 -306.55 807.8 -321.3 807.75 -459.15 Q712.35 -533.75 611.9 -536.75 538.45 -538.95 468.7 -503.3 L469.2 -503.6 469.7 -503.95 469.85 -504.05 487.45 -514.85 544.05 -540.2 553.65 -543.25 560.5 -545.2 602.25 -553.4 614.25 -554.6 614.75 -554.6 615.05 -554.65 615.7 -554.7 630.7 -555.35 675.15 -552.5 M-711.0 -536.05 L-690.55 -543.0 -690.25 -543.1 -690.15 -543.1 -689.75 -543.25 -687.7 -543.85 -687.25 -543.95 -686.3 -544.25 -685.5 -544.45 Q-676.85 -546.95 -668.2 -548.8 L-663.85 -549.75 -663.45 -549.8 -663.2 -549.85 -662.6 -549.95 -662.4 -550.0 -629.15 -554.6 -628.35 -554.65 -627.75 -554.7 -612.45 -555.35 -568.5 -552.55 -561.3 -551.45 -556.25 -550.55 Q-481.15 -536.45 -409.25 -481.9 L-409.25 -481.85 -408.05 -480.95 -407.2 -480.3 -406.7 -479.9 -406.2 -479.5 -405.95 -479.3 -405.55 -479.0 -405.35 -478.85 -404.8 -478.45 -403.85 -477.7 -403.85 -321.3 -403.85 -306.8 -435.1 -306.55 -435.6 -306.55 -435.65 -306.55 -435.65 -321.3 -435.65 -459.15 Q-531.0 -533.75 -631.5 -536.75 -704.95 -538.95 -774.65 -503.3 -745.75 -522.4 -713.9 -534.9 L-711.0 -536.05 M-99.9 -536.05 L-79.45 -543.0 -79.15 -543.1 -79.05 -543.1 -78.65 -543.25 -76.65 -543.85 -51.95 -549.9 -50.05 -550.25 -18.0 -554.6 -17.25 -554.65 -16.7 -554.7 -0.3 -555.35 -0.05 -555.35 0.25 -555.35 Q21.6 -555.6 43.05 -552.5 L49.8 -551.45 54.95 -550.5 Q129.95 -536.4 201.8 -481.9 L201.8 -481.85 203.0 -480.95 203.85 -480.3 204.35 -479.9 204.85 -479.5 205.1 -479.3 205.5 -479.0 205.7 -478.85 206.25 -478.45 207.2 -477.7 207.2 -321.3 207.2 -306.8 175.45 -306.55 175.45 -321.3 175.45 -459.15 Q80.1 -533.75 -20.4 -536.75 -93.85 -538.95 -163.55 -503.3 -134.65 -522.4 -102.8 -534.9 L-99.9 -536.05" fill="#000000" fill-opacity="0.2" fill-rule="evenodd" stroke="none"/>
    <path d="M839.5 -321.3 L931.3 -321.3 931.3 -599.1 -929.8 -599.1 -929.8 -321.3 -807.95 -321.3 -435.65 -321.3 M-403.85 -321.3 L-196.85 -321.3 175.45 -321.3 M207.2 -321.3 L435.45 -321.3 807.8 -321.3 M937.9 540.95 L984.15 540.95 984.15 599.15 -984.1 599.15 -984.1 540.95 -929.8 540.95 -929.8 -296.2 937.9 -296.2 937.9 540.95" fill="none" stroke="#000000" stroke-linecap="round" stroke-linejoin="miter-clip" stroke-miterlimit="4.0" stroke-width="1.0"/>
    <path d="M675.15 -552.5 L682.05 -551.45 687.2 -550.5 Q762.25 -536.4 834.1 -481.9 L834.1 -481.85 835.3 -480.95 836.15 -480.3 836.65 -479.9 837.15 -479.5 837.4 -479.3 837.8 -479.0 838.55 -478.45 839.5 -477.7 839.5 -321.3 839.5 -306.8 807.8 -306.55 M-807.95 -321.3 L-807.95 -477.7 Q-796.65 -488.6 -776.25 -502.3 -745.05 -523.15 -711.0 -536.05 L-690.55 -543.0 -690.25 -543.1 -690.15 -543.1 -689.75 -543.25 -687.7 -543.85 -687.25 -543.95 -686.3 -544.25 -685.5 -544.45 Q-676.85 -546.95 -668.2 -548.8 L-663.85 -549.75 -663.45 -549.8 -663.2 -549.85 -662.6 -549.95 Q-645.9 -553.3 -629.15 -554.6 L-627.75 -554.7 -612.45 -555.35 Q-590.5 -555.7 -568.5 -552.55 L-561.3 -551.45 -556.25 -550.55 Q-481.15 -536.45 -409.25 -481.9 L-409.25 -481.85 -408.05 -480.95 -407.2 -480.3 -406.7 -479.9 -406.2 -479.5 -405.95 -479.3 -405.55 -479.0 -404.8 -478.45 -403.85 -477.7 -403.85 -321.3 -403.85 -306.8 -435.1 -306.55 -435.6 -306.55 M-196.85 -321.3 L-196.85 -477.7 Q-185.55 -488.6 -165.15 -502.3 -133.95 -523.15 -99.9 -536.05 L-79.45 -543.0 -79.15 -543.1 -79.05 -543.1 -78.65 -543.25 -76.65 -543.85 -51.95 -549.9 -50.3 -550.25 -50.05 -550.25 Q-34.05 -553.4 -18.0 -554.6 L-16.7 -554.7 -0.3 -555.35 -0.05 -555.35 0.25 -555.35 Q21.6 -555.6 43.05 -552.5 L49.8 -551.45 54.95 -550.5 Q129.95 -536.4 201.8 -481.9 L201.8 -481.85 203.0 -480.95 203.85 -480.3 204.35 -479.9 204.85 -479.5 205.1 -479.3 205.5 -479.0 206.25 -478.45 207.2 -477.7 207.2 -321.3 207.2 -306.8 175.45 -306.55 -196.85 -303.35 -196.85 -321.3 M435.45 -321.3 L435.45 -477.7 443.65 -484.85 Q454.35 -493.75 467.15 -502.3 L467.5 -502.55 468.7 -503.3 469.2 -503.6 469.7 -503.95 469.85 -504.05 487.45 -514.85 Q514.7 -530.4 544.05 -540.2 L553.65 -543.25 560.5 -545.2 Q581.35 -550.9 602.25 -553.4 L614.25 -554.6 614.75 -554.6 615.05 -554.65 615.7 -554.7 630.7 -555.35 Q652.9 -555.75 675.15 -552.5 M838.55 -478.45 L838.0 -478.85 837.8 -479.0 M435.45 -321.3 L435.45 -303.35 807.75 -306.55 M205.5 -479.0 L205.7 -478.85 206.25 -478.45 M937.9 540.95 L-929.8 540.95 M-18.0 -554.6 L-50.05 -550.25 -51.95 -549.9 M-629.15 -554.6 L-662.4 -550.0 -662.6 -549.95 M-404.8 -478.45 L-405.35 -478.85 -405.55 -479.0 M-435.65 -306.55 L-436.25 -306.5 -435.1 -306.55 M-436.25 -306.5 L-807.95 -303.35 -807.95 -321.3" fill="none" stroke="#000000" stroke-linecap="round" stroke-linejoin="miter-clip" stroke-miterlimit="4.0" stroke-opacity="0.6" stroke-width="1.0"/>
    <path d="M807.8 -321.3 L807.75 -459.15 Q712.35 -533.75 611.9 -536.75 538.45 -538.95 468.7 -503.3 M-99.9 -536.05 L-102.8 -534.9 Q-134.65 -522.4 -163.55 -503.3 -93.85 -538.95 -20.4 -536.75 80.1 -533.75 175.45 -459.15 L175.45 -321.3 M-711.0 -536.05 L-713.9 -534.9 Q-745.75 -522.4 -774.65 -503.3 -704.95 -538.95 -631.5 -536.75 -531.0 -533.75 -435.65 -459.15 L-435.65 -321.3" fill="none" stroke="#000000" stroke-linecap="round" stroke-linejoin="miter-clip" stroke-miterlimit="4.0" stroke-opacity="0.4" stroke-width="1.0"/>
  </g>
</svg>
