<?xml version="1.0" encoding="UTF-8" standalone="no"?>
<svg xmlns:xlink="http://www.w3.org/1999/xlink" height="335.65px" width="424.15px" xmlns="http://www.w3.org/2000/svg">
  <g transform="matrix(1.0, 0.0, 0.0, 1.0, 212.1, 173.35)">
    <path d="M75.75 -140.8 L75.95 -140.85 76.3 -140.85 75.75 -140.8" fill="#079fc1" fill-rule="evenodd" stroke="none"/>
    <path d="M76.0 -163.7 L76.65 -166.25 Q79.2 -171.55 85.5 -172.65 L85.5 -172.85 99.8 -172.85 99.8 -172.65 Q106.2 -171.55 108.75 -166.25 110.0 -163.6 110.0 -161.2 L110.2 -140.65 110.65 -140.5 111.05 -140.3 111.1 -140.25 Q111.95 -139.8 113.0 -138.95 L114.35 -41.4 114.35 -41.35 114.55 -28.3 114.85 -6.85 116.25 94.1 116.15 94.1 116.25 94.1 135.85 94.1 Q137.8 94.1 138.35 95.85 L138.45 97.6 138.45 108.0 134.85 111.3 134.85 111.05 69.35 111.05 69.35 111.3 65.75 108.0 65.75 97.6 Q65.65 96.75 65.85 95.85 66.3 94.3 67.95 94.15 L68.35 94.1 69.0 94.1 69.15 83.55 56.4 50.75 47.0 53.9 45.05 51.65 54.3 45.3 5.15 -80.95 8.15 -84.9 8.55 -85.45 14.2 -88.15 16.05 -87.25 19.05 -85.85 69.8 37.1 72.3 -138.95 104.6 -138.95 99.85 94.1 116.15 94.1 112.85 -138.95 Q111.35 -140.2 110.2 -140.65 L110.2 -140.6 110.1 -140.65 109.25 -140.85 109.1 -140.85 76.3 -140.85 75.95 -140.85 75.75 -140.8 75.45 -140.75 75.4 -140.7 75.35 -140.7 75.35 -143.6 28.6 -116.5 -19.65 -88.45 -104.8 -39.0 -109.35 -31.65 -119.45 -27.85 -122.9 -26.55 Q-127.45 -30.8 -129.9 -37.0 L-131.1 -41.55 -131.35 -42.35 -118.95 -50.3 -109.9 -50.3 76.0 -163.7 M69.8 37.1 L69.15 83.55 69.8 37.1 M132.85 29.75 L136.95 29.75 138.1 29.75 150.55 29.75 154.65 29.75 161.95 29.75 164.2 33.15 164.2 57.45 160.8 59.7 160.7 59.7 164.1 57.45 164.1 46.4 124.7 46.4 124.7 29.75 126.2 29.75 132.6 29.75 132.85 29.75 M211.15 137.1 L211.15 144.6 197.6 144.6 197.6 145.15 197.6 154.75 Q197.6 157.65 195.5 159.7 193.45 161.8 190.55 161.8 187.6 161.8 185.55 159.7 183.45 157.65 183.45 154.75 L183.45 145.15 183.5 144.6 -180.65 144.6 -189.4 145.0 -189.4 145.15 -189.4 154.75 Q-189.4 157.65 -191.5 159.7 -193.5 161.8 -196.45 161.8 -199.4 161.8 -201.4 159.7 -203.5 157.65 -203.5 154.75 L-203.5 145.15 -211.05 145.2 -211.6 141.8 Q-211.95 138.75 -199.05 135.15 L-198.25 134.9 -192.8 133.55 -184.5 131.85 57.95 131.85 57.95 123.2 60.4 119.8 Q63.25 116.6 65.2 117.1 L69.35 117.1 134.85 117.1 138.95 117.1 Q140.9 116.6 143.75 119.8 145.25 121.45 146.25 123.2 L146.25 131.85 175.5 131.85 211.15 131.85 211.15 137.1 M197.6 144.6 L183.5 144.6 197.6 144.6 M57.95 131.85 L57.95 137.05 146.25 137.05 146.25 131.85 146.25 137.05 57.95 137.05 57.95 131.85 M69.0 94.1 L99.85 94.1 69.0 94.1 M-189.4 145.0 L-203.5 145.15 -189.4 145.0" fill="#ffffff" fill-opacity="0.0" fill-rule="evenodd" stroke="none"/>
    <path d="M114.55 -28.3 L114.35 -41.35 123.85 -12.8 132.45 -17.3 Q134.1 -17.3 135.75 -15.05 L136.95 -12.75 136.95 -10.5 136.45 -9.7 Q136.25 -8.7 136.95 -7.15 136.25 -8.7 136.45 -9.7 L136.95 -10.5 150.15 -17.3 Q151.75 -17.3 153.4 -15.05 L154.65 -12.75 154.65 29.75 150.55 29.75 150.55 -6.8 Q151.0 -9.4 150.25 -10.55 L149.4 -11.3 137.35 -6.4 136.95 -7.15 136.95 26.4 136.95 29.75 136.95 26.4 138.1 29.75 136.95 29.75 132.85 29.75 132.85 14.15 132.85 29.75 132.6 29.75 121.2 -7.0 119.65 -6.4 Q118.45 -8.45 118.8 -9.7 L119.3 -10.5 120.0 -10.85 114.55 -28.3 M125.25 -8.65 L121.2 -7.0 125.25 -8.65 132.85 14.15 132.85 -6.8 Q133.3 -9.4 132.55 -10.55 L131.7 -11.3 125.25 -8.65 M120.0 -10.85 L123.85 -12.8 120.0 -10.85 M196.6 22.65 L196.6 116.75 190.6 116.75 190.6 23.0 193.2 23.4 Q195.05 23.4 196.6 22.65" fill="#000000" fill-opacity="0.29803923" fill-rule="evenodd" stroke="none"/>
    <path d="M124.7 29.75 L124.7 46.4 164.1 46.4 164.1 57.45 160.7 59.7 115.8 59.7 115.4 29.75 124.7 29.75" fill="#000000" fill-opacity="0.09803922" fill-rule="evenodd" stroke="none"/>
    <path d="M-131.1 -41.55 L-129.9 -37.0 Q-127.45 -30.8 -122.9 -26.55 L-119.45 -27.85 -119.4 -27.7 -123.35 -23.75 -127.3 -23.75 -129.0 -16.95 -136.35 -15.8 -139.15 -21.45 -147.05 -20.9 -152.7 -29.4 -131.1 -41.55 M-19.65 -88.45 L28.6 -116.5 29.65 -114.1 13.8 -92.65 16.05 -87.25 14.2 -88.15 8.55 -85.45 8.15 -84.9 5.5 -89.6 -17.8 -87.0 -19.65 -88.45 M114.85 -6.85 L114.55 -28.3 120.0 -10.85 119.3 -10.5 118.8 -9.7 Q118.45 -8.45 119.65 -6.4 L121.2 -7.0 132.6 29.75 126.2 29.75 114.85 -6.85 M190.6 23.0 Q188.95 22.4 187.6 21.05 185.3 18.75 185.3 15.5 185.3 12.2 187.6 9.9 189.9 7.55 193.2 7.55 196.55 7.55 198.8 9.9 201.1 12.2 201.1 15.5 201.1 18.75 198.8 21.05 L196.6 22.65 Q195.05 23.4 193.2 23.4 L190.6 23.0 M196.6 116.75 L205.9 116.75 205.9 125.1 211.55 125.1 211.55 137.1 211.15 137.1 211.15 131.85 175.5 131.85 175.5 125.1 181.55 125.1 181.55 116.75 190.6 116.75 196.6 116.75 M-199.05 135.15 L-199.05 128.25 -207.8 128.25 Q-209.1 128.25 -210.0 127.35 -210.9 126.45 -210.9 125.15 -210.9 123.9 -210.0 122.95 -209.05 122.0 -207.8 122.0 L-184.05 122.0 Q-182.75 122.0 -181.85 122.95 -180.95 123.9 -180.95 125.15 -180.95 126.45 -181.85 127.35 -182.75 128.25 -184.05 128.25 L-192.8 128.25 -192.8 133.55 -198.25 134.9 -199.05 135.15 M69.35 117.1 L69.35 111.3 69.35 111.05 134.85 111.05 134.85 111.3 134.85 117.1 69.35 117.1 M205.9 125.1 L181.55 125.1 205.9 125.1 M-199.05 128.25 L-192.8 128.25 -199.05 128.25" fill="#000000" fill-opacity="0.4" fill-rule="evenodd" stroke="none"/>
    <path d="M76.0 -163.7 L-109.9 -50.3 -118.95 -50.3 -131.35 -42.35 -131.1 -41.55 -129.9 -37.0 Q-127.45 -30.8 -122.9 -26.55 L-119.45 -27.85 -109.35 -31.65 -104.8 -39.0 -19.65 -88.45 28.6 -116.5 75.35 -143.6 M116.15 94.1 L116.25 94.1 135.85 94.1 Q137.8 94.1 138.35 95.85 L138.45 97.6 138.45 108.0 134.85 111.3 134.85 111.05 69.35 111.05 69.35 111.3 65.75 108.0 65.75 97.6 Q65.65 96.75 65.85 95.85 66.3 94.3 67.95 94.15 L68.35 94.1 69.0 94.1 99.85 94.1 116.15 94.1 M28.6 -116.5 L29.65 -114.1 13.8 -92.65 16.05 -87.25 19.05 -85.85 69.8 37.1 M8.15 -84.9 L5.15 -80.95 54.3 45.3 45.05 51.65 47.0 53.9 56.4 50.75 69.15 83.55 M16.05 -87.25 L14.2 -88.15 8.55 -85.45 8.15 -84.9 5.5 -89.6 -17.8 -87.0 -19.65 -88.45 M120.0 -10.85 L119.3 -10.5 118.8 -9.7 Q118.45 -8.45 119.65 -6.4 L121.2 -7.0 125.25 -8.65 131.7 -11.3 132.55 -10.55 Q133.3 -9.4 132.85 -6.8 L132.85 14.15 132.85 29.75 M136.95 29.75 L136.95 26.4 136.95 -7.15 Q136.25 -8.7 136.45 -9.7 L136.95 -10.5 136.95 -12.75 135.75 -15.05 Q134.1 -17.3 132.45 -17.3 L123.85 -12.8 120.0 -10.85 M136.95 -7.15 L137.35 -6.4 149.4 -11.3 150.25 -10.55 Q151.0 -9.4 150.55 -6.8 L150.55 29.75 M154.65 29.75 L154.65 -12.75 153.4 -15.05 Q151.75 -17.3 150.15 -17.3 L136.95 -10.5 M190.6 23.0 Q188.95 22.4 187.6 21.05 185.3 18.75 185.3 15.5 185.3 12.2 187.6 9.9 189.9 7.55 193.2 7.55 196.55 7.55 198.8 9.9 201.1 12.2 201.1 15.5 201.1 18.75 198.8 21.05 L196.6 22.65 196.6 116.75 205.9 116.75 205.9 125.1 211.55 125.1 211.55 137.1 211.15 137.1 211.15 144.6 197.6 144.6 197.6 145.15 197.6 154.75 Q197.6 157.65 195.5 159.7 193.45 161.8 190.55 161.8 187.6 161.8 185.55 159.7 183.45 157.65 183.45 154.75 L183.45 145.15 183.5 144.6 -180.65 144.6 -189.4 145.0 -189.4 145.15 -189.4 154.75 Q-189.4 157.65 -191.5 159.7 -193.5 161.8 -196.45 161.8 -199.4 161.8 -201.4 159.7 -203.5 157.65 -203.5 154.75 L-203.5 145.15 -211.05 145.2 -211.6 141.8 Q-211.95 138.75 -199.05 135.15 L-199.05 128.25 -207.8 128.25 Q-209.1 128.25 -210.0 127.35 -210.9 126.45 -210.9 125.15 -210.9 123.9 -210.0 122.95 -209.05 122.0 -207.8 122.0 L-184.05 122.0 Q-182.75 122.0 -181.85 122.95 -180.95 123.9 -180.95 125.15 -180.95 126.45 -181.85 127.35 -182.75 128.25 -184.05 128.25 L-192.8 128.25 -192.8 133.55 -184.5 131.85 57.95 131.85 57.95 123.2 60.4 119.8 Q63.25 116.6 65.2 117.1 L69.35 117.1 69.35 111.3 M196.6 22.65 Q195.05 23.4 193.2 23.4 L190.6 23.0 190.6 116.75 196.6 116.75 M211.15 137.1 L211.15 131.85 175.5 131.85 146.25 131.85 146.25 137.05 57.95 137.05 57.95 131.85 M183.5 144.6 L197.6 144.6 M175.5 131.85 L175.5 125.1 181.55 125.1 181.55 116.75 190.6 116.75 M181.55 125.1 L205.9 125.1 M134.85 117.1 L134.85 111.3 M146.25 131.85 L146.25 123.2 Q145.25 121.45 143.75 119.8 140.9 116.6 138.95 117.1 L134.85 117.1 69.35 117.1 M-119.45 -27.85 L-119.4 -27.7 -123.35 -23.75 -127.3 -23.75 -129.0 -16.95 -136.35 -15.8 -139.15 -21.45 -147.05 -20.9 -152.7 -29.4 -131.1 -41.55 M-192.8 128.25 L-199.05 128.25 M-192.8 133.55 L-198.25 134.9 -199.05 135.15 M-203.5 145.15 L-189.4 145.0" fill="none" stroke="#000000" stroke-linecap="butt" stroke-linejoin="miter-clip" stroke-miterlimit="10.0" stroke-width="1.0"/>
    <path d="M114.85 -6.85 L114.55 -28.3 114.35 -41.35 114.35 -41.4 M69.15 83.55 L69.8 37.1 M132.85 29.75 L136.95 29.75 138.1 29.75 150.55 29.75 154.65 29.75 161.95 29.75 164.2 33.15 164.2 57.45 160.8 59.7 160.7 59.7 115.8 59.7 115.4 29.75 124.7 29.75 126.2 29.75 114.85 -6.85 M114.35 -41.35 L123.85 -12.8 M136.95 26.4 L138.1 29.75 M126.2 29.75 L132.6 29.75 132.85 29.75 M125.25 -8.65 L132.85 14.15" fill="none" stroke="#000000" stroke-linecap="butt" stroke-linejoin="miter-clip" stroke-miterlimit="4.0" stroke-width="1.0"/>
    <path d="M135.45 96.55 Q135.45 97.4 134.5 97.4 L69.8 97.4 69.05 97.15 68.8 96.55 Q68.8 95.7 69.8 95.7 L134.5 95.7 Q135.45 95.7 135.45 96.55" fill="#ffffff" fill-opacity="0.8" fill-rule="evenodd" stroke="none"/>
    <path d="M9.7 -82.1 L11.15 -83.95 67.65 59.55 66.5 64.05 9.7 -82.1 M72.75 -158.5 L73.3 -155.15 -106.9 -46.1 -118.2 -44.4 -127.8 -39.3 -129.5 -42.15 -118.2 -47.8 -108.05 -48.9 72.75 -158.5 M77.5 -159.65 L77.5 -137.15 75.55 -137.05 72.95 92.65 70.3 92.65 73.7 -138.2 75.2 -138.5 75.2 -161.2 76.5 -166.25 Q79.05 -171.55 85.4 -172.65 L85.4 -172.85 99.7 -172.85 99.7 -172.65 Q103.45 -171.9 105.85 -169.8 104.15 -170.7 101.95 -171.1 L101.95 -171.35 99.8 -171.35 97.45 -171.35 92.15 -171.35 89.8 -171.35 87.65 -171.35 87.65 -171.1 Q81.35 -170.05 78.8 -164.75 L77.5 -159.65 M207.75 135.8 Q207.75 136.5 207.25 137.0 206.8 137.5 206.05 137.5 L-188.25 137.5 Q-188.95 137.5 -189.45 137.0 -189.95 136.5 -189.95 135.8 -189.95 135.1 -189.45 134.6 -188.95 134.1 -188.25 134.1 L206.05 134.1 Q206.8 134.1 207.25 134.6 207.75 135.1 207.75 135.8 M142.8 122.8 L142.45 123.45 141.6 123.65 61.55 123.65 60.7 123.45 60.3 122.8 Q60.3 121.95 61.55 121.95 L141.6 121.95 Q142.8 121.95 142.8 122.8" fill="#ffffff" fill-opacity="0.6" fill-rule="evenodd" stroke="none"/>
    <path d="M109.1 -140.85 L109.25 -140.85 110.1 -140.65 110.2 -140.6 110.2 -140.65 Q111.35 -140.2 112.85 -138.95 L116.15 94.1 99.85 94.1 104.6 -138.95 72.3 -138.95 73.6 -139.9 Q74.6 -140.5 75.35 -140.7 L75.4 -140.7 75.45 -140.75 75.75 -140.8 76.3 -140.85 109.1 -140.85" fill="#000000" fill-opacity="0.09803922" fill-rule="evenodd" stroke="none"/>
    <path d="M110.2 -140.65 L110.0 -161.2 Q110.0 -163.6 108.75 -166.25 106.2 -171.55 99.8 -172.65 L99.8 -172.85 85.5 -172.85 85.5 -172.65 Q79.2 -171.55 76.65 -166.25 L76.0 -163.7 75.95 -163.55 75.35 -161.2 75.4 -140.75 75.45 -140.75 75.75 -140.8 75.95 -140.85 76.3 -140.85 109.1 -140.85 109.25 -140.85 110.1 -140.7 110.2 -140.65 110.2 -140.6 110.1 -140.65 110.1 -140.7 M75.4 -140.7 L75.4 -140.75 75.35 -140.7 M75.45 -140.75 L75.4 -140.7 M76.3 -140.85 L75.75 -140.8" fill="none" stroke="#000000" stroke-linecap="round" stroke-linejoin="miter-clip" stroke-miterlimit="4.0" stroke-width="1.0"/>
    <path d="M110.2 -140.65 L110.65 -140.5 111.05 -140.3 111.1 -140.25 Q111.95 -139.8 113.0 -138.95 L116.25 94.1 M75.35 -140.7 Q74.6 -140.5 73.6 -139.9 L72.3 -138.95 69.0 94.1" fill="none" stroke="#000000" stroke-linecap="round" stroke-linejoin="miter-clip" stroke-miterlimit="4.0" stroke-width="1.0"/>
    <path d="M75.35 -140.7 L75.4 -140.7" fill="none" stroke="#000000" stroke-linecap="butt" stroke-linejoin="miter-clip" stroke-miterlimit="4.0" stroke-width="1.0"/>
  </g>
</svg>
