<?xml version="1.0" encoding="UTF-8" standalone="no"?>
<svg xmlns:xlink="http://www.w3.org/1999/xlink" height="194.1px" width="220.45px" xmlns="http://www.w3.org/2000/svg">
  <g transform="matrix(1.0, 0.0, 0.0, 1.0, 110.25, 95.85)">
    <path d="M-0.1 -95.35 L99.1 -94.75 95.1 -15.7 64.65 -19.4 Q28.6 -23.3 -0.1 -24.25 -28.65 -23.3 -64.85 -19.4 L-95.25 -15.7 -99.15 -94.75 -0.1 -95.35 M-68.65 77.15 Q-68.65 85.65 -74.6 91.75 -80.75 97.75 -89.25 97.75 -97.8 97.75 -103.75 91.75 -109.75 85.65 -109.75 77.15 -109.75 68.75 -103.75 62.65 -97.65 56.65 -89.25 56.65 -80.75 56.65 -74.6 62.65 -68.65 68.6 -68.65 77.15 M68.6 77.15 Q68.6 68.75 74.6 62.65 80.7 56.65 89.1 56.65 97.6 56.65 103.75 62.65 109.7 68.6 109.7 77.15 109.7 85.65 103.75 91.75 97.6 97.75 89.1 97.75 80.55 97.75 74.6 91.75 68.6 85.65 68.6 77.15" fill="#ffffff" fill-opacity="0.0" fill-rule="evenodd" stroke="none"/>
    <path d="M89.2 77.2 L94.25 61.05 Q95.65 61.5 99.1 63.25 L89.2 77.2 74.45 69.9 76.05 66.7 Q78.15 63.25 80.65 62.3 L89.2 77.2 M-87.3 78.65 L-75.9 65.4 -73.25 69.45 -87.3 78.65 M-94.8 59.8 L-89.5 80.4 -102.3 65.9 -99.55 62.9 Q-96.4 59.8 -94.8 59.8" fill="#ffffff" fill-rule="evenodd" stroke="none"/>
    <path d="M-98.05 -73.65 L-64.15 -94.95 -36.6 -95.05 -97.2 -58.45 -98.05 -73.65 M-34.2 -22.25 L-62.55 -19.6 21.2 -95.2 40.7 -95.05 -34.2 -22.25 M-0.65 -24.2 L-11.75 -23.75 66.05 -94.95 74.35 -94.85 -0.65 -24.2" fill="#ffffff" fill-opacity="0.4" fill-rule="evenodd" stroke="none"/>
    <path d="M-0.1 -95.35 L99.1 -94.75 95.1 -15.7 64.65 -19.4 Q28.6 -23.3 -0.1 -24.25 -28.65 -23.3 -64.85 -19.4 L-95.25 -15.7 -99.15 -94.75 -0.1 -95.35 M-68.65 77.15 Q-68.65 85.65 -74.6 91.75 -80.75 97.75 -89.25 97.75 -97.8 97.75 -103.75 91.75 -109.75 85.65 -109.75 77.15 -109.75 68.75 -103.75 62.65 -97.65 56.65 -89.25 56.65 -80.75 56.65 -74.6 62.65 -68.65 68.6 -68.65 77.15 M68.6 77.15 Q68.6 85.65 74.6 91.75 80.55 97.75 89.1 97.75 97.6 97.75 103.75 91.75 109.7 85.65 109.7 77.15 109.7 68.6 103.75 62.65 97.6 56.65 89.1 56.65 80.7 56.65 74.6 62.65 68.6 68.75 68.6 77.15" fill="none" stroke="#000000" stroke-linecap="butt" stroke-linejoin="miter-clip" stroke-miterlimit="10.0" stroke-width="1.0"/>
  </g>
</svg>
