<?xml version="1.0" encoding="UTF-8" standalone="no"?>
<svg xmlns:xlink="http://www.w3.org/1999/xlink" height="750.05px" width="938.75px" xmlns="http://www.w3.org/2000/svg">
  <g transform="matrix(1.0, 0.0, 0.0, 1.0, 0.5, 0.5)">
    <path d="M914.95 12.1 L812.3 12.1 812.3 245.55 914.95 245.55 914.95 12.1 M937.75 261.1 L792.45 261.1 792.45 0.0 937.75 0.0 937.75 261.1 M914.95 733.5 L914.95 500.05 812.3 500.05 812.3 733.5 914.95 733.5 M937.75 487.9 L937.75 749.05 792.45 749.05 792.45 487.9 937.75 487.9 M394.4 261.1 L394.4 0.0 539.7 0.0 539.7 261.1 394.4 261.1 M516.85 12.1 L414.25 12.1 414.25 245.55 516.85 245.55 516.85 12.1 M145.3 0.0 L145.3 261.1 0.0 261.1 0.0 0.0 145.3 0.0 M122.45 12.1 L19.85 12.1 19.85 245.55 122.45 245.55 122.45 12.1 M145.3 487.9 L145.3 749.05 0.0 749.05 0.0 487.9 145.3 487.9 M19.85 500.05 L19.85 733.5 122.45 733.5 122.45 500.05 19.85 500.05" fill="#ffffff" fill-opacity="0.0" fill-rule="evenodd" stroke="none"/>
    <path d="M937.75 261.1 L792.45 261.1 792.45 0.0 937.75 0.0 937.75 261.1 M937.75 487.9 L937.75 749.05 792.45 749.05 792.45 487.9 937.75 487.9 M394.4 261.1 L394.4 0.0 539.7 0.0 539.7 261.1 394.4 261.1 M145.3 0.0 L145.3 261.1 0.0 261.1 0.0 0.0 145.3 0.0 M145.3 487.9 L145.3 749.05 0.0 749.05 0.0 487.9 145.3 487.9" fill="none" stroke="#000000" stroke-linecap="round" stroke-linejoin="miter-clip" stroke-miterlimit="4.0" stroke-opacity="0.6" stroke-width="1.0"/>
    <path d="M914.95 12.1 L914.95 245.55 812.3 245.55 812.3 12.1 914.95 12.1 M914.95 733.5 L914.95 500.05 812.3 500.05 812.3 733.5 914.95 733.5 M516.85 12.1 L516.85 245.55 414.25 245.55 414.25 12.1 516.85 12.1 M122.45 12.1 L122.45 245.55 19.85 245.55 19.85 12.1 122.45 12.1 M19.85 500.05 L19.85 733.5 122.45 733.5 122.45 500.05 19.85 500.05" fill="none" stroke="#000000" stroke-linecap="round" stroke-linejoin="miter-clip" stroke-miterlimit="4.0" stroke-width="1.0"/>
  </g>
</svg>
