<?xml version="1.0" encoding="UTF-8" standalone="no"?>
<svg xmlns:xlink="http://www.w3.org/1999/xlink" height="231.7px" width="1175.35px" xmlns="http://www.w3.org/2000/svg">
  <g transform="matrix(1.0, 0.0, 0.0, 1.0, 587.65, 115.85)">
    <path d="M-556.35 -68.35 Q-552.6 -68.4 -545.9 -65.3 -543.7 -66.9 -541.3 -68.3 L-537.5 -70.4 Q-538.5 -76.5 -537.35 -80.6 -534.75 -90.1 -520.9 -77.4 L-521.3 -77.15 -517.95 -78.15 -510.9 -79.8 -510.35 -81.15 Q-508.4 -85.6 -506.25 -87.8 -500.1 -94.2 -494.5 -80.4 L-481.15 -80.4 -480.85 -81.15 Q-478.9 -85.55 -476.75 -87.8 -470.65 -94.2 -465.0 -80.45 L-451.65 -80.45 -451.4 -81.15 Q-449.45 -85.6 -447.3 -87.8 -441.15 -94.2 -435.6 -80.5 L-422.15 -80.5 -421.9 -81.15 Q-419.95 -85.55 -417.8 -87.8 -411.7 -94.2 -406.1 -80.5 L-392.7 -80.5 -392.45 -81.15 Q-390.5 -85.6 -388.35 -87.8 -382.2 -94.15 -376.6 -80.55 L-363.2 -80.55 -362.95 -81.15 Q-361.0 -85.6 -358.85 -87.8 -352.7 -94.15 -347.15 -80.55 L-333.65 -80.55 -333.45 -81.15 Q-331.5 -85.55 -329.35 -87.8 -323.25 -94.15 -317.7 -80.6 L-304.2 -80.6 -304.0 -81.15 Q-302.05 -85.6 -299.9 -87.8 -293.75 -94.15 -288.2 -80.6 L-274.7 -80.65 -274.5 -81.15 Q-272.55 -85.6 -270.4 -87.8 -264.3 -94.15 -258.75 -80.65 L-245.2 -80.65 -245.0 -81.15 Q-243.05 -85.6 -240.9 -87.8 -234.8 -94.15 -229.25 -80.7 L-215.7 -80.7 -215.55 -81.15 Q-213.6 -85.6 -211.45 -87.8 -205.35 -94.15 -199.8 -80.7 L-186.2 -80.75 -186.05 -81.15 Q-184.1 -85.6 -181.95 -87.8 -175.85 -94.1 -170.35 -80.75 L-156.7 -80.75 -156.55 -81.15 Q-154.6 -85.6 -152.45 -87.8 -146.35 -94.1 -140.85 -80.8 L-127.25 -80.8 -127.1 -81.15 Q-125.15 -85.6 -123.0 -87.8 -116.9 -94.1 -111.4 -80.85 L-97.7 -80.85 -97.6 -81.15 Q-95.65 -85.6 -93.5 -87.8 -87.45 -94.1 -81.95 -80.85 L-68.2 -80.85 -68.1 -81.15 Q-66.15 -85.55 -64.0 -87.8 -58.0 -94.1 -52.45 -80.9 L-38.75 -80.9 -38.65 -81.15 Q-36.7 -85.6 -34.55 -87.8 -28.5 -94.1 -23.0 -80.95 L-9.2 -80.95 -9.15 -81.15 Q-7.2 -85.6 -5.05 -87.8 1.0 -94.05 6.5 -80.95 L20.3 -80.95 20.35 -81.15 Q22.3 -85.55 24.45 -87.8 30.45 -94.05 35.95 -81.0 L49.75 -81.0 49.8 -81.15 Q51.75 -85.6 53.9 -87.8 59.95 -94.05 65.45 -81.05 L79.25 -81.05 79.3 -81.15 Q81.25 -85.6 83.4 -87.8 89.45 -94.05 94.9 -81.05 L108.8 -81.05 108.8 -81.15 Q110.75 -85.55 112.9 -87.8 118.85 -94.05 124.35 -81.1 L138.25 -81.1 138.25 -81.15 Q140.2 -85.6 142.35 -87.8 148.35 -94.05 153.8 -81.15 L167.75 -81.15 Q169.7 -85.6 171.85 -87.8 177.85 -94.0 183.3 -81.15 L197.3 -81.2 Q199.2 -85.55 201.35 -87.8 207.3 -94.0 212.75 -81.2 L226.75 -81.2 Q228.65 -85.6 230.8 -87.8 236.8 -94.0 242.2 -81.25 L256.25 -81.25 Q258.15 -85.6 260.3 -87.8 266.3 -94.0 271.7 -81.25 L285.75 -81.25 Q287.7 -85.6 289.8 -87.8 295.75 -94.0 301.2 -81.3 L315.25 -81.3 Q317.15 -85.65 319.25 -87.8 325.2 -94.0 330.6 -81.3 L344.75 -81.35 Q346.65 -85.65 348.75 -87.8 354.7 -93.95 360.1 -81.35 L374.25 -81.35 Q376.15 -85.6 378.25 -87.8 384.15 -93.95 389.6 -81.4 L403.75 -81.4 Q405.6 -85.65 407.7 -87.8 413.65 -93.95 419.05 -81.4 L433.25 -81.45 Q435.1 -85.65 437.2 -87.8 443.15 -93.95 448.5 -81.45 L462.75 -81.45 Q464.65 -85.65 466.7 -87.8 472.6 -93.95 478.0 -81.5 L480.8 -81.5 492.0 -80.95 492.05 -81.15 Q494.0 -85.6 496.15 -87.8 502.8 -94.7 508.75 -78.15 L518.1 -75.3 520.65 -77.3 Q524.6 -80.1 527.6 -80.85 536.35 -83.2 533.75 -67.85 L536.2 -66.35 539.95 -63.75 541.25 -64.45 Q545.7 -66.4 548.75 -66.6 557.75 -67.25 552.35 -52.75 L553.35 -51.65 555.65 -48.95 559.4 -49.65 Q564.2 -50.2 567.2 -49.5 576.5 -47.3 565.45 -33.85 L567.45 -29.9 570.75 -29.65 Q575.55 -29.05 578.3 -27.6 586.5 -23.3 573.65 -13.5 L574.75 -9.3 576.5 -9.15 Q581.3 -8.55 584.05 -7.1 592.7 -2.6 577.7 8.15 L577.9 12.3 577.95 13.45 577.55 14.5 577.4 15.0 579.75 17.5 Q582.9 21.15 583.95 24.05 587.2 32.75 570.65 31.3 L568.55 35.4 569.05 36.0 Q572.05 39.8 572.95 42.75 575.8 51.5 559.7 49.4 L556.3 53.8 556.7 53.4 558.35 57.35 Q559.95 61.9 559.95 65.0 559.85 74.55 544.25 66.7 539.8 70.8 534.95 74.5 L535.45 78.35 Q535.85 83.15 535.05 86.1 532.55 95.0 520.15 84.25 515.85 86.7 511.3 88.85 511.6 95.95 509.7 100.35 505.85 109.1 494.55 95.65 489.2 97.5 483.7 99.0 482.8 104.9 480.55 108.45 475.6 116.2 467.05 102.65 L462.65 103.35 450.1 104.8 Q448.3 110.2 445.5 113.25 439.35 120.0 433.15 105.25 L414.7 105.25 Q412.9 110.35 410.3 113.25 404.15 120.0 397.95 105.25 L379.5 105.25 Q377.7 110.35 375.05 113.25 368.9 120.0 362.75 105.25 L344.25 105.25 Q342.45 110.35 339.85 113.25 333.7 120.0 327.55 105.25 L309.05 105.25 Q307.25 110.35 304.65 113.25 298.5 120.0 292.3 105.25 L273.85 105.25 Q272.05 110.35 269.4 113.25 263.25 120.0 257.1 105.25 L238.65 105.25 Q236.85 110.35 234.2 113.25 228.05 120.0 221.9 105.25 L203.4 105.25 Q201.6 110.35 199.0 113.25 192.85 120.0 186.65 105.25 L168.2 105.25 Q166.4 110.35 163.75 113.25 157.6 120.0 151.45 105.25 L133.0 105.25 Q131.2 110.35 128.55 113.25 122.4 120.0 116.25 105.25 L97.75 105.25 Q95.95 110.35 93.35 113.25 87.2 120.0 81.0 105.25 L62.55 105.25 Q60.75 110.35 58.1 113.25 51.95 120.0 45.75 105.25 L27.35 105.25 Q25.55 110.35 22.9 113.25 16.75 120.0 10.55 105.25 L-7.9 105.25 Q-9.65 110.35 -12.3 113.25 -18.45 120.0 -24.7 105.25 L-43.1 105.25 Q-44.9 110.35 -47.55 113.25 -53.7 120.0 -59.9 105.25 L-78.3 105.25 Q-80.1 110.35 -82.75 113.25 -88.9 120.0 -95.1 105.25 L-113.55 105.25 Q-115.3 110.35 -117.95 113.25 -124.1 120.0 -130.35 105.25 L-148.75 105.2 Q-150.5 110.35 -153.15 113.25 -159.3 120.0 -165.55 105.2 L-183.95 105.2 Q-185.75 110.35 -188.4 113.25 -194.55 120.0 -200.75 105.2 L-219.2 105.2 Q-220.95 110.35 -223.6 113.25 -229.75 120.0 -236.0 105.2 L-254.4 105.2 Q-256.15 110.35 -258.8 113.25 -264.95 120.0 -271.2 105.2 L-289.6 105.2 Q-291.4 110.35 -294.05 113.25 -300.2 120.0 -306.4 105.2 L-324.85 105.2 Q-326.6 110.35 -329.25 113.25 -335.4 120.0 -341.6 105.2 L-357.0 105.2 Q-358.8 110.35 -361.45 113.25 -367.6 120.0 -373.8 105.2 L-392.25 105.2 Q-394.0 110.35 -396.65 113.25 -402.8 120.0 -409.05 105.2 L-425.2 105.2 Q-428.75 110.55 -432.5 112.9 -440.0 117.5 -442.05 103.1 L-455.6 99.95 Q-458.7 104.3 -462.0 106.35 -469.75 111.15 -471.65 95.65 L-482.3 92.35 -484.2 91.7 Q-487.35 96.1 -490.65 98.15 -498.8 103.2 -500.5 85.7 -506.65 83.2 -512.3 80.55 -516.8 84.35 -520.75 85.55 -529.45 88.1 -527.25 72.7 L-528.35 72.05 -538.4 65.5 Q-543.6 68.75 -547.9 69.25 -557.3 70.4 -551.75 54.3 L-557.0 48.7 Q-562.95 51.0 -567.4 50.75 -577.2 50.1 -567.65 33.95 L-570.15 28.15 Q-576.75 28.55 -580.95 26.85 -590.1 23.2 -575.95 10.8 -576.05 6.7 -576.3 3.25 -582.0 1.3 -585.05 -1.55 -592.0 -8.0 -575.9 -14.2 -575.3 -19.4 -574.05 -24.25 -579.35 -28.65 -581.25 -32.9 -585.25 -41.6 -567.6 -41.05 L-565.25 -45.1 -561.15 -50.95 -558.7 -53.85 -559.75 -56.5 Q-561.05 -60.1 -561.1 -63.05 -561.15 -68.3 -556.35 -68.35 M564.25 5.55 L563.35 0.1 Q560.6 -15.05 553.85 -27.8 544.2 -45.55 529.15 -55.35 509.85 -67.9 480.75 -68.4 L-506.0 -67.3 -507.95 -67.0 -514.5 -65.5 Q-525.45 -62.6 -534.5 -57.05 -547.2 -49.2 -554.2 -38.15 -563.1 -24.05 -563.45 -3.9 L-563.45 -2.95 Q-563.45 6.35 -561.05 14.8 -558.25 24.9 -552.1 33.8 L-549.0 37.9 Q-538.95 50.25 -521.6 60.8 -489.0 80.4 -430.35 92.1 L438.25 92.15 Q448.6 92.15 460.75 90.35 480.55 87.4 497.75 80.45 541.8 62.5 560.25 22.65 562.7 17.2 564.75 11.4 L564.6 9.25 564.25 5.55" fill="#000000" fill-opacity="0.2" fill-rule="evenodd" stroke="none"/>
    <path d="M553.35 -51.65 L552.35 -52.75 Q557.75 -67.25 548.75 -66.6 545.7 -66.4 541.25 -64.45 L539.95 -63.75 536.2 -66.35 533.75 -67.85 Q536.35 -83.2 527.6 -80.85 524.6 -80.1 520.65 -77.3 L518.1 -75.3 508.75 -78.15 Q502.8 -94.7 496.15 -87.8 494.0 -85.6 492.05 -81.15 L492.0 -80.95 480.8 -81.5 478.0 -81.5 Q472.6 -93.95 466.7 -87.8 464.65 -85.65 462.75 -81.45 L448.5 -81.45 Q443.15 -93.95 437.2 -87.8 435.1 -85.65 433.25 -81.45 L419.05 -81.4 Q413.65 -93.95 407.7 -87.8 405.6 -85.65 403.75 -81.4 L389.6 -81.4 Q384.15 -93.95 378.25 -87.8 376.15 -85.6 374.25 -81.35 L360.1 -81.35 Q354.7 -93.95 348.75 -87.8 346.65 -85.65 344.75 -81.35 L330.6 -81.3 Q325.2 -94.0 319.25 -87.8 317.15 -85.65 315.25 -81.3 L301.2 -81.3 Q295.75 -94.0 289.8 -87.8 287.7 -85.6 285.75 -81.25 L271.7 -81.25 Q266.3 -94.0 260.3 -87.8 258.15 -85.6 256.25 -81.25 L242.2 -81.25 Q236.8 -94.0 230.8 -87.8 228.65 -85.6 226.75 -81.2 L212.75 -81.2 Q207.3 -94.0 201.35 -87.8 199.2 -85.55 197.3 -81.2 L183.3 -81.15 Q177.85 -94.0 171.85 -87.8 169.7 -85.6 167.75 -81.15 L153.8 -81.15 Q148.35 -94.05 142.35 -87.8 140.2 -85.6 138.25 -81.15 L138.25 -81.1 124.35 -81.1 Q118.85 -94.05 112.9 -87.8 110.75 -85.55 108.8 -81.15 L108.8 -81.05 94.9 -81.05 Q89.45 -94.05 83.4 -87.8 81.25 -85.6 79.3 -81.15 L79.25 -81.05 65.45 -81.05 Q59.95 -94.05 53.9 -87.8 51.75 -85.6 49.8 -81.15 L49.75 -81.0 35.95 -81.0 Q30.45 -94.05 24.45 -87.8 22.3 -85.55 20.35 -81.15 L20.3 -80.95 6.5 -80.95 Q1.0 -94.05 -5.05 -87.8 -7.2 -85.6 -9.15 -81.15 L-9.2 -80.95 -23.0 -80.95 Q-28.5 -94.1 -34.55 -87.8 -36.7 -85.6 -38.65 -81.15 L-38.75 -80.9 -52.45 -80.9 Q-58.0 -94.1 -64.0 -87.8 -66.15 -85.55 -68.1 -81.15 L-68.2 -80.85 -81.95 -80.85 Q-87.45 -94.1 -93.5 -87.8 -95.65 -85.6 -97.6 -81.15 L-97.7 -80.85 -111.4 -80.85 Q-116.9 -94.1 -123.0 -87.8 -125.15 -85.6 -127.1 -81.15 L-127.25 -80.8 -140.85 -80.8 Q-146.35 -94.1 -152.45 -87.8 -154.6 -85.6 -156.55 -81.15 L-156.7 -80.75 -170.35 -80.75 Q-175.85 -94.1 -181.95 -87.8 -184.1 -85.6 -186.05 -81.15 L-186.2 -80.75 -199.8 -80.7 Q-205.35 -94.15 -211.45 -87.8 -213.6 -85.6 -215.55 -81.15 L-215.7 -80.7 -229.25 -80.7 Q-234.8 -94.15 -240.9 -87.8 -243.05 -85.6 -245.0 -81.15 L-245.2 -80.65 -258.75 -80.65 Q-264.3 -94.15 -270.4 -87.8 -272.55 -85.6 -274.5 -81.15 L-274.7 -80.65 -288.2 -80.6 Q-293.75 -94.15 -299.9 -87.8 -302.05 -85.6 -304.0 -81.15 L-304.2 -80.6 -317.7 -80.6 Q-323.25 -94.15 -329.35 -87.8 -331.5 -85.55 -333.45 -81.15 L-333.65 -80.55 -347.15 -80.55 Q-352.7 -94.15 -358.85 -87.8 -361.0 -85.6 -362.95 -81.15 L-363.2 -80.55 -376.6 -80.55 Q-382.2 -94.15 -388.35 -87.8 -390.5 -85.6 -392.45 -81.15 L-392.7 -80.5 -406.1 -80.5 Q-411.7 -94.2 -417.8 -87.8 -419.95 -85.55 -421.9 -81.15 L-422.15 -80.5 -435.6 -80.5 Q-441.15 -94.2 -447.3 -87.8 -449.45 -85.6 -451.4 -81.15 L-451.65 -80.45 -465.0 -80.45 Q-470.65 -94.2 -476.75 -87.8 -478.9 -85.55 -480.85 -81.15 L-481.15 -80.4 -494.5 -80.4 Q-500.1 -94.2 -506.25 -87.8 -508.4 -85.6 -510.35 -81.15 L-510.9 -79.8 -517.95 -78.15 -521.3 -77.15 -520.9 -77.4 Q-534.75 -90.1 -537.35 -80.6 -538.5 -76.5 -537.5 -70.4 L-541.3 -68.3 Q-543.7 -66.9 -545.9 -65.3 -552.6 -68.4 -556.35 -68.35 -548.4 -93.4 -536.4 -108.8 L549.5 -115.35 579.7 -56.4 553.9 -56.4 Q553.4 -54.15 553.35 -51.65 M-561.05 14.8 Q-563.45 6.35 -563.45 -2.95 L-563.45 -3.9 Q-563.1 -24.05 -554.2 -38.15 -547.2 -49.2 -534.5 -57.05 -525.45 -62.6 -514.5 -65.5 L-507.95 -67.0 -506.0 -67.3 480.75 -68.4 Q509.85 -67.9 529.15 -55.35 544.2 -45.55 553.85 -27.8 560.6 -15.05 563.35 0.1 L564.25 5.55 Q563.2 14.1 560.25 22.65 541.8 62.5 497.75 80.45 480.55 87.4 460.75 90.35 448.6 92.15 438.25 92.15 L-430.35 92.1 Q-489.0 80.4 -521.6 60.8 -538.95 50.25 -549.0 37.9 -556.9 26.55 -561.05 14.8" fill="#ffffff" fill-opacity="0.0" fill-rule="evenodd" stroke="none"/>
    <path d="M-556.35 -68.35 Q-552.6 -68.4 -545.9 -65.3 -543.7 -66.9 -541.3 -68.3 L-537.5 -70.4 Q-538.5 -76.5 -537.35 -80.6 -534.75 -90.1 -520.9 -77.4 L-521.3 -77.15 -517.95 -78.15 -510.9 -79.8 -510.35 -81.15 Q-508.4 -85.6 -506.25 -87.8 -500.1 -94.2 -494.5 -80.4 L-481.15 -80.4 -480.85 -81.15 Q-478.9 -85.55 -476.75 -87.8 -470.65 -94.2 -465.0 -80.45 L-451.65 -80.45 -451.4 -81.15 Q-449.45 -85.6 -447.3 -87.8 -441.15 -94.2 -435.6 -80.5 L-422.15 -80.5 -421.9 -81.15 Q-419.95 -85.55 -417.8 -87.8 -411.7 -94.2 -406.1 -80.5 L-392.7 -80.5 -392.45 -81.15 Q-390.5 -85.6 -388.35 -87.8 -382.2 -94.15 -376.6 -80.55 L-363.2 -80.55 -362.95 -81.15 Q-361.0 -85.6 -358.85 -87.8 -352.7 -94.15 -347.15 -80.55 L-333.65 -80.55 -333.45 -81.15 Q-331.5 -85.55 -329.35 -87.8 -323.25 -94.15 -317.7 -80.6 L-304.2 -80.6 -304.0 -81.15 Q-302.05 -85.6 -299.9 -87.8 -293.75 -94.15 -288.2 -80.6 L-274.7 -80.65 -274.5 -81.15 Q-272.55 -85.6 -270.4 -87.8 -264.3 -94.15 -258.75 -80.65 L-245.2 -80.65 -245.0 -81.15 Q-243.05 -85.6 -240.9 -87.8 -234.8 -94.15 -229.25 -80.7 L-215.7 -80.7 -215.55 -81.15 Q-213.6 -85.6 -211.45 -87.8 -205.35 -94.15 -199.8 -80.7 L-186.2 -80.75 -186.05 -81.15 Q-184.1 -85.6 -181.95 -87.8 -175.85 -94.1 -170.35 -80.75 L-156.7 -80.75 -156.55 -81.15 Q-154.6 -85.6 -152.45 -87.8 -146.35 -94.1 -140.85 -80.8 L-127.25 -80.8 -127.1 -81.15 Q-125.15 -85.6 -123.0 -87.8 -116.9 -94.1 -111.4 -80.85 L-97.7 -80.85 -97.6 -81.15 Q-95.65 -85.6 -93.5 -87.8 -87.45 -94.1 -81.95 -80.85 L-68.2 -80.85 -68.1 -81.15 Q-66.15 -85.55 -64.0 -87.8 -58.0 -94.1 -52.45 -80.9 L-38.75 -80.9 -38.65 -81.15 Q-36.7 -85.6 -34.55 -87.8 -28.5 -94.1 -23.0 -80.95 L-9.2 -80.95 -9.15 -81.15 Q-7.2 -85.6 -5.05 -87.8 1.0 -94.05 6.5 -80.95 L20.3 -80.95 20.35 -81.15 Q22.3 -85.55 24.45 -87.8 30.45 -94.05 35.95 -81.0 L49.75 -81.0 49.8 -81.15 Q51.75 -85.6 53.9 -87.8 59.95 -94.05 65.45 -81.05 L79.25 -81.05 79.3 -81.15 Q81.25 -85.6 83.4 -87.8 89.45 -94.05 94.9 -81.05 L108.8 -81.05 108.8 -81.15 Q110.75 -85.55 112.9 -87.8 118.85 -94.05 124.35 -81.1 L138.25 -81.1 138.25 -81.15 Q140.2 -85.6 142.35 -87.8 148.35 -94.05 153.8 -81.15 L167.75 -81.15 Q169.7 -85.6 171.85 -87.8 177.85 -94.0 183.3 -81.15 L197.3 -81.2 Q199.2 -85.55 201.35 -87.8 207.3 -94.0 212.75 -81.2 L226.75 -81.2 Q228.65 -85.6 230.8 -87.8 236.8 -94.0 242.2 -81.25 L256.25 -81.25 Q258.15 -85.6 260.3 -87.8 266.3 -94.0 271.7 -81.25 L285.75 -81.25 Q287.7 -85.6 289.8 -87.8 295.75 -94.0 301.2 -81.3 L315.25 -81.3 Q317.15 -85.65 319.25 -87.8 325.2 -94.0 330.6 -81.3 L344.75 -81.35 Q346.65 -85.65 348.75 -87.8 354.7 -93.95 360.1 -81.35 L374.25 -81.35 Q376.15 -85.6 378.25 -87.8 384.15 -93.95 389.6 -81.4 L403.75 -81.4 Q405.6 -85.65 407.7 -87.8 413.65 -93.95 419.05 -81.4 L433.25 -81.45 Q435.1 -85.65 437.2 -87.8 443.15 -93.95 448.5 -81.45 L462.75 -81.45 Q464.65 -85.65 466.7 -87.8 472.6 -93.95 478.0 -81.5 L480.8 -81.5 492.0 -80.95 492.05 -81.15 Q494.0 -85.6 496.15 -87.8 502.8 -94.7 508.75 -78.15 L518.1 -75.3 520.65 -77.3 Q524.6 -80.1 527.6 -80.85 536.35 -83.2 533.75 -67.85 L536.2 -66.35 539.95 -63.75 541.25 -64.45 Q545.7 -66.4 548.75 -66.6 557.75 -67.25 552.35 -52.75 L553.35 -51.65 555.65 -48.95 559.4 -49.65 Q564.2 -50.2 567.2 -49.5 576.5 -47.3 565.45 -33.85 L567.45 -29.9 570.75 -29.65 Q575.55 -29.05 578.3 -27.6 586.5 -23.3 573.65 -13.5 L574.75 -9.3 576.5 -9.15 Q581.3 -8.55 584.05 -7.1 592.7 -2.6 577.7 8.15 L577.9 12.3 577.95 13.45 577.55 14.5 577.4 15.0 579.75 17.5 Q582.9 21.15 583.95 24.05 587.2 32.75 570.65 31.3 L568.55 35.4 569.05 36.0 Q572.05 39.8 572.95 42.75 575.8 51.5 559.7 49.4 L556.3 53.8 556.7 53.4 558.35 57.35 Q559.95 61.9 559.95 65.0 559.85 74.55 544.25 66.7 539.8 70.8 534.95 74.5 L535.45 78.35 Q535.85 83.15 535.05 86.1 532.55 95.0 520.15 84.25 515.85 86.7 511.3 88.85 511.6 95.95 509.7 100.35 505.85 109.1 494.55 95.65 489.2 97.5 483.7 99.0 482.8 104.9 480.55 108.45 475.6 116.2 467.05 102.65 L462.65 103.35 450.1 104.8 Q448.3 110.2 445.5 113.25 439.35 120.0 433.15 105.25 L414.7 105.25 Q412.9 110.35 410.3 113.25 404.15 120.0 397.95 105.25 L379.5 105.25 Q377.7 110.35 375.05 113.25 368.9 120.0 362.75 105.25 L344.25 105.25 Q342.45 110.35 339.85 113.25 333.7 120.0 327.55 105.25 L309.05 105.25 Q307.25 110.35 304.65 113.25 298.5 120.0 292.3 105.25 L273.85 105.25 Q272.05 110.35 269.4 113.25 263.25 120.0 257.1 105.25 L238.65 105.25 Q236.85 110.35 234.2 113.25 228.05 120.0 221.9 105.25 L203.4 105.25 Q201.6 110.35 199.0 113.25 192.85 120.0 186.65 105.25 L168.2 105.25 Q166.4 110.35 163.75 113.25 157.6 120.0 151.45 105.25 L133.0 105.25 Q131.2 110.35 128.55 113.25 122.4 120.0 116.25 105.25 L97.75 105.25 Q95.95 110.35 93.35 113.25 87.2 120.0 81.0 105.25 L62.55 105.25 Q60.75 110.35 58.1 113.25 51.95 120.0 45.75 105.25 L27.35 105.25 Q25.55 110.35 22.9 113.25 16.75 120.0 10.55 105.25 L-7.9 105.25 Q-9.65 110.35 -12.3 113.25 -18.45 120.0 -24.7 105.25 L-43.1 105.25 Q-44.9 110.35 -47.55 113.25 -53.7 120.0 -59.9 105.25 L-78.3 105.25 Q-80.1 110.35 -82.75 113.25 -88.9 120.0 -95.1 105.25 L-113.55 105.25 Q-115.3 110.35 -117.95 113.25 -124.1 120.0 -130.35 105.25 L-148.75 105.2 Q-150.5 110.35 -153.15 113.25 -159.3 120.0 -165.55 105.2 L-183.95 105.2 Q-185.75 110.35 -188.4 113.25 -194.55 120.0 -200.75 105.2 L-219.2 105.2 Q-220.95 110.35 -223.6 113.25 -229.75 120.0 -236.0 105.2 L-254.4 105.2 Q-256.15 110.35 -258.8 113.25 -264.95 120.0 -271.2 105.2 L-289.6 105.2 Q-291.4 110.35 -294.05 113.25 -300.2 120.0 -306.4 105.2 L-324.85 105.2 Q-326.6 110.35 -329.25 113.25 -335.4 120.0 -341.6 105.2 L-357.0 105.2 Q-358.8 110.35 -361.45 113.25 -367.6 120.0 -373.8 105.2 L-392.25 105.2 Q-394.0 110.35 -396.65 113.25 -402.8 120.0 -409.05 105.2 L-425.2 105.2 Q-428.75 110.55 -432.5 112.9 -440.0 117.5 -442.05 103.1 L-455.6 99.95 Q-458.7 104.3 -462.0 106.35 -469.75 111.15 -471.65 95.65 L-482.3 92.35 -484.2 91.7 Q-487.35 96.1 -490.65 98.15 -498.8 103.2 -500.5 85.7 -506.65 83.2 -512.3 80.55 -516.8 84.35 -520.75 85.55 -529.45 88.1 -527.25 72.7 L-528.35 72.05 -538.4 65.5 Q-543.6 68.75 -547.9 69.25 -557.3 70.4 -551.75 54.3 L-557.0 48.7 Q-562.95 51.0 -567.4 50.75 -577.2 50.1 -567.65 33.95 L-570.15 28.15 Q-576.75 28.55 -580.95 26.85 -590.1 23.2 -575.95 10.8 -576.05 6.7 -576.3 3.25 -582.0 1.3 -585.05 -1.55 -592.0 -8.0 -575.9 -14.2 -575.3 -19.4 -574.05 -24.25 -579.35 -28.65 -581.25 -32.9 -585.25 -41.6 -567.6 -41.05 L-565.25 -45.1 -561.15 -50.95 -558.7 -53.85 -559.75 -56.5 Q-561.05 -60.1 -561.1 -63.05 -561.15 -68.3 -556.35 -68.35 M564.25 5.55 L563.35 0.1 Q560.6 -15.05 553.85 -27.8 544.2 -45.55 529.15 -55.35 509.85 -67.9 480.75 -68.4 L-506.0 -67.3 -507.95 -67.0 -514.5 -65.5 Q-525.45 -62.6 -534.5 -57.05 -547.2 -49.2 -554.2 -38.15 -563.1 -24.05 -563.45 -3.9 L-563.45 -2.95 Q-563.45 6.35 -561.05 14.8 -558.25 24.9 -552.1 33.8 L-549.0 37.9 Q-538.95 50.25 -521.6 60.8 -489.0 80.4 -430.35 92.1 L438.25 92.15 Q448.6 92.15 460.75 90.35 480.55 87.4 497.75 80.45 541.8 62.5 560.25 22.65 562.7 17.2 564.75 11.4 L564.6 9.25 564.25 5.55" fill="none" stroke="#000000" stroke-linecap="round" stroke-linejoin="miter-clip" stroke-miterlimit="4.0" stroke-opacity="0.4" stroke-width="1.0"/>
    <path d="M553.35 -51.65 Q553.4 -54.15 553.9 -56.4 L579.7 -56.4 549.5 -115.35 -536.4 -108.8 Q-548.4 -93.4 -556.35 -68.35 Z" fill="none" stroke="#000000" stroke-linecap="round" stroke-linejoin="miter-clip" stroke-miterlimit="4.0" stroke-opacity="0.6" stroke-width="1.0"/>
  </g>
</svg>
