<?xml version="1.0" encoding="UTF-8" standalone="no"?>
<svg xmlns:xlink="http://www.w3.org/1999/xlink" height="98.2px" width="700.15px" xmlns="http://www.w3.org/2000/svg">
  <g transform="matrix(1.0, 0.0, 0.0, 1.0, 350.05, 49.1)">
    <path d="M-349.55 19.8 L-349.55 -5.5 -349.55 -27.95 -349.55 -48.6 349.6 -48.6 349.6 -27.95 349.6 -5.5 349.6 22.65 349.6 48.6 -349.55 48.6 -349.55 22.65 -349.55 21.7 -349.55 19.8 M349.6 22.65 L-349.55 22.65 349.6 22.65 M-349.55 -5.5 L349.6 -5.5 -349.55 -5.5 M349.6 -27.95 L-349.55 -27.95 349.6 -27.95" fill="#ffffff" fill-opacity="0.0" fill-rule="evenodd" stroke="none"/>
    <path d="M-349.55 21.7 L-349.6 21.7 -349.6 19.8 -349.55 19.8 -349.55 21.7" fill="#f1f1f1" fill-rule="evenodd" stroke="none"/>
    <path d="M-349.55 19.8 L-349.55 -5.5 -349.55 -27.95 -349.55 -48.6 349.6 -48.6 349.6 -27.95 349.6 -5.5 349.6 22.65 349.6 48.6 -349.55 48.6 -349.55 22.65 -349.55 21.7 -349.55 19.8" fill="none" stroke="#000000" stroke-linecap="round" stroke-linejoin="miter-clip" stroke-miterlimit="4.0" stroke-width="1.0"/>
    <path d="M-349.55 -27.95 L349.6 -27.95 M349.6 -5.5 L-349.55 -5.5 M-349.55 22.65 L349.6 22.65" fill="none" stroke="#000000" stroke-linecap="round" stroke-linejoin="miter-clip" stroke-miterlimit="4.0" stroke-opacity="0.6" stroke-width="1.0"/>
  </g>
</svg>
