<?xml version="1.0" encoding="UTF-8" standalone="no"?>
<svg xmlns:xlink="http://www.w3.org/1999/xlink" height="96.65px" width="464.6px" xmlns="http://www.w3.org/2000/svg">
  <g transform="matrix(1.0, 0.0, 0.0, 1.0, 232.3, 48.35)">
    <path d="M-108.7 12.55 L-100.0 -12.15 Q-90.05 -7.15 -79.85 -4.85 -69.7 -2.55 -57.75 -2.55 -49.9 -2.55 -39.25 -4.7 -25.55 -7.45 -16.4 -12.45 L-14.7 -10.85 -15.45 -39.45 Q-14.5 -39.75 -10.7 -36.75 -6.25 -33.25 -5.95 -33.1 0.5 -29.85 5.55 -28.5 10.45 -27.25 16.25 -27.25 22.85 -27.25 29.45 -29.3 37.35 -31.75 49.55 -38.25 L52.4 -36.05 56.5 -9.65 Q55.55 -10.4 52.45 -9.2 L46.25 -6.35 Q41.9 -4.5 37.65 -3.1 35.05 -2.25 29.35 -1.2 21.6 0.2 16.25 0.2 5.95 0.2 -3.8 -4.3 -8.8 -6.6 -14.7 -10.85 -8.8 -6.6 -3.8 -4.3 5.95 0.2 16.25 0.2 21.6 0.2 29.35 -1.2 35.05 -2.25 37.65 -3.1 41.9 -4.5 46.25 -6.35 L52.45 -9.2 Q55.55 -10.4 56.5 -9.65 L52.4 -36.05 49.55 -38.25 Q37.35 -31.75 29.45 -29.3 22.85 -27.25 16.25 -27.25 10.45 -27.25 5.55 -28.5 0.5 -29.85 -5.95 -33.1 -6.25 -33.25 -10.7 -36.75 -14.5 -39.75 -15.45 -39.45 L-14.7 -10.85 -16.4 -12.45 Q-25.55 -7.45 -39.25 -4.7 -49.9 -2.55 -57.75 -2.55 -69.7 -2.55 -79.85 -4.85 -90.05 -7.15 -100.0 -12.15 L-108.7 12.55 -206.05 12.55 -154.85 -36.25 -142.65 -47.85 -87.55 -47.85 152.85 -47.85 165.2 -34.75 195.8 -2.15 Q193.85 -2.75 187.35 -5.95 L181.15 -9.05 Q179.6 -9.05 177.0 -6.6 173.75 -3.55 170.8 -2.25 163.45 0.85 156.55 0.85 150.3 0.85 144.6 -0.55 137.75 -2.2 128.45 -6.55 L126.0 -8.25 Q124.95 -9.05 124.4 -9.05 123.35 -9.05 118.1 -6.05 112.15 -2.65 109.5 -1.8 100.4 1.2 91.2 1.2 82.45 1.2 72.2 -1.85 61.35 -5.1 56.5 -9.65 L60.0 12.55 56.5 -9.65 Q61.35 -5.1 72.2 -1.85 82.45 1.2 91.2 1.2 100.4 1.2 109.5 -1.8 112.15 -2.65 118.1 -6.05 123.35 -9.05 124.4 -9.05 124.95 -9.05 126.0 -8.25 L128.45 -6.55 117.05 -33.15 113.75 -35.4 Q112.25 -36.55 111.75 -36.55 111.2 -36.55 108.4 -34.6 105.05 -32.25 103.8 -31.65 99.95 -29.75 95.7 -28.4 L90.3 -27.25 82.0 -26.3 Q75.35 -26.3 69.25 -28.25 62.85 -30.35 52.4 -36.05 L50.6 -47.45 52.4 -36.05 Q62.85 -30.35 69.25 -28.25 75.35 -26.3 82.0 -26.3 L90.3 -27.25 95.7 -28.4 Q99.95 -29.75 103.8 -31.65 105.05 -32.25 108.4 -34.6 111.2 -36.55 111.75 -36.55 112.25 -36.55 113.75 -35.4 L117.05 -33.15 128.45 -6.55 Q137.75 -2.2 144.6 -0.55 150.3 0.85 156.55 0.85 163.45 0.85 170.8 -2.25 173.75 -3.55 177.0 -6.6 179.6 -9.05 181.15 -9.05 L187.35 -5.95 Q193.85 -2.75 195.8 -2.15 L209.65 12.55 60.0 12.55 -108.7 12.55 M111.45 -46.15 L117.05 -33.15 111.45 -46.15 M117.05 -33.15 Q129.0 -26.65 140.55 -26.65 146.75 -26.65 153.4 -29.7 159.9 -32.7 162.65 -36.55 L165.2 -34.75 162.65 -36.55 Q159.9 -32.7 153.4 -29.7 146.75 -26.65 140.55 -26.65 129.0 -26.65 117.05 -33.15 M-100.0 -12.15 L-90.45 -39.65 Q-99.25 -33.75 -111.15 -30.8 -120.15 -28.6 -127.95 -28.6 -136.4 -28.6 -143.3 -31.0 L-154.85 -36.25 -143.3 -31.0 Q-136.4 -28.6 -127.95 -28.6 -120.15 -28.6 -111.15 -30.8 -99.25 -33.75 -90.45 -39.65 L-100.0 -12.15 Q-108.3 -7.3 -120.85 -4.15 -133.1 -1.1 -143.45 -1.1 -150.8 -1.1 -157.65 -2.9 -165.35 -4.95 -174.7 -9.85 -165.35 -4.95 -157.65 -2.9 -150.8 -1.1 -143.45 -1.1 -133.1 -1.1 -120.85 -4.15 -108.3 -7.3 -100.0 -12.15 M-15.6 -46.15 L-15.45 -39.45 Q-20.8 -35.8 -31.75 -32.95 -42.85 -30.05 -51.9 -30.05 -62.2 -30.05 -71.4 -32.35 -80.65 -34.65 -90.45 -39.65 L-87.55 -47.85 -90.45 -39.65 Q-80.65 -34.65 -71.4 -32.35 -62.2 -30.05 -51.9 -30.05 -42.85 -30.05 -31.75 -32.95 -20.8 -35.8 -15.45 -39.45 L-15.6 -46.15 M135.75 10.35 L128.45 -6.55 135.75 10.35 M-14.25 9.05 L-14.7 -10.85 -14.25 9.05" fill="#ffffff" fill-opacity="0.0" fill-rule="evenodd" stroke="none"/>
    <path d="M-108.7 12.55 L60.0 12.55 209.65 12.55 231.8 12.55 231.8 47.8 -231.8 47.8 -231.8 12.55 -206.05 12.55 -108.7 12.55" fill="#ffffff" fill-opacity="0.14901961" fill-rule="evenodd" stroke="none"/>
    <path d="M-14.7 -10.85 Q-8.8 -6.6 -3.8 -4.3 5.95 0.2 16.25 0.2 21.6 0.2 29.35 -1.2 35.05 -2.25 37.65 -3.1 41.9 -4.5 46.25 -6.35 L52.45 -9.2 Q55.55 -10.4 56.5 -9.65 L52.4 -36.05 49.55 -38.25 Q37.35 -31.75 29.45 -29.3 22.85 -27.25 16.25 -27.25 10.45 -27.25 5.55 -28.5 0.5 -29.85 -5.95 -33.1 -6.25 -33.25 -10.7 -36.75 -14.5 -39.75 -15.45 -39.45 L-14.7 -10.85 -16.4 -12.45 Q-25.55 -7.45 -39.25 -4.7 -49.9 -2.55 -57.75 -2.55 -69.7 -2.55 -79.85 -4.85 -90.05 -7.15 -100.0 -12.15 L-108.7 12.55 60.0 12.55 56.5 -9.65 Q61.35 -5.1 72.2 -1.85 82.45 1.2 91.2 1.2 100.4 1.2 109.5 -1.8 112.15 -2.65 118.1 -6.05 123.35 -9.05 124.4 -9.05 124.95 -9.05 126.0 -8.25 L128.45 -6.55 117.05 -33.15 113.75 -35.4 Q112.25 -36.55 111.75 -36.55 111.2 -36.55 108.4 -34.6 105.05 -32.25 103.8 -31.65 99.95 -29.75 95.7 -28.4 L90.3 -27.25 82.0 -26.3 Q75.35 -26.3 69.25 -28.25 62.85 -30.35 52.4 -36.05 L50.6 -47.45 M117.05 -33.15 L111.45 -46.15 M128.45 -6.55 Q137.75 -2.2 144.6 -0.55 150.3 0.85 156.55 0.85 163.45 0.85 170.8 -2.25 173.75 -3.55 177.0 -6.6 179.6 -9.05 181.15 -9.05 L187.35 -5.95 Q193.85 -2.75 195.8 -2.15 M165.2 -34.75 L162.65 -36.55 Q159.9 -32.7 153.4 -29.7 146.75 -26.65 140.55 -26.65 129.0 -26.65 117.05 -33.15 M-87.55 -47.85 L-90.45 -39.65 Q-80.65 -34.65 -71.4 -32.35 -62.2 -30.05 -51.9 -30.05 -42.85 -30.05 -31.75 -32.95 -20.8 -35.8 -15.45 -39.45 L-15.6 -46.15 M-100.0 -12.15 Q-108.3 -7.3 -120.85 -4.15 -133.1 -1.1 -143.45 -1.1 -150.8 -1.1 -157.65 -2.9 -165.35 -4.95 -174.7 -9.85 M-154.85 -36.25 L-143.3 -31.0 Q-136.4 -28.6 -127.95 -28.6 -120.15 -28.6 -111.15 -30.8 -99.25 -33.75 -90.45 -39.65 L-100.0 -12.15 M-206.05 12.55 L-108.7 12.55 M209.65 12.55 L60.0 12.55 M-14.7 -10.85 L-14.25 9.05 M128.45 -6.55 L135.75 10.35" fill="none" stroke="#000000" stroke-linecap="round" stroke-linejoin="round" stroke-opacity="0.6" stroke-width="1.0"/>
    <path d="M195.8 -2.15 L165.2 -34.75 152.85 -47.85 -87.55 -47.85 -142.65 -47.85 -154.85 -36.25 -206.05 12.55 -231.8 12.55 -231.8 47.8 231.8 47.8 231.8 12.55 209.65 12.55 195.8 -2.15" fill="none" stroke="#000000" stroke-linecap="round" stroke-linejoin="round" stroke-width="1.0"/>
  </g>
</svg>
