<?xml version="1.0" encoding="UTF-8" standalone="no"?>
<svg xmlns:xlink="http://www.w3.org/1999/xlink" height="1075.75px" width="2427.55px" xmlns="http://www.w3.org/2000/svg">
  <g transform="matrix(1.0, 0.0, 0.0, 1.0, 1213.75, 537.85)">
    <path d="M1211.3 -448.5 L1132.9 -448.5 1132.9 -374.1 1211.3 -374.1 1211.3 -448.5 M695.3 -450.2 Q694.9 -450.2 694.6 -449.9 L677.05 -449.2 676.75 -449.9 676.05 -450.2 568.4 -450.2 Q568.0 -450.2 567.7 -449.9 567.4 -449.6 567.4 -449.2 L567.4 -216.75 Q567.4 -216.35 567.7 -216.05 568.0 -215.75 568.4 -215.75 L676.05 -215.75 676.15 -215.75 793.65 -215.75 Q794.05 -215.75 794.35 -216.05 L794.65 -216.75 794.65 -449.2 794.35 -449.9 793.65 -450.2 695.3 -450.2 M866.35 -183.0 L866.35 -114.5 1019.2 -114.5 1019.2 -183.0 866.35 -183.0 M962.4 -102.65 L962.4 -34.15 1115.25 -34.15 1115.25 -102.65 962.4 -102.65 M1213.3 -364.3 L1164.25 -364.3 1164.25 -289.85 1213.3 -289.85 1213.3 -191.85 1164.25 -191.85 1164.25 -117.4 1213.3 -117.4 1213.3 -19.4 1164.25 -19.4 1164.25 55.05 1213.3 55.05 1213.3 153.05 1164.25 153.05 1164.25 227.5 1213.3 227.5 1213.3 325.5 1164.25 325.5 1164.25 399.95 1213.3 399.95 1213.3 497.95 1164.25 497.95 1164.25 537.4 -1167.1 537.4 -1167.15 501.85 -1213.25 501.85 -1213.25 492.05 -1135.75 492.05 -1135.75 417.6 -1213.25 417.6 -1213.25 403.9 -1167.15 403.9 -1167.15 329.4 -1213.25 329.4 -1213.25 319.6 -1135.75 319.6 -1135.75 245.15 -1213.25 245.15 -1213.25 231.4 -1167.15 231.4 -1167.15 156.95 -1213.25 156.95 -1213.25 147.15 -1135.75 147.15 -1135.75 72.7 -1213.25 72.7 -1213.25 58.95 -1167.15 58.95 -1167.15 -15.5 -1213.25 -15.5 -1213.25 -25.3 -1135.75 -25.3 -1135.75 -99.75 -1213.25 -99.75 -1213.25 -113.45 -1167.15 -113.45 -1167.15 -187.95 -1213.25 -187.95 -1213.25 -197.75 -1135.75 -197.75 -1135.75 -272.2 -1213.25 -272.2 -1213.25 -285.95 -1167.15 -285.95 -1167.15 -360.4 -1213.25 -360.4 -1213.25 -370.2 -1135.75 -370.2 -1135.75 -444.6 -1213.25 -444.6 -1213.25 -537.35 1213.3 -537.35 1213.3 -364.3 M1132.9 -103.65 L1132.9 -29.2 1211.3 -29.2 1211.3 -103.65 1132.9 -103.65 M1211.3 -201.65 L1211.3 -276.1 1132.9 -276.1 1132.9 -201.65 1211.3 -201.65 M1025.1 -12.55 L872.25 -12.55 872.25 56.0 1025.1 56.0 1025.1 -12.55 M677.25 37.15 L677.15 37.15 542.4 37.15 Q542.0 37.15 541.7 37.45 541.4 37.75 541.4 38.15 L541.4 325.4 Q541.4 325.8 541.7 326.1 L542.4 326.4 677.2 326.4 Q694.3 325.8 694.6 326.1 L690.4 326.4 819.65 326.4 820.35 326.1 820.65 325.4 820.65 38.15 820.35 37.45 819.65 37.15 677.25 37.15 Q694.3 38.1 678.15 38.15 L677.85 37.45 677.25 37.15 M-101.75 -452.2 L-102.45 -451.9 -102.75 -451.2 -102.75 -222.75 -102.45 -222.05 Q-102.15 -221.75 -101.75 -221.75 L6.05 -221.75 Q19.9 -222.35 20.2 -222.05 L15.85 -221.75 125.5 -221.75 Q125.9 -221.75 126.2 -222.05 L126.5 -222.75 126.5 -451.2 126.2 -451.9 125.5 -452.2 16.8 -452.15 20.2 -451.9 Q19.9 -451.6 6.0 -452.2 L-101.75 -452.2 M1132.9 241.2 L1132.9 315.7 1211.3 315.7 1211.3 241.2 1132.9 241.2 M1211.3 143.25 L1211.3 68.8 1132.9 68.8 1132.9 143.25 1211.3 143.25 M1211.3 488.15 L1211.3 413.7 1132.9 413.7 1132.9 488.15 1211.3 488.15 M-577.7 -447.2 Q-577.7 -447.6 -578.0 -447.9 L-578.7 -448.2 -682.25 -447.3 -698.45 -447.2 Q-698.45 -447.6 -698.75 -447.9 L-699.45 -448.2 -805.95 -448.2 Q-806.35 -448.2 -806.65 -447.9 L-806.95 -447.2 -806.95 -215.95 -806.65 -215.25 Q-806.35 -214.95 -805.95 -214.95 L-699.45 -214.95 -699.35 -214.95 Q-682.25 -215.55 -681.95 -215.25 -681.65 -214.95 -681.25 -214.95 L-578.7 -214.95 Q-578.3 -214.95 -578.0 -215.25 -577.7 -215.55 -577.7 -215.95 L-577.7 -447.2 M-1095.2 -329.95 L-1095.2 -261.45 -942.35 -261.45 -942.35 -329.95 -1095.2 -329.95 M-1001.15 -235.9 L-1001.15 -167.4 -848.3 -167.4 -848.3 -235.9 -1001.15 -235.9 M-539.05 330.4 L-538.35 330.1 Q-538.05 329.8 -538.05 329.4 L-538.05 38.15 Q-538.05 37.75 -538.35 37.45 -538.65 37.15 -539.05 37.15 L-665.25 37.15 Q-665.65 37.15 -665.95 37.45 L-666.25 38.15 -680.3 37.45 Q-680.6 37.15 -681.0 37.15 L-815.95 37.15 Q-816.35 37.15 -816.65 37.45 L-816.95 38.15 -816.95 329.4 -816.65 330.1 -815.95 330.4 -681.0 330.4 -680.3 330.1 Q-680.0 329.8 -665.3 330.4 L-665.25 330.4 -539.05 330.4 M-1054.05 408.8 L-1054.05 477.3 -901.2 477.3 -901.2 408.8 -1054.05 408.8 M-705.25 477.3 L-705.25 408.8 -858.1 408.8 -858.1 477.3 -705.25 477.3" fill="#ffffff" fill-opacity="0.0" fill-rule="evenodd" stroke="none"/>
    <path d="M1211.3 -448.5 L1211.3 -374.1 1132.9 -374.1 1132.9 -448.5 1211.3 -448.5 M962.4 -102.65 L1115.25 -102.65 1115.25 -34.15 962.4 -34.15 962.4 -102.65 M-1213.25 -444.6 L-1135.75 -444.6 -1135.75 -370.2 -1213.25 -370.2 -1213.25 -444.6 M-1213.25 -272.2 L-1135.75 -272.2 -1135.75 -197.75 -1213.25 -197.75 -1213.25 -272.2 M-1213.25 -99.75 L-1135.75 -99.75 -1135.75 -25.3 -1213.25 -25.3 -1213.25 -99.75 M-1213.25 72.7 L-1135.75 72.7 -1135.75 147.15 -1213.25 147.15 -1213.25 72.7 M-1213.25 245.15 L-1135.75 245.15 -1135.75 319.6 -1213.25 319.6 -1213.25 245.15 M-1213.25 417.6 L-1135.75 417.6 -1135.75 492.05 -1213.25 492.05 -1213.25 417.6 M1211.3 -201.65 L1132.9 -201.65 1132.9 -276.1 1211.3 -276.1 1211.3 -201.65 M1132.9 -103.65 L1211.3 -103.65 1211.3 -29.2 1132.9 -29.2 1132.9 -103.65 M1211.3 143.25 L1132.9 143.25 1132.9 68.8 1211.3 68.8 1211.3 143.25 M1132.9 241.2 L1211.3 241.2 1211.3 315.7 1132.9 315.7 1132.9 241.2 M1211.3 488.15 L1132.9 488.15 1132.9 413.7 1211.3 413.7 1211.3 488.15 M-1095.2 -329.95 L-942.35 -329.95 -942.35 -261.45 -1095.2 -261.45 -1095.2 -329.95" fill="#000000" fill-opacity="0.4" fill-rule="evenodd" stroke="none"/>
    <path d="M866.35 -183.0 L1019.2 -183.0 1019.2 -114.5 866.35 -114.5 866.35 -183.0 M1213.3 -289.85 L1164.25 -289.85 1164.25 -364.3 1213.3 -364.3 1213.3 -289.85 M-1213.25 -360.4 L-1167.15 -360.4 -1167.15 -285.95 -1213.25 -285.95 -1213.25 -360.4 M-1213.25 -187.95 L-1167.15 -187.95 -1167.15 -113.45 -1213.25 -113.45 -1213.25 -187.95 M-1213.25 -15.5 L-1167.15 -15.5 -1167.15 58.95 -1213.25 58.95 -1213.25 -15.5 M-1213.25 156.95 L-1167.15 156.95 -1167.15 231.4 -1213.25 231.4 -1213.25 156.95 M-1213.25 329.4 L-1167.15 329.4 -1167.15 403.9 -1213.25 403.9 -1213.25 329.4 M-1213.25 501.85 L-1167.15 501.85 -1167.1 537.4 -1213.25 537.4 -1213.25 501.85 M1164.25 537.4 L1164.25 497.95 1213.3 497.95 1213.3 537.4 1164.25 537.4 M1213.3 399.95 L1164.25 399.95 1164.25 325.5 1213.3 325.5 1213.3 399.95 M1213.3 227.5 L1164.25 227.5 1164.25 153.05 1213.3 153.05 1213.3 227.5 M1213.3 55.05 L1164.25 55.05 1164.25 -19.4 1213.3 -19.4 1213.3 55.05 M1213.3 -117.4 L1164.25 -117.4 1164.25 -191.85 1213.3 -191.85 1213.3 -117.4 M-1054.05 408.8 L-901.2 408.8 -901.2 477.3 -1054.05 477.3 -1054.05 408.8" fill="#000000" fill-opacity="0.14901961" fill-rule="evenodd" stroke="none"/>
    <path d="M1025.1 -12.55 L1025.1 56.0 872.25 56.0 872.25 -12.55 1025.1 -12.55 M-1001.15 -235.9 L-848.3 -235.9 -848.3 -167.4 -1001.15 -167.4 -1001.15 -235.9 M-705.25 477.3 L-858.1 477.3 -858.1 408.8 -705.25 408.8 -705.25 477.3" fill="#000000" fill-opacity="0.047058824" fill-rule="evenodd" stroke="none"/>
    <path d="M1211.3 -448.5 L1211.3 -374.1 1132.9 -374.1 1132.9 -448.5 1211.3 -448.5 M1213.3 -289.85 L1164.25 -289.85 1164.25 -364.3 1213.3 -364.3 1213.3 -537.35 -1213.25 -537.35 -1213.25 -444.6 -1135.75 -444.6 -1135.75 -370.2 -1213.25 -370.2 -1213.25 -360.4 -1167.15 -360.4 -1167.15 -285.95 -1213.25 -285.95 -1213.25 -272.2 -1135.75 -272.2 -1135.75 -197.75 -1213.25 -197.75 -1213.25 -187.95 -1167.15 -187.95 -1167.15 -113.45 -1213.25 -113.45 -1213.25 -99.75 -1135.75 -99.75 -1135.75 -25.3 -1213.25 -25.3 -1213.25 -15.5 -1167.15 -15.5 -1167.15 58.95 -1213.25 58.95 -1213.25 72.7 -1135.75 72.7 -1135.75 147.15 -1213.25 147.15 -1213.25 156.95 -1167.15 156.95 -1167.15 231.4 -1213.25 231.4 -1213.25 245.15 -1135.75 245.15 -1135.75 319.6 -1213.25 319.6 -1213.25 329.4 -1167.15 329.4 -1167.15 403.9 -1213.25 403.9 -1213.25 417.6 -1135.75 417.6 -1135.75 492.05 -1213.25 492.05 -1213.25 501.85 -1167.15 501.85 -1167.1 537.4 1164.25 537.4 1164.25 497.95 1213.3 497.95 1213.3 399.95 1164.25 399.95 1164.25 325.5 1213.3 325.5 1213.3 227.5 1164.25 227.5 1164.25 153.05 1213.3 153.05 1213.3 55.05 1164.25 55.05 1164.25 -19.4 1213.3 -19.4 1213.3 -117.4 1164.25 -117.4 1164.25 -191.85 1213.3 -191.85 1213.3 -289.85 1213.3 -364.3 M1211.3 -201.65 L1132.9 -201.65 1132.9 -276.1 1211.3 -276.1 1211.3 -201.65 M1132.9 -103.65 L1211.3 -103.65 1211.3 -29.2 1132.9 -29.2 1132.9 -103.65 M1213.3 -117.4 L1213.3 -191.85 M1211.3 143.25 L1132.9 143.25 1132.9 68.8 1211.3 68.8 1211.3 143.25 M1132.9 241.2 L1211.3 241.2 1211.3 315.7 1132.9 315.7 1132.9 241.2 M1213.3 227.5 L1213.3 153.05 M1211.3 488.15 L1132.9 488.15 1132.9 413.7 1211.3 413.7 1211.3 488.15 M1164.25 537.4 L1213.3 537.4 1213.3 497.95 M1213.3 399.95 L1213.3 325.5 M1213.3 55.05 L1213.3 -19.4 M-1213.25 -360.4 L-1213.25 -285.95 M-1213.25 -187.95 L-1213.25 -113.45 M-1213.25 -99.75 L-1213.25 -25.3 M-1213.25 -272.2 L-1213.25 -197.75 M-1213.25 -444.6 L-1213.25 -370.2 M-1213.25 72.7 L-1213.25 147.15 M-1213.25 245.15 L-1213.25 319.6 M-1213.25 156.95 L-1213.25 231.4 M-1213.25 417.6 L-1213.25 492.05 M-1213.25 501.85 L-1213.25 537.4 -1167.1 537.4 M-1213.25 329.4 L-1213.25 403.9 M-1213.25 -15.5 L-1213.25 58.95" fill="none" stroke="#000000" stroke-linecap="round" stroke-linejoin="miter-clip" stroke-miterlimit="4.0" stroke-width="1.0"/>
  </g>
</svg>
