<?xml version="1.0" encoding="UTF-8" standalone="no"?>
<svg xmlns:xlink="http://www.w3.org/1999/xlink" height="2295.3px" width="5613.6px" xmlns="http://www.w3.org/2000/svg">
  <g transform="matrix(1.0, 0.0, 0.0, 1.0, 2806.8, 1147.65)">
    <path d="M1869.5 -1070.05 L1920.6 -1086.6 1921.2 -1086.75 1923.15 -1087.25 1924.45 -1087.6 1925.05 -1087.75 1925.65 -1087.9 1926.25 -1088.05 1926.95 -1088.2 1927.65 -1088.4 1928.85 -1088.7 1929.45 -1088.85 1930.1 -1089.0 1932.15 -1089.45 1932.75 -1089.6 1933.5 -1089.8 1935.7 -1090.3 Q1965.9 -1097.15 1987.35 -1099.1 L1987.35 -1036.7 2042.0 -1044.5 2042.0 -1122.5 Q2090.75 -1132.25 2199.95 -1136.15 2254.5 -1138.1 2299.35 -1138.1 L2299.35 -1044.5 2361.75 -1044.5 2361.75 -1145.9 Q2415.35 -1150.75 2499.2 -1137.15 2541.15 -1130.35 2572.35 -1122.55 L2587.95 -1028.9 2642.55 -1013.3 2642.55 -1106.9 Q2671.8 -1092.25 2695.2 -1055.2 2706.9 -1036.7 2712.75 -1021.1 L2712.75 -861.25 Q2678.15 -869.3 2619.55 -878.75 2502.3 -897.6 2382.3 -904.6 2214.2 -914.4 2064.55 -899.05 1963.1 -888.65 1873.35 -866.9 1963.1 -888.65 2064.55 -899.05 2214.2 -914.4 2382.3 -904.6 2502.3 -897.6 2619.55 -878.75 2678.15 -869.3 2712.75 -861.25 L2712.75 850.8 2759.5 881.95 2806.3 1147.15 1865.7 1140.75 1862.6 963.9 1893.8 878.05 1893.75 871.55 1882.1 -401.05 1873.35 -866.9 1869.5 -1070.05 M2645.7 -341.4 Q2617.25 -349.6 2579.45 -355.7 2503.8 -367.8 2456.9 -357.1 L2464.1 -257.95 2486.5 -259.95 2538.55 -261.85 Q2617.75 -261.7 2641.2 -241.4 L2645.7 -341.4 M2712.75 850.8 L2607.55 860.1 Q2477.1 870.45 2351.05 875.65 2078.0 886.85 1893.75 871.55 2078.0 886.85 2351.05 875.65 2477.1 870.45 2607.55 860.1 L2712.75 850.8 M2507.65 -490.9 Q2431.7 -500.9 2385.15 -488.85 L2395.1 -389.95 2417.45 -392.55 Q2444.75 -395.3 2469.45 -395.95 2548.6 -398.0 2572.65 -378.4 L2574.3 -478.5 Q2545.65 -485.9 2507.65 -490.9 M2077.1 -46.2 L2147.3 -46.2 2147.3 -186.55 2077.1 -186.55 2077.1 -46.2 M2506.8 -222.2 Q2430.7 -230.95 2384.3 -218.25 L2395.85 -119.5 2418.15 -122.45 Q2445.35 -125.6 2470.1 -126.65 2549.2 -129.95 2573.5 -110.7 L2573.65 -210.85 Q2544.9 -217.8 2506.8 -222.2 M2143.4 297.0 L2143.4 437.4 2213.6 437.4 2213.6 297.0 2143.4 297.0 M-2712.7 -861.25 L-2712.7 -1021.1 Q-2706.85 -1036.7 -2695.15 -1055.2 -2671.8 -1092.25 -2642.5 -1106.9 L-2642.5 -1013.3 -2587.9 -1028.9 -2572.3 -1122.55 Q-2541.1 -1130.35 -2499.2 -1137.15 -2415.35 -1150.75 -2361.75 -1145.9 L-2361.75 -1044.5 -2299.35 -1044.5 -2299.35 -1138.1 Q-2254.5 -1138.1 -2199.9 -1136.15 -2090.7 -1132.25 -2041.95 -1122.5 L-2041.95 -1044.5 -1987.35 -1036.7 -1987.35 -1099.1 Q-1965.9 -1097.15 -1935.7 -1090.3 -1875.25 -1076.65 -1831.4 -1052.3 L-1823.55 -982.15 -1784.55 -958.7 -1785.55 -1016.25 Q-1783.35 -1013.55 -1776.3 -1007.0 -1762.15 -993.8 -1737.8 -974.35 L-1737.8 -888.5 -1753.35 -888.5 -1811.85 -892.4 -1814.9 -851.25 Q-1929.4 -885.2 -2064.5 -899.05 -2214.15 -914.4 -2382.25 -904.6 -2502.25 -897.6 -2619.5 -878.75 -2678.1 -869.3 -2712.7 -861.25 -2678.1 -869.3 -2619.5 -878.75 -2502.25 -897.6 -2382.25 -904.6 -2214.15 -914.4 -2064.5 -899.05 -1929.4 -885.2 -1814.9 -851.25 L-1823.55 -736.4 -1850.85 -732.5 -1858.65 -830.0 -1936.7 -810.5 -1936.7 -510.25 -1882.1 -401.05 -1893.7 871.5 Q-2077.95 886.85 -2351.0 875.65 -2477.05 870.45 -2607.55 860.1 -2672.75 854.95 -2712.7 850.8 -2672.75 854.95 -2607.55 860.1 -2477.05 870.45 -2351.0 875.65 -2077.95 886.85 -1893.7 871.5 L-1893.75 878.05 -1862.55 963.9 -1865.7 1140.75 -2806.3 1147.15 -2759.5 881.95 -2712.7 850.8 -2712.7 -861.25 M-2507.65 -490.9 Q-2545.65 -485.9 -2574.3 -478.5 L-2572.65 -378.4 Q-2548.6 -398.0 -2469.45 -395.95 -2444.75 -395.3 -2417.45 -392.55 L-2395.1 -389.95 -2385.1 -488.85 Q-2431.7 -500.9 -2507.65 -490.9 M-2486.45 -259.95 L-2464.05 -257.95 -2456.9 -357.1 Q-2503.75 -367.8 -2579.4 -355.7 -2617.25 -349.6 -2645.7 -341.4 L-2641.2 -241.4 Q-2617.75 -261.7 -2538.55 -261.85 L-2486.45 -259.95 M-2506.75 -222.2 Q-2544.8 -217.8 -2573.6 -210.85 L-2573.5 -110.7 Q-2549.2 -129.95 -2470.05 -126.65 -2445.35 -125.6 -2418.1 -122.45 L-2395.8 -119.5 -2384.3 -218.25 Q-2430.65 -230.95 -2506.75 -222.2 M-2143.35 297.0 L-2213.55 297.0 -2213.55 437.4 -2143.35 437.4 -2143.35 297.0 M-2147.25 -186.55 L-2147.25 -46.2 -2077.1 -46.2 -2077.1 -186.55 -2147.25 -186.55" fill="#ffffff" fill-opacity="0.0" fill-rule="evenodd" stroke="none"/>
    <path d="M2645.7 -341.4 L2641.2 -241.4 Q2617.75 -261.7 2538.55 -261.85 L2486.5 -259.95 2464.1 -257.95 2456.9 -357.1 Q2503.8 -367.8 2579.45 -355.7 2617.25 -349.6 2645.7 -341.4 M-2486.45 -259.95 L-2538.55 -261.85 Q-2617.75 -261.7 -2641.2 -241.4 L-2645.7 -341.4 Q-2617.25 -349.6 -2579.4 -355.7 -2503.75 -367.8 -2456.9 -357.1 L-2464.05 -257.95 -2486.45 -259.95" fill="#000000" fill-opacity="0.4" fill-rule="evenodd" stroke="none"/>
    <path d="M1775.4 -1006.15 L1776.35 -1007.05 1777.55 -1008.2 1776.35 -1007.0 1775.4 -1006.15 M1839.05 -1056.35 L1840.05 -1056.9 1841.15 -1057.45 1839.05 -1056.35 M1869.05 -1069.9 L1869.5 -1070.1 1869.5 -1070.05 1869.05 -1069.9" fill="#8c8c8c" fill-rule="evenodd" stroke="none"/>
    <path d="M1869.5 -1070.05 L1873.35 -866.9 Q1801.9 -849.65 1737.8 -825.2 1801.9 -849.65 1873.35 -866.9 L1882.1 -401.05 1893.75 871.55 1893.8 878.05 1862.6 963.9 1865.7 1140.75 1659.8 1139.35 1706.6 897.55 1737.8 866.35 1737.8 850.8 1737.8 -825.2 1737.8 -974.35 1738.1 -974.55 1740.15 -976.2 1740.3 -976.3 1740.45 -976.45 1740.85 -976.75 1741.45 -977.25 1758.75 -991.45 1774.45 -1005.25 1775.4 -1006.15 1776.35 -1007.0 1777.55 -1008.2 1778.7 -1009.35 1779.55 -1010.2 1785.6 -1016.25 1784.6 -958.7 1823.6 -982.15 1831.4 -1052.3 1831.9 -1052.55 1839.05 -1056.35 1841.15 -1057.45 1863.6 -1067.75 1865.55 -1068.55 1869.05 -1069.9 1869.5 -1070.05 M2507.65 -490.9 Q2545.65 -485.9 2574.3 -478.5 L2572.65 -378.4 Q2548.6 -398.0 2469.45 -395.95 2444.75 -395.3 2417.45 -392.55 L2395.1 -389.95 2385.15 -488.85 Q2431.7 -500.9 2507.65 -490.9 M1737.8 850.8 Q1805.6 864.2 1893.75 871.55 1805.6 864.2 1737.8 850.8 M-1814.9 -851.25 L-1811.85 -892.4 -1753.35 -888.5 -1737.8 -888.5 -1737.8 -825.2 -1737.8 850.8 -1737.8 866.35 -1706.6 897.55 -1659.75 1139.35 -1865.7 1140.75 -1862.55 963.9 -1893.75 878.05 -1893.7 871.5 -1882.1 -401.05 -1936.7 -510.25 -1936.7 -810.5 -1858.65 -830.0 -1850.85 -732.5 -1823.55 -736.4 -1814.9 -851.25 Q-1775.1 -839.45 -1737.8 -825.2 -1775.1 -839.45 -1814.9 -851.25 M-2507.65 -490.9 Q-2431.7 -500.9 -2385.1 -488.85 L-2395.1 -389.95 -2417.45 -392.55 Q-2444.75 -395.3 -2469.45 -395.95 -2548.6 -398.0 -2572.65 -378.4 L-2574.3 -478.5 Q-2545.65 -485.9 -2507.65 -490.9 M-1737.8 850.8 Q-1805.6 864.2 -1893.7 871.5 -1805.6 864.2 -1737.8 850.8" fill="#000000" fill-opacity="0.29803923" fill-rule="evenodd" stroke="none"/>
    <path d="M1867.9 -1069.55 L1869.05 -1069.9 1865.55 -1068.55 1867.9 -1069.55" fill="#c5c5c5" fill-rule="evenodd" stroke="none"/>
    <path d="M2077.1 -46.2 L2077.1 -186.55 2147.3 -186.55 2147.3 -46.2 2077.1 -46.2 M2143.4 297.0 L2213.6 297.0 2213.6 437.4 2143.4 437.4 2143.4 297.0 M-2147.25 -186.55 L-2077.1 -186.55 -2077.1 -46.2 -2147.25 -46.2 -2147.25 -186.55 M-2143.35 297.0 L-2143.35 437.4 -2213.55 437.4 -2213.55 297.0 -2143.35 297.0" fill="#000000" fill-opacity="0.64705884" fill-rule="evenodd" stroke="none"/>
    <path d="M2506.8 -222.2 Q2544.9 -217.8 2573.65 -210.85 L2573.5 -110.7 Q2549.2 -129.95 2470.1 -126.65 2445.35 -125.6 2418.15 -122.45 L2395.85 -119.5 2384.3 -218.25 Q2430.7 -230.95 2506.8 -222.2 M-2506.75 -222.2 Q-2430.65 -230.95 -2384.3 -218.25 L-2395.8 -119.5 -2418.1 -122.45 Q-2445.35 -125.6 -2470.05 -126.65 -2549.2 -129.95 -2573.5 -110.7 L-2573.6 -210.85 Q-2544.8 -217.8 -2506.75 -222.2" fill="#000000" fill-opacity="0.44705883" fill-rule="evenodd" stroke="none"/>
    <path d="M2712.75 -861.25 L2712.75 -1021.1 Q2706.9 -1036.7 2695.2 -1055.2 2671.8 -1092.25 2642.55 -1106.9 L2642.55 -1013.3 2587.95 -1028.9 2572.35 -1122.55 Q2541.15 -1130.35 2499.2 -1137.15 2415.35 -1150.75 2361.75 -1145.9 L2361.75 -1044.5 2299.35 -1044.5 2299.35 -1138.1 Q2254.5 -1138.1 2199.95 -1136.15 2090.75 -1132.25 2042.0 -1122.5 L2042.0 -1044.5 1987.35 -1036.7 1987.35 -1099.1 Q1965.9 -1097.15 1935.7 -1090.3 L1933.5 -1089.8 1932.75 -1089.6 1932.15 -1089.45 1930.1 -1089.0 1929.45 -1088.85 1928.85 -1088.7 1927.65 -1088.4 1926.95 -1088.2 1926.25 -1088.05 1925.65 -1087.9 1925.05 -1087.75 1924.45 -1087.6 1923.15 -1087.25 1921.2 -1086.75 1920.6 -1086.6 1869.5 -1070.05 1869.05 -1069.9 1867.9 -1069.55 1865.55 -1068.55 1863.6 -1067.75 1867.9 -1069.55 M1873.35 -866.9 Q1963.1 -888.65 2064.55 -899.05 2214.2 -914.4 2382.3 -904.6 2502.3 -897.6 2619.55 -878.75 2678.15 -869.3 2712.75 -861.25 L2712.75 850.8 2759.5 881.95 2806.3 1147.15 1865.7 1140.75 1659.8 1139.35 1706.6 897.55 1737.8 866.35 1737.8 850.8 1737.8 -825.2 1737.8 -974.35 1738.1 -974.55 1740.15 -976.2 1740.3 -976.3 1740.45 -976.45 1741.45 -977.25 1758.75 -991.45 1774.45 -1005.25 1775.4 -1006.15 1776.35 -1007.0 1777.55 -1008.2 1778.7 -1009.35 1779.55 -1010.2 1785.6 -1016.25 1784.6 -958.7 1823.6 -982.15 1831.4 -1052.3 1831.9 -1052.55 1839.05 -1056.35 1840.05 -1056.9 1841.15 -1057.45 1863.6 -1067.75 M1839.05 -1056.35 L1841.15 -1057.45 M1741.45 -977.25 L1740.85 -976.75 1740.45 -976.45 M1737.8 -825.2 Q1801.9 -849.65 1873.35 -866.9 M1893.75 871.55 Q2078.0 886.85 2351.05 875.65 2477.1 870.45 2607.55 860.1 L2712.75 850.8 M2077.1 -46.2 L2147.3 -46.2 2147.3 -186.55 2077.1 -186.55 2077.1 -46.2 M2143.4 297.0 L2143.4 437.4 2213.6 437.4 2213.6 297.0 2143.4 297.0 M1893.75 871.55 Q1805.6 864.2 1737.8 850.8 M-1737.8 -888.5 L-1737.8 -974.35 Q-1762.15 -993.8 -1776.3 -1007.0 -1783.35 -1013.55 -1785.55 -1016.25 L-1784.55 -958.7 -1823.55 -982.15 -1831.4 -1052.3 Q-1875.25 -1076.65 -1935.7 -1090.3 -1965.9 -1097.15 -1987.35 -1099.1 L-1987.35 -1036.7 -2041.95 -1044.5 -2041.95 -1122.5 Q-2090.7 -1132.25 -2199.9 -1136.15 -2254.5 -1138.1 -2299.35 -1138.1 L-2299.35 -1044.5 -2361.75 -1044.5 -2361.75 -1145.9 Q-2415.35 -1150.75 -2499.2 -1137.15 -2541.1 -1130.35 -2572.3 -1122.55 L-2587.9 -1028.9 -2642.5 -1013.3 -2642.5 -1106.9 Q-2671.8 -1092.25 -2695.15 -1055.2 -2706.85 -1036.7 -2712.7 -1021.1 L-2712.7 -861.25 Q-2678.1 -869.3 -2619.5 -878.75 -2502.25 -897.6 -2382.25 -904.6 -2214.15 -914.4 -2064.5 -899.05 -1929.4 -885.2 -1814.9 -851.25 -1775.1 -839.45 -1737.8 -825.2 L-1737.8 850.8 -1737.8 866.35 -1706.6 897.55 -1659.75 1139.35 -1865.7 1140.75 -2806.3 1147.15 -2759.5 881.95 -2712.7 850.8 -2712.7 -861.25 M-1737.8 -888.5 L-1737.8 -825.2 M-2147.25 -186.55 L-2077.1 -186.55 -2077.1 -46.2 -2147.25 -46.2 -2147.25 -186.55 M-2143.35 297.0 L-2143.35 437.4 -2213.55 437.4 -2213.55 297.0 -2143.35 297.0 M-2712.7 850.8 Q-2672.75 854.95 -2607.55 860.1 -2477.05 870.45 -2351.0 875.65 -2077.95 886.85 -1893.7 871.5 -1805.6 864.2 -1737.8 850.8" fill="none" stroke="#000000" stroke-linecap="round" stroke-linejoin="round" stroke-width="1.0"/>
  </g>
</svg>
