<?xml version="1.0" encoding="UTF-8" standalone="no"?>
<svg xmlns:xlink="http://www.w3.org/1999/xlink" height="795.15px" width="1900.55px" xmlns="http://www.w3.org/2000/svg">
  <g transform="matrix(1.0, 0.0, 0.0, 1.0, 950.25, 398.25)">
    <path d="M913.3 266.7 L777.35 258.5 Q767.35 132.15 757.3 -11.7 738.65 -282.75 738.3 -376.65 L738.3 -387.7 738.6 -386.75 913.3 266.7 M510.9 272.35 L914.8 272.35 949.8 272.35 949.8 396.4 467.15 396.4 467.15 272.35 510.9 272.35 M-503.45 266.7 L-639.4 258.5 Q-649.55 132.15 -659.45 -11.7 -678.1 -282.75 -678.45 -376.65 L-678.45 -387.7 -678.15 -386.75 -503.45 266.7 M-906.0 272.35 L-501.95 272.35 -467.05 272.35 -467.05 396.4 -949.75 396.4 -949.75 272.35 -906.0 272.35" fill="#ffffff" fill-opacity="0.0" fill-rule="evenodd" stroke="none"/>
    <path d="M738.6 -386.75 L738.3 -387.7 738.3 -376.65 Q738.65 -282.75 757.3 -11.7 767.35 132.15 777.35 258.5 L913.3 266.7 914.8 272.35 510.9 272.35 736.0 -396.45 738.6 -386.75 M-678.15 -386.75 L-678.45 -387.7 -678.45 -376.65 Q-678.1 -282.75 -659.45 -11.7 -649.55 132.15 -639.4 258.5 L-503.45 266.7 -501.95 272.35 -906.0 272.35 -680.75 -396.45 -678.15 -386.75" fill="#000000" fill-opacity="0.29803923" fill-rule="evenodd" stroke="none"/>
    <path d="M913.3 266.7 L738.6 -386.75 736.0 -396.45 510.9 272.35 467.15 272.35 467.15 396.4 949.8 396.4 949.8 272.35 914.8 272.35 913.3 266.7 M-503.45 266.7 L-678.15 -386.75 -680.75 -396.45 -906.0 272.35 -949.75 272.35 -949.75 396.4 -467.05 396.4 -467.05 272.35 -501.95 272.35 -503.45 266.7" fill="none" stroke="#000000" stroke-linecap="round" stroke-linejoin="miter-clip" stroke-miterlimit="4.0" stroke-width="1.0"/>
    <path d="M510.9 272.35 L914.8 272.35 M-906.0 272.35 L-501.95 272.35" fill="none" stroke="#000000" stroke-linecap="round" stroke-linejoin="miter-clip" stroke-miterlimit="4.0" stroke-opacity="0.6" stroke-width="1.0"/>
  </g>
</svg>
