<?xml version="1.0" encoding="UTF-8" standalone="no"?>
<svg xmlns:xlink="http://www.w3.org/1999/xlink" height="744.45px" width="1441.0px" xmlns="http://www.w3.org/2000/svg">
  <g transform="matrix(1.0, 0.0, 0.0, 1.0, 736.6, 540.05)">
    <path d="M315.4 -200.95 L315.4 23.85 181.25 23.85 181.25 -200.95 315.4 -200.95 M310.3 -189.65 L186.35 -189.65 186.35 22.65 310.3 22.65 310.3 -189.65 M502.3 -189.65 L378.35 -189.65 378.35 22.65 502.3 22.65 502.3 -189.65 M507.4 -200.95 L507.4 23.85 373.25 23.85 373.25 -200.95 507.4 -200.95 M-373.2 -200.95 L-373.2 23.85 -507.35 23.85 -507.35 -200.95 -373.2 -200.95 M-378.3 -189.65 L-502.25 -189.65 -502.25 22.65 -378.3 22.65 -378.3 -189.65 M-327.7 94.3 L-327.7 121.3 -327.7 148.3 -327.7 175.25 -327.7 202.25 -128.7 202.25 -128.7 175.25 -128.7 148.3 -128.7 121.3 -128.7 94.3 -128.7 -188.35 -327.7 -188.35 -327.7 94.3 M-121.35 -203.85 L-121.35 203.9 -336.7 203.9 -336.7 -203.85 -121.35 -203.85" fill="#000000" fill-opacity="0.14901961" fill-rule="evenodd" stroke="none"/>
    <path d="M202.25 -87.0 L199.7 -90.5 199.7 -171.1 294.75 -171.1 295.35 -165.7 294.45 -164.95 294.45 -167.55 202.25 -167.55 202.25 -87.0 M202.25 -10.75 L199.7 -8.9 199.7 -81.95 294.75 -81.85 295.05 -79.3 293.9 -78.45 202.25 -78.45 202.25 -10.75 M394.25 -87.0 L391.7 -90.5 391.7 -171.1 486.75 -171.1 487.35 -165.7 486.4 -164.9 486.4 -167.55 394.25 -167.55 394.25 -87.0 M394.25 -10.75 L391.7 -8.9 391.7 -81.95 486.75 -81.85 487.05 -79.3 485.9 -78.45 394.25 -78.45 394.25 -10.75 M-486.4 -87.0 L-488.9 -90.5 -488.9 -171.1 -393.9 -171.1 -393.3 -165.7 -394.2 -164.95 -394.2 -167.55 -486.4 -167.55 -486.4 -87.0 M-486.4 -10.75 L-488.9 -8.9 -488.9 -81.95 -393.9 -81.85 -393.6 -79.3 -394.75 -78.45 -486.4 -78.45 -486.4 -10.75 M-303.0 -47.65 L-307.05 -52.45 -307.05 -162.9 -154.55 -162.9 -153.55 -155.5 -155.0 -154.45 -155.0 -158.05 -303.0 -158.05 -303.0 -47.65 M-307.05 25.5 L-307.05 -40.75 -154.55 -40.6 -154.05 -37.05 -155.85 -35.9 -303.0 -35.9 -303.0 56.85 -307.05 59.4 -307.05 38.25 Q-305.45 35.45 -305.45 31.85 -305.45 28.25 -307.05 25.5" fill="#000000" fill-opacity="0.2" fill-rule="evenodd" stroke="none"/>
    <path d="M702.8 -266.55 L679.45 -258.8 485.25 -318.45 484.9 -318.55 484.55 -318.65 482.4 -319.3 479.7 -320.15 -21.1 -474.15 -685.3 -266.55 -734.6 -266.55 -15.9 -491.5 702.8 -266.55 M294.45 -164.95 L295.35 -165.7 294.75 -171.1 199.7 -171.1 199.7 -90.5 202.25 -87.0 294.45 -87.0 294.45 -164.95 M293.9 -78.45 L295.05 -79.3 294.75 -81.85 199.7 -81.95 199.7 -8.9 202.25 -10.75 202.25 -5.35 294.45 -5.35 294.45 -78.45 293.9 -78.45 M310.3 -189.65 L310.3 22.65 186.35 22.65 186.35 -189.65 310.3 -189.65 M486.4 -164.9 L487.35 -165.7 486.75 -171.1 391.7 -171.1 391.7 -90.5 394.25 -87.0 486.4 -87.0 486.4 -164.9 M485.9 -78.45 L487.05 -79.3 486.75 -81.85 391.7 -81.95 391.7 -8.9 394.25 -10.75 394.25 -5.35 486.4 -5.35 486.4 -78.45 485.9 -78.45 M502.3 -189.65 L502.3 22.65 378.35 22.65 378.35 -189.65 502.3 -189.65 M-394.2 -164.95 L-393.3 -165.7 -393.9 -171.1 -488.9 -171.1 -488.9 -90.5 -486.4 -87.0 -394.2 -87.0 -394.2 -164.95 M-394.75 -78.45 L-393.6 -79.3 -393.9 -81.85 -488.9 -81.95 -488.9 -8.9 -486.4 -10.75 -486.4 -5.35 -394.2 -5.35 -394.2 -78.45 -394.75 -78.45 M-378.3 -189.65 L-378.3 22.65 -502.25 22.65 -502.25 -189.65 -378.3 -189.65 M-155.0 -154.45 L-153.55 -155.5 -154.55 -162.9 -307.05 -162.9 -307.05 -52.45 -303.0 -47.65 -155.0 -47.65 -155.0 -154.45 M-155.85 -35.9 L-154.05 -37.05 -154.55 -40.6 -307.05 -40.75 -307.05 25.5 Q-307.55 24.55 -308.25 23.75 L-308.4 23.6 -308.4 2.8 -323.2 2.8 -323.2 25.65 Q-324.7 28.35 -324.7 31.85 -324.7 35.35 -323.2 38.05 L-323.2 66.15 -308.4 66.15 -308.4 40.15 -308.25 39.95 -307.05 38.25 -307.05 59.4 -303.0 56.85 -303.0 64.25 -155.0 64.25 -155.0 -35.9 -155.85 -35.9 M-327.7 94.3 L-327.7 -188.35 -128.7 -188.35 -128.7 94.3 -128.7 121.3 -128.7 148.3 -128.7 175.25 -128.7 202.25 -327.7 202.25 -327.7 175.25 -327.7 148.3 -327.7 121.3 -327.7 94.3 -128.7 94.3 -327.7 94.3 M-128.7 175.25 L-327.7 175.25 -128.7 175.25 M-128.7 148.3 L-327.7 148.3 -128.7 148.3 M-128.7 121.3 L-327.7 121.3 -128.7 121.3" fill="#ffffff" fill-opacity="0.0" fill-rule="evenodd" stroke="none"/>
    <path d="M-308.4 23.6 Q-311.2 20.4 -315.1 20.4 -319.05 20.4 -321.9 23.75 -322.65 24.65 -323.2 25.65 L-323.2 2.8 -308.4 2.8 -308.4 23.6 M-323.2 38.05 L-321.9 39.95 Q-319.05 43.3 -315.1 43.3 -311.2 43.3 -308.4 40.15 L-308.4 66.15 -323.2 66.15 -323.2 38.05" fill="#000000" fill-opacity="0.4" fill-rule="evenodd" stroke="none"/>
    <path d="M-307.05 25.5 Q-305.45 28.25 -305.45 31.85 -305.45 35.45 -307.05 38.25 L-308.25 39.95 -308.4 40.15 Q-311.2 43.3 -315.1 43.3 -319.05 43.3 -321.9 39.95 L-323.2 38.05 Q-324.7 35.35 -324.7 31.85 -324.7 28.35 -323.2 25.65 -322.65 24.65 -321.9 23.75 -319.05 20.4 -315.1 20.4 -311.2 20.4 -308.4 23.6 L-308.25 23.75 Q-307.55 24.55 -307.05 25.5" fill="#ffffff" fill-opacity="0.09803922" fill-rule="evenodd" stroke="none"/>
    <path d="M702.8 -266.55 L-15.9 -491.5 -734.6 -266.55 -734.6 -313.3 -112.25 -510.1 -15.95 -539.55 -15.9 -539.55 702.8 -313.3 702.8 -266.55" fill="#000000" fill-opacity="0.54901963" fill-rule="evenodd" stroke="none"/>
    <path d="M485.25 -318.45 L679.45 -258.8 702.8 -266.55 -15.9 -491.5 -734.6 -266.55 -685.3 -266.55 -21.1 -474.15 479.7 -320.15 M702.8 -266.55 L702.8 -313.3 -15.9 -539.55 M-15.95 -539.55 L-112.25 -510.1 -734.6 -313.3 -734.6 -266.55 M315.4 -200.95 L315.4 23.85 181.25 23.85 181.25 -200.95 315.4 -200.95 M202.25 -87.0 L202.25 -167.55 294.45 -167.55 294.45 -164.95 294.45 -87.0 202.25 -87.0 M202.25 -10.75 L202.25 -78.45 293.9 -78.45 294.45 -78.45 294.45 -5.35 202.25 -5.35 202.25 -10.75 M394.25 -87.0 L394.25 -167.55 486.4 -167.55 486.4 -164.9 486.4 -87.0 394.25 -87.0 M394.25 -10.75 L394.25 -78.45 485.9 -78.45 486.4 -78.45 486.4 -5.35 394.25 -5.35 394.25 -10.75 M507.4 -200.95 L507.4 23.85 373.25 23.85 373.25 -200.95 507.4 -200.95 M-486.4 -87.0 L-486.4 -167.55 -394.2 -167.55 -394.2 -164.95 -394.2 -87.0 -486.4 -87.0 M-486.4 -10.75 L-486.4 -78.45 -394.75 -78.45 -394.2 -78.45 -394.2 -5.35 -486.4 -5.35 -486.4 -10.75 M-373.2 -200.95 L-373.2 23.85 -507.35 23.85 -507.35 -200.95 -373.2 -200.95 M-303.0 -47.65 L-303.0 -158.05 -155.0 -158.05 -155.0 -154.45 -155.0 -47.65 -303.0 -47.65 M-307.05 25.5 Q-305.45 28.25 -305.45 31.85 -305.45 35.45 -307.05 38.25 L-308.25 39.95 -308.4 40.15 Q-311.2 43.3 -315.1 43.3 -319.05 43.3 -321.9 39.95 L-323.2 38.05 Q-324.7 35.35 -324.7 31.85 -324.7 28.35 -323.2 25.65 -322.65 24.65 -321.9 23.75 -319.05 20.4 -315.1 20.4 -311.2 20.4 -308.4 23.6 L-308.25 23.75 Q-307.55 24.55 -307.05 25.5 M-303.0 56.85 L-303.0 -35.9 -155.85 -35.9 -155.0 -35.9 -155.0 64.25 -303.0 64.25 -303.0 56.85 M-121.35 -203.85 L-121.35 203.9 -336.7 203.9 -336.7 -203.85 -121.35 -203.85" fill="none" stroke="#000000" stroke-linecap="round" stroke-linejoin="miter-clip" stroke-miterlimit="4.0" stroke-width="1.0"/>
    <path d="M310.3 -189.65 L310.3 22.65 186.35 22.65 186.35 -189.65 310.3 -189.65 M502.3 -189.65 L502.3 22.65 378.35 22.65 378.35 -189.65 502.3 -189.65 M-378.3 -189.65 L-378.3 22.65 -502.25 22.65 -502.25 -189.65 -378.3 -189.65 M-327.7 94.3 L-327.7 -188.35 -128.7 -188.35 -128.7 94.3 -128.7 121.3 -128.7 148.3 -128.7 175.25 -128.7 202.25 -327.7 202.25 -327.7 175.25 -327.7 148.3 -327.7 121.3 -327.7 94.3 -128.7 94.3 M-308.4 23.6 L-308.4 2.8 -323.2 2.8 -323.2 25.65 M-323.2 38.05 L-323.2 66.15 -308.4 66.15 -308.4 40.15 M-327.7 121.3 L-128.7 121.3 M-327.7 148.3 L-128.7 148.3 M-327.7 175.25 L-128.7 175.25" fill="none" stroke="#000000" stroke-linecap="round" stroke-linejoin="miter-clip" stroke-miterlimit="4.0" stroke-opacity="0.6" stroke-width="1.0"/>
  </g>
</svg>
