<?xml version="1.0" encoding="UTF-8" standalone="no"?>
<svg xmlns:xlink="http://www.w3.org/1999/xlink" height="1125.3px" width="1750.85px" xmlns="http://www.w3.org/2000/svg">
  <g transform="matrix(1.0, 0.0, 0.0, 1.0, 875.4, 562.65)">
    <path d="M-162.7 -562.15 L-162.7 -213.55 -275.95 -213.55 -275.95 -562.15 -162.7 -562.15 M-13.95 -562.15 L-13.95 -213.55 -127.15 -213.55 -127.15 -562.15 -13.95 -562.15 M-311.45 -213.55 L-424.7 -213.55 -424.7 -562.15 -311.45 -562.15 -311.45 -213.55 M67.3 485.35 L20.95 485.35 20.95 554.45 67.3 554.45 67.3 485.35 M67.3 362.45 L20.95 362.45 20.95 477.65 67.3 477.65 67.3 362.45 M54.25 247.05 L27.9 277.2 65.95 277.2 Q63.65 260.95 54.25 247.05 M67.3 286.45 L20.95 286.45 20.95 354.75 67.3 354.75 67.3 286.45 M706.0 554.45 L752.4 554.45 752.4 485.35 706.0 485.35 706.0 554.45 M812.0 554.45 L812.0 485.35 760.65 485.35 760.65 554.45 812.0 554.45 M866.65 485.35 L820.3 485.35 820.3 554.45 866.65 554.45 866.65 485.35 M812.0 362.45 L760.65 362.45 760.65 477.65 812.0 477.65 812.0 362.45 M866.65 362.45 L820.3 362.45 820.3 477.65 866.65 477.65 866.65 362.45 M853.6 247.05 L827.25 277.2 865.3 277.2 Q863.0 260.95 853.6 247.05 M866.65 286.45 L820.3 286.45 820.3 354.75 866.65 354.75 866.65 286.45 M752.4 362.45 L706.0 362.45 706.0 477.65 752.4 477.65 752.4 362.45 M760.65 286.45 L760.65 354.75 812.0 354.75 812.0 286.45 760.65 286.45 M716.45 249.3 Q708.35 262.3 706.2 277.2 L744.25 277.2 716.45 249.3 M705.45 287.45 Q705.45 291.5 706.0 296.0 L706.0 354.75 752.4 354.75 752.4 286.45 705.5 286.45 705.45 287.45 M789.9 212.0 L789.9 277.2 816.65 277.2 848.65 240.5 Q838.05 227.95 823.0 220.5 807.45 212.85 789.9 212.0 M751.3 210.8 Q767.75 204.25 785.8 204.25 819.8 204.25 845.0 225.55 870.05 246.7 873.8 277.95 L874.95 277.95 874.95 562.15 697.75 562.15 697.75 296.65 Q697.15 292.1 697.15 287.45 697.2 270.55 704.15 255.1 710.9 240.15 723.15 228.65 735.4 217.1 751.3 210.8 M752.75 218.6 Q739.4 224.25 729.0 234.0 725.0 237.75 721.1 242.65 L755.5 277.2 781.65 277.2 781.65 212.0 Q766.5 212.75 752.75 218.6 M-819.7 485.35 L-866.05 485.35 -866.05 554.45 -819.7 554.45 -819.7 485.35 M-705.4 485.35 L-751.8 485.35 -751.8 554.45 -705.4 554.45 -705.4 485.35 M-760.05 554.45 L-760.05 485.35 -811.4 485.35 -811.4 554.45 -760.05 554.45 M-760.05 362.45 L-811.4 362.45 -811.4 477.65 -760.05 477.65 -760.05 362.45 M-751.8 354.75 L-705.4 354.75 -705.4 286.45 -751.8 286.45 -751.8 354.75 M-705.4 362.45 L-751.8 362.45 -751.8 477.65 -705.4 477.65 -705.4 362.45 M-782.15 212.0 L-782.15 277.2 -755.4 277.2 -723.4 240.5 Q-734.0 227.95 -749.05 220.5 -764.6 212.85 -782.15 212.0 M-706.75 277.2 Q-709.05 260.95 -718.45 247.05 L-744.8 277.2 -706.75 277.2 M-811.4 286.45 L-811.4 354.75 -760.05 354.75 -760.05 286.45 -811.4 286.45 M-819.7 362.45 L-866.05 362.45 -866.05 477.65 -819.7 477.65 -819.7 362.45 M-855.6 249.3 Q-863.7 262.15 -865.85 277.2 L-827.8 277.2 -855.6 249.3 M-866.6 287.45 Q-866.6 291.5 -866.05 296.0 L-866.05 354.75 -819.7 354.75 -819.7 286.45 -866.55 286.45 -866.6 287.45 M-848.9 228.65 Q-836.65 217.1 -820.75 210.8 -804.3 204.25 -786.25 204.25 -752.3 204.25 -727.05 225.55 -702.05 246.7 -698.25 277.95 L-697.1 277.95 -697.1 562.15 -874.3 562.15 -874.3 296.65 Q-874.9 292.1 -874.9 287.45 -874.85 270.55 -867.9 255.1 -861.15 240.15 -848.9 228.65 M-819.3 218.6 Q-832.65 224.25 -843.05 234.0 -847.35 238.05 -850.95 242.65 L-816.5 277.2 -790.4 277.2 -790.4 212.0 Q-805.55 212.75 -819.3 218.6 M-38.7 362.45 L-38.7 477.65 12.65 477.65 12.65 362.45 -38.7 362.45 M-304.55 477.65 L-304.55 362.45 -350.9 362.45 -350.9 477.65 -304.55 477.65 M-244.9 485.35 L-296.25 485.35 -296.25 554.45 -244.9 554.45 -244.9 485.35 M-190.25 485.35 L-236.65 485.35 -236.65 554.45 -190.25 554.45 -190.25 485.35 M-93.35 554.45 L-46.95 554.45 -46.95 485.35 -93.35 485.35 -93.35 554.45 M-38.7 485.35 L-38.7 554.45 12.65 554.45 12.65 485.35 -38.7 485.35 M-608.5 554.45 L-562.1 554.45 -562.1 485.35 -608.45 485.35 -608.5 554.45 M-502.5 485.35 L-553.85 485.35 -553.85 554.45 -502.5 554.45 -502.5 485.35 M-447.85 554.45 L-447.85 485.35 -494.2 485.35 -494.2 554.45 -447.85 554.45 M-350.9 485.35 L-350.9 554.45 -304.55 554.45 -304.55 485.35 -350.9 485.35 M-447.85 362.45 L-494.2 362.45 -494.2 477.65 -447.85 477.65 -447.85 362.45 M-449.15 277.2 Q-451.55 260.9 -460.9 247.05 L-487.2 277.2 -449.15 277.2 M-340.45 249.3 Q-348.55 262.15 -350.7 277.2 L-312.65 277.2 -340.45 249.3 M-562.1 362.45 L-608.45 362.45 -608.45 477.65 -562.1 477.65 -562.1 362.45 M-494.2 286.45 L-494.2 354.75 -447.85 354.75 -447.85 286.45 -494.2 286.45 M-502.5 362.45 L-553.85 362.45 -553.85 477.65 -502.5 477.65 -502.5 362.45 M-570.2 277.2 L-598.0 249.3 Q-606.1 262.15 -608.25 277.2 L-570.2 277.2 M-609.0 286.45 L-609.05 287.45 Q-609.05 291.5 -608.5 296.0 L-608.45 296.2 -608.45 354.75 -562.1 354.75 -562.1 286.45 -609.0 286.45 M-502.5 286.45 L-553.85 286.45 -553.85 354.75 -502.5 354.75 -502.5 286.45 M-532.85 212.0 Q-548.0 212.75 -561.75 218.6 -575.1 224.25 -585.5 234.0 -589.6 237.9 -593.35 242.65 L-558.95 277.2 -532.85 277.2 -532.85 212.0 M-563.2 210.8 Q-546.7 204.25 -528.7 204.25 -494.7 204.25 -469.5 225.55 -444.45 246.7 -440.7 277.95 L-439.55 277.95 -439.55 562.15 -616.75 562.15 -616.75 296.65 Q-617.3 291.85 -617.3 287.45 -617.25 270.55 -610.3 255.1 -603.55 240.15 -591.3 228.65 -579.05 217.1 -563.2 210.8 M-491.5 220.5 Q-507.0 212.85 -524.55 212.0 L-524.55 277.2 -497.85 277.2 -465.85 240.5 Q-476.45 227.95 -491.5 220.5 M-46.95 362.45 L-93.35 362.45 -93.35 477.65 -46.95 477.65 -46.95 362.45 M-38.7 286.45 L-38.7 354.75 12.65 354.75 12.65 286.45 -38.7 286.45 M-82.9 249.3 Q-91.0 262.3 -93.15 277.2 L-55.1 277.2 -82.9 249.3 M-93.85 286.45 L-93.9 287.45 Q-93.9 291.5 -93.35 296.0 L-93.35 354.75 -46.95 354.75 -46.95 286.45 -93.85 286.45 M-9.45 212.0 L-9.45 277.2 17.25 277.2 49.3 240.5 Q38.7 227.95 23.65 220.5 8.1 212.85 -9.45 212.0 M-76.2 228.65 Q-63.95 217.1 -48.05 210.8 -31.6 204.25 -13.55 204.25 20.4 204.25 45.65 225.55 70.7 246.7 74.45 277.95 L75.6 277.95 75.6 562.15 -101.6 562.15 -101.6 296.65 Q-102.15 291.85 -102.15 287.45 -102.15 270.55 -95.2 255.1 -88.45 240.15 -76.2 228.65 M-46.6 218.6 Q-59.95 224.25 -70.35 234.0 -74.75 238.15 -78.2 242.65 L-43.8 277.2 -17.7 277.2 -17.7 212.0 Q-32.85 212.75 -46.6 218.6 M-304.55 354.75 L-304.55 286.45 -351.45 286.45 -351.45 287.45 Q-351.45 291.95 -350.95 296.0 L-350.9 296.2 -350.9 354.75 -304.55 354.75 M-190.25 362.45 L-236.65 362.45 -236.65 477.65 -190.25 477.65 -190.25 362.45 M-244.9 362.45 L-296.25 362.45 -296.25 477.65 -244.9 477.65 -244.9 362.45 M-275.3 277.2 L-275.3 212.0 Q-290.45 212.75 -304.15 218.6 -317.5 224.25 -327.9 234.0 -332.2 238.05 -335.8 242.65 L-301.4 277.2 -275.3 277.2 M-244.9 286.45 L-296.25 286.45 -296.25 354.75 -244.9 354.75 -244.9 286.45 M-203.3 247.05 L-229.65 277.2 -191.6 277.2 Q-193.95 260.95 -203.3 247.05 M-190.25 286.45 L-236.65 286.45 -236.65 354.75 -190.25 354.75 -190.25 286.45 M-183.15 277.95 L-182.0 277.95 -182.0 562.15 -359.2 562.15 -359.2 296.65 Q-359.75 291.85 -359.75 287.45 -359.7 270.55 -352.75 255.1 -346.0 240.15 -333.75 228.65 -321.5 217.1 -305.65 210.8 -289.15 204.25 -271.15 204.25 -237.15 204.25 -211.95 225.55 -186.9 246.7 -183.15 277.95 M-208.25 240.5 Q-218.9 227.95 -233.95 220.5 -249.45 212.85 -267.0 212.0 L-267.0 277.2 -240.3 277.2 -208.25 240.5" fill="#000000" fill-opacity="0.4" fill-rule="evenodd" stroke="none"/>
    <path d="M-162.7 -562.15 L-162.7 -213.55 -275.95 -213.55 -275.95 -562.15 -162.7 -562.15 M-13.95 -562.15 L-13.95 -213.55 -127.15 -213.55 -127.15 -562.15 -13.95 -562.15 M-311.45 -213.55 L-424.7 -213.55 -424.7 -562.15 -311.45 -562.15 -311.45 -213.55 M-208.25 240.5 L-240.3 277.2 -267.0 277.2 -267.0 212.0 Q-249.45 212.85 -233.95 220.5 -218.9 227.95 -208.25 240.5 M-183.15 277.95 Q-186.9 246.7 -211.95 225.55 -237.15 204.25 -271.15 204.25 -289.15 204.25 -305.65 210.8 -321.5 217.1 -333.75 228.65 -346.0 240.15 -352.75 255.1 -359.7 270.55 -359.75 287.45 -359.75 291.85 -359.2 296.65 L-359.2 562.15 -182.0 562.15 -182.0 277.95 -183.15 277.95 M-190.25 286.45 L-190.25 354.75 -236.65 354.75 -236.65 286.45 -190.25 286.45 M-203.3 247.05 Q-193.95 260.95 -191.6 277.2 L-229.65 277.2 -203.3 247.05 M-244.9 286.45 L-244.9 354.75 -296.25 354.75 -296.25 286.45 -244.9 286.45 M-275.3 277.2 L-301.4 277.2 -335.8 242.65 Q-332.2 238.05 -327.9 234.0 -317.5 224.25 -304.15 218.6 -290.45 212.75 -275.3 212.0 L-275.3 277.2 M-244.9 362.45 L-244.9 477.65 -296.25 477.65 -296.25 362.45 -244.9 362.45 M-190.25 362.45 L-190.25 477.65 -236.65 477.65 -236.65 362.45 -190.25 362.45 M-304.55 354.75 L-350.9 354.75 -350.9 296.2 -350.95 296.0 Q-351.45 291.95 -351.45 287.45 L-351.45 286.45 -304.55 286.45 -304.55 354.75 M-46.6 218.6 Q-32.85 212.75 -17.7 212.0 L-17.7 277.2 -43.8 277.2 -78.2 242.65 Q-74.75 238.15 -70.35 234.0 -59.95 224.25 -46.6 218.6 M-76.2 228.65 Q-88.45 240.15 -95.2 255.1 -102.15 270.55 -102.15 287.45 -102.15 291.85 -101.6 296.65 L-101.6 562.15 75.6 562.15 75.6 277.95 74.45 277.95 Q70.7 246.7 45.65 225.55 20.4 204.25 -13.55 204.25 -31.6 204.25 -48.05 210.8 -63.95 217.1 -76.2 228.65 M-9.45 212.0 Q8.1 212.85 23.65 220.5 38.7 227.95 49.3 240.5 L17.25 277.2 -9.45 277.2 -9.45 212.0 M-93.85 286.45 L-46.95 286.45 -46.95 354.75 -93.35 354.75 -93.35 296.0 Q-93.9 291.5 -93.9 287.45 L-93.85 286.45 M-82.9 249.3 L-55.1 277.2 -93.15 277.2 Q-91.0 262.3 -82.9 249.3 M-38.7 286.45 L12.65 286.45 12.65 354.75 -38.7 354.75 -38.7 286.45 M-46.95 362.45 L-46.95 477.65 -93.35 477.65 -93.35 362.45 -46.95 362.45 M-491.5 220.5 Q-476.45 227.95 -465.85 240.5 L-497.85 277.2 -524.55 277.2 -524.55 212.0 Q-507.0 212.85 -491.5 220.5 M-563.2 210.8 Q-579.05 217.1 -591.3 228.65 -603.55 240.15 -610.3 255.1 -617.25 270.55 -617.3 287.45 -617.3 291.85 -616.75 296.65 L-616.75 562.15 -439.55 562.15 -439.55 277.95 -440.7 277.95 Q-444.45 246.7 -469.5 225.55 -494.7 204.25 -528.7 204.25 -546.7 204.25 -563.2 210.8 M-532.85 212.0 L-532.85 277.2 -558.95 277.2 -593.35 242.65 Q-589.6 237.9 -585.5 234.0 -575.1 224.25 -561.75 218.6 -548.0 212.75 -532.85 212.0 M-502.5 286.45 L-502.5 354.75 -553.85 354.75 -553.85 286.45 -502.5 286.45 M-609.0 286.45 L-562.1 286.45 -562.1 354.75 -608.45 354.75 -608.45 296.2 -608.5 296.0 Q-609.05 291.5 -609.05 287.45 L-609.0 286.45 M-570.2 277.2 L-608.25 277.2 Q-606.1 262.15 -598.0 249.3 L-570.2 277.2 M-502.5 362.45 L-502.5 477.65 -553.85 477.65 -553.85 362.45 -502.5 362.45 M-494.2 286.45 L-447.85 286.45 -447.85 354.75 -494.2 354.75 -494.2 286.45 M-562.1 362.45 L-562.1 477.65 -608.45 477.65 -608.45 362.45 -562.1 362.45 M-340.45 249.3 L-312.65 277.2 -350.7 277.2 Q-348.55 262.15 -340.45 249.3 M-449.15 277.2 L-487.2 277.2 -460.9 247.05 Q-451.55 260.9 -449.15 277.2 M-447.85 362.45 L-447.85 477.65 -494.2 477.65 -494.2 362.45 -447.85 362.45 M-350.9 485.35 L-304.55 485.35 -304.55 554.45 -350.9 554.45 -350.9 485.35 M-447.85 554.45 L-494.2 554.45 -494.2 485.35 -447.85 485.35 -447.85 554.45 M-502.5 485.35 L-502.5 554.45 -553.85 554.45 -553.85 485.35 -502.5 485.35 M-608.5 554.45 L-608.45 485.35 -562.1 485.35 -562.1 554.45 -608.5 554.45 M-38.7 485.35 L12.65 485.35 12.65 554.45 -38.7 554.45 -38.7 485.35 M-93.35 554.45 L-93.35 485.35 -46.95 485.35 -46.95 554.45 -93.35 554.45 M-190.25 485.35 L-190.25 554.45 -236.65 554.45 -236.65 485.35 -190.25 485.35 M-244.9 485.35 L-244.9 554.45 -296.25 554.45 -296.25 485.35 -244.9 485.35 M-304.55 477.65 L-350.9 477.65 -350.9 362.45 -304.55 362.45 -304.55 477.65 M-38.7 362.45 L12.65 362.45 12.65 477.65 -38.7 477.65 -38.7 362.45 M-819.3 218.6 Q-805.55 212.75 -790.4 212.0 L-790.4 277.2 -816.5 277.2 -850.95 242.65 Q-847.35 238.05 -843.05 234.0 -832.65 224.25 -819.3 218.6 M-848.9 228.65 Q-861.15 240.15 -867.9 255.1 -874.85 270.55 -874.9 287.45 -874.9 292.1 -874.3 296.65 L-874.3 562.15 -697.1 562.15 -697.1 277.95 -698.25 277.95 Q-702.05 246.7 -727.05 225.55 -752.3 204.25 -786.25 204.25 -804.3 204.25 -820.75 210.8 -836.65 217.1 -848.9 228.65 M-866.6 287.45 L-866.55 286.45 -819.7 286.45 -819.7 354.75 -866.05 354.75 -866.05 296.0 Q-866.6 291.5 -866.6 287.45 M-855.6 249.3 L-827.8 277.2 -865.85 277.2 Q-863.7 262.15 -855.6 249.3 M-819.7 362.45 L-819.7 477.65 -866.05 477.65 -866.05 362.45 -819.7 362.45 M-811.4 286.45 L-760.05 286.45 -760.05 354.75 -811.4 354.75 -811.4 286.45 M-706.75 277.2 L-744.8 277.2 -718.45 247.05 Q-709.05 260.95 -706.75 277.2 M-782.15 212.0 Q-764.6 212.85 -749.05 220.5 -734.0 227.95 -723.4 240.5 L-755.4 277.2 -782.15 277.2 -782.15 212.0 M-705.4 362.45 L-705.4 477.65 -751.8 477.65 -751.8 362.45 -705.4 362.45 M-751.8 354.75 L-751.8 286.45 -705.4 286.45 -705.4 354.75 -751.8 354.75 M-760.05 362.45 L-760.05 477.65 -811.4 477.65 -811.4 362.45 -760.05 362.45 M-760.05 554.45 L-811.4 554.45 -811.4 485.35 -760.05 485.35 -760.05 554.45 M-705.4 485.35 L-705.4 554.45 -751.8 554.45 -751.8 485.35 -705.4 485.35 M-819.7 485.35 L-819.7 554.45 -866.05 554.45 -866.05 485.35 -819.7 485.35 M752.75 218.6 Q766.5 212.75 781.65 212.0 L781.65 277.2 755.5 277.2 721.1 242.65 Q725.0 237.75 729.0 234.0 739.4 224.25 752.75 218.6 M751.3 210.8 Q735.4 217.1 723.15 228.65 710.9 240.15 704.15 255.1 697.2 270.55 697.15 287.45 697.15 292.1 697.75 296.65 L697.75 562.15 874.95 562.15 874.95 277.95 873.8 277.95 Q870.05 246.7 845.0 225.55 819.8 204.25 785.8 204.25 767.75 204.25 751.3 210.8 M789.9 212.0 Q807.45 212.85 823.0 220.5 838.05 227.95 848.65 240.5 L816.65 277.2 789.9 277.2 789.9 212.0 M705.45 287.45 L705.5 286.45 752.4 286.45 752.4 354.75 706.0 354.75 706.0 296.0 Q705.45 291.5 705.45 287.45 M716.45 249.3 L744.25 277.2 706.2 277.2 Q708.35 262.3 716.45 249.3 M760.65 286.45 L812.0 286.45 812.0 354.75 760.65 354.75 760.65 286.45 M752.4 362.45 L752.4 477.65 706.0 477.65 706.0 362.45 752.4 362.45 M866.65 286.45 L866.65 354.75 820.3 354.75 820.3 286.45 866.65 286.45 M853.6 247.05 Q863.0 260.95 865.3 277.2 L827.25 277.2 853.6 247.05 M866.65 362.45 L866.65 477.65 820.3 477.65 820.3 362.45 866.65 362.45 M812.0 362.45 L812.0 477.65 760.65 477.65 760.65 362.45 812.0 362.45 M866.65 485.35 L866.65 554.45 820.3 554.45 820.3 485.35 866.65 485.35 M812.0 554.45 L760.65 554.45 760.65 485.35 812.0 485.35 812.0 554.45 M706.0 554.45 L706.0 485.35 752.4 485.35 752.4 554.45 706.0 554.45 M67.3 286.45 L67.3 354.75 20.95 354.75 20.95 286.45 67.3 286.45 M54.25 247.05 Q63.65 260.95 65.95 277.2 L27.9 277.2 54.25 247.05 M67.3 362.45 L67.3 477.65 20.95 477.65 20.95 362.45 67.3 362.45 M67.3 485.35 L67.3 554.45 20.95 554.45 20.95 485.35 67.3 485.35" fill="none" stroke="#000000" stroke-linecap="round" stroke-linejoin="miter-clip" stroke-miterlimit="4.0" stroke-opacity="0.6" stroke-width="1.0"/>
  </g>
</svg>
