<?xml version="1.0" encoding="UTF-8" standalone="no"?>
<svg xmlns:xlink="http://www.w3.org/1999/xlink" height="176.7px" width="1459.5px" xmlns="http://www.w3.org/2000/svg">
  <g transform="matrix(1.0, 0.0, 0.0, 1.0, 729.75, 88.55)">
    <path d="M471.8 -45.65 L513.85 -45.65 513.85 -67.95 528.1 -87.65 542.4 -67.95 542.4 -45.65 584.4 -45.65 584.4 -67.95 598.7 -87.65 613.0 -67.95 613.0 -45.65 655.05 -45.65 655.05 -67.95 669.3 -87.65 683.6 -67.95 683.6 -45.65 729.25 -45.65 729.25 -22.6 683.6 -22.6 683.6 87.65 655.05 87.65 655.05 -22.6 613.0 -22.6 613.0 87.65 584.4 87.65 584.4 -22.6 542.4 -22.6 542.4 87.65 513.85 87.65 513.85 -22.6 471.8 -22.6 471.8 87.65 443.2 87.65 443.2 -22.6 401.2 -22.6 401.2 87.65 372.65 87.65 372.65 -22.6 330.65 -22.6 330.65 87.65 302.05 87.65 302.05 -22.6 260.05 -22.6 260.05 87.65 231.45 87.65 231.45 -22.6 189.45 -22.6 189.45 87.65 160.85 87.65 160.85 -22.6 118.85 -22.6 118.85 87.65 90.25 87.65 90.25 -22.6 48.25 -22.6 48.25 87.65 19.65 87.65 19.65 -22.6 -22.35 -22.6 -22.35 87.65 -50.95 87.65 -50.95 -22.6 -92.95 -22.6 -92.95 87.65 -121.55 87.65 -121.55 -22.6 -163.55 -22.6 -163.55 87.65 -192.15 87.65 -192.15 -22.6 -234.1 -22.6 -234.15 87.65 -262.75 87.65 -262.75 -22.6 -304.75 -22.6 -304.75 87.65 -333.35 87.65 -333.35 -22.6 -375.3 -22.6 -375.35 87.65 -403.95 87.65 -403.95 -22.6 -445.95 -22.6 -445.95 87.65 -474.55 87.65 -474.55 -22.6 -516.5 -22.6 -516.55 87.65 -545.15 87.65 -545.15 -22.6 -587.1 -22.6 -587.15 87.65 -615.75 87.65 -615.7 -22.6 -657.75 -22.6 -657.75 87.65 -686.35 87.65 -686.35 -22.6 -729.25 -22.6 -729.25 -45.65 -686.35 -45.65 -686.35 -67.95 -672.05 -87.65 -657.75 -67.95 -657.75 -45.65 -615.75 -45.65 -615.75 -67.95 -601.45 -87.65 -587.15 -67.95 -587.15 -45.65 -545.15 -45.65 -545.15 -67.95 -530.85 -87.65 -516.55 -67.95 -516.55 -45.65 -474.55 -45.65 -474.55 -67.95 -460.25 -87.65 -445.95 -67.95 -445.95 -45.65 -403.95 -45.65 -403.95 -67.95 -389.65 -87.65 -375.35 -67.95 -375.35 -45.65 -333.35 -45.65 -333.35 -67.95 -319.05 -87.65 -304.75 -67.95 -304.75 -45.65 -262.75 -45.65 -262.75 -67.95 -248.45 -87.65 -234.15 -67.95 -234.15 -45.65 -192.15 -45.65 -192.15 -67.95 -177.85 -87.65 -163.55 -67.95 -163.55 -45.65 -121.55 -45.65 -121.55 -67.95 -107.25 -87.65 -92.95 -67.95 -92.95 -45.65 -50.95 -45.65 -50.95 -67.95 -36.65 -87.65 -22.35 -67.95 -22.35 -45.65 19.65 -45.65 19.65 -67.95 33.95 -87.65 48.25 -67.95 48.25 -45.65 90.25 -45.65 90.25 -67.95 104.55 -87.65 118.85 -67.95 118.85 -45.65 160.85 -45.65 160.85 -67.95 175.15 -87.65 189.45 -67.95 189.45 -45.65 231.45 -45.65 231.45 -67.95 245.75 -87.65 260.05 -67.95 260.05 -45.65 302.05 -45.65 302.05 -67.95 316.35 -87.65 330.65 -67.95 330.65 -45.65 372.65 -45.65 372.65 -67.95 386.95 -87.65 401.2 -67.95 401.2 -45.65 443.2 -45.65 443.2 -67.95 457.5 -87.65 471.8 -67.95 471.8 -45.65 471.8 -22.6 471.8 -45.65 M683.6 -22.6 L683.6 -45.65 683.6 -22.6 M-657.75 -22.6 L-657.75 -45.65 -657.75 -22.6 M-686.35 -45.65 L-686.35 -22.6 -686.35 -45.65 M-22.35 -22.6 L-22.35 -45.65 -22.35 -22.6 M-50.95 -45.65 L-50.95 -22.6 -50.95 -45.65 M-92.95 -22.6 L-92.95 -45.65 -92.95 -22.6 M-121.55 -45.65 L-121.55 -22.6 -121.55 -45.65 M-163.55 -22.6 L-163.55 -45.65 -163.55 -22.6 M-192.15 -45.65 L-192.15 -22.6 -192.15 -45.65 M-234.1 -22.6 L-234.15 -45.65 -234.1 -22.6 M-262.75 -45.65 L-262.75 -22.6 -262.75 -45.65 M-304.75 -22.6 L-304.75 -45.65 -304.75 -22.6 M-333.35 -45.65 L-333.35 -22.6 -333.35 -45.65 M-375.3 -22.6 L-375.35 -45.65 -375.3 -22.6 M-403.95 -45.65 L-403.95 -22.6 -403.95 -45.65 M-445.95 -22.6 L-445.95 -45.65 -445.95 -22.6 M-474.55 -45.65 L-474.55 -22.6 -474.55 -45.65 M-516.5 -22.6 L-516.55 -45.65 -516.5 -22.6 M-545.15 -45.65 L-545.15 -22.6 -545.15 -45.65 M-587.1 -22.6 L-587.15 -45.65 -587.1 -22.6 M-615.75 -45.65 L-615.7 -22.6 -615.75 -45.65 M613.0 -22.6 L613.0 -45.65 613.0 -22.6 M584.4 -45.65 L584.4 -22.6 584.4 -45.65 M542.4 -22.6 L542.4 -45.65 542.4 -22.6 M513.85 -45.65 L513.85 -22.6 513.85 -45.65 M443.2 -45.65 L443.2 -22.6 443.2 -45.65 M401.2 -22.6 L401.2 -45.65 401.2 -22.6 M372.65 -45.65 L372.65 -22.6 372.65 -45.65 M330.65 -22.6 L330.65 -45.65 330.65 -22.6 M302.05 -45.65 L302.05 -22.6 302.05 -45.65 M260.05 -22.6 L260.05 -45.65 260.05 -22.6 M231.45 -45.65 L231.45 -22.6 231.45 -45.65 M189.45 -22.6 L189.45 -45.65 189.45 -22.6 M160.85 -45.65 L160.85 -22.6 160.85 -45.65 M118.85 -22.6 L118.85 -45.65 118.85 -22.6 M90.25 -45.65 L90.25 -22.6 90.25 -45.65 M48.25 -22.6 L48.25 -45.65 48.25 -22.6 M19.65 -45.65 L19.65 -22.6 19.65 -45.65 M655.05 -45.65 L655.05 -22.6 655.05 -45.65" fill="#ffffff" fill-opacity="0.0" fill-rule="evenodd" stroke="none"/>
    <path d="M471.8 -45.65 L513.85 -45.65 513.85 -67.95 528.1 -87.65 542.4 -67.95 542.4 -45.65 584.4 -45.65 584.4 -67.95 598.7 -87.65 613.0 -67.95 613.0 -45.65 655.05 -45.65 655.05 -67.95 669.3 -87.65 683.6 -67.95 683.6 -45.65 729.25 -45.65 729.25 -22.6 683.6 -22.6 683.6 87.65 655.05 87.65 655.05 -22.6 613.0 -22.6 613.0 87.65 584.4 87.65 584.4 -22.6 542.4 -22.6 542.4 87.65 513.85 87.65 513.85 -22.6 471.8 -22.6 471.8 87.65 443.2 87.65 443.2 -22.6 401.2 -22.6 401.2 87.65 372.65 87.65 372.65 -22.6 330.65 -22.6 330.65 87.65 302.05 87.65 302.05 -22.6 260.05 -22.6 260.05 87.65 231.45 87.65 231.45 -22.6 189.45 -22.6 189.45 87.65 160.85 87.65 160.85 -22.6 118.85 -22.6 118.85 87.65 90.25 87.65 90.25 -22.6 48.25 -22.6 48.25 87.65 19.65 87.65 19.65 -22.6 -22.35 -22.6 -22.35 87.65 -50.95 87.65 -50.95 -22.6 -92.95 -22.6 -92.95 87.65 -121.55 87.65 -121.55 -22.6 -163.55 -22.6 -163.55 87.65 -192.15 87.65 -192.15 -22.6 -234.1 -22.6 -234.15 87.65 -262.75 87.65 -262.75 -22.6 -304.75 -22.6 -304.75 87.65 -333.35 87.65 -333.35 -22.6 -375.3 -22.6 -375.35 87.65 -403.95 87.65 -403.95 -22.6 -445.95 -22.6 -445.95 87.65 -474.55 87.65 -474.55 -22.6 -516.5 -22.6 -516.55 87.65 -545.15 87.65 -545.15 -22.6 -587.1 -22.6 -587.15 87.65 -615.75 87.65 -615.7 -22.6 -657.75 -22.6 -657.75 87.65 -686.35 87.65 -686.35 -22.6 -729.25 -22.6 -729.25 -45.65 -686.35 -45.65 -686.35 -67.95 -672.05 -87.65 -657.75 -67.95 -657.75 -45.65 -615.75 -45.65 -615.75 -67.95 -601.45 -87.65 -587.15 -67.95 -587.15 -45.65 -545.15 -45.65 -545.15 -67.95 -530.85 -87.65 -516.55 -67.95 -516.55 -45.65 -474.55 -45.65 -474.55 -67.95 -460.25 -87.65 -445.95 -67.95 -445.95 -45.65 -403.95 -45.65 -403.95 -67.95 -389.65 -87.65 -375.35 -67.95 -375.35 -45.65 -333.35 -45.65 -333.35 -67.95 -319.05 -87.65 -304.75 -67.95 -304.75 -45.65 -262.75 -45.65 -262.75 -67.95 -248.45 -87.65 -234.15 -67.95 -234.15 -45.65 -192.15 -45.65 -192.15 -67.95 -177.85 -87.65 -163.55 -67.95 -163.55 -45.65 -121.55 -45.65 -121.55 -67.95 -107.25 -87.65 -92.95 -67.95 -92.95 -45.65 -50.95 -45.65 -50.95 -67.95 -36.65 -87.65 -22.35 -67.95 -22.35 -45.65 19.65 -45.65 19.65 -67.95 33.95 -87.65 48.25 -67.95 48.25 -45.65 90.25 -45.65 90.25 -67.95 104.55 -87.65 118.85 -67.95 118.85 -45.65 160.85 -45.65 160.85 -67.95 175.15 -87.65 189.45 -67.95 189.45 -45.65 231.45 -45.65 231.45 -67.95 245.75 -87.65 260.05 -67.95 260.05 -45.65 302.05 -45.65 302.05 -67.95 316.35 -87.65 330.65 -67.95 330.65 -45.65 372.65 -45.65 372.65 -67.95 386.95 -87.65 401.2 -67.95 401.2 -45.65 443.2 -45.65 443.2 -67.95 457.5 -87.65 471.8 -67.95 471.8 -45.65 471.8 -22.6 M683.6 -45.65 L683.6 -22.6" fill="none" stroke="#000000" stroke-linecap="round" stroke-linejoin="miter-clip" stroke-miterlimit="4.0" stroke-width="1.0"/>
    <path d="M655.05 -22.6 L655.05 -45.65 M19.65 -22.6 L19.65 -45.65 M48.25 -45.65 L48.25 -22.6 M90.25 -22.6 L90.25 -45.65 M118.85 -45.65 L118.85 -22.6 M160.85 -22.6 L160.85 -45.65 M189.45 -45.65 L189.45 -22.6 M231.45 -22.6 L231.45 -45.65 M260.05 -45.65 L260.05 -22.6 M302.05 -22.6 L302.05 -45.65 M330.65 -45.65 L330.65 -22.6 M372.65 -22.6 L372.65 -45.65 M401.2 -45.65 L401.2 -22.6 M443.2 -22.6 L443.2 -45.65 M513.85 -22.6 L513.85 -45.65 M542.4 -45.65 L542.4 -22.6 M584.4 -22.6 L584.4 -45.65 M613.0 -45.65 L613.0 -22.6 M-615.7 -22.6 L-615.75 -45.65 M-587.15 -45.65 L-587.1 -22.6 M-545.15 -22.6 L-545.15 -45.65 M-516.55 -45.65 L-516.5 -22.6 M-474.55 -22.6 L-474.55 -45.65 M-445.95 -45.65 L-445.95 -22.6 M-403.95 -22.6 L-403.95 -45.65 M-375.35 -45.65 L-375.3 -22.6 M-333.35 -22.6 L-333.35 -45.65 M-304.75 -45.65 L-304.75 -22.6 M-262.75 -22.6 L-262.75 -45.65 M-234.15 -45.65 L-234.1 -22.6 M-192.15 -22.6 L-192.15 -45.65 M-163.55 -45.65 L-163.55 -22.6 M-121.55 -22.6 L-121.55 -45.65 M-92.95 -45.65 L-92.95 -22.6 M-50.95 -22.6 L-50.95 -45.65 M-22.35 -45.65 L-22.35 -22.6 M-686.35 -22.6 L-686.35 -45.65 M-657.75 -45.65 L-657.75 -22.6" fill="none" stroke="#000000" stroke-linecap="round" stroke-linejoin="miter-clip" stroke-miterlimit="4.0" stroke-opacity="0.6" stroke-width="1.0"/>
  </g>
</svg>
