<?xml version="1.0" encoding="UTF-8" standalone="no"?>
<svg xmlns:xlink="http://www.w3.org/1999/xlink" height="1363.65px" width="338.6px" xmlns="http://www.w3.org/2000/svg">
  <g transform="matrix(1.0, 0.0, 0.0, 1.0, 151.05, 383.05)">
    <path d="M62.75 -232.2 L-45.9 -232.2 -45.9 -382.55 62.75 -382.55 62.75 -232.2 M150.55 -79.5 L150.55 110.35 41.9 110.35 41.9 -79.5 150.55 -79.5 M-41.9 -79.5 L-41.9 110.35 -150.55 110.35 -150.55 -79.5 -41.9 -79.5 M-41.9 192.7 L-41.9 382.55 -150.55 382.55 -150.55 192.7 -41.9 192.7 M-95.25 804.5 L-95.25 771.65 -110.6 771.65 -110.6 804.5 -126.15 804.5 -110.6 804.5 -110.6 839.7 -95.25 839.7 -95.25 804.5 -20.8 804.5 -95.25 804.5 M-126.15 804.5 L-126.15 652.15 -20.8 652.15 -20.8 804.5 -20.8 948.05 -126.15 948.05 -126.15 804.5 M150.55 192.7 L150.55 382.55 41.9 382.55 41.9 192.7 150.55 192.7 M187.05 619.45 L187.05 964.55 53.2 964.55 53.2 619.45 187.05 619.45" fill="#ffffff" fill-opacity="0.0" fill-rule="evenodd" stroke="none"/>
    <path d="M-20.8 804.5 L-20.8 652.15 -126.15 652.15 -126.15 804.5 -126.15 948.05 -20.8 948.05 -20.8 804.5 -20.55 804.5 -20.8 804.5 M2.65 625.95 L2.65 980.1 -149.55 980.1 -149.55 625.95 2.65 625.95" fill="#000000" fill-opacity="0.09803922" fill-rule="evenodd" stroke="none"/>
    <path d="M-110.6 804.5 L-110.6 771.65 -95.25 771.65 -95.25 804.5 -95.25 839.7 -110.6 839.7 -110.6 804.5" fill="#ffffff" fill-opacity="0.14901961" fill-rule="evenodd" stroke="none"/>
    <path d="M62.75 -232.2 L-45.9 -232.2 -45.9 -382.55 62.75 -382.55 62.75 -232.2 M150.55 -79.5 L150.55 110.35 41.9 110.35 41.9 -79.5 150.55 -79.5 M-41.9 -79.5 L-41.9 110.35 -150.55 110.35 -150.55 -79.5 -41.9 -79.5 M-41.9 192.7 L-41.9 382.55 -150.55 382.55 -150.55 192.7 -41.9 192.7 M150.55 192.7 L150.55 382.55 41.9 382.55 41.9 192.7 150.55 192.7" fill="none" stroke="#000000" stroke-linecap="round" stroke-linejoin="miter-clip" stroke-miterlimit="4.0" stroke-width="1.0"/>
    <path d="M-110.6 804.5 L-110.6 771.65 -95.25 771.65 -95.25 804.5 -20.8 804.5 -20.8 652.15 -126.15 652.15 -126.15 804.5 -110.6 804.5 -110.6 839.7 -95.25 839.7 -95.25 804.5 M187.05 619.45 L187.05 964.55 53.2 964.55 53.2 619.45 187.05 619.45 M2.65 625.95 L2.65 980.1 -149.55 980.1 -149.55 625.95 2.65 625.95 M-20.55 804.5 L-20.8 804.5 -20.8 948.05 -126.15 948.05 -126.15 804.5" fill="none" stroke="#000000" stroke-linecap="round" stroke-linejoin="miter-clip" stroke-miterlimit="4.0" stroke-opacity="0.6" stroke-width="1.0"/>
  </g>
</svg>
