<?xml version="1.0" encoding="UTF-8" standalone="no"?>
<svg xmlns:xlink="http://www.w3.org/1999/xlink" height="395.15px" width="1696.15px" xmlns="http://www.w3.org/2000/svg">
  <g transform="matrix(1.0, 0.0, 0.0, 1.0, 848.05, 197.6)">
    <path d="M790.25 -101.0 L790.25 -197.1 847.6 -197.1 847.6 154.65 843.65 154.65 843.65 197.05 -847.55 197.05 -847.55 151.6 -847.55 -197.1 -790.15 -197.1 -790.15 -101.0 -27.75 -101.0 -27.75 -197.1 29.6 -197.1 29.6 -101.0 790.25 -101.0 790.2 -60.8 790.25 -5.3 790.2 50.15 790.25 105.6 790.25 154.65 843.65 154.65 790.25 154.65 790.25 105.6 790.2 50.15 790.25 -5.3 790.2 -60.8 790.25 -101.0 M29.6 -5.3 L29.6 -60.8 29.6 -5.3 790.25 -5.3 29.6 -5.3 29.6 50.15 29.6 -5.3 M29.6 -60.8 L29.6 -101.0 29.6 -60.8 790.2 -60.8 29.6 -60.8 M-27.75 105.6 L-27.75 154.65 29.6 154.65 29.6 105.6 29.6 154.65 -27.75 154.65 -27.75 105.6 -790.15 105.6 -27.75 105.6 -27.75 50.15 -27.75 -5.3 -27.75 50.15 -27.75 105.6 M29.6 105.6 L29.6 50.15 29.6 105.6 790.25 105.6 29.6 105.6 M-847.55 151.6 L-790.15 151.6 -790.15 105.6 -790.15 151.6 -847.55 151.6 M29.6 50.15 L790.2 50.15 29.6 50.15 M-27.75 -60.8 L-27.75 -5.3 -27.75 -60.8 -790.15 -60.8 -27.75 -60.8 -27.75 -101.0 -27.75 -60.8 M-790.15 -5.3 L-790.15 -60.8 -790.15 -5.3 -27.75 -5.3 -790.15 -5.3 -790.15 50.15 -790.15 -5.3 M-790.15 105.6 L-790.15 50.15 -790.15 105.6 M-790.15 -60.8 L-790.15 -101.0 -790.15 -60.8 M-790.15 50.15 L-27.75 50.15 -790.15 50.15" fill="#ffffff" fill-opacity="0.0" fill-rule="evenodd" stroke="none"/>
    <path d="M790.25 -101.0 L790.25 -197.1 847.6 -197.1 847.6 154.65 843.65 154.65 843.65 197.05 -847.55 197.05 -847.55 151.6 -847.55 -197.1 -790.15 -197.1 -790.15 -101.0 -27.75 -101.0 -27.75 -197.1 29.6 -197.1 29.6 -101.0 790.25 -101.0 790.2 -60.8 790.25 -5.3 790.2 50.15 790.25 105.6 790.25 154.65 843.65 154.65 M29.6 -60.8 L29.6 -5.3 29.6 50.15 29.6 105.6 29.6 154.65 -27.75 154.65 -27.75 105.6 -27.75 50.15 -27.75 -5.3 -27.75 -60.8 -27.75 -101.0 M29.6 -101.0 L29.6 -60.8 M-790.15 105.6 L-790.15 151.6 -847.55 151.6 M-790.15 -60.8 L-790.15 -5.3 -790.15 50.15 -790.15 105.6 M-790.15 -101.0 L-790.15 -60.8" fill="none" stroke="#000000" stroke-linecap="round" stroke-linejoin="miter-clip" stroke-miterlimit="4.0" stroke-width="1.0"/>
    <path d="M29.6 -5.3 L790.25 -5.3 M29.6 -60.8 L790.2 -60.8 M-27.75 105.6 L-790.15 105.6 M29.6 105.6 L790.25 105.6 M790.2 50.15 L29.6 50.15 M-27.75 -60.8 L-790.15 -60.8 M-790.15 -5.3 L-27.75 -5.3 M-27.75 50.15 L-790.15 50.15" fill="none" stroke="#000000" stroke-linecap="round" stroke-linejoin="miter-clip" stroke-miterlimit="4.0" stroke-opacity="0.6" stroke-width="1.0"/>
  </g>
</svg>
