<?xml version="1.0" encoding="UTF-8" standalone="no"?>
<svg xmlns:xlink="http://www.w3.org/1999/xlink" height="1191.4px" width="510.6px" xmlns="http://www.w3.org/2000/svg">
  <g transform="matrix(1.0, 0.0, 0.0, 1.0, 255.3, 430.05)">
    <path d="M-218.85 181.0 L226.65 181.0 254.8 181.0 254.8 284.15 226.65 284.15 -218.85 284.15 -254.8 284.15 -254.8 181.0 -218.85 181.0 M188.25 201.05 L181.05 209.7 228.7 209.7 228.7 258.85 240.3 266.1 240.3 201.05 188.25 201.05 M-187.4 201.05 L-239.4 201.05 -239.4 266.1 -227.85 258.85 -227.85 209.7 -180.15 209.7 -187.4 201.05" fill="#000000" fill-opacity="0.14901961" fill-rule="evenodd" stroke="none"/>
    <path d="M-218.85 -424.7 L223.6 -424.7 223.6 -429.55 226.65 -429.55 226.65 37.65 226.4 37.65 -218.85 37.65 -218.85 -424.7 M181.4 -364.7 L194.05 -376.9 25.0 -376.9 25.0 -4.1 37.8 1.9 38.45 -6.5 38.45 -364.7 181.4 -364.7 M-218.85 86.75 L-191.15 86.75 -191.15 180.55 -150.7 180.55 -150.7 86.75 -101.55 86.75 -101.55 180.55 -61.1 180.55 -61.1 86.75 -11.95 86.75 -11.95 180.55 28.5 180.55 28.5 86.75 77.6 86.75 77.6 180.55 118.05 180.55 118.05 86.75 158.5 86.75 158.5 180.55 198.95 180.55 198.95 86.75 226.4 86.75 226.65 86.75 226.65 181.0 -218.85 181.0 -218.85 86.75 M226.65 327.9 L226.65 760.85 -218.85 760.85 -218.85 327.9 226.65 327.9 M190.05 381.0 L190.05 741.5 47.1 741.5 47.1 381.0 190.05 381.0 M7.65 755.9 L7.65 365.75 -183.05 365.75 -183.05 754.45 -168.0 754.6 -168.0 381.05 -5.45 381.05 -5.45 755.8 7.65 755.9 M204.15 364.35 L32.2 364.35 32.2 751.55 204.15 753.0 204.15 364.35 M-23.8 -364.7 L-19.8 -368.2 -11.15 -376.9 -180.15 -376.9 -180.15 -4.1 -167.35 1.9 -166.75 -6.35 -166.75 -364.7 -23.8 -364.7" fill="#ffffff" fill-opacity="0.0" fill-rule="evenodd" stroke="none"/>
    <path d="M181.4 -364.7 L38.45 -364.7 38.45 -6.5 37.8 1.9 25.0 -4.1 25.0 -376.9 194.05 -376.9 181.4 -364.7 M188.25 201.05 L240.3 201.05 240.3 266.1 228.7 258.85 228.7 209.7 181.05 209.7 188.25 201.05 M-23.8 -364.7 L-166.75 -364.7 -166.75 -6.35 -167.35 1.9 -180.15 -4.1 -180.15 -376.9 -11.15 -376.9 -19.8 -368.2 -23.8 -364.7 M-187.4 201.05 L-180.15 209.7 -227.85 209.7 -227.85 258.85 -239.4 266.1 -239.4 201.05 -187.4 201.05" fill="#000000" fill-opacity="0.29803923" fill-rule="evenodd" stroke="none"/>
    <path d="M-218.85 37.65 L226.4 37.65 226.65 37.65 226.65 86.75 226.4 86.75 198.95 86.75 198.95 180.55 158.5 180.55 158.5 86.75 118.05 86.75 118.05 180.55 77.6 180.55 77.6 86.75 28.5 86.75 28.5 180.55 -11.95 180.55 -11.95 86.75 -61.1 86.75 -61.1 180.55 -101.55 180.55 -101.55 86.75 -150.7 86.75 -150.7 180.55 -191.15 180.55 -191.15 86.75 -218.85 86.75 -218.85 37.65 M226.4 86.75 L226.4 37.65 226.4 86.75" fill="#000000" fill-opacity="0.44705883" fill-rule="evenodd" stroke="none"/>
    <path d="M226.65 284.15 L226.65 327.9 -218.85 327.9 -218.85 284.15 226.65 284.15 M190.05 381.0 L47.1 381.0 47.1 741.5 190.05 741.5 190.05 381.0 M204.15 364.35 L204.15 753.0 32.2 751.55 32.2 364.35 204.15 364.35 M7.65 755.9 L-5.45 755.8 -5.45 381.05 -168.0 381.05 -168.0 754.6 -183.05 754.45 -183.05 365.75 7.65 365.75 7.65 755.9" fill="#000000" fill-opacity="0.24705882" fill-rule="evenodd" stroke="none"/>
    <path d="M-218.85 -424.7 L-218.85 37.65 -218.85 86.75 -218.85 181.0 226.65 181.0 226.65 86.75 226.65 37.65 226.65 -429.55 M226.65 181.0 L254.8 181.0 254.8 284.15 226.65 284.15 226.65 327.9 226.65 760.85 -218.85 760.85 -218.85 327.9 -218.85 284.15 -254.8 284.15 -254.8 181.0 -218.85 181.0 M226.65 284.15 L-218.85 284.15" fill="none" stroke="#000000" stroke-linecap="round" stroke-linejoin="miter-clip" stroke-miterlimit="4.0" stroke-width="1.0"/>
    <path d="M-218.85 37.65 L226.4 37.65 226.65 37.65 M226.65 86.75 L226.4 86.75 198.95 86.75 198.95 180.55 158.5 180.55 158.5 86.75 118.05 86.75 118.05 180.55 77.6 180.55 77.6 86.75 28.5 86.75 28.5 180.55 -11.95 180.55 -11.95 86.75 -61.1 86.75 -61.1 180.55 -101.55 180.55 -101.55 86.75 -150.7 86.75 -150.7 180.55 -191.15 180.55 -191.15 86.75 -218.85 86.75 M226.4 37.65 L226.4 86.75" fill="none" stroke="#000000" stroke-linecap="round" stroke-linejoin="miter-clip" stroke-miterlimit="4.0" stroke-opacity="0.6" stroke-width="1.0"/>
  </g>
</svg>
