<?xml version="1.0" encoding="UTF-8" standalone="no"?>
<svg xmlns:xlink="http://www.w3.org/1999/xlink" height="353.5px" width="2644.3px" xmlns="http://www.w3.org/2000/svg">
  <g transform="matrix(1.0, 0.0, 0.0, 1.0, 1322.8, 177.3)">
    <path d="M1297.65 116.8 Q1291.65 119.05 1290.0 119.85 L1300.4 109.0 Q1292.15 112.25 1280.85 115.0 L1261.05 119.35 Q1261.15 118.35 1263.8 116.7 1266.45 115.05 1266.6 114.1 L1234.45 118.7 Q1216.15 120.65 1201.95 119.4 1204.65 118.6 1204.5 115.4 L1177.2 114.3 1149.7 113.25 1159.3 110.8 Q1166.9 108.8 1171.0 108.4 1165.15 105.8 1149.4 102.4 1132.45 98.7 1126.15 96.35 1129.65 94.2 1134.7 88.7 1140.35 82.55 1141.45 81.7 1131.35 75.45 1119.8 72.8 1108.6 70.2 1096.7 71.1 L1112.75 68.05 Q1123.15 65.8 1128.95 65.1 1120.25 60.5 1102.05 57.15 L1072.4 51.45 Q1078.65 51.15 1088.25 48.95 1099.65 46.4 1104.1 45.8 1096.55 40.55 1085.25 38.25 1073.9 35.95 1063.25 37.5 L1080.95 25.4 Q1091.95 17.7 1099.05 13.9 1051.95 20.65 1008.65 31.9 1010.9 27.95 1010.9 23.5 990.75 26.3 981.5 28.75 964.25 33.3 953.75 41.7 963.2 28.3 969.25 17.0 975.2 5.85 981.55 -10.15 979.8 -11.9 976.2 -11.1 972.0 -10.2 970.8 -10.65 974.55 -13.2 980.9 -20.35 987.5 -27.8 989.7 -29.45 984.8 -27.6 974.05 -25.4 963.1 -23.25 957.75 -21.25 963.6 -24.55 973.8 -32.5 984.85 -41.15 989.2 -43.85 L952.1 -39.7 Q931.1 -36.8 916.3 -30.75 918.45 -34.5 918.35 -39.1 914.9 -37.2 904.95 -34.8 894.2 -32.2 890.75 -30.65 891.0 -33.15 891.9 -37.15 L893.2 -44.0 Q874.4 -38.75 850.65 -36.9 L806.8 -34.75 Q809.55 -34.95 813.7 -38.9 816.8 -41.85 819.35 -45.45 822.8 -50.35 809.85 -60.35 798.7 -68.95 776.5 -80.55 L777.2 -80.5 779.6 -80.35 791.3 -79.3 Q788.05 -84.9 787.2 -90.3 786.0 -98.2 784.85 -101.65 787.6 -100.2 798.6 -98.4 808.5 -96.8 813.05 -93.25 814.15 -94.1 814.3 -99.55 L814.5 -106.75 Q821.05 -101.4 829.85 -95.55 829.95 -109.05 831.15 -116.45 832.25 -115.05 842.2 -108.65 851.75 -102.5 854.6 -98.05 855.5 -98.6 867.65 -111.55 868.5 -106.45 869.4 -102.85 872.05 -107.35 873.85 -109.85 876.85 -114.05 879.9 -116.45 880.4 -113.0 882.65 -103.7 884.65 -95.35 885.1 -90.2 886.55 -96.35 891.55 -109.85 896.25 -122.5 897.7 -129.95 904.25 -119.3 911.6 -114.45 918.1 -110.15 929.9 -107.8 929.85 -109.9 928.75 -114.25 927.7 -118.35 927.75 -120.95 L945.35 -118.3 Q956.25 -116.85 962.8 -112.5 961.0 -115.85 959.5 -121.55 L957.2 -129.6 Q966.55 -123.95 977.15 -122.1 987.65 -120.3 998.0 -122.5 994.75 -124.55 985.45 -131.9 978.25 -137.65 975.05 -139.6 985.05 -133.9 995.45 -130.45 1007.55 -126.45 1018.4 -126.25 1015.95 -129.85 1014.55 -133.65 L1012.0 -140.45 1019.45 -134.55 1027.5 -128.15 Q1027.2 -131.6 1028.15 -139.0 1029.1 -147.05 1029.05 -150.05 1031.35 -147.4 1038.9 -143.0 1046.65 -138.55 1048.6 -136.45 1048.5 -140.95 1050.7 -148.6 1053.05 -156.9 1053.15 -158.7 1059.9 -151.6 1069.25 -146.05 L1086.65 -136.85 Q1084.3 -141.25 1082.25 -150.15 1079.95 -159.9 1078.5 -163.3 L1080.65 -160.5 1083.1 -157.05 Q1084.2 -158.75 1083.0 -164.9 1081.75 -171.2 1082.6 -172.9 1091.1 -162.85 1095.85 -156.25 1095.15 -165.45 1096.15 -176.2 1097.75 -173.6 1108.0 -158.5 L1115.6 -146.6 Q1112.3 -150.65 1109.85 -155.0 1114.0 -147.2 1119.05 -140.25 L1115.6 -146.6 Q1125.25 -134.75 1142.05 -125.4 1158.0 -116.5 1189.85 -105.85 1228.45 -92.9 1240.0 -87.95 1266.45 -76.5 1279.75 -62.0 1300.75 -39.05 1311.7 -7.9 1322.45 22.65 1320.8 53.1 1320.4 59.95 1319.45 66.4 1317.65 77.95 1313.9 88.3 1310.05 98.85 1304.1 108.15 L1303.5 109.1 1303.35 109.35 1297.65 116.8 M1109.15 -156.25 L1109.85 -155.0 1109.15 -156.25 M-1255.45 -81.95 L-1245.55 -82.4 Q-1233.65 -83.55 -1223.75 -87.4 -1226.25 -92.8 -1225.3 -96.85 -1223.95 -102.5 -1224.2 -105.0 L-1227.9 -110.0 -1231.55 -114.55 Q-1216.55 -114.1 -1208.25 -115.1 -1199.9 -116.1 -1193.45 -119.2 -1188.35 -121.6 -1180.0 -127.8 L-1160.9 -141.85 Q-1162.55 -138.2 -1166.45 -127.05 L-1170.35 -116.1 Q-1167.65 -118.6 -1163.4 -124.1 L-1157.0 -132.7 Q-1155.9 -129.35 -1155.3 -125.5 -1153.35 -127.85 -1148.1 -132.4 L-1140.3 -138.6 Q-1140.75 -134.65 -1139.5 -125.35 -1138.25 -115.95 -1138.65 -112.15 -1135.5 -116.9 -1128.6 -121.65 -1120.75 -127.1 -1118.9 -129.15 -1117.55 -127.45 -1118.4 -122.6 -1119.25 -117.85 -1117.75 -116.1 -1112.9 -116.45 -1107.8 -118.7 -1104.8 -120.0 -1098.0 -123.25 -1096.5 -122.5 -1097.15 -117.45 L-1097.7 -112.45 -1086.85 -120.95 Q-1079.9 -126.3 -1076.95 -129.15 -1076.65 -128.15 -1076.75 -122.55 -1076.85 -118.05 -1075.4 -116.9 -1074.85 -120.75 -1071.15 -129.65 -1067.55 -138.5 -1066.95 -143.15 -1065.2 -140.45 -1056.5 -131.0 -1049.4 -123.2 -1046.7 -116.9 -1047.3 -122.25 -1046.5 -132.45 -1045.75 -143.2 -1046.05 -147.7 -1045.15 -145.4 -1039.85 -137.6 -1034.95 -130.3 -1033.3 -125.2 -1030.9 -127.7 -1022.85 -132.45 -1014.85 -137.2 -1013.85 -138.25 L-1013.75 -131.45 Q-1013.75 -126.85 -1012.6 -125.2 -1007.7 -130.7 -996.6 -135.45 -982.35 -141.5 -980.2 -142.9 -980.85 -139.85 -981.45 -131.3 -981.9 -124.25 -983.6 -119.25 -977.5 -122.95 -967.5 -125.05 -954.3 -127.8 -951.4 -128.8 -954.1 -125.55 -957.4 -119.8 L-962.4 -111.3 Q-946.35 -118.35 -927.25 -118.0 -915.95 -117.75 -891.85 -114.8 -890.55 -113.05 -890.8 -108.7 -891.1 -103.55 -890.7 -102.1 -887.55 -103.35 -878.7 -104.0 -869.45 -104.65 -866.55 -105.6 -867.1 -103.45 -867.85 -97.05 -868.45 -91.85 -869.8 -88.45 -866.25 -89.7 -855.5 -89.8 -844.95 -89.9 -841.3 -91.35 -842.2 -87.15 -844.5 -78.9 -830.55 -86.1 -820.55 -89.15 -806.7 -93.35 -795.15 -91.5 -795.55 -86.3 -797.2 -77.75 -783.3 -83.25 -773.15 -85.5 -759.55 -88.5 -748.4 -86.8 -749.9 -84.3 -752.25 -77.8 -754.75 -70.9 -755.45 -69.55 -742.65 -68.4 -722.3 -64.35 L-722.05 -64.3 -721.75 -64.25 -697.9 -59.35 -698.2 -59.4 -743.65 -51.5 Q-769.4 -48.0 -788.8 -50.5 -788.35 -49.2 -786.15 -46.3 -783.9 -43.35 -783.3 -41.65 L-800.55 -41.05 Q-812.2 -39.85 -818.2 -41.2 L-813.25 -36.05 -808.35 -31.15 Q-815.0 -33.2 -826.75 -33.8 L-844.85 -35.25 Q-844.25 -32.75 -841.7 -31.25 -838.8 -29.5 -837.9 -27.8 L-851.2 -29.15 Q-858.0 -29.75 -862.4 -30.95 L-851.15 -27.0 -837.5 -21.95 Q-847.15 -23.2 -859.5 -26.15 L-881.15 -31.75 Q-878.75 -30.6 -879.1 -27.65 -883.4 -30.1 -894.75 -34.0 -905.75 -37.8 -910.25 -40.5 L-903.5 -33.45 -896.85 -26.55 Q-903.65 -28.55 -916.8 -31.15 L-936.2 -35.35 Q-932.7 -33.25 -923.3 -26.55 -915.15 -20.8 -910.15 -18.1 -919.4 -21.95 -929.8 -22.85 -936.7 -23.45 -945.4 -22.75 -948.85 -25.65 -958.15 -30.8 -966.9 -35.65 -970.55 -39.1 L-971.85 -33.35 Q-976.25 -37.1 -985.6 -41.45 -997.0 -46.75 -999.95 -48.55 L-1000.85 -40.3 -1001.45 -32.0 Q-1004.5 -32.6 -1011.3 -34.75 -1017.0 -36.5 -1020.6 -36.85 -1022.95 -40.0 -1027.6 -45.2 L-1034.55 -53.3 Q-1034.35 -50.4 -1034.8 -44.75 L-1035.1 -36.55 Q-1037.45 -40.5 -1045.3 -46.65 L-1054.55 -54.25 Q-1055.0 -48.75 -1055.1 -37.8 -1057.5 -39.85 -1061.6 -44.25 L-1067.9 -50.75 -1072.3 -42.0 Q-1075.6 -35.5 -1077.25 -33.0 L-1085.5 -39.45 -1092.4 -44.9 -1092.45 -36.7 Q-1092.45 -31.25 -1092.95 -28.5 -1094.1 -33.25 -1099.5 -43.55 -1105.15 -54.3 -1106.6 -59.25 -1107.75 -57.55 -1114.05 -51.85 -1119.75 -46.65 -1121.95 -42.5 L-1120.7 -53.0 Q-1119.6 -60.65 -1118.9 -63.85 L-1123.15 -61.8 Q-1128.1 -59.25 -1130.05 -57.75 -1127.85 -62.6 -1126.2 -70.4 -1124.35 -79.3 -1123.25 -82.35 -1125.9 -79.8 -1137.45 -72.55 -1147.45 -66.3 -1151.3 -61.15 -1152.5 -63.05 -1152.45 -66.95 -1152.45 -72.1 -1152.65 -73.2 L-1161.1 -66.6 Q-1166.9 -62.0 -1170.05 -60.2 -1173.35 -59.3 -1183.35 -57.95 -1193.15 -56.65 -1197.6 -55.4 -1198.85 -56.1 -1198.8 -60.8 -1198.7 -66.35 -1198.95 -67.1 L-1209.0 -63.25 Q-1214.85 -61.1 -1219.05 -60.2 -1216.05 -62.5 -1212.15 -66.45 L-1205.65 -73.1 Q-1210.1 -68.85 -1228.4 -65.95 L-1263.45 -61.9 -1262.5 -63.55 Q-1271.45 -63.45 -1294.65 -58.45 -1315.95 -53.9 -1321.0 -54.6 -1311.5 -58.75 -1286.1 -68.35 -1263.5 -76.95 -1253.35 -81.8 L-1255.45 -81.95" fill="#ffffff" fill-opacity="0.0" fill-rule="evenodd" stroke="none"/>
    <path d="M744.05 -72.55 L736.45 -73.15 734.9 -73.5 740.5 -72.8 740.55 -72.8 741.4 -72.7 741.75 -72.7 741.85 -72.7 744.05 -72.55 M1258.95 144.45 L1259.0 144.4 1259.0 144.45 1258.95 144.45 M1295.85 119.15 L1297.65 116.8 1297.85 116.7 1295.85 119.15 M775.4 -80.7 L771.2 -81.35 771.65 -81.3 775.4 -80.7 M766.75 -74.3 L750.9 -72.9 750.05 -72.8 755.75 -73.4 766.75 -74.3 M-685.1 -56.7 L-684.4 -56.6 -683.35 -56.35 -685.1 -56.7 M-1292.65 -28.4 L-1266.5 -57.2 -1263.6 -61.9 -1263.45 -61.9 Q-1275.0 -42.85 -1293.15 -27.95 L-1292.65 -28.4 M-962.65 -3.8 L-960.1 -3.55 -957.85 -3.35 -958.1 -3.35 -960.5 -3.55 -962.65 -3.8 M-928.9 -3.45 L-929.1 -3.75 -926.25 -3.65 -928.15 -3.5 -928.9 -3.45 M-914.3 9.15 L-912.75 10.05 -909.6 11.8 -911.0 11.05 -912.55 10.2 -914.3 9.15 M-740.2 -3.5 L-737.7 -3.55 -732.45 -3.5 -740.2 -3.5" fill="#aeaeae" fill-rule="evenodd" stroke="none"/>
    <path d="M673.45 -54.35 Q702.1 -57.1 710.85 -58.75 733.75 -62.95 746.05 -72.4 L744.1 -72.55 744.25 -72.55 749.15 -72.75 750.05 -72.8 750.9 -72.9 766.75 -74.3 766.9 -74.3 768.1 -82.4 768.3 -82.3 769.45 -81.85 771.05 -81.4 771.2 -81.35 775.4 -80.7 775.85 -80.6 776.5 -80.55 Q798.7 -68.95 809.85 -60.35 822.8 -50.35 819.35 -45.45 816.8 -41.85 813.7 -38.9 809.55 -34.95 806.8 -34.75 L850.65 -36.9 Q874.4 -38.75 893.2 -44.0 L891.9 -37.15 Q891.0 -33.15 890.75 -30.65 894.2 -32.2 904.95 -34.8 914.9 -37.2 918.35 -39.1 918.45 -34.5 916.3 -30.75 931.1 -36.8 952.1 -39.7 L989.2 -43.85 Q984.85 -41.15 973.8 -32.5 963.6 -24.55 957.75 -21.25 963.1 -23.25 974.05 -25.4 984.8 -27.6 989.7 -29.45 987.5 -27.8 980.9 -20.35 974.55 -13.2 970.8 -10.65 972.0 -10.2 976.2 -11.1 979.8 -11.9 981.55 -10.15 975.2 5.85 969.25 17.0 963.2 28.3 953.75 41.7 964.25 33.3 981.5 28.75 990.75 26.3 1010.9 23.5 1010.9 27.95 1008.65 31.9 1051.95 20.65 1099.05 13.9 1091.95 17.7 1080.95 25.4 L1063.25 37.5 Q1073.9 35.95 1085.25 38.25 1096.55 40.55 1104.1 45.8 1099.65 46.4 1088.25 48.95 1078.65 51.15 1072.4 51.45 L1102.05 57.15 Q1120.25 60.5 1128.95 65.1 1123.15 65.8 1112.75 68.05 L1096.7 71.1 Q1108.6 70.2 1119.8 72.8 1131.35 75.45 1141.45 81.7 1140.35 82.55 1134.7 88.7 1129.65 94.2 1126.15 96.35 1132.45 98.7 1149.4 102.4 1165.15 105.8 1171.0 108.4 1166.9 108.8 1159.3 110.8 L1149.7 113.25 1177.2 114.3 1204.5 115.4 Q1204.65 118.6 1201.95 119.4 1216.15 120.65 1234.45 118.7 L1266.6 114.1 Q1266.45 115.05 1263.8 116.7 1261.15 118.35 1261.05 119.35 L1280.85 115.0 Q1292.15 112.25 1300.4 109.0 L1290.0 119.85 Q1291.65 119.05 1297.65 116.8 L1295.85 119.15 1294.25 120.95 1293.9 121.3 1259.0 144.4 1258.95 144.45 1258.9 144.5 1258.75 144.5 Q1243.2 150.35 1219.7 152.7 L1215.2 153.1 Q1193.15 154.9 1171.4 152.85 1144.95 150.4 1125.75 142.75 1104.1 134.1 1094.8 119.95 L1076.0 120.55 Q1065.25 121.55 1057.45 126.95 1063.5 121.25 1069.0 111.7 L1078.25 95.55 Q1050.85 104.85 1012.35 123.55 1017.15 118.95 1026.7 107.0 1036.0 95.35 1040.5 91.2 1029.5 89.35 1014.65 94.35 1009.6 96.05 1002.25 99.15 L990.65 104.05 993.85 97.85 997.1 91.3 Q995.85 89.2 994.8 86.55 993.45 83.05 993.8 81.45 979.4 81.6 962.1 90.45 957.1 93.0 951.05 96.8 942.9 101.85 932.9 109.15 934.65 100.0 935.15 95.5 912.1 103.5 902.45 105.85 883.65 110.4 868.8 108.55 876.8 97.85 888.1 88.1 892.1 84.65 908.15 72.3 920.3 63.0 927.2 55.8 936.9 45.75 943.35 33.55 L943.55 33.1 943.3 33.25 Q941.95 34.05 936.25 36.5 L927.65 40.3 Q929.0 36.35 929.5 29.4 930.05 21.75 930.8 18.75 927.65 20.05 914.8 21.85 903.85 23.45 898.4 27.15 898.0 24.8 897.8 20.4 897.6 16.0 897.2 13.65 873.6 24.35 861.7 30.1 841.35 39.85 828.25 49.35 842.0 38.9 850.4 28.0 860.95 14.3 863.5 -0.65 852.8 3.8 846.35 7.65 836.3 13.6 830.2 21.1 830.6 18.0 830.45 10.75 830.35 4.1 831.0 0.45 819.2 8.2 810.35 12.9 799.0 18.9 788.65 22.1 791.25 20.3 798.1 13.6 805.15 6.6 808.2 4.4 773.75 3.0 735.7 21.15 737.25 18.55 740.25 14.95 L745.15 9.05 Q730.6 11.25 726.7 12.3 723.9 13.05 721.25 14.1 L719.9 14.65 Q714.25 17.0 709.15 20.75 L708.9 20.9 Q710.55 17.55 712.75 10.15 715.0 2.7 716.45 -0.5 L716.5 -0.65 716.4 -0.6 Q706.55 1.5 695.65 5.9 684.8 10.3 675.1 16.05 688.7 7.6 695.1 2.9 706.55 -5.45 713.4 -13.75 L676.15 -1.6 Q654.1 5.35 638.5 8.7 651.1 -4.6 672.85 -18.35 680.6 -23.25 708.15 -38.7 L679.65 -39.9 654.6 -39.8 Q678.4 -40.3 702.15 -53.25 L687.3 -54.15 Q678.95 -54.7 673.45 -54.35 M-697.9 -59.35 L-697.15 -59.2 -696.15 -59.0 -695.1 -58.8 -686.55 -57.0 -686.25 -56.95 -686.0 -56.9 -685.35 -56.75 -685.1 -56.7 -683.35 -56.35 -662.2 -52.65 -659.85 -52.25 -656.05 -51.65 Q-634.45 -48.7 -620.15 -49.95 L-620.25 -49.9 -620.45 -49.9 -621.85 -49.65 -634.2 -46.2 -637.1 -45.2 Q-650.15 -40.45 -654.5 -39.55 -652.85 -38.65 -648.9 -37.35 -645.2 -36.1 -643.35 -35.0 -649.65 -33.2 -666.7 -30.6 L-667.1 -30.5 -667.25 -30.5 -668.2 -30.35 -670.9 -29.95 -671.1 -29.9 -688.1 -26.9 -692.3 -25.95 -685.2 -21.55 Q-680.65 -18.6 -677.85 -17.3 -684.6 -18.2 -696.2 -17.3 L-714.3 -16.45 -696.95 -6.9 Q-685.3 -0.75 -677.4 1.6 L-690.75 -0.55 -703.55 -2.7 Q-703.3 1.0 -702.55 4.0 -711.1 1.6 -722.65 -0.35 L-735.8 -2.35 -742.15 -3.35 -742.9 -3.5 -742.95 -3.5 -777.35 -3.55 -785.5 -3.6 -786.7 -3.65 -793.7 -3.8 -795.45 -3.8 Q-822.8 -4.65 -843.65 -7.35 -840.9 -5.7 -834.7 -0.8 -828.55 4.1 -825.2 6.05 -848.95 4.85 -872.4 6.8 -869.35 8.7 -862.95 14.7 -856.55 20.7 -853.7 22.5 L-880.4 17.6 Q-896.1 14.55 -906.85 11.05 L-897.95 16.1 -896.7 16.7 -909.6 11.8 -912.75 10.05 -914.3 9.15 -918.0 6.8 -918.05 6.8 -918.2 6.7 -918.5 6.45 -918.85 6.25 -919.15 6.05 -927.7 -1.65 -927.8 -1.8 -928.1 -2.2 -928.9 -3.45 -942.45 -3.1 -943.6 -3.1 -951.05 -3.1 -956.9 -3.3 -957.5 -3.3 -957.65 -3.3 -957.85 -3.35 -960.1 -3.55 -962.65 -3.8 -963.15 -3.85 -990.5 -12.25 Q-988.4 -8.7 -988.5 -4.3 -993.3 -5.7 -1006.6 -5.75 -1019.7 -5.75 -1024.45 -7.35 -1023.85 -5.5 -1021.65 -2.7 -1019.4 0.2 -1018.9 1.5 -1022.6 0.6 -1030.8 0.0 L-1035.2 -0.3 Q-1046.05 -1.0 -1050.75 -2.45 L-1046.9 1.15 -1043.2 5.0 Q-1050.5 1.85 -1060.8 -0.35 L-1079.3 -3.85 -1074.2 0.6 -1069.05 5.15 Q-1082.0 3.35 -1097.15 -0.65 L-1120.85 -7.05 Q-1133.85 -10.25 -1144.55 -10.9 -1157.95 -11.7 -1172.65 -9.0 -1171.0 -11.4 -1166.85 -19.45 -1163.0 -26.95 -1160.8 -29.75 -1176.9 -24.2 -1196.95 -10.45 -1208.35 -2.65 -1231.0 13.75 -1226.1 9.5 -1219.15 1.0 L-1207.9 -12.25 Q-1220.0 -11.0 -1235.05 -4.55 -1243.5 -0.95 -1259.5 7.7 L-1261.2 8.6 -1259.55 7.1 Q-1252.3 0.35 -1241.25 -8.95 L-1220.65 -26.15 Q-1235.8 -24.55 -1253.75 -16.15 L-1253.95 -16.05 -1255.45 -15.3 -1261.9 -12.05 Q-1272.45 -6.45 -1285.25 1.85 -1275.1 -11.6 -1269.4 -21.0 L-1268.4 -22.65 -1268.25 -22.9 -1267.9 -23.5 -1264.4 -30.0 -1264.25 -30.3 -1263.95 -30.9 -1263.9 -31.0 -1263.75 -31.25 -1263.25 -32.35 -1263.0 -32.95 -1262.85 -33.25 -1260.0 -40.35 -1259.65 -41.3 -1259.4 -42.1 -1258.7 -44.45 -1258.65 -44.6 -1258.5 -45.2 Q-1258.95 -44.95 -1259.5 -44.65 L-1259.6 -44.6 -1260.55 -44.1 -1264.5 -42.15 -1264.8 -42.0 -1264.85 -42.0 -1265.8 -41.55 -1272.6 -38.4 -1273.75 -37.9 -1274.15 -37.7 -1274.3 -37.65 -1276.05 -36.85 Q-1287.9 -31.5 -1293.7 -27.55 L-1293.15 -27.95 Q-1275.0 -42.85 -1263.45 -61.9 L-1228.4 -65.95 Q-1210.1 -68.85 -1205.65 -73.1 L-1212.15 -66.45 Q-1216.05 -62.5 -1219.05 -60.2 -1214.85 -61.1 -1209.0 -63.25 L-1198.95 -67.1 Q-1198.7 -66.35 -1198.8 -60.8 -1198.85 -56.1 -1197.6 -55.4 -1193.15 -56.65 -1183.35 -57.95 -1173.35 -59.3 -1170.05 -60.2 -1166.9 -62.0 -1161.1 -66.6 L-1152.65 -73.2 Q-1152.45 -72.1 -1152.45 -66.95 -1152.5 -63.05 -1151.3 -61.15 -1147.45 -66.3 -1137.45 -72.55 -1125.9 -79.8 -1123.25 -82.35 -1124.35 -79.3 -1126.2 -70.4 -1127.85 -62.6 -1130.05 -57.75 -1128.1 -59.25 -1123.15 -61.8 L-1118.9 -63.85 Q-1119.6 -60.65 -1120.7 -53.0 L-1121.95 -42.5 Q-1119.75 -46.65 -1114.05 -51.85 -1107.75 -57.55 -1106.6 -59.25 -1105.15 -54.3 -1099.5 -43.55 -1094.1 -33.25 -1092.95 -28.5 -1092.45 -31.25 -1092.45 -36.7 L-1092.4 -44.9 -1085.5 -39.45 -1077.25 -33.0 Q-1075.6 -35.5 -1072.3 -42.0 L-1067.9 -50.75 -1061.6 -44.25 Q-1057.5 -39.85 -1055.1 -37.8 -1055.0 -48.75 -1054.55 -54.25 L-1045.3 -46.65 Q-1037.45 -40.5 -1035.1 -36.55 L-1034.8 -44.75 Q-1034.35 -50.4 -1034.55 -53.3 L-1027.6 -45.2 Q-1022.95 -40.0 -1020.6 -36.85 -1017.0 -36.5 -1011.3 -34.75 -1004.5 -32.6 -1001.45 -32.0 L-1000.85 -40.3 -999.95 -48.55 Q-997.0 -46.75 -985.6 -41.45 -976.25 -37.1 -971.85 -33.35 L-970.55 -39.1 Q-966.9 -35.65 -958.15 -30.8 -948.85 -25.65 -945.4 -22.75 -936.7 -23.45 -929.8 -22.85 -919.4 -21.95 -910.15 -18.1 -915.15 -20.8 -923.3 -26.55 -932.7 -33.25 -936.2 -35.35 L-916.8 -31.15 Q-903.65 -28.55 -896.85 -26.55 L-903.5 -33.45 -910.25 -40.5 Q-905.75 -37.8 -894.75 -34.0 -883.4 -30.1 -879.1 -27.65 -878.75 -30.6 -881.15 -31.75 L-859.5 -26.15 Q-847.15 -23.2 -837.5 -21.95 L-851.15 -27.0 -862.4 -30.95 Q-858.0 -29.75 -851.2 -29.15 L-837.9 -27.8 Q-838.8 -29.5 -841.7 -31.25 -844.25 -32.75 -844.85 -35.25 L-826.75 -33.8 Q-815.0 -33.2 -808.35 -31.15 L-813.25 -36.05 -818.2 -41.2 Q-812.2 -39.85 -800.55 -41.05 L-783.3 -41.65 Q-783.9 -43.35 -786.15 -46.3 -788.35 -49.2 -788.8 -50.5 -769.4 -48.0 -743.65 -51.5 L-698.2 -59.4 -697.9 -59.35 M-928.9 -3.45 L-928.15 -3.5 -926.25 -3.65 -929.1 -3.75 -928.9 -3.45 M-740.2 -3.5 L-742.9 -3.5 -740.2 -3.5 -732.45 -3.5 -737.7 -3.55 -740.2 -3.5" fill="#000000" fill-opacity="0.2" fill-rule="evenodd" stroke="none"/>
    <path d="M716.4 -0.6 L716.5 -0.65 716.45 -0.5 716.4 -0.6 M1097.3 176.2 L1098.25 175.95 1098.1 176.2 1097.3 176.2" fill="#e6e6e6" fill-rule="evenodd" stroke="none"/>
    <path d="M1294.25 120.95 L1295.85 119.15 1295.2 119.95 1294.25 120.95 M1115.6 -146.6 L1119.05 -140.25 Q1114.0 -147.2 1109.85 -155.0 1112.3 -150.65 1115.6 -146.6 M-656.7 -51.85 L-619.85 -50.0 -619.8 -50.0 -619.5 -50.05 -619.65 -50.0 -619.8 -50.0 -620.0 -49.95 -620.15 -49.95 Q-634.45 -48.7 -656.05 -51.65 L-659.85 -52.25 -656.7 -51.85 M-1255.45 -81.95 L-1268.55 -82.85 -1255.45 -81.95 M-795.45 -3.8 L-793.7 -3.8 -786.7 -3.65 -787.2 -3.6 -788.3 -3.65 -788.4 -3.65 -788.5 -3.65 -795.45 -3.8 M-619.85 -50.0 L-620.15 -49.95 -619.85 -50.0" fill="#cbcbcb" fill-rule="evenodd" stroke="none"/>
    <path d="M943.3 33.25 L943.55 33.1 943.35 33.55 943.3 33.25 M1259.0 144.4 L1293.9 121.3 1294.25 120.95 1295.2 119.95 Q1280.7 136.2 1259.0 144.4 M-1259.5 -44.65 L-1258.65 -44.6 -1258.7 -44.45 -1259.4 -42.1 -1260.0 -40.35 -1259.4 -42.1 -1259.65 -41.3 -1260.0 -40.35 -1262.85 -33.25 -1263.0 -32.95 -1263.25 -32.35 -1263.75 -31.25 -1263.9 -31.0 -1264.85 -42.0 -1264.8 -42.0 -1264.5 -42.15 -1260.55 -44.1 -1259.6 -44.6 -1259.5 -44.65 M-1263.75 -31.25 L-1263.9 -31.0 -1263.75 -31.25 M-918.85 6.25 L-918.5 6.45 -918.2 6.7 -918.85 6.25 M-786.7 -3.65 L-785.5 -3.6 -787.2 -3.6 -786.7 -3.65" fill="#c4c4c4" fill-rule="evenodd" stroke="none"/>
    <path d="M671.9 -54.25 L673.45 -54.35 Q702.1 -57.1 710.85 -58.75 733.75 -62.95 746.05 -72.4 L744.1 -72.55 744.05 -72.55 736.45 -73.15 734.9 -73.5 740.5 -72.8 740.55 -72.8 741.4 -72.7 741.75 -72.7 741.85 -72.7 744.05 -72.55 M673.45 -54.35 Q678.95 -54.7 687.3 -54.15 L702.15 -53.25 Q678.4 -40.3 654.6 -39.8 L679.65 -39.9 708.15 -38.7 Q680.6 -23.25 672.85 -18.35 651.1 -4.6 638.5 8.7 654.1 5.35 676.15 -1.6 L713.4 -13.75 Q706.55 -5.45 695.1 2.9 688.7 7.6 675.1 16.05 684.8 10.3 695.65 5.9 706.55 1.5 716.4 -0.6 L716.5 -0.65 716.45 -0.5 Q715.0 2.7 712.75 10.15 710.55 17.55 708.9 20.9 L709.15 20.75 Q714.25 17.0 719.9 14.65 L721.25 14.1 Q723.9 13.05 726.7 12.3 730.6 11.25 745.15 9.05 L740.25 14.95 Q737.25 18.55 735.7 21.15 773.75 3.0 808.2 4.4 805.15 6.6 798.1 13.6 791.25 20.3 788.65 22.1 799.0 18.9 810.35 12.9 819.2 8.2 831.0 0.45 830.35 4.1 830.45 10.75 830.6 18.0 830.2 21.1 836.3 13.6 846.35 7.65 852.8 3.8 863.5 -0.65 860.95 14.3 850.4 28.0 842.0 38.9 828.25 49.35 841.35 39.85 861.7 30.1 873.6 24.35 897.2 13.65 897.6 16.0 897.8 20.4 898.0 24.8 898.4 27.15 903.85 23.45 914.8 21.85 927.65 20.05 930.8 18.75 930.05 21.75 929.5 29.4 929.0 36.35 927.65 40.3 L936.25 36.5 Q941.95 34.05 943.3 33.25 L943.55 33.1 943.35 33.55 Q936.9 45.75 927.2 55.8 920.3 63.0 908.15 72.3 892.1 84.65 888.1 88.1 876.8 97.85 868.8 108.55 883.65 110.4 902.45 105.85 912.1 103.5 935.15 95.5 934.65 100.0 932.9 109.15 942.9 101.85 951.05 96.8 957.1 93.0 962.1 90.45 979.4 81.6 993.8 81.45 993.45 83.05 994.8 86.55 995.85 89.2 997.1 91.3 L993.85 97.85 990.65 104.05 1002.25 99.15 Q1009.6 96.05 1014.65 94.35 1029.5 89.35 1040.5 91.2 1036.0 95.35 1026.7 107.0 1017.15 118.95 1012.35 123.55 1050.85 104.85 1078.25 95.55 L1069.0 111.7 Q1063.5 121.25 1057.45 126.95 1065.25 121.55 1076.0 120.55 L1094.8 119.95 Q1104.1 134.1 1125.75 142.75 1144.95 150.4 1171.4 152.85 1193.15 154.9 1215.2 153.1 L1219.7 152.7 Q1243.2 150.35 1258.75 144.5 L1258.9 144.5 1258.95 144.45 1259.0 144.4 1259.0 144.45 1258.95 144.45 M1293.9 121.3 L1294.25 120.95 1295.2 119.95 Q1280.7 136.2 1259.0 144.4 M1295.85 119.15 L1297.65 116.8 1303.35 109.35 1303.5 109.1 1304.1 108.15 Q1310.05 98.85 1313.9 88.3 1317.65 77.95 1319.45 66.4 1320.4 59.95 1320.8 53.1 1322.45 22.65 1311.7 -7.9 1300.75 -39.05 1279.75 -62.0 1266.45 -76.5 1240.0 -87.95 1228.45 -92.9 1189.85 -105.85 1158.0 -116.5 1142.05 -125.4 1125.25 -134.75 1115.6 -146.6 L1108.0 -158.5 Q1097.75 -173.6 1096.15 -176.2 1095.15 -165.45 1095.85 -156.25 1091.1 -162.85 1082.6 -172.9 1081.75 -171.2 1083.0 -164.9 1084.2 -158.75 1083.1 -157.05 L1080.65 -160.5 1078.5 -163.3 Q1079.95 -159.9 1082.25 -150.15 1084.3 -141.25 1086.65 -136.85 L1069.25 -146.05 Q1059.9 -151.6 1053.15 -158.7 1053.05 -156.9 1050.7 -148.6 1048.5 -140.95 1048.6 -136.45 1046.65 -138.55 1038.9 -143.0 1031.35 -147.4 1029.05 -150.05 1029.1 -147.05 1028.15 -139.0 1027.2 -131.6 1027.5 -128.15 L1019.45 -134.55 1012.0 -140.45 1014.55 -133.65 Q1015.95 -129.85 1018.4 -126.25 1007.55 -126.45 995.45 -130.45 985.05 -133.9 975.05 -139.6 L974.0 -140.2 M776.5 -80.55 L775.85 -80.6 775.4 -80.7 771.2 -81.35 771.05 -81.4 769.45 -81.85 768.3 -82.3 768.1 -82.4 766.9 -74.3 766.75 -74.3 750.9 -72.9 750.05 -72.8 749.15 -72.75 744.25 -72.55 744.1 -72.55 M654.6 -39.8 L650.9 -39.8 M716.4 -0.6 L716.45 -0.5 M775.4 -80.7 L777.2 -80.5 779.6 -80.35 791.3 -79.3 Q788.05 -84.9 787.2 -90.3 786.0 -98.2 784.85 -101.65 787.6 -100.2 798.6 -98.4 808.5 -96.8 813.05 -93.25 814.15 -94.1 814.3 -99.55 L814.5 -106.75 Q821.05 -101.4 829.85 -95.55 829.95 -109.05 831.15 -116.45 832.25 -115.05 842.2 -108.65 851.75 -102.5 854.6 -98.05 855.5 -98.6 867.65 -111.55 868.5 -106.45 869.4 -102.85 872.05 -107.35 873.85 -109.85 876.85 -114.05 879.9 -116.45 880.4 -113.0 882.65 -103.7 884.65 -95.35 885.1 -90.2 886.55 -96.35 891.55 -109.85 896.25 -122.5 897.7 -129.95 904.25 -119.3 911.6 -114.45 918.1 -110.15 929.9 -107.8 929.85 -109.9 928.75 -114.25 927.7 -118.35 927.75 -120.95 L945.35 -118.3 Q956.25 -116.85 962.8 -112.5 961.0 -115.85 959.5 -121.55 L957.2 -129.6 Q966.55 -123.95 977.15 -122.1 987.65 -120.3 998.0 -122.5 994.75 -124.55 985.45 -131.9 978.25 -137.65 975.05 -139.6 M777.2 -80.5 L776.5 -80.55 M771.2 -81.35 L771.65 -81.3 775.4 -80.7 M1109.85 -155.0 L1109.15 -156.25 M1115.6 -146.6 L1119.05 -140.25 Q1114.0 -147.2 1109.85 -155.0 1112.3 -150.65 1115.6 -146.6 M1295.85 119.15 L1295.2 119.95 M943.35 33.55 L943.3 33.25 M828.25 49.35 L827.35 50.0 M-1255.45 -81.95 L-1245.55 -82.4 Q-1233.65 -83.55 -1223.75 -87.4 -1226.25 -92.8 -1225.3 -96.85 -1223.95 -102.5 -1224.2 -105.0 L-1227.9 -110.0 -1231.55 -114.55 Q-1216.55 -114.1 -1208.25 -115.1 -1199.9 -116.1 -1193.45 -119.2 -1188.35 -121.6 -1180.0 -127.8 L-1160.9 -141.85 Q-1162.55 -138.2 -1166.45 -127.05 L-1170.35 -116.1 Q-1167.65 -118.6 -1163.4 -124.1 L-1157.0 -132.7 Q-1155.9 -129.35 -1155.3 -125.5 -1153.35 -127.85 -1148.1 -132.4 L-1140.3 -138.6 Q-1140.75 -134.65 -1139.5 -125.35 -1138.25 -115.95 -1138.65 -112.15 -1135.5 -116.9 -1128.6 -121.65 -1120.75 -127.1 -1118.9 -129.15 -1117.55 -127.45 -1118.4 -122.6 -1119.25 -117.85 -1117.75 -116.1 -1112.9 -116.45 -1107.8 -118.7 -1104.8 -120.0 -1098.0 -123.25 -1096.5 -122.5 -1097.15 -117.45 L-1097.7 -112.45 -1086.85 -120.95 Q-1079.9 -126.3 -1076.95 -129.15 -1076.65 -128.15 -1076.75 -122.55 -1076.85 -118.05 -1075.4 -116.9 -1074.85 -120.75 -1071.15 -129.65 -1067.55 -138.5 -1066.95 -143.15 -1065.2 -140.45 -1056.5 -131.0 -1049.4 -123.2 -1046.7 -116.9 -1047.3 -122.25 -1046.5 -132.45 -1045.75 -143.2 -1046.05 -147.7 -1045.15 -145.4 -1039.85 -137.6 -1034.95 -130.3 -1033.3 -125.2 -1030.9 -127.7 -1022.85 -132.45 -1014.85 -137.2 -1013.85 -138.25 L-1013.75 -131.45 Q-1013.75 -126.85 -1012.6 -125.2 -1007.7 -130.7 -996.6 -135.45 -982.35 -141.5 -980.2 -142.9 -980.85 -139.85 -981.45 -131.3 -981.9 -124.25 -983.6 -119.25 -977.5 -122.95 -967.5 -125.05 -954.3 -127.8 -951.4 -128.8 -954.1 -125.55 -957.4 -119.8 L-962.4 -111.3 Q-946.35 -118.35 -927.25 -118.0 -915.95 -117.75 -891.85 -114.8 -890.55 -113.05 -890.8 -108.7 -891.1 -103.55 -890.7 -102.1 -887.55 -103.35 -878.7 -104.0 -869.45 -104.65 -866.55 -105.6 -867.1 -103.45 -867.85 -97.05 -868.45 -91.85 -869.8 -88.45 -866.25 -89.7 -855.5 -89.8 -844.95 -89.9 -841.3 -91.35 -842.2 -87.15 -844.5 -78.9 -830.55 -86.1 -820.55 -89.15 -806.7 -93.35 -795.15 -91.5 -795.55 -86.3 -797.2 -77.75 -783.3 -83.25 -773.15 -85.5 -759.55 -88.5 -748.4 -86.8 -749.9 -84.3 -752.25 -77.8 -754.75 -70.9 -755.45 -69.55 -742.65 -68.4 -722.3 -64.35 L-722.05 -64.3 -721.75 -64.25 -697.9 -59.35 -697.15 -59.2 -696.15 -59.0 -695.1 -58.8 -686.55 -57.0 -686.25 -56.95 -686.0 -56.9 -685.35 -56.75 -685.1 -56.7 -683.35 -56.35 -662.2 -52.65 -656.7 -51.85 -619.85 -50.0 -619.8 -50.0 -619.5 -50.05 -619.05 -50.1 M-1263.45 -61.9 L-1262.5 -63.55 Q-1271.45 -63.45 -1294.65 -58.45 -1315.95 -53.9 -1321.0 -54.6 -1311.5 -58.75 -1286.1 -68.35 -1263.5 -76.95 -1253.35 -81.8 L-1255.45 -81.95 -1268.55 -82.85 -1255.45 -81.95 M-1259.5 -44.65 L-1258.65 -44.6 -1258.5 -45.2 Q-1258.95 -44.95 -1259.5 -44.65 L-1259.6 -44.6 -1260.55 -44.1 -1264.5 -42.15 -1264.8 -42.0 -1264.85 -42.0 -1263.9 -31.0 -1263.75 -31.25 -1263.25 -32.35 -1263.0 -32.95 M-1262.85 -33.25 L-1260.0 -40.35 -1259.4 -42.1 -1258.7 -44.45 -1258.65 -44.6 M-1259.4 -42.1 L-1259.65 -41.3 M-1293.15 -27.95 L-1293.7 -27.55 Q-1287.9 -31.5 -1276.05 -36.85 L-1274.3 -37.65 -1274.15 -37.7 -1273.75 -37.9 M-1272.6 -38.4 L-1265.8 -41.55 -1264.85 -42.0 M-1272.6 -38.4 L-1274.15 -37.7 M-1263.9 -31.0 L-1263.95 -30.9 -1264.25 -30.3 -1264.4 -30.0 -1267.9 -23.5 -1268.25 -22.9 -1268.4 -22.65 -1269.4 -21.0 Q-1275.1 -11.6 -1285.25 1.85 -1272.45 -6.45 -1261.9 -12.05 L-1255.45 -15.3 -1253.95 -16.05 -1253.75 -16.15 Q-1235.8 -24.55 -1220.65 -26.15 L-1241.25 -8.95 Q-1252.3 0.35 -1259.55 7.1 L-1261.2 8.6 -1259.5 7.7 Q-1243.5 -0.95 -1235.05 -4.55 -1220.0 -11.0 -1207.9 -12.25 L-1219.15 1.0 Q-1226.1 9.5 -1231.0 13.75 -1208.35 -2.65 -1196.95 -10.45 -1176.9 -24.2 -1160.8 -29.75 -1163.0 -26.95 -1166.85 -19.45 -1171.0 -11.4 -1172.65 -9.0 -1157.95 -11.7 -1144.55 -10.9 -1133.85 -10.25 -1120.85 -7.05 L-1097.15 -0.65 Q-1082.0 3.35 -1069.05 5.15 L-1074.2 0.6 -1079.3 -3.85 -1060.8 -0.35 Q-1050.5 1.85 -1043.2 5.0 L-1046.9 1.15 -1050.75 -2.45 Q-1046.05 -1.0 -1035.2 -0.3 L-1030.8 0.0 Q-1022.6 0.6 -1018.9 1.5 -1019.4 0.2 -1021.65 -2.7 -1023.85 -5.5 -1024.45 -7.35 -1019.7 -5.75 -1006.6 -5.75 -993.3 -5.7 -988.5 -4.3 -988.4 -8.7 -990.5 -12.25 L-963.15 -3.85 M-962.65 -3.8 L-960.1 -3.55 -957.85 -3.35 M-957.65 -3.3 L-957.5 -3.3 -956.9 -3.3 -951.05 -3.1 -943.6 -3.1 -942.45 -3.1 -928.9 -3.45 -929.1 -3.75 -926.25 -3.65 -928.15 -3.5 -928.9 -3.45 -928.1 -2.2 -927.8 -1.8 -927.7 -1.65 -919.15 6.05 -918.85 6.25 -918.5 6.45 M-918.2 6.7 L-918.05 6.8 -918.0 6.8 -914.3 9.15 -912.75 10.05 -909.6 11.8 -896.7 16.7 -897.95 16.1 -906.85 11.05 Q-896.1 14.55 -880.4 17.6 L-853.7 22.5 Q-856.55 20.7 -862.95 14.7 -869.35 8.7 -872.4 6.8 -848.95 4.85 -825.2 6.05 -828.55 4.1 -834.7 -0.8 -840.9 -5.7 -843.65 -7.35 -822.8 -4.65 -795.45 -3.8 L-788.5 -3.65 -788.4 -3.65 -788.3 -3.65 -787.2 -3.6 -786.7 -3.65 -785.5 -3.6 -777.35 -3.55 -742.95 -3.5 -742.9 -3.5 -740.2 -3.5 -737.7 -3.55 -732.45 -3.5 -740.2 -3.5 M-1263.9 -31.0 L-1263.95 -30.9 M-1293.15 -27.95 L-1292.65 -28.4 M-1293.15 -27.95 Q-1275.0 -42.85 -1263.45 -61.9 M-785.5 -3.6 L-787.2 -3.6 M-620.15 -49.95 L-620.25 -49.9 -620.45 -49.9 -621.85 -49.65 -634.2 -46.2 -637.1 -45.2 Q-650.15 -40.45 -654.5 -39.55 -652.85 -38.65 -648.9 -37.35 -645.2 -36.1 -643.35 -35.0 -649.65 -33.2 -666.7 -30.6 L-667.1 -30.5 -667.25 -30.5 -668.2 -30.35 -670.9 -29.95 -671.1 -29.9 -688.1 -26.9 -692.3 -25.95 -685.2 -21.55 Q-680.65 -18.6 -677.85 -17.3 -684.6 -18.2 -696.2 -17.3 L-714.3 -16.45 -696.95 -6.9 Q-685.3 -0.75 -677.4 1.6 L-690.75 -0.55 -703.55 -2.7 Q-703.3 1.0 -702.55 4.0 -711.1 1.6 -722.65 -0.35 L-735.8 -2.35 -742.15 -3.35 -742.9 -3.5 M-659.85 -52.25 L-662.2 -52.65 M-656.7 -51.85 L-659.85 -52.25 M-620.15 -49.95 L-619.85 -50.0 M-619.5 -50.05 L-619.65 -50.0 -619.8 -50.0 -620.0 -49.95 -620.15 -49.95 M-918.85 6.25 L-918.2 6.7 M-896.7 16.7 Q-893.1 18.4 -888.3 19.9" fill="none" stroke="#000000" stroke-linecap="round" stroke-linejoin="miter-clip" stroke-miterlimit="4.0" stroke-opacity="0.6" stroke-width="1.0"/>
  </g>
</svg>
