<?xml version="1.0" encoding="UTF-8" standalone="no"?>
<svg xmlns:xlink="http://www.w3.org/1999/xlink" height="296.45px" width="570.35px" xmlns="http://www.w3.org/2000/svg">
  <g transform="matrix(1.0, 0.0, 0.0, 1.0, 206.7, 141.0)">
    <path d="M96.45 56.25 L101.65 56.25 94.4 63.05 86.65 70.3 77.25 79.15 66.65 89.1 57.55 97.5 47.7 106.6 37.65 115.85 18.1 133.85 -92.75 133.85 -81.1 125.1 -68.55 115.65 -56.35 106.5 -44.4 97.5 -33.15 89.05 -19.95 79.15 -8.2 70.3 0.5 63.75 10.45 56.25 96.45 56.25 M-19.95 79.15 L77.25 79.15 -19.95 79.15 M66.65 89.1 L-33.15 89.05 66.65 89.1 M57.55 97.5 L-44.4 97.5 57.55 97.5 M-68.55 115.65 L37.65 115.85 -68.55 115.65 M27.2 125.1 L-81.1 125.1 27.2 125.1 M47.7 106.6 L-56.35 106.5 47.7 106.6 M-8.2 70.3 L78.8 70.3 86.65 70.3 78.8 70.3 -8.2 70.3 M94.4 63.05 L87.85 63.1 0.5 63.75 87.85 63.1 94.4 63.05" fill="#000000" fill-opacity="0.2" fill-rule="evenodd" stroke="none"/>
    <path d="M362.8 -140.5 L199.95 154.95 -174.3 154.8 -206.15 -140.5 362.8 -140.5 M101.65 56.25 L102.15 55.75 96.45 56.25 10.45 56.25 0.5 63.75 -8.2 70.3 -19.95 79.15 -33.15 89.05 -44.4 97.5 -56.35 106.5 -68.55 115.65 -81.1 125.1 -92.75 133.85 18.1 133.85 37.65 115.85 47.7 106.6 57.55 97.5 66.65 89.1 77.25 79.15 86.65 70.3 94.4 63.05 101.65 56.25" fill="#ffffff" fill-opacity="0.0" fill-rule="evenodd" stroke="none"/>
    <path d="M362.8 -140.5 L199.95 154.95 -174.3 154.8 -206.15 -140.5 362.8 -140.5" fill="none" stroke="#000000" stroke-linecap="round" stroke-linejoin="miter-clip" stroke-miterlimit="4.0" stroke-width="1.0"/>
    <path d="M96.45 56.25 L101.65 56.25 94.4 63.05 86.65 70.3 77.25 79.15 66.65 89.1 57.55 97.5 47.7 106.6 37.65 115.85 18.1 133.85 -92.75 133.85 -81.1 125.1 -68.55 115.65 -56.35 106.5 -44.4 97.5 -33.15 89.05 -19.95 79.15 -8.2 70.3 0.5 63.75 10.45 56.25 96.45 56.25" fill="none" stroke="#000000" stroke-linecap="round" stroke-linejoin="miter-clip" stroke-miterlimit="4.0" stroke-opacity="0.6" stroke-width="1.0"/>
    <path d="M0.5 63.75 L87.85 63.1 94.4 63.05 M86.65 70.3 L78.8 70.3 -8.2 70.3 M-56.35 106.5 L47.7 106.6 M-81.1 125.1 L27.2 125.1 M37.65 115.85 L-68.55 115.65 M-44.4 97.5 L57.55 97.5 M-33.15 89.05 L66.65 89.1 M77.25 79.15 L-19.95 79.15" fill="none" stroke="#000000" stroke-linecap="round" stroke-linejoin="miter-clip" stroke-miterlimit="4.0" stroke-opacity="0.4" stroke-width="1.0"/>
  </g>
</svg>
