<?xml version="1.0" encoding="UTF-8" standalone="no"?>
<svg xmlns:xlink="http://www.w3.org/1999/xlink" height="410.6px" width="137.65px" xmlns="http://www.w3.org/2000/svg">
  <g transform="matrix(1.0, 0.0, 0.0, 1.0, 0.5, 0.5)">
    <path d="M83.4 0.6 L83.15 9.95 Q82.1 11.45 82.1 13.4 82.1 15.2 83.0 16.65 L82.05 48.1 Q80.2 106.1 78.4 130.4 76.6 154.7 79.45 202.95 80.85 227.05 82.65 246.3 L85.95 151.65 93.7 73.7 100.1 149.45 Q106.75 227.7 108.05 240.4 109.05 250.25 110.55 285.2 112.0 318.8 113.05 327.5 L114.5 335.4 117.85 353.6 Q114.55 354.45 111.6 354.15 106.45 353.65 104.4 349.1 L103.1 345.95 102.85 345.45 Q102.2 344.4 101.45 344.2 94.1 342.4 84.6 348.55 L77.1 353.35 Q72.8 355.7 69.05 355.9 64.5 356.15 62.7 355.9 L62.7 353.6 62.75 350.3 56.3 350.7 41.65 352.25 26.9 352.95 27.6 341.7 27.75 339.3 Q24.45 338.65 13.85 340.45 L2.7 342.6 3.1 335.4 18.7 27.0 17.2 2.35 36.55 1.3 38.65 1.15 41.25 1.3 51.85 1.85 65.95 1.6 79.8 0.45 83.4 0.6 M108.35 10.15 Q109.25 11.6 109.25 13.4 109.25 15.2 108.35 16.65 L108.35 10.15 M35.1 9.15 Q33.45 7.4 31.1 7.4 28.75 7.4 27.1 9.15 25.4 10.9 25.4 13.4 25.4 15.9 27.1 17.65 28.75 19.4 31.1 19.4 33.45 19.4 35.1 17.65 36.8 15.9 36.8 13.4 36.8 10.9 35.1 9.15 M48.75 9.15 Q47.1 7.4 44.75 7.4 42.4 7.4 40.75 9.15 39.05 10.9 39.05 13.4 39.05 15.9 40.75 17.65 42.4 19.4 44.75 19.4 47.1 19.4 48.75 17.65 50.45 15.9 50.45 13.4 50.45 10.9 48.75 9.15 M62.75 17.65 Q64.45 15.9 64.45 13.4 64.45 10.9 62.75 9.15 61.1 7.4 58.75 7.4 56.4 7.4 54.75 9.15 53.05 10.9 53.05 13.4 53.05 15.9 54.75 17.65 56.4 19.4 58.75 19.4 61.1 19.4 62.75 17.65 M76.4 9.15 Q74.75 7.4 72.4 7.4 70.05 7.4 68.4 9.15 66.7 10.9 66.7 13.4 66.7 15.9 68.4 17.65 70.05 19.4 72.4 19.4 74.75 19.4 76.4 17.65 78.1 15.9 78.1 13.4 78.1 10.9 76.4 9.15 M42.4 55.7 Q43.2 65.75 44.65 96.75 45.95 125.65 46.25 137.15 L46.4 224.75 46.25 302.15 Q51.0 151.55 51.35 130.4 51.55 117.2 47.0 85.1 L42.4 55.7" fill="#ffffff" fill-opacity="0.0" fill-rule="evenodd" stroke="none"/>
    <path d="M83.4 0.6 L83.95 0.65 95.3 1.1 110.25 0.0 131.05 0.5 130.0 24.0 135.6 335.4 135.7 342.75 128.45 348.5 125.15 350.5 Q121.3 352.65 117.85 353.6 L114.5 335.4 113.05 327.5 Q112.0 318.8 110.55 285.2 109.05 250.25 108.05 240.4 106.75 227.7 100.1 149.45 L93.7 73.7 85.95 151.65 82.65 246.3 Q80.85 227.05 79.45 202.95 76.6 154.7 78.4 130.4 80.2 106.1 82.05 48.1 L83.0 16.65 83.05 16.7 83.8 17.65 Q85.45 19.4 87.8 19.4 90.15 19.4 91.8 17.65 93.5 15.9 93.5 13.4 93.5 10.9 91.8 9.15 90.15 7.4 87.8 7.4 85.45 7.4 83.8 9.15 L83.45 9.6 83.15 9.95 83.4 0.6 M125.15 404.05 Q117.55 408.3 111.6 407.7 106.5 407.2 106.25 402.65 L106.25 399.5 Q106.2 398.0 105.2 397.75 97.7 395.9 86.45 401.95 83.5 403.55 77.7 406.7 72.75 409.1 69.05 409.45 63.75 409.95 63.3 408.55 63.5 406.0 62.35 403.95 L55.15 404.25 39.75 405.8 Q17.05 407.75 14.6 404.25 12.3 400.95 19.2 397.35 L23.6 395.05 Q25.35 393.9 24.25 393.2 22.1 391.85 10.85 394.0 L0.0 396.4 1.15 373.45 2.7 342.6 13.85 340.45 Q24.45 338.65 27.75 339.3 L27.6 341.7 26.9 352.95 41.65 352.25 56.3 350.7 62.75 350.3 62.7 353.6 62.7 355.9 Q64.5 356.15 69.05 355.9 72.8 355.7 77.1 353.35 L84.6 348.55 Q94.1 342.4 101.45 344.2 102.2 344.4 102.85 345.45 L103.1 345.95 104.4 349.1 Q106.45 353.65 111.6 354.15 114.55 354.45 117.85 353.6 L119.9 364.4 121.55 373.45 Q125.35 395.45 125.15 404.05 M108.35 10.15 L107.55 9.15 Q105.9 7.4 103.55 7.4 101.2 7.4 99.55 9.15 97.85 10.9 97.85 13.4 97.85 15.9 99.55 17.65 101.2 19.4 103.55 19.4 105.9 19.4 107.55 17.65 L108.35 16.65 Q109.25 15.2 109.25 13.4 109.25 11.6 108.35 10.15 M121.15 9.0 Q119.5 7.25 117.15 7.25 114.8 7.25 113.15 9.0 111.45 10.75 111.45 13.25 111.45 15.75 113.15 17.5 114.8 19.25 117.15 19.25 119.5 19.25 121.15 17.5 122.85 15.75 122.85 13.25 122.85 10.75 121.15 9.0 M42.4 55.7 L47.0 85.1 Q51.55 117.2 51.35 130.4 51.0 151.55 46.25 302.15 L46.4 224.75 46.25 137.15 Q45.95 125.65 44.65 96.75 43.2 65.75 42.4 55.7" fill="#000000" fill-opacity="0.047058824" fill-rule="evenodd" stroke="none"/>
    <path d="M117.85 353.6 Q121.3 352.65 125.15 350.5 L128.45 348.5 135.7 342.75 136.25 373.45 136.65 395.55 128.45 402.05 125.15 404.05 Q125.35 395.45 121.55 373.45 L119.9 364.4 117.85 353.6" fill="#000000" fill-opacity="0.09803922" fill-rule="evenodd" stroke="none"/>
    <path d="M135.7 342.75 L135.6 335.4 130.0 24.0 131.05 0.5 110.25 0.0 95.3 1.1 83.95 0.65 83.4 0.6 79.8 0.45 65.95 1.6 51.85 1.85 41.25 1.3 38.65 1.15 36.55 1.3 17.2 2.35 18.7 27.0 3.1 335.4 2.7 342.6 1.15 373.45 0.0 396.4 10.85 394.0 Q22.1 391.85 24.25 393.2 25.35 393.9 23.6 395.05 L19.2 397.35 Q12.3 400.95 14.6 404.25 17.05 407.75 39.75 405.8 L55.15 404.25 62.35 403.95 Q63.5 406.0 63.3 408.55 63.75 409.95 69.05 409.45 72.75 409.1 77.7 406.7 83.5 403.55 86.45 401.95 97.7 395.9 105.2 397.75 106.2 398.0 106.25 399.5 L106.25 402.65 Q106.5 407.2 111.6 407.7 117.55 408.3 125.15 404.05 L128.45 402.05 136.65 395.55 136.25 373.45 135.7 342.75" fill="none" stroke="#000000" stroke-linecap="round" stroke-linejoin="round" stroke-opacity="0.6" stroke-width="1.0"/>
    <path d="M83.05 16.7 L83.0 16.65" fill="none" stroke="#000000" stroke-linecap="round" stroke-linejoin="round" stroke-opacity="0.4" stroke-width="1.0"/>
    <path d="M110.25 0.0 L110.3 4.55 110.55 39.1 M95.3 1.1 L96.15 31.5 M65.95 1.6 L65.6 22.65 Q63.0 166.9 63.3 190.7 63.55 211.1 62.8 335.4 L62.75 350.3 62.7 353.6 62.7 355.9 62.55 373.45 62.35 403.95 M52.15 27.15 L51.85 1.85 M80.95 25.05 L79.8 0.45 M38.65 1.15 L38.35 6.45 36.85 31.25 M105.2 397.75 Q105.0 386.85 104.4 373.45 L103.65 358.75 102.85 345.45 102.1 335.4 Q99.8 305.9 96.25 284.6 91.4 255.3 86.4 160.95 L86.2 156.7 85.95 151.65 Q83.75 109.7 82.35 72.5 M24.25 393.2 L25.55 373.45 26.9 352.95 27.6 341.7 27.75 339.3 28.0 335.4 Q30.6 292.55 30.8 279.95 31.0 267.65 32.35 216.4 L33.65 167.55" fill="none" stroke="#000000" stroke-linecap="round" stroke-linejoin="round" stroke-opacity="0.6" stroke-width="1.0"/>
  </g>
</svg>
