<?xml version="1.0" encoding="UTF-8" standalone="no"?>
<svg xmlns:xlink="http://www.w3.org/1999/xlink" height="1060.9px" width="1629.95px" xmlns="http://www.w3.org/2000/svg">
  <g transform="matrix(1.0, 0.0, 0.0, 1.0, 0.5, 0.5)">
    <path d="M0.35 0.0 L1628.6 0.0 1628.6 82.6 0.35 82.6 0.35 0.0" fill="#000000" fill-opacity="0.09803922" fill-rule="evenodd" stroke="none"/>
    <path d="M0.35 82.6 L1628.6 82.6 1628.85 570.5 1628.95 773.9 1453.75 773.9 1453.75 570.5 1453.75 417.4 1252.8 417.4 1252.8 570.5 1252.8 773.9 1235.55 773.9 1235.55 570.5 1235.55 417.4 1034.6 417.4 1034.6 570.5 1034.6 773.9 1017.3 773.9 1017.3 570.5 1017.3 417.4 842.3 417.4 842.3 482.3 841.95 482.65 841.95 529.7 842.3 529.35 842.3 570.5 842.3 773.9 773.15 773.9 773.15 570.5 773.15 420.3 776.0 417.4 598.15 417.4 598.15 570.5 580.9 570.5 598.15 570.5 598.15 773.9 580.9 773.9 580.9 570.5 580.9 417.4 379.95 417.4 379.95 570.5 362.65 570.5 379.95 570.5 379.95 773.9 362.65 773.9 362.65 570.5 362.65 417.4 161.75 417.4 161.75 570.5 161.75 773.9 0.35 773.9 0.35 82.6 M1628.95 802.65 L1628.95 1059.9 0.35 1059.9 0.35 802.65 1628.95 802.65 M1453.75 391.0 L1453.75 317.9 1252.8 317.9 1252.8 391.0 1453.75 391.0 M1453.75 570.5 L1628.85 570.5 1453.75 570.5 M799.1 391.0 L799.1 317.9 598.15 317.9 598.15 391.0 799.1 391.0 M1017.3 391.0 L1017.3 317.9 816.4 317.9 816.4 391.0 1017.3 391.0 M1034.6 317.9 L1034.6 391.0 1235.55 391.0 1235.55 317.9 1034.6 317.9 M1017.3 570.5 L1034.6 570.5 1017.3 570.5 M842.3 570.5 L773.15 570.5 842.3 570.5 M1252.8 570.5 L1235.55 570.5 1252.8 570.5 M362.65 391.0 L362.65 317.9 161.75 317.9 161.75 391.0 362.65 391.0 M379.95 317.9 L379.95 391.0 580.9 391.0 580.9 317.9 379.95 317.9 M0.6 570.5 L161.75 570.5 0.6 570.5" fill="#ffffff" fill-opacity="0.0" fill-rule="evenodd" stroke="none"/>
    <path d="M1628.95 773.9 L1628.95 802.65 0.35 802.65 0.35 773.9 161.75 773.9 161.75 791.25 362.65 791.25 362.65 773.9 379.95 773.9 379.95 791.25 580.9 791.25 580.9 773.9 598.15 773.9 598.15 791.25 773.15 791.25 773.15 773.9 842.3 773.9 842.3 791.25 1017.3 791.25 1017.3 773.9 1034.6 773.9 1034.6 791.25 1235.55 791.25 1235.55 773.9 1252.8 773.9 1252.8 791.25 1453.75 791.25 1453.75 773.9 1628.95 773.9" fill="#000000" fill-opacity="0.2" fill-rule="evenodd" stroke="none"/>
    <path d="M0.35 0.0 L0.35 82.6 0.0 82.6 0.0 0.0 0.35 0.0" fill="#e2e3e4" fill-rule="evenodd" stroke="none"/>
    <path d="M1628.6 82.6 L1628.6 0.0 0.35 0.0 0.35 82.6 0.35 773.9 0.35 802.65 0.35 1059.9 1628.95 1059.9 1628.95 802.65 1628.95 773.9 1628.85 570.5 1628.6 82.6" fill="none" stroke="#000000" stroke-linecap="round" stroke-linejoin="miter-clip" stroke-miterlimit="4.0" stroke-width="1.0"/>
    <path d="M0.35 82.6 L1628.6 82.6 M0.35 82.6 L0.0 82.6 M0.0 0.0 L0.35 0.0 M1453.75 773.9 L1628.95 773.9 M1628.85 570.5 L1453.75 570.5 M1017.3 773.9 L1034.6 773.9 M1034.6 570.5 L1017.3 570.5 M773.15 570.5 L842.3 570.5 M598.15 773.9 L580.9 773.9 M379.95 773.9 L362.65 773.9 M161.75 773.9 L0.35 773.9 M773.15 773.9 L842.3 773.9 M1235.55 570.5 L1252.8 570.5 M1235.55 773.9 L1252.8 773.9 M161.75 570.5 L0.6 570.5 M362.65 570.5 L379.95 570.5 M580.9 570.5 L598.15 570.5 M0.35 802.65 L1628.95 802.65" fill="none" stroke="#000000" stroke-linecap="round" stroke-linejoin="miter-clip" stroke-miterlimit="4.0" stroke-opacity="0.6" stroke-width="1.0"/>
  </g>
</svg>
