<?xml version="1.0" encoding="UTF-8" standalone="no"?>
<svg xmlns:xlink="http://www.w3.org/1999/xlink" height="53.6px" width="32.15px" xmlns="http://www.w3.org/2000/svg">
  <g transform="matrix(1.0, 0.0, 0.0, 1.0, 1.05, 0.75)">
    <path d="M3.3 12.25 L2.85 11.95 2.45 11.6 2.35 11.45 Q1.65 10.55 1.95 9.4 L3.65 9.15 5.45 9.05 Q4.35 7.6 5.8 7.0 6.95 6.45 9.1 6.6 8.8 6.25 8.8 5.55 L8.65 4.6 10.65 4.5 12.7 4.45 Q12.25 3.1 13.0 2.1 13.8 1.05 15.4 1.05 16.6 -1.15 18.0 1.2 19.35 3.45 18.95 5.0 L19.4 4.2 19.95 3.25 21.4 3.45 21.4 2.9 21.5 2.35 22.25 2.75 23.0 3.55 23.75 3.0 24.45 2.55 Q25.55 4.5 23.35 8.75 L22.95 9.45 23.55 8.95 23.85 8.75 25.8 8.55 25.85 8.75 25.8 8.75 Q24.9 9.7 25.8 11.05 L25.85 11.1 25.8 11.1 24.85 11.25 23.7 11.3 23.7 11.85 23.65 12.4 20.4 12.65 Q19.15 12.9 17.6 14.05 19.45 15.05 21.15 16.85 L20.8 17.3 20.35 17.85 19.65 17.5 18.95 17.2 18.65 18.5 18.15 19.75 Q17.3 19.4 16.8 18.75 16.25 18.1 16.2 17.25 L15.25 17.6 Q14.45 17.8 14.15 18.1 13.95 15.95 12.35 14.9 L11.05 16.6 Q11.45 17.15 11.4 17.85 L11.1 19.2 Q9.75 19.6 8.95 18.9 8.25 18.25 8.2 17.0 L7.85 17.75 7.5 18.45 Q6.4 18.05 6.3 16.75 L6.3 14.4 5.25 15.05 Q4.6 14.05 5.5 13.0 L7.45 11.3 5.75 11.2 5.6 10.35 5.45 9.6 3.5 10.15 Q2.8 10.1 1.95 9.65 1.75 10.75 2.45 11.55 L3.3 12.25 M22.6 10.05 L22.95 9.45 22.6 10.05" fill="#ffffff" fill-opacity="0.0" fill-rule="evenodd" stroke="none"/>
    <path d="M23.35 8.75 L23.55 8.95 22.95 9.45 23.35 8.75" fill="#cdced0" fill-rule="evenodd" stroke="none"/>
    <path d="M25.85 8.75 L25.9 9.35 Q27.1 8.4 28.25 8.8 29.45 9.2 28.3 10.4 29.55 10.6 29.5 11.3 29.5 12.0 28.5 12.8 L29.0 13.75 28.5 14.95 28.3 16.6 Q28.4 16.3 30.25 17.4 30.9 18.15 30.4 18.7 L29.6 19.8 Q29.15 21.65 28.6 22.35 L27.75 23.0 25.7 23.4 25.65 23.4 25.5 23.4 Q25.25 24.4 24.3 24.55 23.4 24.75 22.55 24.15 L22.5 24.15 22.05 24.6 21.4 25.4 21.25 25.6 20.6 26.5 20.45 26.65 20.35 26.85 19.9 27.4 19.85 27.55 19.6 27.85 19.5 28.05 19.4 28.15 18.9 28.9 18.75 29.05 18.45 29.45 18.4 29.5 17.95 29.5 17.2 29.35 17.15 29.35 17.0 29.25 16.85 29.2 16.75 29.15 15.75 29.05 14.85 29.0 14.45 29.05 14.4 29.1 13.4 30.9 13.1 31.5 12.7 30.9 12.35 30.2 12.1 28.7 11.45 29.15 10.75 29.6 Q10.4 29.05 9.3 28.75 L7.9 28.25 7.5 27.4 7.4 26.65 Q7.35 25.65 6.75 25.15 5.7 26.0 4.8 25.65 3.9 25.3 3.7 23.95 L2.75 24.6 2.7 22.4 2.55 20.25 1.75 20.25 0.9 20.2 Q1.15 18.95 2.35 17.65 L1.2 17.9 0.0 17.85 1.75 14.75 Q2.5 13.25 4.45 12.65 L3.3 12.25 2.45 11.55 Q1.75 10.75 1.95 9.65 2.8 10.1 3.5 10.15 L5.45 9.6 5.6 10.35 5.75 11.2 7.45 11.3 5.5 13.0 Q4.6 14.05 5.25 15.05 L6.3 14.4 6.3 16.75 Q6.4 18.05 7.5 18.45 L7.85 17.75 8.2 17.0 Q8.25 18.25 8.95 18.9 9.75 19.6 11.1 19.2 L11.4 17.85 Q11.45 17.15 11.05 16.6 L12.35 14.9 Q13.95 15.95 14.15 18.1 14.45 17.8 15.25 17.6 L16.2 17.25 Q16.25 18.1 16.8 18.75 17.3 19.4 18.15 19.75 L18.65 18.5 18.95 17.2 19.65 17.5 20.35 17.85 20.8 17.3 21.15 16.85 Q19.45 15.05 17.6 14.05 19.15 12.9 20.4 12.65 L23.65 12.4 23.7 11.85 23.7 11.3 24.85 11.25 25.8 11.1 25.85 11.1 25.8 11.05 Q24.9 9.7 25.8 8.75 L25.85 8.75" fill="#000000" fill-opacity="0.34901962" fill-rule="evenodd" stroke="none"/>
    <path d="M29.6 19.8 Q29.2 21.65 28.65 22.35 L27.8 23.0 27.75 23.0 28.6 22.35 Q29.15 21.65 29.6 19.8 M19.85 27.55 L19.7 27.8 19.6 27.85 19.85 27.55" fill="#7d7e81" fill-rule="evenodd" stroke="none"/>
    <path d="M21.4 25.4 L21.75 24.95 21.55 26.25 21.4 27.4 21.2 28.8 20.9 30.9 20.6 33.2 Q19.25 43.25 19.65 46.25 L20.0 51.05 Q19.75 51.25 19.45 51.4 L17.85 52.0 Q15.2 52.65 12.65 51.05 L13.35 50.2 Q14.15 48.7 14.85 45.5 L15.0 44.05 Q15.35 38.65 15.1 33.2 L15.0 31.1 15.0 30.9 14.95 30.1 14.85 29.0 15.75 29.05 16.75 29.15 16.85 29.2 17.15 29.35 16.85 29.2 17.0 29.25 17.15 29.35 17.2 29.35 17.2 29.45 18.15 34.45 19.4 28.15 19.5 28.05 19.6 27.85 19.7 27.8 19.85 27.55 19.9 27.4 20.35 26.85 20.45 26.65 20.6 26.5 21.25 25.6 21.4 25.4" fill="#000000" fill-opacity="0.14901961" fill-rule="evenodd" stroke="none"/>
    <path d="M3.3 12.25 L2.85 11.95 2.45 11.6 2.35 11.45 Q1.65 10.55 1.95 9.4 L3.65 9.15 5.45 9.05 Q4.35 7.6 5.8 7.0 6.95 6.45 9.1 6.6 8.8 6.25 8.8 5.55 L8.65 4.6 10.65 4.5 12.7 4.45 Q12.25 3.1 13.0 2.1 13.8 1.05 15.4 1.05 16.6 -1.15 18.0 1.2 19.35 3.45 18.95 5.0 L19.4 4.2 19.95 3.25 21.4 3.45 21.4 2.9 21.5 2.35 22.25 2.75 23.0 3.55 23.75 3.0 24.45 2.55 Q25.55 4.5 23.35 8.75 L22.95 9.45 23.55 8.95 23.85 8.75 25.8 8.55 25.85 8.75 25.9 9.35 Q27.1 8.4 28.25 8.8 29.45 9.2 28.3 10.4 29.55 10.6 29.5 11.3 29.5 12.0 28.5 12.8 L29.0 13.75 28.5 14.95 28.3 16.6 Q28.4 16.3 30.25 17.4 30.9 18.15 30.4 18.7 L29.6 19.8 Q29.15 21.65 28.6 22.35 L27.75 23.0 25.7 23.4 25.65 23.4 25.5 23.4 Q25.25 24.4 24.3 24.55 23.4 24.75 22.55 24.15 L22.5 24.15 22.05 24.6 21.4 25.4 M21.75 24.95 L21.55 26.25 21.4 27.4 21.2 28.8 20.9 30.9 20.6 33.2 Q19.25 43.25 19.65 46.25 L20.0 51.05 Q19.75 51.25 19.45 51.4 L17.85 52.0 Q15.2 52.65 12.65 51.05 L13.35 50.2 Q14.15 48.7 14.85 45.5 L15.0 44.05 Q15.35 38.65 15.1 33.2 L15.0 31.1 15.0 30.9 14.95 30.1 14.85 29.0 14.45 29.05 14.4 29.1 13.4 30.9 13.1 31.5 12.7 30.9 12.35 30.2 12.1 28.7 11.45 29.15 10.75 29.6 Q10.4 29.05 9.3 28.75 L7.9 28.25 7.5 27.4 7.4 26.65 Q7.35 25.65 6.75 25.15 5.7 26.0 4.8 25.65 3.9 25.3 3.7 23.95 L2.75 24.6 2.7 22.4 2.55 20.25 1.75 20.25 0.9 20.2 Q1.15 18.95 2.35 17.65 L1.2 17.9 0.0 17.85 1.75 14.75 Q2.5 13.25 4.45 12.65 L3.3 12.25 M22.95 9.45 L22.6 10.05 M19.4 28.15 L18.15 34.45 17.2 29.45 M17.2 29.35 L17.95 29.5 18.4 29.5 18.45 29.45 18.75 29.05 18.9 28.9 19.4 28.15" fill="none" stroke="#000000" stroke-linecap="round" stroke-linejoin="miter-clip" stroke-miterlimit="4.0" stroke-width="1.0"/>
    <path d="M21.4 25.4 L21.25 25.6 20.6 26.5 20.45 26.65 20.35 26.85 19.9 27.4 19.85 27.55 19.6 27.85 19.5 28.05 19.4 28.15 M17.2 29.45 L17.2 29.35 17.15 29.35 16.85 29.2 16.75 29.15 15.75 29.05 14.85 29.0 M17.15 29.35 L17.0 29.25 16.85 29.2" fill="none" stroke="#000000" stroke-linecap="round" stroke-linejoin="miter-clip" stroke-miterlimit="4.0" stroke-opacity="0.4" stroke-width="1.0"/>
  </g>
</svg>
