<?xml version="1.0" encoding="UTF-8" standalone="no"?>
<svg xmlns:xlink="http://www.w3.org/1999/xlink" height="40.35px" width="22.2px" xmlns="http://www.w3.org/2000/svg">
  <g transform="matrix(1.0, 0.0, 0.0, 1.0, 0.5, 0.5)">
    <path d="M0.0 0.0 L10.45 10.1 21.2 0.0 21.2 37.35 10.75 27.25 0.0 37.35 0.0 0.0" fill="#ffffff" fill-opacity="0.0" fill-rule="evenodd" stroke="none"/>
    <path d="M21.2 0.0 L10.45 10.1 0.0 0.0 21.2 0.0 M0.0 37.35 L10.75 27.25 21.2 37.35 21.2 39.35 0.0 39.35 0.0 37.35" fill="#000000" fill-opacity="0.09803922" fill-rule="evenodd" stroke="none"/>
    <path d="M21.2 0.0 L10.45 10.1 0.0 0.0 M0.0 37.35 L10.75 27.25 21.2 37.35" fill="none" stroke="#000000" stroke-linecap="round" stroke-linejoin="miter-clip" stroke-miterlimit="4.0" stroke-opacity="0.6" stroke-width="1.0"/>
    <path d="M0.0 0.0 L0.0 37.35 0.0 39.35 21.2 39.35 21.2 37.35 21.2 0.0 0.0 0.0" fill="none" stroke="#000000" stroke-linecap="round" stroke-linejoin="miter-clip" stroke-miterlimit="4.0" stroke-width="1.0"/>
  </g>
</svg>
