<?xml version="1.0" encoding="UTF-8" standalone="no"?>
<svg xmlns:xlink="http://www.w3.org/1999/xlink" height="206.7px" width="221.6px" xmlns="http://www.w3.org/2000/svg">
  <g transform="matrix(1.0, 0.0, 0.0, 1.0, 112.6, 101.75)">
    <path d="M2.1 -99.15 L1.55 -100.85 2.15 -99.25 2.1 -99.15 2.15 -99.25 2.35 -100.05 4.15 -94.4 5.3 -89.8 5.55 -88.4 6.3 -83.95 Q29.15 -21.85 67.85 16.8 89.7 38.55 107.75 48.0 92.35 53.15 84.55 75.05 80.7 85.8 79.8 95.7 53.2 63.95 26.9 -15.4 18.65 -40.2 11.4 -66.95 L6.6 -81.9 Q11.25 -45.15 -5.15 22.45 -15.5 65.6 -28.65 101.65 -26.45 70.45 -66.75 66.0 -79.5 64.7 -94.85 66.0 L-107.7 67.8 Q-59.4 52.45 -23.65 -25.45 -12.55 -49.65 -4.0 -77.3 L2.1 -99.15" fill="#ffffff" fill-opacity="0.0" fill-rule="evenodd" stroke="none"/>
    <path d="M2.1 -99.15 L2.15 -99.25 2.35 -100.05 4.15 -94.4 5.3 -89.8 5.55 -88.4 6.3 -83.95 Q29.15 -21.85 67.85 16.8 89.7 38.55 107.75 48.0 92.35 53.15 84.55 75.05 80.7 85.8 79.8 95.7 53.2 63.95 26.9 -15.4 18.65 -40.2 11.4 -66.95 L6.6 -81.9 Q11.25 -45.15 -5.15 22.45 -15.5 65.6 -28.65 101.65 -26.45 70.45 -66.75 66.0 -79.5 64.7 -94.85 66.0 L-107.7 67.8 Q-59.4 52.45 -23.65 -25.45 -12.55 -49.65 -4.0 -77.3 L2.1 -99.15 Z" fill="none" stroke="#000000" stroke-linecap="butt" stroke-linejoin="miter-clip" stroke-miterlimit="10.0" stroke-opacity="0.6" stroke-width="1.0"/>
  </g>
</svg>
