<?xml version="1.0" encoding="UTF-8" standalone="no"?>
<svg xmlns:xlink="http://www.w3.org/1999/xlink" height="116.4px" width="151.25px" xmlns="http://www.w3.org/2000/svg">
  <g transform="matrix(1.0, 0.0, 0.0, 1.0, 75.65, 58.45)">
    <path d="M24.2 -24.25 L32.0 -24.3 Q43.8 -24.65 56.8 -26.25 69.9 -27.85 70.15 -41.85 70.25 -46.35 68.95 -51.5 68.0 -55.3 67.5 -56.2 72.05 -49.25 73.2 -46.55 75.5 -41.3 75.0 -35.6 L75.05 -36.65 Q74.15 -32.3 71.4 -27.95 66.25 -19.8 57.6 -18.25 48.7 -16.65 34.4 -16.05 27.45 -15.75 22.1 -15.75 21.65 -19.45 23.35 -22.4 L23.45 -22.55 23.7 -22.95 23.95 -23.35 24.25 -23.75 24.2 -24.25 M4.35 56.15 L3.55 56.5 3.5 56.45 Q2.3 55.55 0.95 50.25 L-0.2 44.75 Q-0.5 46.85 -1.35 50.25 -2.7 55.55 -3.9 56.4 -5.2 57.35 -7.8 52.4 L-8.45 51.15 -8.2 51.6 Q-5.95 56.05 -4.6 56.5 -5.8 54.0 -6.65 49.1 L-7.3 44.7 -7.05 43.4 -6.85 45.5 Q-6.2 49.85 -5.05 49.85 -3.95 49.85 -2.75 47.55 L-1.05 43.55 Q-0.5 42.15 -1.85 31.75 L-3.3 21.6 -3.6 33.55 Q-3.75 29.3 -6.25 25.15 -7.45 23.05 -8.7 21.85 -9.05 22.3 -9.05 23.75 L-10.4 17.0 Q-7.75 16.45 -6.95 15.55 L-6.7 14.7 Q-11.35 12.6 -14.75 5.7 -16.45 2.3 -17.2 -0.75 -15.8 -1.8 -12.5 -1.8 L-9.5 -1.55 -11.4 -4.2 Q-13.75 -6.9 -16.05 -7.3 -18.4 -7.65 -19.45 -9.8 -19.95 -10.85 -20.05 -11.85 -19.2 -17.05 -20.4 -21.8 -21.2 -25.0 -22.75 -27.6 L-19.95 -27.55 Q-17.1 -27.45 -15.7 -28.15 -12.95 -30.25 -10.45 -31.45 -5.75 -33.65 0.0 -32.4 5.7 -33.6 10.4 -31.35 L15.65 -28.05 Q17.05 -27.35 19.9 -27.45 L22.7 -27.45 Q21.1 -24.9 20.3 -21.7 19.1 -17.0 19.9 -11.8 L19.3 -9.7 Q18.25 -7.55 15.9 -7.2 13.6 -6.85 11.2 -4.15 L9.3 -1.5 12.35 -1.7 Q15.6 -1.7 17.05 -0.6 L14.55 5.8 Q11.1 12.6 6.45 14.75 6.3 15.1 6.7 15.6 7.5 16.5 10.15 17.05 L8.8 23.6 Q8.8 22.3 8.45 21.9 L5.95 25.2 Q3.45 29.3 3.25 33.6 L3.0 21.6 1.5 31.75 Q0.1 42.15 0.65 43.55 L2.35 47.55 Q3.5 49.9 4.65 49.9 5.8 49.9 6.45 45.55 L6.75 43.35 6.95 44.75 6.25 49.1 Q5.4 53.7 4.35 56.15 M-75.0 -35.95 Q-75.55 -41.7 -73.15 -46.9 -71.95 -49.7 -67.35 -56.55 -67.9 -55.65 -68.9 -51.85 -70.2 -46.7 -70.1 -42.2 -69.95 -28.15 -56.85 -26.55 -43.85 -24.9 -32.05 -24.5 L-25.2 -24.4 -24.7 -24.4 -24.25 -24.4 -24.3 -23.85 -24.2 -23.75 -24.1 -23.6 -24.0 -23.5 -23.95 -23.4 -23.85 -23.3 -22.15 -16.6 -22.25 -15.85 -34.55 -16.2 Q-48.8 -16.9 -57.75 -18.5 -66.35 -20.1 -71.45 -28.25 -74.15 -32.65 -75.05 -37.0 L-75.0 -35.95" fill="#ffffff" fill-opacity="0.0" fill-rule="evenodd" stroke="none"/>
    <path d="M8.3 50.6 L7.8 51.65 7.4 52.4 8.3 50.6 M5.1 55.9 L4.2 56.5 4.35 56.15 5.1 55.9 M22.7 -27.45 L22.7 -27.5 23.0 -27.45 23.1 -27.45 22.7 -27.45" fill="#c2c2c2" fill-rule="evenodd" stroke="none"/>
    <path d="M24.2 -24.25 L24.25 -23.75 23.95 -23.35 23.7 -22.95 23.45 -22.55 23.35 -22.4 Q21.65 -19.45 22.1 -15.75 27.45 -15.75 34.4 -16.05 48.7 -16.65 57.6 -18.25 66.25 -19.8 71.4 -27.95 74.15 -32.3 75.05 -36.65 L75.0 -35.6 Q74.5 -29.95 72.0 -24.95 69.35 -19.7 65.0 -16.4 60.2 -12.75 53.1 -10.75 48.15 -9.4 40.0 -8.45 33.1 -7.65 25.05 -8.35 25.2 -6.75 23.3 -6.25 L21.3 -6.05 Q18.45 -4.25 20.9 -0.4 L23.9 3.1 Q24.6 9.0 20.0 13.65 17.7 15.95 15.3 17.05 L13.5 20.85 Q11.5 25.55 10.4 30.2 9.3 34.85 9.45 41.55 9.5 44.9 9.8 47.35 L8.3 50.6 7.4 52.4 5.6 55.3 5.1 55.9 4.35 56.15 Q5.4 53.7 6.25 49.1 L6.95 44.75 6.75 43.35 6.95 38.15 Q6.95 36.95 8.25 29.2 8.85 25.5 8.8 23.6 L10.15 17.05 Q7.5 16.5 6.7 15.6 6.3 15.1 6.45 14.75 11.1 12.6 14.55 5.8 L17.05 -0.6 Q15.6 -1.7 12.35 -1.7 L9.3 -1.5 11.2 -4.15 Q13.6 -6.85 15.9 -7.2 18.25 -7.55 19.3 -9.7 L19.9 -11.8 Q19.1 -17.0 20.3 -21.7 21.1 -24.9 22.7 -27.45 L23.1 -27.45 Q23.65 -27.3 24.0 -25.5 L24.2 -24.25 M-8.45 51.15 L-10.2 47.25 -9.8 41.5 Q-9.65 34.8 -10.75 30.15 -11.8 25.5 -13.75 20.8 L-15.55 17.0 -17.05 16.1 Q-18.85 14.95 -20.25 13.5 -24.8 8.85 -24.05 3.0 L-22.85 1.8 -21.15 -0.35 -21.1 -0.5 Q-18.65 -4.4 -21.5 -6.15 L-23.45 -6.35 Q-25.35 -6.85 -25.2 -8.45 -33.7 -7.85 -40.15 -8.65 -48.3 -9.65 -53.2 -11.0 -60.3 -13.0 -65.1 -16.7 -69.4 -20.05 -72.05 -25.3 -74.55 -30.3 -75.0 -35.95 L-75.05 -37.0 Q-74.15 -32.65 -71.45 -28.25 -66.35 -20.1 -57.75 -18.5 -48.8 -16.9 -34.55 -16.2 L-22.25 -15.85 -22.15 -16.6 -23.85 -23.3 -23.95 -23.4 -24.0 -23.5 -24.1 -23.6 -24.2 -23.75 -24.3 -23.85 -24.25 -24.4 Q-23.95 -27.35 -23.15 -27.6 L-22.75 -27.6 Q-21.2 -25.0 -20.4 -21.8 -19.2 -17.05 -20.05 -11.85 -19.95 -10.85 -19.45 -9.8 -18.4 -7.65 -16.05 -7.3 -13.75 -6.9 -11.4 -4.2 L-9.5 -1.55 -12.5 -1.8 Q-15.8 -1.8 -17.2 -0.75 -16.45 2.3 -14.75 5.7 -11.35 12.6 -6.7 14.7 L-6.95 15.55 Q-7.75 16.45 -10.4 17.0 L-9.05 23.75 Q-9.1 25.6 -8.5 29.15 -7.3 36.95 -7.3 38.15 L-7.05 43.4 -7.3 44.7 -6.65 49.1 Q-5.8 54.0 -4.6 56.5 -5.95 56.05 -8.2 51.6 L-8.45 51.15 M25.05 -8.35 Q23.5 -10.5 22.6 -13.45 L22.1 -15.75 22.6 -13.45 Q23.5 -10.5 25.05 -8.35 M15.6 7.05 Q13.8 10.1 10.65 12.6 L7.85 14.45 14.45 14.05 Q21.0 12.1 21.05 4.2 L19.4 3.85 Q17.4 4.05 15.6 7.05 M-22.15 -16.6 Q-22.25 -15.15 -22.75 -13.55 -23.6 -10.6 -25.2 -8.45 -23.6 -10.6 -22.75 -13.55 -22.25 -15.15 -22.15 -16.6 M-15.8 7.0 Q-17.6 3.95 -19.6 3.75 -20.6 3.6 -21.2 4.1 -21.25 12.0 -14.7 14.0 L-10.15 14.6 -8.15 14.45 -10.9 12.55 Q-14.05 10.0 -15.8 7.0" fill="#000000" fill-opacity="0.2" fill-rule="evenodd" stroke="none"/>
    <path d="M8.8 23.6 Q8.85 25.5 8.25 29.2 6.95 36.95 6.95 38.15 L6.75 43.35 6.45 45.55 Q5.8 49.9 4.65 49.9 3.5 49.9 2.35 47.55 L0.65 43.55 Q0.1 42.15 1.5 31.75 L3.0 21.6 3.25 33.6 Q3.45 29.3 5.95 25.2 L8.45 21.9 Q8.8 22.3 8.8 23.6 M15.6 7.05 Q17.4 4.05 19.4 3.85 L21.05 4.2 Q21.0 12.1 14.45 14.05 L7.85 14.45 10.65 12.6 Q13.8 10.1 15.6 7.05 M-9.05 23.75 Q-9.05 22.3 -8.7 21.85 -7.45 23.05 -6.25 25.15 -3.75 29.3 -3.6 33.55 L-3.3 21.6 -1.85 31.75 Q-0.5 42.15 -1.05 43.55 L-2.75 47.55 Q-3.95 49.85 -5.05 49.85 -6.2 49.85 -6.85 45.5 L-7.05 43.4 -7.3 38.15 Q-7.3 36.95 -8.5 29.15 -9.1 25.6 -9.05 23.75 M-15.8 7.0 Q-14.05 10.0 -10.9 12.55 L-8.15 14.45 -10.15 14.6 -14.7 14.0 Q-21.25 12.0 -21.2 4.1 -20.6 3.6 -19.6 3.75 -17.6 3.95 -15.8 7.0" fill="#000000" fill-opacity="0.6" fill-rule="evenodd" stroke="none"/>
    <path d="M5.15 55.85 L5.1 55.9 5.6 55.3 5.15 55.85 M-24.05 3.0 L-24.05 2.95 -22.85 1.8 -24.05 3.0" fill="#fbfbfb" fill-rule="evenodd" stroke="none"/>
    <path d="M75.0 -35.6 Q75.5 -41.3 73.2 -46.55 72.05 -49.25 67.5 -56.2 68.0 -55.3 68.95 -51.5 70.25 -46.35 70.15 -41.85 69.9 -27.85 56.8 -26.25 43.8 -24.65 32.0 -24.3 L24.2 -24.25 24.25 -23.75 M75.0 -35.6 Q74.5 -29.95 72.0 -24.95 69.35 -19.7 65.0 -16.4 60.2 -12.75 53.1 -10.75 48.15 -9.4 40.0 -8.45 33.1 -7.65 25.05 -8.35 25.2 -6.75 23.3 -6.25 L21.3 -6.05 Q18.45 -4.25 20.9 -0.4 L23.9 3.1 Q24.6 9.0 20.0 13.65 17.7 15.95 15.3 17.05 L13.5 20.85 Q11.5 25.55 10.4 30.2 9.3 34.85 9.45 41.55 9.5 44.9 9.8 47.35 L8.3 50.6 7.4 52.4 5.15 55.85 5.1 55.9 4.35 56.15 3.55 56.5 3.5 56.45 Q2.3 55.55 0.95 50.25 L-0.2 44.75 Q-0.5 46.85 -1.35 50.25 -2.7 55.55 -3.9 56.4 -5.2 57.35 -7.8 52.4 L-8.45 51.15 -10.2 47.25 -9.8 41.5 Q-9.65 34.8 -10.75 30.15 -11.8 25.5 -13.75 20.8 L-15.55 17.0 -17.05 16.1 Q-18.85 14.95 -20.25 13.5 -24.8 8.85 -24.05 3.0 L-24.05 2.95 -22.85 1.8 -21.15 -0.35 -21.1 -0.5 Q-18.65 -4.4 -21.5 -6.15 L-23.45 -6.35 Q-25.35 -6.85 -25.2 -8.45 -33.7 -7.85 -40.15 -8.65 -48.3 -9.65 -53.2 -11.0 -60.3 -13.0 -65.1 -16.7 -69.4 -20.05 -72.05 -25.3 -74.55 -30.3 -75.0 -35.95 -75.55 -41.7 -73.15 -46.9 -71.95 -49.7 -67.35 -56.55 -67.9 -55.65 -68.9 -51.85 -70.2 -46.7 -70.1 -42.2 -69.95 -28.15 -56.85 -26.55 -43.85 -24.9 -32.05 -24.5 L-25.2 -24.4 -24.7 -24.4 -24.25 -24.4 Q-23.95 -27.35 -23.15 -27.6 L-22.75 -27.6 -19.95 -27.55 Q-17.1 -27.45 -15.7 -28.15 -12.95 -30.25 -10.45 -31.45 -5.75 -33.65 0.0 -32.4 5.7 -33.6 10.4 -31.35 L15.65 -28.05 Q17.05 -27.35 19.9 -27.45 L22.7 -27.45 23.1 -27.45 Q23.65 -27.3 24.0 -25.5 L24.2 -24.25 M23.0 -27.45 L23.1 -27.45 M5.6 55.3 L7.4 52.4 M5.15 55.85 L5.6 55.3" fill="none" stroke="#000000" stroke-linecap="round" stroke-linejoin="miter-clip" stroke-miterlimit="4.0" stroke-width="1.0"/>
    <path d="M24.25 -23.75 L23.95 -23.35 23.7 -22.95 23.45 -22.55 23.35 -22.4 Q21.65 -19.45 22.1 -15.75 L22.6 -13.45 Q23.5 -10.5 25.05 -8.35 M-22.15 -16.6 L-23.85 -23.3 -23.95 -23.4 -24.0 -23.5 -24.1 -23.6 -24.2 -23.75 -24.3 -23.85 -24.25 -24.4 M-25.2 -8.45 Q-23.6 -10.6 -22.75 -13.55 -22.25 -15.15 -22.15 -16.6" fill="none" stroke="#000000" stroke-linecap="round" stroke-linejoin="miter-clip" stroke-miterlimit="4.0" stroke-opacity="0.6" stroke-width="1.0"/>
    <path d="M8.8 23.6 Q8.85 25.5 8.25 29.2 6.95 36.95 6.95 38.15 L6.75 43.35 6.45 45.55 Q5.8 49.9 4.65 49.9 3.5 49.9 2.35 47.55 L0.65 43.55 Q0.1 42.15 1.5 31.75 L3.0 21.6 3.25 33.6 Q3.45 29.3 5.95 25.2 L8.45 21.9 Q8.8 22.3 8.8 23.6 M15.6 7.05 Q13.8 10.1 10.65 12.6 L7.85 14.45 14.45 14.05 Q21.0 12.1 21.05 4.2 L19.4 3.85 Q17.4 4.05 15.6 7.05 M-9.05 23.75 Q-9.05 22.3 -8.7 21.85 -7.45 23.05 -6.25 25.15 -3.75 29.3 -3.6 33.55 L-3.3 21.6 -1.85 31.75 Q-0.5 42.15 -1.05 43.55 L-2.75 47.55 Q-3.95 49.85 -5.05 49.85 -6.2 49.85 -6.85 45.5 L-7.05 43.4 -7.3 38.15 Q-7.3 36.95 -8.5 29.15 -9.1 25.6 -9.05 23.75 M-15.8 7.0 Q-14.05 10.0 -10.9 12.55 L-8.15 14.45 -10.15 14.6 -14.7 14.0 Q-21.25 12.0 -21.2 4.1 -20.6 3.6 -19.6 3.75 -17.6 3.95 -15.8 7.0" fill="none" stroke="#000000" stroke-linecap="round" stroke-linejoin="miter-clip" stroke-miterlimit="4.0" stroke-opacity="0.4" stroke-width="1.0"/>
  </g>
</svg>
