<?xml version="1.0" encoding="UTF-8" standalone="no"?>
<svg xmlns:xlink="http://www.w3.org/1999/xlink" height="692.15px" width="1836.6px" xmlns="http://www.w3.org/2000/svg">
  <g transform="matrix(1.0, 0.0, 0.0, 1.0, 620.5, 370.85)">
    <path d="M469.5 320.6 L470.7 320.55 471.6 -62.95 Q463.45 -85.0 441.65 -103.45 403.55 -135.75 338.15 -140.2 L336.6 -140.3 334.7 -140.2 Q269.3 -136.0 231.05 -103.95 209.1 -85.55 200.9 -63.55 L200.05 319.95 -565.55 318.15 -563.8 -368.85 1215.6 -366.25 1213.9 320.8 469.5 320.6" fill="#ffffff" fill-opacity="0.0" fill-rule="evenodd" stroke="none"/>
    <path d="M469.5 320.6 L1213.9 320.8 1215.6 -366.25 -563.8 -368.85 -565.55 318.15 200.05 319.95 M469.5 320.6 L469.05 320.6" fill="none" stroke="#000000" stroke-linecap="round" stroke-linejoin="miter-clip" stroke-miterlimit="4.0" stroke-width="1.0"/>
  </g>
</svg>
