<?xml version="1.0" encoding="UTF-8" standalone="no"?>
<svg xmlns:xlink="http://www.w3.org/1999/xlink" height="1002.75px" width="1737.5px" xmlns="http://www.w3.org/2000/svg">
  <g transform="matrix(1.0, 0.0, 0.0, 1.0, 868.3, 501.2)">
    <path d="M-282.05 -479.8 L-281.7 -479.8 -264.1 -481.2 Q-247.7 -483.4 -225.75 -488.75 -187.15 -498.25 -170.4 -499.75 -124.75 -503.75 -65.6 -490.95 -20.95 -481.2 36.25 -460.6 33.65 -412.35 42.5 -336.5 L49.6 -275.35 Q53.3 -240.05 54.15 -212.5 55.05 -184.9 60.5 -148.15 67.25 -102.2 78.3 -66.4 108.9 32.5 159.0 15.4 L164.25 40.8 164.5 40.8 180.85 39.25 183.9 87.1 185.7 88.7 Q193.85 95.55 211.45 105.95 227.25 115.25 266.35 127.45 309.3 140.15 324.9 145.7 341.95 151.65 387.95 149.75 410.95 148.8 419.35 148.95 434.6 149.35 441.15 152.7 455.7 160.2 472.1 194.2 481.05 212.65 494.0 244.55 511.6 282.5 524.85 302.85 539.15 324.75 555.75 337.85 571.35 350.1 596.3 360.0 613.6 366.85 656.15 379.8 676.45 386.05 710.25 392.9 L767.7 404.45 Q836.8 419.45 867.65 442.15 L809.8 444.0 751.85 448.6 700.1 450.75 Q671.6 450.75 649.1 447.85 L648.15 447.75 Q657.75 466.65 663.65 472.2 L663.4 472.0 663.35 472.0 Q657.6 466.3 648.1 447.75 L647.35 446.25 646.1 443.75 647.35 446.25 648.1 447.75 Q657.6 466.3 663.35 472.0 L620.5 439.2 591.65 460.75 560.9 451.8 530.85 461.15 503.35 443.35 470.8 452.45 455.15 425.05 494.95 428.8 539.6 419.3 Q558.2 428.7 576.8 438.05 L619.1 422.95 Q607.35 414.15 593.95 405.3 572.45 391.1 539.95 372.6 515.4 358.7 492.1 327.55 478.65 309.65 454.35 271.95 432.2 240.2 411.95 226.7 385.0 208.8 349.9 212.7 349.05 245.9 342.15 274.25 335.8 300.65 324.55 321.7 L344.7 318.3 422.55 444.45 447.65 485.15 448.15 485.95 428.25 466.9 Q404.35 444.2 383.15 425.2 315.95 364.7 304.45 366.05 292.95 367.5 297.35 392.45 299.55 404.9 304.05 417.15 L288.05 389.4 Q270.25 360.7 261.55 355.45 252.85 350.15 209.5 368.65 187.85 377.9 167.9 388.1 L195.3 369.75 Q225.2 349.35 237.3 338.9 249.55 328.5 267.35 276.15 272.9 259.85 278.4 241.25 L282.7 225.9 224.8 221.25 225.1 228.6 Q225.35 237.25 224.8 244.05 223.1 265.85 214.4 260.6 205.7 255.3 186.9 193.7 L169.8 133.15 140.05 94.35 147.4 186.05 161.65 281.9 122.0 184.05 Q120.15 161.1 118.5 135.95 115.2 85.5 116.1 74.25 116.8 65.7 109.4 53.0 104.25 44.2 96.05 34.5 L97.8 34.95 Q82.4 30.85 72.55 31.55 66.65 32.05 64.65 33.7 L53.55 12.7 42.5 -8.15 23.1 -10.65 Q0.45 -12.4 -15.75 -9.1 -22.95 -7.65 -27.55 5.05 L-9.35 2.3 7.25 160.4 -10.1 195.45 -27.35 321.65 -40.95 338.45 Q-43.8 332.95 -45.7 326.6 L-41.95 339.7 -71.75 376.45 -77.05 403.4 Q-83.75 430.15 -90.55 429.7 L-140.05 436.65 -120.85 457.65 -118.5 460.3 -118.45 460.8 -118.35 461.4 -118.35 461.55 -117.7 468.15 -117.55 469.5 -114.35 500.65 -233.65 487.6 -169.75 463.5 -201.55 450.05 -160.55 438.7 -202.75 373.4 Q-197.5 372.55 -191.0 377.4 -186.0 381.15 -180.2 388.35 L-178.2 391.35 -177.55 389.4 -169.2 364.0 Q-163.75 350.15 -157.1 343.6 -148.8 335.45 -136.8 336.35 -139.75 344.75 -138.95 357.2 -138.35 367.75 -135.55 377.35 -134.65 359.5 -123.25 342.2 -115.95 331.05 -98.45 313.1 -92.0 320.05 -87.6 331.3 -85.35 337.05 -83.3 345.2 L-89.9 316.05 Q-94.6 295.05 -93.35 281.2 -92.0 267.15 -88.05 243.25 -83.45 214.65 -82.15 204.65 -76.25 205.05 -70.95 208.1 -72.25 220.7 -70.8 239.0 -69.35 257.15 -66.2 268.6 L-62.65 249.8 Q-60.2 235.9 -59.4 226.15 -57.0 196.75 -68.8 190.45 -76.7 174.3 -64.1 156.2 -52.6 139.7 -32.85 132.55 -26.95 141.1 -24.15 145.75 -19.1 154.0 -18.25 160.05 -19.1 134.25 -20.7 120.75 -22.95 101.5 -28.45 82.25 -32.95 66.65 -33.15 50.25 -33.4 39.5 -31.5 21.8 -30.1 13.45 -28.6 8.25 L-29.35 10.85 -29.5 11.35 Q-33.1 24.6 -35.65 52.2 L-35.65 52.3 -35.65 52.6 -35.7 53.1 -36.05 56.8 Q-46.05 60.1 -55.65 65.35 -73.55 75.3 -86.0 89.75 -97.6 103.25 -102.3 118.5 L-90.0 74.7 Q-82.0 46.35 -79.85 25.9 -44.35 20.55 -28.05 0.95 -14.15 -15.75 -12.5 -45.45 -11.3 -65.15 -16.05 -104.5 -21.5 -149.75 -21.9 -167.65 -23.0 -220.05 -31.35 -292.0 -36.15 -333.7 -47.25 -416.4 -65.3 -421.2 -81.35 -419.15 -87.65 -403.85 -93.6 -374.7 -100.4 -341.4 -103.95 -330.2 -110.2 -339.2 -113.25 -356.25 -114.7 -364.05 -116.9 -387.95 -118.75 -407.95 -121.45 -417.6 -125.4 -431.9 -133.45 -437.45 -165.6 -459.4 -189.65 -427.9 -201.55 -412.35 -215.55 -372.45 -233.65 -320.75 -242.6 -240.55 -245.9 -211.35 -248.75 -170.75 L-253.35 -103.1 Q-252.55 -129.05 -256.45 -177.0 L-262.85 -252.35 Q-264.1 -270.65 -262.35 -298.55 L-258.6 -347.75 Q-254.35 -408.85 -264.1 -440.35 L-264.2 -440.7 Q-270.85 -443.2 -303.5 -451.0 L-371.05 -467.25 Q-369.2 -469.1 -366.85 -470.7 -364.95 -472.0 -362.65 -473.1 L-359.4 -474.5 -347.7 -477.5 -339.95 -478.5 -339.55 -478.5 -333.6 -478.75 -331.45 -478.85 -294.0 -479.6 -289.5 -479.7 -289.25 -479.7 -289.2 -479.7 -283.45 -479.75 -282.6 -479.75 -282.05 -479.8 M-661.4 383.55 Q-655.75 390.35 -649.75 395.1 -632.6 408.6 -615.15 434.25 L-601.2 457.25 -660.2 467.15 -660.3 467.15 -672.7 464.1 -688.2 460.8 -702.1 458.35 Q-747.65 451.1 -766.5 458.7 L-796.65 470.9 -717.35 389.7 -757.95 358.1 -692.65 323.65 -689.8 331.8 -687.3 338.1 Q-684.6 344.8 -681.5 351.2 L-681.0 352.2 Q-671.7 371.25 -661.4 383.55 M-27.55 5.05 L-28.6 8.25 -27.55 5.05 M-167.35 336.8 Q-169.55 330.0 -172.15 316.2 -177.5 287.45 -176.7 243.55 -174.75 194.6 -175.15 170.35 -175.5 148.55 -183.0 94.95 -189.5 48.35 -187.5 18.55 -181.4 -79.6 -177.9 -129.15 -171.8 -215.3 -164.15 -276.1 -162.3 -290.55 -151.75 -325.4 -142.65 -355.5 -141.75 -373.65 -142.4 -348.4 -138.35 -279.55 -134.8 -219.5 -138.55 -184.5 -141.05 -161.75 -150.55 -109.3 -160.3 -56.0 -163.45 -28.3 -167.6 9.2 -166.0 38.05 -164.05 72.5 -153.9 98.95 -147.75 114.9 -125.0 135.75 -111.4 148.25 -107.5 152.3 -98.15 161.9 -93.1 170.85 -139.45 159.8 -145.6 206.8 -147.85 223.2 -145.35 249.55 -144.0 264.1 -140.9 289.5 -139.95 299.2 -136.7 309.1 L-150.15 318.75 Q-159.1 325.35 -163.5 329.5 -166.5 332.3 -166.2 332.45 L-167.35 336.8 M-300.25 -336.1 Q-302.45 -292.95 -298.8 -226.7 -293.7 -135.55 -294.0 -105.5 -294.3 -81.75 -297.05 -51.45 L-302.45 1.3 Q-309.35 67.05 -306.55 108.75 -306.0 117.05 -301.85 134.0 L-294.3 164.8 Q-285.45 204.1 -293.1 219.25 -298.55 230.2 -308.0 236.05 -314.85 240.45 -326.9 243.4 L-347.55 248.6 Q-359.35 252.3 -367.45 258.85 -376.25 266.0 -382.7 275.75 -386.6 281.75 -392.35 293.65 -398.2 305.8 -401.8 311.5 -408.05 321.1 -416.4 328.05 -430.8 339.85 -461.25 348.55 -470.9 351.3 -509.5 359.7 -493.4 343.6 -469.55 324.3 -445.2 304.45 -437.3 296.7 -421.8 281.5 -412.1 263.85 -400.85 243.15 -393.5 212.5 -386.05 211.7 -365.6 204.8 -348.4 199.15 -336.5 200.0 -322.55 96.05 -314.3 -73.3 L-307.9 -211.1 Q-304.3 -282.9 -300.25 -336.1 M-140.05 436.65 L-168.8 405.25 -178.2 391.35 -168.8 405.25 -140.05 436.65 M646.1 443.75 L646.05 443.65 Q639.5 430.25 634.15 417.55 L619.1 422.95 634.15 417.55 Q639.5 430.25 646.05 443.65 L646.1 443.75 M195.45 174.55 Q188.7 146.65 184.1 90.55 L183.9 87.1 184.1 90.55 Q188.7 146.65 195.45 174.55 L195.6 175.25 Q202.5 203.15 247.95 204.95 255.0 205.25 262.65 204.85 258.3 200.05 253.85 196.6 240.85 186.5 221.5 180.6 212.65 177.9 195.45 174.55 M308.6 268.3 L308.6 268.0 Q309.5 256.65 300.75 227.75 L292.0 201.15 278.5 203.35 262.65 204.85 278.5 203.35 292.0 201.15 300.75 227.75 Q309.5 256.65 308.6 268.0 L308.6 268.3 308.5 269.5 308.55 269.05 308.55 268.75 308.6 268.45 308.6 268.3 M305.7 294.75 L305.7 294.7 307.45 279.95 308.5 269.5 307.45 279.95 305.7 294.7 305.7 294.75 302.2 321.15 301.55 325.55 315.85 323.15 316.15 323.1 Q312.25 313.55 307.0 298.4 L305.7 294.75 M324.55 321.7 L316.15 323.1 324.55 321.7 M164.25 40.8 L154.7 41.7 Q124.55 43.0 104.5 36.85 L99.45 35.4 97.8 34.95 99.45 35.4 104.5 36.85 Q124.55 43.0 154.7 41.7 L164.25 40.8" fill="#000000" fill-opacity="0.09803922" fill-rule="evenodd" stroke="none"/>
    <path d="M-294.0 -479.6 L-290.75 -479.7 -290.25 -479.7 -289.75 -479.7 -289.5 -479.7 -294.0 -479.6 M-120.85 457.65 L-118.5 460.2 -118.45 460.8 -118.5 460.3 -120.85 457.65 M-36.7 64.6 L-38.05 78.8 -38.15 79.7 -37.25 70.1 -36.7 64.6 M308.6 268.3 L308.6 268.45 308.55 268.75 308.55 269.05 308.5 269.5 308.6 268.3" fill="#b2b2b2" fill-rule="evenodd" stroke="none"/>
    <path d="M664.05 472.65 L665.9 473.95 Q672.35 477.4 650.95 482.6 L646.1 483.7 628.15 487.05 500.25 488.75 448.0 485.65 447.65 485.15 422.55 444.45 455.15 425.05 422.55 444.45 344.7 318.3 324.55 321.7 Q335.8 300.65 342.15 274.25 349.05 245.9 349.9 212.7 385.0 208.8 411.95 226.7 432.2 240.2 454.35 271.95 478.65 309.65 492.1 327.55 515.4 358.7 539.95 372.6 572.45 391.1 593.95 405.3 607.35 414.15 619.1 422.95 L576.8 438.05 Q558.2 428.7 539.6 419.3 L494.95 428.8 455.15 425.05 470.8 452.45 503.35 443.35 530.85 461.15 560.9 451.8 591.65 460.75 620.5 439.2 663.35 472.0 664.05 472.65 M407.9 483.3 L400.1 483.1 399.15 483.05 Q345.75 482.1 324.2 491.7 302.6 501.35 266.0 490.15 247.7 484.65 233.75 477.15 L131.75 481.85 Q23.0 486.0 -10.95 483.3 -40.3 481.0 -117.55 469.5 L-117.7 468.15 -118.35 461.55 -118.35 461.4 -118.45 460.8 -118.5 460.2 -120.85 457.65 -140.05 436.65 -90.55 429.7 Q-83.75 430.15 -77.05 403.4 L-71.75 376.45 -41.95 339.7 Q-38.25 352.1 -35.55 358.5 -27.8 376.95 -15.65 387.25 -19.85 389.8 -34.6 396.6 -46.6 402.2 -52.65 407.15 -48.35 411.15 -46.7 418.4 -44.5 427.75 -43.8 429.1 -49.8 430.8 -58.1 434.55 L-72.0 441.0 Q-79.2 444.15 -85.65 445.75 -77.2 444.7 -68.8 443.0 -50.1 439.35 -36.95 433.05 -28.95 429.3 -14.3 414.4 -0.25 400.25 7.5 397.25 28.6 389.0 59.35 408.6 74.95 418.5 100.6 442.15 88.3 430.25 68.45 408.75 48.0 388.35 28.6 379.65 21.5 376.45 5.5 371.0 -9.05 366.05 -16.15 362.45 -32.7 354.1 -40.95 338.45 L-27.35 321.65 -10.1 195.45 7.25 160.4 -9.35 2.3 -27.55 5.05 Q-22.95 -7.65 -15.75 -9.1 0.45 -12.4 23.1 -10.65 L42.5 -8.15 45.85 -0.5 Q49.7 9.2 52.65 19.1 62.0 50.8 57.9 73.3 53.85 95.75 48.1 157.2 45.2 187.95 43.15 214.25 53.7 218.7 64.55 225.05 86.35 237.65 87.9 246.9 L98.05 320.6 106.25 383.25 Q108.1 348.8 109.15 312.85 111.15 241.0 107.15 233.9 103.15 226.8 82.7 209.6 72.4 201.05 62.95 193.95 68.45 158.85 68.65 116.05 68.95 50.65 53.55 12.7 L64.65 33.7 Q66.65 32.05 72.55 31.55 82.4 30.85 97.8 34.95 L96.05 34.5 Q104.25 44.2 109.4 53.0 116.8 65.7 116.1 74.25 115.2 85.5 118.5 135.95 120.15 161.1 122.0 184.05 L161.65 281.9 147.4 186.05 140.05 94.35 169.8 133.15 186.9 193.7 Q205.7 255.3 214.4 260.6 223.1 265.85 224.8 244.05 225.35 237.25 225.1 228.6 L224.8 221.25 282.7 225.9 278.4 241.25 Q272.9 259.85 267.35 276.15 249.55 328.5 237.3 338.9 225.2 349.35 195.3 369.75 L167.9 388.1 Q187.85 377.9 209.5 368.65 252.85 350.15 261.55 355.45 270.25 360.7 288.05 389.4 L304.05 417.15 Q299.55 404.9 297.35 392.45 292.95 367.5 304.45 366.05 315.95 364.7 383.15 425.2 404.35 444.2 428.25 466.9 L448.15 485.95 433.6 484.65 410.15 483.4 409.7 483.35 409.05 483.35 407.9 483.3 M-233.65 487.6 L-274.5 451.55 -261.35 427.35 -240.4 388.7 Q-234.65 385.5 -227.1 381.95 -212.0 374.95 -202.75 373.4 L-160.55 438.7 -201.55 450.05 -169.75 463.5 -233.65 487.6 M-796.65 470.9 L-867.6 445.9 -845.2 408.75 -828.85 385.8 -805.8 359.25 -804.85 358.15 -753.95 299.35 -692.65 323.65 -757.95 358.1 -717.35 389.7 -796.65 470.9 M-643.3 327.25 L-643.45 325.25 Q-644.55 307.1 -640.65 294.85 L-613.15 293.9 Q-586.0 292.15 -561.15 289.1 -488.75 280.0 -494.55 267.0 -498.75 257.65 -496.95 243.0 -494.9 225.75 -496.25 218.95 -487.95 218.7 -474.35 212.25 -460.15 205.45 -453.4 204.8 -461.4 165.25 -447.2 124.35 -444.05 115.55 -432.8 88.55 -423.05 65.2 -418.1 48.9 -407.25 12.85 -400.1 -55.3 L-394.6 -109.4 Q-391.1 -139.85 -387.1 -160.7 -379.2 -201.45 -384.2 -270.9 L-388.3 -326.5 Q-390.15 -358.25 -388.85 -381.65 -386.8 -420.05 -383.45 -438.05 L-382.7 -441.75 Q-378.25 -462.2 -367.9 -470.1 L-367.8 -470.15 -366.85 -470.7 Q-369.2 -469.1 -371.05 -467.25 L-303.5 -451.0 Q-270.85 -443.2 -264.2 -440.7 L-264.1 -440.35 Q-254.35 -408.85 -258.6 -347.75 L-262.35 -298.55 Q-264.1 -270.65 -262.85 -252.35 L-256.45 -177.0 Q-252.55 -129.05 -253.35 -103.1 L-248.75 -170.75 Q-245.9 -211.35 -242.6 -240.55 -233.65 -320.75 -215.55 -372.45 -201.55 -412.35 -189.65 -427.9 -165.6 -459.4 -133.45 -437.45 -125.4 -431.9 -121.45 -417.6 -118.75 -407.95 -116.9 -387.95 -114.7 -364.05 -113.25 -356.25 -110.2 -339.2 -103.95 -330.2 -100.4 -341.4 -93.6 -374.7 -87.65 -403.85 -81.35 -419.15 -65.3 -421.2 -47.25 -416.4 -36.15 -333.7 -31.35 -292.0 -23.0 -220.05 -21.9 -167.65 -21.5 -149.75 -16.05 -104.5 -11.3 -65.15 -12.5 -45.45 -14.15 -15.75 -28.05 0.95 -44.35 20.55 -79.85 25.9 -82.0 46.35 -90.0 74.7 L-102.3 118.5 Q-97.6 103.25 -86.0 89.75 -73.55 75.3 -55.65 65.35 -46.05 60.1 -36.05 56.8 L-39.15 88.15 -39.25 89.1 -39.35 90.1 -39.4 90.5 -39.4 90.8 -39.5 91.4 -39.55 91.85 -39.55 92.0 -39.6 92.25 -39.6 92.45 -39.65 92.85 -39.7 93.1 Q-40.5 98.65 -41.4 103.05 -42.75 109.65 -44.25 113.75 L-45.2 115.65 Q-46.4 117.85 -47.65 119.45 L-72.65 149.55 -96.15 177.7 -127.95 302.8 -136.7 309.1 Q-139.95 299.2 -140.9 289.5 -144.0 264.1 -145.35 249.55 -147.85 223.2 -145.6 206.8 -139.45 159.8 -93.1 170.85 -98.15 161.9 -107.5 152.3 -111.4 148.25 -125.0 135.75 -147.75 114.9 -153.9 98.95 -164.05 72.5 -166.0 38.05 -167.6 9.2 -163.45 -28.3 -160.3 -56.0 -150.55 -109.3 -141.05 -161.75 -138.55 -184.5 -134.8 -219.5 -138.35 -279.55 -142.4 -348.4 -141.75 -373.65 -142.65 -355.5 -151.75 -325.4 -162.3 -290.55 -164.15 -276.1 -171.8 -215.3 -177.9 -129.15 -181.4 -79.6 -187.5 18.55 -189.5 48.35 -183.0 94.95 -175.5 148.55 -175.15 170.35 -174.75 194.6 -176.7 243.55 -177.5 287.45 -172.15 316.2 -169.55 330.0 -167.35 336.8 L-167.8 337.8 -167.85 337.9 -169.15 340.5 -169.4 340.95 -170.8 343.6 -170.9 343.75 -171.05 344.0 -171.45 344.75 -171.5 344.85 -176.45 353.5 -177.1 354.6 -177.35 355.0 -177.45 355.15 -178.45 356.8 -180.25 359.8 -180.7 360.55 -186.75 355.5 Q-213.95 332.6 -219.45 306.15 -221.9 294.4 -221.2 278.15 -220.8 267.2 -218.1 244.6 -212.25 203.3 -210.8 184.45 -208.35 153.35 -213.05 124.75 -214.8 114.05 -227.05 72.7 -236.8 39.7 -236.55 19.8 -237.8 44.5 -235.85 77.1 -234.65 95.95 -231.5 133.2 -226.55 201.85 -237.2 246.85 L-242.95 270.9 Q-245.75 283.75 -247.75 296.95 -249.8 311.4 -253.25 324.45 -258.05 342.8 -263.65 349.55 -276.75 365.25 -316.3 369.35 -351.05 372.95 -376.65 366.4 -378.55 342.95 -340.1 311.0 -329.0 301.75 -308.4 287.05 -288.65 272.9 -283.2 268.25 L-321.0 281.9 Q-339.7 289.85 -354.8 302.05 -364.9 310.2 -384.95 328.05 -403.25 343.05 -418.9 349.7 -418.6 355.2 -418.6 366.05 -418.1 375.4 -415.2 381.5 L-444.8 381.25 -470.05 379.95 Q-495.6 377.0 -519.9 363.85 -529.1 358.8 -542.7 347.2 -556.65 335.2 -564.0 331.0 -573.05 325.8 -588.0 322.5 -606.35 318.5 -613.25 315.9 -612.6 320.9 -611.4 325.95 -622.65 321.55 -643.55 312.35 -643.9 319.1 -643.25 327.5 L-643.3 327.25 M-85.65 445.75 L-101.75 446.95 Q-94.4 447.75 -85.65 445.75 M-300.25 -336.1 Q-304.3 -282.9 -307.9 -211.1 L-314.3 -73.3 Q-322.55 96.05 -336.5 200.0 -348.4 199.15 -365.6 204.8 -386.05 211.7 -393.5 212.5 -400.85 243.15 -412.1 263.85 -421.8 281.5 -437.3 296.7 -445.2 304.45 -469.55 324.3 -493.4 343.6 -509.5 359.7 -470.9 351.3 -461.25 348.55 -430.8 339.85 -416.4 328.05 -408.05 321.1 -401.8 311.5 -398.2 305.8 -392.35 293.65 -386.6 281.75 -382.7 275.75 -376.25 266.0 -367.45 258.85 -359.35 252.3 -347.55 248.6 L-326.9 243.4 Q-314.85 240.45 -308.0 236.05 -298.55 230.2 -293.1 219.25 -285.45 204.1 -294.3 164.8 L-301.85 134.0 Q-306.0 117.05 -306.55 108.75 -309.35 67.05 -302.45 1.3 L-297.05 -51.45 Q-294.3 -81.75 -294.0 -105.5 -293.7 -135.55 -298.8 -226.7 -302.45 -292.95 -300.25 -336.1 M195.45 174.55 Q212.65 177.9 221.5 180.6 240.85 186.5 253.85 196.6 258.3 200.05 262.65 204.85 255.0 205.25 247.95 204.95 202.5 203.15 195.6 175.25 L195.45 174.55 M305.7 294.75 L307.0 298.4 Q312.25 313.55 316.15 323.1 L315.85 323.15 301.55 325.55 302.2 321.15 305.7 294.75 M64.15 307.5 Q55.85 262.75 62.15 250.3 53.15 267.2 55.7 306.55 57.75 338.6 64.95 364.45 70.3 383.65 87.75 413.2 106.65 445.2 111.55 458.9 109.0 440.85 95.65 412.65 81.0 381.65 77.5 366.45 65.35 313.75 64.15 307.5" fill="#ffffff" fill-opacity="0.0" fill-rule="evenodd" stroke="none"/>
    <path d="M-362.65 -473.1 L-361.8 -473.6 -359.4 -474.5 -362.65 -473.1 M-338.85 -478.6 L-335.85 -478.75 -333.6 -478.75 -339.55 -478.5 -338.85 -478.6 M-171.2 344.3 L-171.45 344.75 -171.05 344.0 -171.2 344.3" fill="#cbcbcb" fill-rule="evenodd" stroke="none"/>
    <path d="M-261.35 427.35 Q-370.0 428.45 -504.15 409.3 -558.35 401.55 -654.5 384.75 L-661.4 383.55 Q-671.7 371.25 -681.0 352.2 -655.7 355.7 -639.35 355.35 L-640.95 346.1 -643.25 327.5 Q-643.9 319.1 -643.55 312.35 -622.65 321.55 -611.4 325.95 -612.6 320.9 -613.25 315.9 -606.35 318.5 -588.0 322.5 -573.05 325.8 -564.0 331.0 -556.65 335.2 -542.7 347.2 -529.1 358.8 -519.9 363.85 -495.6 377.0 -470.05 379.95 L-444.8 381.25 -415.2 381.5 Q-418.1 375.4 -418.6 366.05 -418.6 355.2 -418.9 349.7 -403.25 343.05 -384.95 328.05 -364.9 310.2 -354.8 302.05 -339.7 289.85 -321.0 281.9 L-283.2 268.25 Q-288.65 272.9 -308.4 287.05 -329.0 301.75 -340.1 311.0 -378.55 342.95 -376.65 366.4 -351.05 372.95 -316.3 369.35 -276.75 365.25 -263.65 349.55 -258.05 342.8 -253.25 324.45 -249.8 311.4 -247.75 296.95 -245.75 283.75 -242.95 270.9 L-237.2 246.85 Q-226.55 201.85 -231.5 133.2 -234.65 95.95 -235.85 77.1 -237.8 44.5 -236.55 19.8 -236.8 39.7 -227.05 72.7 -214.8 114.05 -213.05 124.75 -208.35 153.35 -210.8 184.45 -212.25 203.3 -218.1 244.6 -220.8 267.2 -221.2 278.15 -221.9 294.4 -219.45 306.15 -213.95 332.6 -186.75 355.5 L-180.7 360.55 -180.95 361.0 -180.25 359.8 -178.45 356.8 -177.45 355.15 -177.35 355.0 -177.1 354.6 -176.45 353.5 -171.5 344.85 -171.45 344.75 -171.2 344.3 -171.05 344.0 -170.9 343.75 -170.8 343.6 -169.4 340.95 -169.15 340.5 -167.85 337.9 -167.8 337.8 -167.35 336.8 -166.2 332.45 Q-166.5 332.3 -163.5 329.5 -159.1 325.35 -150.15 318.75 L-136.7 309.1 -127.95 302.8 -96.15 177.7 -72.65 149.55 -47.65 119.45 Q-46.4 117.85 -45.2 115.65 L-44.25 113.75 Q-41.65 107.25 -39.9 94.55 L-39.65 92.85 -39.6 92.45 -39.6 92.25 -39.55 92.0 -39.55 91.85 -39.5 91.4 -39.4 90.8 -39.4 90.5 -39.35 90.1 -39.25 89.1 -39.15 88.15 -36.05 56.8 -35.7 53.1 -35.65 52.6 -35.65 52.3 -35.65 52.2 Q-33.1 24.6 -29.5 11.35 L-29.35 10.85 -28.6 8.25 Q-30.1 13.45 -31.5 21.8 -33.4 39.5 -33.15 50.25 -32.95 66.65 -28.45 82.25 -22.95 101.5 -20.7 120.75 -19.1 134.25 -18.25 160.05 -19.1 154.0 -24.15 145.75 -26.95 141.1 -32.85 132.55 -52.6 139.7 -64.1 156.2 -76.7 174.3 -68.8 190.45 -57.0 196.75 -59.4 226.15 -60.2 235.9 -62.65 249.8 L-66.2 268.6 Q-69.35 257.15 -70.8 239.0 -72.25 220.7 -70.95 208.1 -76.25 205.05 -82.15 204.65 -83.45 214.65 -88.05 243.25 -92.0 267.15 -93.35 281.2 -94.6 295.05 -89.9 316.05 L-83.3 345.2 Q-85.35 337.05 -87.6 331.3 -92.0 320.05 -98.45 313.1 -115.95 331.05 -123.25 342.2 -134.65 359.5 -135.55 377.35 -138.35 367.75 -138.95 357.2 -139.75 344.75 -136.8 336.35 -148.8 335.45 -157.1 343.6 -163.75 350.15 -169.2 364.0 L-177.55 389.4 -178.2 391.35 -180.2 388.35 Q-186.0 381.15 -191.0 377.4 L-189.55 375.0 -189.45 374.85 -189.3 374.65 -189.45 374.85 -189.55 375.0 -191.0 377.4 Q-197.5 372.55 -202.75 373.4 -212.0 374.95 -227.1 381.95 -234.65 385.5 -240.4 388.7 L-261.35 427.35 M53.55 12.7 Q68.95 50.65 68.65 116.05 68.45 158.85 62.95 193.95 72.4 201.05 82.7 209.6 103.15 226.8 107.15 233.9 111.15 241.0 109.15 312.85 108.1 348.8 106.25 383.25 L98.05 320.6 87.9 246.9 Q86.35 237.65 64.55 225.05 53.7 218.7 43.15 214.25 45.2 187.95 48.1 157.2 53.85 95.75 57.9 73.3 62.0 50.8 52.65 19.1 49.7 9.2 45.85 -0.5 L42.5 -8.15 53.55 12.7 M-40.95 338.45 Q-32.7 354.1 -16.15 362.45 -9.05 366.05 5.5 371.0 21.5 376.45 28.6 379.65 48.0 388.35 68.45 408.75 88.3 430.25 100.6 442.15 74.95 418.5 59.35 408.6 28.6 389.0 7.5 397.25 -0.25 400.25 -14.3 414.4 -28.95 429.3 -36.95 433.05 -50.1 439.35 -68.8 443.0 -77.2 444.7 -85.65 445.75 -79.2 444.15 -72.0 441.0 L-58.1 434.55 Q-49.8 430.8 -43.8 429.1 -44.5 427.75 -46.7 418.4 -48.35 411.15 -52.65 407.15 -46.6 402.2 -34.6 396.6 -19.85 389.8 -15.65 387.25 -27.8 376.95 -35.55 358.5 -38.25 352.1 -41.95 339.7 L-45.7 326.6 Q-43.8 332.95 -40.95 338.45 M-36.7 64.6 L-37.25 70.1 -38.15 79.7 -38.05 78.8 -36.7 64.6 M-166.95 336.0 L-167.0 336.1 -167.05 336.25 -166.95 336.0 M-188.85 373.95 L-180.95 361.0 -188.85 373.95 -189.0 374.1 -189.1 374.35 -189.25 374.5 -189.3 374.65 -189.1 374.35 -188.85 373.95 M64.15 307.5 Q65.35 313.75 77.5 366.45 81.0 381.65 95.65 412.65 109.0 440.85 111.55 458.9 106.65 445.2 87.75 413.2 70.3 383.65 64.95 364.45 57.75 338.6 55.7 306.55 53.15 267.2 62.15 250.3 55.85 262.75 64.15 307.5" fill="#000000" fill-opacity="0.2" fill-rule="evenodd" stroke="none"/>
    <path d="M663.4 472.0 L664.05 472.65 663.35 472.0 663.4 472.0 M409.7 483.35 L409.4 483.35 409.05 483.35 409.7 483.35" fill="#cdcdcd" fill-rule="evenodd" stroke="none"/>
    <path d="M448.0 485.65 L448.15 485.95 410.15 483.4 433.6 484.65 448.15 485.95 447.65 485.15 448.0 485.65 M-180.25 359.8 L-180.95 361.0 -180.7 360.55 -180.25 359.8" fill="#d3d3d3" fill-rule="evenodd" stroke="none"/>
    <path d="M-805.8 359.25 L-806.6 359.1 -804.85 358.15 -805.8 359.25 M-44.25 113.75 Q-42.75 109.65 -41.4 103.05 -40.5 98.65 -39.7 93.1 L-39.65 92.85 -39.9 94.55 Q-41.65 107.25 -44.25 113.75 M-166.95 336.0 L-167.05 336.25 -167.0 336.1 -166.95 336.0 M-188.85 373.95 L-189.1 374.35 -189.3 374.65 -189.25 374.5 -189.1 374.35 -189.0 374.1 -188.85 373.95" fill="#9e9e9e" fill-rule="evenodd" stroke="none"/>
    <path d="M-282.05 -479.8 L-281.7 -479.8 -264.1 -481.2 Q-247.7 -483.4 -225.75 -488.75 -187.15 -498.25 -170.4 -499.75 -124.75 -503.75 -65.6 -490.95 -20.95 -481.2 36.25 -460.6 33.65 -412.35 42.5 -336.5 L49.6 -275.35 Q53.3 -240.05 54.15 -212.5 55.05 -184.9 60.5 -148.15 67.25 -102.2 78.3 -66.4 108.9 32.5 159.0 15.4 L164.25 40.8 M164.5 40.8 L180.85 39.25 183.9 87.1 185.7 88.7 Q193.85 95.55 211.45 105.95 227.25 115.25 266.35 127.45 309.3 140.15 324.9 145.7 341.95 151.65 387.95 149.75 410.95 148.8 419.35 148.95 434.6 149.35 441.15 152.7 455.7 160.2 472.1 194.2 481.05 212.65 494.0 244.55 511.6 282.5 524.85 302.85 539.15 324.75 555.75 337.85 571.35 350.1 596.3 360.0 613.6 366.85 656.15 379.8 676.45 386.05 710.25 392.9 L767.7 404.45 Q836.8 419.45 867.65 442.15 L809.8 444.0 751.85 448.6 700.1 450.75 Q671.6 450.75 649.1 447.85 L648.15 447.75 M663.4 472.0 L664.05 472.65 665.9 473.95 Q672.35 477.4 650.95 482.6 L646.1 483.7 628.15 487.05 500.25 488.75 448.0 485.65 M407.9 483.3 L400.1 483.1 399.15 483.05 Q345.75 482.1 324.2 491.7 302.6 501.35 266.0 490.15 247.7 484.65 233.75 477.15 L131.75 481.85 Q23.0 486.0 -10.95 483.3 -40.3 481.0 -117.55 469.5 L-114.35 500.65 -233.65 487.6 -274.5 451.55 -261.35 427.35 Q-370.0 428.45 -504.15 409.3 -558.35 401.55 -654.5 384.75 L-661.4 383.55 Q-655.75 390.35 -649.75 395.1 -632.6 408.6 -615.15 434.25 L-601.2 457.25 -660.2 467.15 -660.3 467.15 -672.7 464.1 -688.2 460.8 -702.1 458.35 Q-747.65 451.1 -766.5 458.7 L-796.65 470.9 -867.6 445.9 -845.2 408.75 -828.85 385.8 -805.8 359.25 M-804.85 358.15 L-753.95 299.35 -692.65 323.65 -689.8 331.8 -687.3 338.1 Q-684.6 344.8 -681.5 351.2 L-681.0 352.2 Q-655.7 355.7 -639.35 355.35 M-640.95 346.1 Q-642.7 335.3 -643.3 327.25 M-643.45 325.25 Q-644.55 307.1 -640.65 294.85 L-613.15 293.9 Q-586.0 292.15 -561.15 289.1 -488.75 280.0 -494.55 267.0 -498.75 257.65 -496.95 243.0 -494.9 225.75 -496.25 218.95 -487.95 218.7 -474.35 212.25 -460.15 205.45 -453.4 204.8 -461.4 165.25 -447.2 124.35 -444.05 115.55 -432.8 88.55 -423.05 65.2 -418.1 48.9 -407.25 12.85 -400.1 -55.3 L-394.6 -109.4 Q-391.1 -139.85 -387.1 -160.7 -379.2 -201.45 -384.2 -270.9 L-388.3 -326.5 Q-390.15 -358.25 -388.85 -381.65 -386.8 -420.05 -383.45 -438.05 L-382.7 -441.75 Q-378.25 -462.2 -367.9 -470.1 L-367.8 -470.15 -366.85 -470.7 Q-364.95 -472.0 -362.65 -473.1 L-361.8 -473.6 Q-356.05 -476.15 -347.7 -477.5 L-339.95 -478.5 -338.85 -478.6 -335.85 -478.75 -331.45 -478.85 -294.0 -479.6 -290.75 -479.7 -290.25 -479.7 -289.75 -479.7 -289.5 -479.7 -289.25 -479.7 -289.2 -479.7 -283.45 -479.75 -282.05 -479.8 -282.6 -479.75 -283.45 -479.75 M-117.7 468.15 L-117.55 469.5 M-294.0 -479.6 L-289.5 -479.7 M-335.85 -478.75 L-333.6 -478.75 -331.45 -478.85 M-338.85 -478.6 L-339.55 -478.5 -339.95 -478.5 M663.35 472.0 L664.05 472.65 M646.1 443.75 L647.35 446.25 648.1 447.75 Q657.6 466.3 663.35 472.0 M448.15 485.95 L433.6 484.65 410.15 483.4" fill="none" stroke="#000000" stroke-linecap="round" stroke-linejoin="miter-clip" stroke-miterlimit="4.0" stroke-width="1.0"/>
    <path d="M448.15 485.95 L410.15 483.4 409.4 483.35 407.9 483.3 M-805.8 359.25 L-806.6 359.1 -804.85 358.15 -805.8 359.25 M-639.35 355.35 L-640.95 346.1 -643.25 327.5 -643.3 327.25 -643.45 325.25 M53.55 12.7 L42.5 -8.15 23.1 -10.65 Q0.45 -12.4 -15.75 -9.1 -22.95 -7.65 -27.55 5.05 L-28.6 8.25 -29.35 10.85 -29.5 11.35 Q-33.1 24.6 -35.65 52.2 L-35.65 52.3 -35.65 52.6 -35.7 53.1 -36.05 56.8 -39.15 88.15 -39.25 89.1 -39.35 90.1 -39.4 90.5 -39.4 90.8 -39.5 91.4 -39.55 91.85 -39.55 92.0 -39.6 92.25 -39.6 92.45 -39.65 92.85 -39.9 94.55 Q-41.65 107.25 -44.25 113.75 L-45.2 115.65 Q-46.4 117.85 -47.65 119.45 L-72.65 149.55 -96.15 177.7 -127.95 302.8 -136.7 309.1 -150.15 318.75 Q-159.1 325.35 -163.5 329.5 -166.5 332.3 -166.2 332.45 L-167.35 336.8 -167.8 337.8 -167.85 337.9 -169.15 340.5 -169.4 340.95 -170.8 343.6 -170.9 343.75 -171.05 344.0 -171.45 344.75 -171.5 344.85 -176.45 353.5 -177.1 354.6 -177.35 355.0 -177.45 355.15 -178.45 356.8 -180.25 359.8 -180.95 361.0 -188.85 373.95 -189.1 374.35 -189.3 374.65 -189.45 374.85 -189.55 375.0 -191.0 377.4 Q-186.0 381.15 -180.2 388.35 L-178.2 391.35 -168.8 405.25 -140.05 436.65 -120.85 457.65 -118.5 460.3 -118.45 460.8 -118.35 461.4 -118.35 461.55 -117.7 468.15 M-171.2 344.3 L-171.45 344.75 M-261.35 427.35 L-240.4 388.7 Q-234.65 385.5 -227.1 381.95 -212.0 374.95 -202.75 373.4 -197.5 372.55 -191.0 377.4 M-189.3 374.65 L-189.25 374.5 -189.1 374.35 -189.0 374.1 -188.85 373.95 M-681.0 352.2 Q-671.7 371.25 -661.4 383.55 M455.15 425.05 L422.55 444.45 447.65 485.15 448.15 485.95 M619.1 422.95 L634.15 417.55 Q639.5 430.25 646.05 443.65 L646.1 443.75 M324.55 321.7 L344.7 318.3 422.55 444.45 M183.9 87.1 L184.1 90.55 Q188.7 146.65 195.45 174.55 L195.6 175.25 Q202.5 203.15 247.95 204.95 255.0 205.25 262.65 204.85 L278.5 203.35 292.0 201.15 300.75 227.75 Q309.5 256.65 308.6 268.0 L308.6 268.3 308.6 268.45 308.55 268.75 308.55 269.05 308.5 269.5 307.45 279.95 305.7 294.7 305.7 294.75 302.2 321.15 301.55 325.55 315.85 323.15 M316.15 323.1 L324.55 321.7 M97.8 34.95 Q82.4 30.85 72.55 31.55 66.65 32.05 64.65 33.7 L53.55 12.7 M97.8 34.95 L99.45 35.4 104.5 36.85 Q124.55 43.0 154.7 41.7 L164.25 40.8 M308.6 268.3 L308.5 269.5 M455.15 425.05 L494.95 428.8 539.6 419.3 Q558.2 428.7 576.8 438.05 L619.1 422.95 M409.7 483.35 L409.4 483.35 409.05 483.35" fill="none" stroke="#000000" stroke-linecap="round" stroke-linejoin="miter-clip" stroke-miterlimit="4.0" stroke-opacity="0.6" stroke-width="1.0"/>
  </g>
</svg>
