<?xml version="1.0" encoding="UTF-8" standalone="no"?>
<svg xmlns:xlink="http://www.w3.org/1999/xlink" height="137.6px" width="1774.3px" xmlns="http://www.w3.org/2000/svg">
  <g transform="matrix(1.0, 0.0, 0.0, 1.0, 887.15, 68.8)">
    <path d="M-178.55 -40.45 L-178.85 -39.3 -178.7 -39.95 -178.55 -40.45" fill="#fdfdfd" fill-rule="evenodd" stroke="none"/>
    <path d="M-199.2 36.6 L-886.65 36.6 -886.65 -68.3 886.65 -68.3 886.65 -39.95 886.65 5.4 886.65 36.6 137.6 36.6 132.3 17.0 135.35 17.0 132.3 17.0 129.15 5.4 116.9 -39.95 109.45 -67.6 -171.3 -67.6 -178.55 -40.45 -178.7 -39.95 -178.85 -39.3 -190.85 5.4 -193.95 17.0 -199.2 36.6 M-884.2 5.4 L-190.85 5.4 -884.2 5.4 M886.65 -39.95 L116.9 -39.95 886.65 -39.95 M-178.7 -39.95 L-884.2 -39.95 -178.7 -39.95 M886.65 5.4 L129.15 5.4 886.65 5.4" fill="#000000" fill-opacity="0.34901962" fill-rule="evenodd" stroke="none"/>
    <path d="M137.6 36.6 L146.15 68.3 -207.7 68.3 -199.2 36.6 -193.95 17.0 -190.85 5.4 -178.85 -39.3 -178.55 -40.45 -171.3 -67.6 109.45 -67.6 116.9 -39.95 129.15 5.4 132.3 17.0 137.6 36.6 M119.15 -28.95 L-180.65 -28.95 119.15 -28.95 M-193.95 17.0 L132.3 17.0 -193.95 17.0" fill="#ffffff" fill-opacity="0.0" fill-rule="evenodd" stroke="none"/>
    <path d="M-199.2 36.6 L-886.65 36.6 -886.65 -68.3 886.65 -68.3 886.65 -39.95 886.65 5.4 886.65 36.6 137.6 36.6 146.15 68.3 -207.7 68.3 -199.2 36.6 -193.95 17.0 -190.85 5.4 -178.85 -39.3 -178.55 -40.45 -171.3 -67.6 M109.45 -67.6 L116.9 -39.95 129.15 5.4 132.3 17.0 135.35 17.0 M137.6 36.6 L132.3 17.0" fill="none" stroke="#000000" stroke-linecap="round" stroke-linejoin="miter-clip" stroke-miterlimit="4.0" stroke-width="1.0"/>
    <path d="M-190.85 5.4 L-884.2 5.4 M-171.3 -67.6 L109.45 -67.6 M116.9 -39.95 L886.65 -39.95 M-180.65 -28.95 L119.15 -28.95 M-884.2 -39.95 L-178.7 -39.95 M132.3 17.0 L-193.95 17.0 M129.15 5.4 L886.65 5.4" fill="none" stroke="#000000" stroke-linecap="round" stroke-linejoin="miter-clip" stroke-miterlimit="4.0" stroke-opacity="0.6" stroke-width="1.0"/>
  </g>
</svg>
