<?xml version="1.0" encoding="UTF-8" standalone="no"?>
<svg xmlns:xlink="http://www.w3.org/1999/xlink" height="238.5px" width="456.3px" xmlns="http://www.w3.org/2000/svg">
  <g transform="matrix(1.0, 0.0, 0.0, 1.0, 227.1, 119.25)">
    <path d="M-184.0 -31.05 L-200.65 -31.1 -200.2 -90.05 Q-200.2 -96.0 -184.6 -101.4 -169.55 -106.6 -142.0 -110.55 -83.75 -118.95 -0.75 -118.75 78.05 -118.55 135.65 -110.65 191.15 -103.0 198.7 -92.15 L199.15 -91.45 199.3 -91.45 199.3 -91.25 Q199.85 -90.15 199.85 -89.15 199.85 -88.1 199.3 -87.0 L199.15 -30.15 180.75 -30.2 167.85 -30.2 -171.1 -31.0 -184.0 -31.05 M180.7 -22.85 L199.15 -22.8 199.1 -2.55 180.65 -2.6 167.75 -2.6 -171.2 -3.35 -184.1 -3.4 -200.7 -3.45 -200.65 -23.7 -184.05 -23.65 -171.15 -23.6 167.8 -22.85 180.7 -22.85 M180.65 4.8 L199.05 4.85 199.05 20.05 -200.7 19.1 -200.7 3.9 -184.1 3.95 -171.2 4.0 167.75 4.8 180.65 4.8" fill="#ffffff" fill-opacity="0.0" fill-rule="evenodd" stroke="none"/>
    <path d="M-184.0 -31.05 L-171.1 -31.0 -171.15 -23.6 -184.05 -23.65 -184.0 -31.05 M167.85 -30.2 L180.75 -30.2 180.7 -22.85 167.8 -22.85 167.85 -30.2 M180.65 -2.6 L180.65 4.8 167.75 4.8 167.75 -2.6 180.65 -2.6 M199.05 20.05 L226.65 20.1 226.65 33.05 -226.55 32.0 -226.55 19.0 -200.7 19.1 199.05 20.05 M-184.1 3.95 L-184.1 -3.4 -171.2 -3.35 -171.2 4.0 -184.1 3.95 M186.1 49.6 L186.1 49.65 176.35 49.6 170.1 49.6 -173.15 48.8 -178.2 48.8 -179.35 48.75 -179.35 48.8 -179.5 117.25 -189.25 117.25 -189.15 48.75 -190.95 48.75 -197.1 48.75 -199.55 48.7 -199.55 48.75 -199.75 117.8 -213.25 117.75 -213.1 48.7 -226.6 48.65 -226.55 32.05 226.65 33.1 226.6 49.7 210.45 49.7 209.4 49.65 209.4 49.7 209.25 118.75 195.75 118.7 195.9 49.65 189.75 49.65 187.3 49.6 186.1 49.6 M176.2 118.1 L176.35 49.6 186.1 49.65 185.95 118.1 176.2 118.1 M195.9 49.65 L209.4 49.7 195.9 49.65 M-213.1 48.7 L-199.55 48.75 -213.1 48.7 M-189.15 48.75 L-179.35 48.8 -189.15 48.75" fill="#000000" fill-opacity="0.2" fill-rule="evenodd" stroke="none"/>
    <path d="M187.3 49.65 L187.3 49.6 189.75 49.65 187.3 49.65 M-178.2 48.8 L-179.35 48.8 -179.35 48.75 -178.2 48.8 M-197.1 48.75 L-199.55 48.75 -199.55 48.7 -197.1 48.75" fill="#dedede" fill-rule="evenodd" stroke="none"/>
    <path d="M180.75 -30.2 L199.15 -30.15 199.3 -87.0 Q199.85 -88.1 199.85 -89.15 199.85 -90.15 199.3 -91.25 L199.3 -91.45 199.15 -91.45 198.7 -92.15 Q191.15 -103.0 135.65 -110.65 78.05 -118.55 -0.75 -118.75 -83.75 -118.95 -142.0 -110.55 -169.55 -106.6 -184.6 -101.4 -200.2 -96.0 -200.2 -90.05 L-200.65 -31.1 -184.0 -31.05 -184.05 -23.65 -200.65 -23.7 -200.7 -3.45 -184.1 -3.4 -184.1 3.95 -200.7 3.9 -200.7 19.1 -226.55 19.0 -226.55 32.0 M-171.1 -31.0 L167.85 -30.2 167.8 -22.85 -171.15 -23.6 -171.1 -31.0 M180.75 -30.2 L180.7 -22.85 199.15 -22.8 199.1 -2.55 180.65 -2.6 180.65 4.8 199.05 4.85 199.05 20.05 226.65 20.1 226.65 33.05 M186.1 49.65 L187.3 49.65 M170.1 49.6 L-173.15 48.8 M-179.5 117.25 L-189.25 117.25 -189.15 48.75 -190.95 48.75 M-199.75 117.8 L-213.25 117.75 -213.1 48.7 -226.6 48.65 -226.55 32.05 M226.65 33.1 L226.6 49.7 210.45 49.7 M209.4 49.7 L209.25 118.75 195.75 118.7 M186.1 49.65 L185.95 118.1 176.2 118.1 M167.75 -2.6 L167.75 4.8 -171.2 4.0 -171.2 -3.35 167.75 -2.6" fill="none" stroke="#000000" stroke-linecap="round" stroke-linejoin="miter-clip" stroke-miterlimit="4.0" stroke-width="1.0"/>
    <path d="M-184.0 -31.05 L-171.1 -31.0 M167.85 -30.2 L180.75 -30.2 M226.65 33.05 L-226.55 32.0 M167.75 -2.6 L180.65 -2.6 M180.7 -22.85 L167.8 -22.85 M-171.15 -23.6 L-184.05 -23.65 M167.75 4.8 L180.65 4.8 M186.1 49.6 L186.1 49.65 176.35 49.6 170.1 49.6 M187.3 49.65 L187.3 49.6 M195.75 118.7 L195.9 49.65 189.75 49.65 187.3 49.65 M176.2 118.1 L176.35 49.6 M-173.15 48.8 L-178.2 48.8 -179.35 48.8 -179.5 117.25 M-190.95 48.75 L-197.1 48.75 -199.55 48.75 -199.75 117.8 M-226.55 32.05 L226.65 33.1 M210.45 49.7 L209.4 49.7 195.9 49.65 M209.4 49.65 L209.4 49.7 M-171.2 4.0 L-184.1 3.95 M-184.1 -3.4 L-171.2 -3.35 M-199.55 48.7 L-199.55 48.75 -213.1 48.7 M-179.35 48.75 L-179.35 48.8 -189.15 48.75 M-200.7 19.1 L199.05 20.05" fill="none" stroke="#000000" stroke-linecap="round" stroke-linejoin="miter-clip" stroke-miterlimit="4.0" stroke-opacity="0.6" stroke-width="1.0"/>
  </g>
</svg>
