<?xml version="1.0" encoding="UTF-8" standalone="no"?>
<svg xmlns:xlink="http://www.w3.org/1999/xlink" height="13.65px" width="43.65px" xmlns="http://www.w3.org/2000/svg">
  <g transform="matrix(1.0, 0.0, 0.0, 1.0, 0.0, 0.0)">
    <path d="M43.0 12.1 Q42.5 11.75 42.1 12.3 41.7 12.85 42.2 13.15 42.7 13.5 43.05 12.95 43.45 12.4 43.0 12.1 M43.1 11.65 L43.6 12.25 43.5 13.05 42.85 13.6 42.05 13.6 41.6 13.0 Q41.5 12.6 41.7 12.2 41.95 11.8 42.35 11.65 42.75 11.45 43.1 11.65 M41.15 11.05 L40.75 10.85 Q40.95 10.6 40.55 10.3 40.25 10.05 40.05 10.3 L40.5 10.95 Q41.0 11.45 40.75 11.8 L39.5 11.75 Q38.65 11.2 39.1 10.7 L39.5 11.0 Q39.25 11.2 39.75 11.5 L40.25 11.55 39.85 10.9 Q39.35 10.4 39.6 10.05 L40.9 10.1 Q41.5 10.7 41.15 11.05 M30.65 5.7 L30.95 5.85 30.5 6.85 30.2 6.7 30.35 6.45 30.3 6.45 29.5 6.4 Q28.65 6.0 29.1 5.0 L29.75 4.45 30.55 4.5 Q31.15 4.85 31.05 5.45 L30.95 5.4 30.65 5.3 30.4 4.9 Q29.9 4.6 29.55 5.15 29.15 5.7 29.65 6.0 L30.35 5.95 30.0 5.8 30.15 5.5 30.65 5.75 30.65 5.7 M35.05 7.05 L34.8 7.45 35.9 8.05 35.75 8.35 34.6 7.75 34.35 8.25 35.75 9.0 35.55 9.35 33.8 8.4 34.9 6.55 36.6 7.45 36.35 7.8 35.05 7.05 M33.5 5.65 L33.85 6.0 33.75 6.6 33.3 6.9 33.35 7.25 33.2 7.85 32.8 7.7 32.9 7.5 32.9 6.9 32.75 6.8 32.05 6.6 31.8 7.35 31.4 7.2 32.2 5.2 33.5 5.65 M33.25 6.0 L33.05 5.9 32.4 5.7 32.2 6.2 32.85 6.45 33.2 6.5 33.4 6.35 33.4 6.15 33.25 6.0 M38.1 8.75 Q37.75 8.5 37.6 8.75 37.55 8.85 38.05 9.35 38.6 9.9 38.35 10.25 L37.1 10.3 Q36.3 9.75 36.65 9.2 L37.05 9.45 Q36.9 9.75 37.35 10.0 L37.9 10.05 37.45 9.4 Q36.9 8.85 37.15 8.5 37.5 7.95 38.4 8.5 39.15 8.95 38.75 9.5 L38.35 9.25 Q38.5 8.95 38.1 8.75 M1.0 0.85 Q0.45 0.85 0.45 1.5 0.45 2.15 1.0 2.15 1.55 2.15 1.55 1.5 1.55 0.85 1.0 0.85 M1.6 0.65 L2.0 1.35 Q2.1 1.8 1.8 2.15 1.55 2.5 1.15 2.55 0.75 2.6 0.4 2.3 0.05 2.05 0.0 1.6 -0.05 1.15 0.2 0.8 L0.85 0.4 Q1.25 0.35 1.6 0.65 M4.25 1.45 L4.05 1.5 3.35 1.55 3.4 2.35 3.0 2.35 2.85 0.2 4.25 0.1 Q4.45 0.1 4.7 0.35 L4.9 0.9 4.6 1.35 4.8 1.65 4.9 2.25 4.5 2.25 4.5 2.05 4.25 1.45 M4.15 0.5 L3.95 0.55 3.25 0.6 3.3 1.15 4.0 1.1 4.35 1.0 4.45 0.8 4.35 0.6 4.15 0.5 M7.45 0.8 Q7.2 0.4 6.9 0.4 L6.2 0.4 6.25 1.8 6.75 1.8 7.25 1.6 7.45 1.2 7.45 0.8 M7.85 1.1 L7.65 1.8 Q7.4 2.15 6.95 2.15 L5.85 2.2 5.8 0.05 6.9 0.0 7.2 0.05 7.65 0.4 7.85 1.1 M10.4 0.9 L10.4 1.25 9.1 1.2 9.1 1.75 10.75 1.85 10.7 2.25 8.7 2.15 8.75 0.0 10.7 0.05 10.7 0.45 9.15 0.4 9.15 0.85 10.4 0.9 M13.2 0.25 L13.75 0.3 13.6 2.45 13.2 2.4 13.35 0.95 12.75 2.35 12.4 2.35 12.1 0.85 11.95 2.3 11.55 2.25 11.75 0.15 12.3 0.2 12.65 1.7 13.2 0.25 M17.95 2.7 L17.9 3.0 16.25 2.8 16.55 0.85 18.2 1.15 18.15 1.5 16.9 1.3 16.8 1.65 17.85 1.8 17.8 2.15 16.75 2.0 16.65 2.5 17.95 2.7 M21.95 3.05 L21.8 3.0 21.15 2.9 20.95 3.6 20.55 3.5 21.1 1.45 22.4 1.8 22.75 2.15 Q22.95 2.35 22.75 2.7 L22.35 3.0 21.95 3.05 M21.35 1.95 L21.25 2.5 22.2 2.7 22.4 2.5 22.35 2.3 22.2 2.15 21.35 1.95 M25.15 2.95 L25.0 2.85 24.1 2.65 23.95 3.15 25.0 3.35 25.15 3.15 25.15 2.95 M25.55 2.85 L25.55 3.4 25.1 3.75 25.2 4.1 25.1 4.7 24.7 4.6 24.75 4.35 24.75 3.75 23.85 3.5 23.65 4.3 23.25 4.2 23.85 2.15 25.2 2.5 25.55 2.85 M26.55 5.1 Q26.3 4.75 26.35 4.3 L26.75 3.6 Q27.1 3.3 27.5 3.35 27.9 3.45 28.15 3.8 28.45 4.15 28.35 4.55 L27.95 5.3 Q27.6 5.6 27.2 5.5 26.8 5.45 26.55 5.1 M27.5 3.8 Q27.0 3.65 26.8 4.3 26.6 4.95 27.15 5.05 27.7 5.2 27.9 4.6 28.05 3.95 27.5 3.8" fill="#ffffff" fill-opacity="0.0" fill-rule="evenodd" stroke="none"/>
  </g>
</svg>
