<?xml version="1.0" encoding="UTF-8" standalone="no"?>
<svg xmlns:xlink="http://www.w3.org/1999/xlink" height="175.3px" width="173.8px" xmlns="http://www.w3.org/2000/svg">
  <g transform="matrix(1.0, 0.0, 0.0, 1.0, 85.85, 157.3)">
    <path d="M-85.35 -30.35 L14.85 -157.1 10.15 -157.3 87.15 -157.3 87.45 -41.7 86.8 -41.7 42.0 17.5 28.75 17.5 Q30.9 12.35 30.9 6.55 30.9 -5.65 22.3 -14.25 19.75 -16.8 16.9 -18.55 10.1 -22.85 1.5 -22.85 -9.85 -22.85 -18.1 -15.4 L-19.3 -14.25 Q-27.95 -5.65 -27.95 6.55 -27.95 12.35 -25.8 17.5 L-85.35 17.5 -85.35 -30.35 M-3.3 -157.3 L-85.35 -60.15 -85.35 -81.7 -25.65 -157.3 -3.3 -157.3 M17.75 -22.85 Q21.65 -20.2 24.8 -16.9 34.9 -6.3 33.7 7.15 35.35 0.9 33.75 -6.2 30.8 -19.35 16.9 -24.05 L14.45 -24.8 17.75 -22.85 M-33.1 -157.3 L-85.35 -95.4 -85.35 -157.3 -33.1 -157.3 M52.4 17.5 L87.45 -33.35 87.45 17.5 52.4 17.5" fill="#ffffff" fill-opacity="0.09803922" fill-rule="evenodd" stroke="none"/>
    <path d="M10.15 -157.3 L14.85 -157.1 -85.35 -30.35 -85.35 -60.15 -3.3 -157.3 10.15 -157.3 M42.0 17.5 L86.8 -41.7 87.45 -41.7 87.45 -33.35 52.4 17.5 42.0 17.5 M17.75 -22.85 L14.45 -24.8 16.9 -24.05 Q30.8 -19.35 33.75 -6.2 35.35 0.9 33.7 7.15 34.9 -6.3 24.8 -16.9 21.65 -20.2 17.75 -22.85 M-25.65 -157.3 L-85.35 -81.7 -85.35 -95.4 -33.1 -157.3 -25.65 -157.3" fill="#ffffff" fill-opacity="0.29803923" fill-rule="evenodd" stroke="none"/>
    <path d="M-85.35 17.5 L-25.8 17.5 Q-27.95 12.35 -27.95 6.55 -27.95 -5.65 -19.3 -14.25 L-18.1 -15.4 Q-9.85 -22.85 1.5 -22.85 10.1 -22.85 16.9 -18.55 19.75 -16.8 22.3 -14.25 30.9 -5.65 30.9 6.55 30.9 12.35 28.75 17.5 L42.0 17.5 52.4 17.5 87.45 17.5" fill="none" stroke="#000000" stroke-linecap="round" stroke-linejoin="miter-clip" stroke-miterlimit="4.0" stroke-opacity="0.4" stroke-width="1.0"/>
  </g>
</svg>
