<?xml version="1.0" encoding="UTF-8" standalone="no"?>
<svg xmlns:xlink="http://www.w3.org/1999/xlink" height="60.35px" width="30.2px" xmlns="http://www.w3.org/2000/svg">
  <g transform="matrix(1.0, 0.0, 0.0, 1.0, 14.2, 30.15)">
    <path d="M6.0 -25.7 L8.6 -28.35 Q9.9 -29.65 10.5 -29.65 11.5 -29.65 10.95 -29.55 12.0 -28.55 13.25 -24.85 L11.4 -24.05 9.75 -24.0 9.0 -24.05 7.75 -24.5 Q6.8 -25.05 6.0 -25.7 6.8 -25.05 7.75 -24.5 L9.0 -24.05 9.75 -24.0 11.4 -24.05 13.25 -24.85 14.5 -21.2 15.2 -18.0 15.5 -14.3 15.4 -10.25 14.85 -6.45 13.8 -2.2 12.5 1.6 10.95 5.15 9.0 9.05 7.4 11.9 5.95 14.35 3.1 18.55 0.35 22.3 -2.35 25.5 -4.5 27.75 -6.95 28.8 -9.05 29.35 -9.1 29.35 -7.85 27.7 -7.3 27.75 -9.05 29.35 -7.3 27.75 -7.85 27.7 -9.1 29.35 -9.6 29.2 -11.25 27.8 -12.55 26.45 Q-12.95 25.5 -13.35 22.8 L-13.7 18.15 -13.65 14.05 -13.15 9.45 -10.95 1.5 -9.95 -2.0 -8.45 -5.45 -6.65 -8.95 -4.8 -12.0 -2.8 -15.1 -0.45 -18.3 1.8 -20.95 3.85 -23.4 6.0 -25.7 M0.35 22.3 L-2.1 22.15 -5.0 25.45 -6.25 25.3 -7.85 27.7 -9.25 27.5 -8.6 24.85 -7.5 21.1 -4.15 21.9 -6.25 25.3 -8.6 24.85 -6.25 25.3 -4.15 21.9 -2.25 18.45 0.55 18.65 -2.1 22.15 -4.15 21.9 -2.1 22.15 0.55 18.65 -2.25 18.45 -6.4 17.6 -5.05 13.4 -10.0 11.45 -9.2 7.45 -11.85 5.6 -9.2 7.45 -8.2 3.85 Q-5.25 5.7 -2.85 6.7 L-1.65 3.05 3.5 4.55 2.3 8.05 1.0 11.4 -3.95 10.05 -2.85 6.7 2.3 8.05 6.25 8.35 7.6 4.9 10.95 5.15 7.6 4.9 6.25 8.35 2.3 8.05 -2.85 6.7 -3.95 10.05 1.0 11.4 2.3 8.05 3.5 4.55 -1.65 3.05 -2.85 6.7 Q-5.25 5.7 -8.2 3.85 L-9.2 7.45 Q-6.2 9.15 -3.95 10.05 L-5.05 13.4 -0.25 14.35 1.0 11.4 4.65 11.75 6.25 8.35 9.0 9.05 6.25 8.35 4.65 11.75 1.0 11.4 -0.25 14.35 -5.05 13.4 -3.95 10.05 Q-6.2 9.15 -9.2 7.45 L-10.0 11.45 -5.05 13.4 -6.4 17.6 -2.25 18.45 -0.25 14.35 3.15 14.5 4.65 11.75 7.4 11.9 4.65 11.75 3.15 14.5 -0.25 14.35 -2.25 18.45 -4.15 21.9 -7.5 21.1 -8.6 24.85 -9.25 27.5 -7.85 27.7 -6.25 25.3 -5.0 25.45 -2.1 22.15 0.35 22.3 M-4.5 27.75 L-7.3 27.75 -5.0 25.45 -2.35 25.5 -5.0 25.45 -7.3 27.75 -4.5 27.75 M-10.55 15.95 L-6.4 17.6 -7.5 21.1 -10.7 19.85 -10.55 15.95 -13.65 14.05 -10.55 15.95 -10.0 11.45 -13.15 9.45 -10.0 11.45 -10.55 15.95 -10.7 19.85 -7.5 21.1 -6.4 17.6 -10.55 15.95 M-13.7 18.15 L-10.7 19.85 -10.55 24.25 -13.35 22.8 -10.55 24.25 -10.7 19.85 -13.7 18.15 M-10.95 1.5 L-8.2 3.85 -7.0 0.2 -9.95 -2.0 -7.0 0.2 -5.5 -3.45 -8.45 -5.45 -5.5 -3.45 -7.0 0.2 -1.65 3.05 -0.35 -0.8 Q-3.4 -2.2 -5.5 -3.45 L-3.8 -7.1 -6.65 -8.95 -3.8 -7.1 -5.5 -3.45 Q-3.4 -2.2 -0.35 -0.8 L-1.65 3.05 -7.0 0.2 -8.2 3.85 -10.95 1.5 M12.5 1.6 L8.75 1.45 7.6 4.9 3.5 4.55 4.65 0.9 -0.35 -0.8 1.0 -4.85 -3.8 -7.1 -2.1 -10.3 Q0.25 -9.15 2.2 -8.35 L3.2 -11.35 -0.5 -13.15 -2.1 -10.3 -4.8 -12.0 -2.1 -10.3 -0.5 -13.15 3.2 -11.35 4.55 -15.3 7.95 -14.4 7.25 -10.3 3.2 -11.35 7.25 -10.3 7.95 -14.4 8.45 -18.0 11.7 -17.75 11.55 -14.05 11.7 -17.75 8.45 -18.0 7.95 -14.4 11.55 -14.05 15.5 -14.3 11.55 -14.05 7.95 -14.4 4.55 -15.3 3.2 -11.35 2.2 -8.35 Q4.4 -7.6 6.6 -7.0 L5.75 -3.3 9.8 -2.6 10.6 -6.4 Q12.4 -6.25 14.85 -6.45 12.4 -6.25 10.6 -6.4 L9.8 -2.6 5.75 -3.3 6.6 -7.0 Q4.4 -7.6 2.2 -8.35 L1.0 -4.85 Q3.4 -3.95 5.75 -3.3 L4.65 0.9 8.75 1.45 9.8 -2.6 13.8 -2.2 9.8 -2.6 8.75 1.45 4.65 0.9 5.75 -3.3 Q3.4 -3.95 1.0 -4.85 L2.2 -8.35 Q0.25 -9.15 -2.1 -10.3 L-3.8 -7.1 1.0 -4.85 -0.35 -0.8 4.65 0.9 3.5 4.55 7.6 4.9 8.75 1.45 12.5 1.6 M-0.45 -18.3 L1.7 -16.6 -0.5 -13.15 Q-2.1 -14.25 -2.8 -15.1 -2.1 -14.25 -0.5 -13.15 L1.7 -16.6 -0.45 -18.3 M15.4 -10.25 L11.15 -10.0 11.55 -14.05 11.15 -10.0 15.4 -10.25 M7.25 -10.3 L11.15 -10.0 10.6 -6.4 6.6 -7.0 7.25 -10.3 6.6 -7.0 10.6 -6.4 11.15 -10.0 7.25 -10.3 M5.7 -18.7 L4.55 -15.3 Q3.1 -15.85 1.7 -16.6 L3.75 -19.55 1.8 -20.95 3.75 -19.55 1.7 -16.6 Q3.1 -15.85 4.55 -15.3 L5.7 -18.7 Q4.75 -19.1 3.75 -19.55 L5.6 -21.8 6.6 -21.3 5.7 -18.7 6.6 -21.3 5.6 -21.8 3.75 -19.55 Q4.75 -19.1 5.7 -18.7 L8.45 -18.0 8.75 -20.7 11.6 -20.65 8.75 -20.7 8.45 -18.0 5.7 -18.7 M3.85 -23.4 L5.6 -21.8 7.65 -24.35 7.75 -24.5 7.65 -24.35 6.6 -21.3 8.75 -20.7 9.0 -24.05 8.75 -20.7 6.6 -21.3 7.65 -24.35 5.6 -21.8 3.85 -23.4 M15.2 -18.0 L11.7 -17.75 11.6 -20.65 11.4 -24.05 11.6 -20.65 14.5 -21.2 11.6 -20.65 11.7 -17.75 15.2 -18.0 M-12.55 26.45 L-10.15 27.3 -9.6 29.2 -10.15 27.3 -12.55 26.45 M3.1 18.55 L0.55 18.65 3.15 14.5 5.95 14.35 3.15 14.5 0.55 18.65 3.1 18.55 M-8.6 24.85 L-10.55 24.25 -10.15 27.3 -9.25 27.5 -9.6 29.2 -9.25 27.5 -10.15 27.3 -10.55 24.25 -8.6 24.85" fill="#ffffff" fill-opacity="0.0" fill-rule="evenodd" stroke="none"/>
    <path d="M13.25 -24.85 Q12.0 -28.55 10.95 -29.55 11.5 -29.65 10.5 -29.65 9.9 -29.65 8.6 -28.35 L6.0 -25.7 3.85 -23.4 1.8 -20.95 -0.45 -18.3 -2.8 -15.1 -4.8 -12.0 -6.65 -8.95 -8.45 -5.45 -9.95 -2.0 -10.95 1.5 -13.15 9.45 -13.65 14.05 -13.7 18.15 -13.35 22.8 Q-12.95 25.5 -12.55 26.45 L-11.25 27.8 -9.6 29.2 M13.25 -24.85 L14.5 -21.2 15.2 -18.0 15.5 -14.3 15.4 -10.25 14.85 -6.45 13.8 -2.2 12.5 1.6 10.95 5.15 9.0 9.05 7.4 11.9 5.95 14.35 3.1 18.55 0.35 22.3 -2.35 25.5 -4.5 27.75 -6.95 28.8 -9.05 29.35" fill="none" stroke="#000000" stroke-linecap="round" stroke-linejoin="miter-clip" stroke-miterlimit="4.0" stroke-opacity="0.6" stroke-width="1.0"/>
    <path d="M6.0 -25.7 Q6.8 -25.05 7.75 -24.5 L9.0 -24.05 9.75 -24.0 11.4 -24.05 13.25 -24.85 M-9.05 29.35 L-9.15 29.4 Q-9.6 29.35 -9.45 29.5 L-9.35 29.7 -9.6 29.2 -10.15 27.3 -12.55 26.45 M11.55 -14.05 L11.7 -17.75 8.45 -18.0 7.95 -14.4 11.55 -14.05 15.5 -14.3 M11.4 -24.05 L11.6 -20.65 14.5 -21.2 M11.6 -20.65 L11.7 -17.75 15.2 -18.0 M7.75 -24.5 L7.65 -24.35 6.6 -21.3 8.75 -20.7 9.0 -24.05 M5.7 -18.7 L6.6 -21.3 5.6 -21.8 3.75 -19.55 Q4.75 -19.1 5.7 -18.7 L8.45 -18.0 8.75 -20.7 11.6 -20.65 M7.65 -24.35 L5.6 -21.8 3.85 -23.4 M1.8 -20.95 L3.75 -19.55 1.7 -16.6 Q3.1 -15.85 4.55 -15.3 L5.7 -18.7 M7.95 -14.4 L4.55 -15.3 3.2 -11.35 7.25 -10.3 7.95 -14.4 M7.25 -10.3 L6.6 -7.0 10.6 -6.4 11.15 -10.0 7.25 -10.3 M3.2 -11.35 L2.2 -8.35 Q4.4 -7.6 6.6 -7.0 L5.75 -3.3 9.8 -2.6 10.6 -6.4 Q12.4 -6.25 14.85 -6.45 M2.2 -8.35 L1.0 -4.85 Q3.4 -3.95 5.75 -3.3 L4.65 0.9 8.75 1.45 9.8 -2.6 13.8 -2.2 M11.55 -14.05 L11.15 -10.0 15.4 -10.25 M-2.8 -15.1 Q-2.1 -14.25 -0.5 -13.15 L1.7 -16.6 -0.45 -18.3 M-4.8 -12.0 L-2.1 -10.3 -0.5 -13.15 3.2 -11.35 M2.2 -8.35 Q0.25 -9.15 -2.1 -10.3 L-3.8 -7.1 1.0 -4.85 -0.35 -0.8 4.65 0.9 3.5 4.55 7.6 4.9 8.75 1.45 12.5 1.6 M-9.95 -2.0 L-7.0 0.2 -5.5 -3.45 -8.45 -5.45 M-7.0 0.2 L-1.65 3.05 -0.35 -0.8 Q-3.4 -2.2 -5.5 -3.45 L-3.8 -7.1 -6.65 -8.95 M2.3 8.05 L3.5 4.55 -1.65 3.05 -2.85 6.7 2.3 8.05 6.25 8.35 7.6 4.9 10.95 5.15 M-2.85 6.7 L-3.95 10.05 1.0 11.4 2.3 8.05 M-2.85 6.7 Q-5.25 5.7 -8.2 3.85 L-9.2 7.45 Q-6.2 9.15 -3.95 10.05 L-5.05 13.4 -0.25 14.35 1.0 11.4 4.65 11.75 6.25 8.35 9.0 9.05 M-7.0 0.2 L-8.2 3.85 -10.95 1.5 M-9.2 7.45 L-10.0 11.45 -5.05 13.4 -6.4 17.6 -2.25 18.45 -0.25 14.35 3.15 14.5 4.65 11.75 7.4 11.9 M-13.65 14.05 L-10.55 15.95 -10.0 11.45 -13.15 9.45 M-13.35 22.8 L-10.55 24.25 -10.7 19.85 -13.7 18.15 M-10.55 15.95 L-10.7 19.85 -7.5 21.1 -6.4 17.6 -10.55 15.95 M-2.25 18.45 L-4.15 21.9 -2.1 22.15 0.55 18.65 -2.25 18.45 M-4.15 21.9 L-7.5 21.1 -8.6 24.85 -6.25 25.3 -4.15 21.9 M-11.85 5.6 L-9.2 7.45 M-2.35 25.5 L-5.0 25.45 -7.3 27.75 -4.5 27.75 M-8.6 24.85 L-9.25 27.5 -7.85 27.7 -6.25 25.3 -5.0 25.45 -2.1 22.15 0.35 22.3 M-9.1 29.35 L-9.05 29.35 -7.3 27.75 -7.85 27.7 -9.1 29.35 -9.6 29.2 -9.25 27.5 -10.15 27.3 -10.55 24.25 -8.6 24.85 M-9.15 29.4 L-9.1 29.35 M5.95 14.35 L3.15 14.5 0.55 18.65 3.1 18.55" fill="none" stroke="#000000" stroke-linecap="round" stroke-linejoin="miter-clip" stroke-miterlimit="4.0" stroke-opacity="0.2" stroke-width="1.0"/>
  </g>
</svg>
