<?xml version="1.0" encoding="UTF-8" standalone="no"?>
<svg xmlns:xlink="http://www.w3.org/1999/xlink" height="570.7px" width="792.65px" xmlns="http://www.w3.org/2000/svg">
  <g transform="matrix(1.0, 0.0, 0.0, 1.0, 372.05, 292.4)">
    <path d="M242.95 -257.25 L235.05 -253.3 Q225.05 -247.35 227.4 -243.9 L232.9 -238.95 Q237.3 -235.1 238.5 -231.65 242.3 -220.8 218.85 -206.35 225.3 -210.95 229.7 -216.8 238.55 -228.45 228.4 -234.75 222.4 -238.5 221.0 -241.2 219.65 -243.8 222.3 -246.35 224.5 -248.45 230.9 -251.65 L242.95 -257.25 M260.85 -249.4 L257.55 -244.4 Q256.0 -241.75 255.95 -239.0 255.75 -232.3 264.65 -218.25 273.9 -203.7 265.35 -189.75 258.6 -178.65 238.9 -166.05 224.55 -156.9 190.65 -133.1 L159.65 -111.1 187.1 -134.2 Q216.7 -158.95 227.4 -166.95 231.15 -169.75 241.75 -176.35 251.3 -182.3 255.45 -185.75 268.9 -196.9 259.85 -207.3 244.9 -224.5 248.9 -238.05 254.8 -258.05 300.9 -269.55 L282.65 -262.25 Q263.8 -254.0 260.85 -249.4 M44.6 -111.0 Q42.5 -104.45 45.4 -96.55 47.6 -90.4 52.35 -84.75 58.55 -76.1 71.95 -70.05 85.6 -63.9 97.15 -64.55 L98.4 -64.35 Q125.5 -59.4 132.2 -57.35 144.1 -53.75 158.4 -46.95 176.6 -38.3 189.3 -28.5 224.55 -1.3 205.3 24.55 207.95 -23.1 127.3 -47.35 121.45 -49.1 105.55 -52.75 L78.4 -59.3 Q44.2 -68.4 34.2 -78.55 22.25 -90.65 31.65 -104.1 38.3 -113.5 54.55 -122.6 46.85 -118.05 44.6 -111.0 M210.1 -177.85 L207.5 -177.5 Q219.7 -184.6 226.4 -189.15 L219.5 -184.2 210.1 -177.85 M162.7 -152.55 Q171.0 -155.4 177.3 -157.9 150.7 -142.95 124.35 -132.15 142.3 -141.5 162.7 -152.55 M123.05 73.6 Q141.2 71.7 152.85 68.85 117.05 79.95 98.5 89.95 64.8 108.15 51.65 136.45 47.15 146.1 43.65 151.15 39.75 156.65 34.95 159.8 30.35 162.8 22.75 164.95 17.25 166.5 4.3 169.1 -15.5 173.05 -60.5 186.7 -101.65 197.8 -126.0 195.6 -110.9 189.2 -87.75 181.85 -65.25 174.65 -45.25 169.7 L-22.95 165.2 Q-6.45 162.1 3.2 159.55 35.15 151.25 45.3 137.15 50.75 129.6 53.9 119.95 56.75 109.5 58.3 104.8 61.05 96.75 65.9 91.8 72.05 85.45 83.9 81.0 96.3 76.35 123.05 73.6 M-115.6 133.25 Q-77.75 124.4 -21.6 119.95 L-142.2 141.25 Q-134.5 137.7 -115.6 133.25" fill="#000000" fill-opacity="0.24705882" fill-rule="evenodd" stroke="none"/>
    <path d="M225.8 -202.65 Q216.3 -194.7 205.7 -187.55 171.8 -164.65 139.6 -157.8 159.2 -167.65 180.65 -179.0 223.6 -201.65 233.15 -209.1 L225.8 -202.65 M172.95 -46.4 Q147.1 -57.85 141.75 -64.1 164.55 -56.8 180.15 -51.15 208.95 -40.65 226.05 -30.55 271.85 -3.4 237.9 22.55 252.3 10.85 247.55 -0.95 242.85 -12.5 218.4 -25.55 209.85 -30.1 172.95 -46.4 M157.85 49.0 Q141.2 48.8 119.35 54.6 113.55 56.15 99.85 60.25 L80.45 65.7 66.9 68.7 Q59.3 70.5 54.85 72.8 44.3 78.25 42.5 91.65 45.95 59.4 87.55 51.1 103.15 48.0 125.7 48.0 L157.85 49.0 M22.75 111.1 Q18.6 115.05 12.8 126.2 7.4 136.55 1.2 140.6 -9.3 147.4 -23.9 150.55 -35.55 153.05 -52.3 153.55 -66.15 154.0 -93.95 154.0 -116.2 154.75 -130.1 159.65 -113.35 153.4 -91.1 149.7 L-51.8 144.0 Q-29.35 140.3 -13.8 134.05 6.2 126.0 22.75 111.1" fill="#ffffff" fill-opacity="0.2" fill-rule="evenodd" stroke="none"/>
    <path d="M242.95 -257.25 L230.9 -251.65 Q224.5 -248.45 222.3 -246.35 219.65 -243.8 221.0 -241.2 222.4 -238.5 228.4 -234.75 238.55 -228.45 229.7 -216.8 225.3 -210.95 218.85 -206.35 242.3 -220.8 238.5 -231.65 237.3 -235.1 232.9 -238.95 L227.4 -243.9 Q225.05 -247.35 235.05 -253.3 L242.95 -257.25 M-49.2 274.2 L-52.25 277.8 -371.2 277.8 Q-351.2 243.8 -314.55 212.1 L-313.2 210.95 -312.8 210.6 Q-285.45 187.25 -251.4 167.15 L-250.35 166.5 -248.9 165.65 Q-238.15 159.35 -226.75 153.4 L-223.55 151.75 Q-173.95 126.25 -121.2 111.2 -68.75 96.25 -24.85 94.95 -12.05 94.55 -6.15 93.4 4.1 91.45 10.0 86.05 16.35 80.25 20.5 65.6 23.0 56.75 23.95 54.15 26.2 47.85 29.3 43.75 35.4 35.75 47.55 31.45 55.55 28.6 70.4 26.35 81.0 24.75 99.15 23.55 L129.4 21.5 Q164.8 18.55 176.3 10.45 183.1 5.65 177.7 -2.6 172.9 -9.9 159.7 -18.5 147.4 -26.5 132.2 -32.9 116.85 -39.3 105.15 -41.25 L81.2 -44.7 Q66.35 -46.75 57.3 -48.65 30.25 -54.45 14.85 -67.15 11.05 -70.3 8.15 -74.6 4.9 -79.3 4.3 -83.25 L3.6 -87.3 Q3.35 -89.7 4.1 -92.05 6.05 -98.15 16.75 -108.5 26.95 -118.35 104.0 -156.5 142.55 -175.6 179.0 -192.7 203.95 -205.7 214.8 -213.7 224.85 -221.1 225.35 -226.25 225.75 -230.3 219.85 -235.2 L207.5 -245.15 Q196.95 -255.2 257.05 -271.65 287.1 -279.9 319.25 -286.1 332.15 -288.6 359.45 -290.75 366.6 -291.3 418.6 -291.7 L325.3 -271.45 Q281.2 -258.55 269.95 -250.65 255.85 -240.75 270.6 -225.65 309.35 -186.0 259.2 -151.5 241.35 -139.25 212.05 -127.65 195.3 -121.05 168.0 -112.4 148.65 -106.3 141.85 -98.05 129.6 -83.2 171.8 -69.75 178.95 -67.5 205.05 -59.9 231.35 -51.7 250.1 -43.1 306.65 -17.25 304.7 15.95 303.85 31.0 287.55 44.75 278.7 52.2 264.35 59.8 L257.35 63.3 Q245.1 69.2 228.0 74.6 220.95 76.85 197.35 83.5 158.15 94.5 139.2 105.8 125.5 113.95 120.55 121.8 114.5 131.45 117.25 145.95 117.9 149.45 121.15 162.15 122.85 169.0 122.2 172.15 121.3 176.15 116.2 179.55 111.35 182.8 99.0 187.95 86.2 193.3 63.8 199.7 35.65 207.75 27.75 210.4 7.75 217.2 -5.8 225.45 -22.5 235.65 -33.35 250.1 -36.95 254.9 -41.95 263.05 -46.85 271.15 -49.2 274.2 M225.8 -202.65 L233.15 -209.1 Q223.6 -201.65 180.65 -179.0 159.2 -167.65 139.6 -157.8 171.8 -164.65 205.7 -187.55 216.3 -194.7 225.8 -202.65 M210.1 -177.85 L219.5 -184.2 226.4 -189.15 Q219.7 -184.6 207.5 -177.5 L210.1 -177.85 M44.6 -111.0 Q46.85 -118.05 54.55 -122.6 38.3 -113.5 31.65 -104.1 22.25 -90.65 34.2 -78.55 44.2 -68.4 78.4 -59.3 L105.55 -52.75 Q121.45 -49.1 127.3 -47.35 207.95 -23.1 205.3 24.55 224.55 -1.3 189.3 -28.5 176.6 -38.3 158.4 -46.95 144.1 -53.75 132.2 -57.35 125.5 -59.4 98.4 -64.35 L97.15 -64.55 Q85.6 -63.9 71.95 -70.05 58.55 -76.1 52.35 -84.75 47.6 -90.4 45.4 -96.55 42.5 -104.45 44.6 -111.0 M260.85 -249.4 Q263.8 -254.0 282.65 -262.25 L300.9 -269.55 Q254.8 -258.05 248.9 -238.05 244.9 -224.5 259.85 -207.3 268.9 -196.9 255.45 -185.75 251.3 -182.3 241.75 -176.35 231.15 -169.75 227.4 -166.95 216.7 -158.95 187.1 -134.2 L159.65 -111.1 190.65 -133.1 Q224.55 -156.9 238.9 -166.05 258.6 -178.65 265.35 -189.75 273.9 -203.7 264.65 -218.25 255.75 -232.3 255.95 -239.0 256.0 -241.75 257.55 -244.4 L260.85 -249.4 M162.7 -152.55 Q142.3 -141.5 124.35 -132.15 150.7 -142.95 177.3 -157.9 171.0 -155.4 162.7 -152.55 M157.85 49.0 L125.7 48.0 Q103.15 48.0 87.55 51.1 45.95 59.4 42.5 91.65 44.3 78.25 54.85 72.8 59.3 70.5 66.9 68.7 L80.45 65.7 99.85 60.25 Q113.55 56.15 119.35 54.6 141.2 48.8 157.85 49.0 M172.95 -46.4 Q209.85 -30.1 218.4 -25.55 242.85 -12.5 247.55 -0.95 252.3 10.85 237.9 22.55 271.85 -3.4 226.05 -30.55 208.95 -40.65 180.15 -51.15 164.55 -56.8 141.75 -64.1 147.1 -57.85 172.95 -46.4 M123.05 73.6 Q96.3 76.35 83.9 81.0 72.05 85.45 65.9 91.8 61.05 96.75 58.3 104.8 56.75 109.5 53.9 119.95 50.75 129.6 45.3 137.15 35.15 151.25 3.2 159.55 -6.45 162.1 -22.95 165.2 L-45.25 169.7 Q-65.25 174.65 -87.75 181.85 -110.9 189.2 -126.0 195.6 -101.65 197.8 -60.5 186.7 -15.5 173.05 4.3 169.1 17.25 166.5 22.75 164.95 30.35 162.8 34.95 159.8 39.75 156.65 43.65 151.15 47.15 146.1 51.65 136.45 64.8 108.15 98.5 89.95 117.05 79.95 152.85 68.85 141.2 71.7 123.05 73.6 M22.75 111.1 Q6.2 126.0 -13.8 134.05 -29.35 140.3 -51.8 144.0 L-91.1 149.7 Q-113.35 153.4 -130.1 159.65 -116.2 154.75 -93.95 154.0 -66.15 154.0 -52.3 153.55 -35.55 153.05 -23.9 150.55 -9.3 147.4 1.2 140.6 7.4 136.55 12.8 126.2 18.6 115.05 22.75 111.1 M-115.6 133.25 Q-134.5 137.7 -142.2 141.25 L-21.6 119.95 Q-77.75 124.4 -115.6 133.25" fill="#ffffff" fill-opacity="0.0" fill-rule="evenodd" stroke="none"/>
    <path d="M-49.2 274.2 Q-46.85 271.15 -41.95 263.05 -36.95 254.9 -33.35 250.1 -22.5 235.65 -5.8 225.45 7.75 217.2 27.75 210.4 35.65 207.75 63.8 199.7 86.2 193.3 99.0 187.95 111.35 182.8 116.2 179.55 121.3 176.15 122.2 172.15 122.85 169.0 121.15 162.15 117.9 149.45 117.25 145.95 114.5 131.45 120.55 121.8 125.5 113.95 139.2 105.8 158.15 94.5 197.35 83.5 220.95 76.85 228.0 74.6 245.1 69.2 257.35 63.3 L264.35 59.8 Q278.7 52.2 287.55 44.75 303.85 31.0 304.7 15.95 306.65 -17.25 250.1 -43.1 231.35 -51.7 205.05 -59.9 178.95 -67.5 171.8 -69.75 129.6 -83.2 141.85 -98.05 148.65 -106.3 168.0 -112.4 195.3 -121.05 212.05 -127.65 241.35 -139.25 259.2 -151.5 309.35 -186.0 270.6 -225.65 255.85 -240.75 269.95 -250.65 281.2 -258.55 325.3 -271.45 L418.6 -291.7 Q366.6 -291.3 359.45 -290.75 332.15 -288.6 319.25 -286.1 287.1 -279.9 257.05 -271.65 196.95 -255.2 207.5 -245.15 L219.85 -235.2 Q225.75 -230.3 225.35 -226.25 224.85 -221.1 214.8 -213.7 203.95 -205.7 179.0 -192.7 142.55 -175.6 104.0 -156.5 26.95 -118.35 16.75 -108.5 6.05 -98.15 4.1 -92.05 3.35 -89.7 3.6 -87.3 L4.3 -83.25 Q4.9 -79.3 8.15 -74.6 11.05 -70.3 14.85 -67.15 30.25 -54.45 57.3 -48.65 66.35 -46.75 81.2 -44.7 L105.15 -41.25 Q116.85 -39.3 132.2 -32.9 147.4 -26.5 159.7 -18.5 172.9 -9.9 177.7 -2.6 183.1 5.65 176.3 10.45 164.8 18.55 129.4 21.5 L99.15 23.55 Q81.0 24.75 70.4 26.35 55.55 28.6 47.55 31.45 35.4 35.75 29.3 43.75 26.2 47.85 23.95 54.15 23.0 56.75 20.5 65.6 16.35 80.25 10.0 86.05 4.1 91.45 -6.15 93.4 -12.05 94.55 -24.85 94.95 -68.75 96.25 -121.2 111.2 -173.95 126.25 -223.55 151.75 L-226.75 153.4 Q-238.15 159.35 -248.9 165.65 L-250.35 166.5 -251.4 167.15 Q-285.45 187.25 -312.8 210.6 L-313.2 210.95 -314.55 212.1 Q-351.2 243.8 -371.2 277.8 L-52.25 277.8 -49.2 274.2 Z" fill="none" stroke="#000000" stroke-linecap="round" stroke-linejoin="miter-clip" stroke-miterlimit="4.0" stroke-opacity="0.6" stroke-width="1.0"/>
  </g>
</svg>
