<?xml version="1.0" encoding="UTF-8" standalone="no"?>
<svg xmlns:xlink="http://www.w3.org/1999/xlink" height="114.5px" width="182.1px" xmlns="http://www.w3.org/2000/svg">
  <g transform="matrix(1.0, 0.0, 0.0, 1.0, 90.55, 57.3)">
    <path d="M-9.0 -21.9 L-8.5 -24.15 Q-4.0 -42.2 4.05 -51.25 5.85 -53.25 7.7 -54.65 L9.1 -55.65 10.9 -56.5 10.55 -54.65 Q7.15 -34.75 6.0 -23.1 5.35 -17.0 5.35 -13.15 L5.0 -2.0 4.8 0.8 3.6 13.7 3.4 15.75 3.2 17.45 2.55 16.9 2.1 16.55 2.0 16.5 1.9 16.4 1.8 16.35 1.7 16.25 Q-0.5 14.65 -1.7 14.5 -0.5 14.65 1.7 16.25 L1.8 16.35 1.9 16.4 2.0 16.5 2.1 16.55 2.55 16.9 3.1 17.4 2.05 16.55 3.15 17.7 6.25 21.45 6.35 21.55 8.2 24.15 9.15 25.75 9.95 27.6 Q10.55 29.25 10.75 31.1 11.15 34.8 9.9 39.25 9.2 41.7 8.1 44.2 L6.35 47.6 5.45 49.05 5.45 49.1 4.95 49.85 4.9 49.9 4.9 49.95 4.8 50.1 4.65 50.3 5.05 49.95 5.9 49.1 5.95 49.05 6.35 48.65 7.0 47.95 7.2 47.7 Q23.3 49.3 30.35 38.15 L31.8 37.85 Q42.7 35.95 49.8 32.8 L54.7 30.0 54.65 30.05 Q51.45 35.2 47.4 39.35 L44.4 42.2 Q42.45 43.85 40.3 45.35 26.75 54.9 9.65 53.25 L9.05 53.15 6.4 52.5 4.25 51.9 2.95 51.5 4.25 50.65 4.3 50.65 4.25 50.65 -0.8 48.75 -1.35 48.4 Q-3.35 47.1 -4.6 45.4 L-5.15 44.5 Q-6.95 41.4 -6.4 37.25 L-5.9 34.75 -5.15 31.8 -4.3 29.2 -2.55 24.45 -1.85 22.5 Q-0.55 18.05 -1.7 14.5 L-2.9 20.1 Q-5.85 13.55 -10.2 7.05 L-10.5 4.75 -9.95 -17.05 -9.95 -17.2 -9.0 -21.9 M75.6 1.5 L78.55 0.3 76.8 1.8 75.85 2.45 63.05 10.75 44.45 22.2 Q40.2 24.8 34.25 27.8 L34.4 26.75 34.65 24.1 36.25 22.95 46.5 14.2 51.05 13.75 75.45 1.6 74.7 1.9 75.6 1.5 M-55.9 -36.25 L-52.15 -33.55 -45.35 -28.1 Q-37.3 -21.2 -29.05 -12.15 -14.25 4.1 -7.7 19.25 L-7.7 19.35 -6.45 22.4 Q-5.65 24.5 -5.0 26.65 L-4.95 26.7 -4.95 26.75 Q-13.25 18.45 -22.05 17.5 L-23.75 17.4 -22.1 17.5 Q-27.0 10.85 -30.5 3.25 -31.95 0.0 -33.2 -3.4 -35.95 -11.05 -45.95 -23.65 L-53.05 -32.3 -57.55 -37.4 -55.9 -36.25 M31.85 21.5 L32.6 21.45 Q33.85 21.45 34.4 21.8 L34.0 24.5 33.05 28.35 Q32.2 30.95 30.95 33.15 L28.45 36.8 26.25 39.05 Q21.0 43.65 12.9 44.2 L17.95 41.65 18.45 41.35 Q23.3 38.5 26.5 35.15 29.05 32.5 30.6 29.5 L31.2 28.2 30.6 29.5 Q29.05 32.5 26.5 35.15 23.3 38.5 18.45 41.35 L17.95 41.65 12.9 44.2 8.75 45.6 9.7 44.25 10.3 43.4 10.55 42.9 11.25 41.6 Q14.6 34.9 12.4 29.35 15.25 26.75 19.15 25.2 27.7 21.75 31.85 21.5 M-5.0 26.65 Q-13.3 18.35 -22.1 17.5 -13.3 18.35 -5.0 26.65 M-25.85 17.45 L-25.45 17.4 -21.4 18.4 Q-13.55 21.1 -6.25 29.7 L-7.0 31.15 -7.1 31.3 -7.15 31.35 -8.1 33.25 -8.2 33.45 -8.25 33.6 -8.5 34.15 Q-9.6 37.1 -9.15 39.85 L-9.0 40.5 -9.0 40.55 -8.7 41.5 -8.65 41.7 -7.95 43.1 -8.45 43.0 -8.8 42.95 -12.0 41.8 -12.65 41.45 -15.05 39.9 Q-20.1 36.25 -22.95 30.15 L-24.6 25.95 Q-25.9 22.0 -26.3 17.45 L-25.85 17.45 M-21.85 38.7 Q-18.65 43.5 -13.25 46.35 -9.85 47.95 -5.8 48.05 L-2.85 47.85 -2.1 48.25 -0.25 49.1 0.45 49.4 0.35 49.35 1.15 49.65 1.0 49.75 -5.5 49.4 -7.95 49.3 -13.75 49.05 Q-25.25 48.65 -35.35 42.35 L-39.7 39.25 Q-45.7 34.55 -48.85 30.0 -47.5 31.2 -43.95 32.8 L-41.3 33.9 -41.25 33.9 -33.6 36.25 -32.3 36.6 -31.6 36.75 -26.4 37.8 -26.0 37.85 -21.85 38.7 M4.65 50.3 L4.3 50.65 4.65 50.3" fill="#ffffff" fill-opacity="0.047058824" fill-rule="evenodd" stroke="none"/>
    <path d="M10.9 -56.5 L10.9 -56.55 10.9 -56.6 11.15 -56.65 10.9 -56.5 M55.75 24.4 L57.5 24.35 61.6 24.25 61.6 24.35 55.75 24.4 M-58.85 -38.25 L-59.0 -38.4 -58.8 -38.25 -58.85 -38.25 M-57.75 -37.65 L-57.35 -37.4 -55.9 -36.25 -57.55 -37.4 -57.75 -37.65 -57.35 -37.4 -57.75 -37.65 M7.6 10.8 L7.7 10.65 8.25 10.0 7.6 10.8 M34.4 21.8 L34.4 21.75 34.75 22.05 34.8 22.2 34.45 21.8 34.4 21.8" fill="#e9e9ea" fill-rule="evenodd" stroke="none"/>
    <path d="M11.15 -56.65 L11.15 -56.55 10.05 -39.65 10.0 -38.85 9.95 -38.15 9.4 -27.3 9.4 -26.8 Q9.0 -19.35 8.95 -14.55 L8.95 -14.4 8.95 -14.35 8.95 -12.75 8.95 -12.0 8.95 -11.7 8.9 -8.2 8.8 -5.6 8.8 -5.5 8.75 -4.05 7.7 9.95 7.65 10.35 7.6 10.8 8.25 10.0 20.55 0.35 Q28.85 -4.3 41.2 -15.25 L43.7 -17.55 37.25 -10.65 Q26.25 0.4 17.35 5.0 11.55 8.0 7.4 12.65 L7.1 15.6 7.0 16.25 6.4 20.65 3.2 17.45 6.4 20.65 7.0 16.25 6.45 20.75 9.95 25.15 10.9 26.55 11.05 26.75 12.4 29.35 Q14.6 34.9 11.25 41.6 L10.55 42.9 10.3 43.4 9.7 44.25 8.75 45.6 7.8 46.95 8.75 45.6 12.9 44.2 Q21.0 43.65 26.25 39.05 L28.45 36.8 30.95 33.15 Q32.2 30.95 33.05 28.35 L34.0 24.5 34.4 21.8 34.45 21.8 34.8 22.2 34.65 24.1 34.4 26.75 34.25 27.8 33.15 32.15 31.35 36.4 30.35 38.15 Q23.3 49.3 7.2 47.7 L6.35 48.65 5.95 49.05 5.9 49.1 5.05 49.95 4.65 50.3 4.8 50.1 4.9 49.95 4.9 49.9 4.95 49.85 5.45 49.1 5.45 49.05 6.35 47.6 8.1 44.2 Q9.2 41.7 9.9 39.25 11.15 34.8 10.75 31.1 10.55 29.25 9.95 27.6 L9.15 25.75 8.2 24.15 6.35 21.55 6.25 21.45 3.15 17.7 2.05 16.55 3.1 17.4 3.2 17.45 3.4 15.75 3.6 13.7 4.8 0.8 5.0 -2.0 5.35 -13.15 Q5.35 -17.0 6.0 -23.1 7.15 -34.75 10.55 -54.65 L10.9 -56.5 11.15 -56.65 M49.7 11.45 L73.6 2.35 74.7 1.9 75.45 1.6 51.05 13.75 46.5 14.2 49.7 11.45 M47.15 24.6 L55.75 24.4 61.6 24.35 73.55 24.4 83.6 24.55 68.9 25.25 61.6 25.65 43.85 26.65 46.25 25.2 47.15 24.6 M-45.35 -28.1 L-31.25 -17.15 -24.35 -10.4 Q-16.05 -1.7 -10.2 7.0 L-10.2 7.05 Q-5.85 13.55 -2.9 20.1 L-3.05 20.7 Q-3.95 24.05 -4.95 26.7 L-5.0 26.65 Q-5.65 24.5 -6.45 22.4 L-7.7 19.35 -7.7 19.25 Q-14.25 4.1 -29.05 -12.15 -37.3 -21.2 -45.35 -28.1 M-34.2 -46.25 Q-27.45 -41.35 -20.2 -34.4 -13.25 -27.75 -9.0 -21.9 L-9.95 -17.2 -9.95 -17.05 Q-12.25 -23.4 -20.4 -32.45 -25.35 -37.95 -33.5 -45.4 L-33.55 -45.7 -34.2 -46.25 M-23.75 17.4 L-22.05 17.5 Q-13.25 18.45 -4.95 26.75 L-6.25 29.7 Q-13.55 21.1 -21.4 18.4 L-25.45 17.4 -23.75 17.4 M7.6 10.8 L7.4 12.65 7.6 10.8 M7.8 46.95 L7.2 47.7 7.8 46.95" fill="#ffffff" fill-opacity="0.14901961" fill-rule="evenodd" stroke="none"/>
    <path d="M9.4 -26.8 L19.0 -36.2 29.25 -45.05 29.95 -45.6 29.3 -44.35 14.55 -16.5 13.5 -13.15 13.35 -13.05 Q11.0 -11.0 8.9 -8.2 L8.95 -11.7 8.95 -12.0 8.95 -12.75 8.95 -14.35 8.95 -14.4 8.95 -14.55 Q9.0 -19.35 9.4 -26.8 M49.75 -34.9 L48.55 -33.35 30.1 -11.3 24.45 -3.5 21.75 -0.35 20.55 0.35 8.25 10.0 7.7 10.65 7.6 10.8 7.65 10.6 7.7 9.95 8.75 -4.05 8.75 -4.35 8.8 -5.5 8.8 -5.6 11.9 -9.25 13.35 -10.6 18.05 -14.35 Q24.1 -18.95 33.85 -25.15 L47.5 -33.5 49.65 -34.85 49.95 -35.25 49.7 -34.9 49.75 -34.9" fill="#000000" fill-opacity="0.2" fill-rule="evenodd" stroke="none"/>
    <path d="M29.95 -45.65 L30.25 -45.9 19.35 -17.7 13.5 -13.15 14.55 -16.5 29.3 -44.35 29.95 -45.6 29.95 -45.65 M48.55 -33.35 L38.3 -19.8 Q26.8 -4.85 23.75 -1.7 L21.75 -0.35 24.45 -3.5 30.1 -11.3 48.55 -33.35 M52.85 -26.2 L51.95 -22.1 Q50.6 -17.05 48.65 -12.15 44.95 -3.0 39.8 3.55 36.15 8.1 31.8 11.35 L30.25 12.5 26.55 15.3 11.05 26.75 10.9 26.55 9.95 25.15 28.5 11.35 Q31.05 9.45 33.65 6.6 L37.65 2.5 33.65 6.6 Q42.95 -3.6 52.3 -25.65 L52.85 -26.2 M66.9 -3.3 L49.7 11.45 46.5 14.2 36.25 22.95 34.65 24.1 34.8 22.2 34.75 22.05 34.4 21.75 34.4 21.8 Q33.85 21.45 32.6 21.45 L31.85 21.5 34.3 19.6 39.2 15.15 40.7 13.45 66.55 -3.2 66.9 -3.3 M76.8 1.8 L67.15 9.8 Q59.8 15.75 54.05 19.9 L47.15 24.6 46.25 25.2 43.85 26.65 Q39.3 29.25 33.15 32.15 L34.25 27.8 Q40.2 24.8 44.45 22.2 L63.05 10.75 75.85 2.45 76.8 1.8 M88.5 24.6 L89.6 24.6 57.15 39.0 48.35 41.45 49.05 40.5 49.25 40.2 52.3 35.4 54.2 31.2 52.3 35.4 49.25 40.2 48.3 41.45 48.25 41.55 47.75 42.15 46.3 43.75 44.4 45.6 42.7 47.0 41.55 47.9 Q36.8 51.35 31.2 53.0 L30.95 53.1 Q43.25 54.5 57.6 52.75 74.95 50.6 83.75 46.2 L83.8 46.2 84.15 46.25 79.3 49.05 Q72.95 52.2 65.6 54.15 46.0 59.25 25.35 54.2 21.0 54.7 16.25 54.25 L10.7 53.45 9.8 53.3 9.65 53.25 Q26.75 54.9 40.3 45.35 42.45 43.85 44.4 42.2 L47.4 39.35 Q51.45 35.2 54.65 30.05 L54.7 30.0 54.2 31.2 52.7 34.7 50.45 38.55 53.7 37.65 88.5 24.6 M2.95 51.5 Q-12.15 56.2 -23.7 53.45 L-26.8 53.65 -26.95 53.65 -27.05 53.65 -44.65 55.05 Q-56.7 56.2 -70.3 51.25 -75.1 49.5 -78.7 47.65 L-81.55 46.05 Q-75.75 48.6 -66.45 50.5 -55.7 52.75 -45.35 52.55 L-33.2 51.5 -31.95 51.3 -30.55 51.0 -35.8 47.8 -36.35 47.4 -37.95 46.1 Q-40.6 43.85 -42.65 41.4 -47.0 36.15 -48.85 30.0 -45.7 34.55 -39.7 39.25 L-35.35 42.35 Q-25.25 48.65 -13.75 49.05 L-7.95 49.3 -5.5 49.4 1.0 49.75 1.15 49.65 0.35 49.35 -0.8 48.75 4.25 50.65 2.95 51.5 M-63.6 41.45 L-69.8 39.2 Q-74.2 37.4 -78.85 35.0 L-81.2 33.75 -89.6 28.8 -85.15 30.3 Q-70.1 35.3 -57.8 38.9 L-52.3 40.45 -57.8 38.9 -48.55 40.95 -63.4 41.45 -63.6 41.45 M-57.55 22.2 Q-62.85 20.3 -68.25 17.75 L-86.8 11.55 Q-78.75 9.6 -68.8 8.4 L-56.85 7.5 -68.0 -1.25 -75.95 -7.85 Q-80.8 -11.5 -83.2 -14.05 L-84.0 -14.95 -83.35 -14.35 -84.4 -15.35 Q-74.85 -8.15 -63.0 0.3 L-55.55 5.6 -52.8 7.5 -52.4 7.5 Q-44.25 7.75 -39.0 9.75 -33.5 11.85 -27.55 14.85 -31.8 7.95 -34.7 0.05 L-35.0 -0.7 Q-40.3 -15.35 -50.15 -28.35 L-50.3 -28.55 -50.6 -28.95 -50.85 -29.25 -51.1 -29.6 -53.3 -32.3 -54.35 -33.55 -57.1 -36.55 -57.95 -37.4 -58.8 -38.25 -59.0 -38.4 -57.75 -37.65 -57.55 -37.4 -53.05 -32.3 -45.95 -23.65 Q-35.95 -11.05 -33.2 -3.4 -31.95 0.0 -30.5 3.25 -27.0 10.85 -22.1 17.5 L-23.75 17.4 -25.45 17.4 -25.85 17.45 -27.55 14.85 -25.85 17.45 -26.3 17.45 -26.35 17.45 -26.6 20.75 -26.4 25.3 -26.6 20.75 -26.35 17.45 -26.3 17.45 Q-25.9 22.0 -24.6 25.95 L-22.95 30.15 Q-20.1 36.25 -15.05 39.9 L-12.65 41.45 -12.0 41.8 -8.8 42.95 -8.45 43.0 -7.95 43.1 -7.85 43.3 -7.8 43.35 -7.05 44.45 -3.7 47.35 -2.85 47.85 -5.8 48.05 Q-9.85 47.95 -13.25 46.35 -18.65 43.5 -21.85 38.7 -24.75 34.45 -25.9 28.65 L-26.4 25.3 Q-33.55 22.8 -43.05 22.8 -43.55 24.45 -43.55 26.1 -50.35 23.1 -57.55 22.2 M-24.35 -10.4 Q-30.2 -21.7 -32.4 -33.6 L-34.1 -45.6 -34.2 -46.25 -33.25 -43.8 -33.0 -42.05 Q-30.35 -27.75 -19.85 -9.3 -16.55 -3.55 -12.9 1.9 L-10.4 5.45 -10.2 7.0 Q-16.05 -1.7 -24.35 -10.4 M-42.7 31.05 Q-43.5 28.7 -43.45 26.15 L-43.25 23.9 -42.65 26.5 -42.6 26.55 Q-41.0 31.35 -36.1 34.55 -34.4 35.65 -32.35 36.55 L-33.6 36.25 -41.25 33.9 -42.7 31.05 M-23.7 53.45 Q-27.0 52.65 -29.95 51.3 L-30.55 51.0 -29.95 51.3 Q-27.0 52.65 -23.7 53.45 M-52.8 7.5 L-56.85 7.5 -52.8 7.5 M25.35 54.2 L30.95 53.1 25.35 54.2" fill="#000000" fill-opacity="0.29803923" fill-rule="evenodd" stroke="none"/>
    <path d="M19.35 -17.7 Q26.25 -22.7 36.45 -28.35 L50.05 -35.4 49.95 -35.25 49.65 -34.85 47.5 -33.5 33.85 -25.15 Q24.1 -18.95 18.05 -14.35 L13.35 -10.6 11.9 -9.25 8.8 -5.6 8.9 -8.2 Q11.0 -11.0 13.35 -13.05 L13.5 -13.15 19.35 -17.7" fill="#ffffff" fill-opacity="0.09803922" fill-rule="evenodd" stroke="none"/>
    <path d="M-58.3 -37.7 L-58.85 -38.25 -58.8 -38.25 -57.95 -37.4 -58.3 -37.7 M-10.5 4.75 L-10.2 7.05 -10.2 7.0 -10.4 5.45 -10.5 4.75 M2.55 16.9 L3.2 17.45 3.1 17.4 2.55 16.9 M8.8 -5.5 L8.75 -4.35 8.75 -4.05 8.8 -5.5 M7.7 9.95 L7.65 10.6 7.6 10.8 7.65 10.35 7.7 9.95 M-32.35 36.55 L-31.6 36.75 -32.3 36.6 -32.35 36.55 M48.25 41.55 L47.25 42.75 47.45 42.45 47.75 42.15 48.25 41.55 M30.25 12.5 L29.35 13.2 27.85 14.35 27.2 14.85 26.55 15.3 30.25 12.5" fill="#c0c2c4" fill-rule="evenodd" stroke="none"/>
    <path d="M50.05 -35.4 L49.9 -35.05 49.75 -34.9 49.7 -34.9 49.95 -35.25 50.05 -35.4 M-34.15 -46.0 L-34.2 -46.05 -34.2 -46.25 -34.15 -46.0" fill="#bcbec0" fill-rule="evenodd" stroke="none"/>
    <path d="M52.3 -25.65 L52.35 -25.8 52.85 -26.2 52.3 -25.65 M83.8 46.2 L83.9 46.15 84.15 46.25 83.8 46.2 M10.7 53.45 L9.85 53.3 9.8 53.3 10.7 53.45 M-34.1 -45.6 L-34.15 -46.0 -34.2 -46.25 -34.1 -45.6 M-34.2 -46.25 L-33.55 -45.7 -33.5 -45.4 -33.25 -43.8 -34.2 -46.25 M-7.8 43.35 L-7.85 43.3 -7.8 43.35 M-32.35 36.55 L-32.3 36.6 -33.6 36.25 -32.35 36.55 M-42.7 31.05 L-41.25 33.9 -41.3 33.9 -42.7 31.05 M-52.8 7.5 L-55.55 5.6 -52.4 7.5 -52.8 7.5 M49.25 40.2 L49.05 40.5 48.35 41.45 48.3 41.45 49.25 40.2 M46.3 43.75 L45.6 44.4 44.4 45.6 46.3 43.75 M43.35 46.5 L41.55 47.9 42.7 47.0 43.35 46.5" fill="#828486" fill-rule="evenodd" stroke="none"/>
    <path d="M43.7 -17.55 L52.3 -25.65 Q42.95 -3.6 33.65 6.6 31.05 9.45 28.5 11.35 L9.95 25.15 6.45 20.75 7.0 16.25 7.1 15.6 7.4 12.65 Q11.55 8.0 17.35 5.0 26.25 0.4 37.25 -10.65 L43.7 -17.55 M39.8 3.55 Q45.45 1.65 52.4 -0.1 L66.9 -3.3 66.55 -3.2 40.7 13.45 39.2 15.15 34.3 19.6 31.85 21.5 Q27.7 21.75 19.15 25.2 15.25 26.75 12.4 29.35 L11.05 26.75 26.55 15.3 27.2 14.85 27.85 14.35 29.35 13.2 30.25 12.5 31.8 11.35 Q36.15 8.1 39.8 3.55 M83.6 24.55 L88.5 24.6 53.7 37.65 50.45 38.55 52.7 34.7 54.2 31.2 54.7 30.0 49.8 32.8 Q42.7 35.95 31.8 37.85 L30.35 38.15 31.35 36.4 33.15 32.15 Q39.3 29.25 43.85 26.65 L61.6 25.65 68.9 25.25 83.6 24.55 M48.25 41.55 Q52.9 41.55 83.75 46.2 74.95 50.6 57.6 52.75 43.25 54.5 30.95 53.1 L31.2 53.0 Q36.8 51.35 41.55 47.9 L43.35 46.5 43.8 46.1 43.95 46.0 44.4 45.6 45.6 44.4 46.3 43.75 46.7 43.3 47.25 42.75 48.25 41.55 M-81.55 46.05 L-81.1 45.85 Q-73.05 42.6 -63.6 41.45 L-63.4 41.45 -48.55 40.95 -42.65 41.4 -48.55 40.95 -57.8 38.9 Q-70.1 35.3 -85.15 30.3 L-89.6 28.8 Q-78.75 22.55 -66.4 21.9 L-57.55 22.2 Q-50.35 23.1 -43.55 26.1 -43.55 24.45 -43.05 22.8 -33.55 22.8 -26.4 25.3 L-25.9 28.65 Q-24.75 34.45 -21.85 38.7 L-26.0 37.85 -26.4 37.8 -31.6 36.75 -32.35 36.55 Q-34.4 35.65 -36.1 34.55 -41.0 31.35 -42.6 26.55 L-42.65 26.5 -43.25 23.9 -43.45 26.15 Q-43.5 28.7 -42.7 31.05 L-41.3 33.9 -43.95 32.8 Q-47.5 31.2 -48.85 30.0 -47.0 36.15 -42.65 41.4 -40.6 43.85 -37.95 46.1 L-36.35 47.4 -35.8 47.8 -30.55 51.0 -31.95 51.3 -33.2 51.5 -45.35 52.55 Q-55.7 52.75 -66.45 50.5 -75.75 48.6 -81.55 46.05 M-84.4 -15.35 L-73.55 -15.35 Q-52.3 -12.3 -34.7 0.05 -31.8 7.95 -27.55 14.85 -33.5 11.85 -39.0 9.75 -44.25 7.75 -52.4 7.5 L-55.55 5.6 -63.0 0.3 Q-74.85 -8.15 -84.4 -15.35 M-42.7 31.05 Q-43.65 28.55 -43.55 26.1 -43.65 28.55 -42.7 31.05 M9.55 23.8 Q13.55 21.8 19.1 18.1 27.35 12.65 33.65 6.6 27.35 12.65 19.1 18.1 13.55 21.8 9.55 23.8" fill="#ffffff" fill-opacity="0.0" fill-rule="evenodd" stroke="none"/>
    <path d="M-59.0 -38.4 L-57.9 -37.8 -57.75 -37.65 -59.0 -38.4" fill="#999b9e" fill-rule="evenodd" stroke="none"/>
    <path d="M-9.95 -17.05 L-10.5 4.75 -10.4 5.45 -12.9 1.9 Q-16.55 -3.55 -19.85 -9.3 -30.35 -27.75 -33.0 -42.05 L-33.25 -43.8 -33.5 -45.4 Q-25.35 -37.95 -20.4 -32.45 -12.25 -23.4 -9.95 -17.05 M-2.9 20.1 L-1.7 14.5 Q-0.55 18.05 -1.85 22.5 L-2.55 24.45 -4.3 29.2 -5.15 31.8 -5.9 34.75 -6.4 37.25 Q-6.95 41.4 -5.15 44.5 L-4.6 45.4 Q-3.35 47.1 -1.35 48.4 L-0.8 48.75 0.35 49.35 -0.25 49.1 -2.1 48.25 -2.85 47.85 -3.7 47.35 -7.05 44.45 -7.8 43.35 Q-8.6 42.1 -8.95 40.7 L-9.2 39.45 -9.15 39.85 Q-9.6 37.1 -8.5 34.15 L-8.25 33.6 -8.2 33.45 -8.1 33.25 -7.15 31.35 -7.1 31.3 -7.0 31.15 -6.25 29.7 -4.95 26.75 -4.95 26.7 Q-3.95 24.05 -3.05 20.7 L-2.9 20.1 M-12.15 2.1 Q-16.9 -2.65 -26.0 -24.9 L-33.25 -43.8 -26.0 -24.9 Q-16.9 -2.65 -12.15 2.1" fill="#000000" fill-opacity="0.047058824" fill-rule="evenodd" stroke="none"/>
    <path d="M-7.85 43.3 L-7.95 43.1 -8.65 41.7 -8.7 41.5 -9.0 40.55 -9.0 40.5 -9.15 39.85 -9.2 39.45 -8.95 40.7 Q-8.6 42.1 -7.8 43.35 L-7.85 43.3 M6.35 48.65 L7.2 47.7 7.8 46.95 7.2 47.7 7.0 47.95 6.35 48.65" fill="#cbccce" fill-rule="evenodd" stroke="none"/>
    <path d="M-26.8 53.65 L-26.95 53.7 -26.95 53.65 -26.8 53.65" fill="#c5c6c8" fill-rule="evenodd" stroke="none"/>
    <path d="M-26.95 53.7 L-27.05 53.65 -26.95 53.65 -26.95 53.7" fill="#dcddde" fill-rule="evenodd" stroke="none"/>
    <path d="M9.85 53.3 L9.05 53.15 9.65 53.25 9.8 53.3 9.85 53.3 M47.25 42.75 L46.7 43.3 46.3 43.75 47.75 42.15 47.45 42.45 47.25 42.75 M44.4 45.6 L43.95 46.0 43.8 46.1 43.35 46.5 42.7 47.0 44.4 45.6 M46.7 43.3 L47.45 42.45 46.7 43.3 M4.25 50.65 L4.3 50.65 4.25 50.65" fill="#dadbdc" fill-rule="evenodd" stroke="none"/>
    <path d="M0.35 49.35 L0.45 49.4 -0.25 49.1 0.35 49.35" fill="#b4b5b8" fill-rule="evenodd" stroke="none"/>
    <path d="M-9.0 -21.9 L-8.5 -24.15 Q-4.0 -42.2 4.05 -51.25 5.85 -53.25 7.7 -54.65 L9.1 -55.65 10.9 -56.5 11.15 -56.65 11.15 -56.55 10.05 -39.65 10.0 -38.85 9.95 -38.15 9.4 -27.3 M9.4 -26.8 L19.0 -36.2 29.25 -45.05 29.95 -45.65 30.25 -45.9 19.35 -17.7 Q26.25 -22.7 36.45 -28.35 L50.05 -35.4 49.95 -35.25 49.65 -34.85 M49.75 -34.9 L48.55 -33.35 38.3 -19.8 Q26.8 -4.85 23.75 -1.7 M20.55 0.35 Q28.85 -4.3 41.2 -15.25 L43.7 -17.55 52.3 -25.65 M52.85 -26.2 L51.95 -22.1 Q50.6 -17.05 48.65 -12.15 44.95 -3.0 39.8 3.55 45.45 1.65 52.4 -0.1 L66.9 -3.3 49.7 11.45 73.6 2.35 75.6 1.5 78.55 0.3 76.8 1.8 67.15 9.8 Q59.8 15.75 54.05 19.9 L47.15 24.6 55.75 24.4 61.6 24.35 73.55 24.4 83.6 24.55 88.5 24.6 89.6 24.6 57.15 39.0 48.35 41.45 M48.25 41.55 Q52.9 41.55 83.75 46.2 M84.15 46.25 L79.3 49.05 Q72.95 52.2 65.6 54.15 46.0 59.25 25.35 54.2 21.0 54.7 16.25 54.25 L10.7 53.45 M9.05 53.15 L6.4 52.5 4.25 51.9 2.95 51.5 Q-12.15 56.2 -23.7 53.45 L-26.8 53.65 M-27.05 53.65 L-44.65 55.05 Q-56.7 56.2 -70.3 51.25 -75.1 49.5 -78.7 47.65 L-81.55 46.05 M-81.1 45.85 Q-73.05 42.6 -63.6 41.45 L-69.8 39.2 Q-74.2 37.4 -78.85 35.0 L-81.2 33.75 -89.6 28.8 Q-78.75 22.55 -66.4 21.9 L-57.55 22.2 Q-62.85 20.3 -68.25 17.75 L-86.8 11.55 Q-78.75 9.6 -68.8 8.4 L-56.85 7.5 -68.0 -1.25 -75.95 -7.85 Q-80.8 -11.5 -83.2 -14.05 M-83.35 -14.35 L-84.4 -15.35 -73.55 -15.35 Q-52.3 -12.3 -34.7 0.05 L-35.0 -0.7 Q-40.3 -15.35 -50.15 -28.35 L-50.3 -28.55 -50.6 -28.95 M-50.85 -29.25 L-51.1 -29.6 -53.3 -32.3 -54.35 -33.55 -57.1 -36.55 -58.3 -37.7 -58.85 -38.25 -59.0 -38.4 -57.75 -37.65 -57.35 -37.4 -55.9 -36.25 -52.15 -33.55 -45.35 -28.1 -31.25 -17.15 -24.35 -10.4 Q-30.2 -21.7 -32.4 -33.6 L-34.1 -45.6 M-57.75 -37.65 L-57.35 -37.4 M-34.2 -46.25 Q-27.45 -41.35 -20.2 -34.4 -13.25 -27.75 -9.0 -21.9 M29.95 -45.6 L29.25 -45.05 M49.7 -34.9 L49.95 -35.25 M-58.3 -37.7 L-57.95 -37.4 -57.1 -36.55 M9.65 53.25 L9.05 53.15" fill="none" stroke="#000000" stroke-linecap="round" stroke-linejoin="miter-clip" stroke-miterlimit="4.0" stroke-width="1.0"/>
    <path d="M9.4 -27.3 L9.4 -26.8 Q9.0 -19.35 8.95 -14.55 L8.95 -14.4 8.95 -14.35 8.95 -12.75 8.95 -12.0 8.95 -11.7 8.9 -8.2 8.8 -5.6 8.8 -5.5 8.75 -4.35 8.75 -4.05 7.7 9.95 7.65 10.6 M48.35 41.45 L48.25 41.55 47.25 42.75 46.7 43.3 46.3 43.75 44.4 45.6 43.95 46.0 43.8 46.1 43.35 46.5 41.55 47.9 Q36.8 51.35 31.2 53.0 L30.95 53.1 25.35 54.2 M83.75 46.2 L83.8 46.2 84.15 46.25 M10.7 53.45 L9.85 53.3 9.05 53.15 M-26.8 53.65 L-26.95 53.7 -27.05 53.65 -26.95 53.65 -26.8 53.65 M-81.55 46.05 L-81.1 45.85 M-50.6 -28.95 L-50.85 -29.25 M-34.1 -45.6 L-34.15 -46.0 M-9.0 -21.9 L-9.95 -17.2 -9.95 -17.05 -10.5 4.75 -10.2 7.05 Q-5.85 13.55 -2.9 20.1 L-1.7 14.5 Q-0.5 14.65 1.7 16.25 L1.8 16.35 1.9 16.4 2.0 16.5 2.1 16.55 2.55 16.9 3.2 17.45 3.1 17.4 2.55 16.9 M13.5 -13.15 L19.35 -17.7 M8.9 -8.2 Q11.0 -11.0 13.35 -13.05 L13.5 -13.15 M7.6 10.8 L7.7 10.65 8.25 10.0 20.55 0.35 M8.75 -4.05 L8.8 -5.5 M52.3 -25.65 L52.85 -26.2 M31.85 21.5 L32.6 21.45 Q33.85 21.45 34.4 21.8 L34.45 21.8 34.8 22.2 34.65 24.1 36.25 22.95 46.5 14.2 49.7 11.45 M-34.2 -46.25 L-33.25 -43.8 M-34.2 -46.25 L-34.1 -45.6 M-5.0 26.65 L-4.95 26.7 Q-3.95 24.05 -3.05 20.7 L-2.9 20.1 M-10.2 7.05 L-10.2 7.0 Q-16.05 -1.7 -24.35 -10.4 M-10.4 5.45 L-10.2 7.0 M-10.5 4.75 L-10.4 5.45 M-23.75 17.4 L-22.1 17.5 Q-13.3 18.35 -5.0 26.65 M-4.95 26.75 L-4.95 26.7 M-27.55 14.85 L-25.85 17.45 -25.45 17.4 -23.75 17.4 M-26.3 17.45 L-26.35 17.45 -26.6 20.75 -26.4 25.3 -25.9 28.65 Q-24.75 34.45 -21.85 38.7 -18.65 43.5 -13.25 46.35 -9.85 47.95 -5.8 48.05 L-2.85 47.85 -3.7 47.35 -7.05 44.45 -7.8 43.35 -7.85 43.3 -7.95 43.1 -8.65 41.7 -8.7 41.5 -9.0 40.55 -9.0 40.5 -9.15 39.85 -9.2 39.45 M-26.3 17.45 L-25.85 17.45 M-52.4 7.5 Q-44.25 7.75 -39.0 9.75 -33.5 11.85 -27.55 14.85 -31.8 7.95 -34.7 0.05 M-32.35 36.55 L-31.6 36.75 -26.4 37.8 -26.0 37.85 -21.85 38.7 M-42.7 31.05 L-41.25 33.9 -33.6 36.25 -32.35 36.55 M-48.85 30.0 Q-47.0 36.15 -42.65 41.4 -40.6 43.85 -37.95 46.1 L-36.35 47.4 -35.8 47.8 -30.55 51.0 -29.95 51.3 Q-27.0 52.65 -23.7 53.45 M-4.95 26.75 L-6.25 29.7 -7.0 31.15 -7.1 31.3 -7.15 31.35 -8.1 33.25 -8.2 33.45 -8.25 33.6 -8.5 34.15 Q-9.6 37.1 -9.15 39.85 M-0.25 49.1 L-2.1 48.25 -2.85 47.85 M-7.85 43.3 L-7.8 43.35 M-52.8 7.5 L-52.4 7.5 M-56.85 7.5 L-52.8 7.5 M-48.55 40.95 L-63.4 41.45 -63.6 41.45 M-41.3 33.9 L-41.25 33.9 M-43.55 26.1 Q-43.65 28.55 -42.7 31.05 M-41.3 33.9 L-43.95 32.8 Q-47.5 31.2 -48.85 30.0 M-42.65 41.4 L-48.55 40.95 M-26.4 25.3 Q-33.55 22.8 -43.05 22.8 -43.55 24.45 -43.55 26.1 -50.35 23.1 -57.55 22.2 M75.6 1.5 L74.7 1.9 73.6 2.35 M34.25 27.8 L33.15 32.15 Q39.3 29.25 43.85 26.65 L46.25 25.2 47.15 24.6 M54.7 30.0 L54.2 31.2 52.3 35.4 49.25 40.2 49.05 40.5 48.35 41.45 48.3 41.45 48.25 41.55 47.75 42.15 47.45 42.45 46.7 43.3 M9.65 53.25 L9.8 53.3 10.7 53.45 M48.3 41.45 L49.25 40.2 M42.7 47.0 L43.35 46.5 M42.7 47.0 L41.55 47.9 M30.35 38.15 L31.8 37.85 Q42.7 35.95 49.8 32.8 L54.7 30.0 M39.8 3.55 Q36.15 8.1 31.8 11.35 L30.25 12.5 26.55 15.3 11.05 26.75 12.4 29.35 Q15.25 26.75 19.15 25.2 27.7 21.75 31.85 21.5 M29.35 13.2 L27.85 14.35 27.2 14.85 26.55 15.3 M7.6 10.8 L8.25 10.0 M7.6 10.8 L7.65 10.35 7.7 9.95 M7.0 16.25 L7.1 15.6 7.4 12.65 7.6 10.8 M4.65 50.3 L5.05 49.95 5.9 49.1 5.95 49.05 6.35 48.65 7.0 47.95 7.2 47.7 7.8 46.95 8.75 45.6 9.7 44.25 10.3 43.4 10.55 42.9 11.25 41.6 Q14.6 34.9 12.4 29.35 M3.2 17.45 L6.4 20.65 7.0 16.25 M6.45 20.75 L9.95 25.15 10.9 26.55 11.05 26.75 M0.35 49.35 L-0.25 49.1 M30.35 38.15 L31.35 36.4 33.15 32.15 M34.65 24.1 L34.4 26.75 34.25 27.8 M7.2 47.7 Q23.3 49.3 30.35 38.15 M4.25 50.65 L4.3 50.65 4.65 50.3 M1.0 49.75 L1.15 49.65 0.35 49.35 M-0.8 48.75 L4.25 50.65" fill="none" stroke="#000000" stroke-linecap="round" stroke-linejoin="miter-clip" stroke-miterlimit="4.0" stroke-opacity="0.6" stroke-width="1.0"/>
    <path d="M-33.25 -43.8 L-26.0 -24.9 Q-16.9 -2.65 -12.15 2.1 M1.0 49.75 L-5.5 49.4 -7.95 49.3 -13.75 49.05 Q-25.25 48.65 -35.35 42.35 L-39.7 39.25 Q-45.7 34.55 -48.85 30.0 M-55.55 5.6 L-52.8 7.5 M-55.55 5.6 L-63.0 0.3 Q-74.85 -8.15 -84.4 -15.35 M-57.8 38.9 L-52.3 40.45 M-57.8 38.9 Q-70.1 35.3 -85.15 30.3 L-89.6 28.8 M-81.55 46.05 Q-75.75 48.6 -66.45 50.5 -55.7 52.75 -45.35 52.55 L-33.2 51.5 -31.95 51.3 -30.55 51.0 M33.65 6.6 L37.65 2.5 M33.65 6.6 Q27.35 12.65 19.1 18.1 13.55 21.8 9.55 23.8 M31.2 28.2 L30.6 29.5 Q29.05 32.5 26.5 35.15 23.3 38.5 18.45 41.35 L17.95 41.65 12.9 44.2 8.75 45.6" fill="none" stroke="#000000" stroke-linecap="round" stroke-linejoin="miter-clip" stroke-miterlimit="4.0" stroke-opacity="0.4" stroke-width="1.0"/>
  </g>
</svg>
