<?xml version="1.0" encoding="UTF-8" standalone="no"?>
<svg xmlns:xlink="http://www.w3.org/1999/xlink" height="518.4px" width="1553.1px" xmlns="http://www.w3.org/2000/svg">
  <g transform="matrix(1.0, 0.0, 0.0, 1.0, 776.55, 222.1)">
    <path d="M340.8 -147.85 Q360.75 -130.15 398.6 -108.75 439.45 -85.65 484.6 -67.85 528.2 -50.65 592.0 -35.95 651.0 -22.4 690.05 -19.05 658.0 -28.1 623.9 -41.1 652.75 -44.4 681.9 -55.2 715.15 -67.55 776.05 -99.15 L776.05 295.8 -776.05 295.8 -776.05 -62.55 Q-694.55 -100.4 -617.2 -134.55 -541.65 -167.95 -502.25 -183.65 -459.9 -200.45 -431.3 -208.25 -382.15 -221.6 -336.65 -221.6 L-312.85 -220.6 -292.3 -217.95 Q-282.55 -212.1 -271.9 -202.3 -264.0 -195.0 -260.45 -190.45 -254.5 -182.8 -251.5 -173.85 -248.9 -166.0 -248.9 -158.35 -248.9 -135.25 -274.65 -111.5 -305.65 -82.9 -376.3 -50.5 -457.7 -13.2 -473.5 -6.8 L-483.65 -3.0 Q-490.05 -0.7 -501.9 4.3 -532.55 17.2 -613.65 49.85 -614.25 53.1 -614.25 54.6 -614.25 71.75 -583.45 80.1 -552.55 88.5 -489.1 88.5 -421.25 88.5 -311.15 78.5 -193.4 67.8 -76.25 49.85 L124.9 17.6 Q76.25 12.15 53.55 -0.05 34.8 -10.05 34.8 -23.85 34.8 -47.4 88.25 -79.3 130.3 -104.4 218.2 -141.4 223.1 -141.95 248.3 -147.55 276.15 -152.9 298.8 -152.9 L324.3 -151.25 Q334.85 -149.85 340.8 -147.85" fill="#ffffff" fill-opacity="0.0" fill-rule="evenodd" stroke="none"/>
    <path d="M505.3 -86.2 Q531.35 -77.35 566.4 -72.0 600.5 -66.85 630.7 -66.85 663.2 -66.85 691.15 -72.35 728.3 -79.65 776.05 -99.15 715.15 -67.55 681.9 -55.2 652.75 -44.4 623.9 -41.1 658.0 -28.1 690.05 -19.05 651.0 -22.4 592.0 -35.95 528.2 -50.65 484.6 -67.85 439.45 -85.65 398.6 -108.75 360.75 -130.15 340.8 -147.85 L343.0 -147.3 373.85 -137.3 397.8 -127.8 410.6 -122.65 414.95 -120.85 445.4 -108.3 457.15 -103.6 458.2 -103.2 Q470.5 -98.25 486.3 -92.6 500.2 -87.65 505.3 -86.2 M-292.3 -217.95 L-292.4 -218.05 -291.2 -217.85 -290.0 -217.6 -289.75 -217.55 Q-274.35 -215.3 -199.85 -188.7 -124.0 -161.05 -113.8 -157.9 -65.0 -141.1 -33.4 -132.5 23.8 -116.9 70.5 -116.9 84.05 -116.9 102.7 -119.2 123.35 -121.8 156.5 -127.95 L168.95 -130.5 169.0 -130.5 175.75 -132.0 176.3 -132.1 176.8 -132.2 194.9 -136.15 218.2 -141.4 Q130.3 -104.4 88.25 -79.3 34.8 -47.4 34.8 -23.85 34.8 -10.05 53.55 -0.05 76.25 12.15 124.9 17.6 L-76.25 49.85 Q-193.4 67.8 -311.15 78.5 -421.25 88.5 -489.1 88.5 -552.55 88.5 -583.45 80.1 -614.25 71.75 -614.25 54.6 -614.25 53.1 -613.65 49.85 -532.55 17.2 -501.9 4.3 -490.05 -0.7 -483.65 -3.0 L-473.5 -6.8 Q-457.7 -13.2 -376.3 -50.5 -305.65 -82.9 -274.65 -111.5 -248.9 -135.25 -248.9 -158.35 -248.9 -166.0 -251.5 -173.85 -254.5 -182.8 -260.45 -190.45 -264.0 -195.0 -271.9 -202.3 -282.55 -212.1 -292.3 -217.95 L-291.2 -217.85 -292.3 -217.95" fill="#000000" fill-opacity="0.14901961" fill-rule="evenodd" stroke="none"/>
    <path d="M505.3 -86.2 Q500.2 -87.65 486.3 -92.6 470.5 -98.25 458.2 -103.2 L504.65 -86.45 505.3 -86.2" fill="#bcbec0" fill-rule="evenodd" stroke="none"/>
    <path d="M445.4 -108.3 L414.95 -120.85 410.6 -122.65 Q432.95 -113.7 445.4 -108.3" fill="#cfd0d2" fill-rule="evenodd" stroke="none"/>
    <path d="M776.05 -99.15 Q728.3 -79.65 691.15 -72.35 663.2 -66.85 630.7 -66.85 600.5 -66.85 566.4 -72.0 531.35 -77.35 505.3 -86.2 500.2 -87.65 486.3 -92.6 470.5 -98.25 458.2 -103.2 L504.65 -86.45 M457.15 -103.6 L445.4 -108.3 Q432.95 -113.7 410.6 -122.65 L397.8 -127.8 373.85 -137.3 343.0 -147.3 340.8 -147.85 Q334.85 -149.85 324.3 -151.25 L298.8 -152.9 Q276.15 -152.9 248.3 -147.55 223.1 -141.95 218.2 -141.4 L194.9 -136.15 176.8 -132.2 176.3 -132.1 M776.05 -99.15 L776.05 295.8 -776.05 295.8 -776.05 -62.55 Q-694.55 -100.4 -617.2 -134.55 -541.65 -167.95 -502.25 -183.65 -459.9 -200.45 -431.3 -208.25 -382.15 -221.6 -336.65 -221.6 L-312.85 -220.6 -292.3 -217.95 -291.2 -217.85 -290.0 -217.6 M-289.75 -217.55 Q-274.35 -215.3 -199.85 -188.7 -124.0 -161.05 -113.8 -157.9 -65.0 -141.1 -33.4 -132.5 23.8 -116.9 70.5 -116.9 84.05 -116.9 102.7 -119.2 123.35 -121.8 156.5 -127.95 L168.95 -130.5 M169.0 -130.5 L175.75 -132.0 176.8 -132.2 M343.0 -147.3 L355.45 -143.55 373.85 -137.3" fill="none" stroke="#000000" stroke-linecap="round" stroke-linejoin="miter-clip" stroke-miterlimit="4.0" stroke-width="1.0"/>
  </g>
</svg>
