<?xml version="1.0" encoding="UTF-8" standalone="no"?>
<svg xmlns:xlink="http://www.w3.org/1999/xlink" height="104.4px" width="133.55px" xmlns="http://www.w3.org/2000/svg">
  <g transform="matrix(1.0, 0.0, 0.0, 1.0, 66.75, 52.2)">
    <path d="M32.55 -6.7 L32.55 -8.6 -34.35 -8.6 -34.35 21.55 -31.1 21.55 -31.1 -6.7 32.55 -6.7 32.55 21.55 -31.1 21.55 32.55 21.55 32.55 -6.7 M53.0 -14.35 L53.0 29.45 57.0 29.45 Q57.4 31.9 61.9 33.8 64.15 34.75 66.3 35.2 L66.3 51.7 -65.65 51.7 -65.65 35.2 -61.2 33.8 Q-56.7 31.9 -56.35 29.45 L-53.55 29.45 -53.55 -14.35 53.0 -14.35 M-53.55 -20.75 L-56.95 -20.75 Q-57.35 -25.0 -61.85 -28.25 L-66.25 -30.65 -66.25 -42.4 -47.65 -51.7 41.5 -51.7 65.7 -42.4 65.7 -30.65 Q63.55 -29.85 61.3 -28.25 56.8 -25.0 56.4 -20.75 L53.0 -20.75 -53.55 -20.75 M65.7 -30.65 L-66.25 -30.65 65.7 -30.65 M-53.55 29.45 L53.0 29.45 -53.55 29.45 M-65.65 35.2 L66.3 35.2 -65.65 35.2 M-66.25 -42.4 L65.7 -42.4 -66.25 -42.4" fill="#ffffff" fill-opacity="0.0" fill-rule="evenodd" stroke="none"/>
    <path d="M-31.1 21.55 L-34.35 21.55 -34.35 -8.6 32.55 -8.6 32.55 -6.7 -31.1 -6.7 -31.1 21.55 M53.0 -20.75 L53.0 -14.35 -53.55 -14.35 -53.55 -20.75 53.0 -20.75" fill="#000000" fill-opacity="0.24705882" fill-rule="evenodd" stroke="none"/>
    <path d="M53.0 -20.75 L53.0 -14.35 53.0 29.45 57.0 29.45 Q57.4 31.9 61.9 33.8 64.15 34.75 66.3 35.2 L66.3 51.7 -65.65 51.7 -65.65 35.2 -61.2 33.8 Q-56.7 31.9 -56.35 29.45 L-53.55 29.45 -53.55 -14.35 -53.55 -20.75 -56.95 -20.75 Q-57.35 -25.0 -61.85 -28.25 L-66.25 -30.65 -66.25 -42.4 -47.65 -51.7 41.5 -51.7 65.7 -42.4 65.7 -30.65 Q63.55 -29.85 61.3 -28.25 56.8 -25.0 56.4 -20.75 L53.0 -20.75" fill="none" stroke="#000000" stroke-linecap="round" stroke-linejoin="miter-clip" stroke-miterlimit="4.0" stroke-width="1.0"/>
    <path d="M32.55 -6.7 L32.55 -8.6 -34.35 -8.6 -34.35 21.55 -31.1 21.55 32.55 21.55 32.55 -6.7 M53.0 -20.75 L-53.55 -20.75 M-66.25 -30.65 L65.7 -30.65 M65.7 -42.4 L-66.25 -42.4 M66.3 35.2 L-65.65 35.2 M53.0 29.45 L-53.55 29.45" fill="none" stroke="#000000" stroke-linecap="round" stroke-linejoin="miter-clip" stroke-miterlimit="4.0" stroke-opacity="0.6" stroke-width="1.0"/>
  </g>
</svg>
