<?xml version="1.0" encoding="UTF-8" standalone="no"?>
<svg xmlns:xlink="http://www.w3.org/1999/xlink" height="759.0px" width="1977.75px" xmlns="http://www.w3.org/2000/svg">
  <g transform="matrix(1.0, 0.0, 0.0, 1.0, 988.85, 435.5)">
    <path d="M-262.35 -340.4 L-987.0 -340.2 -987.0 -413.35 987.0 -414.05 987.0 -340.9 282.65 -340.65 282.65 -361.8 273.45 -361.8 273.45 -340.65 271.6 -340.65 271.6 -361.3 271.6 -340.65 172.15 -340.6 172.15 -361.3 -151.9 -361.3 -151.9 -340.45 -251.3 -340.4 -253.15 -340.4 -253.15 -361.8 -262.35 -361.8 -262.35 -340.4 M-251.3 -361.3 L-251.3 -340.4 -251.3 -361.3" fill="#000000" fill-opacity="0.14901961" fill-rule="evenodd" stroke="none"/>
    <path d="M282.65 -340.65 L987.0 -340.9 987.0 -414.05 -987.0 -413.35 -987.0 -340.2 -262.35 -340.4 -262.35 202.75 -253.15 202.75 -253.15 -340.4 -251.3 -340.4 -151.9 -340.45 -151.5 142.45 -151.9 202.55 -136.25 202.95 -136.25 -340.45 157.5 -340.6 157.35 202.3 171.65 202.4 171.8 -303.95 172.15 -340.6 271.6 -340.65 273.45 -340.65 273.45 202.75 282.65 202.75 282.65 -340.65 M271.6 202.5 L271.6 -340.65 271.6 202.5 M-251.3 202.5 L-251.3 -340.4 -251.3 202.5 M557.35 -308.35 L557.3 -308.35 557.25 -308.4 557.2 -308.45 550.6 -312.7 549.75 -313.25 549.25 -313.55 548.75 -313.85 545.1 -315.9 Q517.75 -330.95 482.4 -335.2 L482.4 -335.55 481.05 -335.4 479.65 -335.55 479.65 -335.2 Q435.95 -329.95 404.4 -308.15 379.2 -290.65 362.9 -263.4 351.25 -243.95 345.25 -221.5 342.25 -210.3 341.55 -203.0 L341.55 150.55 354.45 150.55 395.55 150.55 478.35 150.55 478.35 151.45 492.05 151.45 492.05 150.55 620.5 150.55 620.5 120.6 620.5 106.8 620.5 -34.05 620.5 -47.85 620.5 -188.7 620.5 -202.5 620.5 -203.0 Q619.8 -210.3 616.8 -221.5 610.8 -243.95 599.15 -263.4 595.55 -269.4 591.6 -274.85 577.3 -294.5 557.65 -308.15 L557.45 -308.3 557.35 -308.35 M988.4 -435.0 L988.4 323.0 -988.35 323.0 -988.35 -435.0 988.4 -435.0 M-470.5 -335.55 L-471.8 -335.4 -471.85 -335.4 -473.2 -335.55 -473.25 -335.55 -473.25 -335.2 Q-516.95 -329.95 -548.5 -308.15 -573.7 -290.65 -590.0 -263.4 -601.65 -243.95 -607.65 -221.5 -610.65 -210.3 -611.35 -203.0 L-611.35 150.55 -598.45 150.55 -556.45 150.55 -474.55 150.55 -474.55 151.45 -460.85 151.45 -460.8 151.45 -460.8 150.55 -332.4 150.55 -332.35 150.55 -332.35 -203.0 Q-333.05 -210.3 -336.05 -221.5 -342.05 -243.95 -353.7 -263.4 L-353.9 -263.75 -354.15 -264.1 -358.55 -271.0 -359.85 -272.85 -361.65 -275.3 -363.9 -278.35 -364.05 -278.55 -364.15 -278.7 -364.25 -278.8 -364.4 -279.0 -364.75 -279.45 Q-370.75 -287.0 -377.6 -293.6 L-379.5 -295.4 -380.15 -296.0 -394.65 -307.7 -395.15 -308.05 -395.25 -308.15 -389.85 -304.2 -390.2 -304.5 -392.0 -305.85 -395.2 -308.15 -395.35 -308.25 Q-426.8 -329.95 -470.45 -335.2 L-470.45 -335.55 -470.5 -335.55 M-377.7 -293.75 L-377.95 -294.0 -378.1 -294.15 -379.35 -295.35 -379.75 -295.7 -377.7 -293.75 M-379.75 -295.7 L-389.85 -304.2 -379.75 -295.7" fill="#ffffff" fill-opacity="0.0" fill-rule="evenodd" stroke="none"/>
    <path d="M-262.35 -340.4 L-262.35 -361.8 -253.15 -361.8 -253.15 -340.4 -253.15 202.75 -262.35 202.75 -262.35 -340.4 M273.45 -340.65 L273.45 -361.8 282.65 -361.8 282.65 -340.65 282.65 202.75 273.45 202.75 273.45 -340.65" fill="#000000" fill-opacity="0.34901962" fill-rule="evenodd" stroke="none"/>
    <path d="M172.15 -340.6 L171.8 -303.95 171.65 202.4 157.35 202.3 157.5 -340.6 157.9 -341.05 172.15 -361.3 172.15 -340.6 M-136.25 -340.45 L-136.25 202.95 -151.9 202.55 -151.5 142.45 -151.9 -340.45 -151.9 -361.3 -136.25 -340.85 -136.25 -340.45 M491.05 -323.95 L492.05 -324.1 492.05 -280.4 492.05 -202.5 620.5 -202.5 620.5 -188.7 492.05 -188.7 492.05 -47.85 620.5 -47.85 620.5 -34.05 492.05 -34.05 492.05 106.8 620.5 106.8 620.5 120.6 492.05 120.6 492.05 150.55 478.35 150.55 478.35 120.6 395.55 120.6 354.45 120.6 354.45 106.8 395.55 106.8 478.35 106.8 478.35 -34.05 395.55 -34.05 354.45 -34.05 354.45 -47.85 395.55 -47.85 478.35 -47.85 478.35 -188.7 403.05 -188.7 354.45 -188.7 354.45 -191.95 Q354.9 -196.5 356.2 -202.5 L408.6 -202.5 478.35 -202.5 478.35 -274.65 478.35 -321.75 491.05 -323.95 M-598.45 120.6 L-598.45 106.8 -556.45 106.8 -474.55 106.8 -474.55 -34.05 -556.45 -34.05 -598.45 -34.05 -598.45 -47.85 -556.45 -47.85 -474.55 -47.85 -474.55 -188.7 -548.95 -188.7 -598.45 -188.7 -598.45 -191.95 Q-598.0 -196.5 -596.7 -202.5 L-543.4 -202.5 -474.55 -202.5 -474.55 -274.2 -474.55 -321.75 -461.85 -323.95 -460.85 -324.1 -460.85 -280.1 -460.85 -202.5 -332.4 -202.5 -332.4 -188.7 -460.85 -188.7 -460.85 -47.85 -332.4 -47.85 -332.4 -34.05 -460.85 -34.05 -460.85 106.8 -332.4 106.8 -332.4 120.6 -460.85 120.6 -460.85 150.55 -474.55 150.55 -474.55 120.6 -556.45 120.6 -598.45 120.6" fill="#000000" fill-opacity="0.2" fill-rule="evenodd" stroke="none"/>
    <path d="M157.5 -340.6 L-136.25 -340.45 -136.25 -340.85 157.9 -341.05 157.5 -340.6" fill="#d8d9da" fill-rule="evenodd" stroke="none"/>
    <path d="M172.15 -361.3 L157.9 -341.05 -136.25 -340.85 -151.9 -361.3 172.15 -361.3" fill="#000000" fill-opacity="0.44705883" fill-rule="evenodd" stroke="none"/>
    <path d="M492.05 -324.1 L491.05 -323.95 Q448.3 -318.55 417.3 -297.1 392.1 -279.6 375.8 -252.35 364.15 -232.9 358.15 -210.45 357.0 -206.2 356.2 -202.5 354.9 -196.5 354.45 -191.95 L354.45 -188.7 354.45 -47.85 354.45 -34.05 354.45 106.8 354.45 120.6 354.45 150.55 341.55 150.55 341.55 -203.0 Q342.25 -210.3 345.25 -221.5 351.25 -243.95 362.9 -263.4 379.2 -290.65 404.4 -308.15 435.95 -329.95 479.65 -335.2 L479.65 -335.55 481.05 -335.4 482.4 -335.55 482.4 -335.2 Q517.75 -330.95 545.1 -315.9 L548.75 -313.85 549.25 -313.55 550.6 -312.7 556.8 -308.7 556.85 -308.65 557.25 -308.4 557.3 -308.35 557.35 -308.35 557.75 -308.05 558.25 -307.7 572.75 -296.0 573.4 -295.4 575.3 -293.6 Q542.4 -318.55 495.3 -324.15 L495.3 -324.5 493.9 -324.35 492.55 -324.5 492.55 -324.15 492.05 -324.1 M-404.15 -313.85 L-403.65 -313.55 -403.4 -313.4 -402.5 -312.85 -402.3 -312.7 -395.9 -308.55 -395.75 -308.45 -395.6 -308.35 -395.55 -308.35 -395.15 -308.05 -394.65 -307.7 -380.15 -296.0 -379.5 -295.4 -377.6 -293.6 Q-410.5 -318.55 -457.6 -324.15 L-457.6 -324.5 -459.0 -324.35 -460.35 -324.5 -460.35 -324.15 -460.85 -324.1 -461.85 -323.95 Q-504.6 -318.55 -535.6 -297.1 -560.8 -279.6 -577.1 -252.35 -588.75 -232.9 -594.75 -210.45 L-596.7 -202.5 Q-598.0 -196.5 -598.45 -191.95 L-598.45 -188.7 -598.45 -47.85 -598.45 -34.05 -598.45 106.8 -598.45 120.6 -598.45 150.55 -611.35 150.55 -611.35 -203.0 Q-610.65 -210.3 -607.65 -221.5 -601.65 -243.95 -590.0 -263.4 -573.7 -290.65 -548.5 -308.15 -516.95 -329.95 -473.25 -335.2 L-473.25 -335.55 -473.2 -335.55 -471.85 -335.4 -471.8 -335.4 -470.5 -335.55 -470.5 -335.2 Q-435.15 -330.95 -407.8 -315.9 L-404.15 -313.85" fill="#000000" fill-opacity="0.24705882" fill-rule="evenodd" stroke="none"/>
    <path d="M557.75 -308.05 L557.35 -308.35 557.45 -308.3 557.75 -308.05 M557.25 -308.4 L556.85 -308.65 557.2 -308.45 557.25 -308.4 M550.6 -312.7 L549.25 -313.55 549.75 -313.25 550.6 -312.7 M-395.15 -308.05 L-395.55 -308.35 -395.45 -308.3 -395.25 -308.15 -395.15 -308.05 M-395.6 -308.35 L-395.75 -308.45 -395.7 -308.45 -395.6 -308.35 M-402.5 -312.85 L-403.4 -313.4 -403.15 -313.25 -402.5 -312.85" fill="#adafb2" fill-rule="evenodd" stroke="none"/>
    <path d="M556.85 -308.65 L556.8 -308.7 550.6 -312.7 557.2 -308.45 556.85 -308.65 M-395.75 -308.45 L-395.9 -308.55 -402.3 -312.7 -395.7 -308.45 -395.75 -308.45" fill="#ffffff" fill-rule="evenodd" stroke="none"/>
    <path d="M492.05 150.55 L492.05 151.45 478.35 151.45 478.35 150.55 492.05 150.55 M-460.85 151.45 L-474.55 151.45 -474.55 150.55 -460.85 150.55 -460.85 151.45" fill="#bec0c2" fill-rule="evenodd" stroke="none"/>
    <path d="M492.05 -324.1 L492.55 -324.15 492.55 -324.5 493.9 -324.35 495.3 -324.5 495.3 -324.15 Q542.4 -318.55 575.3 -293.6 L573.4 -295.4 572.75 -296.0 558.25 -307.7 557.75 -308.05 557.45 -308.3 557.65 -308.15 Q577.3 -294.5 591.6 -274.85 566.15 -286.6 533.65 -290.15 L533.15 -290.1 532.15 -289.95 519.45 -287.9 Q505.0 -285.15 492.05 -280.4 L492.05 -324.1 M354.45 150.55 L354.45 120.6 395.55 120.6 395.55 150.55 354.45 150.55 M354.45 106.8 L354.45 -34.05 395.55 -34.05 395.55 106.8 354.45 106.8 M354.45 -47.85 L354.45 -188.7 403.05 -188.7 Q400.9 -182.7 399.25 -176.45 L397.3 -168.5 Q396.0 -162.5 395.55 -157.95 L395.55 -47.85 354.45 -47.85 M356.2 -202.5 Q357.0 -206.2 358.15 -210.45 364.15 -232.9 375.8 -252.35 392.1 -279.6 417.3 -297.1 448.3 -318.55 491.05 -323.95 L478.35 -321.75 478.35 -274.65 Q467.45 -269.35 458.4 -263.1 433.2 -245.6 416.9 -218.35 412.3 -210.65 408.6 -202.5 L356.2 -202.5 M-598.45 150.55 L-598.45 120.6 -556.45 120.6 -556.45 150.55 -598.45 150.55 M-598.45 106.8 L-598.45 -34.05 -556.45 -34.05 -556.45 106.8 -598.45 106.8 M-598.45 -47.85 L-598.45 -188.7 -548.95 -188.7 Q-551.1 -182.7 -552.75 -176.45 L-554.7 -168.5 Q-556.0 -162.5 -556.45 -157.95 L-556.45 -47.85 -598.45 -47.85 M-596.7 -202.5 L-594.75 -210.45 Q-588.75 -232.9 -577.1 -252.35 -560.8 -279.6 -535.6 -297.1 -504.6 -318.55 -461.85 -323.95 L-474.55 -321.75 -474.55 -274.2 Q-484.55 -269.35 -493.6 -263.1 -518.8 -245.6 -535.1 -218.35 -539.7 -210.65 -543.4 -202.5 L-596.7 -202.5 M-460.85 -324.1 L-460.35 -324.15 -460.35 -324.5 -459.0 -324.35 -457.6 -324.5 -457.6 -324.15 Q-410.5 -318.55 -377.6 -293.6 -370.75 -287.0 -364.75 -279.45 L-364.4 -279.0 -364.25 -278.8 -364.05 -278.55 -363.9 -278.35 -361.65 -275.3 Q-385.8 -286.6 -415.6 -290.15 L-415.6 -290.5 -417.0 -290.35 -418.35 -290.5 -418.35 -290.15 -418.85 -290.1 -419.85 -289.95 -432.55 -287.9 Q-447.5 -285.05 -460.85 -280.1 L-460.85 -324.1" fill="#ffffff" fill-opacity="0.29803923" fill-rule="evenodd" stroke="none"/>
    <path d="M-251.3 -340.4 L-251.3 -361.3 M271.6 -340.65 L271.6 202.5 M271.6 -340.65 L271.6 -361.3 M-251.3 -340.4 L-251.3 202.5 M157.9 -341.05 L157.5 -340.6 M172.15 -361.3 L157.9 -341.05 M-136.25 -340.85 L-136.25 -340.45 M491.05 -323.95 L492.05 -324.1 492.55 -324.15 492.55 -324.5 493.9 -324.35 495.3 -324.5 495.3 -324.15 Q542.4 -318.55 575.3 -293.6 L573.4 -295.4 572.75 -296.0 558.25 -307.7 557.75 -308.05 557.35 -308.35 557.3 -308.35 557.25 -308.4 556.85 -308.65 556.8 -308.7 550.6 -312.7 549.25 -313.55 M548.75 -313.85 L545.1 -315.9 M482.4 -335.2 L482.4 -335.55 481.05 -335.4 479.65 -335.55 479.65 -335.2 M354.45 150.55 L354.45 120.6 354.45 106.8 354.45 -34.05 354.45 -47.85 354.45 -188.7 354.45 -191.95 Q354.9 -196.5 356.2 -202.5 357.0 -206.2 358.15 -210.45 364.15 -232.9 375.8 -252.35 392.1 -279.6 417.3 -297.1 448.3 -318.55 491.05 -323.95 L478.35 -321.75 478.35 -274.65 478.35 -202.5 408.6 -202.5 356.2 -202.5 M557.65 -308.15 L557.45 -308.3 M557.2 -308.45 L556.85 -308.65 M492.05 -280.4 Q505.0 -285.15 519.45 -287.9 L532.15 -289.95 533.15 -290.1 533.65 -290.15 Q566.15 -286.6 591.6 -274.85 M492.05 -280.4 L492.05 -202.5 620.5 -202.5 620.5 -203.0 M492.05 -324.1 L492.05 -280.4 M408.6 -202.5 Q412.3 -210.65 416.9 -218.35 433.2 -245.6 458.4 -263.1 467.45 -269.35 478.35 -274.65 M395.55 -47.85 L395.55 -157.95 Q396.0 -162.5 397.3 -168.5 L399.25 -176.45 Q400.9 -182.7 403.05 -188.7 L354.45 -188.7 M395.55 -47.85 L354.45 -47.85 M354.45 -34.05 L395.55 -34.05 478.35 -34.05 478.35 106.8 395.55 106.8 354.45 106.8 M403.05 -188.7 L478.35 -188.7 478.35 -47.85 395.55 -47.85 M620.5 -47.85 L492.05 -47.85 492.05 -188.7 620.5 -188.7 M620.5 106.8 L492.05 106.8 492.05 -34.05 620.5 -34.05 M492.05 150.55 L492.05 151.45 M478.35 151.45 L478.35 150.55 478.35 120.6 395.55 120.6 354.45 120.6 M492.05 150.55 L492.05 120.6 620.5 120.6 M395.55 150.55 L395.55 120.6 M988.4 323.0 L-988.35 323.0 M-988.35 -435.0 L988.4 -435.0 M395.55 106.8 L395.55 -34.05 M-403.4 -313.4 L-403.65 -313.55 -404.15 -313.85 M-470.5 -335.2 L-470.5 -335.55 -471.8 -335.4 M-471.85 -335.4 L-473.2 -335.55 -473.25 -335.55 -473.25 -335.2 M-598.45 -188.7 L-598.45 -191.95 M-461.85 -323.95 L-460.85 -324.1 -460.35 -324.15 -460.35 -324.5 -459.0 -324.35 -457.6 -324.5 -457.6 -324.15 M-380.15 -296.0 L-394.65 -307.7 -395.15 -308.05 -395.55 -308.35 M-395.6 -308.35 L-395.75 -308.45 -395.9 -308.55 -402.3 -312.7 -402.5 -312.85 -403.4 -313.4 -403.15 -313.25 -402.5 -312.85 M-395.7 -308.45 L-395.75 -308.45 M-395.45 -308.3 L-395.25 -308.15 M-474.55 -274.2 L-474.55 -321.75 -461.85 -323.95 M-460.85 -280.1 Q-447.5 -285.05 -432.55 -287.9 L-419.85 -289.95 -418.85 -290.1 -418.35 -290.15 -418.35 -290.5 -417.0 -290.35 -415.6 -290.5 -415.6 -290.15 Q-385.8 -286.6 -361.65 -275.3 M-332.4 -202.5 L-460.85 -202.5 -460.85 -280.1 -460.85 -324.1 M-474.55 -274.2 L-474.55 -202.5 -543.4 -202.5 -596.7 -202.5 M-474.55 151.45 L-474.55 150.55 -474.55 120.6 -556.45 120.6 -556.45 150.55 M-379.75 -295.7 L-377.7 -293.75 M-332.4 -203.0 L-332.4 -202.5 M-543.4 -202.5 Q-539.7 -210.65 -535.1 -218.35 -518.8 -245.6 -493.6 -263.1 -484.55 -269.35 -474.55 -274.2 M-556.45 -47.85 L-556.45 -157.95 Q-556.0 -162.5 -554.7 -168.5 L-552.75 -176.45 Q-551.1 -182.7 -548.95 -188.7 L-598.45 -188.7 M-556.45 -47.85 L-598.45 -47.85 M-598.45 -34.05 L-556.45 -34.05 -474.55 -34.05 -474.55 106.8 -556.45 106.8 -598.45 106.8 M-332.4 -47.85 L-460.85 -47.85 -460.85 -188.7 -332.4 -188.7 M-332.4 106.8 L-460.85 106.8 -460.85 -34.05 -332.4 -34.05 M-548.95 -188.7 L-474.55 -188.7 -474.55 -47.85 -556.45 -47.85 M-136.25 -340.85 L-151.9 -361.3 M-460.8 150.55 L-460.85 150.55 -460.85 151.45 M-460.85 150.55 L-460.85 120.6 -332.4 120.6 M-556.45 120.6 L-598.45 120.6 M-556.45 106.8 L-556.45 -34.05" fill="none" stroke="#000000" stroke-linecap="round" stroke-linejoin="miter-clip" stroke-miterlimit="4.0" stroke-opacity="0.6" stroke-width="1.0"/>
    <path d="M172.15 -340.6 L171.8 -303.95 171.65 202.4 157.35 202.3 157.5 -340.6 M-136.25 -340.45 L-136.25 202.95 -151.9 202.55 -151.5 142.45 -151.9 -340.45 -151.9 -361.3 172.15 -361.3 172.15 -340.6 M157.9 -341.05 L-136.25 -340.85 M549.25 -313.55 L548.75 -313.85 M545.1 -315.9 Q517.75 -330.95 482.4 -335.2 M479.65 -335.2 Q435.95 -329.95 404.4 -308.15 379.2 -290.65 362.9 -263.4 351.25 -243.95 345.25 -221.5 342.25 -210.3 341.55 -203.0 L341.55 150.55 354.45 150.55 395.55 150.55 478.35 150.55 492.05 150.55 620.5 150.55 620.5 120.6 620.5 106.8 620.5 -34.05 620.5 -47.85 620.5 -188.7 620.5 -202.5 M550.6 -312.7 L549.75 -313.25 549.25 -313.55 M557.2 -308.45 L550.6 -312.7 M591.6 -274.85 Q577.3 -294.5 557.65 -308.15 M620.5 -203.0 Q619.8 -210.3 616.8 -221.5 610.8 -243.95 599.15 -263.4 595.55 -269.4 591.6 -274.85 M988.4 -435.0 L988.4 323.0 M-988.35 323.0 L-988.35 -435.0 M-404.15 -313.85 L-407.8 -315.9 Q-435.15 -330.95 -470.5 -335.2 M-473.25 -335.2 Q-516.95 -329.95 -548.5 -308.15 -573.7 -290.65 -590.0 -263.4 -601.65 -243.95 -607.65 -221.5 -610.65 -210.3 -611.35 -203.0 L-611.35 150.55 -598.45 150.55 -556.45 150.55 -474.55 150.55 -460.85 150.55 M-377.6 -293.6 L-379.5 -295.4 -380.15 -296.0 M-395.7 -308.45 L-402.3 -312.7 M-395.25 -308.15 L-389.85 -304.2 -379.75 -295.7 M-361.65 -275.3 L-363.9 -278.35 -364.05 -278.55 -364.25 -278.8 -364.4 -279.0 -364.75 -279.45 Q-370.75 -287.0 -377.6 -293.6 M-359.85 -272.85 L-361.65 -275.3 M-332.4 150.55 L-460.8 150.55 M-332.4 -203.0 Q-333.1 -210.3 -336.1 -221.5 -342.1 -243.95 -353.75 -263.4 L-359.85 -272.85 M-332.4 -202.5 L-332.4 -188.7 -332.4 -47.85 -332.4 -34.05 -332.4 106.8 -332.4 120.6 -332.4 150.55" fill="none" stroke="#000000" stroke-linecap="round" stroke-linejoin="miter-clip" stroke-miterlimit="4.0" stroke-width="1.0"/>
    <path d="M-598.45 150.55 L-598.45 120.6 -598.45 106.8 -598.45 -34.05 -598.45 -47.85 -598.45 -188.7 M-598.45 -191.95 Q-598.0 -196.5 -596.7 -202.5 L-594.75 -210.45 Q-588.75 -232.9 -577.1 -252.35 -560.8 -279.6 -535.6 -297.1 -504.6 -318.55 -461.85 -323.95 M-457.6 -324.15 Q-410.5 -318.55 -377.6 -293.6" fill="none" stroke="#000000" stroke-linecap="round" stroke-linejoin="miter-clip" stroke-miterlimit="4.0" stroke-opacity="0.4" stroke-width="1.0"/>
  </g>
</svg>
