<?xml version="1.0" encoding="UTF-8" standalone="no"?>
<svg xmlns:xlink="http://www.w3.org/1999/xlink" height="59.65px" width="147.8px" xmlns="http://www.w3.org/2000/svg">
  <g transform="matrix(1.0, 0.0, 0.0, 1.0, 73.9, 29.85)">
    <path d="M14.75 5.9 L14.0 5.85 Q9.3 5.65 4.7 2.3 -0.25 -1.25 -1.5 -6.0 -2.2 -8.65 -1.35 -9.2 L1.85 -9.4 9.2 -8.5 Q8.2 -11.45 8.15 -13.35 8.15 -13.95 8.85 -16.45 9.55 -19.1 9.85 -18.75 L15.65 -12.4 15.75 -15.7 Q16.3 -21.85 19.65 -24.9 21.5 -26.55 22.35 -25.95 22.95 -25.55 24.1 -22.85 26.1 -18.15 26.95 -15.25 L27.85 -11.65 29.5 -12.5 Q34.4 -14.9 37.35 -14.3 39.9 -13.8 40.1 -12.75 40.2 -12.05 39.05 -9.55 35.45 -1.7 32.0 1.85 L33.55 2.5 35.8 3.8 35.6 4.0 34.45 5.1 33.6 5.75 33.35 5.95 Q31.55 7.2 29.35 8.15 26.25 9.45 22.95 9.85 L20.9 9.95 18.6 9.85 16.6 9.55 12.45 8.95 12.6 8.75 14.35 6.4 14.5 6.2 14.7 5.95 14.75 5.9 15.75 4.65 14.75 5.9 M11.1 -3.7 L8.15 -4.1 3.75 -4.3 Q6.75 0.9 10.9 3.25 12.2 3.95 14.8 4.45 L15.75 4.65 16.2 4.15 Q14.2 2.8 12.75 0.1 L11.1 -3.7 10.0 -6.4 9.2 -8.5 10.0 -6.4 11.1 -3.7 M15.05 -1.5 Q15.8 -0.45 17.3 0.9 L18.3 1.75 18.65 -1.95 18.35 -4.05 18.35 -4.15 17.8 -5.7 Q16.8 -8.1 15.05 -10.5 11.9 -13.65 11.9 -14.25 11.8 -9.8 13.1 -5.75 13.9 -3.05 15.05 -1.5 M19.5 -5.3 L19.55 -5.0 19.8 -2.2 19.55 -5.0 19.5 -5.3 19.75 -5.55 Q21.75 -7.55 23.9 -9.15 L24.0 -10.2 Q24.1 -12.0 22.8 -14.7 21.05 -18.25 20.8 -19.1 17.9 -14.35 17.95 -9.25 19.2 -7.15 19.5 -5.3 M15.65 -12.4 L17.95 -9.25 15.65 -12.4 M20.3 -1.0 L23.15 -0.65 Q25.55 -0.4 26.95 -1.3 L29.45 -4.2 Q31.25 -6.45 32.2 -6.45 L28.4 -6.35 Q29.0 -7.05 30.5 -7.75 L32.8 -9.0 Q28.15 -10.9 24.65 -8.05 L19.8 -2.2 20.3 -1.0 20.45 -0.55 21.0 1.3 22.9 0.85 29.95 1.2 32.0 1.85 29.95 1.2 22.9 0.85 21.0 1.3 20.45 -0.55 20.3 -1.0 M27.85 -11.65 Q25.8 -10.6 23.9 -9.15 25.8 -10.6 27.85 -11.65 M50.95 9.4 L51.0 7.3 Q51.2 2.2 52.9 -0.05 54.3 -1.9 55.2 -1.55 L57.2 0.7 Q60.45 5.4 62.0 9.1 59.05 12.55 58.3 16.45 L57.95 18.3 57.0 18.6 57.95 18.3 58.3 16.45 Q59.05 12.55 62.0 9.1 L62.65 8.3 Q66.35 4.25 70.6 3.8 72.95 3.55 73.3 4.45 73.55 5.0 73.0 7.5 L71.15 14.3 Q69.85 18.05 67.95 20.5 L67.55 21.0 68.9 22.25 70.05 23.65 69.25 24.5 67.95 25.7 65.3 27.45 63.9 28.1 63.6 28.25 59.65 29.2 59.25 29.25 56.4 29.15 55.75 29.05 54.85 28.8 53.6 28.35 52.75 28.0 50.75 27.15 49.25 26.65 49.35 26.55 48.8 26.45 48.4 26.4 47.55 26.3 Q43.45 25.8 41.5 24.65 37.5 20.95 38.1 20.8 L43.65 19.3 43.9 19.2 41.7 16.05 Q39.05 11.6 37.1 10.3 L40.05 7.1 Q41.4 6.05 44.2 5.95 L43.7 5.05 43.35 4.25 Q46.35 4.05 50.15 8.4 L50.95 9.4 Q51.0 12.45 51.55 15.55 51.0 12.45 50.95 9.4 M52.35 18.9 L51.55 15.55 51.0 14.75 Q49.65 13.25 46.9 12.85 44.0 12.45 42.8 11.55 L43.75 13.05 44.75 14.75 Q45.75 15.9 47.85 17.15 L50.6 18.45 45.35 18.85 43.9 19.2 45.35 18.85 50.6 18.45 50.65 18.5 51.75 18.7 52.35 18.9 52.6 19.0 52.6 19.7 52.85 20.4 52.6 19.7 52.6 19.0 52.35 18.9 M53.65 20.7 L52.85 20.4 51.3 20.1 46.55 20.25 44.4 20.85 42.4 21.15 Q45.6 23.1 49.3 24.05 L50.05 24.2 50.85 24.35 50.95 24.2 53.25 21.1 53.45 20.9 53.65 20.7 54.7 19.8 53.65 20.7 M57.0 18.6 L57.35 18.0 Q58.55 16.1 58.45 14.5 L57.3 11.1 Q56.4 8.7 56.75 7.95 L55.25 11.05 Q55.0 10.2 55.05 8.65 L55.05 6.15 Q51.65 9.15 52.4 13.4 L54.7 19.8 Q55.8 19.0 57.0 18.6 M-57.55 -0.35 L-58.4 -1.0 Q-59.95 -2.0 -62.85 -2.15 L-67.65 -2.55 Q-64.8 2.7 -60.45 5.2 L-64.25 5.75 -64.65 5.85 -64.25 5.75 -60.45 5.2 -58.95 5.25 -56.9 5.6 -56.3 5.8 -56.25 5.8 Q-57.15 2.7 -57.55 -0.35 -57.9 -2.9 -57.9 -5.4 -57.9 -2.9 -57.55 -0.35 M-64.3 5.75 L-67.05 4.0 Q-72.1 0.3 -73.15 -4.45 -73.75 -7.05 -72.8 -7.6 -72.2 -7.9 -69.3 -7.6 L-61.4 -6.4 -57.9 -5.4 -57.85 -7.35 Q-57.55 -13.25 -55.65 -15.75 -54.05 -17.9 -53.0 -17.5 -52.35 -17.25 -50.75 -14.85 -47.1 -9.5 -45.3 -5.35 L-44.55 -6.25 Q-40.3 -10.85 -35.5 -11.35 L-34.4 -11.4 Q-32.7 -11.35 -32.4 -10.6 -32.15 -10.0 -32.75 -7.2 L-33.5 -4.05 -32.75 -7.2 Q-32.15 -10.0 -32.4 -10.6 -32.7 -11.35 -34.4 -11.4 -34.85 -19.15 -33.85 -21.3 -32.65 -23.85 -29.0 -19.15 L-28.1 -17.9 -23.9 -11.55 -22.85 -23.45 -21.8 -27.35 Q-20.6 -30.55 -17.85 -27.0 -15.3 -23.75 -13.75 -17.85 -12.05 -20.0 -10.0 -20.9 L-3.7 -24.05 -3.55 -20.15 Q-3.55 -15.35 -4.55 -10.95 -7.7 3.0 -19.35 7.4 L-19.4 7.4 -21.55 7.0 Q-24.15 6.3 -26.35 5.0 -31.85 1.85 -33.5 -4.05 -34.2 -1.25 -34.85 0.55 -35.9 3.55 -37.25 5.85 L-39.2 5.5 -44.2 5.7 -39.2 5.5 -37.25 5.85 -34.8 6.6 Q-33.95 6.95 -33.1 7.4 L-35.45 10.3 -36.75 11.5 -38.8 13.0 Q-42.5 15.45 -46.75 16.2 L-49.15 16.45 -51.0 16.4 -53.05 16.35 -55.15 16.4 -55.05 16.2 -54.5 15.05 -54.8 15.05 -58.05 14.7 -61.75 14.25 Q-66.45 13.65 -68.65 12.4 -73.15 8.15 -72.5 8.0 L-65.05 5.95 -64.65 5.85 -64.3 5.75 M-51.3 -6.65 L-53.0 -3.15 Q-53.3 -4.1 -53.2 -5.85 L-53.2 -8.7 Q-57.05 -5.25 -56.25 -0.5 L-53.0 8.4 -50.6 4.8 Q-49.25 2.65 -49.35 0.85 L-50.65 -3.05 Q-51.75 -5.8 -51.3 -6.65 M-49.3 7.8 L-50.6 8.9 -50.4 7.6 -49.5 3.05 Q-48.65 -1.4 -45.3 -5.35 -48.65 -1.4 -49.5 3.05 L-50.4 7.6 -50.6 8.9 -49.3 7.8 Q-47.85 6.75 -46.1 6.2 L-44.2 5.7 Q-41.95 4.65 -40.55 2.95 -39.35 1.55 -38.9 -1.4 L-38.0 -6.05 Q-43.4 -3.9 -46.5 0.2 -47.4 1.45 -48.3 4.15 -49.25 6.95 -50.05 8.1 L-49.3 7.8 M-19.35 7.4 L-19.75 5.0 Q-20.1 2.0 -19.95 -1.1 -19.45 -10.55 -13.75 -17.85 -19.45 -10.55 -19.95 -1.1 -20.1 2.0 -19.75 5.0 L-19.35 7.4 M-19.4 7.4 L-21.1 5.7 Q-22.9 3.45 -23.45 0.55 -24.0 -2.3 -24.0 -5.05 L-23.9 -10.15 -23.9 -11.55 -23.9 -10.15 -24.0 -5.05 Q-24.0 -2.3 -23.45 0.55 -22.9 3.45 -21.1 5.7 L-19.4 7.4 M-50.6 8.9 L-51.6 9.95 -56.0 5.9 -56.25 5.8 -56.0 5.9 -51.6 9.95 -50.6 8.9 M-55.7 7.55 L-56.05 6.6 -56.05 6.65 -55.7 7.55 -55.75 7.55 -57.45 7.2 -62.9 7.35 -65.35 8.0 -67.6 8.35 Q-64.05 10.7 -59.7 11.65 L-55.15 12.05 -52.55 11.35 -51.9 10.35 -51.6 9.95 Q-53.2 8.7 -53.8 8.35 L-55.7 7.55 M-53.85 13.8 L-52.55 11.35 -53.85 13.8 -54.5 15.05 -53.85 13.8 M67.55 21.0 L65.4 19.55 63.3 18.65 65.4 19.55 67.55 21.0 M63.3 18.65 Q65.05 17.75 66.15 16.35 67.2 15.1 67.6 12.55 68.1 9.2 68.4 8.45 63.6 10.4 60.95 13.95 60.15 15.05 59.35 17.45 L59.1 18.15 59.4 18.1 63.3 18.65 M57.95 18.3 L59.1 18.15 57.95 18.3 M50.05 25.5 L49.4 26.45 49.35 26.55 49.4 26.45 50.05 25.5 50.85 24.35 50.05 25.5 M16.2 4.15 L16.5 3.85 Q16.9 3.45 17.35 3.15 19.0 1.9 21.0 1.3 19.0 1.9 17.35 3.15 16.9 3.45 16.5 3.85 L16.2 4.15" fill="#ffffff" fill-opacity="0.0" fill-rule="evenodd" stroke="none"/>
    <path d="M15.75 4.65 L14.8 4.45 Q12.2 3.95 10.9 3.25 6.75 0.9 3.75 -4.3 L8.15 -4.1 11.1 -3.7 12.75 0.1 Q14.2 2.8 16.2 4.15 L15.75 4.65 M15.05 -1.5 Q13.9 -3.05 13.1 -5.75 11.8 -9.8 11.9 -14.25 11.9 -13.65 15.05 -10.5 16.8 -8.1 17.8 -5.7 L18.35 -4.15 18.35 -4.05 18.65 -1.95 18.3 1.75 17.3 0.9 Q15.8 -0.45 15.05 -1.5 M19.5 -5.3 Q19.2 -7.15 17.95 -9.25 17.9 -14.35 20.8 -19.1 21.05 -18.25 22.8 -14.7 24.1 -12.0 24.0 -10.2 L23.9 -9.15 Q21.75 -7.55 19.75 -5.55 L19.5 -5.3 M19.8 -2.2 L24.65 -8.05 Q28.15 -10.9 32.8 -9.0 L30.5 -7.75 Q29.0 -7.05 28.4 -6.35 L32.2 -6.45 Q31.25 -6.45 29.45 -4.2 L26.95 -1.3 Q25.55 -0.4 23.15 -0.65 L20.3 -1.0 19.8 -2.2 M51.55 15.55 L52.35 18.9 51.75 18.7 50.6 18.45 47.85 17.15 Q45.75 15.9 44.75 14.75 L43.75 13.05 42.8 11.55 Q44.0 12.45 46.9 12.85 49.65 13.25 51.0 14.75 L51.55 15.55 M52.85 20.4 L53.65 20.7 53.45 20.9 53.25 21.1 50.95 24.2 50.85 24.35 50.05 24.2 49.3 24.05 Q45.6 23.1 42.4 21.15 L44.4 20.85 46.55 20.25 51.3 20.1 52.85 20.4 M54.7 19.8 L52.4 13.4 Q51.65 9.15 55.05 6.15 L55.05 8.65 Q55.0 10.2 55.25 11.05 L56.75 7.95 Q56.4 8.7 57.3 11.1 L58.45 14.5 Q58.55 16.1 57.35 18.0 L57.0 18.6 Q55.8 19.0 54.7 19.8 M-60.45 5.2 Q-64.8 2.7 -67.65 -2.55 L-62.85 -2.15 Q-59.95 -2.0 -58.4 -1.0 L-57.55 -0.35 Q-57.15 2.7 -56.25 5.8 L-56.3 5.8 -56.9 5.6 -58.95 5.25 -60.45 5.2 M-51.3 -6.65 Q-51.75 -5.8 -50.65 -3.05 L-49.35 0.85 Q-49.25 2.65 -50.6 4.8 L-53.0 8.4 -56.25 -0.5 Q-57.05 -5.25 -53.2 -8.7 L-53.2 -5.85 Q-53.3 -4.1 -53.0 -3.15 L-51.3 -6.65 M-49.3 7.8 L-50.05 8.1 Q-49.25 6.95 -48.3 4.15 -47.4 1.45 -46.5 0.2 -43.4 -3.9 -38.0 -6.05 L-38.9 -1.4 Q-39.35 1.55 -40.55 2.95 -41.95 4.65 -44.2 5.7 L-46.1 6.2 Q-47.85 6.75 -49.3 7.8 M-55.7 7.55 L-53.8 8.35 Q-53.2 8.7 -51.6 9.95 L-51.9 10.35 -52.55 11.35 -55.15 12.05 -59.7 11.65 Q-64.05 10.7 -67.6 8.35 L-65.35 8.0 -62.9 7.35 -57.45 7.2 -55.75 7.55 -55.7 7.55 M59.1 18.15 L59.35 17.45 Q60.15 15.05 60.95 13.95 63.6 10.4 68.4 8.45 68.1 9.2 67.6 12.55 67.2 15.1 66.15 16.35 65.05 17.75 63.3 18.65 L59.4 18.1 59.1 18.15" fill="#000000" fill-opacity="0.2" fill-rule="evenodd" stroke="none"/>
    <path d="M-29.0 -19.15 L-29.45 -21.5 Q-30.75 -29.0 -29.4 -29.35 -28.05 -29.7 -22.85 -23.45 L-23.9 -11.55 -28.1 -17.9 -29.0 -19.15" fill="#000000" fill-opacity="0.29803923" fill-rule="evenodd" stroke="none"/>
    <path d="M-55.7 7.55 L-56.05 6.65 -56.05 6.6 -55.7 7.55 M50.6 18.45 L51.75 18.7 50.65 18.5 50.6 18.45" fill="#9fa1a4" fill-rule="evenodd" stroke="none"/>
    <path d="M14.75 5.9 L14.0 5.85 Q9.3 5.65 4.7 2.3 -0.25 -1.25 -1.5 -6.0 -2.2 -8.65 -1.35 -9.2 L1.85 -9.4 9.2 -8.5 Q8.2 -11.45 8.15 -13.35 8.15 -13.95 8.85 -16.45 9.55 -19.1 9.85 -18.75 L15.65 -12.4 15.75 -15.7 Q16.3 -21.85 19.65 -24.9 21.5 -26.55 22.35 -25.95 22.95 -25.55 24.1 -22.85 26.1 -18.15 26.95 -15.25 L27.85 -11.65 29.5 -12.5 Q34.4 -14.9 37.35 -14.3 39.9 -13.8 40.1 -12.75 40.2 -12.05 39.05 -9.55 35.45 -1.7 32.0 1.85 L33.55 2.5 35.8 3.8 35.6 4.0 34.45 5.1 33.6 5.75 33.35 5.95 Q31.55 7.2 29.35 8.15 26.25 9.45 22.95 9.85 M18.6 9.85 L16.6 9.55 12.45 8.95 12.6 8.75 14.35 6.4 14.5 6.2 M62.0 9.1 Q60.45 5.4 57.2 0.7 L55.2 -1.55 Q54.3 -1.9 52.9 -0.05 51.2 2.2 51.0 7.3 L50.95 9.4 50.15 8.4 Q46.35 4.05 43.35 4.25 L43.7 5.05 44.2 5.95 Q41.4 6.05 40.05 7.1 L37.1 10.3 Q39.05 11.6 41.7 16.05 L43.9 19.2 M62.0 9.1 L62.65 8.3 Q66.35 4.25 70.6 3.8 72.95 3.55 73.3 4.45 73.55 5.0 73.0 7.5 L71.15 14.3 Q69.85 18.05 67.95 20.5 L67.55 21.0 68.9 22.25 70.05 23.65 69.25 24.5 67.95 25.7 65.3 27.45 63.9 28.1 63.6 28.25 M59.65 29.2 L59.25 29.25 56.4 29.15 55.75 29.05 54.85 28.8 53.6 28.35 52.75 28.0 50.75 27.15 49.25 26.65 49.35 26.55 48.8 26.45 48.4 26.4 47.55 26.3 Q43.45 25.8 41.5 24.65 37.5 20.95 38.1 20.8 L43.65 19.3 M-57.9 -5.4 L-61.4 -6.4 -69.3 -7.6 Q-72.2 -7.9 -72.8 -7.6 -73.75 -7.05 -73.15 -4.45 -72.1 0.3 -67.05 4.0 L-64.3 5.75 M-45.3 -5.35 Q-47.1 -9.5 -50.75 -14.85 -52.35 -17.25 -53.0 -17.5 -54.05 -17.9 -55.65 -15.75 -57.55 -13.25 -57.85 -7.35 L-57.9 -5.4 M-34.4 -11.4 L-35.5 -11.35 Q-40.3 -10.85 -44.55 -6.25 L-45.3 -5.35 M-37.25 5.85 Q-35.9 3.55 -34.85 0.55 -34.2 -1.25 -33.5 -4.05 -31.85 1.85 -26.35 5.0 -24.15 6.3 -21.55 7.0 M-34.4 -11.4 Q-34.85 -19.15 -33.85 -21.3 -32.65 -23.85 -29.0 -19.15 L-29.45 -21.5 Q-30.75 -29.0 -29.4 -29.35 -28.05 -29.7 -22.85 -23.45 L-21.8 -27.35 Q-20.6 -30.55 -17.85 -27.0 -15.3 -23.75 -13.75 -17.85 -12.05 -20.0 -10.0 -20.9 L-3.7 -24.05 -3.55 -20.15 Q-3.55 -15.35 -4.55 -10.95 -7.7 3.0 -19.35 7.4 M-37.25 5.85 L-34.8 6.6 Q-33.95 6.95 -33.1 7.4 L-35.45 10.3 -36.75 11.5 -38.8 13.0 Q-42.5 15.45 -46.75 16.2 L-49.15 16.45 M-53.05 16.35 L-55.15 16.4 -55.05 16.2 -54.5 15.05 -54.8 15.05 -58.05 14.7 -61.75 14.25 Q-66.45 13.65 -68.65 12.4 -73.15 8.15 -72.5 8.0 L-65.05 5.95 M-53.85 13.8 L-54.5 15.05 M49.35 26.55 L49.4 26.45 50.05 25.5" fill="none" stroke="#000000" stroke-linecap="round" stroke-linejoin="miter-clip" stroke-miterlimit="4.0" stroke-width="1.0"/>
    <path d="M22.95 9.85 L20.9 9.95 18.6 9.85 M14.5 6.2 L14.7 5.95 14.75 5.9 15.75 4.65 16.2 4.15 Q14.2 2.8 12.75 0.1 L11.1 -3.7 10.0 -6.4 9.2 -8.5 M19.8 -2.2 L19.55 -5.0 19.5 -5.3 Q19.2 -7.15 17.95 -9.25 L15.65 -12.4 M19.5 -5.3 L19.75 -5.55 Q21.75 -7.55 23.9 -9.15 25.8 -10.6 27.85 -11.65 M20.3 -1.0 L20.45 -0.55 21.0 1.3 22.9 0.85 29.95 1.2 32.0 1.85 M20.3 -1.0 L19.8 -2.2 M50.95 9.4 Q51.0 12.45 51.55 15.55 L52.35 18.9 52.6 19.0 52.6 19.7 52.85 20.4 M53.65 20.7 L54.7 19.8 Q55.8 19.0 57.0 18.6 L57.95 18.3 58.3 16.45 Q59.05 12.55 62.0 9.1 M63.6 28.25 L59.65 29.2 M-57.55 -0.35 Q-57.9 -2.9 -57.9 -5.4 M-64.65 5.85 L-64.25 5.75 -60.45 5.2 -58.95 5.25 -56.9 5.6 -56.3 5.8 -56.25 5.8 Q-57.15 2.7 -57.55 -0.35 M-45.3 -5.35 Q-48.65 -1.4 -49.5 3.05 L-50.4 7.6 -50.6 8.9 -49.3 7.8 Q-47.85 6.75 -46.1 6.2 L-44.2 5.7 -39.2 5.5 -37.25 5.85 M-33.5 -4.05 L-32.75 -7.2 Q-32.15 -10.0 -32.4 -10.6 -32.7 -11.35 -34.4 -11.4 M-19.35 7.4 L-19.4 7.4 -21.55 7.0 M-29.0 -19.15 L-28.1 -17.9 -23.9 -11.55 -22.85 -23.45 M-23.9 -11.55 L-23.9 -10.15 -24.0 -5.05 Q-24.0 -2.3 -23.45 0.55 -22.9 3.45 -21.1 5.7 L-19.4 7.4 M-13.75 -17.85 Q-19.45 -10.55 -19.95 -1.1 -20.1 2.0 -19.75 5.0 L-19.35 7.4 M-49.15 16.45 L-51.0 16.4 -53.05 16.35 M-65.05 5.95 L-64.65 5.85 M-56.25 5.8 L-56.0 5.9 -51.6 9.95 -50.6 8.9 M-51.6 9.95 L-51.9 10.35 -52.55 11.35 -53.85 13.8 M63.3 18.65 L65.4 19.55 67.55 21.0 M63.3 18.65 L59.4 18.1 59.1 18.15 57.95 18.3 M43.9 19.2 L45.35 18.85 50.6 18.45 51.75 18.7 52.35 18.9 M50.85 24.35 L50.95 24.2 53.25 21.1 53.45 20.9 53.65 20.7 M50.05 25.5 L50.85 24.35 M21.0 1.3 Q19.0 1.9 17.35 3.15 16.9 3.45 16.5 3.85 L16.2 4.15" fill="none" stroke="#000000" stroke-linecap="round" stroke-linejoin="miter-clip" stroke-miterlimit="4.0" stroke-opacity="0.6" stroke-width="1.0"/>
  </g>
</svg>
