<?xml version="1.0" encoding="UTF-8" standalone="no"?>
<svg xmlns:xlink="http://www.w3.org/1999/xlink" height="118.45px" width="251.1px" xmlns="http://www.w3.org/2000/svg">
  <g transform="matrix(1.0, 0.0, 0.0, 1.0, 125.55, 56.5)">
    <path d="M125.05 -56.0 L125.05 -50.85 115.85 -50.85 115.85 -45.55 115.85 -43.6 -115.2 -43.6 -115.2 -45.85 -115.2 -50.85 -125.05 -50.85 -125.05 -56.0 125.05 -56.0 M-115.2 -50.85 L115.85 -50.85 -115.2 -50.85" fill="#000000" fill-opacity="0.14901961" fill-rule="evenodd" stroke="none"/>
    <path d="M115.7 19.25 L-115.35 19.25 -115.35 16.85 -115.35 19.25 -115.4 19.25 -115.4 16.85 -115.35 16.85 115.7 16.85 115.7 19.25 115.7 16.85 115.8 16.85 115.8 19.25 115.7 19.25 M115.7 13.45 L115.8 13.45 115.8 15.4 115.7 15.4 -115.35 15.4 -115.4 15.4 -115.4 13.45 -115.35 13.45 -115.35 15.4 -115.35 13.45 115.7 13.45 115.7 15.4 115.7 13.45 M-115.15 -37.9 L-115.2 -40.05 -115.2 -41.5 -115.15 -41.5 -115.15 -37.9" fill="#000000" fill-opacity="0.24705882" fill-rule="evenodd" stroke="none"/>
    <path d="M115.85 -43.6 L115.85 -41.5 115.85 -8.3 115.7 -8.3 111.65 -8.3 -111.5 -8.3 -115.2 -8.3 -115.2 -9.55 -115.15 -37.9 -115.15 -41.5 -115.2 -41.5 -115.2 -43.6 115.85 -43.6" fill="#ffffff" fill-opacity="0.0" fill-rule="evenodd" stroke="none"/>
    <path d="M115.85 -41.5 L122.5 -41.5 122.5 61.45 115.7 61.45 115.7 19.25 115.8 19.25 115.8 16.85 115.8 15.4 115.8 13.45 115.7 13.45 115.7 -8.3 115.85 -8.3 115.85 -41.5 M-115.35 19.25 L-115.55 61.45 -122.35 61.45 -122.35 -41.5 -115.2 -41.5 -115.2 -40.05 -115.15 -37.9 -115.2 -9.55 -115.35 13.45 -115.4 13.45 -115.4 15.4 -115.4 16.85 -115.4 19.25 -115.35 19.25" fill="#ffffff" fill-opacity="0.09803922" fill-rule="evenodd" stroke="none"/>
    <path d="M115.8 15.4 L115.8 16.85 115.7 16.85 -115.35 16.85 -115.35 15.4 -115.35 16.85 -115.4 16.85 -115.4 15.4 -115.35 15.4 115.7 15.4 115.8 15.4 M115.7 15.4 L115.7 16.85 115.7 15.4" fill="#ffffff" fill-opacity="0.14901961" fill-rule="evenodd" stroke="none"/>
    <path d="M125.05 -56.0 L125.05 -50.85 115.85 -50.85 115.85 -45.55 M122.5 -41.5 L122.5 61.45 115.7 61.45 M115.7 19.25 L-115.35 19.25 -115.4 19.25 M-115.55 61.45 L-122.35 61.45 -122.35 -41.5 M-115.2 -45.85 L-115.2 -50.85 -125.05 -50.85 -125.05 -56.0 M115.7 13.45 L115.8 13.45 M115.8 19.25 L115.7 19.25 M-115.4 13.45 L-115.35 13.45 115.7 13.45 M111.65 -8.3 L-111.5 -8.3" fill="none" stroke="#000000" stroke-linecap="round" stroke-linejoin="miter-clip" stroke-miterlimit="4.0" stroke-width="1.0"/>
    <path d="M115.85 -45.55 L115.85 -43.6 115.85 -41.5 122.5 -41.5 M115.7 61.45 L115.7 19.25 115.7 16.85 115.7 15.4 115.7 13.45 115.7 -8.3 111.65 -8.3 M-115.35 19.25 L-115.55 61.45 M-122.35 -41.5 L-115.2 -41.5 -115.2 -43.6 -115.2 -45.85 M115.85 -41.5 L115.85 -8.3 115.7 -8.3 M-115.35 16.85 L-115.35 19.25 M-115.35 13.45 L-115.2 -9.55 -115.15 -37.9 -115.2 -40.05 -115.2 -41.5 -115.15 -41.5 -115.15 -37.9 M-111.5 -8.3 L-115.2 -8.3 -115.2 -9.55 M-115.35 15.4 L-115.35 16.85 M-115.35 15.4 L-115.35 13.45 M115.85 -50.85 L-115.2 -50.85" fill="none" stroke="#000000" stroke-linecap="round" stroke-linejoin="miter-clip" stroke-miterlimit="4.0" stroke-opacity="0.6" stroke-width="1.0"/>
    <path d="M-125.05 -56.0 L125.05 -56.0 Z" fill="none" stroke="#000000" stroke-linecap="round" stroke-linejoin="round" stroke-opacity="0.6" stroke-width="1.0"/>
  </g>
</svg>
