<?xml version="1.0" encoding="UTF-8" standalone="no"?>
<svg xmlns:xlink="http://www.w3.org/1999/xlink" height="905.9px" width="571.5px" xmlns="http://www.w3.org/2000/svg">
  <g transform="matrix(1.0, 0.0, 0.0, 1.0, 261.15, 452.9)">
    <path d="M161.35 -355.85 Q159.65 -353.15 156.6 -347.2 150.15 -334.7 144.95 -320.85 128.1 -276.4 129.1 -233.25 L116.3 -232.45 -75.9 -220.7 116.3 -232.45 110.65 439.3 -85.05 452.45 -79.3 -220.8 -75.9 -220.7 -78.2 -234.3 -79.1 -241.1 -79.55 -244.8 Q-80.85 -256.05 -81.35 -266.9 -82.45 -292.45 -79.25 -311.5 -75.85 -330.95 -68.2 -341.95 L161.35 -355.85 -68.2 -341.95 -115.0 -339.65 -96.25 -452.3 260.55 -452.3 204.2 -358.4 161.35 -355.85" fill="#ffffff" fill-opacity="0.0" fill-rule="evenodd" stroke="none"/>
    <path d="M-68.2 -341.95 Q-75.85 -330.95 -79.25 -311.5 -82.45 -292.45 -81.35 -266.9 -80.85 -256.05 -79.55 -244.8 L-79.1 -241.1 -78.2 -234.3 -75.9 -220.7 -79.3 -220.8 -156.6 -223.25 -79.3 -220.8 -85.05 452.45 -161.75 440.55 -156.6 -223.25 -176.05 -223.85 Q-170.15 -258.05 -184.25 -299.9 -191.3 -320.8 -199.5 -334.9 L-227.7 -333.35 -260.55 -428.8 -96.25 -452.3 -115.0 -339.65 -68.2 -341.95 M-115.0 -339.65 L-199.5 -334.9 -115.0 -339.65" fill="#000000" fill-opacity="0.09803922" fill-rule="evenodd" stroke="none"/>
    <path d="M116.3 -232.45 L129.1 -233.25 Q128.1 -276.4 144.95 -320.85 150.15 -334.7 156.6 -347.2 159.65 -353.15 161.35 -355.85 L-68.2 -341.95 Q-75.85 -330.95 -79.25 -311.5 -82.45 -292.45 -81.35 -266.9 -80.85 -256.05 -79.55 -244.8 L-79.1 -241.1 -78.2 -234.3 -75.9 -220.7 116.3 -232.45 110.65 439.3 -85.05 452.45 -161.75 440.55 -156.6 -223.25 -176.05 -223.85 Q-170.15 -258.05 -184.25 -299.9 -191.3 -320.8 -199.5 -334.9 L-227.7 -333.35 -260.55 -428.8 -96.25 -452.3 260.55 -452.3 204.2 -358.4 161.35 -355.85 M-79.3 -220.8 L-75.9 -220.7 M-156.6 -223.25 L-79.3 -220.8 -85.05 452.45 M-96.25 -452.3 L-115.0 -339.65 -68.2 -341.95 M-199.5 -334.9 L-115.0 -339.65" fill="none" stroke="#000000" stroke-linecap="round" stroke-linejoin="miter-clip" stroke-miterlimit="4.0" stroke-width="1.0"/>
  </g>
</svg>
