<?xml version="1.0" encoding="UTF-8" standalone="no"?>
<svg xmlns:xlink="http://www.w3.org/1999/xlink" height="896.65px" width="2715.65px" xmlns="http://www.w3.org/2000/svg">
  <g transform="matrix(1.0, 0.0, 0.0, 1.0, 1351.95, 448.55)">
    <path d="M-1351.45 362.85 L-1351.45 -114.65 -1203.35 -149.95 Q-1019.3 -192.9 -838.6 -231.55 -260.8 -355.1 64.2 -388.3 627.9 -445.9 1046.05 -448.0 1176.75 -448.65 1277.15 -443.65 1327.35 -441.15 1351.45 -438.55 L1348.65 -301.7 1220.8 -293.7 Q1060.35 -282.3 897.35 -265.05 375.95 -209.9 25.15 -117.45 -251.9 -44.4 -829.4 166.55 -1118.1 272.0 -1351.45 362.85" fill="#ffffff" fill-opacity="0.0" fill-rule="evenodd" stroke="none"/>
    <path d="M1348.65 -301.7 L1348.3 -279.4 1225.2 -270.35 Q1070.05 -257.55 909.75 -238.55 685.3 -212.0 482.8 -176.9 229.55 -133.05 25.15 -78.35 -251.65 -4.3 -829.2 228.55 -940.65 273.5 -1055.3 321.15 -1126.4 350.7 -1198.65 381.25 L-1351.45 446.6 -1351.45 362.85 Q-1118.1 272.0 -829.4 166.55 -251.9 -44.4 25.15 -117.45 375.95 -209.9 897.35 -265.05 1060.35 -282.3 1220.8 -293.7 L1348.65 -301.7" fill="#000000" fill-opacity="0.24705882" fill-rule="evenodd" stroke="none"/>
    <path d="M-1055.3 321.15 L-1102.3 437.45 -1140.45 447.6 -1351.45 446.6 -1198.65 381.25 Q-1126.4 350.7 -1055.3 321.15" fill="#ffffff" fill-opacity="0.14901961" fill-rule="evenodd" stroke="none"/>
    <path d="M-1351.45 362.85 L-1351.45 -114.65 -1203.35 -149.95 Q-1019.3 -192.9 -838.6 -231.55 -260.8 -355.1 64.2 -388.3 627.9 -445.9 1046.05 -448.0 1176.75 -448.65 1277.15 -443.65 1327.35 -441.15 1351.45 -438.55 L1348.65 -301.7 1348.3 -279.4 1225.2 -270.35 Q1070.05 -257.55 909.75 -238.55 685.3 -212.0 482.8 -176.9 229.55 -133.05 25.15 -78.35 -251.65 -4.3 -829.2 228.55 -940.65 273.5 -1055.3 321.15 L-1102.3 437.45 -1140.45 447.6 -1351.45 446.6 -1351.45 362.85 M-1351.45 446.6 L-1198.65 381.25 Q-1126.4 350.7 -1055.3 321.15" fill="none" stroke="#000000" stroke-linecap="round" stroke-linejoin="miter-clip" stroke-miterlimit="4.0" stroke-width="1.0"/>
    <path d="M-1351.45 362.85 Q-1118.1 272.0 -829.4 166.55 -251.9 -44.4 25.15 -117.45 375.95 -209.9 897.35 -265.05 1060.35 -282.3 1220.8 -293.7 L1348.65 -301.7" fill="none" stroke="#000000" stroke-linecap="round" stroke-linejoin="miter-clip" stroke-miterlimit="4.0" stroke-opacity="0.6" stroke-width="1.0"/>
  </g>
</svg>
