<?xml version="1.0" encoding="UTF-8" standalone="no"?>
<svg xmlns:xlink="http://www.w3.org/1999/xlink" height="86.55px" width="365.85px" xmlns="http://www.w3.org/2000/svg">
  <g transform="matrix(1.0, 0.0, 0.0, 1.0, 0.5, 0.5)">
    <path d="M319.25 24.95 Q321.95 6.25 320.95 0.35 L324.6 0.1 333.25 0.75 Q346.6 3.3 351.65 13.9 354.45 19.75 356.7 25.95 L356.75 26.0 Q360.05 35.15 362.25 45.05 366.55 64.65 363.75 77.55 359.9 80.1 351.05 82.3 333.25 86.75 308.05 85.15 L312.1 65.65 315.4 48.15 319.25 24.95 Q326.4 27.1 342.4 26.7 L356.7 25.95 342.4 26.7 Q326.4 27.1 319.25 24.95 M347.5 47.0 L354.85 47.85 Q357.4 45.2 355.95 39.45 L354.05 34.25 319.35 34.25 316.1 55.45 322.65 53.35 Q330.1 50.85 334.65 48.7 339.2 46.6 347.5 47.0 M312.1 65.65 Q332.25 66.2 350.0 61.3 358.9 58.85 363.75 56.3 358.9 58.85 350.0 61.3 332.25 66.2 312.1 65.65 M45.6 24.95 Q47.0 34.75 49.45 48.15 L52.8 65.65 56.8 85.15 Q31.6 86.75 13.8 82.3 8.25 80.9 4.15 79.1 L1.1 77.55 Q-1.7 64.65 2.6 45.05 4.8 35.1 8.2 25.9 10.4 19.75 13.2 13.9 18.25 3.3 31.6 0.75 L43.9 0.35 Q42.9 6.25 45.6 24.95 38.45 27.1 21.9 26.65 L8.2 25.9 21.9 26.65 Q38.45 27.1 45.6 24.95 M30.2 48.7 Q37.45 52.1 48.75 55.45 L45.5 34.25 10.8 34.25 8.9 39.45 Q7.45 45.2 10.0 47.85 L17.35 47.0 Q25.65 46.6 30.2 48.7 M52.8 65.65 Q32.6 66.2 14.85 61.3 9.3 59.75 4.65 57.9 L1.1 56.3 4.65 57.9 Q9.3 59.75 14.85 61.3 32.6 66.2 52.8 65.65" fill="#ffffff" fill-opacity="0.0" fill-rule="evenodd" stroke="none"/>
    <path d="M347.5 47.0 Q339.2 46.6 334.65 48.7 330.1 50.85 322.65 53.35 L316.1 55.45 319.35 34.25 354.05 34.25 355.95 39.45 Q357.4 45.2 354.85 47.85 L347.5 47.0 M30.2 48.7 Q25.65 46.6 17.35 47.0 L10.0 47.85 Q7.45 45.2 8.9 39.45 L10.8 34.25 45.5 34.25 48.75 55.45 Q37.45 52.1 30.2 48.7" fill="#ffffff" fill-opacity="0.34901962" fill-rule="evenodd" stroke="none"/>
    <path d="M319.25 24.95 Q321.95 6.25 320.95 0.35 L324.6 0.1 333.25 0.75 Q346.6 3.3 351.65 13.9 354.45 19.75 356.7 25.95 L356.75 26.0 Q360.05 35.15 362.25 45.05 366.55 64.65 363.75 77.55 359.9 80.1 351.05 82.3 333.25 86.75 308.05 85.15 L312.1 65.65 315.4 48.15 319.25 24.95 Q326.4 27.1 342.4 26.7 L356.7 25.95 M363.75 56.3 Q358.9 58.85 350.0 61.3 332.25 66.2 312.1 65.65 M45.6 24.95 Q47.0 34.75 49.45 48.15 L52.8 65.65 56.8 85.15 Q31.6 86.75 13.8 82.3 8.25 80.9 4.15 79.1 L1.1 77.55 Q-1.7 64.65 2.6 45.05 4.8 35.1 8.2 25.9 10.4 19.75 13.2 13.9 18.25 3.3 31.6 0.75 L43.9 0.35 Q42.9 6.25 45.6 24.95 38.45 27.1 21.9 26.65 L8.2 25.9 M1.1 56.3 L4.65 57.9 Q9.3 59.75 14.85 61.3 32.6 66.2 52.8 65.65" fill="none" stroke="#000000" stroke-linecap="round" stroke-linejoin="miter-clip" stroke-miterlimit="4.0" stroke-opacity="0.6" stroke-width="1.0"/>
    <path d="M347.5 47.0 Q339.2 46.6 334.65 48.7 330.1 50.85 322.65 53.35 L316.1 55.45 319.35 34.25 354.05 34.25 355.95 39.45 Q357.4 45.2 354.85 47.85 L347.5 47.0 M30.2 48.7 Q37.45 52.1 48.75 55.45 L45.5 34.25 10.8 34.25 8.9 39.45 Q7.45 45.2 10.0 47.85 L17.35 47.0 Q25.65 46.6 30.2 48.7" fill="none" stroke="#000000" stroke-linecap="round" stroke-linejoin="miter-clip" stroke-miterlimit="4.0" stroke-width="1.0"/>
  </g>
</svg>
