<?xml version="1.0" encoding="UTF-8" standalone="no"?>
<svg xmlns:xlink="http://www.w3.org/1999/xlink" height="291.8px" width="178.95px" xmlns="http://www.w3.org/2000/svg">
  <g transform="matrix(1.0, 0.0, 0.0, 1.0, 89.45, 145.9)">
    <path d="M-88.95 -138.45 L-88.95 -145.4 89.0 -145.4 89.0 145.4 82.1 145.4 82.1 -138.45 -88.95 -138.45" fill="#000000" fill-opacity="0.14901961" fill-rule="evenodd" stroke="none"/>
    <path d="M-88.95 -138.45 L82.1 -138.45 82.1 145.4 -88.95 145.4 -88.95 -138.45 M72.4 -118.25 L-72.35 -118.25 -72.35 118.25 72.4 118.25 72.4 -118.25" fill="#ffffff" fill-opacity="0.0" fill-rule="evenodd" stroke="none"/>
    <path d="M82.1 145.4 L89.0 145.4 89.0 -145.4 -88.95 -145.4 -88.95 -138.45 -88.95 145.4 82.1 145.4 M72.4 -118.25 L-72.35 -118.25 -72.35 118.25 72.4 118.25 72.4 -118.25" fill="none" stroke="#000000" stroke-linecap="round" stroke-linejoin="miter-clip" stroke-miterlimit="4.0" stroke-width="1.0"/>
  </g>
</svg>
