<?xml version="1.0" encoding="UTF-8" standalone="no"?>
<svg xmlns:xlink="http://www.w3.org/1999/xlink" height="50.1px" width="79.1px" xmlns="http://www.w3.org/2000/svg">
  <g transform="matrix(1.0, 0.0, 0.0, 1.0, 38.5, 25.05)">
    <path d="M5.2 -10.8 L1.55 -11.1 -2.3 -10.75 Q-2.8 -24.55 1.45 -24.55 5.8 -24.55 5.2 -10.8 M25.15 -2.35 Q24.35 -5.65 26.8 -8.4 29.2 -11.0 32.6 -11.0 36.95 -11.0 38.9 -7.55 40.1 -5.5 40.1 -3.45 40.1 -0.35 37.9 1.85 35.7 4.05 32.6 4.05 29.4 3.35 28.1 2.6 L30.3 1.5 31.1 1.75 32.6 1.95 Q34.85 1.95 36.4 0.4 38.0 -1.2 38.0 -3.45 38.0 -5.65 36.4 -7.25 34.8 -8.85 32.6 -8.85 30.3 -8.85 28.75 -7.05 27.35 -5.4 27.15 -3.2 L25.45 -2.45 25.15 -2.35 25.45 -2.45 25.15 -2.35 M-25.95 2.6 Q-27.25 3.4 -30.45 4.05 -33.6 4.05 -35.8 1.85 -38.0 -0.35 -38.0 -3.45 -38.0 -6.6 -35.8 -8.8 -33.6 -11.0 -30.45 -11.0 -27.0 -11.0 -24.7 -8.4 -22.3 -5.7 -23.0 -2.35 L-25.05 -3.2 Q-25.35 -5.45 -26.65 -7.05 -28.15 -8.85 -30.45 -8.85 -32.7 -8.85 -34.3 -7.25 -35.9 -5.65 -35.9 -3.45 -35.9 -0.75 -33.9 0.8 -31.7 2.5 -28.15 1.5 L-27.3 1.95 -25.95 2.6" fill="#000000" fill-opacity="0.14901961" fill-rule="evenodd" stroke="none"/>
    <path d="M27.15 -3.2 Q27.35 -5.4 28.75 -7.05 30.3 -8.85 32.6 -8.85 34.8 -8.85 36.4 -7.25 38.0 -5.65 38.0 -3.45 38.0 -1.2 36.4 0.4 34.85 1.95 32.6 1.95 L31.1 1.75 30.3 1.5 Q32.45 0.95 33.8 -0.95 34.75 -2.25 34.75 -2.85 34.75 -4.05 34.15 -4.9 33.3 -6.05 31.65 -6.05 29.75 -6.05 29.55 -5.6 29.0 -4.45 27.15 -3.2 M-28.15 1.5 Q-31.7 2.5 -33.9 0.8 -35.9 -0.75 -35.9 -3.45 -35.9 -5.65 -34.3 -7.25 -32.7 -8.85 -30.45 -8.85 -28.15 -8.85 -26.65 -7.05 -25.35 -5.45 -25.05 -3.2 -26.9 -4.45 -27.45 -5.6 -27.65 -6.05 -29.55 -6.05 -30.7 -6.05 -31.6 -5.35 -32.55 -4.6 -32.55 -3.45 -32.55 -2.2 -31.6 -0.9 -30.4 0.85 -28.15 1.5 M-3.2 -7.0 L-2.35 -6.25 -2.35 19.7 -2.45 19.9 -3.2 20.05 Q-3.85 20.05 -3.95 19.65 L-4.05 18.9 -4.05 -5.8 -3.7 -6.55 -3.2 -7.0" fill="#ffffff" fill-opacity="0.14901961" fill-rule="evenodd" stroke="none"/>
    <path d="M-2.3 -10.75 L1.55 -11.1 5.2 -10.8 Q8.2 -9.25 8.55 -8.75 9.45 -7.45 9.3 -2.6 L18.7 -1.25 24.4 -2.1 24.9 -2.25 25.15 -2.35 25.45 -2.45 27.15 -3.2 Q29.0 -4.45 29.55 -5.6 29.75 -6.05 31.65 -6.05 33.3 -6.05 34.15 -4.9 34.75 -4.05 34.75 -2.85 34.75 -2.25 33.8 -0.95 32.45 0.95 30.3 1.5 L28.1 2.6 23.5 4.05 18.3 4.4 18.25 4.4 9.3 3.25 Q9.3 21.35 8.75 22.15 8.0 23.3 7.0 23.7 L4.3 24.25 1.5 24.55 -2.85 24.0 Q-4.4 23.55 -4.9 23.05 L-6.1 21.0 -6.25 3.0 -6.25 -2.75 -6.25 3.0 -16.15 4.4 -16.2 4.4 Q-21.7 4.1 -25.95 2.6 L-25.95 2.55 -27.3 1.95 -28.15 1.5 Q-30.4 0.85 -31.6 -0.9 -32.55 -2.2 -32.55 -3.45 -32.55 -4.6 -31.6 -5.35 -30.7 -6.05 -29.55 -6.05 -27.65 -6.05 -27.45 -5.6 -26.9 -4.45 -25.05 -3.2 L-23.0 -2.35 -22.5 -2.2 -18.05 -1.35 -16.75 -1.25 -6.25 -2.75 Q-6.45 -7.25 -5.45 -8.7 -5.1 -9.2 -2.3 -10.75 M9.3 -2.6 L9.3 3.25 9.3 -2.6 M-3.2 -7.0 L-3.7 -6.55 -4.05 -5.8 -4.05 18.9 -3.95 19.65 Q-3.85 20.05 -3.2 20.05 L-2.45 19.9 -2.35 19.7 -2.35 -6.25 -3.2 -7.0" fill="#ffffff" fill-opacity="0.0" fill-rule="evenodd" stroke="none"/>
    <path d="M-25.95 2.6 L-27.3 1.95 -25.95 2.55 -25.95 2.6" fill="#c5c6c8" fill-rule="evenodd" stroke="none"/>
    <path d="M-2.3 -10.75 L1.55 -11.1 5.2 -10.8 Q5.8 -24.55 1.45 -24.55 -2.8 -24.55 -2.3 -10.75 -5.1 -9.2 -5.45 -8.7 -6.45 -7.25 -6.25 -2.75 L-6.25 3.0 -6.1 21.0 -4.9 23.05 Q-4.4 23.55 -2.85 24.0 L1.5 24.55 4.3 24.25 7.0 23.7 Q8.0 23.3 8.75 22.15 9.3 21.35 9.3 3.25 L9.3 -2.6 Q9.45 -7.45 8.55 -8.75 8.2 -9.25 5.2 -10.8 M9.3 -2.6 L18.7 -1.25 24.4 -2.1 24.9 -2.25 25.15 -2.35 Q24.35 -5.65 26.8 -8.4 29.2 -11.0 32.6 -11.0 36.95 -11.0 38.9 -7.55 40.1 -5.5 40.1 -3.45 40.1 -0.35 37.9 1.85 35.7 4.05 32.6 4.05 29.4 3.35 28.1 2.6 L23.5 4.05 18.3 4.4 18.25 4.4 9.3 3.25 M25.15 -2.35 L25.45 -2.45 27.15 -3.2 Q27.35 -5.4 28.75 -7.05 30.3 -8.85 32.6 -8.85 34.8 -8.85 36.4 -7.25 38.0 -5.65 38.0 -3.45 38.0 -1.2 36.4 0.4 34.85 1.95 32.6 1.95 L31.1 1.75 30.3 1.5 28.1 2.6 M27.15 -3.2 Q29.0 -4.45 29.55 -5.6 29.75 -6.05 31.65 -6.05 33.3 -6.05 34.15 -4.9 34.75 -4.05 34.75 -2.85 34.75 -2.25 33.8 -0.95 32.45 0.95 30.3 1.5 M-25.95 2.6 Q-27.25 3.4 -30.45 4.05 -33.6 4.05 -35.8 1.85 -38.0 -0.35 -38.0 -3.45 -38.0 -6.6 -35.8 -8.8 -33.6 -11.0 -30.45 -11.0 -27.0 -11.0 -24.7 -8.4 -22.3 -5.7 -23.0 -2.35 L-22.5 -2.2 -18.05 -1.35 -16.75 -1.25 -6.25 -2.75 M-25.05 -3.2 Q-25.35 -5.45 -26.65 -7.05 -28.15 -8.85 -30.45 -8.85 -32.7 -8.85 -34.3 -7.25 -35.9 -5.65 -35.9 -3.45 -35.9 -0.75 -33.9 0.8 -31.7 2.5 -28.15 1.5 -30.4 0.85 -31.6 -0.9 -32.55 -2.2 -32.55 -3.45 -32.55 -4.6 -31.6 -5.35 -30.7 -6.05 -29.55 -6.05 -27.65 -6.05 -27.45 -5.6 -26.9 -4.45 -25.05 -3.2 L-23.0 -2.35 M-6.25 3.0 L-16.15 4.4 -16.2 4.4 Q-21.7 4.1 -25.95 2.6 L-27.3 1.95 -28.15 1.5 M-25.95 2.6 L-25.95 2.55" fill="none" stroke="#000000" stroke-linecap="round" stroke-linejoin="round" stroke-opacity="0.4" stroke-width="1.0"/>
  </g>
</svg>
