<?xml version="1.0" encoding="UTF-8" standalone="no"?>
<svg xmlns:xlink="http://www.w3.org/1999/xlink" height="77.95px" width="119.0px" xmlns="http://www.w3.org/2000/svg">
  <g transform="matrix(1.0, 0.0, 0.0, 1.0, 59.5, 39.0)">
    <path d="M-59.0 -35.35 L-59.0 -38.5 59.0 -38.5 59.0 38.45 55.85 38.45 55.85 -35.35 -59.0 -35.35" fill="#ffffff" fill-opacity="0.24705882" fill-rule="evenodd" stroke="none"/>
    <path d="M-59.0 -35.35 L55.85 -35.35 55.85 38.45 -59.0 38.45 -59.0 -35.35 M48.35 -25.4 L-51.6 -25.4 48.35 -25.4 M48.35 -17.45 L-51.6 -17.45 48.35 -17.45 M48.35 -9.5 L-51.6 -9.5 48.35 -9.5 M48.35 -1.55 L-51.6 -1.55 48.35 -1.55 M48.35 6.4 L-51.6 6.4 48.35 6.4 M48.35 14.35 L-51.6 14.35 48.35 14.35 M48.35 22.3 L-51.6 22.3 48.35 22.3" fill="#ffffff" fill-opacity="0.0" fill-rule="evenodd" stroke="none"/>
    <path d="M-59.0 -38.5 L-59.0 -35.35 M55.85 38.45 L59.0 38.45" fill="none" stroke="#000000" stroke-linecap="round" stroke-linejoin="miter-clip" stroke-miterlimit="4.0" stroke-width="1.0"/>
    <path d="M59.0 38.45 L59.0 -38.5 -59.0 -38.5 M55.85 38.45 L-59.0 38.45 -59.0 -35.35" fill="none" stroke="#000000" stroke-linecap="round" stroke-linejoin="miter-clip" stroke-miterlimit="4.0" stroke-opacity="0.6" stroke-width="1.0"/>
    <path d="M-51.6 22.3 L48.35 22.3 M-51.6 14.35 L48.35 14.35 M-51.6 6.4 L48.35 6.4 M-51.6 -1.55 L48.35 -1.55 M-51.6 -9.5 L48.35 -9.5 M-51.6 -17.45 L48.35 -17.45 M-51.6 -25.4 L48.35 -25.4" fill="none" stroke="#000000" stroke-linecap="round" stroke-linejoin="miter-clip" stroke-miterlimit="4.0" stroke-opacity="0.4" stroke-width="1.0"/>
  </g>
</svg>
