<?xml version="1.0" encoding="UTF-8" standalone="no"?>
<svg xmlns:xlink="http://www.w3.org/1999/xlink" height="32.85px" width="304.7px" xmlns="http://www.w3.org/2000/svg">
  <g transform="matrix(1.0, 0.0, 0.0, 1.0, 152.35, 16.45)">
    <path d="M-95.75 -15.95 L-95.45 -15.95 96.55 -15.95 97.65 -15.95 126.65 -15.3 127.45 -15.3 127.7 -15.25 128.1 -15.25 129.55 -15.15 129.75 -15.15 133.1 -14.85 134.5 -14.7 145.1 -13.1 145.6 -13.0 146.0 -12.9 146.1 -12.85 Q135.35 -9.75 96.55 -9.75 L-95.45 -9.75 Q-134.2 -9.75 -145.55 -12.85 L-145.3 -12.9 -145.55 -12.85 -145.6 -12.85 -145.3 -12.9 -144.8 -13.0 -144.45 -13.1 -144.0 -13.25 -143.8 -13.25 -133.4 -14.75 -133.0 -14.8 -132.75 -14.8 -131.85 -14.9 -129.15 -15.1 -128.8 -15.15 -127.2 -15.25 -125.6 -15.3 -95.75 -15.95 M-144.45 -13.1 L-143.8 -13.25 -144.45 -13.1" fill="#ffffff" fill-opacity="0.09803922" fill-rule="evenodd" stroke="none"/>
    <path d="M-145.55 -12.85 Q-134.2 -9.75 -95.45 -9.75 L96.55 -9.75 Q135.35 -9.75 146.1 -12.85 L146.0 -12.9 147.55 -12.4 Q151.3 -10.95 151.75 -8.5 152.05 -7.05 151.55 -3.75 L151.55 3.7 151.75 8.45 Q151.3 10.9 147.55 12.35 137.95 15.9 96.55 15.9 L-95.45 15.9 Q-137.0 15.9 -147.15 12.35 -151.2 10.9 -151.85 8.45 L-151.85 -8.5 Q-151.2 -10.95 -147.15 -12.4 L-145.6 -12.85 -145.55 -12.85" fill="#ffffff" fill-opacity="0.0" fill-rule="evenodd" stroke="none"/>
    <path d="M97.65 -15.95 L96.55 -15.95 -95.45 -15.95 -95.75 -15.95 Q-115.2 -15.95 -127.2 -15.25 L-128.8 -15.15 -129.15 -15.1 -131.85 -14.9 -132.75 -14.8 -133.0 -14.8 -143.8 -13.25 -144.45 -13.1 -144.8 -13.0 -145.3 -12.9 -145.55 -12.85 -145.6 -12.85 -145.3 -12.9 M146.1 -12.85 L146.0 -12.9 145.6 -13.0 145.1 -13.1 M133.1 -14.85 L129.75 -15.15 129.55 -15.15 128.1 -15.25 127.7 -15.25 127.45 -15.3 Q115.9 -15.95 97.65 -15.95 M146.0 -12.9 L147.55 -12.4 Q151.3 -10.95 151.75 -8.5 152.05 -7.05 151.55 -3.75 L151.55 3.7 151.75 8.45 Q151.3 10.9 147.55 12.35 137.95 15.9 96.55 15.9 L-95.45 15.9 Q-137.0 15.9 -147.15 12.35 -151.2 10.9 -151.85 8.45 L-151.85 -8.5 Q-151.2 -10.95 -147.15 -12.4 L-145.6 -12.85 M145.6 -13.0 Q141.25 -14.2 133.1 -14.85 M-144.0 -13.25 L-144.45 -13.1" fill="none" stroke="#000000" stroke-linecap="round" stroke-linejoin="miter-clip" stroke-miterlimit="4.0" stroke-width="1.0"/>
    <path d="M-145.55 -12.85 Q-134.2 -9.75 -95.45 -9.75 L96.55 -9.75 Q135.35 -9.75 146.1 -12.85" fill="none" stroke="#000000" stroke-linecap="round" stroke-linejoin="miter-clip" stroke-miterlimit="4.0" stroke-opacity="0.6" stroke-width="1.0"/>
  </g>
</svg>
