<?xml version="1.0" encoding="UTF-8" standalone="no"?>
<svg xmlns:xlink="http://www.w3.org/1999/xlink" height="711.7px" width="3841.85px" xmlns="http://www.w3.org/2000/svg">
  <g transform="matrix(1.0, 0.0, 0.0, 1.0, 1921.1, 355.85)">
    <path d="M1920.25 -156.0 L1920.25 355.35 -0.2 355.35 -1920.6 355.35 -1920.6 -156.0 -718.05 -156.0 -718.05 -171.0 -1920.6 -171.0 -1920.6 -355.35 -0.2 -355.35 1920.25 -355.35 1920.25 -171.0 663.55 -171.0 663.55 -156.0 1920.25 -156.0" fill="#ffffff" fill-opacity="0.0" fill-rule="evenodd" stroke="none"/>
    <path d="M1920.25 -171.0 L1920.6 -171.0 1920.6 -156.0 1920.25 -156.0 1920.25 -171.0" fill="#cdcdcd" fill-rule="evenodd" stroke="none"/>
    <path d="M1920.25 -171.0 L1920.25 -156.0 663.55 -156.0 663.55 -171.0 1920.25 -171.0 M-1920.6 -156.0 L-1920.6 -171.0 -718.05 -171.0 -718.05 -156.0 -1920.6 -156.0" fill="#000000" fill-opacity="0.4862745" fill-rule="evenodd" stroke="none"/>
    <path d="M1920.25 -171.0 L1920.25 -156.0 1920.25 355.35 -0.2 355.35 -1920.6 355.35 -1920.6 -156.0 -1920.6 -171.0 -1920.6 -355.35 -0.2 -355.35 1920.25 -355.35 1920.25 -171.0 Z" fill="none" stroke="#000000" stroke-linecap="butt" stroke-linejoin="miter-clip" stroke-miterlimit="4.0" stroke-width="1.0"/>
  </g>
</svg>
