<?xml version="1.0" encoding="UTF-8" standalone="no"?>
<svg xmlns:xlink="http://www.w3.org/1999/xlink" height="500.3px" width="640.6px" xmlns="http://www.w3.org/2000/svg">
  <g transform="matrix(1.0, 0.0, 0.0, 1.0, 320.3, 250.15)">
    <path d="M1.4 -13.75 L-55.55 -13.75 -55.55 -25.45 1.4 -25.45 1.4 -13.75 M-318.85 -247.0 L-263.95 -247.0 -263.95 -247.8 -318.85 -247.8 -318.85 -247.0 M-266.75 -204.05 L-266.75 -203.2 -211.85 -203.2 -211.85 -204.05 -266.75 -204.05 M0.3 -22.75 L0.3 -23.6 -54.65 -23.6 -54.65 -22.75 0.3 -22.75 M-319.8 -238.0 L-319.8 -249.65 -262.85 -249.65 -262.85 -238.0 -319.8 -238.0 M-210.75 -205.9 L-210.75 -194.25 -267.7 -194.25 -267.7 -205.9 -210.75 -205.9 M-214.25 -161.95 L-214.25 -161.15 -159.35 -161.15 -159.35 -161.95 -214.25 -161.95 M-215.2 -163.8 L-158.25 -163.8 -158.25 -152.15 -215.2 -152.15 -215.2 -163.8 M-162.25 -117.95 L-105.3 -117.95 -105.3 -106.3 -162.25 -106.3 -162.25 -117.95 M-108.4 -66.95 L-108.4 -66.1 -53.5 -66.1 -53.5 -66.95 -108.4 -66.95 M-161.3 -116.1 L-161.3 -115.3 -106.4 -115.3 -106.4 -116.1 -161.3 -116.1 M-109.3 -68.8 L-52.35 -68.8 -52.35 -57.1 -109.3 -57.1 -109.3 -68.8 M-0.45 15.6 L-0.45 16.4 54.45 16.4 54.45 15.6 -0.45 15.6 M-1.4 13.75 L55.6 13.75 55.6 25.4 -1.4 25.4 -1.4 13.75 M210.05 196.45 L210.05 197.3 264.95 197.3 264.95 196.45 210.05 196.45 M212.0 148.1 L212.0 147.3 157.1 147.3 157.1 148.1 212.0 148.1 M213.1 157.1 L156.15 157.1 156.15 145.45 213.1 145.45 213.1 157.1 M266.05 194.6 L266.05 206.3 209.1 206.3 209.1 194.6 266.05 194.6 M106.55 60.2 L106.55 59.35 51.65 59.35 51.65 60.2 106.55 60.2 M107.65 69.2 L50.7 69.2 50.7 57.5 107.65 57.5 107.65 69.2 M159.1 102.3 L159.1 101.45 104.15 101.45 104.15 102.3 159.1 102.3 M160.2 111.25 L103.25 111.25 103.25 99.6 160.2 99.6 160.2 111.25 M318.7 240.65 L318.7 239.8 263.8 239.8 263.8 240.65 318.7 240.65 M262.85 249.65 L262.85 237.95 319.8 237.95 319.8 249.65 262.85 249.65" fill="#ffffff" fill-opacity="0.0" fill-rule="evenodd" stroke="none"/>
    <path d="M0.3 -22.75 L-54.65 -22.75 -54.65 -23.6 0.3 -23.6 0.3 -22.75 M-266.75 -204.05 L-211.85 -204.05 -211.85 -203.2 -266.75 -203.2 -266.75 -204.05 M-318.85 -247.0 L-318.85 -247.8 -263.95 -247.8 -263.95 -247.0 -318.85 -247.0 M-214.25 -161.95 L-159.35 -161.95 -159.35 -161.15 -214.25 -161.15 -214.25 -161.95 M-161.3 -116.1 L-106.4 -116.1 -106.4 -115.3 -161.3 -115.3 -161.3 -116.1 M-108.4 -66.95 L-53.5 -66.95 -53.5 -66.1 -108.4 -66.1 -108.4 -66.95 M-0.45 15.6 L54.45 15.6 54.45 16.4 -0.45 16.4 -0.45 15.6 M212.0 148.1 L157.1 148.1 157.1 147.3 212.0 147.3 212.0 148.1 M210.05 196.45 L264.95 196.45 264.95 197.3 210.05 197.3 210.05 196.45 M106.55 60.2 L51.65 60.2 51.65 59.35 106.55 59.35 106.55 60.2 M159.1 102.3 L104.15 102.3 104.15 101.45 159.1 101.45 159.1 102.3 M318.7 240.65 L263.8 240.65 263.8 239.8 318.7 239.8 318.7 240.65" fill="#ffffff" fill-opacity="0.34901962" fill-rule="evenodd" stroke="none"/>
    <path d="M1.4 -13.75 L-55.55 -13.75 -55.55 -25.45 1.4 -25.45 1.4 -13.75 M-319.8 -238.0 L-319.8 -249.65 -262.85 -249.65 -262.85 -238.0 -319.8 -238.0 M-210.75 -205.9 L-210.75 -194.25 -267.7 -194.25 -267.7 -205.9 -210.75 -205.9 M-215.2 -163.8 L-158.25 -163.8 -158.25 -152.15 -215.2 -152.15 -215.2 -163.8 M-162.25 -117.95 L-105.3 -117.95 -105.3 -106.3 -162.25 -106.3 -162.25 -117.95 M-109.3 -68.8 L-52.35 -68.8 -52.35 -57.1 -109.3 -57.1 -109.3 -68.8 M-1.4 13.75 L55.6 13.75 55.6 25.4 -1.4 25.4 -1.4 13.75 M213.1 157.1 L156.15 157.1 156.15 145.45 213.1 145.45 213.1 157.1 M266.05 194.6 L266.05 206.3 209.1 206.3 209.1 194.6 266.05 194.6 M107.65 69.2 L50.7 69.2 50.7 57.5 107.65 57.5 107.65 69.2 M160.2 111.25 L103.25 111.25 103.25 99.6 160.2 99.6 160.2 111.25 M262.85 249.65 L262.85 237.95 319.8 237.95 319.8 249.65 262.85 249.65" fill="none" stroke="#000000" stroke-linecap="round" stroke-linejoin="miter-clip" stroke-miterlimit="4.0" stroke-opacity="0.6" stroke-width="1.0"/>
  </g>
</svg>
