<?xml version="1.0" encoding="UTF-8" standalone="no"?>
<svg xmlns:xlink="http://www.w3.org/1999/xlink" height="12.15px" width="77.4px" xmlns="http://www.w3.org/2000/svg">
  <g transform="matrix(1.0, 0.0, 0.0, 1.0, 39.0, 6.1)">
    <path d="M28.1 -1.5 Q27.8 -2.0 28.1 -3.3 L28.45 -4.55 Q31.2 -4.05 34.6 -0.15 37.6 3.35 37.9 5.15 38.1 6.35 34.9 4.0 L31.65 1.45 Q32.6 4.0 31.9 4.15 31.45 4.25 29.75 1.4 L28.1 -1.5 M-28.1 -5.6 Q-28.0 -3.4 -28.55 -2.75 L-30.5 -0.4 Q-32.5 1.9 -32.85 1.75 -33.15 1.6 -32.6 0.45 L-32.0 -0.65 Q-33.6 0.35 -35.15 1.1 -38.25 2.65 -37.8 1.6 -37.15 0.0 -33.95 -2.6 -30.4 -5.6 -28.1 -5.6" fill="#000000" fill-opacity="0.047058824" fill-rule="evenodd" stroke="none"/>
    <path d="M28.1 -1.5 L29.75 1.4 Q31.45 4.25 31.9 4.15 32.6 4.0 31.65 1.45 L34.9 4.0 Q38.1 6.35 37.9 5.15 37.6 3.35 34.6 -0.15 31.2 -4.05 28.45 -4.55 L28.1 -3.3 Q27.8 -2.0 28.1 -1.5 M-28.1 -5.6 Q-28.0 -3.4 -28.55 -2.75 L-30.5 -0.4 Q-32.5 1.9 -32.85 1.75 -33.15 1.6 -32.6 0.45 L-32.0 -0.65 Q-33.6 0.35 -35.15 1.1 -38.25 2.65 -37.8 1.6 -37.15 0.0 -33.95 -2.6 -30.4 -5.6 -28.1 -5.6" fill="none" stroke="#000000" stroke-linecap="round" stroke-linejoin="miter-clip" stroke-miterlimit="4.0" stroke-width="1.0"/>
  </g>
</svg>
