<?xml version="1.0" encoding="UTF-8" standalone="no"?>
<svg xmlns:xlink="http://www.w3.org/1999/xlink" height="157.8px" width="121.25px" xmlns="http://www.w3.org/2000/svg">
  <g transform="matrix(1.0, 0.0, 0.0, 1.0, 60.45, 79.0)">
    <path d="M-58.1 -78.3 L-54.6 -77.75 -51.3 -76.55 Q-48.0 -70.0 -49.65 -63.15 -51.1 -56.8 -47.25 -35.55 -43.4 -14.25 -38.5 -2.05 -17.75 49.7 -27.4 66.95 -28.85 69.5 -31.35 71.05 L-31.5 70.3 -31.55 70.1 -34.15 58.0 -34.65 55.75 Q-39.85 32.5 -41.6 29.05 -45.55 21.25 -50.35 -4.35 L-56.25 -38.4 Q-59.2 -54.15 -59.65 -58.45 -60.7 -69.6 -58.1 -78.3" fill="#000000" fill-opacity="0.14901961" fill-rule="evenodd" stroke="none"/>
    <path d="M-54.6 -77.75 L-54.05 -77.6 -53.2 -77.35 Q-51.1 -76.7 -49.2 -75.5 L-49.05 -75.4 -48.85 -75.25 -48.45 -75.0 -48.35 -74.95 -47.5 -74.3 -46.8 -73.8 -46.4 -73.45 -45.8 -72.9 -44.85 -72.0 Q-39.2 -66.15 -38.35 -57.8 -37.9 -52.95 -37.65 -43.85 -37.4 -34.3 -37.0 -29.9 -36.35 -22.0 -28.95 -0.6 L-18.85 28.2 Q-17.05 34.0 -20.5 50.9 -22.2 59.35 -24.3 66.65 -23.05 65.65 -21.6 64.85 -17.85 62.85 -14.45 62.7 L10.3 62.85 Q36.35 63.1 43.15 63.7 49.95 64.35 55.65 70.35 58.5 73.35 60.0 76.25 L-30.75 78.3 -30.7 78.0 -30.5 77.1 -30.25 76.2 -31.35 71.05 Q-28.85 69.5 -27.4 66.95 -17.75 49.7 -38.5 -2.05 -43.4 -14.25 -47.25 -35.55 -51.1 -56.8 -49.65 -63.15 -48.0 -70.0 -51.3 -76.55 L-54.6 -77.75 M-24.3 66.65 Q-28.65 70.1 -30.25 76.2 -28.65 70.1 -24.3 66.65" fill="#ffffff" fill-opacity="0.0" fill-rule="evenodd" stroke="none"/>
    <path d="M-34.15 58.0 L-34.35 57.25 -35.15 53.65 -41.6 29.05 Q-39.85 32.5 -34.65 55.75 L-34.15 58.0" fill="#a5a7aa" fill-rule="evenodd" stroke="none"/>
    <path d="M-54.05 -77.6 L-58.1 -78.3 -54.6 -77.75 -54.05 -77.6 -53.2 -77.35 Q-51.1 -76.7 -49.2 -75.5 L-49.05 -75.4 -48.85 -75.25 -48.45 -75.0 -48.35 -74.95 -47.5 -74.3 -46.8 -73.8 -46.4 -73.45 -45.8 -72.9 -44.85 -72.0 Q-39.2 -66.15 -38.35 -57.8 -37.9 -52.95 -37.65 -43.85 -37.4 -34.3 -37.0 -29.9 -36.35 -22.0 -28.95 -0.6 L-18.85 28.2 Q-17.05 34.0 -20.5 50.9 -22.2 59.35 -24.3 66.65 -23.05 65.65 -21.6 64.85 -17.85 62.85 -14.45 62.7 L10.3 62.85 Q36.35 63.1 43.15 63.7 49.95 64.35 55.65 70.35 58.5 73.35 60.0 76.25 L-30.75 78.3 -30.7 78.0 -30.5 77.1 -30.25 76.2 -31.35 71.05 -31.5 70.3 -31.55 70.1 -34.15 58.0 -34.65 55.75 Q-39.85 32.5 -41.6 29.05 -45.55 21.25 -50.35 -4.35 L-56.25 -38.4 Q-59.2 -54.15 -59.65 -58.45 -60.7 -69.6 -58.1 -78.3" fill="none" stroke="#000000" stroke-linecap="round" stroke-linejoin="miter-clip" stroke-miterlimit="4.0" stroke-width="1.0"/>
    <path d="M-30.25 76.2 Q-28.65 70.1 -24.3 66.65" fill="none" stroke="#000000" stroke-linecap="round" stroke-linejoin="miter-clip" stroke-miterlimit="4.0" stroke-opacity="0.6" stroke-width="1.0"/>
  </g>
</svg>
