<?xml version="1.0" encoding="UTF-8" standalone="no"?>
<svg xmlns:xlink="http://www.w3.org/1999/xlink" height="115.5px" width="62.3px" xmlns="http://www.w3.org/2000/svg">
  <g transform="matrix(1.0, 0.0, 0.0, 1.0, 31.15, 57.75)">
    <path d="M-15.2 -21.8 Q-12.05 -25.95 -10.6 -28.9 -6.6 -36.85 -8.65 -46.5 -9.2 -48.95 -9.9 -50.95 L-17.5 -50.95 Q-18.85 -50.95 -19.7 -51.9 -20.65 -52.7 -20.65 -54.1 -20.65 -55.5 -19.7 -56.3 -18.85 -57.25 -17.5 -57.25 L17.4 -57.25 Q18.75 -57.25 19.75 -56.3 20.7 -55.5 20.7 -54.1 20.7 -52.7 19.75 -51.9 18.75 -50.95 17.4 -50.95 L9.85 -50.95 8.55 -46.5 Q6.65 -36.85 10.65 -28.9 11.9 -26.3 14.55 -22.75 0.4 -20.8 -15.2 -21.8 M20.7 -15.35 L25.5 -10.15 Q27.0 -7.85 28.05 -5.35 L25.5 -10.0 Q-0.35 -4.2 -26.5 -8.45 L-25.5 -10.15 -21.85 -14.0 Q-2.45 -10.3 20.7 -15.35 M29.0 -2.8 Q32.75 8.75 28.0 24.45 L12.4 54.8 Q11.2 57.15 0.0 57.25 -11.15 57.25 -12.55 54.8 L-28.1 24.45 Q-32.4 9.75 -29.45 -1.25 -14.35 3.4 4.3 1.85 16.9 0.75 29.0 -2.8 M-9.9 -50.95 L9.85 -50.95 -9.9 -50.95" fill="#ffffff" fill-opacity="0.0" fill-rule="evenodd" stroke="none"/>
    <path d="M-15.2 -21.8 Q-12.05 -25.95 -10.6 -28.9 -6.6 -36.85 -8.65 -46.5 -9.2 -48.95 -9.9 -50.95 L-17.5 -50.95 Q-18.85 -50.95 -19.7 -51.9 -20.65 -52.7 -20.65 -54.1 -20.65 -55.5 -19.7 -56.3 -18.85 -57.25 -17.5 -57.25 L17.4 -57.25 Q18.75 -57.25 19.75 -56.3 20.7 -55.5 20.7 -54.1 20.7 -52.7 19.75 -51.9 18.75 -50.95 17.4 -50.95 L9.85 -50.95 8.55 -46.5 Q6.65 -36.85 10.65 -28.9 11.9 -26.3 14.55 -22.75 L14.75 -22.8 21.4 -15.5 20.7 -15.35 25.5 -10.15 Q27.0 -7.85 28.05 -5.35 L29.1 -2.85 29.0 -2.8 Q32.75 8.75 28.0 24.45 L12.4 54.8 Q11.2 57.15 0.0 57.25 -11.15 57.25 -12.55 54.8 L-28.1 24.45 Q-32.4 9.75 -29.45 -1.25 L-29.6 -1.3 Q-28.25 -5.7 -26.6 -8.5 L-26.5 -8.45 -25.5 -10.15 -21.85 -14.0 -22.6 -14.15 -15.7 -21.85 -15.2 -21.8 M28.05 -5.35 L25.5 -10.0" fill="none" stroke="#000000" stroke-linecap="round" stroke-linejoin="miter-clip" stroke-miterlimit="10.0" stroke-width="1.0"/>
    <path d="M9.85 -50.95 L-9.9 -50.95" fill="none" stroke="#000000" stroke-linecap="round" stroke-linejoin="miter-clip" stroke-miterlimit="10.0" stroke-opacity="0.6" stroke-width="1.0"/>
    <path d="M-15.2 -21.8 Q0.4 -20.8 14.55 -22.75 M25.5 -10.0 Q-0.35 -4.2 -26.5 -8.45 M-29.45 -1.25 Q-14.35 3.4 4.3 1.85 16.9 0.75 29.0 -2.8 M-21.85 -14.0 Q-2.45 -10.3 20.7 -15.35" fill="none" stroke="#000000" stroke-linecap="round" stroke-linejoin="miter-clip" stroke-miterlimit="10.0" stroke-opacity="0.4" stroke-width="1.0"/>
  </g>
</svg>
