<?xml version="1.0" encoding="UTF-8" standalone="no"?>
<svg xmlns:xlink="http://www.w3.org/1999/xlink" height="342.75px" width="160.15px" xmlns="http://www.w3.org/2000/svg">
  <g transform="matrix(1.0, 0.0, 0.0, 1.0, 80.05, 171.35)">
    <path d="M-7.6 -75.1 L72.85 -75.1 72.85 -157.75 -73.9 -157.75 -73.9 -75.1 -7.6 -75.1 -7.45 -74.8 -7.6 -75.1 M72.85 14.35 L-73.9 14.35 -73.9 90.65 72.85 90.65 72.85 14.35 M72.85 97.6 L-73.9 97.6 -73.9 145.35 72.85 145.35 72.85 97.6 M72.85 -68.9 L-73.9 -68.9 -73.9 7.4 72.85 7.4 72.85 -68.9 M79.6 -170.85 L79.6 170.9 -79.55 170.9 -79.55 -170.85 79.6 -170.85" fill="#ffffff" fill-opacity="0.0" fill-rule="evenodd" stroke="none"/>
    <path d="M-7.6 -75.1 L-73.9 -75.1 -73.9 -157.75 72.85 -157.75 72.85 -75.1 -7.6 -75.1 M72.85 14.35 L72.85 90.65 -73.9 90.65 -73.9 14.35 72.85 14.35 M72.85 97.6 L72.85 145.35 -73.9 145.35 -73.9 97.6 72.85 97.6 M72.85 -68.9 L72.85 7.4 -73.9 7.4 -73.9 -68.9 72.85 -68.9" fill="#000000" fill-opacity="0.29803923" fill-rule="evenodd" stroke="none"/>
    <path d="M-7.6 -75.1 L72.85 -75.1 72.85 -157.75 -73.9 -157.75 -73.9 -75.1 -7.6 -75.1 -7.45 -74.8 M79.6 -170.85 L-79.55 -170.85 -79.55 170.9 79.6 170.9 79.6 -170.85" fill="none" stroke="#000000" stroke-linecap="round" stroke-linejoin="miter-clip" stroke-miterlimit="10.0" stroke-width="1.0"/>
    <path d="M72.85 14.35 L-73.9 14.35 -73.9 90.65 72.85 90.65 72.85 14.35 M72.85 -68.9 L-73.9 -68.9 -73.9 7.4 72.85 7.4 72.85 -68.9" fill="none" stroke="#000000" stroke-linecap="round" stroke-linejoin="miter-clip" stroke-miterlimit="10.0" stroke-width="0.9500000000000001"/>
    <path d="M72.85 97.6 L-73.9 97.6 -73.9 145.35 72.85 145.35 72.85 97.6" fill="none" stroke="#000000" stroke-linecap="round" stroke-linejoin="miter-clip" stroke-miterlimit="10.0" stroke-width="0.75"/>
  </g>
</svg>
