<?xml version="1.0" encoding="UTF-8" standalone="no"?>
<svg xmlns:xlink="http://www.w3.org/1999/xlink" height="45.85px" width="337.6px" xmlns="http://www.w3.org/2000/svg">
  <g transform="matrix(1.0, 0.0, 0.0, 1.0, 168.85, 22.95)">
    <path d="M168.25 -14.05 Q166.55 -9.1 163.15 -5.15 161.35 -3.25 160.0 -2.25 61.2 31.95 -60.45 18.7 -98.45 14.65 -134.2 6.2 L-162.3 -1.35 Q-166.0 -4.05 -167.5 -8.85 L-168.25 -13.15 -22.65 -20.45 165.65 -22.35 Q167.55 -18.55 168.25 -14.05" fill="#000000" fill-opacity="0.54901963" fill-rule="evenodd" stroke="none"/>
    <path d="M168.25 -14.05 Q167.55 -18.55 165.65 -22.35 L-22.65 -20.45 -168.25 -13.15 -167.5 -8.85 Q-166.0 -4.05 -162.3 -1.35 L-134.2 6.2 Q-98.45 14.65 -60.45 18.7 61.2 31.95 160.0 -2.25 161.35 -3.25 163.15 -5.15 166.55 -9.1 168.25 -14.05 Z" fill="none" stroke="#000000" stroke-linecap="round" stroke-linejoin="miter-clip" stroke-miterlimit="4.0" stroke-width="1.0"/>
  </g>
</svg>
