<?xml version="1.0" encoding="UTF-8" standalone="no"?>
<svg xmlns:xlink="http://www.w3.org/1999/xlink" height="120.6px" width="59.6px" xmlns="http://www.w3.org/2000/svg">
  <g transform="matrix(1.0, 0.0, 0.0, 1.0, 29.8, 60.3)">
    <path d="M5.1 55.15 L5.45 57.0 5.1 55.45 5.1 55.15 M-2.55 57.4 L-2.5 56.7 -2.1 55.0 -2.1 55.45 -2.55 57.2 -2.55 57.4" fill="#757575" fill-rule="evenodd" stroke="none"/>
    <path d="M13.6 -55.15 L12.2 -55.65 9.8 -56.3 6.8 -56.9 4.6 -57.15 -2.3 -57.15 -5.15 -57.0 -9.15 -56.35 Q-11.4 -55.9 -13.4 -55.05 L-16.2 -53.7 -18.1 -52.55 -18.2 -52.45 -20.55 -50.5 -21.35 -49.65 -21.5 -49.5 -22.55 -48.15 -23.5 -46.85 -24.7 -44.4 -24.8 -44.15 -25.7 -40.7 -26.1 -37.45 -26.1 -37.3 -26.2 -34.15 -26.1 -30.95 -25.85 -27.8 -25.4 -24.6 -25.2 -23.05 -24.9 -21.45 -24.3 -18.25 -23.65 -15.1 -22.85 -11.9 -22.0 -8.75 -21.1 -5.8 -21.0 -5.55 -19.8 -2.4 -18.4 0.8 -16.8 4.0 -12.85 10.85 -9.65 15.75 -9.6 15.8 -7.95 18.2 -6.1 20.75 -4.3 23.1 -2.35 25.5 -2.1 25.8 -1.15 26.75 Q-0.25 27.35 0.9 27.2 L2.2 26.9 2.45 26.75 4.4 25.2 6.65 22.75 8.8 19.8 11.75 15.0 14.15 10.6 14.55 9.9 17.0 5.05 18.9 0.8 20.0 -1.8 20.2 -2.4 21.25 -5.55 22.2 -8.75 23.1 -11.9 23.85 -15.1 24.55 -18.25 25.15 -21.45 25.65 -24.6 26.0 -27.8 26.25 -30.95 26.3 -34.15 26.2 -36.6 26.2 -37.3 25.8 -40.7 25.05 -44.15 25.0 -44.35 24.05 -46.7 24.0 -46.85 Q22.85 -48.75 21.3 -50.3 L21.1 -50.5 Q19.55 -52.0 17.65 -53.15 L15.9 -54.1 13.6 -55.15 M-13.15 -57.65 Q-4.15 -60.8 6.2 -59.35 14.0 -58.25 19.3 -55.5 31.35 -48.9 28.9 -27.35 27.65 -16.15 21.45 2.0 L20.45 4.7 20.4 4.7 13.2 16.55 Q7.85 24.95 5.25 28.1 L3.45 29.85 Q1.3 31.05 -0.7 30.45 L-2.35 29.6 -3.8 28.1 Q-7.7 23.8 -13.6 14.35 L-19.85 3.7 -19.9 3.95 Q-24.25 -6.0 -26.7 -15.5 L-26.55 -15.45 Q-32.6 -37.2 -23.15 -50.65 -22.0 -52.4 -17.25 -55.1 -14.3 -56.8 -11.05 -58.3 L-13.15 -57.65" fill="#ffffff" fill-opacity="0.0" fill-rule="evenodd" stroke="none"/>
    <path d="M-13.15 -57.65 L-11.05 -58.3 Q-14.3 -56.8 -17.25 -55.1 -22.0 -52.4 -23.15 -50.65 -32.6 -37.2 -26.55 -15.45 L-26.7 -15.5 -26.75 -15.55 -27.15 -17.25 -28.45 -23.75 -28.65 -25.05 -29.0 -28.4 Q-30.3 -39.7 -26.3 -47.65 -25.05 -50.15 -23.45 -52.0 L-22.05 -53.35 -17.65 -55.8 -13.15 -57.65 M-19.9 3.95 L-19.85 3.7 -13.6 14.35 Q-7.7 23.8 -3.8 28.1 L-2.35 29.6 -0.7 30.45 Q1.3 31.05 3.45 29.85 L5.25 28.1 Q7.85 24.95 13.2 16.55 L20.4 4.7 20.45 4.7 Q18.15 10.35 13.45 18.15 L11.8 20.85 10.6 22.75 10.3 23.25 9.95 23.75 7.1 28.1 5.2 30.85 4.4 31.95 4.4 32.25 Q2.9 31.4 1.0 31.45 L0.45 31.45 -0.2 31.5 -0.15 31.55 -2.4 32.1 -2.4 31.8 -3.4 30.85 -5.75 28.1 -9.95 22.2 -14.45 15.1 -19.6 4.65 -19.9 3.95" fill="#ffffff" fill-opacity="0.3019608" fill-rule="evenodd" stroke="none"/>
    <path d="M0.1 59.8 L-2.1 59.8 Q-2.8 59.1 -2.55 57.4 L-2.55 57.2 -2.1 55.45 -2.1 55.0 -2.4 32.1 -0.15 31.55 Q1.9 32.85 1.85 35.5 L1.05 40.35 Q0.75 42.5 1.05 45.25 L1.75 49.95 1.9 53.15 Q1.75 54.85 1.2 56.25 L0.3 58.05 Q0.0 58.7 0.05 59.3 L0.1 59.8" fill="#000000" fill-opacity="0.4" fill-rule="evenodd" stroke="none"/>
    <path d="M4.4 32.25 L4.45 32.25 5.1 55.15 5.1 55.45 5.45 57.0 Q5.65 58.5 5.2 59.25 4.85 59.8 4.4 59.8 L0.1 59.8 0.05 59.3 Q0.0 58.7 0.3 58.05 L1.2 56.25 Q1.75 54.85 1.9 53.15 L1.75 49.95 1.05 45.25 Q0.75 42.5 1.05 40.35 L1.85 35.5 Q1.9 32.85 -0.15 31.55 L-0.2 31.5 0.45 31.45 1.0 31.45 Q2.9 31.4 4.4 32.25" fill="#000000" fill-opacity="0.54901963" fill-rule="evenodd" stroke="none"/>
    <path d="M20.45 4.7 L21.45 2.0 Q27.65 -16.15 28.9 -27.35 31.35 -48.9 19.3 -55.5 14.0 -58.25 6.2 -59.35 -4.15 -60.8 -13.15 -57.65 L-17.65 -55.8 -22.05 -53.35 -23.45 -52.0 Q-25.05 -50.15 -26.3 -47.65 -30.3 -39.7 -29.0 -28.4 L-28.65 -25.05 -28.45 -23.75 -27.15 -17.25 -26.75 -15.55 -26.7 -15.5 Q-24.25 -6.0 -19.9 3.95 L-19.6 4.65 -14.45 15.1 -9.95 22.2 -5.75 28.1 -3.4 30.85 -2.4 31.8 -2.4 32.1 -2.1 55.0 -2.1 55.45 -2.55 57.2 -2.55 57.4 Q-2.8 59.1 -2.1 59.8 L0.1 59.8 4.4 59.8 Q4.85 59.8 5.2 59.25 5.65 58.5 5.45 57.0 L5.1 55.15 4.45 32.25 4.4 32.25 Q2.9 31.4 1.0 31.45 L0.45 31.45 -0.2 31.5 -0.15 31.55 -2.4 32.1 M20.45 4.7 Q18.15 10.35 13.45 18.15 L11.8 20.85 10.6 22.75 10.3 23.25 9.95 23.75 7.1 28.1 5.2 30.85 4.4 31.95 4.4 32.25" fill="none" stroke="#000000" stroke-linecap="round" stroke-linejoin="miter-clip" stroke-miterlimit="4.0" stroke-width="1.0"/>
    <path d="M13.6 -55.15 L15.9 -54.1 17.65 -53.15 Q19.55 -52.0 21.1 -50.5 L21.3 -50.3 Q22.85 -48.75 24.0 -46.85 L24.05 -46.7 25.0 -44.35 25.05 -44.15 25.8 -40.7 26.2 -37.3 26.2 -36.6 26.3 -34.15 26.25 -30.95 26.0 -27.8 25.65 -24.6 25.15 -21.45 24.55 -18.25 23.85 -15.1 23.1 -11.9 22.2 -8.75 21.25 -5.55 20.2 -2.4 20.0 -1.8 18.9 0.8 17.0 5.05 14.55 9.9 14.15 10.6 11.75 15.0 8.8 19.8 6.65 22.75 4.4 25.2 2.45 26.75 2.2 26.9 0.9 27.2 Q-0.25 27.35 -1.15 26.75 L-2.1 25.8 -2.35 25.5 -4.3 23.1 -6.1 20.75 -7.95 18.2 -9.6 15.8 -9.65 15.75 -12.85 10.85 -16.8 4.0 -18.4 0.8 -19.8 -2.4 -21.0 -5.55 -21.1 -5.8 -22.0 -8.75 -22.85 -11.9 -23.65 -15.1 -24.3 -18.25 -24.9 -21.45 -25.2 -23.05 -25.4 -24.6 -25.85 -27.8 -26.1 -30.95 -26.2 -34.15 -26.1 -37.3 -26.1 -37.45 -25.7 -40.7 -24.8 -44.15 -24.7 -44.4 -23.5 -46.85 -22.55 -48.15 -21.5 -49.5 -21.35 -49.65 -20.55 -50.5 -18.2 -52.45 -18.1 -52.55 -16.2 -53.7 -13.4 -55.05 Q-11.4 -55.9 -9.15 -56.35 L-5.15 -57.0 -2.3 -57.15 4.6 -57.15 6.8 -56.9 9.8 -56.3 12.2 -55.65 13.6 -55.15" fill="none" stroke="#000000" stroke-linecap="round" stroke-linejoin="miter-clip" stroke-miterlimit="4.0" stroke-opacity="0.6" stroke-width="1.0"/>
  </g>
</svg>
