<?xml version="1.0" encoding="UTF-8" standalone="no"?>
<svg xmlns:xlink="http://www.w3.org/1999/xlink" height="143.95px" width="40.3px" xmlns="http://www.w3.org/2000/svg">
  <g transform="matrix(1.0, 0.0, 0.0, 1.0, 20.15, 72.0)">
    <path d="M19.65 -67.8 L19.65 -57.9 -19.65 -7.5 -19.65 -18.95 19.65 -67.8 M19.65 -50.5 L19.65 71.45 -19.65 71.45 -19.65 1.4 19.65 -50.5 M-19.65 -35.5 L-19.65 -71.5 13.1 -71.5 -19.65 -35.5" fill="#ffffff" fill-opacity="0.101960786" fill-rule="evenodd" stroke="none"/>
    <path d="M19.65 -57.9 L19.65 -50.5 -19.65 1.4 -19.65 -7.5 19.65 -57.9 M-19.65 -18.95 L-19.65 -35.5 13.1 -71.5 19.65 -71.5 19.65 -67.8 -19.65 -18.95" fill="#ffffff" fill-opacity="0.3019608" fill-rule="evenodd" stroke="none"/>
    <path d="M19.65 -67.8 L19.65 -57.9 19.65 -50.5 19.65 71.45 -19.65 71.45 -19.65 1.4 -19.65 -7.5 -19.65 -18.95 -19.65 -35.5 -19.65 -71.5 13.1 -71.5 19.65 -71.5 19.65 -67.8 Z" fill="none" stroke="#000000" stroke-linecap="round" stroke-linejoin="miter-clip" stroke-miterlimit="4.0" stroke-width="1.0"/>
  </g>
</svg>
