<?xml version="1.0" encoding="UTF-8" standalone="no"?>
<svg xmlns:xlink="http://www.w3.org/1999/xlink" height="20.2px" width="27.0px" xmlns="http://www.w3.org/2000/svg">
  <g transform="matrix(1.0, 0.0, 0.0, 1.0, 14.3, 9.6)">
    <path d="M-6.65 -5.55 L-5.8 -6.15 Q0.9 -10.65 6.15 -8.3 L7.0 -7.9 Q4.9 -8.3 1.35 -5.6 L1.3 -5.6 Q-2.65 -6.45 -6.65 -5.55 -2.65 -6.45 1.3 -5.6 L1.35 -5.6 Q4.9 -8.3 7.0 -7.9 L8.05 -7.3 Q10.55 -5.65 11.6 -3.05 12.8 -0.05 11.5 2.9 L11.1 3.65 Q6.55 11.85 -9.0 9.6 -12.2 9.15 -13.3 7.25 -14.1 5.8 -13.6 3.7 -12.2 -1.5 -6.7 -5.5 L-6.85 -5.55 -6.65 -5.55 M1.3 -5.6 L1.35 -5.6 Q7.8 -3.9 11.5 2.9 7.8 -3.9 1.35 -5.6 L1.3 -5.6" fill="#ffffff" fill-opacity="0.0" fill-rule="evenodd" stroke="none"/>
    <path d="M7.0 -7.9 L6.15 -8.3 Q0.9 -10.65 -5.8 -6.15 L-6.65 -5.55 M7.0 -7.9 L8.05 -7.3 Q10.55 -5.65 11.6 -3.05 12.8 -0.05 11.5 2.9 L11.1 3.65 Q6.55 11.85 -9.0 9.6 -12.2 9.15 -13.3 7.25 -14.1 5.8 -13.6 3.7 -12.2 -1.5 -6.7 -5.5" fill="none" stroke="#000000" stroke-linecap="round" stroke-linejoin="miter-clip" stroke-miterlimit="4.0" stroke-width="1.0"/>
    <path d="M-6.65 -5.55 Q-2.65 -6.45 1.3 -5.6 L1.35 -5.6 Q4.9 -8.3 7.0 -7.9 M11.5 2.9 Q7.8 -3.9 1.35 -5.6 L1.3 -5.6" fill="none" stroke="#000000" stroke-linecap="round" stroke-linejoin="miter-clip" stroke-miterlimit="4.0" stroke-opacity="0.4" stroke-width="1.0"/>
  </g>
</svg>
