<?xml version="1.0" encoding="UTF-8" standalone="no"?>
<svg xmlns:xlink="http://www.w3.org/1999/xlink" height="173.75px" width="91.6px" xmlns="http://www.w3.org/2000/svg">
  <g transform="matrix(1.0, 0.0, 0.0, 1.0, 48.8, 85.85)">
    <path d="M-8.15 -67.15 L-9.1 -68.5 -9.8 -71.15 -10.65 -72.0 -11.0 -72.7 -11.1 -73.6 -10.95 -74.9 -9.95 -75.0 -9.55 -80.45 -8.4 -82.7 Q-6.8 -84.95 -4.1 -85.25 -0.85 -85.65 1.2 -84.2 3.1 -82.75 3.45 -80.15 L3.4 -75.2 3.3 -75.0 4.25 -74.9 Q4.45 -74.35 4.3 -72.7 3.6 -71.25 3.1 -71.15 2.85 -68.05 2.25 -67.15 L2.1 -66.95 -1.55 -65.35 -5.45 -65.35 -7.5 -66.65 -8.15 -67.15 -7.5 -66.65 -5.45 -65.35 -1.55 -65.35 2.1 -66.95 2.25 -67.15 1.55 -61.5 Q3.55 -59.15 8.3 -56.6 L4.9 -56.75 2.85 -56.45 -0.95 -55.45 Q-2.5 -53.65 -2.65 -48.3 -2.7 -44.95 -2.3 -41.9 -2.2 -40.85 -1.65 -40.3 -2.7 -38.45 -2.5 -35.8 L-2.0 -33.4 -2.25 -26.1 Q-2.8 -24.5 -2.8 -22.65 -2.8 -20.55 -2.0 -19.75 -1.2 -18.95 0.8 -18.95 2.7 -18.95 3.6 -19.55 4.85 -20.25 4.15 -24.9 4.9 -25.35 4.4 -28.65 4.9 -25.35 4.15 -24.9 4.85 -20.25 3.6 -19.55 2.7 -18.95 0.8 -18.95 -1.2 -18.95 -2.0 -19.75 -2.8 -20.55 -2.8 -22.65 -2.8 -24.5 -2.25 -26.1 L-2.0 -33.4 -2.5 -35.8 Q-2.7 -38.45 -1.65 -40.3 -2.2 -40.85 -2.3 -41.9 -2.7 -44.95 -2.65 -48.3 -2.5 -53.65 -0.95 -55.45 L2.85 -56.45 4.9 -56.75 8.3 -56.6 8.45 -56.55 8.5 -56.55 13.85 -56.75 15.6 -56.3 15.7 -56.2 Q18.1 -54.5 19.4 -49.5 20.1 -46.9 20.3 -44.7 L20.15 -43.05 20.15 -42.8 19.9 -42.25 20.15 -42.8 20.2 -42.1 Q20.3 -40.45 20.85 -38.75 L23.0 -32.1 23.9 -31.2 24.0 -31.1 26.2 -28.45 Q27.25 -26.95 28.65 -22.45 L30.55 -16.35 34.5 -6.6 Q33.8 -4.4 30.3 -3.75 33.8 -4.4 34.5 -6.6 L38.15 -4.85 Q38.95 -3.6 39.7 -2.85 L41.45 -1.3 Q42.45 -0.4 42.2 0.0 L41.85 0.15 Q41.2 0.45 40.0 -0.35 L38.85 -1.15 38.6 -0.1 Q42.45 5.85 42.3 6.9 42.15 8.0 38.3 2.55 38.15 2.4 37.85 2.55 L37.55 2.7 Q40.4 9.05 39.85 9.9 39.25 10.75 36.05 2.8 L35.35 3.2 Q37.35 9.5 36.65 10.1 35.9 10.8 34.5 6.6 L33.8 3.4 33.6 4.25 Q33.45 9.5 32.75 9.3 32.3 9.15 32.0 5.7 L31.7 2.35 30.6 -0.55 Q30.15 -1.8 30.25 -3.15 L30.3 -3.75 30.1 -3.75 Q29.45 -6.35 28.65 -7.95 L24.9 -13.05 Q21.3 -17.65 20.15 -19.55 18.85 -21.75 18.2 -25.1 L17.8 -28.1 20.1 -27.8 Q22.1 -28.2 22.8 -30.95 22.1 -28.2 20.1 -27.8 L17.8 -28.1 Q17.3 -28.45 16.4 -30.15 L22.8 -30.95 16.4 -30.15 15.1 -32.85 14.7 -33.65 13.3 -35.1 12.3 -35.95 11.65 -34.55 Q10.85 -32.9 10.55 -31.6 L10.35 -29.4 10.2 -24.8 10.2 -19.6 10.8 -16.7 11.05 -13.4 11.15 -11.6 Q11.55 -7.05 11.95 -5.65 L12.6 -3.0 12.3 -3.6 Q10.85 -6.35 10.55 -9.8 L10.5 -12.6 11.05 -13.4 10.5 -12.6 10.55 -9.8 Q10.85 -6.35 12.3 -3.6 L12.6 -3.0 14.0 3.7 14.3 5.1 14.8 8.0 14.3 7.7 14.8 8.0 Q15.45 12.05 15.35 13.15 L14.9 26.5 14.75 31.4 Q14.7 32.9 16.05 37.05 L19.5 46.4 19.85 48.1 20.0 51.5 Q20.1 54.95 19.8 58.0 19.5 61.8 19.55 73.05 L18.95 73.6 19.4 74.0 Q19.85 74.55 19.65 75.0 19.4 75.45 19.85 76.3 L20.55 77.5 21.15 79.75 23.85 83.4 23.9 84.05 Q23.9 85.05 23.45 85.15 L23.0 85.25 Q22.9 86.65 22.3 86.65 L21.65 86.95 20.65 86.95 20.55 86.9 20.4 87.05 19.05 87.0 Q18.4 87.6 16.8 87.35 15.8 86.65 15.15 86.0 14.25 85.05 14.3 84.05 L14.45 83.25 Q14.9 80.05 14.3 78.45 13.55 76.5 14.0 74.0 L13.55 73.95 12.45 62.05 Q11.25 57.9 9.25 52.45 8.7 50.95 8.3 48.1 L7.9 45.1 7.8 44.2 7.45 42.1 7.4 41.65 7.35 41.4 6.75 39.65 Q4.85 36.8 4.7 33.75 L3.75 27.8 3.55 26.9 3.45 26.3 2.35 20.35 1.85 19.0 Q1.8 15.75 2.35 11.1 2.7 7.75 6.6 0.75 L10.3 -5.45 10.55 -6.5 10.3 -5.45 6.6 0.75 Q2.7 7.75 2.35 11.1 1.8 15.75 1.85 19.0 L-0.95 11.85 Q-1.55 10.6 -1.85 7.2 L-2.0 4.1 -4.3 4.0 -5.0 3.4 -6.15 -1.4 Q-8.95 -12.7 -9.95 -14.8 -10.5 -16.1 -10.25 -17.95 L-9.95 -19.55 Q-8.95 -18.95 -7.15 -18.95 -5.15 -18.95 -4.3 -19.75 -3.45 -20.6 -3.45 -22.65 -3.45 -24.5 -4.1 -26.1 -4.1 -32.2 -4.3 -33.4 -3.9 -34.4 -3.85 -35.8 -3.55 -38.5 -4.7 -40.35 L-4.3 -41.6 Q-3.9 -44.7 -4.0 -48.05 -4.15 -53.4 -5.7 -55.25 -10.6 -56.9 -13.25 -56.7 -10.6 -56.9 -5.7 -55.25 -4.15 -53.4 -4.0 -48.05 -3.9 -44.7 -4.3 -41.6 L-4.7 -40.35 Q-3.55 -38.5 -3.85 -35.8 -3.9 -34.4 -4.3 -33.4 -4.1 -32.2 -4.1 -26.1 -3.45 -24.5 -3.45 -22.65 -3.45 -20.6 -4.3 -19.75 -5.15 -18.95 -7.15 -18.95 -8.95 -18.95 -9.95 -19.55 L-10.25 -17.95 Q-10.5 -16.1 -9.95 -14.8 -8.95 -12.7 -6.15 -1.4 L-5.0 3.4 -8.4 -2.55 -10.8 -6.2 Q-12.4 -8.55 -13.4 -9.1 L-15.35 -10.6 -15.75 -11.0 -16.95 -12.3 -15.75 -11.0 -15.35 -10.6 -13.4 -9.1 Q-12.4 -8.55 -10.8 -6.2 L-8.4 -2.55 -5.0 3.4 -5.0 7.05 Q-5.05 11.25 -5.35 13.85 L-6.6 21.2 -6.85 22.25 -8.65 30.7 -8.75 36.45 Q-8.75 36.9 -9.95 38.95 L-11.55 41.85 -11.8 44.5 -11.85 47.85 -11.95 53.9 -13.85 59.4 Q-15.65 64.25 -16.05 66.25 -16.75 69.6 -16.45 73.85 -15.95 76.45 -16.75 78.45 -17.35 80.05 -16.9 83.25 -16.35 84.7 -17.55 86.0 L-19.15 87.35 -20.95 87.3 -21.45 87.0 -22.7 87.05 -22.8 87.0 -23.0 86.9 -23.05 86.95 -24.05 86.95 -24.3 86.9 -24.75 86.65 Q-25.1 86.65 -25.25 86.0 L-25.45 85.25 -25.9 85.15 -26.25 84.25 -26.25 83.4 -23.6 79.75 -23.0 77.5 -22.3 76.3 Q-21.85 75.45 -22.05 75.0 -22.2 74.55 -21.75 74.0 L-21.3 73.5 Q-21.0 72.8 -21.25 69.65 L-21.55 66.7 Q-23.65 52.65 -22.55 49.25 L-21.35 45.2 -20.8 42.55 -20.15 39.25 -20.1 42.3 -20.2 45.0 -20.1 42.3 -20.15 39.25 -20.0 38.25 -19.8 33.05 -19.35 29.25 -19.55 26.5 -20.25 22.55 -20.85 19.05 -21.7 13.3 Q-22.4 8.45 -19.7 -2.4 L-16.95 -12.3 Q-17.35 -13.35 -16.65 -19.25 -15.8 -25.35 -15.8 -26.35 L-15.95 -28.25 -16.45 -31.0 Q-17.1 -34.05 -17.55 -34.7 L-18.5 -36.4 -18.95 -37.45 Q-19.15 -39.45 -18.8 -43.2 L-18.25 -46.6 -18.6 -47.85 -18.25 -46.6 -17.5 -43.8 Q-16.05 -39.5 -14.6 -39.05 L-9.95 -38.9 -6.15 -39.5 Q-5.2 -39.65 -4.7 -40.35 -5.2 -39.65 -6.15 -39.5 L-9.95 -38.9 -14.6 -39.05 Q-16.05 -39.5 -17.5 -43.8 L-18.25 -46.6 -18.8 -43.2 Q-19.15 -39.45 -18.95 -37.45 -19.25 -35.65 -20.8 -31.3 L-28.5 -36.15 -20.8 -31.3 -21.75 -28.7 -22.2 -27.55 -23.05 -23.9 Q-23.9 -19.3 -29.25 -14.15 -32.3 -11.1 -35.55 -5.05 -35.4 -2.7 -37.1 4.0 -37.15 9.9 -37.95 10.1 -38.25 10.25 -38.55 7.3 -38.85 4.25 -39.25 4.1 -39.55 4.0 -40.35 7.35 -41.2 10.8 -41.65 10.8 -42.05 10.8 -41.5 7.0 -41.0 3.25 -41.45 3.4 -41.9 3.55 -43.25 7.05 -44.55 10.25 -44.95 9.9 -45.35 9.5 -44.2 6.0 -43.1 2.65 -43.35 2.55 L-45.25 5.25 Q-47.1 8.05 -47.7 8.15 -48.7 8.2 -44.5 0.0 L-45.1 -0.8 Q-47.7 1.5 -48.25 1.25 -48.6 1.1 -46.8 -1.4 L-44.95 -3.85 -41.65 -6.3 -40.0 -7.7 -39.25 -5.75 Q-38.0 -4.0 -35.55 -5.05 -38.0 -4.0 -39.25 -5.75 L-40.0 -7.7 Q-36.4 -15.5 -35.35 -20.55 -34.65 -23.75 -32.15 -27.0 L-29.7 -29.6 Q-29.0 -32.1 -28.85 -34.55 L-28.5 -36.15 -27.5 -38.4 -26.25 -40.45 -26.7 -45.4 Q-27.25 -48.5 -24.8 -51.7 -23.35 -53.7 -21.1 -55.4 -20.1 -56.05 -16.65 -56.35 L-14.8 -56.5 -14.35 -56.5 -14.75 -56.4 -14.8 -56.5 -14.75 -56.4 -14.35 -56.5 -13.85 -56.55 -13.45 -56.55 -13.25 -56.7 -7.65 -61.5 -8.15 -67.15 M19.9 -42.25 Q14.95 -44.65 12.0 -49.35 L9.35 -54.6 Q8.9 -55.3 6.9 -56.05 L4.9 -56.75 6.9 -56.05 Q8.9 -55.3 9.35 -54.6 L12.0 -49.35 Q14.95 -44.65 19.9 -42.25 L20.2 -42.1 19.9 -42.25 17.6 -37.85 19.9 -42.25 M22.8 -30.95 L24.0 -31.1 22.8 -30.95 23.0 -32.1 22.8 -30.95 M15.0 -54.1 L15.7 -56.2 15.0 -54.1 M11.7 -47.05 L12.0 -48.2 11.7 -47.05 13.1 -40.9 Q14.4 -34.5 15.1 -32.85 14.4 -34.5 13.1 -40.9 L11.7 -47.05 10.85 -44.0 Q9.4 -39.75 7.95 -39.3 6.5 -38.85 2.85 -39.2 L-0.5 -39.75 Q-1.2 -39.85 -1.65 -40.3 -1.2 -39.85 -0.5 -39.75 L2.85 -39.2 Q6.5 -38.85 7.95 -39.3 9.4 -39.75 10.85 -44.0 L11.7 -47.05 M4.4 -28.65 L4.15 -29.85 Q5.05 -32.2 3.6 -38.75 5.05 -32.2 4.15 -29.85 L4.4 -28.65 10.35 -29.4 4.4 -28.65 1.1 -28.25 4.4 -28.65 M-2.25 -26.1 L0.55 -25.35 4.15 -24.9 0.55 -25.35 -2.25 -26.1 M-2.0 -33.4 Q-0.55 -33.9 1.95 -31.9 L4.15 -29.85 1.95 -31.9 Q-0.55 -33.9 -2.0 -33.4 M14.3 7.7 L14.3 7.6 14.3 5.1 14.3 7.6 14.3 7.7 Q14.2 15.85 11.1 24.25 L11.0 24.55 11.1 24.25 Q14.2 15.85 14.3 7.7 L9.8 4.7 14.3 7.7 M30.3 -5.95 Q29.1 -9.5 26.75 -13.3 L24.5 -16.5 26.75 -13.3 Q29.1 -9.5 30.3 -5.95 M10.5 -12.6 L8.65 -10.15 4.75 -6.3 Q1.55 -3.05 1.05 -1.55 L4.25 -15.1 Q4.7 -16.65 4.45 -18.4 L4.25 -19.85 4.45 -18.4 Q4.7 -16.65 4.25 -15.1 L1.05 -1.55 Q1.55 -3.05 4.75 -6.3 L8.65 -10.15 10.5 -12.6 M31.25 -6.1 Q29.4 -13.65 24.9 -20.45 L20.85 -25.65 24.9 -20.45 Q29.4 -13.65 31.25 -6.1 M10.3 -5.45 L8.65 1.6 Q6.8 9.45 6.4 12.8 L6.3 13.4 Q5.9 16.9 7.0 23.25 8.05 29.2 8.75 29.7 9.65 30.25 10.7 25.3 L11.0 24.55 Q11.0 28.3 11.65 29.55 11.95 30.25 12.85 30.25 13.55 30.25 14.9 26.5 13.55 30.25 12.85 30.25 11.95 30.25 11.65 29.55 11.0 28.3 11.0 24.55 L10.7 25.3 Q9.65 30.25 8.75 29.7 8.05 29.2 7.0 23.25 5.9 16.9 6.3 13.4 L4.85 19.2 Q3.6 24.65 3.55 26.9 3.6 24.65 4.85 19.2 L6.3 13.4 6.4 12.8 Q6.8 9.45 8.65 1.6 L10.3 -5.45 M21.15 84.75 L21.85 85.7 Q22.15 86.05 21.65 86.95 22.15 86.05 21.85 85.7 L21.15 84.75 M22.15 84.05 Q22.9 84.55 23.0 85.25 22.9 84.55 22.15 84.05 M18.2 82.2 L16.9 76.25 18.2 82.2 M17.25 85.45 L18.4 85.85 Q18.85 86.0 19.05 87.0 18.85 86.0 18.4 85.85 L17.25 85.45 M20.4 82.55 L19.05 78.9 18.35 76.7 19.05 78.9 20.4 82.55 M16.5 84.45 L16.4 84.05 Q16.2 83.0 16.15 80.05 L16.05 76.55 16.15 80.05 Q16.2 83.0 16.4 84.05 L16.5 84.45 M10.1 39.8 Q11.35 39.7 11.95 39.0 12.6 38.35 13.15 32.3 12.6 38.35 11.95 39.0 11.35 39.7 10.1 39.8 L9.65 39.8 9.6 39.8 10.1 39.8 9.6 39.8 8.8 40.15 Q7.75 40.75 7.35 41.4 7.75 40.75 8.8 40.15 L9.6 39.8 Q9.0 39.6 8.5 39.0 7.35 37.85 7.65 36.05 L8.2 33.05 7.65 36.05 Q7.35 37.85 8.5 39.0 9.0 39.6 9.6 39.8 L9.65 39.8 10.1 39.8 M16.0 38.85 L16.0 42.0 16.0 42.1 Q16.05 45.35 16.35 46.65 L16.45 48.1 15.9 53.9 Q14.85 62.05 14.75 63.55 14.4 68.65 15.1 73.8 L14.15 72.65 14.15 70.8 Q14.0 67.55 12.45 62.05 L11.95 58.6 9.65 50.05 7.8 44.2 9.65 50.05 11.95 58.6 12.45 62.05 Q14.0 67.55 14.15 70.8 L14.15 72.65 15.1 73.8 Q14.4 68.65 14.75 63.55 14.85 62.05 15.9 53.9 L16.45 48.1 16.35 46.65 Q16.05 45.35 16.0 42.1 L16.0 42.0 16.0 38.85 M19.95 85.15 L20.65 86.05 Q20.95 86.4 20.65 86.95 20.95 86.4 20.65 86.05 L19.95 85.15 M-0.7 -76.5 L-1.65 -75.65 Q0.1 -74.45 1.2 -75.5 0.35 -77.05 -0.7 -76.5 M-7.15 -76.35 L-7.9 -75.45 Q-6.0 -74.5 -5.05 -75.75 -6.2 -77.05 -7.15 -76.35 M-14.5 -56.05 L-15.45 -55.0 Q-16.9 -53.15 -17.65 -50.05 -17.9 -49.0 -18.6 -47.85 -19.85 -45.85 -22.4 -43.5 L-26.25 -40.45 -22.4 -43.5 Q-19.85 -45.85 -18.6 -47.85 -17.9 -49.0 -17.65 -50.05 -16.9 -53.15 -15.45 -55.0 L-14.5 -56.05 -14.75 -56.4 -14.5 -56.05 -13.85 -56.55 -14.5 -56.05 -10.4 -49.15 -14.5 -56.05 M-15.15 -56.2 L-14.75 -56.4 -15.15 -56.2 M-3.25 -70.65 Q-3.9 -70.65 -4.75 -70.25 L-5.55 -69.95 -4.75 -69.8 -1.55 -70.0 -0.85 -70.1 -2.25 -70.55 -3.25 -70.65 M-3.45 -73.05 L-4.25 -72.75 -4.6 -72.4 Q-4.1 -72.15 -2.25 -72.4 L-3.45 -73.05 M1.05 -1.55 L-0.2 2.05 Q-0.95 3.7 -2.0 4.1 -0.95 3.7 -0.2 2.05 L1.05 -1.55 M-13.25 -26.55 L-15.95 -28.25 -13.25 -26.55 M-9.95 -38.9 L-10.5 -35.15 Q-10.95 -31.3 -10.4 -29.85 L-10.7 -27.55 Q-10.95 -25.2 -10.4 -24.9 L-10.65 -22.45 Q-10.65 -20.0 -9.95 -19.55 -10.65 -20.0 -10.65 -22.45 L-10.4 -24.9 Q-10.95 -25.2 -10.7 -27.55 L-10.4 -29.85 Q-10.95 -31.3 -10.5 -35.15 L-9.95 -38.9 M-4.1 -26.1 Q-9.5 -24.4 -10.4 -24.9 -9.5 -24.4 -4.1 -26.1 M-4.3 -33.4 Q-5.75 -33.9 -8.2 -31.9 L-10.4 -29.85 -8.2 -31.9 Q-5.75 -33.9 -4.3 -33.4 M-21.75 -28.7 Q-22.2 -28.15 -24.5 -27.25 -25.95 -26.7 -27.2 -25.8 L-28.15 -24.95 Q-28.15 -26.2 -28.95 -28.0 L-29.7 -29.6 -28.95 -28.0 Q-28.15 -26.2 -28.15 -24.95 L-27.2 -25.8 Q-25.95 -26.7 -24.5 -27.25 -22.2 -28.15 -21.75 -28.7 M-37.55 -6.8 L-30.7 -18.5 Q-28.7 -21.3 -28.15 -24.95 -28.7 -21.3 -30.7 -18.5 L-37.55 -6.8 M-19.8 18.8 L-20.85 19.05 -19.8 18.8 M-15.35 -4.9 L-13.45 2.85 Q-11.8 9.6 -11.25 12.85 L-11.1 14.15 Q-10.7 17.5 -11.8 23.55 -12.85 29.25 -13.55 29.7 -14.45 30.25 -15.5 25.45 L-15.9 24.5 -16.0 24.25 Q-19.0 16.3 -19.1 8.6 -19.15 1.75 -17.1 -2.1 -14.85 -6.25 -15.35 -10.6 -14.85 -6.25 -17.1 -2.1 -19.15 1.75 -19.1 8.6 -19.0 16.3 -16.0 24.25 L-15.9 24.5 -15.5 25.45 Q-14.45 30.25 -13.55 29.7 -12.85 29.25 -11.8 23.55 -10.7 17.5 -11.1 14.15 L-11.25 12.85 Q-11.8 9.6 -13.45 2.85 L-15.35 -4.9 M-8.65 30.7 Q-8.35 28.5 -9.65 20.4 L-11.25 12.85 -9.65 20.4 Q-8.35 28.5 -8.65 30.7 M-14.05 -4.9 L-10.8 1.9 Q-7.35 9.45 -7.05 12.95 -6.6 17.8 -6.6 21.2 -6.6 17.8 -7.05 12.95 -7.35 9.45 -10.8 1.9 L-14.05 -4.9 M-20.2 45.0 L-21.35 45.2 -20.2 45.0 -16.3 44.45 -20.2 45.0 -20.45 46.95 Q-20.8 48.15 -20.0 54.25 -18.95 61.95 -18.85 63.9 -18.55 68.8 -19.25 73.65 -18.55 68.8 -18.85 63.9 -18.95 61.95 -20.0 54.25 -20.8 48.15 -20.45 46.95 L-20.2 45.0 M-11.55 41.85 Q-12.0 41.1 -13.25 40.4 L-14.45 39.8 Q-16.05 39.8 -16.75 39.0 -17.2 38.55 -17.55 35.45 L-17.95 32.3 -17.55 35.45 Q-17.2 38.55 -16.75 39.0 -16.05 39.8 -14.45 39.8 -13.85 39.65 -13.3 39.0 -12.25 37.85 -12.55 36.05 L-13.05 33.05 -12.55 36.05 Q-12.25 37.85 -13.3 39.0 -13.85 39.65 -14.45 39.8 L-13.25 40.4 Q-12.0 41.1 -11.55 41.85 M-15.9 24.5 Q-15.75 28.3 -16.45 29.55 -16.75 30.25 -17.65 30.25 -18.35 30.25 -19.55 26.5 -18.35 30.25 -17.65 30.25 -16.75 30.25 -16.45 29.55 -15.75 28.3 -15.9 24.5 M-23.6 84.75 L-24.3 85.7 Q-24.6 86.05 -24.05 86.95 -24.6 86.05 -24.3 85.7 L-23.6 84.75 M-22.4 85.15 L-23.05 86.05 Q-23.4 86.4 -23.05 86.95 -23.4 86.4 -23.05 86.05 L-22.4 85.15 M-19.7 85.45 L-20.85 85.85 Q-21.15 85.9 -21.3 86.45 L-21.45 87.0 -21.3 86.45 Q-21.15 85.9 -20.85 85.85 L-19.7 85.45 M-24.6 84.15 L-25.25 84.85 -25.45 85.25 -25.25 84.85 -24.6 84.15 M-22.85 82.55 Q-22.15 81.35 -21.4 78.9 L-20.8 76.7 -21.4 78.9 Q-22.15 81.35 -22.85 82.55 M-17.6 73.8 Q-16.75 62.4 -16.05 59.0 L-13.75 50.4 -11.8 44.5 -13.75 50.4 -16.05 59.0 Q-16.75 62.4 -17.6 73.8 M-20.6 82.2 L-19.35 76.25 -20.6 82.2 M-18.95 84.45 Q-18.65 83.7 -18.55 80.05 L-18.5 76.55 -18.55 80.05 Q-18.65 83.7 -18.95 84.45" fill="#ffffff" fill-opacity="0.0" fill-rule="evenodd" stroke="none"/>
    <path d="M-7.15 -76.35 Q-6.2 -77.05 -5.05 -75.75 -6.0 -74.5 -7.9 -75.45 L-7.15 -76.35 M-0.7 -76.5 Q0.35 -77.05 1.2 -75.5 0.1 -74.45 -1.65 -75.65 L-0.7 -76.5 M-3.45 -73.05 L-2.25 -72.4 Q-4.1 -72.15 -4.6 -72.4 L-4.25 -72.75 -3.45 -73.05 M-3.25 -70.65 L-2.25 -70.55 -0.85 -70.1 -1.55 -70.0 -4.75 -69.8 -5.55 -69.95 -4.75 -70.25 Q-3.9 -70.65 -3.25 -70.65" fill="#000000" fill-opacity="0.29803923" fill-rule="evenodd" stroke="none"/>
    <path d="M-8.15 -67.15 L-7.5 -66.65 -5.45 -65.35 -1.55 -65.35 2.1 -66.95 2.25 -67.15 M8.3 -56.6 L8.5 -56.55 8.45 -56.55 8.3 -56.6 4.9 -56.75 6.9 -56.05 Q8.9 -55.3 9.35 -54.6 L12.0 -49.35 Q14.95 -44.65 19.9 -42.25 L20.2 -42.1 20.15 -42.8 M4.4 -28.65 Q4.9 -25.35 4.15 -24.9 4.85 -20.25 3.6 -19.55 2.7 -18.95 0.8 -18.95 -1.2 -18.95 -2.0 -19.75 -2.8 -20.55 -2.8 -22.65 -2.8 -24.5 -2.25 -26.1 L-2.0 -33.4 -2.5 -35.8 Q-2.7 -38.45 -1.65 -40.3 -2.2 -40.85 -2.3 -41.9 -2.7 -44.95 -2.65 -48.3 -2.5 -53.65 -0.95 -55.45 L2.85 -56.45 4.9 -56.75 M22.8 -30.95 Q22.1 -28.2 20.1 -27.8 L17.8 -28.1 M30.3 -3.75 Q33.8 -4.4 34.5 -6.6 M23.0 -32.1 L22.8 -30.95 M15.1 -32.85 Q14.4 -34.5 13.1 -40.9 L11.7 -47.05 10.85 -44.0 Q9.4 -39.75 7.95 -39.3 6.5 -38.85 2.85 -39.2 L-0.5 -39.75 Q-1.2 -39.85 -1.65 -40.3 M12.0 -48.2 L11.7 -47.05 M4.15 -24.9 L0.55 -25.35 -2.25 -26.1 M3.6 -38.75 Q5.05 -32.2 4.15 -29.85 L4.4 -28.65 M4.15 -29.85 L1.95 -31.9 Q-0.55 -33.9 -2.0 -33.4 M11.05 -13.4 L10.5 -12.6 10.55 -9.8 Q10.85 -6.35 12.3 -3.6 L12.6 -3.0 14.0 3.7 14.3 5.1 14.3 7.6 14.3 7.7 Q14.2 15.85 11.1 24.25 L11.0 24.55 10.7 25.3 Q9.65 30.25 8.75 29.7 8.05 29.2 7.0 23.25 5.9 16.9 6.3 13.4 L4.85 19.2 Q3.6 24.65 3.55 26.9 M21.65 86.95 L20.65 86.95 20.55 86.9 20.4 87.05 M1.85 19.0 L1.85 19.8 M4.25 -19.85 L4.45 -18.4 Q4.7 -16.65 4.25 -15.1 L1.05 -1.55 Q1.55 -3.05 4.75 -6.3 L8.65 -10.15 10.5 -12.6 M1.85 19.0 Q1.8 15.75 2.35 11.1 2.7 7.75 6.6 0.75 L10.3 -5.45 10.55 -6.5 M24.5 -16.5 L26.75 -13.3 Q29.1 -9.5 30.3 -5.95 M20.85 -25.65 L24.9 -20.45 Q29.4 -13.65 31.25 -6.1 M14.9 26.5 Q13.55 30.25 12.85 30.25 11.95 30.25 11.65 29.55 11.0 28.3 11.0 24.55 M6.3 13.4 L6.4 12.8 Q6.8 9.45 8.65 1.6 L10.3 -5.45 M7.35 41.4 Q7.75 40.75 8.8 40.15 L9.6 39.8 Q9.0 39.6 8.5 39.0 7.35 37.85 7.65 36.05 L8.2 33.05 M9.6 39.8 L9.65 39.8 10.1 39.8 9.6 39.8 M7.8 44.2 L9.65 50.05 11.95 58.6 12.45 62.05 Q14.0 67.55 14.15 70.8 L14.15 72.65 15.1 73.8 Q14.4 68.65 14.75 63.55 14.85 62.05 15.9 53.9 L16.45 48.1 16.35 46.65 Q16.05 45.35 16.0 42.1 L16.0 42.0 16.0 38.85 M13.15 32.3 Q12.6 38.35 11.95 39.0 11.35 39.7 10.1 39.8 M16.05 76.55 L16.15 80.05 Q16.2 83.0 16.4 84.05 L16.5 84.45 M18.35 76.7 L19.05 78.9 20.4 82.55 M19.05 87.0 Q18.85 86.0 18.4 85.85 L17.25 85.45 M16.9 76.25 L18.2 82.2 M23.0 85.25 Q22.9 84.55 22.15 84.05 M21.65 86.95 Q22.15 86.05 21.85 85.7 L21.15 84.75 M20.65 86.95 Q20.95 86.4 20.65 86.05 L19.95 85.15 M-26.25 -40.45 L-22.4 -43.5 Q-19.85 -45.85 -18.6 -47.85 -17.9 -49.0 -17.65 -50.05 -16.9 -53.15 -15.45 -55.0 L-14.5 -56.05 -13.85 -56.55 -13.45 -56.55 -13.25 -56.7 Q-10.6 -56.9 -5.7 -55.25 -4.15 -53.4 -4.0 -48.05 -3.9 -44.7 -4.3 -41.6 L-4.7 -40.35 Q-3.55 -38.5 -3.85 -35.8 -3.9 -34.4 -4.3 -33.4 -4.1 -32.2 -4.1 -26.1 -3.45 -24.5 -3.45 -22.65 -3.45 -20.6 -4.3 -19.75 -5.15 -18.95 -7.15 -18.95 -8.95 -18.95 -9.95 -19.55 L-10.25 -17.95 Q-10.5 -16.1 -9.95 -14.8 -8.95 -12.7 -6.15 -1.4 L-5.0 3.4 -8.4 -2.55 -10.8 -6.2 Q-12.4 -8.55 -13.4 -9.1 L-15.35 -10.6 Q-14.85 -6.25 -17.1 -2.1 -19.15 1.75 -19.1 8.6 -19.0 16.3 -16.0 24.25 L-15.9 24.5 -15.5 25.45 Q-14.45 30.25 -13.55 29.7 -12.85 29.25 -11.8 23.55 -10.7 17.5 -11.1 14.15 L-11.25 12.85 Q-11.8 9.6 -13.45 2.85 L-15.35 -4.9 M-14.75 -56.4 L-15.15 -56.2 M-14.35 -56.5 L-14.8 -56.5 -14.75 -56.4 -14.35 -56.5 -13.45 -56.7 -13.25 -56.7 M-13.45 -56.7 L-13.85 -56.55 -14.35 -56.5 M-2.0 4.1 Q-0.95 3.7 -0.2 2.05 L1.05 -1.55 M-35.55 -5.05 Q-38.0 -4.0 -39.25 -5.75 L-40.0 -7.7 M-18.6 -47.85 L-18.25 -46.6 -17.5 -43.8 Q-16.05 -39.5 -14.6 -39.05 L-9.95 -38.9 -6.15 -39.5 Q-5.2 -39.65 -4.7 -40.35 M-18.25 -46.6 L-18.8 -43.2 Q-19.15 -39.45 -18.95 -37.45 M-9.95 -19.55 Q-10.65 -20.0 -10.65 -22.45 L-10.4 -24.9 Q-10.95 -25.2 -10.7 -27.55 L-10.4 -29.85 Q-10.95 -31.3 -10.5 -35.15 L-9.95 -38.9 M-16.95 -12.3 L-15.75 -11.0 -15.35 -10.6 M-22.8 87.0 L-23.05 86.95 Q-23.4 86.4 -23.05 86.05 L-22.4 85.15 M-10.4 -29.85 L-8.2 -31.9 Q-5.75 -33.9 -4.3 -33.4 M-10.4 -24.9 Q-9.5 -24.4 -4.1 -26.1 M-29.7 -29.6 L-28.95 -28.0 Q-28.15 -26.2 -28.15 -24.95 L-27.2 -25.8 Q-25.95 -26.7 -24.5 -27.25 -22.2 -28.15 -21.75 -28.7 M-28.15 -24.95 Q-28.7 -21.3 -30.7 -18.5 L-37.55 -6.8 M-6.6 21.2 Q-6.6 17.8 -7.05 12.95 -7.35 9.45 -10.8 1.9 L-14.05 -4.9 M-11.25 12.85 L-9.65 20.4 Q-8.35 28.5 -8.65 30.7 M-20.2 45.0 L-20.1 42.3 -20.15 39.25 M-17.95 32.3 L-17.55 35.45 Q-17.2 38.55 -16.75 39.0 -16.05 39.8 -14.45 39.8 -13.85 39.65 -13.3 39.0 -12.25 37.85 -12.55 36.05 L-13.05 33.05 M-19.55 26.5 Q-18.35 30.25 -17.65 30.25 -16.75 30.25 -16.45 29.55 -15.75 28.3 -15.9 24.5 M-14.45 39.8 L-13.25 40.4 Q-12.0 41.1 -11.55 41.85 M-20.2 45.0 L-20.45 46.95 Q-20.8 48.15 -20.0 54.25 -18.95 61.95 -18.85 63.9 -18.55 68.8 -19.25 73.65 M-11.8 44.5 L-13.75 50.4 -16.05 59.0 Q-16.75 62.4 -17.6 73.8 M-20.8 76.7 L-21.4 78.9 Q-22.15 81.35 -22.85 82.55 M-25.45 85.25 L-25.25 84.85 -24.6 84.15 M-21.45 87.0 L-21.3 86.45 Q-21.15 85.9 -20.85 85.85 L-19.7 85.45 M-24.05 86.95 Q-24.6 86.05 -24.3 85.7 L-23.6 84.75 M-23.05 86.95 L-23.0 86.9 -22.8 87.0 M-18.5 76.55 L-18.55 80.05 Q-18.65 83.7 -18.95 84.45 M-19.35 76.25 L-20.6 82.2" fill="none" stroke="#000000" stroke-linecap="round" stroke-linejoin="miter-clip" stroke-miterlimit="4.0" stroke-opacity="0.5019608" stroke-width="1.0"/>
    <path d="M15.7 -56.2 L23.9 -81.6 M19.9 -42.25 L20.15 -42.8 29.55 -61.1 M15.7 -56.2 L15.0 -54.1 M24.0 -31.1 L22.8 -30.95 16.4 -30.15 10.35 -29.4 4.4 -28.65 1.1 -28.25 M19.9 -42.25 L17.6 -37.85 M14.8 8.0 L30.1 18.1 M14.3 7.7 L14.8 8.0 M42.3 -33.4 L24.0 -31.1 M9.8 4.7 L14.3 7.7 M-14.5 -56.05 L-14.75 -56.4 M-14.5 -56.05 L-10.4 -49.15 M-26.65 -76.2 L-14.8 -56.5 M-28.5 -36.15 L-41.65 -44.4 M-15.95 -28.25 L-13.25 -26.55 M-21.35 45.2 L-37.95 47.5 M-28.5 -36.15 L-20.8 -31.3 -15.95 -28.25 M-20.85 19.05 L-19.8 18.8 M-21.35 45.2 L-20.2 45.0 -16.3 44.45 M-20.85 19.05 L-42.6 23.55" fill="none" stroke="#000000" stroke-linecap="round" stroke-linejoin="miter-clip" stroke-miterlimit="4.0" stroke-width="1.0"/>
    <path d="M2.25 -67.15 Q2.85 -68.05 3.1 -71.15 3.6 -71.25 4.3 -72.7 4.45 -74.35 4.25 -74.9 L3.3 -75.0 3.4 -75.2 3.45 -80.15 Q3.1 -82.75 1.2 -84.2 -0.85 -85.65 -4.1 -85.25 -6.8 -84.95 -8.4 -82.7 L-9.55 -80.45 -9.95 -75.0 -10.95 -74.9 -11.1 -73.6 -11.0 -72.7 -10.65 -72.0 -9.8 -71.15 -9.1 -68.5 -8.15 -67.15 -7.65 -61.5 -13.25 -56.7 M2.25 -67.15 L1.55 -61.5 Q3.55 -59.15 8.3 -56.6 M8.5 -56.55 L13.85 -56.75 15.6 -56.3 15.7 -56.2 Q18.1 -54.5 19.4 -49.5 20.1 -46.9 20.3 -44.7 L20.15 -43.05 20.15 -42.8 M17.8 -28.1 L18.2 -25.1 Q18.85 -21.75 20.15 -19.55 21.3 -17.65 24.9 -13.05 L28.65 -7.95 Q29.45 -6.35 30.1 -3.75 L30.3 -3.75 30.25 -3.15 Q30.15 -1.8 30.6 -0.55 L31.7 2.35 32.0 5.7 Q32.3 9.15 32.75 9.3 33.45 9.5 33.6 4.25 L33.8 3.4 34.5 6.6 Q35.9 10.8 36.65 10.1 37.35 9.5 35.35 3.2 L36.05 2.8 Q39.25 10.75 39.85 9.9 40.4 9.05 37.55 2.7 L37.85 2.55 Q38.15 2.4 38.3 2.55 42.15 8.0 42.3 6.9 42.45 5.85 38.6 -0.1 L38.85 -1.15 40.0 -0.35 Q41.2 0.45 41.85 0.15 L42.2 0.0 Q42.45 -0.4 41.45 -1.3 L39.7 -2.85 Q38.95 -3.6 38.15 -4.85 L34.5 -6.6 30.55 -16.35 28.65 -22.45 Q27.25 -26.95 26.2 -28.45 L24.0 -31.1 23.9 -31.2 23.0 -32.1 20.85 -38.75 Q20.3 -40.45 20.2 -42.1 M16.4 -30.15 Q17.3 -28.45 17.8 -28.1 M10.35 -29.4 L10.55 -31.6 Q10.85 -32.9 11.65 -34.55 L12.3 -35.95 13.3 -35.1 14.7 -33.65 15.1 -32.85 16.4 -30.15 M10.35 -29.4 L10.2 -24.8 10.2 -19.6 10.8 -16.7 11.05 -13.4 11.15 -11.6 Q11.55 -7.05 11.95 -5.65 L12.6 -3.0 Q14.05 0.2 14.3 5.1 L14.8 8.0 Q15.45 12.05 15.35 13.15 L14.9 26.5 14.75 31.4 Q14.7 32.9 16.05 37.05 L19.5 46.4 19.85 48.1 20.0 51.5 Q20.1 54.95 19.8 58.0 19.5 61.8 19.55 73.05 L18.95 73.6 19.4 74.0 Q19.85 74.55 19.65 75.0 19.4 75.45 19.85 76.3 L20.55 77.5 21.15 79.75 23.85 83.4 23.9 84.05 Q23.9 85.05 23.45 85.15 L23.0 85.25 Q22.9 86.65 22.3 86.65 L21.65 86.95 M20.65 86.95 L20.4 87.05 19.05 87.0 Q18.4 87.6 16.8 87.35 15.8 86.65 15.15 86.0 14.25 85.05 14.3 84.05 L14.45 83.25 Q14.9 80.05 14.3 78.45 13.55 76.5 14.0 74.0 L13.55 73.95 12.45 62.05 Q11.25 57.9 9.25 52.45 8.7 50.95 8.3 48.1 L7.9 45.1 7.8 44.2 7.45 42.1 7.4 41.65 7.35 41.4 6.75 39.65 Q4.85 36.8 4.7 33.75 L3.75 27.8 3.55 26.9 3.45 26.3 2.35 20.35 1.85 19.0 -0.95 11.85 Q-1.55 10.6 -1.85 7.2 L-2.0 4.1 -4.3 4.0 -5.0 3.4 -5.0 7.05 Q-5.05 11.25 -5.35 13.85 L-6.6 21.2 -6.85 22.25 -8.65 30.7 -8.75 36.45 Q-8.75 36.9 -9.95 38.95 L-11.55 41.85 -11.8 44.5 -11.85 47.85 -11.95 53.9 -13.85 59.4 Q-15.65 64.25 -16.05 66.25 -16.75 69.6 -16.45 73.85 -15.95 76.45 -16.75 78.45 -17.35 80.05 -16.9 83.25 -16.35 84.7 -17.55 86.0 L-19.15 87.35 -20.95 87.3 -21.45 87.0 -22.7 87.05 -22.8 87.0 M-14.8 -56.5 L-16.65 -56.35 Q-20.1 -56.05 -21.1 -55.4 -23.35 -53.7 -24.8 -51.7 -27.25 -48.5 -26.7 -45.4 L-26.25 -40.45 -27.5 -38.4 -28.5 -36.15 -28.85 -34.55 Q-29.0 -32.1 -29.7 -29.6 L-32.15 -27.0 Q-34.65 -23.75 -35.35 -20.55 -36.4 -15.5 -40.0 -7.7 L-41.65 -6.3 -44.95 -3.85 -46.8 -1.4 Q-48.6 1.1 -48.25 1.25 -47.7 1.5 -45.1 -0.8 L-44.5 0.0 Q-48.7 8.2 -47.7 8.15 -47.1 8.05 -45.25 5.25 L-43.35 2.55 Q-43.1 2.65 -44.2 6.0 -45.35 9.5 -44.95 9.9 -44.55 10.25 -43.25 7.05 -41.9 3.55 -41.45 3.4 -41.0 3.25 -41.5 7.0 -42.05 10.8 -41.65 10.8 -41.2 10.8 -40.35 7.35 -39.55 4.0 -39.25 4.1 -38.85 4.25 -38.55 7.3 -38.25 10.25 -37.95 10.1 -37.15 9.9 -37.1 4.0 -35.4 -2.7 -35.55 -5.05 -32.3 -11.1 -29.25 -14.15 -23.9 -19.3 -23.05 -23.9 L-22.2 -27.55 -21.75 -28.7 -20.8 -31.3 Q-19.25 -35.65 -18.95 -37.45 L-18.5 -36.4 -17.55 -34.7 Q-17.1 -34.05 -16.45 -31.0 L-15.95 -28.25 -15.8 -26.35 Q-15.8 -25.35 -16.65 -19.25 -17.35 -13.35 -16.95 -12.3 L-19.7 -2.4 Q-22.4 8.45 -21.7 13.3 L-20.85 19.05 -20.25 22.55 -19.55 26.5 -19.35 29.25 -19.8 33.05 -20.0 38.25 -20.15 39.25 -20.8 42.55 -21.35 45.2 -22.55 49.25 Q-23.65 52.65 -21.55 66.7 L-21.25 69.65 Q-21.0 72.8 -21.3 73.5 L-21.75 74.0 Q-22.2 74.55 -22.05 75.0 -21.85 75.45 -22.3 76.3 L-23.0 77.5 -23.6 79.75 -26.25 83.4 -26.25 84.25 -25.9 85.15 -25.45 85.25 -25.25 86.0 Q-25.1 86.65 -24.75 86.65 L-24.3 86.9 -24.05 86.95 -23.05 86.95" fill="none" stroke="#000000" stroke-linecap="round" stroke-linejoin="miter-clip" stroke-miterlimit="4.0" stroke-opacity="0.69803923" stroke-width="1.0"/>
  </g>
</svg>
