<?xml version="1.0" encoding="UTF-8" standalone="no"?>
<svg xmlns:xlink="http://www.w3.org/1999/xlink" height="75.65px" width="204.8px" xmlns="http://www.w3.org/2000/svg">
  <g transform="matrix(1.0, 0.0, 0.0, 1.0, 102.4, 37.35)">
    <path d="M93.8 -28.85 Q97.0 -25.45 101.65 -25.4 L101.9 -25.4 101.9 25.3 Q97.35 25.3 94.0 28.5 90.75 31.7 90.65 36.3 L90.7 36.9 -90.3 36.9 -90.3 36.7 Q-90.2 32.05 -93.45 28.7 -96.65 25.4 -101.3 25.3 L-101.9 25.3 -101.9 -25.4 -101.8 -25.4 Q-97.1 -25.3 -93.75 -28.55 -90.4 -31.75 -90.3 -36.4 L-90.3 -36.85 90.65 -36.85 Q90.6 -32.2 93.8 -28.85" fill="#ffffff" fill-opacity="0.0" fill-rule="evenodd" stroke="none"/>
    <path d="M93.8 -28.85 Q90.6 -32.2 90.65 -36.85 L-90.3 -36.85 -90.3 -36.4 Q-90.4 -31.75 -93.75 -28.55 -97.1 -25.3 -101.8 -25.4 L-101.9 -25.4 -101.9 25.3 -101.3 25.3 Q-96.65 25.4 -93.45 28.7 -90.2 32.05 -90.3 36.7 L-90.3 36.9 90.7 36.9 90.65 36.3 Q90.75 31.7 94.0 28.5 97.35 25.3 101.9 25.3 L101.9 -25.4 101.65 -25.4 Q97.0 -25.45 93.8 -28.85 Z" fill="none" stroke="#000000" stroke-linecap="round" stroke-linejoin="miter-clip" stroke-miterlimit="4.0" stroke-width="1.0"/>
  </g>
</svg>
