<?xml version="1.0" encoding="UTF-8" standalone="no"?>
<svg xmlns:xlink="http://www.w3.org/1999/xlink" height="16.2px" width="85.05px" xmlns="http://www.w3.org/2000/svg">
  <g transform="matrix(1.0, 0.0, 0.0, 1.0, 41.55, -1.6)">
    <path d="M-39.6 2.8 L38.85 6.15 Q44.15 9.5 42.65 13.6 41.8 15.85 39.65 17.3 L-39.9 14.4 Q-41.65 10.4 -40.75 5.95 L-39.6 2.8 -39.6 2.85 -39.55 2.85 -39.6 2.8 -39.55 2.85 -39.6 2.85 -39.6 2.8" fill="#ffffff" fill-opacity="0.0" fill-rule="evenodd" stroke="none"/>
    <path d="M-39.6 2.8 L-40.75 5.95 Q-41.65 10.4 -39.9 14.4 L39.65 17.3 Q41.8 15.85 42.65 13.6 44.15 9.5 38.85 6.15 L-39.6 2.8 -39.55 2.85 -39.6 2.85 -39.6 2.8 Z" fill="none" stroke="#000000" stroke-linecap="round" stroke-linejoin="miter-clip" stroke-miterlimit="4.0" stroke-opacity="0.4" stroke-width="1.0"/>
  </g>
</svg>
