<?xml version="1.0" encoding="UTF-8" standalone="no"?>
<svg xmlns:xlink="http://www.w3.org/1999/xlink" height="133.2px" width="466.3px" xmlns="http://www.w3.org/2000/svg">
  <g transform="matrix(1.0, 0.0, 0.0, 1.0, 233.15, 44.4)">
    <path d="M108.3 -38.0 L3.05 33.7 3.05 -38.0 108.3 -38.0 M3.05 57.75 L149.05 -38.0 191.55 -38.0 3.05 76.55 3.05 57.75 M217.35 -38.0 L233.15 -38.0 233.15 88.8 144.9 88.8 Q145.3 86.9 145.3 85.0 145.3 73.85 137.45 66.0 129.5 58.05 118.4 58.05 107.25 58.05 99.4 66.0 91.45 73.85 91.45 85.0 L91.75 88.8 3.05 88.8 3.05 86.75 217.35 -38.0 M-129.5 -38.0 L-233.15 30.95 -233.15 -38.0 -129.5 -38.0 M-233.15 55.65 L-86.95 -38.0 -42.65 -38.0 -233.15 75.15 -233.15 55.65 M-15.85 -38.0 L-7.2 -38.0 -7.2 88.8 -94.7 88.8 Q-94.3 86.9 -94.3 85.0 -94.3 73.85 -102.1 66.0 -110.05 58.05 -121.2 58.05 -132.35 58.05 -140.15 66.0 -148.1 73.85 -148.1 85.0 L-147.85 88.8 -233.15 88.8 -233.15 85.6 -15.85 -38.0" fill="#ffffff" fill-opacity="0.101960786" fill-rule="evenodd" stroke="none"/>
    <path d="M108.3 -38.0 L112.85 -41.1 153.75 -41.1 149.05 -38.0 3.05 57.75 3.05 33.7 108.3 -38.0 M191.55 -38.0 L196.65 -41.1 222.65 -41.1 217.35 -38.0 3.05 86.75 3.05 76.55 191.55 -38.0 M-129.5 -38.0 L-119.9 -44.4 -77.0 -44.4 -86.95 -38.0 -233.15 55.65 -233.15 30.95 -129.5 -38.0 M-42.65 -38.0 L-31.9 -44.4 -7.2 -44.4 -7.2 -42.9 -15.85 -38.0 -233.15 85.6 -233.15 75.15 -42.65 -38.0" fill="#ffffff" fill-opacity="0.3019608" fill-rule="evenodd" stroke="none"/>
  </g>
</svg>
