<?xml version="1.0" encoding="UTF-8" standalone="no"?>
<svg xmlns:xlink="http://www.w3.org/1999/xlink" height="247.95px" width="184.75px" xmlns="http://www.w3.org/2000/svg">
  <g transform="matrix(1.0, 0.0, 0.0, 1.0, 92.35, 123.95)">
    <path d="M-26.3 121.35 L-21.6 122.05 Q-4.8 123.9 11.6 115.95 24.3 109.8 35.3 98.5 L40.65 92.6 Q53.95 76.95 62.6 55.7 71.55 33.65 74.25 8.8 76.95 -16.1 72.95 -39.5 69.1 -62.15 59.5 -80.3 L55.55 -87.25 Q47.2 -100.65 36.15 -109.35 21.9 -120.65 5.1 -122.5 L-3.05 -122.8 5.1 -122.5 Q21.9 -120.65 36.15 -109.35 47.2 -100.65 55.55 -87.25 L59.5 -80.3 Q69.1 -62.15 72.95 -39.5 76.95 -16.1 74.25 8.8 71.55 33.65 62.6 55.7 53.95 76.95 40.65 92.6 L35.3 98.5 Q24.3 109.8 11.6 115.95 -4.8 123.9 -21.6 122.05 L-26.3 121.35 Q-40.4 118.65 -52.65 108.95 -66.45 98.05 -76.05 79.9 -79.0 74.25 -81.4 68.2 L-81.55 67.85 Q-86.85 54.5 -89.45 39.1 -90.8 31.1 -91.4 22.9 L-91.45 22.15 -91.5 21.15 Q-91.95 14.35 -91.8 7.4 L-91.8 6.95 -91.7 3.75 -91.5 -0.45 -91.25 -3.9 -90.8 -8.7 -90.75 -9.2 Q-89.9 -17.25 -88.35 -25.0 L-86.65 -32.75 -86.3 -34.1 -85.95 -35.5 -85.7 -36.45 -85.65 -36.55 -85.0 -38.85 -84.15 -41.8 -82.85 -45.85 Q-81.15 -51.05 -79.1 -56.1 -73.2 -70.6 -65.15 -82.45 L-81.55 67.85 -65.15 -82.45 Q-61.4 -88.0 -57.15 -93.0 -46.5 -105.65 -34.15 -113.05 L-28.1 -116.35 Q-15.85 -122.3 -3.4 -122.75 L-3.05 -122.8 Q8.4 -124.35 21.65 -122.2 33.9 -120.2 44.75 -113.55 L44.8 -113.55 48.15 -111.4 51.35 -109.05 52.6 -108.05 Q66.4 -96.9 75.95 -79.1 85.6 -61.1 89.5 -38.85 93.5 -15.75 90.8 9.1 88.05 34.35 78.95 56.2 69.9 77.95 55.7 93.55 50.5 99.25 44.9 103.95 L44.85 103.95 38.8 108.55 Q31.3 113.75 23.05 117.2 4.0 125.15 -17.15 123.05 L-26.3 121.35 M-19.0 17.55 L-3.4 -122.75 -19.0 17.55 -19.3 19.8 -19.2 19.7 -19.2 19.55 -19.0 17.55 M-18.75 19.0 L-18.95 19.3 -19.2 19.55 -18.95 19.3 -18.75 19.0 M-57.85 104.05 L-49.5 27.6 -49.45 27.25 -48.7 19.9 -48.7 19.85 -43.75 -30.05 -43.75 -30.15 -42.2 -45.85 -41.0 -56.1 -34.15 -113.05 -41.0 -56.1 -42.2 -45.85 -43.75 -30.15 -43.75 -30.05 -48.7 19.85 -48.7 19.9 -49.45 27.25 -49.5 27.6 -57.85 104.05 M35.3 98.5 L55.55 -87.25 35.3 98.5 M1.3 119.55 L26.9 -115.05 1.3 119.55 M-29.9 119.65 L-18.95 19.3 -29.9 119.65" fill="#ffffff" fill-opacity="0.0" fill-rule="evenodd" stroke="none"/>
    <path d="M-26.3 121.35 L-17.15 123.05 Q4.0 125.15 23.05 117.2 31.3 113.75 38.8 108.55 L44.85 103.95 44.9 103.95 Q50.5 99.25 55.7 93.55 69.9 77.95 78.95 56.2 88.05 34.35 90.8 9.1 93.5 -15.75 89.5 -38.85 85.6 -61.1 75.95 -79.1 66.4 -96.9 52.6 -108.05 L51.35 -109.05 48.15 -111.4 44.8 -113.55 44.75 -113.55 Q33.9 -120.2 21.65 -122.2 8.4 -124.35 -3.05 -122.8 M-34.15 -113.05 L-28.1 -116.35 Q-15.85 -122.3 -3.4 -122.75 M-65.15 -82.45 Q-73.2 -70.6 -79.1 -56.1 -81.15 -51.05 -82.85 -45.85 L-84.15 -41.8 -85.0 -38.85 -85.65 -36.55 -85.7 -36.45 -85.95 -35.5 -86.3 -34.1 -86.65 -32.75 -88.35 -25.0 Q-89.9 -17.25 -90.75 -9.2 L-90.8 -8.7 -91.25 -3.9 -91.5 -0.45 -91.7 3.75 -91.8 6.95 -91.8 7.4 Q-91.95 14.35 -91.5 21.15 L-91.45 22.15 -91.4 22.9 Q-90.8 31.1 -89.45 39.1 -86.85 54.5 -81.55 67.85 L-81.4 68.2 Q-79.0 74.25 -76.05 79.9 -66.45 98.05 -52.65 108.95 -40.4 118.65 -26.3 121.35 M-65.15 -82.45 Q-61.4 -88.0 -57.15 -93.0 -46.5 -105.65 -34.15 -113.05" fill="none" stroke="#000000" stroke-linecap="round" stroke-linejoin="miter-clip" stroke-miterlimit="4.0" stroke-width="1.0"/>
    <path d="M-3.05 -122.8 L5.1 -122.5 Q21.9 -120.65 36.15 -109.35 47.2 -100.65 55.55 -87.25 L59.5 -80.3 Q69.1 -62.15 72.95 -39.5 76.95 -16.1 74.25 8.8 71.55 33.65 62.6 55.7 53.95 76.95 40.65 92.6 L35.3 98.5 Q24.3 109.8 11.6 115.95 -4.8 123.9 -21.6 122.05 L-26.3 121.35 M-3.05 -122.8 L-3.4 -122.75 -19.0 17.55 -19.2 19.55 -18.95 19.3 -18.75 19.0 M-3.4 -122.75 L-3.35 -123.4 M-34.1 -113.7 L-34.15 -113.05 -41.0 -56.1 -42.2 -45.85 -43.75 -30.15 -43.75 -30.05 -48.7 19.85 -48.7 19.9 -49.45 27.25 -49.5 27.6 -57.85 104.05 M-81.55 67.85 L-65.15 -82.45 M-19.2 19.7 L-19.2 19.55 M-18.95 19.3 L-29.9 119.65 M26.9 -115.05 L1.3 119.55 M55.55 -87.25 L35.3 98.5" fill="none" stroke="#000000" stroke-linecap="round" stroke-linejoin="miter-clip" stroke-miterlimit="4.0" stroke-opacity="0.4" stroke-width="1.0"/>
  </g>
</svg>
