<?xml version="1.0" encoding="UTF-8" standalone="no"?>
<svg xmlns:xlink="http://www.w3.org/1999/xlink" height="408.8px" width="310.6px" xmlns="http://www.w3.org/2000/svg">
  <g transform="matrix(1.0, 0.0, 0.0, 1.0, 137.0, 228.85)">
    <path d="M1.05 -209.8 Q2.0 -208.6 3.4 -205.45 L4.1 -203.8 Q2.85 -203.05 1.55 -201.8 L-1.0 -199.8 Q-1.95 -202.35 -3.65 -202.55 -4.9 -202.65 -6.75 -202.0 L-8.7 -201.15 -12.2 -197.65 Q-11.25 -203.95 -9.2 -210.65 L-3.55 -210.45 Q0.4 -210.6 1.05 -209.8 M33.4 -200.05 Q38.3 -199.5 39.75 -197.95 40.85 -196.8 41.55 -194.3 39.5 -193.5 36.7 -191.9 33.95 -190.4 31.95 -189.6 31.1 -191.7 30.05 -192.15 28.75 -192.7 27.1 -191.55 L25.55 -190.5 19.25 -186.35 18.0 -185.55 14.95 -184.15 12.8 -183.55 12.75 -168.35 Q12.1 -168.7 11.4 -169.1 9.1 -170.35 6.6 -169.65 L6.85 -184.2 Q4.9 -185.2 3.45 -187.4 2.8 -188.3 2.3 -189.3 L4.55 -192.5 Q6.0 -194.4 7.4 -195.1 8.6 -193.6 10.75 -193.3 L12.35 -193.65 Q14.15 -194.45 17.4 -196.85 20.0 -198.8 21.95 -199.7 23.8 -200.65 25.1 -200.55 L33.4 -200.05 M85.75 -141.9 L80.95 -143.45 Q79.25 -144.05 77.95 -144.8 79.4 -147.15 79.3 -148.65 79.25 -150.2 77.25 -150.95 L75.1 -151.45 72.55 -151.9 Q70.3 -152.25 68.5 -152.75 64.1 -153.95 62.35 -156.25 60.5 -158.6 61.15 -162.2 L64.5 -162.0 66.6 -162.0 Q66.65 -161.65 66.95 -161.2 67.75 -160.05 72.1 -158.8 L74.4 -158.2 79.3 -156.8 Q82.35 -155.8 83.6 -154.75 87.65 -151.6 87.05 -146.35 86.8 -143.95 85.75 -141.9 M94.45 -126.0 Q100.5 -123.2 102.25 -120.95 103.9 -118.8 102.35 -113.9 96.75 -115.25 94.85 -116.0 94.35 -117.45 93.15 -118.15 L91.15 -118.8 87.5 -119.5 82.95 -120.65 Q77.6 -122.1 74.85 -124.2 72.1 -126.4 71.55 -129.2 71.05 -131.95 72.2 -135.15 73.15 -134.75 74.2 -134.5 L79.7 -134.1 Q79.5 -133.6 79.6 -133.1 79.8 -131.75 82.1 -130.85 L87.7 -128.7 91.9 -127.15 94.45 -126.0 M91.6 -112.5 Q94.25 -112.3 92.5 -109.45 91.95 -108.5 90.1 -107.25 L91.45 -106.8 91.3 -105.35 91.2 -105.0 Q90.85 -103.85 88.05 -102.0 L83.25 -99.2 Q76.25 -94.8 72.9 -93.95 70.75 -93.35 68.5 -93.3 L65.0 -93.55 Q64.35 -99.4 63.05 -104.55 L61.55 -110.5 61.95 -110.85 66.15 -114.05 Q67.9 -115.65 69.5 -118.95 71.15 -122.5 71.75 -123.1 72.95 -124.45 74.8 -123.5 76.55 -122.55 76.2 -120.65 74.95 -114.15 69.15 -110.45 L78.1 -114.8 Q85.85 -118.4 87.25 -118.65 L87.5 -118.7 Q88.75 -118.85 89.5 -117.9 90.0 -117.3 89.85 -116.65 92.1 -117.65 92.65 -116.95 93.15 -116.3 93.15 -114.55 93.15 -113.7 91.6 -112.5 M93.4 -104.1 Q98.0 -101.75 98.9 -100.8 99.65 -99.95 108.3 -97.85 L109.3 -97.4 Q114.35 -95.2 116.35 -92.65 117.95 -90.65 119.05 -86.2 119.55 -84.15 118.4 -81.7 L118.35 -81.75 Q114.0 -82.4 112.75 -83.05 L110.7 -84.35 Q110.5 -85.75 109.35 -87.15 108.55 -88.15 107.4 -88.55 L102.7 -88.35 Q98.2 -86.9 96.4 -87.0 94.05 -87.25 92.6 -88.95 90.05 -92.0 89.65 -94.1 89.3 -96.25 89.5 -98.45 89.75 -100.7 91.7 -104.55 L91.9 -105.0 93.4 -104.1 M72.5 -175.6 Q73.8 -173.25 72.85 -169.35 70.3 -170.2 67.3 -169.4 L63.65 -168.8 64.3 -170.25 Q65.1 -172.1 64.7 -172.0 L59.1 -171.0 54.25 -170.1 52.6 -169.85 45.65 -169.3 Q41.35 -172.85 39.1 -173.35 L36.8 -173.7 Q35.6 -175.7 34.7 -178.65 L35.2 -178.95 39.5 -181.5 42.75 -182.95 Q43.25 -181.35 45.1 -180.2 47.7 -178.7 50.65 -179.45 L50.85 -179.5 Q52.85 -180.1 58.05 -182.05 L58.05 -182.1 Q63.3 -183.5 66.8 -180.95 71.35 -177.6 72.5 -175.6 M60.1 -59.5 Q60.6 -54.95 60.55 -51.25 60.4 -47.65 59.8 -44.85 L57.4 -44.65 Q55.5 -44.15 53.7 -42.75 54.1 -46.5 53.55 -50.9 53.1 -54.0 52.15 -57.4 L54.85 -58.1 60.1 -59.5 M59.65 -119.6 L60.55 -115.05 Q60.65 -114.2 61.5 -110.95 57.75 -110.0 53.95 -108.3 50.65 -106.8 47.25 -104.8 45.35 -107.65 42.65 -109.8 46.05 -113.85 50.55 -116.3 54.7 -118.6 59.65 -119.6 M12.5 -130.75 L4.2 -128.3 2.5 -132.05 Q-0.6 -138.2 -8.75 -142.25 -14.25 -144.9 -19.35 -145.05 L-20.6 -156.65 -16.9 -156.45 Q-9.6 -155.75 -3.95 -152.6 2.65 -149.0 9.2 -137.4 L12.5 -130.75 M6.05 -119.05 L14.7 -117.45 14.65 -117.25 Q13.1 -109.55 7.85 -104.55 2.55 -99.55 -2.35 -100.9 L-2.65 -99.4 Q-3.5 -95.95 -4.5 -93.05 -5.7 -89.4 -7.0 -87.05 -8.95 -83.4 -11.05 -82.9 -13.0 -82.5 -17.25 -86.55 L-22.65 -92.45 -25.3 -95.7 -25.35 -95.75 Q-34.3 -95.65 -41.65 -97.9 -48.6 -100.1 -50.65 -103.3 L-51.1 -103.95 -40.3 -109.45 Q-37.05 -104.15 -29.8 -101.95 -32.3 -105.7 -33.75 -108.85 -37.5 -116.95 -36.15 -124.45 -34.45 -134.4 -23.65 -136.85 -14.95 -138.0 -8.7 -134.7 0.3 -129.95 -0.35 -117.1 -0.55 -112.75 -1.15 -108.3 6.0 -111.8 6.05 -119.05 M80.8 -55.95 Q83.5 -53.15 85.2 -49.3 86.95 -45.25 87.5 -39.9 L85.25 -39.35 Q84.1 -38.95 83.1 -38.35 81.4 -43.75 79.75 -46.95 77.55 -51.5 75.55 -51.9 L80.8 -55.95 M105.4 -10.1 L107.15 -9.9 Q109.5 -9.7 112.4 -10.0 112.05 -6.6 111.4 -3.7 110.25 1.25 108.1 4.75 104.85 3.05 101.9 2.3 103.75 -1.45 104.7 -5.75 L105.4 -10.1 M139.65 -56.05 Q140.45 -53.95 139.65 -51.35 L138.6 -48.8 133.2 -50.95 129.9 -52.15 Q128.15 -56.1 124.85 -58.2 L122.2 -59.5 118.3 -60.65 112.9 -61.95 Q112.05 -62.2 111.65 -62.4 108.25 -63.65 106.5 -66.25 104.75 -68.9 105.3 -71.75 105.5 -72.7 106.2 -74.1 L108.45 -74.15 113.95 -74.45 113.95 -74.35 Q114.3 -72.55 118.5 -69.8 121.45 -67.8 126.35 -65.3 L127.9 -64.5 Q138.5 -58.9 139.65 -56.05 M143.95 -26.15 Q150.1 -22.6 152.5 -18.15 157.45 -8.95 152.8 -2.5 L152.3 -1.9 Q149.05 -3.45 147.7 -4.6 145.8 -6.25 144.6 -10.05 146.15 -15.45 145.05 -17.65 144.1 -19.7 142.4 -20.1 L142.25 -20.15 133.85 -21.3 Q127.25 -22.1 124.95 -27.7 122.65 -33.35 123.85 -36.45 125.0 -39.6 127.65 -42.2 L129.25 -43.95 Q133.05 -43.6 135.35 -41.6 134.15 -37.8 134.85 -34.95 135.5 -32.2 137.45 -30.3 L137.75 -30.05 Q139.1 -28.8 142.45 -27.05 L143.95 -26.15 M162.4 74.15 Q163.35 69.3 163.35 60.15 163.35 55.1 159.05 51.9 155.5 49.3 148.55 47.6 140.7 46.8 135.6 49.75 134.0 50.7 132.9 51.9 L132.05 52.9 Q130.5 55.1 128.1 63.8 L128.35 63.85 135.05 65.65 Q138.45 66.8 141.3 68.4 L149.4 73.1 151.65 74.45 Q150.5 77.05 148.85 79.55 144.7 76.4 138.1 75.05 L131.7 74.15 129.75 74.0 125.6 73.65 121.85 73.35 112.6 72.8 Q109.1 72.7 105.4 72.9 96.15 73.35 90.2 75.0 84.2 76.65 80.8 83.7 77.55 90.45 78.35 98.4 79.05 105.9 85.45 109.75 91.6 113.45 103.7 114.2 L111.8 113.45 111.8 113.35 Q110.95 108.35 110.6 103.65 110.0 97.05 110.25 91.05 110.45 86.65 110.9 82.9 113.45 82.7 116.25 82.9 L123.35 83.4 120.85 95.4 Q120.55 98.6 120.9 102.65 121.1 106.05 121.75 110.1 L122.1 112.3 Q123.05 117.4 124.25 121.25 L124.4 121.75 Q126.0 126.6 128.1 129.35 131.9 134.45 140.4 134.2 146.55 134.0 157.1 130.7 162.9 128.85 165.1 121.75 L165.25 121.25 165.9 118.1 Q166.35 114.9 166.25 111.25 L166.0 108.25 Q165.8 103.4 161.85 96.65 L157.5 100.95 153.7 104.1 Q146.8 109.4 137.1 115.0 135.55 112.45 134.3 109.5 133.35 107.2 132.65 104.7 141.85 99.45 148.9 93.9 L154.45 89.15 155.85 87.85 Q158.9 84.45 160.75 79.9 161.75 77.2 162.4 74.15 M169.4 89.1 Q169.95 97.95 170.8 106.6 L172.15 121.25 172.2 121.75 173.6 138.35 Q160.75 141.9 145.05 143.55 L115.9 144.5 114.8 144.5 Q114.15 133.1 113.25 124.6 L110.15 125.1 83.7 128.6 Q70.15 130.0 68.45 128.2 67.85 127.5 66.5 121.75 L66.4 121.25 66.2 120.45 65.2 115.8 Q63.25 106.65 60.55 101.95 62.3 100.4 63.85 98.25 67.6 93.0 68.45 87.15 68.75 85.1 67.55 76.3 66.65 69.7 69.1 67.75 71.8 65.55 79.05 65.45 83.1 65.4 90.5 65.75 L98.65 65.75 Q103.25 65.5 110.95 63.75 L116.65 63.0 118.9 58.65 125.65 45.8 128.5 39.1 Q132.1 35.45 134.2 31.9 L160.2 31.05 160.35 33.55 Q160.95 40.15 162.4 43.5 163.4 45.95 167.85 52.95 L168.15 61.3 Q168.4 73.5 169.15 85.35 L169.4 89.1 M167.75 158.75 Q164.95 156.3 162.1 156.0 L162.1 166.7 Q166.2 167.55 168.3 169.85 L168.5 170.4 168.25 170.95 167.7 171.15 167.15 170.9 Q165.4 169.05 162.1 168.35 L162.1 179.15 161.85 179.7 161.3 179.95 160.75 179.7 160.5 179.15 160.5 145.35 Q160.5 145.05 160.75 144.8 160.95 144.55 161.3 144.55 161.6 144.55 161.85 144.8 L162.1 145.35 162.1 154.4 Q165.5 154.65 168.8 157.55 L169.1 158.1 168.9 158.65 168.35 158.95 167.75 158.75 M159.35 20.4 L136.65 21.6 136.55 17.7 136.1 12.35 Q137.1 8.45 140.15 1.25 141.6 2.2 143.9 3.35 L146.45 4.75 Q145.95 5.65 145.75 6.4 144.3 11.9 146.7 12.7 L151.15 12.95 158.85 12.95 159.35 20.4 M25.55 97.95 Q22.3 99.65 21.45 100.85 18.7 97.55 13.75 95.4 L13.9 95.1 Q15.85 92.05 16.65 90.25 22.65 93.45 25.55 97.95 M4.6 97.65 Q1.35 100.15 -2.0 100.25 -5.35 100.45 -5.2 97.95 -4.75 91.45 -7.85 78.5 -11.65 62.6 -19.95 40.3 L-1.85 39.2 -0.9 39.05 Q8.45 37.7 15.4 35.55 16.1 48.25 14.45 72.15 12.9 94.15 11.9 96.1 11.1 97.7 9.3 98.15 7.3 98.65 4.6 97.65 M59.25 123.5 Q56.85 125.7 55.8 129.35 L55.7 129.6 Q55.25 130.9 54.7 131.15 53.65 131.7 50.65 130.7 48.05 129.8 46.5 127.4 44.5 124.35 43.7 123.75 42.3 122.7 39.05 122.85 L33.85 122.45 32.55 121.75 31.85 121.25 30.65 119.9 28.25 114.85 Q32.4 112.25 39.4 109.65 L43.7 108.1 Q48.6 106.55 52.95 105.7 L59.25 123.5 M6.4 121.75 L6.8 122.1 Q7.65 122.85 12.6 123.35 17.45 123.85 19.65 126.05 22.3 128.7 22.35 130.3 L21.35 134.4 10.45 134.65 Q7.65 131.45 4.7 129.5 1.2 127.4 -1.1 125.75 -3.3 124.15 -7.35 123.45 -9.95 122.95 -11.15 121.75 L-11.55 121.25 -11.65 121.1 Q-13.0 118.85 -12.45 115.25 L-11.9 113.05 0.3 113.9 2.3 116.75 Q4.4 119.7 5.9 121.25 L6.4 121.75 M130.05 158.1 L131.05 156.75 131.5 158.35 Q134.15 168.05 133.3 177.85 L133.0 178.4 132.45 178.55 131.9 178.25 Q131.65 178.05 131.7 177.7 132.45 169.0 130.35 160.3 128.35 162.4 124.5 164.45 L123.6 164.95 123.35 164.0 Q121.4 157.65 122.1 149.25 L122.4 148.75 Q122.65 148.5 123.0 148.55 L123.55 148.85 123.7 149.45 Q123.05 156.8 124.6 162.6 128.45 160.3 130.05 158.1 M109.1 160.7 L109.15 160.5 Q111.1 154.3 110.0 151.65 109.0 149.6 105.65 150.05 L102.9 176.85 102.6 177.4 102.0 177.55 Q101.7 177.5 101.5 177.25 101.25 177.0 101.3 176.65 L104.2 148.65 104.75 148.6 Q110.05 147.55 111.45 151.0 112.85 154.0 110.75 160.85 L113.9 178.05 113.8 178.65 113.25 178.95 112.65 178.85 112.35 178.3 109.1 160.7 M121.15 150.45 L120.6 150.75 120.0 150.6 Q118.8 149.65 118.2 149.85 117.65 150.15 117.5 151.6 L118.9 178.3 118.7 178.9 118.15 179.15 117.6 178.95 117.3 178.4 115.9 151.45 Q116.2 148.8 117.55 148.35 118.8 147.65 121.0 149.3 L121.3 149.85 121.15 150.45 M93.35 145.8 Q93.6 145.55 93.9 145.55 L94.45 145.8 94.7 146.35 94.7 158.7 Q98.55 153.5 99.1 146.1 L99.4 145.55 Q99.6 145.3 100.0 145.35 L100.5 145.65 100.7 146.25 Q100.0 155.3 94.7 161.25 L94.7 176.55 94.45 177.1 93.9 177.35 93.35 177.1 93.1 176.55 93.1 146.35 93.35 145.8 M149.6 145.55 Q149.85 145.75 149.9 146.1 L151.15 161.2 154.35 163.3 154.7 163.8 154.55 164.4 154.05 164.75 153.45 164.65 151.3 163.2 152.5 178.1 152.3 178.65 Q152.1 178.9 151.75 178.95 151.4 179.0 151.15 178.75 L150.9 178.25 149.6 162.05 146.45 160.05 Q146.15 159.85 146.15 159.5 146.05 159.2 146.25 158.9 L146.75 158.6 147.35 158.7 149.45 160.05 148.3 146.25 Q148.25 145.85 148.5 145.65 148.7 145.4 149.05 145.35 L149.6 145.55 M139.4 147.45 L139.45 147.85 139.55 147.9 146.55 152.7 146.9 153.25 146.75 153.85 146.25 154.15 145.65 154.05 139.6 149.9 142.1 178.9 141.95 179.45 Q141.7 179.7 141.35 179.75 L140.75 179.6 140.5 179.05 138.0 149.75 Q135.75 151.05 135.5 154.25 L135.2 154.8 134.6 154.95 134.1 154.65 Q133.85 154.4 133.9 154.05 134.35 149.1 138.45 147.8 L139.4 147.45 M60.05 165.6 L60.65 165.65 61.05 166.1 64.45 175.7 Q64.6 176.0 64.4 176.3 L64.0 176.7 63.4 176.65 62.95 176.25 59.55 166.65 Q59.4 166.3 59.6 166.05 59.75 165.7 60.05 165.6 M50.7 162.55 L50.95 162.0 Q51.2 161.75 51.5 161.75 51.8 161.75 52.05 162.0 L52.3 162.55 52.3 175.55 52.05 176.1 51.5 176.35 50.95 176.1 50.7 175.55 50.7 162.55 M40.3 175.15 L40.3 171.55 40.55 171.0 Q40.8 170.75 41.1 170.75 L41.65 171.0 41.9 171.55 41.9 175.15 41.65 175.7 41.1 175.95 40.55 175.7 40.3 175.15 M27.1 159.35 L27.35 158.8 Q27.6 158.55 27.9 158.55 L28.45 158.8 28.7 159.35 28.7 173.75 28.45 174.3 27.9 174.55 27.35 174.3 27.1 173.75 27.1 159.35 M17.1 139.15 Q17.4 139.15 17.65 139.4 L17.9 139.95 18.3 174.15 18.1 174.7 17.5 174.95 16.95 174.75 Q16.7 174.45 16.7 174.15 L16.3 139.95 16.55 139.4 17.1 139.15 M8.3 138.55 Q8.6 138.55 8.85 138.8 L9.1 139.35 9.5 174.15 9.3 174.7 8.7 174.95 8.15 174.75 7.9 174.15 7.5 139.35 Q7.5 139.05 7.75 138.8 L8.3 138.55 M-95.8 -210.2 Q-90.9 -217.05 -83.75 -221.35 -95.95 -200.7 -92.0 -184.0 L-91.95 -183.85 -96.2 -179.35 -98.55 -176.65 Q-99.35 -185.9 -99.6 -203.8 -97.65 -207.75 -95.8 -210.2 M-42.95 -198.25 L-42.25 -197.3 Q-38.6 -197.95 -35.55 -201.45 -32.55 -204.95 -31.9 -208.95 -31.25 -213.25 -32.1 -216.5 -33.05 -220.2 -35.9 -222.0 -38.35 -223.5 -39.15 -226.35 L-39.5 -228.85 Q-33.55 -227.4 -26.1 -224.65 L-24.15 -221.5 Q-23.05 -219.65 -17.55 -215.55 L-13.9 -213.05 Q-20.55 -202.1 -20.7 -186.8 L-22.05 -186.95 -27.5 -187.65 -33.05 -188.05 -35.9 -187.65 Q-34.2 -184.65 -33.05 -181.95 -31.9 -179.2 -31.2 -176.6 -29.8 -171.35 -30.25 -166.7 L-30.45 -165.3 Q-31.65 -157.75 -39.5 -152.25 -45.85 -147.75 -55.5 -145.25 L-55.55 -145.25 Q-59.45 -144.2 -63.6 -144.25 -68.0 -144.35 -72.7 -145.6 -75.75 -146.45 -78.6 -147.65 -81.35 -148.8 -83.9 -150.35 L-88.75 -153.65 Q-94.95 -145.95 -98.3 -140.6 L-100.95 -136.4 -103.7 -134.75 Q-105.75 -133.15 -107.15 -131.05 -111.35 -131.65 -115.55 -133.0 -105.3 -150.95 -95.55 -162.95 L-91.1 -168.15 -88.35 -171.1 Q-83.6 -176.2 -78.7 -180.25 -70.25 -187.4 -61.5 -191.65 -57.55 -185.25 -56.25 -179.9 L-66.7 -175.1 Q-68.95 -174.0 -71.55 -171.95 -76.45 -168.1 -82.65 -160.95 -77.55 -157.1 -71.45 -155.4 -65.25 -153.7 -59.05 -154.05 -52.85 -154.45 -48.05 -159.15 -43.3 -163.85 -43.4 -168.65 -43.55 -173.45 -44.75 -179.7 -45.25 -182.0 -46.15 -184.25 -47.8 -188.3 -50.85 -192.35 L-52.75 -195.15 -54.3 -197.7 -57.2 -202.3 -57.45 -202.7 Q-60.5 -206.95 -68.45 -216.7 L-65.1 -219.05 -62.6 -220.65 Q-55.45 -217.3 -52.0 -212.45 L-49.15 -207.9 -47.9 -205.9 -42.95 -198.25 M-49.75 -141.05 Q-45.05 -149.45 -37.5 -153.1 L-31.0 -142.0 Q-35.25 -139.4 -38.5 -134.35 -43.2 -127.15 -43.2 -119.9 L-43.0 -117.1 -55.0 -116.0 Q-55.35 -119.8 -54.95 -124.0 -54.0 -133.4 -49.75 -141.05 M-84.5 -84.3 L-86.6 -83.8 -87.2 -87.05 -87.9 -90.6 Q-79.5 -91.85 -69.35 -90.7 L-70.15 -88.25 -71.25 -82.4 -72.4 -82.65 Q-75.05 -84.75 -79.15 -84.9 L-84.5 -84.3 M-100.15 -90.4 L-97.05 -87.25 Q-94.6 -84.65 -93.25 -83.95 -91.95 -83.2 -89.75 -83.05 L-86.55 -83.55 Q-85.6 -78.2 -85.5 -74.45 L-85.3 -66.65 Q-89.6 -64.35 -91.1 -63.75 -93.15 -62.9 -95.35 -62.55 -98.8 -62.05 -107.0 -63.35 L-112.45 -64.05 Q-115.7 -64.65 -116.5 -65.6 L-117.45 -67.15 -116.4 -68.1 -118.7 -68.75 -118.85 -68.8 -118.7 -68.6 Q-119.35 -64.55 -119.75 -62.8 L-120.8 -57.75 -124.4 -57.2 Q-125.7 -56.8 -127.95 -57.8 -129.75 -58.65 -129.85 -62.9 -130.05 -67.6 -130.65 -68.25 -131.6 -69.4 -133.15 -69.4 L-134.85 -69.4 -133.45 -76.45 -132.65 -80.2 -130.55 -80.2 Q-129.05 -80.2 -128.1 -79.3 -127.6 -78.8 -127.4 -75.15 -127.25 -71.8 -125.6 -71.55 L-121.25 -70.75 -120.85 -70.6 Q-121.25 -71.6 -119.8 -72.35 -121.75 -72.85 -122.05 -73.65 -122.75 -75.25 -122.5 -76.05 -122.25 -76.9 -119.85 -76.85 -120.2 -77.4 -120.0 -78.15 -119.6 -79.4 -118.2 -79.75 L-117.05 -79.8 -108.3 -79.75 -99.0 -79.3 Q-103.2 -82.5 -104.45 -87.7 -104.95 -89.6 -103.25 -90.6 -101.45 -91.7 -100.15 -90.4 M-122.25 -122.45 L-124.35 -123.2 -123.5 -128.3 Q-116.85 -123.85 -110.25 -124.5 L-111.2 -121.8 Q-111.65 -119.45 -109.85 -118.5 L-111.45 -112.8 Q-114.6 -112.1 -117.15 -115.1 -118.95 -117.25 -119.75 -120.0 -120.15 -121.4 -122.25 -122.45 M-123.4 -107.75 Q-122.85 -107.15 -122.65 -103.1 -122.5 -99.4 -120.85 -99.1 L-116.5 -98.25 Q-114.95 -97.95 -114.55 -96.15 L-116.6 -83.0 Q-118.85 -81.85 -119.5 -81.65 -120.6 -81.25 -122.6 -82.35 -124.1 -83.25 -124.25 -87.8 -124.4 -92.85 -124.9 -93.55 -125.75 -94.8 -127.1 -94.8 L-129.55 -95.65 -127.95 -103.85 -127.0 -108.75 -125.8 -108.75 Q-124.3 -108.75 -123.4 -107.75 M-21.75 -120.3 Q-21.65 -122.0 -22.95 -122.9 -24.2 -123.85 -26.05 -123.6 -27.9 -123.35 -28.95 -122.5 -30.0 -121.65 -30.3 -120.15 -30.6 -118.6 -29.35 -117.4 -28.15 -116.15 -26.3 -116.35 -24.4 -116.55 -23.15 -117.6 -22.5 -118.1 -22.15 -118.8 L-21.75 -120.3 M-7.6 -123.8 Q-7.35 -125.25 -8.55 -126.25 -9.75 -127.25 -11.85 -127.2 -13.95 -127.1 -15.25 -126.1 -16.5 -125.1 -16.5 -123.75 -16.5 -122.4 -15.55 -120.95 -15.1 -120.3 -14.45 -120.0 L-12.7 -119.75 Q-10.75 -119.9 -9.3 -121.15 -7.85 -122.4 -7.6 -123.8 M-132.1 -51.75 Q-131.55 -51.2 -131.35 -47.1 -131.2 -43.45 -129.55 -43.1 L-125.2 -42.25 Q-124.1 -42.05 -123.6 -41.1 L-124.55 -34.6 -125.35 -27.55 -125.35 -27.5 Q-127.15 -25.2 -128.2 -24.85 -129.3 -24.45 -131.3 -25.55 -132.8 -26.4 -132.95 -31.0 -133.1 -36.05 -133.6 -36.75 -134.4 -38.0 -135.8 -38.0 L-137.0 -37.75 Q-137.0 -45.65 -136.6 -52.75 L-134.5 -52.75 Q-133.0 -52.75 -132.1 -51.75 M-135.85 -13.6 Q-130.95 -14.75 -125.35 -14.75 -123.95 -5.05 -118.0 9.85 L-108.7 32.65 -108.15 31.9 Q-101.2 23.5 -96.05 22.4 -87.25 20.65 -83.15 20.7 -75.35 20.9 -67.85 25.55 -60.65 30.0 -56.45 33.6 L-56.3 33.95 Q-55.75 35.3 -54.25 35.6 -49.85 40.0 -49.7 43.65 L-49.35 52.45 Q-49.05 55.35 -48.3 57.2 L-48.6 57.7 Q-49.7 59.45 -53.85 67.95 L-63.2 87.1 -58.3 92.15 Q-49.7 101.15 -46.8 104.85 -47.7 105.85 -48.05 107.1 -48.95 109.95 -50.6 120.1 L-50.8 121.25 -50.85 121.75 Q-51.7 127.3 -52.85 139.0 -57.35 139.15 -58.8 138.9 -60.85 138.55 -62.35 133.9 -63.85 129.3 -63.05 126.0 L-64.2 126.5 Q-68.4 128.6 -71.8 129.5 L-73.0 129.95 Q-74.2 126.8 -76.35 124.0 L-72.2 121.75 -71.95 121.6 -71.35 121.25 Q-67.85 119.25 -64.45 116.65 -58.8 112.35 -58.6 109.9 -58.4 107.6 -63.5 102.95 L-71.65 95.6 -80.0 86.7 -85.25 81.25 -88.5 77.9 -100.65 65.4 -104.15 60.9 -101.15 55.7 Q-99.8 53.65 -97.7 51.9 L-94.05 56.2 -80.05 70.0 -71.3 78.8 Q-67.95 74.9 -66.7 71.2 L-63.5 61.4 Q-62.1 57.6 -60.25 55.35 L-56.25 50.95 Q-54.35 48.75 -54.65 47.15 -55.05 45.05 -56.65 43.55 -58.35 41.9 -60.75 41.5 L-64.45 41.1 -65.7 41.05 Q-67.95 38.7 -73.25 36.15 -78.5 33.65 -83.0 32.8 -87.3 31.95 -93.25 35.15 -98.95 38.1 -102.45 42.5 L-103.15 43.35 -106.15 46.8 Q-108.55 49.6 -109.85 51.8 -112.65 56.25 -115.25 62.25 L-116.3 64.8 Q-120.45 74.95 -121.25 82.05 -121.6 85.3 -121.2 89.75 L-129.65 90.45 Q-129.8 83.15 -129.15 76.7 L-128.9 74.65 -128.8 73.8 Q-127.9 67.3 -126.2 61.75 -125.25 58.7 -123.95 55.8 -121.65 50.5 -118.25 45.8 L-115.5 42.0 -116.5 40.25 -121.25 32.45 Q-125.35 25.35 -129.45 16.95 L-131.3 13.2 Q-133.95 7.55 -135.05 -2.35 L-135.85 -13.6 M-88.9 92.7 L-88.75 92.85 Q-83.85 97.45 -82.5 99.05 L-81.35 100.55 -85.3 103.5 Q-87.35 104.9 -95.55 107.7 L-104.85 111.05 -109.7 113.2 Q-112.45 114.6 -115.4 115.2 -113.7 118.75 -110.45 123.95 -105.45 131.95 -104.1 132.5 -103.2 132.85 -100.65 132.45 L-94.7 131.65 -94.4 131.65 Q-91.95 131.35 -86.35 128.9 -85.1 131.85 -83.1 135.25 L-83.85 135.8 Q-85.9 137.35 -94.4 141.35 L-94.9 141.55 Q-103.9 145.65 -105.25 145.65 -106.35 145.65 -109.4 141.7 -115.65 133.4 -116.95 131.85 -120.75 127.3 -124.45 115.0 L-125.65 111.0 -127.45 104.0 -121.85 103.5 -118.95 102.9 -113.35 101.5 -109.7 100.5 Q-96.05 96.65 -88.9 92.7 M-37.85 119.5 Q-39.2 118.85 -40.3 118.3 -38.7 111.55 -37.5 111.05 -36.6 110.65 -35.55 111.5 -34.25 112.55 -32.6 112.55 L-30.2 112.4 Q-29.9 113.95 -29.75 115.85 L-29.15 121.25 -29.05 121.75 -28.8 122.75 Q-28.15 124.2 -25.65 125.45 -23.2 126.7 -22.55 128.35 -21.7 130.45 -21.25 133.75 L-20.95 136.55 -28.4 137.15 -33.05 133.95 Q-35.9 132.0 -35.65 129.3 -34.9 126.05 -34.7 124.1 -34.6 122.85 -35.3 121.75 L-35.7 121.25 Q-36.5 120.35 -37.85 119.5 M-2.9 164.05 L-2.7 163.45 Q-2.5 163.2 -2.15 163.15 -1.8 163.1 -1.6 163.35 L-1.3 163.9 -0.5 174.5 Q-0.45 174.85 -0.7 175.05 -0.9 175.3 -1.2 175.35 L-1.8 175.15 -2.1 174.65 -2.9 164.05 M-54.05 140.35 Q-53.75 140.35 -53.5 140.65 L-53.3 141.2 -54.7 178.8 -54.95 179.35 -55.5 179.55 -56.05 179.3 -56.3 178.75 -54.9 141.15 -54.6 140.6 Q-54.4 140.35 -54.05 140.35 M-45.85 140.8 L-44.6 141.95 Q-35.6 149.25 -33.9 177.5 L-34.1 178.1 -34.65 178.35 -35.2 178.15 -35.5 177.6 Q-37.0 152.35 -44.35 144.4 L-45.3 178.6 -45.55 179.15 -46.1 179.35 -46.65 179.1 -46.9 178.55 -45.85 140.8 M-3.2 138.95 L-2.9 139.5 -2.5 144.7 Q-2.45 145.05 -2.7 145.25 L-3.2 145.55 -3.8 145.35 -4.1 144.85 -4.5 139.65 -4.3 139.05 -3.75 138.75 Q-3.4 138.7 -3.2 138.95 M-14.45 143.05 Q-14.25 142.75 -13.9 142.75 L-13.35 143.0 Q-13.1 143.2 -13.1 143.55 L-11.9 175.95 -12.1 176.5 -12.65 176.75 -13.2 176.55 -13.5 176.0 -14.7 143.6 -14.45 143.05 M-18.5 145.65 Q-18.7 145.9 -19.0 145.95 L-19.6 145.75 -19.9 145.25 -19.7 144.65 -13.9 137.95 -8.3 144.25 -8.1 144.8 -8.35 145.35 Q-8.6 145.55 -8.95 145.55 L-9.5 145.3 -13.9 140.4 -18.5 145.65 M-32.1 141.15 L-31.85 140.6 -31.3 140.35 Q-31.0 140.35 -30.75 140.6 -30.5 140.85 -30.5 141.15 L-30.5 153.25 Q-24.5 146.25 -23.9 139.3 L-23.6 138.75 Q-23.4 138.5 -23.0 138.55 L-22.5 138.85 Q-22.25 139.05 -22.3 139.45 -22.95 147.55 -30.5 155.65 L-30.5 164.75 -30.75 165.3 -31.3 165.55 -31.85 165.3 -32.1 164.75 -32.1 141.15" fill="#ffffff" fill-opacity="0.0" fill-rule="evenodd" stroke="none"/>
  </g>
</svg>
