<?xml version="1.0" encoding="UTF-8" standalone="no"?>
<svg xmlns:xlink="http://www.w3.org/1999/xlink" height="333.2px" width="217.95px" xmlns="http://www.w3.org/2000/svg">
  <g transform="matrix(1.0, 0.0, 0.0, 1.0, 108.95, 166.4)">
    <path d="M22.65 -155.35 L98.0 -155.35 Q102.35 -155.35 105.45 -152.25 108.5 -149.15 108.5 -144.8 L108.5 -142.9 Q105.05 -141.75 101.45 -141.3 L98.5 -141.1 22.65 -141.1 22.65 -155.35 M7.15 20.65 L7.25 20.1 8.4 21.2 10.45 24.2 Q12.9 29.3 9.25 34.25 L7.15 36.3 Q2.95 39.2 -6.25 39.55 L-6.55 39.55 -6.9 39.55 Q-10.85 39.7 -15.2 39.35 L-18.75 38.95 -6.55 34.75 -6.55 -115.65 Q-0.45 -115.85 0.3 -113.2 L0.3 31.25 Q5.8 27.15 7.15 20.65 M2.15 165.8 L1.45 165.9 0.3 165.9 -0.85 165.9 Q-3.2 165.9 -4.9 161.35 -5.75 159.0 -6.15 156.15 L0.3 155.85 0.3 165.9 2.15 165.8 M-18.75 149.55 L-6.55 145.35 -6.55 137.75 0.3 137.4 0.3 141.85 Q5.8 137.75 7.15 131.25 L7.25 130.85 7.25 130.7 8.4 131.8 10.45 134.8 Q12.9 139.9 9.25 144.85 L7.15 146.9 Q2.95 149.8 -6.25 150.15 L-6.55 150.15 -6.9 150.15 Q-10.85 150.3 -15.2 149.95 L-18.75 149.55 M-18.75 131.15 L-6.55 126.9 -6.55 119.3 0.3 118.95 0.3 123.45 Q5.85 119.3 7.15 112.7 L7.2 112.45 7.25 112.25 7.4 112.4 8.4 113.35 10.45 116.35 Q12.9 121.45 9.25 126.4 L7.15 128.45 Q2.9 131.35 -6.4 131.75 L-6.55 131.75 -6.9 131.75 -15.2 131.5 -18.75 131.15 M-18.75 112.7 L-6.55 108.45 -6.55 100.85 0.3 100.55 0.3 105.0 Q5.85 100.85 7.15 94.3 L7.2 94.05 7.25 93.8 8.4 94.9 Q9.65 96.35 10.45 97.95 12.9 103.05 9.25 108.0 L7.15 110.05 Q2.95 112.95 -6.25 113.3 L-6.55 113.3 -6.9 113.3 Q-10.85 113.45 -15.2 113.1 L-18.75 112.7 M-18.75 94.25 L-6.55 90.05 -6.55 82.45 0.3 82.1 0.3 86.55 Q5.8 82.45 7.15 75.95 L7.25 75.6 7.25 75.4 8.4 76.5 10.45 79.5 Q12.9 84.6 9.25 89.55 L7.15 91.6 Q2.95 94.5 -6.25 94.85 L-6.55 94.85 -6.9 94.85 Q-10.85 95.0 -15.2 94.65 L-18.75 94.25 M-18.75 75.85 L-6.55 71.6 -6.55 64.0 0.3 63.65 0.3 68.15 Q5.85 64.0 7.15 57.45 L7.2 57.2 7.25 56.95 8.4 58.05 10.45 61.05 Q12.9 66.15 9.25 71.1 L7.15 73.15 Q2.9 76.05 -6.4 76.45 L-6.55 76.45 -6.9 76.45 -15.2 76.2 -18.75 75.85 M-18.75 57.4 L-6.55 53.15 -6.55 45.55 0.3 45.25 0.3 49.7 Q5.85 45.55 7.15 39.0 L7.2 38.75 7.25 38.5 8.4 39.6 Q9.65 41.05 10.45 42.65 12.9 47.75 9.25 52.7 8.45 53.85 7.15 54.7 2.95 57.65 -6.25 58.0 L-6.55 58.0 -6.9 58.0 Q-10.85 58.15 -15.2 57.8 L-18.75 57.4 M-108.45 -143.2 L-108.45 -144.8 Q-108.45 -149.15 -105.35 -152.25 -102.3 -155.35 -97.95 -155.35 L-22.6 -155.35 -22.6 -141.1 -96.35 -141.1 Q-102.95 -141.1 -108.45 -143.2 M25.05 -151.1 L98.25 -153.25 25.05 -153.75 25.05 -151.1 M-6.55 34.75 Q-3.55 33.6 -2.55 33.05 L0.3 31.25 -2.55 33.05 Q-3.55 33.6 -6.55 34.75 M-6.55 71.6 L-2.55 69.95 0.3 68.15 -2.55 69.95 -6.55 71.6 M-6.55 90.05 Q-3.55 88.9 -2.55 88.35 L0.3 86.55 -2.55 88.35 Q-3.55 88.9 -6.55 90.05 M-6.55 108.45 L-2.55 106.8 0.3 105.0 -2.55 106.8 -6.55 108.45 M-6.55 53.15 L-2.55 51.5 0.3 49.7 -2.55 51.5 -6.55 53.15 M-6.55 126.9 L-2.55 125.25 0.3 123.45 -2.55 125.25 -6.55 126.9 M-6.55 145.35 Q-3.55 144.2 -2.55 143.65 L0.3 141.85 -2.55 143.65 Q-3.55 144.2 -6.55 145.35 M-25.8 -151.1 L-25.8 -153.75 -99.0 -153.25 -25.8 -151.1" fill="#ffffff" fill-opacity="0.34901962" fill-rule="evenodd" stroke="none"/>
    <path d="M108.5 -142.9 L108.5 -140.6 Q108.5 -136.2 105.45 -133.15 102.35 -130.05 98.0 -130.05 L22.65 -130.05 22.65 -130.25 22.65 -141.1 98.5 -141.1 101.45 -141.3 Q105.05 -141.75 108.5 -142.9 M7.15 -121.65 L7.15 20.65 Q5.8 27.15 0.3 31.25 L0.3 -113.2 Q-0.45 -115.85 -6.55 -115.65 L-6.55 -121.65 7.15 -121.65 M7.15 149.35 L7.15 151.25 7.15 154.05 7.0 154.15 6.95 154.85 6.65 156.85 6.3 158.8 5.95 160.0 5.75 160.65 5.5 161.35 Q4.45 164.15 3.15 165.25 L2.9 165.45 2.75 165.55 2.2 165.8 2.15 165.8 0.3 165.9 0.3 155.85 -6.15 156.15 -6.55 156.15 -6.55 151.45 -6.15 156.15 -6.55 151.45 -4.95 151.45 Q2.6 151.35 7.15 149.35 M-6.55 137.75 L-6.55 133.0 -4.95 133.0 Q2.6 132.85 7.15 130.9 L7.15 131.25 Q5.8 137.75 0.3 141.85 L0.3 137.4 -6.55 137.75 M-6.55 119.3 L-6.55 114.55 -4.95 114.55 Q2.6 114.45 7.15 112.5 L7.15 112.7 Q5.85 119.3 0.3 123.45 L0.3 118.95 -6.55 119.3 M-6.55 100.85 L-6.55 96.15 -4.95 96.15 Q2.6 96.05 7.15 94.05 L7.15 94.3 Q5.85 100.85 0.3 105.0 L0.3 100.55 -6.55 100.85 M-6.55 82.45 L-6.55 77.7 -4.95 77.7 Q2.6 77.55 7.15 75.6 L7.15 75.95 Q5.8 82.45 0.3 86.55 L0.3 82.1 -6.55 82.45 M-6.55 64.0 L-6.55 59.25 -4.95 59.25 Q2.6 59.15 7.15 57.2 L7.15 57.45 Q5.85 64.0 0.3 68.15 L0.3 63.65 -6.55 64.0 M-6.55 45.55 L-6.55 40.85 -4.95 40.85 Q2.6 40.75 7.15 38.75 L7.15 39.0 Q5.85 45.55 0.3 49.7 L0.3 45.25 -6.55 45.55 M-22.6 -130.05 L-97.95 -130.05 Q-102.3 -130.05 -105.35 -133.15 -108.45 -136.2 -108.45 -140.6 L-108.45 -143.2 Q-102.95 -141.1 -96.35 -141.1 L-22.6 -141.1 -22.6 -130.25 -22.6 -130.05 M6.95 154.85 L7.15 151.25 6.95 154.85 M5.5 161.35 L5.95 160.0 5.5 161.35 M2.15 165.8 L2.75 165.55 2.15 165.8" fill="#ffffff" fill-opacity="0.0" fill-rule="evenodd" stroke="none"/>
    <path d="M22.3 -128.45 L21.8 -127.15 Q21.05 -125.6 19.45 -124.25 L19.3 -124.1 19.05 -123.9 Q17.6 -122.85 16.0 -122.25 L15.95 -122.25 14.2 -121.8 12.15 -121.65 12.0 -121.65 7.15 -121.65 -6.55 -121.65 -12.1 -121.65 -12.25 -121.65 -15.6 -122.1 Q-17.75 -122.75 -19.5 -124.25 -21.7 -126.1 -22.35 -128.5 L9.35 -128.5 Q13.3 -128.8 15.15 -131.3 16.1 -132.55 16.2 -133.75 L16.2 -155.35 Q16.2 -160.6 14.1 -163.75 L12.0 -165.85 12.15 -165.85 14.2 -165.65 15.5 -165.35 15.65 -165.3 17.5 -164.55 17.6 -164.5 15.65 -165.3 17.6 -164.5 19.45 -163.25 Q22.55 -160.65 22.55 -157.0 L22.55 -130.5 22.3 -128.45 M16.0 -122.25 L19.3 -124.1 16.0 -122.25" fill="#000000" fill-opacity="0.4" fill-rule="evenodd" stroke="none"/>
    <path d="M-22.35 -128.5 L-22.5 -129.25 -22.6 -130.25 -22.6 -141.1 -22.6 -155.35 -22.6 -157.0 Q-22.6 -160.65 -19.5 -163.25 -16.45 -165.85 -12.1 -165.85 L12.0 -165.85 14.1 -163.75 Q16.2 -160.6 16.2 -155.35 L16.2 -133.75 Q16.1 -132.55 15.15 -131.3 13.3 -128.8 9.35 -128.5 L-22.35 -128.5" fill="#000000" fill-opacity="0.2509804" fill-rule="evenodd" stroke="none"/>
    <path d="M22.65 -130.05 L22.55 -129.1 22.3 -128.45 22.55 -130.5 22.55 -157.0 Q22.55 -160.65 19.45 -163.25 L17.6 -164.5 17.5 -164.55 18.1 -164.3 18.15 -164.3 18.3 -164.2 18.35 -164.15 18.4 -164.1 18.5 -164.05 18.9 -163.8 19.05 -163.65 19.6 -163.25 Q22.65 -160.65 22.65 -157.0 L22.65 -155.35 22.65 -141.1 22.65 -130.25 22.65 -130.05 M21.8 -127.15 L21.55 -126.4 21.4 -126.15 21.2 -125.9 20.9 -125.55 20.65 -125.25 19.6 -124.25 19.6 -124.2 19.55 -124.15 19.05 -123.9 19.3 -124.1 19.6 -124.2 19.3 -124.1 19.45 -124.25 Q21.05 -125.6 21.8 -127.15 M15.95 -122.25 L15.7 -122.1 14.2 -121.8 15.95 -122.25 M-22.5 -129.25 L-22.6 -130.05 -22.6 -130.25 -22.5 -129.25 M15.25 -165.45 L15.5 -165.35 14.2 -165.65 15.25 -165.45 M18.1 -164.3 L17.6 -164.5 18.1 -164.3 M22.65 -130.25 L22.55 -129.1 22.65 -130.25" fill="#a9abae" fill-rule="evenodd" stroke="none"/>
    <path d="M7.25 20.1 Q11.15 22.95 12.9 25.4 15.6 29.2 13.95 32.75 12.55 35.8 8.55 38.05 L7.45 38.65 Q11.25 41.45 12.9 43.85 15.6 47.65 13.95 51.2 12.5 54.3 8.55 56.5 L7.45 57.1 Q11.25 59.9 12.9 62.3 15.6 66.05 13.95 69.6 12.5 72.75 8.55 74.9 L7.4 75.5 Q11.2 78.3 12.9 80.7 15.6 84.5 13.95 88.05 12.55 91.1 8.55 93.35 L7.45 93.95 Q11.25 96.75 12.9 99.15 15.6 102.95 13.95 106.5 12.5 109.6 8.55 111.8 L7.4 112.4 Q11.25 115.2 12.9 117.6 15.6 121.35 13.95 124.9 12.5 128.05 8.55 130.2 L7.4 130.8 Q11.2 133.6 12.9 136.0 15.6 139.8 13.95 143.35 12.55 146.4 8.55 148.65 L7.15 149.35 Q2.6 151.35 -4.95 151.45 L-6.55 151.45 Q-13.6 151.35 -18.75 149.55 L-15.2 149.95 Q-10.85 150.3 -6.9 150.15 L-6.55 150.15 -6.25 150.15 Q2.95 149.8 7.15 146.9 L9.25 144.85 Q12.9 139.9 10.45 134.8 L8.4 131.8 7.25 130.7 7.4 130.8 7.25 130.7 7.25 130.85 7.15 130.9 Q2.6 132.85 -4.95 133.0 L-6.55 133.0 Q-13.6 132.9 -18.75 131.15 L-15.2 131.5 -6.9 131.75 -6.55 131.75 -6.4 131.75 Q2.9 131.35 7.15 128.45 L9.25 126.4 Q12.9 121.45 10.45 116.35 L8.4 113.35 7.4 112.4 7.25 112.25 7.2 112.45 7.15 112.5 Q2.6 114.45 -4.95 114.55 L-6.55 114.55 Q-13.6 114.45 -18.75 112.7 L-15.2 113.1 Q-10.85 113.45 -6.9 113.3 L-6.55 113.3 -6.25 113.3 Q2.95 112.95 7.15 110.05 L9.25 108.0 Q12.9 103.05 10.45 97.95 9.65 96.35 8.4 94.9 L7.25 93.8 7.2 94.05 7.15 94.05 Q2.6 96.05 -4.95 96.15 L-6.55 96.15 Q-13.6 96.05 -18.75 94.25 L-15.2 94.65 Q-10.85 95.0 -6.9 94.85 L-6.55 94.85 -6.25 94.85 Q2.95 94.5 7.15 91.6 L9.25 89.55 Q12.9 84.6 10.45 79.5 L8.4 76.5 7.25 75.4 7.4 75.5 7.25 75.4 7.25 75.6 7.15 75.6 Q2.6 77.55 -4.95 77.7 L-6.55 77.7 Q-13.6 77.6 -18.75 75.85 L-15.2 76.2 -6.9 76.45 -6.55 76.45 -6.4 76.45 Q2.9 76.05 7.15 73.15 L9.25 71.1 Q12.9 66.15 10.45 61.05 L8.4 58.05 7.25 56.95 7.2 57.2 7.15 57.2 Q2.6 59.15 -4.95 59.25 L-6.55 59.25 Q-13.6 59.15 -18.75 57.4 L-15.2 57.8 Q-10.85 58.15 -6.9 58.0 L-6.55 58.0 -6.25 58.0 Q2.95 57.65 7.15 54.7 8.45 53.85 9.25 52.7 12.9 47.75 10.45 42.65 9.65 41.05 8.4 39.6 L7.25 38.5 7.2 38.75 7.15 38.75 Q2.6 40.75 -4.95 40.85 L-6.55 40.85 Q-13.6 40.75 -18.75 38.95 L-15.2 39.35 Q-10.85 39.7 -6.9 39.55 L-6.55 39.55 -6.25 39.55 Q2.95 39.2 7.15 36.3 L9.25 34.25 Q12.9 29.3 10.45 24.2 L8.4 21.2 7.25 20.1 M25.05 -151.1 L25.05 -153.75 98.25 -153.25 25.05 -151.1 M7.45 38.65 L7.25 38.5 7.45 38.65 M7.45 57.1 L7.25 56.95 7.45 57.1 M7.25 93.8 L7.45 93.95 7.25 93.8 M-25.8 -151.1 L-99.0 -153.25 -25.8 -153.75 -25.8 -151.1" fill="#ffffff" fill-opacity="0.6" fill-rule="evenodd" stroke="none"/>
    <path d="M-15.6 -122.1 L-15.7 -122.15 Q-17.35 -122.6 -18.8 -123.6 -21.65 -125.5 -22.5 -128.5 L-22.35 -128.5 Q-21.7 -126.1 -19.5 -124.25 -17.75 -122.75 -15.6 -122.1" fill="#919396" fill-rule="evenodd" stroke="none"/>
    <path d="M22.65 -155.35 L98.0 -155.35 Q102.35 -155.35 105.45 -152.25 108.5 -149.15 108.5 -144.8 L108.5 -142.9 108.5 -140.6 Q108.5 -136.2 105.45 -133.15 102.35 -130.05 98.0 -130.05 L22.65 -130.05 22.55 -129.1 22.3 -128.45 M21.8 -127.15 L21.55 -126.4 21.4 -126.15 21.2 -125.9 20.9 -125.55 20.65 -125.25 19.6 -124.25 19.6 -124.2 19.55 -124.15 19.05 -123.9 M15.95 -122.25 L15.7 -122.1 12.15 -121.65 12.0 -121.65 7.15 -121.65 7.15 20.65 7.25 20.1 Q11.15 22.95 12.9 25.4 15.6 29.2 13.95 32.75 12.55 35.8 8.55 38.05 L7.45 38.65 Q11.25 41.45 12.9 43.85 15.6 47.65 13.95 51.2 12.5 54.3 8.55 56.5 L7.45 57.1 Q11.25 59.9 12.9 62.3 15.6 66.05 13.95 69.6 12.5 72.75 8.55 74.9 L7.4 75.5 Q11.2 78.3 12.9 80.7 15.6 84.5 13.95 88.05 12.55 91.1 8.55 93.35 L7.45 93.95 Q11.25 96.75 12.9 99.15 15.6 102.95 13.95 106.5 12.5 109.6 8.55 111.8 L7.4 112.4 Q11.25 115.2 12.9 117.6 15.6 121.35 13.95 124.9 12.5 128.05 8.55 130.2 L7.4 130.8 Q11.2 133.6 12.9 136.0 15.6 139.8 13.95 143.35 12.55 146.4 8.55 148.65 L7.15 149.35 7.15 151.25 6.95 154.85 6.65 156.85 6.3 158.8 5.95 160.0 5.5 161.35 Q4.45 164.15 3.15 165.25 L2.75 165.55 2.15 165.8 1.45 165.9 0.3 165.9 -0.85 165.9 Q-3.2 165.9 -4.9 161.35 -5.75 159.0 -6.15 156.15 L-6.55 151.45 Q-13.6 151.35 -18.75 149.55 L-6.55 145.35 -6.55 137.75 -6.55 133.0 Q-13.6 132.9 -18.75 131.15 L-6.55 126.9 -6.55 119.3 -6.55 114.55 Q-13.6 114.45 -18.75 112.7 L-6.55 108.45 -6.55 100.85 -6.55 96.15 Q-13.6 96.05 -18.75 94.25 L-6.55 90.05 -6.55 82.45 -6.55 77.7 Q-13.6 77.6 -18.75 75.85 L-6.55 71.6 -6.55 64.0 -6.55 59.25 Q-13.6 59.15 -18.75 57.4 L-6.55 53.15 -6.55 45.55 -6.55 40.85 Q-13.6 40.75 -18.75 38.95 L-6.55 34.75 -6.55 -115.65 -6.55 -121.65 -12.1 -121.65 -12.25 -121.65 -15.6 -122.1 Q-17.75 -122.75 -19.5 -124.25 -21.7 -126.1 -22.35 -128.5 L-22.5 -129.25 -22.6 -130.05 -97.95 -130.05 Q-102.3 -130.05 -105.35 -133.15 -108.45 -136.2 -108.45 -140.6 L-108.45 -143.2 -108.45 -144.8 Q-108.45 -149.15 -105.35 -152.25 -102.3 -155.35 -97.95 -155.35 L-22.6 -155.35 -22.6 -157.0 Q-22.6 -160.65 -19.5 -163.25 -16.45 -165.85 -12.1 -165.85 L12.0 -165.85 12.15 -165.85 15.25 -165.45 15.5 -165.35 M17.5 -164.55 L18.1 -164.3 18.15 -164.3 18.3 -164.2 18.35 -164.15 18.4 -164.1 18.5 -164.05 18.9 -163.8 19.05 -163.65 19.6 -163.25 Q22.65 -160.65 22.65 -157.0 L22.65 -155.35 M12.15 -165.85 L14.2 -165.65 15.25 -165.45 M17.6 -164.5 L18.1 -164.3 M15.65 -165.3 L17.6 -164.5 M22.65 -130.25 L22.65 -130.05 M22.55 -129.1 L22.65 -130.25 M19.6 -124.2 L19.3 -124.1 16.0 -122.25 M14.2 -121.8 L15.7 -122.1 M14.2 -121.8 L12.15 -121.65 M7.2 38.75 L7.25 38.5 7.45 38.65 M7.2 38.75 L7.15 38.75 7.15 39.0 7.2 38.75 M7.15 57.2 L7.2 57.2 7.25 56.95 7.45 57.1 M7.15 57.45 L7.15 57.2 M7.2 57.2 L7.15 57.45 M7.15 75.95 L7.25 75.6 7.15 75.6 7.15 75.95 M7.25 75.4 L7.4 75.5 M7.25 75.6 L7.25 75.4 M7.15 94.3 L7.2 94.05 7.15 94.05 7.15 94.3 M7.25 93.8 L7.2 94.05 M7.45 93.95 L7.25 93.8 M7.2 112.45 L7.15 112.7 7.15 112.5 7.2 112.45 7.25 112.25 7.4 112.4 M7.25 130.7 L7.4 130.8 M7.25 130.85 L7.25 130.7 M7.15 131.25 L7.25 130.85 7.15 130.9 7.15 131.25 M-22.6 -130.25 L-22.5 -129.25 M-22.6 -130.05 L-22.6 -130.25" fill="none" stroke="#000000" stroke-linecap="round" stroke-linejoin="miter-clip" stroke-miterlimit="4.0" stroke-width="1.0"/>
    <path d="M22.65 -155.35 L22.65 -141.1 22.65 -130.25 M-22.6 -130.25 L-22.6 -141.1 -22.6 -155.35 M-6.55 -121.65 L7.15 -121.65" fill="none" stroke="#818181" stroke-linecap="round" stroke-linejoin="miter-clip" stroke-miterlimit="4.0" stroke-opacity="0.6" stroke-width="1.0"/>
    <path d="M7.15 20.65 Q5.8 27.15 0.3 31.25 L-2.55 33.05 Q-3.55 33.6 -6.55 34.75 M7.15 57.2 Q2.6 59.15 -4.95 59.25 L-6.55 59.25 M7.15 57.45 Q5.85 64.0 0.3 68.15 L-2.55 69.95 -6.55 71.6 M7.15 75.95 Q5.8 82.45 0.3 86.55 L-2.55 88.35 Q-3.55 88.9 -6.55 90.05 M7.15 94.3 Q5.85 100.85 0.3 105.0 L-2.55 106.8 -6.55 108.45 M0.3 49.7 Q5.85 45.55 7.15 39.0 M0.3 49.7 L-2.55 51.5 -6.55 53.15 M7.15 112.7 Q5.85 119.3 0.3 123.45 L-2.55 125.25 -6.55 126.9 M7.15 112.5 Q2.6 114.45 -4.95 114.55 L-6.55 114.55 M7.15 131.25 Q5.8 137.75 0.3 141.85 L-2.55 143.65 Q-3.55 144.2 -6.55 145.35 M-6.55 151.45 L-4.95 151.45 Q2.6 151.35 7.15 149.35 M-6.55 40.85 L-4.95 40.85 Q2.6 40.75 7.15 38.75 M-6.55 77.7 L-4.95 77.7 Q2.6 77.55 7.15 75.6 M-6.55 96.15 L-4.95 96.15 Q2.6 96.05 7.15 94.05 M-6.55 133.0 L-4.95 133.0 Q2.6 132.85 7.15 130.9" fill="none" stroke="#000000" stroke-linecap="round" stroke-linejoin="miter-clip" stroke-miterlimit="4.0" stroke-opacity="0.49803922" stroke-width="1.0"/>
  </g>
</svg>
