<?xml version="1.0" encoding="UTF-8" standalone="no"?>
<svg xmlns:xlink="http://www.w3.org/1999/xlink" height="24.4px" width="26.4px" xmlns="http://www.w3.org/2000/svg">
  <g transform="matrix(1.0, 0.0, 0.0, 1.0, 13.15, 13.1)">
    <path d="M-0.85 -5.7 L-1.0 -7.85 Q-1.2 -9.3 -1.8 -9.7 L-2.05 -9.85 Q-2.35 -10.1 -2.25 -10.8 L-1.95 -11.45 -1.85 -11.5 -1.8 -11.4 -1.8 -10.95 -1.55 -10.55 -1.25 -10.55 -1.0 -10.75 -0.8 -11.3 -0.6 -12.45 -0.55 -12.55 -0.4 -12.6 -0.25 -12.5 0.25 -11.65 0.3 -10.65 0.1 -9.55 Q-0.05 -8.95 0.1 -8.5 L0.5 -7.35 Q0.75 -6.7 1.1 -6.3 L-0.85 -5.7 M5.65 -3.9 Q6.15 -3.85 7.55 -4.55 L8.9 -5.3 9.35 -4.85 9.55 -4.5 Q9.0 -4.35 7.75 -3.4 L6.6 -2.45 5.65 -3.9 M7.5 -1.2 L9.7 -0.5 11.85 -0.7 12.25 -0.85 12.45 -0.85 12.65 -0.75 12.65 -0.5 12.65 0.45 12.5 1.3 12.15 1.6 11.75 1.6 11.5 1.4 Q10.85 0.8 9.5 0.7 L7.3 0.85 7.5 -1.2 M-6.7 0.85 L-8.85 0.8 Q-9.9 1.0 -10.85 1.55 L-11.25 1.75 -11.65 1.85 -12.25 1.45 -12.55 0.75 -12.65 0.1 -12.45 -0.5 -11.9 -0.55 -10.4 -0.4 -8.95 -0.55 -6.9 -1.2 -6.7 0.85 M2.8 4.6 Q2.65 5.25 2.75 6.1 L3.1 7.65 3.5 9.0 4.45 10.0 4.6 10.2 4.6 10.4 4.4 10.5 4.15 10.6 4.0 10.6 3.6 10.35 3.25 10.1 3.0 10.3 2.9 10.65 2.9 10.75 2.75 10.8 2.4 10.8 2.1 10.55 2.15 10.1 2.25 9.6 2.2 9.2 2.1 8.8 1.6 7.05 0.8 4.95 2.8 4.6" fill="#000000" fill-opacity="0.2" fill-rule="evenodd" stroke="none"/>
    <path d="M-0.85 -5.7 L-1.0 -7.85 Q-1.2 -9.3 -1.8 -9.7 L-2.05 -9.85 Q-2.35 -10.1 -2.25 -10.8 L-1.95 -11.45 -1.85 -11.5 -1.8 -11.4 -1.8 -10.95 -1.55 -10.55 -1.25 -10.55 -1.0 -10.75 -0.8 -11.3 -0.6 -12.45 -0.55 -12.55 -0.4 -12.6 -0.25 -12.5 0.25 -11.65 0.3 -10.65 0.1 -9.55 Q-0.05 -8.95 0.1 -8.5 L0.5 -7.35 Q0.75 -6.7 1.1 -6.3 M6.6 -2.45 L7.75 -3.4 Q9.0 -4.35 9.55 -4.5 L9.35 -4.85 8.9 -5.3 7.55 -4.55 Q6.15 -3.85 5.65 -3.9 M7.5 -1.2 L9.7 -0.5 11.85 -0.7 12.25 -0.85 12.45 -0.85 12.65 -0.75 12.65 -0.5 12.65 0.45 12.5 1.3 12.15 1.6 11.75 1.6 11.5 1.4 Q10.85 0.8 9.5 0.7 L7.3 0.85 M-6.9 -1.2 L-8.95 -0.55 -10.4 -0.4 -11.9 -0.55 -12.45 -0.5 -12.65 0.1 -12.55 0.75 -12.25 1.45 -11.65 1.85 -11.25 1.75 -10.85 1.55 Q-9.9 1.0 -8.85 0.8 L-6.7 0.85 M0.8 4.95 L1.6 7.05 2.1 8.8 2.2 9.2 2.25 9.6 2.15 10.1 2.1 10.55 2.4 10.8 2.75 10.8 2.9 10.75 2.9 10.65 3.0 10.3 3.25 10.1 3.6 10.35 4.0 10.6 4.15 10.6 4.4 10.5 4.6 10.4 4.6 10.2 4.45 10.0 3.5 9.0 3.1 7.65 2.75 6.1 Q2.65 5.25 2.8 4.6" fill="none" stroke="#000000" stroke-linecap="butt" stroke-linejoin="miter-clip" stroke-miterlimit="4.0" stroke-opacity="0.4" stroke-width="1.0"/>
  </g>
</svg>
