<?xml version="1.0" encoding="UTF-8" standalone="no"?>
<svg xmlns:xlink="http://www.w3.org/1999/xlink" height="294.7px" width="97.0px" xmlns="http://www.w3.org/2000/svg">
  <g transform="matrix(1.0, 0.0, 0.0, 1.0, 48.55, 156.15)">
    <path d="M3.25 -155.15 L-1.9 -152.5 -1.9 -151.5 -1.9 -155.65 3.25 -155.65 3.25 -155.15 M-5.9 -148.05 L-6.2 -146.2 -6.2 -144.15 -28.2 -144.15 Q-29.95 -138.55 -33.25 -135.45 L-34.75 -134.2 -35.25 -133.9 -37.65 -132.95 -39.4 -132.7 -39.6 -132.7 Q-41.15 -132.75 -42.25 -133.3 L-42.0 -133.95 Q-40.9 -136.05 -38.8 -136.35 -37.9 -136.45 -37.65 -137.05 -36.6 -137.6 -35.45 -138.85 -32.85 -141.6 -31.55 -146.6 L-31.15 -148.05 -5.9 -148.05 M-2.0 -138.45 L-0.8 -138.35 0.8 -138.35 1.15 -38.25 -2.7 -38.25 -2.0 -138.45 M7.8 -144.15 L7.8 -146.2 7.5 -148.05 31.6 -148.05 32.0 -146.6 Q33.3 -141.6 35.9 -138.8 L37.45 -137.45 Q37.55 -136.5 38.7 -136.35 40.75 -136.0 41.85 -133.95 L42.2 -133.05 40.05 -132.7 39.85 -132.7 37.7 -133.0 37.55 -133.1 Q36.1 -133.85 34.75 -134.8 33.7 -135.55 32.7 -136.45 30.4 -138.55 28.65 -144.15 L7.8 -144.15 M41.8 -138.3 L41.85 -138.65 Q42.3 -140.7 41.45 -141.9 40.8 -142.75 39.55 -143.2 L38.35 -143.5 Q36.45 -143.75 36.65 -145.65 36.85 -147.6 38.8 -147.4 L41.05 -146.8 Q43.3 -145.95 44.6 -144.25 46.45 -141.7 45.7 -137.9 45.4 -136.15 44.65 -135.0 L44.45 -135.35 Q43.35 -137.3 41.8 -138.3 M1.15 -32.4 L1.15 102.1 4.55 102.1 5.35 102.1 7.3 104.05 7.3 110.7 7.3 113.15 7.3 114.3 7.4 114.3 17.85 115.85 20.8 116.5 25.85 117.75 Q35.25 120.35 42.75 124.2 L43.0 124.5 42.95 124.9 42.65 125.15 42.3 125.1 Q34.95 121.35 25.85 118.8 L20.8 117.55 17.65 116.85 7.3 115.3 7.3 117.1 4.9 117.2 3.85 104.35 -6.4 104.35 -6.4 103.8 -4.45 102.1 -3.65 102.1 -2.75 -32.4 1.15 -32.4 M-44.45 -135.5 Q-45.0 -136.55 -45.25 -137.9 -46.05 -141.65 -44.15 -144.25 -42.15 -146.95 -38.35 -147.4 -36.4 -147.6 -36.2 -145.65 -36.0 -143.65 -37.95 -143.5 -40.0 -143.25 -41.0 -141.9 -41.8 -140.7 -41.45 -138.65 L-41.4 -138.55 Q-43.3 -137.65 -44.45 -135.5 M-6.4 115.2 L-8.75 115.5 Q-16.7 116.55 -26.5 120.3 L-26.5 120.25 -37.75 125.25 -38.1 125.3 -38.4 125.0 -38.4 124.65 -38.15 124.35 -26.9 119.35 -26.85 119.35 Q-16.85 115.55 -8.75 114.45 L-6.45 114.2 -6.4 114.2 -6.4 115.2 M7.3 115.3 L7.3 114.3 7.3 115.3 M1.15 102.1 L-3.65 102.1 1.15 102.1" fill="#ffffff" fill-opacity="0.0" fill-rule="evenodd" stroke="none"/>
    <path d="M3.3 -151.5 L2.4 -151.6 -0.8 -151.6 -1.9 -151.5 -1.9 -152.5 3.25 -155.15 3.3 -151.5 M0.8 -138.35 L2.4 -138.35 3.35 -138.4 3.85 -38.25 1.15 -38.25 0.8 -138.35 M1.15 -32.4 L3.85 -32.4 4.35 62.0 4.4 70.2 4.55 102.1 1.15 102.1 1.15 -32.4 M-6.4 110.45 L-6.4 104.35 3.85 104.35 4.9 117.2 -6.4 117.65 -6.4 115.2 -6.4 114.2 -6.4 113.4 -6.4 110.45" fill="#000000" fill-opacity="0.101960786" fill-rule="evenodd" stroke="none"/>
    <path d="M41.45 -71.35 L44.25 -71.35 44.25 -71.3 Q44.2 -67.5 43.1 -62.85 L40.3 -52.05 40.3 -52.0 40.3 -51.9 Q37.0 -39.2 33.75 -33.55 30.25 -27.5 26.05 -26.25 L25.9 -26.15 Q21.65 -24.85 16.8 -28.3 L16.65 -28.45 Q15.2 -29.5 13.4 -32.1 L11.2 -34.65 11.2 -34.7 11.05 -34.85 11.05 -34.8 Q9.6 -35.8 8.6 -35.8 L8.55 -35.8 8.45 -35.8 8.45 -38.25 7.6 -38.25 8.4 -38.6 Q10.15 -38.8 12.55 -37.15 L12.75 -37.05 12.7 -37.1 Q13.95 -36.25 15.75 -33.65 17.2 -31.55 18.35 -30.65 L18.5 -30.55 Q22.1 -28.05 25.2 -28.9 L25.35 -29.0 Q28.55 -30.15 31.35 -34.95 34.45 -40.45 37.6 -52.65 L37.6 -52.7 37.65 -52.75 40.4 -63.45 40.4 -63.5 Q41.4 -67.8 41.45 -71.35 M4.4 70.2 L4.35 62.0 Q11.05 41.95 10.6 25.75 10.05 7.85 6.8 -9.85 3.5 -27.65 4.0 -32.4 L6.8 -32.4 6.8 -32.2 Q6.3 -27.8 9.55 -10.35 12.85 7.55 13.4 25.65 13.85 42.15 4.4 70.2 M-2.85 -38.25 L-5.8 -38.25 Q-6.5 -39.45 -6.95 -39.55 L-6.9 -39.55 -7.1 -39.6 -7.35 -39.55 Q-8.6 -38.95 -10.3 -35.45 L-10.3 -35.5 -10.35 -35.3 Q-13.15 -29.4 -15.65 -18.75 -19.8 -1.05 -25.65 4.1 L-25.7 4.2 Q-32.15 10.05 -40.35 1.9 -47.1 -4.7 -47.9 -21.0 L-47.9 -21.05 Q-48.15 -26.0 -47.1 -45.1 L-47.1 -45.15 -44.5 -71.35 -41.7 -71.35 -41.7 -71.2 -44.3 -45.0 Q-45.35 -26.1 -45.1 -21.2 -44.35 -6.2 -38.35 -0.1 -32.25 6.0 -27.55 2.05 L-27.5 2.0 Q-22.2 -2.9 -18.35 -19.4 -15.8 -30.45 -12.85 -36.6 L-12.8 -36.7 Q-10.35 -41.75 -8.05 -42.25 L-8.0 -42.25 -7.95 -42.3 Q-5.2 -43.4 -3.0 -38.85 L-2.85 -38.25 M-21.65 116.7 Q-14.8 114.5 -8.75 113.65 L-6.4 113.4 -6.4 114.2 -6.45 114.2 -8.75 114.45 Q-16.85 115.55 -26.85 119.35 L-26.9 119.35 -38.15 124.35 -38.4 124.65 -38.4 125.0 -38.1 125.3 -37.75 125.25 -26.5 120.25 -26.5 120.3 Q-16.7 116.55 -8.75 115.5 L-6.4 115.2 -6.4 117.65 4.9 117.2 7.3 117.1 7.3 115.3 17.65 116.85 20.8 117.55 25.85 118.8 Q34.95 121.35 42.3 125.1 L42.65 125.15 42.95 124.9 43.0 124.5 42.75 124.2 Q35.25 120.35 25.85 117.75 L20.8 116.5 17.85 115.85 7.4 114.3 7.3 114.3 7.3 113.15 12.35 113.7 Q16.4 114.3 20.8 115.45 L21.4 115.6 23.25 116.1 24.05 116.3 25.3 116.7 25.85 116.85 30.75 118.5 31.15 118.65 Q39.25 121.6 44.95 124.65 48.45 127.75 45.2 130.5 L44.4 130.15 36.15 127.2 Q28.2 124.8 17.4 123.2 L3.55 121.7 Q1.9 121.6 -1.45 121.65 -5.35 121.85 -15.85 123.7 -26.6 125.6 -34.45 128.2 L-42.65 131.4 -43.5 131.7 Q-44.3 131.05 -44.65 130.1 -45.5 127.95 -43.4 125.95 L-39.5 123.9 Q-34.55 121.45 -29.35 119.4 L-28.55 119.1 Q-25.0 117.7 -21.65 116.7" fill="#000000" fill-opacity="0.2" fill-rule="evenodd" stroke="none"/>
    <path d="M-26.65 115.3 Q-27.05 114.15 -26.55 113.15 L-25.65 112.1 Q-18.6 108.9 -9.5 109.95 L-6.4 110.45 -6.4 113.4 -8.75 113.65 Q-14.8 114.5 -21.65 116.7 L-26.3 116.05 -26.65 115.3 M23.25 116.1 L21.4 115.6 20.8 115.45 Q16.4 114.3 12.35 113.7 L7.3 113.15 7.3 110.7 11.4 109.65 Q20.45 108.3 27.6 111.35 29.65 112.65 28.55 114.95 L28.35 115.25 24.35 115.9 23.25 116.1" fill="#000000" fill-opacity="0.3019608" fill-rule="evenodd" stroke="none"/>
    <path d="M-21.65 116.7 Q-25.0 117.7 -28.55 119.1 L-28.6 118.75 Q-28.6 117.1 -27.45 115.9 L-26.65 115.3 -26.3 116.05 -21.65 116.7 M-42.65 131.4 L-34.45 128.2 -33.95 128.6 -33.8 128.75 -33.7 128.85 Q-32.1 130.4 -32.05 132.6 -32.0 134.85 -33.55 136.45 -35.15 138.05 -37.35 138.05 -39.55 138.1 -41.15 136.55 -42.75 135.0 -42.8 132.8 L-42.65 131.4 M36.15 127.2 L44.4 130.15 44.6 131.5 Q44.65 133.7 43.1 135.3 41.5 136.9 39.3 136.95 37.1 137.0 35.5 135.45 33.9 133.85 33.85 131.65 33.8 129.45 35.35 127.85 L36.15 127.2 M31.15 118.65 L30.75 118.5 25.85 116.85 25.3 116.7 24.05 116.3 24.35 115.9 28.35 115.25 28.55 114.95 Q29.3 115.2 29.95 115.85 31.1 117.0 31.15 118.65 M41.5 135.4 Q42.65 134.25 42.65 132.65 42.65 131.0 41.5 129.85 40.35 128.7 38.75 128.7 37.15 128.7 36.0 129.85 34.85 131.0 34.85 132.65 34.85 134.25 36.0 135.4 37.15 136.55 38.75 136.55 40.35 136.55 41.5 135.4 M-37.3 130.05 Q-38.95 130.05 -40.1 131.2 -41.25 132.35 -41.25 133.95 -41.25 135.55 -40.1 136.7 -38.95 137.85 -37.3 137.85 -35.7 137.85 -34.55 136.7 -33.4 135.55 -33.4 133.95 -33.4 132.35 -34.55 131.2 -35.7 130.05 -37.3 130.05" fill="#000000" fill-opacity="0.8" fill-rule="evenodd" stroke="none"/>
    <path d="M-37.3 130.05 Q-35.7 130.05 -34.55 131.2 -33.4 132.35 -33.4 133.95 -33.4 135.55 -34.55 136.7 -35.7 137.85 -37.3 137.85 -38.95 137.85 -40.1 136.7 -41.25 135.55 -41.25 133.95 -41.25 132.35 -40.1 131.2 -38.95 130.05 -37.3 130.05 M41.5 135.4 Q40.35 136.55 38.75 136.55 37.15 136.55 36.0 135.4 34.85 134.25 34.85 132.65 34.85 131.0 36.0 129.85 37.15 128.7 38.75 128.7 40.35 128.7 41.5 129.85 42.65 131.0 42.65 132.65 42.65 134.25 41.5 135.4" fill="#000000" fill-opacity="0.6" fill-rule="evenodd" stroke="none"/>
    <path d="M44.25 -71.35 L41.45 -71.35 39.15 -71.35 39.15 -75.5 46.2 -75.5 39.15 -75.5 37.2 -75.5 37.2 -77.7 47.95 -77.7 47.95 -75.5 46.2 -75.5 46.2 -71.35 44.25 -71.35 M-37.3 -77.7 L-37.3 -75.5 -39.3 -75.5 -39.3 -71.35 -41.7 -71.35 -44.5 -71.35 -46.35 -71.35 -46.35 -75.5 -48.05 -75.5 -48.05 -77.7 -37.3 -77.7 M-46.35 -75.5 L-39.3 -75.5 -46.35 -75.5" fill="#ffffff" fill-opacity="0.101960786" fill-rule="evenodd" stroke="none"/>
    <path d="M-1.9 -151.5 L-0.8 -151.6 2.4 -151.6 3.3 -151.5 Q4.95 -151.3 6.25 -150.0 L7.5 -148.05 7.8 -146.2 7.8 -144.15 7.8 -143.75 Q7.8 -141.5 6.25 -139.9 5.0 -138.7 3.35 -138.4 L2.4 -138.35 0.8 -138.35 -0.8 -138.35 -2.0 -138.45 Q-3.5 -138.8 -4.6 -139.9 -6.2 -141.5 -6.2 -143.75 L-6.2 -144.15 -6.2 -146.2 -5.9 -148.05 Q-5.5 -149.15 -4.6 -150.0 -3.45 -151.2 -1.9 -151.5 M44.65 -135.0 Q46.0 -132.05 44.7 -129.25 44.1 -127.95 43.15 -127.25 L37.4 -127.3 Q35.7 -128.55 34.75 -131.6 34.05 -133.5 34.75 -134.8 36.1 -133.85 37.55 -133.1 38.65 -129.4 39.95 -129.3 41.4 -129.15 42.05 -130.5 42.6 -131.7 42.2 -133.05 L41.85 -133.95 Q40.75 -136.0 38.7 -136.35 37.55 -136.5 37.45 -137.45 L37.45 -138.0 Q37.65 -139.45 39.1 -139.25 40.6 -139.05 41.8 -138.3 43.35 -137.3 44.45 -135.35 L44.65 -135.0 M7.6 -38.25 L8.45 -38.25 8.45 -35.8 8.45 -32.4 6.8 -32.4 4.0 -32.4 3.85 -32.4 1.15 -32.4 -2.75 -32.4 -6.2 -32.4 -6.2 -38.25 -5.8 -38.25 -2.85 -38.25 -2.7 -38.25 1.15 -38.25 3.85 -38.25 7.6 -38.25 M-41.4 -138.55 L-39.25 -139.25 Q-37.8 -139.45 -37.6 -138.0 -37.5 -137.45 -37.65 -137.05 -37.9 -136.45 -38.8 -136.35 -40.9 -136.05 -42.0 -133.95 L-42.25 -133.3 Q-42.8 -131.8 -42.2 -130.5 -41.55 -129.15 -40.15 -129.3 -38.65 -129.4 -37.7 -132.5 L-37.65 -132.95 -35.25 -133.9 -34.75 -134.2 Q-34.8 -128.8 -37.5 -127.3 L-43.25 -127.25 Q-44.25 -127.95 -44.85 -129.25 -46.25 -132.25 -44.55 -135.35 L-44.45 -135.5 Q-43.3 -137.65 -41.4 -138.55" fill="#ffffff" fill-opacity="0.2" fill-rule="evenodd" stroke="none"/>
    <path d="M-6.2 -144.15 L-6.2 -143.75 Q-6.2 -141.5 -4.6 -139.9 -3.5 -138.8 -2.0 -138.45 L-2.7 -38.25 -2.85 -38.25 M3.35 -138.4 Q5.0 -138.7 6.25 -139.9 7.8 -141.5 7.8 -143.75 L7.8 -144.15 28.65 -144.15 M44.25 -71.35 L46.2 -71.35 46.2 -75.5 47.95 -75.5 47.95 -77.7 M39.15 -75.5 L39.15 -71.35 41.45 -71.35 M39.15 -75.5 L37.2 -75.5 37.2 -77.7 M3.85 -38.25 L7.6 -38.25 M3.85 -32.4 L4.0 -32.4 M6.8 -32.4 L8.45 -32.4 8.45 -35.8 M-5.8 -38.25 L-6.2 -38.25 -6.2 -32.4 -2.75 -32.4 -3.65 102.1 -4.45 102.1 -6.4 103.8 -6.4 104.35 -6.4 110.45 -9.5 109.95 Q-18.6 108.9 -25.65 112.1 L-26.55 113.15 Q-27.05 114.15 -26.65 115.3 L-27.45 115.9 Q-28.6 117.1 -28.6 118.75 L-28.55 119.1 -29.35 119.4 Q-34.55 121.45 -39.5 123.9 L-43.4 125.95 Q-45.5 127.95 -44.65 130.1 -44.3 131.05 -43.5 131.7 M-28.2 -144.15 L-6.2 -144.15 M-37.3 -77.7 L-37.3 -75.5 -39.3 -75.5 -39.3 -71.35 -41.7 -71.35 M-44.5 -71.35 L-46.35 -71.35 -46.35 -75.5 -48.05 -75.5 -48.05 -77.7 M-34.45 128.2 Q-26.6 125.6 -15.85 123.7 -5.35 121.85 -1.45 121.65 1.9 121.6 3.55 121.7 L17.4 123.2 Q28.2 124.8 36.15 127.2 L35.35 127.85 Q33.8 129.45 33.85 131.65 33.9 133.85 35.5 135.45 37.1 137.0 39.3 136.95 41.5 136.9 43.1 135.3 44.65 133.7 44.6 131.5 L44.4 130.15 45.2 130.5 Q48.45 127.75 44.95 124.65 39.25 121.6 31.15 118.65 31.1 117.0 29.95 115.85 29.3 115.2 28.55 114.95 L28.35 115.25 M-34.45 128.2 L-33.95 128.6 -33.8 128.75 -33.7 128.85 Q-32.1 130.4 -32.05 132.6 -32.0 134.85 -33.55 136.45 -35.15 138.05 -37.35 138.05 -39.55 138.1 -41.15 136.55 -42.75 135.0 -42.8 132.8 L-42.65 131.4 M-37.3 130.05 Q-35.7 130.05 -34.55 131.2 -33.4 132.35 -33.4 133.95 -33.4 135.55 -34.55 136.7 -35.7 137.85 -37.3 137.85 -38.95 137.85 -40.1 136.7 -41.25 135.55 -41.25 133.95 -41.25 132.35 -40.1 131.2 -38.95 130.05 -37.3 130.05 M41.5 135.4 Q40.35 136.55 38.75 136.55 37.15 136.55 36.0 135.4 34.85 134.25 34.85 132.65 34.85 131.0 36.0 129.85 37.15 128.7 38.75 128.7 40.35 128.7 41.5 129.85 42.65 131.0 42.65 132.65 42.65 134.25 41.5 135.4 M7.3 110.7 L11.4 109.65 Q20.45 108.3 27.6 111.35 29.65 112.65 28.55 114.95 M4.55 102.1 L5.35 102.1 7.3 104.05 7.3 110.7" fill="none" stroke="#000000" stroke-linecap="round" stroke-linejoin="miter-clip" stroke-miterlimit="3.0" stroke-width="1.0"/>
    <path d="M40.4 -63.5 L40.4 -63.45 M37.65 -52.75 L37.6 -52.7 M12.7 -37.1 L12.75 -37.05 M8.45 -35.8 L8.55 -35.8 8.6 -35.8 M11.05 -34.8 L11.05 -34.85 11.2 -34.7 11.2 -34.65 M40.3 -52.0 L40.3 -52.05 M44.25 -71.3 L44.25 -71.35 M-27.55 2.05 L-27.5 2.0 M-47.1 -45.15 L-47.1 -45.1 M-47.9 -21.05 L-47.9 -21.0 M-10.3 -35.5 L-10.3 -35.45 M-6.9 -39.55 L-6.95 -39.55 Q-6.5 -39.45 -5.8 -38.25 M-43.5 131.7 L-42.65 131.4" fill="none" stroke="#000000" stroke-linecap="round" stroke-linejoin="miter-clip" stroke-miterlimit="3.0" stroke-width="1.0"/>
    <path d="M-1.9 -151.5 L-0.8 -151.6 2.4 -151.6 3.3 -151.5 3.25 -155.15 3.25 -155.65 -1.9 -155.65 -1.9 -151.5 Q-3.45 -151.2 -4.6 -150.0 -5.5 -149.15 -5.9 -148.05 L-31.15 -148.05 -31.55 -146.6 Q-32.85 -141.6 -35.45 -138.85 -36.6 -137.6 -37.65 -137.05 -37.5 -137.45 -37.6 -138.0 -37.8 -139.45 -39.25 -139.25 L-41.4 -138.55 -41.45 -138.65 Q-41.8 -140.7 -41.0 -141.9 -40.0 -143.25 -37.95 -143.5 -36.0 -143.65 -36.2 -145.65 -36.4 -147.6 -38.35 -147.4 -42.15 -146.95 -44.15 -144.25 -46.05 -141.65 -45.25 -137.9 -45.0 -136.55 -44.45 -135.5 L-44.55 -135.35 Q-46.25 -132.25 -44.85 -129.25 -44.25 -127.95 -43.25 -127.25 M-1.9 -152.5 L-1.9 -151.5 M7.5 -148.05 L6.25 -150.0 Q4.95 -151.3 3.3 -151.5 M41.8 -138.3 L41.85 -138.65 Q42.3 -140.7 41.45 -141.9 40.8 -142.75 39.55 -143.2 L38.35 -143.5 Q36.45 -143.75 36.65 -145.65 36.85 -147.6 38.8 -147.4 L41.05 -146.8 Q43.3 -145.95 44.6 -144.25 46.45 -141.7 45.7 -137.9 45.4 -136.15 44.65 -135.0 46.0 -132.05 44.7 -129.25 44.1 -127.95 43.15 -127.25 M37.4 -127.3 Q35.7 -128.55 34.75 -131.6 34.05 -133.5 34.75 -134.8 33.7 -135.55 32.7 -136.45 30.4 -138.55 28.65 -144.15 M7.5 -148.05 L31.6 -148.05 32.0 -146.6 Q33.3 -141.6 35.9 -138.8 L37.45 -137.45 37.45 -138.0 Q37.65 -139.45 39.1 -139.25 40.6 -139.05 41.8 -138.3 M8.6 -35.8 Q9.6 -35.8 11.05 -34.8 M11.2 -34.65 L13.4 -32.1 Q15.2 -29.5 16.65 -28.45 L16.8 -28.3 Q21.65 -24.85 25.9 -26.15 L26.05 -26.25 Q30.25 -27.5 33.75 -33.55 37.0 -39.2 40.3 -51.9 L40.3 -52.0 M40.3 -52.05 L43.1 -62.85 Q44.2 -67.5 44.25 -71.3 M3.85 -38.25 L3.35 -138.4 M4.55 102.1 L4.4 70.2 4.35 62.0 3.85 -32.4 M6.8 -32.4 L6.8 -32.2 Q6.3 -27.8 9.55 -10.35 12.85 7.55 13.4 25.65 13.85 42.15 4.4 70.2 M-34.75 -134.2 L-33.25 -135.45 Q-29.95 -138.55 -28.2 -144.15 M-34.75 -134.2 Q-34.8 -128.8 -37.5 -127.3 M-44.5 -71.35 L-47.1 -45.15 M-47.1 -45.1 Q-48.15 -26.0 -47.9 -21.05 M-47.9 -21.0 Q-47.1 -4.7 -40.35 1.9 -32.15 10.05 -25.7 4.2 L-25.65 4.1 Q-19.8 -1.05 -15.65 -18.75 -13.15 -29.4 -10.35 -35.3 L-10.3 -35.5 M-10.3 -35.45 Q-8.6 -38.95 -7.35 -39.55 L-7.1 -39.6 -6.9 -39.55 M-42.65 131.4 L-34.45 128.2" fill="none" stroke="#000000" stroke-linecap="round" stroke-linejoin="miter-clip" stroke-miterlimit="3.0" stroke-opacity="0.6" stroke-width="1.0"/>
    <path d="M-5.9 -148.05 L-6.2 -146.2 -6.2 -144.15 M-2.0 -138.45 L-0.8 -138.35 0.8 -138.35 2.4 -138.35 3.35 -138.4 M7.8 -144.15 L7.8 -146.2 7.5 -148.05 M43.15 -127.25 L37.4 -127.3 M41.8 -138.3 Q43.35 -137.3 44.45 -135.35 L44.65 -135.0 M37.45 -137.45 Q37.55 -136.5 38.7 -136.35 40.75 -136.0 41.85 -133.95 L42.2 -133.05 M37.55 -133.1 Q36.1 -133.85 34.75 -134.8 M44.25 -71.35 L41.45 -71.35 M7.6 -38.25 L8.45 -38.25 8.45 -35.8 M4.0 -32.4 L6.8 -32.4 M-2.85 -38.25 L-5.8 -38.25 M-37.65 -137.05 Q-37.9 -136.45 -38.8 -136.35 -40.9 -136.05 -42.0 -133.95 L-42.25 -133.3 M-37.65 -132.95 L-35.25 -133.9 -34.75 -134.2 M-44.45 -135.5 Q-43.3 -137.65 -41.4 -138.55 M-37.5 -127.3 L-43.25 -127.25 M-41.7 -71.35 L-44.5 -71.35 M-6.4 113.4 L-8.75 113.65 Q-14.8 114.5 -21.65 116.7 -25.0 117.7 -28.55 119.1 M36.15 127.2 L44.4 130.15 M31.15 118.65 L30.75 118.5 25.85 116.85 25.3 116.7 24.05 116.3 23.25 116.1 21.4 115.6 20.8 115.45 Q16.4 114.3 12.35 113.7 L7.3 113.15 7.3 114.3 7.3 115.3 7.3 117.1 4.9 117.2 -6.4 117.65 -6.4 115.2 -6.4 114.2 -6.4 113.4 -6.4 110.45 M-26.65 115.3 L-26.3 116.05 -21.65 116.7 M28.35 115.25 L24.35 115.9 24.05 116.3 M24.35 115.9 L23.25 116.1 M7.3 110.7 L7.3 113.15" fill="none" stroke="#000000" stroke-linecap="round" stroke-linejoin="miter-clip" stroke-miterlimit="3.0" stroke-opacity="0.6" stroke-width="1.0"/>
    <path d="M42.2 -133.05 Q42.6 -131.7 42.05 -130.5 41.4 -129.15 39.95 -129.3 38.65 -129.4 37.55 -133.1 L37.7 -133.0 39.85 -132.7 40.05 -132.7 42.2 -133.05 M41.45 -71.35 Q41.4 -67.8 40.4 -63.5 M40.4 -63.45 L37.65 -52.75 M37.6 -52.7 L37.6 -52.65 Q34.45 -40.45 31.35 -34.95 28.55 -30.15 25.35 -29.0 L25.2 -28.9 Q22.1 -28.05 18.5 -30.55 L18.35 -30.65 Q17.2 -31.55 15.75 -33.65 13.95 -36.25 12.7 -37.1 M12.75 -37.05 L12.55 -37.15 Q10.15 -38.8 8.4 -38.6 L7.6 -38.25 M46.2 -75.5 L39.15 -75.5 M37.2 -77.7 L47.95 -77.7 M1.15 -38.25 L3.85 -38.25 M3.85 -32.4 L1.15 -32.4 -2.75 -32.4 M1.15 102.1 L4.55 102.1 M4.35 62.0 Q11.05 41.95 10.6 25.75 10.05 7.85 6.8 -9.85 3.5 -27.65 4.0 -32.4 M1.15 -38.25 L-2.7 -38.25 M-42.25 -133.3 Q-41.15 -132.75 -39.6 -132.7 L-39.4 -132.7 -37.65 -132.95 -37.7 -132.5 Q-38.65 -129.4 -40.15 -129.3 -41.55 -129.15 -42.2 -130.5 -42.8 -131.8 -42.25 -133.3 M-41.7 -71.35 L-41.7 -71.2 -44.3 -45.0 Q-45.35 -26.1 -45.1 -21.2 -44.35 -6.2 -38.35 -0.1 -32.25 6.0 -27.55 2.05 M-27.5 2.0 Q-22.2 -2.9 -18.35 -19.4 -15.8 -30.45 -12.85 -36.6 L-12.8 -36.7 Q-10.35 -41.75 -8.05 -42.25 L-8.0 -42.25 -7.95 -42.3 Q-5.2 -43.4 -3.0 -38.85 L-2.85 -38.25 M-48.05 -77.7 L-37.3 -77.7 M-39.3 -75.5 L-46.35 -75.5 M-3.65 102.1 L1.15 102.1" fill="none" stroke="#000000" stroke-linecap="round" stroke-linejoin="miter-clip" stroke-miterlimit="3.0" stroke-opacity="0.4" stroke-width="1.0"/>
  </g>
</svg>
