<?xml version="1.0" encoding="UTF-8" standalone="no"?>
<svg xmlns:xlink="http://www.w3.org/1999/xlink" height="64.9px" width="1133.55px" xmlns="http://www.w3.org/2000/svg">
  <g transform="matrix(1.0, 0.0, 0.0, 1.0, 63.45, 0.5)">
    <path d="M1018.85 28.9 L1069.6 28.9 1069.6 45.55 22.0 45.2 12.0 28.9 47.05 28.9 1018.85 28.9 M63.45 0.0 L1018.85 0.0 1018.85 14.45 73.05 15.65 63.45 0.0" fill="#ffffff" fill-opacity="0.0" fill-rule="evenodd" stroke="none"/>
    <path d="M1069.6 45.55 L1069.6 62.2 -3.85 62.4 -4.0 28.6 11.8 28.6 12.0 28.9 22.0 45.2 1069.6 45.55 M47.05 28.9 L47.05 0.0 63.45 0.0 73.05 15.65 1018.85 14.45 1018.85 28.9 47.05 28.9" fill="#000000" fill-opacity="0.4" fill-rule="evenodd" stroke="none"/>
    <path d="M1018.85 28.9 L1069.6 28.9 1069.6 45.55 1069.6 62.2 -3.85 62.4 -4.0 28.6 11.8 28.6 M12.0 28.9 L47.05 28.9 47.05 0.0 63.45 0.0 1018.85 0.0 1018.85 14.45 1018.85 28.9" fill="none" stroke="#000000" stroke-linecap="round" stroke-linejoin="miter-clip" stroke-miterlimit="4.0" stroke-width="1.0"/>
    <path d="M1018.85 28.9 L47.05 28.9" fill="none" stroke="#000000" stroke-linecap="round" stroke-linejoin="miter-clip" stroke-miterlimit="4.0" stroke-opacity="0.6" stroke-width="1.0"/>
  </g>
</svg>
