<?xml version="1.0" encoding="UTF-8" standalone="no"?>
<svg xmlns:xlink="http://www.w3.org/1999/xlink" height="426.9px" width="742.35px" xmlns="http://www.w3.org/2000/svg">
  <g transform="matrix(1.0, 0.0, 0.0, 1.0, 1.5, -0.7)">
    <path d="M144.0 97.4 L144.8 97.95 144.0 97.4 M145.9 98.4 L151.7 102.0 162.35 109.2 149.65 100.8 145.9 98.4" fill="#b8b8b8" fill-rule="evenodd" stroke="none"/>
    <path d="M740.35 321.5 Q732.1 274.05 725.1 241.2 714.9 193.8 705.05 186.05 691.9 175.75 651.7 196.35 639.15 202.8 625.4 211.65 L614.15 219.1 613.65 218.55 613.65 216.1 614.0 180.35 740.35 39.65 740.35 321.5 M144.85 97.95 L151.5 102.45 Q299.35 201.85 326.85 215.25 L329.3 216.35 329.5 228.95 Q294.3 207.25 254.6 188.75 175.3 151.85 142.2 157.3 110.05 162.65 45.7 278.65 26.55 313.15 7.85 351.6 -0.9 369.45 -1.0 374.3 L-1.0 1.55 122.55 82.75 141.55 95.75 144.0 97.4 144.8 97.95 144.85 97.95" fill="#000000" fill-opacity="0.4" fill-rule="evenodd" stroke="none"/>
    <path d="M613.65 218.55 L614.15 219.1 625.4 211.65 Q639.15 202.8 651.7 196.35 691.9 175.75 705.05 186.05 714.9 193.8 725.1 241.2 732.1 274.05 740.35 321.5 L740.35 426.75 612.4 357.35 613.65 218.55 M329.5 228.95 L331.35 360.25 -1.0 374.35 -1.0 374.3 Q-0.9 369.45 7.85 351.6 26.55 313.15 45.7 278.65 110.05 162.65 142.2 157.3 175.3 151.85 254.6 188.75 294.3 207.25 329.5 228.95" fill="#ffffff" fill-opacity="0.0" fill-rule="evenodd" stroke="none"/>
    <path d="M613.65 216.1 L613.65 218.55 613.6 218.45 613.65 216.1" fill="#737373" fill-rule="evenodd" stroke="none"/>
    <path d="M740.35 321.5 L740.35 39.65 614.0 180.35 613.65 216.1 613.65 218.55 612.4 357.35 740.35 426.75 740.35 321.5 M144.85 97.95 L151.5 102.45 Q299.35 201.85 326.85 215.25 L329.3 216.35 329.5 228.95 331.35 360.25 -1.0 374.35 -1.0 374.3 -1.0 1.55 122.55 82.75 141.55 95.75 144.0 97.4 144.8 97.95 144.85 97.95 M144.8 97.95 L144.0 97.4" fill="none" stroke="#000000" stroke-linecap="round" stroke-linejoin="miter-clip" stroke-miterlimit="4.0" stroke-width="1.0"/>
  </g>
</svg>
