<?xml version="1.0" encoding="UTF-8" standalone="no"?>
<svg xmlns:xlink="http://www.w3.org/1999/xlink" height="129.4px" width="218.5px" xmlns="http://www.w3.org/2000/svg">
  <g transform="matrix(1.0, 0.0, 0.0, 1.0, 108.35, 64.7)">
    <path d="M-15.45 -31.5 L9.9 -33.85 28.5 -35.6 55.1 -38.05 82.25 -40.6 109.05 -43.1 109.65 -34.45 93.55 -32.7 78.9 -31.1 93.55 -32.7 93.55 46.05 78.25 49.8 78.9 -31.1 74.05 -30.6 -16.1 -21.0 74.05 -30.6 74.05 -24.2 65.7 -23.3 59.25 -22.6 6.3 -16.9 -2.15 -16.0 -2.15 -11.8 -2.15 -8.0 -2.15 24.8 -2.15 29.15 -2.15 40.05 -2.15 60.45 -17.45 64.2 -17.6 -14.35 -17.55 -14.35 -16.85 -14.45 -17.05 -21.3 -16.1 -21.0 -15.45 -31.5 M-16.85 -14.45 L-2.15 -16.0 -16.85 -14.45" fill="#ffffff" fill-opacity="0.0" fill-rule="evenodd" stroke="none"/>
    <path d="M109.05 -43.1 L82.25 -40.6 55.1 -38.05 28.5 -35.6 9.9 -33.85 -15.45 -31.5 -17.3 -31.35 -107.85 -57.95 -107.85 -58.4 -89.8 -59.65 -70.05 -61.05 -54.0 -62.05 -34.9 -63.2 -19.15 -64.2 109.05 -43.1 M82.25 -40.6 L-34.9 -63.2 82.25 -40.6 M28.5 -35.6 L-70.05 -61.05 28.5 -35.6 M55.1 -38.05 L-54.0 -62.05 55.1 -38.05 M9.9 -33.85 L-89.8 -59.65 9.9 -33.85" fill="#ffffff" fill-opacity="0.101960786" fill-rule="evenodd" stroke="none"/>
    <path d="M74.05 -30.6 L78.9 -31.1 78.25 49.8 74.05 46.05 74.05 29.2 74.05 25.35 74.05 29.2 36.3 10.8 27.3 6.4 23.9 4.7 27.3 6.4 -2.15 29.15 -2.15 24.8 23.9 4.7 -2.15 -8.0 -2.15 -11.8 74.05 25.35 74.05 15.4 74.05 -17.95 74.05 -24.2 74.05 -30.6 M34.45 -3.45 L59.25 -22.6 65.7 -23.3 37.95 -1.8 34.45 -3.45 M-82.55 -3.5 L-82.55 0.0 -82.45 8.85 -82.55 0.0 -60.45 -17.65 -53.3 -14.2 -82.45 8.85 -82.35 24.7 -94.65 26.55 -94.4 -38.8 -82.85 -35.1 -82.8 -31.65 -82.85 -35.1 -57.3 -26.95 -52.1 -24.45 -51.3 -25.0 -42.9 -22.35 -44.85 -21.0 -52.1 -24.45 -44.85 -21.0 -30.45 -14.15 -30.45 -6.15 -82.8 -31.65 -82.8 -28.55 -82.55 -3.5 M-27.3 -17.35 L-21.65 -15.55 -17.6 -14.35 -17.45 64.2 -21.65 60.45 -21.65 14.7 -27.3 15.4 -27.3 -17.35 M-21.65 -15.55 L-21.65 14.7 -21.65 -15.55" fill="#000000" fill-opacity="0.101960786" fill-rule="evenodd" stroke="none"/>
    <path d="M-98.45 -46.95 L-17.05 -21.3 -16.85 -14.45 -17.55 -14.35 -17.6 -14.35 -21.65 -15.55 -27.3 -17.35 -30.45 -18.35 -27.3 -17.35 -27.3 15.4 -30.45 12.0 -30.45 -3.0 -53.3 -14.2 -60.45 -17.65 -82.55 0.0 -82.55 -3.5 -62.85 -18.8 -60.45 -17.65 -62.85 -18.8 -82.8 -28.55 -82.8 -31.65 -30.45 -6.15 -30.45 -3.0 -30.45 -6.15 -30.45 -14.15 -30.45 -18.35 -42.9 -22.35 -51.3 -25.0 -57.3 -26.95 -82.85 -35.1 -94.4 -38.8 -94.65 26.55 -97.8 23.15 -97.8 -39.9 -98.45 -40.1 -98.45 -46.95 M-97.8 -39.9 L-94.4 -38.8 -97.8 -39.9" fill="#000000" fill-opacity="0.2" fill-rule="evenodd" stroke="none"/>
    <path d="M-15.45 -31.5 L-16.1 -21.0 -17.05 -21.3 -98.45 -46.95 -107.75 -49.95 -107.85 -57.95 -17.3 -31.35 -15.45 -31.5" fill="#000000" fill-opacity="0.15294118" fill-rule="evenodd" stroke="none"/>
    <path d="M6.3 -16.9 L34.45 -3.45 37.95 -1.8 47.1 2.55 37.95 -1.8 65.7 -23.3 74.05 -24.2 74.05 -17.95 47.1 2.55 74.05 15.4 74.05 25.35 -2.15 -11.8 -2.15 -16.0 6.3 -16.9 M27.3 6.4 L36.3 10.8 -2.15 40.05 -2.15 29.15 27.3 6.4" fill="#000000" fill-opacity="0.050980393" fill-rule="evenodd" stroke="none"/>
    <path d="M6.3 -16.9 L34.45 -3.45 M74.05 15.4 L47.1 2.55 74.05 -17.95 74.05 15.4 M74.05 29.2 L74.05 46.05 78.25 49.8 93.55 46.05 93.55 -32.7 M-2.15 40.05 L36.3 10.8 M-82.55 -3.5 L-82.8 -28.55 M-94.65 26.55 L-82.35 24.7 -82.45 8.85 -53.3 -14.2 M-97.8 -39.9 L-97.8 23.15 -94.65 26.55 M-57.3 -26.95 L-52.1 -24.45 -51.3 -25.0 M-44.85 -21.0 L-42.9 -22.35 M-30.45 -18.35 L-30.45 -14.15 -44.85 -21.0 M-27.3 15.4 L-21.65 14.7 -21.65 60.45 -17.45 64.2 -2.15 60.45 -2.15 40.05 M-30.45 -3.0 L-30.45 12.0 -27.3 15.4 M-2.15 24.8 L-2.15 -8.0" fill="none" stroke="#000000" stroke-linecap="round" stroke-linejoin="round" stroke-width="1.0"/>
    <path d="M93.55 -32.7 L109.65 -34.45 109.05 -43.1 -19.15 -64.2 -34.9 -63.2 -54.0 -62.05 -70.05 -61.05 -89.8 -59.65 -107.85 -58.4 -107.85 -57.95 -107.75 -49.95 -98.45 -46.95 -98.45 -40.1 -97.8 -39.9 M34.45 -3.45 L59.25 -22.6 6.3 -16.9 M36.3 10.8 L74.05 29.2 M-62.85 -18.8 L-82.55 -3.5 M-51.3 -25.0 L-57.3 -26.95 M-53.3 -14.2 L-30.45 -3.0 M-17.6 -14.35 L-17.55 -14.35 -16.85 -14.45 M-30.45 -18.35 L-42.9 -22.35 M-62.85 -18.8 L-82.8 -28.55 M-2.15 -8.0 L23.9 4.7 -2.15 24.8" fill="none" stroke="#000000" stroke-linecap="round" stroke-linejoin="miter-clip" stroke-miterlimit="3.0" stroke-width="1.0"/>
    <path d="M-34.9 -63.2 L82.25 -40.6 M-70.05 -61.05 L28.5 -35.6 M-54.0 -62.05 L55.1 -38.05 M-89.8 -59.65 L9.9 -33.85" fill="none" stroke="#000000" stroke-linecap="round" stroke-linejoin="miter-clip" stroke-miterlimit="3.0" stroke-opacity="0.4" stroke-width="1.0"/>
    <path d="M109.05 -43.1 L82.25 -40.6 55.1 -38.05 28.5 -35.6 9.9 -33.85 -15.45 -31.5 -16.1 -21.0 74.05 -30.6 78.9 -31.1 93.55 -32.7 M6.3 -16.9 L-2.15 -16.0 -16.85 -14.45 M65.7 -23.3 L59.25 -22.6 M74.05 -24.2 L65.7 -23.3 M27.3 6.4 L36.3 10.8 M23.9 4.7 L27.3 6.4 M-98.45 -46.95 L-17.05 -21.3 -16.1 -21.0 M-107.85 -57.95 L-17.3 -31.35 -15.45 -31.5 M-82.85 -35.1 L-94.4 -38.8 -97.8 -39.9 M-60.45 -17.65 L-62.85 -18.8 M-57.3 -26.95 L-82.85 -35.1 M-42.9 -22.35 L-51.3 -25.0 M-60.45 -17.65 L-53.3 -14.2 M-30.45 -18.35 L-27.3 -17.35 -21.65 -15.55 -17.6 -14.35" fill="none" stroke="#000000" stroke-linecap="round" stroke-linejoin="miter-clip" stroke-miterlimit="3.0" stroke-opacity="0.6" stroke-width="1.0"/>
    <path d="M-2.15 -16.0 L-2.15 -11.8 74.05 25.35 74.05 15.4 M47.1 2.55 L37.95 -1.8 34.45 -3.45 M65.7 -23.3 L37.95 -1.8 M74.05 -24.2 L74.05 -17.95 M74.05 -30.6 L74.05 -24.2 M74.05 25.35 L74.05 29.2 M78.25 49.8 L78.9 -31.1 M27.3 6.4 L-2.15 29.15 -2.15 40.05 M-82.55 0.0 L-82.55 -3.5 M-82.8 -28.55 L-82.8 -31.65 -82.85 -35.1 M-94.4 -38.8 L-94.65 26.55 M-82.45 8.85 L-82.55 0.0 -60.45 -17.65 M-52.1 -24.45 L-44.85 -21.0 M-30.45 -3.0 L-30.45 -6.15 -82.8 -31.65 M-30.45 -14.15 L-30.45 -6.15 M-16.85 -14.45 L-17.05 -21.3 M-2.15 -8.0 L-2.15 -11.8 M-21.65 14.7 L-21.65 -15.55 M-27.3 15.4 L-27.3 -17.35 M-2.15 29.15 L-2.15 24.8 M-17.45 64.2 L-17.6 -14.35" fill="none" stroke="#000000" stroke-linecap="round" stroke-linejoin="round" stroke-opacity="0.6" stroke-width="1.0"/>
    <path d="M104.3 -43.3 L99.95 -42.9 -22.95 -63.4 -19.45 -63.75 104.3 -43.3 M51.05 -38.4 L46.95 -38.05 -56.05 -61.35 -52.55 -61.65 51.05 -38.4 M78.55 -40.8 L73.7 -40.4 -38.55 -62.15 -35.05 -62.5 78.55 -40.8 M6.3 -34.3 L3.55 -33.8 -92.7 -59.05 -89.8 -59.3 6.3 -34.3 M25.55 -35.9 L21.45 -35.55 -72.8 -60.4 -69.95 -60.65 25.55 -35.9" fill="#ffffff" fill-opacity="0.3019608" fill-rule="evenodd" stroke="none"/>
  </g>
</svg>
