<?xml version="1.0" encoding="UTF-8" standalone="no"?>
<svg xmlns:xlink="http://www.w3.org/1999/xlink" height="32.4px" width="29.25px" xmlns="http://www.w3.org/2000/svg">
  <g transform="matrix(1.0, 0.0, 0.0, 1.0, 14.6, 16.2)">
    <path d="M13.95 4.1 Q13.2 8.35 10.0 11.55 6.3 15.25 1.25 15.65 L1.0 15.7 Q0.15 15.3 -1.05 13.45 -2.3 11.6 -3.75 7.5 6.15 8.1 13.95 4.1 M-14.0 3.6 L-14.05 3.25 -14.1 2.25 -9.05 3.5 -4.75 4.15 Q6.15 5.45 14.15 1.85 L14.15 2.55 14.05 3.55 Q7.65 5.9 -0.1 5.9 -7.65 5.9 -14.0 3.6" fill="#ffffff" fill-opacity="0.0" fill-rule="evenodd" stroke="none"/>
    <path d="M-3.65 -12.05 L-3.6 -15.7 3.55 -15.7 3.55 -12.2 0.0 -12.65 -1.0 -12.6 -3.65 -12.05 M14.05 3.55 L14.0 3.8 13.95 4.05 13.95 4.1 Q6.15 8.1 -3.75 7.5 -2.3 11.6 -1.05 13.45 0.15 15.3 1.0 15.7 L0.75 15.7 0.0 15.7 Q-5.65 15.7 -9.65 11.9 L-10.0 11.55 -10.5 11.05 Q-13.45 7.8 -14.0 3.6 -7.65 5.9 -0.1 5.9 7.65 5.9 14.05 3.55" fill="#000000" fill-opacity="0.101960786" fill-rule="evenodd" stroke="none"/>
    <path d="M-3.65 -12.05 L-3.6 -15.7 3.55 -15.7 3.55 -12.2 M14.05 3.55 L14.0 3.8 13.95 4.05 13.95 4.1 Q13.2 8.35 10.0 11.55 6.3 15.25 1.25 15.65 L1.0 15.7 0.75 15.7 0.0 15.7 Q-5.65 15.7 -9.65 11.9 L-10.0 11.55 -10.5 11.05 Q-13.45 7.8 -14.0 3.6 L-14.05 3.25 -14.1 2.25 M14.15 1.85 L14.15 2.55 14.05 3.55" fill="none" stroke="#000000" stroke-linecap="round" stroke-linejoin="miter-clip" stroke-miterlimit="3.0" stroke-width="1.0"/>
    <path d="M-14.1 2.25 L-9.05 3.5 -4.75 4.15 Q6.15 5.45 14.15 1.85 M14.05 3.55 Q7.65 5.9 -0.1 5.9 -7.65 5.9 -14.0 3.6" fill="none" stroke="#000000" stroke-linecap="round" stroke-linejoin="miter-clip" stroke-miterlimit="3.0" stroke-opacity="0.4" stroke-width="1.0"/>
    <path d="M3.55 -12.2 L0.0 -12.65 -1.0 -12.6 -3.65 -12.05 Z" fill="none" stroke="#000000" stroke-linecap="round" stroke-linejoin="miter-clip" stroke-miterlimit="3.0" stroke-opacity="0.6" stroke-width="1.0"/>
  </g>
</svg>
