<?xml version="1.0" encoding="UTF-8" standalone="no"?>
<svg xmlns:xlink="http://www.w3.org/1999/xlink" height="9.0px" width="35.6px" xmlns="http://www.w3.org/2000/svg">
  <g transform="matrix(1.0, 0.0, 0.0, 1.0, 20.85, 4.25)">
    <path d="M9.75 -2.85 L10.4 -2.7 12.25 -1.35 Q13.4 -0.25 13.85 1.3 14.25 2.8 14.05 2.8 L13.2 2.75 9.35 2.95 -2.7 4.05 -8.25 3.5 -13.2 2.05 Q-14.65 1.45 -16.3 1.2 L-20.1 1.35 Q-20.45 1.4 -19.55 0.45 L-17.85 -1.25 Q-16.95 -2.05 -14.7 -2.95 L-12.65 -3.55 Q-12.95 -2.65 -12.15 -1.55 -11.35 -0.4 -9.9 0.3 -6.25 2.05 -2.7 1.85 1.9 1.6 5.4 0.35 8.1 -0.6 9.0 -1.65 L9.55 -2.25 9.75 -2.85" fill="#ffffff" fill-opacity="0.0" fill-rule="evenodd" stroke="none"/>
    <path d="M9.75 -2.85 L9.55 -2.25 9.0 -1.65 Q8.1 -0.6 5.4 0.35 1.9 1.6 -2.7 1.85 -6.25 2.05 -9.9 0.3 -11.35 -0.4 -12.15 -1.55 -12.95 -2.65 -12.65 -3.55 L-14.7 -2.95 Q-16.95 -2.05 -17.85 -1.25 L-19.55 0.45 Q-20.45 1.4 -20.1 1.35 L-16.3 1.2 Q-14.65 1.45 -13.2 2.05 L-8.25 3.5 -2.7 4.05 9.35 2.95 13.2 2.75 14.05 2.8 Q14.25 2.8 13.85 1.3 13.4 -0.25 12.25 -1.35 L10.4 -2.7 9.75 -2.85 Z" fill="none" stroke="#000000" stroke-linecap="square" stroke-linejoin="round" stroke-width="1.0"/>
  </g>
</svg>
