<?xml version="1.0" encoding="UTF-8" standalone="no"?>
<svg xmlns:xlink="http://www.w3.org/1999/xlink" height="187.3px" width="107.65px" xmlns="http://www.w3.org/2000/svg">
  <g transform="matrix(1.0, 0.0, 0.0, 1.0, 53.8, 6.75)">
    <path d="M-20.75 177.85 L-20.65 173.75 Q-31.15 173.6 -42.35 175.15 L-53.15 176.15 -52.5 160.85 Q-50.3 130.1 -46.25 103.75 -40.65 71.0 -37.7 51.2 -33.95 25.7 -28.0 10.5 -26.3 6.05 -24.35 2.5 -21.4 -3.0 -16.8 -4.35 -13.35 -5.35 -9.0 -5.75 L0.0 -6.1 9.0 -5.9 Q13.55 -5.55 16.8 -4.35 19.5 -3.35 21.5 -1.35 23.35 0.55 25.2 4.05 L28.1 10.5 30.45 17.2 35.5 34.35 Q45.9 71.15 49.65 99.35 53.05 125.25 53.2 160.85 L53.15 176.15 39.8 175.55 21.65 174.15 21.65 174.55 21.65 177.6 21.65 177.65 Q21.45 179.8 0.0 179.9 -20.2 180.0 -20.75 178.05 L-20.75 177.85 M21.65 174.15 L21.6 160.85 Q21.3 147.9 20.1 133.0 17.8 105.05 17.45 95.95 17.8 105.05 20.1 133.0 21.3 147.9 21.6 160.85 L21.65 174.15 M-14.55 75.65 Q-14.7 83.0 -15.7 97.35 L-17.55 123.7 -19.45 146.6 -20.4 160.85 -20.65 167.75 -20.65 173.75 -20.65 167.75 -20.4 160.85 -19.45 146.6 -17.55 123.7 -15.7 97.35 Q-14.7 83.0 -14.55 75.65" fill="#ffffff" fill-opacity="0.0" fill-rule="evenodd" stroke="none"/>
    <path d="M21.65 177.65 Q21.45 179.8 0.0 179.9 -20.2 180.0 -20.75 178.05" fill="none" stroke="#000000" stroke-linecap="square" stroke-linejoin="round" stroke-width="1.0"/>
    <path d="M21.65 177.6 L21.65 177.65 M-20.75 178.05 L-20.75 177.85" fill="none" stroke="#000000" stroke-linecap="square" stroke-linejoin="round" stroke-opacity="0.4" stroke-width="1.0"/>
    <path d="M-20.75 177.85 L-20.65 173.75" fill="none" stroke="#000000" stroke-linecap="square" stroke-linejoin="round" stroke-width="1.0"/>
    <path d="M-20.65 173.75 Q-31.15 173.6 -42.35 175.15 L-53.15 176.15 -52.5 160.85 Q-50.3 130.1 -46.25 103.75 -40.65 71.0 -37.7 51.2 -33.95 25.7 -28.0 10.5 -26.3 6.05 -24.35 2.5 -21.4 -3.0 -16.8 -4.35 -13.35 -5.35 -9.0 -5.75 L0.0 -6.1 9.0 -5.9 Q13.55 -5.55 16.8 -4.35 19.5 -3.35 21.5 -1.35 23.35 0.55 25.2 4.05 L28.1 10.5 30.45 17.2 35.5 34.35 Q45.9 71.15 49.65 99.35 53.05 125.25 53.2 160.85 L53.15 176.15 39.8 175.55 21.65 174.15" fill="none" stroke="#000000" stroke-linecap="round" stroke-linejoin="round" stroke-width="1.0"/>
    <path d="M21.65 174.15 L21.65 174.55 21.65 177.6" fill="none" stroke="#000000" stroke-linecap="round" stroke-linejoin="round" stroke-width="1.0"/>
    <path d="M17.45 95.95 Q17.8 105.05 20.1 133.0 21.3 147.9 21.6 160.85 L21.65 174.15" fill="none" stroke="#000000" stroke-linecap="square" stroke-linejoin="round" stroke-opacity="0.4" stroke-width="1.0"/>
    <path d="M-20.65 173.75 L-20.65 167.75 -20.4 160.85 -19.45 146.6 -17.55 123.7 -15.7 97.35 Q-14.7 83.0 -14.55 75.65" fill="none" stroke="#000000" stroke-linecap="round" stroke-linejoin="round" stroke-opacity="0.4" stroke-width="1.0"/>
  </g>
</svg>
