<?xml version="1.0" encoding="UTF-8" standalone="no"?>
<svg xmlns:xlink="http://www.w3.org/1999/xlink" height="151.85px" width="164.95px" xmlns="http://www.w3.org/2000/svg">
  <g transform="matrix(1.0, 0.0, 0.0, 1.0, 145.35, 6.7)">
    <path d="M-104.9 100.75 L-105.0 100.8 Q-105.55 101.2 -106.15 101.2 -112.45 101.45 -115.45 97.4 L-117.5 93.15 -120.5 85.85 Q-122.55 81.7 -125.3 79.6 -130.55 75.65 -140.45 76.0 L-144.7 76.5 Q-137.2 73.25 -134.2 72.95 L-130.15 72.5 -126.2 73.0 -120.4 74.6 Q-117.6 75.3 -115.9 74.65 -109.4 72.15 -106.05 64.75 -102.95 55.65 -101.3 51.75 L-100.85 50.65 Q-97.3 42.35 -90.7 38.25 -79.05 31.25 -66.4 32.5 L-57.8 33.55 Q-53.45 33.85 -50.6 32.35 -48.0 30.95 -41.25 24.85 -35.2 19.45 -32.7 16.6 -28.6 11.95 -26.8 8.15 -25.05 4.3 -23.0 1.2 -21.0 -1.9 -18.6 -3.3 -16.25 -4.7 -13.35 -5.2 L-5.85 -5.95 1.6 -6.05 Q5.35 -5.85 8.05 -4.75 10.3 -3.8 11.95 -1.85 13.5 -0.05 15.0 3.4 16.15 6.05 17.2 9.8 18.95 16.25 18.95 23.1 18.95 28.1 18.0 33.25 16.5 41.55 11.6 49.85 8.85 54.55 2.0 63.6 -4.3 71.95 -6.75 76.55 -10.55 83.8 -10.55 90.8 L-10.05 106.6 Q-10.2 115.75 -13.6 121.75 -19.9 132.85 -41.35 139.45 -48.1 141.5 -56.85 143.25 L-57.0 143.4 -63.65 144.5 Q-58.35 139.4 -55.7 134.75 -52.9 129.8 -54.0 126.75 -55.45 122.7 -59.6 122.05 -63.7 121.4 -68.9 124.6 L-69.35 124.85 -69.3 124.85 -72.15 126.85 Q-79.7 132.8 -87.95 125.05 -91.35 121.8 -93.5 117.2 -95.65 112.55 -95.65 108.25 -95.65 106.7 -95.3 106.0 L-95.25 105.9 -95.15 105.8 -94.8 105.45 -94.3 105.25 -93.8 105.15 Q-92.5 105.15 -90.9 106.25 -85.1 108.9 -84.15 108.85 -83.5 108.8 -82.45 108.15 L-81.1 107.05 -81.1 107.0 -80.85 106.65 -80.35 105.5 -80.3 104.7 Q-80.3 101.95 -84.9 98.1 L-93.0 92.45 -96.7 90.25 Q-101.45 87.35 -106.65 87.9 -107.45 88.25 -107.9 89.15 -107.95 90.45 -107.05 91.35 L-105.6 92.8 -103.85 95.0 Q-103.3 96.25 -103.3 97.1 L-103.35 97.8 -103.35 97.85 Q-103.5 98.75 -104.0 99.5 L-104.1 99.85 -104.9 100.75 M-44.25 45.35 L-47.35 47.55 Q-51.25 50.0 -55.15 51.5 L-66.7 56.15 Q-74.0 59.75 -76.45 64.5 -82.05 75.75 -90.6 80.0 L-95.65 82.3 -98.2 83.45 -106.65 87.9 -98.2 83.45 -95.65 82.3 -90.6 80.0 Q-82.05 75.75 -76.45 64.5 -74.0 59.75 -66.7 56.15 L-55.15 51.5 Q-51.25 50.0 -47.35 47.55 L-44.25 45.35 M-48.85 71.15 Q-62.25 79.7 -80.85 106.65 -62.25 79.7 -48.85 71.15" fill="#ffffff" fill-opacity="0.0" fill-rule="evenodd" stroke="none"/>
    <path d="M-94.3 105.25 L-84.9 98.1 Q-80.3 101.95 -80.3 104.7 L-80.35 105.5 -80.85 106.65 -81.1 107.0 -81.1 107.05 -82.45 108.15 Q-83.5 108.8 -84.15 108.85 -85.1 108.9 -90.9 106.25 -92.5 105.15 -93.8 105.15 L-94.3 105.25 M-93.0 92.45 L-104.9 100.75 -104.1 99.85 -104.0 99.5 Q-103.5 98.75 -103.35 97.85 L-103.35 97.8 -103.3 97.1 Q-103.3 96.25 -103.85 95.0 L-105.6 92.8 -107.05 91.35 Q-107.95 90.45 -107.9 89.15 -107.45 88.25 -106.65 87.9 -101.45 87.35 -96.7 90.25 L-93.0 92.45 M-81.95 103.05 L-81.0 103.75 -82.2 102.85 -81.95 103.05" fill="#000000" fill-opacity="0.09803922" fill-rule="evenodd" stroke="none"/>
    <path d="M-104.9 100.75 L-105.0 100.8 Q-105.55 101.2 -106.15 101.2 -112.45 101.45 -115.45 97.4 L-117.5 93.15 -120.5 85.85 Q-122.55 81.7 -125.3 79.6 -130.55 75.65 -140.45 76.0 L-144.7 76.5 Q-137.2 73.25 -134.2 72.95 L-130.15 72.5 -126.2 73.0 -120.4 74.6 Q-117.6 75.3 -115.9 74.65 -109.4 72.15 -106.05 64.75 -102.95 55.65 -101.3 51.75 L-100.85 50.65 Q-97.3 42.35 -90.7 38.25 -79.05 31.25 -66.4 32.5 L-57.8 33.55 Q-53.45 33.85 -50.6 32.35 -48.0 30.95 -41.25 24.85 -35.2 19.45 -32.7 16.6 -28.6 11.95 -26.8 8.15 -25.05 4.3 -23.0 1.2 -21.0 -1.9 -18.6 -3.3 -16.25 -4.7 -13.35 -5.2 L-5.85 -5.95 1.6 -6.05 Q5.35 -5.85 8.05 -4.75 10.3 -3.8 11.95 -1.85 13.5 -0.05 15.0 3.4 16.15 6.05 17.2 9.8 18.95 16.25 18.95 23.1 18.95 28.1 18.0 33.25 16.5 41.55 11.6 49.85 8.85 54.55 2.0 63.6 -4.3 71.95 -6.75 76.55 -10.55 83.8 -10.55 90.8 L-10.05 106.6 Q-10.2 115.75 -13.6 121.75 -19.9 132.85 -41.35 139.45 -48.1 141.5 -56.85 143.25 M-80.85 106.65 L-81.1 107.0 -81.1 107.05 -82.45 108.15 Q-83.5 108.8 -84.15 108.85 -85.1 108.9 -90.9 106.25 -92.5 105.15 -93.8 105.15 L-94.3 105.25 M-84.9 98.1 Q-80.3 101.95 -80.3 104.7 L-80.35 105.5 -80.85 106.65" fill="none" stroke="#000000" stroke-linecap="square" stroke-linejoin="round" stroke-width="1.0"/>
    <path d="M-56.85 143.25 L-57.0 143.4 M-80.85 106.65 Q-62.25 79.7 -48.85 71.15" fill="none" stroke="#000000" stroke-linecap="square" stroke-linejoin="round" stroke-opacity="0.4" stroke-width="1.0"/>
    <path d="M-57.0 143.4 L-63.65 144.5 Q-58.35 139.4 -55.7 134.75 -52.9 129.8 -54.0 126.75 -55.45 122.7 -59.6 122.05 -63.7 121.4 -68.9 124.6 L-69.3 124.85 -72.15 126.85 Q-79.7 132.8 -87.95 125.05 -91.35 121.8 -93.5 117.2 -95.65 112.55 -95.65 108.25 -95.65 106.7 -95.3 106.0 L-95.25 105.9 -95.15 105.8 -94.8 105.45 -94.3 105.25 -84.9 98.1 -93.0 92.45 -104.9 100.75 -104.1 99.85 -104.0 99.5 Q-103.5 98.75 -103.35 97.85 L-103.35 97.8 -103.3 97.1 Q-103.3 96.25 -103.85 95.0 L-105.6 92.8 -107.05 91.35 Q-107.95 90.45 -107.9 89.15 -107.45 88.25 -106.65 87.9 -101.45 87.35 -96.7 90.25 L-93.0 92.45" fill="none" stroke="#000000" stroke-linecap="square" stroke-linejoin="round" stroke-width="1.0"/>
    <path d="M-106.65 87.9 L-98.2 83.45 -95.65 82.3 -90.6 80.0 Q-82.05 75.75 -76.45 64.5 -74.0 59.75 -66.7 56.15 L-55.15 51.5 Q-51.25 50.0 -47.35 47.55 L-44.25 45.35" fill="none" stroke="#000000" stroke-linecap="round" stroke-linejoin="round" stroke-opacity="0.4" stroke-width="1.0"/>
  </g>
</svg>
