<?xml version="1.0" encoding="UTF-8" standalone="no"?>
<svg xmlns:xlink="http://www.w3.org/1999/xlink" height="6.2px" width="20.65px" xmlns="http://www.w3.org/2000/svg">
  <g transform="matrix(1.0, 0.0, 0.0, 1.0, 10.3, 3.1)">
    <path d="M4.8 -0.9 L6.1 -1.0 6.45 -0.9 6.55 -1.1 Q6.9 -1.75 7.35 -2.0 L8.55 -2.4 Q9.2 -2.55 9.55 -2.1 9.85 -1.7 9.5 -1.0 L8.65 -0.05 7.55 0.35 7.05 0.25 6.7 0.75 5.65 1.5 4.35 1.55 3.9 1.35 3.25 1.95 1.95 2.45 0.6 2.15 0.15 1.8 -0.35 2.15 -1.75 2.35 Q-2.3 2.3 -2.9 1.85 L-3.4 1.35 -4.05 1.6 -5.3 1.6 -6.35 0.9 -6.7 0.35 -7.35 0.45 -8.6 0.1 -9.45 -0.8 Q-9.8 -1.45 -9.5 -1.95 -9.25 -2.4 -8.5 -2.35 L-7.3 -2.0 -6.45 -1.1 -6.2 -0.7 -5.9 -0.8 -4.6 -0.8 -3.55 -0.15 -3.15 0.25 -2.7 0.05 -1.45 -0.2 Q-0.9 -0.15 -0.1 0.3 L0.15 0.5 0.5 0.25 1.8 -0.2 3.15 0.05 3.45 0.25 3.75 -0.2 4.8 -0.9" fill="#ffffff" fill-opacity="0.0" fill-rule="evenodd" stroke="none"/>
    <path d="M4.8 -0.9 L6.1 -1.0 6.45 -0.9 6.55 -1.1 Q6.9 -1.75 7.35 -2.0 L8.55 -2.4 Q9.2 -2.55 9.55 -2.1 9.85 -1.7 9.5 -1.0 L8.65 -0.05 7.55 0.35 7.05 0.25 6.7 0.75 5.65 1.5 4.35 1.55 3.9 1.35 3.25 1.95 1.95 2.45 0.6 2.15 0.15 1.8 -0.35 2.15 -1.75 2.35 Q-2.3 2.3 -2.9 1.85 L-3.4 1.35 -4.05 1.6 -5.3 1.6 -6.35 0.9 -6.7 0.35 -7.35 0.45 -8.6 0.1 -9.45 -0.8 Q-9.8 -1.45 -9.5 -1.95 -9.25 -2.4 -8.5 -2.35 L-7.3 -2.0 -6.45 -1.1 -6.2 -0.7 -5.9 -0.8 -4.6 -0.8 -3.55 -0.15 -3.15 0.25 -2.7 0.05 -1.45 -0.2 Q-0.9 -0.15 -0.1 0.3 L0.15 0.5 0.5 0.25 1.8 -0.2 3.15 0.05 3.45 0.25 3.75 -0.2 4.8 -0.9 Z" fill="none" stroke="#000000" stroke-linecap="square" stroke-linejoin="round" stroke-opacity="0.4" stroke-width="1.0"/>
  </g>
</svg>
