<?xml version="1.0" encoding="UTF-8" standalone="no"?>
<svg xmlns:xlink="http://www.w3.org/1999/xlink" height="62.5px" width="7.2px" xmlns="http://www.w3.org/2000/svg">
  <g transform="matrix(1.0, 0.0, 0.0, 1.0, 3.6, 31.25)">
    <path d="M1.5 -25.95 Q1.4 -23.0 2.05 -15.1 2.9 -3.8 2.95 10.45 L2.95 26.4 0.0 30.6 -2.95 26.8 -2.95 10.45 Q-2.9 -3.6 -2.05 -14.8 -1.45 -22.6 -1.45 -25.55 -2.75 -26.6 -2.65 -28.8 -2.8 -30.4 -1.35 -30.6 0.7 -30.6 2.15 -29.4 2.6 -27.75 1.5 -26.0 L1.5 -25.95 Q0.15 -26.3 -1.45 -25.55 0.15 -26.3 1.5 -25.95" fill="#ffffff" fill-opacity="0.0" fill-rule="evenodd" stroke="none"/>
    <path d="M1.5 -25.95 Q1.4 -23.0 2.05 -15.1 2.9 -3.8 2.95 10.45 L2.95 26.4 0.0 30.6 -2.95 26.8 -2.95 10.45 Q-2.9 -3.6 -2.05 -14.8 -1.45 -22.6 -1.45 -25.55 -2.75 -26.6 -2.65 -28.8 -2.8 -30.4 -1.35 -30.6 0.7 -30.6 2.15 -29.4 2.6 -27.75 1.5 -26.0 L1.5 -25.95" fill="none" stroke="#000000" stroke-linecap="round" stroke-linejoin="round" stroke-opacity="0.4" stroke-width="1.0"/>
    <path d="M1.5 -25.95 Q0.15 -26.3 -1.45 -25.55" fill="none" stroke="#000000" stroke-linecap="round" stroke-linejoin="miter-clip" stroke-miterlimit="3.0" stroke-opacity="0.4" stroke-width="1.0"/>
  </g>
</svg>
