<?xml version="1.0" encoding="UTF-8" standalone="no"?>
<svg xmlns:xlink="http://www.w3.org/1999/xlink" height="61.2px" width="11.1px" xmlns="http://www.w3.org/2000/svg">
  <g transform="matrix(1.0, 0.0, 0.0, 1.0, 5.55, 30.6)">
    <path d="M4.95 -4.65 Q0.25 -6.8 -4.5 -9.0 L-3.95 -13.6 4.55 -9.65 4.95 -4.65 M3.9 -14.8 L-3.25 -18.05 -2.4 -22.45 3.05 -19.95 3.85 -15.1 3.9 -14.8 M1.5 -26.0 Q0.75 -26.3 -1.45 -25.6 L-1.5 -25.6 Q-2.75 -26.55 -2.65 -28.8 L-1.35 -30.6 Q0.7 -30.6 2.15 -29.4 2.6 -27.75 1.5 -26.0 M-5.5 14.5 L5.55 19.6 5.55 24.4 -5.5 19.3 -5.5 14.5 M-5.4 4.95 L5.55 10.0 5.55 10.45 5.55 14.8 -5.5 9.7 -5.4 4.95 M-5.55 24.1 L3.3 28.15 0.0 30.6 -5.55 26.8 -5.55 24.1 M5.5 5.2 L-5.25 0.2 -4.9 -4.4 5.3 0.25 5.5 5.2" fill="#ffffff" fill-opacity="0.49803922" fill-rule="evenodd" stroke="none"/>
  </g>
</svg>
