<?xml version="1.0" encoding="UTF-8" standalone="no"?>
<svg xmlns:xlink="http://www.w3.org/1999/xlink" height="51.1px" width="10.2px" xmlns="http://www.w3.org/2000/svg">
  <g transform="matrix(1.0, 0.0, 0.0, 1.0, 4.2, -6.45)">
    <path d="M3.0 8.05 L2.65 9.1 0.75 8.35 1.45 6.45 2.75 6.95 3.0 8.05 M1.65 15.0 L-0.3 14.25 0.4 12.35 2.25 13.1 1.65 15.0 M3.15 17.9 L3.85 16.0 4.0 16.05 4.15 18.3 3.15 17.9 M4.4 22.55 L4.5 23.35 4.05 24.55 2.1 23.8 2.8 21.9 4.4 22.55 M0.6 20.9 L-1.35 20.15 -0.65 18.25 1.25 19.0 0.6 20.9 M1.05 29.7 L1.75 27.8 3.65 28.55 3.0 30.45 1.05 29.7 M2.6 34.45 L1.95 36.35 0.0 35.65 0.7 33.7 2.6 34.45 M3.65 39.1 L4.35 37.15 4.75 37.3 4.7 39.5 3.65 39.1 M0.9 42.3 L-1.0 41.55 -0.3 39.6 1.55 40.35 0.9 42.3 M4.5 45.75 L2.6 45.0 3.3 43.05 4.6 43.55 4.5 45.75 M3.5 51.65 L1.55 50.9 2.25 48.95 4.2 49.7 3.5 51.65 M3.15 55.65 L2.45 57.55 0.5 56.8 1.2 54.9 3.15 55.65 M-2.25 11.2 L-1.9 9.1 -1.1 9.4 -1.8 11.35 -2.25 11.2 M-3.0 17.2 L-2.9 16.05 -2.8 15.1 -2.15 15.35 -2.85 17.25 -3.0 17.2 M-1.9 36.7 L-2.55 38.65 -4.2 38.0 -4.2 37.25 -3.75 35.95 -1.9 36.7 M-1.5 32.7 L-3.45 32.0 -2.75 30.05 -0.85 30.8 -1.5 32.7 M-2.4 26.05 L-1.7 24.15 0.2 24.9 -0.45 26.8 -2.4 26.05 M-2.95 42.6 L-3.6 44.55 -4.0 44.4 -4.1 42.2 -2.95 42.6 M-2.05 47.45 L-1.35 45.55 0.5 46.25 -0.15 48.2 -2.05 47.45 M-0.55 52.2 L-1.2 54.1 -3.1 53.35 -2.4 51.45 -0.55 52.2" fill="#ffffff" fill-opacity="0.49803922" fill-rule="evenodd" stroke="none"/>
    <path d="M5.9 41.55 L6.0 39.6 6.0 40.1 5.9 41.55" fill="#ffffff" fill-opacity="0.0" fill-rule="evenodd" stroke="none"/>
  </g>
</svg>
