<?xml version="1.0" encoding="UTF-8" standalone="no"?>
<svg xmlns:xlink="http://www.w3.org/1999/xlink" height="18.35px" width="5.0px" xmlns="http://www.w3.org/2000/svg">
  <g transform="matrix(1.0, 0.0, 0.0, 1.0, 2.8, -2.0)">
    <path d="M1.6 4.7 L1.5 6.0 1.45 7.35 1.35 8.65 1.2 9.95 0.85 14.65 0.85 14.7 0.7 16.0 0.6 16.7 Q0.15 19.85 -0.3 19.85 -0.8 19.85 -1.25 16.8 L-1.35 16.0 -1.5 14.7 -1.5 14.65 -1.7 12.5 -1.9 9.95 -2.0 8.65 -2.1 7.35 -2.15 6.0 -2.2 4.7 -2.25 3.65 -2.3 2.5 1.7 2.5 1.65 3.65 1.6 4.7" fill="#ffffff" fill-opacity="0.0" fill-rule="evenodd" stroke="none"/>
    <path d="M-1.9 9.95 L-1.7 12.5 -1.5 14.65 -1.5 14.7 -1.35 16.0 -1.25 16.8 Q-0.8 19.85 -0.3 19.85 0.15 19.85 0.6 16.7 L0.7 16.0 0.85 14.7 0.85 14.65 1.2 9.95" fill="none" stroke="#000000" stroke-linecap="round" stroke-linejoin="miter-clip" stroke-miterlimit="3.0" stroke-opacity="0.4" stroke-width="1.0"/>
    <path d="M1.6 4.7 L1.65 3.65 M-2.25 3.65 L-2.2 4.7" fill="none" stroke="#000000" stroke-linecap="round" stroke-linejoin="miter-clip" stroke-miterlimit="3.0" stroke-opacity="0.14901961" stroke-width="1.0"/>
    <path d="M1.5 6.0 L1.6 4.7 M-2.2 4.7 L-2.15 6.0" fill="none" stroke="#000000" stroke-linecap="round" stroke-linejoin="miter-clip" stroke-miterlimit="3.0" stroke-opacity="0.2" stroke-width="1.0"/>
    <path d="M-2.15 6.0 L-2.1 7.35 M1.45 7.35 L1.5 6.0" fill="none" stroke="#000000" stroke-linecap="round" stroke-linejoin="miter-clip" stroke-miterlimit="3.0" stroke-opacity="0.2509804" stroke-width="1.0"/>
    <path d="M-2.1 7.35 L-2.0 8.65 M1.35 8.65 L1.45 7.35" fill="none" stroke="#000000" stroke-linecap="round" stroke-linejoin="miter-clip" stroke-miterlimit="3.0" stroke-opacity="0.3019608" stroke-width="1.0"/>
    <path d="M-2.0 8.65 L-1.9 9.95 M1.2 9.95 L1.35 8.65" fill="none" stroke="#000000" stroke-linecap="round" stroke-linejoin="miter-clip" stroke-miterlimit="3.0" stroke-opacity="0.34901962" stroke-width="1.0"/>
    <path d="M1.65 3.65 L1.7 2.5 M-2.3 2.5 L-2.25 3.65" fill="none" stroke="#000000" stroke-linecap="round" stroke-linejoin="miter-clip" stroke-miterlimit="3.0" stroke-opacity="0.101960786" stroke-width="1.0"/>
  </g>
</svg>
