<?xml version="1.0" encoding="UTF-8" standalone="no"?>
<svg xmlns:xlink="http://www.w3.org/1999/xlink" height="8.85px" width="5.15px" xmlns="http://www.w3.org/2000/svg">
  <g transform="matrix(1.0, 0.0, 0.0, 1.0, 2.6, 4.4)">
    <path d="M1.3 -2.75 Q1.85 -1.65 1.9 0.0 2.0 1.65 1.4 2.75 0.8 3.85 -0.05 3.8 -0.85 3.75 -1.4 2.65 -2.0 1.5 -1.95 -0.05 -1.9 -1.65 -1.35 -2.7 -0.75 -3.75 0.0 -3.75 0.75 -3.9 1.3 -2.75 M0.4 -1.15 L0.25 -2.55 -0.15 -3.0 -0.5 -2.55 -0.7 -1.2 -0.55 0.15 Q-0.4 0.75 -0.1 0.75 L0.25 0.2 0.4 -1.15" fill="#ffffff" fill-opacity="0.0" fill-rule="evenodd" stroke="none"/>
    <path d="M1.3 -2.75 Q1.85 -1.65 1.9 0.0 2.0 1.65 1.4 2.75 0.8 3.85 -0.05 3.8 -0.85 3.75 -1.4 2.65 -2.0 1.5 -1.95 -0.05 -1.9 -1.65 -1.35 -2.7 -0.75 -3.75 0.0 -3.75 0.75 -3.9 1.3 -2.75 M0.4 -1.15 L0.25 0.2 -0.1 0.75 Q-0.4 0.75 -0.55 0.15 L-0.7 -1.2 -0.5 -2.55 -0.15 -3.0 0.25 -2.55 0.4 -1.15" fill="none" stroke="#000000" stroke-linecap="square" stroke-linejoin="round" stroke-opacity="0.4" stroke-width="1.0"/>
  </g>
</svg>
