<?xml version="1.0" encoding="UTF-8" standalone="no"?>
<svg xmlns:xlink="http://www.w3.org/1999/xlink" height="59.9px" width="9.1px" xmlns="http://www.w3.org/2000/svg">
  <g transform="matrix(1.0, 0.0, 0.0, 1.0, 4.75, 30.6)">
    <path d="M3.2 -16.8 L3.35 -15.35 -2.85 -17.85 -2.8 -18.15 -2.15 -22.3 2.75 -20.2 3.2 -16.8 M3.75 -10.0 L3.75 -9.95 4.1 -5.05 -3.9 -8.75 -3.9 -9.1 -3.45 -13.35 3.75 -10.0 M1.5 -26.0 L1.35 -26.05 1.3 -26.05 Q0.05 -26.35 -1.3 -25.65 L-1.45 -25.6 -1.3 -25.65 Q0.05 -26.35 1.3 -26.05 L1.35 -26.05 1.3 -26.05 -1.3 -25.65 -1.45 -25.6 -1.5 -25.6 Q-2.75 -26.55 -2.65 -28.8 L-1.35 -30.6 Q0.7 -30.6 2.15 -29.4 2.6 -27.75 1.5 -26.0 M4.35 -0.2 L4.3 4.65 -4.55 0.55 -4.55 0.1 -4.3 -4.15 4.35 -0.2 M4.2 9.4 L4.05 14.1 -4.65 10.1 -4.7 8.45 -4.7 5.3 4.2 9.4 M3.9 18.85 L3.75 23.55 -4.35 19.85 -4.5 14.95 3.9 18.85 M2.65 27.85 L1.9 29.3 1.45 29.15 -4.15 27.2 -4.2 24.7 Q-0.8 26.25 2.65 27.85" fill="#ffffff" fill-opacity="0.49803922" fill-rule="evenodd" stroke="none"/>
    <path d="M1.35 -26.05 L1.5 -26.0 M-1.45 -25.6 L-1.3 -25.65 Q0.05 -26.35 1.3 -26.05 L1.35 -26.05 Z" fill="none" stroke="#000000" stroke-linecap="butt" stroke-linejoin="miter-clip" stroke-miterlimit="3.0" stroke-opacity="0.4" stroke-width="1.0"/>
  </g>
</svg>
