<?xml version="1.0" encoding="UTF-8" standalone="no"?>
<svg xmlns:xlink="http://www.w3.org/1999/xlink" height="19.35px" width="15.95px" xmlns="http://www.w3.org/2000/svg">
  <g transform="matrix(1.0, 0.0, 0.0, 1.0, -0.05, -1.35)">
    <path d="M15.1 1.85 Q16.1 3.85 16.0 8.05 L15.65 11.85 12.1 15.85 10.1 18.1 8.95 20.7 1.2 13.8 Q0.55 11.25 0.25 8.45 -0.45 2.9 1.1 1.85 4.0 6.55 7.85 11.35 9.45 9.9 15.1 1.85 M12.1 15.85 L10.0 13.85 7.85 11.35 10.0 13.85 12.1 15.85" fill="#ffffff" fill-opacity="0.0" fill-rule="evenodd" stroke="none"/>
    <path d="M1.1 1.85 Q4.0 6.55 7.85 11.35 9.45 9.9 15.1 1.85 M7.85 11.35 L10.0 13.85 12.1 15.85" fill="none" stroke="#000000" stroke-linecap="round" stroke-linejoin="round" stroke-opacity="0.6" stroke-width="1.0"/>
  </g>
</svg>
