<?xml version="1.0" encoding="UTF-8" standalone="no"?>
<svg xmlns:xlink="http://www.w3.org/1999/xlink" height="20.95px" width="7.1px" xmlns="http://www.w3.org/2000/svg">
  <g transform="matrix(1.0, 0.0, 0.0, 1.0, 1.75, 0.5)">
    <path d="M2.1 3.5 L1.9 3.3 Q1.4 2.75 1.4 1.95 1.4 1.15 1.9 0.55 2.45 0.0 3.15 0.0 3.85 0.0 4.35 0.55 4.85 1.15 4.85 1.95 4.85 2.75 4.35 3.3 L3.75 3.8 3.15 3.9 Q2.55 3.9 2.1 3.5 M3.75 17.9 L3.9 18.0 4.2 18.7 3.9 19.35 3.15 19.65 2.4 19.35 Q2.1 19.1 2.1 18.7 2.1 18.05 2.6 17.85 L3.15 17.75 3.75 17.9 M1.5 14.3 L1.75 14.5 2.05 15.15 1.75 15.85 1.05 16.1 Q0.0 16.1 0.0 15.15 0.0 14.75 0.3 14.5 L0.45 14.4 1.05 14.2 1.5 14.3" fill="#ffffff" fill-opacity="0.0" fill-rule="evenodd" stroke="none"/>
    <path d="M3.75 3.8 L3.75 17.9 3.15 17.75 2.6 17.85 2.5 17.85 2.75 11.15 2.75 5.25 2.1 7.65 Q1.15 11.9 1.5 14.3 L1.05 14.2 0.45 14.4 Q0.05 11.9 0.95 7.6 L2.1 3.5 Q2.55 3.9 3.15 3.9 L3.75 3.8" fill="#000000" fill-opacity="0.14901961" fill-rule="evenodd" stroke="none"/>
    <path d="M2.1 3.5 L1.9 3.3 Q1.4 2.75 1.4 1.95 1.4 1.15 1.9 0.55 2.45 0.0 3.15 0.0 3.85 0.0 4.35 0.55 4.85 1.15 4.85 1.95 4.85 2.75 4.35 3.3 L3.75 3.8 3.15 3.9 Q2.55 3.9 2.1 3.5 M3.75 17.9 L3.9 18.0 4.2 18.7 3.9 19.35 3.15 19.65 2.4 19.35 Q2.1 19.1 2.1 18.7 2.1 18.05 2.6 17.85 L3.15 17.75 3.75 17.9 M1.5 14.3 L1.75 14.5 2.05 15.15 1.75 15.85 1.05 16.1 Q0.0 16.1 0.0 15.15 0.0 14.75 0.3 14.5 L0.45 14.4 1.05 14.2 1.5 14.3" fill="none" stroke="#000000" stroke-linecap="round" stroke-linejoin="miter-clip" stroke-miterlimit="10.0" stroke-opacity="0.4" stroke-width="1.0"/>
    <path d="M3.75 3.8 L3.75 17.9 M2.6 17.85 L2.5 17.85 2.75 11.15 2.75 5.25 2.1 7.65 Q1.15 11.9 1.5 14.3 M0.45 14.4 Q0.05 11.9 0.95 7.6 L2.1 3.5 Z" fill="none" stroke="#000000" stroke-linecap="round" stroke-linejoin="round" stroke-opacity="0.4" stroke-width="1.0"/>
  </g>
</svg>
