<?xml version="1.0" encoding="UTF-8" standalone="no"?>
<svg xmlns:xlink="http://www.w3.org/1999/xlink" height="2.7px" width="4.0px" xmlns="http://www.w3.org/2000/svg">
  <g transform="matrix(1.0, 0.0, 0.0, 1.0, 1.75, 1.35)">
    <path d="M0.3 -0.15 L0.3 0.0 0.1 0.5 -0.4 0.7 Q-0.7 0.7 -0.9 0.5 L-1.1 0.0 -1.05 -0.15 -0.9 -0.5 -0.4 -0.7 0.1 -0.5 0.3 -0.15" fill="#ffffff" fill-opacity="0.0" fill-rule="evenodd" stroke="none"/>
    <path d="M0.3 -0.15 L1.6 -0.15" fill="none" stroke="#000000" stroke-linecap="round" stroke-linejoin="miter-clip" stroke-miterlimit="3.0" stroke-opacity="0.2" stroke-width="1.0"/>
    <path d="M0.3 -0.15 L0.3 0.0 0.1 0.5 -0.4 0.7 Q-0.7 0.7 -0.9 0.5 L-1.1 0.0 -1.05 -0.15 -0.9 -0.5 -0.4 -0.7 0.1 -0.5 0.3 -0.15" fill="none" stroke="#000000" stroke-linecap="round" stroke-linejoin="miter-clip" stroke-miterlimit="3.0" stroke-opacity="0.4" stroke-width="1.0"/>
  </g>
</svg>
