<?xml version="1.0" encoding="UTF-8" standalone="no"?>
<svg xmlns:xlink="http://www.w3.org/1999/xlink" height="22.3px" width="18.1px" xmlns="http://www.w3.org/2000/svg">
  <g transform="matrix(1.0, 0.0, 0.0, 1.0, 2.45, 0.5)">
    <path d="M6.55 1.3 L7.95 0.8 10.65 0.7 13.0 1.3 13.2 2.65 13.1 5.2 Q12.9 6.1 9.95 4.5 L8.9 3.9 8.95 3.95 7.65 3.05 6.8 2.45 6.55 1.3 6.8 2.45 7.65 3.05 8.95 3.95 9.95 8.8 9.85 10.55 9.6 13.95 Q9.6 17.0 9.85 18.05 L8.45 18.0 7.5 18.45 Q6.7 15.6 7.75 11.05 8.2 9.15 7.85 6.55 L7.4 4.3 6.7 9.25 6.2 11.75 5.05 15.65 Q4.1 19.05 4.55 21.3 L2.7 21.3 Q2.05 19.9 2.6 16.25 3.1 12.9 4.05 10.85 4.8 9.3 4.75 5.6 L4.6 3.1 4.05 3.3 1.05 4.15 Q-0.05 4.2 0.0 2.6 0.0 1.2 0.6 0.25 L3.8 0.45 Q5.2 0.8 6.55 1.3 M7.65 3.05 L7.4 4.3 7.65 3.05 M6.8 2.45 L6.75 2.4 4.6 3.1 6.75 2.4 6.8 2.45" fill="#ffffff" fill-opacity="0.0" fill-rule="evenodd" stroke="none"/>
    <path d="M8.95 3.95 L8.9 3.9 9.95 4.5 Q12.9 6.1 13.1 5.2 L13.2 2.65 13.0 1.3 10.65 0.7 7.95 0.8 6.55 1.3 6.8 2.45 7.65 3.05 8.95 3.95 9.95 8.8 9.85 10.55 9.6 13.95 Q9.6 17.0 9.85 18.05 L8.45 18.0 7.5 18.45 Q6.7 15.6 7.75 11.05 8.2 9.15 7.85 6.55 L7.4 4.3 6.7 9.25 6.2 11.75 5.05 15.65 Q4.1 19.05 4.55 21.3 L2.7 21.3 Q2.05 19.9 2.6 16.25 3.1 12.9 4.05 10.85 4.8 9.3 4.75 5.6 L4.6 3.1 4.05 3.3 1.05 4.15 Q-0.05 4.2 0.0 2.6 0.0 1.2 0.6 0.25 L3.8 0.45 Q5.2 0.8 6.55 1.3 M4.6 3.1 L6.75 2.4 6.8 2.45 M7.4 4.3 L7.65 3.05" fill="none" stroke="#000000" stroke-linecap="round" stroke-linejoin="miter-clip" stroke-miterlimit="10.0" stroke-opacity="0.4" stroke-width="1.0"/>
  </g>
</svg>
