<?xml version="1.0" encoding="UTF-8" standalone="no"?>
<svg xmlns:xlink="http://www.w3.org/1999/xlink" height="47.55px" width="49.55px" xmlns="http://www.w3.org/2000/svg">
  <g transform="matrix(1.0, 0.0, 0.0, 1.0, 24.85, -8.7)">
    <path d="M-15.15 10.8 Q-11.7 8.7 -6.7 9.4 -2.75 9.9 0.1 11.65 2.8 9.85 6.95 9.35 11.85 8.75 15.3 10.7 15.0 12.0 14.95 14.95 14.85 18.05 15.15 20.05 15.95 25.45 19.45 29.9 22.2 33.45 24.2 34.0 L24.2 34.1 24.05 38.5 Q24.0 41.75 23.65 42.3 L21.7 44.45 16.85 49.25 11.6 54.2 9.55 55.7 6.7 55.3 4.2 54.5 3.3 54.25 Q1.45 53.85 0.3 50.9 L-0.05 50.0 Q-0.8 52.1 -1.65 53.05 -2.3 54.0 -3.25 54.25 L-3.45 54.25 -4.25 54.5 -6.45 55.1 -8.9 55.55 -10.65 54.25 Q-13.75 51.65 -21.9 43.85 L-23.85 42.0 Q-24.2 41.5 -24.3 38.15 L-24.35 34.1 -24.35 34.0 Q-16.9 28.55 -15.2 20.05 -14.8 18.15 -14.85 14.85 -14.85 11.8 -15.15 10.8" fill="#ffffff" fill-opacity="0.0" fill-rule="evenodd" stroke="none"/>
    <path d="M22.45 55.6 L22.6 55.55 22.35 55.8 22.45 55.6" fill="#ffffff" fill-opacity="0.2" fill-rule="evenodd" stroke="none"/>
    <path d="M24.2 34.0 L24.2 34.1 24.05 38.5 Q24.0 41.75 23.65 42.3 L21.7 44.45 16.85 49.25 11.6 54.2 9.55 55.7 6.7 55.3 4.2 54.5 3.3 54.25 Q1.45 53.85 0.3 50.9 L-0.05 50.0 Q-0.8 52.1 -1.65 53.05 -2.3 54.0 -3.25 54.25 L-3.45 54.25 -4.25 54.5 -6.45 55.1 -8.9 55.55 -10.65 54.25 Q-13.75 51.65 -21.9 43.85 L-23.85 42.0 Q-24.2 41.5 -24.3 38.15 L-24.35 34.1" fill="none" stroke="#000000" stroke-linecap="round" stroke-linejoin="round" stroke-opacity="0.6" stroke-width="1.0"/>
    <path d="M15.3 10.7 Q15.0 12.0 14.95 14.95 14.85 18.05 15.15 20.05 15.95 25.45 19.45 29.9 22.2 33.45 24.2 34.0 M-24.35 34.1 L-24.35 34.0 Q-16.9 28.55 -15.2 20.05 -14.8 18.15 -14.85 14.85 -14.85 11.8 -15.15 10.8" fill="none" stroke="#000000" stroke-linecap="round" stroke-linejoin="round" stroke-opacity="0.4" stroke-width="1.0"/>
    <path d="M-15.15 10.8 Q-11.7 8.7 -6.7 9.4 -2.75 9.9 0.1 11.65 2.8 9.85 6.95 9.35 11.85 8.75 15.3 10.7" fill="none" stroke="#000000" stroke-linecap="round" stroke-linejoin="round" stroke-width="1.0"/>
    <path d="M18.1 30.3 Q19.15 31.4 18.1 37.4 18.05 39.0 10.55 39.5 3.0 40.0 -0.05 50.0 -1.35 41.1 -9.0 40.15 -16.7 39.15 -17.9 37.4 -19.6 31.1 -18.7 30.3 -8.6 35.5 2.7 34.5 13.95 33.5 18.1 30.3" fill="#ffffff" fill-opacity="0.49803922" fill-rule="evenodd" stroke="none"/>
    <path d="M0.1 13.45 L0.05 34.1 0.0 43.85 -0.05 50.0" fill="none" stroke="#000000" stroke-linecap="round" stroke-linejoin="round" stroke-opacity="0.4" stroke-width="1.0"/>
  </g>
</svg>
