<?xml version="1.0" encoding="UTF-8" standalone="no"?>
<svg xmlns:xlink="http://www.w3.org/1999/xlink" height="17.3px" width="17.2px" xmlns="http://www.w3.org/2000/svg">
  <g transform="matrix(1.0, 0.0, 0.0, 1.0, -5.8, -2.0)">
    <path d="M6.3 12.35 L6.3 5.3 7.9 6.3 Q9.55 7.3 11.85 7.65 14.0 7.95 14.45 14.3 L14.95 10.6 Q15.6 7.85 16.95 7.65 19.95 7.2 22.1 5.45 L22.2 12.35 21.05 13.55 Q19.15 14.8 14.45 14.9 10.6 14.8 8.05 13.55 L6.3 12.35 8.05 13.55 Q10.6 14.8 14.45 14.9 19.15 14.8 21.05 13.55 L22.2 12.35 Q22.95 13.45 23.0 14.4 23.1 16.35 20.4 17.2 17.7 18.05 15.8 16.55 L14.45 14.9 Q14.3 15.8 13.6 16.6 12.15 18.25 9.45 17.7 6.7 17.15 6.15 14.85 5.75 13.1 6.3 12.35" fill="#ffffff" fill-opacity="0.0" fill-rule="evenodd" stroke="none"/>
    <path d="M22.2 12.35 L22.1 5.45 Q19.95 7.2 16.95 7.65 15.6 7.85 14.95 10.6 L14.45 14.3 Q14.0 7.95 11.85 7.65 9.55 7.3 7.9 6.3 L6.3 5.3 6.3 12.35" fill="none" stroke="#000000" stroke-linecap="round" stroke-linejoin="miter-clip" stroke-miterlimit="10.0" stroke-width="1.0"/>
    <path d="M6.3 12.35 L8.05 13.55 Q10.6 14.8 14.45 14.9 19.15 14.8 21.05 13.55 L22.2 12.35 Z" fill="none" stroke="#000000" stroke-linecap="round" stroke-linejoin="round" stroke-opacity="0.4" stroke-width="1.0"/>
  </g>
</svg>
