<?xml version="1.0" encoding="UTF-8" standalone="no"?>
<svg xmlns:xlink="http://www.w3.org/1999/xlink" height="61.85px" width="26.75px" xmlns="http://www.w3.org/2000/svg">
  <g transform="matrix(1.0, 0.0, 0.0, 1.0, -6.45, 0.8)">
    <path d="M23.6 37.5 L24.1 30.45 Q24.25 29.05 23.9 27.35 L23.2 23.55 Q22.9 21.6 23.1 17.85 L23.3 14.5 Q24.05 11.75 26.75 9.5 29.35 7.25 29.9 8.7 30.3 9.9 30.9 16.9 L31.55 25.9 32.0 33.3 32.2 36.8 29.6 37.25 26.6 38.1 24.55 37.95 23.6 37.5 24.55 37.95 26.6 38.1 29.6 37.25 32.2 36.8 32.25 38.35 32.25 38.6 32.3 39.2 32.3 40.35 32.3 41.0 32.3 41.2 Q32.35 43.65 32.7 47.6 32.7 48.6 31.7 47.6 L31.45 42.1 Q31.45 41.65 31.2 42.95 L31.0 44.55 30.8 48.15 Q29.9 48.7 30.0 48.15 30.1 47.6 29.4 42.25 L29.3 48.45 28.15 49.0 28.25 42.25 Q28.25 41.95 27.8 42.25 L27.35 42.55 27.35 48.85 27.0 49.15 26.45 49.15 Q26.25 49.15 26.4 46.5 L26.5 43.55 26.25 43.05 26.05 42.85 25.85 49.3 25.15 49.45 25.25 43.4 24.45 43.1 24.4 43.85 24.45 45.35 24.6 49.6 23.55 49.6 Q24.1 47.0 23.65 44.55 23.45 43.5 23.5 41.2 L23.55 39.2 23.55 38.95 23.6 37.5 M28.65 24.7 L28.65 23.0 28.65 17.5 Q28.6 15.8 28.0 13.9 L27.4 12.35 28.0 13.9 Q28.6 15.8 28.65 17.5 L28.65 23.0 28.65 24.7 28.65 28.0 28.65 34.65 28.65 28.0 28.65 24.7 27.7 18.1 27.7 17.75 27.7 18.1 28.65 24.7 M25.35 34.5 L26.4 26.45 25.7 23.15 24.75 19.55 25.6 25.3 Q25.85 27.45 25.35 34.5 M14.4 13.05 L14.9 12.0 15.5 10.9 14.9 12.0 14.4 13.05 M12.05 37.15 L11.65 29.45 11.1 21.4 11.15 19.1 Q11.3 15.95 11.75 14.2 12.1 12.65 13.5 10.35 L14.75 8.3 13.5 10.35 Q12.1 12.65 11.75 14.2 11.3 15.95 11.15 19.1 L11.1 21.4 11.65 29.45 12.05 37.15 M7.35 49.25 L7.6 46.6 Q7.95 42.25 8.7 40.1 9.5 37.6 9.35 23.35 L9.3 21.4 9.25 21.05 Q9.15 18.05 9.65 14.85 10.75 8.25 12.25 4.05 12.65 2.9 13.9 5.65 15.8 9.95 16.75 11.2 18.1 13.0 17.85 14.7 L17.15 18.4 16.85 21.4 Q16.1 27.75 16.05 30.45 L16.5 37.9 16.95 46.05 Q16.95 48.85 17.2 50.85 L17.25 51.15 17.35 51.5 17.6 53.25 Q17.75 56.2 18.7 60.1 L17.65 60.2 Q17.1 60.05 16.65 53.6 L16.4 60.3 15.15 59.8 15.15 53.7 14.9 53.55 14.35 53.6 Q14.05 53.75 14.1 57.05 L14.2 60.3 13.0 60.2 12.8 57.85 12.55 60.3 12.4 60.05 12.2 59.45 12.0 58.55 12.0 59.8 10.9 60.3 10.85 60.3 Q10.65 60.25 10.35 55.3 L9.8 53.6 9.45 59.65 8.7 59.05 Q8.45 58.7 9.05 52.75 L8.75 52.85 8.25 53.35 Q8.05 53.65 7.75 56.6 L7.55 59.45 7.1 59.05 6.95 57.65 7.0 55.2 7.25 50.35 8.2 50.6 10.5 51.0 12.6 51.05 14.1 50.9 17.25 51.15 14.1 50.9 12.6 51.05 10.5 51.0 8.2 50.6 7.25 50.35 7.35 49.25 9.1 49.5 12.0 49.65 14.65 49.25 16.8 49.5 14.65 49.25 12.0 49.65 9.1 49.5 7.35 49.25 M12.3 48.6 L13.8 41.0 13.7 35.55 13.45 30.4 Q13.35 29.75 13.7 26.05 14.0 23.1 13.65 23.8 L13.3 25.05 12.75 30.35 12.85 36.8 12.9 37.1 13.1 40.5 12.55 45.6 12.55 45.8 12.3 48.6 M23.55 38.95 L24.1 39.35 25.9 39.4 26.7 39.2 29.7 38.6 30.5 38.45 32.25 38.35 30.5 38.45 29.7 38.6 26.7 39.2 25.9 39.4 24.1 39.35 23.55 38.95 M12.0 57.55 L12.0 58.55 12.0 57.55 12.2 53.35 12.0 53.25 12.0 57.55 M12.8 57.85 L12.8 53.7 12.8 57.85" fill="#ffffff" fill-opacity="0.0" fill-rule="evenodd" stroke="none"/>
    <path d="M24.75 19.55 L25.7 23.15 26.4 26.45 25.35 34.5 Q25.85 27.45 25.6 25.3 L24.75 19.55 M13.3 25.05 L13.65 23.8 Q14.0 23.1 13.7 26.05 13.35 29.75 13.45 30.4 L13.7 35.55 13.8 41.0 12.3 48.6 12.55 45.8 12.55 45.6 13.1 40.5 12.9 37.1 12.85 36.8 12.75 30.35 13.3 25.05" fill="#000000" fill-opacity="0.14901961" fill-rule="evenodd" stroke="none"/>
    <path d="M23.6 37.5 L24.55 37.95 26.6 38.1 29.6 37.25 32.2 36.8 M7.35 49.25 L9.1 49.5 12.0 49.65 14.65 49.25 16.8 49.5" fill="none" stroke="#000000" stroke-linecap="round" stroke-linejoin="round" stroke-opacity="0.4" stroke-width="1.0"/>
    <path d="M32.2 36.8 L32.0 33.3 31.55 25.9 30.9 16.9 Q30.3 9.9 29.9 8.7 29.35 7.25 26.75 9.5 24.05 11.75 23.3 14.5 L23.1 17.85 Q22.9 21.6 23.2 23.55 L23.9 27.35 Q24.25 29.05 24.1 30.45 L23.6 37.5 23.55 38.95 23.55 39.2 23.5 41.2 Q23.45 43.5 23.65 44.55 24.1 47.0 23.55 49.6 M32.2 36.8 L32.25 38.35 32.25 38.6 32.3 39.2 32.3 40.35 32.3 41.0 32.3 41.2 Q32.35 43.65 32.7 47.6 32.7 48.6 31.7 47.6 M17.25 51.15 L17.2 50.85 Q16.95 48.85 16.95 46.05 L16.5 37.9 16.05 30.45 Q16.1 27.75 16.85 21.4 L17.15 18.4 17.85 14.7 Q18.1 13.0 16.75 11.2 15.8 9.95 13.9 5.65 12.65 2.9 12.25 4.05 10.75 8.25 9.65 14.85 9.15 18.05 9.25 21.05 L9.3 21.4 9.35 23.35 Q9.5 37.6 8.7 40.1 7.95 42.25 7.6 46.6 L7.35 49.25 7.25 50.35 7.0 55.2 6.95 57.65 7.1 59.05 M18.7 60.1 Q17.75 56.2 17.6 53.25 L17.35 51.5" fill="none" stroke="#000000" stroke-linecap="round" stroke-linejoin="miter-clip" stroke-miterlimit="10.0" stroke-width="1.0"/>
    <path d="M28.65 34.65 L28.65 28.0 28.65 24.7 27.7 18.1 27.7 17.75 M27.4 12.35 L28.0 13.9 Q28.6 15.8 28.65 17.5 L28.65 23.0 28.65 24.7 M25.35 34.5 L26.4 26.45 25.7 23.15 24.75 19.55 M14.75 8.3 L13.5 10.35 Q12.1 12.65 11.75 14.2 11.3 15.95 11.15 19.1 L11.1 21.4 11.65 29.45 12.05 37.15 M15.5 10.9 L14.9 12.0 14.4 13.05 M13.3 25.05 L13.65 23.8 Q14.0 23.1 13.7 26.05 13.35 29.75 13.45 30.4 L13.7 35.55 13.8 41.0 12.3 48.6 M32.25 38.35 L30.5 38.45 29.7 38.6 26.7 39.2 25.9 39.4 24.1 39.35 23.55 38.95 M17.25 51.15 L14.1 50.9 12.6 51.05 10.5 51.0 8.2 50.6 7.25 50.35" fill="none" stroke="#000000" stroke-linecap="round" stroke-linejoin="round" stroke-opacity="0.24705882" stroke-width="1.0"/>
    <path d="M17.35 51.5 L17.25 51.15" fill="none" stroke="#000000" stroke-linecap="round" stroke-linejoin="miter-clip" stroke-miterlimit="10.0" stroke-opacity="0.24705882" stroke-width="1.0"/>
    <path d="M31.7 47.6 L31.45 42.1 Q31.45 41.65 31.2 42.95 L31.0 44.55 30.8 48.15 Q29.9 48.7 30.0 48.15 30.1 47.6 29.4 42.25 L29.3 48.45 28.15 49.0 28.25 42.25 Q28.25 41.95 27.8 42.25 L27.35 42.55 27.35 48.85 27.0 49.15 26.45 49.15 Q26.25 49.15 26.4 46.5 L26.5 43.55 26.25 43.05 26.05 42.85 25.85 49.3 25.15 49.45 25.25 43.4 24.45 43.1 24.4 43.85 24.45 45.35 24.6 49.6 23.55 49.6 M7.1 59.05 L7.55 59.45 7.75 56.6 Q8.05 53.65 8.25 53.35 L8.75 52.85 9.05 52.75 Q8.45 58.7 8.7 59.05 L9.45 59.65 9.8 53.6 10.35 55.3 Q10.65 60.25 10.85 60.3 L10.9 60.3 12.0 59.8 12.0 58.55 12.0 57.55 12.0 53.25 M18.7 60.1 L17.65 60.2 Q17.1 60.05 16.65 53.6 L16.4 60.3 15.15 59.8 15.15 53.7 14.9 53.55 14.35 53.6 Q14.05 53.75 14.1 57.05 L14.2 60.3 13.0 60.2 12.8 57.85 12.55 60.3 12.4 60.05 12.2 59.45 12.0 58.55 M12.8 53.7 L12.8 57.85" fill="none" stroke="#000000" stroke-linecap="round" stroke-linejoin="miter-clip" stroke-miterlimit="10.0" stroke-opacity="0.4" stroke-width="1.0"/>
  </g>
</svg>
