<?xml version="1.0" encoding="UTF-8" standalone="no"?>
<svg xmlns:xlink="http://www.w3.org/1999/xlink" height="15.9px" width="22.5px" xmlns="http://www.w3.org/2000/svg">
  <g transform="matrix(1.0, 0.0, 0.0, 1.0, 11.15, 7.8)">
    <path d="M3.95 -6.5 L4.05 -6.4 4.1 -6.35 4.2 -6.25 4.4 -5.95 4.6 -5.7 4.75 -5.45 4.9 -6.05 5.5 -6.8 5.95 -7.1 6.35 -7.25 6.5 -7.3 Q7.55 -7.5 8.4 -6.6 L9.1 -5.6 Q9.15 -5.4 9.4 -5.5 L10.45 -4.25 Q11.25 -2.9 9.25 -1.15 L9.95 -0.8 10.5 0.4 10.55 2.05 Q10.4 2.85 9.3 3.4 L9.05 4.7 Q8.65 5.65 7.5 6.25 6.35 6.85 4.75 6.25 L4.2 6.9 3.9 7.1 Q3.25 7.55 2.45 7.4 1.4 7.25 0.7 6.35 L0.45 5.95 Q0.05 6.85 -0.75 6.95 L-2.0 6.65 -3.2 7.35 -4.2 7.25 -5.15 6.6 -5.9 5.4 -6.9 5.65 Q-7.6 5.75 -8.3 4.9 L-9.15 3.5 -9.35 2.4 -9.4 1.15 Q-10.25 0.45 -10.45 -0.75 -10.65 -1.9 -10.2 -2.8 L-9.45 -3.6 Q-9.6 -4.65 -9.25 -5.55 L-9.15 -5.8 -8.45 -6.6 -8.05 -6.85 -7.9 -6.9 -7.5 -7.05 -7.2 -7.05 -6.65 -7.0 -5.65 -6.35 -5.15 -5.7 -4.6 -6.05 -4.2 -6.2 -4.0 -6.25 -3.85 -6.25 Q-2.9 -6.4 -2.15 -5.6 L-1.65 -4.95 Q-1.3 -5.35 -0.75 -5.45 L0.3 -5.25 0.55 -5.85 Q1.1 -6.9 2.1 -7.1 3.1 -7.25 3.95 -6.5" fill="#ffffff" fill-opacity="0.0" fill-rule="evenodd" stroke="none"/>
    <path d="M-3.85 -6.25 Q-2.9 -6.4 -2.15 -5.6 L-1.65 -4.95 Q-1.3 -5.35 -0.75 -5.45 L0.3 -5.25 0.55 -5.85 Q1.1 -6.9 2.1 -7.1 3.1 -7.25 3.95 -6.5" fill="none" stroke="#000000" stroke-linecap="square" stroke-linejoin="round" stroke-opacity="0.4" stroke-width="1.0"/>
    <path d="M9.4 -5.5 L10.45 -4.25 Q11.25 -2.9 9.25 -1.15 L9.95 -0.8 10.5 0.4 10.55 2.05 Q10.4 2.85 9.3 3.4 L9.05 4.7 Q8.65 5.65 7.5 6.25 6.35 6.85 4.75 6.25 L4.2 6.9 3.9 7.1 Q3.25 7.55 2.45 7.4 1.4 7.25 0.7 6.35 L0.45 5.95 Q0.05 6.85 -0.75 6.95 L-2.0 6.65 -3.2 7.35 -4.2 7.25 -5.15 6.6 -5.9 5.4 -6.9 5.65 Q-7.6 5.75 -8.3 4.9 L-9.15 3.5 -9.35 2.4 -9.4 1.15 Q-10.25 0.45 -10.45 -0.75 -10.65 -1.9 -10.2 -2.8 L-9.45 -3.6 Q-9.6 -4.65 -9.25 -5.55" fill="none" stroke="#000000" stroke-linecap="square" stroke-linejoin="round" stroke-width="1.0"/>
  </g>
</svg>
