<?xml version="1.0" encoding="UTF-8" standalone="no"?>
<svg xmlns:xlink="http://www.w3.org/1999/xlink" height="7.7px" width="25.0px" xmlns="http://www.w3.org/2000/svg">
  <g transform="matrix(1.0, 0.0, 0.0, 1.0, 0.5, 0.5)">
    <path d="M23.8 6.7 L23.75 6.7 20.45 6.2 14.85 5.9 10.65 5.85 10.3 5.85 0.8 6.0 Q0.05 6.05 0.0 5.7 L0.4 4.95 Q1.2 3.95 1.8 3.7 L1.9 3.65 Q1.95 3.4 2.35 3.0 3.15 2.15 3.75 1.85 5.7 0.7 8.7 0.25 15.1 -0.6 20.05 1.55 22.05 2.45 22.3 3.6 L22.35 4.1 Q23.8 4.85 23.95 5.7 24.1 6.7 23.8 6.7 M1.9 3.65 Q3.85 2.75 7.2 2.3 10.65 1.9 14.35 2.25 18.4 2.55 21.3 3.65 L22.35 4.1 21.3 3.65 Q18.4 2.55 14.35 2.25 10.65 1.9 7.2 2.3 3.85 2.75 1.9 3.65" fill="#ffffff" fill-opacity="0.0" fill-rule="evenodd" stroke="none"/>
    <path d="M0.0 5.7 L0.4 4.95 Q1.2 3.95 1.8 3.7 L1.9 3.65 Q1.95 3.4 2.35 3.0 3.15 2.15 3.75 1.85 5.7 0.7 8.7 0.25 15.1 -0.6 20.05 1.55 22.05 2.45 22.3 3.6 L22.35 4.1 Q23.8 4.85 23.95 5.7 24.1 6.7 23.8 6.7" fill="none" stroke="#000000" stroke-linecap="round" stroke-linejoin="round" stroke-width="1.0"/>
    <path d="M22.35 4.1 L21.3 3.65 Q18.4 2.55 14.35 2.25 10.65 1.9 7.2 2.3 3.85 2.75 1.9 3.65" fill="none" stroke="#000000" stroke-linecap="round" stroke-linejoin="round" stroke-opacity="0.4" stroke-width="1.0"/>
  </g>
</svg>
