<?xml version="1.0" encoding="UTF-8" standalone="no"?>
<svg xmlns:xlink="http://www.w3.org/1999/xlink" height="33.9px" width="17.75px" xmlns="http://www.w3.org/2000/svg">
  <g transform="matrix(1.0, 0.0, 0.0, 1.0, 8.9, 6.6)">
    <path d="M0.0 -1.9 Q4.05 -2.6 8.0 -5.4 L5.45 3.05 Q3.05 0.25 0.0 -1.9 3.05 0.25 5.45 3.05 L-0.05 27.3 -5.45 3.05 -8.0 -5.4 Q-4.05 -2.6 0.0 -1.9 -3.05 0.25 -5.45 3.05 -3.05 0.25 0.0 -1.9" fill="#ffffff" fill-opacity="0.0" fill-rule="evenodd" stroke="none"/>
    <path d="M5.45 3.05 L8.0 -5.4 Q4.05 -2.6 0.0 -1.9 3.05 0.25 5.45 3.05 M-5.45 3.05 L-8.0 -5.4 Q-4.05 -2.6 0.0 -1.9 -3.05 0.25 -5.45 3.05" fill="none" stroke="#000000" stroke-linecap="square" stroke-linejoin="miter-clip" stroke-miterlimit="3.0" stroke-opacity="0.6" stroke-width="1.0"/>
  </g>
</svg>
