<?xml version="1.0" encoding="UTF-8" standalone="no"?>
<svg xmlns:xlink="http://www.w3.org/1999/xlink" height="42.2px" width="26.5px" xmlns="http://www.w3.org/2000/svg">
  <g transform="matrix(1.0, 0.0, 0.0, 1.0, 13.45, 24.1)">
    <path d="M0.2 -0.35 L8.55 -23.25 Q10.6 -23.45 12.55 -22.45 L2.25 4.85 6.7 16.15 3.45 17.55 0.35 9.9 -2.6 17.6 -5.85 16.2 -1.7 4.9 -12.95 -22.75 Q-10.9 -23.75 -8.95 -23.55 L0.2 -0.35 2.25 4.85 0.2 -0.35 M0.35 9.9 L-1.7 4.9 0.35 9.9" fill="#ffffff" fill-opacity="0.0" fill-rule="evenodd" stroke="none"/>
    <path d="M0.2 -0.35 L8.55 -23.25 Q10.6 -23.45 12.55 -22.45 L2.25 4.85 6.7 16.15 3.45 17.55 0.35 9.9 -2.6 17.6 -5.85 16.2 -1.7 4.9 -12.95 -22.75 Q-10.9 -23.75 -8.95 -23.55 L0.2 -0.35 2.25 4.85 M-1.7 4.9 L0.35 9.9" fill="none" stroke="#000000" stroke-linecap="round" stroke-linejoin="round" stroke-opacity="0.6" stroke-width="1.0"/>
  </g>
</svg>
