<?xml version="1.0" encoding="UTF-8" standalone="no"?>
<svg xmlns:xlink="http://www.w3.org/1999/xlink" height="18.9px" width="12.5px" xmlns="http://www.w3.org/2000/svg">
  <g transform="matrix(1.0, 0.0, 0.0, 1.0, 6.35, 10.85)">
    <path d="M5.5 -9.85 Q5.95 -6.55 5.0 -3.6 L3.7 -0.35 3.3 -2.45 Q1.35 4.6 -0.15 6.15 0.6 4.8 -0.1 3.55 L-2.2 5.3 Q-3.4 6.15 -4.3 7.55 -4.55 5.55 -4.6 0.85 -4.6 -3.7 -4.85 -4.75 L-5.85 -2.85 -5.45 -9.85 Q-0.35 -11.85 5.5 -9.85" fill="#ffffff" fill-opacity="0.0" fill-rule="evenodd" stroke="none"/>
    <path d="M3.7 -0.35 L5.0 -3.6 Q5.95 -6.55 5.5 -9.85 M-5.45 -9.85 L-5.85 -2.85 M-4.85 -4.75 Q-4.6 -3.7 -4.6 0.85 -4.55 5.55 -4.3 7.55 -3.4 6.15 -2.2 5.3 L-0.1 3.55 M-0.15 6.15 Q1.35 4.6 3.3 -2.45" fill="none" stroke="#000000" stroke-linecap="round" stroke-linejoin="round" stroke-width="1.0"/>
    <path d="M-5.85 -2.85 L-4.85 -4.75 M3.3 -2.45 L3.7 -0.35" fill="none" stroke="#000000" stroke-linecap="round" stroke-linejoin="round" stroke-opacity="0.4" stroke-width="1.0"/>
    <path d="M-0.1 3.55 Q0.6 4.8 -0.15 6.15" fill="none" stroke="#000000" stroke-linecap="square" stroke-linejoin="miter-clip" stroke-miterlimit="5.0" stroke-opacity="0.4" stroke-width="1.0"/>
  </g>
</svg>
