<?xml version="1.0" encoding="UTF-8" standalone="no"?>
<svg xmlns:xlink="http://www.w3.org/1999/xlink" height="13.25px" width="26.6px" xmlns="http://www.w3.org/2000/svg">
  <g transform="matrix(1.0, 0.0, 0.0, 1.0, 13.15, 6.15)">
    <path d="M8.75 -5.6 L8.8 -5.55 Q11.45 -4.65 12.95 -3.15 L12.55 -0.4 Q12.0 1.55 11.0 2.55 L9.25 4.3 Q8.65 4.85 6.45 5.85 4.5 6.7 4.05 6.6 L3.35 6.05 1.7 3.55 Q0.2 0.9 0.0 0.0 L0.05 -2.2 0.0 0.0 Q0.2 0.9 1.7 3.55 L3.35 6.05 Q0.05 6.9 -3.25 5.9 -3.85 6.4 -4.3 6.4 L-6.3 5.9 -8.8 4.55 -9.65 3.9 -10.35 3.1 Q-11.8 1.2 -12.35 -1.0 -12.7 -2.35 -12.65 -3.25 L-10.35 -4.8 -8.6 -5.55 -8.45 -5.65 Q-7.65 -3.3 0.05 -2.2 7.95 -3.3 8.75 -5.6 M-3.25 5.9 Q-2.5 5.2 -1.6 3.55 -0.1 0.9 0.0 0.0 -0.1 0.9 -1.6 3.55 -2.5 5.2 -3.25 5.9" fill="#ffffff" fill-opacity="0.0" fill-rule="evenodd" stroke="none"/>
    <path d="M12.95 -3.15 Q11.45 -4.65 8.8 -5.55 L8.75 -5.6 M-12.65 -3.25 L-10.35 -4.8 -8.6 -5.55 -8.45 -5.65" fill="none" stroke="#000000" stroke-linecap="round" stroke-linejoin="round" stroke-width="1.0"/>
    <path d="M8.75 -5.6 Q7.95 -3.3 0.05 -2.2 L0.0 0.0 Q0.2 0.9 1.7 3.55 L3.35 6.05 4.05 6.6 Q4.5 6.7 6.45 5.85 8.65 4.85 9.25 4.3 L11.0 2.55 Q12.0 1.55 12.55 -0.4 L12.95 -3.15 M-8.45 -5.65 Q-7.65 -3.3 0.05 -2.2 M-3.25 5.9 Q-3.85 6.4 -4.3 6.4 L-6.3 5.9 -8.8 4.55 -9.65 3.9 -10.35 3.1 Q-11.8 1.2 -12.35 -1.0 -12.7 -2.35 -12.65 -3.25 M0.0 0.0 Q-0.1 0.9 -1.6 3.55 -2.5 5.2 -3.25 5.9" fill="none" stroke="#000000" stroke-linecap="round" stroke-linejoin="round" stroke-opacity="0.4" stroke-width="1.0"/>
  </g>
</svg>
