<?xml version="1.0" encoding="UTF-8" standalone="no"?>
<svg xmlns:xlink="http://www.w3.org/1999/xlink" height="45.75px" width="20.25px" xmlns="http://www.w3.org/2000/svg">
  <g transform="matrix(1.0, 0.0, 0.0, 1.0, 9.55, 12.6)">
    <path d="M-8.2 -7.1 Q-8.35 -8.6 -9.05 -10.95 -8.7 -11.35 -8.5 -11.8 L-7.15 -12.1 9.95 -12.1 Q10.15 -11.6 9.95 -10.2 L9.7 -6.55 Q9.5 -5.2 9.05 -4.95 L10.2 -4.25 Q8.3 -2.6 7.15 -3.0 L6.9 -2.15 7.8 -0.8 6.2 0.5 5.85 1.95 8.35 3.75 8.5 5.6 Q5.6 9.8 4.2 10.9 L7.3 15.35 8.2 17.05 8.25 17.2 Q8.55 19.0 7.55 20.5 L5.95 22.5 4.75 22.3 Q3.75 22.25 2.25 23.3 L2.55 24.5 Q3.45 26.95 4.65 28.8 L5.95 30.55 Q4.7 31.9 2.45 32.65 L1.45 32.3 1.3 31.4 -2.8 30.7 Q-2.15 29.7 -2.3 29.5 -4.0 29.5 -5.15 28.8 -6.35 28.05 -6.35 27.0 L-6.75 26.15 -6.9 25.25 -5.5 22.8 Q-4.0 20.25 -3.45 16.7 L-4.05 16.2 -4.3 15.0 Q-5.25 15.0 -5.9 14.1 -6.6 13.2 -6.6 11.95 L-7.1 12.15 Q-8.2 10.8 -8.2 9.9 L-8.15 9.4 -8.05 9.3 -7.3 7.8 Q-6.5 6.15 -4.95 4.15 L-5.05 3.6 -5.95 1.25 -9.0 -4.3 -8.8 -5.0 -8.3 -5.2 -8.2 -7.1 M6.2 0.5 L5.65 0.95 3.4 -1.8 2.85 -2.65 2.35 -3.5 2.0 -4.1 1.55 -4.8 0.95 -5.85 -0.25 -8.0 -1.15 -9.7 Q-5.8 -7.0 -7.25 -5.95 L-8.3 -5.2 -7.25 -5.95 Q-5.8 -7.0 -1.15 -9.7 L-0.25 -8.0 0.95 -5.85 1.3 -6.4 1.95 -7.25 3.0 -8.8 9.05 -4.95 3.0 -8.8 1.95 -7.25 1.3 -6.4 0.95 -5.85 1.55 -4.8 2.0 -4.1 2.35 -3.5 2.85 -2.65 3.4 -1.8 5.65 0.95 6.2 0.5 M2.35 -3.5 L-2.55 1.7 Q-3.2 2.25 -3.7 2.2 L-2.65 0.75 2.0 -4.1 -2.65 0.75 -3.7 2.2 Q-3.2 2.25 -2.55 1.7 L2.35 -3.5 M-5.5 -4.15 L-0.25 -8.0 -5.5 -4.15 0.45 -6.2 -5.5 -4.15 -6.95 -2.65 -5.5 -4.15 M1.95 -7.25 L3.75 -5.4 5.45 -3.45 6.55 -1.85 5.45 -3.45 1.3 -6.4 5.45 -3.45 3.75 -5.4 1.95 -7.25 M-2.6 3.8 L-1.55 2.5 -1.6 3.75 -1.75 3.75 -1.6 3.75 -1.55 2.5 -2.6 3.8 -4.95 4.15 -2.6 3.8 -5.2 8.15 -2.6 3.8 M-2.3 6.2 L-2.75 8.05 -5.2 8.15 -2.75 8.05 -2.3 6.2 -1.75 3.75 -2.3 6.2 -2.15 5.75 -2.1 5.7 -1.95 8.0 -2.1 5.7 -2.15 5.75 -2.3 6.2 M-5.5 8.05 L-5.2 8.15 -5.5 8.05 -6.6 11.95 -5.5 8.05 -6.55 8.05 Q-7.2 8.15 -7.75 8.85 L-8.05 9.3 -7.75 8.85 Q-7.2 8.15 -6.55 8.05 L-5.5 8.05 M5.65 0.95 L5.6 1.0 5.0 1.35 Q4.05 1.85 2.9 2.7 L2.25 3.3 Q0.85 4.1 -0.45 4.05 L-1.75 3.75 -0.45 4.05 Q0.85 4.1 2.25 3.3 L2.9 2.7 Q4.05 1.85 5.0 1.35 L5.6 1.0 5.65 0.95 M-1.95 8.0 Q-0.65 7.25 -0.45 6.8 L0.15 6.0 -0.45 6.8 Q-0.65 7.25 -1.95 8.0 L-1.4 17.35 -1.95 8.0 M1.05 18.75 L-0.65 18.45 -2.05 18.4 -2.0 18.3 -1.4 17.35 -2.0 18.3 -2.05 18.4 -0.65 18.45 1.05 18.75 0.7 14.7 Q-0.9 14.7 -1.0 14.15 L-0.5 13.15 0.15 6.0 -0.5 13.15 -1.0 14.15 Q-0.9 14.7 0.7 14.7 L1.05 18.75 2.1 19.8 Q2.85 20.3 3.0 21.0 L3.2 21.6 3.0 21.0 Q2.85 20.3 2.1 19.8 L1.05 18.75 M-0.45 4.05 L0.3 4.6 0.15 6.0 0.3 4.6 -0.45 4.05 M-0.5 13.15 L-0.45 13.4 0.55 13.35 0.7 14.7 0.55 13.35 -0.45 13.4 -0.5 13.15 M2.25 23.3 L0.9 23.25 -0.7 23.45 -1.3 21.3 -1.65 24.35 Q-2.3 25.0 -2.8 25.25 L-3.05 25.05 Q-2.9 24.15 -3.1 24.05 -3.6 24.3 -4.0 25.25 -3.6 24.3 -3.1 24.05 -2.9 24.15 -3.05 25.05 L-2.8 25.25 Q-2.3 25.0 -1.65 24.35 L-1.3 21.3 -0.7 23.45 0.9 23.25 2.25 23.3 M-1.4 17.35 L-2.0 17.05 -3.45 16.7 -2.0 17.05 -1.4 17.35 M-2.75 8.05 L-4.3 15.0 -2.75 8.05 M-0.25 22.6 L-0.65 18.45 -0.25 22.6 M-4.0 25.25 Q-4.95 25.25 -5.65 25.8 -6.35 26.3 -6.35 27.0 -6.35 26.3 -5.65 25.8 -4.95 25.25 -4.0 25.25 L-2.0 17.05 -4.0 25.25 M-1.65 24.35 L-2.3 29.5 -1.65 24.35 M4.75 3.85 Q4.45 3.85 4.25 4.0 L4.0 4.25 3.2 3.15 3.2 3.2 3.7 5.0 Q3.5 5.65 2.1 5.25 1.4 5.25 0.3 4.6 1.4 5.25 2.1 5.25 3.5 5.65 3.7 5.0 L3.2 3.2 3.2 3.15 4.0 4.25 4.25 4.0 Q4.45 3.85 4.75 3.85 5.0 3.95 5.25 5.1 L5.45 5.2 Q7.05 3.95 8.35 3.75 7.05 3.95 5.45 5.2 L5.25 5.1 Q5.0 3.95 4.75 3.85 L2.9 2.7 4.75 3.85 M5.1 1.4 L5.6 1.0 5.1 1.4 5.85 1.95 5.1 1.4 5.0 1.35 5.1 1.4 M2.75 11.15 L2.1 5.25 1.65 12.1 0.85 9.05 0.15 7.0 0.55 13.35 0.15 7.0 0.85 9.05 1.65 12.1 2.1 5.25 2.75 11.15 M2.5 11.45 L2.8 12.2 2.5 11.45 1.05 14.6 2.5 11.45 M2.8 12.2 Q3.4 12.2 3.8 11.85 4.2 11.45 4.2 10.9 4.2 11.45 3.8 11.85 3.4 12.2 2.8 12.2 L3.65 14.95 3.8 15.8 3.65 14.95 2.8 12.2 M8.25 17.2 L6.7 16.15 Q6.3 15.8 5.75 15.8 L3.8 15.8 5.75 15.8 Q6.3 15.8 6.7 16.15 L8.25 17.2 M5.75 6.9 L4.0 4.25 5.75 6.9 M3.7 5.0 L5.2 9.2 3.7 5.0 M1.55 -4.8 L-5.95 1.25 1.55 -4.8 M1.3 31.4 L-0.7 23.45 1.3 31.4 M-1.3 3.55 Q0.5 -0.1 2.85 -2.65 0.5 -0.1 -1.3 3.55 M2.4 2.35 L3.4 -1.8 2.4 2.35 M2.4 15.0 Q2.95 17.7 3.2 21.6 2.95 17.7 2.4 15.0" fill="#ffffff" fill-opacity="0.0" fill-rule="evenodd" stroke="none"/>
    <path d="M9.7 -6.55 Q9.5 -5.2 9.05 -4.95 L10.2 -4.25 Q8.3 -2.6 7.15 -3.0 L6.9 -2.15 7.8 -0.8 6.2 0.5 5.85 1.95 8.35 3.75 8.5 5.6 Q5.6 9.8 4.2 10.9 L7.3 15.35 8.2 17.05 8.25 17.2 Q8.55 19.0 7.55 20.5 L5.95 22.5 4.75 22.3 Q3.75 22.25 2.25 23.3 L2.55 24.5 Q3.45 26.95 4.65 28.8 L5.95 30.55 Q4.7 31.9 2.45 32.65 L1.45 32.3 1.3 31.4 -2.8 30.7 Q-2.15 29.7 -2.3 29.5 -4.0 29.5 -5.15 28.8 -6.35 28.05 -6.35 27.0 L-6.75 26.15 -6.9 25.25 -5.5 22.8 Q-4.0 20.25 -3.45 16.7 L-4.05 16.2 -4.3 15.0 Q-5.25 15.0 -5.9 14.1 -6.6 13.2 -6.6 11.95 L-7.1 12.15 Q-8.2 10.8 -8.2 9.9 L-8.15 9.4 -8.05 9.3 -7.3 7.8 Q-6.5 6.15 -4.95 4.15 L-5.05 3.6 -5.95 1.25 -9.0 -4.3 -8.8 -5.0 -8.3 -5.2 -8.2 -7.1 M-8.3 -5.2 L-7.25 -5.95 Q-5.8 -7.0 -1.15 -9.7 L-0.25 -8.0 0.95 -5.85 1.3 -6.4 1.95 -7.25 3.0 -8.8 9.05 -4.95 M0.95 -5.85 L1.55 -4.8 2.0 -4.1 2.35 -3.5 2.85 -2.65 3.4 -1.8 5.65 0.95 6.2 0.5 M-2.6 3.8 L-4.95 4.15 M-1.75 3.75 L-1.6 3.75 -1.55 2.5 -2.6 3.8 M-5.2 8.15 L-2.75 8.05 -2.3 6.2 -2.15 5.75 -2.1 5.7 -1.95 8.0 Q-0.65 7.25 -0.45 6.8 L0.15 6.0 0.3 4.6 -0.45 4.05 Q0.85 4.1 2.25 3.3 L2.9 2.7 Q4.05 1.85 5.0 1.35 L5.6 1.0 5.65 0.95 M-1.75 3.75 L-0.45 4.05 M-5.2 8.15 L-5.5 8.05 -6.55 8.05 Q-7.2 8.15 -7.75 8.85 L-8.05 9.3 M-1.4 17.35 L-2.0 18.3 -2.05 18.4 -0.65 18.45 1.05 18.75 2.1 19.8 Q2.85 20.3 3.0 21.0 L3.2 21.6 M-3.45 16.7 L-2.0 17.05 -1.4 17.35 M-4.0 25.25 Q-3.6 24.3 -3.1 24.05 -2.9 24.15 -3.05 25.05 L-2.8 25.25 Q-2.3 25.0 -1.65 24.35 L-1.3 21.3 -0.7 23.45 0.9 23.25 2.25 23.3 M-6.35 27.0 Q-6.35 26.3 -5.65 25.8 -4.95 25.25 -4.0 25.25 M5.85 1.95 L5.1 1.4 5.0 1.35 M5.6 1.0 L5.1 1.4 M4.75 3.85 Q5.0 3.95 5.25 5.1 L5.45 5.2 Q7.05 3.95 8.35 3.75 M0.3 4.6 Q1.4 5.25 2.1 5.25 3.5 5.65 3.7 5.0 L3.2 3.2 3.2 3.15 4.0 4.25 4.25 4.0 Q4.45 3.85 4.75 3.85 M2.8 12.2 L2.5 11.45 M4.2 10.9 Q4.2 11.45 3.8 11.85 3.4 12.2 2.8 12.2 M3.8 15.8 L5.75 15.8 Q6.3 15.8 6.7 16.15 L8.25 17.2" fill="none" stroke="#000000" stroke-linecap="round" stroke-linejoin="round" stroke-opacity="0.4" stroke-width="1.0"/>
    <path d="M-8.2 -7.1 Q-8.35 -8.6 -9.05 -10.95 -8.7 -11.35 -8.5 -11.8 L-7.15 -12.1 9.95 -12.1 Q10.15 -11.6 9.95 -10.2 L9.7 -6.55" fill="none" stroke="#000000" stroke-linecap="round" stroke-linejoin="round" stroke-opacity="0.6" stroke-width="1.0"/>
    <path d="M6.55 -1.85 L5.45 -3.45 1.3 -6.4 M5.45 -3.45 L3.75 -5.4 1.95 -7.25 M0.45 -6.2 L-5.5 -4.15 -6.95 -2.65 M-0.25 -8.0 L-5.5 -4.15 M2.0 -4.1 L-2.65 0.75 -3.7 2.2 Q-3.2 2.25 -2.55 1.7 L2.35 -3.5 M-2.6 3.8 L-5.2 8.15 M-2.3 6.2 L-1.75 3.75 M-5.5 8.05 L-6.6 11.95 M-1.95 8.0 L-1.4 17.35 M1.05 18.75 L0.7 14.7 Q-0.9 14.7 -1.0 14.15 L-0.5 13.15 0.15 6.0 M0.7 14.7 L0.55 13.35 -0.45 13.4 -0.5 13.15 M-0.65 18.45 L-0.25 22.6 M-4.3 15.0 L-2.75 8.05 M-4.0 25.25 L-2.0 17.05 M-2.3 29.5 L-1.65 24.35 M4.75 3.85 L2.9 2.7 M0.55 13.35 L0.15 7.0 0.85 9.05 1.65 12.1 2.1 5.25 2.75 11.15 M2.5 11.45 L1.05 14.6 M2.8 12.2 L3.65 14.95 3.8 15.8 M5.2 9.2 L3.7 5.0 M4.0 4.25 L5.75 6.9 M3.2 21.6 Q2.95 17.7 2.4 15.0 M3.4 -1.8 L2.4 2.35 M2.85 -2.65 Q0.5 -0.1 -1.3 3.55 M-0.7 23.45 L1.3 31.4 M-5.95 1.25 L1.55 -4.8" fill="none" stroke="#000000" stroke-linecap="round" stroke-linejoin="round" stroke-opacity="0.14901961" stroke-width="1.0"/>
  </g>
</svg>
