<?xml version="1.0" encoding="UTF-8" standalone="no"?>
<svg xmlns:xlink="http://www.w3.org/1999/xlink" height="15.4px" width="21.05px" xmlns="http://www.w3.org/2000/svg">
  <g transform="matrix(1.0, 0.0, 0.0, 1.0, 9.8, 8.8)">
    <path d="M0.85 -2.65 Q3.65 -3.05 5.35 -4.0 7.45 -5.15 8.9 -7.6 L9.25 -6.75 Q10.65 -2.9 8.75 1.25 7.75 3.3 6.4 4.7 L0.85 -2.65 M-0.3 -2.7 L-5.95 4.7 -8.1 2.25 Q-9.3 0.55 -9.3 -2.95 L-8.8 -6.6 -8.4 -7.6 Q-7.2 -5.55 -4.0 -3.95 -1.25 -2.6 -0.3 -2.7" fill="#ffffff" fill-opacity="0.0" fill-rule="evenodd" stroke="none"/>
    <path d="M9.25 -6.75 L8.9 -7.6 Q7.45 -5.15 5.35 -4.0 3.65 -3.05 0.85 -2.65 M-8.8 -6.6 L-8.4 -7.6 Q-7.2 -5.55 -4.0 -3.95 -1.25 -2.6 -0.3 -2.7" fill="none" stroke="#000000" stroke-linecap="butt" stroke-linejoin="miter-clip" stroke-miterlimit="10.0" stroke-width="1.0"/>
    <path d="M0.85 -2.65 L6.4 4.7 Q7.75 3.3 8.75 1.25 10.65 -2.9 9.25 -6.75 M-0.3 -2.7 L-5.95 4.7 -8.1 2.25 Q-9.3 0.55 -9.3 -2.95 L-8.8 -6.6" fill="none" stroke="#000000" stroke-linecap="butt" stroke-linejoin="miter-clip" stroke-miterlimit="10.0" stroke-opacity="0.6" stroke-width="1.0"/>
  </g>
</svg>
