<?xml version="1.0" encoding="UTF-8" standalone="no"?>
<svg xmlns:xlink="http://www.w3.org/1999/xlink" height="14.15px" width="21.5px" xmlns="http://www.w3.org/2000/svg">
  <g transform="matrix(1.0, 0.0, 0.0, 1.0, 11.25, -10.75)">
    <path d="M5.75 12.6 L7.65 11.25 7.6 14.2 8.6 15.15 9.75 16.1 9.75 16.2 9.2 17.9 7.75 19.55 7.7 19.55 7.3 17.25 6.65 18.6 Q5.0 21.75 4.65 23.0 L4.4 23.05 3.05 21.95 2.35 24.4 Q0.35 20.9 -0.45 20.95 -1.25 21.0 -0.75 20.1 L-0.25 18.6 Q-1.8 20.7 -3.3 20.35 L-3.55 20.3 -5.0 20.25 -5.4 20.35 -4.55 18.6 -5.8 16.7 -7.7 17.95 -7.95 17.0 -7.9 15.6 -7.7 14.4 -9.15 14.65 Q-9.55 13.35 -10.75 13.0 L-10.25 12.3 -9.9 11.3 -8.45 11.65 -7.3 11.55 -5.45 12.7 Q-0.05 11.25 5.75 12.6" fill="#ffffff" fill-opacity="0.0" fill-rule="evenodd" stroke="none"/>
    <path d="M-5.45 12.7 L-7.3 11.55 -8.45 11.65 -9.9 11.3 -10.25 12.3 -10.75 13.0 Q-9.55 13.35 -9.15 14.65 L-7.7 14.4 -7.9 15.6 -7.95 17.0 -7.7 17.95 -5.8 16.7 -4.55 18.6 -5.4 20.35 -5.0 20.25 -3.55 20.3 -3.3 20.35 Q-1.8 20.7 -0.25 18.6 L-0.75 20.1 Q-1.25 21.0 -0.45 20.95 0.35 20.9 2.35 24.4 L3.05 21.95 4.4 23.05 4.65 23.0 Q5.0 21.75 6.65 18.6 L7.3 17.25 7.7 19.55 7.75 19.55 9.2 17.9 9.75 16.2 9.75 16.1 8.6 15.15 7.6 14.2 7.65 11.25 5.75 12.6" fill="none" stroke="#000000" stroke-linecap="round" stroke-linejoin="round" stroke-opacity="0.6" stroke-width="1.0"/>
  </g>
</svg>
