<?xml version="1.0" encoding="UTF-8" standalone="no"?>
<svg xmlns:xlink="http://www.w3.org/1999/xlink" height="39.25px" width="40.4px" xmlns="http://www.w3.org/2000/svg">
  <g transform="matrix(1.0, 0.0, 0.0, 1.0, 2.35, 0.75)">
    <path d="M-1.65 27.0 Q5.5 22.8 7.85 15.15 10.25 7.25 5.0 2.55 11.0 -0.25 10.6 -0.25 L24.85 -0.2 32.95 2.95 Q35.6 7.25 36.85 17.9 38.0 27.6 37.2 33.6 L35.85 34.9 27.0 36.8 25.7 36.9 24.0 35.35 22.55 37.35 21.5 37.8 Q13.4 38.4 4.95 37.35 L-1.85 36.15 -1.65 27.0" fill="#ffffff" fill-opacity="0.0" fill-rule="evenodd" stroke="none"/>
    <path d="M-1.65 27.0 Q5.5 22.8 7.85 15.15 10.25 7.25 5.0 2.55 11.0 -0.25 10.6 -0.25 L24.85 -0.2 32.95 2.95 Q35.6 7.25 36.85 17.9 38.0 27.6 37.2 33.6" fill="none" stroke="#000000" stroke-linecap="round" stroke-linejoin="round" stroke-width="1.0"/>
    <path d="M37.2 33.6 L35.85 34.9 27.0 36.8 25.7 36.9 24.0 35.35 22.55 37.35 21.5 37.8 Q13.4 38.4 4.95 37.35 L-1.85 36.15 -1.65 27.0 Z" fill="none" stroke="#000000" stroke-linecap="round" stroke-linejoin="round" stroke-opacity="0.4" stroke-width="1.0"/>
    <path d="M4.95 33.55 L17.45 36.5 2.5 35.2 1.0 32.45 Q8.85 24.6 10.25 18.05 11.75 11.2 6.7 4.0 12.45 10.1 11.7 17.7 10.95 25.25 4.1 32.1 L4.95 33.55" fill="#ffffff" fill-opacity="0.29803923" fill-rule="evenodd" stroke="none"/>
  </g>
</svg>
