<?xml version="1.0" encoding="UTF-8" standalone="no"?>
<svg xmlns:xlink="http://www.w3.org/1999/xlink" height="24.9px" width="14.5px" xmlns="http://www.w3.org/2000/svg">
  <g transform="matrix(1.0, 0.0, 0.0, 1.0, 0.5, 0.6)">
    <path d="M6.8 3.5 Q7.95 2.35 9.25 1.8 10.3 1.35 10.8 1.55 11.25 3.2 10.95 4.7 10.75 5.55 9.1 5.65 L7.95 5.35 9.1 5.65 9.05 5.65 10.2 11.05 10.1 12.75 9.85 16.0 Q9.85 18.95 10.1 19.95 L8.75 19.9 7.85 20.3 Q7.1 17.55 8.05 13.25 8.5 11.45 8.15 8.95 L7.75 6.85 7.75 6.8 7.05 11.65 6.6 14.15 5.5 18.0 Q4.6 21.25 5.05 23.8 L3.25 23.8 Q2.6 22.4 3.15 18.75 3.65 15.35 4.55 13.35 5.25 11.9 5.2 8.15 L5.1 5.9 4.35 6.25 1.6 7.25 Q0.5 7.3 0.15 5.7 -0.2 4.15 0.3 3.35 L3.75 3.1 6.8 3.5 Q6.45 4.4 7.05 5.1 6.45 4.4 6.8 3.5 M7.95 5.35 L7.05 5.1 7.95 5.35 7.75 6.85 7.95 5.35 M7.05 5.1 L7.0 5.1 5.1 5.9 7.0 5.1 7.05 5.1" fill="#ffffff" fill-opacity="0.0" fill-rule="evenodd" stroke="none"/>
    <path d="M9.1 5.65 Q10.75 5.55 10.95 4.7 11.25 3.2 10.8 1.55 10.3 1.35 9.25 1.8 7.95 2.35 6.8 3.5 6.45 4.4 7.05 5.1 L7.0 5.1 5.1 5.9 4.35 6.25 1.6 7.25 Q0.5 7.3 0.15 5.7 -0.2 4.15 0.3 3.35 L3.75 3.1 6.8 3.5 M7.95 5.35 L9.1 5.65 9.05 5.65 10.2 11.05 10.1 12.75 9.85 16.0 Q9.85 18.95 10.1 19.95 L8.75 19.9 7.85 20.3 Q7.1 17.55 8.05 13.25 8.5 11.45 8.15 8.95 L7.75 6.85 7.75 6.8 7.05 11.65 6.6 14.15 5.5 18.0 Q4.6 21.25 5.05 23.8 L3.25 23.8 Q2.6 22.4 3.15 18.75 3.65 15.35 4.55 13.35 5.25 11.9 5.2 8.15 L5.1 5.9 M7.75 6.85 L7.95 5.35" fill="none" stroke="#000000" stroke-linecap="round" stroke-linejoin="miter-clip" stroke-miterlimit="10.0" stroke-opacity="0.4" stroke-width="1.0"/>
    <path d="M7.05 5.1 L7.95 5.35" fill="none" stroke="#000000" stroke-linecap="round" stroke-linejoin="miter-clip" stroke-miterlimit="10.0" stroke-opacity="0.6" stroke-width="1.0"/>
  </g>
</svg>
