<?xml version="1.0" encoding="UTF-8" standalone="no"?>
<svg xmlns:xlink="http://www.w3.org/1999/xlink" height="44.45px" width="40.65px" xmlns="http://www.w3.org/2000/svg">
  <g transform="matrix(1.0, 0.0, 0.0, 1.0, -1.7, 0.5)">
    <path d="M25.25 3.85 Q28.0 3.8 29.0 1.95 29.5 1.0 29.45 0.0 L37.0 3.0 Q41.35 10.55 41.75 19.35 42.1 28.1 40.85 34.6 39.9 39.5 39.25 41.1 L33.35 41.5 30.05 41.05 Q28.4 40.6 27.4 37.2 L26.75 38.9 26.5 38.1 Q30.15 17.6 25.25 3.85 30.15 17.6 26.5 38.1 25.9 40.3 24.95 41.25 L25.25 40.8 Q25.05 40.95 24.8 41.05 L16.0 42.1 Q6.7 43.0 4.45 42.3 L4.35 42.25 2.65 41.55 2.2 41.25 2.2 26.95 Q11.3 21.3 12.6 12.15 13.1 8.5 12.0 5.8 10.85 3.15 8.7 2.75 L13.45 0.0 16.5 2.15 Q20.45 4.25 24.8 3.9 L25.25 3.85" fill="#ffffff" fill-opacity="0.0" fill-rule="evenodd" stroke="none"/>
    <path d="M26.75 38.9 L27.4 37.2 Q28.4 40.6 30.05 41.05 L33.35 41.5 39.25 41.1 38.9 41.75 39.25 41.1 39.35 41.05 38.9 41.75 38.85 41.75 38.6 41.9 38.5 41.9 32.5 42.35 29.15 41.9 Q27.7 41.55 26.75 38.9 M2.2 41.25 L2.65 41.55 4.35 42.25 4.45 42.3 Q6.7 43.0 16.0 42.1 L24.8 41.05 Q25.05 40.95 25.25 40.8 L24.95 41.25 Q24.45 41.75 23.85 41.9 L15.05 42.95 Q5.75 43.85 3.5 43.15 2.5 42.65 2.2 41.25" fill="#ffffff" fill-opacity="0.2" fill-rule="evenodd" stroke="none"/>
    <path d="M25.25 3.85 Q30.15 17.6 26.5 38.1 L26.75 38.9 M39.25 41.1 Q39.9 39.5 40.85 34.6 M38.85 41.75 L38.9 41.75 39.25 41.1" fill="none" stroke="#000000" stroke-linecap="round" stroke-linejoin="round" stroke-opacity="0.4" stroke-width="1.0"/>
    <path d="M40.85 34.6 Q42.1 28.1 41.75 19.35 41.35 10.55 37.0 3.0 L29.45 0.0 Q29.5 1.0 29.0 1.95 28.0 3.8 25.25 3.85 L24.8 3.9 Q20.45 4.25 16.5 2.15 L13.45 0.0 8.7 2.75 Q10.85 3.15 12.0 5.8 13.1 8.5 12.6 12.15 11.3 21.3 2.2 26.95 L2.2 41.25 Q2.5 42.65 3.5 43.15 5.75 43.85 15.05 42.95 L23.85 41.9 Q24.45 41.75 24.95 41.25 25.9 40.3 26.5 38.1 M26.75 38.9 Q27.7 41.55 29.15 41.9 L32.5 42.35 38.5 41.9 38.6 41.9 38.85 41.75" fill="none" stroke="#000000" stroke-linecap="round" stroke-linejoin="round" stroke-opacity="0.6" stroke-width="1.0"/>
  </g>
</svg>
