<?xml version="1.0" encoding="UTF-8" standalone="no"?>
<svg xmlns:xlink="http://www.w3.org/1999/xlink" height="15.4px" width="17.2px" xmlns="http://www.w3.org/2000/svg">
  <g transform="matrix(1.0, 0.0, 0.0, 1.0, 8.6, 6.05)">
    <path d="M-8.05 -5.55 L-7.2 -4.45 Q-5.5 -3.05 -4.45 -2.6 L-2.7 -1.95 -0.05 -1.3 5.0 -1.7 Q7.95 -3.8 8.05 -5.3 L8.1 0.3 Q8.5 1.45 8.35 3.7 8.15 5.95 6.4 7.7 4.65 9.4 -0.1 9.35 -4.8 9.3 -6.2 8.25 -7.6 7.2 -7.85 4.6 L-8.1 0.3 -8.05 -5.55 M-8.1 0.3 L-6.2 1.6 -4.35 2.65 -1.5 3.75 Q1.75 4.8 3.7 4.85 3.55 1.7 5.0 -1.7 6.6 0.05 7.2 2.4 L7.2 2.45 7.2 2.4 7.6 1.65 8.1 0.3 7.6 1.65 7.2 2.4 7.2 2.45 7.2 2.4 Q6.6 0.05 5.0 -1.7 3.55 1.7 3.7 4.85 1.75 4.8 -1.5 3.75 L-4.35 2.65 -6.2 1.6 -8.1 0.3" fill="#ffffff" fill-opacity="0.0" fill-rule="evenodd" stroke="none"/>
    <path d="M-8.05 -5.55 L-7.2 -4.45 Q-5.5 -3.05 -4.45 -2.6 L-2.7 -1.95 -0.05 -1.3 5.0 -1.7 Q7.95 -3.8 8.05 -5.3 M8.1 0.3 L7.6 1.65 7.2 2.4 7.2 2.45 7.2 2.4 Q6.6 0.05 5.0 -1.7 3.55 1.7 3.7 4.85 1.75 4.8 -1.5 3.75 L-4.35 2.65 -6.2 1.6 -8.1 0.3" fill="none" stroke="#000000" stroke-linecap="round" stroke-linejoin="round" stroke-opacity="0.4" stroke-width="1.0"/>
    <path d="M8.05 -5.3 L8.1 0.3 M-8.1 0.3 L-8.05 -5.55 Z" fill="none" stroke="#000000" stroke-linecap="round" stroke-linejoin="round" stroke-width="1.0"/>
  </g>
</svg>
