<?xml version="1.0" encoding="UTF-8" standalone="no"?>
<svg xmlns:xlink="http://www.w3.org/1999/xlink" height="11.2px" width="18.85px" xmlns="http://www.w3.org/2000/svg">
  <g transform="matrix(1.0, 0.0, 0.0, 1.0, 9.5, 5.0)">
    <path d="M8.85 -2.1 Q5.6 -3.65 4.7 -1.7 L4.55 -1.35 Q3.8 1.1 4.0 5.7 0.7 0.6 -1.9 -0.8 -2.65 -1.2 -3.3 -1.3 -6.55 -1.8 -9.0 0.85 -8.75 -0.1 -7.3 -2.2 -6.3 -3.65 -1.6 -4.5 L5.15 -4.85 Q6.95 -4.55 8.05 -3.3 L8.85 -2.1" fill="#ffffff" fill-opacity="0.0" fill-rule="evenodd" stroke="none"/>
    <path d="M8.85 -2.1 Q5.6 -3.65 4.7 -1.7 L4.55 -1.35 Q3.8 1.1 4.0 5.7 0.7 0.6 -1.9 -0.8 -2.65 -1.2 -3.3 -1.3 -6.55 -1.8 -9.0 0.85" fill="none" stroke="#000000" stroke-linecap="round" stroke-linejoin="round" stroke-opacity="0.4" stroke-width="1.0"/>
  </g>
</svg>
