<?xml version="1.0" encoding="UTF-8" standalone="no"?>
<svg xmlns:xlink="http://www.w3.org/1999/xlink" height="21.95px" width="19.1px" xmlns="http://www.w3.org/2000/svg">
  <g transform="matrix(1.0, 0.0, 0.0, 1.0, 7.6, 7.75)">
    <path d="M9.1 -7.15 L10.55 -7.2 Q11.15 -7.15 10.8 -3.0 10.45 1.1 9.8 4.25 9.1 7.35 5.05 13.4 -2.2 6.45 -4.35 3.4 -6.55 0.4 -6.85 -2.45 -7.2 -5.35 -6.1 -5.7 L-4.05 -6.05 Q-3.15 -4.1 -0.35 -3.5 L4.1 -3.35 Q8.3 -3.9 9.1 -7.15" fill="#ffffff" fill-opacity="0.0" fill-rule="evenodd" stroke="none"/>
    <path d="M9.1 -7.15 L10.55 -7.2 Q11.15 -7.15 10.8 -3.0 10.45 1.1 9.8 4.25 9.1 7.35 5.05 13.4 -2.2 6.45 -4.35 3.4 -6.55 0.4 -6.85 -2.45 -7.2 -5.35 -6.1 -5.7 L-4.05 -6.05 Q-3.15 -4.1 -0.35 -3.5 L4.1 -3.35 Q8.3 -3.9 9.1 -7.15 Z" fill="none" stroke="#000000" stroke-linecap="butt" stroke-linejoin="miter-clip" stroke-miterlimit="10.0" stroke-opacity="0.6" stroke-width="1.0"/>
    <path d="M-3.9 -3.45 Q-1.75 -1.9 1.9 -1.4 5.45 -0.95 6.6 -1.75 L7.35 -2.15 Q6.55 -1.5 5.1 -0.95 2.25 0.1 -0.9 -0.25" fill="none" stroke="#000000" stroke-linecap="butt" stroke-linejoin="miter-clip" stroke-miterlimit="10.0" stroke-opacity="0.2" stroke-width="1.0"/>
  </g>
</svg>
