<?xml version="1.0" encoding="UTF-8" standalone="no"?>
<svg xmlns:xlink="http://www.w3.org/1999/xlink" height="12.55px" width="19.75px" xmlns="http://www.w3.org/2000/svg">
  <g transform="matrix(1.0, 0.0, 0.0, 1.0, -0.8, -0.15)">
    <path d="M19.9 8.25 L17.7 11.7 Q16.45 9.8 13.75 9.75 L10.55 9.65 7.3 9.7 Q4.55 9.75 3.15 12.2 1.3 8.5 1.3 7.4 1.3 6.75 1.85 5.6 L1.9 5.6 2.35 4.6 Q2.0 2.25 2.5 1.25 L9.45 0.95 10.7 1.05 11.9 0.95 Q18.05 0.45 18.55 1.6 19.0 2.45 19.0 4.6 L19.55 5.6 20.05 7.4 19.95 8.1 19.95 8.25 19.9 8.25 M8.15 4.7 L6.95 4.7 3.9 5.1 1.9 5.6 3.9 5.1 6.95 4.7 8.15 4.7 M19.45 6.4 Q18.25 4.95 14.95 4.7 L10.8 4.7 14.6 5.25 Q16.4 5.5 18.2 6.5 19.8 7.4 19.95 8.1 19.8 7.4 18.2 6.5 16.4 5.5 14.6 5.25 L10.8 4.7 5.65 3.95 10.8 4.7 14.95 4.7 Q18.25 4.95 19.45 6.4" fill="#ffffff" fill-opacity="0.0" fill-rule="evenodd" stroke="none"/>
    <path d="M19.9 8.25 L17.7 11.7 Q16.45 9.8 13.75 9.75 L10.55 9.65 7.3 9.7 Q4.55 9.75 3.15 12.2 1.3 8.5 1.3 7.4 1.3 6.75 1.85 5.6 L1.9 5.6 2.35 4.6 Q2.0 2.25 2.5 1.25 L9.45 0.95 10.7 1.05 11.9 0.95 Q18.05 0.45 18.55 1.6 19.0 2.45 19.0 4.6 L19.55 5.6 20.05 7.4 19.95 8.1 19.95 8.25" fill="none" stroke="#000000" stroke-linecap="round" stroke-linejoin="round" stroke-width="1.0"/>
    <path d="M19.95 8.1 Q19.8 7.4 18.2 6.5 16.4 5.5 14.6 5.25 L10.8 4.7 5.65 3.95 M10.8 4.7 L14.95 4.7 Q18.25 4.95 19.45 6.4 M1.9 5.6 L3.9 5.1 6.95 4.7 8.15 4.7" fill="none" stroke="#000000" stroke-linecap="round" stroke-linejoin="round" stroke-opacity="0.24705882" stroke-width="1.0"/>
  </g>
</svg>
