<?xml version="1.0" encoding="UTF-8" standalone="no"?>
<svg xmlns:xlink="http://www.w3.org/1999/xlink" height="15.3px" width="20.55px" xmlns="http://www.w3.org/2000/svg">
  <g transform="matrix(1.0, 0.0, 0.0, 1.0, 11.2, 13.8)">
    <path d="M-9.2 1.0 Q-10.15 0.0 -10.6 -3.6 -11.1 -7.25 -8.4 -11.05 -7.15 -12.05 -4.85 -12.85 -2.55 -13.75 0.7 -12.9 3.9 -12.1 5.8 -10.4 7.65 -8.75 8.85 -2.1 0.1 -4.45 -9.2 1.0" fill="#ffffff" fill-opacity="0.0" fill-rule="evenodd" stroke="none"/>
    <path d="M-9.2 1.0 Q-10.15 0.0 -10.6 -3.6 -11.1 -7.25 -8.4 -11.05 -7.15 -12.05 -4.85 -12.85 -2.55 -13.75 0.7 -12.9 3.9 -12.1 5.8 -10.4 7.65 -8.75 8.85 -2.1" fill="none" stroke="#000000" stroke-linecap="round" stroke-linejoin="round" stroke-width="1.0"/>
  </g>
</svg>
