<?xml version="1.0" encoding="UTF-8" standalone="no"?>
<svg xmlns:xlink="http://www.w3.org/1999/xlink" height="5.75px" width="26.35px" xmlns="http://www.w3.org/2000/svg">
  <g transform="matrix(1.0, 0.0, 0.0, 1.0, -4.3, -0.8)">
    <path d="M10.3 1.35 Q18.05 2.75 24.6 1.3 27.45 1.75 30.15 2.95 26.95 4.9 20.9 5.75 16.85 6.35 12.9 5.65 9.25 5.0 4.8 3.15 7.45 1.75 10.3 1.35" fill="#ffffff" fill-opacity="0.0" fill-rule="evenodd" stroke="none"/>
    <path d="M24.6 1.3 Q27.45 1.75 30.15 2.95 M4.8 3.15 Q7.45 1.75 10.3 1.35" fill="none" stroke="#000000" stroke-linecap="round" stroke-linejoin="round" stroke-width="1.0"/>
    <path d="M10.3 1.35 Q18.05 2.75 24.6 1.3 M30.15 2.95 Q26.95 4.9 20.9 5.75 16.85 6.35 12.9 5.65 9.25 5.0 4.8 3.15" fill="none" stroke="#000000" stroke-linecap="round" stroke-linejoin="round" stroke-opacity="0.4" stroke-width="1.0"/>
    <path d="M7.65 1.95 Q11.6 3.5 15.1 4.0 19.25 4.6 27.35 1.95" fill="none" stroke="#000000" stroke-linecap="round" stroke-linejoin="round" stroke-opacity="0.4" stroke-width="1.0"/>
  </g>
</svg>
