<?xml version="1.0" encoding="UTF-8" standalone="no"?>
<svg xmlns:xlink="http://www.w3.org/1999/xlink" height="43.35px" width="41.75px" xmlns="http://www.w3.org/2000/svg">
  <g transform="matrix(1.0, 0.0, 0.0, 1.0, 20.25, -0.1)">
    <path d="M-13.55 3.35 Q-9.0 0.6 0.2 0.6 9.35 0.65 13.9 3.25 13.45 9.55 14.75 15.45 16.5 23.5 21.0 27.0 L21.0 27.1 21.0 31.0 Q20.9 34.65 20.45 35.3 19.7 36.35 16.55 38.45 12.8 40.95 9.65 41.95 6.25 43.05 0.3 42.95 -5.45 42.85 -8.8 41.8 -11.6 40.9 -15.4 38.25 -18.5 36.0 -19.25 35.0 -19.65 34.45 -19.7 30.9 L-19.75 27.1 -19.75 27.0 Q-15.2 23.7 -13.7 15.7 -12.5 9.25 -13.55 3.35" fill="#ffffff" fill-opacity="0.0" fill-rule="evenodd" stroke="none"/>
    <path d="M-13.55 3.35 Q-9.0 0.6 0.2 0.6 9.35 0.65 13.9 3.25 13.45 9.55 14.75 15.45 16.5 23.5 21.0 27.0 L21.0 27.1 21.0 31.0 Q20.9 34.65 20.45 35.3 19.7 36.35 16.55 38.45 12.8 40.95 9.65 41.95 6.25 43.05 0.3 42.95 -5.45 42.85 -8.8 41.8 -11.6 40.9 -15.4 38.25 -18.5 36.0 -19.25 35.0 -19.65 34.45 -19.7 30.9 L-19.75 27.1 -19.75 27.0 Q-15.2 23.7 -13.7 15.7 -12.5 9.25 -13.55 3.35 Z" fill="none" stroke="#000000" stroke-linecap="round" stroke-linejoin="round" stroke-opacity="0.6" stroke-width="1.0"/>
  </g>
</svg>
