<?xml version="1.0" encoding="UTF-8" standalone="no"?>
<svg xmlns:xlink="http://www.w3.org/1999/xlink" height="54.6px" width="83.05px" xmlns="http://www.w3.org/2000/svg">
  <g transform="matrix(1.0, 0.0, 0.0, 1.0, 12.25, 0.5)">
    <path d="M-5.95 28.65 Q-4.15 31.35 0.35 33.3 4.15 34.9 8.6 35.55 11.6 36.0 18.85 35.45 L27.9 34.9 31.15 34.9 34.4 34.7 40.3 34.4 44.95 34.6 Q48.0 34.75 49.85 34.55 L64.3 30.75 70.3 46.8 Q68.0 48.2 63.15 49.5 L57.2 50.85 52.4 51.35 52.3 51.4 50.1 51.55 46.75 51.9 39.75 52.3 27.1 53.35 Q18.7 54.4 7.4 51.4 -5.7 47.95 -11.7 41.2 -12.2 40.65 -5.95 28.65" fill="#000000" fill-opacity="0.09803922" fill-rule="evenodd" stroke="none"/>
    <path d="M64.3 30.75 L49.85 34.55 Q48.0 34.75 44.95 34.6 L40.3 34.4 34.4 34.7 31.15 34.9 27.9 34.9 18.85 35.45 Q11.6 36.0 8.6 35.55 4.15 34.9 0.35 33.3 -4.15 31.35 -5.95 28.65 L5.65 0.55 52.1 0.0 Q52.45 3.15 57.45 14.2 63.1 26.75 64.3 30.75" fill="#ffffff" fill-opacity="0.0" fill-rule="evenodd" stroke="none"/>
    <path d="M-5.95 28.65 Q-12.2 40.65 -11.7 41.2 M70.3 46.8 L64.3 30.75 Q63.1 26.75 57.45 14.2 52.45 3.15 52.1 0.0 M5.65 0.55 L-5.95 28.65" fill="none" stroke="#000000" stroke-linecap="round" stroke-linejoin="round" stroke-width="1.0"/>
    <path d="M-11.7 41.2 Q-5.7 47.95 7.4 51.4 18.7 54.4 27.1 53.35 L39.75 52.3 46.75 51.9 50.1 51.55 52.3 51.4 52.4 51.35 57.2 50.85 63.15 49.5 Q68.0 48.2 70.3 46.8" fill="none" stroke="#000000" stroke-linecap="round" stroke-linejoin="miter-clip" stroke-miterlimit="10.0" stroke-width="1.0"/>
    <path d="M64.3 30.75 L49.85 34.55 Q48.0 34.75 44.95 34.6 L40.3 34.4 34.4 34.7 31.15 34.9 27.9 34.9 18.85 35.45 Q11.6 36.0 8.6 35.55 4.15 34.9 0.35 33.3 -4.15 31.35 -5.95 28.65 Z" fill="none" stroke="#000000" stroke-linecap="round" stroke-linejoin="miter-clip" stroke-miterlimit="10.0" stroke-opacity="0.4" stroke-width="1.0"/>
    <path d="M18.9 13.95 L22.5 23.75 Q25.1 29.9 28.0 34.9 30.4 39.1 33.0 42.55 M26.65 21.7 L29.65 31.1 31.15 34.9 Q34.05 42.0 36.9 45.0" fill="none" stroke="#000000" stroke-linecap="round" stroke-linejoin="miter-clip" stroke-miterlimit="10.0" stroke-opacity="0.4" stroke-width="1.0"/>
  </g>
</svg>
