<?xml version="1.0" encoding="UTF-8" standalone="no"?>
<svg xmlns:xlink="http://www.w3.org/1999/xlink" height="15.6px" width="15.6px" xmlns="http://www.w3.org/2000/svg">
  <g transform="matrix(1.0, 0.0, 0.0, 1.0, 7.8, 7.8)">
    <path d="M7.3 0.0 Q7.3 3.0 5.15 5.15 3.0 7.3 0.0 7.3 -3.0 7.3 -5.15 5.15 -7.3 3.0 -7.3 0.0 -7.3 -3.0 -5.15 -5.15 -3.0 -7.3 0.0 -7.3 3.0 -7.3 5.15 -5.15 7.3 -3.0 7.3 0.0" fill="#000000" fill-opacity="0.003921569" fill-rule="evenodd" stroke="none"/>
    <path d="M7.3 0.0 Q7.3 3.0 5.15 5.15 3.0 7.3 0.0 7.3 -3.0 7.3 -5.15 5.15 -7.3 3.0 -7.3 0.0 -7.3 -3.0 -5.15 -5.15 -3.0 -7.3 0.0 -7.3 3.0 -7.3 5.15 -5.15 7.3 -3.0 7.3 0.0 Z" fill="none" stroke="#000000" stroke-linecap="round" stroke-linejoin="round" stroke-opacity="0.4" stroke-width="1.0"/>
  </g>
</svg>
