<?xml version="1.0" encoding="UTF-8" standalone="no"?>
<svg xmlns:xlink="http://www.w3.org/1999/xlink" height="10.9px" width="18.8px" xmlns="http://www.w3.org/2000/svg">
  <g transform="matrix(1.0, 0.0, 0.0, 1.0, -16.95, -2.05)">
    <path d="M32.1 5.95 Q31.7 6.4 31.05 6.4 30.45 6.4 30.0 5.95 29.55 5.5 29.55 4.9 29.55 4.25 30.0 3.8 30.45 3.35 31.05 3.35 31.7 3.35 32.1 3.8 32.55 4.25 32.55 4.9 L32.1 5.95 M32.1 9.85 Q32.55 10.3 32.55 10.95 L32.1 12.0 Q31.7 12.45 31.05 12.45 30.45 12.45 30.0 12.0 29.55 11.55 29.55 10.95 29.55 10.3 30.0 9.85 30.45 9.4 31.05 9.4 31.7 9.4 32.1 9.85 M20.05 3.8 Q20.5 4.25 20.5 4.9 L20.05 5.95 Q19.6 6.4 19.0 6.4 18.35 6.4 17.9 5.95 17.45 5.5 17.45 4.9 17.45 4.25 17.9 3.8 18.35 3.35 19.0 3.35 19.6 3.35 20.05 3.8 M17.45 10.95 Q17.45 10.3 17.9 9.85 18.35 9.4 19.0 9.4 19.6 9.4 20.05 9.85 20.5 10.3 20.5 10.95 L20.05 12.0 Q19.6 12.45 19.0 12.45 18.35 12.45 17.9 12.0 17.45 11.55 17.45 10.95" fill="#ffffff" fill-opacity="0.0" fill-rule="evenodd" stroke="none"/>
    <path d="M32.1 5.95 Q31.7 6.4 31.05 6.4 30.45 6.4 30.0 5.95 29.55 5.5 29.55 4.9 29.55 4.25 30.0 3.8 30.45 3.35 31.05 3.35 31.7 3.35 32.1 3.8 32.55 4.25 32.55 4.9 L32.1 5.95 M32.1 9.85 Q32.55 10.3 32.55 10.95 L32.1 12.0 Q31.7 12.45 31.05 12.45 30.45 12.45 30.0 12.0 29.55 11.55 29.55 10.95 29.55 10.3 30.0 9.85 30.45 9.4 31.05 9.4 31.7 9.4 32.1 9.85 M20.05 3.8 Q20.5 4.25 20.5 4.9 L20.05 5.95 Q19.6 6.4 19.0 6.4 18.35 6.4 17.9 5.95 17.45 5.5 17.45 4.9 17.45 4.25 17.9 3.8 18.35 3.35 19.0 3.35 19.6 3.35 20.05 3.8 M17.45 10.95 Q17.45 10.3 17.9 9.85 18.35 9.4 19.0 9.4 19.6 9.4 20.05 9.85 20.5 10.3 20.5 10.95 L20.05 12.0 Q19.6 12.45 19.0 12.45 18.35 12.45 17.9 12.0 17.45 11.55 17.45 10.95" fill="none" stroke="#000000" stroke-linecap="round" stroke-linejoin="miter-clip" stroke-miterlimit="10.0" stroke-opacity="0.4" stroke-width="1.0"/>
  </g>
</svg>
