<?xml version="1.0" encoding="UTF-8" standalone="no"?>
<svg xmlns:xlink="http://www.w3.org/1999/xlink" height="41.25px" width="13.65px" xmlns="http://www.w3.org/2000/svg">
  <g transform="matrix(1.0, 0.0, 0.0, 1.0, 0.0, 0.9)">
    <path d="M1.45 17.45 L1.4 16.25 1.5 17.45 1.45 17.45" fill="#977a59" fill-rule="evenodd" stroke="none"/>
    <path d="M1.6 20.55 L1.5 18.25 1.45 17.45 1.5 17.45 1.5 18.25 4.8 18.4 5.8 18.45 Q9.3 18.45 12.8 16.05 L12.5 19.2 Q10.45 20.3 8.05 20.95 4.1 21.9 1.6 20.55" fill="#ffffff" fill-opacity="0.0" fill-rule="evenodd" stroke="none"/>
    <path d="M0.65 1.9 L2.0 1.85 Q3.55 2.0 5.0 3.1 6.6 4.2 8.5 4.15 10.1 4.15 10.85 3.5 11.15 3.2 12.45 2.65 10.45 5.95 10.7 8.7 10.25 11.4 9.0 11.85 L5.55 8.95 Q1.8 5.3 0.65 1.9" fill="#000000" fill-opacity="0.29803923" fill-rule="evenodd" stroke="none"/>
    <path d="M12.45 2.65 L12.5 6.45 12.85 10.1 12.9 10.75 Q13.05 12.5 12.8 16.05 12.3 23.35 10.3 38.25 8.35 39.65 5.5 39.3 2.95 39.1 2.7 38.3 L2.5 35.95 Q6.05 37.5 6.9 37.05 7.75 36.65 7.7 33.55 L7.4 29.05 Q7.35 28.1 5.4 27.15 L1.85 25.85 1.6 20.55 Q4.1 21.9 8.05 20.95 10.45 20.3 12.5 19.2 L12.8 16.05 Q9.3 18.45 5.8 18.45 L4.8 18.4 7.1 18.15 Q8.55 17.75 7.25 16.0 L4.45 13.2 Q2.95 11.95 1.0 8.7 L0.7 2.55 0.65 1.9 Q1.8 5.3 5.55 8.95 L9.0 11.85 Q10.25 11.4 10.7 8.7 10.45 5.95 12.45 2.65" fill="#ffffff" fill-opacity="0.09803922" fill-rule="evenodd" stroke="none"/>
    <path d="M2.5 35.95 L1.85 25.85 5.4 27.15 Q7.35 28.1 7.4 29.05 L7.7 33.55 Q7.75 36.65 6.9 37.05 6.05 37.5 2.5 35.95 M1.4 16.25 L1.4 15.8 1.35 15.3 1.0 8.7 Q2.95 11.95 4.45 13.2 L7.25 16.0 Q8.55 17.75 7.1 18.15 L4.8 18.4 1.5 18.25 1.5 17.45 1.4 16.25" fill="#ffffff" fill-opacity="0.2" fill-rule="evenodd" stroke="none"/>
    <path d="M12.45 2.65 L12.5 6.45 12.85 10.1 12.9 10.75 Q13.05 12.5 12.8 16.05 12.3 23.35 10.3 38.25 8.35 39.65 5.5 39.3 2.95 39.1 2.7 38.3 L2.5 35.95 1.85 25.85 1.6 20.55 1.5 18.25 1.45 17.45 M1.4 16.25 L1.4 15.8 1.35 15.3 1.0 8.7 0.7 2.55 0.65 1.9" fill="none" stroke="#000000" stroke-linecap="round" stroke-linejoin="miter-clip" stroke-miterlimit="10.0" stroke-width="1.0"/>
    <path d="M1.45 17.45 L1.4 16.25 1.5 17.45 1.45 17.45 M0.65 1.9 L2.0 1.85 Q3.55 2.0 5.0 3.1 6.6 4.2 8.5 4.15 10.1 4.15 10.85 3.5 11.15 3.2 12.45 2.65 10.45 5.95 10.7 8.7 10.25 11.4 9.0 11.85 L5.55 8.95 Q1.8 5.3 0.65 1.9 M1.0 8.7 Q2.95 11.95 4.45 13.2 L7.25 16.0 Q8.55 17.75 7.1 18.15 L4.8 18.4 5.8 18.45 Q9.3 18.45 12.8 16.05 L12.5 19.2 Q10.45 20.3 8.05 20.95 4.1 21.9 1.6 20.55 M1.5 17.45 L1.5 18.25 4.8 18.4 M1.85 25.85 L5.4 27.15 Q7.35 28.1 7.4 29.05 L7.7 33.55 Q7.75 36.65 6.9 37.05 6.05 37.5 2.5 35.95" fill="none" stroke="#000000" stroke-linecap="round" stroke-linejoin="miter-clip" stroke-miterlimit="10.0" stroke-opacity="0.4" stroke-width="1.0"/>
  </g>
</svg>
