<?xml version="1.0" encoding="UTF-8" standalone="no"?>
<svg xmlns:xlink="http://www.w3.org/1999/xlink" height="11.15px" width="33.9px" xmlns="http://www.w3.org/2000/svg">
  <g transform="matrix(1.0, 0.0, 0.0, 1.0, -1.4, 0.7)">
    <path d="M2.05 9.55 Q1.7 7.5 2.2 3.65 L2.75 0.2 4.95 0.55 Q4.2 4.15 4.2 9.9 L2.05 9.55 M32.55 3.15 L31.95 0.0 33.85 -0.1 Q34.85 2.95 34.8 6.4 L34.55 9.3 32.6 9.3 Q33.05 6.8 32.55 3.15" fill="#ffffff" fill-opacity="0.0" fill-rule="evenodd" stroke="none"/>
    <path d="M32.55 3.15 Q33.05 6.8 32.6 9.3 L34.55 9.3 34.8 6.4 Q34.85 2.95 33.85 -0.1 L31.95 0.0 32.55 3.15 M2.05 9.55 L4.2 9.9 Q4.2 4.15 4.95 0.55 L2.75 0.2 2.2 3.65 Q1.7 7.5 2.05 9.55" fill="none" stroke="#000000" stroke-linecap="round" stroke-linejoin="miter-clip" stroke-miterlimit="10.0" stroke-opacity="0.4" stroke-width="1.0"/>
  </g>
</svg>
