<?xml version="1.0" encoding="UTF-8" standalone="no"?>
<svg xmlns:xlink="http://www.w3.org/1999/xlink" height="7.05px" width="52.4px" xmlns="http://www.w3.org/2000/svg">
  <g transform="matrix(1.0, 0.0, 0.0, 1.0, 26.2, 3.7)">
    <path d="M9.65 2.5 L4.6 2.7 -4.1 2.7 -14.9 2.35 -25.55 1.3 Q-25.55 -1.95 -25.35 -2.9 L-4.1 -1.8 4.45 -1.8 4.65 -1.8 19.05 -2.45 23.2 -2.75 25.25 -3.05 25.55 0.95 19.55 1.85 9.65 2.5" fill="#ffffff" fill-opacity="0.0" fill-rule="evenodd" stroke="none"/>
    <path d="M9.65 2.5 L4.6 2.7 -4.1 2.7 -14.9 2.35 -25.55 1.3 Q-25.55 -1.95 -25.35 -2.9 L-4.1 -1.8 4.45 -1.8 4.65 -1.8 19.05 -2.45 23.2 -2.75 25.25 -3.05 25.55 0.95 19.55 1.85 9.65 2.5 Z" fill="none" stroke="#000000" stroke-linecap="square" stroke-linejoin="round" stroke-width="1.0"/>
  </g>
</svg>
