<?xml version="1.0" encoding="UTF-8" standalone="no"?>
<svg xmlns:xlink="http://www.w3.org/1999/xlink" height="11.55px" width="11.8px" xmlns="http://www.w3.org/2000/svg">
  <g transform="matrix(1.0, 0.0, 0.0, 1.0, 5.9, 5.75)">
    <path d="M1.45 4.75 L0.55 5.05 0.0 5.3 Q-0.35 4.95 -1.45 4.75 -2.8 4.55 -3.6 3.6 -4.4 2.65 -4.55 0.6 L-4.7 -1.85 -5.4 -3.2 Q-4.3 -3.5 -4.3 -4.35 -2.7 -3.65 -1.65 -5.25 -0.1 -3.8 1.65 -5.25 2.4 -3.75 4.3 -4.35 4.15 -3.2 5.4 -3.2 L4.7 -1.85 4.55 0.6 Q4.4 2.65 3.6 3.6 2.8 4.55 1.45 4.75" fill="#000000" fill-opacity="0.003921569" fill-rule="evenodd" stroke="none"/>
    <path d="M1.45 4.75 Q2.8 4.55 3.6 3.6 4.4 2.65 4.55 0.6 L4.7 -1.85 5.4 -3.2 Q4.15 -3.2 4.3 -4.35 2.4 -3.75 1.65 -5.25 -0.1 -3.8 -1.65 -5.25 -2.7 -3.65 -4.3 -4.35 -4.3 -3.5 -5.4 -3.2 L-4.7 -1.85 -4.55 0.6 Q-4.4 2.65 -3.6 3.6 -2.8 4.55 -1.45 4.75 -0.35 4.95 0.0 5.3 L0.55 5.05 1.45 4.75 Z" fill="none" stroke="#000000" stroke-linecap="round" stroke-linejoin="round" stroke-opacity="0.4" stroke-width="1.0"/>
  </g>
</svg>
