<?xml version="1.0" encoding="UTF-8" standalone="no"?>
<svg xmlns:xlink="http://www.w3.org/1999/xlink" height="22.5px" width="56.2px" xmlns="http://www.w3.org/2000/svg">
  <g transform="matrix(1.0, 0.0, 0.0, 1.0, 28.4, 4.8)">
    <path d="M4.65 -1.8 L5.0 -1.75 Q7.9 -1.85 9.65 2.5 7.9 -1.85 5.0 -1.75 L4.65 -1.8 10.85 -1.95 17.55 -2.45 23.3 -3.2 26.55 -4.15 26.9 -2.05 27.15 -0.15 20.35 1.3 9.65 2.5 10.25 4.2 Q11.65 8.9 11.7 15.45 L11.05 16.9 10.35 17.05 Q10.7 11.75 9.3 7.2 7.9 2.7 4.6 2.7 L-4.1 2.7 Q-13.9 2.5 -27.75 0.3 L-27.45 -1.95 -26.95 -3.9 Q-10.2 -1.75 -4.1 -1.8 L4.45 -1.8 4.65 -1.8" fill="#ffffff" fill-opacity="0.0" fill-rule="evenodd" stroke="none"/>
    <path d="M9.65 2.5 Q7.9 -1.85 5.0 -1.75 L4.65 -1.8 4.45 -1.8 -4.1 -1.8 Q-10.2 -1.75 -26.95 -3.9 L-27.45 -1.95 -27.75 0.3 Q-13.9 2.5 -4.1 2.7 L4.6 2.7 Q7.9 2.7 9.3 7.2 10.7 11.75 10.35 17.05 L11.05 16.9 11.7 15.45 Q11.65 8.9 10.25 4.2 L9.65 2.5 20.35 1.3 27.15 -0.15 26.9 -2.05 26.55 -4.15 23.3 -3.2 17.55 -2.45 10.85 -1.95 4.65 -1.8" fill="none" stroke="#000000" stroke-linecap="round" stroke-linejoin="round" stroke-width="1.0"/>
  </g>
</svg>
