<?xml version="1.0" encoding="UTF-8" standalone="no"?>
<svg xmlns:xlink="http://www.w3.org/1999/xlink" height="14.1px" width="51.8px" xmlns="http://www.w3.org/2000/svg">
  <g transform="matrix(1.0, 0.0, 0.0, 1.0, 25.45, 18.8)">
    <path d="M25.85 -17.9 Q24.35 -13.1 25.0 -9.0 19.15 -7.0 7.65 -5.65 L7.35 -5.6 6.65 -5.55 Q2.3 -6.3 6.65 -18.15 L7.65 -18.1 19.15 -17.6 25.85 -17.9 M-23.65 -8.6 Q-23.65 -13.7 -24.95 -18.3 L-17.7 -18.1 -4.0 -18.2 Q-2.5 -7.5 -4.0 -5.2 -13.15 -5.7 -23.65 -8.6" fill="#ffffff" fill-opacity="0.0" fill-rule="evenodd" stroke="none"/>
    <path d="M25.85 -17.9 Q24.35 -13.1 25.0 -9.0 M-24.95 -18.3 Q-23.65 -13.7 -23.65 -8.6" fill="none" stroke="#000000" stroke-linecap="round" stroke-linejoin="round" stroke-width="1.0"/>
    <path d="M25.0 -9.0 Q19.15 -7.0 7.65 -5.65 M7.35 -5.6 L6.65 -5.55 Q2.3 -6.3 6.65 -18.15 L7.65 -18.1 19.15 -17.6 25.85 -17.9 M-23.65 -8.6 Q-13.15 -5.7 -4.0 -5.2 -2.5 -7.5 -4.0 -18.2 L-17.7 -18.1 -24.95 -18.3" fill="none" stroke="#000000" stroke-linecap="round" stroke-linejoin="round" stroke-opacity="0.6" stroke-width="1.0"/>
    <path d="M10.95 -15.45 Q10.65 -15.15 10.25 -15.1 9.85 -15.05 9.55 -15.35 9.25 -15.65 9.25 -16.1 9.25 -16.55 9.55 -16.85 L10.3 -17.15 Q10.75 -17.15 11.05 -16.85 L11.3 -16.15 10.95 -15.45 M14.35 -16.85 L15.1 -17.15 15.85 -16.85 16.1 -16.15 15.75 -15.45 Q15.45 -15.15 15.05 -15.1 14.65 -15.05 14.35 -15.35 14.05 -15.65 14.05 -16.1 14.05 -16.55 14.35 -16.85 M7.65 -18.1 Q3.5 -6.75 7.35 -5.6 L7.65 -5.65 M-9.2 -15.35 L-9.5 -16.1 -9.2 -16.85 -8.45 -17.15 Q-8.0 -17.15 -7.7 -16.85 -7.4 -16.55 -7.45 -16.15 -7.5 -15.75 -7.8 -15.45 -8.1 -15.15 -8.5 -15.1 -8.9 -15.05 -9.2 -15.35 M-12.7 -16.85 Q-12.4 -16.55 -12.45 -16.15 -12.5 -15.75 -12.8 -15.45 -13.1 -15.15 -13.5 -15.1 -13.9 -15.05 -14.2 -15.35 L-14.5 -16.1 -14.2 -16.85 -13.45 -17.15 Q-13.0 -17.15 -12.7 -16.85 M-5.0 -5.2 Q-3.5 -7.5 -5.0 -18.2" fill="none" stroke="#000000" stroke-linecap="round" stroke-linejoin="round" stroke-opacity="0.14901961" stroke-width="1.0"/>
  </g>
</svg>
