<?xml version="1.0" encoding="UTF-8" standalone="no"?>
<svg xmlns:xlink="http://www.w3.org/1999/xlink" height="7.25px" width="52.1px" xmlns="http://www.w3.org/2000/svg">
  <g transform="matrix(1.0, 0.0, 0.0, 1.0, 25.95, 3.6)">
    <path d="M-9.95 -1.35 L-8.9 -1.35 -8.75 -1.35 8.95 -1.35 16.7 -1.7 25.3 -2.95 25.5 -1.4 25.3 0.05 17.3 1.4 8.95 1.95 0.1 2.05 -8.75 1.95 -8.9 1.95 -14.55 1.9 Q-17.75 2.1 -20.85 3.0 L-22.0 2.7 -23.5 2.15 -23.6 2.15 Q-23.5 1.3 -22.9 0.8 L-23.55 0.35 -23.65 0.35 -23.75 0.3 -25.1 0.05 -25.3 -1.4 -25.1 -2.95 -16.5 -1.7 -11.25 -1.4 -9.95 -1.35 M-22.55 0.55 L-22.9 0.8 -22.55 0.55 Q-22.2 0.3 -21.7 0.15 -16.3 -1.45 -11.25 -1.4 -16.3 -1.45 -21.7 0.15 -22.2 0.3 -22.55 0.55 L-23.55 0.35 -22.55 0.55" fill="#ffffff" fill-opacity="0.0" fill-rule="evenodd" stroke="none"/>
    <path d="M-9.95 -1.35 L-8.9 -1.35 -8.75 -1.35 8.95 -1.35 16.7 -1.7 25.3 -2.95 25.5 -1.4 25.3 0.05 17.3 1.4 8.95 1.95 0.1 2.05 -8.75 1.95 -8.9 1.95 -14.55 1.9 Q-17.75 2.1 -20.85 3.0 L-22.0 2.7 -23.5 2.15 -23.6 2.15 Q-23.5 1.3 -22.9 0.8 M-23.55 0.35 L-23.65 0.35 -23.75 0.3 -25.1 0.05 -25.3 -1.4 -25.1 -2.95 -16.5 -1.7 -11.25 -1.4 M-22.55 0.55 L-23.55 0.35" fill="none" stroke="#000000" stroke-linecap="square" stroke-linejoin="round" stroke-width="1.0"/>
    <path d="M-11.25 -1.4 L-9.95 -1.35 M-22.55 0.55 Q-22.2 0.3 -21.7 0.15 -16.3 -1.45 -11.25 -1.4 M-22.9 0.8 L-22.55 0.55" fill="none" stroke="#000000" stroke-linecap="square" stroke-linejoin="round" stroke-opacity="0.6" stroke-width="1.0"/>
  </g>
</svg>
