<?xml version="1.0" encoding="UTF-8" standalone="no"?>
<svg xmlns:xlink="http://www.w3.org/1999/xlink" height="7.8px" width="11.5px" xmlns="http://www.w3.org/2000/svg">
  <g transform="matrix(1.0, 0.0, 0.0, 1.0, 5.95, 3.9)">
    <path d="M2.3 -2.3 L3.15 -2.3 Q4.85 -2.15 5.05 -1.4 5.25 -0.65 3.8 0.3 L3.15 0.7 Q2.95 1.65 2.2 2.4 1.2 3.4 -0.2 3.4 -1.6 3.4 -2.6 2.4 L-2.75 2.3 -3.55 2.3 Q-5.25 2.15 -5.45 1.4 -5.65 0.65 -4.2 -0.3 L-3.55 -0.7 Q-3.35 -1.65 -2.6 -2.4 -1.6 -3.4 -0.2 -3.4 1.2 -3.4 2.2 -2.4 L2.3 -2.3 2.55 -2.0 2.3 -2.3 M3.2 -0.05 Q4.15 -0.7 4.0 -1.3 3.85 -1.9 2.55 -2.0 3.2 -1.15 3.2 -0.05 L3.0 0.1 2.45 0.4 0.15 1.3 -2.25 1.7 -2.9 1.7 -3.15 1.65 -2.9 1.7 -2.25 1.7 0.15 1.3 2.45 0.4 3.0 0.1 3.2 -0.05 M-3.55 -0.3 Q-4.55 0.4 -4.4 0.95 -4.25 1.5 -3.15 1.65 L-3.6 0.0 -3.55 -0.3 -3.55 -0.7 -3.55 -0.3 M-2.75 2.3 L0.25 1.8 Q1.95 1.35 3.15 0.7 1.95 1.35 0.25 1.8 L-2.75 2.3" fill="#000000" fill-opacity="0.003921569" fill-rule="evenodd" stroke="none"/>
    <path d="M2.3 -2.3 L3.15 -2.3 Q4.85 -2.15 5.05 -1.4 5.25 -0.65 3.8 0.3 L3.15 0.7 Q2.95 1.65 2.2 2.4 1.2 3.4 -0.2 3.4 -1.6 3.4 -2.6 2.4 L-2.75 2.3 -3.55 2.3 Q-5.25 2.15 -5.45 1.4 -5.65 0.65 -4.2 -0.3 L-3.55 -0.7 Q-3.35 -1.65 -2.6 -2.4 -1.6 -3.4 -0.2 -3.4 1.2 -3.4 2.2 -2.4 L2.3 -2.3 2.55 -2.0 Q3.85 -1.9 4.0 -1.3 4.15 -0.7 3.2 -0.05 L3.0 0.1 2.45 0.4 0.15 1.3 -2.25 1.7 -2.9 1.7 -3.15 1.65 Q-4.25 1.5 -4.4 0.95 -4.55 0.4 -3.55 -0.3 L-3.55 -0.7 M2.55 -2.0 Q3.2 -1.15 3.2 -0.05 M3.15 0.7 Q1.95 1.35 0.25 1.8 L-2.75 2.3 M-3.15 1.65 L-3.6 0.0 -3.55 -0.3" fill="none" stroke="#000000" stroke-linecap="round" stroke-linejoin="round" stroke-opacity="0.4" stroke-width="1.0"/>
  </g>
</svg>
