<?xml version="1.0" encoding="UTF-8" standalone="no"?>
<svg xmlns:xlink="http://www.w3.org/1999/xlink" height="69.65px" width="97.85px" xmlns="http://www.w3.org/2000/svg">
  <g transform="matrix(1.0, 0.0, 0.0, 1.0, 11.75, 0.0)">
    <path d="M67.35 40.8 L62.35 53.35 Q57.25 65.75 55.55 67.75 L43.3 69.05 Q39.45 68.45 36.7 0.55 35.9 66.5 30.65 69.15 L29.75 69.15 Q20.25 68.7 11.25 67.3 -2.25 65.15 -11.25 61.15 L-8.15 48.15 -6.25 41.0 -6.7 40.85 -7.55 40.5 -1.55 17.95 -3.7 17.3 0.9 7.45 1.15 7.5 1.6 7.55 Q2.05 4.55 2.75 1.6 L14.95 0.95 Q26.2 0.5 36.7 0.5 L36.9 0.5 37.05 0.5 71.25 1.8 Q71.1 3.4 65.5 8.45 L62.8 8.7 62.55 13.5 62.6 13.8 61.2 17.2 59.6 22.8 56.45 34.2 53.45 41.75 Q50.65 48.75 50.7 49.2 50.75 49.75 56.55 41.85 62.55 33.85 63.75 31.45 64.6 29.7 65.75 32.35 66.4 38.3 67.35 40.8 M36.7 0.55 L36.7 0.5 36.7 0.55 M8.2 19.9 L7.15 29.75 Q5.8 41.1 4.15 42.25 L-2.8 42.05 -6.25 41.0 -2.8 42.05 4.15 42.25 Q5.8 41.1 7.15 29.75 L8.2 19.9 6.95 19.8 2.15 18.95 -1.55 17.95 2.15 18.95 6.95 19.8 8.2 19.9 10.4 19.55 Q12.35 18.6 12.75 13.6 L12.65 8.8 1.6 7.55 12.65 8.8 12.75 13.6 Q12.35 18.6 10.4 19.55 L8.2 19.9" fill="#ffffff" fill-opacity="0.0" fill-rule="evenodd" stroke="none"/>
    <path d="M79.8 41.15 Q79.8 41.65 81.9 49.85 84.25 58.8 85.45 61.95 L76.0 64.3 Q64.75 66.85 55.55 67.75 57.25 65.75 62.35 53.35 L67.35 40.8 Q67.8 42.15 68.3 42.5 69.95 43.65 75.1 42.5 L79.2 41.35 79.8 41.15 79.2 41.35 75.1 42.5 Q69.95 43.65 68.3 42.5 67.8 42.15 67.35 40.8 66.4 38.3 65.75 32.35 64.6 29.7 63.75 31.45 62.55 33.85 56.55 41.85 50.75 49.75 50.7 49.2 50.65 48.75 53.45 41.75 L56.45 34.2 59.6 22.8 61.2 17.2 62.6 13.8 62.55 13.5 62.8 8.7 65.5 8.45 Q71.1 3.4 71.25 1.8 L71.95 5.05 72.4 7.85 74.55 7.65 78.85 17.55 76.6 18.3 80.0 41.05 79.8 41.15 M72.4 7.85 L72.15 7.85 65.5 8.45 72.15 7.85 72.4 7.85 M64.8 19.45 L65.5 30.0 65.75 32.35 65.5 30.0 64.8 19.45 Q62.85 18.55 62.6 13.8 62.85 18.55 64.8 19.45 65.15 19.7 65.8 19.8 L73.0 19.1 75.25 18.65 75.4 18.6 76.6 18.3 75.4 18.6 75.25 18.65 73.0 19.1 65.8 19.8 Q65.15 19.7 64.8 19.45" fill="#000000" fill-opacity="0.14901961" fill-rule="evenodd" stroke="none"/>
    <path d="M55.55 67.75 Q64.75 66.85 76.0 64.3 L85.45 61.95 Q84.25 58.8 81.9 49.85 79.8 41.65 79.8 41.15 L80.0 41.05 76.6 18.3 78.85 17.55 74.55 7.65 72.4 7.85 71.95 5.05 71.25 1.8 M55.55 67.75 L43.3 69.05 M30.65 69.15 L29.75 69.15 Q20.25 68.7 11.25 67.3 -2.25 65.15 -11.25 61.15 M-6.7 40.85 L-7.55 40.5 -1.55 17.95 -3.7 17.3 0.9 7.45 1.15 7.5" fill="none" stroke="#000000" stroke-linecap="round" stroke-linejoin="miter-clip" stroke-miterlimit="10.0" stroke-width="1.0"/>
    <path d="M-11.25 61.15 L-8.15 48.15 -6.25 41.0 M1.6 7.55 Q2.05 4.55 2.75 1.6" fill="none" stroke="#000000" stroke-linecap="round" stroke-linejoin="round" stroke-width="1.0"/>
    <path d="M79.8 41.15 L79.2 41.35 75.1 42.5 Q69.95 43.65 68.3 42.5 67.8 42.15 67.35 40.8 66.4 38.3 65.75 32.35 L65.5 30.0 64.8 19.45 Q65.15 19.7 65.8 19.8 L73.0 19.1 75.25 18.65 75.4 18.6 76.6 18.3 M-6.25 41.0 L-6.7 40.85 M1.15 7.5 L1.6 7.55 12.65 8.8 12.75 13.6 Q12.35 18.6 10.4 19.55 L8.2 19.9 6.95 19.8 2.15 18.95 -1.55 17.95 M65.5 8.45 L72.15 7.85 72.4 7.85 M62.6 13.8 L62.55 13.5 62.8 8.7 65.5 8.45 M62.6 13.8 Q62.85 18.55 64.8 19.45 M-6.25 41.0 L-2.8 42.05 4.15 42.25 Q5.8 41.1 7.15 29.75 L8.2 19.9" fill="none" stroke="#000000" stroke-linecap="round" stroke-linejoin="round" stroke-opacity="0.4" stroke-width="1.0"/>
    <path d="M36.7 0.5 L36.7 0.55" fill="none" stroke="#990000" stroke-linecap="round" stroke-linejoin="round" stroke-opacity="0.6" stroke-width="1.0"/>
    <path d="M43.3 69.05 Q39.45 68.45 36.7 0.55 35.9 66.5 30.65 69.15" fill="none" stroke="#000000" stroke-linecap="round" stroke-linejoin="bevel" stroke-opacity="0.4" stroke-width="1.0"/>
  </g>
</svg>
