<?xml version="1.0" encoding="UTF-8" standalone="no"?>
<svg xmlns:xlink="http://www.w3.org/1999/xlink" height="16.85px" width="16.0px" xmlns="http://www.w3.org/2000/svg">
  <g transform="matrix(1.0, 0.0, 0.0, 1.0, 2.8, 3.95)">
    <path d="M9.7 0.5 L10.0 7.4 Q10.0 7.85 9.6 8.3 L8.65 8.9 1.55 9.25 Q1.05 9.3 0.65 8.8 0.3 8.35 0.3 7.9 L0.0 1.05 Q0.0 0.6 0.3 0.15 L1.15 -0.3 8.2 -0.7 Q8.75 -0.75 9.2 -0.3 9.65 0.1 9.7 0.5 M8.15 1.5 Q8.1 0.9 7.1 1.0 L2.7 1.25 Q1.95 1.25 1.95 1.8 L2.15 6.9 Q2.25 7.6 2.95 7.6 L7.35 7.35 8.05 7.05 8.3 6.55 8.15 1.5" fill="#ffffff" fill-opacity="0.0" fill-rule="evenodd" stroke="none"/>
    <path d="M9.7 0.5 Q9.65 0.1 9.2 -0.3 8.75 -0.75 8.2 -0.7 L1.15 -0.3 0.3 0.15 Q0.0 0.6 0.0 1.05 L0.3 7.9 Q0.3 8.35 0.65 8.8 1.05 9.3 1.55 9.25 L8.65 8.9 9.6 8.3 Q10.0 7.85 10.0 7.4 L9.7 0.5" fill="none" stroke="#000000" stroke-linecap="round" stroke-linejoin="miter-clip" stroke-miterlimit="10.0" stroke-width="1.0"/>
    <path d="M8.15 1.5 L8.3 6.55 8.05 7.05 7.35 7.35 2.95 7.6 Q2.25 7.6 2.15 6.9 L1.95 1.8 Q1.95 1.25 2.7 1.25 L7.1 1.0 Q8.1 0.9 8.15 1.5" fill="none" stroke="#000000" stroke-linecap="round" stroke-linejoin="miter-clip" stroke-miterlimit="10.0" stroke-opacity="0.4" stroke-width="1.0"/>
  </g>
</svg>
