<?xml version="1.0" encoding="UTF-8" standalone="no"?>
<svg xmlns:xlink="http://www.w3.org/1999/xlink" height="80.8px" width="36.85px" xmlns="http://www.w3.org/2000/svg">
  <g transform="matrix(1.0, 0.0, 0.0, 1.0, 0.5, 1.2)">
    <path d="M0.4 70.75 L0.05 70.7 Q-0.1 68.05 0.35 61.95 L0.75 46.85 0.85 31.6 1.45 0.15 Q17.9 0.8 24.05 0.5 L34.15 -0.6 34.65 21.55 35.4 44.0 Q35.8 57.25 35.25 66.45 L33.1 67.25 35.25 66.45 35.85 76.5 34.0 76.7 33.1 67.25 30.55 68.2 28.25 69.0 30.55 68.2 29.85 79.1 27.95 79.1 28.25 69.0 26.7 69.5 23.9 70.35 21.75 70.8 23.9 70.35 23.35 79.1 21.45 79.1 21.75 70.8 18.0 71.2 15.8 71.2 15.25 79.1 13.4 79.1 13.65 71.2 8.25 71.05 6.1 71.0 8.25 71.05 7.7 79.1 5.85 79.1 6.1 71.0 2.55 70.85 0.4 70.75 2.55 70.85 2.0 79.1 0.1 79.1 0.4 70.75 M15.8 71.2 L13.65 71.2 15.8 71.2" fill="#ffffff" fill-opacity="0.0" fill-rule="evenodd" stroke="none"/>
    <path d="M35.25 66.45 Q35.8 57.25 35.4 44.0 L34.65 21.55 34.15 -0.6 24.05 0.5 Q17.9 0.8 1.45 0.15 L0.85 31.6 0.75 46.85 0.35 61.95 Q-0.1 68.05 0.05 70.7 L0.4 70.75 M2.55 70.85 L6.1 71.0 M8.25 71.05 L13.65 71.2 M15.8 71.2 L18.0 71.2 21.75 70.8 M23.9 70.35 L26.7 69.5 28.25 69.0 M30.55 68.2 L33.1 67.25" fill="none" stroke="#000000" stroke-linecap="round" stroke-linejoin="miter-clip" stroke-miterlimit="10.0" stroke-width="1.0"/>
    <path d="M0.4 70.75 L2.55 70.85 2.0 79.1 0.1 79.1 0.4 70.75 M6.1 71.0 L8.25 71.05 7.7 79.1 5.85 79.1 6.1 71.0 M13.65 71.2 L15.8 71.2 15.25 79.1 13.4 79.1 13.65 71.2 M21.75 70.8 L23.9 70.35 23.35 79.1 21.45 79.1 21.75 70.8 M28.25 69.0 L30.55 68.2 29.85 79.1 27.95 79.1 28.25 69.0 M33.1 67.25 L35.25 66.45 35.85 76.5 34.0 76.7 33.1 67.25" fill="none" stroke="#000000" stroke-linecap="round" stroke-linejoin="miter-clip" stroke-miterlimit="10.0" stroke-opacity="0.4" stroke-width="1.0"/>
    <path d="M11.25 21.5 L15.7 39.65 Q19.2 51.75 22.45 57.3 24.15 60.35 25.8 61.4" fill="none" stroke="#000000" stroke-linecap="round" stroke-linejoin="miter-clip" stroke-miterlimit="10.0" stroke-opacity="0.24705882" stroke-width="1.0"/>
    <path d="M10.05 13.4 L14.2 22.7 Q19.8 32.9 27.1 37.25" fill="none" stroke="#000000" stroke-linecap="round" stroke-linejoin="round" stroke-opacity="0.24705882" stroke-width="1.0"/>
  </g>
</svg>
