<?xml version="1.0" encoding="UTF-8" standalone="no"?>
<svg xmlns:xlink="http://www.w3.org/1999/xlink" height="57.95px" width="62.85px" xmlns="http://www.w3.org/2000/svg">
  <g transform="matrix(1.0, 0.0, 0.0, 1.0, 0.5, 0.5)">
    <path d="M50.65 7.45 L49.75 4.9 44.15 5.05 47.35 26.25 47.35 26.3 48.55 33.6 49.85 40.85 Q50.8 45.85 51.5 48.05 L52.1 49.55 Q53.75 51.65 61.25 50.5 L61.8 53.3 Q43.35 58.4 19.85 56.35 12.5 55.7 5.5 54.45 L0.0 53.3 Q-0.05 52.0 0.95 46.7 L2.45 39.5 4.0 32.25 5.65 25.05 5.7 24.8 11.6 0.0 47.95 0.25 Q49.2 2.95 50.65 7.45" fill="#ffffff" fill-opacity="0.0" fill-rule="evenodd" stroke="none"/>
    <path d="M49.75 4.9 L50.65 7.45 56.6 29.45 57.15 31.75 57.9 35.1 60.15 45.2 60.3 45.75 61.25 50.5 Q53.75 51.65 52.1 49.55 L51.5 48.05 Q50.8 45.85 49.85 40.85 L48.55 33.6 47.35 26.3 47.35 26.25 44.15 5.05 49.75 4.9" fill="#000000" fill-opacity="0.2" fill-rule="evenodd" stroke="none"/>
    <path d="M49.75 4.9 L50.65 7.45 Q49.2 2.95 47.95 0.25 L11.6 0.0 5.7 24.8 5.65 25.05 4.0 32.25 2.45 39.5 0.95 46.7 Q-0.05 52.0 0.0 53.3 L5.5 54.45 Q12.5 55.7 19.85 56.35 43.35 58.4 61.8 53.3 L61.25 50.5 60.3 45.75 60.15 45.2 57.9 35.1 57.15 31.75 56.6 29.45 50.65 7.45" fill="none" stroke="#000000" stroke-linecap="round" stroke-linejoin="miter-clip" stroke-miterlimit="10.0" stroke-opacity="0.6" stroke-width="1.0"/>
    <path d="M7.3 18.05 L20.5 19.7 Q35.1 20.95 46.3 19.3 L53.45 17.85 M9.0 10.9 L20.4 12.7 Q34.1 14.15 45.25 12.2 L51.55 10.75 M0.95 46.7 L7.0 47.7 21.9 49.25 Q39.2 50.35 51.5 48.05 56.1 47.15 60.3 45.75 M2.45 39.5 L7.0 40.2 21.9 41.75 Q38.05 42.8 49.85 40.85 L58.75 38.8 M5.65 25.05 L7.0 25.25 21.9 26.8 Q36.35 27.7 47.35 26.25 L55.3 24.75 M4.0 32.25 L7.0 32.75 21.9 34.3 Q37.15 35.25 48.55 33.6 L57.15 31.75" fill="none" stroke="#000000" stroke-linecap="round" stroke-linejoin="miter-clip" stroke-miterlimit="10.0" stroke-opacity="0.4" stroke-width="1.0"/>
  </g>
</svg>
