<?xml version="1.0" encoding="UTF-8" standalone="no"?>
<svg xmlns:xlink="http://www.w3.org/1999/xlink" height="55.0px" width="83.05px" xmlns="http://www.w3.org/2000/svg">
  <g transform="matrix(1.0, 0.0, 0.0, 1.0, 8.8, 0.5)">
    <path d="M50.95 2.95 L61.3 46.7 50.95 2.95 M56.9 1.95 L73.6 44.05 61.3 46.7 61.95 48.6 59.15 49.4 56.35 50.3 Q54.35 50.8 52.4 51.7 50.35 52.65 50.25 53.15 L50.25 53.45 39.3 52.3 37.9 53.95 32.4 52.9 Q27.9 52.25 27.45 52.95 27.3 53.1 27.4 53.3 L22.55 52.0 Q17.6 50.9 17.4 51.9 L4.3 48.3 3.6 45.7 1.85 47.35 -8.2 42.2 9.9 0.0 56.9 1.95 M14.7 3.35 L3.6 45.7 14.7 3.35 M23.1 4.5 L17.4 51.9 23.1 4.5 M30.2 4.4 L27.45 52.95 30.2 4.4 M38.25 27.15 L39.3 52.3 38.25 27.15 M47.8 24.7 L50.25 53.15 47.8 24.7" fill="#ffffff" fill-opacity="0.0" fill-rule="evenodd" stroke="none"/>
    <path d="M61.3 46.7 L73.6 44.05 56.9 1.95 M9.9 0.0 L-8.2 42.2 1.85 47.35 3.6 45.7 4.3 48.3 17.4 51.9 Q17.6 50.9 22.55 52.0 L27.4 53.3 M50.25 53.15 Q50.35 52.65 52.4 51.7 54.35 50.8 56.35 50.3 L59.15 49.4 61.95 48.6 61.3 46.7 M27.45 52.95 Q27.9 52.25 32.4 52.9 L37.9 53.95 39.3 52.3 50.25 53.45" fill="none" stroke="#000000" stroke-linecap="round" stroke-linejoin="miter-clip" stroke-miterlimit="10.0" stroke-width="1.0"/>
    <path d="M61.3 46.7 L50.95 2.95 M3.6 45.7 L14.7 3.35 M17.4 51.9 L23.1 4.5 M27.4 53.3 Q27.3 53.1 27.45 52.95 L30.2 4.4 M39.3 52.3 L38.25 27.15 M50.25 53.45 L50.25 53.15 47.8 24.7" fill="none" stroke="#000000" stroke-linecap="round" stroke-linejoin="miter-clip" stroke-miterlimit="10.0" stroke-opacity="0.4" stroke-width="1.0"/>
  </g>
</svg>
