<?xml version="1.0" encoding="UTF-8" standalone="no"?>
<svg xmlns:xlink="http://www.w3.org/1999/xlink" height="68.55px" width="96.8px" xmlns="http://www.w3.org/2000/svg">
  <g transform="matrix(1.0, 0.0, 0.0, 1.0, 48.05, 16.95)">
    <path d="M28.2 48.8 Q29.55 45.6 32.2 35.35 L35.15 22.95 Q35.5 21.5 34.05 16.55 32.4 11.55 31.65 13.85 30.9 16.2 26.95 24.15 22.9 32.0 22.8 31.45 22.65 31.0 24.35 24.05 L26.15 16.6 27.35 8.65 27.8 5.4 28.1 3.0 30.2 -2.05 31.8 -6.6 33.25 -12.4 33.85 -15.05 Q33.8 -9.9 37.25 4.55 41.05 20.75 48.25 44.3 L28.2 48.8" fill="#000000" fill-opacity="0.14901961" fill-rule="evenodd" stroke="none"/>
    <path d="M16.2 -15.85 L33.85 -15.05 33.25 -12.4 31.8 -6.6 30.2 -2.05 28.1 3.0 27.8 5.4 27.35 8.65 26.15 16.6 24.35 24.05 Q22.65 31.0 22.8 31.45 22.9 32.0 26.95 24.15 30.9 16.2 31.65 13.85 32.4 11.55 34.05 16.55 35.5 21.5 35.15 22.95 L32.2 35.35 Q29.55 45.6 28.2 48.8 L24.1 49.5 Q20.65 42.55 16.2 -15.85 M12.6 50.8 L10.65 50.9 Q5.85 51.15 -0.3 51.05 L-13.45 50.15 -29.6 47.8 -47.55 44.7 -42.05 23.4 -43.65 23.15 -38.9 0.75 -39.65 0.65 -36.45 -9.3 -34.95 -9.15 Q-34.05 -12.1 -33.75 -15.05 -9.05 -16.65 16.15 -15.85 17.55 46.6 12.85 50.8 L12.6 50.8 M-28.85 0.3 Q-28.15 0.35 -27.75 0.0 -27.25 -0.35 -27.2 -0.9 -27.15 -1.45 -27.6 -1.85 -28.0 -2.3 -28.6 -2.35 L-29.8 -2.0 Q-30.25 -1.65 -30.3 -1.1 -30.35 -0.55 -29.95 -0.15 L-28.85 0.3 -29.95 -0.15 Q-30.35 -0.55 -30.3 -1.1 -30.25 -1.65 -29.8 -2.0 L-28.6 -2.35 Q-28.0 -2.3 -27.6 -1.85 -27.15 -1.45 -27.2 -0.9 -27.25 -0.35 -27.75 0.0 -28.15 0.35 -28.85 0.3 M-34.95 -9.15 L-34.7 -9.15 -34.95 -9.15 M-13.8 3.35 L-14.3 13.45 Q-15.05 24.35 -16.65 25.4 -18.15 26.55 -31.1 25.0 L-41.8 23.45 -31.1 25.0 Q-18.15 26.55 -16.65 25.4 -15.05 24.35 -14.3 13.45 L-13.8 3.35 -18.4 3.15 -26.35 2.4 -38.9 0.75 -26.35 2.4 -18.4 3.15 -13.8 3.35 -10.95 3.05 Q-9.15 2.15 -9.05 -2.8 L-9.35 -7.45 -34.7 -9.15 -9.35 -7.45 -9.05 -2.8 Q-9.15 2.15 -10.95 3.05 L-13.8 3.35 M-41.8 23.45 L-42.05 23.4 -41.8 23.45" fill="#ffffff" fill-opacity="0.0" fill-rule="evenodd" stroke="none"/>
    <path d="M24.1 49.5 L28.2 48.8 48.25 44.3 Q41.05 20.75 37.25 4.55 33.8 -9.9 33.85 -15.05 M12.6 50.8 L10.65 50.9 Q5.85 51.15 -0.3 51.05 L-13.45 50.15 -29.6 47.8 -47.55 44.7 -42.05 23.4 -43.65 23.15 -38.9 0.75 -39.65 0.65 -36.45 -9.3 -34.95 -9.15 Q-34.05 -12.1 -33.75 -15.05 M-34.7 -9.15 L-34.95 -9.15 M-42.05 23.4 L-41.8 23.45" fill="none" stroke="#000000" stroke-linecap="round" stroke-linejoin="round" stroke-width="1.0"/>
    <path d="M-28.85 0.3 L-29.95 -0.15 Q-30.35 -0.55 -30.3 -1.1 -30.25 -1.65 -29.8 -2.0 L-28.6 -2.35 Q-28.0 -2.3 -27.6 -1.85 -27.15 -1.45 -27.2 -0.9 -27.25 -0.35 -27.75 0.0 -28.15 0.35 -28.85 0.3 M-38.9 0.75 L-26.35 2.4 -18.4 3.15 -13.8 3.35 -10.95 3.05 Q-9.15 2.15 -9.05 -2.8 L-9.35 -7.45 -34.7 -9.15 M-41.8 23.45 L-31.1 25.0 Q-18.15 26.55 -16.65 25.4 -15.05 24.35 -14.3 13.45 L-13.8 3.35" fill="none" stroke="#000000" stroke-linecap="round" stroke-linejoin="round" stroke-opacity="0.4" stroke-width="1.0"/>
    <path d="M16.2 -15.85 Q20.65 42.55 24.1 49.5 M16.15 -15.85 L16.15 -16.45 16.2 -15.85 M16.15 -15.85 Q17.55 46.6 12.85 50.8 L12.6 50.8" fill="none" stroke="#000000" stroke-linecap="butt" stroke-linejoin="bevel" stroke-opacity="0.4" stroke-width="1.0"/>
  </g>
</svg>
