<?xml version="1.0" encoding="UTF-8" standalone="no"?>
<svg xmlns:xlink="http://www.w3.org/1999/xlink" height="57.15px" width="58.05px" xmlns="http://www.w3.org/2000/svg">
  <g transform="matrix(1.0, 0.0, 0.0, 1.0, 3.6, 2.8)">
    <path d="M8.3 4.15 Q-2.75 3.85 -3.1 3.2 L-2.9 -1.4 Q12.45 0.15 32.7 -0.75 L49.9 -1.95 49.9 2.05 49.9 2.2 49.9 2.05 49.95 2.2 50.35 10.85 Q50.7 20.55 50.55 25.4 50.35 30.25 52.1 40.25 L53.85 49.25 50.75 49.75 45.85 51.4 Q43.3 52.2 42.0 52.2 L37.65 52.7 28.3 53.65 Q22.85 54.1 13.15 53.4 L4.55 52.6 Q5.95 50.25 7.35 35.85 8.55 23.25 8.55 17.6 8.55 14.1 8.85 7.35 L8.95 4.15 8.3 4.15 M49.9 2.2 L49.9 2.55 38.65 3.85 Q30.55 4.4 19.5 4.35 L17.2 4.3 8.95 4.15 17.2 4.3 19.5 4.35 Q30.55 4.4 38.65 3.85 L49.9 2.55 49.9 2.2 M39.55 45.05 Q36.15 38.35 35.45 36.3 L34.75 34.35 32.95 28.85 Q31.05 22.95 30.3 20.05 29.65 17.7 27.8 14.35 L25.7 10.65 27.8 14.35 Q29.65 17.7 30.3 20.05 31.05 22.95 32.95 28.85 L34.75 34.35 Q32.6 18.25 32.05 15.55 L30.5 10.55 Q29.25 7.2 29.25 6.65 29.25 7.2 30.5 10.55 L32.05 15.55 Q32.6 18.25 34.75 34.35 L35.45 36.3 Q36.15 38.35 39.55 45.05 M27.25 48.8 Q22.65 36.3 22.35 34.1 22.2 32.7 19.85 25.8 L17.5 19.15 21.1 34.1 Q21.85 37.45 27.25 48.8" fill="#ffffff" fill-opacity="0.0" fill-rule="evenodd" stroke="none"/>
    <path d="M17.5 19.15 L19.85 25.8 Q22.2 32.7 22.35 34.1 22.65 36.3 27.25 48.8 21.85 37.45 21.1 34.1 L17.5 19.15" fill="#000000" fill-opacity="0.2" fill-rule="evenodd" stroke="none"/>
    <path d="M49.9 2.05 L49.9 -1.95 32.7 -0.75 Q12.45 0.15 -2.9 -1.4 L-3.1 3.2 Q-2.75 3.85 8.3 4.15 M49.9 2.2 L49.9 2.05 49.95 2.2 50.35 10.85 Q50.7 20.55 50.55 25.4 50.35 30.25 52.1 40.25 L53.85 49.25 50.75 49.75 45.85 51.4 Q43.3 52.2 42.0 52.2 L37.65 52.7 28.3 53.65 Q22.85 54.1 13.15 53.4 L4.55 52.6 Q5.95 50.25 7.35 35.85 8.55 23.25 8.55 17.6 8.55 14.1 8.85 7.35 L8.95 4.15" fill="none" stroke="#000000" stroke-linecap="round" stroke-linejoin="miter-clip" stroke-miterlimit="10.0" stroke-width="1.0"/>
    <path d="M8.3 4.15 L8.95 4.15 17.2 4.3 19.5 4.35 Q30.55 4.4 38.65 3.85 L49.9 2.55 49.9 2.2 M25.7 10.65 L27.8 14.35 Q29.65 17.7 30.3 20.05 31.05 22.95 32.95 28.85 L34.75 34.35 Q32.6 18.25 32.05 15.55 L30.5 10.55 Q29.25 7.2 29.25 6.65 M34.75 34.35 L35.45 36.3 Q36.15 38.35 39.55 45.05 M17.5 19.15 L21.1 34.1 Q21.85 37.45 27.25 48.8" fill="none" stroke="#000000" stroke-linecap="round" stroke-linejoin="miter-clip" stroke-miterlimit="10.0" stroke-opacity="0.4" stroke-width="1.0"/>
  </g>
</svg>
