<?xml version="1.0" encoding="UTF-8" standalone="no"?>
<svg xmlns:xlink="http://www.w3.org/1999/xlink" height="60.2px" width="60.2px" xmlns="http://www.w3.org/2000/svg">
  <g transform="matrix(1.0, 0.0, 0.0, 1.0, 29.75, 14.7)">
    <path d="M24.3 -12.0 L24.55 -4.7 Q27.55 11.35 28.35 18.9 L29.7 39.35 29.95 44.45 25.0 44.45 23.1 33.55 20.3 19.95 20.2 19.4 Q19.15 14.55 16.25 9.55 11.9 2.7 9.7 -1.3 L9.75 -1.3 9.55 -1.55 9.3 -1.5 9.1 -1.35 Q1.6 7.25 -2.35 19.9 -4.3 25.8 -6.75 35.45 L-9.05 45.0 -29.25 45.0 -29.25 40.75 Q-29.0 30.35 -27.95 19.1 -26.8 7.25 -24.25 -12.0 -10.9 -14.7 -0.35 -14.7 10.3 -14.7 24.3 -12.0 M-12.8 8.65 Q-14.1 14.05 -13.8 18.95 -14.1 20.3 -15.7 20.7 L-21.6 21.15 Q-25.95 21.15 -25.95 19.2 -25.95 18.15 -25.4 15.85 L-23.75 9.0 -25.4 15.85 Q-25.95 18.15 -25.95 19.2 -25.95 21.15 -21.6 21.15 L-15.7 20.7 Q-14.1 20.3 -13.8 18.95 -14.1 14.05 -12.8 8.65 -13.45 9.15 -14.5 9.5 L-15.55 9.75 -23.75 9.0 -15.55 9.75 -14.5 9.5 Q-13.45 9.15 -12.8 8.65 -12.25 7.65 -11.55 5.0 L-21.55 4.4 Q-23.35 4.4 -23.7 4.85 -24.25 5.5 -24.55 8.9 L-23.75 9.0 -24.55 8.9 Q-24.25 5.5 -23.7 4.85 -23.35 4.4 -21.55 4.4 L-11.55 5.0 Q-12.25 7.65 -12.8 8.65" fill="#ffffff" fill-opacity="0.0" fill-rule="evenodd" stroke="none"/>
    <path d="M-12.8 8.65 Q-13.45 9.15 -14.5 9.5 L-15.55 9.75 -23.75 9.0" fill="none" stroke="#000000" stroke-linecap="butt" stroke-linejoin="miter-clip" stroke-miterlimit="10.0" stroke-opacity="0.4" stroke-width="1.0"/>
    <path d="M9.75 -1.3 L9.7 -1.3 Q11.9 2.7 16.25 9.55 19.15 14.55 20.2 19.4 L20.3 19.95 23.1 33.55 25.0 44.45 29.95 44.45 29.7 39.35 28.35 18.9 Q27.55 11.35 24.55 -4.7 L24.3 -12.0 M-24.25 -12.0 Q-26.8 7.25 -27.95 19.1 -29.0 30.35 -29.25 40.75 L-29.25 45.0 -9.05 45.0 -6.75 35.45 Q-4.3 25.8 -2.35 19.9 1.6 7.25 9.1 -1.35 L9.7 -1.3 9.55 -1.55 9.3 -1.5" fill="none" stroke="#000000" stroke-linecap="butt" stroke-linejoin="miter-clip" stroke-miterlimit="10.0" stroke-width="1.0"/>
    <path d="M-23.75 9.0 L-25.4 15.85 Q-25.95 18.15 -25.95 19.2 -25.95 21.15 -21.6 21.15 L-15.7 20.7 Q-14.1 20.3 -13.8 18.95 -14.1 14.05 -12.8 8.65 -12.25 7.65 -11.55 5.0 L-21.55 4.4 Q-23.35 4.4 -23.7 4.85 -24.25 5.5 -24.55 8.9 L-23.75 9.0" fill="none" stroke="#000000" stroke-linecap="butt" stroke-linejoin="miter-clip" stroke-miterlimit="10.0" stroke-opacity="0.6" stroke-width="1.0"/>
    <path d="M-29.25 41.55 L-12.6 41.05 Q-9.95 27.45 -5.5 14.55 -0.7 0.7 3.2 -3.55 M13.2 -4.1 Q16.7 1.9 20.35 7.15 22.8 10.65 23.4 12.25 24.15 14.3 25.05 20.25 L27.9 40.15 29.7 40.15" fill="none" stroke="#000000" stroke-linecap="butt" stroke-linejoin="miter-clip" stroke-miterlimit="10.0" stroke-opacity="0.4" stroke-width="1.0"/>
    <path d="M-16.95 -4.45 L-17.5 -0.4 M-6.8 -4.4 Q-7.25 -2.2 -7.7 -1.15 -8.15 0.05 -8.1 1.15 M19.25 -4.3 Q21.7 -1.0 23.5 3.5 25.4 8.2 25.2 8.3" fill="none" stroke="#000000" stroke-linecap="butt" stroke-linejoin="miter-clip" stroke-miterlimit="10.0" stroke-opacity="0.24705882" stroke-width="1.0"/>
  </g>
</svg>
