<?xml version="1.0" encoding="UTF-8" standalone="no"?>
<svg xmlns:xlink="http://www.w3.org/1999/xlink" height="24.65px" width="62.75px" xmlns="http://www.w3.org/2000/svg">
  <g transform="matrix(1.0, 0.0, 0.0, 1.0, 31.6, 9.35)">
    <path d="M23.1 -7.9 L20.05 -7.65 15.0 -7.15 Q-2.65 -5.3 -13.8 -1.45 L-27.05 -0.5 -30.85 0.1 Q-31.25 -1.1 -30.3 -2.35 -19.15 -6.2 -1.5 -8.05 L3.55 -8.55 5.0 -8.65 6.6 -8.65 6.75 -8.65 7.0 -8.65 23.1 -7.9" fill="#000000" fill-opacity="0.09803922" fill-rule="evenodd" stroke="none"/>
    <path d="M-13.8 -1.45 Q-2.65 -5.3 15.0 -7.15 L20.05 -7.65 23.1 -7.9 23.2 -7.9 29.15 -7.35 Q30.5 -4.75 30.5 -2.25 L26.55 -2.25 Q14.6 -2.65 14.45 -2.4 8.85 -1.0 8.6 -0.3 L8.3 0.75 Q8.1 2.1 7.6 2.1 6.5 2.1 5.55 1.2 4.6 0.3 4.2 0.3 3.5 0.3 2.7 2.45 L0.75 7.45 Q0.2 8.7 -0.2 12.55 -0.4 14.65 -2.3 14.65 L-3.35 13.95 Q-4.35 12.95 -4.35 11.15 -4.35 9.55 -3.55 7.35 -2.7 5.1 -2.7 3.9 -2.7 3.2 -2.95 2.85 L-4.4 3.9 Q-5.45 4.9 -6.1 4.9 -8.05 4.9 -8.05 4.0 L-7.3 2.75 Q-6.65 1.5 -6.65 0.8 -6.65 0.15 -6.9 -0.3 L-7.2 -0.6 -11.75 -1.5 -13.8 -1.45 M5.0 -8.65 L3.55 -8.55 -1.5 -8.05 Q-19.15 -6.2 -30.3 -2.35 -30.85 -3.8 -30.2 -4.95 L-29.2 -7.35 5.0 -8.65" fill="#ffffff" fill-opacity="0.0" fill-rule="evenodd" stroke="none"/>
    <path d="M23.1 -7.9 L20.05 -7.65 15.0 -7.15 Q-2.65 -5.3 -13.8 -1.45 M5.0 -8.65 L3.55 -8.55 -1.5 -8.05 Q-19.15 -6.2 -30.3 -2.35" fill="none" stroke="#000000" stroke-linecap="round" stroke-linejoin="miter-clip" stroke-miterlimit="5.0" stroke-opacity="0.24705882" stroke-width="1.0"/>
    <path d="M-13.8 -1.45 L-11.75 -1.5 -7.2 -0.6 -6.9 -0.3 Q-6.65 0.15 -6.65 0.8 -6.65 1.5 -7.3 2.75 L-8.05 4.0 Q-8.05 4.9 -6.1 4.9 -5.45 4.9 -4.4 3.9 L-2.95 2.85 Q-2.7 3.2 -2.7 3.9 -2.7 5.1 -3.55 7.35 -4.35 9.55 -4.35 11.15 -4.35 12.95 -3.35 13.95 L-2.3 14.65 Q-0.4 14.65 -0.2 12.55 0.2 8.7 0.75 7.45 L2.7 2.45 Q3.5 0.3 4.2 0.3 4.6 0.3 5.55 1.2 6.5 2.1 7.6 2.1 8.1 2.1 8.3 0.75 L8.6 -0.3 Q8.85 -1.0 14.45 -2.4 14.6 -2.65 26.55 -2.25 L30.5 -2.25 Q30.5 -4.75 29.15 -7.35 L23.2 -7.9 23.1 -7.9 7.0 -8.65 6.75 -8.65 6.6 -8.65 5.0 -8.65 -29.2 -7.35 -30.2 -4.95 Q-30.85 -3.8 -30.3 -2.35 -31.25 -1.1 -30.85 0.1 L-27.05 -0.5 -13.8 -1.45" fill="none" stroke="#000000" stroke-linecap="round" stroke-linejoin="miter-clip" stroke-miterlimit="5.0" stroke-opacity="0.6" stroke-width="1.0"/>
  </g>
</svg>
