<?xml version="1.0" encoding="UTF-8" standalone="no"?>
<svg xmlns:xlink="http://www.w3.org/1999/xlink" height="10.75px" width="51.8px" xmlns="http://www.w3.org/2000/svg">
  <g transform="matrix(1.0, 0.0, 0.0, 1.0, 25.9, 6.1)">
    <path d="M8.35 -2.6 L10.25 -2.75 12.75 -3.05 17.1 -3.65 18.65 -3.95 21.2 -4.2 24.75 -4.7 Q25.65 -2.2 24.95 1.4 L21.2 1.9 18.65 2.25 12.65 3.4 8.7 3.85 Q-10.75 4.75 -24.95 0.75 -25.65 -3.3 -24.7 -5.45 -10.95 -2.55 2.5 -2.5 L8.35 -2.6" fill="#ffffff" fill-opacity="0.0" fill-rule="evenodd" stroke="none"/>
    <path d="M8.35 -2.6 L10.25 -2.75 12.75 -3.05 17.1 -3.65 18.65 -3.95 21.2 -4.2 24.75 -4.7 Q25.65 -2.2 24.95 1.4 L21.2 1.9 18.65 2.25 12.65 3.4 8.7 3.85 Q-10.75 4.75 -24.95 0.75 -25.65 -3.3 -24.7 -5.45 -10.95 -2.55 2.5 -2.5 L8.35 -2.6 Z" fill="none" stroke="#000000" stroke-linecap="square" stroke-linejoin="round" stroke-width="1.0"/>
  </g>
</svg>
