<?xml version="1.0" encoding="UTF-8" standalone="no"?>
<svg xmlns:xlink="http://www.w3.org/1999/xlink" height="7.1px" width="19.0px" xmlns="http://www.w3.org/2000/svg">
  <g transform="matrix(1.0, 0.0, 0.0, 1.0, -5.4, 4.0)">
    <path d="M6.05 -1.65 L6.15 -2.25 14.85 -2.9 20.65 -3.3 23.65 -3.3 Q23.65 -2.85 23.75 -2.85 L23.75 0.45 23.65 1.0 15.25 2.05 6.05 2.45 6.05 1.7 6.05 -1.65" fill="#ffffff" fill-opacity="0.0" fill-rule="evenodd" stroke="none"/>
    <path d="M23.75 -2.85 Q23.65 -2.85 23.65 -3.3 L20.65 -3.3 14.85 -2.9 6.15 -2.25 6.05 -1.65 M6.05 1.7 L6.05 2.45 15.25 2.05 23.65 1.0 23.75 0.45" fill="none" stroke="#000000" stroke-linecap="square" stroke-linejoin="round" stroke-width="1.0"/>
    <path d="M6.05 -1.65 L6.05 1.7 M23.75 0.45 L23.75 -2.85 Z" fill="none" stroke="#000000" stroke-linecap="square" stroke-linejoin="round" stroke-opacity="0.49803922" stroke-width="1.0"/>
  </g>
</svg>
