<?xml version="1.0" encoding="UTF-8" standalone="no"?>
<svg xmlns:xlink="http://www.w3.org/1999/xlink" height="7.25px" width="52.25px" xmlns="http://www.w3.org/2000/svg">
  <g transform="matrix(1.0, 0.0, 0.0, 1.0, 26.15, 4.05)">
    <path d="M14.55 -2.35 L18.5 -2.75 21.25 -2.95 25.3 -3.4 Q25.65 -1.2 25.3 0.8 L21.25 1.25 18.45 1.5 11.3 2.3 6.0 2.5 Q-8.65 2.8 -25.25 0.8 -25.7 -1.3 -25.25 -3.4 -12.05 -1.65 6.0 -1.85 L10.95 -1.95 14.55 -2.35" fill="#ffffff" fill-opacity="0.0" fill-rule="evenodd" stroke="none"/>
    <path d="M14.55 -2.35 L18.5 -2.75 21.25 -2.95 25.3 -3.4 Q25.65 -1.2 25.3 0.8 L21.25 1.25 18.45 1.5 11.3 2.3 6.0 2.5 Q-8.65 2.8 -25.25 0.8 -25.7 -1.3 -25.25 -3.4 -12.05 -1.65 6.0 -1.85 L10.95 -1.95 14.55 -2.35 Z" fill="none" stroke="#000000" stroke-linecap="square" stroke-linejoin="round" stroke-width="1.0"/>
    <path d="M3.2 -0.3 L3.6 -0.15 3.8 0.3 3.6 0.7 3.2 0.9 2.75 0.7 Q2.6 0.55 2.6 0.3 L2.75 -0.15 3.2 -0.3 M8.9 -0.5 L9.3 -0.35 9.5 0.1 9.3 0.5 8.9 0.7 8.45 0.5 8.3 0.1 8.45 -0.35 8.9 -0.5 M19.85 -1.2 L20.3 -1.35 20.7 -1.2 20.9 -0.75 20.7 -0.35 20.3 -0.15 19.85 -0.35 Q19.7 -0.5 19.7 -0.75 L19.85 -1.2 M23.75 -0.75 Q23.6 -0.55 23.35 -0.55 23.1 -0.55 22.9 -0.75 22.75 -0.9 22.75 -1.15 L22.9 -1.6 23.35 -1.75 23.75 -1.6 23.95 -1.15 23.75 -0.75 M-22.65 -0.65 Q-22.8 -0.45 -23.05 -0.45 L-23.5 -0.65 -23.65 -1.05 -23.5 -1.5 -23.05 -1.65 -22.65 -1.5 -22.45 -1.05 -22.65 -0.65 M-19.3 -0.6 L-19.15 -1.05 -18.7 -1.2 -18.3 -1.05 -18.1 -0.6 -18.3 -0.2 Q-18.45 0.0 -18.7 0.0 -18.95 0.0 -19.15 -0.2 L-19.3 -0.6 M-14.05 -0.55 L-13.6 -0.7 -13.2 -0.55 -13.0 -0.1 -13.2 0.3 Q-13.35 0.5 -13.6 0.5 L-14.05 0.3 -14.2 -0.1 -14.05 -0.55 M-2.4 -0.05 L-2.2 0.4 -2.4 0.8 Q-2.55 1.0 -2.8 1.0 L-3.25 0.8 -3.4 0.4 -3.25 -0.05 -2.8 -0.2 -2.4 -0.05 M-8.1 -0.15 L-7.9 0.3 -8.1 0.7 Q-8.25 0.9 -8.5 0.9 L-8.95 0.7 -9.1 0.3 -8.95 -0.15 -8.5 -0.3 -8.1 -0.15" fill="#000000" fill-opacity="0.2" fill-rule="evenodd" stroke="none"/>
    <path d="M3.2 -0.3 L3.6 -0.15 3.8 0.3 3.6 0.7 3.2 0.9 2.75 0.7 Q2.6 0.55 2.6 0.3 L2.75 -0.15 3.2 -0.3 M8.9 -0.5 L9.3 -0.35 9.5 0.1 9.3 0.5 8.9 0.7 8.45 0.5 8.3 0.1 8.45 -0.35 8.9 -0.5 M19.85 -1.2 L20.3 -1.35 20.7 -1.2 20.9 -0.75 20.7 -0.35 20.3 -0.15 19.85 -0.35 Q19.7 -0.5 19.7 -0.75 L19.85 -1.2 M23.75 -0.75 Q23.6 -0.55 23.35 -0.55 23.1 -0.55 22.9 -0.75 22.75 -0.9 22.75 -1.15 L22.9 -1.6 23.35 -1.75 23.75 -1.6 23.95 -1.15 23.75 -0.75 M-22.65 -0.65 Q-22.8 -0.45 -23.05 -0.45 L-23.5 -0.65 -23.65 -1.05 -23.5 -1.5 -23.05 -1.65 -22.65 -1.5 -22.45 -1.05 -22.65 -0.65 M-19.3 -0.6 L-19.15 -1.05 -18.7 -1.2 -18.3 -1.05 -18.1 -0.6 -18.3 -0.2 Q-18.45 0.0 -18.7 0.0 -18.95 0.0 -19.15 -0.2 L-19.3 -0.6 M-14.05 -0.55 L-13.6 -0.7 -13.2 -0.55 -13.0 -0.1 -13.2 0.3 Q-13.35 0.5 -13.6 0.5 L-14.05 0.3 -14.2 -0.1 -14.05 -0.55 M-2.4 -0.05 L-2.2 0.4 -2.4 0.8 Q-2.55 1.0 -2.8 1.0 L-3.25 0.8 -3.4 0.4 -3.25 -0.05 -2.8 -0.2 -2.4 -0.05 M-8.1 -0.15 L-7.9 0.3 -8.1 0.7 Q-8.25 0.9 -8.5 0.9 L-8.95 0.7 -9.1 0.3 -8.95 -0.15 -8.5 -0.3 -8.1 -0.15" fill="none" stroke="#000000" stroke-linecap="square" stroke-linejoin="round" stroke-opacity="0.4" stroke-width="1.0"/>
  </g>
</svg>
