<?xml version="1.0" encoding="UTF-8" standalone="no"?>
<svg xmlns:xlink="http://www.w3.org/1999/xlink" height="8.2px" width="56.6px" xmlns="http://www.w3.org/2000/svg">
  <g transform="matrix(1.0, 0.0, 0.0, 1.0, 28.4, 4.8)">
    <path d="M27.55 -0.15 L21.3 1.15 17.1 1.7 16.85 1.75 4.2 2.7 -3.75 2.7 -15.8 1.8 -27.75 0.2 Q-27.75 -1.6 -27.0 -3.9 -11.55 -1.7 -3.75 -1.8 L4.05 -1.8 4.25 -1.8 16.9 -2.4 17.15 -2.4 17.45 -2.45 Q23.4 -3.0 26.9 -4.15 L27.55 -0.15" fill="#ffffff" fill-opacity="0.0" fill-rule="evenodd" stroke="none"/>
    <path d="M27.55 -0.15 L21.3 1.15 17.1 1.7 16.85 1.75 4.2 2.7 -3.75 2.7 -15.8 1.8 -27.75 0.2 Q-27.75 -1.6 -27.0 -3.9 -11.55 -1.7 -3.75 -1.8 L4.05 -1.8 4.25 -1.8 16.9 -2.4 17.15 -2.4 17.45 -2.45 Q23.4 -3.0 26.9 -4.15 L27.55 -0.15 Z" fill="none" stroke="#000000" stroke-linecap="square" stroke-linejoin="round" stroke-width="1.0"/>
  </g>
</svg>
