<?xml version="1.0" encoding="UTF-8" standalone="no"?>
<svg xmlns:xlink="http://www.w3.org/1999/xlink" height="17.8px" width="17.8px" xmlns="http://www.w3.org/2000/svg">
  <g transform="matrix(1.0, 0.0, 0.0, 1.0, 8.9, 8.9)">
    <path d="M8.4 0.0 Q8.4 3.5 5.9 5.9 3.5 8.4 0.0 8.4 -3.5 8.4 -5.85 5.9 -8.4 3.5 -8.4 0.0 -8.4 -3.5 -5.85 -5.9 -3.5 -8.4 0.0 -8.4 3.5 -8.4 5.9 -5.9 8.4 -3.5 8.4 0.0" fill="#ffffff" fill-opacity="0.0" fill-rule="evenodd" stroke="none"/>
    <path d="M8.4 0.0 Q8.4 3.5 5.9 5.9 3.5 8.4 0.0 8.4 -3.5 8.4 -5.85 5.9 -8.4 3.5 -8.4 0.0 -8.4 -3.5 -5.85 -5.9 -3.5 -8.4 0.0 -8.4 3.5 -8.4 5.9 -5.9 8.4 -3.5 8.4 0.0 Z" fill="none" stroke="#000000" stroke-linecap="butt" stroke-linejoin="miter-clip" stroke-miterlimit="10.0" stroke-width="1.0"/>
  </g>
</svg>
