<?xml version="1.0" encoding="UTF-8" standalone="no"?>
<svg xmlns:xlink="http://www.w3.org/1999/xlink" height="33.95px" width="36.6px" xmlns="http://www.w3.org/2000/svg">
  <g transform="matrix(1.0, 0.0, 0.0, 1.0, 18.25, 16.95)">
    <path d="M-10.0 -5.6 L-10.55 -13.25 -13.75 -12.8 -14.3 -11.0 Q-12.25 -18.8 -11.05 -15.45 -10.45 -13.7 -10.25 -10.5 L-10.0 -7.5 -10.0 -7.25 -10.0 -6.4 -10.0 -5.6 -10.0 -6.4 -10.0 -5.4 -10.0 -5.6 M-4.95 12.45 L-5.2 11.95 -4.75 12.85 -4.95 12.45 M-6.75 7.8 Q-9.9 9.1 -12.55 8.85 -14.3 8.7 -15.05 7.9 L-15.5 7.05 -15.2 6.3 Q-14.6 5.55 -13.55 5.5 -12.4 5.4 -9.95 4.0 L-10.1 3.55 -13.1 3.4 -14.3 2.95 -14.35 1.8 Q-14.3 0.7 -13.7 0.7 -12.8 0.7 -10.55 -0.9 L-10.55 -1.25 -13.3 -0.65 -12.95 -3.2 -12.35 -4.85 Q-11.15 -4.8 -10.0 -5.3 L-10.05 -4.1 -10.0 -5.3 -10.05 -4.1 -10.2 -3.15 -10.2 -3.1 -10.25 -3.0 Q-10.7 -1.2 -10.45 1.2 -10.25 3.9 -9.2 5.55 -8.4 6.75 -6.75 7.8 M0.1 -12.9 L-0.35 -10.55 -1.45 -6.2 Q-2.0 -4.4 -1.7 -0.9 L-3.2 -0.3 -4.3 -0.45 -4.55 -1.5 -4.6 -2.7 Q-5.35 -5.7 -6.1 -6.9 -3.35 -7.2 -0.8 -8.85 L0.1 -12.9 M-1.65 -0.4 L-0.95 3.9 -1.1 3.4 -1.3 3.4 Q-3.55 4.65 -3.95 4.5 -4.3 4.35 -4.45 3.15 L-4.4 1.45 Q-3.35 1.3 -1.65 -0.4 M-0.8 4.45 L0.35 7.95 -1.85 8.55 -3.4 8.4 -3.85 6.9 -4.1 5.35 Q-2.45 5.4 -0.8 4.45 M0.95 9.25 L2.0 10.9 Q3.1 12.15 7.4 12.6 L13.75 12.75 Q15.55 12.6 16.85 13.95 17.5 14.65 17.75 15.4 15.95 15.7 15.05 16.15 L14.5 16.5 9.5 15.9 6.1 15.7 2.45 14.8 -0.25 14.25 Q-1.75 13.8 -2.95 12.85 -4.55 11.65 -4.3 10.3 -0.5 10.15 0.95 9.25" fill="#ffffff" fill-opacity="0.0" fill-rule="evenodd" stroke="none"/>
    <path d="M-14.3 -11.0 L-13.75 -12.8 -10.55 -13.25 -10.0 -5.6 -10.0 -5.3 -10.0 -5.6 -10.0 -5.4 -10.0 -5.3 Q-11.15 -4.8 -12.35 -4.85 L-12.95 -3.2 -13.3 -0.65 -10.55 -1.25 -10.55 -0.9 Q-12.8 0.7 -13.7 0.7 -14.3 0.7 -14.35 1.8 L-14.3 2.95 -13.1 3.4 -10.1 3.55 -9.95 4.0 Q-12.4 5.4 -13.55 5.5 -14.6 5.55 -15.2 6.3 L-15.5 7.05 -15.05 7.9 Q-14.3 8.7 -12.55 8.85 -9.9 9.1 -6.75 7.8 L-5.3 8.5 -6.75 7.8 -6.7 7.75 -6.65 7.75 -5.3 8.5 -5.2 11.95 -5.3 8.5 -5.45 2.35 Q-5.45 0.3 -6.5 -5.85 L-7.6 -11.55 Q-7.3 -15.5 -3.55 -14.6 -1.7 -14.15 0.1 -12.9 L-0.8 -8.85 Q-3.35 -7.2 -6.1 -6.9 -5.35 -5.7 -4.6 -2.7 L-4.55 -1.5 -4.3 -0.45 -3.2 -0.3 -1.7 -0.9 -1.6 -0.45 -1.65 -0.4 -1.7 -0.9 -1.65 -0.4 Q-3.35 1.3 -4.4 1.45 L-4.45 3.15 Q-4.3 4.35 -3.95 4.5 -3.55 4.65 -1.3 3.4 L-1.1 3.4 -0.95 3.9 -0.9 4.0 -0.85 4.15 -0.8 4.4 -0.8 4.45 Q-2.45 5.4 -4.1 5.35 L-3.85 6.9 -3.4 8.4 -1.85 8.55 0.35 7.95 0.95 9.25 0.35 7.95 0.95 9.25 Q-0.5 10.15 -4.3 10.3 -4.55 11.65 -2.95 12.85 -1.75 13.8 -0.25 14.25 L2.45 14.8 6.1 15.7 6.2 15.75 4.75 15.65 3.8 15.6 3.2 15.55 2.3 15.5 -2.0 15.15 Q-3.5 15.0 -4.45 13.45 L-4.75 12.85 -5.2 11.95 -4.95 12.45 Q-15.2 12.95 -16.4 12.45 -17.2 12.15 -17.6 10.35 L-17.75 8.7 -17.15 5.35 Q-16.3 1.6 -15.35 -0.6 -13.75 -4.05 -14.3 -11.0 M-0.9 4.0 L-0.8 4.4 -0.9 4.0 M6.1 15.7 L4.75 15.65 6.1 15.7" fill="#000000" fill-opacity="0.2" fill-rule="evenodd" stroke="none"/>
    <path d="M-14.3 -11.0 Q-13.75 -4.05 -15.35 -0.6 -16.3 1.6 -17.15 5.35 L-17.75 8.7 -17.6 10.35 Q-17.2 12.15 -16.4 12.45 -15.2 12.95 -4.95 12.45 M-5.3 8.5 L-6.75 7.8 Q-8.4 6.75 -9.2 5.55 -10.25 3.9 -10.45 1.2 -10.7 -1.2 -10.25 -3.0 L-10.2 -3.1 -10.2 -3.15 -10.05 -4.1 -10.0 -5.3 -10.0 -5.6 -10.0 -6.4 -10.0 -7.25 -10.0 -7.5 -10.25 -10.5 Q-10.45 -13.7 -11.05 -15.45 -12.25 -18.8 -14.3 -11.0 M-1.7 -0.9 Q-2.0 -4.4 -1.45 -6.2 L-0.35 -10.55 0.1 -12.9 Q-1.7 -14.15 -3.55 -14.6 -7.3 -15.5 -7.6 -11.55 L-6.5 -5.85 Q-5.45 0.3 -5.45 2.35 L-5.3 8.5 M-1.65 -0.4 L-0.95 3.9 -0.9 4.0 -0.8 4.4 -0.8 4.45 0.35 7.95 0.95 9.25 2.0 10.9 Q3.1 12.15 7.4 12.6 L13.75 12.75 Q15.55 12.6 16.85 13.95 17.5 14.65 17.75 15.4 15.95 15.7 15.05 16.15 L14.5 16.5 9.5 15.9 6.1 15.7 4.75 15.65 3.8 15.6 2.3 15.5 -2.0 15.15 Q-3.5 15.0 -4.45 13.45 L-4.75 12.85 -5.2 11.95 M-1.65 -0.4 L-1.7 -0.9" fill="none" stroke="#000000" stroke-linecap="butt" stroke-linejoin="miter-clip" stroke-miterlimit="10.0" stroke-width="1.0"/>
    <path d="M-5.2 11.95 L-5.3 8.5" fill="none" stroke="#000000" stroke-linecap="butt" stroke-linejoin="miter-clip" stroke-miterlimit="10.0" stroke-opacity="0.6" stroke-width="1.0"/>
  </g>
</svg>
