<?xml version="1.0" encoding="UTF-8" standalone="no"?>
<svg xmlns:xlink="http://www.w3.org/1999/xlink" height="35.2px" width="36.5px" xmlns="http://www.w3.org/2000/svg">
  <g transform="matrix(1.0, 0.0, 0.0, 1.0, 18.2, 17.7)">
    <path d="M-13.75 -12.8 Q-12.15 -18.35 -11.1 -15.45 L-10.55 -13.25 -13.75 -12.8 M-10.5 -13.0 L-10.45 -12.35 -10.25 -10.5 -10.05 -7.55 Q-9.95 -4.35 -10.25 -3.0 L-10.5 -1.25 -13.35 -0.65 -12.95 -3.2 -12.35 -4.85 Q-11.45 -4.8 -10.05 -5.3 L-10.5 -12.9 -10.5 -13.0 M-10.55 -0.9 L-10.5 1.2 Q-10.25 3.9 -9.2 5.55 -8.35 6.75 -6.75 7.75 -9.8 9.1 -12.6 8.8 -14.3 8.65 -15.05 7.8 L-15.5 7.0 -15.15 6.25 Q-14.6 5.55 -13.55 5.5 -12.2 5.4 -9.95 4.0 L-10.1 3.55 -13.1 3.4 -14.3 2.95 -14.3 1.8 Q-14.25 0.7 -13.65 0.7 -12.8 0.7 -10.55 -0.9 M-0.85 -8.75 L-1.5 -6.2 Q-2.0 -4.4 -1.7 -0.9 L-3.2 -0.3 Q-4.05 -0.05 -4.35 -0.45 L-4.5 -1.5 -4.55 -2.7 Q-5.3 -5.7 -6.05 -6.9 -3.35 -7.2 -0.85 -8.75 M-1.65 -0.45 L-1.05 3.3 -0.9 3.9 Q0.3 8.95 2.05 10.9 3.1 12.15 7.35 12.6 10.8 13.0 13.75 12.75 15.55 12.6 16.8 13.95 17.5 14.65 17.7 15.4 15.9 15.7 15.0 16.15 L14.55 16.45 4.1 15.65 6.15 15.75 Q4.9 15.25 2.5 14.8 L-0.3 14.2 Q-1.8 13.8 -3.0 12.85 -4.5 11.65 -4.25 10.3 -0.5 10.15 0.9 9.25 L0.3 7.95 -1.8 8.55 -3.35 8.35 -3.8 6.9 -4.05 5.35 Q-2.45 5.35 -0.8 4.45 L-1.05 3.3 -1.35 3.4 Q-3.5 4.65 -3.95 4.5 -4.7 4.2 -4.4 1.35 -3.45 1.2 -1.65 -0.45 M-7.7 12.5 L-8.75 12.55 -13.2 12.7 -14.3 12.65 -9.6 12.55 -7.7 12.5 M-10.45 -12.35 L-10.5 -12.9 -10.45 -12.35" fill="#ffffff" fill-opacity="0.0" fill-rule="evenodd" stroke="none"/>
    <path d="M-13.75 -12.8 L-10.55 -13.25 -10.5 -13.0 -10.5 -12.9 -10.55 -13.25 -10.5 -12.9 -10.05 -5.3 Q-11.45 -4.8 -12.35 -4.85 L-12.95 -3.2 -13.35 -0.65 -10.5 -1.25 -10.55 -0.9 -10.5 -1.25 -10.55 -0.9 Q-12.8 0.7 -13.65 0.7 -14.25 0.7 -14.3 1.8 L-14.3 2.95 -13.1 3.4 -10.1 3.55 -9.95 4.0 Q-12.2 5.4 -13.55 5.5 -14.6 5.55 -15.15 6.25 L-15.5 7.0 -15.05 7.8 Q-14.3 8.65 -12.6 8.8 -9.8 9.1 -6.75 7.75 L-6.65 7.75 -5.3 8.5 -5.45 2.35 Q-5.45 0.3 -6.5 -5.85 L-7.55 -11.55 Q-7.25 -15.5 -3.5 -14.6 -1.65 -14.15 0.15 -12.9 L-0.75 -8.85 -0.85 -8.75 Q-3.35 -7.2 -6.05 -6.9 -5.3 -5.7 -4.55 -2.7 L-4.5 -1.5 -4.35 -0.45 Q-4.05 -0.05 -3.2 -0.3 L-1.7 -0.9 -1.65 -0.45 Q-3.45 1.2 -4.4 1.35 -4.7 4.2 -3.95 4.5 -3.5 4.65 -1.35 3.4 L-1.05 3.3 -0.8 4.45 Q-2.45 5.35 -4.05 5.35 L-3.8 6.9 -3.35 8.35 -1.8 8.55 0.3 7.95 0.9 9.25 Q-0.5 10.15 -4.25 10.3 -4.5 11.65 -3.0 12.85 -1.8 13.8 -0.3 14.2 L2.5 14.8 Q4.9 15.25 6.15 15.75 L4.1 15.65 -2.0 15.15 Q-3.5 15.0 -4.5 13.45 L-4.8 12.75 -4.95 12.4 -6.0 12.45 -6.35 12.45 -7.15 12.5 -7.7 12.5 -9.6 12.55 -14.3 12.65 -16.35 12.45 -16.4 12.45 Q-17.25 12.15 -17.55 10.35 L-17.7 8.7 Q-16.95 2.85 -15.3 -0.6 -13.7 -4.05 -14.25 -11.0 L-14.2 -11.05 -14.2 -11.15 -14.1 -11.55 -13.95 -12.1 -13.8 -12.8 -13.75 -12.8 -13.95 -12.1 -13.75 -12.8 M-6.75 7.75 L-5.3 8.5 -5.15 11.95 -4.8 12.75 -5.15 11.95 -5.3 8.5 -6.75 7.75 M-0.85 -8.75 L0.15 -12.9 -0.85 -8.75" fill="#000000" fill-opacity="0.2" fill-rule="evenodd" stroke="none"/>
    <path d="M-10.55 -13.25 L-11.1 -15.45 Q-12.15 -18.35 -13.75 -12.8 L-13.95 -12.1 -14.1 -11.55 -14.2 -11.05 -14.25 -11.0 Q-13.7 -4.05 -15.3 -0.6 -16.95 2.85 -17.7 8.7 L-17.55 10.35 Q-17.25 12.15 -16.4 12.45 L-13.2 12.7 -8.75 12.55 -7.7 12.5 -7.15 12.5 -6.35 12.45 M-10.45 -12.35 L-10.25 -10.5 -10.05 -7.55 Q-9.95 -4.35 -10.25 -3.0 L-10.5 -1.25 -10.55 -0.9 -10.5 1.2 Q-10.25 3.9 -9.2 5.55 -8.35 6.75 -6.75 7.75 L-5.3 8.5 -5.45 2.35 Q-5.45 0.3 -6.5 -5.85 L-7.55 -11.55 Q-7.25 -15.5 -3.5 -14.6 -1.65 -14.15 0.15 -12.9 L-0.85 -8.75 -1.5 -6.2 Q-2.0 -4.4 -1.7 -0.9 L-1.65 -0.45 -1.05 3.3 -0.9 3.9 Q0.3 8.95 2.05 10.9 3.1 12.15 7.35 12.6 10.8 13.0 13.75 12.75 15.55 12.6 16.8 13.95 17.5 14.65 17.7 15.4 15.9 15.7 15.0 16.15 L14.55 16.45 4.1 15.65 -2.0 15.15 Q-3.5 15.0 -4.5 13.45 L-4.8 12.75 -5.15 11.95 -5.3 8.5 M-4.95 12.4 L-6.0 12.45 M-10.5 -12.9 L-10.55 -13.25 M-10.5 -12.9 L-10.45 -12.35" fill="none" stroke="#000000" stroke-linecap="butt" stroke-linejoin="miter-clip" stroke-miterlimit="10.0" stroke-width="1.0"/>
  </g>
</svg>
