<?xml version="1.0" encoding="UTF-8" standalone="no"?>
<svg xmlns:xlink="http://www.w3.org/1999/xlink" height="16.9px" width="16.45px" xmlns="http://www.w3.org/2000/svg">
  <g transform="matrix(1.0, 0.0, 0.0, 1.0, 8.35, 8.35)">
    <path d="M4.0 0.0 Q6.25 2.55 7.0 3.95 8.2 6.3 7.05 7.85 -1.35 1.65 -5.4 -2.2 L-7.55 -2.95 Q-1.85 -9.75 1.75 -7.15 1.75 -2.55 4.0 0.0" fill="#ffffff" fill-opacity="0.0" fill-rule="evenodd" stroke="none"/>
    <path d="M4.0 0.0 Q1.75 -2.55 1.75 -7.15 -1.85 -9.75 -7.55 -2.95 L-5.4 -2.2 Q-1.35 1.65 7.05 7.85 8.2 6.3 7.0 3.95 6.25 2.55 4.0 0.0 Z" fill="none" stroke="#000000" stroke-linecap="butt" stroke-linejoin="miter-clip" stroke-miterlimit="10.0" stroke-width="1.0"/>
    <path d="M-2.7 -4.0 Q-0.8 -0.3 3.45 3.8 L7.3 7.1 6.25 7.2 Q0.75 2.85 -1.5 -1.0 L-2.7 -4.0" fill="#000000" fill-opacity="0.4" fill-rule="evenodd" stroke="none"/>
  </g>
</svg>
