<?xml version="1.0" encoding="UTF-8" standalone="no"?>
<svg xmlns:xlink="http://www.w3.org/1999/xlink" height="36.1px" width="222.65px" xmlns="http://www.w3.org/2000/svg">
  <g transform="matrix(1.0, 0.0, 0.0, 1.0, 111.3, 18.05)">
    <path d="M-79.65 -0.65 Q-79.65 -1.9 -80.55 -2.9 -81.55 -3.8 -82.8 -3.8 -84.15 -3.8 -85.05 -2.9 -85.95 -1.9 -85.95 -0.65 -85.95 0.7 -85.05 1.6 -84.15 2.5 -82.8 2.5 -81.55 2.5 -80.55 1.6 -79.65 0.7 -79.65 -0.65 M-93.15 6.55 Q-94.5 6.55 -95.4 7.45 -96.3 8.45 -96.3 9.7 -96.3 11.05 -95.4 11.95 -94.5 12.85 -93.15 12.85 -91.9 12.85 -90.9 11.95 -90.0 11.05 -90.0 9.7 -90.0 8.45 -90.9 7.45 -91.9 6.55 -93.15 6.55 M-100.35 -0.65 Q-100.35 -1.9 -101.25 -2.9 -102.25 -3.8 -103.5 -3.8 -104.85 -3.8 -105.75 -2.9 -106.65 -1.9 -106.65 -0.65 -106.65 0.7 -105.75 1.6 -104.85 2.5 -103.5 2.5 -102.25 2.5 -101.25 1.6 -100.35 0.7 -100.35 -0.65 M-105.65 -12.45 Q-100.55 -17.55 -93.25 -17.55 -85.95 -17.55 -80.85 -12.45 -75.7 -7.3 -75.7 0.0 -75.7 7.3 -80.85 12.4 -85.95 17.55 -93.25 17.55 -100.55 17.55 -105.65 12.4 -110.8 7.3 -110.8 0.0 -110.8 -7.3 -105.65 -12.45 M-90.9 -8.75 Q-90.0 -9.65 -90.0 -11.0 -90.0 -12.25 -90.9 -13.25 -91.9 -14.15 -93.15 -14.15 -94.5 -14.15 -95.4 -13.25 -96.3 -12.25 -96.3 -11.0 -96.3 -9.65 -95.4 -8.75 -94.5 -7.85 -93.15 -7.85 -91.9 -7.85 -90.9 -8.75" fill="#000000" fill-opacity="0.09803922" fill-rule="evenodd" stroke="none"/>
    <path d="M-90.9 -8.75 Q-91.9 -7.85 -93.15 -7.85 -94.5 -7.85 -95.4 -8.75 -96.3 -9.65 -96.3 -11.0 -96.3 -12.25 -95.4 -13.25 -94.5 -14.15 -93.15 -14.15 -91.9 -14.15 -90.9 -13.25 -90.0 -12.25 -90.0 -11.0 -90.0 -9.65 -90.9 -8.75 M-105.65 -12.45 Q-110.8 -7.3 -110.8 0.0 -110.8 7.3 -105.65 12.4 -100.55 17.55 -93.25 17.55 -85.95 17.55 -80.85 12.4 -75.7 7.3 -75.7 0.0 -75.7 -7.3 -80.85 -12.45 -85.95 -17.55 -93.25 -17.55 -100.55 -17.55 -105.65 -12.45 M-100.35 -0.65 Q-100.35 0.7 -101.25 1.6 -102.25 2.5 -103.5 2.5 -104.85 2.5 -105.75 1.6 -106.65 0.7 -106.65 -0.65 -106.65 -1.9 -105.75 -2.9 -104.85 -3.8 -103.5 -3.8 -102.25 -3.8 -101.25 -2.9 -100.35 -1.9 -100.35 -0.65 M-93.15 6.55 Q-91.9 6.55 -90.9 7.45 -90.0 8.45 -90.0 9.7 -90.0 11.05 -90.9 11.95 -91.9 12.85 -93.15 12.85 -94.5 12.85 -95.4 11.95 -96.3 11.05 -96.3 9.7 -96.3 8.45 -95.4 7.45 -94.5 6.55 -93.15 6.55 M-79.65 -0.65 Q-79.65 0.7 -80.55 1.6 -81.55 2.5 -82.8 2.5 -84.15 2.5 -85.05 1.6 -85.95 0.7 -85.95 -0.65 -85.95 -1.9 -85.05 -2.9 -84.15 -3.8 -82.8 -3.8 -81.55 -3.8 -80.55 -2.9 -79.65 -1.9 -79.65 -0.65" fill="none" stroke="#000000" stroke-linecap="butt" stroke-linejoin="miter-clip" stroke-miterlimit="10.0" stroke-opacity="0.6" stroke-width="1.0"/>
    <path d="M83.05 2.5 Q84.3 2.5 85.3 1.6 86.2 0.7 86.2 -0.65 86.2 -1.9 85.3 -2.9 84.3 -3.8 83.05 -3.8 81.8 -3.8 80.8 -2.9 79.9 -1.9 79.9 -0.65 79.9 0.7 80.8 1.6 81.8 2.5 83.05 2.5 M93.4 12.85 Q94.65 12.85 95.65 11.95 96.55 11.05 96.55 9.7 96.55 8.45 95.65 7.45 94.65 6.55 93.4 6.55 92.15 6.55 91.15 7.45 90.25 8.45 90.25 9.7 90.25 11.05 91.15 11.95 92.15 12.85 93.4 12.85 M106.0 1.6 Q106.9 0.7 106.9 -0.65 106.9 -1.9 106.0 -2.9 105.0 -3.8 103.75 -3.8 102.5 -3.8 101.5 -2.9 100.6 -1.9 100.6 -0.65 100.6 0.7 101.5 1.6 102.5 2.5 103.75 2.5 105.0 2.5 106.0 1.6 M96.55 -11.0 Q96.55 -12.25 95.65 -13.25 94.65 -14.15 93.4 -14.15 92.15 -14.15 91.15 -13.25 90.25 -12.25 90.25 -11.0 90.25 -9.65 91.15 -8.75 92.15 -7.85 93.4 -7.85 94.65 -7.85 95.65 -8.75 96.55 -9.65 96.55 -11.0 M93.3 -17.55 Q100.6 -17.55 105.75 -12.45 110.85 -7.3 110.85 0.0 110.85 7.3 105.75 12.4 100.6 17.55 93.3 17.55 86.1 17.55 80.9 12.4 75.75 7.3 75.75 0.0 75.75 -7.3 80.9 -12.45 86.1 -17.55 93.3 -17.55" fill="#000000" fill-opacity="0.09803922" fill-rule="evenodd" stroke="none"/>
    <path d="M93.3 -17.55 Q86.1 -17.55 80.9 -12.45 75.75 -7.3 75.75 0.0 75.75 7.3 80.9 12.4 86.1 17.55 93.3 17.55 100.6 17.55 105.75 12.4 110.85 7.3 110.85 0.0 110.85 -7.3 105.75 -12.45 100.6 -17.55 93.3 -17.55 M96.55 -11.0 Q96.55 -9.65 95.65 -8.75 94.65 -7.85 93.4 -7.85 92.15 -7.85 91.15 -8.75 90.25 -9.65 90.25 -11.0 90.25 -12.25 91.15 -13.25 92.15 -14.15 93.4 -14.15 94.65 -14.15 95.65 -13.25 96.55 -12.25 96.55 -11.0 M106.0 1.6 Q105.0 2.5 103.75 2.5 102.5 2.5 101.5 1.6 100.6 0.7 100.6 -0.65 100.6 -1.9 101.5 -2.9 102.5 -3.8 103.75 -3.8 105.0 -3.8 106.0 -2.9 106.9 -1.9 106.9 -0.65 106.9 0.7 106.0 1.6 M93.4 12.85 Q92.15 12.85 91.15 11.95 90.25 11.05 90.25 9.7 90.25 8.45 91.15 7.45 92.15 6.55 93.4 6.55 94.65 6.55 95.65 7.45 96.55 8.45 96.55 9.7 96.55 11.05 95.65 11.95 94.65 12.85 93.4 12.85 M83.05 2.5 Q81.8 2.5 80.8 1.6 79.9 0.7 79.9 -0.65 79.9 -1.9 80.8 -2.9 81.8 -3.8 83.05 -3.8 84.3 -3.8 85.3 -2.9 86.2 -1.9 86.2 -0.65 86.2 0.7 85.3 1.6 84.3 2.5 83.05 2.5" fill="none" stroke="#000000" stroke-linecap="butt" stroke-linejoin="miter-clip" stroke-miterlimit="10.0" stroke-opacity="0.6" stroke-width="1.0"/>
  </g>
</svg>
