<?xml version="1.0" encoding="UTF-8" standalone="no"?>
<svg xmlns:xlink="http://www.w3.org/1999/xlink" height="113.05px" width="261.9px" xmlns="http://www.w3.org/2000/svg">
  <g transform="matrix(1.0, 0.0, 0.0, 1.0, 130.15, 56.55)">
    <path d="M36.5 -26.75 Q32.65 -23.4 30.2 -22.25 27.8 -21.0 -28.3 -4.5 28.7 -18.65 32.0 -21.0 L40.4 -27.3 36.5 -26.75 28.95 -29.0 Q20.65 -30.95 17.6 -29.9 L17.95 -25.5 Q18.6 -20.8 19.4 -19.1 L25.8 -21.05 Q32.8 -23.7 36.5 -26.75 M-83.65 -42.5 L-83.0 -39.0 Q-81.75 -35.4 -78.7 -34.85 -76.15 -34.4 -44.85 -25.2 -13.6 -16.65 -8.95 -18.65 -4.15 -20.6 5.65 -31.95 10.5 -37.65 14.45 -42.95 L32.0 -43.85 Q46.7 -44.3 54.7 -43.8 L77.0 -56.0 85.55 -49.6 Q95.35 -41.55 102.95 -31.6 120.1 -23.05 128.75 -8.85 L129.65 -7.4 119.3 -7.85 115.45 -11.8 Q110.75 -16.85 105.35 -20.15 96.8 -25.5 86.2 -27.1 L87.8 -5.25 Q82.3 -2.1 76.0 -1.8 L70.7 -2.25 57.3 -24.75 Q56.2 -23.8 55.05 -22.15 50.8 -16.2 50.0 -4.7 49.2 6.85 43.45 20.4 40.55 27.25 37.85 31.75 L2.05 26.35 Q-35.4 20.05 -43.6 15.55 -45.3 8.0 -50.15 -0.1 -59.95 -16.3 -76.0 -19.1 L-128.65 -33.05 Q-129.45 -33.65 -129.6 -34.55 -130.05 -36.3 -127.3 -37.1 -122.8 -38.45 -112.9 -42.5 L-83.65 -42.5 M36.3 -7.65 L36.25 -11.1 Q11.6 -1.55 7.25 -1.1 11.75 -2.0 36.5 -12.35 36.7 -9.9 36.3 -7.65 M-0.95 0.65 L-15.85 4.15 -35.75 9.0 Q-37.1 9.55 -22.9 13.5 L-8.5 17.35 -9.5 18.55 Q-9.3 19.9 -3.1 20.95 3.05 22.05 5.1 20.85 L9.5 17.8 Q12.05 16.75 27.15 8.7 41.0 1.8 41.0 3.4 41.0 6.2 38.2 12.3 35.0 19.6 31.1 22.3 L25.1 23.2 Q19.25 24.1 20.3 24.1 L26.5 25.3 34.7 25.0 Q38.05 23.65 42.1 13.65 46.05 3.85 46.4 -3.35 46.7 -8.55 46.25 -17.3 45.8 -24.95 45.95 -25.85 35.95 -20.15 21.3 -13.95 -7.95 -1.45 -31.0 1.6 L-33.35 3.6 Q-35.65 5.95 -35.95 7.9 L-0.95 0.65 M31.2 -41.4 L17.9 -41.15 Q67.75 -39.8 99.15 -25.05 114.8 -17.65 120.5 -10.55 L124.25 -11.0 Q109.75 -32.95 62.35 -39.25 47.6 -41.25 31.2 -41.4 M57.3 -24.75 Q58.15 -25.5 59.0 -25.85 58.15 -25.5 57.3 -24.75 M102.95 -31.6 Q97.85 -34.15 91.95 -36.2 80.45 -40.25 59.0 -43.4 L54.7 -43.8 59.0 -43.4 Q80.45 -40.25 91.95 -36.2 97.85 -34.15 102.95 -31.6 M77.65 -51.95 L71.35 -48.9 Q76.2 -48.35 86.35 -43.05 L95.65 -37.8 Q91.7 -43.05 84.3 -48.0 L77.65 -51.95 M77.9 -4.25 L66.2 -17.75 Q65.65 -17.45 69.0 -10.65 L72.5 -3.9 77.9 -4.25 M59.0 -25.85 Q73.95 -29.0 86.2 -27.1 73.95 -29.0 59.0 -25.85 M-112.25 -40.5 L-122.8 -35.75 Q-75.1 -27.65 -74.2 -28.55 -73.3 -29.45 -112.25 -40.5 M-41.0 55.95 L-43.6 55.15 Q-55.1 22.2 -82.0 12.95 -90.4 10.0 -99.3 9.8 L-106.6 10.15 Q-109.1 7.65 -107.85 5.5 L-106.15 3.85 Q-72.1 -2.6 -49.55 24.9 -38.2 38.8 -33.7 53.8 -37.65 56.35 -41.0 55.95 M-40.45 50.1 Q-50.8 22.15 -74.65 11.05 -82.3 7.45 -90.4 6.1 L-96.95 5.4 Q-70.15 9.9 -52.4 31.05 -44.05 41.05 -40.45 50.1" fill="#ffffff" fill-opacity="0.0" fill-rule="evenodd" stroke="none"/>
    <path d="M36.5 -26.75 Q32.8 -23.7 25.8 -21.05 L19.4 -19.1 Q18.6 -20.8 17.95 -25.5 L17.6 -29.9 Q20.65 -30.95 28.95 -29.0 L36.5 -26.75 M36.3 -7.65 Q36.7 -9.9 36.5 -12.35 11.75 -2.0 7.25 -1.1 L-0.95 0.65 -35.95 7.9 Q-35.65 5.95 -33.35 3.6 L-31.0 1.6 Q-7.95 -1.45 21.3 -13.95 35.95 -20.15 45.95 -25.85 45.8 -24.95 46.25 -17.3 46.7 -8.55 46.4 -3.35 46.05 3.85 42.1 13.65 38.05 23.65 34.7 25.0 L26.5 25.3 20.3 24.1 Q19.25 24.1 25.1 23.2 L31.1 22.3 Q35.0 19.6 38.2 12.3 41.0 6.2 41.0 3.4 41.0 1.8 27.15 8.7 12.05 16.75 9.5 17.8 L5.1 20.85 Q3.05 22.05 -3.1 20.95 -9.3 19.9 -9.5 18.55 L-8.5 17.35 Q-6.3 16.9 -2.05 15.3 L0.15 14.55 Q9.35 11.4 12.5 9.9 16.9 7.8 25.35 3.3 34.45 -1.55 35.35 -2.45 36.2 -3.3 36.3 -7.65" fill="#000000" fill-opacity="0.2" fill-rule="evenodd" stroke="none"/>
    <path d="M36.5 -26.75 L40.4 -27.3 32.0 -21.0 Q28.7 -18.65 -28.3 -4.5 27.8 -21.0 30.2 -22.25 32.65 -23.4 36.5 -26.75 M7.25 -1.1 Q11.6 -1.55 36.25 -11.1 L36.3 -7.65 Q36.2 -3.3 35.35 -2.45 34.45 -1.55 25.35 3.3 16.9 7.8 12.5 9.9 9.35 11.4 0.15 14.55 L-2.05 15.3 Q-6.3 16.9 -8.5 17.35 L-22.9 13.5 Q-37.1 9.55 -35.75 9.0 L-15.85 4.15 -0.95 0.65 7.25 -1.1 M31.2 -41.4 Q47.6 -41.25 62.35 -39.25 109.75 -32.95 124.25 -11.0 L120.5 -10.55 Q114.8 -17.65 99.15 -25.05 67.75 -39.8 17.9 -41.15 L31.2 -41.4 M77.9 -4.25 L72.5 -3.9 69.0 -10.65 Q65.65 -17.45 66.2 -17.75 L77.9 -4.25 M77.65 -51.95 L84.3 -48.0 Q91.7 -43.05 95.65 -37.8 L86.35 -43.05 Q76.2 -48.35 71.35 -48.9 L77.65 -51.95 M-112.25 -40.5 Q-73.3 -29.45 -74.2 -28.55 -75.1 -27.65 -122.8 -35.75 L-112.25 -40.5 M-40.45 50.1 Q-44.05 41.05 -52.4 31.05 -70.15 9.9 -96.95 5.4 L-90.4 6.1 Q-82.3 7.45 -74.65 11.05 -50.8 22.15 -40.45 50.1" fill="#ffffff" fill-opacity="0.6" fill-rule="evenodd" stroke="none"/>
    <path d="M14.45 -42.95 L32.0 -43.85 Q46.7 -44.3 54.7 -43.8 L77.0 -56.0 85.55 -49.6 Q95.35 -41.55 102.95 -31.6 120.1 -23.05 128.75 -8.85 L129.65 -7.4 119.3 -7.85 115.45 -11.8 Q110.75 -16.85 105.35 -20.15 96.8 -25.5 86.2 -27.1 L87.8 -5.25 Q82.3 -2.1 76.0 -1.8 L70.7 -2.25 57.3 -24.75 Q56.2 -23.8 55.05 -22.15 50.8 -16.2 50.0 -4.7 49.2 6.85 43.45 20.4 40.55 27.25 37.85 31.75 L2.05 26.35 Q-35.4 20.05 -43.6 15.55 -45.3 8.0 -50.15 -0.1 -59.95 -16.3 -76.0 -19.1 L-128.65 -33.05 Q-129.45 -33.65 -129.6 -34.55 -130.05 -36.3 -127.3 -37.1 -122.8 -38.45 -112.9 -42.5 L-83.65 -42.5 M59.0 -25.85 Q58.15 -25.5 57.3 -24.75 M-41.0 55.95 Q-37.65 56.35 -33.7 53.8 -38.2 38.8 -49.55 24.9 -72.1 -2.6 -106.15 3.85 L-107.85 5.5 Q-109.1 7.65 -106.6 10.15 L-99.3 9.8 Q-90.4 10.0 -82.0 12.95 -55.1 22.2 -43.6 55.15 L-41.0 55.95" fill="none" stroke="#000000" stroke-linecap="butt" stroke-linejoin="miter-clip" stroke-miterlimit="10.0" stroke-width="1.0"/>
    <path d="M-83.65 -42.5 L-83.0 -39.0 Q-81.75 -35.4 -78.7 -34.85 -76.15 -34.4 -44.85 -25.2 -13.6 -16.65 -8.95 -18.65 -4.15 -20.6 5.65 -31.95 10.5 -37.65 14.45 -42.95 M54.7 -43.8 L59.0 -43.4 Q80.45 -40.25 91.95 -36.2 97.85 -34.15 102.95 -31.6 M86.2 -27.1 Q73.95 -29.0 59.0 -25.85" fill="none" stroke="#000000" stroke-linecap="butt" stroke-linejoin="miter-clip" stroke-miterlimit="10.0" stroke-opacity="0.6" stroke-width="1.0"/>
  </g>
</svg>
