<?xml version="1.0" encoding="UTF-8" standalone="no"?>
<svg xmlns:xlink="http://www.w3.org/1999/xlink" height="185.5px" width="484.85px" xmlns="http://www.w3.org/2000/svg">
  <g transform="matrix(1.0, 0.0, 0.0, 1.0, 242.45, 93.35)">
    <path d="M-10.3 49.0 L-37.35 37.5 -2.15 8.9 31.6 23.55 Q33.8 24.3 28.95 41.7 L-1.85 52.6 Q-3.05 51.25 -4.8 50.15 -7.8 48.35 -10.3 49.0 M-170.8 -15.75 Q-167.7 -18.25 -163.45 -20.35 -156.5 -23.75 -139.65 -25.65 L-34.75 -20.25 0.6 6.25 -10.55 15.6 -36.6 16.5 Q-42.65 16.15 -49.6 13.95 L-60.15 10.35 Q-66.4 8.25 -172.65 -5.95 L-172.9 -13.75 -170.8 -15.75 M-148.45 -22.35 Q-156.05 -20.8 -157.25 -20.15 -158.5 -19.45 -111.75 -10.45 L-64.65 -1.65 -141.1 -23.65 -148.45 -22.35" fill="#000000" fill-opacity="0.49803922" fill-rule="evenodd" stroke="none"/>
    <path d="M46.65 -75.6 L46.45 -73.8 42.75 -72.35 46.45 -73.8 46.65 -75.6 46.8 -77.1 54.7 -77.45 54.8 -77.45 Q63.65 -77.45 69.1 -75.7 74.7 -73.9 76.5 -67.45 77.35 -64.15 77.15 -61.15 L59.85 -42.15 -0.3 -41.7 4.55 -48.5 Q9.95 -55.75 12.7 -57.4 16.2 -59.5 30.3 -66.45 L31.9 -67.2 42.75 -72.35 36.35 -86.8 Q34.0 -89.2 36.55 -90.55 37.75 -91.2 39.5 -91.3 L46.65 -75.6 M-10.3 49.0 Q-7.8 48.35 -4.8 50.15 -3.05 51.25 -1.85 52.6 -36.4 68.95 -39.7 69.5 -41.75 69.95 -45.5 68.3 L-48.8 66.65 -11.4 49.4 -10.3 49.0 M-225.9 -0.45 Q-228.65 2.0 -228.75 2.95 L-238.1 31.0 -232.85 18.05 Q-227.35 4.95 -226.9 4.6 L-218.1 -0.55 -223.25 -2.55 -225.9 -0.45 M-224.35 -5.3 L-219.65 -9.0 Q-214.15 -11.1 -205.45 -5.5 -196.85 0.2 -200.85 1.55 -206.35 3.4 -211.7 5.95 -219.4 9.35 -221.5 11.55 -223.5 13.65 -227.65 21.35 L-232.85 31.15 Q-233.85 33.1 -235.05 39.5 -236.35 47.3 -236.6 48.05 -237.7 51.8 -241.65 55.55 -242.4 51.25 -241.4 40.6 L-240.2 30.9 -230.1 1.75 Q-229.2 -1.0 -224.35 -5.3 M-148.45 -22.35 L-141.1 -23.65 -64.65 -1.65 -111.75 -10.45 Q-158.5 -19.45 -157.25 -20.15 -156.05 -20.8 -148.45 -22.35 M-47.8 43.9 L-85.2 60.7 -90.4 61.5 -117.9 43.35 Q-118.9 40.25 -118.75 37.05 -118.75 30.6 -113.7 30.05 L-87.3 52.7 -56.3 41.8 -47.8 43.9 M-109.95 37.4 Q-109.1 40.25 -98.85 47.65 -93.8 51.35 -88.85 54.45 L-109.95 37.4 M-129.65 42.8 L-155.6 64.25 Q-165.5 65.45 -166.3 63.25 L-132.65 40.7 -129.65 42.8" fill="#ffffff" fill-opacity="0.0" fill-rule="evenodd" stroke="none"/>
    <path d="M102.0 88.9 L86.4 87.35 Q110.05 88.75 179.55 88.55 136.55 90.95 102.0 88.9 M-225.9 -0.45 L-223.25 -2.55 -218.1 -0.55 -226.9 4.6 Q-227.35 4.95 -232.85 18.05 L-238.1 31.0 -228.75 2.95 Q-228.65 2.0 -225.9 -0.45 M-109.95 37.4 L-88.85 54.45 Q-93.8 51.35 -98.85 47.65 -109.1 40.25 -109.95 37.4" fill="#ffffff" fill-opacity="0.6" fill-rule="evenodd" stroke="none"/>
    <path d="M103.75 -17.0 L106.4 -19.7 107.4 -19.4 103.75 -17.0 M144.9 -9.15 L178.65 0.1 Q173.6 7.8 166.25 16.4 155.4 29.05 146.3 34.55 139.9 38.75 133.9 41.7 L132.0 37.7 Q138.15 36.55 139.4 35.2 141.95 32.55 145.9 23.1 149.65 13.95 149.65 11.2 149.5 9.15 147.2 -0.45 L144.9 -9.15 M137.2 48.65 L137.4 48.6 156.45 50.6 Q177.7 51.8 188.45 47.65 205.75 41.05 212.35 37.3 L213.85 37.05 Q215.4 37.3 215.65 39.4 215.95 42.35 199.35 50.25 181.1 58.95 163.8 61.95 L138.75 62.4 Q141.3 62.2 142.5 59.75 L137.2 48.65 M137.9 62.45 L104.1 63.05 85.5 61.5 Q67.35 58.85 69.65 53.8 70.0 53.15 88.8 57.3 110.6 59.85 126.05 50.45 L131.05 59.95 135.65 62.05 137.9 62.45 M123.5 45.6 Q116.6 47.35 103.55 49.5 L85.85 52.15 88.8 41.9 94.6 41.05 120.15 39.25 123.5 45.6 M94.15 40.6 L89.55 40.9 89.8 33.0 94.15 40.6 M91.0 -4.0 L91.0 -4.3 91.2 -4.45 91.0 -4.0 M237.85 60.15 L239.7 59.95 Q241.7 60.15 241.9 62.7 242.35 66.35 222.1 76.0 199.7 86.55 178.55 90.2 L105.65 91.65 Q93.95 91.3 82.85 89.75 60.75 86.55 63.6 80.3 63.7 79.95 70.45 81.6 79.45 83.8 86.95 84.7 113.9 87.65 132.8 76.1 L146.35 74.05 169.65 76.45 Q195.5 77.9 208.7 72.8 229.8 64.7 237.85 60.15 M102.0 88.9 Q136.55 90.95 179.55 88.55 110.05 88.75 86.4 87.35 L102.0 88.9" fill="#000000" fill-opacity="0.2" fill-rule="evenodd" stroke="none"/>
    <path d="M91.2 -4.45 L93.4 -10.1 103.75 -17.0 107.4 -19.4 Q118.0 -26.45 119.15 -26.75 120.35 -26.95 132.7 -18.25 L144.8 -9.55 144.9 -9.15 147.2 -0.45 Q149.5 9.15 149.65 11.2 149.65 13.95 145.9 23.1 141.95 32.55 139.4 35.2 138.15 36.55 132.0 37.7 L113.45 -1.3 Q110.7 -1.45 107.95 -0.65 102.45 1.0 102.55 5.85 L120.15 39.25 94.6 41.05 94.4 41.05 94.15 40.6 89.8 33.0 81.85 19.05 91.0 -4.0 91.2 -4.45" fill="#000000" fill-opacity="0.4" fill-rule="evenodd" stroke="none"/>
    <path d="M133.9 41.7 L137.2 48.65 142.5 59.75 Q141.3 62.2 138.75 62.4 L137.9 62.45 135.65 62.05 131.05 59.95 126.05 50.45 123.5 45.6 120.15 39.25 102.55 5.85 Q102.45 1.0 107.95 -0.65 110.7 -1.45 113.45 -1.3 L132.0 37.7 133.9 41.7 M107.85 10.45 L120.5 35.4 121.05 31.35 109.7 8.45 107.85 10.45" fill="#ffffff" fill-opacity="0.4" fill-rule="evenodd" stroke="none"/>
    <path d="M107.85 10.45 L109.7 8.45 121.05 31.35 120.5 35.4 107.85 10.45" fill="#ffffff" fill-opacity="0.8" fill-rule="evenodd" stroke="none"/>
    <path d="M237.85 60.15 L239.7 59.95 Q241.7 60.15 241.9 62.7 242.35 66.35 222.1 76.0 199.7 86.55 178.55 90.2 L105.65 91.65 Q93.95 91.3 82.85 89.75 60.75 86.55 63.6 80.3 63.7 79.95 70.45 81.6 79.45 83.8 86.95 84.7 113.9 87.65 132.8 76.1 L146.35 74.05 169.65 76.45 Q195.5 77.9 208.7 72.8 229.8 64.7 237.85 60.15 M135.65 62.05 L137.9 62.45 M-1.85 52.6 L28.95 41.7 Q33.8 24.3 31.6 23.55 L-2.15 8.9 -37.35 37.5 -10.3 49.0 Q-7.8 48.35 -4.8 50.15 -3.05 51.25 -1.85 52.6 -36.4 68.95 -39.7 69.5 -41.75 69.95 -45.5 68.3 L-48.8 66.65 -11.4 49.4 -10.3 49.0 M-224.35 -5.3 Q-229.2 -1.0 -230.1 1.75 L-240.2 30.9 -241.4 40.6 Q-242.4 51.25 -241.65 55.55 -237.7 51.8 -236.6 48.05 -236.35 47.3 -235.05 39.5 -233.85 33.1 -232.85 31.15 L-227.65 21.35 Q-223.5 13.65 -221.5 11.55 -219.4 9.35 -211.7 5.95 -206.35 3.4 -200.85 1.55 -196.85 0.2 -205.45 -5.5 -214.15 -11.1 -219.65 -9.0 L-224.35 -5.3 M-170.8 -15.75 L-172.9 -13.75 -172.65 -5.95 Q-66.4 8.25 -60.15 10.35 L-49.6 13.95 Q-42.65 16.15 -36.6 16.5 L-10.55 15.6 0.6 6.25 -34.75 -20.25 -139.65 -25.65 Q-156.5 -23.75 -163.45 -20.35 -167.7 -18.25 -170.8 -15.75 M-47.8 43.9 L-85.2 60.7 -90.4 61.5 -117.9 43.35 Q-118.9 40.25 -118.75 37.05 -118.75 30.6 -113.7 30.05 L-87.3 52.7 -56.3 41.8 -47.8 43.9 M-129.65 42.8 L-155.6 64.25 Q-165.5 65.45 -166.3 63.25 L-132.65 40.7 -129.65 42.8" fill="none" stroke="#000000" stroke-linecap="butt" stroke-linejoin="miter-clip" stroke-miterlimit="10.0" stroke-width="1.0"/>
    <path d="M144.9 -9.15 L147.2 -0.45 Q149.5 9.15 149.65 11.2 149.65 13.95 145.9 23.1 141.95 32.55 139.4 35.2 138.15 36.55 132.0 37.7 M94.15 40.6 L89.8 33.0 M120.15 39.25 L94.6 41.05" fill="none" stroke="#000000" stroke-linecap="butt" stroke-linejoin="miter-clip" stroke-miterlimit="10.0" stroke-opacity="0.6" stroke-width="1.0"/>
    <path d="M132.0 37.7 L113.45 -1.3 Q110.7 -1.45 107.95 -0.65 102.45 1.0 102.55 5.85 L120.15 39.25 123.5 45.6 M126.05 50.45 L131.05 59.95 135.65 62.05 M138.75 62.4 Q141.3 62.2 142.5 59.75 L137.2 48.65" fill="none" stroke="#000000" stroke-linecap="butt" stroke-linejoin="miter-clip" stroke-miterlimit="10.0" stroke-opacity="0.8" stroke-width="1.0"/>
    <path d="M42.75 -72.35 L46.45 -73.8 46.65 -75.6" fill="none" stroke="#000000" stroke-linecap="round" stroke-linejoin="miter-clip" stroke-miterlimit="10.0" stroke-opacity="0.6" stroke-width="1.0"/>
    <path d="M46.65 -75.6 L39.5 -91.3 Q37.75 -91.2 36.55 -90.55 34.0 -89.2 36.35 -86.8 L42.75 -72.35 31.9 -67.2 30.3 -66.45 Q16.2 -59.5 12.7 -57.4 9.95 -55.75 4.55 -48.5 L-0.3 -41.7 59.85 -42.15 77.15 -61.15 Q77.35 -64.15 76.5 -67.45 74.7 -73.9 69.1 -75.7 63.65 -77.45 54.8 -77.45 L54.7 -77.45 46.8 -77.1 46.65 -75.6 M91.2 -4.45 L93.4 -10.1 103.75 -17.0 106.4 -19.7 107.4 -19.4 Q118.0 -26.45 119.15 -26.75 120.35 -26.95 132.7 -18.25 L144.8 -9.55 144.9 -9.15 178.65 0.1 Q173.6 7.8 166.25 16.4 155.4 29.05 146.3 34.55 139.9 38.75 133.9 41.7 L137.2 48.65 137.4 48.6 156.45 50.6 Q177.7 51.8 188.45 47.65 205.75 41.05 212.35 37.3 L213.85 37.05 Q215.4 37.3 215.65 39.4 215.95 42.35 199.35 50.25 181.1 58.95 163.8 61.95 L138.75 62.4 137.9 62.45 104.1 63.05 85.5 61.5 Q67.35 58.85 69.65 53.8 70.0 53.15 88.8 57.3 110.6 59.85 126.05 50.45 L123.5 45.6 Q116.6 47.35 103.55 49.5 L85.85 52.15 88.8 41.9 94.6 41.05 94.4 41.05 94.15 40.6 89.55 40.9 89.8 33.0 81.85 19.05 91.0 -4.0 91.0 -4.3 91.2 -4.45 M103.75 -17.0 L107.4 -19.4" fill="none" stroke="#000000" stroke-linecap="round" stroke-linejoin="miter-clip" stroke-miterlimit="10.0" stroke-width="1.0"/>
    <path d="M91.2 -4.45 L91.0 -4.0" fill="none" stroke="#000000" stroke-linecap="round" stroke-linejoin="miter-clip" stroke-miterlimit="10.0" stroke-width="1.0"/>
    <path d="M132.0 37.7 L133.9 41.7" fill="none" stroke="#000000" stroke-linecap="butt" stroke-linejoin="miter-clip" stroke-miterlimit="10.0" stroke-opacity="0.8" stroke-width="1.0"/>
  </g>
</svg>
