<?xml version="1.0" encoding="UTF-8" standalone="no"?>
<svg xmlns:xlink="http://www.w3.org/1999/xlink" height="439.75px" width="151.2px" xmlns="http://www.w3.org/2000/svg">
  <g transform="matrix(1.0, 0.0, 0.0, 1.0, 75.6, 219.85)">
    <path d="M75.1 -219.35 L75.1 216.6 62.9 219.4 -75.1 188.6 -75.1 -197.8 62.9 -219.35 75.1 -219.35 M71.9 -30.35 L66.3 -30.1 66.7 17.95 71.6 17.95 71.9 -30.35 M42.9 -16.1 L42.9 -189.95 -2.6 -182.25 -2.6 -15.1 42.9 -16.1 M41.5 9.8 L-3.3 9.55 -3.3 172.9 41.5 179.5 41.5 9.8 M62.9 219.4 L62.9 -219.35 62.9 219.4 M-18.0 -179.45 L-63.5 -172.2 -63.5 -15.1 -18.0 -16.1 -18.0 -179.45 M-63.5 9.55 L-63.5 163.55 -18.7 169.7 -18.7 9.8 -63.5 9.55" fill="#ffffff" fill-opacity="0.0" fill-rule="evenodd" stroke="none"/>
    <path d="M71.9 -30.35 L71.6 17.95 66.7 17.95 66.3 -30.1 71.9 -30.35" fill="#000000" fill-opacity="0.6" fill-rule="evenodd" stroke="none"/>
    <path d="M42.9 -16.1 L-2.6 -15.1 -2.6 -182.25 42.9 -189.95 42.9 -16.1 M41.5 9.8 L41.5 179.5 -3.3 172.9 -3.3 9.55 41.5 9.8 M-18.0 -179.45 L-18.0 -16.1 -63.5 -15.1 -63.5 -172.2 -18.0 -179.45 M-63.5 9.55 L-18.7 9.8 -18.7 169.7 -63.5 163.55 -63.5 9.55" fill="#000000" fill-opacity="0.09803922" fill-rule="evenodd" stroke="none"/>
    <path d="M75.1 -219.35 L75.1 216.6 62.9 219.4 -75.1 188.6 -75.1 -197.8 62.9 -219.35 75.1 -219.35" fill="none" stroke="#000000" stroke-linecap="butt" stroke-linejoin="miter-clip" stroke-miterlimit="10.0" stroke-width="1.0"/>
    <path d="M42.9 -16.1 L-2.6 -15.1 -2.6 -182.25 42.9 -189.95 42.9 -16.1 M41.5 9.8 L-3.3 9.55 -3.3 172.9 41.5 179.5 41.5 9.8 M62.9 -219.35 L62.9 219.4 M-18.0 -179.45 L-18.0 -16.1 -63.5 -15.1 -63.5 -172.2 -18.0 -179.45 M-63.5 9.55 L-63.5 163.55 -18.7 169.7 -18.7 9.8 -63.5 9.55" fill="none" stroke="#000000" stroke-linecap="butt" stroke-linejoin="miter-clip" stroke-miterlimit="10.0" stroke-opacity="0.6" stroke-width="1.0"/>
  </g>
</svg>
