<?xml version="1.0" encoding="UTF-8" standalone="no"?>
<svg xmlns:xlink="http://www.w3.org/1999/xlink" height="146.05px" width="466.4px" xmlns="http://www.w3.org/2000/svg">
  <g transform="matrix(1.0, 0.0, 0.0, 1.0, 233.2, 73.0)">
    <path d="M-20.25 45.0 L-145.85 17.55 Q-147.15 17.35 -150.25 12.3 L-231.85 -14.55 Q-232.4 -15.3 -232.6 -16.4 -233.05 -18.6 -231.3 -20.05 L-222.15 -26.1 -200.6 -24.9 Q-177.6 -23.35 -170.8 -21.6 -168.45 -21.0 -165.9 -19.2 -164.15 -20.75 -89.75 -7.2 L-24.9 4.85 -46.95 -5.55 -149.0 -35.25 Q-151.65 -35.9 -163.3 -49.4 -159.45 -47.2 -108.75 -33.9 -56.3 -20.15 -51.25 -21.25 -43.55 -22.8 -6.25 -45.9 L-8.1 -49.0 -9.65 -51.3 -4.7 -56.35 Q0.8 -61.65 3.75 -62.6 L5.95 -63.6 13.65 -63.85 27.75 -63.5 Q42.6 -63.5 46.25 -65.25 L61.5 -72.5 84.4 -61.65 Q108.05 -50.5 111.8 -49.2 L109.6 -53.7 129.7 -43.6 Q152.15 -30.95 164.05 -18.6 L168.35 -14.55 Q172.6 -10.05 172.75 -8.15 170.95 -5.95 164.7 -5.85 158.45 -5.65 107.95 -21.6 L107.85 -21.6 106.95 -21.7 106.6 -21.75 108.8 -15.3 Q110.7 -9.6 110.7 -8.5 110.8 -6.95 109.7 -5.85 103.1 -4.65 97.6 -0.8 L93.3 2.85 89.35 -0.45 89.7 -2.35 Q91.1 -9.5 93.75 -14.75 95.2 -17.5 97.25 -19.05 95.4 -26.0 92.75 -26.45 80.9 -35.0 76.15 -36.75 73.2 -37.85 60.95 -44.9 L49.4 -51.75 71.4 -33.8 Q73.3 -32.35 79.25 -24.8 L70.0 -12.45 38.1 -28.4 30.05 -26.55 Q21.7 -24.55 20.6 -23.35 19.5 -22.15 41.05 -12.35 51.85 -7.4 62.85 -2.8 L75.4 23.75 Q76.5 25.7 74.15 33.3 72.1 40.35 70.2 42.85 69.85 43.35 67.95 43.95 69.7 43.2 70.55 41.45 71.55 39.35 69.75 39.45 66.05 39.55 45.35 33.95 L25.55 28.45 19.6 32.1 Q31.8 37.6 67.05 44.2 60.4 46.05 40.05 48.9 L46.65 48.75 44.75 48.85 42.8 48.9 42.5 48.9 Q8.95 49.9 -12.95 46.6 L-17.45 46.3 -17.55 46.3 -17.95 46.2 -18.4 46.1 -19.9 45.45 -20.25 45.0 M-163.3 -9.5 L-168.95 -17.2 -219.65 -25.45 Q-221.95 -22.6 -192.9 -15.75 -178.3 -12.35 -163.3 -9.5 M-165.95 -19.15 L-165.9 -19.2 -165.95 -19.15 -157.4 -1.0 Q-153.1 7.65 -150.25 12.3 -153.1 7.65 -157.4 -1.0 L-165.95 -19.15 M-95.25 -3.9 L-150.1 -12.45 Q-141.45 -3.35 -81.8 4.05 -52.0 7.65 -23.95 9.55 -37.7 5.45 -95.25 -3.9 M-6.25 -45.9 Q-6.15 -45.55 -20.65 -32.9 -36.8 -18.85 -41.55 -12.55 L-46.95 -5.55 -41.55 -12.55 Q-36.8 -18.85 -20.65 -32.9 -6.15 -45.55 -6.25 -45.9 M2.45 -50.65 L10.5 -54.25 36.2 -43.25 Q12.0 -59.45 8.3 -60.85 5.95 -61.75 1.15 -57.0 L-3.4 -52.05 -1.4 -45.25 -43.0 -7.3 9.05 -38.1 2.45 -50.65 M12.55 -8.5 Q44.05 0.85 45.45 0.85 46.8 0.75 48.45 -1.45 L14.45 -11.6 12.55 -8.5 M79.45 -46.35 Q88.15 -44.9 90.55 -43.8 100.05 -39.0 109.5 -34.25 L123.9 -43.6 113.65 -48.85 Q113.0 -47.2 111.35 -45.7 108.15 -42.5 103.55 -42.4 98.9 -42.25 93.65 -44.8 L89.35 -47.35 82.55 -48.55 Q74.95 -49.4 71.2 -47.55 L79.45 -46.35 M106.6 -21.75 L102.45 -21.35 Q99.45 -20.7 97.25 -19.05 99.45 -20.7 102.45 -21.35 L106.6 -21.75 M135.55 -37.45 Q134.9 -35.45 133.55 -33.15 130.95 -28.65 127.75 -27.4 L169.3 -9.5 Q165.6 -14.0 159.4 -19.85 147.2 -31.25 135.55 -37.45 M225.1 38.9 Q234.1 44.75 232.45 53.45 L226.75 55.4 Q225.75 51.45 223.65 47.6 219.6 39.9 214.3 40.25 L190.35 72.55 Q185.6 72.25 185.6 70.8 L196.15 55.1 Q207.5 38.9 211.35 36.6 216.6 33.4 225.1 38.9 M176.45 31.45 Q185.7 18.25 188.9 16.25 193.2 13.6 200.25 18.0 207.6 22.75 206.3 29.8 L201.55 31.65 Q200.8 28.45 199.0 25.25 195.6 19.0 191.3 19.2 L171.75 45.75 Q167.8 45.5 167.8 44.3 L176.45 31.45 M135.2 46.5 Q136.0 50.8 137.0 64.45 134.55 68.5 131.25 69.6 L127.3 70.25 125.75 70.05 115.4 58.8 Q105.5 47.6 107.4 48.05 L109.7 46.7 Q112.0 44.95 112.45 42.45 L113.1 24.7 Q113.55 10.2 115.1 11.3 117.05 12.6 125.85 27.9 134.65 43.2 135.2 46.5 M117.6 21.95 L116.95 40.65 130.8 65.3 Q129.3 56.5 130.05 50.55 130.5 46.95 124.1 34.05 L117.6 21.95 M46.25 12.6 L68.0 17.7 59.75 12.3 Q51.5 6.45 51.6 4.6 L46.25 12.6 M5.3 3.7 Q36.55 10.3 38.75 9.2 40.95 8.0 44.7 3.05 41.05 3.05 10.9 -5.4 L5.3 3.7 M19.4 29.9 Q23.35 27.7 22.05 27.45 L17.3 25.05 16.55 28.35 Q16.2 29.65 -14.6 44.3 11.6 34.3 19.4 29.9 M-13.45 10.4 L-13.05 22.1 -15.6 20.65 Q-21.0 18.0 -24.5 18.8 L-27.05 20.1 Q-31.65 24.4 -30.55 28.8 -30.0 31.0 -28.55 32.3 L-11.85 40.0 -0.95 34.75 Q15.0 27.15 13.8 25.25 12.55 23.05 -13.45 10.4 L-24.9 4.85 -13.45 10.4 M-11.85 40.0 Q-19.2 43.55 -19.55 43.85 -20.75 44.8 -19.9 45.45 -20.75 44.8 -19.55 43.85 -19.2 43.55 -11.85 40.0 M-22.85 53.45 Q-19.2 54.65 -16.8 56.3 L-49.8 68.65 -185.75 69.6 Q-201.15 69.5 -203.8 64.55 -204.7 62.9 -204.25 60.6 L-203.45 57.85 Q-203.25 56.5 -188.95 51.45 -181.8 48.9 -174.65 46.7 -172.55 45.95 -150.8 51.35 L-129.35 56.85 -96.45 46.6 -69.7 51.65 Q-41.9 56.3 -35.95 53.65 -30.0 51.0 -22.85 53.45 M-187.1 58.5 Q-180.15 56.75 -172.8 54.3 L-132.5 58.7 -172.8 49.9 -199.2 59.35 Q-201.05 62.1 -187.1 58.5" fill="#ffffff" fill-opacity="0.0" fill-rule="evenodd" stroke="none"/>
    <path d="M-163.3 -9.5 Q-178.3 -12.35 -192.9 -15.75 -221.95 -22.6 -219.65 -25.45 L-168.95 -17.2 -163.3 -9.5 M-95.25 -3.9 Q-37.7 5.45 -23.95 9.55 -52.0 7.65 -81.8 4.05 -141.45 -3.35 -150.1 -12.45 L-95.25 -3.9 M2.45 -50.65 L9.05 -38.1 -43.0 -7.3 -1.4 -45.25 -3.4 -52.05 1.15 -57.0 Q5.95 -61.75 8.3 -60.85 12.0 -59.45 36.2 -43.25 L10.5 -54.25 2.45 -50.65 M117.6 21.95 L124.1 34.05 Q130.5 46.95 130.05 50.55 129.3 56.5 130.8 65.3 L116.95 40.65 117.6 21.95 M19.4 29.9 Q11.6 34.3 -14.6 44.3 16.2 29.65 16.55 28.35 L17.3 25.05 22.05 27.45 Q23.35 27.7 19.4 29.9 M-187.1 58.5 Q-201.05 62.1 -199.2 59.35 L-172.8 49.9 -132.5 58.7 -172.8 54.3 Q-180.15 56.75 -187.1 58.5" fill="#ffffff" fill-opacity="0.4" fill-rule="evenodd" stroke="none"/>
    <path d="M89.35 -0.45 Q88.95 1.9 88.9 3.7 L87.15 21.65 Q83.1 40.9 71.75 47.25 L46.65 48.75 40.05 48.9 Q60.4 46.05 67.05 44.2 L67.15 44.2 67.95 43.95 Q69.85 43.35 70.2 42.85 72.1 40.35 74.15 33.3 76.5 25.7 75.4 23.75 L62.85 -2.8 Q51.85 -7.4 41.05 -12.35 19.5 -22.15 20.6 -23.35 21.7 -24.55 30.05 -26.55 L38.1 -28.4 70.0 -12.45 79.25 -24.8 Q73.3 -32.35 71.4 -33.8 L49.4 -51.75 60.95 -44.9 Q73.2 -37.85 76.15 -36.75 80.9 -35.0 92.75 -26.45 95.4 -26.0 97.25 -19.05 95.2 -17.5 93.75 -14.75 91.1 -9.5 89.7 -2.35 L89.35 -0.45" fill="#000000" fill-opacity="0.2" fill-rule="evenodd" stroke="none"/>
    <path d="M67.95 43.95 L67.15 44.2 67.05 44.2 Q31.8 37.6 19.6 32.1 L25.55 28.45 45.35 33.95 Q66.05 39.55 69.75 39.45 71.55 39.35 70.55 41.45 69.7 43.2 67.95 43.95 M79.45 -46.35 L71.2 -47.55 Q74.95 -49.4 82.55 -48.55 L89.35 -47.35 93.65 -44.8 Q98.9 -42.25 103.55 -42.4 108.15 -42.5 111.35 -45.7 113.0 -47.2 113.65 -48.85 L123.9 -43.6 109.5 -34.25 Q100.05 -39.0 90.55 -43.8 88.15 -44.9 79.45 -46.35 M12.55 -8.5 L14.45 -11.6 48.45 -1.45 Q46.8 0.75 45.45 0.85 44.05 0.85 12.55 -8.5 M135.55 -37.45 Q147.2 -31.25 159.4 -19.85 165.6 -14.0 169.3 -9.5 L127.75 -27.4 Q130.95 -28.65 133.55 -33.15 134.9 -35.45 135.55 -37.45 M46.25 12.6 L51.6 4.6 Q51.5 6.45 59.75 12.3 L68.0 17.7 46.25 12.6 M5.3 3.7 L10.9 -5.4 Q41.05 3.05 44.7 3.05 40.95 8.0 38.75 9.2 36.55 10.3 5.3 3.7" fill="#ffffff" fill-opacity="0.6" fill-rule="evenodd" stroke="none"/>
    <path d="M-20.25 45.0 L-145.85 17.55 Q-147.15 17.35 -150.25 12.3 L-231.85 -14.55 Q-232.4 -15.3 -232.6 -16.4 -233.05 -18.6 -231.3 -20.05 L-222.15 -26.1 -200.6 -24.9 Q-177.6 -23.35 -170.8 -21.6 -168.45 -21.0 -165.9 -19.2 -164.15 -20.75 -89.75 -7.2 L-24.9 4.85 -46.95 -5.55 -149.0 -35.25 Q-151.65 -35.9 -163.3 -49.4 -159.45 -47.2 -108.75 -33.9 -56.3 -20.15 -51.25 -21.25 -43.55 -22.8 -6.25 -45.9 L-8.1 -49.0 -9.65 -51.3 -4.7 -56.35 Q0.8 -61.65 3.75 -62.6 L5.95 -63.6 13.65 -63.85 27.75 -63.5 Q42.6 -63.5 46.25 -65.25 L61.5 -72.5 84.4 -61.65 Q108.05 -50.5 111.8 -49.2 L109.6 -53.7 129.7 -43.6 Q152.15 -30.95 164.05 -18.6 L168.35 -14.55 Q172.6 -10.05 172.75 -8.15 170.95 -5.95 164.7 -5.85 158.45 -5.65 107.95 -21.6 L107.85 -21.6 106.95 -21.7 M106.6 -21.75 L108.8 -15.3 Q110.7 -9.6 110.7 -8.5 110.8 -6.95 109.7 -5.85 103.1 -4.65 97.6 -0.8 L93.3 2.85 89.35 -0.45 Q88.95 1.9 88.9 3.7 L87.15 21.65 Q83.1 40.9 71.75 47.25 L44.75 48.85 42.8 48.9 42.5 48.9 Q8.95 49.9 -12.95 46.6 L-17.45 46.3 -17.55 46.3 -17.95 46.2 -18.4 46.1 -19.9 45.45 M-165.9 -19.2 L-165.95 -19.15 M225.1 38.9 Q234.1 44.75 232.45 53.45 L226.75 55.4 Q225.75 51.45 223.65 47.6 219.6 39.9 214.3 40.25 L190.35 72.55 Q185.6 72.25 185.6 70.8 L196.15 55.1 Q207.5 38.9 211.35 36.6 216.6 33.4 225.1 38.9 M176.45 31.45 Q185.7 18.25 188.9 16.25 193.2 13.6 200.25 18.0 207.6 22.75 206.3 29.8 L201.55 31.65 Q200.8 28.45 199.0 25.25 195.6 19.0 191.3 19.2 L171.75 45.75 Q167.8 45.5 167.8 44.3 L176.45 31.45 M135.2 46.5 Q136.0 50.8 137.0 64.45 134.55 68.5 131.25 69.6 L127.3 70.25 125.75 70.05 115.4 58.8 Q105.5 47.6 107.4 48.05 L109.7 46.7 Q112.0 44.95 112.45 42.45 L113.1 24.7 Q113.55 10.2 115.1 11.3 117.05 12.6 125.85 27.9 134.65 43.2 135.2 46.5 M-11.85 40.0 L-28.55 32.3 Q-30.0 31.0 -30.55 28.8 -31.65 24.4 -27.05 20.1 L-24.5 18.8 Q-21.0 18.0 -15.6 20.65 L-13.05 22.1 -13.45 10.4 Q12.55 23.05 13.8 25.25 15.0 27.15 -0.95 34.75 L-11.85 40.0 M-22.85 53.45 Q-30.0 51.0 -35.95 53.65 -41.9 56.3 -69.7 51.65 L-96.45 46.6 -129.35 56.85 -150.8 51.35 Q-172.55 45.95 -174.65 46.7 -181.8 48.9 -188.95 51.45 -203.25 56.5 -203.45 57.85 L-204.25 60.6 Q-204.7 62.9 -203.8 64.55 -201.15 69.5 -185.75 69.6 L-49.8 68.65 -16.8 56.3 Q-19.2 54.65 -22.85 53.45" fill="none" stroke="#000000" stroke-linecap="butt" stroke-linejoin="miter-clip" stroke-miterlimit="10.0" stroke-width="1.0"/>
    <path d="M-165.95 -19.15 L-157.4 -1.0 Q-153.1 7.65 -150.25 12.3 M-46.95 -5.55 L-41.55 -12.55 Q-36.8 -18.85 -20.65 -32.9 -6.15 -45.55 -6.25 -45.9 M89.35 -0.45 L89.7 -2.35 Q91.1 -9.5 93.75 -14.75 95.2 -17.5 97.25 -19.05 99.45 -20.7 102.45 -21.35 L106.6 -21.75 M-13.45 10.4 L-24.9 4.85 M-19.9 45.45 Q-20.75 44.8 -19.55 43.85 -19.2 43.55 -11.85 40.0" fill="none" stroke="#000000" stroke-linecap="butt" stroke-linejoin="miter-clip" stroke-miterlimit="10.0" stroke-opacity="0.6" stroke-width="1.0"/>
  </g>
</svg>
