<?xml version="1.0" encoding="UTF-8" standalone="no"?>
<svg xmlns:xlink="http://www.w3.org/1999/xlink" height="75.1px" width="76.6px" xmlns="http://www.w3.org/2000/svg">
  <g transform="matrix(1.0, 0.0, 0.0, 1.0, 38.75, 36.15)">
    <path d="M-7.25 -12.45 Q-5.1 -9.4 -1.4 -8.35 3.3 -6.95 6.85 -8.0 10.95 -9.25 12.1 -13.6 13.1 -17.4 16.65 -23.2 20.6 -29.15 21.8 -31.35 23.35 -34.05 26.4 -35.1 27.95 -35.65 29.2 -35.65 31.95 -35.05 31.95 -29.25 32.0 -22.4 32.15 -22.15 32.9 -20.9 34.15 -16.0 L35.35 -10.95 33.05 -10.55 Q33.55 -10.55 34.15 -7.45 34.8 -3.95 34.05 -1.2 33.3 1.55 31.55 4.5 30.15 6.9 29.45 7.45 29.0 7.85 25.75 12.95 L23.5 15.9 Q22.05 17.55 21.45 18.55 L18.15 23.95 24.6 17.55 24.35 17.85 24.25 17.9 Q17.15 25.35 14.15 27.25 L13.9 27.45 Q10.9 32.7 10.7 34.0 L10.35 35.15 Q10.1 35.75 9.7 35.65 L8.05 35.35 7.45 35.15 Q5.7 34.6 4.85 33.75 L4.2 32.85 3.65 31.0 3.25 28.95 Q2.8 26.0 2.4 25.05 L0.95 21.6 Q0.35 19.7 0.7 17.9 0.35 19.7 0.95 21.6 L2.4 25.05 Q2.8 26.0 3.25 28.95 L3.65 31.0 3.15 31.1 Q2.7 25.25 1.35 24.35 L-0.1 24.15 Q-1.0 24.15 -1.5 23.55 -1.8 23.15 -1.95 21.55 -2.55 21.5 -3.7 22.15 -4.8 22.8 -5.55 22.6 L-5.45 21.6 Q-3.45 20.9 -1.2 16.2 -1.7 17.2 -1.2 17.75 -0.7 18.3 0.4 18.0 L0.7 17.9 0.9 17.2 0.9 17.05 1.8 17.1 1.95 16.95 3.25 15.55 6.0 12.7 Q7.6 10.75 7.65 9.3 L7.7 11.9 Q9.1 12.15 10.75 10.25 L13.0 7.1 Q17.9 0.05 17.75 -3.55 17.15 -2.9 16.5 -1.4 L15.3 0.95 12.35 5.4 Q10.05 8.5 8.65 8.65 8.85 7.7 9.9 5.7 L11.05 2.75 8.35 6.4 5.7 10.2 3.0 13.65 Q1.0 15.95 -0.35 15.9 -0.25 14.6 0.55 13.1 -0.05 14.4 0.0 15.35 L2.9 10.45 Q4.85 7.25 5.75 6.05 L4.05 8.0 4.4 7.4 Q3.5 7.9 1.85 9.65 L0.05 11.3 Q3.6 5.25 4.95 3.75 L2.25 6.6 Q-0.2 9.55 -0.25 11.5 L-0.75 11.75 Q-0.3 9.6 1.75 7.0 L5.3 2.95 3.35 4.65 Q2.1 5.7 1.15 5.75 1.25 4.6 2.4 3.3 L4.2 1.25 Q3.35 1.45 2.3 2.25 L0.65 3.6 Q1.15 3.15 1.7 1.55 L2.6 -0.85 5.05 -3.8 Q6.55 -5.65 6.65 -7.2 4.75 -7.5 2.65 -6.05 1.05 -4.9 -0.4 -2.95 L-3.2 1.15 -5.1 1.75 Q-7.6 2.65 -9.4 1.45 -12.6 -0.65 -10.1 -6.3 L-7.25 -12.45 M19.5 18.05 L15.25 25.05 13.9 27.45 15.25 25.05 19.5 18.05 M7.45 -0.65 L7.9 -2.2 6.75 -1.1 Q5.95 -0.4 5.45 -0.9 5.15 -1.15 5.2 -1.7 L4.95 -0.35 Q4.65 1.4 5.65 1.25 6.6 1.15 7.4 -0.3 7.05 0.6 7.15 2.35 8.65 2.15 10.4 0.3 L12.85 -2.85 10.55 -0.8 Q8.9 0.7 8.0 0.45 7.25 0.25 7.45 -0.65 M15.5 4.4 Q14.9 4.8 14.45 6.75 14.1 8.25 15.6 7.6 L16.6 6.8 17.25 5.65 Q15.95 7.2 15.5 7.0 15.0 6.8 15.25 5.8 L15.5 4.4 M-10.35 -19.45 L-10.35 -19.5 -10.5 -19.85 -10.35 -19.45" fill="#ffffff" fill-opacity="0.0" fill-rule="evenodd" stroke="none"/>
    <path d="M35.35 -10.95 L36.25 -7.2 Q37.15 -3.3 35.95 1.55 34.85 6.0 32.8 8.5 L26.75 15.25 24.9 17.25 24.6 17.55 18.15 23.95 21.45 18.55 Q22.05 17.55 23.5 15.9 L25.75 12.95 Q29.0 7.85 29.45 7.45 30.15 6.9 31.55 4.5 33.3 1.55 34.05 -1.2 34.8 -3.95 34.15 -7.45 33.55 -10.55 33.05 -10.55 L35.35 -10.95" fill="#000000" fill-opacity="0.2" fill-rule="evenodd" stroke="none"/>
    <path d="M-3.2 1.15 L-0.4 -2.95 Q1.05 -4.9 2.65 -6.05 4.75 -7.5 6.65 -7.2 6.55 -5.65 5.05 -3.8 L2.6 -0.85 1.7 1.55 Q1.15 3.15 0.65 3.6 L2.3 2.25 Q3.35 1.45 4.2 1.25 L2.4 3.3 Q1.25 4.6 1.15 5.75 2.1 5.7 3.35 4.65 L5.3 2.95 1.75 7.0 Q-0.3 9.6 -0.75 11.75 L-0.25 11.5 -0.25 11.8 0.05 11.3 1.85 9.65 Q3.5 7.9 4.4 7.4 L4.05 8.0 3.1 9.05 Q1.3 11.4 0.55 13.1 -0.25 14.6 -0.35 15.9 1.0 15.95 3.0 13.65 L5.7 10.2 8.35 6.4 11.05 2.75 9.9 5.7 Q8.85 7.7 8.65 8.65 10.05 8.5 12.35 5.4 L15.3 0.95 16.5 -1.4 Q17.15 -2.9 17.75 -3.55 17.9 0.05 13.0 7.1 L10.75 10.25 Q9.1 12.15 7.7 11.9 L7.65 9.3 Q7.6 10.75 6.0 12.7 L3.25 15.55 1.95 16.95 1.8 17.1 0.9 17.05 0.9 17.2 0.7 17.9 0.4 18.0 Q-0.7 18.3 -1.2 17.75 -1.7 17.2 -1.2 16.2 -3.45 20.9 -5.45 21.6 -5.35 20.7 -4.85 19.8 L-3.3 17.3 -5.0 18.15 -6.85 18.6 Q-6.5 17.15 -5.1 15.5 L-2.75 12.7 -4.6 13.7 Q-5.8 14.5 -6.5 14.6 -5.9 12.9 -3.75 11.1 L-0.6 8.15 Q-2.65 9.05 -2.35 5.15 L-2.1 2.75 Q-0.15 0.75 -1.0 0.65 L-3.2 1.15 M15.5 4.4 L15.25 5.8 Q15.0 6.8 15.5 7.0 15.95 7.2 17.25 5.65 L16.6 6.8 15.6 7.6 Q14.1 8.25 14.45 6.75 14.9 4.8 15.5 4.4" fill="#000000" fill-opacity="0.29803923" fill-rule="evenodd" stroke="none"/>
    <path d="M-7.25 -12.45 L-10.1 -6.3 Q-12.6 -0.65 -9.4 1.45 -7.6 2.65 -5.1 1.75 L-3.2 1.15 -1.0 0.65 Q-0.15 0.75 -2.1 2.75 L-2.35 5.15 Q-2.65 9.05 -0.6 8.15 L-3.75 11.1 Q-5.9 12.9 -6.5 14.6 -5.8 14.5 -4.6 13.7 L-2.75 12.7 -5.1 15.5 Q-6.5 17.15 -6.85 18.6 L-5.0 18.15 -3.3 17.3 -4.85 19.8 Q-5.35 20.7 -5.45 21.6 L-5.55 22.6 Q-4.8 22.8 -3.7 22.15 -2.55 21.5 -1.95 21.55 -1.8 23.15 -1.5 23.55 -1.0 24.15 -0.1 24.15 L1.35 24.35 Q2.7 25.25 3.15 31.1 L3.15 31.15 2.15 31.3 Q1.0 30.55 -1.15 30.05 -2.45 29.75 -5.95 27.65 L-6.35 27.4 -10.2 24.95 -10.3 24.85 -10.45 24.7 -10.55 24.6 -12.15 23.0 -12.35 22.8 -12.95 22.25 -14.45 20.75 -14.55 20.65 Q-15.05 20.05 -15.15 19.1 L-15.2 18.9 -15.15 17.65 -14.7 15.75 -17.6 17.55 Q-18.9 18.45 -16.7 15.25 -18.4 15.65 -20.15 16.4 -21.25 16.85 -21.15 15.45 L-20.8 13.95 -24.65 12.45 -27.3 10.4 -28.05 9.7 Q-28.5 9.3 -29.25 9.1 -29.95 8.95 -29.35 7.85 L-28.6 6.8 Q-30.0 7.95 -31.9 7.7 -33.05 7.55 -32.4 4.95 -31.45 2.05 -31.4 1.35 -31.3 0.5 -30.4 -1.8 L-29.5 -3.9 -31.8 -3.25 -31.0 -4.65 -33.95 -4.8 Q-35.0 -5.1 -34.3 -5.7 L-33.45 -6.2 -35.85 -5.8 Q-36.65 -5.8 -35.2 -7.0 L-33.55 -8.25 Q-35.85 -7.1 -36.5 -7.45 -36.85 -7.65 -36.15 -9.1 -35.45 -10.5 -35.6 -10.55 -35.85 -10.6 -35.05 -11.85 L-33.8 -13.6 -32.05 -15.9 Q-31.65 -16.9 -31.65 -17.95 -31.65 -18.55 -30.1 -19.35 L-28.6 -20.0 -30.25 -20.25 Q-30.7 -20.4 -30.85 -21.1 L-30.9 -21.75 Q-28.75 -24.0 -25.65 -23.6 -24.1 -23.45 -23.0 -22.8 -24.25 -23.65 -25.9 -24.0 L-27.3 -24.2 Q-29.4 -24.1 -29.8 -24.85 L-29.75 -25.6 Q-24.75 -30.35 -17.9 -27.05 -14.35 -25.35 -12.35 -23.0 L-11.15 -21.25 -11.0 -21.05 -10.95 -20.95 -10.5 -19.85 -10.35 -19.5 -10.35 -19.45 Q-8.8 -14.7 -7.35 -12.6 L-7.25 -12.45" fill="#000000" fill-opacity="0.4" fill-rule="evenodd" stroke="none"/>
    <path d="M-0.25 11.5 Q-0.2 9.55 2.25 6.6 L4.95 3.75 Q3.6 5.25 0.05 11.3 L-0.25 11.8 -0.25 11.5 M4.05 8.0 L5.75 6.05 Q4.85 7.25 2.9 10.45 L0.0 15.35 Q-0.05 14.4 0.55 13.1 1.3 11.4 3.1 9.05 L4.05 8.0 M7.45 -0.65 Q7.25 0.25 8.0 0.45 8.9 0.7 10.55 -0.8 L12.85 -2.85 10.4 0.3 Q8.65 2.15 7.15 2.35 7.05 0.6 7.4 -0.3 6.6 1.15 5.65 1.25 4.65 1.4 4.95 -0.35 L5.2 -1.7 Q5.15 -1.15 5.45 -0.9 5.95 -0.4 6.75 -1.1 L7.9 -2.2 7.45 -0.65" fill="#ffffff" fill-opacity="0.6" fill-rule="evenodd" stroke="none"/>
    <path d="M35.35 -10.95 L34.15 -16.0 Q32.9 -20.9 32.15 -22.15 32.0 -22.4 31.95 -29.25 31.95 -35.05 29.2 -35.65 27.95 -35.65 26.4 -35.1 23.35 -34.05 21.8 -31.35 20.6 -29.15 16.65 -23.2 13.1 -17.4 12.1 -13.6 10.95 -9.25 6.85 -8.0 3.3 -6.95 -1.4 -8.35 -5.1 -9.4 -7.25 -12.45 L-7.35 -12.6 Q-8.8 -14.7 -10.35 -19.45 L-10.35 -19.5 -10.5 -19.85 -10.35 -19.45 M3.65 31.0 L4.2 32.85 4.85 33.75 M10.35 35.15 L10.7 34.0 Q10.9 32.7 13.9 27.45 L14.15 27.25 Q17.15 25.35 24.25 17.9 L24.35 17.85 24.9 17.25 26.75 15.25 32.8 8.5 Q34.85 6.0 35.95 1.55 37.15 -3.3 36.25 -7.2 L35.35 -10.95 M3.15 31.1 L3.65 31.0 M2.15 31.3 L3.15 31.15 M-10.5 -19.85 L-10.95 -20.95 -11.0 -21.05 -11.15 -21.25 -12.35 -23.0 Q-14.35 -25.35 -17.9 -27.05 -24.75 -30.35 -29.75 -25.6 L-29.8 -24.85" fill="none" stroke="#000000" stroke-linecap="butt" stroke-linejoin="miter-clip" stroke-miterlimit="10.0" stroke-width="1.0"/>
    <path d="M-7.25 -12.45 L-10.1 -6.3 Q-12.6 -0.65 -9.4 1.45 -7.6 2.65 -5.1 1.75 L-3.2 1.15 -1.0 0.65 Q-0.15 0.75 -2.1 2.75 L-2.35 5.15 Q-2.65 9.05 -0.6 8.15 L-3.75 11.1 Q-5.9 12.9 -6.5 14.6 -5.8 14.5 -4.6 13.7 L-2.75 12.7 -5.1 15.5 Q-6.5 17.15 -6.85 18.6 L-5.0 18.15 -3.3 17.3 -4.85 19.8 Q-5.35 20.7 -5.45 21.6 L-5.55 22.6 Q-4.8 22.8 -3.7 22.15 -2.55 21.5 -1.95 21.55 -1.8 23.15 -1.5 23.55 -1.0 24.15 -0.1 24.15 L1.35 24.35 Q2.7 25.25 3.15 31.1 L3.15 31.15 M0.9 17.05 L0.9 17.2 0.7 17.9 Q0.35 19.7 0.95 21.6 L2.4 25.05 Q2.8 26.0 3.25 28.95 L3.65 31.0 M4.85 33.75 Q5.7 34.6 7.45 35.15 L8.05 35.35 9.7 35.65 Q10.1 35.75 10.35 35.15 M13.9 27.45 L15.25 25.05 19.5 18.05 M-29.8 -24.85 Q-29.4 -24.1 -27.3 -24.2 L-25.9 -24.0 Q-24.25 -23.65 -23.0 -22.8 -24.1 -23.45 -25.65 -23.6 -28.75 -24.0 -30.9 -21.75 L-30.85 -21.1 Q-30.7 -20.4 -30.25 -20.25 L-28.6 -20.0 -30.1 -19.35 Q-31.65 -18.55 -31.65 -17.95 -31.65 -16.9 -32.05 -15.9 M-33.8 -13.6 L-35.05 -11.85 Q-35.85 -10.6 -35.6 -10.55 -35.45 -10.5 -36.15 -9.1 -36.85 -7.65 -36.5 -7.45 -35.85 -7.1 -33.55 -8.25 L-35.2 -7.0 Q-36.65 -5.8 -35.85 -5.8 L-33.45 -6.2 -34.3 -5.7 Q-35.0 -5.1 -33.95 -4.8 L-31.0 -4.65 -31.8 -3.25 -29.5 -3.9 -30.4 -1.8 M-32.4 4.95 Q-33.05 7.55 -31.9 7.7 -30.0 7.95 -28.6 6.8 L-29.35 7.85 Q-29.95 8.95 -29.25 9.1 -28.5 9.3 -28.05 9.7 L-27.3 10.4 -24.65 12.45 -20.8 13.95 -21.15 15.45 Q-21.25 16.85 -20.15 16.4 -18.4 15.65 -16.7 15.25 -18.9 18.45 -17.6 17.55 L-14.7 15.75 -15.15 17.65" fill="none" stroke="#000000" stroke-linecap="butt" stroke-linejoin="miter-clip" stroke-miterlimit="10.0" stroke-opacity="0.6" stroke-width="1.0"/>
    <path d="M-32.05 -15.9 L-33.8 -13.6 M-30.4 -1.8 Q-31.3 0.5 -31.4 1.35 -31.45 2.05 -32.4 4.95 M-15.15 17.65 L-15.2 18.9 -15.15 19.1 Q-15.05 20.05 -14.55 20.65 L-14.45 20.75 -12.95 22.25 -12.35 22.8 -12.15 23.0 -10.55 24.6 -10.45 24.7 -10.3 24.85 -10.2 24.95 -6.35 27.4 -5.95 27.65 Q-2.45 29.75 -1.15 30.05 1.0 30.55 2.15 31.3" fill="none" stroke="#000000" stroke-linecap="butt" stroke-linejoin="miter-clip" stroke-miterlimit="10.0" stroke-opacity="0.8" stroke-width="1.0"/>
  </g>
</svg>
