<?xml version="1.0" encoding="UTF-8" standalone="no"?>
<svg xmlns:xlink="http://www.w3.org/1999/xlink" height="50.85px" width="63.55px" xmlns="http://www.w3.org/2000/svg">
  <g transform="matrix(1.0, 0.0, 0.0, 1.0, 31.85, 24.35)">
    <path d="M15.8 -13.35 Q14.45 -10.95 14.0 -8.8 16.95 -14.15 17.05 -15.3 L15.8 -13.35 M19.0 -7.4 Q18.2 -5.2 18.05 -2.9 20.2 -8.25 19.8 -9.15 L19.0 -7.4 M17.15 -9.25 Q16.35 -7.05 16.2 -4.75 18.35 -10.1 17.95 -11.0 L17.15 -9.25 M13.8 -6.25 Q12.9 -3.65 12.8 -1.45 14.75 -7.25 14.7 -8.4 L13.8 -6.25 M12.35 -10.25 Q11.15 -8.05 10.8 -5.5 L13.5 -11.9 12.35 -10.25 M10.35 -3.05 Q9.0 -1.1 8.3 1.1 11.7 -3.6 11.55 -4.55 L10.35 -3.05 M7.2 -2.15 Q8.3 -5.85 11.8 -11.55 L16.8 -19.55 Q18.35 -22.25 21.4 -23.3 22.95 -23.85 24.2 -23.85 26.95 -23.25 26.95 -17.45 27.0 -10.6 27.15 -10.35 27.9 -9.15 29.1 -4.35 L31.2 4.35 Q30.55 4.95 30.6 5.85 30.7 7.8 27.65 1.8 L28.05 7.5 Q28.1 9.45 26.15 5.75 L24.2 1.65 24.15 3.5 23.6 7.9 Q23.2 10.05 22.05 6.65 L21.0 2.8 20.6 4.35 19.25 7.9 Q18.45 9.6 18.1 5.8 L17.95 1.65 16.65 4.25 13.1 10.7 Q11.3 14.0 12.25 8.95 L13.6 3.3 12.05 5.1 8.75 8.15 Q7.35 9.2 8.3 5.75 L9.55 2.15 Q4.7 7.0 6.2 4.95 7.45 3.35 7.2 -2.15 M22.05 -7.3 Q22.0 -5.35 22.45 -3.9 22.5 -8.2 22.15 -8.95 L22.05 -7.3 M24.2 -2.15 Q24.2 -6.5 23.9 -7.2 L23.8 -5.55 Q23.75 -3.65 24.2 -2.15 M26.85 -2.15 Q26.9 -6.5 26.6 -7.2 L26.45 -5.55 Q26.4 -3.65 26.85 -2.15 M20.45 -4.6 Q20.0 -1.9 20.3 0.3 21.25 -5.7 20.95 -6.85 L20.45 -4.6 M26.5 3.35 Q25.6 -0.85 25.1 -1.5 L25.35 0.1 Q25.75 2.0 26.5 3.35 M-14.6 -5.45 Q-13.3 -1.9 -11.75 0.0 -9.7 2.45 -6.4 3.45 -2.5 4.6 0.7 4.05 4.35 3.45 6.05 0.65 L6.1 0.9 Q6.35 3.3 3.9 4.95 L-1.05 7.9 Q-1.05 7.45 -0.65 6.7 -0.25 5.95 -0.3 5.5 -2.9 9.05 -4.7 13.4 L-5.8 16.85 -6.25 18.6 Q-6.65 19.9 -7.05 20.2 -8.2 21.05 -7.8 17.7 -7.65 16.05 -6.95 14.35 -8.0 16.25 -8.45 17.75 L-8.95 20.25 Q-9.25 21.75 -9.75 22.7 -10.6 22.05 -10.85 20.45 L-11.05 17.85 -11.65 20.45 Q-12.2 22.4 -12.9 22.7 -13.95 23.15 -13.95 19.2 -14.0 20.2 -14.55 21.55 -15.05 22.95 -15.6 23.45 -15.9 22.25 -15.8 20.5 L-15.6 17.5 -16.4 20.75 Q-16.9 22.8 -17.4 23.85 -18.15 23.1 -18.3 21.5 -18.4 19.85 -17.75 18.9 L-19.2 20.2 Q-20.5 21.2 -20.85 20.9 -21.2 20.6 -20.6 19.3 L-19.8 17.65 -20.9 19.05 Q-21.65 19.95 -22.2 20.0 -22.3 19.2 -21.6 17.95 L-20.1 15.9 -23.75 19.1 -24.9 19.9 Q-25.35 19.9 -25.55 18.75 -25.95 16.4 -22.35 12.8 L-24.15 14.0 -26.25 15.95 -28.2 18.0 Q-28.55 13.25 -22.5 8.85 L-27.2 12.25 -28.75 13.8 Q-29.85 14.75 -30.15 14.15 -30.6 13.3 -29.35 11.15 -28.5 9.65 -27.45 8.5 -25.85 6.6 -23.3 5.25 -24.85 5.75 -27.3 7.65 -29.8 9.55 -31.15 10.05 -30.15 6.0 -25.1 3.35 -22.4 1.9 -16.25 0.1 L-18.35 0.15 -20.45 0.35 Q-19.6 -0.4 -17.95 -0.9 L-15.35 -1.75 Q-16.15 -2.15 -17.5 -2.35 L-19.65 -2.7 Q-19.0 -3.55 -17.55 -3.7 L-15.15 -3.6 Q-17.5 -5.2 -17.35 -6.35 -17.3 -6.65 -14.6 -5.45 M-6.65 8.1 Q-9.5 12.0 -9.75 15.2 L-6.95 10.05 -4.1 5.15 -6.65 8.1 M-19.65 3.95 Q-25.6 6.5 -25.05 7.15 -24.4 7.9 -17.7 4.6 -11.05 1.3 -13.55 1.5 L-19.65 3.95 M-15.75 5.85 Q-20.0 8.65 -21.85 11.2 -12.3 4.35 -11.9 3.55 L-15.75 5.85 M-17.25 10.45 Q-17.65 12.15 -12.9 8.45 L-8.05 4.45 -12.4 6.45 Q-16.85 8.8 -17.25 10.45 M-13.6 13.05 Q-9.65 9.5 -7.9 8.65 L-12.25 10.75 Q-16.85 13.5 -17.4 16.55 L-13.6 13.05" fill="#ffffff" fill-opacity="0.0" fill-rule="evenodd" stroke="none"/>
    <path d="M10.35 -3.05 L11.55 -4.55 Q11.7 -3.6 8.3 1.1 9.0 -1.1 10.35 -3.05 M12.35 -10.25 L13.5 -11.9 10.8 -5.5 Q11.15 -8.05 12.35 -10.25 M13.8 -6.25 L14.7 -8.4 Q14.75 -7.25 12.8 -1.45 12.9 -3.65 13.8 -6.25 M17.15 -9.25 L17.95 -11.0 Q18.35 -10.1 16.2 -4.75 16.35 -7.05 17.15 -9.25 M19.0 -7.4 L19.8 -9.15 Q20.2 -8.25 18.05 -2.9 18.2 -5.2 19.0 -7.4 M15.8 -13.35 L17.05 -15.3 Q16.95 -14.15 14.0 -8.8 14.45 -10.95 15.8 -13.35 M26.5 3.35 Q25.75 2.0 25.35 0.1 L25.1 -1.5 Q25.6 -0.85 26.5 3.35 M20.45 -4.6 L20.95 -6.85 Q21.25 -5.7 20.3 0.3 20.0 -1.9 20.45 -4.6 M26.85 -2.15 Q26.4 -3.65 26.45 -5.55 L26.6 -7.2 Q26.9 -6.5 26.85 -2.15 M24.2 -2.15 Q23.75 -3.65 23.8 -5.55 L23.9 -7.2 Q24.2 -6.5 24.2 -2.15 M22.05 -7.3 L22.15 -8.95 Q22.5 -8.2 22.45 -3.9 22.0 -5.35 22.05 -7.3 M-13.6 13.05 L-17.4 16.55 Q-16.85 13.5 -12.25 10.75 L-7.9 8.65 Q-9.65 9.5 -13.6 13.05 M-17.25 10.45 Q-16.85 8.8 -12.4 6.45 L-8.05 4.45 -12.9 8.45 Q-17.65 12.15 -17.25 10.45 M-15.75 5.85 L-11.9 3.55 Q-12.3 4.35 -21.85 11.2 -20.0 8.65 -15.75 5.85 M-19.65 3.95 L-13.55 1.5 Q-11.05 1.3 -17.7 4.6 -24.4 7.9 -25.05 7.15 -25.6 6.5 -19.65 3.95 M-6.65 8.1 L-4.1 5.15 -6.95 10.05 -9.75 15.2 Q-9.5 12.0 -6.65 8.1" fill="#000000" fill-opacity="0.2" fill-rule="evenodd" stroke="none"/>
    <path d="M31.2 4.35 L29.1 -4.35 Q27.9 -9.15 27.15 -10.35 27.0 -10.6 26.95 -17.45 26.95 -23.25 24.2 -23.85 22.95 -23.85 21.4 -23.3 18.35 -22.25 16.8 -19.55 L11.8 -11.55 Q8.3 -5.85 7.2 -2.15 M6.05 0.65 Q4.35 3.45 0.7 4.05 -2.5 4.6 -6.4 3.45 -9.7 2.45 -11.75 0.0 -13.3 -1.9 -14.6 -5.45" fill="none" stroke="#000000" stroke-linecap="butt" stroke-linejoin="miter-clip" stroke-miterlimit="10.0" stroke-width="1.0"/>
    <path d="M7.2 -2.15 Q7.45 3.35 6.2 4.95 4.7 7.0 9.55 2.15 L8.3 5.75 Q7.35 9.2 8.75 8.15 L12.05 5.1 13.6 3.3 12.25 8.95 Q11.3 14.0 13.1 10.7 L16.65 4.25 17.95 1.65 18.1 5.8 Q18.45 9.6 19.25 7.9 L20.6 4.35 21.0 2.8 22.05 6.65 Q23.2 10.05 23.6 7.9 L24.15 3.5 24.2 1.65 26.15 5.75 Q28.1 9.45 28.05 7.5 L27.65 1.8 Q30.7 7.8 30.6 5.85 30.55 4.95 31.2 4.35 M-14.6 -5.45 Q-17.3 -6.65 -17.35 -6.35 -17.5 -5.2 -15.15 -3.6 L-17.55 -3.7 Q-19.0 -3.55 -19.65 -2.7 L-17.5 -2.35 Q-16.15 -2.15 -15.35 -1.75 L-17.95 -0.9 Q-19.6 -0.4 -20.45 0.35 L-18.35 0.15 -16.25 0.1 Q-22.4 1.9 -25.1 3.35 -30.15 6.0 -31.15 10.05 -29.8 9.55 -27.3 7.65 -24.85 5.75 -23.3 5.25 -25.85 6.6 -27.45 8.5 -28.5 9.65 -29.35 11.15 -30.6 13.3 -30.15 14.15 -29.85 14.75 -28.75 13.8 L-27.2 12.25 -22.5 8.85 Q-28.55 13.25 -28.2 18.0 L-26.25 15.95 -24.15 14.0 -22.35 12.8 Q-25.95 16.4 -25.55 18.75 -25.35 19.9 -24.9 19.9 L-23.75 19.1 -20.1 15.9 -21.6 17.95 Q-22.3 19.2 -22.2 20.0 -21.65 19.95 -20.9 19.05 L-19.8 17.65 -20.6 19.3 Q-21.2 20.6 -20.85 20.9 -20.5 21.2 -19.2 20.2 L-17.75 18.9 Q-18.4 19.85 -18.3 21.5 -18.15 23.1 -17.4 23.85 -16.9 22.8 -16.4 20.75 L-15.6 17.5 -15.8 20.5 Q-15.9 22.25 -15.6 23.45 -15.05 22.95 -14.55 21.55 -14.0 20.2 -13.95 19.2 -13.95 23.15 -12.9 22.7 -12.2 22.4 -11.65 20.45 L-11.05 17.85 -10.85 20.45 Q-10.6 22.05 -9.75 22.7 -9.25 21.75 -8.95 20.25 L-8.45 17.75 Q-8.0 16.25 -6.95 14.35 -7.65 16.05 -7.8 17.7 -8.2 21.05 -7.05 20.2 -6.65 19.9 -6.25 18.6 L-5.8 16.85 -4.7 13.4 Q-2.9 9.05 -0.3 5.5 -0.25 5.95 -0.65 6.7 -1.05 7.45 -1.05 7.9 L3.9 4.95 Q6.35 3.3 6.1 0.9 L6.05 0.65" fill="none" stroke="#000000" stroke-linecap="butt" stroke-linejoin="miter-clip" stroke-miterlimit="10.0" stroke-opacity="0.6" stroke-width="1.0"/>
  </g>
</svg>
