<?xml version="1.0" encoding="UTF-8" standalone="no"?>
<svg xmlns:xlink="http://www.w3.org/1999/xlink" height="27.15px" width="17.4px" xmlns="http://www.w3.org/2000/svg">
  <g transform="matrix(1.0, 0.0, 0.0, 1.0, 7.6, 14.6)">
    <path d="M-5.15 -7.5 L-5.0 -8.8 Q-4.75 -10.0 -4.05 -9.55 L-2.8 -8.3 Q-2.4 -7.75 -2.25 -8.0 L-2.0 -9.6 Q-1.8 -10.7 -1.35 -10.15 L-0.05 -8.25 0.95 -9.25 Q1.9 -10.05 1.85 -9.25 L1.7 -7.35 2.25 -7.65 Q2.85 -7.85 3.0 -7.5 L2.95 -6.35 Q2.8 -5.75 3.0 -5.8 L4.3 -6.65 5.15 -6.7 4.4 -5.3 4.0 -4.55 5.45 -4.9 Q6.5 -5.15 6.05 -4.7 5.3 -3.9 6.7 -2.4 6.55 1.2 5.55 1.45 L2.25 2.35 3.1 3.1 4.4 5.8 Q5.35 8.7 3.5 9.75 L2.0 10.3 Q0.25 10.65 -1.65 9.55 L-3.2 8.35 Q-4.35 7.15 -4.9 5.35 L-5.3 3.85 -3.65 2.2 -4.05 1.65 -4.1 1.45 Q-4.3 0.5 -3.0 -0.2 L-0.95 -1.35 -1.25 -1.85 -1.9 -2.75 -2.0 -2.85 -2.15 -3.05 Q-3.35 -4.35 -4.55 -4.4 -6.0 -4.5 -6.5 -5.4 -6.95 -6.2 -6.3 -7.25 -5.85 -8.05 -5.45 -7.85 L-5.15 -7.5" fill="#ffffff" fill-opacity="0.0" fill-rule="evenodd" stroke="none"/>
    <path d="M1.7 -7.35 L2.25 -7.65 M2.25 2.35 L3.1 3.1" fill="none" stroke="#000000" stroke-linecap="butt" stroke-linejoin="miter-clip" stroke-miterlimit="10.0" stroke-width="1.0"/>
    <path d="M-5.15 -7.5 L-5.0 -8.8 Q-4.75 -10.0 -4.05 -9.55 L-2.8 -8.3 Q-2.4 -7.75 -2.25 -8.0 L-2.0 -9.6 Q-1.8 -10.7 -1.35 -10.15 L-0.05 -8.25 0.95 -9.25 Q1.9 -10.05 1.85 -9.25 L1.7 -7.35 M2.25 -7.65 Q2.85 -7.85 3.0 -7.5 L2.95 -6.35 Q2.8 -5.75 3.0 -5.8 L4.3 -6.65 5.15 -6.7 4.4 -5.3 4.0 -4.55 5.45 -4.9 Q6.5 -5.15 6.05 -4.7 5.3 -3.9 6.7 -2.4 M5.55 1.45 L2.25 2.35 M3.1 3.1 L4.4 5.8 M-5.3 3.85 L-3.65 2.2 -4.05 1.65 -4.1 1.45 Q-4.3 0.5 -3.0 -0.2 L-0.95 -1.35" fill="none" stroke="#000000" stroke-linecap="butt" stroke-linejoin="miter-clip" stroke-miterlimit="10.0" stroke-opacity="0.6" stroke-width="1.0"/>
    <path d="M6.7 -2.4 Q6.55 1.2 5.55 1.45 M4.4 5.8 Q5.35 8.7 3.5 9.75 L2.0 10.3 Q0.25 10.65 -1.65 9.55 L-3.2 8.35 Q-4.35 7.15 -4.9 5.35 L-5.3 3.85 M-0.95 -1.35 L-1.25 -1.85 -1.9 -2.75 -2.0 -2.85 -2.15 -3.05 Q-3.35 -4.35 -4.55 -4.4 -6.0 -4.5 -6.5 -5.4 -6.95 -6.2 -6.3 -7.25 -5.85 -8.05 -5.45 -7.85 L-5.15 -7.5" fill="none" stroke="#000000" stroke-linecap="butt" stroke-linejoin="miter-clip" stroke-miterlimit="10.0" stroke-opacity="0.8" stroke-width="1.0"/>
    <path d="M-0.2 1.45 Q-1.05 2.65 -1.9 2.1 L-2.6 1.3 Q-1.8 -0.05 -0.95 0.55 L-0.2 1.45" fill="#000000" fill-rule="evenodd" stroke="none"/>
    <path d="M-0.2 1.45 L-0.95 0.55 Q-1.8 -0.05 -2.6 1.3 L-1.9 2.1 Q-1.05 2.65 -0.2 1.45 Z" fill="none" stroke="#000000" stroke-linecap="butt" stroke-linejoin="miter-clip" stroke-miterlimit="10.0" stroke-width="1.0"/>
    <path d="M2.0 3.7 L3.5 5.9 Q4.65 8.65 1.7 9.5 2.45 9.0 2.85 8.0 3.55 6.05 2.0 3.7" fill="#ffffff" fill-opacity="0.6" fill-rule="evenodd" stroke="none"/>
    <path d="M5.05 -4.0 L5.05 -3.45 Q5.05 -2.8 5.35 -2.4 5.8 -1.8 5.8 -0.85 5.85 0.2 5.25 0.6 4.4 1.15 1.9 1.75 4.5 0.7 4.7 0.1 L5.05 -1.9 4.35 -2.8 Q3.85 -3.7 5.05 -4.0" fill="#ffffff" fill-opacity="0.6" fill-rule="evenodd" stroke="none"/>
    <path d="M1.2 3.15 Q0.6 4.9 -1.15 5.05 -1.85 5.1 -2.45 4.5 -3.05 3.85 -3.35 3.7 L-2.4 4.15 -1.25 4.2 0.15 3.9 1.2 3.15" fill="#000000" fill-opacity="0.2" fill-rule="evenodd" stroke="none"/>
  </g>
</svg>
