<?xml version="1.0" encoding="UTF-8" standalone="no"?>
<svg xmlns:xlink="http://www.w3.org/1999/xlink" height="330.0px" width="502.0px" xmlns="http://www.w3.org/2000/svg">
  <g transform="matrix(1.0, 0.0, 0.0, 1.0, 251.0, 165.0)">
    <path d="M250.5 -137.5 L-215.0 -86.5 -247.75 -93.5 232.25 -146.75 250.5 -137.5 M232.5 -15.0 L250.0 -4.75 -216.5 35.25 -249.25 27.5 232.5 -15.0 M249.25 135.75 L-218.25 164.5 -250.5 156.0 231.5 125.75 249.25 135.75" fill="#000000" fill-opacity="0.2" fill-rule="evenodd" stroke="none"/>
    <path d="M-247.75 -93.5 L-247.75 -109.0 232.25 -164.5 250.5 -154.25 250.5 -137.5 232.25 -146.75 -247.75 -93.5 M232.25 -164.5 L232.25 -146.75 232.25 -164.5 M232.5 -15.0 L232.5 -32.25 232.5 -15.0 -249.25 27.5 -249.0 12.25 232.5 -32.25 250.0 -22.0 250.0 -4.75 232.5 -15.0 M-250.5 156.0 L-249.75 140.5 231.5 107.5 249.25 117.75 249.25 135.75 231.5 125.75 -250.5 156.0 M231.5 107.5 L231.5 125.75 231.5 107.5" fill="#ffffff" fill-opacity="0.0" fill-rule="evenodd" stroke="none"/>
    <path d="M-247.75 -93.5 L-247.75 -109.0 232.25 -164.5 250.5 -154.25 250.5 -137.5 -215.0 -86.5 -247.75 -93.5 M250.0 -4.75 L250.0 -22.0 232.5 -32.25 -249.0 12.25 -249.25 27.5 -216.5 35.25 250.0 -4.75 M-250.5 156.0 L-249.75 140.5 231.5 107.5 249.25 117.75 249.25 135.75 -218.25 164.5 -250.5 156.0" fill="none" stroke="#000000" stroke-linecap="round" stroke-linejoin="miter-clip" stroke-miterlimit="10.0" stroke-width="1.0"/>
    <path d="M-247.75 -93.5 L232.25 -146.75 232.25 -164.5 M232.5 -32.25 L232.5 -15.0 250.0 -4.75 M-249.25 27.5 L232.5 -15.0 M232.25 -146.75 L250.5 -137.5 M-250.5 156.0 L231.5 125.75 231.5 107.5 M231.5 125.75 L249.25 135.75" fill="none" stroke="#000000" stroke-linecap="round" stroke-linejoin="miter-clip" stroke-miterlimit="10.0" stroke-opacity="0.6" stroke-width="1.0"/>
  </g>
</svg>
