<?xml version="1.0" encoding="UTF-8" standalone="no"?>
<svg xmlns:xlink="http://www.w3.org/1999/xlink" height="102.9px" width="113.4px" xmlns="http://www.w3.org/2000/svg">
  <g transform="matrix(1.0, 0.0, 0.0, 1.0, 56.75, 51.45)">
    <path d="M10.85 -8.55 L23.95 -8.45 Q23.55 -7.55 22.3 -6.4 19.85 -4.05 15.95 -2.95 L44.2 43.7 56.0 43.7 Q55.65 44.95 54.65 46.45 52.75 49.5 49.6 50.95 L-49.5 50.95 Q-52.65 49.5 -54.6 46.45 L-55.95 43.7 -47.4 43.7 -19.1 -2.95 Q-23.0 -4.05 -25.45 -6.4 L-27.1 -8.45 -13.9 -8.5 -11.35 -8.5 -2.1 -8.55 -1.55 -8.55 0.1 -8.55 8.4 -8.55 10.85 -8.55 M15.95 -2.95 L13.35 -2.95 15.95 -2.95 M1.15 -6.75 L21.9 -7.65 -24.1 -7.65 1.15 -6.75 M-19.05 -2.95 L-19.1 -2.95 -19.05 -2.95 -16.65 -2.95 -19.05 -2.95 M-2.25 -2.95 L-16.65 -2.95 -44.85 43.7 -2.25 43.7 -0.05 43.7 -2.25 43.7 -2.25 -2.95 -0.05 -2.95 -2.25 -2.95 M41.6 43.7 L13.35 -2.95 -0.05 -2.95 -0.05 43.7 41.6 43.7 44.2 43.7 41.6 43.7 M-47.4 43.7 L-44.85 43.7 -47.4 43.7 M2.45 46.35 L53.8 44.75 -53.2 45.0 Q-49.55 47.45 2.45 46.35" fill="#ffffff" fill-opacity="0.0" fill-rule="evenodd" stroke="none"/>
    <path d="M-13.9 -8.5 L-2.1 -25.4 -2.1 -47.15 Q-4.95 -47.75 -7.7 -50.95 L6.1 -50.95 Q4.55 -48.75 2.1 -47.65 1.1 -47.2 0.1 -47.05 L0.1 -24.85 10.85 -8.55 8.4 -8.55 0.1 -21.7 0.1 -8.55 -1.55 -8.55 -2.1 -8.55 -2.1 -22.25 -11.35 -8.5 -13.9 -8.5 M-2.1 -25.4 L-2.1 -22.25 -2.1 -25.4 M0.1 -24.85 L0.1 -21.7 0.1 -24.85 M-2.1 -47.15 L0.1 -47.05 -2.1 -47.15" fill="#000000" fill-opacity="0.2" fill-rule="evenodd" stroke="none"/>
    <path d="M1.15 -6.75 L-24.1 -7.65 21.9 -7.65 1.15 -6.75 M2.45 46.35 Q-49.55 47.45 -53.2 45.0 L53.8 44.75 2.45 46.35" fill="#ffffff" fill-opacity="0.6" fill-rule="evenodd" stroke="none"/>
    <path d="M-13.9 -8.5 L-2.1 -25.4 -2.1 -47.15 Q-4.95 -47.75 -7.7 -50.95 L6.1 -50.95 Q4.55 -48.75 2.1 -47.65 1.1 -47.2 0.1 -47.05 L0.1 -24.85 10.85 -8.55 23.95 -8.45 Q23.55 -7.55 22.3 -6.4 19.85 -4.05 15.95 -2.95 L44.2 43.7 56.0 43.7 Q55.65 44.95 54.65 46.45 52.75 49.5 49.6 50.95 L-49.5 50.95 Q-52.65 49.5 -54.6 46.45 L-55.95 43.7 -47.4 43.7 -19.1 -2.95 Q-23.0 -4.05 -25.45 -6.4 L-27.1 -8.45 -13.9 -8.5 M-11.35 -8.5 L-2.1 -22.25 -2.1 -8.55 -11.35 -8.5 M-1.55 -8.55 L-2.1 -8.55 M0.1 -8.55 L0.1 -21.7 M-19.1 -2.95 L-19.05 -2.95 M-16.65 -2.95 L-2.25 -2.95 -2.25 43.7 -44.85 43.7 -16.65 -2.95 M-0.05 -2.95 L13.35 -2.95 41.6 43.7 -0.05 43.7 -0.05 -2.95" fill="none" stroke="#000000" stroke-linecap="butt" stroke-linejoin="miter-clip" stroke-miterlimit="10.0" stroke-width="1.0"/>
    <path d="M-13.9 -8.5 L-11.35 -8.5 M-2.1 -22.25 L-2.1 -25.4 M13.35 -2.95 L15.95 -2.95 M0.1 -8.55 L-1.55 -8.55 M0.1 -21.7 L0.1 -24.85 M-19.05 -2.95 L-16.65 -2.95 M-2.25 -2.95 L-0.05 -2.95 M41.6 43.7 L44.2 43.7 M-0.05 43.7 L-2.25 43.7 M-44.85 43.7 L-47.4 43.7 M0.1 -47.05 L-2.1 -47.15" fill="none" stroke="#000000" stroke-linecap="butt" stroke-linejoin="miter-clip" stroke-miterlimit="10.0" stroke-opacity="0.6" stroke-width="1.0"/>
    <path d="M10.85 -8.55 L8.4 -8.55" fill="none" stroke="#000000" stroke-linecap="butt" stroke-linejoin="miter-clip" stroke-miterlimit="10.0" stroke-opacity="0.6" stroke-width="1.0"/>
    <path d="M8.4 -8.55 L0.1 -8.55" fill="none" stroke="#000000" stroke-linecap="round" stroke-linejoin="miter-clip" stroke-miterlimit="10.0" stroke-width="1.0"/>
    <path d="M0.1 -21.7 L8.4 -8.55" fill="none" stroke="#000000" stroke-linecap="butt" stroke-linejoin="miter-clip" stroke-miterlimit="10.0" stroke-width="1.0"/>
  </g>
</svg>
