<?xml version="1.0" encoding="UTF-8" standalone="no"?>
<svg xmlns:xlink="http://www.w3.org/1999/xlink" height="570.35px" width="1001.9px" xmlns="http://www.w3.org/2000/svg">
  <g transform="matrix(1.0, 0.0, 0.0, 1.0, 500.95, 285.15)">
    <path d="M16.1 -9.65 L10.05 -9.65 10.05 -39.9 16.1 -39.9 10.05 -39.9 10.05 -9.65 16.1 -9.65 16.1 75.75 10.05 75.75 10.05 106.05 16.1 106.05 10.05 106.05 10.05 75.75 16.1 75.75 16.1 106.05 16.1 203.55 10.05 203.55 10.05 234.4 16.1 234.4 10.05 234.4 10.05 203.55 16.1 203.55 16.1 234.4 16.1 284.0 -18.75 284.0 -18.75 234.4 -12.7 234.4 -12.7 203.55 -18.75 203.55 -12.7 203.55 -12.7 234.4 -18.75 234.4 -18.75 203.55 -18.75 106.05 -12.7 106.05 -12.7 75.75 -18.75 75.75 -12.7 75.75 -12.7 106.05 -18.75 106.05 -18.75 75.75 -18.75 -9.65 -12.7 -9.65 -12.7 -39.9 -18.75 -39.9 -12.7 -39.9 -12.7 -9.65 -18.75 -9.65 -18.75 -39.9 -18.75 -64.75 -159.85 -64.75 -299.75 -64.75 -299.75 -39.9 -305.8 -39.9 -305.8 -9.65 -299.75 -9.65 -305.8 -9.65 -305.8 -39.9 -299.75 -39.9 -299.75 -9.65 -299.75 75.75 -305.8 75.75 -305.8 106.05 -299.75 106.05 -305.8 106.05 -305.8 75.75 -299.75 75.75 -299.75 106.05 -299.75 203.55 -305.8 203.55 -305.8 234.4 -299.75 234.4 -305.8 234.4 -305.8 203.55 -299.75 203.55 -299.75 234.4 -299.75 284.0 -500.45 284.0 -500.45 -284.65 500.45 -284.65 500.45 284.0 297.1 284.0 297.1 234.4 303.15 234.4 303.15 203.55 297.1 203.55 303.15 203.55 303.15 234.4 297.1 234.4 297.1 203.55 297.1 106.05 303.15 106.05 303.15 75.75 297.1 75.75 303.15 75.75 303.15 106.05 297.1 106.05 297.1 75.75 297.1 -9.65 303.15 -9.65 303.15 -39.9 297.1 -39.9 303.15 -39.9 303.15 -9.65 297.1 -9.65 297.1 -39.9 297.1 -64.75 156.0 -64.75 16.1 -64.75 16.1 -39.9 16.1 -9.65 M131.75 -41.1 L131.75 257.45 37.3 257.45 37.3 -41.1 131.75 -41.1 M164.45 95.15 L176.0 95.15 176.0 136.3 164.45 136.3 164.45 95.15 M181.45 -41.1 L275.3 -41.1 275.3 257.45 181.45 257.45 181.45 -41.1 M148.1 95.15 L148.1 136.3 137.2 136.3 137.2 95.15 148.1 95.15 M-184.1 -41.1 L-184.1 257.45 -278.55 257.45 -278.55 -41.1 -184.1 -41.1 M-151.4 95.15 L-139.85 95.15 -139.85 136.3 -151.4 136.3 -151.4 95.15 M-134.4 -41.1 L-40.55 -41.1 -40.55 257.45 -134.4 257.45 -134.4 -41.1 M-167.75 95.15 L-167.75 136.3 -178.65 136.3 -178.65 95.15 -167.75 95.15" fill="#ffffff" fill-opacity="0.0" fill-rule="evenodd" stroke="none"/>
    <path d="M16.1 -9.65 L16.1 -39.9 16.1 -64.75 156.0 -64.75 297.1 -64.75 297.1 -39.9 297.1 -9.65 297.1 75.75 297.1 106.05 297.1 203.55 297.1 234.4 297.1 284.0 297.1 284.7 156.0 284.7 156.0 284.0 156.0 -64.75 156.0 284.0 156.0 284.7 16.1 284.7 16.1 284.0 16.1 234.4 16.1 203.55 16.1 106.05 16.1 75.75 16.1 -9.65 M-299.75 284.0 L-299.75 234.4 -299.75 203.55 -299.75 106.05 -299.75 75.75 -299.75 -9.65 -299.75 -39.9 -299.75 -64.75 -159.85 -64.75 -18.75 -64.75 -18.75 -39.9 -18.75 -9.65 -18.75 75.75 -18.75 106.05 -18.75 203.55 -18.75 234.4 -18.75 284.0 -18.75 284.7 -159.85 284.7 -299.75 284.7 -299.75 284.0 M131.75 -41.1 L37.3 -41.1 37.3 257.45 131.75 257.45 131.75 -41.1 M181.45 -41.1 L181.45 257.45 275.3 257.45 275.3 -41.1 181.45 -41.1 M164.45 95.15 L164.45 136.3 176.0 136.3 176.0 95.15 164.45 95.15 M148.1 95.15 L137.2 95.15 137.2 136.3 148.1 136.3 148.1 95.15 M-184.1 -41.1 L-278.55 -41.1 -278.55 257.45 -184.1 257.45 -184.1 -41.1 M-134.4 -41.1 L-134.4 257.45 -40.55 257.45 -40.55 -41.1 -134.4 -41.1 M-151.4 95.15 L-151.4 136.3 -139.85 136.3 -139.85 95.15 -151.4 95.15 M-167.75 95.15 L-178.65 95.15 -178.65 136.3 -167.75 136.3 -167.75 95.15 M-159.85 284.7 L-159.85 284.0 -159.85 -64.75 -159.85 284.0 -159.85 284.7" fill="#000000" fill-opacity="0.09803922" fill-rule="evenodd" stroke="none"/>
    <path d="M131.75 -41.1 L131.75 257.45 37.3 257.45 37.3 -41.1 131.75 -41.1 M181.45 -41.1 L181.45 257.45 275.3 257.45 275.3 -41.1 181.45 -41.1 M164.45 95.15 L164.45 136.3 176.0 136.3 176.0 95.15 164.45 95.15 M148.1 95.15 L148.1 136.3 137.2 136.3 137.2 95.15 148.1 95.15 M-184.1 -41.1 L-184.1 257.45 -278.55 257.45 -278.55 -41.1 -184.1 -41.1 M-134.4 -41.1 L-134.4 257.45 -40.55 257.45 -40.55 -41.1 -134.4 -41.1 M-151.4 95.15 L-151.4 136.3 -139.85 136.3 -139.85 95.15 -151.4 95.15 M-167.75 95.15 L-167.75 136.3 -178.65 136.3 -178.65 95.15 -167.75 95.15" fill="none" stroke="#000000" stroke-linecap="butt" stroke-linejoin="miter-clip" stroke-miterlimit="10.0" stroke-width="1.0"/>
    <path d="M16.1 -39.9 L10.05 -39.9 10.05 -9.65 16.1 -9.65 16.1 75.75 10.05 75.75 10.05 106.05 16.1 106.05 16.1 203.55 10.05 203.55 10.05 234.4 16.1 234.4 16.1 284.0 16.1 284.7 156.0 284.7 297.1 284.7 297.1 284.0 297.1 234.4 303.15 234.4 303.15 203.55 297.1 203.55 297.1 106.05 303.15 106.05 303.15 75.75 297.1 75.75 297.1 -9.65 303.15 -9.65 303.15 -39.9 297.1 -39.9 297.1 -64.75 156.0 -64.75 16.1 -64.75 16.1 -39.9 M-299.75 284.0 L-299.75 234.4 -305.8 234.4 -305.8 203.55 -299.75 203.55 -299.75 106.05 -305.8 106.05 -305.8 75.75 -299.75 75.75 -299.75 -9.65 -305.8 -9.65 -305.8 -39.9 -299.75 -39.9 -299.75 -64.75 -159.85 -64.75 -18.75 -64.75 -18.75 -39.9 -12.7 -39.9 -12.7 -9.65 -18.75 -9.65 -18.75 75.75 -12.7 75.75 -12.7 106.05 -18.75 106.05 -18.75 203.55 -12.7 203.55 -12.7 234.4 -18.75 234.4 -18.75 284.0 -18.75 284.7 -159.85 284.7 -299.75 284.7 -299.75 284.0" fill="none" stroke="#000000" stroke-linecap="round" stroke-linejoin="miter-clip" stroke-miterlimit="10.0" stroke-width="1.0"/>
    <path d="M16.1 -9.65 L16.1 -39.9 M297.1 284.0 L500.45 284.0 500.45 -284.65 -500.45 -284.65 -500.45 284.0 -299.75 284.0 M-18.75 284.0 L16.1 284.0 M297.1 -39.9 L297.1 -9.65 M297.1 106.05 L297.1 75.75 M16.1 106.05 L16.1 75.75 M156.0 -64.75 L156.0 284.0 156.0 284.7 M16.1 234.4 L16.1 203.55 M297.1 234.4 L297.1 203.55 M-299.75 -9.65 L-299.75 -39.9 M-18.75 -9.65 L-18.75 -39.9 M-18.75 75.75 L-18.75 106.05 M-299.75 106.05 L-299.75 75.75 M-299.75 234.4 L-299.75 203.55 M-18.75 203.55 L-18.75 234.4 M-159.85 -64.75 L-159.85 284.0 -159.85 284.7" fill="none" stroke="#000000" stroke-linecap="round" stroke-linejoin="miter-clip" stroke-miterlimit="10.0" stroke-opacity="0.6" stroke-width="1.0"/>
  </g>
</svg>
