<?xml version="1.0" encoding="UTF-8" standalone="no"?>
<svg xmlns:xlink="http://www.w3.org/1999/xlink" height="231.0px" width="830.2px" xmlns="http://www.w3.org/2000/svg">
  <g transform="matrix(1.0, 0.0, 0.0, 1.0, 414.5, 115.5)">
    <path d="M78.0 -45.0 L78.0 -115.0 78.0 -45.0 -82.0 -45.0 -242.0 -45.0 -242.0 -115.0 -242.0 -45.0 -414.0 -45.0 -414.0 -94.0 -410.0 -115.0 -242.0 -115.0 78.0 -115.0 415.2 -115.0 414.0 -45.0 238.0 -45.0 78.0 -45.0 M238.0 -113.0 L238.0 -45.0 238.0 -113.0 M-82.0 -113.0 L-82.0 -45.0 -82.0 -113.0 M395.65 45.0 L395.65 50.0 395.35 50.0 395.35 115.0 238.0 115.0 238.0 45.0 238.0 115.0 78.0 115.0 78.0 45.0 78.0 115.0 -82.0 115.0 -82.0 45.0 -82.0 115.0 -242.0 115.0 -242.0 45.0 -242.0 115.0 -414.0 115.0 -414.0 45.0 -242.0 45.0 -82.0 45.0 78.0 45.0 238.0 45.0 395.65 45.0" fill="#ffffff" fill-opacity="0.0" fill-rule="evenodd" stroke="none"/>
    <path d="M414.0 -45.0 L415.2 -115.0 M-410.0 -115.0 L-414.0 -94.0 -414.0 -45.0 M-414.0 45.0 L-414.0 115.0" fill="none" stroke="#000000" stroke-linecap="butt" stroke-linejoin="miter-clip" stroke-miterlimit="10.0" stroke-width="1.0"/>
    <path d="M415.2 -115.0 L78.0 -115.0 -242.0 -115.0 -242.0 -45.0 -82.0 -45.0 -82.0 -113.0 M395.65 45.0 L238.0 45.0 238.0 115.0 395.35 115.0 M78.0 45.0 L78.0 115.0 238.0 115.0 M238.0 45.0 L78.0 45.0 -82.0 45.0 -82.0 115.0 78.0 115.0 M-414.0 -45.0 L-242.0 -45.0 M-242.0 -115.0 L-410.0 -115.0 M-242.0 45.0 L-242.0 115.0 -82.0 115.0 M-82.0 45.0 L-242.0 45.0 -414.0 45.0 M-414.0 115.0 L-242.0 115.0 M78.0 -45.0 L-82.0 -45.0" fill="none" stroke="#000000" stroke-linecap="butt" stroke-linejoin="miter-clip" stroke-miterlimit="10.0" stroke-opacity="0.6" stroke-width="1.0"/>
    <path d="M78.0 -115.0 L78.0 -45.0 238.0 -45.0" fill="none" stroke="#000000" stroke-linecap="butt" stroke-linejoin="miter-clip" stroke-miterlimit="10.0" stroke-opacity="0.6" stroke-width="1.0"/>
    <path d="M238.0 -45.0 L238.0 -113.0 M238.0 -45.0 L414.0 -45.0" fill="none" stroke="#000000" stroke-linecap="round" stroke-linejoin="miter-clip" stroke-miterlimit="10.0" stroke-opacity="0.6" stroke-width="1.0"/>
  </g>
</svg>
