<?xml version="1.0" encoding="UTF-8" standalone="no"?>
<svg xmlns:xlink="http://www.w3.org/1999/xlink" height="96.9px" width="116.05px" xmlns="http://www.w3.org/2000/svg">
  <g transform="matrix(1.0, 0.0, 0.0, 1.0, 58.05, 48.45)">
    <path d="M37.45 -3.5 L26.95 -44.2 Q28.15 -48.0 31.6 -47.95 33.35 -47.95 34.85 -47.2 L57.5 38.75 Q56.3 43.7 52.65 43.45 L49.2 42.15 40.4 7.95 37.45 -3.5 40.4 7.95 -53.0 12.35 -51.4 9.9 Q-49.15 7.3 -45.85 6.35 L37.45 -3.5 M42.25 3.15 Q34.0 -33.4 30.65 -35.35 L49.85 39.3 Q46.4 21.4 42.25 3.15 M4.05 3.45 L36.3 -1.1 0.25 2.6 -35.0 6.5 Q-29.35 7.75 4.05 3.45 M-57.5 18.4 Q-57.95 15.35 -54.0 13.55 -52.0 12.65 -49.95 12.35 L-36.75 43.65 Q-38.2 47.65 -41.95 47.95 L-45.45 47.45 -57.5 18.4 M-51.5 27.9 L-49.95 29.15 -53.1 22.65 Q-53.1 26.0 -51.5 27.9" fill="#ffffff" fill-opacity="0.0" fill-rule="evenodd" stroke="none"/>
    <path d="M42.25 3.15 Q46.4 21.4 49.85 39.3 L30.65 -35.35 Q34.0 -33.4 42.25 3.15 M4.05 3.45 Q-29.35 7.75 -35.0 6.5 L0.25 2.6 36.3 -1.1 4.05 3.45 M-51.5 27.9 Q-53.1 26.0 -53.1 22.65 L-49.95 29.15 -51.5 27.9" fill="#ffffff" fill-opacity="0.4" fill-rule="evenodd" stroke="none"/>
    <path d="M40.4 7.95 L49.2 42.15 52.65 43.45 Q56.3 43.7 57.5 38.75 L34.85 -47.2 Q33.35 -47.95 31.6 -47.95 28.15 -48.0 26.95 -44.2 L37.45 -3.5 -45.85 6.35 Q-49.15 7.3 -51.4 9.9 L-53.0 12.35 40.4 7.95 M-57.5 18.4 L-45.45 47.45 -41.95 47.95 Q-38.2 47.65 -36.75 43.65 L-49.95 12.35 Q-52.0 12.65 -54.0 13.55 -57.95 15.35 -57.5 18.4" fill="none" stroke="#000000" stroke-linecap="butt" stroke-linejoin="miter-clip" stroke-miterlimit="10.0" stroke-width="1.0"/>
    <path d="M37.45 -3.5 L40.4 7.95 Z" fill="none" stroke="#000000" stroke-linecap="butt" stroke-linejoin="miter-clip" stroke-miterlimit="10.0" stroke-opacity="0.6" stroke-width="1.0"/>
  </g>
</svg>
