<?xml version="1.0" encoding="UTF-8" standalone="no"?>
<svg xmlns:xlink="http://www.w3.org/1999/xlink" height="1203.5px" width="798.1px" xmlns="http://www.w3.org/2000/svg">
  <g transform="matrix(1.0, 0.0, 0.0, 1.0, 402.0, 601.75)">
    <path d="M-400.0 -601.25 L395.5 -601.25 395.5 601.25 -400.0 601.25 -400.0 -601.25" fill="#ffffff" fill-opacity="0.0" fill-rule="evenodd" stroke="none"/>
    <path d="M380.5 -601.25 L395.5 -601.25 395.5 -424.75 -301.0 601.25 -402.0 601.25 -402.0 510.75 Q-10.5 -45.25 380.5 -601.25" fill="#ffffff" fill-opacity="0.6" fill-rule="evenodd" stroke="none"/>
    <path d="M395.5 -180.25 L395.5 19.75 Q361.0 68.75 183.0 327.25 54.0 514.25 -10.0 601.25 L-51.5 601.25 Q252.5 61.25 395.5 -180.25" fill="#ffffff" fill-opacity="0.6" fill-rule="evenodd" stroke="none"/>
    <path d="M-157.5 -601.25 L-157.5 601.25" fill="none" stroke="#000000" stroke-linecap="butt" stroke-linejoin="miter-clip" stroke-miterlimit="10.0" stroke-opacity="0.6" stroke-width="1.0"/>
    <path d="M144.5 -601.25 L144.5 562.75" fill="none" stroke="#000000" stroke-linecap="butt" stroke-linejoin="miter-clip" stroke-miterlimit="10.0" stroke-opacity="0.6" stroke-width="1.0"/>
    <path d="M-400.4 -228.25 L395.6 -228.25" fill="none" stroke="#000000" stroke-linecap="butt" stroke-linejoin="miter-clip" stroke-miterlimit="10.0" stroke-width="1.0"/>
    <path d="M-400.0 -601.25 L-400.0 601.25 395.5 601.25 395.5 -601.25 -400.0 -601.25 Z" fill="none" stroke="#000000" stroke-linecap="butt" stroke-linejoin="miter-clip" stroke-miterlimit="10.0" stroke-width="1.0"/>
  </g>
</svg>
