<?xml version="1.0" encoding="UTF-8" standalone="no"?>
<svg xmlns:xlink="http://www.w3.org/1999/xlink" height="460.5px" width="3077.3px" xmlns="http://www.w3.org/2000/svg">
  <g transform="matrix(1.0, 0.0, 0.0, 1.0, 1538.65, 230.45)">
    <path d="M1532.1 -222.15 L927.35 -222.15 927.35 -211.45 1532.1 -211.45 1532.1 -222.15 M919.95 -227.8 L919.9 -229.6 1538.15 -229.6 1538.15 -135.15 1052.15 -135.15 919.9 -135.15 919.95 -227.8 919.9 -135.15 1052.15 -135.15 1052.15 44.85 1538.15 44.85 1538.15 70.9 1052.15 70.9 1052.15 189.05 1538.15 189.05 1538.15 229.55 919.9 229.55 919.9 229.5 -919.9 229.5 -919.9 229.55 -1538.15 229.55 -1538.15 189.05 -1034.25 189.05 -1034.25 70.9 -1538.15 70.9 -1538.15 44.85 -1034.25 44.85 -1034.25 -135.15 -1538.15 -135.15 -1538.15 -229.6 -919.9 -229.6 -919.9 -227.8 919.95 -227.8 M1052.15 189.05 L919.9 189.05 919.9 229.5 919.9 189.05 1052.15 189.05 M1052.15 70.9 L919.9 70.9 919.9 44.85 1052.15 44.85 919.9 44.85 919.9 70.9 1052.15 70.9 M-927.35 -211.45 L-927.35 -222.15 -1532.1 -222.15 -1532.1 -211.45 -927.35 -211.45 M-919.9 229.5 L-919.9 189.05 -1034.25 189.05 -919.9 189.05 -919.9 229.5 M-1034.25 70.9 L-919.9 70.9 -919.9 44.85 -1034.25 44.85 -919.9 44.85 -919.9 70.9 -1034.25 70.9 M-1034.25 -135.15 L-919.9 -135.15 -919.9 -227.8 -919.9 -135.15 -1034.25 -135.15" fill="#ffffff" fill-opacity="0.0" fill-rule="evenodd" stroke="none"/>
    <path d="M1532.1 -222.15 L1532.1 -211.45 927.35 -211.45 927.35 -222.15 1532.1 -222.15 M-927.35 -211.45 L-1532.1 -211.45 -1532.1 -222.15 -927.35 -222.15 -927.35 -211.45" fill="#ffffff" fill-opacity="0.6" fill-rule="evenodd" stroke="none"/>
    <path d="M1052.15 -135.15 L1538.15 -135.15 1538.15 -229.6 919.9 -229.6 919.95 -227.8 919.9 -135.15 1052.15 -135.15 M1052.15 44.85 L1538.15 44.85 1538.15 70.9 1052.15 70.9 919.9 70.9 919.9 44.85 1052.15 44.85 M1052.15 189.05 L1538.15 189.05 1538.15 229.55 919.9 229.55 919.9 229.5 919.9 189.05 1052.15 189.05 M-919.9 229.5 L-919.9 229.55 -1538.15 229.55 -1538.15 189.05 -1034.25 189.05 -919.9 189.05 -919.9 229.5 M-1034.25 70.9 L-1538.15 70.9 -1538.15 44.85 -1034.25 44.85 -919.9 44.85 -919.9 70.9 -1034.25 70.9 M-1034.25 -135.15 L-1538.15 -135.15 -1538.15 -229.6 -919.9 -229.6 -919.9 -227.8 -919.9 -135.15 -1034.25 -135.15" fill="none" stroke="#000000" stroke-linecap="butt" stroke-linejoin="miter-clip" stroke-miterlimit="10.0" stroke-width="1.0"/>
    <path d="M1052.15 -135.15 L1052.15 44.85 M1052.15 70.9 L1052.15 189.05 M919.9 229.5 L-919.9 229.5 M-1034.25 189.05 L-1034.25 70.9 M-1034.25 44.85 L-1034.25 -135.15 M-919.9 -227.8 L919.95 -227.8" fill="none" stroke="#000000" stroke-linecap="butt" stroke-linejoin="miter-clip" stroke-miterlimit="10.0" stroke-opacity="0.6" stroke-width="1.0"/>
  </g>
</svg>
