<?xml version="1.0" encoding="UTF-8" standalone="no"?>
<svg xmlns:xlink="http://www.w3.org/1999/xlink" height="254.0px" width="10001.0px" xmlns="http://www.w3.org/2000/svg">
  <g transform="matrix(1.0, 0.0, 0.0, 1.0, 5000.5, 127.0)">
    <path d="M4747.0 -44.5 L4813.0 -44.5 4747.0 -44.5 4153.0 -44.5 4153.0 126.5 4087.0 126.5 4087.0 -44.5 3493.0 -44.5 3427.0 -44.5 3493.0 -44.5 3493.0 126.5 3427.0 126.5 3427.0 -44.5 2833.0 -44.5 2767.0 -44.5 2833.0 -44.5 2833.0 126.5 2767.0 126.5 2767.0 -44.5 2173.0 -44.5 2107.0 -44.5 2173.0 -44.5 2173.0 126.5 2107.0 126.5 2107.0 -44.5 1513.0 -44.5 1447.0 -44.5 1513.0 -44.5 1513.0 126.5 1447.0 126.5 1447.0 -44.5 853.0 -44.5 787.0 -44.5 853.0 -44.5 853.0 126.5 787.0 126.5 787.0 -44.5 193.0 -44.5 127.0 -44.5 193.0 -44.5 193.0 126.5 127.0 126.5 127.0 -44.5 -467.0 -44.5 -533.0 -44.5 -467.0 -44.5 -467.0 126.5 -533.0 126.5 -533.0 -44.5 -1127.0 -44.5 -1193.0 -44.5 -1127.0 -44.5 -1127.0 126.5 -1193.0 126.5 -1193.0 -44.5 -1787.0 -44.5 -1853.0 -44.5 -1787.0 -44.5 -1787.0 126.5 -1853.0 126.5 -1853.0 -44.5 -2447.0 -44.5 -2513.0 -44.5 -2447.0 -44.5 -2447.0 126.5 -2513.0 126.5 -2513.0 -44.5 -3107.0 -44.5 -3173.0 -44.5 -3107.0 -44.5 -3107.0 126.5 -3173.0 126.5 -3173.0 -44.5 -3767.0 -44.5 -3833.0 -44.5 -3767.0 -44.5 -3767.0 126.5 -3833.0 126.5 -3833.0 -44.5 -4427.0 -44.5 -4493.0 -44.5 -4427.0 -44.5 -4427.0 126.5 -4493.0 126.5 -4493.0 -44.5 -5000.0 -44.5 -5000.0 -126.5 -2500.0 -126.5 0.0 -126.5 2500.0 -126.5 5000.0 -126.5 5000.0 -44.5 4813.0 -44.5 4813.0 126.5 4747.0 126.5 4747.0 -44.5 M4153.0 -44.5 L4087.0 -44.5 4153.0 -44.5" fill="#ffffff" fill-opacity="0.0" fill-rule="evenodd" stroke="none"/>
    <path d="M4813.0 -44.5 L4747.0 -44.5 M-4493.0 -44.5 L-4427.0 -44.5 M-3833.0 -44.5 L-3767.0 -44.5 M-3173.0 -44.5 L-3107.0 -44.5 M-2513.0 -44.5 L-2447.0 -44.5 M-1853.0 -44.5 L-1787.0 -44.5 M-1193.0 -44.5 L-1127.0 -44.5 M-533.0 -44.5 L-467.0 -44.5 M127.0 -44.5 L193.0 -44.5 M787.0 -44.5 L853.0 -44.5 M1447.0 -44.5 L1513.0 -44.5 M2107.0 -44.5 L2173.0 -44.5 M2767.0 -44.5 L2833.0 -44.5 M3427.0 -44.5 L3493.0 -44.5 M4087.0 -44.5 L4153.0 -44.5" fill="none" stroke="#000000" stroke-linecap="round" stroke-linejoin="miter-clip" stroke-miterlimit="10.0" stroke-opacity="0.6" stroke-width="1.0"/>
    <path d="M4747.0 -44.5 L4747.0 126.5 4813.0 126.5 4813.0 -44.5 5000.0 -44.5 5000.0 -126.5 2500.0 -126.5 0.0 -126.5 -2500.0 -126.5 -5000.0 -126.5 -5000.0 -44.5 -4493.0 -44.5 -4493.0 126.5 -4427.0 126.5 -4427.0 -44.5 -3833.0 -44.5 -3833.0 126.5 -3767.0 126.5 -3767.0 -44.5 -3173.0 -44.5 -3173.0 126.5 -3107.0 126.5 -3107.0 -44.5 -2513.0 -44.5 -2513.0 126.5 -2447.0 126.5 -2447.0 -44.5 -1853.0 -44.5 -1853.0 126.5 -1787.0 126.5 -1787.0 -44.5 -1193.0 -44.5 -1193.0 126.5 -1127.0 126.5 -1127.0 -44.5 -533.0 -44.5 -533.0 126.5 -467.0 126.5 -467.0 -44.5 127.0 -44.5 127.0 126.5 193.0 126.5 193.0 -44.5 787.0 -44.5 787.0 126.5 853.0 126.5 853.0 -44.5 1447.0 -44.5 1447.0 126.5 1513.0 126.5 1513.0 -44.5 2107.0 -44.5 2107.0 126.5 2173.0 126.5 2173.0 -44.5 2767.0 -44.5 2767.0 126.5 2833.0 126.5 2833.0 -44.5 3427.0 -44.5 3427.0 126.5 3493.0 126.5 3493.0 -44.5 4087.0 -44.5 4087.0 126.5 4153.0 126.5 4153.0 -44.5 4747.0 -44.5" fill="none" stroke="#000000" stroke-linecap="round" stroke-linejoin="miter-clip" stroke-miterlimit="10.0" stroke-width="1.0"/>
  </g>
</svg>
