<?xml version="1.0" encoding="UTF-8" standalone="no"?>
<svg xmlns:xlink="http://www.w3.org/1999/xlink" height="1400.5px" width="2999.3px" xmlns="http://www.w3.org/2000/svg">
  <g transform="matrix(1.0, 0.0, 0.0, 1.0, 1499.6, 700.25)">
    <path d="M842.35 -595.25 Q824.75 -593.2 803.0 -586.25 L797.0 -584.25 -91.25 -477.3 -223.35 -461.4 -91.25 -477.3 -97.6 293.2 842.35 -595.25 Q865.15 -597.9 881.0 -592.25 903.0 -586.25 913.0 -566.25 L935.7 -521.05 913.0 -566.25 Q903.0 -586.25 881.0 -592.25 865.15 -597.9 842.35 -595.25 M-1119.85 -353.5 L-1479.0 -310.25 -1499.0 -410.25 759.0 -684.25 Q855.0 -714.25 935.0 -686.25 1011.0 -660.25 1037.0 -600.25 L1499.0 321.75 1377.0 357.75 935.7 -521.05 -11.0 373.75 -97.8 317.6 -101.0 699.75 -233.0 699.75 -229.95 335.3 -241.0 343.75 -1119.85 -353.5 -959.45 -372.8 -1119.85 -353.5 M-223.35 -461.4 L-959.45 -372.8 -228.9 206.8 -229.95 335.3 -228.9 206.8 -223.35 -461.4 M-97.6 293.2 L-97.8 317.6 -97.6 293.2" fill="#000000" fill-opacity="0.050980393" fill-rule="evenodd" stroke="none"/>
    <path d="M-91.25 -477.3 L797.0 -584.25 803.0 -586.25 Q824.75 -593.2 842.35 -595.25 L-97.6 293.2 -91.25 -477.3 M935.7 -521.05 L1377.0 357.75 1499.0 321.75 1037.0 -600.25 Q1011.0 -660.25 935.0 -686.25 855.0 -714.25 759.0 -684.25 L-1499.0 -410.25 -1479.0 -310.25 -1119.85 -353.5 -241.0 343.75 -229.95 335.3 -228.9 206.8 -959.45 -372.8 -223.35 -461.4 -228.9 206.8 M-97.8 317.6 L-97.6 293.2 M-97.8 317.6 L-11.0 373.75 935.7 -521.05 M-229.95 335.3 L-233.0 699.75 -101.0 699.75 -97.8 317.6" fill="none" stroke="#000000" stroke-linecap="round" stroke-linejoin="miter-clip" stroke-miterlimit="10.0" stroke-width="1.0"/>
    <path d="M842.35 -595.25 Q865.15 -597.9 881.0 -592.25 903.0 -586.25 913.0 -566.25 L935.7 -521.05 M-1119.85 -353.5 L-959.45 -372.8 M-223.35 -461.4 L-91.25 -477.3" fill="none" stroke="#000000" stroke-linecap="round" stroke-linejoin="miter-clip" stroke-miterlimit="10.0" stroke-opacity="0.6" stroke-width="1.0"/>
  </g>
</svg>
