<?xml version="1.0" encoding="UTF-8" standalone="no"?>
<svg xmlns:xlink="http://www.w3.org/1999/xlink" height="672.55px" width="2578.35px" xmlns="http://www.w3.org/2000/svg">
  <g transform="matrix(1.0, 0.0, 0.0, 1.0, 1261.55, 678.25)">
    <path d="M1316.3 -6.2 L-1261.05 -27.45 -1261.05 -614.7 -1035.9 -634.9 Q-750.25 -656.15 -445.5 -667.8 528.35 -702.85 1316.3 -614.7 L1316.3 -6.2 M-1069.9 -133.65 L-1069.9 -494.7 -1069.9 -133.65 M-857.5 -144.25 L-857.5 -515.95 -857.5 -144.25 M-631.3 -168.7 L-631.3 -522.35 -631.3 -168.7 M-361.6 -168.7 L-361.6 -522.35 -361.6 -168.7 M-71.65 -150.65 L-71.65 -535.05 -71.65 -150.65 M197.0 -150.65 L197.0 -535.05 197.0 -150.65 M473.1 -168.7 L473.1 -530.8 473.1 -168.7 M664.25 -168.7 L664.25 -522.35 664.25 -168.7 M849.05 -144.25 L849.05 -522.35 849.05 -144.25 M1054.0 -133.65 L1054.0 -522.35 1054.0 -133.65 M1245.15 -168.7 L1245.15 -522.35 1245.15 -168.7" fill="#000000" fill-opacity="0.49803922" fill-rule="evenodd" stroke="none"/>
    <path d="M1316.3 -6.2 L-1261.05 -27.45 -1261.05 -614.7 -1035.9 -634.9 Q-750.25 -656.15 -445.5 -667.8 528.35 -702.85 1316.3 -614.7 L1316.3 -6.2 M1245.15 -522.35 L1245.15 -168.7 M1054.0 -522.35 L1054.0 -133.65 M849.05 -522.35 L849.05 -144.25 M664.25 -522.35 L664.25 -168.7 M473.1 -530.8 L473.1 -168.7 M197.0 -535.05 L197.0 -150.65 M-71.65 -535.05 L-71.65 -150.65 M-361.6 -522.35 L-361.6 -168.7 M-631.3 -522.35 L-631.3 -168.7 M-857.5 -515.95 L-857.5 -144.25 M-1069.9 -494.7 L-1069.9 -133.65" fill="none" stroke="#000000" stroke-linecap="butt" stroke-linejoin="miter-clip" stroke-miterlimit="10.0" stroke-opacity="0.6" stroke-width="1.0"/>
  </g>
</svg>
