<?xml version="1.0" encoding="UTF-8" standalone="no"?>
<svg xmlns:xlink="http://www.w3.org/1999/xlink" height="1003.5px" width="5462.6px" xmlns="http://www.w3.org/2000/svg">
  <g transform="matrix(1.0, 0.0, 0.0, 1.0, 2731.3, 501.75)">
    <path d="M2730.8 -230.5 L2730.8 -81.85 2017.2 -81.85 2017.2 40.3 2730.8 40.3 2730.8 194.25 2017.2 194.25 2017.2 316.4 2730.8 316.4 2730.8 501.25 1130.45 501.25 1130.45 -184.2 1316.3 -182.7 1316.3 -501.25 2730.8 -501.25 2730.8 -376.0 1663.55 -376.0 1663.55 -310.15 1772.95 -310.15 1772.95 -230.5 1890.9 -230.5 2730.8 -230.5 M-1261.05 -500.2 L-1261.05 -203.95 -1130.45 -202.85 -1130.45 501.25 -2730.8 501.25 -2730.8 316.4 -2017.2 316.4 -2017.2 194.25 -2730.8 194.25 -2730.8 40.3 -2017.2 40.3 -2017.2 -81.85 -2730.8 -81.85 -2730.8 -230.5 -1890.85 -230.5 -1772.95 -230.5 -1772.95 -310.15 -1664.6 -310.15 -1664.6 -376.0 -2730.8 -376.0 -2730.8 -500.2 -1261.05 -500.2" fill="#ffffff" fill-opacity="0.0" fill-rule="evenodd" stroke="none"/>
    <path d="M2730.8 -81.85 L2730.8 -230.5 M1890.9 -230.5 L1772.95 -230.5 1772.95 -310.15 1663.55 -310.15 1663.55 -376.0 M2730.8 -376.0 L2730.8 -501.25 1316.3 -501.25 M1130.45 -184.2 L1130.45 501.25 2730.8 501.25 2730.8 316.4 M2017.2 316.4 L2017.2 194.25 M2730.8 194.25 L2730.8 40.3 M2017.2 40.3 L2017.2 -81.85 M-1261.05 -500.2 L-2730.8 -500.2 -2730.8 -376.0 M-1664.6 -376.0 L-1664.6 -310.15 -1772.95 -310.15 -1772.95 -230.5 -1890.85 -230.5 M-2730.8 -230.5 L-2730.8 -81.85 M-2017.2 -81.85 L-2017.2 40.3 M-2730.8 40.3 L-2730.8 194.25 M-2017.2 194.25 L-2017.2 316.4 M-2730.8 316.4 L-2730.8 501.25 -1130.45 501.25 -1130.45 -202.85" fill="none" stroke="#000000" stroke-linecap="butt" stroke-linejoin="miter-clip" stroke-miterlimit="10.0" stroke-width="1.0"/>
    <path d="M2730.8 -230.5 L1890.9 -230.5 M1663.55 -376.0 L2730.8 -376.0 M1316.3 -501.25 L1316.3 -182.7 1130.45 -184.2 M2730.8 316.4 L2017.2 316.4 M2017.2 194.25 L2730.8 194.25 M2730.8 40.3 L2017.2 40.3 M2017.2 -81.85 L2730.8 -81.85 M-1130.45 -202.85 L-1261.05 -203.95 -1261.05 -500.2 M-2730.8 -376.0 L-1664.6 -376.0 M-1890.85 -230.5 L-2730.8 -230.5 M-2730.8 -81.85 L-2017.2 -81.85 M-2017.2 40.3 L-2730.8 40.3 M-2730.8 194.25 L-2017.2 194.25 M-2017.2 316.4 L-2730.8 316.4" fill="none" stroke="#000000" stroke-linecap="butt" stroke-linejoin="miter-clip" stroke-miterlimit="10.0" stroke-opacity="0.6" stroke-width="1.0"/>
  </g>
</svg>
