<?xml version="1.0" encoding="UTF-8" standalone="no"?>
<svg xmlns:xlink="http://www.w3.org/1999/xlink" height="320.5px" width="556.75px" xmlns="http://www.w3.org/2000/svg">
  <g transform="matrix(1.0, 0.0, 0.0, 1.0, 278.35, 160.25)">
    <path d="M-135.35 61.5 L-135.35 108.0 -277.85 108.0 -277.85 61.5 -135.35 61.5 M-277.85 -52.5 L-277.85 -99.0 -72.35 -99.0 -72.35 -101.25 202.15 -101.25 202.15 136.5 -72.35 136.5 -72.35 27.75 -277.85 27.75 -277.85 -18.75 -72.35 -18.75 -72.35 -52.5 -277.85 -52.5" fill="#000000" fill-opacity="0.29803923" fill-rule="evenodd" stroke="none"/>
    <path d="M277.9 -159.75 L277.9 159.75 -277.85 159.75 -277.85 -159.75 277.9 -159.75" fill="#000000" fill-opacity="0.49803922" fill-rule="evenodd" stroke="none"/>
    <path d="M277.9 -159.75 L-277.85 -159.75 -277.85 159.75 277.9 159.75 277.9 -159.75 Z" fill="none" stroke="#000000" stroke-linecap="butt" stroke-linejoin="miter-clip" stroke-miterlimit="10.0" stroke-opacity="0.6" stroke-width="1.0"/>
  </g>
</svg>
