<?xml version="1.0" encoding="UTF-8" standalone="no"?>
<svg xmlns:xlink="http://www.w3.org/1999/xlink" height="56.45px" width="138.7px" xmlns="http://www.w3.org/2000/svg">
  <g transform="matrix(1.0, 0.0, 0.0, 1.0, 69.35, 28.2)">
    <path d="M27.15 -14.0 Q21.35 -8.2 21.35 0.0 21.35 8.2 27.15 14.0 32.95 19.8 41.15 19.8 49.35 19.8 55.15 14.0 60.95 8.2 60.95 0.0 60.95 -8.2 55.15 -14.0 49.35 -19.8 41.15 -19.8 32.95 -19.8 27.15 -14.0 M21.55 19.6 Q13.45 11.5 13.45 0.0 13.45 -11.45 21.55 -19.6 29.7 -27.7 41.15 -27.7 52.65 -27.7 60.75 -19.6 68.85 -11.45 68.85 0.0 68.85 11.5 60.75 19.6 52.6 27.75 41.15 27.75 29.7 27.75 21.55 19.6" fill="#ffffff" fill-opacity="0.0" fill-rule="evenodd" stroke="none"/>
    <path d="M21.55 19.6 Q29.7 27.75 41.15 27.75 52.6 27.75 60.75 19.6 68.85 11.5 68.85 0.0 68.85 -11.45 60.75 -19.6 52.65 -27.7 41.15 -27.7 29.7 -27.7 21.55 -19.6 13.45 -11.45 13.45 0.0 13.45 11.5 21.55 19.6 M27.15 -14.0 Q32.95 -19.8 41.15 -19.8 49.35 -19.8 55.15 -14.0 60.95 -8.2 60.95 0.0 60.95 8.2 55.15 14.0 49.35 19.8 41.15 19.8 32.95 19.8 27.15 14.0 21.35 8.2 21.35 0.0 21.35 -8.2 27.15 -14.0" fill="none" stroke="#000000" stroke-linecap="butt" stroke-linejoin="miter-clip" stroke-miterlimit="10.0" stroke-width="1.0"/>
    <path d="M-52.05 -4.8 Q-57.0 -4.8 -60.5 -1.25 -64.05 2.25 -64.05 7.25 -64.05 12.2 -60.5 15.75 -57.0 19.25 -52.05 19.25 -47.05 19.25 -43.55 15.75 -40.0 12.2 -40.0 7.25 -40.0 2.25 -43.55 -1.25 -47.05 -4.8 -52.05 -4.8 M-63.95 19.1 Q-68.85 14.2 -68.85 7.25 -68.85 0.25 -63.95 -4.65 -59.0 -9.6 -52.05 -9.6 -45.05 -9.6 -40.15 -4.65 -35.2 0.3 -35.2 7.25 -35.2 14.2 -40.15 19.1 -45.1 24.05 -52.05 24.05 -59.0 24.05 -63.95 19.1" fill="#ffffff" fill-opacity="0.0" fill-rule="evenodd" stroke="none"/>
    <path d="M-63.95 19.1 Q-59.0 24.05 -52.05 24.05 -45.1 24.05 -40.15 19.1 -35.2 14.2 -35.2 7.25 -35.2 0.3 -40.15 -4.65 -45.05 -9.6 -52.05 -9.6 -59.0 -9.6 -63.95 -4.65 -68.85 0.25 -68.85 7.25 -68.85 14.2 -63.95 19.1 M-52.05 -4.8 Q-47.05 -4.8 -43.55 -1.25 -40.0 2.25 -40.0 7.25 -40.0 12.2 -43.55 15.75 -47.05 19.25 -52.05 19.25 -57.0 19.25 -60.5 15.75 -64.05 12.2 -64.05 7.25 -64.05 2.25 -60.5 -1.25 -57.0 -4.8 -52.05 -4.8" fill="none" stroke="#000000" stroke-linecap="butt" stroke-linejoin="miter-clip" stroke-miterlimit="10.0" stroke-width="1.0"/>
  </g>
</svg>
