<?xml version="1.0" encoding="UTF-8" standalone="no"?>
<svg xmlns:xlink="http://www.w3.org/1999/xlink" height="289.2px" width="1033.55px" xmlns="http://www.w3.org/2000/svg">
  <g transform="matrix(1.0, 0.0, 0.0, 1.0, 516.8, 144.6)">
    <path d="M288.75 -144.1 L372.7 -144.1 372.7 -26.95 288.75 -26.95 288.75 -144.1 M432.3 -5.65 L516.25 -5.65 516.25 144.1 432.3 144.1 432.3 -5.65 M432.3 -26.95 L432.3 -144.1 516.25 -144.1 516.25 -26.95 432.3 -26.95 M372.7 -5.65 L372.7 144.1 288.75 144.1 288.75 -5.65 372.7 -5.65 M-516.3 -144.1 L-432.35 -144.1 -432.35 -26.95 -516.3 -26.95 -516.3 -144.1 M-372.75 -26.95 L-372.75 -144.1 -288.8 -144.1 -288.8 -26.95 -372.75 -26.95 M-432.35 -5.65 L-432.35 144.1 -516.3 144.1 -516.3 -5.65 -432.35 -5.65 M-372.75 -5.65 L-288.8 -5.65 -288.8 144.1 -372.75 144.1 -372.75 -5.65" fill="#000000" fill-opacity="0.49803922" fill-rule="evenodd" stroke="none"/>
    <path d="M288.75 -144.1 L372.7 -144.1 372.7 -26.95 288.75 -26.95 288.75 -144.1 M432.3 -26.95 L516.25 -26.95 516.25 -144.1 432.3 -144.1 432.3 -26.95 M432.3 -5.65 L432.3 144.1 516.25 144.1 516.25 -5.65 432.3 -5.65 M372.7 -5.65 L372.7 144.1 288.75 144.1 288.75 -5.65 372.7 -5.65 M-516.3 -144.1 L-432.35 -144.1 -432.35 -26.95 -516.3 -26.95 -516.3 -144.1 M-372.75 -26.95 L-288.8 -26.95 -288.8 -144.1 -372.75 -144.1 -372.75 -26.95 M-432.35 -5.65 L-432.35 144.1 -516.3 144.1 -516.3 -5.65 -432.35 -5.65 M-372.75 -5.65 L-372.75 144.1 -288.8 144.1 -288.8 -5.65 -372.75 -5.65" fill="none" stroke="#000000" stroke-linecap="butt" stroke-linejoin="miter-clip" stroke-miterlimit="10.0" stroke-opacity="0.6" stroke-width="1.0"/>
  </g>
</svg>
