<?xml version="1.0" encoding="UTF-8" standalone="no"?>
<svg xmlns:xlink="http://www.w3.org/1999/xlink" height="36.15px" width="14.55px" xmlns="http://www.w3.org/2000/svg">
  <g transform="matrix(1.0, 0.0, 0.0, 1.0, 6.35, 18.4)">
    <path d="M-4.75 10.15 L-5.2 10.8 Q-5.7 11.75 -5.7 12.75 L-5.85 9.25 Q-5.8 5.4 -4.8 3.65 L-3.9 6.65 Q-2.7 9.9 -1.4 11.25 L-3.6 10.15 -3.5 11.15 Q-3.1 12.6 -2.3 13.6 -1.35 14.75 0.0 15.0 2.7 15.5 3.55 13.15 4.0 11.9 3.95 8.7 L3.7 -11.65 3.15 -13.3 Q2.8 -15.1 3.6 -15.55 L5.2 -15.7 Q5.8 -15.4 5.9 -14.75 5.95 -14.25 5.4 -12.95 L4.8 -11.75 4.9 9.25 Q4.9 11.95 4.5 13.25 3.8 15.35 1.75 15.75 -0.05 16.1 -1.8 15.2 -3.5 14.25 -4.25 12.6 L-4.7 11.35 -4.75 10.15 -4.7 10.05 -4.75 10.15 M4.1 -12.45 L4.95 -13.55 Q5.65 -14.7 5.1 -14.85 2.85 -15.35 4.1 -12.45" fill="#ffffff" fill-opacity="0.0" fill-rule="evenodd" stroke="none"/>
    <path d="M4.1 -12.45 Q2.85 -15.35 5.1 -14.85 5.65 -14.7 4.95 -13.55 L4.1 -12.45" fill="none" stroke="#000000" stroke-linecap="butt" stroke-linejoin="miter-clip" stroke-miterlimit="10.0" stroke-opacity="0.6" stroke-width="1.0"/>
    <path d="M-4.75 10.15 L-4.7 11.35 -4.25 12.6 Q-3.5 14.25 -1.8 15.2 -0.05 16.1 1.75 15.75 3.8 15.35 4.5 13.25 4.9 11.95 4.9 9.25 L4.8 -11.75 5.4 -12.95 Q5.95 -14.25 5.9 -14.75 5.8 -15.4 5.2 -15.7 L3.6 -15.55 Q2.8 -15.1 3.15 -13.3 L3.7 -11.65 3.95 8.7 Q4.0 11.9 3.55 13.15 2.7 15.5 0.0 15.0 -1.35 14.75 -2.3 13.6 -3.1 12.6 -3.5 11.15 L-3.6 10.15 -1.4 11.25 Q-2.7 9.9 -3.9 6.65 L-4.8 3.65 Q-5.8 5.4 -5.85 9.25 L-5.7 12.75 Q-5.7 11.75 -5.2 10.8 L-4.75 10.15" fill="none" stroke="#000000" stroke-linecap="round" stroke-linejoin="miter-clip" stroke-miterlimit="10.0" stroke-opacity="0.6" stroke-width="1.0"/>
    <path d="M-4.75 10.15 L-4.7 10.05" fill="none" stroke="#000000" stroke-linecap="round" stroke-linejoin="miter-clip" stroke-miterlimit="10.0" stroke-opacity="0.6" stroke-width="1.0"/>
    <path d="M-4.9 5.25 L-5.5 10.3 Q-5.6 8.05 -5.25 6.45 L-4.9 5.25" fill="#ffffff" fill-opacity="0.6" fill-rule="evenodd" stroke="none"/>
  </g>
</svg>
