<?xml version="1.0" encoding="UTF-8" standalone="no"?>
<svg xmlns:xlink="http://www.w3.org/1999/xlink" height="252.2px" width="468.75px" xmlns="http://www.w3.org/2000/svg">
  <g transform="matrix(1.0, 0.0, 0.0, 1.0, 234.4, 126.1)">
    <path d="M-158.0 74.25 L-163.9 78.25 Q-173.6 84.75 -171.2 87.45 -168.45 90.5 -165.8 97.75 -164.45 101.45 -163.65 104.5 L-150.4 109.3 Q-143.65 110.35 -144.45 116.35 -144.85 119.3 -146.6 122.1 L-151.25 122.3 -164.8 122.85 -180.2 123.2 Q-186.55 123.2 -190.8 118.35 -195.5 112.9 -200.45 98.65 -204.0 88.75 -211.25 78.1 -216.0 71.2 -214.4 68.8 -212.4 65.85 -210.2 51.55 L-208.5 38.45 Q-212.45 35.45 -215.2 32.5 L-218.3 28.75 Q-238.05 3.55 -232.8 -45.1 -230.15 -68.85 -210.85 -88.0 -194.7 -103.9 -169.2 -114.55 -147.35 -123.75 -119.9 -125.25 -100.55 -126.4 -69.2 -123.6 -33.2 -120.3 10.2 -119.25 L29.6 -119.6 49.0 -118.7 63.05 -115.75 Q71.95 -113.65 77.4 -113.1 85.95 -112.25 94.8 -109.5 103.95 -106.8 106.75 -104.0 L111.55 -98.15 123.3 -93.45 Q137.15 -87.6 147.75 -81.6 162.8 -73.1 170.0 -67.6 180.0 -60.0 185.15 -51.2 188.8 -44.85 192.75 -43.85 L193.55 -43.55 Q194.85 -46.5 197.75 -47.1 199.55 -47.5 206.15 -50.8 210.25 -52.85 209.75 -50.3 208.8 -44.85 205.85 -38.95 202.95 -33.0 199.9 -31.75 204.8 -20.55 212.35 -15.5 215.95 -13.1 215.6 -7.5 215.2 -1.85 211.2 2.1 207.7 5.7 209.6 16.65 211.2 26.0 213.95 30.4 215.3 32.55 223.3 40.15 230.8 48.5 231.55 56.0 L233.05 65.6 Q234.1 71.55 233.75 74.9 232.8 84.65 219.2 85.3 208.15 85.85 194.65 92.0 183.6 96.95 179.2 95.45 176.0 94.3 172.55 91.2 L174.35 92.65 171.95 86.65 168.65 79.95 Q167.45 77.45 166.8 75.45 164.8 69.55 164.75 62.9 164.65 57.35 165.95 49.6 160.95 52.95 158.95 61.15 157.45 67.3 156.8 66.65 155.55 65.3 154.95 47.7 L154.75 30.4 150.95 57.6 Q148.8 57.05 142.95 52.8 139.3 50.1 137.3 43.7 L136.0 37.85 Q134.75 36.5 129.6 41.3 L124.8 46.4 Q117.85 41.05 123.6 20.5 L130.75 1.05 Q121.45 8.35 115.55 22.8 112.4 30.25 109.95 38.9 108.6 41.6 106.2 39.7 L104.0 37.3 Q98.35 26.65 104.9 -6.4 L112.6 -37.35 Q99.6 -20.3 97.05 10.5 95.9 24.9 97.0 36.35 L95.3 36.55 Q90.65 31.55 86.5 9.75 L82.75 -16.0 Q78.75 -6.7 76.9 6.9 75.95 13.7 75.8 18.65 L75.75 18.65 Q68.35 8.35 67.8 0.5 67.15 -8.7 70.5 -35.1 72.65 -51.65 75.2 -67.2 77.4 -80.0 80.6 -86.4 86.65 -98.55 98.75 -99.2 94.2 -100.15 88.9 -98.65 78.2 -95.75 74.2 -83.75 70.75 -73.5 65.3 -40.3 59.8 -6.7 57.6 0.0 55.3 7.3 53.4 19.7 L51.0 20.55 28.9 29.45 Q14.9 35.15 6.35 38.0 -16.6 45.75 -34.45 47.6 L-68.55 51.75 Q-88.6 54.1 -102.7 54.1 -107.5 54.1 -128.15 49.15 -134.2 47.7 -139.05 47.3 -142.0 59.2 -147.75 66.15 L-148.2 66.65 Q-150.0 68.7 -158.0 74.25 M-103.5 74.85 L-104.65 74.65 -105.5 74.5 -103.5 74.85 M-137.75 40.9 L-139.05 47.3 -137.75 40.9 M27.45 -102.15 Q31.7 -102.7 40.1 -104.7 47.7 -106.3 53.05 -105.75 56.2 -105.45 64.4 -103.5 71.55 -101.85 75.95 -101.9 68.0 -108.0 57.15 -110.85 45.05 -113.9 24.6 -112.8 L-8.05 -111.6 -52.15 -115.2 -96.3 -118.8 Q-150.95 -121.45 -188.3 -93.65 -200.0 -85.05 -208.45 -74.4 L-214.7 -65.45 -207.65 -73.35 Q-198.2 -82.7 -186.4 -90.05 -148.55 -113.85 -100.55 -109.2 L-36.6 -101.85 Q1.15 -98.3 27.45 -102.15 M109.4 -94.7 Q102.9 -100.25 94.25 -94.4 L87.0 -87.5 Q98.0 -91.05 107.6 -89.6 112.4 -88.85 114.95 -87.5 L109.4 -94.7 M129.85 -73.2 L156.55 -61.9 Q166.1 -57.45 176.25 -50.0 181.35 -46.3 184.55 -43.5 L177.35 -54.7 Q172.75 -61.9 157.85 -70.45 153.35 -73.1 134.15 -82.7 126.15 -86.7 121.35 -83.9 L118.15 -80.3 Q115.3 -79.35 129.85 -73.2 M145.75 -25.5 Q153.35 -36.3 153.75 -39.1 154.1 -41.2 151.75 -45.85 149.45 -50.4 147.35 -51.9 145.2 -53.45 142.0 -46.55 138.8 -39.6 139.35 -34.3 140.15 -27.1 139.35 -22.7 140.15 -27.1 139.35 -34.3 138.8 -39.6 142.0 -46.55 145.2 -53.45 147.35 -51.9 149.45 -50.4 151.75 -45.85 154.1 -41.2 153.75 -39.1 153.35 -36.3 145.75 -25.5 M146.55 -41.9 Q145.05 -40.85 144.5 -34.45 144.15 -31.25 144.15 -28.3 L149.75 -37.9 Q149.6 -39.25 149.05 -40.45 148.1 -42.85 146.55 -41.9 M168.25 -0.85 Q166.15 -2.65 162.95 -2.3 160.75 -2.05 159.2 1.45 158.5 3.2 158.15 4.9 159.7 9.15 166.5 8.8 169.85 8.75 172.95 7.7 171.05 1.35 168.25 -0.85 M199.9 -31.75 Q198.85 -34.15 197.95 -36.8 196.05 -42.25 193.55 -43.55 196.05 -42.25 197.95 -36.8 198.85 -34.15 199.9 -31.75 M211.7 -3.25 Q211.05 -4.95 208.55 -6.7 206.1 -8.45 204.25 -4.4 203.35 -2.3 202.95 0.1 205.45 4.8 208.9 1.95 210.55 0.5 211.75 -1.9 212.0 -2.4 211.7 -3.25 M-151.25 122.3 Q-151.95 114.1 -156.55 111.7 L-161.0 110.9 -156.55 111.7 Q-151.95 114.1 -151.25 122.3 M-208.5 38.45 L-208.45 37.85 -208.5 38.45 M-164.8 122.85 Q-165.1 112.8 -170.0 110.9 -171.5 110.25 -173.35 110.5 L-174.85 110.9 -173.35 110.5 Q-171.5 110.25 -170.0 110.9 -165.1 112.8 -164.8 122.85 M205.35 33.95 L203.2 34.1 Q213.55 37.15 217.7 44.5 219.75 48.15 219.75 51.2 224.8 49.85 226.8 50.4 227.2 50.5 227.45 50.75 220.25 38.4 211.05 35.05 208.15 33.95 205.35 33.95 M225.45 63.85 L224.95 57.7 Q225.6 55.75 226.65 55.35 227.15 55.2 226.55 54.5 224.95 52.4 222.4 57.85 221.15 60.55 220.15 63.7 224.9 68.95 225.45 63.85 M194.55 63.7 Q195.85 61.45 197.7 62.95 198.65 63.7 199.35 64.9 199.35 69.55 201.45 69.7 L204.95 68.5 Q206.35 67.95 203.7 64.9 201.2 62.15 198.15 60.1 195.95 58.55 195.05 60.95 194.55 62.15 194.55 63.7" fill="#ffffff" fill-opacity="0.0" fill-rule="evenodd" stroke="none"/>
    <path d="M27.45 -102.15 Q1.15 -98.3 -36.6 -101.85 L-100.55 -109.2 Q-148.55 -113.85 -186.4 -90.05 -198.2 -82.7 -207.65 -73.35 L-214.7 -65.45 -208.45 -74.4 Q-200.0 -85.05 -188.3 -93.65 -150.95 -121.45 -96.3 -118.8 L-52.15 -115.2 -8.05 -111.6 24.6 -112.8 Q45.05 -113.9 57.15 -110.85 68.0 -108.0 75.95 -101.9 71.55 -101.85 64.4 -103.5 56.2 -105.45 53.05 -105.75 47.7 -106.3 40.1 -104.7 31.7 -102.7 27.45 -102.15 M129.85 -73.2 Q115.3 -79.35 118.15 -80.3 L121.35 -83.9 Q126.15 -86.7 134.15 -82.7 153.35 -73.1 157.85 -70.45 172.75 -61.9 177.35 -54.7 L184.55 -43.5 Q181.35 -46.3 176.25 -50.0 166.1 -57.45 156.55 -61.9 L129.85 -73.2 M109.4 -94.7 L114.95 -87.5 Q112.4 -88.85 107.6 -89.6 98.0 -91.05 87.0 -87.5 L94.25 -94.4 Q102.9 -100.25 109.4 -94.7 M205.35 33.95 Q208.15 33.95 211.05 35.05 220.25 38.4 227.45 50.75 227.2 50.5 226.8 50.4 224.8 49.85 219.75 51.2 219.75 48.15 217.7 44.5 213.55 37.15 203.2 34.1 L205.35 33.95" fill="#ffffff" fill-opacity="0.4" fill-rule="evenodd" stroke="none"/>
    <path d="M172.55 91.2 L170.7 89.4 167.15 85.3 167.05 85.2 165.35 82.95 161.6 77.3 Q152.55 71.45 148.8 66.1 146.55 62.95 139.7 62.95 L128.55 62.9 Q115.75 60.8 105.55 54.55 L107.55 78.1 Q107.85 83.15 111.7 90.95 113.7 94.9 115.55 97.85 L120.25 101.45 Q125.7 105.7 129.35 109.05 133.05 112.4 133.15 118.25 133.2 121.2 132.55 123.45 130.25 125.75 123.7 125.35 L117.6 124.5 Q111.95 126.15 106.25 125.3 L101.6 124.0 96.8 124.5 Q91.55 124.15 87.8 119.75 L85.15 115.45 78.2 98.9 76.65 96.25 72.8 89.85 Q68.35 85.15 65.45 74.75 62.8 65.2 60.0 63.2 56.35 60.5 46.65 51.45 L43.4 48.4 Q40.35 49.45 37.1 50.8 L33.85 52.15 Q17.3 59.85 9.0 63.05 -22.15 75.05 -47.0 77.95 -68.7 80.4 -98.45 75.75 L-98.8 75.7 -100.0 75.5 -100.15 75.5 -100.75 75.35 -101.35 75.25 -103.5 74.85 -105.5 74.5 -104.65 74.65 Q-106.0 79.65 -103.8 87.3 -102.45 92.1 -100.55 95.7 -93.25 98.35 -93.5 104.15 -93.65 107.15 -95.25 109.55 L-97.25 109.55 -108.95 109.45 -127.25 108.5 Q-131.9 107.75 -134.3 102.75 L-135.75 97.75 Q-138.45 93.15 -150.7 81.15 L-158.0 74.25 Q-150.0 68.7 -148.2 66.65 L-147.75 66.15 Q-142.0 59.2 -139.05 47.3 -134.2 47.7 -128.15 49.15 -107.5 54.1 -102.7 54.1 -88.6 54.1 -68.55 51.75 L-34.45 47.6 Q-16.6 45.75 6.35 38.0 14.9 35.15 28.9 29.45 L51.0 20.55 53.4 19.7 Q55.3 7.3 57.6 0.0 59.8 -6.7 65.3 -40.3 70.75 -73.5 74.2 -83.75 78.2 -95.75 88.9 -98.65 94.2 -100.15 98.75 -99.2 86.65 -98.55 80.6 -86.4 77.4 -80.0 75.2 -67.2 72.65 -51.65 70.5 -35.1 67.15 -8.7 67.8 0.5 68.35 8.35 75.75 18.65 L75.8 18.65 Q75.95 13.7 76.9 6.9 78.75 -6.7 82.75 -16.0 L86.5 9.75 Q90.65 31.55 95.3 36.55 L97.0 36.35 Q95.9 24.9 97.05 10.5 99.6 -20.3 112.6 -37.35 L104.9 -6.4 Q98.35 26.65 104.0 37.3 L106.2 39.7 Q108.6 41.6 109.95 38.9 112.4 30.25 115.55 22.8 121.45 8.35 130.75 1.05 L123.6 20.5 Q117.85 41.05 124.8 46.4 L129.6 41.3 Q134.75 36.5 136.0 37.85 L137.3 43.7 Q139.3 50.1 142.95 52.8 148.8 57.05 150.95 57.6 L154.75 30.4 154.95 47.7 Q155.55 65.3 156.8 66.65 157.45 67.3 158.95 61.15 160.95 52.95 165.95 49.6 164.65 57.35 164.75 62.9 164.8 69.55 166.8 75.45 167.45 77.45 168.65 79.95 L171.95 86.65 174.35 92.65 172.55 91.2 M146.55 -41.9 Q148.1 -42.85 149.05 -40.45 149.6 -39.25 149.75 -37.9 L144.15 -28.3 Q144.15 -31.25 144.5 -34.45 145.05 -40.85 146.55 -41.9 M-147.75 66.15 L-105.5 74.5 -147.75 66.15 M-97.25 109.55 Q-96.0 103.05 -100.15 99.7 L-104.55 97.7 -100.15 99.7 Q-96.0 103.05 -97.25 109.55 M-108.95 109.45 Q-108.2 103.15 -112.45 100.15 L-116.95 98.5 -112.45 100.15 Q-108.2 103.15 -108.95 109.45 M103.0 35.7 L105.55 54.55 103.0 35.7 M101.6 124.0 Q103.95 115.05 101.45 110.9 100.65 109.55 99.45 108.9 L98.4 108.5 99.45 108.9 Q100.65 109.55 101.45 110.9 103.95 115.05 101.6 124.0 M117.6 124.5 Q119.95 115.55 116.1 110.9 114.9 109.35 113.2 108.55 L111.8 108.0 113.2 108.55 Q114.9 109.35 116.1 110.9 119.95 115.55 117.6 124.5 M43.4 48.4 L37.6 42.9 43.4 48.4 M161.6 77.3 L167.05 85.2 161.6 77.3" fill="#000000" fill-opacity="0.2" fill-rule="evenodd" stroke="none"/>
    <path d="M168.25 -0.85 Q171.05 1.35 172.95 7.7 169.85 8.75 166.5 8.8 159.7 9.15 158.15 4.9 158.5 3.2 159.2 1.45 160.75 -2.05 162.95 -2.3 166.15 -2.65 168.25 -0.85 M208.35 -4.55 Q206.55 -6.85 204.25 -2.8 L206.4 -3.2 Q208.75 -3.25 209.7 -1.35 209.3 -3.35 208.35 -4.55 M211.7 -3.25 Q212.0 -2.4 211.75 -1.9 210.55 0.5 208.9 1.95 205.45 4.8 202.95 0.1 203.35 -2.3 204.25 -4.4 206.1 -8.45 208.55 -6.7 211.05 -4.95 211.7 -3.25 M165.85 2.15 Q169.3 2.1 170.75 4.25 170.1 2.0 168.75 0.65 166.0 -2.0 162.75 2.65 L165.85 2.15 M194.55 63.7 Q194.55 62.15 195.05 60.95 195.95 58.55 198.15 60.1 201.2 62.15 203.7 64.9 206.35 67.95 204.95 68.5 L201.45 69.7 Q199.35 69.55 199.35 64.9 198.65 63.7 197.7 62.95 195.85 61.45 194.55 63.7 M225.45 63.85 Q224.9 68.95 220.15 63.7 221.15 60.55 222.4 57.85 224.95 52.4 226.55 54.5 227.15 55.2 226.65 55.35 225.6 55.75 224.95 57.7 L225.45 63.85" fill="#161516" fill-rule="evenodd" stroke="none"/>
    <path d="M208.35 -4.55 Q209.3 -3.35 209.7 -1.35 208.75 -3.25 206.4 -3.2 L204.25 -2.8 Q206.55 -6.85 208.35 -4.55 M165.85 2.15 L162.75 2.65 Q166.0 -2.0 168.75 0.65 170.1 2.0 170.75 4.25 169.3 2.1 165.85 2.15" fill="#ffffff" fill-rule="evenodd" stroke="none"/>
    <path d="M76.65 96.25 L71.4 96.9 Q59.8 96.5 54.2 95.3 50.65 94.55 50.0 90.9 L49.8 84.1 Q49.55 81.7 47.3 73.45 44.9 64.55 44.6 62.5 44.1 59.6 40.1 54.55 L37.1 50.8 Q40.35 49.45 43.4 48.4 L46.65 51.45 Q56.35 60.5 60.0 63.2 62.8 65.2 65.45 74.75 68.35 85.15 72.8 89.85 L76.65 96.25" fill="#000000" fill-opacity="0.29803923" fill-rule="evenodd" stroke="none"/>
    <path d="M-158.0 74.25 L-163.9 78.25 Q-173.6 84.75 -171.2 87.45 -168.45 90.5 -165.8 97.75 -164.45 101.45 -163.65 104.5 L-150.4 109.3 Q-143.65 110.35 -144.45 116.35 -144.85 119.3 -146.6 122.1 L-151.25 122.3 -164.8 122.85 -180.2 123.2 Q-186.55 123.2 -190.8 118.35 -195.5 112.9 -200.45 98.65 -204.0 88.75 -211.25 78.1 -216.0 71.2 -214.4 68.8 -212.4 65.85 -210.2 51.55 L-208.5 38.45 Q-212.45 35.45 -215.2 32.5 L-218.3 28.75 Q-238.05 3.55 -232.8 -45.1 -230.15 -68.85 -210.85 -88.0 -194.7 -103.9 -169.2 -114.55 -147.35 -123.75 -119.9 -125.25 -100.55 -126.4 -69.2 -123.6 -33.2 -120.3 10.2 -119.25 L29.6 -119.6 49.0 -118.7 63.05 -115.75 Q71.95 -113.65 77.4 -113.1 85.95 -112.25 94.8 -109.5 103.95 -106.8 106.75 -104.0 L111.55 -98.15 123.3 -93.45 Q137.15 -87.6 147.75 -81.6 162.8 -73.1 170.0 -67.6 180.0 -60.0 185.15 -51.2 188.8 -44.85 192.75 -43.85 L193.55 -43.55 Q194.85 -46.5 197.75 -47.1 199.55 -47.5 206.15 -50.8 210.25 -52.85 209.75 -50.3 208.8 -44.85 205.85 -38.95 202.95 -33.0 199.9 -31.75 204.8 -20.55 212.35 -15.5 215.95 -13.1 215.6 -7.5 215.2 -1.85 211.2 2.1 207.7 5.7 209.6 16.65 211.2 26.0 213.95 30.4 215.3 32.55 223.3 40.15 230.8 48.5 231.55 56.0 L233.05 65.6 Q234.1 71.55 233.75 74.9 232.8 84.65 219.2 85.3 208.15 85.85 194.65 92.0 183.6 96.95 179.2 95.45 176.0 94.3 172.55 91.2 L170.7 89.4 167.15 85.3 167.05 85.2 161.6 77.3 Q152.55 71.45 148.8 66.1 146.55 62.95 139.7 62.95 L128.55 62.9 Q115.75 60.8 105.55 54.55 L107.55 78.1 Q107.85 83.15 111.7 90.95 113.7 94.9 115.55 97.85 L120.25 101.45 Q125.7 105.7 129.35 109.05 133.05 112.4 133.15 118.25 133.2 121.2 132.55 123.45 130.25 125.75 123.7 125.35 L117.6 124.5 Q111.95 126.15 106.25 125.3 L101.6 124.0 96.8 124.5 Q91.55 124.15 87.8 119.75 L85.15 115.45 78.2 98.9 76.65 96.25 71.4 96.9 Q59.8 96.5 54.2 95.3 50.65 94.55 50.0 90.9 L49.8 84.1 Q49.55 81.7 47.3 73.45 44.9 64.55 44.6 62.5 44.1 59.6 40.1 54.55 L37.1 50.8 33.85 52.15 Q17.3 59.85 9.0 63.05 -22.15 75.05 -47.0 77.95 -68.7 80.4 -98.45 75.75 L-98.8 75.7 -100.0 75.5 -100.15 75.5 -101.35 75.25 -103.5 74.85 -105.5 74.5 M-104.65 74.65 Q-106.0 79.65 -103.8 87.3 -102.45 92.1 -100.55 95.7 -93.25 98.35 -93.5 104.15 -93.65 107.15 -95.25 109.55 L-97.25 109.55 -108.95 109.45 -127.25 108.5 Q-131.9 107.75 -134.3 102.75 L-135.75 97.75 Q-138.45 93.15 -150.7 81.15 L-158.0 74.25 M-208.45 37.85 L-208.5 38.45 M194.55 63.7 Q194.55 62.15 195.05 60.95 195.95 58.55 198.15 60.1 201.2 62.15 203.7 64.9 206.35 67.95 204.95 68.5 L201.45 69.7 Q199.35 69.55 199.35 64.9 198.65 63.7 197.7 62.95 195.85 61.45 194.55 63.7 M225.45 63.85 Q224.9 68.95 220.15 63.7 221.15 60.55 222.4 57.85 224.95 52.4 226.55 54.5 227.15 55.2 226.65 55.35 225.6 55.75 224.95 57.7 L225.45 63.85" fill="none" stroke="#000000" stroke-linecap="butt" stroke-linejoin="miter-clip" stroke-miterlimit="10.0" stroke-width="1.0"/>
    <path d="M-158.0 74.25 Q-150.0 68.7 -148.2 66.65 L-147.75 66.15 Q-142.0 59.2 -139.05 47.3 L-137.75 40.9 M139.35 -22.7 Q140.15 -27.1 139.35 -34.3 138.8 -39.6 142.0 -46.55 145.2 -53.45 147.35 -51.9 149.45 -50.4 151.75 -45.85 154.1 -41.2 153.75 -39.1 153.35 -36.3 145.75 -25.5 M168.25 -0.85 Q171.05 1.35 172.95 7.7 169.85 8.75 166.5 8.8 159.7 9.15 158.15 4.9 158.5 3.2 159.2 1.45 160.75 -2.05 162.95 -2.3 166.15 -2.65 168.25 -0.85 M193.55 -43.55 Q196.05 -42.25 197.95 -36.8 198.85 -34.15 199.9 -31.75 M211.7 -3.25 Q212.0 -2.4 211.75 -1.9 210.55 0.5 208.9 1.95 205.45 4.8 202.95 0.1 203.35 -2.3 204.25 -4.4 206.1 -8.45 208.55 -6.7 211.05 -4.95 211.7 -3.25 M-105.5 74.5 L-147.75 66.15 M-116.95 98.5 L-112.45 100.15 Q-108.2 103.15 -108.95 109.45 M-104.55 97.7 L-100.15 99.7 Q-96.0 103.05 -97.25 109.55 M-161.0 110.9 L-156.55 111.7 Q-151.95 114.1 -151.25 122.3 M-174.85 110.9 L-173.35 110.5 Q-171.5 110.25 -170.0 110.9 -165.1 112.8 -164.8 122.85 M105.55 54.55 L103.0 35.7 M43.4 48.4 L46.65 51.45 Q56.35 60.5 60.0 63.2 62.8 65.2 65.45 74.75 68.35 85.15 72.8 89.85 L76.65 96.25 M43.4 48.4 Q40.35 49.45 37.1 50.8 M37.6 42.9 L43.4 48.4 M111.8 108.0 L113.2 108.55 Q114.9 109.35 116.1 110.9 119.95 115.55 117.6 124.5 M98.4 108.5 L99.45 108.9 Q100.65 109.55 101.45 110.9 103.95 115.05 101.6 124.0" fill="none" stroke="#000000" stroke-linecap="butt" stroke-linejoin="miter-clip" stroke-miterlimit="10.0" stroke-opacity="0.6" stroke-width="1.0"/>
  </g>
</svg>
