<?xml version="1.0" encoding="UTF-8" standalone="no"?>
<svg xmlns:xlink="http://www.w3.org/1999/xlink" height="51.45px" width="54.2px" xmlns="http://www.w3.org/2000/svg">
  <g transform="matrix(1.0, 0.0, 0.0, 1.0, 27.95, 26.5)">
    <path d="M-3.95 11.45 Q-3.6 11.25 -3.7 10.6 L-3.05 10.65 -2.9 10.45 -2.7 10.8 -2.55 11.0 -2.6 11.85 Q-2.5 12.4 -2.0 12.05 L-1.5 13.55 Q-1.4 14.2 -1.45 16.75 L-1.4 18.8 -1.1 16.35 -1.0 13.35 -1.15 12.05 -0.65 11.95 -0.55 12.6 -0.5 15.55 -0.4 17.65 -0.15 15.95 0.1 13.7 0.0 10.35 0.0 10.05 -0.1 6.65 Q0.55 6.1 0.5 7.45 L0.6 7.45 0.75 17.75 1.05 14.1 1.25 9.9 1.55 6.65 Q1.85 6.75 1.95 6.4 L1.9 5.55 2.4 5.45 2.2 6.55 1.55 10.05 1.65 13.65 1.75 16.75 2.4 10.15 Q2.45 9.5 2.95 8.1 L2.95 8.2 3.25 8.3 Q3.5 8.3 3.55 8.45 L3.55 9.3 4.1 8.8 2.8 12.2 Q2.7 12.55 2.55 15.45 2.45 18.65 2.65 19.45 L3.55 22.75 2.95 18.3 3.05 15.1 Q3.1 16.6 4.0 19.4 L5.2 23.65 Q5.2 24.55 4.75 23.35 L4.35 22.1 Q4.75 23.5 4.35 23.9 4.1 24.15 3.85 23.25 L3.65 22.25 3.75 22.85 3.65 24.05 Q3.4 24.55 3.0 23.55 L2.65 22.5 2.6 23.05 2.3 24.05 Q1.95 24.7 1.55 20.75 1.75 23.75 1.25 24.3 0.75 24.85 0.15 17.75 0.5 23.75 0.0 24.3 -0.3 24.65 -0.55 23.65 L-0.75 22.55 -0.85 23.35 Q-1.0 24.1 -1.4 24.25 -1.8 24.35 -1.65 22.35 -1.85 23.75 -2.25 23.8 -2.6 23.85 -2.55 23.0 -2.65 23.55 -2.85 23.7 L-3.15 23.65 -2.6 19.35 Q-2.0 15.05 -2.25 14.25 -2.45 13.45 -3.8 11.65 L-3.95 11.45 M2.5 5.1 L2.05 4.65 2.6 4.55 2.5 5.1 M3.8 6.05 L3.95 6.0 3.35 7.05 3.35 7.1 3.55 6.55 3.8 6.05 M4.25 8.4 L4.35 7.5 4.55 7.7 4.25 8.4 M5.95 6.7 L6.25 6.65 5.75 7.6 Q5.5 8.1 5.6 8.45 L5.0 9.4 Q3.25 12.65 3.05 14.25 L3.45 12.05 Q4.2 9.45 5.95 6.7 M-2.55 23.0 L-2.3 21.65 -2.5 22.75 -2.55 23.0 -2.5 22.75 -2.3 21.65 -2.55 23.0 M-1.45 20.2 L-1.55 21.75 -1.65 22.35 -1.65 22.05 -1.45 20.2 -1.4 19.7 -1.45 20.2 -1.65 22.05 -1.65 22.35 -1.55 21.75 -1.45 20.2" fill="#000000" fill-opacity="0.09803922" fill-rule="evenodd" stroke="none"/>
    <path d="M-2.9 10.45 L-2.65 10.0 -2.55 11.0 -2.7 10.8 -2.9 10.45 M-2.0 12.05 L-1.5 11.55 -1.15 12.05 -1.0 13.35 -1.1 16.35 -1.4 18.8 -1.45 16.75 Q-1.4 14.2 -1.5 13.55 L-2.0 12.05 M-0.65 11.95 Q0.05 11.45 -0.75 10.55 L0.0 10.35 0.1 13.7 -0.15 15.95 -0.4 17.65 -0.5 15.55 -0.55 12.6 -0.65 11.95 M0.0 10.05 L-0.65 9.05 Q0.25 9.2 -0.5 8.5 -1.45 7.75 -1.55 7.7 L-0.15 6.7 -0.1 6.65 0.0 10.05 M0.6 7.45 L1.0 7.1 1.35 6.55 1.55 6.65 1.25 9.9 1.05 14.1 0.75 17.75 0.6 7.45 M2.4 5.45 L2.5 5.25 2.5 5.1 2.6 4.55 2.8 4.45 3.55 4.3 3.45 5.2 3.3 6.1 3.65 6.05 3.8 6.05 3.55 6.55 3.35 7.1 2.95 8.1 Q2.45 9.5 2.4 10.15 L1.75 16.75 1.65 13.65 1.55 10.05 2.2 6.55 2.4 5.45 M4.1 8.8 L4.25 8.4 4.55 7.7 5.1 7.55 Q5.4 7.2 5.35 6.7 L5.95 6.7 Q4.2 9.45 3.45 12.05 L3.05 14.25 3.05 15.1 2.95 18.3 3.55 22.75 2.65 19.45 Q2.45 18.65 2.55 15.45 2.7 12.55 2.8 12.2 L4.1 8.8 M9.0 -10.35 L9.35 -9.85 9.25 -9.55 9.1 -9.3 9.15 -9.1 9.35 -8.95 9.3 -8.35 8.95 -7.95 8.9 -7.75 8.85 -7.45 8.7 -6.75 8.8 -6.05 Q7.85 -6.8 7.35 -5.75 L7.15 -6.25 6.6 -6.3 6.4 -7.1 Q6.3 -7.55 6.35 -7.95 L6.3 -9.1 5.65 -10.1 6.3 -10.1 Q6.15 -10.55 6.5 -10.45 L6.9 -10.0 7.5 -9.95 Q7.55 -10.3 7.85 -10.5 8.2 -10.75 8.35 -10.35 L9.0 -10.35 M1.85 -0.15 L2.15 -0.35 2.75 -1.05 Q3.1 -0.55 3.4 -0.55 3.65 -0.55 4.15 -0.95 4.1 -0.55 4.35 -0.4 L5.05 -0.4 Q4.65 -0.3 4.9 0.4 L4.85 0.55 4.9 0.65 5.25 0.75 5.6 0.75 5.6 1.05 Q5.55 1.25 5.65 1.35 L5.9 1.45 6.1 1.7 6.05 2.4 5.85 3.35 5.1 3.3 4.6 4.3 4.65 3.5 4.5 2.75 4.25 1.95 3.65 2.0 2.65 2.05 Q3.1 1.55 3.15 1.05 3.3 0.3 2.4 0.25 1.45 0.2 1.55 0.8 L1.1 0.9 0.95 1.25 Q0.55 1.25 0.4 1.6 L0.45 0.85 0.75 0.65 0.95 0.4 1.35 0.25 1.7 0.1 1.85 -0.15 M2.9 -7.05 L3.6 -7.65 3.15 -6.25 2.45 -4.85 3.35 -5.6 3.4 -4.95 Q3.85 -5.05 3.9 -4.8 L3.8 -4.25 3.55 -3.75 3.15 -3.55 2.75 -2.95 2.55 -2.15 1.95 -1.05 1.35 0.15 Q1.35 -1.65 1.8 -3.95 L2.45 -6.3 2.9 -7.05 M8.05 2.35 L8.95 1.55 Q8.2 2.3 7.25 3.95 L6.15 5.8 Q6.5 4.0 8.05 2.35 M14.2 -7.25 L16.25 -9.75 10.95 -1.75 Q11.95 -4.3 14.2 -7.25 M11.95 -2.6 L14.95 -5.55 16.95 -7.1 Q17.75 -7.1 11.95 -2.6 M-20.8 -10.45 Q-22.5 -10.3 -21.5 -10.9 L-21.0 -11.35 -20.5 -11.55 -20.1 -11.15 -19.75 -10.8 Q-19.35 -10.65 -18.95 -10.8 -18.65 -10.9 -18.3 -11.3 L-17.3 -11.95 -18.65 -10.1 Q-19.45 -9.45 -19.9 -9.8 L-20.45 -10.3 -20.8 -10.45 M-22.25 -3.75 L-21.5 -4.1 -20.35 -4.6 -19.15 -4.85 -18.25 -5.0 -22.25 -3.75 M-23.55 -6.2 L-23.95 -6.65 -22.75 -6.25 Q-22.45 -6.1 -20.85 -6.25 -19.95 -6.3 -18.45 -5.4 L-21.0 -5.9 -22.5 -5.8 Q-23.05 -5.75 -23.55 -6.2 M-8.55 -18.7 L-7.15 -18.7 -7.35 -18.35 -6.75 -18.35 -6.15 -18.45 -5.55 -18.55 -5.5 -18.35 -5.5 -18.2 -4.15 -18.05 Q-3.25 -18.05 -2.9 -17.65 L-2.5 -17.05 -2.2 -16.35 -1.85 -15.6 -1.6 -14.95 -2.45 -15.95 -3.8 -16.05 -4.4 -15.75 -4.65 -15.8 -4.15 -15.35 Q-2.65 -13.85 -2.25 -12.1 L-4.95 -15.85 -5.05 -15.9 -5.5 -15.35 -5.05 -14.75 Q-4.15 -13.45 -3.95 -12.2 L-5.6 -15.3 -5.85 -15.35 Q-6.3 -15.55 -6.3 -16.3 L-6.65 -16.05 -7.15 -16.05 -7.35 -15.75 -7.7 -15.65 -7.95 -16.05 -8.0 -16.6 Q-8.45 -16.15 -8.5 -16.75 L-8.6 -17.7 -9.35 -18.25 -9.9 -18.8 -8.55 -18.7 M-17.05 -15.6 L-16.7 -15.55 -16.5 -14.85 -16.35 -14.8 -16.0 -14.75 -15.0 -14.25 -15.2 -13.95 Q-15.3 -13.6 -15.05 -13.5 L-14.4 -13.5 -13.6 -13.8 -12.15 -14.65 -13.7 -13.3 -14.65 -12.7 -15.5 -12.4 -19.05 -15.55 Q-20.55 -16.2 -20.75 -16.5 L-19.95 -16.45 -18.85 -16.55 -18.25 -16.75 -17.85 -16.6 -17.75 -16.05 -17.5 -15.6 -17.05 -15.6 M-11.8 -6.75 L-12.05 -6.35 -12.3 -4.45 -12.55 -4.95 Q-12.6 -5.65 -12.95 -6.15 L-12.65 -6.65 -12.05 -7.25 -11.45 -7.25 -10.85 -7.15 -9.95 -6.95 -8.95 -6.85 -8.65 -6.45 Q-8.55 -6.15 -8.05 -6.15 -8.1 -6.8 -7.5 -7.15 L-7.85 -7.25 -8.15 -7.45 -7.95 -7.75 -7.65 -7.85 -7.95 -8.1 -8.0 -8.4 -7.7 -8.6 -7.4 -8.75 -7.25 -9.1 -7.35 -9.4 -7.4 -9.7 -7.05 -9.9 -6.95 -10.75 Q-6.75 -11.2 -6.25 -11.15 L-6.5 -10.25 Q-6.5 -9.65 -5.95 -9.7 L-5.95 -9.25 -5.7 -8.9 -5.65 -8.75 -5.7 -8.55 -5.8 -8.1 -5.75 -7.7 -4.9 -7.1 Q-4.25 -6.8 -3.85 -6.85 L-4.2 -6.35 -4.35 -5.75 -4.15 -5.6 -3.95 -5.45 -3.85 -4.85 -3.3 -3.95 -2.8 -3.0 -4.0 -4.1 -3.85 -3.7 -3.45 -2.5 -4.85 -4.2 -6.1 -5.2 Q-6.05 -4.85 -6.35 -4.95 -6.75 -5.05 -6.75 -5.3 L-7.2 -5.2 -7.55 -5.35 -7.55 -5.55 -7.65 -5.75 -7.7 -5.8 -7.75 -5.75 -8.15 -5.25 -8.7 -5.35 Q-7.45 -4.95 -5.95 -3.9 L-4.1 -2.35 -5.4 -4.5 -3.35 -2.25 -2.55 -2.65 -3.15 -1.65 Q-3.45 -1.45 -4.25 -1.65 -5.65 -3.1 -8.05 -4.55 L-9.95 -5.6 -9.95 -6.4 -10.55 -6.05 Q-10.7 -6.0 -10.85 -6.2 L-11.25 -6.75 Q-11.5 -7.1 -11.8 -6.75 M-15.6 -1.85 L-15.3 -2.2 -14.8 -2.3 Q-15.05 -2.35 -14.9 -2.55 L-14.6 -2.85 -14.15 -3.0 -13.65 -3.05 -11.65 -2.95 -9.75 -2.35 Q-11.75 -1.85 -10.65 -1.35 -11.45 -1.3 -11.3 -0.85 L-10.95 0.15 -11.45 -0.3 -12.1 -0.25 -12.2 0.2 -12.4 0.55 -13.0 0.25 -13.6 -0.15 -15.0 -0.6 -14.85 -1.0 -14.4 -1.15 -14.5 -1.25 -14.9 -1.35 Q-15.1 -1.4 -15.1 -1.75 -15.25 -1.55 -15.4 -1.6 L-15.6 -1.85 M-4.45 4.8 Q-4.15 4.15 -3.5 4.0 L-2.2 3.7 -3.45 4.4 Q-4.3 4.95 -4.25 5.45 -4.0 5.4 -3.75 6.05 L-3.6 6.9 Q-4.0 7.0 -4.2 6.55 -4.85 7.85 -5.5 7.6 L-5.75 7.05 -5.9 6.35 -6.35 6.6 -6.85 6.9 -6.4 5.85 -5.7 4.95 -5.15 4.45 Q-4.9 4.45 -4.45 4.8 M-12.65 1.15 L-11.6 1.25 -13.15 1.55 -14.7 1.95 -15.0 2.3 -15.45 2.45 Q-15.3 2.75 -15.55 2.95 L-16.05 3.25 Q-15.5 3.45 -15.55 3.85 -15.55 4.2 -16.15 4.15 -16.3 4.65 -16.65 4.55 L-17.25 4.15 Q-17.7 4.65 -18.15 4.35 -18.65 4.05 -18.0 3.65 -18.55 3.6 -18.5 3.3 -18.45 2.95 -18.0 2.75 L-18.2 2.65 -18.35 2.5 -17.8 2.15 -17.85 1.8 -17.65 1.5 Q-17.45 1.35 -16.85 1.5 L-15.95 1.65 -15.55 1.45 -15.05 1.25 -13.7 1.2 -12.65 1.15" fill="#000000" fill-opacity="0.2" fill-rule="evenodd" stroke="none"/>
    <path d="M8.95 -18.55 L9.35 -19.75 Q9.65 -20.5 10.05 -19.75 10.0 -20.6 10.45 -20.35 10.85 -20.05 10.85 -19.4 L11.1 -19.35 11.15 -18.4 Q11.8 -18.8 11.95 -18.15 L12.05 -17.0 12.75 -17.4 12.8 -17.1 12.85 -16.75 13.15 -17.1 13.35 -17.35 14.0 -17.85 14.4 -17.5 14.35 -16.9 Q14.9 -17.5 15.2 -17.3 L15.9 -17.1 Q16.15 -17.15 16.2 -17.7 L16.3 -18.35 16.65 -18.35 16.95 -18.15 17.75 -18.35 18.0 -17.5 18.05 -16.75 17.8 -15.95 18.8 -14.8 Q19.25 -14.1 18.35 -13.4 L19.1 -13.3 Q19.45 -13.15 19.65 -13.55 L19.7 -14.45 19.45 -15.3 Q19.85 -15.55 19.7 -16.6 L19.55 -18.15 19.95 -18.75 20.45 -19.25 20.85 -19.9 21.35 -20.45 22.1 -18.05 22.1 -17.25 21.95 -16.5 Q21.95 -16.25 22.3 -15.55 L23.55 -15.65 Q24.15 -15.4 24.15 -14.65 24.7 -14.7 25.15 -14.35 L25.6 -13.45 25.75 -11.85 Q25.75 -11.05 24.7 -10.95 23.65 -10.85 23.65 -10.45 24.4 -10.7 24.45 -10.25 L23.9 -9.7 23.15 -9.35 22.3 -8.9 21.6 -8.25 22.9 -8.45 Q23.55 -8.25 23.2 -7.45 L22.15 -6.75 Q21.3 -6.45 21.25 -7.05 21.05 -6.15 20.55 -6.25 L19.4 -6.55 Q18.8 -6.55 18.15 -5.8 L17.2 -4.6 18.35 -4.4 18.3 -4.2 18.2 -4.0 18.8 -3.85 18.95 -3.25 Q19.65 -3.65 19.65 -3.15 L19.25 -2.2 19.0 -2.05 18.75 -1.95 18.75 -1.7 18.75 -1.45 Q18.55 -1.3 18.2 -1.25 L17.6 -1.15 16.95 -0.45 16.05 -0.35 15.75 -0.55 15.4 -0.7 15.15 -0.6 14.95 -0.45 14.15 -0.5 13.25 -0.55 Q15.05 0.85 13.8 1.05 14.4 1.05 14.15 1.5 L13.6 1.75 12.95 1.95 14.25 2.35 Q15.0 2.7 14.5 3.5 14.15 4.05 13.4 3.85 12.7 3.6 12.65 2.95 12.5 3.45 12.15 3.55 L11.3 3.5 10.95 3.95 10.3 4.1 Q9.85 4.25 9.6 4.55 L9.05 5.15 11.15 5.05 Q12.5 5.65 11.15 6.5 L11.9 6.3 11.85 7.25 10.7 7.0 9.55 6.75 10.3 7.35 Q10.6 7.7 10.55 8.15 10.55 8.0 10.3 8.3 L10.05 8.75 9.9 8.95 9.65 9.25 9.25 9.35 8.75 9.55 8.45 9.9 8.45 10.3 8.5 11.15 Q8.45 11.65 8.0 11.25 8.0 12.05 7.45 12.45 6.9 12.85 6.65 11.9 6.3 12.35 5.85 12.25 L5.95 11.45 6.15 10.65 Q5.45 10.85 5.1 10.65 4.6 10.45 5.05 9.85 L5.75 9.1 6.55 8.35 6.05 8.45 5.6 8.55 5.6 8.45 Q5.5 8.1 5.75 7.6 L6.25 6.65 5.95 6.7 5.35 6.7 Q5.4 7.2 5.1 7.55 L4.55 7.7 4.35 7.5 4.25 8.4 4.1 8.8 3.55 9.3 3.55 8.45 Q3.5 8.3 3.25 8.3 L2.95 8.2 2.95 8.1 3.35 7.1 3.35 7.05 3.95 6.0 3.8 6.05 3.65 6.05 3.3 6.1 3.45 5.2 3.55 4.3 2.8 4.45 2.6 4.55 2.05 4.65 2.5 5.1 2.5 5.25 2.4 5.45 1.9 5.55 1.95 6.4 Q1.85 6.75 1.55 6.65 L1.35 6.55 1.0 7.1 0.6 7.45 0.5 7.45 Q0.55 6.1 -0.1 6.65 L-0.15 6.7 -1.55 7.7 Q-1.45 7.75 -0.5 8.5 0.25 9.2 -0.65 9.05 L0.0 10.05 0.0 10.35 -0.75 10.55 Q0.05 11.45 -0.65 11.95 L-1.15 12.05 -1.5 11.55 -2.0 12.05 Q-2.5 12.4 -2.6 11.85 L-2.55 11.0 -2.65 10.0 -2.9 10.45 -3.05 10.65 -3.7 10.6 Q-3.6 11.25 -3.95 11.45 L-4.7 11.55 -5.9 11.45 -5.65 10.75 -5.45 10.05 Q-6.1 10.35 -6.55 9.9 -6.85 10.8 -7.2 10.3 L-7.65 9.25 Q-8.95 10.25 -8.85 9.35 L-8.25 7.25 Q-8.5 7.85 -9.05 7.6 L-9.5 8.4 Q-9.95 8.8 -10.3 8.6 L-10.55 8.0 -10.6 7.3 -11.05 7.7 -11.65 7.7 -12.6 8.5 Q-13.25 8.75 -13.25 7.85 -14.55 8.05 -14.25 7.05 -13.9 6.1 -12.75 6.1 L-13.0 5.7 -13.6 5.95 -14.2 5.8 -14.15 5.15 -13.9 4.5 -15.7 5.45 -16.85 5.4 -17.4 6.25 -18.1 6.9 -18.7 6.9 -19.25 6.9 -19.6 7.25 -20.0 7.35 -20.25 6.9 -20.35 6.4 Q-20.75 7.0 -20.95 6.5 L-21.15 5.55 -21.5 5.55 -21.85 5.55 Q-21.95 5.15 -21.4 4.55 L-21.75 4.55 -22.15 4.45 Q-22.25 3.85 -21.9 3.65 L-21.0 3.55 -21.6 3.25 -22.05 3.0 Q-22.25 2.6 -21.75 2.1 L-21.05 1.35 Q-23.2 2.05 -23.25 1.75 L-23.15 1.15 -22.75 0.7 -24.0 0.95 -23.8 0.15 Q-24.25 -0.1 -23.75 -0.45 L-22.9 -0.9 -23.0 -0.95 -22.65 -1.4 -22.25 -1.85 -23.4 -1.6 -24.6 -1.55 -24.6 -1.8 -24.6 -2.1 -24.95 -2.15 -25.25 -2.2 -24.45 -2.75 -24.6 -2.85 -23.65 -3.05 -24.2 -3.75 -23.85 -4.05 Q-24.75 -4.35 -25.15 -4.75 L-24.9 -5.0 -24.65 -5.25 -25.6 -6.05 Q-25.95 -6.45 -25.2 -6.95 L-25.55 -8.2 -25.25 -8.15 -25.0 -7.9 Q-24.8 -8.4 -24.4 -8.0 L-23.8 -7.35 -22.7 -7.3 -21.65 -7.45 Q-21.2 -7.8 -21.85 -7.95 L-22.95 -8.1 Q-23.6 -8.15 -23.85 -8.45 L-24.55 -9.1 -24.3 -9.25 -24.05 -9.35 Q-24.8 -9.9 -23.9 -10.15 L-23.45 -10.1 -23.15 -10.0 Q-23.0 -10.05 -22.75 -10.2 L-22.35 -10.4 Q-23.15 -10.5 -23.3 -10.95 -23.45 -11.3 -23.2 -11.4 L-22.8 -11.65 -23.05 -12.45 Q-23.3 -13.0 -22.9 -13.05 -23.1 -13.7 -22.5 -14.05 -21.85 -14.45 -21.6 -13.8 -21.45 -14.25 -21.1 -14.25 L-20.5 -14.1 -20.25 -14.15 -20.0 -14.3 -19.75 -14.45 -19.45 -14.55 Q-19.45 -14.95 -20.0 -15.15 L-19.65 -15.45 -20.35 -15.9 -20.95 -16.5 -20.1 -17.05 Q-20.85 -17.4 -20.25 -17.7 -19.65 -18.0 -19.35 -17.45 -18.6 -18.35 -17.95 -17.65 L-17.25 -18.3 Q-16.75 -18.55 -16.75 -18.9 L-16.0 -18.8 -15.3 -18.55 -15.05 -18.45 -14.8 -18.3 -14.45 -18.5 -14.15 -18.65 Q-13.65 -18.45 -13.85 -17.35 -14.05 -16.1 -13.65 -15.75 -13.45 -16.65 -13.1 -16.75 L-11.85 -16.75 -12.45 -17.55 -11.65 -17.75 -11.9 -17.95 -12.1 -18.2 -10.9 -18.25 Q-10.15 -18.05 -10.5 -17.45 -10.2 -17.95 -9.1 -17.7 L-10.3 -18.55 Q-10.95 -18.95 -9.95 -19.4 L-10.8 -19.65 Q-11.25 -19.8 -11.55 -20.05 -11.35 -20.45 -10.8 -20.45 L-11.05 -21.2 -10.45 -21.6 -9.85 -21.95 -9.15 -21.85 Q-8.95 -22.35 -8.15 -22.4 -7.45 -22.45 -7.55 -23.25 L-6.9 -23.25 -6.35 -23.45 -6.0 -22.95 Q-5.8 -22.65 -5.6 -22.6 -5.35 -22.55 -5.2 -22.75 L-4.85 -23.0 -4.05 -22.8 Q-3.65 -22.75 -3.75 -23.55 L-3.1 -23.0 -2.65 -22.25 -2.85 -23.1 -3.1 -24.0 Q-2.2 -24.1 -1.7 -23.35 -1.35 -22.75 -1.25 -21.8 L-0.65 -21.75 -0.4 -21.2 0.2 -21.25 Q0.45 -21.45 0.5 -21.95 L0.8 -21.8 Q1.05 -22.9 1.65 -22.6 L2.25 -23.3 Q2.65 -23.7 2.95 -23.45 3.65 -24.5 4.45 -24.4 4.5 -23.75 4.15 -23.25 L3.3 -22.3 2.9 -21.5 2.8 -20.55 3.25 -21.1 3.65 -21.7 3.95 -21.3 4.25 -20.85 4.6 -21.65 4.85 -22.5 5.1 -22.35 5.35 -22.1 5.65 -22.25 5.95 -22.45 Q6.1 -22.05 5.9 -21.65 L5.6 -20.85 5.75 -20.05 5.75 -19.15 6.25 -19.3 6.75 -19.4 7.15 -19.0 Q7.25 -18.55 7.4 -18.45 L8.1 -18.4 8.95 -18.55 Q8.45 -18.35 8.45 -18.05 L8.7 -17.35 8.45 -17.25 8.15 -17.25 8.25 -17.1 7.45 -17.15 Q7.05 -17.0 7.05 -16.45 L6.75 -16.75 6.25 -16.55 Q6.3 -17.05 5.75 -17.2 5.25 -17.3 5.1 -16.75 4.6 -16.8 4.35 -16.5 L5.25 -16.0 4.75 -15.65 Q5.2 -15.55 5.65 -14.95 L6.25 -13.95 5.3 -14.1 5.15 -13.9 4.85 -14.35 4.45 -14.75 3.7 -14.65 Q3.35 -14.45 3.3 -14.05 L3.05 -14.25 2.75 -14.25 2.55 -13.75 Q2.75 -13.5 2.55 -13.2 L2.25 -12.65 3.45 -12.65 Q4.25 -12.6 4.45 -12.2 5.05 -11.25 2.75 -9.25 L2.75 -9.1 Q2.85 -8.75 2.45 -8.4 3.25 -8.25 2.95 -7.9 L2.2 -7.35 1.1 -7.0 Q0.35 -6.75 0.15 -6.4 L1.0 -6.3 1.8 -6.1 0.95 -5.15 Q1.15 -4.95 0.9 -4.8 L0.4 -4.85 0.9 -4.8 Q1.15 -4.95 0.95 -5.15 L1.8 -6.1 1.0 -6.3 0.15 -6.4 Q0.35 -6.75 1.1 -7.0 L2.2 -7.35 2.95 -7.9 Q3.25 -8.25 2.45 -8.4 2.85 -8.75 2.75 -9.1 L2.75 -9.25 Q5.05 -11.25 4.45 -12.2 4.25 -12.6 3.45 -12.65 L2.25 -12.65 2.55 -13.2 Q2.75 -13.5 2.55 -13.75 L2.75 -14.25 3.05 -14.25 3.3 -14.05 Q3.35 -14.45 3.7 -14.65 L4.45 -14.75 4.85 -14.35 5.15 -13.9 5.3 -14.1 6.25 -13.95 5.65 -14.95 Q5.2 -15.55 4.75 -15.65 L5.25 -16.0 4.35 -16.5 Q4.6 -16.8 5.1 -16.75 5.25 -17.3 5.75 -17.2 6.3 -17.05 6.25 -16.55 L6.75 -16.75 7.05 -16.45 Q7.05 -17.0 7.45 -17.15 L8.25 -17.1 8.15 -17.25 8.45 -17.25 8.7 -17.35 8.45 -18.05 Q8.45 -18.35 8.95 -18.55 M9.65 -11.35 L10.55 -10.25 10.85 -8.8 11.65 -10.1 Q12.05 -11.15 11.2 -11.35 L11.55 -11.75 Q11.65 -12.0 11.2 -12.05 11.65 -12.45 11.55 -12.85 11.4 -13.3 10.8 -13.15 11.05 -13.45 10.9 -13.65 10.75 -13.9 10.35 -13.8 10.55 -14.35 11.15 -14.35 L12.15 -14.3 Q12.8 -14.4 13.15 -14.8 13.6 -15.25 13.0 -15.7 13.4 -16.0 13.45 -16.45 13.55 -16.9 13.15 -17.1 13.55 -16.9 13.45 -16.45 13.4 -16.0 13.0 -15.7 13.6 -15.25 13.15 -14.8 12.8 -14.4 12.15 -14.3 L11.15 -14.35 Q10.55 -14.35 10.35 -13.8 10.75 -13.9 10.9 -13.65 11.05 -13.45 10.8 -13.15 11.4 -13.3 11.55 -12.85 11.65 -12.45 11.2 -12.05 11.65 -12.0 11.55 -11.75 L11.2 -11.35 Q12.05 -11.15 11.65 -10.1 L10.85 -8.8 10.55 -10.25 9.65 -11.35 M13.9 -13.25 Q14.6 -13.35 14.55 -12.75 L14.3 -11.8 14.4 -11.05 14.45 -10.35 Q14.9 -11.25 15.7 -12.1 15.0 -12.2 15.05 -12.55 L15.3 -13.35 Q14.9 -13.5 15.0 -14.2 L15.1 -15.2 14.35 -14.85 13.7 -14.45 Q14.65 -14.45 13.9 -13.25 M9.0 -10.35 L8.35 -10.35 Q8.2 -10.75 7.85 -10.5 7.55 -10.3 7.5 -9.95 L6.9 -10.0 6.5 -10.45 Q6.15 -10.55 6.3 -10.1 L5.65 -10.1 6.3 -9.1 6.35 -7.95 Q6.3 -7.55 6.4 -7.1 L6.6 -6.3 7.15 -6.25 7.35 -5.75 Q7.85 -6.8 8.8 -6.05 L8.7 -6.75 8.85 -7.45 8.9 -7.75 8.95 -7.95 9.3 -8.35 9.35 -8.95 9.15 -9.1 9.1 -9.3 9.25 -9.55 9.35 -9.85 9.0 -10.35 M-1.3 -4.05 L-1.55 -4.35 -1.95 -4.7 Q-2.3 -5.25 -2.25 -6.55 L-3.25 -6.75 Q-3.95 -6.9 -3.95 -7.35 -4.75 -7.3 -4.8 -7.65 L-4.8 -8.6 Q-5.45 -8.5 -5.35 -8.9 L-4.8 -9.55 Q-5.2 -9.55 -5.2 -9.85 L-4.85 -10.15 -5.05 -10.4 -4.85 -10.85 Q-4.2 -11.45 -3.55 -10.45 L-3.35 -10.95 -2.75 -10.75 Q-2.85 -11.55 -2.25 -11.3 L-1.15 -10.95 Q-1.2 -11.4 -2.25 -11.5 -2.25 -12.05 -1.65 -11.95 -1.8 -12.95 -0.65 -12.85 0.45 -12.7 0.0 -11.5 L0.5 -11.35 0.75 -10.85 Q1.4 -11.15 1.05 -9.95 L0.5 -8.4 1.15 -9.35 1.75 -10.35 2.35 -9.95 Q2.6 -9.7 2.15 -9.35 L2.75 -9.25 2.15 -9.35 Q2.6 -9.7 2.35 -9.95 L1.75 -10.35 1.15 -9.35 0.5 -8.4 1.05 -9.95 Q1.4 -11.15 0.75 -10.85 L0.5 -11.35 0.0 -11.5 Q0.45 -12.7 -0.65 -12.85 -1.8 -12.95 -1.65 -11.95 -2.25 -12.05 -2.25 -11.5 -1.2 -11.4 -1.15 -10.95 L-2.25 -11.3 Q-2.85 -11.55 -2.75 -10.75 L-3.35 -10.95 -3.55 -10.45 Q-4.2 -11.45 -4.85 -10.85 L-5.05 -10.4 -4.85 -10.15 -5.2 -9.85 Q-5.2 -9.55 -4.8 -9.55 L-5.35 -8.9 Q-5.45 -8.5 -4.8 -8.6 L-4.8 -7.65 Q-4.75 -7.3 -3.95 -7.35 -3.95 -6.9 -3.25 -6.75 L-2.25 -6.55 Q-2.3 -5.25 -1.95 -4.7 L-1.55 -4.35 -1.3 -4.05 M3.95 -9.25 Q5.45 -11.3 6.15 -11.75 7.4 -12.5 9.3 -11.5 7.4 -12.5 6.15 -11.75 5.45 -11.3 3.95 -9.25 M14.05 -9.25 Q12.45 -7.15 10.7 -2.95 L10.85 -3.7 11.2 -4.5 11.6 -5.75 11.25 -5.45 Q11.0 -5.25 10.9 -5.3 10.75 -5.35 10.75 -5.6 L10.9 -6.0 10.35 -5.75 9.8 -5.35 Q10.1 -5.05 9.55 -4.75 9.35 -4.85 9.55 -5.65 L9.95 -6.45 9.85 -6.4 10.1 -6.9 10.35 -7.4 10.8 -7.75 11.25 -8.05 11.7 -8.5 12.2 -8.85 12.9 -8.95 13.55 -9.05 12.9 -8.95 12.2 -8.85 11.7 -8.5 11.25 -8.05 10.8 -7.75 10.35 -7.4 10.1 -6.9 9.85 -6.4 9.95 -6.45 9.55 -5.65 Q9.35 -4.85 9.55 -4.75 10.1 -5.05 9.8 -5.35 L10.35 -5.75 10.9 -6.0 10.75 -5.6 Q10.75 -5.35 10.9 -5.3 11.0 -5.25 11.25 -5.45 L11.6 -5.75 11.2 -4.5 10.85 -3.7 10.7 -2.95 Q12.45 -7.15 14.05 -9.25 M2.9 -7.05 L2.45 -6.3 1.8 -3.95 Q1.35 -1.65 1.35 0.15 L1.95 -1.05 2.55 -2.15 2.75 -2.95 3.15 -3.55 3.55 -3.75 3.8 -4.25 3.9 -4.8 Q3.85 -5.05 3.4 -4.95 L3.35 -5.6 2.45 -4.85 3.15 -6.25 3.6 -7.65 2.9 -7.05 M1.85 -0.15 L1.7 0.1 1.35 0.25 0.95 0.4 0.75 0.65 0.45 0.85 0.4 1.6 Q0.55 1.25 0.95 1.25 L1.1 0.9 1.55 0.8 Q1.45 0.2 2.4 0.25 3.3 0.3 3.15 1.05 3.1 1.55 2.65 2.05 L3.65 2.0 4.25 1.95 4.5 2.75 4.65 3.5 4.6 4.3 5.1 3.3 5.85 3.35 6.05 2.4 6.1 1.7 5.9 1.45 5.65 1.35 Q5.55 1.25 5.6 1.05 L5.6 0.75 5.25 0.75 4.9 0.65 4.85 0.55 4.9 0.4 Q4.65 -0.3 5.05 -0.4 L4.35 -0.4 Q4.1 -0.55 4.15 -0.95 3.65 -0.55 3.4 -0.55 3.1 -0.55 2.75 -1.05 L2.15 -0.35 1.85 -0.15 M6.4 1.6 Q6.05 0.75 6.75 -1.05 7.45 -2.85 7.05 -3.75 L6.05 -4.75 Q5.35 -5.4 5.75 -5.65 L6.65 -5.55 7.3 -4.9 Q7.15 -5.55 7.65 -5.45 L8.5 -5.45 8.55 -4.8 8.5 -4.1 9.3 -4.3 Q9.75 -4.2 9.45 -3.7 L9.7 -3.8 9.95 -3.85 9.95 -3.55 9.9 -3.25 10.45 -3.15 Q10.55 -2.9 10.3 -2.6 10.1 -2.3 9.4 -1.95 L8.4 -1.3 9.85 -1.5 9.85 -1.35 9.8 -1.15 10.1 -1.1 10.15 -0.65 10.55 -0.55 10.7 -0.3 Q10.75 -0.25 11.05 -0.15 L11.35 0.05 Q11.5 0.6 11.0 0.7 L10.15 0.65 Q9.15 0.5 8.55 0.95 L7.25 2.1 8.55 0.95 Q9.15 0.5 10.15 0.65 L11.0 0.7 Q11.5 0.6 11.35 0.05 L11.05 -0.15 Q10.75 -0.25 10.7 -0.3 L10.55 -0.55 10.15 -0.65 10.1 -1.1 9.8 -1.15 9.85 -1.35 9.85 -1.5 8.4 -1.3 9.4 -1.95 Q10.1 -2.3 10.3 -2.6 10.55 -2.9 10.45 -3.15 L9.9 -3.25 9.95 -3.55 9.95 -3.85 9.7 -3.8 9.45 -3.7 Q9.75 -4.2 9.3 -4.3 L8.5 -4.1 8.55 -4.8 8.5 -5.45 7.65 -5.45 Q7.15 -5.55 7.3 -4.9 L6.65 -5.55 5.75 -5.65 Q5.35 -5.4 6.05 -4.75 L7.05 -3.75 Q7.45 -2.85 6.75 -1.05 6.05 0.75 6.4 1.6 M16.6 -8.25 L16.35 -7.75 16.05 -7.3 16.85 -7.8 17.0 -7.6 17.15 -7.3 17.45 -7.45 17.75 -7.55 18.35 -7.55 Q18.75 -7.7 19.15 -7.95 L19.75 -8.6 Q19.25 -9.15 18.75 -9.2 L17.7 -8.95 16.6 -8.25 M19.15 -9.7 L20.05 -10.45 20.65 -11.3 Q20.9 -12.2 20.45 -13.65 19.95 -13.35 19.75 -12.55 L19.35 -11.25 Q20.05 -10.95 19.15 -9.7 M11.95 -2.6 Q17.75 -7.1 16.95 -7.1 L14.95 -5.55 11.95 -2.6 M14.2 -7.25 Q11.95 -4.3 10.95 -1.75 L16.25 -9.75 14.2 -7.25 M8.05 2.35 Q6.5 4.0 6.15 5.8 L7.25 3.95 Q8.2 2.3 8.95 1.55 L8.05 2.35 M-20.8 -10.45 L-20.45 -10.3 -19.9 -9.8 Q-19.45 -9.45 -18.65 -10.1 L-17.3 -11.95 -18.3 -11.3 Q-18.65 -10.9 -18.95 -10.8 -19.35 -10.65 -19.75 -10.8 L-20.1 -11.15 -20.5 -11.55 -21.0 -11.35 -21.5 -10.9 Q-22.5 -10.3 -20.8 -10.45 M-23.55 -6.2 Q-23.05 -5.75 -22.5 -5.8 L-21.0 -5.9 -18.45 -5.4 Q-19.95 -6.3 -20.85 -6.25 -22.45 -6.1 -22.75 -6.25 L-23.95 -6.65 -23.55 -6.2 M-22.25 -3.75 L-18.25 -5.0 -19.15 -4.85 -20.35 -4.6 -21.5 -4.1 -22.25 -3.75 M-1.6 -16.6 L-1.65 -17.2 Q-1.55 -17.95 -1.1 -18.0 -0.8 -18.05 -1.35 -19.25 L-1.2 -19.9 -0.85 -20.55 -1.55 -20.45 -2.15 -19.9 Q-2.0 -19.55 -2.6 -19.25 L-1.75 -19.15 -2.5 -18.45 -2.45 -17.5 -1.75 -17.05 -1.6 -16.6 -1.4 -16.15 -1.6 -16.6 M-8.55 -18.7 L-9.9 -18.8 -9.35 -18.25 -8.6 -17.7 -8.5 -16.75 Q-8.45 -16.15 -8.0 -16.6 L-7.95 -16.05 -7.7 -15.65 -7.35 -15.75 -7.15 -16.05 -6.65 -16.05 -6.3 -16.3 Q-6.3 -15.55 -5.85 -15.35 L-5.6 -15.3 -3.95 -12.2 Q-4.15 -13.45 -5.05 -14.75 L-5.5 -15.35 -5.05 -15.9 -4.95 -15.85 -2.25 -12.1 Q-2.65 -13.85 -4.15 -15.35 L-4.65 -15.8 -4.4 -15.75 -3.8 -16.05 -2.45 -15.95 -1.6 -14.95 -1.85 -15.6 -2.2 -16.35 -2.5 -17.05 -2.9 -17.65 Q-3.25 -18.05 -4.15 -18.05 L-5.5 -18.2 -5.5 -18.35 -5.55 -18.55 -6.15 -18.45 -6.75 -18.35 -7.35 -18.35 -7.15 -18.7 -8.55 -18.7 M-7.8 -9.6 Q-7.85 -9.0 -8.15 -9.15 -8.55 -9.4 -8.9 -8.95 L-8.95 -8.45 Q-8.85 -8.15 -9.05 -7.95 L-9.6 -7.8 -9.8 -7.5 -10.15 -7.3 -10.7 -7.8 -11.15 -8.45 Q-11.55 -7.7 -11.95 -7.8 L-12.9 -8.1 -13.45 -7.95 -13.95 -8.05 -13.9 -8.65 -13.6 -9.15 -14.2 -9.05 -14.75 -8.85 Q-14.4 -9.7 -13.4 -10.1 -13.65 -10.35 -13.5 -10.65 L-12.95 -10.9 -13.35 -11.2 -13.15 -11.7 -12.6 -11.8 -12.0 -11.65 -10.6 -11.15 -9.15 -10.85 -9.65 -11.55 -10.2 -12.25 Q-10.75 -12.05 -11.2 -12.25 -11.75 -12.45 -11.45 -13.05 -11.25 -13.45 -10.85 -13.3 L-10.15 -12.85 -10.1 -13.7 Q-9.6 -13.75 -8.55 -13.05 -7.45 -12.35 -7.55 -12.0 -7.45 -12.35 -8.55 -13.05 -9.6 -13.75 -10.1 -13.7 L-10.15 -12.85 -10.85 -13.3 Q-11.25 -13.45 -11.45 -13.05 -11.75 -12.45 -11.2 -12.25 -10.75 -12.05 -10.2 -12.25 L-9.65 -11.55 -9.15 -10.85 -10.6 -11.15 -12.0 -11.65 -12.6 -11.8 -13.15 -11.7 -13.35 -11.2 -12.95 -10.9 -13.5 -10.65 Q-13.65 -10.35 -13.4 -10.1 -14.4 -9.7 -14.75 -8.85 L-14.2 -9.05 -13.6 -9.15 -13.9 -8.65 -13.95 -8.05 -13.45 -7.95 -12.9 -8.1 -11.95 -7.8 Q-11.55 -7.7 -11.15 -8.45 L-10.7 -7.8 -10.15 -7.3 -9.8 -7.5 -9.6 -7.8 -9.05 -7.95 Q-8.85 -8.15 -8.95 -8.45 L-8.9 -8.95 Q-8.55 -9.4 -8.15 -9.15 -7.85 -9.0 -7.8 -9.6 M-17.05 -15.6 L-17.5 -15.6 -17.75 -16.05 -17.85 -16.6 -18.25 -16.75 -18.85 -16.55 -19.95 -16.45 -20.75 -16.5 Q-20.55 -16.2 -19.05 -15.55 L-15.5 -12.4 -14.65 -12.7 -13.7 -13.3 -12.15 -14.65 -13.6 -13.8 -14.4 -13.5 -15.05 -13.5 Q-15.3 -13.6 -15.2 -13.95 L-15.0 -14.25 -16.0 -14.75 -16.35 -14.8 -16.5 -14.85 -16.7 -15.55 -17.05 -15.6 M-16.45 -6.25 L-16.05 -7.05 -15.05 -6.95 -15.05 -7.75 -14.85 -7.85 Q-15.35 -8.25 -15.15 -9.25 -15.45 -9.5 -15.35 -9.85 L-15.05 -10.2 -14.75 -10.5 Q-15.4 -10.65 -15.55 -11.25 L-15.75 -12.4 Q-16.15 -12.3 -16.15 -11.95 L-16.05 -11.25 -15.9 -11.0 -15.85 -10.75 -16.1 -10.45 Q-16.05 -10.15 -16.5 -9.8 -16.9 -9.5 -16.65 -9.2 L-17.6 -9.5 -17.65 -9.2 -17.7 -8.85 -18.05 -8.85 -18.35 -8.7 -17.35 -8.6 -17.3 -7.8 Q-17.15 -7.45 -16.8 -7.9 -16.5 -7.6 -16.45 -6.95 L-16.45 -6.25 -16.45 -5.95 -16.45 -6.25 M-12.45 -4.0 L-12.9 -4.6 -13.55 -4.75 -13.6 -5.6 Q-13.65 -6.25 -13.85 -6.35 L-14.25 -6.35 -14.7 -6.3 -14.75 -5.75 -15.35 -6.2 Q-15.45 -5.75 -15.15 -5.2 L-14.75 -4.25 -15.55 -4.2 -16.65 -4.65 Q-17.45 -4.8 -17.35 -4.15 -18.15 -4.1 -18.95 -3.65 -19.9 -3.15 -20.05 -2.45 -19.55 -2.45 -19.6 -1.95 -19.65 -1.35 -19.25 -1.2 -19.7 -0.8 -19.65 -0.3 L-19.4 -0.3 -19.35 -0.25 -19.25 0.75 -16.25 -2.15 Q-14.25 -3.95 -12.5 -3.35 -14.25 -3.95 -16.25 -2.15 L-19.25 0.75 -19.35 -0.25 -19.4 -0.3 -19.65 -0.3 Q-19.7 -0.8 -19.25 -1.2 -19.65 -1.35 -19.6 -1.95 -19.55 -2.45 -20.05 -2.45 -19.9 -3.15 -18.95 -3.65 -18.15 -4.1 -17.35 -4.15 -17.45 -4.8 -16.65 -4.65 L-15.55 -4.2 -14.75 -4.25 -15.15 -5.2 Q-15.45 -5.75 -15.35 -6.2 L-14.75 -5.75 -14.7 -6.3 -14.25 -6.35 -13.85 -6.35 Q-13.65 -6.25 -13.6 -5.6 L-13.55 -4.75 -12.9 -4.6 -12.45 -4.0 M-11.8 -6.75 Q-11.5 -7.1 -11.25 -6.75 L-10.85 -6.2 Q-10.7 -6.0 -10.55 -6.05 L-9.95 -6.4 -9.95 -5.6 -8.05 -4.55 Q-5.65 -3.1 -4.25 -1.65 -3.45 -1.45 -3.15 -1.65 L-2.55 -2.65 -3.35 -2.25 -5.4 -4.5 -4.1 -2.35 -5.95 -3.9 Q-7.45 -4.95 -8.7 -5.35 L-8.15 -5.25 -7.75 -5.75 -7.7 -5.8 -7.65 -5.75 -7.55 -5.55 -7.55 -5.35 -7.2 -5.2 -6.75 -5.3 Q-6.75 -5.05 -6.35 -4.95 -6.05 -4.85 -6.1 -5.2 L-4.85 -4.2 -3.45 -2.5 -3.85 -3.7 -4.0 -4.1 -2.8 -3.0 -3.3 -3.95 -3.85 -4.85 -3.95 -5.45 -4.15 -5.6 -4.35 -5.75 -4.2 -6.35 -3.85 -6.85 Q-4.25 -6.8 -4.9 -7.1 L-5.75 -7.7 -5.8 -8.1 -5.7 -8.55 -5.65 -8.75 -5.7 -8.9 -5.95 -9.25 -5.95 -9.7 Q-6.5 -9.65 -6.5 -10.25 L-6.25 -11.15 Q-6.75 -11.2 -6.95 -10.75 L-7.05 -9.9 -7.4 -9.7 -7.35 -9.4 -7.25 -9.1 -7.4 -8.75 -7.7 -8.6 -8.0 -8.4 -7.95 -8.1 -7.65 -7.85 -7.95 -7.75 -8.15 -7.45 -7.85 -7.25 -7.5 -7.15 Q-8.1 -6.8 -8.05 -6.15 -8.55 -6.15 -8.65 -6.45 L-8.95 -6.85 -9.95 -6.95 -10.85 -7.15 -11.45 -7.25 -12.05 -7.25 -12.65 -6.65 -12.95 -6.15 Q-12.6 -5.65 -12.55 -4.95 L-12.3 -4.45 -12.05 -6.35 -11.8 -6.75 M-19.35 -0.25 L-19.3 -0.25 -19.35 -0.3 -19.35 -0.25 -19.35 -0.3 -19.3 -0.25 -19.35 -0.25 M-15.6 -1.85 L-15.4 -1.6 Q-15.25 -1.55 -15.1 -1.75 -15.1 -1.4 -14.9 -1.35 L-14.5 -1.25 -14.4 -1.15 -14.85 -1.0 -15.0 -0.6 -13.6 -0.15 -13.0 0.25 -12.4 0.55 -12.2 0.2 -12.1 -0.25 -11.45 -0.3 -10.95 0.15 -11.3 -0.85 Q-11.45 -1.3 -10.65 -1.35 -11.75 -1.85 -9.75 -2.35 L-11.65 -2.95 -13.65 -3.05 -14.15 -3.0 -14.6 -2.85 -14.9 -2.55 Q-15.05 -2.35 -14.8 -2.3 L-15.3 -2.2 -15.6 -1.85 M-9.15 -0.7 L-8.25 -0.8 Q-8.9 -1.2 -7.95 -1.5 L-6.65 -1.7 Q-5.9 -1.7 -6.15 -1.35 -6.65 -0.8 -6.55 -0.55 -6.1 -0.8 -5.95 -0.35 -5.75 0.05 -6.0 0.45 -4.8 -0.8 -2.65 -0.85 -2.5 0.15 -3.25 0.35 L-4.45 0.75 -4.05 1.55 Q-3.95 2.05 -4.45 2.2 -4.35 3.25 -5.2 3.65 L-5.7 3.7 Q-5.95 3.65 -6.15 4.05 -6.55 3.6 -6.95 3.65 L-7.35 4.8 -7.65 4.65 -7.85 5.75 -8.55 5.8 -8.6 4.65 Q-8.6 4.0 -9.35 4.15 L-9.35 3.0 Q-9.25 2.35 -8.75 2.15 L-9.3 1.7 -9.15 0.95 -9.55 0.55 Q-9.6 0.25 -9.3 0.0 -9.55 -0.45 -9.15 -0.7 -9.55 -0.45 -9.3 0.0 -9.6 0.25 -9.55 0.55 L-9.15 0.95 -9.3 1.7 -8.75 2.15 Q-9.25 2.35 -9.35 3.0 L-9.35 4.15 Q-8.6 4.0 -8.6 4.65 L-8.55 5.8 -7.85 5.75 -7.65 4.65 -7.35 4.8 -6.95 3.65 Q-6.55 3.6 -6.15 4.05 -5.95 3.65 -5.7 3.7 L-5.2 3.65 Q-4.35 3.25 -4.45 2.2 -3.95 2.05 -4.05 1.55 L-4.45 0.75 -3.25 0.35 Q-2.5 0.15 -2.65 -0.85 -4.8 -0.8 -6.0 0.45 -5.75 0.05 -5.95 -0.35 -6.1 -0.8 -6.55 -0.55 -6.65 -0.8 -6.15 -1.35 -5.9 -1.7 -6.65 -1.7 L-7.95 -1.5 Q-8.9 -1.2 -8.25 -0.8 L-9.15 -0.7 M-4.45 4.8 Q-4.9 4.45 -5.15 4.45 L-5.7 4.95 -6.4 5.85 -6.85 6.9 -6.35 6.6 -5.9 6.35 -5.75 7.05 -5.5 7.6 Q-4.85 7.85 -4.2 6.55 -4.0 7.0 -3.6 6.9 L-3.75 6.05 Q-4.0 5.4 -4.25 5.45 -4.3 4.95 -3.45 4.4 L-2.2 3.7 -3.5 4.0 Q-4.15 4.15 -4.45 4.8 M-12.65 1.15 L-13.7 1.2 -15.05 1.25 -15.55 1.45 -15.95 1.65 -16.85 1.5 Q-17.45 1.35 -17.65 1.5 L-17.85 1.8 -17.8 2.15 -18.35 2.5 -18.2 2.65 -18.0 2.75 Q-18.45 2.95 -18.5 3.3 -18.55 3.6 -18.0 3.65 -18.65 4.05 -18.15 4.35 -17.7 4.65 -17.25 4.15 L-16.65 4.55 Q-16.3 4.65 -16.15 4.15 -15.55 4.2 -15.55 3.85 -15.5 3.45 -16.05 3.25 L-15.55 2.95 Q-15.3 2.75 -15.45 2.45 L-15.0 2.3 -14.7 1.95 -13.15 1.55 -11.6 1.25 -12.65 1.15" fill="#ffffff" fill-opacity="0.0" fill-rule="evenodd" stroke="none"/>
    <path d="M13.9 -13.25 Q14.65 -14.45 13.7 -14.45 L14.35 -14.85 15.1 -15.2 15.0 -14.2 Q14.9 -13.5 15.3 -13.35 L15.05 -12.55 Q15.0 -12.2 15.7 -12.1 14.9 -11.25 14.45 -10.35 L14.4 -11.05 14.3 -11.8 14.55 -12.75 Q14.6 -13.35 13.9 -13.25 M13.55 -9.05 L12.9 -8.95 12.2 -8.85 11.7 -8.5 11.25 -8.05 10.8 -7.75 10.35 -7.4 10.1 -6.9 9.85 -6.4 9.95 -6.45 9.55 -5.65 Q9.35 -4.85 9.55 -4.75 10.1 -5.05 9.8 -5.35 L10.35 -5.75 10.9 -6.0 10.75 -5.6 Q10.75 -5.35 10.9 -5.3 11.0 -5.25 11.25 -5.45 L11.6 -5.75 11.2 -4.5 10.85 -3.7 10.7 -2.95 Q12.45 -7.15 14.05 -9.25 M9.3 -11.5 Q7.4 -12.5 6.15 -11.75 5.45 -11.3 3.95 -9.25 M2.75 -9.25 L2.15 -9.35 Q2.6 -9.7 2.35 -9.95 L1.75 -10.35 1.15 -9.35 0.5 -8.4 1.05 -9.95 Q1.4 -11.15 0.75 -10.85 L0.5 -11.35 0.0 -11.5 Q0.45 -12.7 -0.65 -12.85 -1.8 -12.95 -1.65 -11.95 -2.25 -12.05 -2.25 -11.5 -1.2 -11.4 -1.15 -10.95 L-2.25 -11.3 Q-2.85 -11.55 -2.75 -10.75 L-3.35 -10.95 -3.55 -10.45 Q-4.2 -11.45 -4.85 -10.85 L-5.05 -10.4 -4.85 -10.15 -5.2 -9.85 Q-5.2 -9.55 -4.8 -9.55 L-5.35 -8.9 Q-5.45 -8.5 -4.8 -8.6 L-4.8 -7.65 Q-4.75 -7.3 -3.95 -7.35 -3.95 -6.9 -3.25 -6.75 L-2.25 -6.55 Q-2.3 -5.25 -1.95 -4.7 L-1.55 -4.35 -1.3 -4.05 M7.25 2.1 L8.55 0.95 Q9.15 0.5 10.15 0.65 L11.0 0.7 Q11.5 0.6 11.35 0.05 L11.05 -0.15 Q10.75 -0.25 10.7 -0.3 L10.55 -0.55 10.15 -0.65 10.1 -1.1 9.8 -1.15 9.85 -1.35 9.85 -1.5 8.4 -1.3 9.4 -1.95 Q10.1 -2.3 10.3 -2.6 10.55 -2.9 10.45 -3.15 L9.9 -3.25 9.95 -3.55 9.95 -3.85 9.7 -3.8 9.45 -3.7 Q9.75 -4.2 9.3 -4.3 L8.5 -4.1 8.55 -4.8 8.5 -5.45 7.65 -5.45 Q7.15 -5.55 7.3 -4.9 L6.65 -5.55 5.75 -5.65 Q5.35 -5.4 6.05 -4.75 L7.05 -3.75 Q7.45 -2.85 6.75 -1.05 6.05 0.75 6.4 1.6 M19.15 -9.7 Q20.05 -10.95 19.35 -11.25 L19.75 -12.55 Q19.95 -13.35 20.45 -13.65 20.9 -12.2 20.65 -11.3 L20.05 -10.45 19.15 -9.7 M16.6 -8.25 L17.7 -8.95 18.75 -9.2 Q19.25 -9.15 19.75 -8.6 L19.15 -7.95 Q18.75 -7.7 18.35 -7.55 L17.75 -7.55 17.45 -7.45 17.15 -7.3 17.0 -7.6 16.85 -7.8 16.05 -7.3 16.35 -7.75 16.6 -8.25 M-1.6 -16.6 L-1.75 -17.05 -2.45 -17.5 -2.5 -18.45 -1.75 -19.15 -2.6 -19.25 Q-2.0 -19.55 -2.15 -19.9 L-1.55 -20.45 -0.85 -20.55 -1.2 -19.9 -1.35 -19.25 Q-0.8 -18.05 -1.1 -18.0 -1.55 -17.95 -1.65 -17.2 L-1.6 -16.6 -1.4 -16.15 M-7.55 -12.0 Q-7.45 -12.35 -8.55 -13.05 -9.6 -13.75 -10.1 -13.7 L-10.15 -12.85 -10.85 -13.3 Q-11.25 -13.45 -11.45 -13.05 -11.75 -12.45 -11.2 -12.25 -10.75 -12.05 -10.2 -12.25 L-9.65 -11.55 -9.15 -10.85 -10.6 -11.15 -12.0 -11.65 -12.6 -11.8 -13.15 -11.7 -13.35 -11.2 -12.95 -10.9 -13.5 -10.65 Q-13.65 -10.35 -13.4 -10.1 -14.4 -9.7 -14.75 -8.85 L-14.2 -9.05 -13.6 -9.15 -13.9 -8.65 -13.95 -8.05 -13.45 -7.95 -12.9 -8.1 -11.95 -7.8 Q-11.55 -7.7 -11.15 -8.45 L-10.7 -7.8 -10.15 -7.3 -9.8 -7.5 -9.6 -7.8 -9.05 -7.95 Q-8.85 -8.15 -8.95 -8.45 L-8.9 -8.95 Q-8.55 -9.4 -8.15 -9.15 -7.85 -9.0 -7.8 -9.6 M-16.45 -6.25 L-16.45 -6.95 Q-16.5 -7.6 -16.8 -7.9 -17.15 -7.45 -17.3 -7.8 L-17.35 -8.6 -18.35 -8.7 -18.05 -8.85 -17.7 -8.85 -17.65 -9.2 -17.6 -9.5 -16.65 -9.2 Q-16.9 -9.5 -16.5 -9.8 -16.05 -10.15 -16.1 -10.45 L-15.85 -10.75 -15.9 -11.0 -16.05 -11.25 -16.15 -11.95 Q-16.15 -12.3 -15.75 -12.4 L-15.55 -11.25 Q-15.4 -10.65 -14.75 -10.5 L-15.05 -10.2 -15.35 -9.85 Q-15.45 -9.5 -15.15 -9.25 -15.35 -8.25 -14.85 -7.85 L-15.05 -7.75 -15.05 -6.95 -16.05 -7.05 -16.45 -6.25 -16.45 -5.95 M-12.5 -3.35 Q-14.25 -3.95 -16.25 -2.15 L-19.25 0.75 -19.35 -0.25 -19.4 -0.3 -19.65 -0.3 Q-19.7 -0.8 -19.25 -1.2 -19.65 -1.35 -19.6 -1.95 -19.55 -2.45 -20.05 -2.45 -19.9 -3.15 -18.95 -3.65 -18.15 -4.1 -17.35 -4.15 -17.45 -4.8 -16.65 -4.65 L-15.55 -4.2 -14.75 -4.25 -15.15 -5.2 Q-15.45 -5.75 -15.35 -6.2 L-14.75 -5.75 -14.7 -6.3 -14.25 -6.35 -13.85 -6.35 Q-13.65 -6.25 -13.6 -5.6 L-13.55 -4.75 -12.9 -4.6 -12.45 -4.0 M-19.35 -0.25 L-19.35 -0.3 -19.3 -0.25 -19.35 -0.25 M-9.15 -0.7 Q-9.55 -0.45 -9.3 0.0 -9.6 0.25 -9.55 0.55 L-9.15 0.95 -9.3 1.7 -8.75 2.15 Q-9.25 2.35 -9.35 3.0 L-9.35 4.15 Q-8.6 4.0 -8.6 4.65 L-8.55 5.8 -7.85 5.75 -7.65 4.65 -7.35 4.8 -6.95 3.65 Q-6.55 3.6 -6.15 4.05 -5.95 3.65 -5.7 3.7 L-5.2 3.65 Q-4.35 3.25 -4.45 2.2 -3.95 2.05 -4.05 1.55 L-4.45 0.75 -3.25 0.35 Q-2.5 0.15 -2.65 -0.85 -4.8 -0.8 -6.0 0.45 -5.75 0.05 -5.95 -0.35 -6.1 -0.8 -6.55 -0.55 -6.65 -0.8 -6.15 -1.35 -5.9 -1.7 -6.65 -1.7 L-7.95 -1.5 Q-8.9 -1.2 -8.25 -0.8 L-9.15 -0.7 M-1.65 22.35 L-1.65 22.05 -1.45 20.2 -1.4 19.7 M-1.65 22.35 L-1.55 21.75 -1.45 20.2 M-2.55 23.0 L-2.5 22.75 -2.3 21.65 -2.55 23.0" fill="none" stroke="#000000" stroke-linecap="butt" stroke-linejoin="miter-clip" stroke-miterlimit="10.0" stroke-opacity="0.6" stroke-width="1.0"/>
    <path d="M13.15 -17.1 L12.85 -16.75 12.8 -17.1 12.75 -17.4 12.05 -17.0 11.95 -18.15 Q11.8 -18.8 11.15 -18.4 L11.1 -19.35 10.85 -19.4 Q10.85 -20.05 10.45 -20.35 10.0 -20.6 10.05 -19.75 9.65 -20.5 9.35 -19.75 L8.95 -18.55" fill="none" stroke="#000000" stroke-linecap="round" stroke-linejoin="miter-clip" stroke-miterlimit="10.0" stroke-opacity="0.6" stroke-width="1.0"/>
    <path d="M8.95 -18.55 Q8.45 -18.35 8.45 -18.05 L8.7 -17.35 8.45 -17.25 8.15 -17.25 8.25 -17.1 7.45 -17.15 Q7.05 -17.0 7.05 -16.45 L6.75 -16.75 6.25 -16.55 Q6.3 -17.05 5.75 -17.2 5.25 -17.3 5.1 -16.75 4.6 -16.8 4.35 -16.5 L5.25 -16.0 4.75 -15.65 Q5.2 -15.55 5.65 -14.95 L6.25 -13.95 5.3 -14.1 5.15 -13.9 4.85 -14.35 4.45 -14.75 3.7 -14.65 Q3.35 -14.45 3.3 -14.05 L3.05 -14.25 2.75 -14.25 2.55 -13.75 Q2.75 -13.5 2.55 -13.2 L2.25 -12.65 3.45 -12.65 Q4.25 -12.6 4.45 -12.2 5.05 -11.25 2.75 -9.25 L2.75 -9.1 Q2.85 -8.75 2.45 -8.4 3.25 -8.25 2.95 -7.9 L2.2 -7.35 1.1 -7.0 Q0.35 -6.75 0.15 -6.4 L1.0 -6.3 1.8 -6.1 0.95 -5.15 Q1.15 -4.95 0.9 -4.8 L0.4 -4.85 M13.15 -17.1 Q13.55 -16.9 13.45 -16.45 13.4 -16.0 13.0 -15.7 13.6 -15.25 13.15 -14.8 12.8 -14.4 12.15 -14.3 L11.15 -14.35 Q10.55 -14.35 10.35 -13.8 10.75 -13.9 10.9 -13.65 11.05 -13.45 10.8 -13.15 11.4 -13.3 11.55 -12.85 11.65 -12.45 11.2 -12.05 11.65 -12.0 11.55 -11.75 L11.2 -11.35 Q12.05 -11.15 11.65 -10.1 L10.85 -8.8 10.55 -10.25 9.65 -11.35 M8.95 -18.55 L8.1 -18.4 7.4 -18.45 Q7.25 -18.55 7.15 -19.0 L6.75 -19.4 6.25 -19.3 5.75 -19.15 5.75 -20.05 5.6 -20.85 5.9 -21.65 Q6.1 -22.05 5.95 -22.45 L5.65 -22.25 5.35 -22.1 5.1 -22.35 4.85 -22.5 4.6 -21.65 4.25 -20.85 3.95 -21.3 3.65 -21.7 3.25 -21.1 2.8 -20.55 2.9 -21.5 3.3 -22.3 4.15 -23.25 Q4.5 -23.75 4.45 -24.4 3.65 -24.5 2.95 -23.45 2.65 -23.7 2.25 -23.3 L1.65 -22.6 Q1.05 -22.9 0.8 -21.8 L0.5 -21.95 Q0.45 -21.45 0.2 -21.25 L-0.4 -21.2 -0.65 -21.75 -1.25 -21.8 Q-1.35 -22.75 -1.7 -23.35 -2.2 -24.1 -3.1 -24.0 L-2.85 -23.1 -2.65 -22.25 -3.1 -23.0 -3.75 -23.55 Q-3.65 -22.75 -4.05 -22.8 L-4.85 -23.0 -5.2 -22.75 Q-5.35 -22.55 -5.6 -22.6 -5.8 -22.65 -6.0 -22.95 L-6.35 -23.45 -6.9 -23.25 -7.55 -23.25 Q-7.45 -22.45 -8.15 -22.4 -8.95 -22.35 -9.15 -21.85 L-9.85 -21.95 -10.45 -21.6 -11.05 -21.2 -10.8 -20.45 Q-11.35 -20.45 -11.55 -20.05 -11.25 -19.8 -10.8 -19.65 L-9.95 -19.4 Q-10.95 -18.95 -10.3 -18.55 L-9.1 -17.7 Q-10.2 -17.95 -10.5 -17.45 -10.15 -18.05 -10.9 -18.25 L-12.1 -18.2 -11.9 -17.95 -11.65 -17.75 -12.45 -17.55 -11.85 -16.75 -13.1 -16.75 Q-13.45 -16.65 -13.65 -15.75 -14.05 -16.1 -13.85 -17.35 -13.65 -18.45 -14.15 -18.65 L-14.45 -18.5 -14.8 -18.3 -15.05 -18.45 -15.3 -18.55 -16.0 -18.8 -16.75 -18.9 Q-16.75 -18.55 -17.25 -18.3 L-17.95 -17.65 Q-18.6 -18.35 -19.35 -17.45 -19.65 -18.0 -20.25 -17.7 -20.85 -17.4 -20.1 -17.05 L-20.95 -16.5 -20.35 -15.9 -19.65 -15.45 -20.0 -15.15 Q-19.45 -14.95 -19.45 -14.55 L-19.75 -14.45 -20.0 -14.3 -20.25 -14.15 -20.5 -14.1 -21.1 -14.25 Q-21.45 -14.25 -21.6 -13.8 -21.85 -14.45 -22.5 -14.05 -23.1 -13.7 -22.9 -13.05 -23.3 -13.0 -23.05 -12.45 L-22.8 -11.65 -23.2 -11.4 Q-23.45 -11.3 -23.3 -10.95 -23.15 -10.5 -22.35 -10.4 L-22.75 -10.2 Q-23.0 -10.05 -23.15 -10.0 L-23.45 -10.1 -23.9 -10.15 Q-24.8 -9.9 -24.05 -9.35 L-24.3 -9.25 -24.55 -9.1 -23.85 -8.45 Q-23.6 -8.15 -22.95 -8.1 L-21.85 -7.95 Q-21.2 -7.8 -21.65 -7.45 L-22.7 -7.3 -23.8 -7.35 -24.4 -8.0 Q-24.8 -8.4 -25.0 -7.9 L-25.25 -8.15 -25.55 -8.2 -25.2 -6.95 Q-25.95 -6.45 -25.6 -6.05 L-24.65 -5.25 -24.9 -5.0 -25.15 -4.75 Q-24.75 -4.35 -23.85 -4.05 L-24.2 -3.75 -23.65 -3.05 -24.6 -2.85 -24.45 -2.75 -25.25 -2.2 -24.95 -2.15 -24.6 -2.1 -24.6 -1.8 -24.6 -1.55 -23.4 -1.6 -22.25 -1.85 -22.65 -1.4 -23.0 -0.95 -22.9 -0.9 -23.75 -0.45 Q-24.25 -0.1 -23.8 0.15 L-24.0 0.95 -22.75 0.7 -23.15 1.15 -23.25 1.75 Q-23.2 2.05 -21.05 1.35 L-21.75 2.1 Q-22.25 2.6 -22.05 3.0 L-21.6 3.25 -21.0 3.55 -21.9 3.65 Q-22.25 3.85 -22.15 4.45 L-21.75 4.55 -21.4 4.55 Q-21.95 5.15 -21.85 5.55 L-21.5 5.55 -21.15 5.55 -20.95 6.5 Q-20.75 7.0 -20.35 6.4 L-20.25 6.9 -20.0 7.35 -19.6 7.25 -19.25 6.9 -18.7 6.9 -18.1 6.9 -17.4 6.25 -16.85 5.4 -15.7 5.45 -13.9 4.5 -14.15 5.15 -14.2 5.8 -13.6 5.95 -13.0 5.7 -12.75 6.1 Q-13.9 6.1 -14.25 7.05 -14.55 8.05 -13.25 7.85 -13.25 8.75 -12.6 8.5 L-11.65 7.7 -11.05 7.7 -10.6 7.3 -10.55 8.0 -10.3 8.6 Q-9.95 8.8 -9.5 8.4 L-9.05 7.6 Q-8.5 7.85 -8.25 7.25 L-8.85 9.35 Q-8.95 10.25 -7.65 9.25 L-7.2 10.3 Q-6.85 10.8 -6.55 9.9 -6.1 10.35 -5.45 10.05 L-5.65 10.75 -5.9 11.45 -4.7 11.55 -3.95 11.45 Q-3.6 11.25 -3.7 10.6 L-3.05 10.65 -2.9 10.45 -2.65 10.0 -2.55 11.0 -2.6 11.85 Q-2.5 12.4 -2.0 12.05 L-1.5 11.55 -1.15 12.05 -0.65 11.95 Q0.05 11.45 -0.75 10.55 L0.0 10.35 0.0 10.05 -0.65 9.05 Q0.25 9.2 -0.5 8.5 -1.45 7.75 -1.55 7.7 L-0.15 6.7 -0.1 6.65 Q0.55 6.1 0.5 7.45 L0.6 7.45 1.0 7.1 1.35 6.55 1.55 6.65 Q1.85 6.75 1.95 6.4 L1.9 5.55 2.4 5.45 2.5 5.25 2.5 5.1 2.05 4.65 2.6 4.55 2.8 4.45 3.55 4.3 3.45 5.2 3.3 6.1 3.65 6.05 3.8 6.05 3.95 6.0 3.35 7.05 3.35 7.1 2.95 8.1 2.95 8.2 3.25 8.3 Q3.5 8.3 3.55 8.45 L3.55 9.3 4.1 8.8 4.25 8.4 4.35 7.5 4.55 7.7 5.1 7.55 Q5.4 7.2 5.35 6.7 L5.95 6.7 6.25 6.65 5.75 7.6 Q5.5 8.1 5.6 8.45 L5.0 9.4 Q3.25 12.65 3.05 14.25 L3.05 15.1 Q3.1 16.6 4.0 19.4 L5.2 23.65 Q5.2 24.55 4.75 23.35 L4.35 22.1 Q4.75 23.5 4.35 23.9 4.1 24.15 3.85 23.25 L3.65 22.25 3.75 22.85 3.65 24.05 Q3.4 24.55 3.0 23.55 L2.65 22.5 2.6 23.05 2.3 24.05 Q1.95 24.7 1.55 20.75 1.75 23.75 1.25 24.3 0.75 24.85 0.15 17.75 0.5 23.75 0.0 24.3 -0.3 24.65 -0.55 23.65 L-0.75 22.55 -0.85 23.35 Q-1.0 24.1 -1.4 24.25 -1.8 24.35 -1.65 22.35 -1.85 23.75 -2.25 23.8 -2.6 23.85 -2.55 23.0 -2.65 23.55 -2.85 23.7 L-3.15 23.65 -2.6 19.35 Q-2.0 15.05 -2.25 14.25 -2.45 13.45 -3.8 11.65 L-3.95 11.45" fill="none" stroke="#000000" stroke-linecap="round" stroke-linejoin="miter-clip" stroke-miterlimit="10.0" stroke-opacity="0.6" stroke-width="1.0"/>
    <path d="M5.6 8.45 L5.6 8.55 6.05 8.45 6.55 8.35 5.75 9.1 5.05 9.85 Q4.6 10.45 5.1 10.65 5.45 10.85 6.15 10.65 L5.95 11.45 5.85 12.25 Q6.3 12.35 6.65 11.9 6.9 12.85 7.45 12.45 8.0 12.05 8.0 11.25 8.45 11.65 8.5 11.15 L8.45 10.3 8.45 9.9 8.75 9.55 9.25 9.35 9.65 9.25 9.9 8.95 10.05 8.75 10.3 8.3 Q10.55 8.0 10.55 8.15 10.6 7.7 10.3 7.35 L9.55 6.75 10.7 7.0 11.85 7.25 11.9 6.3 11.15 6.5 Q12.5 5.65 11.15 5.05 L9.05 5.15 9.6 4.55 Q9.85 4.25 10.3 4.1 L10.95 3.95 11.3 3.5 12.15 3.55 Q12.5 3.45 12.65 2.95 12.7 3.6 13.4 3.85 14.15 4.05 14.5 3.5 15.0 2.7 14.25 2.35 L12.95 1.95 13.6 1.75 14.15 1.5 Q14.4 1.05 13.8 1.05 15.05 0.85 13.25 -0.55 L14.15 -0.5 14.95 -0.45 15.15 -0.6 15.4 -0.7 15.75 -0.55 16.05 -0.35 16.95 -0.45 17.6 -1.15 18.2 -1.25 Q18.55 -1.3 18.75 -1.45 L18.75 -1.7 18.75 -1.95 19.0 -2.05 19.25 -2.2 19.65 -3.15 Q19.65 -3.65 18.95 -3.25 L18.8 -3.85 18.2 -4.0 18.3 -4.2 18.35 -4.4 17.2 -4.6 18.15 -5.8 Q18.8 -6.55 19.4 -6.55 L20.55 -6.25 Q21.05 -6.15 21.25 -7.05 21.3 -6.45 22.15 -6.75 L23.2 -7.45 Q23.55 -8.25 22.9 -8.45 L21.6 -8.25 22.3 -8.9 23.15 -9.35 23.9 -9.7 24.45 -10.25 Q24.4 -10.7 23.65 -10.45 23.65 -10.85 24.7 -10.95 25.75 -11.05 25.75 -11.85 L25.6 -13.45 25.15 -14.35 Q24.7 -14.7 24.15 -14.65 24.15 -15.4 23.55 -15.65 L22.3 -15.55 Q21.95 -16.25 21.95 -16.5 L22.1 -17.25 22.1 -18.05 21.35 -20.45 20.85 -19.9 20.45 -19.25 19.95 -18.75 19.55 -18.15 19.7 -16.6 Q19.85 -15.55 19.45 -15.3 L19.7 -14.45 19.65 -13.55 Q19.45 -13.15 19.1 -13.3 L18.35 -13.4 Q19.25 -14.1 18.8 -14.8 L17.8 -15.95 18.05 -16.75 18.0 -17.5 17.75 -18.35 16.95 -18.15 16.65 -18.35 16.3 -18.35 16.2 -17.7 Q16.15 -17.15 15.9 -17.1 L15.2 -17.3 Q14.9 -17.5 14.35 -16.9 L14.4 -17.5 14.0 -17.85 13.35 -17.35 13.15 -17.1" fill="none" stroke="#000000" stroke-linecap="butt" stroke-linejoin="miter-clip" stroke-miterlimit="10.0" stroke-opacity="0.6" stroke-width="1.0"/>
  </g>
</svg>
