<?xml version="1.0" encoding="UTF-8" standalone="no"?>
<svg xmlns:xlink="http://www.w3.org/1999/xlink" height="17.4px" width="54.85px" xmlns="http://www.w3.org/2000/svg">
  <g transform="matrix(1.0, 0.0, 0.0, 1.0, 27.4, 8.6)">
    <path d="M20.95 -4.9 L26.95 -3.9 Q26.95 -0.35 20.1 2.55 15.75 4.35 9.45 5.6 L-5.4 7.55 Q-17.3 8.6 -22.55 7.6 -27.55 6.65 -26.8 -0.7 L-25.05 -7.9 Q-23.15 -8.5 -21.9 -7.25 -21.3 -6.65 -21.05 -5.9 -23.85 -0.9 -23.0 1.85 -22.55 3.25 -21.55 3.6 L-2.55 4.1 Q13.1 2.85 18.6 -1.15 21.35 -3.15 20.95 -4.9" fill="#ffffff" fill-opacity="0.0" fill-rule="evenodd" stroke="none"/>
    <path d="M-21.05 -5.9 Q-21.3 -6.65 -21.9 -7.25 -23.15 -8.5 -25.05 -7.9 L-26.8 -0.7 Q-27.55 6.65 -22.55 7.6 -17.3 8.6 -5.4 7.55 L9.45 5.6 Q15.75 4.35 20.1 2.55 26.95 -0.35 26.95 -3.9 L20.95 -4.9" fill="none" stroke="#000000" stroke-linecap="butt" stroke-linejoin="miter-clip" stroke-miterlimit="10.0" stroke-width="1.0"/>
    <path d="M20.95 -4.9 Q21.35 -3.15 18.6 -1.15 13.1 2.85 -2.55 4.1 L-21.55 3.6 Q-22.55 3.25 -23.0 1.85 -23.85 -0.9 -21.05 -5.9 Z" fill="none" stroke="#000000" stroke-linecap="butt" stroke-linejoin="miter-clip" stroke-miterlimit="10.0" stroke-opacity="0.6" stroke-width="1.0"/>
  </g>
</svg>
