<?xml version="1.0" encoding="UTF-8" standalone="no"?>
<svg xmlns:xlink="http://www.w3.org/1999/xlink" height="47.7px" width="81.2px" xmlns="http://www.w3.org/2000/svg">
  <g transform="matrix(1.0, 0.0, 0.0, 1.0, 40.55, 25.85)">
    <path d="M30.05 -20.9 L40.1 -20.7 39.3 -16.35 Q39.1 -15.85 39.35 -12.2 L39.65 -4.35 Q39.65 1.65 38.95 7.0 L37.65 13.0 Q36.35 13.2 30.2 16.85 L23.3 20.65 14.1 20.9 3.65 20.65 -13.55 18.95 -31.05 18.0 Q-33.35 18.4 -35.4 15.75 L-37.05 13.0 Q-40.05 0.0 -40.05 -2.65 -40.05 -4.35 -38.2 -10.5 L-36.35 -16.35 -32.95 -17.5 Q-28.95 -18.65 -26.05 -18.65 L-16.7 -17.7 -7.35 -16.0 Q-4.65 -15.4 4.9 -17.4 L19.65 -20.35 30.05 -20.9" fill="#ffffff" fill-opacity="0.0" fill-rule="evenodd" stroke="none"/>
    <path d="M30.05 -20.9 L19.65 -20.35 4.9 -17.4 Q-4.65 -15.4 -7.35 -16.0 L-16.7 -17.7 -26.05 -18.65 Q-28.95 -18.65 -32.95 -17.5 L-36.35 -16.35 -38.2 -10.5 Q-40.05 -4.35 -40.05 -2.65 -40.05 0.0 -37.05 13.0 L-35.4 15.75 Q-33.35 18.4 -31.05 18.0 L-13.55 18.95 3.65 20.65 14.1 20.9 23.3 20.65 30.2 16.85 Q36.35 13.2 37.65 13.0 L38.95 7.0 Q39.65 1.65 39.65 -4.35 L39.35 -12.2 Q39.1 -15.85 39.3 -16.35 L40.1 -20.7 30.05 -20.9 Z" fill="none" stroke="#000000" stroke-linecap="butt" stroke-linejoin="miter-clip" stroke-miterlimit="10.0" stroke-width="1.0"/>
    <path d="M1.95 -10.35 Q4.9 -10.75 5.55 1.9 5.9 8.25 5.65 14.65 3.65 14.0 3.65 12.65 L3.25 7.1 Q2.9 1.85 3.3 -1.0 3.65 -3.45 2.25 -7.3 1.2 -10.25 1.95 -10.35" fill="#000000" fill-opacity="0.2" fill-rule="evenodd" stroke="none"/>
    <path d="M19.3 -14.35 Q19.7 -15.4 20.55 -15.3 L21.3 -15.0 21.3 -5.35 23.65 -4.15 Q26.45 -3.0 28.95 -3.0 32.95 -3.0 39.65 -4.35 L27.65 -1.0 24.2 -1.05 Q21.35 -1.2 20.95 -0.65 20.55 0.0 20.7 6.75 L20.95 13.35 Q19.65 9.65 19.65 8.65 L19.45 2.35 18.95 -5.65 Q18.75 -7.75 19.0 -11.25 L19.3 -14.35" fill="#000000" fill-opacity="0.2" fill-rule="evenodd" stroke="none"/>
    <path d="M-23.35 -13.0 L-21.95 -12.4 Q-20.45 -11.45 -20.05 -10.0 -19.35 -7.65 -18.7 11.0 L-21.35 -6.0 -22.55 -1.8 Q-23.85 2.95 -24.05 5.65 -24.25 8.3 -23.65 11.1 L-23.05 14.0 Q-23.05 14.7 -24.3 11.75 L-26.05 7.0 Q-26.4 5.65 -24.95 -3.0 L-23.35 -13.0" fill="#000000" fill-opacity="0.2" fill-rule="evenodd" stroke="none"/>
  </g>
</svg>
