<?xml version="1.0" encoding="UTF-8" standalone="no"?>
<svg xmlns:xlink="http://www.w3.org/1999/xlink" height="121.65px" width="294.4px" xmlns="http://www.w3.org/2000/svg">
  <g transform="matrix(1.0, 0.0, 0.0, 1.0, 147.2, 60.65)">
    <path d="M-139.05 -14.35 L-139.1 -14.35 -139.3 -16.55 -139.05 -14.35 -139.3 -16.55 -141.25 -35.55 -38.0 -60.05 -38.0 -5.8 106.95 -5.8 135.35 16.35 -38.0 16.35 -55.1 16.35 -55.1 -23.55 -103.65 -14.35 -139.05 -14.35 M-38.0 -5.8 L-38.0 16.35 -38.0 -5.8" fill="#000000" fill-opacity="0.2" fill-rule="evenodd" stroke="none"/>
    <path d="M135.35 16.35 L135.4 16.35 146.7 25.1 142.85 60.1 -142.6 60.1 -146.7 25.1 -136.2 16.35 -135.85 16.35 -139.05 -14.35 -103.65 -14.35 -55.1 -23.55 -55.1 16.35 -38.0 16.35 135.35 16.35 M-55.1 16.35 L-135.85 16.35 -55.1 16.35 M3.35 28.95 Q72.6 28.4 140.5 27.2 L-141.25 26.75 Q-134.95 30.1 3.35 28.95 M146.7 25.1 L-146.7 25.1 146.7 25.1" fill="#ffffff" fill-opacity="0.0" fill-rule="evenodd" stroke="none"/>
    <path d="M3.35 28.95 Q-134.95 30.1 -141.25 26.75 L140.5 27.2 Q72.6 28.4 3.35 28.95" fill="#ffffff" fill-opacity="0.6" fill-rule="evenodd" stroke="none"/>
    <path d="M-139.05 -14.35 L-139.3 -16.55 -141.25 -35.55 -38.0 -60.05 -38.0 -5.8 106.95 -5.8 135.35 16.35 M135.4 16.35 L146.7 25.1 142.85 60.1 -142.6 60.1 -146.7 25.1 -136.2 16.35 M-135.85 16.35 L-139.05 -14.35" fill="none" stroke="#000000" stroke-linecap="butt" stroke-linejoin="miter-clip" stroke-miterlimit="10.0" stroke-width="1.0"/>
    <path d="M135.35 16.35 L135.4 16.35 M-136.2 16.35 L-135.85 16.35 -55.1 16.35 -38.0 16.35 -38.0 -5.8 M-146.7 25.1 L146.7 25.1 M135.35 16.35 L-38.0 16.35" fill="none" stroke="#000000" stroke-linecap="butt" stroke-linejoin="miter-clip" stroke-miterlimit="10.0" stroke-opacity="0.6" stroke-width="1.0"/>
  </g>
</svg>
