<?xml version="1.0" encoding="UTF-8" standalone="no"?>
<svg xmlns:xlink="http://www.w3.org/1999/xlink" height="191.3px" width="162.05px" xmlns="http://www.w3.org/2000/svg">
  <g transform="matrix(1.0, 0.0, 0.0, 1.0, 81.05, 95.65)">
    <path d="M80.5 -95.15 L78.6 -85.5 23.2 -85.5 25.55 -95.15 80.5 -95.15 M76.4 -74.6 L74.5 -64.95 13.85 -64.95 19.6 -71.1 20.5 -74.6 76.4 -74.6 M21.55 -85.5 L18.2 -85.5 21.55 -95.15 24.7 -95.15 21.55 -85.5 M14.55 -74.6 L17.95 -74.6 17.0 -71.5 11.4 -64.95 8.0 -64.95 13.3 -71.1 14.55 -74.6 M2.1 -54.0 L-6.1 -44.4 -10.15 -44.4 -1.65 -54.0 2.1 -54.0 M-5.6 -44.4 L3.5 -54.0 72.2 -54.0 70.3 -44.4 -5.6 -44.4 M52.85 0.65 Q38.25 36.8 37.8 56.65 37.55 72.85 46.5 83.8 52.45 91.15 61.6 95.15 L-75.5 95.15 -80.55 29.8 Q-76.8 15.3 -67.0 0.65 L-63.75 0.65 Q-72.85 13.8 -78.8 29.1 L-74.2 20.9 Q-68.05 10.65 -60.7 0.65 L52.85 0.65" fill="#ffffff" fill-opacity="0.0" fill-rule="evenodd" stroke="none"/>
    <path d="M25.55 -95.15 L23.2 -85.5 21.55 -85.5 24.7 -95.15 25.55 -95.15 M20.5 -74.6 L19.6 -71.1 13.85 -64.95 11.4 -64.95 17.0 -71.5 17.95 -74.6 20.5 -74.6 M2.1 -54.0 L3.5 -54.0 -5.6 -44.4 -6.1 -44.4 2.1 -54.0 M-60.7 0.65 Q-68.05 10.65 -74.2 20.9 L-78.8 29.1 Q-72.85 13.8 -63.75 0.65 L-60.7 0.65" fill="#fefefe" fill-opacity="0.6" fill-rule="evenodd" stroke="none"/>
    <path d="M78.6 -85.5 L80.5 -95.15 M74.5 -64.95 L76.4 -74.6 M18.2 -85.5 L21.55 -95.15 M24.7 -95.15 L25.55 -95.15 M14.55 -74.6 L13.3 -71.1 8.0 -64.95 M72.2 -54.0 L70.3 -44.4 M61.6 95.15 Q52.45 91.15 46.5 83.8 37.55 72.85 37.8 56.65 38.25 36.8 52.85 0.65 M-67.0 0.65 Q-76.8 15.3 -80.55 29.8 L-75.5 95.15 M-1.65 -54.0 L-10.15 -44.4" fill="none" stroke="#000000" stroke-linecap="butt" stroke-linejoin="miter-clip" stroke-miterlimit="10.0" stroke-width="1.0"/>
    <path d="M80.5 -95.15 L25.55 -95.15 M23.2 -85.5 L78.6 -85.5 M76.4 -74.6 L20.5 -74.6 M13.85 -64.95 L74.5 -64.95 M21.55 -85.5 L18.2 -85.5 M21.55 -95.15 L24.7 -95.15 M17.95 -74.6 L14.55 -74.6 M8.0 -64.95 L11.4 -64.95 M3.5 -54.0 L72.2 -54.0 M70.3 -44.4 L-5.6 -44.4 M52.85 0.65 L-60.7 0.65 M-63.75 0.65 L-67.0 0.65 M-75.5 95.15 L61.6 95.15 M-10.15 -44.4 L-6.1 -44.4 M2.1 -54.0 L-1.65 -54.0" fill="none" stroke="#000000" stroke-linecap="butt" stroke-linejoin="miter-clip" stroke-miterlimit="10.0" stroke-opacity="0.6" stroke-width="1.0"/>
  </g>
</svg>
