<?xml version="1.0" encoding="UTF-8" standalone="no"?>
<svg xmlns:xlink="http://www.w3.org/1999/xlink" height="169.6px" width="147.0px" xmlns="http://www.w3.org/2000/svg">
  <g transform="matrix(1.0, 0.0, 0.0, 1.0, 73.45, 84.8)">
    <path d="M57.65 -84.3 L65.3 -80.2 69.3 -63.75 Q73.25 -45.35 72.9 -35.85 72.35 -23.05 57.15 10.8 40.5 47.65 23.9 67.95 18.05 73.35 14.6 76.1 16.65 80.3 18.05 84.3 L-72.95 84.3 Q-72.25 72.3 -66.15 65.15 -63.0 61.55 -60.1 60.4 L-32.2 60.7 2.3 62.15 Q6.15 62.95 10.15 68.45 L9.9 66.8 Q8.15 53.7 11.05 43.45 13.15 36.0 27.05 16.75 40.6 -1.95 43.15 -12.55 42.55 -17.0 42.9 -22.7 43.4 -34.1 47.8 -39.95 54.1 -48.35 57.75 -61.75 62.15 -77.15 57.65 -84.3 M45.4 -25.25 Q44.65 -18.85 45.75 -11.7 45.75 -15.55 46.2 -20.25 47.15 -29.7 49.55 -34.1 53.3 -41.1 57.4 -50.7 L48.9 -36.45 Q46.2 -32.0 45.4 -25.25 M12.25 49.4 Q10.25 60.75 13.05 70.55 12.35 65.4 12.8 58.4 13.75 44.3 19.8 35.05 29.4 20.15 42.25 -1.7 L17.75 34.15 Q13.9 39.75 12.25 49.4 M10.15 68.45 Q11.8 70.75 13.5 73.9 L14.6 76.1 13.5 73.9 Q11.8 70.75 10.15 68.45 M-68.7 74.4 Q-69.9 78.45 -69.75 81.7 -67.2 72.6 -62.55 68.2 -60.2 66.0 -58.35 65.65 L0.55 64.45 -59.25 63.05 Q-66.15 66.45 -68.7 74.4" fill="#ffffff" fill-opacity="0.0" fill-rule="evenodd" stroke="none"/>
    <path d="M12.25 49.4 Q13.9 39.75 17.75 34.15 L42.25 -1.7 Q29.4 20.15 19.8 35.05 13.75 44.3 12.8 58.4 12.35 65.4 13.05 70.55 10.25 60.75 12.25 49.4 M45.4 -25.25 Q46.2 -32.0 48.9 -36.45 L57.4 -50.7 Q53.3 -41.1 49.55 -34.1 47.15 -29.7 46.2 -20.25 45.75 -15.55 45.75 -11.7 44.65 -18.85 45.4 -25.25 M-68.7 74.4 Q-66.15 66.45 -59.25 63.05 L0.55 64.45 -58.35 65.65 Q-60.2 66.0 -62.55 68.2 -67.2 72.6 -69.75 81.7 -69.9 78.45 -68.7 74.4" fill="#ffffff" fill-opacity="0.6" fill-rule="evenodd" stroke="none"/>
    <path d="M57.65 -84.3 L65.3 -80.2 69.3 -63.75 Q73.25 -45.35 72.9 -35.85 72.35 -23.05 57.15 10.8 40.5 47.65 23.9 67.95 18.05 73.35 14.6 76.1 16.65 80.3 18.05 84.3 L-72.95 84.3" fill="none" stroke="#000000" stroke-linecap="butt" stroke-linejoin="miter-clip" stroke-miterlimit="10.0" stroke-width="1.0"/>
    <path d="M-72.95 84.3 Q-72.25 72.3 -66.15 65.15 -63.0 61.55 -60.1 60.4 L-32.2 60.7 2.3 62.15 Q6.15 62.95 10.15 68.45 L9.9 66.8 Q8.15 53.7 11.05 43.45 13.15 36.0 27.05 16.75 40.6 -1.95 43.15 -12.55 42.55 -17.0 42.9 -22.7 43.4 -34.1 47.8 -39.95 54.1 -48.35 57.75 -61.75 62.15 -77.15 57.65 -84.3 M14.6 76.1 L13.5 73.9 Q11.8 70.75 10.15 68.45" fill="none" stroke="#000000" stroke-linecap="butt" stroke-linejoin="miter-clip" stroke-miterlimit="10.0" stroke-opacity="0.6" stroke-width="1.0"/>
  </g>
</svg>
