<?xml version="1.0" encoding="UTF-8" standalone="no"?>
<svg xmlns:xlink="http://www.w3.org/1999/xlink" height="5.5px" width="14.35px" xmlns="http://www.w3.org/2000/svg">
  <g transform="matrix(1.0, 0.0, 0.0, 1.0, 7.15, 2.75)">
    <path d="M3.1 0.3 Q4.65 -0.6 6.55 1.0 6.0 1.85 5.15 2.35 3.45 3.35 1.9 1.55 L3.1 0.3" fill="#000000" fill-opacity="0.4" fill-rule="evenodd" stroke="none"/>
    <path d="M1.8 1.7 L2.9 0.65 Q4.3 -0.15 5.9 1.35 L4.65 2.5 Q3.1 3.3 1.8 1.7" fill="#ffffff" fill-rule="evenodd" stroke="none"/>
    <path d="M-2.5 1.55 Q-4.05 3.35 -5.75 2.35 L-7.15 1.0 Q-5.25 -0.6 -3.7 0.3 -2.9 0.75 -2.5 1.55" fill="#000000" fill-opacity="0.4" fill-rule="evenodd" stroke="none"/>
    <path d="M-2.4 1.7 Q-3.7 3.3 -5.25 2.5 L-6.5 1.35 Q-4.85 -0.15 -3.45 0.65 -2.75 1.0 -2.4 1.7" fill="#ffffff" fill-rule="evenodd" stroke="none"/>
    <path d="M4.95 -2.75 Q6.4 -2.55 7.2 -1.9 6.95 -1.65 6.4 -1.65 L5.35 -2.1 Q4.2 -2.4 1.4 -1.55 L2.65 -2.2 Q4.1 -2.85 4.95 -2.75" fill="#000000" fill-opacity="0.4" fill-rule="evenodd" stroke="none"/>
    <path d="M-4.85 -2.2 L-4.45 -2.6 Q-3.2 -2.35 -1.85 -1.5 L-4.9 -2.1 -4.85 -2.2" fill="#000000" fill-opacity="0.4" fill-rule="evenodd" stroke="none"/>
  </g>
</svg>
