<?xml version="1.0" encoding="UTF-8" standalone="no"?>
<svg xmlns:xlink="http://www.w3.org/1999/xlink" height="16.7px" width="30.85px" xmlns="http://www.w3.org/2000/svg">
  <g transform="matrix(1.0, 0.0, 0.0, 1.0, 16.45, 7.05)">
    <path d="M11.45 -5.9 Q14.2 -6.35 13.85 -1.45 13.5 3.0 11.8 5.35 10.05 7.7 0.25 1.95 -1.35 0.95 -4.4 3.1 -7.85 5.5 -10.6 5.1 -13.0 4.75 -13.7 0.4 -14.4 -4.05 -11.95 -5.55 -9.85 -6.85 -4.75 -4.6 -2.2 -3.5 -0.1 -2.15 L4.15 -3.75 11.45 -5.9" fill="#ffffff" fill-opacity="0.0" fill-rule="evenodd" stroke="none"/>
    <path d="M11.45 -5.9 Q14.2 -6.35 13.85 -1.45 13.5 3.0 11.8 5.35 10.05 7.7 0.25 1.95 -1.35 0.95 -4.4 3.1 -7.85 5.5 -10.6 5.1 -11.95 4.9 -12.85 3.05 L-8.7 2.9 Q-7.2 2.4 -4.3 0.4 -1.6 -1.15 0.5 -0.3 L3.4 1.2 Q5.05 2.1 6.45 2.35 8.65 2.7 9.7 1.4 10.75 0.05 8.2 -0.55 8.55 -1.2 9.6 -1.6 L11.1 -2.45 Q11.45 -2.95 11.35 -4.1 11.25 -5.4 11.4 -5.85 L11.45 -5.9" fill="#000000" fill-opacity="0.2" fill-rule="evenodd" stroke="none"/>
    <path d="M11.45 -5.9 L4.15 -3.75 -0.1 -2.15 Q-2.2 -3.5 -4.75 -4.6 -9.85 -6.85 -11.95 -5.55 -14.4 -4.05 -13.7 0.4 -13.0 4.75 -10.6 5.1 -7.85 5.5 -4.4 3.1 -1.35 0.95 0.25 1.95 10.05 7.7 11.8 5.35 13.5 3.0 13.85 -1.45 14.2 -6.35 11.45 -5.9 Z" fill="none" stroke="#000000" stroke-linecap="butt" stroke-linejoin="miter-clip" stroke-miterlimit="10.0" stroke-opacity="0.6" stroke-width="1.0"/>
  </g>
</svg>
