<?xml version="1.0" encoding="UTF-8" standalone="no"?>
<svg xmlns:xlink="http://www.w3.org/1999/xlink" height="82.15px" width="101.0px" xmlns="http://www.w3.org/2000/svg">
  <g transform="matrix(1.0, 0.0, 0.0, 1.0, 50.5, 41.05)">
    <path d="M-49.85 -38.75 L-35.35 -37.75 Q-20.65 -37.25 0.0 -37.25 20.65 -37.25 35.35 -37.75 L49.95 -38.8 35.35 -37.75 Q20.65 -37.25 0.0 -37.25 -20.65 -37.25 -35.35 -37.75 L-49.85 -38.75 -50.0 -38.9 -49.85 -39.0 -48.25 -39.35 -49.85 -39.0 -49.9 -39.35 -48.25 -39.35 -35.35 -40.05 Q-20.65 -40.55 0.0 -40.55 20.65 -40.55 35.35 -40.05 L48.3 -39.35 50.0 -39.35 49.95 -38.95 50.0 -38.9 49.95 -38.8 42.45 29.35 Q42.35 32.35 37.0 35.25 26.25 41.1 0.05 40.55 -26.15 41.1 -36.85 35.25 -40.2 33.45 -41.55 31.2 L-42.3 29.35 -49.85 -38.75 M48.3 -39.35 L49.95 -38.95 48.3 -39.35" fill="#ffffff" fill-opacity="0.0" fill-rule="evenodd" stroke="none"/>
    <path d="M49.95 -38.8 L35.35 -37.75 Q20.65 -37.25 0.0 -37.25 -20.65 -37.25 -35.35 -37.75 L-49.85 -38.75" fill="none" stroke="#000000" stroke-linecap="round" stroke-linejoin="miter-clip" stroke-miterlimit="10.0" stroke-opacity="0.6" stroke-width="1.0"/>
    <path d="M-49.85 -38.75 L-42.3 29.35 -41.55 31.2 Q-40.2 33.45 -36.85 35.25 -26.15 41.1 0.05 40.55 26.25 41.1 37.0 35.25 42.35 32.35 42.45 29.35 L49.95 -38.8 50.0 -38.9 49.95 -38.95 48.3 -39.35 35.35 -40.05 Q20.65 -40.55 0.0 -40.55 -20.65 -40.55 -35.35 -40.05 L-48.25 -39.35 -49.85 -39.0 -50.0 -38.9 -49.85 -38.75 M48.3 -39.35 L50.0 -39.35 49.95 -38.95 M-49.85 -39.0 L-49.9 -39.35 -48.25 -39.35" fill="none" stroke="#000000" stroke-linecap="round" stroke-linejoin="miter-clip" stroke-miterlimit="10.0" stroke-width="1.0"/>
  </g>
</svg>
