<?xml version="1.0" encoding="UTF-8" standalone="no"?>
<svg xmlns:xlink="http://www.w3.org/1999/xlink" height="22.5px" width="22.5px" xmlns="http://www.w3.org/2000/svg">
  <g transform="matrix(1.0, 0.0, 0.0, 1.0, 11.25, 11.25)">
    <path d="M10.75 0.0 Q10.75 4.45 7.6 7.6 4.45 10.75 0.0 10.75 -4.45 10.75 -7.6 7.6 -10.75 4.45 -10.75 0.0 -10.75 -4.45 -7.6 -7.6 -4.45 -10.75 0.0 -10.75 4.45 -10.75 7.6 -7.6 10.75 -4.45 10.75 0.0" fill="#ffffff" fill-opacity="0.0" fill-rule="evenodd" stroke="none"/>
    <path d="M10.75 0.0 Q10.75 4.45 7.6 7.6 4.45 10.75 0.0 10.75 -4.45 10.75 -7.6 7.6 -10.75 4.45 -10.75 0.0 -10.75 -4.45 -7.6 -7.6 -4.45 -10.75 0.0 -10.75 4.45 -10.75 7.6 -7.6 10.75 -4.45 10.75 0.0 Z" fill="none" stroke="#000000" stroke-linecap="butt" stroke-linejoin="miter-clip" stroke-miterlimit="10.0" stroke-width="1.0"/>
    <path d="M5.1 -5.25 Q5.1 -4.35 3.9 -3.7 2.7 -3.1 1.0 -3.1 -0.7 -3.1 -1.85 -3.7 -3.05 -4.35 -3.05 -5.25 -3.05 -6.1 -1.85 -6.75 -0.7 -7.35 1.0 -7.35 2.7 -7.35 3.9 -6.75 5.1 -6.1 5.1 -5.25" fill="#ffffff" fill-opacity="0.6" fill-rule="evenodd" stroke="none"/>
  </g>
</svg>
