<?xml version="1.0" encoding="UTF-8" standalone="no"?>
<svg xmlns:xlink="http://www.w3.org/1999/xlink" height="15.65px" width="18.35px" xmlns="http://www.w3.org/2000/svg">
  <g transform="matrix(1.0, 0.0, 0.0, 1.0, 9.15, 7.75)">
    <path d="M-5.15 -4.3 L-5.4 -4.7 -5.2 -5.75 4.75 -5.45 Q4.4 -4.45 3.2 -3.9 L-5.15 -4.3 M8.3 -6.95 L8.7 -3.65 Q6.75 -0.05 3.45 0.8 L1.35 1.05 0.55 0.95 -4.15 7.25 -5.75 6.35 -5.6 6.3 -0.5 -0.95 3.0 -1.45 Q5.5 -1.85 7.15 -4.45 L8.3 -6.95 M-5.8 0.6 Q-7.4 -0.05 -7.8 -2.0 L-7.85 -2.95 -7.3 -2.3 Q-6.3 -1.4 -4.7 -1.15 L-5.8 0.6" fill="#000000" fill-opacity="0.2" fill-rule="evenodd" stroke="none"/>
    <path d="M-5.15 -4.3 Q-4.5 -3.45 -2.1 -3.25 L1.0 -3.35 3.2 -3.9 Q4.4 -4.45 4.75 -5.45 L-5.2 -5.75 -5.4 -4.7 -5.15 -4.3 M8.3 -6.95 L7.15 -4.45 Q5.5 -1.85 3.0 -1.45 L-0.5 -0.95 -5.6 6.3 -5.75 6.35 -7.35 6.2 Q-9.0 5.9 -8.55 4.75 L-5.8 0.6 -4.7 -1.15 Q-6.3 -1.4 -7.3 -2.3 L-7.85 -2.95 Q-8.8 -4.6 -6.35 -7.25 L8.3 -6.95" fill="#ffffff" fill-opacity="0.0" fill-rule="evenodd" stroke="none"/>
    <path d="M3.2 -3.9 L1.0 -3.35 -2.1 -3.25 Q-4.5 -3.45 -5.15 -4.3 L3.2 -3.9 M-5.75 6.35 L-4.15 7.25 0.55 0.95 1.35 1.05 3.45 0.8 Q6.75 -0.05 8.7 -3.65 L8.3 -6.95 -6.35 -7.25 Q-8.8 -4.6 -7.85 -2.95 L-7.8 -2.0 Q-7.4 -0.05 -5.8 0.6 L-8.55 4.75 Q-9.0 5.9 -7.35 6.2 L-5.75 6.35" fill="none" stroke="#000000" stroke-linecap="round" stroke-linejoin="miter-clip" stroke-miterlimit="10.0" stroke-width="1.0"/>
    <path d="M-5.15 -4.3 L-5.4 -4.7" fill="none" stroke="#000000" stroke-linecap="round" stroke-linejoin="miter-clip" stroke-miterlimit="10.0" stroke-width="1.0"/>
    <path d="M-5.4 -4.7 L-5.2 -5.75 4.75 -5.45 Q4.4 -4.45 3.2 -3.9" fill="none" stroke="#000000" stroke-linecap="butt" stroke-linejoin="miter-clip" stroke-miterlimit="10.0" stroke-opacity="0.6" stroke-width="1.0"/>
    <path d="M8.3 -6.95 L7.15 -4.45 Q5.5 -1.85 3.0 -1.45 L-0.5 -0.95 -5.6 6.3" fill="none" stroke="#000000" stroke-linecap="round" stroke-linejoin="miter-clip" stroke-miterlimit="10.0" stroke-opacity="0.6" stroke-width="1.0"/>
    <path d="M-5.6 6.3 L-5.75 6.35" fill="none" stroke="#000000" stroke-linecap="butt" stroke-linejoin="miter-clip" stroke-miterlimit="10.0" stroke-width="1.0"/>
    <path d="M-5.8 0.6 L-4.7 -1.15 Q-6.3 -1.4 -7.3 -2.3 L-7.85 -2.95" fill="none" stroke="#000000" stroke-linecap="round" stroke-linejoin="miter-clip" stroke-miterlimit="10.0" stroke-opacity="0.6" stroke-width="1.0"/>
  </g>
</svg>
