<?xml version="1.0" encoding="UTF-8" standalone="no"?>
<svg xmlns:xlink="http://www.w3.org/1999/xlink" height="548.65px" width="2607.45px" xmlns="http://www.w3.org/2000/svg">
  <g transform="matrix(1.0, 0.0, 0.0, 1.0, 1303.7, 274.3)">
    <path d="M-625.25 27.6 Q-607.25 69.6 -575.75 152.85 -545.75 222.6 -508.25 260.85 -719.75 236.85 -938.75 185.1 -839.75 164.85 -872.75 155.1 -925.25 134.85 -967.25 119.85 -1046.0 91.35 -1142.75 72.6 -1281.5 46.35 -1301.0 8.85 -1324.25 -36.15 -1146.5 -77.4 -952.25 -122.4 -808.25 -93.9 -664.25 -64.65 -625.25 27.6" fill="#ffffff" fill-opacity="0.0" fill-rule="evenodd" stroke="none"/>
    <path d="M1303.75 -82.65 Q1297.0 -48.15 1242.25 -24.9 1083.25 40.35 926.5 93.6 680.5 176.1 514.75 200.1 386.5 223.35 297.25 237.6 130.0 265.35 -22.25 274.35 223.0 234.6 394.75 140.1 631.0 3.6 713.5 -39.15 842.5 -105.9 919.75 -103.65 962.5 -102.15 1120.75 -91.65 1262.5 -81.9 1303.75 -82.65" fill="#ffffff" fill-opacity="0.0" fill-rule="evenodd" stroke="none"/>
    <path d="M748.0 -273.15 Q804.25 -277.65 904.75 -264.9 975.25 -255.9 1003.0 -209.4 1030.75 -161.4 946.0 -156.15 871.0 -151.65 788.5 -183.15 L721.0 -216.15 Q664.75 -264.9 748.0 -273.15" fill="#ffffff" fill-opacity="0.0" fill-rule="evenodd" stroke="none"/>
  </g>
</svg>
