<?xml version="1.0" encoding="UTF-8" standalone="no"?>
<svg xmlns:xlink="http://www.w3.org/1999/xlink" height="24.9px" width="32.8px" xmlns="http://www.w3.org/2000/svg">
  <g transform="matrix(1.0, 0.0, 0.0, 1.0, 15.3, 11.8)">
    <path d="M6.8 -6.0 L8.55 -5.65 Q9.9 -5.2 9.95 -4.65 L9.85 -2.95 9.65 -1.55 9.65 -0.2 Q9.7 0.75 9.95 0.8 L10.2 -0.7 Q10.3 -2.3 10.7 -2.4 L11.95 -2.5 13.25 -2.0 14.2 -1.0 Q14.6 -0.4 14.4 -0.05 L13.75 1.2 13.15 2.35 Q12.95 2.6 13.1 3.15 L13.6 4.2 14.45 5.3 Q14.9 6.05 14.8 6.45 L13.9 7.5 Q13.05 8.05 12.15 8.0 11.6 7.95 10.35 8.55 L8.25 8.9 Q7.3 8.7 6.5 7.15 L6.0 6.05 5.5 5.45 4.35 4.3 Q3.55 3.3 3.15 3.3 L1.85 3.4 0.75 3.7 Q0.15 3.9 -1.6 4.75 -3.6 5.75 -3.8 6.1 L-4.05 7.1 Q-4.1 7.8 -4.4 8.05 L-5.15 8.95 Q-5.6 9.5 -5.9 9.15 -6.2 8.75 -6.05 7.75 L-5.85 6.8 -7.85 7.45 -10.8 8.0 Q-11.6 7.85 -12.2 6.75 L-13.0 5.05 Q-13.2 4.8 -13.45 4.7 L-13.85 4.65 Q-14.35 4.6 -14.5 3.8 L-14.75 1.9 Q-14.75 1.0 -14.35 0.65 -13.95 0.3 -13.0 -0.15 L-11.8 -0.6 -10.65 -0.8 -9.0 -0.8 -9.85 -1.15 Q-10.8 -1.6 -11.2 -2.15 -11.7 -2.8 -12.0 -3.8 -12.3 -4.8 -12.05 -5.15 -11.1 -6.5 -10.3 -6.75 L-9.1 -6.75 -8.5 -6.55 -7.7 -6.25 Q-6.9 -5.85 -7.0 -5.4 -7.1 -4.9 -6.5 -3.55 -5.9 -2.2 -5.55 -2.1 L-4.3 -2.05 -3.35 -2.25 -3.45 -3.0 Q-3.6 -3.6 -3.9 -3.9 L-4.8 -4.85 -5.9 -6.05 -6.8 -7.2 Q-7.05 -7.9 -6.5 -8.3 L-5.5 -9.1 -4.45 -9.3 -3.1 -8.95 -1.9 -8.35 -0.85 -7.5 -0.1 -6.7 0.05 -5.4 0.25 -4.05 1.0 -3.15 1.9 -2.35 Q2.55 -2.0 3.5 -1.6 4.85 -1.1 5.25 -1.2 5.7 -1.35 5.75 -2.05 L5.5 -3.0 5.0 -4.0 Q4.8 -4.75 5.2 -5.0 L6.05 -5.65 6.8 -6.0" fill="#ffffff" fill-opacity="0.0" fill-rule="evenodd" stroke="none"/>
    <path d="M-5.9 -6.05 L-6.8 -7.2 Q-7.05 -7.9 -6.5 -8.3 L-5.9 -8.8 -5.4 -9.15 -5.05 -7.9 -4.55 -7.3 -3.95 -6.7 -3.4 -5.95 -2.8 -5.25 Q-1.75 -4.2 -1.75 -3.0 -1.75 -2.6 -1.95 -2.5 L-2.5 -2.35 -3.05 -2.25 -3.55 -2.15 -3.35 -2.25 -3.45 -3.0 Q-3.6 -3.6 -3.9 -3.9 L-4.8 -4.85 -5.9 -6.05" fill="#000000" fill-opacity="0.09803922" fill-rule="evenodd" stroke="none"/>
    <path d="M7.3 4.1 L7.75 3.9 8.25 3.85 8.9 4.75 9.05 5.4 9.15 6.05 9.35 7.45 9.6 8.8 8.25 8.9 Q7.3 8.7 6.5 7.15 L6.0 6.05 5.5 5.45 4.35 4.3 Q3.55 3.3 3.15 3.3 L1.85 3.4 0.75 3.7 Q0.15 3.9 -1.6 4.75 -3.6 5.75 -3.8 6.1 L-4.05 7.1 Q-4.1 7.8 -4.4 8.05 L-5.15 8.95 Q-5.6 9.5 -5.9 9.15 -6.2 8.75 -6.05 7.75 L-5.85 6.8 -7.85 7.45 -10.8 8.0 Q-11.6 7.85 -12.2 6.75 L-13.0 5.05 Q-13.2 4.8 -13.45 4.7 L-13.85 4.65 Q-14.35 4.6 -14.5 3.8 L-14.6 3.35 -13.9 4.05 Q-13.5 4.1 -13.15 3.6 L-12.5 2.9 -12.55 3.75 -12.4 4.6 -11.8 5.35 -11.15 6.05 -10.95 6.45 -10.65 6.75 -10.1 6.7 -9.5 6.5 -8.65 6.2 Q-8.4 5.95 -8.5 5.35 -8.05 5.85 -7.35 5.65 L-6.1 5.2 -5.5 4.85 Q-5.25 4.6 -5.3 4.2 L-5.45 3.6 -5.1 3.15 -4.8 3.6 -4.35 4.0 -3.7 4.05 -3.15 3.7 -2.15 2.7 Q-1.55 2.1 -1.05 2.0 L0.4 1.6 1.95 1.4 3.5 1.6 3.95 1.65 4.25 1.35 4.55 2.0 5.1 2.4 5.7 2.85 6.25 3.4 6.75 3.85 7.3 4.1" fill="#000000" fill-opacity="0.09803922" fill-rule="evenodd" stroke="none"/>
    <path d="M-12.0 -3.8 Q-12.3 -4.8 -12.05 -5.15 L-10.9 -6.45 Q-11.55 -5.55 -11.25 -4.75 L-10.35 -3.45 -9.75 -2.75 -9.1 -2.1 -8.5 -1.5 -8.1 -0.75 -10.05 -0.85 -9.0 -0.8 -9.85 -1.15 Q-10.8 -1.6 -11.2 -2.15 -11.7 -2.8 -12.0 -3.8" fill="#000000" fill-opacity="0.09803922" fill-rule="evenodd" stroke="none"/>
    <path d="M14.8 6.45 L13.9 7.5 Q13.05 8.05 12.15 8.0 11.6 7.95 10.35 8.55 L8.25 8.9 8.2 8.9 7.45 8.25 7.15 7.45 7.3 6.6 Q7.45 6.1 8.15 5.65 L9.25 4.9 Q10.25 4.05 11.65 4.25 12.8 4.4 14.1 5.2 L14.7 5.75 14.8 6.45" fill="#ffffff" fill-opacity="0.4" fill-rule="evenodd" stroke="none"/>
    <path d="M-10.45 0.9 L-10.25 0.05 -9.95 -0.5 -10.0 0.15 -10.05 1.55 -9.75 2.6 -9.45 2.9 -9.1 3.8 -8.55 4.95 -6.6 6.75 -7.65 6.25 -8.2 5.8 -8.7 5.2 -9.3 3.7 -9.55 3.15 -10.05 2.55 -10.4 1.7 -10.45 0.9" fill="#000000" fill-opacity="0.2" fill-rule="evenodd" stroke="none"/>
    <path d="M-10.7 -2.25 L-10.8 -2.9 -10.7 -4.0 -10.25 -4.9 -9.85 -5.4 -8.65 -5.5 -7.55 -5.5 -8.55 -5.4 -9.8 -5.15 -10.4 -4.05 Q-10.75 -3.0 -10.7 -2.25" fill="#000000" fill-opacity="0.2" fill-rule="evenodd" stroke="none"/>
    <path d="M-6.8 -3.55 L-7.35 -3.35 Q-8.0 -3.1 -8.3 -2.85 L-8.9 -1.9 -9.1 -1.3 -8.9 -2.05 -8.4 -3.15 -7.45 -3.5 -6.8 -3.55" fill="#000000" fill-opacity="0.2" fill-rule="evenodd" stroke="none"/>
    <path d="M-5.8 -1.2 L-5.8 -0.7 -5.55 0.15 -5.25 0.75 -4.8 1.55 Q-4.65 1.75 -4.45 2.75 L-4.05 4.05 -3.25 4.6 -2.7 4.75 -3.9 4.55 -4.35 4.2 -4.55 3.7 -4.85 2.55 Q-4.9 2.0 -5.9 0.5 -6.25 0.0 -5.9 -1.0 L-5.8 -1.2 -5.6 -1.7 -5.8 -1.2" fill="#000000" fill-opacity="0.2" fill-rule="evenodd" stroke="none"/>
    <path d="M-2.95 -1.8 L-3.35 -2.25 Q-2.65 -2.05 -1.85 -0.45 -1.3 0.6 -1.1 1.35 L-0.9 4.25 -1.15 3.0 -1.5 1.2 -1.8 0.25 -2.3 -0.8 -2.95 -1.8" fill="#000000" fill-opacity="0.2" fill-rule="evenodd" stroke="none"/>
    <path d="M-4.45 -5.65 L-4.55 -6.2 -4.5 -7.1 -4.15 -7.9 -3.75 -8.45 -2.4 -8.45 -3.55 -8.15 -4.2 -7.3 Q-4.6 -6.45 -4.45 -5.65" fill="#000000" fill-opacity="0.2" fill-rule="evenodd" stroke="none"/>
    <path d="M-3.55 -3.85 L-3.1 -4.6 -2.35 -5.4 -1.75 -5.6 -1.2 -5.7 -0.2 -5.65 -2.1 -5.25 -3.0 -4.5 -3.55 -3.85" fill="#000000" fill-opacity="0.2" fill-rule="evenodd" stroke="none"/>
    <path d="M5.7 -3.0 L5.95 -3.6 6.55 -4.25 7.8 -4.35 8.65 -3.85 9.35 -3.3 7.75 -4.1 6.95 -4.05 6.55 -3.95 5.7 -3.0" fill="#000000" fill-opacity="0.2" fill-rule="evenodd" stroke="none"/>
    <path d="M8.05 -2.0 L8.65 -1.65 9.05 -1.25 9.4 0.0 9.2 -0.55 8.45 -1.4 7.35 -1.45 6.75 -1.25 5.75 -0.6 6.05 -1.05 6.6 -1.5 7.35 -1.9 8.05 -2.0" fill="#000000" fill-opacity="0.2" fill-rule="evenodd" stroke="none"/>
    <path d="M2.4 -1.8 L1.9 -2.35 3.9 -0.45 4.1 -0.05 4.35 0.95 Q4.4 1.45 3.9 2.25 L3.4 3.0 3.9 1.85 4.0 1.2 4.0 0.4 3.65 -0.35 3.1 -1.0 2.4 -1.8" fill="#000000" fill-opacity="0.2" fill-rule="evenodd" stroke="none"/>
    <path d="M7.75 2.5 Q8.1 3.3 8.0 4.2 L7.8 5.0 7.7 2.95 7.25 2.0 6.35 0.65 5.35 -0.35 4.85 -0.7 6.3 0.15 6.8 0.85 7.75 2.5" fill="#000000" fill-opacity="0.2" fill-rule="evenodd" stroke="none"/>
    <path d="M10.0 1.25 L10.85 2.75 10.45 4.15 10.45 2.75 10.2 1.8 10.0 1.25" fill="#000000" fill-opacity="0.2" fill-rule="evenodd" stroke="none"/>
    <path d="M10.8 1.0 Q12.15 1.05 12.65 1.85 L12.85 2.65 12.3 1.75 Q12.1 1.5 11.35 1.2 L10.8 1.0" fill="#000000" fill-opacity="0.2" fill-rule="evenodd" stroke="none"/>
    <path d="M13.1 -0.9 L14.05 0.05 12.55 -0.85 11.35 -0.8 10.9 -0.65 Q11.95 -1.6 13.1 -0.9" fill="#000000" fill-opacity="0.2" fill-rule="evenodd" stroke="none"/>
    <path d="M6.8 -6.0 L8.55 -5.65 Q9.9 -5.2 9.95 -4.65 L9.85 -2.95 9.65 -1.55 9.65 -0.2 Q9.7 0.75 9.95 0.8 L10.2 -0.7 Q10.3 -2.3 10.7 -2.4 L11.95 -2.5 13.25 -2.0 14.2 -1.0 Q14.6 -0.4 14.4 -0.05 L13.75 1.2 13.15 2.35 Q12.95 2.6 13.1 3.15 L13.6 4.2 14.45 5.3 Q14.9 6.05 14.8 6.45 L13.9 7.5 Q13.05 8.05 12.15 8.0 11.6 7.95 10.35 8.55 L8.25 8.9 Q7.3 8.7 6.5 7.15 L6.0 6.05 5.5 5.45 4.35 4.3 Q3.55 3.3 3.15 3.3 L1.85 3.4 0.75 3.7 Q0.15 3.9 -1.6 4.75 -3.6 5.75 -3.8 6.1 L-4.05 7.1 Q-4.1 7.8 -4.4 8.05 L-5.15 8.95 Q-5.6 9.5 -5.9 9.15 -6.2 8.75 -6.05 7.75 L-5.85 6.8 -7.85 7.45 -10.8 8.0 Q-11.6 7.85 -12.2 6.75 L-13.0 5.05 Q-13.2 4.8 -13.45 4.7 L-13.85 4.65 Q-14.35 4.6 -14.5 3.8 L-14.75 1.9 Q-14.75 1.0 -14.35 0.65 -13.95 0.3 -13.0 -0.15 L-11.8 -0.6 -10.65 -0.8 -9.0 -0.8 -9.85 -1.15 Q-10.8 -1.6 -11.2 -2.15 -11.7 -2.8 -12.0 -3.8 -12.3 -4.8 -12.05 -5.15 -11.1 -6.5 -10.3 -6.75 L-9.1 -6.75 -8.5 -6.55 -7.7 -6.25 Q-6.9 -5.85 -7.0 -5.4 -7.1 -4.9 -6.5 -3.55 -5.9 -2.2 -5.55 -2.1 L-4.3 -2.05 -3.35 -2.25 -3.45 -3.0 Q-3.6 -3.6 -3.9 -3.9 L-4.8 -4.85 -5.9 -6.05 -6.8 -7.2 Q-7.05 -7.9 -6.5 -8.3 L-5.5 -9.1 -4.45 -9.3 -3.1 -8.95 -1.9 -8.35 -0.85 -7.5 -0.1 -6.7 0.05 -5.4 0.25 -4.05 1.0 -3.15 1.9 -2.35 Q2.55 -2.0 3.5 -1.6 4.85 -1.1 5.25 -1.2 5.7 -1.35 5.75 -2.05 L5.5 -3.0 5.0 -4.0 Q4.8 -4.75 5.2 -5.0 L6.05 -5.65 6.8 -6.0 Z" fill="none" stroke="#000000" stroke-linecap="butt" stroke-linejoin="miter-clip" stroke-miterlimit="10.0" stroke-opacity="0.6" stroke-width="1.0"/>
  </g>
</svg>
