<?xml version="1.0" encoding="UTF-8" standalone="no"?>
<svg xmlns:xlink="http://www.w3.org/1999/xlink" height="15.25px" width="55.0px" xmlns="http://www.w3.org/2000/svg">
  <g transform="matrix(1.0, 0.0, 0.0, 1.0, 26.8, 7.15)">
    <path d="M-26.25 -2.3 Q-26.45 -1.05 -21.55 -0.35 L-15.15 0.4 Q-15.55 1.1 -15.05 1.8 -14.6 2.4 -13.35 3.0 -10.9 4.15 -6.15 4.8 L4.55 5.2 Q10.85 4.95 16.65 3.7 21.75 2.6 24.7 0.55 26.15 -0.45 26.3 -1.4 L26.3 0.45 Q25.85 1.95 22.4 3.4 19.85 4.45 16.65 5.15 10.85 6.4 4.55 6.65 L-6.1 6.2 Q-10.8 5.6 -13.3 4.4 -15.85 3.2 -15.05 1.8 L-20.15 1.25 Q-25.55 0.65 -26.2 -0.45 L-26.3 -2.3 -26.25 -2.3 M-10.9 1.0 L-11.0 0.7 Q-11.0 0.2 -9.75 -0.2 L-6.7 -0.55 -3.65 -0.2 Q-2.4 0.2 -2.4 0.7 L-2.55 1.05 -3.7 0.55 Q-5.6 -0.05 -7.6 0.05 -9.6 0.15 -10.5 0.65 L-10.9 1.0" fill="#000000" fill-opacity="0.2" fill-rule="evenodd" stroke="none"/>
    <path d="M-26.25 -2.3 L-25.85 -2.95 Q-24.95 -3.75 -21.5 -4.65 L-15.75 -5.7 -9.8 -6.2 Q2.75 -7.15 14.25 -6.15 20.0 -5.6 23.4 -4.25 26.6 -2.95 26.3 -1.4 26.15 -0.45 24.7 0.55 21.75 2.6 16.65 3.7 10.85 4.95 4.55 5.2 L-6.15 4.8 Q-10.9 4.15 -13.35 3.0 -14.6 2.4 -15.05 1.8 -15.55 1.1 -15.15 0.4 L-21.55 -0.35 Q-26.45 -1.05 -26.25 -2.3 M8.8 3.95 Q-4.05 5.0 -12.7 2.55 L-10.75 3.2 -4.2 4.35 Q7.15 5.55 20.1 2.35 L8.8 3.95 M-2.55 1.05 L-2.4 0.7 Q-2.4 0.2 -3.65 -0.2 L-6.7 -0.55 -9.75 -0.2 Q-11.0 0.2 -11.0 0.7 L-10.9 1.0 -9.75 1.55 -6.7 1.95 -3.65 1.55 Q-2.85 1.3 -2.55 1.05" fill="#ffffff" fill-opacity="0.0" fill-rule="evenodd" stroke="none"/>
    <path d="M8.8 3.95 L20.1 2.35 Q7.15 5.55 -4.2 4.35 L-10.75 3.2 -12.7 2.55 Q-4.05 5.0 8.8 3.95" fill="#ffffff" fill-opacity="0.4" fill-rule="evenodd" stroke="none"/>
    <path d="M26.3 -1.4 Q26.6 -2.95 23.4 -4.25 20.0 -5.6 14.25 -6.15 2.75 -7.15 -9.8 -6.2 L-15.75 -5.7 -21.5 -4.65 Q-24.95 -3.75 -25.85 -2.95 L-26.25 -2.3 -26.3 -2.3 -26.2 -0.45 Q-25.55 0.65 -20.15 1.25 L-15.05 1.8 Q-15.85 3.2 -13.3 4.4 -10.8 5.6 -6.1 6.2 L4.55 6.65 Q10.85 6.4 16.65 5.15 19.85 4.45 22.4 3.4 25.85 1.95 26.3 0.45 L26.3 -1.4" fill="none" stroke="#000000" stroke-linecap="butt" stroke-linejoin="miter-clip" stroke-miterlimit="10.0" stroke-width="1.0"/>
    <path d="M-26.25 -2.3 Q-26.45 -1.05 -21.55 -0.35 L-15.15 0.4 Q-15.55 1.1 -15.05 1.8 -14.6 2.4 -13.35 3.0 -10.9 4.15 -6.15 4.8 L4.55 5.2 Q10.85 4.95 16.65 3.7 21.75 2.6 24.7 0.55 26.15 -0.45 26.3 -1.4 M-10.9 1.0 L-11.0 0.7 Q-11.0 0.2 -9.75 -0.2 L-6.7 -0.55 -3.65 -0.2 Q-2.4 0.2 -2.4 0.7 L-2.55 1.05 Q-2.85 1.3 -3.65 1.55 L-6.7 1.95 -9.75 1.55 -10.9 1.0 -10.5 0.65 Q-9.6 0.15 -7.6 0.05 -5.6 -0.05 -3.7 0.55 L-2.55 1.05" fill="none" stroke="#000000" stroke-linecap="butt" stroke-linejoin="miter-clip" stroke-miterlimit="10.0" stroke-opacity="0.6" stroke-width="1.0"/>
  </g>
</svg>
