<?xml version="1.0" encoding="UTF-8" standalone="no"?>
<svg xmlns:xlink="http://www.w3.org/1999/xlink" height="160.4px" width="336.6px" xmlns="http://www.w3.org/2000/svg">
  <g transform="matrix(1.0, 0.0, 0.0, 1.0, 171.6, 82.45)">
    <path d="M-164.5 77.45 L-26.2 69.8 Q120.65 61.3 163.7 57.45 L164.5 -4.25 Q94.85 -16.6 18.95 -31.9 -132.7 -62.6 -163.4 -77.45 L-164.5 77.45 Z" fill="none" stroke="#000000" stroke-linecap="butt" stroke-linejoin="miter-clip" stroke-miterlimit="10.0" stroke-opacity="0.6" stroke-width="1.0"/>
    <path d="M-150.4 -58.8 L-151.2 61.5" fill="none" stroke="#000000" stroke-linecap="butt" stroke-linejoin="miter-clip" stroke-miterlimit="10.0" stroke-opacity="0.6" stroke-width="1.0"/>
    <path d="M-137.3 -59.45 L-138.2 63.75" fill="none" stroke="#000000" stroke-linecap="butt" stroke-linejoin="miter-clip" stroke-miterlimit="10.0" stroke-opacity="0.6" stroke-width="1.0"/>
    <path d="M-124.55 -54.85 L-125.55 69.25" fill="none" stroke="#000000" stroke-linecap="butt" stroke-linejoin="miter-clip" stroke-miterlimit="10.0" stroke-opacity="0.6" stroke-width="1.0"/>
    <path d="M-112.0 -55.5 L-113.05 67.6" fill="none" stroke="#000000" stroke-linecap="butt" stroke-linejoin="miter-clip" stroke-miterlimit="10.0" stroke-opacity="0.6" stroke-width="1.0"/>
    <path d="M-99.65 -56.05 L-100.7 65.95" fill="none" stroke="#000000" stroke-linecap="butt" stroke-linejoin="miter-clip" stroke-miterlimit="10.0" stroke-opacity="0.6" stroke-width="1.0"/>
    <path d="M-87.6 -50.8 L-88.5 64.3" fill="none" stroke="#000000" stroke-linecap="butt" stroke-linejoin="miter-clip" stroke-miterlimit="10.0" stroke-opacity="0.6" stroke-width="1.0"/>
    <path d="M-75.6 -49.75 L-76.6 62.7" fill="none" stroke="#000000" stroke-linecap="butt" stroke-linejoin="miter-clip" stroke-miterlimit="10.0" stroke-opacity="0.6" stroke-width="1.0"/>
    <path d="M-64.65 -46.25 L-65.65 66.15" fill="none" stroke="#000000" stroke-linecap="butt" stroke-linejoin="miter-clip" stroke-miterlimit="10.0" stroke-opacity="0.6" stroke-width="1.0"/>
    <path d="M-53.1 -46.9 L-54.1 64.55" fill="none" stroke="#000000" stroke-linecap="butt" stroke-linejoin="miter-clip" stroke-miterlimit="10.0" stroke-opacity="0.6" stroke-width="1.0"/>
    <path d="M-41.75 -42.75 L-42.85 66.15" fill="none" stroke="#000000" stroke-linecap="butt" stroke-linejoin="miter-clip" stroke-miterlimit="10.0" stroke-opacity="0.6" stroke-width="1.0"/>
    <path d="M-30.6 -38.25 L-31.7 64.55" fill="none" stroke="#000000" stroke-linecap="butt" stroke-linejoin="miter-clip" stroke-miterlimit="10.0" stroke-opacity="0.6" stroke-width="1.0"/>
    <path d="M-19.75 -31.3 L-20.75 63.45" fill="none" stroke="#000000" stroke-linecap="butt" stroke-linejoin="miter-clip" stroke-miterlimit="10.0" stroke-opacity="0.6" stroke-width="1.0"/>
    <path d="M-8.95 -34.45 L-9.95 63.9" fill="none" stroke="#000000" stroke-linecap="butt" stroke-linejoin="miter-clip" stroke-miterlimit="10.0" stroke-opacity="0.6" stroke-width="1.0"/>
    <path d="M1.65 -33.7 L0.65 63.2" fill="none" stroke="#000000" stroke-linecap="butt" stroke-linejoin="miter-clip" stroke-miterlimit="10.0" stroke-opacity="0.6" stroke-width="1.0"/>
    <path d="M12.0 -26.6 L11.05 64.45" fill="none" stroke="#000000" stroke-linecap="butt" stroke-linejoin="miter-clip" stroke-miterlimit="10.0" stroke-opacity="0.6" stroke-width="1.0"/>
    <path d="M22.3 -27.45 L21.3 63.0" fill="none" stroke="#000000" stroke-linecap="butt" stroke-linejoin="miter-clip" stroke-miterlimit="10.0" stroke-opacity="0.6" stroke-width="1.0"/>
    <path d="M32.35 -23.85 L31.45 61.5" fill="none" stroke="#000000" stroke-linecap="butt" stroke-linejoin="miter-clip" stroke-miterlimit="10.0" stroke-opacity="0.6" stroke-width="1.0"/>
    <path d="M42.3 -23.4 L41.4 60.15" fill="none" stroke="#000000" stroke-linecap="butt" stroke-linejoin="miter-clip" stroke-miterlimit="10.0" stroke-opacity="0.6" stroke-width="1.0"/>
    <path d="M51.55 -21.1 L50.5 62.35" fill="none" stroke="#000000" stroke-linecap="butt" stroke-linejoin="miter-clip" stroke-miterlimit="10.0" stroke-opacity="0.6" stroke-width="1.0"/>
    <path d="M61.2 -21.9 L60.2 60.95" fill="none" stroke="#000000" stroke-linecap="butt" stroke-linejoin="miter-clip" stroke-miterlimit="10.0" stroke-opacity="0.6" stroke-width="1.0"/>
    <path d="M70.6 -19.05 L69.7 62.0" fill="none" stroke="#000000" stroke-linecap="butt" stroke-linejoin="miter-clip" stroke-miterlimit="10.0" stroke-opacity="0.6" stroke-width="1.0"/>
    <path d="M80.05 -19.9 L79.0 60.5" fill="none" stroke="#000000" stroke-linecap="butt" stroke-linejoin="miter-clip" stroke-miterlimit="10.0" stroke-opacity="0.6" stroke-width="1.0"/>
    <path d="M89.15 -11.85 L88.25 59.4" fill="none" stroke="#000000" stroke-linecap="butt" stroke-linejoin="miter-clip" stroke-miterlimit="10.0" stroke-opacity="0.6" stroke-width="1.0"/>
    <path d="M98.3 -13.8 L97.35 59.6" fill="none" stroke="#000000" stroke-linecap="butt" stroke-linejoin="miter-clip" stroke-miterlimit="10.0" stroke-opacity="0.6" stroke-width="1.0"/>
    <path d="M107.25 -13.55 L106.3 58.75" fill="none" stroke="#000000" stroke-linecap="butt" stroke-linejoin="miter-clip" stroke-miterlimit="10.0" stroke-opacity="0.6" stroke-width="1.0"/>
    <path d="M113.95 -13.45 L113.05 58.5" fill="none" stroke="#000000" stroke-linecap="butt" stroke-linejoin="miter-clip" stroke-miterlimit="10.0" stroke-opacity="0.6" stroke-width="1.0"/>
    <path d="M120.6 -9.4 L119.65 57.75" fill="none" stroke="#000000" stroke-linecap="butt" stroke-linejoin="miter-clip" stroke-miterlimit="10.0" stroke-opacity="0.6" stroke-width="1.0"/>
    <path d="M125.65 -9.85 L124.75 57.0" fill="none" stroke="#000000" stroke-linecap="butt" stroke-linejoin="miter-clip" stroke-miterlimit="10.0" stroke-opacity="0.6" stroke-width="1.0"/>
    <path d="M131.2 -10.4 L130.35 56.15" fill="none" stroke="#000000" stroke-linecap="butt" stroke-linejoin="miter-clip" stroke-miterlimit="10.0" stroke-opacity="0.6" stroke-width="1.0"/>
    <path d="M136.75 -8.85 L135.8 57.35" fill="none" stroke="#000000" stroke-linecap="butt" stroke-linejoin="miter-clip" stroke-miterlimit="10.0" stroke-opacity="0.6" stroke-width="1.0"/>
    <path d="M141.35 -6.45 L140.4 57.75" fill="none" stroke="#000000" stroke-linecap="butt" stroke-linejoin="miter-clip" stroke-miterlimit="10.0" stroke-opacity="0.6" stroke-width="1.0"/>
    <path d="M145.75 -6.9 L144.85 58.75" fill="none" stroke="#000000" stroke-linecap="butt" stroke-linejoin="miter-clip" stroke-miterlimit="10.0" stroke-opacity="0.6" stroke-width="1.0"/>
    <path d="M150.65 -5.25 L149.75 58.0" fill="none" stroke="#000000" stroke-linecap="butt" stroke-linejoin="miter-clip" stroke-miterlimit="10.0" stroke-opacity="0.6" stroke-width="1.0"/>
    <path d="M155.8 -1.8 L155.0 57.2" fill="none" stroke="#000000" stroke-linecap="butt" stroke-linejoin="miter-clip" stroke-miterlimit="10.0" stroke-opacity="0.6" stroke-width="1.0"/>
    <path d="M159.95 -2.3 L159.25 56.55" fill="none" stroke="#000000" stroke-linecap="butt" stroke-linejoin="miter-clip" stroke-miterlimit="10.0" stroke-opacity="0.6" stroke-width="1.0"/>
    <path d="M-163.65 -40.65 L-31.2 -17.25 Q111.7 6.55 164.35 8.2" fill="none" stroke="#000000" stroke-linecap="butt" stroke-linejoin="miter-clip" stroke-miterlimit="10.0" stroke-opacity="0.6" stroke-width="1.0"/>
    <path d="M-163.75 -21.4 L-29.9 -3.35 Q114.0 14.75 164.25 15.0" fill="none" stroke="#000000" stroke-linecap="butt" stroke-linejoin="miter-clip" stroke-miterlimit="10.0" stroke-opacity="0.6" stroke-width="1.0"/>
    <path d="M-163.95 4.05 L-25.85 14.95 Q120.9 25.55 164.15 24.05" fill="none" stroke="#000000" stroke-linecap="butt" stroke-linejoin="miter-clip" stroke-miterlimit="10.0" stroke-opacity="0.6" stroke-width="1.0"/>
    <path d="M-164.1 26.75 L-28.8 33.25 Q116.05 39.0 163.95 34.55" fill="none" stroke="#000000" stroke-linecap="butt" stroke-linejoin="miter-clip" stroke-miterlimit="10.0" stroke-opacity="0.6" stroke-width="1.0"/>
    <path d="M-164.2 46.2 L-27.6 47.55 Q118.25 48.3 163.8 44.7" fill="none" stroke="#000000" stroke-linecap="butt" stroke-linejoin="miter-clip" stroke-miterlimit="10.0" stroke-opacity="0.6" stroke-width="1.0"/>
  </g>
</svg>
