<?xml version="1.0" encoding="UTF-8" standalone="no"?>
<svg xmlns:xlink="http://www.w3.org/1999/xlink" height="332.75px" width="15.2px" xmlns="http://www.w3.org/2000/svg">
  <g transform="matrix(1.0, 0.0, 0.0, 1.0, 6.35, 166.35)">
    <path d="M5.8 -162.1 L5.8 162.15 Q5.8 164.5 4.15 165.4 L0.05 165.9 -4.1 165.4 Q-5.85 164.5 -5.85 162.15 L-5.85 -162.1 Q-5.85 -164.5 -4.1 -165.25 -2.95 -165.85 0.05 -165.85 2.9 -165.85 4.15 -165.25 5.8 -164.5 5.8 -162.1" fill="#ffffff" fill-opacity="0.0" fill-rule="evenodd" stroke="none"/>
    <path d="M2.8 -165.6 Q5.8 -165.25 5.8 -162.1 L5.8 162.15 Q5.8 165.25 2.8 165.65 -0.2 165.25 -0.2 162.15 L-0.2 -162.1 Q-0.2 -165.25 2.8 -165.6" fill="#000000" fill-opacity="0.2" fill-rule="evenodd" stroke="none"/>
    <path d="M5.8 -162.1 L5.8 162.15 Q5.8 164.5 4.15 165.4 L0.05 165.9 -4.1 165.4 Q-5.85 164.5 -5.85 162.15 L-5.85 -162.1 Q-5.85 -164.5 -4.1 -165.25 -2.95 -165.85 0.05 -165.85 2.9 -165.85 4.15 -165.25 5.8 -164.5 5.8 -162.1 Z" fill="none" stroke="#000000" stroke-linecap="butt" stroke-linejoin="miter-clip" stroke-miterlimit="10.0" stroke-width="1.0"/>
  </g>
</svg>
