<?xml version="1.0" encoding="UTF-8" standalone="no"?>
<svg xmlns:xlink="http://www.w3.org/1999/xlink" height="49.4px" width="121.3px" xmlns="http://www.w3.org/2000/svg">
  <g transform="matrix(1.0, 0.0, 0.0, 1.0, 60.55, 24.0)">
    <path d="M-60.0 -19.0 Q-59.9 -19.85 -59.4 -20.55 L-58.25 -21.65 -44.2 -19.35 -37.45 -18.25 -31.1 -17.2 -24.85 -16.15 -18.2 -15.1 -12.1 -14.1 -9.65 -13.7 -9.05 -13.6 -8.05 -13.4 -8.95 -13.55 Q-10.3 -12.35 -10.65 -11.05 L-18.75 -12.4 -18.8 -12.4 -19.65 -12.55 -17.5 -13.6 -15.55 -14.15 Q-17.4 -14.2 -19.95 -12.8 L-20.2 -12.65 -25.0 -13.45 -25.85 -13.6 -23.8 -14.6 -21.85 -15.15 Q-23.7 -15.2 -26.25 -13.8 L-26.45 -13.7 -31.4 -14.5 -32.1 -14.6 -30.1 -15.6 -28.15 -16.25 Q-30.0 -16.3 -32.5 -14.8 L-32.65 -14.7 -37.65 -15.5 -38.5 -15.65 -36.6 -16.6 -34.65 -17.25 Q-36.5 -17.3 -39.0 -15.8 L-39.1 -15.75 -43.85 -16.5 -44.85 -16.65 Q-43.95 -17.25 -42.9 -17.65 L-40.95 -18.3 Q-42.8 -18.3 -45.3 -16.8 L-45.35 -16.75 -50.55 -17.55 -51.2 -17.65 Q-50.25 -18.3 -49.1 -18.75 L-47.1 -19.4 Q-48.95 -19.45 -51.5 -17.9 L-51.75 -17.75 -60.0 -19.0 M-44.2 -19.35 Q-47.6 -19.3 -50.55 -17.55 -47.6 -19.3 -44.2 -19.35 M-37.45 -18.25 Q-40.85 -18.15 -43.85 -16.5 -40.85 -18.15 -37.45 -18.25 M-31.1 -17.2 Q-34.55 -17.15 -37.65 -15.5 -34.55 -17.15 -31.1 -17.2 M-24.85 -16.15 Q-28.3 -16.1 -31.4 -14.5 -28.3 -16.1 -24.85 -16.15 M-18.2 -15.1 Q-21.65 -15.0 -25.0 -13.45 -21.65 -15.0 -18.2 -15.1 M-12.1 -14.1 Q-15.55 -14.0 -18.75 -12.4 -15.55 -14.0 -12.1 -14.1" fill="#ffffff" fill-opacity="0.2" fill-rule="evenodd" stroke="none"/>
    <path d="M-4.55 -12.85 L-4.7 -12.55 -4.95 -11.45 Q-3.45 -7.8 -1.65 -5.2 0.9 -1.55 4.0 -0.05 L20.0 3.95 20.0 7.4 20.0 8.5 20.0 9.25 22.0 4.25 33.3 6.95 33.4 8.0 33.4 6.95 49.75 11.1 Q50.85 4.65 52.7 -2.45 L53.3 -4.6 Q54.7 -9.75 56.15 -13.25 L56.8 -14.75 Q58.45 -18.35 60.1 -19.8 L56.5 -6.9 56.4 -6.5 56.05 -4.9 55.6 -2.95 52.2 18.25 52.2 18.6 52.05 20.4 51.85 22.75 52.05 20.4 52.2 18.6 52.2 18.25 55.6 -2.95 55.85 -4.05 51.85 22.75 34.25 17.05 33.95 15.55 33.9 15.55 31.95 14.95 2.4 5.55 1.5 4.55 -0.45 2.25 -1.15 1.25 -3.65 -3.3 -4.0 -4.05 -4.35 -5.05 -4.45 -5.4 -4.55 -5.75 -4.65 -6.2 -4.7 -6.4 -4.85 -7.25 -4.9 -7.45 -5.1 -9.3 -5.0 -8.15 -21.35 -10.7 -27.8 -11.75 -33.95 -12.7 -40.3 -13.7 -46.5 -14.7 -53.0 -15.7 -59.75 -16.8 Q-60.15 -18.0 -60.0 -19.0 L-51.75 -17.75 -53.7 -16.4 -52.95 -16.3 -51.2 -17.65 -50.55 -17.55 -45.35 -16.75 -47.45 -15.35 -46.75 -15.25 Q-45.9 -16.05 -44.85 -16.65 L-43.85 -16.5 -44.0 -16.45 -46.5 -14.7 -44.0 -16.45 -43.85 -16.5 -39.1 -15.75 -41.15 -14.3 -40.45 -14.2 -38.5 -15.65 -37.65 -15.5 -37.8 -15.45 -40.3 -13.7 -37.8 -15.45 -37.65 -15.5 -32.65 -14.7 -34.65 -13.3 -33.95 -13.2 -32.1 -14.6 -31.4 -14.5 -26.45 -13.7 -28.4 -12.4 -27.75 -12.25 Q-26.9 -13.0 -25.85 -13.6 L-25.0 -13.45 -25.1 -13.4 -27.8 -11.75 -25.1 -13.4 -25.0 -13.45 -20.2 -12.65 -22.15 -11.4 -21.45 -11.25 -19.65 -12.55 -18.8 -12.4 -18.75 -12.4 -10.65 -11.05 Q-10.3 -12.35 -8.95 -13.55 L-8.05 -13.4 -7.75 -13.35 -7.1 -13.25 -6.85 -13.2 -4.55 -12.85 M33.4 9.85 L33.45 11.05 33.45 10.3 33.4 9.25 33.4 9.85 Q33.45 12.3 33.75 14.35 L33.9 15.2 33.75 14.35 Q33.45 12.3 33.4 9.85 M33.95 15.55 L33.95 15.5 33.9 15.2 33.95 15.5 33.95 15.55 M33.4 9.25 L33.45 8.3 33.5 7.25 33.45 8.3 33.4 9.25 M-53.0 -15.7 L-50.7 -17.5 -50.55 -17.55 -50.7 -17.5 -53.0 -15.7 M-33.95 -12.7 L-31.5 -14.45 -31.4 -14.5 -31.5 -14.45 -33.95 -12.7 M-6.85 -13.2 L-7.1 -13.25 -7.75 -13.35 -7.1 -13.25 -6.85 -13.2 M-5.1 -9.3 L-5.05 -10.4 -5.0 -11.2 -4.95 -11.45 -5.0 -11.2 -5.05 -10.4 -5.1 -9.3 M-4.45 -5.4 L-4.35 -5.1 -4.3 -5.05 -4.2 -4.7 -4.0 -4.05 -4.2 -4.7 -4.3 -5.05 -4.35 -5.1 -4.45 -5.4 M-21.35 -10.7 L-18.8 -12.4 -21.35 -10.7" fill="#000000" fill-opacity="0.2" fill-rule="evenodd" stroke="none"/>
    <path d="M10.45 -20.55 L10.95 -20.95 37.7 -17.2 36.05 -14.9 25.65 -16.45 Q25.05 -16.55 23.35 -14.05 L21.75 -11.5 22.65 -16.7 9.55 -18.65 10.45 -20.55 M56.15 -13.25 L39.9 -15.3 Q39.75 -15.3 40.5 -17.05 L41.25 -18.85 57.8 -17.8 56.8 -14.75 56.15 -13.25 M-51.75 -17.75 L-51.5 -17.9 Q-48.95 -19.45 -47.1 -19.4 L-49.1 -18.75 Q-50.25 -18.3 -51.2 -17.65 L-52.95 -16.3 -53.7 -16.4 -51.75 -17.75 M-44.85 -16.65 Q-45.9 -16.05 -46.75 -15.25 L-47.45 -15.35 -45.35 -16.75 -45.3 -16.8 Q-42.8 -18.3 -40.95 -18.3 L-42.9 -17.65 Q-43.95 -17.25 -44.85 -16.65 M-39.1 -15.75 L-39.0 -15.8 Q-36.5 -17.3 -34.65 -17.25 L-36.6 -16.6 -38.5 -15.65 -40.45 -14.2 -41.15 -14.3 -39.1 -15.75 M-32.65 -14.7 L-32.5 -14.8 Q-30.0 -16.3 -28.15 -16.25 L-30.1 -15.6 -32.1 -14.6 -33.95 -13.2 -34.65 -13.3 -32.65 -14.7 M-26.45 -13.7 L-26.25 -13.8 Q-23.7 -15.2 -21.85 -15.15 L-23.8 -14.6 -25.85 -13.6 Q-26.9 -13.0 -27.75 -12.25 L-28.4 -12.4 -26.45 -13.7 M-20.2 -12.65 L-19.95 -12.8 Q-17.4 -14.2 -15.55 -14.15 L-17.5 -13.6 -19.65 -12.55 -21.45 -11.25 -22.15 -11.4 -20.2 -12.65" fill="#ffffff" fill-opacity="0.6" fill-rule="evenodd" stroke="none"/>
    <path d="M10.45 -20.55 L9.55 -18.65 22.65 -16.7 21.75 -11.5 23.35 -14.05 Q25.05 -16.55 25.65 -16.45 L36.05 -14.9 37.7 -17.2 10.95 -20.95 10.45 -20.55 M20.0 7.4 Q20.15 -1.25 22.0 -8.15 L20.95 -6.15 6.15 -8.65 Q5.75 -14.0 10.4 -22.55 L39.7 -18.7 40.6 -20.4 60.1 -19.8 Q58.45 -18.35 56.8 -14.75 L57.8 -17.8 41.25 -18.85 40.5 -17.05 Q39.75 -15.3 39.9 -15.3 L56.15 -13.25 Q54.7 -9.75 53.3 -4.6 L35.7 -8.6 35.6 -8.2 34.8 -5.1 Q35.1 -6.7 35.55 -8.2 L23.9 -10.7 Q22.8 -6.7 21.8 -1.4 20.65 4.45 20.0 9.25 L20.0 8.5 20.0 7.4 M39.7 -18.7 Q37.05 -13.65 35.55 -8.2 37.05 -13.65 39.7 -18.7 M33.4 9.25 L33.45 10.3 33.45 11.05 33.4 9.85 33.4 9.25" fill="#ffffff" fill-opacity="0.0" fill-rule="evenodd" stroke="none"/>
    <path d="M56.05 -4.9 L55.85 -4.05 55.6 -2.95 56.05 -4.9 M33.9 15.55 L33.9 15.6 31.95 14.95 33.9 15.55 M-1.15 1.25 L-1.25 1.15 Q-2.75 -1.0 -3.65 -3.15 L-3.95 -3.85 -4.0 -4.05 -3.65 -3.3 -1.15 1.25 M-4.85 -7.25 L-5.0 -8.15 -5.1 -9.3 -4.9 -7.45 -4.85 -7.25" fill="#000000" fill-opacity="0.4" fill-rule="evenodd" stroke="none"/>
    <path d="M-4.55 -12.85 Q-3.4 -15.05 -1.65 -16.85 0.6 -19.15 3.8 -20.75 6.75 -22.25 9.2 -22.7 L10.4 -22.55 Q5.75 -14.0 6.15 -8.65 L20.95 -6.15 22.0 -8.15 Q20.15 -1.25 20.0 7.4 L20.0 3.95 4.0 -0.05 Q0.9 -1.55 -1.65 -5.2 -3.45 -7.8 -4.95 -11.45 L-4.7 -12.55 -4.55 -12.85 M20.0 9.25 Q20.65 4.45 21.8 -1.4 22.8 -6.7 23.9 -10.7 L35.55 -8.2 Q35.1 -6.7 34.8 -5.1 L35.6 -8.2 35.7 -8.6 53.3 -4.6 52.7 -2.45 Q50.85 4.65 49.75 11.1 L33.4 6.95 33.4 8.0 33.3 6.95 22.0 4.25 20.0 9.25 M33.4 6.95 L33.4 5.9 34.8 -5.1 33.4 5.9 33.4 6.95" fill="#000000" fill-opacity="0.09803922" fill-rule="evenodd" stroke="none"/>
    <path d="M-4.55 -12.85 L-4.7 -12.55 -4.95 -11.45 -5.0 -11.2 -5.05 -10.4 -5.1 -9.3 M-5.0 -8.15 L-21.35 -10.7 -27.8 -11.75 -33.95 -12.7 -40.3 -13.7 -46.5 -14.7 -53.0 -15.7 -59.75 -16.8 Q-60.15 -18.0 -60.0 -19.0 -59.9 -19.85 -59.4 -20.55 L-58.25 -21.65 -44.2 -19.35 -37.45 -18.25 -31.1 -17.2 -24.85 -16.15 -18.2 -15.1 -12.1 -14.1 -9.65 -13.7 -9.05 -13.6 -8.05 -13.4 -7.75 -13.35 -7.1 -13.25 -6.85 -13.2 -4.55 -12.85 M-7.1 -13.25 L-6.85 -13.2 M35.55 -8.2 Q37.05 -13.65 39.7 -18.7 M34.8 -5.1 Q35.1 -6.7 35.55 -8.2 M34.8 -5.1 L33.4 5.9 33.4 6.95 33.4 8.0 M33.4 9.25 L33.4 9.85 Q33.45 12.3 33.75 14.35 L33.9 15.2 M33.5 7.25 L33.45 8.3 33.4 9.25 M-50.55 -17.55 Q-47.6 -19.3 -44.2 -19.35 M-50.55 -17.55 L-50.7 -17.5 -53.0 -15.7 M-43.85 -16.5 Q-40.85 -18.15 -37.45 -18.25 M-46.5 -14.7 L-44.0 -16.45 -43.85 -16.5 M-37.65 -15.5 Q-34.55 -17.15 -31.1 -17.2 M-31.4 -14.5 Q-28.3 -16.1 -24.85 -16.15 M-25.0 -13.45 Q-21.65 -15.0 -18.2 -15.1 M-31.4 -14.5 L-31.5 -14.45 -33.95 -12.7 M-27.8 -11.75 L-25.1 -13.4 -25.0 -13.45 M-18.8 -12.4 L-18.75 -12.4 Q-15.55 -14.0 -12.1 -14.1 M-40.3 -13.7 L-37.8 -15.45 -37.65 -15.5 M-18.8 -12.4 L-21.35 -10.7" fill="none" stroke="#000000" stroke-linecap="butt" stroke-linejoin="miter-clip" stroke-miterlimit="10.0" stroke-opacity="0.6" stroke-width="1.0"/>
    <path d="M10.4 -22.55 L9.2 -22.7 Q6.75 -22.25 3.8 -20.75 0.6 -19.15 -1.65 -16.85 -3.4 -15.05 -4.55 -12.85 M10.4 -22.55 L39.7 -18.7 40.6 -20.4 60.1 -19.8 56.5 -6.9 56.4 -6.5 56.05 -4.9 55.6 -2.95 52.2 18.25 52.2 18.6 52.05 20.4 51.85 22.75 34.25 17.05 33.95 15.55 33.9 15.55 31.95 14.95 2.4 5.55 1.5 4.55 -0.45 2.25 -1.15 1.25 -1.25 1.15 M-4.45 -5.4 L-4.55 -5.75 -4.65 -6.2 -4.7 -6.4 -4.85 -7.25 -4.9 -7.45 -5.1 -9.3 M33.9 15.2 L33.95 15.5 33.95 15.55 M-4.0 -4.05 L-4.2 -4.7 -4.3 -5.05 -4.35 -5.1 -4.45 -5.4 M-4.0 -4.05 L-3.65 -3.3 -1.15 1.25" fill="none" stroke="#000000" stroke-linecap="butt" stroke-linejoin="miter-clip" stroke-miterlimit="10.0" stroke-width="1.0"/>
  </g>
</svg>
