<?xml version="1.0" encoding="UTF-8" standalone="no"?>
<svg xmlns:xlink="http://www.w3.org/1999/xlink" height="196.8px" width="112.35px" xmlns="http://www.w3.org/2000/svg">
  <g transform="matrix(1.0, 0.0, 0.0, 1.0, 56.15, 96.15)">
    <path d="M52.7 -75.15 Q52.7 -58.55 48.45 -54.65 45.75 -52.15 24.0 -51.1 2.1 -50.05 -0.35 -48.05 -4.2 -44.85 -3.95 -39.6 -3.65 -34.25 1.0 -26.2 5.85 -17.8 14.75 3.8 23.75 25.85 25.6 34.1 27.35 42.0 33.0 44.8 L33.55 55.05 33.5 53.95 Q29.75 52.5 24.75 51.2 18.05 49.45 -4.25 50.8 L-36.7 52.6 Q-46.2 52.6 -46.4 48.15 -43.85 46.05 -40.25 44.3 -35.95 42.2 -26.1 39.15 -16.7 36.25 -13.05 34.35 -7.1 31.2 -6.1 26.6 -2.9 12.0 -5.6 -1.3 -9.2 -19.1 -22.95 -20.45 -21.3 -24.55 -20.4 -29.1 -18.5 -38.2 -21.95 -40.25 -25.0 -42.05 -33.15 -42.05 -40.75 -42.05 -41.45 -42.85 -42.5 -43.7 -43.35 -46.8 -45.1 -53.05 -44.25 -64.3 -43.35 -75.6 -40.35 -86.55 L-37.55 -95.3 -29.5 -95.65 Q-18.75 -95.45 -5.3 -92.5 18.75 -87.3 30.8 -84.0 50.15 -78.75 52.7 -75.15 M47.75 -76.25 Q37.45 -80.65 11.5 -86.55 -9.65 -91.4 -17.75 -92.45 L-28.65 -92.75 -34.7 -92.5 -36.0 -87.95 Q-33.6 -88.8 -25.35 -88.9 L-17.6 -88.85 Q-7.8 -87.8 20.95 -81.95 L47.75 -76.25 M7.5 45.65 Q-1.4 46.55 -1.65 49.45 L7.4 48.8 Q16.85 48.2 19.1 48.55 22.7 49.15 28.8 51.2 27.55 50.15 25.75 48.95 22.2 46.6 19.55 45.95 15.45 44.85 7.5 45.65 M-11.25 -74.75 L-9.85 -75.7 29.2 -78.55 -12.8 -78.25 Q-20.95 -74.95 -16.0 -60.45 -13.5 -53.15 -9.4 -46.55 -15.95 -62.65 -13.55 -70.8 -12.8 -73.35 -11.25 -74.75 M-39.45 -78.75 Q-43.6 -61.6 -40.8 -44.8 L-39.35 -44.7 Q-37.75 -44.85 -36.95 -45.9 -38.1 -54.7 -38.35 -64.95 -38.8 -81.0 -36.3 -88.85 -38.15 -84.05 -39.45 -78.75 M-10.2 -15.0 Q-4.35 -7.35 -3.9 4.75 -3.0 27.45 -9.15 33.6 L-7.9 34.35 Q-6.2 34.3 -3.85 30.45 -2.25 27.9 -1.35 21.45 -0.35 14.25 -1.0 6.85 -2.9 -13.2 -15.9 -20.25 L-14.15 -19.05 Q-12.0 -17.4 -10.2 -15.0" fill="#ffffff" fill-opacity="0.0" fill-rule="evenodd" stroke="none"/>
    <path d="M52.7 -75.15 L52.9 -74.9 52.7 -75.15 52.7 -75.2 52.8 -75.05 52.9 -74.9 52.9 -74.85 Q55.6 -69.55 55.7 -59.5 55.85 -47.7 51.1 -42.35 50.1 -40.9 48.55 -39.45 45.45 -36.55 42.75 -36.55 36.45 -36.55 33.2 -32.3 29.55 -27.5 30.4 -18.2 L32.5 6.7 Q33.5 23.65 33.0 44.8 27.35 42.0 25.6 34.1 23.75 25.85 14.75 3.8 5.85 -17.8 1.0 -26.2 -3.65 -34.25 -3.95 -39.6 -4.2 -44.85 -0.35 -48.05 2.1 -50.05 24.0 -51.1 45.75 -52.15 48.45 -54.65 52.7 -58.55 52.7 -75.15 M51.1 -42.35 L32.75 -41.75 Q25.25 -41.75 21.5 -39.0 16.4 -35.25 19.05 -26.85 23.25 -13.55 27.5 7.75 31.65 28.6 33.0 44.8 31.65 28.6 27.5 7.75 23.25 -13.55 19.05 -26.85 16.4 -35.25 21.5 -39.0 25.25 -41.75 32.75 -41.75 L51.1 -42.35 M0.9 -33.5 Q-2.4 -42.85 0.9 -46.65 L-0.1 -46.05 Q-1.2 -45.15 -1.9 -43.95 -4.05 -40.0 -1.1 -33.9 5.3 -20.75 12.6 -4.3 21.4 15.4 24.9 25.7 L20.65 12.75 Q14.3 -5.8 9.9 -14.4 2.6 -28.75 0.9 -33.5" fill="#000000" fill-opacity="0.29803923" fill-rule="evenodd" stroke="none"/>
    <path d="M-11.25 -74.75 Q-12.8 -73.35 -13.55 -70.8 -15.95 -62.65 -9.4 -46.55 -13.5 -53.15 -16.0 -60.45 -20.95 -74.95 -12.8 -78.25 L29.2 -78.55 -9.85 -75.7 -11.25 -74.75" fill="#000000" fill-opacity="0.2" fill-rule="evenodd" stroke="none"/>
    <path d="M-46.4 48.15 Q-46.2 52.6 -36.7 52.6 L-4.25 50.8 Q18.05 49.45 24.75 51.2 29.75 52.5 33.5 53.95 L33.55 55.05 34.1 83.2 Q33.75 89.5 30.25 92.4 26.55 95.45 -10.1 95.7 -46.55 95.95 -50.05 93.3 -54.25 90.0 -55.4 77.55 -56.7 63.3 -50.6 52.95 -49.05 50.2 -46.4 47.95 L-46.4 48.15 Q-49.05 50.35 -50.6 52.95 -49.05 50.35 -46.4 48.15" fill="#000000" fill-opacity="0.09803922" fill-rule="evenodd" stroke="none"/>
    <path d="M47.75 -76.25 L20.95 -81.95 Q-7.8 -87.8 -17.6 -88.85 L-25.35 -88.9 Q-33.6 -88.8 -36.0 -87.95 L-34.7 -92.5 -28.65 -92.75 -17.75 -92.45 Q-9.65 -91.4 11.5 -86.55 37.45 -80.65 47.75 -76.25 M7.5 45.65 Q15.45 44.85 19.55 45.95 22.2 46.6 25.75 48.95 27.55 50.15 28.8 51.2 22.7 49.15 19.1 48.55 16.85 48.2 7.4 48.8 L-1.65 49.45 Q-1.4 46.55 7.5 45.65 M-10.2 -15.0 Q-12.0 -17.4 -14.15 -19.05 L-15.9 -20.25 Q-2.9 -13.2 -1.0 6.85 -0.35 14.25 -1.35 21.45 -2.25 27.9 -3.85 30.45 -6.2 34.3 -7.9 34.35 L-9.15 33.6 Q-3.0 27.45 -3.9 4.75 -4.35 -7.35 -10.2 -15.0 M-39.45 -78.75 Q-38.15 -84.05 -36.3 -88.85 -38.8 -81.0 -38.35 -64.95 -38.1 -54.7 -36.95 -45.9 -37.75 -44.85 -39.35 -44.7 L-40.8 -44.8 Q-43.6 -61.6 -39.45 -78.75" fill="#ffffff" fill-opacity="0.6" fill-rule="evenodd" stroke="none"/>
    <path d="M0.9 -33.5 Q2.6 -28.75 9.9 -14.4 14.3 -5.8 20.65 12.75 L24.9 25.7 Q21.4 15.4 12.6 -4.3 5.3 -20.75 -1.1 -33.9 -4.05 -40.0 -1.9 -43.95 -1.2 -45.15 -0.1 -46.05 L0.9 -46.65 Q-2.4 -42.85 0.9 -33.5" fill="#ffffff" fill-opacity="0.4" fill-rule="evenodd" stroke="none"/>
    <path d="M33.55 55.05 L33.0 44.8 Q33.5 23.65 32.5 6.7 L30.4 -18.2 Q29.55 -27.5 33.2 -32.3 36.45 -36.55 42.75 -36.55 45.45 -36.55 48.55 -39.45 50.1 -40.9 51.1 -42.35 M-50.6 52.95 Q-56.7 63.3 -55.4 77.55 -54.25 90.0 -50.05 93.3 -46.55 95.95 -10.1 95.7 26.55 95.45 30.25 92.4 33.75 89.5 34.1 83.2 L33.55 55.05 M-46.4 48.15 Q-49.05 50.35 -50.6 52.95" fill="none" stroke="#000000" stroke-linecap="butt" stroke-linejoin="miter-clip" stroke-miterlimit="10.0" stroke-width="1.0"/>
    <path d="M52.9 -74.9 L52.7 -75.15 Q50.15 -78.75 30.8 -84.0 18.75 -87.3 -5.3 -92.5 -18.75 -95.45 -29.5 -95.65 L-37.55 -95.3 -40.35 -86.55 Q-43.35 -75.6 -44.25 -64.3 -45.1 -53.05 -43.35 -46.8 -42.5 -43.7 -41.45 -42.85 -40.75 -42.05 -33.15 -42.05 -25.0 -42.05 -21.95 -40.25 -18.5 -38.2 -20.4 -29.1 -21.3 -24.55 -22.95 -20.45 -9.2 -19.1 -5.6 -1.3 -2.9 12.0 -6.1 26.6 -7.1 31.2 -13.05 34.35 -16.7 36.25 -26.1 39.15 -35.95 42.2 -40.25 44.3 -43.85 46.05 -46.4 48.15 M52.9 -74.9 L52.8 -75.05 52.7 -75.2 52.7 -75.15" fill="none" stroke="#000000" stroke-linecap="round" stroke-linejoin="miter-clip" stroke-miterlimit="10.0" stroke-width="1.0"/>
    <path d="M52.7 -75.15 Q52.7 -58.55 48.45 -54.65 45.75 -52.15 24.0 -51.1 2.1 -50.05 -0.35 -48.05 -4.2 -44.85 -3.95 -39.6 -3.65 -34.25 1.0 -26.2 5.85 -17.8 14.75 3.8 23.75 25.85 25.6 34.1 27.35 42.0 33.0 44.8 31.65 28.6 27.5 7.75 23.25 -13.55 19.05 -26.85 16.4 -35.25 21.5 -39.0 25.25 -41.75 32.75 -41.75 L51.1 -42.35" fill="none" stroke="#000000" stroke-linecap="round" stroke-linejoin="miter-clip" stroke-miterlimit="10.0" stroke-opacity="0.6" stroke-width="1.0"/>
    <path d="M51.1 -42.35 Q55.85 -47.7 55.7 -59.5 55.6 -69.55 52.9 -74.85 L52.9 -74.9" fill="none" stroke="#000000" stroke-linecap="butt" stroke-linejoin="miter-clip" stroke-miterlimit="10.0" stroke-width="1.0"/>
  </g>
</svg>
