<?xml version="1.0" encoding="UTF-8" standalone="no"?>
<svg xmlns:xlink="http://www.w3.org/1999/xlink" height="8.5px" width="16.65px" xmlns="http://www.w3.org/2000/svg">
  <g transform="matrix(1.0, 0.0, 0.0, 1.0, 8.5, 3.75)">
    <path d="M6.1 -1.05 Q8.6 0.35 6.9 1.35 5.45 2.25 1.8 2.4 L-4.6 1.95 Q-7.7 1.2 -7.55 -0.3 -7.3 -3.0 -0.55 -2.3 L6.1 -1.05" fill="#ffffff" fill-opacity="0.0" fill-rule="evenodd" stroke="none"/>
    <path d="M6.1 -1.05 L-0.55 -2.3 Q-7.3 -3.0 -7.55 -0.3 -7.7 1.2 -4.6 1.95 L1.8 2.4 Q5.45 2.25 6.9 1.35 8.6 0.35 6.1 -1.05 Z" fill="none" stroke="#000000" stroke-linecap="butt" stroke-linejoin="miter-clip" stroke-miterlimit="10.0" stroke-opacity="0.6" stroke-width="1.0"/>
    <path d="M3.85 -0.4 Q5.65 0.3 1.1 0.45 -3.35 0.55 -4.25 -0.5 -5.05 -1.45 -0.65 -1.0 L3.85 -0.4" fill="#ffffff" fill-opacity="0.6" fill-rule="evenodd" stroke="none"/>
  </g>
</svg>
