<?xml version="1.0" encoding="UTF-8" standalone="no"?>
<svg xmlns:xlink="http://www.w3.org/1999/xlink" height="65.8px" width="55.7px" xmlns="http://www.w3.org/2000/svg">
  <g transform="matrix(1.0, 0.0, 0.0, 1.0, 27.25, 33.1)">
    <path d="M-21.1 -31.7 L-19.0 -32.1 -15.6 -31.95 -15.6 -31.85 -15.45 -25.8 Q-14.9 -19.4 -12.95 -17.8 -11.35 -16.55 -6.9 -14.25 L-1.0 -11.15 0.85 -11.15 6.85 -14.25 Q11.4 -16.55 13.0 -17.8 14.95 -19.4 15.45 -25.8 L15.65 -31.85 15.6 -31.95 19.05 -32.1 21.15 -31.7 23.0 -21.45 Q25.15 -10.3 26.55 -5.85 27.45 -2.85 25.15 4.4 24.0 8.05 22.65 11.05 21.7 16.35 21.95 23.5 L22.35 29.55 Q15.5 32.3 0.0 32.2 -15.45 32.3 -22.35 29.55 -22.05 27.05 -21.9 23.5 -21.65 16.35 -22.6 11.05 -23.95 8.05 -25.1 4.4 -27.45 -2.85 -26.45 -5.85 -25.05 -10.3 -22.95 -21.45 L-21.1 -31.7" fill="#ffffff" fill-opacity="0.0" fill-rule="evenodd" stroke="none"/>
    <path d="M17.15 12.8 Q17.15 11.2 15.55 8.85 L13.9 6.8 18.85 4.5 Q24.0 1.6 24.9 -1.7 25.35 -3.1 26.05 -7.4 L26.55 -5.85 Q27.45 -2.85 25.15 4.4 24.0 8.05 22.65 11.05 21.55 17.2 22.05 25.0 L22.35 29.55 18.45 30.25 13.9 30.6 15.95 20.15 Q17.15 13.9 17.15 12.8" fill="#000000" fill-opacity="0.2" fill-rule="evenodd" stroke="none"/>
    <path d="M-21.1 -31.7 L-22.95 -21.45 Q-25.05 -10.3 -26.45 -5.85 -27.45 -2.85 -25.1 4.4 -23.95 8.05 -22.6 11.05 -21.65 16.35 -21.9 23.5 -22.05 27.05 -22.35 29.55 -15.45 32.3 0.0 32.2 15.5 32.3 22.35 29.55 L21.95 23.5 Q21.7 16.35 22.65 11.05 24.0 8.05 25.15 4.4 27.45 -2.85 26.55 -5.85 25.15 -10.3 23.0 -21.45 L21.15 -31.7 19.05 -32.1 15.6 -31.95 15.65 -31.85 15.45 -25.8 Q14.95 -19.4 13.0 -17.8 11.4 -16.55 6.85 -14.25 L0.85 -11.15 -1.0 -11.15 -6.9 -14.25 Q-11.35 -16.55 -12.95 -17.8 -14.9 -19.4 -15.45 -25.8 L-15.6 -31.85 -15.6 -31.95 -19.0 -32.1 -21.1 -31.7 Z" fill="none" stroke="#000000" stroke-linecap="butt" stroke-linejoin="miter-clip" stroke-miterlimit="10.0" stroke-width="1.0"/>
  </g>
</svg>
