<?xml version="1.0" encoding="UTF-8" standalone="no"?>
<svg xmlns:xlink="http://www.w3.org/1999/xlink" height="58.7px" width="380.65px" xmlns="http://www.w3.org/2000/svg">
  <g transform="matrix(1.0, 0.0, 0.0, 1.0, 190.3, 29.35)">
    <path d="M59.45 -25.5 Q61.55 -26.2 69.45 -26.6 80.35 -27.2 95.45 -26.85 L121.45 -25.5 Q131.45 -24.5 132.15 -23.5 L132.2 -23.35 Q132.15 -22.2 121.35 -21.65 110.6 -21.1 95.35 -21.45 L69.35 -22.8 Q59.8 -23.75 58.8 -24.7 L58.65 -24.95 59.45 -25.5 M119.7 -22.6 L111.2 -21.95 Q128.85 -22.35 124.6 -23.6 L119.8 -24.35 Q125.0 -23.35 119.7 -22.6 M87.05 -25.3 L83.35 -24.85 Q83.35 -24.05 95.9 -23.8 L108.5 -24.3 Q108.5 -25.1 95.95 -25.35 L87.05 -25.3 M189.85 -4.9 L189.85 6.55 156.75 6.55 43.2 6.55 41.6 -0.2 -42.1 -0.2 -43.35 6.55 -161.8 6.55 -189.8 6.55 -189.8 -4.9 189.85 -4.9 M-118.05 -25.5 L-92.05 -26.85 Q-76.95 -27.2 -66.05 -26.6 L-56.0 -25.5 -55.2 -24.95 -55.25 -24.8 Q-55.95 -23.8 -65.95 -22.8 L-91.95 -21.45 Q-107.2 -21.1 -117.95 -21.65 -128.75 -22.2 -128.75 -23.35 L-128.7 -23.45 Q-128.25 -24.5 -118.05 -25.5 M-105.05 -24.3 L-92.45 -23.8 Q-79.9 -24.05 -79.9 -24.85 L-92.5 -25.35 Q-105.05 -25.1 -105.05 -24.3 M-116.25 -22.6 Q-122.85 -23.55 -113.35 -24.8 L-121.15 -23.6 Q-125.1 -22.45 -110.25 -22.05 L-116.25 -22.6" fill="#000000" fill-opacity="0.2" fill-rule="evenodd" stroke="none"/>
    <path d="M87.05 -25.3 L95.95 -25.35 Q108.5 -25.1 108.5 -24.3 L95.9 -23.8 Q83.35 -24.05 83.35 -24.85 L87.05 -25.3 M189.85 6.55 L170.95 19.05 154.05 19.05 142.25 28.85 48.35 28.85 45.4 16.0 145.95 16.0 156.75 6.55 189.85 6.55 M-47.5 28.85 L-142.2 28.85 -154.0 19.05 -170.9 19.05 -189.8 6.55 -161.8 6.55 -151.0 16.0 -45.1 16.0 -47.5 28.85 M-105.05 -24.3 Q-105.05 -25.1 -92.5 -25.35 L-79.9 -24.85 Q-79.9 -24.05 -92.45 -23.8 L-105.05 -24.3" fill="#000000" fill-opacity="0.4" fill-rule="evenodd" stroke="none"/>
    <path d="M40.0 -9.95 L29.05 -25.85 -27.0 -25.85 -38.3 -9.95 40.0 -9.95 -38.3 -9.95 -27.0 -25.85 29.05 -25.85 40.0 -9.95 M121.45 -25.5 L95.45 -26.85 Q80.35 -27.2 69.45 -26.6 61.55 -26.2 59.45 -25.5 L35.3 -25.5 48.1 -10.3 164.5 -10.3 127.75 -25.5 121.45 -25.5 M58.8 -24.7 Q59.8 -23.75 69.35 -22.8 L95.35 -21.45 Q110.6 -21.1 121.35 -21.65 132.15 -22.2 132.2 -23.35 L132.15 -23.5 135.7 -18.75 Q136.55 -18.2 136.55 -17.65 136.5 -15.35 124.45 -14.0 L95.4 -12.9 Q78.4 -13.2 66.4 -15.0 54.45 -16.8 54.5 -19.05 L54.9 -19.9 55.3 -20.35 58.8 -24.7 M47.45 -9.4 L33.7 -25.15 47.45 -9.4 M134.0 -17.55 L131.8 -21.45 129.1 -21.25 131.8 -16.55 134.0 -17.55 M-189.8 -4.9 L-123.3 -28.85 127.05 -28.55 189.85 -4.9 -189.8 -4.9 M48.35 28.85 L-47.5 28.85 -45.1 16.0 -151.0 16.0 -161.8 6.55 -43.35 6.55 -45.1 16.0 -43.35 6.55 -42.1 -0.2 41.6 -0.2 43.2 6.55 156.75 6.55 145.95 16.0 45.4 16.0 43.2 6.55 45.4 16.0 48.35 28.85 M-118.05 -25.5 L-124.3 -25.5 -161.1 -10.3 -44.7 -10.3 -31.85 -25.5 -56.0 -25.5 -66.05 -26.6 Q-76.95 -27.2 -92.05 -26.85 L-118.05 -25.5 M-55.25 -24.8 L-51.85 -20.35 -51.45 -19.9 Q-51.1 -19.35 -51.1 -19.05 -51.0 -16.8 -63.0 -15.0 -74.95 -13.2 -91.95 -12.9 L-121.0 -14.0 Q-133.05 -15.35 -133.1 -17.65 -133.1 -18.25 -132.25 -18.75 L-128.7 -23.45 -128.75 -23.35 Q-128.75 -22.2 -117.95 -21.65 -107.2 -21.1 -91.95 -21.45 L-65.95 -22.8 Q-55.95 -23.8 -55.25 -24.8 M-128.35 -21.45 L-130.55 -17.55 -128.35 -16.55 -125.65 -21.25 -128.35 -21.45 M38.2 -10.75 L-36.05 -10.75 -26.15 -24.7 -36.05 -10.75 38.2 -10.75 M-44.7 7.9 L-157.4 7.9 -44.7 7.9 M41.0 1.75 L-41.0 1.6 -45.8 28.05 -41.0 1.6 41.0 1.75 M153.75 7.9 L45.05 7.9 153.75 7.9 M182.4 -6.6 L-181.7 -6.6 182.4 -6.6" fill="#ffffff" fill-opacity="0.0" fill-rule="evenodd" stroke="none"/>
    <path d="M121.45 -25.5 L127.75 -25.5 164.5 -10.3 48.1 -10.3 35.3 -25.5 59.45 -25.5 58.65 -24.95 58.8 -24.7 55.3 -20.35 54.9 -19.9 54.5 -19.05 Q54.45 -16.8 66.4 -15.0 78.4 -13.2 95.4 -12.9 L124.45 -14.0 Q136.5 -15.35 136.55 -17.65 136.55 -18.2 135.7 -18.75 L132.15 -23.5 Q131.45 -24.5 121.45 -25.5 M-56.0 -25.5 L-31.85 -25.5 -44.7 -10.3 -161.1 -10.3 -124.3 -25.5 -118.05 -25.5 Q-128.25 -24.5 -128.7 -23.45 L-132.25 -18.75 Q-133.1 -18.25 -133.1 -17.65 -133.05 -15.35 -121.0 -14.0 L-91.95 -12.9 Q-74.95 -13.2 -63.0 -15.0 -51.0 -16.8 -51.1 -19.05 -51.1 -19.35 -51.45 -19.9 L-51.85 -20.35 -55.25 -24.8 -55.2 -24.95 -56.0 -25.5" fill="#000000" fill-opacity="0.29803923" fill-rule="evenodd" stroke="none"/>
    <path d="M134.0 -17.55 L131.8 -16.55 129.1 -21.25 131.8 -21.45 134.0 -17.55 M-128.35 -21.45 L-125.65 -21.25 -128.35 -16.55 -130.55 -17.55 -128.35 -21.45" fill="#ffffff" fill-opacity="0.6" fill-rule="evenodd" stroke="none"/>
    <path d="M119.7 -22.6 Q125.0 -23.35 119.8 -24.35 L124.6 -23.6 Q128.85 -22.35 111.2 -21.95 L119.7 -22.6 M-116.25 -22.6 L-110.25 -22.05 Q-125.1 -22.45 -121.15 -23.6 L-113.35 -24.8 Q-122.85 -23.55 -116.25 -22.6" fill="#ffffff" fill-opacity="0.4" fill-rule="evenodd" stroke="none"/>
    <path d="M132.15 -23.5 Q131.45 -24.5 121.45 -25.5 M-189.8 -4.9 L-123.3 -28.85 127.05 -28.55 189.85 -4.9 189.85 6.55 170.95 19.05 154.05 19.05 142.25 28.85 48.35 28.85 -47.5 28.85 -142.2 28.85 -154.0 19.05 -170.9 19.05 -189.8 6.55 -189.8 -4.9 M-118.05 -25.5 L-92.05 -26.85 Q-76.95 -27.2 -66.05 -26.6 L-56.0 -25.5 -55.2 -24.95 -55.25 -24.8 -51.85 -20.35 -51.45 -19.9 Q-51.1 -19.35 -51.1 -19.05 -51.0 -16.8 -63.0 -15.0 -74.95 -13.2 -91.95 -12.9 L-121.0 -14.0 Q-133.05 -15.35 -133.1 -17.65 -133.1 -18.25 -132.25 -18.75 L-128.7 -23.45 Q-128.25 -24.5 -118.05 -25.5" fill="none" stroke="#000000" stroke-linecap="butt" stroke-linejoin="miter-clip" stroke-miterlimit="10.0" stroke-width="1.0"/>
    <path d="M33.7 -25.15 L47.45 -9.4 M-26.15 -24.7 L-36.05 -10.75 38.2 -10.75 M-45.8 28.05 L-41.0 1.6 41.0 1.75 M-157.4 7.9 L-44.7 7.9 M45.05 7.9 L153.75 7.9 M-181.7 -6.6 L182.4 -6.6" fill="none" stroke="#ffffff" stroke-linecap="butt" stroke-linejoin="miter-clip" stroke-miterlimit="10.0" stroke-opacity="0.6" stroke-width="1.0"/>
    <path d="M40.0 -9.95 L-38.3 -9.95 -27.0 -25.85 29.05 -25.85 40.0 -9.95 M87.05 -25.3 L83.35 -24.85 Q83.35 -24.05 95.9 -23.8 L108.5 -24.3 Q108.5 -25.1 95.95 -25.35 L87.05 -25.3 M-189.8 -4.9 L189.85 -4.9 M-56.0 -25.5 L-31.85 -25.5 -44.7 -10.3 -161.1 -10.3 -124.3 -25.5 -118.05 -25.5 M-55.25 -24.8 Q-55.95 -23.8 -65.95 -22.8 L-91.95 -21.45 Q-107.2 -21.1 -117.95 -21.65 -128.75 -22.2 -128.75 -23.35 L-128.7 -23.45 M-105.05 -24.3 Q-105.05 -25.1 -92.5 -25.35 L-79.9 -24.85 Q-79.9 -24.05 -92.45 -23.8 L-105.05 -24.3 M-47.5 28.85 L-45.1 16.0 -151.0 16.0 -161.8 6.55 -43.35 6.55 -42.1 -0.2 41.6 -0.2 43.2 6.55 45.4 16.0 48.35 28.85 M-45.1 16.0 L-43.35 6.55 M45.4 16.0 L145.95 16.0 156.75 6.55 43.2 6.55" fill="none" stroke="#000000" stroke-linecap="butt" stroke-linejoin="miter-clip" stroke-miterlimit="10.0" stroke-opacity="0.6" stroke-width="1.0"/>
    <path d="M59.45 -25.5 Q61.55 -26.2 69.45 -26.6 80.35 -27.2 95.45 -26.85 L121.45 -25.5" fill="none" stroke="#000000" stroke-linecap="round" stroke-linejoin="miter-clip" stroke-miterlimit="10.0" stroke-width="1.0"/>
    <path d="M121.45 -25.5 L127.75 -25.5 164.5 -10.3 48.1 -10.3 35.3 -25.5 59.45 -25.5" fill="none" stroke="#000000" stroke-linecap="butt" stroke-linejoin="miter-clip" stroke-miterlimit="10.0" stroke-opacity="0.6" stroke-width="1.0"/>
    <path d="M59.45 -25.5 L58.65 -24.95 58.8 -24.7" fill="none" stroke="#000000" stroke-linecap="round" stroke-linejoin="miter-clip" stroke-miterlimit="10.0" stroke-width="1.0"/>
    <path d="M58.8 -24.7 Q59.8 -23.75 69.35 -22.8 L95.35 -21.45 Q110.6 -21.1 121.35 -21.65 132.15 -22.2 132.2 -23.35 L132.15 -23.5" fill="none" stroke="#000000" stroke-linecap="round" stroke-linejoin="miter-clip" stroke-miterlimit="10.0" stroke-opacity="0.6" stroke-width="1.0"/>
    <path d="M132.15 -23.5 L135.7 -18.75 Q136.55 -18.2 136.55 -17.65 136.5 -15.35 124.45 -14.0 L95.4 -12.9 Q78.4 -13.2 66.4 -15.0 54.45 -16.8 54.5 -19.05 L54.9 -19.9 55.3 -20.35 58.8 -24.7" fill="none" stroke="#000000" stroke-linecap="butt" stroke-linejoin="miter-clip" stroke-miterlimit="10.0" stroke-width="1.0"/>
  </g>
</svg>
