<?xml version="1.0" encoding="UTF-8" standalone="no"?>
<svg xmlns:xlink="http://www.w3.org/1999/xlink" height="6.4px" width="14.15px" xmlns="http://www.w3.org/2000/svg">
  <g transform="matrix(1.0, 0.0, 0.0, 1.0, 7.1, 4.6)">
    <path d="M6.55 0.0 Q6.55 0.55 6.1 0.9 5.7 1.3 5.05 1.3 L-5.1 1.3 Q-5.7 1.3 -6.15 0.9 -6.6 0.55 -6.6 0.0 L-6.15 -0.95 Q-5.7 -1.35 -5.1 -1.35 L5.05 -1.35 Q5.7 -1.35 6.1 -0.95 L6.55 0.0" fill="#ffffff" fill-opacity="0.0" fill-rule="evenodd" stroke="none"/>
    <path d="M6.55 0.0 Q6.55 0.55 6.1 0.9 5.7 1.3 5.05 1.3 L-5.1 1.3 Q-5.7 1.3 -6.15 0.9 -6.6 0.55 -6.6 0.0 L-6.15 -0.95 Q-5.7 -1.35 -5.1 -1.35 L5.05 -1.35 Q5.7 -1.35 6.1 -0.95 L6.55 0.0 Z" fill="none" stroke="#000000" stroke-linecap="butt" stroke-linejoin="miter-clip" stroke-miterlimit="10.0" stroke-opacity="0.6" stroke-width="1.0"/>
    <path d="M3.35 -0.7 Q1.15 0.15 -1.7 -0.25 L-4.05 -0.85 3.35 -0.7" fill="#ffffff" fill-opacity="0.4" fill-rule="evenodd" stroke="none"/>
  </g>
</svg>
