<?xml version="1.0" encoding="UTF-8" standalone="no"?>
<svg xmlns:xlink="http://www.w3.org/1999/xlink" height="27.15px" width="43.0px" xmlns="http://www.w3.org/2000/svg">
  <g transform="matrix(1.0, 0.0, 0.0, 1.0, 20.25, 13.55)">
    <path d="M16.6 -12.75 L16.0 -10.2 17.55 -8.6 Q18.2 -5.75 19.8 -3.5 17.9 -0.95 17.9 0.3 18.55 3.2 17.9 4.45 18.4 6.05 19.2 6.8 L19.3 7.1 19.25 7.2 18.85 7.65 16.95 9.9 16.6 12.1 -0.3 13.1 -18.8 8.3 -19.75 -1.9 -11.45 -11.5 -8.15 -12.25 -2.25 -13.05 2.9 -13.05 7.7 -12.75 16.6 -12.75" fill="#ffffff" fill-opacity="0.0" fill-rule="evenodd" stroke="none"/>
    <path d="M11.6 -6.55 Q11.35 -7.55 10.3 -7.7 10.65 -9.05 12.05 -8.85 13.25 -8.75 14.35 -7.75 14.4 -9.3 12.85 -11.05 12.15 -11.9 14.95 -12.75 L16.6 -12.75 16.0 -10.2 17.55 -8.6 Q18.2 -5.75 19.8 -3.5 17.9 -0.95 17.9 0.3 18.55 3.2 17.9 4.45 18.3 5.8 18.9 6.45 L19.4 7.0 19.5 6.9 19.4 7.05 16.95 9.9 16.6 12.1 -0.3 13.1 -1.25 12.85 -1.2 11.55 1.1 11.55 3.25 11.3 4.3 10.0 Q4.85 9.15 6.35 9.5 6.9 8.3 6.8 6.1 7.7 6.25 9.25 7.05 10.6 7.45 11.5 6.0 11.15 5.55 11.1 4.95 L10.9 3.85 10.05 2.85 Q9.25 2.05 9.25 2.5 9.2 1.1 10.2 0.9 L12.75 0.9 13.3 -2.25 Q13.55 -3.85 11.55 -4.5 L11.6 -6.55" fill="#000000" fill-opacity="0.2" fill-rule="evenodd" stroke="none"/>
    <path d="M-2.5 -2.3 L1.4 -2.2 Q2.2 -1.3 3.8 1.35 L5.45 2.65 Q6.6 3.35 7.05 4.1 L1.35 4.4 Q-1.35 5.55 2.15 8.35 1.3 7.85 0.55 6.75 L-0.6 5.1 Q-1.5 4.35 -2.45 4.05 L-4.7 3.45 Q-3.8 2.1 -1.65 1.95 L2.15 1.6 0.55 -1.15 Q-0.1 -2.05 -2.5 -2.3" fill="#000000" fill-opacity="0.2" fill-rule="evenodd" stroke="none"/>
    <path d="M19.3 7.1 Q20.05 6.25 19.25 7.2 L18.85 7.65 16.95 9.9 16.6 12.1 -0.3 13.1 -18.8 8.3 -19.75 -1.9 -11.45 -11.5 -7.5 -12.25 -0.9 -13.05 2.9 -13.05 7.7 -12.75 16.6 -12.75 16.0 -10.2 17.55 -8.6 M18.85 7.65 Q17.9 8.65 19.1 7.3 L19.3 7.1 19.25 7.2" fill="none" stroke="#000000" stroke-linecap="round" stroke-linejoin="miter-clip" stroke-miterlimit="10.0" stroke-opacity="0.6" stroke-width="1.0"/>
    <path d="M17.35 -9.7 L17.55 -8.6 Q18.2 -5.75 19.8 -3.5 17.9 -0.95 17.9 0.3 18.55 3.2 17.9 4.45 18.4 6.05 19.2 6.8" fill="none" stroke="#000000" stroke-linecap="round" stroke-linejoin="miter-clip" stroke-miterlimit="10.0" stroke-opacity="0.6" stroke-width="1.0"/>
    <path d="M19.2 6.8 L19.3 7.1" fill="none" stroke="#000000" stroke-linecap="butt" stroke-linejoin="miter-clip" stroke-miterlimit="10.0" stroke-opacity="0.6" stroke-width="1.0"/>
  </g>
</svg>
