<?xml version="1.0" encoding="UTF-8" standalone="no"?>
<svg xmlns:xlink="http://www.w3.org/1999/xlink" height="160.3px" width="75.65px" xmlns="http://www.w3.org/2000/svg">
  <g transform="matrix(1.0, 0.0, 0.0, 1.0, 37.8, 80.15)">
    <path d="M1.05 -54.95 L5.05 -54.95 1.05 -54.95 -4.25 -54.95 Q-10.1 -40.0 -14.35 -27.85 -22.35 -4.75 -27.2 15.45 -33.55 41.6 -32.5 56.95 -30.65 82.7 -8.45 74.95 -6.55 74.3 -6.25 75.55 -5.95 76.75 -7.85 77.45 -16.75 80.6 -23.55 79.25 -32.0 77.5 -34.95 68.8 -38.2 59.35 -37.0 45.85 -36.25 37.6 -33.05 22.95 -28.15 0.95 -19.55 -24.35 -14.85 -37.95 -8.2 -54.95 L-11.65 -54.95 -11.65 -79.65 37.35 -79.65 37.35 -54.95 5.05 -54.95 Q0.9 -31.75 -0.85 -14.5 -2.3 -0.1 -2.55 7.0 -3.1 19.15 -1.75 28.45 0.55 45.15 5.15 56.5 12.7 75.35 23.5 68.95 24.5 68.45 26.0 68.6 27.55 68.85 25.95 69.8 13.1 77.25 4.45 63.7 -1.4 54.5 -4.65 37.35 -8.85 14.95 -5.45 -15.25 -4.05 -27.7 1.05 -54.95 M-4.25 -54.95 L-8.2 -54.95 -4.25 -54.95" fill="#ffffff" fill-opacity="0.0" fill-rule="evenodd" stroke="none"/>
    <path d="M5.05 -54.95 L1.05 -54.95 M-8.2 -54.95 L-4.25 -54.95" fill="none" stroke="#000000" stroke-linecap="round" stroke-linejoin="miter-clip" stroke-miterlimit="10.0" stroke-opacity="0.6" stroke-width="1.0"/>
    <path d="M1.05 -54.95 Q-4.05 -27.7 -5.45 -15.25 -8.85 14.95 -4.65 37.35 -1.4 54.5 4.45 63.7 13.1 77.25 25.95 69.8 27.55 68.85 26.0 68.6 24.5 68.45 23.5 68.95 12.7 75.35 5.15 56.5 0.55 45.15 -1.75 28.45 -3.1 19.15 -2.55 7.0 -2.3 -0.1 -0.85 -14.5 0.9 -31.75 5.05 -54.95 L37.35 -54.95 37.35 -79.65 -11.65 -79.65 -11.65 -54.95 -8.2 -54.95 Q-14.85 -37.95 -19.55 -24.35 -28.15 0.95 -33.05 22.95 -36.25 37.6 -37.0 45.85 -38.2 59.35 -34.95 68.8 -32.0 77.5 -23.55 79.25 -16.75 80.6 -7.85 77.45 -5.95 76.75 -6.25 75.55 -6.55 74.3 -8.45 74.95 -30.65 82.7 -32.5 56.95 -33.55 41.6 -27.2 15.45 -22.35 -4.75 -14.35 -27.85 -10.1 -40.0 -4.25 -54.95 L1.05 -54.95" fill="none" stroke="#000000" stroke-linecap="round" stroke-linejoin="miter-clip" stroke-miterlimit="10.0" stroke-width="1.0"/>
  </g>
</svg>
