<?xml version="1.0" encoding="UTF-8" standalone="no"?>
<svg xmlns:xlink="http://www.w3.org/1999/xlink" height="45.45px" width="44.05px" xmlns="http://www.w3.org/2000/svg">
  <g transform="matrix(1.0, 0.0, 0.0, 1.0, 22.05, 20.45)">
    <path d="M-21.5 -15.85 L-18.8 -17.85 -15.55 -19.95 Q-14.85 -19.95 -12.35 -17.8 L-12.7 -17.7 -14.2 -17.75 -21.5 -15.85 -14.2 -17.75 -10.05 19.95 -16.2 16.95 -16.45 -2.9 -10.05 19.95 -16.45 -2.9 -16.2 16.95 -21.5 -15.85" fill="#000000" fill-opacity="0.2" fill-rule="evenodd" stroke="none"/>
    <path d="M19.35 -17.25 L19.65 -17.25 20.25 -17.25 21.5 -17.25 17.0 19.5 -8.2 19.95 Q-4.25 5.5 5.45 -5.35 11.6 -12.25 19.75 -17.25 L19.0 -17.25 19.35 -17.25" fill="#ffffff" fill-opacity="0.0" fill-rule="evenodd" stroke="none"/>
    <path d="M19.0 -17.25 L19.75 -17.25 Q11.6 -12.25 5.45 -5.35 -4.25 5.5 -8.2 19.95 L-9.55 19.95 -8.2 19.95 -9.55 19.95 -9.6 19.95 -10.05 19.95 -14.2 -17.75 -12.7 -17.7 17.75 -17.3 18.0 -17.3 18.75 -17.25 19.0 -17.25" fill="#000000" fill-opacity="0.09803922" fill-rule="evenodd" stroke="none"/>
    <path d="M-8.2 19.95 L17.0 19.5 21.5 -17.25 M-12.7 -17.7 L-12.35 -17.8 Q-14.85 -19.95 -15.55 -19.95 L-18.8 -17.85 -21.5 -15.85 -16.2 16.95 -10.05 19.95 -9.6 19.95 M-14.2 -17.75 L-12.7 -17.7 M-9.55 19.95 L-8.2 19.95" fill="none" stroke="#000000" stroke-linecap="butt" stroke-linejoin="miter-clip" stroke-miterlimit="10.0" stroke-width="1.0"/>
    <path d="M21.5 -17.25 L20.25 -17.25 19.65 -17.25 19.35 -17.25 M-12.7 -17.7 L17.75 -17.3 18.0 -17.3 M-21.5 -15.85 L-14.2 -17.75 -10.05 19.95 -16.45 -2.9 -16.2 16.95" fill="none" stroke="#000000" stroke-linecap="butt" stroke-linejoin="miter-clip" stroke-miterlimit="10.0" stroke-opacity="0.6" stroke-width="1.0"/>
  </g>
</svg>
