<?xml version="1.0" encoding="UTF-8" standalone="no"?>
<svg xmlns:xlink="http://www.w3.org/1999/xlink" height="32.2px" width="39.8px" xmlns="http://www.w3.org/2000/svg">
  <g transform="matrix(1.0, 0.0, 0.0, 1.0, 19.9, 16.1)">
    <path d="M13.55 -12.25 L12.8 -13.3 Q11.95 -14.1 10.85 -14.2 L-9.6 -14.2 Q-10.7 -14.1 -11.55 -13.3 L-12.3 -12.25 -17.55 14.15 -15.85 14.15 -15.35 14.35 -15.15 14.85 -15.35 15.35 Q-15.55 15.55 -15.85 15.6 L-19.3 15.6 -13.65 -12.75 -12.65 -14.15 Q-11.4 -15.45 -9.65 -15.6 L10.9 -15.6 Q12.7 -15.5 13.95 -14.15 14.8 -13.3 14.9 -12.75 L14.95 -12.6 19.3 9.65 17.8 9.65 13.55 -12.25" fill="#ffffff" fill-opacity="0.0" fill-rule="evenodd" stroke="none"/>
    <path d="M13.55 -12.25 L17.8 9.65 19.3 9.65 14.95 -12.6 14.9 -12.75 Q14.8 -13.3 13.95 -14.15 12.7 -15.5 10.9 -15.6 L-9.65 -15.6 Q-11.4 -15.45 -12.65 -14.15 L-13.65 -12.75 -19.3 15.6 -15.85 15.6 Q-15.55 15.55 -15.35 15.35 L-15.15 14.85 -15.35 14.35 -15.85 14.15 -17.55 14.15 -12.3 -12.25 -11.55 -13.3 Q-10.7 -14.1 -9.6 -14.2 L10.85 -14.2 Q11.95 -14.1 12.8 -13.3 L13.55 -12.25 Z" fill="none" stroke="#000000" stroke-linecap="butt" stroke-linejoin="miter-clip" stroke-miterlimit="10.0" stroke-opacity="0.6" stroke-width="1.0"/>
    <path d="M-13.1 -11.4 L-12.85 -12.75 -12.2 -13.75 Q-11.3 -14.8 -9.75 -14.95 L-11.35 -14.05 Q-12.65 -13.05 -13.1 -11.4" fill="#ffffff" fill-opacity="0.6" fill-rule="evenodd" stroke="none"/>
  </g>
</svg>
