<?xml version="1.0" encoding="UTF-8" standalone="no"?>
<svg xmlns:xlink="http://www.w3.org/1999/xlink" height="10.6px" width="33.1px" xmlns="http://www.w3.org/2000/svg">
  <g transform="matrix(1.0, 0.0, 0.0, 1.0, 17.9, 5.3)">
    <path d="M-4.25 -2.3 L-4.25 -3.4 -3.8 -4.05 Q-3.0 -4.65 -1.4 -4.8 L1.05 -4.8 Q2.65 -4.65 3.4 -4.05 L3.85 -3.4 3.85 -2.35 2.35 -2.4 -2.45 -2.4 -4.25 -2.3 -2.45 -2.4 2.35 -2.4 3.85 -2.35 Q6.25 -2.15 8.2 -1.35 L10.15 -0.3 14.65 0.9 Q15.1 1.5 7.6 3.25 L-0.05 4.8 -7.65 3.25 Q-15.15 1.5 -14.75 0.9 L-13.0 0.4 -10.25 -0.3 -8.3 -1.35 Q-6.45 -2.1 -4.25 -2.3 M0.1 -4.05 L-3.45 -3.7 2.15 -3.7 0.1 -4.05 M4.75 -1.2 Q4.45 -1.65 1.45 -1.7 L-4.25 -1.3 -7.8 -0.3 -9.15 0.2 -9.85 0.4 -10.15 0.6 Q-11.05 1.05 -8.6 1.6 L-2.45 2.35 9.85 1.8 Q12.1 0.75 9.35 0.3 L5.15 -0.1 1.65 -0.4 -0.95 -0.5 2.05 -0.6 Q5.0 -0.8 4.75 -1.2" fill="#000000" fill-opacity="0.09803922" fill-rule="evenodd" stroke="none"/>
    <path d="M0.1 -4.05 L2.15 -3.7 -3.45 -3.7 0.1 -4.05" fill="#ffffff" fill-opacity="0.6" fill-rule="evenodd" stroke="none"/>
    <path d="M4.75 -1.2 Q5.0 -0.8 2.05 -0.6 L-0.95 -0.5 1.65 -0.4 5.15 -0.1 9.35 0.3 Q12.1 0.75 9.85 1.8 L-2.45 2.35 -8.6 1.6 Q-11.05 1.05 -10.15 0.6 L-9.85 0.4 -9.15 0.2 -7.8 -0.3 -4.25 -1.3 1.45 -1.7 Q4.45 -1.65 4.75 -1.2" fill="#ffffff" fill-opacity="0.4" fill-rule="evenodd" stroke="none"/>
    <path d="M3.85 -2.35 L3.85 -3.4 3.4 -4.05 Q2.65 -4.65 1.05 -4.8 L-1.4 -4.8 Q-3.0 -4.65 -3.8 -4.05 L-4.25 -3.4 -4.25 -2.3 Q-6.45 -2.1 -8.3 -1.35 L-10.25 -0.3 -13.0 0.4 -14.75 0.9 Q-15.15 1.5 -7.65 3.25 L-0.05 4.8 7.6 3.25 Q15.1 1.5 14.65 0.9 L10.15 -0.3 8.2 -1.35 Q6.25 -2.15 3.85 -2.35" fill="none" stroke="#000000" stroke-linecap="butt" stroke-linejoin="miter-clip" stroke-miterlimit="10.0" stroke-width="1.0"/>
    <path d="M-4.25 -2.3 L-2.45 -2.4 2.35 -2.4 3.85 -2.35 Z" fill="none" stroke="#000000" stroke-linecap="butt" stroke-linejoin="miter-clip" stroke-miterlimit="10.0" stroke-opacity="0.6" stroke-width="1.0"/>
  </g>
</svg>
