<?xml version="1.0" encoding="UTF-8" standalone="no"?>
<svg xmlns:xlink="http://www.w3.org/1999/xlink" height="61.65px" width="295.0px" xmlns="http://www.w3.org/2000/svg">
  <g transform="matrix(1.0, 0.0, 0.0, 1.0, 147.2, 30.55)">
    <path d="M-127.4 20.4 Q-127.4 24.4 -130.2 27.25 -133.0 30.05 -137.05 30.05 -141.05 30.05 -143.9 27.25 -146.7 24.4 -146.7 20.4 L-146.7 -20.4 Q-146.7 -24.45 -143.9 -27.25 -141.05 -30.05 -137.05 -30.05 -133.0 -30.05 -130.2 -27.25 -127.4 -24.45 -127.4 -20.4 L-127.4 20.4" fill="#ffffff" fill-opacity="0.0" fill-rule="evenodd" stroke="none"/>
    <path d="M-127.4 20.4 Q-127.4 24.4 -130.2 27.25 -133.0 30.05 -137.05 30.05 -141.05 30.05 -143.9 27.25 -146.7 24.4 -146.7 20.4 L-146.7 -20.4 Q-146.7 -24.45 -143.9 -27.25 -141.05 -30.05 -137.05 -30.05 -133.0 -30.05 -130.2 -27.25 -127.4 -24.45 -127.4 -20.4 L-127.4 20.4 Z" fill="none" stroke="#000000" stroke-linecap="butt" stroke-linejoin="miter-clip" stroke-miterlimit="10.0" stroke-opacity="0.6" stroke-width="1.0"/>
    <path d="M146.75 20.4 Q146.75 24.4 143.95 27.25 141.1 30.05 137.1 30.05 133.1 30.05 130.25 27.25 127.45 24.4 127.45 20.4 L127.45 -20.4 Q127.45 -24.45 130.25 -27.25 133.1 -30.05 137.1 -30.05 141.1 -30.05 143.95 -27.25 146.75 -24.45 146.75 -20.4 L146.75 20.4" fill="#ffffff" fill-opacity="0.0" fill-rule="evenodd" stroke="none"/>
    <path d="M146.75 20.4 Q146.75 24.4 143.95 27.25 141.1 30.05 137.1 30.05 133.1 30.05 130.25 27.25 127.45 24.4 127.45 20.4 L127.45 -20.4 Q127.45 -24.45 130.25 -27.25 133.1 -30.05 137.1 -30.05 141.1 -30.05 143.95 -27.25 146.75 -24.45 146.75 -20.4 L146.75 20.4 Z" fill="none" stroke="#000000" stroke-linecap="butt" stroke-linejoin="miter-clip" stroke-miterlimit="10.0" stroke-opacity="0.6" stroke-width="1.0"/>
    <path d="M-140.3 -25.55 L-140.3 21.65 Q-142.15 11.2 -143.1 0.05 -144.95 -22.2 -140.3 -25.55" fill="#ffffff" fill-opacity="0.6" fill-rule="evenodd" stroke="none"/>
    <path d="M135.1 -25.55 L135.1 21.65 Q133.25 11.2 132.3 0.05 130.45 -22.2 135.1 -25.55" fill="#ffffff" fill-opacity="0.6" fill-rule="evenodd" stroke="none"/>
  </g>
</svg>
