<?xml version="1.0" encoding="UTF-8" standalone="no"?>
<svg xmlns:xlink="http://www.w3.org/1999/xlink" height="49.65px" width="49.65px" xmlns="http://www.w3.org/2000/svg">
  <g transform="matrix(1.0, 0.0, 0.0, 1.0, 24.8, 24.8)">
    <path d="M-17.2 -17.2 Q-10.05 -24.3 0.0 -24.3 10.1 -24.3 17.2 -17.2 24.35 -10.05 24.35 0.0 24.35 10.1 17.2 17.25 10.1 24.35 0.0 24.35 -10.1 24.35 -17.2 17.25 -24.3 10.1 -24.3 0.0 -24.3 -10.05 -17.2 -17.2" fill="#ffffff" fill-opacity="0.0" fill-rule="evenodd" stroke="none"/>
    <path d="M-5.7 -23.6 Q-9.95 -20.75 -12.4 -16.3 -14.95 -11.7 -14.95 -6.4 -14.95 2.2 -8.85 8.25 -2.8 14.35 5.8 14.35 11.65 14.35 16.6 11.3 21.45 8.3 24.1 3.3 22.9 12.25 16.1 18.3 9.2 24.35 0.0 24.35 -10.1 24.35 -17.2 17.25 -24.3 10.1 -24.3 0.0 -24.3 -8.5 -19.0 -15.15 -13.8 -21.7 -5.7 -23.6" fill="#000000" fill-opacity="0.09803922" fill-rule="evenodd" stroke="none"/>
    <path d="M-16.9 17.5 L-15.05 17.1 -10.5 15.45 Q-3.2 12.35 1.2 6.8 L3.6 7.7 9.4 9.35 Q18.45 11.45 22.5 9.35" fill="none" stroke="#000000" stroke-linecap="butt" stroke-linejoin="miter-clip" stroke-miterlimit="10.0" stroke-opacity="0.6" stroke-width="1.0"/>
    <path d="M-5.6 23.7 L-3.6 23.0 Q-1.15 22.0 1.1 20.6 8.2 16.2 10.5 9.55" fill="none" stroke="#000000" stroke-linecap="butt" stroke-linejoin="miter-clip" stroke-miterlimit="10.0" stroke-opacity="0.6" stroke-width="1.0"/>
    <path d="M19.55 10.2 L19.35 11.05 18.65 13.2 Q17.15 16.8 14.15 19.8" fill="none" stroke="#000000" stroke-linecap="butt" stroke-linejoin="miter-clip" stroke-miterlimit="10.0" stroke-opacity="0.6" stroke-width="1.0"/>
    <path d="M-14.25 -19.7 L-11.2 -21.05 Q-7.55 -22.3 -4.4 -21.7 L-1.95 -22.9 Q1.05 -24.1 3.65 -24.05" fill="none" stroke="#000000" stroke-linecap="butt" stroke-linejoin="miter-clip" stroke-miterlimit="10.0" stroke-opacity="0.6" stroke-width="1.0"/>
    <path d="M-4.4 -21.7 L1.2 6.8" fill="none" stroke="#000000" stroke-linecap="butt" stroke-linejoin="miter-clip" stroke-miterlimit="10.0" stroke-opacity="0.6" stroke-width="1.0"/>
    <path d="M-3.2 -15.4 L-0.8 -16.2 5.15 -17.35 Q14.7 -18.3 20.6 -12.95" fill="none" stroke="#000000" stroke-linecap="butt" stroke-linejoin="miter-clip" stroke-miterlimit="10.0" stroke-opacity="0.6" stroke-width="1.0"/>
    <path d="M-0.85 -3.55 L2.05 -3.85 9.0 -4.1 Q19.75 -3.95 24.35 -0.55" fill="none" stroke="#000000" stroke-linecap="butt" stroke-linejoin="miter-clip" stroke-miterlimit="10.0" stroke-opacity="0.6" stroke-width="1.0"/>
    <path d="M-12.2 -21.0 L-13.45 -18.5 Q-14.7 -15.25 -15.0 -11.45 -15.85 0.65 -6.3 13.3" fill="none" stroke="#000000" stroke-linecap="butt" stroke-linejoin="miter-clip" stroke-miterlimit="10.0" stroke-opacity="0.6" stroke-width="1.0"/>
    <path d="M-22.65 -8.85 L-23.05 -6.4 Q-23.35 -3.35 -23.0 -0.15 -21.85 9.9 -14.2 16.8" fill="none" stroke="#000000" stroke-linecap="butt" stroke-linejoin="miter-clip" stroke-miterlimit="10.0" stroke-opacity="0.6" stroke-width="1.0"/>
    <path d="M-17.2 -17.2 Q-10.05 -24.3 0.0 -24.3 10.1 -24.3 17.2 -17.2 24.35 -10.05 24.35 0.0 24.35 10.1 17.2 17.25 10.1 24.35 0.0 24.35 -10.1 24.35 -17.2 17.25 -24.3 10.1 -24.3 0.0 -24.3 -10.05 -17.2 -17.2 Z" fill="none" stroke="#000000" stroke-linecap="butt" stroke-linejoin="miter-clip" stroke-miterlimit="10.0" stroke-opacity="0.6" stroke-width="1.0"/>
  </g>
</svg>
