<?xml version="1.0" encoding="UTF-8" standalone="no"?>
<svg xmlns:xlink="http://www.w3.org/1999/xlink" height="39.1px" width="318.15px" xmlns="http://www.w3.org/2000/svg">
  <g transform="matrix(1.0, 0.0, 0.0, 1.0, 159.05, 19.55)">
    <path d="M-157.65 -17.0 Q-157.0 -19.05 -154.3 -19.05 L-151.7 -18.65 Q-137.6 -13.35 -75.0 -11.65 -39.4 -10.75 -1.3 -11.15 L1.3 -11.15 Q39.4 -10.75 74.95 -11.65 137.6 -13.35 151.7 -18.65 L154.3 -19.05 Q157.0 -19.05 157.65 -17.0 L158.55 -10.1 Q158.9 -1.65 156.55 6.05 L154.35 8.35 Q151.3 10.95 146.9 11.95 L98.3 15.8 Q41.5 19.55 0.0 18.95 -41.45 19.55 -98.3 15.8 L-146.9 11.95 Q-151.25 10.95 -154.35 8.35 L-156.6 6.05 Q-158.9 -1.65 -158.5 -10.1 L-157.65 -17.0" fill="#ffffff" fill-opacity="0.4" fill-rule="evenodd" stroke="none"/>
    <path d="M-157.65 -17.0 L-158.5 -10.1 Q-158.9 -1.65 -156.6 6.05 L-154.35 8.35 Q-151.25 10.95 -146.9 11.95 L-98.3 15.8 Q-41.45 19.55 0.0 18.95 41.5 19.55 98.3 15.8 L146.9 11.95 Q151.3 10.95 154.35 8.35 L156.55 6.05 Q158.9 -1.65 158.55 -10.1 L157.65 -17.0 Q157.0 -19.05 154.3 -19.05 L151.7 -18.65" fill="none" stroke="#000000" stroke-linecap="butt" stroke-linejoin="miter-clip" stroke-miterlimit="10.0" stroke-width="1.0"/>
    <path d="M151.7 -18.65 Q137.6 -13.35 74.95 -11.65 39.4 -10.75 1.3 -11.15 L-1.3 -11.15 Q-39.4 -10.75 -75.0 -11.65 -137.6 -13.35 -151.7 -18.65 L-154.3 -19.05 Q-157.0 -19.05 -157.65 -17.0 Z" fill="none" stroke="#000000" stroke-linecap="butt" stroke-linejoin="miter-clip" stroke-miterlimit="10.0" stroke-opacity="0.6" stroke-width="1.0"/>
  </g>
</svg>
