<?xml version="1.0" encoding="UTF-8" standalone="no"?>
<svg xmlns:xlink="http://www.w3.org/1999/xlink" height="109.7px" width="103.0px" xmlns="http://www.w3.org/2000/svg">
  <g transform="matrix(1.0, 0.0, 0.0, 1.0, 51.5, 54.85)">
    <path d="M51.0 -49.6 L51.0 54.35 -51.0 54.35 -51.0 -49.6 -33.85 -54.35 34.8 -54.35 51.0 -49.6 -51.0 -49.6 51.0 -49.6" fill="#ffffff" fill-opacity="0.0" fill-rule="evenodd" stroke="none"/>
    <path d="M51.0 -49.6 L51.0 54.35 -51.0 54.35 -51.0 -49.6 -33.85 -54.35 34.8 -54.35 51.0 -49.6" fill="none" stroke="#000000" stroke-linecap="round" stroke-linejoin="miter-clip" stroke-miterlimit="10.0" stroke-width="1.0"/>
    <path d="M51.0 -49.6 L-51.0 -49.6" fill="none" stroke="#000000" stroke-linecap="round" stroke-linejoin="miter-clip" stroke-miterlimit="10.0" stroke-opacity="0.6" stroke-width="1.0"/>
    <path d="M0.55 -23.85 L-4.15 -28.6 0.55 -33.3 5.25 -28.6 0.55 -23.85" fill="#000000" fill-opacity="0.2" fill-rule="evenodd" stroke="none"/>
    <path d="M0.55 -13.3 L-4.2 -18.05 0.55 -22.75 5.25 -18.05 0.55 -13.3" fill="#000000" fill-opacity="0.2" fill-rule="evenodd" stroke="none"/>
    <path d="M0.5 -2.75 L-4.2 -7.5 0.55 -12.2 5.25 -7.5 0.5 -2.75" fill="#000000" fill-opacity="0.2" fill-rule="evenodd" stroke="none"/>
    <path d="M0.5 7.8 L-4.2 3.05 0.5 -1.65 5.25 3.05 0.5 7.8" fill="#000000" fill-opacity="0.2" fill-rule="evenodd" stroke="none"/>
    <path d="M0.5 18.35 L-4.2 13.6 0.5 8.9 5.2 13.6 0.5 18.35" fill="#000000" fill-opacity="0.2" fill-rule="evenodd" stroke="none"/>
    <path d="M0.5 28.9 L-4.25 24.15 0.5 19.45 5.2 24.15 0.5 28.9" fill="#000000" fill-opacity="0.2" fill-rule="evenodd" stroke="none"/>
    <path d="M0.45 39.4 L-4.25 34.7 0.5 30.0 5.2 34.7 0.45 39.4" fill="#000000" fill-opacity="0.2" fill-rule="evenodd" stroke="none"/>
    <path d="M10.25 -23.85 L5.55 -28.6 10.25 -33.3 15.0 -28.55 10.25 -23.85" fill="#000000" fill-opacity="0.2" fill-rule="evenodd" stroke="none"/>
    <path d="M10.25 -13.3 L5.55 -18.05 10.25 -22.75 14.95 -18.0 10.25 -13.3" fill="#000000" fill-opacity="0.2" fill-rule="evenodd" stroke="none"/>
    <path d="M10.25 -2.75 L5.5 -7.5 10.25 -12.2 14.95 -7.45 10.25 -2.75" fill="#000000" fill-opacity="0.2" fill-rule="evenodd" stroke="none"/>
    <path d="M10.2 7.8 L5.5 3.05 10.25 -1.65 14.95 3.1 10.2 7.8" fill="#000000" fill-opacity="0.2" fill-rule="evenodd" stroke="none"/>
    <path d="M10.2 18.35 L5.5 13.6 10.2 8.9 14.95 13.65 10.2 18.35" fill="#000000" fill-opacity="0.2" fill-rule="evenodd" stroke="none"/>
    <path d="M10.2 28.9 L5.5 24.15 10.2 19.45 14.9 24.15 10.2 28.9" fill="#000000" fill-opacity="0.2" fill-rule="evenodd" stroke="none"/>
    <path d="M10.2 39.45 L5.45 34.7 10.2 30.0 14.9 34.7 10.2 39.45" fill="#000000" fill-opacity="0.2" fill-rule="evenodd" stroke="none"/>
    <path d="M19.95 -23.7 L15.25 -28.45 20.0 -33.15 24.7 -28.4 19.95 -23.7" fill="#000000" fill-opacity="0.2" fill-rule="evenodd" stroke="none"/>
    <path d="M19.95 -13.15 L15.25 -17.9 19.95 -22.6 24.7 -17.85 19.95 -13.15" fill="#000000" fill-opacity="0.2" fill-rule="evenodd" stroke="none"/>
    <path d="M19.95 -2.6 L15.25 -7.35 19.95 -12.05 24.65 -7.3 19.95 -2.6" fill="#000000" fill-opacity="0.2" fill-rule="evenodd" stroke="none"/>
    <path d="M19.95 7.95 L15.2 3.2 19.95 -1.5 24.65 3.25 19.95 7.95" fill="#000000" fill-opacity="0.2" fill-rule="evenodd" stroke="none"/>
    <path d="M19.9 18.5 L15.2 13.75 19.95 9.05 24.65 13.8 19.9 18.5" fill="#000000" fill-opacity="0.2" fill-rule="evenodd" stroke="none"/>
    <path d="M19.9 29.05 L15.2 24.3 19.9 19.6 24.65 24.3 19.9 29.05" fill="#000000" fill-opacity="0.2" fill-rule="evenodd" stroke="none"/>
    <path d="M19.9 39.6 L15.2 34.85 19.9 30.15 24.6 34.85 19.9 39.6" fill="#000000" fill-opacity="0.2" fill-rule="evenodd" stroke="none"/>
    <path d="M29.7 -23.7 L25.0 -28.4 29.7 -33.15 34.4 -28.4 29.7 -23.7" fill="#000000" fill-opacity="0.2" fill-rule="evenodd" stroke="none"/>
    <path d="M29.7 -13.15 L24.95 -17.85 29.7 -22.6 34.4 -17.85 29.7 -13.15" fill="#000000" fill-opacity="0.2" fill-rule="evenodd" stroke="none"/>
    <path d="M29.65 -2.6 L24.95 -7.3 29.65 -12.05 34.4 -7.3 29.65 -2.6" fill="#000000" fill-opacity="0.2" fill-rule="evenodd" stroke="none"/>
    <path d="M29.65 7.95 L24.95 3.25 29.65 -1.5 34.4 3.25 29.65 7.95" fill="#000000" fill-opacity="0.2" fill-rule="evenodd" stroke="none"/>
    <path d="M29.65 18.5 L24.95 13.8 29.65 9.05 34.35 13.8 29.65 18.5" fill="#000000" fill-opacity="0.2" fill-rule="evenodd" stroke="none"/>
    <path d="M29.65 29.05 L24.9 24.3 29.65 19.6 34.35 24.35 29.65 29.05" fill="#000000" fill-opacity="0.2" fill-rule="evenodd" stroke="none"/>
    <path d="M29.6 39.6 L24.9 34.85 29.6 30.15 34.35 34.9 29.6 39.6" fill="#000000" fill-opacity="0.2" fill-rule="evenodd" stroke="none"/>
    <path d="M-9.3 -33.15 L-4.6 -28.45 -9.3 -23.75 -14.0 -28.45 -9.3 -33.15" fill="#ffffff" fill-opacity="0.4" fill-rule="evenodd" stroke="none"/>
    <path d="M-9.3 -22.65 L-4.6 -17.9 -9.3 -13.2 -14.05 -17.9 -9.3 -22.65" fill="#ffffff" fill-opacity="0.4" fill-rule="evenodd" stroke="none"/>
    <path d="M-9.3 -12.1 L-4.6 -7.35 -9.35 -2.65 -14.05 -7.35 -9.3 -12.1" fill="#ffffff" fill-opacity="0.4" fill-rule="evenodd" stroke="none"/>
    <path d="M-14.05 3.2 L-9.35 -1.55 -4.6 3.2 -9.35 7.9 -14.05 3.2" fill="#ffffff" fill-opacity="0.4" fill-rule="evenodd" stroke="none"/>
    <path d="M-9.35 9.0 L-4.65 13.75 -9.35 18.45 -14.05 13.75 -9.35 9.0" fill="#ffffff" fill-opacity="0.4" fill-rule="evenodd" stroke="none"/>
    <path d="M-9.35 19.55 L-4.65 24.3 -9.35 29.0 -14.1 24.3 -9.35 19.55" fill="#ffffff" fill-opacity="0.4" fill-rule="evenodd" stroke="none"/>
    <path d="M-9.35 30.1 L-4.65 34.85 -9.4 39.55 -14.1 34.85 -9.35 30.1" fill="#ffffff" fill-opacity="0.4" fill-rule="evenodd" stroke="none"/>
    <path d="M-19.15 -23.75 L-23.9 -28.45 -19.15 -33.2 -14.45 -28.45 -19.15 -23.75" fill="#ffffff" fill-opacity="0.4" fill-rule="evenodd" stroke="none"/>
    <path d="M-19.2 -13.2 L-23.9 -17.9 -19.15 -22.65 -14.45 -17.9 -19.2 -13.2" fill="#ffffff" fill-opacity="0.4" fill-rule="evenodd" stroke="none"/>
    <path d="M-19.2 -2.65 L-23.9 -7.4 -19.2 -12.1 -14.45 -7.35 -19.2 -2.65" fill="#ffffff" fill-opacity="0.4" fill-rule="evenodd" stroke="none"/>
    <path d="M-19.2 7.9 L-23.9 3.15 -19.2 -1.55 -14.5 3.2 -19.2 7.9" fill="#ffffff" fill-opacity="0.4" fill-rule="evenodd" stroke="none"/>
    <path d="M-19.2 18.45 L-23.95 13.7 -19.2 9.0 -14.5 13.75 -19.2 18.45" fill="#ffffff" fill-opacity="0.4" fill-rule="evenodd" stroke="none"/>
    <path d="M-19.25 29.0 L-23.95 24.25 -19.2 19.55 -14.5 24.3 -19.25 29.0" fill="#ffffff" fill-opacity="0.4" fill-rule="evenodd" stroke="none"/>
    <path d="M-19.25 39.55 L-23.95 34.8 -19.25 30.1 -14.5 34.85 -19.25 39.55" fill="#ffffff" fill-opacity="0.4" fill-rule="evenodd" stroke="none"/>
    <path d="M-28.9 -23.75 L-33.6 -28.5 -28.85 -33.2 -24.15 -28.45 -28.9 -23.75" fill="#ffffff" fill-opacity="0.4" fill-rule="evenodd" stroke="none"/>
    <path d="M-28.9 -13.2 L-33.6 -17.95 -28.9 -22.65 -24.15 -17.9 -28.9 -13.2" fill="#ffffff" fill-opacity="0.4" fill-rule="evenodd" stroke="none"/>
    <path d="M-28.9 -2.65 L-33.6 -7.4 -28.9 -12.1 -24.2 -7.4 -28.9 -2.65" fill="#ffffff" fill-opacity="0.4" fill-rule="evenodd" stroke="none"/>
    <path d="M-28.9 7.9 L-33.65 3.15 -28.9 -1.55 -24.2 3.15 -28.9 7.9" fill="#ffffff" fill-opacity="0.4" fill-rule="evenodd" stroke="none"/>
    <path d="M-28.95 18.45 L-33.65 13.7 -28.9 9.0 -24.2 13.7 -28.95 18.45" fill="#ffffff" fill-opacity="0.4" fill-rule="evenodd" stroke="none"/>
    <path d="M-28.95 29.0 L-33.65 24.25 -28.95 19.55 -24.2 24.25 -28.95 29.0" fill="#ffffff" fill-opacity="0.4" fill-rule="evenodd" stroke="none"/>
    <path d="M-28.95 39.55 L-33.65 34.8 -28.95 30.1 -24.25 34.8 -28.95 39.55" fill="#ffffff" fill-opacity="0.4" fill-rule="evenodd" stroke="none"/>
  </g>
</svg>
