<?xml version="1.0" encoding="UTF-8" standalone="no"?>
<svg xmlns:xlink="http://www.w3.org/1999/xlink" height="88.05px" width="8.1px" xmlns="http://www.w3.org/2000/svg">
  <g transform="matrix(1.0, 0.0, 0.0, 1.0, 4.05, 44.0)">
    <path d="M3.55 -40.45 L3.55 40.55 Q3.55 41.8 2.5 42.65 1.45 43.55 0.0 43.55 -1.45 43.55 -2.5 42.65 -3.55 41.8 -3.55 40.55 L-3.55 -40.45 Q-3.55 -41.7 -2.5 -42.6 -1.45 -43.5 0.0 -43.5 1.45 -43.5 2.5 -42.6 3.55 -41.7 3.55 -40.45" fill="#ffffff" fill-opacity="0.0" fill-rule="evenodd" stroke="none"/>
    <path d="M3.55 -40.45 L3.55 40.55 Q3.55 41.8 2.5 42.65 1.45 43.55 0.0 43.55 -1.45 43.55 -2.5 42.65 -3.55 41.8 -3.55 40.55 L-3.55 -40.45 Q-3.55 -41.7 -2.5 -42.6 -1.45 -43.5 0.0 -43.5 1.45 -43.5 2.5 -42.6 3.55 -41.7 3.55 -40.45 Z" fill="none" stroke="#000000" stroke-linecap="butt" stroke-linejoin="miter-clip" stroke-miterlimit="10.0" stroke-opacity="0.6" stroke-width="1.0"/>
    <path d="M2.3 -40.65 L2.3 21.6 Q2.3 22.2 1.9 22.6 1.45 23.0 0.85 23.0 0.25 23.0 -0.15 22.6 -0.55 22.2 -0.55 21.6 L-0.55 -40.65 Q-0.55 -41.25 -0.15 -41.65 0.25 -42.05 0.85 -42.05 1.45 -42.05 1.9 -41.65 2.3 -41.25 2.3 -40.65" fill="#000000" fill-opacity="0.2" fill-rule="evenodd" stroke="none"/>
  </g>
</svg>
