<?xml version="1.0" encoding="UTF-8" standalone="no"?>
<svg xmlns:xlink="http://www.w3.org/1999/xlink" height="59.65px" width="85.9px" xmlns="http://www.w3.org/2000/svg">
  <g transform="matrix(1.0, 0.0, 0.0, 1.0, 42.65, 29.8)">
    <path d="M-40.5 26.7 Q-41.65 26.0 -42.0 24.7 L-42.15 23.55 -42.15 -25.4 42.2 -25.4 42.2 23.55 Q42.2 24.9 41.3 25.45 37.75 27.7 27.15 28.6 17.9 29.35 -0.65 29.35 -17.4 29.35 -28.4 28.55 -38.7 27.85 -40.5 26.7" fill="#ffffff" fill-opacity="0.0" fill-rule="evenodd" stroke="none"/>
    <path d="M27.55 -16.15 L15.5 -15.75 Q16.1 -15.55 17.95 -16.5 L20.6 -17.75 24.0 -18.4 27.4 -18.9 33.75 -20.15 Q37.1 -21.1 39.75 -22.95 L42.2 -24.35 42.2 -5.55 Q39.25 -5.95 33.35 -4.25 27.2 -2.5 24.6 -2.7 27.0 -4.6 31.8 -6.2 37.7 -8.2 39.3 -9.0 L29.55 -8.85 19.9 -10.05 Q21.55 -10.7 29.75 -11.55 36.1 -12.25 39.3 -15.3 35.65 -17.5 27.55 -16.15" fill="#000000" fill-opacity="0.2" fill-rule="evenodd" stroke="none"/>
    <path d="M42.2 16.4 L42.2 23.55 Q42.2 24.9 41.3 25.45 37.35 28.0 24.5 28.75 18.15 27.0 16.35 26.75 L-5.25 25.8 Q2.1 22.65 18.45 21.3 34.45 20.0 42.2 16.4" fill="#000000" fill-opacity="0.2" fill-rule="evenodd" stroke="none"/>
    <path d="M20.8 3.1 L31.05 2.0 Q38.5 0.9 42.2 -1.6 L42.2 4.3 Q37.9 4.65 30.75 4.6 L19.4 4.55 2.75 6.25 Q-7.7 7.05 -13.7 4.05 L3.55 4.3 20.8 3.1" fill="#000000" fill-opacity="0.2" fill-rule="evenodd" stroke="none"/>
    <path d="M29.8 10.0 Q32.25 9.35 36.0 7.75 L42.2 5.15 42.2 15.6 Q39.45 15.45 31.15 17.4 L20.4 17.7 Q30.5 15.95 40.1 12.15 34.1 10.15 22.2 12.35 9.4 14.65 3.95 13.6 L8.1 13.1 12.4 13.15 Q20.0 12.5 29.8 10.0" fill="#000000" fill-opacity="0.2" fill-rule="evenodd" stroke="none"/>
    <path d="M-40.5 26.7 Q-38.7 27.85 -28.4 28.55 -17.4 29.35 -0.65 29.35 17.9 29.35 27.15 28.6 37.75 27.7 41.3 25.45 42.2 24.9 42.2 23.55 L42.2 -25.4 -42.15 -25.4 -42.15 23.55 -42.0 24.7 Q-41.65 26.0 -40.5 26.7 Z" fill="none" stroke="#000000" stroke-linecap="butt" stroke-linejoin="miter-clip" stroke-miterlimit="10.0" stroke-opacity="0.6" stroke-width="1.0"/>
    <path d="M-0.2 -29.3 L29.65 -28.2 Q42.15 -27.1 42.15 -25.5 42.15 -23.9 29.65 -22.75 L-0.2 -21.55 -29.85 -22.7 Q-42.15 -23.8 -42.15 -25.4 -42.15 -27.0 -29.85 -28.15 L-0.2 -29.3" fill="#000000" fill-opacity="0.29803923" fill-rule="evenodd" stroke="none"/>
    <path d="M-0.2 -29.3 L29.65 -28.2 Q42.15 -27.1 42.15 -25.5 42.15 -23.9 29.65 -22.75 L-0.2 -21.55 -29.85 -22.7 Q-42.15 -23.8 -42.15 -25.4 -42.15 -27.0 -29.85 -28.15 L-0.2 -29.3 Z" fill="none" stroke="#000000" stroke-linecap="butt" stroke-linejoin="miter-clip" stroke-miterlimit="10.0" stroke-opacity="0.6" stroke-width="1.0"/>
    <path d="M-40.8 -6.5 Q-40.8 -17.35 -40.1 -22.4 -40.25 -21.0 -28.6 -19.6 -35.7 -19.35 -38.95 -19.55 L-38.95 -15.55 Q-38.65 -13.9 -37.05 -13.4 -39.35 -12.85 -39.7 -9.95 -39.95 -8.2 -39.7 -3.85 L-39.75 -0.75 Q-39.7 1.25 -39.25 2.05 -38.65 3.1 -36.8 3.55 L-34.05 3.95 Q-34.85 4.4 -36.3 4.7 L-38.7 5.25 -37.05 6.4 -38.0 6.4 -38.95 6.5 Q-39.3 9.65 -39.0 12.5 -38.6 16.45 -37.05 16.45 -39.4 17.55 -39.05 21.4 -38.65 25.25 -36.15 25.45 -38.9 25.3 -39.65 24.25 -40.5 23.15 -40.6 19.35 L-40.45 13.35 Q-40.25 9.5 -40.35 7.45 L-40.65 0.5 -40.8 -6.5" fill="#ffffff" fill-opacity="0.4" fill-rule="evenodd" stroke="none"/>
  </g>
</svg>
