<?xml version="1.0" encoding="UTF-8" standalone="no"?>
<svg xmlns:xlink="http://www.w3.org/1999/xlink" height="15.15px" width="48.6px" xmlns="http://www.w3.org/2000/svg">
  <g transform="matrix(1.0, 0.0, 0.0, 1.0, 24.3, 6.7)">
    <path d="M-12.9 0.8 Q-12.9 3.1 -14.5 4.65 -16.1 6.25 -18.35 6.25 -20.6 6.25 -22.2 4.65 -23.8 3.1 -23.8 0.8 -23.8 -1.45 -22.2 -3.05 -20.6 -4.65 -18.35 -4.65 -16.1 -4.65 -14.5 -3.05 -12.9 -1.45 -12.9 0.8" fill="#ffffff" fill-opacity="0.0" fill-rule="evenodd" stroke="none"/>
    <path d="M-12.9 0.8 Q-12.9 3.1 -14.5 4.65 -16.1 6.25 -18.35 6.25 -20.6 6.25 -22.2 4.65 -23.8 3.1 -23.8 0.8 -23.8 -1.45 -22.2 -3.05 -20.6 -4.65 -18.35 -4.65 -16.1 -4.65 -14.5 -3.05 -12.9 -1.45 -12.9 0.8 Z" fill="none" stroke="#000000" stroke-linecap="butt" stroke-linejoin="miter-clip" stroke-miterlimit="10.0" stroke-opacity="0.6" stroke-width="1.0"/>
    <path d="M-16.15 -1.75 Q-16.15 -1.4 -16.65 -1.15 L-17.95 -0.9 -19.2 -1.15 Q-19.75 -1.4 -19.75 -1.75 L-19.2 -2.35 -17.95 -2.6 -16.65 -2.35 Q-16.15 -2.1 -16.15 -1.75" fill="#ffffff" fill-opacity="0.4" fill-rule="evenodd" stroke="none"/>
    <path d="M23.8 -0.75 Q23.8 1.5 22.2 3.1 20.6 4.7 18.35 4.7 16.1 4.7 14.5 3.1 12.9 1.5 12.9 -0.75 12.9 -3.0 14.5 -4.6 16.1 -6.2 18.35 -6.2 20.6 -6.2 22.2 -4.6 23.8 -3.0 23.8 -0.75" fill="#ffffff" fill-opacity="0.0" fill-rule="evenodd" stroke="none"/>
    <path d="M23.8 -0.75 Q23.8 1.5 22.2 3.1 20.6 4.7 18.35 4.7 16.1 4.7 14.5 3.1 12.9 1.5 12.9 -0.75 12.9 -3.0 14.5 -4.6 16.1 -6.2 18.35 -6.2 20.6 -6.2 22.2 -4.6 23.8 -3.0 23.8 -0.75 Z" fill="none" stroke="#000000" stroke-linecap="butt" stroke-linejoin="miter-clip" stroke-miterlimit="10.0" stroke-opacity="0.6" stroke-width="1.0"/>
    <path d="M20.55 -3.3 Q20.55 -2.95 20.05 -2.7 L18.75 -2.45 17.5 -2.7 Q16.95 -2.95 16.95 -3.3 16.95 -3.65 17.5 -3.9 L18.75 -4.15 20.05 -3.9 20.55 -3.3" fill="#ffffff" fill-opacity="0.4" fill-rule="evenodd" stroke="none"/>
  </g>
</svg>
