<?xml version="1.0" encoding="UTF-8" standalone="no"?>
<svg xmlns:xlink="http://www.w3.org/1999/xlink" height="15.35px" width="36.05px" xmlns="http://www.w3.org/2000/svg">
  <g transform="matrix(1.0, 0.0, 0.0, 1.0, 17.85, 7.95)">
    <path d="M-16.25 -1.2 L-14.1 -3.7 Q-11.4 -6.3 -8.6 -6.75 -5.9 -7.15 -1.65 -5.85 L5.6 -3.65 Q9.65 -2.75 13.55 -0.75 17.85 1.5 17.35 2.95 15.8 7.6 9.05 6.75 1.45 5.8 -8.15 3.4 -20.5 0.35 -16.25 -1.2" fill="#ffffff" fill-opacity="0.0" fill-rule="evenodd" stroke="none"/>
    <path d="M-16.25 -1.2 L-14.1 -3.7 Q-11.4 -6.3 -8.6 -6.75 -5.9 -7.15 -1.65 -5.85 L5.6 -3.65 Q9.65 -2.75 13.55 -0.75 17.85 1.5 17.35 2.95 15.8 7.6 9.05 6.75 1.45 5.8 -8.15 3.4 -20.5 0.35 -16.25 -1.2 Z" fill="none" stroke="#000000" stroke-linecap="butt" stroke-linejoin="miter-clip" stroke-miterlimit="10.0" stroke-opacity="0.6" stroke-width="1.0"/>
  </g>
</svg>
