<?xml version="1.0" encoding="UTF-8" standalone="no"?>
<svg xmlns:xlink="http://www.w3.org/1999/xlink" height="12.75px" width="113.25px" xmlns="http://www.w3.org/2000/svg">
  <g transform="matrix(1.0, 0.0, 0.0, 1.0, 56.55, 47.9)">
    <path d="M55.4 -42.35 L55.5 -42.3 54.55 -35.65 54.5 -35.65 55.4 -42.35" fill="#ffffff" fill-rule="evenodd" stroke="none"/>
    <path d="M55.5 -42.3 L55.4 -42.35 Q43.6 -38.95 0.25 -38.65 -35.95 -38.35 -44.1 -39.25 -47.55 -39.6 -50.1 -47.4 L56.2 -47.4 55.5 -42.3" fill="#ffffff" fill-opacity="0.0" fill-rule="evenodd" stroke="none"/>
    <path d="M-50.1 -47.4 Q-47.55 -39.6 -44.1 -39.25 -35.95 -38.35 0.25 -38.65 43.6 -38.95 55.4 -42.35 L54.5 -35.65 -53.1 -35.65 Q-54.5 -45.9 -56.05 -47.4 L-50.1 -47.4" fill="#000000" fill-opacity="0.101960786" fill-rule="evenodd" stroke="none"/>
    <path d="M55.5 -42.3 L56.2 -47.4 -50.1 -47.4 -56.05 -47.4 Q-54.5 -45.9 -53.1 -35.65 L54.5 -35.65 54.55 -35.65 55.5 -42.3 M-53.1 -35.65 L-53.6 -35.65" fill="none" stroke="#231f20" stroke-linecap="butt" stroke-linejoin="round" stroke-width="1.0"/>
  </g>
</svg>
