<?xml version="1.0" encoding="UTF-8" standalone="no"?>
<svg xmlns:xlink="http://www.w3.org/1999/xlink" height="121.0px" width="259.0px" xmlns="http://www.w3.org/2000/svg">
  <g transform="matrix(1.0, 0.0, 0.0, 1.0, 129.5, 60.5)">
    <path d="M16.0 -11.1 Q15.75 -10.85 15.25 -10.75 L15.25 -10.85 16.0 -11.1 M14.9 -10.75 L15.25 -10.85 15.25 -10.75 15.0 -10.75 14.9 -10.75 M43.2 8.9 L42.8 7.0 42.5 5.0 43.2 8.9" fill="#ffffff" fill-rule="evenodd" stroke="none"/>
    <path d="M16.0 -11.1 Q18.6 -12.2 21.0 -14.6 26.85 -20.6 25.35 -31.35 L25.2 -32.3 23.5 -28.25 Q21.3 -23.55 18.95 -20.35 11.45 -10.1 5.2 -18.65 L7.5 -15.15 Q10.55 -11.5 14.5 -10.65 L14.9 -10.75 15.0 -10.75 15.25 -10.75 Q15.75 -10.85 16.0 -11.1 M15.55 -8.95 L15.25 -10.75 15.55 -8.95 11.4 -8.85 Q-25.25 -7.8 -51.7 -7.65 L-68.3 -7.65 -79.2 -7.8 -79.25 -7.8 -79.2 -7.8 -78.65 -2.55 -78.5 -2.3 -73.95 -0.2 -69.1 1.0 -64.15 0.7 -52.5 0.35 -49.95 0.65 Q-41.05 1.8 -35.5 4.35 L-34.15 22.35 -26.5 -2.3 -12.5 -3.3 Q-6.8 -4.0 -3.55 -3.5 L-2.0 -3.2 5.2 -1.0 Q10.05 0.7 15.8 -0.1 L17.1 -0.3 24.2 -2.0 Q26.65 -2.55 35.1 9.2 44.05 21.6 46.5 22.35 L46.3 21.1 Q44.8 16.2 43.45 9.85 L43.35 0.7 Q43.2 -4.15 44.5 -6.0 L53.2 -6.7 59.25 -6.45 Q62.6 -6.0 63.2 -4.65 L63.45 -4.6 63.35 -3.2 63.3 21.1 63.3 21.55 Q63.9 33.5 65.0 42.5 L55.7 46.55 Q48.75 49.5 43.0 49.5 L35.9 48.75 28.0 47.4 26.4 47.2 24.45 38.75 23.65 34.95 24.45 38.75 26.4 47.2 Q16.25 45.85 5.5 47.5 -7.5 49.5 -17.95 49.5 L-35.0 48.5 -46.1 48.0 -58.0 49.0 -59.2 49.1 Q-57.95 43.05 -56.7 35.0 -55.35 26.35 -54.05 15.45 L-52.5 0.35 -54.05 15.45 Q-55.35 26.35 -56.7 35.0 -57.95 43.05 -59.2 49.1 -66.1 49.5 -73.0 47.9 L-79.0 46.0 Q-75.85 39.75 -77.6 11.25 L-79.25 -7.8 -97.5 -8.5 Q-76.0 -44.0 -69.5 -60.0 L39.0 -60.0 55.25 -40.25 Q73.25 -19.0 82.0 -11.5 L81.4 -11.45 64.1 -10.7 21.9 -9.15 21.1 -9.15 15.55 -8.95 M-51.4 -10.65 L-51.7 -7.65 -51.4 -10.65 Q-50.4 -10.55 -48.9 -11.5 -45.75 -13.5 -42.8 -19.3 -45.05 -16.55 -48.55 -15.5 -55.55 -13.45 -61.8 -22.0 L-59.0 -16.85 Q-55.45 -11.5 -51.5 -10.65 L-51.4 -10.65 M46.3 21.1 L47.25 24.15 48.8 28.3 50.5 32.0 48.8 28.3 47.25 24.15 46.3 21.1 M17.1 -0.3 L19.95 16.2 23.65 34.95 19.95 16.2 17.1 -0.3 M-5.5 47.5 Q-6.9 44.75 -8.25 39.85 L-8.5 38.85 Q-10.45 31.75 -12.3 20.65 L-15.0 2.0 Q-18.1 17.1 -22.0 31.85 L-23.0 35.5 -22.0 31.85 Q-18.1 17.1 -15.0 2.0 L-12.3 20.65 Q-10.45 31.75 -8.5 38.85 L-8.25 39.85 Q-6.9 44.75 -5.5 47.5" fill="#ffffff" fill-opacity="0.0" fill-rule="evenodd" stroke="none"/>
    <path d="M15.55 -8.95 L21.1 -9.15 21.9 -9.15 64.1 -10.7 63.7 -7.65 63.45 -4.6 63.2 -4.65 Q62.6 -6.0 59.25 -6.45 L53.2 -6.7 44.5 -6.0 Q43.2 -4.15 43.35 0.7 L43.45 9.85 Q44.8 16.2 46.3 21.1 L46.5 22.35 Q44.05 21.6 35.1 9.2 26.65 -2.55 24.2 -2.0 L17.1 -0.3 15.8 -0.1 Q10.05 0.7 5.2 -1.0 L-2.0 -3.2 -3.55 -3.5 Q-6.8 -4.0 -12.5 -3.3 L-26.5 -2.3 -34.15 22.35 -35.5 4.35 Q-41.05 1.8 -49.95 0.65 L-52.5 0.35 -51.7 -7.65 -52.5 0.35 -64.15 0.7 -69.1 1.0 -73.95 -0.2 -78.5 -2.3 -78.65 -2.55 -79.2 -7.8 -68.3 -7.65 -51.7 -7.65 Q-25.25 -7.8 11.4 -8.85 L15.55 -8.95 16.55 -3.45 15.55 -8.95 M16.55 -3.45 L17.1 -0.3 16.55 -3.45 M43.2 8.9 L43.45 9.85 43.2 8.9 42.5 5.0 42.8 7.0 43.2 8.9 M40.0 -9.0 L42.5 5.0 40.0 -9.0" fill="#000000" fill-opacity="0.2" fill-rule="evenodd" stroke="none"/>
    <path d="M14.9 -10.75 Q13.75 -10.8 13.75 -12.0 13.75 -13.25 15.0 -13.25 16.25 -13.25 16.25 -12.0 L16.0 -11.1 15.25 -10.85 14.9 -10.75 M125.55 41.65 L126.45 41.5 126.5 41.5 Q129.0 41.5 129.0 44.0 129.0 46.5 126.5 46.5 124.0 46.5 124.0 44.0 L124.0 43.85 124.0 43.8 124.0 43.75 Q124.1 42.0 125.55 41.65 M28.6 55.05 L28.95 55.0 29.0 55.0 Q31.5 55.0 31.5 57.5 31.5 60.0 29.0 60.0 26.5 60.0 26.5 57.5 L26.5 57.35 26.5 57.25 26.5 57.2 26.5 57.1 26.5 57.05 Q26.75 55.2 28.6 55.05 M-52.65 -12.0 Q-52.65 -13.25 -51.4 -13.25 -50.15 -13.25 -50.15 -12.0 -50.15 -10.75 -51.4 -10.75 -52.65 -10.75 -52.65 -12.0 M-60.6 55.3 Q-59.5 55.8 -59.5 57.5 -59.5 60.0 -62.0 60.0 -64.5 60.0 -64.5 57.5 -64.5 55.0 -62.0 55.0 -61.2 55.0 -60.6 55.3 M-125.5 56.5 L-124.8 54.95 -125.5 56.5 M-124.8 54.95 Q-124.0 55.55 -124.0 57.0 -124.0 59.5 -126.5 59.5 L-127.6 59.35 Q-129.0 58.85 -129.0 57.0 -129.0 55.15 -127.6 54.65 L-126.5 54.5 Q-125.45 54.5 -124.8 54.95" fill="#000000" fill-opacity="0.4" fill-rule="evenodd" stroke="none"/>
    <path d="M14.9 -10.75 L14.5 -10.65 Q10.55 -11.5 7.5 -15.15 L5.2 -18.65 Q11.45 -10.1 18.95 -20.35 21.3 -23.55 23.5 -28.25 L25.2 -32.3 25.35 -31.35 Q26.85 -20.6 21.0 -14.6 18.6 -12.2 16.0 -11.1 L16.25 -12.0 Q16.25 -13.25 15.0 -13.25 13.75 -13.25 13.75 -12.0 13.75 -10.8 14.9 -10.75 M-51.4 -10.65 L-51.5 -10.65 Q-55.45 -11.5 -59.0 -16.85 L-61.8 -22.0 Q-55.55 -13.45 -48.55 -15.5 -45.05 -16.55 -42.8 -19.3 -45.75 -13.5 -48.9 -11.5 -50.4 -10.55 -51.4 -10.65 M-52.65 -12.0 Q-52.65 -10.75 -51.4 -10.75 -50.15 -10.75 -50.15 -12.0 -50.15 -13.25 -51.4 -13.25 -52.65 -13.25 -52.65 -12.0" fill="#000000" fill-opacity="0.15294118" fill-rule="evenodd" stroke="none"/>
    <path d="M64.1 -10.7 L81.4 -11.45 82.0 -11.5 Q73.25 -19.0 55.25 -40.25 L39.0 -60.0 -69.5 -60.0 Q-76.0 -44.0 -97.5 -8.5 L-79.25 -7.8 -79.2 -7.8 M63.45 -4.6 L63.35 -3.2 63.45 -4.6 63.7 -7.65 64.1 -10.7 M125.55 41.65 Q124.1 42.0 124.0 43.75 L124.0 43.8 124.0 43.85 124.0 44.0 Q124.0 46.5 126.5 46.5 129.0 46.5 129.0 44.0 129.0 41.5 126.5 41.5 L126.45 41.5 125.55 41.65 Q114.25 30.95 97.3 9.15 L82.0 -11.5 M63.35 -3.2 L63.3 21.1 63.3 21.55 Q63.9 33.5 65.0 42.5 L55.7 46.55 Q48.75 49.5 43.0 49.5 L35.9 48.75 28.0 47.4 26.4 47.2 28.6 55.05 28.95 55.0 29.0 55.0 Q31.5 55.0 31.5 57.5 31.5 60.0 29.0 60.0 26.5 60.0 26.5 57.5 L26.5 57.35 26.5 57.25 26.5 57.2 26.5 57.1 26.5 57.05 Q26.75 55.2 28.6 55.05 M-59.2 49.1 L-58.0 49.0 -46.1 48.0 -35.0 48.5 -17.95 49.5 Q-7.5 49.5 5.5 47.5 16.25 45.85 26.4 47.2 M-59.2 49.1 L-60.6 55.3 Q-59.5 55.8 -59.5 57.5 -59.5 60.0 -62.0 60.0 -64.5 60.0 -64.5 57.5 -64.5 55.0 -62.0 55.0 -61.2 55.0 -60.6 55.3 M-79.25 -7.8 L-77.6 11.25 Q-75.85 39.75 -79.0 46.0 L-73.0 47.9 Q-66.1 49.5 -59.2 49.1 M-124.8 54.95 L-125.5 56.5 M-124.8 54.95 Q-125.45 54.5 -126.5 54.5 L-127.6 54.65 Q-129.0 55.15 -129.0 57.0 -129.0 58.85 -127.6 59.35 L-126.5 59.5 Q-124.0 59.5 -124.0 57.0 -124.0 55.55 -124.8 54.95 L-97.5 -8.5" fill="none" stroke="#000000" stroke-linecap="round" stroke-linejoin="round" stroke-width="1.0"/>
    <path d="M14.9 -10.75 Q13.75 -10.8 13.75 -12.0 13.75 -13.25 15.0 -13.25 16.25 -13.25 16.25 -12.0 L16.0 -11.1 Q15.75 -10.85 15.25 -10.75 L15.55 -8.95 21.1 -9.15 21.9 -9.15 64.1 -10.7 M-79.2 -7.8 L-68.3 -7.65 -51.7 -7.65 -51.4 -10.65 M15.25 -10.75 L15.25 -10.85 M15.25 -10.75 L15.0 -10.75 14.9 -10.75 M16.55 -3.45 L15.55 -8.95 11.4 -8.85 Q-25.25 -7.8 -51.7 -7.65 L-52.5 0.35 -54.05 15.45 Q-55.35 26.35 -56.7 35.0 -57.95 43.05 -59.2 49.1 M26.4 47.2 L24.45 38.75 23.65 34.95 M-52.65 -12.0 Q-52.65 -13.25 -51.4 -13.25 -50.15 -13.25 -50.15 -12.0 -50.15 -10.75 -51.4 -10.75 -52.65 -10.75 -52.65 -12.0" fill="none" stroke="#000000" stroke-linecap="round" stroke-linejoin="round" stroke-opacity="0.6" stroke-width="1.0"/>
    <path d="M17.1 -0.3 L16.55 -3.45 M46.3 21.1 Q44.8 16.2 43.45 9.85 L43.2 8.9 42.8 7.0 42.5 5.0 40.0 -9.0 M50.5 32.0 L48.8 28.3 47.25 24.15 46.3 21.1 M23.65 34.95 L19.95 16.2 17.1 -0.3 M-23.0 35.5 L-22.0 31.85 Q-18.1 17.1 -15.0 2.0 L-12.3 20.65 Q-10.45 31.75 -8.5 38.85 L-8.25 39.85 Q-6.9 44.75 -5.5 47.5" fill="none" stroke="#000000" stroke-linecap="round" stroke-linejoin="round" stroke-opacity="0.4" stroke-width="1.0"/>
  </g>
</svg>
