<?xml version="1.0" encoding="UTF-8" standalone="no"?>
<svg xmlns:xlink="http://www.w3.org/1999/xlink" height="149.95px" width="92.9px" xmlns="http://www.w3.org/2000/svg">
  <g transform="matrix(1.0, 0.0, 0.0, 1.0, 46.45, 74.95)">
    <path d="M-41.7 63.3 L-41.7 63.25 -41.25 62.45 -40.65 62.05 Q-39.45 61.35 -36.65 60.7 L-35.75 60.5 -35.05 60.35 -34.5 60.25 Q-30.0 59.25 -27.55 57.45 -23.5 54.5 -18.5 49.75 -15.9 47.25 -14.6 35.85 -13.4 25.55 -13.3 7.95 -13.05 -29.1 -16.0 -44.85 -18.25 -56.95 -24.8 -62.35 -27.6 -64.65 -33.35 -67.75 L-45.95 -74.45 45.95 -74.45 33.35 -67.75 Q27.6 -64.65 24.8 -62.35 18.25 -56.95 16.0 -44.85 13.05 -29.1 13.3 7.95 13.4 25.55 14.6 35.85 15.9 47.25 18.5 49.75 23.5 54.5 27.55 57.45 30.0 59.25 34.5 60.25 L35.05 60.35 35.75 60.5 36.65 60.7 Q39.3 61.3 40.55 62.0 41.0 62.2 41.25 62.45 L41.7 63.25 41.7 63.3 Q41.65 64.0 40.35 64.65 41.65 65.3 41.7 66.05 L41.7 66.1 41.65 66.25 Q41.3 67.65 38.5 69.35 34.95 71.5 30.05 72.15 L17.2 73.7 1.95 74.5 -1.95 74.5 -17.2 73.7 -30.05 72.15 Q-34.95 71.5 -38.5 69.35 -41.3 67.65 -41.65 66.25 L-41.7 66.1 -41.7 66.05 Q-41.65 65.3 -40.35 64.65 -41.65 64.0 -41.7 63.3 M40.35 64.65 Q39.5 65.1 36.5 67.1 33.25 68.95 30.05 69.35 L17.2 70.9 1.95 71.7 -1.95 71.7 -17.2 70.9 -30.05 69.35 Q-33.2 68.95 -36.45 67.1 -39.45 65.1 -40.35 64.65 -39.45 65.1 -36.45 67.1 -33.2 68.95 -30.05 69.35 L-17.2 70.9 -1.95 71.7 1.95 71.7 17.2 70.9 30.05 69.35 Q33.25 68.95 36.5 67.1 39.5 65.1 40.35 64.65" fill="#ffffff" fill-opacity="0.0" fill-rule="evenodd" stroke="none"/>
    <path d="M-41.7 63.3 L-41.7 63.25 -41.25 62.45 -40.65 62.05 Q-39.45 61.35 -36.65 60.7 L-35.75 60.5 -35.05 60.35 -34.5 60.25 Q-30.0 59.25 -27.55 57.45 -23.5 54.5 -18.5 49.75 -15.9 47.25 -14.6 35.85 -13.4 25.55 -13.3 7.95 -13.05 -29.1 -16.0 -44.85 -18.25 -56.95 -24.8 -62.35 -27.6 -64.65 -33.35 -67.75 L-45.95 -74.45 45.95 -74.45 33.35 -67.75 Q27.6 -64.65 24.8 -62.35 18.25 -56.95 16.0 -44.85 13.05 -29.1 13.3 7.95 13.4 25.55 14.6 35.85 15.9 47.25 18.5 49.75 23.5 54.5 27.55 57.45 30.0 59.25 34.5 60.25 L35.05 60.35 35.75 60.5 36.65 60.7 Q39.3 61.3 40.55 62.0 41.0 62.2 41.25 62.45 L41.7 63.25 41.7 63.3 41.7 66.05 41.7 66.1 41.65 66.25 Q41.3 67.65 38.5 69.35 34.95 71.5 30.05 72.15 L17.2 73.7 1.95 74.5 -1.95 74.5 -17.2 73.7 -30.05 72.15 Q-34.95 71.5 -38.5 69.35 -41.3 67.65 -41.65 66.25 L-41.7 66.1 -41.7 66.05 -41.7 63.3" fill="none" stroke="#000000" stroke-linecap="round" stroke-linejoin="round" stroke-width="1.0"/>
    <path d="M-41.7 63.3 Q-41.65 64.0 -40.35 64.65 -39.45 65.1 -36.45 67.1 -33.2 68.95 -30.05 69.35 L-17.2 70.9 -1.95 71.7 1.95 71.7 17.2 70.9 30.05 69.35 Q33.25 68.95 36.5 67.1 39.5 65.1 40.35 64.65 41.65 64.0 41.7 63.3" fill="none" stroke="#000000" stroke-linecap="round" stroke-linejoin="round" stroke-opacity="0.4" stroke-width="1.0"/>
  </g>
</svg>
