<?xml version="1.0" encoding="UTF-8" standalone="no"?>
<svg xmlns:xlink="http://www.w3.org/1999/xlink" height="149.8px" width="252.2px" xmlns="http://www.w3.org/2000/svg">
  <g transform="matrix(1.0, 0.0, 0.0, 1.0, 126.05, 74.85)">
    <path d="M115.75 -41.55 L116.9 -40.35 115.75 -41.55 M125.35 8.85 Q124.95 16.15 124.0 23.6 L125.25 10.35 125.25 10.0 125.35 8.85 M-124.55 29.85 L-124.35 31.1 -124.15 32.55 -124.55 29.85 M-78.1 -47.2 L-78.0 -47.35 -77.9 -47.25 Q-75.7 -45.7 -73.8 -43.7 -75.6 -45.4 -78.1 -47.2 M-75.2 16.55 L-75.4 17.3 -75.4 16.5 -75.2 16.55" fill="#f1f1f2" fill-rule="evenodd" stroke="none"/>
    <path d="M7.4 -44.45 L7.65 -44.4 7.65 -44.35 7.4 -44.45 M66.05 2.3 L66.05 2.1 66.5 2.15 66.05 2.3 M-1.3 -0.15 L-1.3 0.0 -1.6 0.0 -1.3 -0.15 M82.05 64.75 L80.9 64.65 82.05 64.75 M76.35 54.0 L76.5 55.65 76.55 56.65 76.35 54.0" fill="#d9dbdc" fill-rule="evenodd" stroke="none"/>
    <path d="M117.8 -39.25 Q125.9 -28.5 125.65 -1.0 L125.6 -2.95 Q125.4 -24.25 120.15 -35.2 L120.1 -35.35 120.0 -35.5 119.95 -35.65 119.55 -36.4 119.4 -36.65 118.0 -38.9 117.8 -39.25 M113.9 -24.45 L113.4 -24.2 113.5 -24.55 113.9 -24.45 M111.35 -17.05 L111.35 -17.15 111.75 -16.95 111.35 -17.05" fill="#c8cacb" fill-rule="evenodd" stroke="none"/>
    <path d="M89.7 -44.35 L89.7 -44.4 89.7 -44.35 M96.2 -49.3 L97.05 -49.7 98.2 -50.1 96.2 -49.3 M24.35 -59.2 L24.4 -59.15 24.35 -59.1 24.15 -58.9 24.1 -58.85 24.35 -59.2 M22.6 -57.2 L22.25 -56.7 21.85 -56.2 22.6 -57.2 M82.95 51.25 L83.0 52.3 83.0 52.75 82.95 51.25 M-78.95 56.65 L-79.1 55.9 -79.2 55.3 -78.95 56.65" fill="#bbbdbf" fill-rule="evenodd" stroke="none"/>
    <path d="M33.8 -62.85 L33.75 -62.8 33.75 -62.85 33.8 -62.85 M24.4 -59.15 L26.85 -60.25 30.95 -61.9 33.7 -62.9 33.75 -62.85 31.05 -61.9 30.6 -61.75 24.4 -59.15" fill="#aaacaf" fill-rule="evenodd" stroke="none"/>
    <path d="M53.55 -53.9 L55.05 -54.0 55.05 -53.75 53.55 -53.9 M33.8 -62.9 L33.8 -62.85 33.75 -62.85 33.8 -62.9 M13.95 -64.85 L14.05 -64.8 14.85 -63.55 13.95 -64.85 M10.9 -53.2 L11.8 -53.55 11.5 -52.9 10.9 -53.2 M-53.95 -59.5 L-54.7 -59.35 -54.1 -60.1 -53.95 -59.5 M15.15 -43.25 L15.3 -43.2 15.15 -43.2 15.15 -43.25" fill="#d7d8da" fill-rule="evenodd" stroke="none"/>
    <path d="M53.55 -53.9 L55.05 -53.75 60.85 -52.9 61.7 -52.75 Q75.6 -50.05 85.85 -44.35 L88.6 -44.35 Q78.8 -39.65 73.2 -26.7 71.95 -23.85 70.85 -20.3 L63.15 -21.15 Q55.65 -22.0 29.0 -20.65 L9.3 -19.45 29.0 -20.65 Q55.65 -22.0 63.15 -21.15 L70.85 -20.3 Q68.2 -11.9 66.35 0.2 L66.05 2.1 66.05 2.3 Q56.6 5.35 29.65 0.15 21.0 -1.5 11.55 -3.85 L7.85 -4.8 11.55 -3.85 Q21.0 -1.5 29.65 0.15 56.6 5.35 66.05 2.3 L63.15 23.95 Q53.35 26.45 27.65 21.5 L9.55 17.5 27.65 21.5 Q53.35 26.45 63.15 23.95 L62.6 28.1 Q60.65 40.5 57.7 46.75 L56.5 48.85 Q48.55 61.35 28.4 57.0 22.1 55.65 15.3 52.75 12.9 51.6 10.5 50.5 L9.15 39.25 Q7.95 27.6 7.6 17.0 7.2 5.45 7.85 -4.8 8.3 -12.5 9.3 -19.45 10.45 -27.55 12.4 -34.7 13.65 -39.25 15.15 -43.2 L15.3 -43.2 Q21.2 -47.95 28.05 -50.65 39.45 -55.15 53.55 -53.9 M-63.4 -45.65 Q-48.95 -58.05 -22.0 -53.2 -7.3 -50.6 4.5 -44.9 L7.4 -44.45 Q0.0 -35.5 -3.55 -22.25 -9.55 -24.05 -18.1 -25.0 L-31.5 -25.85 Q-49.45 -26.25 -66.6 -24.1 L-71.45 -23.3 -66.6 -24.1 Q-49.45 -26.25 -31.5 -25.85 L-18.1 -25.0 Q-9.55 -24.05 -3.55 -22.25 L-4.95 -16.4 Q-6.6 -8.3 -7.1 2.55 -7.4 8.35 -7.35 14.95 L-7.3 23.15 -7.05 42.6 -7.2 45.4 Q-8.0 56.0 -11.5 59.5 L-12.85 60.65 Q-21.6 66.8 -47.25 59.9 -53.0 58.4 -59.1 56.3 L-65.6 54.0 -72.35 51.3 Q-73.45 45.2 -74.1 38.65 L-54.0 43.65 Q-22.35 50.65 -14.85 48.15 L-7.2 45.4 -14.85 48.15 Q-22.35 50.65 -54.0 43.65 L-74.1 38.65 Q-75.2 28.5 -75.4 17.3 L-75.2 16.55 -75.4 16.5 Q-75.55 5.1 -74.5 -5.1 -73.5 -14.75 -71.45 -23.3 -68.55 -35.55 -63.4 -45.65 M9.55 17.5 L7.6 17.0 9.55 17.5 M115.75 -41.55 Q113.65 -40.7 111.75 -39.1 108.05 -36.05 105.05 -30.35 98.3 -17.6 95.0 8.45 92.7 26.2 92.5 43.1 L92.5 44.1 92.5 50.85 91.8 44.1 91.7 43.15 Q87.6 0.2 93.6 -25.75 95.65 -34.6 98.6 -40.35 L101.2 -44.35 101.3 -44.35 102.05 -44.6 102.5 -44.7 103.2 -44.85 105.35 -45.2 105.85 -45.2 106.75 -45.25 107.2 -45.25 109.7 -44.9 Q113.05 -44.15 115.75 -41.55 M10.25 39.5 L9.15 39.25 10.25 39.5 28.35 43.5 Q47.4 47.15 57.7 46.75 47.4 47.15 28.35 43.5 L10.25 39.5 M-123.2 -13.0 Q-121.95 -20.65 -120.0 -28.35 L-117.2 -38.1 Q-109.7 -47.85 -101.55 -51.0 -98.15 -52.35 -94.6 -52.5 L-88.35 -51.95 -86.5 -51.45 -83.2 -50.25 -78.25 -47.5 -78.0 -47.35 -78.1 -47.2 -78.55 -47.05 Q-86.0 -38.1 -89.95 -24.95 -92.8 -15.5 -93.8 -3.9 -101.05 -3.35 -109.55 -6.3 -114.4 -8.0 -119.05 -10.65 L-123.2 -13.0 -119.05 -10.65 Q-114.4 -8.0 -109.55 -6.3 -101.05 -3.35 -93.8 -3.9 -94.4 2.75 -94.4 10.1 L-94.2 17.3 Q-93.9 26.05 -92.8 37.05 L-92.6 39.15 Q-100.85 40.65 -110.95 37.35 -115.8 35.75 -120.5 33.25 L-124.35 31.1 -120.5 33.25 Q-115.8 35.75 -110.95 37.35 -100.85 40.65 -92.6 39.15 -91.35 51.8 -91.5 54.15 -91.6 55.6 -92.0 56.75 -92.95 59.3 -95.55 60.3 L-103.75 60.55 Q-107.45 59.9 -111.85 58.35 L-115.5 56.9 -117.65 53.0 -117.9 52.5 -118.0 52.3 -118.05 52.15 -124.15 32.55 -124.35 31.1 -124.55 29.85 -125.55 10.1 -125.5 9.05 Q-125.3 3.1 -124.55 -3.3 L-124.5 -3.75 -124.45 -4.25 -123.2 -13.0 M-119.5 -26.5 L-103.85 -26.4 -89.95 -24.95 -103.85 -26.4 -119.5 -26.5 M-125.0 9.05 L-121.25 11.25 Q-116.55 13.75 -111.65 15.35 -102.15 18.45 -94.2 17.3 -102.15 18.45 -111.65 15.35 -116.55 13.75 -121.25 11.25 L-125.0 9.05 M-7.1 2.55 L-13.5 4.8 Q-21.0 7.3 -52.65 0.3 L-74.5 -5.1 -52.65 0.3 Q-21.0 7.3 -13.5 4.8 L-7.1 2.55 M-75.2 16.55 L-54.65 21.65 Q-23.0 28.65 -15.5 26.15 L-7.3 23.15 -15.5 26.15 Q-23.0 28.65 -54.65 21.65 L-75.2 16.55" fill="#ffffff" fill-opacity="0.0" fill-rule="evenodd" stroke="none"/>
    <path d="M88.6 -44.35 L89.7 -44.35 Q82.7 -36.5 79.15 -19.5 L70.85 -20.3 79.15 -19.5 Q77.6 -12.35 76.7 -3.6 74.7 -2.2 72.1 -0.75 L66.5 2.15 72.1 -0.75 Q74.7 -2.2 76.7 -3.6 76.05 2.8 75.7 10.1 L75.45 17.25 70.1 20.6 64.5 23.5 63.15 23.95 64.5 23.5 70.1 20.6 75.45 17.25 Q75.1 28.55 75.55 39.65 L75.65 42.3 76.35 54.0 76.55 56.65 77.25 63.65 77.3 64.3 Q74.5 66.65 71.1 68.35 58.2 74.75 36.8 71.15 L30.35 69.85 19.6 66.85 12.5 64.3 12.4 63.6 11.75 59.3 10.5 50.5 Q12.9 51.6 15.3 52.75 22.1 55.65 28.4 57.0 48.55 61.35 56.5 48.85 L57.7 46.75 Q62.3 46.55 65.15 45.5 L70.75 42.6 75.55 39.65 70.75 42.6 65.15 45.5 Q62.3 46.55 57.7 46.75 60.65 40.5 62.6 28.1 L63.15 23.95 66.05 2.3 66.5 2.15 66.05 2.1 66.35 0.2 Q68.2 -11.9 70.85 -20.3 71.95 -23.85 73.2 -26.7 78.8 -39.65 88.6 -44.35 M-3.55 -22.25 Q0.0 -35.5 7.4 -44.45 L7.65 -44.35 Q3.2 -33.25 0.95 -20.6 -0.85 -10.85 -1.3 -0.15 L-1.6 0.0 -1.3 0.0 Q-1.75 9.3 -1.15 19.35 L-1.05 21.35 Q-0.4 31.1 0.85 39.85 2.35 50.45 4.85 59.55 L6.2 64.3 -0.15 68.05 Q-15.15 75.65 -32.45 74.2 -38.95 73.6 -45.75 71.75 -54.75 69.35 -63.3 64.85 L-70.0 60.9 -70.4 60.8 -71.7 54.8 -72.35 51.3 -65.6 54.0 -59.1 56.3 Q-53.0 58.4 -47.25 59.9 -21.6 66.8 -12.85 60.65 L-11.5 59.5 Q-8.0 56.0 -7.2 45.4 L-7.05 42.6 -7.3 23.15 -7.35 14.95 Q-7.4 8.35 -7.1 2.55 -6.6 -8.3 -4.95 -16.4 L-3.55 -22.25 0.95 -20.6 -3.55 -22.25 M116.9 -40.35 L117.6 -39.45 117.8 -39.25 118.0 -38.9 119.4 -36.65 119.55 -36.4 119.95 -35.65 120.0 -35.5 120.1 -35.35 120.15 -35.2 Q125.4 -24.25 125.6 -2.95 L125.65 -1.0 125.6 0.25 125.5 4.9 125.35 8.85 125.25 10.0 125.25 10.35 124.0 23.6 122.4 34.2 122.35 34.65 121.9 36.9 121.85 37.3 121.35 39.7 Q118.8 52.15 116.0 57.25 L115.95 57.3 115.45 58.05 Q109.4 67.3 95.9 67.0 91.65 66.9 87.2 65.85 L83.6 64.85 83.55 63.55 83.0 52.75 83.0 52.3 82.95 51.25 Q81.25 12.15 89.0 -26.95 L89.25 -27.6 89.4 -28.1 89.5 -28.3 89.85 -29.35 89.95 -29.55 90.05 -29.85 90.2 -30.25 90.45 -30.9 90.7 -31.45 90.8 -31.7 91.0 -32.1 91.05 -32.3 91.2 -32.6 91.25 -32.8 91.35 -33.0 91.55 -33.4 91.65 -33.6 91.85 -34.1 92.0 -34.4 92.2 -34.75 92.3 -34.95 92.4 -35.15 92.55 -35.5 Q94.7 -39.6 97.2 -42.1 L100.0 -44.35 Q101.0 -44.95 102.05 -45.35 L102.35 -45.45 102.65 -45.55 106.35 -45.8 106.55 -45.65 107.2 -45.25 106.75 -45.25 105.85 -45.2 105.35 -45.2 103.2 -44.85 102.05 -44.6 101.3 -44.35 101.2 -44.35 98.6 -40.35 Q95.65 -34.6 93.6 -25.75 87.6 0.2 91.7 43.15 L91.8 44.1 92.5 50.85 92.5 44.1 92.5 43.1 Q92.7 26.2 95.0 8.45 98.3 -17.6 105.05 -30.35 108.05 -36.05 111.75 -39.1 113.65 -40.7 115.75 -41.55 L116.9 -40.35 M111.75 -16.95 Q113.6 -15.45 114.65 -12.3 117.9 -2.3 111.45 20.15 112.4 18.9 113.7 15.75 116.3 9.35 118.15 -0.4 120.45 -12.65 117.15 -21.3 115.7 -25.0 113.9 -24.45 L113.5 -24.55 114.5 -27.85 110.3 -20.1 Q108.15 -15.3 106.25 -9.4 103.7 -1.55 101.55 8.3 99.5 17.75 99.75 28.05 L99.75 29.05 Q99.8 31.1 100.0 33.0 100.55 40.45 102.4 45.6 104.75 52.25 107.95 51.35 111.55 50.4 115.0 39.8 113.7 39.55 112.1 38.15 108.9 35.35 107.25 29.75 105.3 23.05 105.8 13.35 106.45 0.7 111.35 -17.05 L111.75 -16.95 M-93.8 -3.9 Q-92.8 -15.5 -89.95 -24.95 -83.95 -23.85 -80.5 -22.0 -83.95 -23.85 -89.95 -24.95 -86.0 -38.1 -78.55 -47.05 L-78.1 -47.2 Q-75.6 -45.4 -73.8 -43.7 L-75.95 -38.35 Q-78.75 -30.65 -80.5 -22.0 -81.95 -14.9 -82.7 -7.15 L-82.85 -7.2 -82.7 -7.15 Q-83.7 3.1 -83.4 14.5 -83.2 25.1 -81.85 36.75 L-81.75 37.5 -79.2 55.3 -79.1 55.9 -78.95 56.65 -78.35 59.8 Q-81.05 63.4 -84.5 65.2 -91.5 68.9 -101.65 65.1 -106.5 63.25 -111.45 59.9 L-115.5 56.9 -111.85 58.35 Q-107.45 59.9 -103.75 60.55 L-95.55 60.3 Q-92.95 59.3 -92.0 56.75 -91.6 55.6 -91.5 54.15 -91.35 51.8 -92.6 39.15 L-92.8 37.05 Q-93.9 26.05 -94.2 17.3 L-94.4 10.1 Q-94.4 2.75 -93.8 -3.9 -87.9 -4.4 -82.85 -7.2 -87.9 -4.4 -93.8 -3.9 M-1.6 0.0 Q-3.3 1.05 -7.1 2.55 -3.3 1.05 -1.6 0.0 M-1.15 19.35 L-3.6 21.3 Q-4.9 22.1 -7.3 23.15 -4.9 22.1 -3.6 21.3 L-1.15 19.35 M-7.2 45.4 Q-4.4 44.2 -2.95 43.3 -0.95 42.05 0.85 39.85 -0.95 42.05 -2.95 43.3 -4.4 44.2 -7.2 45.4 M-92.6 39.15 Q-88.15 38.35 -84.2 36.15 L-81.85 36.75 -84.2 36.15 Q-88.15 38.35 -92.6 39.15 M-94.2 17.3 Q-89.2 16.6 -84.85 14.15 L-83.4 14.5 -84.85 14.15 Q-89.2 16.6 -94.2 17.3" fill="#000000" fill-opacity="0.101960786" fill-rule="evenodd" stroke="none"/>
    <path d="M55.05 -53.75 L55.05 -54.0 63.7 -54.35 Q78.8 -54.6 90.4 -52.65 90.0 -49.65 88.5 -47.05 91.75 -49.95 92.85 -52.2 L92.95 -52.15 92.95 -52.2 92.95 -52.45 Q94.8 -56.45 90.5 -58.75 L86.0 -60.2 Q89.6 -58.95 90.3 -55.65 75.25 -60.35 42.95 -56.55 L26.9 -54.2 38.5 -59.2 30.8 -58.7 26.8 -58.2 Q28.15 -59.85 32.0 -61.9 L33.75 -62.8 33.8 -62.85 33.8 -62.9 Q40.15 -65.1 46.95 -66.45 74.15 -72.0 97.25 -63.1 L98.5 -62.4 100.8 -60.05 Q102.45 -57.5 101.95 -54.15 101.65 -52.1 101.65 -50.1 100.8 -50.7 98.2 -50.1 L97.05 -49.7 96.2 -49.3 Q91.55 -46.5 89.7 -44.35 L88.6 -44.35 85.85 -44.35 Q75.6 -50.05 61.7 -52.75 L60.85 -52.9 55.05 -53.75 M17.35 -48.4 L28.05 -50.65 Q21.2 -47.95 15.3 -43.2 L15.15 -43.25 17.35 -48.4 M89.7 -44.35 L89.7 -44.4 89.7 -44.35 M9.4 -67.15 Q10.85 -64.35 11.3 -61.65 L11.5 -59.2 9.9 -60.3 Q7.55 -61.4 3.8 -61.2 L7.05 -58.7 Q10.35 -55.75 10.8 -53.25 L8.9 -54.3 Q-15.35 -66.6 -48.7 -60.6 L-53.95 -59.5 -54.1 -60.1 -53.5 -60.85 -50.95 -65.25 -49.55 -66.85 Q-46.25 -70.45 -41.55 -72.2 -37.9 -73.6 -29.2 -74.1 -19.8 -74.7 -10.7 -73.8 L-8.1 -73.5 -7.8 -73.45 -6.7 -73.3 -0.45 -72.2 9.4 -67.15 M-58.15 -54.6 Q-35.0 -62.8 -10.0 -56.8 1.7 -54.0 9.9 -49.65 L7.65 -44.4 7.4 -44.45 4.5 -44.9 Q-7.3 -50.6 -22.0 -53.2 -48.95 -58.05 -63.4 -45.65 -61.05 -50.4 -58.15 -54.6 M113.9 -24.45 Q115.7 -25.0 117.15 -21.3 120.45 -12.65 118.15 -0.4 116.3 9.35 113.7 15.75 112.4 18.9 111.45 20.15 117.9 -2.3 114.65 -12.3 113.6 -15.45 111.75 -16.95 L111.35 -17.15 111.35 -17.05 Q106.45 0.7 105.8 13.35 105.3 23.05 107.25 29.75 108.9 35.35 112.1 38.15 113.7 39.55 115.0 39.8 111.55 50.4 107.95 51.35 104.75 52.25 102.4 45.6 100.55 40.45 100.0 33.0 99.8 31.1 99.75 29.05 L99.75 28.05 Q99.5 17.75 101.55 8.3 103.7 -1.55 106.25 -9.4 108.15 -15.3 110.3 -20.1 L114.5 -27.85 113.5 -24.55 113.4 -24.2 113.9 -24.45 M-94.6 -52.5 L-92.9 -55.45 -90.6 -58.5 Q-88.7 -60.75 -86.55 -62.45 -79.2 -68.3 -70.75 -66.55 -66.3 -65.65 -61.5 -62.55 L-62.95 -61.05 -65.25 -58.35 -67.0 -56.0 -69.25 -55.25 -77.25 -52.15 Q-77.25 -55.95 -75.15 -58.05 -73.75 -59.35 -71.9 -59.75 -78.95 -58.8 -82.0 -53.25 -82.8 -51.8 -83.2 -50.25 L-86.5 -51.45 -88.35 -51.95 -94.6 -52.5 M-71.3 -59.85 L-71.9 -59.75 -71.3 -59.85 M-77.9 -47.25 L-70.85 -49.75 -73.8 -43.7 Q-75.7 -45.7 -77.9 -47.25" fill="#000000" fill-opacity="0.2" fill-rule="evenodd" stroke="none"/>
    <path d="M55.05 -54.0 L53.55 -53.9 Q39.45 -55.15 28.05 -50.65 L17.35 -48.4 19.75 -52.9 22.2 -53.4 26.9 -54.2 22.2 -53.4 19.75 -52.9 20.3 -53.85 20.65 -54.4 21.85 -56.2 22.25 -56.7 22.6 -57.2 24.1 -58.85 24.15 -58.9 24.35 -59.1 24.4 -59.15 30.6 -61.75 31.05 -61.9 33.75 -62.85 33.75 -62.8 32.0 -61.9 Q28.15 -59.85 26.8 -58.2 L30.8 -58.7 38.5 -59.2 26.9 -54.2 42.95 -56.55 Q75.25 -60.35 90.3 -55.65 89.6 -58.95 86.0 -60.2 L90.5 -58.75 Q94.8 -56.45 92.95 -52.45 L92.95 -52.2 92.85 -52.2 Q91.75 -49.95 88.5 -47.05 90.0 -49.65 90.4 -52.65 78.8 -54.6 63.7 -54.35 L55.05 -54.0 M13.95 -64.85 L14.85 -63.55 15.0 -63.25 15.2 -62.9 15.65 -61.7 15.8 -61.3 15.8 -61.2 15.85 -61.05 15.9 -60.85 15.5 -60.15 13.8 -57.25 12.6 -55.05 12.0 -53.95 11.8 -53.55 10.9 -53.2 11.5 -52.9 9.9 -49.65 Q1.7 -54.0 -10.0 -56.8 -35.0 -62.8 -58.15 -54.6 L-54.7 -59.35 -53.95 -59.5 -48.7 -60.6 Q-15.35 -66.6 8.9 -54.3 L10.8 -53.25 Q10.35 -55.75 7.05 -58.7 L3.8 -61.2 Q7.55 -61.4 9.9 -60.3 L11.5 -59.2 11.3 -61.65 Q10.85 -64.35 9.4 -67.15 L13.95 -64.85 M10.9 -53.2 L10.8 -53.25 10.9 -53.2 M-83.2 -50.25 Q-82.8 -51.8 -82.0 -53.25 -78.95 -58.8 -71.9 -59.75 -73.75 -59.35 -75.15 -58.05 -77.25 -55.95 -77.25 -52.15 L-69.25 -55.25 -67.0 -56.0 -70.85 -49.75 -77.9 -47.25 -78.0 -47.35 -78.25 -47.5 -83.2 -50.25" fill="#000000" fill-opacity="0.3019608" fill-rule="evenodd" stroke="none"/>
    <path d="M92.85 -52.2 L92.95 -52.2 92.95 -52.15 92.85 -52.2 M19.75 -52.9 L17.35 -48.4 15.15 -43.25 15.15 -43.2 Q13.65 -39.25 12.4 -34.7 10.45 -27.55 9.3 -19.45 8.3 -12.5 7.85 -4.8 7.2 5.45 7.6 17.0 7.95 27.6 9.15 39.25 L10.5 50.5 11.75 59.3 12.4 63.6 12.5 64.3 11.05 65.25 Q9.05 65.9 6.2 64.3 L4.85 59.55 Q2.35 50.45 0.85 39.85 -0.4 31.1 -1.05 21.35 L-1.15 19.35 Q-1.75 9.3 -1.3 0.0 L-1.3 -0.15 Q-0.85 -10.85 0.95 -20.6 3.2 -33.25 7.65 -44.35 L7.65 -44.4 9.9 -49.65 11.5 -52.9 11.8 -53.55 12.0 -53.95 12.6 -55.05 13.8 -57.25 15.5 -60.15 15.9 -60.85 19.1 -61.15 Q22.6 -61.1 24.35 -59.2 L24.1 -58.85 22.6 -57.2 21.85 -56.2 20.65 -54.4 20.3 -53.85 19.75 -52.9 M89.7 -44.35 Q91.55 -46.5 96.2 -49.3 L98.2 -50.1 Q100.8 -50.7 101.65 -50.1 L106.35 -45.8 102.65 -45.55 102.35 -45.45 102.05 -45.35 Q101.0 -44.95 100.0 -44.35 L97.2 -42.1 Q94.7 -39.6 92.55 -35.5 L92.4 -35.15 92.3 -34.95 92.2 -34.75 92.0 -34.4 91.85 -34.1 91.65 -33.6 91.55 -33.4 91.35 -33.0 91.25 -32.8 91.2 -32.6 91.05 -32.3 91.0 -32.1 90.8 -31.7 90.7 -31.45 90.45 -30.9 90.2 -30.25 90.05 -29.85 89.95 -29.55 89.85 -29.35 89.5 -28.3 89.4 -28.1 89.25 -27.6 89.0 -26.95 Q81.25 12.15 82.95 51.25 L83.0 52.75 83.55 63.55 83.6 64.85 82.05 64.75 80.9 64.65 77.3 64.3 77.25 63.65 76.55 56.65 76.5 55.65 76.35 54.0 75.65 42.3 75.55 39.65 Q75.1 28.55 75.45 17.25 L75.7 10.1 Q76.05 2.8 76.7 -3.6 77.6 -12.35 79.15 -19.5 82.7 -36.5 89.7 -44.35 M-54.7 -59.35 L-58.15 -54.6 Q-61.05 -50.4 -63.4 -45.65 -68.55 -35.55 -71.45 -23.3 -73.5 -14.75 -74.5 -5.1 -75.55 5.1 -75.4 16.5 L-75.4 17.3 Q-75.2 28.5 -74.1 38.65 -73.45 45.2 -72.35 51.3 L-71.7 54.8 -70.4 60.8 -70.0 62.6 -78.1 61.3 -78.35 59.8 -78.95 56.65 -79.2 55.3 -81.75 37.5 -81.85 36.75 Q-83.2 25.1 -83.4 14.5 -83.7 3.1 -82.7 -7.15 -81.95 -14.9 -80.5 -22.0 -78.75 -30.65 -75.95 -38.35 L-73.8 -43.7 -70.85 -49.75 -67.0 -56.0 -65.25 -58.35 -62.95 -61.05 -61.5 -62.55 -59.75 -64.1 Q-57.1 -64.9 -55.05 -62.95 -54.0 -62.0 -53.5 -60.85 L-54.1 -60.1 -54.7 -59.35" fill="#000000" fill-opacity="0.4" fill-rule="evenodd" stroke="none"/>
    <path d="M101.65 -50.1 Q101.65 -52.1 101.95 -54.15 102.45 -57.5 100.8 -60.05 L98.5 -62.4 97.25 -63.1 Q74.15 -72.0 46.95 -66.45 40.15 -65.1 33.8 -62.9 L33.75 -62.85 31.05 -61.9 30.6 -61.75 24.4 -59.15 24.35 -59.2 Q22.6 -61.1 19.1 -61.15 L15.9 -60.85 15.85 -61.05 15.8 -61.2 15.8 -61.3 15.65 -61.7 15.2 -62.9 15.0 -63.25 14.85 -63.55 14.05 -64.8 13.95 -64.85 9.4 -67.15 -0.45 -72.2 -6.7 -73.3 -7.8 -73.45 -8.1 -73.5 -10.7 -73.8 Q-19.8 -74.7 -29.2 -74.1 -37.9 -73.6 -41.55 -72.2 -46.25 -70.45 -49.55 -66.85 L-50.95 -65.25 -53.5 -60.85 Q-54.0 -62.0 -55.05 -62.95 -57.1 -64.9 -59.75 -64.1 M6.2 64.3 Q9.05 65.9 11.05 65.25 L12.5 64.3 19.6 66.85 30.35 69.85 36.8 71.15 Q58.2 74.75 71.1 68.35 74.5 66.65 77.3 64.3 L80.9 64.65 82.05 64.75 83.6 64.85 87.2 65.85 Q91.65 66.9 95.9 67.0 109.4 67.3 115.45 58.05 L115.95 57.3 116.0 57.25 Q118.8 52.15 121.35 39.7 L121.85 37.3 121.9 36.9 122.35 34.65 122.4 34.2 124.0 23.6 125.25 10.35 M116.9 -40.35 L117.6 -39.45 117.8 -39.25 118.0 -38.9 119.4 -36.65 119.55 -36.4 119.95 -35.65 120.0 -35.5 120.1 -35.35 120.15 -35.2 Q125.4 -24.25 125.6 -2.95 L125.65 -1.0 125.6 0.25 125.5 4.9 125.35 8.85 Q124.95 16.15 124.0 23.6 M107.2 -45.25 L106.55 -45.65 M-94.6 -52.5 Q-98.15 -52.35 -101.55 -51.0 -109.7 -47.85 -117.2 -38.1 L-120.0 -28.35 Q-121.95 -20.65 -123.2 -13.0 L-124.45 -4.25 -124.5 -3.75 -124.55 -3.3 Q-125.3 3.1 -125.5 9.05 L-125.55 10.1 -124.55 29.85 -124.35 31.1 -124.15 32.55 -118.05 52.15 -118.0 52.3 -117.9 52.5 -117.65 53.0 -115.5 56.9 -111.45 59.9 Q-106.5 63.25 -101.65 65.1 -91.5 68.9 -84.5 65.2 -81.05 63.4 -78.35 59.8 M-61.5 -62.55 Q-66.3 -65.65 -70.75 -66.55 -79.2 -68.3 -86.55 -62.45 -88.7 -60.75 -90.6 -58.5 L-92.9 -55.45 -94.6 -52.5 M-70.0 60.9 L-63.3 64.85 Q-54.75 69.35 -45.75 71.75 -38.95 73.6 -32.45 74.2 -15.15 75.65 -0.15 68.05 L6.2 64.3 M-70.0 62.6 L-78.1 61.3 M-124.55 29.85 L-124.15 32.55" fill="none" stroke="#231f20" stroke-linecap="round" stroke-linejoin="round" stroke-width="1.0"/>
    <path d="M55.05 -54.0 L53.55 -53.9 55.05 -53.75 60.85 -52.9 61.7 -52.75 Q75.6 -50.05 85.85 -44.35 L88.6 -44.35 89.7 -44.35 M55.05 -54.0 L63.7 -54.35 Q78.8 -54.6 90.4 -52.65 90.0 -49.65 88.5 -47.05 91.75 -49.95 92.85 -52.2 L92.95 -52.15 M92.95 -52.45 Q94.8 -56.45 90.5 -58.75 L86.0 -60.2 Q89.6 -58.95 90.3 -55.65 75.25 -60.35 42.95 -56.55 L26.9 -54.2 22.2 -53.4 19.75 -52.9 M17.35 -48.4 L28.05 -50.65 Q39.45 -55.15 53.55 -53.9 M10.8 -53.25 L8.9 -54.3 Q-15.35 -66.6 -48.7 -60.6 L-53.95 -59.5 -54.7 -59.35 M-58.15 -54.6 Q-35.0 -62.8 -10.0 -56.8 1.7 -54.0 9.9 -49.65 M15.3 -43.2 Q21.2 -47.95 28.05 -50.65 M7.4 -44.45 L4.5 -44.9 Q-7.3 -50.6 -22.0 -53.2 -48.95 -58.05 -63.4 -45.65 M7.4 -44.45 L7.65 -44.4 M7.6 17.0 L9.55 17.5 M102.05 -44.6 L103.2 -44.85 105.35 -45.2 105.85 -45.2 106.75 -45.25 107.2 -45.25 M106.35 -45.8 L102.65 -45.55 M106.35 -45.8 L101.65 -50.1 M-94.6 -52.5 L-88.35 -51.95 -86.5 -51.45 -83.2 -50.25 Q-82.8 -51.8 -82.0 -53.25 -78.95 -58.8 -71.9 -59.75 -73.75 -59.35 -75.15 -58.05 -77.25 -55.95 -77.25 -52.15 L-69.25 -55.25 M-78.0 -47.35 L-78.25 -47.5 -83.2 -50.25 M-78.0 -47.35 L-77.9 -47.25 -70.85 -49.75 M-77.9 -47.25 Q-75.7 -45.7 -73.8 -43.7" fill="none" stroke="#000000" stroke-linecap="round" stroke-linejoin="round" stroke-opacity="0.4" stroke-width="1.0"/>
    <path d="M92.95 -52.2 L92.95 -52.45 M19.75 -52.9 L17.35 -48.4 15.15 -43.25 15.15 -43.2 Q13.65 -39.25 12.4 -34.7 10.45 -27.55 9.3 -19.45 8.3 -12.5 7.85 -4.8 7.2 5.45 7.6 17.0 7.95 27.6 9.15 39.25 L10.25 39.5 M89.7 -44.35 L89.7 -44.4 89.7 -44.35 Q91.55 -46.5 96.2 -49.3 L98.2 -50.1 Q100.8 -50.7 101.65 -50.1 M10.8 -53.25 L10.9 -53.2 11.5 -52.9 11.8 -53.55 12.0 -53.95 12.6 -55.05 13.8 -57.25 15.5 -60.15 15.9 -60.85 M-54.7 -59.35 L-58.15 -54.6 Q-61.05 -50.4 -63.4 -45.65 -68.55 -35.55 -71.45 -23.3 -73.5 -14.75 -74.5 -5.1 -75.55 5.1 -75.4 16.5 L-75.4 17.3 Q-75.2 28.5 -74.1 38.65 -73.45 45.2 -72.35 51.3 L-71.7 54.8 -70.4 60.8 -70.0 62.6 M9.9 -49.65 L11.5 -52.9 M-53.5 -60.85 L-54.1 -60.1 -54.7 -59.35 M24.4 -59.15 L24.35 -59.1 24.15 -58.9 24.1 -58.85 22.6 -57.2 21.85 -56.2 20.65 -54.4 20.3 -53.85 19.75 -52.9 M15.3 -43.2 L15.15 -43.2 M7.65 -44.4 L9.9 -49.65 M7.65 -44.35 L7.65 -44.4 M79.15 -19.5 Q82.7 -36.5 89.7 -44.35 M7.65 -44.35 Q3.2 -33.25 0.95 -20.6 -0.85 -10.85 -1.3 -0.15 L-1.3 0.0 Q-1.75 9.3 -1.15 19.35 L-1.05 21.35 Q-0.4 31.1 0.85 39.85 2.35 50.45 4.85 59.55 L6.2 64.3 M12.5 64.3 L12.4 63.6 11.75 59.3 10.5 50.5 9.15 39.25 M76.7 -3.6 Q77.6 -12.35 79.15 -19.5 M92.95 -52.2 L92.95 -52.15 M106.55 -45.65 L106.35 -45.8 M102.65 -45.55 L102.35 -45.45 102.05 -45.35 Q101.0 -44.95 100.0 -44.35 L97.2 -42.1 Q94.7 -39.6 92.55 -35.5 L92.4 -35.15 92.3 -34.95 92.2 -34.75 92.0 -34.4 91.85 -34.1 91.65 -33.6 91.55 -33.4 91.35 -33.0 91.25 -32.8 91.2 -32.6 91.05 -32.3 91.0 -32.1 90.8 -31.7 90.7 -31.45 90.45 -30.9 90.2 -30.25 90.05 -29.85 89.95 -29.55 89.85 -29.35 89.5 -28.3 89.4 -28.1 89.25 -27.6 89.0 -26.95 Q81.25 12.15 82.95 51.25 L83.0 52.75 83.55 63.55 83.6 64.85 M75.45 17.25 L75.7 10.1 Q76.05 2.8 76.7 -3.6 M76.35 54.0 L75.65 42.3 75.55 39.65 Q75.1 28.55 75.45 17.25 M76.55 56.65 L77.25 63.65 77.3 64.3 M76.55 56.65 L76.35 54.0 M-71.9 -59.75 L-71.3 -59.85 M-82.85 -7.2 L-82.7 -7.15 Q-81.95 -14.9 -80.5 -22.0 -78.75 -30.65 -75.95 -38.35 L-73.8 -43.7 -70.85 -49.75 -67.0 -56.0 -65.25 -58.35 -62.95 -61.05 -61.5 -62.55 -59.75 -64.1 M-67.0 -56.0 L-69.25 -55.25 M-70.4 60.8 L-70.0 60.9 M-79.2 55.3 L-81.75 37.5 -81.85 36.75 Q-83.2 25.1 -83.4 14.5 -83.7 3.1 -82.7 -7.15 M-78.35 59.8 L-78.95 56.65 -79.2 55.3 M-78.1 61.3 L-78.35 59.8" fill="none" stroke="#000000" stroke-linecap="round" stroke-linejoin="round" stroke-opacity="0.6" stroke-width="1.0"/>
    <path d="M9.3 -19.45 L29.0 -20.65 Q55.65 -22.0 63.15 -21.15 L70.85 -20.3 79.15 -19.5 M-71.45 -23.3 L-66.6 -24.1 Q-49.45 -26.25 -31.5 -25.85 L-18.1 -25.0 Q-9.55 -24.05 -3.55 -22.25 L0.95 -20.6 M66.05 2.3 Q56.6 5.35 29.65 0.15 21.0 -1.5 11.55 -3.85 L7.85 -4.8 M9.55 17.5 L27.65 21.5 Q53.35 26.45 63.15 23.95 L64.5 23.5 70.1 20.6 75.45 17.25 M76.7 -3.6 Q74.7 -2.2 72.1 -0.75 L66.5 2.15 66.05 2.3 M75.55 39.65 L70.75 42.6 65.15 45.5 Q62.3 46.55 57.7 46.75 47.4 47.15 28.35 43.5 L10.25 39.5 M-123.2 -13.0 L-119.05 -10.65 Q-114.4 -8.0 -109.55 -6.3 -101.05 -3.35 -93.8 -3.9 -87.9 -4.4 -82.85 -7.2 M-89.95 -24.95 L-103.85 -26.4 -119.5 -26.5 M-124.35 31.1 L-120.5 33.25 Q-115.8 35.75 -110.95 37.35 -100.85 40.65 -92.6 39.15 -88.15 38.35 -84.2 36.15 L-81.85 36.75 M-94.2 17.3 Q-102.15 18.45 -111.65 15.35 -116.55 13.75 -121.25 11.25 L-125.0 9.05 M-80.5 -22.0 Q-83.95 -23.85 -89.95 -24.95 M-74.5 -5.1 L-52.65 0.3 Q-21.0 7.3 -13.5 4.8 L-7.1 2.55 Q-3.3 1.05 -1.6 0.0 L-1.3 -0.15 M-7.3 23.15 Q-4.9 22.1 -3.6 21.3 L-1.15 19.35 M-7.2 45.4 L-14.85 48.15 Q-22.35 50.65 -54.0 43.65 L-74.1 38.65 M-7.3 23.15 L-15.5 26.15 Q-23.0 28.65 -54.65 21.65 L-75.2 16.55 -75.4 16.5 M0.85 39.85 Q-0.95 42.05 -2.95 43.3 -4.4 44.2 -7.2 45.4 M-83.4 14.5 L-84.85 14.15 Q-89.2 16.6 -94.2 17.3" fill="none" stroke="#000000" stroke-linecap="round" stroke-linejoin="round" stroke-opacity="0.2" stroke-width="1.0"/>
    <path d="M115.75 -41.55 L116.9 -40.35 M107.2 -45.25 L109.7 -44.9 Q113.05 -44.15 115.75 -41.55" fill="none" stroke="#000000" stroke-linecap="round" stroke-linejoin="round" stroke-width="1.0"/>
  </g>
</svg>
