<?xml version="1.0" encoding="UTF-8" standalone="no"?>
<svg xmlns:xlink="http://www.w3.org/1999/xlink" height="45.15px" width="49.0px" xmlns="http://www.w3.org/2000/svg">
  <g transform="matrix(1.0, 0.0, 0.0, 1.0, 72.4, 68.5)">
    <path d="M-34.35 -47.0 Q-34.9 -46.5 -35.6 -46.4 L-34.8 -46.7 -34.35 -47.0" fill="#ffffff" fill-rule="evenodd" stroke="none"/>
    <path d="M-42.55 -66.6 L-42.6 -66.6 -42.35 -67.35 -42.55 -66.65 -42.55 -66.6" fill="#eeefef" fill-rule="evenodd" stroke="none"/>
    <path d="M-29.9 -56.15 L-29.9 -30.85 -38.4 -30.85 -38.4 -46.35 -35.9 -46.35 -35.6 -46.4 Q-34.9 -46.5 -34.35 -47.0 L-34.3 -47.05 -34.0 -47.35 -33.7 -47.8 -33.55 -48.1 -33.5 -48.15 Q-32.9 -49.9 -34.4 -52.85 L-38.4 -52.85 -38.4 -56.15 -29.9 -56.15 M-68.1 -41.85 Q-68.4 -47.55 -64.65 -50.5 L-63.9 -51.05 -63.1 -51.5 -60.15 -52.6 -58.4 -52.85 -38.4 -52.85 -34.4 -52.85 Q-32.9 -49.9 -33.5 -48.15 L-33.4 -48.7 -33.55 -48.75 -54.05 -48.75 -56.25 -47.65 Q-58.35 -45.8 -57.9 -41.85 L-68.1 -41.85" fill="#ffffff" fill-opacity="0.0" fill-rule="evenodd" stroke="none"/>
    <path d="M-29.9 -58.65 L-29.9 -56.15 -38.4 -56.15 -38.4 -58.65 -29.9 -58.65 M-40.8 -23.85 L-43.4 -23.85 -43.4 -30.85 -41.1 -30.85 -40.8 -30.65 -40.8 -23.85 M-38.4 -46.35 L-52.9 -46.35 -53.05 -46.35 -54.3 -46.15 Q-55.4 -45.8 -55.8 -44.8 -56.2 -43.6 -55.65 -41.85 L-53.95 -41.85 Q-53.5 -41.85 -53.2 -41.1 L-53.05 -40.65 -52.9 -39.35 Q-52.9 -38.6 -53.05 -38.0 L-53.2 -37.55 Q-53.5 -36.85 -53.95 -36.85 L-70.8 -36.85 Q-71.25 -36.85 -71.55 -37.55 -71.9 -38.3 -71.9 -39.35 -71.9 -40.35 -71.55 -41.1 -71.25 -41.85 -70.8 -41.85 L-68.1 -41.85 -57.9 -41.85 Q-58.35 -45.8 -56.25 -47.65 L-54.05 -48.75 -33.55 -48.75 -33.4 -48.7 -33.5 -48.15 -33.55 -48.1 -33.7 -47.8 -34.0 -47.35 -34.3 -47.05 -34.35 -47.0 -34.8 -46.7 -35.6 -46.4 -35.9 -46.35 -38.4 -46.35 M-54.7 -39.75 Q-54.3 -39.75 -54.3 -40.15 -54.3 -40.6 -54.7 -40.6 L-69.7 -40.6 -70.15 -40.15 Q-70.15 -39.75 -69.7 -39.75 L-54.7 -39.75 M-57.9 -41.85 L-55.65 -41.85 -57.9 -41.85" fill="#000000" fill-opacity="0.101960786" fill-rule="evenodd" stroke="none"/>
    <path d="M-42.35 -67.35 L-42.25 -67.6 -41.8 -68.0 -24.95 -68.0 Q-24.7 -68.0 -24.5 -67.6 L-24.2 -66.65 Q-23.9 -65.3 -23.9 -63.35 -23.9 -61.4 -24.2 -60.0 -24.5 -58.65 -24.95 -58.65 L-29.9 -58.65 -38.4 -58.65 -41.8 -58.65 Q-42.25 -58.65 -42.55 -60.0 -42.9 -61.4 -42.9 -63.35 -42.9 -65.2 -42.55 -66.6 L-42.55 -66.65 -42.35 -67.35 M-29.9 -30.85 L-23.9 -30.85 -23.9 -23.85 -40.8 -23.85 -40.8 -30.65 -41.1 -30.85 -38.4 -30.85 -29.9 -30.85 M-43.4 -23.85 L-44.4 -23.85 -44.4 -30.85 -43.4 -30.85 -43.4 -23.85 M-33.5 -65.9 Q-33.7 -65.9 -33.7 -65.0 L-33.7 -60.95 Q-33.7 -60.05 -33.5 -60.05 L-32.85 -60.05 Q-32.6 -60.05 -32.6 -60.95 L-32.6 -65.0 Q-32.6 -65.9 -32.85 -65.9 L-33.5 -65.9 M-35.85 -65.9 L-36.5 -65.9 Q-36.7 -65.9 -36.7 -65.0 L-36.7 -60.95 Q-36.7 -60.05 -36.5 -60.05 L-35.85 -60.05 Q-35.6 -60.05 -35.6 -60.95 L-35.6 -65.0 Q-35.6 -65.9 -35.85 -65.9 M-38.85 -65.9 L-39.5 -65.9 Q-39.7 -65.9 -39.7 -65.0 L-39.7 -60.95 Q-39.7 -60.05 -39.5 -60.05 L-38.85 -60.05 Q-38.6 -60.05 -38.6 -60.95 L-38.6 -65.0 Q-38.6 -65.9 -38.85 -65.9 M-29.6 -65.0 Q-29.6 -65.9 -29.85 -65.9 L-30.5 -65.9 Q-30.7 -65.9 -30.7 -65.0 L-30.7 -60.95 Q-30.7 -60.05 -30.5 -60.05 L-29.85 -60.05 Q-29.6 -60.05 -29.6 -60.95 L-29.6 -65.0 M-26.85 -65.9 L-27.5 -65.9 Q-27.7 -65.9 -27.7 -65.0 L-27.7 -60.95 Q-27.7 -60.05 -27.5 -60.05 L-26.85 -60.05 Q-26.6 -60.05 -26.6 -60.95 L-26.6 -65.0 Q-26.6 -65.9 -26.85 -65.9" fill="#000000" fill-opacity="0.2" fill-rule="evenodd" stroke="none"/>
    <path d="M-26.85 -65.9 Q-26.6 -65.9 -26.6 -65.0 L-26.6 -60.95 Q-26.6 -60.05 -26.85 -60.05 L-27.5 -60.05 Q-27.7 -60.05 -27.7 -60.95 L-27.7 -65.0 Q-27.7 -65.9 -27.5 -65.9 L-26.85 -65.9 M-29.6 -65.0 L-29.6 -60.95 Q-29.6 -60.05 -29.85 -60.05 L-30.5 -60.05 Q-30.7 -60.05 -30.7 -60.95 L-30.7 -65.0 Q-30.7 -65.9 -30.5 -65.9 L-29.85 -65.9 Q-29.6 -65.9 -29.6 -65.0 M-38.85 -65.9 Q-38.6 -65.9 -38.6 -65.0 L-38.6 -60.95 Q-38.6 -60.05 -38.85 -60.05 L-39.5 -60.05 Q-39.7 -60.05 -39.7 -60.95 L-39.7 -65.0 Q-39.7 -65.9 -39.5 -65.9 L-38.85 -65.9 M-35.85 -65.9 Q-35.6 -65.9 -35.6 -65.0 L-35.6 -60.95 Q-35.6 -60.05 -35.85 -60.05 L-36.5 -60.05 Q-36.7 -60.05 -36.7 -60.95 L-36.7 -65.0 Q-36.7 -65.9 -36.5 -65.9 L-35.85 -65.9 M-33.5 -65.9 L-32.85 -65.9 Q-32.6 -65.9 -32.6 -65.0 L-32.6 -60.95 Q-32.6 -60.05 -32.85 -60.05 L-33.5 -60.05 Q-33.7 -60.05 -33.7 -60.95 L-33.7 -65.0 Q-33.7 -65.9 -33.5 -65.9 M-54.7 -39.75 L-69.7 -39.75 Q-70.15 -39.75 -70.15 -40.15 L-69.7 -40.6 -54.7 -40.6 Q-54.3 -40.6 -54.3 -40.15 -54.3 -39.75 -54.7 -39.75" fill="#ffffff" fill-opacity="0.2" fill-rule="evenodd" stroke="none"/>
    <path d="M-42.35 -67.35 L-42.25 -67.6 -41.8 -68.0 -24.95 -68.0 Q-24.7 -68.0 -24.5 -67.6 L-24.2 -66.65 Q-23.9 -65.3 -23.9 -63.35 -23.9 -61.4 -24.2 -60.0 -24.5 -58.65 -24.95 -58.65 L-29.9 -58.65 -29.9 -56.15 -29.9 -30.85 -23.9 -30.85 -23.9 -23.85 -40.8 -23.85 -43.4 -23.85 -44.4 -23.85 -44.4 -30.85 -43.4 -30.85 -41.1 -30.85 -38.4 -30.85 -38.4 -46.35 -52.9 -46.35 -53.05 -46.35 -54.3 -46.15 Q-55.4 -45.8 -55.8 -44.8 -56.2 -43.6 -55.65 -41.85 L-53.95 -41.85 Q-53.5 -41.85 -53.2 -41.1 L-53.05 -40.65 -52.9 -39.35 Q-52.9 -38.6 -53.05 -38.0 L-53.2 -37.55 Q-53.5 -36.85 -53.95 -36.85 L-70.8 -36.85 Q-71.25 -36.85 -71.55 -37.55 -71.9 -38.3 -71.9 -39.35 -71.9 -40.35 -71.55 -41.1 -71.25 -41.85 -70.8 -41.85 L-68.1 -41.85 Q-68.4 -47.55 -64.65 -50.5 L-63.9 -51.05 -63.1 -51.5 -60.15 -52.6 -58.4 -52.85 -38.4 -52.85 -38.4 -56.15 -38.4 -58.65 -41.8 -58.65 Q-42.25 -58.65 -42.55 -60.0 -42.9 -61.4 -42.9 -63.35 -42.9 -65.2 -42.55 -66.6 L-42.55 -66.65 -42.35 -67.35 M-33.5 -48.15 L-33.55 -48.1 M-34.3 -47.05 L-34.35 -47.0" fill="none" stroke="#000000" stroke-linecap="round" stroke-linejoin="round" stroke-opacity="0.6" stroke-width="1.0"/>
    <path d="M-33.5 -48.15 Q-32.9 -49.9 -34.4 -52.85 L-38.4 -52.85 M-29.9 -58.65 L-38.4 -58.65 M-33.55 -48.1 L-33.7 -47.8 -34.0 -47.35 -34.3 -47.05 M-34.35 -47.0 Q-34.9 -46.5 -35.6 -46.4 L-35.9 -46.35 -38.4 -46.35 M-55.65 -41.85 L-57.9 -41.85 -68.1 -41.85 M-38.4 -30.85 L-29.9 -30.85" fill="none" stroke="#000000" stroke-linecap="round" stroke-linejoin="round" stroke-opacity="0.4" stroke-width="1.0"/>
  </g>
</svg>
