<?xml version="1.0" encoding="UTF-8" standalone="no"?>
<svg xmlns:xlink="http://www.w3.org/1999/xlink" height="209.1px" width="267.5px" xmlns="http://www.w3.org/2000/svg">
  <g transform="matrix(1.0, 0.0, 0.0, 1.0, 141.4, 100.55)">
    <path d="M-58.9 -90.95 L-58.75 -91.05 -58.9 -90.95 -60.4 -89.75 -60.65 -89.5 Q-60.0 -90.3 -58.9 -90.95 M-11.4 100.5 L-11.8 101.3 -11.8 101.25 -11.4 100.5 M-33.15 38.3 L-33.1 38.3 -32.8 39.85 -32.3 43.2 -32.35 43.2 -33.25 38.2 -33.15 38.3 M96.0 39.05 Q92.05 46.85 93.05 52.15 L93.85 54.6 Q93.2 53.4 92.95 51.7 92.15 46.45 96.0 39.05" fill="#c2c2c2" fill-rule="evenodd" stroke="none"/>
    <path d="M-61.4 -87.75 L-61.65 -86.8 -61.6 -87.3 -61.6 -87.35 -61.4 -87.75 M-61.5 -85.05 L-61.4 -84.65 -61.35 -84.35 -61.3 -84.05 -61.45 -84.8 -61.5 -85.05 M-58.05 -79.95 L-57.8 -79.95 -57.75 -79.95 -57.45 -79.95 -58.1 -79.95 -58.05 -79.95 -57.45 -79.95 -58.05 -79.95 M-56.75 -80.35 L-56.65 -80.45 -57.3 -79.65 -56.75 -80.35" fill="#ffffff" fill-rule="evenodd" stroke="none"/>
    <path d="M89.85 31.6 L89.95 31.7 90.3 32.15 89.85 31.6" fill="#8a8a8a" fill-rule="evenodd" stroke="none"/>
    <path d="M-29.3 106.55 L-27.1 103.75 -26.95 103.6 -26.5 102.8 -27.65 104.65 -29.3 106.55 M-21.2 93.75 L-21.05 93.4 -20.95 93.45 -21.2 93.75 M-20.25 85.45 L-20.2 85.8 -20.2 85.85 -20.25 85.45 M-21.95 91.4 L-22.5 92.35 -22.5 92.3 -21.95 91.4 M81.25 77.25 L82.15 76.0 82.95 74.65 83.0 74.65 81.25 77.25" fill="#979797" fill-rule="evenodd" stroke="none"/>
    <path d="M-44.7 -97.15 Q-35.9 -100.75 -32.55 -99.85 L-30.5 -99.65 -26.6 -98.65 Q-21.6 -96.6 -26.45 -92.1 L-30.9 -90.4 Q-32.75 -88.55 -35.35 -86.95 L-37.1 -85.95 -37.65 -85.7 Q-43.35 -82.8 -48.6 -83.25 -50.9 -83.45 -53.1 -84.3 -55.75 -84.7 -57.6 -85.75 -61.35 -87.85 -57.55 -91.0 L-47.35 -96.05 -46.0 -96.65 -44.7 -97.15 M-85.6 -96.45 Q-85.05 -95.75 -84.15 -95.4 L-82.85 -95.15 Q-80.25 -95.05 -78.05 -97.1 -78.95 -93.9 -76.3 -93.3 L-74.35 -93.45 Q-72.4 -91.5 -71.05 -89.1 -66.6 -81.05 -70.3 -70.65 -74.0 -60.2 -87.35 -58.8 L-87.8 -58.75 Q-91.75 -58.4 -96.15 -58.9 L-99.95 -59.5 Q-99.95 -65.05 -103.65 -66.35 L-106.2 -66.7 -107.35 -66.55 Q-104.0 -66.55 -104.35 -62.85 -107.8 -64.0 -112.9 -61.7 L-117.3 -59.15 Q-125.15 -54.05 -129.6 -57.2 -131.0 -58.15 -131.9 -59.85 L-132.5 -61.35 Q-127.3 -61.35 -112.15 -74.35 L-126.2 -69.9 Q-140.3 -64.9 -140.3 -68.7 -141.05 -67.1 -140.85 -65.45 -141.9 -71.7 -127.0 -78.9 -122.4 -81.2 -116.7 -83.25 L-111.95 -84.9 -110.3 -88.75 Q-109.6 -89.6 -106.15 -90.95 L-99.05 -93.25 Q-91.1 -95.6 -85.6 -96.45 M-92.8 -84.45 Q-95.15 -82.95 -96.4 -81.0 -89.45 -76.85 -85.3 -80.7 -84.0 -81.9 -83.15 -83.8 L-82.55 -85.4 Q-88.1 -87.5 -92.8 -84.45 M-37.4 -88.0 L-37.4 -88.15 -37.4 -88.2 Q-37.4 -89.45 -36.5 -90.75 -34.55 -93.6 -29.25 -94.3 -30.8 -95.5 -34.55 -95.4 -37.55 -95.3 -41.15 -94.2 L-42.05 -93.9 -42.3 -93.8 Q-46.7 -92.35 -51.85 -89.35 L-52.95 -88.75 -52.05 -88.05 Q-50.85 -87.3 -49.25 -86.85 L-45.5 -86.35 Q-41.9 -86.35 -37.5 -87.95 L-37.4 -88.0 M-20.95 93.45 Q-19.55 90.35 -18.7 87.25 -16.95 81.0 -18.2 70.45 L-19.8 61.15 Q-17.35 59.2 -17.5 51.7 L-17.6 49.5 -19.3 44.7 -20.05 42.65 -20.25 42.05 Q-18.75 42.05 -17.6 41.45 -16.25 40.7 -15.35 39.2 L-13.9 39.95 -9.8 40.35 -12.3 61.7 Q-13.7 63.65 -15.9 61.7 L-14.3 69.3 Q-12.8 77.55 -13.15 80.85 -13.7 86.0 -15.55 93.55 -18.25 93.85 -20.95 93.45 M-32.3 43.2 Q-28.4 45.3 -26.15 45.15 L-25.65 45.05 -24.35 58.5 Q-24.0 65.3 -25.9 68.1 -27.7 70.7 -26.5 75.3 -25.45 79.2 -25.65 79.2 -26.35 79.2 -27.3 80.15 L-28.15 81.1 -25.75 84.55 -25.55 84.95 Q-29.95 86.05 -34.5 85.05 L-32.35 79.45 Q-30.8 71.9 -32.0 65.6 -33.05 60.05 -32.9 55.6 L-32.55 52.25 -32.4 51.7 Q-31.8 48.35 -32.3 43.2 M89.95 31.7 Q92.65 34.7 95.6 37.35 L96.75 38.4 97.55 39.1 100.7 41.65 Q106.0 42.75 109.3 39.2 L110.6 40.35 Q112.25 41.45 114.0 41.45 L111.8 44.2 109.9 60.4 Q109.05 71.45 110.1 73.35 L106.65 78.05 Q103.45 82.9 102.7 86.1 96.5 87.6 90.05 86.35 L91.0 85.45 93.35 83.5 94.6 82.5 96.15 81.4 98.45 80.0 Q104.35 72.4 105.6 57.95 106.0 53.45 105.85 48.8 L105.65 45.05 Q101.5 42.5 97.5 39.1 L95.55 37.4 90.3 32.15 89.95 31.7 M83.0 74.65 Q87.8 66.25 85.4 55.8 84.55 52.0 82.8 48.45 L81.25 45.6 Q83.45 47.25 84.2 45.2 L85.35 46.2 Q86.9 47.1 88.85 46.5 L89.55 50.75 Q90.45 55.2 91.25 56.5 L89.2 69.65 90.0 74.1 83.0 74.65" fill="#ffffff" fill-opacity="0.0" fill-rule="evenodd" stroke="none"/>
    <path d="M-74.35 -93.45 Q-73.25 -93.95 -72.75 -95.65 -71.55 -93.5 -69.45 -92.9 -67.2 -92.3 -65.1 -93.75 -65.35 -92.95 -64.95 -91.4 L-61.8 -90.85 -58.9 -90.95 Q-60.0 -90.3 -60.65 -89.5 L-61.4 -87.75 -61.6 -87.35 -61.6 -87.3 -61.65 -86.8 -61.55 -85.3 -61.5 -85.05 -61.45 -84.8 -61.3 -84.05 -61.25 -84.0 -61.05 -83.35 Q-60.3 -81.3 -59.0 -80.4 L-58.05 -79.95 -58.1 -79.95 -57.45 -79.95 -56.75 -80.35 -57.3 -79.65 -58.2 -77.45 -58.25 -77.15 -58.3 -76.8 Q-58.3 -74.9 -56.45 -73.8 -58.9 -72.8 -59.05 -70.75 -59.15 -68.8 -57.2 -67.25 -62.9 -67.7 -61.95 -61.35 -63.3 -62.65 -64.85 -62.8 L-68.2 -62.6 Q-71.15 -57.6 -70.95 -52.65 -73.5 -54.4 -75.45 -53.75 -77.45 -53.05 -78.1 -50.1 -78.8 -52.05 -80.7 -52.95 L-81.75 -50.25 Q-81.35 -51.8 -83.25 -51.05 L-83.7 -50.9 -83.65 -51.0 Q-90.6 -49.3 -99.75 -51.9 L-107.5 -54.9 -114.2 -55.45 Q-118.65 -52.75 -125.25 -52.2 L-128.6 -52.1 Q-134.15 -52.1 -135.85 -57.65 -136.35 -59.4 -136.45 -61.45 L-136.4 -63.2 Q-138.45 -62.85 -139.85 -64.1 L-140.85 -65.45 Q-141.05 -67.1 -140.3 -68.7 -140.3 -64.9 -126.2 -69.9 L-112.15 -74.35 Q-127.3 -61.35 -132.5 -61.35 L-131.9 -59.85 Q-131.0 -58.15 -129.6 -57.2 -125.15 -54.05 -117.3 -59.15 L-112.9 -61.7 Q-107.8 -64.0 -104.35 -62.85 -104.0 -66.55 -107.35 -66.55 L-106.2 -66.7 -103.65 -66.35 Q-99.95 -65.05 -99.95 -59.5 L-96.15 -58.9 Q-91.75 -58.4 -87.8 -58.75 L-87.35 -58.8 Q-74.0 -60.2 -70.3 -70.65 -66.6 -81.05 -71.05 -89.1 -72.4 -91.5 -74.35 -93.45 M-103.65 -59.9 Q-106.4 -61.25 -109.9 -60.7 L-112.9 -59.9 Q-116.65 -55.45 -125.25 -52.2 -116.65 -55.45 -112.9 -59.9 L-109.9 -60.7 Q-106.4 -61.25 -103.65 -59.9 M-128.45 -65.8 Q-132.85 -63.6 -136.4 -63.2 -132.85 -63.6 -128.45 -65.8 M-37.4 -88.0 L-37.5 -87.95 Q-41.9 -86.35 -45.5 -86.35 L-49.25 -86.85 Q-50.85 -87.3 -52.05 -88.05 L-52.95 -88.75 -51.85 -89.35 Q-46.7 -92.35 -42.3 -93.8 L-42.05 -93.9 -41.15 -94.2 Q-37.55 -95.3 -34.55 -95.4 -30.8 -95.5 -29.25 -94.3 -34.55 -93.6 -36.5 -90.75 -37.4 -89.45 -37.4 -88.2 L-37.4 -88.15 -37.4 -88.0 M-32.85 38.45 L-32.55 38.6 Q-26.4 41.8 -21.2 39.4 L-22.55 35.7 -22.6 35.6 -21.3 35.2 -21.25 35.15 Q-18.6 34.05 -18.05 31.95 L-18.15 29.5 -17.25 30.45 Q-14.9 32.6 -12.3 30.75 L-9.9 28.0 -9.8 27.85 -9.45 29.5 Q-9.15 30.85 -7.7 32.3 -5.95 34.2 -2.9 34.9 L-2.7 34.95 -2.5 35.0 -2.2 35.05 -2.05 35.05 -2.85 36.3 Q-4.05 38.2 -4.9 40.85 L-5.15 41.65 -6.4 47.2 -7.1 51.7 -8.7 62.25 Q-10.9 72.8 -8.15 82.8 -10.95 82.8 -11.2 87.5 -11.25 89.1 -10.75 92.5 L-10.75 92.55 -10.8 92.45 -11.05 92.55 -11.35 92.65 -15.55 93.55 Q-13.7 86.0 -13.15 80.85 -12.8 77.55 -14.3 69.3 L-15.9 61.7 Q-13.7 63.65 -12.3 61.7 L-9.8 40.35 -13.9 39.95 -15.35 39.2 Q-16.25 40.7 -17.6 41.45 -18.75 42.05 -20.25 42.05 L-20.05 42.65 -19.3 44.7 -19.8 45.6 Q-20.9 48.4 -21.35 51.7 -21.75 54.7 -21.6 58.15 -21.35 65.7 -22.6 69.45 -24.3 74.65 -22.25 77.6 -21.2 79.05 -19.8 79.45 L-22.95 80.65 -21.3 82.4 -21.05 82.8 -20.9 83.15 Q-23.2 84.35 -25.55 84.95 L-25.75 84.55 -28.15 81.1 -27.3 80.15 Q-26.35 79.2 -25.65 79.2 -25.45 79.2 -26.5 75.3 -27.7 70.7 -25.9 68.1 -24.0 65.3 -24.35 58.5 L-25.65 45.05 -26.15 45.15 Q-28.4 45.3 -32.3 43.2 L-32.8 39.85 -33.1 38.3 -32.85 38.45 M-20.05 42.65 L-21.2 39.4 -20.05 42.65 M118.45 28.75 L119.75 31.0 Q122.35 35.2 124.55 37.25 127.3 38.35 122.9 41.7 119.55 46.95 116.5 58.3 113.2 70.6 115.1 74.45 116.85 77.9 115.9 79.6 115.4 80.45 114.55 80.6 111.1 80.6 108.85 82.8 108.0 83.65 107.6 84.45 L102.7 86.1 Q103.45 82.9 106.65 78.05 L110.1 73.35 Q109.05 71.45 109.9 60.4 L111.8 44.2 114.0 41.45 Q112.25 41.45 110.6 40.35 L109.3 39.2 Q106.0 42.75 100.7 41.65 L97.55 39.1 96.75 38.4 95.6 37.35 Q92.65 34.7 89.95 31.7 L89.85 31.6 84.55 25.05 Q92.55 27.5 94.65 22.65 95.3 21.1 95.25 19.05 L95.1 17.3 Q98.55 20.75 101.65 17.7 L104.0 13.95 Q106.8 17.75 110.1 15.4 L112.9 12.3 Q113.45 15.8 114.45 19.05 L115.65 22.7 Q116.85 25.8 118.45 28.75 M81.25 45.6 L80.5 44.9 79.75 44.2 77.4 41.8 Q78.15 41.35 79.65 40.55 L82.65 38.8 Q82.3 39.55 82.55 40.45 L88.0 40.8 Q90.8 40.1 91.35 37.3 92.65 38.35 94.45 38.8 L96.0 39.05 Q92.15 46.45 92.95 51.7 93.2 53.4 93.85 54.6 L95.1 56.15 96.8 64.45 Q90.9 65.15 92.7 69.05 L93.1 69.8 93.25 70.1 93.45 70.35 95.05 72.2 95.35 72.5 Q92.75 73.55 90.0 74.1 L89.2 69.65 91.25 56.5 Q90.45 55.2 89.55 50.75 L88.85 46.5 Q86.9 47.1 85.35 46.2 L84.2 45.2 Q83.45 47.25 81.25 45.6" fill="#000000" fill-opacity="0.101960786" fill-rule="evenodd" stroke="none"/>
    <path d="M-10.75 92.5 L-10.3 94.3 -10.25 94.65 Q-10.05 96.0 -10.25 97.3 -10.5 98.9 -11.35 100.3 L-11.4 100.5 -11.8 101.25 -12.05 101.65 Q-14.65 101.3 -18.9 103.6 -22.55 105.6 -23.6 107.1 L-23.7 107.2 Q-24.8 108.9 -29.8 107.2 L-29.3 106.55 -27.65 104.65 -26.5 102.8 -23.5 97.85 -22.35 95.8 -21.5 94.35 -21.45 94.3 -21.3 94.0 -21.2 93.75 -20.95 93.45 Q-18.25 93.85 -15.55 93.55 L-11.35 92.65 -11.05 92.55 -10.8 92.45 -10.75 92.55 -10.75 92.5 M-20.9 83.15 L-20.45 84.2 -20.45 84.3 -20.45 84.2 -20.25 85.45 -20.2 85.85 Q-20.1 88.0 -20.85 89.45 L-21.55 90.65 -22.9 92.9 -22.95 92.95 -24.65 93.2 -26.65 93.2 -29.05 92.95 Q-31.15 92.6 -34.5 95.25 -36.15 96.55 -37.4 97.95 L-41.4 98.1 -42.95 97.4 Q-42.95 94.6 -39.3 90.45 L-35.7 86.85 -34.5 85.05 Q-29.95 86.05 -25.55 84.95 -23.2 84.35 -20.9 83.15 M102.7 86.1 L107.6 84.45 107.35 85.0 Q111.2 87.25 110.65 90.55 L107.35 97.8 102.35 97.2 Q97.8 96.85 93.85 98.0 L87.9 100.0 83.65 100.4 82.35 100.0 Q83.35 92.9 90.05 86.35 96.5 87.6 102.7 86.1 M93.35 83.5 L87.9 83.35 Q85.8 83.0 82.5 85.65 L79.6 88.35 75.55 88.5 74.0 87.8 Q74.0 85.0 77.65 80.85 L81.25 77.25 83.0 74.65 90.0 74.1 Q92.75 73.55 95.35 72.5 L95.5 72.65 95.7 72.8 Q98.25 76.95 94.6 82.5 L93.35 83.5" fill="#000000" fill-opacity="0.5019608" fill-rule="evenodd" stroke="none"/>
    <path d="M-92.8 -84.45 Q-88.1 -87.5 -82.55 -85.4 L-83.15 -83.8 Q-84.0 -81.9 -85.3 -80.7 -89.45 -76.85 -96.4 -81.0 -95.15 -82.95 -92.8 -84.45 M-90.4 -83.25 L-87.25 -84.05 Q-85.15 -84.75 -86.9 -85.05 L-86.8 -85.05 -87.8 -85.2 -89.55 -85.0 Q-90.5 -84.75 -91.1 -84.3 -91.7 -83.9 -91.55 -83.55 -91.5 -83.2 -90.4 -83.25" fill="#000000" fill-opacity="0.8" fill-rule="evenodd" stroke="none"/>
    <path d="M-90.4 -83.25 Q-91.5 -83.2 -91.55 -83.55 -91.7 -83.9 -91.1 -84.3 -90.5 -84.75 -89.55 -85.0 L-87.8 -85.2 -86.8 -85.05 -86.9 -85.05 Q-85.15 -84.75 -87.25 -84.05 L-90.4 -83.25" fill="#ffffff" fill-opacity="0.6" fill-rule="evenodd" stroke="none"/>
    <path d="M-44.7 -97.15 Q-35.9 -100.75 -32.55 -99.85 L-30.5 -99.65 -26.6 -98.65 Q-21.6 -96.6 -26.45 -92.1 L-30.9 -90.4 Q-32.75 -88.55 -35.35 -86.95 M-83.7 -50.9 L-83.65 -51.0 Q-90.6 -49.3 -99.75 -51.9 L-107.5 -54.9 -114.2 -55.45 Q-118.65 -52.75 -125.25 -52.2 L-128.6 -52.1 Q-134.15 -52.1 -135.85 -57.65 -136.35 -59.4 -136.45 -61.45 L-136.4 -63.2 Q-138.45 -62.85 -139.85 -64.1 L-140.85 -65.45 Q-141.9 -71.7 -127.0 -78.9 -122.4 -81.2 -116.7 -83.25 L-111.95 -84.9 -110.3 -88.75 Q-109.6 -89.6 -106.15 -90.95 L-99.05 -93.25 Q-91.1 -95.6 -85.6 -96.45" fill="none" stroke="#000000" stroke-linecap="round" stroke-linejoin="round" stroke-width="1.0"/>
    <path d="M-35.35 -86.95 L-37.1 -85.95 -37.65 -85.7 Q-43.35 -82.8 -48.6 -83.25 -50.9 -83.45 -53.1 -84.3 -55.75 -84.7 -57.6 -85.75 -61.35 -87.85 -57.55 -91.0 L-47.35 -96.05 -46.0 -96.65 -44.7 -97.15 M-85.6 -96.45 Q-85.05 -95.75 -84.15 -95.4 L-82.85 -95.15 Q-80.25 -95.05 -78.05 -97.1 -78.95 -93.9 -76.3 -93.3 L-74.35 -93.45 Q-73.25 -93.95 -72.75 -95.65 -71.55 -93.5 -69.45 -92.9 -67.2 -92.3 -65.1 -93.75 -65.35 -92.95 -64.95 -91.4 L-61.8 -90.85 -58.9 -90.95 -58.75 -91.05 -58.9 -90.95 -60.4 -89.75 -60.65 -89.5 -61.4 -87.75 -61.65 -86.8 -61.55 -85.3 -61.5 -85.05 -61.4 -84.65 -61.35 -84.35 -61.3 -84.05 -61.25 -84.0 -61.05 -83.35 Q-60.3 -81.3 -59.0 -80.4 L-58.05 -79.95 -57.45 -79.95 -56.75 -80.35 -56.65 -80.45 -57.3 -79.65 -58.2 -77.45 -58.25 -77.15 -58.3 -76.8 Q-58.3 -74.9 -56.45 -73.8 -58.9 -72.8 -59.05 -70.75 -59.15 -68.8 -57.2 -67.25 -62.9 -67.7 -61.95 -61.35 -63.3 -62.65 -64.85 -62.8 L-68.2 -62.6 Q-71.15 -57.6 -70.95 -52.65 -73.5 -54.4 -75.45 -53.75 -77.45 -53.05 -78.1 -50.1 -78.8 -52.05 -80.7 -52.95 L-81.75 -50.25 Q-81.35 -51.8 -83.25 -51.05 L-83.7 -50.9 M-125.25 -52.2 Q-116.65 -55.45 -112.9 -59.9 L-109.9 -60.7 Q-106.4 -61.25 -103.65 -59.9 M-136.4 -63.2 Q-132.85 -63.6 -128.45 -65.8 M-58.9 -90.95 Q-60.0 -90.3 -60.65 -89.5 M-58.1 -79.95 L-57.45 -79.95 M-56.75 -80.35 L-57.3 -79.65 M-61.45 -84.8 L-61.3 -84.05" fill="none" stroke="#000000" stroke-linecap="round" stroke-linejoin="round" stroke-opacity="0.6" stroke-width="1.0"/>
    <path d="M-5.15 41.65 L-6.4 47.2 -7.1 51.7 -8.7 62.25 Q-10.9 72.8 -8.15 82.8 -10.95 82.8 -11.2 87.5 -11.25 89.1 -10.75 92.5 L-10.3 94.3 -10.25 94.65 Q-10.05 96.0 -10.25 97.3 -10.5 98.9 -11.35 100.3 L-11.4 100.5 -11.8 101.25 -12.05 101.65 Q-14.65 101.3 -18.9 103.6 -22.55 105.6 -23.6 107.1 L-23.7 107.2 Q-24.8 108.9 -29.8 107.2 L-29.3 106.55 -27.65 104.65 -26.5 102.8 -23.5 97.85 -22.35 95.8 -21.2 93.75 -20.95 93.45 Q-19.55 90.35 -18.7 87.25 -16.95 81.0 -18.2 70.45 L-19.8 61.15 Q-17.35 59.2 -17.5 51.7 L-17.6 49.5 -19.3 44.7 -19.8 45.6 Q-20.9 48.4 -21.35 51.7 -21.75 54.7 -21.6 58.15 -21.35 65.7 -22.6 69.45 -24.3 74.65 -22.25 77.6 -21.2 79.05 -19.8 79.45 L-22.95 80.65 -21.3 82.4 -21.05 82.8 -20.9 83.15 -20.45 84.2 -20.25 85.45 -20.2 85.85 Q-20.1 88.0 -20.85 89.45 L-21.55 90.65 -21.95 91.4 -22.5 92.3 M-33.15 38.3 L-33.1 38.3 -32.85 38.45 -32.95 38.4 -33.05 38.35 -32.85 38.45 M-33.15 38.3 L-33.05 38.35 M-33.25 38.2 L-33.15 38.3 M-33.1 38.3 L-32.8 39.85 -32.3 43.2 Q-31.8 48.35 -32.4 51.7 L-32.55 52.25 -32.9 55.6 Q-33.05 60.05 -32.0 65.6 -30.8 71.9 -32.35 79.45 L-34.5 85.05 -35.7 86.85 -39.3 90.45 Q-42.95 94.6 -42.95 97.4 L-41.4 98.1 -37.4 97.95 Q-36.15 96.55 -34.5 95.25 -31.15 92.6 -29.05 92.95 L-26.65 93.2 -24.65 93.2 -22.95 92.95 -22.9 92.9 -21.55 90.65 M-10.8 92.45 L-10.75 92.55 -10.75 92.5 M107.6 84.45 Q108.0 83.65 108.85 82.8 111.1 80.6 114.55 80.6 115.4 80.45 115.9 79.6 116.85 77.9 115.1 74.45 113.2 70.6 116.5 58.3 119.55 46.95 122.9 41.7 127.3 38.35 124.55 37.25 122.35 35.2 119.75 31.0 L118.45 28.75 M107.6 84.45 L107.35 85.0 Q111.2 87.25 110.65 90.55 L107.35 97.8 102.35 97.2 Q97.8 96.85 93.85 98.0 L87.9 100.0 83.65 100.4 82.35 100.0 Q83.35 92.9 90.05 86.35 L91.0 85.45 93.35 83.5 87.9 83.35 Q85.8 83.0 82.5 85.65 L79.6 88.35 75.55 88.5 74.0 87.8 Q74.0 85.0 77.65 80.85 L81.25 77.25 83.0 74.65 Q87.8 66.25 85.4 55.8 84.55 52.0 82.8 48.45 L81.25 45.6 80.5 44.9 77.35 41.85 77.4 41.8 79.75 44.2 80.5 44.9 M96.0 39.05 L97.5 39.1 Q101.5 42.5 105.65 45.05 L105.85 48.8 Q106.0 53.45 105.6 57.95 104.35 72.4 98.45 80.0 L96.15 81.4 94.6 82.5 93.35 83.5 M93.85 54.6 L95.1 56.15 96.8 64.45 Q90.9 65.15 92.7 69.05 L93.1 69.8 93.25 70.1 93.45 70.35 95.05 72.2 95.7 72.8 Q98.25 76.95 94.6 82.5 M93.85 54.6 Q93.2 53.4 92.95 51.7 92.15 46.45 96.0 39.05 M95.35 72.5 L95.05 72.2 M95.5 72.65 L95.7 72.8" fill="none" stroke="#000000" stroke-linecap="round" stroke-linejoin="round" stroke-width="1.0"/>
    <path d="M-32.85 38.45 L-32.55 38.6 Q-26.4 41.8 -21.2 39.4 L-22.55 35.7 -22.6 35.6 -21.3 35.2 -21.25 35.15 Q-18.6 34.05 -18.05 31.95 L-18.15 29.5 -17.25 30.45 Q-14.9 32.6 -12.3 30.75 L-9.9 28.0 -9.8 27.85 -9.45 29.5 Q-9.15 30.85 -7.7 32.3 -5.95 34.2 -2.9 34.9 L-2.7 34.95 -2.5 35.0 -2.2 35.05 -2.05 35.05 -2.85 36.3 Q-4.05 38.2 -4.9 40.85 L-5.15 41.65 M-20.25 42.05 L-20.05 42.65 -19.3 44.7 M-21.2 39.4 L-20.05 42.65 M118.45 28.75 Q116.85 25.8 115.65 22.7 L114.45 19.05 Q113.45 15.8 112.9 12.3 L110.1 15.4 Q106.8 17.75 104.0 13.95 L101.65 17.7 Q98.55 20.75 95.1 17.3 L95.25 19.05 Q95.3 21.1 94.65 22.65 92.55 27.5 84.55 25.05 L89.85 31.6 90.3 32.15 89.95 31.7 M77.4 41.8 Q78.15 41.35 79.65 40.55 L82.65 38.8 Q82.3 39.55 82.55 40.45 L88.0 40.8 Q90.8 40.1 91.35 37.3 92.65 38.35 94.45 38.8 L96.0 39.05 M97.5 39.1 L95.55 37.4 90.3 32.15" fill="none" stroke="#000000" stroke-linecap="round" stroke-linejoin="round" stroke-opacity="0.6" stroke-width="1.0"/>
  </g>
</svg>
