<?xml version="1.0" encoding="UTF-8" standalone="no"?>
<svg xmlns:xlink="http://www.w3.org/1999/xlink" height="71.15px" width="188.2px" xmlns="http://www.w3.org/2000/svg">
  <g transform="matrix(1.0, 0.0, 0.0, 1.0, 74.0, 33.7)">
    <path d="M79.95 -31.0 L79.2 -30.95 58.2 -29.1 66.1 -29.95 79.95 -31.0 M-41.95 -11.85 L-42.4 -11.75 -42.0 -11.85 -41.95 -11.85 M-59.0 10.15 L-59.75 10.55 -60.9 11.15 -60.75 11.05 -59.0 10.15 M-61.85 11.6 Q-64.05 12.5 -66.4 13.1 L-73.45 13.85 -73.5 13.8 -66.45 13.05 -64.15 12.4 -64.0 12.35 -63.9 12.35 -63.65 12.25 -63.5 12.2 -63.35 12.15 -63.05 12.05 -62.55 11.85 -62.4 11.8 -61.85 11.6 M111.0 -28.25 L109.7 -28.6 109.9 -28.8 111.0 -28.25 M107.6 -29.65 L109.05 -29.2 109.3 -29.1 107.6 -29.65 M-32.9 -2.15 L-32.95 -2.3 -33.05 -2.65 -33.55 -4.0 Q-33.1 -3.15 -32.9 -2.15" fill="#ffffff" fill-rule="evenodd" stroke="none"/>
    <path d="M111.0 -28.25 L111.55 -28.1 112.35 -27.55 111.0 -28.25" fill="#e3e3e3" fill-rule="evenodd" stroke="none"/>
    <path d="M-50.0 0.55 L-50.05 0.6 -51.8 -2.45 -53.95 -5.15 Q-51.7 -2.7 -50.0 0.55 M109.9 -28.8 L109.7 -28.6 Q108.75 -29.35 106.55 -29.75 L107.6 -29.65 109.3 -29.1 109.9 -28.8 109.3 -29.1 109.95 -28.85 109.9 -28.8 M-52.6 -33.2 L-52.05 -30.5 -52.1 -30.4 -52.6 -33.05 -52.6 -33.2" fill="#d2d2d2" fill-rule="evenodd" stroke="none"/>
    <path d="M-68.55 15.7 L-68.45 15.75 -67.6 16.2 -68.55 15.7 M-52.8 36.7 L-52.75 36.85 -52.75 36.95 -52.8 36.7 -52.85 36.3 -52.8 36.7 M-55.5 28.55 L-56.65 26.6 -56.5 26.8 -55.85 27.85 -55.5 28.55 M-61.75 20.5 L-61.95 20.3 -61.85 20.35 -61.75 20.5 M-62.0 20.25 L-62.15 20.15 -62.1 20.15 -62.0 20.25" fill="#dedede" fill-rule="evenodd" stroke="none"/>
    <path d="M-59.8 -19.35 L-59.75 -19.4 Q-63.65 -15.15 -68.4 -12.85 L-68.5 -12.8 -68.5 -12.85 -68.45 -12.85 Q-64.15 -14.95 -60.55 -18.6 L-59.8 -19.35" fill="#a6a6a6" fill-rule="evenodd" stroke="none"/>
    <path d="M-42.4 -11.75 L-46.3 -11.1 -48.6 -2.5 -48.95 -1.7 Q-50.5 -6.8 -56.4 -10.75 L-63.1 -14.1 Q-58.1 -16.9 -54.75 -23.7 L-52.45 -29.9 -52.1 -30.35 Q-51.35 -27.05 -50.25 -24.15 -47.65 -17.1 -42.85 -12.2 L-42.4 -11.75 M-68.45 15.75 L-64.85 14.85 -63.5 14.4 -59.9 12.75 Q-51.4 8.3 -47.55 -0.4 -46.25 -3.4 -45.45 -6.85 L-44.95 -9.75 -22.35 -13.9 Q4.75 -18.8 28.15 -22.4 83.6 -31.05 101.7 -30.25 L91.75 -31.25 Q103.45 -31.15 109.05 -29.2 L107.6 -29.65 106.55 -29.75 Q108.75 -29.35 109.7 -28.6 L-33.0 0.9 -32.8 -0.7 -32.8 -0.85 -32.8 -1.05 -32.85 -1.85 -32.9 -2.15 Q-33.1 -3.15 -33.55 -4.0 L-34.45 -5.2 -34.65 -5.4 -34.7 -5.45 -34.75 -5.5 Q-36.65 -7.45 -39.4 -7.45 -41.7 -7.45 -43.4 -6.1 -41.7 -7.45 -39.4 -7.45 -36.65 -7.45 -34.75 -5.5 L-34.7 -5.45 -34.65 -5.4 -34.45 -5.2 -33.55 -4.0 -33.05 -2.65 Q-33.05 0.1 -35.0 2.0 L-35.55 2.5 -42.8 -6.45 -43.4 -6.1 -44.15 -5.4 -36.85 3.35 -39.65 3.9 Q-44.7 3.9 -46.0 -0.9 L-46.05 -0.85 Q-46.05 1.9 -44.1 3.85 -42.15 5.8 -39.4 5.8 -37.3 5.8 -35.7 4.7 L-34.9 4.0 -34.75 3.85 -33.95 2.9 -33.95 6.95 -32.3 6.4 -15.45 2.65 107.95 30.15 108.45 30.0 108.95 29.85 Q101.65 32.4 83.65 31.8 L65.85 30.6 57.95 29.75 -42.25 12.5 -42.6 12.85 Q-47.75 18.1 -50.4 25.9 -52.1 30.8 -52.8 36.7 L-52.85 36.3 -54.35 31.05 -54.6 30.45 -54.8 30.0 -55.15 29.25 -55.5 28.55 -55.85 27.85 -56.5 26.8 -56.65 26.6 -56.9 26.15 -58.2 24.35 -58.45 24.05 -58.7 23.7 -60.1 22.1 -60.9 21.3 -61.05 21.15 -61.25 20.95 -61.7 20.5 -61.75 20.5 -61.85 20.35 -61.95 20.3 -62.0 20.25 -62.1 20.15 -62.15 20.15 -67.6 16.2 -68.45 15.75 M-46.05 -0.85 Q-46.05 -3.55 -44.15 -5.4 L-44.1 -5.5 -43.4 -6.1 -44.1 -5.5 -44.15 -5.4 Q-46.05 -3.55 -46.05 -0.85 M-32.3 6.4 L-35.5 7.65 Q-39.15 9.4 -42.25 12.5 -39.15 9.4 -35.5 7.65 L-32.3 6.4" fill="#ffffff" fill-opacity="0.0" fill-rule="evenodd" stroke="none"/>
    <path d="M58.2 -29.1 L79.2 -30.95 79.95 -31.0 80.4 -31.0 83.9 -31.15 91.65 -31.25 91.75 -31.25 101.7 -30.25 Q83.6 -31.05 28.15 -22.4 4.75 -18.8 -22.35 -13.9 L-44.95 -9.75 -45.45 -6.85 Q-46.25 -3.4 -47.55 -0.4 -51.4 8.3 -59.9 12.75 L-63.5 14.4 -64.85 14.85 -68.45 15.75 -68.55 15.7 -73.45 13.85 -66.4 13.1 Q-64.05 12.5 -61.85 11.6 L-61.65 11.5 -61.6 11.45 -61.5 11.4 -61.3 11.35 -60.95 11.15 -60.9 11.15 -59.75 10.55 -59.0 10.15 -58.3 9.7 Q-53.6 6.65 -50.6 1.55 L-50.05 0.6 -50.0 0.55 -48.95 -1.7 -50.0 0.55 Q-51.7 -2.7 -53.95 -5.15 L-54.05 -5.3 -54.25 -5.45 -58.4 -8.95 -58.7 -9.15 -60.7 -10.25 -66.15 -12.25 -67.9 -12.65 -68.25 -12.7 -68.4 -12.7 -68.5 -12.7 -68.5 -12.8 -68.4 -12.85 Q-63.65 -15.15 -59.75 -19.4 L-59.8 -19.35 Q-54.15 -25.35 -52.6 -33.05 L-52.1 -30.4 -52.1 -30.35 -52.45 -29.9 -54.75 -23.7 Q-58.1 -16.9 -63.1 -14.1 L-56.4 -10.75 Q-50.5 -6.8 -48.95 -1.7 L-48.6 -2.5 -46.3 -11.1 -42.4 -11.75 -41.95 -11.85 58.2 -29.1 M109.7 -28.6 L111.0 -28.25 112.35 -27.55 112.8 -27.2 113.7 -26.1 -5.1 0.35 113.45 26.75 Q112.5 28.4 109.85 29.5 L108.95 29.85 108.45 30.0 107.95 30.15 -15.45 2.65 -5.1 0.35 -15.45 2.65 -32.3 6.4 -33.95 6.95 -33.95 2.9 -34.75 3.85 -34.9 4.0 -35.7 4.7 Q-37.3 5.8 -39.4 5.8 -42.15 5.8 -44.1 3.85 -46.05 1.9 -46.05 -0.85 L-46.0 -0.9 Q-44.7 3.9 -39.65 3.9 L-36.85 3.35 -35.55 2.5 -35.0 2.0 Q-33.05 0.1 -33.05 -2.65 L-32.95 -2.3 -32.9 -2.15 -32.85 -1.85 -32.8 -1.05 -32.8 -0.85 -32.8 -0.7 -33.0 0.9 109.7 -28.6 M-33.0 0.9 L-33.65 2.5 -33.9 2.85 -33.95 2.9 -33.9 2.85 -33.65 2.5 -33.0 0.9" fill="#000000" fill-opacity="0.101960786" fill-rule="evenodd" stroke="none"/>
    <path d="M-35.55 2.5 L-36.85 3.35 -44.15 -5.4 -43.4 -6.1 -42.8 -6.45 -35.55 2.5" fill="#000000" fill-opacity="0.4" fill-rule="evenodd" stroke="none"/>
    <path d="M79.95 -31.0 L66.1 -29.95 58.2 -29.1 -41.95 -11.85 -42.4 -11.75 -42.85 -12.2 Q-47.65 -17.1 -50.25 -24.15 -51.35 -27.05 -52.1 -30.35 L-52.1 -30.4 -52.6 -33.05 -52.6 -33.2 M-50.0 0.55 L-50.05 0.6 -50.6 1.55 Q-53.6 6.65 -58.3 9.7 L-59.0 10.15 -60.75 11.05 -60.9 11.15 -60.95 11.15 -61.3 11.35 -61.5 11.4 -61.6 11.45 -61.65 11.5 M91.75 -31.25 L91.65 -31.25 83.9 -31.15 80.4 -31.0 79.95 -31.0 M111.0 -28.25 L109.9 -28.8 109.3 -29.1 109.05 -29.2 Q103.45 -31.15 91.75 -31.25 M106.55 -29.75 L107.6 -29.65 109.05 -29.2 M112.35 -27.55 L112.8 -27.2 113.7 -26.1 -5.1 0.35 113.45 26.75 Q112.5 28.4 109.85 29.5 L108.95 29.85 Q101.65 32.4 83.65 31.8 L65.85 30.6 57.95 29.75 -42.25 12.5 -42.6 12.85 Q-47.75 18.1 -50.4 25.9 -52.1 30.8 -52.8 36.7 L-52.85 36.3 M-52.75 36.85 L-52.75 36.95 -52.8 36.7 M111.0 -28.25 L112.35 -27.55 M-42.0 -11.85 L-41.95 -11.85 M-68.5 -12.7 L-68.4 -12.7 -68.25 -12.7 -67.9 -12.65 -66.15 -12.25 -60.7 -10.25 -58.7 -9.15 -58.4 -8.95 -54.25 -5.45 -54.05 -5.3 M-53.95 -5.15 Q-51.7 -2.7 -50.0 0.55 M-68.5 -12.85 L-68.45 -12.85 M-66.15 -12.25 L-68.25 -12.7 M-53.95 -5.15 L-54.25 -5.45 M-58.4 -8.95 L-60.7 -10.25 M-73.45 13.85 L-73.5 13.8 -66.45 13.05 -64.15 12.4 -64.0 12.35 -63.9 12.35 -60.95 11.15 M-63.9 12.35 L-63.65 12.25 -63.5 12.2 -63.35 12.15 -63.05 12.05 -62.55 11.85 -62.4 11.8 -61.85 11.6" fill="none" stroke="#000000" stroke-linecap="round" stroke-linejoin="round" stroke-width="1.0"/>
    <path d="M-42.4 -11.75 L-46.3 -11.1 -48.6 -2.5 -48.95 -1.7 -50.0 0.55 M-73.45 13.85 L-68.55 15.7 -67.6 16.2 -62.15 20.15 -62.1 20.15 -62.0 20.25 -62.15 20.15 M-52.85 36.3 L-54.35 31.05 -54.6 30.45 -54.8 30.0 -55.15 29.25 -55.5 28.55 -56.65 26.6 -56.9 26.15 -58.2 24.35 -58.45 24.05 -58.7 23.7 -60.1 22.1 -60.9 21.3 -61.05 21.15 -61.25 20.95 -61.7 20.5 -61.75 20.5 -61.95 20.3 -62.0 20.25 M-52.6 -33.05 Q-54.15 -25.35 -59.8 -19.35 L-60.55 -18.6 Q-64.15 -14.95 -68.45 -12.85 M-15.45 2.65 L-5.1 0.35 M-32.3 6.4 L-15.45 2.65 M-42.25 12.5 Q-39.15 9.4 -35.5 7.65 L-32.3 6.4 M-61.95 20.3 L-61.85 20.35 -61.75 20.5 M-55.5 28.55 L-55.85 27.85 -56.5 26.8 -56.65 26.6" fill="none" stroke="#000000" stroke-linecap="round" stroke-linejoin="round" stroke-opacity="0.6" stroke-width="1.0"/>
    <path d="M-46.05 -0.85 Q-46.05 1.9 -44.1 3.85 -42.15 5.8 -39.4 5.8 -37.3 5.8 -35.7 4.7 L-34.9 4.0 -34.75 3.85 -33.95 2.9 -33.9 2.85 -33.65 2.5 -33.0 0.9 -32.8 -0.7 -32.8 -0.85 -32.8 -1.05 -32.85 -1.85 -32.9 -2.15 -32.95 -2.3 -33.05 -2.65 -33.55 -4.0 Q-33.1 -3.15 -32.9 -2.15 M-43.4 -6.1 L-44.1 -5.5 -44.15 -5.4 Q-46.05 -3.55 -46.05 -0.85 M-43.4 -6.1 Q-41.7 -7.45 -39.4 -7.45 -36.65 -7.45 -34.75 -5.5 L-34.7 -5.45 -34.65 -5.4 -34.45 -5.2 -33.55 -4.0" fill="none" stroke="#000000" stroke-linecap="round" stroke-linejoin="round" stroke-opacity="0.4" stroke-width="1.0"/>
  </g>
</svg>
