<?xml version="1.0" encoding="UTF-8" standalone="no"?>
<svg xmlns:xlink="http://www.w3.org/1999/xlink" height="9.7px" width="9.7px" xmlns="http://www.w3.org/2000/svg">
  <g transform="matrix(1.0, 0.0, 0.0, 1.0, 4.85, 4.85)">
    <path d="M3.2 -2.95 Q4.0 -2.1 4.25 -0.95 L-3.1 3.05 Q-3.95 2.2 -4.2 1.1 L3.2 -2.95" fill="#000000" fill-opacity="0.8" fill-rule="evenodd" stroke="none"/>
    <path d="M4.25 -0.95 L4.35 0.0 Q4.35 1.8 3.05 3.05 1.8 4.35 0.0 4.35 -1.8 4.35 -3.1 3.05 L4.25 -0.95 M-4.2 1.1 L-4.35 0.0 Q-4.35 -1.8 -3.1 -3.1 -1.8 -4.35 0.0 -4.35 1.8 -4.35 3.05 -3.1 L3.2 -2.95 -4.2 1.1" fill="#ffffff" fill-opacity="0.49803922" fill-rule="evenodd" stroke="none"/>
    <path d="M3.2 -2.95 Q4.0 -2.1 4.25 -0.95 L4.35 0.0 Q4.35 1.8 3.05 3.05 1.8 4.35 0.0 4.35 -1.8 4.35 -3.1 3.05 -3.95 2.2 -4.2 1.1 L-4.35 0.0 Q-4.35 -1.8 -3.1 -3.1 -1.8 -4.35 0.0 -4.35 1.8 -4.35 3.05 -3.1 L3.2 -2.95 -4.2 1.1 M4.25 -0.95 L-3.1 3.05" fill="none" stroke="#000000" stroke-linecap="round" stroke-linejoin="round" stroke-opacity="0.4" stroke-width="1.0"/>
  </g>
</svg>
