<?xml version="1.0" encoding="UTF-8" standalone="no"?>
<svg xmlns:xlink="http://www.w3.org/1999/xlink" height="45.55px" width="26.3px" xmlns="http://www.w3.org/2000/svg">
  <g transform="matrix(1.0, 0.0, 0.0, 1.0, 9.2, 17.7)">
    <path d="M-7.5 -8.9 L-7.8 -9.05 Q-8.6 -9.75 -8.7 -13.05 -8.75 -16.35 -7.8 -16.6 L0.35 -17.2 Q7.05 -17.05 7.95 -16.3 8.8 -15.55 8.7 -12.5 8.6 -9.55 7.95 -8.8 L7.55 -8.6 0.2 -8.25 -7.5 -8.9" fill="#ffffff" fill-rule="evenodd" stroke="none"/>
    <path d="M-7.5 -8.9 L-7.8 -9.05 Q-8.6 -9.75 -8.7 -13.05 -8.75 -16.35 -7.8 -16.6 L0.35 -17.2 Q7.05 -17.05 7.95 -16.3 8.8 -15.55 8.7 -12.5 8.6 -9.55 7.95 -8.8 L7.55 -8.6 7.3 -2.35 7.25 -2.05 7.2 -1.4 Q6.65 6.9 7.05 8.65 7.4 10.15 11.95 15.25 16.35 20.15 16.55 22.25 16.8 24.65 15.2 26.15 13.65 27.55 11.3 27.35 8.8 27.15 5.95 25.05 3.05 22.6 1.75 21.7 L-1.7 19.6 -4.55 17.2 Q-6.65 15.05 -6.95 11.7 -7.2 9.5 -7.5 -8.9 L0.2 -8.25 7.55 -8.6" fill="none" stroke="#000000" stroke-linecap="round" stroke-linejoin="round" stroke-width="1.0"/>
  </g>
</svg>
