<?xml version="1.0" encoding="UTF-8" standalone="no"?>
<svg xmlns:xlink="http://www.w3.org/1999/xlink" height="20.0px" width="95.2px" xmlns="http://www.w3.org/2000/svg">
  <g transform="matrix(1.0, 0.0, 0.0, 1.0, 47.6, 10.0)">
    <path d="M-21.5 -7.25 L-23.35 -6.9 -25.0 -6.2 Q-25.75 -5.6 -26.0 -4.6 -26.25 -3.3 -25.95 -2.05 L-25.15 0.45 -24.95 0.75 -24.8 1.1 -24.55 1.65 -24.3 1.7 -24.1 1.8 -24.05 1.8 Q-22.5 1.95 -21.4 1.3 -20.25 0.65 -19.45 -0.35 -18.65 -1.45 -18.15 -2.75 -17.75 -4.0 -17.6 -5.35 L-17.5 -5.9 -17.6 -6.55 -17.8 -7.1 Q-18.0 -7.3 -18.4 -7.3 L-18.65 -7.3 -19.4 -7.35 -19.6 -7.35 -21.5 -7.25 M-23.85 -8.85 L-21.25 -9.25 -18.6 -9.45 -16.9 -9.25 Q-16.1 -9.0 -15.35 -8.25 -14.9 -7.6 -14.8 -6.8 -14.75 -6.05 -14.85 -5.35 L-15.05 -3.95 -15.4 -2.7 -15.8 -1.4 -16.05 -0.1 Q-16.55 1.15 -17.5 1.9 -18.4 2.65 -19.45 3.1 L-19.6 3.15 -22.05 4.1 Q-23.25 4.5 -24.3 5.0 L-24.95 7.2 -25.95 9.2 -26.85 9.8 -27.95 10.0 Q-28.25 10.0 -28.35 9.8 L-28.45 9.35 -28.35 9.2 -28.25 9.1 -28.1 8.6 -27.85 8.2 -27.8 8.1 -27.7 8.0 Q-27.15 6.55 -26.9 4.9 -26.8 4.05 -26.85 3.1 L-27.2 1.5 -28.2 -1.2 Q-28.55 -2.55 -28.5 -4.05 L-28.6 -4.5 -28.85 -4.95 -29.05 -5.4 -29.05 -5.85 -28.2 -7.0 Q-27.65 -7.45 -26.9 -7.75 L-25.45 -8.4 -23.85 -8.85 M-44.0 -6.9 L-42.05 -7.75 -38.35 -9.0 -34.55 -9.6 -33.55 -9.4 -32.9 -8.85 Q-32.7 -8.45 -32.65 -7.95 -32.6 -7.45 -32.8 -7.0 -32.9 -6.6 -33.25 -6.35 -33.5 -6.0 -34.0 -6.05 L-35.3 -6.35 -36.6 -6.6 Q-38.65 -6.55 -40.6 -5.75 -42.45 -4.95 -43.85 -3.4 L-43.95 -3.3 -43.95 -3.2 -43.5 -2.85 -43.0 -2.7 -37.4 -2.35 -34.75 -1.85 -32.1 -0.9 -29.85 0.5 Q-28.85 1.35 -28.15 2.55 L-28.0 3.1 Q-27.9 3.75 -28.1 4.3 L-29.0 5.8 -30.4 7.1 -32.15 8.15 -35.7 9.45 -39.5 10.0 -41.6 9.75 -43.55 8.9 -45.1 7.4 Q-45.65 6.55 -45.55 5.3 L-45.45 4.75 -45.15 4.3 -44.8 4.05 -44.25 3.95 -44.0 4.0 -43.75 4.0 -42.5 5.1 -41.2 6.25 -39.65 6.9 -38.0 7.2 -35.65 6.7 -33.25 5.8 -32.4 5.3 -31.55 4.7 -30.95 4.0 -30.75 3.1 -30.75 3.05 Q-31.05 2.4 -31.65 1.9 -32.15 1.45 -32.85 1.15 -33.5 0.8 -34.3 0.65 L-35.65 0.3 -39.5 -0.1 -43.25 -0.4 -44.55 -0.65 -45.85 -1.05 -46.85 -1.8 Q-47.4 -2.25 -47.6 -2.9 -47.6 -3.85 -47.05 -4.6 L-45.75 -5.9 -44.0 -6.9 M0.8 4.85 L1.15 5.0 1.45 5.3 1.45 5.75 0.8 6.8 -0.25 7.5 -1.55 8.05 -2.85 8.5 -4.9 9.05 -7.05 9.4 -9.0 9.65 -10.95 10.0 -11.1 10.0 Q-11.65 10.0 -11.85 9.65 L-12.1 9.0 -12.0 8.05 -11.8 7.3 -11.8 7.1 -11.7 6.8 -11.6 6.4 -11.55 5.95 -11.5 5.5 -11.45 4.9 -11.5 4.55 -11.5 4.1 -11.55 3.8 -11.55 3.5 -11.6 3.1 -11.6 2.8 -11.8 2.0 -11.8 1.8 -11.9 1.55 -12.5 -0.65 -12.7 -3.0 -12.45 -5.35 -11.6 -7.5 -10.6 -9.05 Q-9.85 -9.75 -8.9 -9.8 -8.6 -9.8 -8.55 -9.6 L-8.45 -9.25 -8.65 -8.85 -8.8 -8.4 -9.7 -5.4 Q-10.0 -3.8 -9.9 -2.0 L-9.55 -0.5 -9.1 0.85 -8.75 2.35 -8.6 3.1 -8.55 3.8 -8.45 4.6 -8.6 5.5 -8.45 6.25 -8.05 6.85 -7.15 6.85 -5.35 6.7 -3.65 6.25 -1.95 5.6 -0.3 4.9 0.0 4.9 0.35 4.85 0.8 4.85 M35.7 -8.6 L36.1 -8.45 36.25 -8.15 36.3 -7.65 36.2 -7.25 35.8 -5.9 35.6 -4.55 35.55 -3.15 35.8 -1.8 35.95 -1.45 36.05 -1.1 36.35 -0.65 Q36.5 -0.45 36.75 -0.4 L37.55 -0.55 39.75 -1.3 42.05 -2.05 42.4 -2.35 42.6 -2.9 42.65 -3.45 42.7 -4.1 42.85 -5.25 43.15 -6.6 43.65 -7.7 44.45 -8.85 45.35 -9.55 46.45 -10.0 46.5 -10.0 46.85 -9.9 47.35 -9.5 47.2 -9.1 47.0 -8.7 46.45 -7.7 46.4 -7.6 45.85 -6.5 45.4 -5.4 45.25 -4.1 Q45.25 -2.35 45.9 -0.55 L46.45 0.4 46.6 0.7 47.2 2.0 47.4 3.0 47.55 3.95 47.6 4.85 47.5 5.8 Q47.3 7.2 46.65 8.4 L45.65 9.55 Q45.0 10.05 44.2 10.0 43.85 10.05 43.65 9.75 43.5 9.4 43.75 9.15 44.6 7.65 44.85 6.05 45.05 4.5 44.7 3.1 L44.65 2.85 44.3 1.95 43.95 1.15 43.5 1.0 43.05 1.0 41.85 1.15 40.6 1.45 39.45 1.95 38.3 2.4 38.0 2.55 37.8 2.85 37.85 3.1 37.85 3.6 37.95 4.35 37.85 6.0 37.4 7.5 36.35 8.75 Q35.8 9.35 35.0 9.5 L34.7 9.4 34.35 9.1 34.45 8.55 35.3 6.1 Q35.6 4.8 35.35 3.5 L35.1 3.1 34.85 2.95 34.05 2.55 33.3 2.15 32.8 1.45 32.75 0.95 33.15 0.5 33.55 0.2 34.0 -0.25 33.9 -0.45 33.75 -0.65 33.35 -1.6 33.05 -2.55 32.95 -4.5 Q33.0 -5.55 33.2 -6.45 33.5 -7.25 34.2 -7.85 34.85 -8.55 35.7 -8.6 M16.9 -6.9 L18.85 -7.75 22.5 -9.0 26.3 -9.6 27.3 -9.4 27.95 -8.85 28.2 -7.95 28.05 -7.0 27.65 -6.35 Q27.35 -6.0 26.85 -6.05 L25.55 -6.35 24.25 -6.6 Q22.2 -6.55 20.3 -5.75 18.4 -4.95 17.0 -3.4 L16.95 -3.3 16.95 -3.2 Q17.0 -2.95 17.35 -2.85 L17.85 -2.7 23.45 -2.35 26.1 -1.85 28.75 -0.9 31.0 0.5 Q32.05 1.35 32.7 2.55 L32.85 3.1 32.75 4.3 31.85 5.8 30.45 7.1 28.7 8.15 Q27.0 9.0 25.15 9.45 L21.35 10.0 19.25 9.75 17.3 8.9 Q16.35 8.25 15.75 7.4 15.2 6.55 15.35 5.3 L15.4 4.75 15.7 4.3 16.05 4.05 16.6 3.95 16.9 4.0 17.15 4.0 18.35 5.1 19.7 6.25 Q20.4 6.65 21.2 6.9 L22.85 7.2 25.2 6.7 27.65 5.8 28.5 5.3 29.3 4.7 29.9 4.0 30.1 3.1 30.1 3.05 29.2 1.9 Q28.7 1.45 28.0 1.15 27.35 0.8 26.55 0.65 L25.2 0.3 21.35 -0.1 17.6 -0.4 16.3 -0.65 15.0 -1.05 Q14.45 -1.3 14.0 -1.8 13.5 -2.25 13.25 -2.9 13.25 -3.85 13.8 -4.6 14.3 -5.35 15.1 -5.9 L16.9 -6.9 M4.5 -2.85 Q4.15 -1.85 4.15 -0.65 L4.3 1.4 4.8 2.1 5.5 2.3 6.1 2.3 7.1 2.25 8.05 2.2 8.95 1.9 9.65 1.3 9.55 1.05 9.4 0.7 9.35 0.55 9.3 0.3 9.25 0.2 9.2 0.1 Q8.8 -0.65 8.55 -1.55 L8.1 -3.4 Q7.95 -3.7 7.95 -4.05 L7.85 -4.8 7.7 -5.4 7.25 -5.9 Q6.2 -5.55 5.5 -4.65 L4.5 -2.85 M8.8 -9.6 Q9.5 -9.75 9.85 -9.15 10.3 -8.6 10.3 -7.75 L10.25 -6.5 10.15 -5.15 Q10.15 -4.35 10.3 -3.6 L10.8 -1.7 11.7 0.1 12.2 0.55 12.75 0.95 13.2 1.35 13.65 1.95 Q13.75 2.35 13.5 2.6 L13.05 3.1 13.05 3.25 13.1 3.35 13.05 3.7 13.1 4.05 13.1 4.2 13.15 5.85 12.9 7.4 12.55 8.3 12.05 9.15 11.3 9.8 10.4 10.0 9.6 9.95 Q9.5 9.8 9.55 9.45 L9.8 8.95 10.1 8.3 10.35 7.6 10.5 7.0 10.6 6.4 10.65 5.6 10.6 4.7 10.6 4.55 10.6 4.35 10.5 4.15 10.45 4.0 10.1 4.0 9.7 3.95 7.3 4.05 4.9 4.35 Q4.55 4.5 4.45 4.8 4.3 5.05 4.3 5.45 L4.1 6.6 3.75 7.8 3.55 8.4 Q2.95 9.0 2.25 9.0 1.85 9.05 1.6 8.65 1.35 8.4 1.5 7.8 L1.6 7.25 1.7 6.65 Q2.1 4.9 1.95 3.1 L1.95 3.05 1.35 -0.9 Q1.25 -1.85 1.45 -2.75 1.65 -3.65 2.15 -4.5 L3.25 -6.0 4.6 -7.3 6.6 -8.75 Q7.6 -9.45 8.8 -9.6" fill="#000000" fill-rule="evenodd" stroke="none"/>
  </g>
</svg>
