<?xml version="1.0" encoding="UTF-8" standalone="no"?>
<svg xmlns:xlink="http://www.w3.org/1999/xlink" height="95.8px" width="1177.0px" xmlns="http://www.w3.org/2000/svg">
  <g transform="matrix(1.0, 0.0, 0.0, 1.0, 588.5, 47.9)">
    <path d="M588.0 35.4 L588.0 47.4 -588.0 47.4 -588.0 35.4 -562.2 29.4 -561.9 29.4 -561.9 -47.4 560.1 -47.4 560.1 29.4 561.3 29.4 588.0 35.4 M560.1 29.4 L-561.9 29.4 560.1 29.4" fill="#ffffff" fill-opacity="0.0" fill-rule="evenodd" stroke="none"/>
    <path d="M588.0 35.4 L588.0 47.4 -588.0 47.4 -588.0 35.4 -562.2 29.4 -561.9 29.4 M-561.9 -47.4 L560.1 -47.4" fill="none" stroke="#000000" stroke-linecap="butt" stroke-linejoin="miter-clip" stroke-miterlimit="4.0" stroke-width="1.0"/>
    <path d="M560.1 -47.4 L560.1 29.4 M561.3 29.4 L588.0 35.4" fill="none" stroke="#000000" stroke-linecap="butt" stroke-linejoin="miter-clip" stroke-miterlimit="4.0" stroke-width="1.0"/>
    <path d="M-561.9 29.4 L-561.9 -47.4 M560.1 29.4 L561.3 29.4" fill="none" stroke="#000000" stroke-linecap="round" stroke-linejoin="miter-clip" stroke-miterlimit="4.0" stroke-width="1.0"/>
    <path d="M-561.9 29.4 L560.1 29.4" fill="none" stroke="#000000" stroke-linecap="round" stroke-linejoin="miter-clip" stroke-miterlimit="4.0" stroke-opacity="0.6" stroke-width="1.0"/>
    <path d="M-557.85 -42.25 L556.5 -42.25" fill="none" stroke="#ffffff" stroke-linecap="butt" stroke-linejoin="miter-clip" stroke-miterlimit="4.0" stroke-opacity="0.8" stroke-width="1.0"/>
  </g>
</svg>
