<?xml version="1.0" encoding="UTF-8" standalone="no"?>
<svg xmlns:xlink="http://www.w3.org/1999/xlink" height="84.5px" width="180.1px" xmlns="http://www.w3.org/2000/svg">
  <g transform="matrix(1.0, 0.0, 0.0, 1.0, 85.0, 29.65)">
    <path d="M-84.4 -11.15 L-84.5 -11.15 -84.4 -11.15" fill="#eeeeee" fill-rule="evenodd" stroke="none"/>
    <path d="M-67.05 -3.35 L-67.1 -3.35 -67.05 -3.4 -67.05 -3.35" fill="#858585" fill-rule="evenodd" stroke="none"/>
    <path d="M-44.1 45.1 L-43.9 45.25 -44.1 45.1 M-46.85 39.7 L-46.95 39.65 -46.85 39.7" fill="#a1a1a1" fill-rule="evenodd" stroke="none"/>
    <path d="M-65.3 -26.85 L-66.45 -28.0 -66.85 -27.95 -66.95 -25.8 -66.95 -25.35 Q-67.0 -24.15 -67.45 -23.7 L-67.5 -23.7 Q-69.05 -22.45 -70.65 -24.05 L-70.25 -22.6 -71.0 -22.55 -68.9 -20.9 Q-68.8 -20.6 -69.05 -19.65 -69.25 -18.95 -68.5 -18.45 -69.0 -17.65 -70.4 -17.45 -71.7 -17.25 -72.5 -17.75 -72.2 -16.45 -73.3 -15.8 -73.65 -15.6 -74.1 -15.5 L-72.7 -14.3 Q-72.35 -13.6 -72.55 -13.05 L-73.05 -12.05 Q-73.55 -10.6 -74.1 -9.95 -75.05 -8.85 -76.2 -10.2 L-77.5 -8.8 -78.05 -8.6 Q-79.3 -8.25 -79.55 -9.05 -79.65 -10.1 -79.95 -10.55 -80.45 -11.25 -81.9 -11.4 L-84.2 -11.15 -84.4 -11.15 -84.5 -11.15 -80.65 -20.0 -79.5 -24.15 -73.75 -26.6 -67.5 -28.85 -66.0 -29.15 -65.55 -28.7 -65.3 -26.85 M76.5 17.45 L76.45 19.3 Q76.35 20.55 75.2 21.95 74.05 23.3 73.7 23.25 74.7 23.35 74.7 24.4 L74.05 26.25 76.65 26.7 Q78.05 27.3 76.95 28.9 76.35 29.7 74.8 29.75 L74.7 29.75 74.3 29.75 72.75 29.7 72.4 29.7 Q72.25 30.3 72.6 31.65 72.9 32.75 72.45 33.45 L72.35 33.45 69.15 33.65 68.4 33.75 65.2 34.55 65.1 34.55 65.0 34.6 65.0 34.55 65.05 34.3 65.0 34.1 65.0 34.05 Q64.7 33.55 63.8 33.25 L63.7 33.2 63.75 33.2 63.8 33.15 63.75 33.15 63.7 33.2 63.7 33.15 63.25 33.1 62.8 32.95 63.55 32.8 64.35 32.15 64.35 32.1 64.4 32.0 64.45 31.85 64.1 31.35 63.75 31.15 62.9 30.95 Q62.3 30.8 61.25 31.55 L62.35 30.3 63.7 29.7 66.0 29.0 66.7 28.7 67.2 28.4 Q66.75 27.2 65.4 27.15 L65.1 27.2 Q63.55 27.35 61.1 28.75 L61.15 28.7 61.0 28.75 63.75 22.75 67.25 20.5 68.95 20.15 Q73.55 19.1 76.4 17.45 L76.4 17.5 76.5 17.45 M63.4 31.6 L63.4 31.7 63.35 31.7 63.4 31.6" fill="#ffffff" fill-opacity="0.0" fill-rule="evenodd" stroke="none"/>
    <path d="M-70.25 -4.2 L-70.3 -4.15 -71.2 -4.6 -71.4 -4.8 -72.35 -5.45 -72.55 -5.6 Q-73.25 -6.0 -74.1 -6.2 L-75.15 -6.35 -76.3 -6.35 -78.8 -6.15 -79.95 -6.1 -80.1 -6.1 -80.75 -6.05 -79.75 -7.05 Q-79.45 -7.4 -79.45 -7.65 -79.45 -7.95 -79.8 -8.2 L-81.95 -8.1 -82.6 -7.95 -83.95 -7.8 -84.35 -7.85 Q-84.5 -8.7 -83.4 -9.3 L-81.7 -10.35 -81.85 -10.55 Q-82.45 -11.1 -84.2 -11.15 L-81.9 -11.4 Q-80.45 -11.25 -79.95 -10.55 -79.65 -10.1 -79.55 -9.05 -79.3 -8.25 -78.05 -8.6 L-77.5 -8.8 -76.2 -10.2 Q-75.05 -8.85 -74.1 -9.95 -73.55 -10.6 -73.05 -12.05 L-72.55 -13.05 Q-72.35 -13.6 -72.7 -14.3 L-74.1 -15.5 Q-73.65 -15.6 -73.3 -15.8 -72.2 -16.45 -72.5 -17.75 -71.7 -17.25 -70.4 -17.45 -69.0 -17.65 -68.5 -18.45 -69.25 -18.95 -69.05 -19.65 -68.8 -20.6 -68.9 -20.9 L-71.0 -22.55 -70.25 -22.6 -70.65 -24.05 Q-69.05 -22.45 -67.5 -23.7 L-67.45 -23.7 Q-67.0 -24.15 -66.95 -25.35 L-66.95 -25.8 -66.85 -27.95 -66.45 -28.0 -65.3 -26.85 -65.0 -16.05 -65.0 -15.85 -70.25 -4.2 M-34.5 38.7 L-42.65 41.0 -46.85 39.7 -49.05 39.0 -47.5 41.3 Q-45.7 43.7 -44.1 45.1 L-43.9 45.25 -41.7 51.75 -41.75 51.95 -41.8 52.2 -41.85 52.25 -43.05 53.95 -43.9 54.85 Q-44.65 52.2 -44.5 50.7 -46.45 51.55 -47.75 51.6 L-47.9 51.6 -48.0 51.6 -47.9 51.5 Q-45.25 48.6 -44.6 46.6 L-44.45 45.4 -44.85 46.2 Q-45.55 47.35 -47.0 48.25 -48.9 49.4 -50.65 49.35 L-54.3 48.35 -57.45 48.55 Q-56.4 47.75 -53.7 47.45 L-49.1 46.7 Q-52.95 44.0 -58.05 44.0 -57.3 43.9 -53.85 41.8 -54.9 39.7 -57.65 39.45 -55.65 37.8 -53.9 39.75 -52.85 40.85 -51.05 43.35 L-52.1 39.15 Q-52.9 36.7 -54.1 35.6 L-54.05 35.5 Q-51.7 35.5 -50.1 36.45 -49.15 36.95 -46.85 39.2 L-46.75 39.3 Q-49.7 35.9 -49.7 33.9 -49.1 34.1 -47.75 35.1 -46.55 35.95 -45.65 36.05 L-46.25 32.4 Q-45.65 32.6 -44.3 33.55 -43.15 34.35 -42.25 34.5 -42.6 32.5 -43.65 30.95 L-44.1 30.3 -43.4 30.65 -42.4 31.05 -41.4 31.35 -41.45 31.15 -40.75 31.25 -40.65 31.25 -34.9 37.25 -34.5 38.7 M-46.85 39.7 L-46.95 39.65 -46.85 39.7 M77.35 16.75 L77.85 24.25 81.85 27.5 82.85 35.75 82.8 35.8 82.75 35.8 Q77.05 36.1 73.3 36.0 L68.45 35.6 65.7 35.4 65.65 35.4 64.7 35.5 64.75 35.35 64.9 34.6 65.0 34.6 65.1 34.55 65.2 34.55 68.4 33.75 69.15 33.65 72.35 33.45 72.45 33.45 Q72.9 32.75 72.6 31.65 72.25 30.3 72.4 29.7 L72.75 29.7 74.3 29.75 74.7 29.75 74.8 29.75 Q76.35 29.7 76.95 28.9 78.05 27.3 76.65 26.7 L74.05 26.25 74.7 24.4 Q74.7 23.35 73.7 23.25 74.05 23.3 75.2 21.95 76.35 20.55 76.45 19.3 L76.5 17.45 77.35 16.75" fill="#000000" fill-opacity="0.101960786" fill-rule="evenodd" stroke="none"/>
    <path d="M-70.25 -4.2 L-65.0 -15.85 -65.0 -16.05 -62.65 -15.15 -54.35 -13.85 -51.5 -3.5 -51.7 -3.45 -52.15 -3.4 -52.25 -3.4 -52.8 -3.35 -53.05 -3.3 -54.05 -3.25 -57.85 -2.95 -60.6 -2.9 -60.75 -2.9 -67.05 -3.35 -67.05 -3.4 -67.1 -3.35 -67.9 -3.5 -70.25 -4.2 -70.8 -3.6 -70.25 -4.2 M82.85 35.75 L81.85 27.5 77.85 24.25 77.35 16.75 80.75 19.1 81.95 20.15 Q84.35 22.45 85.05 24.8 L85.1 25.0 88.85 27.5 92.65 35.15 88.4 35.5 84.0 35.75 82.85 35.75" fill="#000000" fill-opacity="0.2" fill-rule="evenodd" stroke="none"/>
    <path d="M-65.0 -16.05 L-65.3 -26.85 -65.55 -28.7 -64.35 -27.5 -60.1 -21.1 Q-56.9 -16.45 -55.35 -14.75 L-54.35 -13.85 -62.65 -15.15 -65.0 -16.05 M-30.1 47.95 L-30.6 49.6 -30.6 49.7 -30.65 49.8 Q-31.1 51.0 -31.95 52.1 L-33.8 53.9 -34.4 46.85 Q-34.35 50.6 -35.6 52.35 L-37.05 53.45 Q-38.15 54.05 -38.55 54.7 -39.85 52.8 -39.3 48.2 -38.75 43.35 -36.55 42.35 L-37.95 42.7 Q-39.25 43.05 -40.1 43.5 -41.3 44.1 -41.7 44.8 -42.05 45.35 -42.05 46.4 L-41.9 48.45 Q-41.6 50.65 -41.7 51.75 L-43.9 45.25 -44.1 45.1 Q-45.7 43.7 -47.5 41.3 L-49.05 39.0 -46.85 39.7 -42.65 41.0 -34.5 38.7 -33.7 41.95 -33.65 42.05 Q-32.35 45.25 -30.1 47.95" fill="#000000" fill-opacity="0.15294118" fill-rule="evenodd" stroke="none"/>
    <path d="M76.4 17.5 L76.4 17.45 76.4 17.5" fill="#ffffff" fill-rule="evenodd" stroke="none"/>
    <path d="M-65.0 -15.85 L-65.0 -16.05 M-84.5 -11.15 L-80.65 -20.0 -79.5 -24.15 -73.75 -26.6 -67.5 -28.85 -66.0 -29.15 -65.55 -28.7 -64.35 -27.5 -60.1 -21.1 Q-56.9 -16.45 -55.35 -14.75 L-54.35 -13.85 -51.5 -3.5 M-67.05 -3.35 L-67.1 -3.35 M-30.1 47.95 Q-32.35 45.25 -33.65 42.05 L-33.7 41.95 -34.5 38.7 -34.9 37.25 -40.65 31.25 -40.75 31.25 M-41.8 52.2 L-41.85 52.25 M92.65 35.15 L94.6 35.0 M77.35 16.75 L76.5 17.45 76.4 17.5 76.4 17.45 Q73.55 19.1 68.95 20.15 L67.25 20.5 63.75 22.75 61.0 28.75 M65.7 35.4 L68.45 35.6 73.3 36.0 Q77.05 36.1 82.75 35.8 L82.8 35.8 84.0 35.75 88.4 35.5 92.65 35.15 88.85 27.5 85.1 25.0 85.05 24.8 Q84.35 22.45 81.95 20.15 L80.75 19.1 77.35 16.75" fill="none" stroke="#000000" stroke-linecap="round" stroke-linejoin="round" stroke-opacity="0.6" stroke-width="1.0"/>
    <path d="M64.7 35.5 L65.65 35.4" fill="none" stroke="#000000" stroke-linecap="round" stroke-linejoin="round" stroke-opacity="0.6" stroke-width="1.0"/>
    <path d="M-70.25 -4.2 L-65.0 -15.85 M-65.0 -16.05 L-65.3 -26.85 -65.55 -28.7 M-54.35 -13.85 L-62.65 -15.15 -65.0 -16.05 M-34.5 38.7 L-42.65 41.0 -46.85 39.7 -49.05 39.0 -47.5 41.3 Q-45.7 43.7 -44.1 45.1 L-43.9 45.25 -41.7 51.75 M-46.85 39.7 L-46.95 39.65 -46.85 39.7 M82.85 35.75 L81.85 27.5 77.85 24.25 77.35 16.75" fill="none" stroke="#000000" stroke-linecap="round" stroke-linejoin="round" stroke-opacity="0.4" stroke-width="1.0"/>
  </g>
</svg>
