<?xml version="1.0" encoding="UTF-8" standalone="no"?>
<svg xmlns:xlink="http://www.w3.org/1999/xlink" height="708.2px" width="145.7px" xmlns="http://www.w3.org/2000/svg">
  <g transform="matrix(1.0, 0.0, 0.0, 1.0, 72.85, 169.2)">
    <path d="M1.0 -152.7 L0.2 -152.7 -1.0 -152.7 Q-18.25 -152.7 -30.4 -140.85 -42.25 -128.7 -42.25 -111.7 -42.25 -94.75 -30.4 -82.9 -18.25 -70.45 -1.0 -70.45 L0.2 -70.45 1.0 -70.45 Q18.25 -70.45 30.4 -82.9 42.25 -94.75 42.25 -111.7 42.25 -128.7 30.4 -140.85 18.25 -152.7 1.0 -152.7 M1.0 -168.7 Q24.65 -168.7 41.3 -152.05 58.25 -135.4 58.25 -111.7 58.25 -88.05 41.3 -71.4 24.65 -54.75 1.0 -54.75 L-0.2 -54.75 -1.0 -54.75 Q-24.65 -54.75 -41.3 -71.4 -58.25 -88.05 -58.25 -111.7 -58.25 -135.4 -41.3 -152.05 -24.65 -168.7 -1.0 -168.7 L0.2 -168.7 1.0 -168.7 M57.95 319.95 Q63.7 329.25 66.6 339.8 70.1 351.65 70.1 364.75 70.1 400.9 44.5 426.5 L40.65 430.05 41.6 431.0 Q44.5 433.85 47.4 437.4 52.8 443.45 57.0 450.2 72.35 474.5 72.35 505.55 72.35 518.35 69.45 530.2 L49.6 534.35 Q25.3 538.5 3.85 538.5 L0.2 538.5 -0.2 538.5 -3.85 538.5 Q-25.3 538.5 -49.6 534.35 L-69.45 530.2 Q-72.35 518.35 -72.35 505.55 -72.35 474.5 -57.0 450.2 -52.8 443.45 -47.4 437.4 -44.5 433.85 -41.6 431.0 L-40.65 430.05 -44.5 426.5 Q-70.1 400.9 -70.1 364.75 -70.1 351.65 -66.6 339.8 -63.7 329.25 -57.95 319.95 -29.1 324.15 0.2 324.15 29.1 324.15 57.95 319.95 M-40.65 430.05 Q-20.45 435.75 0.2 435.7 20.45 435.75 40.65 430.05 20.45 435.75 0.2 435.7 -20.45 435.75 -40.65 430.05" fill="#ffffff" fill-opacity="0.0" fill-rule="evenodd" stroke="none"/>
    <path d="M1.0 -152.7 Q18.25 -152.7 30.4 -140.85 42.25 -128.7 42.25 -111.7 42.25 -94.75 30.4 -82.9 18.25 -70.45 1.0 -70.45 L0.2 -70.45 -1.0 -70.45 Q-18.25 -70.45 -30.4 -82.9 -42.25 -94.75 -42.25 -111.7 -42.25 -128.7 -30.4 -140.85 -18.25 -152.7 -1.0 -152.7 L0.2 -152.7 1.0 -152.7 M57.95 319.95 Q63.7 329.25 66.6 339.8 70.1 351.65 70.1 364.75 70.1 400.9 44.5 426.5 L40.65 430.05 41.6 431.0 Q44.5 433.85 47.4 437.4 52.8 443.45 57.0 450.2 72.35 474.5 72.35 505.55 72.35 518.35 69.45 530.2 L49.6 534.35 Q25.3 538.5 3.85 538.5 L0.2 538.5 M-0.2 538.5 L-3.85 538.5 Q-25.3 538.5 -49.6 534.35 L-69.45 530.2 Q-72.35 518.35 -72.35 505.55 -72.35 474.5 -57.0 450.2 -52.8 443.45 -47.4 437.4 -44.5 433.85 -41.6 431.0 L-40.65 430.05 -44.5 426.5 Q-70.1 400.9 -70.1 364.75 -70.1 351.65 -66.6 339.8 -63.7 329.25 -57.95 319.95" fill="none" stroke="#000000" stroke-linecap="round" stroke-linejoin="round" stroke-width="1.0"/>
    <path d="M1.0 -168.7 Q24.65 -168.7 41.3 -152.05 58.25 -135.4 58.25 -111.7 58.25 -88.05 41.3 -71.4 24.65 -54.75 1.0 -54.75 L-0.2 -54.75 -1.0 -54.75 Q-24.65 -54.75 -41.3 -71.4 -58.25 -88.05 -58.25 -111.7 -58.25 -135.4 -41.3 -152.05 -24.65 -168.7 -1.0 -168.7 L0.2 -168.7 1.0 -168.7 M66.9 269.7 L47.7 271.0 Q24.0 272.3 1.3 272.3 L0.2 272.3 -1.3 272.3 Q-24.0 272.3 -47.7 271.0 L-66.9 269.7 M40.65 430.05 Q20.45 435.75 0.2 435.7 -20.45 435.75 -40.65 430.05" fill="none" stroke="#000000" stroke-linecap="round" stroke-linejoin="round" stroke-opacity="0.4" stroke-width="1.0"/>
  </g>
</svg>
