<?xml version="1.0" encoding="UTF-8" standalone="no"?>
<svg xmlns:xlink="http://www.w3.org/1999/xlink" height="39.0px" width="66.35px" xmlns="http://www.w3.org/2000/svg">
  <g transform="matrix(1.0, 0.0, 0.0, 1.0, 33.15, 19.5)">
    <path d="M9.5 17.0 L13.65 9.25 Q16.25 1.95 14.6 -4.45 L9.95 -9.3 Q13.4 -15.05 12.3 -17.2 23.4 -8.15 32.7 4.6 30.85 9.9 24.6 13.45 17.5 15.65 9.5 17.0" fill="#000000" fill-opacity="0.14901961" fill-rule="evenodd" stroke="none"/>
    <path d="M12.3 -17.2 Q13.4 -15.05 9.95 -9.3 L14.6 -4.45 Q16.25 1.95 13.65 9.25 L9.5 17.0" fill="none" stroke="#000000" stroke-linecap="round" stroke-linejoin="round" stroke-opacity="0.4" stroke-width="1.0"/>
    <path d="M-32.65 -0.15 Q-29.3 11.1 -11.6 19.0 -0.35 18.65 9.5 17.0 17.5 15.65 24.6 13.45 30.85 9.9 32.7 4.6 23.4 -8.15 12.3 -17.2 2.1 -20.4 -5.6 -17.9 -10.3 -15.25 -12.55 -11.85 L-19.5 -10.05 Q-28.05 -5.9 -32.65 -0.15 Z" fill="none" stroke="#000000" stroke-linecap="round" stroke-linejoin="round" stroke-width="1.0"/>
  </g>
</svg>
