<?xml version="1.0" encoding="UTF-8" standalone="no"?>
<svg xmlns:xlink="http://www.w3.org/1999/xlink" height="51.0px" width="25.4px" xmlns="http://www.w3.org/2000/svg">
  <g transform="matrix(1.0, 0.0, 0.0, 1.0, 12.7, 25.5)">
    <path d="M3.5 -6.3 L3.5 25.0 -3.5 25.0 -3.5 -6.3 -12.2 -6.3 -12.2 -13.3 -3.5 -13.3 -3.5 -25.0 3.5 -25.0 3.5 -13.3 12.2 -13.3 12.2 -6.3 3.5 -6.3" fill="#ffffff" fill-opacity="0.0" fill-rule="evenodd" stroke="none"/>
    <path d="M3.5 -6.3 L3.5 25.0 -3.5 25.0 -3.5 -6.3 -12.2 -6.3 -12.2 -13.3 -3.5 -13.3 -3.5 -25.0 3.5 -25.0 3.5 -13.3 12.2 -13.3 12.2 -6.3 3.5 -6.3 Z" fill="none" stroke="#000000" stroke-linecap="round" stroke-linejoin="round" stroke-width="1.0"/>
  </g>
</svg>
