<?xml version="1.0" encoding="UTF-8" standalone="no"?>
<svg xmlns:xlink="http://www.w3.org/1999/xlink" height="62.0px" width="191.95px" xmlns="http://www.w3.org/2000/svg">
  <g transform="matrix(1.0, 0.0, 0.0, 1.0, 95.85, 31.0)">
    <path d="M71.4 7.7 Q58.0 10.4 45.9 1.7 41.95 -1.15 38.7 -4.85 L36.15 -8.0 Q31.0 -11.15 33.4 -17.0 35.6 -22.2 42.1 -26.55 48.65 -30.9 54.15 -30.45 60.45 -30.0 61.65 -22.8 63.5 -12.15 68.8 -7.1 69.75 -7.6 70.85 -7.6 L71.45 -7.55 70.2 -6.25 Q68.4 -3.8 68.3 -0.25 68.15 3.25 69.75 5.75 L71.15 7.4 69.75 5.75 Q68.15 3.25 68.3 -0.25 68.4 -3.8 70.2 -6.25 L71.45 -7.55 Q72.75 -8.65 74.35 -8.6 76.5 -8.5 78.0 -6.5 L78.05 -6.45 Q81.55 -4.05 84.6 -0.6 88.85 4.2 91.5 10.05 94.35 16.9 91.25 22.85 90.0 25.2 88.35 25.9 86.7 26.55 85.5 24.95 83.45 22.1 80.7 21.6 L78.35 21.65 80.7 21.6 Q83.45 22.1 85.5 24.95 86.7 26.55 88.35 25.9 90.0 25.2 91.25 22.85 94.35 16.9 91.5 10.05 94.85 17.5 95.6 26.7 94.5 27.6 92.35 28.5 88.05 30.3 82.8 30.5 81.9 30.15 80.85 28.85 78.75 26.35 78.35 21.65 L81.55 20.7 Q84.55 19.25 83.4 16.6 82.25 14.0 75.75 10.1 L71.4 7.7 70.9 7.45 71.4 7.7 M65.3 1.45 Q65.5 3.5 66.6 5.1 68.1 7.4 70.3 7.45 L70.9 7.45 70.3 7.45 Q68.1 7.4 66.6 5.1 65.5 3.5 65.3 1.45 59.45 2.4 53.7 -1.2 L49.1 -5.05 53.7 -1.2 Q59.45 2.4 65.3 1.45 L65.25 -0.25 Q65.3 -3.35 67.0 -5.5 67.85 -6.6 68.8 -7.1 67.85 -6.6 67.0 -5.5 65.3 -3.35 65.25 -0.25 L65.3 1.45 M71.15 7.4 Q72.35 8.4 73.8 8.45 76.15 8.5 77.95 6.05 79.7 3.6 79.85 0.1 79.95 -3.4 78.35 -5.95 L78.0 -6.5 78.35 -5.95 Q79.95 -3.4 79.85 0.1 79.7 3.6 77.95 6.05 76.15 8.5 73.8 8.45 72.35 8.4 71.15 7.4 L70.9 7.45 71.15 7.4" fill="#8a8c8e" fill-opacity="0.0" fill-rule="evenodd" stroke="none"/>
    <path d="M-34.75 -9.15 Q-35.4 -5.7 -52.75 -2.5 -61.1 -1.0 -68.5 -0.5 -76.15 -0.05 -77.35 -1.05 -79.4 -2.8 -83.05 -2.9 L-86.35 -2.7 -83.05 -2.9 Q-79.4 -2.8 -77.35 -1.05 -76.15 -0.05 -68.5 -0.5 -61.1 -1.0 -52.75 -2.5 -35.4 -5.7 -34.75 -9.15 -34.6 -10.05 -35.5 -10.95 -36.4 -12.3 -37.75 -12.3 L-53.0 -10.75 -37.75 -12.3 Q-36.4 -12.3 -35.5 -10.95 -34.6 -10.05 -34.75 -9.15 L-34.5 -8.2 -34.75 -9.15 M-86.35 -2.7 Q-85.05 -3.65 -83.6 -4.25 -76.3 -7.25 -58.3 -10.0 L-53.0 -10.75 -55.45 -12.7 -58.15 -14.25 Q-59.35 -16.15 -56.5 -19.2 -53.9 -22.05 -49.45 -24.25 -44.9 -26.6 -41.35 -26.55 -37.3 -26.5 -36.4 -23.15 -34.8 -17.2 -34.5 -12.1 -34.3 -9.6 -34.5 -8.2 L-34.1 -5.65 -34.0 -4.7 Q-33.8 -1.9 -34.05 0.95 -34.6 6.55 -53.6 8.75 L-66.6 9.75 -72.5 9.85 Q-76.6 22.1 -86.35 21.9 -89.45 21.85 -92.65 20.55 L-95.35 19.25 -95.3 18.65 Q-95.05 14.15 -93.6 9.2 -91.15 0.8 -86.35 -2.7 M-34.0 -4.7 Q-34.25 0.85 -51.75 3.9 -64.9 6.15 -72.5 5.75 -75.2 5.6 -76.5 6.85 L-77.3 8.1 Q-81.05 18.35 -88.7 19.45 L-93.55 19.25 -95.3 18.65 -93.55 19.25 -88.7 19.45 Q-81.05 18.35 -77.3 8.1 L-76.5 6.85 Q-75.2 5.6 -72.5 5.75 -64.9 6.15 -51.75 3.9 -34.25 0.85 -34.0 -4.7" fill="#000000" fill-opacity="0.003921569" fill-rule="evenodd" stroke="none"/>
    <path d="M68.8 -7.1 Q63.5 -12.15 61.65 -22.8 60.45 -30.0 54.15 -30.45 48.65 -30.9 42.1 -26.55 35.6 -22.2 33.4 -17.0 31.0 -11.15 36.15 -8.0 L38.7 -4.85 Q41.95 -1.15 45.9 1.7 58.0 10.4 71.4 7.7 L70.9 7.45 71.15 7.4 M71.45 -7.55 L70.85 -7.6 Q69.75 -7.6 68.8 -7.1 M78.0 -6.5 Q76.5 -8.5 74.35 -8.6 72.75 -8.65 71.45 -7.55 M91.5 10.05 Q88.85 4.2 84.6 -0.6 81.55 -4.05 78.05 -6.45 L78.0 -6.5 M91.5 10.05 Q94.85 17.5 95.6 26.7 94.5 27.6 92.35 28.5 88.05 30.3 82.8 30.5 81.9 30.15 80.85 28.85 78.75 26.35 78.35 21.65 L81.55 20.7 Q84.55 19.25 83.4 16.6 82.25 14.0 75.75 10.1 L71.4 7.7 M-34.75 -9.15 Q-34.6 -10.05 -35.5 -10.95 -36.4 -12.3 -37.75 -12.3 L-53.0 -10.75 -58.3 -10.0 Q-76.3 -7.25 -83.6 -4.25 -85.05 -3.65 -86.35 -2.7 -91.15 0.8 -93.6 9.2 -95.05 14.15 -95.3 18.65 L-95.35 19.25 -92.65 20.55 Q-89.45 21.85 -86.35 21.9 -76.6 22.1 -72.5 9.85 L-66.6 9.75 -53.6 8.75 Q-34.6 6.55 -34.05 0.95 -33.8 -1.9 -34.0 -4.7 M-34.5 -8.2 L-34.75 -9.15 M-53.0 -10.75 L-55.45 -12.7 -58.15 -14.25 Q-59.35 -16.15 -56.5 -19.2 -53.9 -22.05 -49.45 -24.25 -44.9 -26.6 -41.35 -26.55 -37.3 -26.5 -36.4 -23.15 -34.8 -17.2 -34.5 -12.1 -34.3 -9.6 -34.5 -8.2" fill="none" stroke="#000000" stroke-linecap="round" stroke-linejoin="miter-clip" stroke-miterlimit="4.0" stroke-width="1.0"/>
    <path d="M70.9 7.45 L70.3 7.45 Q68.1 7.4 66.6 5.1 65.5 3.5 65.3 1.45 L65.25 -0.25 Q65.3 -3.35 67.0 -5.5 67.85 -6.6 68.8 -7.1 M71.15 7.4 L69.75 5.75 Q68.15 3.25 68.3 -0.25 68.4 -3.8 70.2 -6.25 L71.45 -7.55 M78.0 -6.5 L78.35 -5.95 Q79.95 -3.4 79.85 0.1 79.7 3.6 77.95 6.05 76.15 8.5 73.8 8.45 72.35 8.4 71.15 7.4 M78.35 21.65 L80.7 21.6 Q83.45 22.1 85.5 24.95 86.7 26.55 88.35 25.9 90.0 25.2 91.25 22.85 94.35 16.9 91.5 10.05 M-86.35 -2.7 L-83.05 -2.9 Q-79.4 -2.8 -77.35 -1.05 -76.15 -0.05 -68.5 -0.5 -61.1 -1.0 -52.75 -2.5 -35.4 -5.7 -34.75 -9.15 M-95.3 18.65 L-93.55 19.25 -88.7 19.45 Q-81.05 18.35 -77.3 8.1 L-76.5 6.85 Q-75.2 5.6 -72.5 5.75 -64.9 6.15 -51.75 3.9 -34.25 0.85 -34.0 -4.7" fill="none" stroke="#000000" stroke-linecap="round" stroke-linejoin="miter-clip" stroke-miterlimit="4.0" stroke-opacity="0.6" stroke-width="1.0"/>
    <path d="M65.3 1.45 Q59.45 2.4 53.7 -1.2 L49.1 -5.05" fill="none" stroke="#000000" stroke-linecap="round" stroke-linejoin="miter-clip" stroke-miterlimit="4.0" stroke-opacity="0.4" stroke-width="1.0"/>
    <path d="M-34.0 -4.7 L-34.1 -5.65 -34.5 -8.2" fill="none" stroke="#000000" stroke-linecap="round" stroke-linejoin="miter-clip" stroke-miterlimit="4.0" stroke-width="1.0"/>
    <path d="M-86.3 -1.9 L-83.05 -2.25 Q-79.4 -2.15 -77.35 -0.4 -76.15 0.65 -68.5 0.15 -61.1 -0.3 -52.75 -1.85 -31.0 -5.85 -35.5 -10.3" fill="none" stroke="#ffffff" stroke-linecap="butt" stroke-linejoin="miter-clip" stroke-miterlimit="4.0" stroke-width="1.0"/>
  </g>
</svg>
