<?xml version="1.0" encoding="UTF-8" standalone="no"?>
<svg xmlns:xlink="http://www.w3.org/1999/xlink" height="31.3px" width="31.25px" xmlns="http://www.w3.org/2000/svg">
  <g transform="matrix(1.0, 0.0, 0.0, 1.0, 15.8, 25.15)">
    <path d="M7.9 -24.55 L10.25 -15.05 Q-0.1 -13.65 -10.75 -15.15 L-8.5 -24.65 Q-0.2 -23.7 7.9 -24.55 M12.6 -5.4 L14.95 4.15 Q0.1 7.15 -15.3 4.1 L-13.0 -5.5 Q0.0 -3.3 12.6 -5.4" fill="#cacaca" fill-opacity="0.0" fill-rule="evenodd" stroke="none"/>
    <path d="M10.25 -15.05 Q-0.1 -13.65 -10.75 -15.15 M-8.5 -24.65 Q-0.2 -23.7 7.9 -24.55 M12.6 -5.4 Q0.0 -3.3 -13.0 -5.5 M-15.3 4.1 Q0.1 7.15 14.95 4.15" fill="none" stroke="#000000" stroke-linecap="round" stroke-linejoin="round" stroke-opacity="0.6" stroke-width="1.0"/>
  </g>
</svg>
