<?xml version="1.0" encoding="UTF-8" standalone="no"?>
<svg xmlns:xlink="http://www.w3.org/1999/xlink" height="33.4px" width="18.95px" xmlns="http://www.w3.org/2000/svg">
  <g transform="matrix(1.0, 0.0, 0.0, 1.0, 9.45, 98.9)">
    <path d="M-8.95 -66.0 L-8.95 -96.0 Q0.05 -100.75 9.0 -96.0 L9.0 -66.0 Q5.55 -67.85 2.05 -68.25 -1.45 -68.65 -4.95 -67.65 L-8.95 -66.0 M-4.95 -68.0 L-4.95 -67.65 -4.95 -68.0" fill="#ffffff" fill-opacity="0.0" fill-rule="evenodd" stroke="none"/>
    <path d="M-8.95 -66.0 L-8.95 -96.0 Q0.05 -100.75 9.0 -96.0 L9.0 -66.0" fill="none" stroke="#000000" stroke-linecap="round" stroke-linejoin="round" stroke-width="1.0"/>
    <path d="M9.0 -66.0 Q5.55 -67.85 2.05 -68.25 -1.45 -68.65 -4.95 -67.65 L-8.95 -66.0" fill="none" stroke="#000000" stroke-linecap="round" stroke-linejoin="round" stroke-opacity="0.4" stroke-width="1.0"/>
    <path d="M-4.95 -67.65 L-4.95 -68.0" fill="none" stroke="#000000" stroke-linecap="round" stroke-linejoin="round" stroke-opacity="0.6" stroke-width="1.0"/>
    <path d="M-8.95 -78.0 Q0.05 -82.75 9.0 -78.0 M-8.95 -84.0 Q0.05 -88.75 9.0 -84.0 M-8.95 -90.0 Q0.05 -94.75 9.0 -90.0 M9.0 -72.0 Q0.05 -76.75 -8.95 -72.0" fill="none" stroke="#000000" stroke-linecap="round" stroke-linejoin="round" stroke-opacity="0.2" stroke-width="1.0"/>
  </g>
</svg>
