<?xml version="1.0" encoding="UTF-8" standalone="no"?>
<svg xmlns:xlink="http://www.w3.org/1999/xlink" height="25.25px" width="44.95px" xmlns="http://www.w3.org/2000/svg">
  <g transform="matrix(1.0, 0.0, 0.0, 1.0, 20.65, 13.7)">
    <path d="M18.8 -7.85 L4.65 -7.85 4.65 6.3 18.8 6.3 18.8 -7.85 M12.6 -2.45 Q16.1 -0.6 16.3 -0.2 L15.65 0.2 12.45 -0.55 12.1 2.8 13.15 3.95 12.3 4.65 11.65 3.85 10.5 4.45 10.0 3.85 11.25 2.8 11.15 0.6 11.1 0.6 11.05 -0.4 7.5 0.35 7.1 -0.2 Q7.3 -0.85 10.85 -2.45 L10.75 -3.7 11.05 -4.85 Q11.45 -6.05 11.95 -6.2 L12.7 -3.7 12.6 -2.45 M24.3 11.55 L-20.65 11.55 -20.65 -13.7 24.3 -13.7 24.3 11.55 M-4.6 8.8 L-4.6 7.25 -18.35 7.25 -18.35 8.8 -4.6 8.8 M-6.95 6.1 L-6.95 4.55 -18.35 4.55 -18.35 6.1 -6.95 6.1 M-3.85 3.2 L-3.85 1.65 -18.35 1.65 -18.35 3.2 -3.85 3.2 M-6.55 -1.25 L-18.35 -1.25 -18.35 0.3 -6.55 0.3 -6.55 -1.25 M-18.35 -10.55 L-18.35 -9.0 -7.1 -9.0 -7.1 -10.55 -18.35 -10.55 M-18.35 -2.4 L-10.2 -2.4 -10.2 -3.95 -18.35 -3.95 -18.35 -2.4 M-18.35 -7.25 L-18.35 -5.7 -7.1 -5.7 -7.1 -7.25 -18.35 -7.25" fill="#ffffff" fill-opacity="0.0" fill-rule="evenodd" stroke="none"/>
    <path d="M12.6 -2.45 L12.7 -3.7 11.95 -6.2 Q11.45 -6.05 11.05 -4.85 L10.75 -3.7 10.85 -2.45 Q7.3 -0.85 7.1 -0.2 L7.5 0.35 11.05 -0.4 11.1 0.6 11.15 0.6 11.25 2.8 10.0 3.85 10.5 4.45 11.65 3.85 12.3 4.65 13.15 3.95 12.1 2.8 12.45 -0.55 15.65 0.2 16.3 -0.2 Q16.1 -0.6 12.6 -2.45 M18.8 -7.85 L18.8 6.3 4.65 6.3 4.65 -7.85 18.8 -7.85 M-18.35 -7.25 L-7.1 -7.25 -7.1 -5.7 -18.35 -5.7 -18.35 -7.25 M-18.35 -2.4 L-18.35 -3.95 -10.2 -3.95 -10.2 -2.4 -18.35 -2.4 M-18.35 -10.55 L-7.1 -10.55 -7.1 -9.0 -18.35 -9.0 -18.35 -10.55 M-6.55 -1.25 L-6.55 0.3 -18.35 0.3 -18.35 -1.25 -6.55 -1.25 M-3.85 3.2 L-18.35 3.2 -18.35 1.65 -3.85 1.65 -3.85 3.2 M-6.95 6.1 L-18.35 6.1 -18.35 4.55 -6.95 4.55 -6.95 6.1 M-4.6 8.8 L-18.35 8.8 -18.35 7.25 -4.6 7.25 -4.6 8.8" fill="#000000" fill-opacity="0.101960786" fill-rule="evenodd" stroke="none"/>
  </g>
</svg>
