<?xml version="1.0" encoding="UTF-8" standalone="no"?>
<svg xmlns:xlink="http://www.w3.org/1999/xlink" height="41.25px" width="37.0px" xmlns="http://www.w3.org/2000/svg">
  <g transform="matrix(1.0, 0.0, 0.0, 1.0, 18.15, 36.45)">
    <path d="M6.1 -35.85 L5.2 -35.75 5.25 -35.75 6.1 -35.85 M-2.95 -28.8 L-3.2 -28.05 -3.2 -28.2 -3.15 -28.25 -3.0 -28.8 -2.95 -28.8 M16.2 -31.55 L15.75 -32.1 16.65 -30.95 16.2 -31.55 M1.95 3.75 L1.8 3.7 Q0.95 3.4 0.2 2.95 L-1.0 2.1 -1.6 1.55 -1.6 1.5 -1.8 1.35 Q-3.75 -0.6 -4.4 -3.15 -3.65 -0.4 -1.6 1.5 L-1.55 1.55 -0.95 2.05 -0.85 2.15 0.25 2.9 Q0.95 3.35 1.8 3.7 L1.95 3.75 M-13.95 -2.55 L-14.1 -2.65 -13.5 -2.3 -13.95 -2.55 M-1.7 -12.9 L-1.5 -13.1 -1.35 -13.2 -1.25 -13.25 -1.7 -12.9 M2.2 -15.2 L1.95 -15.35 1.6 -15.55 1.1 -15.9 2.0 -15.35 2.05 -15.3 2.25 -15.25 2.2 -15.2 M1.95 -15.35 L2.0 -15.35 1.95 -15.35 M-4.45 -8.0 L-4.4 -8.3 -4.35 -8.55 -4.25 -8.85 -4.15 -9.05 -3.6 -10.35 -4.45 -8.0" fill="#cccccc" fill-rule="evenodd" stroke="none"/>
    <path d="M-4.75 -15.6 L-4.75 -15.65 -3.0 -13.8 -4.0 -14.95 -4.75 -15.6 M0.3 -16.5 Q-0.9 -17.55 -1.75 -18.75 L-0.4 -17.2 -0.05 -16.85 0.3 -16.5 M2.25 -15.25 L2.9 -15.4 2.25 -15.25" fill="#a1a1a1" fill-rule="evenodd" stroke="none"/>
    <path d="M-2.4 -30.05 L-2.75 -29.35 -2.95 -28.8 -3.0 -28.8 -2.75 -29.35 -2.4 -30.05" fill="#5e5e5e" fill-rule="evenodd" stroke="none"/>
    <path d="M1.85 -30.45 Q1.85 -31.85 3.5 -32.8 5.15 -33.8 7.5 -33.8 9.85 -33.8 11.55 -32.8 13.2 -31.85 13.2 -30.45 13.2 -29.05 11.55 -28.1 9.85 -27.15 7.5 -27.15 5.15 -27.15 3.5 -28.1 1.85 -29.05 1.85 -30.45 M10.2 -11.85 L10.55 -10.7 Q10.55 -9.45 9.05 -8.6 8.05 -8.0 6.75 -7.8 L5.45 -7.7 Q3.3 -7.7 1.8 -8.6 0.3 -9.45 0.3 -10.7 0.3 -12.0 1.8 -12.85 L2.2 -13.05 Q3.55 -13.75 5.45 -13.75 7.25 -13.75 8.6 -13.1 8.85 -13.0 9.05 -12.85 L9.8 -12.3 10.05 -12.0 10.05 -11.85 10.2 -11.85 M-8.05 -15.6 L-7.85 -15.55 -6.7 -15.25 -6.65 -15.2 Q-5.4 -14.6 -5.4 -13.3 L-5.5 -12.6 Q-5.75 -11.7 -6.85 -11.25 L-9.55 -10.85 -11.5 -11.0 Q-13.05 -11.4 -13.45 -12.4 L-13.65 -13.3 Q-13.65 -15.7 -9.55 -15.7 L-8.05 -15.6" fill="#ffffff" fill-opacity="0.3019608" fill-rule="evenodd" stroke="none"/>
    <path d="M6.1 -35.85 L6.95 -35.95 7.35 -35.95 Q11.95 -35.95 15.15 -32.75 L15.25 -32.65 15.75 -32.1 16.2 -31.55 Q15.3 -32.7 14.05 -33.65 14.3 -25.1 9.5 -21.65 3.85 -17.5 -3.25 -22.15 -2.8 -20.3 -1.75 -18.75 -3.65 -21.45 -3.65 -24.95 L-3.65 -25.05 -3.3 -27.7 -3.2 -28.05 -2.95 -28.8 -2.75 -29.35 -2.4 -30.05 -1.1 -32.0 -0.85 -32.25 -0.4 -32.75 0.0 -33.1 0.2 -33.3 0.8 -33.75 Q2.75 -35.3 5.2 -35.75 L6.1 -35.85 M10.4 -14.35 L10.95 -13.95 11.35 -13.65 12.35 -12.8 12.75 -12.4 11.35 -13.65 11.35 -11.85 10.85 -8.25 Q9.9 -4.6 7.25 -2.7 4.95 -1.05 2.4 -1.0 L1.45 -1.0 0.2 -1.2 0.05 -1.2 Q-2.1 -1.7 -4.4 -3.15 L-4.4 -3.25 -4.5 -3.6 -4.7 -5.7 -4.7 -6.05 -4.45 -8.0 -3.6 -10.35 -2.85 -11.55 -2.45 -12.1 -2.3 -12.25 -2.25 -12.3 -2.2 -12.35 -1.8 -12.8 -1.7 -12.9 -1.25 -13.25 Q0.15 -14.5 1.85 -15.1 L2.15 -15.2 2.2 -15.2 2.25 -15.25 2.9 -15.4 4.9 -15.7 5.0 -15.7 5.3 -15.7 Q7.95 -15.7 10.05 -14.5 L10.4 -14.35 M-17.4 -7.25 L-17.5 -7.75 -17.5 -7.85 -17.65 -9.3 Q-17.65 -12.6 -15.3 -14.95 -12.95 -17.3 -9.65 -17.3 L-9.4 -17.3 -7.5 -17.0 -7.1 -16.9 Q-5.85 -16.5 -4.75 -15.6 -4.7 -13.6 -5.0 -12.0 -5.3 -10.6 -5.85 -9.5 -6.65 -7.85 -8.05 -6.85 -12.2 -3.85 -17.4 -7.25 M1.85 -30.45 Q1.85 -29.05 3.5 -28.1 5.15 -27.15 7.5 -27.15 9.85 -27.15 11.55 -28.1 13.2 -29.05 13.2 -30.45 13.2 -31.85 11.55 -32.8 9.85 -33.8 7.5 -33.8 5.15 -33.8 3.5 -32.8 1.85 -31.85 1.85 -30.45 M10.05 -12.0 L9.8 -12.3 9.05 -12.85 Q8.85 -13.0 8.6 -13.1 7.25 -13.75 5.45 -13.75 3.55 -13.75 2.2 -13.05 L1.8 -12.85 Q0.3 -12.0 0.3 -10.7 0.3 -9.45 1.8 -8.6 3.3 -7.7 5.45 -7.7 L6.75 -7.8 Q8.05 -8.0 9.05 -8.6 10.55 -9.45 10.55 -10.7 L10.2 -11.85 10.05 -12.0 M-8.05 -15.6 L-9.55 -15.7 Q-13.65 -15.7 -13.65 -13.3 L-13.45 -12.4 Q-13.05 -11.4 -11.5 -11.0 L-9.55 -10.85 -6.85 -11.25 Q-5.75 -11.7 -5.5 -12.6 L-5.4 -13.3 Q-5.4 -14.6 -6.65 -15.2 L-6.7 -15.25 -7.85 -15.55 -8.05 -15.6" fill="#ffffff" fill-opacity="0.0" fill-rule="evenodd" stroke="none"/>
    <path d="M-1.75 -18.75 Q-2.8 -20.3 -3.25 -22.15 3.85 -17.5 9.5 -21.65 14.3 -25.1 14.05 -33.65 15.3 -32.7 16.2 -31.55 L16.65 -30.95 Q18.3 -28.35 18.35 -25.1 L18.35 -24.95 Q18.35 -20.4 15.15 -17.2 14.15 -16.2 13.0 -15.5 L11.25 -14.6 10.95 -14.5 10.4 -14.35 10.05 -14.5 Q7.95 -15.7 5.3 -15.7 L5.0 -15.7 4.9 -15.7 2.9 -15.4 2.25 -15.25 2.05 -15.3 2.0 -15.35 1.1 -15.9 0.6 -16.3 0.45 -16.4 0.3 -16.5 -0.05 -16.85 -0.4 -17.2 -1.75 -18.75 M12.75 -12.4 L13.2 -11.85 14.35 -10.05 14.9 -8.55 15.3 -5.95 15.3 -5.7 Q15.3 -1.55 12.35 1.35 L10.4 2.95 9.2 3.55 Q7.4 4.3 5.3 4.3 L5.1 4.3 2.0 3.8 1.95 3.75 1.8 3.7 Q0.95 3.35 0.25 2.9 L-0.85 2.15 -0.95 2.05 -1.55 1.55 -1.6 1.5 Q-3.65 -0.4 -4.4 -3.15 -2.1 -1.7 0.05 -1.2 L0.2 -1.2 1.45 -1.0 2.4 -1.0 Q4.95 -1.05 7.25 -2.7 9.9 -4.6 10.85 -8.25 L11.35 -11.85 11.35 -13.65 12.75 -12.4 M-4.4 -3.25 Q-6.65 -1.3 -9.65 -1.3 L-9.8 -1.3 -10.05 -1.3 -10.1 -1.3 Q-12.25 -1.4 -13.95 -2.55 L-13.5 -2.3 -14.1 -2.65 -14.85 -3.3 -15.3 -3.65 -16.75 -5.55 -17.4 -7.25 Q-12.2 -3.85 -8.05 -6.85 -6.65 -7.85 -5.85 -9.5 -5.3 -10.6 -5.0 -12.0 -4.7 -13.6 -4.75 -15.6 L-4.0 -14.95 -3.0 -13.8 -2.2 -12.35 -2.25 -12.3 -2.3 -12.25 -2.45 -12.1 -2.85 -11.55 -3.6 -10.35 -4.15 -9.05 -4.25 -8.85 -4.35 -8.55 -4.4 -8.3 -4.45 -8.0 -4.7 -6.05 -4.7 -5.7 -4.5 -3.6 -4.4 -3.25" fill="#000000" fill-opacity="0.2" fill-rule="evenodd" stroke="none"/>
    <path d="M15.75 -32.1 L15.25 -32.65 15.15 -32.75 Q11.95 -35.95 7.35 -35.95 L6.95 -35.95 6.1 -35.85 5.2 -35.75 Q2.75 -35.3 0.8 -33.75 L0.2 -33.3 0.0 -33.1 M-2.75 -29.35 L-2.95 -28.8 -3.2 -28.05 -3.3 -27.7 -3.65 -25.05 -3.65 -24.95 Q-3.65 -21.45 -1.75 -18.75 L-0.4 -17.2 -0.05 -16.85 0.3 -16.5 1.6 -15.55 1.1 -15.9 0.6 -16.3 0.45 -16.4 M16.2 -31.55 L15.75 -32.1 16.65 -30.95 Q18.3 -28.35 18.35 -25.1 L18.35 -24.95 Q18.35 -20.4 15.15 -17.2 14.15 -16.2 13.0 -15.5 L11.25 -14.6 10.95 -14.5 M10.95 -13.95 L11.35 -13.65 12.35 -12.8 12.75 -12.4 13.2 -11.85 14.35 -10.05 M-1.6 1.55 L-1.6 1.5 -1.8 1.35 Q-3.75 -0.6 -4.4 -3.15 L-4.4 -3.25 Q-6.65 -1.3 -9.65 -1.3 L-9.8 -1.3 -10.05 -1.3 -10.1 -1.3 Q-12.25 -1.4 -13.95 -2.55 L-14.1 -2.65 -14.55 -3.0 -14.85 -3.3 -15.3 -3.65 -16.75 -5.55 -17.4 -7.25 -17.5 -7.75 -17.5 -7.85 M-7.5 -17.0 L-7.1 -16.9 Q-5.85 -16.5 -4.75 -15.6 L-4.0 -14.95 -3.0 -13.8 -2.2 -12.35 -1.8 -12.8 -1.7 -12.9 -1.5 -13.1 -1.35 -13.2 -1.25 -13.25 Q0.15 -14.5 1.85 -15.1 M1.95 -15.35 L1.6 -15.55 M2.0 -15.35 L2.05 -15.3 M6.1 -35.85 L5.25 -35.75 5.2 -35.75 M16.65 -30.95 L16.2 -31.55 M2.0 -15.35 L1.95 -15.35 M-3.0 -28.8 L-2.75 -29.35 M-3.2 -28.05 L-3.2 -28.2 -3.15 -28.25 -3.0 -28.8 M-1.7 -12.9 L-1.25 -13.25 M-13.5 -2.3 L-13.95 -2.55 M-14.85 -3.3 L-14.1 -2.65 M-2.25 -12.3 L-2.2 -12.35 M-4.5 -3.6 L-4.4 -3.25" fill="none" stroke="#000000" stroke-linecap="round" stroke-linejoin="round" stroke-width="1.0"/>
    <path d="M0.0 -33.1 L-0.4 -32.75 -0.85 -32.25 -1.1 -32.0 -2.4 -30.05 -2.75 -29.35 -2.4 -30.05 M10.95 -14.5 L10.4 -14.35 10.95 -13.95 M14.35 -10.05 L14.9 -8.55 15.3 -5.95 15.3 -5.7 Q15.3 -1.55 12.35 1.35 L10.4 2.95 9.2 3.55 Q7.4 4.3 5.3 4.3 L5.1 4.3 2.0 3.8 1.95 3.75 1.8 3.7 Q0.95 3.4 0.2 2.95 L-1.0 2.1 -1.6 1.55 M-17.5 -7.85 L-17.65 -9.3 Q-17.65 -12.6 -15.3 -14.95 -12.95 -17.3 -9.65 -17.3 L-9.4 -17.3 -7.5 -17.0 M1.85 -15.1 L2.15 -15.2 2.2 -15.2 1.95 -15.35 M2.05 -15.3 L2.25 -15.25 2.9 -15.4 4.9 -15.7 5.0 -15.7 5.3 -15.7 Q7.95 -15.7 10.05 -14.5 L10.4 -14.35 M2.25 -15.25 L2.2 -15.2 M-3.6 -10.35 L-2.85 -11.55 -2.45 -12.1 -2.3 -12.25 -2.25 -12.3 M-3.6 -10.35 L-4.45 -8.0 -4.7 -6.05 -4.7 -5.7 -4.5 -3.6" fill="none" stroke="#000000" stroke-linecap="round" stroke-linejoin="round" stroke-opacity="0.6" stroke-width="1.0"/>
  </g>
</svg>
