<?xml version="1.0" encoding="UTF-8" standalone="no"?>
<svg xmlns:xlink="http://www.w3.org/1999/xlink" height="24.7px" width="24.65px" xmlns="http://www.w3.org/2000/svg">
  <g transform="matrix(1.0, 0.0, 0.0, 1.0, 12.6, 70.85)">
    <path d="M8.9 -58.55 Q8.9 -62.35 6.2 -65.1 3.55 -67.75 -0.25 -67.75 -4.2 -67.75 -6.85 -65.1 -9.45 -62.3 -9.45 -58.55 -9.45 -54.65 -6.85 -52.05 -4.1 -49.3 -0.25 -49.3 3.5 -49.3 6.2 -52.05 8.9 -54.6 8.9 -58.55 8.9 -54.6 6.2 -52.05 3.5 -49.3 -0.25 -49.3 -4.1 -49.3 -6.85 -52.05 -9.45 -54.65 -9.45 -58.55 -9.45 -62.3 -6.85 -65.1 -4.2 -67.75 -0.25 -67.75 3.55 -67.75 6.2 -65.1 8.9 -62.35 8.9 -58.55 M11.55 -58.5 Q11.55 -53.5 8.1 -50.15 4.7 -46.65 -0.25 -46.65 -5.2 -46.65 -8.7 -50.15 -12.1 -53.6 -12.1 -58.5 -12.1 -63.4 -8.7 -66.9 -7.5 -68.0 -6.25 -68.7 -3.6 -70.35 -0.25 -70.35 2.9 -70.35 5.5 -68.9 L8.1 -66.9 Q11.55 -63.45 11.55 -58.5" fill="#ffffff" fill-opacity="0.0" fill-rule="evenodd" stroke="none"/>
    <path d="M11.55 -58.5 Q11.55 -53.5 8.1 -50.15 4.7 -46.65 -0.25 -46.65 -5.2 -46.65 -8.7 -50.15 -12.1 -53.6 -12.1 -58.5 -12.1 -63.4 -8.7 -66.9 -7.5 -68.0 -6.25 -68.7 -3.6 -70.35 -0.25 -70.35 2.9 -70.35 5.5 -68.9 L8.1 -66.9 Q11.55 -63.45 11.55 -58.5" fill="none" stroke="#000000" stroke-linecap="round" stroke-linejoin="round" stroke-width="1.0"/>
    <path d="M8.9 -58.55 Q8.9 -54.6 6.2 -52.05 3.5 -49.3 -0.25 -49.3 -4.1 -49.3 -6.85 -52.05 -9.45 -54.65 -9.45 -58.55 -9.45 -62.3 -6.85 -65.1 -4.2 -67.75 -0.25 -67.75 3.55 -67.75 6.2 -65.1 8.9 -62.35 8.9 -58.55" fill="none" stroke="#000000" stroke-linecap="round" stroke-linejoin="round" stroke-opacity="0.4" stroke-width="1.0"/>
  </g>
</svg>
