<?xml version="1.0" encoding="UTF-8" standalone="no"?>
<svg xmlns:xlink="http://www.w3.org/1999/xlink" height="177.05px" width="433.35px" xmlns="http://www.w3.org/2000/svg">
  <g transform="matrix(1.0, 0.0, 0.0, 1.0, 216.65, 88.5)">
    <path d="M70.75 -27.95 Q78.6 -41.55 79.2 -43.55 81.0 -49.3 75.6 -57.05 69.5 -64.4 68.8 -66.2 67.9 -68.45 70.2 -72.7 71.3 -74.75 72.65 -76.45 61.15 -85.85 44.55 -79.55 45.2 -75.5 44.65 -75.2 L38.9 -71.95 37.1 -76.0 34.5 -81.8 32.8 -84.95 Q31.9 -86.3 37.1 -86.45 L42.5 -86.35 43.15 -84.95 Q68.4 -94.55 85.35 -73.75 L90.65 -67.1 103.05 -75.2 Q111.9 -80.6 113.05 -78.45 L113.5 -76.75 Q114.15 -73.6 114.6 -63.8 L115.3 -51.8 115.6 -50.35 Q116.3 -48.55 110.7 -49.0 105.15 -49.45 103.25 -50.3 L150.05 14.9 Q154.65 7.25 157.25 -7.1 153.55 -7.0 149.5 -5.9 151.3 -9.15 153.0 -11.4 L159.7 -11.85 Q178.75 -11.85 192.1 1.2 205.6 14.35 205.6 32.9 205.6 51.4 192.1 64.45 178.65 77.6 159.7 77.6 140.7 77.6 127.1 64.45 113.7 51.4 113.7 32.9 113.7 22.8 117.65 14.35 L121.7 14.05 123.5 14.15 Q118.8 22.35 118.8 32.9 L118.9 35.3 Q131.8 32.45 138.0 28.1 143.05 24.7 147.0 19.45 L120.1 -17.05 103.45 -39.4 Q101.35 -37.25 98.2 -36.15 91.9 -34.1 86.4 -39.55 85.0 -41.0 76.15 -26.15 71.05 -17.5 66.15 -8.25 74.2 -7.1 75.6 -0.7 78.4 11.65 80.05 25.95 82.45 47.2 78.5 51.15 74.9 54.75 67.7 55.85 L55.45 56.45 Q52.65 58.35 49.0 58.35 L45.85 58.0 49.8 49.45 Q49.7 47.75 48.8 46.65 47.0 44.5 43.05 47.65 L36.1 55.1 29.55 54.75 Q25.2 59.45 20.55 61.3 12.6 64.2 -1.85 63.55 -3.5 64.55 -5.4 65.2 -9.8 66.9 -63.45 65.9 L-118.5 64.55 Q-124.25 64.3 -126.15 64.45 L-129.25 60.95 Q-142.1 72.2 -159.65 72.2 -178.65 72.2 -192.2 59.05 -202.65 48.9 -204.9 35.6 -205.45 31.25 -205.25 26.65 -205.0 17.15 -201.5 9.05 -198.05 1.0 -191.4 -5.55 -184.65 -12.1 -176.65 -15.2 L-161.9 -15.0 -144.15 -14.8 -141.1 -13.55 Q-133.55 -10.4 -127.25 -4.2 -113.75 8.95 -113.75 27.5 -113.75 42.25 -122.3 53.6 L-127.95 53.3 -122.3 53.6 -110.05 54.05 -97.55 54.55 Q-95.9 52.4 -94.85 51.6 -87.1 44.75 -87.75 35.85 -88.0 32.6 -89.25 29.2 L-92.15 21.2 -95.4 10.55 Q-97.35 2.9 -96.2 2.3 L-96.1 2.2 -60.1 -15.35 Q-29.15 -29.95 -25.2 -30.2 -4.05 -31.75 33.7 -28.3 64.8 -25.55 70.75 -27.95 L59.35 -9.5 51.15 3.2 59.35 -9.5 70.75 -27.95 M9.4 50.35 L15.25 48.2 Q20.45 45.75 24.05 41.35 27.2 37.45 31.5 32.9 L51.15 3.2 45.2 3.45 37.35 3.9 Q36.75 13.7 33.5 19.55 31.95 22.35 24.15 32.05 21.45 35.3 17.1 39.2 L10.35 45.05 Q10.1 47.65 9.45 49.9 L9.4 50.35 Q7.15 58.8 -1.85 63.55 7.15 58.8 9.4 50.35 M59.35 -9.5 L55.45 -9.25 Q51.15 -9.25 48.35 -10.95 L40.95 -16.15 Q36.4 -19.3 33.95 -19.05 29.7 -18.6 21.8 -18.95 12.35 -19.3 9.65 -20.85 6.85 -22.4 -1.8 -22.1 -9.8 -21.85 -12.95 -20.6 -16.1 -22.85 -29.95 -18.8 -46.05 -14.2 -46.05 -10.4 -46.05 -9.05 -41.55 -2.2 L-37.15 4.25 -41.55 -2.2 Q-46.05 -9.05 -46.05 -10.4 -46.05 -14.2 -29.95 -18.8 -16.1 -22.85 -12.95 -20.6 -9.8 -21.85 -1.8 -22.1 6.85 -22.4 9.65 -20.85 12.35 -19.3 21.8 -18.95 29.7 -18.6 33.95 -19.05 36.4 -19.3 40.95 -16.15 L48.35 -10.95 Q51.15 -9.25 55.45 -9.25 L59.35 -9.5 M63.1 -0.8 L62.3 -0.7 40.15 38.35 40.5 38.0 Q44.1 34.6 49.0 34.6 53.95 34.6 57.35 38.0 60.85 41.5 60.85 46.45 L60.6 49.15 Q64.8 49.15 69.5 47.9 74.0 46.75 74.9 41.8 75.45 39.25 74.9 32.8 71.5 7.6 67.25 1.75 65.55 -0.5 63.1 -0.8 M175.9 -4.1 Q168.6 -7.15 159.85 -7.15 L157.25 -7.1 159.85 -7.15 Q168.6 -7.15 175.9 -4.1 L174.35 2.8 Q173.1 10.3 173.7 16.75 175.8 38.35 195.3 53.2 200.9 44.2 200.9 32.9 200.9 16.3 188.85 4.55 183.1 -1.25 175.9 -4.1 M185.7 64.0 L188.85 61.15 Q192.35 57.8 195.3 53.2 192.35 57.8 188.85 61.15 L185.7 64.0 Q176.35 56.75 166.95 53.6 148.5 47.35 123.4 51.5 126.2 56.65 130.8 61.15 142.95 72.85 159.85 72.85 174.55 72.85 185.7 64.0 M118.9 35.3 Q119.35 44.15 123.4 51.5 119.35 44.15 118.9 35.3 M149.25 23.6 Q145.35 27.75 145.35 33.15 145.35 38.55 149.25 42.6 153.2 46.55 158.8 46.55 164.55 46.55 168.25 42.6 172.2 38.75 172.2 33.15 172.2 27.55 168.25 23.6 164.55 19.75 158.8 19.75 156.45 19.75 154.1 20.55 156.45 19.75 158.8 19.75 164.55 19.75 168.25 23.6 172.2 27.55 172.2 33.15 172.2 38.75 168.25 42.6 164.55 46.55 158.8 46.55 153.2 46.55 149.25 42.6 145.35 38.55 145.35 33.15 145.35 27.75 149.25 23.6 L149.7 23.25 147.0 19.45 149.7 23.25 149.25 23.6 M160.65 29.3 L160.2 29.1 154.1 20.55 150.05 14.9 154.1 20.55 160.2 29.1 160.65 29.3 Q161.3 29.55 161.85 30.1 163.1 31.35 163.1 33.15 163.1 34.95 161.85 36.2 160.6 37.45 158.8 37.45 157.0 37.45 155.7 36.2 154.45 34.95 154.45 33.15 154.45 31.9 155.2 30.7 154.45 31.9 154.45 33.15 154.45 34.95 155.7 36.2 157.0 37.45 158.8 37.45 160.6 37.45 161.85 36.2 163.1 34.95 163.1 33.15 163.1 31.35 161.85 30.1 161.3 29.55 160.65 29.3 M149.7 23.25 L155.2 30.7 149.7 23.25 M160.2 29.1 L158.8 28.85 Q157.0 28.85 155.7 30.1 157.0 28.85 158.8 28.85 L160.2 29.1 M155.7 30.1 L155.2 30.7 155.7 30.1 M37.45 3.25 L37.35 3.9 37.45 3.25 M37.35 3.9 L35.75 4.25 Q32.85 5.05 30.25 6.6 32.85 5.05 35.75 4.25 L37.35 3.9 M10.45 36.1 Q16.3 33.25 15.5 27.3 15.25 25.5 14.5 24.7 L12.7 22.7 7.6 28.75 Q5.15 25.25 1.2 23.25 5.15 25.25 7.6 28.75 L7.75 29.0 Q9.75 32.05 10.45 36.1 11.0 40.1 10.35 45.05 11.0 40.1 10.45 36.1 M30.25 6.6 Q27.65 8.05 25.2 10.1 L18.45 18.05 Q20.25 20.8 21.8 24.15 L26.2 19.1 Q30.55 12.8 30.25 6.6 M1.2 23.25 L7.75 16.05 5.8 13.45 -4.1 0.1 -5.4 0.2 -9.35 0.95 Q-7.25 18.65 -5.45 20.9 -1.85 21.8 -0.5 22.45 L1.2 23.25 M17.4 3.55 Q18.85 1.3 15.05 0.75 L4.7 0.3 12.7 10.4 12.8 10.45 17.4 3.55 M-87.75 35.85 L-83.6 35.05 Q-79.1 34.6 -80.25 36.85 -82.5 41.35 -71.25 51.7 -68.1 54.55 -59.45 51.15 -51.35 47.8 -50.1 49.9 -48.5 52.6 -40.85 53.05 L-29.85 53.5 -18.25 52.95 Q-10.5 51.8 -6.9 50.35 -3.15 48.8 -0.9 44.5 1.55 39.9 -1.95 38.65 L-2.05 38.65 Q-4.65 37.75 -10.6 41.05 -13.95 42.95 -15.55 43.3 L-16.8 43.15 Q-17.25 42.6 -21.6 44.2 -25.35 45.65 -26.7 40.9 -27.8 37.0 -35.25 39.45 -38.6 40.55 -39.75 40.15 -41.55 39.55 -41.1 35.95 -40.2 28.9 -47.4 25.4 -51.9 23.25 -59.4 22.7 -61.2 22.6 -61.8 21.2 -62.45 19.85 -61.65 19.4 -55.7 18.3 -55.4 16.95 L-54.9 12.2 Q-54.5 9.55 -53.25 8.65 L-52.8 8.45 Q-45.7 17.85 -33.45 22.25 -26.8 24.7 -13.75 26.85 -4.55 28.3 0.1 33.6 4.7 38.8 2.45 44.85 0.1 51.25 -5.65 54.05 -11.25 56.75 -22.65 57.2 -31.95 57.65 -52.2 56.65 L-97.55 54.55 -52.2 56.65 Q-31.95 57.65 -22.65 57.2 -11.25 56.75 -5.65 54.05 0.1 51.25 2.45 44.85 4.7 38.8 0.1 33.6 -4.55 28.3 -13.75 26.85 -26.8 24.7 -33.45 22.25 -45.7 17.85 -52.8 8.45 L-53.25 8.65 Q-54.5 9.55 -54.9 12.2 L-55.4 16.95 Q-55.7 18.3 -61.65 19.4 -62.45 19.85 -61.8 21.2 -61.2 22.6 -59.4 22.7 -51.9 23.25 -47.4 25.4 -40.2 28.9 -41.1 35.95 -41.55 39.55 -39.75 40.15 -38.6 40.55 -35.25 39.45 -27.8 37.0 -26.7 40.9 -25.35 45.65 -21.6 44.2 -17.25 42.6 -16.8 43.15 L-15.55 43.3 Q-13.95 42.95 -10.6 41.05 -4.65 37.75 -2.05 38.65 L-1.95 38.65 Q1.55 39.9 -0.9 44.5 -3.15 48.8 -6.9 50.35 -10.5 51.8 -18.25 52.95 L-29.85 53.5 -40.85 53.05 Q-48.5 52.6 -50.1 49.9 -51.35 47.8 -59.45 51.15 -68.1 54.55 -71.25 51.7 -82.5 41.35 -80.25 36.85 -79.1 34.6 -83.6 35.05 L-87.75 35.85 M-137.85 -6.7 Q-140.45 -8.25 -143.15 -9.35 L-143.45 -9.5 Q-146.85 -10.95 -150.55 -11.65 -154.95 -12.75 -159.45 -12.75 L-162.05 -12.55 -165.65 -12.1 -169.8 -11.2 -171.6 -10.7 Q-185.9 -5.9 -193.75 6.6 L-195.45 9.55 Q-198.7 15.7 -199.8 22.15 -198.7 15.7 -195.45 9.55 L-193.75 6.6 Q-182.15 11.35 -174.85 11.55 -168.8 11.75 -162.6 9.95 L-157.5 7.75 Q-154.15 6.35 -151.35 4.6 -145.85 1.2 -137.85 -6.7 -133.9 -4.3 -130.5 -0.85 -127.15 2.35 -124.7 6.05 -127.15 2.35 -130.5 -0.85 -133.9 -4.3 -137.85 -6.7 M-127.95 53.3 L-125.7 50.45 -125.6 50.25 Q-121.95 44.4 -120.2 39.25 -118.4 34.05 -118.4 27.5 -118.4 15.5 -124.7 6.05 L-133.1 15.15 Q-137.7 20.55 -139.4 23.25 -150.0 41.6 -143.45 64.45 -138.2 62.3 -133.65 58.6 L-132.3 57.55 -129.25 60.95 -132.3 57.55 -136.35 52.95 -127.95 53.3 M-157.55 67.45 Q-150.0 67.1 -143.45 64.45 -150.0 67.1 -157.55 67.45 -161.1 56.35 -165.85 49.25 -176.85 33.5 -199.8 22.15 -200.5 25.95 -200.3 29.9 L-200.4 29.9 -200.05 33.25 -199.5 36.4 Q-197.15 47.3 -188.55 55.75 -176.4 67.45 -159.45 67.45 L-157.55 67.45 M-9.35 0.95 Q-11.3 -17.8 -12.2 -19.75 -12.5 -20.3 -12.95 -20.6 -12.5 -20.3 -12.2 -19.75 -11.3 -17.8 -9.35 0.95 M-16.9 17.85 L-28.8 -8.6 -31.65 -7.55 -21.6 16.7 -16.9 17.85 Q-11.7 19.1 -5.45 20.9 -11.7 19.1 -16.9 17.85 M-28.85 14.8 L-23.4 16.25 -21.6 16.7 -23.4 16.25 -28.85 14.8 -37.05 4.25 -37.15 4.25 -38.15 4.35 Q-39.15 5.15 -43.8 6.35 -42.65 8.85 -40.2 10.4 -36.8 12.55 -28.85 14.8 M-52.8 8.45 L-50.3 7.75 -45.7 6.7 -43.8 6.35 -45.7 6.7 -50.3 7.75 -52.8 8.45 M-92.15 21.2 L-71.6 20.55 -61.65 19.4 -71.6 20.55 -92.15 21.2 M-165.6 15.5 L-170.1 18.2 Q-173.95 22.35 -173.95 27.75 -173.95 33.15 -170.1 37.2 -166.1 41.15 -160.55 41.15 -154.8 41.15 -151.1 37.2 -147.15 33.35 -147.15 27.75 -147.15 22.15 -151.1 18.2 -154.8 14.35 -160.55 14.35 -162.9 14.35 -165.2 15.15 -162.9 14.35 -160.55 14.35 -154.8 14.35 -151.1 18.2 -147.15 22.15 -147.15 27.75 -147.15 33.35 -151.1 37.2 -154.8 41.15 -160.55 41.15 -166.1 41.15 -170.1 37.2 -173.95 33.15 -173.95 27.75 -173.95 22.35 -170.1 18.2 L-165.6 15.5 M-157.5 24.7 L-159.35 23.6 -160.55 23.45 Q-162.0 23.45 -164.15 25.3 -164.85 26.5 -164.85 27.75 -164.85 29.55 -163.6 30.8 -162.35 32.05 -160.55 32.05 -158.75 32.05 -157.5 30.8 -156.2 29.55 -156.2 27.75 -156.2 25.95 -157.5 24.7 -156.2 25.95 -156.2 27.75 -156.2 29.55 -157.5 30.8 -158.75 32.05 -160.55 32.05 -162.35 32.05 -163.6 30.8 -164.85 29.55 -164.85 27.75 -164.85 26.5 -164.15 25.3 -162.0 23.45 -160.55 23.45 L-159.35 23.6 -157.5 24.7" fill="#ffffff" fill-opacity="0.0" fill-rule="evenodd" stroke="none"/>
    <path d="M153.0 -11.4 Q159.3 -19.5 168.75 -21.95 186.6 -19.15 199.65 -6.35 216.2 9.85 216.2 32.8 216.2 55.85 199.65 71.95 183.1 88.05 159.7 88.05 136.3 88.05 119.7 71.95 103.15 55.65 103.15 32.8 103.15 26.75 104.4 20.8 110.35 15.15 117.65 14.35 113.7 22.8 113.7 32.9 113.7 51.4 127.1 64.45 140.7 77.6 159.7 77.6 178.65 77.6 192.1 64.45 205.6 51.4 205.6 32.9 205.6 14.35 192.1 1.2 178.75 -11.85 159.7 -11.85 L153.0 -11.4 M-118.5 64.55 L-120.65 67.15 Q-136.85 82.3 -159.65 82.3 -183.05 82.3 -199.6 66.2 -216.15 49.9 -216.15 27.05 -216.15 4.15 -199.6 -12.1 L-195.65 -15.65 -176.65 -15.2 Q-184.65 -12.1 -191.4 -5.55 -198.05 1.0 -201.5 9.05 -205.0 17.15 -205.25 26.65 -205.45 31.25 -204.9 35.6 -202.65 48.9 -192.2 59.05 -178.65 72.2 -159.65 72.2 -142.1 72.2 -129.25 60.95 L-126.15 64.45 Q-124.25 64.3 -118.5 64.55" fill="#000000" fill-rule="evenodd" stroke="none"/>
    <path d="M37.1 -76.0 L14.4 -64.4 11.2 -69.45 Q15.25 -71.05 34.5 -81.8 L37.1 -76.0 M-144.15 -14.8 L-143.6 -14.8 -123.45 -14.8 -122.55 -14.8 -122.4 -14.8 -119.7 -12.1 Q-103.1 4.1 -103.1 27.05 -103.1 39.55 -108.0 50.05 L-110.05 54.05 -122.3 53.6 Q-113.75 42.25 -113.75 27.5 -113.75 8.95 -127.25 -4.2 -133.55 -10.4 -141.1 -13.55 L-144.15 -14.8" fill="#000000" fill-opacity="0.8" fill-rule="evenodd" stroke="none"/>
    <path d="M45.85 58.0 L41.7 66.65 27.3 64.85 36.1 55.1 43.05 47.65 Q47.0 44.5 48.8 46.65 49.7 47.75 49.8 49.45 L45.85 58.0 M-16.9 17.85 L-21.6 16.7 -31.65 -7.55 -28.8 -8.6 -16.9 17.85" fill="#000000" fill-opacity="0.49803922" fill-rule="evenodd" stroke="none"/>
    <path d="M34.5 -81.8 L32.8 -84.95 Q31.9 -86.3 37.1 -86.45 L42.5 -86.35 M43.15 -84.95 Q68.4 -94.55 85.35 -73.75 L90.65 -67.1 103.05 -75.2 Q111.9 -80.6 113.05 -78.45 L113.5 -76.75 Q114.15 -73.6 114.6 -63.8 L115.3 -51.8 M115.6 -50.35 Q116.3 -48.55 110.7 -49.0 105.15 -49.45 103.25 -50.3 M168.75 -21.95 Q186.6 -19.15 199.65 -6.35 216.2 9.85 216.2 32.8 216.2 55.85 199.65 71.95 183.1 88.05 159.7 88.05 136.3 88.05 119.7 71.95 103.15 55.65 103.15 32.8 103.15 26.75 104.4 20.8 M120.1 -17.05 L103.45 -39.4 Q101.35 -37.25 98.2 -36.15 91.9 -34.1 86.4 -39.55 85.0 -41.0 76.15 -26.15 71.05 -17.5 66.15 -8.25 74.2 -7.1 75.6 -0.7 78.4 11.65 80.05 25.95 82.45 47.2 78.5 51.15 74.9 54.75 67.7 55.85 L55.45 56.45 Q52.65 58.35 49.0 58.35 L45.85 58.0 41.7 66.65 27.3 64.85 36.1 55.1 29.55 54.75 Q25.2 59.45 20.55 61.3 12.6 64.2 -1.85 63.55 -3.5 64.55 -5.4 65.2 -9.8 66.9 -63.45 65.9 L-118.5 64.55 M-120.65 67.15 Q-136.85 82.3 -159.65 82.3 -183.05 82.3 -199.6 66.2 -216.15 49.9 -216.15 27.05 -216.15 4.15 -199.6 -12.1 L-195.65 -15.65 M-122.4 -14.8 L-119.7 -12.1 Q-103.1 4.1 -103.1 27.05 -103.1 39.55 -108.0 50.05 L-110.05 54.05 M37.1 -76.0 L34.5 -81.8" fill="none" stroke="#000000" stroke-linecap="round" stroke-linejoin="round" stroke-width="1.0"/>
    <path d="M-96.2 2.3 L-96.1 2.2 M62.3 -0.7 L63.1 -0.8 M40.5 38.0 L40.15 38.35 M117.65 14.35 Q113.7 22.8 113.7 32.9 113.7 51.4 127.1 64.45 140.7 77.6 159.7 77.6 178.65 77.6 192.1 64.45 205.6 51.4 205.6 32.9 205.6 14.35 192.1 1.2 178.75 -11.85 159.7 -11.85 L153.0 -11.4" fill="none" stroke="#000000" stroke-linecap="round" stroke-linejoin="round" stroke-opacity="0.49803922" stroke-width="1.0"/>
    <path d="M63.1 -0.8 Q65.55 -0.5 67.25 1.75 71.5 7.6 74.9 32.8 75.45 39.25 74.9 41.8 74.0 46.75 69.5 47.9 64.8 49.15 60.6 49.15 L60.85 46.45 Q60.85 41.5 57.35 38.0 53.95 34.6 49.0 34.6 44.1 34.6 40.5 38.0 M40.15 38.35 L62.3 -0.7 M154.1 20.55 Q156.45 19.75 158.8 19.75 164.55 19.75 168.25 23.6 172.2 27.55 172.2 33.15 172.2 38.75 168.25 42.6 164.55 46.55 158.8 46.55 153.2 46.55 149.25 42.6 145.35 38.55 145.35 33.15 145.35 27.75 149.25 23.6 M160.65 29.3 Q161.3 29.55 161.85 30.1 163.1 31.35 163.1 33.15 163.1 34.95 161.85 36.2 160.6 37.45 158.8 37.45 157.0 37.45 155.7 36.2 154.45 34.95 154.45 33.15 154.45 31.9 155.2 30.7 M155.7 30.1 Q157.0 28.85 158.8 28.85 L160.2 29.1 M30.25 6.6 Q32.85 5.05 35.75 4.25 L37.35 3.9 M30.25 6.6 Q30.55 12.8 26.2 19.1 L21.8 24.15 Q20.25 20.8 18.45 18.05 L25.2 10.1 Q27.65 8.05 30.25 6.6 M7.6 28.75 L12.7 22.7 14.5 24.7 Q15.25 25.5 15.5 27.3 16.3 33.25 10.45 36.1 M1.2 23.25 L7.75 16.05 5.8 13.45 -4.1 0.1 M-5.4 0.2 L-9.35 0.95 M17.4 3.55 L12.8 10.45 12.7 10.4 4.7 0.3 15.05 0.75 Q18.85 1.3 17.4 3.55 M-28.85 14.8 Q-36.8 12.55 -40.2 10.4 -42.65 8.85 -43.8 6.35 -39.15 5.15 -38.15 4.35 L-37.15 4.25 M-37.05 4.25 L-28.85 14.8 M-157.5 24.7 Q-156.2 25.95 -156.2 27.75 -156.2 29.55 -157.5 30.8 -158.75 32.05 -160.55 32.05 -162.35 32.05 -163.6 30.8 -164.85 29.55 -164.85 27.75 -164.85 26.5 -164.15 25.3 -162.0 23.45 -160.55 23.45 L-159.35 23.6 -157.5 24.7 M-165.2 15.15 Q-162.9 14.35 -160.55 14.35 -154.8 14.35 -151.1 18.2 -147.15 22.15 -147.15 27.75 -147.15 33.35 -151.1 37.2 -154.8 41.15 -160.55 41.15 -166.1 41.15 -170.1 37.2 -173.95 33.15 -173.95 27.75 -173.95 22.35 -170.1 18.2 L-165.6 15.5" fill="none" stroke="#000000" stroke-linecap="round" stroke-linejoin="round" stroke-opacity="0.4" stroke-width="1.0"/>
    <path d="M70.75 -27.95 Q78.6 -41.55 79.2 -43.55 81.0 -49.3 75.6 -57.05 69.5 -64.4 68.8 -66.2 67.9 -68.45 70.2 -72.7 71.3 -74.75 72.65 -76.45 61.15 -85.85 44.55 -79.55 45.2 -75.5 44.65 -75.2 L38.9 -71.95 37.1 -76.0 14.4 -64.4 11.2 -69.45 Q15.25 -71.05 34.5 -81.8 M42.5 -86.35 L43.15 -84.95 M115.3 -51.8 L115.6 -50.35 M103.25 -50.3 L150.05 14.9 Q154.65 7.25 157.25 -7.1 153.55 -7.0 149.5 -5.9 M121.7 14.05 L123.5 14.15 Q118.8 22.35 118.8 32.9 L118.9 35.3 Q131.8 32.45 138.0 28.1 143.05 24.7 147.0 19.45 L120.1 -17.05 M-118.5 64.55 L-120.65 67.15 M-195.65 -15.65 L-176.65 -15.2 -161.9 -15.0 -144.15 -14.8 -143.6 -14.8 -123.45 -14.8 -122.55 -14.8 -122.4 -14.8 M-110.05 54.05 L-97.55 54.55 -52.2 56.65 Q-31.95 57.65 -22.65 57.2 -11.25 56.75 -5.65 54.05 0.1 51.25 2.45 44.85 4.7 38.8 0.1 33.6 -4.55 28.3 -13.75 26.85 -26.8 24.7 -33.45 22.25 -45.7 17.85 -52.8 8.45 L-53.25 8.65 Q-54.5 9.55 -54.9 12.2 L-55.4 16.95 Q-55.7 18.3 -61.65 19.4 -62.45 19.85 -61.8 21.2 -61.2 22.6 -59.4 22.7 -51.9 23.25 -47.4 25.4 -40.2 28.9 -41.1 35.95 -41.55 39.55 -39.75 40.15 -38.6 40.55 -35.25 39.45 -27.8 37.0 -26.7 40.9 -25.35 45.65 -21.6 44.2 -17.25 42.6 -16.8 43.15 L-15.55 43.3 Q-13.95 42.95 -10.6 41.05 -4.65 37.75 -2.05 38.65 L-1.95 38.65 Q1.55 39.9 -0.9 44.5 -3.15 48.8 -6.9 50.35 -10.5 51.8 -18.25 52.95 L-29.85 53.5 -40.85 53.05 Q-48.5 52.6 -50.1 49.9 -51.35 47.8 -59.45 51.15 -68.1 54.55 -71.25 51.7 -82.5 41.35 -80.25 36.85 -79.1 34.6 -83.6 35.05 L-87.75 35.85 M70.75 -27.95 L59.35 -9.5 51.15 3.2 31.5 32.9 Q27.2 37.45 24.05 41.35 20.45 45.75 15.25 48.2 L9.4 50.35 Q7.15 58.8 -1.85 63.55 M-37.15 4.25 L-41.55 -2.2 Q-46.05 -9.05 -46.05 -10.4 -46.05 -14.2 -29.95 -18.8 -16.1 -22.85 -12.95 -20.6 -9.8 -21.85 -1.8 -22.1 6.85 -22.4 9.65 -20.85 12.35 -19.3 21.8 -18.95 29.7 -18.6 33.95 -19.05 36.4 -19.3 40.95 -16.15 L48.35 -10.95 Q51.15 -9.25 55.45 -9.25 L59.35 -9.5 M157.25 -7.1 L159.85 -7.15 Q168.6 -7.15 175.9 -4.1 183.1 -1.25 188.85 4.55 200.9 16.3 200.9 32.9 200.9 44.2 195.3 53.2 192.35 57.8 188.85 61.15 L185.7 64.0 Q174.55 72.85 159.85 72.85 142.95 72.85 130.8 61.15 126.2 56.65 123.4 51.5 119.35 44.15 118.9 35.3 M149.25 23.6 L149.7 23.25 147.0 19.45 M175.9 -4.1 L174.35 2.8 Q173.1 10.3 173.7 16.75 175.8 38.35 195.3 53.2 M185.7 64.0 Q176.35 56.75 166.95 53.6 148.5 47.35 123.4 51.5 M150.05 14.9 L154.1 20.55 160.2 29.1 160.65 29.3 M155.2 30.7 L149.7 23.25 M155.2 30.7 L155.7 30.1 M51.15 3.2 L45.2 3.45 37.35 3.9 Q36.75 13.7 33.5 19.55 31.95 22.35 24.15 32.05 21.45 35.3 17.1 39.2 L10.35 45.05 Q10.1 47.65 9.45 49.9 L9.4 50.35 M45.85 58.0 L49.8 49.45 Q49.7 47.75 48.8 46.65 47.0 44.5 43.05 47.65 L36.1 55.1 M37.35 3.9 L37.45 3.25 M10.45 36.1 Q11.0 40.1 10.35 45.05 M-4.1 0.1 L-5.4 0.2 M-9.35 0.95 Q-7.25 18.65 -5.45 20.9 -1.85 21.8 -0.5 22.45 L1.2 23.25 Q5.15 25.25 7.6 28.75 L7.75 29.0 Q9.75 32.05 10.45 36.1 M-193.75 6.6 Q-185.9 -5.9 -171.6 -10.7 L-169.8 -11.2 -165.65 -12.1 -162.05 -12.55 -159.45 -12.75 Q-154.95 -12.75 -150.55 -11.65 -146.85 -10.95 -143.45 -9.5 L-143.15 -9.35 Q-140.45 -8.25 -137.85 -6.7 -133.9 -4.3 -130.5 -0.85 -127.15 2.35 -124.7 6.05 -118.4 15.5 -118.4 27.5 -118.4 34.05 -120.2 39.25 -121.95 44.4 -125.6 50.25 L-125.7 50.45 -127.95 53.3 -122.3 53.6 Q-113.75 42.25 -113.75 27.5 -113.75 8.95 -127.25 -4.2 -133.55 -10.4 -141.1 -13.55 L-144.15 -14.8 M-176.65 -15.2 Q-184.65 -12.1 -191.4 -5.55 -198.05 1.0 -201.5 9.05 -205.0 17.15 -205.25 26.65 -205.45 31.25 -204.9 35.6 -202.65 48.9 -192.2 59.05 -178.65 72.2 -159.65 72.2 -142.1 72.2 -129.25 60.95 L-132.3 57.55 -133.65 58.6 Q-138.2 62.3 -143.45 64.45 -150.0 67.1 -157.55 67.45 L-159.45 67.45 Q-176.4 67.45 -188.55 55.75 -197.15 47.3 -199.5 36.4 L-200.05 33.25 -200.4 29.9 -200.3 29.9 Q-200.5 25.95 -199.8 22.15 -198.7 15.7 -195.45 9.55 L-193.75 6.6 Q-182.15 11.35 -174.85 11.55 -168.8 11.75 -162.6 9.95 L-157.5 7.75 Q-154.15 6.35 -151.35 4.6 -145.85 1.2 -137.85 -6.7 M-12.95 -20.6 Q-12.5 -20.3 -12.2 -19.75 -11.3 -17.8 -9.35 0.95 M-16.9 17.85 L-28.8 -8.6 -31.65 -7.55 -21.6 16.7 -16.9 17.85 Q-11.7 19.1 -5.45 20.9 M-21.6 16.7 L-23.4 16.25 -28.85 14.8 M-43.8 6.35 L-45.7 6.7 -50.3 7.75 -52.8 8.45 M-37.15 4.25 L-37.05 4.25 M-61.65 19.4 L-71.6 20.55 -92.15 21.2 M-124.7 6.05 L-133.1 15.15 Q-137.7 20.55 -139.4 23.25 -150.0 41.6 -143.45 64.45 M-129.25 60.95 L-126.15 64.45 Q-124.25 64.3 -118.5 64.55 M-127.95 53.3 L-136.35 52.95 -132.3 57.55 M-122.3 53.6 L-110.05 54.05 M-200.05 33.25 L-200.3 29.9 M-157.55 67.45 Q-161.1 56.35 -165.85 49.25 -176.85 33.5 -199.8 22.15" fill="none" stroke="#000000" stroke-linecap="round" stroke-linejoin="round" stroke-opacity="0.6" stroke-width="1.0"/>
  </g>
</svg>
