<?xml version="1.0" encoding="UTF-8" standalone="no"?>
<svg xmlns:xlink="http://www.w3.org/1999/xlink" height="114.05px" width="208.5px" xmlns="http://www.w3.org/2000/svg">
  <g transform="matrix(1.0, 0.0, 0.0, 1.0, 104.25, 57.05)">
    <path d="M15.85 -30.9 L7.95 -14.85 Q-3.95 -23.1 -16.9 -28.75 -15.6 -36.2 -15.45 -41.2 L-20.75 -30.4 Q-47.95 -41.35 -79.65 -41.35 L-101.95 -39.9 -103.75 -39.65 -96.25 -42.6 Q-63.95 -57.2 -11.25 -56.5 41.45 -55.8 72.3 -22.55 103.1 10.65 103.75 56.5 97.0 55.95 90.7 54.3 89.65 39.45 86.5 24.5 83.55 10.3 80.4 3.0 L79.3 50.25 Q69.0 45.6 60.1 37.65 60.75 27.0 60.4 16.15 60.0 1.7 58.15 -6.05 L51.25 28.5 Q47.45 24.05 43.95 18.95 38.8 12.45 32.85 6.3 L35.35 -3.5 Q38.65 -17.6 38.85 -25.55 L26.3 -0.1 Q19.8 -6.15 12.9 -11.3 15.65 -23.65 15.85 -30.9" fill="#ffffff" fill-opacity="0.0" fill-rule="evenodd" stroke="none"/>
    <path d="M15.85 -30.9 Q15.65 -23.65 12.9 -11.3 19.8 -6.15 26.3 -0.1 L38.85 -25.55 Q38.65 -17.6 35.35 -3.5 L32.85 6.3 Q38.8 12.45 43.95 18.95 47.45 24.05 51.25 28.5 L58.15 -6.05 Q60.0 1.7 60.4 16.15 60.75 27.0 60.1 37.65 69.0 45.6 79.3 50.25 L80.4 3.0 Q83.55 10.3 86.5 24.5 89.65 39.45 90.7 54.3 97.0 55.95 103.75 56.5 103.1 10.65 72.3 -22.55 41.45 -55.8 -11.25 -56.5 -63.95 -57.2 -96.25 -42.6 L-103.75 -39.65 -101.95 -39.9 -79.65 -41.35 Q-47.95 -41.35 -20.75 -30.4 L-15.45 -41.2 Q-15.6 -36.2 -16.9 -28.75 -3.95 -23.1 7.95 -14.85 L15.85 -30.9 Z" fill="none" stroke="#000000" stroke-linecap="round" stroke-linejoin="round" stroke-width="1.0"/>
  </g>
</svg>
