<?xml version="1.0" encoding="UTF-8" standalone="no"?>
<svg xmlns:xlink="http://www.w3.org/1999/xlink" height="174.45px" width="150.8px" xmlns="http://www.w3.org/2000/svg">
  <g transform="matrix(1.0, 0.0, 0.0, 1.0, 73.45, 75.9)">
    <path d="M-13.05 -74.35 L-12.5 -73.1 -12.5 -73.05 11.4 57.0 Q11.6 58.15 10.9 59.15 L9.85 60.1 10.25 60.15 70.35 75.4 44.45 -70.65 Q44.25 -71.8 44.95 -72.8 45.65 -73.8 46.8 -74.0 47.95 -74.2 48.95 -73.5 49.95 -72.85 50.15 -71.65 L76.8 78.8 Q77.0 79.8 76.5 80.7 L75.15 81.95 73.25 82.1 8.85 65.75 Q7.65 65.4 7.05 64.4 6.4 63.35 6.75 62.2 7.05 61.05 8.05 60.45 L8.2 60.35 Q7.55 60.3 6.9 59.85 5.9 59.2 5.75 58.05 L-17.65 -69.25 -20.95 -68.65 -67.25 95.95 Q-67.6 97.05 -68.65 97.65 -69.7 98.25 -70.8 97.9 -71.95 97.6 -72.55 96.55 -73.15 95.5 -72.8 94.4 L-26.0 -71.9 Q-25.8 -72.7 -25.2 -73.3 -24.6 -73.85 -23.75 -74.0 L-15.95 -75.4 -14.7 -75.4 -14.45 -75.35 -14.3 -75.3 -13.65 -74.95 -13.05 -74.35 -13.65 -74.95 -14.3 -75.3 -13.65 -75.0 -13.05 -74.35 M-14.8 -69.75 L-17.65 -69.25 -14.8 -69.75" fill="#cccccc" fill-rule="evenodd" stroke="none"/>
    <path d="M-17.65 -69.25 L5.75 58.05 Q5.9 59.2 6.9 59.85 7.55 60.3 8.2 60.35 L8.05 60.45 Q7.05 61.05 6.75 62.2 6.4 63.35 7.05 64.4 7.65 65.4 8.85 65.75 L73.25 82.1 75.15 81.95 76.5 80.7 Q77.0 79.8 76.8 78.8 L50.15 -71.65 Q49.95 -72.85 48.95 -73.5 47.95 -74.2 46.8 -74.0 45.65 -73.8 44.95 -72.8 44.25 -71.8 44.45 -70.65 L70.35 75.4 10.25 60.15 9.85 60.1 10.9 59.15 Q11.6 58.15 11.4 57.0 L-12.5 -73.05 -12.5 -73.1 -13.05 -74.35 -13.65 -74.95 -14.3 -75.3 -14.45 -75.35 -14.7 -75.4 -15.95 -75.4 -23.75 -74.0 Q-24.6 -73.85 -25.2 -73.3 -25.8 -72.7 -26.0 -71.9 L-72.8 94.4 Q-73.15 95.5 -72.55 96.55 -71.95 97.6 -70.8 97.9 -69.7 98.25 -68.65 97.65 -67.6 97.05 -67.25 95.95 L-20.95 -68.65 -17.65 -69.25 -14.8 -69.75 M-13.05 -74.35 L-13.65 -75.0 -14.3 -75.3" fill="none" stroke="#000000" stroke-linecap="round" stroke-linejoin="round" stroke-width="1.0"/>
    <path d="M15.65 -46.65 L15.65 -47.9 48.9 -46.15 50.1 -45.7 50.85 -44.65 50.9 -43.4 24.2 55.6 Q24.0 56.45 23.2 56.9 L21.55 57.1 Q20.7 56.9 20.25 56.1 19.8 55.3 20.05 54.45 L46.0 -41.95 19.25 -43.4 19.25 -42.1 2.65 -43.0 -0.2 -43.3 2.65 -43.0 -0.2 -43.15 -0.2 -43.3 -5.85 -43.6 -26.5 43.65 Q-26.7 44.5 -27.45 44.95 -28.25 45.45 -29.1 45.25 -30.0 45.05 -30.45 44.3 -30.9 43.5 -30.7 42.65 L-9.65 -46.35 -8.85 -47.6 -7.45 -48.0 2.65 -47.5 2.65 -47.35 15.65 -46.65 M15.65 -43.55 L19.25 -43.4 15.65 -43.55" fill="#cccccc" fill-rule="evenodd" stroke="none"/>
    <path d="M15.65 -46.65 L2.65 -47.35 M2.65 -47.5 L-7.45 -48.0 -8.85 -47.6 -9.65 -46.35 -30.7 42.65 Q-30.9 43.5 -30.45 44.3 -30.0 45.05 -29.1 45.25 -28.25 45.45 -27.45 44.95 -26.7 44.5 -26.5 43.65 L-5.85 -43.6 -0.2 -43.3 2.65 -43.0 19.25 -42.1 M19.25 -43.4 L15.65 -43.55 M15.65 -47.9 L48.9 -46.15 50.1 -45.7 50.85 -44.65 50.9 -43.4 24.2 55.6 Q24.0 56.45 23.2 56.9 L21.55 57.1 Q20.7 56.9 20.25 56.1 19.8 55.3 20.05 54.45 L46.0 -41.95 19.25 -43.4 M-0.2 -43.15 L2.65 -43.0" fill="none" stroke="#000000" stroke-linecap="round" stroke-linejoin="round" stroke-width="1.0"/>
  </g>
</svg>
