<?xml version="1.0" encoding="UTF-8" standalone="no"?>
<svg xmlns:xlink="http://www.w3.org/1999/xlink" height="92.55px" width="148.1px" xmlns="http://www.w3.org/2000/svg">
  <g transform="matrix(1.0, 0.0, 0.0, 1.0, 74.05, 38.35)">
    <path d="M51.65 47.0 L52.5 47.0 Q53.9 47.0 54.85 48.0 55.85 48.95 55.85 50.35 55.85 51.75 54.85 52.7 53.9 53.7 52.5 53.7 L-58.85 53.7 Q-60.2 53.7 -61.15 52.7 -62.15 51.75 -62.15 50.35 -62.15 48.95 -61.15 48.0 -60.2 47.0 -58.85 47.0 L-57.55 47.0 -48.3 47.0 -45.55 46.65 51.7 46.65 51.65 47.0 -48.3 47.0 51.65 47.0 M51.8 45.95 L52.5 38.7 52.1 44.35 51.8 45.95 M28.15 -25.8 L27.1 -26.7 27.65 -26.25 28.15 -25.8" fill="#000000" fill-opacity="0.101960786" fill-rule="evenodd" stroke="none"/>
    <path d="M26.45 -27.25 Q31.15 -30.4 37.55 -33.2 50.3 -38.9 58.85 -37.65 64.45 -36.8 68.2 -32.95 72.5 -28.55 73.35 -20.95 75.4 -2.0 55.85 31.0 L56.5 33.1 Q57.2 35.65 57.3 37.85 57.7 44.85 52.5 45.7 L51.85 45.95 52.1 44.35 52.5 38.7 53.0 33.05 53.0 31.65 53.0 31.25 53.0 30.9 53.0 30.55 53.0 30.2 Q51.55 10.05 45.7 -2.75 L43.2 -7.55 37.65 -15.85 37.5 -16.05 37.25 -16.35 36.6 -17.15 Q33.55 -20.9 30.25 -23.95 L28.15 -25.8 27.65 -26.25 26.8 -26.95 26.45 -27.25 M-57.55 47.0 L-57.65 46.65 -45.55 46.65 -48.3 47.0 -57.55 47.0 M37.65 -15.85 L37.25 -16.35 37.65 -15.85 M63.2 -24.6 Q61.5 -28.15 57.55 -28.75 L55.7 -28.9 Q49.45 -28.9 39.95 -24.45 51.65 -7.05 55.45 12.9 63.15 -2.9 64.3 -13.95 65.0 -20.8 63.2 -24.6 M-68.0 -19.8 Q-70.1 -19.1 -71.0 -18.3 -71.0 -16.35 -68.3 -15.7 L-65.65 -15.5 Q-66.7 -17.8 -62.15 -19.45 L-57.35 -20.65 Q-63.7 -21.2 -68.0 -19.8 M-57.8 17.0 L-58.25 14.6 Q-60.05 1.75 -60.85 -1.3 -62.85 -9.25 -66.3 -11.9 -70.3 -13.8 -72.5 -16.0 -75.8 -19.3 -68.75 -21.55 -61.6 -23.8 -51.5 -22.3 L-39.45 -20.75 -39.9 -20.25 -42.6 -17.15 Q-54.1 -2.95 -57.55 15.4 L-57.8 17.0" fill="#ffffff" fill-opacity="0.0" fill-rule="evenodd" stroke="none"/>
    <path d="M51.85 45.95 L51.7 46.65 51.65 47.0 51.7 46.65 51.8 45.95 51.85 45.95 51.8 45.95 52.1 44.35 51.85 45.95" fill="#b8b8b8" fill-rule="evenodd" stroke="none"/>
    <path d="M-68.0 -19.8 Q-63.7 -21.2 -57.35 -20.65 L-62.15 -19.45 Q-66.7 -17.8 -65.65 -15.5 L-68.3 -15.7 Q-71.0 -16.35 -71.0 -18.3 -70.1 -19.1 -68.0 -19.8" fill="#ffffff" fill-opacity="0.5019608" fill-rule="evenodd" stroke="none"/>
    <path d="M51.8 45.95 L52.5 38.7 53.0 33.05 53.0 31.65 53.0 31.25 53.0 30.9 53.0 30.55 53.0 30.2 Q51.55 10.05 45.7 -2.75 L43.2 -7.55 37.65 -15.85 37.25 -16.35 36.6 -17.15 Q33.55 -20.9 30.25 -23.95 L28.15 -25.8 27.1 -26.7 26.8 -26.95 26.45 -27.25 M-57.8 17.0 L-57.55 15.4 Q-54.1 -2.95 -42.6 -17.15 L-39.9 -20.25 -39.45 -20.75" fill="none" stroke="#0e0e0e" stroke-linecap="round" stroke-linejoin="round" stroke-opacity="0.6" stroke-width="1.0"/>
    <path d="M26.45 -27.25 Q31.15 -30.4 37.55 -33.2 50.3 -38.9 58.85 -37.65 64.45 -36.8 68.2 -32.95 72.5 -28.55 73.35 -20.95 75.4 -2.0 55.85 31.0 L56.5 33.1 Q57.2 35.65 57.3 37.85 57.7 44.85 52.5 45.7 L51.85 45.95 51.8 45.95 M51.65 47.0 L52.5 47.0 Q53.9 47.0 54.85 48.0 55.85 48.95 55.85 50.35 55.85 51.75 54.85 52.7 53.9 53.7 52.5 53.7 L-58.85 53.7 Q-60.2 53.7 -61.15 52.7 -62.15 51.75 -62.15 50.35 -62.15 48.95 -61.15 48.0 -60.2 47.0 -58.85 47.0 L-57.55 47.0 M63.2 -24.6 Q65.0 -20.8 64.3 -13.95 63.15 -2.9 55.45 12.9 51.65 -7.05 39.95 -24.45 49.45 -28.9 55.7 -28.9 L57.55 -28.75 Q61.5 -28.15 63.2 -24.6 M-39.45 -20.75 L-51.5 -22.3 Q-61.6 -23.8 -68.75 -21.55 -75.8 -19.3 -72.5 -16.0 -70.3 -13.8 -66.3 -11.9 -62.85 -9.25 -60.85 -1.3 -60.05 1.75 -58.25 14.6 L-57.8 17.0" fill="none" stroke="#000000" stroke-linecap="round" stroke-linejoin="round" stroke-width="1.0"/>
    <path d="M-48.3 47.0 L-57.55 47.0 M-48.3 47.0 L51.65 47.0" fill="none" stroke="#000000" stroke-linecap="round" stroke-linejoin="round" stroke-opacity="0.6" stroke-width="1.0"/>
  </g>
</svg>
