<?xml version="1.0" encoding="UTF-8" standalone="no"?>
<svg xmlns:xlink="http://www.w3.org/1999/xlink" height="357.45px" width="749.95px" xmlns="http://www.w3.org/2000/svg">
  <g transform="matrix(1.0, 0.0, 0.0, 1.0, 374.95, 356.75)">
    <path d="M168.7 0.2 L-374.25 0.2 -374.45 -12.3 Q-374.45 -31.7 -372.6 -50.25 -370.35 -72.75 -365.4 -94.15 -360.45 -115.4 -352.85 -135.55 -345.2 -155.85 -334.7 -174.9 -321.9 -198.55 -304.85 -220.45 -290.95 -238.3 -274.4 -254.9 L-273.8 -255.6 Q-244.4 -285.0 -211.45 -305.7 L-200.55 -312.3 Q-150.3 -341.45 -92.0 -351.2 L-72.45 -353.95 Q-51.95 -356.25 -30.5 -356.25 -20.4 -356.25 -10.45 -355.75 L7.75 -354.4 Q26.8 -352.5 45.0 -348.6 89.25 -339.2 128.75 -318.3 134.4 -315.35 139.9 -312.05 178.7 -289.6 212.7 -255.6 L214.0 -254.3 Q230.25 -237.95 243.75 -220.55 257.4 -203.05 266.0 -184.45 L141.8 -184.45 Q127.8 -183.85 114.85 -181.05 L106.75 -179.05 Q100.85 -177.4 95.1 -175.15 L90.15 -173.15 Q65.6 -162.7 45.15 -142.25 L38.8 -135.55 35.35 -131.4 31.95 -127.2 Q21.0 -113.2 14.2 -97.45 6.1 -78.75 3.85 -57.7 L3.25 -51.35 Q2.9 -45.9 2.9 -40.4 2.9 -25.35 5.75 -11.35 6.65 -5.95 8.2 -0.75 6.65 -5.95 5.75 -11.35 2.9 -25.35 2.9 -40.4 2.9 -45.9 3.25 -51.35 L3.85 -57.7 Q6.1 -78.75 14.2 -97.45 21.0 -113.2 31.95 -127.2 L35.35 -131.4 38.8 -135.55 45.15 -142.25 Q65.6 -162.7 90.15 -173.15 L95.1 -175.15 Q100.85 -177.4 106.75 -179.05 L114.85 -181.05 Q127.8 -183.85 141.8 -184.45 L266.0 -184.45 Q293.5 -177.85 317.35 -159.05 325.0 -153.05 332.3 -145.75 337.25 -140.8 341.7 -135.55 369.15 -102.9 373.65 -60.75 374.5 -52.5 374.5 -43.9 374.5 -27.0 370.4 0.2 L168.7 0.2 Q164.5 -31.2 164.5 -42.4 L164.6 -48.05 165.2 -54.95 Q167.65 -76.5 179.05 -94.35 182.5 -99.9 186.85 -104.95 L189.4 -108.0 193.4 -112.25 Q199.05 -117.9 205.2 -122.35 215.75 -130.25 227.65 -134.8 L229.65 -135.55 233.65 -136.8 235.65 -137.4 Q247.05 -140.7 261.05 -141.05 269.75 -139.05 277.95 -135.55 286.1 -132.0 293.5 -126.7 301.0 -121.55 307.95 -114.6 312.65 -109.9 316.65 -104.85 333.5 -83.3 336.3 -56.05 336.9 -50.85 336.9 -45.45 L336.9 -44.85 Q336.9 -32.5 333.0 -0.75 336.9 -32.5 336.9 -44.85 L336.9 -45.45 Q336.9 -50.85 336.3 -56.05 333.5 -83.3 316.65 -104.85 312.65 -109.9 307.95 -114.6 301.0 -121.55 293.5 -126.7 286.1 -132.0 277.95 -135.55 269.75 -139.05 261.05 -141.05 247.05 -140.7 235.65 -137.4 L233.65 -136.8 229.65 -135.55 227.65 -134.8 Q215.75 -130.25 205.2 -122.35 199.05 -117.9 193.4 -112.25 L189.4 -108.0 186.85 -104.95 Q182.5 -99.9 179.05 -94.35 167.65 -76.5 165.2 -54.95 L164.6 -48.05 164.5 -42.4 Q164.5 -31.2 168.7 0.2" fill="#ffffff" fill-opacity="0.0" fill-rule="evenodd" stroke="none"/>
    <path d="M266.0 -184.45 Q257.4 -203.05 243.75 -220.55 230.25 -237.95 214.0 -254.3 L212.7 -255.6 Q178.7 -289.6 139.9 -312.05 134.4 -315.35 128.75 -318.3 89.25 -339.2 45.0 -348.6 26.8 -352.5 7.75 -354.4 L-10.45 -355.75 Q-20.4 -356.25 -30.5 -356.25 -51.95 -356.25 -72.45 -353.95 L-92.0 -351.2 Q-150.3 -341.45 -200.55 -312.3 L-211.45 -305.7 Q-244.4 -285.0 -273.8 -255.6 L-274.4 -254.9 Q-290.95 -238.3 -304.85 -220.45 -321.9 -198.55 -334.7 -174.9 -345.2 -155.85 -352.85 -135.55 -360.45 -115.4 -365.4 -94.15 -370.35 -72.75 -372.6 -50.25 -374.45 -31.7 -374.45 -12.3 L-374.25 0.2 168.7 0.2 370.4 0.2 Q374.5 -27.0 374.5 -43.9 374.5 -52.5 373.65 -60.75 369.15 -102.9 341.7 -135.55 337.25 -140.8 332.3 -145.75 325.0 -153.05 317.35 -159.05 293.5 -177.85 266.0 -184.45" fill="none" stroke="#000000" stroke-linecap="round" stroke-linejoin="round" stroke-width="1.0"/>
    <path d="M168.7 0.2 Q164.5 -31.2 164.5 -42.4 L164.6 -48.05 165.2 -54.95 Q167.65 -76.5 179.05 -94.35 182.5 -99.9 186.85 -104.95 L189.4 -108.0 193.4 -112.25 Q199.05 -117.9 205.2 -122.35 215.75 -130.25 227.65 -134.8 L229.65 -135.55 233.65 -136.8 235.65 -137.4 Q247.05 -140.7 261.05 -141.05 269.75 -139.05 277.95 -135.55 286.1 -132.0 293.5 -126.7 301.0 -121.55 307.95 -114.6 312.65 -109.9 316.65 -104.85 333.5 -83.3 336.3 -56.05 336.9 -50.85 336.9 -45.45 L336.9 -44.85 Q336.9 -32.5 333.0 -0.75 M266.0 -184.45 L141.8 -184.45 Q127.8 -183.85 114.85 -181.05 L106.75 -179.05 Q100.85 -177.4 95.1 -175.15 L90.15 -173.15 Q65.6 -162.7 45.15 -142.25 L38.8 -135.55 35.35 -131.4 31.95 -127.2 Q21.0 -113.2 14.2 -97.45 6.1 -78.75 3.85 -57.7 L3.25 -51.35 Q2.9 -45.9 2.9 -40.4 2.9 -25.35 5.75 -11.35 6.65 -5.95 8.2 -0.75" fill="none" stroke="#000000" stroke-linecap="round" stroke-linejoin="round" stroke-opacity="0.7490196" stroke-width="1.0"/>
    <path d="M186.85 -104.95 L189.4 -108.0 193.4 -112.25 Q199.05 -117.9 205.2 -122.35 L205.3 -122.35 Q209.65 -118.85 213.9 -114.6 L220.7 -107.2 222.6 -104.85 Q227.3 -98.7 231.05 -92.25 240.45 -75.3 242.35 -55.35 L242.8 -46.85 242.8 -45.45 242.8 -44.85 Q242.8 -32.5 238.95 -0.75 L168.7 0.2 Q164.5 -31.2 164.5 -42.4 L164.6 -48.05 165.2 -54.95 Q167.65 -76.5 179.05 -94.35 182.5 -99.9 186.85 -104.95" fill="#000000" fill-opacity="0.29803923" fill-rule="evenodd" stroke="none"/>
    <path d="M214.0 -254.3 L179.2 -257.35 119.0 -261.5 141.8 -184.45 M45.0 -348.6 L77.6 -321.8 113.35 -316.75 139.9 -312.05 M-10.45 -355.75 L0.65 -327.9 39.7 -325.55 77.6 -321.8 M119.0 -261.5 L66.75 -264.05 Q43.25 -265.0 19.85 -265.45 L30.9 -183.65 114.85 -181.05 M39.7 -325.55 L66.75 -264.05 M233.65 -136.8 L210.1 -173.15 Q185.55 -162.7 165.1 -142.25 L158.75 -135.55 155.3 -131.4 151.2 -126.25 186.85 -104.95 M205.2 -122.35 L205.3 -122.35 293.5 -126.7 317.35 -159.05 M151.2 -126.25 Q140.15 -111.9 133.45 -95.65 125.9 -77.8 123.8 -57.7 L165.2 -54.95 M123.8 -57.7 L123.2 -51.35 Q122.85 -45.9 122.85 -40.4 122.85 -25.35 125.7 -11.35 126.6 -5.95 129.15 0.2 M151.2 -126.25 L31.95 -127.2 M3.85 -57.7 L123.8 -57.7 M90.15 -173.15 L210.1 -173.15 215.05 -175.15 215.65 -175.4 Q221.05 -177.5 226.7 -179.05 243.4 -183.75 266.0 -184.45 M205.3 -122.35 Q209.65 -118.85 213.9 -114.6 L220.7 -107.2 222.6 -104.85 Q227.3 -98.7 231.05 -92.25 240.45 -75.3 242.35 -55.35 L336.3 -56.05 373.65 -60.75 M238.95 -0.75 Q242.8 -32.5 242.8 -44.85 L242.8 -45.45 242.8 -46.85 242.35 -55.35 M179.2 -257.35 L113.35 -316.75 M-262.75 0.2 L-253.45 -96.5 -326.35 -95.2 -365.4 -94.15 M-200.55 -312.3 Q-163.85 -319.55 -126.7 -323.55 L-83.75 -327.1 -72.45 -353.95 M-126.7 -323.55 L-161.4 -263.0 -102.6 -265.25 Q-73.3 -266.05 -43.9 -266.05 L-44.0 -328.5 -83.75 -327.1 M-274.4 -254.9 L-209.35 -260.2 -161.4 -263.0 M-253.45 -96.5 L-194.55 -97.2 -182.65 -180.9 -230.15 -178.9 -241.7 -178.35 -303.2 -175.85 -326.35 -95.2 M-194.55 -97.2 Q-159.6 -97.55 -121.75 -97.55 L-51.3 -97.65 -51.05 -97.65 -50.85 -184.2 Q-77.05 -184.1 -102.8 -183.5 L-121.5 -183.05 -182.65 -180.9 M-102.6 -265.25 L-121.5 -183.05 M-241.7 -178.35 L-209.35 -260.2 M-334.7 -174.9 L-303.2 -175.85 M-121.75 -97.55 L-122.9 0.2 M19.85 -265.45 Q-12.15 -266.2 -43.9 -266.05 M-44.0 -328.5 Q-21.8 -328.85 0.65 -327.9 M14.2 -97.45 L-51.05 -97.65 M-50.85 -184.2 Q-10.5 -184.45 30.9 -183.65" fill="none" stroke="#000000" stroke-linecap="round" stroke-linejoin="round" stroke-opacity="0.29803923" stroke-width="1.0"/>
  </g>
</svg>
