<?xml version="1.0" encoding="UTF-8" standalone="no"?>
<svg xmlns:xlink="http://www.w3.org/1999/xlink" height="44.3px" width="41.8px" xmlns="http://www.w3.org/2000/svg">
  <g transform="matrix(1.0, 0.0, 0.0, 1.0, 20.95, 20.6)">
    <path d="M0.95 -2.7 L1.45 -2.7 1.5 -2.8 10.35 -17.8 19.05 -2.4 19.8 -2.45 19.8 -1.0 19.7 23.05 5.25 23.1 3.5 23.15 3.7 23.1 0.65 23.1 0.95 -2.7 M-1.0 23.1 L-17.4 23.2 -18.05 23.2 -17.95 23.2 -20.45 23.2 -19.9 -3.05 -18.95 -3.0 -10.0 -18.1 -1.35 -2.7 -1.05 -2.7 -1.0 23.1 M3.7 23.1 L5.25 23.1 3.7 23.1 M-17.95 23.2 L-17.4 23.2 -17.95 23.2" fill="#ffffff" fill-opacity="0.0" fill-rule="evenodd" stroke="none"/>
    <path d="M1.5 -2.8 L0.95 -3.8 10.4 -19.8 20.35 -2.5 19.8 -2.45 19.05 -2.4 10.35 -17.8 1.5 -2.8 M0.65 23.1 L-1.0 23.1 -1.05 -2.7 -1.35 -2.7 -10.0 -18.1 -18.95 -3.0 -19.9 -3.05 -9.95 -20.1 -0.1 -2.75 -0.1 -2.7 -0.05 -2.7 0.95 -2.7 0.65 23.1 M-0.1 -2.7 L-1.05 -2.7 -0.1 -2.7" fill="#000000" fill-opacity="0.101960786" fill-rule="evenodd" stroke="none"/>
    <path d="M1.45 -2.7 L1.5 -2.8 M20.35 -2.5 L19.8 -2.45 19.8 -1.0" fill="none" stroke="#000000" stroke-linecap="round" stroke-linejoin="round" stroke-width="1.0"/>
    <path d="M19.8 -1.0 L19.7 23.05 5.25 23.1 3.7 23.1 0.65 23.1 -1.0 23.1 -17.4 23.2 -18.05 23.2 M-17.95 23.2 L-20.45 23.2 -19.9 -3.05 M-17.4 23.2 L-17.95 23.2" fill="none" stroke="#000000" stroke-linecap="round" stroke-linejoin="round" stroke-width="1.0"/>
    <path d="M0.95 -2.7 L1.45 -2.7 M0.95 -2.7 L0.65 23.1 M1.5 -2.8 L10.35 -17.8 19.05 -2.4 19.8 -2.45 M-19.9 -3.05 L-18.95 -3.0 -10.0 -18.1 -1.35 -2.7 -1.05 -2.7 -0.1 -2.7 -0.05 -2.7 M-1.0 23.1 L-1.05 -2.7" fill="none" stroke="#000000" stroke-linecap="round" stroke-linejoin="round" stroke-opacity="0.6" stroke-width="1.0"/>
    <path d="M1.5 -2.8 L0.95 -3.8 10.4 -19.8 20.35 -2.5 M-19.9 -3.05 L-9.95 -20.1 -0.1 -2.75" fill="none" stroke="#000000" stroke-linecap="round" stroke-linejoin="round" stroke-opacity="0.4" stroke-width="1.0"/>
    <path d="M-0.1 -2.75 L-0.05 -2.7 0.95 -2.7" fill="none" stroke="#000000" stroke-linecap="round" stroke-linejoin="round" stroke-opacity="0.6" stroke-width="1.0"/>
  </g>
</svg>
