<?xml version="1.0" encoding="UTF-8" standalone="no"?>
<svg xmlns:xlink="http://www.w3.org/1999/xlink" height="48.75px" width="19.95px" xmlns="http://www.w3.org/2000/svg">
  <g transform="matrix(1.0, 0.0, 0.0, 1.0, 10.55, 29.85)">
    <path d="M-3.9 -14.65 L-4.05 -14.6 -4.0 -14.75 -3.9 -14.65 M-8.05 -14.25 L-8.1 -14.2 -8.15 -14.35 -8.05 -14.25 M0.8 -17.65 L0.8 -17.55 0.7 -17.55 0.8 -17.65" fill="#ffffff" fill-rule="evenodd" stroke="none"/>
    <path d="M-1.6 -16.0 L-1.4 -16.0 Q-0.8 -16.0 -0.4 -16.45 L0.0 -17.05 0.0 -17.1 0.6 -17.45 0.7 -17.55 0.8 -17.55 0.8 -17.65 0.95 -18.2 0.95 -18.25 6.15 -18.0 8.15 -17.5 7.9 -16.35 3.1 2.65 -0.85 18.4 -3.65 5.9 -3.5 5.85 Q-3.6 5.75 -3.65 5.75 L-8.1 -14.15 -8.1 -14.2 -8.05 -14.25 Q-7.6 -13.8 -7.0 -13.8 L-6.25 -14.0 -6.0 -14.2 Q-5.65 -13.75 -5.15 -13.75 -4.65 -13.75 -4.3 -14.2 L-4.05 -14.6 -3.9 -14.65 -3.15 -14.45 Q-2.55 -14.45 -2.1 -14.9 -1.65 -15.35 -1.65 -15.95 L-1.6 -16.0" fill="#efecc9" fill-rule="evenodd" stroke="none"/>
    <path d="M-1.6 -16.0 L-1.65 -15.95 -1.65 -16.0 -1.6 -16.0 M-3.65 5.75 Q-3.6 5.75 -3.5 5.85 L-3.65 5.9 -3.65 5.75" fill="#fffce6" fill-rule="evenodd" stroke="none"/>
    <path d="M0.7 -17.55 L0.6 -17.45 0.0 -17.1 0.0 -17.05 -0.4 -16.45 Q-0.8 -16.0 -1.4 -16.0 L-1.6 -16.0 -1.65 -16.0 -1.65 -15.95 Q-1.65 -15.35 -2.1 -14.9 -2.55 -14.45 -3.15 -14.45 L-3.9 -14.65 -4.05 -14.6 -4.3 -14.2 Q-4.65 -13.75 -5.15 -13.75 -5.65 -13.75 -6.0 -14.2 L-6.25 -14.0 -7.0 -13.8 Q-7.6 -13.8 -8.05 -14.25 L-8.15 -14.35 -8.1 -14.2 -8.1 -14.15 -3.65 5.75 Q-3.6 5.75 -3.5 5.85 L-3.65 5.9 -0.85 18.4 3.1 2.65 7.9 -16.35 8.15 -17.5 6.15 -18.0 0.95 -18.25 0.95 -18.2 0.8 -17.65 0.7 -17.55 M7.9 -16.35 L8.7 -19.15 Q9.5 -22.9 7.05 -26.3 4.55 -29.75 -0.25 -29.3 -5.1 -28.85 -7.35 -27.6 -9.7 -26.35 -10.0 -21.5 -10.35 -17.25 -8.1 -14.15 M-4.05 -14.6 L-4.0 -14.75 -3.9 -14.65 M-3.65 5.75 L-3.65 5.9" fill="none" stroke="#000000" stroke-linecap="round" stroke-linejoin="round" stroke-width="1.0"/>
    <path d="M0.0 -17.05 L3.15 -15.65 6.15 -18.0 M7.3 -14.05 L3.15 -15.65 Q0.35 -13.75 -3.25 -12.1 -0.55 -10.55 2.85 -9.2 L6.75 -11.85 M4.5 -2.85 L3.1 -3.35 Q0.2 -1.65 -3.5 -0.15 -0.55 1.35 3.1 2.65 0.2 4.35 -3.5 5.85 L1.75 8.15 M5.8 -8.1 L2.85 -9.2 Q0.0 -7.6 -3.5 -6.15 -0.55 -4.65 3.1 -3.35 L4.9 -4.5 M-4.85 0.35 L-3.5 -0.15 -5.2 -1.05 M-7.3 -10.5 L-3.25 -12.1 -6.25 -14.0 M-6.1 -5.2 L-3.5 -6.15 -6.75 -8.0 M0.15 14.5 L-1.9 13.6 M-2.2 12.3 L1.1 10.75" fill="none" stroke="#000000" stroke-linecap="round" stroke-linejoin="round" stroke-opacity="0.2" stroke-width="1.0"/>
  </g>
</svg>
