<?xml version="1.0" encoding="UTF-8" standalone="no"?>
<svg xmlns:xlink="http://www.w3.org/1999/xlink" height="7.65px" width="5.4px" xmlns="http://www.w3.org/2000/svg">
  <g transform="matrix(1.0, 0.0, 0.0, 1.0, -4.65, 1.45)">
    <path d="M5.15 -0.95 L9.45 -0.95 9.55 5.7 5.65 5.7 5.15 -0.95 M7.35 2.65 L5.9 2.65 6.1 5.25 7.45 5.25 7.35 2.65 M9.05 2.65 L7.65 2.65 7.75 5.25 9.1 5.25 9.05 2.65 M7.2 -0.5 L5.65 -0.5 5.85 2.2 7.3 2.2 7.2 -0.5 M9.0 -0.5 L7.5 -0.5 7.65 2.2 9.05 2.2 9.0 -0.5" fill="#ffffff" fill-opacity="0.0" fill-rule="evenodd" stroke="none"/>
    <path d="M5.15 -0.95 L5.65 5.7 9.55 5.7 9.45 -0.95 5.15 -0.95 Z" fill="none" stroke="#000000" stroke-linecap="round" stroke-linejoin="round" stroke-opacity="0.4" stroke-width="1.0"/>
  </g>
</svg>
