<?xml version="1.0" encoding="UTF-8" standalone="no"?>
<svg xmlns:xlink="http://www.w3.org/1999/xlink" height="4.9px" width="2.75px" xmlns="http://www.w3.org/2000/svg">
  <g transform="matrix(1.0, 0.0, 0.0, 1.0, 1.4, 2.4)">
    <path d="M1.35 -1.0 L1.3 0.0 0.1 0.05 0.1 -0.95 1.35 -1.0 M0.1 0.45 L1.25 0.4 1.2 1.35 0.15 1.4 0.1 0.45 M0.1 -2.4 L0.5 -2.3 1.35 -1.6 1.35 -1.4 0.1 -1.35 0.1 -2.4 M1.2 1.75 L1.15 2.45 0.15 2.5 0.15 1.75 1.2 1.75 M-0.3 -0.95 L-0.25 0.05 -1.35 0.1 -1.35 -0.9 -0.3 -0.95 M-1.4 -1.55 L-0.3 -2.4 -0.3 -1.3 -1.4 -1.25 -1.4 -1.55 M-0.25 1.4 L-1.3 1.45 -1.3 0.5 -0.25 0.45 -0.25 1.4 M-0.25 2.5 L-1.25 2.5 -1.25 1.85 -0.25 1.8 -0.25 2.5" fill="#000000" fill-opacity="0.6" fill-rule="evenodd" stroke="none"/>
  </g>
</svg>
