<?xml version="1.0" encoding="UTF-8" standalone="no"?>
<svg xmlns:xlink="http://www.w3.org/1999/xlink" height="105.35px" width="139.75px" xmlns="http://www.w3.org/2000/svg">
  <g transform="matrix(1.0, 0.0, 0.0, 1.0, 69.85, 138.85)">
    <path d="M64.95 -114.2 Q66.2 -111.45 66.85 -108.4 67.55 -100.35 64.35 -77.5 L60.95 -56.3 60.3 -55.7 Q58.0 -53.85 50.0 -49.9 L40.8 -45.6 Q40.1 -45.35 39.4 -44.3 L38.15 -42.75 35.35 -41.85 27.65 -39.5 28.7 -41.6 Q33.9 -42.7 33.9 -44.05 L33.9 -49.35 Q33.9 -50.7 28.55 -51.8 L28.55 -101.2 -28.5 -101.2 -28.5 -51.8 Q-33.85 -50.7 -33.85 -49.35 L-33.85 -44.05 Q-33.85 -43.2 -31.7 -42.45 L-31.65 -42.4 -31.5 -42.4 -31.5 -42.35 -27.8 -41.45 -26.3 -39.1 -40.2 -43.45 -42.45 -44.2 Q-58.55 -49.55 -64.05 -52.7 -65.85 -64.1 -67.1 -74.4 -69.2 -91.6 -69.85 -105.6 -70.05 -109.6 -64.45 -114.7 -58.95 -119.7 -49.2 -124.55 -27.15 -135.5 0.0 -138.85 27.2 -135.5 49.2 -124.55 58.95 -119.7 64.45 -114.7 L64.95 -114.2 M9.55 -58.75 Q8.9 -59.35 8.0 -59.35 L-7.95 -59.35 Q-8.85 -59.35 -9.45 -58.75 L-10.05 -57.7 -20.55 -57.7 -20.55 -94.15 20.6 -94.15 20.6 -57.7 10.1 -57.7 9.55 -58.75 M24.25 -40.85 L26.2 -41.15 25.85 -40.5 25.05 -38.75 22.6 -38.0 24.25 -40.85 M3.75 -38.0 L2.1 -36.2 0.95 -35.05 -0.65 -33.55 -0.7 -33.5 -0.85 -33.5 -0.9 -33.55 -1.6 -35.15 -2.05 -36.2 -3.65 -39.55 0.05 -39.55 2.8 -39.55 3.75 -38.0 M7.7 -39.65 L15.4 -40.0 17.2 -36.5 14.75 -35.8 14.0 -35.6 7.25 -35.9 6.3 -37.85 7.7 -39.65 M4.7 -36.05 L4.75 -36.15 4.8 -36.05 4.7 -36.05 M19.2 -37.05 L17.6 -40.15 21.8 -40.55 19.55 -37.15 19.3 -36.8 19.2 -37.05 M18.0 -47.05 Q11.4 -46.15 -3.7 -46.5 L-17.45 -47.0 0.55 -47.7 18.0 -47.05 M-62.2 -111.2 Q-57.9 -114.7 -51.7 -118.15 -31.8 -129.2 -0.2 -135.85 -11.95 -134.55 -25.95 -130.5 -53.95 -122.35 -65.25 -108.4 L-62.2 -111.2 M-18.2 -59.8 L-16.25 -89.6 18.25 -91.35 -18.0 -91.35 -18.2 -59.8 M-5.85 -39.6 L-4.2 -36.1 -12.55 -35.65 -12.6 -35.75 -12.25 -36.05 -8.95 -39.7 -5.85 -39.6 M-14.6 -39.95 L-11.5 -39.8 -13.5 -37.7 -14.6 -39.95 M-15.0 -36.2 L-15.25 -35.95 -18.55 -36.85 -23.5 -38.3 -25.15 -41.0 -23.95 -40.85 -16.95 -40.1 -15.1 -36.4 -15.0 -36.2" fill="#ffffff" fill-opacity="0.0" fill-rule="evenodd" stroke="none"/>
    <path d="M38.15 -42.75 L39.4 -44.3 Q40.1 -45.35 40.8 -45.6 L50.0 -49.9 Q58.0 -53.85 60.3 -55.7 L60.95 -56.3 64.35 -77.5 Q67.55 -100.35 66.85 -108.4 66.2 -111.45 64.95 -114.2 L64.95 -114.25 65.6 -113.65 66.2 -113.0 Q70.0 -108.95 69.9 -105.6 68.9 -83.25 64.1 -52.7 L60.3 -50.8 58.85 -50.15 43.35 -44.45 38.1 -42.75 38.15 -42.75" fill="#000000" fill-opacity="0.101960786" fill-rule="evenodd" stroke="none"/>
    <path d="M-62.2 -111.2 L-65.25 -108.4 Q-53.95 -122.35 -25.95 -130.5 -11.95 -134.55 -0.2 -135.85 -31.8 -129.2 -51.7 -118.15 -57.9 -114.7 -62.2 -111.2 M-18.2 -59.8 L-18.0 -91.35 18.25 -91.35 -16.25 -89.6 -18.2 -59.8" fill="#ffffff" fill-opacity="0.3019608" fill-rule="evenodd" stroke="none"/>
  </g>
</svg>
