<?xml version="1.0" encoding="UTF-8" standalone="no"?>
<svg xmlns:xlink="http://www.w3.org/1999/xlink" height="162.35px" width="66.55px" xmlns="http://www.w3.org/2000/svg">
  <g transform="matrix(1.0, 0.0, 0.0, 1.0, 33.0, 81.15)">
    <path d="M12.5 -77.4 L12.5 -78.35 -13.35 -78.35 -13.35 -77.4 12.5 -77.4 M1.15 -58.15 L0.7 -59.3 Q0.25 -59.75 -0.45 -59.75 -1.1 -59.75 -1.55 -59.3 -2.0 -58.8 -2.0 -58.15 -2.0 -57.5 -1.55 -57.05 -1.1 -56.55 -0.45 -56.55 0.2 -56.55 0.7 -57.05 1.15 -57.5 1.15 -58.15 M-6.4 -52.65 L-6.4 -54.6 5.5 -54.6 5.5 -52.65 5.5 -54.6 -6.4 -54.6 -6.4 -52.65 -11.8 -52.65 -11.8 -48.6 -6.4 -48.6 -6.4 -52.65 M-4.15 -37.95 L-4.15 -46.4 -6.4 -46.4 -6.4 -48.6 -6.4 -46.4 -4.15 -46.4 -4.15 -37.95 -14.8 -37.95 -14.8 -40.6 -14.8 -46.8 -14.8 -80.65 13.95 -80.65 13.95 -41.45 13.95 -37.95 3.1 -37.95 3.1 -36.1 3.1 -29.8 -4.15 -29.8 -4.15 -36.1 -4.15 -29.8 3.1 -29.8 3.1 -36.1 32.2 -36.1 32.2 80.7 -32.15 80.7 -32.15 -36.1 -4.15 -36.1 -4.15 -37.95 M5.5 -48.6 L5.5 -46.4 3.1 -46.4 3.1 -37.95 3.1 -46.4 5.5 -46.4 5.5 -48.6 10.9 -48.6 10.9 -52.65 5.5 -52.65 5.5 -48.6 M29.25 -28.3 L29.25 -29.05 -28.55 -29.05 -28.55 -28.3 29.25 -28.3 M8.9 -39.45 L8.9 -44.4 5.2 -44.4 5.2 -39.45 8.9 -39.45 M28.75 24.8 L28.75 23.8 -28.8 23.8 -28.8 24.8 28.75 24.8 M31.85 19.1 L31.85 17.6 -32.0 17.6 -32.0 19.1 31.85 19.1 M-31.9 77.1 L-31.9 80.5 31.95 80.5 31.95 77.1 31.95 73.5 -31.9 73.5 -31.9 77.1 M23.55 9.4 L23.55 -27.05 -23.6 -27.05 -23.6 9.4 23.55 9.4" fill="#ffffff" fill-opacity="0.0" fill-rule="evenodd" stroke="none"/>
    <path d="M23.55 9.4 L-23.6 9.4 -23.6 -27.05 23.55 -27.05 23.55 9.4" fill="#000000" fill-opacity="0.69803923" fill-rule="evenodd" stroke="none"/>
    <path d="M12.5 -77.4 L-13.35 -77.4 -13.35 -78.35 12.5 -78.35 12.5 -77.4 M29.25 -28.3 L-28.55 -28.3 -28.55 -29.05 29.25 -29.05 29.25 -28.3 M31.85 19.1 L-32.0 19.1 -32.0 17.6 31.85 17.6 31.85 19.1 M28.75 24.8 L-28.8 24.8 -28.8 23.8 28.75 23.8 28.75 24.8 M31.95 77.1 L31.95 80.5 -31.9 80.5 -31.9 77.1 31.95 77.1" fill="#000000" fill-opacity="0.29803923" fill-rule="evenodd" stroke="none"/>
    <path d="M-6.4 -52.65 L-6.4 -48.6 -11.8 -48.6 -11.8 -52.65 -6.4 -52.65 M5.5 -48.6 L5.5 -52.65 10.9 -52.65 10.9 -48.6 5.5 -48.6 M-18.65 -41.45 L-18.65 -46.8 -14.8 -46.8 -14.8 -40.6 -18.65 -40.6 -18.65 -41.45" fill="#000000" fill-opacity="0.09803922" fill-rule="evenodd" stroke="none"/>
    <path d="M-4.15 -37.95 L-4.15 -36.1 -32.15 -36.1 -29.05 -41.45 -18.65 -41.45 -18.65 -40.6 -14.8 -40.6 -14.8 -37.95 -4.15 -37.95 M3.1 -36.1 L3.1 -37.95 13.95 -37.95 13.95 -41.45 25.75 -41.45 32.2 -36.1 3.1 -36.1 M31.95 77.1 L-31.9 77.1 -31.9 73.5 31.95 73.5 31.95 77.1" fill="#ffffff" fill-opacity="0.4" fill-rule="evenodd" stroke="none"/>
    <path d="M1.15 -58.15 Q1.15 -57.5 0.7 -57.05 0.2 -56.55 -0.45 -56.55 -1.1 -56.55 -1.55 -57.05 -2.0 -57.5 -2.0 -58.15 -2.0 -58.8 -1.55 -59.3 -1.1 -59.75 -0.45 -59.75 0.25 -59.75 0.7 -59.3 L1.15 -58.15 M8.9 -39.45 L5.2 -39.45 5.2 -44.4 8.9 -44.4 8.9 -39.45" fill="#000000" fill-opacity="0.49803922" fill-rule="evenodd" stroke="none"/>
    <path d="M13.95 -41.45 L25.75 -41.45 32.2 -36.1 32.2 80.7 -32.15 80.7 -32.15 -36.1 -29.05 -41.45 -18.65 -41.45 -18.65 -46.8 -14.8 -46.8 -14.8 -80.65 13.95 -80.65 13.95 -41.45 13.95 -37.95 3.1 -37.95 M3.1 -36.1 L32.2 -36.1 M-14.8 -40.6 L-18.65 -40.6 -18.65 -41.45 M-4.15 -37.95 L-14.8 -37.95 -14.8 -40.6 -14.8 -46.8 M-32.15 -36.1 L-4.15 -36.1" fill="none" stroke="#000000" stroke-linecap="butt" stroke-linejoin="miter-clip" stroke-miterlimit="4.0" stroke-width="1.0"/>
    <path d="M5.5 -52.65 L5.5 -54.6 -6.4 -54.6 -6.4 -52.65 -6.4 -48.6 -6.4 -46.4 -4.15 -46.4 -4.15 -37.95 -4.15 -36.1 -4.15 -29.8 3.1 -29.8 3.1 -36.1 3.1 -37.95 3.1 -46.4 5.5 -46.4 5.5 -48.6 5.5 -52.65 10.9 -52.65 10.9 -48.6 5.5 -48.6 M-6.4 -48.6 L-11.8 -48.6 -11.8 -52.65 -6.4 -52.65" fill="none" stroke="#000000" stroke-linecap="butt" stroke-linejoin="miter-clip" stroke-miterlimit="4.0" stroke-opacity="0.6" stroke-width="1.0"/>
  </g>
</svg>
