<?xml version="1.0" encoding="UTF-8" standalone="no"?>
<svg xmlns:xlink="http://www.w3.org/1999/xlink" height="7.75px" width="138.75px" xmlns="http://www.w3.org/2000/svg">
  <g transform="matrix(1.0, 0.0, 0.0, 1.0, 69.4, 3.9)">
    <path d="M-65.35 -2.55 L-62.6 -2.55 -62.6 2.05 -60.5 2.05 -60.5 3.25 -68.9 3.25 -68.9 2.05 -68.8 2.05 -68.8 -2.55 -66.0 -2.55 -66.0 2.05 -65.35 2.05 -65.35 -2.55 M68.85 3.35 L-25.15 3.35 -24.4 -3.4 68.85 -3.4 68.85 3.35" fill="#000000" fill-opacity="0.49803922" fill-rule="evenodd" stroke="none"/>
    <path d="M-65.35 -2.55 L-65.35 2.05 -66.0 2.05 -66.0 -2.55 -68.8 -2.55 -68.8 2.05 -68.9 2.05 -68.9 3.25 -60.5 3.25 -60.5 2.05 -62.6 2.05 -62.6 -2.55 -65.35 -2.55 M68.85 3.35 L-25.15 3.35 -24.4 -3.4 68.85 -3.4 68.85 3.35" fill="none" stroke="#000000" stroke-linecap="butt" stroke-linejoin="miter-clip" stroke-miterlimit="4.0" stroke-width="1.0"/>
    <path d="M67.75 -2.15 L67.25 -2.0 -23.55 -2.0 -24.05 -2.15 -24.2 -2.45 -24.05 -2.8 -23.55 -2.9 67.25 -2.9 67.75 -2.8 67.95 -2.45 Q67.95 -2.25 67.75 -2.15" fill="#ffffff" fill-rule="evenodd" stroke="none"/>
  </g>
</svg>
