<?xml version="1.0" encoding="UTF-8" standalone="no"?>
<svg xmlns:xlink="http://www.w3.org/1999/xlink" height="254.05px" width="278.95px" xmlns="http://www.w3.org/2000/svg">
  <g transform="matrix(1.0, 0.0, 0.0, 1.0, 139.45, 127.05)">
    <path d="M138.45 112.9 L138.5 113.0 138.7 113.2 138.45 113.0 138.45 112.9 M126.7 126.15 L126.6 126.05 126.65 126.0 126.7 126.15" fill="#ffffff" fill-rule="evenodd" stroke="none"/>
    <path d="M-132.1 -125.1 L-132.85 -124.25 -132.9 -124.25 -132.1 -125.1" fill="#e2e3e4" fill-rule="evenodd" stroke="none"/>
    <path d="M-132.85 -124.25 L-104.85 -98.95 -105.95 -98.1 Q-110.3 -94.6 -112.4 -89.45 L-107.85 -85.35 Q-106.8 -88.6 -104.2 -91.4 -102.5 -93.25 -100.25 -94.8 L-46.7 -46.5 -47.8 -45.65 Q-52.15 -42.15 -54.25 -37.0 L-49.75 -32.9 Q-47.85 -38.5 -42.1 -42.35 L100.35 86.2 Q95.35 89.9 93.05 95.95 L-137.05 -111.65 Q-138.65 -113.15 -138.9 -115.25 -139.1 -117.35 -137.75 -118.8 L-132.85 -124.25 M126.6 126.05 L126.15 125.6 125.15 124.9 97.6 100.05 Q98.55 96.8 101.0 93.95 102.65 92.0 104.95 90.35 L109.0 94.0 108.0 94.85 Q103.85 98.55 101.95 103.95 L108.6 109.95 Q109.5 106.75 111.95 103.85 113.65 101.9 115.9 100.25 L132.45 115.15 130.15 117.4 Q127.7 120.1 126.7 122.65 125.75 125.05 126.6 126.05 M-125.15 -103.9 Q-126.65 -104.95 -126.9 -104.7 -127.15 -104.45 -125.95 -103.05 L-122.85 -99.95 -119.45 -97.2 Q-118.0 -96.2 -117.75 -96.45 -117.5 -96.7 -118.7 -98.05 L-121.75 -101.15 -125.15 -103.9 M-11.0 -1.2 L-14.35 -3.95 Q-15.85 -5.0 -16.1 -4.75 -16.3 -4.5 -15.15 -3.1 L-12.1 0.0 -8.7 2.75 Q-7.15 3.75 -6.95 3.5 -6.7 3.25 -7.9 1.9 -9.1 0.45 -11.0 -1.2 M83.8 86.15 Q85.3 87.2 85.5 86.95 85.75 86.7 84.55 85.35 L81.5 82.25 Q76.95 78.1 76.35 78.7 76.15 78.95 77.3 80.35 L80.4 83.45 83.8 86.15 M61.9 66.75 L65.3 69.5 Q66.75 70.5 67.0 70.25 67.25 70.05 66.05 68.65 L63.0 65.55 Q61.1 63.8 59.6 62.8 58.1 61.75 57.85 62.0 57.6 62.25 58.8 63.65 60.0 65.1 61.9 66.75 M22.65 29.4 Q21.1 28.4 20.9 28.65 20.7 28.9 21.85 30.3 L24.9 33.4 Q29.5 37.45 30.05 36.9 30.3 36.65 29.1 35.25 L26.0 32.15 22.65 29.4 M2.4 11.95 Q2.2 12.2 3.35 13.6 L6.4 16.7 9.8 19.4 Q11.35 20.45 11.55 20.2 11.8 19.95 10.6 18.55 L7.5 15.45 4.15 12.7 Q2.6 11.7 2.4 11.95 M44.5 48.85 L41.1 46.1 Q39.65 45.1 39.4 45.35 39.15 45.55 40.35 46.95 L43.4 50.05 46.8 52.8 Q48.25 53.85 48.5 53.6 48.75 53.35 47.6 51.95 L44.5 48.85" fill="#ffffff" fill-opacity="0.0" fill-rule="evenodd" stroke="none"/>
    <path d="M-132.1 -125.1 Q-130.8 -126.55 -128.65 -126.55 -126.55 -126.55 -124.9 -125.05 L-98.85 -101.6 -99.2 -101.85 Q-102.2 -100.8 -104.85 -98.95 L-132.85 -124.25 -132.1 -125.1 M-94.7 -97.8 L-41.05 -49.4 Q-44.1 -48.35 -46.7 -46.5 L-100.25 -94.8 Q-97.8 -96.45 -94.7 -97.8 M-36.55 -45.35 L114.35 90.8 Q111.45 92.0 109.0 94.0 L104.95 90.35 Q107.35 88.6 110.4 87.25 L105.9 83.2 Q102.8 84.4 100.35 86.2 L-42.1 -42.35 Q-39.7 -44.0 -36.55 -45.35 M121.4 97.15 L137.25 111.45 137.95 112.2 138.1 112.4 138.4 112.9 138.45 112.9 138.45 113.0 138.7 113.2 Q135.95 120.5 126.65 126.0 L126.6 126.05 Q125.75 125.05 126.7 122.65 127.7 120.1 130.15 117.4 L132.45 115.15 Q133.75 114.05 135.05 113.4 137.4 112.15 138.4 112.9 137.4 112.15 135.05 113.4 133.75 114.05 132.45 115.15 L115.9 100.25 Q118.3 98.5 121.4 97.15" fill="#000000" fill-opacity="0.101960786" fill-rule="evenodd" stroke="none"/>
    <path d="M-104.85 -98.95 Q-102.2 -100.8 -99.2 -101.85 L-98.85 -101.6 -94.7 -97.8 Q-97.8 -96.45 -100.25 -94.8 -102.5 -93.25 -104.2 -91.4 -106.8 -88.6 -107.85 -85.35 L-112.4 -89.45 Q-110.3 -94.6 -105.95 -98.1 L-104.85 -98.95 M-41.05 -49.4 L-36.55 -45.35 Q-39.7 -44.0 -42.1 -42.35 -47.85 -38.5 -49.75 -32.9 L-54.25 -37.0 Q-52.15 -42.15 -47.8 -45.65 L-46.7 -46.5 Q-44.1 -48.35 -41.05 -49.4 M114.35 90.8 L121.4 97.15 Q118.3 98.5 115.9 100.25 113.65 101.9 111.95 103.85 109.5 106.75 108.6 109.95 L101.95 103.95 Q103.85 98.55 108.0 94.85 L109.0 94.0 Q111.45 92.0 114.35 90.8 M97.6 100.05 L93.05 95.95 Q95.35 89.9 100.35 86.2 102.8 84.4 105.9 83.2 L110.4 87.25 Q107.35 88.6 104.95 90.35 102.65 92.0 101.0 93.95 98.55 96.8 97.6 100.05 M-125.15 -103.9 L-121.75 -101.15 -118.7 -98.05 Q-117.5 -96.7 -117.75 -96.45 -118.0 -96.2 -119.45 -97.2 L-122.85 -99.95 -125.95 -103.05 Q-127.15 -104.45 -126.9 -104.7 -126.65 -104.95 -125.15 -103.9 M-11.0 -1.2 Q-9.1 0.45 -7.9 1.9 -6.7 3.25 -6.95 3.5 -7.15 3.75 -8.7 2.75 L-12.1 0.0 -15.15 -3.1 Q-16.3 -4.5 -16.1 -4.75 -15.85 -5.0 -14.35 -3.95 L-11.0 -1.2 M83.8 86.15 L80.4 83.45 77.3 80.35 Q76.15 78.95 76.35 78.7 76.95 78.1 81.5 82.25 L84.55 85.35 Q85.75 86.7 85.5 86.95 85.3 87.2 83.8 86.15 M44.5 48.85 L47.6 51.95 Q48.75 53.35 48.5 53.6 48.25 53.85 46.8 52.8 L43.4 50.05 40.35 46.95 Q39.15 45.55 39.4 45.35 39.65 45.1 41.1 46.1 L44.5 48.85 M2.4 11.95 Q2.6 11.7 4.15 12.7 L7.5 15.45 10.6 18.55 Q11.8 19.95 11.55 20.2 11.35 20.45 9.8 19.4 L6.4 16.7 3.35 13.6 Q2.2 12.2 2.4 11.95 M22.65 29.4 L26.0 32.15 29.1 35.25 Q30.3 36.65 30.05 36.9 29.5 37.45 24.9 33.4 L21.85 30.3 Q20.7 28.9 20.9 28.65 21.1 28.4 22.65 29.4 M61.9 66.75 Q60.0 65.1 58.8 63.65 57.6 62.25 57.85 62.0 58.1 61.75 59.6 62.8 61.1 63.8 63.0 65.55 L66.05 68.65 Q67.25 70.05 67.0 70.25 66.75 70.5 65.3 69.5 L61.9 66.75" fill="#000000" fill-opacity="0.2" fill-rule="evenodd" stroke="none"/>
    <path d="M138.7 113.2 Q139.4 114.2 138.5 116.5 137.5 119.05 135.05 121.75 132.6 124.5 130.15 125.75 127.7 127.05 126.7 126.15 L126.65 126.0 Q135.95 120.5 138.7 113.2" fill="#000000" fill-opacity="0.3019608" fill-rule="evenodd" stroke="none"/>
    <path d="M-98.85 -101.6 L-124.9 -125.05 Q-126.55 -126.55 -128.65 -126.55 -130.8 -126.55 -132.1 -125.1 L-132.85 -124.25 -137.75 -118.8 Q-139.1 -117.35 -138.9 -115.25 -138.65 -113.15 -137.05 -111.65 L93.05 95.95 97.6 100.05 125.15 124.9 126.15 125.6 126.6 126.05 126.7 126.15 Q127.7 127.05 130.15 125.75 132.6 124.5 135.05 121.75 137.5 119.05 138.5 116.5 139.4 114.2 138.7 113.2 L138.45 113.0 138.45 112.9 138.4 112.9 138.1 112.4 138.45 112.9 138.5 113.0 138.7 113.2 M-99.2 -101.85 L-98.85 -101.6 -94.7 -97.8 -41.05 -49.4 -36.55 -45.35 114.35 90.8 121.4 97.15 137.25 111.45 137.95 112.2 138.1 112.4 M-107.85 -85.35 L-112.4 -89.45 M-49.75 -32.9 L-54.25 -37.0 M105.9 83.2 L110.4 87.25 M101.95 103.95 L108.6 109.95" fill="none" stroke="#231f20" stroke-linecap="round" stroke-linejoin="round" stroke-width="1.0"/>
    <path d="M-125.15 -103.9 L-121.75 -101.15 -118.7 -98.05 Q-117.5 -96.7 -117.75 -96.45 -118.0 -96.2 -119.45 -97.2 L-122.85 -99.95 -125.95 -103.05 Q-127.15 -104.45 -126.9 -104.7 -126.65 -104.95 -125.15 -103.9 M-11.0 -1.2 Q-9.1 0.45 -7.9 1.9 -6.7 3.25 -6.95 3.5 -7.15 3.75 -8.7 2.75 L-12.1 0.0 -15.15 -3.1 Q-16.3 -4.5 -16.1 -4.75 -15.85 -5.0 -14.35 -3.95 L-11.0 -1.2 M83.8 86.15 L80.4 83.45 77.3 80.35 Q76.15 78.95 76.35 78.7 76.95 78.1 81.5 82.25 L84.55 85.35 Q85.75 86.7 85.5 86.95 85.3 87.2 83.8 86.15 M44.5 48.85 L47.6 51.95 Q48.75 53.35 48.5 53.6 48.25 53.85 46.8 52.8 L43.4 50.05 40.35 46.95 Q39.15 45.55 39.4 45.35 39.65 45.1 41.1 46.1 L44.5 48.85 M2.4 11.95 Q2.6 11.7 4.15 12.7 L7.5 15.45 10.6 18.55 Q11.8 19.95 11.55 20.2 11.35 20.45 9.8 19.4 L6.4 16.7 3.35 13.6 Q2.2 12.2 2.4 11.95 M22.65 29.4 L26.0 32.15 29.1 35.25 Q30.3 36.65 30.05 36.9 29.5 37.45 24.9 33.4 L21.85 30.3 Q20.7 28.9 20.9 28.65 21.1 28.4 22.65 29.4 M61.9 66.75 Q60.0 65.1 58.8 63.65 57.6 62.25 57.85 62.0 58.1 61.75 59.6 62.8 61.1 63.8 63.0 65.55 L66.05 68.65 Q67.25 70.05 67.0 70.25 66.75 70.5 65.3 69.5 L61.9 66.75 M126.6 126.05 L126.65 126.0 Q135.95 120.5 138.7 113.2" fill="none" stroke="#000000" stroke-linecap="round" stroke-linejoin="round" stroke-opacity="0.4" stroke-width="1.0"/>
    <path d="M-104.85 -98.95 Q-102.2 -100.8 -99.2 -101.85 M-112.4 -89.45 Q-110.3 -94.6 -105.95 -98.1 L-104.85 -98.95 M-100.25 -94.8 Q-102.5 -93.25 -104.2 -91.4 -106.8 -88.6 -107.85 -85.35 M-94.7 -97.8 Q-97.8 -96.45 -100.25 -94.8 M-46.7 -46.5 Q-44.1 -48.35 -41.05 -49.4 M-42.1 -42.35 Q-47.85 -38.5 -49.75 -32.9 M-54.25 -37.0 Q-52.15 -42.15 -47.8 -45.65 L-46.7 -46.5 M-36.55 -45.35 Q-39.7 -44.0 -42.1 -42.35 M100.35 86.2 Q102.8 84.4 105.9 83.2 M110.4 87.25 Q107.35 88.6 104.95 90.35 102.65 92.0 101.0 93.95 98.55 96.8 97.6 100.05 M109.0 94.0 Q111.45 92.0 114.35 90.8 M93.05 95.95 Q95.35 89.9 100.35 86.2 M109.0 94.0 L108.0 94.85 Q103.85 98.55 101.95 103.95 M108.6 109.95 Q109.5 106.75 111.95 103.85 113.65 101.9 115.9 100.25 118.3 98.5 121.4 97.15 M132.45 115.15 L130.15 117.4 Q127.7 120.1 126.7 122.65 125.75 125.05 126.6 126.05 M138.4 112.9 Q137.4 112.15 135.05 113.4 133.75 114.05 132.45 115.15" fill="none" stroke="#000000" stroke-linecap="round" stroke-linejoin="round" stroke-opacity="0.6" stroke-width="1.0"/>
  </g>
</svg>
