<?xml version="1.0" encoding="UTF-8" standalone="no"?>
<svg xmlns:xlink="http://www.w3.org/1999/xlink" height="32.8px" width="52.1px" xmlns="http://www.w3.org/2000/svg">
  <g transform="matrix(1.0, 0.0, 0.0, 1.0, 26.05, 7.45)">
    <path d="M0.75 -2.3 L0.75 -2.25 0.75 -2.3 M-4.55 11.45 L-4.4 10.8 -4.5 11.45 -4.55 11.45 M3.55 12.75 L3.5 12.65 3.55 12.75" fill="#403e62" fill-rule="evenodd" stroke="none"/>
    <path d="M-6.55 13.8 L-6.35 12.75 -6.3 12.75 -6.1 11.6 -5.9 10.85 -3.85 0.5 -3.4 -1.85 -3.35 -2.0 -3.45 -2.1 Q-4.3 -2.95 -4.3 -4.1 -4.3 -5.3 -3.45 -6.15 -2.65 -7.0 -1.45 -6.95 -0.3 -7.0 0.55 -6.15 1.4 -5.3 1.4 -4.1 1.4 -3.1 0.75 -2.3 L0.75 -2.25 0.5 -2.05 0.45 -2.0 1.6 1.7 2.1 3.4 4.3 10.45 4.65 11.45 4.6 11.5 5.25 13.55 6.8 18.6 11.5 18.6 11.5 21.7 25.55 24.55 11.5 24.65 11.5 24.7 -25.55 24.85 -11.9 21.45 -11.9 18.6 -7.5 18.6 -6.55 13.8 M3.55 12.75 L-0.8 -1.35 -1.95 -1.3 -4.5 11.2 -4.55 11.45 -4.5 11.45 -5.0 13.85 -5.1 14.2 -5.1 14.25 -6.0 18.6 5.35 18.6 3.9 13.95 3.9 13.9 3.85 13.9 3.55 12.75" fill="#ffffff" fill-opacity="0.0" fill-rule="evenodd" stroke="none"/>
    <path d="M-6.55 13.8 L-6.35 12.75 -6.3 12.75 -6.1 11.6 -5.9 10.85 -3.85 0.5 -3.4 -1.85 -3.35 -2.0 -3.45 -2.1 Q-4.3 -2.95 -4.3 -4.1 -4.3 -5.3 -3.45 -6.15 -2.65 -7.0 -1.45 -6.95 -0.3 -7.0 0.55 -6.15 1.4 -5.3 1.4 -4.1 1.4 -3.1 0.75 -2.3 L0.75 -2.25 0.5 -2.05 0.45 -2.0 1.6 1.7 2.1 3.4 4.3 10.45 4.65 11.45 4.6 11.5 5.25 13.55 M3.55 12.75 L-0.8 -1.35 -1.95 -1.3 -4.5 11.2 -4.55 11.45 -4.4 10.8 -4.5 11.45 -5.0 13.85 M3.9 13.9 L3.85 13.9 3.55 12.75 3.5 12.65 3.55 12.75" fill="none" stroke="#000000" stroke-linecap="round" stroke-linejoin="round" stroke-opacity="0.6" stroke-width="1.0"/>
    <path d="M5.25 13.55 L6.8 18.6 11.5 18.6 11.5 21.7 25.55 24.55 11.5 24.65 11.5 24.7 -25.55 24.85 -11.9 21.45 -11.9 18.6 -7.5 18.6 -6.55 13.8 M-5.0 13.85 L-5.1 14.2 -5.1 14.25 -6.0 18.6 5.35 18.6 3.9 13.95 3.9 13.9" fill="none" stroke="#000000" stroke-linecap="round" stroke-linejoin="round" stroke-width="1.0"/>
  </g>
</svg>
