<?xml version="1.0" encoding="UTF-8" standalone="no"?>
<svg xmlns:xlink="http://www.w3.org/1999/xlink" height="168.2px" width="98.65px" xmlns="http://www.w3.org/2000/svg">
  <g transform="matrix(1.0, 0.0, 0.0, 1.0, 49.6, 57.45)">
    <path d="M7.45 -31.8 L6.55 -32.65 7.05 -32.2 7.45 -31.8" fill="#e3e3e3" fill-rule="evenodd" stroke="none"/>
    <path d="M1.2 -51.0 L1.7 -50.55 1.75 -50.45 1.2 -51.0 M-1.05 -52.4 L-2.25 -52.85 -1.5 -52.6 -1.05 -52.4 M-18.1 18.5 L-18.4 18.2 -18.5 18.1 -18.75 17.85 -18.95 17.65 -18.8 17.8 -18.6 18.0 -18.55 18.05 -18.4 18.2 -18.35 18.25 -18.0 18.6 -18.1 18.5 M-20.5 15.9 L-20.65 15.75 -20.8 15.55 -20.7 15.65 -20.5 15.9 M42.7 66.95 L42.05 64.9 42.1 64.9 42.7 66.95 M39.15 77.4 L39.1 75.9 39.2 77.35 39.15 77.4 M29.7 99.65 L29.6 100.2 29.45 100.25 29.7 99.65 M24.05 96.0 L24.3 95.95 24.85 95.95 24.05 96.0 M42.6 82.2 L42.55 82.2 42.5 82.2 42.6 82.2 M-18.5 18.1 L-18.6 18.0 -18.5 18.1 M-18.75 17.85 L-18.6 18.0 -18.75 17.85" fill="#ffffff" fill-rule="evenodd" stroke="none"/>
    <path d="M3.65 14.6 L3.7 15.05 2.55 14.2 2.95 14.35 3.1 14.4 3.65 14.6 3.1 14.4 3.65 14.6 M42.05 64.9 L42.0 64.65 42.1 64.9 42.05 64.9 M41.85 64.25 L41.35 64.1 43.1 64.45 43.1 64.5 42.7 64.45 41.85 64.25 M-17.15 22.6 L-17.2 22.6 -17.35 21.65 -17.15 22.6" fill="#d1d1d1" fill-rule="evenodd" stroke="none"/>
    <path d="M27.35 89.65 L28.1 91.7 27.7 90.7 27.35 89.65 M29.95 98.95 L29.7 99.65 29.7 99.6 29.95 98.95" fill="#a6a6a6" fill-rule="evenodd" stroke="none"/>
    <path d="M-17.0 19.5 L-18.0 18.65 -18.0 18.6 -17.0 19.5 M-33.95 -34.15 L-34.0 -34.15 -34.0 -34.55 -33.95 -34.15 M-10.2 -18.75 L-9.75 -18.6 -8.65 -18.1 -6.85 -17.2 -6.95 -17.2 -10.2 -18.75" fill="#e6e6e6" fill-rule="evenodd" stroke="none"/>
    <path d="M1.75 -50.45 L1.9 -50.3 Q-2.55 -46.5 -2.1 -42.05 L-2.05 -41.7 -2.4 -42.05 Q-3.45 -38.9 -9.0 -35.8 -16.45 -31.85 -22.7 -34.5 -24.65 -35.35 -26.25 -36.75 L-27.45 -37.95 Q-32.5 -36.25 -34.95 -38.35 L-36.4 -40.75 -36.7 -40.55 Q-36.65 -42.65 -34.9 -44.4 -33.65 -45.65 -31.7 -46.5 L-29.95 -47.15 Q-30.45 -49.35 -29.95 -52.35 L-29.35 -54.95 Q-28.0 -56.35 -26.55 -56.75 L-26.1 -56.85 -25.05 -56.95 Q-23.65 -56.9 -22.15 -56.05 L-21.85 -55.85 -20.9 -55.35 Q-22.9 -53.6 -24.9 -50.65 -28.35 -45.3 -27.1 -40.25 L-25.05 -40.4 Q-22.45 -40.75 -19.85 -41.7 -12.55 -44.45 -7.55 -51.2 L-6.2 -53.1 -2.25 -52.85 -1.05 -52.4 0.6 -51.5 0.7 -51.45 1.2 -51.0 1.75 -50.45 M-35.35 10.05 L-37.4 10.25 Q-33.5 8.15 -33.95 3.65 -35.15 -5.2 -32.7 -11.55 L-30.85 -15.05 -29.95 -16.15 Q-31.1 -18.75 -31.95 -21.85 L-32.55 -24.3 -33.35 -28.5 -33.95 -34.15 Q-31.9 -34.1 -26.55 -30.45 -23.4 -28.95 -21.75 -22.4 L-20.75 -19.6 -20.2 -18.9 Q-18.95 -17.6 -16.25 -18.25 L-12.3 -18.15 Q-5.4 -14.65 0.9 -5.2 4.7 0.45 6.8 5.55 3.5 6.7 0.3 3.65 2.5 8.7 3.45 8.95 -0.4 8.4 -4.3 6.05 L-7.45 3.8 Q-6.3 6.75 -0.55 11.45 L-0.3 11.65 -1.85 11.15 Q-6.95 9.35 -11.4 5.05 L-15.4 0.4 Q-14.55 5.5 -11.25 10.2 L-11.05 10.5 -11.6 10.1 Q-15.85 6.95 -18.95 2.0 L-21.35 -2.65 Q-21.4 0.0 -19.95 7.7 L-19.55 9.85 -20.85 7.55 Q-22.65 3.95 -24.5 -1.7 L-26.5 -8.75 Q-25.9 0.6 -29.45 9.45 -28.85 7.5 -29.85 -1.3 -29.45 5.45 -35.8 9.85 L-36.0 10.1 -35.35 10.05 M39.5 76.95 L39.6 76.85 39.65 76.8 39.7 76.8 39.75 76.75 39.8 76.7 Q40.65 76.1 41.4 76.5 42.55 77.2 41.45 79.7 42.25 79.25 42.95 79.45 L44.05 80.15 44.2 80.8 44.15 81.15 Q43.9 81.95 42.6 82.2 L42.5 82.2 42.55 82.2 Q43.05 82.2 43.55 82.75 44.05 83.4 43.7 83.9 43.25 84.6 41.35 83.9 42.35 85.4 41.15 85.75 39.95 86.05 39.7 84.3 38.8 86.7 37.95 86.2 L37.4 85.6 Q37.2 85.3 37.35 83.35 36.3 84.6 35.25 83.8 34.55 83.2 35.15 82.25 35.7 81.4 36.55 81.05 35.75 81.35 35.1 81.05 34.4 80.7 34.7 79.85 35.0 79.05 35.9 78.9 36.6 78.8 37.2 79.15 36.4 78.6 35.9 77.7 35.2 76.45 36.45 76.1 38.5 75.5 39.1 78.0 39.05 77.7 39.15 77.45 L39.15 77.4 39.2 77.35 39.5 76.95 M37.5 79.3 L37.2 79.15 37.5 79.3 M29.8 96.9 L30.0 97.4 29.95 98.95 29.7 99.6 29.7 99.65 29.45 100.25 29.6 100.2 Q30.35 99.8 31.2 99.9 32.65 100.2 32.6 101.5 32.5 102.85 30.6 103.15 31.25 103.05 31.85 103.75 32.45 104.5 32.05 105.05 31.5 105.9 29.35 105.05 30.25 106.4 29.6 106.95 L29.1 107.15 28.25 107.1 Q27.6 106.75 27.4 105.5 27.05 106.65 26.35 107.3 25.45 108.15 24.8 107.0 24.5 106.5 24.75 104.45 23.55 106.0 22.35 104.9 21.55 104.25 22.25 103.15 22.85 102.2 23.85 101.75 L22.15 101.8 Q21.3 101.4 21.7 100.4 22.05 99.5 23.1 99.35 L24.65 99.6 Q23.65 98.95 23.05 97.9 22.25 96.5 23.7 96.05 L23.8 96.05 24.05 96.0 24.85 95.95 25.0 96.0 25.6 96.25 Q26.2 96.65 26.55 97.7 L26.6 97.9 26.65 97.95 26.7 98.1 26.7 98.25 26.75 98.5 Q26.55 97.5 27.55 96.8 28.55 96.05 29.4 96.55 L29.8 96.9 M24.95 99.75 L24.65 99.6 24.95 99.75" fill="#ffffff" fill-opacity="0.0" fill-rule="evenodd" stroke="none"/>
    <path d="M-36.7 -40.55 L-36.4 -40.75 -34.95 -38.35 Q-32.5 -36.25 -27.45 -37.95 L-26.25 -36.75 Q-24.65 -35.35 -22.7 -34.5 -16.45 -31.85 -9.0 -35.8 -3.45 -38.9 -2.4 -42.05 L-2.05 -41.7 -1.5 -39.65 -0.75 -38.35 Q-2.9 -35.45 -8.0 -31.75 -12.6 -28.45 -13.65 -26.4 -15.45 -22.7 -13.35 -20.3 L-13.3 -20.2 -12.85 -19.8 -12.75 -19.7 -11.4 -19.25 -11.35 -19.2 -10.85 -19.05 -10.2 -18.75 -6.95 -17.2 Q-2.05 -14.5 1.35 -10.05 L2.95 -7.65 3.3 -7.05 Q4.8 -4.4 6.4 -0.25 7.85 3.5 8.4 4.3 11.0 8.0 13.85 5.55 11.6 10.0 8.75 10.0 L6.3 9.1 Q8.1 12.65 12.05 13.55 L11.45 13.9 Q8.7 15.4 5.7 15.05 L3.7 14.6 3.65 14.6 3.1 14.4 2.95 14.35 2.55 14.2 3.7 15.05 5.05 16.1 4.95 16.15 4.35 16.25 4.25 16.3 3.8 16.35 3.75 16.35 3.15 16.4 Q0.55 16.55 -2.35 15.45 L-2.5 15.35 -2.65 15.3 -2.75 15.25 -2.9 15.2 -3.0 15.15 -3.15 15.1 -6.9 12.9 Q-4.65 17.45 -1.7 20.15 -5.35 19.8 -8.15 18.9 -11.15 18.0 -13.2 16.5 L-15.75 13.75 Q-15.35 18.9 -12.6 22.45 L-12.75 22.4 -17.0 19.5 -18.0 18.6 -18.35 18.25 -18.4 18.2 -18.55 18.05 -18.6 18.0 -18.8 17.8 -18.95 17.65 -20.5 15.9 -20.7 15.65 -20.8 15.55 -20.85 15.5 -23.9 11.1 Q-24.65 16.95 -23.2 20.95 -26.75 19.55 -28.5 16.4 L-29.6 13.55 Q-29.85 14.45 -30.6 15.15 L-30.65 15.25 -31.0 15.5 Q-32.1 16.4 -34.0 16.95 -32.95 15.1 -32.7 12.25 L-32.7 9.8 -35.35 10.05 -36.0 10.1 -35.8 9.85 Q-29.45 5.45 -29.85 -1.3 -28.85 7.5 -29.45 9.45 -25.9 0.6 -26.5 -8.75 L-24.5 -1.7 Q-22.65 3.95 -20.85 7.55 L-19.55 9.85 -19.95 7.7 Q-21.4 0.0 -21.35 -2.65 L-18.95 2.0 Q-15.85 6.95 -11.6 10.1 L-11.05 10.5 -11.25 10.2 Q-14.55 5.5 -15.4 0.4 L-11.4 5.05 Q-6.95 9.35 -1.85 11.15 L-0.3 11.65 -0.55 11.45 Q-6.3 6.75 -7.45 3.8 L-4.3 6.05 Q-0.4 8.4 3.45 8.95 2.5 8.7 0.3 3.65 3.5 6.7 6.8 5.55 4.7 0.45 0.9 -5.2 -5.4 -14.65 -12.3 -18.15 L-16.25 -18.25 Q-18.95 -17.6 -20.2 -18.9 L-20.75 -19.6 -21.75 -22.4 Q-23.4 -28.95 -26.55 -30.45 -31.9 -34.1 -33.95 -34.15 L-34.0 -34.55 -34.35 -34.95 -35.95 -37.5 Q-36.55 -38.8 -36.65 -39.95 L-36.7 -40.55" fill="#000000" fill-opacity="0.101960786" fill-rule="evenodd" stroke="none"/>
    <path d="M44.05 80.15 L44.15 79.85 44.6 77.65 42.7 66.95 42.1 64.9 42.0 64.65 41.9 64.4 41.85 64.25 42.7 64.45 43.1 64.5 45.0 64.4 45.15 64.35 45.25 64.35 45.35 64.3 Q49.05 69.15 48.5 77.15 48.25 81.15 47.25 84.2 45.4 89.25 38.95 90.5 36.4 90.8 37.35 85.75 L37.4 85.6 37.95 86.2 Q38.8 86.7 39.7 84.3 39.95 86.05 41.15 85.75 42.35 85.4 41.35 83.9 43.25 84.6 43.7 83.9 44.05 83.4 43.55 82.75 43.05 82.2 42.55 82.2 L42.6 82.2 Q43.9 81.95 44.15 81.15 L44.2 80.8 44.05 80.15 M25.35 80.45 L28.95 81.5 Q33.6 82.8 31.3 87.05 30.0 93.7 33.35 95.1 43.1 104.35 29.3 110.25 L29.3 110.1 29.2 109.85 29.15 109.7 29.15 109.6 28.25 107.1 29.1 107.15 29.6 106.95 Q30.25 106.4 29.35 105.05 31.5 105.9 32.05 105.05 32.45 104.5 31.85 103.75 31.25 103.05 30.6 103.15 32.5 102.85 32.6 101.5 32.65 100.2 31.2 99.9 30.35 99.8 29.6 100.2 L29.7 99.65 29.95 98.95 30.0 97.4 29.8 96.9 Q29.55 95.0 28.55 92.85 L28.5 92.65 28.1 91.7 27.35 89.65 25.35 80.45" fill="#000000" fill-opacity="0.2" fill-rule="evenodd" stroke="none"/>
    <path d="M22.95 -29.2 L23.4 -28.65 M-2.25 -52.85 L-6.2 -53.1 M-6.95 -17.2 Q-2.05 -14.5 1.35 -10.05 L2.95 -7.65 3.3 -7.05 Q4.8 -4.4 6.4 -0.25 7.85 3.5 8.4 4.3 11.0 8.0 13.85 5.55 11.6 10.0 8.75 10.0 L6.3 9.1 Q8.1 12.65 12.05 13.55 L11.45 13.9 Q8.7 15.4 5.7 15.05 L3.7 14.65 M3.7 15.05 L5.05 16.1 4.95 16.15 4.35 16.25 4.25 16.3 3.8 16.35 3.75 16.35 M-30.65 15.25 L-31.0 15.5 Q-32.1 16.4 -34.0 16.95 -32.95 15.1 -32.7 12.25 L-32.7 9.8 -35.35 10.05 -37.4 10.25 Q-33.5 8.15 -33.95 3.65 -35.15 -5.2 -32.7 -11.55 L-30.85 -15.05 -29.95 -16.15 Q-31.1 -18.75 -31.95 -21.85 M5.7 15.05 L3.7 14.6 M41.9 64.4 L41.85 64.25 41.35 64.1 M43.1 64.5 L45.0 64.4 45.15 64.35 45.25 64.35 45.35 64.3 Q49.05 69.15 48.5 77.15 48.25 81.15 47.25 84.2 45.4 89.25 38.95 90.5 36.4 90.8 37.35 85.75 L37.4 85.6 Q37.2 85.3 37.35 83.35 36.3 84.6 35.25 83.8 34.55 83.2 35.15 82.25 35.7 81.4 36.55 81.05 35.75 81.35 35.1 81.05 34.4 80.7 34.7 79.85 35.0 79.05 35.9 78.9 36.6 78.8 37.2 79.15 36.4 78.6 35.9 77.7 35.2 76.45 36.45 76.1 38.5 75.5 39.1 78.0 39.05 77.65 39.15 77.4 L39.2 77.35 39.5 76.95 M37.2 79.15 L37.5 79.3 M39.15 77.45 L39.15 77.4 M28.25 107.1 L29.15 109.6 29.15 109.7 29.2 109.85 29.3 110.1 29.3 110.25 Q43.1 104.35 33.35 95.1 30.0 93.7 31.3 87.05 33.6 82.8 28.95 81.5 L25.35 80.45 M28.25 107.1 Q27.6 106.75 27.4 105.5 27.05 106.65 26.35 107.3 25.45 108.15 24.8 107.0 24.5 106.5 24.75 104.45 23.55 106.0 22.35 104.9 21.55 104.25 22.25 103.15 22.85 102.2 23.85 101.75 L22.15 101.8 Q21.3 101.4 21.7 100.4 22.05 99.5 23.1 99.35 L24.65 99.6 Q23.65 98.95 23.05 97.9 22.25 96.5 23.7 96.05 L23.8 96.05 24.05 96.0 M41.85 64.25 L42.7 64.45 43.1 64.5 M24.65 99.6 L24.95 99.75 M-1.05 -52.4 L-1.5 -52.6 -2.25 -52.85 M-6.95 -17.2 L-10.2 -18.75 -10.85 -19.05 -11.35 -19.2" fill="none" stroke="#000000" stroke-linecap="round" stroke-linejoin="round" stroke-width="1.0"/>
    <path d="M1.2 -51.0 L1.7 -50.55 1.75 -50.45 1.9 -50.3 5.1 -47.8 6.6 -46.5 8.15 -45.15 10.95 -42.5 13.9 -39.55 15.25 -38.1 15.4 -37.9 18.05 -35.0 21.6 -30.85 22.95 -29.2 M1.2 -51.0 L0.7 -51.45 0.6 -51.5 -1.05 -52.4 -2.25 -52.85 M-6.2 -53.1 L-7.55 -51.2 Q-12.55 -44.45 -19.85 -41.7 -22.45 -40.75 -25.05 -40.4 L-27.1 -40.25 Q-28.35 -45.3 -24.9 -50.65 -22.9 -53.6 -20.9 -55.35 L-21.85 -55.85 -22.15 -56.05 Q-23.65 -56.9 -25.05 -56.95 L-26.1 -56.85 -26.55 -56.75 Q-28.0 -56.35 -29.35 -54.95 L-29.95 -52.35 Q-30.45 -49.35 -29.95 -47.15 L-31.7 -46.5 Q-33.65 -45.65 -34.9 -44.4 -36.65 -42.65 -36.7 -40.55 L-36.65 -39.95 Q-36.55 -38.8 -35.95 -37.5 L-34.35 -34.95 -40.15 -32.35 -43.05 -31.05 M-2.05 -41.7 L-2.1 -42.05 Q-2.55 -46.5 1.9 -50.3 M1.75 -50.45 L1.2 -51.0 M7.45 -31.8 L7.05 -32.2 6.55 -32.65 7.45 -31.8 10.75 -28.35 4.7 -23.35 M3.7 14.65 L3.65 14.6 3.7 15.05 2.55 14.2 2.95 14.35 3.1 14.4 3.65 14.6 3.1 14.4 M3.75 16.35 L3.15 16.4 Q0.55 16.55 -2.35 15.45 L-2.5 15.35 -2.65 15.3 -2.75 15.25 -2.9 15.2 -3.0 15.15 -3.15 15.1 -6.9 12.9 Q-4.65 17.45 -1.7 20.15 -5.35 19.8 -8.15 18.9 -11.15 18.0 -13.2 16.5 L-15.75 13.75 Q-15.35 18.9 -12.6 22.45 L-12.75 22.4 -17.0 19.5 -18.0 18.65 -18.1 18.5 -18.4 18.2 -18.5 18.1 -18.6 18.0 -18.8 17.8 -18.95 17.65 -20.5 15.9 -20.7 15.65 -20.8 15.55 -20.85 15.5 -23.9 11.1 Q-24.65 16.95 -23.2 20.95 -26.75 19.55 -28.5 16.4 L-29.6 13.55 Q-29.85 14.45 -30.6 15.15 L-30.65 15.25 M-18.75 17.85 L-18.95 17.65 M-20.65 15.75 L-20.8 15.55 M-31.95 -21.85 L-32.55 -24.3 -33.35 -28.5 -33.95 -34.15 -34.0 -34.55 -34.35 -34.95 M3.7 14.6 L3.65 14.6 M39.5 76.95 L39.6 76.85 39.65 76.8 39.7 76.8 39.75 76.75 39.8 76.7 Q40.65 76.1 41.4 76.5 42.55 77.2 41.45 79.7 42.25 79.25 42.95 79.45 L44.05 80.15 44.15 79.85 44.6 77.65 42.7 66.95 42.05 64.9 42.0 64.65 41.9 64.4 M42.55 82.2 Q43.05 82.2 43.55 82.75 44.05 83.4 43.7 83.9 43.25 84.6 41.35 83.9 42.35 85.4 41.15 85.75 39.95 86.05 39.7 84.3 38.8 86.7 37.95 86.2 L37.4 85.6 M25.35 80.45 L27.35 89.65 28.1 91.7 28.5 92.65 M28.55 92.85 Q29.55 95.0 29.8 96.9 L30.0 97.4 29.95 98.95 29.7 99.65 29.6 100.2 Q30.35 99.8 31.2 99.9 32.65 100.2 32.6 101.5 32.5 102.85 30.6 103.15 31.25 103.05 31.85 103.75 32.45 104.5 32.05 105.05 31.5 105.9 29.35 105.05 30.25 106.4 29.6 106.95 L29.1 107.15 28.25 107.1 M24.85 95.95 L25.0 96.0 25.6 96.25 Q26.2 96.65 26.55 97.7 L26.6 97.9 26.65 97.95 26.7 98.1 26.7 98.25 26.75 98.5 Q26.55 97.5 27.55 96.8 28.55 96.05 29.4 96.55 L29.8 96.9 M24.05 96.0 L24.85 95.95 M42.1 64.9 L42.0 64.65 M42.7 66.95 L42.1 64.9 M44.05 80.15 L44.2 80.8 44.15 81.15 Q43.9 81.95 42.6 82.2 L42.55 82.2 42.5 82.2 42.6 82.2 M29.6 100.2 L29.45 100.25 29.7 99.65 29.7 99.6 M-29.35 -54.95 L-30.0 -54.25 -32.8 -51.25 -36.75 -47.35 -37.65 -46.5 -38.75 -45.5 -40.15 -44.3 -43.75 -41.45 -48.25 -38.75 -49.1 -39.6 M-20.9 -55.35 L-20.1 -54.9 M-11.35 -19.2 L-11.4 -19.25 -12.75 -19.7 -12.85 -19.8 -13.3 -20.2 -13.35 -20.3 Q-15.45 -22.7 -13.65 -26.4 -12.6 -28.45 -8.0 -31.75 -2.9 -35.45 -0.75 -38.35 L-1.5 -39.65 -2.05 -41.7 M-18.4 18.2 L-18.55 18.05 M-18.0 18.6 L-18.35 18.25 -18.4 18.2 M-18.6 18.0 L-18.75 17.85 M-18.0 18.6 L-18.0 18.65 M-17.0 19.5 L-18.0 18.6 M6.55 -32.65 L-0.75 -38.35" fill="none" stroke="#000000" stroke-linecap="round" stroke-linejoin="round" stroke-opacity="0.6" stroke-width="1.0"/>
  </g>
</svg>
