<?xml version="1.0" encoding="UTF-8" standalone="no"?>
<svg xmlns:xlink="http://www.w3.org/1999/xlink" height="59.5px" width="265.4px" xmlns="http://www.w3.org/2000/svg">
  <g transform="matrix(1.0, 0.0, 0.0, 1.0, 253.15, 31.3)">
    <path d="M-172.15 -17.45 Q-169.5 -17.65 -156.55 -21.0 -142.6 -24.2 -133.45 -23.95 -128.45 -23.8 -120.35 -21.1 L-105.0 -15.25 Q-84.0 -7.0 -73.9 -7.45 -67.3 -7.75 -64.05 -9.6 -61.15 -11.2 -61.45 -13.55 -61.75 -15.75 -64.65 -17.5 -67.75 -19.35 -72.15 -19.65 -75.9 -19.9 -79.7 -18.85 -83.75 -17.5 -85.75 -17.05 -92.85 -15.3 -102.6 -20.95 L-95.0 -20.2 Q-92.0 -20.05 -89.55 -21.1 -86.6 -22.35 -81.7 -23.7 -75.9 -25.3 -71.75 -25.75 -66.7 -26.2 -60.95 -25.7 -54.45 -25.15 -52.1 -23.7 -47.1 -20.55 -37.85 -13.45 -29.25 -7.45 -21.3 -5.3 -13.45 -3.2 -7.2 -4.0 L2.65 -5.3 Q11.05 -5.3 12.2 1.25 12.55 3.3 8.6 5.95 4.4 8.65 0.05 8.65 -2.35 8.65 -12.5 5.35 -22.9 1.95 -29.95 1.7 -35.35 1.5 -49.25 4.8 -63.8 8.2 -76.25 8.2 L-78.35 8.05 -80.4 7.75 Q-88.15 7.5 -108.45 12.05 L-132.55 17.35 Q-138.4 18.05 -148.5 15.8 -158.65 13.55 -171.7 8.65 -184.45 3.9 -195.95 0.95 -207.45 -2.0 -227.35 0.8 -216.25 -4.45 -206.2 -6.4 -197.4 -8.15 -188.65 -7.45 -182.15 -6.95 -166.25 -2.4 L-142.55 4.3 Q-136.9 5.7 -129.95 3.7 -123.4 1.8 -120.3 -1.6 -117.0 -5.35 -120.5 -8.25 -124.6 -11.65 -137.35 -12.65 -142.05 -13.05 -149.2 -12.55 L-160.8 -11.9 Q-174.75 -11.9 -187.75 -19.65 L-179.0 -17.6 Q-176.0 -17.1 -172.15 -17.45" fill="url(#gradient0)" fill-rule="evenodd" stroke="none"/>
    <path d="M-193.95 7.7 L-198.55 7.6 Q-200.2 7.75 -206.55 9.95 L-216.1 13.6 Q-219.8 15.0 -226.05 15.9 -233.1 16.95 -238.75 15.75 -243.35 14.75 -253.15 7.8 -247.8 9.3 -244.55 9.55 -241.0 9.85 -238.1 8.85 -234.6 7.7 -228.65 6.5 -221.75 5.15 -216.9 4.85 L-204.15 5.35 Q-196.7 6.15 -193.95 7.7" fill="url(#gradient1)" fill-rule="evenodd" stroke="none"/>
    <path d="M-158.2 20.75 Q-150.65 21.65 -145.05 18.95 -152.85 26.6 -162.9 28.1 -165.95 28.55 -172.1 26.9 -178.9 25.05 -187.25 25.95 -179.0 18.3 -169.4 18.95 -166.15 19.2 -158.2 20.75" fill="url(#gradient2)" fill-rule="evenodd" stroke="none"/>
    <path d="M-235.85 -11.55 Q-242.35 -14.3 -250.8 -14.45 -241.6 -20.95 -232.15 -19.1 -229.0 -18.45 -221.3 -15.85 -213.95 -14.0 -208.0 -15.95 -216.8 -9.4 -226.9 -9.2 -230.0 -9.1 -235.85 -11.55" fill="url(#gradient3)" fill-rule="evenodd" stroke="none"/>
    <path d="M-214.75 -28.65 L-206.55 -30.0 -196.45 -30.4 Q-191.45 -30.05 -185.75 -28.6 -179.5 -27.05 -177.35 -25.2 L-181.2 -25.8 -188.2 -24.3 -196.6 -21.65 Q-199.85 -20.65 -205.15 -20.4 -211.25 -20.1 -215.9 -21.9 -219.7 -23.4 -227.35 -31.3 -222.95 -29.25 -220.25 -28.65 -217.3 -28.0 -214.75 -28.65" fill="url(#gradient4)" fill-rule="evenodd" stroke="none"/>
  </g>
  <defs>
    <linearGradient gradientTransform="matrix(0.1145, 0.0011, -2.0E-4, 0.0269, -95.7, -4.2)" gradientUnits="userSpaceOnUse" id="gradient0" spreadMethod="pad" x1="-819.2" x2="819.2">
      <stop offset="0.0" stop-color="#d62714" stop-opacity="0.8"/>
      <stop offset="0.5254901960784314" stop-color="#fd6906" stop-opacity="0.8"/>
      <stop offset="1.0" stop-color="#fdad06" stop-opacity="0.8"/>
    </linearGradient>
    <linearGradient gradientTransform="matrix(0.0229, -0.0026, 8.0E-4, 0.0068, -223.6, 10.05)" gradientUnits="userSpaceOnUse" id="gradient1" spreadMethod="pad" x1="-819.2" x2="819.2">
      <stop offset="0.0" stop-color="#d62714" stop-opacity="0.8"/>
      <stop offset="0.5254901960784314" stop-color="#fd6906" stop-opacity="0.8"/>
      <stop offset="1.0" stop-color="#fdad06" stop-opacity="0.8"/>
    </linearGradient>
    <linearGradient gradientTransform="matrix(0.0159, -4.0E-4, 2.0E-4, 0.0058, -166.2, 23.5)" gradientUnits="userSpaceOnUse" id="gradient2" spreadMethod="pad" x1="-819.2" x2="819.2">
      <stop offset="0.0" stop-color="#d62714" stop-opacity="0.8"/>
      <stop offset="0.5254901960784314" stop-color="#fd6906" stop-opacity="0.8"/>
      <stop offset="1.0" stop-color="#fdad06" stop-opacity="0.8"/>
    </linearGradient>
    <linearGradient gradientTransform="matrix(0.0186, 0.0016, -5.0E-4, 0.0058, -228.9, -14.1)" gradientUnits="userSpaceOnUse" id="gradient3" spreadMethod="pad" x1="-819.2" x2="819.2">
      <stop offset="0.0" stop-color="#d62714" stop-opacity="0.8"/>
      <stop offset="0.5254901960784314" stop-color="#fd6906" stop-opacity="0.8"/>
      <stop offset="1.0" stop-color="#fdad06" stop-opacity="0.8"/>
    </linearGradient>
    <linearGradient gradientTransform="matrix(0.0205, -5.0E-4, 2.0E-4, 0.007, -201.55, -26.2)" gradientUnits="userSpaceOnUse" id="gradient4" spreadMethod="pad" x1="-819.2" x2="819.2">
      <stop offset="0.0" stop-color="#d62714" stop-opacity="0.8"/>
      <stop offset="0.5254901960784314" stop-color="#fd6906" stop-opacity="0.8"/>
      <stop offset="1.0" stop-color="#fdad06" stop-opacity="0.8"/>
    </linearGradient>
  </defs>
</svg>
