<?xml version="1.0" encoding="UTF-8" standalone="no"?>
<svg xmlns:xlink="http://www.w3.org/1999/xlink" height="85.3px" width="393.0px" xmlns="http://www.w3.org/2000/svg">
  <g transform="matrix(1.0, 0.0, 0.0, 1.0, 196.5, -5.85)">
    <path d="M-27.35 29.65 L-27.2 29.35 -27.3 29.65 -27.35 29.65" fill="#dedede" fill-rule="evenodd" stroke="none"/>
    <path d="M72.05 5.9 L72.0 6.25 72.05 5.9" fill="#bfbfbf" fill-rule="evenodd" stroke="none"/>
    <path d="M192.45 18.85 L192.45 37.55 189.1 37.35 52.25 37.35 52.25 18.85 192.45 18.85 M192.45 58.15 L192.45 73.05 52.25 73.05 52.25 58.35 189.1 58.35 192.45 58.15 M192.45 76.05 L196.0 76.05 196.0 90.65 43.35 90.65 43.35 89.95 -82.0 89.95 -82.0 90.65 -196.0 90.65 -196.0 76.05 -189.3 76.05 -84.65 76.05 -82.0 76.05 -82.0 79.55 -75.65 79.55 43.35 79.55 43.35 77.4 43.35 76.05 43.35 77.4 -75.65 77.4 -75.65 66.85 44.3 66.75 44.3 76.05 52.25 76.05 192.45 76.05 M-189.3 73.05 L-189.3 58.35 -87.15 58.35 -84.65 58.15 -84.65 73.05 -189.3 73.05 M-189.3 37.35 L-189.3 18.85 -84.65 18.85 -84.65 37.55 -87.15 37.35 -189.3 37.35 M-189.3 13.0 L-196.0 13.0 -196.0 6.35 -82.1 6.35 -82.1 13.0 -84.65 13.0 -189.3 13.0 M-75.65 51.85 L-75.65 38.6 44.3 38.6 44.3 52.0 41.4 51.85 -75.65 51.85 M-75.65 34.45 L-83.3 34.45 -83.3 29.65 -27.35 29.65 -27.3 29.65 27.15 29.65 27.2 29.65 47.35 29.65 47.35 34.45 44.3 34.45 -75.65 34.45 M52.25 13.0 L43.35 13.0 43.35 6.35 56.35 6.35 102.7 6.35 196.0 6.35 196.0 13.0 192.45 13.0 52.25 13.0 M43.35 89.95 L43.35 79.55 43.35 89.95 M43.35 76.05 L44.3 76.05 43.35 76.05 M-82.0 89.95 L-82.0 79.55 -82.0 89.95" fill="#ffffff" fill-opacity="0.0" fill-rule="evenodd" stroke="none"/>
    <path d="M192.45 37.55 L192.45 58.15 189.1 58.35 52.25 58.35 52.25 37.35 189.1 37.35 192.45 37.55 M192.45 73.05 L192.45 76.05 52.25 76.05 52.25 73.05 192.45 73.05 M-189.3 76.05 L-189.3 73.05 -84.65 73.05 -84.65 76.05 -189.3 76.05 M-189.3 58.35 L-189.3 37.35 -87.15 37.35 -84.65 37.55 -84.65 58.15 -87.15 58.35 -189.3 58.35 M-75.65 79.55 L-75.65 77.4 43.35 77.4 43.35 79.55 -75.65 79.55 M-75.65 66.85 L-75.65 51.85 41.4 51.85 44.3 52.0 44.3 66.75 -75.65 66.85" fill="#000000" fill-opacity="0.101960786" fill-rule="evenodd" stroke="none"/>
    <path d="M-189.3 18.85 L-189.3 13.0 -84.65 13.0 -84.65 18.85 -189.3 18.85 M-75.65 38.6 L-75.65 34.45 44.3 34.45 44.3 38.6 -75.65 38.6 M52.25 18.85 L52.25 13.0 192.45 13.0 192.45 18.85 52.25 18.85" fill="#000000" fill-opacity="0.2" fill-rule="evenodd" stroke="none"/>
    <path d="M192.45 18.85 L192.45 37.55 192.45 58.15 192.45 73.05 192.45 76.05 196.0 76.05 196.0 90.65 43.35 90.65 43.35 89.95 -82.0 89.95 -82.0 90.65 -196.0 90.65 -196.0 76.05 -189.3 76.05 -189.3 73.05 -189.3 58.35 -189.3 37.35 -189.3 18.85 -189.3 13.0 -196.0 13.0 -196.0 6.35 -82.1 6.35 -82.1 13.0 -84.65 13.0 -84.65 18.85 -84.65 37.55 -84.65 58.15 -84.65 73.05 -84.65 76.05 -82.0 76.05 -82.0 79.55 -75.65 79.55 -75.65 77.4 -75.65 66.85 -75.65 51.85 -75.65 38.6 -75.65 34.45 -83.3 34.45 -83.3 29.65 -27.35 29.65 M-27.3 29.65 L27.15 29.65 M27.2 29.65 L47.35 29.65 47.35 34.45 44.3 34.45 44.3 38.6 44.3 52.0 44.3 66.75 44.3 76.05 52.25 76.05 52.25 73.05 52.25 58.35 52.25 37.35 52.25 18.85 52.25 13.0 43.35 13.0 43.35 6.35 56.35 6.35 M102.7 6.35 L196.0 6.35 196.0 13.0 192.45 13.0 192.45 18.85 M43.35 77.4 L43.35 79.55 M44.3 76.05 L43.35 76.05" fill="none" stroke="#000000" stroke-linecap="round" stroke-linejoin="round" stroke-width="1.0"/>
    <path d="M56.35 6.35 L102.7 6.35" fill="none" stroke="#000000" stroke-linecap="round" stroke-linejoin="round" stroke-opacity="0.6" stroke-width="1.0"/>
    <path d="M43.35 76.05 L43.35 77.4 M43.35 79.55 L43.35 89.95 M192.45 13.0 L52.25 13.0 M192.45 76.05 L52.25 76.05 M-82.0 79.55 L-82.0 89.95 M-189.3 13.0 L-84.65 13.0 M-189.3 76.05 L-84.65 76.05 M44.3 34.45 L-75.65 34.45 M-75.65 79.55 L43.35 79.55" fill="none" stroke="#000000" stroke-linecap="round" stroke-linejoin="round" stroke-opacity="0.6" stroke-width="1.0"/>
  </g>
</svg>
