<?xml version="1.0" encoding="UTF-8" standalone="no"?>
<svg xmlns:xlink="http://www.w3.org/1999/xlink" height="106.55px" width="528.05px" xmlns="http://www.w3.org/2000/svg">
  <g transform="matrix(1.0, 0.0, 0.0, 1.0, 264.0, -0.95)">
    <path d="M106.45 18.0 L107.1 18.35 106.45 18.35 106.45 18.0 M-11.45 94.1 L-10.75 94.1 -10.75 94.55 -11.45 94.1 M-154.3 18.1 L-153.75 18.4 -154.3 18.4 -154.3 18.1" fill="#bfbfbf" fill-rule="evenodd" stroke="none"/>
    <path d="M201.35 18.0 L250.15 18.0 250.15 18.05 201.45 18.05 201.35 18.0 M250.0 58.05 L250.15 58.0 250.15 87.3 250.05 87.3 250.0 87.3 250.0 58.05 M250.15 57.95 L201.35 57.95 201.35 57.85 250.15 57.85 250.15 57.95 M106.45 18.35 L106.0 18.35 106.0 18.0 106.45 18.0 106.45 18.35 M-154.3 18.4 L-154.8 18.4 -154.8 18.1 -154.3 18.1 -154.3 18.4 M-227.45 1.45 L-227.5 1.75 -227.5 1.45 -227.45 1.45" fill="#ffffff" fill-rule="evenodd" stroke="none"/>
    <path d="M260.3 14.0 L260.3 11.45 -0.4 11.45 -0.4 14.0 260.3 14.0 M250.15 47.45 L250.15 18.05 250.15 18.0 201.35 18.0 201.35 47.45 250.15 47.45 M250.15 58.0 L250.5 57.95 250.15 57.95 250.15 57.85 201.35 57.85 201.35 57.95 200.9 57.95 201.35 58.15 201.35 87.3 250.15 87.3 250.15 58.0 M250.05 87.3 L250.15 87.3 250.05 87.3 M189.85 18.35 L189.85 18.0 106.45 18.0 106.0 18.0 106.0 18.35 106.0 94.0 106.45 94.0 189.85 94.0 189.85 18.35 M191.0 7.4 L263.55 7.4 263.55 106.9 2.75 106.9 -2.7 106.9 -263.5 107.0 -263.5 7.45 -204.75 7.45 -2.7 7.4 191.0 7.4 M260.75 102.75 L260.75 97.25 0.05 97.25 0.05 102.75 260.75 102.75 M91.25 18.0 L7.45 18.0 7.45 60.35 91.25 60.35 91.25 18.0 M7.45 93.55 L91.25 93.55 91.25 63.55 11.35 63.55 7.45 63.55 7.45 93.55 M-2.7 7.4 L-2.7 11.5 -2.7 7.4 M-2.7 14.1 L-2.7 11.5 -261.2 11.5 -261.2 14.1 -2.7 14.1 -2.7 97.3 -2.7 14.1 M-2.7 102.85 L-2.7 97.3 -260.7 97.3 -260.7 102.85 -2.7 102.85 -2.7 106.9 -2.7 102.85 M-10.6 18.5 L-10.6 18.1 -59.45 18.1 -59.45 18.75 -59.45 94.1 -11.45 94.1 -10.75 94.55 -10.75 94.1 -10.6 94.1 -10.6 18.5 M-70.95 18.4 L-70.95 18.1 -154.3 18.1 -154.8 18.1 -154.8 18.4 -154.8 94.1 -154.3 94.1 -70.95 94.1 -70.95 18.4 M-169.5 18.1 L-253.35 18.1 -253.35 60.45 -169.5 60.45 -169.5 18.1 M-253.35 93.65 L-169.5 93.65 -169.5 63.7 -245.9 63.7 -253.35 63.7 -253.35 93.65" fill="#ffffff" fill-opacity="0.0" fill-rule="evenodd" stroke="none"/>
    <path d="M243.95 19.45 L241.25 20.05 241.25 45.35 250.0 47.45 250.05 47.45 250.15 47.45 201.35 47.45 201.35 18.0 201.45 18.05 205.0 19.7 243.95 19.45 M201.35 58.15 L205.0 59.6 244.05 59.35 241.25 59.95 241.25 85.25 250.0 87.3 250.05 87.3 250.15 87.3 201.35 87.3 201.35 58.15 M114.75 21.95 L182.95 22.55 189.85 18.35 189.85 94.0 106.45 94.0 115.25 88.2 114.75 21.95 M16.2 20.75 L84.35 21.2 91.25 18.0 91.25 60.35 7.45 60.35 16.2 57.15 16.2 20.75 M11.35 63.55 L91.25 63.55 91.25 93.55 7.45 93.55 16.2 91.15 16.2 64.7 11.35 63.55 M-59.45 18.75 L-55.85 22.5 -16.75 21.9 -19.55 23.5 -19.55 88.75 -11.45 94.1 -59.45 94.1 -59.45 18.75 M-145.25 22.05 L-77.9 22.65 -70.95 18.4 -70.95 94.1 -154.3 94.1 -145.6 88.3 Q-145.6 55.65 -145.2 22.05 L-145.25 22.05 M-244.6 20.85 L-176.4 21.3 -169.5 18.1 -169.5 60.45 -253.35 60.45 -244.6 57.25 -244.6 34.1 -244.45 33.9 -244.35 33.65 -243.7 32.2 -244.6 34.05 -244.6 20.85 M-245.9 63.7 L-169.5 63.7 -169.5 93.65 -253.35 93.65 -244.6 91.25 -244.6 80.25 Q-244.45 74.05 -244.6 76.7 L-244.6 63.7 -245.9 63.7" fill="#333333" fill-opacity="0.050980393" fill-rule="evenodd" stroke="none"/>
    <path d="M260.3 14.0 L-0.4 14.0 -0.4 11.45 260.3 11.45 260.3 14.0 M260.75 102.75 L0.05 102.75 0.05 97.25 260.75 97.25 260.75 102.75 M-2.7 11.5 L-2.7 14.1 -261.2 14.1 -261.2 11.5 -2.7 11.5 M-2.7 97.3 L-2.7 102.85 -260.7 102.85 -260.7 97.3 -2.7 97.3" fill="#000000" fill-opacity="0.101960786" fill-rule="evenodd" stroke="none"/>
    <path d="M250.15 18.05 L250.15 47.45 250.05 47.45 250.0 47.45 241.25 45.35 241.25 20.05 243.95 19.45 244.2 19.45 250.15 18.05 M244.05 59.35 L245.3 59.35 250.0 58.05 250.0 87.3 241.25 85.25 241.25 59.95 244.05 59.35 M106.0 18.35 L114.75 21.95 115.25 88.2 106.45 94.0 106.0 94.0 106.0 18.35 M7.45 18.0 L16.2 20.75 16.2 57.15 7.45 60.35 7.45 18.0 M7.45 93.55 L7.45 63.55 11.35 63.55 16.2 64.7 16.2 91.15 7.45 93.55 M-16.75 21.9 L-15.5 21.9 -10.6 18.5 -10.6 94.1 -10.75 94.1 -11.45 94.1 -19.55 88.75 -19.55 23.5 -16.75 21.9 M-154.8 18.4 L-146.05 22.05 -145.25 22.05 -145.2 22.05 Q-145.6 55.65 -145.6 88.3 L-154.3 94.1 -154.8 94.1 -154.8 18.4 M-253.35 18.1 L-244.6 20.85 -244.6 34.05 -243.7 32.2 -244.35 33.65 -244.45 33.9 -244.6 34.1 -244.6 57.25 -253.35 60.45 -253.35 18.1 M-253.35 93.65 L-253.35 63.7 -245.9 63.7 -244.6 63.7 -244.6 76.7 Q-244.45 74.05 -244.6 80.25 L-244.6 91.25 -253.35 93.65" fill="#000000" fill-opacity="0.2" fill-rule="evenodd" stroke="none"/>
    <path d="M250.15 18.05 L244.2 19.45 243.95 19.45 205.0 19.7 201.45 18.05 250.15 18.05 M250.15 58.0 L250.0 58.05 245.3 59.35 244.05 59.35 205.0 59.6 201.35 58.15 200.9 57.95 201.35 57.95 250.15 57.95 250.5 57.95 250.15 58.0 M106.45 18.0 L189.85 18.0 189.85 18.35 182.95 22.55 114.75 21.95 106.0 18.35 106.45 18.35 107.1 18.35 106.45 18.0 M91.25 18.0 L84.35 21.2 16.2 20.75 7.45 18.0 91.25 18.0 M-10.6 18.5 L-15.5 21.9 -16.75 21.9 -55.85 22.5 -59.45 18.75 -59.45 18.1 -10.6 18.1 -10.6 18.5 M-70.95 18.4 L-77.9 22.65 -145.25 22.05 -146.05 22.05 -154.8 18.4 -154.3 18.4 -153.75 18.4 -154.3 18.1 -70.95 18.1 -70.95 18.4 M-169.5 18.1 L-176.4 21.3 -244.6 20.85 -253.35 18.1 -169.5 18.1" fill="#000000" fill-opacity="0.3019608" fill-rule="evenodd" stroke="none"/>
    <path d="M191.0 7.4 L263.55 7.4 M2.75 106.9 L-2.7 106.9 -263.5 107.0 -263.5 7.45 -204.75 7.45" fill="none" stroke="#000000" stroke-linecap="round" stroke-linejoin="round" stroke-width="1.0"/>
    <path d="M263.55 7.4 L263.55 106.9 2.75 106.9" fill="none" stroke="#000000" stroke-linecap="round" stroke-linejoin="round" stroke-width="1.0"/>
    <path d="M250.15 47.45 L250.15 18.05 M250.15 47.45 L201.35 47.45 201.35 18.0 250.15 18.0 M250.0 87.3 L250.05 87.3 250.15 87.3 250.15 58.0 M201.35 57.95 L201.35 57.85 250.15 57.85 250.15 57.95 M250.15 87.3 L201.35 87.3 201.35 58.15 M189.85 18.35 L189.85 18.0 106.45 18.0 106.0 18.0 106.0 18.35 106.0 94.0 106.45 94.0 189.85 94.0 189.85 18.35 M-204.75 7.45 L-2.7 7.4 191.0 7.4 M91.25 18.0 L7.45 18.0 7.45 60.35 91.25 60.35 91.25 18.0 M11.35 63.55 L91.25 63.55 91.25 93.55 7.45 93.55 7.45 63.55 11.35 63.55 M-2.7 11.5 L-2.7 7.4 M-2.7 14.1 L-2.7 11.5 M-2.7 14.1 L-2.7 97.3 -2.7 102.85 -2.7 106.9 M-10.6 18.5 L-10.6 18.1 -59.45 18.1 -59.45 18.75 -59.45 94.1 -11.45 94.1 -10.75 94.1 -10.6 94.1 -10.6 18.5 M-70.95 18.4 L-70.95 18.1 -154.3 18.1 -154.8 18.1 -154.8 18.4 -154.8 94.1 -154.3 94.1 -70.95 94.1 -70.95 18.4 M-169.5 18.1 L-253.35 18.1 -253.35 60.45 -169.5 60.45 -169.5 18.1 M-227.5 1.75 L-227.45 1.45 M-245.9 63.7 L-169.5 63.7 -169.5 93.65 -253.35 93.65 -253.35 63.7 -245.9 63.7" fill="none" stroke="#000000" stroke-linecap="round" stroke-linejoin="round" stroke-opacity="0.6" stroke-width="1.0"/>
  </g>
</svg>
