<?xml version="1.0" encoding="UTF-8" standalone="no"?>
<svg xmlns:xlink="http://www.w3.org/1999/xlink" height="88.25px" width="438.1px" xmlns="http://www.w3.org/2000/svg">
  <g transform="matrix(1.0, 0.0, 0.0, 1.0, 225.9, -22.1)">
    <path d="M190.85 67.2 Q190.45 76.6 183.5 83.0 176.5 89.35 167.1 88.95 157.7 88.55 151.35 81.6 145.0 74.65 145.35 65.25 145.75 55.85 152.75 49.45 159.7 43.1 169.1 43.5 178.5 43.9 184.85 50.85 191.25 57.8 190.85 67.2 M175.65 59.3 Q172.8 56.2 168.55 56.0 164.3 55.8 161.2 58.7 158.05 61.55 157.85 65.8 157.7 70.05 160.55 73.15 163.4 76.25 167.65 76.45 171.9 76.65 175.05 73.75 178.15 70.9 178.35 66.65 178.55 62.4 175.65 59.3 M183.55 52.85 Q177.75 45.9 168.7 45.45 160.2 45.1 154.0 50.85 147.75 56.55 147.4 65.0 146.95 73.95 153.45 80.45 148.4 74.35 148.75 66.5 149.1 58.05 155.35 52.3 161.55 46.6 170.05 46.95 177.85 47.25 183.55 52.85 M-180.8 43.5 Q-171.4 43.9 -165.05 50.85 -158.7 57.8 -159.1 67.2 -159.5 76.6 -166.45 83.0 -173.4 89.35 -182.8 88.95 -192.2 88.55 -198.55 81.6 -204.9 74.65 -204.5 65.25 -204.1 55.85 -197.15 49.45 -190.2 43.1 -180.8 43.5 M-174.25 59.3 Q-177.1 56.2 -181.35 56.0 -185.6 55.8 -188.7 58.7 -191.85 61.55 -192.0 65.8 -192.2 70.05 -189.35 73.15 -186.5 76.25 -182.25 76.45 -178.0 76.65 -174.9 73.75 -171.75 70.9 -171.6 66.65 -171.4 62.4 -174.25 59.3 M-202.5 65.0 Q-202.95 73.95 -196.45 80.45 -201.5 74.35 -201.2 66.5 -200.8 58.05 -194.55 52.3 -188.3 46.6 -179.85 46.95 -172.05 47.25 -166.35 52.85 -172.15 45.9 -181.2 45.45 -189.7 45.1 -195.9 50.85 -202.15 56.55 -202.5 65.0" fill="#ffffff" fill-opacity="0.0" fill-rule="evenodd" stroke="none"/>
    <path d="M187.4 48.55 Q194.7 56.55 194.25 67.35 193.75 78.2 185.8 85.5 177.8 92.85 167.0 92.35 156.15 91.9 148.85 83.9 141.5 75.9 142.0 65.1 142.45 54.25 150.45 46.95 158.4 39.6 169.25 40.1 180.05 40.55 187.4 48.55 M190.85 67.2 Q191.25 57.8 184.85 50.85 178.5 43.9 169.1 43.5 159.7 43.1 152.75 49.45 145.75 55.85 145.35 65.25 145.0 74.65 151.35 81.6 157.7 88.55 167.1 88.95 176.5 89.35 183.5 83.0 190.45 76.6 190.85 67.2 M-180.8 43.5 Q-190.2 43.1 -197.15 49.45 -204.1 55.85 -204.5 65.25 -204.9 74.65 -198.55 81.6 -192.2 88.55 -182.8 88.95 -173.4 89.35 -166.45 83.0 -159.5 76.6 -159.1 67.2 -158.7 57.8 -165.05 50.85 -171.4 43.9 -180.8 43.5 M-180.65 40.1 Q-169.85 40.55 -162.5 48.55 -155.2 56.55 -155.65 67.35 -156.15 78.2 -164.1 85.5 -172.1 92.85 -182.95 92.35 -193.75 91.9 -201.05 83.9 -208.4 75.9 -207.95 65.1 -207.45 54.25 -199.45 46.95 -191.5 39.6 -180.65 40.1" fill="#000000" fill-opacity="0.101960786" fill-rule="evenodd" stroke="none"/>
    <path d="M169.0 58.45 Q172.25 58.6 174.5 60.85 172.15 58.0 168.45 57.85 165.0 57.7 162.45 60.05 159.85 62.4 159.75 65.85 159.55 69.5 162.2 72.15 160.15 69.7 160.3 66.45 160.45 63.0 163.0 60.65 165.5 58.3 169.0 58.45 M175.65 59.3 Q178.55 62.4 178.35 66.65 178.15 70.9 175.05 73.75 171.9 76.65 167.65 76.45 163.4 76.25 160.55 73.15 157.7 70.05 157.85 65.8 158.05 61.55 161.2 58.7 164.3 55.8 168.55 56.0 172.8 56.2 175.65 59.3 M-174.25 59.3 Q-171.4 62.4 -171.6 66.65 -171.75 70.9 -174.9 73.75 -178.0 76.65 -182.25 76.45 -186.5 76.25 -189.35 73.15 -192.2 70.05 -192.0 65.8 -191.85 61.55 -188.7 58.7 -185.6 55.8 -181.35 56.0 -177.1 56.2 -174.25 59.3 M-181.45 57.85 Q-184.95 57.7 -187.45 60.05 -190.0 62.35 -190.15 65.85 -190.35 69.5 -187.7 72.15 -189.7 69.65 -189.65 66.45 -189.45 63.0 -186.9 60.65 -184.35 58.3 -180.9 58.45 -177.75 58.6 -175.4 60.85 -177.75 58.0 -181.45 57.85" fill="#000000" fill-opacity="0.2" fill-rule="evenodd" stroke="none"/>
    <path d="M169.0 58.45 Q165.5 58.3 163.0 60.65 160.45 63.0 160.3 66.45 160.15 69.7 162.2 72.15 159.55 69.5 159.75 65.85 159.85 62.4 162.45 60.05 165.0 57.7 168.45 57.85 172.15 58.0 174.5 60.85 172.25 58.6 169.0 58.45 M183.55 52.85 Q177.85 47.25 170.05 46.95 161.55 46.6 155.35 52.3 149.1 58.05 148.75 66.5 148.4 74.35 153.45 80.45 146.95 73.95 147.4 65.0 147.75 56.55 154.0 50.85 160.2 45.1 168.7 45.45 177.75 45.9 183.55 52.85 M-181.45 57.85 Q-177.75 58.0 -175.4 60.85 -177.75 58.6 -180.9 58.45 -184.35 58.3 -186.9 60.65 -189.45 63.0 -189.65 66.45 -189.7 69.65 -187.7 72.15 -190.35 69.5 -190.15 65.85 -190.0 62.35 -187.45 60.05 -184.95 57.7 -181.45 57.85 M-202.5 65.0 Q-202.15 56.55 -195.9 50.85 -189.7 45.1 -181.2 45.45 -172.15 45.9 -166.35 52.85 -172.05 47.25 -179.85 46.95 -188.3 46.6 -194.55 52.3 -200.8 58.05 -201.2 66.5 -201.5 74.35 -196.45 80.45 -202.95 73.95 -202.5 65.0" fill="#ffffff" fill-opacity="0.3019608" fill-rule="evenodd" stroke="none"/>
    <path d="M187.4 48.55 Q180.05 40.55 169.25 40.1 158.4 39.6 150.45 46.95 142.45 54.25 142.0 65.1 141.5 75.9 148.85 83.9 156.15 91.9 167.0 92.35 177.8 92.85 185.8 85.5 193.75 78.2 194.25 67.35 194.7 56.55 187.4 48.55 M200.25 36.75 Q212.45 50.05 211.65 68.1 210.85 86.15 197.55 98.35 184.25 110.6 166.2 109.8 148.15 109.0 135.95 95.7 123.75 82.4 124.55 64.35 125.35 46.3 138.65 34.05 151.95 21.85 170.0 22.65 188.05 23.45 200.25 36.75 M-152.35 98.35 Q-165.65 110.6 -183.7 109.8 -201.75 109.0 -213.95 95.7 -226.15 82.4 -225.35 64.35 -224.55 46.3 -211.25 34.05 -197.95 21.85 -179.9 22.65 -161.85 23.45 -149.65 36.75 -137.45 50.05 -138.25 68.1 -139.05 86.15 -152.35 98.35 M-180.65 40.1 Q-191.5 39.6 -199.45 46.95 -207.45 54.25 -207.95 65.1 -208.4 75.9 -201.05 83.9 -193.75 91.9 -182.95 92.35 -172.1 92.85 -164.1 85.5 -156.15 78.2 -155.65 67.35 -155.2 56.55 -162.5 48.55 -169.85 40.55 -180.65 40.1" fill="#000000" fill-rule="evenodd" stroke="none"/>
    <path d="M187.4 48.55 Q194.7 56.55 194.25 67.35 193.75 78.2 185.8 85.5 177.8 92.85 167.0 92.35 156.15 91.9 148.85 83.9 141.5 75.9 142.0 65.1 142.45 54.25 150.45 46.95 158.4 39.6 169.25 40.1 180.05 40.55 187.4 48.55 M190.85 67.2 Q190.45 76.6 183.5 83.0 176.5 89.35 167.1 88.95 157.7 88.55 151.35 81.6 145.0 74.65 145.35 65.25 145.75 55.85 152.75 49.45 159.7 43.1 169.1 43.5 178.5 43.9 184.85 50.85 191.25 57.8 190.85 67.2 M-180.8 43.5 Q-171.4 43.9 -165.05 50.85 -158.7 57.8 -159.1 67.2 -159.5 76.6 -166.45 83.0 -173.4 89.35 -182.8 88.95 -192.2 88.55 -198.55 81.6 -204.9 74.65 -204.5 65.25 -204.1 55.85 -197.15 49.45 -190.2 43.1 -180.8 43.5 M-180.65 40.1 Q-169.85 40.55 -162.5 48.55 -155.2 56.55 -155.65 67.35 -156.15 78.2 -164.1 85.5 -172.1 92.85 -182.95 92.35 -193.75 91.9 -201.05 83.9 -208.4 75.9 -207.95 65.1 -207.45 54.25 -199.45 46.95 -191.5 39.6 -180.65 40.1" fill="none" stroke="#000000" stroke-linecap="round" stroke-linejoin="round" stroke-opacity="0.6" stroke-width="1.0"/>
    <path d="M175.65 59.3 Q178.55 62.4 178.35 66.65 178.15 70.9 175.05 73.75 171.9 76.65 167.65 76.45 163.4 76.25 160.55 73.15 157.7 70.05 157.85 65.8 158.05 61.55 161.2 58.7 164.3 55.8 168.55 56.0 172.8 56.2 175.65 59.3 M-174.25 59.3 Q-171.4 62.4 -171.6 66.65 -171.75 70.9 -174.9 73.75 -178.0 76.65 -182.25 76.45 -186.5 76.25 -189.35 73.15 -192.2 70.05 -192.0 65.8 -191.85 61.55 -188.7 58.7 -185.6 55.8 -181.35 56.0 -177.1 56.2 -174.25 59.3" fill="none" stroke="#000000" stroke-linecap="round" stroke-linejoin="round" stroke-opacity="0.4" stroke-width="1.0"/>
    <path d="M200.25 36.75 Q212.45 50.05 211.65 68.1 210.85 86.15 197.55 98.35 184.25 110.6 166.2 109.8 148.15 109.0 135.95 95.7 123.75 82.4 124.55 64.35 125.35 46.3 138.65 34.05 151.95 21.85 170.0 22.65 188.05 23.45 200.25 36.75 M-152.35 98.35 Q-165.65 110.6 -183.7 109.8 -201.75 109.0 -213.95 95.7 -226.15 82.4 -225.35 64.35 -224.55 46.3 -211.25 34.05 -197.95 21.85 -179.9 22.65 -161.85 23.45 -149.65 36.75 -137.45 50.05 -138.25 68.1 -139.05 86.15 -152.35 98.35" fill="none" stroke="#000000" stroke-linecap="round" stroke-linejoin="round" stroke-width="1.0"/>
  </g>
</svg>
