<?xml version="1.0" encoding="UTF-8" standalone="no"?>
<svg xmlns:xlink="http://www.w3.org/1999/xlink" height="43.15px" width="20.85px" xmlns="http://www.w3.org/2000/svg">
  <g transform="matrix(1.0, 0.0, 0.0, 1.0, 11.4, 125.15)">
    <path d="M-0.45 -86.75 Q-5.1 -86.95 -7.95 -90.75 -10.1 -93.65 -10.7 -97.75 -11.3 -101.85 -10.1 -105.25 -9.05 -108.3 -5.25 -114.05 -2.55 -119.35 -2.65 -124.65 0.55 -118.15 4.3 -113.15 8.8 -107.25 8.95 -99.9 9.05 -95.2 7.9 -92.1 6.0 -86.95 0.5 -86.75 L-0.45 -86.75 -0.45 -86.8 -0.45 -86.75 M-0.45 -86.8 L0.7 -86.9 Q3.35 -87.45 5.0 -90.7 6.5 -93.6 6.2 -96.5 5.85 -99.75 3.15 -104.1 -0.35 -109.65 -0.9 -111.05 -0.9 -108.0 -1.75 -105.55 -2.45 -103.6 -4.4 -99.6 -5.95 -96.0 -5.95 -93.4 -5.9 -90.6 -4.0 -88.55 -2.4 -86.85 -0.45 -86.8" fill="#ffffff" fill-opacity="0.0" fill-rule="evenodd" stroke="none"/>
    <path d="M-0.45 -86.8 Q-2.4 -86.85 -4.0 -88.55 -5.9 -90.6 -5.95 -93.4 -5.95 -96.0 -4.4 -99.6 -2.45 -103.6 -1.75 -105.55 -0.9 -108.0 -0.9 -111.05 -0.35 -109.65 3.15 -104.1 5.85 -99.75 6.2 -96.5 6.5 -93.6 5.0 -90.7 3.35 -87.45 0.7 -86.9 L-0.45 -86.8 -0.55 -91.25 -0.45 -86.8" fill="#ffffff" fill-opacity="0.101960786" fill-rule="evenodd" stroke="none"/>
    <path d="M-0.45 -86.75 Q-5.1 -86.95 -7.95 -90.75 -10.1 -93.65 -10.7 -97.75 -11.3 -101.85 -10.1 -105.25 -9.05 -108.3 -5.25 -114.05 -2.55 -119.35 -2.65 -124.65 0.55 -118.15 4.3 -113.15 8.8 -107.25 8.95 -99.9 9.05 -95.2 7.9 -92.1 6.0 -86.95 0.5 -86.75 L-0.45 -86.75 -0.25 -83.25 -0.2 -82.5 M-0.45 -86.8 L-0.45 -86.75" fill="none" stroke="#000000" stroke-linecap="round" stroke-linejoin="round" stroke-width="1.0"/>
    <path d="M-0.45 -86.8 L-0.55 -91.25" fill="none" stroke="#000000" stroke-linecap="round" stroke-linejoin="round" stroke-opacity="0.6" stroke-width="1.0"/>
    <path d="M-0.45 -86.8 Q-2.4 -86.85 -4.0 -88.55 -5.9 -90.6 -5.95 -93.4 -5.95 -96.0 -4.4 -99.6 -2.45 -103.6 -1.75 -105.55 -0.9 -108.0 -0.9 -111.05 -0.35 -109.65 3.15 -104.1 5.85 -99.75 6.2 -96.5 6.5 -93.6 5.0 -90.7 3.35 -87.45 0.7 -86.9 L-0.45 -86.8" fill="none" stroke="#000000" stroke-linecap="round" stroke-linejoin="round" stroke-opacity="0.4" stroke-width="1.0"/>
  </g>
</svg>
