<?xml version="1.0" encoding="UTF-8" standalone="no"?>
<svg xmlns:xlink="http://www.w3.org/1999/xlink" height="94.55px" width="205.75px" xmlns="http://www.w3.org/2000/svg">
  <g transform="matrix(1.0, 0.0, 0.0, 1.0, 102.55, 47.2)">
    <path d="M72.65 42.45 Q50.4 43.5 14.95 43.35 4.3 43.35 -10.5 42.75 L-35.9 41.7 -50.9 42.85 -65.75 43.35 Q-73.7 42.4 -80.7 35.65 -87.6 29.05 -89.15 21.1 L-89.45 19.0 Q-90.0 12.1 -85.85 4.35 -79.35 -5.55 -76.4 -10.5 L-69.2 -22.65 Q-65.0 -29.45 -61.25 -34.1 -73.85 -12.35 -80.55 8.85 -71.45 -0.45 -58.5 -14.45 -59.0 -9.5 -63.45 -0.6 -68.55 9.6 -69.35 12.4 -66.35 7.15 -57.95 -3.5 -58.25 0.45 -61.8 6.9 L-67.65 16.95 Q-60.15 7.95 -52.85 2.65 -53.75 4.45 -56.85 8.5 -59.6 12.1 -60.45 14.35 -57.8 13.3 -52.5 9.6 -47.55 6.15 -44.3 5.2 L-49.8 10.45 Q-53.25 13.65 -54.95 16.05 -53.3 15.45 -48.6 12.85 -44.75 10.75 -42.05 10.3 -43.05 12.4 -46.8 15.45 -43.65 15.1 -38.15 13.15 -31.4 10.65 -29.45 10.15 -30.2 11.65 -33.0 13.2 L-37.1 16.0 Q-34.95 15.9 -28.5 13.95 -23.0 12.4 -19.7 12.9 L-24.65 16.8 -29.85 20.5 Q-26.6 20.7 -20.0 18.3 -13.5 15.85 -9.8 16.2 -11.15 17.55 -14.4 19.75 -17.85 22.0 -19.05 23.1 -16.55 22.95 -8.85 21.1 -2.4 19.5 1.65 19.95 0.75 21.85 -2.25 23.7 -6.05 26.1 -6.9 26.95 L4.35 24.55 15.85 23.85 Q14.35 24.7 10.3 26.2 6.55 27.55 4.95 28.5 9.1 28.5 17.65 26.65 25.95 24.75 30.45 24.85 25.3 25.5 18.0 29.35 20.8 29.55 26.7 28.2 32.8 26.85 35.8 26.95 30.9 27.75 27.25 29.8 39.55 29.5 46.35 29.8 45.55 31.15 42.3 31.95 38.25 33.0 37.3 33.6 L46.35 32.95 55.15 33.4 52.05 34.65 Q70.6 36.4 78.0 42.15 L72.65 42.45" fill="#000000" fill-opacity="0.2" fill-rule="evenodd" stroke="none"/>
    <path d="M-89.45 19.0 L-101.75 17.2 Q-92.9 1.65 -82.35 -14.15 -61.2 -45.65 -52.65 -46.7 L-51.6 -45.0 Q-50.75 -42.9 -52.1 -41.25 -54.3 -38.45 -55.95 -28.35 -57.75 -17.0 -54.8 -13.4 L-54.75 -8.75 Q-53.75 -4.1 -49.35 -4.1 L-48.9 -1.35 Q-46.85 1.35 -39.0 1.35 L-38.85 2.25 Q-38.4 3.4 -37.1 4.3 -33.2 7.15 -22.65 6.85 L-19.85 9.15 Q-15.2 11.25 -5.7 10.6 L-2.7 13.05 Q1.95 15.55 10.15 15.55 L14.65 18.25 Q20.95 20.8 29.8 20.5 L32.05 22.9 Q35.95 25.15 44.5 24.85 L46.5 26.7 Q49.9 28.45 57.1 28.05 L60.75 30.75 Q65.35 33.3 70.15 33.0 L72.55 35.2 Q76.0 37.35 81.1 37.35 L85.9 39.85 Q91.2 42.3 93.6 42.3 96.0 42.3 99.15 44.5 L101.8 46.65 72.65 42.45 78.0 42.15 Q70.6 36.4 52.05 34.65 L55.15 33.4 46.35 32.95 37.3 33.6 Q38.25 33.0 42.3 31.95 45.55 31.15 46.35 29.8 39.55 29.5 27.25 29.8 30.9 27.75 35.8 26.95 32.8 26.85 26.7 28.2 20.8 29.55 18.0 29.35 25.3 25.5 30.45 24.85 25.95 24.75 17.65 26.65 9.1 28.5 4.95 28.5 6.55 27.55 10.3 26.2 14.35 24.7 15.85 23.85 L4.35 24.55 -6.9 26.95 Q-6.05 26.1 -2.25 23.7 0.75 21.85 1.65 19.95 -2.4 19.5 -8.85 21.1 -16.55 22.95 -19.05 23.1 -17.85 22.0 -14.4 19.75 -11.15 17.55 -9.8 16.2 -13.5 15.85 -20.0 18.3 -26.6 20.7 -29.85 20.5 L-24.65 16.8 -19.7 12.9 Q-23.0 12.4 -28.5 13.95 -34.95 15.9 -37.1 16.0 L-33.0 13.2 Q-30.2 11.65 -29.45 10.15 -31.4 10.65 -38.15 13.15 -43.65 15.1 -46.8 15.45 -43.05 12.4 -42.05 10.3 -44.75 10.75 -48.6 12.85 -53.3 15.45 -54.95 16.05 -53.25 13.65 -49.8 10.45 L-44.3 5.2 Q-47.55 6.15 -52.5 9.6 -57.8 13.3 -60.45 14.35 -59.6 12.1 -56.85 8.5 -53.75 4.45 -52.85 2.65 -60.15 7.95 -67.65 16.95 L-61.8 6.9 Q-58.25 0.45 -57.95 -3.5 -66.35 7.15 -69.35 12.4 -68.55 9.6 -63.45 -0.6 -59.0 -9.5 -58.5 -14.45 -71.45 -0.45 -80.55 8.85 -73.85 -12.35 -61.25 -34.1 -65.0 -29.45 -69.2 -22.65 L-76.4 -10.5 Q-79.35 -5.55 -85.85 4.35 -90.0 12.1 -89.45 19.0" fill="#ffffff" fill-opacity="0.0" fill-rule="evenodd" stroke="none"/>
    <path d="M-89.45 19.0 L-101.75 17.2 Q-92.9 1.65 -82.35 -14.15 -61.2 -45.65 -52.65 -46.7 L-51.6 -45.0 Q-50.75 -42.9 -52.1 -41.25 -54.3 -38.45 -55.95 -28.35 -57.75 -17.0 -54.8 -13.4 L-54.75 -8.75 Q-53.75 -4.1 -49.35 -4.1 L-48.9 -1.35 Q-46.85 1.35 -39.0 1.35 L-38.85 2.25 Q-38.4 3.4 -37.1 4.3 -33.2 7.15 -22.65 6.85 L-19.85 9.15 Q-15.2 11.25 -5.7 10.6 L-2.7 13.05 Q1.95 15.55 10.15 15.55 L14.65 18.25 Q20.95 20.8 29.8 20.5 L32.05 22.9 Q35.95 25.15 44.5 24.85 L46.5 26.7 Q49.9 28.45 57.1 28.05 L60.75 30.75 Q65.35 33.3 70.15 33.0 L72.55 35.2 Q76.0 37.35 81.1 37.35 L85.9 39.85 Q91.2 42.3 93.6 42.3 96.0 42.3 99.15 44.5 L101.8 46.65 72.65 42.45" fill="none" stroke="#000000" stroke-linecap="butt" stroke-linejoin="miter-clip" stroke-miterlimit="4.0" stroke-width="1.0"/>
  </g>
</svg>
