<?xml version="1.0" encoding="UTF-8" standalone="no"?>
<svg xmlns:xlink="http://www.w3.org/1999/xlink" height="7.65px" width="60.05px" xmlns="http://www.w3.org/2000/svg">
  <g transform="matrix(1.0, 0.0, 0.0, 1.0, 44.05, 28.55)">
    <path d="M-3.05 -21.55 L-2.65 -23.0 -2.15 -24.4 Q-1.25 -25.3 0.0 -25.3 L12.3 -25.3 Q13.55 -25.3 14.45 -24.4 L15.0 -22.95 15.35 -21.55 -3.05 -21.55 M-43.4 -21.55 L-41.95 -26.45 Q-40.45 -27.9 -38.4 -27.9 L-10.3 -27.9 Q-8.25 -27.9 -6.8 -26.45 -6.3 -25.95 -5.3 -21.55 L-43.4 -21.55" fill="#ffffff" fill-opacity="0.0" fill-rule="evenodd" stroke="none"/>
    <path d="M-3.05 -21.55 L-2.65 -23.0 -2.15 -24.4 Q-1.25 -25.3 0.0 -25.3 L12.3 -25.3 Q13.55 -25.3 14.45 -24.4 L15.0 -22.95 15.35 -21.55 M-43.4 -21.55 L-41.95 -26.45 Q-40.45 -27.9 -38.4 -27.9 L-10.3 -27.9 Q-8.25 -27.9 -6.8 -26.45 -6.3 -25.95 -5.3 -21.55" fill="none" stroke="#000000" stroke-linecap="square" stroke-linejoin="bevel" stroke-opacity="0.64705884" stroke-width="1.0"/>
  </g>
</svg>
