<?xml version="1.0" encoding="UTF-8" standalone="no"?>
<svg xmlns:xlink="http://www.w3.org/1999/xlink" height="113.05px" width="64.8px" xmlns="http://www.w3.org/2000/svg">
  <g transform="matrix(1.0, 0.0, 0.0, 1.0, 32.4, 32.0)">
    <path d="M22.8 -31.5 L25.5 -31.25 27.15 -31.05 24.9 -5.35 20.55 -5.75 22.8 -31.5 M-22.55 3.55 L-25.55 36.95 -25.9 40.55 -26.5 47.5 -26.05 48.95 -24.1 51.4 Q-21.45 53.85 -17.55 53.85 L17.1 53.85 Q20.9 53.85 23.55 51.4 L25.6 48.95 Q26.25 47.65 26.25 46.0 L26.25 44.5 25.9 40.55 25.55 36.95 22.55 3.55 26.2 3.7 27.85 3.65 31.9 80.0 Q30.95 81.15 29.4 80.0 L27.05 53.25 26.4 53.9 Q23.45 56.9 19.25 56.9 L-19.3 56.9 Q-23.5 56.9 -26.5 53.9 L-27.05 53.35 -29.4 80.0 Q-30.95 81.15 -31.9 80.0 L-27.85 3.65 -26.2 3.7 -22.55 3.55 M27.05 53.25 L26.25 44.5 27.05 53.25 M-19.85 -5.75 L-24.2 -5.35 -26.45 -31.05 -24.8 -31.25 -22.1 -31.5 -19.85 -5.75 M-26.5 47.5 L-27.05 53.35 -26.5 47.5" fill="#ffffff" fill-opacity="0.0" fill-rule="evenodd" stroke="none"/>
    <path d="M27.15 -31.05 L24.9 -5.35 M20.55 -5.75 L22.8 -31.5 M-22.55 3.55 L-25.55 36.95 -25.9 40.55 -26.5 47.5 -26.05 48.95 -24.1 51.4 Q-21.45 53.85 -17.55 53.85 L17.1 53.85 Q20.9 53.85 23.55 51.4 L25.6 48.95 Q26.25 47.65 26.25 46.0 L26.25 44.5 25.9 40.55 25.55 36.95 22.55 3.55 M27.85 3.65 L31.9 80.0 Q30.95 81.15 29.4 80.0 L27.05 53.25 26.4 53.9 Q23.45 56.9 19.25 56.9 L-19.3 56.9 Q-23.5 56.9 -26.5 53.9 L-27.05 53.35 -29.4 80.0 Q-30.95 81.15 -31.9 80.0 L-27.85 3.65 M26.25 44.5 L27.05 53.25 M-19.85 -5.75 L-22.1 -31.5 M-26.45 -31.05 L-24.2 -5.35 M-27.05 53.35 L-26.5 47.5" fill="none" stroke="#000000" stroke-linecap="round" stroke-linejoin="round" stroke-width="1.0"/>
  </g>
</svg>
