<?xml version="1.0" encoding="UTF-8" standalone="no"?>
<svg xmlns:xlink="http://www.w3.org/1999/xlink" height="226.7px" width="196.0px" xmlns="http://www.w3.org/2000/svg">
  <g transform="matrix(1.0, 0.0, 0.0, 1.0, 98.0, 112.6)">
    <path d="M8.35 -103.65 Q1.9 -95.9 0.15 -89.65 L-4.75 -71.45 Q-6.1 -61.5 -0.2 -54.05 0.85 -52.65 2.95 -51.6 L6.35 -49.7 Q6.95 -49.25 9.4 -44.35 11.05 -41.1 15.0 -41.2 14.15 -38.2 17.1 -36.8 18.75 -35.95 22.6 -35.05 21.55 -32.1 25.25 -30.6 28.15 -29.4 31.2 -29.75 30.85 -27.0 33.45 -25.25 34.25 -24.75 38.45 -23.0 36.8 -19.65 40.2 -17.75 L46.4 -15.55 Q44.4 -9.7 53.5 -7.6 52.55 -2.95 54.1 -0.7 55.7 1.7 60.7 2.9 59.2 6.95 62.1 10.1 63.75 11.9 68.9 14.9 66.9 17.5 70.75 20.3 72.85 21.8 76.85 23.8 71.6 23.45 76.7 27.85 79.4 30.05 83.95 33.1 80.55 32.9 83.5 37.55 L87.9 43.75 86.25 43.0 Q85.7 44.75 86.75 47.1 87.7 49.2 89.2 50.7 87.45 52.0 89.45 55.3 L92.95 60.05 90.85 59.6 Q89.65 62.05 91.15 64.85 L94.45 69.4 93.05 68.95 91.55 68.6 Q91.3 69.75 91.9 71.95 L92.9 75.35 Q93.15 77.8 94.1 83.05 L95.35 90.75 96.8 101.45 Q97.7 108.1 97.45 112.1 97.7 101.25 87.3 85.05 84.3 80.45 69.7 61.25 40.8 23.1 14.3 4.05 -4.15 -9.25 -28.75 -18.1 -35.15 -20.45 -50.9 -26.85 -64.9 -32.6 -73.0 -35.4 L-85.2 -37.95 Q-93.15 -39.6 -96.2 -42.7 -99.35 -45.85 -94.9 -49.75 L-86.6 -55.7 Q-57.8 -78.45 -34.1 -93.25 -14.75 -105.15 -10.9 -107.0 5.9 -115.15 14.5 -110.3 11.6 -107.6 8.35 -103.65" fill="#ffffff" fill-opacity="0.0" fill-rule="evenodd" stroke="none"/>
    <path d="M8.35 -103.65 Q1.9 -95.9 0.15 -89.65 L-4.75 -71.45 Q-6.1 -61.5 -0.2 -54.05 0.85 -52.65 2.95 -51.6 L6.35 -49.7 Q6.95 -49.25 9.4 -44.35 11.05 -41.1 15.0 -41.2 14.15 -38.2 17.1 -36.8 18.75 -35.95 22.6 -35.05 21.55 -32.1 25.25 -30.6 28.15 -29.4 31.2 -29.75 30.85 -27.0 33.45 -25.25 34.25 -24.75 38.45 -23.0 36.8 -19.65 40.2 -17.75 L46.4 -15.55 Q44.4 -9.7 53.5 -7.6 52.55 -2.95 54.1 -0.7 55.7 1.7 60.7 2.9 59.2 6.95 62.1 10.1 63.75 11.9 68.9 14.9 66.9 17.5 70.75 20.3 72.85 21.8 76.85 23.8 71.6 23.45 76.7 27.85 79.4 30.05 83.95 33.1 80.55 32.9 83.5 37.55 L87.9 43.75 86.25 43.0 Q85.7 44.75 86.75 47.1 87.7 49.2 89.2 50.7 87.45 52.0 89.45 55.3 L92.95 60.05 90.85 59.6 Q89.65 62.05 91.15 64.85 L94.45 69.4 93.05 68.95 91.55 68.6 Q91.3 69.75 91.9 71.95 L92.9 75.35 Q93.15 77.8 94.1 83.05 L95.35 90.75 96.8 101.45 Q97.7 108.1 97.45 112.1 97.7 101.25 87.3 85.05 84.3 80.45 69.7 61.25 40.8 23.1 14.3 4.05 -4.15 -9.25 -28.75 -18.1 -35.15 -20.45 -50.9 -26.85 -64.9 -32.6 -73.0 -35.4 L-85.2 -37.95 Q-93.15 -39.6 -96.2 -42.7 -99.35 -45.85 -94.9 -49.75 L-86.6 -55.7 Q-57.8 -78.45 -34.1 -93.25 -14.75 -105.15 -10.9 -107.0 5.9 -115.15 14.5 -110.3 11.6 -107.6 8.35 -103.65 Z" fill="none" stroke="#000000" stroke-linecap="butt" stroke-linejoin="miter-clip" stroke-miterlimit="4.0" stroke-width="1.0"/>
    <path d="M-22.8 -90.75 Q-38.85 -79.35 -47.5 -72.55 -60.8 -61.95 -70.25 -52.05 -62.1 -56.6 -42.4 -71.65 -25.6 -84.6 -13.7 -89.5 -17.55 -87.7 -23.5 -82.35 L-32.25 -74.1 -44.5 -63.9 Q-51.7 -57.65 -55.7 -52.6 -46.95 -54.25 -32.9 -65.0 -16.8 -77.35 -10.4 -80.0 -13.35 -76.85 -27.8 -67.9 -39.6 -60.55 -42.6 -54.0 -34.75 -60.25 -18.15 -67.8 -23.85 -65.05 -28.95 -61.25 -36.8 -55.55 -40.25 -49.95 -36.75 -51.8 -28.0 -57.25 -19.85 -61.35 -14.4 -59.7 -18.2 -56.25 -25.1 -52.25 L-36.65 -45.85 Q-32.2 -45.35 -23.95 -49.0 -15.1 -53.05 -10.85 -53.05 L-18.9 -48.85 Q-24.3 -46.2 -26.65 -44.7 -23.45 -44.7 -15.05 -47.1 -7.6 -49.2 -3.3 -48.5 -6.1 -46.9 -11.1 -44.55 L-18.95 -40.85 Q-15.45 -40.25 -10.05 -41.5 L-1.2 -43.75 Q-3.3 -41.9 -8.65 -40.15 -14.15 -38.4 -16.1 -36.95 L-7.5 -37.35 0.9 -38.4 Q-7.6 -34.9 -10.5 -33.0 -7.15 -31.5 -1.55 -32.45 L7.65 -33.35 Q1.05 -31.7 -4.6 -28.9 L3.35 -28.6 11.2 -29.15 -0.25 -25.9 Q2.9 -24.85 8.4 -25.75 L17.25 -26.85 11.5 -24.95 Q8.05 -23.65 6.4 -21.9 9.4 -20.4 14.65 -21.0 L20.4 -21.6 Q17.85 -21.25 15.6 -20.5 11.3 -19.1 9.2 -17.0 12.25 -15.85 17.25 -16.2 L25.55 -16.9 14.55 -12.95 Q17.5 -12.45 22.05 -12.95 L29.7 -13.75 Q28.3 -13.05 24.85 -12.0 21.7 -11.05 20.25 -10.0 23.9 -8.4 30.4 -9.35 L40.8 -10.6 33.25 -8.85 25.65 -7.25 Q28.65 -4.8 36.15 -5.6 L47.7 -6.9 Q45.1 -5.7 39.9 -4.55 L32.3 -2.55 Q35.65 -1.5 41.4 -2.0 L50.7 -2.8 Q48.75 -2.1 43.0 -1.3 38.1 -0.6 35.55 0.8 38.1 2.0 42.8 1.65 L50.25 1.85 Q48.25 2.8 45.45 3.25 L40.25 3.85 46.9 5.75 53.55 7.1 47.55 7.25 41.6 7.6 Q44.4 9.45 50.0 10.85 L59.15 13.05 Q52.15 12.15 43.5 12.75 L52.7 14.85 61.9 17.05 56.8 17.25 51.9 16.9 58.9 20.1 Q63.65 22.2 65.8 24.6 L61.35 24.95 57.05 24.4 62.95 26.15 Q66.45 27.3 68.25 28.7 L61.9 27.75 66.85 30.8 Q70.2 32.65 71.75 34.1 L69.15 33.85 66.8 33.7 Q69.05 35.35 75.1 39.0 80.45 42.25 83.25 44.55 L78.15 43.3 Q75.2 42.5 73.1 42.7 L78.0 46.35 Q81.05 48.45 82.6 50.2 81.4 49.7 79.4 49.25 L76.05 48.55 80.15 53.65 Q82.7 56.85 83.5 59.15 L80.0 58.25 Q85.5 62.2 88.4 67.7 L85.5 67.0 82.6 66.25 Q87.15 69.65 89.35 72.8 L79.1 70.1 Q83.15 72.2 85.35 76.4 L88.55 84.7 86.4 84.15 Q82.9 78.75 77.55 71.85 L69.5 61.4 Q40.6 23.25 14.1 4.2 -4.35 -9.1 -28.95 -17.95 -35.35 -20.3 -51.1 -26.7 -65.1 -32.45 -73.2 -35.25 L-81.8 -37.1 Q-88.0 -38.25 -91.0 -39.3 -88.0 -48.2 -68.4 -62.85 -58.35 -70.25 -46.25 -77.95 -42.25 -81.1 -35.0 -84.7 L-22.8 -90.75 -11.55 -98.9 Q-15.65 -94.6 -22.8 -90.75" fill="#000000" fill-opacity="0.2" fill-rule="evenodd" stroke="none"/>
  </g>
</svg>
