<?xml version="1.0" encoding="UTF-8" standalone="no"?>
<svg xmlns:xlink="http://www.w3.org/1999/xlink" height="229.75px" width="525.3px" xmlns="http://www.w3.org/2000/svg">
  <g transform="matrix(1.0, 0.0, 0.0, 1.0, 262.65, 133.35)">
    <path d="M234.85 82.6 L108.8 83.1 Q109.2 76.7 110.45 70.45 L111.85 64.45 Q112.85 60.55 114.25 56.75 120.4 39.8 131.85 28.2 143.9 16.05 159.65 12.25 176.55 8.05 195.5 14.25 228.3 25.05 233.9 60.75 235.7 72.1 234.85 82.6 M-88.05 82.45 L-214.65 82.45 Q-213.25 50.6 -198.2 31.55 -177.7 5.6 -136.95 12.35 -100.4 18.4 -91.05 56.3 -87.75 69.7 -88.05 82.45" fill="#000000" fill-rule="evenodd" stroke="none"/>
    <path d="M100.4 -112.65 L101.9 -33.65 173.05 -33.65 Q172.3 -40.6 170.25 -50.8 166.1 -71.25 159.35 -87.4 154.1 -99.9 143.15 -105.75 130.9 -112.4 108.5 -112.5 L100.4 -112.65 M91.4 -32.9 L92.1 -72.6 Q92.6 -112.2 92.15 -112.25 24.2 -118.4 -24.4 -97.5 -40.9 -90.4 -54.8 -80.3 -58.5 -77.7 -70.7 -67.35 -77.0 -62.05 -84.9 -52.45 -92.8 -42.85 -92.9 -39.65 -101.1 -10.7 -84.0 11.35 -63.25 41.1 -62.25 74.2 L90.75 74.2 91.4 -32.9 90.75 74.2 -62.25 74.2 Q-63.25 41.1 -84.0 11.35 -101.1 -10.7 -92.9 -39.65 L-92.8 -39.0 -92.8 -38.95 -92.65 -38.6 Q-91.7 -36.7 -88.25 -35.9 L-77.6 -34.4 -63.4 -33.5 -63.2 -33.5 -62.7 -33.45 -59.5 -33.45 91.4 -32.9 M-72.25 -45.05 L-73.8 -45.25 -76.1 -45.7 Q-79.05 -46.5 -79.35 -47.85 -79.85 -50.2 -77.5 -53.8 L-75.95 -55.9 Q-73.45 -59.0 -70.9 -60.75 -69.5 -61.8 -68.05 -62.4 -64.35 -63.9 -59.95 -64.1 L-59.1 -64.15 Q-53.95 -64.3 -52.65 -62.4 -50.3 -58.65 -50.75 -53.15 -51.1 -49.3 -52.3 -46.9 L-52.65 -46.3 Q-53.5 -44.95 -59.65 -44.65 L-63.05 -44.6 -66.25 -44.65 -69.6 -44.8 -71.4 -44.95 -72.25 -45.05 M-225.9 -5.35 Q-197.85 -31.8 -151.85 -33.65 -146.75 -33.85 -129.4 -46.85 L-90.1 -76.05 Q-27.5 -119.75 25.6 -127.25 93.75 -136.9 155.35 -129.95 177.25 -127.45 193.95 -123.35 207.7 -119.9 210.5 -117.5 212.6 -115.65 213.2 -114.6 214.0 -113.25 212.75 -112.55 210.5 -111.35 206.8 -111.2 L198.8 -110.85 193.95 -109.8 Q177.6 -105.7 179.05 -93.55 180.55 -80.75 190.2 -62.1 195.75 -51.4 207.5 -32.9 208.25 -31.7 220.6 -31.85 L231.45 -31.85 235.95 -31.4 Q237.3 -30.95 237.9 -24.7 L215.05 -24.7 Q212.85 -24.7 211.3 -23.15 209.8 -21.6 209.8 -19.45 L209.8 -16.45 Q209.8 -14.25 211.3 -12.75 212.85 -11.2 215.05 -11.2 L238.35 -11.2 238.3 -5.7 224.05 -5.7 Q221.85 -5.7 220.3 -4.15 218.8 -2.6 218.8 -0.45 L218.8 2.55 Q218.8 4.75 220.3 6.25 221.85 7.8 224.05 7.8 L238.0 7.8 Q237.5 23.2 236.75 26.85 L236.7 26.95 Q247.9 37.35 256.15 66.3 260.3 81.0 262.15 93.65 262.15 95.75 247.55 95.3 L232.95 94.4 Q234.3 88.65 234.85 82.6 235.7 72.1 233.9 60.75 228.3 25.05 195.5 14.25 176.55 8.05 159.65 12.25 143.9 16.05 131.85 28.2 120.4 39.8 114.25 56.75 112.85 60.55 111.85 64.45 L110.45 70.45 Q109.2 76.7 108.8 83.1 108.55 87.6 108.65 92.15 108.7 95.0 9.9 94.25 L-88.95 92.9 Q-88.2 87.75 -88.05 82.45 -87.75 69.7 -91.05 56.3 -100.4 18.4 -136.95 12.35 -177.7 5.6 -198.2 31.55 -213.25 50.6 -214.65 82.45 -214.9 88.1 -214.75 94.15 -216.8 95.15 -220.95 95.6 -229.35 96.55 -240.2 94.4 -245.15 93.4 -252.25 88.95 -258.65 84.8 -260.9 80.85 -261.7 79.35 -261.95 77.9 -262.7 73.5 -260.9 63.1 L-259.85 57.65 Q-256.25 40.95 -248.95 26.25 -224.95 27.0 -223.75 26.25 -221.25 24.75 -212.5 12.7 -205.25 2.65 -201.3 -3.7 -200.3 -5.25 -213.05 -5.4 L-225.9 -5.35 M83.25 -7.45 L54.8 -7.45 54.8 0.05 83.25 0.05 83.25 -7.45 83.25 0.05 54.8 0.05 54.8 -7.45 83.25 -7.45 M108.8 83.1 L99.0 83.15 Q102.9 44.3 124.35 22.6 138.6 8.2 157.0 3.8 184.65 -2.7 213.1 10.45 222.7 14.85 229.95 20.4 235.7 24.75 236.75 26.85 235.7 24.75 229.95 20.4 222.7 14.85 213.1 10.45 184.65 -2.7 157.0 3.8 138.6 8.2 124.35 22.6 102.9 44.3 99.0 83.15 L108.8 83.1 M-62.7 -33.45 L-62.65 -33.45 -59.5 -33.45 -62.65 -33.45 -62.7 -33.45 M-215.5 82.45 L-214.65 82.45 -215.5 82.45 M-240.2 94.4 Q-233.9 72.3 -220.95 49.75 -195.05 4.75 -161.75 2.9 -123.65 0.85 -103.25 17.65 -79.75 37.1 -77.35 83.15 L99.0 83.15 -77.35 83.15 Q-79.75 37.1 -103.25 17.65 -123.65 0.85 -161.75 2.9 -195.05 4.75 -220.95 49.75 -233.9 72.3 -240.2 94.4" fill="#ffffff" fill-opacity="0.0" fill-rule="evenodd" stroke="none"/>
    <path d="M237.9 -24.7 Q243.4 -18.35 238.35 -11.2 L215.05 -11.2 Q212.85 -11.2 211.3 -12.75 209.8 -14.25 209.8 -16.45 L209.8 -19.45 Q209.8 -21.6 211.3 -23.15 212.85 -24.7 215.05 -24.7 L237.9 -24.7 M238.3 -5.7 L240.7 -1.1 Q242.3 2.15 238.0 7.8 L224.05 7.8 Q221.85 7.8 220.3 6.25 218.8 4.75 218.8 2.55 L218.8 -0.45 Q218.8 -2.6 220.3 -4.15 221.85 -5.7 224.05 -5.7 L238.3 -5.7 M-248.95 26.25 L-246.0 20.55 Q-237.45 5.5 -225.9 -5.35 L-213.05 -5.4 Q-200.3 -5.25 -201.3 -3.7 -205.25 2.65 -212.5 12.7 -221.25 24.75 -223.75 26.25 -224.95 27.0 -248.95 26.25" fill="#ffffff" fill-rule="evenodd" stroke="none"/>
    <path d="M114.65 -103.3 L110.15 -103.3 111.65 -41.15 161.05 -41.15 Q160.55 -49.5 158.65 -59.85 154.9 -80.45 148.35 -89.8 141.8 -99.15 125.35 -102.15 L114.65 -103.3 M100.4 -112.65 L108.5 -112.5 Q130.9 -112.4 143.15 -105.75 154.1 -99.9 159.35 -87.4 166.1 -71.25 170.25 -50.8 172.3 -40.6 173.05 -33.65 L101.9 -33.65 100.4 -112.65 M-92.9 -39.65 Q-92.8 -42.85 -84.9 -52.45 -77.0 -62.05 -70.7 -67.35 -58.5 -77.7 -54.8 -80.3 -40.9 -90.4 -24.4 -97.5 24.2 -118.4 92.15 -112.25 92.6 -112.2 92.1 -72.6 L91.4 -32.9 -59.5 -33.45 -62.7 -33.45 -63.2 -33.5 -63.4 -33.5 -77.6 -34.4 -88.25 -35.9 Q-91.7 -36.7 -92.65 -38.6 L-92.8 -38.95 -92.8 -39.0 -92.9 -39.65 M-72.25 -45.05 L-71.45 -42.9 -70.9 -41.25 -69.5 -38.95 Q-66.25 -34.0 -63.4 -33.5 -66.25 -34.0 -69.5 -38.95 L-70.9 -41.25 -71.45 -42.9 -72.25 -45.05 -71.4 -44.95 -69.6 -44.8 -66.25 -44.65 -63.05 -44.6 Q-60.7 -41.55 -58.6 -41.2 L-58.4 -41.2 -57.9 -41.15 -55.05 -41.15 83.2 -41.15 83.95 -105.55 Q50.25 -107.35 24.25 -103.9 -4.35 -100.2 -26.05 -89.95 -40.2 -83.3 -51.05 -74.7 L-59.0 -67.35 -59.1 -64.15 -59.95 -64.1 Q-64.35 -63.9 -68.05 -62.4 -69.5 -61.8 -70.9 -60.75 -73.45 -59.0 -75.95 -55.9 L-77.5 -53.8 Q-79.85 -50.2 -79.35 -47.85 -79.05 -46.5 -76.1 -45.7 L-73.8 -45.25 -72.25 -45.05 M198.8 -110.85 Q205.3 -106.85 219.25 -70.85 233.2 -34.9 231.45 -31.85 L220.6 -31.85 Q208.25 -31.7 207.5 -32.9 195.75 -51.4 190.2 -62.1 180.55 -80.75 179.05 -93.55 177.6 -105.7 193.95 -109.8 L198.8 -110.85" fill="#000000" fill-opacity="0.2" fill-rule="evenodd" stroke="none"/>
    <path d="M114.65 -103.3 L125.35 -102.15 Q141.8 -99.15 148.35 -89.8 154.9 -80.45 158.65 -59.85 160.55 -49.5 161.05 -41.15 L111.65 -41.15 110.15 -103.3 114.65 -103.3 M-59.1 -64.15 L-59.0 -67.35 -51.05 -74.7 Q-40.2 -83.3 -26.05 -89.95 -4.35 -100.2 24.25 -103.9 50.25 -107.35 83.95 -105.55 L83.2 -41.15 -55.05 -41.15 -57.9 -41.15 -58.4 -41.2 -58.6 -41.2 Q-60.7 -41.55 -63.05 -44.6 L-59.65 -44.65 Q-53.5 -44.95 -52.65 -46.3 L-52.3 -46.9 Q-51.1 -49.3 -50.75 -53.15 -50.3 -58.65 -52.65 -62.4 -53.95 -64.3 -59.1 -64.15 M-225.9 -5.35 Q-197.85 -31.8 -151.85 -33.65 -146.75 -33.85 -129.4 -46.85 L-90.1 -76.05 Q-27.5 -119.75 25.6 -127.25 93.75 -136.9 155.35 -129.95 177.25 -127.45 193.95 -123.35 207.7 -119.9 210.5 -117.5 212.6 -115.65 213.2 -114.6 214.0 -113.25 212.75 -112.55 210.5 -111.35 206.8 -111.2 L198.8 -110.85 193.95 -109.8 Q177.6 -105.7 179.05 -93.55 180.55 -80.75 190.2 -62.1 195.75 -51.4 207.5 -32.9 208.25 -31.7 220.6 -31.85 L231.45 -31.85 235.95 -31.4 Q237.3 -30.95 237.9 -24.7 243.4 -18.35 238.35 -11.2 L238.3 -5.7 240.7 -1.1 Q242.3 2.15 238.0 7.8 237.5 23.2 236.75 26.85 L236.7 26.95 Q247.9 37.35 256.15 66.3 260.3 81.0 262.15 93.65 262.15 95.75 247.55 95.3 L232.95 94.4 Q234.3 88.65 234.85 82.6 L108.8 83.1 Q108.55 87.6 108.65 92.15 108.7 95.0 9.9 94.25 L-88.95 92.9 Q-88.2 87.75 -88.05 82.45 L-214.65 82.45 Q-214.9 88.1 -214.75 94.15 -216.8 95.15 -220.95 95.6 -229.35 96.55 -240.2 94.4 -245.15 93.4 -252.25 88.95 -258.65 84.8 -260.9 80.85 -261.7 79.35 -261.95 77.9 -262.7 73.5 -260.9 63.1 L-259.85 57.65 Q-256.25 40.95 -248.95 26.25 L-246.0 20.55 Q-237.45 5.5 -225.9 -5.35 M108.8 83.1 Q109.2 76.7 110.45 70.45 L111.85 64.45 Q112.85 60.55 114.25 56.75 120.4 39.8 131.85 28.2 143.9 16.05 159.65 12.25 176.55 8.05 195.5 14.25 228.3 25.05 233.9 60.75 235.7 72.1 234.85 82.6 M-88.05 82.45 Q-87.75 69.7 -91.05 56.3 -100.4 18.4 -136.95 12.35 -177.7 5.6 -198.2 31.55 -213.25 50.6 -214.65 82.45 L-215.5 82.45" fill="none" stroke="#000000" stroke-linecap="round" stroke-linejoin="round" stroke-width="1.0"/>
    <path d="M-72.25 -45.05 L-73.8 -45.25 -76.1 -45.7 Q-79.05 -46.5 -79.35 -47.85 -79.85 -50.2 -77.5 -53.8 L-75.95 -55.9 Q-73.45 -59.0 -70.9 -60.75 -69.5 -61.8 -68.05 -62.4 -64.35 -63.9 -59.95 -64.1 L-59.1 -64.15 M-63.05 -44.6 L-66.25 -44.65 -69.6 -44.8 -71.4 -44.95 -72.25 -45.05 M-225.9 -5.35 L-213.05 -5.4 Q-200.3 -5.25 -201.3 -3.7 -205.25 2.65 -212.5 12.7 -221.25 24.75 -223.75 26.25 -224.95 27.0 -248.95 26.25 M237.9 -24.7 L215.05 -24.7 Q212.85 -24.7 211.3 -23.15 209.8 -21.6 209.8 -19.45 L209.8 -16.45 Q209.8 -14.25 211.3 -12.75 212.85 -11.2 215.05 -11.2 L238.35 -11.2 M238.3 -5.7 L224.05 -5.7 Q221.85 -5.7 220.3 -4.15 218.8 -2.6 218.8 -0.45 L218.8 2.55 Q218.8 4.75 220.3 6.25 221.85 7.8 224.05 7.8 L238.0 7.8 M236.75 26.85 Q235.7 24.75 229.95 20.4 222.7 14.85 213.1 10.45 184.65 -2.7 157.0 3.8 138.6 8.2 124.35 22.6 102.9 44.3 99.0 83.15 L108.8 83.1 M99.0 83.15 L-77.35 83.15 Q-79.75 37.1 -103.25 17.65 -123.65 0.85 -161.75 2.9 -195.05 4.75 -220.95 49.75 -233.9 72.3 -240.2 94.4" fill="none" stroke="#000000" stroke-linecap="round" stroke-linejoin="round" stroke-opacity="0.6" stroke-width="1.0"/>
    <path d="M100.4 -112.65 L101.9 -33.65 173.05 -33.65 Q172.3 -40.6 170.25 -50.8 166.1 -71.25 159.35 -87.4 154.1 -99.9 143.15 -105.75 130.9 -112.4 108.5 -112.5 L100.4 -112.65 M-92.9 -39.65 Q-92.8 -42.85 -84.9 -52.45 -77.0 -62.05 -70.7 -67.35 -58.5 -77.7 -54.8 -80.3 -40.9 -90.4 -24.4 -97.5 24.2 -118.4 92.15 -112.25 92.6 -112.2 92.1 -72.6 L91.4 -32.9 -59.5 -33.45 -62.65 -33.45 -62.7 -33.45 -59.5 -33.45 M-92.9 -39.65 L-92.8 -39.0 -92.8 -38.95 -92.65 -38.6 Q-91.7 -36.7 -88.25 -35.9 L-77.6 -34.4 -63.4 -33.5 Q-66.25 -34.0 -69.5 -38.95 L-70.9 -41.25 -71.45 -42.9 -72.25 -45.05 M198.8 -110.85 Q205.3 -106.85 219.25 -70.85 233.2 -34.9 231.45 -31.85 M83.25 -7.45 L83.25 0.05 54.8 0.05 54.8 -7.45 83.25 -7.45 M-63.4 -33.5 L-63.2 -33.5 -62.7 -33.45" fill="none" stroke="#000000" stroke-linecap="round" stroke-linejoin="round" stroke-opacity="0.4" stroke-width="1.0"/>
    <path d="M91.4 -32.9 L90.75 74.2 -62.25 74.2 Q-63.25 41.1 -84.0 11.35 -101.1 -10.7 -92.9 -39.65" fill="none" stroke="#000000" stroke-linecap="round" stroke-linejoin="round" stroke-opacity="0.29803923" stroke-width="1.0"/>
  </g>
</svg>
