<?xml version="1.0" encoding="UTF-8" standalone="no"?>
<svg xmlns:xlink="http://www.w3.org/1999/xlink" height="144.85px" width="443.0px" xmlns="http://www.w3.org/2000/svg">
  <g transform="matrix(1.0, 0.0, 0.0, 1.0, 221.5, 86.3)">
    <path d="M111.0 9.7 L110.25 9.2 111.0 9.7" fill="#888a8c" fill-rule="evenodd" stroke="none"/>
    <path d="M61.25 -21.15 L60.85 -21.35 60.2 -21.75 61.25 -21.15 M102.85 4.45 L102.9 4.45 104.55 5.55 103.7 5.0 102.85 4.45 M77.1 -11.7 L83.85 -7.6 96.55 0.4 96.5 0.4 81.45 -8.95 77.1 -11.7" fill="#ffffff" fill-rule="evenodd" stroke="none"/>
    <path d="M59.0 -22.45 L-39.7 -22.45 Q-42.5 -22.45 -44.55 -20.8 -46.55 -19.2 -46.55 -16.9 L-46.55 3.5 Q-46.55 5.8 -44.55 7.4 -42.95 8.7 -40.85 9.0 -39.3 9.7 -37.35 9.7 L-11.85 9.7 29.4 9.7 49.45 9.7 35.2 12.8 Q33.95 13.05 33.3 14.0 L52.7 14.25 74.75 9.7 75.75 9.7 75.75 14.55 79.1 14.6 79.1 9.7 79.1 8.85 102.85 4.45 103.7 5.0 110.95 9.7 111.0 9.7 119.3 15.2 128.4 15.35 131.75 15.4 179.8 16.25 183.15 16.3 213.4 16.9 219.7 17.05 221.0 17.05 Q212.2 35.35 187.35 48.85 L-220.6 48.85 Q-213.65 52.2 -207.4 57.9 L-206.7 58.55 -208.8 56.7 Q-212.7 53.4 -217.25 50.7 L-221.0 48.65 Q-220.6 38.1 -211.35 25.45 -206.75 19.1 -202.2 14.9 L-199.25 14.65 -198.7 14.6 Q-179.9 13.2 -127.7 13.0 -97.75 12.85 -56.75 13.1 L-111.1 7.2 -116.2 7.2 -109.65 3.65 Q-83.45 -11.0 -83.1 -18.8 -82.65 -27.15 -107.3 -29.65 -127.5 -31.75 -147.0 -29.3 L-136.35 -39.3 -119.65 -39.75 Q-115.35 -44.2 -113.95 -51.05 -110.8 -66.3 -128.85 -81.3 L-119.45 -85.8 -110.2 -73.5 Q-99.55 -60.85 -92.5 -59.3 -86.85 -58.05 -54.85 -59.3 -22.9 -60.55 -17.25 -59.3 -11.25 -57.95 -1.3 -52.8 L-86.85 -52.8 Q-86.05 -49.65 -82.6 -47.65 -80.85 -46.65 -79.3 -46.3 L10.2 -46.3 8.85 -47.15 19.9 -40.05 21.6 -39.8 Q28.9 -38.45 43.95 -30.7 L59.05 -22.45 59.0 -22.45 M200.1 22.7 Q199.25 21.9 198.05 21.9 L161.3 21.9 Q160.05 21.9 159.2 22.7 158.35 23.45 158.35 24.55 158.35 25.65 159.2 26.4 160.05 27.2 161.3 27.2 L198.05 27.2 Q199.25 27.2 200.1 26.4 200.95 25.65 200.95 24.55 200.95 23.45 200.1 22.7 M119.3 15.2 L118.9 15.2 118.2 15.2 118.9 15.2 119.3 15.2 M110.95 9.7 L79.1 9.7 110.95 9.7 M33.3 14.0 L29.85 13.95 Q-18.3 13.35 -56.75 13.1 -18.3 13.35 29.85 13.95 L33.3 14.0 M75.75 14.55 L52.7 14.25 75.75 14.55 M118.2 15.2 L117.15 15.2 84.7 14.7 81.6 14.65 79.1 14.6 81.6 14.65 84.7 14.7 117.15 15.2 118.2 15.2 M-93.85 7.1 L-91.15 7.5 -70.5 8.25 Q-66.85 8.4 -63.9 6.4 -61.0 4.45 -60.6 1.5 L-58.1 -16.45 Q-57.95 -17.7 -58.1 -18.55 L-58.1 -18.8 Q-57.65 -22.0 -59.45 -22.75 -61.25 -23.5 -64.25 -21.35 L-96.25 1.6 Q-99.2 3.7 -98.5 5.35 -97.75 6.95 -93.85 7.1 M-119.65 -39.75 L-66.3 -41.25 Q2.9 -42.55 19.9 -40.05 2.9 -42.55 -66.3 -41.25 L-119.65 -39.75" fill="#ffffff" fill-opacity="0.0" fill-rule="evenodd" stroke="none"/>
    <path d="M29.4 -20.8 L29.4 -21.1 29.4 -20.8 -11.85 -20.8 -37.35 -20.8 Q-40.2 -20.8 -42.2 -19.25 -44.2 -17.65 -44.2 -15.45 L-44.2 4.35 Q-44.2 6.55 -42.2 8.15 L-40.85 9.0 Q-42.95 8.7 -44.55 7.4 -46.55 5.8 -46.55 3.5 L-46.55 -16.9 Q-46.55 -19.2 -44.55 -20.8 -42.5 -22.45 -39.7 -22.45 L59.0 -22.45 60.85 -21.35 61.25 -21.15 61.85 -20.8 29.4 -20.8 M-1.3 -52.8 L4.5 -49.65 8.85 -47.15 10.2 -46.3 -79.3 -46.3 Q-80.85 -46.65 -82.6 -47.65 -86.05 -49.65 -86.85 -52.8 L-1.3 -52.8 M-58.1 -18.55 Q-58.4 -19.65 -59.35 -20.05 -61.0 -20.75 -63.75 -18.8 L-93.4 2.4 Q-96.15 4.35 -95.5 5.85 -95.15 6.7 -93.85 7.1 -97.75 6.95 -98.5 5.35 -99.2 3.7 -96.25 1.6 L-64.25 -21.35 Q-61.25 -23.5 -59.45 -22.75 -57.65 -22.0 -58.1 -18.8 L-58.1 -18.55" fill="#000000" fill-opacity="0.2" fill-rule="evenodd" stroke="none"/>
    <path d="M200.1 22.7 Q200.95 23.45 200.95 24.55 200.95 25.65 200.1 26.4 199.25 27.2 198.05 27.2 L161.3 27.2 Q160.05 27.2 159.2 26.4 158.35 25.65 158.35 24.55 158.35 23.45 159.2 22.7 160.05 21.9 161.3 21.9 L198.05 21.9 Q199.25 21.9 200.1 22.7 M199.25 24.05 Q198.5 23.55 197.35 23.55 L163.9 23.55 Q162.8 23.55 162.0 24.05 161.2 24.55 161.2 25.25 161.2 25.95 162.0 26.4 162.8 26.9 163.9 26.9 L197.35 26.9 199.25 26.4 Q200.05 25.95 200.05 25.25 200.05 24.55 199.25 24.05" fill="#000000" fill-opacity="0.4" fill-rule="evenodd" stroke="none"/>
    <path d="M199.25 24.05 Q200.05 24.55 200.05 25.25 200.05 25.95 199.25 26.4 L197.35 26.9 163.9 26.9 Q162.8 26.9 162.0 26.4 161.2 25.95 161.2 25.25 161.2 24.55 162.0 24.05 162.8 23.55 163.9 23.55 L197.35 23.55 Q198.5 23.55 199.25 24.05" fill="#000000" fill-opacity="0.29803923" fill-rule="evenodd" stroke="none"/>
    <path d="M61.85 -20.8 L61.25 -21.15 60.85 -21.35 59.0 -22.45 M103.7 5.0 L110.95 9.7 M111.0 9.7 L110.25 9.2 111.0 9.7 119.3 15.2 128.4 15.35 131.75 15.4 179.8 16.25 183.15 16.3 213.4 16.9 219.7 17.05 221.0 17.05 Q212.2 35.35 187.35 48.85 M-221.0 48.65 Q-220.6 38.1 -211.35 25.45 -206.75 19.1 -202.2 14.9 L-199.25 14.65 -198.7 14.6 M-56.75 13.1 L-111.1 7.2 -116.2 7.2 -109.65 3.65 Q-83.45 -11.0 -83.1 -18.8 -82.65 -27.15 -107.3 -29.65 -127.5 -31.75 -147.0 -29.3 L-136.35 -39.3 -119.65 -39.75 Q-115.35 -44.2 -113.95 -51.05 -110.8 -66.3 -128.85 -81.3 L-119.45 -85.8 -110.2 -73.5 Q-99.55 -60.85 -92.5 -59.3 -86.85 -58.05 -54.85 -59.3 -22.9 -60.55 -17.25 -59.3 -11.25 -57.95 -1.3 -52.8 L4.5 -49.65 8.85 -47.15 19.9 -40.05 21.6 -39.8 Q28.9 -38.45 43.95 -30.7 L59.05 -22.45 M10.2 -46.3 L8.85 -47.15 M61.9 -20.8 L62.05 -20.7 63.75 -19.7 64.1 -19.5 64.85 -19.05 68.5 -16.95 69.95 -16.05 72.5 -14.55 72.8 -14.35 77.1 -11.7 83.85 -7.6 96.55 0.4 M63.75 -19.7 L64.85 -19.05 M103.7 5.0 L102.85 4.45 M118.2 15.2 L118.9 15.2 119.3 15.2" fill="none" stroke="#000000" stroke-linecap="round" stroke-linejoin="round" stroke-width="1.0"/>
    <path d="M29.4 -21.1 L29.4 -20.8 M59.0 -22.45 L-39.7 -22.45 Q-42.5 -22.45 -44.55 -20.8 -46.55 -19.2 -46.55 -16.9 L-46.55 3.5 Q-46.55 5.8 -44.55 7.4 -42.95 8.7 -40.85 9.0 -39.3 9.7 -37.35 9.7 L-11.85 9.7 29.4 9.7 49.45 9.7 M33.3 14.0 L52.7 14.25 75.75 14.55 79.1 14.6 81.6 14.65 84.7 14.7 117.15 15.2 118.2 15.2 M79.1 9.7 L79.1 8.85 M-198.7 14.6 Q-179.9 13.2 -127.7 13.0 -97.75 12.85 -56.75 13.1 -18.3 13.35 29.85 13.95 L33.3 14.0 M96.55 0.4 L96.5 0.4 81.45 -8.95 77.1 -11.7 M61.85 -20.8 L61.9 -20.8 M79.1 9.7 L110.95 9.7 M-93.85 7.1 L-91.15 7.5 -70.5 8.25 Q-66.85 8.4 -63.9 6.4 -61.0 4.45 -60.6 1.5 L-58.1 -16.45 Q-57.95 -17.7 -58.1 -18.55 L-58.1 -18.8 Q-57.65 -22.0 -59.45 -22.75 -61.25 -23.5 -64.25 -21.35 L-96.25 1.6 Q-99.2 3.7 -98.5 5.35 -97.75 6.95 -93.85 7.1 M19.9 -40.05 Q2.9 -42.55 -66.3 -41.25 L-119.65 -39.75" fill="none" stroke="#000000" stroke-linecap="round" stroke-linejoin="round" stroke-opacity="0.6" stroke-width="1.0"/>
    <path d="M29.4 -20.8 L29.4 9.7 M-11.85 9.7 L-11.85 -20.8" fill="none" stroke="#000000" stroke-linecap="round" stroke-linejoin="round" stroke-opacity="0.4" stroke-width="1.0"/>
  </g>
</svg>
