<?xml version="1.0" encoding="UTF-8" standalone="no"?>
<svg xmlns:xlink="http://www.w3.org/1999/xlink" height="62.3px" width="369.05px" xmlns="http://www.w3.org/2000/svg">
  <g transform="matrix(1.0, 0.0, 0.0, 1.0, 197.35, -7.3)">
    <path d="M170.7 44.55 L167.6 44.85 165.1 45.05 162.1 45.35 159.6 45.55 139.6 47.45 139.05 47.5 137.95 47.6 127.35 48.6 Q82.4 53.05 74.55 54.9 L72.6 55.35 62.9 57.45 61.45 57.75 60.25 58.0 18.4 64.55 18.0 64.6 16.25 64.8 10.15 65.55 9.4 65.6 7.6 65.8 Q-57.15 72.95 -97.05 64.5 L-103.6 63.0 -144.65 47.35 -148.55 45.25 -160.2 38.3 -169.6 31.85 Q-175.3 27.7 -180.7 23.15 L-180.65 23.15 Q-157.3 28.75 -125.95 33.75 -69.3 42.8 -14.8 44.75 34.7 46.55 96.75 45.0 L171.7 42.0 170.7 44.55 M-148.55 45.25 L-147.3 45.9 -144.65 47.35 -147.3 45.9 -148.55 45.25" fill="#ffffff" fill-opacity="0.0" fill-rule="evenodd" stroke="none"/>
    <path d="M-196.85 7.8 L-183.9 8.9 Q-72.45 17.9 59.95 15.9 L164.45 12.6 164.45 16.15 96.25 17.9 Q5.5 19.75 -43.05 17.9 L-131.3 14.15 Q-172.1 11.95 -191.6 9.05 L-196.35 8.3 -196.85 7.8" fill="#ababab" fill-opacity="0.2" fill-rule="evenodd" stroke="none"/>
    <path d="M-196.85 7.8 L-196.35 8.3 M170.7 44.55 L167.6 44.85 165.1 45.05 162.1 45.35 159.6 45.55 139.6 47.45 139.05 47.5 137.95 47.6 127.35 48.6 Q82.4 53.05 74.55 54.9 L72.6 55.35 62.9 57.45 61.45 57.75 60.25 58.0 18.4 64.55 18.0 64.6 16.25 64.8 10.15 65.55 9.4 65.6 7.6 65.8 Q-57.15 72.95 -97.05 64.5 L-103.6 63.0 -144.65 47.35 -148.55 45.25 -160.2 38.3 -169.6 31.85 Q-175.3 27.7 -180.7 23.15 L-180.65 23.15 M-144.65 47.35 L-147.3 45.9 -148.55 45.25" fill="none" stroke="#231f20" stroke-linecap="round" stroke-linejoin="round" stroke-width="1.0"/>
  </g>
</svg>
