<?xml version="1.0" encoding="UTF-8" standalone="no"?>
<svg xmlns:xlink="http://www.w3.org/1999/xlink" height="60.7px" width="274.7px" xmlns="http://www.w3.org/2000/svg">
  <g transform="matrix(1.0, 0.0, 0.0, 1.0, 137.35, 30.45)">
    <path d="M114.55 -9.55 L112.95 -29.75 134.65 -29.75 135.75 -15.05 Q136.85 1.95 136.85 13.65 136.85 25.45 125.95 28.65 122.55 29.65 118.45 29.75 L115.05 29.55 Q115.95 13.75 114.55 -9.55" fill="#000000" fill-opacity="0.003921569" fill-rule="evenodd" stroke="none"/>
    <path d="M-134.65 -29.75 L-112.95 -29.75 -114.55 -9.55 Q-116.05 13.75 -115.15 29.55 -120.55 30.25 -125.95 28.65 -136.85 25.45 -136.85 13.65 -136.85 1.95 -135.75 -15.05 L-134.65 -29.75" fill="#000000" fill-opacity="0.003921569" fill-rule="evenodd" stroke="none"/>
    <path d="M114.55 -9.55 Q115.95 13.75 115.05 29.55 L118.45 29.75 Q122.55 29.65 125.95 28.65 136.85 25.45 136.85 13.65 136.85 1.95 135.75 -15.05 L134.65 -29.75 112.95 -29.75 114.55 -9.55 M-134.65 -29.75 L-112.95 -29.75 -114.55 -9.55 Q-116.05 13.75 -115.15 29.55 -120.55 30.25 -125.95 28.65 -136.85 25.45 -136.85 13.65 -136.85 1.95 -135.75 -15.05 L-134.65 -29.75" fill="none" stroke="#000000" stroke-linecap="butt" stroke-linejoin="miter-clip" stroke-miterlimit="4.0" stroke-opacity="0.6" stroke-width="1.0"/>
  </g>
</svg>
