<?xml version="1.0" encoding="UTF-8" standalone="no"?>
<svg xmlns:xlink="http://www.w3.org/1999/xlink" height="186.3px" width="277.1px" xmlns="http://www.w3.org/2000/svg">
  <g transform="matrix(1.0, 0.0, 0.0, 1.0, 169.65, 25.05)">
    <path d="M91.1 -2.4 Q90.95 -4.9 87.55 -6.25 93.05 -8.05 92.95 -9.9 100.2 -8.1 106.95 -3.85 97.95 -4.0 91.1 -2.4 M87.55 -6.25 Q96.6 -5.8 106.95 -3.85 96.6 -5.8 87.55 -6.25" fill="#ffffff" fill-opacity="0.49803922" fill-rule="evenodd" stroke="none"/>
    <path d="M-44.05 30.95 L-49.35 30.0 -62.6 27.55 Q-71.25 26.0 -73.85 26.4 L-97.25 35.8 -117.45 43.65 -120.25 44.75 -133.6 49.9 -136.55 50.05 Q-139.8 49.4 -140.8 46.15 -142.8 46.8 -145.8 45.75 -150.0 44.45 -152.05 40.2 -158.75 41.3 -162.75 37.9 -164.0 36.75 -164.25 33.85 -166.6 34.65 -167.85 32.45 -169.8 29.5 -168.85 25.85 L-73.8 1.7 -68.15 -0.6 -64.3 -2.1 -49.1 -8.0 Q-6.15 -21.55 20.6 -21.7 L60.25 -23.45 77.25 -24.3 Q88.95 -22.15 91.0 -17.95 93.05 -13.8 93.25 -11.65 L92.9 -9.9 92.95 -9.9 Q93.05 -8.05 87.55 -6.25 90.95 -4.9 91.1 -2.4 L91.1 -2.35 Q90.7 -0.3 84.65 3.05 L74.45 8.1 56.5 16.4 Q48.65 19.95 47.3 20.75 40.45 24.85 28.65 27.8 L25.7 28.55 25.5 27.85 25.6 28.3 25.65 28.55 Q27.0 33.65 29.4 40.25 32.55 49.05 37.65 60.4 42.45 71.05 42.5 81.85 42.45 93.6 36.85 103.75 32.35 111.7 16.0 132.3 -2.3 155.4 -9.9 160.75 -17.25 150.9 -16.25 133.65 L-13.75 117.0 -12.75 109.45 -16.75 113.0 Q-37.2 130.95 -44.95 134.75 -49.65 125.0 -45.6 109.85 L-40.35 95.45 -37.9 88.35 Q-34.85 78.55 -34.4 74.15 -33.85 67.5 -36.75 60.05 -46.25 49.8 -44.05 30.95 L-44.0 30.95 -44.05 30.95 M-35.3 32.75 L-43.8 30.95 -44.0 30.95 -43.8 30.95 -35.3 32.75 Q-35.85 38.95 -35.5 42.65 -35.0 47.55 -33.45 52.2 -29.65 63.5 -17.8 77.65 -12.95 85.35 -12.05 92.75 -11.55 97.6 -12.7 108.9 L-12.75 109.45 -12.7 108.9 Q-11.55 97.6 -12.05 92.75 -12.95 85.35 -17.8 77.65 -29.65 63.5 -33.45 52.2 -35.0 47.55 -35.5 42.65 -35.85 38.95 -35.3 32.75 L-35.25 32.75 -35.2 32.05 -35.3 32.75 M-33.4 16.75 Q-34.65 25.5 -35.2 32.05 -34.65 25.5 -33.4 16.75 M24.8 28.75 L25.65 28.55 24.8 28.75 M35.75 3.75 Q22.55 13.35 25.5 27.85 22.55 13.35 35.75 3.75" fill="#ffffff" fill-opacity="0.0" fill-rule="evenodd" stroke="none"/>
    <path d="M92.95 -9.9 L92.9 -9.9 93.25 -11.65 Q93.05 -13.8 91.0 -17.95 88.95 -22.15 77.25 -24.3 L60.25 -23.45 20.6 -21.7 Q-6.15 -21.55 -49.1 -8.0 L-64.3 -2.1 -68.15 -0.6 -73.8 1.7 -168.85 25.85 Q-169.8 29.5 -167.85 32.45 -166.6 34.65 -164.25 33.85 -164.0 36.75 -162.75 37.9 -158.75 41.3 -152.05 40.2 -150.0 44.45 -145.8 45.75 -142.8 46.8 -140.8 46.15 -139.8 49.4 -136.55 50.05 L-133.6 49.9 -120.25 44.75 -117.45 43.65 -97.25 35.8 -73.85 26.4 Q-71.25 26.0 -62.6 27.55 L-49.35 30.0 -44.05 30.95 -44.0 30.95 M-35.3 32.75 L-35.2 32.05 -35.25 32.75 -35.3 32.75 M92.95 -9.9 Q100.2 -8.1 106.95 -3.85 97.95 -4.0 91.1 -2.4 M25.7 28.55 L28.65 27.8 Q40.45 24.85 47.3 20.75 48.65 19.95 56.5 16.4 L74.45 8.1 84.65 3.05 Q90.7 -0.3 91.1 -2.35 M25.6 28.3 L25.65 28.5 25.65 28.55 25.7 28.55 M25.5 27.85 L25.6 28.3 M25.65 28.55 Q27.0 33.65 29.4 40.25 32.55 49.05 37.65 60.4 42.45 71.05 42.5 81.85 42.45 93.6 36.85 103.75 32.35 111.7 16.0 132.3 -2.3 155.4 -9.9 160.75 -17.25 150.9 -16.25 133.65 L-13.75 117.0 -12.75 109.45 -16.75 113.0 Q-37.2 130.95 -44.95 134.75 -49.65 125.0 -45.6 109.85 L-40.35 95.45 -37.9 88.35 Q-34.85 78.55 -34.4 74.15 -33.85 67.5 -36.75 60.05 -46.25 49.8 -44.05 30.95 M25.65 28.55 L24.8 28.75" fill="none" stroke="#000000" stroke-linecap="round" stroke-linejoin="round" stroke-width="1.0"/>
    <path d="M-44.0 30.95 L-43.8 30.95 -35.3 32.75 Q-35.85 38.95 -35.5 42.65 -35.0 47.55 -33.45 52.2 -29.65 63.5 -17.8 77.65 -12.95 85.35 -12.05 92.75 -11.55 97.6 -12.7 108.9 L-12.75 109.45 M-35.2 32.05 Q-34.65 25.5 -33.4 16.75 M91.1 -2.35 L91.1 -2.4 M87.55 -6.25 Q93.05 -8.05 92.95 -9.9 M106.95 -3.85 Q96.6 -5.8 87.55 -6.25 M25.5 27.85 Q22.55 13.35 35.75 3.75" fill="none" stroke="#000000" stroke-linecap="round" stroke-linejoin="round" stroke-opacity="0.4" stroke-width="1.0"/>
    <path d="M83.25 -12.3 Q84.2 -11.35 84.2 -9.85 84.2 -8.35 83.25 -7.4 82.35 -6.4 80.9 -6.35 79.5 -6.4 78.45 -7.4 77.5 -8.35 77.55 -9.85 77.7 -11.35 78.6 -12.3 79.5 -13.3 80.9 -13.35 82.35 -13.3 83.25 -12.3 M80.9 -11.15 Q80.85 -12.1 79.95 -12.2 78.95 -12.1 78.9 -11.15 78.95 -10.25 79.95 -10.1 80.85 -10.25 80.9 -11.15" fill="#000000" fill-opacity="0.8980392" fill-rule="evenodd" stroke="none"/>
    <path d="M80.9 -11.15 Q80.85 -10.25 79.95 -10.1 78.95 -10.25 78.9 -11.15 78.95 -12.1 79.95 -12.2 80.85 -12.1 80.9 -11.15" fill="#ffffff" fill-opacity="0.7490196" fill-rule="evenodd" stroke="none"/>
    <path d="M83.25 -12.3 Q82.35 -13.3 80.9 -13.35 79.5 -13.3 78.6 -12.3 77.7 -11.35 77.55 -9.85 77.5 -8.35 78.45 -7.4 79.5 -6.4 80.9 -6.35 82.35 -6.4 83.25 -7.4 84.2 -8.35 84.2 -9.85 84.2 -11.35 83.25 -12.3 Z" fill="none" stroke="#ffffff" stroke-linecap="round" stroke-linejoin="round" stroke-opacity="0.49803922" stroke-width="1.0"/>
  </g>
</svg>
