<?xml version="1.0" encoding="UTF-8" standalone="no"?>
<svg xmlns:xlink="http://www.w3.org/1999/xlink" height="13.4px" width="225.9px" xmlns="http://www.w3.org/2000/svg">
  <g transform="matrix(1.0, 0.0, 0.0, 1.0, 112.95, 6.7)">
    <path d="M98.7 -5.45 L103.5 -6.35 Q108.8 -7.05 110.9 -5.95 L111.8 -4.95 Q112.7 -3.75 112.8 -2.55 113.1 -0.55 112.8 5.05 L111.6 4.55 110.4 -2.35 108.7 -3.45 Q108.7 7.25 108.0 6.65 107.6 6.25 107.3 2.45 L107.1 -1.25 105.9 -5.05 104.8 -5.25 Q103.7 -5.45 103.7 -4.85 103.7 -3.95 104.9 -0.35 103.7 6.15 103.7 4.15 L103.2 -2.75 102.5 -5.45 100.1 -3.95 97.2 5.25 97.2 -3.05 Q97.2 -3.75 96.7 -4.25 96.2 -4.75 95.5 -4.55 94.9 -4.45 94.1 -3.55 L93.4 -2.75 93.8 3.25 Q94.0 3.85 93.7 4.95 93.4 6.05 92.9 5.95 91.9 5.65 91.9 2.35 L91.4 -0.75 90.5 1.45 89.5 5.45 86.2 5.25 87.6 -3.95 91.2 -4.55 Q91.9 -4.85 92.2 -3.45 L94.1 -5.25 98.7 -5.45 M-102.5 -5.55 L-103.2 -2.95 -103.7 3.65 Q-103.7 5.55 -104.9 -0.65 -103.7 -4.05 -103.7 -4.95 -103.7 -5.45 -104.8 -5.35 L-105.9 -5.15 -107.1 -1.45 Q-107.3 5.35 -108.0 5.95 -108.8 6.65 -108.8 -3.65 L-110.4 -2.55 -111.6 4.05 -112.8 4.45 Q-113.1 -0.85 -112.8 -2.75 -112.7 -3.95 -111.8 -5.05 L-110.9 -5.95 Q-107.6 -7.65 -98.7 -5.55 L-94.1 -5.35 -92.2 -3.65 -92.0 -4.25 Q-91.6 -4.85 -91.2 -4.65 L-87.6 -4.05 -86.2 4.65 -89.5 4.95 -90.5 1.05 -91.5 -1.05 -91.9 1.95 Q-91.9 5.05 -92.9 5.35 -93.4 5.45 -93.7 4.35 -94.1 3.35 -93.9 2.75 -93.6 2.15 -93.4 -2.95 -94.6 -4.45 -95.5 -4.65 -96.2 -4.85 -96.7 -4.35 -97.2 -3.85 -97.2 -3.15 L-97.2 4.65 -100.1 -4.05 -102.5 -5.55" fill="#ffffff" fill-opacity="0.49803922" fill-rule="evenodd" stroke="none"/>
  </g>
</svg>
