<?xml version="1.0" encoding="UTF-8" standalone="no"?>
<svg xmlns:xlink="http://www.w3.org/1999/xlink" height="33.9px" width="21.95px" xmlns="http://www.w3.org/2000/svg">
  <g transform="matrix(1.0, 0.0, 0.0, 1.0, 10.95, 14.75)">
    <path d="M4.85 -14.25 Q5.5 -14.25 5.3 -13.65 5.1 -13.0 4.6 -13.3 L3.45 -11.55 3.45 -3.3 6.7 4.6 Q10.25 12.7 10.45 13.7 10.75 15.35 9.8 16.85 8.65 18.65 6.35 18.65 L2.7 18.65 0.05 18.6 -2.65 18.65 -6.3 18.65 Q-8.6 18.65 -9.75 16.85 -10.7 15.35 -10.4 13.7 -10.2 12.7 -6.65 4.6 L-3.4 -3.3 -3.4 -11.55 -4.55 -13.3 Q-5.05 -13.0 -5.25 -13.65 -5.45 -14.25 -4.8 -14.25 L4.85 -14.25" fill="#ffffff" fill-opacity="0.2" fill-rule="evenodd" stroke="none"/>
    <path d="M4.85 -14.25 L-4.8 -14.25 Q-5.45 -14.25 -5.25 -13.65 -5.05 -13.0 -4.55 -13.3 L-3.4 -11.55 -3.4 -3.3 -6.65 4.6 Q-10.2 12.7 -10.4 13.7 -10.7 15.35 -9.75 16.85 -8.6 18.65 -6.3 18.65 L-2.65 18.65 0.05 18.6 2.7 18.65 6.35 18.65 Q8.65 18.65 9.8 16.85 10.75 15.35 10.45 13.7 10.25 12.7 6.7 4.6 L3.45 -3.3 3.45 -11.55 4.6 -13.3 Q5.1 -13.0 5.3 -13.65 5.5 -14.25 4.85 -14.25 Z" fill="none" stroke="#000000" stroke-linecap="round" stroke-linejoin="round" stroke-width="1.0"/>
  </g>
</svg>
