<?xml version="1.0" encoding="UTF-8" standalone="no"?>
<svg xmlns:xlink="http://www.w3.org/1999/xlink" height="9.85px" width="19.7px" xmlns="http://www.w3.org/2000/svg">
  <g transform="matrix(1.0, 0.0, 0.0, 1.0, 9.85, 4.95)">
    <path d="M2.95 -2.0 Q3.7 -2.0 4.25 -1.55 L3.9 -0.55 5.25 -0.1 5.6 -1.05 7.1 -0.45 6.75 0.45 Q7.65 0.5 8.05 1.1 L8.1 0.95 8.4 0.25 Q8.9 -0.05 9.3 0.65 9.5 0.8 8.8 2.75 L7.95 4.4 Q7.15 4.4 6.95 4.0 L7.3 3.1 Q6.55 3.05 6.05 2.65 L5.7 3.55 Q4.75 3.45 4.2 3.05 L4.55 2.05 Q3.7 2.1 3.15 1.55 L2.85 2.45 Q1.75 2.25 1.55 1.9 L1.8 1.05 1.3 0.9 0.7 0.6 0.45 1.5 Q-0.3 1.6 -0.9 1.15 L-0.75 0.25 -2.35 -0.05 -2.5 0.9 -3.9 0.65 -3.7 -0.25 Q-4.3 -0.15 -5.05 -0.55 L-5.35 0.45 -6.85 0.2 -6.65 -0.75 -8.0 -1.0 -8.1 -0.05 -9.2 -0.2 Q-9.5 -0.9 -9.25 -2.15 -9.05 -3.75 -8.35 -4.4 L-7.45 -4.25 -7.55 -3.25 -6.25 -3.0 -6.1 -4.0 -4.45 -3.75 -4.65 -2.75 -3.25 -2.5 -3.05 -3.5 Q-2.25 -3.65 -1.75 -3.25 L-1.9 -2.25 -0.3 -1.95 -0.05 -3.0 Q0.8 -3.1 1.6 -2.55 L1.35 -1.55 1.7 -1.45 2.6 -1.0 2.95 -2.0" fill="#ffffff" fill-opacity="0.0" fill-rule="evenodd" stroke="none"/>
    <path d="M2.95 -2.0 L2.6 -1.0 1.7 -1.45 1.35 -1.55 1.6 -2.55 Q0.8 -3.1 -0.05 -3.0 L-0.3 -1.95 -1.9 -2.25 -1.75 -3.25 Q-2.25 -3.65 -3.05 -3.5 L-3.25 -2.5 -4.65 -2.75 -4.45 -3.75 -6.1 -4.0 -6.25 -3.0 -7.55 -3.25 -7.45 -4.25 -8.35 -4.4 Q-9.05 -3.75 -9.25 -2.15 -9.5 -0.9 -9.2 -0.2 L-8.1 -0.05 -8.0 -1.0 -6.65 -0.75 -6.85 0.2 -5.35 0.45 -5.05 -0.55 Q-4.3 -0.15 -3.7 -0.25 L-3.9 0.65 -2.5 0.9 -2.35 -0.05 -0.75 0.25 -0.9 1.15 Q-0.3 1.6 0.45 1.5 L0.7 0.6 1.3 0.9 1.8 1.05 1.55 1.9 Q1.75 2.25 2.85 2.45 L3.15 1.55 Q3.7 2.1 4.55 2.05 L4.2 3.05 Q4.75 3.45 5.7 3.55 L6.05 2.65 Q6.55 3.05 7.3 3.1 L6.95 4.0 Q7.15 4.4 7.95 4.4 L8.8 2.75 Q9.5 0.8 9.3 0.65 8.9 -0.05 8.4 0.25 L8.1 0.95 8.05 1.1 Q7.65 0.5 6.75 0.45 L7.1 -0.45 5.6 -1.05 5.25 -0.1 3.9 -0.55 4.25 -1.55 Q3.7 -2.0 2.95 -2.0 Z" fill="none" stroke="#000000" stroke-linecap="round" stroke-linejoin="round" stroke-width="1.0"/>
  </g>
</svg>
