<?xml version="1.0" encoding="UTF-8" standalone="no"?>
<svg xmlns:xlink="http://www.w3.org/1999/xlink" height="77.9px" width="69.05px" xmlns="http://www.w3.org/2000/svg">
  <g transform="matrix(1.0, 0.0, 0.0, 1.0, 34.5, 29.95)">
    <path d="M-30.5 -28.65 L-28.35 -28.0 -25.2 -27.05 -25.15 -27.05 -23.75 -29.4 -23.7 -29.45 30.8 -28.65 34.05 43.15 -25.3 47.45 -34.0 42.1 -30.5 -28.65" fill="#ffffff" fill-opacity="0.0" fill-rule="evenodd" stroke="none"/>
    <path d="M-30.5 -28.65 L-34.0 42.1 -25.3 47.45 34.05 43.15 30.8 -28.65 -23.7 -29.45 -23.75 -29.4 -25.15 -27.05 -25.2 -27.05 -28.35 -28.0 -30.5 -28.65 Z" fill="none" stroke="#000000" stroke-linecap="round" stroke-linejoin="round" stroke-width="1.0"/>
    <path d="M-34.0 42.1 L-27.95 40.9 -25.2 -27.05 M-27.95 40.9 L-25.3 47.45" fill="none" stroke="#000000" stroke-linecap="round" stroke-linejoin="round" stroke-opacity="0.4" stroke-width="1.0"/>
    <path d="M-25.3 47.45 L-23.75 -29.4" fill="none" stroke="#000000" stroke-linecap="round" stroke-linejoin="round" stroke-opacity="0.6" stroke-width="1.0"/>
  </g>
</svg>
