<?xml version="1.0" encoding="UTF-8" standalone="no"?>
<svg xmlns:xlink="http://www.w3.org/1999/xlink" height="37.35px" width="26.5px" xmlns="http://www.w3.org/2000/svg">
  <g transform="matrix(1.0, 0.0, 0.0, 1.0, 13.25, 18.65)">
    <path d="M-12.0 -7.3 Q-13.6 -9.35 -13.15 -12.25 -12.7 -15.3 -10.25 -16.75 -4.95 -20.05 1.5 -17.65 7.4 -15.45 11.25 -9.95 L12.5 -6.45 Q14.05 -0.5 12.35 5.75 10.65 11.8 6.4 16.25 4.1 17.75 1.65 18.7 5.0 16.3 7.45 13.05 12.4 5.2 10.95 -3.15 9.4 -11.7 1.85 -15.85 -0.95 -17.25 -4.55 -16.65 -8.15 -16.05 -10.25 -13.95 -12.85 -10.15 -12.0 -7.3 -10.7 -5.65 -8.55 -5.6 L-11.2 -5.6 Q-11.8 -6.5 -12.0 -7.3" fill="#ffffff" fill-opacity="0.0" fill-rule="evenodd" stroke="none"/>
  </g>
</svg>
