<?xml version="1.0" encoding="UTF-8" standalone="no"?>
<svg xmlns:xlink="http://www.w3.org/1999/xlink" height="85.9px" width="7.1px" xmlns="http://www.w3.org/2000/svg">
  <g transform="matrix(1.0, 0.0, 0.0, 1.0, 3.95, 41.1)">
    <path d="M2.55 -40.0 L2.65 -35.95 Q2.45 -31.25 2.6 -30.55 L2.65 -29.5 Q1.8 -26.4 1.8 -22.85 L2.0 12.15 2.3 16.45 2.35 17.4 Q2.7 20.75 2.5 32.05 L2.4 40.5 2.1 43.85 Q1.7 44.35 -0.75 44.3 -3.2 44.15 -3.35 43.6 L-3.45 40.5 -3.3 31.65 Q-3.05 19.7 -2.55 17.4 -2.3 15.95 -2.15 12.3 L-2.05 12.1 -1.95 10.3 -1.65 5.5 -1.55 -10.95 Q-1.55 -26.05 -1.75 -27.0 L-2.05 -29.8 -2.05 -30.6 -2.6 -35.95 -2.35 -40.2 Q-2.0 -40.65 0.2 -40.6 2.45 -40.5 2.55 -40.0" fill="#ffffff" fill-opacity="0.0" fill-rule="evenodd" stroke="none"/>
    <path d="M2.55 -40.0 L2.65 -35.95 Q2.45 -31.25 2.6 -30.55 L2.65 -29.5 Q1.8 -26.4 1.8 -22.85 L2.0 12.15 2.3 16.45 2.35 17.4 Q2.7 20.75 2.5 32.05 L2.4 40.5 2.1 43.85 Q1.7 44.35 -0.75 44.3 -3.2 44.15 -3.35 43.6 L-3.45 40.5 -3.3 31.65 Q-3.05 19.7 -2.55 17.4 -2.3 15.95 -2.15 12.3 L-2.05 12.1 -1.95 10.3 -1.65 5.5 -1.55 -10.95 Q-1.55 -26.05 -1.75 -27.0 L-2.05 -29.8 -2.05 -30.6 -2.6 -35.95 -2.35 -40.2 Q-2.0 -40.65 0.2 -40.6 2.45 -40.5 2.55 -40.0 Z" fill="none" stroke="#000000" stroke-linecap="butt" stroke-linejoin="round" stroke-width="1.0"/>
  </g>
</svg>
