<?xml version="1.0" encoding="UTF-8" standalone="no"?>
<svg xmlns:xlink="http://www.w3.org/1999/xlink" height="29.55px" width="142.7px" xmlns="http://www.w3.org/2000/svg">
  <g transform="matrix(1.0, 0.0, 0.0, 1.0, 69.0, 17.85)">
    <path d="M14.85 -6.3 Q16.9 -4.6 17.05 -2.6 L17.05 -2.35 Q17.05 -0.75 15.9 0.6 14.45 2.3 11.2 3.65 5.35 6.15 -2.95 6.15 -11.25 6.15 -17.1 3.65 -20.35 2.3 -21.75 0.6 -22.95 -0.75 -22.95 -2.35 L-22.95 -2.6 Q-22.8 -4.6 -20.75 -6.3 -19.35 -7.45 -17.1 -8.4 -11.25 -10.9 -2.95 -10.9 5.35 -10.9 11.2 -8.4 13.45 -7.45 14.85 -6.3" fill="#000000" fill-opacity="0.4" fill-rule="evenodd" stroke="none"/>
    <path d="M15.9 0.6 Q17.05 -0.75 17.05 -2.35 L17.05 -2.6 Q16.9 -4.6 14.85 -6.3 L52.5 -6.3 52.5 -14.55 -47.35 -14.55 -47.35 -6.3 -20.75 -6.3 Q-22.8 -4.6 -22.95 -2.6 L-22.95 -2.35 Q-22.95 -0.75 -21.75 0.6 L-47.35 0.6 -47.35 8.9 52.5 8.9 52.5 0.6 15.9 0.6 M17.05 -2.6 L72.25 -2.6 17.05 -2.6 M73.2 11.2 L-68.5 11.2 -68.5 -2.6 -68.5 -17.35 73.2 -17.35 73.2 11.2 M-68.5 -2.6 L-22.95 -2.6 -68.5 -2.6" fill="#ffffff" fill-opacity="0.0" fill-rule="evenodd" stroke="none"/>
    <path d="M14.85 -6.3 Q13.45 -7.45 11.2 -8.4 5.35 -10.9 -2.95 -10.9 -11.25 -10.9 -17.1 -8.4 -19.35 -7.45 -20.75 -6.3 L-47.35 -6.3 -47.35 -14.55 52.5 -14.55 52.5 -6.3 14.85 -6.3 M-21.75 0.6 Q-20.35 2.3 -17.1 3.65 -11.25 6.15 -2.95 6.15 5.35 6.15 11.2 3.65 14.45 2.3 15.9 0.6 L52.5 0.6 52.5 8.9 -47.35 8.9 -47.35 0.6 -21.75 0.6" fill="#000000" fill-opacity="0.2" fill-rule="evenodd" stroke="none"/>
    <path d="M73.2 11.2 L-68.5 11.2 -68.5 -2.6 -68.5 -17.35 73.2 -17.35 73.2 11.2" fill="none" stroke="#000000" stroke-linecap="butt" stroke-linejoin="miter-clip" stroke-miterlimit="10.0" stroke-width="1.0"/>
    <path d="M15.9 0.6 Q17.05 -0.75 17.05 -2.35 L17.05 -2.6 Q16.9 -4.6 14.85 -6.3 13.45 -7.45 11.2 -8.4 5.35 -10.9 -2.95 -10.9 -11.25 -10.9 -17.1 -8.4 -19.35 -7.45 -20.75 -6.3 -22.8 -4.6 -22.95 -2.6 L-22.95 -2.35 Q-22.95 -0.75 -21.75 0.6 -20.35 2.3 -17.1 3.65 -11.25 6.15 -2.95 6.15 5.35 6.15 11.2 3.65 14.45 2.3 15.9 0.6 M72.25 -2.6 L17.05 -2.6 M-22.95 -2.6 L-68.5 -2.6" fill="none" stroke="#000000" stroke-linecap="butt" stroke-linejoin="miter-clip" stroke-miterlimit="10.0" stroke-opacity="0.6" stroke-width="1.0"/>
  </g>
</svg>
