<?xml version="1.0" encoding="UTF-8" standalone="no"?>
<svg xmlns:xlink="http://www.w3.org/1999/xlink" height="22.75px" width="291.05px" xmlns="http://www.w3.org/2000/svg">
  <g transform="matrix(1.0, 0.0, 0.0, 1.0, 95.15, 11.2)">
    <path d="M23.95 -1.75 L33.35 2.15 Q44.0 6.2 58.05 3.8 68.75 1.95 80.65 -3.45 91.45 -8.35 100.25 -9.8 112.7 -11.9 124.05 -8.1 129.05 -6.45 136.15 -3.3 145.55 0.7 150.15 2.05 157.95 4.25 164.9 3.55 171.65 2.9 178.35 0.9 186.2 -1.45 188.55 -4.25 189.25 -5.05 190.25 -5.15 191.3 -5.2 192.1 -4.55 192.9 -3.9 193.0 -2.85 193.05 -1.85 192.4 -1.05 188.55 3.6 176.65 6.55 L165.4 8.55 Q157.65 9.3 149.0 6.9 144.0 5.5 134.2 1.3 126.6 -2.0 122.5 -3.35 113.55 -6.35 103.95 -5.25 94.4 -4.2 82.7 1.1 70.0 6.85 58.5 8.8 43.35 11.3 31.6 6.85 L21.95 2.8 Q11.85 -1.6 6.85 -2.8 -1.4 -4.8 -9.55 -2.9 -15.85 -1.45 -27.45 3.35 L-37.65 7.35 Q-43.45 9.35 -48.4 10.3 L-56.9 11.05 Q-63.4 11.05 -75.1 8.75 -86.2 6.55 -92.2 6.5 -93.2 6.5 -93.95 5.75 -94.7 5.0 -94.65 4.0 -94.65 2.95 -93.9 2.25 -93.2 1.5 -92.15 1.5 -85.65 1.55 -74.15 3.85 L-61.85 5.85 -49.3 5.4 Q-44.7 4.55 -39.3 2.6 L-29.35 -1.3 Q-17.2 -6.3 -10.65 -7.8 -1.45 -9.85 7.8 -7.7 13.3 -6.4 23.95 -1.75" fill="#ffffff" fill-opacity="0.0" fill-rule="evenodd" stroke="none"/>
    <path d="M23.95 -1.75 L33.35 2.15 Q44.0 6.2 58.05 3.8 68.75 1.95 80.65 -3.45 91.45 -8.35 100.25 -9.8 112.7 -11.9 124.05 -8.1 129.05 -6.45 136.15 -3.3 145.55 0.7 150.15 2.05 157.95 4.25 164.9 3.55 171.65 2.9 178.35 0.9 186.2 -1.45 188.55 -4.25 189.25 -5.05 190.25 -5.15 191.3 -5.2 192.1 -4.55 192.9 -3.9 193.0 -2.85 193.05 -1.85 192.4 -1.05 188.55 3.6 176.65 6.55 L165.4 8.55 Q157.65 9.3 149.0 6.9 144.0 5.5 134.2 1.3 126.6 -2.0 122.5 -3.35 113.55 -6.35 103.95 -5.25 94.4 -4.2 82.7 1.1 70.0 6.85 58.5 8.8 43.35 11.3 31.6 6.85 L21.95 2.8 Q11.85 -1.6 6.85 -2.8 -1.4 -4.8 -9.55 -2.9 -15.85 -1.45 -27.45 3.35 L-37.65 7.35 Q-43.45 9.35 -48.4 10.3 L-56.9 11.05 Q-63.4 11.05 -75.1 8.75 -86.2 6.55 -92.2 6.5 -93.2 6.5 -93.95 5.75 -94.7 5.0 -94.65 4.0 -94.65 2.95 -93.9 2.25 -93.2 1.5 -92.15 1.5 -85.65 1.55 -74.15 3.85 L-61.85 5.85 -49.3 5.4 Q-44.7 4.55 -39.3 2.6 L-29.35 -1.3 Q-17.2 -6.3 -10.65 -7.8 -1.45 -9.85 7.8 -7.7 13.3 -6.4 23.95 -1.75 Z" fill="none" stroke="#000000" stroke-linecap="butt" stroke-linejoin="miter-clip" stroke-miterlimit="10.0" stroke-opacity="0.6" stroke-width="1.0"/>
  </g>
</svg>
