<?xml version="1.0" encoding="UTF-8" standalone="no"?>
<svg xmlns:xlink="http://www.w3.org/1999/xlink" height="47.35px" width="167.1px" xmlns="http://www.w3.org/2000/svg">
  <g transform="matrix(1.0, 0.0, 0.0, 1.0, 83.55, 23.65)">
    <path d="M46.3 -20.5 L46.3 -19.45 62.85 -19.45 62.85 -20.5 46.3 -20.5 M46.3 -18.15 L46.3 -17.05 62.85 -17.05 62.85 -18.15 46.3 -18.15 M39.05 -17.9 Q39.6 -17.35 40.35 -17.35 41.15 -17.35 41.75 -17.9 42.3 -18.45 42.3 -19.25 42.3 -20.05 41.75 -20.6 41.15 -21.15 40.35 -21.15 39.6 -21.15 39.05 -20.6 38.45 -20.05 38.45 -19.25 38.45 -18.45 39.05 -17.9 M69.75 -19.55 L69.75 -23.15 69.75 -19.55 69.75 -14.55 -16.75 -14.55 -15.85 -7.35 -16.0 -7.05 -0.75 -7.05 -0.75 6.65 46.35 6.7 46.85 5.6 69.5 5.6 Q69.7 8.2 68.9 9.6 68.55 10.3 68.1 10.45 L30.05 10.45 Q22.85 21.5 20.8 23.0 19.15 24.2 2.2 18.95 L-9.8 15.2 Q-15.55 13.4 -16.4 13.4 -18.0 13.4 -19.3 15.35 L-21.6 18.2 Q-22.95 19.0 -24.35 18.0 L-26.8 15.4 Q-27.8 14.15 -25.35 10.3 L-22.75 6.65 -22.75 -0.45 -22.2 -1.4 -22.75 -0.5 -33.05 -0.5 Q-39.8 4.9 -42.85 12.8 -44.4 16.75 -44.6 19.65 L-56.45 19.65 Q-61.25 18.5 -56.5 10.2 -53.85 5.55 -49.25 0.2 -47.9 -1.35 -46.65 -3.95 L-45.65 -6.25 -65.45 -6.25 -65.45 -8.95 Q-74.1 -8.95 -75.15 -9.15 -76.45 -9.35 -78.65 -11.05 L-80.55 -12.75 -83.05 -12.75 -83.05 -20.25 -75.5 -20.35 -75.5 -12.75 -67.6 -12.75 -67.6 -11.3 -65.45 -11.3 -65.45 -15.95 -56.1 -15.85 -56.1 -23.15 69.75 -23.15 83.05 -23.15 83.05 -19.55 69.75 -19.55 M-16.75 -14.55 L-16.9 -15.6 -56.1 -15.85 -16.9 -15.6 -16.75 -14.55 M17.6 15.4 L20.8 11.4 -7.6 9.4 17.6 15.4 M-21.5 -21.55 L-21.5 -19.95 -4.95 -19.95 -4.95 -21.55 -21.5 -21.55 M-31.95 -7.7 Q-32.8 -6.35 -31.9 -5.05 -31.2 -4.0 -29.85 -3.4 L-22.65 -3.4 -21.65 -4.45 Q-20.55 -5.75 -20.15 -6.8 -19.65 -7.85 -20.95 -8.8 L-22.3 -9.5 -26.5 -9.5 -26.95 -8.85 Q-27.75 -7.05 -25.25 -4.85 L-25.8 -4.7 -27.45 -4.85 Q-29.35 -5.3 -30.95 -6.6 L-31.95 -7.7 Q-31.45 -8.6 -30.2 -9.5 L-26.5 -9.5 -30.2 -9.5 Q-31.45 -8.6 -31.95 -7.7 M-22.2 -1.4 L-21.8 -2.1 -19.05 -7.05 -16.0 -7.05 -19.05 -7.05 -21.8 -2.1 -22.2 -1.4 M-0.75 6.65 L-22.75 6.65 -0.75 6.65" fill="#ffffff" fill-opacity="0.0" fill-rule="evenodd" stroke="none"/>
    <path d="M39.05 -17.9 Q38.45 -18.45 38.45 -19.25 38.45 -20.05 39.05 -20.6 39.6 -21.15 40.35 -21.15 41.15 -21.15 41.75 -20.6 42.3 -20.05 42.3 -19.25 42.3 -18.45 41.75 -17.9 41.15 -17.35 40.35 -17.35 39.6 -17.35 39.05 -17.9 M46.3 -18.15 L62.85 -18.15 62.85 -17.05 46.3 -17.05 46.3 -18.15 M46.3 -20.5 L62.85 -20.5 62.85 -19.45 46.3 -19.45 46.3 -20.5 M-21.5 -21.55 L-4.95 -21.55 -4.95 -19.95 -21.5 -19.95 -21.5 -21.55" fill="#0f0e10" fill-opacity="0.4" fill-rule="evenodd" stroke="none"/>
    <path d="M39.05 -17.9 Q38.45 -18.45 38.45 -19.25 38.45 -20.05 39.05 -20.6 39.6 -21.15 40.35 -21.15 41.15 -21.15 41.75 -20.6 42.3 -20.05 42.3 -19.25 42.3 -18.45 41.75 -17.9 41.15 -17.35 40.35 -17.35 39.6 -17.35 39.05 -17.9 M46.3 -18.15 L62.85 -18.15 62.85 -17.05 46.3 -17.05 46.3 -18.15 M46.3 -20.5 L62.85 -20.5 62.85 -19.45 46.3 -19.45 46.3 -20.5 M17.6 15.4 L-7.6 9.4 20.8 11.4 17.6 15.4 M-21.5 -21.55 L-4.95 -21.55 -4.95 -19.95 -21.5 -19.95 -21.5 -21.55" fill="none" stroke="#000000" stroke-linecap="butt" stroke-linejoin="miter-clip" stroke-miterlimit="10.0" stroke-width="1.0"/>
    <path d="M69.75 -23.15 L69.75 -19.55 83.05 -19.55 83.05 -23.15 69.75 -23.15 -56.1 -23.15 -56.1 -15.85 -16.9 -15.6 -16.75 -14.55 69.75 -14.55 69.75 -19.55 M-16.75 -14.55 L-15.85 -7.35 -16.0 -7.05 -0.75 -7.05 -0.75 6.65 46.35 6.7 46.85 5.6 69.5 5.6 Q69.7 8.2 68.9 9.6 68.55 10.3 68.1 10.45 L30.05 10.45 Q22.85 21.5 20.8 23.0 19.15 24.2 2.2 18.95 L-9.8 15.2 Q-15.55 13.4 -16.4 13.4 -18.0 13.4 -19.3 15.35 L-21.6 18.2 Q-22.95 19.0 -24.35 18.0 L-26.8 15.4 Q-27.8 14.15 -25.35 10.3 L-22.75 6.65 -22.75 -0.45 -22.2 -1.4 -22.75 -0.5 -33.05 -0.5 Q-39.8 4.9 -42.85 12.8 -44.4 16.75 -44.6 19.65 L-56.45 19.65 Q-61.25 18.5 -56.5 10.2 -53.85 5.55 -49.25 0.2 -47.9 -1.35 -46.65 -3.95 L-45.65 -6.25 -65.45 -6.25 -65.45 -8.95 Q-74.1 -8.95 -75.15 -9.15 -76.45 -9.35 -78.65 -11.05 L-80.55 -12.75 -83.05 -12.75 -83.05 -20.25 -75.5 -20.35 -75.5 -12.75 -67.6 -12.75 -67.6 -11.3 -65.45 -11.3 -65.45 -15.95 -56.1 -15.85 M-31.95 -7.7 Q-32.8 -6.35 -31.9 -5.05 -31.2 -4.0 -29.85 -3.4 L-22.65 -3.4 -21.65 -4.45 Q-20.55 -5.75 -20.15 -6.8 -19.65 -7.85 -20.95 -8.8 L-22.3 -9.5 -26.5 -9.5 -26.95 -8.85 Q-27.75 -7.05 -25.25 -4.85 L-25.8 -4.7 -27.45 -4.85 Q-29.35 -5.3 -30.95 -6.6 L-31.95 -7.7 Q-31.45 -8.6 -30.2 -9.5 L-26.5 -9.5 M-16.0 -7.05 L-19.05 -7.05 -21.8 -2.1 -22.2 -1.4 M-22.75 6.65 L-0.75 6.65" fill="none" stroke="#000000" stroke-linecap="round" stroke-linejoin="miter-clip" stroke-miterlimit="10.0" stroke-width="1.0"/>
    <path d="M31.65 -22.25 L31.2 -22.8 69.1 -22.8 69.1 -22.25 31.65 -22.25 M-60.0 -15.35 L-17.1 -15.35 -17.1 -14.65 -60.0 -14.65 -60.0 -15.35 M-21.8 -0.05 L-20.35 -0.05 -20.35 5.45 -21.8 5.35 -21.8 -0.05 M-43.25 -5.2 L-40.75 -5.55 Q-45.4 0.9 -51.5 8.45 -55.35 13.2 -55.95 16.35 -56.25 17.9 -55.85 18.55 -58.6 16.9 -55.2 10.65 -52.65 6.0 -49.7 3.05 -47.55 0.9 -43.25 -5.2" fill="#ffffff" fill-opacity="0.49803922" fill-rule="evenodd" stroke="none"/>
  </g>
</svg>
