<?xml version="1.0" encoding="UTF-8" standalone="no"?>
<svg xmlns:xlink="http://www.w3.org/1999/xlink" height="26.4px" width="52.0px" xmlns="http://www.w3.org/2000/svg">
  <g transform="matrix(1.0, 0.0, 0.0, 1.0, 26.45, 13.05)">
    <path d="M5.05 -0.15 Q6.0 0.85 6.0 2.2 6.0 3.6 5.05 4.6 4.05 5.55 2.65 5.55 1.3 5.55 0.3 4.6 -0.7 3.6 -0.7 2.2 -0.7 0.85 0.3 -0.15 1.3 -1.15 2.65 -1.15 4.05 -1.15 5.05 -0.15 M18.1 -8.35 L18.85 -9.1 25.05 -11.1 25.05 -9.8 23.85 -9.8 23.85 -8.35 18.1 -8.35 23.85 -8.35 23.85 -2.95 11.3 -2.95 11.3 -8.35 18.1 -8.35 M10.3 -0.3 L10.75 0.8 10.3 1.9 Q9.85 2.35 9.2 2.35 8.6 2.35 8.15 1.9 7.7 1.45 7.7 0.8 7.7 0.15 8.15 -0.3 8.6 -0.75 9.2 -0.75 9.85 -0.75 10.3 -0.3 M-25.0 -10.25 L-24.85 -10.4 Q-22.1 -10.85 -20.6 -9.35 -19.85 -8.6 -19.6 -7.75 -18.85 -6.0 -18.75 -2.0 L-22.2 -2.0 Q-22.0 -6.45 -23.4 -8.6 -24.1 -9.7 -24.85 -9.9 L-25.0 -10.25 M-14.4 -8.5 L-14.5 -9.4 Q-14.4 -10.7 -13.0 -10.85 -11.4 -10.95 -10.8 -10.2 -10.4 -9.7 -10.4 -8.7 -9.55 -9.0 -8.75 -9.5 -9.25 -5.75 -8.4 -2.7 L-15.25 -2.7 -15.25 -2.45 -17.4 -2.45 -17.4 -10.05 -15.25 -10.05 -15.25 -8.7 -14.4 -8.5 -13.75 -8.4 -14.4 -8.5 M-11.0 -8.55 L-11.05 -8.9 Q-11.2 -9.95 -11.8 -10.15 L-13.3 -10.05 Q-13.85 -9.6 -13.75 -8.4 L-11.0 -8.55 -10.4 -8.7 -11.0 -8.55 M-15.25 -2.7 L-15.25 -8.7 -15.25 -2.7 M-4.65 4.95 L-3.5 5.0 -3.5 5.55 -3.9 5.95 -4.6 7.05 Q-5.3 8.95 -3.6 10.75 L-3.75 11.05 -4.8 10.85 Q-5.85 10.3 -6.75 9.1 -7.95 7.55 -7.75 5.75 -6.7 5.0 -5.15 4.95 L-4.65 4.95" fill="#ffffff" fill-opacity="0.0" fill-rule="evenodd" stroke="none"/>
    <path d="M5.05 -0.15 Q6.0 0.85 6.0 2.2 6.0 3.6 5.05 4.6 4.05 5.55 2.65 5.55 1.3 5.55 0.3 4.6 -0.7 3.6 -0.7 2.2 -0.7 0.85 0.3 -0.15 1.3 -1.15 2.65 -1.15 4.05 -1.15 5.05 -0.15 M10.3 -0.3 L10.75 0.8 10.3 1.9 Q9.85 2.35 9.2 2.35 8.6 2.35 8.15 1.9 7.7 1.45 7.7 0.8 7.7 0.15 8.15 -0.3 8.6 -0.75 9.2 -0.75 9.85 -0.75 10.3 -0.3 M-25.0 -10.25 L-24.85 -9.9 Q-24.1 -9.7 -23.4 -8.6 -22.0 -6.45 -22.2 -2.0 L-18.75 -2.0 Q-18.85 -6.0 -19.6 -7.75 -19.85 -8.6 -20.6 -9.35 -22.1 -10.85 -24.85 -10.4 L-25.0 -10.25 M-4.65 4.95 L-5.15 4.95 Q-6.7 5.0 -7.75 5.75 -7.95 7.55 -6.75 9.1 -5.85 10.3 -4.8 10.85 L-3.75 11.05 -3.6 10.75 Q-5.3 8.95 -4.6 7.05 L-3.9 5.95 -3.5 5.55 -3.5 5.0 -4.65 4.95" fill="none" stroke="#000000" stroke-linecap="butt" stroke-linejoin="miter-clip" stroke-miterlimit="10.0" stroke-width="1.0"/>
    <path d="M23.85 -8.35 L23.85 -9.8 25.05 -9.8 25.05 -11.1 18.85 -9.1 18.1 -8.35 23.85 -8.35 23.85 -2.95 11.3 -2.95 11.3 -8.35 18.1 -8.35 M-14.4 -8.5 L-14.5 -9.4 Q-14.4 -10.7 -13.0 -10.85 -11.4 -10.95 -10.8 -10.2 -10.4 -9.7 -10.4 -8.7 -9.55 -9.0 -8.75 -9.5 -9.25 -5.75 -8.4 -2.7 L-15.25 -2.7 -15.25 -2.45 -17.4 -2.45 -17.4 -10.05 -15.25 -10.05 -15.25 -8.7 -14.4 -8.5 -13.75 -8.4 Q-13.85 -9.6 -13.3 -10.05 L-11.8 -10.15 Q-11.2 -9.95 -11.05 -8.9 L-11.0 -8.55 -10.4 -8.7 M-11.0 -8.55 L-13.75 -8.4 M-15.25 -8.7 L-15.25 -2.7" fill="none" stroke="#000000" stroke-linecap="round" stroke-linejoin="miter-clip" stroke-miterlimit="10.0" stroke-width="1.0"/>
    <path d="M19.05 -8.4 L18.8 -8.45 19.25 -8.9 24.85 -10.7 24.85 -10.45 19.35 -8.8 19.05 -8.4 M12.0 -7.75 L23.5 -7.85 23.5 -7.25 11.85 -7.25 12.0 -7.75 M-21.35 -2.45 L-21.75 -2.45 Q-21.6 -3.8 -21.85 -5.45 -22.3 -8.7 -24.25 -9.9 -23.45 -9.7 -22.65 -8.7 -21.1 -6.65 -21.35 -2.45 M-16.8 -2.95 L-17.15 -2.95 -17.15 -9.7 -16.8 -9.7 -16.8 -2.95 M-4.1 10.95 Q-6.4 9.45 -7.05 7.7 L-7.3 6.65 -7.3 6.25 Q-6.85 7.85 -5.45 9.55 L-4.1 10.95" fill="#ffffff" fill-opacity="0.8" fill-rule="evenodd" stroke="none"/>
    <path d="M-11.15 -3.65 L-11.15 -6.95 -10.3 -6.95 -10.3 -3.65 -11.15 -3.65" fill="#000000" fill-opacity="0.4" fill-rule="evenodd" stroke="none"/>
  </g>
</svg>
