<?xml version="1.0" encoding="UTF-8" standalone="no"?>
<svg xmlns:xlink="http://www.w3.org/1999/xlink" height="354.1px" width="226.85px" xmlns="http://www.w3.org/2000/svg">
  <g transform="matrix(1.0, 0.0, 0.0, 1.0, 113.4, 177.05)">
    <path d="M47.8 -154.1 Q49.1 -159.45 51.3 -163.6 53.1 -167.0 55.5 -169.6 L58.0 -171.95 Q65.2 -178.05 78.55 -176.1 89.2 -174.6 96.35 -169.6 L98.45 -168.0 Q108.8 -159.45 111.95 -144.95 114.65 -132.15 110.0 -122.0 L108.25 -118.7 Q104.0 -111.65 95.95 -108.65 L94.3 -113.3 95.95 -108.65 96.15 -108.0 96.35 -107.3 Q97.7 -102.5 98.05 -97.6 99.0 -84.2 92.8 -69.75 86.3 -54.45 69.85 -43.4 83.15 -13.85 91.25 13.5 105.05 59.85 96.35 77.95 91.4 88.2 84.15 94.0 L84.05 94.8 84.85 103.35 Q85.45 105.9 89.8 117.15 94.55 129.25 96.5 136.6 103.4 162.15 90.05 168.6 75.7 175.45 57.1 176.4 42.85 177.15 32.6 174.6 26.15 172.95 22.25 140.1 L19.7 107.65 9.4 108.55 8.15 133.2 Q6.4 159.4 4.25 166.9 2.05 174.4 -4.75 176.1 L-9.25 176.55 -11.2 176.35 Q-24.65 176.85 -39.85 174.1 L-52.4 171.15 Q-64.15 165.25 -61.6 133.3 -60.8 123.3 -58.7 111.9 L-56.65 102.55 -58.6 98.25 -59.45 98.4 Q-62.4 98.85 -65.35 98.45 -70.55 97.65 -75.8 94.05 -84.55 88.15 -90.1 76.45 -98.45 59.2 -86.15 15.85 -78.55 -10.65 -65.1 -41.45 -90.45 -56.8 -88.85 -84.0 -88.35 -92.05 -85.8 -100.8 L-84.7 -104.35 -85.15 -103.1 -90.8 -103.7 Q-94.85 -104.5 -98.3 -106.2 -104.65 -109.25 -108.25 -115.25 -115.1 -126.6 -111.85 -141.5 -108.8 -156.0 -98.45 -164.45 -90.8 -170.85 -78.55 -172.55 -65.15 -174.5 -57.95 -168.5 -51.65 -163.2 -48.4 -152.85 L-49.4 -152.3 Q-42.0 -156.3 -32.9 -159.0 -13.45 -164.6 9.05 -163.1 21.8 -162.25 34.4 -158.65 L39.2 -157.15 40.0 -156.9 43.8 -155.55 45.35 -155.0 46.8 -154.45 47.6 -154.1 Q65.2 -147.05 77.5 -136.1 L78.8 -134.9 79.8 -134.0 80.45 -133.35 81.2 -132.6 84.4 -129.1 Q87.4 -125.65 89.75 -122.0 92.45 -117.8 94.3 -113.3 96.35 -115.25 97.55 -117.3 98.95 -119.55 99.8 -122.0 102.15 -128.9 100.3 -137.3 97.9 -148.35 90.05 -154.95 87.55 -157.0 84.4 -158.35 80.15 -160.3 74.8 -161.0 64.6 -162.5 59.15 -157.85 56.2 -155.45 54.05 -151.4 L55.25 -150.8 47.8 -154.1 M84.4 -127.95 L83.25 -129.25 Q80.05 -132.85 76.15 -136.2 64.4 -146.45 47.9 -153.2 60.25 -142.25 68.4 -126.4 L69.5 -124.2 70.55 -122.0 Q73.75 -114.9 75.45 -108.0 76.7 -102.75 77.15 -97.6 77.85 -88.35 75.8 -79.4 71.3 -59.85 53.45 -44.7 40.9 -34.2 23.6 -27.0 L30.65 -28.2 Q46.75 -31.5 60.85 -38.9 84.05 -51.0 92.15 -70.05 98.25 -84.4 97.3 -97.6 96.9 -102.9 95.4 -108.0 L94.25 -111.45 93.25 -113.85 Q91.45 -118.05 88.85 -122.0 L84.4 -127.95 M45.8 8.25 Q42.65 3.55 38.6 -0.65 34.75 -4.65 30.6 -7.55 L31.45 -7.7 Q39.55 -9.0 45.7 -11.2 45.55 -2.6 45.8 8.25 45.55 -2.6 45.7 -11.2 45.9 -24.15 47.05 -32.0 L54.65 -35.0 47.05 -32.0 Q39.3 -29.25 30.8 -27.45 15.5 -24.3 -4.4 -25.25 -23.95 -26.3 -40.55 -31.05 L-40.55 -31.1 -42.05 -31.5 -44.5 -32.3 Q-47.85 -33.4 -50.95 -34.6 L-51.05 -34.6 -58.45 -37.85 -59.6 -38.45 Q-62.45 -39.95 -65.05 -41.6 L-65.1 -41.45 -65.05 -41.6 Q-62.45 -39.95 -59.6 -38.45 L-58.45 -37.85 -51.05 -34.6 -50.95 -34.6 Q-47.85 -33.4 -44.5 -32.3 L-42.05 -31.5 -40.55 -31.1 -40.55 -31.05 Q-39.9 -25.75 -39.6 -18.25 -33.3 -14.95 -26.05 -12.35 -21.95 -10.9 -17.75 -9.75 -26.25 -4.7 -32.9 4.6 -37.2 10.55 -39.9 17.15 L-39.95 17.95 Q-41.45 57.55 -41.2 65.4 L-41.2 65.7 Q-36.7 79.45 -26.6 89.85 -10.55 106.45 10.4 104.95 31.3 103.45 44.8 84.6 L48.3 79.25 Q47.25 73.65 47.45 66.85 47.65 59.7 46.1 17.8 L45.8 8.25 M53.75 -60.3 Q58.9 -78.15 44.5 -90.8 32.45 -101.3 18.1 -104.45 4.55 -107.45 -12.35 -104.1 -26.95 -101.15 -37.15 -93.75 -49.7 -84.65 -50.75 -71.6 -52.0 -56.45 -43.4 -45.95 -35.75 -36.65 -21.5 -32.25 -8.35 -28.2 6.65 -29.15 21.4 -30.15 32.5 -35.6 48.95 -43.7 53.75 -60.3 M69.85 -43.4 L68.7 -42.6 67.0 -41.55 64.85 -40.3 59.65 -37.4 64.85 -40.3 67.0 -41.55 68.7 -42.6 69.85 -43.4 M57.05 -36.15 L54.65 -35.0 57.1 -36.1 59.65 -37.4 57.05 -36.15 M83.5 94.5 Q94.75 78.75 81.05 18.0 76.7 -1.2 70.4 -22.65 L64.85 -40.3 70.4 -22.65 Q76.7 -1.2 81.05 18.0 94.75 78.75 83.5 94.5 L84.15 94.0 83.5 94.5 83.3 94.75 83.5 94.5 83.3 94.65 82.0 95.55 Q73.75 101.1 65.6 99.85 57.25 98.5 52.4 90.4 L50.95 87.7 Q51.35 91.35 52.3 94.95 56.35 109.6 68.95 111.85 L69.1 111.85 69.2 111.9 70.75 113.25 Q72.5 115.15 74.35 118.3 80.15 128.2 84.95 147.1 86.35 149.85 87.2 155.25 88.55 164.1 85.25 169.8 L89.75 167.85 Q100.25 162.85 97.6 145.5 96.2 135.6 88.4 115.6 84.7 106.2 84.1 103.45 L83.3 94.75 83.3 94.65 83.5 94.5 M48.3 79.25 Q49.15 83.9 50.95 87.7 49.15 83.9 48.3 79.25 M8.6 107.95 Q6.95 107.25 4.4 107.25 1.9 107.25 -1.3 108.0 L-4.0 128.25 Q-6.5 147.3 -7.6 158.4 -8.8 170.25 -22.4 175.45 L-15.4 175.65 -8.5 175.75 Q0.95 175.75 3.5 166.65 6.4 156.55 8.6 107.95 M-54.65 -149.1 Q-56.5 -152.25 -59.15 -154.5 -64.6 -159.0 -74.8 -157.55 -84.2 -156.2 -90.05 -151.4 -97.9 -144.9 -100.3 -133.8 -102.7 -122.4 -97.55 -113.75 -93.35 -106.9 -85.0 -105.1 L-84.5 -105.0 -84.45 -105.1 -83.75 -109.25 Q-82.5 -114.6 -80.0 -120.05 -72.95 -135.45 -58.35 -146.4 L-54.65 -149.1 -52.25 -150.65 -49.4 -152.3 -52.25 -150.65 -54.65 -149.1 M-84.7 -104.35 L-84.5 -105.0 -84.7 -104.35 M-65.35 98.45 Q-86.8 81.75 -75.4 20.05 -71.8 0.75 -65.35 -20.75 L-59.6 -38.45 -65.35 -20.75 Q-71.8 0.75 -75.4 20.05 -86.8 81.75 -65.35 98.45 M-39.9 17.15 Q-39.1 -4.35 -39.6 -18.25 -39.1 -4.35 -39.9 17.15 M-58.6 98.25 Q-50.8 96.65 -46.15 88.95 -40.8 80.2 -41.2 65.7 -40.8 80.2 -46.15 88.95 -50.8 96.65 -58.6 98.25" fill="#ffffff" fill-opacity="0.0" fill-rule="evenodd" stroke="none"/>
    <path d="M84.4 -127.95 L88.85 -122.0 Q91.45 -118.05 93.25 -113.85 L94.25 -111.45 95.4 -108.0 Q96.9 -102.9 97.3 -97.6 98.25 -84.4 92.15 -70.05 84.05 -51.0 60.85 -38.9 46.75 -31.5 30.65 -28.2 L23.6 -27.0 Q40.9 -34.2 53.45 -44.7 71.3 -59.85 75.8 -79.4 77.85 -88.35 77.15 -97.6 76.7 -102.75 75.45 -108.0 73.75 -114.9 70.55 -122.0 L69.5 -124.2 68.4 -126.4 Q60.25 -142.25 47.9 -153.2 64.4 -146.45 76.15 -136.2 80.05 -132.85 83.25 -129.25 L84.4 -127.95 M45.7 -11.2 Q39.55 -9.0 31.45 -7.7 L30.6 -7.55 Q17.45 -16.9 1.55 -15.75 -9.05 -15.0 -17.75 -9.75 -21.95 -10.9 -26.05 -12.35 -33.3 -14.95 -39.6 -18.25 -39.9 -25.75 -40.55 -31.05 -23.95 -26.3 -4.4 -25.25 15.5 -24.3 30.8 -27.45 39.3 -29.25 47.05 -32.0 45.9 -24.15 45.7 -11.2 M54.65 -35.0 L57.05 -36.15 57.1 -36.1 54.65 -35.0 M83.3 94.65 L83.3 94.75 84.1 103.45 Q84.7 106.2 88.4 115.6 96.2 135.6 97.6 145.5 100.25 162.85 89.75 167.85 L85.25 169.8 Q88.55 164.1 87.2 155.25 86.35 149.85 84.95 147.1 80.15 128.2 74.35 118.3 72.5 115.15 70.75 113.25 L69.2 111.9 69.1 111.85 68.95 111.85 Q56.35 109.6 52.3 94.95 51.35 91.35 50.95 87.7 L52.4 90.4 Q57.25 98.5 65.6 99.85 73.75 101.1 82.0 95.55 L83.3 94.65 M8.6 107.95 Q6.4 156.55 3.5 166.65 0.95 175.75 -8.5 175.75 L-15.4 175.65 -22.4 175.45 Q-8.8 170.25 -7.6 158.4 -6.5 147.3 -4.0 128.25 L-1.3 108.0 Q1.9 107.25 4.4 107.25 6.95 107.25 8.6 107.95" fill="#000000" fill-opacity="0.14901961" fill-rule="evenodd" stroke="none"/>
    <path d="M55.25 -150.8 L54.05 -151.4 Q56.2 -155.45 59.15 -157.85 64.6 -162.5 74.8 -161.0 80.15 -160.3 84.4 -158.35 87.55 -157.0 90.05 -154.95 97.9 -148.35 100.3 -137.3 102.15 -128.9 99.8 -122.0 98.95 -119.55 97.55 -117.3 96.35 -115.25 94.3 -113.3 92.45 -117.8 89.75 -122.0 87.4 -125.65 84.4 -129.1 L81.2 -132.6 80.45 -133.35 79.8 -134.0 78.8 -134.9 78.35 -135.35 75.8 -137.6 Q68.25 -143.95 58.8 -149.0 L55.25 -150.8 M53.75 -60.3 Q48.95 -43.7 32.5 -35.6 21.4 -30.15 6.65 -29.15 -8.35 -28.2 -21.5 -32.25 -35.75 -36.65 -43.4 -45.95 -52.0 -56.45 -50.75 -71.6 -49.7 -84.65 -37.15 -93.75 -26.95 -101.15 -12.35 -104.1 4.55 -107.45 18.1 -104.45 32.45 -101.3 44.5 -90.8 58.9 -78.15 53.75 -60.3 M30.6 -7.55 Q34.75 -4.65 38.6 -0.65 42.65 3.55 45.8 8.25 L46.1 17.8 Q47.65 59.7 47.45 66.85 47.25 73.65 48.3 79.25 L44.8 84.6 Q31.3 103.45 10.4 104.95 -10.55 106.45 -26.6 89.85 -36.7 79.45 -41.2 65.7 L-41.2 65.4 Q-41.45 57.55 -39.95 17.95 L-39.9 17.15 Q-37.2 10.55 -32.9 4.6 -26.25 -4.7 -17.75 -9.75 -9.05 -15.0 1.55 -15.75 17.45 -16.9 30.6 -7.55 M-54.65 -149.1 L-58.35 -146.4 Q-72.95 -135.45 -80.0 -120.05 -82.5 -114.6 -83.75 -109.25 L-84.45 -105.1 -84.5 -105.0 -85.0 -105.1 Q-93.35 -106.9 -97.55 -113.75 -102.7 -122.4 -100.3 -133.8 -97.9 -144.9 -90.05 -151.4 -84.2 -156.2 -74.8 -157.55 -64.6 -159.0 -59.15 -154.5 -56.5 -152.25 -54.65 -149.1" fill="#ffffff" fill-opacity="0.49803922" fill-rule="evenodd" stroke="none"/>
    <path d="M95.95 -108.65 Q104.0 -111.65 108.25 -118.7 L110.0 -122.0 Q114.65 -132.15 111.95 -144.95 108.8 -159.45 98.45 -168.0 L96.35 -169.6 Q89.2 -174.6 78.55 -176.1 65.2 -178.05 58.0 -171.95 L55.5 -169.6 Q53.1 -167.0 51.3 -163.6 49.1 -159.45 47.8 -154.1 M95.95 -108.65 L96.15 -108.0 96.35 -107.3 Q97.7 -102.5 98.05 -97.6 99.0 -84.2 92.8 -69.75 86.3 -54.45 69.85 -43.4 83.15 -13.85 91.25 13.5 105.05 59.85 96.35 77.95 91.4 88.2 84.15 94.0 L84.05 94.8 84.85 103.35 Q85.45 105.9 89.8 117.15 94.55 129.25 96.5 136.6 103.4 162.15 90.05 168.6 75.7 175.45 57.1 176.4 42.85 177.15 32.6 174.6 26.15 172.95 22.25 140.1 L19.7 107.65 9.4 108.55 8.15 133.2 Q6.4 159.4 4.25 166.9 2.05 174.4 -4.75 176.1 L-9.25 176.55 -11.2 176.35 Q-24.65 176.85 -39.85 174.1 L-52.4 171.15 Q-64.15 165.25 -61.6 133.3 -60.8 123.3 -58.7 111.9 L-56.65 102.55 -58.6 98.25 -59.45 98.4 Q-62.4 98.85 -65.35 98.45 -70.55 97.65 -75.8 94.05 -84.55 88.15 -90.1 76.45 -98.45 59.2 -86.15 15.85 -78.55 -10.65 -65.1 -41.45 -90.45 -56.8 -88.85 -84.0 -88.35 -92.05 -85.8 -100.8 L-84.7 -104.35 M-85.15 -103.1 L-90.8 -103.7 Q-94.85 -104.5 -98.3 -106.2 -104.65 -109.25 -108.25 -115.25 -115.1 -126.6 -111.85 -141.5 -108.8 -156.0 -98.45 -164.45 -90.8 -170.85 -78.55 -172.55 -65.15 -174.5 -57.95 -168.5 -51.65 -163.2 -48.4 -152.85 M-49.4 -152.3 Q-42.0 -156.3 -32.9 -159.0 -13.45 -164.6 9.05 -163.1 21.8 -162.25 34.4 -158.65 L39.2 -157.15 40.0 -156.9 43.8 -155.55 45.35 -155.0 46.8 -154.45 47.6 -154.1 M45.8 8.25 Q45.55 -2.6 45.7 -11.2 45.9 -24.15 47.05 -32.0 L54.65 -35.0 57.05 -36.15 59.65 -37.4 57.1 -36.1 54.65 -35.0 M-39.9 17.15 L-39.95 17.95 Q-41.45 57.55 -41.2 65.4 L-41.2 65.7 Q-40.8 80.2 -46.15 88.95 -50.8 96.65 -58.6 98.25 M48.3 79.25 Q47.25 73.65 47.45 66.85 47.65 59.7 46.1 17.8 L45.8 8.25 M59.65 -37.4 L64.85 -40.3 67.0 -41.55 68.7 -42.6 69.85 -43.4 M57.05 -36.15 L57.1 -36.1 M83.5 94.5 L84.15 94.0 M-40.55 -31.05 Q-23.95 -26.3 -4.4 -25.25 15.5 -24.3 30.8 -27.45 39.3 -29.25 47.05 -32.0 M83.5 94.5 L83.3 94.65 82.0 95.55 Q73.75 101.1 65.6 99.85 57.25 98.5 52.4 90.4 L50.95 87.7 Q49.15 83.9 48.3 79.25 M-65.1 -41.45 L-65.05 -41.6 Q-62.45 -39.95 -59.6 -38.45 L-58.45 -37.85 -51.05 -34.6 -50.95 -34.6 Q-47.85 -33.4 -44.5 -32.3 L-42.05 -31.5 -40.55 -31.1 -40.55 -31.05 Q-39.9 -25.75 -39.6 -18.25 -39.1 -4.35 -39.9 17.15" fill="none" stroke="#000000" stroke-linecap="butt" stroke-linejoin="miter-clip" stroke-miterlimit="4.0" stroke-width="1.0"/>
    <path d="M47.8 -154.1 L55.25 -150.8 54.05 -151.4 Q56.2 -155.45 59.15 -157.85 64.6 -162.5 74.8 -161.0 80.15 -160.3 84.4 -158.35 87.55 -157.0 90.05 -154.95 97.9 -148.35 100.3 -137.3 102.15 -128.9 99.8 -122.0 98.95 -119.55 97.55 -117.3 96.35 -115.25 94.3 -113.3 L95.95 -108.65 M-48.4 -152.85 L-49.4 -152.3 -52.25 -150.65 -54.65 -149.1 Q-56.5 -152.25 -59.15 -154.5 -64.6 -159.0 -74.8 -157.55 -84.2 -156.2 -90.05 -151.4 -97.9 -144.9 -100.3 -133.8 -102.7 -122.4 -97.55 -113.75 -93.35 -106.9 -85.0 -105.1 L-84.5 -105.0 -84.45 -105.1 -83.75 -109.25 Q-82.5 -114.6 -80.0 -120.05 -72.95 -135.45 -58.35 -146.4 L-54.65 -149.1 M47.6 -154.1 Q65.2 -147.05 77.5 -136.1 L78.8 -134.9 78.35 -135.35 75.8 -137.6 Q68.25 -143.95 58.8 -149.0 L55.25 -150.8 M78.8 -134.9 L79.8 -134.0 80.45 -133.35 81.2 -132.6 84.4 -129.1 Q87.4 -125.65 89.75 -122.0 92.45 -117.8 94.3 -113.3 M53.75 -60.3 Q48.95 -43.7 32.5 -35.6 21.4 -30.15 6.65 -29.15 -8.35 -28.2 -21.5 -32.25 -35.75 -36.65 -43.4 -45.95 -52.0 -56.45 -50.75 -71.6 -49.7 -84.65 -37.15 -93.75 -26.95 -101.15 -12.35 -104.1 4.55 -107.45 18.1 -104.45 32.45 -101.3 44.5 -90.8 58.9 -78.15 53.75 -60.3 M30.6 -7.55 Q34.75 -4.65 38.6 -0.65 42.65 3.55 45.8 8.25 M30.6 -7.55 Q17.45 -16.9 1.55 -15.75 -9.05 -15.0 -17.75 -9.75 -26.25 -4.7 -32.9 4.6 -37.2 10.55 -39.9 17.15 M-41.2 65.7 Q-36.7 79.45 -26.6 89.85 -10.55 106.45 10.4 104.95 31.3 103.45 44.8 84.6 L48.3 79.25 M64.85 -40.3 L70.4 -22.65 Q76.7 -1.2 81.05 18.0 94.75 78.75 83.5 94.5 L83.3 94.75 M-84.5 -105.0 L-84.7 -104.35 M-59.6 -38.45 L-65.35 -20.75 Q-71.8 0.75 -75.4 20.05 -86.8 81.75 -65.35 98.45" fill="none" stroke="#000000" stroke-linecap="butt" stroke-linejoin="miter-clip" stroke-miterlimit="4.0" stroke-opacity="0.6" stroke-width="1.0"/>
    <path d="M39.4 -109.4 Q41.6 -109.4 43.3 -108.0 L43.7 -107.6 Q45.4 -105.9 45.4 -103.4 45.4 -100.95 43.7 -99.15 41.9 -97.4 39.4 -97.4 36.95 -97.4 35.2 -99.15 33.4 -100.95 33.4 -103.4 33.4 -105.9 35.2 -107.6 36.9 -109.35 39.2 -109.4 L39.4 -109.4 M21.4 -79.7 Q21.4 -72.45 16.25 -67.35 11.15 -62.25 3.85 -62.25 L-0.8 -62.25 Q-8.05 -62.25 -13.15 -67.35 -18.35 -72.45 -18.35 -79.7 -18.35 -87.0 -13.15 -92.1 -8.05 -97.25 -0.8 -97.25 L3.85 -97.25 Q11.15 -97.25 16.25 -92.1 21.4 -87.0 21.4 -79.7 M-31.85 -99.15 Q-33.55 -97.4 -36.1 -97.4 -38.6 -97.4 -40.3 -99.15 -42.1 -100.95 -42.1 -103.4 -42.1 -105.9 -40.3 -107.6 -38.6 -109.4 -36.1 -109.4 -33.55 -109.4 -31.85 -107.6 -30.1 -105.9 -30.1 -103.4 -30.1 -100.95 -31.85 -99.15" fill="#231f20" fill-rule="evenodd" stroke="none"/>
    <path d="M39.4 -109.4 Q41.6 -109.4 43.3 -108.0 L43.7 -107.6 Q45.4 -105.9 45.4 -103.4 45.4 -100.95 43.7 -99.15 41.9 -97.4 39.4 -97.4 36.95 -97.4 35.2 -99.15 33.4 -100.95 33.4 -103.4 33.4 -105.9 35.2 -107.6 36.9 -109.35 39.2 -109.4 L39.4 -109.4 M21.4 -79.7 Q21.4 -72.45 16.25 -67.35 11.15 -62.25 3.85 -62.25 L-0.8 -62.25 Q-8.05 -62.25 -13.15 -67.35 -18.35 -72.45 -18.35 -79.7 -18.35 -87.0 -13.15 -92.1 -8.05 -97.25 -0.8 -97.25 L3.85 -97.25 Q11.15 -97.25 16.25 -92.1 21.4 -87.0 21.4 -79.7 M-31.85 -99.15 Q-33.55 -97.4 -36.1 -97.4 -38.6 -97.4 -40.3 -99.15 -42.1 -100.95 -42.1 -103.4 -42.1 -105.9 -40.3 -107.6 -38.6 -109.4 -36.1 -109.4 -33.55 -109.4 -31.85 -107.6 -30.1 -105.9 -30.1 -103.4 -30.1 -100.95 -31.85 -99.15" fill="none" stroke="#000000" stroke-linecap="butt" stroke-linejoin="miter-clip" stroke-miterlimit="4.0" stroke-width="1.0"/>
    <path d="M77.95 -171.45 L59.2 -165.45 64.1 -170.4 Q70.45 -174.75 77.95 -171.45 M-26.75 -152.25 Q-25.9 -151.5 -26.3 -150.5 -47.15 -140.7 -55.85 -125.6 L-60.95 -115.5 Q-63.4 -110.6 -66.25 -108.95 -72.2 -105.5 -74.15 -108.95 L-74.8 -113.0 Q-67.3 -133.65 -50.05 -145.1 -41.45 -150.8 -34.3 -152.45 L-26.75 -152.25 M27.7 141.25 Q29.6 137.05 35.3 147.85 38.45 153.6 43.45 164.5 45.95 169.0 42.2 169.8 39.05 170.55 35.2 169.0 32.9 168.1 30.05 154.6 L27.7 141.25 M52.6 69.3 Q51.7 61.65 51.95 52.6 L52.25 45.0 Q54.5 61.35 60.65 73.8 62.5 77.5 70.25 89.05 73.3 93.75 70.6 95.1 L67.25 95.5 Q55.3 93.9 52.6 69.3 M-81.05 -167.7 Q-85.9 -162.65 -91.1 -157.95 -101.35 -148.65 -102.8 -150.5 -104.5 -152.85 -99.5 -158.4 -93.25 -165.2 -81.05 -167.7 M-56.8 134.2 Q-56.2 126.45 -54.7 118.0 L-53.3 111.0 Q-53.3 135.55 -47.45 151.5 L-43.75 160.2 Q-42.35 163.5 -42.8 165.0 -43.7 168.15 -46.85 167.4 L-49.75 166.0 Q-58.55 158.8 -56.8 134.2" fill="#ffffff" fill-opacity="0.49803922" fill-rule="evenodd" stroke="none"/>
    <path d="M1.75 -83.4 Q-0.25 -81.95 -3.05 -81.95 -5.8 -81.95 -7.85 -83.4 -9.8 -84.8 -9.8 -86.75 -9.8 -88.7 -7.85 -90.15 -5.8 -91.5 -3.05 -91.5 -0.2 -91.5 1.75 -90.15 3.7 -88.7 3.7 -86.75 3.7 -84.8 1.75 -83.4" fill="#a9abae" fill-rule="evenodd" stroke="none"/>
  </g>
</svg>
