<?xml version="1.0" encoding="UTF-8" standalone="no"?>
<svg xmlns:xlink="http://www.w3.org/1999/xlink" height="307.75px" width="854.0px" xmlns="http://www.w3.org/2000/svg">
  <g transform="matrix(1.0, 0.0, 0.0, 1.0, 426.95, 153.9)">
    <path d="M372.5 125.05 L371.85 126.15 217.5 132.85 215.95 128.1 215.95 127.7 215.8 123.0 215.8 122.25 215.8 122.15 215.85 120.05 216.45 111.35 216.35 111.35 Q219.35 82.2 238.8 60.5 261.7 34.9 294.15 34.9 326.6 34.9 349.6 60.5 368.95 82.2 371.95 111.35 L371.85 111.35 372.35 116.75 372.45 118.1 372.5 122.25 372.5 125.05 M-181.7 133.1 L-337.9 131.7 -338.5 129.35 Q-338.9 124.05 -338.9 119.2 -338.9 81.8 -315.8 55.25 -292.7 28.8 -259.95 28.8 -227.25 28.8 -204.05 55.25 -180.95 81.8 -180.95 119.2 L-180.95 119.7 -180.95 120.15 -180.95 120.55 -180.95 120.95 Q-181.05 126.45 -181.6 132.45 L-181.7 133.1" fill="#000000" fill-opacity="0.8" fill-rule="evenodd" stroke="none"/>
    <path d="M4.15 -16.75 Q2.25 -16.75 0.9 -15.2 -0.5 -13.6 -0.5 -11.4 -0.5 -9.2 0.9 -7.65 2.25 -6.05 4.15 -6.05 L49.3 -6.05 Q51.3 -6.05 52.55 -7.65 53.9 -9.2 53.9 -11.4 53.9 -13.6 52.55 -15.2 51.3 -16.75 49.3 -16.75 L4.15 -16.75 49.3 -16.75 Q51.3 -16.75 52.55 -15.2 53.9 -13.6 53.9 -11.4 53.9 -9.2 52.55 -7.65 51.3 -6.05 49.3 -6.05 L4.15 -6.05 Q2.25 -6.05 0.9 -7.65 -0.5 -9.2 -0.5 -11.4 -0.5 -13.6 0.9 -15.2 2.25 -16.75 4.15 -16.75 M68.5 -44.0 L96.85 -45.55 Q164.35 -53.85 208.15 -61.7 230.0 -65.6 238.4 -67.9 245.65 -71.05 250.7 -76.3 253.3 -79.05 254.35 -81.05 L268.55 -118.5 Q269.05 -124.8 258.25 -127.35 L127.0 -139.75 Q70.9 -141.6 44.45 -140.9 -19.5 -139.2 -50.05 -127.55 -83.1 -114.95 -133.95 -86.2 -180.45 -59.95 -193.35 -48.6 -202.7 -40.4 -202.5 -34.1 -202.4 -30.85 -200.4 -29.35 L68.5 -44.0 62.4 25.45 Q58.85 79.45 60.8 111.35 58.85 79.45 62.4 25.45 L68.5 -44.0 M198.4 111.35 L60.8 111.35 -162.9 111.35 -170.35 111.35 Q-175.3 73.4 -190.2 50.65 -210.6 19.65 -249.95 14.1 -286.4 9.05 -317.9 34.35 -333.65 47.05 -342.05 60.7 L-361.45 68.8 Q-380.45 72.15 -426.05 69.35 L-426.45 66.8 Q-425.85 62.6 -424.45 57.65 -421.85 47.8 -418.6 44.0 -413.25 37.95 -397.25 9.05 -386.65 0.35 -370.05 -10.45 -336.9 -32.1 -307.05 -42.5 -281.65 -51.4 -248.05 -58.45 -231.25 -62.05 -219.5 -63.8 L-212.05 -63.5 Q-204.05 -63.5 -201.35 -64.85 L-61.5 -136.7 -78.4 -138.7 -77.15 -139.2 -67.55 -143.0 Q-56.4 -147.15 -48.25 -148.85 L23.05 -151.05 Q109.45 -153.4 185.35 -153.4 196.3 -153.4 259.0 -145.4 329.95 -136.35 336.65 -130.6 L336.65 -127.35 Q336.35 -124.65 335.15 -123.2 L334.9 -122.95 291.5 -120.0 307.9 -97.0 Q326.15 -72.3 335.3 -63.8 345.2 -54.55 377.2 -33.35 L378.05 -32.4 378.8 -31.55 Q381.8 -28.25 383.1 -27.4 390.75 -22.45 403.35 -6.25 416.7 10.75 417.65 18.2 417.85 19.45 420.8 29.85 423.95 40.45 425.2 50.65 L425.65 54.1 Q428.2 78.0 423.35 107.7 L422.65 111.65 424.85 95.25 376.45 111.35 371.95 111.35 Q368.95 82.2 349.6 60.5 326.6 34.9 294.15 34.9 261.7 34.9 238.8 60.5 219.35 82.2 216.35 111.35 L198.4 111.35 258.35 9.05 Q263.4 -1.15 268.1 -13.5 277.75 -38.2 276.95 -48.6 L250.35 -74.4 276.95 -48.6 Q277.75 -38.2 268.1 -13.5 263.4 -1.15 258.35 9.05 L198.4 111.35 M-181.75 133.75 L-181.7 133.1 -181.6 132.45 -181.75 133.75 M205.95 -21.3 Q207.3 -19.8 209.2 -19.8 L254.35 -19.8 Q256.25 -19.8 257.6 -21.3 259.0 -22.85 259.0 -25.05 259.0 -27.25 257.6 -28.85 256.25 -30.4 254.35 -30.4 L209.2 -30.4 Q207.3 -30.4 205.95 -28.85 204.6 -27.25 204.6 -25.05 204.6 -22.85 205.95 -21.3 204.6 -22.85 204.6 -25.05 204.6 -27.25 205.95 -28.85 207.3 -30.4 209.2 -30.4 L254.35 -30.4 Q256.25 -30.4 257.6 -28.85 259.0 -27.25 259.0 -25.05 259.0 -22.85 257.6 -21.3 256.25 -19.8 254.35 -19.8 L209.2 -19.8 Q207.3 -19.8 205.95 -21.3 M336.65 -130.6 L336.45 -126.1 Q336.05 -124.3 335.15 -123.2 336.05 -124.3 336.45 -126.1 L336.65 -130.6 M-155.75 -30.4 L-159.45 -23.4 Q-163.35 -15.4 -165.0 -10.7 -168.25 -1.55 -168.45 39.3 -168.75 81.85 -162.9 111.35 -168.75 81.85 -168.45 39.3 -168.25 -1.55 -165.0 -10.7 -163.35 -15.4 -159.45 -23.4 L-155.75 -30.4" fill="#ffffff" fill-opacity="0.0" fill-rule="evenodd" stroke="none"/>
    <path d="M60.8 111.35 L198.4 111.35 216.35 111.35 216.45 111.35 215.85 120.05 215.8 122.15 215.8 122.25 215.8 123.0 215.95 127.7 215.95 128.1 215.95 128.15 216.0 128.4 216.0 128.9 216.25 132.5 216.5 135.5 216.5 135.7 216.6 136.4 216.6 136.7 216.75 138.1 Q217.8 147.25 219.5 153.2 L-185.25 153.35 Q-183.3 146.6 -182.1 136.75 L-181.75 134.0 -181.75 133.75 -181.6 132.45 Q-181.05 126.45 -180.95 120.95 L-180.95 120.55 -180.95 120.15 -180.95 119.7 -180.95 119.2 Q-180.95 81.8 -204.05 55.25 -227.25 28.8 -259.95 28.8 -292.7 28.8 -315.8 55.25 -338.9 81.8 -338.9 119.2 -338.9 124.05 -338.5 129.35 L-337.85 136.0 Q-336.8 145.65 -335.0 151.95 L-341.5 151.95 Q-374.8 150.4 -385.4 148.9 -392.0 147.95 -404.6 143.75 L-415.85 139.8 -425.15 75.8 -425.45 73.75 -425.6 72.65 -426.15 69.35 -426.05 69.35 Q-380.45 72.15 -361.45 68.8 L-342.05 60.7 Q-333.65 47.05 -317.9 34.35 -286.4 9.05 -249.95 14.1 -210.6 19.65 -190.2 50.65 -175.3 73.4 -170.35 111.35 L-162.9 111.35 -161.0 119.95 -158.5 126.25 Q-154.95 132.65 -149.15 133.6 L63.25 133.6 166.8 133.6 176.05 131.9 Q186.65 128.45 193.35 119.95 L198.4 111.35 193.35 119.95 Q186.65 128.45 176.05 131.9 L166.8 133.6 63.25 133.6 -149.15 133.6 Q-154.95 132.65 -158.5 126.25 L-161.0 119.95 -162.9 111.35 60.8 111.35 Q61.55 124.3 63.25 133.6 61.55 124.3 60.8 111.35 M419.8 126.05 L418.9 129.9 Q387.05 140.5 373.85 143.55 L370.6 143.65 Q372.3 135.6 372.5 125.05 L372.5 122.25 372.45 118.1 372.35 116.75 371.85 111.35 371.95 111.35 376.45 111.35 424.85 95.25 422.65 111.65 419.8 126.05 M372.45 118.1 L371.95 111.35 372.45 118.1 M216.35 111.35 Q215.9 115.6 215.85 120.05 215.9 115.6 216.35 111.35 M215.95 128.15 L216.0 128.9 215.95 128.15 M-425.15 75.8 L-426.05 69.35 -425.15 75.8" fill="#000000" fill-opacity="0.2" fill-rule="evenodd" stroke="none"/>
    <path d="M372.5 125.05 L371.85 126.15 217.5 132.85 215.95 128.1 M-181.7 133.1 L-337.9 131.7 -338.5 129.35" fill="none" stroke="#000000" stroke-linecap="butt" stroke-linejoin="miter-clip" stroke-miterlimit="4.0" stroke-width="1.0"/>
    <path d="M378.05 -32.4 Q368.85 -43.0 346.45 -74.4 L316.7 -116.95 321.55 -119.25 Q327.2 -121.55 331.3 -121.55 333.55 -121.55 334.9 -122.95 L335.15 -123.2 Q336.05 -124.3 336.45 -126.1 L336.65 -130.6 Q329.95 -136.35 259.0 -145.4 196.3 -153.4 185.35 -153.4 109.45 -153.4 23.05 -151.05 L-48.25 -148.85 Q-56.4 -147.15 -67.55 -143.0 L-77.15 -139.2 Q-106.4 -127.3 -152.3 -102.35 L-219.5 -63.8 Q-231.25 -62.05 -248.05 -58.45 -281.65 -51.4 -307.05 -42.5 -336.9 -32.1 -370.05 -10.45 -386.65 0.35 -397.25 9.05 -413.25 37.95 -418.6 44.0 -421.85 47.8 -424.45 57.65 -425.85 62.6 -426.45 66.8 L-426.05 69.35 -425.15 75.8 -415.85 139.8 -404.6 143.75 Q-392.0 147.95 -385.4 148.9 -374.8 150.4 -341.5 151.95 L-335.0 151.95 Q-336.8 145.65 -337.85 136.0 L-338.5 129.35 Q-338.9 124.05 -338.9 119.2 -338.9 81.8 -315.8 55.25 -292.7 28.8 -259.95 28.8 -227.25 28.8 -204.05 55.25 -180.95 81.8 -180.95 119.2 L-180.95 119.7 -180.95 120.15 -180.95 120.55 -180.95 120.95 Q-181.05 126.45 -181.6 132.45 L-181.75 133.75 -181.75 134.0 -182.1 136.75 Q-183.3 146.6 -185.25 153.35 L219.5 153.2 Q217.8 147.25 216.75 138.1 L216.6 136.7 216.6 136.4 216.5 135.7 M378.05 -32.4 L378.8 -31.55 Q381.8 -28.25 383.1 -27.4 390.75 -22.45 403.35 -6.25 416.7 10.75 417.65 18.2 417.85 19.45 420.8 29.85 423.95 40.45 425.2 50.65 L425.65 54.1 Q428.2 78.0 423.35 107.7 421.9 116.6 419.8 126.05 L418.9 129.9 Q387.05 140.5 373.85 143.55 L370.6 143.65 Q372.3 135.6 372.5 125.05 L372.5 122.25 372.45 118.1 371.95 111.35 Q368.95 82.2 349.6 60.5 326.6 34.9 294.15 34.9 261.7 34.9 238.8 60.5 219.35 82.2 216.35 111.35 215.9 115.6 215.85 120.05 L215.8 122.15 215.8 122.25 215.8 123.0 215.95 127.7 215.95 128.1 215.95 128.15 216.0 128.9 216.25 132.5" fill="none" stroke="#231f20" stroke-linecap="butt" stroke-linejoin="miter-clip" stroke-miterlimit="10.0" stroke-width="1.0"/>
    <path d="M4.15 -16.75 L49.3 -16.75 Q51.3 -16.75 52.55 -15.2 53.9 -13.6 53.9 -11.4 53.9 -9.2 52.55 -7.65 51.3 -6.05 49.3 -6.05 L4.15 -6.05 Q2.25 -6.05 0.9 -7.65 -0.5 -9.2 -0.5 -11.4 -0.5 -13.6 0.9 -15.2 2.25 -16.75 4.15 -16.75 M205.95 -21.3 Q204.6 -22.85 204.6 -25.05 204.6 -27.25 205.95 -28.85 207.3 -30.4 209.2 -30.4 L254.35 -30.4 Q256.25 -30.4 257.6 -28.85 259.0 -27.25 259.0 -25.05 259.0 -22.85 257.6 -21.3 256.25 -19.8 254.35 -19.8 L209.2 -19.8 Q207.3 -19.8 205.95 -21.3" fill="none" stroke="#000000" stroke-linecap="butt" stroke-linejoin="miter-clip" stroke-miterlimit="10.0" stroke-width="1.0"/>
    <path d="M68.5 -44.0 L62.4 25.45 Q58.85 79.45 60.8 111.35 61.55 124.3 63.25 133.6 L-149.15 133.6 Q-154.95 132.65 -158.5 126.25 L-161.0 119.95 -162.9 111.35 Q-168.75 81.85 -168.45 39.3 -168.25 -1.55 -165.0 -10.7 -163.35 -15.4 -159.45 -23.4 L-155.75 -30.4 M198.4 111.35 L258.35 9.05 Q263.4 -1.15 268.1 -13.5 277.75 -38.2 276.95 -48.6 L250.35 -74.4 M198.4 111.35 L193.35 119.95 Q186.65 128.45 176.05 131.9 L166.8 133.6 63.25 133.6" fill="none" stroke="#000000" stroke-linecap="butt" stroke-linejoin="miter-clip" stroke-miterlimit="10.0" stroke-opacity="0.6" stroke-width="1.0"/>
  </g>
</svg>
