<?xml version="1.0" encoding="UTF-8" standalone="no"?>
<svg xmlns:xlink="http://www.w3.org/1999/xlink" height="26.95px" width="27.05px" xmlns="http://www.w3.org/2000/svg">
  <g transform="matrix(1.0, 0.0, 0.0, 1.0, 13.5, 13.45)">
    <path d="M-9.1 -9.15 Q-5.3 -12.95 0.05 -12.95 5.4 -12.95 9.25 -9.15 13.05 -5.4 13.05 0.05 13.05 5.4 9.25 9.2 5.4 13.0 0.05 13.0 -5.3 13.0 -9.1 9.2 -13.0 5.4 -13.0 0.05 -13.0 -5.4 -9.1 -9.15" fill="#ffffff" fill-opacity="0.0" fill-rule="evenodd" stroke="none"/>
    <path d="M-9.1 -9.15 Q-13.0 -5.4 -13.0 0.05 -13.0 5.4 -9.1 9.2 -5.3 13.0 0.05 13.0 5.4 13.0 9.25 9.2 13.05 5.4 13.05 0.05 13.05 -5.4 9.25 -9.15 5.4 -12.95 0.05 -12.95 -5.3 -12.95 -9.1 -9.15 Z" fill="none" stroke="#000000" stroke-linecap="butt" stroke-linejoin="miter-clip" stroke-miterlimit="10.0" stroke-width="1.0"/>
  </g>
</svg>
