<?xml version="1.0" encoding="UTF-8" standalone="no"?>
<svg xmlns:xlink="http://www.w3.org/1999/xlink" height="82.35px" width="148.2px" xmlns="http://www.w3.org/2000/svg">
  <g transform="matrix(1.0, 0.0, 0.0, 1.0, 73.9, 23.9)">
    <path d="M-59.7 -16.95 Q-60.4 -17.65 -61.4 -17.65 -62.35 -17.65 -63.05 -16.95 -63.75 -16.25 -63.75 -15.3 -63.75 -14.3 -63.05 -13.6 -62.35 -12.9 -61.4 -12.9 -60.4 -12.9 -59.7 -13.6 -59.0 -14.3 -59.0 -15.3 -59.0 -16.25 -59.7 -16.95 M73.8 -23.4 L73.8 57.95 -73.4 57.95 -73.4 -23.4 73.8 -23.4 M59.75 -13.6 Q60.45 -12.9 61.4 -12.9 62.35 -12.9 63.05 -13.6 63.75 -14.3 63.75 -15.3 63.75 -16.25 63.05 -16.95 62.4 -17.65 61.4 -17.65 60.45 -17.65 59.75 -16.95 59.05 -16.25 59.05 -15.3 59.05 -14.3 59.75 -13.6 M2.1 -17.6 Q1.35 -18.4 0.2 -18.4 -0.9 -18.4 -1.65 -17.6 -2.45 -16.8 -2.45 -15.7 -2.45 -14.6 -1.65 -13.8 -0.9 -13.0 0.2 -13.0 1.35 -13.0 2.1 -13.8 2.9 -14.55 2.9 -15.7 2.9 -16.8 2.1 -17.6" fill="#000000" fill-opacity="0.2" fill-rule="evenodd" stroke="none"/>
    <path d="M2.1 -17.6 Q2.9 -16.8 2.9 -15.7 2.9 -14.55 2.1 -13.8 1.35 -13.0 0.2 -13.0 -0.9 -13.0 -1.65 -13.8 -2.45 -14.6 -2.45 -15.7 -2.45 -16.8 -1.65 -17.6 -0.9 -18.4 0.2 -18.4 1.35 -18.4 2.1 -17.6 M59.75 -13.6 Q59.05 -14.3 59.05 -15.3 59.05 -16.25 59.75 -16.95 60.45 -17.65 61.4 -17.65 62.4 -17.65 63.05 -16.95 63.75 -16.25 63.75 -15.3 63.75 -14.3 63.05 -13.6 62.35 -12.9 61.4 -12.9 60.45 -12.9 59.75 -13.6 M73.8 -23.4 L-73.4 -23.4 -73.4 57.95 73.8 57.95 73.8 -23.4 M-59.7 -16.95 Q-59.0 -16.25 -59.0 -15.3 -59.0 -14.3 -59.7 -13.6 -60.4 -12.9 -61.4 -12.9 -62.35 -12.9 -63.05 -13.6 -63.75 -14.3 -63.75 -15.3 -63.75 -16.25 -63.05 -16.95 -62.35 -17.65 -61.4 -17.65 -60.4 -17.65 -59.7 -16.95" fill="none" stroke="#231f20" stroke-linecap="butt" stroke-linejoin="miter-clip" stroke-miterlimit="4.0" stroke-opacity="0.4" stroke-width="1.0"/>
  </g>
</svg>
