<?xml version="1.0" encoding="UTF-8" standalone="no"?>
<svg xmlns:xlink="http://www.w3.org/1999/xlink" height="22.95px" width="34.65px" xmlns="http://www.w3.org/2000/svg">
  <g transform="matrix(1.0, 0.0, 0.0, 1.0, 17.35, 11.65)">
    <path d="M16.55 -10.8 L16.8 -6.0 -14.9 -6.0 -14.15 -10.55 16.55 -10.8" fill="#ffffff" fill-opacity="0.0" fill-rule="evenodd" stroke="none"/>
    <path d="M16.55 -10.8 L-14.15 -10.55 -14.9 -6.0 16.8 -6.0 16.55 -10.8 Z" fill="none" stroke="#000000" stroke-linecap="butt" stroke-linejoin="miter-clip" stroke-miterlimit="4.0" stroke-width="1.0"/>
    <path d="M-15.6 0.5 L-9.85 0.5 -11.05 10.8 -16.8 10.8 -15.6 0.5" fill="#ffffff" fill-opacity="0.0" fill-rule="evenodd" stroke="none"/>
    <path d="M-15.6 0.5 L-16.8 10.8 -11.05 10.8 -9.85 0.5 -15.6 0.5 Z" fill="none" stroke="#000000" stroke-linecap="butt" stroke-linejoin="miter-clip" stroke-miterlimit="4.0" stroke-width="1.0"/>
    <path d="M-5.05 0.5 L0.7 0.5 -0.5 10.8 -6.25 10.8 -5.05 0.5" fill="#ffffff" fill-opacity="0.0" fill-rule="evenodd" stroke="none"/>
    <path d="M-5.05 0.5 L-6.25 10.8 -0.5 10.8 0.7 0.5 -5.05 0.5 Z" fill="none" stroke="#000000" stroke-linecap="butt" stroke-linejoin="miter-clip" stroke-miterlimit="4.0" stroke-width="1.0"/>
  </g>
</svg>
