<?xml version="1.0" encoding="UTF-8" standalone="no"?>
<svg xmlns:xlink="http://www.w3.org/1999/xlink" height="50.2px" width="49.65px" xmlns="http://www.w3.org/2000/svg">
  <g transform="matrix(1.0, 0.0, 0.0, 1.0, 24.15, 25.1)">
    <path d="M0.15 -23.85 L1.65 24.6 Q-18.7 24.65 -23.65 22.95 -23.65 14.95 -22.5 5.2 -20.25 -14.4 -14.65 -23.4 L0.15 -23.85" fill="#ffffff" fill-opacity="0.0" fill-rule="evenodd" stroke="none"/>
    <path d="M0.15 -23.85 L21.15 -24.6 21.15 -24.55 21.25 -24.55 23.6 24.2 23.5 24.2 18.7 24.35 6.0 24.6 1.65 24.6 0.15 -23.85" fill="#000000" fill-opacity="0.09803922" fill-rule="evenodd" stroke="none"/>
    <path d="M1.65 24.6 L6.0 24.6 18.7 24.35 23.5 24.2 23.6 24.2 21.25 -24.55 21.15 -24.55 21.15 -24.6 0.15 -23.85 -14.65 -23.4 Q-20.25 -14.4 -22.5 5.2 -23.65 14.95 -23.65 22.95 -18.7 24.65 1.65 24.6" fill="none" stroke="#000000" stroke-linecap="round" stroke-linejoin="miter-clip" stroke-miterlimit="4.0" stroke-width="1.0"/>
    <path d="M0.15 -23.85 L1.65 24.6" fill="none" stroke="#000000" stroke-linecap="round" stroke-linejoin="miter-clip" stroke-miterlimit="4.0" stroke-opacity="0.6" stroke-width="1.0"/>
  </g>
</svg>
