<?xml version="1.0" encoding="UTF-8" standalone="no"?>
<svg xmlns:xlink="http://www.w3.org/1999/xlink" height="86.75px" width="222.45px" xmlns="http://www.w3.org/2000/svg">
  <g transform="matrix(1.0, 0.0, 0.0, 1.0, 111.2, 36.05)">
    <path d="M0.05 -35.25 L34.7 -34.0 Q53.35 -32.45 70.85 -28.9 L84.65 -25.65 88.85 -25.35 Q90.05 -25.35 94.95 -22.7 99.9 -20.05 103.25 -17.55 106.05 -15.45 108.3 -10.0 109.45 -7.3 110.0 -5.0 111.25 4.35 110.45 17.45 109.65 31.2 107.1 38.5 104.9 44.8 100.0 47.7 L95.55 49.35 82.75 49.35 Q82.2 49.9 81.15 50.15 79.05 50.55 76.65 48.8 74.25 47.05 69.95 46.8 L0.6 49.85 0.6 49.9 -0.55 49.9 -0.55 49.85 -69.9 46.8 Q-74.2 47.05 -76.6 48.8 -79.0 50.55 -81.1 50.15 -82.15 49.9 -82.7 49.35 L-95.5 49.35 -99.95 47.7 Q-104.85 44.8 -107.05 38.5 -109.6 31.25 -110.4 17.45 -111.15 4.35 -109.9 -5.0 L-108.25 -10.0 Q-106.0 -15.45 -103.2 -17.55 -99.85 -20.05 -94.9 -22.7 -90.0 -25.35 -88.8 -25.35 L-84.6 -25.65 -70.8 -28.9 Q-53.25 -32.45 -34.65 -34.0 L0.05 -35.25" fill="#ffffff" fill-opacity="0.0" fill-rule="evenodd" stroke="none"/>
    <path d="M-68.9 -20.9 L-62.65 -14.45 Q-59.1 -10.35 -56.75 -6.15 -56.2 -4.45 -54.45 -2.9 -51.0 0.25 -45.2 -0.3 L0.25 -0.3" fill="none" stroke="#000000" stroke-linecap="butt" stroke-linejoin="miter-clip" stroke-miterlimit="4.0" stroke-opacity="0.6" stroke-width="1.0"/>
    <path d="M68.1 -20.5 Q60.85 -13.3 56.8 -6.15 56.25 -4.45 54.5 -2.9 51.05 0.25 45.25 -0.3 L-0.2 -0.3" fill="none" stroke="#000000" stroke-linecap="butt" stroke-linejoin="miter-clip" stroke-miterlimit="4.0" stroke-opacity="0.6" stroke-width="1.0"/>
    <path d="M93.65 14.5 Q103.45 11.8 107.65 6.55 110.35 3.15 110.4 -0.75 111.15 8.95 110.3 20.15 109.35 32.05 107.1 38.5 104.9 44.8 100.0 47.7 L95.55 49.35 82.75 49.35 Q82.2 49.9 81.15 50.15 79.05 50.55 76.65 48.8 74.25 47.05 69.95 46.8 L0.6 49.85 0.6 49.9 -0.55 49.9 -0.55 49.85 -69.9 46.8 Q-74.2 47.05 -76.6 48.8 -79.0 50.55 -81.1 50.15 -82.15 49.9 -82.7 49.35 L-95.5 49.35 -99.95 47.7 Q-104.85 44.8 -107.05 38.5 -109.3 32.0 -110.2 20.15 -111.1 8.9 -110.35 -0.75 -110.3 3.15 -107.55 6.55 -103.35 11.8 -93.6 14.5 L93.65 14.5" fill="#000000" fill-opacity="0.2" fill-rule="evenodd" stroke="none"/>
    <path d="M105.0 34.7 Q103.45 35.45 98.65 36.15 L72.8 37.25 -72.75 37.25 -98.6 36.15 Q-103.4 35.45 -104.95 34.7 L-67.5 34.3 67.55 34.3 105.0 34.7" fill="#ffffff" fill-opacity="0.6" fill-rule="evenodd" stroke="none"/>
    <path d="M21.25 -26.35 L18.3 -25.95 -23.5 -25.95 Q-26.4 -26.15 -30.0 -28.45 L29.1 -28.45 Q25.05 -27.0 21.25 -26.35" fill="#000000" fill-opacity="0.4" fill-rule="evenodd" stroke="none"/>
    <path d="M21.25 -26.35 Q25.05 -27.0 29.1 -28.45 L-30.0 -28.45 Q-26.4 -26.15 -23.5 -25.95 L18.3 -25.95 21.25 -26.35 Z" fill="none" stroke="#000000" stroke-linecap="butt" stroke-linejoin="miter-clip" stroke-miterlimit="4.0" stroke-width="1.0"/>
    <path d="M85.8 -25.65 Q83.95 -24.6 81.05 -23.5 75.3 -21.25 70.1 -20.9 L-68.9 -20.9 Q-74.1 -21.25 -79.9 -23.5 -82.75 -24.6 -84.6 -25.65" fill="none" stroke="#000000" stroke-linecap="butt" stroke-linejoin="miter-clip" stroke-miterlimit="4.0" stroke-opacity="0.6" stroke-width="1.0"/>
    <path d="M0.05 -35.25 L-34.65 -34.0 Q-53.25 -32.45 -70.8 -28.9 L-84.6 -25.65 -88.8 -25.35 Q-90.0 -25.35 -94.9 -22.7 -99.85 -20.05 -103.2 -17.55 -106.0 -15.45 -108.25 -10.0 L-109.9 -5.0 Q-111.15 4.35 -110.4 17.45 -109.6 31.25 -107.05 38.5 -104.85 44.8 -99.95 47.7 L-95.5 49.35 -82.7 49.35 Q-82.15 49.9 -81.1 50.15 -79.0 50.55 -76.6 48.8 -74.2 47.05 -69.9 46.8 L-0.55 49.85 -0.55 49.9 0.6 49.9 0.6 49.85 69.95 46.8 Q74.25 47.05 76.65 48.8 79.05 50.55 81.15 50.15 82.2 49.9 82.75 49.35 L95.55 49.35 100.0 47.7 Q104.9 44.8 107.1 38.5 109.65 31.2 110.45 17.45 111.25 4.35 110.0 -5.0 109.45 -7.3 108.3 -10.0 106.05 -15.45 103.25 -17.55 99.9 -20.05 94.95 -22.7 90.05 -25.35 88.85 -25.35 L84.65 -25.65 70.85 -28.9 Q53.35 -32.45 34.7 -34.0 L0.05 -35.25 Z" fill="none" stroke="#000000" stroke-linecap="butt" stroke-linejoin="miter-clip" stroke-miterlimit="4.0" stroke-width="1.0"/>
  </g>
</svg>
