<?xml version="1.0" encoding="UTF-8" standalone="no"?>
<svg xmlns:xlink="http://www.w3.org/1999/xlink" height="51.1px" width="256.6px" xmlns="http://www.w3.org/2000/svg">
  <g transform="matrix(1.0, 0.0, 0.0, 1.0, 128.55, 25.55)">
    <path d="M47.95 -25.05 L80.3 -22.25 126.7 -24.6 74.4 21.85 19.7 25.05 -17.8 22.45 -55.7 23.95 -84.5 21.1 -126.7 21.95 -53.15 -22.8 -12.95 -24.75 -11.75 -24.6 11.8 -21.95 45.6 -24.85 47.95 -25.05" fill="#ffffff" fill-opacity="0.0" fill-rule="evenodd" stroke="none"/>
    <path d="M47.95 -25.05 L80.3 -22.25 126.7 -24.6 74.4 21.85 19.7 25.05 -17.8 22.45 -55.7 23.95 -84.5 21.1 -126.7 21.95 -53.15 -22.8 -12.95 -24.75 -11.75 -24.6 11.8 -21.95 45.6 -24.85 47.95 -25.05 Z" fill="none" stroke="#000000" stroke-linecap="butt" stroke-linejoin="miter-clip" stroke-miterlimit="4.0" stroke-width="1.0"/>
  </g>
</svg>
