<?xml version="1.0" encoding="UTF-8" standalone="no"?>
<svg xmlns:xlink="http://www.w3.org/1999/xlink" height="24.5px" width="59.4px" xmlns="http://www.w3.org/2000/svg">
  <g transform="matrix(1.0, 0.0, 0.0, 1.0, 29.55, 11.8)">
    <path d="M-18.75 1.0 Q-29.0 0.95 -28.85 0.15 L-29.0 -1.5 Q-29.0 -3.25 -28.7 -3.6 L-26.2 -4.0 -24.1 -4.0 -14.65 -3.8 Q-5.1 -3.7 -4.85 -4.0 -4.55 -4.25 3.7 -4.15 L11.9 -4.0 27.85 -4.0 28.7 -2.6 Q29.4 -1.0 28.75 -0.05 L17.55 0.4 6.9 -0.05 -8.5 0.9 -18.75 1.0" fill="#ffffff" fill-opacity="0.0" fill-rule="evenodd" stroke="none"/>
    <path d="M-18.75 1.0 Q-29.0 0.95 -28.85 0.15 L-29.0 -1.5 Q-29.0 -3.25 -28.7 -3.6 L-26.2 -4.0 -24.1 -4.0 -14.65 -3.8 Q-5.1 -3.7 -4.85 -4.0 -4.55 -4.25 3.7 -4.15 L11.9 -4.0 27.85 -4.0 28.7 -2.6 Q29.4 -1.0 28.75 -0.05 L17.55 0.4 6.9 -0.05 -8.5 0.9 -18.75 1.0 Z" fill="none" stroke="#000000" stroke-linecap="butt" stroke-linejoin="miter-clip" stroke-miterlimit="4.0" stroke-width="1.0"/>
    <path d="M-17.55 7.2 L-12.8 7.05 -10.2 7.15 -6.75 7.1 Q-3.65 7.95 -1.3 9.1 L0.25 9.9 1.9 10.0 4.15 9.05 Q5.75 8.25 6.4 8.0 L10.45 6.45 15.15 6.3 19.85 6.2 24.15 6.35 Q27.6 6.35 27.7 5.6 L28.6 7.35 Q29.4 9.25 28.75 10.2 L17.55 10.65 6.9 10.2 -8.5 11.15 -18.75 11.3 Q-29.0 11.25 -28.85 10.4 L-29.0 8.75 Q-29.0 7.0 -28.7 6.65 L-26.65 6.3 -26.7 6.85 Q-26.5 7.55 -24.7 7.5 L-22.3 7.3 -17.55 7.2" fill="#ffffff" fill-opacity="0.0" fill-rule="evenodd" stroke="none"/>
    <path d="M-17.55 7.2 L-22.3 7.3 -24.7 7.5 Q-26.5 7.55 -26.7 6.85 L-26.65 6.3 -28.7 6.65 Q-29.0 7.0 -29.0 8.75 L-28.85 10.4 Q-29.0 11.25 -18.75 11.3 L-8.5 11.15 6.9 10.2 17.55 10.65 28.75 10.2 Q29.4 9.25 28.6 7.35 L27.7 5.6 Q27.6 6.35 24.15 6.35 L19.85 6.2 15.15 6.3 10.45 6.45 6.4 8.0 Q5.75 8.25 4.15 9.05 L1.9 10.0 0.25 9.9 -1.3 9.1 Q-3.65 7.95 -6.75 7.1 L-10.2 7.15 -12.8 7.05 -17.55 7.2 Z" fill="none" stroke="#000000" stroke-linecap="butt" stroke-linejoin="miter-clip" stroke-miterlimit="4.0" stroke-width="1.0"/>
    <path d="M3.7 -4.15 Q-4.55 -4.25 -4.85 -4.0 -5.1 -3.7 -14.65 -3.8 L-24.1 -4.0 -27.55 -3.9 -12.4 -8.1 -0.05 -11.3 Q1.0 -11.4 14.5 -7.7 L27.85 -4.0 11.9 -4.0 3.7 -4.15" fill="#ffffff" fill-opacity="0.29803923" fill-rule="evenodd" stroke="none"/>
    <path d="M3.7 -4.15 L11.9 -4.0 27.85 -4.0 14.5 -7.7 Q1.0 -11.4 -0.05 -11.3 L-12.4 -8.1 -27.55 -3.9 -24.1 -4.0 -14.65 -3.8 Q-5.1 -3.7 -4.85 -4.0 -4.55 -4.25 3.7 -4.15 Z" fill="none" stroke="#000000" stroke-linecap="butt" stroke-linejoin="miter-clip" stroke-miterlimit="4.0" stroke-width="1.0"/>
    <path d="M-2.15 -7.45 L-2.3 -7.25 -2.7 -7.2 -3.1 -7.25 -3.25 -7.45 -3.1 -7.65 -2.7 -7.75 -2.3 -7.65 -2.15 -7.45" fill="#000000" fill-opacity="0.2" fill-rule="evenodd" stroke="none"/>
    <path d="M-0.3 -7.45 L-0.5 -7.25 -0.9 -7.2 -1.25 -7.25 -1.45 -7.45 -1.25 -7.65 -0.9 -7.75 -0.5 -7.65 -0.3 -7.45" fill="#000000" fill-opacity="0.2" fill-rule="evenodd" stroke="none"/>
    <path d="M-6.1 -6.85 L-5.95 -6.7 -6.1 -6.55 -6.5 -6.45 -6.9 -6.55 -7.05 -6.7 -6.9 -6.85 -6.5 -6.9 -6.1 -6.85" fill="#000000" fill-opacity="0.2" fill-rule="evenodd" stroke="none"/>
    <path d="M-2.3 -8.65 L-2.5 -8.6 -2.7 -8.65 -2.5 -8.7 -2.3 -8.65" fill="#000000" fill-opacity="0.2" fill-rule="evenodd" stroke="none"/>
    <path d="M4.05 -7.05 Q4.05 -6.9 3.7 -6.9 3.35 -6.9 3.35 -7.05 3.35 -7.2 3.7 -7.2 L4.05 -7.05" fill="#000000" fill-opacity="0.2" fill-rule="evenodd" stroke="none"/>
    <path d="M6.3 -5.85 L5.9 -5.75 5.45 -5.85 5.9 -5.9 6.3 -5.85" fill="#000000" fill-opacity="0.2" fill-rule="evenodd" stroke="none"/>
    <path d="M9.95 -7.1 L9.6 -7.05 9.25 -7.1 9.6 -7.2 9.95 -7.1" fill="#000000" fill-opacity="0.2" fill-rule="evenodd" stroke="none"/>
    <path d="M-12.85 -6.15 L-13.2 -6.05 Q-13.55 -6.05 -13.55 -6.15 L-13.2 -6.2 -12.85 -6.15" fill="#000000" fill-opacity="0.2" fill-rule="evenodd" stroke="none"/>
    <path d="M-3.25 -8.25 L-3.7 -8.15 -4.1 -8.25 -3.7 -8.3 -3.25 -8.25" fill="#000000" fill-opacity="0.2" fill-rule="evenodd" stroke="none"/>
    <path d="M13.45 -5.85 L12.55 -5.65 Q11.65 -5.65 11.65 -5.85 L12.55 -6.05 13.2 -6.0 13.45 -5.85" fill="#000000" fill-opacity="0.2" fill-rule="evenodd" stroke="none"/>
    <path d="M16.8 -5.0 L17.35 -5.1 17.9 -5.0 18.1 -4.85 17.9 -4.7 17.35 -4.65 16.8 -4.7 Q16.55 -4.8 16.55 -4.85 L16.8 -5.0" fill="#000000" fill-opacity="0.2" fill-rule="evenodd" stroke="none"/>
    <path d="M4.3 -5.5 L4.1 -5.3 3.65 -5.2 3.15 -5.3 2.95 -5.5 3.15 -5.7 3.65 -5.75 4.1 -5.7 4.3 -5.5" fill="#000000" fill-opacity="0.2" fill-rule="evenodd" stroke="none"/>
    <path d="M4.6 -8.95 L4.9 -9.0 5.2 -8.95 5.3 -8.7 5.2 -8.55 4.9 -8.45 Q4.7 -8.45 4.6 -8.55 L4.45 -8.7 4.6 -8.95" fill="#000000" fill-opacity="0.2" fill-rule="evenodd" stroke="none"/>
    <path d="M2.2 -6.05 Q2.2 -5.9 1.6 -5.9 L0.95 -6.05 1.6 -6.2 2.05 -6.15 2.2 -6.05" fill="#000000" fill-opacity="0.2" fill-rule="evenodd" stroke="none"/>
    <path d="M-14.5 -5.35 L-14.75 -5.15 -15.3 -5.1 -15.85 -5.15 -16.05 -5.35 -15.85 -5.55 -15.3 -5.65 -14.75 -5.55 -14.5 -5.35" fill="#000000" fill-opacity="0.2" fill-rule="evenodd" stroke="none"/>
    <path d="M-8.45 -7.4 L-9.05 -7.35 -9.6 -7.4 -9.05 -7.45 -8.45 -7.4" fill="#000000" fill-opacity="0.2" fill-rule="evenodd" stroke="none"/>
    <path d="M-6.1 -5.0 L-6.8 -4.95 -7.5 -5.0 -6.8 -5.1 -6.1 -5.0" fill="#000000" fill-opacity="0.2" fill-rule="evenodd" stroke="none"/>
    <path d="M-1.7 -5.7 L-2.35 -5.65 -3.0 -5.7 -2.35 -5.75 -1.7 -5.7" fill="#000000" fill-opacity="0.2" fill-rule="evenodd" stroke="none"/>
    <path d="M1.25 -9.7 L0.7 -9.55 Q0.1 -9.55 0.1 -9.7 L0.7 -9.85 1.25 -9.7" fill="#000000" fill-opacity="0.2" fill-rule="evenodd" stroke="none"/>
    <path d="M10.4 -6.45 L9.55 -6.35 8.7 -6.45 8.95 -6.6 9.55 -6.6 10.15 -6.6 10.4 -6.45" fill="#000000" fill-opacity="0.2" fill-rule="evenodd" stroke="none"/>
    <path d="M11.2 -8.3 Q11.2 -8.15 10.6 -8.15 L9.95 -8.3 10.15 -8.4 10.6 -8.45 11.2 -8.3" fill="#000000" fill-opacity="0.2" fill-rule="evenodd" stroke="none"/>
    <path d="M20.35 -4.95 L19.75 -4.8 19.1 -4.95 19.3 -5.05 19.75 -5.1 20.35 -4.95" fill="#000000" fill-opacity="0.2" fill-rule="evenodd" stroke="none"/>
  </g>
</svg>
