<?xml version="1.0" encoding="UTF-8" standalone="no"?>
<svg xmlns:xlink="http://www.w3.org/1999/xlink" height="195.2px" width="42.35px" xmlns="http://www.w3.org/2000/svg">
  <g transform="matrix(1.0, 0.0, 0.0, 1.0, 21.2, 97.4)">
    <path d="M-12.9 -96.9 L-3.5 -96.9 -3.5 -12.65 Q-0.55 -5.9 -0.55 1.35 -0.55 6.05 -1.75 10.3 L-2.05 10.2 -1.1 10.75 Q-0.45 11.5 -0.45 12.4 -0.45 13.4 -1.1 14.1 -1.75 14.75 -2.65 14.8 -0.5 20.75 -0.55 27.05 -0.6 31.25 -1.65 35.2 -1.35 35.3 -1.1 35.55 -0.45 36.25 -0.45 37.25 -0.45 38.2 -1.1 38.9 -1.75 39.5 -2.6 39.55 -0.65 49.05 -0.55 58.95 -0.5 66.2 -1.35 72.9 L-0.05 72.9 Q1.1 72.0 3.5 75.55 6.15 74.3 8.0 72.7 7.2 68.4 6.9 61.25 6.3 46.9 8.65 32.65 L8.0 29.1 Q7.35 24.65 7.6 20.0 L17.2 20.0 Q17.1 25.85 15.5 32.65 L16.0 35.0 Q16.6 38.15 16.9 42.25 17.9 55.3 15.5 72.75 L16.75 72.75 18.1 72.85 Q20.45 73.7 20.65 78.6 L20.35 84.2 0.75 96.7 0.8 96.95 -20.15 96.95 Q-21.7 84.5 -18.85 77.45 -17.95 75.25 -16.7 73.85 L-15.65 72.9 -14.0 72.9 Q-15.75 61.8 -15.5 52.05 -15.25 45.15 -14.05 39.55 L-15.1 39.55 Q-16.1 39.55 -16.8 38.9 -17.45 38.2 -17.45 37.25 -17.45 36.25 -16.8 35.55 -16.1 34.9 -15.1 34.9 L-13.7 34.9 Q-15.75 28.1 -15.5 22.2 -15.3 18.05 -14.0 14.8 L-15.1 14.8 Q-16.1 14.8 -16.8 14.1 -17.45 13.4 -17.45 12.4 -17.45 11.45 -16.8 10.75 -16.1 10.1 -15.1 10.1 L-13.55 10.1 Q-16.5 0.6 -15.0 -6.95 -14.5 -9.35 -13.7 -11.25 L-12.9 -12.65 -12.9 -96.9 M-12.9 -12.65 L-3.5 -12.65 -12.9 -12.65 M-2.75 10.1 L-2.05 10.2 -2.75 10.1 -13.55 10.1 -2.75 10.1 M-14.0 14.8 L-2.65 14.8 -14.0 14.8 M-1.65 35.2 Q-2.0 35.0 -2.35 34.95 L-2.65 34.9 -2.35 34.95 Q-2.0 35.0 -1.65 35.2 M-2.6 39.55 L-14.05 39.55 -2.6 39.55 M-13.7 34.9 L-2.65 34.9 -13.7 34.9 M-14.0 72.9 L-1.35 72.9 -14.0 72.9 M-0.5 86.35 L-0.35 89.55 -0.25 90.6 -0.4 88.4 -0.5 86.35 Q-0.75 79.2 0.8 72.9 L-0.05 72.9 0.8 72.9 Q-0.75 79.2 -0.5 86.35 M15.5 32.65 L8.65 32.65 15.5 32.65 M16.3 72.85 L16.05 72.9 15.75 73.0 16.3 72.85 16.85 72.75 16.75 72.75 16.85 72.75 16.3 72.85 M8.0 72.7 L15.5 72.75 8.0 72.7 M3.5 75.55 L3.65 75.8 4.35 76.9 Q6.2 79.95 8.55 79.65 L8.85 79.6 9.95 79.2 10.85 78.6 12.7 76.85 15.75 73.0 12.7 76.85 10.85 78.6 9.95 79.2 8.85 79.6 8.55 79.65 Q6.2 79.95 4.35 76.9 L3.65 75.8 3.5 75.55 M0.75 96.7 L0.4 95.15 0.1 93.4 -0.25 90.6 0.1 93.4 0.4 95.15 0.75 96.7" fill="#ffffff" fill-opacity="0.0" fill-rule="evenodd" stroke="none"/>
    <path d="M-12.9 -96.9 L-3.5 -96.9" fill="none" stroke="#000000" stroke-linecap="butt" stroke-linejoin="miter-clip" stroke-miterlimit="4.0" stroke-opacity="0.6" stroke-width="1.0"/>
    <path d="M-3.5 -96.9 L-3.5 -12.65 M-15.1 14.8 Q-16.1 14.8 -16.8 14.1 -17.45 13.4 -17.45 12.4 -17.45 11.45 -16.8 10.75 -16.1 10.1 -15.1 10.1 L-13.55 10.1 M-2.65 34.9 L-2.35 34.95 Q-2.0 35.0 -1.65 35.2" fill="none" stroke="#000000" stroke-linecap="butt" stroke-linejoin="miter-clip" stroke-miterlimit="4.0" stroke-width="1.0"/>
    <path d="M-3.5 -12.65 Q-0.55 -5.9 -0.55 1.35 -0.55 6.05 -1.75 10.3 L-2.05 10.2 -1.1 10.75 Q-0.45 11.5 -0.45 12.4 -0.45 13.4 -1.1 14.1 -1.75 14.75 -2.65 14.8 -0.5 20.75 -0.55 27.05 -0.6 31.25 -1.65 35.2 -1.35 35.3 -1.1 35.55 -0.45 36.25 -0.45 37.25 -0.45 38.2 -1.1 38.9 -1.75 39.5 -2.6 39.55 -0.65 49.05 -0.55 58.95 -0.5 66.2 -1.35 72.9 L-0.05 72.9 Q1.1 72.0 3.5 75.55 6.15 74.3 8.0 72.7 7.2 68.4 6.9 61.25 6.3 46.9 8.65 32.65 L8.0 29.1 Q7.35 24.65 7.6 20.0 L17.2 20.0 Q17.1 25.85 15.5 32.65 L16.0 35.0 Q16.6 38.15 16.9 42.25 17.9 55.3 15.5 72.75 L16.75 72.75 18.1 72.85 Q20.45 73.7 20.65 78.6 L20.35 84.2 0.75 96.7 0.8 96.95 -20.15 96.95 Q-21.7 84.5 -18.85 77.45 -17.95 75.25 -16.7 73.85 L-15.65 72.9 -14.0 72.9 Q-15.75 61.8 -15.5 52.05 -15.25 45.15 -14.05 39.55 L-15.1 39.55 Q-16.1 39.55 -16.8 38.9 -17.45 38.2 -17.45 37.25 -17.45 36.25 -16.8 35.55 -16.1 34.9 -15.1 34.9 L-13.7 34.9 Q-15.75 28.1 -15.5 22.2 -15.3 18.05 -14.0 14.8 M-13.55 10.1 Q-16.5 0.6 -15.0 -6.95 -14.5 -9.35 -13.7 -11.25 L-12.9 -12.65 M-0.5 86.35 L-0.35 89.55 -0.25 90.6 -0.4 88.4 -0.5 86.35 Q-0.75 79.2 0.8 72.9 L-0.05 72.9 M16.3 72.85 L16.05 72.9 15.75 73.0 16.3 72.85 16.85 72.75 16.75 72.75 M-0.25 90.6 L0.1 93.4 0.4 95.15 0.75 96.7" fill="none" stroke="#000000" stroke-linecap="round" stroke-linejoin="miter-clip" stroke-miterlimit="4.0" stroke-width="1.0"/>
    <path d="M-14.0 14.8 L-15.1 14.8" fill="none" stroke="#000000" stroke-linecap="round" stroke-linejoin="miter-clip" stroke-miterlimit="4.0" stroke-opacity="0.6" stroke-width="1.0"/>
    <path d="M-12.9 -12.65 L-12.9 -96.9 M-2.05 10.2 L-2.75 10.1" fill="none" stroke="#000000" stroke-linecap="round" stroke-linejoin="miter-clip" stroke-miterlimit="4.0" stroke-width="1.0"/>
    <path d="M-3.5 -12.65 L-12.9 -12.65 M-2.65 14.8 L-14.0 14.8 M-14.05 39.55 L-2.6 39.55 M-1.35 72.9 L-14.0 72.9 M8.65 32.65 L15.5 32.65 M15.5 72.75 L8.0 72.7 M15.75 73.0 L12.7 76.85 10.85 78.6 9.95 79.2 8.85 79.6 8.55 79.65 Q6.2 79.95 4.35 76.9 L3.65 75.8 3.5 75.55" fill="none" stroke="#000000" stroke-linecap="round" stroke-linejoin="miter-clip" stroke-miterlimit="4.0" stroke-opacity="0.6" stroke-width="1.0"/>
    <path d="M-2.75 10.1 L-13.55 10.1 M-2.65 34.9 L-13.7 34.9" fill="none" stroke="#000000" stroke-linecap="butt" stroke-linejoin="miter-clip" stroke-miterlimit="4.0" stroke-opacity="0.6" stroke-width="1.0"/>
  </g>
</svg>
