<?xml version="1.0" encoding="UTF-8" standalone="no"?>
<svg xmlns:xlink="http://www.w3.org/1999/xlink" height="65.3px" width="44.45px" xmlns="http://www.w3.org/2000/svg">
  <g transform="matrix(1.0, 0.0, 0.0, 1.0, 286.3, 21.95)">
    <path d="M-269.25 37.9 L-269.1 39.1 Q-269.35 40.7 -271.1 42.75 L-276.75 40.5 Q-283.0 37.85 -285.75 35.75 -285.85 34.8 -285.55 33.65 -284.95 31.45 -283.0 30.8 -271.8 35.5 -269.25 37.9" fill="#ffffff" fill-opacity="0.0" fill-rule="evenodd" stroke="none"/>
    <path d="M-269.25 37.9 L-269.1 39.1 Q-269.35 40.7 -271.1 42.75 L-276.75 40.5 Q-283.0 37.85 -285.75 35.75 -285.85 34.8 -285.55 33.65 -284.95 31.45 -283.0 30.8 -271.8 35.5 -269.25 37.9 Z" fill="none" stroke="#000000" stroke-linecap="butt" stroke-linejoin="miter-clip" stroke-miterlimit="10.0" stroke-opacity="0.6" stroke-width="1.0"/>
    <path d="M-259.6 -18.6 Q-258.95 -20.8 -257.0 -21.45 -245.8 -16.75 -243.25 -14.35 -243.0 -13.95 -243.15 -13.1 -243.4 -11.5 -245.1 -9.5 L-250.8 -11.75 Q-257.05 -14.4 -259.8 -16.5 L-259.6 -18.6" fill="#ffffff" fill-opacity="0.0" fill-rule="evenodd" stroke="none"/>
    <path d="M-259.6 -18.6 Q-258.95 -20.8 -257.0 -21.45 -245.8 -16.75 -243.25 -14.35 -243.0 -13.95 -243.15 -13.1 -243.4 -11.5 -245.1 -9.5 L-250.8 -11.75 Q-257.05 -14.4 -259.8 -16.5 L-259.6 -18.6 Z" fill="none" stroke="#000000" stroke-linecap="butt" stroke-linejoin="miter-clip" stroke-miterlimit="10.0" stroke-opacity="0.6" stroke-width="1.0"/>
  </g>
</svg>
