<?xml version="1.0" encoding="UTF-8" standalone="no"?>
<svg xmlns:xlink="http://www.w3.org/1999/xlink" height="97.75px" width="201.85px" xmlns="http://www.w3.org/2000/svg">
  <g transform="matrix(1.0, 0.0, 0.0, 1.0, 100.95, 48.85)">
    <path d="M56.3 -27.35 Q59.7 -15.85 59.6 7.3 59.55 18.9 58.8 28.15 41.55 28.6 17.35 27.7 -31.0 25.85 -65.55 18.9 -64.9 8.5 -63.4 -3.8 -60.4 -28.45 -56.15 -38.15 L-55.4 -39.3 Q-54.15 -40.7 -51.45 -42.0 -42.9 -46.15 -23.45 -47.65 3.8 -49.8 26.1 -45.3 52.6 -40.0 56.3 -27.35" fill="#ffffff" fill-opacity="0.0" fill-rule="evenodd" stroke="none"/>
    <path d="M48.65 -36.95 Q54.75 -32.75 56.3 -27.35 59.7 -15.85 59.6 7.3 59.55 18.9 58.8 28.15 48.25 28.4 32.05 28.1 39.25 13.35 39.7 2.9 40.35 -12.4 25.85 -15.15 6.9 -18.75 -11.9 -26.0 L-26.9 -32.5 -23.55 -31.4 Q-19.1 -30.1 -13.55 -29.15 4.15 -26.05 25.85 -27.45 47.5 -28.8 50.05 -32.95 50.85 -34.2 49.6 -35.65 L48.25 -36.8 48.65 -36.95" fill="#000000" fill-opacity="0.2" fill-rule="evenodd" stroke="none"/>
    <path d="M98.9 26.6 Q104.2 32.15 91.05 36.95 79.55 41.1 55.75 44.2 34.5 46.95 9.55 48.1 -33.45 50.1 -71.6 37.8 -87.2 32.8 -95.0 27.2 -102.9 21.55 -99.3 17.75 -93.25 11.45 -75.95 10.35 -67.25 9.85 -59.8 10.55 -56.5 9.95 3.6 11.65 L63.05 13.45 Q92.9 20.25 98.9 26.6" fill="#ffffff" fill-opacity="0.0" fill-rule="evenodd" stroke="none"/>
    <path d="M9.55 44.25 Q42.65 42.7 67.3 38.65 95.8 33.95 99.8 27.7 104.55 35.4 74.05 41.3 48.2 46.3 9.55 48.1 -32.5 50.1 -70.25 38.25 -85.8 33.4 -94.05 27.85 -102.3 22.35 -99.8 18.45 -97.6 22.7 -87.85 27.55 -77.8 32.5 -63.1 36.5 -27.75 46.0 9.55 44.25" fill="#ffffff" fill-opacity="0.0" fill-rule="evenodd" stroke="none"/>
    <path d="M98.9 26.6 Q92.9 20.25 63.05 13.45 L3.6 11.65 Q-56.5 9.95 -59.8 10.55 -67.25 9.85 -75.95 10.35 -93.25 11.45 -99.3 17.75 -102.9 21.55 -95.0 27.2 -87.2 32.8 -71.6 37.8 -33.45 50.1 9.55 48.1 34.5 46.95 55.75 44.2 79.55 41.1 91.05 36.95 104.2 32.15 98.9 26.6 Z" fill="none" stroke="#000000" stroke-linecap="butt" stroke-linejoin="miter-clip" stroke-miterlimit="4.0" stroke-width="1.0"/>
    <path d="M-65.55 18.9 Q-64.9 8.5 -63.4 -3.8 -60.4 -28.45 -56.15 -38.15 L-55.4 -39.3 Q-54.15 -40.7 -51.45 -42.0 -42.9 -46.15 -23.45 -47.65 3.8 -49.8 26.1 -45.3 52.6 -40.0 56.3 -27.35 59.7 -15.85 59.6 7.3 59.55 18.9 58.8 28.15" fill="none" stroke="#000000" stroke-linecap="butt" stroke-linejoin="miter-clip" stroke-miterlimit="4.0" stroke-width="1.0"/>
    <path d="M58.8 28.15 Q41.55 28.6 17.35 27.7 -31.0 25.85 -65.55 18.9 Z" fill="none" stroke="#000000" stroke-linecap="butt" stroke-linejoin="miter-clip" stroke-miterlimit="4.0" stroke-opacity="0.6" stroke-width="1.0"/>
  </g>
</svg>
