<?xml version="1.0" encoding="UTF-8" standalone="no"?>
<svg xmlns:xlink="http://www.w3.org/1999/xlink" height="374.85px" width="392.45px" xmlns="http://www.w3.org/2000/svg">
  <g transform="matrix(1.0, 0.0, 0.0, 1.0, 202.4, 148.5)">
    <path d="M82.4 -147.45 Q107.75 -151.35 140.4 -127.8 156.65 -116.0 167.9 -103.5 L189.5 -60.8 Q187.95 -58.8 185.3 -57.35 180.0 -54.35 174.6 -56.9 169.2 -59.45 164.0 -57.35 156.6 -53.45 149.9 -50.75 141.6 -47.4 133.1 -50.25 L126.2 -53.85 Q119.1 -46.35 112.05 -38.3 97.95 -22.25 98.1 -19.4 98.25 -16.35 95.0 0.4 92.25 14.8 89.55 26.55 87.75 34.75 86.75 77.5 86.3 98.85 86.25 118.6 L84.95 133.0 Q83.85 147.7 84.35 149.05 L85.4 167.35 Q86.4 185.25 88.5 190.5 90.75 196.05 99.65 204.3 L111.2 214.15 Q114.15 216.75 112.65 218.85 111.2 220.9 105.0 223.6 99.75 225.9 80.45 225.85 L58.05 225.0 Q52.65 224.65 48.45 222.7 42.8 220.2 43.05 216.1 L44.9 201.25 Q46.2 190.5 45.15 188.7 43.5 185.95 41.9 180.55 39.95 174.15 40.2 170.05 40.4 167.05 35.9 149.85 31.4 132.7 31.55 129.6 31.95 123.55 21.8 71.05 L11.75 68.65 Q-2.55 73.8 -58.75 76.35 L-112.0 77.95 -117.1 106.3 -115.8 129.15 Q-114.7 153.4 -115.2 160.05 -115.75 166.75 -111.4 179.65 L-106.3 192.9 -100.9 204.0 Q-96.9 213.9 -101.1 216.1 -105.45 218.35 -116.7 219.25 L-136.5 219.85 Q-146.35 219.85 -156.25 218.05 -166.95 216.1 -168.75 213.45 -170.25 211.3 -169.0 205.0 L-165.75 188.25 Q-164.4 178.65 -167.95 160.05 -170.4 147.25 -174.6 132.7 -175.6 129.15 -180.7 104.2 -186.3 76.75 -194.4 45.9 -203.1 12.85 -201.7 -18.6 -201.25 -28.35 -199.9 -36.8 L-198.55 -43.35 Q-166.05 -123.15 -53.8 -140.85 -19.65 -146.25 28.7 -146.45 L60.8 -146.4 82.4 -147.45" fill="#ffffff" fill-opacity="0.0" fill-rule="evenodd" stroke="none"/>
    <path d="M82.4 -147.45 L60.8 -146.4 28.7 -146.45 Q-19.65 -146.25 -53.8 -140.85 -166.05 -123.15 -198.55 -43.35 L-199.9 -36.8 Q-201.25 -28.35 -201.7 -18.6 -203.1 12.85 -194.4 45.9 -186.3 76.75 -180.7 104.2 -175.6 129.15 -174.6 132.7 -170.4 147.25 -167.95 160.05 -164.4 178.65 -165.75 188.25 L-169.0 205.0 Q-170.25 211.3 -168.75 213.45 -166.95 216.1 -156.25 218.05 -146.35 219.85 -136.5 219.85 L-116.7 219.25 Q-105.45 218.35 -101.1 216.1 -96.9 213.9 -100.9 204.0 L-106.3 192.9 -111.4 179.65 Q-115.75 166.75 -115.2 160.05 -114.7 153.4 -115.8 129.15 L-117.1 106.3 -112.0 77.95 -58.75 76.35 Q-2.55 73.8 11.75 68.65 L21.8 71.05 Q31.95 123.55 31.55 129.6 31.4 132.7 35.9 149.85 40.4 167.05 40.2 170.05 39.95 174.15 41.9 180.55 43.5 185.95 45.15 188.7 46.2 190.5 44.9 201.25 L43.05 216.1 Q42.8 220.2 48.45 222.7 52.65 224.65 58.05 225.0 L80.45 225.85 Q99.75 225.9 105.0 223.6 111.2 220.9 112.65 218.85 114.15 216.75 111.2 214.15 L99.65 204.3 Q90.75 196.05 88.5 190.5 86.4 185.25 85.4 167.35 L84.35 149.05 Q83.85 147.7 84.95 133.0 L86.25 118.6 Q86.3 98.85 86.75 77.5 87.75 34.75 89.55 26.55 92.25 14.8 95.0 0.4 98.25 -16.35 98.1 -19.4 97.95 -22.25 112.05 -38.3 119.1 -46.35 126.2 -53.85 L133.1 -50.25 Q141.6 -47.4 149.9 -50.75 156.6 -53.45 164.0 -57.35 169.2 -59.45 174.6 -56.9 180.0 -54.35 185.3 -57.35 187.95 -58.8 189.5 -60.8 L167.9 -103.5 Q156.65 -116.0 140.4 -127.8 107.75 -151.35 82.4 -147.45 Z" fill="none" stroke="#000000" stroke-linecap="butt" stroke-linejoin="miter-clip" stroke-miterlimit="10.0" stroke-width="1.0"/>
  </g>
</svg>
