<?xml version="1.0" encoding="UTF-8" standalone="no"?>
<svg xmlns:xlink="http://www.w3.org/1999/xlink" height="98.2px" width="203.55px" xmlns="http://www.w3.org/2000/svg">
  <g transform="matrix(1.0, 0.0, 0.0, 1.0, 104.0, 32.15)">
    <path d="M-59.5 -24.45 L-15.8 -26.45 -22.9 49.55 -23.55 50.75 Q-24.7 52.3 -26.95 53.7 -34.25 58.3 -50.45 60.4 -66.65 62.5 -79.15 57.7 -85.4 55.3 -88.45 52.45 L-103.5 -20.2 Q-103.25 -22.05 -59.5 -24.45" fill="#ffffff" fill-opacity="0.0" fill-rule="evenodd" stroke="none"/>
    <path d="M-59.5 -24.45 Q-103.25 -22.05 -103.5 -20.2 L-88.45 52.45 Q-85.4 55.3 -79.15 57.7 -66.65 62.5 -50.45 60.4 -34.25 58.3 -26.95 53.7 -24.7 52.3 -23.55 50.75 L-22.9 49.55 -15.8 -26.45 -59.5 -24.45 Z" fill="none" stroke="#000000" stroke-linecap="butt" stroke-linejoin="miter-clip" stroke-miterlimit="4.0" stroke-width="1.0"/>
    <path d="M3.5 -31.15 Q4.15 -33.05 51.6 -27.45 L98.9 -21.45 77.05 58.9 Q76.25 60.85 71.9 62.65 63.2 66.2 45.4 65.4 27.6 64.6 15.05 57.1 8.8 53.35 6.05 49.75 L3.5 -31.15" fill="#ffffff" fill-opacity="0.0" fill-rule="evenodd" stroke="none"/>
    <path d="M3.5 -31.15 L6.05 49.75 Q8.8 53.35 15.05 57.1 27.6 64.6 45.4 65.4 63.2 66.2 71.9 62.65 76.25 60.85 77.05 58.9 L98.9 -21.45 51.6 -27.45 Q4.15 -33.05 3.5 -31.15 Z" fill="none" stroke="#000000" stroke-linecap="butt" stroke-linejoin="miter-clip" stroke-miterlimit="4.0" stroke-width="1.0"/>
  </g>
</svg>
