<?xml version="1.0" encoding="UTF-8" standalone="no"?>
<svg xmlns:xlink="http://www.w3.org/1999/xlink" height="47.15px" width="206.15px" xmlns="http://www.w3.org/2000/svg">
  <g transform="matrix(1.0, 0.0, 0.0, 1.0, 84.8, 23.7)">
    <path d="M120.85 -0.95 Q120.9 4.7 118.15 9.9 111.8 21.75 98.45 22.05 L2.3 22.95 -11.0 22.6 Q-25.55 21.95 -32.1 20.3 L-83.0 5.55 Q-83.85 3.8 -84.15 1.5 -84.8 -3.1 -82.1 -5.8 -72.1 -9.15 -58.3 -13.0 -30.7 -20.75 -11.65 -23.2 L97.65 -23.15 103.25 -22.05 Q112.15 -19.3 117.6 -11.45 120.8 -6.8 120.85 -0.95" fill="#ffffff" fill-opacity="0.0" fill-rule="evenodd" stroke="none"/>
    <path d="M115.25 14.15 Q108.65 21.85 98.45 22.05 L2.3 22.95 -11.0 22.6 Q-25.55 21.95 -32.1 20.3 L-82.15 5.8 -83.7 3.6 -84.05 2.25 -18.0 7.4 92.8 6.25 103.3 5.05 Q115.0 2.8 120.8 -2.15 121.45 6.9 115.25 14.15" fill="#000000" fill-opacity="0.2" fill-rule="evenodd" stroke="none"/>
    <path d="M103.25 -22.05 Q112.15 -19.3 117.6 -11.45 120.8 -6.8 120.85 -0.95 120.9 4.7 118.15 9.9 111.8 21.75 98.45 22.05 L2.3 22.95 -11.0 22.6 Q-25.55 21.95 -32.1 20.3 L-83.0 5.55 Q-83.85 3.8 -84.15 1.5 -84.8 -3.1 -82.1 -5.8 -72.1 -9.15 -58.3 -13.0 -30.7 -20.75 -11.65 -23.2 L97.65 -23.15 103.25 -22.05 Z" fill="none" stroke="#000000" stroke-linecap="butt" stroke-linejoin="miter-clip" stroke-miterlimit="4.0" stroke-width="1.0"/>
    <path d="M99.9 -18.8 L100.35 -17.75 Q100.35 -17.15 99.9 -16.7 99.5 -16.25 98.85 -16.25 L-9.5 -16.25 Q-54.55 -6.65 -71.8 -2.3 L-72.15 -2.25 Q-72.65 -2.25 -73.05 -2.6 -73.5 -2.9 -73.6 -3.4 -73.75 -4.0 -73.4 -4.55 L-72.5 -5.25 Q-54.7 -9.7 -9.95 -19.25 L98.85 -19.25 Q99.5 -19.25 99.9 -18.8" fill="#ffffff" fill-opacity="0.6" fill-rule="evenodd" stroke="none"/>
  </g>
</svg>
