<?xml version="1.0" encoding="UTF-8" standalone="no"?>
<svg xmlns:xlink="http://www.w3.org/1999/xlink" height="93.35px" width="253.05px" xmlns="http://www.w3.org/2000/svg">
  <g transform="matrix(1.0, 0.0, 0.0, 1.0, 126.5, 46.65)">
    <path d="M109.15 -33.95 Q104.3 -29.1 87.8 -21.35 70.6 -13.35 61.85 -12.4 L-61.8 -12.4 Q-70.6 -13.35 -87.8 -21.35 -104.3 -29.1 -109.15 -33.95 -112.95 -37.75 -119.85 -38.2 L-125.95 -37.95 Q-125.0 -43.85 -116.55 -45.55 L-108.35 -46.05 110.95 -46.1 116.6 -45.55 Q125.0 -43.85 125.95 -37.95 L119.85 -38.2 Q112.95 -37.75 109.15 -33.95" fill="#ffffff" fill-opacity="0.0" fill-rule="evenodd" stroke="none"/>
    <path d="M109.15 -33.95 Q104.3 -29.1 87.8 -21.35 70.6 -13.35 61.85 -12.4 L-61.8 -12.4 Q-68.85 -13.15 -82.4 -18.95 -94.8 -24.3 -103.6 -29.85 -66.8 -23.95 -33.1 -22.3 19.85 -19.7 50.55 -28.75 81.45 -37.9 87.1 -46.05 L110.95 -46.1 116.6 -45.55 Q125.0 -43.85 125.95 -37.95 L119.85 -38.2 Q112.95 -37.75 109.15 -33.95" fill="#000000" fill-opacity="0.2" fill-rule="evenodd" stroke="none"/>
    <path d="M109.15 -33.95 Q112.95 -37.75 119.85 -38.2 L125.95 -37.95 Q125.0 -43.85 116.6 -45.55 L110.95 -46.1 -108.35 -46.05 -116.55 -45.55 Q-125.0 -43.85 -125.95 -37.95 L-119.85 -38.2 Q-112.95 -37.75 -109.15 -33.95 -104.3 -29.1 -87.8 -21.35 -70.6 -13.35 -61.8 -12.4 L61.85 -12.4 Q70.6 -13.35 87.8 -21.35 104.3 -29.1 109.15 -33.95 Z" fill="none" stroke="#000000" stroke-linecap="butt" stroke-linejoin="miter-clip" stroke-miterlimit="10.0" stroke-width="1.0"/>
    <path d="M-120.55 -38.2 L117.45 -38.2" fill="none" stroke="#000000" stroke-linecap="butt" stroke-linejoin="miter-clip" stroke-miterlimit="10.0" stroke-opacity="0.6" stroke-width="1.0"/>
    <path d="M-82.15 35.45 L-71.6 0.4 -68.2 -3.45 Q-63.8 -7.5 -58.95 -8.35 L55.6 -8.35 Q60.45 -7.5 64.85 -3.45 67.05 -1.45 68.25 0.4 L78.7 35.0 -82.0 35.0 -82.15 35.45 M39.1 -0.95 L-44.35 -0.95 -48.55 -0.45 Q-52.95 0.95 -53.8 5.15 L-55.8 21.95 -55.85 23.15 Q-55.8 24.6 -55.3 25.85 -53.6 29.9 -47.75 30.75 L42.45 30.75 Q48.35 29.9 50.05 25.85 50.55 24.6 50.6 23.15 L50.55 21.95 48.5 5.15 Q47.65 0.95 43.3 -0.45 L39.1 -0.95 M44.6 11.0 Q44.05 11.55 43.3 11.55 L37.25 11.55 Q36.45 11.55 35.9 11.0 35.35 10.45 35.35 9.7 35.35 8.9 35.9 8.4 36.45 7.85 37.25 7.85 L43.3 7.85 Q44.05 7.85 44.6 8.4 45.15 8.9 45.15 9.7 45.15 10.45 44.6 11.0 M44.6 22.85 Q45.15 23.4 45.15 24.15 45.15 24.95 44.6 25.45 44.05 26.0 43.3 26.0 L37.25 26.0 Q36.45 26.0 35.9 25.45 35.35 24.95 35.35 24.15 35.35 23.4 35.9 22.85 36.45 22.3 37.25 22.3 L43.3 22.3 Q44.05 22.3 44.6 22.85 M44.6 16.1 Q45.15 16.65 45.15 17.4 45.15 18.2 44.6 18.75 44.05 19.3 43.3 19.3 L37.25 19.3 Q36.45 19.3 35.9 18.75 35.35 18.2 35.35 17.4 35.35 16.65 35.9 16.1 36.45 15.55 37.25 15.55 L43.3 15.55 Q44.05 15.55 44.6 16.1" fill="#ffffff" fill-opacity="0.0" fill-rule="evenodd" stroke="none"/>
    <path d="M-82.15 35.45 L-82.0 35.0 78.7 35.0 78.8 35.45 Q77.95 38.0 75.85 39.65 L73.9 40.85 68.7 40.85 68.7 46.2 47.85 46.2 47.85 40.85 -53.85 40.85 -53.85 46.2 -74.75 46.2 -74.75 40.85 -77.25 40.85 -79.15 39.65 Q-81.25 38.0 -82.15 35.45 M44.6 16.1 Q44.05 15.55 43.3 15.55 L37.25 15.55 Q36.45 15.55 35.9 16.1 35.35 16.65 35.35 17.4 35.35 18.2 35.9 18.75 36.45 19.3 37.25 19.3 L43.3 19.3 Q44.05 19.3 44.6 18.75 45.15 18.2 45.15 17.4 45.15 16.65 44.6 16.1 M44.6 22.85 Q44.05 22.3 43.3 22.3 L37.25 22.3 Q36.45 22.3 35.9 22.85 35.35 23.4 35.35 24.15 35.35 24.95 35.9 25.45 36.45 26.0 37.25 26.0 L43.3 26.0 Q44.05 26.0 44.6 25.45 45.15 24.95 45.15 24.15 45.15 23.4 44.6 22.85 M44.6 11.0 Q45.15 10.45 45.15 9.7 45.15 8.9 44.6 8.4 44.05 7.85 43.3 7.85 L37.25 7.85 Q36.45 7.85 35.9 8.4 35.35 8.9 35.35 9.7 35.35 10.45 35.9 11.0 36.45 11.55 37.25 11.55 L43.3 11.55 Q44.05 11.55 44.6 11.0 M39.1 -0.95 L43.3 -0.45 Q47.65 0.95 48.5 5.15 L50.55 21.95 50.6 23.15 Q50.55 24.6 50.05 25.85 48.35 29.9 42.45 30.75 L-47.75 30.75 Q-53.6 29.9 -55.3 25.85 -55.8 24.6 -55.85 23.15 L-55.8 21.95 -53.8 5.15 Q-52.95 0.95 -48.55 -0.45 L-44.35 -0.95 39.1 -0.95 M-53.85 40.85 L-74.75 40.85 -53.85 40.85 M68.7 40.85 L47.85 40.85 68.7 40.85" fill="#000000" fill-opacity="0.2" fill-rule="evenodd" stroke="none"/>
    <path d="M78.7 35.0 L78.8 35.45 78.7 35.0" fill="#d8d9da" fill-rule="evenodd" stroke="none"/>
    <path d="M78.7 35.0 L68.25 0.4 Q67.05 -1.45 64.85 -3.45 60.45 -7.5 55.6 -8.35 L-58.95 -8.35 Q-63.8 -7.5 -68.2 -3.45 L-71.6 0.4 -82.15 35.45 Q-81.25 38.0 -79.15 39.65 L-77.25 40.85 -74.75 40.85 -74.75 46.2 -53.85 46.2 -53.85 40.85 47.85 40.85 47.85 46.2 68.7 46.2 68.7 40.85 73.9 40.85 75.85 39.65 Q77.95 38.0 78.8 35.45 L78.7 35.0 M39.1 -0.95 L-44.35 -0.95 -48.55 -0.45 Q-52.95 0.95 -53.8 5.15 L-55.8 21.95 -55.85 23.15 Q-55.8 24.6 -55.3 25.85 -53.6 29.9 -47.75 30.75 L42.45 30.75 Q48.35 29.9 50.05 25.85 50.55 24.6 50.6 23.15 L50.55 21.95 48.5 5.15 Q47.65 0.95 43.3 -0.45 L39.1 -0.95 M44.6 11.0 Q44.05 11.55 43.3 11.55 L37.25 11.55 Q36.45 11.55 35.9 11.0 35.35 10.45 35.35 9.7 35.35 8.9 35.9 8.4 36.45 7.85 37.25 7.85 L43.3 7.85 Q44.05 7.85 44.6 8.4 45.15 8.9 45.15 9.7 45.15 10.45 44.6 11.0 M44.6 22.85 Q45.15 23.4 45.15 24.15 45.15 24.95 44.6 25.45 44.05 26.0 43.3 26.0 L37.25 26.0 Q36.45 26.0 35.9 25.45 35.35 24.95 35.35 24.15 35.35 23.4 35.9 22.85 36.45 22.3 37.25 22.3 L43.3 22.3 Q44.05 22.3 44.6 22.85 M44.6 16.1 Q45.15 16.65 45.15 17.4 45.15 18.2 44.6 18.75 44.05 19.3 43.3 19.3 L37.25 19.3 Q36.45 19.3 35.9 18.75 35.35 18.2 35.35 17.4 35.35 16.65 35.9 16.1 36.45 15.55 37.25 15.55 L43.3 15.55 Q44.05 15.55 44.6 16.1" fill="none" stroke="#000000" stroke-linecap="butt" stroke-linejoin="miter-clip" stroke-miterlimit="10.0" stroke-width="1.0"/>
    <path d="M47.85 40.85 L68.7 40.85 M-74.75 40.85 L-53.85 40.85" fill="none" stroke="#000000" stroke-linecap="butt" stroke-linejoin="miter-clip" stroke-miterlimit="10.0" stroke-opacity="0.6" stroke-width="1.0"/>
  </g>
</svg>
