<?xml version="1.0" encoding="UTF-8" standalone="no"?>
<svg xmlns:xlink="http://www.w3.org/1999/xlink" height="31.95px" width="87.25px" xmlns="http://www.w3.org/2000/svg">
  <g transform="matrix(1.0, 0.0, 0.0, 1.0, 42.95, 16.65)">
    <path d="M23.95 -9.05 Q16.65 -6.7 11.35 -6.55 L-3.7 -6.85 -6.25 -6.65 -7.25 -6.4 2.8 -5.25 9.75 -5.85 17.9 -6.45 21.05 -6.25 22.4 -6.05 16.2 -4.5 15.8 -4.45 22.6 -3.75 24.35 -3.25 Q20.85 -1.95 18.2 -1.95 L16.35 -2.15 Q16.35 -1.55 12.65 -1.6 L3.65 -1.65 2.15 -1.7 15.0 -0.9 26.5 0.05 27.4 0.45 Q26.65 1.0 25.3 1.45 L22.85 1.85 21.7 1.75 22.55 0.9 16.2 1.75 11.65 2.2 10.1 2.5 17.5 2.85 Q22.95 2.95 22.95 3.5 22.95 4.1 26.2 4.0 L30.95 3.8 31.05 3.9 Q12.75 8.7 1.9 9.5 L-0.1 9.5 Q10.75 6.7 11.95 5.35 L12.05 4.95 7.65 4.7 -7.25 5.6 3.95 6.55 4.95 6.7 Q2.35 7.05 -2.5 8.45 -6.75 9.65 -7.8 9.65 L-12.5 8.95 -17.3 8.45 -28.0 8.15 -28.95 7.95 -13.65 5.2 -13.3 5.0 -27.7 5.15 -31.5 5.05 Q-33.1 4.7 -34.25 2.85 L-32.3 2.65 -18.3 3.45 -8.6 2.5 -0.95 1.15 -0.8 1.05 -13.85 2.25 -9.9 0.4 -8.9 -0.25 -15.15 0.4 -20.05 0.75 -24.85 0.6 -25.05 0.45 -26.55 0.0 -19.5 -1.0 -12.65 -1.7 Q-15.4 -2.25 -22.1 -1.85 L-23.05 -1.85 -16.55 -2.25 -11.8 -3.0 -10.95 -3.2 -17.2 -3.1 -27.0 -4.3 -28.95 -4.9 -22.2 -5.2 Q-18.2 -5.35 -12.85 -7.25 -18.8 -7.45 -24.0 -7.25 L-26.95 -7.25 -24.15 -7.75 -19.9 -9.1 -29.75 -10.9 Q-34.75 -11.65 -36.2 -11.05 -35.6 -11.55 -34.6 -11.95 L-33.65 -12.25 -24.55 -10.2 Q-16.4 -8.15 -3.6 -8.15 12.5 -8.15 22.75 -10.7 26.25 -11.6 30.9 -13.75 L28.6 -12.05 Q26.5 -10.4 24.6 -9.35 L24.05 -9.1 23.95 -9.05 M23.2 -7.45 L25.5 -7.6 26.4 -7.75 23.2 -7.45" fill="#ffffff" fill-opacity="0.0" fill-rule="evenodd" stroke="none"/>
    <path d="M-36.2 -11.05 Q-34.75 -11.65 -29.75 -10.9 L-19.9 -9.1 -24.15 -7.75 -26.95 -7.25 -24.0 -7.25 Q-18.8 -7.45 -12.85 -7.25 -18.2 -5.35 -22.2 -5.2 L-28.95 -4.9 -27.0 -4.3 -17.2 -3.1 -10.95 -3.2 -11.8 -3.0 -16.55 -2.25 -23.05 -1.85 -22.1 -1.85 Q-15.4 -2.25 -12.65 -1.7 L-19.5 -1.0 -26.55 0.0 -25.05 0.45 -24.85 0.6 -20.05 0.75 -15.15 0.4 -8.9 -0.25 -9.9 0.4 -13.85 2.25 -0.8 1.05 -0.95 1.15 -8.6 2.5 -18.3 3.45 -32.3 2.65 -34.25 2.85 Q-33.1 4.7 -31.5 5.05 L-27.7 5.15 -13.3 5.0 -13.65 5.2 -28.95 7.95 -28.0 8.15 -17.3 8.45 -12.5 8.95 -7.8 9.65 Q-6.75 9.65 -2.5 8.45 2.35 7.05 4.95 6.7 L3.95 6.55 -7.25 5.6 7.65 4.7 12.05 4.95 11.95 5.35 Q10.75 6.7 -0.1 9.5 L1.9 9.5 Q12.75 8.7 31.05 3.9 L30.95 3.8 26.2 4.0 Q22.95 4.1 22.95 3.5 22.95 2.95 17.5 2.85 L10.1 2.5 11.65 2.2 16.2 1.75 22.55 0.9 21.7 1.75 22.85 1.85 25.3 1.45 Q26.65 1.0 27.4 0.45 L26.5 0.05 15.0 -0.9 2.15 -1.7 3.65 -1.65 12.65 -1.6 Q16.35 -1.55 16.35 -2.15 L18.2 -1.95 Q20.85 -1.95 24.35 -3.25 L22.6 -3.75 15.8 -4.45 16.2 -4.5 22.4 -6.05 21.05 -6.25 17.9 -6.45 9.75 -5.85 2.8 -5.25 -7.25 -6.4 -6.25 -6.65 -3.7 -6.85 11.35 -6.55 Q16.65 -6.7 23.95 -9.05 L24.2 -9.15 23.95 -9.05 24.05 -9.1 24.2 -9.15 24.3 -9.2 24.45 -9.2 25.3 -9.55 29.0 -11.05 31.95 -12.85 Q32.85 -14.2 32.9 -13.5 L31.05 -11.5 Q29.4 -10.05 28.45 -9.6 L27.0 -8.95 25.8 -8.45 Q23.75 -7.6 23.2 -7.45 L26.4 -7.75 26.55 -7.8 Q27.1 -7.9 30.95 -9.9 L35.7 -12.55 36.05 -12.15 36.2 -11.55 35.5 -10.9 32.85 -9.5 34.7 -9.7 36.2 -10.0 37.2 -10.45 37.35 -9.5 31.05 -7.85 34.6 -7.75 38.9 -7.85 37.5 -7.35 32.5 -6.6 Q30.3 -6.6 29.25 -7.45 28.85 -7.75 27.6 -6.5 L30.9 -5.65 34.95 -5.75 34.35 -5.25 33.15 -4.7 29.55 -4.4 33.65 -4.4 Q35.6 -4.35 36.95 -4.95 38.9 -5.75 40.55 -6.05 L40.6 -5.2 Q39.15 -4.4 28.8 -1.55 L32.55 -1.2 35.3 -1.9 38.6 -2.75 38.85 -2.25 Q36.8 -0.2 32.6 0.7 L25.7 2.1 25.85 2.1 33.0 1.25 38.15 0.45 Q38.8 0.45 39.0 0.7 L39.2 1.1 39.05 1.2 34.8 2.4 36.6 2.65 38.3 2.8 39.65 2.7 38.85 3.2 37.95 3.6 36.9 3.75 32.25 3.6 Q32.6 4.8 36.1 4.8 L41.0 3.9 39.35 4.8 Q37.3 5.75 34.7 6.1 L32.3 6.35 Q33.2 6.9 34.65 7.0 L38.3 6.45 36.9 6.9 Q32.45 7.85 23.85 10.4 L15.6 12.9 Q15.95 12.3 17.8 11.35 L20.2 9.9 Q17.6 10.4 14.3 12.0 12.05 13.1 8.45 12.95 L13.55 10.25 12.45 10.5 Q9.35 11.25 3.7 13.25 0.65 14.3 -3.2 14.3 L-3.85 14.25 -3.8 14.1 -3.75 14.0 0.4 13.1 4.35 12.5 -9.95 13.25 Q-12.95 13.25 -14.8 12.2 L-6.35 11.75 -12.2 11.15 -16.75 11.75 -14.65 13.35 -14.75 13.55 -15.8 13.85 Q-16.15 13.85 -17.35 12.8 L-20.35 9.75 -19.55 11.3 -18.55 12.8 -17.8 13.5 Q-19.0 13.5 -20.65 12.55 -22.65 11.4 -23.55 9.75 L-22.75 11.45 -21.95 12.4 -20.95 13.4 -21.2 13.5 Q-22.15 13.25 -23.5 12.25 -25.25 10.95 -26.1 9.3 L-25.2 11.15 -26.55 11.9 -27.45 11.0 -27.15 9.3 -29.7 11.0 Q-30.3 11.0 -30.45 10.55 -30.45 9.95 -30.6 9.6 L-28.35 8.7 -30.55 9.4 -32.05 9.65 Q-32.9 9.65 -33.15 9.3 L-33.1 9.1 Q-32.15 8.55 -30.15 8.1 L-31.05 8.25 -35.45 8.4 -35.35 8.15 -31.65 7.2 -32.85 7.45 Q-36.35 7.65 -36.95 7.05 L-36.85 6.95 -32.1 6.3 -33.25 6.35 Q-36.0 6.4 -38.9 4.95 L-38.45 4.2 -36.2 4.65 Q-37.8 4.05 -39.05 3.15 L-38.9 2.25 -38.6 1.8 Q-34.75 4.35 -34.1 4.5 -34.0 5.35 -34.0 4.35 L-35.8 2.7 Q-37.75 0.65 -38.4 -1.7 -38.3 -2.45 -37.9 -2.05 L-36.35 0.3 Q-35.6 1.35 -34.1 1.35 L-28.95 1.2 -29.3 0.95 Q-30.65 0.15 -31.65 0.15 L-34.9 0.05 -36.5 -2.45 -35.7 -1.7 -35.2 -1.2 -34.3 -0.95 -32.8 -1.3 -30.0 -2.15 -36.5 -4.0 -38.05 -4.25 -41.0 -3.95 -40.2 -4.6 Q-39.45 -5.0 -39.45 -5.25 L-37.95 -5.3 -34.55 -4.85 -35.15 -5.5 Q-36.2 -6.25 -38.05 -6.65 L-40.8 -7.1 -38.75 -8.45 Q-35.35 -8.45 -33.75 -6.85 L-32.0 -5.3 Q-31.1 -5.3 -29.7 -5.9 L-30.7 -6.3 Q-37.1 -8.9 -37.65 -8.9 L-37.6 -9.0 Q-36.0 -9.8 -35.15 -9.8 -33.3 -9.8 -31.35 -8.95 L-29.7 -8.15 -25.95 -8.45 -27.55 -8.7 Q-28.35 -8.85 -30.35 -9.85 -31.8 -10.6 -36.2 -11.05 M-26.25 9.0 L-26.1 9.3 -26.25 9.0 M22.45 -7.4 L23.0 -7.45 23.2 -7.45 23.0 -7.45 22.45 -7.4 M30.9 -13.75 L30.2 -12.35 Q29.5 -11.35 26.65 -10.35 L25.4 -9.75 24.3 -9.2 24.6 -9.35 25.4 -9.75 24.6 -9.35 Q26.5 -10.4 28.6 -12.05 L30.9 -13.75" fill="#000000" fill-opacity="0.2" fill-rule="evenodd" stroke="none"/>
    <path d="M-36.2 -11.05 Q-31.8 -10.6 -30.35 -9.85 -28.35 -8.85 -27.55 -8.7 L-25.95 -8.45 -29.7 -8.15 -31.35 -8.95 Q-33.3 -9.8 -35.15 -9.8 -36.0 -9.8 -37.6 -9.0 L-37.65 -8.9 Q-37.1 -8.9 -30.7 -6.3 L-29.7 -5.9 Q-31.1 -5.3 -32.0 -5.3 L-33.75 -6.85 Q-35.35 -8.45 -38.75 -8.45 L-40.8 -7.1 -38.05 -6.65 Q-36.2 -6.25 -35.15 -5.5 L-34.55 -4.85 -37.95 -5.3 -39.45 -5.25 Q-39.45 -5.0 -40.2 -4.6 L-41.0 -3.95 -38.05 -4.25 -36.5 -4.0 -30.0 -2.15 -32.8 -1.3 -34.3 -0.95 -35.2 -1.2 -35.7 -1.7 -36.5 -2.45 -34.9 0.05 -31.65 0.15 Q-30.65 0.15 -29.3 0.95 L-28.95 1.2 -34.1 1.35 Q-35.6 1.35 -36.35 0.3 L-37.9 -2.05 Q-38.3 -2.45 -38.4 -1.7 -37.75 0.65 -35.8 2.7 L-34.0 4.35 Q-34.0 5.35 -34.1 4.5 -34.75 4.35 -38.6 1.8 L-38.9 2.25 -39.05 3.15 Q-37.8 4.05 -36.2 4.65 L-38.45 4.2 -38.9 4.95 Q-36.0 6.4 -33.25 6.35 L-32.1 6.3 -36.85 6.95 -36.95 7.05 Q-36.35 7.65 -32.85 7.45 L-31.65 7.2 -35.35 8.15 -35.45 8.4 -31.05 8.25 -30.15 8.1 Q-32.15 8.55 -33.1 9.1 L-33.15 9.3 Q-32.9 9.65 -32.05 9.65 L-30.55 9.4 -28.35 8.7 -30.6 9.6 Q-30.45 9.95 -30.45 10.55 -30.3 11.0 -29.7 11.0 L-27.15 9.3 -27.45 11.0 -26.55 11.9 -25.2 11.15 -26.1 9.3 -26.25 9.0 M25.3 -9.55 L29.0 -11.05 31.95 -12.85 Q32.85 -14.2 32.9 -13.5 L31.05 -11.5 Q29.4 -10.05 28.45 -9.6 L27.0 -8.95 25.1 -8.05 23.2 -7.45 25.5 -7.6 26.55 -7.8 Q27.1 -7.9 30.95 -9.9 L35.7 -12.55 36.05 -12.15 36.2 -11.55 35.5 -10.9 32.85 -9.5 34.7 -9.7 36.2 -10.0 37.2 -10.45 37.35 -9.5 31.05 -7.85 34.6 -7.75 38.9 -7.85 37.5 -7.35 32.5 -6.6 Q30.3 -6.6 29.25 -7.45 28.85 -7.75 27.6 -6.5 L30.9 -5.65 34.95 -5.75 34.35 -5.25 33.15 -4.7 29.55 -4.4 33.65 -4.4 Q35.6 -4.35 36.95 -4.95 38.9 -5.75 40.55 -6.05 L40.6 -5.2 Q39.15 -4.4 28.8 -1.55 L32.55 -1.2 35.3 -1.9 38.6 -2.75 38.85 -2.25 Q36.8 -0.2 32.6 0.7 L25.7 2.1 25.85 2.1 33.0 1.25 38.15 0.45 Q38.8 0.45 39.0 0.7 L39.2 1.1 39.05 1.2 34.8 2.4 36.6 2.65 38.3 2.8 39.65 2.7 38.85 3.2 37.95 3.6 36.9 3.75 32.25 3.6 Q32.6 4.8 36.1 4.8 L41.0 3.9 39.35 4.8 Q37.3 5.75 34.7 6.1 L32.3 6.35 Q33.2 6.9 34.65 7.0 L38.3 6.45 36.9 6.9 Q32.45 7.85 23.85 10.4 L15.6 12.9 Q15.95 12.3 17.8 11.35 L20.2 9.9 Q17.6 10.4 14.3 12.0 12.05 13.1 8.45 12.95 L13.55 10.25 12.45 10.5 Q9.35 11.25 3.7 13.25 0.65 14.3 -3.2 14.3 L-3.85 14.25 -3.8 14.1 -3.75 14.0 0.4 13.1 4.35 12.5 -9.95 13.25 Q-12.95 13.25 -14.8 12.2 L-6.35 11.75 -12.2 11.15 -16.75 11.75 -14.65 13.35 -14.75 13.55 -15.8 13.85 Q-16.15 13.85 -17.35 12.8 L-20.35 9.75 -19.55 11.3 -18.55 12.8 -17.8 13.5 Q-19.0 13.5 -20.65 12.55 -22.65 11.4 -23.55 9.75 L-22.75 11.45 -21.95 12.4 -20.95 13.4 -21.2 13.5 Q-22.15 13.25 -23.5 12.25 -25.25 10.95 -26.1 9.3 M23.2 -7.45 L23.0 -7.45 22.45 -7.4 M30.9 -13.75 L30.2 -12.35 Q29.5 -11.35 26.65 -10.35 L25.4 -9.75 24.6 -9.35 24.05 -9.1 23.95 -9.05 24.2 -9.15 24.3 -9.2 25.3 -9.55 M30.9 -13.75 Q26.25 -11.6 22.75 -10.7 12.5 -8.15 -3.6 -8.15 -16.4 -8.15 -24.55 -10.2 L-33.65 -12.25 -34.6 -11.95 Q-35.6 -11.55 -36.2 -11.05 Z" fill="none" stroke="#000000" stroke-linecap="butt" stroke-linejoin="miter-clip" stroke-miterlimit="10.0" stroke-opacity="0.6" stroke-width="1.0"/>
  </g>
</svg>
