<?xml version="1.0" encoding="UTF-8" standalone="no"?>
<svg xmlns:xlink="http://www.w3.org/1999/xlink" height="106.0px" width="52.3px" xmlns="http://www.w3.org/2000/svg">
  <g transform="matrix(1.0, 0.0, 0.0, 1.0, 26.25, 53.0)">
    <path d="M8.0 -39.75 L19.6 -39.75 Q23.95 -39.0 25.15 -36.9 25.75 -36.0 25.45 -35.1 L24.25 40.95 Q25.0 48.9 23.05 51.45 L20.8 52.5 4.45 52.5 Q-4.1 51.75 -5.9 49.2 L-5.9 -22.35 Q-5.9 -32.4 -4.1 -37.05 L-2.45 -39.75 1.0 -39.75 8.0 -39.75 1.0 -39.75 Q0.8 -40.6 0.1 -41.1 -1.7 -42.3 -5.6 -42.0 L-9.2 -41.6 -9.2 -33.9 -25.55 -33.9 -18.5 -52.5 -9.2 -52.5 -9.2 -48.65 Q-0.7 -49.95 3.85 -46.95 7.45 -44.4 7.9 -40.2 L8.0 -39.75 M-9.2 -41.6 L-9.2 -48.65 -9.2 -41.6" fill="#ffffff" fill-opacity="0.0" fill-rule="evenodd" stroke="none"/>
    <path d="M1.0 -39.75 L-2.45 -39.75 -4.1 -37.05 Q-5.9 -32.4 -5.9 -22.35 L-5.9 49.2 Q-4.1 51.75 4.45 52.5 L20.8 52.5 23.05 51.45 Q25.0 48.9 24.25 40.95 L25.45 -35.1 Q25.75 -36.0 25.15 -36.9 23.95 -39.0 19.6 -39.75 L8.0 -39.75 1.0 -39.75 Q0.8 -40.6 0.1 -41.1 -1.7 -42.3 -5.6 -42.0 L-9.2 -41.6 -9.2 -33.9 -25.55 -33.9 -18.5 -52.5 -9.2 -52.5 -9.2 -48.65 Q-0.7 -49.95 3.85 -46.95 7.45 -44.4 7.9 -40.2 L8.0 -39.75 M-9.2 -48.65 L-9.2 -41.6" fill="none" stroke="#000000" stroke-linecap="round" stroke-linejoin="miter-clip" stroke-miterlimit="10.0" stroke-width="1.0"/>
  </g>
</svg>
