<?xml version="1.0" encoding="UTF-8" standalone="no"?>
<svg xmlns:xlink="http://www.w3.org/1999/xlink" height="64.3px" width="30.5px" xmlns="http://www.w3.org/2000/svg">
  <g transform="matrix(1.0, 0.0, 0.0, 1.0, 15.25, 32.15)">
    <path d="M7.0 -31.65 L14.75 -31.0 14.75 25.75 Q11.65 26.3 6.9 25.65 L2.75 24.9 3.25 15.9 1.25 -15.1 Q1.9 -18.6 0.65 -23.4 L-0.75 -27.55 2.0 -29.5 7.0 -31.65" fill="#ffffff" fill-opacity="0.0" fill-rule="evenodd" stroke="none"/>
    <path d="M7.0 -31.65 L2.0 -29.5 -0.75 -27.55 0.65 -23.4 Q1.9 -18.6 1.25 -15.1 L3.25 15.9 2.75 24.9 6.9 25.65 Q11.65 26.3 14.75 25.75 L14.75 -31.0 7.0 -31.65 Z" fill="none" stroke="#000000" stroke-linecap="butt" stroke-linejoin="miter-clip" stroke-miterlimit="10.0" stroke-width="1.0"/>
    <path d="M-0.75 -27.55 L0.65 -23.4 Q1.9 -18.6 1.25 -15.1 L2.25 0.45 -1.75 8.85 -5.75 31.2 Q-7.95 32.25 -11.55 30.75 L-14.75 29.1 -13.05 16.2 Q-11.2 2.85 -10.25 0.75 -8.75 -2.6 -0.75 -27.55" fill="#ffffff" fill-opacity="0.0" fill-rule="evenodd" stroke="none"/>
    <path d="M-0.75 -27.55 Q-8.75 -2.6 -10.25 0.75 -11.2 2.85 -13.05 16.2 L-14.75 29.1 -11.55 30.75 Q-7.95 32.25 -5.75 31.2 L-1.75 8.85 2.25 0.45 1.25 -15.1 Q1.9 -18.6 0.65 -23.4 L-0.75 -27.55 Z" fill="none" stroke="#000000" stroke-linecap="butt" stroke-linejoin="miter-clip" stroke-miterlimit="10.0" stroke-width="1.0"/>
    <path d="M5.2 -19.8 L13.2 10.7 Q9.45 3.85 6.95 -8.65 L5.2 -19.8" fill="#000000" fill-opacity="0.2" fill-rule="evenodd" stroke="none"/>
  </g>
</svg>
