<?xml version="1.0" encoding="UTF-8" standalone="no"?>
<svg xmlns:xlink="http://www.w3.org/1999/xlink" height="511.55px" width="1419.5px" xmlns="http://www.w3.org/2000/svg">
  <g transform="matrix(1.0, 0.0, 0.0, 1.0, 709.75, 255.8)">
    <path d="M205.85 123.6 L206.95 123.8 206.4 123.7 205.85 123.6" fill="#877239" fill-rule="evenodd" stroke="none"/>
    <path d="M39.75 55.95 L38.4 55.15 Q25.4 47.75 5.9 39.15 -13.5 30.55 -19.9 21.0 -22.0 18.0 -22.45 15.2 L-22.45 13.1 Q-25.7 11.25 -37.1 10.8 -43.6 10.55 -74.4 0.8 -121.8 -14.3 -131.55 -17.1 -165.7 -26.85 -179.85 -28.7 -203.0 -31.6 -234.6 -26.5 -260.25 -22.3 -309.75 -15.25 L-372.45 -6.15 Q-389.1 -3.6 -448.55 1.5 L-526.05 8.45 Q-545.3 10.8 -601.65 9.85 -662.2 8.45 -679.5 8.45 -703.9 8.45 -708.65 1.15 -710.5 -1.65 -706.65 -3.5 -702.6 -5.45 -694.15 -4.8 -680.65 -3.75 -647.55 -15.45 -612.95 -27.8 -608.65 -27.9 -599.45 -28.25 -588.55 -30.9 -581.35 -32.65 -559.95 -39.3 -545.65 -43.7 -508.5 -49.95 L-451.35 -60.05 Q-429.15 -64.6 -383.75 -81.0 -343.9 -95.4 -314.4 -108.3 -312.55 -109.1 -259.0 -128.7 -218.55 -143.6 -175.9 -165.9 -134.8 -187.4 -92.75 -196.35 L-62.65 -202.35 Q-46.65 -205.95 -34.65 -211.2 3.9 -228.15 66.15 -241.75 146.1 -259.2 203.8 -254.2 259.25 -249.4 298.85 -221.65 311.95 -212.5 328.7 -196.8 350.9 -176.0 355.05 -172.5 376.7 -154.4 409.3 -110.7 426.05 -88.4 444.75 -62.4 508.15 8.8 517.0 13.6 526.4 18.7 531.3 18.9 541.5 19.15 567.05 10.35 591.25 1.95 604.15 1.6 L621.9 2.8 Q628.5 2.8 630.4 4.65 633.15 7.3 639.9 8.95 645.25 10.2 666.75 16.0 669.65 16.85 676.6 17.9 L685.65 19.25 Q689.95 20.2 694.6 25.9 704.15 28.55 707.65 37.4 709.35 41.9 709.25 45.75 708.65 49.95 698.55 53.55 L681.95 58.05 669.4 60.4 Q660.7 61.8 651.65 64.25 642.25 66.65 629.0 68.3 L604.45 71.3 Q594.7 72.8 580.45 79.1 566.95 85.0 561.5 85.5 558.1 85.7 535.7 93.4 506.8 103.25 466.0 112.3 454.95 114.8 444.1 118.0 422.55 124.4 401.9 133.6 392.45 137.8 382.15 140.95 364.9 146.25 345.1 148.7 324.65 151.25 311.85 148.2 L306.85 146.7 307.15 153.2 307.2 154.8 Q307.75 171.85 306.95 177.55 305.9 184.3 306.25 190.8 306.6 196.65 307.9 199.3 308.7 201.4 313.45 205.1 L321.15 211.15 Q323.0 212.8 326.95 218.7 330.45 223.85 332.4 224.9 335.8 226.5 339.25 230.7 343.0 235.25 341.35 237.2 L340.8 237.75 335.65 232.45 Q328.7 225.95 324.85 226.75 321.0 227.65 320.2 233.0 319.75 235.7 320.1 238.15 L320.3 238.4 318.25 238.6 Q317.05 238.95 314.05 241.15 L311.15 243.35 307.75 247.6 Q307.1 244.6 305.35 241.95 302.2 237.2 297.9 237.2 294.4 237.2 293.25 241.95 292.65 244.3 292.75 246.6 L297.25 250.35 Q290.1 249.05 286.15 244.75 282.75 241.15 276.15 240.8 L266.75 241.4 266.7 241.4 Q265.95 239.3 263.35 237.2 260.65 234.95 257.85 237.45 259.0 234.25 259.3 229.05 259.65 224.05 259.15 212.55 258.95 206.65 255.0 199.75 251.15 193.15 251.15 189.45 251.15 179.1 250.1 157.7 249.15 135.7 247.9 127.85 L245.2 127.9 Q244.05 119.3 243.9 111.6 L243.9 111.55 Q240.45 97.0 241.15 94.45 L241.2 94.4 241.25 94.15 241.5 93.6 241.6 93.45 247.0 83.85 247.25 83.4 Q252.65 66.65 282.7 12.65 307.45 -31.75 300.8 -23.0 290.6 -9.65 268.85 5.2 L249.25 17.3 Q250.15 11.35 249.8 6.6 249.15 -2.9 242.85 3.35 228.8 21.7 220.2 31.7 204.4 50.5 201.4 41.25 199.05 34.35 201.4 10.8 203.0 -6.4 197.55 -1.65 193.15 2.2 188.7 30.75 187.0 41.8 185.45 44.7 183.4 48.9 179.9 42.4 173.6 30.65 166.65 -19.4 L162.1 -58.45 161.75 -57.05 Q156.75 -24.6 159.9 9.35 L165.95 74.1 Q167.35 99.0 162.45 103.85 L159.5 107.0 Q150.7 116.75 134.8 139.65 112.8 171.3 112.0 182.0 111.2 192.2 119.65 208.95 123.95 217.35 128.4 223.6 114.9 222.1 108.4 230.25 L107.6 231.35 Q104.0 227.45 99.3 223.6 90.7 216.5 85.95 228.25 83.95 233.35 83.15 239.6 L67.8 240.0 56.55 231.15 Q40.15 202.2 36.3 199.65 34.1 198.15 39.0 181.85 45.75 159.3 46.45 155.6 L46.5 155.25 Q47.35 138.75 48.05 129.1 49.2 110.95 55.25 102.6 65.4 88.75 75.4 73.65 L74.55 72.0 47.45 60.85 Q45.15 59.1 39.75 55.95" fill="#ffffff" fill-opacity="0.0" fill-rule="evenodd" stroke="none"/>
    <path d="M39.75 55.95 Q45.15 59.1 47.45 60.85 L74.55 72.0 75.4 73.65 Q65.4 88.75 55.25 102.6 49.2 110.95 48.05 129.1 47.35 138.75 46.5 155.25 34.45 159.75 28.75 160.6 23.3 161.4 15.4 166.75 L8.65 172.0 0.85 185.8 Q-7.05 200.35 -7.75 203.5 -9.35 199.55 -19.5 203.6 L-29.25 208.5 -36.2 195.75 -27.95 189.55 Q-29.5 185.15 -32.95 181.4 -39.7 174.15 -48.6 176.8 -51.9 171.6 -51.9 169.45 -51.9 166.5 -49.5 162.0 L-44.35 151.75 Q-41.9 146.3 -44.85 138.4 L-48.1 131.65 -44.35 123.75 Q-39.95 115.5 -36.8 114.0 -34.5 112.8 -27.05 111.3 -19.35 109.7 -15.3 107.7 -12.65 106.3 -0.3 95.05 10.95 84.55 17.35 82.45 28.75 78.65 42.6 76.1 L39.75 55.95 M159.5 107.0 L162.45 103.85 Q167.35 99.0 165.95 74.1 L159.9 9.35 Q156.75 -24.6 161.75 -57.05 L162.1 -58.45 166.65 -19.4 Q173.6 30.65 179.9 42.4 183.4 48.9 185.45 44.7 187.0 41.8 188.7 30.75 193.15 2.2 197.55 -1.65 203.0 -6.4 201.4 10.8 199.05 34.35 201.4 41.25 204.4 50.5 220.2 31.7 228.8 21.7 242.85 3.35 249.15 -2.9 249.8 6.6 250.15 11.35 249.25 17.3 L268.85 5.2 Q290.6 -9.65 300.8 -23.0 307.45 -31.75 282.7 12.65 252.65 66.65 247.25 83.4 L247.0 83.85 241.6 93.45 241.5 93.6 241.25 94.15 241.2 94.4 241.15 94.45 Q240.45 97.0 243.9 111.55 L243.9 111.6 Q244.05 119.3 245.2 127.9 L243.65 127.9 241.05 127.85 206.95 123.8 205.85 123.6 201.85 122.65 Q188.55 119.4 177.9 114.75 L159.5 107.0 M382.15 140.95 Q392.45 137.8 401.9 133.6 422.55 124.4 444.1 118.0 444.15 120.55 444.5 124.1 445.4 133.75 447.25 135.0 449.85 136.75 466.1 143.15 483.3 149.8 489.8 151.2 495.75 152.35 501.9 158.05 505.05 160.85 506.9 163.4 L514.45 173.75 Q522.0 185.25 522.0 191.75 522.0 202.2 525.75 223.0 522.85 215.8 520.75 215.25 517.35 215.45 513.55 214.55 510.55 213.75 509.1 216.05 505.8 213.0 498.4 214.55 L498.25 217.8 496.45 218.25 489.2 217.05 Q489.3 215.9 488.9 214.55 487.15 208.6 481.2 209.55 L475.65 211.65 Q473.05 213.5 472.05 216.05 467.95 216.75 464.35 218.25 464.95 210.0 461.0 208.6 L456.8 208.85 Q460.5 207.9 467.15 194.65 L452.05 193.75 Q448.1 193.75 437.4 185.7 L422.75 174.8 Q418.55 172.35 410.75 171.4 L403.8 170.95 Q401.0 170.25 397.4 168.25 390.4 164.3 386.8 157.8 383.6 152.0 382.15 140.95" fill="#000000" fill-opacity="0.2" fill-rule="evenodd" stroke="none"/>
    <path d="M83.15 239.6 Q83.95 233.35 85.95 228.25 90.7 216.5 99.3 223.6 104.0 227.45 107.6 231.35 L108.4 230.25 Q114.9 222.1 128.4 223.6 L134.9 227.55 Q140.85 232.3 138.5 236.3 136.05 240.25 120.0 239.9 L113.7 239.45 Q115.25 242.05 115.7 243.85 L82.95 241.3 83.15 239.6 M257.85 237.45 Q260.65 234.95 263.35 237.2 265.95 239.3 266.7 241.4 L266.95 243.0 Q266.95 244.4 266.25 245.25 262.3 248.15 258.6 249.65 251.15 252.9 252.55 246.6 253.25 243.35 256.05 239.55 256.95 238.25 257.85 237.45 M297.25 250.35 L292.75 246.6 Q292.65 244.3 293.25 241.95 294.4 237.2 297.9 237.2 302.2 237.2 305.35 241.95 307.1 244.6 307.75 247.6 308.2 250.1 307.9 252.8 307.3 257.8 300.0 252.65 L297.25 250.35 M320.3 238.4 L320.1 238.15 Q319.75 235.7 320.2 233.0 321.0 227.65 324.85 226.75 328.7 225.95 335.65 232.45 L340.8 237.75 341.85 239.05 Q337.55 240.25 332.55 240.7 323.05 241.7 320.3 238.4 M525.75 223.0 L527.5 230.1 Q528.75 237.2 525.75 237.2 522.85 237.2 515.05 232.0 L511.1 229.1 510.65 230.6 Q508.55 234.9 506.1 238.35 501.1 245.45 499.35 241.85 497.5 238.35 497.85 226.15 L498.25 217.8 498.4 214.55 Q505.8 213.0 509.1 216.05 510.55 213.75 513.55 214.55 517.35 215.45 520.75 215.25 522.85 215.8 525.75 223.0 M489.2 217.05 Q488.65 221.0 481.45 222.8 L471.9 223.95 Q471.2 222.1 471.35 219.55 471.4 217.65 472.05 216.05 473.05 213.5 475.65 211.65 L481.2 209.55 Q487.15 208.6 488.9 214.55 489.3 215.9 489.2 217.05 M464.35 218.25 Q461.55 220.95 458.45 222.9 452.25 227.0 451.1 223.95 447.85 215.5 455.2 209.95 455.85 209.05 456.8 208.85 L461.0 208.6 Q464.95 210.0 464.35 218.25 M509.1 216.05 L509.0 216.2 Q508.15 217.55 507.85 219.9 507.35 223.25 507.85 226.75 L511.1 229.1 507.85 226.75 Q507.35 223.25 507.85 219.9 508.15 217.55 509.0 216.2 L509.1 216.05 M-48.6 176.8 Q-39.7 174.15 -32.95 181.4 -29.5 185.15 -27.95 189.55 L-36.2 195.75 Q-43.2 200.55 -48.1 202.2 -52.85 203.85 -51.55 190.6 L-49.35 177.0 -48.6 176.8 M-29.25 208.5 L-19.5 203.6 Q-9.35 199.55 -7.75 203.5 -6.25 207.45 -10.65 217.2 -12.75 222.1 -15.3 226.15 -17.85 225.6 -20.9 223.0 -26.8 217.9 -29.25 208.5 M107.6 231.35 Q106.05 233.45 105.15 236.05 L104.6 237.95 104.45 238.7 113.7 239.45 104.45 238.7 104.6 237.95 105.15 236.05 Q106.05 233.45 107.6 231.35" fill="#070707" fill-opacity="0.49803922" fill-rule="evenodd" stroke="none"/>
    <path d="M206.95 123.8 L241.05 127.85 243.65 127.9 245.2 127.9" fill="none" stroke="#000000" stroke-linecap="butt" stroke-linejoin="miter-clip" stroke-miterlimit="4.0" stroke-width="1.0"/>
    <path d="M83.15 239.6 Q83.95 233.35 85.95 228.25 90.7 216.5 99.3 223.6 104.0 227.45 107.6 231.35 L108.4 230.25 Q114.9 222.1 128.4 223.6 L134.9 227.55 Q140.85 232.3 138.5 236.3 136.05 240.25 120.0 239.9 L113.7 239.45 Q115.25 242.05 115.7 243.85 L82.95 241.3 83.15 239.6 M257.85 237.45 Q260.65 234.95 263.35 237.2 265.95 239.3 266.7 241.4 L266.95 243.0 Q266.95 244.4 266.25 245.25 262.3 248.15 258.6 249.65 251.15 252.9 252.55 246.6 253.25 243.35 256.05 239.55 256.95 238.25 257.85 237.45 M297.25 250.35 L292.75 246.6 Q292.65 244.3 293.25 241.95 294.4 237.2 297.9 237.2 302.2 237.2 305.35 241.95 307.1 244.6 307.75 247.6 308.2 250.1 307.9 252.8 307.3 257.8 300.0 252.65 L297.25 250.35 M320.3 238.4 L320.1 238.15 Q319.75 235.7 320.2 233.0 321.0 227.65 324.85 226.75 328.7 225.95 335.65 232.45 L340.8 237.75 341.85 239.05 Q337.55 240.25 332.55 240.7 323.05 241.7 320.3 238.4 M525.75 223.0 L527.5 230.1 Q528.75 237.2 525.75 237.2 522.85 237.2 515.05 232.0 L511.1 229.1 510.65 230.6 Q508.55 234.9 506.1 238.35 501.1 245.45 499.35 241.85 497.5 238.35 497.85 226.15 L498.25 217.8 498.4 214.55 Q505.8 213.0 509.1 216.05 510.55 213.75 513.55 214.55 517.35 215.45 520.75 215.25 522.85 215.8 525.75 223.0 M489.2 217.05 Q488.65 221.0 481.45 222.8 L471.9 223.95 Q471.2 222.1 471.35 219.55 471.4 217.65 472.05 216.05 473.05 213.5 475.65 211.65 L481.2 209.55 Q487.15 208.6 488.9 214.55 489.3 215.9 489.2 217.05 M464.35 218.25 Q461.55 220.95 458.45 222.9 452.25 227.0 451.1 223.95 447.85 215.5 455.2 209.95 455.85 209.05 456.8 208.85 L461.0 208.6 Q464.95 210.0 464.35 218.25 M511.1 229.1 L507.85 226.75 Q507.35 223.25 507.85 219.9 508.15 217.55 509.0 216.2 L509.1 216.05 M-48.6 176.8 Q-39.7 174.15 -32.95 181.4 -29.5 185.15 -27.95 189.55 L-36.2 195.75 Q-43.2 200.55 -48.1 202.2 -52.85 203.85 -51.55 190.6 L-49.35 177.0 -48.6 176.8 M-29.25 208.5 L-19.5 203.6 Q-9.35 199.55 -7.75 203.5 -6.25 207.45 -10.65 217.2 -12.75 222.1 -15.3 226.15 -17.85 225.6 -20.9 223.0 -26.8 217.9 -29.25 208.5 M113.7 239.45 L104.45 238.7 104.6 237.95 105.15 236.05 Q106.05 233.45 107.6 231.35" fill="none" stroke="#000000" stroke-linecap="butt" stroke-linejoin="miter-clip" stroke-miterlimit="4.0" stroke-opacity="0.6" stroke-width="1.0"/>
    <path d="M172.45 -201.2 L181.4 -202.6 Q190.6 -203.65 191.4 -201.2 192.7 -197.45 188.85 -189.9 182.2 -192.1 176.85 -194.7 166.15 -199.65 172.45 -201.2 M156.05 -215.15 L166.3 -222.8 Q177.35 -230.15 181.3 -227.7 185.95 -224.9 189.2 -219.45 192.35 -214.2 191.4 -211.3 190.1 -207.35 174.65 -207.0 158.6 -206.75 156.05 -215.15 M198.95 -231.55 L215.7 -234.8 Q232.1 -237.0 230.45 -231.55 228.85 -225.95 219.4 -223.15 L210.35 -221.4 198.95 -231.55 M210.35 -213.85 L222.65 -215.6 Q235.2 -216.55 236.75 -212.6 238.5 -208.4 234.75 -201.65 231.5 -196.05 227.9 -193.65 224.55 -191.4 216.3 -190.85 207.3 -190.25 206.5 -193.65 203.7 -204.65 203.7 -205.6 203.15 -213.85 210.35 -213.85 M248.15 -206.3 L261.05 -209.8 Q274.3 -212.25 275.9 -207.45 277.2 -203.65 285.35 -192.95 291.05 -183.85 283.45 -182.35 270.1 -179.7 261.95 -182.95 249.85 -187.95 248.15 -206.3 M26.2 -212.6 L31.45 -215.85 Q36.8 -218.75 37.6 -216.3 38.85 -212.7 37.95 -209.2 36.8 -205.0 32.6 -205.0 28.65 -205.0 27.0 -208.75 L26.2 -212.6 M64.1 -223.85 L70.75 -227.8 Q77.6 -231.3 79.2 -228.95 81.75 -225.15 84.2 -220.15 76.65 -218.5 70.4 -218.25 57.8 -217.6 64.1 -223.85 M62.8 -202.45 L68.15 -207.45 Q74.45 -212.6 79.2 -212.6 86.75 -212.6 95.6 -208.75 L95.25 -202.0 Q94.1 -194.8 89.35 -192.35 83.65 -189.55 75.15 -192.7 66.55 -195.95 62.8 -202.45 M100.6 -223.85 L105.5 -228.75 Q110.85 -232.9 113.25 -228.95 115.85 -224.55 114.8 -221.4 113.85 -218.6 110.7 -217.6 107.7 -216.55 103.75 -218.85 99.65 -221.2 100.6 -223.85 M100.6 -199.9 L110.85 -208.75 Q121.9 -217.0 125.85 -213.85 129.8 -210.6 134.55 -202.45 L138.5 -194.9 Q134.1 -191.05 128.75 -187.45 118.05 -180.25 113.25 -181.05 108.5 -181.9 104.1 -190.95 L100.6 -199.9 M129.65 -228.95 L134.65 -233.25 Q140.35 -236.65 143.5 -232.7 147.0 -228.4 145.6 -224.1 144.2 -220.15 140.95 -220.15 138.6 -220.15 129.55 -222.0 L120.85 -223.85 129.65 -228.95 M146.05 -205.0 L152.7 -206.3 Q158.95 -206.9 157.35 -203.75 155.25 -199.45 152.7 -199.2 149.55 -199.0 146.05 -205.0 M110.7 -172.25 L116.9 -176.2 Q123.5 -179.7 125.85 -177.25 128.25 -174.9 125.95 -167.6 124.9 -164.0 123.25 -160.85 119.55 -161.45 116.05 -163.15 109.1 -166.65 110.7 -172.25 M144.8 -165.95 L150.7 -170.5 Q157.0 -173.85 158.6 -168.4 160.25 -162.8 155.8 -156.2 L151.05 -150.75 Q147.35 -152.6 144.65 -155.5 139.3 -161.2 144.8 -165.95 M65.4 -174.8 L68.15 -182.0 Q71.9 -189.0 76.65 -187.35 84.2 -184.8 90.5 -178.5 87.7 -172.25 83.15 -168.65 74.0 -161.3 65.4 -174.8 M86.75 -139.45 L91.05 -147.8 Q95.7 -155.75 98.15 -153.3 101.9 -149.55 110.7 -138.2 L95.6 -126.8 Q93.05 -127.7 90.7 -129.8 85.95 -133.85 86.75 -139.45 M35.05 -192.35 L42.35 -195.6 Q49.9 -198.5 51.45 -196.2 52.7 -194.2 58.05 -188.85 61.55 -184.35 55.25 -183.5 41.45 -181.9 35.05 -192.35 M56.55 -163.4 L64.2 -160.5 Q70.85 -156.8 65.4 -152.0 59.9 -147.25 52.0 -147.95 L45.15 -149.55 48.05 -155.5 Q51.8 -161.8 56.55 -163.4 M3.55 -191.2 Q3.2 -194.55 10.6 -197.35 18.05 -200.25 19.9 -197.45 22.5 -193.65 23.2 -191.75 24.2 -188.65 22.5 -186.05 19.9 -182.35 12.5 -182.95 4.35 -183.5 3.55 -191.2 M21.2 -169.7 L27.5 -178.05 Q34.45 -185.25 37.6 -179.8 40.75 -174.2 39.45 -166.3 38.85 -162.35 37.6 -159.55 33.2 -159.2 28.85 -160.4 20.4 -162.6 21.2 -169.7 M14.9 -159.55 Q17.6 -158.65 19.7 -147.7 20.75 -142.15 21.2 -136.9 L8.3 -135.85 Q-4.95 -135.5 -6.6 -139.45 -8.55 -144.7 -0.55 -153.3 7.85 -162.25 14.9 -159.55 M12.35 -111.65 L18.9 -115.5 Q25.5 -118.65 26.2 -115.5 27.5 -110.4 27.5 -102.85 22.5 -103.2 18.05 -104.45 9.25 -106.9 12.35 -111.65 M70.4 -133.2 L75.6 -134.2 Q80.4 -134.55 77.95 -130.6 74.7 -125.25 69.9 -125.25 65.15 -125.25 70.4 -133.2 M42.6 -119.25 L47.0 -124.55 Q52.15 -129.7 55.25 -128.05 58.85 -126.3 63.65 -120.95 68.05 -115.95 69.1 -112.95 71.05 -107.15 70.4 -102.15 69.1 -94.1 60.25 -94.1 51.65 -94.1 46.2 -106.65 L42.6 -119.25 M104.45 -76.45 L108.85 -84.95 Q113.85 -92.5 117.0 -87.7 120.25 -82.95 121.55 -75.5 122.1 -71.7 122.1 -68.9 L113.75 -69.8 Q105.25 -71.7 104.45 -76.45 M291.05 -158.4 L295.35 -165.95 Q300.7 -172.8 306.15 -169.7 312.9 -165.85 317.75 -161.65 322.9 -157.35 323.8 -154.55 324.3 -153.15 317.05 -152.0 310.1 -150.85 302.2 -150.85 280.9 -150.85 291.05 -158.4 M253.15 -152.0 L260.2 -155.25 Q267.55 -157.45 268.35 -152.0 269.3 -144.7 263.15 -143.5 256.75 -142.25 253.15 -152.0 M254.4 -168.4 L265.0 -172.25 Q276.05 -175.4 278.35 -172.25 282.2 -167.25 282.2 -158.4 276.5 -158.4 270.2 -159.7 257.65 -162.1 254.4 -168.4 M294.75 -136.9 L303.1 -139.1 Q311.6 -140.4 312.4 -135.6 313.25 -130.85 311.0 -125.25 310.0 -122.35 308.7 -120.5 303.7 -122.35 299.4 -125.4 290.8 -131.3 294.75 -136.9 M226.75 -177.25 L233.7 -180.85 Q240.55 -183.75 240.55 -179.8 240.55 -175.05 234.55 -173.75 228.6 -172.6 226.75 -177.25 M324.95 -168.4 L332.05 -170.5 Q339.4 -171.4 340.2 -165.95 341.35 -157.15 340.2 -149.55 334.5 -153.65 329.75 -158.05 320.2 -166.9 324.95 -168.4 M327.55 -135.6 L336.35 -140.5 Q345.9 -144.7 349.05 -140.75 354.05 -134.45 356.6 -121.8 347.2 -123.3 338.8 -125.85 322.05 -130.85 327.55 -135.6 M322.55 -120.5 L329.75 -123.65 Q336.7 -125.5 335.1 -119.25 333.6 -112.95 329.15 -109.8 L324.95 -107.95 322.55 -120.5 M346.5 -110.5 L356.35 -114.7 Q366.15 -117.6 365.45 -110.5 364.5 -102.15 357.85 -102.5 351.35 -102.7 346.5 -110.5 M364.15 -85.3 L371.15 -85.5 Q378.0 -84.95 378.0 -80.15 378.0 -74.45 371.15 -77.05 364.15 -79.6 364.15 -85.3 M400.65 -70.05 L410.75 -67.4 Q420.3 -64.0 417.05 -60.05 413.2 -55.15 403.2 -60.85 393.2 -66.45 400.65 -70.05 M389.4 -95.3 L401.95 -90.3 Q401.0 -87.15 399.25 -84.1 395.75 -78.2 391.8 -78.9 383.9 -80.5 377.4 -88.55 370.55 -96.9 389.4 -95.3 M415.75 -47.4 L423.3 -44.6 Q429.6 -41.45 423.3 -39.85 416.1 -38.1 412.5 -42.75 411.1 -44.5 411.8 -45.85 412.65 -47.4 415.75 -47.4 M438.45 -31.0 L444.0 -36.55 Q449.95 -41.35 452.4 -37.4 459.6 -25.05 449.85 -23.45 445.05 -22.6 441.35 -26.7 L438.45 -31.0 M439.7 -10.9 L449.35 -9.0 Q458.55 -6.45 456.1 -3.3 452.5 1.55 443.2 0.05 433.8 -1.6 439.7 -10.9 M461.2 -14.6 Q460.65 -17.15 460.85 -19.5 461.45 -24.25 466.2 -23.45 471.0 -22.6 473.45 -18.55 474.7 -16.45 475.05 -14.6 473.8 -14.0 471.45 -13.65 466.8 -13.1 461.2 -14.6 M607.25 17.4 L614.95 11.95 Q623.3 6.95 627.15 9.4 633.05 12.95 641.1 24.15 L637.25 19.85 Q631.9 14.5 627.15 13.6 622.35 12.75 614.35 14.95 L607.25 17.4 M617.7 16.95 L625.4 17.2 Q633.85 18.7 637.95 25.45 L634.2 28.2 Q634.45 25.8 632.45 23.1 628.65 17.9 617.7 16.95 M524.25 33.3 Q529.8 32.5 531.3 38.4 532.15 41.45 531.8 44.55 521.65 45.85 516.7 44.55 513.55 43.75 518.55 38.4 521.1 35.85 524.25 33.3 M709.25 45.75 Q708.5 51.05 691.55 55.6 L694.9 56.1 683.75 59.0 671.2 61.3 Q662.45 62.7 653.4 65.15 644.1 67.6 630.95 69.2 L606.65 72.15 Q577.5 69.9 573.5 53.3 L577.35 56.9 Q582.0 60.6 586.8 60.85 584.45 56.2 585.05 48.65 584.7 58.05 594.35 60.4 611.65 64.45 642.1 59.45 662.0 56.1 667.1 56.1 L659.3 54.9 Q651.65 53.65 652.45 53.3 653.15 53.05 659.65 53.4 L671.85 53.75 681.85 54.45 687.05 55.1 Q679.25 44.55 685.8 34.35 689.25 29.05 694.6 25.9 704.15 28.55 707.65 37.4 709.35 41.9 709.25 45.75 M545.6 38.3 L549.7 32.15 Q554.1 26.8 555.75 30.75 557.85 35.85 555.95 37.85 553.65 40.15 545.6 38.3 M475.05 30.75 L486.9 27.5 Q499.1 24.6 501.55 27.0 505.5 30.95 507.05 34.8 509.0 40.05 504.0 40.85 492.4 42.85 484.8 41.9 471.8 40.5 475.05 30.75 M505.5 81.65 L505.65 80.75 Q504.25 76.65 506.0 73.65 L505.65 80.75 Q506.55 83.85 509.35 87.7 512.6 92.1 516.35 95.4 506.9 90.6 505.5 81.65 M531.45 67.95 L534.1 75.05 Q538.65 82.6 547.5 84.9 543.3 85.6 539.1 83.85 530.85 80.4 531.45 67.95 M482.85 86.55 Q483.8 90.6 486.7 95.25 489.95 100.4 493.65 103.85 484.25 99.7 482.75 88.15 L482.85 86.55 Q481.55 81.55 483.2 77.35 L482.85 86.55 M552.7 70.6 L553.2 60.85 Q553.05 68.05 557.85 77.45 560.5 82.7 563.2 86.45 554.0 82.6 552.7 70.6 M468.8 6.8 L476.45 6.0 Q483.8 5.65 481.35 8.05 479.0 10.4 470.5 12.0 L462.5 13.05 468.8 6.8 M444.85 14.35 L455.2 14.45 Q465.3 15.4 463.65 19.35 461.2 25.75 453.65 33.3 451.1 33.9 448.8 31.9 444.0 27.7 444.85 14.35 M456.1 39.6 L461.9 36.55 Q467.95 34.35 468.8 38.3 L471.2 52.15 Q465.3 50.25 460.4 47.7 450.65 42.7 456.1 39.6 M452.95 73.65 L452.4 77.8 Q452.05 82.8 452.85 87.6 455.4 102.7 469.0 108.65 462.6 108.85 457.5 104.55 447.05 96.1 452.95 73.65 M443.55 59.7 L450.75 56.3 Q457.75 53.75 456.1 58.55 453.45 66.8 450.3 69.1 446.0 72.15 443.55 59.7 M362.85 111.4 Q363.45 119.8 370.65 129.8 375.2 136.3 380.2 140.7 367.15 138.4 363.8 122.35 362.75 117.25 362.85 111.4 M335.8 115.25 L335.65 119.1 Q335.8 123.75 336.95 128.05 340.65 141.65 353.7 146.4 347.3 146.9 341.95 143.25 331.0 135.95 335.8 115.25 M425.75 100.25 L425.65 96.2 Q426.7 102.0 431.45 108.4 435.05 113.15 438.8 116.2 428.2 110.85 425.75 100.25 M388.7 97.25 L390.05 110.25 Q393.9 124.0 405.65 127.45 399.05 127.7 393.7 124.1 382.75 116.75 388.7 97.25 M-335.6 -89.0 L-320.45 -95.3 Q-319.4 -87.35 -326.65 -83.65 -333.7 -79.95 -335.6 -89.0 M-387.3 -68.9 L-378.95 -73.9 Q-370.45 -78.3 -369.65 -75.15 -368.0 -68.75 -368.0 -66.9 -368.0 -62.5 -372.1 -62.5 -378.25 -62.5 -385.35 -64.7 -393.15 -67.15 -387.3 -68.9 M-242.25 -111.65 L-234.2 -117.95 Q-225.7 -123.65 -223.4 -120.5 -220.7 -117.15 -221.75 -113.75 -222.6 -111.2 -225.85 -107.95 -228.3 -105.5 -231.2 -106.45 L-242.25 -111.65 M-179.2 -130.6 L-174.9 -137.0 Q-170.25 -143.05 -167.95 -140.75 -165.5 -138.3 -165.25 -133.65 -165.05 -131.2 -165.4 -129.35 -170.15 -127.7 -174.2 -127.15 -182.35 -125.85 -179.2 -130.6 M-201.9 -128.05 L-193.15 -131.9 -192.95 -126.65 Q-193.85 -121.3 -199.45 -120.5 -206.2 -119.6 -207.25 -122.35 -208.4 -125.25 -201.9 -128.05 M-256.2 -102.85 Q-247.45 -104.45 -244.55 -97.5 -243.15 -94.0 -243.5 -90.3 L-250.25 -89.35 Q-258.15 -88.65 -263.75 -90.3 -269.2 -91.9 -263.25 -97.5 -260.25 -100.3 -256.2 -102.85 M-296.5 -94.1 L-289.3 -97.95 Q-282.35 -100.75 -283.85 -95.3 -285.8 -88.4 -293.05 -87.15 -300.1 -85.85 -296.5 -94.1 M-312.2 -84.7 Q-306.65 -88.2 -306.65 -82.7 -306.65 -77.5 -313.7 -79.6 -316.65 -80.4 -317.55 -80.4 L-312.2 -84.7 M-25.4 -160.85 L-21.45 -168.75 Q-16.8 -176.3 -12.85 -174.8 -6.6 -172.25 1.1 -165.95 0.4 -159.0 -3.2 -154.9 -10.3 -146.65 -25.4 -160.85 M-53.2 -181.05 L-44.5 -188.65 Q-35.3 -195.5 -32.95 -192.35 -28.65 -186.3 -33.3 -176.75 -37.5 -168.15 -43.1 -165.95 -47.85 -164.0 -51.9 -169.7 -56.0 -175.5 -53.2 -181.05 M-82.15 -162.1 L-76.2 -166.55 Q-69.95 -170.25 -68.3 -167.1 -65.75 -162.1 -64.5 -154.55 -72.4 -152.0 -78.55 -151.65 -90.75 -151.1 -82.15 -162.1 M-70.85 -138.2 L-54.5 -153.3 -50.65 -148.5 Q-46.9 -142.95 -46.9 -138.2 -46.9 -132.7 -52.4 -124.7 -57.75 -116.8 -60.75 -116.8 -65.15 -116.8 -69.15 -121.8 -74.15 -128.3 -70.85 -138.2 M-40.55 -125.6 L-34.15 -132.35 Q-27.5 -138.4 -26.7 -134.45 -26.45 -133.2 -19.25 -126.1 -14.5 -121.2 -20.4 -116.8 -28.45 -110.75 -33.8 -112.6 -39.7 -114.7 -40.55 -125.6 M-142.7 -147.0 L-133.75 -154.55 Q-124.0 -162.1 -120.05 -162.1 -116.1 -162.1 -112.6 -156.45 -110.85 -153.5 -109.95 -150.75 -121.9 -146.65 -132.0 -144.1 -152.15 -139.1 -142.7 -147.0 M-128.75 -134.45 L-118.55 -138.85 Q-108.2 -142.6 -107.35 -139.45 -106.35 -135.4 -109.0 -130.6 -111.8 -125.6 -116.2 -125.6 -122.0 -125.6 -126.8 -128.05 -132.25 -130.95 -128.75 -134.45 M-151.55 -119.25 Q-148.45 -120.5 -145.4 -121.8 -139.35 -123.65 -140.15 -120.5 -141.3 -115.85 -146.3 -113.75 -151.55 -111.65 -151.55 -119.25" fill="#000000" fill-opacity="0.2" fill-rule="evenodd" stroke="none"/>
    <path d="M664.4 44.35 L664.65 42.4 Q665.45 40.4 668.7 41.0 L706.95 44.35 Q674.4 43.9 664.4 44.35 M612.95 29.25 L616.2 23.8 Q619.9 18.45 622.85 19.25 625.85 20.2 629.1 24.85 L631.9 29.25 Q629.45 31.6 625.75 32.75 618.55 35.2 612.95 29.25" fill="#000000" fill-rule="evenodd" stroke="none"/>
    <path d="M423.65 36.8 Q424.25 43.9 419.35 50.15 411.95 58.3 406.7 64.55 400.4 72.25 387.5 78.85 L369.25 88.3 355.9 98.3 Q347.75 104.35 342.4 107.1 337.9 109.45 326.6 111.3 316.85 112.8 315.45 114.8 L311.7 119.65 Q310.1 122.0 309.75 124.2 309.65 125.15 307.9 127.45 306.35 129.55 306.35 133.65 M464.35 218.25 Q467.95 216.75 472.05 216.05 M489.2 217.05 L496.45 218.25 498.25 217.8 M-7.75 203.5 Q-7.05 200.35 0.85 185.8 L8.65 172.0 15.4 166.75 M83.15 239.6 L67.8 240.0 56.55 231.15 Q40.15 202.2 36.3 199.65 34.1 198.15 39.0 181.85 45.75 159.3 46.45 155.6 M307.75 247.6 L311.15 243.35 314.05 241.15 Q317.05 238.95 318.25 238.6 L320.3 238.4 M266.75 241.4 L276.15 240.8 Q282.75 241.15 286.15 244.75 290.1 249.05 297.25 250.35 M-36.2 195.75 L-29.25 208.5" fill="none" stroke="#000000" stroke-linecap="butt" stroke-linejoin="miter-clip" stroke-miterlimit="4.0" stroke-width="1.0"/>
    <path d="M664.4 44.35 L664.65 42.4 Q665.45 40.4 668.7 41.0 L706.95 44.35 Q674.4 43.9 664.4 44.35 M612.95 29.25 L616.2 23.8 Q619.9 18.45 622.85 19.25 625.85 20.2 629.1 24.85 L631.9 29.25 Q629.45 31.6 625.75 32.75 618.55 35.2 612.95 29.25" fill="none" stroke="#000000" stroke-linecap="butt" stroke-linejoin="miter-clip" stroke-miterlimit="4.0" stroke-opacity="0.6" stroke-width="1.0"/>
    <path d="M401.9 133.6 Q422.55 124.4 444.1 118.0 454.95 114.8 466.0 112.3 506.8 103.25 535.7 93.4 558.1 85.7 561.5 85.5 566.95 85.0 580.45 79.1 594.7 72.8 604.45 71.3 L629.0 68.3 Q642.25 66.65 651.65 64.25 660.7 61.8 669.4 60.4 L681.95 58.05 698.55 53.55 Q708.65 49.95 709.25 45.75 709.35 41.9 707.65 37.4 704.15 28.55 694.6 25.9 689.95 20.2 685.65 19.25 L676.6 17.9 Q669.65 16.85 666.75 16.0 645.25 10.2 639.9 8.95 633.15 7.3 630.4 4.65 628.5 2.8 621.9 2.8 L604.15 1.6 Q591.25 1.95 567.05 10.35 541.5 19.15 531.3 18.9 526.4 18.7 517.0 13.6 508.15 8.8 444.75 -62.4 426.05 -88.4 409.3 -110.7 376.7 -154.4 355.05 -172.5 350.9 -176.0 328.7 -196.8 311.95 -212.5 298.85 -221.65 259.25 -249.4 203.8 -254.2 146.1 -259.2 66.15 -241.75 3.9 -228.15 -34.65 -211.2 -46.65 -205.95 -62.65 -202.35 L-92.75 -196.35 Q-134.8 -187.4 -175.9 -165.9 -218.55 -143.6 -259.0 -128.7 -312.55 -109.1 -314.4 -108.3 -343.9 -95.4 -383.75 -81.0 -429.15 -64.6 -451.35 -60.05 L-508.5 -49.95 Q-545.65 -43.7 -559.95 -39.3 -581.35 -32.65 -588.55 -30.9 -599.45 -28.25 -608.65 -27.9 -612.95 -27.8 -647.55 -15.45 -680.65 -3.75 -694.15 -4.8 -702.6 -5.45 -706.65 -3.5 -710.5 -1.65 -708.65 1.15 -703.9 8.45 -679.5 8.45 -662.2 8.45 -601.65 9.85 -545.3 10.8 -526.05 8.45 L-448.55 1.5 Q-389.1 -3.6 -372.45 -6.15 L-309.75 -15.25 Q-260.25 -22.3 -234.6 -26.5 -203.0 -31.6 -179.85 -28.7 -165.7 -26.85 -131.55 -17.1 -121.8 -14.3 -74.4 0.8 -43.6 10.55 -37.1 10.8 -25.7 11.25 -22.45 13.1 L-22.45 15.2 Q-22.0 18.0 -19.9 21.0 -13.5 30.55 5.9 39.15 25.4 47.75 38.4 55.15 L39.75 55.95 Q45.15 59.1 47.45 60.85 L74.55 72.0 75.4 73.65 Q65.4 88.75 55.25 102.6 49.2 110.95 48.05 129.1 47.35 138.75 46.5 155.25" fill="none" stroke="#000000" stroke-linecap="round" stroke-linejoin="miter-clip" stroke-miterlimit="4.0" stroke-width="1.0"/>
    <path d="M306.35 133.65 Q306.35 136.3 306.85 146.7 L311.85 148.2 Q324.65 151.25 345.1 148.7 M74.55 72.0 Q69.5 61.95 62.95 50.05 48.75 24.1 40.15 13.05 36.65 8.65 22.7 -11.35 13.05 -25.3 3.55 -34.85 M159.5 107.0 L177.9 114.75 Q188.55 119.4 201.85 122.65 L205.85 123.6 206.4 123.7 206.95 123.8 241.05 127.85 M382.15 140.95 Q383.6 152.0 386.8 157.8 390.4 164.3 397.4 168.25 401.0 170.25 403.8 170.95 L410.75 171.4 Q418.55 172.35 422.75 174.8 L437.4 185.7 Q448.1 193.75 452.05 193.75 L467.15 194.65 Q460.5 207.9 456.8 208.85 M247.9 127.85 Q249.15 135.7 250.1 157.7 251.15 179.1 251.15 189.45 251.15 193.15 255.0 199.75 258.95 206.65 259.15 212.55 259.65 224.05 259.3 229.05 259.0 234.25 257.85 237.45 M39.75 55.95 L42.6 76.1 Q28.75 78.65 17.35 82.45 10.95 84.55 -0.3 95.05 -12.65 106.3 -15.3 107.7 -19.35 109.7 -27.05 111.3 -34.5 112.8 -36.8 114.0 -39.95 115.5 -44.35 123.75 L-48.1 131.65 -44.85 138.4 Q-41.9 146.3 -44.35 151.75 L-49.5 162.0 Q-51.9 166.5 -51.9 169.45 -51.9 171.6 -48.6 176.8 M46.45 155.6 L46.5 155.25 M159.5 107.0 Q150.7 116.75 134.8 139.65 112.8 171.3 112.0 182.0 111.2 192.2 119.65 208.95 123.95 217.35 128.4 223.6" fill="none" stroke="#000000" stroke-linecap="round" stroke-linejoin="miter-clip" stroke-miterlimit="4.0" stroke-width="1.0"/>
    <path d="M345.1 148.7 Q364.9 146.25 382.15 140.95 392.45 137.8 401.9 133.6 M167.45 -82.7 L161.75 -57.05 Q156.75 -24.6 159.9 9.35 L165.95 74.1 Q167.35 99.0 162.45 103.85 L159.5 107.0 M525.75 223.0 Q522.0 202.2 522.0 191.75 522.0 185.25 514.45 173.75 L506.9 163.4 Q505.05 160.85 501.9 158.05 495.75 152.35 489.8 151.2 483.3 149.8 466.1 143.15 449.85 136.75 447.25 135.0 445.4 133.75 444.5 124.1 444.15 120.55 444.1 118.0 M340.8 237.75 L341.35 237.2 Q343.0 235.25 339.25 230.7 335.8 226.5 332.4 224.9 330.45 223.85 326.95 218.7 323.0 212.8 321.15 211.15 L313.45 205.1 Q308.7 201.4 307.9 199.3 306.6 196.65 306.25 190.8 305.9 184.3 306.95 177.55 307.75 171.85 307.2 154.8 L307.15 153.2 306.85 146.7 M281.4 17.85 L273.0 32.7 Q263.95 49.55 260.1 59.0 256.55 67.55 247.3 83.4 L247.0 83.85 241.6 93.45 241.5 93.6 241.25 94.15 241.2 94.4 241.15 94.45 Q240.45 97.0 243.9 111.55 L243.9 111.6 247.3 125.15 247.9 127.85 245.2 127.9 M15.4 166.75 Q23.3 161.4 28.75 160.6 34.45 159.75 46.5 155.25" fill="none" stroke="#000000" stroke-linecap="butt" stroke-linejoin="miter-clip" stroke-miterlimit="4.0" stroke-width="1.0"/>
  </g>
</svg>
