<?xml version="1.0" encoding="UTF-8" standalone="no"?>
<svg xmlns:xlink="http://www.w3.org/1999/xlink" height="250.55px" width="287.75px" xmlns="http://www.w3.org/2000/svg">
  <g transform="matrix(1.0, 0.0, 0.0, 1.0, 207.85, 26.35)">
    <path d="M-61.15 -25.85 L-48.05 -23.55 Q-31.6 -20.3 -14.5 -15.8 39.8 -1.15 78.3 21.6 L79.4 24.0 Q79.2 26.25 72.25 25.65 46.15 19.9 21.65 15.35 -26.4 6.4 -53.1 9.5 -68.2 11.2 -74.85 6.8 -80.4 3.05 -79.15 -4.4 -77.95 -10.95 -72.4 -17.5 -66.9 -23.95 -61.15 -25.85" fill="#ffffff" fill-opacity="0.0" fill-rule="evenodd" stroke="none"/>
    <path d="M-61.15 -25.85 L-48.05 -23.55 Q-31.6 -20.3 -14.5 -15.8 39.8 -1.15 78.3 21.6 L79.4 24.0 Q79.2 26.25 72.25 25.65 46.15 19.9 21.65 15.35 -26.4 6.4 -53.1 9.5 -68.2 11.2 -74.85 6.8 -80.4 3.05 -79.15 -4.4 -77.95 -10.95 -72.4 -17.5 -66.9 -23.95 -61.15 -25.85 M-206.55 222.9 Q-207.7 219.45 -207.2 216.75 -205.95 211.3 -197.5 214.5 -188.95 217.85 -188.55 221.05 -188.45 222.8 -189.95 223.7 L-206.55 222.9" fill="none" stroke="#000000" stroke-linecap="butt" stroke-linejoin="miter-clip" stroke-miterlimit="4.0" stroke-opacity="0.6" stroke-width="1.0"/>
  </g>
</svg>
