<?xml version="1.0" encoding="UTF-8" standalone="no"?>
<svg xmlns:xlink="http://www.w3.org/1999/xlink" height="27.3px" width="28.0px" xmlns="http://www.w3.org/2000/svg">
  <g transform="matrix(1.0, 0.0, 0.0, 1.0, 105.25, 139.75)">
    <path d="M-77.85 -127.8 L-82.85 -113.75 -93.55 -112.95 -93.8 -113.05 -104.65 -116.95 -96.7 -139.2 -85.85 -135.3 -85.6 -135.2 -77.85 -127.8 M-93.8 -113.05 L-85.85 -135.3 -93.8 -113.05" fill="#ffffff" fill-opacity="0.0" fill-rule="evenodd" stroke="none"/>
    <path d="M-77.85 -127.8 L-82.85 -113.75 -93.55 -112.95 -93.8 -113.05 M-96.7 -139.2 L-85.85 -135.3" fill="none" stroke="#000000" stroke-linecap="butt" stroke-linejoin="miter-clip" stroke-miterlimit="4.0" stroke-opacity="0.6" stroke-width="1.0"/>
    <path d="M-85.85 -135.3 L-93.8 -113.05" fill="none" stroke="#000000" stroke-linecap="round" stroke-linejoin="miter-clip" stroke-miterlimit="4.0" stroke-opacity="0.6" stroke-width="1.0"/>
    <path d="M-104.65 -116.95 L-96.7 -139.2 M-85.6 -135.2 L-77.85 -127.8" fill="none" stroke="#000000" stroke-linecap="butt" stroke-linejoin="miter-clip" stroke-miterlimit="4.0" stroke-opacity="0.6" stroke-width="1.0"/>
    <path d="M-93.8 -113.05 L-104.65 -116.95 M-85.85 -135.3 L-85.6 -135.2" fill="none" stroke="#000000" stroke-linecap="round" stroke-linejoin="miter-clip" stroke-miterlimit="4.0" stroke-opacity="0.6" stroke-width="1.0"/>
    <path d="M-86.45 -134.8 L-86.8 -133.85 -96.5 -137.4 -96.25 -138.2 -86.45 -134.8" fill="#ffffff" fill-opacity="0.8" fill-rule="evenodd" stroke="none"/>
  </g>
</svg>
