<?xml version="1.0" encoding="UTF-8" standalone="no"?>
<svg xmlns:xlink="http://www.w3.org/1999/xlink" height="83.0px" width="200.55px" xmlns="http://www.w3.org/2000/svg">
  <g transform="matrix(1.0, 0.0, 0.0, 1.0, 100.0, 23.2)">
    <path d="M29.25 -14.15 Q33.8 -13.5 38.75 -10.45 L47.15 -4.7 Q55.8 1.1 62.25 0.15 66.25 -0.55 76.7 -6.6 86.45 -12.1 95.4 -2.2 104.5 7.85 94.85 14.3 98.85 17.45 96.65 24.45 94.85 29.95 90.85 34.5 97.35 34.65 99.55 37.95 101.75 41.1 99.0 46.75 96.35 52.4 92.25 53.5 88.8 54.45 82.2 52.4 78.9 55.8 73.7 57.9 68.6 59.95 63.5 59.8 54.3 59.25 47.4 55.55 L43.7 52.4 Q41.35 50.2 39.85 49.75 36.0 48.8 28.45 51.3 20.6 53.9 16.5 53.05 11.55 51.95 5.35 47.45 -1.55 42.35 -4.95 41.1 -9.8 39.3 -12.25 41.8 L-18.15 47.15 Q-23.4 49.75 -32.2 47.15 -40.15 44.95 -45.1 40.7 L-47.85 37.4 Q-49.25 35.45 -51.05 34.65 -52.95 33.8 -58.2 33.8 -63.25 33.8 -65.6 32.45 -70.7 29.85 -72.05 25.15 -72.75 22.7 -72.75 15.25 -82.4 15.65 -86.65 15.25 -96.0 14.45 -98.9 10.3 -101.5 6.6 -97.9 3.15 -92.95 -0.4 -91.3 -2.35 -99.55 -3.85 -93.8 -10.75 -88.85 -16.65 -83.05 -18.7 -72.6 -22.3 -59.7 -11.85 -61.75 -13.6 -54.6 -17.05 -47.6 -20.5 -45.0 -19.8 L-37.3 -15.95 Q-35.5 -15.15 -30.4 -19.0 -25.75 -22.4 -19.55 -23.1 -13.75 -23.65 -8.0 -21.6 -5.1 -20.65 1.75 -15.95 7.8 -11.95 11.95 -11.4 14.95 -11.0 20.45 -12.8 26.1 -14.45 29.25 -14.15" fill="#ffffff" fill-opacity="0.8980392" fill-rule="evenodd" stroke="none"/>
  </g>
</svg>
