<?xml version="1.0" encoding="UTF-8" standalone="no"?>
<svg xmlns:xlink="http://www.w3.org/1999/xlink" height="164.7px" width="140.25px" xmlns="http://www.w3.org/2000/svg">
  <g transform="matrix(1.0, 0.0, 0.0, 1.0, 69.9, 66.6)">
    <path d="M37.1 -47.1 Q29.55 -20.25 4.8 -16.85 -0.15 -16.15 -25.05 -18.6 -47.45 -18.9 -48.0 -7.6 -48.45 1.3 -31.65 9.7 -30.3 10.4 -7.05 19.35 0.5 22.35 17.55 25.4 33.8 28.4 41.9 31.85 52.9 36.8 61.55 44.35 73.65 55.2 69.15 63.45 67.6 66.2 65.3 67.05 62.0 68.0 61.0 68.85 60.35 69.4 52.75 78.6 47.25 85.05 42.6 85.75 39.3 86.3 32.85 84.25 27.05 82.3 22.8 83.8 19.35 85.05 6.85 92.5 -2.5 97.85 -10.5 98.1 2.85 89.05 8.65 77.1 15.25 63.05 9.3 49.45 3.0 35.15 -20.65 30.2 -27.0 28.8 -39.9 26.35 -50.75 23.85 -56.8 19.9 -65.75 14.1 -68.8 2.55 -72.1 -9.4 -65.6 -17.65 -58.05 -27.3 -44.05 -27.85 -38.65 -28.1 -19.4 -25.2 -1.4 -22.45 21.0 -34.3 32.0 -40.2 37.1 -47.1 39.45 -55.6 40.1 -66.6 43.55 -56.0 37.1 -47.1" fill="#000000" fill-opacity="0.09803922" fill-rule="evenodd" stroke="none"/>
  </g>
</svg>
