<?xml version="1.0" encoding="UTF-8" standalone="no"?>
<svg xmlns:xlink="http://www.w3.org/1999/xlink" height="517.8px" width="281.0px" xmlns="http://www.w3.org/2000/svg">
  <g transform="matrix(1.0, 0.0, 0.0, 1.0, 140.3, 259.2)">
    <path d="M14.95 -102.65 L25.8 -112.55 28.9 -123.6 Q32.5 -135.05 34.2 -137.7 35.9 -140.3 34.5 -144.8 L16.05 -185.1 34.2 -160.0 30.0 -183.7 Q27.2 -197.65 25.5 -201.7 24.6 -204.2 17.45 -215.2 L10.45 -225.55 30.0 -204.65 36.95 -180.95 42.55 -147.45 Q43.35 -141.55 41.15 -131.15 L35.6 -105.6 Q31.4 -83.3 30.0 -63.75 27.9 -60.2 25.9 -59.85 L25.8 -60.2 19.45 -98.6 18.95 -98.95 18.05 -99.6 14.95 -102.65 18.05 -99.6 Q16.1 -101.15 14.15 -103.6 L14.55 -103.1 14.95 -102.65 M28.3 -49.1 Q39.35 -10.95 58.65 -7.0 L69.35 29.9 69.4 30.05 69.55 30.55 69.5 30.5 63.15 18.25 44.55 -10.75 Q35.7 -18.55 28.3 -49.1 M105.45 224.6 L107.35 236.35 116.7 242.55 117.3 243.0 Q108.55 241.85 103.6 238.8 95.4 233.7 92.45 223.0 90.3 210.15 88.6 203.45 L78.65 159.3 Q72.6 132.5 66.4 115.75 66.6 123.65 69.7 140.55 72.8 156.8 72.45 165.35 66.9 160.85 63.3 145.95 60.2 129.25 58.85 123.65 55.75 111.25 54.35 105.05 51.7 94.2 50.6 86.15 45.8 46.9 31.85 6.95 31.4 12.2 33.4 19.95 L36.8 32.8 Q38.35 39.65 39.75 50.95 L42.25 69.1 Q48.9 105.8 50.75 126.9 52.45 147.2 58.35 170.75 61.45 183.65 62.1 199.6 L62.1 228.25 Q57.75 224.85 54.5 207.95 55.9 216.8 54.95 223.3 53.7 231.2 48.45 238.05 43.5 244.55 35.25 253.55 L51.25 250.6 50.4 250.75 24.6 255.55 5.65 247.2 Q12.95 243.6 20.55 237.9 35.75 226.4 37.15 215.85 38.2 206.75 36.35 185.5 34.05 159.75 34.05 148.9 34.05 133.25 32.5 102.9 L30.8 75.6 Q26.9 56.05 21.5 36.05 10.65 -3.9 2.7 -6.55 -5.2 -9.2 -27.05 -8.1 L-47.5 -6.55 Q-50.15 -9.65 -54.8 -12.3 -64.25 -17.55 -74.8 -14.9 L-97.7 -12.75 -93.55 -25.3 -78.35 -25.3 Q-61.75 -24.4 -53.85 -19.1 L-5.65 -16.95 Q-8.75 -26.85 -12.6 -37.4 -20.55 -58.3 -24.4 -60.95 -28.45 -63.6 -45.65 -68.85 L-62.2 -73.5 Q-63.3 -77.1 -66.7 -81.1 -73.4 -88.85 -85.15 -90.25 -96.95 -91.5 -112.15 -94.15 L-125.0 -96.45 -130.4 -100.15 Q-129.35 -103.75 -129.2 -106.55 -126.25 -98.8 -118.2 -100.95 -115.85 -101.55 -118.35 -107.6 -120.2 -112.1 -123.3 -116.75 -96.5 -102.35 -74.8 -100.65 L-57.4 -92.6 Q-37.4 -84.65 -24.4 -86.05 -28.6 -91.8 -32.75 -98.6 -41.15 -112.1 -41.15 -117.4 -41.15 -126.85 -43.3 -132.9 -46.9 -143.4 -58.05 -153.05 -68.4 -162.15 -96.65 -171.15 L-122.85 -178.15 -138.8 -189.9 -119.25 -190.55 -106.1 -182.3 -86.7 -174.4 Q-65.95 -167.15 -58.05 -169.75 -50.15 -172.4 -38.5 -168.2 -32.75 -166.2 -28.6 -163.55 -31.4 -175.65 -34.5 -192.25 -51.2 -211.95 -52.45 -223.55 -53.25 -232.4 -55.25 -237.65 -56.65 -241.7 -59.9 -246.05 L-57.9 -248.65 Q-57.55 -246.05 -55.7 -241.7 -53.55 -237.05 -53.25 -234.85 -49.5 -237.95 -46.9 -242.15 L-40.85 -231.45 -41.15 -234.7 Q-42.05 -241.05 -43.8 -248.2 -42.05 -252.7 -41.15 -257.2 -41.3 -254.1 -40.85 -247.9 L-34.8 -231.0 Q-27.95 -211.75 -24.4 -200.45 -21.6 -191.15 -18.35 -166.65 -15.25 -143.9 -13.25 -139.1 -12.6 -137.7 -10.3 -124.95 -8.75 -116.45 -2.1 -109.8 4.9 -102.8 8.6 -93.95 10.45 -89.15 11.85 -83.3 L23.05 -45.6 23.8 -33.5 Q25.5 -20.35 29.55 -14.15 6.6 -35.25 7.7 -44.2 8.6 -52.45 3.5 -64.2 -0.2 -72.9 -4.85 -79.1 -6.1 -80.8 -11.55 -98.6 -16.35 -114.1 -20.2 -115.35 -24.55 -116.6 -21.6 -103.6 -19.9 -96.0 -14.65 -77.7 -10.45 -60.95 -3.5 -40.05 -2.7 -37.85 -3.0 -29.8 -1.3 -21.45 9.1 -16.3 21.15 -10.25 30.15 -0.95 38.2 7.25 48.15 22.75 61.75 44.0 74.65 86.9 78.65 100.4 81.9 115.9 86.25 136.05 87.2 151.1 88.3 169.05 91.85 188.6 95.7 209.85 99.75 216.8 101.1 219.25 105.45 224.6 M-7.25 -157.0 L-6.85 -155.5 -7.2 -156.75 -7.25 -157.0 M69.4 30.05 L69.5 30.5 69.4 30.05 M-34.5 -192.25 Q-38.05 -211.6 -40.85 -231.45 -38.05 -211.6 -34.5 -192.25" fill="#ffffff" fill-opacity="0.0" fill-rule="evenodd" stroke="none"/>
    <path d="M18.05 -99.6 L18.95 -98.95 19.45 -98.6 20.7 -86.85 Q22.55 -72.6 25.5 -59.85 L25.9 -59.85 Q27.05 -54.2 28.3 -49.1 35.7 -18.55 44.55 -10.75 L63.15 18.25 69.5 30.5 73.1 42.9 Q87.95 97.6 90.45 121.0 90.0 123.65 96.35 165.95 100.9 196.7 105.45 224.6 101.1 219.25 99.75 216.8 95.7 209.85 91.85 188.6 88.3 169.05 87.2 151.1 86.25 136.05 81.9 115.9 78.65 100.4 74.65 86.9 61.75 44.0 48.15 22.75 38.2 7.25 30.15 -0.95 21.15 -10.25 9.1 -16.3 -1.3 -21.45 -3.0 -29.8 -2.7 -37.85 -3.5 -40.05 -10.45 -60.95 -14.65 -77.7 -19.9 -96.0 -21.6 -103.6 -24.55 -116.6 -20.2 -115.35 -16.35 -114.1 -11.55 -98.6 -6.1 -80.8 -4.85 -79.1 -0.2 -72.9 3.5 -64.2 8.6 -52.45 7.7 -44.2 6.6 -35.25 29.55 -14.15 25.5 -20.35 23.8 -33.5 L23.05 -45.6 11.85 -83.3 Q10.45 -89.15 8.6 -93.95 4.9 -102.8 -2.1 -109.8 -8.75 -116.45 -10.3 -124.95 -12.6 -137.7 -13.25 -139.1 -15.25 -143.9 -18.35 -166.65 -21.6 -191.15 -24.4 -200.45 -27.95 -211.75 -34.8 -231.0 L-40.85 -247.9 Q-38.8 -250.05 -36.35 -253.95 -35.25 -249.15 -26.75 -232.7 -19.3 -217.95 -18.2 -205.4 L-11.85 -177.0 -10.9 -172.95 -7.25 -157.1 -7.25 -157.0 -7.2 -156.75 -6.85 -155.5 -6.75 -155.15 -5.45 -150.55 -5.05 -149.1 -4.8 -148.25 -4.55 -147.35 -4.3 -146.5 -4.05 -145.65 -3.8 -144.85 -3.6 -144.1 Q3.85 -119.35 11.35 -107.6 L11.65 -107.1 12.25 -106.15 12.85 -105.3 13.85 -103.95 14.15 -103.6 Q16.1 -101.15 18.05 -99.6 M117.35 243.0 L117.55 243.0 122.85 246.6 124.85 247.95 138.8 257.25 Q130.9 253.55 120.65 250.1 100.35 243.3 88.6 244.7 L52.15 250.45 51.25 250.6 35.25 253.55 Q43.5 244.55 48.45 238.05 53.7 231.2 54.95 223.3 55.9 216.8 54.5 207.95 57.75 224.85 62.1 228.25 L62.1 199.6 Q61.45 183.65 58.35 170.75 52.45 147.2 50.75 126.9 48.9 105.8 42.25 69.1 L39.75 50.95 Q38.35 39.65 36.8 32.8 L33.4 19.95 Q31.4 12.2 31.85 6.95 45.8 46.9 50.6 86.15 51.7 94.2 54.35 105.05 55.75 111.25 58.85 123.65 60.2 129.25 63.3 145.95 66.9 160.85 72.45 165.35 72.8 156.8 69.7 140.55 66.6 123.65 66.4 115.75 72.6 132.5 78.65 159.3 L88.6 203.45 Q90.3 210.15 92.45 223.0 95.4 233.7 103.6 238.8 108.55 241.85 117.3 243.0 L117.35 243.0 124.85 247.95 117.35 243.0 M11.35 -107.6 L12.25 -106.15 11.35 -107.6 M25.5 -59.85 Q26.85 -54.15 28.3 -49.1 26.85 -54.15 25.5 -59.85 M88.6 244.7 Q77.35 245.9 52.15 250.45 77.35 245.9 88.6 244.7 M-11.85 -177.0 L-8.6 -162.15 -7.25 -157.1 -8.6 -162.15 -11.85 -177.0" fill="#000000" fill-opacity="0.2" fill-rule="evenodd" stroke="none"/>
    <path d="M14.95 -102.65 L18.05 -99.6 18.95 -98.95 19.45 -98.6 20.7 -86.85 Q22.55 -72.6 25.5 -59.85 M-40.85 -231.45 Q-38.05 -211.6 -34.5 -192.25" fill="none" stroke="#000000" stroke-linecap="butt" stroke-linejoin="miter-clip" stroke-miterlimit="4.0" stroke-opacity="0.6" stroke-width="1.0"/>
    <path d="M25.9 -59.85 Q27.9 -60.2 30.0 -63.75 31.4 -83.3 35.6 -105.6 L41.15 -131.15 Q43.35 -141.55 42.55 -147.45 L36.95 -180.95 30.0 -204.65 10.45 -225.55 17.45 -215.2 Q24.6 -204.2 25.5 -201.7 27.2 -197.65 30.0 -183.7 L34.2 -160.0 16.05 -185.1 34.5 -144.8 Q35.9 -140.3 34.2 -137.7 32.5 -135.05 28.9 -123.6 L25.8 -112.55 14.95 -102.65 14.55 -103.1 13.85 -103.95 12.85 -105.3 12.25 -106.15 11.35 -107.6 Q3.85 -119.35 -3.6 -144.1 L-3.8 -144.85 -4.05 -145.65 -4.3 -146.5 -4.55 -147.35 -4.8 -148.25 -5.05 -149.1 -5.45 -150.55 -6.75 -155.15 -6.85 -155.5 -7.25 -157.0 -7.25 -157.1 -8.6 -162.15 -11.85 -177.0 -18.2 -205.4 Q-19.3 -217.95 -26.75 -232.7 -35.25 -249.15 -36.35 -253.95 -38.8 -250.05 -40.85 -247.9 -41.3 -254.1 -41.15 -257.2 -42.05 -252.7 -43.8 -248.2 -42.05 -241.05 -41.15 -234.7 L-40.85 -231.45 -46.9 -242.15 Q-49.5 -237.95 -53.25 -234.85 -53.55 -237.05 -55.7 -241.7 -57.55 -246.05 -57.9 -248.65 L-59.9 -246.05 Q-56.65 -241.7 -55.25 -237.65 -53.25 -232.4 -52.45 -223.55 -51.2 -211.95 -34.5 -192.25 -31.4 -175.65 -28.6 -163.55 -32.75 -166.2 -38.5 -168.2 -50.15 -172.4 -58.05 -169.75 -65.95 -167.15 -86.7 -174.4 L-106.1 -182.3 -119.25 -190.55 -138.8 -189.9 -122.85 -178.15 -96.65 -171.15 Q-68.4 -162.15 -58.05 -153.05 -46.9 -143.4 -43.3 -132.9 -41.15 -126.85 -41.15 -117.4 -41.15 -112.1 -32.75 -98.6 -28.6 -91.8 -24.4 -86.05 -37.4 -84.65 -57.4 -92.6 L-74.8 -100.65 Q-96.5 -102.35 -123.3 -116.75 -120.2 -112.1 -118.35 -107.6 -115.85 -101.55 -118.2 -100.95 -126.25 -98.8 -129.2 -106.55 -129.35 -103.75 -130.4 -100.15 L-125.0 -96.45 -112.15 -94.15 Q-96.95 -91.5 -85.15 -90.25 -73.4 -88.85 -66.7 -81.1 -63.3 -77.1 -62.2 -73.5 L-45.65 -68.85 Q-28.45 -63.6 -24.4 -60.95 -20.55 -58.3 -12.6 -37.4 -8.75 -26.85 -5.65 -16.95 L-53.85 -19.1 Q-61.75 -24.4 -78.35 -25.3 L-93.55 -25.3 -97.7 -12.75 -74.8 -14.9 Q-64.25 -17.55 -54.8 -12.3 -50.15 -9.65 -47.5 -6.55 L-27.05 -8.1 Q-5.2 -9.2 2.7 -6.55 10.65 -3.9 21.5 36.05 26.9 56.05 30.8 75.6 L32.5 102.9 Q34.05 133.25 34.05 148.9 34.05 159.75 36.35 185.5 38.2 206.75 37.15 215.85 35.75 226.4 20.55 237.9 12.95 243.6 5.65 247.2 L24.6 255.55 50.4 250.75 52.15 250.45 Q77.35 245.9 88.6 244.7 100.35 243.3 120.65 250.1 130.9 253.55 138.8 257.25 L124.85 247.95 117.35 243.0 116.7 242.55 107.35 236.35 105.45 224.6 Q100.9 196.7 96.35 165.95 90.0 123.65 90.45 121.0 87.95 97.6 73.1 42.9 L69.5 30.5 69.4 30.05 69.35 29.9 58.65 -7.0 Q39.35 -10.95 28.3 -49.1 26.85 -54.15 25.5 -59.85 L25.9 -59.85" fill="none" stroke="#000000" stroke-linecap="butt" stroke-linejoin="miter-clip" stroke-miterlimit="4.0" stroke-width="1.0"/>
  </g>
</svg>
