<?xml version="1.0" encoding="UTF-8" standalone="no"?>
<svg xmlns:xlink="http://www.w3.org/1999/xlink" height="149.6px" width="149.8px" xmlns="http://www.w3.org/2000/svg">
  <g transform="matrix(1.0, 0.0, 0.0, 1.0, 74.95, 259.9)">
    <path d="M-74.25 -185.0 L-0.05 -259.2 74.15 -185.0 -0.05 -110.95 -74.25 -185.0 Z" fill="none" stroke="#ffffff" stroke-linecap="butt" stroke-linejoin="miter-clip" stroke-miterlimit="4.0" stroke-opacity="0.0" stroke-width="1.0"/>
    <path d="M-46.15 -180.25 Q-41.55 -181.3 -41.55 -186.2 -41.45 -192.1 -46.05 -192.1 -50.8 -190.65 -50.8 -186.1 -50.55 -180.25 -46.15 -180.25 M-39.4 -178.55 L-39.95 -176.95 Q-42.95 -177.65 -45.5 -178.65 L-46.4 -178.75 Q-52.8 -179.0 -52.8 -186.0 -51.95 -193.65 -46.05 -193.65 -39.5 -192.7 -39.5 -186.35 -40.1 -180.7 -43.7 -179.35 L-39.4 -178.55 M-28.95 -193.45 L-27.1 -193.45 -27.1 -185.0 Q-27.8 -178.75 -32.55 -178.75 -37.7 -178.1 -37.7 -184.85 L-37.7 -193.45 -35.8 -193.45 -35.8 -184.85 Q-35.4 -180.25 -32.55 -180.25 -28.95 -179.95 -28.95 -184.85 L-28.95 -193.45 M-23.5 -193.45 L-21.6 -193.45 -21.6 -179.0 -23.5 -179.0 -23.5 -193.45 M-8.6 -193.0 L-9.1 -191.5 Q-10.1 -192.1 -12.0 -192.1 -17.65 -191.85 -17.65 -186.1 -17.35 -180.25 -12.1 -180.25 -10.05 -180.45 -9.1 -180.9 L-8.6 -179.45 Q-9.9 -178.9 -12.45 -178.9 -19.65 -178.8 -19.65 -186.1 -18.7 -193.65 -12.1 -193.65 L-8.6 -193.0 M0.5 -193.45 L2.9 -193.45 -2.3 -187.25 3.35 -179.0 1.1 -179.0 -3.65 -186.1 -5.0 -184.4 -5.0 -179.0 -6.9 -179.0 -6.9 -193.45 -5.0 -193.45 -5.0 -186.45 0.5 -193.45 M12.3 -193.0 L11.75 -191.4 Q11.1 -192.1 9.05 -192.1 6.35 -191.45 6.35 -189.95 6.3 -188.3 9.15 -187.1 12.9 -186.0 12.9 -182.95 12.9 -178.9 7.8 -178.9 5.3 -178.8 4.1 -179.7 L4.65 -181.25 Q6.1 -180.25 7.9 -180.25 10.95 -180.5 10.95 -182.7 11.2 -184.45 8.25 -185.65 4.45 -186.7 4.45 -189.7 4.95 -193.65 9.15 -193.65 L12.3 -193.0 M20.0 -189.15 L19.35 -191.75 19.25 -191.75 17.1 -185.0 21.5 -185.0 20.0 -189.15 M25.45 -179.0 L23.4 -179.0 21.8 -183.5 16.75 -183.5 15.15 -179.0 13.25 -179.0 18.2 -193.45 20.45 -193.45 25.45 -179.0 M37.7 -187.35 L37.7 -193.45 39.4 -193.45 39.4 -179.0 37.6 -179.0 33.0 -186.35 Q31.3 -188.85 30.25 -191.05 L30.15 -191.05 30.4 -185.1 30.4 -179.0 28.6 -179.0 28.6 -193.45 30.6 -193.45 35.25 -186.1 Q36.85 -183.6 37.8 -181.35 L37.95 -181.35 Q37.7 -183.95 37.7 -187.35 M46.85 -192.1 L44.7 -191.85 44.7 -180.45 46.5 -180.35 Q52.7 -180.5 52.7 -186.45 52.8 -192.1 46.85 -192.1 M52.6 -191.75 Q54.6 -189.9 54.6 -186.55 54.65 -182.9 52.6 -180.9 50.45 -178.9 46.15 -178.9 L42.8 -179.0 42.8 -193.2 46.7 -193.55 Q50.75 -193.4 52.6 -191.75" fill="#ffffff" fill-opacity="0.0" fill-rule="evenodd" stroke="none"/>
    <path d="M29.7 -151.05 L29.25 -148.8 14.6 -134.15 23.15 -134.15 -0.05 -110.95 -23.3 -134.15 -14.65 -134.15 -29.5 -149.05 -29.25 -151.05 -24.75 -148.5 Q-19.0 -145.55 -12.35 -144.1 8.75 -139.45 29.7 -151.05 M6.6 -153.45 Q6.6 -150.5 4.55 -148.5 2.55 -146.45 -0.4 -146.45 -3.2 -146.45 -5.25 -148.5 -7.25 -150.5 -7.25 -153.45 -7.25 -156.25 -5.25 -158.3 -3.2 -160.3 -0.4 -160.3 2.4 -160.3 4.55 -158.3 6.6 -156.25 6.6 -153.45" fill="#ffffff" fill-opacity="0.0" fill-rule="evenodd" stroke="none"/>
  </g>
</svg>
