<?xml version="1.0" encoding="UTF-8" standalone="no"?>
<svg xmlns:xlink="http://www.w3.org/1999/xlink" height="256.2px" width="338.05px" xmlns="http://www.w3.org/2000/svg">
  <g transform="matrix(1.0, 0.0, 0.0, 1.0, 168.25, 257.8)">
    <path d="M130.7 -143.55 Q76.8 -48.35 0.15 -2.15 -27.5 -18.25 -62.15 -55.25 -131.8 -128.85 -167.65 -232.7 -154.35 -236.65 -141.05 -240.75 -106.95 -249.5 -68.8 -253.7 53.35 -267.35 169.2 -229.55 157.65 -191.15 130.7 -143.55" fill="#ffffff" fill-opacity="0.0" fill-rule="evenodd" stroke="none"/>
    <path d="M130.7 -143.55 Q76.8 -48.35 0.15 -2.15 -27.5 -18.25 -62.15 -55.25 -131.8 -128.85 -167.65 -232.7 -154.35 -236.65 -141.05 -240.75 -106.95 -249.5 -68.8 -253.7 53.35 -267.35 169.2 -229.55 157.65 -191.15 130.7 -143.55 Z" fill="none" stroke="#000000" stroke-linecap="butt" stroke-linejoin="miter-clip" stroke-miterlimit="4.0" stroke-opacity="0.6" stroke-width="1.0"/>
  </g>
</svg>
