<?xml version="1.0" encoding="UTF-8" standalone="no"?>
<svg xmlns:xlink="http://www.w3.org/1999/xlink" height="280.55px" width="1474.5px" xmlns="http://www.w3.org/2000/svg">
  <g transform="matrix(1.0, 0.0, 0.0, 1.0, 737.25, 141.25)">
    <path d="M280.55 -139.15 L271.25 -138.8 550.9 136.65 560.55 136.5 280.55 -139.15 M211.25 -140.75 L494.05 138.7 -475.45 138.7 -192.65 -140.75 211.25 -140.75 M736.75 -140.7 L736.75 138.75 550.2 138.75 267.4 -140.7 736.75 -140.7 M-182.85 -139.2 L-193.35 -138.5 -469.85 136.8 -461.65 136.8 -182.85 -139.2 M-248.85 -140.7 L-531.65 138.8 -736.75 138.8 -736.75 -140.7 -248.85 -140.7" fill="#ffffff" fill-opacity="0.0" fill-rule="evenodd" stroke="none"/>
    <path d="M280.55 -139.15 L560.55 136.5 550.9 136.65 271.25 -138.8 280.55 -139.15 M-182.85 -139.2 L-461.65 136.8 -469.85 136.8 -193.35 -138.5 -182.85 -139.2" fill="#000000" fill-opacity="0.14901961" fill-rule="evenodd" stroke="none"/>
    <path d="M736.75 -140.7 L267.4 -140.7 550.2 138.75 736.75 138.75 736.75 -140.7 M211.25 -140.75 L-192.65 -140.75 -475.45 138.7 494.05 138.7 211.25 -140.75 M-248.85 -140.7 L-736.75 -140.7 -736.75 138.8 -531.65 138.8 -248.85 -140.7" fill="none" stroke="#000000" stroke-linecap="butt" stroke-linejoin="miter-clip" stroke-miterlimit="4.0" stroke-width="1.0"/>
    <path d="M114.45 -118.85 L114.65 -117.05 Q114.65 -114.45 112.9 -112.5 111.15 -110.6 108.7 -110.6 L-100.6 -110.6 Q-103.05 -110.6 -104.8 -112.5 -106.55 -114.45 -106.55 -117.05 L-106.35 -118.85 Q-105.95 -120.45 -104.8 -121.6 -103.05 -123.55 -100.6 -123.55 L108.7 -123.55 Q111.15 -123.55 112.9 -121.6 114.05 -120.45 114.45 -118.85 M164.5 -72.75 L164.7 -71.05 Q164.7 -68.25 162.95 -66.5 161.2 -64.55 158.75 -64.55 L-150.65 -64.55 Q-153.1 -64.55 -154.85 -66.5 -156.6 -68.25 -156.6 -71.05 L-156.4 -72.75 Q-156.0 -74.3 -154.85 -75.6 -153.1 -77.5 -150.65 -77.5 L158.75 -77.5 Q161.2 -77.5 162.95 -75.6 164.1 -74.3 164.5 -72.75 M214.55 -26.6 L214.75 -24.85 Q214.75 -22.2 213.0 -20.3 211.25 -18.35 208.8 -18.35 L-200.7 -18.35 Q-203.15 -18.35 -204.9 -20.3 -206.65 -22.2 -206.65 -24.85 L-206.45 -26.6 Q-206.05 -28.25 -204.9 -29.4 -203.15 -31.3 -200.7 -31.3 L208.8 -31.3 Q211.25 -31.3 213.0 -29.4 214.15 -28.25 214.55 -26.6 M264.6 19.5 L264.8 21.2 Q264.8 24.0 263.05 25.75 261.3 27.65 258.85 27.65 L-250.75 27.65 Q-253.2 27.65 -254.95 25.75 -256.7 24.0 -256.7 21.2 L-256.5 19.5 Q-256.1 17.9 -254.95 16.65 -253.2 14.7 -250.75 14.7 L258.85 14.7 Q261.3 14.7 263.05 16.65 264.2 17.9 264.6 19.5 M304.15 65.65 L304.35 67.4 Q304.35 70.0 302.6 71.95 300.85 73.85 298.4 73.85 L-295.55 73.85 Q-298.0 73.85 -299.75 71.95 -301.5 70.0 -301.5 67.4 L-301.25 65.65 Q-300.9 64.1 -299.75 62.85 -298.0 60.9 -295.55 60.9 L298.4 60.9 Q300.85 60.9 302.6 62.85 303.75 64.1 304.15 65.65 M346.15 111.8 L346.35 113.6 Q346.35 116.2 344.6 118.15 342.85 120.05 340.4 120.05 L-337.75 120.05 Q-340.2 120.05 -341.95 118.15 -343.7 116.2 -343.7 113.6 L-343.5 111.8 Q-343.1 110.15 -341.95 108.85 -340.2 106.95 -337.75 106.95 L340.4 106.95 Q342.85 106.95 344.6 108.85 345.75 110.15 346.15 111.8" fill="#000000" fill-opacity="0.14901961" fill-rule="evenodd" stroke="none"/>
    <path d="M-106.35 -118.85 L-106.55 -120.55 Q-106.55 -123.35 -104.8 -125.1 -103.05 -127.05 -100.6 -127.05 L108.7 -127.05 Q111.15 -127.05 112.9 -125.1 114.65 -123.35 114.65 -120.55 L114.45 -118.85 Q114.05 -120.45 112.9 -121.6 111.15 -123.55 108.7 -123.55 L-100.6 -123.55 Q-103.05 -123.55 -104.8 -121.6 -105.95 -120.45 -106.35 -118.85 M200.9 -137.2 L211.4 -136.5 487.9 138.8 479.5 138.8 200.9 -137.2 M-156.4 -72.75 L-156.6 -74.55 Q-156.6 -77.15 -154.85 -79.1 -153.1 -81.0 -150.65 -81.0 L158.75 -81.0 Q161.2 -81.0 162.95 -79.1 164.7 -77.15 164.7 -74.55 L164.5 -72.75 Q164.1 -74.3 162.95 -75.6 161.2 -77.5 158.75 -77.5 L-150.65 -77.5 Q-153.1 -77.5 -154.85 -75.6 -156.0 -74.3 -156.4 -72.75 M-206.45 -26.6 L-206.65 -28.35 Q-206.65 -31.15 -204.9 -32.9 -203.15 -34.8 -200.7 -34.8 L208.8 -34.8 Q211.25 -34.8 213.0 -32.9 214.75 -31.15 214.75 -28.35 L214.55 -26.6 Q214.15 -28.25 213.0 -29.4 211.25 -31.3 208.8 -31.3 L-200.7 -31.3 Q-203.15 -31.3 -204.9 -29.4 -206.05 -28.25 -206.45 -26.6 M-254.1 -138.95 L-532.85 137.05 -541.1 137.05 -264.6 -138.25 -254.1 -138.95 M-256.5 19.5 L-256.7 17.7 Q-256.7 15.05 -254.95 13.15 -253.2 11.2 -250.75 11.2 L258.85 11.2 Q261.3 11.2 263.05 13.15 264.8 15.05 264.8 17.7 L264.6 19.5 Q264.2 17.9 263.05 16.65 261.3 14.7 258.85 14.7 L-250.75 14.7 Q-253.2 14.7 -254.95 16.65 -256.1 17.9 -256.5 19.5 M-301.25 65.65 L-301.5 63.9 Q-301.5 61.25 -299.75 59.35 -298.0 57.4 -295.55 57.4 L298.4 57.4 Q300.85 57.4 302.6 59.35 304.35 61.25 304.35 63.9 L304.15 65.65 Q303.75 64.1 302.6 62.85 300.85 60.9 298.4 60.9 L-295.55 60.9 Q-298.0 60.9 -299.75 62.85 -300.9 64.1 -301.25 65.65 M-343.5 111.8 L-343.7 110.1 Q-343.7 107.3 -341.95 105.35 -340.2 103.45 -337.75 103.45 L340.4 103.45 Q342.85 103.45 344.6 105.35 346.35 107.3 346.35 110.1 L346.15 111.8 Q345.75 110.15 344.6 108.85 342.85 106.95 340.4 106.95 L-337.75 106.95 Q-340.2 106.95 -341.95 108.85 -343.1 110.15 -343.5 111.8" fill="#ffffff" fill-opacity="0.49803922" fill-rule="evenodd" stroke="none"/>
  </g>
</svg>
