<?xml version="1.0" encoding="UTF-8" standalone="no"?>
<svg xmlns:xlink="http://www.w3.org/1999/xlink" height="218.6px" width="37.55px" xmlns="http://www.w3.org/2000/svg">
  <g transform="matrix(1.0, 0.0, 0.0, 1.0, 18.75, 109.55)">
    <path d="M-12.85 -100.55 Q-13.0 -108.95 -10.65 -108.45 -9.4 -108.15 -8.2 -106.25 3.45 -38.15 7.2 -7.3 9.3 9.95 13.0 49.05 16.4 84.95 18.25 108.5 6.35 103.75 0.3 101.65 -9.75 98.25 -18.25 96.85 L-12.85 -100.55" fill="#ffffff" fill-opacity="0.0" fill-rule="evenodd" stroke="none"/>
    <path d="M-12.85 -100.55 L-18.25 96.85 Q-9.75 98.25 0.3 101.65 6.35 103.75 18.25 108.5 16.4 84.95 13.0 49.05 9.3 9.95 7.2 -7.3 3.45 -38.15 -8.2 -106.25 -9.4 -108.15 -10.65 -108.45 -13.0 -108.95 -12.85 -100.55 Z" fill="none" stroke="#000000" stroke-linecap="butt" stroke-linejoin="miter-clip" stroke-miterlimit="4.0" stroke-width="1.0"/>
  </g>
</svg>
