<?xml version="1.0" encoding="UTF-8" standalone="no"?>
<svg xmlns:xlink="http://www.w3.org/1999/xlink" height="422.6px" width="281.6px" xmlns="http://www.w3.org/2000/svg">
  <g transform="matrix(1.0, 0.0, 0.0, 1.0, 149.1, 211.3)">
    <path d="M84.5 -203.7 L90.7 -203.7 96.3 -206.8 Q103.5 -210.0 111.2 -210.6 103.45 -211.15 96.0 -209.0 L96.85 -209.25 98.5 -209.7 Q115.7 -213.6 132.0 -203.7 L132.0 -146.8 131.4 -146.8 Q128.0 -149.6 120.7 -151.0 106.0 -153.8 86.6 -146.8 106.0 -153.8 120.7 -151.0 128.0 -149.6 131.4 -146.8 L131.4 -88.4 86.6 -88.4 86.6 -146.8 42.5 -146.8 Q36.2 -147.3 29.8 -144.7 17.0 -139.6 16.4 -124.5 L16.4 -2.3 -53.8 -2.3 -53.8 -70.4 Q-54.3 -75.7 -57.4 -81.2 -63.7 -92.2 -77.1 -92.8 L-83.4 -92.8 -140.5 -92.8 -140.5 -161.8 -82.9 -161.7 Q-78.8 -161.8 -75.0 -163.0 L-74.65 -163.1 -68.3 -166.05 -67.7 -166.45 -69.0 -165.6 Q-74.2 -162.4 -80.9 -161.8 L-76.6 -161.7 Q-72.5 -161.8 -68.7 -163.0 -56.6 -166.7 -52.0 -179.5 L-42.3 -190.9 Q-29.9 -202.6 -16.5 -203.7 L84.5 -203.7 M91.6 -207.4 L87.65 -205.35 90.75 -207.05 91.65 -207.45 91.6 -207.4 90.75 -207.05 91.6 -207.4 M98.8 -204.6 L92.6 -204.6 92.6 -154.9 98.8 -154.9 98.8 -204.6 M86.6 146.9 L86.6 88.4 131.4 88.4 131.4 146.9 132.0 146.9 132.0 203.7 Q115.7 213.6 98.5 209.7 L97.85 209.55 Q104.4 211.15 111.2 210.6 103.5 210.0 96.3 206.8 L92.7 204.8 95.7 204.8 95.7 155.1 90.7 155.1 90.7 203.7 84.5 203.7 -16.5 203.7 Q-29.9 202.6 -42.3 190.9 L-52.0 179.5 Q-56.6 166.7 -68.7 163.0 -72.5 161.8 -76.6 161.7 L-80.9 161.8 Q-74.2 162.4 -69.0 165.6 L-67.7 166.5 Q-68.1 166.2 -68.45 166.0 -71.2 164.2 -74.5 163.2 L-74.65 163.15 -74.85 163.05 -75.0 163.0 Q-78.8 161.8 -82.9 161.7 L-140.5 161.8 -140.5 92.8 -83.4 92.8 -77.1 92.8 Q-63.7 92.2 -57.4 81.2 -54.3 75.8 -53.8 70.4 L-53.8 2.3 16.4 2.3 16.4 124.5 Q17.0 139.6 29.8 144.8 36.2 147.4 42.5 146.9 L86.6 146.9 Q106.0 153.8 120.7 151.1 128.0 149.7 131.4 146.9 128.0 149.7 120.7 151.1 106.0 153.8 86.6 146.9 M91.65 207.5 L90.75 207.1 88.3 205.9 84.5 203.7 91.6 207.45 91.65 207.5 M90.75 207.1 L91.6 207.45 90.75 207.1 M-114.1 -34.3 L-114.1 38.4 -148.6 38.4 -148.6 -34.3 -114.1 -34.3" fill="#ffffff" fill-opacity="0.29803923" fill-rule="evenodd" stroke="none"/>
    <path d="M96.0 -209.0 Q103.45 -211.15 111.2 -210.6 103.5 -210.0 96.3 -206.8 L90.7 -203.7 84.5 -203.7 87.65 -205.35 91.6 -207.4 93.15 -208.05 91.6 -207.4 91.65 -207.45 91.9 -207.6 93.15 -208.05 96.0 -209.0 M-16.5 -203.7 Q-29.9 -202.6 -42.3 -190.9 L-52.0 -179.5 Q-56.6 -166.7 -68.7 -163.0 -72.5 -161.8 -76.6 -161.7 L-80.9 -161.8 Q-74.2 -162.4 -69.0 -165.6 L-67.7 -166.45 -67.45 -166.65 -66.6 -167.3 -66.45 -167.4 -65.9 -167.85 -59.35 -176.7 -58.75 -178.0 -58.3 -179.15 -58.2 -179.5 -48.5 -190.9 Q-36.2 -202.6 -22.8 -203.7 L-16.5 -203.7 M-140.5 -161.8 L-140.5 -92.8 -146.8 -92.8 -146.8 -161.8 -140.5 -161.8 M-83.4 -92.8 L-77.1 -92.8 Q-63.7 -92.2 -57.4 -81.2 -54.3 -75.7 -53.8 -70.4 L-53.8 -2.3 -60.1 -2.3 -60.1 -70.4 Q-60.5 -75.7 -63.7 -81.2 -70.0 -92.2 -83.4 -92.8 M98.8 -204.6 L98.8 -154.9 92.6 -154.9 92.6 -204.6 98.8 -204.6 M97.85 209.55 L97.1 209.35 95.9 209.0 94.55 208.55 93.2 208.1 91.9 207.6 91.65 207.5 91.6 207.45 84.5 203.7 90.7 203.7 90.7 155.1 95.7 155.1 95.7 204.8 92.7 204.8 96.3 206.8 Q103.5 210.0 111.2 210.6 104.4 211.15 97.85 209.55 M-16.5 203.7 L-22.8 203.7 Q-36.2 202.6 -48.5 190.9 L-58.2 179.5 Q-60.95 171.8 -66.45 167.45 L-67.05 166.95 -67.7 166.5 -69.0 165.6 Q-74.2 162.4 -80.9 161.8 L-76.6 161.7 Q-72.5 161.8 -68.7 163.0 -56.6 166.7 -52.0 179.5 L-42.3 190.9 Q-29.9 202.6 -16.5 203.7 M-140.5 161.8 L-146.8 161.8 -146.8 92.8 -140.5 92.8 -140.5 161.8 M-83.4 92.8 Q-70.0 92.2 -63.7 81.2 -60.5 75.8 -60.1 70.4 L-60.1 2.3 -53.8 2.3 -53.8 70.4 Q-54.3 75.8 -57.4 81.2 -63.7 92.2 -77.1 92.8 L-83.4 92.8 M94.55 208.55 L91.6 207.45 94.55 208.55" fill="#ffffff" fill-rule="evenodd" stroke="none"/>
    <path d="M93.15 -208.05 L91.6 -207.4 90.75 -207.05 87.65 -205.35 84.5 -203.7 -16.5 -203.7 -22.8 -203.7 Q-36.2 -202.6 -48.5 -190.9 L-58.2 -179.5 -58.3 -179.15 -58.75 -178.0 -59.35 -176.7 -65.9 -167.85 -66.6 -167.3 -67.45 -166.65 -68.3 -166.05 -74.65 -163.1 -75.0 -163.0 Q-78.8 -161.8 -82.9 -161.7 L-140.5 -161.8 -146.8 -161.8 -146.8 -92.8 -140.5 -92.8 -83.4 -92.8 Q-70.0 -92.2 -63.7 -81.2 -60.5 -75.7 -60.1 -70.4 L-60.1 -2.3 -53.8 -2.3 16.4 -2.3 16.4 -124.5 Q17.0 -139.6 29.8 -144.7 36.2 -147.3 42.5 -146.8 L86.6 -146.8 86.6 -88.4 131.4 -88.4 131.4 -146.8 132.0 -146.8 132.0 -203.7 Q115.7 -213.6 98.5 -209.7 L96.85 -209.25 93.15 -208.05 M86.6 146.9 L86.6 88.4 131.4 88.4 131.4 146.9 M-114.1 -34.3 L-114.1 38.4 -148.6 38.4 -148.6 -34.3 -114.1 -34.3" fill="none" stroke="#000000" stroke-linecap="butt" stroke-linejoin="miter-clip" stroke-miterlimit="4.0" stroke-width="1.0"/>
    <path d="M131.4 146.9 L132.0 146.9 132.0 203.7 Q115.7 213.6 98.5 209.7 L97.85 209.55 97.1 209.35 95.9 209.0 94.55 208.55 91.6 207.45 90.75 207.1 88.3 205.9 84.5 203.7 -16.5 203.7 -22.8 203.7 Q-36.2 202.6 -48.5 190.9 L-58.2 179.5 Q-60.95 171.8 -66.45 167.45 L-67.05 166.95 -68.45 166.0 Q-71.2 164.2 -74.5 163.2 L-74.65 163.15 -74.85 163.05 -75.0 163.0 Q-78.8 161.8 -82.9 161.7 L-140.5 161.8 -146.8 161.8 -146.8 92.8 -140.5 92.8 -83.4 92.8 Q-70.0 92.2 -63.7 81.2 -60.5 75.8 -60.1 70.4 L-60.1 2.3 -53.8 2.3 16.4 2.3 16.4 124.5 Q17.0 139.6 29.8 144.8 36.2 147.4 42.5 146.9 L86.6 146.9" fill="none" stroke="#000000" stroke-linecap="butt" stroke-linejoin="miter-clip" stroke-miterlimit="10.0" stroke-width="1.0"/>
    <path d="M86.6 -146.8 Q106.0 -153.8 120.7 -151.0 128.0 -149.6 131.4 -146.8 M86.6 146.9 Q106.0 153.8 120.7 151.1 128.0 149.7 131.4 146.9" fill="none" stroke="#000000" stroke-linecap="butt" stroke-linejoin="miter-clip" stroke-miterlimit="4.0" stroke-opacity="0.6" stroke-width="1.0"/>
  </g>
</svg>
