<?xml version="1.0" encoding="UTF-8" standalone="no"?>
<svg xmlns:xlink="http://www.w3.org/1999/xlink" height="166.75px" width="341.1px" xmlns="http://www.w3.org/2000/svg">
  <g transform="matrix(1.0, 0.0, 0.0, 1.0, 0.5, 0.5)">
    <path d="M336.75 6.2 Q338.65 10.3 339.45 14.35 L197.7 14.35 197.95 22.45 198.15 28.35 197.95 22.45 340.1 22.45 339.6 28.35 198.15 28.35 198.35 33.25 198.65 42.45 198.35 33.25 338.85 33.25 338.8 33.5 337.15 40.65 294.4 41.35 293.85 41.65 293.85 39.2 259.8 39.2 259.8 42.45 198.65 42.45 198.85 49.2 198.85 60.25 197.65 62.45 194.2 68.45 Q192.9 70.6 192.7 84.9 192.6 92.05 192.75 98.75 L171.4 98.7 Q170.1 98.95 168.3 99.65 164.8 101.05 162.5 103.35 160.2 105.65 159.0 108.65 L158.25 111.2 158.95 117.0 Q159.2 124.05 156.65 130.1 148.6 149.5 116.2 152.05 89.9 154.1 79.95 139.1 76.8 134.4 75.7 128.55 L75.2 123.65 Q74.95 120.0 72.6 116.1 67.95 108.3 57.75 106.9 47.4 105.5 39.15 112.5 36.45 114.8 33.7 118.25 L30.3 122.6 Q27.55 125.75 21.7 146.05 18.75 156.2 16.35 165.75 L0.0 133.3 5.0 77.7 8.2 50.6 22.55 47.3 Q38.95 42.5 49.2 34.95 65.6 22.85 80.2 4.3 L183.2 3.55 185.0 5.25 Q187.3 7.05 189.6 7.5 L197.45 8.2 197.5 8.2 295.95 6.2 336.75 6.2 M197.5 8.2 L197.7 14.35 197.5 8.2 M197.65 14.9 L166.3 14.9 166.3 34.85 197.65 34.85 197.65 14.9 M145.55 133.8 Q151.9 126.45 152.65 118.6 152.3 110.95 146.7 104.5 135.5 91.55 109.15 97.4 90.6 101.55 84.2 114.2 82.2 118.2 81.65 122.5 81.4 124.7 81.5 126.05 81.2 126.35 81.4 128.9 81.65 132.25 83.25 135.15 88.35 144.45 104.8 145.9 132.8 148.45 145.55 133.8" fill="#ffffff" fill-opacity="0.0" fill-rule="evenodd" stroke="none"/>
    <path d="M293.85 41.65 L287.6 44.9 284.4 52.4 261.25 52.4 260.5 48.85 259.8 48.85 259.8 42.45 259.8 39.2 293.85 39.2 293.85 41.65" fill="#000000" fill-opacity="0.047058824" fill-rule="evenodd" stroke="none"/>
    <path d="M295.95 6.2 L303.3 6.05 327.5 0.0 333.2 0.0 Q334.75 2.05 336.35 5.4 L336.75 6.2 295.95 6.2" fill="#ffffff" fill-opacity="0.047058824" fill-rule="evenodd" stroke="none"/>
    <path d="M259.8 48.85 L198.85 49.2 198.65 42.45 259.8 42.45 259.8 48.85" fill="#000000" fill-opacity="0.09803922" fill-rule="evenodd" stroke="none"/>
    <path d="M339.45 14.35 L340.0 18.55 340.1 22.45 197.95 22.45 197.7 14.35 339.45 14.35" fill="#ffffff" fill-opacity="0.2" fill-rule="evenodd" stroke="none"/>
    <path d="M339.6 28.35 L338.85 33.25 198.35 33.25 198.15 28.35 339.6 28.35" fill="#ffffff" fill-opacity="0.09803922" fill-rule="evenodd" stroke="none"/>
    <path d="M197.65 14.9 L197.65 34.85 166.3 34.85 166.3 14.9 197.65 14.9" fill="#ffffff" fill-opacity="0.14901961" fill-rule="evenodd" stroke="none"/>
    <path d="M295.95 6.2 L336.75 6.2 M259.8 42.45 L259.8 39.2 293.85 39.2 293.85 41.65 M259.8 42.45 L259.8 48.85 M197.95 22.45 L197.7 14.35 197.5 8.2 M198.85 49.2 L198.65 42.45 198.35 33.25 198.15 28.35 197.95 22.45 M198.65 42.45 L259.8 42.45 M145.55 133.8 Q132.8 148.45 104.8 145.9 88.35 144.45 83.25 135.15 81.65 132.25 81.4 128.9 81.2 126.35 81.5 126.05 81.4 124.7 81.65 122.5 82.2 118.2 84.2 114.2 90.6 101.55 109.15 97.4 135.5 91.55 146.7 104.5 152.3 110.95 152.65 118.6 151.9 126.45 145.55 133.8" fill="none" stroke="#000000" stroke-linecap="round" stroke-linejoin="round" stroke-opacity="0.4" stroke-width="1.0"/>
    <path d="M295.95 6.2 L303.3 6.05 327.5 0.0 333.2 0.0 Q334.75 2.05 336.35 5.4 L336.75 6.2 Q338.65 10.3 339.45 14.35 L340.0 18.55 340.1 22.45 339.6 28.35 338.85 33.25 338.8 33.5 337.15 40.65 294.4 41.35 293.85 41.65 287.6 44.9 284.4 52.4 261.25 52.4 260.5 48.85 259.8 48.85 198.85 49.2 198.85 60.25 197.65 62.45 194.2 68.45 Q192.9 70.6 192.7 84.9 192.6 92.05 192.75 98.75 L171.4 98.7 Q170.1 98.95 168.3 99.65 164.8 101.05 162.5 103.35 160.2 105.65 159.0 108.65 L158.25 111.2 158.95 117.0 Q159.2 124.05 156.65 130.1 148.6 149.5 116.2 152.05 89.9 154.1 79.95 139.1 76.8 134.4 75.7 128.55 L75.2 123.65 Q74.95 120.0 72.6 116.1 67.95 108.3 57.75 106.9 47.4 105.5 39.15 112.5 36.45 114.8 33.7 118.25 L30.3 122.6 Q27.55 125.75 21.7 146.05 18.75 156.2 16.35 165.75 L0.0 133.3 5.0 77.7 8.2 50.6 22.55 47.3 Q38.95 42.5 49.2 34.95 65.6 22.85 80.2 4.3 L183.2 3.55 185.0 5.25 Q187.3 7.05 189.6 7.5 L197.45 8.2 197.5 8.2 295.95 6.2 Z" fill="none" stroke="#000000" stroke-linecap="round" stroke-linejoin="round" stroke-width="1.0"/>
  </g>
</svg>
