<?xml version="1.0" encoding="UTF-8" standalone="no"?>
<svg xmlns:xlink="http://www.w3.org/1999/xlink" height="472.25px" width="317.6px" xmlns="http://www.w3.org/2000/svg">
  <g transform="matrix(1.0, 0.0, 0.0, 1.0, 160.85, 236.15)">
    <path d="M138.9 -104.95 Q153.45 -80.25 156.25 -63.45 L156.25 235.6 -2.15 233.35 -160.35 235.6 -160.35 -63.45 Q-159.65 -67.65 -157.2 -75.0 -152.1 -89.55 -143.0 -104.95 -114.15 -154.45 -55.7 -194.35 -21.2 -217.65 -4.6 -233.05 L-3.7 -234.6 Q-2.65 -236.0 -2.15 -235.5 -1.1 -236.35 0.5 -233.05 16.95 -217.8 51.4 -194.35 109.85 -154.45 138.9 -104.95" fill="#ffffff" fill-opacity="0.0" fill-rule="evenodd" stroke="none"/>
    <path d="M138.9 -104.95 Q109.85 -154.45 51.4 -194.35 16.95 -217.8 0.5 -233.05 -1.1 -236.35 -2.15 -235.5 -2.65 -236.0 -3.7 -234.6 L-4.6 -233.05 Q-21.2 -217.65 -55.7 -194.35 -114.15 -154.45 -143.0 -104.95 -152.1 -89.55 -157.2 -75.0 -159.65 -67.65 -160.35 -63.45 L-160.35 235.6 -2.15 233.35 156.25 235.6 156.25 -63.45 Q153.45 -80.25 138.9 -104.95 Z" fill="none" stroke="#000000" stroke-linecap="butt" stroke-linejoin="miter-clip" stroke-miterlimit="4.0" stroke-width="1.0"/>
    <path d="M-4.6 -233.05 L-3.7 -234.6 Q-2.65 -236.0 -2.15 -235.5 -1.1 -236.35 0.5 -233.05 L2.95 -230.75 1.9 -229.35 Q-13.0 -215.0 -49.05 -190.5 -107.5 -150.8 -136.35 -101.25 -145.45 -85.7 -150.55 -71.15 -153.0 -63.8 -153.7 -59.6 L-153.7 235.6 -160.35 235.6 -160.35 -63.45 Q-159.65 -67.65 -157.2 -75.0 -152.1 -89.55 -143.0 -104.95 -114.15 -154.45 -55.7 -194.35 -21.2 -217.65 -4.6 -233.05" fill="#ffffff" fill-opacity="0.69803923" fill-rule="evenodd" stroke="none"/>
  </g>
</svg>
