<?xml version="1.0" encoding="UTF-8" standalone="no"?>
<svg xmlns:xlink="http://www.w3.org/1999/xlink" height="61.7px" width="86.3px" xmlns="http://www.w3.org/2000/svg">
  <g transform="matrix(1.0, 0.0, 0.0, 1.0, 42.9, 30.75)">
    <path d="M13.65 5.35 Q13.05 2.65 12.2 1.1 10.45 -2.05 4.55 -2.9 L1.5 -5.5 2.45 -6.55 2.35 -7.4 Q6.5 -7.3 10.55 -5.5 14.85 -3.6 17.1 -0.65 18.25 0.9 18.95 3.7 20.05 8.35 19.9 16.4 20.05 8.35 18.95 3.7 18.25 0.9 17.1 -0.65 21.85 -8.7 22.65 -8.3 L24.75 -7.4 25.1 -7.25 Q30.55 -4.75 31.9 -2.9 25.65 9.65 22.5 14.35 L20.05 16.65 19.9 16.4 14.2 8.55 13.7 5.5 13.65 5.35 M24.7 -5.5 L23.8 -3.7 Q29.8 -0.8 30.35 -1.85 L24.7 -5.5 M18.95 3.7 Q22.4 -1.65 25.1 -7.25 22.4 -1.65 18.95 3.7 M23.55 18.0 L21.4 18.55 20.2 16.85 Q24.55 13.75 29.4 12.6 36.4 10.95 42.9 14.1 L42.9 14.45 41.3 15.4 Q35.1 13.8 28.7 15.75 L23.55 18.0 Q29.25 16.2 35.2 16.65 38.6 16.85 41.3 17.7 L41.3 19.05 28.35 27.4 Q28.95 26.65 29.1 25.0 L23.55 18.0 M-20.35 -21.05 L-20.05 -18.75 Q-19.9 -17.0 -21.85 -13.6 -23.7 -10.25 -24.4 -10.55 -25.25 -10.9 -26.3 -30.1 -23.85 -31.1 -21.8 -25.9 L-20.85 -23.15 -20.9 -23.15 -20.4 -21.05 -20.35 -21.05 M-22.05 -1.1 Q-19.85 0.85 -19.85 5.75 -18.6 3.8 -18.55 1.85 -18.4 -2.1 -24.3 -2.1 L-22.05 -1.1 M-29.25 2.75 L-29.3 2.15 -28.6 -1.3 Q-26.2 -4.15 -19.85 -5.65 L-13.95 -6.55 -13.85 -6.55 -13.6 -4.45 Q-14.15 -0.75 -9.8 0.8 -9.95 2.55 -10.45 3.9 -14.15 6.75 -20.2 7.9 L-25.45 8.45 -26.4 7.9 -22.3 5.65 Q-22.2 4.8 -22.6 3.75 -23.4 1.75 -25.8 1.1 L-27.5 1.95 -29.25 2.75 M-31.45 30.25 L-32.75 26.55 Q-28.85 25.05 -22.05 23.95 L-16.05 23.1 -16.55 27.4 Q-23.7 28.35 -31.45 30.25" fill="#ffffff" fill-opacity="0.0" fill-rule="evenodd" stroke="none"/>
    <path d="M24.7 -5.5 L30.35 -1.85 Q29.8 -0.8 23.8 -3.7 L24.7 -5.5 M23.55 18.0 L28.7 15.75 Q35.1 13.8 41.3 15.4 L41.3 17.7 Q38.6 16.85 35.2 16.65 29.25 16.2 23.55 18.0 M-22.05 -1.1 L-24.3 -2.1 Q-18.4 -2.1 -18.55 1.85 -18.6 3.8 -19.85 5.75 -19.85 0.85 -22.05 -1.1" fill="#ffffff" fill-opacity="0.49803922" fill-rule="evenodd" stroke="none"/>
    <path d="M-20.35 -21.05 L-20.4 -21.05 -20.9 -23.15 -20.85 -23.15 Q-13.7 -23.15 -12.4 -22.0 -11.35 -21.15 -7.9 -16.0 L-9.65 -14.85 Q-12.75 -19.55 -13.75 -20.4 L-20.35 -21.05 M-29.25 2.75 L-27.5 1.95 -25.8 1.1 Q-23.4 1.75 -22.6 3.75 -22.2 4.8 -22.3 5.65 L-26.4 7.9 -40.1 15.4 Q-42.45 14.95 -42.9 12.0 L-42.85 9.15 -29.25 2.75" fill="#000000" fill-rule="evenodd" stroke="none"/>
    <path d="M13.65 5.35 L13.7 5.5 14.2 8.55 13.0 6.9 13.65 5.35" fill="#cdcfd0" fill-rule="evenodd" stroke="none"/>
    <path d="M17.1 -0.65 Q14.85 -3.6 10.55 -5.5 6.5 -7.3 2.35 -7.4 L2.45 -6.55 1.5 -5.5 4.55 -2.9 Q10.45 -2.05 12.2 1.1 13.05 2.65 13.65 5.35 L13.0 6.9 14.2 8.55 19.9 16.4 20.05 16.65 22.5 14.35 Q25.65 9.65 31.9 -2.9 30.55 -4.75 25.1 -7.25 L24.75 -7.4 22.65 -8.3 Q21.85 -8.7 17.1 -0.65 M41.3 15.4 L42.9 14.45 42.9 14.1 Q36.4 10.95 29.4 12.6 24.55 13.75 20.2 16.85 L21.4 18.55 23.55 18.0 29.1 25.0 Q28.95 26.65 28.35 27.4 L41.3 19.05 41.3 17.7 41.3 15.4 M-20.85 -23.15 L-21.8 -25.9 Q-23.85 -31.1 -26.3 -30.1 -25.25 -10.9 -24.4 -10.55 -23.7 -10.25 -21.85 -13.6 -19.9 -17.0 -20.05 -18.75 L-20.35 -21.05 M-26.4 7.9 L-25.45 8.45 -20.2 7.9 Q-14.15 6.75 -10.45 3.9 -9.95 2.55 -9.8 0.8 -14.15 -0.75 -13.6 -4.45 L-13.85 -6.55 -13.95 -6.55 -19.85 -5.65 Q-26.2 -4.15 -28.6 -1.3 L-29.3 2.15 -29.25 2.75 -27.5 1.95 -25.8 1.1 Q-23.4 1.75 -22.6 3.75 -22.2 4.8 -22.3 5.65 L-26.4 7.9 M-31.45 30.25 Q-23.7 28.35 -16.55 27.4 L-16.05 23.1 -22.05 23.95 Q-28.85 25.05 -32.75 26.55 L-31.45 30.25" fill="none" stroke="#000000" stroke-linecap="butt" stroke-linejoin="miter-clip" stroke-miterlimit="4.0" stroke-width="1.0"/>
    <path d="M13.7 5.5 L14.2 8.55 M19.9 16.4 Q20.05 8.35 18.95 3.7 18.25 0.9 17.1 -0.65 M25.1 -7.25 Q22.4 -1.65 18.95 3.7" fill="none" stroke="#000000" stroke-linecap="butt" stroke-linejoin="miter-clip" stroke-miterlimit="4.0" stroke-opacity="0.6" stroke-width="1.0"/>
  </g>
</svg>
