<?xml version="1.0" encoding="UTF-8" standalone="no"?>
<svg xmlns:xlink="http://www.w3.org/1999/xlink" height="335.0px" width="639.8px" xmlns="http://www.w3.org/2000/svg">
  <g transform="matrix(1.0, 0.0, 0.0, 1.0, 319.9, -449.9)">
    <path d="M319.4 450.4 L319.4 784.4 197.4 784.4 197.4 450.4 319.4 450.4 M143.4 784.4 L-147.4 784.4 -147.4 450.4 143.4 450.4 143.4 784.4 M-197.4 450.4 L-197.4 784.4 -319.4 784.4 -319.4 450.4 -197.4 450.4" fill="#ffffff" fill-opacity="0.0" fill-rule="evenodd" stroke="none"/>
    <path d="M-197.4 450.4 L-197.4 784.4 -319.4 784.4 -319.4 450.4 -197.4 450.4" fill="none" stroke="#000000" stroke-linecap="butt" stroke-linejoin="miter-clip" stroke-miterlimit="4.0" stroke-width="1.0"/>
    <path d="M319.4 450.4 L319.4 784.4 197.4 784.4 197.4 450.4 319.4 450.4 M143.4 784.4 L-147.4 784.4 -147.4 450.4 143.4 450.4 143.4 784.4" fill="none" stroke="#000000" stroke-linecap="butt" stroke-linejoin="miter-clip" stroke-miterlimit="4.0" stroke-opacity="0.4" stroke-width="1.0"/>
    <path d="M-264.6 510.4 L-197.4 510.4 -197.4 784.4 -264.6 784.4 -264.6 510.4 M98.6 510.4 L98.6 784.4 -92.6 784.4 -92.6 510.4 98.6 510.4 M252.2 510.4 L319.4 510.4 319.4 784.4 252.2 784.4 252.2 510.4" fill="#000000" fill-opacity="0.2" fill-rule="evenodd" stroke="none"/>
  </g>
</svg>
