<?xml version="1.0" encoding="UTF-8" standalone="no"?>
<svg xmlns:xlink="http://www.w3.org/1999/xlink" height="1014.5px" width="1482.5px" xmlns="http://www.w3.org/2000/svg">
  <g transform="matrix(1.0, 0.0, 0.0, 1.0, 741.25, 507.25)">
    <path d="M413.65 -238.55 L378.75 -254.0 274.75 -268.0 294.1 -248.65 Q251.3 -269.55 206.5 -292.5 127.5 -333.0 51.75 -375.0 L-8.25 -409.0 Q-155.9 -315.25 -338.0 -230.6 -155.9 -315.25 -8.25 -409.0 L51.75 -375.0 Q127.5 -333.0 206.5 -292.5 251.3 -269.55 294.1 -248.65 L360.25 -182.5 342.25 -110.5 354.0 -86.25 Q368.75 -62.5 382.75 -65.25 405.25 -69.75 472.75 -69.75 L495.5 33.75 414.25 92.25 456.5 119.25 Q498.25 148.5 495.5 159.75 492.5 171.0 498.25 193.75 501.0 205.0 504.5 214.0 499.0 228.0 471.75 251.75 L445.75 272.5 436.75 353.5 387.25 380.5 486.25 407.5 522.5 443.75 500.25 506.75 -424.5 506.75 -410.0 493.25 -446.0 340.0 -504.5 335.5 -504.5 232.0 -495.5 155.25 -509.0 38.25 -590.25 11.25 -513.5 -56.25 -419.0 -106.0 -414.5 -169.0 -329.0 -182.5 -338.0 -230.6 -342.5 -254.5 -353.4 -265.65 Q-133.8 -365.6 -44.75 -429.5 L-44.75 -506.75 44.75 -506.75 44.75 -429.5 Q144.0 -358.25 405.5 -242.25 L413.65 -238.55" fill="#ffffff" fill-opacity="0.0" fill-rule="evenodd" stroke="none"/>
    <path d="M413.65 -238.55 Q538.0 -183.5 647.0 -140.5 L740.75 -140.5 740.75 -99.75 647.0 -99.75 Q492.2 -151.95 294.1 -248.65 492.2 -151.95 647.0 -99.75 L740.75 -99.75 740.75 -46.75 675.5 -46.75 675.5 506.75 500.25 506.75 522.5 443.75 486.25 407.5 387.25 380.5 436.75 353.5 445.75 272.5 471.75 251.75 Q499.0 228.0 504.5 214.0 501.0 205.0 498.25 193.75 492.5 171.0 495.5 159.75 498.25 148.5 456.5 119.25 L414.25 92.25 495.5 33.75 472.75 -69.75 Q405.25 -69.75 382.75 -65.25 368.75 -62.5 354.0 -86.25 L342.25 -110.5 360.25 -182.5 294.1 -248.65 274.75 -268.0 378.75 -254.0 413.65 -238.55 M-424.5 506.75 L-675.75 506.75 -675.75 -46.75 -740.75 -46.75 -740.75 -103.75 -740.75 -140.5 -647.25 -140.5 -557.25 -177.25 Q-448.5 -222.5 -353.5 -265.75 L-353.4 -265.65 -342.5 -254.5 -338.0 -230.6 -329.0 -182.5 -414.5 -169.0 -419.0 -106.0 -513.5 -56.25 -590.25 11.25 -509.0 38.25 -495.5 155.25 -504.5 232.0 -504.5 335.5 -446.0 340.0 -410.0 493.25 -424.5 506.75 M-740.75 -103.75 L-647.25 -103.75 -589.75 -124.5 Q-517.0 -152.0 -440.75 -184.75 -388.1 -207.35 -338.0 -230.6 -388.1 -207.35 -440.75 -184.75 -517.0 -152.0 -589.75 -124.5 L-647.25 -103.75 -740.75 -103.75" fill="#000000" fill-opacity="0.14901961" fill-rule="evenodd" stroke="none"/>
    <path d="M740.75 -99.75 L740.75 -140.5 647.0 -140.5 Q538.0 -183.5 413.65 -238.55 L405.5 -242.25 Q144.0 -358.25 44.75 -429.5 L44.75 -506.75 -44.75 -506.75 -44.75 -429.5 Q-133.8 -365.6 -353.4 -265.65 M740.75 -99.75 L740.75 -46.75 675.5 -46.75 675.5 506.75 500.25 506.75 -424.5 506.75 -675.75 506.75 -675.75 -46.75 -740.75 -46.75 -740.75 -103.75 -740.75 -140.5 -647.25 -140.5" fill="none" stroke="#000000" stroke-linecap="butt" stroke-linejoin="miter-clip" stroke-miterlimit="4.0" stroke-width="1.0"/>
    <path d="M294.1 -248.65 Q492.2 -151.95 647.0 -99.75 L740.75 -99.75 M294.1 -248.65 Q251.3 -269.55 206.5 -292.5 127.5 -333.0 51.75 -375.0 L-8.25 -409.0 Q-155.9 -315.25 -338.0 -230.6 -388.1 -207.35 -440.75 -184.75 -517.0 -152.0 -589.75 -124.5 L-647.25 -103.75 -740.75 -103.75" fill="none" stroke="#000000" stroke-linecap="butt" stroke-linejoin="miter-clip" stroke-miterlimit="4.0" stroke-opacity="0.6" stroke-width="1.0"/>
  </g>
</svg>
