<?xml version="1.0" encoding="UTF-8" standalone="no"?>
<svg xmlns:xlink="http://www.w3.org/1999/xlink" height="719.4px" width="681.4px" xmlns="http://www.w3.org/2000/svg">
  <g transform="matrix(1.0, 0.0, 0.0, 1.0, 338.75, 359.8)">
    <path d="M-106.4 -166.05 L-106.3 -166.8 -106.4 -165.9 -106.45 -165.5 -106.4 -166.05" fill="#e3dcb8" fill-rule="evenodd" stroke="none"/>
    <path d="M138.55 -359.3 L139.25 -359.15 Q248.45 -334.9 300.95 -282.7 327.2 -256.4 331.65 -235.05 L331.65 359.1 289.05 359.1 289.05 -203.0 Q287.7 -209.85 281.9 -220.4 270.55 -240.95 249.05 -259.2 L248.0 -260.1 Q232.8 -272.8 214.0 -283.35 145.5 -321.85 28.8 -332.1 L25.0 -332.45 25.0 -335.5 25.0 -348.9 -6.3 -348.9 -6.3 -335.5 -6.3 -333.8 Q-88.5 -328.8 -148.6 -310.6 -207.45 -292.85 -245.15 -262.4 -269.1 -243.3 -281.35 -221.15 L-288.95 -203.0 -288.95 359.1 -325.9 359.1 -325.9 -235.05 -320.4 -248.95 Q-311.7 -266.2 -295.2 -282.7 -242.7 -334.9 -133.45 -359.15 L-132.8 -359.3 138.55 -359.3" fill="#ffffff" fill-opacity="0.0" fill-rule="evenodd" stroke="none"/>
    <path d="M138.55 -359.3 L192.3 -359.3 192.8 -359.15 Q238.0 -344.85 271.1 -325.05 301.5 -306.85 321.7 -284.05 335.75 -268.35 342.15 -255.0 L342.15 359.1 331.65 359.1 331.65 -235.05 Q327.2 -256.4 300.95 -282.7 248.45 -334.9 139.25 -359.15 L138.55 -359.3 M-6.3 -335.5 L-6.3 -348.9 25.0 -348.9 25.0 -335.5 -6.3 -335.5 M-325.9 359.1 L-338.25 359.1 -338.25 -250.5 -338.2 -250.65 -336.6 -254.15 Q-329.4 -269.25 -316.15 -284.05 -273.8 -331.65 -187.0 -359.15 L-186.55 -359.3 -132.8 -359.3 -133.45 -359.15 Q-242.7 -334.9 -295.2 -282.7 -311.7 -266.2 -320.4 -248.95 L-325.9 -235.05 -325.9 359.1" fill="#000000" fill-opacity="0.2" fill-rule="evenodd" stroke="none"/>
    <path d="M192.8 -359.15 L192.3 -359.3 138.55 -359.3 -132.8 -359.3 -186.55 -359.3 -187.0 -359.15 M25.0 -335.5 L25.0 -332.45 M-6.3 -335.5 L-6.3 -333.8 M-338.25 -250.5 L-338.2 -250.65" fill="none" stroke="#000000" stroke-linecap="butt" stroke-linejoin="miter-clip" stroke-miterlimit="4.0" stroke-width="1.0"/>
    <path d="M25.0 -332.45 L28.8 -332.1 Q145.5 -321.85 214.0 -283.35 232.8 -272.8 248.0 -260.1 L249.05 -259.2 Q270.55 -240.95 281.9 -220.4 287.7 -209.85 289.05 -203.0 L289.05 359.1 M-6.3 -335.5 L-6.3 -348.9 25.0 -348.9 25.0 -335.5 -6.3 -335.5 M-6.3 -333.8 Q-88.5 -328.8 -148.6 -310.6 -207.45 -292.85 -245.15 -262.4 -269.1 -243.3 -281.35 -221.15 L-288.95 -203.0 -288.95 359.1 M-132.8 -359.3 L-133.45 -359.15 Q-242.7 -334.9 -295.2 -282.7 -311.7 -266.2 -320.4 -248.95 L-325.9 -235.05 -325.9 359.1" fill="none" stroke="#000000" stroke-linecap="butt" stroke-linejoin="miter-clip" stroke-miterlimit="4.0" stroke-opacity="0.4" stroke-width="1.0"/>
    <path d="M-288.95 359.1 L-325.9 359.1 -338.25 359.1 -338.25 -250.5 M-338.2 -250.65 L-336.6 -254.15 Q-329.4 -269.25 -316.15 -284.05 -273.8 -331.65 -187.0 -359.15" fill="none" stroke="#000000" stroke-linecap="butt" stroke-linejoin="miter-clip" stroke-miterlimit="4.0" stroke-opacity="0.6" stroke-width="1.0"/>
    <path d="M138.55 -359.3 L139.25 -359.15 Q248.45 -334.9 300.95 -282.7 327.2 -256.4 331.65 -235.05 L331.65 359.1" fill="none" stroke="#000000" stroke-linecap="butt" stroke-linejoin="miter-clip" stroke-miterlimit="4.0" stroke-opacity="0.4" stroke-width="1.0"/>
    <path d="M331.65 359.1 L342.15 359.1 342.15 -255.0 Q335.75 -268.35 321.7 -284.05 301.5 -306.85 271.1 -325.05 238.0 -344.85 192.8 -359.15" fill="none" stroke="#000000" stroke-linecap="round" stroke-linejoin="miter-clip" stroke-miterlimit="4.0" stroke-opacity="0.6" stroke-width="1.0"/>
    <path d="M289.05 359.1 L331.65 359.1" fill="none" stroke="#000000" stroke-linecap="butt" stroke-linejoin="miter-clip" stroke-miterlimit="4.0" stroke-opacity="0.6" stroke-width="1.0"/>
  </g>
</svg>
