<?xml version="1.0" encoding="UTF-8" standalone="no"?>
<svg xmlns:xlink="http://www.w3.org/1999/xlink" height="929.05px" width="127.5px" xmlns="http://www.w3.org/2000/svg">
  <g transform="matrix(1.0, 0.0, 0.0, 1.0, 1593.45, 449.65)">
    <path d="M-1568.8 417.85 L-1564.75 417.85 -1564.75 -388.15 -1569.7 -388.15 Q-1568.55 -403.15 -1573.3 -412.6 L-1583.3 -415.6 -1592.8 -449.15 -1466.65 -449.15 -1476.65 -415.6 -1486.7 -412.6 Q-1489.7 -405.6 -1490.15 -393.55 L-1490.05 -388.15 -1490.65 -388.15 -1495.2 -388.15 -1564.75 -388.15 -1495.2 -388.15 -1495.2 417.85 -1489.75 417.85 Q-1490.9 432.85 -1486.15 442.25 L-1476.2 445.3 -1466.65 478.85 -1592.8 478.85 -1582.8 445.3 -1572.75 442.25 Q-1569.75 435.3 -1569.3 423.25 L-1569.4 417.85 -1568.8 417.85 M-1478.7 -415.6 L-1583.3 -415.6 -1478.7 -415.6 M-1564.75 417.85 L-1495.2 417.85 -1564.75 417.85 M-1580.8 445.3 L-1476.2 445.3 -1580.8 445.3" fill="#ffffff" fill-opacity="0.0" fill-rule="evenodd" stroke="none"/>
    <path d="M-1495.2 -388.15 L-1490.65 -388.15 M-1495.2 -388.15 L-1495.2 417.85 -1489.75 417.85 Q-1490.9 432.85 -1486.15 442.25 L-1476.2 445.3 -1466.65 478.85 -1592.8 478.85 -1582.8 445.3 -1572.75 442.25 Q-1569.75 435.3 -1569.3 423.25 L-1569.4 417.85" fill="none" stroke="#000000" stroke-linecap="butt" stroke-linejoin="miter-clip" stroke-miterlimit="4.0" stroke-opacity="0.6" stroke-width="1.0"/>
    <path d="M-1564.75 -388.15 L-1495.2 -388.15 M-1476.2 445.3 L-1580.8 445.3 M-1495.2 417.85 L-1564.75 417.85" fill="none" stroke="#000000" stroke-linecap="butt" stroke-linejoin="miter-clip" stroke-miterlimit="4.0" stroke-opacity="0.4" stroke-width="1.0"/>
    <path d="M-1568.8 417.85 L-1564.75 417.85 -1564.75 -388.15 -1569.7 -388.15 Q-1568.55 -403.15 -1573.3 -412.6 L-1583.3 -415.6" fill="none" stroke="#000000" stroke-linecap="butt" stroke-linejoin="miter-clip" stroke-miterlimit="4.0" stroke-opacity="0.6" stroke-width="1.0"/>
    <path d="M-1583.3 -415.6 L-1592.8 -449.15 -1466.65 -449.15 -1476.65 -415.6 -1486.7 -412.6 Q-1489.7 -405.6 -1490.15 -393.55 L-1490.05 -388.15 -1489.7 -388.15" fill="none" stroke="#000000" stroke-linecap="round" stroke-linejoin="miter-clip" stroke-miterlimit="4.0" stroke-opacity="0.6" stroke-width="1.0"/>
    <path d="M-1583.3 -415.6 L-1478.7 -415.6" fill="none" stroke="#000000" stroke-linecap="round" stroke-linejoin="miter-clip" stroke-miterlimit="4.0" stroke-opacity="0.4" stroke-width="1.0"/>
    <path d="M-1512.2 417.85 L-1512.2 -346.9 Q-1511.75 -351.55 -1514.7 -359.3 -1520.1 -372.7 -1536.0 -385.35 L-1536.7 -385.9 -1539.7 -388.15 -1495.2 -388.15 -1495.2 417.85 -1512.2 417.85" fill="#000000" fill-opacity="0.29803923" fill-rule="evenodd" stroke="none"/>
  </g>
</svg>
