<?xml version="1.0" encoding="UTF-8" standalone="no"?>
<svg xmlns:xlink="http://www.w3.org/1999/xlink" height="285.95px" width="417.3px" xmlns="http://www.w3.org/2000/svg">
  <g transform="matrix(1.0, 0.0, 0.0, 1.0, 208.65, 218.45)">
    <path d="M193.15 -218.05 L194.6 -217.65 192.5 -218.15 193.15 -218.05" fill="#52472a" fill-rule="evenodd" stroke="none"/>
    <path d="M194.6 -217.65 L193.15 -218.05 192.5 -218.15 194.25 -217.8 194.6 -217.65 M193.15 -218.05 L194.25 -217.8 193.15 -218.05" fill="#6b624c" fill-rule="evenodd" stroke="none"/>
    <path d="M200.0 -214.95 L201.2 -214.35 201.55 -214.1 202.0 -213.75 203.0 -212.8 Q208.65 -207.15 208.65 -198.9 L208.65 67.5 -192.6 67.5 -192.6 -182.4 Q-192.6 -190.65 -186.5 -196.3 -180.9 -201.95 -172.6 -201.95 L208.2 -201.95 Q207.35 -208.9 201.7 -213.65 L200.0 -214.95" fill="#000000" fill-opacity="0.6" fill-rule="evenodd" stroke="none"/>
    <path d="M192.5 -218.15 L194.6 -217.65 200.0 -214.95 201.7 -213.65 Q207.35 -208.9 208.2 -201.95 L-172.6 -201.95 Q-180.9 -201.95 -186.5 -196.3 -192.6 -190.65 -192.6 -182.4 L-192.6 67.5 -208.65 67.5 -208.65 -198.9 Q-208.65 -207.15 -203.0 -212.8 -197.4 -218.45 -189.15 -218.45 L189.1 -218.45 192.5 -218.15" fill="#000000" fill-opacity="0.8" fill-rule="evenodd" stroke="none"/>
    <path d="M193.15 -218.05 L192.5 -218.15 194.6 -217.65 194.25 -217.8 193.15 -218.05 M200.0 -214.95 L201.2 -214.35 201.55 -214.1 202.0 -213.75 203.0 -212.8 Q208.65 -207.15 208.65 -198.9 L208.65 67.5 M-208.65 67.5 L-208.65 -198.9 Q-208.65 -207.15 -203.0 -212.8 -197.4 -218.45 -189.15 -218.45 L189.1 -218.45 192.5 -218.15 M-192.6 67.5 L-192.6 -182.4 Q-192.6 -190.65 -186.5 -196.3 -180.9 -201.95 -172.6 -201.95 L208.2 -201.95 Q207.35 -208.9 201.7 -213.65 L200.0 -214.95 194.6 -217.65 Q197.4 -216.8 200.0 -214.95" fill="none" stroke="#000000" stroke-linecap="butt" stroke-linejoin="miter-clip" stroke-miterlimit="4.0" stroke-opacity="0.4" stroke-width="0.05"/>
  </g>
</svg>
