<?xml version="1.0" encoding="UTF-8" standalone="no"?>
<svg xmlns:xlink="http://www.w3.org/1999/xlink" height="972.65px" width="3181.85px" xmlns="http://www.w3.org/2000/svg">
  <g transform="matrix(1.0, 0.0, 0.0, 1.0, 1591.55, 406.8)">
    <path d="M1236.05 -270.85 Q1231.35 -270.15 1231.1 -110.55 1231.0 -74.95 1231.25 -0.4 1231.4 49.95 1231.1 50.55 L1236.75 51.3 -1300.25 51.3 -1300.25 50.55 -1243.25 50.55 -1228.9 -270.85 1236.05 -270.85 M1589.3 214.6 L1589.3 565.85 -1543.25 565.85 -1591.55 565.85 -1591.55 151.1 -1591.0 151.1 -1591.0 181.55 -1590.85 181.55 -1590.85 214.6 -1543.25 213.35 1542.2 213.35 1589.3 214.6 M1542.2 565.4 L1542.2 213.35 1542.2 565.4 M-1543.25 565.85 L-1543.25 213.35 -1543.25 565.85" fill="#ffffff" fill-opacity="0.0" fill-rule="evenodd" stroke="none"/>
    <path d="M294.5 -309.9 L1239.55 -309.9 1236.05 -270.85 -1228.9 -270.85 -1228.9 -309.9 -301.25 -309.9 294.5 -309.9 M1590.0 181.55 L1590.0 213.35 1589.3 213.35 1590.0 213.35 1590.0 214.6 1589.3 214.6 1589.3 213.35 1589.3 214.6 1542.2 213.35 1589.3 213.35 1589.35 181.55 1589.3 213.35 1542.2 213.35 -1543.25 213.35 -1590.85 214.6 -1590.85 181.55 1589.35 181.55 1590.0 181.55 M-301.25 -323.25 L-301.25 -349.5 294.5 -349.5 294.5 -323.25 -301.25 -323.25 M-1581.15 94.3 L1576.15 94.3 1576.15 124.25 -1581.15 124.25 -1581.15 94.3 M-1543.25 213.35 L-1590.55 213.35 -1543.25 213.35" fill="#000000" fill-opacity="0.4" fill-rule="evenodd" stroke="none"/>
    <path d="M1236.75 51.3 L1590.15 51.3 1590.15 181.55 1590.0 181.55 1589.35 181.55 -1590.85 181.55 -1591.0 181.55 -1591.0 151.1 -1591.0 51.3 -1300.25 51.3 1236.75 51.3 M-301.25 -309.9 L-301.25 -323.25 294.5 -323.25 294.5 -309.9 -301.25 -309.9 M-301.25 -349.5 L-301.25 -406.3 294.5 -406.3 294.5 -349.5 -301.25 -349.5 M-1581.15 94.3 L-1581.15 124.25 1576.15 124.25 1576.15 94.3 -1581.15 94.3" fill="#000000" fill-opacity="0.29803923" fill-rule="evenodd" stroke="none"/>
    <path d="M1236.75 51.3 L1590.15 51.3 1590.15 181.55 1590.0 181.55 1589.35 181.55 1589.3 213.35 1589.3 214.6 1589.3 565.85 -1543.25 565.85 -1591.55 565.85 -1591.55 151.1 -1591.0 151.1 -1591.0 51.3 -1300.25 51.3 1236.75 51.3 M-1590.85 181.55 L-1591.0 181.55 -1591.0 151.1 M-1590.85 181.55 L1589.35 181.55" fill="none" stroke="#000000" stroke-linecap="butt" stroke-linejoin="miter-clip" stroke-miterlimit="4.0" stroke-width="0.05"/>
    <path d="M1590.0 213.35 L1590.3 213.35 M1589.3 213.35 L1590.0 213.35 M1542.2 213.35 L1589.3 213.35 M-1590.55 213.35 L-1543.25 213.35 1542.2 213.35" fill="none" stroke="#202020" stroke-linecap="butt" stroke-linejoin="miter-clip" stroke-miterlimit="4.0" stroke-width="0.05"/>
    <path d="M-301.25 -406.3 L294.5 -406.3 M294.5 -309.9 L-301.25 -309.9" fill="none" stroke="#000000" stroke-linecap="butt" stroke-linejoin="miter-clip" stroke-miterlimit="4.0" stroke-width="1.0"/>
    <path d="M1542.2 213.35 L1542.2 565.4 M-1543.25 213.35 L-1543.25 565.85" fill="none" stroke="#000000" stroke-linecap="butt" stroke-linejoin="miter-clip" stroke-miterlimit="4.0" stroke-opacity="0.4" stroke-width="0.05"/>
  </g>
</svg>
