<?xml version="1.0" encoding="UTF-8" standalone="no"?>
<svg xmlns:xlink="http://www.w3.org/1999/xlink" height="364.5px" width="134.8px" xmlns="http://www.w3.org/2000/svg">
  <g transform="matrix(1.0, 0.0, 0.0, 1.0, 67.5, 182.25)">
    <path d="M66.8 -181.75 L55.65 -155.2 45.2 -152.6 Q41.6 -147.3 41.4 -139.65 L40.85 -134.35 40.85 -134.8 40.85 -135.2 40.85 -134.8 21.35 -134.9 -2.2 -134.75 -6.5 -134.8 -6.3 -134.7 -42.05 -134.35 -42.45 -134.35 Q-41.5 -145.55 -45.95 -152.6 L-56.4 -155.2 -66.6 -181.75 66.8 -181.75 M40.85 135.75 L41.75 139.65 Q41.75 148.75 45.2 154.0 L55.65 156.6 66.05 181.75 -66.8 181.75 -56.4 156.6 -45.95 154.0 Q-42.5 148.75 -42.5 139.65 L-42.05 135.75 -42.05 -134.35 -6.3 -134.7 Q13.5 -124.75 20.0 -113.55 23.45 -107.9 22.6 -104.4 L22.6 135.75 40.85 135.75 M40.85 -135.2 L21.35 -134.9 40.85 -135.2 M53.45 156.6 L-56.4 156.6 53.45 156.6 M53.45 -155.2 L-56.4 -155.2 53.45 -155.2 M-42.05 135.75 L22.6 135.75 -42.05 135.75" fill="#000000" fill-opacity="0.2" fill-rule="evenodd" stroke="none"/>
    <path d="M40.85 -134.35 L40.85 135.75 22.6 135.75 22.6 -104.4 Q23.45 -107.9 20.0 -113.55 13.5 -124.75 -6.3 -134.7 L-2.2 -134.75 -6.3 -134.7 -6.5 -134.8 -2.2 -134.75 21.35 -134.9 40.85 -134.8 40.85 -134.35" fill="#000000" fill-opacity="0.29803923" fill-rule="evenodd" stroke="none"/>
    <path d="M66.8 -181.75 L55.65 -155.2 45.2 -152.6 Q41.6 -147.3 41.4 -139.65 L40.85 -134.35 M40.85 135.75 L41.75 139.65 Q41.75 148.75 45.2 154.0 L55.65 156.6 66.05 181.75 -66.8 181.75 -56.4 156.6 -45.95 154.0 Q-42.5 148.75 -42.5 139.65 L-42.05 135.75 M-42.45 -134.35 Q-41.5 -145.55 -45.95 -152.6 L-56.4 -155.2 -66.6 -181.75" fill="none" stroke="#000000" stroke-linecap="butt" stroke-linejoin="miter-clip" stroke-miterlimit="4.0" stroke-width="1.0"/>
    <path d="M40.85 -134.35 L40.85 135.75 M-42.05 135.75 L-42.05 -134.35 M40.85 -134.8 L40.85 -134.35 M40.85 -135.2 L40.85 -134.8" fill="none" stroke="#000000" stroke-linecap="butt" stroke-linejoin="miter-clip" stroke-miterlimit="4.0" stroke-width="0.05"/>
    <path d="M22.6 135.75 L40.85 135.75 M21.35 -134.9 L-2.2 -134.75 -6.3 -134.7 -42.05 -134.35 M21.35 -134.9 L40.85 -135.2 M22.6 135.75 L-42.05 135.75" fill="none" stroke="#000000" stroke-linecap="butt" stroke-linejoin="miter-clip" stroke-miterlimit="4.0" stroke-opacity="0.4" stroke-width="0.05"/>
    <path d="M-56.4 -155.2 L53.45 -155.2 M-56.4 156.6 L53.45 156.6" fill="none" stroke="#000000" stroke-linecap="butt" stroke-linejoin="miter-clip" stroke-miterlimit="4.0" stroke-opacity="0.4" stroke-width="1.0"/>
  </g>
</svg>
