<?xml version="1.0" encoding="UTF-8" standalone="no"?>
<svg xmlns:xlink="http://www.w3.org/1999/xlink" height="931.4px" width="1323.1px" xmlns="http://www.w3.org/2000/svg">
  <g transform="matrix(1.0, 0.0, 0.0, 1.0, 0.5, 0.5)">
    <path d="M1290.85 445.7 L1291.4 451.7 Q1294.5 484.55 1295.15 485.2 1297.35 487.4 1299.9 568.5 1302.45 651.7 1300.55 682.15 1298.85 709.15 1310.3 804.95 1313.9 835.0 1317.65 862.95 L1292.65 862.95 Q1295.85 834.15 1294.8 809.8 1292.4 755.1 1268.15 733.45 1236.1 704.75 1205.75 629.9 1196.25 606.45 1188.1 581.3 L1181.8 560.75 Q1170.0 543.9 1122.15 539.85 L1090.4 538.75 1076.6 539.15 Q1019.95 532.4 955.5 519.95 826.7 495.0 787.9 466.3 770.6 601.9 771.15 605.6 764.0 663.9 758.2 713.65 751.3 772.75 750.1 787.4 747.8 815.2 741.5 900.7 L673.9 900.7 Q680.0 879.3 679.9 851.2 679.85 815.75 670.15 776.25 660.6 737.15 643.75 702.85 639.8 694.85 635.7 687.5 629.3 664.35 602.9 642.8 564.35 611.25 536.5 563.4 515.55 527.3 494.95 470.3 490.25 457.35 478.1 421.9 467.7 391.5 461.15 374.0 440.6 319.6 418.05 285.05 399.95 257.3 377.6 236.65 352.95 213.85 321.8 198.4 281.25 178.3 245.3 172.25 215.1 167.2 190.9 172.75 173.8 177.7 166.4 183.6 159.0 189.5 156.8 192.65 141.2 218.2 120.65 299.1 107.05 352.65 97.15 404.25 L0.0 406.95 10.8 250.45 Q9.1 223.5 11.15 187.05 L13.5 156.0 Q15.75 147.05 40.05 67.0 L215.85 69.7 Q249.6 71.2 281.6 68.2 L296.1 66.55 299.8 66.05 Q336.4 61.05 365.3 50.8 392.3 41.2 405.95 29.45 415.85 20.95 416.45 13.3 444.0 8.7 481.3 5.6 L539.65 2.2 Q569.3 31.9 672.2 59.2 758.5 82.15 855.3 93.95 892.75 98.5 948.3 96.85 988.75 95.6 1046.9 90.6 L1129.3 83.35 Q1165.95 80.55 1173.7 83.15 1190.35 88.7 1208.45 121.3 1220.7 143.35 1249.25 210.0 1267.0 251.4 1280.4 350.85 L1280.0 350.3 1281.55 359.7 1284.35 401.55 Q1287.75 425.15 1272.9 438.65 1268.25 442.9 1262.35 445.6 L1257.35 447.45 Q1249.25 450.8 1237.8 457.55 1233.5 460.1 1229.4 462.75 1211.7 474.2 1198.0 487.9 1181.15 504.8 1194.65 527.7 1201.4 539.15 1211.5 547.25 L1230.35 509.5 1225.0 539.15 Q1245.2 530.7 1253.3 509.8 1255.85 503.3 1256.85 496.3 L1257.35 490.6 1261.7 481.25 Q1268.0 469.7 1277.75 458.7 L1277.7 458.7 Q1283.7 451.95 1290.85 445.7 M237.45 147.9 L249.95 150.2 Q265.45 152.05 280.6 149.95 329.2 143.2 356.15 99.35 348.25 89.1 343.95 85.15 330.9 72.95 315.35 70.0 L305.6 67.85 Q299.95 66.6 296.1 66.55 299.95 66.6 305.6 67.85 L315.35 70.0 Q330.9 72.95 343.95 85.15 348.25 89.1 356.15 99.35 329.2 143.2 280.6 149.95 265.45 152.05 249.95 150.2 L237.45 147.9 M281.6 68.2 Q277.3 69.2 273.05 70.9 247.15 81.25 223.95 115.55 247.15 81.25 273.05 70.9 277.3 69.2 281.6 68.2 M310.3 96.65 Q276.6 68.0 248.25 97.0 239.4 106.1 232.15 119.8 L226.65 131.75 Q285.7 150.3 303.9 125.3 309.6 117.5 310.5 106.3 310.8 102.8 310.6 99.35 L310.3 96.65" fill="#ffffff" fill-opacity="0.0" fill-rule="evenodd" stroke="none"/>
    <path d="M602.9 642.8 L591.05 645.55 Q591.4 645.45 593.6 639.0 519.9 616.25 469.6 564.65 449.0 543.45 430.7 515.85 416.65 494.7 401.05 464.95 L376.05 416.1 Q362.05 389.2 351.15 373.4 337.0 352.9 321.75 341.05 304.45 327.65 283.3 323.3 242.5 314.95 207.1 330.35 178.75 342.65 155.15 369.5 138.3 388.7 125.45 413.25 119.05 425.5 116.0 433.95 116.0 422.15 106.6 412.0 103.65 408.85 100.1 406.25 L97.15 404.25 Q107.05 352.65 120.65 299.1 141.2 218.2 156.8 192.65 159.0 189.5 166.4 183.6 173.8 177.7 190.9 172.75 215.1 167.2 245.3 172.25 281.25 178.3 321.8 198.4 352.95 213.85 377.6 236.65 399.95 257.3 418.05 285.05 440.6 319.6 461.15 374.0 467.7 391.5 478.1 421.9 490.25 457.35 494.95 470.3 515.55 527.3 536.5 563.4 564.35 611.25 602.9 642.8" fill="#000000" fill-opacity="0.047058824" fill-rule="evenodd" stroke="none"/>
    <path d="M310.3 96.65 L310.6 99.35 Q310.8 102.8 310.5 106.3 309.6 117.5 303.9 125.3 285.7 150.3 226.65 131.75 L232.15 119.8 Q239.4 106.1 248.25 97.0 276.6 68.0 310.3 96.65" fill="#ffffff" fill-opacity="0.09803922" fill-rule="evenodd" stroke="none"/>
    <path d="M532.3 654.25 L531.85 654.3 531.3 654.3 527.45 654.4 Q514.3 654.65 487.7 648.1 465.1 642.55 460.9 640.3 436.7 627.25 411.35 597.45 L407.0 592.25 Q384.15 562.0 374.2 546.95 L373.6 546.05 365.65 533.9 360.55 526.0 337.05 488.9 Q323.75 468.15 314.3 455.05 289.2 420.25 269.8 409.65 L269.5 409.5 269.15 409.3 Q265.75 407.5 262.3 406.05 265.75 407.5 269.15 409.3 L269.5 409.5 269.8 409.65 Q289.2 420.25 314.3 455.05 323.75 468.15 337.05 488.9 L360.55 526.0 365.65 533.9 373.6 546.05 374.2 546.95 364.25 539.15 Q362.5 539.15 366.2 558.5 L375.75 604.95 Q391.25 680.4 391.25 709.15 391.25 753.45 389.2 887.2 L348.3 887.2 351.75 870.35 Q360.55 825.85 358.85 809.0 357.75 798.0 352.3 766.85 346.35 732.6 338.95 696.35 319.1 598.95 304.9 563.45 291.4 529.75 273.85 456.85 268.35 434.1 263.15 410.15 L262.3 406.05 Q228.25 392.1 188.2 416.4 174.3 424.85 161.3 437.0 154.8 443.05 151.1 447.45 L142.75 455.8 142.75 455.75 Q139.15 447.2 127.25 439.7 124.75 438.15 116.0 433.95 119.05 425.5 125.45 413.25 138.3 388.7 155.15 369.5 178.75 342.65 207.1 330.35 242.5 314.95 283.3 323.3 304.45 327.65 321.75 341.05 337.0 352.9 351.15 373.4 362.05 389.2 376.05 416.1 L401.05 464.95 Q416.65 494.7 430.7 515.85 449.0 543.45 469.6 564.65 519.9 616.25 593.6 639.0 591.4 645.45 591.05 645.55 L532.3 654.25" fill="#000000" fill-opacity="0.09803922" fill-rule="evenodd" stroke="none"/>
    <path d="M460.9 640.3 L446.45 682.9 429.0 733.45 Q420.6 757.05 418.6 838.0 417.95 863.55 418.0 887.2 L389.2 887.2 Q391.25 753.45 391.25 709.15 391.25 680.4 375.75 604.95 L366.2 558.5 Q362.5 539.15 364.25 539.15 L374.2 546.95 Q384.15 562.0 407.0 592.25 L411.35 597.45 Q436.7 627.25 460.9 640.3" fill="#000000" fill-opacity="0.24705882" fill-rule="evenodd" stroke="none"/>
    <path d="M591.05 645.55 Q556.4 653.2 532.3 654.25 L591.05 645.55" fill="#c4c6c8" fill-rule="evenodd" stroke="none"/>
    <path d="M1281.55 359.7 L1280.0 350.3 1280.4 350.85 1281.55 359.7" fill="#aaacae" fill-rule="evenodd" stroke="none"/>
    <path d="M1280.4 350.85 Q1291.3 367.45 1298.7 387.05 1313.7 426.85 1295.15 442.05 L1290.85 445.7 Q1283.7 451.95 1277.7 458.7 1270.2 460.15 1258.2 466.95 1244.3 474.85 1238.75 476.7 1241.5 472.9 1248.0 466.15 1254.55 459.4 1257.15 455.8 1240.35 462.75 1219.8 476.9 1222.75 469.65 1229.4 462.75 1233.5 460.1 1237.8 457.55 1249.25 450.8 1257.35 447.45 L1262.35 445.6 Q1268.25 442.9 1272.9 438.65 1287.75 425.15 1284.35 401.55 L1281.55 359.7 1280.4 350.85" fill="#000000" fill-opacity="0.14901961" fill-rule="evenodd" stroke="none"/>
    <path d="M1256.1 862.95 Q1258.95 842.85 1253.3 811.35 1249.95 792.55 1243.85 771.9 L1238.45 755.0 Q1204.75 707.8 1189.9 629.55 1185.25 605.1 1183.05 580.5 L1181.8 560.75 1188.1 581.3 Q1196.25 606.45 1205.75 629.9 1236.1 704.75 1268.15 733.45 1292.4 755.1 1294.8 809.8 1295.85 834.15 1292.65 862.95 L1256.1 862.95 M1076.6 539.15 Q1055.8 546.7 1030.4 554.55 1027.4 561.75 1025.25 569.95 1019.85 590.55 1019.25 620.1 1018.95 633.85 1020.35 670.25 1021.4 699.1 1019.9 711.85 1016.55 740.5 1004.4 811.35 L998.2 847.25 998.25 846.75 917.4 846.75 919.1 842.1 Q927.45 818.55 932.25 794.15 944.45 731.8 928.2 695.65 913.0 661.95 905.6 609.3 904.05 598.55 903.0 587.8 879.8 592.6 825.65 599.3 L771.15 605.6 Q770.6 601.9 787.9 466.3 826.7 495.0 955.5 519.95 1019.95 532.4 1076.6 539.15 M1030.4 554.55 Q1008.05 561.4 982.15 568.5 940.45 579.95 903.0 587.8 940.45 579.95 982.15 568.5 1008.05 561.4 1030.4 554.55" fill="#000000" fill-opacity="0.2" fill-rule="evenodd" stroke="none"/>
    <path d="M1317.65 862.95 L1322.1 895.3 1243.85 893.2 Q1255.6 865.5 1255.95 862.95 L1256.1 862.95 1292.65 862.95 1317.65 862.95 M998.2 847.25 L992.95 876.45 903.9 876.45 Q910.6 864.95 917.4 846.75 L998.25 846.75 998.2 847.25 M741.5 900.7 L739.3 930.4 663.75 930.4 673.85 900.7 673.9 900.7 741.5 900.7 M418.0 887.2 L418.0 891.1 Q418.05 902.85 418.25 914.2 L342.65 911.5 Q345.55 899.95 348.3 887.2 L389.2 887.2 418.0 887.2 M142.75 455.75 Q101.3 471.55 69.55 467.5 44.15 464.3 26.15 448.6 13.25 437.35 5.35 421.05 1.4 412.85 0.0 406.95 L97.15 404.25 100.1 406.25 Q103.65 408.85 106.6 412.0 116.0 422.15 116.0 433.95 124.75 438.15 127.25 439.7 139.15 447.2 142.75 455.75 M40.05 67.0 Q41.85 60.85 46.05 49.35 51.25 35.05 53.8 31.25 67.6 10.55 97.15 4.9 139.2 -3.1 176.75 1.9 213.7 6.75 223.95 21.1 198.65 31.25 204.75 51.5 205.9 55.4 210.95 62.9 L215.8 69.65 215.85 69.7 40.05 67.0 M1277.7 458.7 L1277.75 458.7 Q1268.0 469.7 1261.7 481.25 L1257.35 490.6 1256.85 496.3 Q1255.85 503.3 1253.3 509.8 1245.2 530.7 1225.0 539.15 L1230.35 509.5 1211.5 547.25 Q1201.4 539.15 1194.65 527.7 1181.15 504.8 1198.0 487.9 1211.7 474.2 1229.4 462.75 1222.75 469.65 1219.8 476.9 1240.35 462.75 1257.15 455.8 1254.55 459.4 1248.0 466.15 1241.5 472.9 1238.75 476.7 1244.3 474.85 1258.2 466.95 1270.2 460.15 1277.7 458.7" fill="#000000" fill-opacity="0.7490196" fill-rule="evenodd" stroke="none"/>
    <path d="M1290.85 445.7 L1291.4 451.7 Q1294.5 484.55 1295.15 485.2 1297.35 487.4 1299.9 568.5 1302.45 651.7 1300.55 682.15 1298.85 709.15 1310.3 804.95 1313.9 835.0 1317.65 862.95 L1322.1 895.3 1243.85 893.2 Q1255.6 865.5 1255.95 862.95 L1256.1 862.95 Q1258.95 842.85 1253.3 811.35 1249.95 792.55 1243.85 771.9 L1238.45 755.0 Q1204.75 707.8 1189.9 629.55 1185.25 605.1 1183.05 580.5 L1181.8 560.75 Q1170.0 543.9 1122.15 539.85 L1090.4 538.75 1076.6 539.15 Q1055.8 546.7 1030.4 554.55 1027.4 561.75 1025.25 569.95 1019.85 590.55 1019.25 620.1 1018.95 633.85 1020.35 670.25 1021.4 699.1 1019.9 711.85 1016.55 740.5 1004.4 811.35 L998.2 847.25 992.95 876.45 903.9 876.45 Q910.6 864.95 917.4 846.75 L919.1 842.1 Q927.45 818.55 932.25 794.15 944.45 731.8 928.2 695.65 913.0 661.95 905.6 609.3 904.05 598.55 903.0 587.8 879.8 592.6 825.65 599.3 L771.15 605.6 Q764.0 663.9 758.2 713.65 751.3 772.75 750.1 787.4 747.8 815.2 741.5 900.7 L739.3 930.4 663.75 930.4 673.85 900.7 673.9 900.7 Q680.0 879.3 679.9 851.2 679.85 815.75 670.15 776.25 660.6 737.15 643.75 702.85 639.8 694.85 635.7 687.5 629.3 664.35 602.9 642.8 M532.3 654.25 L531.85 654.3 531.3 654.3 527.45 654.4 Q514.3 654.65 487.7 648.1 465.1 642.55 460.9 640.3 L446.45 682.9 429.0 733.45 Q420.6 757.05 418.6 838.0 417.95 863.55 418.0 887.2 L389.2 887.2 M418.0 891.1 Q418.05 902.85 418.25 914.2 L342.65 911.5 Q345.55 899.95 348.3 887.2 L351.75 870.35 Q360.55 825.85 358.85 809.0 357.75 798.0 352.3 766.85 346.35 732.6 338.95 696.35 319.1 598.95 304.9 563.45 291.4 529.75 273.85 456.85 268.35 434.1 263.15 410.15 L262.3 406.05 Q228.25 392.1 188.2 416.4 174.3 424.85 161.3 437.0 154.8 443.05 151.1 447.45 L142.75 455.8 M142.75 455.75 Q101.3 471.55 69.55 467.5 44.15 464.3 26.15 448.6 13.25 437.35 5.35 421.05 1.4 412.85 0.0 406.95 L10.8 250.45 Q9.1 223.5 11.15 187.05 L13.5 156.0 Q15.75 147.05 40.05 67.0 M53.8 31.25 Q67.6 10.55 97.15 4.9 139.2 -3.1 176.75 1.9 213.7 6.75 223.95 21.1 M281.6 68.2 L296.1 66.55 Q299.95 66.6 305.6 67.85 L315.35 70.0 Q330.9 72.95 343.95 85.15 348.25 89.1 356.15 99.35 329.2 143.2 280.6 149.95 265.45 152.05 249.95 150.2 L237.45 147.9 M416.45 13.3 Q444.0 8.7 481.3 5.6 L539.65 2.2 Q569.3 31.9 672.2 59.2 758.5 82.15 855.3 93.95 892.75 98.5 948.3 96.85 988.75 95.6 1046.9 90.6 L1129.3 83.35 Q1165.95 80.55 1173.7 83.15 1190.35 88.7 1208.45 121.3 1220.7 143.35 1249.25 210.0 1267.0 251.4 1280.4 350.85 1291.3 367.45 1298.7 387.05 1313.7 426.85 1295.15 442.05 L1290.85 445.7 M1281.55 359.7 L1280.0 350.3 1280.4 350.85 1281.55 359.7 M591.05 645.55 L532.3 654.25 M223.95 115.55 Q247.15 81.25 273.05 70.9 277.3 69.2 281.6 68.2" fill="none" stroke="#000000" stroke-linecap="round" stroke-linejoin="round" stroke-width="1.0"/>
    <path d="M602.9 642.8 L591.05 645.55 Q556.4 653.2 532.3 654.25 M142.75 455.8 L142.75 455.75 Q139.15 447.2 127.25 439.7 124.75 438.15 116.0 433.95 116.0 422.15 106.6 412.0 103.65 408.85 100.1 406.25 L97.15 404.25 0.0 406.95 M40.05 67.0 Q41.85 60.85 46.05 49.35 51.25 35.05 53.8 31.25 M223.95 21.1 Q198.65 31.25 204.75 51.5 205.9 55.4 210.95 62.9 L215.8 69.65 215.85 69.7 40.05 67.0 M1290.85 445.7 Q1283.7 451.95 1277.7 458.7 L1277.75 458.7 Q1268.0 469.7 1261.7 481.25 L1257.35 490.6 1256.85 496.3 Q1255.85 503.3 1253.3 509.8 1245.2 530.7 1225.0 539.15 L1230.35 509.5 1211.5 547.25 Q1201.4 539.15 1194.65 527.7 1181.15 504.8 1198.0 487.9 1211.7 474.2 1229.4 462.75 1233.5 460.1 1237.8 457.55 1249.25 450.8 1257.35 447.45 L1262.35 445.6 Q1268.25 442.9 1272.9 438.65 1287.75 425.15 1284.35 401.55 L1281.55 359.7 M1277.7 458.7 Q1270.2 460.15 1258.2 466.95 1244.3 474.85 1238.75 476.7 1241.5 472.9 1248.0 466.15 1254.55 459.4 1257.15 455.8 1240.35 462.75 1219.8 476.9 1222.75 469.65 1229.4 462.75 M903.0 587.8 Q940.45 579.95 982.15 568.5 1008.05 561.4 1030.4 554.55 M310.3 96.65 L310.6 99.35 Q310.8 102.8 310.5 106.3 309.6 117.5 303.9 125.3 285.7 150.3 226.65 131.75 L232.15 119.8 Q239.4 106.1 248.25 97.0 276.6 68.0 310.3 96.65 M262.3 406.05 Q265.75 407.5 269.15 409.3 L269.5 409.5 269.8 409.65 Q289.2 420.25 314.3 455.05 323.75 468.15 337.05 488.9 L360.55 526.0 365.65 533.9 373.6 546.05 374.2 546.95 Q384.15 562.0 407.0 592.25 L411.35 597.45 Q436.7 627.25 460.9 640.3 M348.3 887.2 L389.2 887.2 M1292.65 862.95 L1256.1 862.95 M917.4 846.75 L998.25 846.75 998.2 847.25 M673.9 900.7 L741.5 900.7 M1317.65 862.95 L1292.65 862.95" fill="none" stroke="#000000" stroke-linecap="round" stroke-linejoin="round" stroke-opacity="0.6" stroke-width="1.0"/>
  </g>
</svg>
