<?xml version="1.0" encoding="UTF-8" standalone="no"?>
<svg xmlns:xlink="http://www.w3.org/1999/xlink" height="758.15px" width="356.9px" xmlns="http://www.w3.org/2000/svg">
  <g transform="matrix(1.0, 0.0, 0.0, 1.0, 1.7, 1.7)">
    <path d="M154.5 384.2 Q151.65 399.35 141.15 448.7 130.35 499.05 129.3 504.65 134.4 507.3 136.65 509.2 141.35 513.35 141.35 518.7 141.35 523.3 135.95 532.5 130.5 541.65 130.5 542.6 130.5 543.95 134.75 545.5 141.45 548.05 144.05 549.45 157.6 557.0 157.6 574.45 L157.3 578.7 177.4 613.05 177.45 583.15 Q177.45 559.6 176.85 544.95 176.25 530.3 176.25 521.55 176.25 515.55 183.75 474.8 191.2 434.05 191.2 424.85 191.2 422.6 189.4 406.6 186.75 383.2 183.9 345.8 L176.25 282.75 154.5 384.2 M85.5 0.1 L306.9 10.15 Q308.05 8.5 308.6 8.5 310.0 8.5 318.5 25.9 L327.5 44.9 Q330.25 50.4 332.9 56.9 334.8 61.5 338.05 67.25 345.25 79.9 350.65 100.65 355.2 118.1 355.2 125.95 355.2 136.0 344.85 211.45 330.65 315.25 323.3 377.8 L301.35 566.6 Q288.25 675.1 275.75 754.95 275.3 756.45 274.1 756.45 L273.2 756.35 272.6 756.25 272.3 754.5 271.25 751.55 270.15 749.3 243.45 711.95 229.05 691.65 222.0 681.7 222.0 681.75 222.75 682.85 222.65 682.9 Q221.55 681.8 219.35 681.8 218.5 681.8 214.65 684.5 L209.2 688.25 Q206.5 689.75 199.1 693.25 L191.25 696.9 169.0 706.55 Q148.25 715.2 109.25 729.8 L108.65 731.5 Q108.3 732.15 107.65 732.15 L106.7 731.95 106.15 731.4 76.5 688.1 35.45 629.25 12.45 598.3 Q8.35 592.75 3.65 576.1 -1.7 557.15 -1.7 542.35 -1.7 531.85 3.35 476.5 L12.45 380.3 27.5 238.15 Q26.85 234.55 24.15 224.9 22.15 217.65 22.15 213.7 22.15 208.65 26.8 200.65 31.45 192.65 31.45 191.0 L28.8 178.1 Q26.15 165.35 26.15 161.9 26.15 161.05 26.6 159.1 27.1 156.9 27.75 155.4 28.2 154.35 32.1 148.95 L38.2 140.2 Q38.15 131.65 38.45 123.3 39.0 106.75 40.75 103.75 41.75 102.1 46.05 96.2 53.65 85.75 75.35 52.65 75.3 44.15 75.65 38.35 L76.75 26.8 Q77.85 16.95 80.2 7.55 82.55 -1.7 83.8 -1.7 84.45 -1.7 84.9 -1.1 L85.5 0.1" fill="#ffffff" fill-rule="evenodd" stroke="none"/>
  </g>
</svg>
