<?xml version="1.0" encoding="UTF-8" standalone="no"?>
<svg xmlns:xlink="http://www.w3.org/1999/xlink" height="110.05px" width="380.95px" xmlns="http://www.w3.org/2000/svg">
  <g transform="matrix(1.0, 0.0, 0.0, 1.0, 0.05, 0.05)">
    <path d="M359.45 23.4 L380.85 36.65 Q375.75 39.7 369.65 44.8 358.45 56.0 357.4 68.2 L327.9 96.75 306.5 93.65 310.75 81.65 337.05 59.05 Q338.05 51.9 341.1 44.8 347.25 28.5 359.45 23.4 M205.7 47.85 L205.7 95.7 180.25 95.7 175.15 47.85 205.7 47.85 M70.1 94.95 L74.3 106.9 52.95 109.95 22.4 81.45 Q21.35 69.25 11.2 58.05 L0.0 49.9 21.35 36.65 Q41.75 44.8 42.75 72.3 L70.1 94.95" fill="#000000" fill-opacity="0.24705882" fill-rule="evenodd" stroke="none"/>
    <path d="M175.15 47.85 L168.0 1.0 204.65 0.0 205.7 47.85 175.15 47.85" fill="#000000" fill-opacity="0.09803922" fill-rule="evenodd" stroke="none"/>
    <path d="M310.75 81.65 L308.55 83.5 308.55 23.4 359.45 23.4 Q347.25 28.5 341.1 44.8 338.05 51.9 337.05 59.05 L310.75 81.65 M70.1 94.95 L42.75 72.3 Q41.75 44.8 21.35 36.65 L72.3 36.65 72.3 96.75 70.1 94.95" fill="#000000" fill-opacity="0.14901961" fill-rule="evenodd" stroke="none"/>
    <path d="M359.45 23.4 L380.85 36.65 Q375.75 39.7 369.65 44.8 358.45 56.0 357.4 68.2 L327.9 96.75 306.5 93.65 310.75 81.65 308.55 83.5 308.55 23.4 359.45 23.4 M175.15 47.85 L168.0 1.0 204.65 0.0 205.7 47.85 205.7 95.7 180.25 95.7 175.15 47.85 M21.35 36.65 L0.0 49.9 11.2 58.05 Q21.35 69.25 22.4 81.45 L52.95 109.95 74.3 106.9 70.1 94.95 72.3 96.75 72.3 36.65 21.35 36.65" fill="none" stroke="#000000" stroke-linecap="round" stroke-linejoin="round" stroke-opacity="0.6" stroke-width="0.1"/>
    <path d="M359.45 23.4 Q347.25 28.5 341.1 44.8 338.05 51.9 337.05 59.05 L310.75 81.65 M175.15 47.85 L205.7 47.85 M70.1 94.95 L42.75 72.3 Q41.75 44.8 21.35 36.65" fill="none" stroke="#000000" stroke-linecap="round" stroke-linejoin="round" stroke-opacity="0.4" stroke-width="0.1"/>
  </g>
</svg>
