<?xml version="1.0" encoding="UTF-8" standalone="no"?>
<svg xmlns:xlink="http://www.w3.org/1999/xlink" height="372.5px" width="1353.3px" xmlns="http://www.w3.org/2000/svg">
  <g transform="matrix(1.0, 0.0, 0.0, 1.0, 0.45, -1.5)">
    <path d="M648.55 58.25 L714.6 52.3 714.6 18.35 Q714.6 15.3 716.75 13.15 718.9 11.0 721.95 11.0 725.0 11.0 727.2 13.15 729.35 15.3 729.35 18.35 L729.35 51.05 857.05 40.95 865.15 40.4 865.15 8.85 Q865.15 5.8 867.35 3.65 869.5 1.5 872.55 1.5 875.6 1.5 877.8 3.65 879.95 5.8 879.95 8.85 L879.95 39.35 896.8 38.2 Q1130.0 22.2 1352.35 17.9 L1352.35 101.95 Q1247.2 102.85 1141.7 106.55 L1025.0 111.5 Q922.85 116.55 821.55 124.2 403.9 155.6 0.05 230.3 L0.05 141.7 Q55.05 131.7 134.4 119.95 L134.4 86.55 Q134.4 83.5 136.55 81.3 138.7 79.15 141.75 79.15 144.85 79.15 147.0 81.3 149.15 83.5 149.15 86.55 L149.15 117.8 239.6 105.05 268.75 101.15 268.75 67.9 Q268.75 64.85 270.9 62.7 273.05 60.55 276.1 60.55 279.15 60.55 281.35 62.7 283.5 64.85 283.5 67.9 L283.5 99.2 Q347.45 90.75 411.95 83.2 L411.95 51.05 Q411.95 48.0 414.1 45.8 416.25 43.65 419.3 43.65 422.4 43.65 424.55 45.8 426.7 48.0 426.7 51.05 L426.7 81.45 Q493.6 73.65 561.05 66.8 L561.05 35.6 Q561.05 32.55 563.2 30.35 565.35 28.2 568.4 28.2 571.5 28.2 573.65 30.35 575.8 32.55 575.8 35.6 L575.8 65.3 648.55 58.25" fill="#000000" fill-opacity="0.09803922" fill-rule="evenodd" stroke="none"/>
    <path d="M0.05 230.3 Q403.9 155.6 821.55 124.2 823.7 146.05 825.0 165.75 829.45 232.35 823.1 259.85 818.9 277.9 801.8 310.25 787.0 338.1 764.35 373.5 L0.05 373.5 0.05 230.3" fill="#000000" fill-opacity="0.2" fill-rule="evenodd" stroke="none"/>
    <path d="M821.55 124.2 Q922.85 116.55 1025.0 111.5 L1141.7 106.55 Q1247.2 102.85 1352.35 101.95 L1352.35 373.5 764.35 373.5 Q787.0 338.1 801.8 310.25 818.9 277.9 823.1 259.85 829.45 232.35 825.0 165.75 823.7 146.05 821.55 124.2" fill="#000000" fill-opacity="0.34901962" fill-rule="evenodd" stroke="none"/>
    <path d="M648.55 58.25 L575.8 65.3 575.8 35.6 Q575.8 32.55 573.65 30.35 571.5 28.2 568.4 28.2 565.35 28.2 563.2 30.35 561.05 32.55 561.05 35.6 L561.05 66.8 Q493.6 73.65 426.7 81.45 L426.7 51.05 Q426.7 48.0 424.55 45.8 422.4 43.65 419.3 43.65 416.25 43.65 414.1 45.8 411.95 48.0 411.95 51.05 L411.95 83.2 Q347.45 90.75 283.5 99.2 L283.5 67.9 Q283.5 64.85 281.35 62.7 279.15 60.55 276.1 60.55 273.05 60.55 270.9 62.7 268.75 64.85 268.75 67.9 L268.75 101.15 239.6 105.05 149.15 117.8 149.15 86.55 Q149.15 83.5 147.0 81.3 144.85 79.15 141.75 79.15 138.7 79.15 136.55 81.3 134.4 83.5 134.4 86.55 L134.4 119.95 Q55.05 131.7 0.05 141.7 L0.05 230.3 0.05 373.5 764.35 373.5 1352.35 373.5" fill="none" stroke="#000000" stroke-linecap="round" stroke-linejoin="miter-clip" stroke-miterlimit="4.0" stroke-width="1.0"/>
  </g>
</svg>
