<?xml version="1.0" encoding="UTF-8" standalone="no"?>
<svg xmlns:xlink="http://www.w3.org/1999/xlink" height="81.05px" width="94.6px" xmlns="http://www.w3.org/2000/svg">
  <g transform="matrix(1.0, 0.0, 0.0, 1.0, 0.5, 0.5)">
    <path d="M39.45 80.05 L9.25 80.05 0.0 52.8 24.35 35.95 45.25 50.45 48.65 52.8 48.65 52.95 47.55 56.2 39.45 80.05 M9.25 80.05 L45.25 50.45 9.25 80.05" fill="#ffffff" fill-opacity="0.0" fill-rule="evenodd" stroke="none"/>
    <path d="M93.6 15.4 L63.7 40.3 57.55 40.3 53.7 29.0 51.8 23.3 49.55 16.7 51.8 23.3 53.7 29.0 57.55 40.3 63.7 40.3 48.65 52.8 45.25 50.45 57.55 40.3 45.25 50.45 24.35 35.95 49.55 16.7 71.35 0.0 93.6 15.4" fill="#ffffff" fill-opacity="0.09803922" fill-rule="evenodd" stroke="none"/>
    <path d="M93.6 15.4 L85.2 40.3 63.7 40.3 85.2 40.3 39.45 80.05 47.55 56.2 48.65 52.95 48.65 52.8 63.7 40.3 93.6 15.4" fill="#000000" fill-opacity="0.09803922" fill-rule="evenodd" stroke="none"/>
    <path d="M0.0 52.8 L49.1 15.4 71.35 0.0 49.55 16.7 49.1 15.4 49.55 16.7 24.35 35.95 0.0 52.8" fill="#ffffff" fill-opacity="0.2" fill-rule="evenodd" stroke="none"/>
    <path d="M85.2 40.3 L93.6 15.4 63.7 40.3 48.65 52.8 48.65 52.95 47.55 56.2 39.45 80.05 9.25 80.05 0.0 52.8 49.1 15.4 71.35 0.0 93.6 15.4 M85.2 40.3 L39.45 80.05 M49.55 16.7 L71.35 0.0 M48.65 52.8 L45.25 50.45 24.35 35.95 49.55 16.7 M24.35 35.95 L0.0 52.8" fill="none" stroke="#000000" stroke-linecap="round" stroke-linejoin="round" stroke-width="1.0"/>
    <path d="M63.7 40.3 L85.2 40.3 M49.55 16.7 L51.8 23.3 53.7 29.0 57.55 40.3 63.7 40.3 M49.1 15.4 L49.55 16.7 M45.25 50.45 L9.25 80.05 M45.25 50.45 L57.55 40.3" fill="none" stroke="#000000" stroke-linecap="round" stroke-linejoin="round" stroke-opacity="0.4" stroke-width="1.0"/>
  </g>
</svg>
