<?xml version="1.0" encoding="UTF-8" standalone="no"?>
<svg xmlns:xlink="http://www.w3.org/1999/xlink" height="698.2px" width="346.7px" xmlns="http://www.w3.org/2000/svg">
  <g transform="matrix(1.0, 0.0, 0.0, 1.0, 173.35, 348.5)">
    <path d="M-18.9 -341.15 L-38.4 -317.75 Q-38.4 -316.05 -63.1 -294.8 L-87.8 -273.85 -139.9 -257.4 -152.15 -258.8 -145.4 -273.85 -85.05 -320.5 -18.9 -341.15 M-170.1 -215.05 L-96.0 -238.2 -96.0 -188.85 -46.65 -238.2 -16.2 -201.65 19.2 -79.1 41.15 -18.75 46.65 33.4 44.4 108.45 -10.95 156.85 -87.8 189.75 -90.55 239.15 -131.65 280.3 Q-138.8 277.45 -159.0 271.3 L-159.1 269.35 -142.65 252.85 -161.85 228.15 -172.85 159.6 -167.35 52.6 Q-162.55 40.25 -158.75 27.55 -151.2 2.15 -156.35 0.45 -161.5 -1.25 -156.7 -33.5 L-150.9 -65.4 -158.1 -87.1 -156.35 -87.3 -117.95 -87.3 -115.2 -101.05 -82.3 -106.55 -87.8 -84.6 -76.8 -57.15 -68.6 -106.55 -8.2 -95.55 -30.15 -128.5 -74.05 -123.0 -128.95 -117.5 -170.1 -138.1 -170.1 -215.05 M-54.85 19.65 L-57.6 88.25 -79.55 134.9 -43.9 96.5 -30.15 14.2 -30.15 -32.45 -65.85 -5.0 -79.55 30.65 -54.85 19.65" fill="#ffffff" fill-opacity="0.0" fill-rule="evenodd" stroke="none"/>
    <path d="M-18.9 -341.15 L-18.9 -341.2 2.75 -347.95 71.35 -306.8 117.95 -265.65 85.05 -183.35 126.2 -139.45 104.25 -79.1 96.05 19.65 134.45 0.45 139.95 93.75 137.2 170.55 107.0 263.85 54.9 99.25 44.4 108.45 46.65 33.4 41.15 -18.75 19.2 -79.1 -16.2 -201.65 -46.65 -238.2 -96.0 -188.85 -96.0 -238.2 -170.1 -215.05 -170.1 -219.0 -152.2 -258.8 -152.15 -258.8 -139.9 -257.4 -87.8 -273.85 -63.1 -294.8 Q-38.4 -316.05 -38.4 -317.75 L-18.9 -341.15 M171.3 254.95 L172.85 269.35 167.45 276.6 Q161.65 284.05 160.75 285.8 157.8 291.5 151.1 305.5 143.8 320.65 141.85 325.35 140.45 328.7 138.5 329.05 137.1 329.3 134.2 327.95 130.15 326.0 128.4 325.55 L120.55 325.35 116.55 327.35 Q115.25 328.0 113.9 325.35 112.85 323.2 94.75 328.7 85.5 331.5 74.7 335.3 L74.75 335.1 Q88.2 293.9 91.05 287.95 98.7 272.1 107.0 263.85 L171.3 254.95 M-158.1 -87.1 L-158.15 -87.1 -170.1 -123.0 -170.1 -138.1 -128.95 -117.5 -74.05 -123.0 -30.15 -128.5 -8.2 -95.55 -68.6 -106.55 -76.8 -57.15 -87.8 -84.6 -82.3 -106.55 -115.2 -101.05 -117.95 -87.3 -156.35 -87.3 -158.1 -87.1 M-54.85 19.65 L-79.55 30.65 -65.85 -5.0 -30.15 -32.45 -30.15 14.2 -43.9 96.5 -79.55 134.9 -57.6 88.25 -54.85 19.65 M-87.8 189.75 L-35.1 225.15 -26.85 284.8 1.95 309.5 -59.8 303.35 -65.95 258.05 -87.8 189.75" fill="#000000" fill-opacity="0.09803922" fill-rule="evenodd" stroke="none"/>
    <path d="M44.4 108.45 L54.9 99.25 107.0 263.85 137.2 170.55 139.95 93.75 134.45 0.45 96.05 19.65 104.25 -79.1 126.2 -139.45 85.05 -183.35 117.95 -265.65 131.7 -180.6 161.9 -131.25 150.9 -35.2 172.85 112.95 161.9 167.8 171.3 254.95 107.0 263.85 Q98.7 272.1 91.05 287.95 88.2 293.9 74.75 335.1 L74.7 335.3 53.0 340.2 Q34.25 343.85 23.45 345.05 L-11.95 347.65 Q-21.4 348.0 -27.65 347.95 L-83.7 334.85 -156.5 317.75 -157.6 310.3 -159.05 271.3 -159.0 271.3 Q-138.8 277.45 -131.65 280.3 L-90.55 239.15 -87.8 189.75 -10.95 156.85 44.4 108.45 M-87.8 189.75 L-65.95 258.05 -59.8 303.35 1.95 309.5 -26.85 284.8 -35.1 225.15 -87.8 189.75" fill="#000000" fill-opacity="0.2" fill-rule="evenodd" stroke="none"/>
    <path d="M117.95 -265.65 L71.35 -306.8 2.75 -347.95 -18.9 -341.2 -18.9 -341.15 -85.05 -320.5 -145.4 -273.85 -152.15 -258.8 -152.2 -258.8 -170.1 -219.0 -170.1 -215.05 -170.1 -138.1 -170.1 -123.0 -158.15 -87.1 -158.1 -87.1 -150.9 -65.4 -156.7 -33.5 Q-161.5 -1.25 -156.35 0.45 -151.2 2.15 -158.75 27.55 -162.55 40.25 -167.35 52.6 L-172.85 159.6 -161.85 228.15 -142.65 252.85 -159.1 269.35 -159.0 271.3 -159.05 271.3 -157.6 310.3 -156.5 317.75 -83.7 334.85 -27.65 347.95 Q-21.4 348.0 -11.95 347.65 L23.45 345.05 Q34.25 343.85 53.0 340.2 L74.7 335.3 74.75 335.1 M117.95 -265.65 L131.7 -180.6 161.9 -131.25 150.9 -35.2 172.85 112.95 161.9 167.8 171.3 254.95 172.85 269.35 167.45 276.6 Q161.65 284.05 160.75 285.8 157.8 291.5 151.1 305.5 143.8 320.65 141.85 325.35 140.45 328.7 138.5 329.05 137.1 329.3 134.2 327.95 130.15 326.0 128.4 325.55 L120.55 325.35 116.55 327.35 Q115.25 328.0 113.9 325.35 112.85 323.2 94.75 328.7 85.5 331.5 74.7 335.3" fill="none" stroke="#000000" stroke-linecap="round" stroke-linejoin="miter-clip" stroke-miterlimit="4.0" stroke-width="1.0"/>
  </g>
</svg>
