<?xml version="1.0" encoding="UTF-8" standalone="no"?>
<svg xmlns:xlink="http://www.w3.org/1999/xlink" height="692.55px" width="424.95px" xmlns="http://www.w3.org/2000/svg">
  <g transform="matrix(1.0, 0.0, 0.0, 1.0, 0.5, 0.5)">
    <path d="M176.4 0.0 L227.75 0.0 423.95 507.9 423.95 649.6 176.4 0.0 M0.0 99.7 L0.0 0.0 65.2 0.0 329.6 691.55 226.65 691.55 0.0 99.7" fill="#ffffff" fill-opacity="0.34901962" fill-rule="evenodd" stroke="none"/>
    <path d="M176.4 0.0 L423.95 649.6 423.95 691.55 329.6 691.55 65.2 0.0 176.4 0.0 M423.95 507.9 L227.75 0.0 423.95 0.0 423.95 507.9 M0.0 99.7 L226.65 691.55 0.0 691.55 0.0 99.7" fill="#ffffff" fill-opacity="0.0" fill-rule="evenodd" stroke="none"/>
    <path d="M227.75 0.0 L176.4 0.0 65.2 0.0 0.0 0.0 0.0 99.7 0.0 691.55 226.65 691.55 329.6 691.55 423.95 691.55 423.95 649.6 423.95 507.9 423.95 0.0 227.75 0.0 Z" fill="none" stroke="#000000" stroke-linecap="round" stroke-linejoin="round" stroke-opacity="0.4" stroke-width="1.0"/>
  </g>
</svg>
