<?xml version="1.0" encoding="UTF-8" standalone="no"?>
<svg xmlns:xlink="http://www.w3.org/1999/xlink" height="29.1px" width="46.1px" xmlns="http://www.w3.org/2000/svg">
  <g transform="matrix(1.0, 0.0, 0.0, 1.0, 0.5, 0.5)">
    <path d="M0.0 27.3 L0.0 17.85 0.8 17.85 16.2 18.3 26.3 19.2 Q36.85 20.6 36.85 22.55 36.85 24.55 26.3 25.9 L16.2 26.85 0.8 27.3 0.0 27.3" fill="#000000" fill-opacity="0.34901962" fill-rule="evenodd" stroke="none"/>
    <path d="M0.0 0.0 L0.5 0.0 Q23.4 0.0 34.85 3.75 L36.15 4.2 Q41.15 6.1 43.3 8.9 45.1 11.25 45.1 14.9 45.1 18.7 43.6 20.9 41.45 24.05 35.45 26.0 29.8 27.9 19.35 28.1 L16.2 28.1 0.5 28.0 0.0 28.0 0.0 27.3 0.8 27.3 16.2 26.85 26.3 25.9 Q36.85 24.55 36.85 22.55 36.85 20.6 26.3 19.2 L16.2 18.3 0.8 17.85 0.0 17.85 0.0 0.0" fill="#000000" fill-opacity="0.14901961" fill-rule="evenodd" stroke="none"/>
    <path d="M0.0 0.0 L0.5 0.0 Q23.4 0.0 34.85 3.75 L36.15 4.2 Q41.15 6.1 43.3 8.9 45.1 11.25 45.1 14.9 45.1 18.7 43.6 20.9 41.45 24.05 35.45 26.0 29.8 27.9 19.35 28.1 L16.2 28.1 0.5 28.0 0.0 28.0" fill="none" stroke="#373535" stroke-linecap="round" stroke-linejoin="round" stroke-width="1.0"/>
  </g>
</svg>
