<?xml version="1.0" encoding="UTF-8" standalone="no"?>
<svg xmlns:xlink="http://www.w3.org/1999/xlink" height="988.25px" width="963.75px" xmlns="http://www.w3.org/2000/svg">
  <g transform="matrix(1.0, 0.0, 0.0, 1.0, 0.75, 0.5)">
    <path d="M590.7 233.7 Q609.85 230.95 606.75 232.0 604.25 232.8 590.7 233.7" fill="#9b9c9f" fill-rule="evenodd" stroke="none"/>
    <path d="M408.4 344.95 L408.45 343.5 Q410.7 281.85 420.25 268.55 L435.1 244.2 Q451.05 218.3 456.75 210.7 L476.15 186.35 502.45 152.85 514.6 165.0 Q506.25 188.25 497.3 214.2 L489.9 236.05 Q455.6 277.6 453.7 282.25 452.3 285.8 448.6 291.85 L442.0 302.5 Q434.1 315.7 435.45 321.05 436.9 326.75 432.9 365.6 L428.6 403.3 418.35 376.75 Q409.95 353.9 408.4 344.95 M476.55 279.95 Q473.8 293.4 482.1 328.95 491.8 366.0 493.3 375.1 L498.65 353.8 Q504.75 331.0 508.55 323.35 510.55 319.3 511.4 320.8 L513.1 327.9 Q516.7 344.0 526.8 350.75 526.05 360.65 526.4 371.7 527.2 393.75 532.9 399.45 538.6 405.15 537.85 419.65 L537.85 419.8 517.65 433.0 499.4 490.05 Q492.55 496.35 486.0 501.5 472.85 511.75 474.3 506.05 475.7 500.35 471.45 470.95 L465.15 430.7 Q463.7 420.7 463.15 373.3 462.85 349.6 462.85 327.9 L476.55 279.95" fill="#000000" fill-opacity="0.29803923" fill-rule="evenodd" stroke="none"/>
    <path d="M611.95 366.5 L612.85 365.95 660.6 338.9 662.0 338.2 662.7 337.8 664.05 337.1 664.35 336.95 665.2 336.5 665.55 336.3 666.3 335.9 667.05 335.5 667.35 335.3 667.7 335.15 669.25 334.3 669.7 334.05 671.25 333.25 671.7 333.0 672.55 332.55 673.75 331.9 674.4 331.6 676.1 330.7 676.5 330.45 681.1 328.05 681.6 327.8 682.2 327.5 Q682.9 327.05 683.7 326.7 L686.9 325.0 687.4 324.7 688.75 324.0 689.25 323.75 691.75 322.45 692.9 321.85 693.45 321.55 696.15 320.15 698.25 319.05 699.1 318.6 Q699.6 318.3 700.05 318.1 L702.4 316.9 704.05 316.0 706.65 314.65 708.2 313.85 710.2 312.8 Q759.2 287.35 806.2 263.95 L758.2 291.4 Q720.9 313.1 681.9 336.8 603.85 384.15 595.3 394.15 598.15 396.45 602.15 399.0 610.15 404.15 615.85 405.55 619.8 406.55 666.3 397.75 L694.2 388.7 Q736.35 374.75 776.5 359.9 L806.95 369.05 714.85 388.15 666.3 397.75 Q608.05 415.95 599.9 412.4 589.9 408.1 588.2 411.0 587.65 411.9 588.0 413.4 L588.45 414.7 Q587.3 415.85 585.6 418.7 582.2 424.4 579.35 433.0 577.8 437.65 575.4 439.35 573.85 440.45 570.2 441.0 565.75 441.6 563.25 442.6 558.7 444.45 554.2 448.95 545.65 457.5 535.35 475.8 L526.8 492.35 517.65 535.75 514.8 564.3 514.25 569.6 Q511.15 597.75 508.55 613.4 505.7 630.55 510.25 659.1 511.7 667.95 513.7 677.0 L515.4 684.2 506.25 743.55 512.7 757.2 519.4 771.85 Q533.1 802.1 535.95 812.1 538.6 821.45 550.2 830.65 L561.65 839.4 Q569.1 845.25 574.75 850.9 581.8 857.9 604.75 876.0 621.45 889.15 622.7 894.3 624.15 900.0 656.7 922.85 672.95 934.3 688.95 944.55 L693.4 947.7 Q698.9 951.75 704.1 956.25 720.65 970.5 727.75 983.35 718.65 985.05 705.5 986.2 679.25 988.5 659.25 985.65 648.6 984.15 639.8 981.1 634.75 979.4 625.3 975.1 605.95 966.3 586.2 962.8 560.9 958.35 533.1 955.65 L503.95 953.65 Q498.15 953.65 463.7 957.35 428.1 961.2 421.75 962.8 416.4 964.15 401.2 965.65 L339.55 971.95 371.5 951.4 Q364.65 949.1 352.95 946.85 329.55 942.25 305.3 942.25 L305.0 942.25 304.25 942.25 303.95 942.25 303.65 942.25 Q288.6 942.4 268.6 944.65 L268.4 944.7 233.65 949.75 231.35 950.15 229.9 949.1 Q244.2 937.1 259.3 924.85 289.55 900.3 293.85 898.85 296.1 898.1 301.7 892.35 L313.85 879.15 Q332.8 858.45 344.1 850.9 356.95 842.35 372.35 817.2 380.05 804.65 385.2 793.8 L356.2 814.2 Q330.6 835.25 307.25 853.5 277.7 876.55 273.3 878.3 L225.9 902.0 Q181.95 924.0 161.4 930.85 140.0 938.0 105.95 957.2 88.9 966.8 76.15 975.0 80.7 961.3 89.85 944.95 108.1 912.2 130.95 898.85 148.5 888.6 182.35 864.25 214.15 841.3 231.45 831.85 241.75 826.95 252.5 820.95 272.8 809.55 294.85 794.25 333.5 767.35 377.4 728.35 418.5 691.8 446.85 661.35 L465.15 612.55 Q485.7 557.15 497.1 524.35 508.55 491.5 538.25 461.25 553.1 446.1 565.65 437.55 553.1 446.1 538.25 461.25 508.55 491.5 497.1 524.35 485.7 557.15 465.15 612.55 L446.85 661.35 Q418.5 691.8 377.4 728.35 333.5 767.35 294.85 794.25 272.8 809.55 252.5 820.95 293.1 783.75 346.7 695.6 377.2 645.35 398.9 601.95 L344.15 682.6 Q355.4 659.85 373.8 611.4 393.65 559.05 401.2 542.6 416.9 508.35 417.45 445.55 417.75 414.15 414.9 389.6 L433.1 441.95 451.45 494.65 451.45 444.4 452.3 405.0 Q452.85 363.9 451.45 355.35 450.0 346.75 462.0 304.5 468.0 283.4 474.3 264.0 L505.95 228.0 Q540.8 189.2 556.5 174.9 571.55 161.25 607.35 141.75 627.8 130.6 645.0 122.65 647.85 124.05 637.85 129.05 632.6 131.45 627.3 133.8 L572.5 170.35 Q567.15 173.9 541.65 198.3 515.75 223.1 510.8 229.7 507.25 234.45 537.95 235.1 562.5 235.6 590.7 233.7 566.65 237.2 543.65 241.6 514.95 247.05 508.55 250.25 500.0 254.55 487.4 267.7 L476.55 279.95 462.85 327.9 Q462.85 349.6 463.15 373.3 463.7 420.7 465.15 430.7 L471.45 470.95 Q475.7 500.35 474.3 506.05 468.0 528.3 459.45 555.7 442.3 610.55 430.9 636.25 424.3 651.05 404.05 677.1 385.4 701.1 360.1 728.45 L347.15 742.2 360.1 728.45 Q385.4 701.1 404.05 677.1 424.3 651.05 430.9 636.25 442.3 610.55 459.45 555.7 468.0 528.3 474.3 506.05 472.85 511.75 486.0 501.5 492.55 496.35 499.4 490.05 L517.65 433.0 537.85 419.8 550.8 411.35 553.9 409.3 Q592.2 383.6 602.15 373.6 L603.15 372.7 603.25 372.65 604.65 371.5 604.75 371.4 610.7 367.3 611.8 366.6 611.95 366.5 M611.35 309.2 L625.5 285.8 Q672.85 205.3 682.85 158.15 L681.45 148.1 Q679.55 135.65 676.85 123.9 668.3 86.25 655.45 69.1 L658.0 69.3 Q661.15 69.75 664.0 70.8 673.15 74.25 676.0 82.8 L698.85 151.3 705.65 139.6 Q714.45 125.35 724.25 112.5 755.65 71.4 785.65 59.95 L806.2 53.1 Q791.95 64.55 775.95 78.5 743.95 106.5 735.4 119.35 L774.2 103.35 759.65 114.5 Q743.1 126.45 733.1 130.75 723.95 138.2 713.95 149.6 694.0 172.45 689.7 192.4 L696.55 203.85 Q688.0 211.3 679.15 223.25 662.1 246.4 660.15 268.4 L650.5 276.15 Q626.35 295.75 611.35 309.2 M347.15 742.2 Q355.9 728.5 365.9 712.05 387.25 677.05 394.35 661.35 398.75 651.7 406.25 628.5 414.05 604.45 421.15 578.3 439.25 511.7 437.75 490.05 436.45 472.2 433.1 441.95 436.45 472.2 437.75 490.05 439.25 511.7 421.15 578.3 414.05 604.45 406.25 628.5 398.75 651.7 394.35 661.35 387.25 677.05 365.9 712.05 355.9 728.5 347.15 742.2 329.25 760.75 312.7 775.95 306.9 781.25 294.85 794.25 306.9 781.25 312.7 775.95 329.25 760.75 347.15 742.2 M514.25 569.6 L499.2 623.85 Q480.35 690.3 472.0 707.05 462.9 725.25 371.8 801.25 L356.2 814.2 371.8 801.25 Q462.9 725.25 472.0 707.05 480.35 690.3 499.2 623.85 L514.25 569.6 M372.2 937.5 Q373.1 927.3 375.2 913.85 379.15 888.05 385.5 863.5 401.9 799.95 421.75 789.25 440.3 779.25 479.7 730.75 499.4 706.45 515.4 684.2 499.4 706.45 479.7 730.75 440.3 779.25 421.75 789.25 401.9 799.95 385.5 863.5 379.15 888.05 375.2 913.85 373.1 927.3 372.2 937.5 380.05 910.6 391.5 880.3 415.5 816.95 435.45 798.4 445.75 788.8 477.05 765.2 492.7 753.45 506.25 743.55 492.7 753.45 477.05 765.2 445.75 788.8 435.45 798.4 415.5 816.95 391.5 880.3 380.05 910.6 372.2 937.5 371.5 945.45 371.5 951.4 371.5 945.45 372.2 937.5 L371.5 939.95 372.2 937.5 M579.35 924.0 Q573.3 917.2 562.35 911.35 556.55 908.3 541.1 901.75 526.65 895.6 518.95 891.2 507.05 884.45 499.4 876.0 485.1 860.3 478.3 822.05 474.85 802.95 474.3 786.95 474.85 802.95 478.3 822.05 485.1 860.3 499.4 876.0 507.05 884.45 518.95 891.2 526.65 895.6 541.1 901.75 556.55 908.3 562.35 911.35 573.3 917.2 579.35 924.0 576.4 918.05 564.35 907.35 L539.95 886.85 Q524.15 873.7 516.4 865.55 505.5 854.05 503.95 846.35 501.1 832.05 506.8 792.1 509.5 773.4 512.7 757.2 509.5 773.4 506.8 792.1 501.1 832.05 503.95 846.35 505.5 854.05 516.4 865.55 524.15 873.7 539.95 886.85 L564.35 907.35 Q576.4 918.05 579.35 924.0 585.05 935.4 607.85 955.95 619.3 966.25 629.55 974.25 619.3 966.25 607.85 955.95 585.05 935.4 579.35 924.0" fill="#000000" fill-opacity="0.14901961" fill-rule="evenodd" stroke="none"/>
    <path d="M660.15 268.4 Q700.9 235.9 712.55 232.0 723.45 228.35 773.05 166.9 L808.9 121.95 Q826.8 99.5 831.3 94.95 L833.65 94.6 Q836.4 94.35 838.55 94.6 845.4 95.35 843.5 101.05 841.6 106.75 804.3 156.25 L767.35 204.6 789.55 194.1 Q816.7 181.45 841.95 170.7 922.65 136.45 953.1 134.55 L962.25 146.75 Q910.5 165.0 854.5 186.35 742.6 228.95 721.7 244.2 697.5 261.8 673.75 292.15 651.0 321.2 648.6 335.55 L611.95 366.5 611.8 366.6 610.7 367.3 604.75 371.4 604.65 371.5 603.25 372.65 603.15 372.7 602.15 373.6 Q592.2 383.6 553.9 409.3 L550.8 411.35 563.7 380.45 Q581.2 340.85 590.75 329.45 596.75 322.2 611.35 309.2 626.35 295.75 650.5 276.15 L660.15 268.4 M489.9 236.05 L502.25 221.15 Q547.35 167.05 547.35 163.5 547.35 161.0 557.75 154.5 567.65 148.3 582.45 141.25 618.5 124.0 636.4 122.4 652.1 120.95 641.3 127.25 L632.25 131.7 627.3 133.8 Q632.6 131.45 637.85 129.05 647.85 124.05 645.0 122.65 627.8 130.6 607.35 141.75 571.55 161.25 556.5 174.9 540.8 189.2 505.95 228.0 L474.3 264.0 Q468.0 283.4 462.0 304.5 450.0 346.75 451.45 355.35 452.85 363.9 452.3 405.0 L451.45 444.4 451.45 494.65 433.1 441.95 432.3 434.7 428.6 403.3 432.3 434.7 433.1 441.95 414.9 389.6 Q417.75 414.15 417.45 445.55 416.9 508.35 401.2 542.6 393.65 559.05 373.8 611.4 355.4 659.85 344.15 682.6 L398.9 601.95 Q377.2 645.35 346.7 695.6 293.1 783.75 252.5 820.95 241.75 826.95 231.45 831.85 L219.25 807.5 226.1 796.85 Q233.7 784.7 237.5 777.05 239.5 773.1 242.1 759.85 L247.05 732.9 Q253.8 695.5 258.85 688.75 263.25 682.85 279.4 668.2 296.65 652.5 304.5 643.1 314.75 630.8 322.4 585.6 328.9 547.4 328.9 521.3 L329.2 498.55 Q329.35 483.7 328.9 474.1 327.5 445.75 319.75 436.0 309.5 423.2 304.9 405.1 302.7 396.55 301.25 383.6 L297.3 380.1 Q269.1 356.45 255.8 350.75 242.35 344.95 207.1 353.8 195.05 356.8 167.5 366.0 161.25 368.1 146.95 364.1 141.55 362.6 139.25 361.3 136.8 359.9 140.1 359.9 145.8 359.9 181.55 347.75 199.45 341.65 216.2 335.55 L210.5 329.65 Q202.85 322.4 193.35 315.75 162.9 294.45 124.85 286.8 L109.0 284.1 Q77.2 279.5 39.6 280.7 16.0 281.5 0.0 283.75 5.7 268.55 76.55 268.55 L124.65 270.05 146.2 271.6 119.95 248.4 Q91.75 223.25 82.25 213.75 72.7 204.2 76.55 194.35 78.45 189.4 82.25 186.35 93.65 203.85 113.05 223.65 151.9 263.2 191.85 274.65 231.8 286.05 266.1 278.45 L269.5 277.65 Q253.45 258.1 229.45 240.65 214.65 229.85 193.45 217.35 L156.4 196.25 Q146.1 190.4 136.55 184.75 101.75 164.2 75.9 146.2 33.75 116.75 3.05 85.85 -0.75 82.05 11.45 77.45 L24.4 73.65 Q108.5 127.95 171.7 170.35 160.45 142.05 144.6 76.1 136.65 43.1 130.95 15.8 134.75 -0.4 137.8 0.0 138.75 0.1 139.55 1.85 L140.1 3.6 Q152.95 53.5 174.9 116.05 188.55 155.05 203.1 191.7 229.9 210.15 237.55 216.75 252.75 230.1 278.65 249.15 L301.45 265.5 294.8 252.45 Q286.45 237.4 277.85 227.45 269.85 218.1 267.6 193.2 267.0 186.9 266.3 176.05 265.6 167.95 264.15 165.8 261.3 161.5 268.15 119.8 271.6 99.0 275.6 79.0 L280.15 124.65 Q278.45 133.2 277.6 144.05 275.85 165.75 280.15 177.2 284.45 188.6 293.0 177.2 297.3 171.5 300.7 163.5 L298.45 197.75 Q293.9 200.05 291.85 205.75 287.85 217.2 300.7 234.3 313.3 251.15 331.75 284.5 L332.4 285.7 348.65 316.5 350.95 330.2 380.65 359.9 376.95 334.5 Q372.95 307.65 371.5 300.5 370.15 293.75 372.95 273.7 L376.1 250.25 Q376.1 245.95 389.8 168.9 L403.5 92.7 406.95 100.4 Q410.35 108.95 410.35 113.25 410.35 118.75 408.9 129.25 407.4 140.35 405.75 145.2 404.35 149.5 400.35 177.45 L396.65 204.6 Q404.8 200.5 412.9 196.35 430.6 186.65 437.75 179.5 444.9 172.35 468.3 154.65 L490.25 138.35 467.45 165.8 Q461.75 172.65 454.05 180.65 438.6 196.6 428.6 202.3 418.5 208.1 415.2 219.45 414.15 223.0 412.85 230.55 411.45 238.95 410.35 243.4 407.95 252.85 400.65 269.4 394.35 283.5 394.35 286.8 394.35 289.65 401.2 312.5 408.05 335.35 408.05 341.6 408.05 342.9 408.4 344.95 409.95 353.9 418.35 376.75 L428.6 403.3 432.9 365.6 Q436.9 326.75 435.45 321.05 434.1 315.7 442.0 302.5 L448.6 291.85 Q452.3 285.8 453.7 282.25 455.6 277.6 489.9 236.05 M339.55 339.35 Q342.4 330.8 336.7 304.5 334.4 293.95 331.75 284.5 334.4 293.95 336.7 304.5 342.4 330.8 339.55 339.35 337.65 345.1 338.55 360.3 337.65 345.1 339.55 339.35 334.6 289.85 225.05 228.2 190.8 208.95 150.25 190.75 L136.55 184.75 150.25 190.75 Q190.8 208.95 225.05 228.2 334.6 289.85 339.55 339.35 M371.15 525.6 Q376.65 493.0 374.05 443.9 373.5 433.9 369.7 422.5 365.25 409.45 364.0 400.0 L338.55 360.3 364.0 400.0 Q365.25 409.45 369.7 422.5 373.5 433.9 374.05 443.9 376.65 493.0 371.15 525.6 372.1 504.1 360.8 460.65 356.0 442.25 349.6 422.1 L344.1 405.55 340.1 377.6 Q339.0 367.8 338.55 360.3 339.0 367.8 340.1 377.6 L344.1 405.55 349.6 422.1 Q356.0 442.25 360.8 460.65 372.1 504.1 371.15 525.6 366.95 550.45 358.1 565.7 391.5 511.0 394.35 492.35 397.2 473.8 389.2 415.0 385.2 385.6 380.65 359.9 385.2 385.6 389.2 415.0 397.2 473.8 394.35 492.35 391.5 511.0 358.1 565.7 366.95 550.45 371.15 525.6 370.8 533.2 368.95 538.05 370.8 533.2 371.15 525.6 M153.05 287.2 Q130.0 284.9 109.0 284.1 130.0 284.9 153.05 287.2 L182.35 290.6 Q255.1 300.25 292.95 318.9 255.1 300.25 182.35 290.6 L153.05 287.2 Q171.2 292.65 188.65 298.8 264.15 325.25 298.45 353.8 264.15 325.25 188.65 298.8 171.2 292.65 153.05 287.2 M304.5 643.1 Q309.4 638.75 323.35 618.9 337.5 598.75 352.6 574.55 L356.05 569.0 356.4 568.45 356.6 568.1 358.1 565.7 356.6 568.1 356.4 568.45 356.05 569.0 352.6 574.55 Q337.5 598.75 323.35 618.9 309.4 638.75 304.5 643.1 M292.95 318.9 Q295.35 326.85 296.8 336.15 298.1 344.4 300.1 371.0 300.6 377.75 301.25 383.6 300.6 377.75 300.1 371.0 298.1 344.4 296.8 336.15 295.35 326.85 292.95 318.9 290.3 310.15 286.5 303.0 279.55 289.9 269.5 277.65 279.55 289.9 286.5 303.0 290.3 310.15 292.95 318.9 M76.15 975.0 Q88.9 966.8 105.95 957.2 140.0 938.0 161.4 930.85 181.95 924.0 225.9 902.0 L273.3 878.3 Q277.7 876.55 307.25 853.5 330.6 835.25 356.2 814.2 L385.2 793.8 Q380.05 804.65 372.35 817.2 356.95 842.35 344.1 850.9 332.8 858.45 313.85 879.15 L301.7 892.35 Q296.1 898.1 293.85 898.85 289.55 900.3 259.3 924.85 244.2 937.1 229.9 949.1 L231.35 950.15 Q207.05 954.35 193.4 958.25 L176.55 963.55 Q163.0 967.7 150.75 970.3 113.25 978.35 76.15 975.0" fill="#ffffff" fill-opacity="0.0" fill-rule="evenodd" stroke="none"/>
    <path d="M660.15 268.4 Q700.9 235.9 712.55 232.0 723.45 228.35 773.05 166.9 L808.9 121.95 Q826.8 99.5 831.3 94.95 L833.65 94.6 Q836.4 94.35 838.55 94.6 845.4 95.35 843.5 101.05 841.6 106.75 804.3 156.25 L767.35 204.6 789.55 194.1 Q816.7 181.45 841.95 170.7 922.65 136.45 953.1 134.55 L962.25 146.75 Q910.5 165.0 854.5 186.35 742.6 228.95 721.7 244.2 697.5 261.8 673.75 292.15 651.0 321.2 648.6 335.55 L611.95 366.5 612.85 365.95 660.6 338.9 662.0 338.2 662.7 337.8 664.05 337.1 664.35 336.95 665.2 336.5 665.55 336.3 666.3 335.9 667.05 335.5 667.35 335.3 667.7 335.15 669.25 334.3 669.7 334.05 671.25 333.25 671.7 333.0 672.55 332.55 673.75 331.9 674.4 331.6 676.1 330.7 676.5 330.45 681.1 328.05 681.6 327.8 682.2 327.5 Q682.9 327.05 683.7 326.7 L686.9 325.0 687.4 324.7 688.75 324.0 689.25 323.75 691.75 322.45 692.9 321.85 693.45 321.55 696.15 320.15 698.25 319.05 699.1 318.6 Q699.6 318.3 700.05 318.1 L702.4 316.9 704.05 316.0 706.65 314.65 708.2 313.85 710.2 312.8 Q759.2 287.35 806.2 263.95 L758.2 291.4 Q720.9 313.1 681.9 336.8 603.85 384.15 595.3 394.15 598.15 396.45 602.15 399.0 610.15 404.15 615.85 405.55 619.8 406.55 666.3 397.75 L694.2 388.7 Q736.35 374.75 776.5 359.9 L806.95 369.05 714.85 388.15 666.3 397.75 Q608.05 415.95 599.9 412.4 589.9 408.1 588.2 411.0 587.65 411.9 588.0 413.4 L588.45 414.7 Q587.3 415.85 585.6 418.7 582.2 424.4 579.35 433.0 577.8 437.65 575.4 439.35 573.85 440.45 570.2 441.0 565.75 441.6 563.25 442.6 558.7 444.45 554.2 448.95 545.65 457.5 535.35 475.8 L526.8 492.35 517.65 535.75 514.8 564.3 514.25 569.6 Q511.15 597.75 508.55 613.4 505.7 630.55 510.25 659.1 511.7 667.95 513.7 677.0 L515.4 684.2 506.25 743.55 M512.7 757.2 L513.1 755.0 M611.35 309.2 L625.5 285.8 Q672.85 205.3 682.85 158.15 L681.45 148.1 Q679.55 135.65 676.85 123.9 668.3 86.25 655.45 69.1 L658.0 69.3 Q661.15 69.75 664.0 70.8 673.15 74.25 676.0 82.8 L698.85 151.3 705.65 139.6 Q714.45 125.35 724.25 112.5 755.65 71.4 785.65 59.95 L806.2 53.1 Q791.95 64.55 775.95 78.5 743.95 106.5 735.4 119.35 L774.2 103.35 759.65 114.5 Q743.1 126.45 733.1 130.75 723.95 138.2 713.95 149.6 694.0 172.45 689.7 192.4 L696.55 203.85 Q688.0 211.3 679.15 223.25 662.1 246.4 660.15 268.4 M611.35 309.2 Q596.75 322.2 590.75 329.45 581.2 340.85 563.7 380.45 L550.8 411.35 537.85 419.8 537.85 419.65 Q538.6 405.15 532.9 399.45 527.2 393.75 526.4 371.7 526.05 360.65 526.8 350.75 516.7 344.0 513.1 327.9 L511.4 320.8 Q510.55 319.3 508.55 323.35 504.75 331.0 498.65 353.8 L493.3 375.1 Q491.8 366.0 482.1 328.95 473.8 293.4 476.55 279.95 L487.4 267.7 Q500.0 254.55 508.55 250.25 514.95 247.05 543.65 241.6 566.65 237.2 590.7 233.7 562.5 235.6 537.95 235.1 507.25 234.45 510.8 229.7 515.75 223.1 541.65 198.3 567.15 173.9 572.5 170.35 L627.3 133.8 632.25 131.7 641.3 127.25 Q652.1 120.95 636.4 122.4 618.5 124.0 582.45 141.25 567.65 148.3 557.75 154.5 547.35 161.0 547.35 163.5 547.35 167.05 502.25 221.15 L489.9 236.05 497.3 214.2 Q506.25 188.25 514.6 165.0 L502.45 152.85 476.15 186.35 456.75 210.7 Q451.05 218.3 435.1 244.2 L420.25 268.55 Q410.7 281.85 408.45 343.5 L408.4 344.95 Q408.05 342.9 408.05 341.6 408.05 335.35 401.2 312.5 394.35 289.65 394.35 286.8 394.35 283.5 400.65 269.4 407.95 252.85 410.35 243.4 411.45 238.95 412.85 230.55 414.15 223.0 415.2 219.45 418.5 208.1 428.6 202.3 438.6 196.6 454.05 180.65 461.75 172.65 467.45 165.8 L490.25 138.35 468.3 154.65 Q444.9 172.35 437.75 179.5 430.6 186.65 412.9 196.35 404.8 200.5 396.65 204.6 L400.35 177.45 Q404.35 149.5 405.75 145.2 407.4 140.35 408.9 129.25 410.35 118.75 410.35 113.25 410.35 108.95 406.95 100.4 L403.5 92.7 389.8 168.9 Q376.1 245.95 376.1 250.25 L372.95 273.7 Q370.15 293.75 371.5 300.5 372.95 307.65 376.95 334.5 L380.65 359.9 350.95 330.2 348.65 316.5 332.4 285.7 331.75 284.5 Q313.3 251.15 300.7 234.3 287.85 217.2 291.85 205.75 293.9 200.05 298.45 197.75 L300.7 163.5 Q297.3 171.5 293.0 177.2 284.45 188.6 280.15 177.2 275.85 165.75 277.6 144.05 278.45 133.2 280.15 124.65 L275.6 79.0 Q271.6 99.0 268.15 119.8 261.3 161.5 264.15 165.8 265.6 167.95 266.3 176.05 267.0 186.9 267.6 193.2 269.85 218.1 277.85 227.45 286.45 237.4 294.8 252.45 L301.45 265.5 278.65 249.15 Q252.75 230.1 237.55 216.75 229.9 210.15 203.1 191.7 188.55 155.05 174.9 116.05 152.95 53.5 140.1 3.6 L139.55 1.85 Q138.75 0.1 137.8 0.0 134.75 -0.4 130.95 15.8 136.65 43.1 144.6 76.1 160.45 142.05 171.7 170.35 108.5 127.95 24.4 73.65 L11.45 77.45 Q-0.75 82.05 3.05 85.85 33.75 116.75 75.9 146.2 101.75 164.2 136.55 184.75 146.1 190.4 156.4 196.25 L193.45 217.35 Q214.65 229.85 229.45 240.65 253.45 258.1 269.5 277.65 L266.1 278.45 Q231.8 286.05 191.85 274.65 151.9 263.2 113.05 223.65 93.65 203.85 82.25 186.35 78.45 189.4 76.55 194.35 72.7 204.2 82.25 213.75 91.75 223.25 119.95 248.4 L146.2 271.6 124.65 270.05 76.55 268.55 Q5.7 268.55 0.0 283.75 16.0 281.5 39.6 280.7 77.2 279.5 109.0 284.1 L124.85 286.8 Q162.9 294.45 193.35 315.75 202.85 322.4 210.5 329.65 L216.2 335.55 Q199.45 341.65 181.55 347.75 145.8 359.9 140.1 359.9 136.8 359.9 139.25 361.3 141.55 362.6 146.95 364.1 161.25 368.1 167.5 366.0 195.05 356.8 207.1 353.8 242.35 344.95 255.8 350.75 269.1 356.45 297.3 380.1 L301.25 383.6 Q302.7 396.55 304.9 405.1 309.5 423.2 319.75 436.0 327.5 445.75 328.9 474.1 329.35 483.7 329.2 498.55 L328.9 521.3 Q328.9 547.4 322.4 585.6 314.75 630.8 304.5 643.1 296.65 652.5 279.4 668.2 263.25 682.85 258.85 688.75 253.8 695.5 247.05 732.9 L242.1 759.85 Q239.5 773.1 237.5 777.05 233.7 784.7 226.1 796.85 L219.25 807.5 231.45 831.85 Q214.15 841.3 182.35 864.25 148.5 888.6 130.95 898.85 108.1 912.2 89.85 944.95 80.7 961.3 76.15 975.0 113.25 978.35 150.75 970.3 163.0 967.7 176.55 963.55 L193.4 958.25 Q207.05 954.35 231.35 950.15 L233.65 949.75 268.4 944.7 268.6 944.65 Q288.6 942.4 303.65 942.25 L303.95 942.25 304.25 942.25 305.0 942.25 305.3 942.25 Q329.55 942.25 352.95 946.85 364.65 949.1 371.5 951.4 L339.55 971.95 401.2 965.65 Q416.4 964.15 421.75 962.8 428.1 961.2 463.7 957.35 498.15 953.65 503.95 953.65 L533.1 955.65 Q560.9 958.35 586.2 962.8 605.95 966.3 625.3 975.1 634.75 979.4 639.8 981.1 648.6 984.15 659.25 985.65 679.25 988.5 705.5 986.2 718.65 985.05 727.75 983.35 720.65 970.5 704.1 956.25 698.9 951.75 693.4 947.7 L688.95 944.55 Q672.95 934.3 656.7 922.85 624.15 900.0 622.7 894.3 621.45 889.15 604.75 876.0 581.8 857.9 574.75 850.9 569.1 845.25 561.65 839.4 L550.2 830.65 Q538.6 821.45 535.95 812.1 533.1 802.1 519.4 771.85 L512.7 757.2" fill="none" stroke="#000000" stroke-linecap="round" stroke-linejoin="miter-clip" stroke-miterlimit="4.0" stroke-width="1.0"/>
    <path d="M506.25 743.55 L512.7 757.2 M660.15 268.4 L650.5 276.15 Q626.35 295.75 611.35 309.2 M590.7 233.7 Q609.85 230.95 606.75 232.0 604.25 232.8 590.7 233.7 M433.1 441.95 Q436.45 472.2 437.75 490.05 439.25 511.7 421.15 578.3 414.05 604.45 406.25 628.5 398.75 651.7 394.35 661.35 387.25 677.05 365.9 712.05 355.9 728.5 347.15 742.2 329.25 760.75 312.7 775.95 306.9 781.25 294.85 794.25 272.8 809.55 252.5 820.95 241.75 826.95 231.45 831.85 M474.3 506.05 Q475.7 500.35 471.45 470.95 L465.15 430.7 Q463.7 420.7 463.15 373.3 462.85 349.6 462.85 327.9 L476.55 279.95 M408.4 344.95 Q409.95 353.9 418.35 376.75 L428.6 403.3 432.9 365.6 Q436.9 326.75 435.45 321.05 434.1 315.7 442.0 302.5 L448.6 291.85 Q452.3 285.8 453.7 282.25 455.6 277.6 489.9 236.05 M339.55 339.35 Q337.65 345.1 338.55 360.3 339.0 367.8 340.1 377.6 L344.1 405.55 349.6 422.1 Q356.0 442.25 360.8 460.65 372.1 504.1 371.15 525.6 366.95 550.45 358.1 565.7 391.5 511.0 394.35 492.35 397.2 473.8 389.2 415.0 385.2 385.6 380.65 359.9 M371.15 525.6 Q370.8 533.2 368.95 538.05 M136.55 184.75 L150.25 190.75 Q190.8 208.95 225.05 228.2 334.6 289.85 339.55 339.35 M109.0 284.1 Q130.0 284.9 153.05 287.2 171.2 292.65 188.65 298.8 264.15 325.25 298.45 353.8 M292.95 318.9 Q290.3 310.15 286.5 303.0 279.55 289.9 269.5 277.65 M301.25 383.6 Q300.6 377.75 300.1 371.0 298.1 344.4 296.8 336.15 295.35 326.85 292.95 318.9 M358.1 565.7 L356.6 568.1 356.4 568.45 356.05 569.0 352.6 574.55 Q337.5 598.75 323.35 618.9 309.4 638.75 304.5 643.1 M565.65 437.55 Q553.1 446.1 538.25 461.25 508.55 491.5 497.1 524.35 485.7 557.15 465.15 612.55 L446.85 661.35 Q418.5 691.8 377.4 728.35 333.5 767.35 294.85 794.25 M76.15 975.0 Q88.9 966.8 105.95 957.2 140.0 938.0 161.4 930.85 181.95 924.0 225.9 902.0 L273.3 878.3 Q277.7 876.55 307.25 853.5 330.6 835.25 356.2 814.2 L371.8 801.25 Q462.9 725.25 472.0 707.05 480.35 690.3 499.2 623.85 L514.25 569.6 M537.85 419.8 L517.65 433.0 499.4 490.05 Q492.55 496.35 486.0 501.5 472.85 511.75 474.3 506.05 M428.6 403.3 L432.3 434.7 433.1 441.95 M515.4 684.2 Q499.4 706.45 479.7 730.75 440.3 779.25 421.75 789.25 401.9 799.95 385.5 863.5 379.15 888.05 375.2 913.85 373.1 927.3 372.2 937.5 L371.5 939.95 M371.5 951.4 Q371.5 945.45 372.2 937.5" fill="none" stroke="#000000" stroke-linecap="round" stroke-linejoin="miter-clip" stroke-miterlimit="4.0" stroke-opacity="0.6" stroke-width="1.0"/>
    <path d="M550.8 411.35 L553.9 409.3 Q592.2 383.6 602.15 373.6 L603.15 372.7 603.25 372.65 604.65 371.5 604.75 371.4 610.7 367.3 611.8 366.6 611.95 366.5 M347.15 742.2 L360.1 728.45 Q385.4 701.1 404.05 677.1 424.3 651.05 430.9 636.25 442.3 610.55 459.45 555.7 468.0 528.3 474.3 506.05 M331.75 284.5 Q334.4 293.95 336.7 304.5 342.4 330.8 339.55 339.35 M338.55 360.3 L364.0 400.0 Q365.25 409.45 369.7 422.5 373.5 433.9 374.05 443.9 376.65 493.0 371.15 525.6 M153.05 287.2 L182.35 290.6 Q255.1 300.25 292.95 318.9 M372.2 937.5 Q380.05 910.6 391.5 880.3 415.5 816.95 435.45 798.4 445.75 788.8 477.05 765.2 492.7 753.45 506.25 743.55 M512.7 757.2 Q509.5 773.4 506.8 792.1 501.1 832.05 503.95 846.35 505.5 854.05 516.4 865.55 524.15 873.7 539.95 886.85 L564.35 907.35 Q576.4 918.05 579.35 924.0 585.05 935.4 607.85 955.95 619.3 966.25 629.55 974.25 M474.3 786.95 Q474.85 802.95 478.3 822.05 485.1 860.3 499.4 876.0 507.05 884.45 518.95 891.2 526.65 895.6 541.1 901.75 556.55 908.3 562.35 911.35 573.3 917.2 579.35 924.0" fill="none" stroke="#000000" stroke-linecap="round" stroke-linejoin="miter-clip" stroke-miterlimit="4.0" stroke-opacity="0.4" stroke-width="1.0"/>
  </g>
</svg>
