<?xml version="1.0" encoding="UTF-8" standalone="no"?>
<svg xmlns:xlink="http://www.w3.org/1999/xlink" height="335.5px" width="290.8px" xmlns="http://www.w3.org/2000/svg">
  <g transform="matrix(1.0, 0.0, 0.0, 1.0, 0.6, 0.6)">
    <path d="M193.4 333.65 L191.0 334.3 190.7 333.45 193.4 333.65" fill="#b2b4b6" fill-rule="evenodd" stroke="none"/>
    <path d="M190.7 333.45 L95.5 327.65 0.0 104.8 133.4 0.0 148.55 8.3 112.15 91.45 203.3 330.8 204.65 334.3 193.4 333.65 190.7 333.45 M115.45 188.6 Q117.85 191.2 121.2 191.2 124.55 191.2 126.9 188.6 129.3 186.0 129.3 182.35 129.3 178.7 126.9 176.1 124.55 173.5 121.2 173.5 117.85 173.5 115.45 176.1 113.1 178.65 113.1 182.35 113.1 186.05 115.45 188.6 113.1 186.05 113.1 182.35 113.1 178.65 115.45 176.1 117.85 173.5 121.2 173.5 124.55 173.5 126.9 176.1 129.3 178.7 129.3 182.35 129.3 186.0 126.9 188.6 124.55 191.2 121.2 191.2 117.85 191.2 115.45 188.6 M92.35 111.45 Q90.85 113.75 90.85 116.95 90.85 120.15 92.35 122.4 93.85 124.7 95.9 124.7 98.0 124.7 99.5 122.4 101.0 120.15 101.0 116.95 101.0 113.75 99.5 111.45 98.0 109.15 95.9 109.15 93.85 109.15 92.35 111.45 93.85 109.15 95.9 109.15 98.0 109.15 99.5 111.45 101.0 113.75 101.0 116.95 101.0 120.15 99.5 122.4 98.0 124.7 95.9 124.7 93.85 124.7 92.35 122.4 90.85 120.15 90.85 116.95 90.85 113.75 92.35 111.45 M0.0 104.8 L112.15 91.45 0.0 104.8 M147.45 255.55 Q144.95 255.55 143.15 257.5 141.4 259.45 141.4 262.2 141.4 264.95 143.15 266.9 144.95 268.85 147.45 268.85 149.95 268.85 151.75 266.9 153.55 264.95 153.55 262.2 153.55 259.45 151.75 257.5 149.95 255.55 147.45 255.55 149.95 255.55 151.75 257.5 153.55 259.45 153.55 262.2 153.55 264.95 151.75 266.9 149.95 268.85 147.45 268.85 144.95 268.85 143.15 266.9 141.4 264.95 141.4 262.2 141.4 259.45 143.15 257.5 144.95 255.55 147.45 255.55" fill="#ffffff" fill-opacity="0.0" fill-rule="evenodd" stroke="none"/>
    <path d="M148.55 8.3 L289.5 306.05 203.3 330.8 112.15 91.45 148.55 8.3" fill="#000000" fill-opacity="0.14901961" fill-rule="evenodd" stroke="none"/>
    <path d="M190.7 333.45 L95.5 327.65 0.0 104.8 133.4 0.0 148.55 8.3 289.5 306.05 203.3 330.8 204.65 334.3 193.4 333.65 191.0 334.3 190.7 333.45 193.4 333.65" fill="none" stroke="#000000" stroke-linecap="round" stroke-linejoin="miter-clip" stroke-miterlimit="4.0" stroke-width="1.0"/>
    <path d="M148.55 8.3 L112.15 91.45 203.3 330.8 M112.15 91.45 L0.0 104.8" fill="none" stroke="#000000" stroke-linecap="round" stroke-linejoin="miter-clip" stroke-miterlimit="4.0" stroke-opacity="0.6" stroke-width="1.0"/>
    <path d="M92.35 111.45 Q93.85 109.15 95.9 109.15 98.0 109.15 99.5 111.45 101.0 113.75 101.0 116.95 101.0 120.15 99.5 122.4 98.0 124.7 95.9 124.7 93.85 124.7 92.35 122.4 90.85 120.15 90.85 116.95 90.85 113.75 92.35 111.45 M115.45 188.6 Q113.1 186.05 113.1 182.35 113.1 178.65 115.45 176.1 117.85 173.5 121.2 173.5 124.55 173.5 126.9 176.1 129.3 178.7 129.3 182.35 129.3 186.0 126.9 188.6 124.55 191.2 121.2 191.2 117.85 191.2 115.45 188.6 M147.45 255.55 Q149.95 255.55 151.75 257.5 153.55 259.45 153.55 262.2 153.55 264.95 151.75 266.9 149.95 268.85 147.45 268.85 144.95 268.85 143.15 266.9 141.4 264.95 141.4 262.2 141.4 259.45 143.15 257.5 144.95 255.55 147.45 255.55" fill="none" stroke="#000000" stroke-linecap="round" stroke-linejoin="miter-clip" stroke-miterlimit="4.0" stroke-opacity="0.4" stroke-width="1.0"/>
  </g>
</svg>
