<?xml version="1.0" encoding="UTF-8" standalone="no"?>
<svg xmlns:xlink="http://www.w3.org/1999/xlink" height="32.05px" width="1102.4px" xmlns="http://www.w3.org/2000/svg">
  <g transform="matrix(1.0, 0.0, 0.0, 1.0, 551.3, -71.2)">
    <path d="M550.55 77.75 L550.55 93.65 -550.05 93.65 -550.05 77.75 -550.05 71.7 550.55 71.7 550.55 77.75" fill="#ffffff" fill-opacity="0.0" fill-rule="evenodd" stroke="none"/>
    <path d="M-550.05 77.75 L-550.05 93.65 550.55 93.65 550.55 77.75 550.6 77.75 550.6 102.75 -550.8 102.75 -550.8 77.75 -550.05 77.75" fill="#000000" fill-opacity="0.2" fill-rule="evenodd" stroke="none"/>
    <path d="M550.55 77.75 L550.55 93.65 -550.05 93.65 -550.05 77.75 -550.8 77.75 -550.8 102.75 550.6 102.75 550.6 77.75 550.55 77.75 550.55 71.7 -550.05 71.7 -550.05 77.75" fill="none" stroke="#000000" stroke-linecap="round" stroke-linejoin="round" stroke-opacity="0.6" stroke-width="1.0"/>
  </g>
</svg>
