<?xml version="1.0" encoding="UTF-8" standalone="no"?>
<svg xmlns:xlink="http://www.w3.org/1999/xlink" height="90.05px" width="87.4px" xmlns="http://www.w3.org/2000/svg">
  <g transform="matrix(1.0, 0.0, 0.0, 1.0, 43.7, 45.0)">
    <path d="M39.9 -42.05 Q42.35 -39.4 42.35 -35.9 L43.2 34.7 Q43.4 38.4 40.95 41.05 38.45 43.55 34.75 43.75 31.3 43.75 28.8 41.05 L-25.95 -13.75 -25.35 35.5 Q-25.15 39.2 -27.6 41.9 -30.05 44.35 -33.75 44.55 -37.25 44.55 -39.9 42.1 -42.4 39.4 -42.4 35.75 L-43.2 -34.85 Q-43.4 -38.35 -40.75 -41.0 -38.3 -43.7 -34.8 -43.7 -31.5 -43.9 -28.85 -41.2 L25.95 13.75 25.35 -35.7 Q25.15 -39.15 27.8 -41.85 30.25 -44.5 33.75 -44.5 37.25 -44.7 39.9 -42.05" fill="#ffffff" fill-opacity="0.0" fill-rule="evenodd" stroke="none"/>
    <path d="M39.9 -42.05 Q42.35 -39.4 42.35 -35.9 L43.2 34.7 Q43.4 38.4 40.95 41.05 38.45 43.55 34.75 43.75 31.3 43.75 28.8 41.05 L-25.95 -13.75 -25.35 35.5 Q-25.15 39.2 -27.6 41.9 -30.05 44.35 -33.75 44.55 -37.25 44.55 -39.9 42.1 -42.4 39.4 -42.4 35.75 L-43.2 -34.85 Q-43.4 -38.35 -40.75 -41.0 -38.3 -43.7 -34.8 -43.7 -31.5 -43.9 -28.85 -41.2 L25.95 13.75 25.35 -35.7 Q25.15 -39.15 27.8 -41.85 30.25 -44.5 33.75 -44.5 37.25 -44.7 39.9 -42.05 Z" fill="none" stroke="#000000" stroke-linecap="round" stroke-linejoin="round" stroke-opacity="0.6" stroke-width="1.0"/>
  </g>
</svg>
