<?xml version="1.0" encoding="UTF-8" standalone="no"?>
<svg xmlns:xlink="http://www.w3.org/1999/xlink" height="52.5px" width="26.5px" xmlns="http://www.w3.org/2000/svg">
  <g transform="matrix(1.0, 0.0, 0.0, 1.0, 19.7, 27.45)">
    <path d="M3.55 -27.45 L3.9 -26.65 4.55 -23.2 4.65 -21.75 Q5.35 -22.0 6.0 -21.75 6.9 -21.4 6.8 -20.25 L6.5 -18.45 6.0 -15.5 Q5.55 -13.5 4.75 -13.35 L4.7 -12.7 Q4.7 -11.4 3.55 -8.2 L3.05 -7.0 Q1.75 -4.1 0.3 -3.2 -0.2 -2.9 -0.75 -2.65 L-1.4 -4.0 -1.5 -3.5 -1.65 -3.05 -2.4 -3.65 -2.45 -2.65 -3.05 -3.65 Q-3.35 -4.05 -4.0 -4.05 L-5.2 -3.45 -6.3 -2.55 Q-6.65 -2.05 -6.6 -1.55 L-7.0 -1.5 -13.95 -6.6 -14.25 -7.0 -15.05 -8.4 -15.55 -8.85 -18.0 -11.8 Q-19.5 -13.65 -19.7 -14.8 -19.85 -15.8 -19.05 -16.8 -18.45 -17.5 -18.0 -17.5 L-19.0 -22.2 Q-17.0 -24.1 -6.55 -25.95 L3.55 -27.45" fill="#ffffff" fill-opacity="0.0" fill-rule="evenodd" stroke="none"/>
    <path d="M-13.6 -0.9 Q-12.35 -2.4 -11.4 -2.8 -10.4 -3.2 -9.15 -2.45 L-7.5 -0.85 -7.2 -0.5 -5.85 0.9 -4.95 1.75 -5.4 0.9 Q-5.6 0.3 -5.35 0.0 L-4.6 -0.2 -3.15 0.0 -2.1 0.9 -2.05 1.0 Q-1.6 1.65 -1.5 2.3 -1.4 3.05 -2.05 3.75 L-2.25 3.95 -1.9 4.2 Q-1.4 4.85 -1.95 5.6 L-2.55 6.25 -2.4 7.25 Q-2.35 7.9 -2.95 8.65 L-3.55 9.3 -3.75 10.05 -4.2 11.55 Q-4.4 12.2 -6.6 12.75 L-8.75 13.1 Q-9.15 13.75 -11.15 14.5 L-11.55 15.85 -12.05 18.15 Q-12.2 19.25 -13.85 22.8 L-15.4 23.95 -16.75 25.05 -15.6 22.5 Q-16.5 20.45 -18.55 17.15 -19.8 15.1 -19.1 11.35 L-18.65 9.9 -16.1 7.5 -14.6 0.5 -13.6 -0.9" fill="#ffffff" fill-opacity="0.0" fill-rule="evenodd" stroke="none"/>
    <path d="M3.7 -15.4 Q4.15 -16.3 4.7 -20.5 L4.75 -15.65 4.7 -12.7 Q4.7 -11.65 3.8 -8.9 2.6 -5.55 1.2 -4.0 L0.65 -9.9 1.05 -12.3 Q3.05 -14.1 3.7 -15.4 M-2.75 -12.95 Q-4.05 -14.5 -4.3 -15.4 L-4.85 -18.0 -5.2 -19.95 -4.3 -18.9 -4.7 -19.95 -3.95 -20.55 Q-3.1 -21.15 -2.55 -21.35 L-0.55 -21.45 1.15 -21.45 Q1.5 -21.55 2.05 -21.0 L2.55 -20.45 Q1.65 -19.8 -3.05 -18.55 L-2.75 -17.4 Q-3.05 -17.45 -3.4 -17.7 L-3.7 -15.75 -2.75 -12.95 -2.65 -11.8 Q-3.3 -9.5 -3.95 -9.5 -4.55 -9.5 -7.75 -11.55 L-6.6 -11.7 -5.75 -11.05 Q-4.9 -10.45 -4.55 -10.65 L-2.75 -12.95 M-6.85 -19.7 L-5.85 -13.1 -6.95 -15.3 -8.4 -17.8 Q-8.95 -18.4 -10.85 -18.85 L-15.75 -18.7 -15.05 -19.2 -13.35 -19.95 Q-12.05 -20.2 -10.3 -19.95 L-8.9 -19.5 -6.85 -19.7 M-17.5 -14.9 L-17.7 -16.1 -15.0 -12.8 Q-14.4 -12.15 -13.25 -11.75 L-12.2 -11.45 -11.75 -9.85 -11.05 -7.0 -10.0 -3.65 Q-13.1 -5.85 -13.95 -6.6 -14.75 -7.35 -16.2 -11.2 L-17.5 -14.9" fill="#000000" fill-opacity="0.2" fill-rule="evenodd" stroke="none"/>
    <path d="M-8.5 -6.75 L-5.95 -7.0 -5.7 -7.0 -4.95 -6.85 Q-4.3 -6.75 -3.55 -7.25 L-3.5 -7.25 -2.35 -7.65 -1.7 -7.7 -1.25 -7.75 0.25 -7.5 M-13.05 0.0 L-11.3 1.8 -10.9 2.75 Q-10.4 3.65 -10.05 3.3 L-8.85 2.0 Q-8.2 0.95 -8.4 0.4 L-8.8 -0.8 -9.0 -1.25 M-7.1 -5.45 L-6.3 -5.15 -5.7 -5.05 Q-5.1 -5.05 -4.55 -5.35 L-3.5 -5.85 -2.4 -6.35 M-12.3 7.9 L-11.45 7.95 Q-10.5 8.1 -9.75 8.4 L-6.6 9.15 -3.55 9.3 M-10.8 4.6 L-10.2 4.85 -7.85 5.2 Q-5.6 5.35 -2.55 6.25 M-11.4 11.7 L-11.0 12.05 -9.6 12.55 Q-7.2 13.1 -4.2 11.55" fill="none" stroke="#000000" stroke-linecap="butt" stroke-linejoin="miter-clip" stroke-miterlimit="4.0" stroke-opacity="0.4" stroke-width="1.0"/>
    <path d="M0.2 -18.7 Q-1.45 -17.75 -3.15 -18.9 L-2.8 -19.5 Q-2.3 -20.2 -1.4 -20.35 L0.25 -20.45 Q1.0 -20.4 1.55 -19.9 L0.2 -18.7 M-10.5 -16.65 Q-12.3 -15.85 -13.9 -17.15 L-13.5 -17.8 Q-12.9 -18.4 -12.05 -18.45 L-10.3 -18.45 Q-9.55 -18.35 -9.05 -17.75 L-10.5 -16.65" fill="#ffffff" fill-rule="evenodd" stroke="none"/>
    <path d="M0.4 -19.5 Q0.45 -19.1 0.15 -18.75 -0.1 -18.4 -0.55 -18.4 L-1.35 -18.6 -1.7 -19.3 -1.45 -20.1 -0.75 -20.45 0.0 -20.2 0.4 -19.5 M-10.35 -17.45 Q-10.35 -17.05 -10.65 -16.7 -10.95 -16.4 -11.35 -16.4 -11.75 -16.4 -12.05 -16.7 L-12.35 -17.45 -12.05 -18.2 -11.35 -18.5 -10.65 -18.2 Q-10.35 -17.9 -10.35 -17.45" fill="#231f20" fill-rule="evenodd" stroke="none"/>
  </g>
</svg>
