<?xml version="1.0" encoding="UTF-8" standalone="no"?>
<svg xmlns:xlink="http://www.w3.org/1999/xlink" height="111.45px" width="191.35px" xmlns="http://www.w3.org/2000/svg">
  <g transform="matrix(1.0, 0.0, 0.0, 1.0, 95.65, 55.7)">
    <path d="M-75.15 -33.65 L-64.05 -43.55 Q-52.5 -53.55 -50.15 -54.1 L-32.1 -54.95 Q-10.15 -55.5 10.0 -54.8 74.35 -52.45 95.2 -37.4 L95.2 55.25 -75.15 40.4 -75.15 24.25 -95.15 24.25 -95.15 -17.4 -75.15 -17.4 -75.15 -33.15 -77.0 -33.15 -75.15 -33.65 -68.4 -35.5 Q-56.45 -38.15 -39.75 -39.4 13.45 -43.45 93.35 -32.15 13.45 -43.45 -39.75 -39.4 -56.45 -38.15 -68.4 -35.5 L-75.15 -33.65 M-75.15 -17.4 L-75.15 24.25 -75.15 -17.4" fill="#000000" fill-opacity="0.09803922" fill-rule="evenodd" stroke="none"/>
    <path d="M-75.15 -33.65 L-64.05 -43.55 Q-52.5 -53.55 -50.15 -54.1 L-32.1 -54.95 Q-10.15 -55.5 10.0 -54.8 74.35 -52.45 95.2 -37.4 L95.2 55.25 -75.15 40.4 -75.15 24.25 -95.15 24.25 -95.15 -17.4 -75.15 -17.4 -75.15 -33.15" fill="none" stroke="#000000" stroke-linecap="butt" stroke-linejoin="miter-clip" stroke-miterlimit="4.0" stroke-width="1.0"/>
    <path d="M-77.0 -33.15 L-75.15 -33.65 -68.4 -35.5 Q-56.45 -38.15 -39.75 -39.4 13.45 -43.45 93.35 -32.15 M-75.15 24.25 L-75.15 -17.4" fill="none" stroke="#000000" stroke-linecap="butt" stroke-linejoin="miter-clip" stroke-miterlimit="4.0" stroke-opacity="0.6" stroke-width="1.0"/>
    <path d="M10.0 -10.45 L10.0 22.9 -48.35 22.9 -48.35 -10.45 10.0 -10.45" fill="#000000" fill-opacity="0.2" fill-rule="evenodd" stroke="none"/>
    <path d="M10.0 -10.45 L10.0 22.9 -48.35 22.9 -48.35 -10.45 10.0 -10.45 Z" fill="none" stroke="#000000" stroke-linecap="butt" stroke-linejoin="miter-clip" stroke-miterlimit="4.0" stroke-opacity="0.6" stroke-width="1.0"/>
    <path d="M74.85 -39.9 L-18.9 -44.75 Q-23.25 -45.15 -31.3 -44.6 -47.25 -43.5 -65.45 -38.8 L-56.45 -42.1 Q-44.65 -45.85 -30.75 -47.1 -16.85 -48.35 30.4 -44.35 L74.85 -39.9" fill="#ffffff" fill-opacity="0.4" fill-rule="evenodd" stroke="none"/>
  </g>
</svg>
