<?xml version="1.0" encoding="UTF-8" standalone="no"?>
<svg xmlns:xlink="http://www.w3.org/1999/xlink" height="238.0px" width="387.3px" xmlns="http://www.w3.org/2000/svg">
  <g transform="matrix(1.0, 0.0, 0.0, 1.0, 193.65, 118.95)">
    <path d="M156.65 63.5 L106.05 68.9 Q101.45 42.2 82.4 2.35 L64.35 -32.1 74.35 -32.8 89.95 -33.85 92.4 -34.05 130.05 -36.7 Q152.15 -6.55 193.15 59.6 L156.65 63.5" fill="#242d32" fill-opacity="0.2" fill-rule="evenodd" stroke="none"/>
    <path d="M74.35 -32.8 L64.35 -32.1 82.4 2.35 Q101.45 42.2 106.05 68.9 L156.65 63.5 83.8 118.5 -29.45 108.1 Q-147.55 96.0 -171.85 87.95 -196.15 79.75 -189.2 46.95 -187.0 36.65 -182.0 25.15 L-177.4 15.7 -192.15 -114.9 -70.3 -73.65 Q54.2 -32.55 67.15 -32.55 L74.35 -32.8" fill="#ffffff" fill-opacity="0.0" fill-rule="evenodd" stroke="none"/>
    <path d="M130.05 -36.7 L92.4 -34.05 89.95 -33.85 74.35 -32.8 67.15 -32.55 Q54.2 -32.55 -70.3 -73.65 L-192.15 -114.9 Q-199.5 -120.05 -153.5 -117.7 L-93.35 -114.25 Q-82.95 -114.25 24.6 -75.45 78.4 -56.0 130.05 -36.7" fill="#ffffff" fill-opacity="0.09803922" fill-rule="evenodd" stroke="none"/>
    <path d="M92.4 -34.05 L89.95 -33.85" fill="none" stroke="#000000" stroke-linecap="butt" stroke-linejoin="miter-clip" stroke-miterlimit="4.0" stroke-width="1.0"/>
    <path d="M74.35 -32.8 L64.35 -32.1 82.4 2.35 Q101.45 42.2 106.05 68.9 L156.65 63.5 M74.35 -32.8 L67.15 -32.55 Q54.2 -32.55 -70.3 -73.65 L-192.15 -114.9" fill="none" stroke="#000000" stroke-linecap="round" stroke-linejoin="miter-clip" stroke-miterlimit="4.0" stroke-opacity="0.6" stroke-width="1.0"/>
    <path d="M156.65 63.5 L193.15 59.6 M130.05 -36.7 L92.4 -34.05" fill="none" stroke="#000000" stroke-linecap="round" stroke-linejoin="miter-clip" stroke-miterlimit="4.0" stroke-opacity="0.6" stroke-width="1.0"/>
    <path d="M193.15 59.6 Q152.15 -6.55 130.05 -36.7" fill="none" stroke="#000000" stroke-linecap="butt" stroke-linejoin="miter-clip" stroke-miterlimit="4.0" stroke-width="1.0"/>
    <path d="M89.95 -33.85 L74.35 -32.8" fill="none" stroke="#000000" stroke-linecap="butt" stroke-linejoin="miter-clip" stroke-miterlimit="4.0" stroke-opacity="0.6" stroke-width="1.0"/>
    <path d="M-192.15 -114.9 L-177.4 15.7 -182.0 25.15 Q-187.0 36.65 -189.2 46.95 -196.15 79.75 -171.85 87.95 -147.55 96.0 -29.45 108.1 L83.8 118.5 156.65 63.5 M130.05 -36.7 Q78.4 -56.0 24.6 -75.45 -82.95 -114.25 -93.35 -114.25 L-153.5 -117.7 Q-199.5 -120.05 -192.15 -114.9" fill="none" stroke="#000000" stroke-linecap="round" stroke-linejoin="miter-clip" stroke-miterlimit="4.0" stroke-opacity="0.8" stroke-width="1.0"/>
  </g>
</svg>
