<?xml version="1.0" encoding="UTF-8" standalone="no"?>
<svg xmlns:xlink="http://www.w3.org/1999/xlink" height="93.65px" width="140.85px" xmlns="http://www.w3.org/2000/svg">
  <g transform="matrix(1.0, 0.0, 0.0, 1.0, 70.4, 45.5)">
    <path d="M16.75 -43.1 L26.7 -42.75 35.45 -41.85 Q48.35 -40.1 57.95 -36.15 L35.45 -15.15 -55.5 -16.1 -39.0 -26.1 Q-14.25 -42.85 16.75 -43.1 -14.25 -42.85 -39.0 -26.1 L-55.5 -16.1 35.45 -15.15 57.95 -36.15 Q48.35 -40.1 35.45 -41.85 L69.5 -39.6 40.5 -12.0 42.0 45.0 -69.0 45.0 -69.9 -12.35 -12.15 -45.0 16.75 -43.1 M-69.9 -12.35 L40.5 -12.0 -69.9 -12.35" fill="#000000" fill-opacity="0.2" fill-rule="evenodd" stroke="none"/>
    <path d="M69.5 -39.6 L69.95 10.9 42.0 45.0 40.5 -12.0 69.5 -39.6" fill="#ffffff" fill-opacity="0.0" fill-rule="evenodd" stroke="none"/>
    <path d="M35.45 -41.85 L26.7 -42.75 16.75 -43.1 Q-14.25 -42.85 -39.0 -26.1 L-55.5 -16.1 35.45 -15.15 57.95 -36.15 Q48.35 -40.1 35.45 -41.85 M40.5 -12.0 L69.5 -39.6 M42.0 45.0 L40.5 -12.0 -69.9 -12.35" fill="none" stroke="#000000" stroke-linecap="round" stroke-linejoin="miter-clip" stroke-miterlimit="10.0" stroke-opacity="0.8" stroke-width="1.0"/>
    <path d="M35.45 -41.85 L69.5 -39.6 69.95 10.9 42.0 45.0 -69.0 45.0 -69.9 -12.35 -12.15 -45.0 16.75 -43.1" fill="none" stroke="#000000" stroke-linecap="round" stroke-linejoin="miter-clip" stroke-miterlimit="10.0" stroke-width="1.0"/>
  </g>
</svg>
