<?xml version="1.0" encoding="UTF-8" standalone="no"?>
<svg xmlns:xlink="http://www.w3.org/1999/xlink" height="218.75px" width="1804.1px" xmlns="http://www.w3.org/2000/svg">
  <g transform="matrix(1.0, 0.0, 0.0, 1.0, 0.5, 0.5)">
    <path d="M1206.25 176.7 L1208.2 177.1 1207.35 176.95 1206.25 176.7" fill="#d9dadb" fill-rule="evenodd" stroke="none"/>
    <path d="M1734.8 29.5 L1735.65 30.5 Q1738.35 33.45 1740.35 35.1 1739.7 39.55 1741.8 46.85 1744.3 55.25 1744.4 57.8 1746.4 56.2 1752.85 54.15 1759.3 52.05 1761.55 50.35 1764.15 53.4 1769.7 58.1 1775.5 63.05 1777.55 65.3 1785.2 73.9 1780.3 84.7 1788.4 85.8 1794.0 89.7 1799.4 93.4 1801.5 98.85 1806.0 110.65 1794.4 122.15 1800.2 116.75 1802.4 132.8 1803.25 138.95 1803.1 145.4 1802.95 151.75 1801.9 153.65 1799.6 158.05 1783.25 166.4 1768.8 173.8 1761.95 175.65 L1761.5 170.45 Q1761.1 166.95 1761.05 165.3 1758.15 167.05 1749.55 170.2 1741.75 173.0 1738.3 175.65 1738.95 173.75 1739.5 169.95 1740.15 165.95 1740.5 164.65 1733.4 164.7 1725.85 166.6 1718.35 168.55 1711.65 172.0 1712.7 169.95 1713.9 165.3 1715.1 160.65 1716.2 158.55 1713.85 160.1 1708.2 161.4 1702.2 162.75 1700.1 163.9 1699.6 156.75 1696.7 153.35 1694.15 150.3 1690.55 151.1 1687.05 151.9 1684.55 155.85 1681.8 160.15 1681.55 166.25 1678.65 163.35 1672.3 159.9 1665.3 156.1 1663.8 154.9 1666.35 159.25 1667.6 166.5 1669.25 176.2 1669.75 177.85 1668.1 175.7 1662.45 171.5 1656.85 167.35 1654.65 164.45 L1647.2 171.9 Q1642.3 176.6 1640.5 180.95 1640.95 178.55 1640.55 174.15 1640.15 169.3 1640.3 167.5 1631.55 167.75 1623.15 171.15 1614.6 174.65 1608.0 180.8 1610.4 178.0 1614.1 171.15 1618.1 163.75 1619.2 162.25 1617.05 163.6 1607.95 168.0 1601.0 171.4 1596.95 175.05 1597.0 167.55 1594.05 164.15 1591.45 161.2 1587.6 162.35 1583.8 163.5 1581.2 167.8 1578.3 172.5 1578.45 178.65 1577.25 177.6 1571.85 174.65 1566.75 171.85 1565.25 170.3 1566.2 172.5 1567.5 177.5 1568.8 182.35 1569.75 184.55 1562.5 177.8 1556.5 174.55 1548.35 170.15 1540.9 171.15 1541.5 173.35 1542.15 179.1 L1542.8 183.65 Q1541.9 181.05 1540.15 178.3 1536.6 173.3 1535.0 170.35 1524.7 172.3 1511.0 180.2 1495.95 189.55 1488.45 193.4 1492.6 189.7 1496.2 183.5 L1502.15 173.15 Q1499.4 174.8 1492.15 176.75 1485.1 178.7 1482.0 180.65 1484.65 172.25 1480.55 166.6 1476.9 161.6 1470.4 161.25 1463.8 160.9 1460.0 165.85 1455.6 171.5 1457.75 181.6 1454.7 179.5 1446.25 176.35 1437.85 173.2 1434.65 170.95 1435.85 172.85 1437.55 177.7 L1440.25 184.55 Q1425.2 179.65 1411.35 173.25 1411.9 175.0 1412.45 180.35 1412.95 185.5 1413.6 187.35 1405.0 181.45 1395.4 182.95 1385.55 184.5 1379.15 193.4 1379.4 191.2 1378.75 186.3 1378.05 181.35 1378.25 179.2 L1367.9 182.85 Q1361.25 185.05 1358.25 187.35 1363.2 183.0 1364.35 178.2 L1366.4 167.55 Q1363.15 168.55 1360.5 168.85 L1357.5 169.15 Q1355.7 169.55 1351.6 175.6 1348.95 174.4 1340.15 173.1 1331.6 171.85 1328.85 170.45 L1332.25 177.85 Q1334.35 182.55 1336.35 185.2 1325.2 175.15 1311.25 170.2 1311.95 172.4 1312.25 178.8 1312.55 185.0 1313.45 187.35 1301.25 181.25 1287.5 181.25 1272.0 181.25 1264.15 189.7 1266.1 185.35 1266.0 178.8 1265.85 170.0 1266.25 167.5 1259.15 169.85 1245.65 168.95 1231.25 168.0 1225.7 169.25 1227.45 171.9 1228.7 175.65 1230.2 180.05 1230.95 181.45 1228.5 180.65 1222.35 179.6 L1219.2 179.05 1217.2 178.7 1211.8 177.8 1209.25 177.3 1208.2 177.1 1206.25 176.7 1204.45 176.3 1206.9 172.35 Q1213.7 162.2 1221.45 159.15 1230.35 155.6 1240.05 161.65 1245.75 154.0 1252.75 152.85 1259.85 151.65 1267.5 157.2 1274.25 151.15 1281.35 153.0 1288.15 154.8 1293.4 163.2 1291.25 155.1 1293.15 148.65 1294.95 142.65 1299.45 140.1 1303.95 137.5 1309.1 139.6 1314.75 141.9 1319.05 149.2 1320.2 146.15 1323.8 142.45 1327.8 138.4 1328.45 137.15 1329.7 139.25 1334.35 143.9 1338.25 147.8 1339.65 151.5 1341.7 135.45 1349.3 124.15 1351.9 126.1 1360.35 127.75 L1376.65 130.4 Q1397.45 133.85 1396.4 139.55 1398.55 129.15 1405.1 126.8 1411.45 124.55 1420.05 130.65 1419.3 128.35 1418.85 122.55 1418.45 117.3 1417.2 114.4 1418.7 115.2 1422.6 116.6 1426.45 118.0 1428.25 118.95 1427.25 116.6 1427.1 109.45 1426.95 102.0 1426.2 99.8 L1439.8 100.4 Q1446.25 101.95 1451.75 107.25 1453.9 97.55 1459.9 92.25 1466.35 86.55 1475.5 87.9 1474.75 90.35 1474.35 98.2 1474.05 102.75 1470.0 107.1 1472.7 105.6 1478.8 104.6 1485.3 103.5 1487.1 102.7 1486.4 104.55 1485.2 112.1 1484.2 118.4 1482.0 121.9 1483.75 121.75 1489.2 119.9 1493.9 118.25 1495.85 117.4 1498.6 124.75 1499.5 125.15 1498.7 121.7 1499.35 115.25 1500.15 108.15 1499.8 105.5 1502.15 106.85 1511.45 109.55 1520.35 112.1 1522.7 113.7 1520.75 111.05 1517.55 103.9 1514.3 96.7 1512.2 93.8 1514.35 95.35 1520.4 97.95 1526.35 100.55 1528.45 102.1 1527.45 99.7 1527.2 93.55 1526.9 86.9 1526.35 84.95 1539.95 89.25 1558.05 87.75 L1554.2 99.8 Q1551.85 106.6 1548.35 110.8 1550.65 108.15 1555.7 105.0 1562.0 101.05 1563.5 99.7 1563.6 103.35 1565.9 112.45 1567.95 120.6 1567.55 125.5 1576.2 122.1 1585.65 120.5 1596.05 118.7 1604.95 119.55 1604.75 114.95 1605.1 106.8 1605.0 99.85 1602.1 94.5 1604.2 95.7 1608.75 96.85 1613.45 98.05 1614.0 98.35 1612.5 96.05 1609.95 88.8 1607.45 81.65 1605.7 79.05 1609.4 81.05 1617.05 82.15 1625.55 83.35 1627.9 84.2 1626.85 81.95 1625.5 76.95 1624.15 71.95 1623.45 70.4 1629.55 71.05 1637.05 77.4 1644.85 84.05 1649.4 84.95 1654.3 85.95 1659.65 84.3 L1668.0 81.15 Q1672.55 79.55 1675.75 80.45 1680.0 81.7 1684.2 87.35 L1691.1 75.1 Q1694.85 67.95 1695.85 62.15 1698.5 64.05 1705.05 66.3 1711.65 68.55 1713.35 69.7 1711.65 67.15 1708.35 59.6 1705.35 52.75 1702.9 49.75 1704.75 50.95 1709.75 52.4 1715.15 54.05 1716.85 54.9 1714.8 43.45 1719.95 36.7 1724.25 31.05 1733.85 28.45 L1734.8 29.5" fill="#000000" fill-opacity="0.14901961" fill-rule="evenodd" stroke="none"/>
    <path d="M1734.8 29.5 L1733.85 28.45 Q1724.25 31.05 1719.95 36.7 1714.8 43.45 1716.85 54.9 1715.15 54.05 1709.75 52.4 1704.75 50.95 1702.9 49.75 1705.35 52.75 1708.35 59.6 1711.65 67.15 1713.35 69.7 1711.65 68.55 1705.05 66.3 1698.5 64.05 1695.85 62.15 1694.85 67.95 1691.1 75.1 L1684.2 87.35 Q1680.0 81.7 1675.75 80.45 1672.55 79.55 1668.0 81.15 L1659.65 84.3 Q1654.3 85.95 1649.4 84.95 1644.85 84.05 1637.05 77.4 1629.55 71.05 1623.45 70.4 1624.15 71.95 1625.5 76.95 1626.85 81.95 1627.9 84.2 1625.55 83.35 1617.05 82.15 1609.4 81.05 1605.7 79.05 1607.45 81.65 1609.95 88.8 1612.5 96.05 1614.0 98.35 1613.45 98.05 1608.75 96.85 1604.2 95.7 1602.1 94.5 1605.0 99.85 1605.1 106.8 1604.75 114.95 1604.95 119.55 1596.05 118.7 1585.65 120.5 1576.2 122.1 1567.55 125.5 1567.95 120.6 1565.9 112.45 1563.6 103.35 1563.5 99.7 1562.0 101.05 1555.7 105.0 1550.65 108.15 1548.35 110.8 1551.85 106.6 1554.2 99.8 L1558.05 87.75 Q1539.95 89.25 1526.35 84.95 1526.9 86.9 1527.2 93.55 1527.45 99.7 1528.45 102.1 1526.35 100.55 1520.4 97.95 1514.35 95.35 1512.2 93.8 1514.3 96.7 1517.55 103.9 1520.75 111.05 1522.7 113.7 1520.35 112.1 1511.45 109.55 1502.15 106.85 1499.8 105.5 1500.15 108.15 1499.35 115.25 1498.7 121.7 1499.5 125.15 1498.6 124.75 1495.85 117.4 1493.9 118.25 1489.2 119.9 1483.75 121.75 1482.0 121.9 1484.2 118.4 1485.2 112.1 1486.4 104.55 1487.1 102.7 1485.3 103.5 1478.8 104.6 1472.7 105.6 1470.0 107.1 1474.05 102.75 1474.35 98.2 1474.75 90.35 1475.5 87.9 1466.35 86.55 1459.9 92.25 1453.9 97.55 1451.75 107.25 1446.25 101.95 1439.8 100.4 L1426.2 99.8 Q1426.95 102.0 1427.1 109.45 1427.25 116.6 1428.25 118.95 1426.45 118.0 1422.6 116.6 1418.7 115.2 1417.2 114.4 1418.45 117.3 1418.85 122.55 1419.3 128.35 1420.05 130.65 1411.45 124.55 1405.1 126.8 1398.55 129.15 1396.4 139.55 1397.45 133.85 1376.65 130.4 L1360.35 127.75 Q1351.9 126.1 1349.3 124.15 1341.7 135.45 1339.65 151.5 1338.25 147.8 1334.35 143.9 1329.7 139.25 1328.45 137.15 1327.8 138.4 1323.8 142.45 1320.2 146.15 1319.05 149.2 1314.75 141.9 1309.1 139.6 1303.95 137.5 1299.45 140.1 1294.95 142.65 1293.15 148.65 1291.25 155.1 1293.4 163.2 1288.15 154.8 1281.35 153.0 1274.25 151.15 1267.5 157.2 1259.85 151.65 1252.75 152.85 1245.75 154.0 1240.05 161.65 1230.35 155.6 1221.45 159.15 1213.7 162.2 1206.9 172.35 L1204.45 176.3 Q1190.35 172.85 1187.35 166.65 1181.1 153.9 1194.95 148.55 1197.3 147.65 1205.3 145.6 1210.3 144.35 1210.3 143.1 1210.1 133.75 1208.15 129.35 L1212.45 129.25 Q1215.7 129.15 1216.25 128.4 1207.45 106.65 1218.95 102.9 1223.0 101.55 1231.4 101.95 L1245.65 102.6 Q1244.75 105.5 1244.4 108.35 L1243.9 112.1 Q1243.15 115.35 1237.95 120.35 1246.75 116.95 1251.85 117.2 1257.15 117.45 1263.9 121.9 L1264.25 116.7 Q1264.4 113.3 1264.2 111.6 1279.1 110.0 1292.85 116.75 1294.0 114.7 1293.65 105.7 1294.35 104.55 1297.55 105.2 1300.85 105.9 1301.65 104.85 1299.45 97.1 1299.4 93.95 L1307.9 94.9 Q1314.15 95.2 1316.45 96.2 1314.9 93.15 1312.95 84.8 1311.05 76.8 1309.05 73.25 1314.55 74.15 1319.2 75.5 1319.95 67.2 1323.4 62.8 1326.35 59.1 1333.85 55.5 1334.0 57.4 1335.05 62.4 1335.8 66.1 1335.5 69.6 1341.8 67.45 1345.6 64.25 1345.15 66.1 1344.8 71.25 L1344.35 78.7 Q1352.4 75.8 1355.4 76.1 L1364.6 77.75 Q1365.0 75.55 1367.75 70.0 1370.2 65.1 1370.3 61.45 1371.35 62.25 1377.2 64.05 1383.0 65.8 1384.05 66.6 1383.55 63.45 1384.5 56.65 1385.45 49.55 1385.1 46.65 1386.3 46.75 1390.5 49.0 L1395.7 51.95 1398.5 45.75 Q1400.15 42.15 1401.35 40.7 1402.6 43.05 1406.05 46.85 1409.6 50.75 1410.4 52.1 1410.05 47.3 1410.85 37.6 1411.65 27.55 1411.45 23.05 1412.2 24.1 1416.75 27.75 1421.2 31.25 1422.8 33.6 1425.25 20.1 1434.2 14.7 1441.9 10.0 1449.95 13.05 1457.95 16.0 1458.3 23.45 1458.7 31.95 1447.4 40.75 1456.35 35.65 1461.75 38.4 1467.15 41.2 1467.5 51.35 1472.45 40.9 1479.7 37.1 1488.15 32.65 1496.65 39.45 1495.85 37.0 1495.55 31.6 1495.25 26.9 1493.85 24.0 1495.8 25.2 1499.65 26.45 1503.8 27.8 1504.75 28.3 1501.05 12.0 1513.8 6.95 1524.75 2.6 1540.5 7.8 1556.15 13.0 1559.95 22.0 1564.4 32.4 1547.4 40.6 1558.95 39.95 1566.2 40.3 1576.4 40.75 1584.35 43.1 1583.8 39.8 1584.85 31.9 1585.9 24.15 1585.25 20.8 1588.1 23.95 1595.4 28.0 1603.55 32.5 1604.95 33.7 1604.55 30.75 1605.4 24.25 1606.2 17.65 1605.85 14.85 1607.35 16.7 1611.3 19.85 1615.3 23.1 1616.75 24.85 1611.4 1.1 1623.8 2.45 1628.4 2.95 1636.0 6.9 L1648.7 14.3 Q1647.25 16.05 1644.25 22.95 1641.5 29.4 1638.85 31.85 1646.55 30.25 1655.05 31.9 1662.8 33.4 1669.9 37.3 1669.05 34.7 1668.2 26.0 1667.4 18.3 1665.4 14.3 1666.8 15.65 1671.8 18.4 1676.85 21.15 1678.35 22.6 1679.7 15.65 1683.15 12.0 1686.35 8.65 1690.45 8.9 1694.5 9.1 1697.95 12.6 1701.55 16.3 1703.25 22.5 1709.55 15.55 1714.9 14.7 1719.4 14.0 1723.95 17.6 1726.65 19.75 1731.9 26.1 L1734.8 29.5 M529.85 115.85 Q535.95 124.3 532.9 138.25 545.3 129.5 552.5 132.0 560.2 134.6 560.4 149.85 565.5 148.85 573.25 149.8 577.45 150.3 585.95 152.05 588.3 156.15 587.5 160.7 603.9 159.6 629.75 182.2 636.2 187.85 646.85 197.85 654.75 204.85 657.45 204.8 642.85 205.6 623.9 209.15 602.05 213.25 595.1 217.65 594.25 215.75 590.55 211.25 587.75 207.8 586.75 202.95 583.15 205.15 574.7 206.35 565.85 207.6 563.45 208.8 563.15 207.05 561.3 201.85 559.55 197.0 559.25 193.9 554.15 198.1 546.05 198.8 L539.5 199.3 Q535.75 199.7 533.0 200.8 532.3 197.45 529.0 192.25 525.5 186.75 525.0 185.0 520.95 189.8 511.2 194.4 498.45 200.4 497.65 200.95 493.2 189.95 483.35 189.75 474.5 189.55 463.05 198.0 L465.9 190.15 Q467.8 185.0 469.15 182.45 467.15 183.8 457.8 187.1 449.2 190.1 445.65 193.3 442.1 176.4 432.7 172.95 423.2 169.45 411.35 181.25 410.65 179.55 408.15 176.15 L404.4 171.3 405.3 176.7 406.3 181.45 385.05 175.2 Q372.7 171.65 364.05 170.65 364.25 173.9 362.45 180.05 360.55 186.6 360.5 188.5 357.3 175.3 346.4 174.4 337.15 173.65 324.5 181.55 325.9 179.1 328.15 171.8 330.3 164.65 331.75 162.3 328.95 164.6 322.2 166.6 314.4 168.9 313.1 169.55 307.7 154.6 299.4 155.95 291.95 157.15 284.8 170.5 282.4 168.05 275.1 164.25 267.8 160.45 265.9 158.55 L265.35 166.1 Q264.7 171.4 264.7 173.6 262.05 171.85 253.6 168.95 245.65 166.2 242.35 163.6 241.5 165.9 241.45 170.0 241.4 175.05 241.15 176.5 238.95 174.45 232.0 170.3 225.65 166.55 222.8 163.35 L220.1 170.2 217.4 176.7 Q215.0 172.65 205.5 162.6 203.85 164.05 195.95 168.35 190.4 171.35 187.35 176.75 188.1 174.0 188.8 167.5 189.45 161.15 190.1 158.9 L181.6 160.4 172.45 161.8 Q174.45 158.05 175.8 150.3 177.25 142.25 178.4 139.8 L163.8 141.95 148.1 143.05 Q148.25 145.3 148.0 149.8 147.7 154.9 147.75 156.8 143.45 154.1 134.1 153.2 123.6 152.2 120.6 151.0 119.45 152.5 119.55 156.2 L119.4 161.8 Q116.25 159.65 108.25 157.95 99.5 156.05 96.9 154.75 96.8 158.2 94.4 164.2 91.85 170.45 91.65 173.6 L76.9 172.3 Q66.1 170.95 61.5 169.45 63.6 164.55 63.4 155.9 63.2 146.45 64.25 142.95 62.05 144.9 56.4 148.1 51.25 151.0 48.45 153.95 44.5 150.9 37.15 149.6 28.45 148.1 26.35 147.1 26.55 149.65 25.75 154.5 24.9 160.05 24.85 161.9 12.35 147.4 0.0 167.5 L0.0 16.45 Q4.05 10.2 7.2 7.2 11.15 3.35 16.3 1.7 26.7 -1.7 52.65 1.8 50.55 5.2 49.15 9.4 L47.1 15.35 Q44.45 21.15 34.4 24.85 48.7 25.6 51.35 26.7 53.15 27.45 55.5 29.55 L61.75 35.1 71.05 35.0 Q75.2 35.05 79.85 36.15 81.1 34.75 88.6 20.35 89.8 20.85 92.9 24.15 95.75 27.2 96.65 27.3 96.35 19.4 98.7 14.6 100.9 10.2 104.75 9.35 108.55 8.5 112.75 11.25 117.15 14.15 120.65 20.15 L127.95 18.5 135.0 17.3 Q133.75 26.15 129.0 35.45 124.25 44.65 117.25 51.8 119.7 50.5 126.25 48.3 132.65 46.2 135.1 44.8 134.3 47.7 133.15 55.75 132.2 62.35 130.45 66.55 136.95 55.0 145.25 53.5 154.25 51.9 162.6 63.05 164.0 61.1 163.95 56.0 L163.85 48.4 169.0 53.4 Q173.2 57.3 175.15 58.7 174.65 48.9 175.6 41.05 182.0 43.15 188.5 43.15 193.25 44.05 199.4 51.85 202.5 49.75 210.8 47.95 219.5 46.0 221.5 44.9 220.95 47.25 220.15 58.35 219.65 65.35 215.8 71.4 221.4 67.95 221.25 68.4 L223.55 75.65 Q225.05 80.6 226.8 82.2 L234.35 76.9 241.75 71.4 249.5 77.15 Q254.2 80.85 256.65 83.3 258.25 82.95 257.65 78.55 256.95 73.65 257.25 73.25 261.7 77.85 264.5 79.65 267.05 81.3 272.5 83.3 273.5 81.15 273.1 76.75 272.65 72.35 273.75 70.2 275.7 71.9 282.8 74.85 290.15 77.95 292.1 79.45 293.8 71.1 298.2 67.0 302.25 63.2 307.65 63.65 312.85 64.1 317.6 68.2 322.5 72.45 325.2 79.25 327.4 77.15 334.7 73.35 342.05 69.5 343.15 68.45 342.15 71.6 341.8 79.75 341.45 87.75 340.4 90.9 L347.5 89.75 Q352.25 89.05 355.0 88.0 354.0 90.4 352.85 98.95 351.85 106.4 349.15 110.75 358.9 109.85 364.25 110.65 368.0 111.2 378.4 113.8 378.6 111.05 381.65 101.9 384.3 93.95 383.7 88.75 385.85 91.05 391.3 94.35 397.0 97.8 398.25 99.05 397.9 96.1 398.7 89.7 399.6 83.0 399.4 80.35 415.2 84.5 426.85 83.95 440.65 83.3 454.1 76.2 457.15 88.05 457.5 93.1 458.15 102.4 454.2 110.75 L461.85 109.35 Q467.0 108.45 468.9 107.75 468.4 111.05 469.2 118.55 470.0 126.1 469.45 129.6 473.3 115.55 484.15 115.5 494.2 115.45 503.95 126.45 504.3 123.25 506.75 117.1 509.15 111.1 509.45 107.75 523.5 107.0 529.85 115.85" fill="#ffffff" fill-opacity="0.09803922" fill-rule="evenodd" stroke="none"/>
    <path d="M1734.8 29.5 L1735.65 30.5 Q1738.35 33.45 1740.35 35.1 1739.7 39.55 1741.8 46.85 1744.3 55.25 1744.4 57.8 1746.4 56.2 1752.85 54.15 1759.3 52.05 1761.55 50.35 1764.15 53.4 1769.7 58.1 1775.5 63.05 1777.55 65.3 1785.2 73.9 1780.3 84.7 1788.4 85.8 1794.0 89.7 1799.4 93.4 1801.5 98.85 1806.0 110.65 1794.4 122.15 1800.2 116.75 1802.4 132.8 1803.25 138.95 1803.1 145.4 1802.95 151.75 1801.9 153.65 1799.6 158.05 1783.25 166.4 1768.8 173.8 1761.95 175.65 L1761.5 170.45 Q1761.1 166.95 1761.05 165.3 1758.15 167.05 1749.55 170.2 1741.75 173.0 1738.3 175.65 1738.95 173.75 1739.5 169.95 1740.15 165.95 1740.5 164.65 1733.4 164.7 1725.85 166.6 1718.35 168.55 1711.65 172.0 1712.7 169.95 1713.9 165.3 1715.1 160.65 1716.2 158.55 1713.85 160.1 1708.2 161.4 1702.2 162.75 1700.1 163.9 1699.6 156.75 1696.7 153.35 1694.15 150.3 1690.55 151.1 1687.05 151.9 1684.55 155.85 1681.8 160.15 1681.55 166.25 1678.65 163.35 1672.3 159.9 1665.3 156.1 1663.8 154.9 1666.35 159.25 1667.6 166.5 1669.25 176.2 1669.75 177.85 1668.1 175.7 1662.45 171.5 1656.85 167.35 1654.65 164.45 L1647.2 171.9 Q1642.3 176.6 1640.5 180.95 1640.95 178.55 1640.55 174.15 1640.15 169.3 1640.3 167.5 1631.55 167.75 1623.15 171.15 1614.6 174.65 1608.0 180.8 1610.4 178.0 1614.1 171.15 1618.1 163.75 1619.2 162.25 1617.05 163.6 1607.95 168.0 1601.0 171.4 1596.95 175.05 1597.0 167.55 1594.05 164.15 1591.45 161.2 1587.6 162.35 1583.8 163.5 1581.2 167.8 1578.3 172.5 1578.45 178.65 1577.25 177.6 1571.85 174.65 1566.75 171.85 1565.25 170.3 1566.2 172.5 1567.5 177.5 1568.8 182.35 1569.75 184.55 1562.5 177.8 1556.5 174.55 1548.35 170.15 1540.9 171.15 1541.5 173.35 1542.15 179.1 L1542.8 183.65 Q1543.15 185.65 1543.6 186.85 M1204.45 176.3 L1206.25 176.7 1207.35 176.95 1208.2 177.1 1209.25 177.3 1211.8 177.8 M1230.95 181.45 Q1230.2 180.05 1228.7 175.65 1227.45 171.9 1225.7 169.25 1231.25 168.0 1245.65 168.95 1259.15 169.85 1266.25 167.5 1265.85 170.0 1266.0 178.8 1266.1 185.35 1264.15 189.7 1272.0 181.25 1287.5 181.25 1301.25 181.25 1313.45 187.35 1312.55 185.0 1312.25 178.8 1311.95 172.4 1311.25 170.2 1325.2 175.15 1336.35 185.2 1334.35 182.55 1332.25 177.85 L1328.85 170.45 Q1331.6 171.85 1340.15 173.1 1348.95 174.4 1351.6 175.6 1355.7 169.55 1357.5 169.15 L1360.5 168.85 Q1363.15 168.55 1366.4 167.55 L1364.35 178.2 Q1363.2 183.0 1358.25 187.35 1361.25 185.05 1367.9 182.85 L1378.25 179.2 Q1378.05 181.35 1378.75 186.3 1379.4 191.2 1379.15 193.4 1385.55 184.5 1395.4 182.95 1405.0 181.45 1413.6 187.35 1412.95 185.5 1412.45 180.35 1411.9 175.0 1411.35 173.25 1425.2 179.65 1440.25 184.55 L1437.55 177.7 Q1435.85 172.85 1434.65 170.95 1437.85 173.2 1446.25 176.35 1454.7 179.5 1457.75 181.6 1455.6 171.5 1460.0 165.85 1463.8 160.9 1470.4 161.25 1476.9 161.6 1480.55 166.6 1484.65 172.25 1482.0 180.65 1485.1 178.7 1492.15 176.75 1499.4 174.8 1502.15 173.15 L1496.2 183.5 Q1492.6 189.7 1488.45 193.4 1495.95 189.55 1511.0 180.2 1524.7 172.3 1535.0 170.35 1536.6 173.3 1540.15 178.3 1541.9 181.05 1542.8 183.65 M1204.45 176.3 Q1190.35 172.85 1187.35 166.65 1181.1 153.9 1194.95 148.55 1197.3 147.65 1205.3 145.6 1210.3 144.35 1210.3 143.1 1210.1 133.75 1208.15 129.35 L1212.45 129.25 Q1215.7 129.15 1216.25 128.4 1207.45 106.65 1218.95 102.9 1223.0 101.55 1231.4 101.95 L1245.65 102.6 Q1244.75 105.5 1244.4 108.35 L1243.9 112.1 Q1243.15 115.35 1237.95 120.35 1246.75 116.95 1251.85 117.2 1257.15 117.45 1263.9 121.9 L1264.25 116.7 Q1264.4 113.3 1264.2 111.6 1279.1 110.0 1292.85 116.75 1294.0 114.7 1293.65 105.7 1294.35 104.55 1297.55 105.2 1300.85 105.9 1301.65 104.85 1299.45 97.1 1299.4 93.95 L1307.9 94.9 Q1314.15 95.2 1316.45 96.2 1314.9 93.15 1312.95 84.8 1311.05 76.8 1309.05 73.25 1314.55 74.15 1319.2 75.5 1319.95 67.2 1323.4 62.8 1326.35 59.1 1333.85 55.5 1334.0 57.4 1335.05 62.4 1335.8 66.1 1335.5 69.6 1341.8 67.45 1345.6 64.25 1345.15 66.1 1344.8 71.25 L1344.35 78.7 Q1352.4 75.8 1355.4 76.1 L1364.6 77.75 Q1365.0 75.55 1367.75 70.0 1370.2 65.1 1370.3 61.45 1371.35 62.25 1377.2 64.05 1383.0 65.8 1384.05 66.6 1383.55 63.45 1384.5 56.65 1385.45 49.55 1385.1 46.65 1386.3 46.75 1390.5 49.0 L1395.7 51.95 1398.5 45.75 Q1400.15 42.15 1401.35 40.7 1402.6 43.05 1406.05 46.85 1409.6 50.75 1410.4 52.1 1410.05 47.3 1410.85 37.6 1411.65 27.55 1411.45 23.05 1412.2 24.1 1416.75 27.75 1421.2 31.25 1422.8 33.6 1425.25 20.1 1434.2 14.7 1441.9 10.0 1449.95 13.05 1457.95 16.0 1458.3 23.45 1458.7 31.95 1447.4 40.75 1456.35 35.65 1461.75 38.4 1467.15 41.2 1467.5 51.35 1472.45 40.9 1479.7 37.1 1488.15 32.65 1496.65 39.45 1495.85 37.0 1495.55 31.6 1495.25 26.9 1493.85 24.0 1495.8 25.2 1499.65 26.45 1503.8 27.8 1504.75 28.3 1501.05 12.0 1513.8 6.95 1524.75 2.6 1540.5 7.8 1556.15 13.0 1559.95 22.0 1564.4 32.4 1547.4 40.6 1558.95 39.95 1566.2 40.3 1576.4 40.75 1584.35 43.1 1583.8 39.8 1584.85 31.9 1585.9 24.15 1585.25 20.8 1588.1 23.95 1595.4 28.0 1603.55 32.5 1604.95 33.7 1604.55 30.75 1605.4 24.25 1606.2 17.65 1605.85 14.85 1607.35 16.7 1611.3 19.85 1615.3 23.1 1616.75 24.85 1611.4 1.1 1623.8 2.45 1628.4 2.95 1636.0 6.9 L1648.7 14.3 Q1647.25 16.05 1644.25 22.95 1641.5 29.4 1638.85 31.85 1646.55 30.25 1655.05 31.9 1662.8 33.4 1669.9 37.3 1669.05 34.7 1668.2 26.0 1667.4 18.3 1665.4 14.3 1666.8 15.65 1671.8 18.4 1676.85 21.15 1678.35 22.6 1679.7 15.65 1683.15 12.0 1686.35 8.65 1690.45 8.9 1694.5 9.1 1697.95 12.6 1701.55 16.3 1703.25 22.5 1709.55 15.55 1714.9 14.7 1719.4 14.0 1723.95 17.6 1726.65 19.75 1731.9 26.1 L1734.8 29.5 M529.85 115.85 Q523.5 107.0 509.45 107.75 509.15 111.1 506.75 117.1 504.3 123.25 503.95 126.45 494.2 115.45 484.15 115.5 473.3 115.55 469.45 129.6 470.0 126.1 469.2 118.55 468.4 111.05 468.9 107.75 467.0 108.45 461.85 109.35 L454.2 110.75 Q458.15 102.4 457.5 93.1 457.15 88.05 454.1 76.2 440.65 83.3 426.85 83.95 415.2 84.5 399.4 80.35 399.6 83.0 398.7 89.7 397.9 96.1 398.25 99.05 397.0 97.8 391.3 94.35 385.85 91.05 383.7 88.75 384.3 93.95 381.65 101.9 378.6 111.05 378.4 113.8 368.0 111.2 364.25 110.65 358.9 109.85 349.15 110.75 351.85 106.4 352.85 98.95 354.0 90.4 355.0 88.0 352.25 89.05 347.5 89.75 L340.4 90.9 Q341.45 87.75 341.8 79.75 342.15 71.6 343.15 68.45 342.05 69.5 334.7 73.35 327.4 77.15 325.2 79.25 322.5 72.45 317.6 68.2 312.85 64.1 307.65 63.65 302.25 63.2 298.2 67.0 293.8 71.1 292.1 79.45 290.15 77.95 282.8 74.85 275.7 71.9 273.75 70.2 272.65 72.35 273.1 76.75 273.5 81.15 272.5 83.3 267.05 81.3 264.5 79.65 261.7 77.85 257.25 73.25 256.95 73.65 257.65 78.55 258.25 82.95 256.65 83.3 254.2 80.85 249.5 77.15 L241.75 71.4 234.35 76.9 226.8 82.2 Q225.05 80.6 223.55 75.65 L221.25 68.4 Q221.4 67.95 215.8 71.4 219.65 65.35 220.15 58.35 220.95 47.25 221.5 44.9 219.5 46.0 210.8 47.95 202.5 49.75 199.4 51.85 193.25 44.05 188.5 43.15 182.0 43.15 175.6 41.05 174.65 48.9 175.15 58.7 173.2 57.3 169.0 53.4 L163.85 48.4 163.95 56.0 Q164.0 61.1 162.6 63.05 154.25 51.9 145.25 53.5 136.95 55.0 130.45 66.55 132.2 62.35 133.15 55.75 134.3 47.7 135.1 44.8 132.65 46.2 126.25 48.3 119.7 50.5 117.25 51.8 124.25 44.65 129.0 35.45 133.75 26.15 135.0 17.3 L127.95 18.5 120.65 20.15 Q117.15 14.15 112.75 11.25 108.55 8.5 104.75 9.35 100.9 10.2 98.7 14.6 96.35 19.4 96.65 27.3 95.75 27.2 92.9 24.15 89.8 20.85 88.6 20.35 81.1 34.75 79.85 36.15 75.2 35.05 71.05 35.0 L61.75 35.1 55.5 29.55 Q53.15 27.45 51.35 26.7 48.7 25.6 34.4 24.85 44.45 21.15 47.1 15.35 L49.15 9.4 Q50.55 5.2 52.65 1.8 26.7 -1.7 16.3 1.7 11.15 3.35 7.2 7.2 4.05 10.2 0.0 16.45 L0.0 167.5 Q12.35 147.4 24.85 161.9 24.9 160.05 25.75 154.5 26.55 149.65 26.35 147.1 28.45 148.1 37.15 149.6 44.5 150.9 48.45 153.95 51.25 151.0 56.4 148.1 62.05 144.9 64.25 142.95 63.2 146.45 63.4 155.9 63.6 164.55 61.5 169.45 66.1 170.95 76.9 172.3 L91.65 173.6 Q91.85 170.45 94.4 164.2 96.8 158.2 96.9 154.75 99.5 156.05 108.25 157.95 116.25 159.65 119.4 161.8 L119.55 156.2 Q119.45 152.5 120.6 151.0 123.6 152.2 134.1 153.2 143.45 154.1 147.75 156.8 147.7 154.9 148.0 149.8 148.25 145.3 148.1 143.05 L163.8 141.95 178.4 139.8 Q177.25 142.25 175.8 150.3 174.45 158.05 172.45 161.8 L181.6 160.4 190.1 158.9 Q189.45 161.15 188.8 167.5 188.1 174.0 187.35 176.75 190.4 171.35 195.95 168.35 203.85 164.05 205.5 162.6 215.0 172.65 217.4 176.7 L220.1 170.2 222.8 163.35 Q225.65 166.55 232.0 170.3 238.95 174.45 241.15 176.5 241.4 175.05 241.45 170.0 241.5 165.9 242.35 163.6 245.65 166.2 253.6 168.95 262.05 171.85 264.7 173.6 264.7 171.4 265.35 166.1 L265.9 158.55 Q267.8 160.45 275.1 164.25 282.4 168.05 284.8 170.5 291.95 157.15 299.4 155.95 307.7 154.6 313.1 169.55 314.4 168.9 322.2 166.6 328.95 164.6 331.75 162.3 330.3 164.65 328.15 171.8 325.9 179.1 324.5 181.55 337.15 173.65 346.4 174.4 357.3 175.3 360.5 188.5 360.55 186.6 362.45 180.05 364.25 173.9 364.05 170.65 372.7 171.65 385.05 175.2 L406.3 181.45 405.3 176.7 404.4 171.3 408.15 176.15 Q410.65 179.55 411.35 181.25 423.2 169.45 432.7 172.95 442.1 176.4 445.65 193.3 449.2 190.1 457.8 187.1 467.15 183.8 469.15 182.45 467.8 185.0 465.9 190.15 L463.05 198.0 Q474.5 189.55 483.35 189.75 493.2 189.95 497.65 200.95 498.45 200.4 511.2 194.4 520.95 189.8 525.0 185.0 525.5 186.75 529.0 192.25 532.3 197.45 533.0 200.8 535.75 199.7 539.5 199.3 L546.05 198.8 Q554.15 198.1 559.25 193.9 559.55 197.0 561.3 201.85 563.15 207.05 563.45 208.8 565.85 207.6 574.7 206.35 583.15 205.15 586.75 202.95 587.75 207.8 590.55 211.25 594.25 215.75 595.1 217.65 602.05 213.25 623.9 209.15 642.85 205.6 657.45 204.8 654.75 204.85 646.85 197.85 636.2 187.85 629.75 182.2 603.9 159.6 587.5 160.7 588.3 156.15 585.95 152.05 577.45 150.3 573.25 149.8 565.5 148.85 560.4 149.85 560.2 134.6 552.5 132.0 545.3 129.5 532.9 138.25 535.95 124.3 529.85 115.85" fill="none" stroke="#000000" stroke-linecap="round" stroke-linejoin="miter-clip" stroke-miterlimit="4.0" stroke-width="1.0"/>
  </g>
</svg>
