<?xml version="1.0" encoding="UTF-8" standalone="no"?>
<svg xmlns:xlink="http://www.w3.org/1999/xlink" height="16.65px" width="44.2px" xmlns="http://www.w3.org/2000/svg">
  <g transform="matrix(1.0, 0.0, 0.0, 1.0, 0.5, 0.5)">
    <path d="M41.3 3.7 L42.45 5.65 27.7 13.45 25.75 13.05 41.3 3.7 M21.6 4.8 L8.25 14.6 6.7 13.85 21.6 4.8 M18.45 2.1 L20.0 3.25 2.55 12.7 1.2 11.25 18.45 2.1" fill="#ffffff" fill-opacity="0.29803923" fill-rule="evenodd" stroke="none"/>
    <path d="M41.3 3.7 L25.75 13.05 27.7 13.45 42.45 5.65 41.3 3.7 M21.6 4.8 Q23.3 2.8 25.75 1.5 28.65 0.0 31.65 0.0 36.45 0.0 39.85 2.3 43.2 4.6 43.2 7.85 43.2 11.1 39.85 13.35 36.45 15.65 31.65 15.65 28.7 15.65 25.75 14.05 23.35 12.7 21.6 10.65 19.85 12.7 17.45 14.05 14.5 15.65 11.55 15.65 6.8 15.65 3.4 13.35 0.0 11.05 0.0 7.85 0.0 4.6 3.4 2.3 6.8 0.0 11.55 0.0 14.55 0.0 17.45 1.5 19.9 2.8 21.6 4.8 L6.7 13.85 8.25 14.6 21.6 4.8 M18.45 2.1 L1.2 11.25 2.55 12.7 20.0 3.25 18.45 2.1" fill="#ffffff" fill-opacity="0.0" fill-rule="evenodd" stroke="none"/>
    <path d="M21.6 4.8 Q19.9 2.8 17.45 1.5 14.55 0.0 11.55 0.0 6.8 0.0 3.4 2.3 0.0 4.6 0.0 7.85 0.0 11.05 3.4 13.35 6.8 15.65 11.55 15.65 14.5 15.65 17.45 14.05 19.85 12.7 21.6 10.65 23.35 12.7 25.75 14.05 28.7 15.65 31.65 15.65 36.45 15.65 39.85 13.35 43.2 11.1 43.2 7.85 43.2 4.6 39.85 2.3 36.45 0.0 31.65 0.0 28.65 0.0 25.75 1.5 23.3 2.8 21.6 4.8 Z" fill="none" stroke="#000000" stroke-linecap="round" stroke-linejoin="miter-clip" stroke-miterlimit="4.0" stroke-opacity="0.4" stroke-width="1.0"/>
  </g>
</svg>
