<?xml version="1.0" encoding="UTF-8" standalone="no"?>
<svg xmlns:xlink="http://www.w3.org/1999/xlink" height="239.9px" width="307.2px" xmlns="http://www.w3.org/2000/svg">
  <g transform="matrix(1.0, 0.0, 0.0, 1.0, 0.5, -312.45)">
    <path d="M0.0 378.65 L13.5 376.95 26.85 375.1 25.25 376.95 18.3 384.9 17.45 395.0 15.0 423.7 14.05 434.3 Q9.35 435.65 5.25 436.25 L4.85 455.0 Q16.75 458.9 24.3 467.95 29.5 474.15 31.0 479.8 L30.7 492.8 41.45 493.35 40.9 522.65 29.95 522.45 29.4 543.55 3.4 543.35 Q1.6 540.6 0.0 540.2 L0.0 453.65 0.0 436.75 0.0 386.85 0.0 378.65 M18.3 383.8 Q10.45 387.55 0.0 386.85 10.45 387.55 18.3 383.8 M92.1 375.15 L116.75 366.75 112.85 357.9 Q119.3 359.55 128.4 363.15 L129.1 363.45 135.85 366.2 Q147.0 370.95 156.3 375.7 168.1 374.9 168.95 374.25 L180.3 394.95 220.3 474.25 220.55 460.1 234.75 460.35 233.7 515.0 249.9 515.3 293.1 488.0 293.35 487.85 306.2 488.05 305.15 542.75 292.25 542.55 249.2 550.75 226.95 550.4 227.25 535.15 216.1 534.95 216.25 525.85 161.2 447.35 75.0 396.15 77.45 393.7 83.85 387.4 87.2 384.5 Q89.25 383.0 92.1 375.15 M65.4 397.1 L56.75 400.05 56.8 396.95 Q58.75 396.8 65.4 397.1 M87.4 389.6 L83.85 387.4 87.4 389.6 147.0 427.15 137.35 413.4 121.7 377.9 87.4 389.6 M116.75 366.75 L121.7 377.9 116.75 366.75 M161.2 447.35 L147.0 427.15 161.2 447.35 M30.7 492.8 L30.5 492.8 29.9 522.45 29.95 522.45 29.9 522.45 30.5 492.8 30.7 492.8 M0.0 453.65 L4.85 455.0 0.0 453.65 M5.25 436.25 L0.0 436.75 5.25 436.25 M227.3 523.4 L150.75 402.5 128.4 363.15 150.75 402.5 227.3 523.4" fill="#000000" fill-opacity="0.047058824" fill-rule="evenodd" stroke="none"/>
    <path d="M112.85 357.9 Q110.85 357.4 110.1 354.15 L109.75 350.95 111.05 349.75 111.1 349.7 Q120.5 345.45 129.1 340.85 L137.1 336.35 Q156.0 325.15 168.4 312.95 169.55 312.7 174.3 338.35 L178.8 364.0 174.15 369.2 168.95 374.25 Q168.1 374.9 156.3 375.7 147.0 370.95 135.85 366.2 L129.1 363.45 128.4 363.15 Q119.3 359.55 112.85 357.9" fill="#ffffff" fill-opacity="0.0" fill-rule="evenodd" stroke="none"/>
    <path d="M17.45 395.0 L24.9 394.25 25.25 376.95 26.85 375.1 27.8 374.95 Q47.05 371.55 65.85 366.1 L76.95 362.7 96.8 359.35 93.55 370.8 92.1 375.15 Q89.25 383.0 87.2 384.5 L83.85 387.4 77.45 393.7 75.0 396.15 73.25 397.95 65.4 397.1 Q58.75 396.8 56.8 396.95 54.1 397.15 52.95 397.8 50.6 399.2 37.35 404.85 L24.6 410.2 24.9 394.25 24.6 410.2 37.35 404.85 Q50.6 399.2 52.95 397.8 54.1 397.15 56.8 396.95 L56.75 400.05 56.6 407.75 47.35 413.65 47.15 424.3 15.0 423.7 17.45 395.0" fill="#000000" fill-opacity="0.29803923" fill-rule="evenodd" stroke="none"/>
    <path d="M25.25 376.95 L18.3 384.9 17.45 395.0 24.9 394.25 25.25 376.95 M76.95 362.7 L96.8 359.35 93.55 370.8 92.1 375.15 116.75 366.75 112.85 357.9 Q110.85 357.4 110.1 354.15 M168.4 312.95 Q169.55 312.7 174.3 338.35 L178.8 364.0 174.15 369.2 168.95 374.25 180.3 394.95 220.3 474.25 220.55 460.1 234.75 460.35 233.7 515.0 249.9 515.3 293.1 488.0 293.35 487.85 306.2 488.05 305.15 542.75 292.25 542.55 249.2 550.75 226.95 550.4 227.25 535.15 216.1 534.95 216.25 525.85 161.2 447.35 75.0 396.15 73.25 397.95 65.4 397.1 56.75 400.05 56.6 407.75 47.35 413.65 47.15 424.3 15.0 423.7 14.05 434.3 Q9.35 435.65 5.25 436.25 L4.85 455.0 Q16.75 458.9 24.3 467.95 29.5 474.15 31.0 479.8 L30.7 492.8 41.45 493.35 40.9 522.65 29.95 522.45 29.4 543.55 3.4 543.35 M87.4 389.6 L121.7 377.9 137.35 413.4 147.0 427.15 87.4 389.6" fill="none" stroke="#000000" stroke-linecap="round" stroke-linejoin="miter-clip" stroke-miterlimit="4.0" stroke-width="1.0"/>
    <path d="M0.0 386.85 Q10.45 387.55 18.3 383.8 M111.1 349.7 Q120.5 345.45 129.1 340.85 L137.1 336.35 Q156.0 325.15 168.4 312.95 M121.7 377.9 L116.75 366.75 M147.0 427.15 L161.2 447.35 M56.8 396.95 Q54.1 397.15 52.95 397.8 50.6 399.2 37.35 404.85 L24.6 410.2 24.9 394.25 M65.4 397.1 Q58.75 396.8 56.8 396.95 M128.4 363.15 L150.75 402.5 227.3 523.4" fill="none" stroke="#000000" stroke-linecap="round" stroke-linejoin="miter-clip" stroke-miterlimit="4.0" stroke-opacity="0.4" stroke-width="1.0"/>
    <path d="M26.85 375.1 L13.5 376.95 0.0 378.65 M25.25 376.95 L26.85 375.1 27.8 374.95 Q47.05 371.55 65.85 366.1 L76.95 362.7 M110.1 354.15 L109.75 350.95 111.05 349.75 111.1 349.7 M83.85 387.4 L87.4 389.6 M92.1 375.15 Q89.25 383.0 87.2 384.5 L83.85 387.4 77.45 393.7 75.0 396.15 M112.85 357.9 Q119.3 359.55 128.4 363.15 L129.1 363.45 135.85 366.2 Q147.0 370.95 156.3 375.7 168.1 374.9 168.95 374.25 M56.8 396.95 L56.75 400.05 M0.0 436.75 L5.25 436.25 M4.85 455.0 L0.0 453.65 M29.95 522.45 L29.9 522.45 30.5 492.8 30.7 492.8 M17.45 395.0 L15.0 423.7" fill="none" stroke="#000000" stroke-linecap="round" stroke-linejoin="miter-clip" stroke-miterlimit="4.0" stroke-opacity="0.6" stroke-width="1.0"/>
  </g>
</svg>
