<?xml version="1.0" encoding="UTF-8" standalone="no"?>
<svg xmlns:xlink="http://www.w3.org/1999/xlink" height="53.35px" width="53.3px" xmlns="http://www.w3.org/2000/svg">
  <g transform="matrix(1.0, 0.0, 0.0, 1.0, 0.5, 0.5)">
    <path d="M26.45 9.65 Q33.2 9.75 37.9 14.5 42.55 19.25 42.4 25.8 42.3 32.35 37.4 36.9 32.55 41.45 25.8 41.3 19.1 41.15 14.4 36.4 9.75 31.65 9.9 25.15 10.05 18.6 14.9 14.05 19.75 9.5 26.45 9.65" fill="#000000" fill-opacity="0.8" fill-rule="evenodd" stroke="none"/>
    <path d="M52.3 26.0 Q52.1 36.55 44.25 43.85 36.45 51.15 25.6 50.9 14.8 50.7 7.3 43.1 -0.2 35.45 0.0 24.9 0.25 14.35 8.05 7.05 15.85 -0.2 26.65 0.0 37.5 0.25 45.0 7.85 52.55 15.45 52.3 26.0 M26.45 9.65 Q19.75 9.5 14.9 14.05 10.05 18.6 9.9 25.15 9.75 31.65 14.4 36.4 19.1 41.15 25.8 41.3 32.55 41.45 37.4 36.9 42.3 32.35 42.4 25.8 42.55 19.25 37.9 14.5 33.2 9.75 26.45 9.65" fill="#ffffff" fill-opacity="0.0" fill-rule="evenodd" stroke="none"/>
    <path d="M52.3 26.0 Q52.1 36.55 44.25 43.85 36.45 51.15 25.6 50.9 14.8 50.7 7.3 43.1 -0.2 35.45 0.0 24.9 0.25 14.35 8.05 7.05 15.85 -0.2 26.65 0.0 37.5 0.25 45.0 7.85 52.55 15.45 52.3 26.0" fill="none" stroke="#000000" stroke-linecap="round" stroke-linejoin="miter-clip" stroke-miterlimit="4.0" stroke-width="1.0"/>
    <path d="M26.45 9.65 Q33.2 9.75 37.9 14.5 42.55 19.25 42.4 25.8 42.3 32.35 37.4 36.9 32.55 41.45 25.8 41.3 19.1 41.15 14.4 36.4 9.75 31.65 9.9 25.15 10.05 18.6 14.9 14.05 19.75 9.5 26.45 9.65" fill="none" stroke="#000000" stroke-linecap="round" stroke-linejoin="miter-clip" stroke-miterlimit="4.0" stroke-opacity="0.6" stroke-width="1.0"/>
  </g>
</svg>
