<?xml version="1.0" encoding="UTF-8" standalone="no"?>
<svg xmlns:xlink="http://www.w3.org/1999/xlink" height="1799.1px" width="1342.6px" xmlns="http://www.w3.org/2000/svg">
  <g transform="matrix(1.0, 0.0, 0.0, 1.0, 0.5, 0.55)">
    <path d="M279.55 1770.05 L437.85 1099.3 65.25 1630.3 Q53.6 1646.65 39.65 1650.2 11.65 1657.15 0.0 1593.05 L1192.55 0.0 1341.6 55.85 1341.6 111.7 1220.45 93.15 512.45 978.15 344.7 1798.05 279.55 1770.05" fill="#000000" fill-opacity="0.047058824" fill-rule="evenodd" stroke="none"/>
    <path d="M279.55 1770.05 L437.85 1099.3 65.25 1630.3 Q53.6 1646.65 39.65 1650.2 11.65 1657.15 0.0 1593.05 L1192.55 0.0 1341.6 55.85 1341.6 111.7 1220.45 93.15 512.45 978.15 344.7 1798.05" fill="none" stroke="#000000" stroke-linecap="round" stroke-linejoin="miter-clip" stroke-miterlimit="4.0" stroke-opacity="0.6" stroke-width="1.0"/>
  </g>
</svg>
