<?xml version="1.0" encoding="UTF-8" standalone="no"?>
<svg xmlns:xlink="http://www.w3.org/1999/xlink" height="20.15px" width="156.05px" xmlns="http://www.w3.org/2000/svg">
  <g transform="matrix(1.0, 0.0, 0.0, 1.0, 76.8, -109.05)">
    <path d="M60.4 119.1 Q60.4 115.45 63.0 112.9 65.6 110.3 69.25 110.3 72.9 110.3 75.45 112.9 78.05 115.45 78.05 119.1 78.05 122.75 75.45 125.35 72.9 127.95 69.25 127.95 65.6 127.95 63.0 125.35 60.4 122.8 60.4 119.1" fill="#ffffff" fill-opacity="0.0" fill-rule="evenodd" stroke="none"/>
    <path d="M60.4 119.1 Q60.4 115.45 63.0 112.9 65.6 110.3 69.25 110.3 72.9 110.3 75.45 112.9 78.05 115.45 78.05 119.1 78.05 122.75 75.45 125.35 72.9 127.95 69.25 127.95 65.6 127.95 63.0 125.35 60.4 122.8 60.4 119.1 Z" fill="none" stroke="#000000" stroke-linecap="butt" stroke-linejoin="miter-clip" stroke-miterlimit="10.0" stroke-width="1.0"/>
    <path d="M-58.65 119.1 Q-58.65 122.8 -61.25 125.35 -63.8 127.95 -67.5 127.95 -71.15 127.95 -73.7 125.35 -76.3 122.75 -76.3 119.1 -76.3 115.45 -73.7 112.9 -71.15 110.3 -67.5 110.3 -63.85 110.3 -61.25 112.9 -58.65 115.45 -58.65 119.1" fill="#ffffff" fill-opacity="0.0" fill-rule="evenodd" stroke="none"/>
    <path d="M-58.65 119.1 Q-58.65 122.8 -61.25 125.35 -63.8 127.95 -67.5 127.95 -71.15 127.95 -73.7 125.35 -76.3 122.75 -76.3 119.1 -76.3 115.45 -73.7 112.9 -71.15 110.3 -67.5 110.3 -63.85 110.3 -61.25 112.9 -58.65 115.45 -58.65 119.1 Z" fill="none" stroke="#000000" stroke-linecap="butt" stroke-linejoin="miter-clip" stroke-miterlimit="10.0" stroke-width="1.0"/>
  </g>
</svg>
