<?xml version="1.0" encoding="UTF-8" standalone="no"?>
<svg xmlns:xlink="http://www.w3.org/1999/xlink" height="486.45px" width="909.65px" xmlns="http://www.w3.org/2000/svg">
  <g transform="matrix(1.0, 0.0, 0.0, 1.0, 0.5, 0.5)">
    <path d="M908.65 16.1 L908.65 26.95 905.7 53.95 896.6 95.15 861.6 108.35 Q868.45 109.05 875.1 110.7 888.4 114.05 887.45 118.65 886.5 123.25 893.0 142.7 L899.65 161.25 876.8 205.35 881.55 242.05 Q886.5 279.55 887.45 283.2 888.4 286.9 884.25 294.95 L879.85 302.3 854.0 286.15 835.75 259.7 841.45 283.75 Q847.55 308.4 849.45 311.15 851.35 313.9 866.55 326.75 L881.4 339.05 904.2 378.75 898.1 458.0 890.05 485.45 777.95 485.45 765.5 477.35 659.3 357.85 636.75 327.55 619.05 312.4 637.05 313.95 658.25 309.4 692.45 300.3 680.45 298.85 664.75 297.3 Q660.6 297.3 651.95 295.2 642.2 292.85 635.45 289.75 625.65 285.2 612.65 277.6 613.25 277.05 619.8 275.0 L631.95 271.55 Q635.0 270.75 641.85 261.25 L645.7 255.55 645.15 256.4 656.6 257.95 641.95 242.05 662.3 254.9 684.3 259.45 678.5 254.15 667.2 244.3 655.0 235.5 Q648.1 230.7 647.65 228.4 647.15 226.05 640.45 223.6 637.05 222.35 633.8 221.6 L644.4 201.9 Q659.05 199.65 663.15 200.45 L674.45 199.6 682.7 198.15 655.0 194.35 651.75 190.5 Q648.1 186.55 646.05 186.05 644.0 185.55 641.55 182.55 L639.5 179.6 Q643.2 181.95 660.05 178.25 L668.45 176.2 669.65 176.95 692.45 170.15 Q707.1 167.85 710.35 167.85 L724.65 165.2 736.45 162.55 703.85 160.3 690.0 156.5 675.35 158.8 668.85 150.5 672.15 127.75 Q675.2 127.75 686.7 119.7 692.5 115.6 697.65 111.55 L715.6 91.45 720.45 79.35 723.65 67.2 Q724.6 63.75 729.9 63.1 737.85 62.05 739.75 61.2 743.5 59.4 752.6 59.05 L759.45 58.8 775.05 57.95 Q787.05 56.85 786.35 58.9 786.1 59.55 784.65 60.45 L783.2 61.2 795.55 60.6 Q808.15 59.4 809.6 56.45 811.0 53.5 827.8 44.9 836.2 40.65 844.3 36.95 L866.85 18.75 891.45 27.8 908.65 16.1 M908.65 294.6 L908.65 485.45 901.5 485.45 908.65 294.6 M732.8 137.55 L774.7 124.5 815.75 112.75 855.3 99.5 835.8 94.9 793.45 99.45 752.7 113.05 790.2 110.05 730.3 137.95 721.45 139.2 676.15 129.75 721.45 139.2 730.3 137.95 727.55 139.2 732.8 137.55 792.95 128.9 858.35 137.75 792.95 128.9 732.8 137.55 M715.95 189.55 L720.95 196.6 739.7 204.2 Q739.15 202.75 749.95 205.25 L760.85 208.0 765.95 214.95 Q771.65 222.55 774.7 225.4 777.75 228.2 795.7 232.4 L854.5 244.3 841.05 236.45 825.2 226.9 Q822.65 225.15 813.2 216.7 803.6 208.1 802.4 206.45 801.35 205.05 799.35 193.15 L797.5 181.45 780.4 176.2 Q778.85 175.7 781.55 180.45 L784.5 185.3 789.35 208.0 779.6 205.8 Q769.8 203.35 769.8 201.9 769.8 200.4 764.0 197.1 759.1 194.3 755.15 192.85 752.8 191.95 733.4 187.65 L712.8 183.0 Q711.25 182.55 715.95 189.55 M804.85 289.6 L786.95 254.8 806.45 325.9 793.45 333.5 808.1 386.4 817.85 416.7 821.15 400.1 834.15 431.85 855.35 459.1 855.55 450.2 Q855.95 440.75 856.95 437.9 857.95 435.2 855.15 414.45 L852.1 390.95 Q852.1 388.15 847.2 365.1 L842.3 342.6 830.9 381.9 824.4 325.9 804.85 289.6 M733.65 280.3 L756.45 306.7 761.0 359.6 782.3 408.1 761.0 359.6 756.45 306.7 733.65 280.3 M712.35 264.1 L692.55 230.3 663.65 211.2 692.55 230.3 712.35 264.1 M773.2 381.65 L777.75 305.25 767.1 264.1 764.05 230.3 767.1 264.1 777.75 305.25 773.2 381.65 M0.0 0.0 L3.05 0.0 3.15 0.05 60.7 12.25 80.25 12.9 109.95 12.55 125.6 12.2 126.0 12.2 218.1 93.75 230.85 109.65 230.85 132.5 242.15 154.95 250.25 168.55 Q252.6 172.15 254.4 176.25 257.9 184.4 256.1 188.75 254.9 191.65 251.3 192.6 240.45 195.5 225.75 200.05 218.85 217.0 216.0 222.4 215.4 223.55 217.1 225.9 L221.15 230.55 Q227.55 237.4 229.3 241.4 232.4 248.35 227.4 254.35 222.85 259.8 224.45 263.5 225.65 266.45 230.35 268.25 L234.9 269.55 235.2 269.55 235.4 269.75 Q240.95 274.45 245.05 278.95 253.1 287.8 252.0 291.85 251.0 295.5 249.8 306.75 L248.75 317.45 248.7 318.1 232.8 334.0 233.1 333.6 232.5 333.75 216.85 321.5 198.9 316.95 211.95 297.3 234.75 289.75 215.2 282.15 215.2 251.85 204.6 242.85 205.95 231.55 204.8 226.8 Q204.45 224.0 205.3 222.85 L189.25 233.15 163.35 245.75 183.15 261.55 186.2 288.4 157.3 293.2 154.25 324.8 140.55 364.3 125.35 321.65 129.9 294.8 123.3 302.0 112.8 350.05 111.65 359.55 108.2 374.0 102.55 397.45 91.9 419.6 167.95 399.05 199.15 349.35 198.75 348.4 206.25 341.9 197.25 385.85 72.9 485.45 0.0 485.45 0.0 0.0 M132.95 147.75 L132.65 147.4 164.9 152.5 198.35 162.0 219.65 158.85 198.35 162.0 164.9 152.5 132.65 147.4 132.95 147.75 M126.85 285.65 L113.4 321.95 108.2 374.0 113.4 321.95 126.85 285.65 M200.55 195.75 L196.85 204.7 209.0 220.5 206.45 222.15 207.05 222.05 Q210.25 222.05 210.15 216.7 210.0 211.75 207.5 207.85 205.6 204.9 205.6 197.35 L205.65 195.25 215.2 194.35 224.95 198.9 251.05 191.3 245.35 187.35 Q238.8 183.2 234.75 182.25 L226.8 180.15 Q223.1 179.25 220.1 179.25 217.2 179.25 209.5 182.45 L206.7 183.65 205.3 184.25 198.9 186.8 Q194.0 188.3 166.35 198.9 L200.55 195.75 M113.2 95.65 L87.3 84.55 50.8 75.05 42.05 74.1 Q32.2 72.1 26.5 67.15 20.8 62.25 10.9 60.25 L2.15 59.25 10.9 60.25 Q20.8 62.25 26.5 67.15 32.2 72.1 42.05 74.1 L50.8 75.05 87.3 84.55 113.2 95.65 M114.7 212.6 L160.35 177.8 187.7 177.8 204.45 166.75 187.7 177.8 160.35 177.8 114.7 212.6 M1.0 86.8 L1.0 459.6 31.25 425.15 63.2 407.8 76.9 377.8 99.7 343.0 73.85 361.95 57.1 385.7 34.3 398.35 8.45 392.05 55.6 355.65 81.45 311.4 92.65 295.0 Q104.45 278.05 107.3 275.1 110.15 272.1 118.15 265.35 L125.55 259.25 112.25 257.45 Q98.55 256.25 96.65 259.25 94.75 262.2 87.15 268.1 L79.95 273.45 57.1 283.0 49.15 282.4 34.3 283.0 Q28.6 283.95 28.6 263.0 28.6 252.55 29.75 241.85 8.45 199.2 6.9 194.45 5.95 191.5 10.15 161.05 12.25 145.85 14.5 131.25 L11.1 117.0 Q7.3 102.0 5.4 98.05 4.35 95.9 1.0 86.8 M79.7 120.9 L116.2 127.25 132.65 147.4 116.2 127.25 79.7 120.9 M43.2 160.4 L105.55 143.05 132.05 147.3 105.55 143.05 43.2 160.4 M21.7 20.9 L8.25 57.7 41.7 60.85 81.25 45.05 41.7 60.85 8.25 57.7 21.7 20.9" fill="#ffffff" fill-opacity="0.0" fill-rule="evenodd" stroke="none"/>
    <path d="M672.15 127.75 L668.85 150.5 675.35 158.8 690.0 156.5 703.85 160.3 736.45 162.55 724.65 165.2 710.35 167.85 Q707.1 167.85 692.45 170.15 L669.65 176.95 668.45 176.2 668.35 176.15 Q676.8 173.45 677.0 171.45 L677.0 171.3 Q677.0 168.45 669.4 164.9 665.55 163.05 661.75 161.85 L664.9 145.9 665.15 144.8 665.3 144.3 670.5 129.0 Q671.05 128.25 671.55 127.95 L672.15 127.75 M890.05 485.45 L898.1 458.0 904.2 378.75 881.4 339.05 866.55 326.75 Q851.35 313.9 849.45 311.15 847.55 308.4 841.45 283.75 L835.75 259.7 854.0 286.15 879.85 302.3 884.25 294.95 Q888.4 286.9 887.45 283.2 886.5 279.55 881.55 242.05 L876.8 205.35 899.65 161.25 893.0 142.7 Q886.5 123.25 887.45 118.65 888.4 114.05 875.1 110.7 868.45 109.05 861.6 108.35 L896.6 95.15 905.7 53.95 908.65 26.95 908.65 294.6 901.5 485.45 890.05 485.45 M730.3 137.95 L790.2 110.05 752.7 113.05 793.45 99.45 835.8 94.9 855.3 99.5 815.75 112.75 774.7 124.5 732.8 137.55 730.3 137.95 M715.95 189.55 Q711.25 182.55 712.8 183.0 L733.4 187.65 Q752.8 191.95 755.15 192.85 759.1 194.3 764.0 197.1 769.8 200.4 769.8 201.9 769.8 203.35 779.6 205.8 L789.35 208.0 784.5 185.3 781.55 180.45 Q778.85 175.7 780.4 176.2 L797.5 181.45 799.35 193.15 Q801.35 205.05 802.4 206.45 803.6 208.1 813.2 216.7 822.65 225.15 825.2 226.9 L841.05 236.45 854.5 244.3 795.7 232.4 Q777.75 228.2 774.7 225.4 771.65 222.55 765.95 214.95 L760.85 208.0 749.95 205.25 Q739.15 202.75 739.7 204.2 L720.95 196.6 715.95 189.55 M804.85 289.6 L824.4 325.9 830.9 381.9 842.3 342.6 847.2 365.1 Q852.1 388.15 852.1 390.95 L855.15 414.45 Q857.95 435.2 856.95 437.9 855.95 440.75 855.55 450.2 L855.35 459.1 834.15 431.85 821.15 400.1 817.85 416.7 808.1 386.4 793.45 333.5 806.45 325.9 786.95 254.8 804.85 289.6 M198.75 348.4 L199.15 349.35 167.95 399.05 91.9 419.6 102.55 397.45 108.2 374.0 107.45 381.3 108.2 374.0 111.65 359.55 112.8 350.05 123.3 302.0 129.9 294.8 125.35 321.65 140.55 364.3 154.25 324.8 157.3 293.2 186.2 288.4 183.15 261.55 163.35 245.75 189.25 233.15 205.3 222.85 Q204.45 224.0 204.8 226.8 L205.95 231.55 204.6 242.85 195.65 235.25 202.9 256.35 202.95 256.5 Q204.35 262.15 205.2 267.95 206.1 274.2 205.65 277.4 205.25 280.2 203.8 280.6 200.75 281.6 193.9 301.5 L187.7 321.2 187.85 321.3 203.8 333.6 185.9 356.3 194.2 352.35 198.75 348.4 M205.65 195.25 L205.6 197.35 Q205.6 204.9 207.5 207.85 210.0 211.75 210.15 216.7 210.25 222.05 207.05 222.05 L206.45 222.15 209.0 220.5 196.85 204.7 200.55 195.75 205.65 195.25 M1.0 86.8 Q4.35 95.9 5.4 98.05 7.3 102.0 11.1 117.0 L14.5 131.25 Q12.25 145.85 10.15 161.05 5.95 191.5 6.9 194.45 8.45 199.2 29.75 241.85 28.6 252.55 28.6 263.0 28.6 283.95 34.3 283.0 L49.15 282.4 57.1 283.0 79.95 273.45 87.15 268.1 Q94.75 262.2 96.65 259.25 98.55 256.25 112.25 257.45 L125.55 259.25 118.15 265.35 Q110.15 272.1 107.3 275.1 104.45 278.05 92.65 295.0 L81.45 311.4 55.6 355.65 8.45 392.05 34.3 398.35 57.1 385.7 73.85 361.95 99.7 343.0 76.9 377.8 63.2 407.8 31.25 425.15 1.0 459.6 1.0 86.8" fill="#000000" fill-opacity="0.09803922" fill-rule="evenodd" stroke="none"/>
    <path d="M639.5 179.6 L641.55 182.55 Q644.0 185.55 646.05 186.05 648.1 186.55 651.75 190.5 L655.0 194.35 682.7 198.15 674.45 199.6 663.15 200.45 Q659.05 199.65 644.4 201.9 L633.8 221.6 Q637.05 222.35 640.45 223.6 647.15 226.05 647.65 228.4 648.1 230.7 655.0 235.5 L667.2 244.3 678.5 254.15 684.3 259.45 662.3 254.9 641.95 242.05 656.6 257.95 645.15 256.4 645.7 255.55 646.25 254.7 647.35 253.0 648.05 251.85 626.0 232.65 Q621.4 227.8 620.4 224.25 620.25 223.85 622.05 216.1 624.05 207.65 625.65 203.45 L631.15 189.4 Q636.5 177.7 639.5 179.6 M612.65 277.6 Q625.65 285.2 635.45 289.75 642.2 292.85 651.95 295.2 660.6 297.3 664.75 297.3 L680.45 298.85 692.45 300.3 658.25 309.4 637.05 313.95 619.05 312.4 622.5 305.6 Q625.3 298.05 622.3 294.25 L620.05 291.65 613.7 285.45 Q609.45 280.55 612.65 277.6 M200.55 195.75 L166.35 198.9 Q194.0 188.3 198.9 186.8 L205.3 184.25 206.7 183.65 209.5 182.45 Q217.2 179.25 220.1 179.25 223.1 179.25 226.8 180.15 L234.75 182.25 Q238.8 183.2 245.35 187.35 L251.05 191.3 224.95 198.9 215.2 194.35 205.65 195.25 200.55 195.75" fill="#000000" fill-opacity="0.2" fill-rule="evenodd" stroke="none"/>
    <path d="M730.3 137.95 L732.8 137.55 727.55 139.2 730.3 137.95" fill="#c4c6c8" fill-rule="evenodd" stroke="none"/>
    <path d="M206.25 341.9 L198.75 348.4 194.2 352.35 185.9 356.3 203.8 333.6 187.85 321.3 187.7 321.2 193.9 301.5 Q200.75 281.6 203.8 280.6 205.25 280.2 205.65 277.4 206.1 274.2 205.2 267.95 204.35 262.15 202.95 256.5 L202.9 256.35 195.65 235.25 204.6 242.85 215.2 251.85 215.2 282.15 234.75 289.75 211.95 297.3 198.9 316.95 216.85 321.5 232.5 333.75 208.7 339.7 207.45 340.8 206.25 341.9" fill="#000000" fill-opacity="0.29803923" fill-rule="evenodd" stroke="none"/>
    <path d="M908.65 16.1 L891.45 27.8 866.85 18.75 844.3 36.95 Q836.2 40.65 827.8 44.9 811.0 53.5 809.6 56.45 808.15 59.4 795.55 60.6 L783.2 61.2 784.65 60.45 Q786.1 59.55 786.35 58.9 787.05 56.85 775.05 57.95 L759.45 58.8 752.6 59.05 Q743.5 59.4 739.75 61.2 737.85 62.05 729.9 63.1 724.6 63.75 723.65 67.2 L720.45 79.35 715.6 91.45 697.65 111.55 Q692.5 115.6 686.7 119.7 675.2 127.75 672.15 127.75 671.35 127.75 670.5 129.0 L665.3 144.3 665.15 144.8 664.9 145.9 661.75 161.85 Q665.55 163.05 669.4 164.9 677.0 168.45 677.0 171.3 L677.0 171.45 Q676.8 173.45 668.35 176.15 L668.45 176.2 660.05 178.25 Q643.2 181.95 639.5 179.6 636.5 177.7 631.15 189.4 L625.65 203.45 Q624.05 207.65 622.05 216.1 620.25 223.85 620.4 224.25 621.4 227.8 626.0 232.65 L648.05 251.85 647.35 253.0 646.25 254.7 645.7 255.55 641.85 261.25 Q635.0 270.75 631.95 271.55 L619.8 275.0 Q613.25 277.05 612.65 277.6 609.45 280.55 613.7 285.45 L620.05 291.65 622.3 294.25 Q625.3 298.05 622.5 305.6 L619.05 312.4 636.75 327.55 659.3 357.85 765.5 477.35 777.95 485.45 M232.5 333.75 L233.1 333.6 232.8 334.0 248.7 318.1 248.75 317.45 249.8 306.75 Q251.0 295.5 252.0 291.85 253.1 287.8 245.05 278.95 240.95 274.45 235.4 269.75 L235.2 269.55 234.9 269.55 230.35 268.25 Q225.65 266.45 224.45 263.5 222.85 259.8 227.4 254.35 232.4 248.35 229.3 241.4 227.55 237.4 221.15 230.55 L217.1 225.9 Q215.4 223.55 216.0 222.4 218.85 217.0 225.75 200.05 240.45 195.5 251.3 192.6 254.9 191.65 256.1 188.75 257.9 184.4 254.4 176.25 252.6 172.15 250.25 168.55 L242.15 154.95 230.85 132.5 230.85 109.65 218.1 93.75 126.0 12.2 125.6 12.2 109.95 12.55 80.25 12.9 60.7 12.25 3.15 0.05 3.05 0.0 0.0 0.0 M72.9 485.45 L197.25 385.85 206.25 341.9 M232.5 333.75 L208.7 339.7 207.45 340.8" fill="none" stroke="#000000" stroke-linecap="round" stroke-linejoin="miter-clip" stroke-miterlimit="4.0" stroke-opacity="0.6" stroke-width="1.0"/>
    <path d="M908.65 26.95 L908.65 16.1 M777.95 485.45 L890.05 485.45 901.5 485.45 908.65 485.45 908.65 294.6 908.65 26.95 M0.0 0.0 L0.0 485.45 72.9 485.45" fill="none" stroke="#000000" stroke-linecap="round" stroke-linejoin="miter-clip" stroke-miterlimit="4.0" stroke-width="1.0"/>
    <path d="M730.3 137.95 L732.8 137.55 792.95 128.9 858.35 137.75 M676.15 129.75 L721.45 139.2 730.3 137.95 M764.05 230.3 L767.1 264.1 777.75 305.25 773.2 381.65 M663.65 211.2 L692.55 230.3 712.35 264.1 M782.3 408.1 L761.0 359.6 756.45 306.7 733.65 280.3 M108.2 374.0 L113.4 321.95 126.85 285.65 M219.65 158.85 L198.35 162.0 164.9 152.5 132.65 147.4 132.95 147.75 M204.45 166.75 L187.7 177.8 160.35 177.8 114.7 212.6 M2.15 59.25 L10.9 60.25 Q20.8 62.25 26.5 67.15 32.2 72.1 42.05 74.1 L50.8 75.05 87.3 84.55 113.2 95.65 M81.25 45.05 L41.7 60.85 8.25 57.7 21.7 20.9 M132.05 147.3 L105.55 143.05 43.2 160.4 M132.65 147.4 L116.2 127.25 79.7 120.9 M107.45 381.3 L108.2 374.0" fill="none" stroke="#000000" stroke-linecap="round" stroke-linejoin="miter-clip" stroke-miterlimit="4.0" stroke-opacity="0.4" stroke-width="1.0"/>
  </g>
</svg>
