<?xml version="1.0" encoding="UTF-8" standalone="no"?>
<svg xmlns:xlink="http://www.w3.org/1999/xlink" height="22.7px" width="29.8px" xmlns="http://www.w3.org/2000/svg">
  <g transform="matrix(1.0, 0.0, 0.0, 1.0, 14.7, 11.25)">
    <path d="M-9.95 -4.8 L-10.0 -4.85 -9.95 -4.85 -9.95 -4.8" fill="#9d7f5c" fill-rule="evenodd" stroke="none"/>
    <path d="M0.0 -6.4 L0.6 -7.0 1.05 -7.2 1.3 -7.15 Q1.75 -6.95 1.6 -5.95 L1.8 -5.9 2.85 -6.85 Q3.45 -7.5 3.9 -7.75 L2.9 -5.5 3.25 -5.3 4.25 -5.65 3.95 -4.95 4.7 -4.5 5.1 -4.65 4.85 -4.4 4.95 -4.35 Q6.0 -4.95 7.75 -4.9 L7.9 -4.9 10.8 -4.45 Q8.85 -4.0 8.1 -2.8 7.25 -1.55 9.35 -1.0 L9.1 -0.65 8.85 -0.3 9.0 -0.05 9.55 0.1 10.1 0.25 9.35 0.85 9.55 1.6 Q11.7 1.95 13.55 2.85 L11.6 3.05 9.6 3.5 9.25 4.8 9.6 5.35 9.45 6.0 8.95 6.15 8.4 6.1 7.45 6.85 7.45 6.95 7.35 7.2 7.25 7.35 6.55 7.75 5.95 7.55 5.65 7.65 4.95 8.85 4.1 9.85 Q4.65 8.9 3.65 8.45 L1.8 8.0 1.75 8.0 -1.65 7.5 Q-3.05 8.65 -3.95 9.1 L-3.2 7.35 -3.45 7.35 -3.9 7.25 -4.4 7.1 -4.4 6.7 -5.1 6.35 -5.65 6.25 -6.1 5.85 -6.7 5.45 -8.05 6.5 Q-8.9 7.15 -9.45 7.3 L-8.55 6.05 -7.95 4.4 Q-8.95 3.4 -9.35 2.25 L-9.45 2.3 -9.35 2.2 -9.6 0.9 -11.2 1.1 -11.95 1.35 -13.75 2.05 Q-13.25 1.0 -11.75 0.1 L-9.25 -1.35 -8.4 -2.75 -9.15 -3.05 Q-8.8 -3.45 -7.7 -3.65 L-6.4 -4.75 -6.45 -4.75 -7.15 -4.9 -7.75 -4.8 -8.25 -4.75 -8.5 -4.7 -8.55 -4.7 -9.1 -4.65 -9.2 -4.65 -9.9 -4.85 -9.85 -4.85 -9.15 -4.9 -7.85 -5.1 -6.1 -5.35 -5.4 -5.5 -5.25 -5.5 -4.3 -6.0 -3.35 -6.35 Q-3.1 -6.85 -3.1 -7.85 L-2.25 -7.2 -1.25 -6.55 0.0 -6.4" fill="#ffffff" fill-opacity="0.0" fill-rule="evenodd" stroke="none"/>
    <path d="M0.0 -6.4 L-1.25 -6.55 -2.25 -7.2 -3.1 -7.85 Q-3.1 -6.85 -3.35 -6.35 L-4.3 -6.0 -5.25 -5.5 -5.4 -5.5 -6.1 -5.35 -7.85 -5.1 -9.15 -4.9 -9.85 -4.85 -9.9 -4.85 -9.2 -4.65 -9.1 -4.65 -8.55 -4.7 -8.5 -4.7 -8.25 -4.75 -7.75 -4.8 -7.15 -4.9 -6.45 -4.75 -6.4 -4.75 -7.7 -3.65 Q-8.8 -3.45 -9.15 -3.05 L-8.4 -2.75 -9.25 -1.35 -11.75 0.1 Q-13.25 1.0 -13.75 2.05 L-11.95 1.35 -11.2 1.1 -9.6 0.9 -9.35 2.2 -9.45 2.3 -9.35 2.25 Q-8.95 3.4 -7.95 4.4 L-8.55 6.05 -9.45 7.3 Q-8.9 7.15 -8.05 6.5 L-6.7 5.45 -6.1 5.85 -5.65 6.25 -5.1 6.35 -4.4 6.7 -4.4 7.1 -3.9 7.25 -3.45 7.35 -3.2 7.35 -3.95 9.1 Q-3.05 8.65 -1.65 7.5 L1.75 8.0 1.8 8.0 3.65 8.45 Q4.65 8.9 4.1 9.85 L4.95 8.85 5.65 7.65 5.95 7.55 6.55 7.75 7.25 7.35 7.35 7.2 7.45 6.95 7.45 6.85 8.4 6.1 8.95 6.15 9.45 6.0 9.6 5.35 9.25 4.8 9.6 3.5 11.6 3.05 13.55 2.85 Q11.7 1.95 9.55 1.6 L9.35 0.85 10.1 0.25 9.55 0.1 9.0 -0.05 8.85 -0.3 9.1 -0.65 9.35 -1.0 Q7.25 -1.55 8.1 -2.8 8.85 -4.0 10.8 -4.45 L7.9 -4.9 7.75 -4.9 Q6.0 -4.95 4.95 -4.35 L4.85 -4.4 5.1 -4.65 4.7 -4.5 3.95 -4.95 4.25 -5.65 3.25 -5.3 2.9 -5.5 3.9 -7.75 Q3.45 -7.5 2.85 -6.85 L1.8 -5.9 1.6 -5.95 Q1.75 -6.95 1.3 -7.15 L1.05 -7.2 0.6 -7.0 0.0 -6.4 Z" fill="none" stroke="#000000" stroke-linecap="butt" stroke-linejoin="miter-clip" stroke-miterlimit="4.0" stroke-opacity="0.6" stroke-width="1.0"/>
    <path d="M-3.35 -6.4 Q-3.1 -6.85 -3.1 -7.65 L-1.7 -5.55 -3.9 -5.65 Q-5.05 -5.2 -5.8 -4.4 L-5.55 -4.05 -5.25 -3.75 -5.6 -3.25 -5.95 -2.8 -3.9 -2.45 -1.7 -2.25 Q-5.75 -1.55 -8.0 -0.55 L-7.2 -0.6 -6.45 -0.6 -6.75 -0.2 -7.1 0.2 -6.65 1.15 -5.85 1.9 -6.05 2.1 -5.9 2.15 -5.75 2.15 -6.35 3.0 -6.9 3.9 -5.2 2.55 -3.4 1.3 -4.5 2.25 -5.35 3.35 Q-4.1 3.4 -2.9 2.65 L-1.0 0.9 -1.7 2.55 -0.5 1.5 -1.3 3.05 Q-1.6 3.9 -1.1 4.45 -0.4 5.25 0.55 4.85 L2.05 3.7 2.15 4.25 2.3 4.75 2.5 4.1 2.65 3.4 3.15 5.3 3.85 7.1 4.15 5.35 4.25 3.55 Q4.4 4.25 5.0 4.8 L6.2 5.65 6.0 4.9 5.7 4.15 6.55 4.9 Q6.05 3.4 7.45 2.85 L10.0 2.55 12.75 2.9 11.1 3.05 9.6 3.45 9.25 4.75 9.6 5.3 9.45 5.95 8.4 6.05 7.5 6.8 6.9 7.65 5.95 7.5 5.65 7.6 4.95 8.8 4.1 9.8 Q4.65 8.85 3.65 8.4 L1.8 7.95 1.75 7.95 -1.65 7.45 Q-3.05 8.6 -4.0 9.05 L-3.2 7.3 -3.8 7.25 -4.4 7.05 -4.4 6.65 -5.1 6.3 -5.65 6.2 -6.1 5.8 -6.7 5.4 -8.05 6.45 Q-8.9 7.1 -9.45 7.25 L-8.55 6.0 -7.95 4.35 Q-8.95 3.35 -9.35 2.2 L-9.45 2.25 -9.35 2.15 -9.6 0.85 -11.75 1.25 -13.75 2.05 Q-13.25 0.95 -11.75 0.05 L-9.25 -1.4 -8.4 -2.8 -9.15 -3.1 Q-8.8 -3.5 -7.7 -3.7 L-6.4 -4.8 Q-7.0 -5.05 -8.25 -4.8 L-10.0 -4.9 -7.85 -5.15 -5.4 -5.55 -5.25 -5.55 -4.3 -6.05 -3.35 -6.4" fill="#000000" fill-opacity="0.2" fill-rule="evenodd" stroke="none"/>
    <path d="M4.85 -4.65 Q5.4 -5.45 6.65 -6.25 L8.7 -7.6 M7.9 -2.4 L8.6 -2.75 9.45 -2.65 M8.55 -0.5 L10.4 -0.2 12.35 0.45 M11.55 2.3 L12.45 3.0 13.2 3.95 M6.4 1.0 Q7.4 1.5 8.55 2.7 9.5 3.7 10.25 4.85 M7.85 5.65 L9.1 7.85 M5.4 4.6 Q5.75 5.75 5.5 7.7 L4.9 10.8 M1.75 3.7 L1.35 5.05 1.0 6.35 M-7.6 -2.2 L-10.85 -1.95 -14.1 -0.8 M-0.1 -6.45 L-0.45 -8.65 Q-0.7 -10.0 -1.15 -10.75 M-3.75 -6.0 Q-3.95 -7.0 -6.85 -8.1 M-1.55 3.2 L-3.95 4.9 M0.0 6.45 Q0.1 7.05 -0.7 8.3 L-1.85 10.25 M-3.25 6.35 L-5.2 8.5 -7.15 10.65 M-8.05 2.2 Q-9.05 2.4 -10.35 3.3 L-12.4 4.9" fill="none" stroke="#000000" stroke-linecap="butt" stroke-linejoin="miter-clip" stroke-miterlimit="4.0" stroke-opacity="0.6" stroke-width="1.0"/>
  </g>
</svg>
