<?xml version="1.0" encoding="UTF-8" standalone="no"?>
<svg xmlns:xlink="http://www.w3.org/1999/xlink" height="36.25px" width="319.65px" xmlns="http://www.w3.org/2000/svg">
  <g transform="matrix(1.0, 0.0, 0.0, 1.0, 0.5, 0.5)">
    <path d="M1.7 16.45 Q1.8 17.7 3.15 18.8 4.75 20.6 9.65 22.65 19.5 26.75 36.05 28.0 L278.05 24.2 293.05 22.05 Q309.75 18.7 318.3 13.0 L318.5 13.85 Q318.85 16.85 318.35 20.25 309.75 25.95 293.1 29.3 284.8 30.95 278.2 31.45 L36.2 35.25 Q19.6 34.0 9.75 29.9 4.85 27.8 3.25 26.0 -2.35 21.3 1.7 16.45" fill="#000000" fill-opacity="0.24705882" fill-rule="evenodd" stroke="none"/>
    <path d="M1.7 16.45 Q1.5 15.2 2.6 13.85 4.5 11.5 9.6 9.4 21.2 4.7 29.4 6.55 L42.05 8.85 47.1 9.5 273.95 5.95 297.85 0.7 Q301.95 -1.3 307.75 2.35 311.85 4.95 315.75 9.55 L318.3 13.0 Q309.75 18.7 293.05 22.05 L278.05 24.2 36.05 28.0 Q19.5 26.75 9.65 22.65 4.75 20.6 3.15 18.8 1.8 17.7 1.7 16.45" fill="#ffffff" fill-opacity="0.0" fill-rule="evenodd" stroke="none"/>
    <path d="M318.3 13.0 L315.75 9.55 Q311.85 4.95 307.75 2.35 301.95 -1.3 297.85 0.7 L273.95 5.95 47.1 9.5 42.05 8.85 29.4 6.55 Q21.2 4.7 9.6 9.4 4.5 11.5 2.6 13.85 1.5 15.2 1.7 16.45 -2.35 21.3 3.25 26.0 4.85 27.8 9.75 29.9 19.6 34.0 36.2 35.25 L278.2 31.45 Q284.8 30.95 293.1 29.3 309.75 25.95 318.35 20.25 318.85 16.85 318.5 13.85 L318.3 13.0" fill="none" stroke="#000000" stroke-linecap="round" stroke-linejoin="round" stroke-width="1.0"/>
    <path d="M1.7 16.45 Q1.8 17.7 3.15 18.8 4.75 20.6 9.65 22.65 19.5 26.75 36.05 28.0 L278.05 24.2 293.05 22.05 Q309.75 18.7 318.3 13.0 Z" fill="none" stroke="#000000" stroke-linecap="round" stroke-linejoin="round" stroke-opacity="0.6" stroke-width="1.0"/>
  </g>
</svg>
