<?xml version="1.0" encoding="UTF-8" standalone="no"?>
<svg xmlns:xlink="http://www.w3.org/1999/xlink" height="465.45px" width="2083.45px" xmlns="http://www.w3.org/2000/svg">
  <g transform="matrix(1.0, 0.0, 0.0, 1.0, 0.05, 0.05)">
    <path d="M1970.6 139.45 L1970.6 462.65 1958.15 462.65 1958.15 139.45 1926.35 139.45 1926.35 462.65 1913.9 462.65 1913.9 139.45 1882.05 139.45 1882.05 462.65 1869.6 462.65 1869.6 139.45 1837.8 139.45 1837.8 462.65 1825.35 462.65 1825.35 139.45 1793.5 139.45 1793.5 462.65 1781.05 462.65 1781.05 139.45 1749.25 139.45 1749.25 462.65 1736.8 462.65 1736.8 139.45 1704.95 139.45 1704.95 462.65 1692.5 462.65 1692.5 139.45 1660.7 139.45 1660.7 462.65 1648.25 462.65 1648.25 139.45 1616.4 139.45 1616.4 462.65 1603.95 462.65 1603.95 139.45 1572.15 139.45 1572.15 462.65 1559.7 462.65 1559.7 139.45 1527.9 139.45 1527.9 462.65 1515.4 462.65 1515.4 139.45 1483.6 139.45 1483.6 462.65 1471.15 462.65 1471.15 139.45 1439.35 139.45 1439.35 462.65 1426.9 462.65 1426.9 139.45 1395.05 139.45 1395.05 462.65 1382.6 462.65 1382.6 139.45 1344.6 139.45 1344.6 127.1 2083.35 127.1 2083.35 139.45 2059.15 139.45 2059.15 462.65 2046.7 462.65 2046.7 139.45 2014.9 139.45 2014.9 462.65 2002.45 462.65 2002.45 139.45 1970.6 139.45 M1041.85 6.3 L1051.3 6.3 Q1060.4 5.9 1068.65 5.9 1116.35 6.0 1145.25 18.65 1162.05 25.95 1173.2 37.95 1185.25 50.85 1190.1 68.45 1198.05 96.8 1226.8 112.0 1235.8 116.8 1246.15 119.75 L1252.15 121.25 1253.8 121.6 1308.6 121.6 1308.6 133.95 1259.5 133.95 1259.5 246.5 1301.1 246.5 1301.1 258.85 1259.5 258.85 1259.5 462.65 1247.05 462.65 1247.05 258.85 1204.15 258.85 1204.15 465.35 1191.7 465.35 1191.7 258.85 1148.8 258.85 1148.8 465.35 1136.35 465.35 1136.35 258.85 1096.25 258.85 1096.25 465.35 1083.8 465.35 1083.8 258.85 1048.5 258.85 1048.5 465.3 1041.85 465.3 1041.5 465.3 1034.85 465.3 1034.85 258.85 999.55 258.85 999.55 465.35 987.1 465.35 987.1 258.85 947.0 258.85 947.0 465.35 934.55 465.35 934.55 258.85 891.65 258.85 891.65 465.35 879.2 465.35 879.2 258.85 836.3 258.85 836.3 462.65 823.85 462.65 823.85 258.85 782.25 258.85 782.25 246.5 823.85 246.5 823.85 133.95 774.75 133.95 774.75 121.6 829.55 121.6 831.2 121.25 837.2 119.75 Q847.55 116.8 856.55 112.0 885.3 96.8 893.25 68.45 898.1 50.85 910.15 37.95 921.3 25.95 938.1 18.65 967.0 6.0 1014.7 5.9 1022.95 5.9 1032.05 6.3 L1041.5 6.3 1041.85 6.3 M1178.1 71.8 Q1174.5 59.15 1167.0 49.75 1159.85 40.85 1148.8 34.4 L1148.8 246.5 1191.7 246.5 1191.7 98.9 1186.0 89.2 Q1179.9 78.2 1178.1 71.8 M1220.95 122.9 Q1211.95 118.25 1204.15 111.7 L1204.15 246.5 1247.05 246.5 1247.05 132.8 Q1233.2 129.45 1220.95 122.9 M1068.65 18.25 Q1060.85 18.25 1051.55 18.65 L1048.5 18.65 1048.5 246.5 1083.8 246.5 1083.8 18.65 1068.65 18.25 M1031.8 18.65 Q1022.5 18.25 1014.7 18.25 L999.55 18.65 999.55 246.5 1034.85 246.5 1034.85 18.65 1031.8 18.65 M1136.35 246.5 L1136.35 28.45 Q1119.65 21.9 1096.25 19.55 L1096.25 246.5 1136.35 246.5 M879.2 111.7 Q871.4 118.25 862.4 122.9 850.15 129.45 836.3 132.8 L836.3 246.5 879.2 246.5 879.2 111.7 M905.25 71.8 Q903.45 78.2 897.35 89.2 L891.65 98.9 891.65 246.5 934.55 246.5 934.55 34.4 Q923.5 40.85 916.35 49.75 908.85 59.15 905.25 71.8 M987.1 246.5 L987.1 19.55 Q963.7 21.9 947.0 28.45 L947.0 246.5 987.1 246.5 M688.3 139.45 L656.45 139.45 656.45 462.65 644.0 462.65 644.0 139.45 612.2 139.45 612.2 462.65 599.75 462.65 599.75 139.45 567.95 139.45 567.95 462.65 555.45 462.65 555.45 139.45 523.65 139.45 523.65 462.65 511.2 462.65 511.2 139.45 479.4 139.45 479.4 462.65 466.95 462.65 466.95 139.45 435.1 139.45 435.1 462.65 422.65 462.65 422.65 139.45 390.85 139.45 390.85 462.65 378.4 462.65 378.4 139.45 346.55 139.45 346.55 462.65 334.1 462.65 334.1 139.45 302.3 139.45 302.3 462.65 289.85 462.65 289.85 139.45 258.0 139.45 258.0 462.65 245.55 462.65 245.55 139.45 213.75 139.45 213.75 462.65 201.3 462.65 201.3 139.45 169.45 139.45 169.45 462.65 157.0 462.65 157.0 139.45 125.2 139.45 125.2 462.65 112.75 462.65 112.75 139.45 80.9 139.45 80.9 462.65 68.45 462.65 68.45 139.45 36.65 139.45 36.65 462.65 24.2 462.65 24.2 139.45 0.0 139.45 0.0 127.1 738.75 127.1 738.75 139.45 700.75 139.45 700.75 462.65 688.3 462.65 688.3 139.45" fill="#ffffff" fill-opacity="0.0" fill-rule="evenodd" stroke="none"/>
    <path d="M1328.75 0.0 Q1338.65 0.25 1345.7 7.9 1351.95 14.7 1352.85 23.9 L1353.0 27.0 Q1353.0 38.15 1345.7 46.05 1338.6 53.75 1328.65 53.95 1319.65 39.75 1320.8 23.9 L1321.05 21.5 Q1322.5 9.3 1328.75 0.0 M754.6 0.0 Q760.85 9.3 762.3 21.5 L762.55 23.9 Q763.7 39.75 754.7 53.95 744.75 53.75 737.65 46.05 730.35 38.15 730.35 27.0 730.35 25.4 730.5 23.9 731.4 14.7 737.65 7.9 744.7 0.25 754.6 0.0" fill="#ffffff" fill-opacity="0.09803922" fill-rule="evenodd" stroke="none"/>
    <path d="M1328.65 53.95 L1328.1 53.95 1326.5 53.9 1318.7 51.05 1314.8 48.8 Q1318.05 51.2 1321.3 52.8 L1322.4 53.3 Q1315.75 51.65 1310.55 46.05 1303.25 38.15 1303.25 27.0 1303.25 25.4 1303.4 23.9 1304.3 14.7 1310.55 7.9 1313.05 5.2 1315.85 3.4 1321.35 0.0 1328.1 0.0 L1328.75 0.0 Q1322.5 9.3 1321.05 21.5 L1320.8 23.9 Q1319.65 39.75 1328.65 53.95 M1308.3 41.6 L1307.8 40.8 1308.9 42.55 1308.3 41.6 M775.55 40.8 L775.05 41.6 774.45 42.55 775.55 40.8 M754.6 0.0 L755.25 0.0 Q762.0 0.0 767.5 3.4 770.3 5.2 772.8 7.9 779.05 14.7 779.95 23.9 L780.1 27.0 Q780.1 38.15 772.8 46.05 767.6 51.65 760.95 53.3 L762.05 52.8 Q765.3 51.2 768.55 48.8 L764.65 51.05 756.85 53.9 755.25 53.95 754.7 53.95 Q763.7 39.75 762.55 23.9 L762.3 21.5 Q760.85 9.3 754.6 0.0" fill="#000000" fill-opacity="0.09803922" fill-rule="evenodd" stroke="none"/>
    <path d="M1326.5 53.9 L1322.4 53.3 1321.3 52.8 Q1318.05 51.2 1314.8 48.8 L1318.7 51.05 1326.5 53.9 M1308.3 41.6 L1308.9 42.55 1307.8 40.8 1308.3 41.6 M775.55 40.8 L774.45 42.55 775.05 41.6 775.55 40.8 M756.85 53.9 L764.65 51.05 768.55 48.8 Q765.3 51.2 762.05 52.8 L760.95 53.3 756.85 53.9" fill="#e1e2e3" fill-rule="evenodd" stroke="none"/>
    <path d="M1970.6 139.45 L1970.6 462.65 1958.15 462.65 1958.15 139.45 1926.35 139.45 1926.35 462.65 1913.9 462.65 1913.9 139.45 1882.05 139.45 1882.05 462.65 1869.6 462.65 1869.6 139.45 1837.8 139.45 1837.8 462.65 1825.35 462.65 1825.35 139.45 1793.5 139.45 1793.5 462.65 1781.05 462.65 1781.05 139.45 1749.25 139.45 1749.25 462.65 1736.8 462.65 1736.8 139.45 1704.95 139.45 1704.95 462.65 1692.5 462.65 1692.5 139.45 1660.7 139.45 1660.7 462.65 1648.25 462.65 1648.25 139.45 1616.4 139.45 1616.4 462.65 1603.95 462.65 1603.95 139.45 1572.15 139.45 1572.15 462.65 1559.7 462.65 1559.7 139.45 1527.9 139.45 1527.9 462.65 1515.4 462.65 1515.4 139.45 1483.6 139.45 1483.6 462.65 1471.15 462.65 1471.15 139.45 1439.35 139.45 1439.35 462.65 1426.9 462.65 1426.9 139.45 1395.05 139.45 1395.05 462.65 1382.6 462.65 1382.6 139.45 1344.6 139.45 1344.6 127.1 2083.35 127.1 2083.35 139.45 2059.15 139.45 2059.15 462.65 2046.7 462.65 2046.7 139.45 2014.9 139.45 2014.9 462.65 2002.45 462.65 2002.45 139.45 1970.6 139.45 M1328.75 0.0 Q1338.65 0.25 1345.7 7.9 1351.95 14.7 1352.85 23.9 L1353.0 27.0 Q1353.0 38.15 1345.7 46.05 1338.6 53.75 1328.65 53.95 L1328.1 53.95 1326.5 53.9 1322.4 53.3 Q1315.75 51.65 1310.55 46.05 1303.25 38.15 1303.25 27.0 1303.25 25.4 1303.4 23.9 1304.3 14.7 1310.55 7.9 1313.05 5.2 1315.85 3.4 1321.35 0.0 1328.1 0.0 L1328.75 0.0 M1041.85 6.3 L1051.3 6.3 Q1060.4 5.9 1068.65 5.9 1116.35 6.0 1145.25 18.65 1162.05 25.95 1173.2 37.95 1185.25 50.85 1190.1 68.45 1198.05 96.8 1226.8 112.0 1235.8 116.8 1246.15 119.75 L1252.15 121.25 1253.8 121.6 1308.6 121.6 1308.6 133.95 1259.5 133.95 1259.5 246.5 1301.1 246.5 1301.1 258.85 1259.5 258.85 1259.5 462.65 1247.05 462.65 1247.05 258.85 1204.15 258.85 1204.15 465.35 1191.7 465.35 1191.7 258.85 1148.8 258.85 1148.8 465.35 1136.35 465.35 1136.35 258.85 1096.25 258.85 1096.25 465.35 1083.8 465.35 1083.8 258.85 1048.5 258.85 1048.5 465.3 1041.85 465.3 1041.5 465.3 1034.85 465.3 1034.85 258.85 999.55 258.85 999.55 465.35 987.1 465.35 987.1 258.85 947.0 258.85 947.0 465.35 934.55 465.35 934.55 258.85 891.65 258.85 891.65 465.35 879.2 465.35 879.2 258.85 836.3 258.85 836.3 462.65 823.85 462.65 823.85 258.85 782.25 258.85 782.25 246.5 823.85 246.5 823.85 133.95 774.75 133.95 774.75 121.6 829.55 121.6 831.2 121.25 837.2 119.75 Q847.55 116.8 856.55 112.0 885.3 96.8 893.25 68.45 898.1 50.85 910.15 37.95 921.3 25.95 938.1 18.65 967.0 6.0 1014.7 5.9 1022.95 5.9 1032.05 6.3 L1041.5 6.3 M1178.1 71.8 Q1174.5 59.15 1167.0 49.75 1159.85 40.85 1148.8 34.4 L1148.8 246.5 1191.7 246.5 1191.7 98.9 1186.0 89.2 Q1179.9 78.2 1178.1 71.8 M1220.95 122.9 Q1211.95 118.25 1204.15 111.7 L1204.15 246.5 1247.05 246.5 1247.05 132.8 Q1233.2 129.45 1220.95 122.9 M1068.65 18.25 Q1060.85 18.25 1051.55 18.65 L1048.5 18.65 1048.5 246.5 1083.8 246.5 1083.8 18.65 1068.65 18.25 M1031.8 18.65 L1034.85 18.65 1034.85 246.5 999.55 246.5 999.55 18.65 1014.7 18.25 Q1022.5 18.25 1031.8 18.65 M1136.35 246.5 L1136.35 28.45 Q1119.65 21.9 1096.25 19.55 L1096.25 246.5 1136.35 246.5 M987.1 246.5 L947.0 246.5 947.0 28.45 Q963.7 21.9 987.1 19.55 L987.1 246.5 M905.25 71.8 Q908.85 59.15 916.35 49.75 923.5 40.85 934.55 34.4 L934.55 246.5 891.65 246.5 891.65 98.9 897.35 89.2 Q903.45 78.2 905.25 71.8 M879.2 111.7 L879.2 246.5 836.3 246.5 836.3 132.8 Q850.15 129.45 862.4 122.9 871.4 118.25 879.2 111.7 M760.95 53.3 Q767.6 51.65 772.8 46.05 780.1 38.15 780.1 27.0 L779.95 23.9 Q779.05 14.7 772.8 7.9 770.3 5.2 767.5 3.4 762.0 0.0 755.25 0.0 L754.6 0.0 Q744.7 0.25 737.65 7.9 731.4 14.7 730.5 23.9 730.35 25.4 730.35 27.0 730.35 38.15 737.65 46.05 744.75 53.75 754.7 53.95 L755.25 53.95 756.85 53.9 760.95 53.3 M688.3 139.45 L688.3 462.65 700.75 462.65 700.75 139.45 738.75 139.45 738.75 127.1 0.0 127.1 0.0 139.45 24.2 139.45 24.2 462.65 36.65 462.65 36.65 139.45 68.45 139.45 68.45 462.65 80.9 462.65 80.9 139.45 112.75 139.45 112.75 462.65 125.2 462.65 125.2 139.45 157.0 139.45 157.0 462.65 169.45 462.65 169.45 139.45 201.3 139.45 201.3 462.65 213.75 462.65 213.75 139.45 245.55 139.45 245.55 462.65 258.0 462.65 258.0 139.45 289.85 139.45 289.85 462.65 302.3 462.65 302.3 139.45 334.1 139.45 334.1 462.65 346.55 462.65 346.55 139.45 378.4 139.45 378.4 462.65 390.85 462.65 390.85 139.45 422.65 139.45 422.65 462.65 435.1 462.65 435.1 139.45 466.95 139.45 466.95 462.65 479.4 462.65 479.4 139.45 511.2 139.45 511.2 462.65 523.65 462.65 523.65 139.45 555.45 139.45 555.45 462.65 567.95 462.65 567.95 139.45 599.75 139.45 599.75 462.65 612.2 462.65 612.2 139.45 644.0 139.45 644.0 462.65 656.45 462.65 656.45 139.45 688.3 139.45" fill="none" stroke="#000000" stroke-linecap="butt" stroke-linejoin="miter-clip" stroke-miterlimit="4.0" stroke-opacity="0.6" stroke-width="0.1"/>
  </g>
</svg>
