<?xml version="1.0" encoding="UTF-8" standalone="no"?>
<svg xmlns:xlink="http://www.w3.org/1999/xlink" height="176.4px" width="727.2px" xmlns="http://www.w3.org/2000/svg">
  <g transform="matrix(1.0, 0.0, 0.0, 1.0, 0.0, 0.0)">
    <path d="M558.45 167.4 L553.8 167.95 553.8 167.7 505.45 170.45 496.9 170.85 493.8 171.0 493.8 171.3 443.6 173.5 443.6 173.05 418.4 174.2 425.1 168.15 Q428.65 163.7 429.55 155.9 422.45 155.45 417.75 136.25 412.85 117.5 415.75 104.15 418.4 91.65 427.55 89.2 438.7 86.3 442.3 80.5 445.6 75.15 450.3 52.85 453.45 38.1 465.9 33.9 476.4 30.3 491.1 38.35 501.0 43.75 505.45 51.55 508.35 56.6 508.95 62.65 L505.45 63.65 Q493.15 67.1 486.9 70.45 474.4 77.15 473.5 98.35 472.6 115.75 480.65 127.8 488.45 139.85 497.15 134.25 501.4 140.55 505.45 145.35 508.85 149.35 512.1 152.3 523.25 162.35 526.8 152.75 530.8 142.05 523.9 130.25 517.65 119.55 511.85 119.75 517.0 107.25 524.15 105.25 530.4 103.7 535.95 109.95 541.1 115.95 542.0 124.0 543.1 132.7 537.75 137.4 554.9 142.5 552.45 115.3 546.45 82.75 546.65 74.05 547.1 50.6 560.95 40.6 574.75 30.75 586.6 43.7 580.55 47.05 576.1 54.4 571.4 62.65 570.75 73.15 569.85 89.4 575.45 94.55 578.8 97.65 588.8 101.7 592.15 103.9 601.55 104.6 609.8 107.05 610.9 119.3 612.0 130.7 605.55 137.15 600.2 142.5 593.5 141.85 602.4 151.65 611.8 148.3 620.05 145.2 625.15 133.8 630.3 122.2 628.95 109.7 627.6 95.9 618.5 87.65 626.05 62.0 645.0 52.6 664.65 43.05 676.45 62.45 672.45 69.55 660.85 65.55 649.5 61.75 645.9 69.35 636.55 89.65 648.8 96.1 655.3 99.45 666.0 102.35 667.35 104.35 672.9 130.7 675.45 142.8 685.4 136.9 L688.3 134.9 Q697.45 127.8 700.1 105.95 702.8 84.5 696.55 73.6 732.0 122.2 726.45 151.65 L722.2 151.85 695.85 153.9 685.4 155.9 Q667.55 158.85 644.15 160.55 L576.55 165.9 558.45 167.4 M593.5 86.3 Q594.85 88.55 594.85 91.85 594.85 95.2 593.5 97.65 592.15 99.9 590.4 99.9 588.6 99.9 587.25 97.65 585.9 95.2 585.9 91.85 585.9 88.55 587.25 86.3 588.6 83.85 590.4 83.85 592.15 83.85 593.5 86.3 M560.05 26.75 Q556.9 26.75 556.9 21.4 556.9 16.05 560.05 16.05 561.15 16.05 562.05 17.6 562.95 19.15 562.95 21.4 562.95 26.75 560.05 26.75 M421.75 23.2 Q421.75 19.6 423.75 19.6 425.75 19.6 425.75 23.2 425.75 26.75 423.75 26.75 421.75 26.75 421.75 23.2 M401.9 44.6 Q403.9 44.6 403.9 48.15 403.9 51.75 401.9 51.75 399.9 51.75 399.9 48.15 399.9 44.6 401.9 44.6 M351.05 33.65 Q349.95 35.65 348.15 35.65 346.6 35.65 345.25 33.65 344.15 31.45 344.15 28.55 344.15 25.65 345.25 23.6 346.6 21.4 348.15 21.4 349.7 21.4 351.05 23.6 352.15 25.65 352.15 28.55 352.15 31.45 351.05 33.65 M251.35 173.75 L251.35 174.2 212.75 173.05 213.1 172.45 177.1 170.85 Q79.6 165.9 0.0 156.1 1.1 155.65 3.55 151.2 6.0 146.75 6.9 146.3 2.9 125.55 9.15 111.3 10.45 108.15 26.1 84.95 28.75 80.95 41.25 49.25 50.6 25.65 59.55 23.6 58.2 45.05 52.4 70.45 49.95 89.85 62.0 109.7 67.55 119.3 76.7 132.9 83.65 145.4 87.65 164.6 85.4 126.45 89.65 115.75 93.0 107.05 102.35 107.05 111.95 106.8 115.95 99.0 124.0 83.2 114.4 59.1 103.05 30.3 103.7 20.5 113.5 12.25 121.55 10.25 113.95 38.8 130.25 56.65 134.7 61.55 144.95 70.45 153.9 78.95 157.45 86.75 167.5 108.15 155.9 133.15 151.65 142.3 153.0 145.85 155.0 151.2 168.85 154.75 171.95 130.25 180.65 124.0 184.45 121.1 202.75 119.1 202.3 103.7 197.8 89.65 192.7 76.7 191.6 72.0 189.55 64.65 193.6 59.3 198.05 53.05 213.45 44.6 225.7 37.9 250.45 20.05 272.75 5.35 287.95 3.35 264.05 21.15 254.7 31.65 238.4 49.95 253.15 74.05 254.9 76.95 269.2 86.1 280.15 93.0 280.55 105.25 281.0 112.85 275.2 121.75 268.1 132.7 266.75 137.6 275.65 147.65 285.95 149.2 297.95 150.75 304.45 138.7 304.65 150.1 309.1 160.35 314.05 171.95 320.25 168.8 330.75 163.45 327.65 148.95 321.6 132.45 320.25 126.65 313.6 97.45 318.5 85.65 319.85 82.05 339.45 59.3 324.3 86.3 335.2 109.5 345.7 131.15 365.75 129.55 369.55 111.5 367.8 87.85 367.1 88.75 364.2 90.75 L360.4 94.1 361.75 77.4 358.4 76.05 Q363.1 68.45 373.15 68.45 383.6 68.25 388.5 76.7 396.35 90.1 393.65 108.15 392.3 118.2 387.4 136.7 383.85 157.9 386.3 165.7 388.75 173.3 397.45 174.2 L379.6 176.4 Q308.45 175.5 251.35 173.75 M317.35 74.9 Q315.35 78.5 312.45 78.5 309.55 78.5 307.35 74.9 305.35 71.15 305.35 66.0 305.35 60.85 307.35 57.1 309.55 53.5 312.45 53.5 315.35 53.5 317.35 57.1 319.4 60.85 319.4 66.0 319.4 71.15 317.35 74.9 M222.8 7.1 Q220.8 7.1 220.8 3.55 220.8 0.0 222.8 0.0 224.8 0.0 224.8 3.55 224.8 7.1 222.8 7.1 M173.05 42.8 Q174.65 42.8 175.95 45.05 177.1 47.05 177.1 49.95 177.1 52.85 175.95 55.05 174.85 57.1 173.05 57.1 171.5 57.1 170.4 55.05 169.3 52.85 169.3 49.95 169.3 47.05 170.4 45.05 171.5 42.8 173.05 42.8 M134.95 42.8 Q133.35 42.8 132.45 41.0 131.35 39.25 131.35 36.55 131.35 34.1 132.45 32.1 133.35 30.3 134.95 30.3 136.25 30.3 137.4 32.1 138.25 34.1 138.25 36.55 138.25 39.25 137.4 41.0 136.25 42.8 134.95 42.8 M75.8 8.9 Q76.95 8.9 77.85 10.45 78.7 12.05 78.7 14.25 78.7 19.6 75.8 19.6 72.7 19.6 72.7 14.25 72.7 8.9 75.8 8.9 M59.75 0.0 Q60.9 0.0 60.9 1.75 60.9 3.55 59.75 3.55 58.85 3.55 58.85 1.75 58.85 0.0 59.75 0.0" fill="#ffffff" fill-opacity="0.0" fill-rule="evenodd" stroke="none"/>
  </g>
</svg>
