<?xml version="1.0" encoding="UTF-8" standalone="no"?>
<svg xmlns:xlink="http://www.w3.org/1999/xlink" height="225.1px" width="896.95px" xmlns="http://www.w3.org/2000/svg">
  <g transform="matrix(1.0, 0.0, 0.0, 1.0, -2.65, -13.7)">
    <path d="M803.65 100.25 Q818.45 104.5 823.9 114.1 829.75 124.45 823.95 139.9 827.1 135.65 831.75 132.3 836.5 128.9 841.2 127.7 842.1 132.5 841.5 138.7 841.1 142.8 839.75 149.5 844.4 145.35 851.6 142.5 857.55 140.15 864.45 139.0 864.95 147.35 864.2 156.3 L859.75 160.2 Q857.0 162.5 856.45 164.6 850.95 185.3 866.15 209.05 872.7 219.25 881.7 227.25 890.6 235.15 899.6 238.8 L2.65 238.8 Q23.65 231.7 35.85 210.1 40.15 202.55 42.75 194.25 44.75 187.85 44.9 184.1 45.4 172.8 48.1 170.8 50.8 168.8 51.75 170.95 60.8 163.8 58.8 148.4 56.95 134.25 48.6 125.8 54.0 126.3 59.35 129.45 64.1 132.25 68.05 136.65 64.8 123.05 67.15 115.5 70.1 105.8 82.6 102.25 77.85 118.8 82.1 128.0 85.25 134.9 100.45 148.3 86.1 127.85 98.0 106.6 107.45 89.7 130.4 76.1 108.5 103.7 130.85 122.1 126.05 115.8 126.15 110.45 126.2 106.05 129.85 101.4 131.45 99.35 137.75 93.15 143.15 87.8 145.55 83.95 150.6 75.9 146.75 57.7 144.55 47.25 144.3 45.45 143.6 39.6 145.55 37.4 150.9 49.35 160.0 57.2 L168.65 64.1 Q174.6 68.7 178.75 72.6 188.4 81.65 191.05 96.55 192.4 103.95 192.4 123.8 193.1 114.2 196.55 105.65 200.55 95.7 207.05 90.6 206.35 102.95 213.85 108.75 218.8 112.6 231.2 115.3 245.15 118.3 249.85 120.75 258.95 125.55 260.5 135.8 260.8 126.95 259.8 120.05 258.65 112.1 255.65 105.2 263.7 107.5 268.15 109.9 274.85 113.55 277.15 118.95 274.85 110.05 280.3 104.55 285.65 99.1 295.1 100.35 292.25 112.1 292.35 115.55 292.65 124.35 301.7 125.7 301.55 110.25 305.4 102.4 310.9 91.25 325.0 92.3 321.2 103.85 320.25 110.0 318.65 120.9 324.9 127.0 327.05 114.6 337.95 106.6 342.0 103.65 348.25 100.5 L358.95 95.45 Q371.55 89.35 375.4 83.0 380.75 74.2 375.15 59.35 377.4 64.8 382.85 68.65 385.75 70.7 394.3 74.8 401.95 78.45 405.55 81.6 411.05 86.4 412.9 93.6 415.7 104.65 411.55 113.7 408.35 120.55 399.65 128.5 409.5 121.6 423.95 119.85 433.75 118.65 451.2 119.75 442.85 127.9 441.45 130.55 438.4 136.35 443.0 143.65 446.6 149.25 458.0 153.45 469.05 157.45 476.1 156.3 475.5 152.25 471.65 147.05 L464.6 138.25 Q460.7 133.05 460.0 129.0 459.1 123.7 463.0 118.4 475.15 127.15 476.35 139.4 475.7 130.45 482.95 125.85 489.65 121.55 499.3 122.9 500.75 126.9 501.75 127.25 505.2 128.4 505.95 128.9 506.35 122.0 504.15 107.75 501.65 91.5 501.45 85.3 501.0 73.2 505.05 66.15 509.95 57.55 522.15 54.8 510.55 61.95 512.7 70.35 514.3 76.7 525.15 86.3 L544.9 103.45 Q555.6 113.9 557.15 122.6 558.1 112.35 559.8 98.5 560.25 95.0 558.35 92.8 557.4 91.75 560.9 87.6 562.9 85.25 567.65 84.35 L575.3 83.9 Q570.35 87.75 570.9 93.85 571.4 99.35 575.8 104.7 580.15 109.9 585.7 112.1 591.75 114.45 596.25 111.85 606.85 105.65 600.3 91.45 596.05 82.25 586.45 72.45 L600.2 80.65 Q606.6 84.65 609.85 88.1 617.45 96.05 617.3 112.4 622.9 100.6 627.3 96.55 634.15 90.25 645.15 92.25 640.1 97.4 638.8 103.6 637.55 109.45 639.8 115.0 641.05 118.15 643.25 120.75 L643.35 120.75 Q647.1 125.2 652.7 127.35 L652.7 127.4 Q655.5 128.5 658.65 128.9 658.4 123.75 655.85 108.7 653.75 96.05 654.2 87.7 660.3 92.35 664.4 98.25 668.3 103.8 670.95 111.2 673.35 110.0 677.1 110.1 682.15 110.25 683.55 110.0 L683.8 121.75 Q683.85 129.25 684.2 133.45 687.5 123.45 689.35 119.6 693.25 111.5 698.75 108.1 703.35 105.25 712.05 106.65 721.0 108.1 723.75 106.6 729.0 103.75 729.95 94.0 L729.95 75.5 Q729.85 64.4 732.6 60.1 736.35 54.25 746.75 56.9 736.2 61.6 738.3 73.0 739.65 80.25 746.5 90.8 L754.25 103.15 Q757.05 108.25 757.4 111.9 757.8 115.8 755.7 120.75 753.9 125.0 748.7 133.4 761.55 123.3 765.6 115.0 769.3 107.45 770.4 90.65 L775.1 90.15 779.85 90.65 Q779.55 100.45 779.75 105.2 780.1 113.55 784.1 117.9 786.35 120.35 789.95 121.7 L796.15 123.5 Q803.55 125.6 805.45 132.2 807.75 124.85 808.0 116.1 808.35 104.35 803.65 100.25 799.8 99.1 795.5 98.45 800.6 97.55 803.65 100.25 M591.8 20.05 Q593.15 17.25 595.95 15.6 598.95 13.85 603.35 13.7 599.0 14.0 591.8 20.05" fill="#ffffff" fill-opacity="0.0" fill-rule="evenodd" stroke="none"/>
  </g>
</svg>
