<?xml version="1.0" encoding="UTF-8" standalone="no"?>
<svg xmlns:xlink="http://www.w3.org/1999/xlink" height="144.0px" width="307.85px" xmlns="http://www.w3.org/2000/svg">
  <g transform="matrix(1.0, 0.0, 0.0, 1.0, -267.25, -318.95)">
    <path d="M467.2 374.7 L466.95 357.8 Q466.7 347.1 467.45 339.65 467.35 354.1 474.45 368.5 479.25 378.15 490.7 393.25 504.0 410.75 508.2 417.7 516.85 432.05 518.85 445.6 520.1 453.75 520.45 458.45 L440.15 462.0 Q439.05 450.05 445.15 433.55 450.1 420.2 458.25 407.45 466.85 394.0 467.2 374.7 M495.0 343.25 Q496.0 343.25 496.75 344.55 497.45 345.85 497.45 347.65 497.45 349.5 496.75 350.8 496.0 352.1 495.0 352.1 494.0 352.1 493.25 350.8 492.55 349.5 492.55 347.65 492.55 345.85 493.25 344.55 494.0 343.25 495.0 343.25 M571.4 387.95 Q572.95 387.95 574.0 389.9 575.1 391.8 575.1 394.55 575.1 397.3 574.0 399.2 572.95 401.15 571.4 401.15 569.85 401.15 568.8 399.2 567.7 397.3 567.7 394.55 567.7 391.8 568.8 389.9 569.85 387.95 571.4 387.95 M270.05 319.85 Q270.55 320.7 270.55 321.9 270.55 323.1 270.05 323.95 269.6 324.8 268.9 324.8 268.2 324.8 267.75 323.95 267.25 323.1 267.25 321.9 267.25 320.7 267.75 319.85 268.25 318.95 268.9 318.95 269.6 318.95 270.05 319.85 M282.2 333.15 Q283.05 334.75 283.05 337.05 283.05 339.35 282.2 341.0 281.35 342.6 280.15 342.6 278.95 342.6 278.1 341.0 277.25 339.35 277.25 337.05 277.25 334.75 278.1 333.15 278.95 331.5 280.15 331.5 281.35 331.5 282.2 333.15 M325.95 462.95 L293.0 462.35 288.3 462.25 283.85 455.25 Q281.1 451.0 279.8 448.2 275.25 438.7 274.8 430.85 274.5 425.3 276.5 412.55 278.1 402.2 287.6 387.0 291.05 381.5 304.1 363.6 303.95 371.5 299.55 389.25 295.7 404.9 296.65 414.4 297.85 425.65 306.4 438.3 310.15 443.85 322.85 458.75 L325.95 462.95" fill="#ffffff" fill-opacity="0.0" fill-rule="evenodd" stroke="none"/>
  </g>
</svg>
