<?xml version="1.0" encoding="UTF-8" standalone="no"?>
<svg xmlns:xlink="http://www.w3.org/1999/xlink" height="101.95px" width="67.05px" xmlns="http://www.w3.org/2000/svg">
  <g transform="matrix(1.0, 0.0, 0.0, 1.0, 33.5, 50.95)">
    <path d="M20.0 -25.45 Q17.1 -30.0 14.0 -34.05 8.2 -41.15 4.1 -44.35 -1.95 -49.05 -8.3 -49.3 L-10.6 -49.1 -7.8 -50.1 -2.45 -50.25 Q3.8 -48.95 8.95 -43.35 12.45 -39.5 17.0 -31.5 L20.0 -25.45 M-28.15 -21.8 Q-29.9 -12.75 -29.9 -2.2 L-29.8 2.2 Q-29.15 20.3 -22.45 33.0 -18.9 39.75 -12.05 44.3 -5.45 48.7 2.2 49.7 L5.25 50.0 Q-1.35 51.35 -8.45 49.15 -15.85 46.85 -21.6 41.45 -27.6 35.85 -30.0 28.6 -34.55 14.9 -32.15 -3.0 L-31.55 -7.35 Q-30.25 -15.05 -28.15 -21.8 M11.4 -20.5 L13.4 -17.25 Q16.45 -12.1 18.05 -8.35 20.25 -3.45 21.65 3.0 23.15 10.05 23.1 16.4 23.2 26.4 19.6 32.5 17.7 35.7 15.2 37.45 12.45 39.4 8.3 40.1 L4.3 40.4 2.8 40.35 Q4.8 40.0 6.45 39.2 9.2 37.85 11.6 35.05 16.1 29.6 17.7 19.7 18.75 13.45 18.45 6.25 18.15 -0.3 16.8 -5.5 15.75 -9.6 13.65 -15.0 L11.4 -20.5 M-18.55 -19.1 Q-17.5 -25.25 -15.5 -30.6 -13.65 -35.75 -11.3 -38.0 -10.4 -38.85 -9.7 -39.15 L-8.3 -39.4 -8.0 -39.4 -7.55 -39.35 Q-10.05 -37.6 -12.65 -33.0 -16.2 -26.75 -18.55 -19.1" fill="#000000" fill-opacity="0.34901962" fill-rule="evenodd" stroke="none"/>
    <path d="M-10.6 -49.1 L-8.3 -49.3 Q-1.95 -49.05 4.1 -44.35 8.2 -41.15 14.0 -34.05 17.1 -30.0 20.0 -25.45 L21.95 -22.3 Q25.15 -16.85 27.15 -12.35 29.8 -6.4 31.35 0.9 33.0 8.75 33.05 16.4 32.95 29.1 28.25 37.4 24.1 44.7 16.8 47.9 11.45 50.25 5.25 50.0 L2.2 49.7 Q-5.45 48.7 -12.05 44.3 -18.9 39.75 -22.45 33.0 -29.15 20.3 -29.8 2.2 L-29.9 -2.2 Q-29.9 -12.75 -28.15 -21.8 -26.9 -28.3 -24.8 -34.0 -22.15 -41.3 -18.15 -45.15 -16.1 -47.15 -13.5 -48.25 -12.1 -48.85 -10.6 -49.1 M2.8 40.35 L4.3 40.4 8.3 40.1 Q12.45 39.4 15.2 37.45 17.7 35.7 19.6 32.5 23.2 26.4 23.1 16.4 23.15 10.05 21.65 3.0 20.25 -3.45 18.05 -8.35 16.45 -12.1 13.4 -17.25 L11.4 -20.5 6.15 -27.95 Q2.5 -32.85 -1.75 -36.2 -5.4 -39.1 -7.55 -39.35 L-8.0 -39.4 -8.3 -39.4 -9.7 -39.15 Q-10.4 -38.85 -11.3 -38.0 -13.65 -35.75 -15.5 -30.6 -17.5 -25.25 -18.55 -19.1 -20.0 -11.3 -20.0 -2.2 L-19.9 1.85 Q-19.65 8.9 -18.2 15.55 -16.55 23.0 -13.7 28.35 -10.35 34.3 -6.35 37.15 -2.45 39.95 2.8 40.35" fill="#ffffff" fill-opacity="0.0" fill-rule="evenodd" stroke="none"/>
    <path d="M-10.6 -49.1 L-8.3 -49.3 Q-1.95 -49.05 4.1 -44.35 8.2 -41.15 14.0 -34.05 17.1 -30.0 20.0 -25.45 L17.0 -31.5 Q12.45 -39.5 8.95 -43.35 3.8 -48.95 -2.45 -50.25 L-7.8 -50.1 -10.6 -49.1 Q-12.1 -48.85 -13.5 -48.25 -16.1 -47.15 -18.15 -45.15 -22.15 -41.3 -24.8 -34.0 -26.9 -28.3 -28.15 -21.8 -29.9 -12.75 -29.9 -2.2 L-29.8 2.2 Q-29.15 20.3 -22.45 33.0 -18.9 39.75 -12.05 44.3 -5.45 48.7 2.2 49.7 L5.25 50.0 Q11.45 50.25 16.8 47.9 24.1 44.7 28.25 37.4 32.95 29.1 33.05 16.4 33.0 8.75 31.35 0.9 29.8 -6.4 27.15 -12.35 25.15 -16.85 21.95 -22.3 L20.0 -25.45 M2.8 40.35 L4.3 40.4 8.3 40.1 Q12.45 39.4 15.2 37.45 17.7 35.7 19.6 32.5 23.2 26.4 23.1 16.4 23.15 10.05 21.65 3.0 20.25 -3.45 18.05 -8.35 16.45 -12.1 13.4 -17.25 L11.4 -20.5 13.65 -15.0 Q15.75 -9.6 16.8 -5.5 18.15 -0.3 18.45 6.25 18.75 13.45 17.7 19.7 16.1 29.6 11.6 35.05 9.2 37.85 6.45 39.2 4.8 40.0 2.8 40.35 -2.45 39.95 -6.35 37.15 -10.35 34.3 -13.7 28.35 -16.55 23.0 -18.2 15.55 -19.65 8.9 -19.9 1.85 L-20.0 -2.2 Q-20.0 -11.3 -18.55 -19.1 -17.5 -25.25 -15.5 -30.6 -13.65 -35.75 -11.3 -38.0 -10.4 -38.85 -9.7 -39.15 L-8.3 -39.4 -8.0 -39.4 -7.55 -39.35 Q-5.4 -39.1 -1.75 -36.2 2.5 -32.85 6.15 -27.95 L11.4 -20.5 M-7.55 -39.35 Q-10.05 -37.6 -12.65 -33.0 -16.2 -26.75 -18.55 -19.1 M5.25 50.0 Q-1.35 51.35 -8.45 49.15 -15.85 46.85 -21.6 41.45 -27.6 35.85 -30.0 28.6 -34.55 14.9 -32.15 -3.0 L-31.55 -7.35 Q-30.25 -15.05 -28.15 -21.8" fill="none" stroke="#000000" stroke-linecap="round" stroke-linejoin="miter-clip" stroke-miterlimit="4.0" stroke-width="1.0"/>
  </g>
</svg>
