<?xml version="1.0" encoding="UTF-8" standalone="no"?>
<svg xmlns:xlink="http://www.w3.org/1999/xlink" height="963.0px" width="859.3px" xmlns="http://www.w3.org/2000/svg">
  <g transform="matrix(1.0, 0.0, 0.0, 1.0, 451.9, 482.05)">
    <path d="M26.65 470.8 L-337.9 437.7 -337.9 186.05 26.65 206.55 26.65 470.8 M-406.85 152.45 L-405.75 41.75 -160.15 41.75 -160.15 163.4 -406.85 152.45 M118.55 25.6 L118.65 25.6 118.65 175.45 117.75 175.45 118.65 175.8 117.9 175.8 -132.95 164.6 -132.95 41.75 118.55 41.75 118.55 25.6 M117.75 175.45 L117.9 175.8 117.75 175.45" fill="#ffffff" fill-opacity="0.0" fill-rule="evenodd" stroke="none"/>
    <path d="M268.6 -350.65 L136.85 -5.7 125.2 24.8 118.65 24.1 118.5 24.05 118.65 24.1 125.2 24.8 136.85 -5.7 351.9 11.55 268.6 -350.65 292.0 -412.05 364.5 -78.05 387.6 33.5 364.5 -78.05 292.0 -412.05 268.6 -350.65 M101.85 16.5 L294.5 -480.45 406.85 25.3 387.6 33.5 353.7 32.25 353.8 33.5 351.9 33.45 118.65 25.6 118.55 25.6 118.55 41.75 -132.95 41.75 -160.15 41.75 -132.95 41.75 -132.95 164.6 117.9 175.8 118.65 175.8 117.75 175.45 118.65 175.45 351.9 175.8 317.85 212.6 315.1 212.6 315.1 213.2 315.1 252.2 229.1 258.85 229.1 469.75 215.35 471.4 215.35 471.3 215.35 259.9 139.35 265.75 133.25 480.45 26.65 470.85 26.65 470.8 26.65 206.55 -337.9 186.05 -337.9 437.7 -337.9 437.9 -378.0 434.05 -378.0 183.8 -406.85 152.45 -160.15 163.4 -132.95 164.6 -160.15 163.4 -160.15 41.75 -405.75 41.75 -405.45 7.7 -160.15 11.95 -160.15 11.8 -132.95 12.35 -132.95 12.45 101.85 16.5 100.55 19.8 118.5 24.05 100.55 19.8 101.85 16.5 M351.9 11.55 L353.7 32.25 351.9 11.55 M118.5 24.05 L118.55 25.6 118.5 24.05 M315.1 212.6 L134.6 212.6 125.15 191.75 122.0 184.85 117.9 175.8 122.0 184.85 125.15 191.75 134.6 212.6 315.1 212.6 M215.35 259.9 L229.1 258.85 215.35 259.9 M134.6 212.6 L26.65 206.55 134.6 212.6 M-160.15 11.95 L-132.95 12.45 -160.15 11.95 M-337.9 186.05 L-378.0 183.8 -337.9 186.05" fill="#000000" fill-opacity="0.2" fill-rule="evenodd" stroke="none"/>
    <path d="M136.85 -5.7 L268.6 -350.65 351.9 11.55 136.85 -5.7 M351.9 33.45 L351.9 175.8 118.65 175.45 118.65 25.6 351.9 33.45 M315.1 252.2 L315.1 460.05 315.1 460.15 229.1 469.75 229.1 258.85 315.1 252.2 M215.35 471.3 L133.25 480.45 139.35 265.75 215.35 259.9 215.35 471.3 M140.55 392.2 L211.65 389.45 140.55 392.2 M140.55 343.05 L211.65 340.3 140.55 343.05 M140.55 293.9 L211.65 291.15 140.55 293.9 M140.55 441.6 L211.65 438.85 140.55 441.6" fill="#ffffff" fill-opacity="0.09803922" fill-rule="evenodd" stroke="none"/>
    <path d="M351.9 33.45 L351.9 175.8 317.85 212.6 315.1 212.6 M315.1 213.2 L315.1 252.2 315.1 460.05 M315.1 460.15 L229.1 469.75 215.35 471.4 215.35 471.3 133.25 480.45 26.65 470.85 26.65 470.8 -337.9 437.7 -337.9 437.9 -378.0 434.05 -378.0 183.8 -406.85 152.45 -405.75 41.75 -405.45 7.7 -160.15 11.95 -160.15 11.8 -132.95 12.35 -132.95 12.45 101.85 16.5 M26.65 206.55 L134.6 212.6 M229.1 258.85 L215.35 259.9 215.35 471.3 M315.1 252.2 L229.1 258.85 229.1 469.75 M215.35 259.9 L139.35 265.75 133.25 480.45 M26.65 470.8 L26.65 206.55 -337.9 186.05 -337.9 437.7 M118.65 175.45 L351.9 175.8 M-160.15 41.75 L-132.95 41.75 -132.95 164.6 117.9 175.8 M-132.95 12.45 L-160.15 11.95 M-132.95 164.6 L-160.15 163.4 -406.85 152.45 M-160.15 41.75 L-160.15 163.4 M-378.0 183.8 L-337.9 186.05 M-405.75 41.75 L-160.15 41.75" fill="none" stroke="#000000" stroke-linecap="butt" stroke-linejoin="miter-clip" stroke-miterlimit="10.0" stroke-width="1.0"/>
    <path d="M211.65 291.15 L140.55 293.9 M211.65 340.3 L140.55 343.05 M211.65 389.45 L140.55 392.2 M211.65 438.85 L140.55 441.6" fill="none" stroke="#000000" stroke-linecap="butt" stroke-linejoin="miter-clip" stroke-miterlimit="10.0" stroke-opacity="0.4" stroke-width="1.0"/>
    <path d="M136.85 -5.7 L268.6 -350.65 292.0 -412.05 364.5 -78.05 387.6 33.5 406.85 25.3 294.5 -480.45 101.85 16.5 100.55 19.8 118.5 24.05 M351.9 33.45 L353.8 33.5 353.7 32.25 387.6 33.5 M-132.95 41.75 L118.55 41.75 118.55 25.6" fill="none" stroke="#000000" stroke-linecap="butt" stroke-linejoin="miter-clip" stroke-miterlimit="10.0" stroke-width="1.0"/>
    <path d="M118.5 24.05 L118.65 24.1 125.2 24.8 136.85 -5.7 351.9 11.55 268.6 -350.65 M353.7 32.25 L351.9 11.55 M118.55 25.6 L118.65 25.6 351.9 33.45 M117.75 175.45 L118.65 175.45 118.65 25.6 M117.9 175.8 L122.0 184.85 125.15 191.75 134.6 212.6 315.1 212.6" fill="none" stroke="#000000" stroke-linecap="round" stroke-linejoin="miter-clip" stroke-miterlimit="10.0" stroke-width="1.0"/>
    <path d="M118.55 25.6 L118.5 24.05 M117.9 175.8 L117.75 175.45 118.65 175.8 117.9 175.8" fill="none" stroke="#000000" stroke-linecap="round" stroke-linejoin="miter-clip" stroke-miterlimit="10.0" stroke-width="1.0"/>
    <path d="M-33.25 465.35 L-314.0 439.8 -315.9 238.45 -33.25 254.95 -33.25 465.35" fill="#000000" fill-opacity="0.29803923" fill-rule="evenodd" stroke="none"/>
    <path d="M-33.25 465.35 L-314.0 439.8 -315.9 238.45 -33.25 254.95 -33.25 465.35 Z" fill="none" stroke="#000000" stroke-linecap="butt" stroke-linejoin="miter-clip" stroke-miterlimit="10.0" stroke-width="1.0"/>
  </g>
</svg>
