<?xml version="1.0" encoding="UTF-8" standalone="no"?>
<svg xmlns:xlink="http://www.w3.org/1999/xlink" height="66.65px" width="49.65px" xmlns="http://www.w3.org/2000/svg">
  <g transform="matrix(1.0, 0.0, 0.0, 1.0, 24.85, 33.3)">
    <path d="M19.9 -12.4 Q18.5 -13.6 16.8 -13.6 13.65 -13.6 11.45 -9.6 9.2 -5.65 9.2 -0.1 9.2 5.55 11.45 9.6 13.65 13.6 16.8 13.6 18.5 13.6 19.9 12.45 18.5 13.6 16.8 13.6 13.65 13.6 11.45 9.6 9.2 5.55 9.2 -0.1 9.2 -5.65 11.45 -9.6 13.65 -13.6 16.8 -13.6 18.5 -13.6 19.9 -12.4 21.1 -11.45 22.1 -9.6 24.3 -5.65 24.3 -0.1 24.3 5.55 22.1 9.6 21.1 11.45 19.9 12.45 L19.9 32.85 8.6 32.85 8.6 -32.8 19.9 -32.8 19.9 -12.4 M-20.0 -12.35 L-20.0 -32.8 -8.65 -32.8 -8.65 32.85 -20.0 32.85 -20.0 12.4 Q-18.55 13.6 -16.85 13.6 -13.7 13.6 -11.5 9.6 -9.3 5.6 -9.3 -0.1 -9.3 -5.65 -11.5 -9.6 -13.7 -13.6 -16.85 -13.6 -18.55 -13.6 -20.0 -12.35 -18.55 -13.6 -16.85 -13.6 -13.7 -13.6 -11.5 -9.6 -9.3 -5.65 -9.3 -0.1 -9.3 5.6 -11.5 9.6 -13.7 13.6 -16.85 13.6 -18.55 13.6 -20.0 12.4 -21.15 11.4 -22.15 9.6 -24.35 5.55 -24.35 -0.1 -24.35 -5.65 -22.15 -9.6 -21.15 -11.4 -20.0 -12.35" fill="#ffffff" fill-opacity="0.0" fill-rule="evenodd" stroke="none"/>
    <path d="M19.9 12.45 Q18.5 13.6 16.8 13.6 13.65 13.6 11.45 9.6 9.2 5.55 9.2 -0.1 9.2 -5.65 11.45 -9.6 13.65 -13.6 16.8 -13.6 18.5 -13.6 19.9 -12.4 L19.9 -32.8 8.6 -32.8 8.6 32.85 19.9 32.85 19.9 12.45 Q21.1 11.45 22.1 9.6 24.3 5.55 24.3 -0.1 24.3 -5.65 22.1 -9.6 21.1 -11.45 19.9 -12.4 M-20.0 12.4 L-20.0 32.85 -8.65 32.85 -8.65 -32.8 -20.0 -32.8 -20.0 -12.35 Q-18.55 -13.6 -16.85 -13.6 -13.7 -13.6 -11.5 -9.6 -9.3 -5.65 -9.3 -0.1 -9.3 5.6 -11.5 9.6 -13.7 13.6 -16.85 13.6 -18.55 13.6 -20.0 12.4 -21.15 11.4 -22.15 9.6 -24.35 5.55 -24.35 -0.1 -24.35 -5.65 -22.15 -9.6 -21.15 -11.4 -20.0 -12.35" fill="none" stroke="#000000" stroke-linecap="round" stroke-linejoin="miter-clip" stroke-miterlimit="4.0" stroke-opacity="0.6" stroke-width="1.0"/>
  </g>
</svg>
