<?xml version="1.0" encoding="UTF-8" standalone="no"?>
<svg xmlns:xlink="http://www.w3.org/1999/xlink" height="2194.65px" width="1308.35px" xmlns="http://www.w3.org/2000/svg">
  <g transform="matrix(1.0, 0.0, 0.0, 1.0, 654.15, 1097.3)">
    <path d="M-3.5 -1028.1 Q-31.05 -1039.75 -61.25 -1039.75 -91.45 -1039.75 -119.0 -1028.1 -145.65 -1016.8 -166.2 -996.3 -186.7 -975.75 -198.0 -949.1 -209.65 -921.55 -209.65 -891.35 -209.65 -861.15 -198.0 -833.6 -186.7 -806.95 -166.2 -786.4 -145.65 -765.9 -119.0 -754.6 -91.45 -742.95 -61.25 -742.95 -31.05 -742.95 -3.5 -754.6 23.15 -765.9 43.7 -786.4 64.2 -806.95 75.5 -833.6 87.15 -861.15 87.15 -891.35 87.15 -921.55 75.5 -949.1 64.2 -975.75 43.7 -996.3 23.15 -1016.8 -3.5 -1028.1 M-141.25 -1080.65 Q-103.05 -1096.8 -61.25 -1096.8 -19.45 -1096.8 18.75 -1080.65 55.6 -1065.05 84.05 -1036.6 112.45 -1008.2 128.05 -971.3 144.2 -933.15 144.2 -891.35 144.2 -849.55 128.05 -811.35 112.45 -774.5 84.05 -746.05 55.6 -717.65 18.75 -702.05 -19.45 -685.9 -61.25 -685.9 -103.05 -685.9 -141.25 -702.05 -178.1 -717.65 -206.55 -746.05 -234.95 -774.5 -250.55 -811.35 -266.7 -849.55 -266.7 -891.35 -266.7 -933.15 -250.55 -971.3 -234.95 -1008.2 -206.55 -1036.6 -178.1 -1065.05 -141.25 -1080.65" fill="#000000" fill-opacity="0.49803922" fill-rule="evenodd" stroke="none"/>
    <path d="M-471.85 882.55 L-521.6 882.55 -521.6 1006.2 -471.85 1006.2 -471.85 882.55 M-594.45 1088.6 L-594.45 1014.4 -644.15 1014.4 -644.15 1088.6 -594.45 1088.6 M-530.5 1088.6 L-530.5 1014.4 -585.55 1014.4 -585.55 1088.6 -530.5 1088.6 M-521.6 1014.4 L-521.6 1088.6 -471.85 1088.6 -471.85 1014.4 -521.6 1014.4 M-530.5 882.55 L-585.55 882.55 -585.55 1006.2 -530.5 1006.2 -530.5 882.55 M-594.45 882.55 L-644.15 882.55 -644.15 1006.2 -594.45 1006.2 -594.45 882.55 M-644.25 811.3 L-644.15 811.5 -644.15 874.35 -594.45 874.35 -594.45 801.05 -644.8 801.05 -644.8 802.15 Q-644.8 806.6 -644.25 811.3 M-530.5 874.35 L-530.5 801.05 -585.55 801.05 -585.55 874.35 -530.5 874.35 M-471.85 874.35 L-471.85 801.05 -521.6 801.05 -521.6 874.35 -471.85 874.35 M522.2 882.55 L472.45 882.55 472.45 1006.2 522.2 1006.2 522.2 882.55 M595.05 1088.6 L644.8 1088.6 644.8 1014.4 595.05 1014.4 595.05 1088.6 M586.15 1088.6 L586.15 1014.4 531.05 1014.4 531.05 1088.6 586.15 1088.6 M472.45 1014.4 L472.45 1088.6 522.2 1088.6 522.2 1014.4 472.45 1014.4 M586.15 882.55 L531.05 882.55 531.05 1006.2 586.15 1006.2 586.15 882.55 M522.2 874.35 L522.2 801.05 471.85 801.05 471.8 802.15 Q471.8 806.15 472.4 811.3 L472.45 811.5 472.45 874.35 522.2 874.35 M644.8 882.55 L595.05 882.55 595.05 1006.2 644.8 1006.2 644.8 882.55 M595.05 874.35 L644.8 874.35 644.8 801.05 595.05 801.05 595.05 874.35 M586.15 874.35 L586.15 801.05 531.05 801.05 531.05 874.35 586.15 874.35 M643.35 791.15 Q640.85 773.65 630.8 758.8 L602.55 791.15 643.35 791.15 M562.5 721.25 L562.5 791.15 591.15 791.15 625.45 751.75 Q614.05 738.25 597.95 730.3 581.3 722.1 562.5 721.25 M488.65 754.05 L525.55 791.15 553.55 791.15 553.55 721.25 Q537.35 722.0 522.55 728.25 508.3 734.35 497.1 744.8 492.45 749.2 488.65 754.05 M490.85 739.0 Q504.0 726.65 521.05 719.85 538.7 712.85 558.05 712.85 594.5 712.85 621.55 735.7 634.35 746.5 642.3 760.8 650.45 775.5 652.4 791.95 L653.7 791.95 653.7 1096.85 463.55 1096.85 463.55 811.95 Q463.0 806.85 463.0 802.15 463.0 784.0 470.5 767.4 477.7 751.35 490.85 739.0 M483.65 761.2 Q475.05 774.9 472.65 791.15 L513.45 791.15 483.65 761.2 M-473.25 791.15 Q-475.8 773.6 -485.85 758.8 L-514.1 791.15 -473.25 791.15 M-525.5 791.15 L-491.15 751.75 Q-502.55 738.25 -518.65 730.3 -535.35 722.1 -554.15 721.25 L-554.15 791.15 -525.5 791.15 M-625.8 739.0 Q-612.65 726.65 -595.6 719.85 -577.95 712.85 -558.6 712.85 -522.1 712.85 -495.05 735.7 -482.3 746.5 -474.35 760.8 -466.2 775.5 -464.2 791.95 L-462.95 791.95 -462.95 1096.85 -653.05 1096.85 -653.05 811.95 Q-653.65 807.1 -653.65 802.15 -653.65 784.0 -646.15 767.4 -638.95 751.35 -625.8 739.0 M-633.0 761.2 Q-641.6 775.05 -644.0 791.15 L-603.15 791.15 -633.0 761.2 M-619.5 744.8 Q-624.2 749.2 -627.95 754.05 L-591.05 791.15 -563.05 791.15 -563.05 721.25 Q-579.3 722.0 -594.05 728.25 -608.35 734.35 -619.5 744.8 M-61.65 -236.35 L-61.65 -359.95 -111.35 -359.95 -111.35 -236.35 -61.65 -236.35 M-61.65 -228.1 L-111.35 -228.1 -111.35 -153.95 -61.65 -153.95 -61.65 -228.1 M-455.55 -228.1 L-505.3 -228.1 -505.3 -153.95 -455.55 -153.95 -455.55 -228.1 M-514.15 -236.35 L-514.15 -359.95 -569.25 -359.95 -569.25 -236.35 -514.15 -236.35 M-514.15 -228.1 L-569.25 -228.1 -569.25 -153.95 -514.15 -153.95 -514.15 -228.1 M-578.1 -228.1 L-627.85 -228.1 -627.85 -153.95 -578.1 -153.95 -578.1 -228.1 M-578.1 -359.95 L-627.85 -359.95 -627.85 -236.35 -578.1 -236.35 -578.1 -359.95 M-455.55 -236.35 L-455.55 -359.95 -505.3 -359.95 -505.3 -236.35 -455.55 -236.35 M-455.55 -441.5 L-505.3 -441.5 -505.3 -368.2 -455.55 -368.2 -455.55 -441.5 M-456.95 -451.4 Q-459.45 -468.8 -469.5 -483.75 L-497.75 -451.4 -456.95 -451.4 M-514.15 -441.5 L-569.25 -441.5 -569.25 -368.2 -514.15 -368.2 -514.15 -441.5 M-627.95 -431.25 L-627.85 -431.0 -627.85 -368.2 -578.1 -368.2 -578.1 -441.5 -628.45 -441.5 -628.5 -440.4 Q-628.5 -436.75 -627.95 -431.25 M-616.7 -481.35 Q-625.2 -467.65 -627.7 -451.4 L-586.85 -451.4 -616.7 -481.35 M-609.5 -503.5 Q-596.35 -515.85 -579.3 -522.65 -561.6 -529.65 -542.25 -529.65 -505.8 -529.65 -478.75 -506.8 -465.95 -496.0 -458.05 -481.7 -449.9 -467.05 -447.9 -450.6 L-446.65 -450.6 -446.65 -145.7 -636.75 -145.7 -636.75 -430.55 Q-637.3 -435.65 -637.3 -440.4 -637.3 -458.55 -629.8 -475.1 -622.6 -491.15 -609.5 -503.5 M-577.75 -514.3 Q-592.05 -508.2 -603.2 -497.75 -608.15 -492.95 -611.65 -488.5 L-574.75 -451.4 -546.75 -451.4 -546.75 -521.3 Q-563.0 -520.55 -577.75 -514.3 M-502.35 -512.2 Q-518.95 -520.4 -537.8 -521.3 L-537.8 -451.4 -509.2 -451.4 -474.85 -490.8 Q-486.2 -504.25 -502.35 -512.2 M-111.45 -431.25 L-111.35 -431.0 -111.35 -368.2 -61.65 -368.2 -61.65 -441.5 -112.0 -441.5 -112.0 -440.4 Q-112.0 -435.95 -111.45 -431.25 M-100.2 -481.35 Q-108.8 -467.5 -111.2 -451.4 L-70.4 -451.4 -100.2 -481.35 M-30.25 -521.3 Q-46.5 -520.55 -61.25 -514.3 -75.55 -508.2 -86.7 -497.75 -91.4 -493.25 -95.15 -488.5 L-58.25 -451.4 -30.25 -451.4 -30.25 -521.3 M2.3 -368.2 L2.3 -441.5 -52.8 -441.5 -52.8 -368.2 2.3 -368.2 M516.0 -228.1 L460.95 -228.1 460.95 -153.95 516.0 -153.95 516.0 -228.1 M452.1 -236.35 L452.1 -359.95 402.3 -359.95 402.3 -236.35 452.1 -236.35 M452.1 -228.1 L402.3 -228.1 402.3 -153.95 452.1 -153.95 452.1 -228.1 M574.65 -236.35 L574.65 -359.95 524.9 -359.95 524.9 -236.35 574.65 -236.35 M516.0 -236.35 L516.0 -359.95 460.95 -359.95 460.95 -236.35 516.0 -236.35 M574.65 -228.1 L524.9 -228.1 524.9 -153.95 574.65 -153.95 574.65 -228.1 M2.3 -153.95 L2.3 -228.1 -52.8 -228.1 -52.8 -153.95 2.3 -153.95 M2.3 -236.35 L2.3 -359.95 -52.8 -359.95 -52.8 -236.35 2.3 -236.35 M60.9 -228.1 L11.2 -228.1 11.2 -153.95 60.9 -153.95 60.9 -228.1 M60.9 -359.95 L11.2 -359.95 11.2 -236.35 60.9 -236.35 60.9 -359.95 M60.9 -441.5 L11.2 -441.5 11.2 -368.2 60.9 -368.2 60.9 -441.5 M7.25 -451.4 L41.65 -490.8 Q30.25 -504.25 14.1 -512.2 -2.55 -520.4 -21.35 -521.3 L-21.35 -451.4 7.25 -451.4 M58.45 -481.7 Q66.6 -467.05 68.6 -450.6 L69.85 -450.6 69.85 -145.7 -120.3 -145.7 -120.3 -430.55 Q-120.85 -435.65 -120.85 -440.4 -120.85 -458.55 -113.35 -475.1 -106.15 -491.15 -93.0 -503.5 -79.85 -515.85 -62.8 -522.65 -45.15 -529.65 -25.8 -529.65 10.65 -529.65 37.7 -506.8 50.5 -496.0 58.45 -481.7 M59.55 -451.4 Q57.05 -468.7 46.95 -483.75 L18.7 -451.4 59.55 -451.4 M516.0 -441.5 L460.95 -441.5 460.95 -368.2 516.0 -368.2 516.0 -441.5 M574.65 -441.5 L524.9 -441.5 524.9 -368.2 574.65 -368.2 574.65 -441.5 M560.65 -483.75 L532.4 -451.4 573.2 -451.4 Q570.75 -468.8 560.65 -483.75 M527.8 -512.2 Q511.15 -520.4 492.35 -521.3 L492.35 -451.4 521.0 -451.4 555.35 -490.8 Q543.95 -504.25 527.8 -512.2 M443.3 -451.4 L413.5 -481.35 Q404.9 -467.5 402.5 -451.4 L443.3 -451.4 M402.25 -431.25 L402.3 -431.0 402.3 -368.2 452.1 -368.2 452.1 -441.5 401.75 -441.5 401.65 -440.4 Q401.65 -436.4 402.25 -431.25 M420.7 -503.5 Q433.85 -515.85 450.9 -522.65 468.6 -529.65 487.95 -529.65 524.35 -529.65 551.4 -506.8 564.2 -496.0 572.15 -481.7 580.3 -467.05 582.3 -450.6 L583.55 -450.6 583.55 -145.7 393.45 -145.7 393.45 -430.55 Q392.85 -436.1 392.85 -440.4 392.85 -458.55 400.35 -475.1 407.55 -491.15 420.7 -503.5 M483.45 -521.3 Q467.2 -520.55 452.45 -514.3 438.15 -508.25 426.95 -497.75 422.2 -493.15 418.55 -488.5 L455.45 -451.4 483.45 -451.4 483.45 -521.3" fill="#ffffff" fill-opacity="0.0" fill-rule="evenodd" stroke="none"/>
    <path d="M-3.5 -1028.1 Q23.15 -1016.8 43.7 -996.3 64.2 -975.75 75.5 -949.1 87.15 -921.55 87.15 -891.35 87.15 -861.15 75.5 -833.6 64.2 -806.95 43.7 -786.4 23.15 -765.9 -3.5 -754.6 -31.05 -742.95 -61.25 -742.95 -91.45 -742.95 -119.0 -754.6 -145.65 -765.9 -166.2 -786.4 -186.7 -806.95 -198.0 -833.6 -209.65 -861.15 -209.65 -891.35 -209.65 -921.55 -198.0 -949.1 -186.7 -975.75 -166.2 -996.3 -145.65 -1016.8 -119.0 -1028.1 -91.45 -1039.75 -61.25 -1039.75 -31.05 -1039.75 -3.5 -1028.1 M483.45 -521.3 L483.45 -451.4 455.45 -451.4 418.55 -488.5 Q422.2 -493.15 426.95 -497.75 438.15 -508.25 452.45 -514.3 467.2 -520.55 483.45 -521.3 M420.7 -503.5 Q407.55 -491.15 400.35 -475.1 392.85 -458.55 392.85 -440.4 392.85 -436.1 393.45 -430.55 L393.45 -145.7 583.55 -145.7 583.55 -450.6 582.3 -450.6 Q580.3 -467.05 572.15 -481.7 564.2 -496.0 551.4 -506.8 524.35 -529.65 487.95 -529.65 468.6 -529.65 450.9 -522.65 433.85 -515.85 420.7 -503.5 M402.25 -431.25 Q401.65 -436.4 401.65 -440.4 L401.75 -441.5 452.1 -441.5 452.1 -368.2 402.3 -368.2 402.3 -431.0 402.25 -431.25 M443.3 -451.4 L402.5 -451.4 Q404.9 -467.5 413.5 -481.35 L443.3 -451.4 M527.8 -512.2 Q543.95 -504.25 555.35 -490.8 L521.0 -451.4 492.35 -451.4 492.35 -521.3 Q511.15 -520.4 527.8 -512.2 M560.65 -483.75 Q570.75 -468.8 573.2 -451.4 L532.4 -451.4 560.65 -483.75 M574.65 -441.5 L574.65 -368.2 524.9 -368.2 524.9 -441.5 574.65 -441.5 M516.0 -441.5 L516.0 -368.2 460.95 -368.2 460.95 -441.5 516.0 -441.5 M59.55 -451.4 L18.7 -451.4 46.95 -483.75 Q57.05 -468.7 59.55 -451.4 M58.45 -481.7 Q50.5 -496.0 37.7 -506.8 10.65 -529.65 -25.8 -529.65 -45.15 -529.65 -62.8 -522.65 -79.85 -515.85 -93.0 -503.5 -106.15 -491.15 -113.35 -475.1 -120.85 -458.55 -120.85 -440.4 -120.85 -435.65 -120.3 -430.55 L-120.3 -145.7 69.85 -145.7 69.85 -450.6 68.6 -450.6 Q66.6 -467.05 58.45 -481.7 M7.25 -451.4 L-21.35 -451.4 -21.35 -521.3 Q-2.55 -520.4 14.1 -512.2 30.25 -504.25 41.65 -490.8 L7.25 -451.4 M60.9 -441.5 L60.9 -368.2 11.2 -368.2 11.2 -441.5 60.9 -441.5 M60.9 -359.95 L60.9 -236.35 11.2 -236.35 11.2 -359.95 60.9 -359.95 M60.9 -228.1 L60.9 -153.95 11.2 -153.95 11.2 -228.1 60.9 -228.1 M2.3 -236.35 L-52.8 -236.35 -52.8 -359.95 2.3 -359.95 2.3 -236.35 M2.3 -153.95 L-52.8 -153.95 -52.8 -228.1 2.3 -228.1 2.3 -153.95 M574.65 -228.1 L574.65 -153.95 524.9 -153.95 524.9 -228.1 574.65 -228.1 M516.0 -236.35 L460.95 -236.35 460.95 -359.95 516.0 -359.95 516.0 -236.35 M574.65 -236.35 L524.9 -236.35 524.9 -359.95 574.65 -359.95 574.65 -236.35 M452.1 -228.1 L452.1 -153.95 402.3 -153.95 402.3 -228.1 452.1 -228.1 M452.1 -236.35 L402.3 -236.35 402.3 -359.95 452.1 -359.95 452.1 -236.35 M516.0 -228.1 L516.0 -153.95 460.95 -153.95 460.95 -228.1 516.0 -228.1 M2.3 -368.2 L-52.8 -368.2 -52.8 -441.5 2.3 -441.5 2.3 -368.2 M-30.25 -521.3 L-30.25 -451.4 -58.25 -451.4 -95.15 -488.5 Q-91.4 -493.25 -86.7 -497.75 -75.55 -508.2 -61.25 -514.3 -46.5 -520.55 -30.25 -521.3 M-100.2 -481.35 L-70.4 -451.4 -111.2 -451.4 Q-108.8 -467.5 -100.2 -481.35 M-111.45 -431.25 Q-112.0 -435.95 -112.0 -440.4 L-112.0 -441.5 -61.65 -441.5 -61.65 -368.2 -111.35 -368.2 -111.35 -431.0 -111.45 -431.25 M-502.35 -512.2 Q-486.2 -504.25 -474.85 -490.8 L-509.2 -451.4 -537.8 -451.4 -537.8 -521.3 Q-518.95 -520.4 -502.35 -512.2 M-577.75 -514.3 Q-563.0 -520.55 -546.75 -521.3 L-546.75 -451.4 -574.75 -451.4 -611.65 -488.5 Q-608.15 -492.95 -603.2 -497.75 -592.05 -508.2 -577.75 -514.3 M-609.5 -503.5 Q-622.6 -491.15 -629.8 -475.1 -637.3 -458.55 -637.3 -440.4 -637.3 -435.65 -636.75 -430.55 L-636.75 -145.7 -446.65 -145.7 -446.65 -450.6 -447.9 -450.6 Q-449.9 -467.05 -458.05 -481.7 -465.95 -496.0 -478.75 -506.8 -505.8 -529.65 -542.25 -529.65 -561.6 -529.65 -579.3 -522.65 -596.35 -515.85 -609.5 -503.5 M-616.7 -481.35 L-586.85 -451.4 -627.7 -451.4 Q-625.2 -467.65 -616.7 -481.35 M-627.95 -431.25 Q-628.5 -436.75 -628.5 -440.4 L-628.45 -441.5 -578.1 -441.5 -578.1 -368.2 -627.85 -368.2 -627.85 -431.0 -627.95 -431.25 M-514.15 -441.5 L-514.15 -368.2 -569.25 -368.2 -569.25 -441.5 -514.15 -441.5 M-456.95 -451.4 L-497.75 -451.4 -469.5 -483.75 Q-459.45 -468.8 -456.95 -451.4 M-455.55 -441.5 L-455.55 -368.2 -505.3 -368.2 -505.3 -441.5 -455.55 -441.5 M-455.55 -236.35 L-505.3 -236.35 -505.3 -359.95 -455.55 -359.95 -455.55 -236.35 M-578.1 -359.95 L-578.1 -236.35 -627.85 -236.35 -627.85 -359.95 -578.1 -359.95 M-578.1 -228.1 L-578.1 -153.95 -627.85 -153.95 -627.85 -228.1 -578.1 -228.1 M-514.15 -228.1 L-514.15 -153.95 -569.25 -153.95 -569.25 -228.1 -514.15 -228.1 M-514.15 -236.35 L-569.25 -236.35 -569.25 -359.95 -514.15 -359.95 -514.15 -236.35 M-455.55 -228.1 L-455.55 -153.95 -505.3 -153.95 -505.3 -228.1 -455.55 -228.1 M-61.65 -228.1 L-61.65 -153.95 -111.35 -153.95 -111.35 -228.1 -61.65 -228.1 M-61.65 -236.35 L-111.35 -236.35 -111.35 -359.95 -61.65 -359.95 -61.65 -236.35 M-619.5 744.8 Q-608.35 734.35 -594.05 728.25 -579.3 722.0 -563.05 721.25 L-563.05 791.15 -591.05 791.15 -627.95 754.05 Q-624.2 749.2 -619.5 744.8 M-633.0 761.2 L-603.15 791.15 -644.0 791.15 Q-641.6 775.05 -633.0 761.2 M-625.8 739.0 Q-638.95 751.35 -646.15 767.4 -653.65 784.0 -653.65 802.15 -653.65 807.1 -653.05 811.95 L-653.05 1096.85 -462.95 1096.85 -462.95 791.95 -464.2 791.95 Q-466.2 775.5 -474.35 760.8 -482.3 746.5 -495.05 735.7 -522.1 712.85 -558.6 712.85 -577.95 712.85 -595.6 719.85 -612.65 726.65 -625.8 739.0 M-525.5 791.15 L-554.15 791.15 -554.15 721.25 Q-535.35 722.1 -518.65 730.3 -502.55 738.25 -491.15 751.75 L-525.5 791.15 M-473.25 791.15 L-514.1 791.15 -485.85 758.8 Q-475.8 773.6 -473.25 791.15 M483.65 761.2 L513.45 791.15 472.65 791.15 Q475.05 774.9 483.65 761.2 M490.85 739.0 Q477.7 751.35 470.5 767.4 463.0 784.0 463.0 802.15 463.0 806.85 463.55 811.95 L463.55 1096.85 653.7 1096.85 653.7 791.95 652.4 791.95 Q650.45 775.5 642.3 760.8 634.35 746.5 621.55 735.7 594.5 712.85 558.05 712.85 538.7 712.85 521.05 719.85 504.0 726.65 490.85 739.0 M488.65 754.05 Q492.45 749.2 497.1 744.8 508.3 734.35 522.55 728.25 537.35 722.0 553.55 721.25 L553.55 791.15 525.55 791.15 488.65 754.05 M562.5 721.25 Q581.3 722.1 597.95 730.3 614.05 738.25 625.45 751.75 L591.15 791.15 562.5 791.15 562.5 721.25 M643.35 791.15 L602.55 791.15 630.8 758.8 Q640.85 773.65 643.35 791.15 M586.15 874.35 L531.05 874.35 531.05 801.05 586.15 801.05 586.15 874.35 M595.05 874.35 L595.05 801.05 644.8 801.05 644.8 874.35 595.05 874.35 M644.8 882.55 L644.8 1006.2 595.05 1006.2 595.05 882.55 644.8 882.55 M522.2 874.35 L472.45 874.35 472.45 811.5 472.4 811.3 Q471.8 806.15 471.8 802.15 L471.85 801.05 522.2 801.05 522.2 874.35 M586.15 882.55 L586.15 1006.2 531.05 1006.2 531.05 882.55 586.15 882.55 M472.45 1014.4 L522.2 1014.4 522.2 1088.6 472.45 1088.6 472.45 1014.4 M586.15 1088.6 L531.05 1088.6 531.05 1014.4 586.15 1014.4 586.15 1088.6 M595.05 1088.6 L595.05 1014.4 644.8 1014.4 644.8 1088.6 595.05 1088.6 M522.2 882.55 L522.2 1006.2 472.45 1006.2 472.45 882.55 522.2 882.55 M-471.85 874.35 L-521.6 874.35 -521.6 801.05 -471.85 801.05 -471.85 874.35 M-530.5 874.35 L-585.55 874.35 -585.55 801.05 -530.5 801.05 -530.5 874.35 M-644.25 811.3 Q-644.8 806.6 -644.8 802.15 L-644.8 801.05 -594.45 801.05 -594.45 874.35 -644.15 874.35 -644.15 811.5 -644.25 811.3 M-594.45 882.55 L-594.45 1006.2 -644.15 1006.2 -644.15 882.55 -594.45 882.55 M-530.5 882.55 L-530.5 1006.2 -585.55 1006.2 -585.55 882.55 -530.5 882.55 M-521.6 1014.4 L-471.85 1014.4 -471.85 1088.6 -521.6 1088.6 -521.6 1014.4 M-530.5 1088.6 L-585.55 1088.6 -585.55 1014.4 -530.5 1014.4 -530.5 1088.6 M-594.45 1088.6 L-644.15 1088.6 -644.15 1014.4 -594.45 1014.4 -594.45 1088.6 M-471.85 882.55 L-471.85 1006.2 -521.6 1006.2 -521.6 882.55 -471.85 882.55" fill="none" stroke="#000000" stroke-linecap="butt" stroke-linejoin="miter-clip" stroke-miterlimit="4.0" stroke-opacity="0.6" stroke-width="1.0"/>
    <path d="M-141.25 -1080.65 Q-178.1 -1065.05 -206.55 -1036.6 -234.95 -1008.2 -250.55 -971.3 -266.7 -933.15 -266.7 -891.35 -266.7 -849.55 -250.55 -811.35 -234.95 -774.5 -206.55 -746.05 -178.1 -717.65 -141.25 -702.05 -103.05 -685.9 -61.25 -685.9 -19.45 -685.9 18.75 -702.05 55.6 -717.65 84.05 -746.05 112.45 -774.5 128.05 -811.35 144.2 -849.55 144.2 -891.35 144.2 -933.15 128.05 -971.3 112.45 -1008.2 84.05 -1036.6 55.6 -1065.05 18.75 -1080.65 -19.45 -1096.8 -61.25 -1096.8 -103.05 -1096.8 -141.25 -1080.65" fill="none" stroke="#000000" stroke-linecap="butt" stroke-linejoin="miter-clip" stroke-miterlimit="4.0" stroke-width="1.0"/>
  </g>
</svg>
