<?xml version="1.0" encoding="UTF-8" standalone="no"?>
<svg xmlns:xlink="http://www.w3.org/1999/xlink" height="137.05px" width="346.25px" xmlns="http://www.w3.org/2000/svg">
  <g transform="matrix(1.0, 0.0, 0.0, 1.0, 173.15, 68.5)">
    <path d="M171.4 -29.4 Q174.2 -29.85 172.45 -28.45 L170.15 -27.0 168.4 36.6 168.4 -27.9 Q168.4 -28.6 169.95 -29.05 L171.4 -29.4 M-163.0 -67.6 Q-162.7 -66.75 -163.7 -65.7 -164.75 -64.6 -166.6 -63.9 -168.35 -63.2 -169.85 -63.2 -171.35 -63.25 -171.7 -64.1 -172.0 -64.9 -171.0 -66.0 -169.95 -67.15 -168.15 -67.85 -166.4 -68.55 -164.85 -68.5 -163.35 -68.45 -163.0 -67.6 M-170.15 -29.3 Q-167.35 -30.15 -169.15 -27.5 L-171.45 -24.65 -172.9 68.55 -173.15 -26.35 Q-173.15 -27.7 -171.65 -28.6 -170.95 -29.1 -170.15 -29.3 M-114.1 -65.35 Q-113.8 -64.55 -114.8 -63.4 -115.85 -62.3 -117.6 -61.6 -119.4 -60.9 -120.95 -60.95 -122.45 -61.05 -122.8 -61.85 -123.1 -62.7 -122.1 -63.8 -121.0 -64.85 -119.2 -65.55 -117.4 -66.25 -115.95 -66.2 -114.4 -66.2 -114.1 -65.35" fill="#ffffff" fill-opacity="0.0" fill-rule="evenodd" stroke="none"/>
  </g>
</svg>
