<?xml version="1.0" encoding="UTF-8" standalone="no"?>
<svg xmlns:xlink="http://www.w3.org/1999/xlink" height="281.3px" width="83.2px" xmlns="http://www.w3.org/2000/svg">
  <g transform="matrix(1.0, 0.0, 0.0, 1.0, 41.6, 140.65)">
    <path d="M32.1 -128.95 Q32.5 -128.05 32.5 -127.05 32.5 -125.15 31.15 -123.9 29.95 -122.55 28.0 -122.55 L28.0 122.45 Q29.95 122.45 31.15 123.8 32.5 125.15 32.5 126.95 32.5 128.0 32.1 128.85 L35.5 128.85 Q37.85 128.85 39.45 130.5 41.1 132.1 41.1 134.45 41.1 136.75 39.45 138.55 37.85 140.15 35.5 140.15 L-35.5 140.15 Q-37.85 140.15 -39.45 138.55 -41.1 136.75 -41.1 134.45 -41.1 132.1 -39.45 130.5 -37.85 128.85 -35.5 128.85 L-32.0 128.85 Q-32.4 128.0 -32.4 126.95 -32.4 125.05 -31.15 123.8 -29.8 122.45 -28.0 122.45 L-27.9 122.45 -27.9 -122.55 -28.0 -122.55 Q-29.8 -122.55 -31.15 -123.9 -32.4 -125.15 -32.4 -127.05 -32.4 -128.05 -32.0 -128.95 L-35.5 -128.95 Q-37.85 -128.95 -39.45 -130.6 -41.1 -132.25 -41.1 -134.55 -41.1 -136.85 -39.45 -138.5 -37.85 -140.15 -35.5 -140.15 L35.5 -140.15 Q37.85 -140.15 39.45 -138.5 41.1 -136.85 41.1 -134.55 41.1 -132.25 39.45 -130.6 37.85 -128.95 35.5 -128.95 L32.1 -128.95" fill="#ffffff" fill-opacity="0.0" fill-rule="evenodd" stroke="none"/>
    <path d="M27.95 82.4 L27.95 93.8 24.8 105.1 Q20.6 96.25 19.65 92.55 18.0 85.7 22.5 84.05 23.85 83.45 27.95 82.4 M-27.85 -117.95 L-27.75 -118.6 -26.5 -122.5 -6.85 -122.5 -8.65 -114.3 Q-10.0 -107.8 -10.4 -103.75 L-12.05 -93.9 -12.85 0.9 Q-13.4 7.0 -15.2 12.45 -19.55 26.5 -19.15 36.15 -22.7 34.1 -22.15 35.4 L-19.4 38.8 Q-20.9 40.2 -20.5 43.5 -20.25 45.55 -18.75 49.95 L-16.7 56.05 Q-16.15 58.85 -17.35 59.45 -19.8 60.5 -21.3 62.9 -22.15 63.9 -22.55 65.15 L-23.25 67.95 Q-23.9 70.9 -23.65 74.15 -23.65 77.7 -23.25 81.15 -22.0 92.05 -21.85 94.95 -21.6 102.55 -23.75 106.25 -25.7 111.95 -26.5 116.9 L-26.9 122.45 -27.85 122.45 -27.85 -77.55 -27.05 -75.0 -26.65 -78.05 Q-26.65 -79.8 -27.05 -81.35 L-27.85 -84.0 -27.85 -117.95 M24.1 3.75 Q23.4 -1.95 24.2 -39.85 25.15 -78.25 26.4 -83.05 L27.9 -90.05 27.9 23.15 27.65 20.75 24.1 3.75" fill="#070707" fill-opacity="0.09803922" fill-rule="evenodd" stroke="none"/>
    <path d="M-10.7 122.45 Q-10.0 120.95 -10.0 119.8 -9.6 117.4 -9.9 114.5 L-10.95 108.5 -14.4 95.6 -15.35 89.25 Q-15.6 85.7 -15.05 83.55 -13.95 77.85 -8.5 76.45 -3.75 74.8 -1.85 70.65 -0.35 67.2 -0.5 61.1 -0.5 58.2 -1.45 49.7 -2.4 42.25 -2.1 38.3 -2.0 36.8 -4.0 32.35 -6.05 27.8 -6.05 26.55 L-5.25 0.95 -4.55 -16.55 -3.8 -30.5 -3.45 -36.95 Q-1.55 -72.2 -0.05 -73.35 2.25 -75.0 3.05 -76.15 4.2 -77.7 3.85 -79.65 L3.75 -79.95 Q3.75 -80.45 5.95 -81.95 8.1 -83.35 8.1 -84.0 6.75 -99.85 7.15 -121.1 L7.15 -122.5 17.0 -122.5 Q16.55 -119.6 16.55 -116.95 16.55 -114.3 17.1 -112.25 17.8 -109.95 18.9 -107.8 20.1 -106.3 23.95 -103.65 26.95 -101.35 25.7 -100.45 21.75 -94.5 20.8 -86.9 L20.1 -80.2 Q19.85 -76.4 19.15 -73.35 17.95 -71.7 11.65 -71.95 5.95 -72.45 5.95 -71.55 6.05 -0.1 6.35 2.2 L10.3 52.25 Q10.55 59.75 10.15 65.3 L8.65 76.95 Q6.2 88.0 -0.5 96.35 -1.7 97.6 2.5 103.05 6.75 108.25 5.65 110.05 L1.55 110.95 Q-1.0 111.3 -1.0 111.8 -1.85 116.9 -2.0 119.65 L-2.0 122.45 -10.7 122.45" fill="#ffffff" fill-opacity="0.4" fill-rule="evenodd" stroke="none"/>
    <path d="M-32.0 -128.95 L-35.5 -128.95 Q-37.85 -128.95 -39.45 -130.6 -41.1 -132.25 -41.1 -134.55 -41.1 -136.85 -39.45 -138.5 -37.85 -140.15 -35.5 -140.15 L35.5 -140.15 Q37.85 -140.15 39.45 -138.5 41.1 -136.85 41.1 -134.55 41.1 -132.25 39.45 -130.6 37.85 -128.95 35.5 -128.95 L32.1 -128.95 Q32.5 -128.05 32.5 -127.05 32.5 -125.15 31.15 -123.9 29.95 -122.55 28.0 -122.55 L28.0 122.45 Q29.95 122.45 31.15 123.8 32.5 125.15 32.5 126.95 32.5 128.0 32.1 128.85 L35.5 128.85 Q37.85 128.85 39.45 130.5 41.1 132.1 41.1 134.45 41.1 136.75 39.45 138.55 37.85 140.15 35.5 140.15 L-35.5 140.15 Q-37.85 140.15 -39.45 138.55 -41.1 136.75 -41.1 134.45 -41.1 132.1 -39.45 130.5 -37.85 128.85 -35.5 128.85 L-32.0 128.85 Q-32.4 128.0 -32.4 126.95 -32.4 125.05 -31.15 123.8 -29.8 122.45 -28.0 122.45 L-27.9 122.45 -27.9 -122.55 -28.0 -122.55 Q-29.8 -122.55 -31.15 -123.9 -32.4 -125.15 -32.4 -127.05 -32.4 -128.05 -32.0 -128.95" fill="none" stroke="#000000" stroke-linecap="round" stroke-linejoin="miter-clip" stroke-miterlimit="4.0" stroke-width="1.0"/>
    <path d="M-32.0 -128.95 L32.1 -128.95 M-32.0 128.85 L32.1 128.85 M-27.9 122.45 L28.0 122.45 M28.0 -122.55 L-27.9 -122.55" fill="none" stroke="#000000" stroke-linecap="round" stroke-linejoin="miter-clip" stroke-miterlimit="4.0" stroke-opacity="0.4" stroke-width="1.0"/>
  </g>
</svg>
