<?xml version="1.0" encoding="UTF-8" standalone="no"?>
<svg xmlns:xlink="http://www.w3.org/1999/xlink" height="73.9px" width="65.05px" xmlns="http://www.w3.org/2000/svg">
  <g transform="matrix(1.0, 0.0, 0.0, 1.0, 32.5, 36.95)">
    <path d="M30.75 -31.2 L29.25 -29.25 Q27.7 -27.15 27.7 -26.35 L29.05 -17.6 Q30.6 -7.4 31.3 0.9 33.7 28.1 27.7 32.5 26.4 33.45 23.1 34.45 16.55 36.4 6.6 36.45 L-6.55 36.45 Q-16.5 36.4 -23.05 34.45 L-27.65 32.5 Q-33.65 28.1 -31.25 0.9 -30.05 -12.75 -27.65 -26.35 -27.65 -27.15 -29.15 -29.25 L-30.7 -31.2 Q-32.35 -33.4 -31.9 -35.15 L-31.15 -36.45 31.2 -36.45 31.95 -35.15 Q32.4 -33.4 30.75 -31.2" fill="#ffffff" fill-opacity="0.0" fill-rule="evenodd" stroke="none"/>
    <path d="M18.45 -32.05 L2.45 -29.8 Q-13.8 -27.25 -14.9 -25.9 -15.65 -24.95 -17.0 -17.6 -18.45 -9.45 -19.1 -1.05 -20.95 22.85 -14.45 26.8 -6.65 31.55 15.55 35.9 L6.6 36.45 -6.55 36.45 Q-16.5 36.4 -23.05 34.45 L-27.65 32.5 Q-33.65 28.1 -31.25 0.9 -30.05 -12.75 -27.65 -26.35 -27.65 -27.15 -29.15 -29.25 L-30.7 -31.2 Q-31.8 -32.65 -32.0 -34.0 L-31.15 -33.8 -11.95 -32.75 Q9.15 -31.75 18.45 -32.05" fill="#000000" fill-opacity="0.14901961" fill-rule="evenodd" stroke="none"/>
    <path d="M30.75 -31.2 Q32.4 -33.4 31.95 -35.15 L31.2 -36.45 -31.15 -36.45 -31.9 -35.15 Q-32.35 -33.4 -30.7 -31.2 L-29.15 -29.25 Q-27.65 -27.15 -27.65 -26.35 -30.05 -12.75 -31.25 0.9 -33.65 28.1 -27.65 32.5 L-23.05 34.45 Q-16.5 36.4 -6.55 36.45 L6.6 36.45 Q16.55 36.4 23.1 34.45 26.4 33.45 27.7 32.5 33.7 28.1 31.3 0.9 30.6 -7.4 29.05 -17.6 L27.7 -26.35 Q27.7 -27.15 29.25 -29.25 L30.75 -31.2 Z" fill="none" stroke="#000000" stroke-linecap="round" stroke-linejoin="round" stroke-width="1.0"/>
  </g>
</svg>
