<?xml version="1.0" encoding="UTF-8" standalone="no"?>
<svg xmlns:xlink="http://www.w3.org/1999/xlink" height="282.75px" width="164.05px" xmlns="http://www.w3.org/2000/svg">
  <g transform="matrix(1.0, 0.0, 0.0, 1.0, 82.0, 141.35)">
    <path d="M-78.75 -55.6 L-78.75 -81.6 -13.6 -81.6 -13.6 -138.1 12.35 -138.1 12.4 -138.1 12.4 -84.35 12.4 -81.6 81.55 -81.6 81.55 -55.6 12.4 -55.6 12.4 140.9 -13.6 140.9 -13.6 -55.6 -16.35 -55.6 -78.75 -55.6 M12.4 -81.6 L-13.6 -81.6 12.4 -81.6 M-13.6 -55.6 L12.4 -55.6 -13.6 -55.6" fill="#ffffff" fill-opacity="0.0" fill-rule="evenodd" stroke="none"/>
    <path d="M-78.75 -55.6 L-81.5 -58.35 -81.5 -84.35 -16.35 -84.35 -16.35 -140.85 9.65 -140.85 12.4 -139.1 12.35 -138.1 -13.6 -138.1 -13.6 -81.6 -78.75 -81.6 -78.75 -55.6 M12.4 -84.35 L78.8 -84.35 81.55 -81.6 12.4 -81.6 12.4 -84.35 M-13.6 140.9 L-16.35 138.15 -16.35 -55.6 -13.6 -55.6 -13.6 140.9" fill="#000000" fill-opacity="0.2" fill-rule="evenodd" stroke="none"/>
    <path d="M12.35 -138.1 L12.4 -139.1 9.65 -140.85 -16.35 -140.85 -16.35 -84.35 -81.5 -84.35 -81.5 -58.35 -78.75 -55.6 -78.75 -81.6 -13.6 -81.6 -13.6 -138.1 12.35 -138.1 12.4 -138.1 12.4 -84.35 78.8 -84.35 81.55 -81.6 81.55 -55.6 12.4 -55.6 12.4 140.9 -13.6 140.9 -16.35 138.15 -16.35 -55.6 -78.75 -55.6 M12.4 -84.35 L12.4 -81.6 81.55 -81.6 M-13.6 140.9 L-13.6 -55.6 -16.35 -55.6 M-13.6 -81.6 L12.4 -81.6 M12.4 -55.6 L-13.6 -55.6" fill="none" stroke="#000000" stroke-linecap="round" stroke-linejoin="miter-clip" stroke-miterlimit="4.0" stroke-width="1.0"/>
    <path d="M4.95 -117.95 L5.6 -104.25 5.25 -93.5 Q5.0 -88.1 5.6 -84.15 L3.6 -95.5 Q2.5 -103.05 2.7 -108.4 2.8 -111.75 3.65 -119.9 L4.4 -130.9 Q4.45 -126.2 4.95 -117.95 M67.15 -73.1 Q64.1 -74.45 59.7 -74.9 L51.9 -75.6 42.9 -76.9 Q38.8 -77.55 35.9 -78.5 42.4 -76.6 55.35 -76.35 69.55 -76.1 76.75 -72.6 72.95 -72.3 66.95 -70.25 60.1 -67.85 57.45 -67.4 L46.8 -67.95 36.3 -69.6 Q42.0 -69.45 51.6 -71.05 L67.15 -73.1 M-7.3 -96.5 L-7.35 -92.3 -7.4 -93.85 Q-7.3 -101.5 -7.45 -103.75 L-8.1 -109.4 -8.7 -114.95 Q-8.85 -118.45 -8.15 -123.6 L-6.95 -131.95 -7.0 -109.1 -7.3 -96.5 M6.1 127.65 Q6.55 113.1 4.75 92.05 4.25 85.5 5.2 77.05 L7.2 63.7 Q5.8 74.9 6.55 94.8 7.35 117.2 6.1 127.65 M1.4 58.5 L1.4 93.3 Q1.4 114.4 -1.8 127.15 -2.8 114.85 -2.15 95.25 -1.25 67.25 -1.25 63.15 -1.25 45.8 0.1 19.7 0.45 12.95 0.0 3.2 L-0.9 -13.6 Q-1.8 -34.1 1.4 -46.6 1.65 -41.0 1.25 -31.45 0.75 -20.05 0.75 -16.15 L1.55 21.1 Q2.2 43.9 1.4 58.5 M-9.0 -68.1 L-25.95 -68.9 -42.75 -70.35 Q-49.0 -70.85 -59.45 -69.2 L-76.2 -67.1 -60.1 -71.4 Q-50.4 -73.95 -43.7 -73.6 -35.65 -73.2 -20.25 -70.75 -6.55 -69.2 3.25 -72.15 -2.8 -71.55 -10.65 -72.0 -18.4 -72.45 -24.5 -73.75 L-28.9 -74.8 -33.6 -75.65 -39.65 -75.85 Q-43.45 -76.0 -45.45 -76.95 -42.45 -79.4 -36.55 -78.65 -33.2 -78.25 -27.2 -76.7 -17.05 -74.7 -8.6 -75.1 L9.95 -76.0 Q20.8 -76.1 28.25 -74.1 21.7 -74.9 9.7 -71.65 -3.5 -68.1 -9.0 -68.1 M13.3 -63.1 Q15.8 -63.7 20.5 -65.45 24.7 -66.8 27.9 -66.6 30.4 -66.45 34.7 -65.0 39.45 -63.4 41.4 -63.1 L50.0 -62.75 Q56.0 -62.85 58.55 -62.6 L68.15 -61.15 77.75 -59.65 64.35 -59.15 50.9 -59.75 Q39.9 -61.45 31.95 -61.6 23.15 -61.75 13.05 -60.25 L-1.85 -58.5 Q-10.4 -57.9 -16.8 -58.8 L-29.85 -61.25 Q-37.85 -62.85 -43.1 -63.1 L-55.65 -62.15 -67.95 -60.25 Q-60.6 -64.7 -50.1 -64.75 L-31.25 -63.45 -8.9 -61.6 Q4.1 -60.9 13.3 -63.1 M-5.1 -11.0 Q-3.55 -5.75 -3.3 1.55 -3.15 6.2 -3.6 14.4 -3.8 18.0 -5.25 24.6 -6.85 31.5 -7.1 34.75 -7.35 37.95 -7.25 43.45 L-7.1 51.0 Q-7.3 47.65 -9.2 27.15 -10.6 12.35 -8.1 3.05 L-7.95 10.55 Q-7.65 14.95 -6.45 17.75 -3.7 9.7 -5.4 0.2 -8.25 -10.75 -9.5 -16.6 -11.0 -23.85 -9.0 -34.8 -6.35 -49.55 -6.1 -52.0 L-7.3 -31.5 Q-7.5 -19.05 -5.1 -11.0" fill="#000000" fill-opacity="0.2" fill-rule="evenodd" stroke="none"/>
  </g>
</svg>
