<?xml version="1.0" encoding="UTF-8" standalone="no"?>
<svg xmlns:xlink="http://www.w3.org/1999/xlink" height="230.65px" width="113.85px" xmlns="http://www.w3.org/2000/svg">
  <g transform="matrix(1.0, 0.0, 0.0, 1.0, 56.95, 115.3)">
    <path d="M-56.45 93.4 L-56.45 -114.75 22.45 -107.65 56.4 -104.95 56.4 114.75 43.85 112.4 43.85 -87.8 -42.65 -98.4 -42.65 94.1 -4.05 103.3 -56.45 93.4" fill="#ffffff" fill-opacity="0.09803922" fill-rule="evenodd" stroke="none"/>
    <path d="M43.85 112.4 L43.85 114.75 -4.05 103.3 -42.65 94.1 -42.65 -98.4 43.85 -87.8 43.85 112.4 M31.3 18.15 L20.05 15.6 20.05 69.55 31.3 72.05 31.3 18.15" fill="#ffffff" fill-opacity="0.0" fill-rule="evenodd" stroke="none"/>
    <path d="M31.3 18.15 L31.3 72.05 20.05 69.55 20.05 15.6 31.3 18.15" fill="#000000" fill-opacity="0.09803922" fill-rule="evenodd" stroke="none"/>
    <path d="M-56.45 93.4 L-56.45 -114.75 22.45 -107.65 56.4 -104.95 56.4 114.75 M31.3 18.15 L31.3 72.05 20.05 69.55 20.05 15.6 31.3 18.15" fill="none" stroke="#000000" stroke-linecap="round" stroke-linejoin="miter-clip" stroke-miterlimit="4.0" stroke-opacity="0.6" stroke-width="1.0"/>
    <path d="M56.4 114.75 L43.85 112.4 43.85 114.75 -4.05 103.3 -56.45 93.4 M43.85 112.4 L43.85 -87.8 -42.65 -98.4 -42.65 94.1 -4.05 103.3" fill="none" stroke="#000000" stroke-linecap="round" stroke-linejoin="miter-clip" stroke-miterlimit="4.0" stroke-width="1.0"/>
  </g>
</svg>
