<?xml version="1.0" encoding="UTF-8" standalone="no"?>
<svg xmlns:xlink="http://www.w3.org/1999/xlink" height="688.25px" width="761.85px" xmlns="http://www.w3.org/2000/svg">
  <g transform="matrix(1.0, 0.0, 0.0, 1.0, 380.95, 344.05)">
    <path d="M16.4 -13.8 L59.05 -13.8 59.05 19.65 104.95 20.0 104.95 58.35 137.75 58.35 137.75 91.1 173.8 91.1 173.8 127.2 213.15 127.2 213.15 153.45 255.8 153.45 255.8 196.05 264.0 196.05 291.9 196.05 292.0 227.55 314.85 227.25 314.85 263.3 193.5 273.05 193.5 228.85 292.0 227.55 193.5 228.85 160.7 228.85 160.7 196.05 118.05 196.05 118.05 153.45 75.45 153.45 75.45 127.2 36.05 127.2 36.05 91.3 36.05 91.1 31.75 91.1 0.0 91.1 0.0 58.35 -32.8 58.35 -32.8 18.95 -78.7 18.95 -78.7 -13.8 16.4 -13.8 -78.7 -13.8 -121.35 -13.8 -121.35 -53.2 -157.45 -53.2 -157.45 -89.25 -200.05 -89.25 -200.05 -138.45 -236.15 -138.45 -236.15 -190.95 -285.35 -190.95 -285.35 -227.0 -318.1 -227.0 -318.1 -253.25 -180.4 -253.25 -180.4 -227.0 -147.6 -227.0 -147.6 -190.95 -98.4 -190.95 -98.4 -138.45 -62.3 -138.45 -62.3 -89.25 -19.7 -89.25 -19.7 -53.2 16.4 -53.2 16.4 -13.8 M59.05 19.65 L-32.8 18.95 59.05 19.65 M347.65 268.8 L347.65 296.1 226.3 306.85 226.3 273.05 347.65 263.3 347.65 268.8 M380.4 296.1 L380.4 330.55 259.1 343.5 259.1 306.85 380.4 296.1 M213.15 153.45 L118.05 153.45 213.15 153.45 M173.8 127.2 L75.45 127.2 173.8 127.2 M104.95 58.35 L0.0 58.35 104.95 58.35 M137.75 91.1 L36.05 91.1 137.75 91.1 M255.8 196.05 L160.7 196.05 255.8 196.05 M-180.4 -227.0 L-285.35 -227.0 -180.4 -227.0 M-98.4 -138.45 L-200.05 -138.45 -98.4 -138.45 M-62.3 -89.25 L-157.45 -89.25 -62.3 -89.25 M-147.6 -190.95 L-236.15 -190.95 -147.6 -190.95 M-19.7 -53.2 L-121.35 -53.2 -19.7 -53.2" fill="#ffffff" fill-opacity="0.0" fill-rule="evenodd" stroke="none"/>
    <path d="M59.05 -13.8 L16.4 -13.8 16.4 -53.2 -19.7 -53.2 -19.7 -89.25 -62.3 -89.25 -62.3 -138.45 -98.4 -138.45 -98.4 -190.95 -147.6 -190.95 -147.6 -227.0 -180.4 -227.0 -180.4 -253.25 -318.1 -253.25 -380.45 -254.9 -318.1 -253.25 -318.1 -227.0 -285.35 -227.0 -285.35 -190.95 -236.15 -190.95 -236.15 -138.45 -200.05 -138.45 -200.05 -89.25 -157.45 -89.25 -157.45 -53.2 -121.35 -53.2 -121.35 -13.8 -78.7 -13.8 -78.7 18.95 -32.8 18.95 -32.8 58.35 0.0 58.35 0.0 91.1 31.75 91.1 36.05 91.3 36.05 127.2 75.45 127.2 75.45 153.45 118.05 153.45 118.05 196.05 160.7 196.05 160.7 228.85 193.5 228.85 193.5 273.05 226.3 273.05 226.3 306.85 259.1 306.85 259.1 343.5 -380.45 104.25 -380.45 -254.9 -257.5 -254.9 -257.5 -343.45 264.0 -225.35 264.0 196.05 255.8 196.05 255.8 153.45 213.15 153.45 213.15 127.2 173.8 127.2 173.8 91.1 137.75 91.1 137.75 58.35 104.95 58.35 104.95 20.0 59.05 19.65 59.05 -13.8" fill="#000000" fill-opacity="0.14901961" fill-rule="evenodd" stroke="none"/>
    <path d="M347.65 296.1 L380.4 296.1 259.1 306.85 226.3 306.85 347.65 296.1 M314.85 263.3 L347.65 263.3 226.3 273.05 193.5 273.05 314.85 263.3" fill="#000000" fill-opacity="0.34901962" fill-rule="evenodd" stroke="none"/>
    <path d="M36.05 91.3 L31.75 91.1 36.05 91.1 36.05 91.3" fill="#cecece" fill-rule="evenodd" stroke="none"/>
    <path d="M16.4 -13.8 L59.05 -13.8 M59.05 19.65 L104.95 20.0 M104.95 58.35 L137.75 58.35 M137.75 91.1 L173.8 91.1 M173.8 127.2 L213.15 127.2 M213.15 153.45 L255.8 153.45 M255.8 196.05 L264.0 196.05 291.9 196.05 M-180.4 -227.0 L-147.6 -227.0 M-147.6 -190.95 L-98.4 -190.95 M-98.4 -138.45 L-62.3 -138.45 M-62.3 -89.25 L-19.7 -89.25 M-19.7 -53.2 L16.4 -53.2 M16.4 -13.8 L-78.7 -13.8 M-32.8 18.95 L59.05 19.65 M292.0 227.55 L314.85 227.25 M347.65 263.3 L226.3 273.05 M226.3 306.85 L347.65 296.1 M118.05 153.45 L213.15 153.45 M75.45 127.2 L173.8 127.2 M160.7 196.05 L255.8 196.05 M36.05 91.1 L137.75 91.1 M0.0 58.35 L104.95 58.35 M193.5 273.05 L314.85 263.3 M193.5 228.85 L292.0 227.55 M259.1 306.85 L380.4 296.1 M-285.35 -227.0 L-180.4 -227.0 M-200.05 -138.45 L-98.4 -138.45 M-157.45 -89.25 L-62.3 -89.25 M-236.15 -190.95 L-147.6 -190.95 M-121.35 -53.2 L-19.7 -53.2" fill="none" stroke="#000000" stroke-linecap="round" stroke-linejoin="miter-clip" stroke-miterlimit="4.0" stroke-opacity="0.6" stroke-width="1.0"/>
    <path d="M59.05 -13.8 L59.05 19.65 M104.95 20.0 L104.95 58.35 M137.75 58.35 L137.75 91.1 M173.8 91.1 L173.8 127.2 M213.15 127.2 L213.15 153.45 M255.8 153.45 L255.8 196.05 M264.0 196.05 L264.0 -225.35 -257.5 -343.45 -257.5 -254.9 M-380.45 -254.9 L-318.1 -253.25 -180.4 -253.25 -180.4 -227.0 M-147.6 -227.0 L-147.6 -190.95 M-98.4 -190.95 L-98.4 -138.45 M-62.3 -138.45 L-62.3 -89.25 M-19.7 -89.25 L-19.7 -53.2 M16.4 -53.2 L16.4 -13.8 M-78.7 -13.8 L-78.7 18.95 -32.8 18.95 -32.8 58.35 0.0 58.35 0.0 91.1 31.75 91.1 36.05 91.3 36.05 91.1 31.75 91.1 M347.65 268.8 L347.65 296.1 380.4 296.1 380.4 330.55 259.1 343.5 -380.45 104.25 -380.45 -254.9 M347.65 263.3 L347.65 268.8 348.25 268.75 M291.9 196.05 L292.0 227.55 M314.85 227.25 L314.85 263.3 347.65 263.3 M226.3 273.05 L226.3 306.85 259.1 306.85 259.1 343.5 M75.45 127.2 L75.45 153.45 118.05 153.45 118.05 196.05 160.7 196.05 160.7 228.85 193.5 228.85 193.5 273.05 226.3 273.05 M36.05 91.3 L36.05 127.2 75.45 127.2 M-318.1 -253.25 L-318.1 -227.0 -285.35 -227.0 -285.35 -190.95 -236.15 -190.95 -236.15 -138.45 -200.05 -138.45 -200.05 -89.25 -157.45 -89.25 -157.45 -53.2 -121.35 -53.2 -121.35 -13.8 -78.7 -13.8" fill="none" stroke="#000000" stroke-linecap="round" stroke-linejoin="miter-clip" stroke-miterlimit="4.0" stroke-width="1.0"/>
  </g>
</svg>
