<?xml version="1.0" encoding="UTF-8" standalone="no"?>
<svg xmlns:xlink="http://www.w3.org/1999/xlink" height="1032.85px" width="1419.5px" xmlns="http://www.w3.org/2000/svg">
  <g transform="matrix(1.0, 0.0, 0.0, 1.0, 709.75, 516.35)">
    <path d="M555.55 4.25 L490.95 4.25 490.95 234.35 490.95 260.3 578.75 249.75 578.75 4.25 555.55 4.25 M350.9 252.45 L350.9 278.95 449.95 264.8 449.95 5.0 426.75 5.0 350.9 5.0 350.9 252.45 M709.25 -445.0 L709.25 393.3 74.9 515.9 74.9 -390.75 709.25 -445.0" fill="#ffffff" fill-opacity="0.0" fill-rule="evenodd" stroke="none"/>
    <path d="M-709.25 231.95 L-656.15 231.95 -656.15 231.8 -559.45 265.15 -559.45 283.65 -709.25 231.95 M-656.15 185.95 L-610.7 185.95 -559.45 203.65 -559.45 218.8 -656.15 185.95 M-610.2 133.8 L-610.2 133.0 -568.55 133.0 -559.45 136.15 -559.45 150.45 -610.2 133.8 M-567.75 73.5 L-567.75 72.8 -559.5 72.8 -559.5 76.25 -567.75 73.5 M-559.45 -450.95 L72.25 -515.85 709.25 -445.0 74.9 -390.75 -559.45 -450.95" fill="#000000" fill-opacity="0.34901962" fill-rule="evenodd" stroke="none"/>
    <path d="M74.9 515.9 L-559.45 333.15 -559.45 331.45 -559.5 331.4 -709.25 277.95 -709.25 231.95 -559.45 283.65 -559.45 265.15 -559.45 218.8 -559.45 265.15 -656.15 231.8 -656.15 185.95 -559.45 218.8 -559.45 203.65 -559.45 150.45 -559.45 203.65 -610.7 185.95 -610.2 185.95 -610.2 133.8 -559.45 150.45 -559.45 136.15 -568.55 133.0 -567.75 133.0 -567.75 73.5 -559.5 76.25 -559.5 78.5 -559.45 78.5 -559.45 -450.95 74.9 -390.75 74.9 515.9 M-373.45 -374.7 L-396.65 -377.3 -396.65 -301.8 -333.0 -294.75 -333.0 -297.3 -333.0 -370.25 -373.45 -374.7 M-486.65 -388.15 L-509.85 -390.75 -509.85 -315.25 -446.2 -308.2 -446.2 -310.75 -446.2 -383.65 -486.65 -388.15 M-257.9 -362.55 L-281.1 -365.15 -281.1 -289.7 -217.45 -282.6 -217.45 -285.15 -217.45 -358.1 -257.9 -362.55 M-182.45 -28.8 L-205.65 -31.55 -205.65 99.8 -97.15 117.95 -97.15 90.9 -97.15 -18.85 -182.45 -28.8 M-559.45 331.45 L-559.45 283.65 -559.45 331.45 M-559.45 78.5 L-559.45 136.15 -559.45 78.5" fill="#000000" fill-opacity="0.14901961" fill-rule="evenodd" stroke="none"/>
    <path d="M555.55 4.25 L578.75 4.25 578.75 249.75 490.95 260.3 490.95 234.35 555.55 226.55 555.55 4.25 M426.75 5.0 L449.95 5.0 449.95 264.8 350.9 278.95 350.9 252.45 426.75 241.6 426.75 5.0 M-333.0 -297.3 L-333.0 -294.75 -396.65 -301.8 -396.65 -377.3 -373.45 -374.7 -373.45 -301.8 -333.0 -297.3 M-446.2 -310.75 L-446.2 -308.2 -509.85 -315.25 -509.85 -390.75 -486.65 -388.15 -486.65 -315.25 -446.2 -310.75 M-217.45 -285.15 L-217.45 -282.6 -281.1 -289.7 -281.1 -365.15 -257.9 -362.55 -257.9 -289.7 -217.45 -285.15 M-97.15 90.9 L-97.15 117.95 -205.65 99.8 -205.65 -31.55 -182.45 -28.8 -182.45 76.6 -97.15 90.9" fill="#000000" fill-opacity="0.29803923" fill-rule="evenodd" stroke="none"/>
    <path d="M490.95 234.35 L490.95 4.25 555.55 4.25 578.75 4.25 578.75 249.75 490.95 260.3 490.95 234.35 555.55 226.55 555.55 4.25 M426.75 5.0 L449.95 5.0 449.95 264.8 350.9 278.95 350.9 252.45 350.9 5.0 426.75 5.0 426.75 241.6 350.9 252.45 M709.25 -445.0 L709.25 393.3 74.9 515.9 -559.45 333.15 -559.45 331.45 -559.45 283.65 -559.45 265.15 -559.45 218.8 -559.45 203.65 -559.45 150.45 -559.45 136.15 -568.55 133.0 -567.75 133.0 -567.75 73.5 -567.75 72.8 -559.5 72.8 M-559.5 331.4 L-709.25 277.95 -709.25 231.95 -656.15 231.95 -656.15 231.8 -656.15 185.95 -610.7 185.95 -610.2 185.95 -610.2 133.8 -610.2 133.0 -568.55 133.0 M-559.5 78.5 L-559.45 78.5 -559.45 -450.95 72.25 -515.85 709.25 -445.0 74.9 -390.75 74.9 515.9 M-373.45 -374.7 L-396.65 -377.3 -396.65 -301.8 -333.0 -294.75 -333.0 -297.3 -373.45 -301.8 -373.45 -374.7 -333.0 -370.25 -333.0 -297.3 M-486.65 -388.15 L-509.85 -390.75 -509.85 -315.25 -446.2 -308.2 -446.2 -310.75 -486.65 -315.25 -486.65 -388.15 -446.2 -383.65 -446.2 -310.75 M-257.9 -362.55 L-281.1 -365.15 -281.1 -289.7 -217.45 -282.6 -217.45 -285.15 -257.9 -289.7 -257.9 -362.55 -217.45 -358.1 -217.45 -285.15 M-182.45 -28.8 L-205.65 -31.55 -205.65 99.8 -97.15 117.95 -97.15 90.9 -182.45 76.6 -182.45 -28.8 -97.15 -18.85 -97.15 90.9 M-559.45 136.15 L-559.45 78.5 M74.9 -390.75 L-559.45 -450.95" fill="none" stroke="#000000" stroke-linecap="round" stroke-linejoin="miter-clip" stroke-miterlimit="4.0" stroke-width="1.0"/>
    <path d="M-610.2 133.8 L-559.45 150.45 M-567.75 73.5 L-559.5 76.25 M-559.45 203.65 L-610.7 185.95 M-559.45 265.15 L-656.15 231.8 M-559.45 218.8 L-656.15 185.95 M-559.45 283.65 L-709.25 231.95" fill="none" stroke="#000000" stroke-linecap="round" stroke-linejoin="miter-clip" stroke-miterlimit="4.0" stroke-opacity="0.6" stroke-width="1.0"/>
  </g>
</svg>
