<?xml version="1.0" encoding="UTF-8" standalone="no"?>
<svg xmlns:xlink="http://www.w3.org/1999/xlink" height="219.6px" width="207.0px" xmlns="http://www.w3.org/2000/svg">
  <g transform="matrix(1.0, 0.0, 0.0, 1.0, 0.5, 0.5)">
    <path d="M174.65 51.95 L177.1 49.05 173.95 44.9 170.7 46.8 166.45 42.0 Q154.0 28.85 137.9 21.65 126.1 16.35 113.55 14.8 L113.4 13.3 108.0 12.55 107.55 14.3 103.0 14.15 Q84.75 14.15 68.1 21.65 56.0 27.05 45.95 35.85 L43.65 33.8 39.2 36.9 41.15 40.35 39.55 42.0 Q27.15 55.2 20.35 72.25 15.45 84.55 13.95 97.65 L10.75 97.85 9.9 103.2 13.45 104.3 Q13.3 106.75 13.3 109.3 L13.55 116.55 Q14.0 123.3 15.4 129.85 16.1 133.45 17.15 137.05 18.5 141.75 20.35 146.35 24.75 157.35 31.45 166.75 L28.9 169.8 32.0 173.95 35.5 172.0 39.55 176.6 Q52.0 189.75 68.1 196.95 78.8 201.75 90.15 203.5 L90.35 206.05 95.7 206.8 96.45 204.2 103.0 204.45 Q121.25 204.45 137.9 196.95 149.3 191.85 158.9 183.75 L160.65 185.3 164.95 182.25 163.5 179.6 166.45 176.6 Q178.85 163.4 185.65 146.35 190.45 134.3 192.0 121.5 L195.0 121.15 195.15 115.7 192.55 115.0 192.7 109.3 Q192.7 89.95 185.65 72.25 181.3 61.3 174.65 51.95 M190.45 70.1 Q197.9 88.8 197.9 109.3 197.9 129.8 190.45 148.5 183.25 166.55 170.1 180.5 156.95 194.45 139.95 202.1 122.3 210.0 103.0 210.0 83.7 210.0 66.05 202.1 49.05 194.45 35.9 180.5 22.75 166.55 15.55 148.5 8.1 129.8 8.1 109.3 8.1 88.8 15.55 70.1 22.75 52.05 35.9 38.1 49.05 24.15 66.05 16.5 83.7 8.6 103.0 8.6 122.3 8.6 139.95 16.5 156.95 24.15 170.1 38.1 183.25 52.05 190.45 70.1" fill="#000000" fill-opacity="0.29803923" fill-rule="evenodd" stroke="none"/>
    <path d="M170.7 46.8 L173.95 44.9 177.1 49.05 174.65 51.95 Q158.1 71.0 134.8 89.35 L128.4 94.25 119.6 100.65 Q118.2 97.35 115.45 94.6 L114.3 93.55 115.45 94.6 Q118.2 97.35 119.6 100.65 120.8 103.45 121.0 106.7 L128.25 106.7 139.2 107.05 Q168.45 108.55 192.55 115.0 L195.15 115.7 195.0 121.15 192.0 121.5 Q180.65 122.55 166.1 122.25 144.45 121.85 128.1 118.0 123.65 116.9 119.65 115.6 118.6 118.05 116.85 120.2 121.4 123.95 126.05 128.6 137.35 140.0 149.0 156.6 157.7 169.15 163.5 179.6 L164.95 182.25 160.65 185.3 158.9 183.75 Q139.5 166.25 121.1 141.5 115.95 134.65 111.5 127.95 L109.95 125.65 Q107.1 126.95 103.8 127.3 L101.85 127.35 Q98.35 127.35 95.3 126.25 98.35 127.35 101.85 127.35 L103.8 127.3 103.85 127.6 Q106.6 148.3 102.05 177.2 99.65 192.55 96.45 204.2 L95.7 206.8 90.35 206.05 90.15 203.5 Q88.15 177.55 91.95 147.05 93.2 137.05 94.95 127.75 L95.3 126.25 Q92.75 125.35 90.55 123.75 L89.8 123.15 89.55 122.95 89.0 122.45 88.8 122.25 88.7 122.15 88.3 121.75 87.9 121.35 87.7 121.1 86.2 119.3 87.7 121.1 87.9 121.35 88.3 121.75 88.7 122.15 88.8 122.25 89.0 122.45 89.55 122.95 89.8 123.15 90.55 123.75 89.35 125.3 88.15 126.9 Q75.9 144.35 53.65 160.4 46.15 165.8 38.3 170.45 L35.5 172.0 32.0 173.95 28.9 169.8 31.45 166.75 Q47.45 148.1 67.55 132.6 72.25 128.95 76.35 126.1 L86.2 119.3 Q83.75 115.95 83.0 111.95 82.65 110.1 82.65 108.15 82.65 105.45 83.3 103.05 82.65 105.45 82.65 108.15 82.65 110.1 83.0 111.95 L76.35 112.6 Q59.5 113.8 39.0 110.3 L36.1 109.8 Q26.5 108.0 17.25 105.45 L13.45 104.3 9.9 103.2 10.75 97.85 13.95 97.65 Q39.55 95.9 66.45 99.95 L72.8 101.0 75.25 101.4 76.35 101.6 78.6 102.05 83.3 103.05 Q84.0 100.45 85.45 98.15 80.9 94.1 76.35 89.3 66.1 78.4 55.65 63.4 49.3 54.25 43.6 44.65 L41.15 40.35 39.2 36.9 43.65 33.8 45.95 35.85 Q65.7 53.75 84.45 79.0 L85.05 79.8 93.1 91.05 Q96.1 89.4 99.7 89.05 99.15 84.6 98.95 79.8 98.25 63.0 101.65 41.7 103.35 31.25 105.85 20.85 L107.55 14.3 108.0 12.55 113.4 13.3 113.55 14.8 Q115.7 40.8 111.75 71.45 L110.6 79.8 108.85 90.2 Q105.6 88.95 101.85 88.95 L99.7 89.05 101.85 88.95 Q105.6 88.95 108.85 90.2 111.8 91.35 114.3 93.55 119.7 86.75 126.9 79.8 136.35 70.75 148.95 61.4 160.75 52.7 170.7 46.8 M175.85 32.0 Q190.1 47.15 197.9 66.75 206.0 87.05 206.0 109.3 206.0 131.55 197.9 151.85 190.1 171.45 175.85 186.6 161.6 201.7 143.1 210.0 123.95 218.6 103.0 218.6 82.05 218.6 62.9 210.0 44.4 201.7 30.15 186.6 15.9 171.45 8.1 151.85 5.7 145.85 4.0 139.65 L2.35 132.6 Q1.05 126.25 0.45 119.75 0.0 114.6 0.0 109.3 0.0 87.05 8.1 66.75 15.9 47.15 30.15 32.0 44.4 16.9 62.9 8.6 82.05 0.0 103.0 0.0 123.95 0.0 143.1 8.6 161.6 16.9 175.85 32.0 M190.45 70.1 Q183.25 52.05 170.1 38.1 156.95 24.15 139.95 16.5 122.3 8.6 103.0 8.6 83.7 8.6 66.05 16.5 49.05 24.15 35.9 38.1 22.75 52.05 15.55 70.1 8.1 88.8 8.1 109.3 8.1 129.8 15.55 148.5 22.75 166.55 35.9 180.5 49.05 194.45 66.05 202.1 83.7 210.0 103.0 210.0 122.3 210.0 139.95 202.1 156.95 194.45 170.1 180.5 183.25 166.55 190.45 148.5 197.9 129.8 197.9 109.3 197.9 88.8 190.45 70.1 M107.4 24.45 Q105.6 33.15 104.35 41.8 101.15 64.4 102.65 79.8 103.0 83.35 103.6 86.55 L108.95 17.45 107.4 24.45 M88.85 94.1 L88.3 94.6 Q86.6 96.25 85.45 98.15 86.6 96.25 88.3 94.6 L88.85 94.1 89.35 93.65 44.5 40.35 48.5 46.65 Q53.6 54.45 59.05 61.8 68.05 73.95 76.35 82.65 82.8 89.45 88.85 94.1 M93.1 91.05 Q91.1 92.05 89.35 93.65 91.1 92.05 93.1 91.05 M112.15 97.85 Q107.9 93.55 101.85 93.55 95.8 93.55 91.55 97.85 88.75 100.6 87.8 104.15 87.25 106.05 87.25 108.15 87.25 109.75 87.55 111.2 88.4 115.3 91.55 118.45 93.65 120.6 96.25 121.65 98.8 122.75 101.85 122.75 L103.05 122.7 Q105.4 122.55 107.45 121.7 110.0 120.6 112.15 118.45 L113.2 117.35 115.25 114.1 Q116.45 111.35 116.45 108.15 L116.4 106.8 Q115.95 101.6 112.15 97.85 M128.6 81.3 Q122.0 87.75 117.65 93.7 L171.2 49.25 Q161.9 54.75 150.5 63.1 137.45 72.65 128.6 81.3 M116.85 120.2 L115.45 121.75 Q112.95 124.25 109.95 125.65 112.95 124.25 115.45 121.75 L116.85 120.2 M19.0 102.4 L34.45 105.5 Q59.15 109.65 74.25 107.3 L12.8 100.85 19.0 102.4 M38.9 166.7 L52.25 157.8 Q72.95 142.95 82.25 130.45 L33.35 170.1 38.9 166.7 M129.15 113.75 Q137.55 115.8 145.95 117.25 172.85 122.0 189.4 119.3 L122.4 112.0 129.15 113.75 M119.65 115.6 Q121.05 112.15 121.05 108.15 L121.0 106.7 121.05 108.15 Q121.05 112.15 119.65 115.6 M96.55 136.2 Q94.8 145.0 93.55 153.85 89.75 182.05 92.95 199.25 L98.05 129.1 96.55 136.2 M118.7 132.5 Q123.8 139.9 129.25 146.9 146.7 169.35 161.15 179.2 L114.7 126.45 118.7 132.5" fill="#ffffff" fill-opacity="0.0" fill-rule="evenodd" stroke="none"/>
    <path d="M107.4 24.45 L108.95 17.45 103.6 86.55 Q103.0 83.35 102.65 79.8 101.15 64.4 104.35 41.8 105.6 33.15 107.4 24.45 M88.85 94.1 Q82.8 89.45 76.35 82.65 68.05 73.95 59.05 61.8 53.6 54.45 48.5 46.65 L44.5 40.35 89.35 93.65 88.85 94.1 M111.05 98.65 Q107.15 94.7 101.55 94.7 96.0 94.7 92.05 98.65 89.5 101.15 88.6 104.35 88.1 106.15 88.1 108.15 88.1 109.65 88.4 111.05 89.15 114.75 92.05 117.65 94.05 119.65 96.45 120.65 98.8 121.6 101.55 121.6 L102.85 121.55 Q104.9 121.35 106.75 120.6 109.1 119.6 111.05 117.65 L112.1 116.5 Q113.2 115.1 113.9 113.55 115.0 111.05 115.0 108.15 L114.95 106.85 Q114.55 102.1 111.05 98.65 M112.15 97.85 Q115.95 101.6 116.4 106.8 L116.45 108.15 Q116.45 111.35 115.25 114.1 L113.2 117.35 112.15 118.45 Q110.0 120.6 107.45 121.7 105.4 122.55 103.05 122.7 L101.85 122.75 Q98.8 122.75 96.25 121.65 93.65 120.6 91.55 118.45 88.4 115.3 87.55 111.2 87.25 109.75 87.25 108.15 87.25 106.05 87.8 104.15 88.75 100.6 91.55 97.85 95.8 93.55 101.85 93.55 107.9 93.55 112.15 97.85 M128.6 81.3 Q137.45 72.65 150.5 63.1 161.9 54.75 171.2 49.25 L117.65 93.7 Q122.0 87.75 128.6 81.3 M38.9 166.7 L33.35 170.1 82.25 130.45 Q72.95 142.95 52.25 157.8 L38.9 166.7 M19.0 102.4 L12.8 100.85 74.25 107.3 Q59.15 109.65 34.45 105.5 L19.0 102.4 M129.15 113.75 L122.4 112.0 189.4 119.3 Q172.85 122.0 145.95 117.25 137.55 115.8 129.15 113.75 M113.3 107.65 L113.3 108.15 Q113.3 110.35 112.55 112.25 111.9 114.0 110.7 115.5 L109.85 116.4 Q108.2 118.05 106.3 118.9 104.1 119.85 101.55 119.85 96.7 119.85 93.3 116.4 89.85 113.0 89.85 108.15 89.85 103.3 93.3 99.85 96.7 96.45 101.55 96.45 106.4 96.45 109.85 99.85 113.05 103.05 113.3 107.65 M96.55 136.2 L98.05 129.1 92.95 199.25 Q89.75 182.05 93.55 153.85 94.8 145.0 96.55 136.2 M118.7 132.5 L114.7 126.45 161.15 179.2 Q146.7 169.35 129.25 146.9 123.8 139.9 118.7 132.5" fill="#ffffff" fill-opacity="0.2" fill-rule="evenodd" stroke="none"/>
    <path d="M111.05 98.65 Q114.55 102.1 114.95 106.85 L115.0 108.15 Q115.0 111.05 113.9 113.55 113.2 115.1 112.1 116.5 L111.05 117.65 Q109.1 119.6 106.75 120.6 104.9 121.35 102.85 121.55 L101.55 121.6 Q98.8 121.6 96.45 120.65 94.05 119.65 92.05 117.65 89.15 114.75 88.4 111.05 88.1 109.65 88.1 108.15 88.1 106.15 88.6 104.35 89.5 101.15 92.05 98.65 96.0 94.7 101.55 94.7 107.15 94.7 111.05 98.65 M113.3 107.65 Q113.05 103.05 109.85 99.85 106.4 96.45 101.55 96.45 96.7 96.45 93.3 99.85 89.85 103.3 89.85 108.15 89.85 113.0 93.3 116.4 96.7 119.85 101.55 119.85 104.1 119.85 106.3 118.9 108.2 118.05 109.85 116.4 L110.7 115.5 Q111.9 114.0 112.55 112.25 113.3 110.35 113.3 108.15 L113.3 107.65" fill="#ffffff" fill-opacity="0.44705883" fill-rule="evenodd" stroke="none"/>
    <path d="M170.7 46.8 L173.95 44.9 177.1 49.05 174.65 51.95 Q181.3 61.3 185.65 72.25 192.7 89.95 192.7 109.3 L192.55 115.0 195.15 115.7 195.0 121.15 192.0 121.5 Q190.45 134.3 185.65 146.35 178.85 163.4 166.45 176.6 L163.5 179.6 164.95 182.25 160.65 185.3 158.9 183.75 Q149.3 191.85 137.9 196.95 121.25 204.45 103.0 204.45 L96.45 204.2 95.7 206.8 90.35 206.05 90.15 203.5 Q78.8 201.75 68.1 196.95 52.0 189.75 39.55 176.6 L35.5 172.0 32.0 173.95 28.9 169.8 31.45 166.75 Q24.75 157.35 20.35 146.35 18.5 141.75 17.15 137.05 16.1 133.45 15.4 129.85 14.0 123.3 13.55 116.55 L13.3 109.3 Q13.3 106.75 13.45 104.3 L9.9 103.2 10.75 97.85 13.95 97.65 Q15.45 84.55 20.35 72.25 27.15 55.2 39.55 42.0 L41.15 40.35 39.2 36.9 43.65 33.8 45.95 35.85 Q56.0 27.05 68.1 21.65 84.75 14.15 103.0 14.15 L107.55 14.3 108.0 12.55 113.4 13.3 113.55 14.8 Q126.1 16.35 137.9 21.65 154.0 28.85 166.45 42.0 L170.7 46.8 Q160.75 52.7 148.95 61.4 136.35 70.75 126.9 79.8 119.7 86.75 114.3 93.55 L115.45 94.6 Q118.2 97.35 119.6 100.65 L128.4 94.25 134.8 89.35 Q158.1 71.0 174.65 51.95 M190.45 70.1 Q197.9 88.8 197.9 109.3 197.9 129.8 190.45 148.5 183.25 166.55 170.1 180.5 156.95 194.45 139.95 202.1 122.3 210.0 103.0 210.0 83.7 210.0 66.05 202.1 49.05 194.45 35.9 180.5 22.75 166.55 15.55 148.5 8.1 129.8 8.1 109.3 8.1 88.8 15.55 70.1 22.75 52.05 35.9 38.1 49.05 24.15 66.05 16.5 83.7 8.6 103.0 8.6 122.3 8.6 139.95 16.5 156.95 24.15 170.1 38.1 183.25 52.05 190.45 70.1 M192.0 121.5 Q180.65 122.55 166.1 122.25 144.45 121.85 128.1 118.0 123.65 116.9 119.65 115.6 118.6 118.05 116.85 120.2 121.4 123.95 126.05 128.6 137.35 140.0 149.0 156.6 157.7 169.15 163.5 179.6 M107.55 14.3 L105.85 20.85 Q103.35 31.25 101.65 41.7 98.25 63.0 98.95 79.8 99.15 84.6 99.7 89.05 L101.85 88.95 Q105.6 88.95 108.85 90.2 L110.6 79.8 111.75 71.45 Q115.7 40.8 113.55 14.8 M45.95 35.85 Q65.7 53.75 84.45 79.0 L85.05 79.8 93.1 91.05 Q96.1 89.4 99.7 89.05 M85.45 98.15 Q86.6 96.25 88.3 94.6 L88.85 94.1 89.35 93.65 Q91.1 92.05 93.1 91.05 M108.85 90.2 Q111.8 91.35 114.3 93.55 M112.15 97.85 Q115.95 101.6 116.4 106.8 L116.45 108.15 Q116.45 111.35 115.25 114.1 L113.2 117.35 112.15 118.45 Q110.0 120.6 107.45 121.7 105.4 122.55 103.05 122.7 L101.85 122.75 Q98.8 122.75 96.25 121.65 93.65 120.6 91.55 118.45 88.4 115.3 87.55 111.2 87.25 109.75 87.25 108.15 87.25 106.05 87.8 104.15 88.75 100.6 91.55 97.85 95.8 93.55 101.85 93.55 107.9 93.55 112.15 97.85 M41.15 40.35 L43.6 44.65 Q49.3 54.25 55.65 63.4 66.1 78.4 76.35 89.3 80.9 94.1 85.45 98.15 84.0 100.45 83.3 103.05 82.65 105.45 82.65 108.15 82.65 110.1 83.0 111.95 83.75 115.95 86.2 119.3 L87.7 121.1 87.9 121.35 88.3 121.75 88.7 122.15 88.8 122.25 89.0 122.45 89.55 122.95 89.8 123.15 90.55 123.75 Q92.75 125.35 95.3 126.25 98.35 127.35 101.85 127.35 L103.8 127.3 Q107.1 126.95 109.95 125.65 112.95 124.25 115.45 121.75 L116.85 120.2 M83.3 103.05 L78.6 102.05 76.35 101.6 75.25 101.4 72.8 101.0 66.45 99.95 Q39.55 95.9 13.95 97.65 M86.2 119.3 L76.35 126.1 Q72.25 128.95 67.55 132.6 47.45 148.1 31.45 166.75 M83.0 111.95 L76.35 112.6 Q59.5 113.8 39.0 110.3 L36.1 109.8 Q26.5 108.0 17.25 105.45 L13.45 104.3 M35.5 172.0 L38.3 170.45 Q46.15 165.8 53.65 160.4 75.9 144.35 88.15 126.9 L89.35 125.3 90.55 123.75 M119.6 100.65 Q120.8 103.45 121.0 106.7 L128.25 106.7 139.2 107.05 Q168.45 108.55 192.55 115.0 M121.0 106.7 L121.05 108.15 Q121.05 112.15 119.65 115.6 M90.15 203.5 Q88.15 177.55 91.95 147.05 93.2 137.05 94.95 127.75 L95.3 126.25 M103.8 127.3 L103.85 127.6 Q106.6 148.3 102.05 177.2 99.65 192.55 96.45 204.2 M109.95 125.65 L111.5 127.95 Q115.95 134.65 121.1 141.5 139.5 166.25 158.9 183.75" fill="none" stroke="#000000" stroke-linecap="round" stroke-linejoin="miter-clip" stroke-miterlimit="10.0" stroke-opacity="0.6" stroke-width="1.0"/>
    <path d="M175.85 32.0 Q161.6 16.9 143.1 8.6 123.95 0.0 103.0 0.0 82.05 0.0 62.9 8.6 44.4 16.9 30.15 32.0 15.9 47.15 8.1 66.75 0.0 87.05 0.0 109.3 0.0 114.6 0.45 119.75 1.05 126.25 2.35 132.6 L4.0 139.65 Q5.7 145.85 8.1 151.85 15.9 171.45 30.15 186.6 44.4 201.7 62.9 210.0 82.05 218.6 103.0 218.6 123.95 218.6 143.1 210.0 161.6 201.7 175.85 186.6 190.1 171.45 197.9 151.85 206.0 131.55 206.0 109.3 206.0 87.05 197.9 66.75 190.1 47.15 175.85 32.0" fill="none" stroke="#000000" stroke-linecap="round" stroke-linejoin="miter-clip" stroke-miterlimit="10.0" stroke-width="1.0"/>
  </g>
</svg>
