<?xml version="1.0" encoding="UTF-8" standalone="no"?>
<svg xmlns:xlink="http://www.w3.org/1999/xlink" height="21.75px" width="30.85px" xmlns="http://www.w3.org/2000/svg">
  <g transform="matrix(1.0, 0.0, 0.0, 1.0, 0.0, -0.65)">
    <path d="M23.95 10.8 L18.1 10.8 Q18.1 9.3 17.4 8.3 16.6 7.3 15.45 7.3 L15.45 0.75 18.45 0.65 23.95 0.65 23.95 10.8 M21.5 21.2 L21.6 21.1 21.6 21.15 21.5 21.2 M10.65 7.95 L10.75 8.1 10.6 7.95 10.65 7.95 M7.6 19.3 L7.65 19.45 7.2 18.25 7.6 19.3 M8.35 20.35 L8.55 20.55 8.45 20.5 8.2 20.2 8.35 20.35 M15.45 12.75 Q15.45 13.4 18.35 17.45 L21.25 21.35 Q19.25 22.4 15.45 22.4 11.75 22.4 9.8 21.4 10.05 21.5 12.75 17.45 15.45 13.35 15.45 12.75" fill="#ffffff" fill-opacity="0.0" fill-rule="evenodd" stroke="none"/>
    <path d="M28.25 20.95 L27.45 20.85 26.9 20.75 26.2 20.85 25.55 20.95 25.55 20.5 26.2 20.4 26.9 20.3 27.45 20.4 28.25 20.5 28.85 20.4 29.5 20.3 30.2 20.4 30.85 20.5 30.85 20.95 30.2 20.85 29.5 20.75 28.85 20.85 28.25 20.95 M28.85 21.3 L29.5 21.15 30.2 21.3 30.85 21.4 30.85 21.85 30.2 21.75 29.5 21.6 28.85 21.75 28.25 21.85 27.45 21.75 26.9 21.6 26.2 21.75 25.55 21.85 25.55 21.4 26.2 21.3 26.9 21.15 27.45 21.3 28.25 21.4 28.85 21.3 M3.4 20.85 L2.65 20.95 2.0 20.85 1.3 20.75 0.65 20.85 0.0 20.95 0.0 20.5 0.65 20.4 1.3 20.3 2.0 20.4 2.65 20.5 3.4 20.4 4.0 20.3 4.7 20.4 5.6 20.5 5.6 20.95 4.7 20.85 4.0 20.75 3.4 20.85 M3.4 21.3 L4.0 21.15 4.7 21.3 5.6 21.4 5.6 21.85 4.7 21.75 4.0 21.6 3.4 21.75 2.65 21.85 2.0 21.75 1.3 21.6 0.65 21.75 0.0 21.85 0.0 21.4 0.65 21.3 1.3 21.15 2.0 21.3 2.65 21.4 3.4 21.3" fill="#ffffff" fill-opacity="0.49803922" fill-rule="evenodd" stroke="none"/>
    <path d="M29.75 3.25 L29.75 17.85 27.05 17.85 27.05 3.25 29.75 3.25 M4.05 3.25 L4.05 17.85 1.35 17.85 1.35 3.25 4.05 3.25" fill="#ffffff" fill-opacity="0.4" fill-rule="evenodd" stroke="none"/>
  </g>
</svg>
