<?xml version="1.0" encoding="UTF-8" standalone="no"?>
<svg xmlns:xlink="http://www.w3.org/1999/xlink" height="61.0px" width="5171.95px" xmlns="http://www.w3.org/2000/svg">
  <g transform="matrix(1.0, 0.0, 0.0, 1.0, 2569.25, 34.3)">
    <path d="M2433.3 26.1 L2377.4 26.05 2058.1 -33.2 2107.55 -33.2 2433.3 26.1 M2265.15 26.0 L2208.2 26.0 1908.2 -33.25 1957.8 -33.25 2265.15 26.0 M2096.6 25.95 L2040.65 25.95 1759.05 -33.25 1809.15 -33.25 2096.6 25.95 M1927.9 25.85 L1872.4 25.85 1610.6 -33.25 1659.7 -33.25 1927.9 25.85 M1760.3 25.8 L1704.85 25.75 1461.5 -33.3 1510.65 -33.3 1760.3 25.8 M1592.7 25.7 L1537.35 25.7 1313.5 -33.3 1362.55 -33.3 1592.7 25.7 M1425.8 25.6 L1369.7 25.55 1164.95 -33.3 1214.15 -33.3 1425.8 25.6 M1258.6 25.55 L1203.3 25.5 1016.8 -33.35 1066.5 -33.35 1258.6 25.55 M1091.5 25.45 L1036.35 25.45 869.05 -33.35 918.1 -33.35 1091.5 25.45 M925.5 25.35 L870.4 25.35 721.25 -33.35 770.1 -33.35 925.5 25.35 M758.95 25.3 L703.8 25.3 573.6 -33.35 622.95 -33.35 758.95 25.3 M593.15 25.25 L537.85 25.2 426.6 -33.45 475.3 -33.45 593.15 25.25 M427.2 25.2 L372.2 25.1 279.15 -33.45 327.9 -33.45 427.2 25.2 M261.6 25.05 L206.75 25.05 132.3 -33.45 181.0 -33.45 261.6 25.05 M96.35 25.0 L41.55 25.0 -14.55 -33.5 34.2 -33.5 96.35 25.0 M2602.2 26.2 L2545.6 26.1 2206.75 -33.2 2256.5 -33.2 2602.2 26.2 M-68.65 24.95 L-123.45 24.85 -161.25 -33.5 -112.4 -33.5 -68.65 24.95 M-233.45 24.85 L-288.15 24.8 -307.55 -33.5 -259.05 -33.5 -233.45 24.85 M-397.9 24.75 L-452.6 24.75 -453.65 -33.55 -405.15 -33.55 -397.9 24.75 M-562.25 24.65 L-616.7 24.65 -599.65 -33.55 -551.35 -33.55 -562.25 24.65 M-726.35 24.6 L-780.75 24.6 -745.55 -33.55 -697.25 -33.55 -726.35 24.6 M-890.75 24.55 L-945.05 24.5 -891.75 -33.55 -843.5 -33.55 -890.75 24.55 M-1054.35 24.4 L-1108.3 24.4 -1037.2 -33.65 -989.0 -33.65 -1054.35 24.4 M-1217.5 24.35 L-1271.7 24.35 -1182.35 -33.65 -1134.15 -33.65 -1217.5 24.35 M-1380.75 24.3 L-1434.65 24.3 -1327.7 -33.7 -1279.5 -33.7 -1380.75 24.3 M-1543.4 24.25 L-1597.55 24.15 -1472.45 -33.7 -1424.15 -33.7 -1543.4 24.25 M-1705.8 24.15 L-1759.85 24.1 -1616.95 -33.7 -1568.9 -33.7 -1705.8 24.15 M-1868.6 24.1 L-1921.9 24.05 -1761.85 -33.75 -1713.75 -33.75 -1868.6 24.1 M-2030.35 24.05 L-2084.2 24.0 -1905.7 -33.75 -1857.8 -33.75 -2030.35 24.05 M-2192.7 24.0 L-2245.9 23.9 -2049.75 -33.8 -2002.5 -33.8 -2192.7 24.0 M-2354.15 23.85 L-2407.8 23.85 -2194.2 -33.8 -2146.25 -33.8 -2354.15 23.85 M-2515.0 23.8 L-2568.75 23.8 -2337.5 -33.8 -2289.55 -33.8 -2515.0 23.8" fill="#ffffff" fill-opacity="0.0" fill-rule="evenodd" stroke="none"/>
    <path d="M2433.3 26.1 L2107.55 -33.2 M2058.1 -33.2 L2377.4 26.05 M2265.15 26.0 L1957.8 -33.25 M1908.2 -33.25 L2208.2 26.0 M2096.6 25.95 L1809.15 -33.25 M1759.05 -33.25 L2040.65 25.95 M1927.9 25.85 L1659.7 -33.25 M1610.6 -33.25 L1872.4 25.85 M1760.3 25.8 L1510.65 -33.3 M1461.5 -33.3 L1704.85 25.75 M1592.7 25.7 L1362.55 -33.3 M1313.5 -33.3 L1537.35 25.7 M1425.8 25.6 L1214.15 -33.3 M1164.95 -33.3 L1369.7 25.55 M1258.6 25.55 L1066.5 -33.35 M1016.8 -33.35 L1203.3 25.5 M1091.5 25.45 L918.1 -33.35 M869.05 -33.35 L1036.35 25.45 M925.5 25.35 L770.1 -33.35 M721.25 -33.35 L870.4 25.35 M758.95 25.3 L622.95 -33.35 M573.6 -33.35 L703.8 25.3 M593.15 25.25 L475.3 -33.45 M426.6 -33.45 L537.85 25.2 M427.2 25.2 L327.9 -33.45 M279.15 -33.45 L372.2 25.1 M261.6 25.05 L181.0 -33.45 M132.3 -33.45 L206.75 25.05 M96.35 25.0 L34.2 -33.5 M-14.55 -33.5 L41.55 25.0 M2602.2 26.2 L2256.5 -33.2 M2206.75 -33.2 L2545.6 26.1 M-68.65 24.95 L-112.4 -33.5 M-161.25 -33.5 L-123.45 24.85 M-233.45 24.85 L-259.05 -33.5 M-307.55 -33.5 L-288.15 24.8 M-397.9 24.75 L-405.15 -33.55 M-453.65 -33.55 L-452.6 24.75 M-562.25 24.65 L-551.35 -33.55 M-599.65 -33.55 L-616.7 24.65 M-726.35 24.6 L-697.25 -33.55 M-745.55 -33.55 L-780.75 24.6 M-890.75 24.55 L-843.5 -33.55 M-891.75 -33.55 L-945.05 24.5 M-1054.35 24.4 L-989.0 -33.65 M-1037.2 -33.65 L-1108.3 24.4 M-1217.5 24.35 L-1134.15 -33.65 M-1182.35 -33.65 L-1271.7 24.35 M-1380.75 24.3 L-1279.5 -33.7 M-1327.7 -33.7 L-1434.65 24.3 M-1543.4 24.25 L-1424.15 -33.7 M-1472.45 -33.7 L-1597.55 24.15 M-1705.8 24.15 L-1568.9 -33.7 M-1616.95 -33.7 L-1759.85 24.1 M-1868.6 24.1 L-1713.75 -33.75 M-1761.85 -33.75 L-1921.9 24.05 M-2030.35 24.05 L-1857.8 -33.75 M-1905.7 -33.75 L-2084.2 24.0 M-2192.7 24.0 L-2002.5 -33.8 M-2049.75 -33.8 L-2245.9 23.9 M-2354.15 23.85 L-2146.25 -33.8 M-2194.2 -33.8 L-2407.8 23.85 M-2515.0 23.8 L-2289.55 -33.8 M-2337.5 -33.8 L-2568.75 23.8" fill="none" stroke="#000000" stroke-linecap="round" stroke-linejoin="miter-clip" stroke-miterlimit="4.0" stroke-opacity="0.4" stroke-width="1.0"/>
  </g>
</svg>
