<?xml version="1.0" encoding="UTF-8" standalone="no"?>
<svg xmlns:xlink="http://www.w3.org/1999/xlink" height="132.55px" width="984.7px" xmlns="http://www.w3.org/2000/svg">
  <g transform="matrix(1.0, 0.0, 0.0, 1.0, 0.7, 0.5)">
    <path d="M619.1 44.55 L583.25 44.55 583.25 25.05 939.15 25.05 939.15 44.55 903.95 44.55 903.35 43.95 Q888.3 28.95 867.05 28.95 845.8 28.95 830.75 43.95 L830.15 44.55 766.4 44.55 766.4 34.15 737.8 34.15 737.8 44.55 737.8 34.15 766.4 34.15 766.4 44.55 766.4 50.8 766.4 56.25 766.4 50.8 817.6 66.15 828.85 69.55 848.7 75.5 Q849.75 71.1 853.15 67.7 858.1 62.75 865.1 62.75 872.1 62.75 877.05 67.7 882.0 72.6 882.0 79.6 882.0 86.6 877.05 91.55 872.1 96.5 865.1 96.5 858.1 96.5 853.15 91.55 848.65 87.05 848.25 80.8 L827.8 74.65 816.5 71.25 766.4 56.25 766.4 71.8 785.9 71.8 785.9 90.0 796.25 90.0 796.25 92.6 796.25 99.1 731.3 99.1 731.3 92.6 731.3 90.0 735.25 90.0 785.9 90.0 735.25 90.0 735.25 74.2 707.3 79.1 695.6 81.15 670.25 85.55 Q669.0 88.35 666.65 90.7 L664.45 92.6 Q660.2 95.65 654.7 95.65 649.25 95.65 645.05 92.6 L642.8 90.7 Q637.85 85.75 637.85 78.75 637.85 71.75 642.8 66.8 647.7 61.85 654.7 61.85 661.7 61.85 666.65 66.8 671.6 71.75 671.6 78.75 L671.55 80.1 695.4 75.95 706.95 73.9 737.8 68.55 737.8 71.8 735.25 71.8 735.25 74.2 735.25 71.8 737.8 71.8 737.8 68.55 737.8 44.55 692.9 44.55 692.3 43.95 Q677.25 28.95 656.0 28.95 634.75 28.95 619.7 43.95 L619.1 44.55 M848.25 80.8 L848.2 79.6 Q848.2 77.45 848.7 75.5 848.2 77.45 848.2 79.6 L848.25 80.8 M670.25 85.55 Q671.35 83.0 671.55 80.1 671.35 83.0 670.25 85.55 M252.0 92.6 L252.0 99.1 187.05 99.1 187.05 92.6 187.05 90.0 197.45 90.0 197.45 71.8 216.9 71.8 216.9 56.25 166.85 71.25 155.5 74.65 135.1 80.8 Q134.65 87.05 130.15 91.55 125.2 96.5 118.2 96.5 111.2 96.5 106.25 91.55 101.3 86.6 101.3 79.6 101.3 72.65 106.25 67.7 111.2 62.75 118.2 62.75 125.2 62.75 130.15 67.7 133.55 71.1 134.65 75.5 L154.5 69.55 165.7 66.15 216.9 50.8 216.9 44.55 153.15 44.55 152.55 43.95 Q137.5 28.95 116.25 28.95 95.0 28.95 80.0 43.95 L79.4 44.55 44.15 44.55 44.15 25.05 400.05 25.05 400.05 44.55 364.2 44.55 363.6 43.95 Q348.55 28.95 327.3 28.95 306.05 28.95 291.05 43.95 L290.45 44.55 245.5 44.55 245.5 34.15 216.9 34.15 216.9 44.55 216.9 34.15 245.5 34.15 245.5 44.55 245.5 68.5 276.35 73.9 287.9 75.9 311.75 80.05 311.7 78.75 Q311.7 71.75 316.65 66.8 321.6 61.85 328.6 61.85 335.6 61.85 340.55 66.8 345.5 71.75 345.5 78.75 345.5 85.75 340.55 90.7 335.6 95.65 328.6 95.65 321.6 95.65 316.65 90.7 314.3 88.35 313.1 85.55 L287.7 81.15 276.0 79.1 248.1 74.2 248.1 90.0 252.0 90.0 252.0 92.6 M248.1 74.2 L248.1 71.8 245.5 71.8 245.5 68.5 245.5 71.8 248.1 71.8 248.1 74.2 M311.75 80.05 Q311.95 83.0 313.1 85.55 311.95 83.0 311.75 80.05 M216.9 50.8 L216.9 56.25 216.9 50.8 M248.1 90.0 L197.45 90.0 248.1 90.0 M135.1 80.8 L135.1 79.6 Q135.1 77.45 134.65 75.5 135.1 77.45 135.1 79.6 L135.1 80.8" fill="#ffffff" fill-opacity="0.2" fill-rule="evenodd" stroke="none"/>
    <path d="M903.95 44.55 Q918.35 59.4 918.35 80.25 918.35 86.7 916.95 92.6 913.8 106.1 903.35 116.55 888.3 131.55 867.05 131.55 845.8 131.55 830.75 116.55 820.3 106.1 817.15 92.6 815.75 86.7 815.75 80.25 815.75 75.6 816.5 71.25 L827.8 74.65 Q827.45 77.4 827.45 80.25 827.45 96.65 839.05 108.3 850.65 119.9 867.05 119.9 883.45 119.9 895.05 108.3 906.65 96.7 906.65 80.25 906.65 63.85 895.05 52.25 883.45 40.65 867.05 40.65 850.65 40.65 839.05 52.25 831.45 59.85 828.85 69.55 L817.6 66.15 Q820.9 54.1 830.15 44.55 L830.75 43.95 Q845.8 28.95 867.05 28.95 888.3 28.95 903.35 43.95 L903.95 44.55 M606.1 92.6 Q604.7 86.7 604.7 80.25 604.7 59.4 619.1 44.55 L619.7 43.95 Q634.75 28.95 656.0 28.95 677.25 28.95 692.3 43.95 L692.9 44.55 Q705.05 57.1 706.95 73.9 L695.4 75.95 Q694.05 62.3 684.0 52.25 679.15 47.4 673.4 44.55 665.5 40.65 656.0 40.65 646.5 40.65 638.6 44.55 632.85 47.4 627.95 52.25 616.35 63.85 616.35 80.25 616.35 86.8 618.2 92.6 621.0 101.35 627.95 108.3 639.6 119.9 656.0 119.9 672.4 119.9 684.0 108.3 690.95 101.35 693.75 92.6 695.5 87.2 695.6 81.15 L707.3 79.1 707.3 80.25 Q707.3 86.7 705.95 92.6 702.75 106.1 692.3 116.55 677.25 131.55 656.0 131.55 634.75 131.55 619.7 116.55 609.25 106.1 606.1 92.6 M377.25 92.6 Q374.05 106.1 363.6 116.55 348.55 131.55 327.3 131.55 306.05 131.55 291.05 116.55 280.6 106.1 277.4 92.6 276.0 86.7 276.0 80.25 L276.0 79.1 287.7 81.15 Q288.0 96.95 299.3 108.3 310.9 119.9 327.3 119.9 343.75 119.9 355.35 108.3 366.95 96.7 366.95 80.25 366.95 63.85 355.35 52.25 343.7 40.65 327.3 40.65 310.9 40.65 299.3 52.25 289.25 62.3 287.9 75.9 L276.35 73.9 Q278.25 57.1 290.45 44.55 L291.05 43.95 Q306.05 28.95 327.3 28.95 348.55 28.95 363.6 43.95 L364.2 44.55 Q378.6 59.4 378.6 80.25 378.6 86.7 377.25 92.6 M166.2 92.6 Q163.0 106.1 152.55 116.55 137.5 131.55 116.25 131.55 95.0 131.55 80.0 116.55 69.55 106.1 66.35 92.6 64.95 86.7 64.95 80.25 64.95 59.4 79.4 44.55 L80.0 43.95 Q95.0 28.95 116.25 28.95 137.5 28.95 152.55 43.95 L153.15 44.55 Q162.4 54.1 165.7 66.15 L154.5 69.55 Q151.85 59.85 144.25 52.25 132.65 40.65 116.25 40.65 99.85 40.65 88.25 52.25 76.65 63.85 76.65 80.25 76.65 96.7 88.25 108.3 99.85 119.9 116.25 119.9 132.65 119.9 144.25 108.3 155.85 96.7 155.85 80.25 155.85 77.4 155.5 74.65 L166.85 71.25 Q167.55 75.6 167.55 80.25 167.55 86.7 166.2 92.6" fill="#000000" fill-opacity="0.14901961" fill-rule="evenodd" stroke="none"/>
    <path d="M828.85 69.55 Q831.45 59.85 839.05 52.25 850.65 40.65 867.05 40.65 883.45 40.65 895.05 52.25 906.65 63.85 906.65 80.25 906.65 96.7 895.05 108.3 883.45 119.9 867.05 119.9 850.65 119.9 839.05 108.3 827.45 96.65 827.45 80.25 827.45 77.4 827.8 74.65 L848.25 80.8 Q848.65 87.05 853.15 91.55 858.1 96.5 865.1 96.5 872.1 96.5 877.05 91.55 882.0 86.6 882.0 79.6 882.0 72.6 877.05 67.7 872.1 62.75 865.1 62.75 858.1 62.75 853.15 67.7 849.75 71.1 848.7 75.5 L828.85 69.55 M695.4 75.95 L671.55 80.1 671.6 78.75 Q671.6 71.75 666.65 66.8 661.7 61.85 654.7 61.85 647.7 61.85 642.8 66.8 637.85 71.75 637.85 78.75 637.85 85.75 642.8 90.7 L645.05 92.6 Q649.25 95.65 654.7 95.65 660.2 95.65 664.45 92.6 L666.65 90.7 Q669.0 88.35 670.25 85.55 L695.6 81.15 Q695.5 87.2 693.75 92.6 690.95 101.35 684.0 108.3 672.4 119.9 656.0 119.9 639.6 119.9 627.95 108.3 621.0 101.35 618.2 92.6 616.35 86.8 616.35 80.25 616.35 63.85 627.95 52.25 632.85 47.4 638.6 44.55 646.5 40.65 656.0 40.65 665.5 40.65 673.4 44.55 679.15 47.4 684.0 52.25 694.05 62.3 695.4 75.95 M311.75 80.05 L287.9 75.9 Q289.25 62.3 299.3 52.25 310.9 40.65 327.3 40.65 343.7 40.65 355.35 52.25 366.95 63.85 366.95 80.25 366.95 96.7 355.35 108.3 343.75 119.9 327.3 119.9 310.9 119.9 299.3 108.3 288.0 96.95 287.7 81.15 L313.1 85.55 Q314.3 88.35 316.65 90.7 321.6 95.65 328.6 95.65 335.6 95.65 340.55 90.7 345.5 85.75 345.5 78.75 345.5 71.75 340.55 66.8 335.6 61.85 328.6 61.85 321.6 61.85 316.65 66.8 311.7 71.75 311.7 78.75 L311.75 80.05 M155.5 74.65 Q155.85 77.4 155.85 80.25 155.85 96.7 144.25 108.3 132.65 119.9 116.25 119.9 99.85 119.9 88.25 108.3 76.65 96.7 76.65 80.25 76.65 63.85 88.25 52.25 99.85 40.65 116.25 40.65 132.65 40.65 144.25 52.25 151.85 59.85 154.5 69.55 L134.65 75.5 Q133.55 71.1 130.15 67.7 125.2 62.75 118.2 62.75 111.2 62.75 106.25 67.7 101.3 72.65 101.3 79.6 101.3 86.6 106.25 91.55 111.2 96.5 118.2 96.5 125.2 96.5 130.15 91.55 134.65 87.05 135.1 80.8 L155.5 74.65" fill="#000000" fill-opacity="0.34901962" fill-rule="evenodd" stroke="none"/>
    <path d="M903.95 44.55 L939.15 44.55 939.15 25.05 583.25 25.05 583.25 44.55 619.1 44.55 Q604.7 59.4 604.7 80.25 604.7 86.7 606.1 92.6 L565.1 92.6 Q562.2 89.35 559.25 84.95 553.4 76.2 553.4 70.55 553.4 64.85 563.15 54.8 568.0 49.75 572.85 45.85 L558.6 36.75 558.6 0.0 720.95 1.7 983.3 0.4 967.7 51.05 950.8 47.15 919.65 52.35 937.85 57.55 937.85 78.3 946.95 80.9 946.95 92.6 916.95 92.6 Q918.35 86.7 918.35 80.25 918.35 59.4 903.95 44.55 M692.9 44.55 L737.8 44.55 737.8 68.55 706.95 73.9 Q705.05 57.1 692.9 44.55 M766.4 44.55 L830.15 44.55 Q820.9 54.1 817.6 66.15 L766.4 50.8 766.4 44.55 M816.5 71.25 Q815.75 75.6 815.75 80.25 815.75 86.7 817.15 92.6 L796.25 92.6 796.25 90.0 785.9 90.0 785.9 71.8 766.4 71.8 766.4 56.25 816.5 71.25 M735.25 90.0 L731.3 90.0 731.3 92.6 705.95 92.6 Q707.3 86.7 707.3 80.25 L707.3 79.1 735.25 74.2 735.25 90.0 M66.35 92.6 L36.4 92.6 36.4 80.9 45.45 78.3 45.45 57.55 63.65 52.35 32.5 47.15 15.6 51.05 0.0 0.4 262.4 1.7 424.75 0.0 424.75 36.75 410.45 45.85 420.2 54.8 Q429.9 64.85 429.9 70.55 429.9 76.2 424.1 84.95 L418.25 92.6 377.25 92.6 Q378.6 86.7 378.6 80.25 378.6 59.4 364.2 44.55 L400.05 44.55 400.05 25.05 44.15 25.05 44.15 44.55 79.4 44.55 Q64.95 59.4 64.95 80.25 64.95 86.7 66.35 92.6 M277.4 92.6 L252.0 92.6 252.0 90.0 248.1 90.0 248.1 74.2 276.0 79.1 276.0 80.25 Q276.0 86.7 277.4 92.6 M187.05 92.6 L166.2 92.6 Q167.55 86.7 167.55 80.25 167.55 75.6 166.85 71.25 L216.9 56.25 216.9 71.8 197.45 71.8 197.45 90.0 187.05 90.0 187.05 92.6 M276.35 73.9 L245.5 68.5 245.5 44.55 290.45 44.55 Q278.25 57.1 276.35 73.9 M165.7 66.15 Q162.4 54.1 153.15 44.55 L216.9 44.55 216.9 50.8 165.7 66.15" fill="#000000" fill-opacity="0.4" fill-rule="evenodd" stroke="none"/>
    <path d="M619.1 44.55 L583.25 44.55 583.25 25.05 939.15 25.05 939.15 44.55 903.95 44.55 M916.95 92.6 L946.95 92.6 946.95 80.9 937.85 78.3 937.85 57.55 919.65 52.35 950.8 47.15 967.7 51.05 983.3 0.4 720.95 1.7 558.6 0.0 558.6 36.75 572.85 45.85 Q568.0 49.75 563.15 54.8 553.4 64.85 553.4 70.55 553.4 76.2 559.25 84.95 562.2 89.35 565.1 92.6 L606.1 92.6 M692.9 44.55 L737.8 44.55 M766.4 44.55 L830.15 44.55 M828.85 69.55 Q831.45 59.85 839.05 52.25 850.65 40.65 867.05 40.65 883.45 40.65 895.05 52.25 906.65 63.85 906.65 80.25 906.65 96.7 895.05 108.3 883.45 119.9 867.05 119.9 850.65 119.9 839.05 108.3 827.45 96.65 827.45 80.25 827.45 77.4 827.8 74.65 M766.4 56.25 L766.4 50.8 M785.9 90.0 L735.25 90.0 M705.95 92.6 L731.3 92.6 M737.8 68.55 L737.8 71.8 735.25 71.8 735.25 74.2 M695.4 75.95 Q694.05 62.3 684.0 52.25 679.15 47.4 673.4 44.55 665.5 40.65 656.0 40.65 646.5 40.65 638.6 44.55 632.85 47.4 627.95 52.25 616.35 63.85 616.35 80.25 616.35 86.8 618.2 92.6 621.0 101.35 627.95 108.3 639.6 119.9 656.0 119.9 672.4 119.9 684.0 108.3 690.95 101.35 693.75 92.6 695.5 87.2 695.6 81.15 M796.25 92.6 L817.15 92.6 M66.35 92.6 L36.4 92.6 36.4 80.9 45.45 78.3 45.45 57.55 63.65 52.35 32.5 47.15 15.6 51.05 0.0 0.4 262.4 1.7 424.75 0.0 424.75 36.75 410.45 45.85 420.2 54.8 Q429.9 64.85 429.9 70.55 429.9 76.2 424.1 84.95 L418.25 92.6 377.25 92.6 M277.4 92.6 L252.0 92.6 M187.05 92.6 L166.2 92.6 M79.4 44.55 L44.15 44.55 44.15 25.05 400.05 25.05 400.05 44.55 364.2 44.55 M287.7 81.15 Q288.0 96.95 299.3 108.3 310.9 119.9 327.3 119.9 343.75 119.9 355.35 108.3 366.95 96.7 366.95 80.25 366.95 63.85 355.35 52.25 343.7 40.65 327.3 40.65 310.9 40.65 299.3 52.25 289.25 62.3 287.9 75.9 M245.5 68.5 L245.5 71.8 248.1 71.8 248.1 74.2 M245.5 44.55 L290.45 44.55 M155.5 74.65 Q155.85 77.4 155.85 80.25 155.85 96.7 144.25 108.3 132.65 119.9 116.25 119.9 99.85 119.9 88.25 108.3 76.65 96.7 76.65 80.25 76.65 63.85 88.25 52.25 99.85 40.65 116.25 40.65 132.65 40.65 144.25 52.25 151.85 59.85 154.5 69.55 M216.9 56.25 L216.9 50.8 M216.9 44.55 L153.15 44.55 M197.45 90.0 L248.1 90.0" fill="none" stroke="#000000" stroke-linecap="round" stroke-linejoin="miter-clip" stroke-miterlimit="4.0" stroke-opacity="0.6" stroke-width="1.0"/>
    <path d="M903.95 44.55 Q918.35 59.4 918.35 80.25 918.35 86.7 916.95 92.6 913.8 106.1 903.35 116.55 888.3 131.55 867.05 131.55 845.8 131.55 830.75 116.55 820.3 106.1 817.15 92.6 815.75 86.7 815.75 80.25 815.75 75.6 816.5 71.25 L827.8 74.65 848.25 80.8 Q848.65 87.05 853.15 91.55 858.1 96.5 865.1 96.5 872.1 96.5 877.05 91.55 882.0 86.6 882.0 79.6 882.0 72.6 877.05 67.7 872.1 62.75 865.1 62.75 858.1 62.75 853.15 67.7 849.75 71.1 848.7 75.5 848.2 77.45 848.2 79.6 L848.25 80.8 M606.1 92.6 Q604.7 86.7 604.7 80.25 604.7 59.4 619.1 44.55 L619.7 43.95 Q634.75 28.95 656.0 28.95 677.25 28.95 692.3 43.95 L692.9 44.55 Q705.05 57.1 706.95 73.9 L695.4 75.95 671.55 80.1 Q671.35 83.0 670.25 85.55 L695.6 81.15 707.3 79.1 707.3 80.25 Q707.3 86.7 705.95 92.6 702.75 106.1 692.3 116.55 677.25 131.55 656.0 131.55 634.75 131.55 619.7 116.55 609.25 106.1 606.1 92.6 M737.8 44.55 L737.8 34.15 766.4 34.15 766.4 44.55 766.4 50.8 817.6 66.15 828.85 69.55 848.7 75.5 M830.15 44.55 L830.75 43.95 Q845.8 28.95 867.05 28.95 888.3 28.95 903.35 43.95 L903.95 44.55 M817.6 66.15 Q820.9 54.1 830.15 44.55 M785.9 90.0 L785.9 71.8 766.4 71.8 766.4 56.25 816.5 71.25 M735.25 90.0 L731.3 90.0 731.3 92.6 731.3 99.1 796.25 99.1 796.25 92.6 796.25 90.0 785.9 90.0 M735.25 90.0 L735.25 74.2 707.3 79.1 M737.8 44.55 L737.8 68.55 706.95 73.9 M670.25 85.55 Q669.0 88.35 666.65 90.7 L664.45 92.6 Q660.2 95.65 654.7 95.65 649.25 95.65 645.05 92.6 L642.8 90.7 Q637.85 85.75 637.85 78.75 637.85 71.75 642.8 66.8 647.7 61.85 654.7 61.85 661.7 61.85 666.65 66.8 671.6 71.75 671.6 78.75 L671.55 80.1 M377.25 92.6 Q374.05 106.1 363.6 116.55 348.55 131.55 327.3 131.55 306.05 131.55 291.05 116.55 280.6 106.1 277.4 92.6 276.0 86.7 276.0 80.25 L276.0 79.1 287.7 81.15 313.1 85.55 Q311.95 83.0 311.75 80.05 L311.7 78.75 Q311.7 71.75 316.65 66.8 321.6 61.85 328.6 61.85 335.6 61.85 340.55 66.8 345.5 71.75 345.5 78.75 345.5 85.75 340.55 90.7 335.6 95.65 328.6 95.65 321.6 95.65 316.65 90.7 314.3 88.35 313.1 85.55 M252.0 92.6 L252.0 99.1 187.05 99.1 187.05 92.6 187.05 90.0 197.45 90.0 197.45 71.8 216.9 71.8 216.9 56.25 166.85 71.25 155.5 74.65 135.1 80.8 Q134.65 87.05 130.15 91.55 125.2 96.5 118.2 96.5 111.2 96.5 106.25 91.55 101.3 86.6 101.3 79.6 101.3 72.65 106.25 67.7 111.2 62.75 118.2 62.75 125.2 62.75 130.15 67.7 133.55 71.1 134.65 75.5 L154.5 69.55 165.7 66.15 Q162.4 54.1 153.15 44.55 L152.55 43.95 Q137.5 28.95 116.25 28.95 95.0 28.95 80.0 43.95 L79.4 44.55 Q64.95 59.4 64.95 80.25 64.95 86.7 66.35 92.6 69.55 106.1 80.0 116.55 95.0 131.55 116.25 131.55 137.5 131.55 152.55 116.55 163.0 106.1 166.2 92.6 167.55 86.7 167.55 80.25 167.55 75.6 166.85 71.25 M364.2 44.55 Q378.6 59.4 378.6 80.25 378.6 86.7 377.25 92.6 M290.45 44.55 L291.05 43.95 Q306.05 28.95 327.3 28.95 348.55 28.95 363.6 43.95 L364.2 44.55 M287.9 75.9 L311.75 80.05 M287.9 75.9 L276.35 73.9 245.5 68.5 245.5 44.55 245.5 34.15 216.9 34.15 216.9 44.55 216.9 50.8 165.7 66.15 M248.1 74.2 L276.0 79.1 M290.45 44.55 Q278.25 57.1 276.35 73.9 M248.1 74.2 L248.1 90.0 252.0 90.0 252.0 92.6 M134.65 75.5 Q135.1 77.45 135.1 79.6 L135.1 80.8" fill="none" stroke="#000000" stroke-linecap="round" stroke-linejoin="miter-clip" stroke-miterlimit="4.0" stroke-width="1.0"/>
  </g>
</svg>
