<?xml version="1.0" encoding="UTF-8" standalone="no"?>
<svg xmlns:xlink="http://www.w3.org/1999/xlink" height="313.05px" width="739.05px" xmlns="http://www.w3.org/2000/svg">
  <g transform="matrix(1.0, 0.0, 0.0, 1.0, 372.8, 194.65)">
    <path d="M-308.15 32.2 Q-307.55 24.65 -305.75 16.8 -297.9 -17.45 -271.3 -26.3 L-259.0 -30.3 Q-244.2 -35.3 -231.55 -40.9 -191.4 -58.65 -188.7 -74.65 L-188.7 -194.15 73.0 -194.15 Q101.4 -161.45 97.2 -162.85 L82.7 -163.3 71.5 -162.85 71.5 -88.9 71.15 -86.8 Q71.5 -84.35 74.4 -82.15 83.65 -75.0 115.65 -73.25 L260.7 -64.75 263.15 -64.15 Q266.2 -63.0 268.75 -59.35 276.9 -48.05 277.75 -17.8 L277.75 -0.55 277.75 -17.8 294.1 -29.8 298.3 -21.75 Q301.45 -12.9 300.35 -2.9 330.3 -2.4 350.75 13.75 359.15 20.4 363.25 27.75 366.95 34.55 365.2 37.7 361.25 32.55 353.65 26.45 344.35 19.05 334.1 14.45 342.85 18.8 351.3 25.3 347.35 22.4 342.9 20.05 317.45 6.25 301.9 25.65 299.1 29.15 202.4 101.0 165.0 105.55 149.25 105.4 L146.7 105.75 -136.85 106.0 Q-138.95 89.2 -146.65 70.6 -166.5 22.25 -213.7 7.1 -264.05 -9.05 -300.35 24.25 -304.45 28.05 -308.15 32.2 -304.45 28.05 -300.35 24.25 -264.05 -9.05 -213.7 7.1 -166.5 22.25 -146.65 70.6 -138.95 89.2 -136.85 106.0 -136.25 111.05 -136.15 115.95 L-145.4 115.95 Q-147.75 102.3 -151.55 90.35 -162.95 54.85 -187.55 34.3 -197.95 25.75 -209.25 21.0 L-218.6 17.85 Q-243.75 12.3 -261.35 17.3 -264.9 18.15 -268.25 19.35 L-271.25 20.3 Q-273.65 21.2 -276.55 22.8 L-277.9 23.55 -284.45 27.4 Q-286.55 28.75 -292.2 33.2 L-294.9 35.65 -297.35 38.2 -302.6 43.8 -305.15 46.9 Q-309.3 52.3 -312.85 58.35 -316.7 64.8 -319.8 72.05 L-321.2 75.35 -321.55 76.3 -321.6 76.35 Q-323.25 80.65 -324.35 84.25 L-324.5 84.7 -326.05 90.35 -337.4 90.35 -337.15 89.25 -348.35 89.9 Q-369.15 92.2 -372.3 102.4 L-372.3 73.3 -363.05 68.05 Q-352.7 63.25 -347.3 65.5 L-347.3 74.7 -333.05 75.05 Q-324.65 50.45 -308.15 32.2 M201.45 58.1 L199.6 60.45 Q184.45 80.45 163.85 94.9 L146.25 105.3 149.25 105.4 146.25 105.3 163.85 94.9 Q184.45 80.45 199.6 60.45 L201.45 58.1 206.85 50.9 Q210.9 45.9 215.15 41.3 210.9 45.9 206.85 50.9 L201.45 58.1 Q208.4 49.4 217.3 41.3 221.55 37.45 226.25 33.7 L233.0 28.6 Q249.15 17.1 266.2 11.3 302.4 -1.2 334.1 14.45 302.4 -1.2 266.2 11.3 249.15 17.1 233.0 28.6 L226.25 33.7 Q221.55 37.45 217.3 41.3 208.4 49.4 201.45 58.1 M233.0 24.2 L233.0 -23.4 144.15 -24.9 144.15 41.3 215.15 41.3 144.15 41.3 144.15 -24.9 233.0 -23.4 233.0 24.2 Q255.6 5.1 277.75 -0.55 255.6 5.1 233.0 24.2 L226.8 29.65 Q220.8 35.15 215.15 41.3 220.8 35.15 226.8 29.65 L233.0 24.2 M-81.4 -184.2 L64.5 -184.2 70.8 -179.2 70.8 -162.85 70.8 -179.2 64.5 -184.2 -81.4 -184.2 -81.4 51.95 62.95 51.95 62.95 -182.0 62.95 51.95 -81.4 51.95 -81.4 -184.2 -175.3 -184.2 -175.3 -74.65 Q-177.4 -67.65 -183.9 -59.35 -196.9 -42.65 -218.6 -35.55 -223.4 -33.9 -245.6 -28.3 -262.3 -24.1 -271.85 -19.55 -300.25 -6.0 -307.5 28.45 -300.25 -6.0 -271.85 -19.55 -262.3 -24.1 -245.6 -28.3 -223.4 -33.9 -218.6 -35.55 -196.9 -42.65 -183.9 -59.35 -177.4 -67.65 -175.3 -74.65 L-175.3 -184.2 -81.4 -184.2 M262.9 3.6 Q264.3 -14.15 262.9 -35.55 261.95 -48.85 256.6 -58.2 L251.45 -64.75 256.6 -58.2 Q261.95 -48.85 262.9 -35.55 264.3 -14.15 262.9 3.6 M134.1 62.55 L134.1 -48.4 Q134.1 -57.6 131.65 -65.3 L129.2 -71.05 131.65 -65.3 Q134.1 -57.6 134.1 -48.4 L134.1 62.55 M300.35 -2.9 L293.4 -2.85 Q285.6 -2.55 277.75 -0.55 285.6 -2.55 293.4 -2.85 L300.35 -2.9 M-353.05 82.55 L-353.05 74.0 Q-355.35 73.65 -358.3 73.9 -364.1 74.25 -367.25 76.8 L-367.25 86.05 -362.85 84.5 Q-357.45 83.0 -353.05 82.55 M-337.15 89.25 Q-335.45 81.9 -333.05 75.05 -335.45 81.9 -337.15 89.25 M-136.85 66.9 L182.45 66.9 -136.85 66.9" fill="#ffffff" fill-opacity="0.0" fill-rule="evenodd" stroke="none"/>
    <path d="M-151.55 90.35 L-160.7 90.35 Q-167.0 65.7 -185.65 49.95 -204.7 33.95 -228.75 33.95 -252.95 33.95 -272.0 49.95 -290.65 65.7 -296.95 90.35 L-326.05 90.35 -324.5 84.7 -324.35 84.25 Q-323.25 80.65 -321.6 76.35 L-321.55 76.3 -321.2 75.35 -319.8 72.05 Q-316.7 64.8 -312.85 58.35 -309.3 52.3 -305.15 46.9 L-302.6 43.8 -297.35 38.2 -294.9 35.65 -292.2 33.2 Q-286.55 28.75 -284.45 27.4 L-277.9 23.55 -276.55 22.8 Q-273.65 21.2 -271.25 20.3 L-268.25 19.35 Q-264.9 18.15 -261.35 17.3 -243.75 12.3 -218.6 17.85 L-209.25 21.0 Q-197.95 25.75 -187.55 34.3 -162.95 54.85 -151.55 90.35" fill="#000000" fill-opacity="0.49803922" fill-rule="evenodd" stroke="none"/>
    <path d="M129.2 -71.05 L131.65 -65.3 Q134.1 -57.6 134.1 -48.4 L134.1 62.55 M251.45 -64.75 L256.6 -58.2 Q261.95 -48.85 262.9 -35.55 264.3 -14.15 262.9 3.6 M-353.05 82.55 Q-357.45 83.0 -362.85 84.5 L-367.25 86.05 -367.25 76.8 Q-364.1 74.25 -358.3 73.9 -355.35 73.65 -353.05 74.0 L-353.05 82.55 M182.45 66.9 L-136.85 66.9" fill="none" stroke="#000000" stroke-linecap="butt" stroke-linejoin="miter-clip" stroke-miterlimit="10.0" stroke-opacity="0.6" stroke-width="1.0"/>
    <path d="M277.75 -17.8 Q276.9 -48.05 268.75 -59.35 266.2 -63.0 263.15 -64.15 L260.7 -64.75 115.65 -73.25 Q83.65 -75.0 74.4 -82.15 71.5 -84.35 71.15 -86.8 L71.5 -88.9 71.5 -162.85 82.7 -163.3 97.2 -162.85 Q101.4 -161.45 73.0 -194.15 L-188.7 -194.15 -188.7 -74.65 Q-191.4 -58.65 -231.55 -40.9 -244.2 -35.3 -259.0 -30.3 L-271.3 -26.3 Q-297.9 -17.45 -305.75 16.8 -307.55 24.65 -308.15 32.2 -304.45 28.05 -300.35 24.25 -264.05 -9.05 -213.7 7.1 -166.5 22.25 -146.65 70.6 -138.95 89.2 -136.85 106.0 L146.7 105.75 149.25 105.4 146.25 105.3 163.85 94.9 Q184.45 80.45 199.6 60.45 L201.45 58.1 206.85 50.9 Q210.9 45.9 215.15 41.3 220.8 35.15 226.8 29.65 L233.0 24.2 Q255.6 5.1 277.75 -0.55 L277.75 -17.8 294.1 -29.8 298.3 -21.75 Q301.45 -12.9 300.35 -2.9 330.3 -2.4 350.75 13.75 359.15 20.4 363.25 27.75 366.95 34.55 365.2 37.7 358.45 30.7 351.3 25.3 347.35 22.4 342.9 20.05 317.45 6.25 301.9 25.65 299.1 29.15 202.4 101.0 165.0 105.55 149.25 105.4 M277.75 -0.55 Q285.6 -2.55 293.4 -2.85 L300.35 -2.9 M365.2 37.7 Q361.25 32.55 353.65 26.45 344.35 19.05 334.1 14.45 342.85 18.8 351.3 25.3 M201.45 58.1 Q208.4 49.4 217.3 41.3 221.55 37.45 226.25 33.7 L233.0 28.6 Q249.15 17.1 266.2 11.3 302.4 -1.2 334.1 14.45 M-326.05 90.35 L-296.95 90.35 Q-290.65 65.7 -272.0 49.95 -252.95 33.95 -228.75 33.95 -204.7 33.95 -185.65 49.95 -167.0 65.7 -160.7 90.35 L-151.55 90.35 Q-162.95 54.85 -187.55 34.3 -197.95 25.75 -209.25 21.0 L-218.6 17.85 Q-243.75 12.3 -261.35 17.3 -264.9 18.15 -268.25 19.35 L-271.25 20.3 Q-273.65 21.2 -276.55 22.8 L-277.9 23.55 -284.45 27.4 Q-286.55 28.75 -292.2 33.2 L-294.9 35.65 -297.35 38.2 -302.6 43.8 -305.15 46.9 Q-309.3 52.3 -312.85 58.35 -316.7 64.8 -319.8 72.05 L-321.2 75.35 -321.55 76.3 -321.6 76.35 Q-323.25 80.65 -324.35 84.25 L-324.5 84.7 -326.05 90.35 -337.4 90.35 -337.15 89.25 -348.35 89.9 Q-369.15 92.2 -372.3 102.4 L-372.3 73.3 -363.05 68.05 Q-352.7 63.25 -347.3 65.5 L-347.3 74.7 -333.05 75.05 Q-324.65 50.45 -308.15 32.2 M-151.55 90.35 Q-147.75 102.3 -145.4 115.95 L-136.15 115.95 Q-136.25 111.05 -136.85 106.0 M-333.05 75.05 Q-335.45 81.9 -337.15 89.25" fill="none" stroke="#000000" stroke-linecap="round" stroke-linejoin="miter-clip" stroke-miterlimit="10.0" stroke-width="1.0"/>
    <path d="M215.15 41.3 L144.15 41.3 144.15 -24.9 233.0 -23.4 233.0 24.2" fill="none" stroke="#000000" stroke-linecap="round" stroke-linejoin="miter-clip" stroke-miterlimit="10.0" stroke-opacity="0.6" stroke-width="1.0"/>
    <path d="M70.8 -162.85 L70.8 -179.2 64.5 -184.2 -81.4 -184.2" fill="none" stroke="#000000" stroke-linecap="butt" stroke-linejoin="miter-clip" stroke-miterlimit="10.0" stroke-width="1.0"/>
    <path d="M-81.4 -184.2 L-81.4 51.95 62.95 51.95 62.95 -182.0 M-81.4 -184.2 L-175.3 -184.2 -175.3 -74.65 Q-177.4 -67.65 -183.9 -59.35 -196.9 -42.65 -218.6 -35.55 -223.4 -33.9 -245.6 -28.3 -262.3 -24.1 -271.85 -19.55 -300.25 -6.0 -307.5 28.45" fill="none" stroke="#000000" stroke-linecap="round" stroke-linejoin="miter-clip" stroke-miterlimit="10.0" stroke-width="1.0"/>
    <path d="M-48.0 -44.4 Q-48.0 -42.8 -48.8 -41.75 -49.5 -40.55 -50.65 -40.55 L-69.35 -40.55 Q-70.5 -40.55 -71.35 -41.75 -72.15 -42.8 -72.15 -44.4 -72.15 -46.05 -71.35 -47.2 -70.5 -48.4 -69.35 -48.4 L-50.65 -48.4 Q-49.5 -48.4 -48.8 -47.2 -48.0 -46.05 -48.0 -44.4" fill="#ffffff" fill-opacity="0.4" fill-rule="evenodd" stroke="none"/>
    <path d="M-48.0 -44.4 Q-48.0 -42.8 -48.8 -41.75 -49.5 -40.55 -50.65 -40.55 L-69.35 -40.55 Q-70.5 -40.55 -71.35 -41.75 -72.15 -42.8 -72.15 -44.4 -72.15 -46.05 -71.35 -47.2 -70.5 -48.4 -69.35 -48.4 L-50.65 -48.4 Q-49.5 -48.4 -48.8 -47.2 -48.0 -46.05 -48.0 -44.4 Z" fill="none" stroke="#000000" stroke-linecap="butt" stroke-linejoin="miter-clip" stroke-miterlimit="10.0" stroke-width="1.0"/>
    <path d="M182.45 63.4 L-136.85 63.4 M-84.2 -182.7 L-84.2 51.95" fill="none" stroke="#ffffff" stroke-linecap="butt" stroke-linejoin="miter-clip" stroke-miterlimit="10.0" stroke-width="1.0"/>
  </g>
</svg>
