<?xml version="1.0" encoding="UTF-8" standalone="no"?>
<svg xmlns:xlink="http://www.w3.org/1999/xlink" height="217.15px" width="129.7px" xmlns="http://www.w3.org/2000/svg">
  <g transform="matrix(1.0, 0.0, 0.0, 1.0, 64.85, 110.85)">
    <path d="M64.35 -87.3 L64.35 105.8 -64.35 105.8 -64.35 -87.3 Q-60.9 -93.05 -51.15 -98.8 -31.6 -110.35 0.0 -110.35 31.6 -110.35 51.15 -98.8 60.9 -93.05 64.35 -87.3" fill="#000000" fill-opacity="0.2" fill-rule="evenodd" stroke="none"/>
    <path d="M64.35 -87.3 Q60.9 -93.05 51.15 -98.8 31.6 -110.35 0.0 -110.35 -31.6 -110.35 -51.15 -98.8 -60.9 -93.05 -64.35 -87.3 L-64.35 105.8 64.35 105.8 64.35 -87.3 Z" fill="none" stroke="#000000" stroke-linecap="butt" stroke-linejoin="miter-clip" stroke-miterlimit="4.0" stroke-opacity="0.6" stroke-width="1.0"/>
    <path d="M-35.4 105.8 L-35.4 -55.1 -4.85 -68.0 Q31.35 -78.45 64.35 -68.8 L64.35 105.8 -35.4 105.8" fill="#000000" fill-opacity="0.34901962" fill-rule="evenodd" stroke="none"/>
  </g>
</svg>
