<?xml version="1.0" encoding="UTF-8" standalone="no"?>
<svg xmlns:xlink="http://www.w3.org/1999/xlink" height="468.95px" width="814.7px" xmlns="http://www.w3.org/2000/svg">
  <g transform="matrix(1.0, 0.0, 0.0, 1.0, 407.35, 234.45)">
    <path d="M120.9 -233.95 L406.85 -233.95 406.85 -211.95 120.9 -211.95 120.9 -233.95 M-406.85 -233.95 L-120.9 -233.95 -120.9 -211.95 -406.85 -211.95 -406.85 -233.95 M-32.55 179.85 L-32.55 234.0 -48.0 234.0 -48.0 179.85 -32.55 179.85" fill="#ffffff" fill-opacity="0.0" fill-rule="evenodd" stroke="none"/>
    <path d="M120.9 -233.95 L406.85 -233.95 406.85 -211.95 120.9 -211.95 120.9 -233.95 M-406.85 -233.95 L-120.9 -233.95 -120.9 -211.95 -406.85 -211.95 -406.85 -233.95" fill="none" stroke="#000000" stroke-linecap="round" stroke-linejoin="miter-clip" stroke-miterlimit="4.0" stroke-opacity="0.6" stroke-width="1.0"/>
    <path d="M-32.55 179.85 L-32.55 234.0 -48.0 234.0 -48.0 179.85 -32.55 179.85" fill="none" stroke="#000000" stroke-linecap="round" stroke-linejoin="miter-clip" stroke-miterlimit="4.0" stroke-width="1.0"/>
  </g>
</svg>
