<?xml version="1.0" encoding="UTF-8" standalone="no"?>
<svg xmlns:xlink="http://www.w3.org/1999/xlink" height="730.45px" width="648.45px" xmlns="http://www.w3.org/2000/svg">
  <g transform="matrix(1.0, 0.0, 0.0, 1.0, 324.2, 365.2)">
    <path d="M308.4 -302.25 L308.4 -302.7 308.4 -350.6 239.3 -350.6 239.3 -215.0 239.3 -81.2 308.4 -81.2 308.4 -215.0 308.4 -244.3 309.35 -245.4 309.35 -254.6 308.4 -253.5 308.4 -302.25 M323.75 -364.7 L323.75 -63.35 225.85 -63.35 225.85 -364.7 323.75 -364.7 M19.15 -302.25 L19.15 -302.7 19.15 -350.6 -49.95 -350.6 -49.95 -215.0 -49.95 -81.2 19.15 -81.2 19.15 -215.0 19.15 -244.25 20.15 -245.4 20.15 -254.6 19.15 -253.45 19.15 -302.25 M34.5 -63.35 L-63.4 -63.35 -63.4 -364.7 34.5 -364.7 34.5 -63.35 M308.4 125.85 L308.4 125.4 308.4 77.5 239.3 77.5 239.3 213.15 239.3 346.9 308.4 346.9 308.4 213.15 308.4 183.85 309.35 182.75 309.35 173.55 308.4 174.65 308.4 125.85 M323.75 63.45 L323.75 364.75 225.85 364.75 225.85 63.45 323.75 63.45 M-241.2 -302.25 L-241.2 -302.7 -241.2 -350.6 -310.3 -350.6 -310.3 -215.0 -310.3 -81.2 -241.2 -81.2 -241.2 -215.0 -241.2 -244.3 -240.25 -245.4 -240.25 -254.6 -241.2 -253.5 -241.2 -302.25 M-225.85 -364.7 L-225.85 -63.35 -323.7 -63.35 -323.7 -364.7 -225.85 -364.7 M-241.2 125.85 L-241.2 125.4 -241.2 77.5 -310.3 77.5 -310.3 213.15 -310.3 346.9 -241.2 346.9 -241.2 213.15 -241.2 183.85 -240.25 182.75 -240.25 173.55 -241.2 174.65 -241.2 125.85 M-225.85 63.45 L-225.85 364.75 -323.7 364.75 -323.7 63.45 -225.85 63.45" fill="#ffffff" fill-opacity="0.0" fill-rule="evenodd" stroke="none"/>
    <path d="M308.4 -253.5 L309.35 -254.6 309.35 -245.4 308.4 -244.3 308.4 -253.5 M19.15 -253.45 L20.15 -254.6 20.15 -245.4 19.15 -244.25 19.15 -253.45 M308.4 174.65 L309.35 173.55 309.35 182.75 308.4 183.85 308.4 174.65 M-241.2 -253.5 L-240.25 -254.6 -240.25 -245.4 -241.2 -244.3 -241.2 -253.5 M-241.2 174.65 L-240.25 173.55 -240.25 182.75 -241.2 183.85 -241.2 174.65" fill="#ffffff" fill-rule="evenodd" stroke="none"/>
    <path d="M308.4 -302.25 L308.4 -253.5 308.4 -244.3 308.4 -215.0 308.4 -81.2 239.3 -81.2 239.3 -215.0 239.3 -350.6 308.4 -350.6 308.4 -302.7 M323.75 -364.7 L323.75 -63.35 225.85 -63.35 225.85 -364.7 323.75 -364.7 M239.3 -215.0 L308.4 -215.0 M19.15 -302.25 L19.15 -253.45 19.15 -244.25 19.15 -215.0 19.15 -81.2 -49.95 -81.2 -49.95 -215.0 -49.95 -350.6 19.15 -350.6 19.15 -302.7 M34.5 -63.35 L-63.4 -63.35 -63.4 -364.7 34.5 -364.7 34.5 -63.35 M308.4 125.85 L308.4 174.65 308.4 183.85 308.4 213.15 308.4 346.9 239.3 346.9 239.3 213.15 239.3 77.5 308.4 77.5 308.4 125.4 M323.75 63.45 L323.75 364.75 225.85 364.75 225.85 63.45 323.75 63.45 M239.3 213.15 L308.4 213.15 M-241.2 -302.25 L-241.2 -253.5 -241.2 -244.3 -241.2 -215.0 -241.2 -81.2 -310.3 -81.2 -310.3 -215.0 -310.3 -350.6 -241.2 -350.6 -241.2 -302.7 M-310.3 -215.0 L-241.2 -215.0 M-225.85 -364.7 L-225.85 -63.35 -323.7 -63.35 -323.7 -364.7 -225.85 -364.7 M-241.2 125.85 L-241.2 174.65 -241.2 183.85 -241.2 213.15 -241.2 346.9 -310.3 346.9 -310.3 213.15 -310.3 77.5 -241.2 77.5 -241.2 125.4 M-225.85 63.45 L-225.85 364.75 -323.7 364.75 -323.7 63.45 -225.85 63.45 M-310.3 213.15 L-241.2 213.15 M-49.95 -215.0 L19.15 -215.0" fill="none" stroke="#000000" stroke-linecap="round" stroke-linejoin="miter-clip" stroke-miterlimit="4.0" stroke-opacity="0.6" stroke-width="1.0"/>
  </g>
</svg>
