<?xml version="1.0" encoding="UTF-8" standalone="no"?>
<svg xmlns:xlink="http://www.w3.org/1999/xlink" height="385.4px" width="213.4px" xmlns="http://www.w3.org/2000/svg">
  <g transform="matrix(1.0, 0.0, 0.0, 1.0, 106.7, 192.7)">
    <path d="M3.1 174.55 L3.1 -173.8 101.25 -173.8 101.25 174.55 3.1 174.55 M99.1 -167.0 L4.05 -167.0 4.05 166.95 99.1 166.95 99.1 -167.0 M-99.05 -167.0 L-99.05 166.95 -4.0 166.95 -4.0 -167.0 -99.05 -167.0 M-101.25 -173.8 L-0.35 -173.8 -0.35 174.55 -101.25 174.55 -101.25 -173.8" fill="#ffffff" fill-opacity="0.0" fill-rule="evenodd" stroke="none"/>
    <path d="M3.1 -192.2 L3.1 -173.8 3.1 -192.2 106.2 -192.2 106.2 192.2 3.1 192.2 -106.2 192.2 -106.2 -192.2 3.1 -192.2 M3.1 174.55 L3.1 192.2 3.1 174.55 101.25 174.55 101.25 -173.8 3.1 -173.8 3.1 174.55 M88.1 -148.35 L88.1 -5.15 17.95 -5.15 17.95 -148.35 88.1 -148.35 M88.0 150.25 L17.85 150.25 17.85 7.05 88.0 7.05 88.0 150.25 M-101.25 -173.8 L-101.25 174.55 -0.35 174.55 -0.35 -173.8 -101.25 -173.8 M-17.95 150.25 L-88.1 150.25 -88.1 7.05 -17.95 7.05 -17.95 150.25 M-88.1 -148.35 L-17.95 -148.35 -17.95 -5.15 -88.1 -5.15 -88.1 -148.35" fill="#000000" fill-opacity="0.14901961" fill-rule="evenodd" stroke="none"/>
    <path d="M99.1 -167.0 L99.1 166.95 4.05 166.95 4.05 -167.0 99.1 -167.0 M88.1 -148.35 L17.95 -148.35 17.95 -5.15 88.1 -5.15 88.1 -148.35 M88.0 150.25 L88.0 7.05 17.85 7.05 17.85 150.25 88.0 150.25 M-99.05 -167.0 L-4.0 -167.0 -4.0 166.95 -99.05 166.95 -99.05 -167.0 M-88.1 -148.35 L-88.1 -5.15 -17.95 -5.15 -17.95 -148.35 -88.1 -148.35 M-17.95 150.25 L-17.95 7.05 -88.1 7.05 -88.1 150.25 -17.95 150.25" fill="#000000" fill-opacity="0.29803923" fill-rule="evenodd" stroke="none"/>
    <path d="M99.1 -167.0 L99.1 166.95 4.05 166.95 4.05 -167.0 99.1 -167.0 M-99.05 -167.0 L-99.05 166.95 -4.0 166.95 -4.0 -167.0 -99.05 -167.0" fill="none" stroke="#000000" stroke-linecap="round" stroke-linejoin="miter-clip" stroke-miterlimit="4.0" stroke-opacity="0.4" stroke-width="1.0"/>
    <path d="M3.1 -173.8 L3.1 -192.2 -106.2 -192.2 -106.2 192.2 3.1 192.2 3.1 174.55 3.1 -173.8 M3.1 -192.2 L106.2 -192.2 106.2 192.2 3.1 192.2 M88.1 -148.35 L17.95 -148.35 17.95 -5.15 88.1 -5.15 88.1 -148.35 M88.0 150.25 L17.85 150.25 17.85 7.05 88.0 7.05 88.0 150.25 M-88.1 -148.35 L-88.1 -5.15 -17.95 -5.15 -17.95 -148.35 -88.1 -148.35 M-17.95 150.25 L-17.95 7.05 -88.1 7.05 -88.1 150.25 -17.95 150.25" fill="none" stroke="#000000" stroke-linecap="round" stroke-linejoin="miter-clip" stroke-miterlimit="4.0" stroke-opacity="0.6" stroke-width="1.0"/>
  </g>
</svg>
