<?xml version="1.0" encoding="UTF-8" standalone="no"?>
<svg xmlns:xlink="http://www.w3.org/1999/xlink" height="482.85px" width="2856.75px" xmlns="http://www.w3.org/2000/svg">
  <g transform="matrix(1.0, 0.0, 0.0, 1.0, 1428.35, 241.4)">
    <path d="M1381.6 -23.85 L1381.6 16.3 1303.0 16.3 1303.0 -23.85 1381.6 -23.85 M257.25 -151.9 L178.65 -151.9 178.65 -192.05 257.25 -192.05 257.25 -151.9 M480.1 -42.95 L558.7 -42.95 558.7 -2.8 480.1 -2.8 480.1 -42.95 M-395.8 -102.15 L-317.2 -102.15 -317.2 -62.05 -395.8 -62.05 -395.8 -102.15 M-1378.0 -66.9 L-1378.0 -107.05 -1299.5 -107.05 -1299.5 -66.9 -1378.0 -66.9" fill="#000000" fill-opacity="0.24705882" fill-rule="evenodd" stroke="none"/>
    <path d="M1386.75 164.8 L1386.75 204.9 1308.15 204.9 1308.15 164.8 1386.75 164.8 M1189.3 -62.05 L1189.3 -102.15 1267.9 -102.15 1267.9 -62.05 1189.3 -62.05 M432.25 -102.15 L432.25 -62.05 353.65 -62.05 353.65 -102.15 432.25 -102.15 M-512.75 -102.15 L-434.15 -102.15 -434.15 -62.05 -512.75 -62.05 -512.75 -102.15 M-1178.75 -170.15 L-1100.15 -170.15 -1100.15 -130.0 -1178.75 -130.0 -1178.75 -170.15 M-1247.7 -15.25 L-1326.3 -15.25 -1326.3 -55.35 -1247.7 -55.35 -1247.7 -15.25" fill="#ffffff" fill-opacity="0.2" fill-rule="evenodd" stroke="none"/>
    <path d="M-1234.75 240.95 Q-1230.3 141.7 -1181.15 66.05 -1102.2 -55.75 -926.65 -71.25 L-913.2 -71.0 Q-895.9 -70.35 -877.15 -67.7 L-872.7 -67.05 Q-1028.95 -42.25 -1098.4 59.15 -1142.6 123.7 -1146.7 209.95 L-1234.75 240.95 M-333.5 240.95 Q-326.8 141.05 -276.05 67.35 -196.55 -48.6 -25.75 -63.7 L-12.4 -63.45 Q4.5 -62.8 22.95 -60.25 L28.1 -59.5 Q-123.9 -35.35 -193.6 60.35 -239.55 123.4 -245.4 209.95 L-333.5 240.95 M543.8 240.95 Q548.4 141.6 597.55 66.05 676.5 -55.75 852.05 -71.25 L865.5 -71.0 Q882.85 -70.35 901.55 -67.7 L905.95 -67.05 Q749.7 -42.25 680.3 59.15 636.05 123.75 632.05 209.95 L543.8 240.95 M1086.85 -164.35 L1165.3 -164.35 1165.3 -124.25 1086.85 -124.25 1086.85 -164.35 M453.3 -164.35 L531.9 -164.35 531.9 -124.25 453.3 -124.25 453.3 -164.35 M-455.15 -42.95 L-376.55 -42.95 -376.55 -2.8 -455.15 -2.8 -455.15 -42.95 M-1219.0 -124.25 L-1297.6 -124.25 -1297.6 -164.35 -1219.0 -164.35 -1219.0 -124.25 M-455.15 108.75 L-376.55 108.75 -376.55 148.9 -455.15 148.9 -455.15 108.75" fill="#000000" fill-opacity="0.4" fill-rule="evenodd" stroke="none"/>
    <path d="M1381.6 -23.85 L1303.0 -23.85 1303.0 16.3 1381.6 16.3 1381.6 -23.85 M1386.75 164.8 L1308.15 164.8 1308.15 204.9 1386.75 204.9 1386.75 164.8 M-1234.75 240.95 L-1427.85 240.95 -1427.85 -240.9 1427.9 -240.9 1427.9 240.95 1203.0 240.95 Q1189.8 130.3 1131.95 56.45 1085.7 -2.8 1013.1 -35.9 963.2 -58.6 905.95 -67.05 L901.55 -67.7 Q882.85 -70.35 865.5 -71.0 L852.05 -71.25 Q676.5 -55.75 597.55 66.05 548.4 141.6 543.8 240.95 L324.15 240.95 Q309.65 133.0 251.6 60.95 205.3 3.25 133.35 -29.1 84.2 -51.15 28.1 -59.5 L22.95 -60.25 Q4.5 -62.8 -12.4 -63.45 L-25.75 -63.7 Q-196.55 -48.6 -276.05 67.35 -326.8 141.05 -333.5 240.95 L-575.7 240.95 Q-588.9 130.3 -646.75 56.45 -693.05 -2.8 -765.6 -35.9 -815.45 -58.55 -872.7 -67.05 L-877.15 -67.7 Q-895.9 -70.35 -913.2 -71.0 L-926.65 -71.25 Q-1102.2 -55.75 -1181.15 66.05 -1230.3 141.7 -1234.75 240.95 M1086.85 -164.35 L1086.85 -124.25 1165.3 -124.25 1165.3 -164.35 1086.85 -164.35 M1189.3 -62.05 L1267.9 -62.05 1267.9 -102.15 1189.3 -102.15 1189.3 -62.05 M257.25 -151.9 L257.25 -192.05 178.65 -192.05 178.65 -151.9 257.25 -151.9 M453.3 -164.35 L453.3 -124.25 531.9 -124.25 531.9 -164.35 453.3 -164.35 M480.1 -42.95 L480.1 -2.8 558.7 -2.8 558.7 -42.95 480.1 -42.95 M-512.75 -102.15 L-512.75 -62.05 -434.15 -62.05 -434.15 -102.15 -512.75 -102.15 M432.25 -102.15 L353.65 -102.15 353.65 -62.05 432.25 -62.05 432.25 -102.15 M-455.15 -42.95 L-455.15 -2.8 -376.55 -2.8 -376.55 -42.95 -455.15 -42.95 M-395.8 -102.15 L-395.8 -62.05 -317.2 -62.05 -317.2 -102.15 -395.8 -102.15 M-1178.75 -170.15 L-1178.75 -130.0 -1100.15 -130.0 -1100.15 -170.15 -1178.75 -170.15 M-1219.0 -124.25 L-1219.0 -164.35 -1297.6 -164.35 -1297.6 -124.25 -1219.0 -124.25 M-1247.7 -15.25 L-1247.7 -55.35 -1326.3 -55.35 -1326.3 -15.25 -1247.7 -15.25 M-455.15 108.75 L-455.15 148.9 -376.55 148.9 -376.55 108.75 -455.15 108.75 M-1378.0 -66.9 L-1299.5 -66.9 -1299.5 -107.05 -1378.0 -107.05 -1378.0 -66.9" fill="#ffffff" fill-opacity="0.0" fill-rule="evenodd" stroke="none"/>
    <path d="M905.95 -67.05 Q963.2 -58.6 1013.1 -35.9 1085.7 -2.8 1131.95 56.45 1189.8 130.3 1203.0 240.95 L1427.9 240.95 1427.9 -240.9 -1427.85 -240.9 -1427.85 240.95 -1234.75 240.95 -1146.7 209.95 Q-1142.6 123.7 -1098.4 59.15 -1028.95 -42.25 -872.7 -67.05 -815.45 -58.55 -765.6 -35.9 -693.05 -2.8 -646.75 56.45 -588.9 130.3 -575.7 240.95 L-333.5 240.95 -245.4 209.95 Q-239.55 123.4 -193.6 60.35 -123.9 -35.35 28.1 -59.5 84.2 -51.15 133.35 -29.1 205.3 3.25 251.6 60.95 309.65 133.0 324.15 240.95 L543.8 240.95 632.05 209.95 Q636.05 123.75 680.3 59.15 749.7 -42.25 905.95 -67.05" fill="none" stroke="#000000" stroke-linecap="round" stroke-linejoin="miter-clip" stroke-miterlimit="4.0" stroke-width="1.0"/>
    <path d="M-1234.75 240.95 Q-1230.3 141.7 -1181.15 66.05 -1102.2 -55.75 -926.65 -71.25 L-913.2 -71.0 Q-895.9 -70.35 -877.15 -67.7 L-872.7 -67.05 M-333.5 240.95 Q-326.8 141.05 -276.05 67.35 -196.55 -48.6 -25.75 -63.7 L-12.4 -63.45 Q4.5 -62.8 22.95 -60.25 L28.1 -59.5 M543.8 240.95 Q548.4 141.6 597.55 66.05 676.5 -55.75 852.05 -71.25 L865.5 -71.0 Q882.85 -70.35 901.55 -67.7 L905.95 -67.05 Z" fill="none" stroke="#000000" stroke-linecap="round" stroke-linejoin="miter-clip" stroke-miterlimit="4.0" stroke-opacity="0.6" stroke-width="1.0"/>
  </g>
</svg>
