<?xml version="1.0" encoding="UTF-8" standalone="no"?>
<svg xmlns:xlink="http://www.w3.org/1999/xlink" height="48.2px" width="48.2px" xmlns="http://www.w3.org/2000/svg">
  <g transform="matrix(1.0, 0.0, 0.0, 1.0, 24.1, 24.1)">
    <path d="M0.7 -16.4 L0.7 -23.0 -1.15 -23.0 -1.15 -16.4 0.7 -16.4 M12.25 -19.4 L10.6 -20.3 7.3 -14.6 8.9 -13.65 12.25 -19.4 M11.75 -5.65 L14.4 -7.55 14.75 -6.95 20.55 -10.1 19.65 -11.75 13.85 -8.55 14.2 -7.95 10.7 -7.45 9.2 -9.2 Q5.4 -13.0 0.0 -13.0 -5.35 -13.0 -9.15 -9.2 -12.95 -5.4 -12.95 0.0 -12.95 5.35 -9.15 9.2 -5.35 13.0 0.0 13.0 5.4 13.0 9.2 9.2 13.0 5.35 13.0 0.0 13.0 -3.1 11.75 -5.65 M16.7 -16.7 Q23.6 -9.8 23.6 0.0 23.6 9.75 16.7 16.7 9.8 23.6 0.0 23.6 -9.75 23.6 -16.65 16.7 -23.6 9.75 -23.6 0.0 -23.6 -9.8 -16.65 -16.7 -9.75 -23.6 0.0 -23.6 9.8 -23.6 16.7 -16.7 M-12.7 19.8 L-11.1 20.75 -7.75 15.05 -9.4 14.1 -12.7 19.8 M-14.35 9.0 L-15.25 7.35 -21.05 10.55 -20.15 12.2 -14.35 9.0 M-16.85 -0.7 L-23.45 -0.7 -23.45 1.15 -16.85 1.15 -16.85 -0.7 M-10.1 -13.15 L-8.55 -14.15 -12.2 -19.7 -13.75 -18.7 -10.1 -13.15 M-20.35 -11.45 L-21.2 -9.8 -15.35 -6.7 -14.5 -8.35 -20.35 -11.45 M0.7 23.4 L0.7 16.8 -1.15 16.8 -1.15 23.4 0.7 23.4 M9.65 13.6 L8.1 14.6 11.7 20.15 13.25 19.1 9.65 13.6 M14.0 8.8 L19.85 11.85 20.7 10.2 14.9 7.15 14.0 8.8 M22.95 -0.7 L16.35 -0.7 16.35 1.15 22.95 1.15 22.95 -0.7" fill="#ffffff" fill-opacity="0.0" fill-rule="evenodd" stroke="none"/>
    <path d="M12.25 -19.4 L8.9 -13.65 7.3 -14.6 10.6 -20.3 12.25 -19.4 M0.7 -16.4 L-1.15 -16.4 -1.15 -23.0 0.7 -23.0 0.7 -16.4 M-9.75 -5.05 Q-10.95 -2.8 -10.95 0.0 -10.95 4.55 -7.75 7.75 -4.55 10.95 0.0 10.95 4.55 10.95 7.75 7.75 10.95 4.55 10.95 0.0 10.95 -2.45 10.05 -4.5 L10.55 -4.8 11.75 -5.65 Q13.0 -3.1 13.0 0.0 13.0 5.35 9.2 9.2 5.4 13.0 0.0 13.0 -5.35 13.0 -9.15 9.2 -12.95 5.35 -12.95 0.0 -12.95 -5.4 -9.15 -9.2 -5.35 -13.0 0.0 -13.0 5.4 -13.0 9.2 -9.2 L10.7 -7.45 8.7 -6.7 7.75 -7.75 Q4.55 -10.95 0.0 -10.95 -4.55 -10.95 -7.75 -7.75 L-8.75 -6.6 -11.0 -6.9 -9.75 -5.05 M14.4 -7.55 L14.2 -7.95 13.85 -8.55 19.65 -11.75 20.55 -10.1 14.75 -6.95 14.4 -7.55 M22.95 -0.7 L22.95 1.15 16.35 1.15 16.35 -0.7 22.95 -0.7 M14.0 8.8 L14.9 7.15 20.7 10.2 19.85 11.85 14.0 8.8 M9.65 13.6 L13.25 19.1 11.7 20.15 8.1 14.6 9.65 13.6 M0.7 23.4 L-1.15 23.4 -1.15 16.8 0.7 16.8 0.7 23.4 M-20.35 -11.45 L-14.5 -8.35 -15.35 -6.7 -21.2 -9.8 -20.35 -11.45 M-10.1 -13.15 L-13.75 -18.7 -12.2 -19.7 -8.55 -14.15 -10.1 -13.15 M-16.85 -0.7 L-16.85 1.15 -23.45 1.15 -23.45 -0.7 -16.85 -0.7 M-14.35 9.0 L-20.15 12.2 -21.05 10.55 -15.25 7.35 -14.35 9.0 M-12.7 19.8 L-9.4 14.1 -7.75 15.05 -11.1 20.75 -12.7 19.8" fill="#ffffff" fill-opacity="0.14901961" fill-rule="evenodd" stroke="none"/>
    <path d="M1.8 -1.25 Q5.85 -2.1 10.05 -4.5 10.95 -2.45 10.95 0.0 10.95 4.55 7.75 7.75 4.55 10.95 0.0 10.95 -4.55 10.95 -7.75 7.75 -10.95 4.55 -10.95 0.0 -10.95 -2.8 -9.75 -5.05 L-8.9 -4.15 Q-6.1 -1.5 -1.95 -0.85 L-2.15 0.0 Q-2.15 0.85 -1.5 1.5 -0.85 2.15 0.0 2.15 0.9 2.15 1.55 1.5 2.15 0.85 2.15 0.0 2.15 -0.7 1.8 -1.25 M8.7 -6.7 Q6.9 -5.95 4.9 -4.7 L1.05 -1.85 0.0 -2.15 Q-0.85 -2.15 -1.5 -1.5 L-1.75 -1.15 -3.75 -3.8 Q-6.0 -5.95 -8.75 -6.6 L-7.75 -7.75 Q-4.55 -10.95 0.0 -10.95 4.55 -10.95 7.75 -7.75 L8.7 -6.7" fill="#000000" fill-opacity="0.14901961" fill-rule="evenodd" stroke="none"/>
    <path d="M10.05 -4.5 Q5.85 -2.1 1.8 -1.25 2.15 -0.7 2.15 0.0 2.15 0.85 1.55 1.5 0.9 2.15 0.0 2.15 -0.85 2.15 -1.5 1.5 -2.15 0.85 -2.15 0.0 L-1.95 -0.85 Q-6.1 -1.5 -8.9 -4.15 L-9.75 -5.05 -11.0 -6.9 -8.75 -6.6 Q-6.0 -5.95 -3.75 -3.8 L-1.75 -1.15 -1.5 -1.5 Q-0.85 -2.15 0.0 -2.15 L1.05 -1.85 4.9 -4.7 Q6.9 -5.95 8.7 -6.7 L10.7 -7.45 14.2 -7.95 14.4 -7.55 11.75 -5.65 10.55 -4.8 10.05 -4.5" fill="#000000" fill-opacity="0.44705883" fill-rule="evenodd" stroke="none"/>
    <path d="M12.25 -19.4 L8.9 -13.65 7.3 -14.6 10.6 -20.3 12.25 -19.4 M0.7 -16.4 L-1.15 -16.4 -1.15 -23.0 0.7 -23.0 0.7 -16.4 M1.8 -1.25 Q2.15 -0.7 2.15 0.0 2.15 0.85 1.55 1.5 0.9 2.15 0.0 2.15 -0.85 2.15 -1.5 1.5 -2.15 0.85 -2.15 0.0 L-1.95 -0.85 M14.2 -7.95 L13.85 -8.55 19.65 -11.75 20.55 -10.1 14.75 -6.95 14.4 -7.55 M22.95 -0.7 L22.95 1.15 16.35 1.15 16.35 -0.7 22.95 -0.7 M14.0 8.8 L14.9 7.15 20.7 10.2 19.85 11.85 14.0 8.8 M9.65 13.6 L13.25 19.1 11.7 20.15 8.1 14.6 9.65 13.6 M0.7 23.4 L-1.15 23.4 -1.15 16.8 0.7 16.8 0.7 23.4 M-20.35 -11.45 L-14.5 -8.35 -15.35 -6.7 -21.2 -9.8 -20.35 -11.45 M-10.1 -13.15 L-13.75 -18.7 -12.2 -19.7 -8.55 -14.15 -10.1 -13.15 M-16.85 -0.7 L-16.85 1.15 -23.45 1.15 -23.45 -0.7 -16.85 -0.7 M-14.35 9.0 L-20.15 12.2 -21.05 10.55 -15.25 7.35 -14.35 9.0 M-12.7 19.8 L-9.4 14.1 -7.75 15.05 -11.1 20.75 -12.7 19.8" fill="none" stroke="#000000" stroke-linecap="round" stroke-linejoin="miter-clip" stroke-miterlimit="4.0" stroke-opacity="0.4" stroke-width="1.0"/>
    <path d="M10.05 -4.5 Q5.85 -2.1 1.8 -1.25 M-1.95 -0.85 Q-6.1 -1.5 -8.9 -4.15 L-9.75 -5.05 Q-10.95 -2.8 -10.95 0.0 -10.95 4.55 -7.75 7.75 -4.55 10.95 0.0 10.95 4.55 10.95 7.75 7.75 10.95 4.55 10.95 0.0 10.95 -2.45 10.05 -4.5 L10.55 -4.8 11.75 -5.65 14.4 -7.55 14.2 -7.95 10.7 -7.45 8.7 -6.7 Q6.9 -5.95 4.9 -4.7 L1.05 -1.85 0.0 -2.15 Q-0.85 -2.15 -1.5 -1.5 L-1.75 -1.15 -3.75 -3.8 Q-6.0 -5.95 -8.75 -6.6 L-11.0 -6.9 -9.75 -5.05 M8.7 -6.7 L7.75 -7.75 Q4.55 -10.95 0.0 -10.95 -4.55 -10.95 -7.75 -7.75 L-8.75 -6.6 M16.7 -16.7 Q23.6 -9.8 23.6 0.0 23.6 9.75 16.7 16.7 9.8 23.6 0.0 23.6 -9.75 23.6 -16.65 16.7 -23.6 9.75 -23.6 0.0 -23.6 -9.8 -16.65 -16.7 -9.75 -23.6 0.0 -23.6 9.8 -23.6 16.7 -16.7 M11.75 -5.65 Q13.0 -3.1 13.0 0.0 13.0 5.35 9.2 9.2 5.4 13.0 0.0 13.0 -5.35 13.0 -9.15 9.2 -12.95 5.35 -12.95 0.0 -12.95 -5.4 -9.15 -9.2 -5.35 -13.0 0.0 -13.0 5.4 -13.0 9.2 -9.2 L10.7 -7.45" fill="none" stroke="#000000" stroke-linecap="round" stroke-linejoin="miter-clip" stroke-miterlimit="4.0" stroke-opacity="0.6" stroke-width="1.0"/>
  </g>
</svg>
