<?xml version="1.0" encoding="UTF-8" standalone="no"?>
<svg xmlns:xlink="http://www.w3.org/1999/xlink" height="11.65px" width="65.5px" xmlns="http://www.w3.org/2000/svg">
  <g transform="matrix(1.0, 0.0, 0.0, 1.0, 32.75, 5.8)">
    <path d="M-14.3 -2.9 L28.65 -5.3 Q30.15 -5.4 31.2 -4.35 L31.7 -3.8 31.9 -3.4 31.95 -3.3 32.0 -3.15 Q30.8 -1.85 29.3 -1.8 L-27.95 1.4 Q-29.05 1.5 -29.95 0.85 L-30.1 0.75 Q-30.9 0.2 -31.25 -0.75 L-32.05 0.65 Q-31.8 -0.2 -31.15 -0.9 -30.1 -2.0 -28.65 -2.1 L-28.6 -2.1 -14.3 -2.9" fill="#ffffff" fill-opacity="0.0" fill-rule="evenodd" stroke="none"/>
    <path d="M-32.05 0.65 L-31.25 -0.75 Q-30.9 0.2 -30.1 0.75 L-29.95 0.85 Q-29.05 1.5 -27.95 1.4 L29.3 -1.8 Q30.8 -1.85 32.0 -3.15 L32.05 -3.0 32.25 -2.3 32.25 -1.9 32.25 -1.8 Q32.2 -0.25 31.15 0.9 30.1 2.05 28.6 2.15 L-0.75 3.8 -28.65 5.35 -30.25 5.1 -31.2 4.4 -31.85 3.55 Q-32.25 2.75 -32.25 1.8 L-32.2 1.15 -32.05 0.65" fill="#000000" fill-opacity="0.29803923" fill-rule="evenodd" stroke="none"/>
    <path d="M-14.3 -2.9 L-28.6 -2.1 -28.65 -2.1 M-30.25 5.1 L-28.65 5.35 -0.75 3.8" fill="none" stroke="#000000" stroke-linecap="round" stroke-linejoin="round" stroke-width="1.0"/>
    <path d="M32.0 -3.15 L31.95 -3.3 31.9 -3.4 31.7 -3.8 31.2 -4.35 Q30.15 -5.4 28.65 -5.3 L-14.3 -2.9 M-28.65 -2.1 Q-30.1 -2.0 -31.15 -0.9 -31.8 -0.2 -32.05 0.65 L-32.2 1.15 -32.25 1.8 Q-32.25 2.75 -31.85 3.55 L-31.2 4.4 -30.25 5.1 M32.05 -3.0 L32.25 -2.3 31.95 -3.3 M-0.75 3.8 L28.6 2.15 Q30.1 2.05 31.15 0.9 32.2 -0.25 32.25 -1.8 L32.25 -1.9 32.25 -2.3" fill="none" stroke="#000000" stroke-linecap="round" stroke-linejoin="round" stroke-opacity="0.6" stroke-width="1.0"/>
  </g>
</svg>
