<?xml version="1.0" encoding="UTF-8" standalone="no"?>
<svg xmlns:xlink="http://www.w3.org/1999/xlink" height="532.3px" width="2289.25px" xmlns="http://www.w3.org/2000/svg">
  <g transform="matrix(1.0, 0.0, 0.0, 1.0, 1144.2, 266.05)">
    <path d="M762.0 -231.4 L762.0 -244.05 -1121.9 -244.05 -1121.9 -231.4 762.0 -231.4 M849.75 -210.7 L-1139.55 -210.7 -1143.7 -265.55 786.6 -265.55 849.75 -210.7 M1067.85 210.8 L1080.45 210.8 1143.7 265.55 -845.6 265.55 -849.8 210.8 -832.95 210.8 -832.95 210.95 1067.85 210.95 1067.85 210.8 M1075.7 251.2 L1062.25 238.55 -821.65 238.55 -821.65 251.2 1075.7 251.2" fill="#000000" fill-opacity="0.09803922" fill-rule="evenodd" stroke="none"/>
    <path d="M762.0 -231.4 L-1121.9 -231.4 -1121.9 -244.05 762.0 -244.05 762.0 -231.4 M1075.7 251.2 L-821.65 251.2 -821.65 238.55 1062.25 238.55 1075.7 251.2" fill="#000000" fill-opacity="0.4" fill-rule="evenodd" stroke="none"/>
    <path d="M1067.85 210.8 L1067.85 210.95 -832.95 210.95 -832.95 210.8 -832.95 177.3 1067.85 177.3 1067.85 210.8" fill="#ffffff" fill-opacity="0.2" fill-rule="evenodd" stroke="none"/>
    <path d="M849.75 -210.7 L-1139.55 -210.7 -1143.7 -265.55 786.6 -265.55 849.75 -210.7 M-832.95 210.8 L-849.8 210.8 -845.6 265.55 1143.7 265.55 1080.45 210.8 1067.85 210.8 1067.85 210.95 -832.95 210.95 -832.95 210.8 -832.95 177.3 1067.85 177.3 1067.85 210.8" fill="none" stroke="#000000" stroke-linecap="round" stroke-linejoin="miter-clip" stroke-miterlimit="4.0" stroke-width="1.0"/>
  </g>
</svg>
