<?xml version="1.0" encoding="UTF-8" standalone="no"?>
<svg xmlns:xlink="http://www.w3.org/1999/xlink" height="944.5px" width="1450.7px" xmlns="http://www.w3.org/2000/svg">
  <g transform="matrix(1.0, 0.0, 0.0, 1.0, 725.35, 472.25)">
    <path d="M663.5 -375.05 L724.85 -392.15 663.5 -375.05 Q657.75 -387.7 642.9 -401.8 613.2 -429.95 567.7 -437.25 L-576.3 -437.25 -619.65 -471.75 -576.3 -437.25 Q-621.8 -429.95 -651.5 -401.8 -666.35 -387.7 -672.1 -375.05 L-672.1 166.5 663.5 166.5 663.5 -375.05 M663.5 195.0 L667.55 195.0 667.55 166.5 663.5 166.5 667.55 166.5 667.55 195.0 663.5 195.0 -672.1 195.0 -672.1 249.1 -724.85 287.0 -724.85 -389.25 -724.85 -471.75 -619.65 -471.75 615.15 -471.75 724.85 -471.75 724.85 -392.15 724.85 284.4 663.5 249.2 663.5 195.0 M571.8 -437.25 L615.15 -471.75 571.8 -437.25 M-672.1 -375.05 L-724.85 -389.25 -672.1 -375.05 M-672.1 166.5 L-674.65 166.5 -674.65 195.0 -672.1 195.0 -674.65 195.0 -674.65 166.5 -672.1 166.5" fill="#ffffff" fill-opacity="0.0" fill-rule="evenodd" stroke="none"/>
    <path d="M663.5 -375.05 L663.5 166.5 -672.1 166.5 -672.1 -375.05 Q-666.35 -387.7 -651.5 -401.8 -621.8 -429.95 -576.3 -437.25 L567.7 -437.25 Q613.2 -429.95 642.9 -401.8 657.75 -387.7 663.5 -375.05 M663.5 195.0 L663.5 249.2 -672.1 249.1 -672.1 195.0 663.5 195.0" fill="#000000" fill-opacity="0.09803922" fill-rule="evenodd" stroke="none"/>
    <path d="M663.5 249.2 L724.85 284.4 724.85 471.75 -724.85 471.75 -724.85 287.0 -672.1 249.1 663.5 249.2" fill="#000000" fill-opacity="0.2" fill-rule="evenodd" stroke="none"/>
    <path d="M724.85 -392.15 L663.5 -375.05 M615.15 -471.75 L571.8 -437.25 M-619.65 -471.75 L-576.3 -437.25 M-724.85 -389.25 L-672.1 -375.05" fill="none" stroke="#000000" stroke-linecap="round" stroke-linejoin="miter-clip" stroke-miterlimit="4.0" stroke-opacity="0.6" stroke-width="1.0"/>
    <path d="M663.5 -375.05 L663.5 166.5 667.55 166.5 667.55 195.0 663.5 195.0 663.5 249.2 724.85 284.4 724.85 -392.15 724.85 -471.75 615.15 -471.75 -619.65 -471.75 -724.85 -471.75 -724.85 -389.25 -724.85 287.0 -724.85 471.75 724.85 471.75 724.85 284.4 M-576.3 -437.25 L567.7 -437.25 Q613.2 -429.95 642.9 -401.8 657.75 -387.7 663.5 -375.05 M-576.3 -437.25 Q-621.8 -429.95 -651.5 -401.8 -666.35 -387.7 -672.1 -375.05 L-672.1 166.5 663.5 166.5 M-672.1 195.0 L-674.65 195.0 -674.65 166.5 -672.1 166.5 M-672.1 249.1 L-724.85 287.0 M663.5 195.0 L-672.1 195.0 -672.1 249.1 663.5 249.2" fill="none" stroke="#000000" stroke-linecap="round" stroke-linejoin="miter-clip" stroke-miterlimit="4.0" stroke-width="1.0"/>
  </g>
</svg>
