<?xml version="1.0" encoding="UTF-8" standalone="no"?>
<svg xmlns:xlink="http://www.w3.org/1999/xlink" height="71.0px" width="9.8px" xmlns="http://www.w3.org/2000/svg">
  <g transform="matrix(1.0, 0.0, 0.0, 1.0, 4.9, 35.5)">
    <path d="M0.2 -29.35 Q-0.35 -29.35 -0.8 -29.75 -1.2 -30.15 -1.2 -30.75 L-1.2 -33.6 Q-1.2 -34.15 -0.8 -34.6 -0.35 -35.0 0.2 -35.0 0.8 -35.0 1.25 -34.6 1.65 -34.15 1.65 -33.6 L1.65 -30.75 Q1.65 -30.15 1.25 -29.75 0.8 -29.35 0.2 -29.35 M0.2 -19.45 Q-0.35 -19.45 -0.8 -19.85 -1.2 -20.3 -1.2 -20.9 L-1.2 -23.65 Q-1.2 -24.25 -0.8 -24.65 -0.35 -25.1 0.2 -25.1 0.8 -25.1 1.25 -24.65 1.65 -24.25 1.65 -23.65 L1.65 -20.9 Q1.65 -20.3 1.25 -19.85 0.8 -19.45 0.2 -19.45 M1.25 -14.8 Q1.65 -14.4 1.65 -13.8 L1.65 -10.95 Q1.65 -10.4 1.25 -9.95 0.8 -9.55 0.2 -9.55 -0.35 -9.55 -0.8 -9.95 -1.2 -10.4 -1.2 -10.95 L-1.2 -13.8 Q-1.2 -14.4 -0.8 -14.8 -0.35 -15.2 0.2 -15.2 0.8 -15.2 1.25 -14.8 M1.65 -1.05 Q1.65 -0.45 1.25 0.0 0.8 0.4 0.2 0.4 -0.35 0.4 -0.8 0.0 -1.2 -0.45 -1.2 -1.05 L-1.2 -3.85 Q-1.2 -4.45 -0.8 -4.85 -0.35 -5.3 0.2 -5.3 0.8 -5.3 1.25 -4.85 1.65 -4.45 1.65 -3.85 L1.65 -1.05 M0.2 20.2 Q-0.35 20.2 -0.8 19.8 -1.2 19.4 -1.2 18.8 L-1.2 15.95 Q-1.2 15.4 -0.8 14.95 -0.35 14.55 0.2 14.55 0.8 14.55 1.25 14.95 1.65 15.4 1.65 15.95 L1.65 18.8 Q1.65 19.4 1.25 19.8 0.8 20.2 0.2 20.2 M0.2 10.3 Q-0.35 10.3 -0.8 9.9 -1.2 9.45 -1.2 8.9 L-1.2 6.05 Q-1.2 5.45 -0.8 5.05 -0.35 4.65 0.2 4.65 0.8 4.65 1.25 5.05 1.65 5.45 1.65 6.05 L1.65 8.9 Q1.65 9.45 1.25 9.9 0.8 10.3 0.2 10.3" fill="#000000" fill-opacity="0.29803923" fill-rule="evenodd" stroke="none"/>
    <path d="M0.0 35.0 Q-1.85 35.0 -3.1 33.7 -4.4 32.4 -4.4 30.6 -4.4 28.35 -3.1 25.4 -1.65 22.0 0.0 22.0 1.65 22.0 3.1 25.4 4.4 28.4 4.4 30.6 4.4 32.4 3.1 33.7 1.8 35.0 0.0 35.0" fill="#ffffff" fill-opacity="0.0" fill-rule="evenodd" stroke="none"/>
    <path d="M0.2 -29.35 Q-0.35 -29.35 -0.8 -29.75 -1.2 -30.15 -1.2 -30.75 L-1.2 -33.6 Q-1.2 -34.15 -0.8 -34.6 -0.35 -35.0 0.2 -35.0 0.8 -35.0 1.25 -34.6 1.65 -34.15 1.65 -33.6 L1.65 -30.75 Q1.65 -30.15 1.25 -29.75 0.8 -29.35 0.2 -29.35 M0.2 -19.45 Q-0.35 -19.45 -0.8 -19.85 -1.2 -20.3 -1.2 -20.9 L-1.2 -23.65 Q-1.2 -24.25 -0.8 -24.65 -0.35 -25.1 0.2 -25.1 0.8 -25.1 1.25 -24.65 1.65 -24.25 1.65 -23.65 L1.65 -20.9 Q1.65 -20.3 1.25 -19.85 0.8 -19.45 0.2 -19.45 M1.25 -14.8 Q1.65 -14.4 1.65 -13.8 L1.65 -10.95 Q1.65 -10.4 1.25 -9.95 0.8 -9.55 0.2 -9.55 -0.35 -9.55 -0.8 -9.95 -1.2 -10.4 -1.2 -10.95 L-1.2 -13.8 Q-1.2 -14.4 -0.8 -14.8 -0.35 -15.2 0.2 -15.2 0.8 -15.2 1.25 -14.8 M1.65 -1.05 Q1.65 -0.45 1.25 0.0 0.8 0.4 0.2 0.4 -0.35 0.4 -0.8 0.0 -1.2 -0.45 -1.2 -1.05 L-1.2 -3.85 Q-1.2 -4.45 -0.8 -4.85 -0.35 -5.3 0.2 -5.3 0.8 -5.3 1.25 -4.85 1.65 -4.45 1.65 -3.85 L1.65 -1.05 M0.2 20.2 Q-0.35 20.2 -0.8 19.8 -1.2 19.4 -1.2 18.8 L-1.2 15.95 Q-1.2 15.4 -0.8 14.95 -0.35 14.55 0.2 14.55 0.8 14.55 1.25 14.95 1.65 15.4 1.65 15.95 L1.65 18.8 Q1.65 19.4 1.25 19.8 0.8 20.2 0.2 20.2 M0.2 10.3 Q-0.35 10.3 -0.8 9.9 -1.2 9.45 -1.2 8.9 L-1.2 6.05 Q-1.2 5.45 -0.8 5.05 -0.35 4.65 0.2 4.65 0.8 4.65 1.25 5.05 1.65 5.45 1.65 6.05 L1.65 8.9 Q1.65 9.45 1.25 9.9 0.8 10.3 0.2 10.3" fill="none" stroke="#000000" stroke-linecap="round" stroke-linejoin="miter-clip" stroke-miterlimit="4.0" stroke-opacity="0.4" stroke-width="1.0"/>
    <path d="M0.0 35.0 Q-1.85 35.0 -3.1 33.7 -4.4 32.4 -4.4 30.6 -4.4 28.35 -3.1 25.4 -1.65 22.0 0.0 22.0 1.65 22.0 3.1 25.4 4.4 28.4 4.4 30.6 4.4 32.4 3.1 33.7 1.8 35.0 0.0 35.0" fill="none" stroke="#000000" stroke-linecap="round" stroke-linejoin="miter-clip" stroke-miterlimit="4.0" stroke-opacity="0.6" stroke-width="1.0"/>
  </g>
</svg>
