<?xml version="1.0" encoding="UTF-8" standalone="no"?>
<svg xmlns:xlink="http://www.w3.org/1999/xlink" height="1447.75px" width="1401.1px" xmlns="http://www.w3.org/2000/svg">
  <g transform="matrix(1.0, 0.0, 0.0, 1.0, 700.8, 723.9)">
    <path d="M685.5 -366.7 L685.5 -351.95 583.85 -291.25 583.85 -310.65 685.5 -366.7 M685.5 -316.75 L685.5 -310.15 647.5 -289.0 635.1 -289.0 647.5 -289.0 585.25 -254.35 585.25 -261.55 635.1 -289.0 685.5 -316.75 M458.35 -705.95 L458.35 -693.2 339.45 -640.6 339.45 -657.45 458.35 -705.95 M458.35 -662.75 L458.35 -657.0 413.85 -638.65 341.1 -608.65 341.1 -614.9 399.3 -638.65 413.85 -638.65 399.3 -638.65 458.35 -662.75 M356.05 -366.7 L356.05 -351.95 254.4 -291.25 254.4 -310.65 356.05 -366.7 M305.65 -289.0 L318.05 -289.0 305.65 -289.0 356.05 -316.75 356.05 -310.15 318.05 -289.0 255.8 -254.35 255.8 -261.55 305.65 -289.0 M44.1 -366.7 L44.1 -351.95 -57.6 -291.25 -57.6 -310.65 44.1 -366.7 M44.1 -316.8 L44.1 -310.2 6.05 -289.0 -56.2 -254.35 -56.2 -261.55 -6.35 -289.0 6.05 -289.0 -6.35 -289.0 44.1 -316.8 M635.1 128.0 L647.5 128.0 635.1 128.0 685.5 100.25 685.5 106.85 647.5 128.0 585.25 162.65 585.25 155.45 635.1 128.0 M583.85 125.75 L583.85 106.3 685.5 50.3 685.5 65.05 583.85 125.75 M356.05 50.3 L356.05 65.05 254.4 125.75 254.4 106.3 356.05 50.3 M356.05 100.25 L356.05 106.85 318.05 128.0 305.65 128.0 318.05 128.0 255.8 162.65 255.8 155.45 305.65 128.0 356.05 100.25 M44.1 50.3 L44.1 65.05 -57.6 125.75 -57.6 106.3 44.1 50.3 M44.1 100.2 L44.1 106.8 6.05 128.0 -56.2 162.65 -56.2 155.45 -6.35 128.0 6.05 128.0 -6.35 128.0 44.1 100.2 M281.15 581.85 L281.15 553.95 382.8 473.7 382.8 494.85 281.15 581.85 M382.8 545.2 L382.8 554.75 344.8 585.05 282.5 634.7 282.5 624.45 332.4 585.05 344.8 585.05 332.4 585.05 382.8 545.2 M597.25 581.85 L597.25 553.95 698.9 473.7 698.9 494.85 597.25 581.85 M660.9 585.05 L598.65 634.7 598.65 624.45 648.5 585.05 660.9 585.05 648.5 585.05 698.9 545.2 698.9 554.75 660.9 585.05 M-25.9 -705.95 L-25.9 -693.2 -144.8 -640.6 -144.8 -657.45 -25.9 -705.95 M-70.35 -638.65 L-143.15 -608.65 -143.15 -614.9 -84.9 -638.65 -70.35 -638.65 -84.9 -638.65 -25.9 -662.7 -25.9 -656.95 -70.35 -638.65 M-513.55 -705.95 L-513.55 -693.2 -632.45 -640.6 -632.45 -657.45 -513.55 -705.95 M-513.55 -662.75 L-513.55 -657.0 -558.05 -638.65 -630.8 -608.65 -630.8 -614.9 -572.6 -638.65 -558.05 -638.65 -572.6 -638.65 -513.55 -662.75 M-282.9 -366.7 L-282.9 -351.95 -384.55 -291.25 -384.55 -310.65 -282.9 -366.7 M-282.9 -316.75 L-282.9 -310.15 -320.9 -289.0 -383.15 -254.35 -383.15 -261.55 -333.3 -289.0 -320.9 -289.0 -333.3 -289.0 -282.9 -316.75 M-597.35 -366.7 L-597.35 -351.95 -699.05 -291.25 -699.05 -310.65 -597.35 -366.7 M-597.35 -316.8 L-597.35 -310.2 -635.4 -289.0 Q-666.5 -271.65 -697.65 -254.35 L-697.65 -261.55 -647.8 -289.0 -597.35 -316.8 M-647.8 -289.0 L-635.4 -289.0 -647.8 -289.0 M-699.05 125.75 L-699.05 106.3 -597.35 50.3 -597.35 65.05 -699.05 125.75 M-597.35 100.2 L-597.35 106.8 -635.4 128.0 -697.65 162.65 -697.65 155.45 -647.8 128.0 -635.4 128.0 -647.8 128.0 -597.35 100.2 M-700.3 581.85 L-700.3 553.95 -598.6 473.7 -598.6 494.85 -700.3 581.85 M-598.6 545.2 L-598.6 554.7 -636.65 585.05 -698.9 634.7 -698.9 624.45 -649.05 585.05 -598.6 545.2 M-636.65 585.05 L-649.05 585.05 -636.65 585.05 M-281.65 50.3 L-281.65 65.05 -383.3 125.75 -383.3 106.3 -281.65 50.3 M-281.65 100.25 L-281.65 106.85 -319.65 128.0 -381.9 162.65 -381.9 155.45 -332.05 128.0 -319.65 128.0 -332.05 128.0 -281.65 100.25 M-384.75 581.85 L-384.75 553.95 -283.1 473.7 -283.1 494.85 -384.75 581.85 M-283.1 545.2 L-283.1 554.75 -321.1 585.05 -383.35 634.7 -383.35 624.45 -333.5 585.05 -283.1 545.2 M-321.1 585.05 L-333.5 585.05 -321.1 585.05" fill="#ffffff" fill-opacity="0.29803923" fill-rule="evenodd" stroke="none"/>
    <path d="M685.5 -351.95 L685.5 -316.75 635.1 -289.0 585.25 -261.55 585.25 -254.35 647.5 -289.0 685.5 -310.15 685.5 -289.0 685.5 -192.5 583.85 -192.5 583.85 -289.0 583.85 -291.25 685.5 -351.95 M583.85 -310.65 L583.85 -386.85 685.5 -386.85 685.5 -366.7 583.85 -310.65 M685.5 -289.0 L647.5 -289.0 685.5 -289.0 M458.35 -693.2 L458.35 -662.75 399.3 -638.65 341.1 -614.9 341.1 -608.65 413.85 -638.65 458.35 -638.65 458.35 -555.1 339.45 -555.1 339.45 -638.65 339.45 -640.6 458.35 -693.2 M458.35 -657.0 L458.35 -638.65 413.85 -638.65 458.35 -657.0 M339.45 -657.45 L339.45 -723.4 458.35 -723.4 458.35 -705.95 339.45 -657.45 M339.45 -638.65 L399.3 -638.65 339.45 -638.65 M254.4 -310.65 L254.4 -386.85 356.05 -386.85 356.05 -366.7 254.4 -310.65 M356.05 -351.95 L356.05 -316.75 305.65 -289.0 255.8 -261.55 255.8 -254.35 318.05 -289.0 356.05 -310.15 356.05 -289.0 356.05 -192.5 254.4 -192.5 254.4 -289.0 254.4 -291.25 356.05 -351.95 M254.4 -289.0 L305.65 -289.0 254.4 -289.0 M44.1 -351.95 L44.1 -316.8 -6.35 -289.0 -56.2 -261.55 -56.2 -254.35 6.05 -289.0 44.1 -310.2 44.1 -289.0 44.1 -192.5 -57.6 -192.5 -57.6 -289.0 -57.6 -291.25 44.1 -351.95 M-57.6 -310.65 L-57.6 -386.85 44.1 -386.85 44.1 -366.7 -57.6 -310.65 M44.1 -289.0 L6.05 -289.0 44.1 -289.0 M583.85 -289.0 L635.1 -289.0 583.85 -289.0 M318.05 -289.0 L356.05 -289.0 318.05 -289.0 M635.1 128.0 L585.25 155.45 585.25 162.65 647.5 128.0 685.5 106.85 685.5 128.0 685.5 224.5 583.85 224.5 583.85 128.0 635.1 128.0 583.85 128.0 583.85 125.75 685.5 65.05 685.5 100.25 635.1 128.0 M647.5 128.0 L685.5 128.0 647.5 128.0 M583.85 106.3 L583.85 30.15 685.5 30.15 685.5 50.3 583.85 106.3 M356.05 65.05 L356.05 100.25 305.65 128.0 255.8 155.45 255.8 162.65 318.05 128.0 356.05 106.85 356.05 128.0 356.05 224.5 254.4 224.5 254.4 128.0 254.4 125.75 356.05 65.05 M254.4 106.3 L254.4 30.15 356.05 30.15 356.05 50.3 254.4 106.3 M356.05 128.0 L318.05 128.0 356.05 128.0 M254.4 128.0 L305.65 128.0 254.4 128.0 M44.1 65.05 L44.1 100.2 -6.35 128.0 -56.2 155.45 -56.2 162.65 6.05 128.0 44.1 106.8 44.1 128.0 44.1 224.5 -57.6 224.5 -57.6 128.0 -57.6 125.75 44.1 65.05 M-57.6 106.3 L-57.6 30.15 44.1 30.15 44.1 50.3 -57.6 106.3 M44.1 128.0 L6.05 128.0 44.1 128.0 M281.15 553.95 L281.15 444.8 382.8 444.8 382.8 473.7 281.15 553.95 M382.8 494.85 L382.8 545.2 332.4 585.05 282.5 624.45 282.5 634.7 344.8 585.05 382.8 585.05 344.8 585.05 382.8 554.75 382.8 585.05 382.8 723.35 281.15 723.35 281.15 585.05 281.15 581.85 382.8 494.85 M597.25 553.95 L597.25 444.8 698.9 444.8 698.9 473.7 597.25 553.95 M698.9 494.85 L698.9 545.2 648.5 585.05 598.65 624.45 598.65 634.7 660.9 585.05 698.9 554.75 698.9 585.05 698.9 723.35 597.25 723.35 597.25 585.05 597.25 581.85 698.9 494.85 M597.25 585.05 L648.5 585.05 597.25 585.05 M281.15 585.05 L332.4 585.05 281.15 585.05 M698.9 585.05 L660.9 585.05 698.9 585.05 M-25.9 -693.2 L-25.9 -662.7 -84.9 -638.65 -143.15 -614.9 -143.15 -608.65 -70.35 -638.65 -25.9 -656.95 -25.9 -638.65 -25.9 -555.1 -144.8 -555.1 -144.8 -638.65 -144.8 -640.6 -25.9 -693.2 M-144.8 -657.45 L-144.8 -723.4 -25.9 -723.4 -25.9 -705.95 -144.8 -657.45 M-144.8 -638.65 L-84.9 -638.65 -144.8 -638.65 M-25.9 -638.65 L-70.35 -638.65 -25.9 -638.65 M-513.55 -693.2 L-513.55 -662.75 -572.6 -638.65 -630.8 -614.9 -630.8 -608.65 -558.05 -638.65 -513.55 -638.65 -513.55 -555.1 -632.45 -555.1 -632.45 -638.65 -632.45 -640.6 -513.55 -693.2 M-513.55 -657.0 L-513.55 -638.65 -558.05 -638.65 -513.55 -657.0 M-632.45 -657.45 L-632.45 -723.4 -513.55 -723.4 -513.55 -705.95 -632.45 -657.45 M-632.45 -638.65 L-572.6 -638.65 -632.45 -638.65 M-384.55 -310.65 L-384.55 -386.85 -282.9 -386.85 -282.9 -366.7 -384.55 -310.65 M-282.9 -351.95 L-282.9 -316.75 -333.3 -289.0 -383.15 -261.55 -383.15 -254.35 -320.9 -289.0 -282.9 -289.0 -282.9 -192.5 -384.55 -192.5 -384.55 -289.0 -384.55 -291.25 -282.9 -351.95 M-282.9 -310.15 L-282.9 -289.0 -320.9 -289.0 -282.9 -310.15 M-384.55 -289.0 L-333.3 -289.0 -384.55 -289.0 M-597.35 -351.95 L-597.35 -316.8 -647.8 -289.0 -697.65 -261.55 -697.65 -254.35 Q-666.5 -271.65 -635.4 -289.0 L-597.35 -310.2 -597.35 -289.0 -597.35 -192.5 -699.05 -192.5 -699.05 -289.0 -699.05 -291.25 -597.35 -351.95 M-699.05 -310.65 L-699.05 -386.85 -597.35 -386.85 -597.35 -366.7 -699.05 -310.65 M-635.4 -289.0 L-597.35 -289.0 -635.4 -289.0 M-699.05 -289.0 L-647.8 -289.0 -699.05 -289.0 M-57.6 -289.0 L-6.35 -289.0 -57.6 -289.0 M-699.05 106.3 L-699.05 30.15 -597.35 30.15 -597.35 50.3 -699.05 106.3 M-597.35 65.05 L-597.35 100.2 -647.8 128.0 -697.65 155.45 -697.65 162.65 -635.4 128.0 -597.35 128.0 -597.35 224.5 -699.05 224.5 -699.05 128.0 -699.05 125.75 -597.35 65.05 M-597.35 106.8 L-597.35 128.0 -635.4 128.0 -597.35 106.8 M-700.3 553.95 L-700.3 444.8 -598.6 444.8 -598.6 473.7 -700.3 553.95 M-598.6 494.85 L-598.6 545.2 -649.05 585.05 -700.3 585.05 -649.05 585.05 -698.9 624.45 -698.9 634.7 -636.65 585.05 -598.6 554.7 -598.6 585.05 -598.6 723.35 -700.3 723.35 -700.3 585.05 -700.3 581.85 -598.6 494.85 M-57.6 128.0 L-6.35 128.0 -57.6 128.0 M-281.65 65.05 L-281.65 100.25 -332.05 128.0 -381.9 155.45 -381.9 162.65 -319.65 128.0 -281.65 106.85 -281.65 128.0 -281.65 224.5 -383.3 224.5 -383.3 128.0 -383.3 125.75 -281.65 65.05 M-383.3 106.3 L-383.3 30.15 -281.65 30.15 -281.65 50.3 -383.3 106.3 M-281.65 128.0 L-319.65 128.0 -281.65 128.0 M-383.3 128.0 L-332.05 128.0 -383.3 128.0 M-384.75 553.95 L-384.75 444.8 -283.1 444.8 -283.1 473.7 -384.75 553.95 M-283.1 494.85 L-283.1 545.2 -333.5 585.05 -384.75 585.05 -333.5 585.05 -383.35 624.45 -383.35 634.7 -321.1 585.05 -283.1 554.75 -283.1 585.05 -283.1 723.35 -384.75 723.35 -384.75 585.05 -384.75 581.85 -283.1 494.85 M-598.6 585.05 L-636.65 585.05 -598.6 585.05 M-283.1 585.05 L-321.1 585.05 -283.1 585.05 M-699.05 128.0 L-647.8 128.0 -699.05 128.0" fill="#ffffff" fill-opacity="0.0" fill-rule="evenodd" stroke="none"/>
    <path d="M685.5 -316.75 L686.95 -317.55 686.95 -310.95 685.5 -310.15 685.5 -316.75 M356.05 -316.75 L357.45 -317.55 357.45 -310.95 356.05 -310.15 356.05 -316.75 M44.1 -316.8 L45.45 -317.55 45.45 -310.95 44.1 -310.2 44.1 -316.8 M685.5 106.85 L685.5 100.25 686.95 99.45 686.95 106.05 685.5 106.85 M356.05 100.25 L357.45 99.45 357.45 106.05 356.05 106.85 356.05 100.25 M44.1 100.2 L45.45 99.45 45.45 106.05 44.1 106.8 44.1 100.2 M698.9 545.2 L700.3 544.1 700.3 553.6 698.9 554.75 698.9 545.2 M-25.9 -662.7 L-24.25 -663.4 -24.25 -657.65 -25.9 -656.95 -25.9 -662.7 M-281.65 100.25 L-280.25 99.45 -280.25 106.05 -281.65 106.85 -281.65 100.25" fill="#e8e8e8" fill-rule="evenodd" stroke="none"/>
    <path d="M43.35 508.75 L43.35 648.3 3.0 648.3 3.0 508.75 43.35 508.75 M-13.8 508.75 L-13.8 648.3 -54.15 648.3 -54.15 508.75 -13.8 508.75" fill="#000000" fill-opacity="0.047058824" fill-rule="evenodd" stroke="none"/>
    <path d="M685.5 -366.7 L685.5 -351.95 685.5 -316.75 685.5 -310.15 685.5 -289.0 685.5 -192.5 583.85 -192.5 583.85 -289.0 583.85 -291.25 583.85 -310.65 583.85 -386.85 685.5 -386.85 685.5 -366.7 M647.5 -289.0 L685.5 -289.0 M458.35 -705.95 L458.35 -693.2 458.35 -662.75 458.35 -657.0 458.35 -638.65 458.35 -555.1 339.45 -555.1 339.45 -638.65 339.45 -640.6 339.45 -657.45 339.45 -723.4 458.35 -723.4 458.35 -705.95 M413.85 -638.65 L399.3 -638.65 339.45 -638.65 M458.35 -638.65 L413.85 -638.65 M254.4 -310.65 L254.4 -386.85 356.05 -386.85 356.05 -366.7 356.05 -351.95 356.05 -316.75 356.05 -310.15 356.05 -289.0 356.05 -192.5 254.4 -192.5 254.4 -289.0 254.4 -291.25 254.4 -310.65 M318.05 -289.0 L305.65 -289.0 254.4 -289.0 M44.1 -366.7 L44.1 -351.95 44.1 -316.8 44.1 -310.2 44.1 -289.0 44.1 -192.5 -57.6 -192.5 -57.6 -289.0 -57.6 -291.25 -57.6 -310.65 -57.6 -386.85 44.1 -386.85 44.1 -366.7 M6.05 -289.0 L44.1 -289.0 M647.5 -289.0 L635.1 -289.0 583.85 -289.0 M356.05 -289.0 L318.05 -289.0 M647.5 128.0 L635.1 128.0 583.85 128.0 583.85 224.5 685.5 224.5 685.5 128.0 647.5 128.0 M685.5 106.85 L685.5 100.25 685.5 65.05 685.5 50.3 685.5 30.15 583.85 30.15 583.85 106.3 583.85 125.75 583.85 128.0 M685.5 106.85 L685.5 128.0 M356.05 50.3 L356.05 65.05 356.05 100.25 356.05 106.85 356.05 128.0 356.05 224.5 254.4 224.5 254.4 128.0 254.4 125.75 254.4 106.3 254.4 30.15 356.05 30.15 356.05 50.3 M318.05 128.0 L356.05 128.0 M318.05 128.0 L305.65 128.0 254.4 128.0 M44.1 50.3 L44.1 65.05 44.1 100.2 44.1 106.8 44.1 128.0 44.1 224.5 -57.6 224.5 -57.6 128.0 -57.6 125.75 -57.6 106.3 -57.6 30.15 44.1 30.15 44.1 50.3 M6.05 128.0 L44.1 128.0 M281.15 581.85 L281.15 553.95 281.15 444.8 382.8 444.8 382.8 473.7 382.8 494.85 382.8 545.2 382.8 554.75 382.8 585.05 382.8 723.35 281.15 723.35 281.15 585.05 281.15 581.85 M344.8 585.05 L332.4 585.05 281.15 585.05 M597.25 581.85 L597.25 553.95 597.25 444.8 698.9 444.8 698.9 473.7 698.9 494.85 698.9 545.2 698.9 554.75 698.9 585.05 698.9 723.35 597.25 723.35 597.25 585.05 597.25 581.85 M382.8 585.05 L344.8 585.05 M648.5 585.05 L597.25 585.05 M660.9 585.05 L648.5 585.05 M660.9 585.05 L698.9 585.05 M-25.9 -705.95 L-25.9 -693.2 -25.9 -662.7 -25.9 -656.95 -25.9 -638.65 -25.9 -555.1 -144.8 -555.1 -144.8 -638.65 -144.8 -640.6 -144.8 -657.45 -144.8 -723.4 -25.9 -723.4 -25.9 -705.95 M-84.9 -638.65 L-144.8 -638.65 M-70.35 -638.65 L-25.9 -638.65 M-70.35 -638.65 L-84.9 -638.65 M-513.55 -705.95 L-513.55 -693.2 -513.55 -662.75 -513.55 -657.0 -513.55 -638.65 -513.55 -555.1 -632.45 -555.1 -632.45 -638.65 -632.45 -640.6 -632.45 -657.45 -632.45 -723.4 -513.55 -723.4 -513.55 -705.95 M-558.05 -638.65 L-572.6 -638.65 -632.45 -638.65 M-513.55 -638.65 L-558.05 -638.65 M-384.55 -310.65 L-384.55 -386.85 -282.9 -386.85 -282.9 -366.7 -282.9 -351.95 -282.9 -316.75 -282.9 -310.15 -282.9 -289.0 -282.9 -192.5 -384.55 -192.5 -384.55 -289.0 -384.55 -291.25 -384.55 -310.65 M-320.9 -289.0 L-333.3 -289.0 -384.55 -289.0 M-597.35 -366.7 L-597.35 -351.95 -597.35 -316.8 -597.35 -310.2 -597.35 -289.0 -597.35 -192.5 -699.05 -192.5 -699.05 -289.0 -699.05 -291.25 -699.05 -310.65 -699.05 -386.85 -597.35 -386.85 -597.35 -366.7 M-635.4 -289.0 L-647.8 -289.0 -699.05 -289.0 M-597.35 -289.0 L-635.4 -289.0 M-6.35 -289.0 L-57.6 -289.0 M-282.9 -289.0 L-320.9 -289.0 M-699.05 125.75 L-699.05 106.3 -699.05 30.15 -597.35 30.15 -597.35 50.3 -597.35 65.05 -597.35 100.2 -597.35 106.8 -597.35 128.0 -597.35 224.5 -699.05 224.5 -699.05 128.0 -699.05 125.75 M-635.4 128.0 L-647.8 128.0 -699.05 128.0 M-700.3 581.85 L-700.3 553.95 -700.3 444.8 -598.6 444.8 -598.6 473.7 -598.6 494.85 -598.6 545.2 -598.6 554.7 -598.6 585.05 -598.6 723.35 -700.3 723.35 -700.3 585.05 -700.3 581.85 M-700.3 585.05 L-649.05 585.05 -636.65 585.05 -598.6 585.05 M-6.35 128.0 L-57.6 128.0 M-281.65 50.3 L-281.65 65.05 -281.65 100.25 -281.65 106.85 -281.65 128.0 -281.65 224.5 -383.3 224.5 -383.3 128.0 -383.3 125.75 -383.3 106.3 -383.3 30.15 -281.65 30.15 -281.65 50.3 M-319.65 128.0 L-281.65 128.0 M-332.05 128.0 L-383.3 128.0 M-597.35 128.0 L-635.4 128.0 M-384.75 581.85 L-384.75 553.95 -384.75 444.8 -283.1 444.8 -283.1 473.7 -283.1 494.85 -283.1 545.2 -283.1 554.75 -283.1 585.05 -283.1 723.35 -384.75 723.35 -384.75 585.05 -384.75 581.85 M-384.75 585.05 L-333.5 585.05 -321.1 585.05 -283.1 585.05 M-332.05 128.0 L-319.65 128.0 M-6.35 128.0 L6.05 128.0 M-6.35 -289.0 L6.05 -289.0" fill="none" stroke="#000000" stroke-linecap="butt" stroke-linejoin="miter-clip" stroke-miterlimit="4.0" stroke-width="1.0"/>
    <path d="M43.35 508.75 L43.35 648.3 3.0 648.3 3.0 508.75 43.35 508.75 M-13.8 508.75 L-13.8 648.3 -54.15 648.3 -54.15 508.75 -13.8 508.75" fill="none" stroke="#000000" stroke-linecap="round" stroke-linejoin="miter-clip" stroke-miterlimit="4.0" stroke-opacity="0.4" stroke-width="1.0"/>
  </g>
</svg>
