<?xml version="1.0" encoding="UTF-8" standalone="no"?>
<svg xmlns:xlink="http://www.w3.org/1999/xlink" height="7.05px" width="765.6px" xmlns="http://www.w3.org/2000/svg">
  <g transform="matrix(1.0, 0.0, 0.0, 1.0, 0.5, 0.5)">
    <path d="M745.45 6.05 L731.9 5.15 Q726.3 4.25 726.3 3.0 726.3 1.75 731.9 0.9 L745.45 0.0 759.0 0.9 Q764.6 1.75 764.6 3.0 764.6 4.25 759.0 5.15 L745.45 6.05 M382.3 6.05 L368.75 5.15 Q363.15 4.25 363.15 3.0 363.15 1.75 368.75 0.9 L382.3 0.0 395.85 0.9 Q401.45 1.75 401.45 3.0 401.45 4.25 395.85 5.15 L382.3 6.05 M19.15 6.05 L5.6 5.15 Q0.0 4.25 0.0 3.0 0.0 1.75 5.6 0.9 L19.15 0.0 32.7 0.9 Q38.3 1.75 38.3 3.0 38.3 4.25 32.7 5.15 L19.15 6.05" fill="#ffffff" fill-opacity="0.0" fill-rule="evenodd" stroke="none"/>
    <path d="M745.45 6.05 L731.9 5.15 Q726.3 4.25 726.3 3.0 726.3 1.75 731.9 0.9 L745.45 0.0 759.0 0.9 Q764.6 1.75 764.6 3.0 764.6 4.25 759.0 5.15 L745.45 6.05 M382.3 6.05 L368.75 5.15 Q363.15 4.25 363.15 3.0 363.15 1.75 368.75 0.9 L382.3 0.0 395.85 0.9 Q401.45 1.75 401.45 3.0 401.45 4.25 395.85 5.15 L382.3 6.05 M19.15 6.05 L5.6 5.15 Q0.0 4.25 0.0 3.0 0.0 1.75 5.6 0.9 L19.15 0.0 32.7 0.9 Q38.3 1.75 38.3 3.0 38.3 4.25 32.7 5.15 L19.15 6.05" fill="none" stroke="#000000" stroke-linecap="round" stroke-linejoin="miter-clip" stroke-miterlimit="4.0" stroke-width="1.0"/>
  </g>
</svg>
