<?xml version="1.0" encoding="UTF-8" standalone="no"?>
<svg xmlns:xlink="http://www.w3.org/1999/xlink" height="48.35px" width="49.75px" xmlns="http://www.w3.org/2000/svg">
  <g transform="matrix(1.0, 0.0, 0.0, 1.0, 0.5, 0.5)">
    <path d="M18.25 29.85 Q15.75 31.55 14.15 32.25 7.45 35.5 3.3 31.9 -0.5 28.6 0.05 21.9 0.7 14.8 6.0 9.05 12.25 2.4 22.7 0.4 34.05 -1.7 42.8 7.4 46.6 11.35 48.0 16.05 49.5 20.95 47.9 25.1 44.9 32.9 37.3 29.5 36.9 29.35 33.4 27.4 L31.55 26.4 Q28.45 24.7 27.15 25.0 25.75 25.3 24.1 26.1 L19.15 29.2 18.25 29.85" fill="#000000" fill-opacity="0.29803923" fill-rule="evenodd" stroke="none"/>
    <path d="M33.4 27.4 Q36.25 32.8 37.85 37.95 40.05 45.1 30.75 46.85 22.7 48.3 15.85 45.5 11.35 43.7 14.3 36.65 15.75 33.15 18.1 30.0 L18.25 29.85 19.15 29.2 24.1 26.1 Q25.75 25.3 27.15 25.0 28.45 24.7 31.55 26.4 L33.4 27.4" fill="#ffffff" fill-opacity="0.0" fill-rule="evenodd" stroke="none"/>
    <path d="M18.25 29.85 Q15.75 31.55 14.15 32.25 7.45 35.5 3.3 31.9 -0.5 28.6 0.05 21.9 0.7 14.8 6.0 9.05 12.25 2.4 22.7 0.4 34.05 -1.7 42.8 7.4 46.6 11.35 48.0 16.05 49.5 20.95 47.9 25.1 44.9 32.9 37.3 29.5 36.9 29.35 33.4 27.4 36.25 32.8 37.85 37.95 40.05 45.1 30.75 46.85 22.7 48.3 15.85 45.5 11.35 43.7 14.3 36.65 15.75 33.15 18.1 30.0 L18.25 29.85" fill="none" stroke="#000000" stroke-linecap="round" stroke-linejoin="miter-clip" stroke-miterlimit="4.0" stroke-width="1.0"/>
    <path d="M18.25 29.85 L19.15 29.2 24.1 26.1 Q25.75 25.3 27.15 25.0 28.45 24.7 31.55 26.4 L33.4 27.4" fill="none" stroke="#000000" stroke-linecap="round" stroke-linejoin="miter-clip" stroke-miterlimit="4.0" stroke-opacity="0.6" stroke-width="1.0"/>
  </g>
</svg>
