<?xml version="1.0" encoding="UTF-8" standalone="no"?>
<svg xmlns:xlink="http://www.w3.org/1999/xlink" height="44.4px" width="39.7px" xmlns="http://www.w3.org/2000/svg">
  <g transform="matrix(1.0, 0.0, 0.0, 1.0, 0.5, 0.5)">
    <path d="M3.15 21.8 Q8.1 15.4 19.35 21.45 30.25 27.35 38.7 30.6 L38.7 43.4 3.15 43.4 3.15 21.8 3.15 43.4 0.0 41.3 0.0 3.15 3.15 0.0 3.15 21.8" fill="#ffffff" fill-opacity="0.0" fill-rule="evenodd" stroke="none"/>
    <path d="M38.7 30.6 Q30.25 27.35 19.35 21.45 8.1 15.4 3.15 21.8 L3.15 0.0 38.7 0.0 38.7 30.6" fill="#000000" fill-opacity="0.2" fill-rule="evenodd" stroke="none"/>
    <path d="M3.15 43.4 L38.7 43.4 38.7 30.6 38.7 0.0 3.15 0.0 0.0 3.15 0.0 41.3 3.15 43.4" fill="none" stroke="#000000" stroke-linecap="round" stroke-linejoin="miter-clip" stroke-miterlimit="4.0" stroke-width="1.0"/>
    <path d="M38.7 30.6 Q30.25 27.35 19.35 21.45 8.1 15.4 3.15 21.8" fill="none" stroke="#000000" stroke-linecap="round" stroke-linejoin="miter-clip" stroke-miterlimit="4.0" stroke-opacity="0.4" stroke-width="1.0"/>
    <path d="M3.15 21.8 L3.15 43.4 M3.15 0.0 L3.15 21.8" fill="none" stroke="#000000" stroke-linecap="round" stroke-linejoin="miter-clip" stroke-miterlimit="4.0" stroke-opacity="0.6" stroke-width="1.0"/>
  </g>
</svg>
