<?xml version="1.0" encoding="UTF-8" standalone="no"?>
<svg xmlns:xlink="http://www.w3.org/1999/xlink" height="20.7px" width="58.2px" xmlns="http://www.w3.org/2000/svg">
  <g transform="matrix(1.0, 0.0, 0.0, 1.0, 29.1, 10.35)">
    <path d="M12.55 9.85 L3.45 9.85 3.45 -9.85 12.55 -9.85 12.55 9.85 M28.6 9.85 L19.5 9.85 19.5 -9.85 28.6 -9.85 28.6 9.85 M-19.5 9.85 L-28.6 9.85 -28.6 -9.85 -19.5 -9.85 -19.5 9.85 M-3.5 9.85 L-12.6 9.85 -12.6 -9.85 -3.5 -9.85 -3.5 9.85" fill="#ffffff" fill-opacity="0.0" fill-rule="evenodd" stroke="none"/>
    <path d="M12.55 9.85 L3.45 9.85 3.45 -9.85 12.55 -9.85 12.55 9.85 M28.6 9.85 L19.5 9.85 19.5 -9.85 28.6 -9.85 28.6 9.85 M-19.5 9.85 L-28.6 9.85 -28.6 -9.85 -19.5 -9.85 -19.5 9.85 M-3.5 9.85 L-12.6 9.85 -12.6 -9.85 -3.5 -9.85 -3.5 9.85" fill="none" stroke="#000000" stroke-linecap="round" stroke-linejoin="round" stroke-opacity="0.6" stroke-width="1.0"/>
  </g>
</svg>
