<?xml version="1.0" encoding="UTF-8" standalone="no"?>
<svg xmlns:xlink="http://www.w3.org/1999/xlink" height="623.1px" width="106.0px" xmlns="http://www.w3.org/2000/svg">
  <g transform="matrix(1.0, 0.0, 0.0, 1.0, 53.45, 311.5)">
    <path d="M11.45 309.0 Q10.45 307.7 9.95 305.65 L9.5 301.5 9.5 233.15 24.95 233.15" fill="none" stroke="#000000" stroke-linecap="butt" stroke-linejoin="miter-clip" stroke-miterlimit="4.0" stroke-width="1.0"/>
    <path d="M-28.35 232.05 L-28.35 233.15 M24.95 233.15 L24.95 232.05 M24.95 309.0 L11.45 309.0 M-28.35 309.0 L-12.65 309.0" fill="none" stroke="#000000" stroke-linecap="round" stroke-linejoin="miter-clip" stroke-miterlimit="4.0" stroke-width="1.0"/>
    <path d="M-28.35 233.15 L-10.8 233.15 -10.8 301.5 -11.2 305.65 Q-11.7 307.7 -12.65 309.0 L11.45 309.0 Q12.55 310.55 14.35 311.1 L36.8 311.1 40.0 309.0 Q43.15 306.0 43.15 302.0 L43.15 237.4 Q40.0 233.65 36.25 233.15 L24.95 233.15 M-12.65 309.0 Q-13.85 310.55 -15.65 311.1 L-38.05 311.1 Q-39.65 310.45 -41.2 309.0 -44.4 306.0 -44.4 302.0 L-44.4 237.4 -42.3 235.45 Q-39.75 233.45 -37.45 233.15 L-28.35 233.15" fill="none" stroke="#000000" stroke-linecap="round" stroke-linejoin="miter-clip" stroke-miterlimit="4.0" stroke-width="1.0"/>
    <path d="M-37.5 -307.65 L-35.85 -307.65 -34.65 -307.55 -37.5 -307.65 M-5.1 -83.7 L-7.9 -83.75 -5.1 -83.85 -5.1 -83.7 M-9.05 -83.75 L-14.5 -84.05 -14.6 -84.05 -10.9 -83.95 -9.05 -83.75" fill="#ad7229" fill-rule="evenodd" stroke="none"/>
    <path d="M-43.95 -301.05 L-43.4 -300.95 -42.9 -300.85 -43.95 -301.05" fill="#ece7d4" fill-rule="evenodd" stroke="none"/>
    <path d="M51.35 -252.8 L51.25 -234.95 40.7 -230.05 Q32.9 -240.35 21.1 -246.15 L21.1 -242.5 21.7 -242.2 22.45 -241.85 Q44.35 -231.15 38.15 -218.5 36.65 -215.45 34.5 -212.85 L33.7 -211.9 31.95 -210.2 30.3 -208.85 29.55 -208.3 29.4 -208.15 29.2 -208.05 28.85 -207.8 Q25.45 -205.5 21.1 -203.85 L21.1 -147.9 21.2 -147.95 21.1 -147.9 21.1 -109.7 18.6 -100.2 Q14.6 -89.6 7.2 -84.1 L4.05 -83.9 7.15 -84.05 7.1 -84.05 8.35 -84.15 26.25 -86.2 26.55 -86.25 37.5 -88.35 36.25 -78.25 47.8 -78.2 47.8 -7.7 42.45 -6.75 Q37.45 -5.3 38.95 -2.85 41.35 1.15 49.35 7.5 L49.35 46.85 Q49.15 48.65 47.9 50.75 L47.7 51.05 47.8 51.95 Q47.8 55.7 40.95 58.65 37.85 59.95 33.35 61.1 26.25 63.0 17.7 63.95 L-1.45 64.95 Q-21.85 64.95 -36.3 61.1 -41.45 59.8 -44.7 58.25 -50.75 55.45 -50.75 51.95 L-50.75 51.7 -51.4 50.75 -52.95 46.85 -52.95 7.5 Q-44.95 1.15 -42.5 -2.85 -40.95 -5.3 -46.0 -6.75 L-51.35 -7.75 -51.35 -78.2 -40.35 -78.2 -40.35 -78.25 -41.55 -88.3 Q-40.45 -87.7 -39.2 -87.2 L-38.1 -86.7 -35.8 -86.15 -34.0 -85.65 -31.35 -85.1 -31.15 -85.1 -30.25 -84.95 -26.4 -84.8 -26.35 -84.8 -25.45 -84.8 -25.4 -84.8 -25.2 -84.8 -24.8 -84.85 -23.5 -84.95 -14.7 -84.05 -14.6 -84.05 -14.5 -84.05 -9.05 -83.75 -7.9 -83.75 -5.1 -83.7 -5.05 -83.7 -4.25 -83.7 -3.15 -83.7 -2.05 -83.7 -0.5 -83.75 4.05 -83.9 -0.5 -83.75 -2.05 -83.7 -1.6 -83.75 -16.75 -84.95 Q-22.85 -84.3 -29.4 -86.15 -42.45 -89.9 -44.5 -102.55 L-44.3 -137.85 Q-44.85 -139.05 -44.85 -140.35 L-44.85 -140.45 -44.85 -140.55 -44.85 -140.65 Q-44.8 -141.8 -44.25 -142.85 L-44.2 -151.5 -44.15 -172.35 Q-44.45 -160.7 -44.1 -175.95 L-43.95 -200.45 -43.8 -231.9 -50.55 -235.05 -50.4 -258.75 -43.65 -262.0 -43.6 -265.05 -47.15 -263.35 -43.6 -265.8 -43.6 -269.3 -47.55 -266.55 -45.45 -301.3 -43.95 -301.05 -42.9 -300.85 -43.4 -300.95 -43.4 -307.65 -48.15 -307.65 -43.05 -307.75 -37.5 -307.65 -34.65 -307.55 -29.9 -307.15 -18.15 -283.65 15.6 -282.6 15.55 -282.55 -17.95 -283.6 -12.95 -282.55 Q-6.8 -281.1 -1.3 -278.9 6.55 -275.85 17.65 -266.55 L19.6 -263.8 30.0 -268.95 51.3 -258.75 51.35 -252.8 M29.4 80.65 L28.6 80.85 -1.7 83.55 Q-22.1 83.55 -36.5 79.75 -50.95 76.0 -50.95 70.55 L-50.95 70.2 -51.8 70.2 -44.7 58.25 Q-41.45 59.8 -36.3 61.1 -21.85 64.95 -1.45 64.95 L17.7 63.95 25.35 80.55 29.4 80.65 M48.35 -266.55 L25.4 -282.55 36.6 -299.7 46.2 -301.3 48.35 -266.55 M-50.6 50.95 L-50.75 51.7 -50.6 50.95 M-8.85 118.05 L-8.85 109.05 5.6 109.05 5.6 118.05 -8.85 118.05 M-44.4 302.0 L-44.4 237.4 -42.3 235.45 Q-39.75 233.45 -37.45 233.15 L-10.8 233.15 -10.8 301.5 -11.2 305.65 Q-12.3 310.1 -15.65 311.1 L-38.05 311.1 Q-39.65 310.45 -41.2 309.0 -44.4 306.0 -44.4 302.0 M43.15 302.0 Q43.15 306.0 40.0 309.0 L36.8 311.1 14.35 311.1 Q11.05 310.1 9.95 305.65 L9.5 301.5 9.5 233.15 36.25 233.15 Q40.0 233.65 43.15 237.4 L43.15 302.0" fill="#ffffff" fill-opacity="0.0" fill-rule="evenodd" stroke="none"/>
    <path d="M15.6 -282.6 L33.2 -308.7 34.0 -308.85 52.05 -310.95 52.05 -306.7 51.35 -252.8 51.3 -258.75 30.0 -268.95 19.6 -263.8 17.65 -266.55 Q6.55 -275.85 -1.3 -278.9 -6.8 -281.1 -12.95 -282.55 L-17.95 -283.6 15.55 -282.55 15.6 -282.6 M51.25 -234.95 L49.9 -107.35 47.55 -100.85 Q44.5 -93.5 40.85 -89.15 L31.15 -87.1 26.25 -86.2 8.35 -84.15 7.1 -84.05 7.15 -84.05 7.2 -84.1 Q14.6 -89.6 18.6 -100.2 L21.1 -109.7 21.1 -147.9 21.2 -147.95 21.1 -147.9 21.1 -203.85 Q25.45 -205.5 28.85 -207.8 L29.2 -208.05 29.4 -208.15 29.55 -208.3 30.3 -208.85 31.95 -210.2 33.7 -211.9 34.5 -212.85 Q36.65 -215.45 38.15 -218.5 44.35 -231.15 22.45 -241.85 L21.7 -242.2 21.1 -242.5 21.1 -246.15 Q32.9 -240.35 40.7 -230.05 L51.25 -234.95 M40.95 58.65 L46.2 67.6 Q46.9 68.25 47.4 69.45 L47.8 70.2 47.5 70.2 47.55 70.55 Q47.55 76.0 33.15 79.75 L29.4 80.65 25.35 80.55 17.7 63.95 Q26.25 63.0 33.35 61.1 37.85 59.95 40.95 58.65 M48.35 -266.55 L46.2 -301.3 36.6 -299.7 25.4 -282.55 48.35 -266.55" fill="#000000" fill-opacity="0.29803923" fill-rule="evenodd" stroke="none"/>
    <path d="M-41.55 -88.3 Q-47.3 -91.45 -49.75 -97.15 L-49.8 -97.3 -50.0 -97.8 -50.35 -98.75 Q-51.0 -100.55 -51.3 -102.55 L-50.55 -235.05 -43.8 -231.9 -43.95 -200.45 -44.1 -175.95 Q-44.45 -160.7 -44.15 -172.35 L-44.2 -151.5 -44.25 -142.85 Q-44.8 -141.8 -44.85 -140.65 L-44.85 -140.55 -44.85 -140.45 -44.85 -140.35 Q-44.85 -139.05 -44.3 -137.85 L-44.5 -102.55 Q-42.45 -89.9 -29.4 -86.15 -22.85 -84.3 -16.75 -84.95 L-1.6 -83.75 -2.05 -83.7 -3.15 -83.7 -4.25 -83.7 -5.05 -83.7 -5.1 -83.7 -5.1 -83.85 -7.9 -83.75 -9.05 -83.75 -10.9 -83.95 -14.6 -84.05 -14.7 -84.05 -23.5 -84.95 -24.8 -84.85 -25.2 -84.8 -25.4 -84.8 -25.45 -84.8 -26.35 -84.8 -26.4 -84.8 -30.25 -84.95 -31.15 -85.1 -31.35 -85.1 -34.0 -85.65 -35.8 -86.15 -38.25 -86.8 -39.2 -87.2 Q-40.45 -87.7 -41.55 -88.3 M-50.4 -258.75 L-50.2 -307.65 -48.15 -307.65 -43.4 -307.65 -43.4 -300.95 -43.95 -301.05 -45.45 -301.3 -47.55 -266.55 -43.6 -269.3 -43.6 -265.8 -47.15 -263.35 -43.6 -265.05 -43.65 -262.0 -50.4 -258.75" fill="#ffffff" fill-opacity="0.49803922" fill-rule="evenodd" stroke="none"/>
    <path d="M-8.85 118.05 L5.6 118.05 5.6 109.05 -8.85 109.05 -8.85 118.05 M-44.4 302.0 L-44.4 237.4 -42.3 235.45 Q-39.75 233.45 -37.45 233.15 L-10.8 233.15 -10.8 301.5 -11.2 305.65 Q-12.3 310.1 -15.65 311.1 L-38.05 311.1 Q-39.65 310.45 -41.2 309.0 -44.4 306.0 -44.4 302.0 M43.15 302.0 L43.15 237.4 Q40.0 233.65 36.25 233.15 L9.5 233.15 9.5 301.5 9.95 305.65 Q11.05 310.1 14.35 311.1 L36.8 311.1 40.0 309.0 Q43.15 306.0 43.15 302.0" fill="none" stroke="#000000" stroke-linecap="butt" stroke-linejoin="miter-clip" stroke-miterlimit="4.0" stroke-width="1.0"/>
    <path d="M15.6 -282.6 L33.2 -308.7 34.0 -308.85 52.05 -310.95 52.05 -306.7 51.35 -252.8 51.25 -234.95 49.9 -107.35 47.55 -100.85 Q44.5 -93.5 40.85 -89.15 L31.15 -87.1 26.25 -86.2 8.35 -84.15 7.1 -84.05 7.15 -84.05 7.2 -84.1 4.05 -83.9 -0.5 -83.75 -2.05 -83.7 -3.15 -83.7 -4.25 -83.7 -5.05 -83.7 -5.1 -83.7 -7.9 -83.75 -9.05 -83.75 -14.5 -84.05 -14.6 -84.05 -14.7 -84.05 -23.5 -84.95 -24.8 -84.85 -25.2 -84.8 -25.4 -84.8 -25.45 -84.8 -26.35 -84.8 -26.4 -84.8 -30.25 -84.95 -31.15 -85.1 -31.35 -85.1 -34.0 -85.65 -35.8 -86.15 -38.25 -86.8 -39.2 -87.2 Q-40.45 -87.7 -41.55 -88.3 -47.3 -91.45 -49.75 -97.15 L-49.8 -97.3 -50.0 -97.8 -50.35 -98.75 Q-51.0 -100.55 -51.3 -102.55 L-50.55 -235.05 -50.4 -258.75 -50.2 -307.65 -48.15 -307.65 -43.05 -307.75 -37.5 -307.65 -34.65 -307.55 -29.9 -307.15 -18.15 -283.65 15.6 -282.6 M37.5 -88.35 L36.25 -78.25 47.8 -78.2 47.8 -7.7 42.45 -6.75 Q37.45 -5.3 38.95 -2.85 41.35 1.15 49.35 7.5 L49.35 46.85 Q49.15 48.65 47.9 50.75 L47.7 51.05 47.8 51.95 Q47.8 55.7 40.95 58.65 L46.2 67.6 Q46.9 68.25 47.4 69.45 L47.8 70.2 47.5 70.2 47.55 70.55 Q47.55 76.0 33.15 79.75 L29.4 80.65 28.6 80.85 -1.7 83.55 Q-22.1 83.55 -36.5 79.75 -50.95 76.0 -50.95 70.55 L-50.95 70.2 -51.8 70.2 -44.7 58.25 Q-50.75 55.45 -50.75 51.95 L-50.75 51.7 -51.4 50.75 -52.95 46.85 -52.95 7.5 Q-44.95 1.15 -42.5 -2.85 -40.95 -5.3 -46.0 -6.75 L-51.35 -7.75 -51.35 -78.2 -40.35 -78.2 -40.35 -78.25 -41.55 -88.3 M-5.1 -83.85 L-5.1 -83.7 M-50.75 51.7 L-50.6 50.95 M17.7 63.95 L-1.45 64.95 Q-21.85 64.95 -36.3 61.1 -41.45 59.8 -44.7 58.25 M40.95 58.65 Q37.85 59.95 33.35 61.1 26.25 63.0 17.7 63.95" fill="none" stroke="#000000" stroke-linecap="butt" stroke-linejoin="miter-clip" stroke-miterlimit="4.0" stroke-opacity="0.6" stroke-width="1.0"/>
  </g>
</svg>
