<?xml version="1.0" encoding="UTF-8" standalone="no"?>
<svg xmlns:xlink="http://www.w3.org/1999/xlink" height="72.95px" width="48.2px" xmlns="http://www.w3.org/2000/svg">
  <g transform="matrix(1.0, 0.0, 0.0, 1.0, 24.1, 37.15)">
    <path d="M18.5 -36.65 L18.5 5.8 19.6 5.8 23.55 33.05 3.7 34.7 3.7 35.3 0.05 35.0 -3.7 35.3 -3.7 34.7 -23.55 33.05 -19.55 5.8 -18.4 5.8 -18.4 -36.65 18.5 -36.65" fill="#ffffff" fill-opacity="0.0" fill-rule="evenodd" stroke="none"/>
    <path d="M18.5 -36.65 L18.5 5.8 19.6 5.8 23.55 33.05 5.25 34.6 1.35 6.45 1.35 -36.65 18.5 -36.65" fill="#000000" fill-opacity="0.2" fill-rule="evenodd" stroke="none"/>
    <path d="M18.5 5.8 L18.5 -36.65 -18.4 -36.65 -18.4 5.8 18.5 5.8 19.6 5.8 23.55 33.05 3.7 34.7 3.7 35.3 0.05 35.0 -3.7 35.3 -3.7 34.7 -23.55 33.05 -19.55 5.8 -18.4 5.8" fill="none" stroke="#000000" stroke-linecap="round" stroke-linejoin="miter-clip" stroke-miterlimit="10.0" stroke-width="1.0"/>
  </g>
</svg>
