<?xml version="1.0" encoding="UTF-8" standalone="no"?>
<svg xmlns:xlink="http://www.w3.org/1999/xlink" height="474.95px" width="1947.55px" xmlns="http://www.w3.org/2000/svg">
  <g transform="matrix(1.0, 0.0, 0.0, 1.0, 975.5, 237.45)">
    <path d="M815.2 -72.95 L815.2 -106.0 640.7 -106.0 640.7 -72.95 640.7 11.75 640.7 81.65 815.2 81.65 815.2 11.75 919.2 11.75 815.2 11.75 815.2 -72.95 919.2 -72.95 815.2 -72.95 M-302.15 11.75 L640.7 11.75 -302.15 11.75 -302.15 -72.95 640.7 -72.95 -302.15 -72.95 -302.15 -106.0 -476.65 -106.0 -476.65 -72.95 -605.1 -72.95 -476.65 -72.95 -476.65 11.75 -476.65 81.65 -302.15 81.65 -302.15 11.75 M-605.1 11.75 L-476.65 11.75 -605.1 11.75 M-656.65 -171.25 L-656.65 -236.95 971.15 -236.95 971.15 219.75 -597.55 219.75 -597.55 237.0 -975.0 237.0 -975.0 110.4 -975.0 52.6 -975.0 -5.15 -975.0 -62.6 -975.0 -171.25 -656.65 -171.25 -656.65 -62.6 -656.65 -171.25 M-656.65 -5.15 L-656.65 -62.6 -656.65 -5.15 -656.65 52.6 -656.65 -5.15 -746.0 -5.15 -656.65 -5.15 M-656.65 110.4 L-656.65 52.6 -656.65 110.4 -656.65 219.75 -597.55 219.75 -656.65 219.75 -656.65 110.4 -975.0 110.4 -656.65 110.4 M-746.0 -5.15 L-746.0 -49.45 -876.8 -49.45 -876.8 -5.15 -975.0 -5.15 -876.8 -5.15 -876.8 52.6 -876.8 90.95 -746.0 90.95 -746.0 52.6 -746.0 -5.15 M-656.65 -62.6 L-975.0 -62.6 -656.65 -62.6 M-656.65 52.6 L-746.0 52.6 -656.65 52.6 M-876.8 52.6 L-975.0 52.6 -876.8 52.6 M919.2 96.45 L-605.1 96.45 919.2 96.45 M919.2 181.45 L-605.1 181.45 919.2 181.45" fill="#ffffff" fill-opacity="0.0" fill-rule="evenodd" stroke="none"/>
    <path d="M640.7 -72.95 L640.7 -106.0 815.2 -106.0 815.2 -72.95 815.2 11.75 815.2 81.65 640.7 81.65 640.7 11.75 640.7 -72.95 M-302.15 11.75 L-302.15 81.65 -476.65 81.65 -476.65 11.75 -476.65 -72.95 -476.65 -106.0 -302.15 -106.0 -302.15 -72.95 -302.15 11.75 M-876.8 -5.15 L-876.8 -49.45 -746.0 -49.45 -746.0 -5.15 -746.0 52.6 -746.0 90.95 -876.8 90.95 -876.8 52.6 -876.8 -5.15" fill="#ffffff" fill-opacity="0.29803923" fill-rule="evenodd" stroke="none"/>
    <path d="M-605.1 181.45 L919.2 181.45 M-605.1 96.45 L919.2 96.45" fill="none" stroke="#000000" stroke-linecap="butt" stroke-linejoin="miter-clip" stroke-miterlimit="4.0" stroke-opacity="0.24705882" stroke-width="1.0"/>
    <path d="M640.7 -72.95 L640.7 -106.0 815.2 -106.0 815.2 -72.95 815.2 11.75 815.2 81.65 640.7 81.65 640.7 11.75 640.7 -72.95 M-302.15 11.75 L-302.15 81.65 -476.65 81.65 -476.65 11.75 -476.65 -72.95 -476.65 -106.0 -302.15 -106.0 -302.15 -72.95 -302.15 11.75 M-656.65 -171.25 L-656.65 -236.95 971.15 -236.95 971.15 219.75 -597.55 219.75 -597.55 237.0 -975.0 237.0 -975.0 110.4 -975.0 52.6 -975.0 -5.15 -975.0 -62.6 -975.0 -171.25 -656.65 -171.25 -656.65 -62.6 -656.65 -5.15 -656.65 52.6 -656.65 110.4 -656.65 219.75 -597.55 219.75 M-876.8 -5.15 L-876.8 -49.45 -746.0 -49.45 -746.0 -5.15 -746.0 52.6 -746.0 90.95 -876.8 90.95 -876.8 52.6 -876.8 -5.15" fill="none" stroke="#000000" stroke-linecap="round" stroke-linejoin="miter-clip" stroke-miterlimit="4.0" stroke-width="1.0"/>
    <path d="M815.2 -72.95 L919.2 -72.95 M-476.65 11.75 L-605.1 11.75 M815.2 11.75 L919.2 11.75" fill="none" stroke="#000000" stroke-linecap="round" stroke-linejoin="miter-clip" stroke-miterlimit="4.0" stroke-opacity="0.24705882" stroke-width="1.0"/>
    <path d="M640.7 11.75 L-302.15 11.75 M640.7 -72.95 L-302.15 -72.95 M-746.0 -5.15 L-656.65 -5.15 M-975.0 -62.6 L-656.65 -62.6 M-975.0 -5.15 L-876.8 -5.15 M-746.0 52.6 L-656.65 52.6 M-975.0 52.6 L-876.8 52.6 M-975.0 110.4 L-656.65 110.4" fill="none" stroke="#000000" stroke-linecap="round" stroke-linejoin="miter-clip" stroke-miterlimit="4.0" stroke-opacity="0.24705882" stroke-width="1.0"/>
    <path d="M-605.1 -72.95 L-476.65 -72.95" fill="none" stroke="#000000" stroke-linecap="butt" stroke-linejoin="miter-clip" stroke-miterlimit="4.0" stroke-opacity="0.24705882" stroke-width="1.0"/>
    <path d="M971.55 219.75 L919.2 219.75 919.2 -236.95 971.55 -236.95 971.55 219.75 M-605.1 -236.95 L-605.1 219.75 -656.7 219.75 -656.7 -236.95 -605.1 -236.95" fill="#000000" fill-opacity="0.29803923" fill-rule="evenodd" stroke="none"/>
    <path d="M971.55 -236.95 L919.2 -236.95 919.2 219.75 971.55 219.75 M-605.1 -236.95 L-656.7 -236.95 -656.7 219.75 -605.1 219.75 -605.1 -236.95" fill="none" stroke="#000000" stroke-linecap="butt" stroke-linejoin="miter-clip" stroke-miterlimit="4.0" stroke-width="1.0"/>
  </g>
</svg>
