<?xml version="1.0" encoding="UTF-8" standalone="no"?>
<svg xmlns:xlink="http://www.w3.org/1999/xlink" height="464.0px" width="259.15px" xmlns="http://www.w3.org/2000/svg">
  <g transform="matrix(1.0, 0.0, 0.0, 1.0, 129.6, 232.0)">
    <path d="M129.45 160.95 Q128.25 177.4 120.2 193.65 112.0 210.1 100.35 218.5 69.35 241.1 8.2 225.85 -41.85 213.2 -79.5 187.0 -117.05 160.6 -126.65 130.95 -138.3 95.5 -104.2 66.2 -89.8 53.9 -88.25 41.4 -87.05 32.15 -93.4 18.4 L-104.35 -6.05 Q-109.65 -21.5 -106.4 -35.7 -103.7 -47.7 -89.1 -56.6 -72.35 -67.05 -67.7 -75.6 -60.7 -88.8 -65.8 -101.85 -69.25 -109.9 -81.9 -124.95 -109.15 -157.15 -105.4 -178.05 -103.5 -188.0 -94.95 -201.7 L-73.7 -232.0 Q-83.65 -206.85 -84.65 -203.4 -90.5 -183.35 -84.85 -173.45 -78.85 -162.65 -64.3 -159.9 -51.75 -157.7 -47.0 -141.05 -45.1 -134.9 -41.3 -111.95 -34.8 -94.3 -17.7 -105.75 -3.3 -115.35 -11.7 -140.7 -19.55 -164.35 -33.1 -170.2 -15.45 -172.25 -7.05 -168.45 2.55 -164.2 9.9 -148.95 17.25 -133.85 14.0 -125.3 11.8 -119.8 3.75 -103.35 -3.45 -80.25 17.45 -62.75 L36.1 -47.85 Q46.75 -38.45 51.0 -28.15 57.0 -14.3 61.1 31.6 64.9 72.05 77.05 88.65 82.0 95.35 105.3 113.85 123.65 128.25 127.9 143.3 130.0 150.5 129.45 160.95" fill="#f9b56f" fill-opacity="0.0" fill-rule="evenodd" stroke="none"/>
  </g>
</svg>
