<?xml version="1.0" encoding="UTF-8" standalone="no"?>
<svg xmlns:xlink="http://www.w3.org/1999/xlink" height="477.5px" width="546.65px" xmlns="http://www.w3.org/2000/svg">
  <g transform="matrix(1.0, 0.0, 0.0, 1.0, 273.4, 238.7)">
    <path d="M179.1 -228.1 L173.05 -233.7 155.45 -231.05 143.45 -235.4 158.5 -237.1 173.2 -238.2 202.85 -237.95 229.95 -236.1 264.4 -236.1 272.75 -234.7 252.4 -229.15 227.5 -230.9 206.55 -230.95 179.1 -228.1 M147.55 -220.95 L149.65 -218.85 191.8 -217.4 214.9 -216.0 216.5 -213.7 222.2 -215.55 236.45 -219.0 238.95 -219.2 233.55 -214.15 229.75 -208.65 229.95 -208.95 229.8 -209.35 199.1 -212.75 177.7 -209.5 168.1 -213.7 116.8 -217.15 116.0 -217.5 134.6 -220.1 145.75 -221.0 147.55 -220.95 M214.05 -217.5 L214.0 -217.5 213.35 -219.8 215.75 -221.9 220.1 -221.05 219.05 -218.6 217.85 -217.15 214.05 -217.5 M117.25 -203.1 L119.75 -203.3 149.35 -203.0 176.45 -200.5 210.9 -200.5 211.25 -200.4 203.75 -190.9 177.7 -193.25 161.9 -198.05 142.05 -195.55 122.2 -194.3 104.85 -198.05 90.7 -199.2 89.95 -199.6 108.55 -202.4 117.25 -203.1 M-267.55 212.35 L-267.6 212.35 -258.95 205.6 -258.0 205.6 -250.85 205.6 -232.25 205.6 -225.4 209.2 -209.05 216.4 -229.7 220.0 -245.2 220.9 -267.55 212.35 M-251.15 152.95 L-234.15 146.55 -231.5 150.7 -219.95 149.65 -218.45 146.95 -219.0 145.7 -111.45 148.75 -111.55 148.75 -110.5 148.75 -98.65 149.1 -96.8 147.85 -92.0 125.25 -91.0 124.9 -94.2 124.9 -98.2 122.85 -102.85 124.4 -117.5 125.9 -128.8 122.2 -132.5 121.95 -138.95 122.3 -145.9 121.15 -169.5 119.7 -169.8 119.75 -182.7 118.9 -191.5 117.35 -197.9 117.95 -221.6 115.3 -197.25 108.45 -192.75 108.15 -182.7 107.4 -175.2 108.8 -168.15 106.05 -161.95 107.05 -155.15 107.75 Q-154.7 107.55 -151.7 108.5 L-149.2 109.4 -148.85 109.5 -148.05 109.4 -130.05 107.1 -116.45 110.2 -116.7 109.4 -114.3 107.3 -112.95 107.65 -109.95 108.1 -110.95 110.45 -111.0 110.6 -112.2 112.05 -116.0 111.7 -116.05 111.7 -116.45 110.3 -116.45 110.2 -116.45 110.3 -116.05 111.7 -116.0 111.7 -115.9 112.15 -113.55 115.5 -107.85 113.65 -106.2 110.7 -107.9 109.55 -102.95 110.5 -91.45 110.15 -77.65 112.2 -79.45 112.45 -76.15 112.55 -50.05 112.2 -50.5 86.85 -51.55 87.55 -61.35 87.55 -61.45 87.5 -65.35 85.5 -70.0 87.05 -99.65 84.65 -106.1 85.0 -125.9 87.75 -134.55 85.15 -140.6 85.15 -146.6 83.6 -156.0 83.1 -163.55 80.55 -171.8 81.05 -188.75 77.95 -164.4 71.15 -154.8 70.45 -149.85 70.1 -142.35 71.45 -135.3 68.75 -129.1 69.75 -122.3 70.45 Q-121.85 70.25 -118.85 71.15 L-116.0 72.15 -97.2 69.75 -82.15 73.2 -75.15 72.15 -70.1 73.2 -58.6 72.85 -44.8 74.9 -50.55 84.7 -50.5 86.85 -50.55 84.7 -44.8 74.9 -14.9 74.45 -16.4 49.8 -26.2 49.8 -30.2 47.75 -34.85 49.3 -57.1 46.8 -64.1 43.4 -70.95 47.25 -93.05 42.75 -93.2 42.7 -93.2 42.75 -99.4 47.4 -105.4 47.4 -111.45 45.85 -120.85 45.35 -128.35 42.8 -136.65 43.3 -153.55 40.2 -129.25 33.35 -118.0 32.6 -114.7 32.35 -107.15 33.7 -100.15 31.0 -93.9 32.0 -87.1 32.7 Q-86.65 32.5 -83.7 33.4 L-80.85 34.4 -62.05 32.0 -47.0 35.45 -39.95 34.4 -34.95 35.45 -23.4 35.1 -9.65 37.15 -11.4 37.35 -1.35 38.05 -12.45 47.15 -12.55 47.2 -15.55 49.3 Q-7.7 44.6 3.6 35.8 12.9 28.6 22.1 20.55 22.8 21.9 25.55 24.1 27.55 25.65 27.65 28.65 L23.55 44.85 17.85 46.25 17.3 56.85 4.9 46.95 -7.05 56.15 -12.2 81.6 -27.75 78.1 -38.1 83.05 -36.05 114.85 -51.05 118.4 -65.05 123.35 -66.6 133.25 -71.25 126.9 -85.25 142.45 -91.45 162.25 -116.5 161.2 -114.95 160.15 -116.5 161.2 -126.3 161.2 -126.35 161.8 -126.65 164.8 -134.95 160.65 -149.6 162.2 -160.9 158.5 -164.6 158.25 -171.05 158.6 -178.0 157.45 -201.6 156.0 -201.9 156.05 -202.7 155.9 -214.75 155.2 -222.95 158.1 -229.95 154.3 -230.0 154.25 -251.15 152.95 M-236.05 141.55 L-228.7 138.95 -226.0 139.45 -223.05 139.95 -220.1 143.05 -222.75 144.65 -226.9 146.5 -234.25 145.25 -236.05 141.55 M-110.9 5.85 L-89.65 -2.4 -86.9 -2.6 -87.0 -1.7 37.45 1.95 36.85 2.4 37.5 1.95 39.2 0.75 43.9 -21.9 44.85 -22.25 61.5 -28.4 59.3 -34.6 61.5 -28.4 44.85 -22.25 41.75 -22.25 37.85 -24.3 33.35 -22.75 19.05 -21.2 8.1 -24.95 4.5 -25.2 -1.75 -24.8 -8.5 -26.0 -31.5 -27.45 -31.75 -27.4 -44.3 -28.25 -52.85 -29.8 -59.1 -29.2 -82.1 -31.85 -58.45 -38.7 -53.95 -39.0 -44.3 -39.7 -37.0 -38.35 -30.2 -41.1 -24.15 -40.1 -17.5 -39.35 Q-17.05 -39.55 -14.15 -38.65 L-11.4 -37.65 6.9 -40.05 20.9 -36.8 21.5 -36.65 22.3 -36.75 28.35 -37.65 33.2 -36.65 44.45 -37.0 57.85 -34.9 56.1 -34.7 59.3 -34.6 84.65 -34.9 84.25 -60.3 84.2 -62.45 89.8 -72.25 84.2 -62.45 84.25 -60.3 83.2 -59.6 73.7 -59.6 69.8 -61.65 65.3 -60.1 36.45 -62.5 30.15 -62.15 10.9 -59.4 2.5 -61.95 -3.35 -61.95 -9.2 -63.5 -18.35 -64.05 -25.65 -66.6 -33.7 -66.1 -50.15 -69.15 -26.5 -76.0 -17.95 -76.6 -12.4 -77.05 -6.9 -76.0 -5.05 -75.65 -4.5 -75.85 1.75 -78.4 7.8 -77.4 14.45 -76.7 Q14.9 -76.9 17.75 -76.0 L20.55 -75.0 38.8 -77.4 53.45 -73.95 60.3 -75.0 65.15 -73.95 76.35 -74.3 89.8 -72.25 104.95 -69.6 103.5 -94.25 113.75 -100.4 137.15 -104.75 113.75 -100.4 103.5 -94.25 94.0 -94.25 90.1 -96.3 99.1 -97.8 99.45 -97.85 99.0 -97.9 73.1 -100.25 30.85 -99.75 25.0 -101.25 15.85 -101.8 8.55 -104.35 0.5 -103.85 -15.95 -106.9 7.7 -113.75 18.1 -114.5 21.8 -114.8 29.15 -113.4 35.95 -116.15 42.0 -115.15 48.65 -114.45 Q49.1 -114.65 51.95 -113.75 L54.75 -112.75 73.0 -115.15 87.65 -111.7 94.5 -112.75 99.35 -111.7 96.65 -108.95 110.1 -106.9 108.35 -106.7 137.15 -104.75 141.5 -105.6 141.5 -105.65 141.8 -109.05 142.3 -117.05 142.4 -127.05 142.35 -128.35 142.25 -130.2 132.75 -130.2 128.85 -132.25 124.35 -130.7 110.55 -132.1 103.25 -135.8 103.15 -135.85 102.15 -135.85 83.7 -136.6 74.9 -133.9 67.6 -136.6 63.75 -137.2 55.9 -136.6 43.7 -134.55 35.4 -134.55 24.2 -139.35 46.45 -149.7 52.3 -150.1 58.25 -150.55 59.95 -147.85 68.3 -148.6 69.0 -149.8 74.75 -152.1 80.8 -151.1 87.4 -150.4 Q87.85 -150.6 90.75 -149.7 L93.5 -148.7 112.5 -144.6 119.35 -145.6 124.2 -144.6 135.45 -144.95 148.85 -142.85 147.1 -142.65 172.15 -141.85 171.7 -139.55 152.5 -136.35 147.55 -133.35 152.5 -136.35 171.7 -139.55 172.15 -141.85 176.4 -165.15 166.9 -165.15 163.0 -167.2 158.5 -165.65 136.85 -168.15 120.5 -166.4 115.55 -169.05 103.9 -168.45 94.15 -170.5 77.85 -169.5 69.55 -169.5 58.45 -174.3 59.2 -174.25 Q60.85 -174.5 65.25 -176.9 L72.2 -180.75 Q75.3 -182.2 80.95 -183.75 L87.0 -185.5 86.35 -179.05 96.6 -174.7 102.5 -176.9 101.25 -181.8 103.35 -181.45 108.75 -181.1 114.1 -180.6 123.05 -181.4 132.0 -182.95 146.65 -179.5 153.5 -180.55 158.35 -179.5 169.55 -179.85 183.0 -177.8 186.65 -171.3 176.4 -165.15 186.65 -171.3 194.55 -145.5 181.6 -157.95 177.6 -122.55 167.0 -133.9 163.5 -125.4 154.4 -131.75 145.35 -128.95 149.9 -95.7 142.35 -99.25 136.8 -97.8 136.3 -87.2 124.2 -97.1 112.6 -87.9 107.6 -62.45 92.45 -66.0 96.3 -64.1 98.3 -32.3 83.7 -28.75 70.1 -23.8 68.6 -13.9 64.05 -20.25 50.45 -4.7 44.4 15.1 20.05 14.05 21.45 13.1 20.05 14.05 10.55 14.05 10.2 17.65 2.15 13.55 -12.15 15.1 -23.1 11.35 -26.7 11.1 -33.0 11.5 -39.7 10.3 -62.7 8.85 -62.95 8.9 -75.5 8.05 -83.45 10.95 -90.3 7.1 -110.9 5.85 M87.85 -188.15 L89.4 -191.5 89.7 -191.5 95.25 -191.5 100.4 -185.0 95.85 -182.85 92.45 -182.3 87.5 -187.4 87.85 -188.15 M-117.6 220.9 L-115.55 222.3 -115.15 222.6 -108.7 228.05 -124.5 231.3 -136.65 229.3 -139.6 223.15 -127.5 218.95 -118.2 220.5 -117.6 220.9 M146.75 -132.9 L142.25 -130.2 146.75 -132.9 147.05 -133.05 147.55 -133.35 147.4 -133.3 146.75 -132.9 M24.6 10.9 L36.85 2.4 24.6 10.9 24.45 10.95 22.8 12.15 22.25 12.5 21.45 13.1 23.4 11.75 24.6 10.9 M56.65 -154.45 L62.0 -156.35 66.05 -155.65 68.2 -153.4 66.3 -152.25 63.3 -150.9 58.0 -151.8 56.65 -154.45 M-15.55 49.3 L-16.4 49.8 -15.55 49.3 M-76.15 112.55 L-73.9 118.7 -91.0 124.9 -73.9 118.7 -76.15 112.55 M-111.8 158.05 L-98.65 149.1 -111.8 158.05 -112.0 158.1 -113.65 159.3 -114.25 159.65 -114.95 160.15 -113.9 159.45 -113.4 159.1 -111.8 158.05" fill="#ffffff" fill-opacity="0.24705882" fill-rule="evenodd" stroke="none"/>
    <path d="M155.45 -231.05 L154.45 -230.9 156.8 -221.6 171.65 -221.15 172.3 -224.9 179.55 -220.2 179.1 -228.1 206.55 -230.95 227.5 -230.9 252.4 -229.15 248.4 -228.1 238.95 -219.2 248.4 -228.1 252.4 -229.15 272.75 -234.7 272.6 -216.0 252.15 -198.35 241.9 -184.4 241.4 -184.2 178.95 -85.35 177.0 -35.65 137.05 -6.4 130.2 42.3 131.2 88.1 82.45 159.25 57.6 165.1 Q26.6 172.6 -4.3 180.7 -39.0 189.85 -64.1 201.75 -71.35 205.2 -76.25 208.05 L-75.8 206.9 -47.1 135.6 -8.4 94.1 1.95 84.7 Q4.7 82.2 11.3 74.2 18.95 64.8 18.55 62.95 18.15 61.25 32.35 46.4 L55.0 23.15 56.65 22.45 87.55 -11.55 111.25 -49.95 121.35 -59.4 Q124.0 -61.85 130.4 -69.85 137.9 -79.25 137.45 -81.05 137.05 -82.85 140.9 -85.9 L144.85 -88.6 154.25 -90.5 158.3 -109.35 171.7 -115.05 Q174.25 -115.5 176.9 -116.45 182.3 -118.3 183.15 -120.7 183.95 -123.05 189.65 -133.4 L195.2 -143.3 195.0 -144.0 198.2 -144.4 213.05 -156.5 226.1 -164.85 232.6 -176.95 236.3 -182.55 241.4 -184.2 236.3 -182.55 232.6 -176.95 226.1 -164.85 213.05 -156.5 198.2 -144.4 195.0 -144.0 195.2 -143.3 189.65 -133.4 Q183.95 -123.05 183.15 -120.7 182.3 -118.3 176.9 -116.45 174.25 -115.5 171.7 -115.05 L158.3 -109.35 154.25 -90.5 144.85 -88.6 140.9 -85.9 Q137.05 -82.85 137.45 -81.05 137.9 -79.25 130.4 -69.85 124.0 -61.85 121.35 -59.4 L111.25 -49.95 87.55 -11.55 56.65 22.45 55.0 23.15 32.35 46.4 Q18.15 61.25 18.55 62.95 18.95 64.8 11.3 74.2 4.7 82.2 1.95 84.7 L-8.4 94.1 -47.1 135.6 -75.8 206.9 -76.3 208.05 -76.7 209.05 -79.6 216.25 -97.5 221.2 -107.85 227.8 -108.7 228.05 -113.05 236.5 -132.1 238.25 -137.1 230.45 -137.5 229.25 -201.25 227.45 -199.55 229.9 -226.25 233.5 -272.75 226.3 -269.3 213.7 -267.55 212.35 -245.2 220.9 -229.7 220.0 -209.05 216.4 -202.45 225.75 -200.25 225.55 -189.1 226.15 -174.85 225.55 -197.8 217.45 -212.05 207.55 -174.25 208.8 -213.9 193.9 -222.0 188.3 -231.3 189.55 -248.05 181.5 -246.8 200.1 -257.95 204.45 -250.85 205.6 -258.0 205.6 -256.45 158.1 -251.15 152.95 -230.0 154.25 -229.95 154.3 -251.15 153.6 -256.45 158.7 -240.6 162.3 -231.3 169.7 -228.8 166.0 -223.85 169.7 Q-223.2 184.0 -222.6 185.85 -222.0 187.7 -218.9 168.5 L-215.8 162.3 -205.85 160.4 -196.55 162.3 -188.5 168.5 -190.35 161.65 -177.95 166.0 -156.85 170.35 -158.7 164.75 -145.1 169.1 -132.05 185.2 -138.9 169.7 -134.55 167.25 -124.6 170.95 -126.3 161.8 -126.35 161.8 -126.3 161.2 -116.5 161.2 -91.45 162.25 -85.25 142.45 -71.25 126.9 -66.6 133.25 -65.05 123.35 -51.05 118.4 -36.05 114.85 -38.1 83.05 -27.75 78.1 -12.2 81.6 -7.05 56.15 4.9 46.95 17.3 56.85 17.85 46.25 23.55 44.85 27.65 28.65 Q27.55 25.65 25.55 24.1 22.8 21.9 22.1 20.55 12.9 28.6 3.6 35.8 -7.7 44.6 -15.55 49.3 L-12.55 47.2 -12.45 47.15 -1.35 38.05 0.35 36.55 Q15.6 23.15 20.35 19.4 L20.05 14.05 20.35 19.4 Q15.6 23.15 0.35 36.55 L-1.35 38.05 -11.4 37.35 -9.65 37.15 -23.4 35.1 -34.95 35.45 -39.95 34.4 -47.0 35.45 -62.05 32.0 -80.85 34.4 -83.7 33.4 Q-86.65 32.5 -87.1 32.7 L-93.9 32.0 -100.15 31.0 -107.15 33.7 -114.7 32.35 -118.0 32.6 -116.0 10.95 -110.9 5.85 -90.3 7.1 -83.45 10.95 -75.5 8.05 -62.95 8.9 -62.7 8.85 -39.7 10.3 -33.0 11.5 -26.7 11.1 -23.1 11.35 -12.15 15.1 2.15 13.55 10.2 17.65 10.55 14.05 20.05 14.05 44.4 15.1 50.45 -4.7 64.05 -20.25 68.6 -13.9 70.1 -23.8 83.7 -28.75 98.3 -32.3 96.3 -64.1 92.45 -66.0 107.6 -62.45 112.6 -87.9 124.2 -97.1 136.3 -87.2 136.8 -97.8 142.35 -99.25 149.9 -95.7 145.35 -128.95 154.4 -131.75 163.5 -125.4 167.0 -133.9 177.6 -122.55 181.6 -157.95 194.55 -145.5 186.65 -171.3 183.0 -177.8 169.55 -179.85 158.35 -179.5 153.5 -180.55 146.65 -179.5 132.0 -182.95 123.05 -181.4 114.1 -180.6 108.75 -181.1 103.35 -181.45 101.25 -181.8 102.5 -176.9 96.6 -174.7 86.35 -179.05 87.0 -185.5 87.1 -186.6 87.85 -188.15 87.5 -187.4 92.45 -182.3 95.85 -182.85 100.4 -185.0 95.25 -191.5 89.7 -191.5 89.95 -199.3 90.7 -199.2 104.85 -198.05 122.2 -194.3 142.05 -195.55 161.9 -198.05 177.7 -193.25 203.75 -190.9 211.25 -200.4 210.9 -200.5 176.45 -200.5 149.35 -203.0 119.75 -203.3 117.25 -203.1 115.55 -205.2 116.0 -217.2 116.8 -217.15 168.1 -213.7 177.7 -209.5 199.1 -212.75 229.8 -209.35 229.95 -208.95 229.75 -208.65 233.55 -214.15 238.95 -219.2 236.45 -219.0 222.2 -215.55 223.85 -218.5 220.1 -221.05 223.85 -218.5 222.2 -215.55 216.5 -213.7 214.9 -216.0 191.8 -217.4 149.65 -218.85 147.55 -220.95 143.0 -225.5 143.45 -235.4 155.45 -231.05 M214.05 -217.5 L214.15 -217.05 214.9 -216.0 214.15 -217.05 214.05 -217.5 217.85 -217.15 219.05 -218.6 220.1 -221.05 215.75 -221.9 213.35 -219.8 214.0 -217.5 214.05 -217.5 M229.75 -208.65 L225.15 -202.05 214.0 -203.95 211.25 -200.4 214.0 -203.95 225.15 -202.05 229.75 -208.65 M-234.15 146.55 L-234.55 145.95 -236.05 141.55 -234.25 145.25 -226.9 146.5 -222.75 144.65 -220.1 143.05 -223.05 139.95 -226.0 139.45 -224.35 121.8 -221.6 115.3 -197.9 117.95 -191.5 117.35 -182.7 118.9 -169.8 119.75 -169.5 119.7 -145.9 121.15 -138.95 122.3 -132.5 121.95 -128.8 122.2 -117.5 125.9 -102.85 124.4 -98.2 122.85 -94.2 124.9 -91.0 124.9 -92.0 125.25 -96.8 147.85 -98.65 149.1 -110.5 148.75 -111.45 148.75 -219.0 145.7 -218.45 146.95 -219.95 149.65 -231.5 150.7 -234.15 146.55 M-192.75 108.15 L-193.75 108.1 -191.5 84.5 -188.75 77.95 -171.8 81.05 -163.55 80.55 -156.0 83.1 -146.6 83.6 -140.6 85.15 -134.55 85.15 -125.9 87.75 -106.1 85.0 -99.65 84.65 -70.0 87.05 -65.35 85.5 -61.45 87.5 -61.35 87.55 -51.55 87.55 -50.5 86.85 -50.05 112.2 -76.15 112.55 -79.45 112.45 -77.65 112.2 -91.45 110.15 -102.95 110.5 -107.9 109.55 -109.95 108.1 -107.9 109.55 -106.2 110.7 -107.85 113.65 -113.55 115.5 -115.9 112.15 -116.0 111.7 -112.2 112.05 -111.0 110.6 -110.95 110.45 -109.95 108.1 -112.95 107.65 -114.3 107.3 -116.7 109.4 -116.45 110.2 -130.05 107.1 -148.05 109.4 -149.2 109.4 -151.7 108.5 Q-154.7 107.55 -155.15 107.75 L-161.95 107.05 -168.15 106.05 -175.2 108.8 -182.7 107.4 -192.75 108.15 M-154.8 70.45 L-158.6 70.65 -156.3 46.75 -153.55 40.2 -136.65 43.3 -128.35 42.8 -120.85 45.35 -111.45 45.85 -105.4 47.4 -99.4 47.4 -93.2 42.75 -93.05 42.75 -70.95 47.25 -64.1 43.4 -57.1 46.8 -34.85 49.3 -30.2 47.75 -26.2 49.8 -16.4 49.8 -14.9 74.45 -44.8 74.9 -58.6 72.85 -70.1 73.2 -75.15 72.15 -82.15 73.2 -97.2 69.75 -116.0 72.15 -118.85 71.15 Q-121.85 70.25 -122.3 70.45 L-129.1 69.75 -135.3 68.75 -142.35 71.45 -149.85 70.1 -154.8 70.45 M-86.9 -2.6 L-84.8 -25.35 -82.1 -31.85 -59.1 -29.2 -52.85 -29.8 -44.3 -28.25 -31.75 -27.4 -31.5 -27.45 -8.5 -26.0 -1.75 -24.8 4.5 -25.2 8.1 -24.95 19.05 -21.2 33.35 -22.75 37.85 -24.3 41.75 -22.25 44.85 -22.25 43.9 -21.9 39.2 0.75 37.5 1.95 37.45 1.95 -87.0 -1.7 -86.9 -2.6 M-53.95 -39.0 L-55.05 -39.05 -52.85 -62.65 -50.15 -69.15 -33.7 -66.1 -25.65 -66.6 -18.35 -64.05 -9.2 -63.5 -3.35 -61.95 2.5 -61.95 10.9 -59.4 30.15 -62.15 36.45 -62.5 65.3 -60.1 69.8 -61.65 73.7 -59.6 83.2 -59.6 84.25 -60.3 84.65 -34.9 59.3 -34.6 56.1 -34.7 57.85 -34.9 44.45 -37.0 33.2 -36.65 28.35 -37.65 22.3 -36.75 20.9 -36.8 6.9 -40.05 -11.4 -37.65 -14.15 -38.65 Q-17.05 -39.55 -17.5 -39.35 L-24.15 -40.1 -30.2 -41.1 -37.0 -38.35 -44.3 -39.7 -53.95 -39.0 M-17.95 -76.6 L-20.85 -76.8 -18.65 -100.4 -15.95 -106.9 0.5 -103.85 8.55 -104.35 15.85 -101.8 25.0 -101.25 30.85 -99.75 73.1 -100.25 99.0 -97.9 99.1 -97.8 90.1 -96.3 94.0 -94.25 103.5 -94.25 104.95 -69.6 89.8 -72.25 76.35 -74.3 65.15 -73.95 60.3 -75.0 53.45 -73.95 38.8 -77.4 20.55 -75.0 17.75 -76.0 Q14.9 -76.9 14.45 -76.7 L7.8 -77.4 1.75 -78.4 -4.5 -75.85 -6.9 -76.0 -12.4 -77.05 -17.95 -76.6 M18.1 -114.5 L20.1 -136.35 24.2 -139.35 35.4 -134.55 43.7 -134.55 55.9 -136.6 63.75 -137.2 67.6 -136.6 74.9 -133.9 83.7 -136.6 102.15 -135.85 103.25 -135.8 110.55 -132.1 124.35 -130.7 128.85 -132.25 132.75 -130.2 142.25 -130.2 142.35 -128.35 142.4 -127.05 142.3 -117.05 141.8 -109.05 141.5 -105.65 141.5 -105.6 137.15 -104.75 108.35 -106.7 110.1 -106.9 96.65 -108.95 99.35 -111.7 94.5 -112.75 87.65 -111.7 73.0 -115.15 54.75 -112.75 51.95 -113.75 Q49.1 -114.65 48.65 -114.45 L42.0 -115.15 35.95 -116.15 29.15 -113.4 21.8 -114.8 18.1 -114.5 M52.3 -150.1 L54.25 -171.3 58.35 -174.3 58.45 -174.3 69.55 -169.5 77.85 -169.5 94.15 -170.5 103.9 -168.45 115.55 -169.05 120.5 -166.4 136.85 -168.15 158.5 -165.65 163.0 -167.2 166.9 -165.15 176.4 -165.15 172.15 -141.85 147.1 -142.65 148.85 -142.85 135.45 -144.95 124.2 -144.6 119.35 -145.6 112.5 -144.6 93.5 -148.7 90.75 -149.7 Q87.85 -150.6 87.4 -150.4 L80.8 -151.1 74.75 -152.1 69.0 -149.8 68.3 -148.6 59.95 -147.85 58.25 -150.55 52.3 -150.1 M-117.6 220.9 L-122.75 204.45 -118.4 194.5 -116.05 181.8 -116.5 161.2 -116.05 181.8 -118.4 194.5 -122.75 204.45 -117.6 220.9 -118.2 220.5 -127.5 218.95 -139.6 223.15 -136.65 229.3 -124.5 231.3 -108.7 228.05 -115.15 222.6 -115.55 222.3 -117.6 220.9 M-137.5 229.25 L-139.6 223.15 -137.5 229.25 M101.25 -181.8 L100.4 -185.0 101.25 -181.8 M56.65 -154.45 L57.75 -151.3 58.25 -150.55 57.75 -151.3 56.65 -154.45 58.0 -151.8 63.3 -150.9 66.3 -152.25 68.2 -153.4 66.05 -155.65 62.0 -156.35 56.65 -154.45 M69.0 -149.8 L69.4 -150.55 68.2 -153.4 69.4 -150.55 69.0 -149.8 M183.0 -177.8 L198.2 -180.7 207.8 -180.65 203.75 -190.9 207.8 -180.65 198.2 -180.7 183.0 -177.8 M-219.0 145.7 L-220.1 143.05 -219.0 145.7 M-201.25 227.45 L-202.45 225.75 -201.25 227.45" fill="#ffffff" fill-opacity="0.0" fill-rule="evenodd" stroke="none"/>
    <path d="M179.1 -228.1 L179.55 -220.2 172.3 -224.9 171.65 -221.15 156.8 -221.6 154.45 -230.9 155.45 -231.05 173.05 -233.7 179.1 -228.1 M-126.35 161.8 L-126.3 161.8 -124.6 170.95 -134.55 167.25 -138.9 169.7 -132.05 185.2 -145.1 169.1 -158.7 164.75 -156.85 170.35 -177.95 166.0 -190.35 161.65 -188.5 168.5 -196.55 162.3 -205.85 160.4 -215.8 162.3 -218.9 168.5 Q-222.0 187.7 -222.6 185.85 -223.2 184.0 -223.85 169.7 L-228.8 166.0 -231.3 169.7 -240.6 162.3 -256.45 158.7 -251.15 153.6 -229.95 154.3 -222.95 158.1 -214.75 155.2 -202.7 155.9 -201.9 156.05 -201.6 156.0 -178.0 157.45 -171.05 158.6 -164.6 158.25 -160.9 158.5 -149.6 162.2 -134.95 160.65 -126.65 164.8 -126.35 161.8 M-250.85 205.6 L-257.95 204.45 -246.8 200.1 -248.05 181.5 -231.3 189.55 -222.0 188.3 -213.9 193.9 -174.25 208.8 -212.05 207.55 -197.8 217.45 -174.85 225.55 -189.1 226.15 -200.25 225.55 -202.45 225.75 -209.05 216.4 -225.4 209.2 -232.25 205.6 -250.85 205.6" fill="#000000" fill-opacity="0.29803923" fill-rule="evenodd" stroke="none"/>
    <path d="M146.75 -132.9 L147.4 -133.3 147.55 -133.35 147.05 -133.05 147.4 -133.3 147.05 -133.05 146.75 -132.9 M24.6 10.9 L23.4 11.75 21.45 13.1 22.25 12.5 22.8 12.15 24.45 10.95 24.6 10.9 M99.0 -97.9 L99.45 -97.85 99.1 -97.8 99.0 -97.9 M-75.8 206.9 L-76.25 208.05 -76.3 208.05 -75.8 206.9 M23.4 11.75 L22.8 12.15 23.4 11.75 M-113.4 159.1 L-113.9 159.45 -113.65 159.3 -113.4 159.1" fill="#b7b7b7" fill-rule="evenodd" stroke="none"/>
    <path d="M37.5 1.95 L36.85 2.4 37.45 1.95 37.5 1.95" fill="#dadada" fill-rule="evenodd" stroke="none"/>
    <path d="M179.1 -228.1 L173.05 -233.7 155.45 -231.05 M147.55 -220.95 L149.65 -218.85 191.8 -217.4 214.9 -216.0 214.15 -217.05 214.05 -217.5 214.0 -217.5 213.35 -219.8 215.75 -221.9 220.1 -221.05 223.85 -218.5 222.2 -215.55 236.45 -219.0 238.95 -219.2 248.4 -228.1 252.4 -229.15 227.5 -230.9 206.55 -230.95 179.1 -228.1 M116.8 -217.15 L168.1 -213.7 177.7 -209.5 199.1 -212.75 229.8 -209.35 229.95 -208.95 M229.75 -208.65 L233.55 -214.15 238.95 -219.2 M214.05 -217.5 L217.85 -217.15 219.05 -218.6 220.1 -221.05 M222.2 -215.55 L216.5 -213.7 214.9 -216.0 M211.25 -200.4 L214.0 -203.95 225.15 -202.05 229.75 -208.65 M252.4 -229.15 L272.75 -234.7 M241.9 -184.4 L241.4 -184.2 236.3 -182.55 232.6 -176.95 226.1 -164.85 213.05 -156.5 198.2 -144.4 195.0 -144.0 195.2 -143.3 189.65 -133.4 Q183.95 -123.05 183.15 -120.7 182.3 -118.3 176.9 -116.45 174.25 -115.5 171.7 -115.05 L158.3 -109.35 154.25 -90.5 144.85 -88.6 140.9 -85.9 Q137.05 -82.85 137.45 -81.05 137.9 -79.25 130.4 -69.85 124.0 -61.85 121.35 -59.4 L111.25 -49.95 87.55 -11.55 56.65 22.45 55.0 23.15 32.35 46.4 Q18.15 61.25 18.55 62.95 18.95 64.8 11.3 74.2 4.7 82.2 1.95 84.7 L-8.4 94.1 -47.1 135.6 -75.8 206.9 -76.25 208.05 -76.7 209.05 -76.3 208.05 -75.8 206.9 M-107.85 227.8 L-108.7 228.05 -124.5 231.3 -136.65 229.3 -139.6 223.15 -137.5 229.25 -137.1 230.45 M-269.3 213.7 L-267.55 212.35 -267.6 212.35 M-258.95 205.6 L-258.0 205.6 -250.85 205.6 -232.25 205.6 -225.4 209.2 -209.05 216.4 -202.45 225.75 -201.25 227.45 M-234.15 146.55 L-234.55 145.95 M-192.75 108.15 L-193.75 108.1 M-154.8 70.45 L-158.6 70.65 M-53.95 -39.0 L-55.05 -39.05 M-17.95 -76.6 L-20.85 -76.8 M58.35 -174.3 L58.45 -174.3 59.2 -174.25 M87.1 -186.6 L87.85 -188.15 87.5 -187.4 92.45 -182.3 95.85 -182.85 100.4 -185.0 95.25 -191.5 89.7 -191.5 89.4 -191.5 M89.95 -199.3 L90.7 -199.2 104.85 -198.05 122.2 -194.3 142.05 -195.55 161.9 -198.05 177.7 -193.25 203.75 -190.9 211.25 -200.4 M116.0 -217.2 L116.8 -217.15 M186.65 -171.3 L183.0 -177.8 169.55 -179.85 158.35 -179.5 153.5 -180.55 146.65 -179.5 132.0 -182.95 123.05 -181.4 114.1 -180.6 108.75 -181.1 103.35 -181.45 101.25 -181.8 102.5 -176.9 96.6 -174.7 86.35 -179.05 87.0 -185.5 M58.45 -174.3 L69.55 -169.5 77.85 -169.5 94.15 -170.5 103.9 -168.45 115.55 -169.05 120.5 -166.4 136.85 -168.15 158.5 -165.65 163.0 -167.2 166.9 -165.15 176.4 -165.15 186.65 -171.3 M20.05 14.05 L20.35 19.4 Q15.6 23.15 0.35 36.55 L-1.35 38.05 -12.45 47.15 -12.55 47.2 -15.55 49.3 -16.4 49.8 -26.2 49.8 -30.2 47.75 -34.85 49.3 -57.1 46.8 -64.1 43.4 -70.95 47.25 -93.05 42.75 -93.2 42.75 -93.2 42.7 -93.05 42.75 M-116.5 161.2 L-116.05 181.8 -118.4 194.5 -122.75 204.45 -117.6 220.9 -115.55 222.3 -115.15 222.6 -108.7 228.05 M100.4 -185.0 L101.25 -181.8 M172.15 -141.85 L147.1 -142.65 148.85 -142.85 135.45 -144.95 124.2 -144.6 119.35 -145.6 112.5 -144.6 93.5 -148.7 90.75 -149.7 Q87.85 -150.6 87.4 -150.4 L80.8 -151.1 74.75 -152.1 69.0 -149.8 68.3 -148.6 59.95 -147.85 58.25 -150.55 52.3 -150.1 M102.15 -135.85 L103.25 -135.8 103.15 -135.85 102.15 -135.85 83.7 -136.6 74.9 -133.9 67.6 -136.6 63.75 -137.2 55.9 -136.6 43.7 -134.55 35.4 -134.55 24.2 -139.35 M103.25 -135.8 L110.55 -132.1 124.35 -130.7 128.85 -132.25 132.75 -130.2 142.25 -130.2 146.75 -132.9 147.4 -133.3 147.55 -133.35 152.5 -136.35 171.7 -139.55 172.15 -141.85 176.4 -165.15 M137.15 -104.75 L108.35 -106.7 110.1 -106.9 96.65 -108.95 99.35 -111.7 94.5 -112.75 87.65 -111.7 73.0 -115.15 54.75 -112.75 51.95 -113.75 Q49.1 -114.65 48.65 -114.45 L42.0 -115.15 35.95 -116.15 29.15 -113.4 21.8 -114.8 18.1 -114.5 M147.05 -133.05 L147.55 -133.35 M147.4 -133.3 L147.05 -133.05 146.75 -132.9 M142.25 -130.2 L142.35 -128.35 142.4 -127.05 142.3 -117.05 141.8 -109.05 141.5 -105.65 141.5 -105.6 137.15 -104.75 113.75 -100.4 103.5 -94.25 104.95 -69.6 89.8 -72.25 84.2 -62.45 84.25 -60.3 84.65 -34.9 59.3 -34.6 61.5 -28.4 44.85 -22.25 43.9 -21.9 39.2 0.75 37.5 1.95 36.85 2.4 24.6 10.9 24.45 10.95 22.8 12.15 23.4 11.75 21.45 13.1 20.05 14.05 10.55 14.05 10.2 17.65 2.15 13.55 -12.15 15.1 -23.1 11.35 -26.7 11.1 -33.0 11.5 -39.7 10.3 -62.7 8.85 -62.95 8.9 -75.5 8.05 -83.45 10.95 -90.3 7.1 -110.9 5.85 M58.25 -150.55 L57.75 -151.3 56.65 -154.45 62.0 -156.35 66.05 -155.65 68.2 -153.4 69.4 -150.55 69.0 -149.8 M56.65 -154.45 L58.0 -151.8 63.3 -150.9 66.3 -152.25 68.2 -153.4 M-15.95 -106.9 L0.5 -103.85 8.55 -104.35 15.85 -101.8 25.0 -101.25 30.85 -99.75 73.1 -100.25 99.0 -97.9 99.45 -97.85 99.1 -97.8 90.1 -96.3 94.0 -94.25 103.5 -94.25 M-50.15 -69.15 L-33.7 -66.1 -25.65 -66.6 -18.35 -64.05 -9.2 -63.5 -3.35 -61.95 2.5 -61.95 10.9 -59.4 30.15 -62.15 36.45 -62.5 65.3 -60.1 69.8 -61.65 73.7 -59.6 83.2 -59.6 84.25 -60.3 M89.8 -72.25 L76.35 -74.3 65.15 -73.95 60.3 -75.0 53.45 -73.95 38.8 -77.4 20.55 -75.0 17.75 -76.0 Q14.9 -76.9 14.45 -76.7 L7.8 -77.4 1.75 -78.4 -4.5 -75.85 -5.05 -75.65 -6.9 -76.0 -12.4 -77.05 -17.95 -76.6 M20.9 -36.8 L6.9 -40.05 -11.4 -37.65 -14.15 -38.65 Q-17.05 -39.55 -17.5 -39.35 L-24.15 -40.1 -30.2 -41.1 -37.0 -38.35 -44.3 -39.7 -53.95 -39.0 M59.3 -34.6 L56.1 -34.7 57.85 -34.9 44.45 -37.0 33.2 -36.65 28.35 -37.65 22.3 -36.75 20.9 -36.8 M-82.1 -31.85 L-59.1 -29.2 -52.85 -29.8 -44.3 -28.25 -31.75 -27.4 -31.5 -27.45 -8.5 -26.0 -1.75 -24.8 4.5 -25.2 8.1 -24.95 19.05 -21.2 33.35 -22.75 37.85 -24.3 41.75 -22.25 44.85 -22.25 M99.0 -97.9 L99.1 -97.8 M203.75 -190.9 L207.8 -180.65 198.2 -180.7 183.0 -177.8 M37.45 1.95 L36.85 2.4 M37.5 1.95 L37.45 1.95 -87.0 -1.7 -86.9 -2.6 M21.45 13.1 L22.25 12.5 22.8 12.15 M-4.5 -75.85 L-6.9 -76.0 M-1.35 38.05 L-11.4 37.35 -9.65 37.15 -23.4 35.1 -34.95 35.45 -39.95 34.4 -47.0 35.45 -62.05 32.0 -80.85 34.4 -83.7 33.4 Q-86.65 32.5 -87.1 32.7 L-93.9 32.0 -100.15 31.0 -107.15 33.7 -114.7 32.35 -118.0 32.6 M-44.8 74.9 L-58.6 72.85 -70.1 73.2 -75.15 72.15 -82.15 73.2 -97.2 69.75 -116.0 72.15 -118.85 71.15 Q-121.85 70.25 -122.3 70.45 L-129.1 69.75 -135.3 68.75 -142.35 71.45 -149.85 70.1 -154.8 70.45 M-188.75 77.95 L-171.8 81.05 -163.55 80.55 -156.0 83.1 -146.6 83.6 -140.6 85.15 -134.55 85.15 -125.9 87.75 -106.1 85.0 -99.65 84.65 -70.0 87.05 -65.35 85.5 -61.45 87.5 -61.35 87.55 -51.55 87.55 -50.5 86.85 -50.55 84.7 -44.8 74.9 -14.9 74.45 -16.4 49.8 M-153.55 40.2 L-136.65 43.3 -128.35 42.8 -120.85 45.35 -111.45 45.85 -105.4 47.4 -99.4 47.4 -93.2 42.75 M-109.95 108.1 L-107.9 109.55 -102.95 110.5 -91.45 110.15 -77.65 112.2 -79.45 112.45 -76.15 112.55 -50.05 112.2 -50.5 86.85 M-116.0 111.7 L-112.2 112.05 -111.0 110.6 -110.95 110.45 -109.95 108.1 -112.95 107.65 -114.3 107.3 -116.7 109.4 -116.45 110.2 -116.45 110.3 -116.05 111.7 -116.0 111.7 -115.9 112.15 -113.55 115.5 -107.85 113.65 -106.2 110.7 -107.9 109.55 M-221.6 115.3 L-197.9 117.95 -191.5 117.35 -182.7 118.9 -169.8 119.75 -169.5 119.7 -145.9 121.15 -138.95 122.3 -132.5 121.95 -128.8 122.2 -117.5 125.9 -102.85 124.4 -98.2 122.85 -94.2 124.9 -91.0 124.9 -73.9 118.7 -76.15 112.55 M-91.0 124.9 L-92.0 125.25 -96.8 147.85 -98.65 149.1 -111.8 158.05 -113.4 159.1 -113.65 159.3 -113.9 159.45 -114.95 160.15 -116.5 161.2 -126.3 161.2 -126.35 161.8 -126.65 164.8 -134.95 160.65 -149.6 162.2 -160.9 158.5 -164.6 158.25 -171.05 158.6 -178.0 157.45 -201.6 156.0 -201.9 156.05 -202.7 155.9 -214.75 155.2 -222.95 158.1 -229.95 154.3 -230.0 154.25 -251.15 152.95 M-148.05 109.4 L-149.2 109.4 -148.85 109.5 -148.05 109.4 -130.05 107.1 -116.45 110.2 M-149.2 109.4 L-151.7 108.5 Q-154.7 107.55 -155.15 107.75 L-161.95 107.05 -168.15 106.05 -175.2 108.8 -182.7 107.4 -192.75 108.15 M-110.5 148.75 L-111.55 148.75 -111.45 148.75 -219.0 145.7 -218.45 146.95 -219.95 149.65 -231.5 150.7 -234.15 146.55 M-114.95 160.15 L-114.25 159.65 -113.65 159.3 -112.0 158.1 -111.8 158.05 M-110.5 148.75 L-111.45 148.75 M-98.65 149.1 L-110.5 148.75 M-236.05 141.55 L-234.25 145.25 -226.9 146.5 -222.75 144.65 -220.1 143.05 -223.05 139.95 -226.0 139.45 M-220.1 143.05 L-219.0 145.7 M-267.55 212.35 L-245.2 220.9 -229.7 220.0 -209.05 216.4 M-117.6 220.9 L-118.2 220.5 -127.5 218.95 -139.6 223.15" fill="none" stroke="#000000" stroke-linecap="round" stroke-linejoin="miter-clip" stroke-miterlimit="4.0" stroke-opacity="0.6" stroke-width="1.0"/>
    <path d="M155.45 -231.05 L143.45 -235.4 M117.25 -203.1 L119.75 -203.3 149.35 -203.0 176.45 -200.5 210.9 -200.5 211.25 -200.4 M90.7 -199.2 L89.95 -199.6 M116.8 -217.15 L116.0 -217.5 M145.75 -221.0 L147.55 -220.95" fill="none" stroke="#000000" stroke-linecap="round" stroke-linejoin="round" stroke-opacity="0.6" stroke-width="1.0"/>
    <path d="M272.75 -234.7 L264.4 -236.1 229.95 -236.1 202.85 -237.95 173.2 -238.2 158.5 -237.1 143.45 -235.4 M89.95 -199.6 L108.55 -202.4 117.25 -203.1 M116.0 -217.5 L134.6 -220.1 145.75 -221.0" fill="none" stroke="#000000" stroke-linecap="round" stroke-linejoin="round" stroke-width="1.0"/>
    <path d="M143.45 -235.4 L143.0 -225.5 147.55 -220.95 M272.75 -234.7 L272.6 -216.0 252.15 -198.35 241.9 -184.4 M241.4 -184.2 L178.95 -85.35 177.0 -35.65 137.05 -6.4 130.2 42.3 131.2 88.1 82.45 159.25 57.6 165.1 Q26.6 172.6 -4.3 180.7 -39.0 189.85 -64.1 201.75 -71.35 205.2 -76.25 208.05 M-76.7 209.05 L-79.6 216.25 -97.5 221.2 -107.85 227.8 M-108.7 228.05 L-113.05 236.5 -132.1 238.25 -137.1 230.45 M-137.5 229.25 L-201.25 227.45 -199.55 229.9 -226.25 233.5 -272.75 226.3 -269.3 213.7 M-267.6 212.35 L-258.95 205.6 M-258.0 205.6 L-256.45 158.1 -251.15 152.95 -234.15 146.55 M-234.55 145.95 L-236.05 141.55 -228.7 138.95 -226.0 139.45 -224.35 121.8 -221.6 115.3 -197.25 108.45 -192.75 108.15 M-193.75 108.1 L-191.5 84.5 -188.75 77.95 -164.4 71.15 -154.8 70.45 M-158.6 70.65 L-156.3 46.75 -153.55 40.2 -129.25 33.35 -118.0 32.6 -116.0 10.95 -110.9 5.85 -89.65 -2.4 -86.9 -2.6 -84.8 -25.35 -82.1 -31.85 -58.45 -38.7 -53.95 -39.0 M-55.05 -39.05 L-52.85 -62.65 -50.15 -69.15 -26.5 -76.0 -17.95 -76.6 M-20.85 -76.8 L-18.65 -100.4 -15.95 -106.9 7.7 -113.75 18.1 -114.5 20.1 -136.35 24.2 -139.35 46.45 -149.7 52.3 -150.1 54.25 -171.3 58.35 -174.3 M59.2 -174.25 Q60.85 -174.5 65.25 -176.9 L72.2 -180.75 Q75.3 -182.2 80.95 -183.75 L87.0 -185.5 87.1 -186.6 M87.85 -188.15 L89.4 -191.5 M89.7 -191.5 L89.95 -199.3 M117.25 -203.1 L115.55 -205.2 116.0 -217.2" fill="none" stroke="#000000" stroke-linecap="round" stroke-linejoin="miter-clip" stroke-miterlimit="4.0" stroke-width="1.0"/>
  </g>
</svg>
