<?xml version="1.0" encoding="UTF-8" standalone="no"?>
<svg xmlns:xlink="http://www.w3.org/1999/xlink" height="261.7px" width="281.95px" xmlns="http://www.w3.org/2000/svg">
  <g transform="matrix(1.0, 0.0, 0.0, 1.0, 140.95, 130.85)">
    <path d="M117.65 86.05 L117.65 -87.65 Q117.65 -102.7 105.3 -113.3 92.95 -123.95 75.5 -123.95 L65.75 -123.95 Q65.4 -126.35 63.6 -128.15 L63.55 -128.2 63.6 -128.15 Q65.4 -126.35 65.75 -123.95 L65.8 -122.9 Q65.8 -120.45 64.45 -118.6 L63.6 -117.65 Q61.45 -115.45 58.35 -115.45 55.3 -115.45 53.1 -117.65 L52.3 -118.6 Q50.9 -120.45 50.9 -122.9 L51.0 -123.95 Q51.3 -126.35 53.1 -128.15 L53.15 -128.2 53.1 -128.15 Q51.3 -126.35 51.0 -123.95 L-58.55 -123.95 Q-58.9 -126.35 -60.7 -128.15 L-60.75 -128.2 -60.7 -128.15 Q-58.9 -126.35 -58.55 -123.95 L-58.5 -122.9 Q-58.5 -120.45 -59.85 -118.6 L-60.7 -117.65 Q-62.85 -115.45 -65.95 -115.45 -69.0 -115.45 -71.2 -117.65 L-72.0 -118.6 Q-73.4 -120.45 -73.4 -122.9 L-73.3 -123.95 -75.5 -123.95 Q-92.95 -123.95 -105.25 -113.3 -117.6 -102.7 -117.6 -87.65 L-117.6 85.95 -117.6 86.05 -112.8 86.05 112.85 86.05 117.65 86.05 123.8 86.05 117.65 86.05 M63.55 -128.2 L79.5 -128.2 Q97.85 -128.15 110.8 -116.85 123.8 -105.5 123.8 -89.5 L123.8 86.05 130.9 86.05 Q134.9 86.05 137.7 88.85 140.5 91.7 140.5 95.65 140.5 99.65 137.7 102.45 L134.75 104.5 133.2 102.7 Q130.05 99.55 126.1 98.5 L127.1 98.5 Q128.95 98.5 130.25 97.6 131.55 96.7 131.55 95.4 131.55 94.1 130.25 93.25 128.95 92.35 127.1 92.35 L-123.8 92.35 Q-125.65 92.35 -126.95 93.25 -128.25 94.15 -128.25 95.4 -128.25 96.7 -126.95 97.6 -126.2 98.15 -125.2 98.35 -129.6 99.35 -132.95 102.7 L-134.55 104.55 Q-136.25 103.85 -137.65 102.45 -140.45 99.65 -140.45 95.65 -140.45 91.7 -137.65 88.85 -134.8 86.05 -130.85 86.05 L-123.8 86.05 -123.8 -89.5 Q-123.8 -105.5 -110.8 -116.85 -97.85 -128.15 -79.45 -128.2 L-71.15 -128.2 Q-68.95 -130.35 -65.95 -130.35 -62.9 -130.35 -60.75 -128.2 L53.15 -128.2 Q55.35 -130.35 58.35 -130.35 61.4 -130.35 63.55 -128.2 M58.35 -127.3 Q56.55 -127.3 55.3 -126.0 54.0 -124.75 54.0 -122.9 54.0 -121.1 55.3 -119.8 56.55 -118.55 58.35 -118.55 60.2 -118.55 61.45 -119.8 62.75 -121.1 62.75 -122.9 62.75 -124.75 61.45 -126.0 60.2 -127.3 58.35 -127.3 M-117.15 98.5 L117.45 98.5 Q113.45 99.55 110.3 102.7 109.1 103.9 108.2 105.25 L-107.85 105.25 Q-108.8 103.9 -110.0 102.7 -113.15 99.55 -117.15 98.5 M121.75 123.3 Q117.95 123.3 115.3 120.6 112.6 117.95 112.6 114.15 112.6 110.35 115.3 107.7 117.95 105.0 121.75 105.0 125.55 105.0 128.2 107.7 130.9 110.35 130.9 114.15 130.9 117.95 128.2 120.6 125.55 123.3 121.75 123.3 M-71.15 -128.2 L-71.2 -128.15 Q-73.0 -126.35 -73.3 -123.95 -73.0 -126.35 -71.2 -128.15 L-71.15 -128.2 M-65.95 -127.3 Q-67.75 -127.3 -69.05 -126.0 -69.95 -125.1 -70.2 -123.95 L-70.35 -122.9 Q-70.35 -121.1 -69.05 -119.8 -68.0 -118.8 -66.65 -118.6 L-65.95 -118.55 -65.2 -118.6 Q-63.85 -118.8 -62.85 -119.8 -61.55 -121.1 -61.55 -122.9 L-61.65 -123.95 Q-61.95 -125.1 -62.85 -126.0 -64.1 -127.3 -65.95 -127.3 M-117.6 86.05 L-123.8 86.05 -117.6 86.05 M-112.35 114.15 Q-112.35 117.95 -115.05 120.6 -117.7 123.3 -121.5 123.3 -125.3 123.3 -127.95 120.6 -130.65 117.95 -130.65 114.15 -130.65 110.35 -127.95 107.7 -125.3 105.0 -121.5 105.0 -117.7 105.0 -115.05 107.7 -112.35 110.35 -112.35 114.15" fill="#ffffff" fill-opacity="0.0" fill-rule="evenodd" stroke="none"/>
    <path d="M65.75 -123.95 L75.5 -123.95 Q92.95 -123.95 105.3 -113.3 117.65 -102.7 117.65 -87.65 L117.65 86.05 112.85 86.05 112.85 -89.5 Q112.8 -101.55 103.05 -110.1 93.3 -118.6 79.5 -118.6 L64.45 -118.6 Q65.8 -120.45 65.8 -122.9 L65.75 -123.95 M-58.55 -123.95 L51.0 -123.95 50.9 -122.9 Q50.9 -120.45 52.3 -118.6 L-59.85 -118.6 Q-58.5 -120.45 -58.5 -122.9 L-58.55 -123.95 M-125.2 98.35 Q-126.2 98.15 -126.95 97.6 -128.25 96.7 -128.25 95.4 -128.25 94.15 -126.95 93.25 -125.65 92.35 -123.8 92.35 L127.1 92.35 Q128.95 92.35 130.25 93.25 131.55 94.1 131.55 95.4 131.55 96.7 130.25 97.6 128.95 98.5 127.1 98.5 L126.1 98.5 121.75 97.95 117.45 98.5 -117.15 98.5 -121.5 97.95 -125.2 98.35 M-117.6 86.05 L-117.6 85.95 -117.6 -87.65 Q-117.6 -102.7 -105.25 -113.3 -92.95 -123.95 -75.5 -123.95 L-73.3 -123.95 -73.4 -122.9 Q-73.4 -120.45 -72.0 -118.6 L-79.45 -118.6 Q-93.3 -118.6 -103.05 -110.1 -112.8 -101.55 -112.8 -89.5 L-112.8 86.05 -117.6 86.05" fill="#000000" fill-opacity="0.24705882" fill-rule="evenodd" stroke="none"/>
    <path d="M58.35 -127.3 Q60.2 -127.3 61.45 -126.0 62.75 -124.75 62.75 -122.9 62.75 -121.1 61.45 -119.8 60.2 -118.55 58.35 -118.55 56.55 -118.55 55.3 -119.8 54.0 -121.1 54.0 -122.9 54.0 -124.75 55.3 -126.0 56.55 -127.3 58.35 -127.3 M-65.95 -127.3 Q-64.1 -127.3 -62.85 -126.0 -61.95 -125.1 -61.65 -123.95 L-61.55 -122.9 Q-61.55 -121.1 -62.85 -119.8 -63.85 -118.8 -65.2 -118.6 L-65.95 -118.55 -66.65 -118.6 Q-68.0 -118.8 -69.05 -119.8 -70.35 -121.1 -70.35 -122.9 L-70.2 -123.95 Q-69.95 -125.1 -69.05 -126.0 -67.75 -127.3 -65.95 -127.3" fill="#000000" fill-opacity="0.34901962" fill-rule="evenodd" stroke="none"/>
    <path d="M-125.2 98.35 L-121.5 97.95 -117.15 98.5 Q-113.15 99.55 -110.0 102.7 -108.8 103.9 -107.85 105.25 -105.25 109.15 -105.25 114.15 -105.25 120.85 -110.0 125.6 -114.8 130.35 -121.5 130.35 -128.2 130.35 -132.95 125.6 -137.7 120.85 -137.7 114.15 -137.7 108.7 -134.55 104.55 L-132.95 102.7 Q-129.6 99.35 -125.2 98.35 M117.45 98.5 L121.75 97.95 126.1 98.5 Q130.05 99.55 133.2 102.7 L134.75 104.5 Q137.95 108.65 137.95 114.15 137.95 120.85 133.2 125.6 128.45 130.35 121.75 130.35 115.05 130.35 110.3 125.6 105.55 120.85 105.55 114.15 105.55 109.15 108.2 105.25 109.1 103.9 110.3 102.7 113.45 99.55 117.45 98.5 M121.75 123.3 Q125.55 123.3 128.2 120.6 130.9 117.95 130.9 114.15 130.9 110.35 128.2 107.7 125.55 105.0 121.75 105.0 117.95 105.0 115.3 107.7 112.6 110.35 112.6 114.15 112.6 117.95 115.3 120.6 117.95 123.3 121.75 123.3 M-112.35 114.15 Q-112.35 110.35 -115.05 107.7 -117.7 105.0 -121.5 105.0 -125.3 105.0 -127.95 107.7 -130.65 110.35 -130.65 114.15 -130.65 117.95 -127.95 120.6 -125.3 123.3 -121.5 123.3 -117.7 123.3 -115.05 120.6 -112.35 117.95 -112.35 114.15" fill="#000000" fill-opacity="0.44705883" fill-rule="evenodd" stroke="none"/>
    <path d="M123.8 86.05 L123.8 -89.5 Q123.8 -105.5 110.8 -116.85 97.85 -128.15 79.5 -128.2 L63.55 -128.2 63.6 -128.15 Q65.4 -126.35 65.75 -123.95 L65.8 -122.9 Q65.8 -120.45 64.45 -118.6 L79.5 -118.6 Q93.3 -118.6 103.05 -110.1 112.8 -101.55 112.85 -89.5 L112.85 86.05 -112.8 86.05 -112.8 -89.5 Q-112.8 -101.55 -103.05 -110.1 -93.3 -118.6 -79.45 -118.6 L-72.0 -118.6 Q-73.4 -120.45 -73.4 -122.9 L-73.3 -123.95 Q-73.0 -126.35 -71.2 -128.15 L-71.15 -128.2 Q-68.95 -130.35 -65.95 -130.35 -62.9 -130.35 -60.75 -128.2 L-60.7 -128.15 Q-58.9 -126.35 -58.55 -123.95 L-58.5 -122.9 Q-58.5 -120.45 -59.85 -118.6 L52.3 -118.6 53.1 -117.65 Q55.3 -115.45 58.35 -115.45 61.45 -115.45 63.6 -117.65 L64.45 -118.6 M51.0 -123.95 Q51.3 -126.35 53.1 -128.15 L53.15 -128.2 -60.75 -128.2 M51.0 -123.95 L50.9 -122.9 Q50.9 -120.45 52.3 -118.6 M53.15 -128.2 Q55.35 -130.35 58.35 -130.35 61.4 -130.35 63.55 -128.2 M134.75 104.5 L137.7 102.45 Q140.5 99.65 140.5 95.65 140.5 91.7 137.7 88.85 134.9 86.05 130.9 86.05 L123.8 86.05 M-125.2 98.35 L-121.5 97.95 -117.15 98.5 Q-113.15 99.55 -110.0 102.7 -108.8 103.9 -107.85 105.25 -105.25 109.15 -105.25 114.15 -105.25 120.85 -110.0 125.6 -114.8 130.35 -121.5 130.35 -128.2 130.35 -132.95 125.6 -137.7 120.85 -137.7 114.15 -137.7 108.7 -134.55 104.55 -136.25 103.85 -137.65 102.45 -140.45 99.65 -140.45 95.65 -140.45 91.7 -137.65 88.85 -134.8 86.05 -130.85 86.05 L-123.8 86.05 -123.8 -89.5 Q-123.8 -105.5 -110.8 -116.85 -97.85 -128.15 -79.45 -128.2 L-71.15 -128.2 M117.45 98.5 L121.75 97.95 126.1 98.5 Q130.05 99.55 133.2 102.7 L134.75 104.5 Q137.95 108.65 137.95 114.15 137.95 120.85 133.2 125.6 128.45 130.35 121.75 130.35 115.05 130.35 110.3 125.6 105.55 120.85 105.55 114.15 105.55 109.15 108.2 105.25 L-107.85 105.25 M108.2 105.25 Q109.1 103.9 110.3 102.7 113.45 99.55 117.45 98.5 M-59.85 -118.6 L-60.7 -117.65 Q-62.85 -115.45 -65.95 -115.45 -69.0 -115.45 -71.2 -117.65 L-72.0 -118.6 M-134.55 104.55 L-132.95 102.7 Q-129.6 99.35 -125.2 98.35" fill="none" stroke="#000000" stroke-linecap="round" stroke-linejoin="miter-clip" stroke-miterlimit="4.0" stroke-width="1.0"/>
    <path d="M117.65 86.05 L123.8 86.05 M112.85 86.05 L117.65 86.05 M121.75 123.3 Q117.95 123.3 115.3 120.6 112.6 117.95 112.6 114.15 112.6 110.35 115.3 107.7 117.95 105.0 121.75 105.0 125.55 105.0 128.2 107.7 130.9 110.35 130.9 114.15 130.9 117.95 128.2 120.6 125.55 123.3 121.75 123.3 M-117.6 86.05 L-112.8 86.05 M-123.8 86.05 L-117.6 86.05 M-112.35 114.15 Q-112.35 117.95 -115.05 120.6 -117.7 123.3 -121.5 123.3 -125.3 123.3 -127.95 120.6 -130.65 117.95 -130.65 114.15 -130.65 110.35 -127.95 107.7 -125.3 105.0 -121.5 105.0 -117.7 105.0 -115.05 107.7 -112.35 110.35 -112.35 114.15" fill="none" stroke="#000000" stroke-linecap="round" stroke-linejoin="miter-clip" stroke-miterlimit="4.0" stroke-opacity="0.6" stroke-width="1.0"/>
  </g>
</svg>
