<?xml version="1.0" encoding="UTF-8" standalone="no"?>
<svg xmlns:xlink="http://www.w3.org/1999/xlink" height="448.9px" width="888.1px" xmlns="http://www.w3.org/2000/svg">
  <g transform="matrix(1.0, 0.0, 0.0, 1.0, 444.05, 224.45)">
    <path d="M443.55 193.7 Q443.75 211.3 441.8 212.75 427.65 223.25 374.05 223.9 336.6 224.3 302.75 220.8 L205.35 210.7 Q150.1 205.35 108.75 203.3 0.5 197.9 -86.75 211.7 -126.65 218.0 -176.95 214.55 -202.25 212.8 -266.8 204.25 -282.85 202.15 -315.2 203.1 L-373.25 205.7 Q-407.05 207.3 -422.1 206.45 -442.65 205.3 -442.85 199.6 -443.85 169.7 -443.45 111.25 L-442.85 22.85 -442.85 -223.95 443.0 -223.95 443.1 89.8 443.0 165.15 443.55 193.7" fill="#ffffff" fill-opacity="0.0" fill-rule="evenodd" stroke="none"/>
    <path d="M443.55 193.7 Q443.75 211.3 441.8 212.75 427.65 223.25 374.05 223.9 336.6 224.3 302.75 220.8 L205.35 210.7 Q150.1 205.35 108.75 203.3 0.5 197.9 -86.75 211.7 -126.65 218.0 -176.95 214.55 -202.25 212.8 -266.8 204.25 -282.85 202.15 -315.2 203.1 L-373.25 205.7 Q-407.05 207.3 -422.1 206.45 -442.65 205.3 -442.85 199.6 -443.85 169.7 -443.45 111.25 L-442.85 22.85 -442.85 -223.95 443.0 -223.95 443.1 89.8 443.0 165.15 443.55 193.7 Z" fill="none" stroke="#000000" stroke-linecap="round" stroke-linejoin="miter-clip" stroke-miterlimit="4.0" stroke-width="1.0"/>
  </g>
</svg>
