<?xml version="1.0" encoding="UTF-8" standalone="no"?>
<svg xmlns:xlink="http://www.w3.org/1999/xlink" height="353.8px" width="773.2px" xmlns="http://www.w3.org/2000/svg">
  <g transform="matrix(1.0, 0.0, 0.0, 1.0, 386.85, 176.8)">
    <path d="M21.55 -8.8 L23.55 -4.75 28.05 -4.1 24.8 -0.9 25.55 3.55 21.55 1.45 17.55 3.55 18.35 -0.9 15.1 -4.1 19.55 -4.75 21.55 -8.8 M307.55 -87.2 L307.55 -87.25 311.5 -87.05 311.55 -87.05 Q332.15 -87.05 346.75 -101.65 361.3 -116.2 361.3 -136.8 361.3 -148.6 356.05 -159.05 351.0 -169.15 342.05 -176.1 L346.0 -175.45 350.25 -174.4 351.8 -173.9 354.7 -172.75 355.25 -172.55 357.25 -171.65 357.25 -171.6 Q358.95 -170.05 360.8 -167.35 L363.9 -162.65 366.5 -160.25 368.4 -156.75 368.5 -154.25 370.55 -148.75 372.2 -146.75 374.05 -138.35 372.6 -135.9 372.6 -134.55 Q372.6 -129.05 371.6 -124.0 L371.9 -122.4 370.55 -118.05 368.6 -114.55 Q366.2 -109.2 362.45 -104.35 L360.8 -100.2 357.7 -99.05 Q353.55 -95.0 348.9 -92.05 L348.9 -91.85 343.8 -88.05 340.55 -87.9 Q334.55 -85.65 327.9 -85.0 L326.2 -84.0 322.45 -84.8 Q315.0 -84.85 307.55 -87.2 M344.95 171.55 L345.75 176.1 341.65 173.95 337.6 176.1 338.4 171.55 335.1 168.35 339.65 167.7 341.65 163.6 343.7 167.7 348.25 168.35 344.95 171.55 M97.1 80.95 L91.85 75.8 99.1 74.75 102.35 68.2 105.6 74.75 112.9 75.8 107.65 80.95 108.85 88.15 102.35 84.75 95.85 88.15 97.1 80.95 M-372.25 -151.7 L-365.1 -150.65 -370.3 -145.6 -369.05 -138.45 -375.45 -141.85 -381.85 -138.45 -380.65 -145.6 -385.8 -150.65 -378.65 -151.7 -375.45 -158.15 -372.25 -151.7 M-90.9 -108.5 L-97.4 -105.1 -96.15 -112.35 -101.4 -117.45 -94.15 -118.5 -90.9 -125.1 -87.65 -118.5 -80.4 -117.45 -85.65 -112.35 -84.4 -105.1 -90.9 -108.5 M-48.8 88.15 L-47.55 80.95 -52.8 75.8 -45.55 74.75 -42.3 68.2 -39.05 74.75 -31.8 75.8 -37.05 80.95 -35.8 88.15 -42.3 84.75 -48.8 88.15 M-267.6 55.45 L-265.6 59.5 -261.15 60.15 -264.4 63.3 -263.6 67.75 -267.6 65.65 -271.6 67.75 -270.85 63.3 -274.1 60.15 -269.6 59.5 -267.6 55.45 M-345.85 133.7 L-343.85 137.75 -339.4 138.4 -342.65 141.6 -341.85 146.05 -345.85 143.9 -349.85 146.05 -349.1 141.6 -352.35 138.4 -347.85 137.75 -345.85 133.7" fill="#ffffff" fill-opacity="0.0" fill-rule="evenodd" stroke="none"/>
    <path d="M307.55 -87.25 L309.85 -87.1 311.5 -87.05 307.55 -87.25 M351.8 -173.9 L354.45 -172.95 354.7 -172.75 351.8 -173.9 M355.25 -172.55 L355.35 -172.55 356.3 -172.15 357.25 -171.65 355.25 -172.55" fill="#e6e6e6" fill-rule="evenodd" stroke="none"/>
    <path d="M306.55 -87.3 L307.55 -87.2 Q315.0 -84.85 322.45 -84.8 L326.2 -84.0 327.9 -85.0 Q334.55 -85.65 340.55 -87.9 L343.8 -88.05 348.9 -91.85 348.9 -92.05 Q353.55 -95.0 357.7 -99.05 L360.8 -100.2 362.45 -104.35 Q366.2 -109.2 368.6 -114.55 L370.55 -118.05 371.9 -122.4 371.6 -124.0 Q372.6 -129.05 372.6 -134.55 L372.6 -135.9 374.05 -138.35 372.2 -146.75 370.55 -148.75 368.5 -154.25 368.4 -156.75 366.5 -160.25 363.9 -162.65 360.8 -167.35 Q358.95 -170.05 357.25 -171.6 359.2 -170.45 361.1 -169.35 L370.05 -163.05 370.2 -162.9 370.35 -162.75 370.65 -162.45 371.15 -162.0 371.4 -161.75 371.7 -161.45 372.1 -161.05 372.4 -160.7 372.7 -160.4 372.95 -160.1 373.2 -159.85 Q385.85 -145.7 385.85 -126.7 385.85 -106.1 371.25 -91.55 356.7 -76.95 336.1 -76.95 327.6 -76.95 319.65 -79.7 312.0 -82.4 305.55 -87.45 L306.55 -87.3" fill="#000000" fill-opacity="0.09803922" fill-rule="evenodd" stroke="none"/>
    <path d="M350.25 -174.4 L351.65 -174.0 351.8 -173.9 350.25 -174.4" fill="#ffffff" fill-rule="evenodd" stroke="none"/>
    <path d="M21.55 -8.8 L23.55 -4.75 28.05 -4.1 24.8 -0.9 25.55 3.55 21.55 1.45 17.55 3.55 18.35 -0.9 15.1 -4.1 19.55 -4.75 21.55 -8.8 M307.55 -87.25 L306.55 -87.3 307.55 -87.2 M311.5 -87.05 L311.55 -87.05 Q332.15 -87.05 346.75 -101.65 361.3 -116.2 361.3 -136.8 361.3 -148.6 356.05 -159.05 351.0 -169.15 342.05 -176.1 L346.0 -175.45 350.25 -174.4 351.65 -174.0 351.8 -173.9 354.7 -172.75 355.25 -172.55 357.25 -171.65 M357.25 -171.6 Q359.2 -170.45 361.1 -169.35 L370.05 -163.05 370.2 -162.9 370.35 -162.75 370.65 -162.45 371.15 -162.0 371.4 -161.75 371.7 -161.45 372.1 -161.05 372.4 -160.7 372.7 -160.4 372.95 -160.1 373.2 -159.85 Q385.85 -145.7 385.85 -126.7 385.85 -106.1 371.25 -91.55 356.7 -76.95 336.1 -76.95 327.6 -76.95 319.65 -79.7 312.0 -82.4 305.55 -87.45 L306.55 -87.3 M311.5 -87.05 L307.55 -87.25 M344.95 171.55 L345.75 176.1 341.65 173.95 337.6 176.1 338.4 171.55 335.1 168.35 339.65 167.7 341.65 163.6 343.7 167.7 348.25 168.35 344.95 171.55 M97.1 80.95 L91.85 75.8 99.1 74.75 102.35 68.2 105.6 74.75 112.9 75.8 107.65 80.95 108.85 88.15 102.35 84.75 95.85 88.15 97.1 80.95 M-372.25 -151.7 L-365.1 -150.65 -370.3 -145.6 -369.05 -138.45 -375.45 -141.85 -381.85 -138.45 -380.65 -145.6 -385.8 -150.65 -378.65 -151.7 -375.45 -158.15 -372.25 -151.7 M-90.9 -108.5 L-97.4 -105.1 -96.15 -112.35 -101.4 -117.45 -94.15 -118.5 -90.9 -125.1 -87.65 -118.5 -80.4 -117.45 -85.65 -112.35 -84.4 -105.1 -90.9 -108.5 M-48.8 88.15 L-47.55 80.95 -52.8 75.8 -45.55 74.75 -42.3 68.2 -39.05 74.75 -31.8 75.8 -37.05 80.95 -35.8 88.15 -42.3 84.75 -48.8 88.15 M-267.6 55.45 L-265.6 59.5 -261.15 60.15 -264.4 63.3 -263.6 67.75 -267.6 65.65 -271.6 67.75 -270.85 63.3 -274.1 60.15 -269.6 59.5 -267.6 55.45 M-345.85 133.7 L-343.85 137.75 -339.4 138.4 -342.65 141.6 -341.85 146.05 -345.85 143.9 -349.85 146.05 -349.1 141.6 -352.35 138.4 -347.85 137.75 -345.85 133.7" fill="none" stroke="#000000" stroke-linecap="round" stroke-linejoin="miter-clip" stroke-miterlimit="4.0" stroke-opacity="0.4" stroke-width="1.0"/>
  </g>
</svg>
