<?xml version="1.0" encoding="UTF-8" standalone="no"?>
<svg xmlns:xlink="http://www.w3.org/1999/xlink" height="501.85px" width="318.7px" xmlns="http://www.w3.org/2000/svg">
  <g transform="matrix(1.0, 0.0, 0.0, 1.0, 159.35, 251.2)">
    <path d="M113.2 242.75 L95.3 242.75 95.3 219.95 95.3 190.7 95.3 161.45 95.3 132.15 95.3 102.9 95.3 73.65 95.3 44.4 95.3 15.1 95.3 -14.15 95.3 -43.4 95.3 -72.7 95.3 -101.95 95.3 -127.95 95.3 -145.6 Q105.9 -140.0 116.45 -134.45 105.9 -140.0 95.3 -145.6 L70.3 -158.85 69.75 -159.15 1.0 -195.45 -6.35 -191.45 -66.6 -158.85 -94.1 -143.95 -115.25 -132.55 -94.1 -143.95 -94.1 242.75 -115.25 242.75 -115.25 -132.55 -142.3 -132.55 -158.85 -162.4 0.6 -250.7 Q79.75 -207.15 158.85 -163.65 L142.35 -133.75 116.45 -134.45 116.45 242.75 113.2 242.75 M148.85 -147.5 L152.35 -153.95 0.6 -235.35 -151.95 -150.65 -148.4 -144.25 0.65 -227.05 148.85 -147.5 M-9.0 -159.35 L-6.7 -159.85 -3.55 -160.05 -2.7 -160.05 Q0.2 -159.9 2.8 -159.0 7.05 -157.5 10.35 -153.85 L10.35 -153.8 10.45 -153.7 10.7 -153.45 10.95 -153.15 12.65 -150.75 12.85 -150.4 14.3 -147.25 14.6 -146.15 14.85 -145.05 14.9 -144.9 15.1 -143.8 15.1 -143.6 15.15 -143.4 15.2 -143.0 15.2 -142.6 15.2 -142.35 15.2 -140.2 15.1 -138.9 14.85 -137.35 14.55 -136.2 14.35 -135.5 Q12.55 -144.3 9.9 -147.25 4.65 -153.05 -3.15 -153.45 -11.0 -153.85 -16.8 -148.6 -18.5 -147.1 -20.05 -143.25 L-22.15 -137.35 -22.2 -137.55 -22.25 -137.85 -22.25 -137.95 -22.4 -138.8 -22.4 -138.85 -22.4 -139.2 -22.45 -139.35 -22.45 -139.55 -22.45 -139.65 -22.5 -140.75 -22.35 -143.6 -22.35 -143.8 -22.35 -143.9 -22.25 -144.4 -22.25 -144.55 -22.2 -144.75 -22.15 -145.0 -21.65 -146.9 -21.6 -147.1 -20.9 -148.9 -20.65 -149.35 -19.7 -151.2 -19.65 -151.3 -19.5 -151.5 -19.05 -152.2 -18.65 -152.75 -17.4 -154.15 -17.3 -154.25 -17.2 -154.35 -17.05 -154.5 -16.95 -154.6 -16.85 -154.7 -16.7 -154.85 -16.65 -154.85 -16.6 -154.95 -16.45 -155.05 -16.4 -155.15 -16.35 -155.2 Q-13.45 -157.8 -10.05 -159.0 L-9.0 -159.35 M70.75 -101.85 L70.75 -101.3 70.75 -92.3 -70.7 -92.3 -70.7 -101.95 -70.7 -114.25 70.75 -114.25 70.75 -105.05 70.75 -101.85 M-142.3 -132.55 L0.65 -211.7 142.35 -133.75 0.65 -211.7 -142.3 -132.55 M-16.65 -154.85 L-16.45 -155.05 -16.65 -154.85" fill="#000000" fill-opacity="0.2" fill-rule="evenodd" stroke="none"/>
    <path d="M95.3 -145.6 L95.3 -127.95 95.3 -101.95 95.3 -72.7 95.3 -43.4 95.3 -14.15 95.3 15.1 95.3 44.4 95.3 73.65 95.3 102.9 95.3 132.15 95.3 161.45 95.3 190.7 95.3 219.95 95.3 242.75 113.2 242.75 113.4 250.65 46.8 242.75 5.5 237.85 76.2 232.35 75.6 220.8 1.2 220.8 8.65 219.95 76.2 212.25 75.6 190.7 75.6 190.3 5.5 186.65 76.85 183.6 76.85 161.45 76.85 160.4 31.1 159.8 76.85 154.95 77.45 132.4 71.75 132.15 35.35 130.55 77.45 126.3 78.05 102.9 78.05 102.5 24.4 102.5 78.65 98.25 78.65 73.65 78.65 73.25 3.05 71.4 78.65 69.6 78.65 44.4 78.65 43.35 5.5 42.75 78.65 37.9 79.25 15.95 51.8 15.1 19.5 14.1 78.65 11.05 79.25 -13.95 68.7 -14.15 15.85 -15.15 80.5 -18.85 81.1 -43.4 95.3 -43.4 81.1 -43.4 81.1 -43.8 12.8 -43.8 81.1 -49.3 81.1 -72.5 77.2 -72.55 28.75 -72.85 18.3 -73.1 81.7 -77.95 80.5 -101.15 70.75 -101.3 70.75 -101.85 70.75 -105.05 81.1 -105.4 80.5 -122.45 6.45 -125.15 9.0 -127.15 9.5 -127.6 10.0 -128.1 52.15 -128.2 80.5 -128.55 79.25 -145.65 56.1 -158.45 40.8 -158.75 70.3 -158.85 40.8 -158.75 2.8 -159.0 Q0.2 -159.9 -2.7 -160.05 L-3.55 -160.05 -6.7 -159.85 -9.0 -159.35 -9.75 -159.15 -35.95 -159.65 47.55 -164.55 -8.55 -189.55 -6.35 -191.45 1.0 -195.45 69.75 -159.15 70.3 -158.85 95.3 -145.6 M95.3 -127.95 L52.15 -128.2 95.3 -127.95 M148.85 -147.5 L0.65 -227.05 -148.4 -144.25 -151.95 -150.65 0.6 -235.35 152.35 -153.95 148.85 -147.5 M-16.85 -127.65 L-16.65 -127.45 -14.85 -125.9 -70.7 -127.95 -17.25 -128.05 -16.85 -127.65 M95.3 -72.7 L77.2 -72.55 95.3 -72.7 M95.3 -101.95 L70.75 -101.85 95.3 -101.95 M95.3 15.1 L51.8 15.1 95.3 15.1 M95.3 -14.15 L68.7 -14.15 95.3 -14.15 M95.3 44.4 L78.65 44.4 95.3 44.4 M95.3 102.9 L78.05 102.9 95.3 102.9 M95.3 73.65 L78.65 73.65 95.3 73.65 M95.3 161.45 L76.85 161.45 95.3 161.45 M95.3 132.15 L71.75 132.15 95.3 132.15 M95.3 190.7 L75.6 190.7 95.3 190.7 M95.3 219.95 L8.65 219.95 95.3 219.95" fill="#000000" fill-opacity="0.29803923" fill-rule="evenodd" stroke="none"/>
    <path d="M40.8 -158.75 L56.1 -158.45 79.25 -145.65 80.5 -128.55 52.15 -128.2 10.0 -128.1 14.35 -135.5 14.45 -135.65 15.1 -138.9 15.2 -140.2 15.2 -142.35 15.2 -142.6 15.2 -143.0 15.15 -143.4 15.1 -143.6 15.1 -143.8 14.3 -147.25 12.85 -150.4 12.65 -150.75 10.95 -153.15 10.7 -153.45 10.45 -153.7 10.35 -153.8 10.35 -153.85 Q7.05 -157.5 2.8 -159.0 L40.8 -158.75 M-6.35 -191.45 L-8.55 -189.55 47.55 -164.55 -35.95 -159.65 -9.75 -159.15 -10.05 -159.0 Q-13.45 -157.8 -16.35 -155.2 L-16.4 -155.15 -16.45 -155.05 -16.6 -154.95 -16.65 -154.85 -16.7 -154.85 -16.85 -154.7 -16.95 -154.6 -17.05 -154.5 -17.2 -154.35 -17.3 -154.25 -17.4 -154.15 -18.65 -152.75 -19.05 -152.2 -19.5 -151.5 -20.7 -149.5 -21.45 -147.65 -21.6 -147.1 -21.65 -146.9 -22.15 -145.0 -22.2 -144.85 -22.2 -144.75 -22.25 -144.55 -22.25 -144.4 -22.35 -143.9 -22.35 -143.8 -22.35 -143.6 -22.5 -142.15 -22.5 -140.75 -22.45 -139.65 -22.45 -139.55 -22.45 -139.35 -22.4 -139.2 -22.4 -138.85 -22.4 -138.8 -22.25 -137.95 -22.25 -137.85 -22.2 -137.55 -22.15 -137.3 -20.9 -133.45 -18.65 -129.7 -18.35 -129.35 -18.15 -129.1 -17.8 -128.7 -17.65 -128.5 -17.4 -128.25 -17.25 -128.05 -70.7 -127.95 -14.85 -125.9 Q-10.45 -122.6 -4.6 -122.3 1.55 -122.0 6.45 -125.15 L80.5 -122.45 81.1 -105.4 70.75 -105.05 70.75 -114.25 -70.7 -114.25 -70.7 -101.95 -70.7 -92.3 70.75 -92.3 70.75 -101.3 80.5 -101.15 81.7 -77.95 18.3 -73.1 28.75 -72.85 77.2 -72.55 81.1 -72.5 81.1 -49.3 12.8 -43.8 81.1 -43.8 81.1 -43.4 80.5 -18.85 15.85 -15.15 68.7 -14.15 79.25 -13.95 78.65 11.05 19.5 14.1 51.8 15.1 79.25 15.95 78.65 37.9 5.5 42.75 78.65 43.35 78.65 44.4 78.65 69.6 3.05 71.4 78.65 73.25 78.65 73.65 78.65 98.25 24.4 102.5 78.05 102.5 78.05 102.9 77.45 126.3 35.35 130.55 71.75 132.15 77.45 132.4 76.85 154.95 31.1 159.8 76.85 160.4 76.85 161.45 76.85 183.6 5.5 186.65 75.6 190.3 75.6 190.7 76.2 212.25 8.65 219.95 1.2 220.8 75.6 220.8 76.2 232.35 5.5 237.85 46.8 242.75 -94.1 242.75 -94.1 -143.95 -66.6 -158.85 -6.35 -191.45 M-93.3 -101.95 L-70.7 -101.95 -93.3 -101.95 M-93.3 -43.4 L81.1 -43.4 -93.3 -43.4 M-66.6 -158.85 L-10.05 -159.0 -66.6 -158.85 M-93.3 -127.95 L-70.7 -127.95 -93.3 -127.95 M28.75 -72.85 L-93.3 -72.7 28.75 -72.85 M68.7 -14.15 L-93.3 -14.15 68.7 -14.15 M51.8 15.1 L-93.3 15.1 51.8 15.1 M78.65 44.4 L-93.3 44.4 78.65 44.4 M78.65 73.65 L-93.3 73.65 78.65 73.65 M78.05 102.9 L-93.3 102.9 78.05 102.9 M71.75 132.15 L-93.3 132.15 71.75 132.15 M76.85 161.45 L-93.3 161.45 76.85 161.45 M75.6 190.7 L-93.3 190.7 75.6 190.7 M8.65 219.95 L-93.3 219.95 8.65 219.95" fill="#ffffff" fill-opacity="0.0" fill-rule="evenodd" stroke="none"/>
    <path d="M-9.75 -159.15 L-9.0 -159.35 -10.05 -159.0 -9.75 -159.15 M14.3 -147.25 L15.1 -143.8 14.9 -144.9 14.85 -145.05 14.6 -146.15 14.3 -147.25 M15.1 -138.9 L14.45 -135.65 14.75 -136.9 14.85 -137.35 15.1 -138.9 M-17.4 -128.25 L-16.85 -127.65 -17.25 -128.05 -17.4 -128.25 M-20.65 -149.35 L-20.9 -148.9 -21.6 -147.1 -21.45 -147.65 -20.7 -149.5 -19.5 -151.5 -19.65 -151.3 -19.7 -151.2 -19.95 -150.8 -20.65 -149.35 M-22.15 -145.0 L-22.2 -144.75 -22.2 -144.85 -22.15 -145.0 M-22.35 -143.6 L-22.5 -140.75 -22.5 -142.15 -22.35 -143.6" fill="#7b7c7e" fill-rule="evenodd" stroke="none"/>
    <path d="M14.75 -136.9 L14.55 -136.2 14.85 -137.35 14.75 -136.9 M-20.65 -149.35 L-19.95 -150.8 -19.7 -151.2 -20.65 -149.35" fill="#b6b8ba" fill-rule="evenodd" stroke="none"/>
    <path d="M14.45 -135.65 L14.35 -135.5 10.0 -128.1 9.5 -127.6 9.0 -127.15 6.45 -125.15 Q1.55 -122.0 -4.6 -122.3 -10.45 -122.6 -14.85 -125.9 L-16.65 -127.45 -16.85 -127.65 -17.4 -128.25 -17.65 -128.5 -17.8 -128.7 -18.15 -129.1 -18.35 -129.35 -18.65 -129.7 -20.9 -133.45 -22.15 -137.3 -22.2 -137.55 -22.15 -137.35 -20.05 -143.25 Q-18.5 -147.1 -16.8 -148.6 -11.0 -153.85 -3.15 -153.45 4.65 -153.05 9.9 -147.25 12.55 -144.3 14.35 -135.5 L14.55 -136.2 14.75 -136.9 14.45 -135.65" fill="#000000" fill-opacity="0.44705883" fill-rule="evenodd" stroke="none"/>
    <path d="M95.3 -145.6 L95.3 -127.95 95.3 -101.95 95.3 -72.7 95.3 -43.4 95.3 -14.15 95.3 15.1 95.3 44.4 95.3 73.65 95.3 102.9 95.3 132.15 95.3 161.45 95.3 190.7 95.3 219.95 95.3 242.75 113.2 242.75 116.45 242.75 M-94.1 242.75 L-115.25 242.75 M-94.1 -143.95 L-94.1 242.75" fill="none" stroke="#000000" stroke-linecap="round" stroke-linejoin="miter-clip" stroke-miterlimit="4.0" stroke-opacity="0.6" stroke-width="1.0"/>
    <path d="M116.45 -134.45 Q105.9 -140.0 95.3 -145.6 L70.3 -158.85 40.8 -158.75 2.8 -159.0 M52.15 -128.2 L95.3 -127.95 M70.3 -158.85 L69.75 -159.15 M10.35 -153.85 L10.35 -153.8 M12.65 -150.75 L12.85 -150.4 M15.1 -143.8 L15.1 -143.6 15.15 -143.4 M10.0 -128.1 L52.15 -128.2 M14.75 -136.9 L14.85 -137.35 14.55 -136.2 14.35 -135.5 Q12.55 -144.3 9.9 -147.25 4.65 -153.05 -3.15 -153.45 -11.0 -153.85 -16.8 -148.6 -18.5 -147.1 -20.05 -143.25 L-22.15 -137.35 -22.2 -137.55 -22.15 -137.3 M-18.65 -129.7 L-18.35 -129.35 -18.15 -129.1 -17.8 -128.7 -17.65 -128.5 -17.4 -128.25 M-16.65 -127.45 L-14.85 -125.9 M9.0 -127.15 L9.5 -127.6 M28.75 -72.85 L77.2 -72.55 95.3 -72.7 M-70.7 -101.95 L-93.3 -101.95 M70.75 -101.85 L95.3 -101.95 M51.8 15.1 L95.3 15.1 M68.7 -14.15 L95.3 -14.15 M81.1 -43.4 L95.3 -43.4 M81.1 -43.4 L-93.3 -43.4 M142.35 -133.75 L0.65 -211.7 -142.3 -132.55 M78.65 44.4 L95.3 44.4 M78.05 102.9 L95.3 102.9 M78.65 73.65 L95.3 73.65 M76.85 161.45 L95.3 161.45 M71.75 132.15 L95.3 132.15 M75.6 190.7 L95.3 190.7 M-115.25 -132.55 L-94.1 -143.95 -66.6 -158.85 -10.05 -159.0 -9.0 -159.35 M8.65 219.95 L95.3 219.95 M-19.7 -151.2 L-19.65 -151.3 M-17.4 -154.15 L-17.3 -154.25 -17.2 -154.35 -17.05 -154.5 -16.95 -154.6 -16.85 -154.7 -16.7 -154.85 -16.65 -154.85 -16.6 -154.95 -16.45 -155.05 -16.65 -154.85 M-17.25 -128.05 L-70.7 -127.95 -93.3 -127.95 M-22.15 -145.0 L-21.65 -146.9 -21.6 -147.1 M-22.15 -145.0 L-22.2 -144.85 M-22.25 -144.55 L-22.25 -144.4 -22.35 -143.9 -22.35 -143.8 -22.35 -143.6 M-22.5 -140.75 L-22.45 -139.65 M-22.4 -138.85 L-22.4 -138.8 M-22.25 -137.95 L-22.25 -137.85 -22.2 -137.55 M-93.3 219.95 L8.65 219.95 M-93.3 190.7 L75.6 190.7 M-93.3 161.45 L76.85 161.45 M-93.3 132.15 L71.75 132.15 M-93.3 102.9 L78.05 102.9 M-93.3 73.65 L78.65 73.65 M-93.3 44.4 L78.65 44.4 M-93.3 15.1 L51.8 15.1 M-93.3 -14.15 L68.7 -14.15 M-93.3 -72.7 L28.75 -72.85" fill="none" stroke="#000000" stroke-linecap="round" stroke-linejoin="round" stroke-opacity="0.6" stroke-width="1.0"/>
    <path d="M-115.25 -132.55 L-142.3 -132.55 -158.85 -162.4 0.6 -250.7 Q79.75 -207.15 158.85 -163.65 L142.35 -133.75 116.45 -134.45 M-9.0 -159.35 L-6.7 -159.85 -3.55 -160.05 -2.7 -160.05 Q0.2 -159.9 2.8 -159.0 7.05 -157.5 10.35 -153.85 M10.35 -153.8 L10.45 -153.7 10.7 -153.45 10.95 -153.15 12.65 -150.75 M12.85 -150.4 L14.3 -147.25 15.1 -143.8 M15.2 -142.6 L15.2 -142.35 15.2 -140.2 M14.45 -135.65 L14.35 -135.5 10.0 -128.1 9.5 -127.6 M14.9 -144.9 L14.85 -145.05 14.6 -146.15 M-22.15 -137.3 L-20.9 -133.45 -18.65 -129.7 M-17.4 -128.25 L-16.85 -127.65 -16.65 -127.45 M-14.85 -125.9 Q-10.45 -122.6 -4.6 -122.3 1.55 -122.0 6.45 -125.15 L9.0 -127.15 M15.1 -138.9 L14.85 -137.35 M14.75 -136.9 L14.45 -135.65 M-19.65 -151.3 L-19.5 -151.5 -19.05 -152.2 -18.65 -152.75 -17.4 -154.15 M-21.45 -147.65 L-21.6 -147.1 -20.9 -148.9 M-16.45 -155.05 L-16.4 -155.15 -16.35 -155.2 Q-13.45 -157.8 -10.05 -159.0 M-22.2 -144.75 L-22.15 -145.0 M-22.2 -144.75 L-22.25 -144.55 M-22.35 -143.6 L-22.5 -140.75 M-22.4 -138.8 L-22.25 -137.95" fill="none" stroke="#000000" stroke-linecap="round" stroke-linejoin="round" stroke-width="1.0"/>
    <path d="M69.75 -159.15 L1.0 -195.45 -6.35 -191.45 -66.6 -158.85 M15.15 -143.4 L15.2 -143.0 15.2 -142.6 M-22.45 -139.55 L-22.45 -139.35 -22.4 -139.2 -22.4 -138.85" fill="none" stroke="#000000" stroke-linecap="butt" stroke-linejoin="miter-clip" stroke-miterlimit="4.0" stroke-opacity="0.6" stroke-width="1.0"/>
    <path d="M15.2 -140.2 L15.1 -138.9 M-20.9 -148.9 L-20.65 -149.35 -19.7 -151.2" fill="none" stroke="#000000" stroke-linecap="butt" stroke-linejoin="miter-clip" stroke-miterlimit="4.0" stroke-width="1.0"/>
    <path d="M116.45 242.75 L116.45 -134.45 M70.75 -101.85 L70.75 -101.3 70.75 -92.3 -70.7 -92.3 -70.7 -101.95 -70.7 -114.25 70.75 -114.25 70.75 -105.05 70.75 -101.85 M-115.25 242.75 L-115.25 -132.55" fill="none" stroke="#000000" stroke-linecap="round" stroke-linejoin="miter-clip" stroke-miterlimit="4.0" stroke-width="1.0"/>
  </g>
</svg>
