<?xml version="1.0" encoding="UTF-8" standalone="no"?>
<svg xmlns:xlink="http://www.w3.org/1999/xlink" height="402.1px" width="157.45px" xmlns="http://www.w3.org/2000/svg">
  <g transform="matrix(1.0, 0.0, 0.0, 1.0, 78.7, 202.55)">
    <path d="M-32.2 -194.2 L-24.0 -191.65 Q-19.1 -189.75 -17.9 -185.6 -15.0 -175.4 -11.85 -149.05 -7.5 -112.75 -9.35 -84.65 -11.65 -48.9 -11.85 -28.7 -12.05 -5.6 -9.35 -5.6 -2.4 -5.6 4.2 -8.0 15.55 -12.05 19.2 -21.8 20.45 -25.2 21.8 -27.3 L23.0 -28.95 24.35 -30.15 25.8 -31.2 Q28.25 -32.9 28.75 -42.75 29.0 -47.9 28.4 -59.9 L27.55 -80.5 Q27.2 -103.35 32.4 -109.3 L33.5 -110.35 35.35 -111.5 37.85 -112.7 37.95 -112.7 38.3 -112.85 39.15 -113.1 39.45 -113.2 42.1 -113.6 42.3 -113.6 46.35 -113.25 Q48.75 -112.75 51.25 -111.55 L50.9 -111.7 51.3 -111.25 Q54.0 -108.35 56.6 -104.35 L56.8 -104.05 57.7 -102.55 61.6 -95.6 61.85 -95.15 Q62.95 -92.9 63.35 -89.7 L63.5 -88.3 Q63.65 -83.25 64.0 -80.7 L64.65 -76.75 65.45 -71.75 65.5 -71.35 65.7 -70.3 Q66.4 -65.45 66.35 -61.9 66.35 -54.75 65.4 -45.05 L65.25 -43.35 Q64.55 -47.0 64.45 -48.85 L64.05 -57.3 Q63.75 -62.0 63.0 -65.6 L61.35 -73.05 Q59.75 -79.4 57.95 -84.7 54.75 -93.95 50.35 -101.65 L49.75 -102.65 Q49.45 -95.0 49.8 -90.0 50.3 -83.2 52.2 -77.8 54.5 -71.3 55.15 -64.5 55.85 -57.3 54.55 -50.95 54.0 -48.05 54.45 -44.65 L55.4 -38.5 Q55.7 -35.7 55.1 -31.55 L54.0 -24.65 53.7 -22.95 Q53.8 -26.85 53.5 -31.8 L52.15 -44.75 Q50.65 -60.3 50.65 -66.55 50.65 -77.25 45.9 -95.85 43.5 -105.15 41.1 -112.3 43.5 -105.15 45.9 -95.85 50.65 -77.25 50.65 -66.55 50.65 -60.3 52.15 -44.75 L53.5 -31.8 Q53.8 -26.85 53.7 -22.95 52.4 -17.6 49.0 -13.25 45.15 -8.45 39.65 -6.4 L38.75 -6.1 36.9 -5.6 39.65 -6.4 36.9 -5.6 31.9 -4.75 25.05 -3.7 Q23.5 -3.35 15.1 0.25 12.5 1.4 10.35 2.0 15.65 -0.85 22.65 -5.5 31.2 -11.2 32.55 -13.25 37.45 -20.65 44.95 -22.75 49.1 -23.95 51.25 -36.3 L52.15 -44.75 51.25 -36.3 Q49.1 -23.95 44.95 -22.75 37.45 -20.65 32.55 -13.25 31.2 -11.2 22.65 -5.5 15.65 -0.85 10.35 2.0 L9.85 2.1 10.2 2.05 14.7 1.5 14.85 1.5 24.45 0.45 Q34.8 -0.1 40.9 -1.7 45.1 -2.85 48.65 -4.7 52.4 -6.65 55.45 -9.45 60.35 -14.0 63.4 -21.15 L63.6 -21.65 63.65 -20.65 Q63.95 -15.65 63.15 -12.95 62.25 -9.85 58.9 -5.9 56.1 -2.55 53.35 -0.7 L52.65 -0.25 52.6 -0.2 51.5 0.4 Q49.2 1.5 45.75 2.1 L38.4 2.95 30.1 4.5 21.95 6.65 Q16.85 7.85 11.45 10.05 8.8 11.1 1.7 14.35 L-1.75 15.35 -0.8 21.9 Q-0.3 28.75 -2.7 30.55 -5.15 32.45 -6.5 39.75 -7.35 44.5 -7.45 48.8 L-7.45 49.6 -6.35 53.8 -4.5 60.15 -3.05 65.0 -2.2 67.95 -1.75 69.4 -0.95 72.2 0.2 76.5 Q3.05 87.65 3.05 93.45 3.05 99.1 3.95 109.1 L4.95 119.4 5.35 122.7 6.0 128.65 6.85 135.35 1.25 199.05 -7.75 198.25 -13.15 131.05 -15.15 95.2 Q-17.6 52.2 -17.45 35.35 -17.6 52.2 -15.15 95.2 L-13.15 131.05 -19.05 57.65 -19.5 47.5 -19.65 49.95 -23.2 5.95 Q-20.95 14.5 -20.95 19.95 -20.95 26.7 -20.0 40.2 L-19.5 47.5 Q-19.2 44.0 -18.5 40.1 L-17.45 35.35 Q-15.35 25.4 -14.55 19.95 -13.1 10.3 -15.25 -4.25 -18.2 -24.3 -18.4 -28.35 -18.8 -36.55 -18.4 -48.95 L-17.75 -69.55 Q-17.65 -76.85 -19.25 -90.55 -20.95 -104.65 -20.95 -111.7 -20.95 -117.5 -19.65 -129.5 -18.15 -142.8 -17.95 -148.7 -17.05 -170.05 -25.45 -181.7 L-26.75 -184.65 Q-29.35 -190.4 -32.2 -194.2 -29.35 -190.4 -26.75 -184.65 L-25.45 -181.7 -26.85 -183.45 Q-26.3 -179.7 -26.75 -173.0 L-26.75 -172.5 -27.05 -166.4 -27.0 -162.6 -26.95 -161.95 Q-26.05 -148.8 -28.05 -138.95 -29.25 -133.05 -28.95 -126.4 -28.65 -120.95 -27.3 -113.9 -26.05 -107.75 -27.05 -100.2 L-28.25 -93.15 -28.45 -93.95 Q-33.45 -116.8 -33.45 -127.7 -33.45 -135.2 -32.35 -145.1 L-30.35 -161.4 -30.3 -162.1 -30.1 -164.7 -30.15 -168.3 Q-30.4 -171.8 -31.2 -175.65 -32.4 -181.55 -34.85 -187.35 L-36.45 -191.9 -39.75 -199.75 -39.75 -199.8 -38.65 -199.0 -36.9 -197.45 -35.65 -196.45 Q-33.9 -194.95 -32.55 -194.35 L-32.5 -194.35 -32.45 -194.3 -32.4 -194.3 -32.25 -194.2 -32.2 -194.2 M61.1 -102.0 L61.25 -101.85 Q61.6 -101.15 61.1 -102.0 M-8.1 198.2 L-8.15 198.2 -9.35 197.4 -9.35 190.7 -8.1 198.2 M-19.4 191.8 L-30.4 193.6 -32.35 193.95 Q-34.3 178.55 -35.2 167.0 L-35.4 164.3 Q-36.85 144.85 -36.05 128.05 -35.5 116.75 -35.4 101.6 L-35.4 75.0 -36.1 64.1 -36.5 56.3 Q-36.75 48.8 -35.4 43.3 -34.65 40.4 -33.5 38.05 L-32.4 40.85 Q-31.05 44.8 -30.3 50.15 L-28.9 62.65 -27.2 74.45 -26.45 84.85 -32.4 40.85 -26.45 84.85 -25.55 92.45 -24.7 97.95 -23.8 103.55 Q-23.3 110.8 -23.3 117.05 -23.45 113.0 -26.15 104.05 L-27.65 98.15 Q-28.55 93.85 -28.4 90.8 L-28.8 98.2 Q-29.25 108.9 -28.75 121.0 -28.05 136.4 -26.0 151.05 -22.35 176.35 -20.0 188.35 L-19.4 191.8 M-69.1 -184.15 L-69.15 -184.4 -68.05 -185.8 -67.85 -186.05 -67.55 -186.45 -67.4 -186.6 -67.35 -186.65 -67.05 -187.05 -65.75 -188.5 -65.7 -188.6 -64.55 -189.8 -64.45 -189.95 -63.65 -190.8 -63.6 -190.85 -63.15 -191.3 -61.75 -192.65 -61.45 -192.95 -60.3 -194.0 -59.3 -194.9 -58.8 -195.35 -56.5 -197.25 -53.65 -199.3 -53.25 -199.55 -52.8 -199.15 -52.25 -198.5 Q-49.75 -195.45 -48.3 -190.65 -47.45 -188.0 -46.2 -181.15 -45.35 -176.5 -45.85 -169.75 L-46.8 -158.3 -48.7 -137.4 Q-49.8 -124.75 -48.25 -116.55 -45.45 -104.15 -44.35 -98.25 -42.5 -88.2 -43.0 -79.55 -43.45 -71.55 -41.55 -58.9 L-38.55 -38.3 Q-38.0 -32.15 -37.9 -25.2 L-38.85 -26.55 -39.8 -27.95 Q-40.5 -26.2 -40.6 -23.55 L-41.75 -36.1 Q-42.5 -47.45 -45.5 -64.4 -42.5 -47.45 -41.75 -36.1 L-40.6 -23.55 Q-40.7 -21.1 -40.2 -17.8 L-39.2 -11.2 -38.55 -7.35 -38.55 -7.25 Q-36.1 1.6 -36.65 7.9 -36.75 5.0 -37.45 0.35 L-38.55 -7.25 -38.8 -8.1 -43.35 -22.15 Q-46.1 -31.05 -46.15 -37.2 -46.2 -41.35 -46.55 -45.45 L-45.05 -40.35 -43.6 -35.3 -42.35 -30.25 Q-41.75 -36.5 -43.55 -47.8 -45.35 -59.15 -45.5 -64.4 L-45.55 -65.6 -45.3 -73.9 Q-45.15 -78.95 -45.55 -82.1 -46.0 -85.45 -48.0 -89.0 L-51.8 -95.35 -55.5 -113.2 -51.8 -95.35 -51.9 -95.5 Q-55.45 -102.05 -55.6 -110.5 L-55.5 -113.2 Q-55.25 -118.55 -53.8 -125.95 -50.0 -145.3 -51.25 -159.6 L-52.65 -174.2 -53.65 -179.45 Q-54.85 -184.6 -56.8 -188.1 -57.75 -180.0 -57.7 -169.6 L-57.7 -168.55 -56.95 -149.05 Q-56.4 -136.3 -56.35 -117.3 L-58.85 -130.35 -59.0 -131.45 -58.85 -130.35 -56.35 -117.3 -56.35 -113.25 Q-56.3 -106.05 -53.4 -95.55 -49.9 -82.75 -49.3 -78.35 -48.85 -74.9 -49.15 -68.9 L-49.35 -63.1 -51.25 -71.15 Q-54.9 -85.55 -56.6 -97.45 L-57.65 -106.25 -58.5 -120.9 -58.9 -128.85 -59.0 -131.45 Q-59.65 -143.7 -60.8 -151.3 -61.15 -153.7 -62.0 -156.8 L-62.5 -158.5 -64.75 -165.75 -67.15 -174.95 -69.1 -184.15 -68.05 -185.8 -69.1 -184.15 M-46.8 -202.05 L-46.4 -202.05 Q-43.95 -202.15 -41.45 -200.8 L-40.9 -200.5 -40.6 -200.35 -39.8 -199.85 -39.8 -199.8 -40.6 -200.35 -39.8 -199.8 -36.45 -158.35 Q-37.2 -149.5 -38.45 -140.7 L-38.55 -140.9 Q-39.75 -138.7 -40.25 -134.95 L-41.05 -128.65 Q-43.75 -137.4 -42.15 -149.55 L-40.7 -159.7 Q-39.85 -165.85 -39.8 -170.4 L-40.05 -179.2 -40.45 -188.15 Q-40.8 -196.0 -46.8 -202.05 M33.8 -109.3 L33.5 -110.35 33.8 -109.3 34.55 -105.1 Q35.75 -98.0 36.35 -88.45 L38.2 -69.45 36.35 -88.45 Q35.75 -98.0 34.55 -105.1 L33.8 -109.3 M23.0 -11.25 L23.95 -11.9 Q27.0 -13.85 28.0 -16.0 29.0 -18.7 30.25 -20.75 31.4 -22.55 34.6 -24.05 38.3 -25.8 39.25 -26.65 40.95 -28.25 41.8 -31.05 L42.95 -36.1 Q44.45 -42.35 43.85 -50.6 42.85 -60.05 42.55 -65.15 42.05 -74.85 41.0 -81.9 40.65 -84.35 38.9 -89.15 37.25 -93.65 36.9 -96.15 L38.3 -82.05 Q38.75 -75.0 38.2 -69.45 L38.0 -67.65 35.85 -56.7 Q34.45 -50.0 34.45 -45.6 L34.7 -39.6 Q34.85 -35.9 34.45 -33.7 33.75 -30.1 30.75 -27.45 30.0 -26.85 24.75 -23.4 21.55 -21.35 19.8 -18.1 L16.75 -11.35 Q15.4 -8.55 11.8 -5.95 L7.35 -2.8 5.9 -1.85 Q8.05 -2.55 10.55 -3.7 19.85 -6.65 23.0 -11.25 19.85 -6.65 10.55 -3.7 12.75 -4.8 15.2 -6.25 L23.0 -11.25 M-7.45 1.05 Q-5.85 0.25 -0.65 -0.9 L7.35 -2.8 -0.65 -0.9 Q-5.85 0.25 -7.45 1.05 M51.4 -111.5 L51.45 -111.45 51.4 -111.5 M46.85 -111.3 L50.35 -101.65 46.85 -111.3 M8.45 2.95 L10.2 2.05 8.45 2.95 M-32.45 -194.3 L-32.55 -194.35 -32.45 -194.3 M-64.45 -189.95 L-63.65 -190.75 Q-63.6 -183.1 -63.05 -172.4 L-62.0 -156.8 -63.05 -172.4 Q-63.6 -183.1 -63.65 -190.75 L-64.45 -189.95 M-63.55 -190.85 L-63.65 -190.75 -63.65 -190.8 -63.65 -190.75 -63.55 -190.85 -63.15 -191.3 -63.55 -190.85 M-39.2 -11.2 L-38.8 -8.1 -39.2 -11.2 M-56.6 -97.45 L-58.5 -120.9 -56.6 -97.45 M-54.6 -48.3 L-54.1 -46.1 Q-51.7 -36.5 -50.75 -25.2 -50.0 -16.45 -50.0 -4.05 -50.0 2.25 -47.75 13.85 -45.55 25.45 -45.55 31.55 L-45.4 51.15 Q-45.45 62.45 -46.2 70.7 L-50.0 110.9 Q-50.75 118.8 -49.45 132.05 -47.95 147.3 -48.05 153.2 L-49.75 148.45 -53.4 137.9 Q-56.0 129.35 -56.35 121.7 -56.6 115.25 -55.55 103.9 -54.4 91.45 -54.4 86.1 -54.4 82.25 -53.8 78.1 L-52.4 70.25 -52.0 67.95 Q-51.45 64.0 -51.5 59.3 L-51.95 49.55 -52.05 48.2 Q-53.35 24.2 -55.55 9.45 -57.35 -2.5 -58.0 -16.65 -58.5 -27.6 -58.4 -42.9 L-59.6 -63.55 Q-60.05 -75.85 -56.4 -83.5 -57.6 -80.85 -57.0 -74.1 L-56.0 -64.0 -55.55 -54.9 -54.6 -48.3 Q-53.6 -31.35 -51.15 -4.45 -48.2 27.05 -46.5 39.15 -45.35 47.35 -47.8 75.95 L-51.25 113.45 Q-51.75 120.75 -49.75 148.45 -51.75 120.75 -51.25 113.45 L-47.8 75.95 Q-45.35 47.35 -46.5 39.15 -48.2 27.05 -51.15 -4.45 -53.6 -31.35 -54.6 -48.3 M-36.1 64.1 L-35.4 43.3 -36.1 64.1 M-30.4 193.6 L-33.25 178.3 -35.2 167.0 -33.25 178.3 -30.4 193.6 M-5.55 7.7 Q-4.05 7.7 14.85 1.5 -4.05 7.7 -5.55 7.7" fill="#000000" fill-opacity="0.2" fill-rule="evenodd" stroke="none"/>
    <path d="M51.3 -111.5 Q55.15 -109.5 57.7 -106.7 L58.95 -105.2 59.6 -104.35 61.1 -102.0 63.8 -95.15 63.8 -95.05 64.0 -94.2 Q65.4 -87.95 66.6 -78.9 L67.35 -73.15 67.45 -72.4 67.7 -70.3 Q69.25 -55.9 69.35 -43.35 L69.35 -43.0 69.35 -41.65 69.15 -33.0 68.6 -25.65 Q66.25 -4.4 57.0 0.4 L55.4 1.05 51.5 2.35 Q39.85 6.15 28.6 8.2 L18.25 9.6 2.25 14.2 1.95 14.3 1.7 14.35 Q8.8 11.1 11.45 10.05 16.85 7.85 21.95 6.65 L30.1 4.5 38.4 2.95 45.75 2.1 Q49.2 1.5 51.5 0.4 L52.6 -0.2 52.65 -0.25 53.35 -0.7 Q56.1 -2.55 58.9 -5.9 62.25 -9.85 63.15 -12.95 63.95 -15.65 63.65 -20.65 L63.6 -21.65 63.4 -21.15 Q60.35 -14.0 55.45 -9.45 52.4 -6.65 48.65 -4.7 45.1 -2.85 40.9 -1.7 34.8 -0.1 24.45 0.45 L14.85 1.5 18.25 0.35 36.9 -5.6 18.25 0.35 14.85 1.5 14.7 1.5 10.2 2.05 9.85 2.1 10.35 2.0 Q12.5 1.4 15.1 0.25 23.5 -3.35 25.05 -3.7 L31.9 -4.75 36.9 -5.6 38.75 -6.1 39.65 -6.4 Q45.15 -8.45 49.0 -13.25 52.4 -17.6 53.7 -22.95 L54.0 -24.65 55.1 -31.55 Q55.7 -35.7 55.4 -38.5 L54.45 -44.65 Q54.0 -48.05 54.55 -50.95 55.85 -57.3 55.15 -64.5 54.5 -71.3 52.2 -77.8 50.3 -83.2 49.8 -90.0 49.45 -95.0 49.75 -102.65 L50.35 -101.65 Q54.75 -93.95 57.95 -84.7 59.75 -79.4 61.35 -73.05 L63.0 -65.6 Q63.75 -62.0 64.05 -57.3 L64.45 -48.85 Q64.55 -47.0 65.25 -43.35 L65.4 -45.05 Q66.35 -54.75 66.35 -61.9 66.4 -65.45 65.7 -70.3 L65.5 -71.35 65.45 -71.75 64.65 -76.75 64.0 -80.7 Q63.65 -83.25 63.5 -88.3 L63.35 -89.7 Q62.95 -92.9 61.85 -95.15 L61.6 -95.6 57.7 -102.55 56.8 -104.05 56.6 -104.35 Q54.0 -108.35 51.3 -111.25 L50.9 -111.7 51.3 -111.5 M-25.45 -181.7 Q-17.05 -170.05 -17.95 -148.7 -18.15 -142.8 -19.65 -129.5 -20.95 -117.5 -20.95 -111.7 -20.95 -104.65 -19.25 -90.55 -17.65 -76.85 -17.75 -69.55 L-18.4 -48.95 Q-18.8 -36.55 -18.4 -28.35 -18.2 -24.3 -15.25 -4.25 -13.1 10.3 -14.55 19.95 -15.35 25.4 -17.45 35.35 L-18.5 40.1 Q-19.2 44.0 -19.5 47.5 L-20.0 40.2 Q-20.95 26.7 -20.95 19.95 -20.95 14.5 -23.2 5.95 L-25.35 -20.4 Q-23.9 -24.95 -26.0 -47.85 L-28.1 -66.85 -28.35 -68.95 -29.35 -78.0 -29.8 -82.65 -32.55 -112.5 -35.05 -142.75 -34.1 -159.4 -33.45 -170.7 -33.15 -178.95 Q-33.15 -181.95 -34.85 -187.35 -32.4 -181.55 -31.2 -175.65 -30.4 -171.8 -30.15 -168.3 L-30.1 -164.7 -30.3 -162.1 -30.35 -161.4 -32.35 -145.1 Q-33.45 -135.2 -33.45 -127.7 -33.45 -116.8 -28.45 -93.95 L-28.25 -93.15 -27.05 -100.2 Q-26.05 -107.75 -27.3 -113.9 -28.65 -120.95 -28.95 -126.4 -29.25 -133.05 -28.05 -138.95 -26.05 -148.8 -26.95 -161.95 L-27.0 -162.6 -27.05 -166.4 -26.75 -172.5 -26.75 -173.0 Q-26.3 -179.7 -26.85 -183.45 L-25.45 -181.7 Q-21.65 -172.0 -22.7 -163.7 -24.0 -153.4 -23.75 -105.6 L-23.45 -72.5 -23.15 -72.75 -23.45 -72.5 -23.75 -105.6 Q-24.0 -153.4 -22.7 -163.7 -21.65 -172.0 -25.45 -181.7 M38.2 -69.45 Q38.75 -75.0 38.3 -82.05 L36.9 -96.15 Q37.25 -93.65 38.9 -89.15 40.65 -84.35 41.0 -81.9 42.05 -74.85 42.55 -65.15 42.85 -60.05 43.85 -50.6 44.45 -42.35 42.95 -36.1 L41.8 -31.05 Q40.95 -28.25 39.25 -26.65 38.3 -25.8 34.6 -24.05 31.4 -22.55 30.25 -20.75 29.0 -18.7 28.0 -16.0 27.0 -13.85 23.95 -11.9 L23.0 -11.25 24.0 -13.25 Q26.35 -19.7 29.95 -23.1 34.45 -26.55 37.3 -29.4 40.9 -33.0 39.35 -55.4 L38.2 -69.45 39.35 -55.4 Q40.9 -33.0 37.3 -29.4 34.45 -26.55 29.95 -23.1 26.35 -19.7 24.0 -13.25 L23.0 -11.25 15.2 -6.25 Q12.75 -4.8 10.55 -3.7 8.05 -2.55 5.9 -1.85 L7.35 -2.8 11.8 -5.95 Q15.4 -8.55 16.75 -11.35 L19.8 -18.1 Q21.55 -21.35 24.75 -23.4 30.0 -26.85 30.75 -27.45 33.75 -30.1 34.45 -33.7 34.85 -35.9 34.7 -39.6 L34.45 -45.6 Q34.45 -50.0 35.85 -56.7 L38.0 -67.65 38.2 -69.45 M47.8 -8.45 Q53.25 -9.4 53.7 -22.95 53.25 -9.4 47.8 -8.45 M7.35 -2.8 L8.95 -3.25 10.55 -3.7 8.95 -3.25 7.35 -2.8 M2.25 14.2 L1.7 14.35 2.25 14.2 M50.35 -101.65 Q53.25 -93.0 56.05 -82.9 64.9 -51.15 63.05 -34.2 61.05 -16.15 49.45 -9.05 L48.65 -8.55 Q43.25 -5.5 38.25 -5.6 43.25 -5.5 48.65 -8.55 L49.45 -9.05 Q61.05 -16.15 63.05 -34.2 64.9 -51.15 56.05 -82.9 53.25 -93.0 50.35 -101.65 M-36.45 -158.35 L-30.5 -84.55 Q-31.0 -88.3 -31.8 -92.65 L-34.75 -108.8 Q-35.6 -114.3 -38.0 -123.95 -39.75 -132.35 -38.7 -139.25 L-38.45 -140.7 Q-37.2 -149.5 -36.45 -158.35 M-23.45 -72.5 L-23.4 -66.2 -22.7 -33.25 Q-22.2 -16.05 -18.4 3.8 -15.55 18.7 -16.95 25.8 -17.45 28.25 -17.45 35.35 -17.45 28.25 -16.95 25.8 -15.55 18.7 -18.4 3.8 -22.2 -16.05 -22.7 -33.25 L-23.4 -66.2 -23.45 -72.5 M-56.35 -117.3 Q-56.4 -136.3 -56.95 -149.05 L-57.7 -168.55 -57.7 -169.6 Q-57.75 -180.0 -56.8 -188.1 -54.85 -184.6 -53.65 -179.45 L-52.65 -174.2 -51.25 -159.6 Q-50.0 -145.3 -53.8 -125.95 -55.25 -118.55 -55.5 -113.2 L-56.35 -117.3 -55.5 -113.2 -55.6 -110.5 Q-55.45 -102.05 -51.9 -95.5 L-51.8 -95.35 -48.0 -89.0 Q-46.0 -85.45 -45.55 -82.1 -45.15 -78.95 -45.3 -73.9 L-45.55 -65.6 -45.5 -64.4 Q-47.1 -73.05 -49.25 -83.2 L-51.8 -95.35 -49.25 -83.2 Q-47.1 -73.05 -45.5 -64.4 -45.35 -59.15 -43.55 -47.8 -41.75 -36.5 -42.35 -30.25 L-43.6 -35.3 -45.05 -40.35 -46.55 -45.45 -47.8 -49.8 Q-49.1 -55.05 -49.35 -59.4 L-49.35 -63.1 -49.15 -68.9 Q-48.85 -74.9 -49.3 -78.35 -49.9 -82.75 -53.4 -95.55 -56.3 -106.05 -56.35 -113.25 L-56.35 -117.3 M-26.7 -13.45 L-27.4 -27.4 Q-27.9 -37.1 -28.6 -44.2 -29.9 -57.8 -30.2 -65.5 L-30.3 -73.45 -30.05 -79.25 -25.35 -20.4 -25.55 -19.9 Q-26.25 -18.5 -26.7 -13.45 M-19.05 57.65 L-19.65 49.95 -19.5 47.5 -19.05 57.65" fill="#000000" fill-opacity="0.3019608" fill-rule="evenodd" stroke="none"/>
    <path d="M-7.75 198.25 L-8.1 198.2 -9.35 190.7 -9.35 197.4 -17.8 191.5 -19.4 191.8 -20.0 188.35 Q-22.35 176.35 -26.0 151.05 -28.05 136.4 -28.75 121.0 -29.25 108.9 -28.8 98.2 L-28.4 90.8 Q-28.55 93.85 -27.65 98.15 L-26.15 104.05 Q-23.45 113.0 -23.3 117.05 -23.3 110.8 -23.8 103.55 L-24.7 97.95 -25.55 92.45 -26.45 84.85 -27.2 74.45 -28.9 62.65 -30.3 50.15 Q-31.05 44.8 -32.4 40.85 L-32.9 37.1 Q-36.65 9.95 -38.8 -8.1 -36.65 9.95 -32.9 37.1 L-32.4 40.85 -33.5 38.05 Q-34.65 40.4 -35.4 43.3 L-34.75 25.8 -35.4 43.3 Q-36.75 48.8 -36.5 56.3 L-36.1 64.1 -35.4 75.0 -35.4 101.6 Q-35.5 116.75 -36.05 128.05 -36.85 144.85 -35.4 164.3 L-35.2 167.0 Q-37.45 153.25 -37.9 146.75 -38.5 137.8 -36.7 80.9 L-36.1 64.1 -36.7 80.9 Q-38.5 137.8 -37.9 146.75 -37.45 153.25 -35.2 167.0 -34.3 178.55 -32.35 193.95 L-40.05 195.2 -46.05 193.8 -52.7 192.25 -65.55 198.7 -66.25 182.7 Q-66.7 167.35 -65.8 160.85 L-65.55 159.15 -61.75 126.75 Q-63.65 96.3 -64.6 86.75 -65.15 81.1 -62.8 67.95 L-62.55 66.55 -59.8 53.45 -60.2 49.55 -64.1 11.45 -67.05 -19.95 -68.1 -33.8 -68.35 -38.45 -68.35 -38.6 -68.4 -39.9 -68.1 -49.75 -67.1 -72.75 -66.45 -88.75 -66.3 -96.65 Q-66.35 -99.15 -66.5 -99.9 L-67.1 -103.1 -68.95 -114.25 -72.1 -136.2 Q-76.15 -167.35 -74.45 -174.95 L-74.1 -176.1 -73.95 -176.45 -73.65 -177.15 -69.1 -184.15 -67.15 -174.95 -64.75 -165.75 -62.5 -158.5 -62.0 -156.8 Q-61.15 -153.7 -60.8 -151.3 -59.65 -143.7 -59.0 -131.45 L-60.5 -141.95 -60.85 -145.0 -62.0 -156.8 -60.85 -145.0 -60.5 -141.95 -59.0 -131.45 -58.9 -128.85 -58.5 -120.9 -57.65 -106.25 -56.6 -97.45 Q-54.9 -85.55 -51.25 -71.15 L-49.35 -63.1 -49.35 -59.4 Q-49.1 -55.05 -47.8 -49.8 L-46.55 -45.45 Q-46.2 -41.35 -46.15 -37.2 -46.1 -31.05 -43.35 -22.15 L-38.8 -8.1 -38.55 -7.25 -37.45 0.35 Q-36.75 5.0 -36.65 7.9 -36.1 1.6 -38.55 -7.25 L-38.55 -7.35 -39.2 -11.2 -40.6 -23.55 -39.2 -11.2 -40.2 -17.8 Q-40.7 -21.1 -40.6 -23.55 -40.5 -26.2 -39.8 -27.95 L-38.85 -26.55 -37.9 -25.2 Q-38.0 -32.15 -38.55 -38.3 L-41.55 -58.9 Q-43.45 -71.55 -43.0 -79.55 -42.5 -88.2 -44.35 -98.25 -45.45 -104.15 -48.25 -116.55 -49.8 -124.75 -48.7 -137.4 L-46.8 -158.3 -45.85 -169.75 Q-45.35 -176.5 -46.2 -181.15 -47.45 -188.0 -48.3 -190.65 -49.75 -195.45 -52.25 -198.5 L-52.8 -199.15 -53.25 -199.55 -53.65 -199.3 -56.5 -197.25 -58.8 -195.35 -59.3 -194.9 -60.3 -194.0 -61.45 -192.95 -61.75 -192.65 -60.3 -194.05 -59.3 -194.95 -58.8 -195.4 -56.5 -197.3 -53.65 -199.35 -52.25 -200.2 Q-50.2 -201.35 -48.4 -201.8 L-46.8 -202.05 Q-40.8 -196.0 -40.45 -188.15 L-40.05 -179.2 -39.8 -170.4 Q-39.85 -165.85 -40.7 -159.7 L-42.15 -149.55 Q-43.75 -137.4 -41.05 -128.65 L-40.25 -134.95 Q-39.75 -138.7 -38.55 -140.9 L-38.45 -140.7 -38.7 -139.25 Q-39.75 -132.35 -38.0 -123.95 -35.6 -114.3 -34.75 -108.8 L-31.8 -92.65 Q-31.0 -88.3 -30.5 -84.55 L-36.45 -158.35 -39.8 -199.8 -39.8 -199.85 -39.8 -199.9 -39.75 -199.8 -39.75 -199.75 -39.8 -199.8 -39.75 -199.75 -36.45 -191.9 -34.85 -187.35 Q-33.15 -181.95 -33.15 -178.95 L-33.45 -170.7 -34.1 -159.4 -35.05 -142.75 -32.55 -112.5 -29.8 -82.65 -29.35 -78.0 -28.35 -68.95 -28.1 -66.85 -26.0 -47.85 Q-23.9 -24.95 -25.35 -20.4 L-23.2 5.95 -19.65 49.95 -19.05 57.65 -13.15 131.05 -7.75 198.25 M-68.05 -185.8 L-67.95 -185.95 -67.85 -186.05 -67.7 -186.25 -67.55 -186.45 -67.85 -186.05 -68.05 -185.8 M-67.4 -186.6 L-67.05 -187.05 -67.35 -186.65 -67.4 -186.6 M-60.3 -194.0 L-60.3 -194.05 -60.3 -194.0 M-58.8 -195.35 L-58.8 -195.4 -58.8 -195.35 M-56.5 -197.25 L-56.5 -197.3 -56.5 -197.25 M-26.7 -13.45 Q-27.9 -1.85 -28.05 29.15 -28.15 57.0 -27.2 74.45 -28.15 57.0 -28.05 29.15 -27.9 -1.85 -26.7 -13.45 -26.25 -18.5 -25.55 -19.9 L-25.35 -20.4 -30.05 -79.25 -30.3 -73.45 -30.2 -65.5 Q-29.9 -57.8 -28.6 -44.2 -27.9 -37.1 -27.4 -27.4 L-26.7 -13.45 M-54.6 -48.3 L-55.05 -58.0 -56.2 -90.65 -56.6 -97.45 -56.2 -90.65 -55.05 -58.0 -54.6 -48.3 -55.55 -54.9 -56.0 -64.0 -57.0 -74.1 Q-57.6 -80.85 -56.4 -83.5 -60.05 -75.85 -59.6 -63.55 L-58.4 -42.9 Q-58.5 -27.6 -58.0 -16.65 -57.35 -2.5 -55.55 9.45 -53.35 24.2 -52.05 48.2 L-51.95 49.55 -51.5 59.3 Q-51.45 64.0 -52.0 67.95 L-52.4 70.25 -53.8 78.1 Q-54.4 82.25 -54.4 86.1 -54.4 91.45 -55.55 103.9 -56.6 115.25 -56.35 121.7 -56.0 129.35 -53.4 137.9 L-49.75 148.45 -48.05 153.2 Q-47.95 147.3 -49.45 132.05 -50.75 118.8 -50.0 110.9 L-46.2 70.7 Q-45.45 62.45 -45.4 51.15 L-45.55 31.55 Q-45.55 25.45 -47.75 13.85 -50.0 2.25 -50.0 -4.05 -50.0 -16.45 -50.75 -25.2 -51.7 -36.5 -54.1 -46.1 L-54.6 -48.3 M-58.5 -120.9 L-60.5 -141.95 -58.5 -120.9 M-46.05 193.8 L-48.75 161.65 -49.75 148.45 -48.75 161.65 -46.05 193.8 M-23.8 103.55 L-9.35 190.7 -23.8 103.55" fill="#ffffff" fill-opacity="0.0" fill-rule="evenodd" stroke="none"/>
    <path d="M-32.2 -194.2 L-24.0 -191.65 Q-19.1 -189.75 -17.9 -185.6 -15.0 -175.4 -11.85 -149.05 -7.5 -112.75 -9.35 -84.65 -11.65 -48.9 -11.85 -28.7 -12.05 -5.6 -9.35 -5.6 -2.4 -5.6 4.2 -8.0 15.55 -12.05 19.2 -21.8 20.45 -25.2 21.8 -27.3 L23.0 -28.95 24.35 -30.15 25.8 -31.2 Q28.25 -32.9 28.75 -42.75 29.0 -47.9 28.4 -59.9 L27.55 -80.5 Q27.2 -103.35 32.4 -109.3 L33.5 -110.35 35.35 -111.5 37.85 -112.7 M38.3 -112.85 L39.15 -113.1 39.45 -113.2 42.1 -113.6 42.3 -113.6 46.35 -113.25 Q48.75 -112.75 51.25 -111.55 L51.3 -111.5 Q55.15 -109.5 57.7 -106.7 L58.95 -105.2 59.6 -104.35 61.1 -102.0 63.8 -95.15 63.8 -95.05 64.0 -94.2 Q65.4 -87.95 66.6 -78.9 L67.35 -73.15 67.45 -72.4 67.7 -70.3 Q69.25 -55.9 69.35 -43.35 L69.35 -43.0 69.35 -41.65 69.15 -33.0 68.6 -25.65 Q66.25 -4.4 57.0 0.4 L55.4 1.05 51.5 2.35 Q39.85 6.15 28.6 8.2 L18.25 9.6 2.25 14.2 M1.7 14.35 L-1.75 15.35 -0.8 21.9 Q-0.3 28.75 -2.7 30.55 -5.15 32.45 -6.5 39.75 -7.35 44.5 -7.45 48.8 L-7.45 49.6 -6.35 53.8 -4.5 60.15 -3.05 65.0 -2.2 67.95 -1.75 69.4 -0.95 72.2 0.2 76.5 Q3.05 87.65 3.05 93.45 3.05 99.1 3.95 109.1 L4.95 119.4 5.35 122.7 6.0 128.65 6.85 135.35 1.25 199.05 M-65.55 198.7 L-66.25 182.7 Q-66.7 167.35 -65.8 160.85 L-65.55 159.15 -61.75 126.75 Q-63.65 96.3 -64.6 86.75 -65.15 81.1 -62.8 67.95 L-62.55 66.55 -59.8 53.45 -60.2 49.55 -64.1 11.45 -67.05 -19.95 -68.1 -33.8 -68.35 -38.45 -68.35 -38.6 -68.4 -39.9 -68.1 -49.75 -67.1 -72.75 -66.45 -88.75 -66.3 -96.65 Q-66.35 -99.15 -66.5 -99.9 L-67.1 -103.1 -68.95 -114.25 -72.1 -136.2 Q-76.15 -167.35 -74.45 -174.95 L-74.1 -176.1 -73.95 -176.45 -73.65 -177.15 -69.1 -184.15 -68.05 -185.8 -67.95 -185.95 -67.85 -186.05 -67.7 -186.25 -67.55 -186.45 -67.4 -186.6 -67.05 -187.05 -65.75 -188.5 -65.7 -188.6 -64.55 -189.8 -64.45 -189.95 M-63.6 -190.85 L-63.15 -191.3 -61.75 -192.65 -60.3 -194.05 -59.3 -194.95 -58.8 -195.4 -56.5 -197.3 -53.65 -199.35 -52.25 -200.2 Q-50.2 -201.35 -48.4 -201.8 L-46.8 -202.05 -46.4 -202.05 Q-43.95 -202.15 -41.45 -200.8 L-40.9 -200.5 M-39.8 -199.9 L-39.75 -199.8 -38.65 -199.0 -36.9 -197.45 -35.65 -196.45 Q-33.9 -194.95 -32.55 -194.35 L-32.45 -194.3 M33.5 -110.35 L33.8 -109.3 M50.9 -111.7 L51.3 -111.5 M-56.5 -197.3 L-56.5 -197.25 M-58.8 -195.4 L-58.8 -195.35 M-60.3 -194.05 L-60.3 -194.0 M-67.55 -186.45 L-67.85 -186.05 M-67.05 -187.05 L-67.35 -186.65 -67.4 -186.6 M-63.55 -190.85 L-63.15 -191.3" fill="none" stroke="#000000" stroke-linecap="round" stroke-linejoin="miter-clip" stroke-miterlimit="4.0" stroke-width="1.0"/>
    <path d="M37.85 -112.7 L37.95 -112.7 38.3 -112.85 M2.25 14.2 L1.95 14.3 M1.25 199.05 L-7.75 198.25 M-8.1 198.2 L-8.15 198.2 -9.35 197.4 -17.8 191.5 -19.4 191.8 -30.4 193.6 -32.35 193.95 -40.05 195.2 -46.05 193.8 -52.7 192.25 -65.55 198.7 M1.7 14.35 L2.25 14.2 M10.2 2.05 L8.45 2.95" fill="none" stroke="#000000" stroke-linecap="round" stroke-linejoin="miter-clip" stroke-miterlimit="4.0" stroke-opacity="0.6" stroke-width="1.0"/>
    <path d="M-7.75 198.25 L-8.1 198.2 -9.35 190.7 -23.8 103.55 -24.7 97.95 -25.55 92.45 -26.45 84.85 -27.2 74.45 Q-28.15 57.0 -28.05 29.15 -27.9 -1.85 -26.7 -13.45 -26.25 -18.5 -25.55 -19.9 L-25.35 -20.4 Q-23.9 -24.95 -26.0 -47.85 L-28.1 -66.85 -28.35 -68.95 -29.35 -78.0 -29.8 -82.65 -32.55 -112.5 -35.05 -142.75 -34.1 -159.4 -33.45 -170.7 -33.15 -178.95 Q-33.15 -181.95 -34.85 -187.35 L-36.45 -191.9 -39.75 -199.75 -39.75 -199.8 M-64.45 -189.95 L-63.65 -190.8 -63.6 -190.85 M-40.9 -200.5 L-40.6 -200.35 -39.8 -199.8 -39.75 -199.75 M-32.45 -194.3 L-32.4 -194.3 -32.2 -194.2 Q-29.35 -190.4 -26.75 -184.65 L-25.45 -181.7 Q-21.65 -172.0 -22.7 -163.7 -24.0 -153.4 -23.75 -105.6 L-23.45 -72.5 -23.15 -72.75 M-17.45 35.35 Q-17.6 52.2 -15.15 95.2 L-13.15 131.05 M33.8 -109.3 L34.55 -105.1 Q35.75 -98.0 36.35 -88.45 L38.2 -69.45 39.35 -55.4 Q40.9 -33.0 37.3 -29.4 34.45 -26.55 29.95 -23.1 26.35 -19.7 24.0 -13.25 L23.0 -11.25 Q19.85 -6.65 10.55 -3.7 L8.95 -3.25 7.35 -2.8 -0.65 -0.9 Q-5.85 0.25 -7.45 1.05 M50.35 -101.65 L46.85 -111.3 M41.1 -112.3 Q43.5 -105.15 45.9 -95.85 50.65 -77.25 50.65 -66.55 50.65 -60.3 52.15 -44.75 L53.5 -31.8 Q53.8 -26.85 53.7 -22.95 53.25 -9.4 47.8 -8.45 M39.65 -6.4 L36.9 -5.6 18.25 0.35 14.85 1.5 Q-4.05 7.7 -5.55 7.7 M10.35 2.0 Q15.65 -0.85 22.65 -5.5 31.2 -11.2 32.55 -13.25 37.45 -20.65 44.95 -22.75 49.1 -23.95 51.25 -36.3 L52.15 -44.75 M38.25 -5.6 Q43.25 -5.5 48.65 -8.55 L49.45 -9.05 Q61.05 -16.15 63.05 -34.2 64.9 -51.15 56.05 -82.9 53.25 -93.0 50.35 -101.65 M-17.45 35.35 Q-17.45 28.25 -16.95 25.8 -15.55 18.7 -18.4 3.8 -22.2 -16.05 -22.7 -33.25 L-23.4 -66.2 -23.45 -72.5 M-55.5 -113.2 L-51.8 -95.35 -49.25 -83.2 Q-47.1 -73.05 -45.5 -64.4 -42.5 -47.45 -41.75 -36.1 L-40.6 -23.55 -39.2 -11.2 -38.8 -8.1 Q-36.65 9.95 -32.9 37.1 L-32.4 40.85 -26.45 84.85 M-62.0 -156.8 L-63.05 -172.4 Q-63.6 -183.1 -63.65 -190.75 L-64.45 -189.95 M-63.65 -190.8 L-63.65 -190.75 -63.55 -190.85 M-59.0 -131.45 L-58.85 -130.35 -56.35 -117.3 -55.5 -113.2 M-62.0 -156.8 L-60.85 -145.0 -60.5 -141.95 -59.0 -131.45 M-58.5 -120.9 L-56.6 -97.45 -56.2 -90.65 -55.05 -58.0 -54.6 -48.3 Q-53.6 -31.35 -51.15 -4.45 -48.2 27.05 -46.5 39.15 -45.35 47.35 -47.8 75.95 L-51.25 113.45 Q-51.75 120.75 -49.75 148.45 L-48.75 161.65 -46.05 193.8 M-60.5 -141.95 L-58.5 -120.9 M-34.75 25.8 L-35.4 43.3 -36.1 64.1 -36.7 80.9 Q-38.5 137.8 -37.9 146.75 -37.45 153.25 -35.2 167.0 L-33.25 178.3 -30.4 193.6" fill="none" stroke="#000000" stroke-linecap="round" stroke-linejoin="miter-clip" stroke-miterlimit="4.0" stroke-opacity="0.4" stroke-width="1.0"/>
    <path d="M29.85 -115.5 L36.65 -110.55 M38.25 -112.25 L31.95 -121.55 M43.35 -118.0 L41.8 -111.55 M26.55 -28.05 L28.35 -34.5 M21.8 -27.3 L17.35 -28.95 M24.8 -29.25 L21.7 -34.95 M78.25 -36.4 L68.1 -32.6 M0.8 124.2 L10.35 121.05 M-33.45 -170.7 L-32.45 -173.65 M-26.1 -173.35 L-33.15 -164.65 M-24.1 -168.05 L-32.05 -163.65 M-32.8 -161.05 L-24.95 -162.25 M-66.0 -195.15 L-60.3 -191.8 M-76.15 -102.3 L-67.3 -100.35 M-71.75 -106.1 L-65.05 -101.8 M-28.35 -68.95 L-23.45 -72.5 M-30.8 -71.35 L-29.75 -75.65 M-28.1 -66.85 L-22.7 -66.1 M-66.3 -96.65 L-73.6 -92.6 M-78.2 -97.0 L-67.15 -98.85 M-72.45 -32.8 L-63.45 -34.95 M-65.05 -37.55 L-76.65 -41.25 M-56.5 -188.95 L-65.05 -200.35 M-58.4 -194.2 L-60.8 -201.3 M-56.5 -199.9 L-56.5 -193.25 M-64.05 60.1 L-55.3 62.95 M-55.25 59.85 L-63.4 55.85 M-1.1 57.55 L-8.7 63.25 M-17.6 97.55 L-28.8 98.2 M-58.85 154.7 L-64.9 153.7 -75.4 151.5 M-6.8 67.1 L2.1 62.0 M-9.35 66.45 L2.1 70.9 M10.95 129.95 L-1.1 126.75" fill="none" stroke="#000000" stroke-linecap="round" stroke-linejoin="miter-clip" stroke-miterlimit="4.0" stroke-opacity="0.4" stroke-width="1.0"/>
  </g>
</svg>
