<?xml version="1.0" encoding="UTF-8" standalone="no"?>
<svg xmlns:xlink="http://www.w3.org/1999/xlink" height="26.1px" width="20.85px" xmlns="http://www.w3.org/2000/svg">
  <g transform="matrix(1.0, 0.0, 0.0, 1.0, 10.4, 13.05)">
    <path d="M7.65 -5.3 Q6.0 -5.25 4.15 -3.9 L3.9 -3.7 0.8 -0.55 -3.05 4.95 Q-5.6 8.9 -6.85 10.2 L-9.35 10.25 -9.85 8.4 Q-10.3 2.2 -6.65 -3.7 L-5.4 -5.55 Q-3.85 -7.65 -1.9 -9.5 L-0.3 -10.9 Q2.85 -12.75 6.65 -12.5 L9.85 -11.9 7.65 -5.3" fill="#d6d6d6" fill-opacity="0.0" fill-rule="evenodd" stroke="none"/>
    <path d="M7.65 -5.3 L7.4 -4.55 7.35 -4.5 6.2 -3.8 6.05 -3.7 Q4.25 -2.2 1.85 1.6 0.15 4.25 -1.1 6.75 -2.85 9.8 -4.95 11.35 -6.0 12.15 -6.7 12.3 L-7.85 12.1 Q-8.9 11.75 -9.35 10.25 L-6.85 10.2 Q-5.6 8.9 -3.05 4.95 L0.8 -0.55 3.9 -3.7 4.15 -3.9 Q6.0 -5.25 7.65 -5.3" fill="#000000" fill-opacity="0.4" fill-rule="evenodd" stroke="none"/>
    <path d="M-7.85 12.1 L-6.7 12.3 Q-6.0 12.15 -4.95 11.35 -2.85 9.8 -1.1 6.75 0.15 4.25 1.85 1.6 4.25 -2.2 6.05 -3.7 4.3 -2.15 2.05 1.75 L-0.65 7.0 Q-2.4 10.05 -4.45 11.6 -5.5 12.4 -6.2 12.55 L-7.85 12.1" fill="#ffffff" fill-opacity="0.0" fill-rule="evenodd" stroke="none"/>
    <path d="M7.65 -5.3 Q6.0 -5.25 4.15 -3.9 L3.9 -3.7 0.8 -0.55 -3.05 4.95 Q-5.6 8.9 -6.85 10.2 L-9.35 10.25 M-7.85 12.1 L-6.7 12.3 Q-6.0 12.15 -4.95 11.35 -2.85 9.8 -1.1 6.75 0.15 4.25 1.85 1.6 4.25 -2.2 6.05 -3.7 L6.2 -3.8" fill="none" stroke="#000000" stroke-linecap="round" stroke-linejoin="round" stroke-opacity="0.6" stroke-width="1.0"/>
    <path d="M6.2 -3.8 L7.35 -4.5 7.4 -4.55 7.65 -5.3 M-9.35 10.25 Q-8.9 11.75 -7.85 12.1" fill="none" stroke="#000000" stroke-linecap="round" stroke-linejoin="round" stroke-width="1.0"/>
    <path d="M7.65 -5.3 L9.85 -11.9 6.65 -12.5 Q2.85 -12.75 -0.3 -10.9 L-1.9 -9.5 Q-3.85 -7.65 -5.4 -5.55 L-6.65 -3.7 Q-10.3 2.2 -9.85 8.4 L-9.35 10.25 M-7.85 12.1 L-6.2 12.55 Q-5.5 12.4 -4.45 11.6 -2.4 10.05 -0.65 7.0 L2.05 1.75 Q4.3 -2.15 6.05 -3.7" fill="none" stroke="#000000" stroke-linecap="round" stroke-linejoin="miter-clip" stroke-miterlimit="4.0" stroke-width="1.0"/>
  </g>
</svg>
