<?xml version="1.0" encoding="UTF-8" standalone="no"?>
<svg xmlns:xlink="http://www.w3.org/1999/xlink" height="25.4px" width="30.4px" xmlns="http://www.w3.org/2000/svg">
  <g transform="matrix(1.0, 0.0, 0.0, 1.0, 15.2, 12.7)">
    <path d="M-11.65 6.1 L-12.65 6.1 -14.0 5.7 Q-15.4 4.45 -14.0 0.95 -12.65 -2.5 -9.35 -6.1 -6.0 -9.7 -2.65 -11.3 0.7 -12.9 2.1 -11.6 L2.7 -10.45 2.5 -10.75 2.1 -9.0 Q0.45 -8.6 -1.55 -7.25 -4.05 -5.6 -6.35 -3.1 -8.65 -0.65 -10.05 1.85 -11.2 3.95 -11.55 5.6 L-12.45 5.95 -11.65 6.1 M3.9 -3.85 L7.85 -7.2 Q11.05 -9.35 12.35 -8.45 12.85 -8.1 12.95 -7.35 L12.65 -7.9 12.45 -5.55 Q8.85 -3.8 4.65 1.3 0.85 6.0 -0.15 9.4 L-2.4 10.6 -2.35 10.65 -3.1 10.4 Q-4.4 9.5 -3.05 6.15 L-2.4 4.7 Q-1.1 1.95 1.45 -1.15 L3.9 -3.85" fill="#000000" fill-opacity="0.09803922" fill-rule="evenodd" stroke="none"/>
    <path d="M-11.65 6.1 L-12.45 5.95 -11.55 5.6 Q-8.85 4.3 -5.85 1.95 0.2 -2.8 2.1 -9.0 L2.5 -10.75 2.7 -10.45 4.75 -7.3 4.45 -5.65 3.9 -3.85 1.45 -1.15 Q-1.1 1.95 -2.4 4.7 -4.35 6.15 -6.75 7.15 L-11.65 6.1 M12.95 -7.35 L14.7 -4.25 14.45 -2.45 Q13.95 -0.2 12.9 1.95 9.55 8.85 1.75 12.2 L-2.35 10.65 -2.4 10.6 -0.15 9.4 Q2.45 7.8 5.1 5.55 11.35 0.15 12.45 -5.55 L12.65 -7.9 12.95 -7.35" fill="#000000" fill-opacity="0.24705882" fill-rule="evenodd" stroke="none"/>
    <path d="M-11.65 6.1 L-12.45 5.95 -11.55 5.6 Q-8.85 4.3 -5.85 1.95 0.2 -2.8 2.1 -9.0 L2.5 -10.75 2.7 -10.45 4.75 -7.3 4.45 -5.65 3.9 -3.85 M12.95 -7.35 L14.7 -4.25 14.45 -2.45 Q13.95 -0.2 12.9 1.95 9.55 8.85 1.75 12.2 L-2.35 10.65 -2.4 10.6 -0.15 9.4 Q2.45 7.8 5.1 5.55 11.35 0.15 12.45 -5.55 L12.65 -7.9 12.95 -7.35 M-2.4 4.7 Q-4.35 6.15 -6.75 7.15 L-11.65 6.1" fill="none" stroke="#000000" stroke-linecap="round" stroke-linejoin="round" stroke-opacity="0.6" stroke-width="1.0"/>
    <path d="M2.7 -10.45 L2.1 -11.6 Q0.7 -12.9 -2.65 -11.3 -6.0 -9.7 -9.35 -6.1 -12.65 -2.5 -14.0 0.95 -15.4 4.45 -14.0 5.7 L-12.65 6.1 -11.65 6.1 M-11.55 5.6 Q-11.2 3.95 -10.05 1.85 -8.65 -0.65 -6.35 -3.1 -4.05 -5.6 -1.55 -7.25 0.45 -8.6 2.1 -9.0 M3.9 -3.85 L7.85 -7.2 Q11.05 -9.35 12.35 -8.45 12.85 -8.1 12.95 -7.35 M-2.35 10.65 L-3.1 10.4 Q-4.4 9.5 -3.05 6.15 L-2.4 4.7 Q-1.1 1.95 1.45 -1.15 L3.9 -3.85 M-0.15 9.4 Q0.85 6.0 4.65 1.3 8.85 -3.8 12.45 -5.55" fill="none" stroke="#000000" stroke-linecap="round" stroke-linejoin="miter-clip" stroke-miterlimit="4.0" stroke-opacity="0.6" stroke-width="1.0"/>
  </g>
</svg>
