<?xml version="1.0" encoding="UTF-8" standalone="no"?>
<svg xmlns:xlink="http://www.w3.org/1999/xlink" height="29.55px" width="371.85px" xmlns="http://www.w3.org/2000/svg">
  <g transform="matrix(1.0, 0.0, 0.0, 1.0, 0.5, 0.5)">
    <path d="M345.35 0.95 L360.45 0.0 364.1 5.6 Q368.0 11.95 369.1 15.8 370.85 21.95 370.85 28.5 L349.65 28.5 350.45 22.4 Q350.95 15.6 349.65 12.05 L346.75 4.35 345.35 0.95 M21.2 28.5 L0.0 28.5 0.2 24.45 Q0.65 19.65 1.75 15.8 2.9 11.95 6.75 5.6 L10.4 0.0 25.55 0.95 24.15 4.35 Q22.5 8.45 21.2 12.05 19.9 15.6 20.4 22.4 L21.2 28.5" fill="#000000" fill-opacity="0.09803922" fill-rule="evenodd" stroke="none"/>
    <path d="M345.35 0.95 L346.75 4.35 349.65 12.05 Q350.95 15.6 350.45 22.4 L349.65 28.5 265.75 28.5 268.0 20.75 Q270.55 12.6 272.0 10.85 273.5 9.05 276.55 6.85 L279.3 5.0 345.35 0.95 M342.7 9.75 Q344.45 10.4 345.2 10.95 L342.25 4.85 281.1 7.9 304.75 7.6 Q329.4 7.4 334.3 7.9 339.2 8.4 342.7 9.75 M25.55 0.95 L91.55 5.0 94.3 6.85 Q97.4 9.05 98.85 10.85 100.3 12.6 102.85 20.75 L105.1 28.5 21.2 28.5 20.4 22.4 Q19.9 15.6 21.2 12.05 22.5 8.45 24.15 4.35 L25.55 0.95 M25.55 10.95 L28.05 9.75 Q31.5 8.4 36.4 7.9 44.25 7.1 89.6 7.9 L28.45 4.85 25.55 10.95" fill="#ffffff" fill-opacity="0.0" fill-rule="evenodd" stroke="none"/>
    <path d="M342.7 9.75 Q339.2 8.4 334.3 7.9 329.4 7.4 304.75 7.6 L281.1 7.9 342.25 4.85 345.2 10.95 Q344.45 10.4 342.7 9.75 M25.55 10.95 L28.45 4.85 89.6 7.9 Q44.25 7.1 36.4 7.9 31.5 8.4 28.05 9.75 L25.55 10.95" fill="#ffffff" fill-opacity="0.34901962" fill-rule="evenodd" stroke="none"/>
    <path d="M349.65 28.5 L370.85 28.5 Q370.85 21.95 369.1 15.8 368.0 11.95 364.1 5.6 L360.45 0.0 345.35 0.95 279.3 5.0 276.55 6.85 Q273.5 9.05 272.0 10.85 270.55 12.6 268.0 20.75 L265.75 28.5 349.65 28.5 M25.55 0.95 L91.55 5.0 94.3 6.85 Q97.4 9.05 98.85 10.85 100.3 12.6 102.85 20.75 L105.1 28.5 21.2 28.5 0.0 28.5 0.2 24.45 Q0.65 19.65 1.75 15.8 2.9 11.95 6.75 5.6 L10.4 0.0 25.55 0.95" fill="none" stroke="#000000" stroke-linecap="round" stroke-linejoin="miter-clip" stroke-miterlimit="10.0" stroke-width="1.0"/>
    <path d="M345.35 0.95 L346.75 4.35 349.65 12.05 Q350.95 15.6 350.45 22.4 L349.65 28.5 M25.55 0.95 L24.15 4.35 Q22.5 8.45 21.2 12.05 19.9 15.6 20.4 22.4 L21.2 28.5" fill="none" stroke="#000000" stroke-linecap="round" stroke-linejoin="miter-clip" stroke-miterlimit="10.0" stroke-opacity="0.6" stroke-width="1.0"/>
  </g>
</svg>
