<?xml version="1.0" encoding="UTF-8" standalone="no"?>
<svg xmlns:xlink="http://www.w3.org/1999/xlink" height="49.4px" width="360.0px" xmlns="http://www.w3.org/2000/svg">
  <g transform="matrix(1.0, 0.0, 0.0, 1.0, 178.85, -90.35)">
    <path d="M135.8 91.0 L136.2 90.9 144.65 90.85 167.35 90.85 176.35 90.9 Q180.35 91.65 180.35 96.3 L180.35 128.85 Q180.35 133.95 176.85 136.45 173.75 138.65 168.35 138.65 L144.65 138.65 Q139.25 138.65 136.2 136.45 132.65 133.95 132.65 128.85 L132.65 126.7 120.6 126.7 Q116.55 126.7 114.25 125.1 111.65 123.2 111.65 119.4 L111.65 108.45 76.6 104.95 74.7 106.85 Q72.2 108.8 69.5 108.85 L60.75 108.45 50.85 107.75 Q47.15 107.55 41.7 106.25 L36.95 104.95 29.85 104.95 27.9 108.25 Q25.15 111.45 21.05 111.15 16.95 111.45 14.4 108.25 L12.65 104.95 6.7 104.95 3.45 107.1 Q-0.35 109.2 -3.4 109.15 -6.4 109.05 -10.35 106.95 L-13.7 104.85 -77.85 104.7 -83.0 107.3 -109.65 108.55 -109.65 119.4 Q-109.65 123.2 -112.25 125.1 -114.55 126.7 -118.6 126.7 L-130.65 126.7 -130.65 128.85 Q-130.65 133.95 -134.15 136.45 -137.25 138.65 -142.65 138.65 L-166.35 138.65 Q-171.75 138.65 -174.8 136.45 -178.35 133.95 -178.35 128.85 L-178.35 96.3 Q-178.35 91.65 -174.3 90.9 L-165.35 90.85 -142.65 90.85 -134.15 90.9 -133.7 91.0 -112.25 91.0 Q-109.65 91.55 -109.65 95.05 L-109.65 98.55 111.65 98.55 111.65 95.05 Q111.65 91.55 114.25 91.0 L135.8 91.0 Q132.65 91.9 132.65 96.3 L132.65 126.7 132.65 96.3 Q132.65 91.9 135.8 91.0 M-109.65 108.55 L-109.65 98.55 -109.65 108.55 M-130.65 126.7 L-130.65 96.3 Q-130.65 91.9 -133.7 91.0 -130.65 91.9 -130.65 96.3 L-130.65 126.7 M111.65 108.45 L111.65 98.55 111.65 108.45" fill="#000000" fill-rule="evenodd" stroke="none"/>
    <path d="M135.8 91.0 L136.2 90.9 144.65 90.85 167.35 90.85 176.35 90.9 Q180.35 91.65 180.35 96.3 L180.35 128.85 Q180.35 133.95 176.85 136.45 173.75 138.65 168.35 138.65 L144.65 138.65 Q139.25 138.65 136.2 136.45 132.65 133.95 132.65 128.85 L132.65 126.7 120.6 126.7 Q116.55 126.7 114.25 125.1 111.65 123.2 111.65 119.4 L111.65 108.45 76.6 104.95 74.7 106.85 Q72.2 108.8 69.5 108.85 L60.75 108.45 50.85 107.75 Q47.15 107.55 41.7 106.25 L36.95 104.95 29.85 104.95 27.9 108.25 Q25.15 111.45 21.05 111.15 16.95 111.45 14.4 108.25 L12.65 104.95 6.7 104.95 3.45 107.1 Q-0.35 109.2 -3.4 109.15 -6.4 109.05 -10.35 106.95 L-13.7 104.85 -77.85 104.7 -83.0 107.3 -109.65 108.55 -109.65 119.4 Q-109.65 123.2 -112.25 125.1 -114.55 126.7 -118.6 126.7 L-130.65 126.7 -130.65 128.85 Q-130.65 133.95 -134.15 136.45 -137.25 138.65 -142.65 138.65 L-166.35 138.65 Q-171.75 138.65 -174.8 136.45 -178.35 133.95 -178.35 128.85 L-178.35 96.3 Q-178.35 91.65 -174.3 90.9 L-165.35 90.85 -142.65 90.85 -134.15 90.9 -133.7 91.0 -112.25 91.0 Q-109.65 91.55 -109.65 95.05 L-109.65 98.55 111.65 98.55 111.65 95.05 Q111.65 91.55 114.25 91.0 L135.8 91.0 Q132.65 91.9 132.65 96.3 L132.65 126.7 M111.65 98.55 L111.65 108.45 M-133.7 91.0 Q-130.65 91.9 -130.65 96.3 L-130.65 126.7 M-109.65 98.55 L-109.65 108.55" fill="none" stroke="#000000" stroke-linecap="round" stroke-linejoin="miter-clip" stroke-miterlimit="10.0" stroke-width="1.0"/>
  </g>
</svg>
