<?xml version="1.0" encoding="UTF-8" standalone="no"?>
<svg xmlns:xlink="http://www.w3.org/1999/xlink" height="242.05px" width="140.95px" xmlns="http://www.w3.org/2000/svg">
  <g transform="matrix(1.0, 0.0, 0.0, 1.0, 67.05, 121.75)">
    <path d="M66.45 -112.3 L66.05 -111.2 44.3 -53.6 9.8 -53.6 9.8 -87.5 -9.75 -87.5 -9.6 -53.6 -9.75 -87.5 9.8 -87.5 9.8 -53.6 9.8 109.85 Q16.7 111.2 23.15 114.4 L23.45 114.55 Q26.75 116.2 29.55 118.2 L31.65 119.8 -31.6 119.8 Q-28.7 117.25 -23.4 114.55 -21.0 113.35 -18.55 112.4 L-18.4 112.35 Q-13.85 110.6 -9.0 109.7 L-0.95 108.8 -9.0 109.7 -9.6 -53.6 -43.1 -53.6 -66.55 -112.3 66.45 -112.3 M1.0 108.75 L1.0 108.8 Q5.5 108.95 9.8 109.85 5.5 108.95 1.0 108.8 L1.0 108.75 -0.95 108.75 -0.95 108.8 -0.95 108.75 1.0 108.75 M-1.4 -79.35 L-5.35 -79.35 -5.35 105.5 -1.4 105.5 -1.4 -79.35" fill="#ffffff" fill-opacity="0.0" fill-rule="evenodd" stroke="none"/>
    <path d="M66.05 -111.2 L66.45 -112.3 -66.55 -112.3 -66.55 -119.8 66.45 -119.8 66.6 -111.2 66.05 -111.2 M-1.4 -79.35 L-1.4 105.5 -5.35 105.5 -5.35 -79.35 -1.4 -79.35" fill="#ffffff" fill-opacity="0.2" fill-rule="evenodd" stroke="none"/>
    <path d="M66.45 -112.3 L66.05 -111.2 66.6 -111.2 66.45 -119.8 -66.55 -119.8 -66.55 -112.3 -43.1 -53.6 -9.6 -53.6 -9.0 109.7 Q-13.85 110.6 -18.4 112.35 L-18.55 112.4 Q-21.0 113.35 -23.4 114.55 -28.7 117.25 -31.6 119.8 L31.65 119.8 29.55 118.2 Q26.75 116.2 23.45 114.55 L23.15 114.4 Q16.7 111.2 9.8 109.85 L9.8 -53.6 44.3 -53.6 66.05 -111.2 M1.0 108.75 L-0.95 108.75 -0.95 108.8" fill="none" stroke="#000000" stroke-linecap="round" stroke-linejoin="miter-clip" stroke-miterlimit="4.0" stroke-width="1.0"/>
    <path d="M-66.55 -112.3 L66.45 -112.3 M-9.6 -53.6 L-9.75 -87.5 9.8 -87.5 9.8 -53.6 M9.8 109.85 Q5.5 108.95 1.0 108.8 L1.0 108.75 M-0.95 108.8 L-9.0 109.7" fill="none" stroke="#000000" stroke-linecap="round" stroke-linejoin="miter-clip" stroke-miterlimit="4.0" stroke-opacity="0.6" stroke-width="1.0"/>
  </g>
</svg>
