<?xml version="1.0" encoding="UTF-8" standalone="no"?>
<svg xmlns:xlink="http://www.w3.org/1999/xlink" height="90.0px" width="124.8px" xmlns="http://www.w3.org/2000/svg">
  <g transform="matrix(1.0, 0.0, 0.0, 1.0, 0.0, 0.0)">
    <path d="M33.7 0.0 L33.7 90.0 0.0 90.0 0.0 0.0 33.7 0.0 M97.4 65.4 Q105.95 65.4 113.35 61.35 120.5 57.35 124.8 50.5 122.15 61.9 112.95 69.25 103.6 76.75 91.6 76.75 77.45 76.75 67.45 66.75 57.45 56.85 57.45 42.7 57.45 34.25 61.45 26.75 65.35 19.5 72.15 14.85 68.85 18.9 67.1 23.75 65.25 28.85 65.25 34.2 65.25 47.1 74.65 56.25 84.1 65.4 97.4 65.4 M99.95 40.2 L97.75 33.75 90.7 33.9 96.05 29.65 93.85 23.45 99.35 27.15 104.9 22.9 103.0 29.45 108.65 33.3 101.8 33.5 99.95 40.2" fill="#ffffff" fill-opacity="0.0" fill-rule="evenodd" stroke="none"/>
  </g>
</svg>
