<?xml version="1.0" encoding="UTF-8" standalone="no"?>
<svg xmlns:xlink="http://www.w3.org/1999/xlink" height="333.2px" width="186.6px" xmlns="http://www.w3.org/2000/svg">
  <g transform="matrix(1.0, 0.0, 0.0, 1.0, 93.3, 166.6)">
    <path d="M-20.65 -7.3 L39.8 -110.7 10.35 -133.8 13.8 -166.1 92.8 -154.4 92.8 166.1 -59.3 166.1 -59.3 52.45 -80.4 37.9 -80.75 15.65 -92.8 15.65 -92.25 -0.5 -91.1 -3.0 -85.2 -15.75 -81.85 -23.1 -31.05 -28.6 -20.65 -7.3" fill="#ffffff" fill-opacity="0.0" fill-rule="evenodd" stroke="none"/>
    <path d="M13.8 -166.1 L10.35 -133.8 39.8 -110.7 -20.65 -7.3 M-85.2 -15.75 L-91.1 -3.0 M-59.3 52.45 L-59.3 166.1" fill="none" stroke="#000000" stroke-linecap="round" stroke-linejoin="miter-clip" stroke-miterlimit="4.0" stroke-opacity="0.6" stroke-width="1.0"/>
    <path d="M-20.65 -7.3 L-31.05 -28.6 -81.85 -23.1 -85.2 -15.75 M-91.1 -3.0 L-92.25 -0.5 -92.8 15.65 -80.75 15.65 -80.4 37.9 -59.3 52.45 M-59.3 166.1 L92.8 166.1 92.8 -154.4 13.8 -166.1 Z" fill="none" stroke="#000000" stroke-linecap="round" stroke-linejoin="miter-clip" stroke-miterlimit="4.0" stroke-width="1.0"/>
  </g>
</svg>
