<?xml version="1.0" encoding="UTF-8" standalone="no"?>
<svg xmlns:xlink="http://www.w3.org/1999/xlink" height="38.55px" width="83.9px" xmlns="http://www.w3.org/2000/svg">
  <g transform="matrix(1.0, 0.0, 0.0, 1.0, 30.5, 29.4)">
    <path d="M1.1 0.95 Q1.1 -0.25 4.0 -1.1 6.95 -2.0 11.0 -2.0 15.1 -2.0 18.0 -1.1 20.9 -0.25 20.9 0.95 L20.9 1.0 20.9 1.05 Q20.9 2.15 18.0 3.0 L11.0 3.85 Q6.9 3.85 4.0 3.0 L3.9 2.95 3.75 2.95 3.5 2.85 Q1.1 2.05 1.1 1.05 L1.1 1.0 1.1 0.95 M33.15 0.95 Q33.15 -0.25 36.05 -1.1 38.95 -2.0 43.0 -2.0 47.1 -2.0 50.0 -1.1 52.9 -0.25 52.9 0.95 L52.9 1.0 52.9 1.05 Q52.9 2.15 50.0 3.0 47.1 3.85 43.0 3.85 L36.05 3.0 35.95 2.95 35.8 2.95 35.55 2.85 Q33.15 2.05 33.15 1.05 L33.15 1.0 33.15 0.95 M-22.7 -12.8 Q-25.55 -13.05 -27.65 -15.15 -30.0 -17.5 -30.0 -20.85 -30.0 -24.2 -27.65 -26.55 -25.3 -28.9 -21.95 -28.9 -18.6 -28.9 -16.25 -26.55 -13.9 -24.2 -13.9 -20.85 -13.9 -17.5 -16.25 -15.15 -17.9 -13.5 -20.1 -13.0 L-21.95 -12.8 -22.7 -12.8 M-24.15 -24.35 Q-25.05 -23.65 -25.05 -22.65 -25.05 -21.7 -24.15 -21.0 -23.25 -20.3 -21.95 -20.3 -20.65 -20.3 -19.75 -21.0 -18.85 -21.7 -18.85 -22.65 -18.85 -23.65 -19.75 -24.35 -20.65 -25.05 -21.95 -25.05 -23.25 -25.05 -24.15 -24.35" fill="#ffffff" fill-opacity="0.0" fill-rule="evenodd" stroke="none"/>
    <path d="M-24.15 -24.35 Q-23.25 -25.05 -21.95 -25.05 -20.65 -25.05 -19.75 -24.35 -18.85 -23.65 -18.85 -22.65 -18.85 -21.7 -19.75 -21.0 -20.65 -20.3 -21.95 -20.3 -23.25 -20.3 -24.15 -21.0 -25.05 -21.7 -25.05 -22.65 -25.05 -23.65 -24.15 -24.35" fill="#ffffff" fill-opacity="0.29803923" fill-rule="evenodd" stroke="none"/>
    <path d="M20.9 1.05 L20.9 6.6 Q15.35 8.65 11.0 8.65 6.65 8.65 1.1 6.6 L1.1 1.05 Q1.1 2.05 3.5 2.85 L3.75 2.95 3.9 2.95 4.0 3.0 Q6.9 3.85 11.0 3.85 L18.0 3.0 Q20.9 2.15 20.9 1.05 M33.15 1.05 Q33.15 2.05 35.55 2.85 L35.8 2.95 35.95 2.95 36.05 3.0 43.0 3.85 Q47.1 3.85 50.0 3.0 52.9 2.15 52.9 1.05 L52.9 6.6 49.6 7.65 Q45.75 8.65 43.0 8.65 40.3 8.65 36.45 7.65 L33.15 6.6 33.15 1.05" fill="#000000" fill-opacity="0.4" fill-rule="evenodd" stroke="none"/>
    <path d="M1.1 0.95 Q1.1 -0.25 4.0 -1.1 6.95 -2.0 11.0 -2.0 15.1 -2.0 18.0 -1.1 20.9 -0.25 20.9 0.95 M52.9 0.95 Q52.9 -0.25 50.0 -1.1 47.1 -2.0 43.0 -2.0 38.95 -2.0 36.05 -1.1 33.15 -0.25 33.15 0.95 M-22.7 -12.8 Q-25.55 -13.05 -27.65 -15.15 -30.0 -17.5 -30.0 -20.85 -30.0 -24.2 -27.65 -26.55 -25.3 -28.9 -21.95 -28.9 -18.6 -28.9 -16.25 -26.55 -13.9 -24.2 -13.9 -20.85 -13.9 -17.5 -16.25 -15.15 -17.9 -13.5 -20.1 -13.0" fill="none" stroke="#000000" stroke-linecap="round" stroke-linejoin="miter-clip" stroke-miterlimit="4.0" stroke-opacity="0.6" stroke-width="1.0"/>
    <path d="M20.9 0.95 L20.9 1.0 M1.1 1.0 L1.1 0.95 M33.15 0.95 L33.15 1.0 M52.9 1.0 L52.9 0.95" fill="none" stroke="#000000" stroke-linecap="round" stroke-linejoin="miter-clip" stroke-miterlimit="4.0" stroke-width="1.0"/>
    <path d="M20.9 1.0 L20.9 1.05 20.9 6.6 Q15.35 8.65 11.0 8.65 M1.1 6.6 L1.1 1.05 1.1 1.0 M33.15 1.0 L33.15 1.05 33.15 6.6 M52.9 1.05 L52.9 1.0 M43.0 8.65 Q45.75 8.65 49.6 7.65 L52.9 6.6 52.9 1.05" fill="none" stroke="#000000" stroke-linecap="round" stroke-linejoin="round" stroke-opacity="0.6" stroke-width="1.0"/>
    <path d="M33.15 1.05 Q33.15 2.05 35.55 2.85 L35.8 2.95 35.95 2.95 36.05 3.0 43.0 3.85 Q47.1 3.85 50.0 3.0 52.9 2.15 52.9 1.05 M20.9 1.05 Q20.9 2.15 18.0 3.0 L11.0 3.85 Q6.9 3.85 4.0 3.0 L3.9 2.95 3.75 2.95 3.5 2.85 Q1.1 2.05 1.1 1.05 M-20.1 -13.0 L-21.95 -12.8 -22.7 -12.8" fill="none" stroke="#000000" stroke-linecap="round" stroke-linejoin="miter-clip" stroke-miterlimit="4.0" stroke-opacity="0.4" stroke-width="1.0"/>
    <path d="M11.0 8.65 Q6.65 8.65 1.1 6.6 M33.15 6.6 L36.45 7.65 Q40.3 8.65 43.0 8.65" fill="none" stroke="#000000" stroke-linecap="round" stroke-linejoin="round" stroke-width="1.0"/>
  </g>
</svg>
