<?xml version="1.0" encoding="UTF-8" standalone="no"?>
<svg xmlns:xlink="http://www.w3.org/1999/xlink" height="86.05px" width="491.8px" xmlns="http://www.w3.org/2000/svg">
  <g transform="matrix(1.0, 0.0, 0.0, 1.0, 245.9, 43.0)">
    <path d="M-229.0 10.85 L-231.2 10.25 -232.65 9.6 Q-228.3 7.95 -221.8 7.35 -223.0 7.3 -224.55 6.7 L-227.05 5.7 Q-225.7 4.2 -222.85 3.2 L-217.9 1.8 -218.9 1.65 -219.95 1.5 -217.55 0.4 -214.7 -0.5 Q-215.8 -0.55 -216.85 -1.1 L-218.55 -1.9 Q-216.2 -4.6 -211.5 -5.65 -212.2 -5.9 -213.15 -6.6 L-214.55 -7.55 -212.6 -8.8 Q-211.35 -9.6 -209.95 -9.7 L-211.7 -10.2 -213.55 -10.55 Q-212.85 -12.0 -210.9 -12.7 -209.1 -13.4 -206.8 -13.2 L-208.75 -14.1 -208.85 -15.05 -208.75 -16.0 -206.55 -16.75 -204.4 -17.55 -205.5 -18.6 -206.45 -19.55 -203.75 -20.25 -201.2 -20.9 Q-202.15 -21.2 -203.2 -21.95 L-204.8 -23.05 Q-203.8 -23.3 -201.8 -24.25 L-198.85 -25.3 -200.05 -26.75 Q-199.95 -27.15 -199.1 -27.45 -198.2 -27.7 -198.05 -28.0 L-200.05 -29.4 Q-196.0 -30.65 -192.2 -30.8 L-193.95 -32.0 -195.3 -33.15 -190.85 -33.5 Q-187.8 -33.45 -186.7 -34.05 -186.05 -34.4 -185.05 -36.25 -184.1 -38.0 -183.5 -38.2 -181.6 -38.7 -179.8 -40.0 -178.6 -40.3 -176.8 -36.25 L-175.9 -37.55 -174.95 -38.7 Q-174.15 -37.85 -171.7 -36.65 -169.1 -35.35 -168.25 -34.6 L-165.95 -36.85 Q-164.15 -38.35 -163.75 -39.0 -164.0 -38.6 -163.05 -37.5 -162.05 -36.4 -160.85 -35.8 -157.35 -34.05 -156.95 -38.4 -155.25 -37.45 -153.45 -35.7 L-150.35 -32.55 Q-150.5 -33.4 -150.25 -35.25 -149.95 -37.15 -150.05 -37.95 -149.55 -37.5 -147.85 -36.7 L-145.65 -35.35 Q-145.35 -36.3 -144.3 -37.45 L-143.2 -38.6 -142.5 -36.2 Q-141.85 -34.55 -141.75 -33.9 L-140.1 -36.1 -138.45 -37.9 Q-138.55 -37.1 -138.1 -35.75 L-137.6 -33.9 -135.9 -35.1 -134.15 -36.3 -133.75 -34.7 Q-133.4 -33.6 -133.4 -33.0 -131.55 -35.65 -129.35 -35.4 -127.2 -35.1 -125.8 -32.3 L-125.55 -34.25 Q-120.9 -32.45 -119.15 -35.7 L-116.5 -35.05 -113.9 -34.45 -113.65 -35.65 -111.05 -35.0 Q-109.25 -34.6 -108.35 -33.8 L-108.2 -35.45 -108.1 -37.1 -105.9 -36.55 -103.6 -35.8 -103.55 -36.85 -103.35 -37.75 -101.2 -37.0 Q-99.5 -36.45 -98.85 -35.95 L-97.8 -38.45 Q-95.6 -37.35 -92.45 -36.95 L-87.0 -36.5 Q-85.6 -36.35 -80.75 -34.8 -75.8 -33.2 -73.45 -32.85 L-73.8 -34.95 Q-73.85 -36.4 -74.05 -37.0 -73.5 -36.45 -71.4 -35.25 -69.3 -34.1 -68.75 -33.55 -68.85 -34.9 -68.1 -36.45 L-66.85 -39.1 -64.65 -37.35 Q-62.8 -36.1 -62.45 -35.65 L-61.2 -37.8 Q-60.15 -39.15 -59.95 -39.8 L-57.65 -37.85 Q-56.65 -36.75 -56.6 -34.9 L-55.45 -36.8 Q-54.4 -38.35 -54.2 -39.05 -50.35 -38.45 -47.2 -34.4 -47.1 -36.15 -47.25 -37.45 L-46.6 -36.4 -45.8 -35.6 Q-45.95 -37.5 -45.5 -42.05 L-42.85 -39.65 Q-41.6 -38.3 -41.0 -36.7 -39.9 -37.05 -38.35 -37.9 -36.3 -39.0 -36.35 -39.65 -36.1 -37.7 -35.15 -34.45 L-31.25 -37.7 Q-28.3 -39.85 -27.5 -41.0 -27.4 -36.9 -25.15 -36.8 -23.8 -36.8 -19.5 -38.95 L-18.4 -36.4 -17.35 -34.1 Q-17.0 -35.4 -15.8 -36.5 L-13.95 -38.2 -12.2 -35.5 -11.15 -36.95 Q-10.15 -38.25 -10.0 -38.9 L-8.45 -37.75 -6.95 -36.35 -6.65 -38.95 -4.9 -36.85 -3.05 -34.75 -2.45 -36.8 Q-1.95 -38.1 -1.9 -38.9 L-0.1 -37.3 1.7 -35.7 3.05 -37.55 4.3 -39.45 5.05 -37.85 5.8 -36.1 6.65 -37.4 7.6 -38.85 9.4 -37.7 Q10.75 -36.9 11.2 -36.1 L11.4 -37.85 11.55 -39.55 13.35 -38.0 15.15 -36.3 16.1 -38.5 Q16.8 -39.9 16.9 -40.8 L19.15 -38.25 19.2 -39.3 Q19.2 -40.1 19.45 -40.25 L21.3 -38.9 23.15 -37.55 23.4 -40.95 24.55 -39.5 25.8 -37.55 Q26.4 -37.95 28.5 -38.6 30.6 -39.2 31.05 -39.5 L30.45 -37.5 Q30.15 -36.1 29.65 -35.35 34.7 -37.95 37.95 -38.05 L36.0 -36.35 34.4 -34.7 Q36.05 -34.8 38.75 -35.55 L43.0 -36.6 41.65 -34.9 40.15 -33.25 Q41.8 -33.7 44.05 -34.8 L47.8 -36.65 47.0 -34.85 46.35 -33.2 Q47.25 -33.95 49.0 -34.4 L51.65 -35.15 51.95 -32.45 Q52.45 -33.0 54.25 -33.9 L56.55 -35.15 57.8 -33.65 58.9 -32.3 60.05 -33.95 61.2 -35.85 62.9 -35.55 64.5 -34.7 65.05 -35.65 65.45 -36.5 67.95 -35.05 70.6 -33.1 Q70.8 -33.8 71.9 -35.05 L73.15 -36.7 Q73.6 -36.25 75.1 -35.35 L77.0 -34.0 77.25 -37.05 78.7 -35.9 80.15 -34.65 80.25 -35.65 Q80.25 -36.45 80.4 -36.5 80.95 -36.25 83.0 -35.95 84.85 -35.65 85.7 -35.2 L86.05 -36.9 86.4 -38.45 Q86.95 -37.7 88.8 -36.4 90.7 -35.1 91.2 -34.5 L91.75 -36.1 92.3 -37.9 93.75 -36.9 95.35 -35.75 96.95 -37.05 98.4 -38.4 97.8 -36.05 99.7 -37.05 101.55 -37.9 101.55 -36.6 Q101.6 -35.75 101.8 -35.35 L103.65 -36.35 105.55 -37.15 Q105.55 -36.3 106.05 -34.7 106.6 -33.15 106.55 -32.3 108.4 -33.5 112.1 -34.65 115.6 -35.7 117.4 -37.1 117.3 -36.4 117.55 -34.75 L117.65 -32.4 Q120.35 -35.1 123.7 -37.1 L123.95 -35.1 126.2 -36.4 Q127.9 -37.25 128.45 -37.8 127.15 -36.4 132.75 -37.3 138.3 -38.2 139.95 -40.1 L141.2 -37.75 142.4 -35.6 Q144.35 -38.5 147.25 -39.35 150.05 -40.15 153.3 -38.95 L154.85 -35.3 Q157.1 -36.4 158.45 -36.5 L162.4 -36.6 Q164.0 -38.3 166.4 -39.2 168.0 -39.85 170.95 -40.35 L173.5 -37.85 176.5 -37.65 Q176.6 -36.4 177.15 -34.35 L178.05 -31.15 Q181.4 -33.1 183.7 -32.3 186.3 -31.35 186.95 -27.0 L189.2 -26.45 191.45 -24.3 Q192.3 -24.1 192.9 -24.6 193.7 -25.25 194.2 -25.35 L195.25 -22.2 195.75 -18.9 197.3 -18.75 Q198.4 -18.95 198.75 -18.45 198.6 -17.15 198.85 -14.55 L199.05 -10.7 Q200.2 -10.7 201.15 -11.25 L203.15 -12.75 Q203.6 -12.55 203.3 -11.0 203.05 -9.4 203.45 -9.25 205.0 -10.65 208.65 -11.65 L208.95 -8.45 209.0 -5.25 213.1 -4.8 Q212.3 0.2 213.95 2.75 215.65 5.35 219.75 4.7 219.65 5.7 219.9 7.9 L220.05 11.1 Q220.9 10.7 224.3 10.25 227.2 9.8 228.6 8.75 L228.8 10.6 228.9 12.5 Q230.95 13.0 233.2 14.1 235.45 15.15 237.45 15.65 L237.7 18.15 237.8 20.2 237.7 19.55 233.35 18.75 219.95 18.1 Q209.15 16.75 210.4 12.15 208.5 18.5 204.85 17.8 201.75 17.2 198.8 12.0 L196.8 14.55 195.0 17.1 Q194.2 16.75 193.2 15.35 192.25 14.0 191.5 13.7 L191.4 16.15 191.05 18.35 Q190.25 17.8 186.6 16.55 183.55 15.45 182.1 13.95 L182.15 18.4 Q181.3 17.85 178.05 16.25 175.35 14.9 174.05 13.75 L177.3 18.25 Q173.7 18.5 170.05 16.7 166.45 14.9 164.4 11.95 L165.15 16.2 165.8 20.0 Q164.7 19.15 164.3 17.9 L163.25 15.3 Q162.5 15.55 161.2 16.9 160.05 18.15 158.65 18.25 158.4 17.6 158.55 15.85 158.7 14.25 158.25 13.55 L154.75 18.7 152.35 16.1 149.95 13.55 146.85 14.9 Q145.8 15.15 142.6 14.9 L143.2 16.2 Q143.75 17.3 143.2 18.3 142.35 18.0 140.9 16.75 139.45 15.55 138.55 15.2 L138.1 18.2 134.8 16.25 Q132.1 14.95 131.0 13.95 L130.55 19.85 126.35 17.05 Q123.4 15.15 122.25 13.45 L121.7 16.5 Q120.7 15.35 118.25 13.95 L114.6 11.75 114.55 14.15 114.25 16.45 Q113.4 15.75 109.9 14.95 106.35 14.15 105.5 13.5 104.75 14.45 104.55 15.65 L104.1 18.1 101.35 16.25 98.25 13.85 97.85 19.75 Q95.6 17.85 93.2 18.2 92.15 18.35 89.15 19.65 86.7 20.75 85.15 20.45 82.95 19.95 80.8 16.8 80.7 17.2 77.85 19.8 77.25 19.65 76.6 17.8 L75.4 15.35 Q74.6 16.0 73.65 17.7 72.8 19.2 71.9 19.75 71.4 18.6 71.05 16.75 L70.4 13.75 Q67.95 17.25 66.85 19.75 L65.35 13.65 Q64.15 17.5 63.1 19.3 60.7 16.8 57.25 12.35 L51.6 5.2 Q52.25 7.8 52.3 11.7 52.35 16.65 52.5 18.05 L48.9 13.7 49.05 15.95 Q49.2 17.8 48.75 17.95 45.05 16.7 43.25 17.45 41.8 18.1 38.8 21.75 38.15 20.5 35.7 17.5 33.4 14.7 32.85 13.2 32.9 16.4 31.8 19.0 L30.05 23.3 27.55 18.7 Q26.6 20.8 24.25 22.4 L21.4 24.6 21.4 22.2 Q21.4 20.6 21.05 19.95 L16.8 22.75 Q13.7 24.7 12.5 26.35 L13.05 23.05 13.5 19.95 7.9 22.0 Q4.1 23.3 2.3 24.7 L3.65 20.6 Q4.45 17.6 4.75 16.9 3.35 18.3 0.05 19.8 -3.5 21.45 -4.75 22.45 L-5.4 16.45 Q-9.25 20.65 -12.3 21.1 -16.1 21.7 -18.05 16.45 -18.7 17.45 -21.75 19.7 -24.65 21.85 -25.45 23.2 L-27.2 20.55 -28.85 18.05 Q-29.2 19.6 -30.4 22.0 -31.7 24.55 -32.0 25.75 -32.25 25.0 -33.6 23.0 L-35.35 19.7 Q-35.85 20.35 -38.45 22.0 -40.95 23.6 -41.55 24.5 -41.45 23.3 -41.7 20.6 L-41.9 16.7 Q-42.9 18.1 -45.4 20.0 -47.9 21.9 -48.85 23.15 L-48.5 19.95 -48.2 16.75 Q-49.75 18.5 -53.15 20.1 -57.05 21.9 -58.1 22.75 -57.65 21.15 -57.5 17.1 -57.35 12.95 -57.0 11.6 -63.65 20.3 -66.9 11.55 -67.45 13.25 -68.85 15.15 L-70.75 18.0 Q-70.95 17.2 -72.55 14.4 L-74.4 10.8 -77.6 13.3 -80.55 15.9 -80.55 13.65 -80.65 11.6 -84.55 15.6 -88.2 19.3 -85.9 13.0 -90.75 14.95 Q-94.15 16.25 -95.75 17.45 -94.9 16.2 -93.3 12.6 L-90.8 7.75 Q-93.55 8.95 -98.5 12.7 -103.45 16.45 -105.75 17.45 L-105.9 15.1 -106.1 12.8 Q-110.25 17.75 -113.5 18.6 -117.65 19.7 -120.8 14.4 -121.3 15.3 -122.25 19.2 -122.6 18.55 -125.2 16.2 -127.75 13.9 -128.3 12.75 L-131.05 17.8 -133.4 14.7 Q-135.2 12.55 -135.8 10.9 -138.95 12.9 -139.7 12.85 -140.15 12.8 -143.75 9.65 -144.1 10.95 -145.55 13.0 L-147.45 16.05 Q-147.9 15.25 -149.95 13.2 -151.8 11.35 -152.55 9.6 -155.35 14.1 -159.45 13.9 -162.35 13.8 -167.4 10.85 L-168.05 13.25 Q-168.35 14.65 -168.8 15.6 L-171.8 13.5 Q-173.75 12.3 -174.85 9.55 -175.4 10.15 -175.85 11.75 -176.3 13.4 -176.75 13.9 -177.45 13.9 -178.8 12.45 -180.2 10.95 -181.2 10.9 L-182.1 12.35 Q-183.05 13.8 -183.75 13.85 L-185.1 10.85 -186.5 7.8 Q-186.85 9.95 -188.4 12.5 L-190.35 15.95 Q-190.95 15.1 -192.85 13.25 L-195.05 10.8 -196.9 17.2 -199.2 14.0 -201.4 10.75 Q-201.75 11.45 -201.6 13.2 -201.4 14.85 -201.85 15.5 L-206.35 11.15 Q-209.5 14.5 -210.05 14.45 -211.25 13.45 -213.95 12.9 L-216.5 14.5 -219.0 15.45 Q-216.75 14.8 -221.45 10.5 -222.45 9.9 -224.85 10.1 L-228.35 10.45 -229.95 10.65 -229.0 10.85 M182.1 13.95 L182.1 13.7 Q181.25 12.65 182.0 13.85 L182.1 13.95 M-137.95 -17.6 Q-139.85 -25.05 -144.55 -25.1 L-141.85 -20.4 Q-138.8 -14.8 -137.05 -10.1 -137.05 -13.85 -137.95 -17.6 M-127.6 -2.6 Q-127.6 -6.35 -128.5 -10.1 -130.4 -17.55 -135.1 -17.6 L-132.4 -12.9 Q-129.35 -7.3 -127.6 -2.6 M26.4 -18.2 L23.9 -11.2 Q22.25 -3.65 26.3 -1.0 25.55 -10.15 26.4 -18.2 M66.9 -18.65 L64.35 -15.6 Q62.35 -11.7 64.8 -7.15 65.35 -13.8 66.9 -18.65 M129.55 -18.35 L128.6 -14.3 Q128.45 -9.75 132.5 -7.1 130.2 -13.25 129.55 -18.35" fill="#ffffff" fill-opacity="0.0" fill-rule="evenodd" stroke="none"/>
    <path d="M237.8 20.65 L239.4 20.4 239.7 20.35 240.05 20.3 240.3 20.25 240.35 20.25 242.75 21.05 243.3 22.0 243.6 22.55 244.0 23.4 Q245.35 26.5 245.4 29.8 L245.35 31.6 245.15 32.95 Q241.2 30.75 239.05 30.65 235.65 30.45 234.0 34.3 L223.35 30.5 Q221.55 35.75 214.0 33.75 L208.3 32.2 Q205.35 31.65 204.05 32.85 L201.05 32.2 197.8 31.8 197.7 33.7 197.45 35.6 Q196.65 34.8 193.7 33.1 191.0 31.5 190.05 30.35 189.8 31.65 189.7 34.15 184.15 33.6 178.95 31.75 L178.8 33.6 178.6 35.45 Q173.1 34.9 167.85 31.7 L166.65 34.45 164.45 33.1 162.4 31.7 162.0 34.1 156.05 31.6 150.1 28.9 151.9 32.3 Q152.95 34.2 154.35 35.4 149.0 31.9 143.4 30.3 L143.15 32.6 136.0 32.1 Q134.0 31.95 132.65 32.15 L130.5 32.85 130.4 32.9 Q129.3 32.3 126.9 32.05 L123.4 31.6 123.4 33.5 123.15 35.3 Q119.4 33.65 117.35 32.9 113.75 31.55 111.2 31.6 L113.0 35.35 Q107.9 31.35 102.3 31.6 103.55 33.5 104.4 35.25 L98.55 32.3 Q95.1 30.7 92.4 30.1 L93.0 34.15 88.1 33.05 Q84.85 32.6 83.3 31.8 82.9 36.55 76.35 36.8 70.25 37.0 66.65 33.75 L64.3 37.85 Q63.75 37.1 61.15 35.25 58.7 33.55 58.15 32.75 61.95 38.5 51.0 36.1 L39.0 32.4 38.85 34.1 38.7 35.8 Q37.4 34.6 35.9 34.0 L32.65 33.15 Q33.4 34.2 33.6 35.9 L34.0 38.65 Q33.95 38.6 31.35 37.3 29.55 36.4 28.7 35.35 L28.6 37.35 28.45 39.35 Q27.8 38.8 25.85 37.95 23.8 37.1 23.2 36.65 L22.9 37.9 Q22.25 37.3 20.2 36.4 L17.65 35.2 17.5 37.25 17.35 39.3 Q13.65 37.85 11.35 35.15 L11.3 37.8 Q11.1 39.6 11.2 40.5 L8.5 38.3 5.75 36.0 5.6 38.0 5.45 39.95 3.15 38.1 0.85 36.05 0.05 37.9 -0.75 39.75 -2.3 37.7 -3.75 35.8 Q-3.8 36.45 -4.2 37.6 L-4.65 39.25 -6.2 37.8 -7.85 36.05 -9.1 37.8 -10.25 39.4 Q-10.35 39.05 -11.0 37.85 L-11.8 36.0 -12.9 37.85 Q-13.75 39.15 -14.0 39.8 -14.05 39.2 -14.65 37.55 -15.2 36.0 -15.15 35.1 L-17.85 37.8 -20.35 40.6 Q-20.2 39.75 -20.5 37.85 L-20.65 35.05 Q-20.7 35.35 -24.05 37.7 L-28.1 40.6 Q-27.7 39.7 -27.75 37.7 L-27.75 34.8 Q-29.15 34.95 -32.75 37.15 L-38.95 40.85 Q-46.2 44.6 -44.65 36.65 -48.85 39.1 -50.55 40.5 -48.85 37.25 -49.15 33.55 -53.1 34.0 -56.85 38.2 -56.45 37.45 -56.4 35.95 L-56.3 33.55 Q-61.8 33.4 -65.75 38.2 -65.65 37.5 -65.7 35.9 L-65.6 33.65 Q-66.15 35.05 -67.55 36.0 L-69.65 37.45 Q-69.95 36.55 -71.15 35.2 L-72.65 33.45 Q-72.9 34.6 -73.95 36.25 L-75.4 38.85 Q-75.65 38.1 -76.75 36.6 L-78.15 34.35 -79.4 36.5 Q-80.35 38.0 -80.55 38.9 -80.7 38.3 -81.4 36.95 L-82.3 35.1 Q-82.6 36.1 -83.9 38.1 L-85.5 40.95 Q-87.7 38.05 -88.4 34.45 -88.95 35.6 -90.3 36.95 L-92.5 39.0 -92.7 36.25 -95.35 37.6 Q-97.3 38.4 -98.0 38.95 L-98.1 37.35 -98.1 35.75 Q-99.75 36.45 -102.15 38.3 L-105.95 41.05 Q-105.85 40.45 -106.05 39.1 L-106.2 37.15 Q-108.2 37.65 -110.65 39.15 -112.05 40.0 -114.65 41.75 -114.35 40.0 -115.05 35.7 -118.15 37.75 -120.95 36.65 -123.85 35.55 -123.95 32.05 -125.35 34.2 -130.55 35.65 -135.55 37.0 -134.65 35.15 L-134.6 35.05 -134.9 35.55 -135.9 36.85 -136.1 37.05 -137.35 38.3 -138.95 40.0 -139.45 40.6 -139.8 41.0 -139.85 41.05 Q-139.7 39.5 -140.0 36.15 -140.3 32.7 -140.2 31.2 -140.9 32.2 -143.75 34.45 -146.65 36.65 -147.35 37.65 L-147.55 34.4 -147.75 31.15 -151.5 34.7 Q-154.15 37.05 -155.25 38.85 L-154.55 34.95 -154.0 31.25 -158.7 33.2 Q-162.05 34.45 -163.5 35.9 -163.15 34.35 -163.1 31.8 L-162.85 27.9 Q-163.5 28.35 -166.9 29.4 -169.75 30.3 -171.3 32.05 L-171.65 26.15 -171.65 26.1 -172.4 26.85 -174.2 28.35 -174.35 28.5 -174.5 28.6 Q-176.8 30.5 -177.75 32.5 -178.15 31.7 -180.4 29.3 -182.15 27.45 -182.75 24.7 -183.05 25.95 -184.25 28.6 -185.4 31.05 -185.65 32.45 -188.2 28.8 -189.4 27.8 -190.0 28.0 -191.05 29.6 -192.0 31.05 -192.8 31.1 L-195.2 29.2 Q-196.65 28.0 -197.65 27.65 L-200.45 32.75 -202.3 30.3 -204.15 27.65 Q-207.95 30.2 -208.95 30.15 -210.4 30.1 -213.0 26.4 -213.6 27.7 -215.5 29.7 L-218.05 32.7 -220.0 30.4 -222.1 27.65 Q-233.6 32.05 -238.05 35.6 L-238.6 29.6 -242.0 29.75 -245.4 30.2 Q-245.15 24.4 -242.3 20.55 -239.75 17.1 -234.0 13.9 L-236.0 13.5 -232.55 11.85 Q-230.05 10.75 -229.0 10.85 L-229.95 10.65 -228.35 10.45 -224.85 10.1 Q-222.45 9.9 -221.45 10.5 -216.75 14.8 -219.0 15.45 L-216.5 14.5 -213.95 12.9 Q-211.25 13.45 -210.05 14.45 -209.5 14.5 -206.35 11.15 L-201.85 15.5 Q-201.4 14.85 -201.6 13.2 -201.75 11.45 -201.4 10.75 L-199.2 14.0 -196.9 17.2 -195.05 10.8 -192.85 13.25 Q-190.95 15.1 -190.35 15.95 L-188.4 12.5 Q-186.85 9.95 -186.5 7.8 L-185.1 10.85 -183.75 13.85 Q-183.05 13.8 -182.1 12.35 L-181.2 10.9 Q-180.2 10.95 -178.8 12.45 -177.45 13.9 -176.75 13.9 -176.3 13.4 -175.85 11.75 -175.4 10.15 -174.85 9.55 -173.75 12.3 -171.8 13.5 L-168.8 15.6 Q-168.35 14.65 -168.05 13.25 L-167.4 10.85 Q-162.35 13.8 -159.45 13.9 -155.35 14.1 -152.55 9.6 -151.8 11.35 -149.95 13.2 -147.9 15.25 -147.45 16.05 L-145.55 13.0 Q-144.1 10.95 -143.75 9.65 -140.15 12.8 -139.7 12.85 -138.95 12.9 -135.8 10.9 -135.2 12.55 -133.4 14.7 L-131.05 17.8 -128.3 12.75 Q-127.75 13.9 -125.2 16.2 -122.6 18.55 -122.25 19.2 -121.3 15.3 -120.8 14.4 -117.65 19.7 -113.5 18.6 -110.25 17.75 -106.1 12.8 L-105.9 15.1 -105.75 17.45 Q-103.45 16.45 -98.5 12.7 -93.55 8.95 -90.8 7.75 L-93.3 12.6 Q-94.9 16.2 -95.75 17.45 -94.15 16.25 -90.75 14.95 L-85.9 13.0 -88.2 19.3 -84.55 15.6 -80.65 11.6 -80.55 13.65 -80.55 15.9 -77.6 13.3 -74.4 10.8 -72.55 14.4 Q-70.95 17.2 -70.75 18.0 L-68.85 15.15 Q-67.45 13.25 -66.9 11.55 -63.65 20.3 -57.0 11.6 -57.35 12.95 -57.5 17.1 -57.65 21.15 -58.1 22.75 -57.05 21.9 -53.15 20.1 -49.75 18.5 -48.2 16.75 L-48.5 19.95 -48.85 23.15 Q-47.9 21.9 -45.4 20.0 -42.9 18.1 -41.9 16.7 L-41.7 20.6 Q-41.45 23.3 -41.55 24.5 -40.95 23.6 -38.45 22.0 -35.85 20.35 -35.35 19.7 L-33.6 23.0 Q-32.25 25.0 -32.0 25.75 -31.7 24.55 -30.4 22.0 -29.2 19.6 -28.85 18.05 L-27.2 20.55 -25.45 23.2 Q-24.65 21.85 -21.75 19.7 -18.7 17.45 -18.05 16.45 -16.1 21.7 -12.3 21.1 -9.25 20.65 -5.4 16.45 L-4.75 22.45 Q-3.5 21.45 0.05 19.8 3.35 18.3 4.75 16.9 4.45 17.6 3.65 20.6 L2.3 24.7 Q4.1 23.3 7.9 22.0 L13.5 19.95 13.05 23.05 12.5 26.35 Q13.7 24.7 16.8 22.75 L21.05 19.95 Q21.4 20.6 21.4 22.2 L21.4 24.6 24.25 22.4 Q26.6 20.8 27.55 18.7 L30.05 23.3 31.8 19.0 Q32.9 16.4 32.85 13.2 33.4 14.7 35.7 17.5 38.15 20.5 38.8 21.75 41.8 18.1 43.25 17.45 45.05 16.7 48.75 17.95 49.2 17.8 49.05 15.95 L48.9 13.7 52.5 18.05 Q52.35 16.65 52.3 11.7 52.25 7.8 51.6 5.2 L57.25 12.35 Q60.7 16.8 63.1 19.3 64.15 17.5 65.35 13.65 L66.85 19.75 Q67.95 17.25 70.4 13.75 L71.05 16.75 Q71.4 18.6 71.9 19.75 72.8 19.2 73.65 17.7 74.6 16.0 75.4 15.35 L76.6 17.8 Q77.25 19.65 77.85 19.8 80.7 17.2 80.8 16.8 82.95 19.95 85.15 20.45 86.7 20.75 89.15 19.65 92.15 18.35 93.2 18.2 95.6 17.85 97.85 19.75 L98.25 13.85 101.35 16.25 104.1 18.1 104.55 15.65 Q104.75 14.45 105.5 13.5 106.35 14.15 109.9 14.95 113.4 15.75 114.25 16.45 L114.55 14.15 114.6 11.75 118.25 13.95 Q120.7 15.35 121.7 16.5 L122.25 13.45 Q123.4 15.15 126.35 17.05 L130.55 19.85 131.0 13.95 Q132.1 14.95 134.8 16.25 L138.1 18.2 138.55 15.2 Q139.45 15.55 140.9 16.75 142.35 18.0 143.2 18.3 143.75 17.3 143.2 16.2 L142.6 14.9 Q145.8 15.15 146.85 14.9 L149.95 13.55 152.35 16.1 154.75 18.7 158.25 13.55 Q158.7 14.25 158.55 15.85 158.4 17.6 158.65 18.25 160.05 18.15 161.2 16.9 162.5 15.55 163.25 15.3 L164.3 17.9 Q164.7 19.15 165.8 20.0 L165.15 16.2 164.4 11.95 Q166.45 14.9 170.05 16.7 173.7 18.5 177.3 18.25 L174.05 13.75 Q175.35 14.9 178.05 16.25 181.3 17.85 182.15 18.4 L182.1 13.95 Q183.55 15.45 186.6 16.55 190.25 17.8 191.05 18.35 L191.4 16.15 191.5 13.7 Q192.25 14.0 193.2 15.35 194.2 16.75 195.0 17.1 L196.8 14.55 198.8 12.0 Q201.75 17.2 204.85 17.8 208.5 18.5 210.4 12.15 209.15 16.75 219.95 18.1 L233.35 18.75 237.7 19.55 237.8 20.2 237.8 20.65 M129.55 -18.35 Q130.2 -13.25 132.5 -7.1 128.45 -9.75 128.6 -14.3 L129.55 -18.35 M66.9 -18.65 Q65.35 -13.8 64.8 -7.15 62.35 -11.7 64.35 -15.6 L66.9 -18.65 M26.4 -18.2 Q25.55 -10.15 26.3 -1.0 22.25 -3.65 23.9 -11.2 L26.4 -18.2 M-127.6 -2.6 Q-129.35 -7.3 -132.4 -12.9 L-135.1 -17.6 Q-130.4 -17.55 -128.5 -10.1 -127.6 -6.35 -127.6 -2.6 M-137.95 -17.6 Q-137.05 -13.85 -137.05 -10.1 -138.8 -14.8 -141.85 -20.4 L-144.55 -25.1 Q-139.85 -25.05 -137.95 -17.6" fill="#000000" fill-opacity="0.14901961" fill-rule="evenodd" stroke="none"/>
    <path d="M237.8 20.2 L237.8 20.5 237.8 20.65 237.8 20.2 M240.35 20.25 L242.1 20.05 242.2 20.2 242.75 21.05 240.35 20.25 M143.15 32.6 L136.0 32.15 Q134.0 31.95 132.65 32.15 134.0 31.95 136.0 32.1 L143.15 32.6 M-136.1 37.05 L-137.35 38.35 -138.95 40.0 -137.35 38.3 -136.1 37.05" fill="#f6f6f6" fill-rule="evenodd" stroke="none"/>
    <path d="M239.7 20.35 L240.3 20.25 240.05 20.3 239.7 20.35 M-134.65 35.15 L-134.9 35.55 -134.6 35.05 -134.65 35.15 M-171.65 26.15 L-172.4 26.85 -171.65 26.1 -171.65 26.15 M182.1 13.95 L182.0 13.85 Q181.25 12.65 182.1 13.7 L182.1 13.95" fill="#cdced0" fill-rule="evenodd" stroke="none"/>
    <path d="M-229.0 10.85 L-231.2 10.25 -232.65 9.6 Q-228.3 7.95 -221.8 7.35 -223.0 7.3 -224.55 6.7 L-227.05 5.7 Q-225.7 4.2 -222.85 3.2 L-217.9 1.8 -218.9 1.65 -219.95 1.5 -217.55 0.4 -214.7 -0.5 Q-215.8 -0.55 -216.85 -1.1 L-218.55 -1.9 Q-216.2 -4.6 -211.5 -5.65 -212.2 -5.9 -213.15 -6.6 L-214.55 -7.55 -212.6 -8.8 Q-211.35 -9.6 -209.95 -9.7 L-211.7 -10.2 -213.55 -10.55 Q-212.85 -12.0 -210.9 -12.7 -209.1 -13.4 -206.8 -13.2 L-208.75 -14.1 -208.85 -15.05 -208.75 -16.0 -206.55 -16.75 -204.4 -17.55 -205.5 -18.6 -206.45 -19.55 -203.75 -20.25 -201.2 -20.9 Q-202.15 -21.2 -203.2 -21.95 L-204.8 -23.05 Q-203.8 -23.3 -201.8 -24.25 L-198.85 -25.3 -200.05 -26.75 Q-199.95 -27.15 -199.1 -27.45 -198.2 -27.7 -198.05 -28.0 L-200.05 -29.4 Q-196.0 -30.65 -192.2 -30.8 L-193.95 -32.0 -195.3 -33.15 -190.85 -33.5 Q-187.8 -33.45 -186.7 -34.05 -186.05 -34.4 -185.05 -36.25 -184.1 -38.0 -183.5 -38.2 -181.6 -38.7 -179.8 -40.0 -178.6 -40.3 -176.8 -36.25 L-175.9 -37.55 -174.95 -38.7 Q-174.15 -37.85 -171.7 -36.65 -169.1 -35.35 -168.25 -34.6 L-165.95 -36.85 Q-164.15 -38.35 -163.75 -39.0 -164.0 -38.6 -163.05 -37.5 -162.05 -36.4 -160.85 -35.8 -157.35 -34.05 -156.95 -38.4 -155.25 -37.45 -153.45 -35.7 L-150.35 -32.55 Q-150.5 -33.4 -150.25 -35.25 -149.95 -37.15 -150.05 -37.95 -149.55 -37.5 -147.85 -36.7 L-145.65 -35.35 Q-145.35 -36.3 -144.3 -37.45 L-143.2 -38.6 -142.5 -36.2 Q-141.85 -34.55 -141.75 -33.9 L-140.1 -36.1 -138.45 -37.9 Q-138.55 -37.1 -138.1 -35.75 L-137.6 -33.9 -135.9 -35.1 -134.15 -36.3 -133.75 -34.7 Q-133.4 -33.6 -133.4 -33.0 -131.55 -35.65 -129.35 -35.4 -127.2 -35.1 -125.8 -32.3 L-125.55 -34.25 Q-120.9 -32.45 -119.15 -35.7 L-116.5 -35.05 -113.9 -34.45 -113.65 -35.65 -111.05 -35.0 Q-109.25 -34.6 -108.35 -33.8 L-108.2 -35.45 -108.1 -37.1 -105.9 -36.55 -103.6 -35.8 -103.55 -36.85 -103.35 -37.75 -101.2 -37.0 Q-99.5 -36.45 -98.85 -35.95 L-97.8 -38.45 Q-95.6 -37.35 -92.45 -36.95 L-87.0 -36.5 Q-85.6 -36.35 -80.75 -34.8 -75.8 -33.2 -73.45 -32.85 L-73.8 -34.95 Q-73.85 -36.4 -74.05 -37.0 -73.5 -36.45 -71.4 -35.25 -69.3 -34.1 -68.75 -33.55 -68.85 -34.9 -68.1 -36.45 L-66.85 -39.1 -64.65 -37.35 Q-62.8 -36.1 -62.45 -35.65 L-61.2 -37.8 Q-60.15 -39.15 -59.95 -39.8 L-57.65 -37.85 Q-56.65 -36.75 -56.6 -34.9 L-55.45 -36.8 Q-54.4 -38.35 -54.2 -39.05 -50.35 -38.45 -47.2 -34.4 -47.1 -36.15 -47.25 -37.45 L-46.6 -36.4 -45.8 -35.6 Q-45.95 -37.5 -45.5 -42.05 L-42.85 -39.65 Q-41.6 -38.3 -41.0 -36.7 -39.9 -37.05 -38.35 -37.9 -36.3 -39.0 -36.35 -39.65 -36.1 -37.7 -35.15 -34.45 L-31.25 -37.7 Q-28.3 -39.85 -27.5 -41.0 -27.4 -36.9 -25.15 -36.8 -23.8 -36.8 -19.5 -38.95 L-18.4 -36.4 -17.35 -34.1 Q-17.0 -35.4 -15.8 -36.5 L-13.95 -38.2 -12.2 -35.5 -11.15 -36.95 Q-10.15 -38.25 -10.0 -38.9 L-8.45 -37.75 -6.95 -36.35 -6.65 -38.95 -4.9 -36.85 -3.05 -34.75 -2.45 -36.8 Q-1.95 -38.1 -1.9 -38.9 L-0.1 -37.3 1.7 -35.7 3.05 -37.55 4.3 -39.45 5.05 -37.85 5.8 -36.1 6.65 -37.4 7.6 -38.85 9.4 -37.7 Q10.75 -36.9 11.2 -36.1 L11.4 -37.85 11.55 -39.55 13.35 -38.0 15.15 -36.3 16.1 -38.5 Q16.8 -39.9 16.9 -40.8 L19.15 -38.25 19.2 -39.3 Q19.2 -40.1 19.45 -40.25 L21.3 -38.9 23.15 -37.55 23.4 -40.95 24.55 -39.5 25.8 -37.55 Q26.4 -37.95 28.5 -38.6 30.6 -39.2 31.05 -39.5 L30.45 -37.5 Q30.15 -36.1 29.65 -35.35 34.7 -37.95 37.95 -38.05 L36.0 -36.35 34.4 -34.7 Q36.05 -34.8 38.75 -35.55 L43.0 -36.6 41.65 -34.9 40.15 -33.25 Q41.8 -33.7 44.05 -34.8 L47.8 -36.65 47.0 -34.85 46.35 -33.2 Q47.25 -33.95 49.0 -34.4 L51.65 -35.15 51.95 -32.45 Q52.45 -33.0 54.25 -33.9 L56.55 -35.15 57.8 -33.65 58.9 -32.3 60.05 -33.95 61.2 -35.85 62.9 -35.55 64.5 -34.7 65.05 -35.65 65.45 -36.5 67.95 -35.05 70.6 -33.1 Q70.8 -33.8 71.9 -35.05 L73.15 -36.7 Q73.6 -36.25 75.1 -35.35 L77.0 -34.0 77.25 -37.05 78.7 -35.9 80.15 -34.65 80.25 -35.65 Q80.25 -36.45 80.4 -36.5 80.95 -36.25 83.0 -35.95 84.85 -35.65 85.7 -35.2 L86.05 -36.9 86.4 -38.45 Q86.95 -37.7 88.8 -36.4 90.7 -35.1 91.2 -34.5 L91.75 -36.1 92.3 -37.9 93.75 -36.9 95.35 -35.75 96.95 -37.05 98.4 -38.4 97.8 -36.05 99.7 -37.05 101.55 -37.9 101.55 -36.6 Q101.6 -35.75 101.8 -35.35 L103.65 -36.35 105.55 -37.15 Q105.55 -36.3 106.05 -34.7 106.6 -33.15 106.55 -32.3 108.4 -33.5 112.1 -34.65 115.6 -35.7 117.4 -37.1 117.3 -36.4 117.55 -34.75 L117.65 -32.4 Q120.35 -35.1 123.7 -37.1 L123.95 -35.1 126.2 -36.4 Q127.9 -37.25 128.45 -37.8 127.15 -36.4 132.75 -37.3 138.3 -38.2 139.95 -40.1 L141.2 -37.75 142.4 -35.6 Q144.35 -38.5 147.25 -39.35 150.05 -40.15 153.3 -38.95 L154.85 -35.3 Q157.1 -36.4 158.45 -36.5 L162.4 -36.6 Q164.0 -38.3 166.4 -39.2 168.0 -39.85 170.95 -40.35 L173.5 -37.85 176.5 -37.65 Q176.6 -36.4 177.15 -34.35 L178.05 -31.15 Q181.4 -33.1 183.7 -32.3 186.3 -31.35 186.95 -27.0 L189.2 -26.45 191.45 -24.3 Q192.3 -24.1 192.9 -24.6 193.7 -25.25 194.2 -25.35 L195.25 -22.2 195.75 -18.9 197.3 -18.75 Q198.4 -18.95 198.75 -18.45 198.6 -17.15 198.85 -14.55 L199.05 -10.7 Q200.2 -10.7 201.15 -11.25 L203.15 -12.75 Q203.6 -12.55 203.3 -11.0 203.05 -9.4 203.45 -9.25 205.0 -10.65 208.65 -11.65 L208.95 -8.45 209.0 -5.25 213.1 -4.8 Q212.3 0.2 213.95 2.75 215.65 5.35 219.75 4.7 219.65 5.7 219.9 7.9 L220.05 11.1 Q220.9 10.7 224.3 10.25 227.2 9.8 228.6 8.75 L228.8 10.6 228.9 12.5 Q230.95 13.0 233.2 14.1 235.45 15.15 237.45 15.65 L237.7 18.15 237.8 20.2 237.8 20.5 237.8 20.65 239.4 20.4 239.7 20.35 240.05 20.3 240.3 20.25 240.35 20.25 242.1 20.05 242.2 20.2 242.75 21.05 243.3 22.0 244.0 23.4 Q245.35 26.5 245.4 29.8 L245.35 31.6 245.15 32.95 Q241.2 30.75 239.05 30.65 235.65 30.45 234.0 34.3 L223.35 30.5 Q221.55 35.75 214.0 33.75 L208.3 32.2 Q205.35 31.65 204.05 32.85 L201.05 32.2 197.8 31.8 197.7 33.7 197.45 35.6 Q196.65 34.8 193.7 33.1 191.0 31.5 190.05 30.35 189.8 31.65 189.7 34.15 184.15 33.6 178.95 31.75 L178.8 33.6 178.6 35.45 Q173.1 34.9 167.85 31.7 L166.65 34.45 164.45 33.1 162.4 31.7 162.0 34.1 156.05 31.6 150.1 28.9 151.9 32.3 Q152.95 34.2 154.35 35.4 149.0 31.9 143.4 30.3 L143.15 32.6 136.0 32.15 Q134.0 31.95 132.65 32.15 L130.5 32.85 130.4 32.9 Q129.3 32.3 126.9 32.05 L123.4 31.6 123.4 33.5 123.15 35.3 Q119.4 33.65 117.35 32.9 113.75 31.55 111.2 31.6 L113.0 35.35 Q107.9 31.35 102.3 31.6 103.55 33.5 104.4 35.25 L98.55 32.3 Q95.1 30.7 92.4 30.1 L93.0 34.15 88.1 33.05 Q84.85 32.6 83.3 31.8 82.9 36.55 76.35 36.8 70.25 37.0 66.65 33.75 L64.3 37.85 Q63.75 37.1 61.15 35.25 58.7 33.55 58.15 32.75 61.95 38.5 51.0 36.1 L39.0 32.4 38.85 34.1 38.7 35.8 Q37.4 34.6 35.9 34.0 L32.65 33.15 Q33.4 34.2 33.6 35.9 L34.0 38.65 Q33.95 38.6 31.35 37.3 29.55 36.4 28.7 35.35 L28.6 37.35 28.45 39.35 Q27.8 38.8 25.85 37.95 23.8 37.1 23.2 36.65 L22.9 37.9 Q22.25 37.3 20.2 36.4 L17.65 35.2 17.5 37.25 17.35 39.3 Q13.65 37.85 11.35 35.15 L11.3 37.8 Q11.1 39.6 11.2 40.5 L8.5 38.3 5.75 36.0 5.6 38.0 5.45 39.95 3.15 38.1 0.85 36.05 0.05 37.9 -0.75 39.75 -2.3 37.7 -3.75 35.8 Q-3.8 36.45 -4.2 37.6 L-4.65 39.25 -6.2 37.8 -7.85 36.05 -9.1 37.8 -10.25 39.4 Q-10.35 39.05 -11.0 37.85 L-11.8 36.0 -12.9 37.85 Q-13.75 39.15 -14.0 39.8 -14.05 39.2 -14.65 37.55 -15.2 36.0 -15.15 35.1 L-17.85 37.8 -20.35 40.6 Q-20.2 39.75 -20.5 37.85 L-20.65 35.05 Q-20.7 35.35 -24.05 37.7 L-28.1 40.6 Q-27.7 39.7 -27.75 37.7 L-27.75 34.8 Q-29.15 34.95 -32.75 37.15 L-38.95 40.85 Q-46.2 44.6 -44.65 36.65 -48.85 39.1 -50.55 40.5 -48.85 37.25 -49.15 33.55 -53.1 34.0 -56.85 38.2 -56.45 37.45 -56.4 35.95 L-56.3 33.55 Q-61.8 33.4 -65.75 38.2 -65.65 37.5 -65.7 35.9 L-65.6 33.65 Q-66.15 35.05 -67.55 36.0 L-69.65 37.45 Q-69.95 36.55 -71.15 35.2 L-72.65 33.45 Q-72.9 34.6 -73.95 36.25 L-75.4 38.85 Q-75.65 38.1 -76.75 36.6 L-78.15 34.35 -79.4 36.5 Q-80.35 38.0 -80.55 38.9 -80.7 38.3 -81.4 36.95 L-82.3 35.1 Q-82.6 36.1 -83.9 38.1 L-85.5 40.95 Q-87.7 38.05 -88.4 34.45 -88.95 35.6 -90.3 36.95 L-92.5 39.0 -92.7 36.25 -95.35 37.6 Q-97.3 38.4 -98.0 38.95 L-98.1 37.35 -98.1 35.75 Q-99.75 36.45 -102.15 38.3 L-105.95 41.05 Q-105.85 40.45 -106.05 39.1 L-106.2 37.15 Q-108.2 37.65 -110.65 39.15 -112.05 40.0 -114.65 41.75 -114.35 40.0 -115.05 35.7 -118.15 37.75 -120.95 36.65 -123.85 35.55 -123.95 32.05 -125.35 34.2 -130.55 35.65 -135.55 37.0 -134.65 35.15 L-134.9 35.55 -135.9 36.85 -136.1 37.05 -137.35 38.35 -138.95 40.0 -139.45 40.6 -139.85 41.05 Q-139.7 39.5 -140.0 36.15 -140.3 32.7 -140.2 31.2 -140.9 32.2 -143.75 34.45 -146.65 36.65 -147.35 37.65 L-147.55 34.4 -147.75 31.15 -151.5 34.7 Q-154.15 37.05 -155.25 38.85 L-154.55 34.95 -154.0 31.25 -158.7 33.2 Q-162.05 34.45 -163.5 35.9 -163.15 34.35 -163.1 31.8 L-162.85 27.9 Q-163.5 28.35 -166.9 29.4 -169.75 30.3 -171.3 32.05 L-171.65 26.15 -171.65 26.1 -172.4 26.85 -174.2 28.35 -174.35 28.5 -174.5 28.6 Q-176.8 30.5 -177.75 32.5 -178.15 31.7 -180.4 29.3 -182.15 27.45 -182.75 24.7 -183.05 25.95 -184.25 28.6 -185.4 31.05 -185.65 32.45 -188.2 28.8 -189.4 27.8 -190.0 28.0 -191.05 29.6 -192.0 31.05 -192.8 31.1 L-195.2 29.2 Q-196.65 28.0 -197.65 27.65 L-200.45 32.75 -202.3 30.3 -204.15 27.65 Q-207.95 30.2 -208.95 30.15 -210.4 30.1 -213.0 26.4 -213.6 27.7 -215.5 29.7 L-218.05 32.7 -220.0 30.4 -222.1 27.65 Q-233.6 32.05 -238.05 35.6 L-238.6 29.6 -242.0 29.75 -245.4 30.2 Q-245.15 24.4 -242.3 20.55 -239.75 17.1 -234.0 13.9 L-236.0 13.5 -232.55 11.85 Q-230.05 10.75 -229.0 10.85 M237.8 20.2 L237.8 20.65 M243.3 22.0 L243.6 22.55 244.0 23.4 M-134.65 35.15 L-134.6 35.05 -134.9 35.55 M-139.45 40.6 L-139.8 41.0 -139.85 41.05" fill="none" stroke="#000000" stroke-linecap="round" stroke-linejoin="miter-clip" stroke-miterlimit="4.0" stroke-opacity="0.6" stroke-width="1.0"/>
  </g>
</svg>
