<?xml version="1.0" encoding="UTF-8" standalone="no"?>
<svg xmlns:xlink="http://www.w3.org/1999/xlink" height="118.05px" width="1078.2px" xmlns="http://www.w3.org/2000/svg">
  <g transform="matrix(1.0, 0.0, 0.0, 1.0, 539.1, 59.0)">
    <path d="M538.6 -46.9 L538.6 -38.95 -538.6 -38.95 -538.6 -46.9 538.6 -46.9 M538.6 29.4 L538.6 42.75 -538.6 42.75 -538.6 29.4 538.6 29.4" fill="#000000" fill-opacity="0.14901961" fill-rule="evenodd" stroke="none"/>
    <path d="M538.6 -46.9 L-538.6 -46.9 -538.6 -58.5 538.6 -58.5 538.6 -46.9 M-538.6 -38.95 L538.6 -38.95 538.6 29.4 -538.6 29.4 -538.6 -38.95 M538.6 42.75 L538.6 58.55 -538.6 58.55 -538.6 42.75 538.6 42.75" fill="#ffffff" fill-opacity="0.0" fill-rule="evenodd" stroke="none"/>
    <path d="M538.6 -38.95 L538.6 -46.9 538.6 -58.5 -538.6 -58.5 -538.6 -46.9 -538.6 -38.95 -538.6 29.4 -538.6 42.75 -538.6 58.55 538.6 58.55 538.6 42.75 538.6 29.4 538.6 -38.95" fill="none" stroke="#000000" stroke-linecap="round" stroke-linejoin="miter-clip" stroke-miterlimit="4.0" stroke-width="1.0"/>
    <path d="M538.6 -46.9 L-538.6 -46.9 M-538.6 -38.95 L538.6 -38.95 M-538.6 42.75 L538.6 42.75 M538.6 29.4 L-538.6 29.4" fill="none" stroke="#000000" stroke-linecap="round" stroke-linejoin="miter-clip" stroke-miterlimit="4.0" stroke-opacity="0.4" stroke-width="1.0"/>
  </g>
</svg>
