<?xml version="1.0" encoding="UTF-8" standalone="no"?>
<svg xmlns:xlink="http://www.w3.org/1999/xlink" height="1646.9px" width="4395.1px" xmlns="http://www.w3.org/2000/svg">
  <g transform="matrix(1.0, 0.0, 0.0, 1.0, 2197.55, 823.45)">
    <path d="M996.65 -43.45 L996.65 -747.45 1177.8 -822.95 1630.8 -822.95 2061.15 -822.95 2197.05 -770.1 2197.05 815.4 2061.15 815.4 1630.8 815.4 1630.8 -822.95 1630.8 815.4 1202.8 815.4 1202.8 641.75 1177.8 641.75 1157.5 641.75 1157.5 -43.45 997.95 -43.45 996.65 -43.45 M1177.8 641.75 L1177.8 -822.95 1177.8 641.75 M2061.15 815.4 L2061.15 -822.95 2061.15 815.4" fill="#000000" fill-opacity="0.09803922" fill-rule="evenodd" stroke="none"/>
    <path d="M997.95 -43.45 L996.65 -43.4 996.65 -43.45 997.95 -43.45" fill="#e0e1e2" fill-rule="evenodd" stroke="none"/>
    <path d="M995.0 -43.4 L995.45 -43.4 996.65 -43.4 997.95 -43.45 1157.5 -43.45 1157.5 641.75 181.25 641.75 181.25 -43.45 181.25 641.75 181.25 709.7 -244.45 709.7 -244.45 483.2 -244.45 245.35 Q-245.9 234.45 -251.75 217.9 -263.45 184.8 -285.3 156.65 -315.95 117.2 -362.6 93.2 -420.95 63.15 -501.1 59.15 -581.25 63.15 -639.6 93.2 -686.25 117.2 -716.9 156.65 -738.8 184.8 -750.5 217.9 -756.35 234.45 -757.8 245.35 L-757.8 483.2 -757.8 709.7 -1183.45 709.7 -1183.45 641.75 -1183.45 -43.45 -1183.45 641.75 -2151.75 641.75 -2151.75 -43.45 -1183.45 -43.45 -1183.45 -44.85 -1183.45 -88.75 -1063.6 -87.7 10.7 -87.35 181.25 -88.75 181.25 -43.45 995.0 -43.4 M-1177.8 483.2 L-757.8 483.2 -1177.8 483.2 M169.9 483.2 L-244.45 483.2 169.9 483.2" fill="#ffffff" fill-opacity="0.0" fill-rule="evenodd" stroke="none"/>
    <path d="M181.25 641.75 L1157.5 641.75 1177.8 641.75 1202.8 641.75 1202.8 815.4 1202.8 822.95 203.9 822.95 203.9 709.7 181.25 709.7 203.9 709.7 203.9 822.95 -1200.45 822.95 -2197.05 822.95 -2197.05 641.75 -2151.75 641.75 -1183.45 641.75 -1183.45 709.7 -757.8 709.7 -244.45 709.7 181.25 709.7 181.25 641.75 M-1183.45 709.7 L-1200.45 709.7 -1200.45 822.95 -1200.45 709.7 -1183.45 709.7" fill="#000000" fill-opacity="0.29803923" fill-rule="evenodd" stroke="none"/>
    <path d="M-757.8 709.7 L-757.8 483.2 -757.8 245.35 Q-756.35 234.45 -750.5 217.9 -738.8 184.8 -716.9 156.65 -686.25 117.2 -639.6 93.2 -581.25 63.15 -501.1 59.15 -420.95 63.15 -362.6 93.2 -315.95 117.2 -285.3 156.65 -263.45 184.8 -251.75 217.9 -245.9 234.45 -244.45 245.35 L-244.45 483.2 -245.6 483.2 -244.45 483.2 -244.45 709.7 -757.8 709.7 M-754.5 483.2 L-757.8 483.2 -754.5 483.2" fill="#000000" fill-opacity="0.4" fill-rule="evenodd" stroke="none"/>
    <path d="M996.65 -43.45 L996.65 -747.45 1177.8 -822.95 1630.8 -822.95 2061.15 -822.95 2197.05 -770.1 2197.05 815.4 2061.15 815.4 1630.8 815.4 1630.8 -822.95 M995.0 -43.4 L181.25 -43.45 181.25 -88.75 10.7 -87.35 -1063.6 -87.7 -1183.45 -88.75 -1183.45 -44.85 -1183.45 -43.45 -2151.75 -43.45 -2151.75 641.75 -2197.05 641.75 -2197.05 822.95 -1200.45 822.95 203.9 822.95 1202.8 822.95 1202.8 815.4 1630.8 815.4 M-757.8 709.7 L-757.8 483.2 -757.8 245.35 Q-756.35 234.45 -750.5 217.9 -738.8 184.8 -716.9 156.65 -686.25 117.2 -639.6 93.2 -581.25 63.15 -501.1 59.15 -420.95 63.15 -362.6 93.2 -315.95 117.2 -285.3 156.65 -263.45 184.8 -251.75 217.9 -245.9 234.45 -244.45 245.35 L-244.45 483.2 -244.45 709.7 -757.8 709.7 M-757.8 483.2 L-754.5 483.2 M-245.6 483.2 L-244.45 483.2" fill="none" stroke="#000000" stroke-linecap="round" stroke-linejoin="miter-clip" stroke-miterlimit="4.0" stroke-width="1.0"/>
    <path d="M2061.15 815.4 L2061.15 815.65 M995.45 -43.4 L995.0 -43.4 M181.25 -43.45 L181.25 641.75 1157.5 641.75 1157.5 -43.45 997.95 -43.45 996.65 -43.45 996.65 -43.4 M995.45 -43.4 L996.65 -43.45 M-1183.45 -43.45 L-1183.45 641.75 -1183.45 709.7 -757.8 709.7 M-757.8 483.2 L-1177.8 483.2 M181.25 709.7 L203.9 709.7 203.9 822.95 M1202.8 815.4 L1202.8 641.75 1177.8 641.75 1157.5 641.75 M-244.45 709.7 L181.25 709.7 181.25 641.75 M1177.8 -822.95 L1177.8 641.75 M1630.8 815.4 L1630.8 815.9 M2061.15 -822.95 L2061.15 815.4 M-1200.45 822.95 L-1200.45 709.7 -1183.45 709.7 M-2151.75 641.75 L-1183.45 641.75 M-244.45 483.2 L169.9 483.2" fill="none" stroke="#000000" stroke-linecap="round" stroke-linejoin="miter-clip" stroke-miterlimit="4.0" stroke-opacity="0.6" stroke-width="1.0"/>
  </g>
</svg>
