<?xml version="1.0" encoding="UTF-8" standalone="no"?>
<svg xmlns:xlink="http://www.w3.org/1999/xlink" height="500.4px" width="875.3px" xmlns="http://www.w3.org/2000/svg">
  <g transform="matrix(1.0, 0.0, 0.0, 1.0, 437.7, 250.0)">
    <path d="M270.2 57.15 L356.9 157.55 436.0 249.15 415.25 241.7 Q388.3 232.5 357.1 223.65 257.25 195.35 152.85 181.2 6.7 161.4 -127.8 172.7 -295.9 186.85 -436.05 249.15 L-345.45 146.95 5.65 -249.2 85.6 -156.65 Q32.0 -178.55 -25.7 -169.55 -44.1 -166.65 -60.7 -160.9 -69.0 -158.05 -73.65 -155.75 -69.0 -158.05 -60.7 -160.9 -44.1 -166.65 -25.7 -169.55 32.0 -178.55 85.6 -156.65 L270.2 57.15 Q162.65 10.3 55.65 -1.1 -30.55 -10.3 -112.55 3.8 -171.1 13.85 -221.65 34.55 -246.95 44.9 -260.5 53.25 -246.95 44.9 -221.65 34.55 -171.1 13.85 -112.55 3.8 -30.55 -10.3 55.65 -1.1 162.65 10.3 270.2 57.15 M356.9 157.55 Q229.3 106.15 100.75 89.4 -6.55 75.45 -110.75 86.05 -190.7 94.15 -263.45 116.0 -310.95 130.3 -345.45 146.95 -310.95 130.3 -263.45 116.0 -190.7 94.15 -110.75 86.05 -6.55 75.45 100.75 89.4 229.3 106.15 356.9 157.55 M167.05 -56.65 Q34.7 -100.9 -78.0 -83.2 -113.25 -77.65 -142.25 -66.6 -156.8 -61.05 -164.25 -56.65 -156.8 -61.05 -142.25 -66.6 -113.25 -77.65 -78.0 -83.2 34.7 -100.9 167.05 -56.65" fill="#ffffff" fill-opacity="0.0" fill-rule="evenodd" stroke="none"/>
    <path d="M85.6 -156.65 L87.75 -155.75 M270.2 57.15 L356.9 157.55 436.0 249.15 415.25 241.7 Q388.3 232.5 357.1 223.65 257.25 195.35 152.85 181.2 6.7 161.4 -127.8 172.7 -295.9 186.85 -436.05 249.15 L-345.45 146.95 5.65 -249.2 85.6 -156.65 270.2 57.15 271.8 57.85" fill="none" stroke="#000000" stroke-linecap="round" stroke-linejoin="miter-clip" stroke-miterlimit="4.0" stroke-width="1.0"/>
    <path d="M85.6 -156.65 Q32.0 -178.55 -25.7 -169.55 -44.1 -166.65 -60.7 -160.9 -69.0 -158.05 -73.65 -155.75 M-345.45 146.95 Q-310.95 130.3 -263.45 116.0 -190.7 94.15 -110.75 86.05 -6.55 75.45 100.75 89.4 229.3 106.15 356.9 157.55 M-260.5 53.25 Q-246.95 44.9 -221.65 34.55 -171.1 13.85 -112.55 3.8 -30.55 -10.3 55.65 -1.1 162.65 10.3 270.2 57.15 M-164.25 -56.65 Q-156.8 -61.05 -142.25 -66.6 -113.25 -77.65 -78.0 -83.2 34.7 -100.9 167.05 -56.65" fill="none" stroke="#000000" stroke-linecap="round" stroke-linejoin="miter-clip" stroke-miterlimit="4.0" stroke-opacity="0.6" stroke-width="1.0"/>
  </g>
</svg>
