<?xml version="1.0" encoding="UTF-8" standalone="no"?>
<svg xmlns:xlink="http://www.w3.org/1999/xlink" height="67.65px" width="148.0px" xmlns="http://www.w3.org/2000/svg">
  <g transform="matrix(1.0, 0.0, 0.0, 1.0, 73.95, 33.8)">
    <path d="M9.0 -30.75 L9.0 -31.05 9.05 -31.3 12.45 -29.15 Q15.85 -26.85 16.25 -26.7 20.25 -25.15 25.45 -26.05 28.7 -26.65 35.35 -29.0 49.9 -34.2 58.35 -33.05 65.75 -32.05 69.85 -26.75 73.6 -21.85 73.55 -15.25 73.45 -8.65 69.7 -3.7 L69.4 -3.3 64.4 0.95 63.05 1.65 Q58.2 18.95 66.4 22.15 L59.8 22.6 Q54.25 18.1 59.3 2.85 L59.65 2.8 60.9 2.45 61.85 2.1 63.1 1.5 64.45 0.75 65.15 0.3 Q68.9 -3.55 68.85 -8.65 68.8 -14.2 64.1 -19.85 55.25 -30.45 44.4 -27.35 42.45 -26.8 35.05 -23.65 29.1 -21.1 25.1 -20.65 17.85 -19.8 11.7 -23.9 L9.9 -25.2 8.7 -31.25 8.9 -31.05 9.0 -30.75 M60.9 2.45 L61.75 2.2 63.05 1.65 61.75 2.2 60.9 2.45 M-73.35 -30.3 Q-72.85 -32.1 -70.0 -33.3 L-69.3 -32.7 -67.3 -30.8 -64.2 -28.0 Q-61.75 -26.75 -58.75 -26.45 -57.0 -26.3 -55.05 -26.45 -51.75 -26.75 -44.9 -28.6 -37.5 -30.6 -33.7 -31.1 L-21.3 -30.7 Q-13.7 -28.95 -9.4 -22.65 -5.55 -16.85 -5.7 -9.5 -5.9 -2.2 -10.05 3.0 -14.35 8.3 -21.4 9.15 -18.05 8.65 -15.05 6.85 -10.9 2.8 -10.85 -2.95 -10.75 -9.25 -15.65 -16.0 -24.45 -28.1 -35.75 -25.95 -37.9 -25.55 -45.55 -23.0 -51.75 -20.9 -55.85 -20.8 -63.25 -20.6 -68.95 -25.45 -71.8 -27.9 -73.2 -30.4 L-73.35 -30.3 M-25.3 9.15 Q-27.55 16.65 -27.05 22.45 -26.4 29.65 -21.35 32.4 L-27.85 33.35 Q-31.45 29.65 -31.35 21.6 -31.25 14.75 -28.8 8.35 L-25.3 9.15" fill="#ffffff" fill-opacity="0.0" fill-rule="evenodd" stroke="none"/>
    <path d="M59.8 22.6 L56.65 22.8 55.9 22.0 55.65 21.7 Q54.5 19.95 54.1 17.0 L53.95 15.45 54.0 14.0 58.0 3.1 Q53.3 3.7 46.3 0.9 37.75 -2.45 40.9 -7.55 42.3 -7.45 44.95 -5.5 47.6 -3.5 49.55 -3.35 54.5 -2.9 56.75 -5.3 58.75 -7.4 58.2 -11.0 57.65 -14.45 55.1 -17.4 52.35 -20.55 48.7 -21.4 45.55 -22.15 41.75 -21.3 L35.4 -19.35 Q27.65 -16.85 22.05 -17.3 15.85 -17.8 11.15 -21.9 L10.4 -22.55 9.9 -25.2 11.7 -23.9 Q17.85 -19.8 25.1 -20.65 29.1 -21.1 35.05 -23.65 42.45 -26.8 44.4 -27.35 55.25 -30.45 64.1 -19.85 68.8 -14.2 68.85 -8.65 68.9 -3.55 65.15 0.3 L64.45 0.75 63.1 1.5 61.85 2.1 60.9 2.45 59.65 2.8 59.3 2.85 Q54.25 18.1 59.8 22.6 M58.6 3.0 L58.5 3.0 58.0 3.1 58.5 3.0 58.6 3.0 58.95 2.95 59.3 2.85 58.6 3.0 M-73.35 -30.3 L-73.2 -30.4 Q-71.8 -27.9 -68.95 -25.45 -63.25 -20.6 -55.85 -20.8 -51.75 -20.9 -45.55 -23.0 -37.9 -25.55 -35.75 -25.95 -24.45 -28.1 -15.65 -16.0 -10.75 -9.25 -10.85 -2.95 -10.9 2.8 -15.05 6.85 -18.05 8.65 -21.4 9.15 L-22.35 9.25 -25.3 9.15 -28.8 8.35 -28.8 8.3 -29.0 8.25 -28.8 8.35 Q-31.25 14.75 -31.35 21.6 -31.45 29.65 -27.85 33.35 L-30.05 32.35 -33.95 30.85 -34.05 30.65 -34.1 30.5 -34.2 30.35 -34.3 30.15 -34.4 29.95 -35.6 23.9 -35.45 21.15 Q-34.6 14.75 -29.65 8.0 -32.25 7.05 -35.3 5.4 -44.25 0.55 -40.6 -4.85 -39.1 -4.6 -36.45 -2.1 -33.75 0.45 -31.7 0.85 -26.4 1.95 -23.9 -0.45 -21.65 -2.6 -22.15 -6.65 -22.6 -10.55 -25.2 -14.15 -27.95 -17.95 -31.7 -19.25 L-31.8 -19.25 -31.9 -19.3 -32.15 -19.35 -32.5 -19.45 -34.25 -19.85 -35.5 -19.95 -36.1 -20.0 -38.85 -19.85 -40.5 -19.45 -40.7 -19.4 -40.85 -19.4 -40.9 -19.4 -41.45 -19.25 -45.5 -18.35 Q-51.5 -17.0 -56.2 -17.15 L-59.25 -17.5 Q-63.05 -18.2 -66.15 -20.25 -68.1 -21.6 -69.75 -23.45 L-70.3 -24.05 -71.0 -24.9 -71.6 -25.65 Q-72.95 -27.45 -73.25 -28.45 -73.55 -29.45 -73.35 -30.3 M-29.65 8.0 L-29.0 8.25 -29.65 8.0" fill="#000000" fill-opacity="0.24705882" fill-rule="evenodd" stroke="none"/>
    <path d="M55.65 21.7 Q54.0 19.3 53.95 15.45 L54.1 17.0 Q54.5 19.95 55.65 21.7 M58.6 3.0 L59.3 2.85 58.95 2.95 58.6 3.0 M-34.2 30.35 L-34.3 30.2 -34.3 30.15 -34.35 30.1 -34.4 29.95 -34.3 30.15 -34.2 30.35 M-35.6 23.9 L-35.6 23.3 -35.6 23.2 -35.55 22.15 -35.45 21.15 -35.6 23.9 M-36.9 -19.95 L-37.75 -19.9 -38.75 -19.8 -38.85 -19.8 -38.9 -19.8 -39.1 -19.75 -40.5 -19.45 -38.85 -19.85 -36.1 -20.0 -36.9 -19.95" fill="#ffffff" fill-rule="evenodd" stroke="none"/>
    <path d="M56.65 22.8 L56.55 22.75 55.9 22.0 56.65 22.8 M-28.8 8.35 L-29.0 8.25 -28.8 8.3 -28.8 8.35" fill="#d3d5d6" fill-rule="evenodd" stroke="none"/>
    <path d="M-71.6 -25.65 L-72.45 -26.75 Q-73.8 -28.75 -73.45 -30.2 L-73.35 -30.3 Q-73.55 -29.45 -73.25 -28.45 -72.95 -27.45 -71.6 -25.65" fill="#cdced0" fill-rule="evenodd" stroke="none"/>
    <path d="M-34.4 29.95 Q-35.25 27.9 -35.5 25.1 L-35.6 23.9 -34.4 29.95" fill="#a5a7aa" fill-rule="evenodd" stroke="none"/>
    <path d="M9.0 -30.75 L9.0 -31.05 9.05 -31.3 12.45 -29.15 Q15.85 -26.85 16.25 -26.7 20.25 -25.15 25.45 -26.05 28.7 -26.65 35.35 -29.0 49.9 -34.2 58.35 -33.05 65.75 -32.05 69.85 -26.75 73.6 -21.85 73.55 -15.25 73.45 -8.65 69.7 -3.7 L69.4 -3.3 64.4 0.95 63.05 1.65 Q58.2 18.95 66.4 22.15 L59.8 22.6 56.65 22.8 56.55 22.75 55.9 22.0 55.65 21.7 Q54.0 19.3 53.95 15.45 L54.0 14.0 58.0 3.1 Q53.3 3.7 46.3 0.9 37.75 -2.45 40.9 -7.55 42.3 -7.45 44.95 -5.5 47.6 -3.5 49.55 -3.35 54.5 -2.9 56.75 -5.3 58.75 -7.4 58.2 -11.0 57.65 -14.45 55.1 -17.4 52.35 -20.55 48.7 -21.4 45.55 -22.15 41.75 -21.3 L35.4 -19.35 Q27.65 -16.85 22.05 -17.3 15.85 -17.8 11.15 -21.9 L10.4 -22.55 9.9 -25.2 8.7 -31.25 M63.05 1.65 L61.75 2.2 60.9 2.45 M59.65 2.8 L59.3 2.85 58.6 3.0 58.5 3.0 58.0 3.1 M58.95 2.95 L58.6 3.0 M56.65 22.8 L55.9 22.0 M-21.4 9.15 Q-14.35 8.3 -10.05 3.0 -5.9 -2.2 -5.7 -9.5 -5.55 -16.85 -9.4 -22.65 -13.7 -28.95 -21.3 -30.7 L-33.7 -31.1 Q-37.5 -30.6 -44.9 -28.6 -51.75 -26.75 -55.05 -26.45 -57.0 -26.3 -58.75 -26.45 -61.75 -26.75 -64.2 -28.0 L-67.3 -30.8 -69.3 -32.7 -70.0 -33.3 Q-72.85 -32.1 -73.35 -30.3 -73.55 -29.45 -73.25 -28.45 -72.95 -27.45 -71.6 -25.65 L-71.0 -24.9 -70.3 -24.05 -69.75 -23.45 Q-68.1 -21.6 -66.15 -20.25 -63.05 -18.2 -59.25 -17.5 L-56.2 -17.15 Q-51.5 -17.0 -45.5 -18.35 L-41.45 -19.25 -40.9 -19.4 -40.85 -19.4 -41.45 -19.25 M-21.4 9.15 L-22.35 9.25 -25.3 9.15 Q-27.55 16.65 -27.05 22.45 -26.4 29.65 -21.35 32.4 L-27.85 33.35 -30.05 32.35 -33.95 30.85 -34.05 30.65 -34.1 30.5 -34.2 30.35 -34.3 30.2 -34.3 30.15 -34.35 30.1 -34.4 29.95 -35.6 23.9 -35.6 23.3 -35.6 23.2 -35.55 22.15 -35.45 21.15 Q-34.6 14.75 -29.65 8.0 -32.25 7.05 -35.3 5.4 -44.25 0.55 -40.6 -4.85 -39.1 -4.6 -36.45 -2.1 -33.75 0.45 -31.7 0.85 -26.4 1.95 -23.9 -0.45 -21.65 -2.6 -22.15 -6.65 -22.6 -10.55 -25.2 -14.15 -27.95 -17.95 -31.7 -19.25 L-31.8 -19.25 -32.15 -19.35 -32.5 -19.45 -34.25 -19.85 -35.5 -19.95 -36.9 -19.95 -37.75 -19.9 -38.75 -19.8 -38.85 -19.8 -38.9 -19.8 -39.1 -19.75 -40.5 -19.45 -40.6 -19.4 -40.7 -19.4 -40.85 -19.4 M-32.15 -19.35 L-31.9 -19.3 -31.8 -19.25 M-36.1 -20.0 L-35.5 -19.95 M-36.9 -19.95 L-36.1 -20.0 M-40.7 -19.4 L-40.5 -19.45 M-29.0 8.25 L-29.65 8.0" fill="none" stroke="#000000" stroke-linecap="round" stroke-linejoin="miter-clip" stroke-miterlimit="4.0" stroke-opacity="0.6" stroke-width="1.0"/>
    <path d="M61.85 2.1 L63.1 1.5 M60.9 2.45 L59.65 2.8 M-28.8 8.35 L-25.3 9.15 M-29.0 8.25 L-28.8 8.35" fill="none" stroke="#000000" stroke-linecap="round" stroke-linejoin="miter-clip" stroke-miterlimit="4.0" stroke-opacity="0.4" stroke-width="1.0"/>
  </g>
</svg>
