<?xml version="1.0" encoding="UTF-8" standalone="no"?>
<svg xmlns:xlink="http://www.w3.org/1999/xlink" height="222.8px" width="1922.25px" xmlns="http://www.w3.org/2000/svg">
  <g transform="matrix(1.0, 0.0, 0.0, 1.0, 961.1, 111.05)">
    <path d="M605.0 -83.85 L604.9 -82.35 604.9 -83.85 605.0 -83.85" fill="#000000" fill-rule="evenodd" stroke="none"/>
    <path d="M948.5 -105.4 L948.5 -105.3 948.45 -105.35 948.35 -105.2 948.5 -105.25 948.5 110.05 948.5 111.6 Q945.2 110.3 943.1 106.9 940.95 103.35 940.95 99.0 L940.95 -82.35 604.9 -82.35 605.0 -83.85 605.5 -95.95 935.95 -95.95 935.95 -110.2 952.6 -110.55 Q950.15 -107.9 948.5 -105.4 M-168.1 -97.05 L-168.1 95.55 -156.6 95.55 -156.6 101.3 -156.6 109.3 -180.8 109.3 -180.8 101.3 -180.8 -83.55 -539.0 -83.55 -539.0 -97.05 -539.0 -97.2 -168.1 -97.2 -168.1 -97.05 M200.7 101.3 L200.7 -81.0 -157.5 -81.0 -157.5 -94.75 214.15 -94.75 214.15 98.1 224.75 98.1 224.75 101.3 224.75 111.75 200.7 111.75 200.7 101.3 M582.15 101.3 L582.15 -81.0 224.0 -81.0 224.0 -94.75 595.5 -94.75 595.5 98.1 606.4 98.1 606.4 101.3 606.4 111.75 582.15 111.75 582.15 101.3 M-948.5 110.0 L-948.5 101.3 -948.5 -92.95 -948.5 -105.2 -948.35 -105.2 -948.4 -105.3 -948.5 -105.25 -948.5 -105.35 -948.45 -105.35 -950.45 -108.2 -952.65 -110.55 -935.9 -110.2 -935.9 -95.95 -548.05 -95.95 -548.05 96.9 -537.95 96.9 -537.95 101.3 -537.95 110.5 -556.1 110.5 -556.1 101.3 -556.1 -82.35 -940.9 -82.35 -941.0 101.3 Q-941.55 104.9 -943.65 107.75 -945.65 110.45 -948.5 111.6 L-948.5 110.0" fill="#000000" fill-opacity="0.34901962" fill-rule="evenodd" stroke="none"/>
    <path d="M948.5 -105.25 L948.35 -105.2 948.45 -105.35 948.5 -105.3 948.5 -105.4 Q950.15 -107.9 952.6 -110.55 L952.65 -110.55 Q955.55 -110.1 957.9 -107.45 960.65 -104.05 960.65 -99.15 L960.65 99.0 Q960.65 103.85 957.9 107.35 955.05 110.65 951.55 110.65 L948.5 110.05 948.5 -105.25 M935.95 -110.2 L935.95 -95.95 605.5 -95.95 605.0 -83.85 604.9 -83.85 604.9 -82.35 940.95 -82.35 940.95 99.0 939.45 99.0 Q939.45 100.25 939.6 101.3 L811.6 101.3 606.4 101.3 606.4 98.1 595.5 98.1 595.5 -94.75 224.0 -94.75 224.0 -81.0 582.15 -81.0 582.15 101.3 548.6 101.3 226.4 101.3 224.75 101.3 224.75 98.1 214.15 98.1 214.15 -94.75 -157.5 -94.75 -157.5 -81.0 200.7 -81.0 200.7 101.3 -156.6 101.3 -156.6 95.55 -168.1 95.55 -168.1 -97.05 935.2 -97.05 935.2 -103.85 -931.85 -103.85 -931.85 -97.05 -539.0 -97.05 -539.0 -83.55 -180.8 -83.55 -180.8 101.3 -234.3 101.3 -536.4 101.3 -537.95 101.3 -537.95 96.9 -548.05 96.9 -548.05 -95.95 -935.9 -95.95 -935.9 -110.2 935.95 -110.2 M-948.5 110.0 L-951.5 110.65 Q-955.25 110.65 -957.85 107.35 -959.2 105.85 -959.9 103.7 -960.7 101.45 -960.6 99.15 L-960.6 -99.15 Q-960.7 -101.4 -959.9 -103.7 -959.2 -105.8 -957.85 -107.45 -955.6 -110.15 -952.7 -110.55 L-952.65 -110.55 -950.45 -108.2 -948.45 -105.35 -948.5 -105.35 -948.5 -105.25 -948.4 -105.3 -948.35 -105.2 -948.5 -105.2 -948.5 -92.95 -948.5 101.3 -948.5 110.0 M-939.4 101.3 L-941.0 101.3 -940.9 -82.35 -556.1 -82.35 -556.1 101.3 -557.6 101.3 -939.4 101.3" fill="#ffffff" fill-opacity="0.0" fill-rule="evenodd" stroke="none"/>
    <path d="M-539.0 -97.05 L-931.85 -97.05 -931.85 -103.85 935.2 -103.85 935.2 -97.05 -168.1 -97.05 -168.1 -97.2 -539.0 -97.2 -539.0 -97.05" fill="#ffffff" fill-opacity="0.7019608" fill-rule="evenodd" stroke="none"/>
    <path d="M-156.6 101.3 L200.7 101.3 M224.75 101.3 L226.4 101.3 M548.6 101.3 L582.15 101.3 M606.4 101.3 L811.6 101.3 M939.45 99.0 L940.95 99.0 M-537.95 101.3 L-536.4 101.3 M-234.3 101.3 L-180.8 101.3 M-939.4 101.3 L-941.0 101.3 M-556.1 101.3 L-557.6 101.3" fill="none" stroke="#000000" stroke-linecap="round" stroke-linejoin="round" stroke-width="1.0"/>
    <path d="M948.5 -105.4 L948.5 -105.3 948.45 -105.35 948.35 -105.2 948.5 -105.25 M226.4 101.3 L548.6 101.3 M811.6 101.3 L939.6 101.3 Q939.45 100.25 939.45 99.0 M-952.65 -110.55 L-952.7 -110.55 Q-955.6 -110.15 -957.85 -107.45 -959.2 -105.8 -959.9 -103.7 -960.7 -101.4 -960.6 -99.15 L-960.6 99.15 Q-960.7 101.45 -959.9 103.7 -959.2 105.85 -957.85 107.35 -955.25 110.65 -951.5 110.65 L-948.5 110.0 M-948.5 -105.2 L-948.35 -105.2 -948.4 -105.3 -948.5 -105.25 -948.5 -105.35 -948.45 -105.35 M-952.65 -110.55 L-935.9 -110.2 935.95 -110.2 M-536.4 101.3 L-234.3 101.3 M-557.6 101.3 L-939.4 101.3" fill="none" stroke="#000000" stroke-linecap="butt" stroke-linejoin="miter-clip" stroke-miterlimit="4.0" stroke-width="1.0"/>
    <path d="M948.5 -105.25 L948.5 110.05 M-948.5 110.0 L-948.5 101.3 -948.5 -92.95 -948.5 -105.2 M-948.45 -105.35 L-950.45 -108.2 -952.65 -110.55" fill="none" stroke="#000000" stroke-linecap="butt" stroke-linejoin="miter-clip" stroke-miterlimit="4.0" stroke-opacity="0.6" stroke-width="1.0"/>
    <path d="M948.5 110.05 L951.55 110.65 Q955.05 110.65 957.9 107.35 960.65 103.85 960.65 99.0 L960.65 -99.15 Q960.65 -104.05 957.9 -107.45 955.55 -110.1 952.65 -110.55 L952.6 -110.55" fill="none" stroke="#000000" stroke-linecap="butt" stroke-linejoin="miter-clip" stroke-miterlimit="4.0" stroke-width="1.0"/>
    <path d="M952.6 -110.55 Q950.15 -107.9 948.5 -105.4" fill="none" stroke="#000000" stroke-linecap="round" stroke-linejoin="miter-clip" stroke-miterlimit="4.0" stroke-opacity="0.6" stroke-width="1.0"/>
    <path d="M952.6 -110.55 L935.95 -110.2" fill="none" stroke="#000000" stroke-linecap="round" stroke-linejoin="miter-clip" stroke-miterlimit="4.0" stroke-width="1.0"/>
  </g>
</svg>
