<?xml version="1.0" encoding="UTF-8" standalone="no"?>
<svg xmlns:xlink="http://www.w3.org/1999/xlink" height="335.95px" width="1338.8px" xmlns="http://www.w3.org/2000/svg">
  <g transform="matrix(1.0, 0.0, 0.0, 1.0, 669.4, 168.0)">
    <path d="M-310.85 -81.4 Q-461.9 39.9 -514.3 61.0 -534.65 68.85 -526.85 76.65 -518.25 84.5 -483.0 85.25 -388.35 87.6 -206.0 39.9 72.6 -33.7 263.55 -90.8 351.95 -116.6 441.95 -132.3 486.55 -140.1 513.95 -142.45 L517.8 -134.0 Q365.5 -103.55 264.3 -65.75 37.35 18.75 -180.95 73.55 -228.95 85.55 -272.9 95.0 -541.2 152.7 -657.5 115.0 L-652.1 98.05 -652.05 97.8 -649.75 95.0 Q-630.45 72.7 -573.0 47.7 -475.2 4.65 -310.85 -81.4" fill="#000000" fill-opacity="0.2" fill-rule="evenodd" stroke="none"/>
    <path d="M-652.1 98.05 L-657.5 115.0 Q-541.2 152.7 -272.9 95.0 -228.95 85.55 -180.95 73.55 37.35 18.75 264.3 -65.75 365.5 -103.55 517.8 -134.0 L528.8 -136.2 Q608.6 -151.85 667.3 -159.65 428.65 -90.8 260.4 -28.2 65.55 44.35 -122.9 95.0 -153.95 103.35 -184.85 111.1 -526.05 196.4 -661.45 152.55 -670.8 142.4 -668.45 125.95 -666.0 111.45 -652.1 98.05" fill="#000000" fill-opacity="0.4" fill-rule="evenodd" stroke="none"/>
    <path d="M517.8 -134.0 L513.95 -142.45 Q486.55 -140.1 441.95 -132.3 351.95 -116.6 263.55 -90.8 72.6 -33.7 -206.0 39.9 -388.35 87.6 -483.0 85.25 -518.25 84.5 -526.85 76.65 -534.65 68.85 -514.3 61.0 -461.9 39.9 -310.85 -81.4 L89.0 -125.25 Q517.85 -166.7 667.3 -159.65 608.6 -151.85 528.8 -136.2 L517.8 -134.0" fill="#ffffff" fill-opacity="0.0" fill-rule="evenodd" stroke="none"/>
    <path d="M-310.85 -81.4 Q-475.2 4.65 -573.0 47.7 -630.45 72.7 -649.75 95.0 L-652.05 97.8 -652.1 98.05 -657.5 115.0 Q-541.2 152.7 -272.9 95.0 -228.95 85.55 -180.95 73.55 37.35 18.75 264.3 -65.75 365.5 -103.55 517.8 -134.0 L528.8 -136.2 Q608.6 -151.85 667.3 -159.65 517.85 -166.7 89.0 -125.25 L-310.85 -81.4" fill="none" stroke="#000000" stroke-linecap="round" stroke-linejoin="round" stroke-width="1.0"/>
    <path d="M667.3 -159.65 Q668.1 -164.35 668.9 -167.5 M-652.1 98.05 Q-666.0 111.45 -668.45 125.95 -670.8 142.4 -661.45 152.55 -526.05 196.4 -184.85 111.1 -153.95 103.35 -122.9 95.0 65.55 44.35 260.4 -28.2 428.65 -90.8 667.3 -159.65" fill="none" stroke="#000000" stroke-linecap="round" stroke-linejoin="miter-clip" stroke-miterlimit="4.0" stroke-width="1.0"/>
  </g>
</svg>
