<?xml version="1.0" encoding="UTF-8" standalone="no"?>
<svg xmlns:xlink="http://www.w3.org/1999/xlink" height="129.75px" width="195.5px" xmlns="http://www.w3.org/2000/svg">
  <g transform="matrix(1.0, 0.0, 0.0, 1.0, 97.75, 65.0)">
    <path d="M87.15 -19.75 L87.65 -19.35 87.65 -19.3 87.15 -19.75 M-87.45 -7.8 L-87.35 -7.7 -86.6 -7.05 -86.35 -6.95 -86.35 -6.9 -86.9 -7.25 -87.45 -7.75 -87.45 -7.8 M87.7 -7.7 L88.0 -8.05 88.1 -8.15 87.7 -7.7 M-86.6 -7.05 L-86.9 -7.25 -86.6 -7.05" fill="#575757" fill-rule="evenodd" stroke="none"/>
    <path d="M91.9 33.75 L91.6 34.2 91.6 34.25 91.7 34.0 91.9 33.75 M-88.4 -9.1 L-88.15 -8.65 -88.05 -8.5 -88.4 -9.1 M88.1 -8.15 L88.45 -8.65 88.35 -8.5 88.1 -8.15" fill="#3d3d3d" fill-rule="evenodd" stroke="none"/>
    <path d="M87.65 -19.35 L87.95 -19.05 87.65 -19.3 87.65 -19.35" fill="#757575" fill-rule="evenodd" stroke="none"/>
    <path d="M87.65 -19.35 L79.85 -58.5 Q79.25 -61.45 80.45 -62.95 81.0 -63.7 81.7 -63.85 L81.35 -64.15 80.2 -64.1 Q82.15 -64.45 83.75 -63.35 85.4 -62.25 85.75 -60.35 L97.25 -0.4 97.25 59.5 Q97.25 61.45 95.85 62.85 94.45 64.25 92.5 64.25 90.5 64.25 89.15 62.85 L89.0 62.75 89.0 62.7 88.4 62.0 88.15 61.5 88.4 62.0 88.0 61.15 88.15 61.5 88.95 62.6 Q90.15 63.9 91.9 64.15 91.6 62.95 91.55 61.25 L91.55 34.3 91.6 34.25 91.6 34.2 91.9 33.75 92.0 33.55 92.3 33.05 92.4 32.85 92.55 32.45 Q93.05 31.15 93.1 29.5 L93.1 29.4 93.1 29.3 93.1 29.2 Q93.1 26.3 91.7 24.3 L91.55 24.05 91.7 24.3 Q93.1 26.3 93.1 29.2 L93.1 29.3 93.1 29.4 93.1 29.5 Q93.05 31.15 92.55 32.45 93.0 31.15 93.05 29.65 L-85.9 29.65 Q-89.7 29.65 -92.95 32.15 L-92.2 33.8 -92.05 34.0 -91.85 34.3 -91.3 34.95 -91.55 34.7 -91.55 61.25 Q-91.6 62.95 -91.95 64.15 -90.2 63.9 -89.0 62.6 L-88.2 61.5 -88.2 61.55 -88.25 61.6 -89.0 62.7 -89.1 62.8 -89.15 62.85 Q-90.55 64.25 -92.45 64.25 -94.45 64.25 -95.8 62.85 -97.25 61.45 -97.25 59.5 L-97.25 -0.4 -85.75 -60.35 Q-85.4 -62.25 -83.8 -63.35 -82.1 -64.45 -80.2 -64.1 L-81.35 -64.15 -81.7 -63.85 -80.45 -62.95 Q-79.25 -61.45 -79.85 -58.5 L-87.7 -18.95 -87.3 -19.4 -86.0 -20.2 -85.9 -20.2 -85.8 -20.25 -85.6 -20.3 -85.5 -20.3 -85.4 -20.35 -84.95 -20.35 -83.75 -20.35 83.75 -20.35 85.45 -20.35 87.15 -19.75 87.65 -19.3 87.95 -19.05 87.65 -19.35 M89.35 -10.55 Q89.8 -11.9 89.8 -13.5 89.8 -16.4 88.45 -18.35 L88.35 -18.5 88.25 -18.65 87.95 -19.0 87.95 -19.05 87.95 -19.0 88.25 -18.65 88.35 -18.5 88.45 -18.35 Q89.8 -16.4 89.8 -13.5 89.8 -11.9 89.35 -10.55 L89.75 -13.05 -82.25 -13.05 Q-85.8 -13.05 -89.0 -10.55 L-88.85 -10.05 -89.2 -11.2 -91.55 0.35 -91.55 23.6 Q-90.5 22.45 -89.15 22.3 L-88.7 22.3 -87.8 22.3 87.7 22.3 88.35 22.3 Q90.2 22.3 91.55 24.05 L91.55 0.35 89.35 -10.55 89.35 -10.4 89.2 -10.1 89.35 -10.55 M81.8 -61.15 L93.6 -1.6 93.55 -1.4 94.05 60.55 94.3 61.3 94.95 61.6 95.6 61.3 95.85 60.5 95.35 0.35 95.5 0.15 95.6 -0.65 83.55 -61.45 83.15 -62.15 82.45 -62.4 81.9 -61.95 Q81.7 -61.6 81.8 -61.15 M-82.45 -62.4 L-83.15 -62.15 -83.55 -61.45 -95.6 -0.65 Q-95.7 0.05 -95.35 0.4 L-95.9 60.5 -95.6 61.3 -95.0 61.6 Q-94.6 61.6 -94.35 61.3 -94.1 61.0 -94.1 60.55 L-93.6 -1.4 -93.6 -1.6 -81.8 -61.15 Q-81.7 -61.6 -81.95 -61.95 L-82.45 -62.4 M-87.7 -18.95 L-87.95 -18.6 -88.05 -18.5 -88.15 -18.35 Q-89.45 -16.4 -89.45 -13.5 L-89.45 -13.35 -89.45 -13.25 -89.45 -13.15 -89.2 -11.25 -89.2 -11.2 -89.2 -11.25 -89.45 -13.15 -89.45 -13.25 -89.45 -13.35 -89.45 -13.5 Q-89.45 -16.4 -88.15 -18.35 L-88.05 -18.5 -87.95 -18.6 -87.7 -18.95 M-91.85 34.3 L-91.55 34.7 -91.85 34.3 M-92.2 33.8 Q-93.45 31.9 -93.45 29.2 -93.45 26.3 -92.05 24.3 L-91.55 23.6 -92.05 24.3 Q-93.45 26.3 -93.45 29.2 -93.45 31.9 -92.2 33.8" fill="#ffffff" fill-opacity="0.0" fill-rule="evenodd" stroke="none"/>
    <path d="M81.8 -61.15 Q81.7 -61.6 81.9 -61.95 L82.45 -62.4 83.15 -62.15 83.55 -61.45 95.6 -0.65 95.5 0.15 95.35 0.35 95.85 60.5 95.6 61.3 94.95 61.6 94.3 61.3 94.05 60.55 93.55 -1.4 93.6 -1.6 81.8 -61.15 M-82.45 -62.4 L-81.95 -61.95 Q-81.7 -61.6 -81.8 -61.15 L-93.6 -1.6 -93.6 -1.4 -94.1 60.55 Q-94.1 61.0 -94.35 61.3 -94.6 61.6 -95.0 61.6 L-95.6 61.3 -95.9 60.5 -95.35 0.4 Q-95.7 0.05 -95.6 -0.65 L-83.55 -61.45 -83.15 -62.15 -82.45 -62.4" fill="#ffffff" fill-opacity="0.3019608" fill-rule="evenodd" stroke="none"/>
    <path d="M92.55 32.45 L92.4 32.85 92.3 33.05 92.0 33.55 91.9 33.75 91.7 34.0 91.6 34.25 91.55 34.3 Q90.2 36.05 88.35 36.05 L87.7 36.05 -87.8 36.05 -88.7 36.05 Q-90.15 36.05 -91.25 35.0 L-91.3 34.95 -91.85 34.3 -92.05 34.0 -92.2 33.8 -92.95 32.15 Q-89.7 29.65 -85.9 29.65 L93.05 29.65 Q93.0 31.15 92.55 32.45 M-88.85 -10.05 L-89.0 -10.55 Q-85.8 -13.05 -82.25 -13.05 L89.75 -13.05 89.35 -10.55 89.2 -10.1 88.8 -9.2 88.45 -8.65 88.1 -8.15 88.0 -8.05 87.7 -7.7 87.65 -7.6 86.35 -6.8 85.25 -6.6 -84.95 -6.6 -85.05 -6.6 -85.15 -6.6 -85.75 -6.7 -85.8 -6.7 -86.35 -6.95 -86.6 -7.05 -87.35 -7.7 -87.45 -7.8 -87.55 -7.9 -87.6 -7.9 -87.65 -8.0 -88.05 -8.5 -88.15 -8.65 -88.4 -9.1 -88.65 -9.55 -88.7 -9.7 -88.85 -10.05" fill="#000000" fill-opacity="0.4509804" fill-rule="evenodd" stroke="none"/>
    <path d="M80.2 -64.1 L81.35 -64.15 81.7 -63.85 Q81.0 -63.7 80.45 -62.95 79.25 -61.45 79.85 -58.5 L87.65 -19.35 87.15 -19.75 85.45 -20.35 83.75 -20.35 76.45 -58.55 Q76.1 -60.5 77.2 -62.05 78.25 -63.75 80.2 -64.1 M89.35 -10.55 L91.55 0.35 91.55 24.05 Q90.2 22.3 88.35 22.3 L87.7 22.3 87.7 0.5 86.35 -6.8 87.65 -7.6 87.7 -7.7 88.1 -8.15 88.35 -8.5 88.45 -8.65 88.8 -9.2 89.2 -10.1 89.35 -10.4 89.35 -10.55 M91.55 34.3 L91.55 61.25 Q91.6 62.95 91.9 64.15 90.15 63.9 88.95 62.6 L88.15 61.5 87.9 60.8 88.15 61.5 88.0 61.15 87.9 60.8 87.7 59.75 87.7 59.65 87.7 59.5 87.7 36.05 88.35 36.05 Q90.2 36.05 91.55 34.3 M-88.85 -10.05 L-88.7 -9.7 -88.65 -9.55 -88.4 -9.1 -88.05 -8.5 -87.65 -8.0 -87.6 -7.9 -87.55 -7.9 -87.45 -7.8 -87.45 -7.75 -86.9 -7.25 -86.35 -6.9 -87.8 0.5 -87.8 22.3 -88.7 22.3 -89.15 22.3 Q-90.5 22.45 -91.55 23.6 L-91.55 0.35 -89.2 -11.2 -88.85 -10.05 M-91.3 34.95 L-91.25 35.0 Q-90.15 36.05 -88.7 36.05 L-87.8 36.05 -87.8 59.5 -87.8 59.6 -87.8 59.7 -87.85 60.5 -88.1 61.25 -88.2 61.5 -89.0 62.6 Q-90.2 63.9 -91.95 64.15 -91.6 62.95 -91.55 61.25 L-91.55 34.7 -91.3 34.95 M-87.7 -18.95 L-79.85 -58.5 Q-79.25 -61.45 -80.45 -62.95 L-81.7 -63.85 -81.35 -64.15 -80.2 -64.1 Q-78.25 -63.75 -77.15 -62.05 -76.1 -60.5 -76.45 -58.55 L-83.75 -20.35 -84.95 -20.35 -85.4 -20.35 -85.5 -20.3 -85.6 -20.3 -85.8 -20.25 -85.9 -20.2 -86.0 -20.2 -87.3 -19.4 -87.7 -18.95" fill="#000000" fill-opacity="0.3019608" fill-rule="evenodd" stroke="none"/>
    <path d="M87.65 -19.35 L87.95 -19.05 87.95 -19.0 88.25 -18.65 88.35 -18.5 88.45 -18.35 Q89.8 -16.4 89.8 -13.5 89.8 -11.9 89.35 -10.55 L89.35 -10.4 89.2 -10.1 88.8 -9.2 88.45 -8.65 88.1 -8.15 87.7 -7.7 87.65 -7.6 86.35 -6.8 87.7 0.5 87.7 22.3 88.35 22.3 Q90.2 22.3 91.55 24.05 L91.7 24.3 Q93.1 26.3 93.1 29.2 L93.1 29.3 93.1 29.4 93.1 29.5 Q93.05 31.15 92.55 32.45 L92.4 32.85 92.3 33.05 92.0 33.55 91.9 33.75 91.7 34.0 91.6 34.25 91.55 34.3 Q90.2 36.05 88.35 36.05 L87.7 36.05 87.7 59.5 87.7 59.65 87.7 59.75 87.9 60.8 88.15 61.5 88.4 62.0 89.0 62.7 89.0 62.75 89.15 62.85 Q90.5 64.25 92.5 64.25 94.45 64.25 95.85 62.85 97.25 61.45 97.25 59.5 L97.25 -0.4 85.75 -60.35 Q85.4 -62.25 83.75 -63.35 82.15 -64.45 80.2 -64.1 78.25 -63.75 77.2 -62.05 76.1 -60.5 76.45 -58.55 L83.75 -20.35 85.45 -20.35 87.15 -19.75 87.65 -19.35 M87.65 -19.3 L87.95 -19.05 M87.15 -19.75 L87.65 -19.3 M-88.85 -10.05 L-88.7 -9.7 -88.65 -9.55 -88.4 -9.1 -88.15 -8.65 -88.05 -8.5 -87.65 -8.0 -87.6 -7.9 -87.55 -7.9 -87.45 -7.8 -87.45 -7.75 -86.9 -7.25 -86.6 -7.05 -86.35 -6.95 -85.8 -6.7 -85.75 -6.7 -85.15 -6.6 -85.05 -6.6 -84.95 -6.6 85.25 -6.6 86.35 -6.8 M-92.2 33.8 L-92.05 34.0 -91.85 34.3 -91.55 34.7 -91.3 34.95 -91.25 35.0 Q-90.15 36.05 -88.7 36.05 L-87.8 36.05 87.7 36.05 M88.0 61.15 L88.4 62.0 M87.9 60.8 L88.0 61.15 M-87.7 -18.95 L-87.3 -19.4 -86.0 -20.2 -85.9 -20.2 -85.8 -20.25 -85.6 -20.3 -85.5 -20.3 -85.4 -20.35 -84.95 -20.35 -83.75 -20.35 -76.45 -58.55 Q-76.1 -60.5 -77.15 -62.05 -78.25 -63.75 -80.2 -64.1 -82.1 -64.45 -83.8 -63.35 -85.4 -62.25 -85.75 -60.35 L-97.25 -0.4 -97.25 59.5 Q-97.25 61.45 -95.8 62.85 -94.45 64.25 -92.45 64.25 -90.55 64.25 -89.15 62.85 L-89.1 62.8 -89.0 62.7 -88.25 61.6 -88.2 61.55 -88.2 61.5 M-89.2 -11.2 L-89.2 -11.25 -89.45 -13.15 -89.45 -13.25 -89.45 -13.35 -89.45 -13.5 Q-89.45 -16.4 -88.15 -18.35 L-88.05 -18.5 -87.95 -18.6 -87.7 -18.95 M-88.85 -10.05 L-89.2 -11.2 M-91.55 23.6 Q-90.5 22.45 -89.15 22.3 L-88.7 22.3 -87.8 22.3 -87.8 0.5 -86.35 -6.9 -86.9 -7.25 M-86.35 -6.95 L-86.35 -6.9 -85.8 -6.7 M-91.55 23.6 L-92.05 24.3 Q-93.45 26.3 -93.45 29.2 -93.45 31.9 -92.2 33.8 M-88.1 61.25 L-87.85 60.5 -87.8 59.7 -87.8 59.6 -87.8 59.5 -87.8 36.05 M-83.75 -20.35 L83.75 -20.35 M-87.8 22.3 L87.7 22.3" fill="none" stroke="#000000" stroke-linecap="round" stroke-linejoin="miter-clip" stroke-miterlimit="4.0" stroke-width="1.0"/>
  </g>
</svg>
