<?xml version="1.0" encoding="UTF-8" standalone="no"?>
<svg xmlns:xlink="http://www.w3.org/1999/xlink" height="307.75px" width="1572.45px" xmlns="http://www.w3.org/2000/svg">
  <g transform="matrix(1.0, 0.0, 0.0, 1.0, 786.75, 159.0)">
    <path d="M1.45 -77.1 L0.85 -76.8 Q-15.0 -89.8 -19.25 -118.7 L-20.0 -146.3 -9.75 -149.6 Q-11.9 -117.9 -4.95 -93.55 -1.8 -82.7 1.45 -77.1 M248.05 -74.4 Q232.2 -87.4 227.95 -116.3 L227.2 -143.9 237.45 -147.2 Q235.3 -115.5 242.25 -91.15 245.4 -80.3 248.65 -74.7 L248.05 -74.4 M480.85 -55.2 Q471.0 -63.25 465.65 -77.45 462.35 -86.15 460.75 -97.1 L460.0 -124.7 470.25 -128.0 Q468.35 -99.8 473.65 -77.45 L475.05 -71.95 Q478.2 -61.1 481.45 -55.5 L480.85 -55.2 M720.45 -1.2 Q704.6 -14.2 700.35 -43.1 L699.6 -70.7 709.85 -74.0 Q707.7 -42.3 714.65 -17.95 717.8 -7.1 721.05 -1.5 L720.45 -1.2 M-760.35 -1.2 Q-776.2 -14.2 -780.45 -43.1 L-781.2 -70.7 -770.95 -74.0 Q-773.1 -42.3 -766.15 -17.95 -763.0 -7.1 -759.75 -1.5 L-760.35 -1.2 M-536.75 -55.2 Q-552.6 -68.2 -556.85 -97.1 L-557.6 -124.7 -547.35 -128.0 Q-549.5 -96.3 -542.55 -71.95 -539.4 -61.1 -536.15 -55.5 L-536.75 -55.2 M-270.35 -74.4 Q-286.2 -87.4 -290.45 -116.3 L-291.2 -143.9 -280.95 -147.2 Q-283.1 -115.5 -276.15 -91.15 -273.0 -80.3 -269.75 -74.7 L-270.35 -74.4" fill="#ffffff" fill-opacity="0.4" fill-rule="evenodd" stroke="none"/>
    <path d="M-0.75 -75.7 Q-6.3 -78.95 -11.1 -84.65 -25.05 -100.9 -25.05 -128.35 -25.05 -137.1 -23.3 -147.85 -5.3 -158.5 18.65 -158.5 32.35 -158.5 45.7 -154.55 L44.75 -125.45 Q40.8 -96.4 26.05 -78.3 L6.65 -78.3 Q3.85 -78.3 1.45 -77.1 -1.8 -82.7 -4.95 -93.55 -11.9 -117.9 -9.75 -149.6 L-20.0 -146.3 -19.25 -118.7 Q-15.0 -89.8 0.85 -76.8 L-0.75 -75.7 M246.45 -73.3 Q240.9 -76.55 236.1 -82.25 222.15 -98.5 222.15 -125.95 222.15 -134.7 223.9 -145.45 241.9 -156.1 265.85 -156.1 279.55 -156.1 292.9 -152.15 L291.95 -123.05 Q288.0 -94.0 273.25 -75.9 L253.85 -75.9 Q251.05 -75.9 248.65 -74.7 245.4 -80.3 242.25 -91.15 235.3 -115.5 237.45 -147.2 L227.2 -143.9 227.95 -116.3 Q232.2 -87.4 248.05 -74.4 L246.45 -73.3 M481.45 -55.5 Q478.2 -61.1 475.05 -71.95 L473.65 -77.45 Q468.35 -99.8 470.25 -128.0 L460.0 -124.7 460.75 -97.1 Q462.35 -86.15 465.65 -77.45 471.0 -63.25 480.85 -55.2 479.9 -54.7 479.25 -54.1 473.7 -57.35 468.9 -63.05 463.45 -69.4 460.15 -77.45 454.95 -90.0 454.95 -106.75 454.95 -115.5 456.7 -126.25 474.7 -136.9 498.65 -136.9 L508.05 -136.4 Q516.95 -135.55 525.7 -132.95 L524.75 -103.85 Q522.75 -89.25 518.1 -77.45 514.05 -67.35 508.05 -59.25 L506.05 -56.7 486.65 -56.7 Q483.85 -56.7 481.45 -55.5 M721.05 -1.5 Q717.8 -7.1 714.65 -17.95 707.7 -42.3 709.85 -74.0 L699.6 -70.7 700.35 -43.1 Q704.6 -14.2 720.45 -1.2 L718.85 -0.1 Q713.3 -3.35 708.5 -9.05 694.55 -25.3 694.55 -52.75 694.55 -61.5 696.3 -72.25 701.4 -75.3 707.05 -77.45 721.1 -82.9 738.25 -82.9 L751.5 -81.95 Q758.45 -81.0 765.3 -78.95 L764.35 -49.85 Q760.4 -20.8 745.65 -2.7 L726.25 -2.7 Q723.45 -2.7 721.05 -1.5 M-759.75 -1.5 Q-763.0 -7.1 -766.15 -17.95 -773.1 -42.3 -770.95 -74.0 L-781.2 -70.7 -780.45 -43.1 Q-776.2 -14.2 -760.35 -1.2 L-761.95 -0.1 Q-767.5 -3.35 -772.3 -9.05 -786.25 -25.3 -786.25 -52.75 -786.25 -61.5 -784.5 -72.25 -766.5 -82.9 -742.55 -82.9 -728.85 -82.9 -715.5 -78.95 L-716.45 -49.85 Q-720.4 -20.8 -735.15 -2.7 L-754.55 -2.7 Q-757.35 -2.7 -759.75 -1.5 M-538.35 -54.1 Q-543.9 -57.35 -548.7 -63.05 -562.65 -79.3 -562.65 -106.75 -562.65 -115.5 -560.9 -126.25 -542.9 -136.9 -518.95 -136.9 -505.25 -136.9 -491.9 -132.95 L-492.85 -103.85 Q-496.8 -74.8 -511.55 -56.7 L-530.95 -56.7 Q-533.75 -56.7 -536.15 -55.5 -539.4 -61.1 -542.55 -71.95 -549.5 -96.3 -547.35 -128.0 L-557.6 -124.7 -556.85 -97.1 Q-552.6 -68.2 -536.75 -55.2 L-538.35 -54.1 M-271.95 -73.3 Q-277.5 -76.55 -282.3 -82.25 -296.25 -98.5 -296.25 -125.95 -296.25 -134.7 -294.5 -145.45 -276.5 -156.1 -252.55 -156.1 -238.85 -156.1 -225.5 -152.15 L-226.45 -123.05 Q-230.4 -94.0 -245.15 -75.9 L-264.55 -75.9 Q-267.35 -75.9 -269.75 -74.7 -273.0 -80.3 -276.15 -91.15 -283.1 -115.5 -280.95 -147.2 L-291.2 -143.9 -290.45 -116.3 Q-286.2 -87.4 -270.35 -74.4 L-271.95 -73.3" fill="#ffffff" fill-opacity="0.0" fill-rule="evenodd" stroke="none"/>
    <path d="M45.7 -154.55 Q59.6 -149.95 65.05 -147.25 L65.6 -140.15 Q65.8 -129.6 64.05 -119.05 58.75 -89.0 38.1 -74.3 L37.6 -74.8 Q34.1 -78.3 29.1 -78.3 L26.05 -78.3 Q40.8 -96.4 44.75 -125.45 L45.7 -154.55 M30.3 -25.5 L30.3 -25.35 30.25 -25.35 6.65 -25.5 4.35 -25.75 Q3.25 -26.0 2.0 -26.5 -0.65 -27.55 -2.1 -29.0 -3.55 -30.35 -4.4 -32.7 -5.2 -34.9 -5.2 -37.15 L-5.4 -63.2 26.4 -63.2 28.1 -62.25 Q29.9 -60.1 30.25 -54.9 30.85 -46.55 30.3 -25.5 M292.9 -152.15 Q306.8 -147.55 312.25 -144.85 L312.8 -137.75 Q313.0 -127.2 311.25 -116.65 305.95 -86.6 285.3 -71.9 L284.8 -72.4 Q281.3 -75.9 276.3 -75.9 L273.25 -75.9 Q288.0 -94.0 291.95 -123.05 L292.9 -152.15 M277.5 -23.1 L277.5 -22.95 277.45 -22.95 253.85 -23.1 251.55 -23.35 Q250.45 -23.6 249.2 -24.1 246.55 -25.15 245.1 -26.6 243.65 -27.95 242.8 -30.3 242.0 -32.5 242.0 -34.75 L241.8 -60.8 273.6 -60.8 275.3 -59.85 Q277.1 -57.7 277.45 -52.5 278.05 -44.15 277.5 -23.1 M506.05 -56.7 L508.05 -59.25 Q514.05 -67.35 518.1 -77.45 522.75 -89.25 524.75 -103.85 L525.7 -132.95 Q539.6 -128.35 545.05 -125.65 L545.6 -118.55 Q545.8 -108.0 544.05 -97.45 542.1 -86.4 538.1 -77.45 531.15 -62.0 518.1 -52.7 L517.6 -53.2 Q514.1 -56.7 509.1 -56.7 L508.05 -56.7 506.05 -56.7 M484.35 -4.15 Q483.25 -4.4 482.0 -4.9 479.35 -5.95 477.9 -7.4 476.45 -8.75 475.6 -11.1 474.8 -13.3 474.8 -15.55 L474.6 -41.6 506.4 -41.6 508.05 -40.65 508.1 -40.65 Q509.9 -38.5 510.25 -33.3 510.85 -24.95 510.3 -3.9 L510.3 -3.75 510.25 -3.75 508.05 -3.75 486.65 -3.9 484.35 -4.15 M745.65 -2.7 Q760.4 -20.8 764.35 -49.85 L765.3 -78.95 770.2 -77.3 Q780.2 -73.85 784.65 -71.65 L785.2 -64.55 Q785.4 -54.0 783.65 -43.45 780.2 -23.85 770.2 -10.75 764.9 -3.8 757.7 1.3 L757.2 0.8 Q753.7 -2.7 748.7 -2.7 L745.65 -2.7 M749.9 50.1 L749.9 50.25 749.85 50.25 726.25 50.1 723.95 49.85 721.6 49.1 Q718.95 48.05 717.5 46.6 716.05 45.25 715.2 42.9 714.4 40.7 714.4 38.45 L714.2 12.4 746.0 12.4 747.7 13.35 Q749.5 15.5 749.85 20.7 750.45 29.05 749.9 50.1 M-735.15 -2.7 Q-720.4 -20.8 -716.45 -49.85 L-715.5 -78.95 Q-701.6 -74.35 -696.15 -71.65 L-695.6 -64.55 Q-695.4 -54.0 -697.15 -43.45 -702.45 -13.4 -723.1 1.3 L-723.6 0.8 Q-727.1 -2.7 -732.1 -2.7 L-735.15 -2.7 M-730.9 50.1 L-730.9 50.25 -730.95 50.25 -754.55 50.1 -756.85 49.85 -759.2 49.1 Q-761.85 48.05 -763.3 46.6 -764.75 45.25 -765.6 42.9 -766.4 40.7 -766.4 38.45 L-766.6 12.4 -734.8 12.4 -733.1 13.35 Q-731.3 15.5 -730.95 20.7 -730.35 29.05 -730.9 50.1 M-491.9 -132.95 Q-478.0 -128.35 -472.55 -125.65 L-472.0 -118.55 Q-471.8 -108.0 -473.55 -97.45 -478.85 -67.4 -499.5 -52.7 L-500.0 -53.2 Q-503.5 -56.7 -508.5 -56.7 L-511.55 -56.7 Q-496.8 -74.8 -492.85 -103.85 L-491.9 -132.95 M-507.3 -3.9 L-507.3 -3.75 -507.35 -3.75 -530.95 -3.9 -533.25 -4.15 -535.6 -4.9 Q-538.25 -5.95 -539.7 -7.4 -541.15 -8.75 -542.0 -11.1 -542.8 -13.3 -542.8 -15.55 L-543.0 -41.6 -511.2 -41.6 -509.5 -40.65 Q-507.7 -38.5 -507.35 -33.3 -506.75 -24.95 -507.3 -3.9 M-225.5 -152.15 Q-211.6 -147.55 -206.15 -144.85 L-205.6 -137.75 Q-205.4 -127.2 -207.15 -116.65 -212.45 -86.6 -233.1 -71.9 L-233.6 -72.4 Q-237.1 -75.9 -242.1 -75.9 L-245.15 -75.9 Q-230.4 -94.0 -226.45 -123.05 L-225.5 -152.15 M-240.9 -23.1 L-240.9 -22.95 -240.95 -22.95 -264.55 -23.1 -266.85 -23.35 -269.2 -24.1 Q-271.85 -25.15 -273.3 -26.6 -274.75 -27.95 -275.6 -30.3 -276.4 -32.5 -276.4 -34.75 L-276.6 -60.8 -244.8 -60.8 -243.1 -59.85 Q-241.3 -57.7 -240.95 -52.5 -240.35 -44.15 -240.9 -23.1" fill="#000000" fill-opacity="0.34901962" fill-rule="evenodd" stroke="none"/>
    <path d="M38.1 -74.3 Q41.05 -70.95 41.05 -66.3 L41.05 -37.15 Q41.05 -33.45 39.15 -30.35 37.2 -27.45 33.9 -26.1 L30.3 -25.5 Q30.85 -46.55 30.25 -54.9 29.9 -60.1 28.1 -62.25 L26.4 -63.2 -5.4 -63.2 -5.3 -66.7 Q-5.3 -71.1 -1.85 -74.8 L-0.75 -75.7 0.85 -76.8 1.45 -77.1 Q3.85 -78.3 6.65 -78.3 L26.05 -78.3 29.1 -78.3 Q34.1 -78.3 37.6 -74.8 L38.1 -74.3 M30.25 24.25 L49.55 24.25 57.3 72.55 -20.0 72.55 -13.05 24.25 4.35 24.25 4.35 -16.9 17.85 -16.9 17.85 24.25 30.25 24.25 M285.3 -71.9 Q288.25 -68.55 288.25 -63.9 L288.25 -34.75 Q288.25 -31.05 286.35 -27.95 284.4 -25.05 281.1 -23.7 L277.5 -23.1 Q278.05 -44.15 277.45 -52.5 277.1 -57.7 275.3 -59.85 L273.6 -60.8 241.8 -60.8 241.9 -64.3 Q241.9 -68.7 245.35 -72.4 L246.45 -73.3 248.05 -74.4 248.65 -74.7 Q251.05 -75.9 253.85 -75.9 L273.25 -75.9 276.3 -75.9 Q281.3 -75.9 284.8 -72.4 L285.3 -71.9 M277.45 26.65 L296.75 26.65 304.5 74.95 227.2 74.95 234.15 26.65 251.55 26.65 251.55 -14.5 265.05 -14.5 265.05 26.65 277.45 26.65 M480.85 -55.2 L481.45 -55.5 Q483.85 -56.7 486.65 -56.7 L506.05 -56.7 508.05 -56.7 509.1 -56.7 Q514.1 -56.7 517.6 -53.2 L518.1 -52.7 Q521.05 -49.35 521.05 -44.7 L521.05 -15.55 Q521.05 -11.85 519.15 -8.75 517.2 -5.85 513.9 -4.5 L510.3 -3.9 Q510.85 -24.95 510.25 -33.3 509.9 -38.5 508.1 -40.65 L508.05 -40.65 506.4 -41.6 474.6 -41.6 474.7 -45.1 Q474.7 -49.5 478.15 -53.2 L479.25 -54.1 Q479.9 -54.7 480.85 -55.2 M484.35 4.7 L497.85 4.7 497.85 45.85 510.25 45.85 529.55 45.85 537.3 94.15 460.0 94.15 466.95 45.85 484.35 45.85 484.35 4.7 M720.45 -1.2 L721.05 -1.5 Q723.45 -2.7 726.25 -2.7 L745.65 -2.7 748.7 -2.7 Q753.7 -2.7 757.2 0.8 L757.7 1.3 Q760.65 4.65 760.65 9.3 L760.65 38.45 Q760.65 42.15 758.75 45.25 756.8 48.15 753.5 49.5 L749.9 50.1 Q750.45 29.05 749.85 20.7 749.5 15.5 747.7 13.35 L746.0 12.4 714.2 12.4 714.3 8.9 Q714.3 4.5 717.75 0.8 L718.85 -0.1 720.45 -1.2 M749.85 99.85 L769.15 99.85 776.9 148.15 699.6 148.15 706.55 99.85 723.95 99.85 723.95 58.7 737.45 58.7 737.45 99.85 723.95 99.85 737.45 99.85 749.85 99.85 M17.85 24.25 L4.35 24.25 17.85 24.25 M265.05 26.65 L251.55 26.65 265.05 26.65 M497.85 45.85 L484.35 45.85 497.85 45.85 M-760.35 -1.2 L-759.75 -1.5 Q-757.35 -2.7 -754.55 -2.7 L-735.15 -2.7 -732.1 -2.7 Q-727.1 -2.7 -723.6 0.8 L-723.1 1.3 Q-720.15 4.65 -720.15 9.3 L-720.15 38.45 Q-720.15 42.15 -722.05 45.25 -724.0 48.15 -727.3 49.5 L-730.9 50.1 Q-730.35 29.05 -730.95 20.7 -731.3 15.5 -733.1 13.35 L-734.8 12.4 -766.6 12.4 -766.5 8.9 Q-766.5 4.5 -763.05 0.8 L-761.95 -0.1 -760.35 -1.2 M-730.95 99.85 L-711.65 99.85 -703.9 148.15 -781.2 148.15 -774.25 99.85 -756.85 99.85 -756.85 58.7 -743.35 58.7 -743.35 99.85 -730.95 99.85 M-499.5 -52.7 Q-496.55 -49.35 -496.55 -44.7 L-496.55 -15.55 Q-496.55 -11.85 -498.45 -8.75 -500.4 -5.85 -503.7 -4.5 L-507.3 -3.9 Q-506.75 -24.95 -507.35 -33.3 -507.7 -38.5 -509.5 -40.65 L-511.2 -41.6 -543.0 -41.6 -542.9 -45.1 Q-542.9 -49.5 -539.45 -53.2 L-538.35 -54.1 -536.75 -55.2 -536.15 -55.5 Q-533.75 -56.7 -530.95 -56.7 L-511.55 -56.7 -508.5 -56.7 Q-503.5 -56.7 -500.0 -53.2 L-499.5 -52.7 M-507.35 45.85 L-488.05 45.85 -480.3 94.15 -557.6 94.15 -550.65 45.85 -533.25 45.85 -533.25 4.7 -519.75 4.7 -519.75 45.85 -507.35 45.85 M-233.1 -71.9 Q-230.15 -68.55 -230.15 -63.9 L-230.15 -34.75 Q-230.15 -31.05 -232.05 -27.95 -234.0 -25.05 -237.3 -23.7 L-240.9 -23.1 Q-240.35 -44.15 -240.95 -52.5 -241.3 -57.7 -243.1 -59.85 L-244.8 -60.8 -276.6 -60.8 -276.5 -64.3 Q-276.5 -68.7 -273.05 -72.4 L-271.95 -73.3 -270.35 -74.4 -269.75 -74.7 Q-267.35 -75.9 -264.55 -75.9 L-245.15 -75.9 -242.1 -75.9 Q-237.1 -75.9 -233.6 -72.4 L-233.1 -71.9 M-240.95 26.65 L-221.65 26.65 -213.9 74.95 -291.2 74.95 -284.25 26.65 -266.85 26.65 -266.85 -14.5 -253.35 -14.5 -253.35 26.65 -240.95 26.65 M-253.35 26.65 L-266.85 26.65 -253.35 26.65 M-533.25 45.85 L-519.75 45.85 -533.25 45.85 M-743.35 99.85 L-756.85 99.85 -743.35 99.85" fill="#000000" fill-opacity="0.5019608" fill-rule="evenodd" stroke="none"/>
    <path d="M30.25 -25.35 L30.25 24.25 17.85 24.25 17.85 -16.9 4.35 -16.9 4.35 -25.75 6.65 -25.5 30.25 -25.35 M277.45 -22.95 L277.45 26.65 265.05 26.65 265.05 -14.5 251.55 -14.5 251.55 -23.35 253.85 -23.1 277.45 -22.95 M484.35 -4.15 L486.65 -3.9 508.05 -3.75 510.25 -3.75 510.25 45.85 497.85 45.85 497.85 4.7 484.35 4.7 484.35 -4.15 M749.85 50.25 L749.85 99.85 737.45 99.85 737.45 58.7 723.95 58.7 723.95 49.85 726.25 50.1 749.85 50.25 M-730.95 50.25 L-730.95 99.85 -743.35 99.85 -743.35 58.7 -756.85 58.7 -756.85 49.85 -754.55 50.1 -730.95 50.25 M-507.35 -3.75 L-507.35 45.85 -519.75 45.85 -519.75 4.7 -533.25 4.7 -533.25 -4.15 -530.95 -3.9 -507.35 -3.75 M-240.95 -22.95 L-240.95 26.65 -253.35 26.65 -253.35 -14.5 -266.85 -14.5 -266.85 -23.35 -264.55 -23.1 -240.95 -22.95" fill="#000000" fill-opacity="0.6509804" fill-rule="evenodd" stroke="none"/>
    <path d="M26.05 -78.3 L29.1 -78.3 Q34.1 -78.3 37.6 -74.8 L38.1 -74.3 M1.45 -77.1 Q3.85 -78.3 6.65 -78.3 L26.05 -78.3 M30.25 -25.35 L6.65 -25.5 4.35 -25.75 M17.85 24.25 L30.25 24.25 M273.25 -75.9 L276.3 -75.9 Q281.3 -75.9 284.8 -72.4 L285.3 -71.9 M248.65 -74.7 Q251.05 -75.9 253.85 -75.9 L273.25 -75.9 M277.45 -22.95 L253.85 -23.1 251.55 -23.35 M265.05 26.65 L277.45 26.65 M481.45 -55.5 Q483.85 -56.7 486.65 -56.7 L506.05 -56.7 508.05 -56.7 509.1 -56.7 Q514.1 -56.7 517.6 -53.2 L518.1 -52.7 M510.25 -3.75 L508.05 -3.75 486.65 -3.9 484.35 -4.15 M497.85 45.85 L510.25 45.85 M721.05 -1.5 Q723.45 -2.7 726.25 -2.7 L745.65 -2.7 748.7 -2.7 Q753.7 -2.7 757.2 0.8 L757.7 1.3 M749.85 50.25 L726.25 50.1 723.95 49.85 M737.45 99.85 L749.85 99.85 M723.95 99.85 L737.45 99.85 M484.35 45.85 L497.85 45.85 M251.55 26.65 L265.05 26.65 M4.35 24.25 L17.85 24.25 M-759.75 -1.5 Q-757.35 -2.7 -754.55 -2.7 L-735.15 -2.7 -732.1 -2.7 Q-727.1 -2.7 -723.6 0.8 L-723.1 1.3 M-536.15 -55.5 Q-533.75 -56.7 -530.95 -56.7 L-511.55 -56.7 -508.5 -56.7 Q-503.5 -56.7 -500.0 -53.2 L-499.5 -52.7 M-507.35 -3.75 L-530.95 -3.9 -533.25 -4.15 M-245.15 -75.9 L-242.1 -75.9 Q-237.1 -75.9 -233.6 -72.4 L-233.1 -71.9 M-269.75 -74.7 Q-267.35 -75.9 -264.55 -75.9 L-245.15 -75.9 M-253.35 26.65 L-240.95 26.65 M-240.95 -22.95 L-264.55 -23.1 -266.85 -23.35 M-266.85 26.65 L-253.35 26.65 M-519.75 45.85 L-507.35 45.85 M-519.75 45.85 L-533.25 45.85 M-730.95 50.25 L-754.55 50.1 -756.85 49.85 M-743.35 99.85 L-730.95 99.85 M-756.85 99.85 L-743.35 99.85" fill="none" stroke="#2a2a2a" stroke-linecap="round" stroke-linejoin="miter-clip" stroke-miterlimit="10.0" stroke-opacity="0.6" stroke-width="1.0"/>
    <path d="M45.7 -154.55 Q59.6 -149.95 65.05 -147.25 L65.6 -140.15 Q65.8 -129.6 64.05 -119.05 58.75 -89.0 38.1 -74.3 41.05 -70.95 41.05 -66.3 L41.05 -37.15 Q41.05 -33.45 39.15 -30.35 37.2 -27.45 33.9 -26.1 L30.3 -25.5 M30.25 -25.35 L30.25 24.25 49.55 24.25 57.3 72.55 -20.0 72.55 -13.05 24.25 4.35 24.25 4.35 -16.9 4.35 -25.75 Q3.25 -26.0 2.0 -26.5 -0.65 -27.55 -2.1 -29.0 -3.55 -30.35 -4.4 -32.7 -5.2 -34.9 -5.2 -37.15 L-5.4 -63.2 -5.3 -66.7 Q-5.3 -71.1 -1.85 -74.8 L-0.75 -75.7 Q-6.3 -78.95 -11.1 -84.65 -25.05 -100.9 -25.05 -128.35 -25.05 -137.1 -23.3 -147.85 -5.3 -158.5 18.65 -158.5 32.35 -158.5 45.7 -154.55 M292.9 -152.15 Q306.8 -147.55 312.25 -144.85 L312.8 -137.75 Q313.0 -127.2 311.25 -116.65 305.95 -86.6 285.3 -71.9 288.25 -68.55 288.25 -63.9 L288.25 -34.75 Q288.25 -31.05 286.35 -27.95 284.4 -25.05 281.1 -23.7 L277.5 -23.1 M277.45 -22.95 L277.45 26.65 296.75 26.65 304.5 74.95 227.2 74.95 234.15 26.65 251.55 26.65 251.55 -14.5 251.55 -23.35 Q250.45 -23.6 249.2 -24.1 246.55 -25.15 245.1 -26.6 243.65 -27.95 242.8 -30.3 242.0 -32.5 242.0 -34.75 L241.8 -60.8 241.9 -64.3 Q241.9 -68.7 245.35 -72.4 L246.45 -73.3 Q240.9 -76.55 236.1 -82.25 222.15 -98.5 222.15 -125.95 222.15 -134.7 223.9 -145.45 241.9 -156.1 265.85 -156.1 279.55 -156.1 292.9 -152.15 M525.7 -132.95 Q516.95 -135.55 508.05 -136.4 L498.65 -136.9 Q474.7 -136.9 456.7 -126.25 454.95 -115.5 454.95 -106.75 454.95 -90.0 460.15 -77.45 463.45 -69.4 468.9 -63.05 473.7 -57.35 479.25 -54.1 L478.15 -53.2 Q474.7 -49.5 474.7 -45.1 L474.6 -41.6 474.8 -15.55 Q474.8 -13.3 475.6 -11.1 476.45 -8.75 477.9 -7.4 479.35 -5.95 482.0 -4.9 483.25 -4.4 484.35 -4.15 L484.35 4.7 484.35 45.85 466.95 45.85 460.0 94.15 537.3 94.15 529.55 45.85 510.25 45.85 510.25 -3.75 M510.3 -3.9 L513.9 -4.5 Q517.2 -5.85 519.15 -8.75 521.05 -11.85 521.05 -15.55 L521.05 -44.7 Q521.05 -49.35 518.1 -52.7 531.15 -62.0 538.1 -77.45 542.1 -86.4 544.05 -97.45 545.8 -108.0 545.6 -118.55 L545.05 -125.65 Q539.6 -128.35 525.7 -132.95 M765.3 -78.95 Q758.45 -81.0 751.5 -81.95 L738.25 -82.9 Q721.1 -82.9 707.05 -77.45 701.4 -75.3 696.3 -72.25 694.55 -61.5 694.55 -52.75 694.55 -25.3 708.5 -9.05 713.3 -3.35 718.85 -0.1 L717.75 0.8 Q714.3 4.5 714.3 8.9 L714.2 12.4 714.4 38.45 Q714.4 40.7 715.2 42.9 716.05 45.25 717.5 46.6 718.95 48.05 721.6 49.1 L723.95 49.85 723.95 58.7 723.95 99.85 706.55 99.85 699.6 148.15 776.9 148.15 769.15 99.85 749.85 99.85 749.85 50.25 M765.3 -78.95 L770.2 -77.3 Q780.2 -73.85 784.65 -71.65 L785.2 -64.55 Q785.4 -54.0 783.65 -43.45 780.2 -23.85 770.2 -10.75 764.9 -3.8 757.7 1.3 760.65 4.65 760.65 9.3 L760.65 38.45 Q760.65 42.15 758.75 45.25 756.8 48.15 753.5 49.5 L749.9 50.1 M-715.5 -78.95 Q-728.85 -82.9 -742.55 -82.9 -766.5 -82.9 -784.5 -72.25 -786.25 -61.5 -786.25 -52.75 -786.25 -25.3 -772.3 -9.05 -767.5 -3.35 -761.95 -0.1 L-763.05 0.8 Q-766.5 4.5 -766.5 8.9 L-766.6 12.4 -766.4 38.45 Q-766.4 40.7 -765.6 42.9 -764.75 45.25 -763.3 46.6 -761.85 48.05 -759.2 49.1 L-756.85 49.85 -756.85 58.7 -756.85 99.85 -774.25 99.85 -781.2 148.15 -703.9 148.15 -711.65 99.85 -730.95 99.85 -730.95 50.25 M-715.5 -78.95 Q-701.6 -74.35 -696.15 -71.65 L-695.6 -64.55 Q-695.4 -54.0 -697.15 -43.45 -702.45 -13.4 -723.1 1.3 -720.15 4.65 -720.15 9.3 L-720.15 38.45 Q-720.15 42.15 -722.05 45.25 -724.0 48.15 -727.3 49.5 L-730.9 50.1 M-538.35 -54.1 Q-543.9 -57.35 -548.7 -63.05 -562.65 -79.3 -562.65 -106.75 -562.65 -115.5 -560.9 -126.25 -542.9 -136.9 -518.95 -136.9 -505.25 -136.9 -491.9 -132.95 -478.0 -128.35 -472.55 -125.65 L-472.0 -118.55 Q-471.8 -108.0 -473.55 -97.45 -478.85 -67.4 -499.5 -52.7 -496.55 -49.35 -496.55 -44.7 L-496.55 -15.55 Q-496.55 -11.85 -498.45 -8.75 -500.4 -5.85 -503.7 -4.5 L-507.3 -3.9 M-507.35 -3.75 L-507.35 45.85 -488.05 45.85 -480.3 94.15 -557.6 94.15 -550.65 45.85 -533.25 45.85 -533.25 4.7 -533.25 -4.15 -535.6 -4.9 Q-538.25 -5.95 -539.7 -7.4 -541.15 -8.75 -542.0 -11.1 -542.8 -13.3 -542.8 -15.55 L-543.0 -41.6 -542.9 -45.1 Q-542.9 -49.5 -539.45 -53.2 L-538.35 -54.1 M-225.5 -152.15 Q-211.6 -147.55 -206.15 -144.85 L-205.6 -137.75 Q-205.4 -127.2 -207.15 -116.65 -212.45 -86.6 -233.1 -71.9 -230.15 -68.55 -230.15 -63.9 L-230.15 -34.75 Q-230.15 -31.05 -232.05 -27.95 -234.0 -25.05 -237.3 -23.7 L-240.9 -23.1 M-240.95 -22.95 L-240.95 26.65 -221.65 26.65 -213.9 74.95 -291.2 74.95 -284.25 26.65 -266.85 26.65 -266.85 -14.5 -266.85 -23.35 -269.2 -24.1 Q-271.85 -25.15 -273.3 -26.6 -274.75 -27.95 -275.6 -30.3 -276.4 -32.5 -276.4 -34.75 L-276.6 -60.8 -276.5 -64.3 Q-276.5 -68.7 -273.05 -72.4 L-271.95 -73.3 Q-277.5 -76.55 -282.3 -82.25 -296.25 -98.5 -296.25 -125.95 -296.25 -134.7 -294.5 -145.45 -276.5 -156.1 -252.55 -156.1 -238.85 -156.1 -225.5 -152.15" fill="none" stroke="#2a2a2a" stroke-linecap="round" stroke-linejoin="miter-clip" stroke-miterlimit="10.0" stroke-width="1.0"/>
  </g>
</svg>
