<?xml version="1.0" encoding="UTF-8" standalone="no"?>
<svg xmlns:xlink="http://www.w3.org/1999/xlink" height="29.4px" width="77.65px" xmlns="http://www.w3.org/2000/svg">
  <g transform="matrix(1.0, 0.0, 0.0, 1.0, 38.3, 12.9)">
    <path d="M-21.2 -8.7 Q-13.5 -7.55 -7.45 0.4 -16.35 -0.65 -23.0 1.4 -31.65 4.1 -34.3 11.65 -33.85 10.2 -33.8 8.05 L-33.85 4.25 Q-35.0 6.4 -36.65 8.05 -36.35 6.2 -35.35 3.75 L-33.45 -0.4 -35.6 1.2 Q-35.35 -0.2 -34.05 -1.7 L-31.6 -4.0 -34.2 -3.6 -36.9 -3.15 Q-29.3 -9.9 -21.2 -8.7" fill="#ffffff" fill-opacity="0.0" fill-rule="evenodd" stroke="none"/>
    <path d="M-21.2 -8.7 Q-13.5 -7.55 -7.45 0.4 -16.35 -0.65 -23.0 1.4 -31.65 4.1 -34.3 11.65 -33.85 10.2 -33.8 8.05 L-33.85 4.25 Q-35.0 6.4 -36.65 8.05 -36.35 6.2 -35.35 3.75 L-33.45 -0.4 -35.6 1.2 Q-35.35 -0.2 -34.05 -1.7 L-31.6 -4.0 -34.2 -3.6 -36.9 -3.15 Q-29.3 -9.9 -21.2 -8.7 Z" fill="none" stroke="#000000" stroke-linecap="butt" stroke-linejoin="miter-clip" stroke-miterlimit="10.0" stroke-width="1.0"/>
    <path d="M34.5 1.45 Q35.25 3.4 36.1 4.6 31.35 -1.55 23.05 -1.3 16.65 -1.15 9.45 2.6 11.95 -6.55 18.15 -9.95 24.65 -13.55 33.4 -9.75 L30.95 -9.35 28.6 -8.9 31.45 -7.55 Q33.05 -6.6 33.75 -5.35 L31.35 -6.2 34.35 -2.95 36.9 0.6 Q34.9 -0.5 33.25 -2.05 L34.5 1.45" fill="#ffffff" fill-opacity="0.0" fill-rule="evenodd" stroke="none"/>
    <path d="M34.5 1.45 L33.25 -2.05 Q34.9 -0.5 36.9 0.6 L34.35 -2.95 31.35 -6.2 33.75 -5.35 Q33.05 -6.6 31.45 -7.55 L28.6 -8.9 30.95 -9.35 33.4 -9.75 Q24.65 -13.55 18.15 -9.95 11.95 -6.55 9.45 2.6 16.65 -1.15 23.05 -1.3 31.35 -1.55 36.1 4.6 35.25 3.4 34.5 1.45 Z" fill="none" stroke="#000000" stroke-linecap="butt" stroke-linejoin="miter-clip" stroke-miterlimit="10.0" stroke-width="1.0"/>
  </g>
</svg>
