<?xml version="1.0" encoding="UTF-8" standalone="no"?>
<svg xmlns:xlink="http://www.w3.org/1999/xlink" height="344.3px" width="424.45px" xmlns="http://www.w3.org/2000/svg">
  <g transform="matrix(1.0, 0.0, 0.0, 1.0, 212.2, 141.25)">
    <path d="M118.2 -136.9 L116.8 -136.75 108.45 -135.5 89.55 -131.35 Q85.6 -130.5 85.7 -129.65 85.75 -128.8 89.8 -128.5 L128.7 -125.45 Q132.8 -125.15 138.45 -125.6 144.25 -126.0 148.15 -126.95 L174.5 -132.8 Q178.55 -133.65 178.45 -134.45 178.35 -135.2 174.3 -135.35 L128.0 -137.2 125.6 -137.2 118.2 -136.9 M83.75 -134.85 L90.1 -134.45 Q97.8 -134.65 99.35 -136.2 L99.5 -136.2 99.5 -138.55 108.65 -140.75 211.75 -137.15 -49.35 -50.7 -211.7 -64.7 -123.3 -85.65 -123.35 -73.65 -46.55 -65.4 60.25 -98.6 60.2 -103.4 Q62.65 -103.55 69.95 -105.2 L84.55 -108.7 94.55 -111.25 106.7 -114.4 125.6 -119.45 125.7 -119.5 Q129.7 -120.3 129.65 -121.05 129.65 -121.85 125.6 -122.05 L79.25 -125.15 Q75.45 -125.4 70.1 -125.05 L70.1 -125.1 66.65 -124.8 64.1 -124.55 60.05 -123.95 60.05 -124.7 Q62.45 -125.15 63.15 -125.85 L63.35 -125.85 63.35 -130.0 83.75 -134.85" fill="#b9b9ba" fill-opacity="0.2" fill-rule="evenodd" stroke="none"/>
    <path d="M211.75 -137.15 L211.75 -55.35 38.4 122.4 -49.35 202.55 -49.35 -50.7 211.75 -137.15 M143.35 -110.4 L183.6 -123.95 183.55 -123.7 183.55 -32.8 Q183.55 -31.95 185.1 -31.95 186.65 -31.95 186.65 -32.8 L186.65 -123.7 Q186.65 -124.45 185.4 -124.55 L211.3 -133.25 210.5 -135.9 -48.8 -49.7 -46.25 -46.85 140.7 -109.55 140.7 9.4 Q140.7 9.85 141.15 10.25 L142.25 10.55 Q143.75 10.55 143.75 9.4 L143.75 -109.55 Q143.75 -110.15 143.35 -110.4 M64.7 -81.65 Q64.2 -81.2 64.2 -80.6 L64.2 81.6 Q64.2 82.25 64.7 82.7 65.15 83.15 65.75 83.15 66.45 83.15 66.9 82.7 67.3 82.25 67.3 81.6 L67.3 -80.6 Q67.3 -82.15 65.75 -82.15 65.15 -82.15 64.7 -81.65 M58.05 -75.8 L58.05 -76.75 -38.5 -41.2 -39.2 170.15 -37.9 169.1 -37.9 169.35 -35.05 166.7 18.25 122.4 58.05 86.25 58.05 -69.8 58.05 -75.8" fill="#ffffff" fill-opacity="0.0" fill-rule="evenodd" stroke="none"/>
    <path d="M-49.35 202.55 L-209.15 171.7 -211.7 -64.7 -49.35 -50.7 -49.35 202.55 M140.7 -109.55 Q140.7 -110.7 142.25 -110.7 L143.35 -110.4 Q143.75 -110.15 143.75 -109.55 L143.75 9.4 Q143.75 10.55 142.25 10.55 L141.15 10.25 Q140.7 9.85 140.7 9.4 L140.7 -109.55 M183.6 -123.95 Q183.8 -124.55 185.1 -124.55 L185.4 -124.55 Q186.65 -124.45 186.65 -123.7 L186.65 -32.8 Q186.65 -31.95 185.1 -31.95 183.55 -31.95 183.55 -32.8 L183.55 -123.7 183.6 -123.95 M64.7 -81.65 Q65.15 -82.15 65.75 -82.15 67.3 -82.15 67.3 -80.6 L67.3 81.6 Q67.3 82.25 66.9 82.7 66.45 83.15 65.75 83.15 65.15 83.15 64.7 82.7 64.2 82.25 64.2 81.6 L64.2 -80.6 Q64.2 -81.2 64.7 -81.65 M58.05 -76.75 L58.05 -75.8 58.05 -69.8 -32.2 -36.2 -32.9 164.7 -35.05 166.7 -37.9 169.35 -37.9 169.1 -39.2 170.15 -38.5 -41.2 58.05 -76.75" fill="#000000" fill-opacity="0.4" fill-rule="evenodd" stroke="none"/>
    <path d="M143.35 -110.4 L142.25 -110.7 Q140.7 -110.7 140.7 -109.55 L-46.25 -46.85 -48.8 -49.7 210.5 -135.9 211.3 -133.25 185.4 -124.55 185.1 -124.55 Q183.8 -124.55 183.6 -123.95 L143.35 -110.4" fill="#ffffff" fill-opacity="0.4" fill-rule="evenodd" stroke="none"/>
    <path d="M-35.05 166.7 L-32.9 164.7 -32.2 -36.2 58.05 -69.8 58.05 86.25 18.25 122.4 -35.05 166.7" fill="#000000" fill-opacity="0.2" fill-rule="evenodd" stroke="none"/>
    <path d="M99.5 -138.55 L108.65 -140.75 211.75 -137.15 211.75 -55.35 38.4 122.4 -49.35 202.55 -209.15 171.7 -211.7 -64.7 -123.3 -85.65 M63.35 -130.0 L83.75 -134.85 M58.05 -75.8 L58.05 -76.75 M-39.2 170.15 L-37.9 169.1" fill="none" stroke="#000000" stroke-linecap="round" stroke-linejoin="miter-clip" stroke-miterlimit="10.0" stroke-width="1.0"/>
    <path d="M58.05 -76.75 L-38.5 -41.2 -39.2 170.15 M-37.9 169.1 L-37.9 169.35 -35.05 166.7 18.25 122.4 58.05 86.25 58.05 -69.8 58.05 -75.8 M-211.7 -64.7 L-49.35 -50.7 211.75 -137.15 M-49.35 -50.7 L-49.35 202.55" fill="none" stroke="#000000" stroke-linecap="round" stroke-linejoin="miter-clip" stroke-miterlimit="10.0" stroke-opacity="0.6" stroke-width="1.0"/>
  </g>
</svg>
