<?xml version="1.0" encoding="UTF-8" standalone="no"?>
<svg xmlns:xlink="http://www.w3.org/1999/xlink" height="205.1px" width="115.4px" xmlns="http://www.w3.org/2000/svg">
  <g transform="matrix(1.0, 0.0, 0.0, 1.0, 57.7, 102.55)">
    <path d="M38.7 20.45 L38.7 17.65 23.2 17.65 23.2 20.45 38.7 20.45 M35.8 -41.0 L35.8 -38.25 50.95 -38.25 50.95 -41.0 35.8 -41.0 M42.75 -65.35 L42.75 -68.0 27.65 -68.0 27.65 -65.35 42.75 -65.35 M43.95 -86.3 L43.95 -89.65 22.9 -89.65 22.9 -86.3 43.95 -86.3 M57.2 102.05 L-57.2 102.05 -57.2 -102.05 57.2 -102.05 57.2 102.05 M-46.25 49.6 L-35.1 49.6 -35.1 46.85 -46.25 46.85 -46.25 49.6 M-34.3 26.3 L-34.3 22.9 -50.05 22.9 -50.05 26.3 -34.3 26.3 M-34.3 -51.25 L-50.05 -51.25 -50.05 -47.8 -34.3 -47.8 -34.3 -51.25 M-22.6 -83.1 L-22.6 -87.0 -47.1 -87.0 -47.1 -83.1 -22.6 -83.1" fill="#ffffff" fill-opacity="0.0" fill-rule="evenodd" stroke="none"/>
    <path d="M43.95 -86.3 L22.9 -86.3 22.9 -89.65 43.95 -89.65 43.95 -86.3 M42.75 -65.35 L27.65 -65.35 27.65 -68.0 42.75 -68.0 42.75 -65.35 M35.8 -41.0 L50.95 -41.0 50.95 -38.25 35.8 -38.25 35.8 -41.0 M38.7 20.45 L23.2 20.45 23.2 17.65 38.7 17.65 38.7 20.45 M-22.6 -83.1 L-47.1 -83.1 -47.1 -87.0 -22.6 -87.0 -22.6 -83.1 M-34.3 -51.25 L-34.3 -47.8 -50.05 -47.8 -50.05 -51.25 -34.3 -51.25 M-34.3 26.3 L-50.05 26.3 -50.05 22.9 -34.3 22.9 -34.3 26.3 M-46.25 49.6 L-46.25 46.85 -35.1 46.85 -35.1 49.6 -46.25 49.6" fill="#000000" fill-opacity="0.3019608" fill-rule="evenodd" stroke="none"/>
    <path d="M57.2 102.05 L-57.2 102.05 -57.2 -102.05 57.2 -102.05 57.2 102.05 Z" fill="none" stroke="#000000" stroke-linecap="round" stroke-linejoin="miter-clip" stroke-miterlimit="4.0" stroke-width="1.0"/>
  </g>
</svg>
