<?xml version="1.0" encoding="UTF-8" standalone="no"?>
<svg xmlns:xlink="http://www.w3.org/1999/xlink" height="288.5px" width="278.35px" xmlns="http://www.w3.org/2000/svg">
  <g transform="matrix(1.0, 0.0, 0.0, 1.0, 0.5, -14.85)">
    <path d="M267.7 65.25 Q274.55 115.2 275.05 139.0 275.85 177.05 277.35 288.55 L15.5 302.85 Q16.3 275.5 16.5 243.35 16.95 179.1 14.05 155.3 10.05 122.45 5.05 77.15 -0.45 27.5 0.05 26.95 L44.7 24.15 128.35 17.25 Q160.9 13.85 214.15 16.6 L260.95 20.0 Q264.3 40.25 267.7 65.25" fill="#ffffff" fill-opacity="0.0" fill-rule="evenodd" stroke="none"/>
    <path d="M267.7 65.25 Q274.55 115.2 275.05 139.0 275.85 177.05 277.35 288.55 L15.5 302.85 Q16.3 275.5 16.5 243.35 16.95 179.1 14.05 155.3 10.05 122.45 5.05 77.15 -0.45 27.5 0.05 26.95 L44.7 24.15 128.35 17.25 Q160.9 13.85 214.15 16.6 L260.95 20.0 Q264.3 40.25 267.7 65.25 Z" fill="none" stroke="#000000" stroke-linecap="round" stroke-linejoin="round" stroke-opacity="0.6" stroke-width="1.0"/>
  </g>
</svg>
