<?xml version="1.0" encoding="UTF-8" standalone="no"?>
<svg xmlns:xlink="http://www.w3.org/1999/xlink" height="216.25px" width="699.2px" xmlns="http://www.w3.org/2000/svg">
  <g transform="matrix(1.0, 0.0, 0.0, 1.0, 349.6, 108.1)">
    <path d="M329.9 -90.95 L335.05 87.15 301.7 87.15 292.75 87.15 273.55 87.15 273.55 -90.95 329.9 -90.95 M283.8 -80.05 L283.8 76.15 323.5 76.15 320.15 -80.05 283.8 -80.05 M-273.5 87.15 L-292.7 87.15 -301.7 87.15 -335.0 87.15 -329.9 -90.95 -273.5 -90.95 -273.5 87.15 M-283.75 -80.05 L-320.25 -80.05 -323.45 76.15 -283.75 76.15 -283.75 -80.05" fill="#ffffff" fill-opacity="0.0" fill-rule="evenodd" stroke="none"/>
    <path d="M283.8 -80.05 L320.15 -80.05 323.5 76.15 283.8 76.15 283.8 -80.05 M-283.75 -80.05 L-283.75 76.15 -323.45 76.15 -320.25 -80.05 -283.75 -80.05" fill="#000000" fill-opacity="0.14901961" fill-rule="evenodd" stroke="none"/>
    <path d="M292.75 -98.0 L301.7 -98.0 322.85 -98.0 329.9 -90.95 273.55 -90.95 273.55 87.15 266.5 80.1 266.5 -98.0 292.75 -98.0 M301.7 94.85 L349.1 94.85 349.1 107.65 260.7 107.65 260.7 94.85 292.75 94.85 301.7 94.85 M-292.7 -98.0 L-266.45 -98.0 -266.45 80.1 -273.5 87.15 -273.5 -90.95 -329.9 -90.95 -322.85 -98.0 -301.7 -98.0 -292.7 -98.0 M-292.7 94.85 L-260.7 94.85 -260.7 107.65 -349.1 107.65 -349.1 94.85 -301.7 94.85 -292.7 94.85" fill="#000000" fill-opacity="0.3019608" fill-rule="evenodd" stroke="none"/>
    <path d="M292.75 -98.0 L292.75 -107.6 301.7 -107.6 301.7 -98.0 292.75 -98.0 M301.7 87.15 L301.7 94.85 292.75 94.85 292.75 87.15 301.7 87.15 M-301.7 -98.0 L-301.7 -107.6 -292.7 -107.6 -292.7 -98.0 -301.7 -98.0 M-292.7 87.15 L-292.7 94.85 -301.7 94.85 -301.7 87.15 -292.7 87.15" fill="#000000" fill-opacity="0.54901963" fill-rule="evenodd" stroke="none"/>
    <path d="M301.7 -98.0 L301.7 -107.6 292.75 -107.6 292.75 -98.0 266.5 -98.0 266.5 80.1 273.55 87.15 292.75 87.15 292.75 94.85 260.7 94.85 260.7 107.65 349.1 107.65 349.1 94.85 301.7 94.85 301.7 87.15 335.05 87.15 329.9 -90.95 322.85 -98.0 301.7 -98.0 M-301.7 -98.0 L-301.7 -107.6 -292.7 -107.6 -292.7 -98.0 -266.45 -98.0 -266.45 80.1 -273.5 87.15 -292.7 87.15 -292.7 94.85 -260.7 94.85 -260.7 107.65 -349.1 107.65 -349.1 94.85 -301.7 94.85 -301.7 87.15 -335.0 87.15 -329.9 -90.95 -322.85 -98.0 -301.7 -98.0" fill="none" stroke="#000000" stroke-linecap="round" stroke-linejoin="miter-clip" stroke-miterlimit="4.0" stroke-width="1.0"/>
    <path d="M292.75 -98.0 L301.7 -98.0 M273.55 87.15 L273.55 -90.95 329.9 -90.95 M301.7 94.85 L292.75 94.85 M301.7 87.15 L292.75 87.15 M-301.7 -98.0 L-292.7 -98.0 M-329.9 -90.95 L-273.5 -90.95 -273.5 87.15 M-292.7 87.15 L-301.7 87.15 M-301.7 94.85 L-292.7 94.85" fill="none" stroke="#000000" stroke-linecap="round" stroke-linejoin="miter-clip" stroke-miterlimit="4.0" stroke-opacity="0.6" stroke-width="1.0"/>
  </g>
</svg>
