<?xml version="1.0" encoding="UTF-8" standalone="no"?>
<svg xmlns:xlink="http://www.w3.org/1999/xlink" height="102.55px" width="86.35px" xmlns="http://www.w3.org/2000/svg">
  <g transform="matrix(1.0, 0.0, 0.0, 1.0, 43.15, 51.3)">
    <path d="M38.45 -33.9 Q38.45 -44.65 40.05 -48.8 L41.65 -50.8 42.7 -48.4 42.7 50.75 38.45 47.95 38.45 -33.9 M-38.45 -33.9 L-38.45 47.95 -42.65 50.75 -42.65 -48.4 -41.65 -50.8 -40.05 -48.8 Q-38.45 -44.65 -38.45 -33.9" fill="#ffffff" fill-opacity="0.0" fill-rule="evenodd" stroke="none"/>
    <path d="M38.45 -33.9 L38.45 47.95 42.7 50.75 42.7 -48.4 41.65 -50.8 40.05 -48.8 Q38.45 -44.65 38.45 -33.9 M-38.45 -33.9 L-38.45 47.95 -42.65 50.75 -42.65 -48.4 -41.65 -50.8 -40.05 -48.8 Q-38.45 -44.65 -38.45 -33.9" fill="none" stroke="#000000" stroke-linecap="round" stroke-linejoin="round" stroke-opacity="0.6" stroke-width="1.0"/>
  </g>
</svg>
