<?xml version="1.0" encoding="UTF-8" standalone="no"?>
<svg xmlns:xlink="http://www.w3.org/1999/xlink" height="649.7px" width="383.0px" xmlns="http://www.w3.org/2000/svg">
  <g transform="matrix(1.0, 0.0, 0.0, 1.0, -464.5, 466.0)">
    <path d="M836.3 -123.0 L694.7 -192.0 M694.7 -232.2 L843.5 -315.0 M673.1 -264.0 L720.5 -462.0 M498.5 -108.0 L626.9 -191.4 M468.5 -327.0 L626.3 -232.8 M594.5 -462.0 L647.3 -263.4 M742.7 28.2 L678.5 -165.6" fill="none" stroke="#000000" stroke-linecap="butt" stroke-linejoin="round" stroke-width="8.0"/>
    <path d="M837.5 -117.0 L836.3 -123.0 Z" fill="none" stroke="#000000" stroke-linecap="round" stroke-linejoin="round" stroke-width="1.0"/>
    <path d="M603.75 183.2 Q553.0 145.9 559.95 63.45 L628.45 -186.4 626.05 -192.4 Q623.05 -202.0 623.05 -214.0 623.05 -224.8 625.45 -233.8 628.45 -244.0 633.85 -252.4 639.25 -260.8 646.45 -264.4 652.45 -268.0 659.65 -268.0 666.25 -268.0 672.25 -265.0 679.45 -261.4 685.45 -252.4 691.45 -243.4 693.85 -233.2 696.25 -224.2 696.25 -214.0 696.25 -202.6 693.85 -193.0 690.85 -184.0 685.45 -176.2 681.85 -170.2 677.65 -166.6 672.25 -162.4 666.85 -160.6 L618.85 128.0 614.3 144.6 606.45 173.55 605.8 175.95 605.3 177.75 605.2 178.1 604.9 179.1 603.75 183.2" fill="#ffffff" fill-opacity="0.0" fill-rule="evenodd" stroke="none"/>
    <path d="M603.75 183.2 Q553.0 145.9 559.95 63.45 L628.45 -186.4 626.05 -192.4 Q623.05 -202.0 623.05 -214.0 623.05 -224.8 625.45 -233.8 628.45 -244.0 633.85 -252.4 639.25 -260.8 646.45 -264.4 652.45 -268.0 659.65 -268.0 666.25 -268.0 672.25 -265.0 679.45 -261.4 685.45 -252.4 691.45 -243.4 693.85 -233.2 696.25 -224.2 696.25 -214.0 696.25 -202.6 693.85 -193.0 690.85 -184.0 685.45 -176.2 681.85 -170.2 677.65 -166.6 672.25 -162.4 666.85 -160.6 L618.85 128.0 614.3 144.6 606.45 173.55 605.8 175.95 605.3 177.75 605.2 178.1 604.9 179.1 603.75 183.2 605.8 177.6" fill="none" stroke="#000000" stroke-linecap="round" stroke-linejoin="round" stroke-width="1.0"/>
  </g>
</svg>
