<?xml version="1.0" encoding="UTF-8" standalone="no"?>
<svg xmlns:xlink="http://www.w3.org/1999/xlink" height="2341.0px" width="1915.0px" xmlns="http://www.w3.org/2000/svg">
  <g transform="matrix(1.0, 0.0, 0.0, 1.0, 973.0, 1170.5)">
    <path d="M93.7 255.6 L352.9 742.8 379.3 672.6 539.5 978.0 521.5 1059.0 407.5 1170.0 384.7 1120.8 352.9 1051.8 329.5 1000.8 297.1 931.2 268.9 870.0 244.9 817.8 219.1 762.0 193.9 706.8 163.9 642.0 140.5 592.8 115.3 537.6 93.7 491.4 66.1 431.4 38.5 372.0 93.7 255.6 M141.1 -184.8 L654.7 -872.4 591.1 -930.0 761.5 -1170.0 845.5 -1128.0 941.5 -972.0 263.5 -39.0 141.1 -184.8 M-406.1 -664.2 L-494.3 -622.8 -621.5 -825.0 -432.5 -1035.0 71.5 -291.0 -86.9 -178.8 -406.1 -664.2 M-753.5 844.2 L-691.1 876.0 -719.9 912.0 -748.1 948.0 -772.1 978.6 -800.3 1014.0 -830.3 1051.8 -855.5 1083.0 -915.5 1044.0 -972.5 897.0 -234.5 105.0 -209.9 174.6 -753.5 844.2" fill="#ffffff" fill-opacity="0.0" fill-rule="evenodd" stroke="none"/>
    <path d="M141.1 -184.8 L263.5 -39.0 941.5 -972.0 845.5 -1128.0 761.5 -1170.0 591.1 -930.0 654.7 -872.4 141.1 -184.8 M93.7 255.6 L38.5 372.0 66.1 431.4 93.7 491.4 115.3 537.6 140.5 592.8 163.9 642.0 193.9 706.8 219.1 762.0 244.9 817.8 268.9 870.0 297.1 931.2 329.5 1000.8 352.9 1051.8 384.7 1120.8 407.5 1170.0 521.5 1059.0 539.5 978.0 379.3 672.6 352.9 742.8 93.7 255.6 M-406.1 -664.2 L-494.3 -622.8 -621.5 -825.0 -432.5 -1035.0 71.5 -291.0 -86.9 -178.8 -406.1 -664.2 M-753.5 844.2 L-691.1 876.0 -719.9 912.0 -748.1 948.0 -772.1 978.6 -800.3 1014.0 -830.3 1051.8 -855.5 1083.0 -915.5 1044.0 -972.5 897.0 -234.5 105.0 -209.9 174.6 -753.5 844.2" fill="none" stroke="#000000" stroke-linecap="round" stroke-linejoin="round" stroke-width="1.0"/>
    <path d="M753.1 -713.4 L629.5 -838.8 606.7 -808.8 733.3 -685.2 M885.1 -894.0 L765.7 -1020.6 742.9 -990.6 861.1 -861.6 M913.3 -933.0 L805.3 -1074.0 765.7 -1020.6 698.5 -1080.6 M805.3 -1074.0 L736.3 -1134.0 M650.5 -1013.4 L715.9 -954.6 742.9 -990.6 675.1 -1047.6 M834.1 -823.8 L715.9 -954.6 687.1 -916.2 805.9 -785.4 M687.1 -916.2 L654.7 -872.4 780.7 -751.2 M845.5 -1128.0 L805.3 -1074.0 M687.1 -916.2 L620.5 -970.8 M654.7 -872.4 L629.5 -838.8 M679.3 -611.4 L554.5 -738.0 526.9 -700.8 649.9 -570.0 M526.9 -700.8 L497.5 -661.8 624.7 -535.2 M708.1 -651.0 L581.5 -774.6 554.5 -738.0 M573.1 -465.0 L444.7 -591.0 418.9 -556.2 546.7 -427.8 M495.7 -358.8 L369.7 -490.2 342.7 -454.2 470.5 -323.4 M522.1 -394.2 L396.7 -526.8 369.7 -490.2 M418.9 -556.2 L396.7 -526.8 M497.5 -661.8 L474.1 -630.6 595.9 -495.6 M474.1 -630.6 L444.7 -591.0 M417.7 -251.4 L291.1 -385.2 267.1 -352.8 395.5 -220.2 M346.9 -153.0 L216.1 -285.0 187.3 -246.6 317.5 -112.8 M267.1 -352.8 L241.3 -318.6 370.3 -186.0 M241.3 -318.6 L216.1 -285.0 M187.3 -246.6 L161.5 -211.8 286.9 -71.4 M161.5 -211.8 L141.1 -184.8 M342.7 -454.2 L319.3 -423.0 445.9 -289.8 M319.3 -423.0 L291.1 -385.2 M93.7 491.4 L154.9 370.8 124.3 313.2 66.1 431.4 M124.3 313.2 L93.7 255.6 M140.5 592.8 L208.9 472.2 181.3 420.0 115.3 537.6 M193.9 706.8 L267.7 583.2 237.1 525.6 163.9 642.0 M237.1 525.6 L208.9 472.2 M219.1 762.0 L296.5 637.2 267.7 583.2 M268.9 870.0 L352.9 742.8 325.3 691.2 244.9 817.8 M181.3 420.0 L154.9 370.8 M325.3 691.2 L296.5 637.2 M606.7 -808.8 L581.5 -774.6 M-558.5 -897.0 L-518.9 -836.4 -387.5 -968.4 M-152.3 -621.6 L-302.3 -506.4 -262.1 -445.2 -109.7 -559.2 M-342.5 -902.4 L-478.7 -775.2 -441.5 -718.2 -296.3 -834.6 M-264.5 -787.2 L-406.1 -664.2 -371.3 -611.4 -227.3 -732.6 M-441.5 -718.2 L-406.1 -664.2 M-371.3 -611.4 L-336.5 -558.0 -186.5 -672.6 M-478.7 -775.2 L-552.5 -714.6 M-441.5 -718.2 L-521.3 -665.4 M-1.7 -399.6 L-156.5 -284.4 -121.7 -231.6 34.9 -345.6 M-73.1 -504.6 L-226.1 -390.6 -193.1 -340.2 -36.5 -450.6 M-193.1 -340.2 L-156.5 -284.4 M-121.7 -231.6 L-86.9 -178.8 M-336.5 -558.0 L-302.3 -506.4 M-262.1 -445.2 L-226.1 -390.6 M-209.9 174.6 L-243.5 216.6 -277.7 258.0 -304.7 291.6 -331.7 324.6 -359.9 360.0 -386.3 393.0 -410.9 422.4 -437.9 455.4 -467.3 492.0 -494.3 525.0 -519.5 556.2 -547.7 591.0 -575.9 625.8 -600.5 656.4 -624.5 685.8 -652.7 720.6 -681.5 756.0 -701.9 781.2 -730.7 816.6 -753.5 844.2 -779.9 876.6 -719.9 912.0 M-652.7 720.6 L-698.9 603.6 M-724.7 631.2 L-681.5 756.0 M-758.3 667.2 L-701.9 781.2 M-243.5 216.6 L-275.3 148.8 M-277.7 258.0 L-316.1 192.6 M-331.7 324.6 L-373.1 254.4 M-359.9 360.0 L-399.5 282.6 M-386.3 393.0 L-427.1 312.0 M-494.3 525.0 L-534.5 427.2 M-519.5 556.2 L-561.5 456.6 M-547.7 591.0 L-590.3 487.2 M-467.3 492.0 L-512.3 403.8 M-575.9 625.8 L-617.9 516.6 M-600.5 656.4 L-642.5 543.0 M-304.7 291.6 L-343.1 222.0 M-410.9 422.4 L-457.7 345.0 M-437.9 455.4 L-482.3 370.8 M-624.5 685.8 L-671.9 574.8 M-478.7 -775.2 L-518.9 -836.4 -586.7 -769.8 M-779.9 876.6 L-807.5 910.8 -748.1 948.0 M-772.1 978.6 L-832.7 942.0 -860.3 976.2 -800.3 1014.0 M-920.3 841.2 L-860.3 976.2 -889.7 1012.2 -830.3 1051.8 M-892.7 811.8 L-832.7 942.0 -807.5 910.8 -863.3 780.6 M-889.7 1012.2 L-915.5 1044.0 M-952.1 875.4 L-889.7 1012.2 M384.7 1120.8 L482.5 985.8 448.9 922.8 352.9 1051.8 M435.7 780.0 L420.1 868.2 448.9 922.8 464.5 835.2 M329.5 1000.8 L420.1 868.2 385.3 803.4 297.1 931.2 M482.5 985.8 L495.1 893.4 M521.5 1059.0 L482.5 985.8 M-836.3 751.2 L-779.9 876.6 M-778.7 689.4 L-730.7 816.6 M-811.7 724.8 L-753.5 844.2 M352.9 742.8 L385.3 803.4 406.3 724.2" fill="none" stroke="#000000" stroke-linecap="round" stroke-linejoin="round" stroke-opacity="0.4" stroke-width="1.0"/>
  </g>
</svg>
