<?xml version="1.0" encoding="UTF-8" standalone="no"?>
<svg xmlns:xlink="http://www.w3.org/1999/xlink" height="82.2px" width="91.1px" xmlns="http://www.w3.org/2000/svg">
  <g transform="matrix(1.0, 0.0, 0.0, 1.0, 18.25, 14.25)">
    <path d="M3.9 -2.0 L6.15 -6.15 4.9 -3.75 3.9 -2.0" fill="#9ea1a4" fill-rule="evenodd" stroke="none"/>
    <path d="M-6.65 10.75 L-5.35 9.7 -5.3 9.65 -4.95 9.35 Q-0.55 5.6 3.9 -2.0 L4.9 -3.75 68.6 50.8 Q71.8 53.55 72.25 57.55 72.75 61.5 70.25 64.45 L69.0 65.7 67.4 66.6 Q64.1 61.9 52.15 51.85 L40.9 42.8 60.1 56.3 20.5 21.85 47.7 41.65 4.95 6.15 Q1.15 11.6 -2.7 14.1 L-3.3 13.6 -6.65 10.75" fill="#000000" fill-opacity="0.2509804" fill-rule="evenodd" stroke="none"/>
    <path d="M3.9 -2.0 Q1.05 -3.35 -2.25 -3.85 L-4.95 -4.05 Q-7.8 0.65 -13.15 5.2 L-15.25 6.85 -15.4 6.75 -15.95 6.25 -17.55 4.9 Q-9.6 -3.55 -2.45 -13.55 L6.15 -6.15 3.9 -2.0" fill="#ffffff" fill-opacity="0.2" fill-rule="evenodd" stroke="none"/>
    <path d="M-2.7 14.1 Q1.15 11.6 4.95 6.15 L47.7 41.65 20.5 21.85 60.1 56.3 40.9 42.8 52.15 51.85 Q64.1 61.9 67.4 66.6 L69.0 65.7 Q66.8 67.35 63.75 67.45 59.75 67.6 56.55 64.9 L-2.7 14.1" fill="#ffffff" fill-opacity="0.0" fill-rule="evenodd" stroke="none"/>
    <path d="M-15.25 6.85 L-13.15 5.2 Q-7.8 0.65 -4.95 -4.05 L-2.25 -3.85 Q1.05 -3.35 3.9 -2.0 -0.55 5.6 -4.95 9.35 L-5.3 9.65 -5.35 9.7 -6.65 10.75 Q-8.25 11.8 -9.35 11.95 L-14.5 7.55 -15.25 6.85" fill="#ffffff" fill-opacity="0.34901962" fill-rule="evenodd" stroke="none"/>
    <path d="M-2.7 14.1 L-2.75 14.1 -3.3 13.6 -2.7 14.1" fill="#717275" fill-rule="evenodd" stroke="none"/>
    <path d="M3.9 -2.0 L6.15 -6.15 -2.45 -13.55 Q-9.6 -3.55 -17.55 4.9 L-15.95 6.25 -15.4 6.75 M-15.25 6.85 L-14.5 7.55 -9.35 11.95 Q-8.25 11.8 -6.65 10.75 L-5.35 9.7 -5.3 9.65 -4.95 9.35 Q-0.55 5.6 3.9 -2.0 M69.0 65.7 L70.25 64.45 Q72.75 61.5 72.25 57.55 71.8 53.55 68.6 50.8 L4.9 -3.75 M-2.7 14.1 L56.55 64.9 Q59.75 67.6 63.75 67.45 66.8 67.35 69.0 65.7 M-14.5 7.55 L-15.95 6.25 M-2.7 14.1 L-3.3 13.6 -6.65 10.75" fill="none" stroke="#000000" stroke-linecap="round" stroke-linejoin="miter-clip" stroke-miterlimit="4.0" stroke-width="1.0"/>
  </g>
</svg>
