<?xml version="1.0" encoding="UTF-8" standalone="no"?>
<svg xmlns:xlink="http://www.w3.org/1999/xlink" height="12.3px" width="270.75px" xmlns="http://www.w3.org/2000/svg">
  <g transform="matrix(1.0, 0.0, 0.0, 1.0, 145.6, 6.55)">
    <path d="M-144.95 2.2 L123.9 3.4 123.7 3.7 123.3 4.05 Q122.05 5.05 118.9 5.25 L-145.1 5.25 -144.95 2.2" fill="#000000" fill-opacity="0.34901962" fill-rule="evenodd" stroke="none"/>
    <path d="M-144.95 2.2 L-144.6 -5.3 118.95 -4.85 119.3 -4.95 119.9 -4.85 Q122.05 -4.45 123.05 -3.75 L123.45 -3.4 124.0 -2.4 124.4 -0.55 Q124.6 0.95 124.25 2.5 L124.2 2.7 124.0 3.2 123.9 3.4 -144.95 2.2 M118.55 -1.95 L118.9 -2.2 Q119.55 -2.7 120.55 -3.0 122.45 -2.2 123.5 -1.4 L124.4 -0.55 123.5 -1.4 Q122.45 -2.2 120.55 -3.0 119.55 -2.7 118.9 -2.2 L118.55 -1.95 M121.2 -0.7 Q119.75 -0.5 121.45 0.35 123.05 1.1 120.3 1.45 L119.4 1.3 118.7 1.05 119.4 1.3 120.3 1.45 Q123.05 1.1 121.45 0.35 119.75 -0.5 121.2 -0.7" fill="#ffffff" fill-opacity="0.0" fill-rule="evenodd" stroke="none"/>
    <path d="M124.4 -0.55 L124.0 -2.4 123.45 -3.4 123.05 -3.75 Q122.05 -4.45 119.9 -4.85 L119.3 -4.95 118.95 -4.85 -144.6 -5.3 -144.95 2.2 -145.1 5.25 118.9 5.25 Q122.05 5.05 123.3 4.05 L123.7 3.7 123.9 3.4 124.0 3.2 124.2 2.7 124.25 2.5 Q124.6 0.95 124.4 -0.55 L123.5 -1.4 Q122.45 -2.2 120.55 -3.0 119.55 -2.7 118.9 -2.2 L118.55 -1.95 M118.7 1.05 L119.4 1.3 120.3 1.45 Q123.05 1.1 121.45 0.35 119.75 -0.5 121.2 -0.7" fill="none" stroke="#000000" stroke-linecap="round" stroke-linejoin="miter-clip" stroke-miterlimit="4.0" stroke-width="1.0"/>
  </g>
</svg>
