<?xml version="1.0" encoding="UTF-8" standalone="no"?>
<svg xmlns:xlink="http://www.w3.org/1999/xlink" height="165.05px" width="100.0px" xmlns="http://www.w3.org/2000/svg">
  <g transform="matrix(1.0, 0.0, 0.0, 1.0, 50.0, 82.55)">
    <path d="M34.0 -42.75 L32.8 -41.35 Q16.8 -45.35 9.5 -48.65 9.0 -55.3 8.65 -62.85 8.0 -77.85 8.8 -82.0 L17.5 -80.65 18.15 -73.35 20.15 -78.65 22.8 -78.0 20.15 -61.35 26.15 -77.35 28.8 -76.65 22.15 -54.0 32.15 -76.0 34.8 -75.35 25.5 -48.65 40.7 -75.15 34.15 -52.0 44.15 -72.65 49.5 -69.35 32.5 -45.5 36.0 -61.5 28.0 -47.0 Q28.0 -44.45 34.0 -42.75 M15.0 -67.5 L13.0 -54.0 11.0 -72.5 10.5 -50.5 21.85 -47.25 19.0 -67.5 16.0 -52.0 15.0 -67.5 M15.25 -44.5 L3.5 -44.5 -9.35 -24.25 Q-22.6 -2.5 -24.5 5.0 -1.0 -33.5 2.5 -38.5 L-10.5 -10.5 6.0 -38.5 -1.5 -17.35 Q-9.5 5.9 -12.0 16.5 L8.5 -37.5 -6.0 18.5 11.0 -35.5 14.0 -35.5 -2.0 29.0 7.3 -1.5 Q16.7 -32.5 17.0 -35.0 L20.0 -33.5 16.05 -11.85 Q11.6 12.15 9.15 23.95 20.2 -18.85 21.0 -25.0 L19.7 -12.25 Q17.3 6.0 12.0 33.5 L18.05 14.15 Q24.95 -9.35 29.0 -30.0 L27.55 -20.35 Q25.6 -8.1 22.95 4.9 14.4 46.5 1.95 80.15 L0.5 79.5 Q1.95 75.7 11.45 40.75 L12.5 37.0 11.45 40.75 Q7.25 54.5 -1.5 79.0 L-7.0 76.0 1.4 46.95 1.5 46.5 1.4 46.95 Q-0.4 52.45 -10.5 75.5 L-14.0 74.0 Q-11.5 68.4 -4.5 45.4 L0.05 30.1 Q-2.95 39.3 -9.0 54.3 -13.25 64.9 -17.0 73.5 L-22.5 70.5 -18.0 51.0 -25.5 70.0 -28.0 69.0 -15.5 32.0 -30.5 68.5 Q-29.55 57.9 -20.95 25.4 L-12.5 -5.0 Q-20.3 9.05 -27.95 40.2 -31.75 55.75 -34.0 68.5 L-36.5 67.5 -29.5 23.5 -28.5 11.0 Q-33.2 21.65 -39.55 44.15 L-45.0 64.5 -44.9 64.65 -49.5 63.5 Q-43.25 23.5 -19.25 -14.5 -11.75 -26.35 -3.35 -36.6 L3.5 -44.5 Q7.2 -46.65 15.25 -44.5 M2.0 23.5 L0.05 30.1 2.0 23.5" fill="#ffffff" fill-opacity="0.0" fill-rule="evenodd" stroke="none"/>
    <path d="M49.5 -69.35 L45.7 -60.9 45.15 -59.85 43.4 -56.6 Q40.25 -51.0 36.6 -46.1 L34.65 -43.55 34.0 -42.75 Q28.0 -44.45 28.0 -47.0 L36.0 -61.5 32.5 -45.5 49.5 -69.35 M15.0 -67.5 L16.0 -52.0 19.0 -67.5 21.85 -47.25 10.5 -50.5 11.0 -72.5 13.0 -54.0 15.0 -67.5 M15.25 -44.5 Q18.7 -43.6 22.95 -41.85 L27.65 -39.8 29.3 -39.0 31.2 -38.05 36.0 -35.5 35.3 -24.7 Q34.2 -10.3 32.0 7.5 29.8 25.3 23.45 46.45 20.25 57.0 17.5 64.0 18.45 60.9 21.3 45.9 L24.0 31.5 Q21.2 43.7 13.3 64.05 9.4 74.25 6.0 82.0 L1.95 80.15 Q14.4 46.5 22.95 4.9 25.6 -8.1 27.55 -20.35 L29.0 -30.0 Q24.95 -9.35 18.05 14.15 L12.0 33.5 Q17.3 6.0 19.7 -12.25 L21.0 -25.0 Q20.2 -18.85 9.15 23.95 11.6 12.15 16.05 -11.85 L20.0 -33.5 17.0 -35.0 Q16.7 -32.5 7.3 -1.5 L-2.0 29.0 14.0 -35.5 11.0 -35.5 -6.0 18.5 8.5 -37.5 -12.0 16.5 Q-9.5 5.9 -1.5 -17.35 L6.0 -38.5 -10.5 -10.5 2.5 -38.5 Q-1.0 -33.5 -24.5 5.0 -22.6 -2.5 -9.35 -24.25 L3.5 -44.5 15.25 -44.5 M-44.9 64.65 L-45.0 64.5 -39.55 44.15 Q-33.2 21.65 -28.5 11.0 L-29.5 23.5 Q-31.7 29.6 -35.85 44.5 L-41.0 63.6 -41.5 65.5 -44.9 64.65" fill="#000000" fill-opacity="0.4" fill-rule="evenodd" stroke="none"/>
    <path d="M43.4 -56.6 Q40.25 -51.0 36.6 -46.1 M34.0 -42.75 L32.8 -41.35 Q16.8 -45.35 9.5 -48.65 9.0 -55.3 8.65 -62.85 8.0 -77.85 8.8 -82.0 L17.5 -80.65 18.15 -73.35 20.15 -78.65 22.8 -78.0 20.15 -61.35 26.15 -77.35 28.8 -76.65 22.15 -54.0 32.15 -76.0 34.8 -75.35 25.5 -48.65 40.7 -75.15 34.15 -52.0 44.15 -72.65 49.5 -69.35 M36.0 -35.5 L31.2 -38.05 29.3 -39.0 27.65 -39.8 22.95 -41.85 Q18.7 -43.6 15.25 -44.5 7.2 -46.65 3.5 -44.5 M1.95 80.15 L6.0 82.0 M24.0 31.5 L21.3 45.9 Q18.45 60.9 17.5 64.0 M-49.5 63.5 L-44.9 64.65 -41.5 65.5 -41.0 63.6 -35.85 44.5 Q-31.7 29.6 -29.5 23.5 L-36.5 67.5 -34.0 68.5 Q-31.75 55.75 -27.95 40.2 -20.3 9.05 -12.5 -5.0 L-20.95 25.4 Q-29.55 57.9 -30.5 68.5 L-15.5 32.0 -28.0 69.0 -25.5 70.0 -18.0 51.0 -22.5 70.5 -17.0 73.5 Q-13.25 64.9 -9.0 54.3 -2.95 39.3 0.05 30.1 L2.0 23.5 M11.45 40.75 L12.5 37.0 M1.4 46.95 L1.5 46.5 M11.45 40.75 Q1.95 75.7 0.5 79.5 L1.95 80.15 M1.4 46.95 L-7.0 76.0 -1.5 79.0 Q7.25 54.5 11.45 40.75 M0.05 30.1 L-4.5 45.4 Q-11.5 68.4 -14.0 74.0 L-10.5 75.5 Q-0.4 52.45 1.4 46.95" fill="none" stroke="#000000" stroke-linecap="round" stroke-linejoin="miter-clip" stroke-miterlimit="4.0" stroke-opacity="0.4" stroke-width="1.0"/>
    <path d="M6.0 82.0 Q9.4 74.25 13.3 64.05 21.2 43.7 24.0 31.5 M17.5 64.0 Q20.25 57.0 23.45 46.45 29.8 25.3 32.0 7.5 34.2 -10.3 35.3 -24.7 L36.0 -35.5 M3.5 -44.5 L-3.35 -36.6 Q-11.75 -26.35 -19.25 -14.5 -43.25 23.5 -49.5 63.5" fill="none" stroke="#000000" stroke-linecap="round" stroke-linejoin="miter-clip" stroke-miterlimit="4.0" stroke-width="1.0"/>
  </g>
</svg>
