<?xml version="1.0" encoding="UTF-8" standalone="no"?>
<svg xmlns:xlink="http://www.w3.org/1999/xlink" height="77.25px" width="381.2px" xmlns="http://www.w3.org/2000/svg">
  <g transform="matrix(1.0, 0.0, 0.0, 1.0, 191.2, 38.65)">
    <path d="M73.2 -34.7 Q109.2 -34.2 145.6 -30.8 L174.8 -27.55 Q50.65 -39.25 -42.0 -25.25 -71.0 -20.85 -93.3 -14.45 L-109.85 -8.9 Q-41.95 -36.4 73.2 -34.7 M188.95 28.95 L189.0 29.3 189.5 38.1 Q101.15 12.3 21.85 6.3 -41.6 1.5 -96.35 9.5 -135.5 15.2 -166.4 26.7 -181.85 32.5 -189.5 37.1 L-168.5 18.8 -167.6 18.15 Q-115.8 -1.45 -45.15 -4.1 61.7 -8.1 188.95 28.95" fill="#ffffff" fill-opacity="0.4" fill-rule="evenodd" stroke="none"/>
    <path d="M73.2 -34.7 Q-41.95 -36.4 -109.85 -8.9 L-93.3 -14.45 Q-71.0 -20.85 -42.0 -25.25 50.65 -39.25 174.8 -27.55 L145.6 -30.8 Q109.2 -34.2 73.2 -34.7 M-167.6 18.15 Q-135.5 -5.25 -87.05 -19.1 -33.65 -34.35 37.0 -37.4 87.45 -39.6 141.55 -35.45 168.55 -33.4 185.5 -30.9 L188.95 28.95 Q61.7 -8.1 -45.15 -4.1 -115.8 -1.45 -167.6 18.15" fill="#ffffff" fill-opacity="0.0" fill-rule="evenodd" stroke="none"/>
    <path d="M-168.5 18.8 L-168.4 18.7 -167.65 18.15 -167.6 18.15 -168.5 18.8" fill="url(#gradient0)" fill-rule="evenodd" stroke="none"/>
    <path d="M-167.6 18.15 Q-135.5 -5.25 -87.05 -19.1 -33.65 -34.35 37.0 -37.4 87.45 -39.6 141.55 -35.45 168.55 -33.4 185.5 -30.9 L188.95 28.95 M189.0 29.3 L189.5 38.1 Q101.15 12.3 21.85 6.3 -41.6 1.5 -96.35 9.5 -135.5 15.2 -166.4 26.7 -181.85 32.5 -189.5 37.1 -180.1 27.35 -168.5 18.8 L-167.6 18.15 Z" fill="none" stroke="#000000" stroke-linecap="round" stroke-linejoin="miter-clip" stroke-miterlimit="4.0" stroke-width="1.0"/>
  </g>
  <defs>
    <linearGradient gradientTransform="matrix(0.2313, 0.0, 0.0, -0.2313, 0.0, 16.8)" gradientUnits="userSpaceOnUse" id="gradient0" spreadMethod="pad" x1="-819.2" x2="819.2">
      <stop offset="0.0" stop-color="#9ea1a4"/>
      <stop offset="1.0" stop-color="#cacccf"/>
    </linearGradient>
  </defs>
</svg>
