<?xml version="1.0" encoding="UTF-8" standalone="no"?>
<svg xmlns:xlink="http://www.w3.org/1999/xlink" height="48.2px" width="139.95px" xmlns="http://www.w3.org/2000/svg">
  <g transform="matrix(1.0, 0.0, 0.0, 1.0, 65.2, 47.85)">
    <path d="M57.4 -39.95 L57.15 -39.9 Q56.6 -39.95 57.05 -41.7 57.5 -43.25 57.4 -45.35 L57.2 -47.1 Q57.45 -48.25 58.75 -47.65 59.4 -47.35 59.05 -45.45 58.65 -43.35 58.95 -42.9 59.6 -41.9 59.6 -40.6 60.0 -40.35 59.95 -36.65 59.95 -32.8 60.4 -32.2 61.0 -31.35 60.65 -30.35 60.3 -29.35 59.85 -30.1 L60.5 -27.9 60.15 -24.7 Q59.95 -20.85 60.8 -17.55 62.7 -19.75 62.15 -27.25 L62.95 -30.0 Q62.75 -30.2 62.65 -30.55 L62.65 -30.75 Q62.65 -31.4 63.35 -32.2 65.2 -34.15 64.35 -38.7 64.2 -39.5 65.05 -40.2 L64.95 -40.6 64.95 -41.15 65.0 -41.3 65.2 -42.0 65.25 -42.1 Q65.75 -43.25 65.7 -45.05 65.7 -46.5 66.1 -46.85 67.0 -47.65 67.8 -47.3 69.1 -46.2 68.3 -45.45 67.0 -44.05 67.55 -40.9 67.75 -39.9 67.0 -39.65 67.25 -39.1 67.0 -38.15 66.45 -36.05 66.65 -31.0 66.55 -28.8 65.35 -29.65 L65.9 -27.0 65.0 -25.25 Q64.1 -22.8 64.15 -19.5 L64.15 -17.75 Q64.2 -16.0 64.7 -16.0 68.55 -17.95 68.75 -21.6 L69.75 -23.25 Q69.6 -23.4 69.6 -23.65 L69.6 -23.7 Q69.6 -24.15 70.3 -24.5 71.3 -24.95 72.05 -27.6 72.7 -29.85 74.45 -29.8 75.2 -29.75 74.15 -25.9 73.1 -22.05 71.85 -21.85 71.95 -21.3 71.65 -20.95 67.5 -16.05 66.55 -13.1 65.8 -10.8 62.35 -9.25 L60.55 -8.55 63.15 -8.5 Q63.9 -8.25 62.7 -5.25 61.2 -1.4 61.15 0.35 L52.65 -0.1 Q54.0 -5.05 52.35 -7.5 L53.2 -8.7 Q54.4 -9.65 55.85 -9.05 L55.1 -9.7 54.05 -10.75 Q53.0 -11.9 53.2 -12.7 53.4 -13.4 52.0 -15.55 50.35 -18.05 50.2 -18.5 L49.05 -24.7 48.9 -25.65 Q48.4 -25.55 48.25 -25.9 L46.15 -31.2 45.3 -32.95 45.8 -33.75 45.15 -33.85 44.2 -37.5 45.3 -37.95 Q46.4 -37.95 46.7 -34.85 L46.85 -34.35 47.4 -33.4 Q49.25 -29.45 50.8 -27.9 51.55 -27.15 50.45 -26.35 L51.45 -24.8 Q51.45 -23.8 52.6 -20.65 53.95 -16.9 55.2 -17.0 55.2 -22.4 53.1 -26.55 L53.05 -27.35 53.15 -28.0 Q52.1 -27.9 52.05 -28.5 51.95 -33.75 51.3 -34.85 L50.9 -37.0 51.8 -37.7 51.15 -37.7 Q50.35 -37.95 50.05 -40.0 L49.7 -42.45 49.45 -44.35 Q49.55 -44.7 50.2 -44.7 50.95 -44.75 51.55 -44.2 52.45 -43.45 52.9 -39.9 53.3 -39.5 53.25 -38.9 53.2 -38.35 52.7 -38.3 53.1 -38.05 53.35 -36.8 54.3 -31.85 55.5 -29.8 56.0 -28.9 54.9 -28.35 L56.2 -26.35 Q56.2 -25.2 56.7 -22.35 57.3 -18.75 58.05 -17.95 58.2 -23.15 57.5 -26.25 L57.05 -28.0 58.1 -29.8 57.8 -29.75 57.65 -29.75 Q57.15 -30.0 57.15 -32.2 57.1 -34.2 57.4 -35.6 L57.4 -39.95 Q58.15 -40.6 58.6 -40.65 L59.6 -40.6 58.6 -40.65 Q58.15 -40.6 57.4 -39.95 M69.75 -23.25 L70.3 -22.45 71.0 -21.95 71.85 -21.85 71.0 -21.95 70.3 -22.45 69.75 -23.25 M55.85 -9.05 Q57.8 -7.7 59.35 -7.95 L60.55 -8.55 59.35 -7.95 Q57.8 -7.7 55.85 -9.05 M59.85 -30.1 Q58.2 -30.25 58.1 -29.8 58.2 -30.25 59.85 -30.1 M54.9 -28.35 L54.15 -28.25 53.15 -28.0 54.15 -28.25 54.9 -28.35 M50.45 -26.35 L48.9 -25.65 50.45 -26.35 M46.85 -34.35 L46.25 -34.05 45.8 -33.75 46.25 -34.05 46.85 -34.35 M51.8 -37.7 L52.7 -38.3 51.8 -37.7 M65.35 -29.65 Q64.65 -30.15 63.8 -30.15 L63.7 -30.15 62.95 -30.0 63.7 -30.15 63.8 -30.15 Q64.65 -30.15 65.35 -29.65 M65.05 -40.2 L65.15 -40.0 Q65.4 -39.65 65.8 -39.6 L67.0 -39.65 65.8 -39.6 Q65.4 -39.65 65.15 -40.0 L65.05 -40.2 M-32.6 -4.3 L-32.7 -3.15 -32.95 -1.3 -37.05 -0.05 -37.2 -1.15 Q-37.3 -2.25 -39.35 -10.05 L-41.35 -17.8 -41.55 -18.9 -41.6 -18.9 Q-43.8 -18.2 -45.8 -20.0 L-47.25 -19.05 Q-52.3 -16.3 -57.85 -18.0 L-58.8 -18.5 Q-61.35 -20.0 -63.15 -22.4 -67.5 -28.1 -62.65 -34.55 L-61.8 -37.65 Q-60.15 -40.85 -56.25 -41.5 L-54.3 -43.5 Q-51.75 -45.55 -48.9 -45.7 L-44.75 -47.0 Q-40.05 -48.0 -37.3 -46.5 L-34.1 -46.4 Q-30.55 -46.1 -29.0 -45.25 L-27.85 -45.25 Q-26.6 -45.0 -26.15 -43.65 L-24.7 -43.75 Q-23.15 -43.55 -22.55 -41.95 L-20.4 -41.0 Q-17.95 -39.4 -16.4 -36.05 L-15.2 -35.7 Q-14.05 -35.1 -14.2 -33.9 L-13.55 -32.75 Q-13.0 -31.3 -13.2 -29.7 L-11.2 -27.3 Q-9.5 -24.1 -11.3 -20.15 L-11.4 -19.9 -15.0 -15.6 -16.2 -15.35 -16.65 -15.4 -16.8 -15.45 -16.95 -15.5 -17.05 -15.5 -17.2 -15.55 -25.8 -21.15 -26.3 -21.75 -27.4 -21.45 Q-31.45 -19.7 -31.95 -11.95 L-31.95 -11.45 -32.4 -6.1 -32.6 -4.3 M-32.4 -36.25 Q-33.05 -36.9 -33.1 -37.5 L-32.95 -38.2 -32.2 -39.0 -32.95 -38.2 -33.1 -37.5 Q-28.9 -37.45 -27.2 -36.05 -26.0 -35.05 -24.9 -32.05 -23.65 -28.65 -28.45 -25.25 -23.65 -28.65 -24.9 -32.05 -26.0 -35.05 -27.2 -36.05 -28.9 -37.45 -33.1 -37.5 -33.05 -36.9 -32.4 -36.25 M-23.75 -24.95 L-23.6 -24.8 -23.75 -24.95 -24.35 -26.05 -23.75 -24.95 -23.25 -26.05 Q-22.35 -27.35 -20.8 -27.4 -19.85 -27.45 -18.5 -23.4 -17.2 -19.5 -14.9 -20.0 -17.2 -19.5 -18.5 -23.4 -19.85 -27.45 -20.8 -27.4 -22.35 -27.35 -23.25 -26.05 L-23.75 -24.95 -23.6 -24.8 Q-22.85 -24.0 -21.95 -24.45 -22.85 -24.0 -23.6 -24.8 L-23.75 -24.95 M-36.95 -42.75 Q-35.45 -43.65 -35.4 -44.5 -35.3 -45.55 -37.3 -46.5 -35.3 -45.55 -35.4 -44.5 -35.45 -43.65 -36.95 -42.75 M-21.5 -33.55 Q-20.6 -35.9 -21.2 -38.45 -21.55 -40.15 -22.55 -41.95 -21.55 -40.15 -21.2 -38.45 -20.6 -35.9 -21.5 -33.55 M-13.65 -26.6 Q-14.5 -27.3 -15.05 -27.2 L-15.5 -26.9 -15.8 -25.95 -15.5 -26.9 -15.05 -27.2 Q-14.5 -27.3 -13.65 -26.6 M-14.2 -33.9 Q-15.05 -32.6 -16.1 -31.75 -17.35 -30.85 -18.95 -30.65 L-19.05 -30.65 -19.2 -30.6 -18.95 -30.65 -15.2 -30.35 -13.2 -29.7 -15.2 -30.35 -18.95 -30.65 -19.2 -30.6 -22.3 -30.35 -19.2 -30.6 -19.05 -30.65 -18.95 -30.65 Q-17.35 -30.85 -16.1 -31.75 -15.05 -32.6 -14.2 -33.9 M-56.15 -24.7 Q-52.4 -25.8 -51.85 -29.25 L-52.5 -29.35 Q-53.15 -29.5 -53.55 -30.1 -54.15 -30.95 -54.45 -32.65 -55.0 -36.25 -56.05 -37.3 L-56.8 -38.25 Q-57.3 -39.25 -57.0 -40.25 L-56.25 -41.5 -57.0 -40.25 Q-57.3 -39.25 -56.8 -38.25 L-56.05 -37.3 Q-55.0 -36.25 -54.45 -32.65 -54.15 -30.95 -53.55 -30.1 -53.15 -29.5 -52.5 -29.35 L-51.85 -29.25 Q-50.85 -29.3 -50.1 -30.1 -49.25 -31.05 -48.7 -33.1 L-49.05 -35.05 Q-49.4 -37.2 -50.6 -37.05 -51.95 -36.9 -52.1 -35.45 L-51.95 -34.0 -52.1 -35.45 Q-51.95 -36.9 -50.6 -37.05 -49.4 -37.2 -49.05 -35.05 L-48.7 -33.1 Q-49.25 -31.05 -50.1 -30.1 -50.85 -29.3 -51.85 -29.25 -52.4 -25.8 -56.15 -24.7 M-45.8 -20.0 L-46.7 -21.6 Q-47.4 -23.2 -47.05 -24.7 L-46.15 -26.4 -47.05 -24.7 Q-47.4 -23.2 -46.7 -21.6 L-45.8 -20.0 M-47.25 -19.05 Q-48.6 -19.55 -49.75 -20.3 L-49.8 -20.35 Q-52.0 -22.0 -50.8 -23.75 -48.95 -26.55 -50.1 -30.1 -48.95 -26.55 -50.8 -23.75 -52.0 -22.0 -49.8 -20.35 L-49.75 -20.3 Q-48.6 -19.55 -47.25 -19.05 M-30.8 -30.95 Q-32.5 -32.0 -34.7 -32.0 L-40.25 -32.05 Q-42.75 -32.25 -45.5 -31.25 -47.4 -30.6 -48.1 -31.5 L-48.7 -33.1 -48.1 -31.5 Q-47.4 -30.6 -45.5 -31.25 -42.75 -32.25 -40.25 -32.05 L-34.7 -32.0 Q-32.5 -32.0 -30.8 -30.95 M-46.85 -27.85 Q-43.3 -30.1 -41.15 -26.4 -39.9 -24.25 -42.85 -22.75 -39.9 -24.25 -41.15 -26.4 -43.3 -30.1 -46.85 -27.85 M-45.6 -36.4 L-46.0 -35.75 -41.85 -36.05 Q-38.0 -36.85 -37.85 -39.2 L-38.35 -41.05 Q-43.75 -41.3 -48.45 -38.65 -50.35 -37.55 -51.75 -39.2 -53.35 -41.05 -52.5 -41.05 -53.35 -41.05 -51.75 -39.2 -50.35 -37.55 -48.45 -38.65 -43.75 -41.3 -38.35 -41.05 L-35.8 -40.8 Q-30.95 -40.0 -28.8 -41.75 -30.95 -40.0 -35.8 -40.8 L-38.35 -41.05 -37.85 -39.2 Q-38.0 -36.85 -41.85 -36.05 L-46.0 -35.75 -45.6 -36.4 M-54.55 -23.55 Q-56.35 -23.55 -56.65 -25.2 L-56.6 -26.85 -56.65 -25.2 Q-56.35 -23.55 -54.55 -23.55 M-59.7 -30.25 L-60.35 -30.35 Q-61.25 -31.0 -61.8 -32.0 L-62.3 -33.05 -62.65 -34.55 -62.3 -33.05 -61.8 -32.0 Q-61.25 -31.0 -60.35 -30.35 L-59.7 -30.25 -58.75 -30.15 Q-57.0 -30.1 -56.15 -30.6 -54.8 -31.4 -53.55 -30.1 -54.8 -31.4 -56.15 -30.6 -57.0 -30.1 -58.75 -30.15 L-59.7 -30.25 -60.75 -27.65 Q-61.2 -24.5 -58.1 -21.95 -57.35 -21.15 -57.75 -20.05 -58.05 -19.35 -58.8 -18.5 -58.05 -19.35 -57.75 -20.05 -57.35 -21.15 -58.1 -21.95 -61.2 -24.5 -60.75 -27.65 L-59.7 -30.25 M-41.55 -18.9 Q-39.4 -19.95 -38.55 -21.6 -37.75 -23.15 -38.2 -25.25 -37.2 -23.95 -36.15 -25.05 -34.7 -26.55 -33.2 -26.15 L-28.45 -25.25 -28.3 -24.95 -26.65 -22.25 -26.3 -21.75 -26.65 -22.25 -28.3 -24.95 -28.45 -25.25 -33.2 -26.15 Q-34.7 -26.55 -36.15 -25.05 -37.2 -23.95 -38.2 -25.25 -37.75 -23.15 -38.55 -21.6 -39.4 -19.95 -41.55 -18.9 M-15.05 -27.2 Q-14.1 -23.65 -17.75 -22.2 -14.1 -23.65 -15.05 -27.2 M-19.55 -34.0 Q-20.35 -32.85 -22.55 -33.45 -20.35 -32.85 -19.55 -34.0" fill="#ffffff" fill-opacity="0.0" fill-rule="evenodd" stroke="none"/>
    <path d="M-16.2 -15.35 Q-15.95 -14.05 -16.0 -12.7 -16.1 -7.85 -28.05 -5.95 -30.4 -5.6 -32.1 -4.65 L-32.6 -4.3 -32.4 -6.1 -31.95 -11.45 -31.95 -11.95 Q-31.45 -19.7 -27.4 -21.45 L-26.3 -21.75 -25.8 -21.15 -17.2 -15.55 -17.05 -15.5 -16.95 -15.5 -16.8 -15.45 -16.65 -15.4 -16.2 -15.35" fill="#000000" fill-opacity="0.101960786" fill-rule="evenodd" stroke="none"/>
    <path d="M67.0 -39.65 L65.8 -39.6 Q65.4 -39.65 65.15 -40.0 L65.05 -40.2 M62.95 -30.0 L63.7 -30.15 63.8 -30.15 Q64.65 -30.15 65.35 -29.65 M52.7 -38.3 L51.8 -37.7 M59.6 -40.6 L58.6 -40.65 Q58.15 -40.6 57.4 -39.95 M45.8 -33.75 L46.25 -34.05 46.85 -34.35 M48.9 -25.65 L50.45 -26.35 M53.15 -28.0 L54.15 -28.25 54.9 -28.35 M58.1 -29.8 Q58.2 -30.25 59.85 -30.1 M60.55 -8.55 L59.35 -7.95 Q57.8 -7.7 55.85 -9.05 M71.85 -21.85 L71.0 -21.95 70.3 -22.45 69.75 -23.25" fill="none" stroke="#000000" stroke-linecap="round" stroke-linejoin="miter-clip" stroke-miterlimit="3.0" stroke-opacity="0.3019608" stroke-width="1.0"/>
    <path d="M-32.6 -4.3 L-32.4 -6.1 -31.95 -11.45 -31.95 -11.95 Q-31.45 -19.7 -27.4 -21.45 L-26.3 -21.75 -26.65 -22.25 -28.3 -24.95 -28.45 -25.25 -33.2 -26.15 Q-34.7 -26.55 -36.15 -25.05 -37.2 -23.95 -38.2 -25.25 -37.75 -23.15 -38.55 -21.6 -39.4 -19.95 -41.55 -18.9 M-52.5 -41.05 Q-53.35 -41.05 -51.75 -39.2 -50.35 -37.55 -48.45 -38.65 -43.75 -41.3 -38.35 -41.05 L-35.8 -40.8 Q-30.95 -40.0 -28.8 -41.75 M-56.25 -41.5 L-57.0 -40.25 Q-57.3 -39.25 -56.8 -38.25 L-56.05 -37.3 Q-55.0 -36.25 -54.45 -32.65 -54.15 -30.95 -53.55 -30.1 -53.15 -29.5 -52.5 -29.35 L-51.85 -29.25 Q-50.85 -29.3 -50.1 -30.1 -49.25 -31.05 -48.7 -33.1 L-49.05 -35.05 Q-49.4 -37.2 -50.6 -37.05 -51.95 -36.9 -52.1 -35.45 L-51.95 -34.0 M-53.55 -30.1 Q-54.8 -31.4 -56.15 -30.6 -57.0 -30.1 -58.75 -30.15 L-59.7 -30.25 -60.75 -27.65 Q-61.2 -24.5 -58.1 -21.95 -57.35 -21.15 -57.75 -20.05 -58.05 -19.35 -58.8 -18.5 M-62.65 -34.55 L-62.3 -33.05 -61.8 -32.0 Q-61.25 -31.0 -60.35 -30.35 L-59.7 -30.25 M-56.6 -26.85 L-56.65 -25.2 Q-56.35 -23.55 -54.55 -23.55 M-38.35 -41.05 L-37.85 -39.2 Q-38.0 -36.85 -41.85 -36.05 L-46.0 -35.75 -45.6 -36.4 M-42.85 -22.75 Q-39.9 -24.25 -41.15 -26.4 -43.3 -30.1 -46.85 -27.85 M-48.7 -33.1 L-48.1 -31.5 Q-47.4 -30.6 -45.5 -31.25 -42.75 -32.25 -40.25 -32.05 L-34.7 -32.0 Q-32.5 -32.0 -30.8 -30.95 M-50.1 -30.1 Q-48.95 -26.55 -50.8 -23.75 -52.0 -22.0 -49.8 -20.35 L-49.75 -20.3 Q-48.6 -19.55 -47.25 -19.05 M-46.15 -26.4 L-47.05 -24.7 Q-47.4 -23.2 -46.7 -21.6 L-45.8 -20.0 M-51.85 -29.25 Q-52.4 -25.8 -56.15 -24.7 M-13.2 -29.7 L-15.2 -30.35 -18.95 -30.65 -19.2 -30.6 -22.3 -30.35 M-19.2 -30.6 L-19.05 -30.65 -18.95 -30.65 Q-17.35 -30.85 -16.1 -31.75 -15.05 -32.6 -14.2 -33.9 M-15.8 -25.95 L-15.5 -26.9 -15.05 -27.2 Q-14.5 -27.3 -13.65 -26.6 M-22.55 -41.95 Q-21.55 -40.15 -21.2 -38.45 -20.6 -35.9 -21.5 -33.55 M-37.3 -46.5 Q-35.3 -45.55 -35.4 -44.5 -35.45 -43.65 -36.95 -42.75 M-32.2 -39.0 L-32.95 -38.2 -33.1 -37.5 Q-28.9 -37.45 -27.2 -36.05 -26.0 -35.05 -24.9 -32.05 -23.65 -28.65 -28.45 -25.25 M-24.35 -26.05 L-23.75 -24.95 -23.25 -26.05 Q-22.35 -27.35 -20.8 -27.4 -19.85 -27.45 -18.5 -23.4 -17.2 -19.5 -14.9 -20.0 M-23.75 -24.95 L-23.6 -24.8 Q-22.85 -24.0 -21.95 -24.45 M-23.6 -24.8 L-23.75 -24.95 M-33.1 -37.5 Q-33.05 -36.9 -32.4 -36.25 M-26.3 -21.75 L-25.8 -21.15 -17.2 -15.55 -17.05 -15.5 -16.95 -15.5 -16.8 -15.45 -16.65 -15.4 -16.2 -15.35 M-22.55 -33.45 Q-20.35 -32.85 -19.55 -34.0 M-17.75 -22.2 Q-14.1 -23.65 -15.05 -27.2" fill="none" stroke="#000000" stroke-linecap="round" stroke-linejoin="miter-clip" stroke-miterlimit="3.0" stroke-opacity="0.3019608" stroke-width="1.0"/>
  </g>
</svg>
