<?xml version="1.0" encoding="UTF-8" standalone="no"?>
<svg xmlns:xlink="http://www.w3.org/1999/xlink" height="121.85px" width="135.15px" xmlns="http://www.w3.org/2000/svg">
  <g transform="matrix(1.0, 0.0, 0.0, 1.0, 66.55, 47.45)">
    <path d="M67.5 -40.2 L53.05 -38.05 6.8 -42.85 3.8 -43.2 1.3 -43.5 1.3 -43.85 4.25 -45.25 6.95 -46.15 8.8 -46.5 19.0 -46.8 42.0 -44.9 Q65.3 -42.75 66.65 -41.55 L67.1 -41.1 67.25 -40.9 67.5 -40.2 M30.75 -35.85 L35.0 -35.35 35.2 -23.45 39.45 -22.95 Q53.25 -21.25 54.3 -20.3 L55.25 -19.0 55.2 -19.0 46.15 -17.65 40.6 -17.05 6.8 -21.0 4.4 -21.3 -1.15 -22.0 -1.15 -26.35 3.5 -26.5 6.65 -26.3 6.75 -26.3 30.9 -23.9 35.2 -23.45 30.9 -23.9 30.75 -35.85 M41.2 -12.4 L52.3 -13.9 52.3 8.2 46.15 9.45 41.4 10.45 41.95 1.05 Q41.75 0.25 41.2 -0.4 L41.2 -0.75 41.2 -12.35 41.2 -12.4 M39.95 11.95 L41.15 12.6 43.55 13.2 43.55 60.4 43.6 60.45 43.05 60.45 Q39.95 60.45 39.95 57.35 L39.95 11.95 M-8.05 25.05 L-7.3 25.55 Q-5.75 26.5 -4.05 26.65 L-4.05 57.8 -4.05 57.85 -4.25 57.9 -4.55 57.9 Q-6.0 57.9 -7.05 56.85 -8.05 55.85 -8.05 54.4 L-8.05 25.05 M-22.05 27.45 Q-20.65 28.2 -19.05 28.4 L-19.05 73.8 -19.05 73.9 Q-20.2 73.7 -21.05 72.85 -22.05 71.85 -22.05 70.4 L-22.05 27.45 M-59.05 13.45 L-52.05 14.8 -59.05 16.1 -59.05 13.45 M-63.05 68.9 Q-64.2 68.7 -65.05 67.85 -66.05 66.85 -66.05 65.4 L-66.05 22.45 Q-64.65 23.2 -63.05 23.4 L-63.05 68.8 -63.05 68.9" fill="#ffffff" fill-opacity="0.0" fill-rule="evenodd" stroke="none"/>
    <path d="M67.5 -40.2 L68.1 -38.45 68.1 -37.45 67.95 -36.4 67.75 -35.55 52.85 -33.3 39.25 -34.85 35.0 -35.35 39.25 -34.85 39.45 -22.95 35.2 -23.45 35.0 -35.35 30.75 -35.85 -1.1 -39.35 -1.1 -39.95 Q-0.25 -42.8 0.95 -43.55 L1.3 -43.5 3.8 -43.2 6.8 -42.85 53.05 -38.05 67.5 -40.2 M-1.15 -22.0 L4.4 -21.3 6.8 -21.0 40.6 -17.05 46.15 -17.65 55.2 -19.0 Q55.85 -17.5 55.65 -15.7 L55.35 -14.5 55.35 -14.4 55.3 -14.3 52.3 -13.9 41.2 -12.4 40.4 -12.3 0.8 -17.5 -1.15 -17.75 -1.15 -22.0 M41.4 10.45 L46.15 9.45 46.15 56.6 46.15 57.9 46.1 58.3 Q45.65 60.05 43.55 60.4 L43.55 13.2 41.15 12.6 39.95 11.95 39.95 11.75 41.3 11.45 41.4 10.45 M-4.05 57.8 L-4.05 26.65 Q-5.75 26.5 -7.3 25.55 L-8.05 25.05 -8.05 21.4 -7.6 21.3 -1.05 20.0 -1.05 54.4 -1.1 55.05 Q-1.25 56.05 -2.05 56.85 L-2.85 57.45 -2.85 57.5 -2.95 57.5 -4.05 57.8 M-19.05 73.8 L-19.05 28.4 Q-20.65 28.2 -22.05 27.45 L-22.05 20.75 -15.05 22.15 -15.05 70.4 Q-15.05 71.85 -16.05 72.85 -17.1 73.9 -18.55 73.9 L-19.05 73.8 M-52.05 14.8 L-45.65 16.1 -59.05 19.2 -59.05 65.4 Q-59.05 66.85 -60.05 67.85 -61.1 68.9 -62.55 68.9 L-63.05 68.8 -63.05 23.4 Q-64.65 23.2 -66.05 22.45 L-66.05 10.65 -65.55 12.15 -59.05 13.45 -59.05 16.1 -52.05 14.8 M-59.05 19.2 L-59.05 16.1 -59.05 19.2" fill="#000000" fill-opacity="0.101960786" fill-rule="evenodd" stroke="none"/>
    <path d="M0.8 -17.5 L40.4 -12.3 40.5 -12.3 41.2 -12.35 41.2 -0.75 40.85 -0.75 Q39.3 -2.15 35.8 -2.8 L-1.15 -6.75 -1.15 -17.7 0.8 -17.5" fill="#333333" fill-opacity="0.2" fill-rule="evenodd" stroke="none"/>
    <path d="M39.25 -34.85 L52.85 -33.3 67.75 -35.55 67.95 -36.4 68.1 -37.45 68.1 -38.45 67.5 -40.2 67.25 -40.9 67.1 -41.1 66.65 -41.55 Q65.3 -42.75 42.0 -44.9 L19.0 -46.8 8.8 -46.5 6.95 -46.15 4.25 -45.25 1.3 -43.85 0.95 -43.55 Q-0.25 -42.8 -1.1 -39.95 L-1.1 -39.35 M55.25 -19.0 L54.3 -20.3 Q53.25 -21.25 39.45 -22.95 L39.25 -34.85 M52.3 -13.9 L55.3 -14.3 55.35 -14.4 55.35 -14.5 55.65 -15.7 Q55.95 -17.65 55.25 -19.0 M67.95 -36.4 L68.1 -38.45 M46.15 9.45 L52.3 8.2 52.3 -13.9 M39.95 11.75 L39.95 11.95 39.95 57.35 Q39.95 60.45 43.05 60.45 L43.6 60.45 44.1 60.35 Q45.75 59.95 46.1 58.3 L46.15 58.0 46.15 57.9 46.15 57.35 46.15 56.6 46.15 9.45 M46.1 58.3 L46.15 57.9 46.15 56.6 M-2.95 57.5 L-2.85 57.5 -2.85 57.45 -2.05 56.85 Q-1.25 56.05 -1.1 55.05 L-1.05 54.4 -1.05 20.0 M-7.6 21.3 L-8.05 21.4 -8.05 25.05 -8.05 54.4 Q-8.05 55.85 -7.05 56.85 -6.0 57.9 -4.55 57.9 L-4.25 57.9 -4.05 57.85 -3.55 57.8 -2.95 57.5 M-18.55 73.9 Q-17.1 73.9 -16.05 72.85 -15.05 71.85 -15.05 70.4 L-15.05 22.15 M-22.05 20.75 L-22.05 27.45 -22.05 70.4 Q-22.05 71.85 -21.05 72.85 -20.2 73.7 -19.05 73.9 L-18.55 73.9 M-45.65 16.1 L-59.05 19.2 -59.05 65.4 Q-59.05 66.85 -60.05 67.85 -61.1 68.9 -62.55 68.9 L-63.05 68.9 Q-64.2 68.7 -65.05 67.85 -66.05 66.85 -66.05 65.4 L-66.05 22.45 -66.05 10.65 M-2.85 57.5 L-3.55 57.8" fill="none" stroke="#000000" stroke-linecap="round" stroke-linejoin="miter-clip" stroke-miterlimit="3.0" stroke-width="1.0"/>
    <path d="M1.3 -43.5 L0.95 -43.55 M55.65 -15.7 Q55.85 -17.5 55.2 -19.0 M43.55 60.4 Q45.65 60.05 46.1 58.3 M-4.05 57.8 L-2.95 57.5 M-19.05 73.8 L-18.55 73.9 M-63.05 68.8 L-62.55 68.9" fill="none" stroke="#000000" stroke-linecap="round" stroke-linejoin="round" stroke-width="1.0"/>
    <path d="M-1.1 -39.35 L30.75 -35.85 35.0 -35.35 39.25 -34.85 M30.9 -23.9 L6.75 -26.3 6.65 -26.3 3.5 -26.5 -1.15 -26.35 -1.15 -22.0 -1.15 -17.75 -1.15 -17.7 -1.15 -6.75 35.8 -2.8 Q39.3 -2.15 40.85 -0.75 L40.9 -0.7 41.2 -0.4 Q41.75 0.25 41.95 1.05 M39.45 -22.95 L35.2 -23.45 30.9 -23.9 M0.8 -17.5 L40.4 -12.3 41.2 -12.4 52.3 -13.9 M41.2 -12.35 L40.5 -12.3 40.4 -12.3 M41.4 10.45 L46.15 9.45 M41.2 -12.4 L41.2 -12.35 M0.8 -17.5 L-1.15 -17.7 M-1.15 -26.35 L-1.1 -39.35 M-59.05 13.45 L-59.05 16.1 -59.05 19.2 M0.8 -17.5 L-1.15 -17.75" fill="none" stroke="#000000" stroke-linecap="round" stroke-linejoin="miter-clip" stroke-miterlimit="3.0" stroke-opacity="0.6" stroke-width="1.0"/>
    <path d="M41.95 1.05 L41.4 10.45 41.3 11.45 39.95 11.75 M-1.05 20.0 L-7.6 21.3 M-15.05 22.15 L-22.05 20.75 M-59.05 13.45 L-52.05 14.8 -45.65 16.1 M-66.05 10.65 L-65.55 12.15 -59.05 13.45" fill="none" stroke="#000000" stroke-linecap="round" stroke-linejoin="round" stroke-opacity="0.6" stroke-width="1.0"/>
    <path d="M30.9 -23.9 L30.75 -35.85 M41.2 -0.75 L41.2 -12.35 M41.2 -0.75 L41.2 -0.4" fill="none" stroke="#000000" stroke-linecap="round" stroke-linejoin="miter-clip" stroke-miterlimit="3.0" stroke-opacity="0.4" stroke-width="1.0"/>
    <path d="M35.0 -35.35 L35.2 -23.45" fill="none" stroke="#000000" stroke-linecap="round" stroke-linejoin="round" stroke-opacity="0.4" stroke-width="1.0"/>
  </g>
</svg>
