<?xml version="1.0" encoding="UTF-8" standalone="no"?>
<svg xmlns:xlink="http://www.w3.org/1999/xlink" height="35.2px" width="29.5px" xmlns="http://www.w3.org/2000/svg">
  <g transform="matrix(1.0, 0.0, 0.0, 1.0, 9.85, 23.85)">
    <path d="M19.15 -22.4 L19.15 7.45 -8.45 10.8 -9.35 -23.35 19.15 -22.4" fill="#ffffff" fill-opacity="0.0" fill-rule="evenodd" stroke="none"/>
    <path d="M19.15 -22.4 L-9.35 -23.35 -8.45 10.8 19.15 7.45 19.15 -22.4 Z" fill="none" stroke="#000000" stroke-linecap="round" stroke-linejoin="miter-clip" stroke-miterlimit="3.0" stroke-opacity="0.4" stroke-width="1.0"/>
    <path d="M-6.55 4.45 L-2.4 3.95 -2.3 4.95 -6.45 5.45 -6.55 4.45 M7.1 6.6 L7.2 7.6 -1.95 8.45 -2.05 7.45 7.1 6.6 M1.85 1.6 L1.9 2.6 -6.3 3.25 -6.35 2.25 1.85 1.6 M7.5 -3.7 L6.75 -5.2 6.6 -3.75 -1.55 -3.3 -1.85 -4.3 -2.2 -3.1 -7.45 -3.1 -7.45 -4.1 -2.95 -4.1 -1.9 -7.5 -1.75 -7.5 -0.8 -4.35 5.7 -4.7 6.05 -8.45 6.2 -8.5 8.1 -4.75 13.2 -4.95 14.7 -9.0 14.95 -8.95 15.15 -7.55 15.5 -5.1 17.8 -5.25 17.85 -4.25 14.65 -4.05 14.55 -4.5 14.45 -5.4 13.9 -4.0 7.5 -3.7 M17.9 -14.75 L17.15 -14.05 16.25 -15.0 14.35 -11.6 13.5 -14.55 11.75 -11.95 9.8 -17.0 7.35 -12.05 6.15 -14.75 4.5 -11.4 4.4 -11.4 3.45 -17.35 0.35 -10.75 0.3 -10.75 -0.5 -14.7 -1.7 -11.75 -2.45 -14.25 -4.05 -8.7 -4.6 -8.8 -4.85 -16.95 -5.85 -12.6 -6.8 -12.85 -4.65 -22.25 -4.05 -22.2 -3.75 -13.45 -2.6 -17.55 -2.4 -17.55 -1.55 -14.7 -0.25 -17.9 -0.15 -17.85 0.7 -13.85 3.8 -20.55 3.95 -20.5 4.9 -14.5 6.2 -17.05 7.4 -14.4 9.9 -19.45 12.0 -14.15 13.85 -16.9 14.65 -14.15 16.05 -16.75 17.9 -14.75" fill="#ffffff" fill-opacity="0.8" fill-rule="evenodd" stroke="none"/>
  </g>
</svg>
