<?xml version="1.0" encoding="UTF-8" standalone="no"?>
<svg xmlns:xlink="http://www.w3.org/1999/xlink" height="99.0px" width="59.0px" xmlns="http://www.w3.org/2000/svg">
  <g transform="matrix(1.0, 0.0, 0.0, 1.0, 25.65, 75.6)">
    <path d="M-12.15 -11.5 L-10.8 -11.5 -12.15 -11.5 M-20.65 -3.0 L-20.7 -3.0 -20.65 -3.25 -20.65 -3.4 -20.65 -3.0" fill="#bababa" fill-rule="evenodd" stroke="none"/>
    <path d="M-20.65 -3.25 L-20.65 -4.45 -20.65 -3.4 -20.65 -3.25 M-20.65 -2.3 L-20.65 -3.0 -20.65 -2.3" fill="#7d7d7d" fill-rule="evenodd" stroke="none"/>
    <path d="M-11.5 22.85 L-20.85 22.9 -20.8 18.8 -22.05 18.45 -22.35 17.9 -22.35 -1.3 -21.85 -1.95 -20.65 -2.3 -20.65 -3.0 -13.65 -2.65 -13.3 21.05 -11.5 22.85 M-18.95 -0.45 Q-19.5 -0.45 -19.5 -0.2 L-19.5 16.8 Q-19.5 17.05 -18.95 17.05 -18.45 17.05 -18.45 16.8 L-18.45 -0.2 Q-18.45 -0.45 -18.95 -0.45 M-20.8 18.8 L-20.65 18.85 -19.85 18.85 Q-17.35 18.85 -17.35 17.65 L-17.35 -1.2 Q-17.35 -2.35 -19.85 -2.35 -21.25 -2.35 -21.85 -1.95 -21.25 -2.35 -19.85 -2.35 -17.35 -2.35 -17.35 -1.2 L-17.35 17.65 Q-17.35 18.85 -19.85 18.85 L-20.65 18.85 -20.8 18.8" fill="#ffffff" fill-opacity="0.0" fill-rule="evenodd" stroke="none"/>
    <path d="M-20.65 -4.45 L-20.65 -4.85 -11.5 -4.95 -11.5 22.85 -13.3 21.05 -13.65 -2.65 -20.65 -3.0 -20.65 -3.4 -20.65 -4.45 M-18.95 -0.45 Q-18.45 -0.45 -18.45 -0.2 L-18.45 16.8 Q-18.45 17.05 -18.95 17.05 -19.5 17.05 -19.5 16.8 L-19.5 -0.2 Q-19.5 -0.45 -18.95 -0.45" fill="#000000" fill-opacity="0.101960786" fill-rule="evenodd" stroke="none"/>
    <path d="M-10.8 -11.5 Q-2.75 -39.8 15.85 -60.25 25.15 -70.5 32.85 -75.05 L32.85 -11.8 -10.8 -11.5" fill="#000000" fill-opacity="0.5019608" fill-rule="evenodd" stroke="none"/>
    <path d="M32.85 -75.05 Q25.15 -70.5 15.85 -60.25 -2.75 -39.8 -10.8 -11.5 L-12.15 -11.5 -14.5 -11.5 -14.5 -70.15 32.85 -75.05" fill="#000000" fill-opacity="0.3019608" fill-rule="evenodd" stroke="none"/>
    <path d="M32.85 -75.05 L-14.5 -70.15 -14.5 -11.5 -12.15 -11.5 -10.8 -11.5 32.85 -11.8 32.85 -75.05 M-20.65 -3.25 L-20.65 -4.45 -20.65 -4.85 -11.5 -4.95 -11.5 22.85 -20.85 22.9 -20.8 18.8 -22.05 18.45 -22.35 17.9 -22.35 -1.3 -21.85 -1.95 Q-21.25 -2.35 -19.85 -2.35 -17.35 -2.35 -17.35 -1.2 L-17.35 17.65 Q-17.35 18.85 -19.85 18.85 L-20.65 18.85 -20.8 18.8 M-20.65 -2.3 L-20.65 -3.0 -20.65 -2.3 M-20.65 -3.4 L-20.65 -4.45 M-20.65 -3.4 L-20.65 -3.0" fill="none" stroke="#000000" stroke-linecap="round" stroke-linejoin="miter-clip" stroke-miterlimit="3.0" stroke-opacity="0.4" stroke-width="1.0"/>
  </g>
</svg>
