<?xml version="1.0" encoding="UTF-8" standalone="no"?>
<svg xmlns:xlink="http://www.w3.org/1999/xlink" height="87.9px" width="95.0px" xmlns="http://www.w3.org/2000/svg">
  <g transform="matrix(1.0, 0.0, 0.0, 1.0, 41.8, 5.3)">
    <path d="M7.75 16.7 L7.75 21.8 7.75 22.45 Q7.5 23.85 5.65 23.85 3.85 23.95 3.55 22.35 L3.5 21.85 3.5 17.95 7.65 16.7 7.75 16.7 M9.85 36.75 L16.5 35.05 Q24.45 33.9 30.95 36.05 L33.05 36.8 34.0 37.85 Q34.45 38.6 34.35 39.4 L34.05 40.5 33.85 40.8 29.8 41.45 28.6 41.65 26.2 41.0 Q19.0 39.15 12.65 38.65 L9.15 38.5 9.7 37.35 9.85 36.75 M-22.4 40.85 Q-22.8 39.7 -22.3 38.65 L-21.4 37.6 Q-14.2 34.3 -4.85 35.35 -1.1 35.8 1.7 36.65 L1.95 37.55 2.5 38.6 0.35 38.7 Q-7.75 39.2 -17.3 42.25 L-22.05 41.6 -22.4 40.85" fill="#000000" fill-opacity="0.101960786" fill-rule="evenodd" stroke="none"/>
    <path d="M50.9 -2.35 L51.3 -2.1 51.45 -2.0 51.85 -0.45 Q51.9 1.45 50.05 3.05 47.95 4.9 7.75 16.7 L7.65 16.7 3.5 17.95 3.45 17.95 3.4 17.95 0.3 18.85 Q-3.35 19.9 -16.9 15.95 -29.3 12.3 -32.35 10.35 -33.1 9.9 -33.6 3.35 -13.95 13.65 -0.2 12.45 L0.75 12.35 2.3 12.15 Q7.45 11.3 9.9 9.0 L10.15 6.35 Q26.65 -5.05 40.4 -4.8 47.15 -4.65 50.9 -2.35 M7.75 22.45 L8.5 23.1 Q9.75 24.4 9.8 26.3 L9.9 35.75 9.9 35.85 9.9 36.5 9.85 36.75 9.7 37.35 9.15 38.5 12.65 38.65 Q19.0 39.15 26.2 41.0 L28.6 41.65 29.4 41.9 31.45 42.55 36.3 44.15 36.7 44.3 Q45.0 47.3 50.85 50.4 54.4 53.6 51.05 56.4 L50.3 56.05 Q46.55 54.4 41.8 53.0 33.65 50.55 22.6 48.9 L8.5 47.35 8.15 69.2 7.95 69.4 7.75 69.55 Q5.95 70.65 4.2 69.75 L3.8 69.5 3.65 69.4 3.35 47.35 -11.4 49.4 Q-22.35 51.4 -30.4 54.05 -35.1 55.6 -38.8 57.4 L-39.6 57.75 Q-43.0 55.05 -39.55 51.75 -33.65 48.4 -25.2 45.05 L-25.0 45.0 -24.4 44.75 Q-20.75 43.3 -17.3 42.25 -7.75 39.2 0.35 38.7 L2.5 38.6 1.95 37.55 1.7 36.65 1.6 35.85 1.45 26.45 Q1.4 24.55 2.6 23.15 3.05 22.65 3.55 22.35 3.85 23.95 5.65 23.85 7.5 23.85 7.75 22.45 M8.15 25.65 Q8.15 25.25 7.75 25.25 7.3 25.25 7.3 25.65 L7.3 36.0 Q7.3 36.4 7.75 36.4 8.15 36.4 8.15 36.0 L8.15 25.65 M8.5 47.35 L8.6 40.05 8.3 39.5 8.75 39.05 9.15 38.5 8.75 39.05 8.3 39.5 8.6 40.05 8.5 47.35 M7.15 39.25 L6.8 39.4 6.65 39.75 6.65 68.55 6.8 68.9 7.15 69.05 7.5 68.9 7.65 68.55 7.65 39.75 7.5 39.4 7.15 39.25 M8.3 39.5 Q7.2 37.6 5.2 38.35 L3.4 39.55 2.9 39.1 2.5 38.6 2.9 39.1 3.4 39.55 5.2 38.35 Q7.2 37.6 8.3 39.5 M10.1 40.35 L10.45 40.55 22.85 42.4 Q37.45 45.35 48.1 50.85 L48.45 50.9 48.75 50.65 48.8 50.25 48.55 49.95 Q37.75 44.35 23.05 41.4 L10.6 39.55 10.2 39.65 10.0 40.0 10.1 40.35 M3.4 39.55 L3.2 39.65 3.35 47.35 3.2 39.65 3.4 39.55 M1.3 39.55 Q-9.0 39.75 -22.6 45.0 -29.45 47.55 -34.2 50.1 L-34.45 50.4 -34.45 50.8 -34.15 51.05 -33.75 51.0 Q-29.05 48.45 -22.25 45.95 -8.8 40.75 1.3 40.55 L1.65 40.4 1.8 40.05 1.65 39.7 1.3 39.55" fill="#ffffff" fill-opacity="0.0" fill-rule="evenodd" stroke="none"/>
    <path d="M8.15 25.65 L8.15 36.0 Q8.15 36.4 7.75 36.4 7.3 36.4 7.3 36.0 L7.3 25.65 Q7.3 25.25 7.75 25.25 8.15 25.25 8.15 25.65 M7.15 39.25 L7.5 39.4 7.65 39.75 7.65 68.55 7.5 68.9 7.15 69.05 6.8 68.9 6.65 68.55 6.65 39.75 6.8 39.4 7.15 39.25 M10.1 40.35 L10.0 40.0 10.2 39.65 10.6 39.55 23.05 41.4 Q37.75 44.35 48.55 49.95 L48.8 50.25 48.75 50.65 48.45 50.9 48.1 50.85 Q37.45 45.35 22.85 42.4 L10.45 40.55 10.1 40.35 M1.3 39.55 L1.65 39.7 1.8 40.05 1.65 40.4 1.3 40.55 Q-8.8 40.75 -22.25 45.95 -29.05 48.45 -33.75 51.0 L-34.15 51.05 -34.45 50.8 -34.45 50.4 -34.2 50.1 Q-29.45 47.55 -22.6 45.0 -9.0 39.75 1.3 39.55" fill="#ffffff" fill-opacity="0.2" fill-rule="evenodd" stroke="none"/>
    <path d="M34.05 40.5 L35.5 41.4 Q36.7 42.55 36.7 44.25 L36.7 44.3 36.3 44.15 31.45 42.55 29.4 41.9 29.75 41.5 29.8 41.45 33.85 40.8 34.05 40.5 M50.3 56.05 L50.45 57.4 Q50.5 59.7 48.9 61.35 47.3 62.95 45.05 63.0 42.75 63.05 41.15 61.45 39.5 59.85 39.45 57.55 39.4 55.3 41.0 53.65 L41.8 53.0 Q46.55 54.4 50.3 56.05 M7.75 69.55 Q8.4 69.8 9.0 70.35 10.15 71.5 10.2 73.15 L10.25 78.05 Q10.3 79.7 9.15 80.9 8.0 82.05 6.3 82.1 4.65 82.15 3.45 81.0 2.3 79.85 2.25 78.15 L2.2 73.3 Q2.15 71.65 3.3 70.45 L4.2 69.75 Q5.95 70.65 7.75 69.55 M-30.4 54.05 Q-30.0 54.3 -29.6 54.7 -28.0 56.3 -27.95 58.55 -27.9 60.85 -29.5 62.5 -31.1 64.1 -33.35 64.15 -35.65 64.2 -37.25 62.6 -38.9 61.0 -38.95 58.7 L-38.8 57.4 Q-35.1 55.6 -30.4 54.05 M-24.4 44.75 L-24.4 44.4 Q-24.45 42.7 -23.25 41.5 L-22.4 40.85 -22.05 41.6 -17.3 42.25 Q-20.75 43.3 -24.4 44.75 M41.65 55.75 Q40.5 56.9 40.5 58.55 40.5 60.25 41.65 61.4 42.8 62.55 44.5 62.55 46.15 62.55 47.35 61.4 48.5 60.25 48.5 58.55 48.5 56.9 47.35 55.75 46.15 54.55 44.5 54.55 42.8 54.55 41.65 55.75 M-36.15 57.1 Q-37.35 58.25 -37.35 59.9 -37.35 61.55 -36.15 62.75 -35.0 63.9 -33.35 63.9 -31.7 63.9 -30.5 62.75 -29.35 61.55 -29.35 59.9 -29.35 58.25 -30.5 57.1 -31.7 55.9 -33.35 55.9 -35.0 55.9 -36.15 57.1" fill="#000000" fill-opacity="0.6" fill-rule="evenodd" stroke="none"/>
    <path d="M41.65 55.75 Q42.8 54.55 44.5 54.55 46.15 54.55 47.35 55.75 48.5 56.9 48.5 58.55 48.5 60.25 47.35 61.4 46.15 62.55 44.5 62.55 42.8 62.55 41.65 61.4 40.5 60.25 40.5 58.55 40.5 56.9 41.65 55.75 M-36.15 57.1 Q-35.0 55.9 -33.35 55.9 -31.7 55.9 -30.5 57.1 -29.35 58.25 -29.35 59.9 -29.35 61.55 -30.5 62.75 -31.7 63.9 -33.35 63.9 -35.0 63.9 -36.15 62.75 -37.35 61.55 -37.35 59.9 -37.35 58.25 -36.15 57.1" fill="#000000" fill-opacity="0.5019608" fill-rule="evenodd" stroke="none"/>
    <path d="M50.9 -2.35 L51.3 -2.1 51.45 -2.0 51.85 -0.45 Q51.9 1.45 50.05 3.05 47.95 4.9 7.75 16.7 L7.75 21.8 7.75 22.45 8.5 23.1 Q9.75 24.4 9.8 26.3 L9.9 35.75 9.9 35.85 9.9 36.5 9.85 36.75 16.5 35.05 Q24.45 33.9 30.95 36.05 L33.05 36.8 34.0 37.85 Q34.45 38.6 34.35 39.4 L34.05 40.5 35.5 41.4 Q36.7 42.55 36.7 44.25 L36.7 44.3 Q45.0 47.3 50.85 50.4 54.4 53.6 51.05 56.4 L50.3 56.05 50.45 57.4 Q50.5 59.7 48.9 61.35 47.3 62.95 45.05 63.0 42.75 63.05 41.15 61.45 39.5 59.85 39.45 57.55 39.4 55.3 41.0 53.65 L41.8 53.0 Q33.65 50.55 22.6 48.9 L8.5 47.35 8.15 69.2 7.95 69.4 7.75 69.55 Q8.4 69.8 9.0 70.35 10.15 71.5 10.2 73.15 L10.25 78.05 Q10.3 79.7 9.15 80.9 8.0 82.05 6.3 82.1 4.65 82.15 3.45 81.0 2.3 79.85 2.25 78.15 L2.2 73.3 Q2.15 71.65 3.3 70.45 L4.2 69.75 3.8 69.5 3.65 69.4 3.35 47.35 -11.4 49.4 Q-22.35 51.4 -30.4 54.05 -30.0 54.3 -29.6 54.7 -28.0 56.3 -27.95 58.55 -27.9 60.85 -29.5 62.5 -31.1 64.1 -33.35 64.15 -35.65 64.2 -37.25 62.6 -38.9 61.0 -38.95 58.7 L-38.8 57.4 -39.6 57.75 Q-43.0 55.05 -39.55 51.75 -33.65 48.4 -25.2 45.05 L-25.0 45.0 -24.4 44.75 -24.4 44.4 Q-24.45 42.7 -23.25 41.5 L-22.4 40.85 Q-22.8 39.7 -22.3 38.65 L-21.4 37.6 Q-14.2 34.3 -4.85 35.35 -1.1 35.8 1.7 36.65 L1.6 35.85 1.45 26.45 Q1.4 24.55 2.6 23.15 3.05 22.65 3.55 22.35 L3.5 21.85 3.5 17.95 M3.4 17.95 L0.3 18.85 Q-3.35 19.9 -16.9 15.95 -29.3 12.3 -32.35 10.35 -33.1 9.9 -33.6 3.35 M7.75 16.7 L7.65 16.7 M33.85 40.8 L34.05 40.5" fill="none" stroke="#000000" stroke-linecap="round" stroke-linejoin="miter-clip" stroke-miterlimit="3.0" stroke-width="1.0"/>
    <path d="M3.5 17.95 L3.45 17.95 3.4 17.95 M-33.6 3.35 Q-13.95 13.65 -0.2 12.45 L0.75 12.35 2.3 12.15 Q7.45 11.3 9.9 9.0 L10.15 6.35 Q26.65 -5.05 40.4 -4.8 47.15 -4.65 50.9 -2.35 M7.65 16.7 L3.5 17.95 M7.75 22.45 Q7.5 23.85 5.65 23.85 3.85 23.95 3.55 22.35 M9.85 36.75 L9.7 37.35 9.15 38.5 12.65 38.65 Q19.0 39.15 26.2 41.0 L28.6 41.65 29.8 41.45 33.85 40.8 M9.15 38.5 L8.75 39.05 8.3 39.5 8.6 40.05 8.5 47.35 M2.5 38.6 L2.9 39.1 3.4 39.55 5.2 38.35 Q7.2 37.6 8.3 39.5 M3.35 47.35 L3.2 39.65 3.4 39.55 M2.5 38.6 L0.35 38.7 Q-7.75 39.2 -17.3 42.25 -20.75 43.3 -24.4 44.75 M2.5 38.6 L1.95 37.55 1.7 36.65 M29.4 41.9 L28.6 41.65 M29.4 41.9 L29.75 41.5 29.8 41.45 M36.7 44.3 L36.3 44.15 31.45 42.55 29.4 41.9 M7.75 69.55 Q5.95 70.65 4.2 69.75 M41.8 53.0 Q46.55 54.4 50.3 56.05 M-22.4 40.85 L-22.05 41.6 -17.3 42.25 M-30.4 54.05 Q-35.1 55.6 -38.8 57.4" fill="none" stroke="#000000" stroke-linecap="round" stroke-linejoin="miter-clip" stroke-miterlimit="3.0" stroke-opacity="0.6" stroke-width="1.0"/>
  </g>
</svg>
