<?xml version="1.0" encoding="UTF-8" standalone="no"?>
<svg xmlns:xlink="http://www.w3.org/1999/xlink" height="124.0px" width="151.1px" xmlns="http://www.w3.org/2000/svg">
  <g transform="matrix(1.0, 0.0, 0.0, 1.0, 75.55, 62.0)">
    <path d="M-75.05 -53.25 L-75.05 -61.5 75.05 -61.5 75.05 -53.25 -75.05 -53.25" fill="#ffffff" fill-opacity="0.0" fill-rule="evenodd" stroke="none"/>
    <path d="M75.05 -53.25 L75.05 -49.65 71.65 -49.65 -69.95 -49.65 -75.05 -49.65 -75.05 -53.25 75.05 -53.25" fill="#000000" fill-opacity="0.101960786" fill-rule="evenodd" stroke="none"/>
    <path d="M-38.95 61.5 L-42.9 61.5 -42.9 -7.35 40.6 -7.35 40.6 61.5 36.95 61.5 36.95 -2.75 -38.95 -2.75 -38.95 61.5" fill="#000000" fill-opacity="0.3019608" fill-rule="evenodd" stroke="none"/>
    <path d="M36.95 61.5 L-38.95 61.5 -38.95 -2.75 36.95 -2.75 36.95 61.5" fill="#000000" fill-opacity="0.8" fill-rule="evenodd" stroke="none"/>
    <path d="M75.05 -53.25 L75.05 -49.65 71.65 -49.65 M-69.95 -49.65 L-75.05 -49.65 -75.05 -53.25 -75.05 -61.5 75.05 -61.5 75.05 -53.25" fill="none" stroke="#000000" stroke-linecap="round" stroke-linejoin="miter-clip" stroke-miterlimit="3.0" stroke-width="1.0"/>
    <path d="M71.65 -49.65 L-69.95 -49.65 M-38.95 61.5 L-42.9 61.5 -42.9 -7.35 40.6 -7.35 40.6 61.5 M36.95 61.5 L-38.95 61.5" fill="none" stroke="#000000" stroke-linecap="round" stroke-linejoin="miter-clip" stroke-miterlimit="3.0" stroke-opacity="0.6" stroke-width="1.0"/>
    <path d="M40.6 61.5 L36.95 61.5 36.95 -2.75 -38.95 -2.75 -38.95 61.5" fill="none" stroke="#000000" stroke-linecap="round" stroke-linejoin="miter-clip" stroke-miterlimit="3.0" stroke-opacity="0.4" stroke-width="1.0"/>
  </g>
</svg>
