<?xml version="1.0" encoding="UTF-8" standalone="no"?>
<svg xmlns:xlink="http://www.w3.org/1999/xlink" height="608.95px" width="609.05px" xmlns="http://www.w3.org/2000/svg">
  <g transform="matrix(1.0, 0.0, 0.0, 1.0, 304.5, 304.45)">
    <path d="M-290.05 73.65 L-179.05 91.6 -167.15 288.35 -290.05 288.35 -290.05 73.65 M-300.25 -304.45 L-189.25 -286.5 -188.1 -104.85 -304.5 -112.4 -300.25 -304.45 M67.45 98.25 L79.35 295.0 -43.55 295.0 -43.55 80.3 67.45 98.25 M178.75 106.0 L289.75 123.95 301.65 304.5 178.75 304.5 178.75 106.0 M67.7 -258.85 L68.85 -77.2 -47.55 -84.75 -43.3 -276.8 67.7 -258.85 M203.65 -243.8 L303.55 -227.65 304.55 -64.15 199.8 -70.95 203.65 -243.8" fill="#ffffff" fill-opacity="0.0" fill-rule="evenodd" stroke="none"/>
  </g>
</svg>
