<?xml version="1.0" encoding="UTF-8" standalone="no"?>
<svg xmlns:xlink="http://www.w3.org/1999/xlink" height="456.5px" width="926.55px" xmlns="http://www.w3.org/2000/svg">
  <g transform="matrix(1.0, 0.0, 0.0, 1.0, 0.5, 0.5)">
    <path d="M463.9 29.05 L490.05 29.4 463.9 29.55 463.9 29.05" fill="#e8e8e8" fill-rule="evenodd" stroke="none"/>
    <path d="M300.35 28.15 L300.25 28.1 301.05 28.15 463.9 29.05 463.9 29.55 490.05 29.4 625.35 30.0 622.35 42.6 463.9 45.6 463.9 29.55 463.9 45.6 322.2 48.3 Q323.2 279.3 320.9 352.65 L302.45 352.65 302.2 74.9 301.85 55.35 301.65 35.75 301.05 28.15 300.35 28.15 301.05 28.15 300.35 28.15" fill="#919191" fill-rule="evenodd" stroke="none"/>
    <path d="M640.2 352.65 L666.8 352.65 666.8 370.5 868.6 370.5 868.6 409.9 925.55 409.9 925.55 455.5 0.0 455.5 0.0 409.9 68.4 409.9 68.4 370.5 248.85 370.5 248.85 352.65 288.0 352.65 302.45 352.65 320.9 352.65 463.9 352.65 625.4 352.65 640.2 352.65 M446.05 191.15 L446.05 234.1 429.7 234.1 429.7 191.15 446.05 191.15 M481.75 232.55 L481.75 190.0 498.5 190.0 498.5 232.55 481.75 232.55 M666.8 370.5 L248.85 370.5 666.8 370.5 M868.6 409.9 L68.4 409.9 868.6 409.9" fill="#000000" fill-opacity="0.4" fill-rule="evenodd" stroke="none"/>
    <path d="M288.0 28.05 L243.55 27.75 243.55 0.0 691.9 0.0 691.9 30.4 640.2 30.1 625.4 30.0 625.35 30.0 490.05 29.4 463.9 29.05 301.05 28.15 300.25 28.1 300.35 28.15 288.0 28.05" fill="#000000" fill-opacity="0.2" fill-rule="evenodd" stroke="none"/>
    <path d="M625.35 30.0 L625.4 30.0 625.4 352.65 463.9 352.65 463.9 45.6 463.9 352.65 320.9 352.65 Q323.2 279.3 322.2 48.3 L463.9 45.6 622.35 42.6 625.35 30.0 M500.0 171.0 L591.2 167.2 595.0 66.5 498.1 66.5 500.0 171.0 M446.05 191.15 L429.7 191.15 429.7 234.1 446.05 234.1 446.05 191.15 M429.7 171.0 L431.6 66.5 334.75 66.5 338.55 167.2 429.7 171.0 M481.75 232.55 L498.5 232.55 498.5 190.0 481.75 190.0 481.75 232.55" fill="#ffffff" fill-opacity="0.0" fill-rule="evenodd" stroke="none"/>
    <path d="M640.2 30.1 L640.2 352.65 625.4 352.65 625.4 30.0 640.2 30.1 M288.0 352.65 L288.0 28.05 300.35 28.15 301.05 28.15 301.65 35.75 301.85 55.35 302.2 74.9 302.45 352.65 288.0 352.65 M301.85 55.35 L301.05 28.15 301.85 55.35" fill="#000000" fill-opacity="0.09803922" fill-rule="evenodd" stroke="none"/>
    <path d="M288.0 28.05 L243.55 27.75 243.55 0.0 691.9 0.0 691.9 30.4 640.2 30.1 M625.35 30.0 L625.4 30.0" fill="none" stroke="#000000" stroke-linecap="butt" stroke-linejoin="round" stroke-width="1.0"/>
    <path d="M640.2 30.1 L640.2 352.65 666.8 352.65 666.8 370.5 868.6 370.5 868.6 409.9 925.55 409.9 925.55 455.5 0.0 455.5 0.0 409.9 68.4 409.9 68.4 370.5 248.85 370.5 248.85 352.65 288.0 352.65 288.0 28.05 M463.9 29.55 L463.9 29.05 M446.05 191.15 L446.05 234.1 429.7 234.1 429.7 191.15 446.05 191.15 M481.75 232.55 L481.75 190.0 498.5 190.0 498.5 232.55 481.75 232.55 M68.4 409.9 L868.6 409.9 M248.85 370.5 L666.8 370.5" fill="none" stroke="#000000" stroke-linecap="butt" stroke-linejoin="miter-clip" stroke-miterlimit="4.0" stroke-width="1.0"/>
    <path d="M463.9 45.6 L463.9 352.65 625.4 352.65 625.4 30.0 M500.0 171.0 L591.2 167.2 595.0 66.5 498.1 66.5 500.0 171.0 M463.9 29.55 L463.9 45.6 M320.9 352.65 L463.9 352.65 M429.7 171.0 L338.55 167.2 334.75 66.5 431.6 66.5 429.7 171.0 M625.4 352.65 L640.2 352.65 M301.85 55.35 L302.2 74.9 302.45 352.65 320.9 352.65 M301.05 28.15 L301.85 55.35 M288.0 352.65 L302.45 352.65" fill="none" stroke="#000000" stroke-linecap="butt" stroke-linejoin="miter-clip" stroke-miterlimit="4.0" stroke-opacity="0.6" stroke-width="1.0"/>
    <path d="M288.0 28.05 L300.35 28.15 301.05 28.15 463.9 29.05 490.05 29.4 625.35 30.0 M625.4 30.0 L640.2 30.1" fill="none" stroke="#000000" stroke-linecap="butt" stroke-linejoin="round" stroke-opacity="0.6" stroke-width="1.0"/>
  </g>
</svg>
