<?xml version="1.0" encoding="UTF-8" standalone="no"?>
<svg xmlns:xlink="http://www.w3.org/1999/xlink" height="9.7px" width="88.3px" xmlns="http://www.w3.org/2000/svg">
  <g transform="matrix(1.0, 0.0, 0.0, 1.0, 44.15, 16.8)">
    <path d="M13.65 -16.3 L13.9 -7.6 -40.35 -10.4 -43.65 -10.65 -43.65 -16.3 13.65 -16.3" fill="#ffffff" fill-opacity="0.2" fill-rule="evenodd" stroke="none"/>
    <path d="M13.65 -16.3 L27.7 -16.05 Q37.5 -15.8 43.65 -16.15 L43.0 -8.65 40.35 -8.45 13.9 -7.6 13.65 -16.3" fill="#ffffff" fill-opacity="0.101960786" fill-rule="evenodd" stroke="none"/>
    <path d="M40.35 -8.45 L43.0 -8.65 43.65 -16.15 Q37.5 -15.8 27.7 -16.05 L13.65 -16.3 -43.65 -16.3 -43.65 -10.65 -40.35 -10.4" fill="none" stroke="#000000" stroke-linecap="round" stroke-linejoin="miter-clip" stroke-miterlimit="3.0" stroke-width="1.0"/>
    <path d="M13.9 -7.6 L40.35 -8.45" fill="none" stroke="#000000" stroke-linecap="round" stroke-linejoin="miter-clip" stroke-miterlimit="3.0" stroke-opacity="0.6" stroke-width="1.0"/>
    <path d="M13.65 -16.3 L13.9 -7.6 -40.35 -10.4" fill="none" stroke="#000000" stroke-linecap="round" stroke-linejoin="round" stroke-opacity="0.6" stroke-width="0.6000000000000001"/>
  </g>
</svg>
