<?xml version="1.0" encoding="UTF-8" standalone="no"?>
<svg xmlns:xlink="http://www.w3.org/1999/xlink" height="19.55px" width="29.25px" xmlns="http://www.w3.org/2000/svg">
  <g transform="matrix(1.0, 0.0, 0.0, 1.0, 14.6, 13.15)">
    <path d="M3.55 -12.2 Q7.15 -11.35 10.0 -8.5 13.9 -4.6 14.15 0.8 L14.15 1.3 14.15 1.4 14.15 1.55 14.15 1.85 Q6.15 5.45 -4.75 4.15 6.15 5.45 14.15 1.85 L14.15 2.55 14.05 3.55 Q7.65 5.9 -0.1 5.9 -7.65 5.9 -14.0 3.6 L-14.05 3.25 -14.1 2.25 -9.05 3.5 -4.75 4.15 Q-5.7 -2.1 -3.45 -7.9 -2.2 -10.75 -1.0 -12.6 L0.0 -12.65 3.55 -12.2" fill="#ffffff" fill-opacity="0.0" fill-rule="evenodd" stroke="none"/>
    <path d="M-1.0 -12.6 Q-2.2 -10.75 -3.45 -7.9 -5.7 -2.1 -4.75 4.15 L-9.05 3.5 -14.1 2.25 Q-14.2 -2.05 -12.5 -4.9 L-11.45 -6.6 Q-9.65 -8.65 -7.85 -10.0 -5.55 -11.45 -3.65 -12.05 L-1.0 -12.6" fill="#000000" fill-opacity="0.101960786" fill-rule="evenodd" stroke="none"/>
    <path d="M14.15 1.85 L14.15 1.55 14.15 1.4 14.15 1.3 14.15 0.8 Q13.9 -4.6 10.0 -8.5 7.15 -11.35 3.55 -12.2 M14.15 1.85 L14.15 2.55 14.05 3.55 M-14.0 3.6 L-14.05 3.25 -14.1 2.25 Q-14.2 -2.05 -12.5 -4.9 L-11.45 -6.6 Q-9.65 -8.65 -7.85 -10.0 -5.55 -11.45 -3.65 -12.05" fill="none" stroke="#000000" stroke-linecap="round" stroke-linejoin="miter-clip" stroke-miterlimit="3.0" stroke-width="1.0"/>
    <path d="M-4.75 4.15 Q6.15 5.45 14.15 1.85 M14.05 3.55 Q7.65 5.9 -0.1 5.9 -7.65 5.9 -14.0 3.6 M-14.1 2.25 L-9.05 3.5 -4.75 4.15" fill="none" stroke="#000000" stroke-linecap="round" stroke-linejoin="miter-clip" stroke-miterlimit="3.0" stroke-opacity="0.4" stroke-width="1.0"/>
    <path d="M3.55 -12.2 L0.0 -12.65 -1.0 -12.6 -3.65 -12.05" fill="none" stroke="#000000" stroke-linecap="round" stroke-linejoin="miter-clip" stroke-miterlimit="3.0" stroke-opacity="0.6" stroke-width="1.0"/>
  </g>
</svg>
