<?xml version="1.0" encoding="UTF-8" standalone="no"?>
<svg xmlns:xlink="http://www.w3.org/1999/xlink" height="130.7px" width="547.0px" xmlns="http://www.w3.org/2000/svg">
  <g transform="matrix(1.0, 0.0, 0.0, 1.0, 273.5, 65.3)">
    <path d="M-109.95 64.4 L-112.7 63.2 -112.7 63.3 -173.6 63.8 -173.6 63.7 -177.4 63.7 -177.4 63.8 -241.1 63.8 -272.3 64.9 -271.8 33.1 -269.3 33.25 -269.3 31.45 -271.9 31.5 -273.0 13.9 -271.9 0.8 -271.0 0.85 -271.0 -2.25 -272.0 -2.3 -273.0 -20.9 -272.5 -32.4 -269.8 -32.3 -269.8 -33.6 -270.8 -33.6 -270.8 -62.7 -209.9 -62.7 -209.9 -62.55 -206.7 -62.55 -206.7 -63.8 -141.85 -63.85 -141.4 -64.3 -82.1 -62.7 -82.1 -62.15 -78.8 -62.15 -78.8 -62.6 -18.4 -63.7 -18.35 -63.2 -14.6 -63.2 -14.6 -63.7 44.7 -63.2 44.7 -62.85 49.55 -62.85 49.6 -63.7 110.0 -64.8 109.85 -63.05 112.7 -63.05 112.7 -63.2 173.6 -63.7 241.1 -63.7 272.3 -64.8 271.8 -33.0 269.35 -33.1 269.35 -31.35 271.9 -31.4 273.0 -13.8 271.9 -0.7 269.5 -0.75 269.5 2.3 272.0 2.4 273.0 21.0 272.5 32.5 268.25 32.35 268.25 33.75 270.8 33.7 270.8 62.8 209.9 62.8 209.95 61.2 206.75 61.2 206.7 63.9 146.3 63.9 146.3 62.2 142.5 62.2 142.5 63.3 141.4 64.4 82.1 62.8 82.15 61.7 78.8 61.7 78.8 62.7 18.4 63.8 18.35 63.25 14.6 63.25 14.6 63.8 -44.7 63.3 -44.7 62.7 -49.55 62.7 -49.6 63.8 -109.95 64.9 -109.95 64.4 M-142.5 -63.2 L-141.85 -63.85 -142.5 -63.2" fill="#ffffff" fill-opacity="0.0" fill-rule="evenodd" stroke="none"/>
    <path d="M-109.95 64.4 L-112.7 63.2 -112.7 63.3 -173.6 63.8 -173.6 63.7 -177.4 63.7 -177.4 63.8 -241.1 63.8 -272.3 64.9 -271.8 33.1 -269.3 33.25 -269.3 31.45 -271.9 31.5 -273.0 13.9 -271.9 0.8 -271.0 0.85 -271.0 -2.25 -272.0 -2.3 -273.0 -20.9 -272.5 -32.4 -269.8 -32.3 -269.8 -33.6 -270.8 -33.6 -270.8 -62.7 -209.9 -62.7 -209.9 -62.55 -206.7 -62.55 -206.7 -63.8 -141.85 -63.85 -141.4 -64.3 -82.1 -62.7 -82.1 -62.15 -78.8 -62.15 -78.8 -62.6 -18.4 -63.7 -18.35 -63.2 -14.6 -63.2 -14.6 -63.7 44.7 -63.2 44.7 -62.85 49.55 -62.85 49.6 -63.7 110.0 -64.8 109.85 -63.05 112.7 -63.05 112.7 -63.2 173.6 -63.7 241.1 -63.7 272.3 -64.8 271.8 -33.0 269.35 -33.1 269.35 -31.35 271.9 -31.4 273.0 -13.8 271.9 -0.7 269.5 -0.75 269.5 2.3 272.0 2.4 273.0 21.0 272.5 32.5 268.25 32.35 268.25 33.75 270.8 33.7 270.8 62.8 209.9 62.8 209.95 61.2 206.75 61.2 206.7 63.9 146.3 63.9 146.3 62.2 142.5 62.2 142.5 63.3 141.4 64.4 82.1 62.8 82.15 61.7 78.8 61.7 78.8 62.7 18.4 63.8 18.35 63.25 14.6 63.25 14.6 63.8 -44.7 63.3 -44.7 62.7 -49.55 62.7 -49.6 63.8 -109.95 64.9 -110.0 64.9 -109.95 64.4 M-141.85 -63.85 L-142.5 -63.2" fill="none" stroke="#000000" stroke-linecap="round" stroke-linejoin="round" stroke-width="1.0"/>
  </g>
</svg>
