<?xml version="1.0" encoding="UTF-8" standalone="no"?>
<svg xmlns:xlink="http://www.w3.org/1999/xlink" height="49.05px" width="38.9px" xmlns="http://www.w3.org/2000/svg">
  <g transform="matrix(1.0, 0.0, 0.0, 1.0, 0.65, 0.5)">
    <path d="M24.45 21.6 Q18.0 18.3 13.85 17.8 11.25 17.5 6.4 19.1 L4.0 20.05 Q4.75 9.75 9.0 4.35 10.45 2.5 12.1 1.45 L13.5 0.8 Q4.65 3.35 2.15 13.35 0.95 18.4 1.45 22.9 L12.3 19.35 14.25 18.95 Q17.05 18.85 21.15 20.4 L24.45 21.6 M6.3 22.65 L12.7 20.8 Q16.35 20.1 19.3 21.2 L21.35 22.15 23.4 23.0 Q25.95 23.85 30.3 21.95 L36.9 21.75 30.3 21.95 Q25.95 23.85 23.4 23.0 L21.35 22.15 19.3 21.2 Q16.35 20.1 12.7 20.8 L6.3 22.65 M32.75 19.55 L35.7 20.9 34.5 18.65 31.9 18.5 28.25 21.25 32.75 19.55 M36.9 21.75 L37.7 22.9 37.0 24.65 Q37.65 29.0 36.75 29.7 L35.25 30.85 32.85 42.1 28.95 48.05 17.65 48.05 Q10.8 43.0 9.9 41.7 5.3 35.2 3.3 30.6 L2.0 26.7 Q1.9 26.25 1.0 25.5 L0.15 24.85 0.0 20.15 Q-0.1 17.45 0.6 13.95 L1.3 11.05 Q3.85 3.6 11.0 1.1 14.55 -0.15 17.6 0.05 L20.05 0.0 Q22.55 0.1 24.9 0.8 32.4 3.15 35.3 11.05 L35.55 13.85 35.6 19.9 36.9 21.75 M13.35 32.85 L8.65 30.1 Q8.05 29.55 8.2 26.9 L8.5 24.4 8.2 26.9 Q8.05 29.55 8.65 30.1 L13.35 32.85 M5.8 31.3 Q8.4 36.5 10.6 40.3 L17.35 45.35 12.15 39.6 5.2 26.3 3.65 26.8 5.8 31.3 M27.2 46.65 L28.05 40.95 Q25.1 40.25 22.25 41.0 L22.15 41.05 18.35 42.9 19.6 46.8 18.35 42.9 22.15 41.05 22.25 41.0 Q25.1 40.25 28.05 40.95 29.3 41.25 30.6 41.85 L29.3 46.45 30.6 41.85 Q29.3 41.25 28.05 40.95 L27.2 46.65 M22.6 46.7 L22.15 41.05 22.6 46.7" fill="#ffffff" fill-opacity="0.0" fill-rule="evenodd" stroke="none"/>
    <path d="M24.45 21.6 L21.15 20.4 Q17.05 18.85 14.25 18.95 L12.3 19.35 1.45 22.9 Q0.95 18.4 2.15 13.35 4.65 3.35 13.5 0.8 L12.1 1.45 Q10.45 2.5 9.0 4.35 4.75 9.75 4.0 20.05 L6.4 19.1 Q11.25 17.5 13.85 17.8 18.0 18.3 24.45 21.6 M32.75 19.55 L28.25 21.25 31.9 18.5 34.5 18.65 35.7 20.9 32.75 19.55 M5.8 31.3 L3.65 26.8 5.2 26.3 12.15 39.6 17.35 45.35 10.6 40.3 Q8.4 36.5 5.8 31.3" fill="#ffffff" fill-opacity="0.8" fill-rule="evenodd" stroke="none"/>
    <path d="M36.9 21.75 L35.6 19.9 35.55 13.85 35.3 11.05 Q32.4 3.15 24.9 0.8 22.55 0.1 20.05 0.0 L17.6 0.05 Q14.55 -0.15 11.0 1.1 3.85 3.6 1.3 11.05 L0.6 13.95 Q-0.1 17.45 0.0 20.15 L0.15 24.85 1.0 25.5 Q1.9 26.25 2.0 26.7 L3.3 30.6 Q5.3 35.2 9.9 41.7 10.8 43.0 17.65 48.05 L28.95 48.05 32.85 42.1 35.25 30.85 36.75 29.7 Q37.65 29.0 37.0 24.65 L37.7 22.9 36.9 21.75" fill="none" stroke="#000000" stroke-linecap="round" stroke-linejoin="miter-clip" stroke-miterlimit="10.0" stroke-width="1.0"/>
    <path d="M8.5 24.4 L8.2 26.9 Q8.05 29.55 8.65 30.1 L13.35 32.85" fill="none" stroke="#000000" stroke-linecap="butt" stroke-linejoin="miter-clip" stroke-miterlimit="10.0" stroke-width="1.0"/>
    <path d="M36.9 21.75 L30.3 21.95 Q25.95 23.85 23.4 23.0 L21.35 22.15 19.3 21.2 Q16.35 20.1 12.7 20.8 L6.3 22.65 M19.6 46.8 L18.35 42.9 22.15 41.05 22.25 41.0 Q25.1 40.25 28.05 40.95 29.3 41.25 30.6 41.85 L29.3 46.45 M22.15 41.05 L22.6 46.7 M28.05 40.95 L27.2 46.65" fill="none" stroke="#000000" stroke-linecap="round" stroke-linejoin="miter-clip" stroke-miterlimit="10.0" stroke-opacity="0.4" stroke-width="1.0"/>
  </g>
</svg>
