<?xml version="1.0" encoding="UTF-8" standalone="no"?>
<svg xmlns:xlink="http://www.w3.org/1999/xlink" height="25.6px" width="49.75px" xmlns="http://www.w3.org/2000/svg">
  <g transform="matrix(1.0, 0.0, 0.0, 1.0, 0.5, 0.5)">
    <path d="M7.4 18.7 Q7.45 16.3 7.8 13.6 8.55 7.4 10.15 5.6 15.5 -0.3 26.25 0.0 33.3 0.2 37.65 6.35 41.7 12.15 40.35 18.55 46.05 19.8 47.95 20.6 48.9 20.95 48.7 21.1 L17.55 22.5 0.0 21.95 Q-0.2 21.25 3.85 19.8 L7.4 18.7 7.9 18.55 7.4 18.7" fill="#ffffff" fill-opacity="0.0" fill-rule="evenodd" stroke="none"/>
    <path d="M7.4 18.7 L3.85 19.8 Q-0.2 21.25 0.0 21.95 L17.55 22.5 48.7 21.1 Q48.9 20.95 47.95 20.6 46.05 19.8 40.35 18.55 41.7 12.15 37.65 6.35 33.3 0.2 26.25 0.0 15.5 -0.3 10.15 5.6 8.55 7.4 7.8 13.6 7.45 16.3 7.4 18.7 L7.9 18.55" fill="none" stroke="#000000" stroke-linecap="round" stroke-linejoin="miter-clip" stroke-miterlimit="10.0" stroke-width="1.0"/>
  </g>
</svg>
