<?xml version="1.0" encoding="UTF-8" standalone="no"?>
<svg xmlns:xlink="http://www.w3.org/1999/xlink" height="57.35px" width="21.95px" xmlns="http://www.w3.org/2000/svg">
  <g transform="matrix(1.0, 0.0, 0.0, 1.0, 10.45, 25.95)">
    <path d="M-9.65 -25.15 L0.35 -25.95 10.25 -25.05 10.7 -13.0 Q11.15 -1.75 10.0 12.95 8.85 27.65 5.55 29.8 -1.95 31.7 -6.15 29.8 -9.15 10.1 -9.6 -1.55 -9.95 -8.9 -9.65 -25.15" fill="#ffffff" fill-opacity="0.0" fill-rule="evenodd" stroke="none"/>
    <path d="M10.25 -25.05 L10.7 -13.0 Q11.15 -1.75 10.0 12.95 8.85 27.65 5.55 29.8 -1.95 31.7 -6.15 29.8 -9.15 10.1 -9.6 -1.55 -9.95 -8.9 -9.65 -25.15" fill="none" stroke="#000000" stroke-linecap="square" stroke-linejoin="round" stroke-width="1.0"/>
    <path d="M-8.75 9.7 L10.25 9.7 M-9.8 -10.7 L10.75 -10.7" fill="none" stroke="#000000" stroke-linecap="round" stroke-linejoin="round" stroke-opacity="0.09803922" stroke-width="1.0"/>
  </g>
</svg>
