<?xml version="1.0" encoding="UTF-8" standalone="no"?>
<svg xmlns:xlink="http://www.w3.org/1999/xlink" height="19.55px" width="43.85px" xmlns="http://www.w3.org/2000/svg">
  <g transform="matrix(1.0, 0.0, 0.0, 1.0, 0.5, 3.7)">
    <path d="M6.15 10.35 L6.9 9.9 6.95 9.9 6.15 10.35" fill="#5cb1d2" fill-rule="evenodd" stroke="none"/>
    <path d="M36.8 9.6 L40.1 11.4 Q43.75 13.65 42.55 14.05 41.65 14.35 37.9 13.45 33.05 12.3 29.75 12.05 L20.35 12.5 Q16.3 13.2 14.3 14.05 L8.8 13.8 Q7.35 13.3 6.8 12.65 L4.15 12.85 3.3 12.45 2.05 10.75 2.3 10.55 3.05 11.05 3.5 11.1 4.15 11.1 5.0 10.85 5.5 10.65 6.0 10.4 6.15 10.35 6.95 9.9 6.95 9.95 7.1 9.7 18.8 8.2 Q31.45 7.1 36.25 9.3 L36.8 9.6 M6.8 12.65 Q5.95 11.55 6.95 9.95 5.95 11.55 6.8 12.65" fill="#ffffff" fill-opacity="0.047058824" fill-rule="evenodd" stroke="none"/>
    <path d="M37.25 8.9 L36.8 9.6 36.25 9.3 Q31.45 7.1 18.8 8.2 L7.1 9.7 6.95 9.95 6.95 9.9 6.9 9.9 6.15 10.35 6.0 10.4 5.5 10.65 5.0 10.85 4.15 11.1 3.5 11.1 3.05 11.05 2.3 10.55 1.55 9.3 1.05 8.2 0.6 6.75 Q1.35 7.4 2.0 7.4 2.7 7.3 3.7 5.8 4.85 4.15 5.35 3.85 5.95 8.25 8.3 6.55 12.6 3.35 12.85 3.3 13.75 3.15 17.4 5.0 20.7 6.05 20.9 2.65 22.55 2.55 24.9 3.55 28.15 4.95 28.7 5.05 L28.75 4.2 28.75 4.1 28.75 3.35 Q29.65 3.2 31.0 3.8 L33.2 4.55 37.8 4.8 Q38.45 4.75 39.15 4.2 38.95 5.35 37.75 7.8 L37.25 8.9 M29.1 5.6 L28.75 4.1 29.1 5.6" fill="#000000" fill-opacity="0.2" fill-rule="evenodd" stroke="none"/>
    <path d="M0.6 6.75 L0.0 4.2 Q-0.25 2.85 2.15 0.9 L5.6 -1.8 Q6.5 -2.85 7.85 -2.95 L10.4 -3.1 Q14.7 -3.3 21.15 -3.1 24.95 -2.9 31.7 -2.95 33.2 -2.4 35.75 -0.4 38.75 2.0 39.2 3.8 39.35 4.4 38.0 7.3 L37.25 8.9 37.75 7.8 Q38.95 5.35 39.15 4.2 38.45 4.75 37.8 4.8 L33.2 4.55 31.0 3.8 Q29.65 3.2 28.75 3.35 L28.75 4.1 28.75 4.2 28.7 5.05 Q28.15 4.95 24.9 3.55 22.55 2.55 20.9 2.65 20.7 6.05 17.4 5.0 13.75 3.15 12.85 3.3 12.6 3.35 8.3 6.55 5.95 8.25 5.35 3.85 4.85 4.15 3.7 5.8 2.7 7.3 2.0 7.4 1.35 7.4 0.6 6.75 M24.25 -2.0 Q26.1 -0.75 27.4 1.2 28.3 2.55 28.75 4.1 28.3 2.55 27.4 1.2 26.1 -0.75 24.25 -2.0 M9.1 0.45 L8.15 3.85 Q7.65 6.0 6.85 6.75 6.3 6.15 6.25 5.0 L6.3 2.9 6.25 5.0 Q6.3 6.15 6.85 6.75 7.65 6.0 8.15 3.85 L9.1 0.45 M18.6 -1.3 Q17.5 3.4 18.05 4.75 17.5 3.4 18.6 -1.3" fill="#ffffff" fill-opacity="0.0" fill-rule="evenodd" stroke="none"/>
    <path d="M0.6 6.75 L0.0 4.2 Q-0.25 2.85 2.15 0.9 L5.6 -1.8 Q6.5 -2.85 7.85 -2.95 L10.4 -3.1 Q14.7 -3.3 21.15 -3.1 24.95 -2.9 31.7 -2.95 33.2 -2.4 35.75 -0.4 38.75 2.0 39.2 3.8 39.35 4.4 38.0 7.3 L37.25 8.9 36.8 9.6 M4.15 12.85 L3.3 12.45 2.05 10.75 2.3 10.55 1.55 9.3 1.05 8.2 0.6 6.75" fill="none" stroke="#000000" stroke-linecap="round" stroke-linejoin="round" stroke-width="1.0"/>
    <path d="M36.8 9.6 L40.1 11.4 Q43.75 13.65 42.55 14.05 41.65 14.35 37.9 13.45 33.05 12.3 29.75 12.05 L20.35 12.5 Q16.3 13.2 14.3 14.05 L8.8 13.8 Q7.35 13.3 6.8 12.65 L4.15 12.85 M6.95 9.95 L7.1 9.7 18.8 8.2 Q31.45 7.1 36.25 9.3 L36.8 9.6 M6.95 9.95 Q5.95 11.55 6.8 12.65" fill="none" stroke="#000000" stroke-linecap="round" stroke-linejoin="miter-clip" stroke-miterlimit="10.0" stroke-width="1.0"/>
    <path d="M6.15 10.35 L6.0 10.4 5.5 10.65 5.0 10.85 4.15 11.1 3.5 11.1 3.05 11.05 2.3 10.55 M6.15 10.35 L6.95 9.9" fill="none" stroke="#000000" stroke-linecap="round" stroke-linejoin="round" stroke-opacity="0.4" stroke-width="1.0"/>
    <path d="M28.75 4.1 Q28.3 2.55 27.4 1.2 26.1 -0.75 24.25 -2.0 M28.75 4.1 L29.1 5.6 M6.3 2.9 L6.25 5.0 Q6.3 6.15 6.85 6.75 7.65 6.0 8.15 3.85 L9.1 0.45 M18.05 4.75 Q17.5 3.4 18.6 -1.3" fill="none" stroke="#000000" stroke-linecap="round" stroke-linejoin="miter-clip" stroke-miterlimit="10.0" stroke-opacity="0.4" stroke-width="1.0"/>
  </g>
</svg>
