<?xml version="1.0" encoding="UTF-8" standalone="no"?>
<svg xmlns:xlink="http://www.w3.org/1999/xlink" height="36.05px" width="76.75px" xmlns="http://www.w3.org/2000/svg">
  <g transform="matrix(1.0, 0.0, 0.0, 1.0, 0.5, 0.5)">
    <path d="M55.1 25.6 L55.9 25.7 Q68.75 27.2 75.7 29.9 76.35 31.35 70.25 32.85 64.3 34.3 55.1 35.05 55.8 31.35 55.1 25.6 M0.85 28.75 Q12.75 26.35 23.55 25.4 22.95 29.85 23.65 35.0 13.2 34.35 6.75 33.0 0.0 31.6 0.0 29.9 0.0 29.3 0.85 28.75" fill="#000000" fill-opacity="0.29803923" fill-rule="evenodd" stroke="none"/>
    <path d="M44.4 17.0 L44.55 17.55 43.65 15.95 43.35 15.95 43.6 15.9 42.55 14.25 43.25 14.85 43.9 15.8 46.95 15.55 Q47.65 15.75 47.95 16.1 L45.0 15.9 44.0 15.95 44.4 17.0 Q46.55 16.2 48.0 16.6 48.7 16.8 49.0 17.15 L46.05 16.95 44.4 17.0 M42.2 14.5 Q43.0 15.45 43.45 17.35 L41.5 13.95 42.2 14.5 M48.9 22.65 L47.25 22.7 Q49.35 21.95 50.8 22.35 51.5 22.5 51.8 22.85 L48.9 22.65 M47.85 21.6 L46.2 21.65 Q48.3 20.9 49.75 21.3 L50.8 21.8 47.85 21.6 M28.5 16.1 Q29.95 15.7 32.05 16.45 L27.5 16.65 28.5 16.1 M32.6 15.4 L28.5 15.6 29.55 15.05 32.65 15.25 33.1 15.4 32.6 15.4 32.65 15.25 32.6 15.4 M25.85 22.7 L21.25 22.85 22.3 22.35 Q23.75 21.95 25.85 22.7 L26.3 21.65 22.3 21.8 23.35 21.3 26.35 21.5 27.0 20.55 27.7 19.95 26.75 21.6 26.9 21.65 26.7 21.65 25.7 23.25 25.85 22.7 M28.05 20.25 L28.75 19.7 26.8 23.05 Q27.25 21.15 28.05 20.25 M34.75 22.35 Q36.2 21.95 38.3 22.7 L33.7 22.85 34.75 22.35 M35.8 21.3 Q37.25 20.9 39.35 21.65 L34.75 21.8 35.8 21.3 M11.4 23.35 L14.4 23.55 15.05 22.6 15.75 22.0 14.7 23.65 14.95 23.75 14.7 23.75 14.6 23.85 13.75 25.35 14.35 23.7 10.35 23.9 11.4 23.35 M19.1 21.15 L14.5 21.3 15.55 20.75 Q17.0 20.35 19.1 21.15 M16.55 19.75 Q18.0 19.35 20.1 20.1 L15.55 20.25 16.55 19.75 M16.1 22.3 L16.8 21.75 14.85 25.15 Q15.3 23.25 16.1 22.3 M10.35 24.4 Q11.8 24.0 13.9 24.75 L9.3 24.95 10.35 24.4" fill="#000000" fill-opacity="0.4" fill-rule="evenodd" stroke="none"/>
    <path d="M44.4 17.0 L46.05 16.95 49.0 17.15 Q48.7 16.8 48.0 16.6 46.55 16.2 44.4 17.0 L44.0 15.95 45.0 15.9 47.95 16.1 Q47.65 15.75 46.95 15.55 L43.9 15.8 43.25 14.85 42.55 14.25 43.6 15.9 43.35 15.95 43.65 15.95 44.55 17.55 44.4 17.0 M42.2 14.5 L41.5 13.95 43.45 17.35 Q43.0 15.45 42.2 14.5 M47.85 21.6 L50.8 21.8 49.75 21.3 Q48.3 20.9 46.2 21.65 L47.85 21.6 M48.9 22.65 L51.8 22.85 Q51.5 22.5 50.8 22.35 49.35 21.95 47.25 22.7 L48.9 22.65 M75.7 29.9 Q68.75 27.2 55.9 25.7 L55.1 25.6 Q40.1 23.95 23.55 25.4 12.75 26.35 0.85 28.75 L0.4 28.8 39.1 0.0 74.65 29.05 75.7 29.9 M32.65 15.25 L29.55 15.05 28.5 15.6 32.6 15.4 33.1 15.4 32.65 15.25 37.8 4.5 32.65 15.25 M28.5 16.1 L27.5 16.65 32.05 16.45 Q29.95 15.7 28.5 16.1 M25.85 22.7 L25.7 23.25 26.7 21.65 26.9 21.65 26.75 21.6 27.7 19.95 27.0 20.55 26.35 21.5 23.35 21.3 22.3 21.8 26.3 21.65 25.85 22.7 Q23.75 21.95 22.3 22.35 L21.25 22.85 25.85 22.7 M28.05 20.25 Q27.25 21.15 26.8 23.05 L28.75 19.7 28.05 20.25 M29.9 20.95 L32.6 15.4 29.9 20.95 M16.55 19.75 L15.55 20.25 20.1 20.1 Q18.0 19.35 16.55 19.75 M19.1 21.15 Q17.0 20.35 15.55 20.75 L14.5 21.3 19.1 21.15 M11.4 23.35 L10.35 23.9 14.35 23.7 13.75 25.35 14.6 23.85 14.7 23.75 14.95 23.75 14.7 23.65 15.75 22.0 15.05 22.6 14.4 23.55 11.4 23.35 M35.8 21.3 L34.75 21.8 39.35 21.65 Q37.25 20.9 35.8 21.3 M34.75 22.35 L33.7 22.85 38.3 22.7 Q36.2 21.95 34.75 22.35 M16.1 22.3 Q15.3 23.25 14.85 25.15 L16.8 21.75 16.1 22.3 M10.35 24.4 L9.3 24.95 13.9 24.75 Q11.8 24.0 10.35 24.4 M60.4 23.75 L39.75 4.1 60.4 23.75 M38.85 4.5 L42.05 20.25 38.85 4.5 M37.1 4.35 L17.1 23.05 37.1 4.35" fill="#ffffff" fill-opacity="0.0" fill-rule="evenodd" stroke="none"/>
    <path d="M55.1 35.05 Q64.3 34.3 70.25 32.85 76.35 31.35 75.7 29.9 M32.65 15.25 L37.8 4.5 M32.6 15.4 L29.9 20.95 M32.65 15.25 L32.6 15.4 M0.85 28.75 Q0.0 29.3 0.0 29.9 0.0 31.6 6.75 33.0 13.2 34.35 23.65 35.0 M17.1 23.05 L37.1 4.35 M42.05 20.25 L38.85 4.5 M39.75 4.1 L60.4 23.75" fill="none" stroke="#000000" stroke-linecap="round" stroke-linejoin="round" stroke-opacity="0.4" stroke-width="1.0"/>
    <path d="M55.1 25.6 L55.9 25.7 Q68.75 27.2 75.7 29.9 L74.65 29.05 39.1 0.0 0.4 28.8 0.85 28.75 Q12.75 26.35 23.55 25.4 40.1 23.95 55.1 25.6" fill="none" stroke="#000000" stroke-linecap="round" stroke-linejoin="round" stroke-width="1.0"/>
  </g>
</svg>
