<?xml version="1.0" encoding="UTF-8" standalone="no"?>
<svg xmlns:xlink="http://www.w3.org/1999/xlink" height="49.75px" width="41.65px" xmlns="http://www.w3.org/2000/svg">
  <g transform="matrix(1.0, 0.0, 0.0, 1.0, 0.55, 1.15)">
    <path d="M37.4 12.2 L36.75 11.4 Q34.3 8.35 30.6 6.4 25.95 3.9 21.4 3.9 20.1 1.9 17.35 0.85 L14.9 0.25 17.35 0.85 Q20.1 1.9 21.4 3.9 25.95 3.9 30.6 6.4 34.3 8.35 36.75 11.4 L37.4 12.2 37.4 12.25 37.4 12.2 M0.3 21.0 Q0.25 17.4 1.25 13.75 1.85 11.55 2.8 9.65 L3.95 7.7 5.35 5.85 Q7.45 3.4 10.4 1.8 L12.5 0.85 14.9 0.25 Q18.5 -0.4 22.55 0.85 L24.3 1.5 27.5 3.0 Q35.45 7.4 37.4 12.25 L37.75 12.75 Q39.45 15.25 40.4 18.45 38.8 16.6 36.3 15.05 34.9 14.2 33.6 13.65 30.7 12.5 28.0 12.95 L27.9 12.75 Q26.55 10.3 24.75 8.35 L24.05 7.6 23.15 6.8 23.0 6.7 Q27.5 5.2 32.5 8.2 35.0 9.75 36.75 11.4 35.0 9.75 32.5 8.2 27.5 5.2 23.0 6.7 L23.15 6.8 24.05 7.6 24.75 8.35 Q26.55 10.3 27.9 12.75 L28.0 12.95 Q30.7 12.5 33.6 13.65 34.9 14.2 36.3 15.05 38.8 16.6 40.4 18.45 L40.6 21.4 Q40.4 23.05 39.7 24.65 38.8 26.45 37.25 28.2 36.25 26.25 33.7 24.05 31.15 21.8 27.45 21.4 27.45 22.05 24.15 24.6 19.9 27.95 17.0 31.35 14.15 34.65 13.55 36.8 12.2 41.7 12.0 47.25 10.75 48.15 9.55 46.8 L7.35 43.65 5.7 41.1 Q4.55 39.85 3.5 38.1 L3.0 36.8 Q2.85 35.4 3.1 34.55 3.4 33.5 4.15 32.4 L4.8 31.5 Q6.9 28.85 11.25 25.7 L19.25 20.0 21.75 17.75 Q23.05 16.35 23.35 15.3 L23.4 14.95 23.4 13.05 23.4 12.85 23.35 12.75 23.05 11.65 Q22.25 9.6 20.2 7.6 L19.9 7.35 16.0 4.6 15.8 4.65 Q11.8 2.05 7.9 4.05 L4.65 6.7 6.9 5.15 13.65 5.35 12.0 6.05 Q8.25 7.85 5.35 11.05 L4.0 12.65 Q1.25 16.3 0.3 21.2 L0.3 21.0 0.3 21.2 Q1.25 16.3 4.0 12.65 L5.35 11.05 Q8.25 7.85 12.0 6.05 L13.65 5.35 6.9 5.15 4.65 6.7 7.9 4.05 Q11.8 2.05 15.8 4.65 L16.0 4.6 15.75 4.4 Q17.4 3.55 18.85 3.95 L19.0 4.0 20.05 3.9 21.4 3.9 20.05 3.9 19.0 4.0 18.85 3.95 Q17.4 3.55 15.75 4.4 L16.0 4.6 19.9 7.35 20.2 7.6 Q22.25 9.6 23.05 11.65 L23.35 12.75 23.4 12.85 23.4 13.05 23.4 14.95 23.35 15.3 Q23.05 16.35 21.75 17.75 L19.25 20.0 11.25 25.7 Q6.9 28.85 4.8 31.5 L4.15 32.4 Q3.4 33.5 3.1 34.55 2.85 35.4 3.0 36.8 L3.0 37.0 2.15 34.55 1.2 32.0 Q0.0 28.2 0.0 24.6 L0.1 22.5 0.3 21.0 M32.65 11.4 L34.6 12.2 35.85 12.75 36.25 12.95 36.05 12.75 35.45 12.2 Q33.4 10.55 30.7 10.15 L28.6 10.15 Q29.85 10.3 32.65 11.4 M28.0 12.95 L28.1 13.15 28.3 13.55 28.8 14.6 29.05 15.3 Q29.3 16.1 29.15 17.75 L27.45 21.4 29.15 17.75 Q29.3 16.1 29.05 15.3 L28.8 14.6 28.3 13.55 28.1 13.15 28.0 12.95 M29.15 17.75 Q35.85 18.65 39.7 24.65 35.85 18.65 29.15 17.75 M24.15 20.85 L25.5 18.6 24.4 20.15 Q22.0 23.15 17.8 25.6 13.6 28.05 10.7 33.15 L10.1 34.35 10.0 34.55 9.05 36.8 8.7 37.8 9.15 36.8 Q9.7 35.6 10.4 34.55 L10.5 34.35 11.0 33.6 13.0 31.2 Q14.05 30.1 18.8 26.65 21.1 25.0 23.05 22.45 L24.15 20.85 M23.05 11.65 L18.55 12.2 17.85 12.35 16.3 12.75 Q14.75 13.2 13.25 13.85 9.45 15.5 6.0 18.3 L3.0 21.0 Q1.2 22.8 0.0 24.6 1.2 22.8 3.0 21.0 L6.0 18.3 Q9.45 15.5 13.25 13.85 14.75 13.2 16.3 12.75 L17.85 12.35 18.55 12.2 23.05 11.65 M15.8 4.65 L15.2 4.8 13.65 5.35 15.2 4.8 15.8 4.65 M19.0 4.0 Q19.6 4.2 19.95 4.55 L23.0 6.7 19.95 4.55 Q19.6 4.2 19.0 4.0 M38.5 19.4 Q36.65 16.1 31.6 14.35 L28.3 13.55 31.6 14.35 Q36.65 16.1 38.5 19.4 M8.1 21.0 Q13.0 17.95 17.85 17.0 L18.8 16.85 Q18.4 16.55 17.85 16.4 L14.95 16.35 Q11.2 17.05 6.8 21.0 L3.25 24.6 Q4.95 23.0 7.75 21.2 L8.1 21.0" fill="#ffffff" fill-opacity="0.0" fill-rule="evenodd" stroke="none"/>
    <path d="M32.65 11.4 Q29.85 10.3 28.6 10.15 L30.7 10.15 Q33.4 10.55 35.45 12.2 L36.05 12.75 36.25 12.95 35.85 12.75 34.6 12.2 32.65 11.4 M24.15 20.85 L23.05 22.45 Q21.1 25.0 18.8 26.65 14.05 30.1 13.0 31.2 L11.0 33.6 10.5 34.35 10.4 34.55 Q9.7 35.6 9.15 36.8 L8.7 37.8 9.05 36.8 10.0 34.55 10.1 34.35 10.7 33.15 Q13.6 28.05 17.8 25.6 22.0 23.15 24.4 20.15 L25.5 18.6 24.15 20.85 M8.1 21.0 L7.75 21.2 Q4.95 23.0 3.25 24.6 L6.8 21.0 Q11.2 17.05 14.95 16.35 L17.85 16.4 Q18.4 16.55 18.8 16.85 L17.85 17.0 Q13.0 17.95 8.1 21.0" fill="#000000" fill-opacity="0.2" fill-rule="evenodd" stroke="none"/>
    <path d="M37.4 12.2 L37.4 12.25 Q35.45 7.4 27.5 3.0 L24.3 1.5 22.55 0.85 Q18.5 -0.4 14.9 0.25 L12.5 0.85 10.4 1.8 Q7.45 3.4 5.35 5.85 L3.95 7.7 2.8 9.65 Q1.85 11.55 1.25 13.75 0.25 17.4 0.3 21.0 L0.1 22.5 0.0 24.6 Q0.0 28.2 1.2 32.0 L2.15 34.55 3.0 37.0 M40.4 18.45 Q39.45 15.25 37.75 12.75 L37.4 12.25 M3.0 36.8 L3.5 38.1 Q4.55 39.85 5.7 41.1 L7.35 43.65 9.55 46.8 Q10.75 48.15 12.0 47.25 12.2 41.7 13.55 36.8 14.15 34.65 17.0 31.35 19.9 27.95 24.15 24.6 27.45 22.05 27.45 21.4 31.15 21.8 33.7 24.05 36.25 26.25 37.25 28.2 38.8 26.45 39.7 24.65 40.4 23.05 40.6 21.4 L40.4 18.45" fill="none" stroke="#000000" stroke-linecap="round" stroke-linejoin="miter-clip" stroke-miterlimit="10.0" stroke-width="1.0"/>
    <path d="M14.9 0.25 L17.35 0.85 Q20.1 1.9 21.4 3.9 25.95 3.9 30.6 6.4 34.3 8.35 36.75 11.4 L37.4 12.2 M0.3 21.0 L0.3 21.2 Q1.25 16.3 4.0 12.65 L5.35 11.05 Q8.25 7.85 12.0 6.05 L13.65 5.35 6.9 5.15 4.65 6.7 7.9 4.05 Q11.8 2.05 15.8 4.65 L16.0 4.6 15.75 4.4 Q17.4 3.55 18.85 3.95 L19.0 4.0 20.05 3.9 21.4 3.9 M36.75 11.4 Q35.0 9.75 32.5 8.2 27.5 5.2 23.0 6.7 L23.15 6.8 24.05 7.6 24.75 8.35 Q26.55 10.3 27.9 12.75 L28.0 12.95 Q30.7 12.5 33.6 13.65 34.9 14.2 36.3 15.05 38.8 16.6 40.4 18.45 M27.45 21.4 L29.15 17.75 Q29.3 16.1 29.05 15.3 L28.8 14.6 28.3 13.55 28.1 13.15 28.0 12.95 M16.0 4.6 L19.9 7.35 20.2 7.6 Q22.25 9.6 23.05 11.65 L23.35 12.75 23.4 12.85 23.4 13.05 23.4 14.95 23.35 15.3 Q23.05 16.35 21.75 17.75 L19.25 20.0 11.25 25.7 Q6.9 28.85 4.8 31.5 L4.15 32.4 Q3.4 33.5 3.1 34.55 2.85 35.4 3.0 36.8 L3.0 37.0 M39.7 24.65 Q35.85 18.65 29.15 17.75 M28.3 13.55 L31.6 14.35 Q36.65 16.1 38.5 19.4 M23.0 6.7 L19.95 4.55 Q19.6 4.2 19.0 4.0 M13.65 5.35 L15.2 4.8 15.8 4.65 M0.0 24.6 Q1.2 22.8 3.0 21.0 L6.0 18.3 Q9.45 15.5 13.25 13.85 14.75 13.2 16.3 12.75 L17.85 12.35 18.55 12.2 23.05 11.65" fill="none" stroke="#000000" stroke-linecap="round" stroke-linejoin="miter-clip" stroke-miterlimit="10.0" stroke-opacity="0.24705882" stroke-width="1.0"/>
  </g>
</svg>
