<?xml version="1.0" encoding="UTF-8" standalone="no"?>
<svg xmlns:xlink="http://www.w3.org/1999/xlink" height="58.85px" width="76.1px" xmlns="http://www.w3.org/2000/svg">
  <g transform="matrix(1.0, 0.0, 0.0, 1.0, 2.25, 2.55)">
    <path d="M56.95 24.5 L57.05 24.5 Q62.0 23.05 68.05 24.25 L66.65 24.5 63.8 25.3 Q61.6 26.1 59.5 27.35 L59.0 27.35 56.8 25.8 56.95 24.5 M60.15 29.55 Q63.95 28.95 68.0 29.65 L68.15 29.7 68.3 29.75 66.9 29.8 Q64.2 30.0 60.3 31.7 L58.95 30.5 59.55 29.75 60.15 29.55 M58.7 34.0 L59.35 34.0 59.65 34.1 58.25 34.75 60.1 36.2 59.3 34.7 59.9 34.0 Q63.35 34.15 66.75 36.1 L66.55 36.05 66.4 36.0 66.3 36.0 66.25 36.0 65.9 35.95 65.65 35.95 65.15 35.9 64.7 35.85 62.55 35.9 60.1 36.2 59.15 36.35 58.8 36.45 58.75 36.5 58.6 36.5 58.3 36.55 57.65 36.05 57.15 35.1 57.55 34.15 58.7 34.0 M58.6 38.0 L58.7 38.05 59.0 38.1 59.6 38.3 60.3 38.75 59.0 38.8 60.2 40.85 59.95 39.15 60.5 38.85 66.4 43.15 66.15 43.0 65.05 42.5 64.7 42.3 63.55 41.8 62.8 41.5 59.05 40.6 58.7 40.55 58.5 40.55 58.35 40.5 57.95 39.8 57.8 38.75 58.6 38.0 M58.4 40.95 L60.35 42.75 58.5 42.2 59.1 45.3 59.45 43.05 60.45 42.8 Q63.35 46.0 64.85 50.8 L64.8 50.7 64.7 50.6 Q64.25 49.8 63.2 48.75 L63.1 48.6 63.1 48.65 62.25 47.75 61.35 47.0 61.0 46.65 60.55 46.35 60.5 46.3 59.2 45.45 58.85 45.2 58.75 45.15 57.95 44.6 57.3 44.15 57.1 43.0 57.3 41.6 58.4 40.95 M13.7 46.9 L12.2 47.6 11.45 47.9 10.2 48.5 7.5 49.9 7.4 49.95 3.8 52.15 1.65 53.65 0.1 54.95 0.0 55.0 -0.05 55.05 Q3.95 49.05 9.5 45.15 L9.65 45.0 10.1 44.7 11.65 45.0 11.45 47.9 13.5 43.9 10.25 44.6 13.8 42.45 14.1 42.3 15.7 43.15 15.55 45.05 14.95 46.4 13.7 46.9 M15.95 40.6 L12.45 41.45 14.95 38.5 11.65 38.75 14.65 37.65 14.15 37.85 14.95 37.6 15.15 37.5 15.2 37.5 15.7 37.3 17.15 38.1 16.8 39.6 15.95 40.6 M12.4 41.45 L11.2 41.8 7.6 42.9 7.5 42.95 7.45 42.95 7.4 43.0 5.5 43.65 4.45 44.05 3.2 44.7 0.4 46.0 Q5.3 41.45 11.5 38.8 L13.0 39.15 12.4 41.45 M16.55 35.8 L12.95 36.3 9.0 37.05 8.85 37.05 6.7 37.6 6.6 37.6 0.45 39.65 Q5.9 35.55 12.4 33.6 L13.8 34.05 12.95 36.3 15.75 33.6 12.55 33.55 15.3 32.8 16.35 32.55 16.55 32.55 16.7 32.5 18.05 33.4 17.5 34.8 16.55 35.8 M17.75 30.95 L17.45 30.95 14.15 30.95 17.35 28.7 14.25 28.2 18.45 27.7 19.65 28.85 18.85 30.15 17.75 30.95 M14.1 30.95 L8.25 31.3 8.0 31.35 7.85 31.35 7.35 31.45 6.5 31.5 6.25 31.55 6.15 31.55 5.65 31.6 5.5 31.65 5.4 31.65 1.15 32.5 Q6.85 29.4 13.55 28.25 L13.65 28.25 14.05 28.2 15.3 28.9 14.1 30.95 M19.5 26.8 L15.9 26.35 9.7 25.9 8.65 25.9 8.55 25.9 5.9 26.05 2.85 26.2 Q9.15 23.85 16.2 23.6 L17.4 24.45 15.9 26.35 19.5 24.5 16.4 23.6 20.7 23.7 21.7 24.95 20.7 26.2 19.5 26.8 M23.2 22.7 L19.85 21.55 23.7 20.45 21.1 19.1 24.2 19.7 25.1 19.9 25.8 21.3 24.6 22.3 23.2 22.7 M19.8 21.55 L13.35 19.9 13.15 19.85 8.5 19.2 7.05 19.0 9.2 18.7 20.85 19.05 21.7 20.0 19.8 21.55 M23.45 17.6 L19.2 16.0 15.05 14.75 14.9 14.7 14.55 14.65 11.05 13.85 Q17.9 13.35 24.7 15.15 L25.5 16.25 23.45 17.6 M24.9 15.2 L28.7 16.4 28.95 16.5 29.45 17.9 28.1 18.8 26.75 19.05 23.5 17.6 27.5 16.9 24.9 15.2 M30.75 15.75 L30.6 15.65 27.75 13.85 Q25.0 12.1 22.35 10.9 L20.95 10.3 20.6 10.1 16.1 8.4 Q23.1 8.95 29.4 11.6 L30.05 12.8 27.75 13.85 31.85 13.7 29.6 11.65 29.65 11.65 33.35 13.5 33.65 15.0 32.15 15.7 30.75 15.75 M35.5 13.3 L34.75 12.5 28.45 7.1 25.3 5.05 23.45 3.9 Q28.15 5.2 32.1 7.35 L35.4 9.4 35.65 10.6 33.15 11.0 37.2 11.75 35.55 9.5 35.65 9.55 36.05 9.8 36.1 9.85 38.7 11.85 38.55 13.25 36.95 13.5 35.5 13.3 M34.25 4.25 L33.7 3.7 30.6 1.1 Q36.8 3.75 41.35 8.0 L41.4 9.25 38.85 9.35 Q36.55 6.4 34.25 4.25 M41.45 8.1 L43.8 10.5 44.15 10.9 43.7 12.2 42.1 12.3 40.7 11.85 38.85 9.35 42.6 10.6 41.45 8.1 M45.2 12.2 L45.15 11.95 45.15 11.9 44.9 11.1 44.9 11.05 44.85 10.9 44.65 10.3 44.7 10.35 47.8 12.55 47.6 9.9 48.8 12.5 49.1 13.35 48.15 14.4 46.55 13.95 45.45 13.2 45.2 12.2 M44.65 10.25 L42.5 4.65 42.4 4.4 42.25 4.15 41.95 3.55 41.8 3.25 39.95 0.0 Q44.55 4.2 47.3 9.3 L47.5 9.75 47.1 10.95 44.65 10.25 M51.4 16.1 L51.4 16.05 52.0 13.1 53.9 16.75 55.0 14.35 54.8 18.15 53.4 18.6 52.1 17.35 51.4 16.1 M52.0 13.05 Q52.55 10.25 52.6 7.45 L52.6 6.65 52.6 6.45 52.5 5.25 52.35 1.6 Q54.9 7.9 55.0 14.2 L54.05 14.95 52.0 13.05 M54.7 20.85 L54.85 20.6 57.0 17.9 62.85 9.75 59.25 18.85 57.65 19.1 57.25 17.75 57.05 20.65 59.2 18.95 58.7 20.15 58.05 21.25 57.65 21.9 57.1 22.3 55.25 22.55 54.9 21.55 54.7 20.85 M62.25 47.75 Q63.85 49.2 64.8 50.7 63.85 49.2 62.25 47.75" fill="#ffffff" fill-opacity="0.29803923" fill-rule="evenodd" stroke="none"/>
    <path d="M59.25 27.5 L59.25 27.55 59.2 27.55 55.4 26.35 56.85 24.55 57.0 24.35 56.95 24.5 56.8 25.8 59.0 27.35 59.25 27.5 M56.5 30.5 L56.65 30.35 56.65 30.45 56.25 31.45 57.6 32.65 54.7 32.0 56.5 30.5 M59.5 29.7 L59.65 29.55 59.6 29.65 59.55 29.75 58.95 30.5 60.3 31.7 60.1 31.6 57.6 30.8 59.5 29.7 M57.5 34.15 L57.6 34.1 57.55 34.15 57.15 35.1 57.65 36.05 57.95 36.55 55.85 35.3 56.35 35.0 57.0 34.5 57.5 34.15 M59.8 34.0 L59.95 33.95 59.9 34.0 59.3 34.7 60.1 36.2 58.25 34.75 59.65 34.1 59.8 34.0 M60.3 38.75 L60.85 38.7 60.5 38.85 59.95 39.15 60.2 40.85 59.0 38.8 60.3 38.75 M60.35 42.75 L60.55 42.8 60.45 42.8 59.45 43.05 59.1 45.3 58.5 42.2 60.35 42.75 M10.1 44.7 L9.9 44.65 10.25 44.6 13.5 43.9 11.45 47.9 11.65 45.0 10.1 44.7 M12.45 41.45 L12.4 41.45 13.0 39.15 11.5 38.8 11.35 38.8 11.65 38.75 14.95 38.5 12.45 41.45 M12.4 33.6 L12.2 33.55 12.55 33.55 15.75 33.6 12.95 36.3 13.8 34.05 12.4 33.6 M16.7 32.5 L16.75 32.5 20.5 33.0 17.2 35.6 17.5 34.8 18.05 33.4 16.7 32.5 M14.15 30.95 L14.1 30.95 15.3 28.9 14.05 28.2 13.85 28.1 14.25 28.2 17.35 28.7 14.15 30.95 M16.2 23.6 L16.1 23.5 16.4 23.6 19.5 24.5 15.9 26.35 17.4 24.45 16.2 23.6 M19.85 21.55 L19.8 21.55 21.7 20.0 20.85 19.05 20.6 18.85 21.1 19.1 23.7 20.45 19.85 21.55 M24.7 15.15 L24.6 14.95 24.9 15.2 27.5 16.9 23.5 17.6 23.45 17.6 25.5 16.25 24.7 15.15 M29.4 11.6 L29.3 11.4 29.6 11.65 31.85 13.7 27.75 13.85 30.05 12.8 29.4 11.6 M35.4 9.35 L35.35 9.2 35.5 9.45 35.55 9.5 37.2 11.75 33.15 11.0 35.65 10.6 35.4 9.4 35.4 9.35 M41.35 8.0 L41.35 7.85 41.45 8.1 42.6 10.6 38.85 9.35 41.4 9.25 41.35 8.0 M44.65 10.3 L44.65 10.25 47.1 10.95 47.5 9.75 47.55 9.6 47.6 9.9 47.8 12.55 44.7 10.35 44.65 10.3 M52.0 13.1 L52.0 13.05 54.05 14.95 55.0 14.2 55.1 14.1 55.0 14.35 53.9 16.75 52.0 13.1 M54.6 21.0 L54.6 20.55 54.7 20.85 54.9 21.55 55.25 22.55 57.1 22.3 57.45 22.2 54.6 24.6 54.6 21.0 M59.25 18.85 L59.35 18.8 59.2 18.95 57.05 20.65 57.25 17.75 57.65 19.1 59.25 18.85 M44.15 10.9 L45.0 13.95 41.1 12.3 42.1 12.3 43.7 12.2 44.15 10.9 M49.1 13.35 L48.8 16.45 45.7 13.7 46.55 13.95 48.15 14.4 49.1 13.35 M54.8 18.15 L53.05 20.7 51.35 16.65 52.1 17.35 53.4 18.6 54.8 18.15 M54.15 27.35 L56.65 29.1 52.65 28.3 53.9 25.75 54.15 27.35 M58.55 38.0 L58.6 38.0 57.8 38.75 57.95 39.8 58.05 40.4 56.55 38.45 58.55 38.0 M58.4 40.95 L57.3 41.6 57.1 43.0 56.95 43.85 56.05 40.75 58.3 40.95 58.4 40.95 M28.1 18.8 L29.45 17.9 28.95 16.5 31.75 18.9 27.4 19.25 28.1 18.8 M25.1 19.9 L28.2 22.05 23.9 22.85 24.6 22.3 25.8 21.3 25.1 19.9 M38.7 11.85 L40.2 14.75 36.0 13.65 36.95 13.5 38.55 13.25 38.7 11.85 M32.15 15.7 L33.65 15.0 33.35 13.5 35.75 16.3 31.35 16.05 32.15 15.7 M18.85 30.15 L19.65 28.85 18.45 27.7 22.15 28.8 18.4 30.9 18.85 30.15 M15.7 37.3 L19.6 37.5 16.55 40.4 16.8 39.6 17.15 38.1 15.7 37.3 M14.1 42.3 L18.05 42.05 15.5 46.1 15.55 45.05 15.7 43.15 14.1 42.3 M20.7 26.2 L21.7 24.95 20.7 23.7 24.2 25.25 20.15 26.8 20.7 26.2" fill="#000000" fill-rule="evenodd" stroke="none"/>
    <path d="M59.2 27.55 Q56.95 28.9 54.7 31.05 L55.2 30.85 56.5 30.5 54.7 32.0 57.6 32.65 56.25 31.45 56.65 30.45 59.5 29.7 57.6 30.8 60.1 31.6 60.25 31.7 60.3 31.7 Q64.2 30.0 66.9 29.8 L68.3 29.75 68.45 29.75 68.55 29.75 68.85 29.8 64.7 30.45 63.75 30.7 63.4 30.75 63.0 30.9 62.85 30.9 62.1 31.15 54.05 34.95 55.95 34.35 57.5 34.15 57.0 34.5 56.35 35.0 55.85 35.3 57.95 36.55 57.65 36.05 58.3 36.55 58.6 36.5 58.3 36.7 56.85 37.0 55.55 37.5 55.35 37.45 58.3 36.55 55.35 37.45 55.55 37.5 55.3 37.55 58.55 38.0 56.55 38.45 58.05 40.4 57.95 39.8 58.35 40.5 58.5 40.55 57.65 40.45 57.8 40.55 57.65 40.5 58.3 40.95 56.05 40.75 56.95 43.85 57.1 43.0 57.3 44.15 54.2 42.7 52.65 42.25 52.8 41.55 53.15 35.35 53.15 35.3 53.1 29.95 49.6 25.05 47.0 21.85 Q45.95 22.95 43.75 24.15 L36.8 27.15 33.5 28.5 Q32.2 29.15 31.7 29.8 L31.65 29.85 31.5 30.15 Q30.6 32.55 30.2 37.8 L30.05 41.4 27.2 42.5 23.85 41.4 Q20.45 40.45 20.1 40.85 L20.05 41.4 20.0 41.85 20.0 41.95 20.05 42.15 20.05 42.5 20.2 43.05 20.3 43.4 20.4 43.5 21.05 43.7 21.2 43.75 22.0 44.05 22.2 44.1 Q18.35 45.1 14.95 46.4 L15.55 45.05 15.5 46.1 18.05 42.05 14.1 42.3 Q16.9 40.85 19.85 39.9 L15.95 40.6 16.8 39.6 16.55 40.4 19.6 37.5 15.7 37.3 Q21.4 35.6 27.5 35.35 L16.55 35.8 17.5 34.8 17.2 35.6 20.5 33.0 16.75 32.5 25.05 31.55 25.2 31.55 17.75 30.95 18.85 30.15 18.4 30.9 22.15 28.8 18.45 27.7 Q21.2 27.55 24.35 27.8 L19.5 26.8 20.7 26.2 20.15 26.8 24.2 25.25 20.7 23.7 Q24.8 24.0 28.85 25.05 25.9 23.7 23.2 22.7 L24.6 22.3 23.9 22.85 28.2 22.05 25.1 19.9 24.2 19.7 24.6 19.75 Q30.6 21.3 36.05 24.45 30.15 20.45 23.45 17.6 L23.5 17.6 26.75 19.05 28.1 18.8 27.4 19.25 31.75 18.9 28.95 16.5 Q32.7 17.85 36.55 20.15 L30.75 15.75 32.15 15.7 31.35 16.05 35.75 16.3 33.35 13.5 33.65 13.65 38.6 16.9 38.7 17.0 38.8 17.05 38.95 17.15 39.05 17.25 35.5 13.3 36.95 13.5 36.0 13.65 40.2 14.75 38.7 11.85 Q41.7 14.4 44.0 17.35 41.85 13.25 38.8 9.35 L35.15 5.2 34.25 4.25 Q36.55 6.4 38.85 9.35 L40.7 11.85 42.1 12.3 41.1 12.3 45.0 13.95 44.15 10.9 45.2 12.2 45.45 13.2 46.55 13.95 45.7 13.7 48.8 16.45 49.1 13.35 Q50.1 16.25 50.55 19.05 L51.4 16.1 52.1 17.35 51.35 16.65 53.05 20.7 54.8 18.15 54.2 21.45 54.3 21.35 54.5 21.1 54.6 21.0 54.6 24.6 57.45 22.2 57.1 22.3 57.65 21.9 57.4 22.35 57.2 22.7 56.5 23.85 56.4 24.0 55.75 24.9 55.8 24.9 56.85 24.55 55.4 26.35 59.2 27.55 M54.15 27.35 L53.9 25.75 52.65 28.3 56.65 29.1 54.15 27.35" fill="#ffffff" fill-opacity="0.0" fill-rule="evenodd" stroke="none"/>
    <path d="M68.15 29.7 L68.55 29.75 68.45 29.75 68.3 29.75 68.15 29.7 M57.6 34.1 L58.7 34.0 57.55 34.15 57.6 34.1 M14.95 46.4 L14.9 46.45 13.7 46.9 14.95 46.4 M12.2 47.6 L10.2 48.5 11.45 47.9 12.2 47.6 M35.65 9.55 L35.95 9.7 36.05 9.8 35.65 9.55 M48.8 12.5 L49.1 13.3 49.1 13.35 48.8 12.5 M58.05 21.25 L57.4 22.35 57.65 21.9 58.05 21.25 M56.4 24.0 L55.8 24.9 55.75 24.9 56.4 24.0 M60.3 31.7 L60.25 31.7 60.1 31.6 60.3 31.7" fill="#ced2bc" fill-rule="evenodd" stroke="none"/>
    <path d="M59.5 27.35 L59.25 27.5 59.0 27.35 59.5 27.35 M59.6 29.65 L60.15 29.55 59.55 29.75 59.6 29.65 M63.75 30.7 L63.0 30.9 63.4 30.75 63.75 30.7 M65.15 35.9 L64.9 35.9 64.7 35.85 65.15 35.9 M66.15 43.0 L66.25 43.15 65.05 42.5 66.15 43.0 M57.95 44.6 L57.2 44.15 Q56.1 43.5 54.2 42.7 L57.3 44.15 57.95 44.6 M21.2 43.75 L22.25 44.1 22.2 44.1 22.0 44.05 21.2 43.75 M5.5 43.65 L3.2 44.7 4.45 44.05 5.5 43.65 M14.65 37.65 L14.95 37.6 14.15 37.85 14.65 37.65 M15.2 37.5 L15.2 37.45 15.7 37.3 15.2 37.5 M6.15 31.55 L5.5 31.65 5.65 31.6 6.15 31.55 M54.2 21.45 L54.5 21.1 54.3 21.35 54.2 21.45" fill="#728e8b" fill-rule="evenodd" stroke="none"/>
    <path d="M56.95 24.5 L57.05 24.5 Q62.0 23.05 68.05 24.25 L66.65 24.5 63.8 25.3 Q61.6 26.1 59.5 27.35 L59.25 27.5 M59.2 27.55 Q56.95 28.9 54.7 31.05 L55.2 30.85 56.5 30.5 M56.65 30.45 L59.5 29.7 M59.6 29.65 L60.15 29.55 Q63.95 28.95 68.0 29.65 L68.15 29.7 68.3 29.75 68.45 29.75 M68.55 29.75 L68.85 29.8 64.7 30.45 63.75 30.7 63.4 30.75 63.0 30.9 62.1 31.15 54.05 34.95 55.95 34.35 57.5 34.15 M58.7 34.0 L59.35 34.0 59.8 34.0 M59.9 34.0 Q63.35 34.15 66.75 36.1 L66.55 36.05 66.3 36.0 66.25 36.0 65.9 35.95 65.65 35.95 65.15 35.9 64.7 35.85 62.55 35.9 60.1 36.2 59.15 36.35 58.8 36.45 58.75 36.5 58.6 36.5 58.3 36.55 55.35 37.45 55.55 37.5 58.6 38.0 M58.7 38.05 L59.0 38.1 59.6 38.3 60.3 38.75 M60.5 38.85 L66.4 43.15 66.15 43.0 65.05 42.5 64.7 42.3 63.55 41.8 62.8 41.5 59.05 40.6 58.7 40.55 58.5 40.55 57.65 40.45 57.8 40.55 58.4 40.95 60.35 42.75 M60.45 42.8 Q63.35 46.0 64.85 50.8 L64.8 50.7 Q63.85 49.2 62.25 47.75 L61.35 47.0 61.0 46.65 60.55 46.35 60.5 46.3 59.2 45.45 58.75 45.15 57.95 44.6 57.3 44.15 54.2 42.7 52.65 42.25 M22.2 44.1 Q18.35 45.1 14.95 46.4 L13.7 46.9 12.2 47.6 11.45 47.9 10.2 48.5 7.5 49.9 M7.4 49.95 L3.8 52.15 1.65 53.65 0.1 54.95 -0.05 55.05 Q3.95 49.05 9.5 45.15 L9.65 45.0 10.1 44.7 M10.25 44.6 L13.8 42.45 14.1 42.3 Q16.9 40.85 19.85 39.9 L15.95 40.6 12.45 41.45 M12.4 41.45 L11.2 41.8 7.6 42.9 7.5 42.95 7.45 42.95 7.4 43.0 5.5 43.65 3.2 44.7 0.4 46.0 Q5.3 41.45 11.5 38.8 M11.65 38.75 L14.65 37.65 14.95 37.6 15.15 37.5 15.2 37.5 15.2 37.45 15.7 37.3 Q21.4 35.6 27.5 35.35 L16.55 35.8 12.95 36.3 9.0 37.05 8.85 37.05 6.7 37.6 6.6 37.6 0.45 39.65 Q5.9 35.55 12.4 33.6 M12.55 33.55 L15.3 32.8 M16.75 32.5 L25.05 31.55 25.2 31.55 17.75 30.95 M17.45 30.95 L14.15 30.95 M14.1 30.95 L8.25 31.3 8.0 31.35 7.85 31.35 7.35 31.45 6.5 31.5 6.25 31.55 6.15 31.55 5.5 31.65 5.4 31.65 1.15 32.5 Q6.85 29.4 13.55 28.25 L13.65 28.25 14.05 28.2 M14.25 28.2 L18.45 27.7 Q21.2 27.55 24.35 27.8 L19.5 26.8 15.9 26.35 9.7 25.9 8.65 25.9 8.55 25.9 5.9 26.05 2.85 26.2 Q9.15 23.85 16.2 23.6 M16.4 23.6 L20.7 23.7 Q24.8 24.0 28.85 25.05 25.9 23.7 23.2 22.7 L19.85 21.55 M19.8 21.55 L13.35 19.9 13.15 19.85 8.5 19.2 7.05 19.0 9.2 18.7 20.85 19.05 M21.1 19.1 L24.2 19.7 24.6 19.75 Q30.6 21.3 36.05 24.45 30.15 20.45 23.45 17.6 L19.2 16.0 15.05 14.75 14.9 14.7 14.55 14.65 11.05 13.85 Q17.9 13.35 24.7 15.15 M24.9 15.2 L28.7 16.4 28.95 16.5 Q32.7 17.85 36.55 20.15 L30.75 15.75 M30.6 15.65 L27.75 13.85 Q25.0 12.1 22.35 10.9 L20.95 10.3 20.6 10.1 16.1 8.4 Q23.1 8.95 29.4 11.6 M29.6 11.65 L29.65 11.65 33.35 13.5 33.65 13.65 38.6 16.9 38.7 17.0 38.8 17.05 38.95 17.15 39.05 17.25 35.5 13.3 34.75 12.5 28.45 7.1 25.3 5.05 23.45 3.9 Q28.15 5.2 32.1 7.35 L35.4 9.35 M35.5 9.45 L35.65 9.55 36.05 9.8 36.1 9.85 38.7 11.85 Q41.7 14.4 44.0 17.35 41.85 13.25 38.8 9.35 L35.15 5.2 34.25 4.25 33.7 3.7 30.6 1.1 Q36.8 3.75 41.35 8.0 M41.45 8.1 L43.8 10.5 44.15 10.9 45.2 12.2 45.15 11.95 45.15 11.9 44.9 11.1 44.9 11.05 M44.85 10.9 L44.65 10.3 M44.65 10.25 L42.5 4.65 42.25 4.15 41.95 3.55 41.8 3.25 39.95 0.0 Q44.55 4.2 47.3 9.3 L47.5 9.75 M47.6 9.9 L48.8 12.5 49.1 13.35 Q50.1 16.25 50.55 19.05 L51.4 16.1 51.4 16.05 52.0 13.1 M52.0 13.05 Q52.55 10.25 52.6 7.45 L52.6 6.65 52.6 6.45 52.5 5.25 52.35 1.6 Q54.9 7.9 55.0 14.2 M55.0 14.35 L54.8 18.15 54.2 21.45 54.3 21.35 54.5 21.1 M54.7 20.85 L54.85 20.6 57.0 17.9 62.85 9.75 59.25 18.85 M59.2 18.95 L58.7 20.15 58.05 21.25 57.65 21.9 57.4 22.35 57.2 22.7 56.5 23.85 56.4 24.0 55.75 24.9 55.8 24.9 56.85 24.55 M57.55 34.15 L58.7 34.0 M21.2 43.75 L22.0 44.05 22.2 44.1" fill="none" stroke="#000000" stroke-linecap="round" stroke-linejoin="miter-clip" stroke-miterlimit="10.0" stroke-opacity="0.6" stroke-width="1.0"/>
  </g>
</svg>
