<?xml version="1.0" encoding="UTF-8" standalone="no"?>
<svg xmlns:xlink="http://www.w3.org/1999/xlink" height="19.65px" width="21.05px" xmlns="http://www.w3.org/2000/svg">
  <g transform="matrix(1.0, 0.0, 0.0, 1.0, 0.5, 0.0)">
    <path d="M0.0 17.4 L0.2 13.65 Q0.5 9.2 1.3 7.1 1.7 6.1 4.8 4.95 L12.2 1.95 15.1 0.0 17.45 2.75 Q19.8 5.5 20.55 6.95 L20.55 12.4 20.15 17.4 20.0 18.35 19.8 18.15 Q17.6 16.7 17.4 16.75 L17.3 16.75 Q16.75 16.85 13.95 19.05 L11.85 17.4 9.4 16.1 9.25 16.1 7.35 15.8 0.0 17.4" fill="#ffffff" fill-opacity="0.0" fill-rule="evenodd" stroke="none"/>
    <path d="M0.0 17.4 L7.35 15.8 9.25 16.1 9.4 16.1 11.85 17.4 13.95 19.05 Q16.75 16.85 17.3 16.75 L17.4 16.75 Q17.6 16.7 19.8 18.15 L20.0 18.35" fill="none" stroke="#000000" stroke-linecap="round" stroke-linejoin="miter-clip" stroke-miterlimit="10.0" stroke-opacity="0.6" stroke-width="1.0"/>
  </g>
</svg>
