<?xml version="1.0" encoding="UTF-8" standalone="no"?>
<svg xmlns:xlink="http://www.w3.org/1999/xlink" height="15.1px" width="17.15px" xmlns="http://www.w3.org/2000/svg">
  <g transform="matrix(1.0, 0.0, 0.0, 1.0, -12.25, 1.6)">
    <path d="M24.6 7.05 L24.85 4.9 24.85 4.75 24.9 4.5 Q26.65 5.15 27.65 6.35 L28.4 7.55 27.65 6.35 Q26.65 5.15 24.9 4.5 L24.9 4.45 Q26.7 5.1 27.65 6.3 L28.15 7.0 28.4 7.55 28.75 8.5 28.85 9.3 28.9 9.65 28.8 11.85 28.6 12.6 26.75 11.35 26.7 9.75 26.7 9.65 26.45 9.05 26.15 8.6 24.6 7.05 M21.0 4.0 L21.1 6.65 Q18.6 6.75 17.9 7.35 L16.9 8.55 16.15 10.45 15.1 10.5 12.75 10.9 Q14.0 6.95 15.75 5.3 16.85 4.25 19.05 4.05 L21.0 4.0" fill="#ffffff" fill-opacity="0.0" fill-rule="evenodd" stroke="none"/>
    <path d="M24.85 4.75 L24.85 4.9 24.6 7.05 24.6 7.1 24.55 8.65 24.55 9.65 24.55 12.15 24.25 12.4 24.2 12.4 23.0 13.5 20.9 12.05 21.1 6.65 21.0 4.0 Q20.8 1.5 20.0 0.0 L23.05 2.55 24.05 1.6 25.55 0.65 25.15 3.05 24.9 4.45 24.85 4.75" fill="#000000" fill-opacity="0.2" fill-rule="evenodd" stroke="none"/>
    <path d="M28.9 9.65 L28.85 9.3 28.75 8.5 28.85 9.15 28.9 9.65 M24.9 4.5 L24.85 4.75 24.9 4.45 24.9 4.5" fill="#fecc30" fill-rule="evenodd" stroke="none"/>
    <path d="M24.85 4.75 L24.85 4.9 24.6 7.05 26.15 8.6 26.45 9.05 26.7 9.65 26.7 9.75 26.75 11.35 M28.6 12.6 L28.8 11.85 28.9 9.65 28.85 9.3 28.75 8.5 28.4 7.55 27.65 6.35 Q26.65 5.15 24.9 4.5 L24.85 4.75 M24.9 4.45 L25.15 3.05 25.55 0.65 24.05 1.6 23.05 2.55 20.0 0.0 Q20.8 1.5 21.0 4.0 L21.1 6.65 20.9 12.05 M24.55 12.15 L24.55 9.65 24.55 8.65 24.6 7.1 M24.9 4.45 L24.9 4.5 M12.75 10.9 Q14.0 6.95 15.75 5.3 16.85 4.25 19.05 4.05 L21.0 4.0 M21.1 6.65 Q18.6 6.75 17.9 7.35 L16.9 8.55 16.15 10.45" fill="none" stroke="#000000" stroke-linecap="round" stroke-linejoin="miter-clip" stroke-miterlimit="4.0" stroke-opacity="0.6" stroke-width="1.0"/>
  </g>
</svg>
