<?xml version="1.0" encoding="UTF-8" standalone="no"?>
<svg xmlns:xlink="http://www.w3.org/1999/xlink" height="15.8px" width="9.0px" xmlns="http://www.w3.org/2000/svg">
  <g transform="matrix(1.0, 0.0, 0.0, 1.0, 0.55, -13.45)">
    <path d="M-0.05 25.6 L1.55 23.95 2.45 23.0 2.4 26.5 2.35 28.75 Q0.45 27.65 -0.05 25.7 L-0.05 25.65 -0.05 25.6 M5.95 28.5 L5.95 27.4 5.95 26.5 5.9 23.0 7.95 25.15 Q7.6 27.45 5.95 28.6 L5.95 28.5" fill="#ffffff" fill-opacity="0.0" fill-rule="evenodd" stroke="none"/>
    <path d="M4.7 14.0 L4.9 14.1 5.55 14.6 5.9 15.15 Q6.25 15.8 6.25 16.7 6.25 17.7 5.8 18.45 L5.3 19.05 5.1 19.2 4.2 19.45 Q3.4 19.45 2.9 18.8 L2.85 18.7 2.8 18.65 Q2.3 18.0 2.25 17.25 L2.2 16.7 2.4 15.55 Q2.45 15.15 2.8 14.75 3.25 14.1 3.9 13.95 L4.45 13.95 4.65 14.0 4.7 14.0 M4.75 14.9 L4.55 15.15 4.4 15.65 Q4.4 16.0 4.55 16.2 L4.75 16.4 5.05 16.2 5.15 15.65 5.05 15.15 Q4.9 14.9 4.75 14.9" fill="#000000" fill-opacity="0.29803923" fill-rule="evenodd" stroke="none"/>
    <path d="M4.75 14.9 Q4.9 14.9 5.05 15.15 L5.15 15.65 5.05 16.2 4.75 16.4 4.55 16.2 Q4.4 16.0 4.4 15.65 L4.55 15.15 4.75 14.9" fill="#ffffff" fill-opacity="0.2" fill-rule="evenodd" stroke="none"/>
    <path d="M4.7 14.0 L4.9 14.1 5.55 14.6 5.9 15.15 M2.4 15.55 Q2.45 15.15 2.8 14.75 3.25 14.1 3.9 13.95 L4.45 13.95" fill="none" stroke="#000000" stroke-linecap="round" stroke-linejoin="miter-clip" stroke-miterlimit="4.0" stroke-opacity="0.6" stroke-width="1.0"/>
    <path d="M5.9 15.15 Q6.25 15.8 6.25 16.7 6.25 17.7 5.8 18.45 L5.3 19.05 5.1 19.2 M2.9 18.8 L2.85 18.7 2.8 18.65 Q2.3 18.0 2.25 17.25 L2.2 16.7 2.4 15.55 M7.95 25.15 Q7.6 27.45 5.95 28.6" fill="none" stroke="#000000" stroke-linecap="round" stroke-linejoin="miter-clip" stroke-miterlimit="4.0" stroke-width="1.0"/>
    <path d="M5.1 19.2 L4.2 19.45 Q3.4 19.45 2.9 18.8" fill="none" stroke="#000000" stroke-linecap="round" stroke-linejoin="miter-clip" stroke-miterlimit="4.0" stroke-opacity="0.4" stroke-width="1.0"/>
    <path d="M2.35 28.75 Q0.45 27.65 -0.05 25.7 L-0.05 25.65 -0.05 25.6 M5.95 28.6 L5.95 28.5" fill="none" stroke="#000000" stroke-linecap="round" stroke-linejoin="miter-clip" stroke-miterlimit="10.0" stroke-width="1.0"/>
    <path d="M-0.05 25.6 L1.55 23.95 2.45 23.0 2.4 26.5 2.35 28.75 M5.95 28.5 L5.95 27.4 5.95 26.5 5.9 23.0 7.95 25.15" fill="none" stroke="#000000" stroke-linecap="round" stroke-linejoin="miter-clip" stroke-miterlimit="10.0" stroke-opacity="0.4" stroke-width="1.0"/>
  </g>
</svg>
