<?xml version="1.0" encoding="UTF-8" standalone="no"?>
<svg xmlns:xlink="http://www.w3.org/1999/xlink" height="43.3px" width="43.85px" xmlns="http://www.w3.org/2000/svg">
  <g transform="matrix(1.0, 0.0, 0.0, 1.0, 0.0, 0.0)">
    <path d="M32.8 40.55 Q30.1 41.95 27.3 42.75 21.9 44.3 14.75 41.35 6.35 37.85 2.55 29.95 -1.4 21.7 0.75 14.35 2.75 7.55 9.0 4.05 10.5 3.2 12.55 2.35 L10.95 7.8 Q9.55 12.5 9.15 16.05 7.8 27.45 15.3 34.6 18.55 37.7 23.3 39.4 28.25 41.15 32.8 40.55" fill="#ffffff" fill-opacity="0.4" fill-rule="evenodd" stroke="none"/>
    <path d="M12.55 2.35 L12.8 2.25 Q16.6 0.85 20.75 0.3 24.8 -0.2 28.85 0.2 L33.0 1.0 Q35.4 1.65 36.95 2.45 L39.0 4.05 39.4 4.45 40.25 5.65 40.45 5.95 40.75 6.5 41.45 7.75 42.0 9.05 42.1 9.25 42.15 9.45 Q44.2 14.6 43.8 20.55 43.55 23.85 42.55 27.35 L41.55 30.5 41.3 31.1 41.25 31.3 41.1 31.65 37.8 37.3 37.4 37.75 37.35 37.8 37.35 37.7 37.3 37.75 34.6 39.55 32.8 40.55 Q28.25 41.15 23.3 39.4 18.55 37.7 15.3 34.6 7.8 27.45 9.15 16.05 9.55 12.5 10.95 7.8 L12.55 2.35" fill="#ffffff" fill-opacity="0.0" fill-rule="evenodd" stroke="none"/>
  </g>
</svg>
