<?xml version="1.0" encoding="UTF-8" standalone="no"?>
<svg xmlns:xlink="http://www.w3.org/1999/xlink" height="59.05px" width="58.05px" xmlns="http://www.w3.org/2000/svg">
  <g transform="matrix(1.0, 0.0, 0.0, 1.0, 0.5, 0.5)">
    <path d="M14.25 3.7 L16.6 2.6 Q22.6 0.1 30.45 0.0 L32.25 0.15 36.7 0.9 Q42.7 2.25 46.4 5.1 L47.6 6.1 47.65 6.15 49.0 8.25 49.7 9.55 50.45 11.15 50.8 12.05 51.2 13.1 51.25 13.15 51.3 13.35 51.2 13.3 51.05 13.15 50.8 13.0 50.75 12.95 50.2 12.6 49.85 12.45 Q48.55 11.8 46.3 11.2 42.05 10.1 37.95 10.15 L29.9 10.9 Q26.25 11.65 21.85 13.85 15.4 17.1 12.1 24.3 8.6 31.7 10.95 38.4 L12.15 41.35 8.7 37.4 2.65 31.0 2.7 30.8 2.7 30.7 2.7 30.65 2.7 30.55 Q3.65 23.85 8.35 14.25 L12.85 5.95 14.25 3.7 M8.75 16.6 L5.7 22.7 Q3.4 27.65 2.7 30.55 3.4 27.65 5.7 22.7 L8.75 16.6 M14.2 45.25 Q16.5 48.9 19.65 51.35 22.8 53.8 26.55 55.4 29.05 56.45 31.65 57.05 L26.05 57.1 22.05 56.7 Q18.75 55.2 16.45 53.3 L12.8 49.55 Q11.45 47.9 12.4 46.95 L13.4 46.15 14.2 45.25" fill="#ffffff" fill-opacity="0.0" fill-rule="evenodd" stroke="none"/>
    <path d="M14.25 3.7 L12.85 5.95 8.35 14.25 Q3.65 23.85 2.7 30.55 L2.7 30.65 2.7 30.7 2.7 30.8 2.65 31.0 8.7 37.4 12.15 41.35 10.95 38.4 Q8.6 31.7 12.1 24.3 15.4 17.1 21.85 13.85 26.25 11.65 29.9 10.9 L37.95 10.15 Q42.05 10.1 46.3 11.2 48.55 11.8 49.85 12.45 L50.2 12.6 50.75 12.95 50.8 13.0 51.05 13.15 51.2 13.3 51.3 13.35 51.7 13.65 52.6 14.7 52.7 14.85 52.9 15.15 52.95 15.25 53.65 16.75 53.95 18.55 53.95 19.05 53.95 19.1 53.65 18.55 53.45 18.25 52.6 17.05 52.2 16.65 50.15 15.05 Q48.6 14.25 46.2 13.6 L42.05 12.8 Q38.0 12.4 33.95 12.9 29.8 13.45 26.0 14.85 L25.75 14.95 Q23.7 15.8 22.2 16.65 15.95 20.15 13.95 26.95 11.8 34.3 15.75 42.55 19.55 50.45 27.95 53.95 35.1 56.9 40.5 55.35 43.3 54.55 46.0 53.15 L47.8 52.15 50.5 50.35 50.55 50.3 50.55 50.4 50.15 51.15 50.05 51.3 49.35 52.15 Q48.2 53.85 45.15 55.45 40.1 58.2 34.3 57.5 L34.1 57.45 31.65 57.05 Q29.05 56.45 26.55 55.4 22.8 53.8 19.65 51.35 16.5 48.9 14.2 45.25 13.05 43.45 12.15 41.35 13.05 43.45 14.2 45.25 L13.4 46.15 12.4 46.95 Q11.45 47.9 12.8 49.55 L16.45 53.3 Q18.75 55.2 22.05 56.7 18.3 56.15 14.8 54.9 11.5 53.2 8.05 49.65 1.1 42.6 0.2 33.6 -0.25 29.35 0.3 25.15 0.85 20.6 2.5 16.7 5.25 10.05 10.65 5.95 L11.2 5.55 11.45 5.4 11.6 5.3 11.65 5.3 11.95 5.1 12.0 5.05 12.85 4.55 14.25 3.7 M11.3 45.3 L6.7 40.55 Q2.15 35.25 2.4 32.35 L2.65 31.0 2.4 32.35 Q2.15 35.25 6.7 40.55 L11.3 45.3" fill="#000000" fill-opacity="0.2" fill-rule="evenodd" stroke="none"/>
    <path d="M53.95 19.1 L53.95 19.05 54.65 20.35 53.95 19.1" fill="#343433" fill-rule="evenodd" stroke="none"/>
    <path d="M11.65 5.3 L11.85 5.15 11.95 5.1 11.65 5.3" fill="#e3e3e3" fill-rule="evenodd" stroke="none"/>
    <path d="M51.3 13.35 L51.25 13.15 51.2 13.1 50.8 12.05 50.45 11.15 49.7 9.55 49.0 8.25 47.65 6.15 47.6 6.1 46.4 5.1 Q42.7 2.25 36.7 0.9 L32.25 0.15 30.45 0.0 Q22.6 0.1 16.6 2.6 L14.25 3.7 12.85 4.55 12.0 5.05 11.95 5.1 11.65 5.3 M31.65 57.05 L34.1 57.45 34.3 57.5 Q40.1 58.2 45.15 55.45 48.2 53.85 49.35 52.15 L50.05 51.3 50.15 51.15 50.55 50.4 M53.65 18.55 L53.95 19.1 53.95 19.05 53.95 18.55 53.65 16.75 52.95 15.25 52.9 15.15 52.7 14.85 52.6 14.7 51.7 13.65 51.3 13.35 51.2 13.3 M51.05 13.15 L50.8 13.0 M54.65 20.35 L55.2 21.65 55.3 21.85 55.35 22.05 Q57.4 27.2 57.0 33.15 56.75 36.45 55.75 39.95 L54.75 43.1 54.5 43.7 54.45 43.9 54.3 44.25 51.0 49.9 50.6 50.35 M53.95 19.1 L54.65 20.35 M11.6 5.3 L11.45 5.4 11.2 5.55 10.65 5.95 Q5.25 10.05 2.5 16.7 0.85 20.6 0.3 25.15 -0.25 29.35 0.2 33.6 1.1 42.6 8.05 49.65 11.5 53.2 14.8 54.9 18.3 56.15 22.05 56.7 L26.05 57.1 31.65 57.05" fill="none" stroke="#000000" stroke-linecap="round" stroke-linejoin="miter-clip" stroke-miterlimit="10.0" stroke-width="1.0"/>
    <path d="M50.8 13.0 L50.75 12.95 50.2 12.6 49.85 12.45 Q48.55 11.8 46.3 11.2 42.05 10.1 37.95 10.15 L29.9 10.9 Q26.25 11.65 21.85 13.85 15.4 17.1 12.1 24.3 8.6 31.7 10.95 38.4 L12.15 41.35 Q13.05 43.45 14.2 45.25 16.5 48.9 19.65 51.35 22.8 53.8 26.55 55.4 29.05 56.45 31.65 57.05 M50.55 50.4 L50.55 50.3 50.5 50.35 47.8 52.15 46.0 53.15 Q43.3 54.55 40.5 55.35 35.1 56.9 27.95 53.95 19.55 50.45 15.75 42.55 11.8 34.3 13.95 26.95 15.95 20.15 22.2 16.65 23.7 15.8 25.75 14.95 L26.0 14.85 Q29.8 13.45 33.95 12.9 38.0 12.4 42.05 12.8 L46.2 13.6 Q48.6 14.25 50.15 15.05 L52.2 16.65 52.6 17.05 53.45 18.25 53.65 18.55 M51.2 13.3 L51.05 13.15 M50.6 50.35 L50.55 50.4" fill="none" stroke="#000000" stroke-linecap="round" stroke-linejoin="miter-clip" stroke-miterlimit="10.0" stroke-opacity="0.6" stroke-width="1.0"/>
    <path d="M2.7 30.55 Q3.4 27.65 5.7 22.7 L8.75 16.6 M2.7 30.65 L2.7 30.55 M2.7 30.7 L2.7 30.8 2.65 31.0 2.4 32.35 Q2.15 35.25 6.7 40.55 L11.3 45.3" fill="none" stroke="#000000" stroke-linecap="round" stroke-linejoin="round" stroke-opacity="0.6" stroke-width="1.0"/>
  </g>
</svg>
