<?xml version="1.0" encoding="UTF-8" standalone="no"?>
<svg xmlns:xlink="http://www.w3.org/1999/xlink" height="33.3px" width="36.05px" xmlns="http://www.w3.org/2000/svg">
  <g transform="matrix(1.0, 0.0, 0.0, 1.0, 1.35, -0.3)">
    <path d="M22.65 16.2 L22.9 15.85 23.0 15.7 23.05 15.55 23.1 15.55 23.1 15.45 Q24.65 12.4 25.75 11.8 L26.5 11.85 Q28.6 15.7 29.85 16.9 30.5 17.5 30.7 17.3 31.6 16.95 32.75 15.4 L32.95 15.15 33.15 17.5 33.15 17.55 33.15 17.65 33.05 19.1 Q32.7 23.1 30.75 26.4 L29.55 28.1 26.8 30.95 26.55 31.2 23.8 32.9 Q21.25 32.15 19.05 30.95 L18.05 30.45 Q14.9 28.6 12.6 25.95 10.65 23.75 9.25 21.0 L8.95 20.45 8.35 19.0 7.8 17.65 7.75 17.55 6.95 15.3 7.4 15.45 7.9 15.3 8.15 14.85 7.9 14.35 7.4 14.15 6.9 14.35 6.75 14.6 Q5.6 10.15 5.95 4.7 L5.5 3.5 5.55 3.55 6.2 5.15 6.05 5.05 6.55 6.7 Q7.3 8.7 8.3 10.45 11.35 15.75 15.9 17.55 L16.15 17.65 16.35 17.65 16.6 17.75 18.4 18.3 Q20.4 18.55 21.85 17.65 L21.95 17.65 22.1 17.55 22.15 17.5 22.85 16.45 22.65 16.2 M28.1 19.0 L28.45 19.1 28.9 18.9 29.05 18.4 28.9 17.9 28.5 17.65 28.45 17.65 27.95 17.9 27.75 18.3 26.85 18.4 24.4 18.4 24.25 17.9 Q24.05 17.65 23.8 17.65 L23.75 17.65 Q23.5 17.65 23.3 17.9 L23.1 18.4 23.3 18.9 23.75 19.1 23.8 19.1 24.0 19.05 25.65 19.15 26.6 19.15 28.1 19.0 M22.35 22.75 L21.15 22.9 20.85 23.35 20.75 24.1 20.6 25.7 20.75 26.0 21.95 26.45 22.0 26.5 22.65 26.65 24.4 26.8 24.75 26.8 26.05 26.75 26.05 26.8 26.4 26.8 28.2 26.65 28.8 26.5 28.85 26.45 30.05 26.0 30.2 25.7 30.05 24.1 Q30.0 23.15 29.65 22.9 L28.45 22.75 27.75 22.75 25.8 22.7 25.0 22.7 23.05 22.75 22.35 22.75 M-0.25 5.25 L1.65 5.2 0.35 5.5 -0.25 5.25 M26.3 29.7 L26.1 29.1 Q25.85 28.85 25.6 28.85 25.3 28.85 25.15 29.1 L24.95 29.7 25.15 30.2 Q25.35 30.4 25.6 30.4 L26.1 30.2 26.3 29.7" fill="#ffffff" fill-opacity="0.0" fill-rule="evenodd" stroke="none"/>
    <path d="M22.65 16.2 L22.85 16.45 22.15 17.5 22.1 17.55 21.95 17.65 21.85 17.65 Q20.4 18.55 18.4 18.3 L16.6 17.75 16.35 17.65 16.15 17.65 15.9 17.55 Q11.35 15.75 8.3 10.45 7.3 8.7 6.55 6.7 L6.05 5.05 6.2 5.15 6.95 6.95 7.15 7.3 7.25 7.5 7.4 7.85 7.85 8.75 7.9 8.9 7.95 9.0 8.3 9.5 Q9.9 11.9 11.2 13.3 13.0 15.25 15.0 16.4 L16.95 17.25 18.25 17.55 20.55 17.55 20.75 17.5 Q21.9 17.15 22.65 16.2 M23.8 32.9 L26.55 31.2 26.8 30.95 29.55 28.1 30.75 26.4 Q32.7 23.1 33.05 19.1 L33.15 17.65 33.15 17.55 33.15 17.5 32.95 15.15 33.8 13.85 Q34.25 15.8 34.2 17.55 L34.2 17.65 34.1 19.1 33.8 21.25 Q33.1 24.35 31.35 27.05 L30.9 27.6 30.75 27.85 30.1 28.6 30.0 28.75 26.95 31.6 26.55 31.85 26.3 32.05 24.4 33.1 23.7 33.0 23.8 32.9" fill="#ffffff" fill-opacity="0.4" fill-rule="evenodd" stroke="none"/>
    <path d="M22.35 22.75 L23.05 22.75 22.9 23.7 22.65 25.05 22.65 26.65 22.0 26.5 22.35 22.75 M25.0 22.7 L25.8 22.7 26.05 26.75 24.75 26.8 25.0 22.7 M27.75 22.75 L28.45 22.75 28.8 26.5 28.2 26.65 28.15 25.05 27.9 23.7 27.75 22.75" fill="#ffffff" fill-opacity="0.2" fill-rule="evenodd" stroke="none"/>
    <path d="M5.5 3.5 L5.95 4.7 Q5.6 10.15 6.75 14.6 L6.7 14.85 6.9 15.3 6.95 15.3 7.75 17.55 7.8 17.65 8.35 19.0 8.95 20.45 9.25 21.0 Q10.65 23.75 12.6 25.95 14.9 28.6 18.05 30.45 L19.05 30.95 Q21.25 32.15 23.8 32.9 L23.7 33.0 23.55 32.9 23.4 32.9 15.2 30.5 14.85 30.35 14.7 30.3 14.45 30.15 14.2 30.05 13.7 29.85 13.55 29.8 12.9 29.45 10.3 27.95 7.75 25.95 7.5 25.7 5.95 24.15 4.3 21.85 Q3.6 20.75 3.15 19.5 L3.15 19.45 3.1 19.35 3.0 19.0 2.55 17.65 Q1.6 15.0 1.6 11.7 L1.65 10.15 1.65 9.9 1.65 9.8 1.7 9.65 1.7 9.4 1.85 8.55 1.95 7.8 1.95 7.7 1.95 7.5 2.0 7.35 2.4 4.95 2.45 4.85 2.45 4.7 2.5 4.45 2.95 2.85 3.5 1.1 3.5 1.05 3.55 0.95 3.55 0.9 3.65 0.85 3.75 0.8 Q4.1 0.8 4.55 1.55 L4.8 2.0 4.85 2.1 5.05 2.45 5.35 3.2 5.4 3.2 5.5 3.5 M28.1 19.0 L26.6 19.15 27.9 18.95 28.1 19.0" fill="#000000" fill-opacity="0.2" fill-rule="evenodd" stroke="none"/>
    <path d="M23.7 33.0 L23.65 33.0 23.55 32.9 23.7 33.0 M3.15 19.45 L3.1 19.4 3.1 19.35 3.15 19.45 M3.55 0.9 L3.65 0.8 3.75 0.8 3.65 0.85 3.55 0.9" fill="#7c3b2f" fill-rule="evenodd" stroke="none"/>
    <path d="M1.7 9.4 L1.65 9.4 -0.5 9.05 -0.6 8.75 Q-0.9 7.7 -0.85 6.3 L-0.65 4.95 -0.35 4.85 0.6 4.7 1.65 4.65 2.45 4.7 2.45 4.85 2.4 4.95 2.0 7.35 1.95 7.5 1.95 7.7 1.95 7.8 1.85 8.55 1.7 9.4 M-0.25 5.25 L0.35 5.5 1.65 5.2 -0.25 5.25" fill="#000000" fill-opacity="0.4" fill-rule="evenodd" stroke="none"/>
    <path d="M32.95 15.15 L32.75 15.4 Q31.6 16.95 30.7 17.3 30.5 17.5 29.85 16.9 28.6 15.7 26.5 11.85 L25.75 11.8 Q24.65 12.4 23.1 15.45 L23.1 15.55 23.05 15.55 23.0 15.7 22.9 15.85 22.65 16.2 Q21.9 17.15 20.75 17.5 L20.55 17.55 18.25 17.55 16.95 17.25 15.0 16.4 Q13.0 15.25 11.2 13.3 9.9 11.9 8.3 9.5 L7.95 9.0 7.9 8.9 7.85 8.75 7.4 7.85 7.35 7.75 7.25 7.5 7.15 7.3 6.95 6.95 6.2 5.15 5.55 3.55 5.5 3.5 5.4 3.2 5.35 3.2 5.05 2.45 4.85 2.1 4.8 2.0 4.55 1.55 Q4.1 0.8 3.75 0.8 M32.95 15.15 L33.8 13.85 M1.7 9.4 L1.65 9.4 M26.6 19.15 L25.65 19.15 24.0 19.05 23.8 19.1 23.75 19.1 23.3 18.9 23.1 18.4 23.3 17.9 Q23.5 17.65 23.75 17.65 L23.8 17.65 Q24.05 17.65 24.25 17.9 L24.4 18.4 26.85 18.4 27.75 18.3 27.95 17.9 28.45 17.65 28.5 17.65 28.9 17.9 29.05 18.4 28.9 18.9 28.45 19.1 28.1 19.0 26.6 19.15 M27.9 18.95 L28.1 19.0 M22.0 26.5 L21.95 26.45 20.75 26.0 20.6 25.7 20.75 24.1 20.85 23.35 21.15 22.9 22.35 22.75 23.05 22.75 25.0 22.7 25.8 22.7 27.75 22.75 28.45 22.75 29.65 22.9 Q30.0 23.15 30.05 24.1 L30.2 25.7 30.05 26.0 28.85 26.45 28.8 26.5 28.2 26.65 26.4 26.8 26.05 26.8 26.05 26.75 24.75 26.8 24.4 26.8 22.65 26.65 22.0 26.5 M2.4 4.95 L2.0 7.35 1.95 7.5 1.95 7.7 M1.95 7.8 L1.85 8.55 1.7 9.4" fill="none" stroke="#000000" stroke-linecap="round" stroke-linejoin="miter-clip" stroke-miterlimit="10.0" stroke-opacity="0.6" stroke-width="1.0"/>
    <path d="M6.75 14.6 L6.9 14.35 7.4 14.15 7.9 14.35 8.15 14.85 7.9 15.3 7.4 15.45 6.95 15.3 6.9 15.3 6.7 14.85 6.75 14.6 M22.0 26.5 L22.35 22.75 M23.05 22.75 L22.9 23.7 22.65 25.05 22.65 26.65 M27.75 22.75 L27.9 23.7 28.15 25.05 28.2 26.65 M26.3 29.7 L26.1 30.2 25.6 30.4 Q25.35 30.4 25.15 30.2 L24.95 29.7 25.15 29.1 Q25.3 28.85 25.6 28.85 25.85 28.85 26.1 29.1 L26.3 29.7 M24.75 26.8 L25.0 22.7 M25.8 22.7 L26.05 26.75 M28.45 22.75 L28.8 26.5" fill="none" stroke="#000000" stroke-linecap="round" stroke-linejoin="miter-clip" stroke-miterlimit="10.0" stroke-opacity="0.4" stroke-width="1.0"/>
    <path d="M33.8 13.85 Q34.25 15.8 34.2 17.55 M34.2 17.65 L34.1 19.1 33.8 21.25 Q33.1 24.35 31.35 27.05 L30.9 27.6 30.75 27.85 30.1 28.6 30.0 28.75 26.95 31.6 26.55 31.85 26.3 32.05 24.4 33.1 23.7 33.0 23.65 33.0 23.55 32.9 23.4 32.9 15.2 30.5 14.85 30.35 14.7 30.3 14.45 30.15 14.2 30.05 13.7 29.85 13.55 29.8 12.9 29.45 10.3 27.95 7.75 25.95 7.5 25.7 5.95 24.15 4.3 21.85 Q3.6 20.75 3.15 19.5 L3.15 19.45 3.1 19.35 3.0 19.0 2.55 17.65 Q1.6 15.0 1.6 11.7 L1.65 10.15 1.65 9.9 1.65 9.8 1.7 9.4 1.7 9.65 1.65 9.8 M1.65 9.4 L-0.5 9.05 -0.6 8.75 Q-0.9 7.7 -0.85 6.3 L-0.65 4.95 -0.35 4.85 0.6 4.7 1.65 4.65 2.45 4.7 2.5 4.45 2.95 2.85 3.5 1.1 3.5 1.05 3.55 0.95 3.55 0.9 3.65 0.85 3.75 0.8 M2.45 4.7 L2.45 4.85 2.4 4.95 M23.55 32.9 L23.7 33.0" fill="none" stroke="#000000" stroke-linecap="round" stroke-linejoin="miter-clip" stroke-miterlimit="10.0" stroke-width="1.0"/>
  </g>
</svg>
