<?xml version="1.0" encoding="UTF-8" standalone="no"?>
<svg xmlns:xlink="http://www.w3.org/1999/xlink" height="7.15px" width="12.8px" xmlns="http://www.w3.org/2000/svg">
  <g transform="matrix(1.0, 0.0, 0.0, 1.0, 0.5, 0.5)">
    <path d="M6.35 5.4 Q4.5 5.35 3.15 4.65 1.85 3.9 1.9 3.0 1.9 2.0 3.25 1.35 4.55 0.75 6.45 0.75 8.3 0.8 9.6 1.5 10.9 2.2 10.85 3.15 10.85 4.1 9.55 4.75 8.2 5.45 6.35 5.4 M9.65 3.15 Q9.7 2.45 8.7 1.9 7.75 1.4 6.4 1.35 L4.1 1.8 Q3.1 2.3 3.1 3.0 3.05 3.7 4.05 4.2 5.0 4.75 6.35 4.75 L8.65 4.3 Q9.65 3.85 9.65 3.15" fill="#000000" fill-opacity="0.4" fill-rule="evenodd" stroke="none"/>
    <path d="M5.8 6.15 Q3.35 6.1 1.65 5.15 -0.05 4.2 0.0 2.95 0.0 1.65 1.75 0.8 3.5 -0.05 5.95 0.0 8.4 0.05 10.1 1.0 11.85 1.9 11.8 3.2 11.75 4.45 10.0 5.35 8.25 6.15 5.8 6.15 M6.35 5.4 Q8.2 5.45 9.55 4.75 10.85 4.1 10.85 3.15 10.9 2.2 9.6 1.5 8.3 0.8 6.45 0.75 4.55 0.75 3.25 1.35 1.9 2.0 1.9 3.0 1.85 3.9 3.15 4.65 4.5 5.35 6.35 5.4" fill="#ffffff" fill-opacity="0.0" fill-rule="evenodd" stroke="none"/>
    <path d="M6.35 5.4 Q4.5 5.35 3.15 4.65 1.85 3.9 1.9 3.0 1.9 2.0 3.25 1.35 4.55 0.75 6.45 0.75 8.3 0.8 9.6 1.5 10.9 2.2 10.85 3.15 10.85 4.1 9.55 4.75 8.2 5.45 6.35 5.4" fill="none" stroke="#000000" stroke-linecap="round" stroke-linejoin="round" stroke-opacity="0.4" stroke-width="1.0"/>
    <path d="M5.8 6.15 Q3.35 6.1 1.65 5.15 -0.05 4.2 0.0 2.95 0.0 1.65 1.75 0.8 3.5 -0.05 5.95 0.0 8.4 0.05 10.1 1.0 11.85 1.9 11.8 3.2 11.75 4.45 10.0 5.35 8.25 6.15 5.8 6.15" fill="none" stroke="#000000" stroke-linecap="round" stroke-linejoin="round" stroke-opacity="0.6" stroke-width="1.0"/>
  </g>
</svg>
