<?xml version="1.0" encoding="UTF-8" standalone="no"?>
<svg xmlns:xlink="http://www.w3.org/1999/xlink" height="36.6px" width="27.65px" xmlns="http://www.w3.org/2000/svg">
  <g transform="matrix(1.0, 0.0, 0.0, 1.0, 0.5, 0.5)">
    <path d="M7.7 1.15 L11.45 6.1 10.8 6.15 7.3 1.75 7.2 0.5 7.7 1.15 M6.7 15.25 L7.25 14.15 23.85 14.15 23.0 8.85 24.35 15.25 6.7 15.25 M5.85 16.95 L24.45 16.95 24.45 17.45 5.85 17.45 5.85 16.95 M3.65 19.8 L3.85 16.65 2.45 9.4 4.5 16.65 4.25 20.65 3.65 19.8 M14.6 26.8 L16.45 20.35 17.15 25.35 14.6 26.8" fill="#ffffff" fill-opacity="0.4" fill-rule="evenodd" stroke="none"/>
    <path d="M10.35 35.6 L10.1 35.5 5.65 33.2 Q1.4 30.9 0.6 29.7 0.1 28.95 0.0 25.15 L0.35 19.2 4.15 23.65 4.55 23.85 5.3 23.8 5.9 21.8 6.6 22.7 Q7.4 23.65 8.0 23.8 L11.7 23.65 Q12.3 23.65 15.3 22.25 L16.25 20.1 18.0 20.1 18.6 22.25 23.2 24.15 25.1 24.05 25.65 23.9 26.5 23.0 26.6 22.7 26.65 23.1 26.65 25.5 25.45 30.0 21.55 30.0 18.0 25.7 14.05 30.0 10.35 30.0 10.35 35.6 M7.7 1.15 L11.55 5.85 19.0 5.85 19.35 0.0 22.1 1.75 24.7 15.25 24.35 15.25 23.0 8.85 23.85 14.15 7.25 14.15 6.7 15.25 6.1 15.25 2.6 3.7 7.1 0.35 7.2 0.5 7.3 1.75 10.8 6.15 11.45 6.1 7.7 1.15 M5.85 17.45 L24.45 17.45 24.45 16.95 5.85 16.95 5.85 16.05 25.2 16.05 25.2 19.2 5.85 19.2 5.85 17.45 M3.65 19.8 L4.25 20.65 4.5 16.65 2.45 9.4 3.85 16.65 3.65 19.8 M0.55 17.35 L1.9 6.35 4.75 16.6 4.5 21.3 0.55 17.35 M14.6 26.8 L17.15 25.35 16.45 20.35 14.6 26.8" fill="#ffffff" fill-opacity="0.0" fill-rule="evenodd" stroke="none"/>
    <path d="M10.35 35.6 L10.1 35.5 5.65 33.2 Q1.4 30.9 0.6 29.7 0.1 28.95 0.0 25.15 L0.35 19.2 4.15 23.65 4.55 23.85 5.3 23.8 5.9 21.8 6.6 22.7 Q7.4 23.65 8.0 23.8 L11.7 23.65 Q12.3 23.65 15.3 22.25 L16.25 20.1 18.0 20.1 18.6 22.25 23.2 24.15 25.1 24.05 25.65 23.9 26.5 23.0 26.6 22.7 26.65 23.1 M24.35 15.25 L24.7 15.25 22.1 1.75 19.35 0.0 19.0 5.85 11.55 5.85 7.7 1.15 M7.2 0.5 L7.1 0.35 2.6 3.7 6.1 15.25 6.7 15.25 24.35 15.25 M5.85 17.45 L5.85 19.2 25.2 19.2 25.2 16.05 5.85 16.05 5.85 16.95 5.85 17.45 M0.55 17.35 L1.9 6.35 4.75 16.6 4.5 21.3 0.55 17.35" fill="none" stroke="#000000" stroke-linecap="round" stroke-linejoin="miter-clip" stroke-miterlimit="10.0" stroke-opacity="0.4" stroke-width="1.0"/>
    <path d="M25.45 30.0 L21.55 30.0 18.0 25.7 14.05 30.0 10.35 30.0 10.35 35.6" fill="none" stroke="#000000" stroke-linecap="round" stroke-linejoin="miter-clip" stroke-miterlimit="10.0" stroke-opacity="0.6" stroke-width="1.0"/>
    <path d="M26.65 23.1 L26.65 25.5 25.45 30.0" fill="none" stroke="#000000" stroke-linecap="round" stroke-linejoin="miter-clip" stroke-miterlimit="10.0" stroke-width="1.0"/>
  </g>
</svg>
