<?xml version="1.0" encoding="UTF-8" standalone="no"?>
<svg xmlns:xlink="http://www.w3.org/1999/xlink" height="11.1px" width="20.45px" xmlns="http://www.w3.org/2000/svg">
  <g transform="matrix(1.0, 0.0, 0.0, 1.0, 0.5, 3.55)">
    <path d="M16.55 0.8 Q16.8 0.45 17.95 0.5 L18.2 0.5 Q19.3 0.6 19.4 0.95 L19.3 2.6 Q19.15 4.0 18.9 4.2 L17.9 4.15 16.7 4.1 Q16.5 3.85 16.45 2.4 L16.55 0.8 M18.95 1.35 L18.1 1.05 18.0 1.05 17.0 1.25 16.85 2.5 17.0 3.55 17.85 3.6 18.7 3.65 18.9 2.6 18.95 1.35 M1.85 4.85 L1.1 5.35 0.3 4.85 Q0.0 4.3 0.0 3.6 0.0 2.85 0.3 2.35 0.65 1.85 1.1 1.85 1.55 1.85 1.85 2.35 L2.15 3.6 1.85 4.85" fill="#ffffff" fill-opacity="0.0" fill-rule="evenodd" stroke="none"/>
    <path d="M16.55 0.8 L16.45 2.4 Q16.5 3.85 16.7 4.1 L17.9 4.15 18.9 4.2 Q19.15 4.0 19.3 2.6 L19.4 0.95 Q19.3 0.6 18.2 0.5 L17.95 0.5 Q16.8 0.45 16.55 0.8 M18.95 1.35 L18.1 1.05 18.0 1.05 17.0 1.25 16.85 2.5 17.0 3.55 17.85 3.6 18.7 3.65 18.9 2.6 18.95 1.35 M1.85 4.85 L1.1 5.35 0.3 4.85 Q0.0 4.3 0.0 3.6 0.0 2.85 0.3 2.35 0.65 1.85 1.1 1.85 1.55 1.85 1.85 2.35 L2.15 3.6 1.85 4.85" fill="none" stroke="#000000" stroke-linecap="round" stroke-linejoin="miter-clip" stroke-miterlimit="10.0" stroke-opacity="0.4" stroke-width="1.0"/>
  </g>
</svg>
