<?xml version="1.0" encoding="UTF-8" standalone="no"?>
<svg xmlns:xlink="http://www.w3.org/1999/xlink" height="25.2px" width="59.8px" xmlns="http://www.w3.org/2000/svg">
  <g transform="matrix(1.0, 0.0, 0.0, 1.0, 31.25, 13.65)">
    <path d="M28.05 7.9 Q27.8 8.95 25.55 9.65 L15.2 10.9 14.85 7.0 28.05 7.9 M-16.9 7.0 L-17.0 11.05 -27.65 9.65 Q-30.6 8.8 -30.75 7.9 L-16.9 7.0" fill="#000000" fill-opacity="0.29803923" fill-rule="evenodd" stroke="none"/>
    <path d="M16.95 2.85 Q22.7 4.35 25.0 5.7 22.3 4.6 17.0 3.6 L12.4 2.8 9.25 4.0 7.5 4.65 Q5.2 5.5 3.95 6.1 L3.15 6.55 3.1 6.55 2.6 6.55 1.5 6.55 -0.1 6.55 -2.6 6.55 -1.85 6.15 Q0.3 4.9 3.4 3.8 L5.3 3.15 10.1 1.95 11.0 1.75 11.05 1.7 14.4 2.15 16.2 2.65 16.95 2.85" fill="#000000" fill-opacity="0.2" fill-rule="evenodd" stroke="none"/>
    <path d="M-19.55 2.95 L-18.55 -0.55 Q-17.85 -2.4 -16.35 -4.5 -13.7 -8.1 -9.1 -10.55 L-5.5 -11.85 -5.35 -11.9 -5.0 -12.0 -4.6 -12.1 -1.45 -12.75 -2.45 -11.5 -2.75 -11.1 -3.85 -9.35 Q-4.7 -7.5 -5.2 -4.9 L-5.4 -4.2 -5.45 -3.85 Q-5.9 -1.5 -5.7 1.1 L-12.7 1.6 -18.55 2.65 -19.55 2.95" fill="#000000" fill-opacity="0.09803922" fill-rule="evenodd" stroke="none"/>
    <path d="M-1.45 -12.75 L0.1 -12.85 2.15 -12.65 Q4.7 -12.2 7.0 -10.95 14.45 -7.1 16.95 2.85 L16.2 2.65 14.4 2.15 11.05 1.7 11.0 1.75 10.1 1.95 5.3 3.15 3.4 3.8 Q0.3 4.9 -1.85 6.15 L-2.6 6.55 -2.65 6.55 -12.9 6.75 -16.9 7.0 -30.75 7.9 Q-30.55 7.25 -29.6 6.6 -28.05 5.5 -24.7 4.4 L-19.55 2.95 -18.55 2.65 -12.7 1.6 -5.7 1.1 Q-5.9 -1.5 -5.45 -3.85 L-5.4 -4.2 -5.2 -4.9 Q-4.7 -7.5 -3.85 -9.35 L-2.75 -11.1 -2.45 -11.5 -1.45 -12.75 M25.0 5.7 L26.3 6.4 Q27.45 7.1 27.9 7.65 L28.05 7.9 14.85 7.0 3.15 6.55 3.95 6.1 Q5.2 5.5 7.5 4.65 L9.25 4.0 12.4 2.8 17.0 3.6 Q22.3 4.6 25.0 5.7 M11.0 1.75 L7.2 1.35 -0.05 1.0 -5.7 1.1 -0.05 1.0 7.2 1.35 11.0 1.75" fill="#ffffff" fill-opacity="0.0" fill-rule="evenodd" stroke="none"/>
    <path d="M-1.45 -12.75 L0.1 -12.85 2.15 -12.65 Q4.7 -12.2 7.0 -10.95 14.45 -7.1 16.95 2.85 22.7 4.35 25.0 5.7 M3.15 6.55 L3.1 6.55 M2.6 6.55 L1.5 6.55 M-0.1 6.55 L-2.6 6.55 -2.65 6.55 M-19.55 2.95 L-18.55 -0.55 Q-17.85 -2.4 -16.35 -4.5 -13.7 -8.1 -9.1 -10.55 L-5.5 -11.85 -5.35 -11.9 -5.05 -12.0 -4.6 -12.1 -1.45 -12.75 M11.0 1.75 L11.05 1.7 M-5.05 -12.0 L-5.0 -12.0" fill="none" stroke="#000000" stroke-linecap="butt" stroke-linejoin="miter-clip" stroke-miterlimit="10.0" stroke-width="1.0"/>
    <path d="M25.0 5.7 L26.3 6.4 Q27.45 7.1 27.9 7.65 L28.05 7.9 Q27.8 8.95 25.55 9.65 L15.2 10.9 14.85 7.0 3.15 6.55 M3.1 6.55 L2.6 6.55 M1.5 6.55 L-0.1 6.55 M-2.65 6.55 L-12.9 6.75 -16.9 7.0 -17.0 11.05 -27.65 9.65 Q-30.6 8.8 -30.75 7.9 -30.55 7.25 -29.6 6.6 -28.05 5.5 -24.7 4.4 L-19.55 2.95 M-30.75 7.9 L-16.9 7.0 M14.85 7.0 L28.05 7.9" fill="none" stroke="#000000" stroke-linecap="butt" stroke-linejoin="round" stroke-width="1.0"/>
    <path d="M11.0 1.75 L10.1 1.95 5.3 3.15 3.4 3.8 Q0.3 4.9 -1.85 6.15 L-2.6 6.55 M3.15 6.55 L3.95 6.1 Q5.2 5.5 7.5 4.65 L9.25 4.0 12.4 2.8 17.0 3.6 Q22.3 4.6 25.0 5.7" fill="none" stroke="#000000" stroke-linecap="butt" stroke-linejoin="miter-clip" stroke-miterlimit="10.0" stroke-opacity="0.4" stroke-width="1.0"/>
    <path d="M-5.7 1.1 L-0.05 1.0 7.2 1.35 11.0 1.75 M-5.7 1.1 L-12.7 1.6 -18.55 2.65" fill="none" stroke="#000000" stroke-linecap="butt" stroke-linejoin="round" stroke-opacity="0.6" stroke-width="1.0"/>
    <path d="M11.05 1.7 L14.4 2.15 16.2 2.65 16.95 2.85 M-18.55 2.65 L-19.55 2.95" fill="none" stroke="#000000" stroke-linecap="butt" stroke-linejoin="miter-clip" stroke-miterlimit="10.0" stroke-opacity="0.6" stroke-width="1.0"/>
    <path d="M-5.0 -12.0 L-3.6 -11.8 -2.45 -11.5 Q-0.7 -11.0 0.8 -10.2 7.1 -6.9 7.2 1.35 M-5.45 -3.85 L-5.8 -3.75 -6.15 -4.0 -6.25 -4.5 -6.05 -5.0 -5.65 -5.15 -5.2 -4.9 -5.1 -4.4 -5.4 -3.9 -5.45 -3.85 M-6.4 -0.8 L-6.6 -0.3 Q-6.75 -0.1 -7.0 -0.1 -7.3 -0.1 -7.45 -0.3 L-7.6 -0.85 -7.4 -1.35 -6.95 -1.5 -6.55 -1.3 -6.4 -0.8" fill="none" stroke="#000000" stroke-linecap="butt" stroke-linejoin="miter-clip" stroke-miterlimit="10.0" stroke-opacity="0.4" stroke-width="1.0"/>
  </g>
</svg>
