<?xml version="1.0" encoding="UTF-8" standalone="no"?>
<svg xmlns:xlink="http://www.w3.org/1999/xlink" height="49.3px" width="43.0px" xmlns="http://www.w3.org/2000/svg">
  <g transform="matrix(1.0, 0.0, 0.0, 1.0, 21.65, 42.35)">
    <path d="M-7.85 2.75 L-5.8 1.75 Q-1.45 -0.4 2.35 -1.7 7.0 -3.3 10.4 -2.1 L15.45 0.15 17.0 1.0 Q20.95 2.9 20.85 4.15 20.65 6.45 11.15 6.45 L2.1 5.55 Q-2.1 4.7 -7.85 2.75" fill="#000000" fill-opacity="0.2" fill-rule="evenodd" stroke="none"/>
    <path d="M6.2 -34.2 L6.2 -34.25 6.1 -35.85 6.2 -34.25 Q5.5 -36.35 3.05 -36.55 0.5 -36.75 -0.9 -34.6 -3.0 -31.45 -3.15 -28.35 -3.3 -25.85 -2.85 -25.85 L-6.95 -23.6 Q-9.6 -22.05 -11.8 -20.25 -16.7 -16.25 -21.1 -4.5 L-20.2 -11.85 Q-18.35 -21.55 -15.35 -25.95 -11.75 -31.1 -9.05 -33.8 -6.45 -36.45 -2.4 -39.05 -1.0 -39.7 -0.05 -39.65 2.35 -39.45 4.0 -38.45 5.7 -37.45 6.1 -35.85 L14.4 -36.8 14.45 -35.0 7.95 -34.4 6.2 -34.2 M12.5 -19.8 L13.35 -18.4 15.0 -14.75 15.9 -11.85 16.45 -8.9 16.8 -4.7 16.8 -4.35 17.0 1.0 15.45 0.15 10.4 -2.1 Q7.0 -3.3 2.35 -1.7 -1.45 -0.4 -5.8 1.75 L-7.85 2.75 -14.2 2.4 -20.8 3.1 -21.1 -2.5 Q-19.65 -5.35 -17.95 -9.35 -16.5 -12.35 -14.55 -14.3 -5.2 -23.55 3.35 -24.1 6.25 -24.3 8.65 -22.75 11.15 -20.7 12.5 -19.8" fill="#ffffff" fill-opacity="0.0" fill-rule="evenodd" stroke="none"/>
    <path d="M14.4 -36.8 L6.1 -35.85 Q5.7 -37.45 4.0 -38.45 2.35 -39.45 -0.05 -39.65 -1.0 -39.7 -2.4 -39.05 2.3 -42.05 6.95 -41.85 11.6 -41.6 14.4 -36.8" fill="#ffffff" fill-opacity="0.8" fill-rule="evenodd" stroke="none"/>
    <path d="M6.2 -34.2 L7.95 -34.4 7.1 -32.7 Q5.05 -27.45 10.6 -22.05 10.0 -22.25 7.9 -24.25 6.15 -25.9 3.35 -26.1 L-0.3 -26.1 -2.85 -25.85 -0.3 -26.1 3.35 -26.1 Q6.15 -25.9 7.9 -24.25 10.0 -22.25 10.6 -22.05 L11.35 -21.3 12.5 -19.8 Q11.15 -20.7 8.65 -22.75 6.25 -24.3 3.35 -24.1 -5.2 -23.55 -14.55 -14.3 -16.5 -12.35 -17.95 -9.35 -19.65 -5.35 -21.1 -2.5 L-21.1 -4.9 -21.1 -4.5 Q-16.7 -16.25 -11.8 -20.25 -9.6 -22.05 -6.95 -23.6 L-2.85 -25.85 Q-3.3 -25.85 -3.15 -28.35 -3.0 -31.45 -0.9 -34.6 0.5 -36.75 3.05 -36.55 5.5 -36.35 6.2 -34.25 L6.2 -34.2" fill="#ffffff" fill-opacity="0.6" fill-rule="evenodd" stroke="none"/>
    <path d="M6.2 -34.25 L6.2 -34.2 6.2 -34.25 M7.95 -34.4 L14.45 -35.0 14.4 -36.8 Q11.6 -41.6 6.95 -41.85 2.3 -42.05 -2.4 -39.05 -6.45 -36.45 -9.05 -33.8 -11.75 -31.1 -15.35 -25.95 -18.35 -21.55 -20.2 -11.85 L-21.1 -4.5 -21.1 -4.9 -21.1 -2.5 -20.8 3.1 M10.6 -22.05 Q5.05 -27.45 7.1 -32.7 L7.95 -34.4 M17.0 1.0 L16.8 -4.35 16.8 -4.7 16.45 -8.9 15.9 -11.85 15.0 -14.75 13.35 -18.4 12.5 -19.8 11.35 -21.3 10.6 -22.05" fill="none" stroke="#000000" stroke-linecap="round" stroke-linejoin="round" stroke-width="1.0"/>
    <path d="M6.2 -34.2 L7.95 -34.4 M14.4 -36.8 L6.1 -35.85 6.2 -34.25 Q5.5 -36.35 3.05 -36.55 0.5 -36.75 -0.9 -34.6 -3.0 -31.45 -3.15 -28.35 -3.3 -25.85 -2.85 -25.85 L-0.3 -26.1 3.35 -26.1 Q6.15 -25.9 7.9 -24.25 10.0 -22.25 10.6 -22.05 M-2.4 -39.05 Q-1.0 -39.7 -0.05 -39.65 2.35 -39.45 4.0 -38.45 5.7 -37.45 6.1 -35.85 M-20.8 3.1 L-14.2 2.4 -7.85 2.75 -5.8 1.75 Q-1.45 -0.4 2.35 -1.7 7.0 -3.3 10.4 -2.1 L15.45 0.15 17.0 1.0" fill="none" stroke="#000000" stroke-linecap="round" stroke-linejoin="round" stroke-opacity="0.4" stroke-width="1.0"/>
    <path d="M17.0 1.0 Q20.95 2.9 20.85 4.15 20.65 6.45 11.15 6.45 L2.1 5.55 Q-2.1 4.7 -7.85 2.75" fill="none" stroke="#000000" stroke-linecap="round" stroke-linejoin="round" stroke-opacity="0.6" stroke-width="1.0"/>
  </g>
</svg>
