<?xml version="1.0" encoding="UTF-8" standalone="no"?>
<svg xmlns:xlink="http://www.w3.org/1999/xlink" height="49.3px" width="23.15px" xmlns="http://www.w3.org/2000/svg">
  <g transform="matrix(1.0, 0.0, 0.0, 1.0, 10.1, 0.45)">
    <path d="M8.35 0.05 L9.45 2.0 Q10.45 3.5 10.85 4.55 14.15 13.2 8.6 21.5 L9.4 24.05 Q10.2 27.3 10.5 30.7 11.2 39.25 6.8 48.0 -0.15 49.7 -6.75 48.0 L-7.7 44.05 -8.4 39.5 Q-10.05 28.35 -8.45 21.75 -7.1 16.45 -6.45 12.8 L-5.45 6.7 Q-0.9 2.4 8.35 0.05 M1.3 21.2 Q-2.2 17.65 -3.3 12.8 L-3.6 11.2 -3.3 12.8 Q-2.2 17.65 1.3 21.2" fill="#ffffff" fill-opacity="0.0" fill-rule="evenodd" stroke="none"/>
    <path d="M8.35 0.05 L9.45 2.0 Q10.45 3.5 10.85 4.55 14.15 13.2 8.6 21.5 L9.4 24.05 Q10.2 27.3 10.5 30.7 11.2 39.25 6.8 48.0 M-6.75 48.0 L-7.7 44.05 -8.4 39.5 Q-10.05 28.35 -8.45 21.75 -7.1 16.45 -6.45 12.8 L-5.45 6.7" fill="none" stroke="#000000" stroke-linecap="round" stroke-linejoin="miter-clip" stroke-miterlimit="10.0" stroke-width="1.0"/>
    <path d="M-3.6 11.2 L-3.3 12.8 Q-2.2 17.65 1.3 21.2" fill="none" stroke="#000000" stroke-linecap="butt" stroke-linejoin="miter-clip" stroke-miterlimit="10.0" stroke-opacity="0.24705882" stroke-width="1.0"/>
  </g>
</svg>
