<?xml version="1.0" encoding="UTF-8" standalone="no"?>
<svg xmlns:xlink="http://www.w3.org/1999/xlink" height="13.95px" width="40.4px" xmlns="http://www.w3.org/2000/svg">
  <g transform="matrix(1.0, 0.0, 0.0, 1.0, 23.0, 1.65)">
    <path d="M16.05 -1.15 Q17.5 2.35 16.45 2.35 L8.65 2.6 Q3.85 2.95 -3.0 4.9 -9.75 6.7 -14.1 8.65 -16.65 9.6 -20.95 11.7 -21.8 12.1 -22.15 10.55 L-22.5 8.5 Q-5.0 -0.45 16.05 -1.15" fill="#ffffff" fill-opacity="0.0" fill-rule="evenodd" stroke="none"/>
    <path d="M-22.5 8.5 L-22.15 10.55 Q-21.8 12.1 -20.95 11.7 -16.65 9.6 -14.1 8.65 -9.75 6.7 -3.0 4.9 3.85 2.95 8.65 2.6 L16.45 2.35 Q17.5 2.35 16.05 -1.15" fill="none" stroke="#000000" stroke-linecap="round" stroke-linejoin="round" stroke-width="1.0"/>
    <path d="M16.05 -1.15 Q-5.0 -0.45 -22.5 8.5 Z" fill="none" stroke="#000000" stroke-linecap="round" stroke-linejoin="round" stroke-opacity="0.4" stroke-width="1.0"/>
  </g>
</svg>
