<?xml version="1.0" encoding="UTF-8" standalone="no"?>
<svg xmlns:xlink="http://www.w3.org/1999/xlink" height="52.8px" width="44.5px" xmlns="http://www.w3.org/2000/svg">
  <g transform="matrix(1.0, 0.0, 0.0, 1.0, 23.95, 25.65)">
    <path d="M5.3 -24.75 Q8.05 -24.35 10.4 -23.3 L12.85 -22.15 Q15.6 -20.5 17.1 -18.6 L18.3 -16.5 Q19.6 -13.3 20.0 -3.3 L20.05 -2.1 19.85 -0.8 18.7 -0.8 18.3 -0.75 Q19.5 13.15 17.25 19.1 L16.4 22.0 Q16.05 23.15 15.3 24.0 L13.95 25.05 12.7 25.2 11.65 24.95 11.05 24.55 Q10.65 23.75 10.65 22.95 L10.65 21.25 Q10.65 20.45 10.9 20.0 L13.35 18.4 Q14.7 17.35 15.5 15.9 L16.2 14.0 Q16.4 13.5 15.9 13.05 15.45 12.65 14.85 12.5 L15.0 6.8 Q15.75 6.8 16.2 6.25 L17.05 3.85 17.15 1.2 Q17.0 -0.05 16.55 -0.8 L16.55 -0.85 15.5 -2.0 14.9 -2.3 14.25 -2.3 Q13.75 -2.25 12.95 -1.7 L11.75 -0.95 10.4 -0.45 10.35 -0.45 10.4 -0.3 11.35 1.8 11.2 2.9 10.95 4.35 11.35 5.2 11.85 6.8 12.15 8.35 12.2 9.3 12.15 10.45 11.65 11.55 11.6 14.1 11.45 14.7 11.4 14.7 10.4 8.4 9.15 0.5 9.2 0.5 9.35 0.55 Q10.25 -2.35 9.35 -4.65 L10.0 -4.3 10.4 -3.5 10.85 -4.4 10.9 -4.45 12.4 -5.85 12.75 -6.0 14.45 -6.15 14.9 -6.0 16.45 -4.85 17.0 -3.8 17.15 -3.3 17.2 -3.3 Q16.85 -12.75 16.0 -15.75 L15.95 -15.95 14.5 -18.6 13.6 -19.9 10.4 -22.25 10.3 -22.35 7.25 -24.2 5.3 -24.75 M20.0 -3.3 L18.0 -3.3 17.2 -3.3 18.0 -3.3 20.0 -3.3 M10.4 -3.5 L10.65 -2.1 10.4 -0.75 10.35 -0.45 10.2 -0.1 Q9.9 0.7 9.35 0.55 9.9 0.7 10.2 -0.1 L10.35 -0.45 10.4 -0.75 10.65 -2.1 10.4 -3.5 M14.45 -6.15 Q15.05 -4.2 14.25 -2.3 15.05 -4.2 14.45 -6.15 M12.4 -5.85 Q13.25 -3.95 12.95 -1.7 13.25 -3.95 12.4 -5.85 M10.85 -4.4 Q11.75 -3.0 11.75 -0.95 11.75 -3.0 10.85 -4.4 M16.55 -0.8 L18.0 -0.75 18.3 -0.75 18.0 -0.75 16.55 -0.8 M16.45 -4.85 Q16.3 -3.35 15.5 -2.0 16.3 -3.35 16.45 -4.85 M16.55 -0.85 Q17.25 -2.05 17.15 -3.3 17.25 -2.05 16.55 -0.85" fill="#000000" fill-opacity="0.09803922" fill-rule="evenodd" stroke="none"/>
    <path d="M-23.45 16.35 Q-18.65 9.05 -17.9 -0.9 L-18.25 -0.9 -18.6 -2.15 -18.55 -3.1 -18.4 -4.65 -17.75 -10.85 Q-17.05 -14.95 -16.2 -16.5 -14.15 -20.15 -10.4 -22.8 -9.15 -23.65 -7.05 -24.15 L-2.3 -24.9 2.55 -25.1 4.45 -24.95 5.2 -24.85 5.3 -24.75 7.25 -24.2 10.3 -22.35 10.4 -22.25 13.6 -19.9 14.5 -18.6 15.95 -15.95 16.0 -15.75 Q16.85 -12.75 17.2 -3.3 L17.15 -3.3 17.0 -3.8 16.45 -4.85 14.9 -6.0 14.45 -6.15 12.75 -6.0 12.4 -5.85 10.9 -4.45 10.85 -4.4 10.4 -3.5 10.0 -4.3 10.1 -7.0 10.35 -13.55 10.1 -7.0 10.0 -4.3 9.35 -4.65 9.0 -4.65 Q8.5 -4.7 8.0 -4.3 8.5 -4.7 9.0 -4.65 L9.35 -4.65 Q10.25 -2.35 9.35 0.55 L9.2 0.5 9.15 0.5 10.4 8.4 11.4 14.7 11.2 14.7 Q10.8 14.6 10.65 14.2 L10.4 13.7 10.25 13.3 9.9 11.75 8.55 10.55 7.75 9.3 Q7.5 8.2 7.85 6.8 L8.0 5.2 7.9 4.35 7.45 2.9 Q7.2 2.4 7.2 1.8 L7.5 -0.45 5.65 -1.0 4.35 -1.65 4.05 -1.75 2.35 -2.35 1.8 -2.4 1.3 -2.4 0.5 -2.1 Q-0.45 -1.75 -1.0 -0.95 L-1.0 -0.9 Q-1.65 0.0 -1.8 1.2 -1.95 2.45 -1.6 3.85 -1.25 5.35 -0.5 6.25 0.05 6.8 1.1 6.8 L1.8 6.7 2.1 6.65 2.7 12.55 1.8 12.55 1.35 12.5 Q0.6 12.6 0.05 13.1 -0.6 13.55 -0.55 14.05 -0.5 15.05 -0.05 15.9 L-0.05 15.95 0.0 16.0 0.0 16.1 0.05 16.1 0.05 16.2 Q0.65 17.2 1.8 18.1 L3.5 19.1 Q5.45 20.1 7.85 21.0 8.4 21.6 8.3 23.65 8.25 25.6 7.8 25.95 L6.95 26.3 5.45 26.6 3.85 26.45 1.95 25.2 1.8 25.1 Q-0.7 22.95 -2.7 19.1 -4.65 16.4 -5.85 13.75 -8.15 8.75 -8.2 4.95 -8.25 1.15 -8.65 0.35 L-9.4 -0.85 -9.9 -0.9 -12.25 -0.95 Q-13.2 0.25 -13.75 2.85 L-14.7 7.65 Q-16.45 13.85 -23.45 16.35 M2.0 -6.25 L4.25 -6.1 4.75 -5.9 4.25 -6.1 2.0 -6.25 1.8 -5.65 Q1.5 -4.6 1.8 -3.55 L2.35 -2.35 1.8 -3.55 Q1.5 -4.6 1.8 -5.65 L2.0 -6.25 1.3 -6.1 Q0.1 -5.75 -0.75 -5.0 0.1 -5.75 1.3 -6.1 L2.0 -6.25 M4.75 -5.9 Q3.75 -4.0 4.05 -1.75 3.75 -4.0 4.75 -5.9 L6.7 -4.55 6.8 -4.45 7.4 -3.5 7.7 -3.95 8.0 -4.3 7.8 -7.0 6.8 -13.15 10.35 -13.55 6.8 -13.15 7.8 -7.0 8.0 -4.3 7.7 -3.95 7.4 -3.5 6.8 -4.45 6.7 -4.55 4.75 -5.9 M7.5 -0.45 L7.7 -0.1 Q8.15 0.7 9.0 0.55 L9.15 0.5 9.0 0.55 Q8.15 0.7 7.7 -0.1 L7.5 -0.45 7.3 -1.0 7.15 -2.1 Q7.15 -2.9 7.4 -3.5 7.15 -2.9 7.15 -2.1 L7.3 -1.0 7.5 -0.45 M6.8 -4.45 Q5.75 -3.05 5.65 -1.0 5.75 -3.05 6.8 -4.45 M0.5 -2.1 Q-0.75 -3.7 -0.75 -5.0 -0.75 -3.7 0.5 -2.1 M-17.9 -0.9 L-12.25 -0.95 -17.9 -0.9 M-1.0 -0.95 Q-1.85 -2.05 -1.8 -3.1 L-1.65 -3.75 -1.6 -3.9 -0.75 -5.0 -1.6 -3.9 -1.65 -3.75 -1.8 -3.1 Q-1.85 -2.05 -1.0 -0.95 M-1.0 -0.9 L-3.25 -0.85 -3.6 -0.85 -9.4 -0.85 -3.6 -0.85 -3.25 -0.85 -1.0 -0.9 M-1.8 -3.1 L-3.25 -3.1 -3.6 -3.1 -8.75 -3.1 -18.55 -3.1 -8.75 -3.1 -3.6 -3.1 -3.25 -3.1 -1.8 -3.1" fill="#ffffff" fill-opacity="0.0" fill-rule="evenodd" stroke="none"/>
    <path d="M-23.45 16.35 Q-18.65 9.05 -17.9 -0.9 L-18.25 -0.9 -18.6 -2.15 -18.55 -3.1 -18.4 -4.65 -17.75 -10.85 Q-17.05 -14.95 -16.2 -16.5 -14.15 -20.15 -10.4 -22.8 -9.15 -23.65 -7.05 -24.15 L-2.3 -24.9 2.55 -25.1 4.45 -24.95 5.2 -24.85 5.3 -24.75 Q8.05 -24.35 10.4 -23.3 L12.85 -22.15 Q15.6 -20.5 17.1 -18.6 L18.3 -16.5 Q19.6 -13.3 20.0 -3.3 L20.05 -2.1 19.85 -0.8 18.7 -0.8 18.3 -0.75 Q19.5 13.15 17.25 19.1 L16.4 22.0 Q16.05 23.15 15.3 24.0 L13.95 25.05 12.7 25.2 11.65 24.95 11.05 24.55 Q10.65 23.75 10.65 22.95 L10.65 21.25 Q10.65 20.45 10.9 20.0 M7.85 21.0 Q8.4 21.6 8.3 23.65 8.25 25.6 7.8 25.95 L6.95 26.3 5.45 26.6 3.85 26.45 1.95 25.2 1.8 25.1 Q-0.7 22.95 -2.7 19.1 -4.65 16.4 -5.85 13.75 -8.15 8.75 -8.2 4.95 -8.25 1.15 -8.65 0.35 L-9.4 -0.85 -9.9 -0.9 -12.25 -0.95 -17.9 -0.9" fill="none" stroke="#000000" stroke-linecap="round" stroke-linejoin="round" stroke-width="1.0"/>
    <path d="M10.9 20.0 L13.35 18.4 Q14.7 17.35 15.5 15.9 L16.2 14.0 Q16.4 13.5 15.9 13.05 15.45 12.65 14.85 12.5 L15.0 6.8 Q15.75 6.8 16.2 6.25 L17.05 3.85 17.15 1.2 Q17.0 -0.05 16.55 -0.8 L16.55 -0.85 15.5 -2.0 14.9 -2.3 14.25 -2.3 Q13.75 -2.25 12.95 -1.7 L11.75 -0.95 10.4 -0.45 10.35 -0.45 10.4 -0.75 10.65 -2.1 10.4 -3.5 10.85 -4.4 10.9 -4.45 12.4 -5.85 12.75 -6.0 14.45 -6.15 14.9 -6.0 16.45 -4.85 17.0 -3.8 17.15 -3.3 Q17.25 -2.05 16.55 -0.85 M11.45 14.7 L11.4 14.7 11.2 14.7 Q10.8 14.6 10.65 14.2 L10.4 13.7 10.25 13.3 9.9 11.75 8.55 10.55 7.75 9.3 Q7.5 8.2 7.85 6.8 L8.0 5.2 7.9 4.35 7.45 2.9 Q7.2 2.4 7.2 1.8 L7.5 -0.45 5.65 -1.0 4.35 -1.65 4.05 -1.75 2.35 -2.35 1.8 -2.4 1.3 -2.4 0.5 -2.1 Q-0.45 -1.75 -1.0 -0.95 L-1.0 -0.9 Q-1.65 0.0 -1.8 1.2 -1.95 2.45 -1.6 3.85 -1.25 5.35 -0.5 6.25 0.05 6.8 1.1 6.8 L1.8 6.7 2.1 6.65 M2.7 12.55 L1.8 12.55 1.35 12.5 Q0.6 12.6 0.05 13.1 -0.6 13.55 -0.55 14.05 -0.5 15.05 -0.05 15.9 L-0.05 15.95 0.0 16.0 0.0 16.1 0.05 16.1 0.05 16.2 Q0.65 17.2 1.8 18.1 L3.5 19.1 Q5.45 20.1 7.85 21.0 M-12.25 -0.95 Q-13.2 0.25 -13.75 2.85 L-14.7 7.65 Q-16.45 13.85 -23.45 16.35 M4.75 -5.9 L4.25 -6.1 2.0 -6.25 1.3 -6.1 Q0.1 -5.75 -0.75 -5.0 L-1.6 -3.9 -1.65 -3.75 -1.8 -3.1 Q-1.85 -2.05 -1.0 -0.95 M4.75 -5.9 L6.7 -4.55 6.8 -4.45 7.4 -3.5 7.7 -3.95 8.0 -4.3 7.8 -7.0 6.8 -13.15 10.35 -13.55 M10.0 -4.3 L10.4 -3.5 M8.0 -4.3 Q8.5 -4.7 9.0 -4.65 L9.35 -4.65 10.0 -4.3 M7.5 -0.45 L7.3 -1.0 7.15 -2.1 Q7.15 -2.9 7.4 -3.5 M9.15 0.5 L9.0 0.55 Q8.15 0.7 7.7 -0.1 L7.5 -0.45 M9.35 0.55 Q9.9 0.7 10.2 -0.1 L10.35 -0.45 M9.35 0.55 L9.2 0.5 9.15 0.5" fill="none" stroke="#000000" stroke-linecap="round" stroke-linejoin="round" stroke-opacity="0.6" stroke-width="1.0"/>
    <path d="M2.0 -6.25 L1.8 -5.65 Q1.5 -4.6 1.8 -3.55 L2.35 -2.35 M4.05 -1.75 Q3.75 -4.0 4.75 -5.9 M5.65 -1.0 Q5.75 -3.05 6.8 -4.45 M-0.75 -5.0 Q-0.75 -3.7 0.5 -2.1 M11.75 -0.95 Q11.75 -3.0 10.85 -4.4 M12.95 -1.7 Q13.25 -3.95 12.4 -5.85 M14.25 -2.3 Q15.05 -4.2 14.45 -6.15 M15.5 -2.0 Q16.3 -3.35 16.45 -4.85" fill="none" stroke="#000000" stroke-linecap="round" stroke-linejoin="round" stroke-opacity="0.2" stroke-width="1.0"/>
    <path d="M10.35 -0.45 L10.4 -0.3 11.35 1.8 11.2 2.9 10.95 4.35 11.35 5.2 11.85 6.8 12.15 8.35 12.2 9.3 12.15 10.45 11.65 11.55 11.6 14.1 11.45 14.7 M2.1 6.65 L2.7 12.55 M10.35 -13.55 L10.1 -7.0 10.0 -4.3 M17.15 -3.3 L17.2 -3.3 18.0 -3.3 20.0 -3.3 M18.3 -0.75 L18.0 -0.75 16.55 -0.8 M-18.55 -3.1 L-8.75 -3.1 -3.6 -3.1 -3.25 -3.1 -1.8 -3.1 M-9.4 -0.85 L-3.6 -0.85 -3.25 -0.85 -1.0 -0.9" fill="none" stroke="#000000" stroke-linecap="round" stroke-linejoin="round" stroke-opacity="0.4" stroke-width="1.0"/>
    <path d="M9.15 0.5 L10.4 8.4 11.4 14.7" fill="none" stroke="#000000" stroke-linecap="round" stroke-linejoin="round" stroke-opacity="0.24705882" stroke-width="1.0"/>
  </g>
</svg>
