<?xml version="1.0" encoding="UTF-8" standalone="no"?>
<svg xmlns:xlink="http://www.w3.org/1999/xlink" height="31.7px" width="41.05px" xmlns="http://www.w3.org/2000/svg">
  <g transform="matrix(1.0, 0.0, 0.0, 1.0, 24.0, 19.5)">
    <path d="M15.95 -2.5 Q16.75 -0.2 16.5 1.2 16.2 2.55 15.05 2.5 8.3 2.0 -4.7 4.95 -9.7 6.1 -20.5 11.5 -21.75 12.15 -22.6 10.4 -23.5 8.8 -23.5 6.25 -23.5 3.5 -22.7 0.75 -21.95 -1.85 -19.9 -6.1 -17.75 -10.55 -15.0 -14.4 -11.95 -18.65 -10.5 -18.95 -8.7 -19.35 -1.4 -16.65 6.45 -13.7 10.2 -10.55 13.25 -8.0 14.35 -6.3 L15.95 -2.5" fill="#ffffff" fill-opacity="0.0" fill-rule="evenodd" stroke="none"/>
    <path d="M15.95 -2.5 Q16.75 -0.2 16.5 1.2 16.2 2.55 15.05 2.5 8.3 2.0 -4.7 4.95 -9.7 6.1 -20.5 11.5 -21.75 12.15 -22.6 10.4 -23.5 8.8 -23.5 6.25 -23.5 3.5 -22.7 0.75 -21.95 -1.85 -19.9 -6.1 -17.75 -10.55 -15.0 -14.4 -11.95 -18.65 -10.5 -18.95 -8.7 -19.35 -1.4 -16.65 6.45 -13.7 10.2 -10.55 13.25 -8.0 14.35 -6.3 L15.95 -2.5 Z" fill="none" stroke="#000000" stroke-linecap="round" stroke-linejoin="round" stroke-width="1.0"/>
    <path d="M-12.5 4.55 Q6.05 -3.45 14.8 -0.45" fill="none" stroke="#000000" stroke-linecap="round" stroke-linejoin="round" stroke-opacity="0.4" stroke-width="1.0"/>
    <path d="M-4.1 0.15 Q6.05 -4.75 12.0 -2.15" fill="none" stroke="#000000" stroke-linecap="round" stroke-linejoin="round" stroke-opacity="0.4" stroke-width="1.0"/>
  </g>
</svg>
