<?xml version="1.0" encoding="UTF-8" standalone="no"?>
<svg xmlns:xlink="http://www.w3.org/1999/xlink" height="13.75px" width="26.3px" xmlns="http://www.w3.org/2000/svg">
  <g transform="matrix(1.0, 0.0, 0.0, 1.0, 11.65, 6.85)">
    <path d="M9.65 6.35 Q8.55 6.5 7.95 5.75 7.15 4.75 7.1 3.85 L7.1 3.7 Q7.15 2.75 9.8 0.7 12.5 -1.45 13.45 -5.9 14.9 -2.35 13.25 1.85 11.9 5.6 10.35 6.2 L9.65 6.35" fill="#ffffff" fill-opacity="0.0" fill-rule="evenodd" stroke="none"/>
    <path d="M7.1 3.7 Q7.15 2.75 9.8 0.7 12.5 -1.45 13.45 -5.9 14.9 -2.35 13.25 1.85 11.9 5.6 10.35 6.2 L9.65 6.35" fill="none" stroke="#000000" stroke-linecap="round" stroke-linejoin="round" stroke-width="1.0"/>
    <path d="M9.65 6.35 Q8.55 6.5 7.95 5.75 7.15 4.75 7.1 3.85 L7.1 3.7 Z" fill="none" stroke="#000000" stroke-linecap="round" stroke-linejoin="round" stroke-opacity="0.4" stroke-width="1.0"/>
    <path d="M-4.15 3.05 L-4.1 3.35 Q-4.15 4.25 -4.95 5.3 -5.6 6.1 -6.8 5.85 L-7.35 5.7 -7.6 5.6 Q-9.0 4.8 -10.3 1.4 -11.9 -2.8 -10.45 -6.35 -9.5 -1.9 -6.8 0.25 -4.7 1.9 -4.25 2.8 L-4.15 3.05" fill="#ffffff" fill-opacity="0.0" fill-rule="evenodd" stroke="none"/>
    <path d="M-4.15 3.05 L-4.1 3.35 Q-4.15 4.25 -4.95 5.3 -5.6 6.1 -6.8 5.85" fill="none" stroke="#000000" stroke-linecap="round" stroke-linejoin="round" stroke-opacity="0.4" stroke-width="1.0"/>
    <path d="M-6.8 5.85 L-7.35 5.7 -7.6 5.6 Q-9.0 4.8 -10.3 1.4 -11.9 -2.8 -10.45 -6.35 -9.5 -1.9 -6.8 0.25 -4.7 1.9 -4.25 2.8 L-4.15 3.05 Z" fill="none" stroke="#000000" stroke-linecap="round" stroke-linejoin="round" stroke-width="1.0"/>
  </g>
</svg>
