<?xml version="1.0" encoding="UTF-8" standalone="no"?>
<svg xmlns:xlink="http://www.w3.org/1999/xlink" height="18.65px" width="36.1px" xmlns="http://www.w3.org/2000/svg">
  <g transform="matrix(1.0, 0.0, 0.0, 1.0, 20.4, 9.85)">
    <path d="M6.8 -9.35 L8.3 -9.05 Q9.05 -8.75 9.65 -8.1 10.85 -6.85 10.85 -5.05 10.85 -3.55 10.05 -2.4 11.35 0.55 13.3 -2.35 L13.8 -6.3 14.0 -8.9 15.2 -8.8 15.0 -6.3 14.5 -2.3 14.45 -1.4 14.4 -0.5 14.4 0.5 14.35 0.9 14.2 2.85 Q-1.75 0.6 -16.6 8.3 L-17.2 6.9 -17.35 6.55 -17.55 5.9 -17.55 5.1 Q-17.65 4.35 -18.1 3.85 -19.05 3.0 -19.5 1.7 -20.15 0.05 -19.75 -1.5 L-19.0 -2.75 -18.35 -3.25 -18.2 -3.4 -18.0 -3.45 -17.7 -3.55 -16.75 -3.6 Q-16.05 -3.55 -15.4 -3.1 -14.05 -2.25 -13.4 -0.6 -13.05 0.35 -13.0 1.25 L-13.0 1.65 Q-10.05 3.25 -8.45 0.15 L-8.5 0.1 -8.75 -0.15 -8.95 -0.4 Q-9.9 -1.6 -9.9 -3.2 -9.9 -5.0 -8.75 -6.25 L-7.5 -7.15 -7.35 -7.2 -6.1 -7.5 -5.85 -7.5 -5.6 -7.5 -5.35 -7.45 -4.35 -7.2 Q-3.6 -6.9 -3.0 -6.25 -1.8 -5.0 -1.8 -3.2 -1.8 -2.25 -2.05 -1.45 -1.4 -0.75 -0.1 -0.55 1.8 -0.3 3.7 -2.25 2.75 -3.45 2.75 -5.05 2.75 -6.85 3.9 -8.1 4.55 -8.75 5.3 -9.1 L6.8 -9.35 M14.35 0.9 Q-2.05 -1.05 -17.2 6.9 -2.05 -1.05 14.35 0.9" fill="#ffffff" fill-opacity="0.0" fill-rule="evenodd" stroke="none"/>
    <path d="M6.8 -9.35 L8.3 -9.05 Q9.05 -8.75 9.65 -8.1 10.85 -6.85 10.85 -5.05 10.85 -3.55 10.05 -2.4 11.35 0.55 13.3 -2.35 L13.8 -6.3 14.0 -8.9 15.2 -8.8 15.0 -6.3 14.5 -2.3 14.45 -1.4 14.4 -0.5 14.4 0.5 14.35 0.9 14.2 2.85 Q-1.75 0.6 -16.6 8.3 L-17.2 6.9 -17.35 6.55 -17.55 5.9 -17.55 5.1 Q-17.65 4.35 -18.1 3.85 -19.05 3.0 -19.5 1.7 -20.15 0.05 -19.75 -1.5 L-19.0 -2.75 -18.35 -3.25 -18.2 -3.4 -18.0 -3.45 -17.7 -3.55 -16.75 -3.6 Q-16.05 -3.55 -15.4 -3.1 -14.05 -2.25 -13.4 -0.6 -13.05 0.35 -13.0 1.25 L-13.0 1.65 Q-10.05 3.25 -8.45 0.15 L-8.5 0.1 -8.75 -0.15 -8.95 -0.4 Q-9.9 -1.6 -9.9 -3.2 -9.9 -5.0 -8.75 -6.25 L-7.5 -7.15 -7.35 -7.2 -6.1 -7.5 -5.85 -7.5 -5.6 -7.5 -5.35 -7.45 -4.35 -7.2 Q-3.6 -6.9 -3.0 -6.25 -1.8 -5.0 -1.8 -3.2 -1.8 -2.25 -2.05 -1.45 -1.4 -0.75 -0.1 -0.55 1.8 -0.3 3.7 -2.25 2.75 -3.45 2.75 -5.05 2.75 -6.85 3.9 -8.1 4.55 -8.75 5.3 -9.1 L6.8 -9.35" fill="none" stroke="#000000" stroke-linecap="round" stroke-linejoin="round" stroke-width="1.0"/>
    <path d="M-17.2 6.9 Q-2.05 -1.05 14.35 0.9" fill="none" stroke="#000000" stroke-linecap="round" stroke-linejoin="round" stroke-opacity="0.4" stroke-width="1.0"/>
  </g>
</svg>
