<?xml version="1.0" encoding="UTF-8" standalone="no"?>
<svg xmlns:xlink="http://www.w3.org/1999/xlink" height="33.25px" width="16.6px" xmlns="http://www.w3.org/2000/svg">
  <g transform="matrix(1.0, 0.0, 0.0, 1.0, 7.95, -6.2)">
    <path d="M5.15 37.85 L6.75 37.55 6.3 23.45 4.8 23.45 5.15 37.85 M-1.3 6.7 L2.85 6.7 Q5.45 7.5 7.35 8.6 L8.15 37.75 8.05 37.8 8.05 37.85 Q6.3 38.7 2.95 38.9 L0.9 38.95 Q0.5 37.4 -0.45 36.55 -1.1 35.95 -2.2 35.75 L-2.5 35.7 -1.3 6.7 -2.5 35.7 Q-3.85 35.5 -4.8 36.75 L-5.7 38.5 -7.05 38.35 -7.1 38.3 -7.45 38.25 -5.4 6.7 -1.3 6.7" fill="#ffffff" fill-opacity="0.0" fill-rule="evenodd" stroke="none"/>
    <path d="M5.15 37.85 L4.8 23.45 6.3 23.45 6.75 37.55 5.15 37.85" fill="#ffffff" fill-opacity="0.24705882" fill-rule="evenodd" stroke="none"/>
    <path d="M8.05 37.8 L8.15 37.75 7.35 8.6 M-5.4 6.7 L-7.45 38.25 -7.1 38.3" fill="none" stroke="#000000" stroke-linecap="round" stroke-linejoin="miter-clip" stroke-miterlimit="10.0" stroke-width="1.0"/>
    <path d="M-1.3 6.7 L-2.5 35.7" fill="none" stroke="#000000" stroke-linecap="round" stroke-linejoin="miter-clip" stroke-miterlimit="10.0" stroke-opacity="0.4" stroke-width="1.0"/>
    <path d="M-2.5 35.7 L-2.2 35.75 Q-1.1 35.95 -0.45 36.55 0.5 37.4 0.9 38.95 L2.95 38.9 Q6.3 38.7 8.05 37.85 L8.05 37.8 M-7.1 38.3 L-7.05 38.35 -5.7 38.5 -4.8 36.75 Q-3.85 35.5 -2.5 35.7" fill="none" stroke="#000000" stroke-linecap="round" stroke-linejoin="miter-clip" stroke-miterlimit="10.0" stroke-opacity="0.6" stroke-width="1.0"/>
  </g>
</svg>
