<?xml version="1.0" encoding="UTF-8" standalone="no"?>
<svg xmlns:xlink="http://www.w3.org/1999/xlink" height="31.45px" width="28.15px" xmlns="http://www.w3.org/2000/svg">
  <g transform="matrix(1.0, 0.0, 0.0, 1.0, 14.55, 15.75)">
    <path d="M9.8 10.5 L10.45 9.0 Q11.8 4.5 10.75 -0.4 9.8 -5.35 6.8 -8.85 4.15 -12.05 -1.4 -13.0 -5.85 -13.75 -9.8 -12.05 L-12.65 -10.65 Q-13.55 -10.05 -12.65 -11.15 L-11.4 -12.55 Q-7.95 -15.7 -1.85 -15.15 3.95 -14.6 7.35 -11.4 9.9 -9.05 11.35 -5.6 12.65 -2.45 13.0 1.3 13.35 5.85 12.35 9.55 L11.4 12.2 10.1 14.65 Q9.25 15.7 8.6 14.75 8.2 14.05 8.95 12.2 L9.1 11.85 9.8 10.5" fill="#ffffff" fill-opacity="0.0" fill-rule="evenodd" stroke="none"/>
    <path d="M9.8 10.5 L10.45 9.0 Q11.8 4.5 10.75 -0.4 9.8 -5.35 6.8 -8.85 4.15 -12.05 -1.4 -13.0 -5.85 -13.75 -9.8 -12.05 L-12.65 -10.65 Q-13.55 -10.05 -12.65 -11.15 L-11.4 -12.55 Q-7.95 -15.7 -1.85 -15.15 3.95 -14.6 7.35 -11.4 9.9 -9.05 11.35 -5.6 12.65 -2.45 13.0 1.3 13.35 5.85 12.35 9.55 L11.4 12.2" fill="none" stroke="#000000" stroke-linecap="round" stroke-linejoin="miter-clip" stroke-miterlimit="10.0" stroke-width="1.0"/>
    <path d="M11.4 12.2 L10.1 14.65 Q9.25 15.7 8.6 14.75 8.2 14.05 8.95 12.2 L9.1 11.85 9.8 10.5 Z" fill="none" stroke="#000000" stroke-linecap="round" stroke-linejoin="miter-clip" stroke-miterlimit="10.0" stroke-opacity="0.4" stroke-width="1.0"/>
  </g>
</svg>
