<?xml version="1.0" encoding="UTF-8" standalone="no"?>
<svg xmlns:xlink="http://www.w3.org/1999/xlink" height="21.35px" width="34.95px" xmlns="http://www.w3.org/2000/svg">
  <g transform="matrix(1.0, 0.0, 0.0, 1.0, 0.5, 0.5)">
    <path d="M33.95 16.35 L33.65 19.95 32.4 19.0 Q23.2 12.25 14.85 10.7 11.7 10.1 5.35 10.7 L5.4 10.65 2.95 10.85 0.7 10.95 0.0 8.25 Q2.85 7.05 6.35 6.85 8.35 6.7 10.55 6.85 8.35 6.7 6.35 6.85 L6.35 6.8 4.5 3.0 3.25 0.75 5.75 0.2 11.05 0.4 10.1 2.9 Q9.35 5.6 10.15 6.45 L10.55 6.85 11.15 6.9 Q22.15 7.9 33.95 16.35" fill="#ffffff" fill-opacity="0.0" fill-rule="evenodd" stroke="none"/>
    <path d="M0.0 8.25 L0.7 10.95 2.95 10.85 5.4 10.65 5.35 10.7 Q11.7 10.1 14.85 10.7 23.2 12.25 32.4 19.0 L33.65 19.95 33.95 16.35" fill="none" stroke="#000000" stroke-linecap="round" stroke-linejoin="miter-clip" stroke-miterlimit="10.0" stroke-width="1.0"/>
    <path d="M33.95 16.35 Q22.15 7.9 11.15 6.9 L10.55 6.85 Q8.35 6.7 6.35 6.85 2.85 7.05 0.0 8.25 M10.55 6.85 L10.15 6.45 Q9.35 5.6 10.1 2.9 L11.05 0.4 5.75 0.2 3.25 0.75 4.5 3.0 6.35 6.8 6.35 6.85" fill="none" stroke="#000000" stroke-linecap="round" stroke-linejoin="miter-clip" stroke-miterlimit="10.0" stroke-opacity="0.4" stroke-width="1.0"/>
  </g>
</svg>
