<?xml version="1.0" encoding="UTF-8" standalone="no"?>
<svg xmlns:xlink="http://www.w3.org/1999/xlink" height="49.45px" width="40.6px" xmlns="http://www.w3.org/2000/svg">
  <g transform="matrix(1.0, 0.0, 0.0, 1.0, 1.15, 0.5)">
    <path d="M37.8 15.3 Q38.2 18.75 37.5 21.25 L38.85 23.35 37.5 25.25 37.65 26.75 38.2 29.25 Q38.7 30.6 36.5 32.5 L35.25 38.05 Q33.75 44.0 32.3 45.95 32.1 46.2 30.95 44.7 29.25 42.5 27.25 41.05 19.9 35.8 6.4 38.25 3.25 32.95 1.35 26.4 -1.15 17.65 0.9 11.75 3.8 3.6 14.0 0.9 24.25 -1.8 31.15 3.8 36.9 8.45 37.8 15.3 M8.75 4.9 L13.8 2.55 Q6.05 3.85 3.15 9.65 1.65 12.55 1.75 15.2 3.4 8.6 8.75 4.9" fill="#ffffff" fill-opacity="0.0" fill-rule="evenodd" stroke="none"/>
    <path d="M8.75 4.9 Q3.4 8.6 1.75 15.2 1.65 12.55 3.15 9.65 6.05 3.85 13.8 2.55 L8.75 4.9" fill="#ffffff" fill-opacity="0.8" fill-rule="evenodd" stroke="none"/>
    <path d="M37.8 15.3 Q38.2 18.75 37.5 21.25 L38.85 23.35 37.5 25.25 37.65 26.75 38.2 29.25 Q38.7 30.6 36.5 32.5 L35.25 38.05 Q33.75 44.0 32.3 45.95 32.1 46.2 30.95 44.7 29.25 42.5 27.25 41.05 19.9 35.8 6.4 38.25 3.25 32.95 1.35 26.4 -1.15 17.65 0.9 11.75 3.8 3.6 14.0 0.9 24.25 -1.8 31.15 3.8 36.9 8.45 37.8 15.3 Z" fill="none" stroke="#000000" stroke-linecap="round" stroke-linejoin="miter-clip" stroke-miterlimit="10.0" stroke-width="1.0"/>
    <path d="M20.3 0.15 Q15.5 1.55 13.2 6.15 12.05 8.5 11.8 10.55 L18.7 17.1 22.1 16.2 27.15 14.5 M0.25 16.05 L4.45 17.4 11.75 10.5 11.8 10.55 M1.9 26.1 Q3.45 25.3 5.2 24.75 L4.4 17.4 4.45 17.4 M18.7 17.1 L18.7 23.45 23.3 24.2 M18.7 23.45 L16.25 23.3 Q10.1 23.1 5.2 24.75" fill="none" stroke="#000000" stroke-linecap="round" stroke-linejoin="miter-clip" stroke-miterlimit="10.0" stroke-opacity="0.4" stroke-width="1.0"/>
  </g>
</svg>
