<?xml version="1.0" encoding="UTF-8" standalone="no"?>
<svg xmlns:xlink="http://www.w3.org/1999/xlink" height="20.95px" width="49.55px" xmlns="http://www.w3.org/2000/svg">
  <g transform="matrix(1.0, 0.0, 0.0, 1.0, 2.95, 0.5)">
    <path d="M40.4 12.1 L39.8 13.9 39.35 15.25 39.05 16.1 38.95 16.3 Q38.65 16.9 35.9 17.6 L24.95 19.25 Q18.2 19.9 11.9 19.4 L6.95 18.8 1.4 15.65 Q-0.7 14.2 0.35 11.75 1.15 9.9 3.15 8.4 L4.55 7.4 Q2.05 9.6 2.25 9.85 3.85 12.6 7.6 14.05 L8.7 14.2 Q9.15 12.3 8.75 10.15 10.8 11.3 14.3 13.75 17.4 15.6 20.25 15.45 L26.1 14.85 Q29.55 14.15 31.5 12.45 31.4 15.75 40.6 11.45 L40.4 12.1" fill="#000000" fill-opacity="0.14901961" fill-rule="evenodd" stroke="none"/>
    <path d="M4.55 7.4 Q5.5 6.75 6.3 6.4 L9.55 5.05 Q13.35 3.5 21.6 1.7 30.55 -0.25 33.95 0.05 37.35 0.35 40.65 2.9 43.75 5.35 42.85 6.25 42.2 6.95 40.6 11.5 L40.4 12.1 40.6 11.45 Q31.4 15.75 31.5 12.45 29.55 14.15 26.1 14.85 L20.25 15.45 Q17.4 15.6 14.3 13.75 10.8 11.3 8.75 10.15 9.15 12.3 8.7 14.2 L7.6 14.05 Q3.85 12.6 2.25 9.85 2.05 9.6 4.55 7.4" fill="#ffffff" fill-opacity="0.0" fill-rule="evenodd" stroke="none"/>
    <path d="M40.4 12.1 L39.8 13.9 M39.35 15.25 L39.05 16.1" fill="none" stroke="#000000" stroke-linecap="round" stroke-linejoin="round" stroke-width="1.0"/>
    <path d="M4.55 7.4 Q5.5 6.75 6.3 6.4 L9.55 5.05 Q13.35 3.5 21.6 1.7 30.55 -0.25 33.95 0.05 37.35 0.35 40.65 2.9 43.75 5.35 42.85 6.25 42.2 6.95 40.6 11.5 L40.4 12.1 M39.8 13.9 L39.35 15.25 M39.05 16.1 L38.95 16.3 Q38.65 16.9 35.9 17.6 L24.95 19.25 Q18.2 19.9 11.9 19.4 L6.95 18.8 1.4 15.65 Q-0.7 14.2 0.35 11.75 1.15 9.9 3.15 8.4 L4.55 7.4" fill="none" stroke="#000000" stroke-linecap="butt" stroke-linejoin="miter-clip" stroke-miterlimit="10.0" stroke-width="1.0"/>
  </g>
</svg>
