<?xml version="1.0" encoding="UTF-8" standalone="no"?>
<svg xmlns:xlink="http://www.w3.org/1999/xlink" height="10.05px" width="42.05px" xmlns="http://www.w3.org/2000/svg">
  <g transform="matrix(1.0, 0.0, 0.0, 1.0, 0.5, 0.5)">
    <path d="M0.95 5.55 L1.3 2.25 3.2 2.4 3.0 5.9 0.95 5.55" fill="#ffffff" fill-opacity="0.2" fill-rule="evenodd" stroke="none"/>
    <path d="M34.2 0.0 L34.2 3.6 Q41.8 6.9 40.95 7.25 35.75 9.45 30.15 7.75 L26.4 5.95 25.8 6.05 Q14.5 7.7 0.0 5.9 L0.4 1.8 13.95 2.15 Q28.6 2.05 34.2 0.0 M26.4 5.95 Q31.6 5.15 34.2 4.0 31.6 5.15 26.4 5.95 M34.2 4.0 L34.2 3.6 34.2 4.0 M0.95 5.55 L3.0 5.9 3.2 2.4 1.3 2.25 0.95 5.55" fill="#ffffff" fill-opacity="0.0" fill-rule="evenodd" stroke="none"/>
    <path d="M34.2 0.0 L34.2 3.6 34.2 4.0 M40.95 7.25 Q35.75 9.45 30.15 7.75 L26.4 5.95 M25.8 6.05 Q14.5 7.7 0.0 5.9 L0.4 1.8" fill="none" stroke="#000000" stroke-linecap="butt" stroke-linejoin="miter-clip" stroke-miterlimit="10.0" stroke-width="1.0"/>
    <path d="M0.4 1.8 L13.95 2.15 Q28.6 2.05 34.2 0.0" fill="none" stroke="#000000" stroke-linecap="butt" stroke-linejoin="miter-clip" stroke-miterlimit="10.0" stroke-opacity="0.4" stroke-width="1.0"/>
    <path d="M34.2 3.6 Q41.8 6.9 40.95 7.25" fill="none" stroke="#000000" stroke-linecap="butt" stroke-linejoin="miter-clip" stroke-miterlimit="10.0" stroke-width="1.0"/>
    <path d="M26.4 5.95 L25.8 6.05" fill="none" stroke="#000000" stroke-linecap="round" stroke-linejoin="miter-clip" stroke-miterlimit="10.0" stroke-width="1.0"/>
    <path d="M34.2 4.0 Q31.6 5.15 26.4 5.95" fill="none" stroke="#000000" stroke-linecap="butt" stroke-linejoin="miter-clip" stroke-miterlimit="10.0" stroke-opacity="0.4" stroke-width="1.0"/>
  </g>
</svg>
