<?xml version="1.0" encoding="UTF-8" standalone="no"?>
<svg xmlns:xlink="http://www.w3.org/1999/xlink" height="59.0px" width="42.6px" xmlns="http://www.w3.org/2000/svg">
  <g transform="matrix(1.0, 0.0, 0.0, 1.0, 4.95, 6.6)">
    <path d="M30.0 48.6 L28.65 49.85 21.65 50.85 Q13.9 51.4 10.15 49.15 6.15 46.65 1.9 38.9 -1.7 32.3 -3.2 26.5 L-3.65 23.1 -3.65 22.85 Q-3.7 18.65 -2.4 13.9 -0.35 6.15 4.05 2.15 8.65 -2.15 10.8 -3.55 13.15 -5.05 14.2 -4.2 15.3 -3.4 19.3 -1.9 23.1 -0.55 25.65 0.15 27.7 0.7 30.0 2.35 L32.45 4.5 Q36.65 8.7 37.15 13.25 L35.0 17.9 Q33.95 20.5 33.3 23.1 L33.25 23.1 Q32.45 25.65 32.2 28.15 31.85 31.7 31.65 40.25 31.5 46.9 31.1 47.35 L30.0 48.6 M13.2 -1.7 L14.1 0.25 Q15.4 2.4 17.6 3.0 L23.65 3.85 Q27.0 4.3 29.75 5.5 20.85 1.25 13.2 -1.7" fill="#ffffff" fill-opacity="0.0" fill-rule="evenodd" stroke="none"/>
    <path d="M29.75 5.5 Q27.0 4.3 23.65 3.85 L17.6 3.0 Q15.4 2.4 14.1 0.25 L13.2 -1.7 Q20.85 1.25 29.75 5.5" fill="#000000" fill-opacity="0.14901961" fill-rule="evenodd" stroke="none"/>
    <path d="M30.0 48.6 L28.65 49.85 21.65 50.85 Q13.9 51.4 10.15 49.15 6.15 46.65 1.9 38.9 -1.7 32.3 -3.2 26.5 L-3.65 23.1 -3.65 22.85 Q-3.7 18.65 -2.4 13.9 -0.35 6.15 4.05 2.15 8.65 -2.15 10.8 -3.55 13.15 -5.05 14.2 -4.2 15.3 -3.4 19.3 -1.9 23.1 -0.55 25.65 0.15 27.7 0.7 30.0 2.35 L32.45 4.5 Q36.65 8.7 37.15 13.25 L35.0 17.9 Q33.95 20.5 33.3 23.1 M33.25 23.1 Q32.45 25.65 32.2 28.15 31.85 31.7 31.65 40.25 31.5 46.9 31.1 47.35 L30.0 48.6" fill="none" stroke="#000000" stroke-linecap="round" stroke-linejoin="miter-clip" stroke-miterlimit="10.0" stroke-width="1.0"/>
    <path d="M13.2 -1.7 L14.1 0.25 Q15.4 2.4 17.6 3.0 L23.65 3.85 Q27.0 4.3 29.75 5.5" fill="none" stroke="#000000" stroke-linecap="round" stroke-linejoin="miter-clip" stroke-miterlimit="10.0" stroke-opacity="0.4" stroke-width="1.0"/>
  </g>
</svg>
