<?xml version="1.0" encoding="UTF-8" standalone="no"?>
<svg xmlns:xlink="http://www.w3.org/1999/xlink" height="25.0px" width="48.1px" xmlns="http://www.w3.org/2000/svg">
  <g transform="matrix(1.0, 0.0, 0.0, 1.0, 0.5, 0.5)">
    <path d="M7.1 18.3 L7.5 13.15 Q8.25 7.15 9.8 5.45 14.95 -0.25 25.35 0.0 32.15 0.2 36.35 6.15 40.25 11.75 38.95 18.15 44.45 18.8 46.3 19.75 47.25 20.2 47.05 20.55 36.1 22.2 16.95 21.9 L0.0 21.3 Q-0.2 20.65 3.7 19.35 L7.1 18.3 7.6 18.15 7.1 18.3" fill="#ffffff" fill-opacity="0.0" fill-rule="evenodd" stroke="none"/>
    <path d="M7.1 18.3 L3.7 19.35 Q-0.2 20.65 0.0 21.3 L16.95 21.9 Q36.1 22.2 47.05 20.55 47.25 20.2 46.3 19.75 44.45 18.8 38.95 18.15 40.25 11.75 36.35 6.15 32.15 0.2 25.35 0.0 14.95 -0.25 9.8 5.45 8.25 7.15 7.5 13.15 L7.1 18.3 7.6 18.15" fill="none" stroke="#000000" stroke-linecap="round" stroke-linejoin="miter-clip" stroke-miterlimit="10.0" stroke-width="1.0"/>
  </g>
</svg>
