<?xml version="1.0" encoding="UTF-8" standalone="no"?>
<svg xmlns:xlink="http://www.w3.org/1999/xlink" height="34.5px" width="7.75px" xmlns="http://www.w3.org/2000/svg">
  <g transform="matrix(1.0, 0.0, 0.0, 1.0, 0.5, 0.5)">
    <path d="M4.95 33.4 Q3.85 34.75 2.4 33.05 1.5 32.0 0.95 29.8 L3.95 26.1 6.45 28.75 Q5.95 32.15 4.95 33.4" fill="#ffffff" fill-opacity="0.0" fill-rule="evenodd" stroke="none"/>
    <path d="M1.05 0.0 L2.8 10.1 3.0 11.7 3.05 11.65 6.35 17.3 M6.75 22.7 L3.6 17.5 3.85 21.6 6.75 25.1 M0.0 21.6 L3.6 17.5 3.0 11.7 0.1 15.55 M3.85 21.6 Q4.05 27.35 3.7 32.7 M0.25 25.65 L3.85 21.6" fill="none" stroke="#000000" stroke-linecap="round" stroke-linejoin="miter-clip" stroke-miterlimit="10.0" stroke-opacity="0.4" stroke-width="1.0"/>
  </g>
</svg>
