<?xml version="1.0" encoding="UTF-8" standalone="no"?>
<svg xmlns:xlink="http://www.w3.org/1999/xlink" height="50.65px" width="36.75px" xmlns="http://www.w3.org/2000/svg">
  <g transform="matrix(1.0, 0.0, 0.0, 1.0, 0.5, 0.5)">
    <path d="M25.95 0.15 L28.4 1.4 Q29.65 2.3 30.95 3.7 L25.3 4.9 Q24.6 5.1 24.75 7.05 L24.8 7.25 24.95 8.4 23.15 7.5 23.55 7.7 24.4 8.2 22.15 8.55 21.85 8.6 Q19.8 8.95 19.5 9.25 19.15 9.55 19.35 11.3 L19.6 13.05 18.4 12.65 16.55 11.35 Q15.0 10.4 14.5 7.7 L14.25 5.25 19.75 6.05 22.15 7.0 21.75 6.45 21.35 5.9 21.3 5.8 20.05 3.7 18.85 1.25 25.45 0.0 25.55 0.05 25.65 0.05 25.75 0.1 25.8 0.1 25.9 0.15 25.95 0.15 M22.15 7.0 L22.7 7.25 23.15 7.5 22.7 7.25 22.15 7.0 M21.3 5.8 L21.75 6.45 21.3 5.8 M12.25 25.65 L11.35 25.05 7.45 22.2 4.9 20.3 4.85 20.25 Q4.05 19.75 5.2 19.0 L6.45 18.3 Q10.3 18.05 15.2 19.35 L15.35 19.45 14.1 20.75 Q12.8 22.2 12.4 23.15 11.95 24.1 12.25 25.65 M11.6 10.9 Q13.7 11.25 16.7 12.4 14.25 13.85 13.15 14.65 12.85 14.95 13.2 16.2 L13.6 17.4 13.25 17.4 12.7 17.1 Q10.8 16.0 9.15 13.5 L7.85 11.25 11.6 10.9 M8.05 40.95 L3.7 40.6 3.45 40.55 0.0 38.7 1.25 36.75 Q2.9 34.6 4.7 33.7 L5.7 33.3 5.95 33.2 5.95 33.25 Q4.65 36.15 5.35 36.7 6.3 37.55 7.95 40.75 L8.05 40.95 M8.85 24.95 L11.75 25.7 Q8.95 27.4 8.6 28.7 8.3 29.9 10.1 32.45 L9.4 32.1 Q5.2 30.05 3.9 26.85 L3.45 24.0 Q4.95 24.0 8.85 24.95 M12.25 48.35 Q10.65 49.2 8.3 49.6 L7.8 49.65 3.9 49.15 4.35 46.9 Q5.1 44.3 6.45 42.8 L7.4 41.9 Q7.3 45.05 8.1 45.35 9.15 45.75 12.05 48.15 L12.25 48.35" fill="#ffffff" fill-opacity="0.0" fill-rule="evenodd" stroke="none"/>
    <path d="M25.95 0.15 L28.4 1.4 M24.95 8.4 L23.15 7.5 23.55 7.7 24.4 8.2 M19.6 13.05 L18.4 12.65 16.55 11.35 Q15.0 10.4 14.5 7.7 L14.25 5.25 19.75 6.05 22.15 7.0 22.7 7.25 23.15 7.5 M21.75 6.45 L21.35 5.9 21.3 5.8 M15.2 19.35 Q10.3 18.05 6.45 18.3 L5.2 19.0 Q4.05 19.75 4.85 20.25 L4.9 20.3 7.45 22.2 11.35 25.05 12.25 25.65 M11.6 10.9 L7.85 11.25 9.15 13.5 Q10.8 16.0 12.7 17.1 M19.7 13.6 Q14.5 11.3 11.6 10.9 M8.85 24.95 Q4.95 24.0 3.45 24.0 L3.9 26.85 Q5.2 30.05 9.4 32.1 M12.7 25.95 L8.85 24.95" fill="none" stroke="#000000" stroke-linecap="round" stroke-linejoin="miter-clip" stroke-miterlimit="10.0" stroke-opacity="0.4" stroke-width="1.0"/>
    <path d="M28.4 1.4 Q29.65 2.3 30.95 3.7 M22.15 7.0 L21.75 6.45 21.3 5.8 20.05 3.7 18.85 1.25 25.45 0.0 25.55 0.05 25.65 0.05 25.75 0.1 25.8 0.1 25.9 0.15 25.95 0.15 M8.05 40.95 L3.7 40.6 3.45 40.55 0.0 38.7 1.25 36.75 Q2.9 34.6 4.7 33.7 L5.7 33.3 5.95 33.2 5.95 33.25 M12.25 48.35 Q10.65 49.2 8.3 49.6 L7.8 49.65 3.9 49.15 4.35 46.9 Q5.1 44.3 6.45 42.8 L7.4 41.9" fill="none" stroke="#000000" stroke-linecap="round" stroke-linejoin="round" stroke-opacity="0.4" stroke-width="1.0"/>
    <path d="M4.45 25.3 L7.3 27.5 Q11.5 29.95 18.15 31.15 M9.6 11.4 L14.45 14.6 Q20.05 18.05 24.05 19.4 M5.0 48.0 L7.1 45.85 Q9.9 43.4 13.25 42.0 M21.6 2.45 L26.25 5.3 Q31.7 9.1 35.75 13.7" fill="none" stroke="#000000" stroke-linecap="round" stroke-linejoin="miter-clip" stroke-miterlimit="10.0" stroke-opacity="0.24705882" stroke-width="1.0"/>
  </g>
</svg>
