<?xml version="1.0" encoding="UTF-8" standalone="no"?>
<svg xmlns:xlink="http://www.w3.org/1999/xlink" height="41.65px" width="32.95px" xmlns="http://www.w3.org/2000/svg">
  <g transform="matrix(1.0, 0.0, 0.0, 1.0, 0.0, 0.1)">
    <path d="M19.5 4.3 Q20.2 1.4 20.75 0.5 L21.15 0.05 25.85 0.5 25.8 0.4 Q29.25 4.7 31.05 11.3 L32.0 15.85 Q32.6 16.5 32.8 17.05 L32.95 18.6 Q32.95 19.5 31.9 21.55 30.75 23.7 29.8 24.4 L27.2 25.1 Q24.7 25.8 24.35 26.1 L23.1 27.1 Q21.8 27.9 20.55 27.9 L19.95 27.9 16.95 30.3 11.85 34.9 4.35 41.05 0.5 37.6 Q-0.45 36.75 0.45 32.75 L0.75 32.55 1.25 32.3 0.65 29.05 Q0.55 28.6 0.9 28.05 1.35 27.2 2.8 26.25 L5.2 24.9 3.6 24.9 Q3.3 23.2 3.45 22.3 3.65 21.0 4.45 20.05 L2.05 19.0 4.25 19.9 Q3.95 15.9 3.35 14.85 3.15 14.55 3.2 14.15 3.2 12.95 4.85 10.65 9.4 11.45 13.7 13.5 L11.95 11.7 13.35 6.95 19.25 5.25 Q18.3 4.75 17.4 4.35 18.95 5.0 20.3 5.85 L19.5 4.3 M24.65 20.9 L21.2 18.05 Q17.55 15.25 13.7 13.5 17.55 15.25 21.2 18.05 L24.65 20.9 M28.75 15.55 L28.0 14.15 Q25.6 9.4 20.9 6.25 L20.3 5.85 20.9 6.25 Q25.6 9.4 28.0 14.15 L28.75 15.55 M1.85 18.9 L1.15 18.75 1.45 18.75 1.45 18.7 1.85 18.9 M1.35 32.25 Q5.05 30.6 11.7 28.75 L13.6 28.25 18.0 27.2 13.6 28.25 11.7 28.75 Q5.05 30.6 1.35 32.25 L1.25 32.3 1.35 32.25 M5.2 24.9 L12.95 25.8 17.7 26.55 12.95 25.8 5.2 24.9 M4.45 20.05 Q8.15 21.55 14.3 23.3 L19.0 24.55 14.3 23.3 Q8.15 21.55 4.45 20.05 M21.6 26.5 L22.15 26.45 22.2 26.45 23.25 25.7 21.6 26.5" fill="#ffffff" fill-opacity="0.0" fill-rule="evenodd" stroke="none"/>
    <path d="M19.95 27.9 L16.95 30.3 11.85 34.9 4.35 41.05 M32.0 15.85 L31.05 11.3 Q29.25 4.7 25.8 0.4 M1.35 32.25 L1.25 32.3" fill="none" stroke="#000000" stroke-linecap="round" stroke-linejoin="miter-clip" stroke-miterlimit="10.0" stroke-width="1.0"/>
    <path d="M19.5 4.3 L20.3 5.85 20.9 6.25 Q25.6 9.4 28.0 14.15 L28.75 15.55 M13.7 13.5 Q17.55 15.25 21.2 18.05 L24.65 20.9 M4.85 10.65 Q9.4 11.45 13.7 13.5 L11.95 11.7 M19.0 24.55 L14.3 23.3 Q8.15 21.55 4.45 20.05 M17.7 26.55 L12.95 25.8 5.2 24.9 M18.0 27.2 L13.6 28.25 11.7 28.75 Q5.05 30.6 1.35 32.25" fill="none" stroke="#000000" stroke-linecap="round" stroke-linejoin="miter-clip" stroke-miterlimit="10.0" stroke-opacity="0.4" stroke-width="1.0"/>
  </g>
</svg>
