<?xml version="1.0" encoding="UTF-8" standalone="no"?>
<svg xmlns:xlink="http://www.w3.org/1999/xlink" height="50.15px" width="38.5px" xmlns="http://www.w3.org/2000/svg">
  <g transform="matrix(1.0, 0.0, 0.0, 1.0, 0.5, 0.5)">
    <path d="M27.2 9.6 L27.15 9.65 26.1 7.0 Q24.75 3.25 25.1 0.0 29.95 1.35 33.5 5.7 L33.55 5.8 29.1 5.3 28.85 5.35 28.45 5.8 Q27.9 6.7 27.2 9.6 M26.95 10.55 L21.3 12.2 21.05 12.25 19.65 17.0 18.9 16.15 13.6 9.3 Q15.3 7.2 19.75 8.05 L20.4 8.2 23.25 8.95 25.1 9.65 26.95 10.55 M3.15 23.35 L4.4 23.45 9.0 23.9 Q6.65 22.6 5.2 19.6 L4.25 16.8 7.3 15.45 12.55 15.95 Q10.9 18.25 10.9 19.45 L11.05 20.15 Q11.55 21.05 11.85 23.95 L11.95 25.2 9.75 24.3 12.15 25.35 11.55 26.3 11.15 27.6 Q11.0 28.5 11.3 30.2 L12.9 30.2 10.5 31.55 Q9.05 32.5 8.6 33.35 8.25 33.9 8.35 34.35 L8.95 37.6 8.45 37.85 8.15 38.05 7.95 39.05 Q7.35 42.15 8.2 42.9 L12.05 46.35 10.45 47.35 9.75 47.7 Q5.25 50.05 2.25 48.65 L1.4 48.15 2.4 45.95 3.6 43.5 4.2 42.25 5.2 40.8 6.2 39.55 7.1 38.75 7.95 38.15 8.0 38.1 7.95 38.1 7.6 38.0 5.4 37.5 Q2.25 36.6 0.0 35.35 2.7 31.65 7.7 30.6 5.9 29.4 4.65 27.7 2.8 25.35 3.15 23.35 M8.15 38.05 L8.15 38.0 8.0 38.1 8.15 38.0 8.15 38.05 M5.2 40.8 L4.15 42.4 3.6 43.5 4.15 42.4 5.2 40.8 M7.7 30.6 L11.3 30.2 7.7 30.6" fill="#ffffff" fill-opacity="0.0" fill-rule="evenodd" stroke="none"/>
    <path d="M33.55 5.8 L33.5 5.7 Q29.95 1.35 25.1 0.0 24.75 3.25 26.1 7.0 L27.15 9.65 27.2 9.6 M19.65 17.0 L18.9 16.15 13.6 9.3 Q15.3 7.2 19.75 8.05 L20.4 8.2 23.25 8.95 M9.0 23.9 Q6.65 22.6 5.2 19.6 L4.25 16.8 7.3 15.45 12.55 15.95 M11.3 30.2 L12.9 30.2 M12.05 46.35 L10.45 47.35 9.75 47.7 Q5.25 50.05 2.25 48.65 L1.4 48.15 2.4 45.95 M5.2 40.8 L6.2 39.55 7.1 38.75 7.95 38.15 M7.95 38.1 L7.6 38.0 5.4 37.5 Q2.25 36.6 0.0 35.35 2.7 31.65 7.7 30.6 5.9 29.4 4.65 27.7 2.8 25.35 3.15 23.35 M3.6 43.5 L4.15 42.4 5.2 40.8" fill="none" stroke="#000000" stroke-linecap="round" stroke-linejoin="round" stroke-width="1.0"/>
    <path d="M23.25 8.95 L25.1 9.65 26.95 10.55 M3.15 23.35 L4.4 23.45 9.0 23.9 M2.4 45.95 L3.6 43.5 4.2 42.25 5.2 40.8" fill="none" stroke="#000000" stroke-linecap="round" stroke-linejoin="miter-clip" stroke-miterlimit="10.0" stroke-width="1.0"/>
    <path d="M11.95 25.2 L9.75 24.3 M7.95 38.15 L8.0 38.1 7.95 38.1 M8.0 38.1 L8.15 38.0 8.15 38.05 M11.3 30.2 L7.7 30.6" fill="none" stroke="#000000" stroke-linecap="round" stroke-linejoin="round" stroke-opacity="0.4" stroke-width="1.0"/>
    <path d="M8.95 37.6 L8.45 37.85 8.15 38.05" fill="none" stroke="#000000" stroke-linecap="round" stroke-linejoin="miter-clip" stroke-miterlimit="10.0" stroke-opacity="0.4" stroke-width="1.0"/>
    <path d="M26.15 2.9 L31.45 9.5 Q35.85 15.9 37.5 21.6 M17.2 9.65 L24.65 14.3 Q30.85 18.7 34.2 22.7 M31.6 27.8 Q26.6 24.75 17.55 21.55 L5.6 17.8 M4.3 47.8 L9.35 43.95 13.75 40.75 Q21.4 35.35 25.65 33.6 M5.2 34.2 L11.55 32.6 Q17.3 31.75 21.3 33.55 M12.15 25.35 L9.75 24.3" fill="none" stroke="#000000" stroke-linecap="round" stroke-linejoin="miter-clip" stroke-miterlimit="10.0" stroke-opacity="0.24705882" stroke-width="1.0"/>
  </g>
</svg>
