<?xml version="1.0" encoding="UTF-8" standalone="no"?>
<svg xmlns:xlink="http://www.w3.org/1999/xlink" height="62.95px" width="41.5px" xmlns="http://www.w3.org/2000/svg">
  <g transform="matrix(1.0, 0.0, 0.0, 1.0, 0.45, 0.5)">
    <path d="M38.5 48.9 L38.3 49.1 35.2 50.1 Q35.45 49.8 36.05 49.6 L38.5 48.9" fill="#000000" fill-opacity="0.09803922" fill-rule="evenodd" stroke="none"/>
    <path d="M26.0 20.25 L27.5 20.05 32.65 19.45 33.3 19.9 32.45 20.05 28.0 20.6 26.0 20.25 M16.4 14.2 L14.9 14.45 14.7 12.25 Q14.3 9.1 15.35 8.05 16.2 7.2 17.7 7.85 L17.2 8.05 Q16.25 8.7 16.25 11.75 L16.3 12.8 16.4 14.2 M32.15 25.55 L32.2 25.55 39.4 25.95 39.5 26.05 39.55 26.3 39.5 26.3 Q38.9 26.9 35.65 27.0 L35.5 26.9 Q34.6 26.2 33.35 25.85 L32.15 25.55" fill="#000000" fill-opacity="0.2" fill-rule="evenodd" stroke="none"/>
    <path d="M27.5 20.05 L26.0 20.25 28.0 20.6 32.45 20.05 33.2 21.15 34.85 24.45 31.55 24.55 31.65 25.55 32.15 25.55 31.65 25.55 31.55 24.55 34.85 24.45 38.8 25.0 Q39.35 25.2 39.5 25.4 L39.55 25.45 39.55 26.0 39.5 26.0 39.4 25.95 32.2 25.55 32.15 25.55 33.35 25.85 Q34.6 26.2 35.5 26.9 L35.65 36.5 35.55 36.5 35.35 38.25 Q35.3 41.05 36.6 42.45 L39.3 45.8 Q40.3 47.65 39.25 48.6 L38.95 48.75 38.7 48.85 38.5 48.9 36.05 49.6 Q35.45 49.8 35.2 50.1 L35.05 50.2 Q34.55 50.85 35.05 52.1 35.6 53.55 37.6 55.95 39.0 57.7 38.75 58.85 38.45 60.15 37.2 60.5 L37.05 60.5 36.4 60.55 Q35.35 60.55 34.15 59.95 33.5 59.65 32.8 59.15 L31.8 58.4 31.55 58.2 29.9 56.55 Q25.95 51.85 26.85 44.0 27.2 41.05 28.3 39.45 29.55 37.55 29.85 36.3 L29.5 36.3 29.35 36.3 29.55 34.9 29.6 34.75 29.65 32.4 29.65 32.35 29.25 32.35 28.65 32.25 28.05 32.35 Q27.15 32.35 26.55 31.65 24.4 32.55 23.95 36.05 L23.5 37.5 23.4 37.65 23.5 37.7 23.4 37.65 23.5 37.5 23.5 37.7 23.55 37.7 Q23.85 40.9 23.65 44.75 L23.65 44.85 23.65 45.45 Q23.4 49.95 22.55 52.8 22.0 54.5 21.2 55.6 L20.2 56.15 21.2 55.6 Q22.0 54.5 22.55 52.8 22.0 54.5 21.25 55.6 21.0 55.95 20.2 56.15 18.6 56.6 14.7 56.25 L14.6 56.25 14.45 56.25 14.3 56.2 14.0 56.2 13.45 56.15 13.2 56.1 13.15 56.1 5.05 54.85 4.05 54.6 Q0.95 53.75 0.2 51.55 L0.45 51.75 0.15 51.1 Q-0.2 47.15 0.55 40.1 L1.4 33.85 1.35 33.85 1.6 31.65 1.8 31.65 2.9 24.95 Q3.95 19.65 9.05 16.7 L8.9 17.5 8.9 18.45 14.9 14.45 8.9 18.45 8.9 17.5 9.05 16.7 9.3 16.3 Q10.8 15.2 12.7 14.2 12.65 12.35 12.1 10.65 11.1 7.35 8.9 8.3 6.7 9.25 5.95 14.0 5.55 16.35 5.6 18.55 L4.7 19.35 1.05 19.1 Q0.0 8.3 5.0 3.2 7.5 0.65 10.2 0.25 18.85 -1.45 26.6 8.85 30.5 14.0 32.65 19.45 L27.5 20.05 25.75 20.25 Q25.25 17.75 23.55 14.7 25.25 17.75 25.75 20.25 L27.5 20.05 M16.4 14.2 L18.35 14.15 23.55 14.7 21.65 11.7 Q18.95 7.9 17.7 7.85 16.2 7.2 15.35 8.05 14.3 9.1 14.7 12.25 L14.9 14.45 16.4 14.2 M30.8 31.6 L29.65 32.35 30.8 31.6 M25.65 9.9 Q27.9 12.85 29.55 15.75 24.2 5.5 17.9 2.3 15.65 1.15 13.6 1.05 L11.95 1.15 Q18.9 1.15 25.65 9.9 M6.6 21.25 L8.15 18.4 Q5.35 19.95 3.9 24.95 3.15 27.5 2.95 29.7 L4.35 29.55 Q4.95 25.0 6.6 21.25 M1.7 41.7 Q0.85 49.4 1.65 50.6 L2.8 51.25 2.7 34.25 1.7 41.7 M34.35 29.35 L34.05 28.9 Q34.35 29.65 33.8 30.8 34.5 30.0 34.35 29.35 M35.2 36.5 L35.55 36.5 35.2 36.5 M29.65 32.4 L29.65 32.35 29.65 32.4 M27.75 45.35 L27.9 43.6 Q26.9 51.75 30.4 55.85 L31.0 56.5 31.8 57.2 32.8 57.9 34.15 58.55 35.45 58.8 34.15 58.1 32.8 57.2 31.8 56.3 31.35 55.85 Q29.0 53.35 28.15 49.55 27.7 47.5 27.75 45.35 M32.35 54.65 Q33.05 53.85 32.9 53.2 L32.6 52.75 Q32.95 53.5 32.35 54.65 M30.6 44.3 Q31.3 43.5 31.15 42.85 L30.85 42.4 Q31.15 43.15 30.6 44.3" fill="#ffffff" fill-opacity="0.0" fill-rule="evenodd" stroke="none"/>
    <path d="M25.65 9.9 Q18.9 1.15 11.95 1.15 L13.6 1.05 Q15.65 1.15 17.9 2.3 24.2 5.5 29.55 15.75 27.9 12.85 25.65 9.9 M6.6 21.25 Q4.95 25.0 4.35 29.55 L2.95 29.7 Q3.15 27.5 3.9 24.95 5.35 19.95 8.15 18.4 L6.6 21.25 M1.7 41.7 L2.7 34.25 2.8 51.25 1.65 50.6 Q0.85 49.4 1.7 41.7 M34.35 29.35 Q34.5 30.0 33.8 30.8 34.35 29.65 34.05 28.9 L34.35 29.35 M27.75 45.35 Q27.7 47.5 28.15 49.55 29.0 53.35 31.35 55.85 L31.8 56.3 32.8 57.2 34.15 58.1 35.45 58.8 34.15 58.55 32.8 57.9 31.8 57.2 31.0 56.5 30.4 55.85 Q26.9 51.75 27.9 43.6 L27.75 45.35" fill="#ffffff" fill-opacity="0.2" fill-rule="evenodd" stroke="none"/>
    <path d="M30.6 44.3 Q31.15 43.15 30.85 42.4 L31.15 42.85 Q31.3 43.5 30.6 44.3 M32.35 54.65 Q32.95 53.5 32.6 52.75 L32.9 53.2 Q33.05 53.85 32.35 54.65" fill="#ffffff" fill-opacity="0.09803922" fill-rule="evenodd" stroke="none"/>
    <path d="M35.55 36.5 L35.35 38.25 Q35.3 41.05 36.6 42.45 L39.3 45.8 Q40.3 47.65 39.25 48.6 L38.95 48.75 M38.5 48.9 L38.3 49.1 35.2 50.1 M35.05 50.2 Q34.55 50.85 35.05 52.1 35.6 53.55 37.6 55.95 39.0 57.7 38.75 58.85 38.45 60.15 37.2 60.5 L37.05 60.5" fill="none" stroke="#000000" stroke-linecap="round" stroke-linejoin="miter-clip" stroke-miterlimit="10.0" stroke-width="1.0"/>
    <path d="M26.0 20.25 L28.0 20.6 32.45 20.05 M32.65 19.45 L27.5 20.05 25.75 20.25 Q25.25 17.75 23.55 14.7 M14.9 14.45 L8.9 18.45 8.9 17.5 9.05 16.7 M1.8 31.65 L1.6 31.65 M1.35 33.85 L1.4 33.85 M0.45 51.75 L0.2 51.55 M29.65 32.35 L30.8 31.6 M34.85 24.45 L31.55 24.55 31.65 25.55 32.15 25.55 32.2 25.55 39.4 25.95 39.5 26.0 M14.9 14.45 L14.7 12.25 Q14.3 9.1 15.35 8.05 16.2 7.2 17.7 7.85 M16.3 12.8 L16.4 14.2 M35.65 27.0 L35.5 26.9 Q34.6 26.2 33.35 25.85 L32.15 25.55 M39.4 25.95 L39.5 26.05" fill="none" stroke="#000000" stroke-linecap="butt" stroke-linejoin="miter-clip" stroke-miterlimit="10.0" stroke-opacity="0.4" stroke-width="1.0"/>
    <path d="M32.45 20.05 L33.3 19.9 32.65 19.45 Q30.5 14.0 26.6 8.85 18.85 -1.45 10.2 0.25 7.5 0.65 5.0 3.2 0.0 8.3 1.05 19.1 L4.7 19.35 5.6 18.55 Q5.55 16.35 5.95 14.0 6.7 9.25 8.9 8.3 11.1 7.35 12.1 10.65 12.65 12.35 12.7 14.2 10.8 15.2 9.3 16.3 L9.05 16.7 M1.6 31.65 L1.35 33.85 M1.4 33.85 L0.55 40.1 Q-0.2 47.15 0.15 51.1 L0.45 51.75 M0.2 51.55 Q0.95 53.75 4.05 54.6 L5.05 54.85 13.15 56.1 13.2 56.1 13.45 56.15 14.0 56.2 14.3 56.2 14.45 56.25 14.6 56.25 14.7 56.25 Q18.6 56.6 20.2 56.15 L21.2 55.6 Q22.0 54.5 22.55 52.8 23.4 49.95 23.65 45.45 L23.65 44.85 M23.65 44.75 Q23.85 40.9 23.55 37.7 L23.5 37.7 23.4 37.65 23.5 37.5 23.95 36.05 Q24.4 32.55 26.55 31.65 27.15 32.35 28.05 32.35 L28.65 32.25 29.25 32.35 29.65 32.35 29.65 32.4 M39.5 26.0 L39.55 26.0 39.55 25.45 39.5 25.4 Q39.35 25.2 38.8 25.0 L34.85 24.45 M17.7 7.85 Q18.95 7.9 21.65 11.7 L23.55 14.7 M17.7 7.85 L17.2 8.05 Q16.25 8.7 16.25 11.75 L16.3 12.8 M39.5 26.05 L39.55 26.3 39.5 26.3 Q38.9 26.9 35.65 27.0 M23.5 37.7 L23.5 37.5 M21.25 55.6 Q22.0 54.5 22.55 52.8" fill="none" stroke="#000000" stroke-linecap="butt" stroke-linejoin="miter-clip" stroke-miterlimit="10.0" stroke-width="1.0"/>
    <path d="M23.55 14.7 L18.35 14.15 16.4 14.2 M9.05 16.7 Q3.95 19.65 2.9 24.95 L1.8 31.65 M34.85 24.45 L33.2 21.15 32.45 20.05 M35.5 26.9 L35.65 36.5 35.55 36.5" fill="none" stroke="#000000" stroke-linecap="round" stroke-linejoin="round" stroke-width="1.0"/>
    <path d="M16.4 14.2 L14.9 14.45 M29.65 32.4 L29.65 32.35 M35.55 36.5 L35.2 36.5" fill="none" stroke="#000000" stroke-linecap="round" stroke-linejoin="round" stroke-opacity="0.4" stroke-width="1.0"/>
    <path d="M38.95 48.75 L38.7 48.85 38.5 48.9 36.05 49.6 Q35.45 49.8 35.2 50.1 L35.05 50.2 M37.05 60.5 L36.4 60.55 Q35.35 60.55 34.15 59.95 33.5 59.65 32.8 59.15 L31.8 58.4 31.55 58.2 29.9 56.55 Q25.95 51.85 26.85 44.0 27.2 41.05 28.3 39.45 29.55 37.55 29.85 36.3" fill="none" stroke="#000000" stroke-linecap="round" stroke-linejoin="miter-clip" stroke-miterlimit="10.0" stroke-opacity="0.4" stroke-width="1.0"/>
  </g>
</svg>
