<?xml version="1.0" encoding="UTF-8" standalone="no"?>
<svg xmlns:xlink="http://www.w3.org/1999/xlink" height="47.95px" width="40.95px" xmlns="http://www.w3.org/2000/svg">
  <g transform="matrix(1.0, 0.0, 0.0, 1.0, 0.35, -0.25)">
    <path d="M21.2 46.25 L23.35 46.65 22.25 46.45 21.2 46.25" fill="#5da77d" fill-rule="evenodd" stroke="none"/>
    <path d="M21.6 0.85 L21.55 0.85 Q17.75 3.55 15.2 7.3 10.95 13.55 12.1 20.45 13.2 27.3 17.9 36.2 L23.35 46.65 21.2 46.25 14.2 44.0 13.6 43.75 13.25 43.6 12.4 43.2 10.75 42.35 Q6.45 39.8 4.15 37.15 1.4 33.95 0.65 29.55 L0.4 27.9 0.15 19.55 0.3 18.45 0.3 18.2 Q0.75 15.4 1.75 13.0 6.0 2.8 20.35 0.75 L21.6 0.85" fill="#000000" fill-opacity="0.14901961" fill-rule="evenodd" stroke="none"/>
    <path d="M23.35 46.65 L17.9 36.2 Q13.2 27.3 12.1 20.45 10.95 13.55 15.2 7.3 17.75 3.55 21.55 0.85 L22.8 0.95 Q25.75 1.35 28.5 2.5 L29.15 2.8 33.15 5.2 Q38.05 9.05 40.1 15.8 L35.6 20.7 Q33.2 23.4 31.9 29.3 L30.8 35.15 Q30.5 38.35 31.05 41.05 31.5 43.35 32.05 45.1 L32.65 46.7 Q32.7 47.05 31.0 47.45 L27.05 47.55 Q24.9 47.3 23.35 46.65 M32.65 46.7 Q29.7 45.35 27.55 43.4 24.35 40.5 24.05 37.1 23.8 34.2 24.55 24.65 23.8 34.2 24.05 37.1 24.35 40.5 27.55 43.4 29.7 45.35 32.65 46.7" fill="#ffffff" fill-opacity="0.0" fill-rule="evenodd" stroke="none"/>
    <path d="M0.3 18.45 L0.15 19.55 M21.55 0.85 L22.8 0.95 Q25.75 1.35 28.5 2.5 L29.15 2.8 M32.65 46.7 Q32.7 47.05 31.0 47.45 L27.05 47.55 Q24.9 47.3 23.35 46.65 L22.25 46.45 21.2 46.25" fill="none" stroke="#000000" stroke-linecap="round" stroke-linejoin="miter-clip" stroke-miterlimit="10.0" stroke-width="1.0"/>
    <path d="M21.6 0.85 L20.35 0.75 Q6.0 2.8 1.75 13.0 0.75 15.4 0.3 18.2 L0.15 19.55 0.4 27.9 0.65 29.55 Q1.4 33.95 4.15 37.15 6.45 39.8 10.75 42.35 L12.4 43.2 13.25 43.6 13.6 43.75 14.2 44.0 21.2 46.25 23.35 46.65 M29.15 2.8 L28.4 2.45 Q25.7 1.3 22.75 0.9 L21.6 0.85 M29.15 2.8 L33.15 5.2 Q38.05 9.05 40.1 15.8 L35.6 20.7 Q33.2 23.4 31.9 29.3 L30.8 35.15 Q30.5 38.35 31.05 41.05 31.5 43.35 32.05 45.1 L32.65 46.7" fill="none" stroke="#000000" stroke-linecap="round" stroke-linejoin="round" stroke-width="1.0"/>
    <path d="M24.55 24.65 Q23.8 34.2 24.05 37.1 24.35 40.5 27.55 43.4 29.7 45.35 32.65 46.7" fill="none" stroke="#000000" stroke-linecap="round" stroke-linejoin="round" stroke-opacity="0.4" stroke-width="1.0"/>
  </g>
</svg>
