<?xml version="1.0" encoding="UTF-8" standalone="no"?>
<svg xmlns:xlink="http://www.w3.org/1999/xlink" height="53.2px" width="44.0px" xmlns="http://www.w3.org/2000/svg">
  <g transform="matrix(1.0, 0.0, 0.0, 1.0, 0.5, 3.65)">
    <path d="M9.45 0.65 Q10.8 -1.45 11.3 -1.45 L11.55 -1.45 Q10.9 -1.45 9.45 0.65 M18.1 -2.5 L18.55 -2.6 20.2 -2.8 18.1 -2.5 M39.55 19.35 L37.2 20.2 37.1 20.2 38.65 19.65 39.55 19.35 M6.5 20.85 L6.05 20.1 6.5 20.8 6.5 20.85" fill="#b6373c" fill-rule="evenodd" stroke="none"/>
    <path d="M9.45 0.65 Q10.9 -1.45 11.55 -1.45 L12.0 -1.45 12.4 -1.5 14.8 -1.9 18.1 -2.5 20.2 -2.8 20.85 -2.85 18.15 -2.15 15.45 -1.9 Q13.7 -1.65 13.0 -0.95 12.2 -0.2 13.7 0.75 15.45 1.85 20.15 3.05 L13.3 4.45 Q24.85 8.4 29.1 10.9 L22.6 10.05 12.2 10.5 19.05 10.75 14.55 12.15 Q9.8 13.75 8.85 14.65 L5.95 14.7 8.85 14.65 9.0 14.65 12.1 14.25 15.05 14.2 10.85 14.6 9.0 14.65 10.85 14.6 15.05 14.2 15.35 14.25 14.5 15.0 13.55 15.85 11.6 17.25 13.75 17.5 15.95 17.65 21.4 17.0 Q20.3 17.8 18.4 18.45 L15.2 19.45 26.45 20.2 28.05 20.1 32.0 19.6 35.95 18.95 38.9 18.65 41.8 18.1 40.8 18.8 39.55 19.35 38.65 19.65 37.1 20.2 32.55 21.4 31.9 21.55 29.05 22.05 28.8 22.05 13.6 23.35 11.4 23.3 Q11.15 21.3 10.2 20.7 9.55 20.25 7.6 20.25 6.85 20.25 6.5 20.8 L6.05 20.1 6.05 20.05 6.0 20.0 6.6 18.2 Q6.7 17.85 6.1 16.35 L6.05 16.25 5.35 14.7 5.8 12.85 5.8 10.7 7.1 7.55 8.2 4.85 8.85 2.7 9.45 0.65 M6.05 20.1 L17.9 20.55 26.45 20.2 17.9 20.55 6.05 20.1 M12.3 15.45 L14.5 15.0 12.3 15.45" fill="#000000" fill-opacity="0.2" fill-rule="evenodd" stroke="none"/>
    <path d="M20.2 -2.8 Q24.6 -3.25 28.3 -2.75 L31.1 -2.2 33.3 -2.35 37.25 -1.85 Q38.7 -1.25 40.35 4.15 L41.7 9.4 42.25 12.6 42.05 15.05 42.45 15.75 Q42.85 16.55 42.85 17.1 42.85 18.05 42.2 18.15 L39.55 19.35 40.8 18.8 41.8 18.1 38.9 18.65 35.95 18.95 32.0 19.6 28.05 20.1 26.45 20.2 Q33.65 19.55 38.3 17.75 L24.25 19.05 38.3 17.75 Q33.65 19.55 26.45 20.2 L15.2 19.45 18.4 18.45 Q20.3 17.8 21.4 17.0 L15.95 17.65 13.75 17.5 11.6 17.25 13.55 15.85 14.5 15.0 21.65 12.95 15.05 14.2 21.65 12.95 14.5 15.0 15.35 14.25 15.05 14.2 12.1 14.25 9.0 14.65 8.85 14.65 Q9.8 13.75 14.55 12.15 L19.05 10.75 12.2 10.5 22.6 10.05 29.1 10.9 Q24.85 8.4 13.3 4.45 L20.15 3.05 Q15.45 1.85 13.7 0.75 12.2 -0.2 13.0 -0.95 13.7 -1.65 15.45 -1.9 L18.15 -2.15 20.85 -2.85 20.2 -2.8 M11.4 23.35 L13.35 26.35 Q15.2 30.35 14.55 35.05 13.5 42.55 13.75 47.25 11.95 43.85 9.85 38.7 9.05 36.65 8.55 34.35 L8.3 35.05 Q7.2 38.45 3.5 44.1 L0.0 49.05 2.6 32.95 Q3.25 29.1 6.1 24.4 L6.4 24.0 6.75 24.75 Q7.25 25.45 7.95 24.9 L8.7 25.25 9.5 25.6 Q10.7 25.4 11.15 24.35 L11.4 23.35 M8.55 34.35 L8.05 31.55 7.8 28.3 Q8.1 26.65 8.7 25.25 8.1 26.65 7.8 28.3 L8.05 31.55 8.55 34.35 M12.3 40.15 Q10.7 37.1 9.95 31.05 L9.5 25.6 9.95 31.05 Q10.7 37.1 12.3 40.15 M6.65 34.65 L7.35 25.15 Q6.1 25.4 5.1 30.95 L4.85 32.25 4.65 33.65 4.85 32.25 5.1 30.95 Q6.1 25.4 7.35 25.15 L6.65 34.65 5.2 37.1 6.65 34.65" fill="#ffffff" fill-opacity="0.0" fill-rule="evenodd" stroke="none"/>
    <path d="M11.4 23.3 L11.4 23.35 11.15 24.35 Q10.7 25.4 9.5 25.6 L8.7 25.25 7.95 24.9 Q7.25 25.45 6.75 24.75 L6.4 24.0 Q6.15 23.3 6.15 22.25 6.15 21.3 6.5 20.85 L6.5 20.8 Q6.85 20.25 7.6 20.25 9.55 20.25 10.2 20.7 11.15 21.3 11.4 23.3 M9.5 25.6 Q8.0 24.75 7.4 23.0 L7.1 21.45 7.4 23.0 Q8.0 24.75 9.5 25.6" fill="#ffffff" fill-opacity="0.09803922" fill-rule="evenodd" stroke="none"/>
    <path d="M9.45 0.65 Q10.9 -1.45 11.55 -1.45 L12.0 -1.45 M14.8 -1.9 L18.1 -2.5 20.2 -2.8 Q24.6 -3.25 28.3 -2.75 L31.1 -2.2 33.3 -2.35 37.25 -1.85 Q38.7 -1.25 40.35 4.15 L41.7 9.4 42.25 12.6 42.05 15.05 42.45 15.75 Q42.85 16.55 42.85 17.1 42.85 18.05 42.2 18.15 L39.55 19.35 38.65 19.65 37.1 20.2 31.9 21.55 29.05 22.05 28.8 22.05 13.6 23.35 11.4 23.3 M6.05 20.1 L6.05 20.05 M8.2 4.85 L8.85 2.7 9.45 0.65 M6.05 20.1 L6.5 20.8" fill="none" stroke="#000000" stroke-linecap="square" stroke-linejoin="round" stroke-width="1.0"/>
    <path d="M11.55 -1.45 L11.3 -1.45 Q10.8 -1.45 9.45 0.65 M12.0 -1.45 L12.4 -1.5 14.8 -1.9 M18.1 -2.5 L18.55 -2.6 20.2 -2.8 M11.4 23.3 L11.4 23.35 M13.35 26.35 Q15.2 30.35 14.55 35.05 13.5 42.55 13.75 47.25 11.95 43.85 9.85 38.7 9.05 36.65 8.55 34.35 L8.3 35.05 Q7.2 38.45 3.5 44.1 L0.0 49.05 2.6 32.95 Q3.25 29.1 6.1 24.4 M6.4 24.0 Q6.15 23.3 6.15 22.25 6.15 21.3 6.5 20.85 L6.5 20.8 Q6.85 20.25 7.6 20.25 9.55 20.25 10.2 20.7 11.15 21.3 11.4 23.3 M6.0 20.0 L6.6 18.2 Q6.7 17.85 6.1 16.35 L6.05 16.25 5.35 14.7 5.8 12.85 5.8 10.7 7.1 7.55 8.2 4.85 M32.55 21.4 L31.9 21.55" fill="none" stroke="#000000" stroke-linecap="round" stroke-linejoin="round" stroke-width="1.0"/>
    <path d="M26.45 20.2 Q33.65 19.55 38.3 17.75 L24.25 19.05 M5.95 14.7 L8.85 14.65 9.0 14.65 10.85 14.6 15.05 14.2 21.65 12.95 14.5 15.0 12.3 15.45 M26.45 20.2 L17.9 20.55 6.05 20.1 M4.65 33.65 L4.85 32.25 5.1 30.95 Q6.1 25.4 7.35 25.15 L6.65 34.65" fill="none" stroke="#000000" stroke-linecap="square" stroke-linejoin="round" stroke-opacity="0.4" stroke-width="1.0"/>
    <path d="M11.4 23.35 L13.35 26.35 M6.1 24.4 L6.4 24.0 6.75 24.75 Q7.25 25.45 7.95 24.9 L8.7 25.25 9.5 25.6 9.95 31.05 Q10.7 37.1 12.3 40.15 M7.1 21.45 L7.4 23.0 Q8.0 24.75 9.5 25.6 10.7 25.4 11.15 24.35 L11.4 23.35 M8.7 25.25 Q8.1 26.65 7.8 28.3 L8.05 31.55 8.55 34.35 M6.65 34.65 L5.2 37.1" fill="none" stroke="#000000" stroke-linecap="round" stroke-linejoin="round" stroke-opacity="0.4" stroke-width="1.0"/>
  </g>
</svg>
