<?xml version="1.0" encoding="UTF-8" standalone="no"?>
<svg xmlns:xlink="http://www.w3.org/1999/xlink" height="14.65px" width="39.55px" xmlns="http://www.w3.org/2000/svg">
  <g transform="matrix(1.0, 0.0, 0.0, 1.0, 0.5, 0.5)">
    <path d="M11.3 10.4 Q11.65 11.45 10.85 13.1 10.0 12.75 9.9 11.75 L9.7 10.7 11.3 10.4 M9.55 10.3 L9.45 10.2 8.7 9.75 9.75 8.95 9.55 10.3 M8.6 9.8 L8.75 10.15 8.8 11.05 Q8.6 11.45 7.75 11.9 7.6 12.15 7.6 12.5 L7.6 13.1 6.85 12.45 Q6.75 12.85 7.05 13.65 5.85 13.05 5.65 12.45 5.55 12.05 5.9 11.6 L6.45 10.85 6.5 10.1 8.3 9.9 8.6 9.8" fill="#000000" fill-opacity="0.09803922" fill-rule="evenodd" stroke="none"/>
    <path d="M14.05 8.05 L13.4 8.0 13.45 7.75 14.3 7.5 14.2 7.15 14.8 7.7 14.4 7.8 14.05 8.05 M7.55 7.4 L6.75 7.25 6.85 6.4 4.75 6.6 4.4 6.75 4.2 6.7 4.8 6.0 5.25 6.0 5.3 5.25 6.1 5.45 6.4 5.95 Q7.95 7.45 10.2 6.45 L10.05 6.1 10.2 6.1 10.55 6.75 11.35 7.4 10.7 7.8 10.35 7.75 10.5 6.8 8.4 7.0 Q7.9 7.15 7.55 7.4 M16.55 6.5 L17.35 6.5 17.6 6.75 18.5 7.2 16.75 7.7 16.6 7.8 16.65 7.3 16.55 6.5 M21.25 6.35 L21.4 6.35 21.8 6.8 22.75 7.3 22.1 7.85 21.8 7.9 21.75 6.85 19.7 7.4 18.85 8.05 18.85 7.3 Q20.05 7.5 21.4 6.55 L21.25 6.35 M30.05 5.05 L30.15 5.0 31.05 5.55 30.95 5.6 30.4 6.25 28.65 6.45 Q28.1 6.6 27.7 6.9 L27.65 6.5 27.35 6.6 27.2 5.85 Q28.55 6.75 30.45 5.9 L30.05 5.05 M32.65 4.4 L34.0 5.0 33.85 5.05 33.1 5.75 32.8 4.55 32.6 4.65 32.55 4.4 32.65 4.4 M24.85 7.55 L24.85 7.25 25.45 6.95 25.75 7.1 25.65 7.1 25.0 7.55 24.85 7.55" fill="#000000" fill-opacity="0.2" fill-rule="evenodd" stroke="none"/>
    <path d="M30.15 5.0 L29.4 3.9 29.0 1.9 Q30.45 1.8 31.35 2.45 L31.2 2.2 Q33.4 1.2 34.9 2.85 L35.1 3.1 35.1 2.8 Q35.3 0.55 37.65 0.0 L37.95 2.0 Q37.85 3.2 37.1 3.95 38.15 4.55 38.55 6.05 L36.55 6.4 35.85 6.3 Q35.55 7.25 34.6 7.9 L32.65 8.6 32.5 7.85 32.05 8.3 Q31.25 9.05 30.25 9.3 L30.0 8.45 Q29.45 9.05 28.55 9.35 L26.75 9.55 26.1 9.95 Q25.15 10.5 24.1 10.55 L24.05 9.65 23.4 10.15 Q22.5 10.75 21.5 10.85 21.25 9.85 21.45 9.1 L20.15 10.3 Q19.2 10.85 18.2 10.85 L18.15 9.85 17.15 10.55 Q16.2 11.1 15.2 11.1 L15.15 10.55 14.8 10.7 12.8 11.2 Q12.5 9.05 14.05 8.05 L14.4 7.8 14.8 7.7 14.2 7.15 14.3 7.5 13.45 7.75 13.4 8.0 Q13.1 9.65 11.55 10.35 L11.3 10.4 9.7 10.7 9.55 10.7 9.55 10.3 9.75 8.95 8.7 9.75 8.6 9.8 8.3 9.9 6.5 10.1 6.25 10.1 Q6.25 8.2 7.55 7.4 7.9 7.15 8.4 7.0 L10.5 6.8 10.35 7.75 10.2 8.25 10.7 7.8 11.35 7.4 10.55 6.75 10.2 6.1 9.55 4.95 Q11.75 4.0 13.25 5.65 L13.7 6.25 13.6 5.9 13.55 3.9 Q16.0 4.05 16.5 6.2 L16.55 6.5 16.65 7.3 16.6 7.8 16.75 7.7 18.5 7.2 17.6 6.75 17.35 6.5 16.2 5.25 Q18.1 3.75 19.95 5.0 L21.25 6.35 21.4 6.55 Q20.05 7.5 18.85 7.3 L18.85 8.05 19.7 7.4 21.75 6.85 21.8 7.9 21.7 8.4 22.1 7.85 22.75 7.3 21.8 6.8 21.4 6.35 20.5 5.2 Q22.4 3.95 23.95 5.0 L23.65 3.45 25.55 3.7 Q27.7 2.6 29.3 4.15 L30.05 5.05 30.45 5.9 Q28.55 6.75 27.2 5.85 L27.35 6.6 27.65 6.5 27.7 6.9 Q28.1 6.6 28.65 6.45 L30.4 6.25 30.95 5.6 31.05 5.55 30.15 5.0 M6.75 7.25 Q6.35 9.0 4.65 9.55 L2.6 9.75 Q2.6 7.5 4.4 6.75 L4.75 6.6 6.85 6.4 6.75 7.25 M4.2 6.7 Q3.25 7.5 1.95 7.4 L0.0 6.85 Q0.75 4.9 2.5 4.75 L2.05 3.9 1.8 1.9 Q4.25 1.8 5.0 3.9 L5.3 5.25 5.25 6.0 4.8 6.0 4.2 6.7 M6.1 5.45 L5.3 4.25 Q7.45 3.15 9.05 4.7 L10.05 6.1 10.2 6.45 Q7.95 7.45 6.4 5.95 L6.1 5.45 M32.5 4.25 L32.55 4.4 32.6 4.65 32.8 4.55 33.1 5.75 33.85 5.05 34.0 5.0 32.65 4.4 32.5 4.25 32.2 3.95 32.5 4.25 M24.85 7.55 L24.85 7.7 25.0 7.55 25.65 7.1 25.75 7.1 25.45 6.95 24.85 7.25 24.85 7.55 M14.2 7.15 L13.75 6.4 13.7 6.25 13.75 6.4 14.2 7.15" fill="#ffffff" fill-opacity="0.0" fill-rule="evenodd" stroke="none"/>
    <path d="M30.15 5.0 L29.4 3.9 29.0 1.9 Q30.45 1.8 31.35 2.45 L31.2 2.2 Q33.4 1.2 34.9 2.85 L35.1 3.1 35.1 2.8 Q35.3 0.55 37.65 0.0 L37.95 2.0 Q37.85 3.2 37.1 3.95 38.15 4.55 38.55 6.05 L36.55 6.4 35.85 6.3 Q35.55 7.25 34.6 7.9 L32.65 8.6 32.5 7.85 32.05 8.3 Q31.25 9.05 30.25 9.3 L30.0 8.45 Q29.45 9.05 28.55 9.35 L26.75 9.55 26.1 9.95 Q25.15 10.5 24.1 10.55 L24.05 9.65 23.4 10.15 Q22.5 10.75 21.5 10.85 21.25 9.85 21.45 9.1 L20.15 10.3 Q19.2 10.85 18.2 10.85 L18.15 9.85 17.15 10.55 Q16.2 11.1 15.2 11.1 L15.15 10.55 14.8 10.7 12.8 11.2 Q12.5 9.05 14.05 8.05 L13.4 8.0 Q13.1 9.65 11.55 10.35 L11.3 10.4 Q11.65 11.45 10.85 13.1 10.0 12.75 9.9 11.75 L9.7 10.7 9.55 10.7 9.55 10.3 9.45 10.2 8.7 9.75 8.6 9.8 8.75 10.15 8.8 11.05 Q8.6 11.45 7.75 11.9 7.6 12.15 7.6 12.5 L7.6 13.1 6.85 12.45 Q6.75 12.85 7.05 13.65 5.85 13.05 5.65 12.45 5.55 12.05 5.9 11.6 L6.45 10.85 6.5 10.1 6.25 10.1 Q6.25 8.2 7.55 7.4 L6.75 7.25 Q6.35 9.0 4.65 9.55 L2.6 9.75 Q2.6 7.5 4.4 6.75 L4.2 6.7 Q3.25 7.5 1.95 7.4 L0.0 6.85 Q0.75 4.9 2.5 4.75 L2.05 3.9 1.8 1.9 Q4.25 1.8 5.0 3.9 L5.3 5.25 6.1 5.45 5.3 4.25 Q7.45 3.15 9.05 4.7 L10.05 6.1 10.2 6.1 9.55 4.95 Q11.75 4.0 13.25 5.65 L13.7 6.25 13.6 5.9 13.55 3.9 Q16.0 4.05 16.5 6.2 L16.55 6.5 17.35 6.5 16.2 5.25 Q18.1 3.75 19.95 5.0 L21.25 6.35 21.4 6.35 20.5 5.2 Q22.4 3.95 23.95 5.0 L23.65 3.45 25.55 3.7 Q27.7 2.6 29.3 4.15 L30.05 5.05 30.15 5.0 31.05 5.55 30.95 5.6 30.4 6.25 28.65 6.45 Q28.1 6.6 27.7 6.9 L27.65 6.5 27.35 6.6 27.2 5.85 Q28.55 6.75 30.45 5.9 L30.05 5.05 M32.55 4.4 L32.5 4.25 32.2 3.95 M32.65 4.4 L34.0 5.0 33.85 5.05 33.1 5.75 32.8 4.55 32.6 4.65 32.55 4.4 32.65 4.4 32.5 4.25 M25.0 7.55 L24.85 7.7 24.85 7.55 24.85 7.25 25.45 6.95 25.75 7.1 25.65 7.1 25.0 7.55 24.85 7.55 M22.1 7.85 L22.75 7.3 21.8 6.8 21.4 6.35 M21.25 6.35 L21.4 6.55 Q20.05 7.5 18.85 7.3 L18.85 8.05 19.7 7.4 21.75 6.85 21.8 7.9 22.1 7.85 21.7 8.4 21.8 7.9 M14.05 8.05 L14.4 7.8 14.8 7.7 14.2 7.15 14.3 7.5 13.45 7.75 13.4 8.0 M10.7 7.8 L11.35 7.4 10.55 6.75 10.2 6.1 M10.7 7.8 L10.35 7.75 10.2 8.25 10.7 7.8 M7.55 7.4 Q7.9 7.15 8.4 7.0 L10.5 6.8 10.35 7.75 M16.55 6.5 L16.65 7.3 16.6 7.8 16.75 7.7 18.5 7.2 17.6 6.75 17.35 6.5 M4.2 6.7 L4.8 6.0 5.25 6.0 5.3 5.25 M6.1 5.45 L6.4 5.95 Q7.95 7.45 10.2 6.45 L10.05 6.1 M6.75 7.25 L6.85 6.4 4.75 6.6 4.4 6.75 M8.6 9.8 L8.3 9.9 6.5 10.1 M9.55 10.3 L9.75 8.95 8.7 9.75 M11.3 10.4 L9.7 10.7" fill="none" stroke="#000000" stroke-linecap="round" stroke-linejoin="round" stroke-opacity="0.4" stroke-width="1.0"/>
    <path d="M13.7 6.25 L13.75 6.4 14.2 7.15" fill="none" stroke="#000000" stroke-linecap="round" stroke-linejoin="round" stroke-opacity="0.4" stroke-width="1.0"/>
    <path d="M36.1 3.55 L36.4 2.65 36.85 1.8 M36.05 4.65 L36.65 4.85 37.25 5.15 M31.1 7.35 L31.2 6.95 32.05 5.85 32.15 5.45 M30.15 2.9 L30.8 3.5 31.85 4.75 M32.75 2.65 L35.5 4.5 M33.35 7.1 L34.15 6.15 Q35.0 5.25 35.5 5.05 M27.15 4.15 L29.25 5.4 M26.05 6.0 L25.4 4.8 25.05 4.5 M21.85 5.45 L22.75 5.75 Q23.85 6.15 24.85 6.7 M23.5 7.75 L22.8 8.8 22.55 9.35 22.5 9.65 M19.5 9.35 L20.25 8.4 21.55 7.15 M27.35 6.75 L26.45 7.75 Q25.45 8.9 25.25 9.65 M27.55 8.65 L28.45 7.85 Q29.45 7.0 29.95 6.8 M18.05 5.5 L19.3 5.9 Q20.65 6.35 21.15 6.65 M11.2 5.6 L12.05 6.05 13.9 7.35 M11.5 8.9 L11.7 8.05 12.2 7.75 M16.1 9.9 L16.75 8.9 Q17.5 7.8 18.0 7.6 M14.8 5.65 L15.15 6.75 M7.8 8.9 L8.7 8.1 10.2 7.05 M7.1 4.8 L9.95 6.5 M4.0 8.45 L4.85 7.55 6.3 6.5 M3.1 3.15 L3.9 4.35 Q4.8 5.65 5.25 5.85 M3.65 5.45 L2.75 5.75 1.6 5.85" fill="none" stroke="#000000" stroke-linecap="round" stroke-linejoin="round" stroke-opacity="0.24705882" stroke-width="1.0"/>
    <path d="M16.2 7.75 L15.1 8.55 Q13.95 9.5 13.6 10.2" fill="none" stroke="#000000" stroke-linecap="square" stroke-linejoin="round" stroke-opacity="0.24705882" stroke-width="1.0"/>
  </g>
</svg>
