<?xml version="1.0" encoding="UTF-8" standalone="no"?>
<svg xmlns:xlink="http://www.w3.org/1999/xlink" height="37.75px" width="43.7px" xmlns="http://www.w3.org/2000/svg">
  <g transform="matrix(1.0, 0.0, 0.0, 1.0, 0.5, 0.5)">
    <path d="M42.7 22.8 L42.6 22.4 Q42.35 22.85 41.65 22.95 L40.65 22.95 38.75 22.6 34.25 21.05 32.2 20.05 32.0 19.95 Q31.2 19.6 30.25 19.4 L35.45 17.85 35.6 17.8 36.05 17.6 36.1 17.6 36.25 17.55 37.75 18.05 Q41.55 19.45 42.55 22.2 L42.7 22.8 M25.1 36.05 L13.25 34.9 Q11.45 34.85 9.6 34.1 L8.3 33.4 7.5 33.1 Q6.95 32.8 8.55 32.9 L14.35 32.4 Q12.55 32.25 11.45 30.9 L10.65 29.55 11.0 28.15 Q11.2 26.6 10.8 26.2 L9.45 24.9 8.65 24.0 10.05 24.0 15.35 23.6 21.75 22.65 29.55 21.05 28.5 23.0 Q27.45 25.65 28.1 27.35 29.35 30.45 29.65 31.85 30.25 34.35 29.1 34.75 L28.4 35.15 27.65 35.75 25.15 36.05 25.1 36.05" fill="#000000" fill-opacity="0.4" fill-rule="evenodd" stroke="none"/>
    <path d="M30.25 19.4 Q31.2 19.6 32.0 19.95 L32.2 20.05 34.25 21.05 38.75 22.6 40.65 22.95 41.65 22.95 Q42.35 22.85 42.6 22.4 L42.7 22.8 42.7 22.95 42.7 23.15 42.65 23.35 42.4 23.65 Q41.9 24.1 40.6 23.95 L38.75 23.6 38.55 23.55 38.3 23.45 34.85 22.3 33.95 21.9 33.9 21.9 32.1 21.0 30.65 20.5 30.35 20.45 30.3 20.45 30.25 20.45 30.1 20.4 30.05 20.4 30.1 20.4 30.25 20.45 29.7 20.65 29.55 21.05 21.75 22.65 15.35 23.6 10.05 24.0 8.65 24.0 9.45 24.9 10.8 26.2 Q11.2 26.6 11.0 28.15 L10.65 29.55 11.45 30.9 Q12.55 32.25 14.35 32.4 L8.55 32.9 Q6.95 32.8 7.5 33.1 L8.3 33.4 9.6 34.1 Q11.45 34.85 13.25 34.9 L25.1 36.05 24.9 36.1 15.45 36.6 12.05 36.45 9.85 36.25 Q3.05 35.65 1.6 33.75 L1.25 33.7 Q1.0 33.45 1.45 32.1 L1.15 29.95 Q0.5 27.05 0.15 23.5 -0.15 20.1 0.4 19.1 L0.45 19.15 0.5 19.2 1.05 19.6 3.3 20.3 4.9 20.6 5.75 20.7 5.85 20.7 6.4 20.75 7.2 20.85 12.95 21.05 17.95 21.0 20.85 20.9 22.9 20.85 25.35 20.75 25.65 20.75 27.05 20.45 28.2 20.05 30.25 19.4 M28.2 20.1 L28.2 20.05 28.2 20.1 29.25 20.25 28.2 20.1 M29.85 20.35 L29.75 20.3 29.25 20.25 29.85 20.35 29.9 20.35 29.85 20.35 M30.05 20.4 L30.0 20.35 29.9 20.35 30.05 20.4" fill="#000000" fill-opacity="0.6" fill-rule="evenodd" stroke="none"/>
    <path d="M36.1 17.6 L36.05 17.6 35.6 17.8 35.45 17.85 35.15 17.3 35.15 17.25 Q34.3 12.45 31.35 7.9 L28.45 4.2 Q25.55 2.35 21.9 1.2 L17.6 0.2 17.85 0.0 21.7 0.7 26.1 2.15 29.95 4.2 30.05 4.25 30.1 4.35 30.15 4.4 Q31.65 6.0 32.9 7.95 L34.0 9.9 34.5 10.8 35.8 13.95 35.8 14.0 36.1 14.95 36.15 15.05 36.2 15.25 36.6 17.05 36.3 17.5 36.2 17.55 36.1 17.6" fill="#ffffff" fill-opacity="0.4" fill-rule="evenodd" stroke="none"/>
    <path d="M36.2 15.25 L36.3 15.5 36.6 17.05 36.2 15.25 M34.0 9.9 L32.9 7.95 33.5 8.95 34.0 9.9" fill="#d9d9d9" fill-rule="evenodd" stroke="none"/>
    <path d="M36.25 17.55 L36.1 17.6 36.2 17.55 36.3 17.5 36.25 17.55 M30.05 4.25 L29.95 4.2 26.1 2.15 Q27.95 2.9 29.95 4.15 L30.05 4.25 M6.4 20.75 L5.85 20.7 5.75 20.7 4.9 20.6 3.3 20.3 6.4 20.75" fill="#b2b2b2" fill-rule="evenodd" stroke="none"/>
    <path d="M35.45 17.85 L30.25 19.4 28.2 20.05 27.05 20.45 25.65 20.75 25.35 20.75 23.75 19.15 23.6 18.9 Q23.35 18.35 23.25 17.25 L23.15 14.1 22.5 9.9 22.05 7.4 21.6 7.2 23.4 6.85 Q25.6 6.45 28.25 8.5 31.75 11.1 35.15 17.3 31.75 11.1 28.25 8.5 25.6 6.45 23.4 6.85 L21.6 7.2 20.9 6.95 16.0 5.95 Q12.85 5.45 15.0 2.7 L17.6 0.2 21.9 1.2 Q25.55 2.35 28.45 4.2 L31.35 7.9 Q34.3 12.45 35.15 17.25 L35.15 17.3 35.45 17.85 M30.25 20.45 L30.3 20.45 30.25 20.55 30.15 20.9 29.65 22.35 29.6 22.55 29.6 22.65 29.3 24.1 Q29.0 26.5 29.5 28.3 L30.95 33.25 Q31.15 34.65 30.4 35.15 L29.7 35.4 27.85 35.7 27.65 35.75 28.4 35.15 29.1 34.75 Q30.25 34.35 29.65 31.85 29.35 30.45 28.1 27.35 27.45 25.65 28.5 23.0 L29.55 21.05 29.7 20.65 30.25 20.45" fill="#ffffff" fill-opacity="0.0" fill-rule="evenodd" stroke="none"/>
    <path d="M17.85 0.0 L17.6 0.2 15.0 2.7 Q12.85 5.45 16.0 5.95 L20.9 6.95 21.6 7.2 22.05 7.4 22.5 9.9 23.15 14.1 23.25 17.25 Q23.35 18.35 23.6 18.9 L23.75 19.15 25.35 20.75 22.9 20.85 20.85 20.9 17.95 21.0 12.95 21.05 7.2 20.85 6.4 20.75 3.3 20.3 1.05 19.6 0.5 19.2 0.45 19.15 0.4 19.1 0.35 19.05 0.1 18.7 0.0 18.25 0.0 18.05 Q0.1 16.05 0.35 14.15 0.8 10.2 1.75 9.25 L3.6 7.45 Q4.95 6.0 6.85 4.65 11.95 0.8 17.85 0.0 M10.2 20.7 L10.8 15.95 Q11.55 10.95 12.7 10.15 13.85 9.3 17.95 8.15 L21.6 7.2 17.95 8.15 Q13.85 9.3 12.7 10.15 11.55 10.95 10.8 15.95 L10.2 20.7" fill="#000000" fill-opacity="0.2" fill-rule="evenodd" stroke="none"/>
    <path d="M29.9 20.35 L30.0 20.35 30.05 20.4 29.9 20.35 M30.3 20.45 L30.35 20.45 30.15 20.9 30.25 20.55 30.3 20.45" fill="#4c4c4c" fill-rule="evenodd" stroke="none"/>
    <path d="M29.25 20.25 L29.75 20.3 29.85 20.35 29.25 20.25" fill="#4a4a4a" fill-rule="evenodd" stroke="none"/>
    <path d="M38.3 23.45 L38.55 23.55 38.75 23.6 38.65 23.6 38.55 23.55 38.4 23.5 38.3 23.45 M30.15 20.9 L30.35 20.45 29.65 22.35 30.15 20.9" fill="#636363" fill-rule="evenodd" stroke="none"/>
    <path d="M28.2 20.05 L28.2 20.1 M29.25 20.25 L29.75 20.3 29.85 20.35 29.9 20.35 30.05 20.4 30.1 20.4 30.25 20.45 30.3 20.45 30.35 20.45 30.65 20.5 32.1 21.0 33.9 21.9 33.95 21.9 34.85 22.3 M38.75 23.6 L40.6 23.95 Q41.9 24.1 42.4 23.65 L42.65 23.35 42.7 23.15 42.7 22.95 M21.6 7.2 L17.95 8.15 Q13.85 9.3 12.7 10.15 11.55 10.95 10.8 15.95 L10.2 20.7 M35.15 17.3 Q31.75 11.1 28.25 8.5 25.6 6.45 23.4 6.85 L21.6 7.2 M38.75 23.6 L38.65 23.6 38.55 23.55 38.4 23.5 38.3 23.45" fill="none" stroke="#000000" stroke-linecap="round" stroke-linejoin="round" stroke-opacity="0.6" stroke-width="1.0"/>
    <path d="M42.7 22.8 L42.55 22.2 Q41.55 19.45 37.75 18.05 L36.25 17.55 M42.7 22.95 L42.7 22.8 M35.15 17.3 L35.45 17.85" fill="none" stroke="#000000" stroke-linecap="round" stroke-linejoin="round" stroke-width="1.0"/>
    <path d="M36.25 17.55 L36.1 17.6 36.05 17.6 35.6 17.8 M34.0 9.9 L34.5 10.8 35.8 13.95 35.8 14.0 36.1 14.95 36.15 15.05 36.2 15.25 36.6 17.05 36.3 17.5 36.25 17.55 M32.9 7.95 L34.0 9.9 M32.9 7.95 Q31.65 6.0 30.15 4.4 L30.1 4.35 30.05 4.25 29.95 4.15 Q27.95 2.9 26.1 2.15 L21.7 0.7 17.85 0.0 Q11.95 0.8 6.85 4.65 4.95 6.0 3.6 7.45 L1.75 9.25 Q0.8 10.2 0.35 14.15 0.1 16.05 0.0 18.05 L0.0 18.25 0.1 18.7 0.35 19.05 0.4 19.1 Q-0.15 20.1 0.15 23.5 0.5 27.05 1.15 29.95 L1.45 32.1 Q1.0 33.45 1.25 33.7 L1.6 33.75 Q3.05 35.65 9.85 36.25 L12.05 36.45 15.45 36.6 24.9 36.1 25.1 36.05 25.15 36.05 27.65 35.75 27.85 35.7 29.7 35.4 30.4 35.15 M0.45 19.15 L0.4 19.1" fill="none" stroke="#000000" stroke-linecap="round" stroke-linejoin="miter-clip" stroke-miterlimit="10.0" stroke-width="1.0"/>
    <path d="M35.6 17.8 L35.45 17.85 30.25 19.4 28.2 20.05 27.05 20.45 25.65 20.75 25.35 20.75 22.9 20.85 20.85 20.9 17.95 21.0 12.95 21.05 7.2 20.85 6.4 20.75 5.85 20.7 5.75 20.7 4.9 20.6 3.3 20.3 1.05 19.6 0.5 19.2 0.45 19.15 M28.2 20.1 L29.25 20.25 29.85 20.35 M29.9 20.35 L30.0 20.35 30.05 20.4 M34.85 22.3 L38.3 23.45 M30.35 20.45 L29.65 22.35 29.6 22.55 29.6 22.65 29.3 24.1 Q29.0 26.5 29.5 28.3 L30.95 33.25 Q31.15 34.65 30.4 35.15" fill="none" stroke="#000000" stroke-linecap="round" stroke-linejoin="miter-clip" stroke-miterlimit="10.0" stroke-opacity="0.6" stroke-width="1.0"/>
  </g>
</svg>
