<?xml version="1.0" encoding="UTF-8" standalone="no"?>
<svg xmlns:xlink="http://www.w3.org/1999/xlink" height="33.3px" width="35.5px" xmlns="http://www.w3.org/2000/svg">
  <g transform="matrix(1.0, 0.0, 0.0, 1.0, 0.45, 0.45)">
    <path d="M24.3 0.1 Q24.65 0.15 24.9 0.75 L25.3 1.75 25.4 2.1 25.85 3.45 25.85 3.55 26.05 4.6 26.3 6.25 27.2 13.05 27.25 13.6 27.4 14.65 Q28.05 18.35 30.25 18.25 L31.45 17.95 32.0 17.65 32.6 17.15 Q32.65 19.95 32.35 22.3 L32.1 22.3 32.35 17.95 32.35 17.7 32.25 17.8 32.1 18.15 31.65 22.35 30.75 22.35 30.05 22.35 28.85 22.5 28.55 22.95 28.45 23.7 28.3 25.3 28.45 25.6 29.65 26.05 29.7 26.1 30.35 26.25 30.6 26.3 Q28.8 31.4 25.35 31.9 L26.2 32.05 Q27.75 32.05 29.05 30.55 30.4 29.0 31.25 26.35 L31.5 26.35 31.35 26.75 Q30.15 30.4 28.15 31.75 L24.15 31.65 24.1 31.65 Q22.15 30.05 20.85 25.95 L20.25 23.3 Q19.7 20.3 19.9 16.8 20.05 13.6 20.8 9.9 L21.0 8.85 21.2 7.95 22.1 4.65 22.15 4.6 22.15 4.55 22.5 3.45 23.3 1.5 23.6 0.75 24.0 0.15 24.1 0.1 24.3 0.1 M21.5 7.95 L20.65 12.15 20.2 16.8 Q20.0 20.3 20.5 23.3 L21.1 25.85 Q22.1 29.25 23.7 30.8 22.75 29.3 22.1 27.15 21.55 25.4 21.3 23.3 20.9 20.35 21.05 16.8 L21.25 13.6 Q21.5 10.85 22.05 7.95 L22.95 3.55 23.0 3.45 23.45 1.75 22.8 3.45 22.75 3.55 22.7 3.55 21.5 7.95 M24.45 12.75 Q24.25 12.75 24.2 13.05 L24.15 13.1 Q24.0 13.55 24.0 14.05 L24.05 14.65 24.15 14.95 Q24.25 15.3 24.45 15.3 L24.7 14.95 24.8 14.65 24.85 14.05 24.7 13.1 24.7 13.05 24.45 12.75 M12.35 4.2 L16.6 4.6 20.9 5.55 14.7 4.85 Q7.8 4.35 1.85 4.95 L7.3 4.25 10.25 4.15 12.35 4.2" fill="#ffffff" fill-opacity="0.0" fill-rule="evenodd" stroke="none"/>
    <path d="M22.1 4.65 L21.2 7.95 21.0 8.85 17.35 8.1 10.35 7.7 7.9 7.7 0.2 8.2 0.1 7.4 0.05 5.55 0.2 4.35 0.45 4.3 Q4.7 3.3 10.25 3.35 L12.35 3.4 14.6 3.55 21.9 4.55 22.0 4.6 22.1 4.65 M12.35 4.2 L10.25 4.15 7.3 4.25 1.85 4.95 Q7.8 4.35 14.7 4.85 L20.9 5.55 16.6 4.6 12.35 4.2" fill="#000000" fill-opacity="0.4" fill-rule="evenodd" stroke="none"/>
    <path d="M21.5 7.95 L22.7 3.55 22.75 3.55 22.8 3.45 23.45 1.75 23.0 3.45 22.95 3.55 22.05 7.95 Q21.5 10.85 21.25 13.6 L21.05 16.8 Q20.9 20.35 21.3 23.3 21.55 25.4 22.1 27.15 22.75 29.3 23.7 30.8 22.1 29.25 21.1 25.85 L20.5 23.3 Q20.0 20.3 20.2 16.8 L20.65 12.15 21.5 7.95" fill="#000000" fill-opacity="0.2" fill-rule="evenodd" stroke="none"/>
    <path d="M31.25 26.35 Q30.4 29.0 29.05 30.55 27.75 32.05 26.2 32.05 L25.35 31.9 Q28.8 31.4 30.6 26.3 L31.25 26.35 M31.65 22.35 L32.1 18.15 32.25 17.8 32.35 17.7 32.35 17.95 32.1 22.3 31.65 22.35" fill="#ffffff" fill-opacity="0.4" fill-rule="evenodd" stroke="none"/>
    <path d="M30.35 26.25 L29.7 26.1 30.05 22.35 30.75 22.35 30.6 23.3 30.35 24.65 30.35 26.25" fill="#ffffff" fill-opacity="0.2" fill-rule="evenodd" stroke="none"/>
    <path d="M32.6 17.15 L32.0 17.65 31.45 17.95 30.25 18.25 Q28.05 18.35 27.4 14.65 L27.25 13.6 27.2 13.05 26.3 6.25 26.05 4.6 25.85 3.55 25.85 3.45 25.4 2.1 25.3 1.75 24.9 0.75 Q24.65 0.15 24.3 0.1 M22.15 4.55 L22.15 4.6 M22.1 4.65 L21.2 7.95 21.0 8.85 20.8 9.9 Q20.05 13.6 19.9 16.8 19.7 20.3 20.25 23.3 L20.85 25.95 Q22.15 30.05 24.1 31.65 M31.5 26.35 L31.25 26.35 30.6 26.3 30.35 26.25 29.7 26.1 29.65 26.05 28.45 25.6 28.3 25.3 28.45 23.7 28.55 22.95 28.85 22.5 30.05 22.35 30.75 22.35 31.65 22.35 32.1 22.3 32.35 22.3 M21.9 4.55 L14.6 3.55 12.35 3.4 10.25 3.35 Q4.7 3.3 0.45 4.3 M0.1 7.4 L0.2 8.2 7.9 7.7 10.35 7.7 17.35 8.1 21.0 8.85 M24.45 12.75 L24.7 13.05 24.7 13.1 24.85 14.05 24.8 14.65 24.7 14.95 24.45 15.3 Q24.25 15.3 24.15 14.95 L24.05 14.65 24.0 14.05 Q24.0 13.55 24.15 13.1 L24.2 13.05 Q24.25 12.75 24.45 12.75" fill="none" stroke="#000000" stroke-linecap="round" stroke-linejoin="miter-clip" stroke-miterlimit="10.0" stroke-opacity="0.6" stroke-width="1.0"/>
    <path d="M24.3 0.1 L24.1 0.1 24.0 0.15 23.6 0.75 23.3 1.5 22.5 3.45 22.15 4.55 M22.15 4.6 L22.1 4.65 22.0 4.6 21.9 4.55 M24.1 31.65 L24.15 31.65 28.15 31.75 Q30.15 30.4 31.35 26.75 L31.5 26.35 M32.35 22.3 Q32.65 19.95 32.6 17.15 M0.45 4.3 L0.2 4.35 0.05 5.55 0.1 7.4" fill="none" stroke="#000000" stroke-linecap="round" stroke-linejoin="miter-clip" stroke-miterlimit="10.0" stroke-width="1.0"/>
    <path d="M30.75 22.35 L30.6 23.3 30.35 24.65 30.35 26.25 M30.05 22.35 L29.7 26.1" fill="none" stroke="#000000" stroke-linecap="round" stroke-linejoin="miter-clip" stroke-miterlimit="10.0" stroke-opacity="0.4" stroke-width="1.0"/>
  </g>
</svg>
