<?xml version="1.0" encoding="UTF-8" standalone="no"?>
<svg xmlns:xlink="http://www.w3.org/1999/xlink" height="3.6px" width="14.5px" xmlns="http://www.w3.org/2000/svg">
  <g transform="matrix(1.0, 0.0, 0.0, 1.0, 2.75, 0.5)">
    <path d="M11.2 1.95 L11.25 2.0 11.0 2.2 10.15 2.5 7.2 2.45 6.8 2.4 4.75 2.05 4.5 2.0 3.0 1.65 2.05 1.4 0.0 0.9 5.6 0.35 5.75 0.3 6.25 0.25 6.65 0.2 6.7 0.2 7.1 0.15 7.1 0.0 7.2 0.05 7.95 0.2 Q10.15 0.8 11.2 1.95" fill="#ffffff" fill-opacity="0.0" fill-rule="evenodd" stroke="none"/>
    <path d="M7.1 0.15 L6.7 0.2 6.65 0.2 6.25 0.25 5.75 0.3 5.6 0.35 0.0 0.9 2.05 1.4 3.0 1.65 4.5 2.0 4.75 2.05 6.8 2.4 7.2 2.45 10.15 2.5 11.0 2.2 11.25 2.0 11.2 1.95" fill="none" stroke="#000000" stroke-linecap="round" stroke-linejoin="miter-clip" stroke-miterlimit="10.0" stroke-opacity="0.6" stroke-width="1.0"/>
    <path d="M11.2 1.95 Q10.15 0.8 7.95 0.2 L7.2 0.05 7.1 0.0" fill="none" stroke="#000000" stroke-linecap="round" stroke-linejoin="miter-clip" stroke-miterlimit="10.0" stroke-width="1.0"/>
  </g>
</svg>
