<?xml version="1.0" encoding="UTF-8" standalone="no"?>
<svg xmlns:xlink="http://www.w3.org/1999/xlink" height="60.55px" width="59.15px" xmlns="http://www.w3.org/2000/svg">
  <g transform="matrix(1.0, 0.0, 0.0, 1.0, 35.55, 11.55)">
    <path d="M4.85 -10.35 Q2.05 -10.35 0.05 -7.9 L-0.35 -7.2 6.9 -7.45 Q11.65 -7.05 14.2 -4.55 14.9 -2.85 15.1 -1.1 L10.8 0.7 Q9.8 -1.45 4.6 -4.6 -1.75 -8.5 -7.95 -8.95 L-3.85 -11.0 4.85 -10.35 M8.85 5.75 Q6.5 4.15 2.0 2.85 -5.55 0.65 -15.5 0.65 -21.15 0.65 -22.65 1.3 L-23.75 2.05 -21.95 -3.3 -16.25 -4.05 Q-9.9 -4.05 -3.1 -2.35 4.8 -0.35 8.6 3.05 L8.85 5.75 M-25.2 6.55 L-23.3 6.1 -20.7 5.75 Q-9.15 5.75 -0.2 7.55 3.8 8.35 9.25 10.2 L9.25 10.25 8.95 12.75 -0.95 13.35 -4.9 13.1 -6.35 12.5 -27.2 11.65 Q-26.55 10.45 -25.2 6.55 M3.8 17.0 L9.05 16.8 9.5 21.45 5.45 21.55 3.8 17.0 M-30.1 17.6 L-24.9 17.1 -26.3 20.8 -29.2 20.9 -31.9 21.1 -30.1 17.6 M-23.15 16.95 L-16.65 16.7 -10.25 17.25 -4.7 17.8 -1.05 17.55 3.35 17.05 3.45 21.6 -4.95 22.15 -5.05 18.0 -5.9 22.2 -8.2 22.3 -13.9 21.8 -23.2 20.95 -23.15 16.95 M11.2 29.85 L10.1 29.95 7.0 25.45 10.25 25.25 11.2 29.85 M4.55 30.8 L-4.75 33.2 -4.8 26.25 3.8 25.55 4.55 30.8 M-8.6 34.2 L-16.0 34.8 Q-22.5 35.15 -24.2 34.85 L-24.25 32.7 -23.65 27.55 -18.9 27.65 -6.75 26.5 Q-7.05 29.0 -7.65 31.1 L-8.6 34.2 M-30.5 33.8 L-35.0 33.2 -35.05 32.15 Q-35.05 31.0 -34.25 27.55 -32.7 27.45 -28.05 27.5 -28.55 29.25 -30.5 33.8 M-22.65 41.65 L-19.25 41.9 -14.55 41.4 -9.95 40.25 Q-10.35 43.05 -10.35 45.25 L-10.3 46.85 -17.05 46.7 -20.85 44.4 -22.2 43.4 -22.65 41.65 M-4.05 38.25 L5.55 35.05 Q6.55 37.5 7.7 39.05 5.25 40.0 -1.65 44.05 -4.0 40.4 -4.05 38.25 M-7.3 -10.8 Q-8.75 -9.15 -10.95 -8.95 L-16.6 -8.6 -12.25 -10.05 -7.3 -10.8" fill="#ffffff" fill-opacity="0.0" fill-rule="evenodd" stroke="none"/>
    <path d="M-27.2 11.65 L-30.1 17.6 -30.2 17.6 -27.25 11.65 -27.2 11.65 M21.6 33.4 L20.8 31.8 21.35 32.85 21.6 33.4 M-6.3 -10.9 L-3.75 -11.05 -3.85 -11.0 -6.3 -10.9" fill="#7e7e7e" fill-rule="evenodd" stroke="none"/>
    <path d="M10.8 0.7 L15.1 -1.1 15.8 -1.35 16.05 4.65 15.85 7.1 9.05 7.75 9.0 7.75 8.9 6.15 8.85 5.85 8.9 5.9 8.9 6.15 8.9 5.9 8.85 5.85 8.85 5.75 8.6 3.05 Q8.45 1.85 10.8 0.7" fill="#ffffff" fill-opacity="0.2" fill-rule="evenodd" stroke="none"/>
    <path d="M14.2 -4.55 L13.95 -5.2 14.3 -4.45 14.2 -4.55 M9.25 10.25 L9.55 10.95 10.4 13.05 8.95 12.75 9.25 10.25 M3.35 17.05 L3.8 17.0 5.45 21.55 3.45 21.6 3.35 17.05 M9.05 16.8 L12.05 17.15 14.0 21.15 12.6 21.1 9.5 21.45 9.05 16.8 M-24.9 17.1 L-23.15 16.95 -23.2 20.95 -26.3 20.8 -24.9 17.1 M18.75 28.8 L17.65 27.4 14.5 28.7 11.2 29.85 10.25 25.25 13.45 24.9 Q15.5 24.65 15.7 24.25 16.45 25.7 18.75 28.8 M10.1 29.95 L4.55 30.8 3.8 25.55 7.0 25.45 10.1 29.95 M-4.75 33.2 L-8.6 34.2 -7.65 31.1 Q-7.05 29.0 -6.75 26.5 L-4.8 26.25 -4.75 33.2 M-24.2 34.85 L-30.5 33.8 Q-28.55 29.25 -28.05 27.5 L-23.65 27.55 -24.25 32.7 -24.2 34.85 M-25.0 41.15 L-22.65 41.65 -22.2 43.4 -25.0 41.15 M-9.95 40.25 L-4.05 38.25 Q-4.0 40.4 -1.65 44.05 L-6.15 45.6 -10.3 46.85 -10.35 45.25 Q-10.35 43.05 -9.95 40.25 M5.55 35.05 Q9.25 34.35 14.5 32.85 19.55 31.45 20.3 30.95 L20.8 31.8 Q19.7 34.6 16.95 35.95 14.95 37.0 7.7 39.05 6.55 37.5 5.55 35.05 M-4.95 22.15 L-5.9 22.2 -5.05 18.0 -4.95 22.15" fill="#000000" fill-opacity="0.2" fill-rule="evenodd" stroke="none"/>
    <path d="M14.2 -4.55 Q11.65 -7.05 6.9 -7.45 L-0.35 -7.2 0.05 -7.9 Q2.05 -10.35 4.85 -10.35 9.5 -8.35 12.2 -6.55 L13.95 -5.2 14.2 -4.55 M-3.85 -11.0 L-7.95 -8.95 Q-1.75 -8.5 4.6 -4.6 9.8 -1.45 10.8 0.7 8.45 1.85 8.6 3.05 4.8 -0.35 -3.1 -2.35 -9.9 -4.05 -16.25 -4.05 L-21.95 -3.3 -21.05 -4.85 -19.0 -6.75 -16.6 -8.6 -10.95 -8.95 Q-8.75 -9.15 -7.3 -10.8 L-6.3 -10.9 -3.85 -11.0 M8.85 5.85 L8.9 6.15 9.0 7.75 9.05 7.75 9.25 10.2 Q3.8 8.35 -0.2 7.55 -9.15 5.75 -20.7 5.75 L-23.3 6.1 -25.2 6.55 -24.45 4.2 -23.75 2.05 -22.65 1.3 Q-21.15 0.65 -15.5 0.65 -5.55 0.65 2.0 2.85 6.5 4.15 8.85 5.75 L8.85 5.85 M3.8 17.0 L3.35 17.05 -1.05 17.55 -4.7 17.8 -10.25 17.25 -16.65 16.7 -23.15 16.95 -24.9 17.1 -30.1 17.6 -27.2 11.65 -6.35 12.5 -4.9 13.1 -0.95 13.35 8.95 12.75 10.4 13.05 10.4 13.1 12.05 17.15 9.05 16.8 3.8 17.0 M3.45 21.6 L5.45 21.55 9.5 21.45 12.6 21.1 14.0 21.15 15.55 23.95 15.7 24.25 Q15.5 24.65 13.45 24.9 L10.25 25.25 7.0 25.45 3.8 25.55 -4.8 26.25 -6.75 26.5 -18.9 27.65 -23.65 27.55 -28.05 27.5 Q-32.7 27.45 -34.25 27.55 L-34.2 27.35 -32.7 22.9 -31.9 21.1 -29.2 20.9 -26.3 20.8 -23.2 20.95 -13.9 21.8 -8.2 22.3 -5.9 22.2 -4.95 22.15 3.45 21.6 M11.2 29.85 L14.5 28.7 17.65 27.4 18.75 28.8 20.3 30.95 Q19.55 31.45 14.5 32.85 9.25 34.35 5.55 35.05 L-4.05 38.25 -9.95 40.25 -14.55 41.4 -19.25 41.9 -22.65 41.65 -25.0 41.15 -26.0 40.35 -29.25 37.85 -30.55 36.85 -30.7 36.75 Q-31.7 36.0 -31.85 35.95 L-34.05 34.55 -35.0 33.2 -30.5 33.8 -24.2 34.85 Q-22.5 35.15 -16.0 34.8 L-8.6 34.2 -4.75 33.2 4.55 30.8 10.1 29.95 11.2 29.85 M21.6 33.4 L21.85 33.9 Q24.15 38.75 20.25 40.3 L12.7 41.8 10.8 42.65 Q7.65 44.2 3.75 45.65 -3.95 48.55 -8.7 48.5 L-10.1 48.3 -13.0 47.65 -15.05 47.2 -16.55 46.85 -17.05 46.7 -10.3 46.85 -6.15 45.6 -1.65 44.05 Q5.25 40.0 7.7 39.05 14.95 37.0 16.95 35.95 19.7 34.6 20.8 31.8 L21.6 33.4" fill="#000000" fill-opacity="0.4" fill-rule="evenodd" stroke="none"/>
    <path d="M14.2 -4.55 L13.95 -5.2 12.2 -6.55 Q9.5 -8.35 4.85 -10.35 L-3.85 -11.0 -6.3 -10.9 -7.3 -10.8 -12.25 -10.05 -16.6 -8.6 -19.0 -6.75 -21.05 -4.85 -21.95 -3.3 -23.75 2.05 -24.45 4.2 -25.2 6.55 Q-26.55 10.45 -27.2 11.65 L-30.1 17.6 -31.9 21.1 -32.7 22.9 -34.2 27.35 -34.25 27.55 Q-35.05 31.0 -35.05 32.15 L-35.0 33.2 -34.05 34.55 -31.85 35.95 Q-31.7 36.0 -30.7 36.75 L-30.55 36.85 -29.25 37.85 -26.0 40.35 -25.0 41.15 -22.2 43.4 -20.85 44.4 -17.05 46.7 -16.55 46.85 -15.05 47.2 -12.95 47.7 -10.1 48.3 -8.7 48.5 Q-3.95 48.55 3.75 45.65 7.65 44.2 10.8 42.65 L12.7 41.8 20.25 40.3 Q24.15 38.75 21.85 33.9 L21.6 33.4 20.8 31.8 20.3 30.95 18.75 28.8 Q16.45 25.7 15.7 24.25 L15.55 23.95 14.0 21.15 12.05 17.15 10.4 13.1 10.4 13.05 9.55 10.95 9.25 10.2 9.05 7.75 15.85 7.1 16.05 4.65 15.8 -1.35 15.1 -1.1 Q14.9 -2.85 14.2 -4.55 M21.6 33.4 L21.35 32.85" fill="none" stroke="#000000" stroke-linecap="butt" stroke-linejoin="miter-clip" stroke-miterlimit="10.0" stroke-width="1.0"/>
    <path d="M10.8 0.7 L15.1 -1.1 M8.85 5.85 L8.9 6.15 8.9 5.9 8.85 5.85 8.85 5.75 8.6 3.05 Q8.45 1.85 10.8 0.7 M9.05 7.75 L9.0 7.75 8.9 6.15" fill="none" stroke="#000000" stroke-linecap="butt" stroke-linejoin="miter-clip" stroke-miterlimit="10.0" stroke-opacity="0.4" stroke-width="1.0"/>
  </g>
</svg>
