<?xml version="1.0" encoding="UTF-8" standalone="no"?>
<svg xmlns:xlink="http://www.w3.org/1999/xlink" height="59.5px" width="38.2px" xmlns="http://www.w3.org/2000/svg">
  <g transform="matrix(1.0, 0.0, 0.0, 1.0, 21.6, 40.5)">
    <path d="M10.5 -15.3 Q10.95 -14.2 11.45 -13.6 L11.7 -13.0 12.65 -9.95 14.0 -4.5 14.55 -2.0 13.95 -2.0 13.75 -2.05 12.75 -4.4 11.9 -2.2 8.9 -2.4 7.55 -4.75 Q2.15 -23.5 -9.8 -33.7 -12.3 -35.85 -15.05 -37.6 L-14.95 -37.7 Q-11.75 -36.3 -9.05 -34.8 0.4 -29.65 3.4 -23.75 5.6 -19.35 7.2 -17.5 8.35 -16.2 9.15 -16.15 9.8 -16.15 10.5 -15.3" fill="#000000" fill-opacity="0.09803922" fill-rule="evenodd" stroke="none"/>
    <path d="M10.5 -15.3 Q9.8 -16.15 9.15 -16.15 8.35 -16.2 7.2 -17.5 5.6 -19.35 3.4 -23.75 0.4 -29.65 -9.05 -34.8 L-8.35 -35.95 -5.6 -39.95 -5.5 -40.0 Q6.85 -30.1 8.65 -21.8 L8.95 -20.5 Q9.7 -17.2 10.5 -15.3 M-15.05 -37.6 Q-12.3 -35.85 -9.8 -33.7 2.15 -23.5 7.55 -4.75 L6.3 -2.4 3.0 -2.2 1.35 -4.45 -0.05 -1.9 -3.45 -1.35 -5.7 -3.3 -6.4 -0.75 -9.8 0.0 -9.9 0.0 -11.95 -1.9 -12.45 0.75 -12.8 0.85 -14.5 1.35 -15.6 1.7 -15.85 1.8 -17.85 -0.05 -18.2 2.65 -18.6 2.75 -20.5 3.4 -21.0 -4.45 -21.05 -5.75 Q-21.25 -11.7 -20.6 -16.45 L-18.9 -25.2 -16.65 -33.05 -15.05 -37.6" fill="#000000" fill-opacity="0.2" fill-rule="evenodd" stroke="none"/>
    <path d="M7.55 -4.75 L8.9 -2.4 11.9 -2.2 12.75 -4.4 13.75 -2.05 13.95 -2.0 14.55 -2.0 15.0 0.15 15.15 1.3 15.6 2.6 Q16.35 5.0 16.0 5.6 L15.6 5.7 13.25 5.45 12.45 5.35 12.15 5.4 Q11.35 5.6 11.05 6.0 L10.05 7.9 9.6 9.55 8.95 12.0 7.95 13.2 6.8 13.9 Q3.8 15.45 1.2 16.05 -7.55 18.15 -19.45 18.5 -20.25 16.15 -19.2 11.25 -19.8 11.3 -20.0 10.05 L-20.15 8.05 -20.2 7.15 -20.3 5.65 -20.5 3.4 -18.6 2.75 -18.2 2.65 -17.85 -0.05 -15.85 1.8 -15.6 1.7 -14.5 1.35 -12.8 0.85 -12.45 0.75 -11.95 -1.9 -9.9 0.0 -9.8 0.0 -6.4 -0.75 -5.7 -3.3 -3.45 -1.35 -0.05 -1.9 1.35 -4.45 3.0 -2.2 6.3 -2.4 7.55 -4.75 M-19.2 11.25 L-19.0 11.2 -12.5 8.95 Q-11.7 8.6 -9.15 8.0 -5.15 7.0 -0.1 6.3 L8.2 5.55 12.15 5.4 8.2 5.55 -0.1 6.3 Q-5.15 7.0 -9.15 8.0 -11.7 8.6 -12.5 8.95 L-19.0 11.2 -19.2 11.25 M-20.15 8.05 L-13.65 5.9 Q-9.35 4.5 -3.0 3.3 3.65 2.05 8.15 2.1 L15.6 2.6 8.15 2.1 Q3.65 2.05 -3.0 3.3 -9.35 4.5 -13.65 5.9 L-20.15 8.05 M-20.3 5.65 L-14.05 3.5 Q-9.8 2.15 -3.4 0.95 3.25 -0.3 7.8 -0.3 L13.9 0.1 15.0 0.15 13.9 0.1 7.8 -0.3 Q3.25 -0.3 -3.4 0.95 -9.8 2.15 -14.05 3.5 L-20.3 5.65" fill="#ffffff" fill-opacity="0.0" fill-rule="evenodd" stroke="none"/>
    <path d="M14.55 -2.0 L14.0 -4.5 12.65 -9.95 11.7 -13.0 11.45 -13.6 Q10.95 -14.2 10.5 -15.3 9.7 -17.2 8.95 -20.5 L8.65 -21.8 Q6.85 -30.1 -5.5 -40.0 L-5.6 -39.95 -8.35 -35.95 -9.05 -34.8 Q-11.75 -36.3 -14.95 -37.7 L-15.05 -37.6 -16.65 -33.05 -18.9 -25.2 -20.6 -16.45 Q-21.25 -11.7 -21.05 -5.75 L-21.0 -4.45 -20.5 3.4 -20.3 5.65 -20.2 7.15 -20.15 8.05 -20.0 10.05 Q-19.8 11.3 -19.2 11.25 -20.25 16.15 -19.45 18.5 M14.55 -2.0 L15.0 0.15 15.15 1.3 15.6 2.6 Q16.35 5.0 16.0 5.6 L15.6 5.7 13.25 5.45 12.45 5.35" fill="none" stroke="#000000" stroke-linecap="round" stroke-linejoin="round" stroke-width="1.0"/>
    <path d="M7.55 -4.75 L8.9 -2.4 11.9 -2.2 12.75 -4.4 13.75 -2.05 13.95 -2.0 14.55 -2.0 M12.45 5.35 L12.15 5.4 Q11.35 5.6 11.05 6.0 L10.05 7.9 9.6 9.55 8.95 12.0 7.95 13.2 6.8 13.9 Q3.8 15.45 1.2 16.05 -7.55 18.15 -19.45 18.5 M-20.5 3.4 L-18.6 2.75 -18.2 2.65 -17.85 -0.05 -15.85 1.8 -15.6 1.7 -14.5 1.35 -12.8 0.85 -12.45 0.75 -11.95 -1.9 -9.9 0.0 -9.8 0.0 -6.4 -0.75 -5.7 -3.3 -3.45 -1.35 -0.05 -1.9 1.35 -4.45 3.0 -2.2 6.3 -2.4 7.55 -4.75 M15.0 0.15 L13.9 0.1 7.8 -0.3 Q3.25 -0.3 -3.4 0.95 -9.8 2.15 -14.05 3.5 L-20.3 5.65 M15.6 2.6 L8.15 2.1 Q3.65 2.05 -3.0 3.3 -9.35 4.5 -13.65 5.9 L-20.15 8.05 M12.15 5.4 L8.2 5.55 -0.1 6.3 Q-5.15 7.0 -9.15 8.0 -11.7 8.6 -12.5 8.95 L-19.0 11.2 -19.2 11.25" fill="none" stroke="#000000" stroke-linecap="round" stroke-linejoin="round" stroke-opacity="0.4" stroke-width="1.0"/>
    <path d="M7.2 -17.5 Q5.6 -19.35 3.4 -23.75 0.4 -29.65 -9.05 -34.8" fill="none" stroke="#000000" stroke-linecap="round" stroke-linejoin="round" stroke-opacity="0.6" stroke-width="1.0"/>
  </g>
</svg>
