<?xml version="1.0" encoding="UTF-8" standalone="no"?>
<svg xmlns:xlink="http://www.w3.org/1999/xlink" height="31.5px" width="40.6px" xmlns="http://www.w3.org/2000/svg">
  <g transform="matrix(1.0, 0.0, 0.0, 1.0, 24.6, 19.55)">
    <path d="M15.35 0.05 Q14.8 1.0 10.3 1.8 8.35 2.15 4.8 3.7 L-2.75 7.0 Q-11.5 10.65 -21.1 11.45 -22.5 11.55 -23.3 10.1 -24.1 8.7 -24.1 6.2 -24.1 3.45 -23.3 0.7 -22.55 -1.9 -20.5 -6.15 -18.35 -10.6 -15.6 -14.45 -12.55 -18.7 -11.1 -19.0 -9.4 -19.4 -3.35 -16.9 3.2 -14.25 7.2 -11.2 L12.25 -7.25 Q14.15 -5.45 14.9 -3.3 L15.0 -3.0 Q15.7 -1.1 15.4 -0.05 L15.35 0.05 15.0 0.05 15.0 -3.0 15.0 0.05 15.35 0.05" fill="#ffffff" fill-opacity="0.0" fill-rule="evenodd" stroke="none"/>
    <path d="M15.35 0.05 Q14.8 1.0 10.3 1.8 8.35 2.15 4.8 3.7 L-2.75 7.0 Q-11.5 10.65 -21.1 11.45 -22.5 11.55 -23.3 10.1 -24.1 8.7 -24.1 6.2 -24.1 3.45 -23.3 0.7 -22.55 -1.9 -20.5 -6.15 -18.35 -10.6 -15.6 -14.45 -12.55 -18.7 -11.1 -19.0 -9.4 -19.4 -3.35 -16.9 3.2 -14.25 7.2 -11.2 L12.25 -7.25 Q14.15 -5.45 14.9 -3.3 L15.0 -3.0 Q15.7 -1.1 15.4 -0.05 L15.35 0.05 Z" fill="none" stroke="#000000" stroke-linecap="round" stroke-linejoin="round" stroke-width="1.0"/>
    <path d="M1.1 2.05 Q7.8 -1.5 15.0 -2.75" fill="none" stroke="#000000" stroke-linecap="round" stroke-linejoin="round" stroke-opacity="0.4" stroke-width="1.0"/>
  </g>
</svg>
