<?xml version="1.0" encoding="UTF-8" standalone="no"?>
<svg xmlns:xlink="http://www.w3.org/1999/xlink" height="14.3px" width="21.1px" xmlns="http://www.w3.org/2000/svg">
  <g transform="matrix(1.0, 0.0, 0.0, 1.0, 7.05, 7.6)">
    <path d="M10.45 6.2 Q9.55 4.3 6.7 3.6 7.15 2.65 9.2 1.1 11.9 -1.05 12.85 -5.5 14.3 -1.95 12.65 2.25 11.75 4.75 10.75 5.9 L10.45 6.2" fill="#ffffff" fill-opacity="0.0" fill-rule="evenodd" stroke="none"/>
    <path d="M6.7 3.6 Q7.15 2.65 9.2 1.1 11.9 -1.05 12.85 -5.5 14.3 -1.95 12.65 2.25 11.75 4.75 10.75 5.9 L10.45 6.2" fill="none" stroke="#000000" stroke-linecap="round" stroke-linejoin="round" stroke-width="1.0"/>
    <path d="M10.45 6.2 Q9.55 4.3 6.7 3.6 Z" fill="none" stroke="#000000" stroke-linecap="round" stroke-linejoin="round" stroke-opacity="0.4" stroke-width="1.0"/>
    <path d="M-6.55 2.05 L-5.25 -0.45 Q-3.65 -3.05 -4.2 -7.1 -1.9 -4.55 -1.95 -0.5 L-2.05 1.35 Q-4.3 0.7 -6.55 2.05" fill="#ffffff" fill-opacity="0.0" fill-rule="evenodd" stroke="none"/>
    <path d="M-2.05 1.35 L-1.95 -0.5 Q-1.9 -4.55 -4.2 -7.1 -3.65 -3.05 -5.25 -0.45 L-6.55 2.05" fill="none" stroke="#000000" stroke-linecap="round" stroke-linejoin="round" stroke-width="1.0"/>
    <path d="M-6.55 2.05 Q-4.3 0.7 -2.05 1.35 Z" fill="none" stroke="#000000" stroke-linecap="round" stroke-linejoin="round" stroke-opacity="0.4" stroke-width="1.0"/>
  </g>
</svg>
