<?xml version="1.0" encoding="UTF-8" standalone="no"?>
<svg xmlns:xlink="http://www.w3.org/1999/xlink" height="25.3px" width="50.35px" xmlns="http://www.w3.org/2000/svg">
  <g transform="matrix(1.0, 0.0, 0.0, 1.0, 23.6, 13.6)">
    <path d="M-15.7 6.35 Q-16.95 6.0 -17.85 5.25 L-18.25 3.1 -18.5 3.1 Q-21.1 3.15 -22.5 0.9 -24.05 -1.5 -21.65 -3.3 -21.25 -4.9 -16.8 -7.65 L-11.15 -10.7 Q-9.15 -11.7 -7.35 -12.2 -4.35 -13.05 -0.5 -13.1 5.8 -13.15 9.65 -11.4 L15.55 -8.5 20.2 -5.95 Q21.25 -5.25 22.15 -3.7 23.1 -2.15 23.1 -1.2 23.1 -0.15 22.75 0.3 L21.45 1.35 Q19.0 2.8 18.45 3.5 19.3 4.25 19.25 4.9 19.1 5.65 18.4 6.25 21.3 6.55 23.8 7.6 26.25 8.6 26.25 9.5 26.25 10.3 25.5 11.0 24.85 11.6 22.65 10.35 20.45 9.1 17.3 9.1 L10.05 9.35 3.65 9.5 Q1.2 9.4 -4.1 9.45 L-12.25 9.2 Q-15.05 8.9 -15.7 6.35" fill="#ffffff" fill-opacity="0.0" fill-rule="evenodd" stroke="none"/>
    <path d="M18.4 6.25 Q19.1 5.65 19.25 4.9 19.3 4.25 18.45 3.5 19.0 2.8 21.45 1.35 L22.75 0.3 Q23.1 -0.15 23.1 -1.2 23.1 -2.15 22.15 -3.7 21.25 -5.25 20.2 -5.95 L15.55 -8.5 9.65 -11.4 Q5.8 -13.15 -0.5 -13.1 -4.35 -13.05 -7.35 -12.2 -9.15 -11.7 -11.15 -10.7 L-16.8 -7.65 Q-21.25 -4.9 -21.65 -3.3 -24.05 -1.5 -22.5 0.9 -21.1 3.15 -18.5 3.1 L-18.25 3.1 -17.85 5.25 Q-16.95 6.0 -15.7 6.35" fill="none" stroke="#000000" stroke-linecap="round" stroke-linejoin="round" stroke-width="1.0"/>
    <path d="M-15.7 6.35 Q-15.05 8.9 -12.25 9.2 L-4.1 9.45 Q1.2 9.4 3.65 9.5 L10.05 9.35 17.3 9.1 Q20.45 9.1 22.65 10.35 24.85 11.6 25.5 11.0 26.25 10.3 26.25 9.5 26.25 8.6 23.8 7.6 21.3 6.55 18.4 6.25 Z" fill="none" stroke="#000000" stroke-linecap="round" stroke-linejoin="round" stroke-opacity="0.4" stroke-width="1.0"/>
    <path d="M-18.25 3.1 L-13.35 2.7 -9.5 2.75 -5.1 3.0 0.65 3.3 5.75 3.35 11.95 3.1 18.35 3.45 18.45 3.5 Q19.3 4.25 19.25 4.9 19.1 5.65 18.4 6.25 16.6 7.4 13.7 7.6 L8.2 7.85 -3.25 7.5 -14.5 6.55 Q-16.95 6.0 -17.85 5.25 L-18.25 3.1" fill="#000000" fill-opacity="0.4" fill-rule="evenodd" stroke="none"/>
    <path d="M-18.25 3.1 L-13.35 2.7 -9.5 2.75 -5.1 3.0 0.65 3.3 5.75 3.35 11.95 3.1 18.35 3.45 M18.4 6.25 Q16.6 7.4 13.7 7.6 L8.2 7.85 -3.25 7.5 -14.5 6.55" fill="none" stroke="#000000" stroke-linecap="round" stroke-linejoin="round" stroke-opacity="0.49803922" stroke-width="1.0"/>
  </g>
</svg>
