<?xml version="1.0" encoding="UTF-8" standalone="no"?>
<svg xmlns:xlink="http://www.w3.org/1999/xlink" height="38.2px" width="41.25px" xmlns="http://www.w3.org/2000/svg">
  <g transform="matrix(1.0, 0.0, 0.0, 1.0, 24.1, 18.15)">
    <path d="M-23.6 10.85 L-14.25 11.25 Q-8.0 11.25 -4.4 9.5 -0.8 7.7 2.55 6.25 L8.0 3.7 Q10.1 2.65 14.65 -1.35 16.3 0.0 15.75 1.4 10.7 5.15 8.6 6.2 L3.15 8.75 -3.8 12.0 Q-7.4 13.75 -13.65 13.75 L-23.05 13.15 -23.25 12.6 -23.4 11.9 -23.6 10.85 M16.25 5.9 L16.4 6.95 Q16.25 7.9 15.15 8.3 12.0 10.95 9.9 12.0 L4.45 14.55 Q1.1 16.0 -2.5 17.8 -6.1 19.55 -12.35 19.55 L-18.75 19.15 Q-20.05 18.8 -20.45 18.25 L-20.65 17.75 -20.65 17.7 -20.7 16.65 Q-19.0 17.45 -12.75 17.45 -6.5 17.45 -2.9 15.7 0.7 13.9 4.05 12.45 L9.5 9.9 16.25 5.9" fill="#ffffff" fill-rule="evenodd" stroke="none"/>
    <path d="M15.75 1.4 L16.4 2.5 Q17.0 3.35 16.25 5.9 L9.5 9.9 4.05 12.45 Q0.7 13.9 -2.9 15.7 -6.5 17.45 -12.75 17.45 -19.0 17.45 -20.7 16.65 L-20.7 15.95 -20.7 15.85 Q-21.05 15.2 -21.9 14.6 L-22.05 14.5 Q-22.65 14.1 -23.05 13.15 L-13.65 13.75 Q-7.4 13.75 -3.8 12.0 L3.15 8.75 8.6 6.2 Q10.7 5.15 15.75 1.4" fill="#000000" fill-opacity="0.4" fill-rule="evenodd" stroke="none"/>
    <path d="M-23.6 10.85 Q-23.7 9.6 -23.35 8.75 L-22.4 6.5 Q-22.85 3.85 -22.7 1.6 L-22.35 -0.65 -21.95 -1.85 -21.25 -3.25 -20.4 -4.25 Q-19.55 -5.1 -19.65 -6.05 -19.85 -7.05 -20.75 -8.15 -21.7 -9.25 -21.3 -11.05 -20.35 -14.1 -17.9 -15.25 -15.5 -16.45 -12.45 -16.95 L-6.2 -17.6 -1.5 -17.3 2.75 -15.55 Q5.45 -14.35 7.1 -11.05 L7.2 -11.0 8.6 -10.05 Q9.75 -9.2 10.9 -6.95 L10.9 -6.9 11.0 -6.75 11.4 -6.45 Q12.8 -5.4 13.35 -4.3 L13.9 -2.65 14.65 -1.35 Q10.1 2.65 8.0 3.7 L2.55 6.25 Q-0.8 7.7 -4.4 9.5 -8.0 11.25 -14.25 11.25 L-23.6 10.85" fill="#ffffff" fill-opacity="0.0" fill-rule="evenodd" stroke="none"/>
    <path d="M14.65 -1.35 L13.9 -2.65 13.35 -4.3 Q12.8 -5.4 11.4 -6.45 L11.0 -6.75 10.9 -6.9 10.9 -6.95 Q9.75 -9.2 8.6 -10.05 L7.2 -11.0 7.1 -11.05 Q5.45 -14.35 2.75 -15.55 L-1.5 -17.3 -6.2 -17.6 -12.45 -16.95 Q-15.5 -16.45 -17.9 -15.25 -20.35 -14.1 -21.3 -11.05 -21.7 -9.25 -20.75 -8.15 -19.85 -7.05 -19.65 -6.05 -19.55 -5.1 -20.4 -4.25 L-21.25 -3.25 -21.95 -1.85 -22.35 -0.65 -22.7 1.6 Q-22.85 3.85 -22.4 6.5 L-23.35 8.75 Q-23.7 9.6 -23.6 10.85 L-23.4 11.9 -23.25 12.6 -23.05 13.15 Q-22.65 14.1 -22.05 14.5 L-21.9 14.6 Q-21.05 15.2 -20.7 15.85 L-20.7 15.95 -20.7 16.65 -20.65 17.7 -20.65 17.75 -20.45 18.25 Q-20.05 18.8 -18.75 19.15 M14.65 -1.35 Q16.3 0.0 15.75 1.4 L16.4 2.5 Q17.0 3.35 16.25 5.9 L16.4 6.95 Q16.25 7.9 15.15 8.3" fill="none" stroke="#000000" stroke-linecap="round" stroke-linejoin="round" stroke-width="1.0"/>
    <path d="M-23.6 10.85 L-14.25 11.25 Q-8.0 11.25 -4.4 9.5 -0.8 7.7 2.55 6.25 L8.0 3.7 Q10.1 2.65 14.65 -1.35 M15.15 8.3 Q12.0 10.95 9.9 12.0 L4.45 14.55 Q1.1 16.0 -2.5 17.8 -6.1 19.55 -12.35 19.55 L-18.75 19.15 M15.75 1.4 Q10.7 5.15 8.6 6.2 L3.15 8.75 -3.8 12.0 Q-7.4 13.75 -13.65 13.75 L-23.05 13.15 M16.25 5.9 L9.5 9.9 4.05 12.45 Q0.7 13.9 -2.9 15.7 -6.5 17.45 -12.75 17.45 -19.0 17.45 -20.7 16.65" fill="none" stroke="#000000" stroke-linecap="round" stroke-linejoin="round" stroke-opacity="0.4" stroke-width="1.0"/>
  </g>
</svg>
