<?xml version="1.0" encoding="UTF-8" standalone="no"?>
<svg xmlns:xlink="http://www.w3.org/1999/xlink" height="5.35px" width="36.6px" xmlns="http://www.w3.org/2000/svg">
  <g transform="matrix(1.0, 0.0, 0.0, 1.0, 0.5, 0.5)">
    <path d="M0.0 0.65 Q13.95 -0.3 26.2 0.1 L35.6 0.65 34.4 4.25 15.35 3.9 Q11.25 3.9 1.65 4.25 L0.0 0.65 M3.4 0.45 L3.85 3.55 5.2 3.4 4.6 0.55 3.4 0.45" fill="#ffffff" fill-opacity="0.0" fill-rule="evenodd" stroke="none"/>
    <path d="M3.4 0.45 L4.6 0.55 5.2 3.4 3.85 3.55 3.4 0.45" fill="#ffffff" fill-opacity="0.2" fill-rule="evenodd" stroke="none"/>
    <path d="M0.0 0.65 L1.65 4.25 Q11.25 3.9 15.35 3.9 L34.4 4.25 35.6 0.65" fill="none" stroke="#000000" stroke-linecap="round" stroke-linejoin="miter-clip" stroke-miterlimit="10.0" stroke-width="1.0"/>
    <path d="M35.6 0.65 L26.2 0.1 Q13.95 -0.3 0.0 0.65 Z" fill="none" stroke="#000000" stroke-linecap="round" stroke-linejoin="miter-clip" stroke-miterlimit="10.0" stroke-opacity="0.4" stroke-width="1.0"/>
  </g>
</svg>
