<?xml version="1.0" encoding="UTF-8" standalone="no"?>
<svg xmlns:xlink="http://www.w3.org/1999/xlink" height="42.25px" width="53.5px" xmlns="http://www.w3.org/2000/svg">
  <g transform="matrix(1.0, 0.0, 0.0, 1.0, -2.25, 0.3)">
    <path d="M44.65 7.3 L44.95 7.25 44.65 7.35 44.65 7.3 M42.25 9.95 L43.55 8.65 44.05 8.1 44.5 7.5 44.6 7.4 47.8 9.35 46.25 13.25 45.7 13.4 47.05 13.4 Q50.0 15.3 49.9 16.0 49.85 16.7 48.35 18.9 50.95 18.8 49.7 18.9 L50.85 21.2 Q50.95 21.7 50.65 22.15 50.2 22.8 48.95 23.35 L52.75 23.6 54.55 25.1 54.55 25.25 54.9 27.85 Q55.2 30.6 55.0 31.3 54.75 32.0 51.5 31.9 L51.45 31.9 51.95 32.4 52.1 32.6 54.9 35.35 55.75 36.1 55.1 41.95 52.25 40.85 52.1 40.6 Q46.2 32.0 45.15 24.45 L44.9 24.15 44.9 29.25 42.7 28.85 41.25 34.75 13.0 35.55 12.6 32.85 Q10.45 36.4 6.95 39.45 L7.5 38.9 3.85 39.1 5.1 34.95 4.25 34.4 4.9 33.65 2.25 33.2 3.3 28.7 5.35 27.05 Q2.75 26.15 2.6 25.7 L2.9 22.45 Q1.95 23.05 2.4 22.7 L3.75 21.9 4.4 21.95 4.85 21.95 5.1 21.95 5.2 21.95 5.75 21.95 8.15 21.4 8.6 21.15 8.65 21.1 8.6 21.05 5.7 18.85 7.05 15.05 9.85 14.85 9.65 14.65 9.9 14.85 11.4 14.95 11.5 14.95 9.5 10.0 11.95 8.3 11.35 8.1 12.4 8.4 11.9 7.5 12.45 8.4 14.7 9.3 15.0 9.2 16.6 8.85 15.2 4.8 17.6 6.3 17.25 5.7 17.65 6.35 19.35 7.7 19.8 3.3 24.7 5.6 24.6 4.35 23.25 2.15 23.55 2.5 23.55 2.55 23.6 2.6 25.35 0.0 28.55 4.45 29.25 3.15 28.85 1.05 29.0 1.8 31.05 0.85 33.85 3.55 34.0 2.45 33.95 3.1 34.6 2.1 36.7 2.0 38.0 6.2 38.0 6.25 38.9 3.85 42.15 4.3 41.45 10.7 42.25 9.95 38.75 12.75 42.25 9.95 M42.85 18.75 L43.65 18.8 49.7 18.9 43.65 18.8 42.85 18.75 M45.4 21.7 Q47.35 22.8 48.95 23.35 47.35 22.8 45.4 21.7 M14.2 19.45 Q10.9 20.7 8.6 21.35 L5.75 21.95 8.6 21.35 Q10.9 20.7 14.2 19.45 L14.55 19.45 14.6 19.3 14.2 19.45 M9.9 14.85 L9.85 14.85 9.9 14.85 M19.35 7.7 L22.65 10.9 24.0 12.5 22.65 10.9 19.35 7.7 M45.7 13.4 L40.4 14.15 39.5 14.4 39.1 14.5 39.5 14.4 40.4 14.15 45.7 13.4 M30.7 12.2 L30.1 7.9 29.0 1.8 30.1 7.9 30.7 12.2 M23.6 2.6 Q24.9 4.55 25.8 7.1 L26.4 8.8 26.65 10.35 26.4 8.8 25.8 7.1 Q24.9 4.55 23.6 2.6 M38.0 6.2 L37.6 7.3 Q36.35 10.4 34.9 12.6 36.35 10.4 37.6 7.3 L38.0 6.2 M33.95 3.1 L33.7 4.65 32.1 12.3 33.7 4.65 33.95 3.1 M51.5 31.9 L47.9 27.9 45.15 24.45 47.9 27.9 51.5 31.9 M4.9 33.65 Q6.4 31.9 8.3 30.25 L12.4 27.4 8.3 30.25 Q6.4 31.9 4.9 33.65 M5.35 27.05 Q7.25 25.65 9.5 24.45 10.5 23.9 11.3 23.6 10.5 23.9 9.5 24.45 7.25 25.65 5.35 27.05 M11.5 14.95 Q14.2 15.35 16.55 16.45 14.2 15.35 11.5 14.95 M14.7 9.3 Q17.6 10.7 19.8 13.4 L20.15 13.8 19.8 13.4 Q17.6 10.7 14.7 9.3" fill="#ffffff" fill-opacity="0.0" fill-rule="evenodd" stroke="none"/>
    <path d="M44.6 7.4 L44.5 7.5 44.05 8.1 43.55 8.65 42.25 9.95 38.75 12.75 M46.25 13.25 L45.7 13.4 47.05 13.4 M52.25 40.85 L52.1 40.6 Q46.2 32.0 45.15 24.45 L44.9 24.15 M12.6 32.85 Q10.45 36.4 6.95 39.45 M5.1 21.95 L5.2 21.95 5.75 21.95 8.6 21.35 Q10.9 20.7 14.2 19.45 L14.6 19.3 M8.15 21.4 L8.6 21.15 8.65 21.1 M7.05 15.05 L9.85 14.85 9.9 14.85 M23.55 2.5 L23.55 2.55 M33.95 3.1 L34.6 2.1 M49.7 18.9 L43.65 18.8 42.85 18.75 M45.15 24.45 L47.9 27.9 51.5 31.9 M32.1 12.3 L33.7 4.65 33.95 3.1 M34.9 12.6 Q36.35 10.4 37.6 7.3 L38.0 6.2 M26.65 10.35 L26.4 8.8 25.8 7.1 Q24.9 4.55 23.6 2.6 M29.0 1.8 L30.1 7.9 30.7 12.2 M39.1 14.5 L39.5 14.4 40.4 14.15 45.7 13.4 M24.0 12.5 L22.65 10.9 19.35 7.7 M14.55 19.45 L14.2 19.45 M20.15 13.8 L19.8 13.4 Q17.6 10.7 14.7 9.3 M16.55 16.45 Q14.2 15.35 11.5 14.95 M11.3 23.6 Q10.5 23.9 9.5 24.45 7.25 25.65 5.35 27.05 M12.4 27.4 L8.3 30.25 Q6.4 31.9 4.9 33.65" fill="none" stroke="#000000" stroke-linecap="round" stroke-linejoin="miter-clip" stroke-miterlimit="10.0" stroke-opacity="0.24705882" stroke-width="1.0"/>
    <path d="M48.95 23.35 Q47.35 22.8 45.4 21.7" fill="none" stroke="#000000" stroke-linecap="butt" stroke-linejoin="miter-clip" stroke-miterlimit="10.0" stroke-opacity="0.24705882" stroke-width="1.0"/>
  </g>
</svg>
