<?xml version="1.0" encoding="UTF-8" standalone="no"?>
<svg xmlns:xlink="http://www.w3.org/1999/xlink" height="31.75px" width="35.45px" xmlns="http://www.w3.org/2000/svg">
  <g transform="matrix(1.0, 0.0, 0.0, 1.0, 0.5, 1.5)">
    <path d="M7.1 12.65 Q11.4 5.0 17.25 1.45 L13.3 5.35 Q8.75 11.05 5.85 20.0 L4.0 19.6 Q5.0 16.5 7.1 12.65" fill="#ffffff" fill-opacity="0.09803922" fill-rule="evenodd" stroke="none"/>
    <path d="M20.25 0.85 Q23.5 2.1 26.2 4.35 34.8 11.4 34.45 25.15 L33.3 29.55 16.2 28.1 Q5.95 29.15 1.95 27.25 0.7 26.65 0.25 25.85 L0.0 25.15 Q0.25 11.4 8.9 4.35 11.6 2.1 14.8 0.85 16.45 0.2 17.5 0.0 L20.25 0.85 M7.1 12.65 Q5.0 16.5 4.0 19.6 L5.85 20.0 Q8.75 11.05 13.3 5.35 L17.25 1.45 Q11.4 5.0 7.1 12.65" fill="#000000" fill-opacity="0.09803922" fill-rule="evenodd" stroke="none"/>
    <path d="M20.25 0.85 L17.5 0.0 Q16.45 0.2 14.8 0.85 11.6 2.1 8.9 4.35 0.25 11.4 0.0 25.15 L0.25 25.85 Q0.7 26.65 1.95 27.25 5.95 29.15 16.2 28.1 L33.3 29.55 34.45 25.15 Q34.8 11.4 26.2 4.35 23.5 2.1 20.25 0.85 Z" fill="none" stroke="#000000" stroke-linecap="round" stroke-linejoin="miter-clip" stroke-miterlimit="10.0" stroke-width="1.0"/>
  </g>
</svg>
