<?xml version="1.0" encoding="UTF-8" standalone="no"?>
<svg xmlns:xlink="http://www.w3.org/1999/xlink" height="18.1px" width="37.35px" xmlns="http://www.w3.org/2000/svg">
  <g transform="matrix(1.0, 0.0, 0.0, 1.0, 1.95, 0.55)">
    <path d="M23.15 2.75 L16.8 3.05 12.9 2.95 Q7.35 2.55 1.6 1.3 L2.4 0.95 12.2 2.1 12.9 2.15 16.8 2.35 Q25.1 2.55 31.2 1.15 28.3 2.2 23.15 2.75" fill="#ffffff" fill-opacity="0.2" fill-rule="evenodd" stroke="none"/>
    <path d="M34.4 0.2 L34.8 0.45 34.9 9.55 34.9 9.8 Q34.05 11.1 32.6 12.25 30.05 14.15 25.85 15.4 L24.6 15.75 17.45 16.9 15.0 16.65 10.3 15.75 Q5.8 14.6 3.05 12.75 L2.35 12.25 1.95 11.95 1.7 11.75 0.0 9.85 0.0 9.55 0.05 0.45 0.45 0.15 0.65 0.0 Q6.0 1.3 12.9 1.65 L13.35 1.65 16.8 1.75 Q25.25 1.75 34.4 0.2 M23.15 2.75 Q28.3 2.2 31.2 1.15 25.1 2.55 16.8 2.35 L12.9 2.15 12.2 2.1 2.4 0.95 1.6 1.3 Q7.35 2.55 12.9 2.95 L16.8 3.05 23.15 2.75" fill="#ffffff" fill-opacity="0.0" fill-rule="evenodd" stroke="none"/>
    <path d="M34.9 9.55 L34.8 0.45 34.4 0.2 M0.45 0.15 L0.05 0.45 0.0 9.55" fill="none" stroke="#000000" stroke-linecap="round" stroke-linejoin="miter-clip" stroke-miterlimit="10.0" stroke-width="1.0"/>
    <path d="M34.4 0.2 Q25.25 1.75 16.8 1.75 L13.35 1.65 12.9 1.65 Q6.0 1.3 0.65 0.0 L0.45 0.15 M0.0 9.55 L0.0 9.85 1.7 11.75 1.95 11.95 2.35 12.25 3.05 12.75 Q5.8 14.6 10.3 15.75 L15.0 16.65 17.45 16.9 24.6 15.75 25.85 15.4 Q30.05 14.15 32.6 12.25 34.05 11.1 34.9 9.8 L34.9 9.55 Z" fill="none" stroke="#000000" stroke-linecap="round" stroke-linejoin="miter-clip" stroke-miterlimit="10.0" stroke-opacity="0.4" stroke-width="1.0"/>
  </g>
</svg>
