<?xml version="1.0" encoding="UTF-8" standalone="no"?>
<svg xmlns:xlink="http://www.w3.org/1999/xlink" height="19.5px" width="33.1px" xmlns="http://www.w3.org/2000/svg">
  <g transform="matrix(1.0, 0.0, 0.0, 1.0, 0.5, 0.5)">
    <path d="M32.1 0.0 L31.2 5.85 Q29.35 12.5 24.8 16.35 19.9 18.3 16.15 18.5 L15.95 18.5 Q13.6 18.35 10.3 17.35 L7.3 16.35 Q2.75 12.5 0.9 5.85 L0.0 0.0 16.05 18.4 32.1 0.0 M16.05 18.4 L15.95 18.5 16.05 18.4" fill="#000000" fill-opacity="0.09803922" fill-rule="evenodd" stroke="none"/>
    <path d="M32.1 0.0 L31.2 5.85 Q29.35 12.5 24.8 16.35 19.9 18.3 16.15 18.5 L15.95 18.5 Q13.6 18.35 10.3 17.35 L7.3 16.35 Q2.75 12.5 0.9 5.85 L0.0 0.0 M15.95 18.5 L16.05 18.4" fill="none" stroke="#000000" stroke-linecap="round" stroke-linejoin="round" stroke-width="1.0"/>
  </g>
</svg>
