<?xml version="1.0" encoding="UTF-8" standalone="no"?>
<svg xmlns:xlink="http://www.w3.org/1999/xlink" height="50.75px" width="39.0px" xmlns="http://www.w3.org/2000/svg">
  <g transform="matrix(1.0, 0.0, 0.0, 1.0, 0.5, 2.25)">
    <path d="M4.95 46.5 L4.95 46.55 4.85 46.5 3.55 45.85 Q4.1 43.35 4.4 35.85 L4.4 35.25 4.6 26.55 5.65 26.35 4.95 46.5 M2.7 20.1 L5.1 13.1 6.15 12.7 3.9 19.5 4.45 22.9 2.85 23.3 2.7 20.1 M6.95 8.4 L5.35 11.4 Q6.0 7.95 8.5 5.3 L10.85 3.3 Q8.95 5.0 6.95 8.4 M16.6 2.55 L17.7 2.55 18.65 6.05 17.85 6.05 Q17.6 3.75 16.6 2.55" fill="#ffffff" fill-opacity="0.24705882" fill-rule="evenodd" stroke="none"/>
    <path d="M15.0 0.9 L15.0 -1.5 25.0 -1.5 25.0 0.95 26.85 1.45 Q28.05 1.85 29.1 2.5 34.3 5.4 35.75 12.35 L38.0 19.85 38.0 23.7 37.0 24.35 Q36.0 25.25 36.0 26.05 L36.35 35.85 37.0 44.15 37.0 44.3 37.7 46.9 37.5 47.0 21.3 45.9 17.3 45.9 Q14.85 45.85 12.35 45.95 L4.95 46.5 5.65 26.35 4.6 26.55 4.4 35.25 4.4 35.85 Q4.1 43.35 3.55 45.85 L4.85 46.5 2.0 46.7 2.55 44.55 Q2.25 44.35 2.75 35.85 L3.0 31.45 3.0 26.05 Q3.0 25.25 1.5 24.35 L0.0 23.7 0.0 19.85 3.2 12.35 Q5.0 4.0 12.7 1.45 L15.0 0.9 15.0 2.0 16.35 2.0 15.0 2.0 15.0 0.9 M23.8 2.0 L16.35 2.0 23.8 2.0 25.0 2.0 25.0 0.95 25.0 2.0 23.8 2.0 23.65 2.3 Q22.8 4.5 22.65 6.65 22.8 4.5 23.65 2.3 L23.8 2.0 M29.1 2.5 Q26.45 3.65 25.2 6.0 24.6 7.2 24.45 8.2 L15.35 8.2 Q15.2 7.2 14.55 6.0 13.3 3.65 10.75 2.75 13.3 3.65 14.55 6.0 15.2 7.2 15.35 8.2 L24.45 8.2 Q24.6 7.2 25.2 6.0 26.45 3.65 29.1 2.5 M17.5 6.65 L22.65 6.65 17.5 6.65 Q17.35 4.55 16.6 2.55 L16.35 2.0 16.6 2.55 Q17.35 4.55 17.5 6.65 M24.45 8.2 L35.45 12.35 24.45 8.2 M36.0 26.05 Q33.9 25.35 28.2 23.95 L22.85 22.75 Q18.0 22.35 14.55 22.75 12.4 22.95 7.6 24.55 L3.0 26.05 7.6 24.55 Q12.4 22.95 14.55 22.75 18.0 22.35 22.85 22.75 L28.2 23.95 Q33.9 25.35 36.0 26.05 M16.6 2.55 Q17.6 3.75 17.85 6.05 L18.65 6.05 17.7 2.55 16.6 2.55 M6.95 8.4 Q8.95 5.0 10.85 3.3 L8.5 5.3 Q6.0 7.95 5.35 11.4 L6.95 8.4 M2.7 20.1 L2.85 23.3 4.45 22.9 3.9 19.5 6.15 12.7 5.1 13.1 2.7 20.1 M17.3 45.9 L17.2 35.85 17.15 28.15 17.2 35.85 17.3 45.9 M4.3 12.35 L15.35 8.2 4.3 12.35 M21.3 45.9 L21.25 35.85 21.15 27.1 21.25 35.85 21.3 45.9" fill="#ffffff" fill-opacity="0.0" fill-rule="evenodd" stroke="none"/>
    <path d="M25.0 0.95 L26.85 1.45 Q28.05 1.85 29.1 2.5 34.3 5.4 35.75 12.35 L38.0 19.85 38.0 23.7 37.0 24.35 Q36.0 25.25 36.0 26.05 L36.35 35.85 37.0 44.15 37.0 44.3 37.7 46.9 37.5 47.0 21.3 45.9 17.3 45.9 Q14.85 45.85 12.35 45.95 L4.95 46.5 M4.85 46.5 L2.0 46.7 2.55 44.55 Q2.25 44.35 2.75 35.85 L3.0 31.45 3.0 26.05 Q3.0 25.25 1.5 24.35 L0.0 23.7 0.0 19.85 3.2 12.35 Q5.0 4.0 12.7 1.45 L15.0 0.9" fill="none" stroke="#373535" stroke-linecap="round" stroke-linejoin="miter-clip" stroke-miterlimit="10.0" stroke-width="1.0"/>
    <path d="M16.35 2.0 L23.8 2.0 M10.75 2.75 Q13.3 3.65 14.55 6.0 15.2 7.2 15.35 8.2 L24.45 8.2 Q24.6 7.2 25.2 6.0 26.45 3.65 29.1 2.5 M22.65 6.65 L17.5 6.65 M3.0 26.05 L7.6 24.55 Q12.4 22.95 14.55 22.75 18.0 22.35 22.85 22.75 L28.2 23.95 Q33.9 25.35 36.0 26.05 M35.45 12.35 L24.45 8.2 M15.35 8.2 L4.3 12.35 M17.15 28.15 L17.2 35.85 17.3 45.9 M21.15 27.1 L21.25 35.85 21.3 45.9" fill="none" stroke="#000000" stroke-linecap="round" stroke-linejoin="miter-clip" stroke-miterlimit="10.0" stroke-opacity="0.4" stroke-width="1.0"/>
    <path d="M15.0 0.9 L15.0 -1.5 25.0 -1.5 25.0 0.95 25.0 2.0 23.8 2.0 23.65 2.3 Q22.8 4.5 22.65 6.65 M15.0 0.9 L15.0 2.0 16.35 2.0 16.6 2.55 Q17.35 4.55 17.5 6.65" fill="none" stroke="#000000" stroke-linecap="round" stroke-linejoin="miter-clip" stroke-miterlimit="10.0" stroke-width="1.0"/>
  </g>
</svg>
