<?xml version="1.0" encoding="UTF-8" standalone="no"?>
<svg xmlns:xlink="http://www.w3.org/1999/xlink" height="69.55px" width="55.85px" xmlns="http://www.w3.org/2000/svg">
  <g transform="matrix(1.0, 0.0, 0.0, 1.0, 2.25, 0.5)">
    <path d="M38.65 41.5 L39.1 41.8 39.3 41.9 39.9 42.35 41.8 43.95 41.85 44.0 43.45 46.95 45.95 49.0 Q48.5 51.15 48.5 51.55 L48.9 53.6 49.9 54.45 50.2 54.9 50.05 54.8 Q50.5 55.5 50.3 56.4 49.8 60.75 42.45 64.15 34.3 67.9 21.75 68.5 L21.6 68.5 21.45 68.5 20.65 68.55 18.65 68.5 18.25 68.5 17.95 68.45 Q18.5 67.3 19.9 66.55 20.95 66.1 22.35 65.8 26.65 64.9 28.1 63.85 32.0 60.7 34.0 59.4 37.0 57.55 40.15 57.2 L38.65 57.3 36.8 57.35 Q33.85 57.35 33.1 56.4 31.8 54.8 33.25 53.65 L33.4 53.55 Q34.45 52.75 35.9 52.6 L31.1 52.75 Q27.65 52.7 26.6 51.2 27.8 50.1 30.05 49.55 L26.45 47.65 Q23.8 45.95 23.5 45.2 L23.35 44.0 Q23.45 43.0 24.55 42.4 26.0 41.65 27.95 42.0 23.05 40.95 22.2 34.0 L22.15 32.9 Q22.0 30.9 22.1 28.15 L22.4 23.1 22.55 13.25 22.55 12.7 23.4 14.5 22.45 10.75 Q22.05 6.65 20.95 3.6 L20.95 1.55 21.0 1.15 Q21.05 0.25 21.35 0.05 21.45 -0.1 21.8 0.35 L21.7 0.4 Q23.1 4.75 27.25 14.25 31.25 23.3 32.55 27.85 L33.9 32.9 34.35 34.6 Q35.35 38.6 36.4 41.25 L37.1 43.95 37.1 44.0 37.65 46.7 38.95 49.25 Q39.7 50.4 39.8 51.5 L33.5 53.55 33.4 53.55 33.5 53.55 39.8 51.5 39.8 51.7 42.45 51.4 42.55 51.4 38.65 41.5 M42.6 51.8 L42.45 51.4 42.6 51.8 M46.85 53.6 Q43.65 55.4 38.95 57.15 L38.65 57.3 38.95 57.15 Q43.65 55.4 46.85 53.6 M37.0 64.2 Q34.35 65.1 30.2 65.8 L19.9 66.55 30.2 65.8 Q34.35 65.1 37.0 64.2" fill="#ffffff" fill-opacity="0.0" fill-rule="evenodd" stroke="none"/>
    <path d="M21.8 0.35 L23.9 4.55 25.15 7.9 35.2 32.9 35.2 33.0 36.85 37.2 38.45 41.4 42.45 51.4 39.8 51.7 39.8 51.5 Q39.7 50.4 38.95 49.25 L37.65 46.7 37.1 44.0 37.1 43.95 36.4 41.25 Q35.35 38.6 34.35 34.6 L33.9 32.9 32.55 27.85 Q31.25 23.3 27.25 14.25 23.1 4.75 21.7 0.4 L21.8 0.35" fill="#ffffff" fill-opacity="0.4" fill-rule="evenodd" stroke="none"/>
    <path d="M21.05 5.55 L21.0 4.9 20.95 3.6 21.05 5.55" fill="#245968" fill-rule="evenodd" stroke="none"/>
    <path d="M17.65 68.45 L17.45 68.45 17.4 68.45 17.25 68.4 17.1 68.4 16.85 68.4 16.55 68.35 15.5 68.2 Q11.85 67.65 8.35 66.25 L8.05 66.15 7.85 66.05 7.7 66.0 6.25 65.35 Q3.5 64.05 1.45 62.6 L-0.55 60.65 -1.6 57.4 Q-1.95 55.3 -1.5 54.5 L-0.55 53.45 0.7 53.0 3.15 50.55 4.5 50.55 Q6.35 50.1 8.35 48.15 L8.6 47.9 Q9.25 46.9 9.95 44.0 L10.35 41.85 14.9 20.8 19.35 8.75 21.15 6.7 21.05 5.55 20.95 3.6 Q22.05 6.65 22.45 10.75 L21.75 8.05 22.45 10.75 22.55 12.7 22.55 13.25 22.4 23.1 22.1 28.15 Q22.0 30.9 22.15 32.9 L22.2 34.0 Q23.05 40.95 27.95 42.0 26.0 41.65 24.55 42.4 23.45 43.0 23.35 44.0 L23.5 45.2 Q23.8 45.95 26.45 47.65 L30.05 49.55 Q27.8 50.1 26.6 51.2 27.65 52.7 31.1 52.75 L35.9 52.6 Q34.45 52.75 33.4 53.55 L33.25 53.65 Q31.8 54.8 33.1 56.4 33.85 57.35 36.8 57.35 L38.65 57.3 40.15 57.2 Q37.0 57.55 34.0 59.4 32.0 60.7 28.1 63.85 26.65 64.9 22.35 65.8 20.95 66.1 19.9 66.55 L16.15 66.2 Q10.15 65.2 5.15 62.35 3.7 61.55 2.4 60.55 L1.4 59.75 2.4 60.55 Q3.7 61.55 5.15 62.35 10.15 65.2 16.15 66.2 L19.9 66.55 Q18.5 67.3 17.95 68.45 L17.65 68.45 M20.25 9.9 L20.6 9.85 21.3 10.3 22.55 12.7 21.3 10.3 20.6 9.85 20.25 9.9 M12.8 60.6 Q7.15 59.05 5.35 57.9 L2.8 55.65 1.45 54.15 2.8 55.0 6.7 56.95 Q13.55 59.85 21.55 60.25 29.35 60.65 38.65 57.3 29.35 60.65 21.55 60.25 13.55 59.85 6.7 56.95 L2.8 55.0 1.45 54.15 2.8 55.65 5.35 57.9 Q7.15 59.05 12.8 60.6 M33.4 53.55 Q26.25 55.55 21.2 55.3 16.15 55.1 12.4 53.4 L9.65 51.8 Q11.65 52.65 16.55 53.65 L23.4 54.1 26.65 53.8 23.4 54.1 16.55 53.65 Q11.65 52.65 9.65 51.8 L12.4 53.4 Q16.15 55.1 21.2 55.3 26.25 55.55 33.4 53.55 M6.55 54.45 L8.6 47.9 6.55 54.45" fill="#000000" fill-opacity="0.2" fill-rule="evenodd" stroke="none"/>
    <path d="M18.25 68.5 L17.65 68.45 17.95 68.45 18.25 68.5 M17.4 68.45 L17.1 68.4 17.25 68.4 17.4 68.45 M22.45 10.75 L23.4 14.5 22.55 12.7 22.45 10.75" fill="#367d91" fill-rule="evenodd" stroke="none"/>
    <path d="M36.85 37.2 L38.65 41.5 38.45 41.4 38.65 41.5 42.55 51.4 42.45 51.4 38.45 41.4 36.85 37.2" fill="#60a8be" fill-rule="evenodd" stroke="none"/>
    <path d="M38.65 41.5 L39.1 41.8 39.3 41.9 39.9 42.35 41.8 43.95 41.85 44.0 43.45 46.95 45.95 49.0 Q48.5 51.15 48.5 51.55 L48.9 53.6 49.9 54.45 50.2 54.9 50.05 54.8 Q50.5 55.5 50.3 56.4 49.8 60.75 42.45 64.15 34.3 67.9 21.75 68.5 L21.6 68.5 21.45 68.5 20.65 68.55 18.65 68.5 18.25 68.5 17.95 68.45 17.65 68.45 17.45 68.45 17.4 68.45 17.1 68.4 16.85 68.4 16.55 68.35 15.5 68.2 Q11.85 67.65 8.35 66.25 L8.05 66.15 7.85 66.05 7.7 66.0 6.25 65.35 Q3.5 64.05 1.45 62.6 L-0.55 60.65 -1.6 57.4 Q-1.95 55.3 -1.5 54.5 L-0.55 53.45 0.7 53.0 3.15 50.55 4.5 50.55 Q6.35 50.1 8.35 48.15 L8.6 47.9 Q9.25 46.9 9.95 44.0 L10.35 41.85 14.9 20.8 19.35 8.75 21.15 6.7 21.05 5.55 20.95 3.6 20.95 1.55 21.0 1.15 Q21.05 0.25 21.35 0.05 21.45 -0.1 21.8 0.35 L23.9 4.55 25.15 7.9 35.2 32.9 35.2 33.0 36.85 37.2 38.45 41.4 38.65 41.5" fill="none" stroke="#000000" stroke-linecap="round" stroke-linejoin="miter-clip" stroke-miterlimit="10.0" stroke-width="1.0"/>
    <path d="M38.45 41.4 L42.45 51.4 42.6 51.8 M22.45 10.75 L23.4 14.5 22.55 12.7 21.3 10.3 20.6 9.85 20.25 9.9 M33.4 53.55 L33.5 53.55 39.8 51.5 M21.75 8.05 L22.45 10.75 M38.65 57.3 L38.95 57.15 Q43.65 55.4 46.85 53.6 M19.9 66.55 L30.2 65.8 Q34.35 65.1 37.0 64.2 M26.65 53.8 L23.4 54.1 16.55 53.65 Q11.65 52.65 9.65 51.8 L12.4 53.4 Q16.15 55.1 21.2 55.3 26.25 55.55 33.4 53.55 M38.65 57.3 Q29.35 60.65 21.55 60.25 13.55 59.85 6.7 56.95 L2.8 55.0 1.45 54.15 2.8 55.65 5.35 57.9 Q7.15 59.05 12.8 60.6 M1.4 59.75 L2.4 60.55 Q3.7 61.55 5.15 62.35 10.15 65.2 16.15 66.2 L19.9 66.55 M8.6 47.9 L6.55 54.45" fill="none" stroke="#000000" stroke-linecap="round" stroke-linejoin="miter-clip" stroke-miterlimit="10.0" stroke-opacity="0.6" stroke-width="1.0"/>
  </g>
</svg>
