<?xml version="1.0" encoding="UTF-8" standalone="no"?>
<svg xmlns:xlink="http://www.w3.org/1999/xlink" height="42.8px" width="32.5px" xmlns="http://www.w3.org/2000/svg">
  <g transform="matrix(1.0, 0.0, 0.0, 1.0, 1.0, 0.9)">
    <path d="M30.35 11.8 L19.4 19.8 24.0 16.9 Q28.85 13.6 30.35 11.8 M18.85 19.0 L22.55 16.25 29.55 10.85 30.4 11.0 Q31.1 14.95 31.0 15.55 L30.45 15.8 26.25 18.8 Q22.7 21.05 20.05 22.25 L18.85 19.0 M16.5 0.8 L16.9 17.75 17.1 10.95 Q17.1 3.6 16.5 0.8 M13.85 18.6 L12.95 0.75 13.0 0.6 13.4 0.35 15.1 0.1 17.25 0.2 Q17.55 0.45 17.65 10.05 L17.65 18.4 15.35 18.4 13.85 18.6 M11.7 22.5 Q8.7 21.45 4.35 18.6 L0.05 15.6 Q-0.2 15.5 -0.5 15.35 L-0.25 12.85 0.15 10.8 0.95 10.65 Q2.7 12.35 12.95 19.65 L12.9 19.85 12.6 20.3 12.5 20.6 12.45 20.7 11.8 22.3 11.7 22.5 M0.95 12.1 Q2.35 13.95 7.3 17.2 9.7 18.85 11.85 20.1 L0.95 12.1 M7.15 31.55 Q9.7 27.3 11.55 25.1 L8.95 28.0 Q5.8 32.05 4.8 35.8 5.8 33.9 7.15 31.55 M13.3 26.85 Q10.3 29.25 8.2 33.85 6.8 36.9 6.25 39.5 L5.35 39.1 4.15 37.55 3.55 36.65 3.55 35.55 Q5.25 30.95 9.4 26.3 L11.75 23.85 13.3 26.85 M19.7 25.85 Q21.55 28.05 24.05 32.3 L26.45 36.55 Q25.4 32.8 22.25 28.75 L19.7 25.85 M19.15 24.3 L21.65 26.7 Q25.8 31.45 27.0 35.85 L26.9 36.95 25.15 39.4 24.25 39.8 Q23.85 37.2 22.55 34.2 20.6 29.6 17.65 27.15 L19.15 24.3" fill="#ffffff" fill-opacity="0.0" fill-rule="evenodd" stroke="none"/>
    <path d="M30.35 11.8 Q28.85 13.6 24.0 16.9 L19.4 19.8 30.35 11.8 M16.5 0.8 Q17.1 3.6 17.1 10.95 L16.9 17.75 16.5 0.8 M0.95 12.1 L11.85 20.1 Q9.7 18.85 7.3 17.2 2.35 13.95 0.95 12.1 M7.15 31.55 Q5.8 33.9 4.8 35.8 5.8 32.05 8.95 28.0 L11.55 25.1 Q9.7 27.3 7.15 31.55 M19.7 25.85 L22.25 28.75 Q25.4 32.8 26.45 36.55 L24.05 32.3 Q21.55 28.05 19.7 25.85" fill="#ffffff" fill-opacity="0.4" fill-rule="evenodd" stroke="none"/>
    <path d="M18.85 19.0 L22.55 16.25 29.55 10.85 30.4 11.0 Q31.1 14.95 31.0 15.55 L30.45 15.8 26.25 18.8 Q22.7 21.05 20.05 22.25 M13.85 18.6 L12.95 0.75 13.0 0.6 13.4 0.35 15.1 0.1 17.25 0.2 Q17.55 0.45 17.65 10.05 L17.65 18.4 M11.7 22.5 Q8.7 21.45 4.35 18.6 L0.05 15.6 Q-0.2 15.5 -0.5 15.35 L-0.25 12.85 0.15 10.8 0.95 10.65 Q2.7 12.35 12.95 19.65 M11.75 23.85 L9.4 26.3 Q5.25 30.95 3.55 35.55 L3.55 36.65 4.15 37.55 5.35 39.1 6.25 39.5 Q6.8 36.9 8.2 33.85 10.3 29.25 13.3 26.85 M19.15 24.3 L21.65 26.7 Q25.8 31.45 27.0 35.85 L26.9 36.95 25.15 39.4 24.25 39.8 Q23.85 37.2 22.55 34.2 20.6 29.6 17.65 27.15" fill="none" stroke="#000000" stroke-linecap="round" stroke-linejoin="miter-clip" stroke-miterlimit="10.0" stroke-width="1.0"/>
  </g>
</svg>
