<?xml version="1.0" encoding="UTF-8" standalone="no"?>
<svg xmlns:xlink="http://www.w3.org/1999/xlink" height="11.45px" width="40.9px" xmlns="http://www.w3.org/2000/svg">
  <g transform="matrix(1.0, 0.0, 0.0, 1.0, 0.6, 0.45)">
    <path d="M37.1 0.3 L38.45 2.45 38.5 2.5 38.65 2.8 38.95 3.45 39.0 3.45 39.35 4.2 39.7 5.4 39.75 5.6 39.8 6.45 37.8 9.9 37.75 9.95 37.8 9.9 37.85 9.9 37.75 9.95 37.1 10.3 36.9 10.35 34.65 10.3 34.25 10.1 34.2 10.1 34.2 10.05 31.85 6.8 31.85 6.85 31.75 6.75 31.85 5.55 32.75 3.45 Q33.25 2.3 34.05 0.9 L34.15 0.75 34.4 0.35 34.55 0.1 34.6 0.0 34.65 0.05 Q35.25 0.75 36.0 0.75 L37.1 0.3 M39.35 4.2 L39.5 4.7 39.7 5.4 39.5 4.7 39.35 4.2 M33.9 9.9 L34.05 10.0 34.0 10.0 33.95 9.95 33.9 9.95 33.9 9.9 33.95 9.95 34.05 10.0 33.95 9.95 33.9 9.9 M7.65 4.2 L8.0 5.4 8.05 5.6 8.1 6.45 6.1 9.9 5.4 10.3 Q4.2 10.75 2.95 10.3 L2.45 10.05 2.5 10.05 0.15 6.95 0.05 6.95 Q-0.05 6.2 0.15 5.55 L1.05 3.45 2.4 0.9 2.65 0.45 2.9 0.05 2.95 0.0 Q3.5 0.75 4.3 0.75 4.9 0.75 5.4 0.3 L6.8 2.45 6.85 2.55 7.65 4.2 7.8 4.7 8.0 5.4 7.8 4.7 7.65 4.2" fill="#ffffff" fill-opacity="0.0" fill-rule="evenodd" stroke="none"/>
    <path d="M38.95 3.45 L38.65 2.8 38.5 2.5 38.45 2.45 37.1 0.3 M34.55 0.1 L34.4 0.35 34.15 0.75 34.05 0.9 Q33.25 2.3 32.75 3.45 M34.05 10.0 L34.0 10.0 33.95 9.95 33.9 9.95 33.9 9.9 33.95 9.95 34.05 10.0 M37.85 9.9 L37.75 9.95" fill="none" stroke="#000000" stroke-linecap="round" stroke-linejoin="miter-clip" stroke-miterlimit="10.0" stroke-width="1.0"/>
    <path d="M32.75 3.45 L31.85 5.55 31.75 6.75 M34.2 10.05 L34.2 10.1 34.25 10.1 34.65 10.3 36.9 10.35 37.1 10.3 37.75 9.95 37.8 9.9 M39.8 6.45 L39.75 5.6 39.7 5.4 39.5 4.7 39.35 4.2 39.0 3.45 M8.0 5.4 L8.05 5.6 8.1 6.45 M6.1 9.9 L5.4 10.3 Q4.2 10.75 2.95 10.3 L2.45 10.05 M0.15 6.95 L0.05 6.95 Q-0.05 6.2 0.15 5.55 L1.05 3.45 2.4 0.9 2.65 0.45 2.9 0.05 M5.4 0.3 L6.8 2.45 6.85 2.55 7.65 4.2 7.8 4.7 8.0 5.4" fill="none" stroke="#000000" stroke-linecap="round" stroke-linejoin="miter-clip" stroke-miterlimit="4.0" stroke-width="1.0"/>
  </g>
</svg>
