<?xml version="1.0" encoding="UTF-8" standalone="no"?>
<svg xmlns:xlink="http://www.w3.org/1999/xlink" height="58.9px" width="54.3px" xmlns="http://www.w3.org/2000/svg">
  <g transform="matrix(1.0, 0.0, 0.0, 1.0, 0.5, 0.5)">
    <path d="M9.5 5.9 Q13.75 1.3 20.45 0.45 L26.6 0.0 32.75 0.45 Q39.4 1.3 43.65 5.9 45.4 7.75 46.9 12.35 L47.75 14.3 47.9 14.8 48.1 15.55 47.9 14.8 48.05 15.15 50.1 20.05 Q53.25 28.15 53.2 30.6 53.1 33.05 50.75 38.8 L49.05 42.75 48.6 43.65 48.4 44.05 Q46.95 47.4 44.8 49.8 42.75 52.05 40.2 53.7 32.2 53.35 23.0 50.0 17.75 48.1 14.85 42.75 13.0 39.4 12.05 34.65 11.15 30.25 10.95 24.2 L10.95 15.55 10.95 14.85 Q10.95 8.15 13.25 4.3 14.05 3.0 14.9 2.3 L9.5 5.9 M48.95 42.75 L48.4 44.05 48.95 42.75 50.1 39.7 Q51.25 35.2 51.25 30.7 51.25 26.7 50.0 23.55 L49.15 21.7 48.1 15.55 49.15 21.7 50.0 23.55 Q51.25 26.7 51.25 30.7 51.25 35.2 50.1 39.7 L48.95 42.75 M5.25 14.85 L5.1 15.55 4.0 21.7 3.15 23.55 Q1.9 26.8 1.9 30.7 1.9 35.15 3.1 39.7 L4.25 42.75 4.5 43.45 4.2 42.75 2.45 38.8 Q0.05 33.05 0.0 30.6 -0.1 28.15 3.1 20.05 L5.25 14.85" fill="#ffffff" fill-opacity="0.0" fill-rule="evenodd" stroke="none"/>
    <path d="M47.9 14.8 L47.75 14.3 47.9 14.75 48.05 15.15 47.9 14.8 47.9 14.75 47.9 14.8" fill="#ffffff" fill-rule="evenodd" stroke="none"/>
    <path d="M9.5 5.9 L14.9 2.3 Q14.05 3.0 13.25 4.3 10.95 8.15 10.95 14.85 L10.95 15.55 10.95 24.2 Q11.15 30.25 12.05 34.65 13.0 39.4 14.85 42.75 17.75 48.1 23.0 50.0 32.2 53.35 40.2 53.7 38.15 55.05 35.85 56.0 L35.75 56.05 Q31.3 57.8 26.8 57.9 L26.4 57.9 Q21.9 57.8 17.45 56.05 12.1 53.9 8.4 49.8 6.2 47.4 4.8 44.05 L4.7 43.9 4.6 43.65 4.5 43.45 4.25 42.75 3.1 39.7 Q1.9 35.15 1.9 30.7 1.9 26.8 3.15 23.55 L4.0 21.7 5.1 15.55 5.25 14.85 6.25 12.35 Q7.75 7.8 9.5 5.9" fill="#000000" fill-opacity="0.2" fill-rule="evenodd" stroke="none"/>
    <path d="M47.75 14.3 L46.9 12.35 Q45.4 7.75 43.65 5.9 39.4 1.3 32.75 0.45 L26.6 0.0 20.45 0.45 Q13.75 1.3 9.5 5.9 7.75 7.8 6.25 12.35 L5.25 14.85 3.1 20.05 Q-0.1 28.15 0.0 30.6 0.05 33.05 2.45 38.8 L4.2 42.75 4.5 43.45 4.6 43.65 M40.2 53.7 Q42.75 52.05 44.8 49.8 46.95 47.4 48.4 44.05 L48.6 43.65 49.05 42.75 50.75 38.8 Q53.1 33.05 53.2 30.6 53.25 28.15 50.1 20.05 L48.05 15.15 47.9 14.8 47.75 14.3 47.9 14.75 48.05 15.15 M4.8 44.05 Q6.2 47.4 8.4 49.8 12.1 53.9 17.45 56.05 21.9 57.8 26.4 57.9 L26.8 57.9 Q31.3 57.8 35.75 56.05 L35.85 56.0 Q38.15 55.05 40.2 53.7" fill="none" stroke="#000000" stroke-linecap="round" stroke-linejoin="miter-clip" stroke-miterlimit="10.0" stroke-width="1.0"/>
    <path d="M48.4 44.05 L48.95 42.75 M48.1 15.55 L47.9 14.8 47.9 14.75 M5.25 14.85 L5.1 15.55 M4.25 42.75 L4.5 43.45 M4.6 43.65 L4.7 43.9 4.8 44.05" fill="none" stroke="#000000" stroke-linecap="round" stroke-linejoin="round" stroke-width="1.0"/>
    <path d="M48.95 42.75 L50.1 39.7 Q51.25 35.2 51.25 30.7 51.25 26.7 50.0 23.55 L49.15 21.7 48.1 15.55 M5.1 15.55 L4.0 21.7 3.15 23.55 Q1.9 26.8 1.9 30.7 1.9 35.15 3.1 39.7 L4.25 42.75" fill="none" stroke="#000000" stroke-linecap="round" stroke-linejoin="round" stroke-opacity="0.6" stroke-width="1.0"/>
  </g>
</svg>
