<?xml version="1.0" encoding="UTF-8" standalone="no"?>
<svg xmlns:xlink="http://www.w3.org/1999/xlink" height="7.95px" width="33.45px" xmlns="http://www.w3.org/2000/svg">
  <g transform="matrix(1.0, 0.0, 0.0, 1.0, 1.55, 0.35)">
    <path d="M30.55 2.75 L30.15 4.7 29.75 6.6 29.65 6.85 Q24.75 5.5 12.0 5.8 L0.5 6.4 0.05 4.6 -0.25 2.75 19.35 1.85 30.55 2.75 M6.9 2.7 Q11.7 2.5 18.65 2.75 L28.7 3.25 10.85 2.4 6.9 2.7" fill="#000000" fill-opacity="0.4" fill-rule="evenodd" stroke="none"/>
    <path d="M6.9 2.7 L10.85 2.4 28.7 3.25 18.65 2.75 Q11.7 2.5 6.9 2.7" fill="#ffffff" fill-opacity="0.0" fill-rule="evenodd" stroke="none"/>
    <path d="M30.55 2.75 L19.35 1.85 -0.25 2.75 M0.5 6.4 L12.0 5.8 Q24.75 5.5 29.65 6.85 L29.75 6.6" fill="none" stroke="#000000" stroke-linecap="round" stroke-linejoin="miter-clip" stroke-miterlimit="10.0" stroke-width="1.0"/>
    <path d="M29.75 6.6 L30.15 4.7 30.55 2.75 M-0.25 2.75 L0.05 4.6 0.5 6.4" fill="none" stroke="#000000" stroke-linecap="round" stroke-linejoin="miter-clip" stroke-miterlimit="10.0" stroke-opacity="0.6" stroke-width="1.0"/>
  </g>
</svg>
