<?xml version="1.0" encoding="UTF-8" standalone="no"?>
<svg xmlns:xlink="http://www.w3.org/1999/xlink" height="17.35px" width="39.05px" xmlns="http://www.w3.org/2000/svg">
  <g transform="matrix(1.0, 0.0, 0.0, 1.0, 0.85, 2.95)">
    <path d="M35.8 1.75 L35.6 2.15 35.55 2.15 35.4 2.15 34.7 2.0 32.2 1.95 31.65 1.95 31.35 2.0 30.5 2.1 30.2 2.15 29.85 2.25 Q25.5 3.15 21.65 6.35 L19.75 5.7 19.85 5.6 21.3 4.2 21.5 4.0 21.55 4.0 21.9 3.7 22.05 3.6 22.3 3.4 22.4 3.3 22.55 3.25 22.8 3.05 22.9 3.0 23.15 2.8 23.2 2.8 23.4 2.65 23.5 2.6 24.05 2.25 25.0 1.75 25.5 1.55 25.55 1.5 25.65 1.45 26.6 1.1 Q29.1 0.15 31.95 0.05 L32.8 0.0 36.45 0.25 36.2 0.8 35.8 1.75 M33.55 6.95 L37.05 7.65 35.95 9.05 35.9 9.05 31.55 8.8 Q26.45 9.15 22.7 11.95 L22.65 11.9 22.8 11.4 23.3 9.2 23.4 9.2 23.4 9.15 23.45 9.15 Q24.55 8.5 25.75 8.0 29.55 6.55 33.55 6.95 M15.15 6.2 L12.4 4.3 11.5 3.8 Q9.7 2.9 6.85 2.15 L4.7 1.9 4.35 1.9 1.8 2.1 1.6 2.15 1.5 2.15 1.45 2.15 1.25 1.75 0.6 0.25 4.35 0.0 Q8.8 0.05 12.4 1.9 L14.65 3.3 17.1 5.5 15.15 6.2 M3.5 6.95 L4.35 6.9 Q7.9 6.7 11.3 8.0 L12.4 8.5 13.0 8.75 13.0 8.95 12.95 8.95 13.2 11.2 12.4 10.75 Q9.35 9.05 5.45 8.8 L4.35 8.8 2.35 8.9 1.1 9.05 1.05 9.05 0.0 7.65 3.5 6.95" fill="#ffffff" fill-opacity="0.0" fill-rule="evenodd" stroke="none"/>
    <path d="M35.55 2.15 L35.6 2.15 35.8 1.75 33.6 6.8 33.55 6.95 Q29.55 6.55 25.75 8.0 24.55 8.5 23.45 9.15 L23.4 9.15 23.4 9.2 23.3 9.2 23.3 9.15 23.4 8.7 21.9 8.7 21.95 6.45 21.65 6.35 Q25.5 3.15 29.85 2.25 L30.2 2.15 30.5 2.1 31.05 2.05 31.35 2.0 31.65 1.95 32.2 1.95 33.85 1.95 34.7 2.0 35.4 2.15 35.55 2.15 M35.95 9.05 L32.15 13.9 24.45 12.6 22.55 12.45 22.65 11.9 22.7 11.95 Q26.45 9.15 31.55 8.8 L35.9 9.05 35.95 9.05 M4.35 1.9 L4.7 1.9 6.85 2.15 Q9.7 2.9 11.5 3.8 L12.4 4.3 15.15 6.2 14.3 6.5 14.35 6.65 14.5 8.7 12.95 8.7 13.0 8.75 12.4 8.5 11.3 8.0 Q7.9 6.7 4.35 6.9 L3.5 6.95 1.45 2.15 1.5 2.15 1.6 2.15 1.8 2.1 2.85 1.95 4.35 1.9 M13.2 11.2 L12.95 8.95 13.0 8.95 13.4 12.5 13.3 12.5 12.4 12.6 4.9 13.9 1.05 9.05 1.1 9.05 2.35 8.9 4.35 8.8 5.45 8.8 Q9.35 9.05 12.4 10.75 L13.2 11.2" fill="#000000" fill-opacity="0.4" fill-rule="evenodd" stroke="none"/>
    <path d="M32.2 1.95 L34.7 2.0 33.85 1.95 32.2 1.95" fill="#59460e" fill-rule="evenodd" stroke="none"/>
    <path d="M30.5 2.1 L31.35 2.0 31.05 2.05 30.5 2.1 M22.65 11.9 L22.65 11.85 22.8 11.4 22.65 11.9 M4.35 1.9 L2.85 1.95 1.8 2.1 4.35 1.9" fill="#bd845b" fill-rule="evenodd" stroke="none"/>
    <path d="M36.2 0.8 L36.45 0.25 M25.55 1.5 L25.5 1.55 25.0 1.75 24.05 2.25 23.5 2.6 23.4 2.65 23.2 2.8 23.15 2.8" fill="none" stroke="#000000" stroke-linecap="round" stroke-linejoin="miter-clip" stroke-miterlimit="4.0" stroke-width="1.0"/>
    <path d="M35.55 2.15 L35.6 2.15 35.8 1.75 33.6 6.8 M36.45 0.25 L32.8 0.0 31.95 0.05 Q29.1 0.15 26.6 1.1 L25.65 1.45 25.55 1.5 M23.15 2.8 L22.9 3.0 22.8 3.05 22.55 3.25 22.4 3.3 22.3 3.4 22.05 3.6 21.9 3.7 21.55 4.0 21.5 4.0 21.3 4.2 19.85 5.6 M33.55 6.95 L37.05 7.65 35.95 9.05 32.15 13.9 M1.45 2.15 L3.5 6.95 0.0 7.65 1.05 9.05 4.9 13.9 M17.1 5.5 L14.65 3.3 12.4 1.9 Q8.8 0.05 4.35 0.0 L0.6 0.25 M1.25 1.75 L1.45 2.15" fill="none" stroke="#000000" stroke-linecap="round" stroke-linejoin="miter-clip" stroke-miterlimit="10.0" stroke-width="1.0"/>
    <path d="M35.8 1.75 L36.2 0.8 M0.6 0.25 L1.25 1.75" fill="none" stroke="#000000" stroke-linecap="round" stroke-linejoin="miter-clip" stroke-miterlimit="4.0" stroke-opacity="0.6" stroke-width="1.0"/>
    <path d="M21.65 6.35 Q25.5 3.15 29.85 2.25 L30.2 2.15 M30.5 2.1 L31.35 2.0 31.65 1.95 32.2 1.95 M34.7 2.0 L35.4 2.15 35.55 2.15 M34.7 2.0 L33.85 1.95 M22.7 11.95 Q26.45 9.15 31.55 8.8 L35.9 9.05 M15.15 6.2 L12.4 4.3 11.5 3.8 Q9.7 2.9 6.85 2.15 L4.7 1.9 4.35 1.9 1.8 2.1 M1.6 2.15 L1.5 2.15 M13.2 11.2 L12.4 10.75 Q9.35 9.05 5.45 8.8 L4.35 8.8 2.35 8.9 1.1 9.05" fill="none" stroke="#000000" stroke-linecap="round" stroke-linejoin="round" stroke-opacity="0.6" stroke-width="1.0"/>
    <path d="M19.85 5.6 L19.75 5.7 M30.2 2.15 L30.5 2.1 31.05 2.05 31.35 2.0 M33.85 1.95 L32.2 1.95 M35.9 9.05 L35.95 9.05 M23.45 9.15 Q24.55 8.5 25.75 8.0 29.55 6.55 33.55 6.95 M22.65 11.9 L22.7 11.95 M22.8 11.4 L22.65 11.9 M4.35 1.9 L2.85 1.95 1.8 2.1 1.6 2.15 M1.5 2.15 L1.45 2.15 M3.5 6.95 L4.35 6.9 Q7.9 6.7 11.3 8.0 L12.4 8.5 13.0 8.75 M1.1 9.05 L1.05 9.05" fill="none" stroke="#000000" stroke-linecap="round" stroke-linejoin="miter-clip" stroke-miterlimit="10.0" stroke-opacity="0.6" stroke-width="1.0"/>
  </g>
</svg>
