<?xml version="1.0" encoding="UTF-8" standalone="no"?>
<svg xmlns:xlink="http://www.w3.org/1999/xlink" height="49.9px" width="51.3px" xmlns="http://www.w3.org/2000/svg">
  <g transform="matrix(1.0, 0.0, 0.0, 1.0, 1.7, 2.55)">
    <path d="M27.85 8.5 L26.85 6.3 26.4 5.6 25.8 4.65 24.5 3.1 22.6 1.45 Q20.8 0.15 18.4 -0.7 L14.15 -1.55 14.95 -1.65 20.0 -0.7 23.1 0.75 23.35 0.9 23.75 1.1 23.8 1.15 24.25 1.5 25.0 2.0 25.2 2.25 26.1 3.1 27.05 4.25 27.35 4.65 27.95 5.65 28.4 6.35 28.05 7.9 27.85 8.5 28.05 7.9 28.4 6.35 28.45 6.45 28.6 6.75 29.6 8.95 29.95 9.85 30.35 10.95 31.15 13.75 31.1 15.05 31.0 17.25 31.0 17.8 30.95 18.4 31.0 18.4 30.95 18.65 31.0 18.65 31.05 30.3 30.4 31.65 29.7 32.7 28.4 34.4 28.35 34.8 Q27.9 36.85 27.15 38.4 25.95 41.05 22.8 43.35 L19.85 45.05 19.9 44.95 19.85 45.0 19.25 45.2 16.35 46.0 16.05 46.05 15.4 46.05 14.35 46.05 14.1 46.05 Q16.25 45.85 18.3 45.0 L18.35 44.95 18.3 45.1 21.2 43.4 Q24.35 41.1 25.55 38.55 26.4 36.65 26.85 34.55 L28.35 32.4 28.75 31.85 29.45 30.45 29.55 13.75 28.75 10.95 28.45 10.05 28.35 9.75 27.85 8.5 M28.35 34.8 L28.35 32.4 28.35 34.8" fill="#ffffff" fill-opacity="0.4" fill-rule="evenodd" stroke="none"/>
    <path d="M14.15 -1.55 L18.4 -0.7 Q20.8 0.15 22.6 1.45 L24.5 3.1 25.8 4.65 26.4 5.6 26.85 6.3 27.85 8.5 Q27.25 9.9 26.3 10.9 L26.3 10.95 27.6 20.2 Q28.5 28.1 28.35 32.4 28.5 28.1 27.6 20.2 L26.3 10.95 26.3 10.9 Q27.25 9.9 27.85 8.5 L28.35 9.75 28.45 10.05 28.75 10.95 29.55 13.75 29.45 30.45 28.75 31.85 28.35 32.4 26.85 34.55 Q26.4 36.65 25.55 38.55 24.35 41.1 21.2 43.4 L18.3 45.1 18.35 44.95 18.3 45.0 Q16.25 45.85 14.1 46.05 L13.15 45.9 Q10.3 44.15 9.2 40.2 8.75 38.3 8.15 31.5 7.65 26.6 7.4 18.6 L7.2 11.55 Q5.1 6.75 6.7 2.9 7.15 1.65 8.0 0.65 L8.65 -0.05 8.5 -0.15 9.9 -0.7 14.15 -1.55" fill="#ffffff" fill-opacity="0.0" fill-rule="evenodd" stroke="none"/>
    <path d="M29.7 32.7 L30.4 31.65 31.05 30.3 31.05 30.45 30.4 31.7 29.7 32.7 M31.0 18.4 L30.95 18.4 31.0 17.8 31.0 18.4" fill="#ab82b7" fill-rule="evenodd" stroke="none"/>
    <path d="M8.5 -0.15 L8.65 -0.05 8.0 0.65 Q7.15 1.65 6.7 2.9 5.1 6.75 7.2 11.55 L7.4 18.6 Q7.65 26.6 8.15 31.5 8.75 38.3 9.2 40.2 10.3 44.15 13.15 45.9 L12.95 45.9 12.9 45.85 10.15 45.0 Q8.8 44.35 7.2 43.3 4.05 40.95 2.85 38.35 2.1 36.65 1.65 34.4 L0.35 32.5 Q-0.9 30.55 -0.95 30.0 L-0.8 17.95 -0.9 17.95 -1.2 13.35 0.0 9.65 Q0.7 7.75 1.55 6.25 L1.7 5.95 2.0 5.6 3.8 3.1 5.7 1.45 Q7.05 0.45 8.5 -0.15 M2.05 34.75 Q1.45 30.45 2.65 20.2 L3.9 10.9 Q2.7 9.7 2.1 7.65 L1.7 5.95 2.1 7.65 Q2.7 9.7 3.9 10.9 L2.65 20.2 Q1.45 30.45 2.05 34.75" fill="#000000" fill-opacity="0.2" fill-rule="evenodd" stroke="none"/>
    <path d="M10.15 45.0 L12.9 45.85 12.95 45.9 10.95 45.4 10.15 45.0" fill="#6a3d7d" fill-rule="evenodd" stroke="none"/>
    <path d="M27.35 4.65 L27.05 4.25 26.1 3.1 25.2 2.25 25.0 2.0 24.25 1.45 23.8 1.15 23.75 1.1 23.35 0.9 23.1 0.75 20.0 -0.7 14.95 -1.65 14.15 -1.55 9.9 -0.7 8.5 -0.15 Q7.05 0.45 5.7 1.45 L3.8 3.1 2.0 5.6 1.7 5.95 1.55 6.25 Q0.7 7.75 0.0 9.65 L-1.2 13.35 -0.9 17.95 -0.8 17.95 -0.95 30.0 Q-0.9 30.55 0.35 32.5 L1.65 34.4 Q2.1 36.65 2.85 38.35 4.05 40.95 7.2 43.3 8.8 44.35 10.15 45.0 L12.9 45.85 12.95 45.9 13.15 45.9 14.1 46.05 14.35 46.05 15.4 46.05 16.05 46.05 16.35 46.0 19.25 45.2 19.85 45.0 19.9 44.95 19.85 45.05 22.8 43.35 Q25.95 41.05 27.15 38.4 27.9 36.85 28.35 34.8 L28.4 34.4 29.7 32.7 30.4 31.65 31.05 30.3 31.0 18.65 31.0 18.4 30.95 18.4 31.0 17.8 31.0 17.25 31.1 15.05 31.15 13.75 31.15 13.65 30.4 10.95 29.95 9.8 29.6 8.95 28.6 6.75 28.45 6.45 M28.4 6.35 L27.95 5.6 27.35 4.65" fill="none" stroke="#000000" stroke-linecap="round" stroke-linejoin="miter-clip" stroke-miterlimit="10.0" stroke-width="1.0"/>
    <path d="M27.85 8.5 L28.05 7.9 28.4 6.35 28.45 6.45 M28.35 32.4 Q28.5 28.1 27.6 20.2 L26.3 10.95 26.3 10.9 Q27.25 9.9 27.85 8.5 M28.35 32.4 L28.35 34.8 M1.7 5.95 L2.1 7.65 Q2.7 9.7 3.9 10.9 L2.65 20.2 Q1.45 30.45 2.05 34.75" fill="none" stroke="#000000" stroke-linecap="round" stroke-linejoin="miter-clip" stroke-miterlimit="10.0" stroke-opacity="0.6" stroke-width="1.0"/>
  </g>
</svg>
