<?xml version="1.0" encoding="UTF-8" standalone="no"?>
<svg xmlns:xlink="http://www.w3.org/1999/xlink" height="28.15px" width="36.75px" xmlns="http://www.w3.org/2000/svg">
  <g transform="matrix(1.0, 0.0, 0.0, 1.0, 2.0, -2.5)">
    <path d="M21.3 3.45 L21.45 3.8 21.85 4.35 22.0 4.4 22.0 4.45 Q22.6 7.5 23.05 13.5 L23.15 14.85 23.25 17.15 23.4 20.2 22.0 16.65 20.6 3.25 20.55 3.0 Q20.9 3.05 21.3 3.45 M22.95 4.7 L23.3 4.85 Q28.8 7.55 31.8 15.15 L31.8 15.2 31.9 15.4 32.0 15.65 32.55 17.15 32.9 18.2 Q33.7 21.0 34.0 23.55 L34.05 24.05 34.0 24.1 33.95 24.15 32.4 25.7 31.15 26.8 Q30.05 27.6 29.15 27.85 L27.65 28.1 24.75 28.3 24.0 28.2 22.95 28.0 29.05 27.0 Q30.4 26.6 31.25 25.8 L31.75 25.05 30.0 24.9 Q29.4 17.1 26.05 10.15 L23.85 6.15 22.95 4.85 22.9 4.8 22.85 4.75 22.95 4.7" fill="#ffffff" fill-opacity="0.4" fill-rule="evenodd" stroke="none"/>
    <path d="M23.4 20.2 L23.25 17.15 23.15 14.85 23.45 20.35 23.4 20.2 M31.8 15.2 L31.9 15.35 32.2 16.1 32.55 17.15 32.0 15.65 31.9 15.4 31.8 15.2 M24.75 28.3 L27.65 28.1 26.65 28.25 24.75 28.3" fill="#fefd67" fill-rule="evenodd" stroke="none"/>
    <path d="M20.55 3.0 L20.6 3.25 22.0 16.65 23.4 20.2 23.45 20.35 23.15 14.85 23.05 13.5 Q22.6 7.5 22.0 4.45 L22.0 4.4 22.1 4.45 22.9 4.8 22.95 4.85 23.85 6.15 26.05 10.15 Q29.4 17.1 30.0 24.9 L31.75 25.05 31.25 25.8 Q30.4 26.6 29.05 27.0 L22.95 28.0 24.0 28.2 24.75 28.3 22.3 28.35 17.1 28.35 14.95 28.4 17.1 28.35 22.3 28.35 24.75 28.3 26.65 28.25 27.65 28.1 29.15 27.85 Q30.05 27.6 31.15 26.8 L32.4 25.7 33.95 24.15 34.0 24.1 34.05 24.05 34.15 24.15 Q34.4 24.45 34.0 25.2 L32.95 26.6 Q31.4 28.35 29.9 29.15 L29.5 29.35 28.7 29.6 23.15 30.05 18.55 30.1 17.1 30.05 15.3 30.1 14.95 28.4 14.95 28.25 13.25 28.2 Q11.25 28.05 9.75 27.35 L7.4 26.55 12.35 26.55 12.35 26.2 13.7 3.1 Q13.3 3.1 12.8 3.7 L12.35 4.25 12.5 4.05 12.8 3.65 Q13.3 3.0 13.75 3.0 L20.55 3.0 M23.55 25.8 L23.4 20.2 23.55 25.8 M31.75 25.05 L27.0 25.75 17.45 26.25 17.15 26.25 16.8 26.25 12.35 26.2 16.8 26.25 17.15 26.25 17.45 26.25 27.0 25.75 31.75 25.05" fill="#ffffff" fill-opacity="0.0" fill-rule="evenodd" stroke="none"/>
    <path d="M15.3 30.1 L15.05 30.1 11.6 30.1 11.05 30.1 10.6 30.1 9.95 30.1 6.4 29.8 6.35 29.8 5.5 29.7 5.3 29.65 5.2 29.6 5.15 29.6 5.1 29.6 4.75 29.4 4.25 29.15 2.7 28.05 2.4 27.8 2.2 27.6 1.3 26.7 1.2 26.55 1.1 26.45 1.0 26.4 0.95 26.3 0.9 26.25 0.65 25.95 0.5 25.7 0.35 25.5 0.3 25.4 0.3 25.35 0.2 25.2 0.15 25.05 0.1 25.0 0.05 24.9 0.0 24.9 0.0 24.65 0.0 24.6 0.0 24.55 0.15 24.25 0.2 24.2 0.25 24.1 0.3 23.55 Q0.65 20.05 2.05 16.3 L2.2 16.0 2.2 15.85 2.25 15.75 Q4.45 9.85 8.1 6.8 9.85 5.3 11.95 4.45 L12.3 4.3 12.35 4.25 12.8 3.7 Q13.3 3.1 13.7 3.1 L12.35 26.2 12.35 26.55 7.4 26.55 9.75 27.35 Q11.25 28.05 13.25 28.2 L14.95 28.25 14.95 28.4 5.05 27.85 Q3.7 27.45 1.85 25.7 L0.4 24.25 1.85 25.7 Q3.7 27.45 5.05 27.85 L14.95 28.4 15.3 30.1 M12.3 4.3 L12.3 4.45 12.3 4.3 M0.4 24.25 L0.25 24.1 0.4 24.25 M12.3 4.45 Q11.45 8.3 10.95 17.2 L10.65 26.1 12.35 26.2 10.65 26.1 7.25 25.75 2.4 25.05 7.25 25.75 10.65 26.1 10.95 17.2 Q11.45 8.3 12.3 4.45" fill="#000000" fill-opacity="0.2" fill-rule="evenodd" stroke="none"/>
    <path d="M5.1 29.6 L4.75 29.45 4.15 29.15 2.7 28.1 2.4 27.8 2.7 28.05 4.25 29.15 4.75 29.4 5.1 29.6 M0.2 25.2 L0.1 25.05 0.1 25.0 0.05 24.95 0.05 24.9 0.1 25.0 0.15 25.05 0.2 25.2" fill="#fde033" fill-rule="evenodd" stroke="none"/>
    <path d="M23.4 20.2 L23.25 17.15 23.15 14.85 23.05 13.5 Q22.6 7.5 22.0 4.45 L22.0 4.4 M31.8 15.15 L31.8 15.2 31.9 15.4 M34.05 24.05 L34.15 24.15 Q34.4 24.45 34.0 25.2 L32.95 26.6 Q31.4 28.35 29.9 29.15 L29.5 29.35 28.7 29.6 23.15 30.05 18.55 30.1 17.1 30.05 15.3 30.1 15.05 30.1 11.6 30.1 11.05 30.1 10.6 30.1 9.95 30.1 6.4 29.8 6.35 29.8 5.5 29.7 5.3 29.65 5.2 29.6 5.15 29.6 5.1 29.6 4.75 29.4 4.25 29.15 2.7 28.05 2.4 27.8 2.2 27.6 1.3 26.7 1.2 26.55 1.1 26.45 1.0 26.4 0.95 26.3 0.9 26.25 0.65 25.95 0.5 25.7 0.35 25.5 0.3 25.4 0.3 25.35 0.2 25.2 0.15 25.05 0.1 25.0 0.05 24.9 M0.0 24.9 L0.0 24.65 M24.75 28.3 L27.65 28.1 29.15 27.85 Q30.05 27.6 31.15 26.8 L32.4 25.7 33.95 24.15 34.0 24.1 M23.4 20.2 L23.55 25.8 M12.35 26.2 L16.8 26.25 17.15 26.25 17.45 26.25 27.0 25.75 31.75 25.05 M0.4 24.25 L1.85 25.7 Q3.7 27.45 5.05 27.85 L14.95 28.4 17.1 28.35 22.3 28.35 24.75 28.3 M12.35 26.2 L10.65 26.1 7.25 25.75 2.4 25.05 M10.65 26.1 L10.95 17.2 Q11.45 8.3 12.3 4.45" fill="none" stroke="#000000" stroke-linecap="round" stroke-linejoin="miter-clip" stroke-miterlimit="10.0" stroke-opacity="0.6" stroke-width="1.0"/>
    <path d="M21.3 3.45 Q20.9 3.05 20.55 3.0 L13.75 3.0 Q13.3 3.0 12.8 3.65 L12.5 4.05 12.3 4.25 12.35 4.25 12.5 4.05 M22.0 4.4 L21.95 4.3 21.85 4.25 21.75 4.05 21.3 3.45 M21.75 4.05 L21.95 4.3 22.1 4.35 22.4 4.45 22.95 4.7 23.3 4.85 Q28.8 7.55 31.8 15.15 M32.55 17.15 L32.9 18.2 Q33.7 21.0 34.0 23.55 L34.05 24.05 34.0 24.1 M0.0 24.6 L0.0 24.55 0.15 24.25 0.2 24.2 0.25 24.1 0.3 23.55 Q0.65 20.05 2.05 16.3 L2.2 16.0 2.2 15.85 2.25 15.7 Q4.45 9.8 8.1 6.75 9.8 5.3 11.8 4.45 L12.3 4.25 12.3 4.3 12.3 4.45 M31.9 15.4 L32.0 15.65 32.55 17.15 M0.25 24.1 L0.4 24.25" fill="none" stroke="#000000" stroke-linecap="round" stroke-linejoin="miter-clip" stroke-miterlimit="10.0" stroke-width="1.0"/>
  </g>
</svg>
