<?xml version="1.0" encoding="UTF-8" standalone="no"?>
<svg xmlns:xlink="http://www.w3.org/1999/xlink" height="29.5px" width="40.75px" xmlns="http://www.w3.org/2000/svg">
  <g transform="matrix(1.0, 0.0, 0.0, 1.0, 0.5, 0.5)">
    <path d="M31.2 6.05 L30.75 5.7 29.8 4.2 30.55 4.7 31.15 5.2 31.8 5.4 32.85 5.75 33.55 6.65 33.75 7.35 34.7 7.0 36.0 7.9 37.35 9.1 37.45 12.7 37.35 15.8 36.1 17.15 35.75 21.4 34.5 24.5 34.7 25.15 34.85 26.1 33.95 26.85 33.15 27.35 32.7 27.35 32.2 27.4 31.95 27.4 32.9 24.5 33.45 22.1 33.9 19.55 35.65 14.25 Q36.8 11.05 36.6 8.75 L34.9 8.6 33.45 7.9 Q33.15 7.15 32.2 6.65 L31.2 6.05 31.2 5.55 31.2 6.05" fill="#ffffff" fill-opacity="0.2" fill-rule="evenodd" stroke="none"/>
    <path d="M30.55 4.7 L29.8 4.2 30.75 5.7 31.2 6.05 32.2 6.65 Q33.15 7.15 33.45 7.9 L34.9 8.6 36.6 8.75 Q36.8 11.05 35.65 14.25 L33.9 19.55 33.45 22.1 32.9 24.5 31.95 27.4 31.4 27.45 29.2 27.55 28.65 27.6 28.35 27.65 28.2 27.65 27.95 27.65 27.9 27.65 27.85 27.65 18.55 28.2 12.05 28.0 Q12.4 25.0 12.0 23.45 L11.95 23.35 Q11.35 21.1 8.95 20.8 8.45 19.5 8.7 17.9 10.2 18.05 10.85 16.9 10.15 16.6 9.3 15.45 8.45 14.4 7.7 14.1 L7.45 10.75 Q7.35 8.65 7.65 7.45 7.9 6.55 9.0 5.05 L10.45 2.55 Q13.5 1.0 16.9 0.25 L18.2 0.05 18.5 0.05 19.75 0.15 Q24.4 1.05 28.25 3.3 L30.55 4.7 M31.2 6.05 Q31.1 11.8 30.6 16.35 30.3 19.2 29.05 23.85 L28.0 27.45 27.95 27.5 27.9 27.65 27.95 27.5 28.0 27.45 29.05 23.85 Q30.3 19.2 30.6 16.35 31.1 11.8 31.2 6.05" fill="#ffffff" fill-opacity="0.0" fill-rule="evenodd" stroke="none"/>
    <path d="M12.05 28.0 L9.25 27.75 8.95 27.75 8.85 27.7 7.9 27.6 7.45 27.55 6.8 27.5 5.35 27.35 4.4 27.25 3.6 26.75 2.7 26.05 2.85 25.1 3.05 24.45 1.8 21.45 1.35 17.3 0.2 16.0 0.05 13.0 0.05 9.5 1.35 8.35 2.55 7.4 3.45 7.7 3.7 7.05 4.25 6.15 5.3 5.8 5.95 5.55 Q6.85 4.6 8.65 3.6 L10.45 2.55 9.0 5.05 Q7.9 6.55 7.65 7.45 7.35 8.65 7.45 10.75 L7.7 14.1 Q8.45 14.4 9.3 15.45 10.15 16.6 10.85 16.9 10.2 18.05 8.7 17.9 8.45 19.5 8.95 20.8 11.35 21.1 11.95 23.35 L12.0 23.45 Q12.4 25.0 12.05 28.0 M9.25 27.75 L8.1 23.85 Q6.8 19.25 6.5 16.35 6.0 11.65 5.95 5.55 6.0 11.65 6.5 16.35 6.8 19.25 8.1 23.85 L9.25 27.75" fill="#000000" fill-opacity="0.2" fill-rule="evenodd" stroke="none"/>
    <path d="M8.85 27.7 L8.6 27.7 7.9 27.6 8.85 27.7" fill="#5c5450" fill-rule="evenodd" stroke="none"/>
    <path d="M32.7 27.35 L32.4 27.4 32.2 27.4 32.7 27.35" fill="#80746f" fill-rule="evenodd" stroke="none"/>
    <path d="M31.2 6.05 L31.2 5.55 M31.4 27.45 L29.2 27.55 28.65 27.6 28.35 27.65 28.2 27.65 27.95 27.65 M27.85 27.65 L18.55 28.2 12.05 28.0 9.25 27.75 8.95 27.75 8.85 27.7 8.6 27.7 6.8 27.5 5.35 27.35 M27.9 27.65 L27.95 27.5 28.0 27.45 29.05 23.85 Q30.3 19.2 30.6 16.35 31.1 11.8 31.2 6.05 M5.95 5.55 Q6.0 11.65 6.5 16.35 6.8 19.25 8.1 23.85 L9.25 27.75" fill="none" stroke="#000000" stroke-linecap="round" stroke-linejoin="miter-clip" stroke-miterlimit="10.0" stroke-opacity="0.6" stroke-width="1.0"/>
    <path d="M30.55 4.7 L31.15 5.2 31.8 5.4 32.85 5.75 33.55 6.65 33.75 7.35 34.7 7.0 36.0 7.9 37.35 9.1 37.45 12.7 37.35 15.8 36.1 17.15 35.75 21.4 34.5 24.5 34.7 25.15 34.85 26.1 33.95 26.85 33.15 27.35 32.7 27.35 32.2 27.4 31.95 27.4 31.4 27.45 M27.95 27.65 L27.9 27.65 27.85 27.65 M5.35 27.35 L4.4 27.25 3.6 26.75 2.7 26.05 2.85 25.1 3.05 24.45 1.8 21.45 1.35 17.3 0.2 16.0 0.05 13.0 0.05 9.5 1.35 8.35 2.55 7.4 3.45 7.7 3.7 7.05 4.25 6.15 5.3 5.8 5.95 5.55 Q6.85 4.6 8.65 3.6 L10.45 2.55 Q13.5 1.0 16.9 0.25 L18.2 0.05 18.5 0.05 19.75 0.15 Q24.4 1.05 28.25 3.3 L30.55 4.7" fill="none" stroke="#000000" stroke-linecap="round" stroke-linejoin="miter-clip" stroke-miterlimit="10.0" stroke-width="1.0"/>
  </g>
</svg>
