<?xml version="1.0" encoding="UTF-8" standalone="no"?>
<svg xmlns:xlink="http://www.w3.org/1999/xlink" height="8.6px" width="33.3px" xmlns="http://www.w3.org/2000/svg">
  <g transform="matrix(1.0, 0.0, 0.0, 1.0, 1.0, 0.7)">
    <path d="M30.95 2.45 L31.8 7.4 16.3 5.9 2.55 5.65 3.95 0.7 7.3 0.35 8.7 0.25 16.3 0.0 Q19.5 0.0 25.6 1.2 L30.95 2.45" fill="#ffffff" fill-opacity="0.0" fill-rule="evenodd" stroke="none"/>
    <path d="M2.55 5.65 L1.45 5.6 0.0 5.5 0.3 3.85 Q1.1 2.8 1.55 1.45 L1.6 0.85 3.95 0.7 2.55 5.65" fill="#000000" fill-opacity="0.24705882" fill-rule="evenodd" stroke="none"/>
    <path d="M31.8 7.4 L16.3 5.9 2.55 5.65 1.45 5.6 0.0 5.5 M1.6 0.85 L3.95 0.7 7.3 0.35 8.7 0.25 16.3 0.0 Q19.5 0.0 25.6 1.2 L30.95 2.45" fill="none" stroke="#000000" stroke-linecap="round" stroke-linejoin="miter-clip" stroke-miterlimit="10.0" stroke-opacity="0.6" stroke-width="1.0"/>
    <path d="M30.95 2.45 L31.8 7.4 M0.0 5.5 L0.3 3.85 Q1.1 2.8 1.55 1.45 L1.6 0.85" fill="none" stroke="#000000" stroke-linecap="round" stroke-linejoin="miter-clip" stroke-miterlimit="10.0" stroke-width="1.0"/>
  </g>
</svg>
