<?xml version="1.0" encoding="UTF-8" standalone="no"?>
<svg xmlns:xlink="http://www.w3.org/1999/xlink" height="32.4px" width="47.1px" xmlns="http://www.w3.org/2000/svg">
  <g transform="matrix(1.0, 0.0, 0.0, 1.0, 0.5, 0.8)">
    <path d="M35.0 13.55 Q39.8 18.5 43.95 21.4 L46.1 22.75 43.25 26.75 43.0 26.15 Q42.7 25.75 42.25 25.75 41.8 25.75 41.5 26.15 41.2 26.55 41.2 27.0 41.2 27.55 41.5 27.9 L42.15 28.25 42.15 28.4 41.15 29.85 Q40.3 29.55 38.95 28.65 38.15 28.2 38.05 26.9 L38.05 25.75 38.55 25.35 38.85 24.5 38.55 23.55 Q38.35 23.2 38.0 23.2 37.6 23.2 37.4 23.55 37.1 24.0 37.05 24.55 36.35 24.3 35.65 23.7 34.15 22.5 33.65 20.6 33.1 18.65 33.3 17.2 L33.5 16.1 35.4 17.2 Q37.2 18.0 37.25 17.2 37.35 16.4 35.9 15.6 L34.5 14.95 34.85 14.3 35.0 13.55 M34.35 12.85 L33.85 13.15 33.4 13.85 32.55 12.4 Q31.6 11.0 31.15 11.15 30.7 11.3 31.2 13.3 L31.9 15.25 28.75 15.6 Q28.25 15.5 28.2 14.95 L28.2 14.35 28.5 13.3 28.2 12.25 Q27.95 11.8 27.45 11.8 27.0 11.8 26.75 12.25 26.45 12.7 26.45 13.3 L26.5 13.6 Q24.95 13.45 24.2 12.3 23.7 11.65 23.7 10.3 L23.8 9.15 25.15 9.55 26.6 9.2 Q27.25 8.85 27.25 8.35 27.25 7.8 26.6 7.45 26.0 7.1 25.15 7.1 24.25 7.1 23.65 7.45 L23.55 7.55 23.7 7.1 23.9 5.2 23.7 3.25 23.4 2.75 23.2 2.5 22.9 2.5 22.65 2.75 22.35 3.25 22.15 5.2 22.35 7.1 22.5 7.5 22.45 7.45 Q21.8 7.1 20.95 7.1 20.05 7.1 19.5 7.45 18.85 7.8 18.85 8.35 18.85 8.85 19.5 9.2 L20.95 9.55 22.3 9.15 22.35 10.3 Q22.35 11.55 21.9 12.3 21.15 13.45 19.6 13.6 L19.65 13.3 19.35 12.25 18.6 11.8 Q18.15 11.8 17.9 12.25 17.6 12.7 17.6 13.3 17.6 13.9 17.9 14.35 L17.9 14.95 17.35 15.6 14.2 15.25 14.85 13.3 Q15.4 11.3 14.95 11.15 14.5 11.0 13.5 12.4 L12.65 13.85 12.2 13.15 11.75 12.85 12.9 11.65 Q17.05 7.3 20.1 3.4 L23.0 0.0 26.0 3.4 Q29.05 7.3 33.2 11.65 L34.35 12.85 M11.1 13.55 L11.25 14.3 11.6 14.95 10.2 15.6 Q8.7 16.35 8.8 17.2 8.9 18.0 10.75 17.2 L12.6 16.1 12.8 17.2 Q12.95 18.75 12.45 20.6 11.95 22.5 10.45 23.7 L9.05 24.55 8.7 23.55 Q8.45 23.2 8.1 23.2 L7.5 23.55 Q7.25 23.9 7.25 24.5 7.25 25.1 7.5 25.35 L8.1 25.75 8.1 26.9 Q7.95 28.15 7.15 28.65 5.75 29.55 4.95 29.85 L3.95 28.4 3.95 28.25 4.6 27.9 4.9 27.0 4.6 26.15 Q4.25 25.75 3.85 25.75 3.45 25.75 3.15 26.15 L2.8 26.75 0.0 22.75 2.15 21.4 Q6.25 18.5 11.1 13.55" fill="#ffffff" fill-opacity="0.0" fill-rule="evenodd" stroke="none"/>
    <path d="M35.0 13.55 L34.85 14.3 34.5 14.95 35.9 15.6 Q37.35 16.4 37.25 17.2 37.2 18.0 35.4 17.2 L33.5 16.1 33.3 17.2 Q33.1 18.65 33.65 20.6 34.15 22.5 35.65 23.7 36.35 24.3 37.05 24.55 37.1 24.0 37.4 23.55 37.6 23.2 38.0 23.2 38.35 23.2 38.55 23.55 L38.85 24.5 38.55 25.35 38.05 25.75 38.05 26.9 Q38.15 28.2 38.95 28.65 40.3 29.55 41.15 29.85 L40.2 31.1 Q36.0 25.55 32.2 22.1 26.75 17.25 22.6 17.3 19.8 17.35 16.5 19.65 L15.9 20.1 Q14.75 20.95 13.45 22.15 10.45 25.1 5.9 31.1 L4.95 29.85 Q5.75 29.55 7.15 28.65 7.95 28.15 8.1 26.9 L8.1 25.75 7.5 25.35 Q7.25 25.1 7.25 24.5 7.25 23.9 7.5 23.55 L8.1 23.2 Q8.45 23.2 8.7 23.55 L9.05 24.55 10.45 23.7 Q11.95 22.5 12.45 20.6 12.95 18.75 12.8 17.2 L12.6 16.1 10.75 17.2 Q8.9 18.0 8.8 17.2 8.7 16.35 10.2 15.6 L11.6 14.95 11.25 14.3 11.1 13.55 11.2 13.2 11.35 13.0 11.75 12.85 12.2 13.15 12.65 13.85 13.5 12.4 Q14.5 11.0 14.95 11.15 15.4 11.3 14.85 13.3 L14.2 15.25 17.35 15.6 17.9 14.95 17.9 14.35 Q17.6 13.9 17.6 13.3 17.6 12.7 17.9 12.25 18.15 11.8 18.6 11.8 L19.35 12.25 19.65 13.3 19.6 13.6 Q21.15 13.45 21.9 12.3 22.35 11.55 22.35 10.3 L22.3 9.15 20.95 9.55 19.5 9.2 Q18.85 8.85 18.85 8.35 18.85 7.8 19.5 7.45 20.05 7.1 20.95 7.1 21.8 7.1 22.45 7.45 L22.5 7.5 22.35 7.1 22.15 5.2 22.35 3.25 22.65 2.75 22.9 2.5 23.2 2.5 23.4 2.75 23.7 3.25 23.9 5.2 23.7 7.1 23.55 7.55 23.65 7.45 Q24.25 7.1 25.15 7.1 26.0 7.1 26.6 7.45 27.25 7.8 27.25 8.35 27.25 8.85 26.6 9.2 L25.15 9.55 23.8 9.15 23.7 10.3 Q23.7 11.65 24.2 12.3 24.95 13.45 26.5 13.6 L26.45 13.3 Q26.45 12.7 26.75 12.25 27.0 11.8 27.45 11.8 27.95 11.8 28.2 12.25 L28.5 13.3 28.2 14.35 28.2 14.95 Q28.25 15.5 28.75 15.6 L31.9 15.25 31.2 13.3 Q30.7 11.3 31.15 11.15 31.6 11.0 32.55 12.4 L33.4 13.85 33.85 13.15 34.35 12.85 Q34.55 12.8 34.7 13.0 L34.75 13.1 34.85 13.2 35.0 13.55 M42.15 28.4 L42.15 28.25 41.5 27.9 Q41.2 27.55 41.2 27.0 41.2 26.55 41.5 26.15 41.8 25.75 42.25 25.75 42.7 25.75 43.0 26.15 L43.25 26.75 42.15 28.4 M2.8 26.75 L3.15 26.15 Q3.45 25.75 3.85 25.75 4.25 25.75 4.6 26.15 L4.9 27.0 4.6 27.9 3.95 28.25 3.95 28.4 2.8 26.75" fill="#000000" fill-opacity="0.8" fill-rule="evenodd" stroke="none"/>
    <path d="M46.1 22.75 L43.95 21.4 Q39.8 18.5 35.0 13.55 M34.35 12.85 L33.2 11.65 Q29.05 7.3 26.0 3.4 L23.0 0.0 20.1 3.4 Q17.05 7.3 12.9 11.65 L11.75 12.85 M5.9 31.1 Q10.45 25.1 13.45 22.15 14.75 20.95 15.9 20.1 L16.5 19.65 Q19.8 17.35 22.6 17.3 26.75 17.25 32.2 22.1 36.0 25.55 40.2 31.1 M0.0 22.75 L2.15 21.4 Q6.25 18.5 11.1 13.55" fill="none" stroke="#000000" stroke-linecap="round" stroke-linejoin="miter-clip" stroke-miterlimit="4.0" stroke-opacity="0.4" stroke-width="1.0"/>
    <path d="M42.15 28.4 L42.15 28.25 M3.95 28.25 L3.95 28.4" fill="none" stroke="#000000" stroke-linecap="round" stroke-linejoin="miter-clip" stroke-miterlimit="10.0" stroke-opacity="0.4" stroke-width="1.0"/>
    <path d="M41.15 29.85 L42.15 28.4 43.25 26.75 46.1 22.75 M4.95 29.85 L5.9 31.1 M40.2 31.1 L41.15 29.85 M3.95 28.4 L4.95 29.85 M3.95 28.4 L2.8 26.75 0.0 22.75" fill="none" stroke="#000000" stroke-linecap="round" stroke-linejoin="round" stroke-width="1.0"/>
  </g>
</svg>
