<?xml version="1.0" encoding="UTF-8" standalone="no"?>
<svg xmlns:xlink="http://www.w3.org/1999/xlink" height="30.35px" width="72.7px" xmlns="http://www.w3.org/2000/svg">
  <g transform="matrix(1.0, 0.0, 0.0, 1.0, 36.35, 21.0)">
    <path d="M-12.35 -12.9 Q-11.4 -14.55 -7.85 -15.95 -4.3 -17.4 -1.4 -17.4 4.55 -17.4 10.6 -12.1 L14.8 -8.05 Q17.0 -5.9 18.1 -5.3 25.2 -1.55 27.1 0.0 32.15 3.9 32.45 8.85 15.25 8.85 -12.45 8.45 L4.8 8.5 7.4 8.45 Q7.65 6.8 5.1 3.0 2.15 -1.35 -1.0 -1.35 L-2.15 -0.05 Q-3.75 2.35 -5.9 4.95 L-7.5 6.4 Q-6.6 3.3 -6.6 1.25 -6.6 -2.4 -9.4 -5.6 -12.25 -8.85 -12.35 -12.9" fill="#ffffff" fill-opacity="0.0" fill-rule="evenodd" stroke="none"/>
    <path d="M-33.2 8.25 L-35.85 8.25 Q-35.75 6.1 -34.65 3.0 -33.65 0.3 -32.7 -1.15 -31.9 -2.3 -28.45 -3.7 -24.45 -5.3 -22.85 -6.6 -20.65 -8.35 -17.9 -11.35 L-13.65 -15.85 Q-8.65 -20.5 -1.75 -20.5 7.35 -20.5 13.65 -14.85 L18.4 -10.1 Q21.25 -7.4 23.8 -6.2 29.15 -3.7 31.9 -1.0 36.1 3.2 35.85 8.85 L32.45 8.85 Q32.15 3.9 27.1 0.0 25.2 -1.55 18.1 -5.3 17.0 -5.9 14.8 -8.05 L10.6 -12.1 Q4.55 -17.4 -1.4 -17.4 -4.3 -17.4 -7.85 -15.95 -11.4 -14.55 -12.35 -12.9 -14.45 -9.4 -18.65 -6.0 -22.45 -2.95 -27.25 -0.5 -30.5 1.15 -31.25 3.1 -31.65 4.2 -31.65 8.25 L-33.2 8.25" fill="#ffffff" fill-opacity="0.4" fill-rule="evenodd" stroke="none"/>
    <path d="M-33.2 8.25 L-31.65 8.25 Q-31.65 4.2 -31.25 3.1 -30.5 1.15 -27.25 -0.5 -22.45 -2.95 -18.65 -6.0 -14.45 -9.4 -12.35 -12.9 -12.25 -8.85 -9.4 -5.6 -6.6 -2.4 -6.6 1.25 -6.6 3.3 -7.5 6.4 L-5.9 4.95 Q-3.75 2.35 -2.15 -0.05 L-1.0 -1.35 Q2.15 -1.35 5.1 3.0 7.65 6.8 7.4 8.45 L4.8 8.5 -12.45 8.45 -28.05 8.35 -33.2 8.25" fill="#000000" fill-opacity="0.09803922" fill-rule="evenodd" stroke="none"/>
    <path d="M32.45 8.85 L35.85 8.85 Q36.1 3.2 31.9 -1.0 29.15 -3.7 23.8 -6.2 21.25 -7.4 18.4 -10.1 L13.65 -14.85 Q7.35 -20.5 -1.75 -20.5 -8.65 -20.5 -13.65 -15.85 L-17.9 -11.35 Q-20.65 -8.35 -22.85 -6.6 -24.45 -5.3 -28.45 -3.7 -31.9 -2.3 -32.7 -1.15 -33.65 0.3 -34.65 3.0 -35.75 6.1 -35.85 8.25 L-33.2 8.25 -28.05 8.35 -12.45 8.45 Q15.25 8.85 32.45 8.85 Z" fill="none" stroke="#000000" stroke-linecap="butt" stroke-linejoin="bevel" stroke-width="1.0"/>
  </g>
</svg>
