<?xml version="1.0" encoding="UTF-8" standalone="no"?>
<svg xmlns:xlink="http://www.w3.org/1999/xlink" height="25.25px" width="72.0px" xmlns="http://www.w3.org/2000/svg">
  <g transform="matrix(1.0, 0.0, 0.0, 1.0, 35.9, 15.85)">
    <path d="M-0.3 8.9 L0.55 8.9 Q-2.1 8.25 -5.0 5.9 L-9.75 1.6 -13.95 -3.1 Q-16.65 -6.05 -19.0 -6.3 -21.6 -6.55 -25.65 -4.3 -27.95 -3.1 -31.65 -0.4 -34.1 1.25 -35.1 2.4 -31.35 -3.1 -27.5 -6.25 -22.85 -10.05 -16.9 -11.55 L-13.4 -12.25 -12.95 -12.3 -8.65 -12.8 -1.65 -13.05 -0.3 -13.1 5.85 -13.25 8.85 -13.25 5.85 -13.25 -0.3 -13.1 -1.65 -13.05 -0.35 -15.05 Q4.4 -15.0 8.85 -13.25 L16.65 -12.45 Q22.25 -11.2 26.25 -7.7 31.2 -3.35 35.35 2.75 19.0 9.3 -0.3 8.9 M6.8 8.75 Q20.35 8.1 32.2 3.9 29.05 2.9 24.75 2.25 22.65 1.9 20.15 2.95 L15.9 5.15 11.45 7.25 Q8.9 8.3 6.8 8.75" fill="#ffffff" fill-opacity="0.0" fill-rule="evenodd" stroke="none"/>
    <path d="M-35.1 2.4 Q-34.1 1.25 -31.65 -0.4 -27.95 -3.1 -25.65 -4.3 -21.6 -6.55 -19.0 -6.3 -16.65 -6.05 -13.95 -3.1 L-9.75 1.6 -5.0 5.9 Q-2.1 8.25 0.55 8.9 L-0.3 8.9 -12.95 7.95 -14.05 7.8 -22.3 6.4 -25.05 5.75 -30.35 4.4 -34.6 3.05 -35.35 2.75 -35.2 2.5 -35.1 2.4 M-1.65 -13.05 L-8.65 -12.8 -12.95 -12.3 -11.9 -12.85 -10.75 -13.25 -9.6 -13.65 -8.85 -13.9 -4.95 -14.75 -3.15 -14.95 -3.05 -14.95 -1.85 -15.0 -0.35 -15.05 -1.65 -13.05 M6.8 8.75 Q8.9 8.3 11.45 7.25 L15.9 5.15 20.15 2.95 Q22.65 1.9 24.75 2.25 29.05 2.9 32.2 3.9 20.35 8.1 6.8 8.75" fill="#000000" fill-opacity="0.2" fill-rule="evenodd" stroke="none"/>
    <path d="M-30.35 4.4 L-25.05 5.75 -22.3 6.4 -30.35 4.4 M-12.95 -12.3 L-13.4 -12.25 -11.9 -12.85 -12.95 -12.3" fill="#d6d6d6" fill-rule="evenodd" stroke="none"/>
    <path d="M-35.35 2.75 L-34.6 3.05 -30.35 4.4 -22.3 6.4 -14.05 7.8 -12.95 7.95 -0.3 8.9 Q19.0 9.3 35.35 2.75 31.2 -3.35 26.25 -7.7 22.25 -11.2 16.65 -12.45 L8.85 -13.25 5.85 -13.25 -0.3 -13.1 -1.65 -13.05 -8.65 -12.8 -12.95 -12.3 -13.4 -12.25 -16.9 -11.55 Q-22.85 -10.05 -27.5 -6.25 -31.35 -3.1 -35.1 2.4 M-11.9 -12.85 L-10.75 -13.25 -9.6 -13.65 -8.85 -13.9 -4.95 -14.75 -3.15 -14.95 -3.05 -14.95 -1.85 -15.0 -0.35 -15.05 Q4.4 -15.0 8.85 -13.25 M-13.4 -12.25 L-11.9 -12.85" fill="none" stroke="#000000" stroke-linecap="butt" stroke-linejoin="miter-clip" stroke-miterlimit="10.0" stroke-width="1.0"/>
  </g>
</svg>
