<?xml version="1.0" encoding="UTF-8" standalone="no"?>
<svg xmlns:xlink="http://www.w3.org/1999/xlink" height="45.5px" width="38.0px" xmlns="http://www.w3.org/2000/svg">
  <g transform="matrix(1.0, 0.0, 0.0, 1.0, 18.15, 40.0)">
    <path d="M19.1 -8.9 Q12.65 -11.1 0.75 -11.4 -10.85 -11.75 -16.8 -9.85 L-14.05 -35.6 2.15 -36.5 Q12.6 -36.75 18.8 -35.1 19.7 -22.6 19.1 -8.9" fill="#ffffff" fill-opacity="0.0" fill-rule="evenodd" stroke="none"/>
    <path d="M-16.8 -9.85 Q-10.85 -11.75 0.75 -11.4 12.65 -11.1 19.1 -8.9 L19.05 -8.5 18.6 -2.3 18.1 4.6 7.95 5.0 -12.35 4.4 -17.65 3.65 -17.4 -3.0 -16.8 -9.85 M18.8 -35.1 Q12.6 -36.75 2.15 -36.5 L-14.05 -35.6 -13.35 -38.6 2.4 -39.5 Q13.25 -39.5 18.65 -38.1 L18.8 -35.1" fill="#000000" fill-opacity="0.2" fill-rule="evenodd" stroke="none"/>
    <path d="M-16.8 -9.85 Q-10.85 -11.75 0.75 -11.4 12.65 -11.1 19.1 -8.9 19.7 -22.6 18.8 -35.1 L18.65 -38.1 Q13.25 -39.5 2.4 -39.5 L-13.35 -38.6 -14.05 -35.6 -16.8 -9.85 -17.4 -3.0 -17.65 3.65 M18.1 4.6 L18.6 -2.3 19.05 -8.5 19.1 -8.9" fill="none" stroke="#000000" stroke-linecap="round" stroke-linejoin="round" stroke-width="1.0"/>
    <path d="M18.8 -35.1 Q12.6 -36.75 2.15 -36.5 L-14.05 -35.6" fill="none" stroke="#000000" stroke-linecap="round" stroke-linejoin="round" stroke-opacity="0.4" stroke-width="1.0"/>
    <path d="M-17.65 3.65 L-12.35 4.4 7.95 5.0 18.1 4.6" fill="none" stroke="#000000" stroke-linecap="round" stroke-linejoin="round" stroke-opacity="0.6" stroke-width="1.0"/>
  </g>
</svg>
