<?xml version="1.0" encoding="UTF-8" standalone="no"?>
<svg xmlns:xlink="http://www.w3.org/1999/xlink" height="49.65px" width="38.75px" xmlns="http://www.w3.org/2000/svg">
  <g transform="matrix(1.0, 0.0, 0.0, 1.0, 19.35, 25.65)">
    <path d="M-4.35 -24.8 L-3.75 -24.65 -1.45 -24.05 Q0.0 -23.6 1.25 -22.8 5.55 -20.0 7.55 -16.5 9.45 -13.0 10.1 -3.4 L10.15 -2.95 Q11.1 -1.5 10.05 -0.6 L7.6 -0.5 7.55 -0.5 7.6 -0.5 7.55 -0.5 Q7.35 3.6 7.6 5.6 L8.0 10.5 Q8.4 14.7 8.85 15.9 9.45 17.7 6.5 19.85 2.75 22.6 -4.45 23.3 -10.7 22.7 -14.6 20.2 -17.9 18.15 -17.4 16.75 -15.6 11.35 -16.25 -0.85 L-16.8 -0.9 -18.5 -0.9 -18.85 -2.2 -18.8 -3.1 -18.65 -4.65 Q-17.95 -13.7 -16.25 -16.5 -14.05 -20.15 -9.95 -22.8 -8.7 -23.6 -7.2 -24.05 L-4.95 -24.65 -4.35 -24.8 M-18.8 -3.1 Q-4.65 -2.45 10.15 -2.95 -4.65 -2.45 -18.8 -3.1 M7.55 -0.5 Q-3.95 -0.1 -16.25 -0.85 -3.95 -0.1 7.55 -0.5" fill="#ffffff" fill-opacity="0.0" fill-rule="evenodd" stroke="none"/>
    <path d="M-4.35 -24.8 L-3.3 -24.95 0.5 -25.15 5.0 -24.65 7.3 -24.05 Q8.75 -23.6 10.0 -22.8 14.3 -20.0 16.3 -16.5 18.2 -13.0 18.85 -3.4 L10.15 -2.95 18.85 -3.4 18.9 -2.2 18.55 -0.9 16.85 -0.9 16.3 -0.85 Q16.05 4.05 16.35 8.35 16.65 13.25 17.6 15.9 18.35 18.05 14.35 20.45 9.3 23.5 -0.3 23.5 L-4.45 23.3 Q2.75 22.6 6.5 19.85 9.45 17.7 8.85 15.9 8.4 14.7 8.0 10.5 L7.6 5.6 Q7.35 3.6 7.55 -0.5 L7.6 -0.5 10.05 -0.6 Q11.1 -1.5 10.15 -2.95 L10.1 -3.4 Q9.45 -13.0 7.55 -16.5 5.55 -20.0 1.25 -22.8 0.0 -23.6 -1.45 -24.05 L-3.75 -24.65 -4.35 -24.8 M16.3 -0.85 L14.05 -0.85 10.05 -0.6 14.05 -0.85 16.3 -0.85" fill="#000000" fill-opacity="0.09803922" fill-rule="evenodd" stroke="none"/>
    <path d="M18.85 -3.4 Q18.2 -13.0 16.3 -16.5 14.3 -20.0 10.0 -22.8 8.75 -23.6 7.3 -24.05 L5.0 -24.65 0.5 -25.15 -3.3 -24.95 -4.35 -24.8 -4.95 -24.65 -7.2 -24.05 Q-8.7 -23.6 -9.95 -22.8 -14.05 -20.15 -16.25 -16.5 -17.95 -13.7 -18.65 -4.65 L-18.8 -3.1 -18.85 -2.2 -18.5 -0.9 -16.8 -0.9 -16.25 -0.85 Q-15.6 11.35 -17.4 16.75 -17.9 18.15 -14.6 20.2 -10.7 22.7 -4.45 23.3 L-0.3 23.5 Q9.3 23.5 14.35 20.45 18.35 18.05 17.6 15.9 16.65 13.25 16.35 8.35 16.05 4.05 16.3 -0.85 L16.85 -0.9 18.55 -0.9 18.9 -2.2 18.85 -3.4" fill="none" stroke="#000000" stroke-linecap="round" stroke-linejoin="round" stroke-width="1.0"/>
    <path d="M10.15 -2.95 L18.85 -3.4 M7.6 -0.5 L7.55 -0.5 Q-3.95 -0.1 -16.25 -0.85 M7.6 -0.5 L10.05 -0.6 14.05 -0.85 16.3 -0.85 M10.15 -2.95 Q-4.65 -2.45 -18.8 -3.1" fill="none" stroke="#000000" stroke-linecap="round" stroke-linejoin="round" stroke-opacity="0.4" stroke-width="1.0"/>
  </g>
</svg>
