<?xml version="1.0" encoding="UTF-8" standalone="no"?>
<svg xmlns:xlink="http://www.w3.org/1999/xlink" height="14.45px" width="43.6px" xmlns="http://www.w3.org/2000/svg">
  <g transform="matrix(1.0, 0.0, 0.0, 1.0, 22.45, -23.3)">
    <path d="M16.85 31.8 L17.15 32.55 15.3 32.8 14.85 32.65 Q15.25 33.7 15.0 34.35 14.05 34.05 13.7 33.1 L12.75 34.15 12.25 32.95 12.0 33.25 12.3 33.75 10.5 33.6 Q10.75 34.4 10.4 35.05 L9.3 34.4 Q9.35 35.1 8.6 35.65 7.6 35.15 7.2 34.15 6.75 35.1 5.9 35.35 L5.85 35.2 3.9 34.95 Q4.25 36.0 3.7 36.75 2.3 36.05 1.65 34.9 L1.1 35.65 1.0 35.7 0.15 35.9 0.15 35.8 -1.65 35.5 Q-1.3 36.4 -2.2 37.25 -3.2 36.55 -3.3 35.45 -3.65 35.9 -5.1 36.2 -5.7 36.05 -6.15 35.55 -6.1 36.4 -6.7 37.15 -7.55 36.6 -7.55 35.6 -8.1 36.2 -8.8 36.2 L-8.85 34.95 -10.25 35.0 -10.25 34.65 -10.95 34.1 Q-11.0 34.95 -11.55 35.45 L-12.4 34.55 Q-12.55 35.2 -13.4 35.4 -14.15 34.55 -14.25 33.5 -14.9 34.3 -15.9 34.15 L-15.85 33.1 Q-16.85 32.9 -17.55 32.15 -17.55 33.2 -18.4 33.7 -19.4 32.65 -19.7 31.3 -20.25 32.05 -21.45 31.75 -21.35 30.55 -20.4 29.75 -21.5 29.55 -21.95 29.0 -21.2 28.35 -20.25 28.5 -20.75 27.9 -20.65 27.15 L-19.35 27.35 Q-19.65 26.7 -19.15 25.95 -18.0 26.1 -17.25 26.9 -17.2 25.8 -16.45 25.3 -15.35 26.4 -15.15 27.75 -14.55 27.0 -13.4 27.3 L-13.45 27.7 -13.4 27.65 -12.55 28.6 Q-12.35 27.95 -11.45 27.7 -10.7 28.55 -10.6 29.6 L-9.9 29.05 -9.0 28.95 -8.95 29.15 Q-8.35 29.3 -7.75 29.75 -7.75 28.6 -7.3 28.05 -6.5 28.7 -6.5 29.7 -6.0 29.1 -5.25 29.05 L-5.25 30.35 -5.05 30.25 -5.15 29.7 -2.45 29.75 Q-2.85 28.95 -2.0 28.05 -1.0 28.75 -0.75 29.95 -0.05 29.1 0.65 29.0 L0.7 29.6 Q1.6 29.5 2.4 29.9 2.0 28.9 2.65 28.2 3.75 28.7 4.45 29.6 L4.95 29.5 Q5.25 29.15 5.8 29.05 L6.0 28.4 7.15 28.9 Q7.05 28.2 7.8 27.75 8.8 28.3 9.2 29.3 L9.65 28.6 9.3 27.8 11.4 27.7 Q11.05 26.9 11.35 26.1 12.3 26.3 12.7 27.2 L12.9 26.85 12.7 26.5 Q13.95 25.6 15.35 25.65 14.7 24.9 15.2 23.8 16.4 24.1 16.9 25.15 17.15 24.3 17.95 23.85 18.5 24.6 18.2 25.6 L19.55 25.4 19.2 26.65 Q19.9 26.45 20.5 27.1 20.15 28.15 19.25 28.75 20.3 28.95 20.65 29.9 19.4 30.65 18.05 30.7 18.65 31.4 18.15 32.55 17.35 32.35 16.85 31.8 L16.4 31.15 16.85 31.8" fill="#ffffff" fill-opacity="0.0" fill-rule="evenodd" stroke="none"/>
    <path d="M16.85 31.8 L17.15 32.55 15.3 32.8 14.85 32.65 Q15.25 33.7 15.0 34.35 14.05 34.05 13.7 33.1 L12.75 34.15 12.25 32.95 12.0 33.25 12.3 33.75 10.5 33.6 Q10.75 34.4 10.4 35.05 L9.3 34.4 Q9.35 35.1 8.6 35.65 7.6 35.15 7.2 34.15 6.75 35.1 5.9 35.35 L5.85 35.2 3.9 34.95 Q4.25 36.0 3.7 36.75 2.3 36.05 1.65 34.9 L1.1 35.65 1.0 35.7 0.15 35.9 0.15 35.8 -1.65 35.5 Q-1.3 36.4 -2.2 37.25 -3.2 36.55 -3.3 35.45 -3.65 35.9 -5.1 36.2 -5.7 36.05 -6.15 35.55 -6.1 36.4 -6.7 37.15 -7.55 36.6 -7.55 35.6 -8.1 36.2 -8.8 36.2 L-8.85 34.95 -10.25 35.0 -10.25 34.65 -10.95 34.1 Q-11.0 34.95 -11.55 35.45 L-12.4 34.55 Q-12.55 35.2 -13.4 35.4 -14.15 34.55 -14.25 33.5 -14.9 34.3 -15.9 34.15 L-15.85 33.1 Q-16.85 32.9 -17.55 32.15 -17.55 33.2 -18.4 33.7 -19.4 32.65 -19.7 31.3 -20.25 32.05 -21.45 31.75 -21.35 30.55 -20.4 29.75 -21.5 29.55 -21.95 29.0 -21.2 28.35 -20.25 28.5 -20.75 27.9 -20.65 27.15 L-19.35 27.35 Q-19.65 26.7 -19.15 25.95 -18.0 26.1 -17.25 26.9 -17.2 25.8 -16.45 25.3 -15.35 26.4 -15.15 27.75 -14.55 27.0 -13.4 27.3 L-13.45 27.7 -13.4 27.65 -12.55 28.6 Q-12.35 27.95 -11.45 27.7 -10.7 28.55 -10.6 29.6 L-9.9 29.05 -9.0 28.95 -8.95 29.15 Q-8.35 29.3 -7.75 29.75 -7.75 28.6 -7.3 28.05 -6.5 28.7 -6.5 29.7 -6.0 29.1 -5.25 29.05 L-5.25 30.35 -5.05 30.25 -5.15 29.7 -2.45 29.75 Q-2.85 28.95 -2.0 28.05 -1.0 28.75 -0.75 29.95 -0.05 29.1 0.65 29.0 L0.7 29.6 Q1.6 29.5 2.4 29.9 2.0 28.9 2.65 28.2 3.75 28.7 4.45 29.6 L4.95 29.5 Q5.25 29.15 5.8 29.05 L6.0 28.4 7.15 28.9 Q7.05 28.2 7.8 27.75 8.8 28.3 9.2 29.3 L9.65 28.6 9.3 27.8 11.4 27.7 Q11.05 26.9 11.35 26.1 12.3 26.3 12.7 27.2 L12.9 26.85 12.7 26.5 Q13.95 25.6 15.35 25.65 14.7 24.9 15.2 23.8 16.4 24.1 16.9 25.15 17.15 24.3 17.95 23.85 18.5 24.6 18.2 25.6 L19.55 25.4 19.2 26.65 Q19.9 26.45 20.5 27.1 20.15 28.15 19.25 28.75 20.3 28.95 20.65 29.9 19.4 30.65 18.05 30.7 18.65 31.4 18.15 32.55 17.35 32.35 16.85 31.8 L16.4 31.15" fill="none" stroke="#000000" stroke-linecap="round" stroke-linejoin="round" stroke-opacity="0.6" stroke-width="1.0"/>
  </g>
</svg>
