<?xml version="1.0" encoding="UTF-8" standalone="no"?>
<svg xmlns:xlink="http://www.w3.org/1999/xlink" height="24.3px" width="36.0px" xmlns="http://www.w3.org/2000/svg">
  <g transform="matrix(1.0, 0.0, 0.0, 1.0, 18.45, 15.9)">
    <path d="M15.85 -6.2 Q16.9 -3.65 17.05 0.1 L16.9 2.95 Q16.7 3.8 16.4 7.5 16.5 8.15 0.45 7.75 -16.6 8.1 -16.9 7.55 -18.15 -0.05 -17.9 -3.1 -17.6 -6.1 -15.85 -8.45 -14.05 -10.8 -10.4 -12.7 -6.75 -14.7 -1.95 -14.8 L-1.95 -14.85 -1.55 -15.25 -0.5 -15.4 0.5 -15.15 0.95 -14.75 Q12.75 -13.05 15.85 -6.2 M4.9 2.95 L4.8 2.25 4.45 1.7 4.0 1.4 3.0 1.2 1.4 1.0 -0.95 0.95 -2.9 0.95 -4.1 0.95 -5.2 1.1 -5.95 1.3 -6.35 1.75 -6.35 2.35 -6.35 3.1 -6.35 3.85 -6.3 3.95 Q-6.15 4.3 -5.25 4.5 L-4.5 4.6 -3.65 4.65 -2.05 4.7 0.3 4.75 2.95 4.75 3.5 4.65 4.2 4.45 4.5 4.3 4.8 3.7 4.9 2.95" fill="#ffffff" fill-opacity="0.0" fill-rule="evenodd" stroke="none"/>
    <path d="M15.85 -6.2 Q16.9 -3.65 17.05 0.1 L16.9 2.95 Q16.7 3.8 16.4 7.5 16.5 8.15 0.45 7.75 -16.6 8.1 -16.9 7.55 -18.15 -0.05 -17.9 -3.1 -17.6 -6.1 -15.85 -8.45 -14.05 -10.8 -10.4 -12.7 -6.75 -14.7 -1.95 -14.8 L-1.95 -14.85 -1.55 -15.25 -0.5 -15.4 0.5 -15.15 0.95 -14.75 Q12.75 -13.05 15.85 -6.2" fill="none" stroke="#000000" stroke-linecap="round" stroke-linejoin="round" stroke-width="1.0"/>
    <path d="M4.9 2.95 L4.8 3.7 4.5 4.3 4.2 4.45 3.5 4.65 2.95 4.75 0.3 4.75 -2.05 4.7 -3.65 4.65 -4.5 4.6 -5.25 4.5 Q-6.15 4.3 -6.3 3.95 L-6.35 3.85 -6.35 3.1 -6.35 2.35 -6.35 1.75 -5.95 1.3 -5.2 1.1 -4.1 0.95 -2.9 0.95 -0.95 0.95 1.4 1.0 3.0 1.2 4.0 1.4 4.45 1.7 4.8 2.25 4.9 2.95" fill="none" stroke="#000000" stroke-linecap="round" stroke-linejoin="round" stroke-opacity="0.4" stroke-width="1.0"/>
  </g>
</svg>
