<?xml version="1.0" encoding="UTF-8" standalone="no"?>
<svg xmlns:xlink="http://www.w3.org/1999/xlink" height="35.4px" width="55.65px" xmlns="http://www.w3.org/2000/svg">
  <g transform="matrix(1.0, 0.0, 0.0, 1.0, 27.85, 19.65)">
    <path d="M25.75 -5.3 Q27.5 -4.5 27.25 1.25 26.95 7.0 21.4 10.75 15.85 14.45 0.8 15.25 -18.0 14.3 -22.5 10.55 -27.05 6.75 -27.3 1.15 -27.6 -4.5 -25.85 -5.3 -25.2 -5.65 -18.3 -3.1 -15.35 -2.0 -14.15 -1.75 L-12.5 -9.3 -7.35 -15.8 -4.1 -19.15 -2.65 -18.65 0.55 -18.15 2.55 -18.65 4.15 -19.05 Q4.55 -19.15 7.6 -15.4 L12.35 -9.55 14.7 -1.85 15.0 -1.95 18.25 -3.1 Q25.1 -5.65 25.75 -5.3" fill="#ffffff" fill-opacity="0.0" fill-rule="evenodd" stroke="none"/>
    <path d="M25.75 -5.3 Q27.5 -4.5 27.25 1.25 26.95 7.0 21.4 10.75 15.85 14.45 0.8 15.25 -18.0 14.3 -22.5 10.55 -27.05 6.75 -27.3 1.15 -27.6 -4.5 -25.85 -5.3 -25.2 -5.65 -18.3 -3.1 -15.35 -2.0 -14.15 -1.75 L-12.5 -9.3 -7.35 -15.8 -4.1 -19.15 -2.65 -18.65 0.55 -18.15 2.55 -18.65 4.15 -19.05 Q4.55 -19.15 7.6 -15.4 L12.35 -9.55 14.7 -1.85 15.0 -1.95 18.25 -3.1 Q25.1 -5.65 25.75 -5.3 Z" fill="none" stroke="#000000" stroke-linecap="round" stroke-linejoin="round" stroke-width="1.0"/>
  </g>
</svg>
