<?xml version="1.0" encoding="UTF-8" standalone="no"?>
<svg xmlns:xlink="http://www.w3.org/1999/xlink" height="49.35px" width="22.3px" xmlns="http://www.w3.org/2000/svg">
  <g transform="matrix(1.0, 0.0, 0.0, 1.0, 9.1, -5.8)">
    <path d="M9.2 8.0 Q10.4 14.4 10.85 20.9 11.25 27.3 9.9 25.45 L9.35 24.55 9.9 25.45 Q10.75 32.3 9.5 38.55 8.65 43.2 7.3 53.7 6.0 54.65 -0.15 54.65 L-6.1 54.4 -6.65 43.2 -6.75 34.0 -6.65 29.45 -6.4 29.4 -6.25 29.35 -6.3 30.15 -3.9 31.5 1.45 31.7 Q3.55 30.85 6.1 27.65 L6.4 27.25 Q8.2 25.0 9.3 24.4 L9.0 23.8 8.05 22.25 6.55 20.75 Q5.65 20.05 4.45 19.55 2.35 18.55 -0.65 18.15 L-5.65 17.55 -5.95 17.5 -6.2 17.45 Q-8.0 17.0 -8.2 16.05 -8.8 13.5 -8.45 11.5 L-8.0 10.05 Q-0.8 6.4 4.9 6.85 7.8 7.05 9.2 8.0 M9.35 24.55 L9.3 24.4 9.35 24.55" fill="#ffffff" fill-opacity="0.0" fill-rule="evenodd" stroke="none"/>
    <path d="M9.9 25.45 Q11.25 27.3 10.85 20.9 10.4 14.4 9.2 8.0 M-8.0 10.05 L-8.45 11.5 Q-8.8 13.5 -8.2 16.05 -8.0 17.0 -6.2 17.45 M9.35 24.55 L9.9 25.45 M-6.65 29.45 L-6.4 29.4 M-6.25 29.35 L-6.3 30.15" fill="none" stroke="#000000" stroke-linecap="round" stroke-linejoin="miter-clip" stroke-miterlimit="10.0" stroke-width="1.0"/>
    <path d="M9.2 8.0 Q7.8 7.05 4.9 6.85 -0.8 6.4 -8.0 10.05 M-6.2 17.45 L-5.95 17.5 -5.65 17.55 -0.65 18.15 Q2.35 18.55 4.45 19.55 5.65 20.05 6.55 20.75 L8.05 22.25 9.0 23.8 9.3 24.4 9.35 24.55 M-6.4 29.4 L-6.25 29.35 M-6.3 30.15 L-3.9 31.5 1.45 31.7 Q3.55 30.85 6.1 27.65 L6.4 27.25 Q8.2 25.0 9.3 24.4" fill="none" stroke="#000000" stroke-linecap="round" stroke-linejoin="miter-clip" stroke-miterlimit="10.0" stroke-opacity="0.6" stroke-width="1.0"/>
    <path d="M9.9 25.45 Q10.75 32.3 9.5 38.55 8.65 43.2 7.3 53.7 6.0 54.65 -0.15 54.65 L-6.1 54.4 -6.65 43.2 -6.75 34.0 -6.65 29.45" fill="none" stroke="#000000" stroke-linecap="round" stroke-linejoin="miter-clip" stroke-miterlimit="10.0" stroke-width="1.0"/>
    <path d="M8.8 13.0 L9.3 15.3 9.35 15.7 Q10.0 19.5 9.85 22.75 L8.3 20.2 8.4 18.55 8.4 17.1 8.35 15.3 Q8.2 12.0 7.6 9.15 L7.5 8.55 8.8 13.0 M8.7 32.5 Q8.7 38.35 7.65 42.85 5.9 50.1 6.1 53.0 L4.55 53.35 6.75 35.5 Q7.1 32.8 7.85 29.9 L8.5 27.55 8.7 32.5" fill="#ffffff" fill-opacity="0.24705882" fill-rule="evenodd" stroke="none"/>
  </g>
</svg>
