<?xml version="1.0" encoding="UTF-8" standalone="no"?>
<svg xmlns:xlink="http://www.w3.org/1999/xlink" height="24.25px" width="20.5px" xmlns="http://www.w3.org/2000/svg">
  <g transform="matrix(1.0, 0.0, 0.0, 1.0, 16.1, 1.1)">
    <path d="M-15.15 11.55 L-15.2 6.35 Q-13.8 -3.7 -4.8 0.75 -0.3 2.95 3.9 7.15 L3.85 12.95 Q-1.65 15.0 -8.9 13.45 L-15.15 11.55 -8.9 13.45 Q-1.65 15.0 3.85 12.95 L3.85 22.2 Q-6.1 24.1 -15.6 22.2 L-15.15 11.55" fill="#ffffff" fill-opacity="0.0" fill-rule="evenodd" stroke="none"/>
    <path d="M3.85 12.95 L3.9 7.15 Q-0.3 2.95 -4.8 0.75 -13.8 -3.7 -15.2 6.35 L-15.15 11.55 -15.6 22.2 M3.85 12.95 L3.85 22.2" fill="none" stroke="#000000" stroke-linecap="round" stroke-linejoin="miter-clip" stroke-miterlimit="10.0" stroke-width="1.0"/>
    <path d="M-15.15 11.55 L-8.9 13.45 Q-1.65 15.0 3.85 12.95 Z" fill="none" stroke="#000000" stroke-linecap="round" stroke-linejoin="miter-clip" stroke-miterlimit="10.0" stroke-opacity="0.4" stroke-width="1.0"/>
  </g>
</svg>
