<?xml version="1.0" encoding="UTF-8" standalone="no"?>
<svg xmlns:xlink="http://www.w3.org/1999/xlink" height="14.6px" width="24.6px" xmlns="http://www.w3.org/2000/svg">
  <g transform="matrix(1.0, 0.0, 0.0, 1.0, 11.75, 0.9)">
    <path d="M1.55 5.3 L2.3 5.25 5.15 6.95 2.1 8.6 Q1.2 8.55 0.8 7.95 0.35 7.35 0.6 6.35 0.75 5.5 1.55 5.3 M7.3 8.9 L7.5 6.4 11.25 7.45 7.3 8.9 M-5.75 6.1 L-4.3 5.45 Q-2.9 6.1 -3.3 7.3 -3.5 7.95 -3.95 8.4 L-5.6 8.25 -9.8 7.9 -5.75 6.1" fill="#000000" fill-opacity="0.09803922" fill-rule="evenodd" stroke="none"/>
    <path d="M1.55 5.3 Q0.75 5.5 0.6 6.35 0.35 7.35 0.8 7.95 1.2 8.55 2.1 8.6 L5.15 6.95 2.3 5.25 1.55 5.3 M7.5 6.4 L7.3 8.9 7.05 12.45 Q0.5 13.95 -5.3 12.35 L-5.6 8.25 -3.95 8.4 Q-3.5 7.95 -3.3 7.3 -2.9 6.1 -4.3 5.45 L-5.75 6.1 -6.15 0.4 Q0.9 -1.35 7.9 0.65 L7.5 6.4" fill="#ffffff" fill-opacity="0.0" fill-rule="evenodd" stroke="none"/>
    <path d="M1.55 5.3 Q0.75 5.5 0.6 6.35 0.35 7.35 0.8 7.95 1.2 8.55 2.1 8.6 L5.15 6.95 2.3 5.25 1.55 5.3 M7.3 8.9 L11.25 7.45 7.5 6.4 M-5.75 6.1 L-4.3 5.45 Q-2.9 6.1 -3.3 7.3 -3.5 7.95 -3.95 8.4 L-5.6 8.25 -9.8 7.9 -5.75 6.1" fill="none" stroke="#000000" stroke-linecap="round" stroke-linejoin="miter-clip" stroke-miterlimit="10.0" stroke-opacity="0.6" stroke-width="1.0"/>
    <path d="M7.5 6.4 L7.3 8.9 7.05 12.45 Q0.5 13.95 -5.3 12.35 L-5.6 8.25 M7.5 6.4 L7.9 0.65 Q0.9 -1.35 -6.15 0.4 L-5.75 6.1" fill="none" stroke="#000000" stroke-linecap="round" stroke-linejoin="miter-clip" stroke-miterlimit="10.0" stroke-width="1.0"/>
  </g>
</svg>
