<?xml version="1.0" encoding="UTF-8" standalone="no"?>
<svg xmlns:xlink="http://www.w3.org/1999/xlink" height="24.25px" width="46.4px" xmlns="http://www.w3.org/2000/svg">
  <g transform="matrix(1.0, 0.0, 0.0, 1.0, 24.25, 13.6)">
    <path d="M-23.45 -9.85 L-23.25 -10.25 -13.4 -12.05 -2.0 -13.55 8.35 -12.8 Q14.5 -11.8 20.45 -9.7 L21.65 3.75 Q17.25 5.55 10.85 7.55 1.95 10.35 -3.6 10.15 -9.9 9.95 -15.95 8.65 -21.75 7.45 -23.55 6.05 -23.95 5.35 -23.45 -9.85" fill="#ffffff" fill-opacity="0.0" fill-rule="evenodd" stroke="none"/>
    <path d="M-23.45 -9.85 Q-23.95 5.35 -23.55 6.05 -21.75 7.45 -15.95 8.65 -9.9 9.95 -3.6 10.15 1.95 10.35 10.85 7.55 17.25 5.55 21.65 3.75 L20.45 -9.7" fill="none" stroke="#000000" stroke-linecap="round" stroke-linejoin="round" stroke-width="1.0"/>
  </g>
</svg>
