<?xml version="1.0" encoding="UTF-8" standalone="no"?>
<svg xmlns:xlink="http://www.w3.org/1999/xlink" height="67.75px" width="29.35px" xmlns="http://www.w3.org/2000/svg">
  <g transform="matrix(1.0, 0.0, 0.0, 1.0, 15.65, 1.65)">
    <path d="M0.3 42.2 L-0.75 35.65 Q0.1 39.85 7.45 55.3 2.4 49.8 0.3 42.2 M1.3 51.05 Q-1.05 47.85 -3.55 43.45 -9.45 33.5 -11.3 26.0 L-14.35 3.1 -10.15 22.1 Q-4.95 41.85 1.3 51.05" fill="#000000" fill-opacity="0.14901961" fill-rule="evenodd" stroke="none"/>
    <path d="M12.0 0.0 L12.1 2.05 Q12.45 14.3 11.45 56.1 6.25 58.05 -4.7 57.2 L-13.95 56.05 -15.1 2.05 -15.15 0.0 Q-7.6 -1.65 -1.15 -1.65 5.2 -1.6 12.0 0.0 M1.85 51.95 L1.3 51.05 Q-4.4 41.5 -8.45 26.8 L-11.4 13.25 -8.45 26.8 Q-4.4 41.5 1.3 51.05 L1.85 51.95 M0.3 42.2 Q2.4 49.8 7.45 55.3 0.1 39.85 -0.75 35.65 L0.3 42.2 M1.3 51.05 Q-4.95 41.85 -10.15 22.1 L-14.35 3.1 -11.3 26.0 Q-9.45 33.5 -3.55 43.45 -1.05 47.85 1.3 51.05" fill="#ffffff" fill-opacity="0.0" fill-rule="evenodd" stroke="none"/>
    <path d="M-13.95 56.05 L-4.7 57.2 Q6.25 58.05 11.45 56.1 L13.2 56.35 13.1 57.65 Q13.05 58.95 12.8 59.45 12.65 60.1 12.85 62.55 13.05 63.4 12.4 63.85 11.55 64.5 8.6 64.95 L-2.0 65.6 -12.25 65.0 Q-14.55 64.4 -14.0 63.55 -12.95 62.6 -12.95 62.2 L-14.2 59.95 Q-15.4 57.85 -14.55 55.95 L-13.95 56.05 M6.0 60.4 L0.95 61.2 -7.35 60.5 -11.5 59.45 -9.25 61.15 Q-6.5 62.85 -3.35 62.55 0.25 62.25 6.0 60.4" fill="#ffffff" fill-opacity="0.09803922" fill-rule="evenodd" stroke="none"/>
    <path d="M6.0 60.4 Q0.25 62.25 -3.35 62.55 -6.5 62.85 -9.25 61.15 L-11.5 59.45 -7.35 60.5 0.95 61.2 6.0 60.4" fill="#000000" fill-opacity="0.047058824" fill-rule="evenodd" stroke="none"/>
    <path d="M11.45 56.1 Q12.45 14.3 12.1 2.05 L12.0 0.0 M-15.15 0.0 L-15.1 2.05 -13.95 56.05 -14.55 55.95 Q-15.4 57.85 -14.2 59.95 L-12.95 62.2 Q-12.95 62.6 -14.0 63.55 -14.55 64.4 -12.25 65.0 L-2.0 65.6 8.6 64.95 Q11.55 64.5 12.4 63.85 13.05 63.4 12.85 62.55 12.65 60.1 12.8 59.45 13.05 58.95 13.1 57.65 L13.2 56.35 11.45 56.1" fill="none" stroke="#000000" stroke-linecap="round" stroke-linejoin="round" stroke-width="1.0"/>
    <path d="M-11.4 13.25 L-8.45 26.8 Q-4.4 41.5 1.3 51.05 L1.85 51.95" fill="none" stroke="#000000" stroke-linecap="round" stroke-linejoin="round" stroke-opacity="0.4" stroke-width="1.0"/>
    <path d="M-13.95 56.05 L-4.7 57.2 Q6.25 58.05 11.45 56.1 Z" fill="none" stroke="#000000" stroke-linecap="round" stroke-linejoin="round" stroke-opacity="0.6" stroke-width="1.0"/>
  </g>
</svg>
