<?xml version="1.0" encoding="UTF-8" standalone="no"?>
<svg xmlns:xlink="http://www.w3.org/1999/xlink" height="42.8px" width="16.05px" xmlns="http://www.w3.org/2000/svg">
  <g transform="matrix(1.0, 0.0, 0.0, 1.0, 16.5, 1.55)">
    <path d="M-9.3 7.9 L-9.15 7.9 -9.25 7.95 Q-11.4 8.7 -13.75 8.4 L-15.4 7.95 -13.75 8.4 Q-11.4 8.7 -9.25 7.95 L-6.9 15.8 -6.75 15.75 Q-9.95 17.1 -13.25 16.7 L-15.5 16.15 -13.25 16.7 Q-9.95 17.1 -6.75 15.75 L-6.85 15.85 -4.45 22.55 -4.2 23.15 Q-7.85 24.7 -11.9 24.0 L-15.2 23.05 -11.9 24.0 Q-7.85 24.7 -4.2 23.15 -2.75 27.0 -2.0 31.35 -1.2 35.45 -1.0 40.1 L-1.45 40.25 -11.1 39.6 -14.9 38.4 -15.0 30.85 -10.55 31.65 -2.0 31.35 -10.55 31.65 -15.0 30.85 -15.2 23.05 -15.35 23.0 -15.2 23.0 -15.5 16.15 -15.5 16.1 -15.9 16.0 -15.55 16.0 -15.8 12.85 -16.0 10.5 -15.4 7.95 -15.7 7.85 -15.4 7.9 Q-13.95 2.4 -11.5 -0.4 L-9.75 6.35 -9.3 7.9" fill="#ffffff" fill-opacity="0.0" fill-rule="evenodd" stroke="none"/>
    <path d="M-15.35 23.0 L-15.2 23.05" fill="none" stroke="#000000" stroke-linecap="butt" stroke-linejoin="miter-clip" stroke-miterlimit="10.0" stroke-opacity="0.6" stroke-width="1.0"/>
    <path d="M-9.3 7.9 L-9.75 6.35 -11.5 -0.4 Q-13.95 2.4 -15.4 7.9 M-15.7 7.85 L-15.4 7.95 -16.0 10.5 -15.8 12.85 -15.55 16.0 M-9.25 7.95 L-9.15 7.9 M-15.5 16.1 L-15.5 16.15 -15.2 23.0 M-6.9 15.8 L-9.25 7.95 M-4.2 23.15 L-4.45 22.55 -6.85 15.85 M-15.0 30.85 L-14.9 38.4 -11.1 39.6 -1.45 40.25 -1.0 40.1 Q-1.2 35.45 -2.0 31.35 -2.75 27.0 -4.2 23.15 M-15.2 23.05 L-15.0 30.85" fill="none" stroke="#000000" stroke-linecap="round" stroke-linejoin="miter-clip" stroke-miterlimit="10.0" stroke-opacity="0.4" stroke-width="1.0"/>
    <path d="M-15.4 7.95 L-13.75 8.4 Q-11.4 8.7 -9.25 7.95 M-15.5 16.15 L-13.25 16.7 Q-9.95 17.1 -6.75 15.75 M-2.0 31.35 L-10.55 31.65 -15.0 30.85" fill="none" stroke="#000000" stroke-linecap="round" stroke-linejoin="miter-clip" stroke-miterlimit="10.0" stroke-opacity="0.24705882" stroke-width="1.0"/>
    <path d="M-15.2 23.05 L-11.9 24.0 Q-7.85 24.7 -4.2 23.15" fill="none" stroke="#000000" stroke-linecap="butt" stroke-linejoin="miter-clip" stroke-miterlimit="10.0" stroke-opacity="0.24705882" stroke-width="1.0"/>
  </g>
</svg>
