<?xml version="1.0" encoding="UTF-8" standalone="no"?>
<svg xmlns:xlink="http://www.w3.org/1999/xlink" height="49.1px" width="28.3px" xmlns="http://www.w3.org/2000/svg">
  <g transform="matrix(1.0, 0.0, 0.0, 1.0, 18.85, 20.25)">
    <path d="M8.85 -18.45 Q9.2 -14.9 8.45 2.4 7.65 19.65 6.55 26.1 4.8 26.2 1.75 27.05 L-2.9 28.2 -9.1 27.8 Q-12.9 27.05 -14.05 26.15 -15.3 3.65 -18.35 -18.45 -5.15 -22.0 8.85 -18.45" fill="#ffffff" fill-opacity="0.0" fill-rule="evenodd" stroke="none"/>
    <path d="M8.85 -18.45 Q9.2 -14.9 8.45 2.4 7.65 19.65 6.55 26.1 4.8 26.2 1.75 27.05 L-2.9 28.2 -9.1 27.8 Q-12.9 27.05 -14.05 26.15 -15.3 3.65 -18.35 -18.45" fill="none" stroke="#000000" stroke-linecap="round" stroke-linejoin="round" stroke-width="1.0"/>
    <path d="M6.85 24.15 Q4.8 24.2 1.75 25.05 L-2.9 26.2 -9.1 25.8 Q-12.9 25.05 -14.2 24.1" fill="none" stroke="#000000" stroke-linecap="round" stroke-linejoin="round" stroke-opacity="0.29803923" stroke-width="1.0"/>
  </g>
</svg>
