<?xml version="1.0" encoding="UTF-8" standalone="no"?>
<svg xmlns:xlink="http://www.w3.org/1999/xlink" height="55.5px" width="10.6px" xmlns="http://www.w3.org/2000/svg">
  <g transform="matrix(1.0, 0.0, 0.0, 1.0, 5.3, 27.85)">
    <path d="M4.5 -26.95 Q4.85 -13.85 4.3 -6.4 L3.15 7.55 2.35 18.05 1.9 27.0 0.55 27.45 0.1 27.55 0.1 27.65 -0.15 27.65 -0.15 27.55 -0.3 27.55 -0.85 27.6 -0.85 27.4 -1.85 27.0 -1.9 22.9 -2.5 11.45 -3.65 -2.2 -4.6 -16.05 Q-4.7 -22.95 -4.45 -26.95 -2.45 -27.85 -0.2 -27.85 L-0.15 -25.05 -0.15 -27.8 0.1 -27.8 0.1 -25.05 0.15 -27.85 1.55 -27.7 4.5 -26.95" fill="#ffffff" fill-opacity="0.0" fill-rule="evenodd" stroke="none"/>
    <path d="M4.5 -26.95 Q4.85 -13.85 4.3 -6.4 L3.15 7.55 2.35 18.05 1.9 27.0 M-1.85 27.0 L-1.9 22.9 -2.5 11.45 -3.65 -2.2 -4.6 -16.05 Q-4.7 -22.95 -4.45 -26.95" fill="none" stroke="#000000" stroke-linecap="square" stroke-linejoin="round" stroke-width="1.0"/>
  </g>
</svg>
