<?xml version="1.0" encoding="UTF-8" standalone="no"?>
<svg xmlns:xlink="http://www.w3.org/1999/xlink" height="70.85px" width="21.45px" xmlns="http://www.w3.org/2000/svg">
  <g transform="matrix(1.0, 0.0, 0.0, 1.0, 11.3, -6.95)">
    <path d="M6.0 13.25 L7.55 12.65 7.2 42.35 Q6.75 72.05 5.95 72.0 L6.0 13.25" fill="#ffffff" fill-opacity="0.2" fill-rule="evenodd" stroke="none"/>
    <path d="M6.0 13.25 L5.95 72.0 Q6.75 72.05 7.2 42.35 L7.55 12.65 6.0 13.25 M9.1 7.45 L9.65 16.8 9.6 18.9 9.4 33.5 Q9.0 42.1 8.95 72.65 L-1.85 73.05 -4.0 72.3 -4.0 72.95 -4.05 72.25 -5.9 71.5 Q-5.4 67.5 -7.45 48.6 L-10.3 24.8 Q-10.7 21.2 -10.45 16.8 L-10.25 13.9 -9.55 8.7 9.1 7.45 M-5.55 16.8 L-5.65 18.35 Q-5.8 23.7 -4.5 35.6 -3.2 48.5 -3.5 62.0 -3.55 68.05 -4.05 72.25 -3.55 68.05 -3.5 62.0 -3.2 48.5 -4.5 35.6 -5.8 23.7 -5.65 18.35 L-5.55 16.8" fill="#ffffff" fill-opacity="0.0" fill-rule="evenodd" stroke="none"/>
    <path d="M-4.0 72.3 L-1.85 73.05 8.95 72.65 Q9.0 42.1 9.4 33.5 L9.6 18.9 9.65 16.8 9.1 7.45 M-9.55 8.7 L-10.25 13.9 -10.45 16.8 Q-10.7 21.2 -10.3 24.8 L-7.45 48.6 Q-5.4 67.5 -5.9 71.5 L-4.05 72.25" fill="none" stroke="#000000" stroke-linecap="round" stroke-linejoin="miter-clip" stroke-miterlimit="10.0" stroke-width="1.0"/>
    <path d="M-4.05 72.25 Q-3.55 68.05 -3.5 62.0 -3.2 48.5 -4.5 35.6 -5.8 23.7 -5.65 18.35 L-5.55 16.8" fill="none" stroke="#000000" stroke-linecap="round" stroke-linejoin="miter-clip" stroke-miterlimit="10.0" stroke-opacity="0.4" stroke-width="1.0"/>
  </g>
</svg>
