<?xml version="1.0" encoding="UTF-8" standalone="no"?>
<svg xmlns:xlink="http://www.w3.org/1999/xlink" height="75.55px" width="23.5px" xmlns="http://www.w3.org/2000/svg">
  <g transform="matrix(1.0, 0.0, 0.0, 1.0, 11.7, 1.2)">
    <path d="M-11.0 11.85 L-5.95 6.1 11.25 9.75 11.3 15.3 -3.9 12.15 -6.55 14.4 -6.4 36.45 Q-6.05 61.0 -5.0 73.3 L-8.8 72.6 -9.75 64.3 Q-10.75 52.85 -11.05 36.65 L-11.05 36.6 -11.1 33.9 -11.2 21.5 -11.05 12.9 -11.0 11.85" fill="#000000" fill-opacity="0.24705882" fill-rule="evenodd" stroke="none"/>
    <path d="M5.4 17.0 L4.55 38.1 Q3.45 61.4 1.95 72.45 L5.75 72.0 7.4 48.85 Q8.8 24.35 7.7 17.7 L5.4 17.0 M10.5 0.05 L11.25 9.75 -5.95 6.1 -11.0 11.85 -10.9 8.25 -10.4 0.05 Q-0.15 -2.45 10.5 0.05 M11.3 15.3 Q11.25 25.35 10.2 41.55 9.15 57.7 7.65 72.3 4.1 74.4 -2.7 73.7 L-5.0 73.3 Q-6.05 61.0 -6.4 36.45 L-6.55 14.4 -3.9 12.15 11.3 15.3" fill="#ffffff" fill-opacity="0.0" fill-rule="evenodd" stroke="none"/>
    <path d="M5.4 17.0 L7.7 17.7 Q8.8 24.35 7.4 48.85 L5.75 72.0 1.95 72.45 Q3.45 61.4 4.55 38.1 L5.4 17.0" fill="#ffffff" fill-opacity="0.8" fill-rule="evenodd" stroke="none"/>
    <path d="M11.25 9.75 L10.5 0.05 M-10.4 0.05 L-10.9 8.25 -11.0 11.85 -11.05 12.9 -11.2 21.5 -11.1 33.9 -11.05 36.6 M11.25 9.75 L11.3 15.3 Q11.25 25.35 10.2 41.55 9.15 57.7 7.65 72.3 4.1 74.4 -2.7 73.7 L-5.0 73.3 -8.8 72.6 -9.75 64.3 Q-10.75 52.85 -11.05 36.65" fill="none" stroke="#000000" stroke-linecap="round" stroke-linejoin="miter-clip" stroke-miterlimit="10.0" stroke-width="1.0"/>
    <path d="M-11.0 11.85 L-5.95 6.1 11.25 9.75 M-5.0 73.3 Q-6.05 61.0 -6.4 36.45 L-6.55 14.4 -3.9 12.15 11.3 15.3" fill="none" stroke="#000000" stroke-linecap="round" stroke-linejoin="miter-clip" stroke-miterlimit="10.0" stroke-opacity="0.6" stroke-width="1.0"/>
  </g>
</svg>
