<?xml version="1.0" encoding="UTF-8" standalone="no"?>
<svg xmlns:xlink="http://www.w3.org/1999/xlink" height="70.6px" width="16.8px" xmlns="http://www.w3.org/2000/svg">
  <g transform="matrix(1.0, 0.0, 0.0, 1.0, 8.4, 1.05)">
    <path d="M5.65 0.0 L6.9 9.6 Q8.05 20.6 7.85 27.8 7.65 34.15 5.95 44.5 4.2 55.0 4.05 58.05 L3.75 67.85 Q-0.9 71.25 -4.4 67.85 -4.5 61.1 -4.75 55.2 -4.9 51.8 -6.5 43.6 -7.95 36.05 -7.9 31.75 -7.85 27.3 -7.0 21.4 -6.1 15.0 -6.0 12.75 -5.75 7.05 -6.35 0.0 -0.35 -2.1 5.65 0.0" fill="#ffffff" fill-opacity="0.0" fill-rule="evenodd" stroke="none"/>
    <path d="M5.65 0.0 L6.9 9.6 Q8.05 20.6 7.85 27.8 7.65 34.15 5.95 44.5 4.2 55.0 4.05 58.05 L3.75 67.85 M-4.4 67.85 Q-4.5 61.1 -4.75 55.2 -4.9 51.8 -6.5 43.6 -7.95 36.05 -7.9 31.75 -7.85 27.3 -7.0 21.4 -6.1 15.0 -6.0 12.75 -5.75 7.05 -6.35 0.0" fill="none" stroke="#000000" stroke-linecap="round" stroke-linejoin="round" stroke-width="1.0"/>
  </g>
</svg>
