<?xml version="1.0" encoding="UTF-8" standalone="no"?>
<svg xmlns:xlink="http://www.w3.org/1999/xlink" height="74.4px" width="21.0px" xmlns="http://www.w3.org/2000/svg">
  <g transform="matrix(1.0, 0.0, 0.0, 1.0, 10.25, 37.55)">
    <path d="M9.75 -36.7 L9.75 -36.45 10.2 -24.55 10.2 -14.15 9.8 -6.1 9.3 -1.75 8.15 4.95 7.0 10.45 7.0 10.5 Q4.95 19.75 4.5 23.15 L4.5 23.2 4.4 23.9 4.05 30.3 4.0 32.6 3.8 36.35 0.55 36.6 -2.95 36.3 -4.0 36.0 -4.6 27.85 -5.25 21.05 -5.75 17.85 Q-6.35 14.6 -7.6 9.6 L-7.95 8.05 -8.5 5.65 Q-9.5 0.9 -9.65 -2.2 L-9.55 -8.7 -9.25 -12.6 -8.95 -16.45 -8.9 -16.75 -8.7 -21.25 -9.0 -28.1 -9.7 -36.3 -9.75 -36.7 Q-1.6 -38.35 9.75 -36.7" fill="#ffffff" fill-opacity="0.0" fill-rule="evenodd" stroke="none"/>
    <path d="M9.75 -36.7 L9.75 -36.45 10.2 -24.55 10.2 -14.15 9.8 -6.1 9.3 -1.75 8.15 4.95 7.0 10.45 7.0 10.5 Q4.95 19.75 4.5 23.15 L4.5 23.2 4.4 23.9 4.05 30.3 4.0 32.6 3.8 36.35 M-4.0 36.0 L-4.6 27.85 -5.25 21.05 -5.75 17.85 Q-6.35 14.6 -7.6 9.6 L-7.95 8.05 -8.5 5.65 Q-9.5 0.9 -9.65 -2.2 L-9.55 -8.7 -9.25 -12.6 -8.95 -16.45 -8.9 -16.75 -8.7 -21.25 -9.0 -28.1 -9.7 -36.3 -9.75 -36.7" fill="none" stroke="#000000" stroke-linecap="round" stroke-linejoin="round" stroke-width="1.0"/>
  </g>
</svg>
