<?xml version="1.0" encoding="UTF-8" standalone="no"?>
<svg xmlns:xlink="http://www.w3.org/1999/xlink" height="57.6px" width="15.95px" xmlns="http://www.w3.org/2000/svg">
  <g transform="matrix(1.0, 0.0, 0.0, 1.0, 6.5, 1.35)">
    <path d="M6.0 0.0 L7.5 6.95 Q8.35 11.4 8.6 15.25 10.05 36.0 5.25 54.05 L1.8 54.85 -1.5 54.9 Q-3.45 54.7 -4.95 53.9 -4.95 48.95 -5.85 41.65 -5.75 33.8 -5.8 20.25 L-6.0 0.0 Q0.2 -2.7 6.0 0.0 M0.0 9.05 L-0.35 29.6 Q-0.85 50.9 -1.5 54.9 -0.85 50.9 -0.35 29.6 L0.0 9.05 M-2.45 8.25 Q-3.8 6.6 -4.4 8.25 L-3.5 53.35 -2.45 8.25" fill="#ffffff" fill-opacity="0.0" fill-rule="evenodd" stroke="none"/>
    <path d="M-2.45 8.25 L-3.5 53.35 -4.4 8.25 Q-3.8 6.6 -2.45 8.25" fill="#ffffff" fill-opacity="0.8" fill-rule="evenodd" stroke="none"/>
    <path d="M-1.5 54.9 L1.8 54.85 5.25 54.05 Q10.05 36.0 8.6 15.25 8.35 11.4 7.5 6.95 L6.0 0.0 M-6.0 0.0 L-5.8 20.25 Q-5.75 33.8 -5.85 41.65 -4.95 48.95 -4.95 53.9 -3.45 54.7 -1.5 54.9" fill="none" stroke="#000000" stroke-linecap="round" stroke-linejoin="miter-clip" stroke-miterlimit="10.0" stroke-width="1.0"/>
    <path d="M-1.5 54.9 Q-0.85 50.9 -0.35 29.6 L0.0 9.05" fill="none" stroke="#000000" stroke-linecap="round" stroke-linejoin="miter-clip" stroke-miterlimit="10.0" stroke-opacity="0.4" stroke-width="1.0"/>
  </g>
</svg>
