<?xml version="1.0" encoding="UTF-8" standalone="no"?>
<svg xmlns:xlink="http://www.w3.org/1999/xlink" height="52.55px" width="24.45px" xmlns="http://www.w3.org/2000/svg">
  <g transform="matrix(1.0, 0.0, 0.0, 1.0, 11.9, 40.3)">
    <path d="M-6.65 10.65 Q-9.2 -3.7 -9.8 -8.75 -10.85 -17.3 -11.2 -25.3 -11.65 -33.45 -11.15 -36.45 L-10.85 -38.7 Q-6.25 -39.85 -0.3 -39.8 5.75 -39.8 11.65 -38.65 L11.9 -36.45 Q12.3 -33.25 11.45 -23.75 10.65 -15.4 9.55 -7.85 L7.8 1.55 6.05 10.65 Q2.65 12.25 -0.3 12.25 -3.25 12.25 -6.65 10.65" fill="#ffffff" fill-opacity="0.0" fill-rule="evenodd" stroke="none"/>
    <path d="M-6.65 10.65 Q-9.2 -3.7 -9.8 -8.75 -10.85 -17.3 -11.2 -25.3 -11.65 -33.45 -11.15 -36.45 L-10.85 -38.7 Q-6.25 -39.85 -0.3 -39.8 5.75 -39.8 11.65 -38.65 L11.9 -36.45 Q12.3 -33.25 11.45 -23.75 10.65 -15.4 9.55 -7.85 L7.8 1.55 6.05 10.65" fill="none" stroke="#000000" stroke-linecap="round" stroke-linejoin="round" stroke-width="1.0"/>
  </g>
</svg>
