<?xml version="1.0" encoding="UTF-8" standalone="no"?>
<svg xmlns:xlink="http://www.w3.org/1999/xlink" height="33.55px" width="22.65px" xmlns="http://www.w3.org/2000/svg">
  <g transform="matrix(1.0, 0.0, 0.0, 1.0, 11.05, 21.3)">
    <path d="M-6.65 10.65 L-8.9 -1.65 Q-10.5 -11.55 -10.55 -16.5 L-10.45 -19.7 Q-1.15 -21.95 10.85 -19.65 L11.1 -16.7 Q10.7 -11.2 8.65 -1.5 L6.05 10.65 Q2.55 12.25 -0.3 12.25 -3.1 12.25 -6.65 10.65 M11.1 -16.7 L-0.4 -17.8 Q-5.4 -17.85 -10.55 -16.5 -5.4 -17.85 -0.4 -17.8 L11.1 -16.7" fill="#ffffff" fill-opacity="0.0" fill-rule="evenodd" stroke="none"/>
    <path d="M-6.65 10.65 L-8.9 -1.65 Q-10.5 -11.55 -10.55 -16.5 L-10.45 -19.7 Q-1.15 -21.95 10.85 -19.65 L11.1 -16.7 Q10.7 -11.2 8.65 -1.5 L6.05 10.65" fill="none" stroke="#000000" stroke-linecap="round" stroke-linejoin="round" stroke-width="1.0"/>
    <path d="M-10.55 -16.5 Q-5.4 -17.85 -0.4 -17.8 L11.1 -16.7" fill="none" stroke="#000000" stroke-linecap="round" stroke-linejoin="round" stroke-opacity="0.4" stroke-width="1.0"/>
  </g>
</svg>
