<?xml version="1.0" encoding="UTF-8" standalone="no"?>
<svg xmlns:xlink="http://www.w3.org/1999/xlink" height="44.0px" width="18.6px" xmlns="http://www.w3.org/2000/svg">
  <g transform="matrix(1.0, 0.0, 0.0, 1.0, 9.6, 2.75)">
    <path d="M8.35 -2.25 L8.4 -0.95 8.45 0.35 Q0.5 1.25 -8.35 0.15 L-8.2 -0.85 -8.1 -1.55 -8.0 -2.1 Q0.55 -1.35 8.35 -2.25 M8.3 7.75 L8.05 10.25 Q0.2 11.05 -9.1 10.3 L-9.15 8.85 -9.15 8.8 -9.1 7.6 Q0.25 8.55 8.3 7.75 M8.5 2.75 L8.45 4.85 8.45 5.15 Q0.3 6.05 -8.95 5.3 L-8.65 2.6 Q0.25 3.55 8.5 2.75 M7.75 12.8 L7.35 15.35 Q0.25 16.05 -8.55 15.3 L-8.9 13.05 -8.9 12.6 Q0.05 13.55 7.75 12.8 M6.05 22.95 L5.8 24.25 5.6 25.5 Q-0.55 26.0 -6.55 25.4 L-6.6 25.4 -6.75 24.4 -7.0 23.35 -7.1 22.85 Q-0.3 23.5 6.05 22.95 M6.95 17.9 L6.5 20.45 Q-0.2 21.0 -7.6 20.3 L-8.15 17.7 Q0.05 18.55 6.95 17.9 M5.15 28.05 L4.7 30.55 Q-0.5 30.9 -5.65 30.5 L-6.1 27.95 Q-0.5 28.45 5.15 28.05 M4.35 33.1 L4.1 34.8 4.05 35.6 Q-0.6 35.85 -5.15 35.55 L-5.35 33.0 Q-0.55 33.4 4.35 33.1 M3.8 38.15 L3.7 39.85 3.65 40.65 Q-0.7 40.85 -5.05 40.55 L-5.1 38.25 -5.1 38.05 Q-0.65 38.35 3.8 38.15" fill="#ffffff" fill-opacity="0.0" fill-rule="evenodd" stroke="none"/>
    <path d="M8.45 0.35 Q0.5 1.25 -8.35 0.15 M-8.0 -2.1 Q0.55 -1.35 8.35 -2.25 M8.05 10.25 Q0.2 11.05 -9.1 10.3 M-9.1 7.6 Q0.25 8.55 8.3 7.75 M8.45 5.15 Q0.3 6.05 -8.95 5.3 M-8.65 2.6 Q0.25 3.55 8.5 2.75 M7.35 15.35 Q0.25 16.05 -8.55 15.3 M-8.9 12.6 Q0.05 13.55 7.75 12.8 M6.05 22.95 Q-0.3 23.5 -7.1 22.85 M-6.6 25.4 L-6.55 25.4 Q-0.55 26.0 5.6 25.5 M6.5 20.45 Q-0.2 21.0 -7.6 20.3 M-8.15 17.7 Q0.05 18.55 6.95 17.9 M4.7 30.55 Q-0.5 30.9 -5.65 30.5 M-6.1 27.95 Q-0.5 28.45 5.15 28.05 M4.05 35.6 Q-0.6 35.85 -5.15 35.55 M-5.35 33.0 Q-0.55 33.4 4.35 33.1 M3.65 40.65 Q-0.7 40.85 -5.05 40.55 M-5.1 38.05 Q-0.65 38.35 3.8 38.15" fill="none" stroke="#000000" stroke-linecap="round" stroke-linejoin="round" stroke-opacity="0.4" stroke-width="1.0"/>
  </g>
</svg>
