<?xml version="1.0" encoding="UTF-8" standalone="no"?>
<svg xmlns:xlink="http://www.w3.org/1999/xlink" height="57.2px" width="17.7px" xmlns="http://www.w3.org/2000/svg">
  <g transform="matrix(1.0, 0.0, 0.0, 1.0, 9.15, 1.35)">
    <path d="M7.95 0.0 L8.05 53.25 Q6.0 54.45 2.9 55.05 -3.3 56.2 -8.65 53.0 L-7.85 0.05 Q-5.75 -0.7 -2.75 -1.1 3.25 -1.9 7.95 0.0" fill="#ffffff" fill-opacity="0.0" fill-rule="evenodd" stroke="none"/>
    <path d="M7.95 0.0 L8.05 53.25 Q6.0 54.45 2.9 55.05 -3.3 56.2 -8.65 53.0 L-7.85 0.05" fill="none" stroke="#000000" stroke-linecap="round" stroke-linejoin="round" stroke-width="1.0"/>
    <path d="M3.9 54.45 Q2.5 53.7 1.85 50.35 L1.1 45.45 Q2.35 46.5 3.25 48.55 L4.55 52.15 M-0.35 54.55 Q-3.85 53.6 -5.45 46.65 -6.65 41.3 -6.3 36.85" fill="none" stroke="#000000" stroke-linecap="round" stroke-linejoin="round" stroke-opacity="0.4" stroke-width="1.0"/>
  </g>
</svg>
