<?xml version="1.0" encoding="UTF-8" standalone="no"?>
<svg xmlns:xlink="http://www.w3.org/1999/xlink" height="24.3px" width="37.6px" xmlns="http://www.w3.org/2000/svg">
  <g transform="matrix(1.0, 0.0, 0.0, 1.0, 0.05, 2.6)">
    <path d="M25.8 14.8 L21.5 14.5 Q27.35 13.9 31.05 12.6 32.9 12.0 33.55 11.45 34.95 11.95 35.45 12.4 31.0 14.7 25.8 14.8 M16.5 8.4 Q13.15 9.8 10.7 10.35 8.0 10.95 5.9 9.2 L4.35 7.35 Q6.85 10.15 11.65 8.95 L21.15 6.55 Q20.3 6.8 16.5 8.4" fill="#ffffff" fill-opacity="0.29803923" fill-rule="evenodd" stroke="none"/>
    <path d="M25.8 14.8 Q31.0 14.7 35.45 12.4 34.95 11.95 33.55 11.45 32.9 12.0 31.05 12.6 27.35 13.9 21.5 14.5 L25.8 14.8 M7.6 15.45 Q6.65 15.65 0.6 12.1 0.25 10.45 0.85 5.95 1.3 3.5 2.25 1.95 3.05 0.6 3.35 0.95 7.2 2.7 8.9 2.8 10.7 2.95 11.9 1.5 14.4 -1.45 17.65 0.1 20.1 4.25 27.8 7.65 35.75 11.2 35.9 11.4 36.8 12.6 36.45 15.3 L35.9 17.8 33.75 18.55 Q30.45 20.2 25.3 19.8 20.6 19.45 19.0 18.05 17.7 16.9 14.15 15.4 L13.35 15.05 Q10.7 13.9 9.5 13.75 8.45 13.65 7.95 14.55 L7.6 15.45 M16.5 8.4 Q20.3 6.8 21.15 6.55 L11.65 8.95 Q6.85 10.15 4.35 7.35 L5.9 9.2 Q8.0 10.95 10.7 10.35 13.15 9.8 16.5 8.4" fill="#ffffff" fill-opacity="0.0" fill-rule="evenodd" stroke="none"/>
    <path d="M7.6 15.45 L7.95 14.55 Q8.45 13.65 9.5 13.75 10.7 13.9 13.35 15.05 L7.6 15.45" fill="#000000" fill-opacity="0.2" fill-rule="evenodd" stroke="none"/>
    <path d="M13.35 15.05 L14.15 15.4 Q17.7 16.9 19.0 18.05 20.6 19.45 25.3 19.8 30.45 20.2 33.75 18.55 L35.9 17.8 36.45 15.3 Q36.8 12.6 35.9 11.4 35.75 11.2 27.8 7.65 20.1 4.25 17.65 0.1 14.4 -1.45 11.9 1.5 10.7 2.95 8.9 2.8 7.2 2.7 3.35 0.95 3.05 0.6 2.25 1.95 1.3 3.5 0.85 5.95 0.25 10.45 0.6 12.1 6.65 15.65 7.6 15.45 L7.95 14.55 Q8.45 13.65 9.5 13.75 10.7 13.9 13.35 15.05 L7.6 15.45" fill="none" stroke="#000000" stroke-linecap="round" stroke-linejoin="miter-clip" stroke-miterlimit="10.0" stroke-width="1.0"/>
    <path d="M24.75 6.65 Q22.3 6.75 18.05 8.8 L13.0 10.95 16.0 12.45 22.1 12.8 Q24.4 12.2 27.7 10.7 30.6 9.35 31.45 9.25 M1.15 5.45 Q2.15 7.3 3.85 9.0 7.25 12.35 10.7 11.65 L13.0 10.95" fill="none" stroke="#000000" stroke-linecap="round" stroke-linejoin="miter-clip" stroke-miterlimit="10.0" stroke-opacity="0.4" stroke-width="1.0"/>
  </g>
</svg>
