<?xml version="1.0" encoding="UTF-8" standalone="no"?>
<svg xmlns:xlink="http://www.w3.org/1999/xlink" height="28.65px" width="34.0px" xmlns="http://www.w3.org/2000/svg">
  <g transform="matrix(1.0, 0.0, 0.0, 1.0, 1.6, 3.45)">
    <path d="M22.5 11.8 L29.9 10.7 Q25.95 12.0 23.2 12.5 L19.4 12.2 17.65 11.55 19.35 11.75 22.5 11.8" fill="#ffffff" fill-opacity="0.2" fill-rule="evenodd" stroke="none"/>
    <path d="M15.5 4.7 L7.95 4.7 0.1 4.6 -0.45 4.5 Q-1.0 4.2 -0.9 2.2 L-0.75 0.25 7.35 0.0 16.1 0.5 Q16.95 1.45 16.95 4.75 L15.5 4.7" fill="#ffffff" fill-opacity="0.14901961" fill-rule="evenodd" stroke="none"/>
    <path d="M-1.0 14.05 L6.55 15.7 18.6 16.9 Q29.0 17.25 31.55 15.25 L30.7 21.65 Q26.4 24.05 19.1 23.75 14.7 23.55 11.05 22.6 L-0.45 20.7 -1.0 14.05" fill="#ffffff" fill-opacity="0.09803922" fill-rule="evenodd" stroke="none"/>
    <path d="M15.5 4.7 Q16.4 6.2 17.5 6.65 19.1 7.3 24.4 8.55 L30.4 9.75 Q31.1 9.75 31.4 12.5 L31.55 15.25 Q29.0 17.25 18.6 16.9 L6.55 15.7 -1.0 14.05 Q-1.35 12.7 -0.35 7.2 L0.1 4.6 7.95 4.7 15.5 4.7 M22.5 11.8 L19.35 11.75 17.65 11.55 19.4 12.2 23.2 12.5 Q25.95 12.0 29.9 10.7 L22.5 11.8" fill="#ffffff" fill-opacity="0.0" fill-rule="evenodd" stroke="none"/>
    <path d="M31.55 15.25 L31.4 12.5 Q31.1 9.75 30.4 9.75 L24.4 8.55 Q19.1 7.3 17.5 6.65 16.4 6.2 15.5 4.7 M0.1 4.6 L-0.35 7.2 Q-1.35 12.7 -1.0 14.05 L-0.45 20.7 11.05 22.6 Q14.7 23.55 19.1 23.75 26.4 24.05 30.7 21.65 L31.55 15.25 M16.95 4.75 Q16.95 1.45 16.1 0.5 L7.35 0.0 -0.75 0.25 -0.9 2.2 Q-1.0 4.2 -0.45 4.5 L0.1 4.6" fill="none" stroke="#000000" stroke-linecap="round" stroke-linejoin="miter-clip" stroke-miterlimit="10.0" stroke-width="1.0"/>
    <path d="M15.5 4.7 L7.95 4.7 0.1 4.6 M-1.0 14.05 L6.55 15.7 18.6 16.9 Q29.0 17.25 31.55 15.25 M16.95 4.75 L15.5 4.7" fill="none" stroke="#000000" stroke-linecap="round" stroke-linejoin="miter-clip" stroke-miterlimit="10.0" stroke-opacity="0.4" stroke-width="1.0"/>
  </g>
</svg>
