<?xml version="1.0" encoding="UTF-8" standalone="no"?>
<svg xmlns:xlink="http://www.w3.org/1999/xlink" height="57.0px" width="23.4px" xmlns="http://www.w3.org/2000/svg">
  <g transform="matrix(1.0, 0.0, 0.0, 1.0, 10.9, 1.05)">
    <path d="M8.15 0.0 L10.7 17.85 11.25 25.65 11.75 35.7 Q12.25 43.35 11.5 52.5 4.8 56.05 -2.95 55.3 -9.9 54.55 -9.65 52.5 -9.5 51.1 -9.85 39.75 -10.15 29.4 -10.4 25.5 -10.55 22.95 -9.7 12.1 L-8.1 0.05 Q-0.05 -2.15 8.15 0.0" fill="#ffffff" fill-opacity="0.0" fill-rule="evenodd" stroke="none"/>
    <path d="M-8.1 0.05 L-9.7 12.1 Q-10.55 22.95 -10.4 25.5 -10.15 29.4 -9.85 39.75 -9.5 51.1 -9.65 52.5 -9.9 54.55 -2.95 55.3 4.8 56.05 11.5 52.5 12.25 43.35 11.75 35.7 L11.25 25.65 10.7 17.85 8.15 0.0" fill="none" stroke="#000000" stroke-linecap="butt" stroke-linejoin="miter-clip" stroke-miterlimit="10.0" stroke-width="1.0"/>
    <path d="M-1.15 35.45 L1.45 25.0 -0.5 35.5 Q-2.25 45.85 -1.15 45.35 0.65 44.6 7.65 38.75 L1.75 45.35 Q-4.15 51.5 -3.95 48.95 -3.8 46.4 -1.15 35.45" fill="#000000" fill-opacity="0.14901961" fill-rule="evenodd" stroke="none"/>
    <path d="M-9.15 17.6 L-7.3 25.0 Q-6.6 28.1 -7.3 37.55 -7.9 46.1 -8.6 48.7" fill="none" stroke="#000000" stroke-linecap="butt" stroke-linejoin="miter-clip" stroke-miterlimit="10.0" stroke-opacity="0.4" stroke-width="1.0"/>
  </g>
</svg>
