<?xml version="1.0" encoding="UTF-8" standalone="no"?>
<svg xmlns:xlink="http://www.w3.org/1999/xlink" height="39.4px" width="19.35px" xmlns="http://www.w3.org/2000/svg">
  <g transform="matrix(1.0, 0.0, 0.0, 1.0, 8.65, 18.7)">
    <path d="M-3.4 17.95 Q-4.4 16.5 -5.55 13.2 -6.35 10.7 -6.45 8.5 -6.7 1.3 -4.3 -5.4 L-3.55 -7.55 -3.5 -7.6 Q-1.65 -12.75 -1.6 -18.1 2.15 -18.4 6.35 -16.3 6.45 -14.75 7.25 -13.45 L7.95 -11.95 Q7.9 -11.45 7.0 -11.05 L6.05 -10.75 Q10.0 -10.35 10.2 -4.55 10.2 -3.9 9.6 -3.3 L8.1 -2.45 Q8.15 -4.7 6.9 -6.45 6.0 -7.85 3.9 -9.45 2.15 -9.65 1.95 -8.4 1.85 -7.95 2.8 -7.4 L1.45 -5.05 2.8 -7.4 Q5.85 -4.6 5.9 -2.65 L5.7 -1.2 Q5.5 -0.45 5.6 -0.25 L5.4 -0.05 3.65 -2.95 Q2.35 -4.55 1.45 -5.05 -0.6 -5.3 -0.55 -4.3 -0.55 -3.65 -0.2 -3.35 L0.5 -2.95 Q1.5 -2.05 2.5 -0.5 L3.4 1.1 Q4.1 2.6 3.15 4.1 L1.95 4.85 Q1.45 4.9 0.4 3.25 -0.65 1.65 -0.7 0.3 L0.5 -2.95 -0.7 0.3 Q-0.65 1.65 0.4 3.25 1.45 4.9 1.95 4.85 L3.15 4.1 Q1.95 14.05 0.1 16.0 -1.75 17.95 -3.4 17.95 M6.05 -10.75 L4.55 -10.35 Q3.9 -9.95 3.9 -9.45 3.9 -9.95 4.55 -10.35 L6.05 -10.75" fill="#ffffff" fill-opacity="0.0" fill-rule="evenodd" stroke="none"/>
    <path d="M-3.4 17.95 Q-4.75 17.7 -5.6 16.6 L-6.8 14.15 Q-7.75 11.55 -8.0 9.25 -8.3 6.7 -8.05 1.95 L-7.75 -1.0 -6.55 -4.8 -5.75 -7.55 -5.75 -7.6 -5.7 -7.95 -6.15 -9.3 -6.6 -10.75 Q-6.65 -11.85 -6.0 -14.6 -5.4 -17.0 -3.8 -17.75 L-1.6 -18.1 Q-1.65 -12.75 -3.5 -7.6 L-3.55 -7.55 -4.3 -5.4 Q-6.7 1.3 -6.45 8.5 -6.35 10.7 -5.55 13.2 -4.4 16.5 -3.4 17.95" fill="#000000" fill-opacity="0.6" fill-rule="evenodd" stroke="none"/>
    <path d="M8.1 -2.45 Q8.0 -0.5 7.15 -0.1 L5.6 -0.25 Q5.5 -0.45 5.7 -1.2 L5.9 -2.65 Q5.85 -4.6 2.8 -7.4 1.85 -7.95 1.95 -8.4 2.15 -9.65 3.9 -9.45 6.0 -7.85 6.9 -6.45 8.15 -4.7 8.1 -2.45 M5.4 -0.05 Q6.0 2.6 5.15 3.6 4.55 4.4 3.15 4.1 4.1 2.6 3.4 1.1 L2.5 -0.5 Q1.5 -2.05 0.5 -2.95 L-0.2 -3.35 Q-0.55 -3.65 -0.55 -4.3 -0.6 -5.3 1.45 -5.05 2.35 -4.55 3.65 -2.95 L5.4 -0.05" fill="#ffffff" fill-opacity="0.29803923" fill-rule="evenodd" stroke="none"/>
    <path d="M-1.6 -18.1 L-3.8 -17.75 Q-5.4 -17.0 -6.0 -14.6 -6.65 -11.85 -6.6 -10.75 L-6.15 -9.3 -5.7 -7.95 -5.75 -7.6 -5.75 -7.55 -6.55 -4.8 -7.75 -1.0 -8.05 1.95 Q-8.3 6.7 -8.0 9.25 -7.75 11.55 -6.8 14.15 L-5.6 16.6 Q-4.75 17.7 -3.4 17.95 -4.4 16.5 -5.55 13.2 -6.35 10.7 -6.45 8.5 -6.7 1.3 -4.3 -5.4 L-3.55 -7.55 -3.5 -7.6 Q-1.65 -12.75 -1.6 -18.1 2.15 -18.4 6.35 -16.3 6.45 -14.75 7.25 -13.45 L7.95 -11.95 Q7.9 -11.45 7.0 -11.05 L6.05 -10.75 Q10.0 -10.35 10.2 -4.55 10.2 -3.9 9.6 -3.3 L8.1 -2.45 Q8.0 -0.5 7.15 -0.1 L5.6 -0.25 5.4 -0.05 Q6.0 2.6 5.15 3.6 4.55 4.4 3.15 4.1 1.95 14.05 0.1 16.0 -1.75 17.95 -3.4 17.95" fill="none" stroke="#000000" stroke-linecap="butt" stroke-linejoin="miter-clip" stroke-miterlimit="10.0" stroke-width="1.0"/>
    <path d="M0.5 -2.95 L-0.2 -3.35 Q-0.55 -3.65 -0.55 -4.3 -0.6 -5.3 1.45 -5.05 L2.8 -7.4 Q1.85 -7.95 1.95 -8.4 2.15 -9.65 3.9 -9.45 3.9 -9.95 4.55 -10.35 L6.05 -10.75 M3.15 4.1 Q4.1 2.6 3.4 1.1 L2.5 -0.5 Q1.5 -2.05 0.5 -2.95 L-0.7 0.3 Q-0.65 1.65 0.4 3.25 1.45 4.9 1.95 4.85 L3.15 4.1 M1.45 -5.05 Q2.35 -4.55 3.65 -2.95 L5.4 -0.05 M5.6 -0.25 Q5.5 -0.45 5.7 -1.2 L5.9 -2.65 Q5.85 -4.6 2.8 -7.4 M3.9 -9.45 Q6.0 -7.85 6.9 -6.45 8.15 -4.7 8.1 -2.45" fill="none" stroke="#000000" stroke-linecap="butt" stroke-linejoin="miter-clip" stroke-miterlimit="10.0" stroke-opacity="0.4" stroke-width="1.0"/>
  </g>
</svg>
