<?xml version="1.0" encoding="UTF-8" standalone="no"?>
<svg xmlns:xlink="http://www.w3.org/1999/xlink" height="24.8px" width="14.4px" xmlns="http://www.w3.org/2000/svg">
  <g transform="matrix(1.0, 0.0, 0.0, 1.0, 6.5, 16.35)">
    <path d="M4.05 -15.85 Q5.25 -15.6 6.25 -14.55 L2.7 -8.45 4.75 -6.45 6.6 -3.85 Q6.2 -2.5 5.45 -1.7 L4.45 -3.25 Q2.95 -5.1 0.55 -6.65 0.0 -7.0 -4.85 -8.35 L-4.7 -11.3 Q-0.9 -10.5 0.25 -9.9 L0.8 -10.9 4.05 -15.85 M2.7 -8.45 L0.6 -9.75 0.25 -9.9 0.6 -9.75 2.7 -8.45 M3.3 5.1 Q3.2 6.8 2.3 7.95 1.7 6.5 -0.45 5.7 -3.1 4.7 -6.0 4.8 L-5.65 1.7 -0.85 2.1 -0.25 2.3 1.9 3.35 Q2.85 4.0 3.3 5.1" fill="#ffffff" fill-opacity="0.0" fill-rule="evenodd" stroke="none"/>
    <path d="M5.45 -1.7 L4.45 -3.25 Q2.95 -5.1 0.55 -6.65 0.0 -7.0 -4.85 -8.35 M2.3 7.95 Q1.7 6.5 -0.45 5.7 -3.1 4.7 -6.0 4.8 M-5.65 1.7 L-0.85 2.1 -0.25 2.3 1.9 3.35 Q2.85 4.0 3.3 5.1" fill="none" stroke="#000000" stroke-linecap="butt" stroke-linejoin="miter-clip" stroke-miterlimit="10.0" stroke-width="1.0"/>
    <path d="M4.05 -15.85 Q5.25 -15.6 6.25 -14.55 M6.6 -3.85 Q6.2 -2.5 5.45 -1.7 M-4.85 -8.35 L-4.7 -11.3 M3.3 5.1 Q3.2 6.8 2.3 7.95 M-6.0 4.8 L-5.65 1.7" fill="none" stroke="#000000" stroke-linecap="butt" stroke-linejoin="miter-clip" stroke-miterlimit="10.0" stroke-opacity="0.4" stroke-width="1.0"/>
    <path d="M6.25 -14.55 L2.7 -8.45 M-4.7 -11.3 Q-0.9 -10.5 0.25 -9.9" fill="none" stroke="#000000" stroke-linecap="butt" stroke-linejoin="miter-clip" stroke-miterlimit="10.0" stroke-width="1.0"/>
    <path d="M2.7 -8.45 L4.75 -6.45 6.6 -3.85 M0.25 -9.9 L0.8 -10.9 4.05 -15.85" fill="none" stroke="#000000" stroke-linecap="round" stroke-linejoin="miter-clip" stroke-miterlimit="10.0" stroke-width="1.0"/>
    <path d="M0.25 -9.9 L0.6 -9.75 2.7 -8.45" fill="none" stroke="#000000" stroke-linecap="round" stroke-linejoin="miter-clip" stroke-miterlimit="10.0" stroke-width="1.0"/>
  </g>
</svg>
