<?xml version="1.0" encoding="UTF-8" standalone="no"?>
<svg xmlns:xlink="http://www.w3.org/1999/xlink" height="38.15px" width="23.3px" xmlns="http://www.w3.org/2000/svg">
  <g transform="matrix(1.0, 0.0, 0.0, 1.0, 13.0, 20.2)">
    <path d="M-8.05 -0.95 L-6.75 -6.25 Q-6.85 -10.55 -6.15 -12.85 -5.25 -15.85 -4.4 -17.25 -2.65 -17.45 0.1 -16.6 3.8 -15.5 4.9 -15.35 L6.6 -15.45 8.25 -15.2 8.35 -12.55 8.35 -11.7 Q5.65 -11.55 2.75 -10.05 -2.95 -7.0 -4.7 0.05 -2.95 -7.0 2.75 -10.05 5.65 -11.55 8.35 -11.7 8.25 -10.05 7.9 -9.65 7.8 -9.5 6.4 -9.0 4.7 -8.35 3.35 -7.45 2.0 -6.55 0.95 -5.3 2.0 -6.55 3.35 -7.45 4.7 -8.35 6.4 -9.0 7.8 -9.5 7.9 -9.65 8.85 -9.25 9.4 -8.15 10.45 -6.25 8.6 -4.55 6.9 -4.1 4.95 -2.45 L3.8 -1.35 Q3.7 -2.55 2.95 -3.6 2.1 -4.8 0.95 -5.3 L0.75 -5.3 0.2 -5.3 -0.15 -4.9 -0.2 -4.6 0.0 -4.15 -0.55 -3.3 0.0 -4.15 0.25 -4.0 1.6 -3.05 Q2.7 -1.8 2.4 0.25 2.1 -0.85 1.45 -1.75 0.6 -2.85 -0.55 -3.3 L-0.85 -3.4 -1.4 -3.3 -1.75 -2.85 -1.75 -2.6 Q-1.7 -2.2 -1.25 -2.0 L-1.75 -1.0 -1.25 -2.0 -1.2 -2.0 Q-0.5 -1.75 0.1 -1.15 1.1 -0.1 1.05 1.5 L0.55 0.65 Q-0.35 -0.6 -1.75 -1.0 L-2.25 -0.95 -2.65 -0.55 -2.65 -0.25 Q-2.6 0.2 -2.25 0.35 L-2.15 0.35 -0.85 1.25 Q0.35 2.45 0.0 4.55 0.0 4.9 0.15 5.1 L-0.25 6.65 -0.3 6.6 Q-0.55 4.75 -1.65 2.95 L-2.7 1.55 -3.4 0.9 Q-4.0 0.4 -4.7 0.05 -6.15 -0.75 -8.05 -0.95 M-1.85 -10.9 Q-0.7 -10.9 0.1 -11.55 0.9 -12.2 0.9 -13.1 0.9 -14.05 0.1 -14.7 -0.7 -15.4 -1.85 -15.4 -2.95 -15.4 -3.8 -14.7 -4.6 -14.05 -4.6 -13.1 -4.6 -12.2 -3.8 -11.55 -2.95 -10.9 -1.85 -10.9 M-2.7 1.55 L-2.25 0.35 -2.7 1.55" fill="#ffffff" fill-opacity="0.0" fill-rule="evenodd" stroke="none"/>
    <path d="M-4.4 -17.25 Q-5.25 -15.85 -6.15 -12.85 -6.85 -10.55 -6.75 -6.25 L-8.05 -0.95 -9.0 -1.05 -10.3 -1.05 -10.4 -1.05 -10.3 -1.05 -9.0 -1.05 -8.05 -0.95 Q-6.15 -0.75 -4.7 0.05 -4.0 0.4 -3.4 0.9 L-2.7 1.55 -1.65 2.95 Q-0.55 4.75 -0.3 6.6 L-0.25 7.2 -0.3 8.65 Q-0.6 11.45 -1.7 14.1 L-1.85 14.55 -3.1 16.7 -5.5 17.45 Q-10.05 16.85 -11.15 9.6 -11.55 7.0 -11.4 4.2 -11.3 1.85 -10.95 0.85 L-10.4 -1.05 -9.9 -3.3 -9.35 -5.8 Q-9.45 -9.1 -8.5 -13.05 L-7.5 -16.3 Q-6.55 -17.0 -4.4 -17.25 M-1.85 -10.9 Q-2.95 -10.9 -3.8 -11.55 -4.6 -12.2 -4.6 -13.1 -4.6 -14.05 -3.8 -14.7 -2.95 -15.4 -1.85 -15.4 -0.7 -15.4 0.1 -14.7 0.9 -14.05 0.9 -13.1 0.9 -12.2 0.1 -11.55 -0.7 -10.9 -1.85 -10.9 M-1.25 -2.0 Q-1.7 -2.2 -1.75 -2.6 L-1.75 -2.85 -1.4 -3.3 -0.85 -3.4 -0.55 -3.3 Q0.6 -2.85 1.45 -1.75 2.1 -0.85 2.4 0.25 L2.4 0.35 2.5 0.9 2.4 0.35 2.4 0.25 Q2.7 -1.8 1.6 -3.05 L0.25 -4.0 0.0 -4.15 -0.2 -4.6 -0.15 -4.9 0.2 -5.3 0.75 -5.3 0.95 -5.3 Q2.1 -4.8 2.95 -3.6 3.7 -2.55 3.8 -1.35 L3.75 0.55 3.45 1.0 2.9 1.15 2.5 0.9 2.45 2.35 2.15 2.85 1.65 3.0 1.5 2.95 1.35 2.2 1.05 1.5 1.35 2.2 1.5 2.95 1.45 4.8 1.15 5.25 0.65 5.35 Q0.35 5.35 0.15 5.1 0.0 4.9 0.0 4.55 0.35 2.45 -0.85 1.25 L-2.15 0.35 -2.25 0.35 Q-2.6 0.2 -2.65 -0.25 L-2.65 -0.55 -2.25 -0.95 -1.75 -1.0 Q-0.35 -0.6 0.55 0.65 L1.05 1.5 Q1.1 -0.1 0.1 -1.15 -0.5 -1.75 -1.2 -2.0 L-1.25 -2.0" fill="#ffffff" fill-rule="evenodd" stroke="none"/>
    <path d="M-1.85 -10.9 Q-2.95 -10.9 -3.8 -11.55 -4.6 -12.2 -4.6 -13.1 -4.6 -14.05 -3.8 -14.7 -2.95 -15.4 -1.85 -15.4 -0.7 -15.4 0.1 -14.7 0.9 -14.05 0.9 -13.1 0.9 -12.2 0.1 -11.55 -0.7 -10.9 -1.85 -10.9" fill="none" stroke="#000000" stroke-linecap="butt" stroke-linejoin="miter-clip" stroke-miterlimit="10.0" stroke-opacity="0.4" stroke-width="1.0"/>
    <path d="M-8.05 -0.95 L-6.75 -6.25 Q-6.85 -10.55 -6.15 -12.85 -5.25 -15.85 -4.4 -17.25 M1.5 2.95 L1.65 3.0 2.15 2.85 2.45 2.35 2.5 0.9 2.9 1.15 3.45 1.0 3.75 0.55 3.8 -1.35 M1.5 2.95 L1.45 4.8 1.15 5.25 0.65 5.35 Q0.35 5.35 0.15 5.1" fill="none" stroke="#000000" stroke-linecap="round" stroke-linejoin="miter-clip" stroke-miterlimit="10.0" stroke-opacity="0.6" stroke-width="1.0"/>
    <path d="M-4.4 -17.25 Q-6.55 -17.0 -7.5 -16.3 L-8.5 -13.05 Q-9.45 -9.1 -9.35 -5.8 L-9.9 -3.3 -10.4 -1.05 -10.95 0.85 Q-11.3 1.85 -11.4 4.2 -11.55 7.0 -11.15 9.6 -10.05 16.85 -5.5 17.45 L-3.1 16.7 -1.85 14.55 -1.7 14.1 Q-0.6 11.45 -0.3 8.65 L-0.25 7.2 -0.3 6.6 M8.35 -11.7 L8.35 -12.55 8.25 -15.2 6.6 -15.45 4.9 -15.35 Q3.8 -15.5 0.1 -16.6 -2.65 -17.45 -4.4 -17.25 M7.9 -9.65 Q8.25 -10.05 8.35 -11.7 M7.9 -9.65 Q8.85 -9.25 9.4 -8.15 10.45 -6.25 8.6 -4.55 6.9 -4.1 4.95 -2.45 L3.8 -1.35" fill="none" stroke="#000000" stroke-linecap="round" stroke-linejoin="miter-clip" stroke-miterlimit="10.0" stroke-width="1.0"/>
    <path d="M-10.4 -1.05 L-10.3 -1.05 -9.0 -1.05 -8.05 -0.95 Q-6.15 -0.75 -4.7 0.05 -2.95 -7.0 2.75 -10.05 5.65 -11.55 8.35 -11.7 M-1.25 -2.0 Q-1.7 -2.2 -1.75 -2.6 L-1.75 -2.85 -1.4 -3.3 -0.85 -3.4 -0.55 -3.3 0.0 -4.15 -0.2 -4.6 -0.15 -4.9 0.2 -5.3 0.75 -5.3 0.95 -5.3 Q2.0 -6.55 3.35 -7.45 4.7 -8.35 6.4 -9.0 7.8 -9.5 7.9 -9.65 M-2.25 0.35 Q-2.6 0.2 -2.65 -0.25 L-2.65 -0.55 -2.25 -0.95 -1.75 -1.0 -1.25 -2.0 -1.2 -2.0 Q-0.5 -1.75 0.1 -1.15 1.1 -0.1 1.05 1.5 L1.35 2.2 1.5 2.95 M2.5 0.9 L2.4 0.35 2.4 0.25 Q2.1 -0.85 1.45 -1.75 0.6 -2.85 -0.55 -3.3 M0.95 -5.3 Q2.1 -4.8 2.95 -3.6 3.7 -2.55 3.8 -1.35 M2.4 0.25 Q2.7 -1.8 1.6 -3.05 L0.25 -4.0 0.0 -4.15 M-1.75 -1.0 Q-0.35 -0.6 0.55 0.65 L1.05 1.5 M0.15 5.1 Q0.0 4.9 0.0 4.55 0.35 2.45 -0.85 1.25 L-2.15 0.35 -2.25 0.35 -2.7 1.55 -1.65 2.95 Q-0.55 4.75 -0.3 6.6 M-2.7 1.55 L-3.4 0.9 Q-4.0 0.4 -4.7 0.05" fill="none" stroke="#000000" stroke-linecap="round" stroke-linejoin="miter-clip" stroke-miterlimit="10.0" stroke-opacity="0.4" stroke-width="1.0"/>
    <path d="M0.15 5.1 L-0.25 6.65" fill="none" stroke="#000000" stroke-linecap="round" stroke-linejoin="miter-clip" stroke-miterlimit="10.0" stroke-width="1.0"/>
    <path d="M-0.25 6.65 L-0.3 6.6" fill="none" stroke="#000000" stroke-linecap="butt" stroke-linejoin="miter-clip" stroke-miterlimit="10.0" stroke-opacity="0.4" stroke-width="1.0"/>
  </g>
</svg>
