<?xml version="1.0" encoding="UTF-8" standalone="no"?>
<svg xmlns:xlink="http://www.w3.org/1999/xlink" height="36.95px" width="20.25px" xmlns="http://www.w3.org/2000/svg">
  <g transform="matrix(1.0, 0.0, 0.0, 1.0, 16.15, 17.9)">
    <path d="M-10.05 17.2 L-10.35 17.3 -11.45 17.4 -12.3 17.35 Q-13.0 16.4 -13.7 14.15 -15.1 9.7 -15.1 3.35 -15.1 -0.75 -13.9 -3.85 -12.8 -6.7 -10.6 -9.05 -11.0 -9.35 -11.3 -10.35 -11.85 -12.4 -11.4 -16.05 L-10.45 -16.95 -10.15 -17.0 -9.3 -17.05 -5.6 -17.05 -5.6 -17.0 Q-6.55 -14.85 -6.45 -9.95 L-8.0 -8.3 -10.75 -4.85 -11.75 -1.9 Q-12.7 2.05 -12.6 7.05 -12.5 12.7 -10.05 17.2" fill="#000000" fill-opacity="0.09803922" fill-rule="evenodd" stroke="none"/>
    <path d="M2.75 -14.8 Q4.1 -10.85 4.1 -8.05 4.1 -5.2 2.75 -1.5 1.25 -1.25 -0.65 0.8 -2.8 3.15 -4.0 6.35 L-4.65 9.25 Q-5.1 11.6 -5.7 13.1 -7.15 16.5 -10.05 17.2 -12.5 12.7 -12.6 7.05 -12.7 2.05 -11.75 -1.9 L-10.75 -4.85 -8.0 -8.3 -6.45 -9.95 Q-6.55 -14.85 -5.6 -17.0 L-3.1 -16.65 -0.15 -15.55 Q1.65 -14.85 2.75 -14.8" fill="#ffffff" fill-opacity="0.0" fill-rule="evenodd" stroke="none"/>
    <path d="M2.75 -1.5 Q1.25 -1.25 -0.65 0.8 -2.8 3.15 -4.0 6.35 L-4.65 9.25 Q-5.1 11.6 -5.7 13.1 -7.15 16.5 -10.05 17.2 L-10.35 17.3 -11.45 17.4 -12.3 17.35 Q-13.0 16.4 -13.7 14.15 -15.1 9.7 -15.1 3.35 -15.1 -0.75 -13.9 -3.85 -12.8 -6.7 -10.6 -9.05 -11.0 -9.35 -11.3 -10.35 -11.85 -12.4 -11.4 -16.05 L-10.45 -16.95 -10.15 -17.0 -9.3 -17.05 -5.6 -17.05 -5.6 -17.0 -3.1 -16.65 -0.15 -15.55 Q1.65 -14.85 2.75 -14.8" fill="none" stroke="#000000" stroke-linecap="butt" stroke-linejoin="miter-clip" stroke-miterlimit="10.0" stroke-width="1.0"/>
    <path d="M-10.05 17.2 Q-12.5 12.7 -12.6 7.05 -12.7 2.05 -11.75 -1.9 L-10.75 -4.85 -8.0 -8.3 -6.45 -9.95 Q-6.55 -14.85 -5.6 -17.0" fill="none" stroke="#000000" stroke-linecap="butt" stroke-linejoin="miter-clip" stroke-miterlimit="10.0" stroke-opacity="0.4" stroke-width="1.0"/>
  </g>
</svg>
