<?xml version="1.0" encoding="UTF-8" standalone="no"?>
<svg xmlns:xlink="http://www.w3.org/1999/xlink" height="35.4px" width="17.45px" xmlns="http://www.w3.org/2000/svg">
  <g transform="matrix(1.0, 0.0, 0.0, 1.0, 13.45, 17.8)">
    <path d="M2.95 0.3 L2.9 0.45 2.65 0.75 0.4 3.15 -1.55 5.7 -3.5 8.95 -5.45 13.15 -6.95 16.05 Q-7.5 16.85 -8.5 16.95 -9.35 17.0 -9.7 16.7 L-10.5 15.9 -10.95 14.25 Q-11.45 11.55 -11.55 9.4 -11.6 7.25 -12.5 2.7 -12.95 -1.55 -12.7 -4.1 -12.45 -6.65 -11.8 -8.3 -11.1 -9.9 -10.45 -12.55 L-10.1 -14.45 Q-9.7 -15.9 -8.55 -16.7 L-4.15 -16.85 1.05 -15.3 2.9 -14.8 3.4 -12.7 Q4.5 -7.1 3.5 -1.95 L2.95 0.3" fill="#ffffff" fill-opacity="0.0" fill-rule="evenodd" stroke="none"/>
    <path d="M2.9 -14.8 L1.05 -15.3 -4.15 -16.85 -8.55 -16.7 Q-9.7 -15.9 -10.1 -14.45 L-10.45 -12.55 Q-11.1 -9.9 -11.8 -8.3 -12.45 -6.65 -12.7 -4.1 -12.95 -1.55 -12.5 2.7 -11.6 7.25 -11.55 9.4 -11.45 11.55 -10.95 14.25 L-10.5 15.9 -9.7 16.7 Q-9.35 17.0 -8.5 16.95 -7.5 16.85 -6.95 16.05 L-5.45 13.15 -3.5 8.95 -1.55 5.7 0.4 3.15 2.65 0.75 2.9 0.45 2.95 0.3" fill="none" stroke="#000000" stroke-linecap="square" stroke-linejoin="round" stroke-width="1.0"/>
    <path d="M0.15 -0.55 Q1.05 -1.7 2.75 -1.9 M-3.35 4.35 L-1.65 1.9 M-11.0 13.95 Q-9.05 13.7 -8.45 11.95 M-6.8 9.35 L-5.15 6.8" fill="none" stroke="#000000" stroke-linecap="round" stroke-linejoin="round" stroke-opacity="0.4" stroke-width="1.0"/>
    <path d="M-9.8 -0.65 Q-8.25 0.8 -6.5 6.7 -5.25 10.9 -3.55 9.05 M-6.1 3.25 L-4.8 6.75 Q-4.1 8.85 -2.8 7.65 M-3.7 -6.0 Q1.8 -2.85 2.85 0.3" fill="none" stroke="#000000" stroke-linecap="round" stroke-linejoin="round" stroke-opacity="0.29803923" stroke-width="1.0"/>
  </g>
</svg>
