<?xml version="1.0" encoding="UTF-8" standalone="no"?>
<svg xmlns:xlink="http://www.w3.org/1999/xlink" height="7.25px" width="18.85px" xmlns="http://www.w3.org/2000/svg">
  <g transform="matrix(1.0, 0.0, 0.0, 1.0, 0.55, 0.35)">
    <path d="M0.35 3.6 L0.6 3.4 0.95 3.3 Q1.4 3.9 3.25 4.1 5.9 4.35 8.45 3.1 11.05 1.85 14.1 0.85 L15.8 0.15 17.8 1.85 Q17.7 1.8 16.15 2.3 L13.5 3.25 Q7.85 5.6 7.7 5.7 5.2 6.65 2.35 6.35 L0.0 5.85 0.0 5.55 Q-0.1 4.65 0.35 3.6" fill="#ffffff" fill-opacity="0.0" fill-rule="evenodd" stroke="none"/>
    <path d="M0.35 3.6 Q-0.1 4.65 0.0 5.55 L0.0 5.85 M17.8 1.85 L15.8 0.15" fill="none" stroke="#000000" stroke-linecap="round" stroke-linejoin="miter-clip" stroke-miterlimit="10.0" stroke-width="1.0"/>
    <path d="M15.8 0.15 L14.1 0.85 Q11.05 1.85 8.45 3.1 5.9 4.35 3.25 4.1 1.4 3.9 0.95 3.3 L0.6 3.4 0.35 3.6 M0.0 5.85 L2.35 6.35 Q5.2 6.65 7.7 5.7 7.85 5.6 13.5 3.25 L16.15 2.3 Q17.7 1.8 17.8 1.85" fill="none" stroke="#000000" stroke-linecap="round" stroke-linejoin="miter-clip" stroke-miterlimit="10.0" stroke-opacity="0.4" stroke-width="1.0"/>
  </g>
</svg>
