<?xml version="1.0" encoding="UTF-8" standalone="no"?>
<svg xmlns:xlink="http://www.w3.org/1999/xlink" height="8.9px" width="39.4px" xmlns="http://www.w3.org/2000/svg">
  <g transform="matrix(1.0, 0.0, 0.0, 1.0, 0.2, -12.5)">
    <path d="M38.7 13.0 L38.5 14.2 Q36.45 16.05 29.75 17.5 L21.95 18.65 17.5 18.35 15.6 18.1 14.2 18.3 13.7 19.3 Q13.5 20.05 12.85 20.35 L8.45 20.9 7.6 20.9 Q5.45 20.9 2.75 19.85 L2.65 19.8 0.3 18.65 0.3 16.55 Q4.85 18.95 7.6 18.8 10.55 18.65 12.7 17.75 15.0 16.75 15.35 16.7 16.65 16.55 21.95 16.55 L29.75 15.9 Q36.25 14.9 38.7 13.0" fill="#000000" fill-opacity="0.49803922" fill-rule="evenodd" stroke="none"/>
    <path d="M0.3 16.55 L0.3 18.65 2.65 19.8 2.75 19.85 Q5.45 20.9 7.6 20.9 L8.45 20.9 12.85 20.35 Q13.5 20.05 13.7 19.3 L14.2 18.3 15.6 18.1 17.5 18.35 21.95 18.65 29.75 17.5 Q36.45 16.05 38.5 14.2 L38.7 13.0" fill="none" stroke="#000000" stroke-linecap="round" stroke-linejoin="round" stroke-width="1.0"/>
    <path d="M38.7 13.0 Q36.25 14.9 29.75 15.9 L21.95 16.55 Q16.65 16.55 15.35 16.7 15.0 16.75 12.7 17.75 10.55 18.65 7.6 18.8 4.85 18.95 0.3 16.55 Z" fill="none" stroke="#000000" stroke-linecap="round" stroke-linejoin="round" stroke-opacity="0.6" stroke-width="1.0"/>
  </g>
</svg>
