<?xml version="1.0" encoding="UTF-8" standalone="no"?>
<svg xmlns:xlink="http://www.w3.org/1999/xlink" height="16.25px" width="21.55px" xmlns="http://www.w3.org/2000/svg">
  <g transform="matrix(1.0, 0.0, 0.0, 1.0, 1.05, 2.1)">
    <path d="M14.7 1.85 Q15.5 1.7 16.5 2.35 17.75 3.05 17.35 3.8 17.05 4.4 14.5 4.7 L11.35 4.85 12.4 3.7 Q13.7 2.1 14.7 1.85 Z" fill="none" stroke="#000000" stroke-linecap="round" stroke-linejoin="miter-clip" stroke-miterlimit="10.0" stroke-width="1.0"/>
    <path d="M19.8 6.15 L19.35 6.2 18.9 6.15 17.3 6.15 17.15 6.35 17.0 6.45 16.5 6.8 15.6 7.2 14.8 7.6 14.7 7.8 Q14.5 8.6 14.0 8.8 L13.2 8.75 12.8 8.55 12.65 9.3 12.5 10.35 Q12.6 10.8 9.85 9.35 L9.75 9.25 9.65 10.5 9.2 10.45 6.8 10.05 Q6.45 10.05 6.2 10.8 L6.05 11.6 3.95 11.1 Q3.75 11.05 3.75 11.5 L3.75 12.35 Q3.6 12.6 2.9 12.15 L2.05 11.3 Q1.9 11.05 1.5 12.0 L1.35 12.6 1.25 13.05 0.35 12.75 -0.1 12.25 -0.5 9.15 Q-0.65 6.4 -0.45 5.65 L-0.05 4.35 Q0.85 2.65 4.55 2.95 L8.8 3.1 10.05 2.1 Q10.75 1.2 11.5 1.05 L12.1 1.15 Q12.9 2.15 16.3 4.0 L19.85 5.85 Q20.15 6.05 19.8 6.15" fill="#ffffff" fill-opacity="0.14901961" fill-rule="evenodd" stroke="none"/>
    <path d="M19.8 6.15 Q20.15 6.05 19.85 5.85 L16.3 4.0 Q12.9 2.15 12.1 1.15 L11.5 1.05 Q10.75 1.2 10.05 2.1 L8.8 3.1 4.55 2.95 Q0.85 2.65 -0.05 4.35 L-0.45 5.65 Q-0.65 6.4 -0.5 9.15 L-0.1 12.25 0.35 12.75" fill="none" stroke="#000000" stroke-linecap="round" stroke-linejoin="miter-clip" stroke-miterlimit="10.0" stroke-width="1.0"/>
    <path d="M0.35 12.75 L1.25 13.05 1.35 12.6 1.5 12.0 Q1.9 11.05 2.05 11.3 L2.9 12.15 Q3.6 12.6 3.75 12.35 L3.75 11.5 Q3.75 11.05 3.95 11.1 L6.05 11.6 6.2 10.8 Q6.45 10.05 6.8 10.05 L9.2 10.45 9.65 10.5 9.75 9.25 9.85 9.35 Q12.6 10.8 12.5 10.35 L12.65 9.3 12.8 8.55 13.2 8.75 14.0 8.8 Q14.5 8.6 14.7 7.8 L14.8 7.6 15.6 7.2 16.5 6.8 17.0 6.45 17.15 6.35 17.3 6.15 18.9 6.15 19.35 6.2 19.8 6.15 Z" fill="none" stroke="#000000" stroke-linecap="round" stroke-linejoin="miter-clip" stroke-miterlimit="10.0" stroke-opacity="0.4" stroke-width="1.0"/>
  </g>
</svg>
