<?xml version="1.0" encoding="UTF-8" standalone="no"?>
<svg xmlns:xlink="http://www.w3.org/1999/xlink" height="51.2px" width="18.05px" xmlns="http://www.w3.org/2000/svg">
  <g transform="matrix(1.0, 0.0, 0.0, 1.0, 8.7, 26.2)">
    <path d="M7.1 -25.05 L7.0 -7.7 6.85 18.8 8.85 18.3 8.35 22.9 8.35 22.95 Q5.05 25.2 -1.85 24.2 L-8.15 22.85 -8.2 18.3 -7.35 18.55 -7.1 -25.05 Q-0.7 -27.3 7.1 -25.05 M-7.35 18.55 L-2.4 19.5 -0.9 19.55 1.35 19.5 2.15 19.45 6.85 18.8 2.15 19.45 1.35 19.5 -0.9 19.55 -2.4 19.5 -7.35 18.55" fill="#ffffff" fill-opacity="0.0" fill-rule="evenodd" stroke="none"/>
    <path d="M7.1 -25.05 L7.0 -7.7" fill="none" stroke="#000000" stroke-linecap="square" stroke-linejoin="round" stroke-width="1.0"/>
    <path d="M7.0 -7.7 L6.85 18.8 8.85 18.3 8.35 22.9 8.35 22.95 M-8.15 22.85 L-8.2 18.3 -7.35 18.55" fill="none" stroke="#000000" stroke-linecap="round" stroke-linejoin="round" stroke-width="1.0"/>
    <path d="M8.35 22.95 Q5.05 25.2 -1.85 24.2 L-8.15 22.85 M6.85 18.8 L2.15 19.45 1.35 19.5 -0.9 19.55 -2.4 19.5 -7.35 18.55" fill="none" stroke="#000000" stroke-linecap="round" stroke-linejoin="round" stroke-opacity="0.6" stroke-width="1.0"/>
    <path d="M-7.35 18.55 L-7.1 -25.05" fill="none" stroke="#000000" stroke-linecap="round" stroke-linejoin="round" stroke-width="1.0"/>
    <path d="M7.0 -7.7 L5.25 3.85 Q3.45 14.05 1.35 19.5 M2.15 19.45 L2.75 18.5 Q5.25 14.45 5.9 10.95 M-2.4 19.5 Q-2.35 17.3 -1.6 13.9 -0.8 10.25 0.15 7.85 0.3 10.35 -0.25 14.55 L-0.9 19.55" fill="none" stroke="#000000" stroke-linecap="round" stroke-linejoin="round" stroke-opacity="0.24705882" stroke-width="1.0"/>
  </g>
</svg>
