<?xml version="1.0" encoding="UTF-8" standalone="no"?>
<svg xmlns:xlink="http://www.w3.org/1999/xlink" height="36.2px" width="22.8px" xmlns="http://www.w3.org/2000/svg">
  <g transform="matrix(1.0, 0.0, 0.0, 1.0, 13.45, 17.75)">
    <path d="M-8.75 -17.1 L-6.6 -16.9 -5.15 -16.85 -3.15 -16.4 -1.4 -15.85 -0.3 -15.6 0.75 -15.45 1.7 -15.2 2.7 -14.8 6.1 -14.8 Q10.65 -9.75 7.3 -1.35 L6.15 -1.1 5.35 -1.15 4.85 -0.8 4.1 -0.1 3.35 0.35 2.8 1.0 2.2 1.8 1.65 2.45 1.1 3.1 0.55 3.85 -0.05 4.8 -0.7 5.75 -0.9 6.3 -1.35 7.1 -2.15 8.5 -2.7 9.7 -3.4 11.85 -3.8 13.2 -4.15 14.7 Q-4.2 15.2 -4.6 16.0 L-5.0 16.65 -5.3 17.05 -5.25 17.55 -7.7 17.95 Q-9.45 17.0 -10.55 12.5 -11.6 7.95 -11.5 5.3 -11.35 2.6 -11.65 1.6 L-12.3 -2.3 -12.9 -7.8 Q-13.1 -12.95 -12.0 -15.15 L-10.55 -17.1 -8.75 -17.1" fill="#ffffff" fill-opacity="0.0" fill-rule="evenodd" stroke="none"/>
    <path d="M-5.3 17.05 L-5.0 16.65 -4.6 16.0 Q-4.2 15.2 -4.15 14.7 L-3.8 13.2 -3.4 11.85 -2.7 9.7 -2.15 8.5 -1.35 7.1 -0.9 6.3 -0.7 5.75 -0.05 4.8 0.55 3.85 1.1 3.1 1.65 2.45 2.2 1.8 2.8 1.0 3.35 0.35 4.1 -0.1 4.85 -0.8 5.35 -1.15 6.15 -1.1 7.3 -1.35 Q10.65 -9.75 6.1 -14.8 L2.7 -14.8 1.7 -15.2 0.75 -15.45 -0.3 -15.6 -1.4 -15.85 -3.15 -16.4 -5.15 -16.85 -6.6 -16.9 -8.75 -17.1" fill="none" stroke="#000000" stroke-linecap="square" stroke-linejoin="round" stroke-width="1.0"/>
    <path d="M-8.75 -17.1 L-10.55 -17.1 -12.0 -15.15 Q-13.1 -12.95 -12.9 -7.8 L-12.3 -2.3 -11.65 1.6 Q-11.35 2.6 -11.5 5.3 -11.6 7.95 -10.55 12.5 -9.45 17.0 -7.7 17.95 L-5.25 17.55 -5.3 17.05 Z" fill="none" stroke="#000000" stroke-linecap="round" stroke-linejoin="round" stroke-width="1.0"/>
  </g>
</svg>
