<?xml version="1.0" encoding="UTF-8" standalone="no"?>
<svg xmlns:xlink="http://www.w3.org/1999/xlink" height="32.95px" width="39.2px" xmlns="http://www.w3.org/2000/svg">
  <g transform="matrix(1.0, 0.0, 0.0, 1.0, 19.6, 16.7)">
    <path d="M14.3 -9.9 Q17.3 -6.6 18.35 -1.15 19.15 3.4 18.5 8.6 L18.0 11.75 Q17.5 13.65 16.7 14.55 15.2 15.5 15.15 15.15 L15.1 13.65 15.65 13.8 Q16.25 13.6 16.75 11.75 L17.35 7.5 Q18.1 0.2 14.85 -5.8 12.6 -9.9 9.0 -11.55 4.4 -13.7 -0.9 -13.55 -6.45 -13.35 -10.6 -10.7 -13.5 -8.85 -15.4 -4.95 -17.0 -1.6 -17.45 2.45 -18.05 7.05 -16.8 12.25 -16.3 14.1 -15.6 14.35 L-15.0 14.2 -15.1 15.7 Q-15.1 16.0 -16.6 15.05 -17.45 14.15 -17.95 12.25 L-18.5 9.1 Q-19.25 3.25 -18.2 -1.55 -16.95 -7.3 -13.25 -10.75 -10.85 -12.95 -7.6 -14.3 -2.2 -16.55 4.35 -15.3 7.2 -14.8 9.75 -13.4 12.4 -12.0 14.3 -9.9" fill="#ffffff" fill-opacity="0.0" fill-rule="evenodd" stroke="none"/>
    <path d="M14.3 -9.9 Q12.4 -12.0 9.75 -13.4 7.2 -14.8 4.35 -15.3 -2.2 -16.55 -7.6 -14.3 -10.85 -12.95 -13.25 -10.75 -16.95 -7.3 -18.2 -1.55 -19.25 3.25 -18.5 9.1 L-17.95 12.25 Q-17.45 14.15 -16.6 15.05 -15.1 16.0 -15.1 15.7 L-15.0 14.2 -15.6 14.35 Q-16.3 14.1 -16.8 12.25 -18.05 7.05 -17.45 2.45 -17.0 -1.6 -15.4 -4.95 -13.5 -8.85 -10.6 -10.7 -6.45 -13.35 -0.9 -13.55 4.4 -13.7 9.0 -11.55 12.6 -9.9 14.85 -5.8 18.1 0.2 17.35 7.5 L16.75 11.75 Q16.25 13.6 15.65 13.8 L15.1 13.65 15.15 15.15 Q15.2 15.5 16.7 14.55 17.5 13.65 18.0 11.75 L18.5 8.6 Q19.15 3.4 18.35 -1.15 17.3 -6.6 14.3 -9.9 Z" fill="none" stroke="#000000" stroke-linecap="round" stroke-linejoin="miter-clip" stroke-miterlimit="10.0" stroke-width="1.0"/>
  </g>
</svg>
