<?xml version="1.0" encoding="UTF-8" standalone="no"?>
<svg xmlns:xlink="http://www.w3.org/1999/xlink" height="28.75px" width="34.7px" xmlns="http://www.w3.org/2000/svg">
  <g transform="matrix(1.0, 0.0, 0.0, 1.0, 0.5, 0.5)">
    <path d="M21.45 17.9 Q22.55 13.05 22.05 6.2 L21.3 0.4 22.05 6.2 Q22.55 13.05 21.45 17.9 M13.5 0.2 L15.1 0.0 18.6 0.0 21.3 0.4 Q32.3 2.65 33.5 14.5 34.2 21.15 32.15 27.5 25.95 23.45 16.75 22.75 8.55 23.05 1.5 27.5 -0.5 21.15 0.15 14.5 1.45 2.05 13.5 0.2 L12.8 6.2 Q12.3 13.05 13.35 17.9 12.3 13.05 12.8 6.2 L13.5 0.2 M10.45 3.2 L12.2 2.45 Q3.0 3.75 1.95 13.15 1.4 17.85 2.7 22.3 1.5 11.85 6.75 6.1 8.35 4.3 10.45 3.2 M30.3 20.85 Q22.0 16.8 11.95 18.4 8.8 18.9 5.85 19.95 L3.55 20.85 5.85 19.95 Q8.8 18.9 11.95 18.4 22.0 16.8 30.3 20.85" fill="#ffffff" fill-opacity="0.0" fill-rule="evenodd" stroke="none"/>
    <path d="M10.45 3.2 Q8.35 4.3 6.75 6.1 1.5 11.85 2.7 22.3 1.4 17.85 1.95 13.15 3.0 3.75 12.2 2.45 L10.45 3.2" fill="#ffffff" fill-opacity="0.8" fill-rule="evenodd" stroke="none"/>
    <path d="M13.5 0.2 Q1.45 2.05 0.15 14.5 -0.5 21.15 1.5 27.5 8.55 23.05 16.75 22.75 25.95 23.45 32.15 27.5 34.2 21.15 33.5 14.5 32.3 2.65 21.3 0.4 L18.6 0.0 15.1 0.0 13.5 0.2" fill="none" stroke="#000000" stroke-linecap="round" stroke-linejoin="miter-clip" stroke-miterlimit="10.0" stroke-width="1.0"/>
    <path d="M21.3 0.4 L22.05 6.2 Q22.55 13.05 21.45 17.9 M13.5 0.2 L12.8 6.2 Q12.3 13.05 13.35 17.9 M3.55 20.85 L5.85 19.95 Q8.8 18.9 11.95 18.4 22.0 16.8 30.3 20.85" fill="none" stroke="#000000" stroke-linecap="round" stroke-linejoin="miter-clip" stroke-miterlimit="10.0" stroke-opacity="0.4" stroke-width="1.0"/>
  </g>
</svg>
