<?xml version="1.0" encoding="UTF-8" standalone="no"?>
<svg xmlns:xlink="http://www.w3.org/1999/xlink" height="18.7px" width="32.0px" xmlns="http://www.w3.org/2000/svg">
  <g transform="matrix(1.0, 0.0, 0.0, 1.0, 0.2, 0.5)">
    <path d="M20.15 13.95 L20.9 7.4 30.35 2.45 31.3 1.95 30.95 8.55 19.75 16.9 19.9 15.75 20.1 14.1 20.15 13.95 20.1 14.1 20.1 13.95 20.15 13.95 M30.35 2.0 L24.4 4.65 18.2 6.4 17.9 11.85 17.55 12.0 17.25 12.1 15.95 12.25 15.8 12.25 15.75 12.25 15.95 4.5 15.75 12.25 15.65 12.25 14.35 12.1 14.05 12.0 13.7 11.85 13.4 6.4 Q9.65 5.6 7.2 4.65 4.75 3.7 1.2 1.95 L1.1 1.95 1.1 0.0 15.95 4.5 16.1 4.65 30.35 0.0 30.35 2.0 M10.7 7.4 L11.7 15.75 11.85 16.9 0.65 8.55 0.3 1.95 1.1 2.4 10.7 7.4 M12.15 16.75 L12.1 16.7 11.5 12.0 11.6 12.0 11.85 12.4 Q12.45 12.9 13.8 13.2 L14.1 13.25 15.75 13.45 15.8 13.45 17.5 13.25 17.85 13.2 Q19.15 12.9 19.75 12.4 L20.0 12.0 20.1 12.0 19.5 16.7 19.5 16.75 Q18.8 17.8 15.95 17.7 L15.8 17.7 15.65 17.7 Q12.8 17.8 12.15 16.75" fill="#ffffff" fill-opacity="0.0" fill-rule="evenodd" stroke="none"/>
    <path d="M31.3 1.95 L30.35 2.45 20.9 7.4 20.15 13.95 20.1 13.95 20.1 14.1 19.9 15.75 19.75 16.9 19.5 16.75 19.5 16.7 20.1 12.0 20.0 12.0 20.1 11.9 18.55 11.2 17.9 11.85 18.2 6.4 24.4 4.65 30.35 2.0 30.4 1.95 31.3 1.95 M20.9 7.4 L18.2 6.4 20.9 7.4 M13.7 11.85 Q13.15 11.6 13.05 11.2 L11.5 11.9 11.6 12.0 11.5 12.0 12.1 16.7 12.15 16.75 11.85 16.9 11.7 15.75 10.7 7.4 13.4 6.4 10.7 7.4 1.1 2.4 0.3 1.95 1.1 1.95 1.2 1.95 Q4.75 3.7 7.2 4.65 9.65 5.6 13.4 6.4 L13.7 11.85" fill="#000000" fill-opacity="0.09803922" fill-rule="evenodd" stroke="none"/>
    <path d="M15.8 12.25 L15.95 12.25 17.25 12.1 17.55 12.0 17.9 11.85 18.55 11.2 20.1 11.9 20.0 12.0 19.75 12.4 Q19.15 12.9 17.85 13.2 L17.5 13.25 15.8 13.45 15.75 13.45 14.1 13.25 13.8 13.2 Q12.45 12.9 11.85 12.4 L11.6 12.0 11.5 11.9 13.05 11.2 Q13.15 11.6 13.7 11.85 L14.05 12.0 14.35 12.1 15.65 12.25 15.75 12.25 15.8 12.25" fill="#000000" fill-opacity="0.2" fill-rule="evenodd" stroke="none"/>
    <path d="M15.75 12.25 L15.8 12.25 15.75 12.25 15.65 12.25 15.75 12.25" fill="#5c8076" fill-rule="evenodd" stroke="none"/>
    <path d="M19.75 16.9 L30.95 8.55 31.3 1.95 30.4 1.95 M30.35 2.0 L30.35 0.0 16.1 4.65 15.95 4.5 1.1 0.0 1.1 1.95 0.3 1.95 0.65 8.55 11.85 16.9 M12.15 16.75 L12.1 16.7 M20.1 12.0 L20.0 12.0 M1.2 1.95 L1.1 1.95 M12.15 16.75 Q12.8 17.8 15.65 17.7 L15.8 17.7 15.95 17.7 Q18.8 17.8 19.5 16.75 L19.5 16.7" fill="none" stroke="#000000" stroke-linecap="round" stroke-linejoin="round" stroke-width="1.0"/>
    <path d="M31.3 1.95 L30.35 2.45 20.9 7.4 20.15 13.95 20.1 14.1 19.9 15.75 19.75 16.9 19.5 16.75 M18.2 6.4 L20.9 7.4 M15.95 4.5 L15.75 12.25 15.8 12.25 15.95 12.25 17.25 12.1 17.55 12.0 17.9 11.85 18.2 6.4 M13.7 11.85 L14.05 12.0 14.35 12.1 15.65 12.25 15.75 12.25 15.8 12.25 M11.6 12.0 L11.5 11.9 13.05 11.2 Q13.15 11.6 13.7 11.85 L13.4 6.4 10.7 7.4 11.7 15.75 11.85 16.9 12.15 16.75 M11.6 12.0 L11.85 12.4 Q12.45 12.9 13.8 13.2 L14.1 13.25 15.75 13.45 15.8 13.45 17.5 13.25 17.85 13.2 Q19.15 12.9 19.75 12.4 L20.0 12.0 20.1 11.9 18.55 11.2 17.9 11.85 M15.65 12.25 L15.75 12.25 M0.3 1.95 L1.1 2.4 10.7 7.4" fill="none" stroke="#000000" stroke-linecap="round" stroke-linejoin="miter-clip" stroke-miterlimit="10.0" stroke-opacity="0.4" stroke-width="1.0"/>
    <path d="M30.4 1.95 L30.35 2.0 24.4 4.65 18.2 6.4 M12.1 16.7 L11.5 12.0 11.6 12.0 M13.4 6.4 Q9.65 5.6 7.2 4.65 4.75 3.7 1.2 1.95 M19.5 16.7 L20.1 12.0" fill="none" stroke="#000000" stroke-linecap="round" stroke-linejoin="round" stroke-opacity="0.4" stroke-width="1.0"/>
  </g>
</svg>
