<?xml version="1.0" encoding="UTF-8" standalone="no"?>
<svg xmlns:xlink="http://www.w3.org/1999/xlink" height="14.0px" width="38.2px" xmlns="http://www.w3.org/2000/svg">
  <g transform="matrix(1.0, 0.0, 0.0, 1.0, 0.5, 0.5)">
    <path d="M20.95 12.05 Q14.1 12.45 9.25 11.2 L7.6 10.95 6.55 10.65 7.7 5.55 9.4 5.15 10.5 5.0 9.45 10.75 13.7 11.3 Q22.15 12.1 28.7 11.05 L20.95 12.05 M6.1 5.1 L5.65 2.3 6.9 2.0 7.5 5.0 6.1 5.1" fill="#ffffff" fill-opacity="0.2" fill-rule="evenodd" stroke="none"/>
    <path d="M0.0 4.05 Q12.9 -1.65 26.35 0.65 33.05 1.85 37.2 4.15 L35.95 7.4 35.75 7.35 Q23.05 2.85 11.15 4.65 7.4 5.2 4.15 6.3 L1.7 7.3 4.15 6.3 Q7.4 5.2 11.15 4.65 23.05 2.85 35.75 7.35 36.2 10.7 28.75 11.95 21.65 13.15 11.2 12.05 3.25 11.2 1.85 8.8 1.45 8.05 1.7 7.3 L0.0 4.05 M20.95 12.05 L28.7 11.05 Q22.15 12.1 13.7 11.3 L9.45 10.75 10.5 5.0 9.4 5.15 7.7 5.55 6.55 10.65 7.6 10.95 9.25 11.2 Q14.1 12.45 20.95 12.05 M6.1 5.1 L7.5 5.0 6.9 2.0 5.65 2.3 6.1 5.1" fill="#ffffff" fill-opacity="0.0" fill-rule="evenodd" stroke="none"/>
    <path d="M0.0 4.05 L1.7 7.3 4.15 6.3 Q7.4 5.2 11.15 4.65 23.05 2.85 35.75 7.35 L35.95 7.4 37.2 4.15 M1.7 7.3 Q1.45 8.05 1.85 8.8 3.25 11.2 11.2 12.05 21.65 13.15 28.75 11.95 36.2 10.7 35.75 7.35" fill="none" stroke="#000000" stroke-linecap="round" stroke-linejoin="miter-clip" stroke-miterlimit="10.0" stroke-width="1.0"/>
    <path d="M37.2 4.15 Q33.05 1.85 26.35 0.65 12.9 -1.65 0.0 4.05 Z" fill="none" stroke="#000000" stroke-linecap="round" stroke-linejoin="miter-clip" stroke-miterlimit="10.0" stroke-opacity="0.4" stroke-width="1.0"/>
  </g>
</svg>
