<?xml version="1.0" encoding="UTF-8" standalone="no"?>
<svg xmlns:xlink="http://www.w3.org/1999/xlink" height="26.9px" width="21.95px" xmlns="http://www.w3.org/2000/svg">
  <g transform="matrix(1.0, 0.0, 0.0, 1.0, 0.45, 4.05)">
    <path d="M16.05 0.35 L15.35 4.1 16.65 0.3 18.35 0.45 14.8 14.95 18.95 0.6 20.85 1.05 19.25 6.3 Q17.6 12.0 17.2 14.05 L19.9 7.9 17.85 13.2 Q15.65 19.05 15.15 21.65 L5.55 21.95 Q2.2 5.8 0.2 1.7 L1.7 1.05 2.2 1.65 3.25 5.0 2.2 0.85 3.25 0.6 5.0 9.1 4.75 0.3 6.15 0.15 7.45 10.5 7.35 0.45 8.8 0.5 9.65 8.4 9.55 0.1 11.85 0.0 11.5 4.65 12.35 0.1 13.05 0.25 11.75 16.35 13.85 0.25 16.05 0.35" fill="#ffffff" fill-opacity="0.0" fill-rule="evenodd" stroke="none"/>
    <path d="M16.05 0.35 L15.35 4.1 16.65 0.3 18.35 0.45 14.8 14.95 18.95 0.6 20.85 1.05 19.25 6.3 Q17.6 12.0 17.2 14.05 L19.9 7.9 17.85 13.2 Q15.65 19.05 15.15 21.65 L5.55 21.95 Q2.2 5.8 0.2 1.7 L1.7 1.05 2.2 1.65 3.25 5.0 2.2 0.85 3.25 0.6 5.0 9.1 4.75 0.3 6.15 0.15 7.45 10.5 7.35 0.45 8.8 0.5 9.65 8.4 9.55 0.1 11.85 0.0 11.5 4.65 12.35 0.1 13.05 0.25 11.75 16.35 13.85 0.25 16.05 0.35 Z" fill="none" stroke="#000000" stroke-linecap="round" stroke-linejoin="miter-clip" stroke-miterlimit="10.0" stroke-opacity="0.4" stroke-width="1.0"/>
  </g>
</svg>
