<?xml version="1.0" encoding="UTF-8" standalone="no"?>
<svg xmlns:xlink="http://www.w3.org/1999/xlink" height="47.85px" width="31.55px" xmlns="http://www.w3.org/2000/svg">
  <g transform="matrix(1.0, 0.0, 0.0, 1.0, 0.5, 1.3)">
    <path d="M21.95 1.85 L22.2 2.0 23.15 2.6 23.25 2.65 24.2 3.4 24.7 3.85 25.15 4.3 25.25 4.45 25.5 4.75 26.65 6.25 26.95 6.7 27.3 7.3 27.65 7.85 28.3 9.2 28.65 9.95 28.75 10.2 28.6 10.25 28.5 10.3 29.55 14.1 29.95 14.05 30.35 18.4 30.4 18.95 30.55 23.75 Q30.45 28.1 29.4 31.85 L29.1 32.85 29.05 33.0 28.9 33.35 28.5 31.75 28.3 29.95 28.75 26.95 Q28.95 25.3 28.4 24.0 L27.35 22.0 Q26.7 21.0 26.55 19.85 26.4 18.7 26.55 16.3 26.7 13.95 26.5 12.75 26.3 11.1 25.55 9.2 L25.8 9.25 26.1 9.15 26.15 8.85 26.1 8.55 25.8 8.45 25.5 8.55 25.4 8.85 25.5 8.55 25.8 8.45 26.1 8.55 26.15 8.85 26.1 9.15 25.8 9.25 25.55 9.2 25.4 8.85 24.6 7.0 23.1 4.3 21.8 1.8 21.95 1.85 M8.75 1.8 L5.95 7.0 5.15 8.75 5.1 8.6 5.05 8.55 4.75 8.45 4.5 8.55 4.4 8.85 4.5 9.15 4.75 9.25 5.0 9.2 Q4.25 11.1 4.05 12.75 3.85 13.95 4.0 16.3 L3.95 19.85 Q3.8 21.0 3.2 22.0 2.3 23.55 2.15 24.0 1.6 25.3 1.8 26.95 L2.2 29.95 2.05 31.75 1.65 33.45 1.5 33.1 0.5 28.9 Q0.0 25.55 0.0 23.75 L0.2 18.95 0.6 14.05 0.7 14.05 1.25 12.2 1.65 10.35 1.85 10.0 1.9 9.95 2.0 9.75 2.05 9.65 2.05 9.55 2.25 9.2 2.5 8.75 3.1 7.6 Q4.95 4.35 7.35 2.65 L8.75 1.8 M27.3 11.45 L27.35 11.5 27.45 11.8 27.35 12.1 27.3 12.15 27.1 12.2 26.8 12.1 26.65 11.8 26.8 11.5 Q26.95 11.35 27.1 11.35 L27.3 11.45 27.1 11.35 Q26.95 11.35 26.8 11.5 L26.65 11.8 26.8 12.1 27.1 12.2 27.3 12.15 27.35 12.1 27.45 11.8 27.35 11.5 27.3 11.45 M5.0 9.2 L4.75 9.25 4.5 9.15 4.4 8.85 4.5 8.55 4.75 8.45 5.05 8.55 5.1 8.6 5.15 8.75 5.0 9.2 M3.75 11.5 L3.9 11.8 3.75 12.1 3.5 12.2 3.2 12.1 3.1 11.8 3.2 11.5 Q3.35 11.35 3.5 11.35 3.65 11.35 3.75 11.5 3.65 11.35 3.5 11.35 3.35 11.35 3.2 11.5 L3.1 11.8 3.2 12.1 3.5 12.2 3.75 12.1 3.9 11.8 3.75 11.5" fill="#000000" fill-opacity="0.2" fill-rule="evenodd" stroke="none"/>
    <path d="M21.95 1.85 L21.8 1.8 21.8 1.75 21.95 1.85" fill="#dfddbc" fill-rule="evenodd" stroke="none"/>
    <path d="M21.8 1.8 L23.1 4.3 24.6 7.0 25.4 8.85 25.5 9.15 25.55 9.2 Q26.3 11.1 26.5 12.75 26.7 13.95 26.55 16.3 26.4 18.7 26.55 19.85 26.7 21.0 27.35 22.0 L28.4 24.0 Q28.95 25.3 28.75 26.95 L28.3 29.95 28.5 31.75 28.9 33.35 29.05 33.0 28.55 34.3 28.1 35.3 27.65 36.25 27.6 36.3 27.55 36.2 27.4 36.15 27.15 36.05 25.2 39.55 25.3 39.6 25.05 40.0 24.5 40.6 23.45 41.45 22.45 42.25 22.0 42.6 21.6 42.85 20.15 43.75 19.25 44.25 18.85 44.45 17.5 45.05 16.4 45.55 15.25 45.95 12.6 44.85 10.4 43.7 8.5 42.55 6.35 40.95 5.3 39.65 5.25 39.6 Q5.4 39.5 4.45 38.15 L3.4 36.9 2.45 35.3 1.5 33.1 1.65 33.45 2.05 31.75 2.2 29.95 1.8 26.95 Q1.6 25.3 2.15 24.0 2.3 23.55 3.2 22.0 3.8 21.0 3.95 19.85 L4.0 16.3 Q3.85 13.95 4.05 12.75 4.25 11.1 5.0 9.2 L5.05 9.2 5.05 9.15 5.2 8.85 5.15 8.75 5.95 7.0 8.75 1.8 Q10.35 0.8 12.0 0.35 L13.35 0.0 17.05 0.0 17.25 0.0 18.05 0.2 18.15 0.2 18.35 0.25 Q19.4 0.6 20.5 1.1 L21.8 1.8 M21.3 16.75 L20.9 16.6 20.75 16.05 20.85 15.8 20.9 15.55 21.3 15.3 Q21.55 15.3 21.7 15.55 L21.85 16.05 21.7 16.6 21.3 16.75 21.7 16.6 21.85 16.05 21.7 15.55 Q21.55 15.3 21.3 15.3 L20.9 15.55 20.85 15.8 20.75 16.05 20.9 16.6 21.3 16.75 M10.35 8.05 L10.5 8.5 10.35 8.95 10.05 9.1 9.75 8.95 9.6 8.5 Q9.6 8.25 9.75 8.05 9.85 7.9 10.05 7.9 L10.35 8.05 10.05 7.9 Q9.85 7.9 9.75 8.05 9.6 8.25 9.6 8.5 L9.75 8.95 10.05 9.1 10.35 8.95 10.5 8.5 10.35 8.05 M11.05 12.35 L10.95 11.85 11.05 11.4 Q11.25 11.15 11.5 11.15 L11.75 11.25 11.85 11.4 12.0 11.85 11.85 12.35 11.75 12.45 11.5 12.6 11.05 12.35 11.5 12.6 11.75 12.45 11.85 12.35 12.0 11.85 11.85 11.4 11.75 11.25 11.5 11.15 Q11.25 11.15 11.05 11.4 L10.95 11.85 11.05 12.35 M19.8 7.9 L19.85 7.9 20.05 8.05 20.2 8.5 20.05 8.95 19.85 9.1 19.8 9.1 19.45 8.95 19.3 8.5 Q19.3 8.25 19.45 8.05 19.6 7.9 19.8 7.9 19.6 7.9 19.45 8.05 19.3 8.25 19.3 8.5 L19.45 8.95 19.8 9.1 19.85 9.1 20.05 8.95 20.2 8.5 20.05 8.05 19.85 7.9 19.8 7.9 M18.3 11.15 Q18.55 11.15 18.75 11.4 L18.85 11.85 18.75 12.35 18.3 12.6 18.0 12.35 17.8 11.85 Q17.8 11.55 18.0 11.4 18.1 11.15 18.3 11.15 18.1 11.15 18.0 11.4 17.8 11.55 17.8 11.85 L18.0 12.35 18.3 12.6 18.75 12.35 18.85 11.85 18.75 11.4 Q18.55 11.15 18.3 11.15 M8.45 15.3 L8.5 15.3 8.9 15.55 9.05 16.05 8.9 16.6 8.5 16.75 8.45 16.75 8.15 16.6 7.95 16.05 8.15 15.55 8.45 15.3 8.15 15.55 7.95 16.05 8.15 16.6 8.45 16.75 8.5 16.75 8.9 16.6 9.05 16.05 8.9 15.55 8.5 15.3 8.45 15.3 M13.65 23.75 L13.6 23.55 12.95 23.05 10.35 23.1 Q8.3 23.3 7.3 23.8 6.35 24.25 6.0 25.05 L5.85 25.6 5.8 26.2 6.25 27.95 6.3 28.0 6.6 28.25 8.35 28.55 10.85 28.1 Q11.9 27.8 12.65 27.3 13.15 26.9 13.45 25.65 L13.7 24.15 13.65 23.75 M16.55 23.55 L16.5 23.75 16.45 24.15 Q16.35 24.5 16.65 25.65 17.0 26.95 17.5 27.3 18.3 27.8 19.3 28.1 L21.8 28.55 23.55 28.25 23.8 28.0 23.9 27.95 24.35 26.2 24.3 25.6 24.15 25.05 Q23.85 24.25 22.85 23.8 21.85 23.3 19.8 23.1 L17.2 23.05 Q16.75 23.15 16.55 23.55 M14.9 21.5 L19.9 19.2 10.1 19.2 14.9 21.5 M17.6 37.1 L17.65 37.1 Q17.75 36.95 17.85 36.95 L17.95 37.0 18.1 37.2 18.15 37.25 18.15 37.7 18.0 38.15 17.95 38.2 17.65 38.35 17.6 38.35 17.45 38.2 17.4 38.1 17.3 37.65 17.55 37.15 17.6 37.1 17.55 37.15 17.3 37.65 17.4 38.1 17.45 38.2 17.6 38.35 17.65 38.35 17.95 38.2 18.0 38.15 18.15 37.7 18.15 37.25 18.1 37.2 17.95 37.0 17.85 36.95 Q17.75 36.95 17.65 37.1 L17.6 37.1 M17.55 33.95 L17.65 33.9 17.85 33.8 18.1 34.05 18.15 34.1 18.15 34.55 18.0 35.05 17.65 35.15 17.45 35.1 17.4 34.95 17.3 34.45 17.55 33.95 17.3 34.45 17.4 34.95 17.45 35.1 17.65 35.15 18.0 35.05 18.15 34.55 18.15 34.1 18.1 34.05 17.85 33.8 17.65 33.9 17.55 33.95 M12.5 36.95 Q12.65 36.95 12.75 37.1 L12.85 37.15 12.9 37.15 13.05 37.65 13.05 37.95 13.0 38.1 13.0 38.15 12.75 38.35 Q12.55 38.35 12.4 38.15 L12.35 38.15 12.25 37.7 12.25 37.25 12.25 37.2 12.5 36.95 12.25 37.2 12.25 37.25 12.25 37.7 12.35 38.15 12.4 38.15 Q12.55 38.35 12.75 38.35 L13.0 38.15 13.0 38.1 13.05 37.95 13.05 37.65 12.9 37.15 12.85 37.15 12.75 37.1 Q12.65 36.95 12.5 36.95 M12.75 33.9 L12.85 33.95 12.9 34.05 13.05 34.45 13.0 34.95 13.0 35.0 12.75 35.15 12.4 35.05 12.25 34.55 12.25 34.1 12.25 34.05 12.5 33.8 12.75 33.9 12.5 33.8 12.25 34.05 12.25 34.1 12.25 34.55 12.4 35.05 12.75 35.15 13.0 35.0 13.0 34.95 13.05 34.45 12.9 34.05 12.85 33.95 12.75 33.9 M13.05 30.55 L15.1 31.05 17.4 30.55 15.1 31.05 13.05 30.55 M24.95 36.1 L24.8 36.4 24.6 36.5 24.5 36.35 24.5 36.1 24.6 35.85 24.75 35.75 24.95 35.85 24.95 36.1 24.95 35.85 24.75 35.75 24.6 35.85 24.5 36.1 24.5 36.35 24.6 36.5 24.8 36.4 24.95 36.1 M24.8 32.65 Q24.8 32.45 24.95 32.35 25.0 32.25 25.1 32.25 L25.25 32.4 25.25 32.7 25.1 32.95 24.95 33.0 24.8 32.9 24.8 32.65 24.8 32.9 24.95 33.0 25.1 32.95 25.25 32.7 25.25 32.4 25.1 32.25 Q25.0 32.25 24.95 32.35 24.8 32.45 24.8 32.65 M12.4 41.3 L12.25 40.85 12.25 40.45 12.25 40.35 12.5 40.1 12.75 40.2 12.9 40.35 13.05 40.75 13.0 41.25 13.0 41.3 12.75 41.45 12.4 41.3 12.75 41.45 13.0 41.3 13.0 41.25 13.05 40.75 12.9 40.35 12.75 40.2 12.5 40.1 12.25 40.35 12.25 40.45 12.25 40.85 12.4 41.3 M17.85 40.1 L17.95 40.15 18.1 40.35 18.15 40.45 18.15 40.85 18.0 41.3 17.95 41.35 17.65 41.45 17.45 41.35 17.4 41.25 17.3 40.75 17.55 40.3 17.65 40.2 17.85 40.1 17.65 40.2 17.55 40.3 17.3 40.75 17.4 41.25 17.45 41.35 17.65 41.45 17.95 41.35 18.0 41.3 18.15 40.85 18.15 40.45 18.1 40.35 17.95 40.15 17.85 40.1 M8.25 37.95 L8.25 38.35 8.1 38.5 Q8.0 38.55 7.85 38.4 L7.8 38.05 7.8 37.7 7.9 37.5 8.15 37.65 8.25 37.95 8.15 37.65 7.9 37.5 7.8 37.7 7.8 38.05 7.85 38.4 Q8.0 38.55 8.1 38.5 L8.25 38.35 8.25 37.95 M5.2 35.85 L5.35 35.75 5.55 35.85 5.65 36.1 5.65 36.35 5.55 36.5 5.35 36.4 5.2 36.1 5.2 35.85 5.2 36.1 5.35 36.4 5.55 36.5 5.65 36.35 5.65 36.1 5.55 35.85 5.35 35.75 5.2 35.85 M4.95 32.4 L5.05 32.25 5.25 32.35 5.35 32.65 5.35 32.9 5.2 33.0 5.0 32.95 4.9 32.7 4.95 32.4 4.9 32.7 5.0 32.95 5.2 33.0 5.35 32.9 5.35 32.65 5.25 32.35 5.05 32.25 4.95 32.4 M22.15 37.75 L22.25 37.65 22.45 37.5 22.65 37.7 22.65 38.05 22.5 38.4 22.3 38.5 22.15 38.35 22.15 38.25 22.1 37.95 22.15 37.75 22.1 37.95 22.15 38.25 22.15 38.35 22.3 38.5 22.5 38.4 22.65 38.05 22.65 37.7 22.45 37.5 22.25 37.65 22.15 37.75" fill="#ffffff" fill-opacity="0.0" fill-rule="evenodd" stroke="none"/>
    <path d="M6.0 25.05 Q6.35 24.25 7.3 23.8 8.3 23.3 10.35 23.1 L12.95 23.05 13.6 23.55 13.65 23.75 11.75 23.55 Q9.6 23.55 8.05 24.2 7.25 24.55 6.4 25.15 L6.3 25.25 5.9 25.55 6.0 25.05 M16.55 23.75 L16.55 23.55 Q16.75 23.15 17.2 23.05 L19.8 23.1 Q21.85 23.3 22.85 23.8 23.85 24.25 24.15 25.05 L24.3 25.6 23.75 25.15 22.1 24.2 Q20.55 23.55 18.35 23.55 L16.55 23.75" fill="#000000" fill-opacity="0.4" fill-rule="evenodd" stroke="none"/>
    <path d="M6.0 25.05 L5.9 25.55 5.85 25.6 6.0 25.05 M16.5 23.75 L16.55 23.55 16.55 23.75 16.5 23.75" fill="#f7ed74" fill-rule="evenodd" stroke="none"/>
    <path d="M5.8 26.2 L5.85 25.6 5.9 25.55 5.8 26.2 M16.5 23.75 L16.55 23.75 16.45 24.15 16.5 23.75" fill="#fbf7cf" fill-rule="evenodd" stroke="none"/>
    <path d="M27.15 36.05 L27.4 36.15 27.55 36.2 27.6 36.3 27.15 36.05" fill="#343433" fill-rule="evenodd" stroke="none"/>
    <path d="M28.6 10.25 L28.75 10.2 28.65 9.95 28.3 9.2 27.65 7.85 27.3 7.3 26.95 6.7 26.65 6.25 25.5 4.75 25.25 4.45 25.15 4.3 24.7 3.85 24.2 3.4 23.25 2.65 23.15 2.6 22.2 2.0 21.95 1.85 21.8 1.8 20.5 1.1 Q19.4 0.6 18.35 0.25 L18.15 0.2 18.05 0.2 17.25 0.0 17.05 0.0 M29.1 32.85 L29.4 31.85 Q30.45 28.1 30.55 23.75 L30.4 18.95 M30.35 18.4 L29.95 14.05 M13.35 0.0 L12.0 0.35 Q10.35 0.8 8.75 1.8 L7.35 2.65 Q4.95 4.35 3.1 7.6 L2.5 8.75 2.25 9.2 2.05 9.55 2.05 9.65 2.0 9.75 1.9 9.95 1.85 10.0 1.65 10.35 M1.5 33.1 L2.45 35.3 3.4 36.9 M5.3 39.65 L6.35 40.95 8.5 42.55 10.4 43.7 12.6 44.85 15.25 45.95 16.4 45.55 17.5 45.05 18.85 44.45 19.25 44.25 20.15 43.75 21.6 42.85 22.0 42.6 22.45 42.25 23.45 41.45 24.5 40.6 25.05 40.0 25.3 39.6 M27.6 36.3 L27.65 36.25 28.1 35.3 28.55 34.3 29.05 33.0 M1.5 33.1 L0.5 28.9 Q0.0 25.55 0.0 23.75 L0.2 18.95 0.6 14.05" fill="none" stroke="#000000" stroke-linecap="round" stroke-linejoin="miter-clip" stroke-miterlimit="10.0" stroke-width="1.0"/>
    <path d="M25.4 8.85 L25.5 8.55 25.8 8.45 26.1 8.55 26.15 8.85 26.1 9.15 25.8 9.25 25.55 9.2 25.5 9.15 25.4 8.85 M5.15 8.75 L5.2 8.85 5.05 9.15 5.05 9.2 5.0 9.2 4.75 9.25 4.5 9.15 4.4 8.85 4.5 8.55 4.75 8.45 5.05 8.55 5.1 8.6 5.15 8.75 M27.3 11.45 L27.1 11.35 Q26.95 11.35 26.8 11.5 L26.65 11.8 26.8 12.1 27.1 12.2 27.3 12.15 27.35 12.1 27.45 11.8 27.35 11.5 27.3 11.45 M21.3 16.75 L21.7 16.6 21.85 16.05 21.7 15.55 Q21.55 15.3 21.3 15.3 L20.9 15.55 20.85 15.8 20.75 16.05 20.9 16.6 21.3 16.75 M11.05 12.35 L11.5 12.6 11.75 12.45 11.85 12.35 12.0 11.85 11.85 11.4 11.75 11.25 11.5 11.15 Q11.25 11.15 11.05 11.4 L10.95 11.85 11.05 12.35 M18.3 11.15 Q18.1 11.15 18.0 11.4 17.8 11.55 17.8 11.85 L18.0 12.35 18.3 12.6 18.75 12.35 18.85 11.85 18.75 11.4 Q18.55 11.15 18.3 11.15 M3.75 11.5 Q3.65 11.35 3.5 11.35 3.35 11.35 3.2 11.5 L3.1 11.8 3.2 12.1 3.5 12.2 3.75 12.1 3.9 11.8 3.75 11.5 M8.45 15.3 L8.15 15.55 7.95 16.05 8.15 16.6 8.45 16.75 8.5 16.75 8.9 16.6 9.05 16.05 8.9 15.55 8.5 15.3 8.45 15.3 M24.3 25.6 L23.75 25.15 22.1 24.2 Q20.55 23.55 18.35 23.55 L16.55 23.75 M12.75 33.9 L12.5 33.8 12.25 34.05 12.25 34.1 12.25 34.55 12.4 35.05 12.75 35.15 13.0 35.0 13.0 34.95 13.05 34.45 12.9 34.05 12.85 33.95 12.75 33.9 M12.5 36.95 L12.25 37.2 12.25 37.25 12.25 37.7 12.35 38.15 12.4 38.15 Q12.55 38.35 12.75 38.35 L13.0 38.15 13.0 38.1 13.05 37.95 13.05 37.65 12.9 37.15 12.85 37.15 12.75 37.1 Q12.65 36.95 12.5 36.95 M17.55 33.95 L17.3 34.45 17.4 34.95 17.45 35.1 17.65 35.15 18.0 35.05 18.15 34.55 18.15 34.1 18.1 34.05 17.85 33.8 17.65 33.9 17.55 33.95 M17.6 37.1 L17.55 37.15 17.3 37.65 17.4 38.1 17.45 38.2 17.6 38.35 17.65 38.35 17.95 38.2 18.0 38.15 18.15 37.7 18.15 37.25 18.1 37.2 17.95 37.0 17.85 36.95 Q17.75 36.95 17.65 37.1 L17.6 37.1 M4.95 32.4 L4.9 32.7 5.0 32.95 5.2 33.0 5.35 32.9 5.35 32.65 5.25 32.35 5.05 32.25 4.95 32.4 M5.2 35.85 L5.2 36.1 5.35 36.4 5.55 36.5 5.65 36.35 5.65 36.1 5.55 35.85 5.35 35.75 5.2 35.85 M8.25 37.95 L8.15 37.65 7.9 37.5 7.8 37.7 7.8 38.05 7.85 38.4 Q8.0 38.55 8.1 38.5 L8.25 38.35 8.25 37.95 M17.85 40.1 L17.65 40.2 17.55 40.3 17.3 40.75 17.4 41.25 17.45 41.35 17.65 41.45 17.95 41.35 18.0 41.3 18.15 40.85 18.15 40.45 18.1 40.35 17.95 40.15 17.85 40.1 M12.4 41.3 L12.75 41.45 13.0 41.3 13.0 41.25 13.05 40.75 12.9 40.35 12.75 40.2 12.5 40.1 12.25 40.35 12.25 40.45 12.25 40.85 12.4 41.3 M24.8 32.65 L24.8 32.9 24.95 33.0 25.1 32.95 25.25 32.7 25.25 32.4 25.1 32.25 Q25.0 32.25 24.95 32.35 24.8 32.45 24.8 32.65 M24.95 36.1 L24.95 35.85 24.75 35.75 24.6 35.85 24.5 36.1 24.5 36.35 24.6 36.5 24.8 36.4 24.95 36.1 M22.15 37.75 L22.1 37.95 22.15 38.25 22.15 38.35 22.3 38.5 22.5 38.4 22.65 38.05 22.65 37.7 22.45 37.5 22.25 37.65 22.15 37.75" fill="none" stroke="#000000" stroke-linecap="round" stroke-linejoin="round" stroke-opacity="0.4" stroke-width="1.0"/>
    <path d="M29.05 33.0 L29.1 32.85 M30.4 18.95 L30.35 18.4 M28.5 10.3 L28.6 10.25 M27.55 36.2 L27.6 36.3 M10.35 8.05 L10.05 7.9 Q9.85 7.9 9.75 8.05 9.6 8.25 9.6 8.5 L9.75 8.95 10.05 9.1 10.35 8.95 10.5 8.5 10.35 8.05 M19.8 7.9 Q19.6 7.9 19.45 8.05 19.3 8.25 19.3 8.5 L19.45 8.95 19.8 9.1 19.85 9.1 20.05 8.95 20.2 8.5 20.05 8.05 19.85 7.9 19.8 7.9 M6.0 25.05 L5.9 25.55 6.3 25.25 M16.55 23.75 L16.55 23.55 M16.55 23.75 L16.45 24.15 M5.9 25.55 L5.8 26.2 M5.85 25.6 L5.9 25.55" fill="none" stroke="#000000" stroke-linecap="round" stroke-linejoin="miter-clip" stroke-miterlimit="10.0" stroke-opacity="0.4" stroke-width="1.0"/>
    <path d="M13.65 23.75 L13.6 23.55 12.95 23.05 10.35 23.1 Q8.3 23.3 7.3 23.8 6.35 24.25 6.0 25.05 L5.85 25.6 5.8 26.2 6.25 27.95 6.3 28.0 6.6 28.25 8.35 28.55 10.85 28.1 Q11.9 27.8 12.65 27.3 13.15 26.9 13.45 25.65 L13.7 24.15 13.65 23.75 11.75 23.55 Q9.6 23.55 8.05 24.2 7.25 24.55 6.4 25.15 L6.3 25.25 M16.55 23.55 L16.5 23.75 16.55 23.75 M16.55 23.55 Q16.75 23.15 17.2 23.05 L19.8 23.1 Q21.85 23.3 22.85 23.8 23.85 24.25 24.15 25.05 L24.3 25.6 24.35 26.2 23.9 27.95 23.8 28.0 23.55 28.25 21.8 28.55 19.3 28.1 Q18.3 27.8 17.5 27.3 17.0 26.95 16.65 25.65 16.35 24.5 16.45 24.15 L16.5 23.75 M17.4 30.55 L15.1 31.05 13.05 30.55" fill="none" stroke="#000000" stroke-linecap="round" stroke-linejoin="round" stroke-opacity="0.6" stroke-width="1.0"/>
  </g>
</svg>
