<?xml version="1.0" encoding="UTF-8" standalone="no"?>
<svg xmlns:xlink="http://www.w3.org/1999/xlink" height="37.4px" width="9.7px" xmlns="http://www.w3.org/2000/svg">
  <g transform="matrix(1.0, 0.0, 0.0, 1.0, 2.05, -7.45)">
    <path d="M2.05 22.2 Q9.2 20.75 6.3 23.2 M1.15 20.2 Q8.9 17.4 6.4 19.65 M0.9 17.2 Q7.3 15.35 6.8 17.9 M0.4 14.45 Q7.25 12.7 6.75 15.95 M0.9 12.2 Q8.65 9.4 6.65 12.9 M0.4 9.3 Q7.9 6.4 6.45 9.7 M0.4 42.45 Q5.75 41.85 3.25 43.55 M0.4 39.45 Q5.4 39.25 3.7 41.3 M0.65 35.7 Q3.8 35.0 4.55 36.05 M1.05 37.55 Q6.1 35.95 4.15 38.7 M1.3 34.45 Q7.0 32.6 4.8 35.05 M1.05 31.45 Q6.55 30.3 5.05 32.8 M1.3 28.8 Q7.7 27.4 5.3 30.55 M1.9 26.7 Q7.9 24.45 5.75 27.55 M1.05 24.8 Q5.6 22.9 6.05 24.95" fill="none" stroke="#000000" stroke-linecap="round" stroke-linejoin="round" stroke-opacity="0.4" stroke-width="1.0"/>
    <path d="M4.8 30.3 Q1.8 29.95 0.2 31.8 M5.05 38.65 Q3.1 37.75 1.2 39.05 M4.7 39.95 Q1.9 40.2 0.8 41.3 M4.2 43.85 Q2.85 42.75 0.95 44.35 M5.0 34.4 Q2.35 32.75 0.15 33.5 M4.05 23.7 Q1.0 23.15 -0.7 24.7 M5.7 15.95 Q2.05 15.2 -1.3 16.95 M4.2 28.2 L-0.65 28.4 M4.8 10.4 Q2.0 9.65 -0.7 10.45 M5.1 13.35 Q1.55 12.15 -1.55 13.3 M4.95 27.45 Q2.55 25.4 -0.85 25.8 M4.75 22.75 Q1.95 20.4 -1.05 21.4 M5.45 18.35 Q1.45 18.1 -1.05 19.2" fill="none" stroke="#000000" stroke-linecap="round" stroke-linejoin="round" stroke-opacity="0.4" stroke-width="1.0"/>
  </g>
</svg>
