<?xml version="1.0" encoding="UTF-8" standalone="no"?>
<svg xmlns:xlink="http://www.w3.org/1999/xlink" height="43.0px" width="44.75px" xmlns="http://www.w3.org/2000/svg">
  <g transform="matrix(1.0, 0.0, 0.0, 1.0, 0.0, 0.0)">
    <path d="M10.55 2.1 L12.35 1.5 12.45 1.45 12.6 1.4 13.15 1.25 14.05 1.05 14.1 1.0 22.3 0.0 22.45 0.0 30.65 1.0 33.2 1.75 33.75 1.95 Q35.9 2.75 37.75 3.95 48.0 10.7 43.2 26.65 41.35 33.0 37.0 37.1 31.45 42.4 22.55 43.0 17.5 41.05 13.35 36.7 5.8 28.9 5.8 17.7 5.8 8.9 10.55 2.1" fill="#ffffff" fill-opacity="0.0" fill-rule="evenodd" stroke="none"/>
    <path d="M22.55 43.0 L22.35 43.0 Q13.35 42.45 7.75 37.1 3.4 33.0 1.55 26.65 -3.25 10.7 7.0 3.95 8.65 2.9 10.55 2.1 5.8 8.9 5.8 17.7 5.8 28.9 13.35 36.7 17.5 41.05 22.55 43.0" fill="#ffffff" fill-opacity="0.4" fill-rule="evenodd" stroke="none"/>
  </g>
</svg>
