<?xml version="1.0" encoding="UTF-8" standalone="no"?>
<svg xmlns:xlink="http://www.w3.org/1999/xlink" height="37.4px" width="35.45px" xmlns="http://www.w3.org/2000/svg">
  <g transform="matrix(1.0, 0.0, 0.0, 1.0, 2.65, 4.55)">
    <path d="M30.2 0.6 L30.25 0.15 31.3 5.65 Q32.3 11.7 32.3 14.3 L31.35 17.55 29.8 20.8 28.4 23.15 29.1 20.8 30.45 16.05 Q31.0 12.9 30.2 10.3 L29.75 9.0 28.35 9.45 28.4 9.4 28.4 9.3 28.5 9.0 28.5 8.95 29.5 4.8 30.2 0.6 M2.1 23.75 L2.0 23.5 1.95 23.4 Q0.35 20.95 -1.0 17.75 -2.15 14.9 -2.15 14.3 -2.15 11.85 -1.05 5.65 L-0.05 0.15 0.5 3.65 0.65 4.55 1.15 7.1 1.85 9.4 0.6 9.0 0.25 9.9 Q-0.75 12.8 -0.05 16.35 L2.1 23.75" fill="#000000" fill-opacity="0.2" fill-rule="evenodd" stroke="none"/>
    <path d="M28.4 23.15 L28.2 23.45 27.8 24.1 26.7 25.6 26.1 26.3 25.85 26.65 24.3 28.25 Q20.25 31.9 15.4 32.3 8.2 32.85 2.35 24.1 L2.1 23.75 -0.05 16.35 Q-0.75 12.8 0.25 9.9 L0.6 9.0 1.85 9.4 2.35 10.7 2.85 11.65 2.9 11.75 3.4 12.65 3.4 13.25 Q3.5 14.3 4.5 15.2 L5.9 16.1 6.65 16.3 8.25 16.7 8.35 16.7 9.9 15.75 11.65 13.7 13.5 11.75 Q14.45 10.85 15.1 10.85 15.75 10.85 16.8 11.75 L18.55 13.7 20.3 15.75 22.0 16.7 22.35 16.7 23.45 16.35 24.45 16.1 25.65 15.35 Q26.8 14.45 26.95 13.25 L26.9 12.75 26.85 12.5 27.35 11.65 27.4 11.6 27.4 11.5 28.1 10.05 28.35 9.45 29.75 9.0 30.2 10.3 Q31.0 12.9 30.45 16.05 L29.1 20.8 28.4 23.15 M29.1 13.6 L28.8 13.4 28.35 13.6 28.15 13.95 28.35 14.45 28.75 14.55 28.8 14.55 29.1 14.45 29.3 13.95 29.25 13.7 29.1 13.6 M1.5 13.4 L1.2 13.45 1.1 13.6 0.9 13.95 1.1 14.45 1.5 14.55 1.9 14.45 2.05 13.95 1.9 13.6 1.5 13.4 M16.75 19.25 L13.5 19.25 13.25 18.85 12.85 18.65 12.35 18.85 12.2 19.05 12.2 19.35 12.3 19.75 12.35 19.9 12.85 20.05 13.25 19.9 13.45 19.9 14.6 19.95 16.95 19.9 17.35 20.05 17.8 19.9 18.0 19.75 18.05 19.35 18.0 19.05 17.8 18.85 Q17.7 18.65 17.35 18.65 L16.95 18.85 16.75 19.25 M12.6 21.6 L11.85 21.6 10.45 21.8 10.15 22.25 10.0 22.95 9.95 24.8 10.0 25.1 11.4 25.5 11.45 25.55 12.1 25.7 14.05 25.85 14.4 25.95 15.8 25.85 15.8 25.95 16.15 25.85 18.1 25.7 18.75 25.55 18.85 25.5 20.2 25.1 20.25 24.8 20.2 22.95 Q20.1 22.1 19.75 21.8 L18.4 21.6 17.7 21.6 15.6 21.6 14.7 21.6 12.6 21.6 M15.15 27.9 L14.75 28.15 14.55 28.5 14.55 28.65 14.75 29.1 14.75 29.15 Q14.9 29.3 15.15 29.3 L15.6 29.1 15.8 28.65 15.75 28.5 15.6 28.15 15.15 27.9" fill="#ffffff" fill-opacity="0.0" fill-rule="evenodd" stroke="none"/>
    <path d="M23.45 16.35 L23.3 16.35 23.5 16.3 23.45 16.35 M26.7 12.75 L26.85 12.45 26.85 12.5 26.7 12.75" fill="#d99380" fill-rule="evenodd" stroke="none"/>
    <path d="M3.4 12.65 L5.55 15.55 5.9 15.9 6.65 16.3 5.9 16.1 4.5 15.2 Q3.5 14.3 3.4 13.25 L3.4 12.65 M23.5 16.3 L23.65 16.2 24.45 15.6 24.75 15.25 25.5 14.5 26.6 12.9 26.7 12.75 26.85 12.5 26.9 12.75 26.95 13.25 Q26.8 14.45 25.65 15.35 L24.45 16.1 23.45 16.35 23.5 16.3" fill="#ffffff" fill-opacity="0.4" fill-rule="evenodd" stroke="none"/>
    <path d="M11.85 21.6 L12.6 21.6 12.35 22.55 12.1 24.1 12.1 24.15 12.1 25.7 11.45 25.55 11.45 24.15 11.45 24.1 11.65 22.55 11.85 21.6 M14.7 21.6 L15.6 21.6 15.8 25.85 14.4 25.95 14.7 21.6 M17.7 21.6 L18.4 21.6 18.55 22.55 18.75 24.15 18.75 25.55 18.1 25.7 18.1 25.55 18.05 24.15 17.8 22.55 17.8 22.45 17.7 21.6" fill="#ffffff" fill-opacity="0.2" fill-rule="evenodd" stroke="none"/>
    <path d="M30.2 0.6 L30.25 0.15 31.3 5.65 Q32.3 11.7 32.3 14.3 L31.35 17.55 29.8 20.8 28.4 23.15 28.2 23.45 27.8 24.1 26.7 25.6 26.1 26.3 25.85 26.65 24.3 28.25 Q20.25 31.9 15.4 32.3 8.2 32.85 2.35 24.1 L2.1 23.75 2.0 23.5 1.95 23.4 Q0.35 20.95 -1.0 17.75 -2.15 14.9 -2.15 14.3 -2.15 11.85 -1.05 5.65 L-0.05 0.15" fill="none" stroke="#000000" stroke-linecap="round" stroke-linejoin="miter-clip" stroke-miterlimit="10.0" stroke-width="1.0"/>
    <path d="M-0.05 0.15 L0.5 3.65 0.65 4.55 1.15 7.1 1.85 9.4 2.35 10.7 2.85 11.65 2.9 11.75 3.4 12.65 5.55 15.55 5.9 15.9 6.65 16.3 8.25 16.7 8.35 16.7 9.9 15.75 11.65 13.7 13.5 11.75 Q14.45 10.85 15.1 10.85 15.75 10.85 16.8 11.75 L18.55 13.7 20.3 15.75 22.0 16.7 22.35 16.7 23.45 16.35 23.5 16.3 23.65 16.2 24.45 15.6 24.75 15.25 25.5 14.5 26.6 12.9 26.7 12.75 26.85 12.5 27.35 11.65 27.4 11.6 27.4 11.5 28.1 10.05 28.35 9.45 28.4 9.4 28.4 9.3 28.5 9.0 28.5 8.95 29.5 4.8 30.2 0.6 M12.6 21.6 L11.85 21.6 10.45 21.8 10.15 22.25 10.0 22.95 9.95 24.8 10.0 25.1 11.4 25.5 11.45 25.55 12.1 25.7 14.05 25.85 14.4 25.95 15.8 25.85 15.8 25.95 16.15 25.85 18.1 25.7 18.75 25.55 18.85 25.5 20.2 25.1 20.25 24.8 20.2 22.95 Q20.1 22.1 19.75 21.8 L18.4 21.6 17.7 21.6 15.6 21.6 14.7 21.6 12.6 21.6 M11.45 24.1 L11.45 24.15 M12.1 24.15 L12.1 24.1 M18.1 25.55 L18.1 25.7" fill="none" stroke="#000000" stroke-linecap="round" stroke-linejoin="miter-clip" stroke-miterlimit="10.0" stroke-opacity="0.6" stroke-width="1.0"/>
    <path d="M29.1 13.6 L28.8 13.4 28.35 13.6 28.15 13.95 28.35 14.45 28.75 14.55 28.8 14.55 29.1 14.45 29.3 13.95 29.25 13.7 29.1 13.6 M1.5 13.4 L1.2 13.45 1.1 13.6 0.9 13.95 1.1 14.45 1.5 14.55 1.9 14.45 2.05 13.95 1.9 13.6 1.5 13.4 M16.75 19.25 L13.5 19.25 13.25 18.85 12.85 18.65 12.35 18.85 12.2 19.05 12.2 19.35 12.3 19.75 12.35 19.9 12.85 20.05 13.25 19.9 13.45 19.9 14.6 19.95 16.95 19.9 17.35 20.05 17.8 19.9 18.0 19.75 18.05 19.35 18.0 19.05 17.8 18.85 Q17.7 18.65 17.35 18.65 L16.95 18.85 16.75 19.25 M11.85 21.6 L11.65 22.55 11.45 24.1 M11.45 24.15 L11.45 25.55 M12.1 25.7 L12.1 24.15 M12.1 24.1 L12.35 22.55 12.6 21.6 M18.75 25.55 L18.75 24.15 18.55 22.55 18.4 21.6 M17.7 21.6 L17.8 22.45 17.8 22.55 18.05 24.15 18.1 25.55 M15.15 27.9 L14.75 28.15 14.55 28.5 14.55 28.65 14.75 29.1 14.75 29.15 Q14.9 29.3 15.15 29.3 L15.6 29.1 15.8 28.65 15.75 28.5 15.6 28.15 15.15 27.9 M14.4 25.95 L14.7 21.6 M15.8 25.85 L15.6 21.6" fill="none" stroke="#000000" stroke-linecap="round" stroke-linejoin="miter-clip" stroke-miterlimit="10.0" stroke-opacity="0.4" stroke-width="1.0"/>
  </g>
</svg>
