<?xml version="1.0" encoding="UTF-8" standalone="no"?>
<svg xmlns:xlink="http://www.w3.org/1999/xlink" height="56.25px" width="15.7px" xmlns="http://www.w3.org/2000/svg">
  <g transform="matrix(1.0, 0.0, 0.0, 1.0, 7.85, 26.2)">
    <path d="M7.1 -25.05 L7.15 -21.45 7.2 -7.0 7.15 -5.3 6.95 27.0 Q2.25 29.3 -1.1 29.4 -4.55 29.5 -7.2 27.3 L-7.2 11.15 -7.15 -5.3 -7.15 -7.0 -7.15 -21.45 -7.1 -25.05 Q-0.7 -27.3 7.1 -25.05" fill="#ffffff" fill-opacity="0.0" fill-rule="evenodd" stroke="none"/>
    <path d="M7.1 -25.05 L7.15 -21.45 7.2 -7.0 7.15 -5.3 6.95 27.0 Q2.25 29.3 -1.1 29.4 -4.55 29.5 -7.2 27.3 L-7.2 11.15 -7.15 -5.3 -7.15 -7.0 -7.15 -21.45 -7.1 -25.05" fill="none" stroke="#000000" stroke-linecap="square" stroke-linejoin="round" stroke-width="1.0"/>
    <path d="M-7.2 18.8 Q1.15 20.25 6.95 18.35" fill="none" stroke="#000000" stroke-linecap="square" stroke-linejoin="round" stroke-opacity="0.29803923" stroke-width="1.0"/>
  </g>
</svg>
