<?xml version="1.0" encoding="UTF-8" standalone="no"?>
<svg xmlns:xlink="http://www.w3.org/1999/xlink" height="47.65px" width="34.1px" xmlns="http://www.w3.org/2000/svg">
  <g transform="matrix(1.0, 0.0, 0.0, 1.0, 2.4, 2.25)">
    <path d="M22.55 0.35 L22.85 0.45 23.15 0.7 23.65 1.0 24.15 1.25 25.95 2.95 26.0 3.0 26.4 3.45 26.45 3.5 26.55 3.65 26.6 3.7 26.85 3.9 27.2 4.45 27.55 4.95 27.8 5.4 27.85 5.45 28.3 6.2 29.85 9.6 30.45 11.35 31.0 13.3 31.0 13.35 30.9 16.25 30.85 17.05 30.95 29.9 30.95 29.95 30.25 31.4 28.95 33.4 28.35 34.15 28.35 34.2 28.3 34.25 27.05 38.3 24.65 41.55 24.2 42.0 24.2 42.05 24.05 42.15 23.6 42.5 24.9 39.6 25.6 38.15 25.65 38.05 25.8 37.7 25.9 37.55 26.3 36.8 26.6 36.15 27.35 34.7 27.65 34.1 28.0 33.3 Q29.25 30.5 29.85 27.4 30.4 24.2 30.4 20.1 30.45 17.4 29.55 13.15 28.8 9.8 27.85 7.4 L27.5 6.35 27.45 6.15 Q26.75 4.55 25.05 2.95 L22.05 0.1 22.55 0.35 M28.3 6.2 L28.25 6.35 27.85 7.4 28.25 6.35 28.3 6.2" fill="#ffffff" fill-opacity="0.4" fill-rule="evenodd" stroke="none"/>
    <path d="M27.2 4.45 L27.45 4.75 27.55 4.95 27.2 4.45 M27.85 5.45 L28.3 6.15 29.85 9.5 30.45 11.25 31.0 13.2 31.0 13.3 30.45 11.35 29.85 9.6 28.3 6.2 27.85 5.45 M3.35 39.3 L3.2 39.05 3.2 39.0 3.35 39.3 M28.3 6.15 L28.3 6.2 28.3 6.15" fill="#844f9b" fill-rule="evenodd" stroke="none"/>
    <path d="M1.4 6.15 L1.85 5.45 Q2.65 4.05 3.55 3.05 L3.65 2.95 5.6 1.25 Q7.35 0.0 9.5 -0.7 L9.75 -0.85 14.85 -1.75 Q17.45 -1.55 19.85 -0.85 L20.2 -0.7 20.45 -0.6 20.55 -0.55 20.7 -0.5 20.8 -0.45 21.4 -0.25 22.5 0.3 22.55 0.35 22.05 0.1 25.05 2.95 Q26.75 4.55 27.45 6.15 L27.5 6.35 27.85 7.4 27.55 8.15 26.3 10.4 26.65 12.05 27.75 22.7 26.65 12.05 26.3 10.4 27.55 8.15 27.85 7.4 Q28.8 9.8 29.55 13.15 30.45 17.4 30.4 20.1 30.4 24.2 29.85 27.4 29.25 30.5 28.0 33.3 L27.65 34.1 27.35 34.7 26.6 36.15 26.3 36.8 25.9 37.55 25.8 37.7 25.65 38.05 25.6 38.15 24.9 39.6 23.6 42.5 22.9 43.05 22.7 43.25 21.75 43.75 19.75 44.9 20.15 44.1 20.55 43.5 21.35 42.6 21.75 42.1 23.55 39.65 23.6 39.6 24.5 37.7 24.55 37.55 25.45 34.7 25.55 33.75 25.65 33.6 26.3 33.05 26.6 32.7 Q27.75 31.5 27.8 30.85 L21.85 33.55 19.1 31.35 18.1 30.7 16.5 30.0 16.25 29.9 14.95 29.6 13.65 29.9 13.4 30.0 Q11.95 30.5 10.8 31.35 L10.2 31.85 10.05 31.95 8.95 32.8 8.05 33.55 2.45 31.05 2.0 26.4 2.0 26.35 2.7 27.05 3.95 28.1 6.05 29.3 6.15 29.35 7.65 30.0 8.05 30.05 9.5 29.3 11.25 28.2 13.8 26.55 14.0 25.1 12.8 24.8 10.9 24.2 10.35 23.95 8.25 22.6 Q6.95 21.8 6.4 21.8 5.35 21.75 3.2 22.4 L2.15 22.7 2.65 16.4 2.15 22.7 2.0 24.7 2.0 25.9 Q1.7 21.0 2.25 17.65 L2.65 16.4 2.65 16.35 2.75 15.4 3.0 12.05 3.4 10.4 2.15 8.15 1.45 6.35 1.4 6.15 M2.55 31.85 L3.2 32.6 4.0 33.45 4.15 33.6 4.2 33.6 4.55 35.9 4.8 36.75 4.85 36.9 5.2 37.7 6.2 39.6 8.65 42.7 8.75 42.8 8.8 42.85 9.45 43.7 9.5 43.75 9.75 44.25 10.05 44.75 10.05 44.85 9.8 44.75 9.45 44.6 8.9 44.25 8.65 44.1 7.1 43.1 6.85 42.95 6.75 42.85 3.45 39.5 3.35 39.3 3.2 39.0 3.0 36.9 3.0 36.75 2.85 35.1 2.8 34.5 2.55 31.85 M13.4 30.0 L13.8 26.55 13.4 30.0 M16.55 22.15 L17.55 21.9 Q18.75 21.5 19.55 20.95 L21.2 19.8 Q21.95 19.3 22.75 19.15 L24.45 19.3 25.5 19.55 24.45 19.3 22.75 19.15 Q21.95 19.3 21.2 19.8 L19.55 20.95 Q18.75 21.5 17.55 21.9 L16.55 22.15 M27.75 22.7 L26.75 22.4 Q24.55 21.75 23.45 21.8 22.85 21.8 21.65 22.6 L19.55 23.95 19.0 24.2 17.05 24.8 15.85 25.1 16.1 26.55 18.7 28.2 19.25 28.6 20.55 29.4 20.9 29.55 21.85 30.05 23.6 29.45 23.75 29.35 25.1 28.65 25.65 28.35 25.9 28.1 27.2 27.05 27.9 26.35 27.75 22.7 M13.4 22.15 L12.3 21.9 Q11.15 21.5 10.4 20.95 L8.7 19.8 Q7.9 19.3 7.2 19.15 L5.45 19.3 4.4 19.55 5.45 19.3 7.2 19.15 Q7.9 19.3 8.7 19.8 L10.4 20.95 Q11.15 21.5 12.3 21.9 L13.4 22.15 M16.1 26.55 L16.5 30.0 16.1 26.55 M27.9 26.6 L27.9 26.35 27.9 26.6 27.85 28.75 27.8 30.85 27.85 28.75 27.9 26.6" fill="#ffffff" fill-opacity="0.0" fill-rule="evenodd" stroke="none"/>
    <path d="M30.9 16.25 L30.9 16.6 30.9 16.9 30.85 17.05 30.9 16.25 M30.95 29.95 L30.95 30.05 30.25 31.4 30.95 29.95" fill="#ab82b7" fill-rule="evenodd" stroke="none"/>
    <path d="M2.45 31.05 L2.1 30.85 2.2 31.25 2.25 31.3 2.45 31.7 2.55 31.85 2.8 34.5 2.85 35.1 3.0 36.75 3.0 36.9 3.2 39.0 3.15 38.95 3.0 38.75 3.0 38.7 2.8 38.3 2.75 38.2 2.15 36.75 2.05 36.45 1.55 34.5 1.5 34.25 0.25 32.4 -0.2 31.6 -0.4 31.3 -1.05 29.9 -1.3 13.2 -0.15 9.5 Q0.6 7.6 1.3 6.35 L1.4 6.15 1.45 6.35 2.15 8.15 3.4 10.4 3.0 12.05 2.75 15.4 2.65 16.35 2.65 16.4 2.25 17.65 Q1.7 21.0 2.0 25.9 L2.0 26.35 2.0 26.4 2.05 28.75 2.1 30.85 2.05 28.75 2.0 26.4 2.45 31.05" fill="#000000" fill-opacity="0.2" fill-rule="evenodd" stroke="none"/>
    <path d="M1.4 6.15 L1.85 5.45 Q2.65 4.05 3.55 3.05 L3.65 2.95 5.6 1.25 Q7.35 0.0 9.5 -0.7 L9.75 -0.85 14.85 -1.75 Q17.45 -1.55 19.85 -0.85 L20.2 -0.7 20.45 -0.6 20.55 -0.55 20.7 -0.5 20.8 -0.45 21.4 -0.25 22.5 0.3 22.55 0.35 22.85 0.45 23.15 0.7 23.65 1.0 24.15 1.25 25.95 2.95 26.0 3.0 26.4 3.45 26.45 3.5 26.55 3.65 26.6 3.7 26.85 3.9 27.2 4.45 27.55 4.95 27.8 5.4 27.85 5.45 28.3 6.15 29.85 9.5 30.45 11.25 31.0 13.2 31.0 13.3 M31.0 13.35 L30.9 16.25 30.85 17.05 30.95 29.9 M21.75 43.75 L19.75 44.9 M10.05 44.85 L9.8 44.75 M9.45 44.6 L8.9 44.25 8.65 44.1 7.1 43.1 6.85 42.95 6.75 42.85 3.45 39.5 3.35 39.3 3.2 39.0 3.15 38.95 3.0 38.75 3.0 38.7 2.8 38.3 2.75 38.2 2.15 36.75 2.05 36.45 1.55 34.5 1.5 34.25 0.25 32.4 -0.2 31.6 -0.4 31.3 -1.05 29.9 -1.3 13.2 -0.15 9.5 Q0.6 7.6 1.3 6.35 L1.4 6.15 1.45 6.35" fill="none" stroke="#000000" stroke-linecap="round" stroke-linejoin="miter-clip" stroke-miterlimit="10.0" stroke-width="1.0"/>
    <path d="M30.95 29.9 L30.95 29.95 30.25 31.4 28.95 33.4 28.35 34.2 28.3 34.25 27.05 38.3 24.65 41.55 24.2 42.0 24.2 42.05 24.05 42.15 23.6 42.5 22.9 43.05 M22.7 43.25 L21.75 43.75 M2.45 31.05 L2.1 30.85 2.2 31.25 2.25 31.3 M1.45 6.35 L2.15 8.15 3.4 10.4 3.0 12.05 2.75 15.4 2.65 16.35 2.65 16.4 2.15 22.7 3.2 22.4 Q5.35 21.75 6.4 21.8 6.95 21.8 8.25 22.6 L10.35 23.95 10.9 24.2 12.8 24.8 14.0 25.1 13.8 26.55 11.25 28.2 9.5 29.3 8.05 30.05 7.65 30.0 6.15 29.35 6.05 29.3 3.95 28.1 2.7 27.05 2.0 26.35 2.0 25.9 2.0 24.7 2.15 22.7 M27.85 7.4 L28.25 6.35 28.3 6.2 28.3 6.15 M27.75 22.7 L26.65 12.05 26.3 10.4 27.55 8.15 27.85 7.4 M25.5 19.55 L24.45 19.3 22.75 19.15 Q21.95 19.3 21.2 19.8 L19.55 20.95 Q18.75 21.5 17.55 21.9 L16.55 22.15 M27.75 22.7 L26.75 22.4 Q24.55 21.75 23.45 21.8 22.85 21.8 21.65 22.6 L19.55 23.95 19.0 24.2 17.05 24.8 15.85 25.1 16.1 26.55 18.7 28.2 19.25 28.6 20.55 29.4 20.9 29.55 21.85 30.05 23.6 29.45 23.75 29.35 25.1 28.65 25.65 28.35 25.9 28.1 27.2 27.05 27.9 26.35 27.75 22.7 M4.4 19.55 L5.45 19.3 7.2 19.15 Q7.9 19.3 8.7 19.8 L10.4 20.95 Q11.15 21.5 12.3 21.9 L13.4 22.15 M2.0 26.4 L2.0 26.35 M2.1 30.85 L2.05 28.75 2.0 26.4 M27.9 26.35 L27.9 26.6" fill="none" stroke="#000000" stroke-linecap="round" stroke-linejoin="miter-clip" stroke-miterlimit="10.0" stroke-opacity="0.4" stroke-width="1.0"/>
    <path d="M19.75 44.9 L20.15 44.1 20.55 43.5 21.35 42.6 21.75 42.1 23.55 39.65 23.6 39.6 24.5 37.7 24.55 37.55 25.45 34.7 25.55 33.75 25.65 33.6 26.3 33.05 26.6 32.7 Q27.75 31.5 27.8 30.85 L21.85 33.55 19.1 31.35 18.1 30.7 16.5 30.0 16.25 29.9 14.95 29.6 13.65 29.9 13.4 30.0 Q11.95 30.5 10.8 31.35 L10.2 31.85 10.05 31.95 8.95 32.8 8.05 33.55 2.45 31.05 M2.25 31.3 L2.45 31.7 2.55 31.85 3.2 32.6 4.0 33.45 4.15 33.6 4.2 33.6 4.55 35.9 4.8 36.75 4.85 36.9 5.2 37.7 6.2 39.6 8.65 42.7 8.75 42.8 8.8 42.85 9.45 43.7 9.5 43.75 9.75 44.25 10.05 44.75 10.05 44.85 M9.8 44.75 L9.45 44.6 M13.8 26.55 L13.4 30.0 M16.5 30.0 L16.1 26.55 M27.9 26.6 L27.85 28.75 27.8 30.85" fill="none" stroke="#000000" stroke-linecap="round" stroke-linejoin="miter-clip" stroke-miterlimit="10.0" stroke-opacity="0.6" stroke-width="1.0"/>
  </g>
</svg>
