<?xml version="1.0" encoding="UTF-8" standalone="no"?>
<svg xmlns:xlink="http://www.w3.org/1999/xlink" height="31.55px" width="36.85px" xmlns="http://www.w3.org/2000/svg">
  <g transform="matrix(1.0, 0.0, 0.0, 1.0, 2.05, 0.4)">
    <path d="M21.6 4.0 L20.95 3.4 21.5 4.5 22.3 8.0 22.4 8.45 22.85 12.2 23.45 20.85 21.4 8.45 21.35 8.0 20.5 3.0 Q21.05 3.0 21.6 4.0 M24.7 28.8 L24.0 28.7 22.95 28.5 29.0 27.5 Q30.4 27.1 31.7 25.05 L32.75 23.05 31.85 23.0 31.0 22.95 30.45 18.75 29.95 16.7 28.6 13.1 27.95 11.75 27.9 11.6 27.7 11.3 26.55 9.4 25.9 8.45 25.55 8.0 25.5 8.0 23.95 6.25 22.85 5.25 23.1 5.15 23.4 5.3 24.15 5.7 25.5 6.65 27.1 8.0 27.55 8.45 27.7 8.65 28.6 9.75 28.7 9.85 30.0 11.75 31.0 13.7 31.45 14.7 32.2 16.6 32.25 16.7 32.25 16.75 32.35 17.05 32.55 17.65 34.0 24.55 33.95 24.6 34.0 24.55 34.05 24.6 34.15 24.8 33.95 25.0 33.1 25.85 32.9 26.0 31.1 27.3 Q30.05 28.1 29.15 28.35 L27.65 28.6 24.7 28.8 M33.95 24.6 L33.1 25.55 32.9 25.75 32.4 26.2 31.1 27.3 32.4 26.2 32.9 25.75 33.1 25.55 33.95 24.6" fill="#ffffff" fill-opacity="0.4" fill-rule="evenodd" stroke="none"/>
    <path d="M21.6 4.0 L21.85 4.5 21.6 4.0 21.85 4.35 22.1 4.45 22.25 4.5 22.65 4.7 23.1 4.9 23.4 5.05 24.55 5.7 25.5 6.4 27.3 8.0 27.7 8.45 28.6 9.6 28.7 9.7 30.05 11.75 31.0 13.6 31.45 14.6 32.0 15.95 32.3 16.7 32.3 16.8 32.55 17.5 33.1 19.3 33.1 19.35 33.2 19.7 33.5 20.95 33.55 21.2 33.95 23.9 34.0 24.45 34.15 24.55 34.15 24.6 34.2 24.9 34.2 25.0 34.1 25.35 33.1 26.85 33.05 26.9 32.95 27.0 31.2 28.75 29.45 29.85 25.45 30.45 23.15 30.55 20.05 30.6 17.1 30.5 15.3 30.55 14.95 28.85 14.95 28.75 13.25 28.55 Q11.2 28.2 9.7 27.5 8.2 26.8 7.5 25.25 L7.05 23.8 8.75 23.95 10.65 24.1 13.0 24.2 13.55 8.45 13.55 8.0 13.7 3.3 Q13.25 3.3 12.8 3.95 L12.35 4.6 12.3 4.6 12.35 4.5 12.35 4.45 12.65 4.0 12.8 3.75 Q13.3 3.0 13.7 3.0 L20.5 3.0 21.35 8.0 21.4 8.45 23.45 20.85 22.85 12.2 22.4 8.45 22.3 8.0 21.5 4.5 20.95 3.4 21.6 4.0 M21.85 4.5 L22.5 8.0 22.55 8.45 Q23.0 11.75 23.25 16.5 L23.55 24.1 17.45 24.25 17.1 24.25 16.8 24.25 13.0 24.2 16.8 24.25 17.1 24.25 17.45 24.25 23.55 24.1 23.25 16.5 Q23.0 11.75 22.55 8.45 L22.5 8.0 21.85 4.5 M34.0 24.55 L32.55 17.65 32.35 17.05 32.25 16.75 32.25 16.7 32.2 16.6 31.45 14.7 31.0 13.7 30.0 11.75 28.7 9.85 28.6 9.75 27.7 8.65 27.55 8.45 27.1 8.0 25.5 6.65 24.15 5.7 23.4 5.3 23.1 5.15 22.85 5.25 23.95 6.25 25.5 8.0 25.55 8.0 25.9 8.45 26.55 9.4 27.7 11.3 27.9 11.6 27.95 11.75 28.6 13.1 29.95 16.7 30.45 18.75 31.0 22.95 31.85 23.0 32.75 23.05 31.7 25.05 Q30.4 27.1 29.0 27.5 L22.95 28.5 24.0 28.7 24.7 28.8 27.65 28.6 29.15 28.35 Q30.05 28.1 31.1 27.3 L32.9 26.0 33.1 25.85 33.95 25.0 34.15 24.8 34.05 24.6 34.0 24.55 34.1 24.6 34.2 24.9 34.1 24.6 34.0 24.55 M23.55 24.1 L27.0 23.75 31.85 23.0 27.0 23.75 23.55 24.1 M24.7 28.8 L22.3 28.85 17.1 28.85 14.95 28.85 17.1 28.85 22.3 28.85 24.7 28.8" fill="#ffffff" fill-opacity="0.0" fill-rule="evenodd" stroke="none"/>
    <path d="M12.35 4.45 L12.35 4.5 12.3 4.6 12.35 4.6 12.8 3.95 Q13.25 3.3 13.7 3.3 L13.55 8.0 13.55 8.45 13.0 24.2 10.65 24.1 10.65 24.05 10.95 16.5 Q11.25 11.75 11.7 8.45 L11.75 8.0 12.3 4.6 11.75 8.0 11.7 8.45 Q11.25 11.75 10.95 16.5 L10.65 24.05 10.65 24.1 8.75 23.95 7.25 23.75 2.35 23.05 7.25 23.75 8.75 23.95 7.05 23.8 7.5 25.25 Q8.2 26.8 9.7 27.5 11.2 28.2 13.25 28.55 L14.95 28.75 14.95 28.85 15.3 30.55 17.1 30.5 20.05 30.6 17.1 30.55 11.85 30.65 4.75 29.95 Q3.45 29.35 2.15 28.05 L1.2 27.1 Q0.0 25.75 0.0 25.05 L0.0 25.0 0.2 24.55 0.2 24.5 0.7 21.4 Q0.85 20.5 1.15 19.55 L1.2 19.25 1.3 18.9 1.65 17.75 1.75 17.45 2.15 16.4 2.2 16.15 2.25 16.05 2.3 15.9 2.45 15.45 3.2 13.8 3.3 13.6 3.75 12.7 Q4.25 11.6 4.9 10.65 L5.9 9.25 6.35 8.7 6.55 8.45 6.95 8.0 7.1 7.85 8.25 6.8 9.25 6.0 10.0 5.5 11.1 4.9 11.65 4.65 12.0 4.5 12.2 4.4 12.35 4.35 12.35 4.45 M11.85 30.65 L12.65 30.6 15.3 30.55 12.65 30.6 11.85 30.65 M0.2 24.55 L1.8 26.2 Q3.65 27.95 5.05 28.35 L14.95 28.85 5.05 28.35 Q3.65 27.95 1.8 26.2 L0.2 24.55" fill="#000000" fill-opacity="0.2" fill-rule="evenodd" stroke="none"/>
    <path d="M12.65 4.0 L12.35 4.45 12.35 4.35 12.65 4.0" fill="#fde033" fill-rule="evenodd" stroke="none"/>
    <path d="M21.85 4.5 L21.6 4.0 21.85 4.35 22.1 4.45 22.25 4.5 22.65 4.7 23.1 4.9 23.4 5.05 24.55 5.7 25.5 6.4 27.3 8.0 27.7 8.45 28.6 9.6 28.7 9.7 30.05 11.75 31.0 13.6 31.45 14.6 32.0 15.95 32.3 16.7 32.3 16.8 32.55 17.5 33.1 19.3 33.1 19.35 33.2 19.7 33.5 20.95 33.55 21.2 33.95 23.9 34.0 24.45 34.15 24.55 34.15 24.6 34.2 24.9 34.2 25.0 34.15 25.35 M20.5 3.0 L13.7 3.0 Q13.3 3.0 12.8 3.75 L12.65 4.0 12.35 4.45 12.35 4.35 12.2 4.4 12.0 4.5 11.65 4.65 11.1 4.9 10.0 5.5 9.25 6.0 8.25 6.8 7.1 7.85 6.95 8.0 6.55 8.45 6.35 8.7 5.9 9.25 4.9 10.65 Q4.25 11.6 3.75 12.7 L3.3 13.6 3.2 13.8 2.45 15.45 2.3 15.9 2.25 16.0 2.2 16.15 2.15 16.4 1.75 17.45 1.65 17.75 1.3 18.9 1.2 19.25 1.15 19.55 Q0.85 20.5 0.7 21.4 L0.2 24.5 0.2 24.55 M33.95 24.6 L34.0 24.55 34.1 24.6 34.2 24.9 M20.5 3.0 Q21.05 3.0 21.6 4.0" fill="none" stroke="#000000" stroke-linecap="round" stroke-linejoin="miter-clip" stroke-miterlimit="10.0" stroke-width="1.0"/>
    <path d="M12.35 4.45 L12.35 4.5 12.3 4.6 11.75 8.0 11.7 8.45 Q11.25 11.75 10.95 16.5 L10.65 24.05 10.65 24.1 13.0 24.2 16.8 24.25 17.1 24.25 17.45 24.25 23.55 24.1 23.25 16.5 Q23.0 11.75 22.55 8.45 L22.5 8.0 21.85 4.5 M34.15 25.35 L33.1 26.9 32.95 27.05 31.2 28.75 29.45 29.85 25.45 30.45 23.15 30.55 20.05 30.6 17.1 30.5 15.3 30.55 12.65 30.6 11.85 30.65 4.75 29.95 Q3.45 29.35 2.15 28.05 L1.2 27.1 Q0.0 25.75 0.0 25.05 L0.0 25.0 0.2 24.55 1.8 26.2 Q3.65 27.95 5.05 28.35 L14.95 28.85 17.1 28.85 22.3 28.85 24.7 28.8 27.65 28.6 29.15 28.35 Q30.05 28.1 31.1 27.3 L32.4 26.2 32.9 25.75 33.1 25.55 33.95 24.6 M31.85 23.0 L27.0 23.75 23.55 24.1 M8.75 23.95 L7.25 23.75 2.35 23.05 M8.75 23.95 L10.65 24.1" fill="none" stroke="#000000" stroke-linecap="round" stroke-linejoin="miter-clip" stroke-miterlimit="10.0" stroke-opacity="0.4" stroke-width="1.0"/>
  </g>
</svg>
