<?xml version="1.0" encoding="UTF-8" standalone="no"?>
<svg xmlns:xlink="http://www.w3.org/1999/xlink" height="36.2px" width="28.25px" xmlns="http://www.w3.org/2000/svg">
  <g transform="matrix(1.0, 0.0, 0.0, 1.0, 0.5, 0.5)">
    <path d="M23.0 14.9 L4.3 14.9 4.15 13.85 23.15 13.85 23.0 14.9 M23.45 17.05 L3.85 17.05 3.85 16.65 23.45 16.65 23.45 17.05 M13.55 20.6 L13.25 25.7 13.2 25.9 9.95 27.6 11.7 24.9 Q12.35 24.05 13.0 22.3 L13.55 20.6" fill="#ffffff" fill-opacity="0.4" fill-rule="evenodd" stroke="none"/>
    <path d="M25.85 4.95 L25.9 9.3 25.95 14.3 26.2 17.0 24.75 20.45 24.5 16.7 25.4 11.0 25.85 4.95 M23.45 17.05 L23.45 16.65 3.85 16.65 3.85 17.05 23.45 17.05 M23.0 14.9 L23.15 13.85 4.15 13.85 4.3 14.9 23.0 14.9 M6.1 35.2 L3.85 33.1 1.85 30.55 0.55 28.45 Q-0.25 27.2 0.1 23.1 L0.7 19.2 Q1.55 23.1 1.85 23.1 L2.95 22.95 3.7 23.75 Q4.65 24.45 5.3 24.6 L6.3 24.6 10.95 23.75 12.4 23.4 12.85 20.25 14.85 20.25 15.3 23.4 19.55 24.35 21.95 24.6 22.65 24.4 24.3 22.95 25.4 22.95 Q25.75 22.95 26.55 19.2 L27.15 23.1 27.25 25.85 Q27.15 27.8 26.7 28.45 L25.45 30.5 23.4 33.1 21.2 35.15 21.15 35.2 21.15 30.65 20.5 30.65 18.8 30.55 17.3 29.2 16.1 27.95 13.65 26.05 13.3 26.2 Q12.25 26.85 11.15 27.95 L9.2 29.95 8.45 30.55 6.5 30.65 6.1 30.65 6.1 35.2 M23.65 16.35 L23.85 19.1 3.4 19.1 3.6 16.35 23.65 16.35 M1.35 9.3 L1.4 4.95 1.85 11.0 2.75 16.7 2.5 20.45 1.1 17.0 1.3 14.3 1.35 9.3 M25.0 3.4 L23.5 15.6 3.8 15.6 2.25 3.4 8.15 0.0 10.4 5.5 16.85 5.5 19.1 0.0 25.0 3.4 M13.55 20.6 L13.0 22.3 Q12.35 24.05 11.7 24.9 L9.95 27.6 13.2 25.9 13.25 25.7 13.55 20.6" fill="#ffffff" fill-opacity="0.0" fill-rule="evenodd" stroke="none"/>
    <path d="M25.85 4.95 L25.4 11.0 24.5 16.7 24.75 20.45 26.2 17.0 25.95 14.3 25.9 9.3 25.85 4.95 M21.2 35.15 L23.4 33.1 25.45 30.5 26.7 28.45 Q27.15 27.8 27.25 25.85 L27.15 23.1 26.55 19.2 Q25.75 22.95 25.4 22.95 L24.3 22.95 22.65 24.4 21.95 24.6 19.55 24.35 15.3 23.4 14.85 20.25 12.85 20.25 12.4 23.4 10.95 23.75 6.3 24.6 5.3 24.6 Q4.65 24.45 3.7 23.75 L2.95 22.95 1.85 23.1 Q1.55 23.1 0.7 19.2 L0.1 23.1 Q-0.25 27.2 0.55 28.45 L1.85 30.55 3.85 33.1 6.1 35.2 M25.0 3.4 L19.1 0.0 16.85 5.5 10.4 5.5 8.15 0.0 2.25 3.4 3.8 15.6 23.5 15.6 25.0 3.4 M1.35 9.3 L1.3 14.3 1.1 17.0 2.5 20.45 2.75 16.7 1.85 11.0 1.4 4.95 1.35 9.3" fill="none" stroke="#000000" stroke-linecap="round" stroke-linejoin="round" stroke-opacity="0.4" stroke-width="1.0"/>
    <path d="M6.1 30.65 L6.5 30.65 8.45 30.55 9.2 29.95 11.15 27.95 Q12.25 26.85 13.3 26.2 L13.65 26.05 16.1 27.95 17.3 29.2 18.8 30.55 20.5 30.65 21.15 30.65 21.15 35.2" fill="none" stroke="#000000" stroke-linecap="round" stroke-linejoin="miter-clip" stroke-miterlimit="10.0" stroke-opacity="0.6" stroke-width="1.0"/>
    <path d="M6.1 35.2 L6.1 30.65" fill="none" stroke="#000000" stroke-linecap="round" stroke-linejoin="miter-clip" stroke-miterlimit="10.0" stroke-width="1.0"/>
    <path d="M21.15 35.2 L21.2 35.15 M23.65 16.35 L3.6 16.35 3.4 19.1 23.85 19.1 23.65 16.35" fill="none" stroke="#000000" stroke-linecap="round" stroke-linejoin="round" stroke-opacity="0.6" stroke-width="1.0"/>
  </g>
</svg>
