<?xml version="1.0" encoding="UTF-8" standalone="no"?>
<svg xmlns:xlink="http://www.w3.org/1999/xlink" height="10.95px" width="27.7px" xmlns="http://www.w3.org/2000/svg">
  <g transform="matrix(1.0, 0.0, 0.0, 1.0, 1.05, 1.15)">
    <path d="M24.05 2.0 L23.8 4.85 21.75 4.3 18.1 3.45 14.25 2.85 Q12.4 2.75 11.05 2.9 L7.45 3.45 3.85 4.3 1.75 4.85 1.5 2.0 3.55 1.5 7.05 0.75 11.05 0.25 Q12.85 0.05 14.55 0.25 L18.5 0.75 22.0 1.5 24.05 2.0 M25.5 8.2 L25.35 8.05 19.5 6.1 Q13.55 4.2 12.8 4.25 10.95 4.4 5.4 6.4 L0.2 8.4 0.6 8.75 Q0.95 9.0 3.85 7.65 L7.85 6.2 Q12.0 4.8 12.75 4.85 14.95 5.15 24.4 8.65 L25.15 8.55 25.45 8.35 Q25.2 8.9 24.45 8.85 L20.55 7.55 Q16.4 6.0 14.65 5.55 L14.55 5.5 13.25 5.2 12.75 5.15 12.35 5.2 11.05 5.5 10.9 5.55 Q9.25 6.0 5.05 7.55 L1.1 8.85 Q0.1 8.9 0.0 7.8 L0.15 6.6 4.15 5.2 11.05 3.6 12.75 3.45 12.85 3.45 14.55 3.6 21.4 5.2 25.4 6.6 25.45 6.8 25.55 7.8 25.5 8.2" fill="#ffffff" fill-opacity="0.0" fill-rule="evenodd" stroke="none"/>
    <path d="M25.45 8.35 L25.15 8.55 24.4 8.65 Q14.95 5.15 12.75 4.85 12.0 4.8 7.85 6.2 L3.85 7.65 Q0.95 9.0 0.6 8.75 L0.2 8.4 5.4 6.4 Q10.95 4.4 12.8 4.25 13.55 4.2 19.5 6.1 L25.35 8.05 25.5 8.2 25.45 8.35" fill="#ffffff" fill-opacity="0.29803923" fill-rule="evenodd" stroke="none"/>
    <path d="M24.05 2.0 L22.0 1.5 18.5 0.75 14.55 0.25 Q12.85 0.05 11.05 0.25 L7.05 0.75 3.55 1.5 1.5 2.0 1.75 4.85 3.85 4.3 7.45 3.45 11.05 2.9 Q12.4 2.75 14.25 2.85 L18.1 3.45 21.75 4.3 23.8 4.85 24.05 2.0 M25.5 8.2 L25.55 7.8 25.45 6.8 25.4 6.6 21.4 5.2 14.55 3.6 12.85 3.45 12.75 3.45 11.05 3.6 4.15 5.2 0.15 6.6 0.0 7.8 Q0.1 8.9 1.1 8.85 L5.05 7.55 Q9.25 6.0 10.9 5.55 L11.05 5.5 12.35 5.2 12.75 5.15 13.25 5.2 14.55 5.5 14.65 5.55 Q16.4 6.0 20.55 7.55 L24.45 8.85 Q25.2 8.9 25.45 8.35" fill="none" stroke="#000000" stroke-linecap="round" stroke-linejoin="miter-clip" stroke-miterlimit="10.0" stroke-opacity="0.6" stroke-width="1.0"/>
  </g>
</svg>
