<?xml version="1.0" encoding="UTF-8" standalone="no"?>
<svg xmlns:xlink="http://www.w3.org/1999/xlink" height="25.95px" width="53.95px" xmlns="http://www.w3.org/2000/svg">
  <g transform="matrix(1.0, 0.0, 0.0, 1.0, 4.65, 2.3)">
    <path d="M37.45 9.8 L38.75 9.85 40.55 10.0 43.0 10.45 43.2 10.6 44.35 11.1 Q44.85 11.3 45.45 11.85 L45.75 12.2 47.15 14.05 47.2 14.15 47.2 14.2 47.65 15.0 47.8 15.55 47.8 15.65 47.8 15.75 47.8 16.0 47.75 16.3 Q47.7 15.65 47.15 14.95 46.7 14.1 45.75 13.3 L44.35 12.3 43.2 11.85 43.0 11.8 40.55 11.35 37.45 11.15 Q32.3 10.95 25.4 11.05 L8.0 12.1 7.95 12.1 5.55 12.4 4.05 12.7 2.55 13.0 Q-1.85 13.9 -3.0 15.0 L-3.4 15.5 -3.45 15.05 -3.4 14.7 -3.4 14.65 -3.35 14.45 -3.05 14.15 -3.0 14.05 Q-2.2 13.15 0.25 12.4 L2.55 11.8 5.55 11.2 7.95 10.85 8.0 10.8 8.0 10.7 9.2 7.3 10.3 4.5 10.95 2.75 11.65 1.4 12.2 0.95 12.4 2.75 12.4 4.3 12.35 4.5 11.65 5.6 10.95 6.55 10.8 6.9 Q10.55 7.6 10.55 8.65 L10.65 10.5 25.4 9.65 Q31.65 9.6 35.4 9.7 L35.5 9.7 37.1 9.8 37.45 9.8 M8.0 10.85 L8.45 10.8 8.75 10.75 10.65 10.5 8.75 10.75 8.45 10.8 8.0 10.85 7.95 10.85 8.0 10.85" fill="#000000" fill-opacity="0.2" fill-rule="evenodd" stroke="none"/>
    <path d="M47.8 16.0 L47.8 16.3 47.35 17.2 46.8 17.95 46.45 18.25 43.2 20.1 40.8 21.1 37.5 22.05 37.55 21.9 37.9 20.4 Q38.0 18.25 37.2 16.95 36.4 15.45 28.4 15.35 L15.5 15.9 8.95 16.6 Q7.9 16.95 7.65 18.65 7.45 20.25 8.05 22.0 L2.55 20.95 1.85 20.65 Q1.2 20.45 0.2 19.65 L-1.9 17.85 -1.95 17.8 Q-3.5 16.2 -3.45 15.05 L-3.4 15.5 -3.0 15.0 Q-1.85 13.9 2.55 13.0 L4.05 12.7 5.55 12.4 7.95 12.1 8.0 12.1 25.4 11.05 Q32.3 10.95 37.45 11.15 L40.55 11.35 43.0 11.8 43.2 11.85 44.35 12.3 45.75 13.3 Q46.7 14.1 47.15 14.95 47.7 15.65 47.75 16.3 L47.8 16.0" fill="#000000" fill-opacity="0.4" fill-rule="evenodd" stroke="none"/>
    <path d="M11.65 1.4 Q12.6 0.45 14.4 -0.35 17.65 -1.6 22.75 -1.55 L28.4 -0.7 31.4 0.45 33.2 1.65 33.05 1.55 33.5 4.05 33.65 4.5 34.3 6.5 34.3 6.55 34.9 8.5 35.0 8.85 35.4 9.65 35.4 9.7 Q31.65 9.6 25.4 9.65 L10.65 10.5 10.55 8.65 Q10.55 7.6 10.8 6.9 L10.95 6.55 11.65 5.6 12.35 4.5 12.4 4.3 12.4 2.75 12.2 0.95 11.65 1.4" fill="#ffffff" fill-opacity="0.0" fill-rule="evenodd" stroke="none"/>
    <path d="M33.2 1.65 L33.25 1.7 33.35 1.8 34.2 2.6 35.0 4.1 35.15 4.5 36.05 6.5 37.1 9.0 37.35 9.65 37.45 9.8 37.1 9.8 35.5 9.7 35.4 9.7 35.4 9.65 35.0 8.85 34.9 8.5 34.3 6.55 34.3 6.5 33.65 4.5 33.5 4.05 33.05 1.55 33.2 1.65" fill="#ffffff" fill-opacity="0.4" fill-rule="evenodd" stroke="none"/>
    <path d="M11.65 1.4 Q12.6 0.45 14.4 -0.35 17.65 -1.6 22.75 -1.55 L28.4 -0.7 31.4 0.45 33.2 1.65 33.25 1.7 33.35 1.8 34.2 2.6 35.0 4.1 35.15 4.5 36.05 6.5 37.1 9.0 37.35 9.65 37.45 9.8 38.75 9.85 40.55 10.0 43.0 10.45 43.2 10.6 44.35 11.1 Q44.85 11.3 45.45 11.85 L45.75 12.2 47.15 14.05 47.2 14.15 47.2 14.2 47.65 15.0 47.8 15.55 47.8 15.65 M47.8 15.75 L47.8 16.0 47.8 16.3 47.35 17.2 46.8 17.95 46.45 18.25 43.2 20.1 40.8 21.1 37.5 22.05 M8.05 22.0 L2.55 20.95 1.85 20.65 Q1.2 20.45 0.2 19.65 L-1.9 17.85 -1.95 17.8 Q-3.5 16.2 -3.45 15.05 L-3.4 14.7 -3.4 14.65 -3.35 14.45 -3.05 14.15 -3.0 14.05 Q-2.2 13.15 0.25 12.4 L2.55 11.8 5.55 11.2 7.95 10.85 8.0 10.8 8.0 10.7 9.2 7.3 10.3 4.5 10.95 2.75 11.65 1.4 M37.45 9.8 L37.1 9.8 M8.0 10.85 L7.95 10.85" fill="none" stroke="#000000" stroke-linecap="round" stroke-linejoin="miter-clip" stroke-miterlimit="10.0" stroke-width="1.0"/>
    <path d="M37.5 22.05 L37.55 21.9 37.9 20.4 Q38.0 18.25 37.2 16.95 36.4 15.45 28.4 15.35 L15.5 15.9 8.95 16.6 Q7.9 16.95 7.65 18.65 7.45 20.25 8.05 22.0 M10.65 10.5 L25.4 9.65 Q31.65 9.6 35.4 9.7 L35.5 9.7 37.1 9.8 M10.65 10.5 L8.75 10.75 8.45 10.8 8.0 10.85" fill="none" stroke="#000000" stroke-linecap="round" stroke-linejoin="miter-clip" stroke-miterlimit="10.0" stroke-opacity="0.4" stroke-width="1.0"/>
  </g>
</svg>
