<?xml version="1.0" encoding="UTF-8" standalone="no"?>
<svg xmlns:xlink="http://www.w3.org/1999/xlink" height="27.05px" width="71.9px" xmlns="http://www.w3.org/2000/svg">
  <g transform="matrix(1.0, 0.0, 0.0, 1.0, 36.15, 15.5)">
    <path d="M31.7 3.9 L31.9 3.95 Q28.0 5.6 21.95 6.85 L17.85 7.6 13.8 8.25 6.9 8.65 14.25 5.4 Q21.35 2.25 23.4 2.25 25.3 2.25 31.7 3.9 M-0.6 8.95 Q-9.3 9.05 -22.6 6.45 L-30.65 4.45 -35.65 2.8 -35.4 2.45 Q-32.2 -0.3 -29.15 -2.35 -23.3 -6.25 -19.3 -6.25 -16.8 -6.25 -13.7 -2.85 L-10.05 1.65 Q-8.7 3.1 -4.65 5.95 L0.2 8.95 -0.6 8.95 M-11.55 -13.0 L-11.2 -13.15 -9.9 -13.6 -5.25 -14.5 -0.65 -15.0 -2.05 -12.1 -2.85 -10.0 Q-2.85 -7.1 -1.25 -5.1 0.15 -3.4 2.4 -2.75 0.7 -1.7 -0.4 -1.7 -3.05 -1.7 -6.35 -5.05 -11.85 -10.7 -13.65 -12.05 L-11.55 -13.0" fill="#000000" fill-opacity="0.2" fill-rule="evenodd" stroke="none"/>
    <path d="M22.9 -10.05 L28.45 -4.9 Q33.4 0.05 35.05 2.8 L31.7 3.9 Q25.3 2.25 23.4 2.25 21.35 2.25 14.25 5.4 L6.9 8.65 0.2 8.95 -4.65 5.95 Q-8.7 3.1 -10.05 1.65 L-13.7 -2.85 Q-16.8 -6.25 -19.3 -6.25 -23.3 -6.25 -29.15 -2.35 -32.2 -0.3 -35.4 2.45 -31.85 -2.9 -27.0 -7.45 -23.7 -10.5 -21.8 -11.65 -17.9 -12.95 -14.85 -10.9 -12.75 -9.45 -10.2 -5.4 L-5.95 0.8 Q-3.3 3.75 -0.25 3.75 2.35 3.75 4.65 1.25 5.95 -0.15 8.4 -4.15 13.15 -12.1 17.3 -12.1 L20.2 -11.25 22.9 -10.05 M-0.65 -15.0 Q5.8 -14.8 11.75 -11.65 8.95 -10.15 6.8 -7.55 L2.4 -2.75 Q0.15 -3.4 -1.25 -5.1 -2.85 -7.1 -2.85 -10.0 L-2.05 -12.1 -0.65 -15.0" fill="#ffffff" fill-opacity="0.0" fill-rule="evenodd" stroke="none"/>
    <path d="M-21.8 -11.65 L-19.65 -12.6 -18.2 -13.05 Q-16.65 -13.05 -13.85 -12.15 L-13.65 -12.05 Q-11.85 -10.7 -6.35 -5.05 -3.05 -1.7 -0.4 -1.7 0.7 -1.7 2.4 -2.75 L6.8 -7.55 Q8.95 -10.15 11.75 -11.65 L15.85 -12.5 Q20.6 -11.8 22.9 -10.05 L20.2 -11.25 17.3 -12.1 Q13.15 -12.1 8.4 -4.15 5.95 -0.15 4.65 1.25 2.35 3.75 -0.25 3.75 -3.3 3.75 -5.95 0.8 L-10.2 -5.4 Q-12.75 -9.45 -14.85 -10.9 -17.9 -12.95 -21.8 -11.65" fill="#ffffff" fill-opacity="0.2" fill-rule="evenodd" stroke="none"/>
    <path d="M21.95 6.85 L18.1 7.75 13.8 8.25 17.85 7.6 21.95 6.85 M-13.85 -12.15 L-11.55 -13.0 -13.65 -12.05 -13.85 -12.15" fill="#d6d6d6" fill-rule="evenodd" stroke="none"/>
    <path d="M13.8 8.25 L6.5 8.8 6.9 8.65 13.8 8.25 M0.2 8.95 L0.25 8.95 -0.6 8.95 0.2 8.95" fill="#bbbbbb" fill-rule="evenodd" stroke="none"/>
    <path d="M6.9 8.65 L0.2 8.95 -0.6 8.95 Q-9.3 9.05 -22.6 6.45 L-30.65 4.45 -35.65 2.8 M2.4 -2.75 L6.8 -7.55 Q8.95 -10.15 11.75 -11.65 M-13.85 -12.15 L-13.65 -12.05 Q-11.85 -10.7 -6.35 -5.05 -3.05 -1.7 -0.4 -1.7 0.7 -1.7 2.4 -2.75 M6.9 8.65 L13.8 8.25" fill="none" stroke="#000000" stroke-linecap="butt" stroke-linejoin="miter-clip" stroke-miterlimit="10.0" stroke-width="1.0"/>
    <path d="M22.9 -10.05 L28.45 -4.9 Q33.4 0.05 35.05 2.8 L31.7 3.9 31.9 3.95 Q28.0 5.6 21.95 6.85 L18.1 7.75 13.8 8.25" fill="none" stroke="#000000" stroke-linecap="round" stroke-linejoin="miter-clip" stroke-miterlimit="10.0" stroke-width="1.0"/>
    <path d="M-35.4 2.45 Q-31.85 -2.9 -27.0 -7.45 -23.7 -10.5 -21.8 -11.65 L-19.65 -12.6 -18.2 -13.05 Q-16.65 -13.05 -13.85 -12.15 L-11.55 -13.0 -11.2 -13.15 -9.9 -13.6 -5.25 -14.5 -0.65 -15.0 Q5.8 -14.8 11.75 -11.65 L15.85 -12.5 Q20.6 -11.8 22.9 -10.05" fill="none" stroke="#000000" stroke-linecap="butt" stroke-linejoin="miter-clip" stroke-miterlimit="10.0" stroke-width="1.0"/>
    <path d="M22.9 -10.05 L20.2 -11.25 17.3 -12.1 Q13.15 -12.1 8.4 -4.15 5.95 -0.15 4.65 1.25 2.35 3.75 -0.25 3.75 -3.3 3.75 -5.95 0.8 L-10.2 -5.4 Q-12.75 -9.45 -14.85 -10.9 -17.9 -12.95 -21.8 -11.65" fill="none" stroke="#000000" stroke-linecap="round" stroke-linejoin="miter-clip" stroke-miterlimit="10.0" stroke-opacity="0.4" stroke-width="1.0"/>
  </g>
</svg>
