<?xml version="1.0" encoding="UTF-8" standalone="no"?>
<svg xmlns:xlink="http://www.w3.org/1999/xlink" height="21.45px" width="39.05px" xmlns="http://www.w3.org/2000/svg">
  <g transform="matrix(1.0, 0.0, 0.0, 1.0, 19.95, 15.95)">
    <path d="M17.5 -0.45 Q15.2 -1.95 11.65 -3.2 4.95 -5.65 1.0 -5.6 -3.1 -5.55 -8.05 -4.1 -12.05 -2.95 -15.8 -1.1 L-17.55 0.1 -17.4 -3.55 -16.9 -9.1 Q-16.6 -11.9 -11.5 -14.0 L-10.0 -14.55 -8.5 -14.2 Q-0.85 -12.25 9.6 -15.0 L11.8 -15.4 Q12.45 -15.35 13.4 -14.6 14.45 -13.8 14.75 -13.0 16.2 -9.65 16.75 -6.0 L17.5 -0.45" fill="#ffffff" fill-opacity="0.0" fill-rule="evenodd" stroke="none"/>
    <path d="M-15.8 0.9 Q-12.05 -0.95 -8.05 -2.1 -3.1 -3.55 1.0 -3.6 4.95 -3.65 11.65 -1.2 15.25 0.05 17.0 1.0 L17.45 1.3 18.55 2.2 Q19.2 3.7 12.0 4.4 L-6.45 5.0 -19.0 3.95 Q-20.4 3.2 -17.65 1.85 L-15.8 0.9" fill="#000000" fill-opacity="0.2" fill-rule="evenodd" stroke="none"/>
    <path d="M-15.8 -1.1 Q-12.05 -2.95 -8.05 -4.1 -3.1 -5.55 1.0 -5.6 4.95 -5.65 11.65 -3.2 15.2 -1.95 17.5 -0.45 L17.45 1.3 17.0 1.0 Q15.25 0.05 11.65 -1.2 4.95 -3.65 1.0 -3.6 -3.1 -3.55 -8.05 -2.1 -12.05 -0.95 -15.8 0.9 L-17.65 1.85 -17.6 1.15 -17.55 0.1 -15.8 -1.1" fill="#000000" fill-opacity="0.4" fill-rule="evenodd" stroke="none"/>
    <path d="M9.6 -15.0 Q-0.85 -12.25 -8.5 -14.2 -3.8 -15.4 3.45 -15.45 L9.6 -15.0" fill="#000000" fill-opacity="0.09803922" fill-rule="evenodd" stroke="none"/>
    <path d="M17.5 -0.45 L16.75 -6.0 Q16.2 -9.65 14.75 -13.0 14.45 -13.8 13.4 -14.6 12.45 -15.35 11.8 -15.4 L9.6 -15.0 3.45 -15.45 Q-3.8 -15.4 -8.5 -14.2 L-10.0 -14.55 -11.5 -14.0 Q-16.6 -11.9 -16.9 -9.1 L-17.4 -3.55 -17.55 0.1 -17.6 1.15 -17.65 1.85 M17.45 1.3 L17.5 -0.45" fill="none" stroke="#000000" stroke-linecap="round" stroke-linejoin="round" stroke-width="1.0"/>
    <path d="M-15.8 -1.1 Q-12.05 -2.95 -8.05 -4.1 -3.1 -5.55 1.0 -5.6 4.95 -5.65 11.65 -3.2 15.2 -1.95 17.5 -0.45 M-15.8 0.9 Q-12.05 -0.95 -8.05 -2.1 -3.1 -3.55 1.0 -3.6 4.95 -3.65 11.65 -1.2 15.25 0.05 17.0 1.0" fill="none" stroke="#000000" stroke-linecap="round" stroke-linejoin="round" stroke-opacity="0.4" stroke-width="1.0"/>
    <path d="M-17.55 0.1 L-15.8 -1.1 M17.0 1.0 L17.45 1.3 18.55 2.2 Q19.2 3.7 12.0 4.4 L-6.45 5.0 -19.0 3.95 Q-20.4 3.2 -17.65 1.85 L-15.8 0.9" fill="none" stroke="#000000" stroke-linecap="round" stroke-linejoin="round" stroke-opacity="0.6" stroke-width="1.0"/>
    <path d="M9.6 -15.0 Q-0.85 -12.25 -8.5 -14.2" fill="none" stroke="#000000" stroke-linecap="round" stroke-linejoin="round" stroke-opacity="0.24705882" stroke-width="1.0"/>
  </g>
</svg>
