<?xml version="1.0" encoding="UTF-8" standalone="no"?>
<svg xmlns:xlink="http://www.w3.org/1999/xlink" height="7.0px" width="41.15px" xmlns="http://www.w3.org/2000/svg">
  <g transform="matrix(1.0, 0.0, 0.0, 1.0, 20.65, 1.55)">
    <path d="M-19.95 0.9 Q-15.75 -0.05 -11.45 -0.5 L-5.2 -1.0 12.05 0.05 19.9 1.6 Q20.3 5.25 19.25 4.95 L12.05 3.2 11.65 3.1 -0.15 2.3 -5.2 2.45 -11.45 3.0 -11.8 3.05 -19.25 4.25 Q-20.15 4.4 -20.15 2.8 L-19.95 0.9" fill="#ffffff" fill-opacity="0.0" fill-rule="evenodd" stroke="none"/>
    <path d="M19.9 1.6 Q20.3 5.25 19.25 4.95 L12.05 3.2 11.65 3.1 -0.15 2.3 -5.2 2.45 -11.45 3.0 -11.8 3.05 -19.25 4.25 Q-20.15 4.4 -20.15 2.8 L-19.95 0.9" fill="none" stroke="#000000" stroke-linecap="round" stroke-linejoin="round" stroke-width="1.0"/>
    <path d="M-19.95 0.9 Q-15.75 -0.05 -11.45 -0.5 L-5.2 -1.0 12.05 0.05 19.9 1.6 Z" fill="none" stroke="#000000" stroke-linecap="round" stroke-linejoin="round" stroke-opacity="0.4" stroke-width="1.0"/>
  </g>
</svg>
