<?xml version="1.0" encoding="UTF-8" standalone="no"?>
<svg xmlns:xlink="http://www.w3.org/1999/xlink" height="23.1px" width="60.8px" xmlns="http://www.w3.org/2000/svg">
  <g transform="matrix(1.0, 0.0, 0.0, 1.0, 30.35, 15.95)">
    <path d="M-14.7 5.5 Q-23.55 5.2 -27.2 3.0 -30.85 0.75 -29.5 -1.0 -27.45 -2.25 -22.65 -2.85 L-16.2 -3.25 Q-16.2 -6.45 -15.9 -7.25 L-15.55 -8.4 -14.75 -9.9 -13.35 -11.45 -10.4 -13.3 Q-6.6 -15.2 -2.35 -15.4 L-1.25 -15.4 -0.35 -15.4 -0.2 -15.4 0.25 -15.35 3.35 -15.05 Q6.4 -14.65 8.8 -13.75 11.35 -12.85 13.0 -11.5 13.95 -10.6 14.55 -9.25 L15.0 -7.2 Q15.05 -6.35 16.25 -2.2 L14.6 -3.9 Q10.8 -7.3 4.85 -7.75 L3.1 -7.85 3.0 -7.85 0.5 -7.85 -3.45 -7.7 -8.85 -6.85 Q-11.5 -6.05 -14.8 -4.1 L-16.2 -3.25 Q-6.3 -3.45 3.55 -1.65 L9.6 -0.75 15.65 0.15 16.55 0.3 16.95 0.35 20.9 0.85 26.05 0.3 29.55 0.05 Q31.05 0.4 26.7 3.5 22.3 6.55 14.3 6.65 14.0 5.2 13.4 4.3 12.75 3.25 11.25 2.65 8.45 1.25 0.25 0.85 -7.25 0.45 -10.5 2.0 -12.4 2.85 -13.15 3.5 L-14.7 5.5 M0.25 -15.35 L-0.35 -15.4 0.25 -15.35" fill="#ffffff" fill-opacity="0.0" fill-rule="evenodd" stroke="none"/>
    <path d="M16.25 -2.2 L16.95 0.35 16.55 0.3 15.65 0.15 9.6 -0.75 3.55 -1.65 Q-6.3 -3.45 -16.2 -3.25 L-14.8 -4.1 Q-11.5 -6.05 -8.85 -6.85 L-3.45 -7.7 0.5 -7.85 3.0 -7.85 3.1 -7.85 4.85 -7.75 Q10.8 -7.3 14.6 -3.9 L16.25 -2.2" fill="#2f2f37" fill-opacity="0.4" fill-rule="evenodd" stroke="none"/>
    <path d="M-14.7 5.5 Q-23.55 5.2 -27.2 3.0 -30.85 0.75 -29.5 -1.0 -27.45 -2.25 -22.65 -2.85 L-16.2 -3.25 Q-16.2 -6.45 -15.9 -7.25 L-15.55 -8.4 -14.75 -9.9 -13.35 -11.45 -10.4 -13.3 Q-6.6 -15.2 -2.35 -15.4 L-1.25 -15.4 -0.35 -15.4 0.25 -15.35 3.35 -15.05 Q6.4 -14.65 8.8 -13.75 11.35 -12.85 13.0 -11.5 13.95 -10.6 14.55 -9.25 L15.0 -7.2 Q15.05 -6.35 16.25 -2.2 L16.95 0.35 20.9 0.85 26.05 0.3 29.55 0.05 Q31.05 0.4 26.7 3.5 22.3 6.55 14.3 6.65" fill="none" stroke="#000000" stroke-linecap="round" stroke-linejoin="round" stroke-width="1.0"/>
    <path d="M14.3 6.65 Q14.0 5.2 13.4 4.3 12.75 3.25 11.25 2.65 8.45 1.25 0.25 0.85 -7.25 0.45 -10.5 2.0 -12.4 2.85 -13.15 3.5 L-14.7 5.5" fill="none" stroke="#000000" stroke-linecap="round" stroke-linejoin="round" stroke-opacity="0.6" stroke-width="1.0"/>
    <path d="M-16.2 -3.25 L-14.8 -4.1 Q-11.5 -6.05 -8.85 -6.85 L-3.45 -7.7 0.5 -7.85 3.0 -7.85 3.1 -7.85 4.85 -7.75 Q10.8 -7.3 14.6 -3.9 L16.25 -2.2 M16.95 0.35 L16.55 0.3 15.65 0.15 9.6 -0.75 3.55 -1.65 Q-6.3 -3.45 -16.2 -3.25" fill="none" stroke="#000000" stroke-linecap="round" stroke-linejoin="round" stroke-opacity="0.4" stroke-width="1.0"/>
  </g>
</svg>
