<?xml version="1.0" encoding="UTF-8" standalone="no"?>
<svg xmlns:xlink="http://www.w3.org/1999/xlink" height="26.1px" width="38.5px" xmlns="http://www.w3.org/2000/svg">
  <g transform="matrix(1.0, 0.0, 0.0, 1.0, 19.25, 30.05)">
    <path d="M1.85 -29.15 L1.85 -28.05 1.65 -19.25 1.7 -11.1 1.65 -7.95 1.65 -5.8 1.55 -4.45 1.65 -5.8 1.65 -7.95 1.7 -11.1 1.65 -19.25 1.85 -28.05 1.85 -29.15 Q7.05 -27.6 10.3 -24.2 13.5 -20.8 15.45 -17.55 L17.85 -13.2 Q18.6 -11.25 18.55 -10.05 L18.5 -8.5 Q18.9 -7.55 18.7 -6.2 L18.35 -4.9 16.65 -4.9 14.3 -4.8 10.15 -4.65 Q8.15 -4.45 1.55 -4.45 L0.3 -4.45 0.1 -4.45 -0.1 -4.45 -0.3 -4.45 -1.55 -4.45 -1.65 -5.8 -1.65 -7.95 -1.6 -11.2 -1.7 -19.15 -1.85 -28.05 -1.85 -29.15 -1.85 -28.05 -1.7 -19.15 -1.6 -11.2 -1.65 -7.95 -1.65 -5.8 -1.55 -4.45 Q-8.15 -4.45 -10.15 -4.65 L-14.3 -4.8 -16.65 -4.9 -18.35 -4.9 -18.7 -6.2 Q-18.9 -7.55 -18.5 -8.5 L-18.55 -10.05 Q-18.6 -11.25 -17.85 -13.2 L-15.05 -18.0 Q-12.7 -21.7 -9.7 -24.7 -6.75 -27.7 -1.85 -29.15 L-0.3 -29.5 -0.1 -29.5 0.0 -29.5 0.1 -29.5 0.3 -29.5 1.85 -29.15 M17.55 -8.55 L18.5 -8.5 17.55 -8.55 17.55 -8.5 17.55 -8.55 17.6 -9.05 Q17.65 -10.25 16.9 -12.2 L14.4 -17.1 Q12.35 -20.9 9.2 -23.85 6.0 -26.8 1.85 -28.05 6.0 -26.8 9.2 -23.85 12.35 -20.9 14.4 -17.1 L16.9 -12.2 Q17.65 -10.25 17.6 -9.05 L17.55 -8.55 M1.65 -7.95 L9.5 -8.25 17.55 -8.5 9.5 -8.25 1.65 -7.95 M-1.85 -28.05 Q-5.9 -26.9 -8.8 -23.85 -11.7 -20.85 -14.05 -17.05 L-17.0 -11.75 Q-17.65 -10.25 -17.6 -9.05 L-17.55 -8.55 -18.5 -8.5 -17.55 -8.55 -17.6 -9.05 Q-17.65 -10.25 -17.0 -11.75 L-14.05 -17.05 Q-11.7 -20.85 -8.8 -23.85 -5.9 -26.9 -1.85 -28.05 M-17.55 -8.55 L-17.55 -8.5 -17.55 -8.55 M-17.55 -8.5 L-10.15 -8.15 Q-8.15 -7.95 -1.65 -7.95 -8.15 -7.95 -10.15 -8.15 L-17.55 -8.5" fill="#ffffff" fill-opacity="0.0" fill-rule="evenodd" stroke="none"/>
    <path d="M1.85 -29.15 L0.3 -29.5 0.1 -29.5 0.0 -29.5 -0.1 -29.5 -0.3 -29.5 -1.85 -29.15 Q-6.75 -27.7 -9.7 -24.7 -12.7 -21.7 -15.05 -18.0 L-17.85 -13.2 Q-18.6 -11.25 -18.55 -10.05 L-18.5 -8.5 Q-18.9 -7.55 -18.7 -6.2 L-18.35 -4.9 -16.65 -4.9 -14.3 -4.8 -10.15 -4.65 Q-8.15 -4.45 -1.55 -4.45 L-0.3 -4.45 -0.1 -4.45 0.1 -4.45 0.3 -4.45 1.55 -4.45 Q8.15 -4.45 10.15 -4.65 L14.3 -4.8 16.65 -4.9 18.35 -4.9 18.7 -6.2 Q18.9 -7.55 18.5 -8.5 L18.55 -10.05 Q18.6 -11.25 17.85 -13.2 L15.45 -17.55 Q13.5 -20.8 10.3 -24.2 7.05 -27.6 1.85 -29.15 M17.55 -8.55 L17.55 -8.5 M-17.55 -8.5 L-17.55 -8.55" fill="none" stroke="#000000" stroke-linecap="round" stroke-linejoin="round" stroke-width="1.0"/>
    <path d="M1.55 -4.45 L1.65 -5.8 1.65 -7.95 1.7 -11.1 1.65 -19.25 1.85 -28.05 1.85 -29.15 M-1.85 -29.15 L-1.85 -28.05 -1.7 -19.15 -1.6 -11.2 -1.65 -7.95 -1.65 -5.8 -1.55 -4.45 M18.5 -8.5 L17.55 -8.55 17.6 -9.05 Q17.65 -10.25 16.9 -12.2 L14.4 -17.1 Q12.35 -20.9 9.2 -23.85 6.0 -26.8 1.85 -28.05 M17.55 -8.5 L9.5 -8.25 1.65 -7.95 M-18.5 -8.5 L-17.55 -8.55 -17.6 -9.05 Q-17.65 -10.25 -17.0 -11.75 L-14.05 -17.05 Q-11.7 -20.85 -8.8 -23.85 -5.9 -26.9 -1.85 -28.05 M-1.65 -7.95 Q-8.15 -7.95 -10.15 -8.15 L-17.55 -8.5" fill="none" stroke="#000000" stroke-linecap="round" stroke-linejoin="round" stroke-opacity="0.6" stroke-width="1.0"/>
  </g>
</svg>
