<?xml version="1.0" encoding="UTF-8" standalone="no"?>
<svg xmlns:xlink="http://www.w3.org/1999/xlink" height="17.3px" width="38.45px" xmlns="http://www.w3.org/2000/svg">
  <g transform="matrix(1.0, 0.0, 0.0, 1.0, 19.2, 11.4)">
    <path d="M-11.45 -1.65 L-10.1 -1.45 Q-8.3 -1.45 -6.9 -2.8 -5.5 -4.2 -5.3 -6.2 -5.15 -7.8 -5.85 -9.0 -0.25 -12.8 6.15 -8.95 5.4 -7.8 5.55 -6.2 5.7 -4.2 7.1 -2.8 8.55 -1.45 10.35 -1.45 11.4 -1.45 12.2 -1.9 L13.3 -2.8 Q14.45 -4.2 14.25 -6.2 L14.0 -7.3 16.45 -7.45 18.75 -7.0 17.85 -3.5 16.7 0.35 16.5 1.2 16.3 2.15 15.5 5.4 Q0.2 0.4 -15.8 5.4 L-16.5 2.5 -16.7 1.7 -17.1 0.3 -18.7 -6.95 -13.8 -7.45 -14.0 -6.2 Q-14.2 -4.2 -13.05 -2.8 L-11.45 -1.65 M16.5 1.2 Q0.2 -3.85 -16.7 1.7 0.2 -3.85 16.5 1.2" fill="#ffffff" fill-opacity="0.0" fill-rule="evenodd" stroke="none"/>
    <path d="M12.2 -1.9 L12.45 -2.15 Q13.55 -3.55 13.4 -5.55 L13.15 -6.65 14.0 -7.3 14.25 -6.2 Q14.45 -4.2 13.3 -2.8 L12.2 -1.9 M-13.8 -7.45 L-12.85 -6.95 -13.05 -5.7 Q-13.25 -3.7 -12.1 -2.3 L-11.45 -1.65 -13.05 -2.8 Q-14.2 -4.2 -14.0 -6.2 L-13.8 -7.45" fill="#ffffff" fill-opacity="0.09803922" fill-rule="evenodd" stroke="none"/>
    <path d="M-11.45 -1.65 L-10.1 -1.45 Q-8.3 -1.45 -6.9 -2.8 -5.5 -4.2 -5.3 -6.2 -5.15 -7.8 -5.85 -9.0 -0.25 -12.8 6.15 -8.95 5.4 -7.8 5.55 -6.2 5.7 -4.2 7.1 -2.8 8.55 -1.45 10.35 -1.45 11.4 -1.45 12.2 -1.9 L12.45 -2.15 Q13.55 -3.55 13.4 -5.55 L13.15 -6.65 14.0 -7.3 16.45 -7.45 18.75 -7.0 17.85 -3.5 16.7 0.35 16.5 1.2 16.3 2.15 15.5 5.4 Q0.2 0.4 -15.8 5.4 L-16.5 2.5 -16.7 1.7 -17.1 0.3 -18.7 -6.95 -13.8 -7.45 -12.85 -6.95 -13.05 -5.7 Q-13.25 -3.7 -12.1 -2.3 L-11.45 -1.65" fill="none" stroke="#000000" stroke-linecap="round" stroke-linejoin="round" stroke-width="1.0"/>
    <path d="M-11.45 -1.65 L-13.05 -2.8 Q-14.2 -4.2 -14.0 -6.2 L-13.8 -7.45 M12.2 -1.9 L13.3 -2.8 Q14.45 -4.2 14.25 -6.2 L14.0 -7.3 M-16.7 1.7 Q0.2 -3.85 16.5 1.2" fill="none" stroke="#000000" stroke-linecap="round" stroke-linejoin="round" stroke-opacity="0.4" stroke-width="1.0"/>
  </g>
</svg>
