<?xml version="1.0" encoding="UTF-8" standalone="no"?>
<svg xmlns:xlink="http://www.w3.org/1999/xlink" height="28.6px" width="36.85px" xmlns="http://www.w3.org/2000/svg">
  <g transform="matrix(1.0, 0.0, 0.0, 1.0, 18.4, 22.15)">
    <path d="M-11.0 5.2 L-16.95 5.8 -17.9 -2.4 Q-16.3 -14.5 -2.8 -17.3 L-1.6 -17.5 -1.55 -17.45 Q-4.9 -15.25 -7.2 -12.5 -11.15 -7.9 -11.75 -2.6 L-17.9 -2.4 -11.75 -2.6 -11.0 5.2" fill="#000000" fill-opacity="0.09803922" fill-rule="evenodd" stroke="none"/>
    <path d="M-2.8 -17.3 L-3.0 -17.65 -3.25 -18.8 -2.75 -20.35 Q-1.85 -21.65 -0.2 -21.65 1.3 -21.65 2.25 -20.55 3.15 -19.3 2.5 -17.4 10.55 -14.9 12.95 -12.8 16.15 -10.0 17.95 -2.4 L17.0 5.6 Q0.0 4.35 -11.0 5.2 L-11.75 -2.6 Q-11.15 -7.9 -7.2 -12.5 -4.9 -15.25 -1.55 -17.45 L-0.65 -17.6 -1.6 -17.5 -2.8 -17.3 M-0.05 -17.65 L-0.65 -17.6 -0.05 -17.65 0.05 -17.6 0.05 -17.65 -0.05 -17.65 M2.5 -17.4 L0.05 -17.65 2.5 -17.4 M17.95 -2.4 Q2.0 -3.55 -11.75 -2.6 2.0 -3.55 17.95 -2.4" fill="#ffffff" fill-opacity="0.0" fill-rule="evenodd" stroke="none"/>
    <path d="M-1.6 -17.5 L-0.65 -17.6 -1.55 -17.45 -1.6 -17.5 M-0.05 -17.65 L0.05 -17.65 0.05 -17.6 -0.05 -17.65" fill="#cfd1d2" fill-rule="evenodd" stroke="none"/>
    <path d="M0.05 -17.65 L0.05 -17.6 -0.05 -17.65 M-1.55 -17.45 L-0.65 -17.6" fill="none" stroke="#000000" stroke-linecap="butt" stroke-linejoin="miter-clip" stroke-miterlimit="10.0" stroke-width="1.0"/>
    <path d="M-11.75 -2.6 L-17.9 -2.4 M-11.75 -2.6 Q2.0 -3.55 17.95 -2.4" fill="none" stroke="#000000" stroke-linecap="butt" stroke-linejoin="miter-clip" stroke-miterlimit="10.0" stroke-opacity="0.6" stroke-width="1.0"/>
    <path d="M-2.8 -17.3 L-3.0 -17.65 -3.25 -18.8 -2.75 -20.35 Q-1.85 -21.65 -0.2 -21.65 1.3 -21.65 2.25 -20.55 3.15 -19.3 2.5 -17.4" fill="none" stroke="#000000" stroke-linecap="butt" stroke-linejoin="miter-clip" stroke-miterlimit="10.0" stroke-width="1.0"/>
    <path d="M2.5 -17.4 Q10.55 -14.9 12.95 -12.8 16.15 -10.0 17.95 -2.4 L17.0 5.6 Q0.0 4.35 -11.0 5.2 L-16.95 5.8 -17.9 -2.4 Q-16.3 -14.5 -2.8 -17.3 L-1.6 -17.5 -0.65 -17.6 -0.05 -17.65 0.05 -17.65 2.5 -17.4" fill="none" stroke="#000000" stroke-linecap="round" stroke-linejoin="miter-clip" stroke-miterlimit="10.0" stroke-width="1.0"/>
    <path d="M0.05 -3.05 L0.05 -17.6 Q5.45 -16.5 10.0 -12.3 14.9 -7.75 15.4 -2.4 M-15.4 -2.4 Q-15.05 -6.75 -11.05 -11.6 -6.65 -16.95 -1.55 -17.45" fill="none" stroke="#000000" stroke-linecap="butt" stroke-linejoin="miter-clip" stroke-miterlimit="10.0" stroke-opacity="0.4" stroke-width="1.0"/>
  </g>
</svg>
