<?xml version="1.0" encoding="UTF-8" standalone="no"?>
<svg xmlns:xlink="http://www.w3.org/1999/xlink" height="20.7px" width="20.7px" xmlns="http://www.w3.org/2000/svg">
  <g transform="matrix(1.0, 0.0, 0.0, 1.0, 10.25, 7.65)">
    <path d="M9.85 4.5 L9.9 4.8 Q9.05 5.45 7.35 6.3 L6.0 6.95 6.15 6.3 6.45 4.45 6.5 4.3 6.7 0.15 8.15 1.7 Q9.3 3.1 9.85 4.5 M-5.75 7.0 L-6.35 6.65 -9.35 5.0 -9.2 4.7 -8.5 3.35 Q-7.1 1.15 -6.5 0.95 L-6.1 4.2 -5.75 7.0 M-6.6 -3.55 L-5.65 -5.1 Q-4.6 -6.6 -0.5 -7.05 3.55 -7.45 5.45 -6.0 6.55 -5.15 7.45 -3.65 0.4 -2.9 -6.6 -3.55" fill="#ffffff" fill-rule="evenodd" stroke="none"/>
    <path d="M7.45 -3.65 L8.45 -1.35 9.35 1.7 9.85 4.5 Q9.3 3.1 8.15 1.7 L6.7 0.15 6.5 4.3 Q-0.15 3.4 -6.1 4.2 L-6.5 0.95 Q-7.1 1.15 -8.5 3.35 L-9.2 4.7 -9.7 4.8 Q-10.05 3.4 -8.4 -0.1 L-6.6 -3.55 Q0.4 -2.9 7.45 -3.65" fill="#000000" fill-rule="evenodd" stroke="none"/>
    <path d="M6.0 6.95 L5.5 7.2 Q2.35 8.6 -0.85 8.3 -3.65 8.0 -5.75 7.0 L-6.1 4.2 Q-0.15 3.4 6.5 4.3 L6.45 4.45 6.15 6.3 6.0 6.95 M-9.35 5.0 L-9.7 4.8 -9.2 4.7 -9.35 5.0" fill="#760000" fill-rule="evenodd" stroke="none"/>
    <path d="M7.45 -3.65 L8.45 -1.35 9.35 1.7 9.85 4.5 9.9 4.8 Q9.05 5.45 7.35 6.3 L6.0 6.95 5.5 7.2 Q2.35 8.6 -0.85 8.3 -3.65 8.0 -5.75 7.0 L-6.35 6.65 -9.35 5.0 -9.7 4.8 Q-10.05 3.4 -8.4 -0.1 L-6.6 -3.55" fill="none" stroke="#000000" stroke-linecap="round" stroke-linejoin="miter-clip" stroke-miterlimit="3.0" stroke-width="1.0"/>
    <path d="M-6.2 10.95 Q-0.25 13.65 6.6 11.35" fill="none" stroke="#000000" stroke-linecap="square" stroke-linejoin="round" stroke-opacity="0.4" stroke-width="1.0"/>
    <path d="M-6.6 -3.55 L-5.65 -5.1 Q-4.6 -6.6 -0.5 -7.05 3.55 -7.45 5.45 -6.0 6.55 -5.15 7.45 -3.65 Z" fill="none" stroke="#000000" stroke-linecap="round" stroke-linejoin="miter-clip" stroke-miterlimit="3.0" stroke-opacity="0.4" stroke-width="1.0"/>
  </g>
</svg>
