<?xml version="1.0" encoding="UTF-8" standalone="no"?>
<svg xmlns:xlink="http://www.w3.org/1999/xlink" height="24.4px" width="41.4px" xmlns="http://www.w3.org/2000/svg">
  <g transform="matrix(1.0, 0.0, 0.0, 1.0, 20.75, 9.45)">
    <path d="M15.3 -5.45 L15.55 -2.3 Q14.45 -0.3 11.8 1.65 11.7 5.55 8.65 13.5 8.65 7.7 7.8 3.35 5.85 4.3 4.55 4.65 L0.7 5.05 -3.75 4.55 Q-5.3 4.15 -7.35 3.15 -7.85 5.35 -8.15 8.9 L-8.45 14.3 Q-10.2 11.95 -11.0 7.85 -11.65 4.6 -11.55 1.4 -13.8 -0.15 -15.4 -2.05 L-15.25 -5.45 Q0.25 -4.35 15.3 -5.45" fill="#ffffff" fill-rule="evenodd" stroke="none"/>
    <path d="M15.55 -2.3 L15.3 -5.45 17.55 -5.4 15.55 -2.3 M-15.25 -5.45 L-15.4 -2.05 Q-17.2 -4.55 -17.6 -5.4 L-15.25 -5.45" fill="#000000" fill-rule="evenodd" stroke="none"/>
    <path d="M15.55 -2.3 L17.55 -5.4 15.3 -5.45 Q0.25 -4.35 -15.25 -5.45 L-17.6 -5.4 Q-17.2 -4.55 -15.4 -2.05 -13.8 -0.15 -11.55 1.4 M-7.35 3.15 Q-5.3 4.15 -3.75 4.55 L0.7 5.05 4.55 4.65 Q5.85 4.3 7.8 3.35 M11.8 1.65 Q14.45 -0.3 15.55 -2.3" fill="none" stroke="#000000" stroke-linecap="round" stroke-linejoin="miter-clip" stroke-miterlimit="3.0" stroke-width="1.0"/>
    <path d="M-11.55 1.4 Q-11.65 4.6 -11.0 7.85 -10.2 11.95 -8.45 14.3 L-8.15 8.9 Q-7.85 5.35 -7.35 3.15 M7.8 3.35 Q8.65 7.7 8.65 13.5 11.7 5.55 11.8 1.65" fill="none" stroke="#000000" stroke-linecap="square" stroke-linejoin="round" stroke-opacity="0.6" stroke-width="1.0"/>
    <path d="M15.3 -5.45 L15.55 -2.3 M-15.25 -5.45 L-15.4 -2.05" fill="none" stroke="#000000" stroke-linecap="round" stroke-linejoin="round" stroke-width="1.0"/>
    <path d="M18.8 -8.8 Q20.3 -6.85 19.9 -3.4 M-18.55 -8.8 Q-20.3 -6.3 -20.1 -3.4" fill="none" stroke="#000000" stroke-linecap="square" stroke-linejoin="round" stroke-opacity="0.4" stroke-width="1.0"/>
  </g>
</svg>
