<?xml version="1.0" encoding="UTF-8" standalone="no"?>
<svg xmlns:xlink="http://www.w3.org/1999/xlink" height="38.3px" width="71.1px" xmlns="http://www.w3.org/2000/svg">
  <g transform="matrix(1.0, 0.0, 0.0, 1.0, 45.3, 20.5)">
    <path d="M25.15 -3.15 Q24.25 -6.85 21.35 -8.15 18.75 -9.25 11.15 -9.55 6.95 -9.75 -6.45 -12.45 -18.85 -14.95 -24.05 -14.75 -27.25 -14.65 -30.35 -13.65 L-34.35 -12.15 Q-39.25 -9.95 -41.65 -9.95 -35.05 -8.35 -33.95 -3.35 L-32.95 0.75 Q-32.05 3.55 -30.85 4.45 -27.95 6.75 -10.35 3.85 L-6.95 3.25 20.45 -1.95 21.15 -2.15 25.15 -3.15 Q25.3 3.15 7.0 8.95 -11.3 14.7 -20.35 16.6 -29.45 18.45 -34.2 14.05 -39.0 9.65 -41.7 4.9 -44.45 0.1 -44.65 -7.25 -44.9 -14.6 -34.55 -18.15 -24.2 -21.75 -10.3 -17.7 -3.65 -19.5 10.55 -16.45 24.7 -13.45 25.15 -3.15" fill="#ffffff" fill-opacity="0.0" fill-rule="evenodd" stroke="none"/>
    <path d="M20.45 -1.95 L-6.95 3.25 -10.35 3.85 -32.95 0.75 -33.95 -3.35 Q-35.05 -8.35 -41.65 -9.95 -39.25 -9.95 -34.35 -12.15 L-30.35 -13.65 -30.05 -6.75 Q-4.75 0.35 20.45 -1.95" fill="#000000" fill-opacity="0.8" fill-rule="evenodd" stroke="none"/>
    <path d="M-30.35 -13.65 Q-27.25 -14.65 -24.05 -14.75 -18.85 -14.95 -6.45 -12.45 6.95 -9.75 11.15 -9.55 18.75 -9.25 21.35 -8.15 24.25 -6.85 25.15 -3.15 L21.15 -2.15 20.45 -1.95 Q-4.75 0.35 -30.05 -6.75 L-30.35 -13.65 M-10.35 3.85 Q-27.95 6.75 -30.85 4.45 -32.05 3.55 -32.95 0.75 L-10.35 3.85" fill="#ffffff" fill-rule="evenodd" stroke="none"/>
    <path d="M25.15 -3.15 L21.15 -2.15 20.45 -1.95 -6.95 3.25 -10.35 3.85 Q-27.95 6.75 -30.85 4.45 -32.05 3.55 -32.95 0.75 L-33.95 -3.35 Q-35.05 -8.35 -41.65 -9.95 -39.25 -9.95 -34.35 -12.15 L-30.35 -13.65" fill="none" stroke="#000000" stroke-linecap="round" stroke-linejoin="round" stroke-width="1.0"/>
    <path d="M-30.35 -13.65 Q-27.25 -14.65 -24.05 -14.75 -18.85 -14.95 -6.45 -12.45 6.95 -9.75 11.15 -9.55 18.75 -9.25 21.35 -8.15 24.25 -6.85 25.15 -3.15" fill="none" stroke="#000000" stroke-linecap="round" stroke-linejoin="round" stroke-opacity="0.4" stroke-width="1.0"/>
    <path d="M25.15 -3.15 Q24.7 -13.45 10.55 -16.45 -3.65 -19.5 -10.3 -17.7 -24.2 -21.75 -34.55 -18.15 -44.9 -14.6 -44.65 -7.25 -44.45 0.1 -41.7 4.9 -39.0 9.65 -34.2 14.05 -29.45 18.45 -20.35 16.6 -11.3 14.7 7.0 8.95 25.3 3.15 25.15 -3.15" fill="none" stroke="#000000" stroke-linecap="round" stroke-linejoin="round" stroke-opacity="0.2" stroke-width="1.0"/>
  </g>
</svg>
