<?xml version="1.0" encoding="UTF-8" standalone="no"?>
<svg xmlns:xlink="http://www.w3.org/1999/xlink" height="28.25px" width="36.95px" xmlns="http://www.w3.org/2000/svg">
  <g transform="matrix(1.0, 0.0, 0.0, 1.0, 18.6, 14.0)">
    <path d="M-15.55 2.25 Q0.25 0.45 16.05 2.6 L16.2 3.4 16.35 6.1 15.9 7.3 Q15.25 7.9 11.5 7.3 L8.0 6.55 5.95 6.1 3.1 5.5 1.3 5.35 -4.15 6.15 -4.75 6.3 -5.95 6.6 -9.9 7.4 Q-14.6 7.9 -15.4 7.3 -15.85 6.9 -15.95 6.05 -16.1 5.1 -15.85 3.6 L-15.55 2.25" fill="#ffffff" fill-rule="evenodd" stroke="none"/>
    <path d="M16.05 2.6 L15.9 1.85 Q14.6 -4.05 11.8 -6.85 10.6 -8.05 6.4 -7.15 L0.5 -6.3 -0.55 -6.3 -5.8 -7.35 Q-10.4 -8.55 -11.4 -7.4 -13.6 -4.9 -15.35 1.4 L-15.55 2.25 -15.85 3.6 Q-16.1 5.1 -15.95 6.05 -15.85 6.9 -15.4 7.3 -14.6 7.9 -9.9 7.4 L-5.95 6.6 -4.75 6.3 -4.15 6.15 1.3 5.35 3.1 5.5 5.95 6.1 8.0 6.55 11.5 7.3 Q15.25 7.9 15.9 7.3 L16.35 6.1 16.2 3.4 16.05 2.6 M-17.95 2.25 Q-18.4 -3.55 -15.6 -8.1 -13.5 -11.45 -9.85 -12.55 -3.8 -14.35 -0.15 -12.8 3.15 -14.4 10.6 -12.3 18.05 -10.2 17.7 -0.3 17.35 9.55 15.4 11.75 13.4 13.95 9.05 13.45 L5.15 13.0 0.7 12.75 -6.25 13.45 Q-11.4 14.15 -14.45 11.1 -17.55 8.05 -17.95 2.25" fill="#ffffff" fill-opacity="0.0" fill-rule="evenodd" stroke="none"/>
    <path d="M-15.55 2.25 L-15.35 1.4 Q-13.6 -4.9 -11.4 -7.4 -10.4 -8.55 -5.8 -7.35 L-0.55 -6.3 0.5 -6.3 6.4 -7.15 Q10.6 -8.05 11.8 -6.85 14.6 -4.05 15.9 1.85 L16.05 2.6 Q0.25 0.45 -15.55 2.25" fill="#000000" fill-opacity="0.8" fill-rule="evenodd" stroke="none"/>
    <path d="M16.05 2.6 L15.9 1.85 Q14.6 -4.05 11.8 -6.85 10.6 -8.05 6.4 -7.15 L0.5 -6.3 -0.55 -6.3 -5.8 -7.35 Q-10.4 -8.55 -11.4 -7.4 -13.6 -4.9 -15.35 1.4 L-15.55 2.25" fill="none" stroke="#000000" stroke-linecap="round" stroke-linejoin="miter-clip" stroke-miterlimit="3.0" stroke-width="1.0"/>
    <path d="M17.7 -0.3 Q17.35 9.55 15.4 11.75 13.4 13.95 9.05 13.45 L5.15 13.0 0.7 12.75 -6.25 13.45 Q-11.4 14.15 -14.45 11.1 -17.55 8.05 -17.95 2.25" fill="none" stroke="#000000" stroke-linecap="square" stroke-linejoin="round" stroke-opacity="0.2" stroke-width="1.0"/>
    <path d="M-17.95 2.25 Q-18.4 -3.55 -15.6 -8.1 -13.5 -11.45 -9.85 -12.55 -3.8 -14.35 -0.15 -12.8 3.15 -14.4 10.6 -12.3 18.05 -10.2 17.7 -0.3" fill="none" stroke="#000000" stroke-linecap="round" stroke-linejoin="round" stroke-opacity="0.2" stroke-width="1.0"/>
    <path d="M16.05 2.6 L16.2 3.4 16.35 6.1 15.9 7.3 Q15.25 7.9 11.5 7.3 L8.0 6.55 5.95 6.1 3.1 5.5 1.3 5.35 -4.15 6.15 -4.75 6.3 -5.95 6.6 -9.9 7.4 Q-14.6 7.9 -15.4 7.3 -15.85 6.9 -15.95 6.05 -16.1 5.1 -15.85 3.6 L-15.55 2.25" fill="none" stroke="#000000" stroke-linecap="round" stroke-linejoin="miter-clip" stroke-miterlimit="3.0" stroke-opacity="0.4" stroke-width="1.0"/>
  </g>
</svg>
