<?xml version="1.0" encoding="UTF-8" standalone="no"?>
<svg xmlns:xlink="http://www.w3.org/1999/xlink" height="25.95px" width="36.45px" xmlns="http://www.w3.org/2000/svg">
  <g transform="matrix(1.0, 0.0, 0.0, 1.0, 18.25, 12.35)">
    <path d="M15.3 -5.45 L16.35 -2.3 15.3 0.25 Q-0.25 1.3 -15.05 0.3 -0.25 1.3 15.3 0.25 L15.1 0.65 13.05 3.7 Q10.05 7.55 0.7 7.65 -9.2 7.75 -12.15 4.5 -13.7 2.8 -14.65 1.05 L-15.05 0.3 -16.2 -2.05 -15.25 -5.45 Q0.25 -4.35 15.3 -5.45" fill="#ffffff" fill-rule="evenodd" stroke="none"/>
    <path d="M16.35 -2.3 L15.3 -5.45 17.55 -5.4 17.55 -5.25 17.5 -5.05 17.25 -4.05 16.35 -2.3 M-15.25 -5.45 L-16.2 -2.05 Q-16.9 -3.3 -17.4 -4.85 L-17.45 -5.05 -17.6 -5.4 -17.55 -5.4 -17.45 -5.05 -17.55 -5.4 -15.25 -5.45" fill="#000000" fill-rule="evenodd" stroke="none"/>
    <path d="M16.35 -2.3 L17.25 -4.05 Q15.05 4.5 13.75 6.85 12.35 9.35 8.6 11.15 4.8 12.95 0.0 12.95 -4.7 12.95 -8.2 11.05 -11.7 9.15 -13.2 6.4 -14.65 3.65 -17.4 -4.85 -16.9 -3.3 -16.2 -2.05 L-15.05 0.3 -14.65 1.05 Q-13.7 2.8 -12.15 4.5 -9.2 7.75 0.7 7.65 10.05 7.55 13.05 3.7 L15.1 0.65 15.3 0.25 16.35 -2.3 M17.55 -5.4 L15.3 -5.45 Q0.25 -4.35 -15.25 -5.45 L-17.55 -5.4 Q-7.45 -14.0 -0.15 -10.8 6.2 -14.4 17.55 -5.4" fill="#ffffff" fill-opacity="0.0" fill-rule="evenodd" stroke="none"/>
    <path d="M16.35 -2.3 L17.25 -4.05 M-16.2 -2.05 L-15.05 0.3 -14.65 1.05 Q-13.7 2.8 -12.15 4.5 -9.2 7.75 0.7 7.65 10.05 7.55 13.05 3.7 L15.1 0.65 15.3 0.25 16.35 -2.3 M-17.55 -5.4 L-17.6 -5.4 -17.45 -5.05 M-17.4 -4.85 Q-16.9 -3.3 -16.2 -2.05" fill="none" stroke="#000000" stroke-linecap="round" stroke-linejoin="miter-clip" stroke-miterlimit="3.0" stroke-width="1.0"/>
    <path d="M-15.05 0.3 Q-0.25 1.3 15.3 0.25 M17.55 -5.4 Q6.2 -14.4 -0.15 -10.8 -7.45 -14.0 -17.55 -5.4" fill="none" stroke="#000000" stroke-linecap="round" stroke-linejoin="round" stroke-opacity="0.2" stroke-width="1.0"/>
    <path d="M17.55 -5.4 L15.3 -5.45 Q0.25 -4.35 -15.25 -5.45 L-17.55 -5.4" fill="none" stroke="#000000" stroke-linecap="round" stroke-linejoin="miter-clip" stroke-miterlimit="3.0" stroke-opacity="0.4" stroke-width="1.0"/>
    <path d="M15.3 -5.45 L16.35 -2.3 M-15.25 -5.45 L-16.2 -2.05" fill="none" stroke="#000000" stroke-linecap="round" stroke-linejoin="round" stroke-width="1.0"/>
    <path d="M17.25 -4.05 L17.5 -5.05 17.55 -5.25 17.55 -5.4 M-17.4 -4.85 Q-14.65 3.65 -13.2 6.4 -11.7 9.15 -8.2 11.05 -4.7 12.95 0.0 12.95 4.8 12.95 8.6 11.15 12.35 9.35 13.75 6.85 15.05 4.5 17.25 -4.05 M-17.45 -5.05 L-17.55 -5.4 M-17.45 -5.05 L-17.4 -4.85" fill="none" stroke="#000000" stroke-linecap="round" stroke-linejoin="round" stroke-opacity="0.2" stroke-width="1.0"/>
  </g>
</svg>
