<?xml version="1.0" encoding="UTF-8" standalone="no"?>
<svg xmlns:xlink="http://www.w3.org/1999/xlink" height="14.85px" width="26.55px" xmlns="http://www.w3.org/2000/svg">
  <g transform="matrix(1.0, 0.0, 0.0, 1.0, 10.0, 5.05)">
    <path d="M0.5 -3.05 Q3.75 -4.7 7.45 -4.3 11.8 -3.9 15.9 -0.6 L15.9 -0.55 14.55 1.2 Q13.35 2.4 13.0 3.25 L11.75 5.2 9.95 7.0 Q9.1 7.65 6.95 8.45 3.8 9.55 -0.45 8.9 -3.95 8.3 -5.6 7.15 L-8.1 5.0 Q-8.95 3.95 -9.3 1.05 -9.7 -1.85 -6.5 -3.4 -3.35 -4.95 0.5 -3.05" fill="#ffffff" fill-opacity="0.0" fill-rule="evenodd" stroke="none"/>
    <path d="M0.5 -3.05 Q-3.35 -4.95 -6.5 -3.4 -9.7 -1.85 -9.3 1.05 -8.95 3.95 -8.1 5.0 L-5.6 7.15 Q-3.95 8.3 -0.45 8.9 3.8 9.55 6.95 8.45 9.1 7.65 9.95 7.0 L11.75 5.2 13.0 3.25 Q13.35 2.4 14.55 1.2 L15.9 -0.55 15.9 -0.6 Q11.8 -3.9 7.45 -4.3 3.75 -4.7 0.5 -3.05 Z" fill="none" stroke="#000000" stroke-linecap="square" stroke-linejoin="round" stroke-opacity="0.2" stroke-width="1.0"/>
    <path d="M15.9 -0.6 Q9.95 2.45 6.25 2.5 L-0.4 2.7 -6.6 2.95" fill="none" stroke="#000000" stroke-linecap="round" stroke-linejoin="miter-clip" stroke-miterlimit="3.0" stroke-width="1.0"/>
  </g>
</svg>
