<?xml version="1.0" encoding="UTF-8" standalone="no"?>
<svg xmlns:xlink="http://www.w3.org/1999/xlink" height="13.6px" width="31.3px" xmlns="http://www.w3.org/2000/svg">
  <g transform="matrix(1.0, 0.0, 0.0, 1.0, 15.65, 8.45)">
    <path d="M-15.0 -1.2 L-7.0 -2.0 0.0 -2.2 7.0 -2.0 15.0 -1.2 7.0 -2.0 0.0 -2.2 -7.0 -2.0 -15.0 -1.2 Q-6.4 -10.25 -0.15 -6.85 5.25 -10.7 15.0 -1.2 10.05 1.35 7.65 2.9 5.2 4.45 -0.4 4.5 -6.05 4.5 -8.65 2.7 -11.3 0.85 -15.0 -1.2" fill="#ffffff" fill-opacity="0.0" fill-rule="evenodd" stroke="none"/>
    <path d="M15.0 -1.2 L7.0 -2.0 0.0 -2.2 -7.0 -2.0 -15.0 -1.2" fill="none" stroke="#000000" stroke-linecap="round" stroke-linejoin="miter-clip" stroke-miterlimit="3.0" stroke-width="1.0"/>
    <path d="M15.0 -1.2 Q5.25 -10.7 -0.15 -6.85 -6.4 -10.25 -15.0 -1.2" fill="none" stroke="#000000" stroke-linecap="round" stroke-linejoin="round" stroke-opacity="0.2" stroke-width="1.0"/>
    <path d="M-15.0 -1.2 Q-11.3 0.85 -8.65 2.7 -6.05 4.5 -0.4 4.5 5.2 4.45 7.65 2.9 10.05 1.35 15.0 -1.2" fill="none" stroke="#000000" stroke-linecap="round" stroke-linejoin="round" stroke-opacity="0.2" stroke-width="1.0"/>
  </g>
</svg>
