<?xml version="1.0" encoding="UTF-8" standalone="no"?>
<svg xmlns:xlink="http://www.w3.org/1999/xlink" height="19.6px" width="33.45px" xmlns="http://www.w3.org/2000/svg">
  <g transform="matrix(1.0, 0.0, 0.0, 1.0, 16.55, 8.45)">
    <path d="M-15.55 2.2 Q1.05 0.8 16.05 2.6 L16.2 3.4 16.35 6.1 15.9 7.3 Q15.25 7.9 11.5 7.3 L8.0 6.55 5.95 6.1 3.1 5.5 Q0.45 5.0 -4.15 6.15 L-4.75 6.3 -5.95 6.6 -9.9 7.4 Q-14.6 7.9 -15.4 7.3 -15.85 6.9 -15.95 6.05 -16.1 5.1 -15.85 3.6 L-15.55 2.2" fill="#ffffff" fill-rule="evenodd" stroke="none"/>
    <path d="M-15.55 2.2 L-15.35 1.4 Q-13.6 -4.9 -11.4 -7.4 -10.4 -8.55 -5.8 -7.35 -1.2 -6.2 0.5 -6.3 L6.4 -7.15 Q10.6 -8.05 11.8 -6.85 14.6 -4.05 15.9 1.85 L16.05 2.6 Q1.05 0.8 -15.55 2.2" fill="#000000" fill-rule="evenodd" stroke="none"/>
    <path d="M16.05 2.6 L15.9 1.85 Q14.6 -4.05 11.8 -6.85 10.6 -8.05 6.4 -7.15 L0.5 -6.3 Q-1.2 -6.2 -5.8 -7.35 -10.4 -8.55 -11.4 -7.4 -13.6 -4.9 -15.35 1.4 L-15.55 2.2 M16.05 2.6 L16.2 3.4" fill="none" stroke="#000000" stroke-linecap="round" stroke-linejoin="miter-clip" stroke-miterlimit="3.0" stroke-width="1.0"/>
    <path d="M-7.8 10.5 Q-0.25 9.0 8.8 10.5" fill="none" stroke="#000000" stroke-linecap="square" stroke-linejoin="round" stroke-opacity="0.4" stroke-width="1.0"/>
    <path d="M16.2 3.4 L16.35 6.1 15.9 7.3 Q15.25 7.9 11.5 7.3 L8.0 6.55 5.95 6.1 3.1 5.5 Q0.45 5.0 -4.15 6.15 L-4.75 6.3 -5.95 6.6 -9.9 7.4 Q-14.6 7.9 -15.4 7.3 -15.85 6.9 -15.95 6.05 -16.1 5.1 -15.85 3.6 L-15.55 2.2" fill="none" stroke="#000000" stroke-linecap="round" stroke-linejoin="miter-clip" stroke-miterlimit="3.0" stroke-opacity="0.4" stroke-width="1.0"/>
  </g>
</svg>
