<?xml version="1.0" encoding="UTF-8" standalone="no"?>
<svg xmlns:xlink="http://www.w3.org/1999/xlink" height="17.6px" width="42.3px" xmlns="http://www.w3.org/2000/svg">
  <g transform="matrix(1.0, 0.0, 0.0, 1.0, 21.25, 9.45)">
    <path d="M15.3 -5.45 L16.35 -2.3 15.3 0.25 Q-0.25 1.3 -15.05 0.3 -0.25 1.3 15.3 0.25 L15.1 0.65 13.05 3.7 Q10.05 7.55 0.7 7.65 -9.2 7.75 -12.15 4.5 -13.7 2.8 -14.65 1.05 L-15.05 0.3 -16.2 -2.05 -15.25 -5.45 Q0.25 -4.35 15.3 -5.45" fill="#ffffff" fill-rule="evenodd" stroke="none"/>
    <path d="M15.3 -5.45 L17.55 -5.4 Q17.3 -3.6 16.35 -2.3 L15.3 -5.45 M-15.25 -5.45 L-16.2 -2.05 Q-17.0 -3.55 -17.6 -5.4 L-15.25 -5.45" fill="#000000" fill-rule="evenodd" stroke="none"/>
    <path d="M16.35 -2.3 Q17.3 -3.6 17.55 -5.4 M-17.6 -5.4 Q-17.0 -3.55 -16.2 -2.05 L-15.05 0.3 -14.65 1.05 Q-13.7 2.8 -12.15 4.5 -9.2 7.75 0.7 7.65 10.05 7.55 13.05 3.7 L15.1 0.65 15.3 0.25 16.35 -2.3" fill="none" stroke="#000000" stroke-linecap="round" stroke-linejoin="miter-clip" stroke-miterlimit="3.0" stroke-width="1.0"/>
    <path d="M-15.05 0.3 Q-0.25 1.3 15.3 0.25" fill="none" stroke="#000000" stroke-linecap="round" stroke-linejoin="round" stroke-opacity="0.2" stroke-width="1.0"/>
    <path d="M17.55 -5.4 L15.3 -5.45 Q0.25 -4.35 -15.25 -5.45 L-17.6 -5.4" fill="none" stroke="#000000" stroke-linecap="round" stroke-linejoin="miter-clip" stroke-miterlimit="3.0" stroke-opacity="0.4" stroke-width="1.0"/>
    <path d="M15.3 -5.45 L16.35 -2.3" fill="none" stroke="#000000" stroke-linecap="square" stroke-linejoin="round" stroke-width="1.0"/>
    <path d="M-16.2 -2.05 L-15.25 -5.45" fill="none" stroke="#000000" stroke-linecap="round" stroke-linejoin="round" stroke-width="1.0"/>
    <path d="M19.2 -8.8 Q20.7 -6.85 20.3 -3.4 M-19.05 -8.8 Q-20.8 -6.3 -20.6 -3.4" fill="none" stroke="#000000" stroke-linecap="square" stroke-linejoin="round" stroke-opacity="0.4" stroke-width="1.0"/>
  </g>
</svg>
