<?xml version="1.0" encoding="UTF-8" standalone="no"?>
<svg xmlns:xlink="http://www.w3.org/1999/xlink" height="47.6px" width="23.9px" xmlns="http://www.w3.org/2000/svg">
  <g transform="matrix(1.0, 0.0, 0.0, 1.0, 15.2, 27.95)">
    <path d="M8.2 15.35 Q3.5 23.55 -1.75 14.05 -7.0 4.55 -8.3 1.55 -9.6 -1.5 -12.7 -14.4 -15.8 -27.3 -14.15 -27.45 -6.85 -19.05 -2.55 -17.65 1.7 -16.3 2.75 -14.05 3.8 -11.85 3.8 -11.05 9.3 -0.75 8.2 15.35" fill="#ffffff" fill-opacity="0.0" fill-rule="evenodd" stroke="none"/>
    <path d="M8.2 15.35 Q3.5 23.55 -1.75 14.05 -7.0 4.55 -8.3 1.55 -9.6 -1.5 -12.7 -14.4 -15.8 -27.3 -14.15 -27.45 -6.85 -19.05 -2.55 -17.65 1.7 -16.3 2.75 -14.05 3.8 -11.85 3.8 -11.05" fill="none" stroke="#000000" stroke-linecap="round" stroke-linejoin="round" stroke-width="1.0"/>
  </g>
</svg>
