<?xml version="1.0" encoding="UTF-8" standalone="no"?>
<svg xmlns:xlink="http://www.w3.org/1999/xlink" height="29.65px" width="22.75px" xmlns="http://www.w3.org/2000/svg">
  <g transform="matrix(1.0, 0.0, 0.0, 1.0, 11.35, 14.8)">
    <path d="M10.75 -0.4 Q11.25 2.4 10.3 3.15 9.15 4.1 7.55 4.2 5.95 4.25 5.45 3.35 4.55 8.7 3.7 11.25 2.85 13.8 0.5 14.3 -1.85 14.75 -4.95 12.35 L-7.65 9.85 Q-10.25 5.65 -10.85 -4.65 L-10.85 -4.75 Q-11.0 -7.25 -9.85 -8.65 L-3.75 -14.3 Q5.85 -12.6 7.9 -8.1 9.9 -3.65 10.75 -0.4" fill="#ffffff" fill-opacity="0.0" fill-rule="evenodd" stroke="none"/>
    <path d="M10.75 -0.4 Q11.25 2.4 10.3 3.15 9.15 4.1 7.55 4.2 5.95 4.25 5.45 3.35 4.55 8.7 3.7 11.25 2.85 13.8 0.5 14.3 -1.85 14.75 -4.95 12.35 L-7.65 9.85 Q-10.25 5.65 -10.85 -4.65 L-10.85 -4.75 Q-11.0 -7.25 -9.85 -8.65 L-3.75 -14.3 Q5.85 -12.6 7.9 -8.1 9.9 -3.65 10.75 -0.4 Z" fill="none" stroke="#000000" stroke-linecap="round" stroke-linejoin="round" stroke-width="1.0"/>
  </g>
</svg>
