<?xml version="1.0" encoding="UTF-8" standalone="no"?>
<svg xmlns:xlink="http://www.w3.org/1999/xlink" height="47.8px" width="30.6px" xmlns="http://www.w3.org/2000/svg">
  <g transform="matrix(1.0, 0.0, 0.0, 1.0, 19.65, 27.95)">
    <path d="M1.9 -15.55 L2.2 -15.4 Q6.8 -13.0 8.0 -8.0 11.05 2.7 10.45 15.35 4.0 23.75 -3.05 14.55 -10.15 5.3 -11.1 1.85 L-16.35 -14.45 Q-20.6 -27.3 -18.45 -27.45 -9.0 -19.05 -3.45 -17.65 0.05 -16.8 1.9 -15.55" fill="#ffffff" fill-opacity="0.0" fill-rule="evenodd" stroke="none"/>
    <path d="M8.0 -8.0 Q6.8 -13.0 2.2 -15.4 L1.9 -15.55" fill="none" stroke="#000000" stroke-linecap="square" stroke-linejoin="round" stroke-width="1.0"/>
    <path d="M1.9 -15.55 Q0.05 -16.8 -3.45 -17.65 -9.0 -19.05 -18.45 -27.45 -20.6 -27.3 -16.35 -14.45 L-11.1 1.85 Q-10.15 5.3 -3.05 14.55 4.0 23.75 10.45 15.35" fill="none" stroke="#000000" stroke-linecap="round" stroke-linejoin="round" stroke-width="1.0"/>
    <path d="M4.2 5.2 Q0.8 2.8 1.8 0.6 2.6 -1.6 5.0 -3.2 3.8 -8.8 1.0 -10.8 -2.0 -12.6 -5.0 -9.6" fill="none" stroke="#000000" stroke-linecap="round" stroke-linejoin="round" stroke-opacity="0.4" stroke-width="1.0"/>
  </g>
</svg>
