<?xml version="1.0" encoding="UTF-8" standalone="no"?>
<svg xmlns:xlink="http://www.w3.org/1999/xlink" height="34.1px" width="20.5px" xmlns="http://www.w3.org/2000/svg">
  <g transform="matrix(1.0, 0.0, 0.0, 1.0, 10.25, 17.05)">
    <path d="M9.6 13.8 Q9.0 15.0 8.0 15.6 7.0 16.2 4.8 16.4 2.6 16.4 -1.8 12.4 -6.0 8.2 -8.0 3.0 -9.8 -2.4 -9.6 -6.6 -9.4 -11.0 -5.8 -14.4 -2.4 -17.8 2.2 -15.4 6.8 -13.0 8.0 -8.0 11.05 2.7 9.6 13.8" fill="#ffffff" fill-opacity="0.0" fill-rule="evenodd" stroke="none"/>
    <path d="M8.0 -8.0 Q6.8 -13.0 2.2 -15.4 -2.4 -17.8 -5.8 -14.4 -9.4 -11.0 -9.6 -6.6 -9.8 -2.4 -8.0 3.0 -6.0 8.2 -1.8 12.4 2.6 16.4 4.8 16.4 7.0 16.2 8.0 15.6 9.0 15.0 9.6 13.8" fill="none" stroke="#000000" stroke-linecap="square" stroke-linejoin="round" stroke-width="1.0"/>
    <path d="M4.2 5.2 Q0.8 2.8 1.8 0.6 2.6 -1.6 5.0 -3.2 3.8 -8.8 1.0 -10.8 -2.0 -12.6 -5.0 -9.6" fill="none" stroke="#000000" stroke-linecap="round" stroke-linejoin="round" stroke-opacity="0.4" stroke-width="1.0"/>
  </g>
</svg>
