<?xml version="1.0" encoding="UTF-8" standalone="no"?>
<svg xmlns:xlink="http://www.w3.org/1999/xlink" height="41.0px" width="28.2px" xmlns="http://www.w3.org/2000/svg">
  <g transform="matrix(1.0, 0.0, 0.0, 1.0, 14.0, 12.8)">
    <path d="M-13.35 -7.3 L-13.2 -10.4 -13.05 -12.15 -11.95 -11.5 -11.1 -5.9 -10.05 -3.5 -10.0 -3.4 Q-9.65 -3.3 -9.5 -4.55 -8.8 -3.15 -8.85 -2.35 -8.45 -2.6 -8.25 -3.65 -7.5 -2.85 -7.7 -2.05 L-6.6 -2.1 Q-6.1 -2.2 -6.0 -2.35 -4.95 -3.8 0.05 -4.0 L3.3 -3.55 Q5.0 -3.1 5.3 -2.75 5.9 -2.1 7.4 -2.0 L8.0 -2.0 Q8.05 -2.9 8.55 -3.65 8.35 -2.55 9.1 -2.25 L9.15 -2.25 Q9.05 -3.05 9.95 -4.25 9.5 -3.3 10.3 -3.1 L10.65 -3.55 11.15 -4.75 11.35 -6.15 11.85 -11.4 12.8 -12.0 12.95 -10.6 13.2 -8.6 13.25 -7.3 13.45 -5.05 Q13.65 -3.8 13.45 -1.85 13.15 0.3 12.5 1.8 L11.55 3.5 Q11.05 4.25 10.8 4.95 L10.85 12.25 Q10.75 19.15 8.6 21.5 L8.5 21.65 8.45 21.8 8.35 22.3 8.25 22.55 Q8.3 23.45 9.0 24.8 L10.1 26.8 Q9.15 28.35 6.45 26.75 L5.75 24.8 Q5.6 23.8 6.3 22.8 L6.4 22.65 6.4 22.45 6.4 22.05 6.4 21.8 5.1 20.4 4.3 19.3 2.7 17.5 Q0.25 14.95 0.45 11.75 -0.1 14.05 -0.9 15.4 -1.8 16.85 -3.3 17.7 -5.35 18.9 -5.85 19.7 L-6.55 21.45 -6.6 21.7 -6.75 22.5 -6.8 22.7 -6.55 24.0 Q-6.4 25.2 -7.55 26.2 L-9.8 27.5 Q-9.35 26.5 -10.0 25.3 -10.65 24.2 -10.15 23.2 L-9.65 22.45 -9.0 22.05 -8.9 22.05 -8.85 21.85 -8.9 21.5 -8.95 21.35 -9.4 20.35 Q-10.3 18.7 -10.75 14.55 L-10.85 9.55 -10.6 6.05 Q-10.4 4.75 -10.95 3.55 -11.7 2.0 -12.5 -1.2 L-13.35 -5.3 -13.35 -7.3 M-6.55 21.45 L-8.55 21.25 -8.95 21.35 -8.55 21.25 -6.55 21.45 M-6.75 22.5 Q-7.65 22.0 -8.55 22.05 L-8.9 22.05 -8.55 22.05 Q-7.65 22.0 -6.75 22.5 M-7.55 21.75 L-8.9 21.5 -7.55 21.75 -6.6 21.7 -7.55 21.75 -8.85 21.85 -7.55 21.75 M7.05 22.1 Q6.8 22.15 6.4 22.45 6.8 22.15 7.05 22.1 L8.45 21.8 7.05 22.1 8.35 22.3 7.05 22.1 M8.25 22.55 L6.4 22.65 8.25 22.55 M8.5 21.65 L6.4 21.8 8.5 21.65" fill="#ffffff" fill-opacity="0.0" fill-rule="evenodd" stroke="none"/>
    <path d="M-13.35 -7.3 L-13.2 -10.4 -13.05 -12.15 -11.95 -11.5 -11.1 -5.9 -10.05 -3.5 -10.0 -3.4 Q-9.65 -3.3 -9.5 -4.55 -8.8 -3.15 -8.85 -2.35 -8.45 -2.6 -8.25 -3.65 -7.5 -2.85 -7.7 -2.05 L-6.6 -2.1 Q-6.1 -2.2 -6.0 -2.35 -4.95 -3.8 0.05 -4.0 L3.3 -3.55 Q5.0 -3.1 5.3 -2.75 5.9 -2.1 7.4 -2.0 L8.0 -2.0 Q8.05 -2.9 8.55 -3.65 8.35 -2.55 9.1 -2.25 L9.15 -2.25 Q9.05 -3.05 9.95 -4.25 9.5 -3.3 10.3 -3.1 L10.65 -3.55 11.15 -4.75 11.35 -6.15 11.85 -11.4 12.8 -12.0 12.95 -10.6 13.2 -8.6 13.25 -7.3" fill="none" stroke="#000000" stroke-linecap="square" stroke-linejoin="round" stroke-opacity="0.4" stroke-width="1.0"/>
    <path d="M13.25 -7.3 L13.45 -5.05 Q13.65 -3.8 13.45 -1.85 13.15 0.3 12.5 1.8 L11.55 3.5 Q11.05 4.25 10.8 4.95 L10.85 12.25 Q10.75 19.15 8.6 21.5 L8.5 21.65 M6.3 22.8 L6.4 22.65" fill="none" stroke="#000000" stroke-linecap="square" stroke-linejoin="round" stroke-width="1.0"/>
    <path d="M8.5 21.65 L8.45 21.8 8.35 22.3 8.25 22.55 M6.4 22.65 L6.4 22.45 6.4 22.05 6.4 21.8 5.1 20.4 4.3 19.3 2.7 17.5 Q0.25 14.95 0.45 11.75 -0.1 14.05 -0.9 15.4 -1.8 16.85 -3.3 17.7 -5.35 18.9 -5.85 19.7 L-6.55 21.45 -6.6 21.7 -6.75 22.5 M-8.9 22.05 L-8.85 21.85 -8.9 21.5 -8.95 21.35" fill="none" stroke="#000000" stroke-linecap="round" stroke-linejoin="round" stroke-width="1.0"/>
    <path d="M8.25 22.55 Q8.3 23.45 9.0 24.8 L10.1 26.8 Q9.15 28.35 6.45 26.75 L5.75 24.8 Q5.6 23.8 6.3 22.8" fill="none" stroke="#000000" stroke-linecap="round" stroke-linejoin="round" stroke-opacity="0.7490196" stroke-width="1.0"/>
    <path d="M-6.75 22.5 L-6.8 22.7 -6.55 24.0 Q-6.4 25.2 -7.55 26.2 L-9.8 27.5 Q-9.35 26.5 -10.0 25.3 -10.65 24.2 -10.15 23.2 L-9.65 22.45 -9.0 22.05 -8.9 22.05" fill="none" stroke="#000000" stroke-linecap="round" stroke-linejoin="round" stroke-opacity="0.7490196" stroke-width="1.0"/>
    <path d="M-8.95 21.35 L-9.4 20.35 Q-10.3 18.7 -10.75 14.55 L-10.85 9.55 -10.6 6.05 Q-10.4 4.75 -10.95 3.55 -11.7 2.0 -12.5 -1.2 L-13.35 -5.3 -13.35 -7.3" fill="none" stroke="#000000" stroke-linecap="round" stroke-linejoin="round" stroke-width="1.0"/>
    <path d="M-8.95 21.35 L-8.55 21.25 -6.55 21.45 M-8.9 22.05 L-8.55 22.05 Q-7.65 22.0 -6.75 22.5 M-8.9 21.5 L-7.55 21.75 -6.6 21.7 M-7.55 21.75 L-8.85 21.85 M6.4 22.45 Q6.8 22.15 7.05 22.1 L8.45 21.8 M8.35 22.3 L7.05 22.1 M6.4 22.65 L8.25 22.55 M6.4 21.8 L8.5 21.65" fill="none" stroke="#000000" stroke-linecap="round" stroke-linejoin="round" stroke-opacity="0.4" stroke-width="1.0"/>
  </g>
</svg>
