<?xml version="1.0" encoding="UTF-8" standalone="no"?>
<svg xmlns:xlink="http://www.w3.org/1999/xlink" height="45.55px" width="36.4px" xmlns="http://www.w3.org/2000/svg">
  <g transform="matrix(1.0, 0.0, 0.0, 1.0, 18.2, 22.8)">
    <path d="M-13.8 -15.3 L-13.75 -15.4 -14.3 -16.0 -14.2 -16.85 -13.95 -17.75 -13.4 -18.3 Q-14.15 -18.95 -14.15 -19.5 -14.15 -20.05 -13.75 -20.45 L-13.2 -20.9 Q-12.95 -20.95 -12.55 -20.4 -12.2 -19.9 -12.2 -19.2 L-12.4 -18.4 Q-11.95 -17.85 -11.95 -17.2 L-11.4 -16.75 -11.1 -15.75 -11.1 -15.7 -11.05 -15.3 -11.1 -15.0 -11.25 -14.55 -10.75 -13.45 Q-10.55 -12.75 -10.65 -11.55 L-10.3 -11.75 -9.4 -11.8 Q-8.65 -11.8 -8.35 -11.45 L-8.15 -11.25 -7.45 -11.6 -6.25 -11.55 Q-5.6 -11.35 -5.3 -10.85 L-4.5 -11.3 -3.2 -11.25 Q-2.5 -11.05 -2.35 -10.8 L-2.05 -10.85 -1.75 -11.15 -0.7 -11.55 0.5 -11.6 1.3 -11.2 1.5 -11.35 2.6 -11.5 3.85 -11.25 4.45 -10.8 Q4.55 -10.8 4.65 -10.9 5.15 -11.4 6.05 -11.4 L6.85 -11.2 7.1 -11.35 8.45 -11.3 Q9.7 -11.25 9.7 -12.05 9.65 -12.9 10.1 -13.45 L10.6 -14.05 10.95 -14.05 Q10.7 -14.45 10.75 -15.0 L10.85 -15.3 10.85 -15.4 10.95 -15.75 11.4 -16.6 11.55 -16.85 11.35 -17.3 Q11.15 -17.75 11.1 -18.4 11.05 -19.05 11.35 -19.45 11.1 -20.65 11.45 -21.1 L12.0 -21.7 12.2 -21.9 13.05 -22.1 13.55 -21.45 13.55 -20.15 13.3 -19.9 13.45 -19.65 Q13.7 -19.05 13.5 -18.35 L13.2 -17.9 13.75 -17.25 Q14.15 -16.6 13.8 -15.95 L13.7 -15.65 13.4 -15.3 13.3 -15.2 13.6 -15.0 13.7 -14.85 Q14.2 -14.3 14.15 -13.55 L13.7 -12.55 14.05 -12.3 14.5 -10.95 14.3 -10.45 13.9 -9.95 13.7 -9.8 13.8 -9.65 13.85 -9.6 14.15 -9.35 Q14.75 -8.75 14.75 -7.9 L14.7 -7.4 15.5 -6.9 Q16.1 -6.3 16.1 -5.45 16.1 -4.6 15.5 -4.0 L15.4 -3.9 Q16.0 -3.8 16.45 -3.35 17.05 -2.75 17.05 -1.9 L16.75 -0.8 16.95 -0.6 Q17.55 0.0 17.55 0.85 L17.55 1.25 17.4 1.7 17.35 1.95 Q17.2 3.05 16.5 3.7 L15.7 4.15 15.85 4.6 Q16.65 5.1 16.75 6.15 L16.75 7.2 16.3 8.15 Q15.95 8.7 15.25 9.0 L15.55 9.85 15.55 9.95 15.3 11.2 15.1 11.85 14.1 12.75 14.15 13.5 Q14.0 14.7 13.1 15.3 12.45 15.9 11.7 15.9 L11.7 16.25 Q11.45 17.3 10.75 17.95 L10.15 18.35 9.1 18.45 8.3 18.25 Q8.2 19.3 7.55 19.9 6.7 20.55 5.85 20.4 5.05 20.35 4.8 20.05 L4.15 20.6 Q3.4 21.35 2.55 21.45 1.6 21.45 1.2 21.05 L0.8 20.5 Q0.65 20.2 0.6 20.6 L-0.2 21.6 Q-1.25 22.25 -1.95 22.05 -3.0 21.9 -3.45 21.15 L-3.55 21.05 -4.6 21.2 -5.25 21.3 -6.0 21.3 -6.85 20.6 Q-7.55 20.05 -7.55 19.05 L-7.55 18.9 -8.3 19.0 Q-9.35 19.05 -9.9 18.25 -10.5 17.45 -10.45 16.3 L-11.55 16.6 Q-12.65 16.55 -13.25 15.75 -14.0 15.0 -13.95 13.9 L-13.95 13.45 Q-14.8 13.35 -15.3 12.6 -16.15 11.95 -16.15 10.75 -16.15 9.85 -15.45 9.2 -16.2 9.2 -16.25 8.25 -16.4 7.25 -16.1 6.75 L-16.4 6.4 Q-17.05 5.7 -16.95 4.6 L-16.75 3.45 Q-17.3 2.85 -17.3 2.05 L-17.2 1.5 -17.4 1.3 -17.55 0.55 Q-17.55 -0.3 -16.95 -0.9 L-16.3 -1.35 Q-16.65 -1.85 -16.65 -2.5 -16.65 -3.35 -16.05 -3.95 L-15.3 -4.4 Q-15.75 -4.95 -15.75 -5.7 L-15.5 -6.6 -15.6 -7.15 Q-15.6 -8.0 -15.0 -8.6 L-14.2 -9.1 -14.35 -9.5 -14.35 -9.55 Q-14.5 -10.25 -14.05 -10.9 L-13.5 -11.4 -13.95 -11.6 Q-14.55 -11.95 -14.65 -12.75 -14.75 -13.45 -14.3 -14.05 L-13.95 -14.4 -13.9 -15.0 -13.8 -15.3" fill="#ffffff" fill-opacity="0.0" fill-rule="evenodd" stroke="none"/>
    <path d="M13.4 -15.3 L13.7 -15.65 13.8 -15.95 Q14.15 -16.6 13.75 -17.25 L13.2 -17.9 13.5 -18.35 Q13.7 -19.05 13.45 -19.65 L13.3 -19.9 13.55 -20.15 13.55 -21.45 13.05 -22.1 12.2 -21.9 12.0 -21.7 11.45 -21.1 Q11.1 -20.65 11.35 -19.45 11.05 -19.05 11.1 -18.4 11.15 -17.75 11.35 -17.3 L11.55 -16.85 11.4 -16.6 10.95 -15.75 10.85 -15.4 10.85 -15.3 10.75 -15.0 Q10.7 -14.45 10.95 -14.05 L10.6 -14.05 10.1 -13.45 Q9.65 -12.9 9.7 -12.05 9.7 -11.25 8.45 -11.3 L7.1 -11.35 6.85 -11.2 6.05 -11.4 Q5.15 -11.4 4.65 -10.9 4.55 -10.8 4.45 -10.8 L3.85 -11.25 2.6 -11.5 1.5 -11.35 1.3 -11.2 0.5 -11.6 -0.7 -11.55 -1.75 -11.15 -2.05 -10.85 -2.35 -10.8 Q-2.5 -11.05 -3.2 -11.25 L-4.5 -11.3 -5.3 -10.85 Q-5.6 -11.35 -6.25 -11.55 L-7.45 -11.6 -8.15 -11.25 -8.35 -11.45 Q-8.65 -11.8 -9.4 -11.8 L-10.3 -11.75 -10.65 -11.55 Q-10.55 -12.75 -10.75 -13.45 L-11.25 -14.55 -11.1 -15.0 -11.05 -15.3 -11.1 -15.7 -11.1 -15.75 -11.4 -16.75 -11.95 -17.2 Q-11.95 -17.85 -12.4 -18.4 L-12.2 -19.2 Q-12.2 -19.9 -12.55 -20.4 -12.95 -20.95 -13.2 -20.9 L-13.75 -20.45 Q-14.15 -20.05 -14.15 -19.5 -14.15 -18.95 -13.4 -18.3 L-13.95 -17.75 -14.2 -16.85 -14.3 -16.0 -13.75 -15.4 -13.8 -15.3" fill="none" stroke="#000000" stroke-linecap="square" stroke-linejoin="round" stroke-opacity="0.4" stroke-width="1.0"/>
    <path d="M-13.8 -15.3 L-13.9 -15.0 -13.95 -14.4 -14.3 -14.05 Q-14.75 -13.45 -14.65 -12.75 -14.55 -11.95 -13.95 -11.6 L-13.5 -11.4 -14.05 -10.9 Q-14.5 -10.25 -14.35 -9.55 L-14.35 -9.5 -14.2 -9.1 -15.0 -8.6 Q-15.6 -8.0 -15.6 -7.15 L-15.5 -6.6 -15.75 -5.7 Q-15.75 -4.95 -15.3 -4.4 L-16.05 -3.95 Q-16.65 -3.35 -16.65 -2.5 -16.65 -1.85 -16.3 -1.35 L-16.95 -0.9 Q-17.55 -0.3 -17.55 0.55 L-17.4 1.3 -17.2 1.5 -17.3 2.05 Q-17.3 2.85 -16.75 3.45 L-16.95 4.6 Q-17.05 5.7 -16.4 6.4 L-16.1 6.75 Q-16.4 7.25 -16.25 8.25 -16.2 9.2 -15.45 9.2 -16.15 9.85 -16.15 10.75 -16.15 11.95 -15.3 12.6 -14.8 13.35 -13.95 13.45 L-13.95 13.9 Q-14.0 15.0 -13.25 15.75 -12.65 16.55 -11.55 16.6 L-10.45 16.3 Q-10.5 17.45 -9.9 18.25 -9.35 19.05 -8.3 19.0 L-7.55 18.9 -7.55 19.05 Q-7.55 20.05 -6.85 20.6 L-6.0 21.3 -5.25 21.3 -4.6 21.2 -3.55 21.05 -3.45 21.15 Q-3.0 21.9 -1.95 22.05 -1.25 22.25 -0.2 21.6 L0.6 20.6 Q0.65 20.2 0.8 20.5 L1.2 21.05 Q1.6 21.45 2.55 21.45 3.4 21.35 4.15 20.6 L4.8 20.05 Q5.05 20.35 5.85 20.4 6.7 20.55 7.55 19.9 8.2 19.3 8.3 18.25 L9.1 18.45 10.15 18.35 10.75 17.95 Q11.45 17.3 11.7 16.25 L11.7 15.9 Q12.45 15.9 13.1 15.3 14.0 14.7 14.15 13.5 L14.1 12.75 15.1 11.85 15.3 11.2 15.55 9.95 15.55 9.85 15.25 9.0 Q15.95 8.7 16.3 8.15 L16.75 7.2 16.75 6.15 Q16.65 5.1 15.85 4.6 L15.7 4.15 16.5 3.7 Q17.2 3.05 17.35 1.95 L17.4 1.7 17.55 1.25 17.55 0.85 Q17.55 0.0 16.95 -0.6 L16.75 -0.8 17.05 -1.9 Q17.05 -2.75 16.45 -3.35 16.0 -3.8 15.4 -3.9 L15.5 -4.0 Q16.1 -4.6 16.1 -5.45 16.1 -6.3 15.5 -6.9 L14.7 -7.4 14.75 -7.9 Q14.75 -8.75 14.15 -9.35 L13.85 -9.6 13.8 -9.65 13.7 -9.8 13.9 -9.95 14.3 -10.45 14.5 -10.95 14.05 -12.3 13.7 -12.55 14.15 -13.55 Q14.2 -14.3 13.7 -14.85 L13.6 -15.0 13.3 -15.2 13.4 -15.3 Z" fill="none" stroke="#000000" stroke-linecap="square" stroke-linejoin="round" stroke-width="1.0"/>
  </g>
</svg>
