<?xml version="1.0" encoding="UTF-8" standalone="no"?>
<svg xmlns:xlink="http://www.w3.org/1999/xlink" height="44.1px" width="28.7px" xmlns="http://www.w3.org/2000/svg">
  <g transform="matrix(1.0, 0.0, 0.0, 1.0, 18.55, 20.55)">
    <path d="M-16.05 -19.9 L-15.35 -19.25 Q-14.95 -16.15 -13.9 -13.8 L-13.45 -12.95 -13.2 -12.55 -12.65 -11.95 Q-12.75 -12.45 -12.25 -12.9 L-11.45 -13.7 Q-11.65 -12.65 -11.0 -11.1 L-10.2 -8.55 Q-10.2 -8.95 -9.8 -9.35 L-9.1 -10.2 -8.6 -8.7 Q-8.0 -7.65 -8.0 -6.75 L-7.6 -8.45 Q-6.75 -10.25 -5.15 -10.7 L-3.5 -11.2 -2.2 -11.45 3.45 -11.1 Q4.95 -10.75 5.45 -9.55 L5.75 -7.65 5.95 -10.65 6.45 -9.05 6.55 -14.2 6.8 -14.05 7.85 -8.1 Q8.7 -2.3 8.8 2.95 8.85 8.15 9.5 11.0 7.4 8.7 7.0 5.3 7.15 8.2 6.5 11.9 5.85 15.7 6.1 18.05 4.05 16.25 3.25 12.75 3.3 13.9 2.65 15.9 1.95 18.0 1.95 19.15 L0.95 17.2 Q0.4 16.25 0.4 15.2 L-0.2 18.4 -0.5 19.75 -1.35 22.9 Q-1.55 21.8 -2.5 19.6 -3.25 17.85 -3.25 16.45 -3.65 19.3 -5.5 21.45 -5.75 18.1 -7.1 16.1 -8.25 14.4 -8.55 11.35 -9.5 14.15 -11.65 15.8 L-12.45 12.35 Q-12.95 10.2 -12.8 7.6 -13.5 11.0 -15.35 13.2 -15.2 10.9 -15.8 5.05 -16.25 0.55 -15.15 -3.25 -16.35 -0.2 -17.9 1.65 -17.1 -0.9 -17.7 -9.25 -18.05 -14.3 -16.05 -19.9" fill="#ffffff" fill-opacity="0.0" fill-rule="evenodd" stroke="none"/>
    <path d="M-16.05 -19.9 Q-18.05 -14.3 -17.7 -9.25 -17.1 -0.9 -17.9 1.65 M-15.15 -3.25 Q-16.25 0.55 -15.8 5.05 -15.2 10.9 -15.35 13.2 M-12.8 7.6 Q-12.95 10.2 -12.45 12.35 L-11.65 15.8 M-8.55 11.35 Q-8.25 14.4 -7.1 16.1 -5.75 18.1 -5.5 21.45 M-3.25 16.45 Q-3.25 17.85 -2.5 19.6 -1.55 21.8 -1.35 22.9 L-0.5 19.75 -0.2 18.4 0.4 15.2 M1.95 19.15 Q1.95 18.0 2.65 15.9 3.3 13.9 3.25 12.75 M6.1 18.05 Q5.85 15.7 6.5 11.9 7.15 8.2 7.0 5.3 M9.5 11.0 Q8.85 8.15 8.8 2.95 8.7 -2.3 7.85 -8.1" fill="none" stroke="#000000" stroke-linecap="square" stroke-linejoin="round" stroke-width="1.0"/>
    <path d="M7.85 -8.1 L6.8 -14.05 6.55 -14.2 6.45 -9.05 5.95 -10.65 5.75 -7.65 5.45 -9.55 Q4.95 -10.75 3.45 -11.1 L-2.2 -11.45 -3.5 -11.2 -5.15 -10.7 Q-6.75 -10.25 -7.6 -8.45 L-8.0 -6.75 Q-8.0 -7.65 -8.6 -8.7 L-9.1 -10.2 -9.8 -9.35 Q-10.2 -8.95 -10.2 -8.55 L-11.0 -11.1 Q-11.65 -12.65 -11.45 -13.7 L-12.25 -12.9 Q-12.75 -12.45 -12.65 -11.95 L-13.2 -12.55 -13.45 -12.95 -13.9 -13.8 Q-14.95 -16.15 -15.35 -19.25 L-16.05 -19.9 M-17.9 1.65 Q-16.35 -0.2 -15.15 -3.25 M-15.35 13.2 Q-13.5 11.0 -12.8 7.6 M-11.65 15.8 Q-9.5 14.15 -8.55 11.35 M-5.5 21.45 Q-3.65 19.3 -3.25 16.45 M0.4 15.2 Q0.4 16.25 0.95 17.2 L1.95 19.15 M3.25 12.75 Q4.05 16.25 6.1 18.05 M7.0 5.3 Q7.4 8.7 9.5 11.0" fill="none" stroke="#000000" stroke-linecap="square" stroke-linejoin="round" stroke-opacity="0.4" stroke-width="1.0"/>
  </g>
</svg>
