<?xml version="1.0" encoding="UTF-8" standalone="no"?>
<svg xmlns:xlink="http://www.w3.org/1999/xlink" height="13.7px" width="13.75px" xmlns="http://www.w3.org/2000/svg">
  <g transform="matrix(1.0, 0.0, 0.0, 1.0, 6.65, 6.3)">
    <path d="M-5.7 -1.45 L-6.0 -3.05 -5.9 -3.8 -2.85 -3.5 Q-1.8 -3.9 -1.45 -4.8 1.15 -6.45 3.0 -4.95 L3.8 -3.75 4.7 -4.25 5.9 -5.55 6.45 -2.75 5.85 2.05 Q5.55 2.85 2.1 6.7 L2.1 6.75 2.05 6.75 1.95 6.75 1.95 6.65 Q-2.25 5.0 -3.15 4.1 L-4.7 1.95 Q-5.35 0.7 -5.45 -0.75 L-5.7 -1.45 M2.05 6.75 L2.1 6.7 2.05 6.75" fill="#ffffff" fill-opacity="0.0" fill-rule="evenodd" stroke="none"/>
    <path d="M-5.7 -1.45 L-6.0 -3.05 -5.9 -3.8 -2.85 -3.5 Q-1.8 -3.9 -1.45 -4.8 1.15 -6.45 3.0 -4.95 L3.8 -3.75 4.7 -4.25 5.9 -5.55 6.45 -2.75" fill="none" stroke="#000000" stroke-linecap="square" stroke-linejoin="round" stroke-opacity="0.4" stroke-width="1.0"/>
    <path d="M6.45 -2.75 L5.85 2.05 Q5.55 2.85 2.1 6.7 L2.05 6.75 1.95 6.75 M2.1 6.75 L2.05 6.75 M1.95 6.65 Q-2.25 5.0 -3.15 4.1 L-4.7 1.95 Q-5.35 0.7 -5.45 -0.75 L-5.7 -1.45 Z" fill="none" stroke="#000000" stroke-linecap="square" stroke-linejoin="round" stroke-width="1.0"/>
  </g>
</svg>
