<?xml version="1.0" encoding="UTF-8" standalone="no"?>
<svg xmlns:xlink="http://www.w3.org/1999/xlink" height="13.4px" width="25.6px" xmlns="http://www.w3.org/2000/svg">
  <g transform="matrix(1.0, 0.0, 0.0, 1.0, 13.0, -8.65)">
    <path d="M11.8 10.4 L11.95 13.4 Q12.0 15.7 11.1 17.05 10.0 18.75 7.95 19.75 5.85 20.8 4.15 20.4 2.85 21.05 1.35 21.3 L-1.5 21.25 -4.0 20.4 Q-5.6 20.8 -7.7 19.95 -9.8 19.0 -10.85 17.35 -12.0 15.55 -12.25 13.3 L-12.35 10.4 Q-0.05 6.9 11.8 10.4" fill="#ffffff" fill-opacity="0.0" fill-rule="evenodd" stroke="none"/>
    <path d="M11.8 10.4 L11.95 13.4 Q12.0 15.7 11.1 17.05 10.0 18.75 7.95 19.75 5.85 20.8 4.15 20.4 2.85 21.05 1.35 21.3 L-1.5 21.25 -4.0 20.4 Q-5.6 20.8 -7.7 19.95 -9.8 19.0 -10.85 17.35 -12.0 15.55 -12.25 13.3 L-12.35 10.4" fill="none" stroke="#000000" stroke-linecap="square" stroke-linejoin="round" stroke-width="1.0"/>
  </g>
</svg>
