<?xml version="1.0" encoding="UTF-8" standalone="no"?>
<svg xmlns:xlink="http://www.w3.org/1999/xlink" height="14.75px" width="24.15px" xmlns="http://www.w3.org/2000/svg">
  <g transform="matrix(1.0, 0.0, 0.0, 1.0, 12.0, -8.85)">
    <path d="M-11.35 10.2 Q0.2 7.55 11.15 10.15 L11.1 10.25 10.5 11.0 9.4 12.0 Q8.05 13.05 7.45 12.85 L6.15 11.75 Q5.0 10.85 3.45 10.9 L-2.6 10.8 Q-4.55 10.8 -6.0 11.75 L-7.6 12.8 Q-8.25 12.95 -9.55 11.9 L-10.45 11.0 -11.35 10.2" fill="#ffffff" fill-opacity="0.0" fill-rule="evenodd" stroke="none"/>
    <path d="M11.5 10.2 L11.05 11.7 10.25 13.75 9.15 15.7 7.85 17.35 6.6 18.9 5.55 20.35 4.2 21.7 2.45 22.5 0.55 22.95 -1.35 22.6 -3.15 21.9 -4.6 20.65 -5.7 19.25 -7.05 17.8 -8.45 16.25 -9.8 14.2 -10.8 12.15 -11.35 10.2 -10.45 11.0 -9.55 11.9 Q-8.25 12.95 -7.6 12.8 L-6.0 11.75 Q-4.55 10.8 -2.6 10.8 L3.45 10.9 Q5.0 10.85 6.15 11.75 L7.45 12.85 Q8.05 13.05 9.4 12.0 L10.5 11.0 11.1 10.25 11.15 10.15 11.5 10.2" fill="#000000" fill-opacity="0.14901961" fill-rule="evenodd" stroke="none"/>
    <path d="M11.5 10.2 L11.05 11.7 10.25 13.75 9.15 15.7 7.85 17.35 6.6 18.9 5.55 20.35 4.2 21.7 2.45 22.5 0.55 22.95 -1.35 22.6 -3.15 21.9 -4.6 20.65 -5.7 19.25 -7.05 17.8 -8.45 16.25 -9.8 14.2 -10.8 12.15 -11.35 10.2" fill="none" stroke="#000000" stroke-linecap="square" stroke-linejoin="round" stroke-width="1.0"/>
  </g>
</svg>
