<?xml version="1.0" encoding="UTF-8" standalone="no"?>
<svg xmlns:xlink="http://www.w3.org/1999/xlink" height="15.1px" width="25.45px" xmlns="http://www.w3.org/2000/svg">
  <g transform="matrix(1.0, 0.0, 0.0, 1.0, 13.0, -8.85)">
    <path d="M11.8 10.4 L11.5 13.75 Q11.25 15.9 9.7 18.35 8.1 20.8 5.35 22.05 2.55 23.25 0.25 23.3 L-0.45 23.3 -0.6 23.3 -0.8 23.3 Q-3.0 23.2 -5.55 21.65 -8.2 20.0 -9.85 17.6 -11.5 15.2 -11.9 13.55 L-12.35 10.4 Q-0.35 7.3 11.8 10.4" fill="#ffffff" fill-opacity="0.0" fill-rule="evenodd" stroke="none"/>
    <path d="M11.8 10.4 L11.5 13.75 Q11.25 15.9 9.7 18.35 8.1 20.8 5.35 22.05 2.55 23.25 0.25 23.3 L-0.45 23.3 -0.6 23.3 -0.8 23.3 Q-3.0 23.2 -5.55 21.65 -8.2 20.0 -9.85 17.6 -11.5 15.2 -11.9 13.55 L-12.35 10.4" fill="none" stroke="#000000" stroke-linecap="square" stroke-linejoin="round" stroke-width="1.0"/>
    <path d="M-5.2 19.1 Q-4.5 20.3 -3.1 21.15 -1.55 22.2 -0.3 22.1 1.35 22.0 3.1 21.15 4.85 20.3 5.75 19.1" fill="none" stroke="#000000" stroke-linecap="round" stroke-linejoin="round" stroke-opacity="0.49803922" stroke-width="1.0"/>
  </g>
</svg>
