<?xml version="1.0" encoding="UTF-8" standalone="no"?>
<svg xmlns:xlink="http://www.w3.org/1999/xlink" height="12.05px" width="22.7px" xmlns="http://www.w3.org/2000/svg">
  <g transform="matrix(1.0, 0.0, 0.0, 1.0, 11.35, -9.45)">
    <path d="M10.7 11.3 L8.5 15.6 7.4 17.0 5.4 18.65 3.15 20.0 Q2.1 20.55 1.65 20.7 L0.9 20.85 0.4 20.85 0.0 20.85 -0.9 20.85 -1.65 20.7 Q-2.1 20.55 -3.15 20.0 L-5.4 18.65 -7.4 17.0 -8.5 15.6 -10.7 11.3 Q0.35 7.65 10.7 11.3" fill="#ffffff" fill-opacity="0.0" fill-rule="evenodd" stroke="none"/>
    <path d="M10.7 11.3 L8.5 15.6 7.4 17.0 5.4 18.65 3.15 20.0 Q2.1 20.55 1.65 20.7 L0.9 20.85 0.4 20.85 0.0 20.85 -0.9 20.85 -1.65 20.7 Q-2.1 20.55 -3.15 20.0 L-5.4 18.65 -7.4 17.0 -8.5 15.6 -10.7 11.3" fill="none" stroke="#000000" stroke-linecap="square" stroke-linejoin="round" stroke-width="1.0"/>
  </g>
</svg>
