<?xml version="1.0" encoding="UTF-8" standalone="no"?>
<svg xmlns:xlink="http://www.w3.org/1999/xlink" height="16.7px" width="20.2px" xmlns="http://www.w3.org/2000/svg">
  <g transform="matrix(1.0, 0.0, 0.0, 1.0, 8.5, 1.4)">
    <path d="M4.75 14.5 L2.55 14.65 Q-3.15 14.55 -5.3 12.05 L-6.2 10.85 Q-6.85 10.85 -7.85 10.25 L-7.85 7.6 Q-5.95 2.65 11.05 -0.75 L10.9 0.45 10.9 0.6 10.15 6.35 Q9.65 9.5 8.25 12.05 7.2 13.95 4.75 14.5 M-7.85 7.6 Q-7.25 9.3 -6.2 10.85 -7.25 9.3 -7.85 7.6" fill="#ffffff" fill-opacity="0.0" fill-rule="evenodd" stroke="none"/>
    <path d="M4.75 14.5 L2.55 14.65 Q-3.15 14.55 -5.3 12.05 L-6.2 10.85 Q-7.25 9.3 -7.85 7.6 M11.05 -0.75 L10.9 0.45 10.9 0.6 10.15 6.35 Q9.65 9.5 8.25 12.05 7.2 13.95 4.75 14.5 Z" fill="none" stroke="#000000" stroke-linecap="square" stroke-linejoin="round" stroke-width="1.0"/>
  </g>
</svg>
