<?xml version="1.0" encoding="UTF-8" standalone="no"?>
<svg xmlns:xlink="http://www.w3.org/1999/xlink" height="16.7px" width="21.65px" xmlns="http://www.w3.org/2000/svg">
  <g transform="matrix(1.0, 0.0, 0.0, 1.0, 9.95, 1.4)">
    <path d="M6.5 0.25 L11.05 -0.75 Q9.7 0.6 7.6 0.35 L6.5 0.25 M-6.2 10.85 Q-6.85 10.85 -7.85 10.25 L-7.85 7.65 -7.8 7.75 -7.75 7.8 -6.2 10.85" fill="#ffffff" fill-opacity="0.0" fill-rule="evenodd" stroke="none"/>
    <path d="M-7.85 7.65 L-8.85 5.0 Q-10.4 0.3 -9.8 -0.4 -9.35 -0.9 -8.8 -0.7 L-7.15 0.55 Q-5.75 1.9 -4.1 2.1 -2.4 2.25 -1.3 1.1 -0.45 0.3 2.75 0.15 L6.5 0.25 7.6 0.35 Q9.7 0.6 11.05 -0.75 L11.05 0.15 10.85 1.15 10.15 6.35 Q9.65 9.5 8.25 12.05 7.2 13.95 4.75 14.5 L2.55 14.65 Q-3.15 14.55 -5.3 12.05 L-6.2 10.85 -7.75 7.8 -7.8 7.75 -7.85 7.65" fill="#000000" fill-opacity="0.14901961" fill-rule="evenodd" stroke="none"/>
    <path d="M11.05 -0.75 L11.05 0.15 10.85 1.15 10.15 6.35 Q9.65 9.5 8.25 12.05 7.2 13.95 4.75 14.5 L2.55 14.65 Q-3.15 14.55 -5.3 12.05 L-6.2 10.85 -7.75 7.8 -7.8 7.75" fill="none" stroke="#000000" stroke-linecap="square" stroke-linejoin="round" stroke-width="1.0"/>
  </g>
</svg>
