<?xml version="1.0" encoding="UTF-8" standalone="no"?>
<svg xmlns:xlink="http://www.w3.org/1999/xlink" height="14.75px" width="24.15px" xmlns="http://www.w3.org/2000/svg">
  <g transform="matrix(1.0, 0.0, 0.0, 1.0, 12.0, -8.85)">
    <path d="M-11.35 10.2 Q0.35 7.55 11.5 10.2 L11.5 10.3 Q11.05 11.05 9.35 12.05 7.9 12.95 7.45 14.85 6.9 17.2 4.8 18.8 2.85 20.4 0.3 20.65 -5.8 21.3 -7.6 14.8 -8.1 13.0 -9.4 12.05 -10.95 10.9 -11.35 10.2" fill="#ffffff" fill-opacity="0.0" fill-rule="evenodd" stroke="none"/>
    <path d="M11.5 10.3 L11.05 11.7 10.25 13.75 9.15 15.7 7.85 17.35 6.6 18.9 5.55 20.35 4.2 21.7 2.45 22.5 0.55 22.95 -1.35 22.6 -3.15 21.9 -4.6 20.65 -5.7 19.25 -7.05 17.8 -8.45 16.25 -9.8 14.2 -10.8 12.15 -11.35 10.2 Q-10.95 10.9 -9.4 12.05 -8.1 13.0 -7.6 14.8 -5.8 21.3 0.3 20.65 2.85 20.4 4.8 18.8 6.9 17.2 7.45 14.85 7.9 12.95 9.35 12.05 11.05 11.05 11.5 10.3" fill="#000000" fill-opacity="0.14901961" fill-rule="evenodd" stroke="none"/>
    <path d="M11.5 10.3 L11.05 11.7 10.25 13.75 9.15 15.7 7.85 17.35 6.6 18.9 5.55 20.35 4.2 21.7 2.45 22.5 0.55 22.95 -1.35 22.6 -3.15 21.9 -4.6 20.65 -5.7 19.25 -7.05 17.8 -8.45 16.25 -9.8 14.2 -10.8 12.15 -11.35 10.2 M11.5 10.2 L11.5 10.3 Z" fill="none" stroke="#000000" stroke-linecap="square" stroke-linejoin="round" stroke-width="1.0"/>
  </g>
</svg>
