<?xml version="1.0" encoding="UTF-8" standalone="no"?>
<svg xmlns:xlink="http://www.w3.org/1999/xlink" height="65.8px" width="98.35px" xmlns="http://www.w3.org/2000/svg">
  <g transform="matrix(1.0, 0.0, 0.0, 1.0, 58.15, 31.9)">
    <path d="M10.55 33.25 Q1.85 33.0 -2.7 29.4 -4.1 28.3 -5.7 26.0 -12.8 18.2 -11.5 5.0 -10.2 -8.25 -6.5 -15.55 L-5.6 -17.2 -3.9 -20.1 Q-2.05 -23.05 -0.2 -25.2 L1.85 -27.45 Q5.55 -31.15 8.65 -31.7 9.7 -31.95 11.25 -31.25 L12.1 -30.85 Q14.6 -29.4 18.1 -26.05 24.45 -19.95 27.7 -17.2 30.9 -14.45 35.25 -7.8 39.55 -1.35 39.55 9.45 39.55 21.45 29.3 28.05 L28.0 28.9 Q20.7 33.2 12.1 33.25 L11.8 33.25 10.55 33.25" fill="#ffffff" fill-opacity="0.0" fill-rule="evenodd" stroke="none"/>
    <path d="M11.25 -31.25 L12.1 -30.85 Q14.6 -29.4 18.1 -26.05 24.45 -19.95 27.7 -17.2 30.9 -14.45 35.25 -7.8 39.55 -1.35 39.55 9.45 39.55 21.45 29.3 28.05 L28.0 28.9 Q20.7 33.2 12.1 33.25 L11.8 33.25 10.55 33.25" fill="none" stroke="#000000" stroke-linecap="square" stroke-linejoin="round" stroke-width="1.0"/>
    <path d="M-36.0 33.25 Q-44.2 32.85 -48.6 29.4 -51.2 27.3 -54.75 20.9 L-55.15 20.15 Q-56.6 17.4 -57.3 14.0 -58.15 10.3 -58.15 5.9 -58.15 0.3 -56.0 -6.55 -54.85 -10.25 -53.35 -13.5 L-51.45 -17.2 -49.05 -21.05 Q-46.3 -24.95 -43.1 -27.5 L-42.05 -28.25 Q-38.2 -31.05 -34.4 -31.4 -30.9 -31.65 -27.35 -29.6 -23.85 -27.6 -20.35 -23.25 L-19.2 -21.8 -17.85 -20.1 -14.5 -15.55 -12.9 -13.0 -11.95 -11.45 -11.75 -11.05 -9.6 -6.7 -8.0 -2.3 Q-6.3 3.5 -6.3 9.45 -6.3 13.15 -7.35 16.4 -7.9 18.45 -8.95 20.2 -9.75 21.65 -10.85 23.05 L-12.15 24.55 -13.7 26.0 Q-15.05 27.1 -16.6 28.05 L-17.85 28.9 Q-24.9 33.0 -33.05 33.25 L-34.1 33.25 -35.3 33.25 -36.0 33.25" fill="#ffffff" fill-opacity="0.0" fill-rule="evenodd" stroke="none"/>
    <path d="M-12.9 -13.0 L-11.95 -11.45 -11.75 -11.05 -9.6 -6.7 -8.0 -2.3 Q-6.3 3.5 -6.3 9.45 -6.3 13.15 -7.35 16.4 -7.9 18.45 -8.95 20.2 -9.75 21.65 -10.85 23.05 L-12.15 24.55 -13.7 26.0 Q-15.05 27.1 -16.6 28.05 L-17.85 28.9 Q-24.9 33.0 -33.05 33.25 L-34.1 33.25 -35.3 33.25 -36.0 33.25" fill="none" stroke="#000000" stroke-linecap="square" stroke-linejoin="round" stroke-opacity="0.4" stroke-width="1.0"/>
  </g>
</svg>
