<?xml version="1.0" encoding="UTF-8" standalone="no"?>
<svg xmlns:xlink="http://www.w3.org/1999/xlink" height="54.05px" width="93.6px" xmlns="http://www.w3.org/2000/svg">
  <g transform="matrix(1.0, 0.0, 0.0, 1.0, 58.7, 27.25)">
    <path d="M11.1 -26.6 Q13.65 -24.1 19.4 -19.3 24.5 -15.05 26.8 -12.55 34.25 -4.55 34.25 6.65 34.25 15.6 27.3 21.2 20.45 26.75 10.55 26.1 6.35 26.55 1.75 23.85 -1.95 21.7 -3.2 19.5 -6.4 14.0 -7.15 11.85 -8.45 8.35 -8.45 3.05 -8.45 -2.25 -4.0 -11.5 1.45 -22.85 9.0 -26.95 L11.1 -26.6 M-40.2 26.1 Q-47.2 25.85 -50.9 22.95 -53.05 21.25 -55.95 16.0 L-56.25 15.4 Q-57.55 12.9 -58.15 9.8 -58.7 7.0 -58.7 3.75 -58.7 -0.8 -56.95 -6.4 L-54.8 -12.1 -53.25 -15.1 -51.3 -18.25 Q-49.05 -21.45 -46.4 -23.55 L-45.55 -24.15 Q-42.4 -26.45 -39.3 -26.7 -36.45 -26.9 -33.55 -25.25 -30.7 -23.6 -27.85 -20.05 L-25.8 -17.5 Q-24.0 -15.2 -22.75 -13.3 L-21.95 -12.1 -20.95 -10.4 -19.05 -6.55 -17.75 -2.95 Q-16.35 1.8 -16.35 6.65 -16.35 9.7 -17.2 12.35 -17.65 14.0 -18.5 15.45 -19.55 17.3 -21.15 19.0 L-24.75 21.85 -25.8 22.55 Q-31.55 25.9 -38.2 26.1 L-39.05 26.1 -40.05 26.1 -40.2 26.1" fill="#ffffff" fill-opacity="0.0" fill-rule="evenodd" stroke="none"/>
    <path d="M10.55 26.1 Q20.45 26.75 27.3 21.2 34.25 15.6 34.25 6.65 34.25 -4.55 26.8 -12.55 24.5 -15.05 19.4 -19.3 13.65 -24.1 11.1 -26.6" fill="none" stroke="#000000" stroke-linecap="square" stroke-linejoin="round" stroke-width="1.0"/>
    <path d="M-21.95 -12.1 L-20.95 -10.4 -19.05 -6.55 -17.75 -2.95 Q-16.35 1.8 -16.35 6.65 -16.35 9.7 -17.2 12.35 -17.65 14.0 -18.5 15.45 -19.55 17.3 -21.15 19.0 L-24.75 21.85 -25.8 22.55 Q-31.55 25.9 -38.2 26.1 L-39.05 26.1 -40.05 26.1 -40.2 26.1" fill="none" stroke="#000000" stroke-linecap="square" stroke-linejoin="round" stroke-opacity="0.4" stroke-width="1.0"/>
  </g>
</svg>
