<?xml version="1.0" encoding="UTF-8" standalone="no"?>
<svg xmlns:xlink="http://www.w3.org/1999/xlink" height="54.75px" width="71.2px" xmlns="http://www.w3.org/2000/svg">
  <g transform="matrix(1.0, 0.0, 0.0, 1.0, 53.55, 27.2)">
    <path d="M17.0 -26.1 Q15.7 -26.7 14.8 -26.5 L14.25 -26.35 13.35 -25.8 Q6.7 -21.45 1.75 -11.2 -2.7 -1.95 -2.7 3.35 -2.7 8.65 -1.4 12.15 -0.65 14.3 2.55 19.8 3.8 22.0 7.5 24.15 12.1 26.85 16.3 26.4 M-34.25 26.9 Q-41.25 26.65 -44.95 23.75 -47.1 22.05 -50.0 16.8 L-50.3 16.2 Q-52.9 11.35 -52.9 4.25 -52.9 -0.35 -51.15 -5.95 -50.2 -9.1 -48.9 -11.8 L-47.45 -14.65 Q-44.4 -20.05 -40.55 -23.1 -37.0 -25.95 -33.5 -26.25 -27.8 -26.7 -22.0 -19.6 L-20.0 -17.05 Q-17.65 -14.1 -16.2 -11.8 L-15.85 -11.2" fill="none" stroke="#000000" stroke-linecap="square" stroke-linejoin="round" stroke-opacity="0.4" stroke-width="1.0"/>
  </g>
</svg>
