<?xml version="1.0" encoding="UTF-8" standalone="no"?>
<svg xmlns:xlink="http://www.w3.org/1999/xlink" height="32.95px" width="45.35px" xmlns="http://www.w3.org/2000/svg">
  <g transform="matrix(1.0, 0.0, 0.0, 1.0, 22.7, 16.6)">
    <path d="M5.05 -13.9 Q12.45 -14.05 22.15 -16.1 20.5 1.25 14.95 8.4 9.4 15.55 -0.15 15.85 -9.7 16.1 -15.9 7.75 -22.2 -0.75 -22.2 -14.5 L-22.1 -16.1 Q-2.35 -13.75 5.05 -13.9" fill="#ffffff" fill-opacity="0.0" fill-rule="evenodd" stroke="none"/>
    <path d="M5.05 -13.9 Q-2.35 -13.75 -22.1 -16.1 L-22.2 -14.5 Q-22.2 -0.75 -15.9 7.75 -9.7 16.1 -0.15 15.85 9.4 15.55 14.95 8.4 20.5 1.25 22.15 -16.1 12.45 -14.05 5.05 -13.9 Z" fill="none" stroke="#000000" stroke-linecap="round" stroke-linejoin="round" stroke-width="1.0"/>
  </g>
</svg>
