<?xml version="1.0" encoding="UTF-8" standalone="no"?>
<svg xmlns:xlink="http://www.w3.org/1999/xlink" height="33.6px" width="39.45px" xmlns="http://www.w3.org/2000/svg">
  <g transform="matrix(1.0, 0.0, 0.0, 1.0, 20.45, 17.0)">
    <path d="M18.45 -5.1 Q18.25 -0.55 14.8 7.5 11.35 15.55 1.05 16.05 -9.25 16.5 -14.9 9.8 -20.55 3.05 -19.9 -4.05 -19.3 -11.15 -18.8 -13.2 L-17.75 -16.5 Q-9.35 -14.6 0.15 -14.6 L8.45 -15.4 17.95 -16.45 Q18.6 -9.65 18.45 -5.1" fill="#ffffff" fill-opacity="0.0" fill-rule="evenodd" stroke="none"/>
    <path d="M18.45 -5.1 Q18.25 -0.55 14.8 7.5 11.35 15.55 1.05 16.05 -9.25 16.5 -14.9 9.8 -20.55 3.05 -19.9 -4.05 -19.3 -11.15 -18.8 -13.2 L-17.75 -16.5 Q-9.35 -14.6 0.15 -14.6 L8.45 -15.4 17.95 -16.45 Q18.6 -9.65 18.45 -5.1 Z" fill="none" stroke="#000000" stroke-linecap="round" stroke-linejoin="round" stroke-width="1.0"/>
  </g>
</svg>
