<?xml version="1.0" encoding="UTF-8" standalone="no"?>
<svg xmlns:xlink="http://www.w3.org/1999/xlink" height="33.15px" width="43.75px" xmlns="http://www.w3.org/2000/svg">
  <g transform="matrix(1.0, 0.0, 0.0, 1.0, 22.5, 16.6)">
    <path d="M0.05 -14.05 Q11.8 -14.05 20.75 -16.1 21.15 -6.35 15.15 4.35 8.5 16.05 0.0 16.05 -8.7 16.05 -14.65 11.4 -22.0 5.65 -22.0 -5.6 -22.0 -9.1 -21.4 -12.6 L-20.7 -16.1 -9.6 -14.95 0.05 -14.05" fill="#ffffff" fill-opacity="0.0" fill-rule="evenodd" stroke="none"/>
    <path d="M0.05 -14.05 L-9.6 -14.95 -20.7 -16.1 -21.4 -12.6 Q-22.0 -9.1 -22.0 -5.6 -22.0 5.65 -14.65 11.4 -8.7 16.05 0.0 16.05 8.5 16.05 15.15 4.35 21.15 -6.35 20.75 -16.1 11.8 -14.05 0.05 -14.05 Z" fill="none" stroke="#000000" stroke-linecap="round" stroke-linejoin="round" stroke-width="1.0"/>
  </g>
</svg>
