<?xml version="1.0" encoding="UTF-8" standalone="no"?>
<svg xmlns:xlink="http://www.w3.org/1999/xlink" height="39.35px" width="27.8px" xmlns="http://www.w3.org/2000/svg">
  <g transform="matrix(1.0, 0.0, 0.0, 1.0, 13.9, 32.6)">
    <path d="M-13.4 0.25 Q-12.6 -3.65 -11.85 -8.7 L-11.05 -13.85 -10.3 -18.2 Q-9.05 -24.9 -8.1 -27.55 -6.55 -31.8 -0.5 -32.1 L0.0 -32.1 0.5 -32.1 Q6.55 -31.8 8.1 -27.55 9.05 -24.9 10.3 -18.2 L11.05 -13.85 11.85 -8.7 Q12.6 -3.65 13.4 0.25 0.0 13.3 -13.4 0.25" fill="#ffffff" fill-opacity="0.0" fill-rule="evenodd" stroke="none"/>
    <path d="M-13.4 0.25 Q-12.6 -3.65 -11.85 -8.7 L-11.05 -13.85 -10.3 -18.2 Q-9.05 -24.9 -8.1 -27.55 -6.55 -31.8 -0.5 -32.1 L0.0 -32.1 0.5 -32.1 Q6.55 -31.8 8.1 -27.55 9.05 -24.9 10.3 -18.2 L11.05 -13.85 11.85 -8.7 Q12.6 -3.65 13.4 0.25" fill="none" stroke="#000000" stroke-linecap="round" stroke-linejoin="round" stroke-width="1.0"/>
  </g>
</svg>
