<?xml version="1.0" encoding="UTF-8" standalone="no"?>
<svg xmlns:xlink="http://www.w3.org/1999/xlink" height="38.95px" width="34.15px" xmlns="http://www.w3.org/2000/svg">
  <g transform="matrix(1.0, 0.0, 0.0, 1.0, 16.4, 32.1)">
    <path d="M-15.9 0.1 Q-13.55 -11.35 -12.75 -16.7 -11.55 -24.6 -7.05 -28.5 -3.55 -31.6 1.05 -31.6 7.7 -31.6 11.15 -24.6 13.5 -19.8 16.0 -6.5 L17.25 0.1 Q-1.55 13.6 -15.9 0.1" fill="#ffffff" fill-opacity="0.0" fill-rule="evenodd" stroke="none"/>
    <path d="M-15.9 0.1 Q-13.55 -11.35 -12.75 -16.7 -11.55 -24.6 -7.05 -28.5 -3.55 -31.6 1.05 -31.6 7.7 -31.6 11.15 -24.6 13.5 -19.8 16.0 -6.5 L17.25 0.1" fill="none" stroke="#000000" stroke-linecap="round" stroke-linejoin="round" stroke-width="1.0"/>
  </g>
</svg>
