<?xml version="1.0" encoding="UTF-8" standalone="no"?>
<svg xmlns:xlink="http://www.w3.org/1999/xlink" height="36.2px" width="34.95px" xmlns="http://www.w3.org/2000/svg">
  <g transform="matrix(1.0, 0.0, 0.0, 1.0, 17.9, 32.55)">
    <path d="M-15.05 0.25 L-15.95 -5.8 -16.9 -11.45 Q-17.55 -15.05 -17.05 -17.85 -16.55 -20.7 -15.25 -23.95 -13.95 -27.2 -11.75 -28.75 -10.45 -29.65 -7.8 -30.5 -6.75 -30.95 -3.7 -31.45 L0.1 -31.85 1.6 -31.9 3.4 -31.65 Q6.4 -30.85 8.65 -28.85 10.9 -26.9 12.6 -23.35 14.3 -19.85 15.25 -16.1 16.4 -11.3 16.4 -9.7 16.4 -6.45 15.85 -4.1 15.25 -1.8 15.25 0.25 -0.2 7.05 -15.05 0.25" fill="#ffffff" fill-opacity="0.0" fill-rule="evenodd" stroke="none"/>
    <path d="M-15.05 0.25 L-15.95 -5.8 -16.9 -11.45 Q-17.55 -15.05 -17.05 -17.85 -16.55 -20.7 -15.25 -23.95 -13.95 -27.2 -11.75 -28.75 -10.45 -29.65 -7.8 -30.5 -6.75 -30.95 -3.7 -31.45 L0.1 -31.85 1.6 -31.9 3.4 -31.65 Q6.4 -30.85 8.65 -28.85 10.9 -26.9 12.6 -23.35 14.3 -19.85 15.25 -16.1 16.4 -11.3 16.4 -9.7 16.4 -6.45 15.85 -4.1 15.25 -1.8 15.25 0.25" fill="none" stroke="#000000" stroke-linecap="square" stroke-linejoin="miter-clip" stroke-miterlimit="3.0" stroke-width="1.0"/>
  </g>
</svg>
