<?xml version="1.0" encoding="UTF-8" standalone="no"?>
<svg xmlns:xlink="http://www.w3.org/1999/xlink" height="37.15px" width="33.0px" xmlns="http://www.w3.org/2000/svg">
  <g transform="matrix(1.0, 0.0, 0.0, 1.0, 16.4, 32.1)">
    <path d="M5.05 -31.1 L5.05 -30.6 5.7 -30.6 5.05 -31.1 Q8.2 -29.9 10.15 -27.35 12.05 -24.85 13.9 -20.85 15.75 -16.9 16.05 -13.0 16.25 -7.4 15.85 0.3 -1.85 9.85 -15.1 0.3 L-15.9 -11.75 Q-16.1 -16.1 -14.5 -21.15 -12.95 -26.25 -11.15 -28.3 -9.35 -30.4 -4.95 -31.35 L-1.0 -31.6 5.05 -31.1" fill="#ffffff" fill-opacity="0.0" fill-rule="evenodd" stroke="none"/>
    <path d="M5.05 -31.1 L-1.0 -31.6 -4.95 -31.35 Q-9.35 -30.4 -11.15 -28.3 -12.95 -26.25 -14.5 -21.15 -16.1 -16.1 -15.9 -11.75 L-15.1 0.3 M15.85 0.3 Q16.25 -7.4 16.05 -13.0 15.75 -16.9 13.9 -20.85 12.05 -24.85 10.15 -27.35 8.2 -29.9 5.05 -31.1 Z" fill="none" stroke="#000000" stroke-linecap="round" stroke-linejoin="round" stroke-width="1.0"/>
  </g>
</svg>
