<?xml version="1.0" encoding="UTF-8" standalone="no"?>
<svg xmlns:xlink="http://www.w3.org/1999/xlink" height="38.3px" width="26.9px" xmlns="http://www.w3.org/2000/svg">
  <g transform="matrix(1.0, 0.0, 0.0, 1.0, 12.95, 32.6)">
    <path d="M-12.45 0.4 Q-11.5 -4.3 -11.15 -8.1 -9.7 -23.0 -8.65 -26.1 -6.55 -32.1 0.0 -32.1 6.45 -32.1 8.3 -26.2 8.95 -24.05 9.65 -19.2 10.6 -12.6 11.1 -9.95 11.85 -6.05 13.45 0.4 -0.6 11.05 -12.45 0.4" fill="#ffffff" fill-opacity="0.0" fill-rule="evenodd" stroke="none"/>
    <path d="M13.45 0.4 Q11.85 -6.05 11.1 -9.95 10.6 -12.6 9.65 -19.2 8.95 -24.05 8.3 -26.2 6.45 -32.1 0.0 -32.1 -6.55 -32.1 -8.65 -26.1 -9.7 -23.0 -11.15 -8.1 -11.5 -4.3 -12.45 0.4" fill="none" stroke="#000000" stroke-linecap="round" stroke-linejoin="round" stroke-width="1.0"/>
  </g>
</svg>
