<?xml version="1.0" encoding="UTF-8" standalone="no"?>
<svg xmlns:xlink="http://www.w3.org/1999/xlink" height="12.7px" width="32.85px" xmlns="http://www.w3.org/2000/svg">
  <g transform="matrix(1.0, 0.0, 0.0, 1.0, 15.55, 8.05)">
    <path d="M-14.9 -3.1 Q-14.75 -5.6 -13.35 -6.45 -11.85 -7.35 -9.0 -7.4 -8.4 -7.45 -5.55 -6.5 -2.75 -5.55 0.55 -5.75 L8.65 -6.4 14.8 -6.8 16.25 -6.55 Q16.75 -6.1 16.6 -5.6 L16.0 -4.9 10.55 -2.55 Q5.35 -0.45 1.15 0.55 L-7.8 2.85 -13.1 4.0 Q-14.2 3.65 -14.75 -0.7 L-14.9 -3.1" fill="#ffffff" fill-opacity="0.0" fill-rule="evenodd" stroke="none"/>
    <path d="M16.6 -5.6 L16.0 -4.9 10.55 -2.55 Q5.35 -0.45 1.15 0.55 L-7.8 2.85 -13.1 4.0 Q-14.2 3.65 -14.75 -0.7 L-14.9 -3.1" fill="none" stroke="#000000" stroke-linecap="square" stroke-linejoin="miter-clip" stroke-miterlimit="3.0" stroke-opacity="0.69803923" stroke-width="1.0"/>
    <path d="M-14.9 -3.1 Q-14.75 -5.6 -13.35 -6.45 -11.85 -7.35 -9.0 -7.4 -8.4 -7.45 -5.55 -6.5 -2.75 -5.55 0.55 -5.75 L8.65 -6.4 14.8 -6.8 16.25 -6.55 Q16.75 -6.1 16.6 -5.6 Z" fill="none" stroke="#000000" stroke-linecap="square" stroke-linejoin="miter-clip" stroke-miterlimit="3.0" stroke-opacity="0.4" stroke-width="1.0"/>
  </g>
</svg>
