<?xml version="1.0" encoding="UTF-8" standalone="no"?>
<svg xmlns:xlink="http://www.w3.org/1999/xlink" height="28.0px" width="34.4px" xmlns="http://www.w3.org/2000/svg">
  <g transform="matrix(1.0, 0.0, 0.0, 1.0, 16.0, 25.6)">
    <path d="M11.25 -14.55 Q12.45 -14.9 14.1 -15.95 16.55 -17.5 17.85 -19.5 18.3 -14.4 15.9 -11.45 11.85 -9.15 5.3 -7.2 -1.3 -5.3 -7.75 -1.4 -14.25 2.45 -14.95 0.85 -15.6 -0.65 -15.25 -2.55 -14.95 -4.25 -14.15 -5.25 L-11.2 -8.2 Q-8.65 -10.85 -7.3 -13.45 L-4.3 -19.5 Q-3.2 -22.25 -2.7 -25.1 -1.2 -23.0 -0.65 -21.6 0.0 -20.05 0.45 -17.1 4.7 -20.15 6.2 -24.4 7.6 -19.95 5.6 -15.65 6.55 -16.0 8.35 -17.55 10.55 -19.5 12.1 -21.75 12.55 -19.3 12.0 -16.9 L11.25 -14.55" fill="#ffffff" fill-opacity="0.0" fill-rule="evenodd" stroke="none"/>
    <path d="M11.25 -14.55 Q12.45 -14.9 14.1 -15.95 16.55 -17.5 17.85 -19.5 M0.45 -17.1 Q4.7 -20.15 6.2 -24.4 M5.6 -15.65 Q6.55 -16.0 8.35 -17.55 10.55 -19.5 12.1 -21.75" fill="none" stroke="#000000" stroke-linecap="round" stroke-linejoin="miter-clip" stroke-miterlimit="3.0" stroke-opacity="0.24705882" stroke-width="1.0"/>
    <path d="M17.85 -19.5 Q18.3 -14.4 15.9 -11.45 M-2.7 -25.1 Q-1.2 -23.0 -0.65 -21.6 0.0 -20.05 0.45 -17.1 M6.2 -24.4 Q7.6 -19.95 5.6 -15.65 M12.1 -21.75 Q12.55 -19.3 12.0 -16.9 L11.25 -14.55" fill="none" stroke="#000000" stroke-linecap="round" stroke-linejoin="miter-clip" stroke-miterlimit="3.0" stroke-opacity="0.4" stroke-width="1.0"/>
    <path d="M15.9 -11.45 Q11.85 -9.15 5.3 -7.2" fill="none" stroke="#000000" stroke-linecap="round" stroke-linejoin="miter-clip" stroke-miterlimit="3.0" stroke-opacity="0.69803923" stroke-width="1.0"/>
    <path d="M5.3 -7.2 Q-1.3 -5.3 -7.75 -1.4 -14.25 2.45 -14.95 0.85 -15.6 -0.65 -15.25 -2.55 -14.95 -4.25 -14.15 -5.25 L-11.2 -8.2 Q-8.65 -10.85 -7.3 -13.45 L-4.3 -19.5 Q-3.2 -22.25 -2.7 -25.1" fill="none" stroke="#000000" stroke-linecap="round" stroke-linejoin="miter-clip" stroke-miterlimit="3.0" stroke-opacity="0.49803922" stroke-width="1.0"/>
  </g>
</svg>
