<?xml version="1.0" encoding="UTF-8" standalone="no"?>
<svg xmlns:xlink="http://www.w3.org/1999/xlink" height="11.0px" width="29.45px" xmlns="http://www.w3.org/2000/svg">
  <g transform="matrix(1.0, 0.0, 0.0, 1.0, 14.65, 6.35)">
    <path d="M13.05 -1.3 Q13.9 0.4 14.1 1.85 14.25 2.95 14.05 3.35 L13.15 4.05 12.05 3.9 Q11.5 3.6 11.3 3.0 9.9 -1.45 3.4 -1.3 -4.4 -1.1 -12.2 1.25 L-13.35 1.15 Q-13.9 0.8 -14.05 0.25 -14.25 -0.35 -13.95 -0.9 -13.65 -1.45 -13.05 -1.6 -2.1 -4.9 1.7 -5.6 5.0 -6.2 8.1 -5.2 11.7 -4.05 13.05 -1.3" fill="#ffffff" fill-opacity="0.0" fill-rule="evenodd" stroke="none"/>
    <path d="M13.05 -1.3 Q13.9 0.4 14.1 1.85 14.25 2.95 14.05 3.35 L13.15 4.05 12.05 3.9 Q11.5 3.6 11.3 3.0 9.9 -1.45 3.4 -1.3 -4.4 -1.1 -12.2 1.25 L-13.35 1.15 Q-13.9 0.8 -14.05 0.25 -14.25 -0.35 -13.95 -0.9 -13.65 -1.45 -13.05 -1.6 -2.1 -4.9 1.7 -5.6 5.0 -6.2 8.1 -5.2 11.7 -4.05 13.05 -1.3 Z" fill="none" stroke="#000000" stroke-linecap="round" stroke-linejoin="miter-clip" stroke-miterlimit="3.0" stroke-opacity="0.69803923" stroke-width="1.0"/>
  </g>
</svg>
