<?xml version="1.0" encoding="UTF-8" standalone="no"?>
<svg xmlns:xlink="http://www.w3.org/1999/xlink" height="14.35px" width="25.55px" xmlns="http://www.w3.org/2000/svg">
  <g transform="matrix(1.0, 0.0, 0.0, 1.0, 14.7, 5.05)">
    <path d="M-7.65 1.25 Q1.25 -2.25 7.45 -0.75 L9.2 -0.15 7.45 1.95 6.25 2.95 Q3.9 4.65 -0.2 4.55 -4.3 4.4 -6.45 2.65 -7.85 1.55 -7.65 1.25" fill="#ffffff" fill-opacity="0.0" fill-rule="evenodd" stroke="none"/>
    <path d="M-7.65 1.25 Q-7.85 1.55 -6.45 2.65 -4.3 4.4 -0.2 4.55 3.9 4.65 6.25 2.95 L7.45 1.95 9.2 -0.15" fill="none" stroke="#000000" stroke-linecap="round" stroke-linejoin="round" stroke-opacity="0.4" stroke-width="1.0"/>
    <path d="M9.2 -0.15 L7.45 -0.75 Q1.25 -2.25 -7.65 1.25 L-8.95 1.65 M9.2 -0.15 L10.35 0.25" fill="none" stroke="#000000" stroke-linecap="round" stroke-linejoin="round" stroke-width="1.0"/>
    <path d="M-9.9 0.25 Q0.5 -6.95 8.2 -3.35 L9.95 -2.4 M-14.2 4.3 Q-13.05 2.9 -10.7 2.1 L-8.95 1.55 M9.6 2.75 Q7.5 7.45 0.4 8.55 -6.7 9.65 -10.8 5.4" fill="none" stroke="#000000" stroke-linecap="round" stroke-linejoin="round" stroke-opacity="0.2" stroke-width="1.0"/>
  </g>
</svg>
