<?xml version="1.0" encoding="UTF-8" standalone="no"?>
<svg xmlns:xlink="http://www.w3.org/1999/xlink" height="19.7px" width="20.65px" xmlns="http://www.w3.org/2000/svg">
  <g transform="matrix(1.0, 0.0, 0.0, 1.0, 14.1, 12.65)">
    <path d="M5.65 -8.95 L5.8 -8.8 6.55 -6.85 6.05 -7.4 Q3.8 -9.9 0.35 -9.9 -3.1 -9.9 -5.55 -7.4 -7.6 -5.35 -8.15 -2.5 -7.9 -6.7 -5.8 -8.8 -3.35 -11.3 0.1 -11.3 3.4 -11.3 5.65 -8.95 M0.1 6.1 Q-2.95 6.15 -5.2 4.2 -2.95 5.25 0.1 5.2 3.15 5.15 5.55 4.15 3.15 6.05 0.1 6.1" fill="#000000" fill-rule="evenodd" stroke="none"/>
    <path d="M-12.65 -4.55 L-11.45 -5.15 -11.7 -4.7 Q-13.25 -2.95 -13.2 -0.15 -13.05 2.7 -11.4 4.85 -10.05 6.5 -8.15 7.05 -10.9 6.75 -12.25 4.95 -14.0 2.85 -14.1 0.1 -14.15 -2.65 -12.75 -4.5 L-12.65 -4.55" fill="#000000" fill-opacity="0.49803922" fill-rule="evenodd" stroke="none"/>
    <path d="M5.65 -8.95 L5.25 -9.65 Q3.0 -12.15 -0.45 -12.15 -3.9 -12.15 -6.35 -9.65 -7.85 -8.15 -8.55 -6.2" fill="none" stroke="#000000" stroke-linecap="round" stroke-linejoin="round" stroke-opacity="0.6" stroke-width="1.0"/>
  </g>
</svg>
