<?xml version="1.0" encoding="UTF-8" standalone="no"?>
<svg xmlns:xlink="http://www.w3.org/1999/xlink" height="11.75px" width="21.75px" xmlns="http://www.w3.org/2000/svg">
  <g transform="matrix(1.0, 0.0, 0.0, 1.0, 10.0, 6.7)">
    <path d="M-9.3 -1.0 Q-7.9 -1.25 -4.8 -2.75 L0.25 -4.9 Q2.65 -5.6 5.1 -4.8 7.75 -3.85 9.95 -1.25 8.6 1.2 6.25 2.95 3.9 4.65 -0.2 4.55 -4.3 4.4 -6.45 2.65 -8.65 0.9 -9.3 -1.0" fill="#ffffff" fill-opacity="0.0" fill-rule="evenodd" stroke="none"/>
    <path d="M9.95 -1.25 Q8.6 1.2 6.25 2.95 3.9 4.65 -0.2 4.55 -4.3 4.4 -6.45 2.65 -8.65 0.9 -9.3 -1.0" fill="none" stroke="#000000" stroke-linecap="round" stroke-linejoin="round" stroke-opacity="0.4" stroke-width="1.0"/>
    <path d="M-9.3 -1.0 Q-7.9 -1.25 -4.8 -2.75 L0.25 -4.9 Q2.65 -5.6 5.1 -4.8 7.75 -3.85 9.95 -1.25 Z" fill="none" stroke="#000000" stroke-linecap="round" stroke-linejoin="round" stroke-width="1.0"/>
    <path d="M-9.5 -2.9 Q-7.45 -3.25 0.15 -6.0 7.65 -6.85 11.25 -3.75" fill="none" stroke="#000000" stroke-linecap="round" stroke-linejoin="round" stroke-opacity="0.2" stroke-width="1.0"/>
  </g>
</svg>
