<?xml version="1.0" encoding="UTF-8" standalone="no"?>
<svg xmlns:xlink="http://www.w3.org/1999/xlink" height="10.05px" width="20.65px" xmlns="http://www.w3.org/2000/svg">
  <g transform="matrix(1.0, 0.0, 0.0, 1.0, 9.95, 5.3)">
    <path d="M-9.3 -1.0 L-2.8 -2.85 Q3.0 -4.5 6.2 -4.6 8.1 -3.45 9.95 -1.25 8.6 1.2 6.2 2.75 3.8 4.3 -0.3 4.25 -4.4 4.15 -6.5 2.55 -8.65 0.9 -9.3 -1.0" fill="#ffffff" fill-opacity="0.0" fill-rule="evenodd" stroke="none"/>
    <path d="M9.95 -1.25 Q8.6 1.2 6.2 2.75 3.8 4.3 -0.3 4.25 -4.4 4.15 -6.5 2.55 -8.65 0.9 -9.3 -1.0" fill="none" stroke="#000000" stroke-linecap="round" stroke-linejoin="round" stroke-opacity="0.4" stroke-width="1.0"/>
    <path d="M-9.3 -1.0 L-2.8 -2.85 Q3.0 -4.5 6.2 -4.6 8.1 -3.45 9.95 -1.25 Z" fill="none" stroke="#000000" stroke-linecap="round" stroke-linejoin="round" stroke-width="1.0"/>
    <path d="M-9.45 -2.25 L-1.05 -3.9 Q5.1 -5.1 10.2 -4.7" fill="none" stroke="#000000" stroke-linecap="round" stroke-linejoin="round" stroke-opacity="0.2" stroke-width="1.0"/>
  </g>
</svg>
