<?xml version="1.0" encoding="UTF-8" standalone="no"?>
<svg xmlns:xlink="http://www.w3.org/1999/xlink" height="108.25px" width="94.55px" xmlns="http://www.w3.org/2000/svg">
  <g transform="matrix(1.0, 0.0, 0.0, 1.0, 44.3, 50.45)">
    <path d="M2.0 -46.4 Q5.8 -41.0 9.0 -38.8 18.6 -33.4 20.2 -32.0 L23.2 -28.4 Q25.2 -25.4 26.0 -24.8 L43.8 -10.8 48.6 -9.4 49.4 -8.4 Q50.0 -7.2 49.6 -6.2 48.2 -4.4 46.2 -2.6 42.8 -0.8 39.6 -1.0 L32.8 -2.4 Q30.0 -3.4 27.8 -5.2 25.4 -7.2 23.2 -9.4 19.8 -11.6 19.0 -11.6 17.8 -12.4 15.6 -12.2 L11.8 -12.4 Q9.8 -4.8 9.2 1.6 L9.6 10.2 Q9.6 17.4 9.2 17.8 9.6 20.2 9.2 24.0 L8.8 30.4 7.6 41.0 6.2 50.4 Q4.8 53.4 4.6 54.8 2.6 57.8 -0.2 57.2 -3.0 56.8 -4.2 54.2 -5.0 52.2 -4.6 49.0 -4.2 47.2 -4.2 38.6 L-4.4 16.8 -5.2 13.8 -8.4 17.4 Q-12.0 21.4 -13.2 21.6 L-17.6 22.0 Q-20.2 22.0 -21.4 21.0 -22.6 20.0 -23.4 18.6 -24.4 17.4 -24.6 15.8 -31.6 18.6 -35.4 11.2 L-38.0 11.4 Q-39.0 11.4 -39.8 10.8 -40.8 10.8 -42.2 8.2 -43.4 6.2 -43.0 5.4 -43.2 4.0 -42.4 -4.2 L-43.0 -8.8 Q-43.2 -16.4 -43.8 -25.2 -44.2 -34.0 -34.0 -46.2 -19.2 -54.6 2.0 -46.4" fill="#ffffff" fill-opacity="0.0" fill-rule="evenodd" stroke="none"/>
    <path d="M2.0 -46.4 Q5.8 -41.0 9.0 -38.8 18.6 -33.4 20.2 -32.0 L23.2 -28.4 Q25.2 -25.4 26.0 -24.8 L43.8 -10.8 48.6 -9.4 49.4 -8.4 Q50.0 -7.2 49.6 -6.2 48.2 -4.4 46.2 -2.6 42.8 -0.8 39.6 -1.0 L32.8 -2.4 Q30.0 -3.4 27.8 -5.2 25.4 -7.2 23.2 -9.4 19.8 -11.6 19.0 -11.6 17.8 -12.4 15.6 -12.2 L11.8 -12.4 Q9.8 -4.8 9.2 1.6 L9.6 10.2 Q9.6 17.4 9.2 17.8 9.6 20.2 9.2 24.0 L8.8 30.4 7.6 41.0 6.2 50.4 Q4.8 53.4 4.6 54.8 2.6 57.8 -0.2 57.2 -3.0 56.8 -4.2 54.2 -5.0 52.2 -4.6 49.0 -4.2 47.2 -4.2 38.6 L-4.4 16.8 -5.2 13.8 -8.4 17.4 Q-12.0 21.4 -13.2 21.6 L-17.6 22.0 Q-20.2 22.0 -21.4 21.0 -22.6 20.0 -23.4 18.6 -24.4 17.4 -24.6 15.8 -31.6 18.6 -35.4 11.2 L-38.0 11.4 Q-39.0 11.4 -39.8 10.8 -40.8 10.8 -42.2 8.2 -43.4 6.2 -43.0 5.4 -43.2 4.0 -42.4 -4.2 L-43.0 -8.8 Q-43.2 -16.4 -43.8 -25.2 -44.2 -34.0 -34.0 -46.2" fill="none" stroke="#000000" stroke-linecap="round" stroke-linejoin="round" stroke-width="1.0"/>
  </g>
</svg>
