<?xml version="1.0" encoding="UTF-8" standalone="no"?>
<svg xmlns:xlink="http://www.w3.org/1999/xlink" height="106.85px" width="64.95px" xmlns="http://www.w3.org/2000/svg">
  <g transform="matrix(1.0, 0.0, 0.0, 1.0, 33.75, 50.45)">
    <path d="M12.9 -46.75 Q14.9 -43.35 16.1 -35.55 L17.7 -24.15 Q18.1 -20.35 20.3 -13.95 22.7 -7.95 23.5 -4.95 L24.3 -0.35 Q25.3 1.45 26.3 4.45 28.9 10.65 29.7 13.25 30.3 14.65 30.3 18.25 L30.7 23.85 30.1 36.85 30.7 41.25 30.3 42.65 Q29.9 43.65 28.9 43.85 27.3 44.05 25.7 43.25 24.3 42.25 23.5 40.25 L21.7 46.25 20.1 49.65 19.3 54.85 Q16.9 56.05 16.1 55.85 15.1 55.65 14.1 55.05 12.9 54.05 12.1 52.65 11.1 50.45 11.1 49.25 L12.3 44.65 Q12.9 41.65 13.5 40.45 13.5 39.05 14.7 33.05 16.3 27.25 16.3 26.25 16.5 25.65 14.7 21.45 13.5 17.65 13.5 16.45 L11.1 20.45 7.3 25.65 Q6.3 27.05 -1.1 28.05 L-9.9 29.05 Q-11.3 29.25 -16.7 27.25 -22.5 25.25 -24.3 23.45 -25.5 24.25 -27.5 23.05 -28.9 22.05 -29.7 20.85 -29.9 20.45 -29.9 17.85 L-30.3 14.05 -31.5 10.65 Q-33.1 8.25 -33.1 7.65 -33.5 6.65 -32.9 3.45 L-32.1 -1.35 Q-32.1 -2.55 -29.7 -10.95 L-27.3 -19.95 -26.7 -23.55 Q-26.5 -26.35 -27.1 -27.75 -27.5 -29.55 -25.9 -34.95 -24.7 -40.55 -20.7 -44.55 -10.3 -55.15 12.9 -46.75 M2.5 7.85 Q1.5 7.25 1.5 1.25 1.5 -1.55 1.9 -4.35 L-13.1 -6.75 Q-15.7 -4.15 -17.1 1.05 -18.3 6.05 -17.9 7.85 -17.5 9.45 -17.7 12.25 -17.7 15.05 -18.7 17.65 L-13.7 17.85 -10.1 18.85 Q-6.3 17.05 -2.1 16.65 0.1 8.65 2.5 7.85" fill="#ffffff" fill-opacity="0.0" fill-rule="evenodd" stroke="none"/>
    <path d="M12.9 -46.75 Q14.9 -43.35 16.1 -35.55 L17.7 -24.15 Q18.1 -20.35 20.3 -13.95 22.7 -7.95 23.5 -4.95 L24.3 -0.35 Q25.3 1.45 26.3 4.45 28.9 10.65 29.7 13.25 30.3 14.65 30.3 18.25 L30.7 23.85 30.1 36.85 30.7 41.25 30.3 42.65 Q29.9 43.65 28.9 43.85 27.3 44.05 25.7 43.25 24.3 42.25 23.5 40.25 L21.7 46.25 20.1 49.65 19.3 54.85 Q16.9 56.05 16.1 55.85 15.1 55.65 14.1 55.05 12.9 54.05 12.1 52.65 11.1 50.45 11.1 49.25 L12.3 44.65 Q12.9 41.65 13.5 40.45 13.5 39.05 14.7 33.05 16.3 27.25 16.3 26.25 16.5 25.65 14.7 21.45 13.5 17.65 13.5 16.45 L11.1 20.45 7.3 25.65 Q6.3 27.05 -1.1 28.05 L-9.9 29.05 Q-11.3 29.25 -16.7 27.25 -22.5 25.25 -24.3 23.45 -25.5 24.25 -27.5 23.05 -28.9 22.05 -29.7 20.85 -29.9 20.45 -29.9 17.85 L-30.3 14.05 -31.5 10.65 Q-33.1 8.25 -33.1 7.65 -33.5 6.65 -32.9 3.45 L-32.1 -1.35 Q-32.1 -2.55 -29.7 -10.95 L-27.3 -19.95 -26.7 -23.55 Q-26.5 -26.35 -27.1 -27.75 -27.5 -29.55 -25.9 -34.95 -24.7 -40.55 -20.7 -44.55 M2.5 7.85 Q0.1 8.65 -2.1 16.65 -6.3 17.05 -10.1 18.85 L-13.7 17.85 -18.7 17.65 Q-17.7 15.05 -17.7 12.25 -17.5 9.45 -17.9 7.85 -18.3 6.05 -17.1 1.05 -15.7 -4.15 -13.1 -6.75 L1.9 -4.35 Q1.5 -1.55 1.5 1.25 1.5 7.25 2.5 7.85" fill="none" stroke="#000000" stroke-linecap="round" stroke-linejoin="round" stroke-width="1.0"/>
  </g>
</svg>
