<?xml version="1.0" encoding="UTF-8" standalone="no"?>
<svg xmlns:xlink="http://www.w3.org/1999/xlink" height="14.3px" width="21.15px" xmlns="http://www.w3.org/2000/svg">
  <g transform="matrix(1.0, 0.0, 0.0, 1.0, 9.8, 10.2)">
    <path d="M-9.3 -0.6 Q-9.05 -3.85 -7.15 -5.35 -5.1 -6.95 -0.1 -7.3 4.35 -7.65 6.85 -5.8 8.75 -4.4 9.95 -1.25 8.95 0.6 7.4 1.55 4.8 3.2 -0.2 3.55 -5.2 3.9 -7.65 2.2 -9.4 0.95 -9.3 -0.6" fill="#ffffff" fill-opacity="0.0" fill-rule="evenodd" stroke="none"/>
    <path d="M9.95 -1.25 Q8.95 0.6 7.4 1.55 4.8 3.2 -0.2 3.55 -5.2 3.9 -7.65 2.2 -9.4 0.95 -9.3 -0.6" fill="none" stroke="#000000" stroke-linecap="round" stroke-linejoin="round" stroke-opacity="0.4" stroke-width="1.0"/>
    <path d="M-9.3 -0.6 Q-9.05 -3.85 -7.15 -5.35 -5.1 -6.95 -0.1 -7.3 4.35 -7.65 6.85 -5.8 8.75 -4.4 9.95 -1.25 Z" fill="none" stroke="#000000" stroke-linecap="round" stroke-linejoin="round" stroke-width="1.0"/>
    <path d="M-7.95 -6.0 Q-6.3 -8.0 -4.8 -8.75 -3.2 -9.5 -0.3 -9.7 2.4 -9.85 5.4 -8.0 7.05 -7.0 10.85 -3.75" fill="none" stroke="#000000" stroke-linecap="round" stroke-linejoin="round" stroke-opacity="0.2" stroke-width="1.0"/>
  </g>
</svg>
