<?xml version="1.0" encoding="UTF-8" standalone="no"?>
<svg xmlns:xlink="http://www.w3.org/1999/xlink" height="79.5px" width="75.4px" xmlns="http://www.w3.org/2000/svg">
  <g transform="matrix(1.0, 0.0, 0.0, 1.0, 21.65, 74.1)">
    <path d="M-15.1 4.25 Q-28.15 -31.35 -15.1 -71.0 L-14.65 -71.2 Q-4.3 -73.3 8.0 -73.55 32.6 -74.05 42.3 -64.9 53.45 -54.35 53.25 -36.25 53.0 -18.8 42.8 -5.8 37.1 1.45 22.95 3.7 9.95 5.75 -15.1 4.25" fill="#ffffff" fill-opacity="0.0" fill-rule="evenodd" stroke="none"/>
    <path d="M-15.1 4.25 Q9.95 5.75 22.95 3.7 37.1 1.45 42.8 -5.8 53.0 -18.8 53.25 -36.25 53.45 -54.35 42.3 -64.9 32.6 -74.05 8.0 -73.55 -4.3 -73.3 -14.65 -71.2" fill="none" stroke="#000000" stroke-linecap="round" stroke-linejoin="round" stroke-opacity="0.4" stroke-width="1.0"/>
  </g>
</svg>
