<?xml version="1.0" encoding="UTF-8" standalone="no"?>
<svg xmlns:xlink="http://www.w3.org/1999/xlink" height="7.1px" width="5.3px" xmlns="http://www.w3.org/2000/svg">
  <g transform="matrix(1.0, 0.0, 0.0, 1.0, 2.65, 4.7)">
    <path d="M2.05 -0.4 Q2.35 1.05 1.65 1.5 0.95 1.9 0.0 1.9 -0.95 1.9 -1.65 1.5 -2.35 1.05 -2.05 -0.4 L-1.3 -3.05 Q-0.8 -4.2 0.0 -4.2 0.8 -4.2 1.3 -3.05 L2.05 -0.4" fill="#ffcc00" fill-opacity="0.49803922" fill-rule="evenodd" stroke="none"/>
    <path d="M2.05 -0.4 Q2.35 1.05 1.65 1.5 0.95 1.9 0.0 1.9 -0.95 1.9 -1.65 1.5 -2.35 1.05 -2.05 -0.4 L-1.3 -3.05 Q-0.8 -4.2 0.0 -4.2 0.8 -4.2 1.3 -3.05 L2.05 -0.4 Z" fill="none" stroke="#ffcc00" stroke-linecap="round" stroke-linejoin="round" stroke-opacity="0.49803922" stroke-width="1.0"/>
  </g>
</svg>
