<?xml version="1.0" encoding="UTF-8" standalone="no"?>
<svg xmlns:xlink="http://www.w3.org/1999/xlink" height="121.95px" width="119.7px" xmlns="http://www.w3.org/2000/svg">
  <g transform="matrix(1.0, 0.0, 0.0, 1.0, 42.45, 123.8)">
    <path d="M-29.9 -40.2 Q-18.7 -48.35 -7.05 -71.05 -2.75 -79.5 -0.7 -91.8 1.45 -104.7 3.2 -108.55 9.9 -123.35 15.2 -123.75 20.45 -124.1 22.0 -121.05 30.1 -104.4 34.9 -96.35 45.55 -78.3 55.45 -70.3 69.95 -58.6 74.85 -44.9 79.6 -31.55 72.5 -24.8 64.75 -17.4 43.7 -11.7 31.0 -8.25 5.75 -3.85 -11.0 -0.95 -22.7 -3.75 -32.9 -6.15 -38.0 -12.5 -42.55 -18.15 -41.85 -25.25 -41.15 -32.1 -29.9 -40.2" fill="#ffffff" fill-opacity="0.0" fill-rule="evenodd" stroke="none"/>
    <path d="M-29.9 -40.2 Q-41.15 -32.1 -41.85 -25.25 -42.55 -18.15 -38.0 -12.5 -32.9 -6.15 -22.7 -3.75 -11.0 -0.95 5.75 -3.85 31.0 -8.25 43.7 -11.7 64.75 -17.4 72.5 -24.8 79.6 -31.55 74.85 -44.9 69.95 -58.6 55.45 -70.3 45.55 -78.3 34.9 -96.35 30.1 -104.4 22.0 -121.05" fill="none" stroke="#000000" stroke-linecap="round" stroke-linejoin="round" stroke-opacity="0.4" stroke-width="1.0"/>
  </g>
</svg>
