<?xml version="1.0" encoding="UTF-8" standalone="no"?>
<svg xmlns:xlink="http://www.w3.org/1999/xlink" height="113.7px" width="100.9px" xmlns="http://www.w3.org/2000/svg">
  <g transform="matrix(1.0, 0.0, 0.0, 1.0, 44.8, 41.3)">
    <path d="M6.0 -40.8 Q8.2 -40.2 10.4 -39.2 14.6 -37.2 19.8 -33.8 24.8 -30.4 27.4 -30.0 L30.2 -29.8 34.6 -30.0 42.2 -30.8 Q45.8 -31.6 47.8 -32.4 L51.4 -34.0 Q53.2 -34.8 54.2 -34.0 55.0 -33.4 55.6 -31.0 54.8 -25.6 50.6 -23.4 46.4 -21.2 45.4 -21.0 L38.0 -19.8 Q34.0 -19.2 31.2 -18.2 28.4 -17.2 27.2 -16.2 25.8 -15.4 24.8 -14.6 L23.4 -13.2 22.6 -12.2 Q21.0 -9.6 21.6 0.8 22.0 8.2 23.0 13.6 23.4 15.6 29.0 32.6 34.8 49.6 35.2 51.4 35.6 54.2 35.6 56.0 35.4 57.8 33.6 59.0 31.6 60.2 30.0 60.0 28.2 59.6 26.6 55.4 13.4 20.2 11.4 18.8 10.6 18.0 9.4 18.2 8.2 18.2 7.6 18.8 6.6 19.2 6.0 26.4 5.8 29.4 8.0 65.6 8.0 70.4 3.6 71.8 0.4 72.6 -1.4 66.4 -2.2 63.8 -3.2 47.0 -4.2 32.6 -4.2 29.0 -4.2 26.6 -4.8 24.2 -5.4 21.4 -6.6 21.4 -8.6 21.4 -10.0 27.0 L-12.4 43.2 Q-14.6 57.8 -15.6 59.6 -16.8 62.0 -20.6 62.0 -24.4 62.0 -24.2 55.6 -19.4 21.0 -19.6 19.2 -19.6 18.8 -20.8 18.4 -21.8 17.8 -22.4 18.2 -23.6 18.8 -30.0 28.4 -33.6 33.8 -36.4 37.0 -39.4 40.2 -42.0 38.8 -44.8 37.4 -44.2 34.4 -43.6 31.2 -36.8 21.8 -31.2 14.2 -30.6 8.0 -30.4 6.8 -30.8 3.2 L-31.8 -3.8 Q-32.8 -14.0 -30.4 -21.2 -29.4 -24.4 -27.8 -27.2 -13.4 -39.4 5.8 -40.8 L6.0 -40.8" fill="#ffffff" fill-opacity="0.0" fill-rule="evenodd" stroke="none"/>
    <path d="M6.0 -40.8 Q8.2 -40.2 10.4 -39.2 14.6 -37.2 19.8 -33.8 24.8 -30.4 27.4 -30.0 L30.2 -29.8 34.6 -30.0 42.2 -30.8 Q45.8 -31.6 47.8 -32.4 L51.4 -34.0 Q53.2 -34.8 54.2 -34.0 55.0 -33.4 55.6 -31.0 54.8 -25.6 50.6 -23.4 46.4 -21.2 45.4 -21.0 L38.0 -19.8 Q34.0 -19.2 31.2 -18.2 28.4 -17.2 27.2 -16.2 25.8 -15.4 24.8 -14.6 L23.4 -13.2 22.6 -12.2 Q21.0 -9.6 21.6 0.8 22.0 8.2 23.0 13.6 23.4 15.6 29.0 32.6 34.8 49.6 35.2 51.4 35.6 54.2 35.6 56.0 35.4 57.8 33.6 59.0 31.6 60.2 30.0 60.0 28.2 59.6 26.6 55.4 13.4 20.2 11.4 18.8 10.6 18.0 9.4 18.2 8.2 18.2 7.6 18.8 6.6 19.2 6.0 26.4 5.8 29.4 8.0 65.6 8.0 70.4 3.6 71.8 0.4 72.6 -1.4 66.4 -2.2 63.8 -3.2 47.0 -4.2 32.6 -4.2 29.0 -4.2 26.6 -4.8 24.2 -5.4 21.4 -6.6 21.4 -8.6 21.4 -10.0 27.0 L-12.4 43.2 Q-14.6 57.8 -15.6 59.6 -16.8 62.0 -20.6 62.0 -24.4 62.0 -24.2 55.6 -19.4 21.0 -19.6 19.2 -19.6 18.8 -20.8 18.4 -21.8 17.8 -22.4 18.2 -23.6 18.8 -30.0 28.4 -33.6 33.8 -36.4 37.0 -39.4 40.2 -42.0 38.8 -44.8 37.4 -44.2 34.4 -43.6 31.2 -36.8 21.8 -31.2 14.2 -30.6 8.0 -30.4 6.8 -30.8 3.2 L-31.8 -3.8 Q-32.8 -14.0 -30.4 -21.2 -29.4 -24.4 -27.8 -27.2" fill="none" stroke="#000000" stroke-linecap="round" stroke-linejoin="round" stroke-width="1.0"/>
  </g>
</svg>
