<?xml version="1.0" encoding="UTF-8" standalone="no"?>
<svg xmlns:xlink="http://www.w3.org/1999/xlink" height="99.1px" width="58.85px" xmlns="http://www.w3.org/2000/svg">
  <g transform="matrix(1.0, 0.0, 0.0, 1.0, 29.3, 47.9)">
    <path d="M7.2 -45.45 L12.4 -39.85 Q15.2 -36.65 17.0 -32.85 L21.0 -24.85 25.0 -17.85 Q26.8 -14.85 28.0 -12.05 29.0 -9.45 29.0 -8.25 29.2 -6.65 28.6 -2.65 L28.0 2.95 28.4 11.15 Q28.6 17.75 28.4 19.35 L27.4 31.95 26.6 44.15 26.4 47.75 26.6 49.35 26.2 49.75 Q25.8 50.35 25.0 50.55 23.8 50.95 21.6 50.15 18.6 48.95 17.6 46.35 16.6 43.75 16.6 40.35 L16.8 36.55 16.2 31.35 Q15.6 26.55 15.8 25.35 16.0 24.15 15.0 21.75 13.8 18.95 13.8 18.35 L13.4 13.55 13.2 9.35 Q13.4 8.75 12.6 7.95 L11.6 7.15 Q9.6 9.75 5.4 12.15 1.4 14.55 0.6 14.35 L-1.2 13.75 -2.2 16.95 -3.2 18.75 Q-3.8 19.55 -5.6 20.15 -7.8 20.75 -9.0 20.15 L-11.0 18.95 Q-11.6 18.35 -11.8 17.75 L-13.8 16.95 -16.2 15.75 Q-16.8 15.15 -18.6 10.15 -20.2 5.15 -20.8 1.95 -21.2 -0.45 -23.2 -5.85 -25.2 -11.05 -25.4 -12.65 -25.4 -13.25 -26.0 -14.45 L-27.2 -17.25 Q-28.8 -21.85 -28.8 -27.45 -28.8 -30.65 -27.6 -34.85 -26.8 -38.45 -23.6 -42.65 -13.4 -51.45 7.2 -45.45" fill="#ffffff" fill-opacity="0.0" fill-rule="evenodd" stroke="none"/>
    <path d="M7.2 -45.45 L12.4 -39.85 Q15.2 -36.65 17.0 -32.85 L21.0 -24.85 25.0 -17.85 Q26.8 -14.85 28.0 -12.05 29.0 -9.45 29.0 -8.25 29.2 -6.65 28.6 -2.65 L28.0 2.95 28.4 11.15 Q28.6 17.75 28.4 19.35 L27.4 31.95 26.6 44.15 26.4 47.75 26.6 49.35 26.2 49.75 Q25.8 50.35 25.0 50.55 23.8 50.95 21.6 50.15 18.6 48.95 17.6 46.35 16.6 43.75 16.6 40.35 L16.8 36.55 16.2 31.35 Q15.6 26.55 15.8 25.35 16.0 24.15 15.0 21.75 13.8 18.95 13.8 18.35 L13.4 13.55 13.2 9.35 Q13.4 8.75 12.6 7.95 L11.6 7.15 Q9.6 9.75 5.4 12.15 1.4 14.55 0.6 14.35 L-1.2 13.75 -2.2 16.95 -3.2 18.75 Q-3.8 19.55 -5.6 20.15 -7.8 20.75 -9.0 20.15 L-11.0 18.95 Q-11.6 18.35 -11.8 17.75 L-13.8 16.95 -16.2 15.75 Q-16.8 15.15 -18.6 10.15 -20.2 5.15 -20.8 1.95 -21.2 -0.45 -23.2 -5.85 -25.2 -11.05 -25.4 -12.65 -25.4 -13.25 -26.0 -14.45 L-27.2 -17.25 Q-28.8 -21.85 -28.8 -27.45 -28.8 -30.65 -27.6 -34.85 -26.8 -38.45 -23.6 -42.65" fill="none" stroke="#000000" stroke-linecap="round" stroke-linejoin="round" stroke-width="1.0"/>
  </g>
</svg>
