<?xml version="1.0" encoding="UTF-8" standalone="no"?>
<svg xmlns:xlink="http://www.w3.org/1999/xlink" height="21.45px" width="41.6px" xmlns="http://www.w3.org/2000/svg">
  <g transform="matrix(1.0, 0.0, 0.0, 1.0, 20.9, 11.55)">
    <path d="M17.5 4.15 L11.5 8.0 Q8.25 9.65 0.45 9.15 -7.4 8.6 -10.95 7.6 -14.55 6.6 -15.4 6.05 L-19.4 3.75 Q-14.3 3.55 -10.2 3.95 L-3.95 4.7 -10.2 3.95 Q-14.3 3.55 -19.4 3.75 L-19.85 3.55 Q-15.15 1.95 -10.2 2.1 -6.05 2.25 0.1 3.8 L-1.6 4.25 -3.95 4.7 1.3 5.6 5.2 5.9 5.4 5.9 11.75 5.85 16.15 4.7 17.5 4.15" fill="#ffffff" fill-opacity="0.0" fill-rule="evenodd" stroke="none"/>
    <path d="M15.6 -2.3 L15.55 -2.0 15.0 0.45 Q14.55 2.35 13.3 3.8 L11.75 5.85 13.3 3.8 Q14.55 2.35 15.0 0.45 L15.55 -2.0 15.6 -2.3 M0.1 3.8 Q1.75 3.1 3.5 1.9 5.45 0.35 7.75 -3.35 L8.2 -4.05 Q10.35 -7.3 12.95 -9.25 15.4 -11.15 17.05 -10.85 19.9 -10.35 20.0 -5.2 20.2 -0.15 19.55 1.85 L19.45 2.15 19.35 2.3 19.15 2.7 17.5 4.15 16.15 4.7 11.75 5.85 5.4 5.9 5.2 5.9 1.3 5.6 -3.95 4.7 -1.6 4.25 0.1 3.8" fill="#a5433d" fill-rule="evenodd" stroke="none"/>
    <path d="M-19.85 3.55 Q-15.15 1.95 -10.2 2.1 -6.05 2.25 0.1 3.8" fill="none" stroke="#000000" stroke-linecap="round" stroke-linejoin="round" stroke-opacity="0.2" stroke-width="1.0"/>
    <path d="M-19.4 3.75 L-20.05 3.75 M-3.95 4.7 L-10.2 3.95 Q-14.3 3.55 -19.4 3.75" fill="none" stroke="#000000" stroke-linecap="round" stroke-linejoin="miter-clip" stroke-miterlimit="3.0" stroke-width="1.0"/>
    <path d="M11.75 5.85 L13.3 3.8 Q14.55 2.35 15.0 0.45 L15.55 -2.0 15.6 -2.3" fill="none" stroke="#000000" stroke-linecap="round" stroke-linejoin="round" stroke-opacity="0.4" stroke-width="1.0"/>
    <path d="M0.1 3.8 Q1.75 3.1 3.5 1.9 5.45 0.35 7.75 -3.35 L8.2 -4.05 Q10.35 -7.3 12.95 -9.25 15.4 -11.15 17.05 -10.85 19.9 -10.35 20.0 -5.2 20.2 -0.15 19.55 1.85 L19.45 2.15 19.35 2.3 19.15 2.7 17.5 4.15 16.15 4.7 11.75 5.85 M0.1 3.8 L-1.6 4.25 -3.95 4.7" fill="none" stroke="#000000" stroke-linecap="round" stroke-linejoin="round" stroke-opacity="0.4" stroke-width="1.0"/>
    <path d="M17.5 4.15 L11.5 8.0 Q8.25 9.65 0.45 9.15 -7.4 8.6 -10.95 7.6 -14.55 6.6 -15.4 6.05 L-19.4 3.75" fill="none" stroke="#000000" stroke-linecap="round" stroke-linejoin="round" stroke-opacity="0.2" stroke-width="1.0"/>
    <path d="M11.75 5.85 L5.4 5.9 5.2 5.9 1.3 5.6 -3.95 4.7" fill="none" stroke="#000000" stroke-linecap="round" stroke-linejoin="round" stroke-width="1.0"/>
    <path d="M-19.4 3.75 L-19.85 3.55" fill="none" stroke="#000000" stroke-linecap="round" stroke-linejoin="round" stroke-opacity="0.2" stroke-width="1.0"/>
  </g>
</svg>
