<?xml version="1.0" encoding="UTF-8" standalone="no"?>
<svg xmlns:xlink="http://www.w3.org/1999/xlink" height="10.45px" width="39.4px" xmlns="http://www.w3.org/2000/svg">
  <g transform="matrix(1.0, 0.0, 0.0, 1.0, 19.7, 4.25)">
    <path d="M19.05 0.35 Q12.85 2.65 9.7 4.1 6.75 5.5 -0.5 5.55 -7.6 5.55 -11.0 3.9 -13.55 2.55 -19.05 0.35 -8.4 -5.6 -0.2 -2.4 3.4 -4.2 8.35 -3.6 13.65 -2.95 19.05 0.35" fill="#ffffff" fill-opacity="0.0" fill-rule="evenodd" stroke="none"/>
    <path d="M19.05 0.35 Q12.85 2.65 9.7 4.1 6.75 5.5 -0.5 5.55 -7.6 5.55 -11.0 3.9 -13.55 2.55 -19.05 0.35" fill="none" stroke="#000000" stroke-linecap="square" stroke-linejoin="round" stroke-opacity="0.2" stroke-width="1.0"/>
    <path d="M-19.05 0.35 Q-8.4 -5.6 -0.2 -2.4 3.4 -4.2 8.35 -3.6 13.65 -2.95 19.05 0.35 Z" fill="none" stroke="#000000" stroke-linecap="round" stroke-linejoin="round" stroke-opacity="0.2" stroke-width="1.0"/>
    <path d="M19.05 0.35 Q16.85 -0.6 14.35 -0.7 11.85 -0.9 9.45 0.1 7.95 0.8 5.65 0.8 3.35 0.8 2.55 0.1 1.25 -0.9 -1.15 -0.8 L-3.85 -0.2 Q-4.25 0.0 -4.65 0.3 L-7.25 0.8 Q-9.75 0.9 -10.95 -0.1 -11.85 -0.8 -14.05 -0.8 -16.25 -0.8 -17.95 -0.1 L-19.05 0.35" fill="none" stroke="#000000" stroke-linecap="round" stroke-linejoin="miter-clip" stroke-miterlimit="3.0" stroke-width="1.0"/>
  </g>
</svg>
