<?xml version="1.0" encoding="UTF-8" standalone="no"?>
<svg xmlns:xlink="http://www.w3.org/1999/xlink" height="30.85px" width="34.3px" xmlns="http://www.w3.org/2000/svg">
  <g transform="matrix(1.0, 0.0, 0.0, 1.0, 17.5, 17.45)">
    <path d="M-11.65 -14.05 Q-9.45 -15.6 -6.75 -14.95 L-6.4 -14.85 -4.1 -14.3 -0.25 -13.8 0.05 -13.8 6.9 -14.45 Q9.55 -14.75 11.6 -13.5 12.3 -12.95 13.6 -10.8 -0.35 -8.45 -13.85 -10.65 -12.7 -13.3 -11.65 -14.05 M11.4 4.55 L11.0 5.0 Q9.45 6.9 6.6 7.65 L-1.1 8.4 Q-4.7 8.4 -7.25 7.2 -9.05 6.4 -11.05 4.55 0.0 6.05 11.4 4.55" fill="#ffffff" fill-rule="evenodd" stroke="none"/>
    <path d="M12.7 2.8 L12.15 3.6 11.9 3.9 12.7 2.8" fill="#000000" fill-opacity="0.69803923" fill-rule="evenodd" stroke="none"/>
    <path d="M-16.45 -2.15 L-16.95 -5.2 Q-17.1 -6.85 -16.7 -8.0 -15.3 -12.0 -13.4 -14.0 -11.55 -15.95 -8.8 -16.45 -4.15 -17.3 -0.5 -15.6 3.4 -17.7 8.05 -16.5 10.6 -15.85 11.8 -15.1 12.8 -14.45 13.6 -13.1 16.35 -8.4 16.15 -3.9 15.95 1.25 15.3 4.05 L14.6 6.05 13.8 7.55 Q12.95 9.3 9.5 11.2 6.75 12.65 -1.25 12.75 -4.6 12.8 -7.2 11.85 -9.25 11.1 -11.3 9.55 -13.85 7.6 -15.0 3.9 L-16.45 -2.15 M11.6 -13.5 Q9.55 -14.75 6.9 -14.45 L0.05 -13.8 -0.25 -13.8 -4.1 -14.3 -6.4 -14.85 -6.75 -14.95 Q-9.45 -15.6 -11.65 -14.05 -12.7 -13.3 -13.85 -10.65 L-14.45 -9.2 -14.6 -8.75 -15.35 -6.15 -15.65 -3.65 Q-15.7 -2.5 -14.8 -0.3 -14.05 1.45 -12.15 3.45 L-11.2 4.4 -11.05 4.55 Q-9.05 6.4 -7.25 7.2 -4.7 8.4 -1.1 8.4 L6.6 7.65 Q9.45 6.9 11.0 5.0 L11.4 4.55 11.6 4.3 11.9 3.9 12.15 3.6 12.7 2.8 14.65 -0.2 14.7 -0.3 14.8 -0.5 Q15.75 -2.6 15.5 -4.4 L14.65 -8.15 13.65 -10.7 13.6 -10.8 Q12.3 -12.95 11.6 -13.5" fill="#ffffff" fill-opacity="0.0" fill-rule="evenodd" stroke="none"/>
    <path d="M13.6 -10.8 L13.65 -10.7 14.65 -8.15 15.5 -4.4 Q15.75 -2.6 14.8 -0.5 L14.7 -0.3 14.65 -0.2 12.7 2.8 11.9 3.9 11.6 4.3 11.4 4.55 Q0.0 6.05 -11.05 4.55 L-11.2 4.4 -12.15 3.45 Q-14.05 1.45 -14.8 -0.3 -15.7 -2.5 -15.65 -3.65 L-15.35 -6.15 -14.6 -8.75 -14.45 -9.2 -13.85 -10.65 Q-0.35 -8.45 13.6 -10.8 M-5.45 1.15 Q-8.6 2.6 -6.95 4.95 0.75 5.5 7.5 4.95 8.75 3.0 6.4 1.7 4.1 0.4 0.9 0.05 -2.3 -0.25 -5.45 1.15" fill="#000000" fill-opacity="0.8" fill-rule="evenodd" stroke="none"/>
    <path d="M-5.45 1.15 Q-2.3 -0.25 0.9 0.05 4.1 0.4 6.4 1.7 8.75 3.0 7.5 4.95 0.75 5.5 -6.95 4.95 -8.6 2.6 -5.45 1.15" fill="#760000" fill-rule="evenodd" stroke="none"/>
    <path d="M13.6 -10.8 Q-0.35 -8.45 -13.85 -10.65 M11.4 4.55 Q0.0 6.05 -11.05 4.55" fill="none" stroke="#ffffff" stroke-linecap="round" stroke-linejoin="round" stroke-width="1.0"/>
    <path d="M-16.45 -2.15 L-16.95 -5.2 Q-17.1 -6.85 -16.7 -8.0 -15.3 -12.0 -13.4 -14.0 -11.55 -15.95 -8.8 -16.45 -4.15 -17.3 -0.5 -15.6 3.4 -17.7 8.05 -16.5 10.6 -15.85 11.8 -15.1 12.8 -14.45 13.6 -13.1 16.35 -8.4 16.15 -3.9" fill="none" stroke="#000000" stroke-linecap="round" stroke-linejoin="round" stroke-opacity="0.2" stroke-width="1.0"/>
    <path d="M13.6 -10.8 L13.65 -10.7 14.65 -8.15 15.5 -4.4 Q15.75 -2.6 14.8 -0.5 L14.7 -0.3 14.65 -0.2 12.7 2.8 11.9 3.9 11.6 4.3 11.4 4.55 11.0 5.0 Q9.45 6.9 6.6 7.65 L-1.1 8.4 Q-4.7 8.4 -7.25 7.2 -9.05 6.4 -11.05 4.55 L-11.2 4.4 -12.15 3.45 Q-14.05 1.45 -14.8 -0.3 -15.7 -2.5 -15.65 -3.65 L-15.35 -6.15 -14.6 -8.75 -14.45 -9.2 -13.85 -10.65" fill="none" stroke="#000000" stroke-linecap="round" stroke-linejoin="miter-clip" stroke-miterlimit="3.0" stroke-width="1.0"/>
    <path d="M16.15 -3.9 Q15.95 1.25 15.3 4.05 L14.6 6.05 13.8 7.55 Q12.95 9.3 9.5 11.2 6.75 12.65 -1.25 12.75 -4.6 12.8 -7.2 11.85 -9.25 11.1 -11.3 9.55 -13.85 7.6 -15.0 3.9 L-16.45 -2.15" fill="none" stroke="#000000" stroke-linecap="square" stroke-linejoin="round" stroke-opacity="0.2" stroke-width="1.0"/>
    <path d="M-11.65 -14.05 Q-9.45 -15.6 -6.75 -14.95 L-6.4 -14.85 -4.1 -14.3 -0.25 -13.8 0.05 -13.8 6.9 -14.45 Q9.55 -14.75 11.6 -13.5" fill="none" stroke="#000000" stroke-linecap="round" stroke-linejoin="round" stroke-opacity="0.4" stroke-width="1.0"/>
    <path d="M11.6 -13.5 Q12.3 -12.95 13.6 -10.8 M-13.85 -10.65 Q-12.7 -13.3 -11.65 -14.05" fill="none" stroke="#000000" stroke-linecap="round" stroke-linejoin="miter-clip" stroke-miterlimit="3.0" stroke-opacity="0.4" stroke-width="1.0"/>
  </g>
</svg>
