<?xml version="1.0" encoding="UTF-8" standalone="no"?>
<svg xmlns:xlink="http://www.w3.org/1999/xlink" height="8.85px" width="36.5px" xmlns="http://www.w3.org/2000/svg">
  <g transform="matrix(1.0, 0.0, 0.0, 1.0, 18.25, 4.25)">
    <path d="M17.6 2.75 Q14.3 0.2 12.6 -0.3 L0.2 -1.25 0.15 -1.25 -0.15 -1.25 -12.05 -0.5 Q-13.45 -0.1 -17.6 2.75 -13.45 -0.1 -12.05 -0.5 L-0.15 -1.25 0.15 -1.25 0.2 -1.25 12.6 -0.3 Q14.3 0.2 17.6 2.75 L14.9 2.55 11.55 3.05 Q9.1 3.85 4.85 3.95 L-2.6 3.9 -11.35 3.1 -17.6 2.75 Q-15.45 -1.65 -9.55 -3.1 -4.2 -4.45 -0.2 -2.7 3.25 -4.6 9.35 -3.1 15.9 -1.5 17.6 2.75" fill="#ffffff" fill-opacity="0.0" fill-rule="evenodd" stroke="none"/>
    <path d="M-17.6 2.75 Q-13.45 -0.1 -12.05 -0.5 L-0.15 -1.25 0.15 -1.25 0.2 -1.25 12.6 -0.3 Q14.3 0.2 17.6 2.75" fill="none" stroke="#000000" stroke-linecap="round" stroke-linejoin="miter-clip" stroke-miterlimit="3.0" stroke-width="1.0"/>
    <path d="M17.6 2.75 Q15.9 -1.5 9.35 -3.1 3.25 -4.6 -0.2 -2.7 -4.2 -4.45 -9.55 -3.1 -15.45 -1.65 -17.6 2.75" fill="none" stroke="#000000" stroke-linecap="round" stroke-linejoin="round" stroke-opacity="0.2" stroke-width="1.0"/>
    <path d="M-17.6 2.75 L-11.35 3.1 -2.6 3.9 4.85 3.95 Q9.1 3.85 11.55 3.05 L14.9 2.55 17.6 2.75" fill="none" stroke="#000000" stroke-linecap="round" stroke-linejoin="round" stroke-opacity="0.2" stroke-width="1.0"/>
  </g>
</svg>
