<?xml version="1.0" encoding="UTF-8" standalone="no"?>
<svg xmlns:xlink="http://www.w3.org/1999/xlink" height="34.55px" width="74.4px" xmlns="http://www.w3.org/2000/svg">
  <g transform="matrix(1.0, 0.0, 0.0, 1.0, 48.75, 28.6)">
    <path d="M-12.85 -13.65 L-13.5 -3.1 -13.75 0.2 0.65 -0.6 10.65 0.05 -6.95 3.25 -10.35 3.85 -32.95 0.75 -33.95 -3.35 Q-35.05 -8.35 -41.65 -9.95 -39.25 -9.95 -34.35 -12.15 L-30.35 -13.65 Q-27.25 -14.65 -24.05 -14.75 L-12.85 -13.65 M13.4 -0.5 L13.35 -1.5 12.8 -9.45 Q19.05 -9.15 21.35 -8.15 24.25 -6.85 25.15 -3.15 L21.15 -2.15 20.45 -1.95 13.4 -0.5" fill="#000000" fill-opacity="0.8" fill-rule="evenodd" stroke="none"/>
    <path d="M1.15 -10.95 L0.7 -1.6 1.15 -10.95 11.15 -9.55 12.8 -9.45 13.35 -1.5 13.4 -0.5 10.65 0.05 0.65 -0.6 -13.75 0.2 -13.5 -3.1 -12.85 -13.65 -6.45 -12.45 1.15 -10.95 M-32.95 0.75 L-10.35 3.85 Q-27.95 6.75 -30.85 4.45 -32.05 3.55 -32.95 0.75" fill="#ffffff" fill-rule="evenodd" stroke="none"/>
    <path d="M10.65 0.05 L13.4 -0.5 20.45 -1.95 21.15 -2.15 25.15 -3.15 M-30.35 -13.65 L-34.35 -12.15 Q-39.25 -9.95 -41.65 -9.95 -35.05 -8.35 -33.95 -3.35 L-32.95 0.75 Q-32.05 3.55 -30.85 4.45 -27.95 6.75 -10.35 3.85 L-6.95 3.25 10.65 0.05" fill="none" stroke="#000000" stroke-linecap="round" stroke-linejoin="round" stroke-width="1.0"/>
    <path d="M1.15 -10.95 L-6.45 -12.45 -12.85 -13.65 -24.05 -14.75 Q-27.25 -14.65 -30.35 -13.65 M12.8 -9.45 L11.15 -9.55 1.15 -10.95 M25.15 -3.15 Q24.25 -6.85 21.35 -8.15 19.05 -9.15 12.8 -9.45" fill="none" stroke="#000000" stroke-linecap="round" stroke-linejoin="round" stroke-opacity="0.4" stroke-width="1.0"/>
    <path d="M0.7 -1.6 L1.15 -10.95" fill="none" stroke="#000000" stroke-linecap="square" stroke-linejoin="round" stroke-opacity="0.4" stroke-width="1.0"/>
    <path d="M13.4 -0.5 L13.35 -1.5 12.8 -9.45" fill="none" stroke="#000000" stroke-linecap="square" stroke-linejoin="round" stroke-opacity="0.4" stroke-width="1.0"/>
    <path d="M-36.75 -27.95 Q-49.85 -15.75 -47.85 -8.35" fill="none" stroke="#000000" stroke-linecap="square" stroke-linejoin="round" stroke-opacity="0.4" stroke-width="1.0"/>
  </g>
</svg>
