<?xml version="1.0" encoding="UTF-8" standalone="no"?>
<svg xmlns:xlink="http://www.w3.org/1999/xlink" height="15.0px" width="29.6px" xmlns="http://www.w3.org/2000/svg">
  <g transform="matrix(1.0, 0.0, 0.0, 1.0, 14.8, 6.3)">
    <path d="M-6.55 -5.65 L0.25 -5.65 6.25 -5.65 6.65 0.3 5.9 0.35 1.25 0.55 0.25 0.55 -0.6 0.55 -6.35 0.4 -6.95 0.35 -6.55 -5.65 M0.25 0.55 L1.25 0.55 0.25 0.55 -0.6 0.55 0.25 0.55 0.25 -5.65 0.25 0.55" fill="#ffffff" fill-rule="evenodd" stroke="none"/>
    <path d="M6.25 -5.65 L7.25 -5.65 Q9.75 -5.55 10.4 -5.05 12.05 -3.75 13.2 -2.15 L14.15 -0.4 14.3 0.2 Q14.4 1.25 13.15 3.0 11.75 4.85 10.3 5.0 8.55 5.2 5.55 4.25 2.2 3.15 0.1 3.15 -2.2 3.15 -5.55 4.25 -8.55 5.2 -10.3 5.0 -11.75 4.85 -13.15 3.0 -14.4 1.25 -14.3 0.2 L-14.15 -0.3 -13.2 -2.15 Q-12.05 -3.75 -10.4 -5.05 -9.75 -5.55 -7.25 -5.65 L-6.55 -5.65 -6.95 0.35 -6.35 0.4 -0.6 0.55 0.25 0.55 1.25 0.55 5.9 0.35 6.65 0.3 6.25 -5.65" fill="#000000" fill-rule="evenodd" stroke="none"/>
    <path d="M14.15 -0.4 L14.3 0.2 Q14.4 1.25 13.15 3.0 11.75 4.85 10.3 5.0 8.55 5.2 5.55 4.25 2.2 3.15 0.1 3.15 -2.2 3.15 -5.55 4.25 -8.55 5.2 -10.3 5.0 -11.75 4.85 -13.15 3.0 -14.4 1.25 -14.3 0.2 L-14.15 -0.3 M6.65 0.3 L5.9 0.35 M-6.35 0.4 L-6.95 0.35 M1.25 0.55 L0.25 0.55 -0.6 0.55" fill="none" stroke="#000000" stroke-linecap="round" stroke-linejoin="round" stroke-width="1.0"/>
    <path d="M1.25 0.55 L0.25 0.55 -0.6 0.55 M-5.9 8.05 Q-0.1 6.55 6.85 8.05 M0.25 -5.65 L0.25 0.55" fill="none" stroke="#000000" stroke-linecap="square" stroke-linejoin="round" stroke-opacity="0.4" stroke-width="1.0"/>
    <path d="M6.25 -5.65 L7.25 -5.65 Q9.75 -5.55 10.4 -5.05 12.05 -3.75 13.2 -2.15 L14.15 -0.4 M-14.15 -0.3 L-13.2 -2.15 Q-12.05 -3.75 -10.4 -5.05 -9.75 -5.55 -7.25 -5.65 L-6.55 -5.65 0.25 -5.65 6.25 -5.65" fill="none" stroke="#000000" stroke-linecap="round" stroke-linejoin="round" stroke-opacity="0.4" stroke-width="1.0"/>
  </g>
</svg>
