<?xml version="1.0" encoding="UTF-8" standalone="no"?>
<svg xmlns:xlink="http://www.w3.org/1999/xlink" height="20.85px" width="20.65px" xmlns="http://www.w3.org/2000/svg">
  <g transform="matrix(1.0, 0.0, 0.0, 1.0, 10.25, 7.8)">
    <path d="M0.65 -1.15 L0.6 -1.15 -6.6 -0.75 -6.4 -3.5 -6.6 -3.55 -6.35 -3.95 -5.65 -5.1 Q-4.6 -6.6 -0.5 -7.05 L1.05 -7.15 0.65 -1.15 1.05 -7.15 Q3.95 -7.2 5.45 -6.0 L6.75 -4.7 7.0 -4.35 7.0 -0.75 0.65 -1.15" fill="#ffffff" fill-rule="evenodd" stroke="none"/>
    <path d="M0.65 -1.15 L0.6 -0.85 0.65 -1.15 7.0 -0.75 7.0 -4.35 7.45 -3.65 8.45 -1.35 Q9.6 1.9 9.9 4.8 -0.7 2.85 -9.7 4.8 -10.05 3.4 -8.4 -0.1 L-6.6 -3.55 -6.4 -3.5 -6.6 -0.75 0.6 -1.15 0.65 -1.15" fill="#000000" fill-rule="evenodd" stroke="none"/>
    <path d="M-9.7 4.8 Q-0.7 2.85 9.9 4.8 8.65 5.75 5.5 7.2 2.35 8.6 -0.85 8.3 -4.05 7.95 -6.35 6.65 L-9.7 4.8" fill="#760000" fill-rule="evenodd" stroke="none"/>
    <path d="M-6.6 -3.55 L-8.4 -0.1 Q-10.05 3.4 -9.7 4.8 L-6.35 6.65 Q-4.05 7.95 -0.85 8.3 2.35 8.6 5.5 7.2 8.65 5.75 9.9 4.8 9.6 1.9 8.45 -1.35 L7.45 -3.65" fill="none" stroke="#000000" stroke-linecap="round" stroke-linejoin="miter-clip" stroke-miterlimit="3.0" stroke-width="1.0"/>
    <path d="M0.6 -0.85 L0.65 -1.15 1.05 -7.15 M-6.2 10.95 Q-0.25 13.65 6.6 11.35" fill="none" stroke="#000000" stroke-linecap="square" stroke-linejoin="round" stroke-opacity="0.4" stroke-width="1.0"/>
    <path d="M7.45 -3.65 L7.0 -4.35 6.75 -4.7 5.45 -6.0 Q3.95 -7.2 1.05 -7.15 L-0.5 -7.05 Q-4.6 -6.6 -5.65 -5.1 L-6.35 -3.95 -6.6 -3.55 Z" fill="none" stroke="#000000" stroke-linecap="round" stroke-linejoin="miter-clip" stroke-miterlimit="3.0" stroke-opacity="0.4" stroke-width="1.0"/>
  </g>
</svg>
