<?xml version="1.0" encoding="UTF-8" standalone="no"?>
<svg xmlns:xlink="http://www.w3.org/1999/xlink" height="31.85px" width="21.6px" xmlns="http://www.w3.org/2000/svg">
  <g transform="matrix(1.0, 0.0, 0.0, 1.0, 12.5, 11.6)">
    <path d="M4.2 -5.6 L6.25 -0.85 6.3 -0.7 6.35 -0.65 6.35 -0.55 Q7.2 1.6 8.05 8.4 9.05 15.7 8.2 16.2 5.85 18.0 5.15 18.15 L2.95 19.3 0.3 19.45 0.25 19.4 Q-0.55 18.65 -0.5 15.4 L-0.5 12.1 -2.5 12.75 -6.5 12.5 -9.25 10.5 Q-11.95 7.85 -12.0 5.2 L-11.3 -0.2 Q-10.55 -5.65 -9.55 -7.15 L-7.45 -9.1 Q-4.9 -11.1 -2.45 -11.05 L-1.0 -10.85 Q0.1 -10.6 1.8 -9.25 2.75 -8.8 4.2 -5.6" fill="#ffffff" fill-opacity="0.0" fill-rule="evenodd" stroke="none"/>
    <path d="M4.2 -5.6 L6.25 -0.85 6.3 -0.7 6.35 -0.65 6.35 -0.55 Q7.2 1.6 8.05 8.4 9.05 15.7 8.2 16.2 5.85 18.0 5.15 18.15 L2.95 19.3 0.3 19.45 0.25 19.4 Q-0.55 18.65 -0.5 15.4 L-0.5 12.1 -2.5 12.75 -6.5 12.5 -9.25 10.5 Q-11.95 7.85 -12.0 5.2 L-11.3 -0.2 Q-10.55 -5.65 -9.55 -7.15 L-7.45 -9.1 Q-4.9 -11.1 -2.45 -11.05 L-1.0 -10.85 Q0.1 -10.6 1.8 -9.25 2.75 -8.8 4.2 -5.6 Z" fill="none" stroke="#000000" stroke-linecap="round" stroke-linejoin="round" stroke-width="1.0"/>
  </g>
</svg>
