<?xml version="1.0" encoding="UTF-8" standalone="no"?>
<svg xmlns:xlink="http://www.w3.org/1999/xlink" height="144.85px" width="134.55px" xmlns="http://www.w3.org/2000/svg">
  <g transform="matrix(1.0, 0.0, 0.0, 1.0, 67.65, 72.95)">
    <path d="M-55.0 -31.1 Q-55.5 -35.5 -55.25 -39.95 -54.75 -49.1 -51.0 -49.1 -47.25 -49.1 -45.55 -46.95 -44.75 -45.85 -44.65 -44.8 -44.75 -49.7 -44.05 -54.45 -42.6 -63.95 -38.65 -63.1 -34.7 -62.3 -32.45 -57.6 -31.3 -55.25 -31.0 -53.1 -30.5 -57.7 -28.85 -62.05 -25.6 -70.85 -20.0 -69.8 -14.35 -68.75 -12.75 -60.65 -11.95 -56.6 -12.3 -52.8 -11.55 -58.05 -9.6 -62.95 -5.7 -72.8 0.35 -71.1 6.4 -69.45 9.65 -60.3 11.3 -55.7 11.7 -51.45 13.85 -56.35 16.95 -60.25 23.1 -68.0 27.7 -62.8 32.25 -57.6 32.1 -47.8 32.0 -42.95 31.0 -39.1 33.1 -43.0 35.95 -46.0 41.6 -51.9 45.35 -47.1 49.1 -42.3 47.3 -34.4 46.35 -30.45 44.7 -27.45 L46.6 -28.35 50.9 -29.5 Q57.3 -30.35 58.35 -24.1 59.4 -17.85 56.8 -12.35 55.5 -9.6 54.0 -8.1 L56.05 -8.25 60.55 -7.95 Q67.0 -6.6 66.35 -0.8 65.75 5.05 61.15 10.05 58.85 12.55 56.7 13.9 L61.6 15.5 Q66.25 17.8 65.0 21.55 63.75 25.3 58.75 28.3 56.25 29.8 54.0 30.55 L57.65 33.15 Q61.0 36.6 59.35 40.55 57.7 44.5 52.7 45.75 L48.0 46.2 51.25 50.4 Q53.6 55.2 49.0 57.9 44.45 60.6 40.25 60.15 L37.0 59.2 37.0 63.25 Q36.0 67.35 31.0 67.55 26.0 67.75 22.7 66.0 L20.35 64.2 20.9 68.35 Q20.65 72.25 16.7 71.2 12.75 70.15 9.65 67.75 L7.35 65.55 7.9 68.0 Q8.0 70.25 5.7 69.2 3.4 68.15 -1.7 63.45 L-6.3 58.9 -14.45 49.0 Q-13.0 50.0 -11.2 50.5 -10.0 50.8 -9.45 50.2 L-8.0 51.65 Q-4.45 54.9 -2.85 55.6 L-2.55 55.75 -2.85 55.6 Q-4.45 54.9 -8.0 51.65 L-9.45 50.2 Q-10.0 50.8 -11.2 50.5 -13.0 50.0 -14.45 49.0 L-14.6 48.9 -15.7 47.85 -15.4 49.0 Q-15.35 50.05 -16.5 49.55 -17.6 49.1 -20.05 46.85 L-22.3 44.7 -48.65 13.35 Q-49.1 13.35 -50.35 9.7 -51.6 6.0 -51.05 5.15 L-50.8 4.95 -61.0 -7.45 Q-61.95 -7.45 -64.5 -15.1 -67.1 -23.0 -66.0 -24.8 -64.95 -26.45 -62.35 -22.6 -61.05 -20.7 -60.0 -18.45 -60.55 -23.1 -60.7 -27.5 -60.95 -36.35 -58.65 -35.1 -56.35 -33.85 -55.45 -32.2 L-55.0 -31.1 -55.0 -30.8 -55.0 -31.1 M-2.55 55.75 L-2.0 56.25 Q2.45 60.3 4.5 61.2 6.5 62.1 6.45 60.15 L5.95 58.05 7.95 59.95 Q10.65 62.05 14.1 62.9 17.55 63.8 17.8 60.45 L17.3 56.9 19.35 58.45 Q22.3 59.95 26.65 59.75 31.05 59.6 31.9 56.1 L31.9 52.65 34.75 53.45 Q38.4 53.8 42.45 51.5 46.45 49.15 44.4 45.1 L41.55 41.5 45.65 41.1 Q50.05 40.0 51.5 36.6 52.95 33.25 50.0 30.3 L46.8 28.05 Q48.8 27.4 50.95 26.1 55.35 23.5 56.45 20.3 57.55 17.1 53.45 15.1 L49.15 13.75 Q51.05 12.6 53.05 10.45 57.05 6.2 57.6 1.15 58.15 -3.85 52.55 -4.95 L46.8 -5.1 Q48.1 -6.4 49.25 -8.75 51.5 -13.45 50.6 -18.85 49.7 -24.2 44.1 -23.5 L38.65 -21.7 Q40.1 -24.25 40.9 -27.65 42.5 -34.45 39.2 -38.55 35.9 -42.65 30.95 -37.6 28.5 -35.05 26.65 -31.7 27.55 -35.0 27.6 -39.15 27.75 -47.55 23.75 -52.0 19.7 -56.45 14.35 -49.85 11.65 -46.5 9.75 -42.3 9.4 -45.95 7.95 -49.85 5.1 -57.7 -0.2 -59.15 -5.5 -60.6 -8.9 -52.15 -10.65 -47.9 -11.3 -43.4 -11.0 -46.7 -11.7 -50.15 -13.05 -57.1 -18.0 -58.0 -22.95 -58.9 -25.8 -51.4 -27.2 -47.65 -27.65 -43.7 -27.95 -45.55 -28.9 -47.55 -30.9 -51.6 -34.35 -52.3 -37.8 -53.0 -39.05 -44.85 -39.65 -40.8 -39.6 -36.65 L-39.6 -36.55 -39.6 -36.8 -39.6 -36.85 Q-39.75 -37.65 -40.4 -38.4 -41.85 -40.3 -45.15 -40.3 -48.45 -40.3 -48.85 -32.4 -49.1 -28.65 -48.65 -24.85 L-49.05 -25.75 Q-49.85 -27.2 -51.85 -28.25 -53.85 -29.35 -53.65 -21.8 -53.55 -18.0 -53.05 -14.0 L-55.1 -17.55 Q-57.35 -20.85 -58.3 -19.4 -59.3 -17.85 -57.0 -11.1 -54.75 -4.55 -53.9 -4.55 L-51.65 -1.85 -51.6 -1.85 -51.95 -2.95 -52.8 -7.85 -52.65 -8.35 Q-51.95 -9.45 -50.15 -6.85 L-48.5 -4.05 -49.0 -10.2 Q-49.15 -16.2 -47.55 -15.35 -45.95 -14.5 -45.3 -13.35 L-45.0 -12.65 -45.2 -15.75 -45.2 -18.65 Q-44.85 -24.9 -42.25 -24.9 -39.6 -24.9 -38.45 -23.4 L-37.85 -22.15 -37.85 -21.95 Q-37.9 -25.3 -37.4 -28.5 -36.4 -34.95 -33.65 -34.4 -30.9 -33.85 -29.35 -30.65 -28.75 -29.45 -28.45 -28.3 L-28.9 -28.55 -30.25 -29.1 -30.35 -29.15 Q-32.75 -29.65 -33.6 -23.95 -34.05 -21.15 -34.0 -18.2 -34.05 -18.85 -34.55 -19.5 -35.55 -20.8 -37.85 -20.8 -40.15 -20.8 -40.45 -15.3 -40.6 -12.7 -40.3 -10.05 L-40.6 -10.7 Q-41.15 -11.7 -42.55 -12.45 -43.95 -13.15 -43.8 -7.9 L-43.7 -6.35 -43.85 -6.35 Q-44.65 -6.35 -45.15 -5.45 -44.65 -6.35 -43.85 -6.35 L-43.7 -6.35 Q-42.0 -6.3 -41.25 -5.3 -40.85 -4.8 -40.8 -4.3 -40.85 -6.6 -40.5 -8.85 -39.8 -13.35 -37.9 -12.95 -35.95 -12.55 -34.9 -10.35 -34.35 -9.25 -34.2 -8.25 -33.95 -10.4 -33.15 -12.45 -31.55 -16.6 -28.85 -16.1 -26.15 -15.65 -25.4 -11.8 L-25.25 -11.0 Q-25.05 -9.5 -25.15 -8.1 -24.8 -10.55 -23.85 -12.9 -22.0 -17.55 -19.05 -16.75 -16.15 -15.95 -14.6 -11.65 -13.8 -9.45 -13.6 -7.45 -12.55 -9.75 -11.05 -11.6 -8.05 -15.25 -5.85 -12.8 -3.65 -10.35 -3.75 -5.75 L-3.95 -2.85 -4.25 -1.65 -1.9 -4.9 Q0.85 -7.7 2.65 -5.4 4.45 -3.15 3.6 0.6 3.15 2.5 2.35 3.9 L5.35 2.9 Q7.45 2.6 8.4 3.95 L8.95 5.45 Q9.45 8.4 8.2 11.0 7.6 12.3 6.85 13.0 L10.0 13.1 Q13.1 13.75 12.8 16.5 L12.5 17.95 Q11.9 19.9 10.25 21.6 9.15 22.8 8.1 23.4 L10.5 24.15 Q12.1 24.95 12.25 26.05 L12.15 27.05 Q11.55 28.85 9.15 30.25 L6.85 31.3 8.6 32.55 Q10.2 34.15 9.4 36.0 8.6 37.9 6.2 38.5 L3.95 38.7 5.5 40.7 Q6.6 42.9 4.4 44.2 2.2 45.5 0.2 45.3 L-1.35 44.85 -1.35 46.75 Q-1.55 47.5 -2.0 47.95 L-0.95 48.95 Q0.95 50.4 3.35 51.0 5.75 51.65 5.9 49.3 L5.6 46.85 7.0 47.9 Q9.05 48.95 12.1 48.8 15.15 48.7 15.75 46.25 L15.75 43.85 17.7 44.45 Q20.25 44.7 23.05 43.05 25.85 41.45 24.4 38.6 L22.45 36.1 25.3 35.85 Q28.3 35.1 29.35 32.7 30.35 30.35 28.35 28.3 L26.1 26.75 Q27.45 26.3 29.0 25.4 32.0 23.6 32.8 21.35 33.55 19.15 30.7 17.75 L27.7 16.8 Q29.05 16.0 30.45 14.5 33.25 11.5 33.6 8.05 34.0 4.6 30.1 3.8 L26.1 3.7 Q27.0 2.8 27.8 1.15 29.4 -2.15 28.75 -5.85 28.1 -9.6 24.2 -9.1 L20.6 -7.9 20.4 -7.85 Q21.4 -9.65 21.95 -12.0 23.1 -16.7 20.8 -19.6 18.55 -22.4 15.25 -19.05 16.5 -21.1 18.15 -22.75 21.1 -25.75 23.3 -24.75 L24.7 -23.55 Q27.3 -20.25 26.0 -14.9 25.35 -12.2 24.2 -10.15 L28.5 -11.55 Q33.0 -12.15 33.7 -7.9 34.4 -3.65 32.65 0.1 31.75 2.0 30.7 3.0 L35.25 3.1 Q39.7 4.05 39.25 8.0 38.8 11.95 35.65 15.35 34.05 17.05 32.55 17.95 L35.95 19.05 Q39.2 20.6 38.35 23.15 37.5 25.7 34.0 27.75 32.25 28.8 30.7 29.3 L33.25 31.1 Q35.55 33.4 34.4 36.1 33.25 38.8 29.8 39.65 L26.55 39.95 28.8 42.8 Q30.4 46.05 27.2 47.9 24.05 49.75 21.15 49.45 L18.9 48.8 18.9 51.55 Q18.2 54.35 14.7 54.45 11.25 54.6 8.9 53.4 L7.3 52.2 7.7 55.0 Q7.5 57.65 4.75 56.95 2.0 56.25 -0.1 54.6 L-1.7 53.1 -1.35 54.8 Q-1.3 56.15 -2.55 55.75 M-45.0 -12.4 L-45.0 -12.65 -45.0 -12.4 M-51.65 -1.85 L-51.6 -1.75 Q-49.8 3.45 -49.2 3.45 L-48.5 4.25 -48.2 8.05 -48.5 4.25 -49.2 3.45 Q-49.8 3.45 -51.6 -1.75 L-51.65 -1.85 M-25.7 -23.15 Q-25.9 -24.45 -26.6 -25.85 -27.3 -27.3 -28.25 -28.1 -27.9 -30.95 -26.85 -33.7 -24.6 -39.65 -20.7 -38.95 -16.8 -38.25 -15.7 -32.75 L-15.35 -30.05 Q-16.5 -32.55 -18.8 -33.05 L-18.9 -33.05 -19.0 -33.1 Q-22.4 -33.7 -24.4 -28.5 -25.4 -25.9 -25.7 -23.15 M-45.9 -2.0 Q-45.75 -4.4 -45.15 -5.45 -46.45 -7.15 -47.0 -6.25 -47.65 -5.15 -46.05 -0.45 L-45.9 -0.05 -45.9 -2.0 M-11.8 -37.5 Q-9.55 -40.65 -6.6 -39.85 -2.4 -38.7 -0.1 -32.5 1.0 -29.4 1.3 -26.5 2.8 -29.85 4.95 -32.45 6.5 -34.35 7.9 -35.1 10.35 -36.45 12.4 -34.2 15.6 -30.65 15.45 -24.0 15.4 -21.05 14.85 -18.6 13.25 -16.95 12.1 -14.8 L12.35 -15.7 12.75 -20.0 Q12.85 -25.8 10.05 -28.95 7.25 -32.05 3.5 -27.4 1.65 -25.1 0.3 -22.15 0.05 -24.7 -0.95 -27.4 -2.9 -32.9 -6.6 -33.9 -10.3 -34.9 -12.65 -29.0 -13.75 -26.3 -14.2 -23.4 L-14.25 -24.0 -14.2 -23.4 -14.3 -22.95 -14.25 -24.0 -14.3 -25.45 -14.6 -27.65 -14.65 -27.85 -14.9 -28.95 -15.05 -29.3 -14.9 -28.95 -15.05 -29.3 -13.5 -34.3 Q-12.7 -36.25 -11.8 -37.5 M-39.6 -36.65 L-39.6 -36.8 -39.6 -36.65 M-2.2 48.15 L-2.0 47.95 -2.2 48.15 Q-2.95 48.75 -4.25 48.8 L-4.95 48.8 -3.35 49.8 Q-1.95 50.45 -2.0 49.1 L-2.2 48.15 M-9.45 50.2 L-9.15 49.15 -9.4 47.2 -8.25 48.05 Q-6.9 48.75 -4.95 48.8 -6.9 48.75 -8.25 48.05 L-9.4 47.2 -9.15 49.15 -9.45 50.2 M-48.25 8.0 L-49.3 6.2 Q-50.3 4.75 -50.8 4.95 -50.3 4.75 -49.3 6.2 L-48.25 8.0 -48.2 8.15 -48.2 8.05 -48.25 8.0 M-45.75 2.3 L-45.75 2.0 Q-46.0 1.05 -47.55 0.25 -48.65 -0.35 -48.55 3.85 L-48.5 4.25 -48.55 3.85 Q-48.65 -0.35 -47.55 0.25 -46.0 1.05 -45.75 2.0 L-45.9 -0.05 -45.75 2.0 -45.75 2.3" fill="#ffffff" fill-opacity="0.0" fill-rule="evenodd" stroke="none"/>
    <path d="M-39.6 -36.65 Q-39.65 -40.8 -39.05 -44.85 -37.8 -53.0 -34.35 -52.3 -30.9 -51.6 -28.9 -47.55 -27.95 -45.55 -27.65 -43.7 -27.2 -47.65 -25.8 -51.4 -22.95 -58.9 -18.0 -58.0 -13.05 -57.1 -11.7 -50.15 -11.0 -46.7 -11.3 -43.4 -10.65 -47.9 -8.9 -52.15 -5.5 -60.6 -0.2 -59.15 5.1 -57.7 7.95 -49.85 9.4 -45.95 9.75 -42.3 11.65 -46.5 14.35 -49.85 19.7 -56.45 23.75 -52.0 27.75 -47.55 27.6 -39.15 27.55 -35.0 26.65 -31.7 28.5 -35.05 30.95 -37.6 35.9 -42.65 39.2 -38.55 42.5 -34.45 40.9 -27.65 40.1 -24.25 38.65 -21.7 L44.1 -23.5 Q49.7 -24.2 50.6 -18.85 51.5 -13.45 49.25 -8.75 48.1 -6.4 46.8 -5.1 L52.55 -4.95 Q58.15 -3.85 57.6 1.15 57.05 6.2 53.05 10.45 51.05 12.6 49.15 13.75 L53.45 15.1 Q57.55 17.1 56.45 20.3 55.35 23.5 50.95 26.1 48.8 27.4 46.8 28.05 L50.0 30.3 Q52.95 33.25 51.5 36.6 50.05 40.0 45.65 41.1 L41.55 41.5 44.4 45.1 Q46.45 49.15 42.45 51.5 38.4 53.8 34.75 53.45 L31.9 52.65 31.9 56.1 Q31.05 59.6 26.65 59.75 22.3 59.95 19.35 58.45 L17.3 56.9 17.8 60.45 Q17.55 63.8 14.1 62.9 10.65 62.05 7.95 59.95 L5.95 58.05 6.45 60.15 Q6.5 62.1 4.5 61.2 2.45 60.3 -2.0 56.25 L-2.55 55.75 Q-1.3 56.15 -1.35 54.8 L-1.7 53.1 -0.1 54.6 Q2.0 56.25 4.75 56.95 7.5 57.65 7.7 55.0 L7.3 52.2 8.9 53.4 Q11.25 54.6 14.7 54.45 18.2 54.35 18.9 51.55 L18.9 48.8 21.15 49.45 Q24.05 49.75 27.2 47.9 30.4 46.05 28.8 42.8 L26.55 39.95 29.8 39.65 Q33.25 38.8 34.4 36.1 35.55 33.4 33.25 31.1 L30.7 29.3 Q32.25 28.8 34.0 27.75 37.5 25.7 38.35 23.15 39.2 20.6 35.95 19.05 L32.55 17.95 Q34.05 17.05 35.65 15.35 38.8 11.95 39.25 8.0 39.7 4.05 35.25 3.1 L30.7 3.0 Q31.75 2.0 32.65 0.1 34.4 -3.65 33.7 -7.9 33.0 -12.15 28.5 -11.55 L24.2 -10.15 Q25.35 -12.2 26.0 -14.9 27.3 -20.25 24.7 -23.55 L23.3 -24.75 Q21.1 -25.75 18.15 -22.75 16.5 -21.1 15.25 -19.05 L15.1 -18.9 14.85 -18.6 Q15.4 -21.05 15.45 -24.0 15.6 -30.65 12.4 -34.2 10.35 -36.45 7.9 -35.1 6.5 -34.35 4.95 -32.45 2.8 -29.85 1.3 -26.5 1.0 -29.4 -0.1 -32.5 -2.4 -38.7 -6.6 -39.85 -9.55 -40.65 -11.8 -37.5 L-11.3 -43.4 -11.8 -37.5 Q-12.7 -36.25 -13.5 -34.3 L-15.05 -29.3 -14.9 -28.95 -14.65 -27.85 -14.6 -27.65 -14.3 -25.45 -14.25 -24.0 -14.3 -22.95 -14.2 -23.4 Q-13.75 -26.3 -12.65 -29.0 -10.3 -34.9 -6.6 -33.9 -2.9 -32.9 -0.95 -27.4 0.05 -24.7 0.3 -22.15 1.65 -25.1 3.5 -27.4 7.25 -32.05 10.05 -28.95 12.85 -25.8 12.75 -20.0 L12.35 -15.7 12.1 -14.8 Q13.25 -16.95 14.85 -18.6 L15.1 -18.9 15.25 -19.05 Q18.55 -22.4 20.8 -19.6 23.1 -16.7 21.95 -12.0 21.4 -9.65 20.4 -7.85 L20.6 -7.9 24.2 -9.1 Q28.1 -9.6 28.75 -5.85 29.4 -2.15 27.8 1.15 27.0 2.8 26.1 3.7 L30.1 3.8 Q34.0 4.6 33.6 8.05 33.25 11.5 30.45 14.5 29.05 16.0 27.7 16.8 L30.7 17.75 Q33.55 19.15 32.8 21.35 32.0 23.6 29.0 25.4 27.45 26.3 26.1 26.75 L28.35 28.3 Q30.35 30.35 29.35 32.7 28.3 35.1 25.3 35.85 L22.45 36.1 24.4 38.6 Q25.85 41.45 23.05 43.05 20.25 44.7 17.7 44.45 L15.75 43.85 15.75 46.25 Q15.15 48.7 12.1 48.8 9.05 48.95 7.0 47.9 L5.6 46.85 5.9 49.3 Q5.75 51.65 3.35 51.0 0.95 50.4 -0.95 48.95 L-2.0 47.95 Q-1.55 47.5 -1.35 46.75 L-1.35 44.85 0.2 45.3 Q2.2 45.5 4.4 44.2 6.6 42.9 5.5 40.7 L3.95 38.7 6.2 38.5 Q8.6 37.9 9.4 36.0 10.2 34.15 8.6 32.55 L6.85 31.3 9.15 30.25 Q11.55 28.85 12.15 27.05 L12.25 26.05 Q12.1 24.95 10.5 24.15 L8.1 23.4 Q9.15 22.8 10.25 21.6 11.9 19.9 12.5 17.95 L12.8 16.5 Q13.1 13.75 10.0 13.1 L6.85 13.0 Q7.6 12.3 8.2 11.0 9.45 8.4 8.95 5.45 L8.4 3.95 Q7.45 2.6 5.35 2.9 L2.35 3.9 Q3.15 2.5 3.6 0.6 4.45 -3.15 2.65 -5.4 0.85 -7.7 -1.9 -4.9 L-4.25 -1.65 -3.95 -2.85 -3.75 -5.75 Q-3.65 -10.35 -5.85 -12.8 -8.05 -15.25 -11.05 -11.6 -12.55 -9.75 -13.6 -7.45 -13.8 -9.45 -14.6 -11.65 -16.15 -15.95 -19.05 -16.75 -22.0 -17.55 -23.85 -12.9 -24.8 -10.55 -25.15 -8.1 -25.05 -9.5 -25.25 -11.0 L-25.4 -11.8 Q-26.15 -15.65 -28.85 -16.1 -31.55 -16.6 -33.15 -12.45 -33.95 -10.4 -34.2 -8.25 -34.35 -9.25 -34.9 -10.35 -35.95 -12.55 -37.9 -12.95 -39.8 -13.35 -40.5 -8.85 -40.85 -6.6 -40.8 -4.3 -40.85 -4.8 -41.25 -5.3 -42.0 -6.3 -43.7 -6.35 L-43.8 -7.9 Q-43.95 -13.15 -42.55 -12.45 -41.15 -11.7 -40.6 -10.7 L-40.3 -10.05 Q-40.6 -12.7 -40.45 -15.3 -40.15 -20.8 -37.85 -20.8 -35.55 -20.8 -34.55 -19.5 -34.05 -18.85 -34.0 -18.2 -34.05 -21.15 -33.6 -23.95 -32.75 -29.65 -30.35 -29.15 L-30.25 -29.1 -28.9 -28.55 -28.45 -28.3 Q-28.75 -29.45 -29.35 -30.65 -30.9 -33.85 -33.65 -34.4 -36.4 -34.95 -37.4 -28.5 -37.9 -25.3 -37.85 -21.95 L-37.85 -22.15 -38.45 -23.4 Q-39.6 -24.9 -42.25 -24.9 -44.85 -24.9 -45.2 -18.65 L-45.2 -15.75 -48.65 -24.8 -48.65 -24.85 -48.65 -24.8 -45.2 -15.75 -45.0 -12.65 -45.3 -13.35 Q-45.95 -14.5 -47.55 -15.35 -49.15 -16.2 -49.0 -10.2 L-48.5 -4.05 -50.15 -6.85 Q-51.95 -9.45 -52.65 -8.35 L-52.8 -7.85 -51.95 -2.95 -51.6 -1.85 -51.65 -1.85 -53.9 -4.55 Q-54.75 -4.55 -57.0 -11.1 -59.3 -17.85 -58.3 -19.4 -57.35 -20.85 -55.1 -17.55 L-53.05 -14.0 Q-53.55 -18.0 -53.65 -21.8 -53.85 -29.35 -51.85 -28.25 -49.85 -27.2 -49.05 -25.75 L-48.65 -24.85 Q-49.1 -28.65 -48.85 -32.4 -48.45 -40.3 -45.15 -40.3 -41.85 -40.3 -40.4 -38.4 -39.75 -37.65 -39.6 -36.85 L-39.6 -36.8 -39.6 -36.55 -39.6 -36.65 -37.85 -22.15 -39.6 -36.65 M-51.95 -2.95 L-51.65 -1.85 -51.95 -2.95 M-25.7 -23.15 L-25.25 -11.0 -25.7 -23.15 Q-25.4 -25.9 -24.4 -28.5 -22.4 -33.7 -19.0 -33.1 L-18.9 -33.05 -18.8 -33.05 Q-16.5 -32.55 -15.35 -30.05 L-15.7 -32.75 Q-16.8 -38.25 -20.7 -38.95 -24.6 -39.65 -26.85 -33.7 -27.9 -30.95 -28.25 -28.1 -27.3 -27.3 -26.6 -25.85 -25.9 -24.45 -25.7 -23.15 M-28.9 -28.55 L-28.35 -28.15 -28.25 -28.1 -28.35 -28.15 -28.9 -28.55 M-45.9 -2.0 L-45.9 -0.05 -46.05 -0.45 Q-47.65 -5.15 -47.0 -6.25 -46.45 -7.15 -45.15 -5.45 -45.75 -4.4 -45.9 -2.0 M9.75 -42.3 L7.9 -35.1 9.75 -42.3 M-15.35 -30.05 L-15.05 -29.3 -15.35 -30.05 M-28.35 -28.15 L-27.65 -43.7 -28.35 -28.15 M-14.2 -23.4 L-13.6 -7.45 -14.2 -23.4 M0.3 -22.15 L-3.95 -2.85 0.3 -22.15 M12.35 -15.7 L8.8 -7.95 Q4.75 0.55 2.35 3.9 4.75 0.55 8.8 -7.95 L12.35 -15.7 M26.65 -31.7 L23.3 -24.75 26.65 -31.7 M46.8 -5.1 L30.7 3.0 46.8 -5.1 M-2.2 48.15 L-2.0 49.1 Q-1.95 50.45 -3.35 49.8 L-4.95 48.8 -4.25 48.8 Q-2.95 48.75 -2.2 48.15 M25.35 -10.8 L38.65 -21.7 25.35 -10.8 M49.15 13.75 L32.55 17.95 49.15 13.75 M46.8 28.05 L30.7 29.3 46.8 28.05 M20.6 -7.9 L8.4 3.95 20.6 -7.9 M26.1 3.7 L6.85 13.0 26.1 3.7 M27.7 16.8 L12.5 17.95 27.7 16.8 M26.1 26.75 L12.25 26.05 26.1 26.75 M22.45 36.1 L6.85 31.3 22.45 36.1 M15.75 43.85 L3.95 38.7 15.75 43.85 M41.55 41.5 L26.55 39.95 41.55 41.5 M31.9 52.65 L27.2 47.9 31.9 52.65" fill="#000000" fill-opacity="0.2" fill-rule="evenodd" stroke="none"/>
    <path d="M-51.65 -1.85 L-51.6 -1.85 M-48.2 8.05 L-48.5 4.25 -49.2 3.45 Q-49.8 3.45 -51.6 -1.75 L-51.65 -1.85 M-43.7 -6.35 L-43.8 -7.9 Q-43.95 -13.15 -42.55 -12.45 -41.15 -11.7 -40.6 -10.7 L-40.3 -10.05 Q-40.6 -12.7 -40.45 -15.3 -40.15 -20.8 -37.85 -20.8 -35.55 -20.8 -34.55 -19.5 -34.05 -18.85 -34.0 -18.2 -34.05 -21.15 -33.6 -23.95 -32.75 -29.65 -30.35 -29.15 L-30.25 -29.1 -28.9 -28.55 -28.35 -28.15 -28.25 -28.1 Q-27.3 -27.3 -26.6 -25.85 -25.9 -24.45 -25.7 -23.15 -25.4 -25.9 -24.4 -28.5 -22.4 -33.7 -19.0 -33.1 L-18.9 -33.05 -18.8 -33.05 Q-16.5 -32.55 -15.35 -30.05 L-15.7 -32.75 Q-16.8 -38.25 -20.7 -38.95 -24.6 -39.65 -26.85 -33.7 -27.9 -30.95 -28.25 -28.1 M-28.45 -28.3 Q-28.75 -29.45 -29.35 -30.65 -30.9 -33.85 -33.65 -34.4 -36.4 -34.95 -37.4 -28.5 -37.9 -25.3 -37.85 -21.95 L-37.85 -22.15 M-45.15 -5.45 Q-44.65 -6.35 -43.85 -6.35 L-43.7 -6.35 Q-42.0 -6.3 -41.25 -5.3 -40.85 -4.8 -40.8 -4.3 -40.85 -6.6 -40.5 -8.85 -39.8 -13.35 -37.9 -12.95 -35.95 -12.55 -34.9 -10.35 -34.35 -9.25 -34.2 -8.25 -33.95 -10.4 -33.15 -12.45 -31.55 -16.6 -28.85 -16.1 -26.15 -15.65 -25.4 -11.8 L-25.25 -11.0 -25.7 -23.15 M-45.9 -2.0 Q-45.75 -4.4 -45.15 -5.45 -46.45 -7.15 -47.0 -6.25 -47.65 -5.15 -46.05 -0.45 L-45.9 -0.05 -45.9 -2.0 M-11.3 -43.4 L-11.8 -37.5 Q-9.55 -40.65 -6.6 -39.85 -2.4 -38.7 -0.1 -32.5 1.0 -29.4 1.3 -26.5 2.8 -29.85 4.95 -32.45 6.5 -34.35 7.9 -35.1 L9.75 -42.3 M-14.9 -28.95 L-15.05 -29.3 -15.35 -30.05 M-14.9 -28.95 L-14.65 -27.85 -14.6 -27.65 -14.3 -25.45 -14.25 -24.0 -14.2 -23.4 Q-13.75 -26.3 -12.65 -29.0 -10.3 -34.9 -6.6 -33.9 -2.9 -32.9 -0.95 -27.4 0.05 -24.7 0.3 -22.15 1.65 -25.1 3.5 -27.4 7.25 -32.05 10.05 -28.95 12.85 -25.8 12.75 -20.0 L12.35 -15.7 12.1 -14.8 Q13.25 -16.95 14.85 -18.6 15.4 -21.05 15.45 -24.0 15.6 -30.65 12.4 -34.2 10.35 -36.45 7.9 -35.1 M-11.8 -37.5 Q-12.7 -36.25 -13.5 -34.3 L-15.05 -29.3 M-39.6 -36.8 L-39.6 -36.65 M-27.65 -43.7 L-28.35 -28.15 M-25.25 -11.0 Q-25.05 -9.5 -25.15 -8.1 -24.8 -10.55 -23.85 -12.9 -22.0 -17.55 -19.05 -16.75 -16.15 -15.95 -14.6 -11.65 -13.8 -9.45 -13.6 -7.45 L-14.2 -23.4 -14.3 -22.95 -14.25 -24.0 M-13.6 -7.45 Q-12.55 -9.75 -11.05 -11.6 -8.05 -15.25 -5.85 -12.8 -3.65 -10.35 -3.75 -5.75 L-3.95 -2.85 0.3 -22.15 M-3.95 -2.85 L-4.25 -1.65 -1.9 -4.9 Q0.85 -7.7 2.65 -5.4 4.45 -3.15 3.6 0.6 3.15 2.5 2.35 3.9 4.75 0.55 8.8 -7.95 L12.35 -15.7 M15.25 -19.05 Q16.5 -21.1 18.15 -22.75 21.1 -25.75 23.3 -24.75 L26.65 -31.7 M15.25 -19.05 L15.1 -18.9 14.85 -18.6 M23.3 -24.75 L24.7 -23.55 Q27.3 -20.25 26.0 -14.9 25.35 -12.2 24.2 -10.15 L28.5 -11.55 Q33.0 -12.15 33.7 -7.9 34.4 -3.65 32.65 0.1 31.75 2.0 30.7 3.0 L46.8 -5.1 M15.25 -19.05 Q18.55 -22.4 20.8 -19.6 23.1 -16.7 21.95 -12.0 21.4 -9.65 20.4 -7.85 L20.6 -7.9 24.2 -9.1 Q28.1 -9.6 28.75 -5.85 29.4 -2.15 27.8 1.15 27.0 2.8 26.1 3.7 L30.1 3.8 Q34.0 4.6 33.6 8.05 33.25 11.5 30.45 14.5 29.05 16.0 27.7 16.8 L30.7 17.75 Q33.55 19.15 32.8 21.35 32.0 23.6 29.0 25.4 27.45 26.3 26.1 26.75 L28.35 28.3 Q30.35 30.35 29.35 32.7 28.3 35.1 25.3 35.85 L22.45 36.1 24.4 38.6 Q25.85 41.45 23.05 43.05 20.25 44.7 17.7 44.45 L15.75 43.85 15.75 46.25 Q15.15 48.7 12.1 48.8 9.05 48.95 7.0 47.9 L5.6 46.85 5.9 49.3 Q5.75 51.65 3.35 51.0 0.95 50.4 -0.95 48.95 L-2.0 47.95 -2.2 48.15 -2.0 49.1 Q-1.95 50.45 -3.35 49.8 L-4.95 48.8 Q-6.9 48.75 -8.25 48.05 L-9.4 47.2 -9.15 49.15 -9.45 50.2 M38.65 -21.7 L25.35 -10.8 M30.7 3.0 L35.25 3.1 Q39.7 4.05 39.25 8.0 38.8 11.95 35.65 15.35 34.05 17.05 32.55 17.95 L49.15 13.75 M32.55 17.95 L35.95 19.05 Q39.2 20.6 38.35 23.15 37.5 25.7 34.0 27.75 32.25 28.8 30.7 29.3 L46.8 28.05 M2.35 3.9 L5.35 2.9 Q7.45 2.6 8.4 3.95 L20.6 -7.9 M8.4 3.95 L8.95 5.45 Q9.45 8.4 8.2 11.0 7.6 12.3 6.85 13.0 L26.1 3.7 M6.85 13.0 L10.0 13.1 Q13.1 13.75 12.8 16.5 L12.5 17.95 27.7 16.8 M12.5 17.95 Q11.9 19.9 10.25 21.6 9.15 22.8 8.1 23.4 L10.5 24.15 Q12.1 24.95 12.25 26.05 L26.1 26.75 M12.25 26.05 L12.15 27.05 Q11.55 28.85 9.15 30.25 L6.85 31.3 22.45 36.1 M6.85 31.3 L8.6 32.55 Q10.2 34.15 9.4 36.0 8.6 37.9 6.2 38.5 L3.95 38.7 15.75 43.85 M3.95 38.7 L5.5 40.7 Q6.6 42.9 4.4 44.2 2.2 45.5 0.2 45.3 L-1.35 44.85 -1.35 46.75 Q-1.55 47.5 -2.0 47.95 M30.7 29.3 L33.25 31.1 Q35.55 33.4 34.4 36.1 33.25 38.8 29.8 39.65 L26.55 39.95 41.55 41.5 M26.55 39.95 L28.8 42.8 Q30.4 46.05 27.2 47.9 L31.9 52.65 M27.2 47.9 Q24.05 49.75 21.15 49.45 L18.9 48.8 18.9 51.55 Q18.2 54.35 14.7 54.45 11.25 54.6 8.9 53.4 L7.3 52.2 7.7 55.0 Q7.5 57.65 4.75 56.95 2.0 56.25 -0.1 54.6 L-1.7 53.1 -1.35 54.8 Q-1.3 56.15 -2.55 55.75 M-2.2 48.15 Q-2.95 48.75 -4.25 48.8 L-4.95 48.8 M-48.5 4.25 L-48.55 3.85 Q-48.65 -0.35 -47.55 0.25 -46.0 1.05 -45.75 2.0 L-45.9 -0.05 M-45.75 2.0 L-45.75 2.3 M-50.8 4.95 Q-50.3 4.75 -49.3 6.2 L-48.25 8.0 -48.2 8.05 -48.2 8.15 -48.25 8.0" fill="none" stroke="#000000" stroke-linecap="butt" stroke-linejoin="miter-clip" stroke-miterlimit="10.0" stroke-opacity="0.6" stroke-width="1.0"/>
    <path d="M-14.45 49.0 L-6.3 58.9 -1.7 63.45 Q3.4 68.15 5.7 69.2 8.0 70.25 7.9 68.0 L7.35 65.55 9.65 67.75 Q12.75 70.15 16.7 71.2 20.65 72.25 20.9 68.35 L20.35 64.2 22.7 66.0 Q26.0 67.75 31.0 67.55 36.0 67.35 37.0 63.25 L37.0 59.2 40.25 60.15 Q44.45 60.6 49.0 57.9 53.6 55.2 51.25 50.4 L48.0 46.2 52.7 45.75 Q57.7 44.5 59.35 40.55 61.0 36.6 57.65 33.15 L54.0 30.55 Q56.25 29.8 58.75 28.3 63.75 25.3 65.0 21.55 66.25 17.8 61.6 15.5 L56.7 13.9 Q58.85 12.55 61.15 10.05 65.75 5.05 66.35 -0.8 67.0 -6.6 60.55 -7.95 L56.05 -8.25 54.0 -8.1 Q55.5 -9.6 56.8 -12.35 59.4 -17.85 58.35 -24.1 57.3 -30.35 50.9 -29.5 L46.6 -28.35 44.7 -27.45 Q46.35 -30.45 47.3 -34.4 49.1 -42.3 45.35 -47.1 41.6 -51.9 35.95 -46.0 33.1 -43.0 31.0 -39.1 32.0 -42.95 32.1 -47.8 32.25 -57.6 27.7 -62.8 23.1 -68.0 16.95 -60.25 13.85 -56.35 11.7 -51.45 11.3 -55.7 9.65 -60.3 6.4 -69.45 0.35 -71.1 -5.7 -72.8 -9.6 -62.95 -11.55 -58.05 -12.3 -52.8 -11.95 -56.6 -12.75 -60.65 -14.35 -68.75 -20.0 -69.8 -25.6 -70.85 -28.85 -62.05 -30.5 -57.7 -31.0 -53.1 -31.3 -55.25 -32.45 -57.6 -34.7 -62.3 -38.65 -63.1 -42.6 -63.95 -44.05 -54.45 -44.75 -49.7 -44.65 -44.8 -44.75 -45.85 -45.55 -46.95 -47.25 -49.1 -51.0 -49.1 -54.75 -49.1 -55.25 -39.95 -55.5 -35.5 -55.0 -31.1 L-55.45 -32.2 Q-56.35 -33.85 -58.65 -35.1 -60.95 -36.35 -60.7 -27.5 -60.55 -23.1 -60.0 -18.45 -61.05 -20.7 -62.35 -22.6 -64.95 -26.45 -66.0 -24.8 -67.1 -23.0 -64.5 -15.1 -61.95 -7.45 -61.0 -7.45 L-50.8 4.95 -51.05 5.15 Q-51.6 6.0 -50.35 9.7 -49.1 13.35 -48.65 13.35 L-22.3 44.7 -20.05 46.85 Q-17.6 49.1 -16.5 49.55 -15.35 50.05 -15.4 49.0 L-15.7 47.85 -14.6 48.9 -14.45 49.0 Q-13.0 50.0 -11.2 50.5 -10.0 50.8 -9.45 50.2 L-8.0 51.65 Q-4.45 54.9 -2.85 55.6 L-2.55 55.75 -2.0 56.25 Q2.45 60.3 4.5 61.2 6.5 62.1 6.45 60.15 L5.95 58.05 7.95 59.95 Q10.65 62.05 14.1 62.9 17.55 63.8 17.8 60.45 L17.3 56.9 19.35 58.45 Q22.3 59.95 26.65 59.75 31.05 59.6 31.9 56.1 L31.9 52.65 34.75 53.45 Q38.4 53.8 42.45 51.5 46.45 49.15 44.4 45.1 L41.55 41.5 45.65 41.1 Q50.05 40.0 51.5 36.6 52.95 33.25 50.0 30.3 L46.8 28.05 Q48.8 27.4 50.95 26.1 55.35 23.5 56.45 20.3 57.55 17.1 53.45 15.1 L49.15 13.75 Q51.05 12.6 53.05 10.45 57.05 6.2 57.6 1.15 58.15 -3.85 52.55 -4.95 L46.8 -5.1 Q48.1 -6.4 49.25 -8.75 51.5 -13.45 50.6 -18.85 49.7 -24.2 44.1 -23.5 L38.65 -21.7 Q40.1 -24.25 40.9 -27.65 42.5 -34.45 39.2 -38.55 35.9 -42.65 30.95 -37.6 28.5 -35.05 26.65 -31.7 27.55 -35.0 27.6 -39.15 27.75 -47.55 23.75 -52.0 19.7 -56.45 14.35 -49.85 11.65 -46.5 9.75 -42.3 9.4 -45.95 7.95 -49.85 5.1 -57.7 -0.2 -59.15 -5.5 -60.6 -8.9 -52.15 -10.65 -47.9 -11.3 -43.4 -11.0 -46.7 -11.7 -50.15 -13.05 -57.1 -18.0 -58.0 -22.95 -58.9 -25.8 -51.4 -27.2 -47.65 -27.65 -43.7 -27.95 -45.55 -28.9 -47.55 -30.9 -51.6 -34.35 -52.3 -37.8 -53.0 -39.05 -44.85 -39.65 -40.8 -39.6 -36.65" fill="none" stroke="#000000" stroke-linecap="butt" stroke-linejoin="miter-clip" stroke-miterlimit="10.0" stroke-opacity="0.6" stroke-width="1.0"/>
    <path d="M-55.0 -31.1 L-55.0 -30.8 M-45.0 -12.65 L-45.2 -15.75 M-45.0 -12.65 L-45.0 -12.4" fill="none" stroke="#000000" stroke-linecap="round" stroke-linejoin="miter-clip" stroke-miterlimit="10.0" stroke-opacity="0.6" stroke-width="1.0"/>
    <path d="M-48.65 -24.85 L-48.65 -24.8 -45.2 -15.75 -45.2 -18.65 Q-44.85 -24.9 -42.25 -24.9 -39.6 -24.9 -38.45 -23.4 L-37.85 -22.15 -39.6 -36.65 -39.6 -36.55 -39.6 -36.8 -39.6 -36.85 Q-39.75 -37.65 -40.4 -38.4 -41.85 -40.3 -45.15 -40.3 -48.45 -40.3 -48.85 -32.4 -49.1 -28.65 -48.65 -24.85 L-49.05 -25.75 Q-49.85 -27.2 -51.85 -28.25 -53.85 -29.35 -53.65 -21.8 -53.55 -18.0 -53.05 -14.0 L-55.1 -17.55 Q-57.35 -20.85 -58.3 -19.4 -59.3 -17.85 -57.0 -11.1 -54.75 -4.55 -53.9 -4.55 L-51.65 -1.85 -51.95 -2.95 -52.8 -7.85 -52.65 -8.35 Q-51.95 -9.45 -50.15 -6.85 L-48.5 -4.05 -49.0 -10.2 Q-49.15 -16.2 -47.55 -15.35 -45.95 -14.5 -45.3 -13.35 L-45.0 -12.65" fill="none" stroke="#000000" stroke-linecap="round" stroke-linejoin="miter-clip" stroke-miterlimit="10.0" stroke-opacity="0.6" stroke-width="1.0"/>
  </g>
</svg>
