<?xml version="1.0" encoding="UTF-8" standalone="no"?>
<svg xmlns:xlink="http://www.w3.org/1999/xlink" height="14.8px" width="94.25px" xmlns="http://www.w3.org/2000/svg">
  <g transform="matrix(1.0, 0.0, 0.0, 1.0, 46.9, 7.65)">
    <path d="M25.7 -6.1 L25.65 -6.05 25.45 -6.05 25.7 -6.1" fill="#00af4d" fill-rule="evenodd" stroke="none"/>
    <path d="M25.7 -6.1 L26.65 -6.15 25.65 -6.05 25.7 -6.1" fill="#2e594f" fill-rule="evenodd" stroke="none"/>
    <path d="M3.5 5.9 L-2.65 6.75 Q-9.4 7.45 -12.55 6.9 L-10.6 5.55 Q-8.55 4.2 -8.05 4.1 -7.2 3.9 -4.55 4.1 L0.65 4.9 3.5 5.9 M-32.55 0.75 Q-31.7 1.15 -31.1 1.5 L-33.85 3.95 -41.1 2.8 -41.7 2.7 -42.15 2.6 -46.9 1.5 -41.95 0.75 -35.55 -0.05 Q-34.3 -0.05 -32.55 0.75" fill="#ffffff" fill-opacity="0.0" fill-rule="evenodd" stroke="none"/>
    <path d="M25.65 -6.05 L26.65 -6.15 38.85 -7.15 46.85 -5.8 46.85 -5.55 42.55 -4.75 39.1 -4.0 35.7 -3.1 33.15 -3.3 29.85 -3.6 Q28.95 -3.6 27.75 -4.3 L26.95 -4.8 Q25.3 -5.9 25.65 -6.05" fill="#000000" fill-opacity="0.2" fill-rule="evenodd" stroke="none"/>
    <path d="M25.65 -6.05 L26.65 -6.15 38.85 -7.15 46.85 -5.8 M25.65 -6.05 L25.45 -6.05" fill="none" stroke="#000000" stroke-linecap="butt" stroke-linejoin="miter-clip" stroke-miterlimit="10.0" stroke-width="1.0"/>
  </g>
</svg>
