<?xml version="1.0" encoding="UTF-8" standalone="no"?>
<svg xmlns:xlink="http://www.w3.org/1999/xlink" height="20.7px" width="25.4px" xmlns="http://www.w3.org/2000/svg">
  <g transform="matrix(1.0, 0.0, 0.0, 1.0, 13.05, 10.35)">
    <path d="M3.6 -3.65 Q4.45 -2.75 5.65 -3.35 5.7 -4.2 5.35 -4.75 L2.9 -4.7 3.6 -3.65 M-9.3 8.05 L-9.1 8.05 -10.65 5.2 Q-12.1 1.9 -11.65 -0.45 -11.0 -3.9 -8.25 -6.5 -4.9 -9.7 0.3 -9.85 5.05 -10.05 7.6 -6.1 8.85 -4.1 9.15 -2.15 L9.95 -1.35 11.75 0.35 9.2 3.85 8.4 3.5 6.15 3.4 2.5 3.75 Q1.0 4.35 0.95 4.8 0.95 5.35 2.75 6.45 L3.05 6.7 0.55 8.4 Q-0.35 9.0 -1.45 9.25 L-3.65 9.55 -5.8 9.8 -6.65 9.85 -7.7 9.65 -9.3 8.05 M-10.25 -1.1 L-10.5 0.3 Q-10.6 2.1 -10.05 3.6 L-10.0 1.65 Q-9.7 -0.65 -8.85 -2.15 -7.65 -4.3 -5.45 -6.05 -2.85 -8.15 0.3 -9.05 -2.0 -8.9 -4.45 -7.85 -9.4 -5.75 -10.25 -1.1" fill="#ffffff" fill-opacity="0.0" fill-rule="evenodd" stroke="none"/>
    <path d="M3.6 -3.65 L2.9 -4.7 5.35 -4.75 Q5.7 -4.2 5.65 -3.35 4.45 -2.75 3.6 -3.65 M4.25 -5.25 L3.55 -5.0 5.3 -4.7 Q4.95 -5.4 4.25 -5.25" fill="#000000" fill-rule="evenodd" stroke="none"/>
    <path d="M-10.25 -1.1 Q-9.4 -5.75 -4.45 -7.85 -2.0 -8.9 0.3 -9.05 -2.85 -8.15 -5.45 -6.05 -7.65 -4.3 -8.85 -2.15 -9.7 -0.65 -10.0 1.65 L-10.05 3.6 Q-10.6 2.1 -10.5 0.3 L-10.25 -1.1" fill="#ffffff" fill-opacity="0.6" fill-rule="evenodd" stroke="none"/>
    <path d="M4.25 -5.25 Q4.95 -5.4 5.3 -4.7 L3.55 -5.0 4.25 -5.25" fill="#ffffff" fill-rule="evenodd" stroke="none"/>
    <path d="M3.6 -3.65 Q4.45 -2.75 5.65 -3.35 5.7 -4.2 5.35 -4.75 L2.9 -4.7 3.6 -3.65 M3.05 6.7 L2.75 6.45 Q0.95 5.35 0.95 4.8 1.0 4.35 2.5 3.75 L6.15 3.4 8.4 3.5 9.2 3.85 11.75 0.35 9.95 -1.35 9.15 -2.15 Q8.85 -4.1 7.6 -6.1 5.05 -10.05 0.3 -9.85 -4.9 -9.7 -8.25 -6.5 -11.0 -3.9 -11.65 -0.45 -12.1 1.9 -10.65 5.2 L-9.1 8.05 -9.3 8.05 M-7.7 9.65 L-6.65 9.85" fill="none" stroke="#000000" stroke-linecap="butt" stroke-linejoin="miter-clip" stroke-miterlimit="10.0" stroke-width="1.0"/>
    <path d="M-9.3 8.05 L-7.7 9.65 M-6.65 9.85 L-5.8 9.8 -3.65 9.55 -1.45 9.25 Q-0.35 9.0 0.55 8.4 L3.05 6.7" fill="none" stroke="#000000" stroke-linecap="butt" stroke-linejoin="miter-clip" stroke-miterlimit="10.0" stroke-opacity="0.6" stroke-width="1.0"/>
  </g>
</svg>
