<?xml version="1.0" encoding="UTF-8" standalone="no"?>
<svg xmlns:xlink="http://www.w3.org/1999/xlink" height="12.1px" width="14.85px" xmlns="http://www.w3.org/2000/svg">
  <g transform="matrix(1.0, 0.0, 0.0, 1.0, 6.3, 6.25)">
    <path d="M-5.75 0.05 L-5.55 -0.3 -5.05 -0.55 Q-2.75 0.6 -0.45 1.8 4.4 4.05 5.85 4.0 4.4 4.05 -0.45 1.8 -2.75 0.6 -5.05 -0.55 -3.9 -1.35 -3.7 -2.8 L-3.8 -4.35 -1.9 -2.5 1.4 0.0 Q3.05 0.75 4.6 2.15 5.95 3.4 5.85 4.0 L5.65 4.25 Q5.0 4.8 0.15 3.1 L-4.55 1.3 -5.6 1.2 -5.75 0.05" fill="#ffffff" fill-opacity="0.0" fill-rule="evenodd" stroke="none"/>
    <path d="M-5.75 0.05 L-5.6 1.2" fill="none" stroke="#000000" stroke-linecap="butt" stroke-linejoin="miter-clip" stroke-miterlimit="10.0" stroke-opacity="0.6" stroke-width="1.0"/>
    <path d="M-5.05 -0.55 L-5.55 -0.3 -5.75 0.05" fill="none" stroke="#000000" stroke-linecap="round" stroke-linejoin="miter-clip" stroke-miterlimit="10.0" stroke-width="1.0"/>
    <path d="M-5.6 1.2 L-4.55 1.3 0.15 3.1 Q5.0 4.8 5.65 4.25 L5.85 4.0 Q5.95 3.4 4.6 2.15 3.05 0.75 1.4 0.0 L-1.9 -2.5 -3.8 -4.35" fill="none" stroke="#000000" stroke-linecap="butt" stroke-linejoin="miter-clip" stroke-miterlimit="10.0" stroke-width="1.0"/>
    <path d="M5.85 4.0 Q4.4 4.05 -0.45 1.8 -2.75 0.6 -5.05 -0.55" fill="none" stroke="#000000" stroke-linecap="round" stroke-linejoin="miter-clip" stroke-miterlimit="10.0" stroke-opacity="0.6" stroke-width="1.0"/>
    <path d="M-5.05 -0.55 Q-3.9 -1.35 -3.7 -2.8 L-3.8 -4.35" fill="none" stroke="#000000" stroke-linecap="round" stroke-linejoin="miter-clip" stroke-miterlimit="10.0" stroke-opacity="0.6" stroke-width="1.0"/>
  </g>
</svg>
