<?xml version="1.0" encoding="UTF-8" standalone="no"?>
<svg xmlns:xlink="http://www.w3.org/1999/xlink" height="22.25px" width="70.5px" xmlns="http://www.w3.org/2000/svg">
  <g transform="matrix(1.0, 0.0, 0.0, 1.0, 35.9, 11.15)">
    <path d="M34.1 -9.95 L31.85 -8.4 31.6 -8.25 Q30.7 -7.65 29.6 -7.4 L28.75 -7.25 27.4 -7.1 25.25 -6.85 24.4 -6.8 23.35 -7.0 22.2 -8.15 26.15 -7.8 28.75 -8.25 30.75 -8.95 31.85 -9.65 33.05 -10.6 33.1 -10.65 34.1 -9.95" fill="#ffffff" fill-opacity="0.0" fill-rule="evenodd" stroke="none"/>
    <path d="M-31.2 8.4 L-29.5 7.55 Q-24.1 5.05 -20.15 4.0 -17.55 3.3 -14.25 1.75 L-8.6 -1.1 -2.05 -4.35 4.7 -7.25 Q8.55 -8.65 12.05 -8.85 L14.0 -8.85 Q16.2 -8.75 19.25 -7.65 L23.15 -5.9 Q25.05 -4.8 26.45 -3.2 L27.2 -2.25 Q27.7 -1.7 28.15 -1.5 L26.3 -1.8 Q24.55 -3.15 20.75 -3.3 L13.95 -2.65 12.05 -2.0 Q10.4 -1.35 8.4 0.0 L8.15 0.15 3.6 2.8 Q2.1 3.15 4.35 1.35 L5.9 0.0 Q6.15 -0.3 5.85 -0.2 L5.35 0.0 Q4.2 0.5 1.6 1.95 L-2.45 4.25 -4.65 5.4 Q-6.65 6.5 -9.1 7.3 L-11.05 7.9 -15.55 8.75 Q-16.65 8.85 -15.9 7.75 L-15.5 7.3 -14.85 6.65 -18.25 7.3 -21.0 7.7 Q-22.1 7.85 -21.2 7.3 L-19.35 6.35 -15.55 4.75 Q-19.25 5.8 -23.3 6.45 L-26.75 7.3 -27.85 7.6 -32.2 8.95 -31.2 8.4" fill="#000000" fill-opacity="0.2" fill-rule="evenodd" stroke="none"/>
    <path d="M26.3 -1.8 L24.55 -2.25 Q21.8 -2.75 18.65 -2.15 16.8 -1.8 14.8 -0.8 L13.35 0.0 12.05 0.8 11.3 1.25 Q5.4 4.95 -0.6 7.3 L-2.45 8.0 -2.65 8.05 Q-11.1 11.05 -18.4 10.5 L-27.85 9.85 -31.0 9.75 -34.1 9.85 -32.5 9.0 -32.25 8.95 -34.1 9.85 -32.25 8.95 -32.2 8.95 -27.85 7.6 -26.75 7.3 -23.3 6.45 Q-19.25 5.8 -15.55 4.75 L-19.35 6.35 -21.2 7.3 Q-22.1 7.85 -21.0 7.7 L-18.25 7.3 -14.85 6.65 -15.5 7.3 -15.9 7.75 Q-16.65 8.85 -15.55 8.75 L-11.05 7.9 -9.1 7.3 Q-6.65 6.5 -4.65 5.4 L-2.45 4.25 1.6 1.95 Q4.2 0.5 5.35 0.0 L5.85 -0.2 Q6.15 -0.3 5.9 0.0 L4.35 1.35 Q2.1 3.15 3.6 2.8 L8.15 0.15 8.4 0.0 Q10.4 -1.35 12.05 -2.0 L13.95 -2.65 20.75 -3.3 Q24.55 -3.15 26.3 -1.8" fill="#000000" fill-opacity="0.29803923" fill-rule="evenodd" stroke="none"/>
    <path d="M-31.2 8.4 L-29.5 7.55 Q-24.1 5.05 -20.15 4.0 -17.55 3.3 -14.25 1.75 L-8.6 -1.1 -2.05 -4.35 4.7 -7.25 Q8.55 -8.65 12.05 -8.85 M-27.85 9.85 L-31.0 9.75 M-32.25 8.95 L-31.2 8.4 M34.1 -9.95 L33.1 -10.65 M-32.25 8.95 L-34.1 9.85" fill="none" stroke="#000000" stroke-linecap="butt" stroke-linejoin="miter-clip" stroke-miterlimit="10.0" stroke-width="1.0"/>
    <path d="M12.05 -8.85 L14.0 -8.85 Q16.2 -8.75 19.25 -7.65 L23.15 -5.9 Q25.05 -4.8 26.45 -3.2 L27.2 -2.25 Q27.7 -1.7 28.15 -1.5 L26.3 -1.8 24.55 -2.25 Q21.8 -2.75 18.65 -2.15 16.8 -1.8 14.8 -0.8 L13.35 0.0 12.05 0.8 11.3 1.25 Q5.4 4.95 -0.6 7.3 L-2.45 8.0 -2.65 8.05 Q-11.1 11.05 -18.4 10.5 L-27.85 9.85 M-31.0 9.75 L-34.1 9.85 M33.1 -10.65 L33.05 -10.6 31.85 -9.65 30.75 -8.95 28.75 -8.25 26.15 -7.8 22.2 -8.15 23.35 -7.0 24.4 -6.8 25.25 -6.85 27.4 -7.1 28.75 -7.25 29.6 -7.4 Q30.7 -7.65 31.6 -8.25 L31.85 -8.4 34.1 -9.95" fill="none" stroke="#000000" stroke-linecap="butt" stroke-linejoin="miter-clip" stroke-miterlimit="10.0" stroke-opacity="0.6" stroke-width="1.0"/>
  </g>
</svg>
