<?xml version="1.0" encoding="UTF-8" standalone="no"?>
<svg xmlns:xlink="http://www.w3.org/1999/xlink" height="50.1px" width="40.0px" xmlns="http://www.w3.org/2000/svg">
  <g transform="matrix(1.0, 0.0, 0.0, 1.0, 19.85, 24.55)">
    <path d="M7.2 -24.05 L15.2 -22.75 Q16.2 -22.55 17.4 -19.25 L18.85 -15.05 Q19.55 -13.75 18.85 0.95 18.85 1.6 15.55 10.35 L12.2 18.95 1.55 21.6 Q-10.45 24.6 -13.15 23.95 -14.75 23.55 -12.65 19.55 -10.15 15.45 -10.15 14.95 -10.15 14.05 -7.45 8.2 -4.6 2.1 -3.45 0.95 -2.4 -0.1 -2.2 -1.85 L-2.15 -3.4 Q-3.4 -5.25 -11.4 -5.35 L-19.15 -5.05 Q-18.3 -7.15 -15.15 -9.65 L-12.15 -11.75 -8.65 -15.65 -4.45 -20.05 Q-3.85 -20.5 0.4 -21.85 L7.2 -24.05" fill="#ffffff" fill-opacity="0.0" fill-rule="evenodd" stroke="none"/>
    <path d="M7.2 -24.05 L0.4 -21.85 Q-3.85 -20.5 -4.45 -20.05 L-8.65 -15.65 -12.15 -11.75 -15.15 -9.65 Q-18.3 -7.15 -19.15 -5.05 L-11.4 -5.35 Q-3.4 -5.25 -2.15 -3.4 L-2.2 -1.85 Q-2.4 -0.1 -3.45 0.95 -4.6 2.1 -7.45 8.2 -10.15 14.05 -10.15 14.95 -10.15 15.45 -12.65 19.55 -14.75 23.55 -13.15 23.95 -10.45 24.6 1.55 21.6 L12.2 18.95 15.55 10.35 Q18.85 1.6 18.85 0.95 19.55 -13.75 18.85 -15.05 L17.4 -19.25 Q16.2 -22.55 15.2 -22.75 L7.2 -24.05 Z" fill="none" stroke="#000000" stroke-linecap="butt" stroke-linejoin="miter-clip" stroke-miterlimit="10.0" stroke-width="1.0"/>
  </g>
</svg>
