<?xml version="1.0" encoding="UTF-8" standalone="no"?>
<svg xmlns:xlink="http://www.w3.org/1999/xlink" height="33.85px" width="12.8px" xmlns="http://www.w3.org/2000/svg">
  <g transform="matrix(1.0, 0.0, 0.0, 1.0, 6.3, 17.05)">
    <path d="M3.55 -13.65 L3.55 -12.8 4.6 -11.7 5.8 -9.9 5.85 -2.4 5.8 4.45 5.8 13.65 5.55 14.9 Q5.1 16.2 4.05 16.3 L-4.0 16.3 Q-5.05 16.2 -5.5 14.9 L-5.75 13.65 -5.75 4.45 -5.8 -2.4 -5.75 -9.9 -4.55 -11.7 -3.45 -12.8 -3.45 -13.65 Q-3.85 -13.95 -3.7 -14.25 L-3.45 -14.45 -3.45 -15.75 -0.25 -16.15 -0.25 -16.25 0.05 -16.2 0.3 -16.25 0.3 -16.15 3.55 -15.75 3.55 -14.45 3.8 -14.25 Q3.95 -13.95 3.55 -13.65" fill="#ffffff" fill-opacity="0.0" fill-rule="evenodd" stroke="none"/>
    <path d="M3.55 -15.6 L3.55 -14.45 3.8 -14.25 Q3.95 -13.95 3.55 -13.65 L3.55 -12.8 4.6 -11.7 5.8 -9.9 5.85 -2.4 5.8 4.45 5.8 13.65 5.55 14.9 Q5.1 16.2 4.05 16.3 L-4.0 16.3 -4.3 16.25 -4.7 15.9 Q-5.3 14.9 -1.5 14.65 L2.5 14.65 2.5 -10.0 1.15 -11.85 0.05 -12.8 0.05 -13.6 -0.05 -14.0 -0.15 -14.2 -3.75 -14.2 -3.55 -14.4 -3.45 -14.45 -3.45 -15.4 -1.3 -15.3 3.55 -15.6" fill="#000000" fill-opacity="0.2" fill-rule="evenodd" stroke="none"/>
    <path d="M3.55 -13.65 Q3.95 -13.95 3.8 -14.25 L3.55 -14.45 3.55 -15.75 0.3 -16.15 0.3 -16.25 0.05 -16.2 -0.25 -16.25 -0.25 -16.15 -3.45 -15.75 -3.45 -14.45 -3.7 -14.25 Q-3.85 -13.95 -3.45 -13.65 L-3.45 -12.8 -4.55 -11.7 -5.75 -9.9 -5.8 -2.4 -5.75 4.45 -5.75 13.65 -5.5 14.9 Q-5.05 16.2 -4.0 16.3 L4.05 16.3 Q5.1 16.2 5.55 14.9 L5.8 13.65 5.8 4.45 5.85 -2.4 5.8 -9.9 4.6 -11.7 3.55 -12.8 3.55 -13.65 Z" fill="none" stroke="#000000" stroke-linecap="butt" stroke-linejoin="miter-clip" stroke-miterlimit="10.0" stroke-opacity="0.6" stroke-width="1.0"/>
    <path d="M-3.45 -13.65 L3.55 -13.65" fill="none" stroke="#000000" stroke-linecap="butt" stroke-linejoin="miter-clip" stroke-miterlimit="10.0" stroke-opacity="0.4" stroke-width="1.0"/>
    <path d="M-3.45 -14.45 L3.55 -14.45" fill="none" stroke="#000000" stroke-linecap="butt" stroke-linejoin="miter-clip" stroke-miterlimit="10.0" stroke-opacity="0.4" stroke-width="1.0"/>
    <path d="M-2.9 -12.7 L-3.75 -11.2 -4.3 -10.0 -4.3 13.7 -4.05 15.9 -4.85 14.65 -5.0 13.75 -5.0 -10.05 -3.8 -11.7 -2.9 -12.7" fill="#ffffff" fill-opacity="0.4" fill-rule="evenodd" stroke="none"/>
  </g>
</svg>
