<?xml version="1.0" encoding="UTF-8" standalone="no"?>
<svg xmlns:xlink="http://www.w3.org/1999/xlink" height="61.8px" width="44.75px" xmlns="http://www.w3.org/2000/svg">
  <g transform="matrix(1.0, 0.0, 0.0, 1.0, 21.95, 30.55)">
    <path d="M-1.0 -21.75 Q-3.6 -22.1 -6.8 -25.1 L-10.2 -29.1 -9.2 -29.7 -4.85 -29.95 Q-2.05 -29.7 0.15 -27.3 L1.3 -25.95 2.4 -26.75 3.5 -27.05 4.55 -26.75 7.1 -25.45 7.15 -25.4 8.15 -24.95 Q10.7 -26.45 12.9 -26.1 16.7 -25.45 19.7 -24.15 18.4 -22.65 15.9 -21.75 12.85 -20.6 9.5 -21.2 7.85 -16.55 6.9 -15.45 L6.9 -15.4 8.25 -13.25 11.85 -8.25 Q14.15 -5.15 15.15 -3.05 L19.5 6.75 Q22.2 14.15 21.2 18.45 20.15 22.8 15.75 26.5 12.55 29.1 10.0 29.95 L4.7 29.5 -0.6 28.05 -5.7 28.3 Q-10.3 28.6 -13.7 27.1 -17.8 25.25 -20.05 18.65 -22.15 12.55 -21.1 7.85 -20.35 4.45 -16.3 -0.05 L-9.6 -6.75 -7.2 -9.35 -4.8 -12.05 -3.55 -13.6 -2.25 -15.3 -0.9 -17.0 -0.35 -17.65 -0.75 -19.75 -0.95 -21.1 -1.0 -21.75 M9.25 -23.55 Q11.75 -22.7 13.75 -23.15 14.75 -23.35 15.2 -23.75 13.35 -24.65 11.1 -24.2 L9.25 -23.55 8.75 -24.35 8.15 -24.95 8.75 -24.35 9.25 -23.55 9.9 -22.45 9.5 -21.2 9.9 -22.45 9.25 -23.55 M3.65 -15.05 L3.85 -15.15 Q6.0 -16.65 6.9 -19.85 L7.35 -22.9 6.45 -22.0 Q5.45 -20.9 5.2 -20.1 L3.8 -17.0 3.5 -16.5 3.45 -17.0 3.2 -18.75 Q3.0 -21.15 3.3 -21.8 3.7 -22.9 3.5 -25.25 L2.1 -23.4 Q0.8 -21.3 0.9 -19.7 L1.3 -17.0 1.55 -15.65 2.1 -15.4 1.55 -15.6 -0.35 -13.0 -5.5 -5.6 Q-6.95 -3.3 -8.85 2.0 -10.8 7.35 -10.2 7.65 -9.6 7.9 -6.75 2.8 -4.25 -1.7 -3.15 -4.3 L-0.6 -9.45 1.1 -12.65 1.55 -12.0 1.8 -10.7 Q0.7 4.0 1.8 4.0 2.45 4.0 3.3 -3.1 4.1 -9.9 3.9 -11.15 L3.95 -12.9 4.1 -13.7 Q9.45 4.65 9.65 3.15 9.9 1.8 8.15 -6.3 6.75 -13.15 5.85 -14.9 L3.85 -15.0 3.65 -15.05 M6.9 -15.4 Q6.55 -15.0 5.85 -14.9 6.55 -15.0 6.9 -15.4 M-0.35 -17.65 L-0.15 -17.0 -0.15 -16.9 Q0.2 -16.15 1.55 -15.6 0.2 -16.15 -0.15 -16.9 L-0.15 -17.0 -0.35 -17.65 M-3.7 -25.55 Q-2.25 -24.15 -0.75 -23.85 L-0.15 -24.65 -1.55 -25.65 Q-4.15 -27.6 -5.25 -27.6 L-3.7 -25.55 M1.3 -25.95 Q-0.2 -24.8 -0.8 -23.75 -1.2 -23.05 -0.95 -21.1 -1.2 -23.05 -0.8 -23.75 -0.2 -24.8 1.3 -25.95" fill="#ffffff" fill-opacity="0.0" fill-rule="evenodd" stroke="none"/>
    <path d="M9.25 -23.55 L11.1 -24.2 Q13.35 -24.65 15.2 -23.75 14.75 -23.35 13.75 -23.15 11.75 -22.7 9.25 -23.55 M2.1 -15.4 L1.55 -15.65 1.3 -17.0 0.9 -19.7 Q0.8 -21.3 2.1 -23.4 L3.5 -25.25 Q3.7 -22.9 3.3 -21.8 3.0 -21.15 3.2 -18.75 L3.45 -17.0 3.5 -16.5 3.8 -17.0 5.2 -20.1 Q5.45 -20.9 6.45 -22.0 L7.35 -22.9 6.9 -19.85 Q6.0 -16.65 3.85 -15.15 L3.65 -15.05 3.2 -15.15 2.1 -15.4 3.2 -15.15 3.65 -15.05 3.85 -15.0 5.85 -14.9 Q6.75 -13.15 8.15 -6.3 9.9 1.8 9.65 3.15 9.45 4.65 4.1 -13.7 L3.95 -12.9 3.9 -11.15 Q4.1 -9.9 3.3 -3.1 2.45 4.0 1.8 4.0 0.7 4.0 1.8 -10.7 L1.55 -12.0 1.1 -12.65 -0.6 -9.45 -3.15 -4.3 Q-4.25 -1.7 -6.75 2.8 -9.6 7.9 -10.2 7.65 -10.8 7.35 -8.85 2.0 -6.95 -3.3 -5.5 -5.6 L-0.35 -13.0 1.55 -15.6 2.1 -15.4 M-3.7 -25.55 L-5.25 -27.6 Q-4.15 -27.6 -1.55 -25.65 L-0.15 -24.65 -0.75 -23.85 Q-2.25 -24.15 -3.7 -25.55" fill="#000000" fill-opacity="0.2" fill-rule="evenodd" stroke="none"/>
    <path d="M-1.0 -21.75 Q-3.6 -22.1 -6.8 -25.1 L-10.2 -29.1 -9.2 -29.7 -4.85 -29.95 Q-2.05 -29.7 0.15 -27.3 L1.3 -25.95 2.4 -26.75 3.5 -27.05 4.55 -26.75 7.1 -25.45 7.15 -25.4 8.15 -24.95 Q10.7 -26.45 12.9 -26.1 16.7 -25.45 19.7 -24.15 18.4 -22.65 15.9 -21.75 12.85 -20.6 9.5 -21.2 7.85 -16.55 6.9 -15.45 L6.9 -15.4 8.25 -13.25 11.85 -8.25 Q14.15 -5.15 15.15 -3.05 L19.5 6.75 Q22.2 14.15 21.2 18.45 20.15 22.8 15.75 26.5 12.55 29.1 10.0 29.95 L4.7 29.5 -0.6 28.05 -5.7 28.3 Q-10.3 28.6 -13.7 27.1 -17.8 25.25 -20.05 18.65 -22.15 12.55 -21.1 7.85 -20.35 4.45 -16.3 -0.05 L-9.6 -6.75 -7.2 -9.35 -4.8 -12.05 -3.55 -13.6 -2.25 -15.3 -0.9 -17.0 -0.35 -17.65 -0.75 -19.75 -0.95 -21.1" fill="none" stroke="#000000" stroke-linecap="butt" stroke-linejoin="miter-clip" stroke-miterlimit="10.0" stroke-width="1.0"/>
    <path d="M9.25 -23.55 L9.9 -22.45 9.5 -21.2 M8.15 -24.95 L8.75 -24.35 9.25 -23.55 M2.1 -15.4 L3.2 -15.15 3.65 -15.05 3.85 -15.0 5.85 -14.9 Q6.55 -15.0 6.9 -15.4 M2.1 -15.4 L1.55 -15.6 Q0.2 -16.15 -0.15 -16.9 L-0.15 -17.0 -0.35 -17.65 M-0.95 -21.1 Q-1.2 -23.05 -0.8 -23.75 -0.2 -24.8 1.3 -25.95" fill="none" stroke="#000000" stroke-linecap="butt" stroke-linejoin="miter-clip" stroke-miterlimit="10.0" stroke-opacity="0.6" stroke-width="1.0"/>
  </g>
</svg>
