<?xml version="1.0" encoding="UTF-8" standalone="no"?>
<svg xmlns:xlink="http://www.w3.org/1999/xlink" height="68.1px" width="22.7px" xmlns="http://www.w3.org/2000/svg">
  <g transform="matrix(1.0, 0.0, 0.0, 1.0, 12.65, 34.05)">
    <path d="M1.05 -4.85 Q-1.8 -8.35 -5.6 -7.45 -6.85 -7.1 -8.05 -6.4 L-9.0 -5.7 Q-6.65 -8.4 -4.05 -8.95 L-4.2 -9.05 Q-4.95 -11.7 -6.4 -12.85 L-7.65 -13.45 Q-4.9 -13.5 -3.7 -10.95 L-3.05 -9.1 -1.95 -9.1 Q-0.3 -8.9 0.85 -8.15 L0.75 -9.05 0.85 -16.75 1.1 -20.5 1.1 -20.6 1.1 -20.65 1.2 -23.1 Q0.3 -25.1 -2.4 -27.3 L-5.4 -29.45 Q-3.05 -29.0 -0.85 -27.05 L0.5 -25.7 0.25 -26.55 -0.45 -29.3 -0.3 -29.95 Q-0.05 -30.45 0.2 -29.7 L0.85 -27.2 0.95 -26.75 1.15 -33.55 Q1.8 -33.75 1.65 -28.15 L1.5 -24.3 1.5 -24.25 1.7 -23.45 1.45 -24.4 1.5 -20.3 1.65 -16.9 Q2.25 -11.35 2.05 -10.5 L1.95 -4.25 2.05 -2.1 2.05 0.15 2.15 1.5 2.35 2.95 2.4 4.3 2.05 6.3 1.5 8.85 1.25 10.7 1.25 15.5 1.95 11.5 2.05 19.35 2.6 25.9 Q3.2 32.4 3.45 33.5 L1.55 33.55 1.2 26.85 Q0.7 19.9 -0.2 18.55 L-1.9 16.35 -3.0 14.7 -3.8 12.05 -4.05 10.45 -3.6 9.85 Q-3.15 9.3 -3.15 9.65 L-3.1 11.2 Q-2.95 12.5 -2.35 13.25 -1.4 14.45 -0.05 15.1 -0.2 11.25 0.2 9.65 L0.75 6.8 1.0 4.15 1.15 -2.35 1.1 -4.15 1.05 -4.85 M1.5 -24.3 L1.4 -24.75 0.95 -26.75 1.4 -24.75 1.5 -24.3 M0.5 -25.7 L1.15 -23.3 1.2 -23.1 1.15 -23.3 0.5 -25.7 M-4.05 -8.95 L-3.05 -9.1 -4.05 -8.95 M0.85 -8.15 L0.95 -6.5 1.1 -4.15 0.95 -6.5 0.85 -8.15" fill="#ffffff" fill-opacity="0.0" fill-rule="evenodd" stroke="none"/>
    <path d="M1.7 -23.45 L2.2 -20.5 Q2.45 -18.75 2.35 -14.75 L2.85 -16.75 Q3.4 -18.85 3.65 -19.15 L4.45 -20.05 5.25 -20.75 8.75 -23.3 8.6 -22.9 8.05 -21.95 6.35 -20.6 4.6 -18.9 Q4.15 -18.1 3.65 -15.85 3.1 -13.5 3.0 -11.95 2.85 -9.85 2.85 -3.95 L3.0 -1.2 3.15 1.75 3.4 5.35 4.45 3.65 Q5.05 2.85 6.35 2.05 L9.0 0.15 8.8 0.6 8.35 1.35 7.55 2.25 6.6 3.1 5.25 4.2 Q4.4 5.15 4.05 6.3 L3.2 8.7 Q2.75 10.05 2.85 11.35 L2.9 15.4 Q2.9 18.1 3.15 18.95 L4.15 26.4 5.15 33.45 3.45 33.5 Q3.2 32.4 2.6 25.9 L2.05 19.35 1.95 11.5 1.25 15.5 1.25 10.7 1.5 8.85 2.05 6.3 2.4 4.3 2.35 2.95 2.15 1.5 2.05 0.15 2.05 -2.1 1.95 -4.25 2.05 -10.5 Q2.25 -11.35 1.65 -16.9 L1.5 -20.3 1.45 -24.4 1.7 -23.45" fill="#000000" fill-opacity="0.2" fill-rule="evenodd" stroke="none"/>
    <path d="M1.05 -4.85 Q-1.8 -8.35 -5.6 -7.45 -6.85 -7.1 -8.05 -6.4 L-9.0 -5.7 Q-6.65 -8.4 -4.05 -8.95 L-4.2 -9.05 Q-4.95 -11.7 -6.4 -12.85 L-7.65 -13.45 Q-4.9 -13.5 -3.7 -10.95 L-3.05 -9.1 -1.95 -9.1 Q-0.3 -8.9 0.85 -8.15 L0.75 -9.05 0.85 -16.75 1.1 -20.5 1.1 -20.6 1.1 -20.65 1.2 -23.1 Q0.3 -25.1 -2.4 -27.3 L-5.4 -29.45 Q-3.05 -29.0 -0.85 -27.05 L0.5 -25.7 0.25 -26.55 -0.45 -29.3 -0.3 -29.95 Q-0.05 -30.45 0.2 -29.7 L0.85 -27.2 0.95 -26.75 1.15 -33.55 Q1.8 -33.75 1.65 -28.15 L1.5 -24.3 1.5 -24.25 1.7 -23.45 2.2 -20.5 Q2.45 -18.75 2.35 -14.75 L2.85 -16.75 Q3.4 -18.85 3.65 -19.15 L4.45 -20.05 5.25 -20.75 8.75 -23.3 8.6 -22.9 8.05 -21.95 6.35 -20.6 4.6 -18.9 Q4.15 -18.1 3.65 -15.85 3.1 -13.5 3.0 -11.95 2.85 -9.85 2.85 -3.95 L3.0 -1.2 3.15 1.75 3.4 5.35 4.45 3.65 Q5.05 2.85 6.35 2.05 L9.0 0.15 8.8 0.6 8.35 1.35 7.55 2.25 6.6 3.1 5.25 4.2 Q4.4 5.15 4.05 6.3 L3.2 8.7 Q2.75 10.05 2.85 11.35 L2.9 15.4 Q2.9 18.1 3.15 18.95 L4.15 26.4 5.15 33.45 3.45 33.5 1.55 33.55 1.2 26.85 Q0.7 19.9 -0.2 18.55 L-1.9 16.35 -3.0 14.7 -3.8 12.05 -4.05 10.45 -3.6 9.85 Q-3.15 9.3 -3.15 9.65 L-3.1 11.2 Q-2.95 12.5 -2.35 13.25 -1.4 14.45 -0.05 15.1 -0.2 11.25 0.2 9.65 L0.75 6.8 1.0 4.15 1.15 -2.35 1.1 -4.15 0.95 -6.5 0.85 -8.15 M1.2 -23.1 L1.15 -23.3 0.5 -25.7 M0.95 -26.75 L1.4 -24.75 1.5 -24.3 M-3.05 -9.1 L-4.05 -8.95" fill="none" stroke="#000000" stroke-linecap="butt" stroke-linejoin="miter-clip" stroke-miterlimit="10.0" stroke-opacity="0.6" stroke-width="1.0"/>
  </g>
</svg>
