<?xml version="1.0" encoding="UTF-8" standalone="no"?>
<svg xmlns:xlink="http://www.w3.org/1999/xlink" height="108.8px" width="300.6px" xmlns="http://www.w3.org/2000/svg">
  <g transform="matrix(1.0, 0.0, 0.0, 1.0, 150.3, 54.4)">
    <path d="M126.85 -43.3 L126.85 -48.65 48.2 -50.35 -111.8 -12.4 49.1 -45.95 126.85 -43.3 M129.5 -53.9 L129.5 24.65 149.8 28.25 149.8 53.9 -149.8 53.9 -149.8 28.25 Q-133.5 24.55 -116.2 21.8 L-116.2 -15.05 46.4 -53.9 129.5 -53.9 M38.2 23.45 Q96.1 26.05 140.95 30.95 46.55 12.7 -57.55 19.1 -90.05 21.1 -119.6 25.3 L-134.95 27.95 Q-70.85 18.4 38.2 23.45 M-116.2 21.8 Q-41.0 9.85 52.4 16.3 96.0 19.35 129.5 24.65 96.0 19.35 52.4 16.3 -41.0 9.85 -116.2 21.8" fill="#ffffff" fill-opacity="0.0" fill-rule="evenodd" stroke="none"/>
    <path d="M126.85 -43.3 L49.1 -45.95 -111.8 -12.4 48.2 -50.35 126.85 -48.65 126.85 -43.3 M38.2 23.45 Q-70.85 18.4 -134.95 27.95 L-119.6 25.3 Q-90.05 21.1 -57.55 19.1 46.55 12.7 140.95 30.95 96.1 26.05 38.2 23.45" fill="#ffffff" fill-opacity="0.6" fill-rule="evenodd" stroke="none"/>
    <path d="M129.5 -53.9 L129.5 24.65 149.8 28.25 149.8 53.9 -149.8 53.9 -149.8 28.25 Q-133.5 24.55 -116.2 21.8 L-116.2 -15.05 46.4 -53.9 129.5 -53.9" fill="none" stroke="#000000" stroke-linecap="butt" stroke-linejoin="miter-clip" stroke-miterlimit="10.0" stroke-width="1.0"/>
    <path d="M129.5 24.65 Q96.0 19.35 52.4 16.3 -41.0 9.85 -116.2 21.8" fill="none" stroke="#000000" stroke-linecap="butt" stroke-linejoin="miter-clip" stroke-miterlimit="10.0" stroke-opacity="0.6" stroke-width="1.0"/>
  </g>
</svg>
