<?xml version="1.0" encoding="UTF-8" standalone="no"?>
<svg xmlns:xlink="http://www.w3.org/1999/xlink" height="12.35px" width="80.25px" xmlns="http://www.w3.org/2000/svg">
  <g transform="matrix(1.0, 0.0, 0.0, 1.0, 41.6, 5.9)">
    <path d="M-36.8 -3.35 L-36.8 -3.3 -32.25 -4.65 -32.85 -4.0 -33.2 -3.4 -29.45 -3.75 -25.7 -4.75 -22.55 -5.15 -19.45 -5.3 Q-19.65 -3.8 -16.9 -3.95 L-12.95 -4.4 -9.6 -4.05 -6.3 -3.75 Q-5.65 -1.3 0.15 -1.7 3.95 -2.0 7.65 -3.1 11.7 -4.25 15.05 -5.9 L19.65 -5.15 Q20.0 -5.1 17.25 -3.3 14.65 -1.5 16.2 -1.4 L21.7 -1.05 21.5 -0.1 21.45 -0.05 Q21.2 0.3 21.4 0.6 L21.2 1.65 20.8 5.15 19.5 5.0 19.2 4.95 19.0 4.95 18.9 4.9 16.55 4.65 15.95 4.6 Q8.45 3.5 3.5 2.0 -2.4 0.25 -11.35 -1.4 L-21.9 -3.15 Q-23.95 -3.4 -31.25 -2.1 L-38.15 -0.7 -38.15 -1.5 Q-38.0 -2.45 -37.2 -3.0 L-36.8 -3.35 M38.15 5.95 L33.1 5.95 31.0 5.9 32.5 4.65 33.4 3.9 33.8 4.2 Q36.3 5.85 38.15 5.95" fill="#ffffff" fill-opacity="0.6" fill-rule="evenodd" stroke="none"/>
    <path d="M19.5 5.0 L19.2 4.95 19.0 4.95 16.55 4.65 15.95 4.6 Q8.45 3.5 3.5 2.0 -2.4 0.25 -11.35 -1.4 L-21.9 -3.15 Q-23.95 -3.4 -31.25 -2.1 L-38.15 -0.7 -38.15 -1.5 Q-38.0 -2.45 -37.2 -3.0 L-36.8 -3.35 M38.15 5.95 L33.1 5.95" fill="none" stroke="#000000" stroke-linecap="butt" stroke-linejoin="miter-clip" stroke-miterlimit="10.0" stroke-opacity="0.6" stroke-width="1.0"/>
    <path d="M20.8 5.15 L19.5 5.0 Z" fill="none" stroke="#000000" stroke-linecap="butt" stroke-linejoin="miter-clip" stroke-miterlimit="10.0" stroke-width="1.0"/>
  </g>
</svg>
