<?xml version="1.0" encoding="UTF-8" standalone="no"?>
<svg xmlns:xlink="http://www.w3.org/1999/xlink" height="73.6px" width="87.55px" xmlns="http://www.w3.org/2000/svg">
  <g transform="matrix(1.0, 0.0, 0.0, 1.0, 42.7, 37.3)">
    <path d="M-28.05 -5.45 Q-24.75 -3.95 -22.9 -4.1 -22.55 -5.8 -23.4 -7.35 -21.8 -7.2 -17.25 -5.75 -13.4 -4.5 -10.85 -4.75 L-12.15 -6.7 -13.75 -8.4 -7.55 -7.75 -1.25 -7.1 -1.85 -8.2 -2.7 -9.35 3.9 -9.35 Q7.85 -9.4 10.45 -10.15 9.3 -11.15 8.55 -11.4 L14.15 -11.8 Q17.3 -12.5 19.45 -13.8 18.65 -15.35 16.85 -15.45 L21.9 -16.8 Q25.4 -17.5 26.85 -18.7 25.85 -20.1 24.2 -19.75 L28.9 -20.7 Q31.95 -21.5 33.25 -23.1 33.55 -23.5 33.2 -24.1 32.85 -24.7 32.95 -24.85 L34.2 -26.45 35.5 -28.05 37.45 -32.2 Q39.05 -35.15 40.55 -34.1 42.35 -32.85 41.4 -29.6 40.85 -27.8 39.5 -25.1 43.25 -25.2 41.85 -22.9 L38.85 -19.1 Q42.8 -19.15 39.8 -15.4 L35.55 -10.75 Q35.2 -10.05 35.15 -8.4 35.1 -6.95 34.5 -6.05 33.75 -4.95 31.9 -3.85 L28.9 -2.15 Q31.3 -0.3 27.3 2.5 24.05 4.75 21.2 5.35 21.9 9.6 11.6 13.15 7.75 14.45 -2.1 16.6 L-9.05 18.3 Q-12.8 19.6 -14.75 22.25 -17.35 25.95 -18.25 28.35 L-18.7 31.3 Q-19.0 33.6 -19.45 33.95 -21.25 35.4 -24.35 32.1 L-28.2 27.25 Q-34.3 20.25 -36.5 17.0 -39.3 12.95 -40.55 10.05 -42.35 6.0 -42.2 2.25 -42.05 -2.15 -39.75 -0.55 L-34.9 3.25 Q-34.95 1.9 -36.1 -0.1 L-37.85 -3.35 Q-36.45 -3.3 -34.45 -2.35 -31.9 -1.05 -31.25 -0.85 -31.35 -1.6 -32.4 -3.7 -33.3 -5.45 -33.15 -6.7 -31.3 -6.95 -28.05 -5.45" fill="#ffffff" fill-opacity="0.2" fill-rule="evenodd" stroke="none"/>
    <path d="M-25.85 8.65 Q-25.05 8.9 -22.4 10.1 -20.25 11.1 -18.9 11.25 -19.2 9.0 -22.2 6.4 L-27.1 2.6 Q-24.7 2.85 -18.05 7.2 -12.3 10.95 -8.5 9.95 -4.85 9.0 -7.25 6.45 -9.3 4.3 -11.95 3.7 L-4.8 5.35 Q0.0 6.3 2.75 5.2 2.4 4.1 0.5 3.3 -0.45 2.85 -2.75 2.25 L4.15 2.0 Q8.2 1.35 10.4 -0.4 L7.5 -0.75 4.55 -1.05 11.05 -1.55 Q14.65 -2.35 16.85 -4.05 15.85 -4.8 13.2 -5.0 15.9 -4.95 20.35 -7.05 25.65 -9.6 26.1 -12.1 L23.85 -12.45 Q26.25 -12.85 29.1 -14.65 32.05 -16.55 32.8 -18.35 L31.25 -18.1 Q35.55 -23.1 37.1 -26.1 37.75 -27.35 38.1 -30.15 38.45 -32.9 39.05 -34.0 L39.2 -34.25 40.55 -34.1 Q42.35 -32.85 41.4 -29.6 40.85 -27.8 39.5 -25.1 43.25 -25.2 41.85 -22.9 L38.85 -19.1 Q42.8 -19.15 39.8 -15.4 L35.55 -10.75 Q35.2 -10.05 35.15 -8.4 35.1 -6.95 34.5 -6.05 33.75 -4.95 31.9 -3.85 L28.9 -2.15 Q31.3 -0.3 27.3 2.5 24.05 4.75 21.2 5.35 21.9 9.6 11.6 13.15 7.75 14.45 -2.1 16.6 L-9.05 18.3 Q-12.8 19.6 -14.75 22.25 -17.35 25.95 -18.25 28.35 L-18.7 31.3 Q-19.0 33.6 -19.45 33.95 -21.15 35.3 -24.1 32.35 L-29.0 25.8 Q-31.8 21.9 -33.25 18.8 -36.25 12.6 -34.05 11.5 -33.25 11.1 -29.2 14.35 -24.75 18.0 -23.9 18.25 -23.6 16.35 -25.7 13.9 L-28.85 10.0 -25.3 13.25 Q-22.95 15.25 -21.2 14.8 -21.75 13.85 -23.6 11.8 -25.3 10.0 -25.85 8.65" fill="#000000" fill-opacity="0.09803922" fill-rule="evenodd" stroke="none"/>
    <path d="M-28.05 -5.45 Q-31.3 -6.95 -33.15 -6.7 -33.3 -5.45 -32.4 -3.7 -31.35 -1.6 -31.25 -0.85 -31.9 -1.05 -34.45 -2.35 -36.45 -3.3 -37.85 -3.35 L-36.1 -0.1 Q-34.95 1.9 -34.9 3.25 L-39.75 -0.55 Q-42.05 -2.15 -42.2 2.25 -42.35 6.0 -40.55 10.05 -39.3 12.95 -36.5 17.0 -34.3 20.25 -28.2 27.25 L-24.35 32.1 Q-21.25 35.4 -19.45 33.95 -19.0 33.6 -18.7 31.3 L-18.25 28.35 Q-17.35 25.95 -14.75 22.25 -12.8 19.6 -9.05 18.3 L-2.1 16.6 Q7.75 14.45 11.6 13.15 21.9 9.6 21.2 5.35 24.05 4.75 27.3 2.5 31.3 -0.3 28.9 -2.15 L31.9 -3.85 Q33.75 -4.95 34.5 -6.05 35.1 -6.95 35.15 -8.4 35.2 -10.05 35.55 -10.75 L39.8 -15.4 Q42.8 -19.15 38.85 -19.1 L41.85 -22.9 Q43.25 -25.2 39.5 -25.1 40.85 -27.8 41.4 -29.6 42.35 -32.85 40.55 -34.1 39.05 -35.15 37.45 -32.2 L35.5 -28.05 34.2 -26.45 32.95 -24.85 Q32.85 -24.7 33.2 -24.1 33.55 -23.5 33.25 -23.1 31.95 -21.5 28.9 -20.7 L24.2 -19.75" fill="none" stroke="#000000" stroke-linecap="butt" stroke-linejoin="miter-clip" stroke-miterlimit="10.0" stroke-opacity="0.6" stroke-width="1.0"/>
    <path d="M24.2 -19.75 Q25.85 -20.1 26.85 -18.7 25.4 -17.5 21.9 -16.8 L16.85 -15.45 Q18.65 -15.35 19.45 -13.8 17.3 -12.5 14.15 -11.8 L8.55 -11.4 Q9.3 -11.15 10.45 -10.15 7.85 -9.4 3.9 -9.35 L-2.7 -9.35 -1.85 -8.2 -1.25 -7.1 -7.55 -7.75 -13.75 -8.4 -12.15 -6.7 -10.85 -4.75 Q-13.4 -4.5 -17.25 -5.75 -21.8 -7.2 -23.4 -7.35 -22.55 -5.8 -22.9 -4.1 -24.75 -3.95 -28.05 -5.45 M24.2 -19.75 L23.9 -19.7" fill="none" stroke="#000000" stroke-linecap="round" stroke-linejoin="miter-clip" stroke-miterlimit="10.0" stroke-opacity="0.6" stroke-width="1.0"/>
  </g>
</svg>
