<?xml version="1.0" encoding="UTF-8" standalone="no"?>
<svg xmlns:xlink="http://www.w3.org/1999/xlink" height="1511.85px" width="900.55px" xmlns="http://www.w3.org/2000/svg">
  <g transform="matrix(1.0, 0.0, 0.0, 1.0, 450.3, 756.15)">
    <path d="M-16.65 718.65 L-16.65 598.2 -10.35 598.2 -10.35 718.65 -16.65 718.65 M-442.1 -740.5 Q-440.15 -740.5 -440.15 -738.05 L-440.15 588.3 Q-440.15 590.75 -442.1 590.75 -444.0 590.75 -444.0 588.3 L-444.0 -738.05 Q-444.0 -740.5 -442.1 -740.5 M431.6 -740.5 Q433.8 -740.5 433.8 -738.05 L433.8 588.3 Q433.8 590.75 431.6 590.75 429.65 590.75 429.65 588.3 L429.65 -738.05 Q429.65 -740.5 431.6 -740.5 M-21.35 727.2 L-21.35 754.8 -30.7 754.8 -30.7 727.2 -21.35 727.2" fill="#ffffff" fill-opacity="0.6" fill-rule="evenodd" stroke="none"/>
    <path d="M-19.95 718.65 L-19.95 598.2 -449.8 598.2 -449.8 -741.9 Q-449.8 -747.65 -445.65 -751.5 -441.8 -755.65 -436.05 -755.65 -430.55 -755.65 -426.4 -751.5 -422.3 -747.65 -422.3 -741.9 L-422.3 570.95 422.25 570.95 422.25 -741.9 Q422.25 -747.65 426.35 -751.5 430.5 -755.65 436.0 -755.65 441.75 -755.65 445.9 -751.5 449.75 -747.65 449.75 -741.9 L449.75 598.2 7.55 598.2 7.55 718.65 27.35 718.65 27.35 755.2 -39.75 755.2 -39.75 718.65 -19.95 718.65 -16.65 718.65 -19.95 718.65 M-10.35 718.65 L-10.35 598.2 -16.65 598.2 -16.65 718.65 -10.35 718.65 7.55 718.65 -10.35 718.65 M431.6 -740.5 Q429.65 -740.5 429.65 -738.05 L429.65 588.3 Q429.65 590.75 431.6 590.75 433.8 590.75 433.8 588.3 L433.8 -738.05 Q433.8 -740.5 431.6 -740.5 M-442.1 -740.5 Q-444.0 -740.5 -444.0 -738.05 L-444.0 588.3 Q-444.0 590.75 -442.1 590.75 -440.15 590.75 -440.15 588.3 L-440.15 -738.05 Q-440.15 -740.5 -442.1 -740.5 M-21.35 727.2 L-30.7 727.2 -30.7 754.8 -21.35 754.8 -21.35 727.2" fill="#ffffff" fill-opacity="0.0" fill-rule="evenodd" stroke="none"/>
    <path d="M-19.95 718.65 L-19.95 598.2 -449.8 598.2 -449.8 -741.9 Q-449.8 -747.65 -445.65 -751.5 -441.8 -755.65 -436.05 -755.65 -430.55 -755.65 -426.4 -751.5 -422.3 -747.65 -422.3 -741.9 L-422.3 570.95 422.25 570.95 422.25 -741.9 Q422.25 -747.65 426.35 -751.5 430.5 -755.65 436.0 -755.65 441.75 -755.65 445.9 -751.5 449.75 -747.65 449.75 -741.9 L449.75 598.2 7.55 598.2 7.55 718.65" fill="none" stroke="#000000" stroke-linecap="butt" stroke-linejoin="miter-clip" stroke-miterlimit="10.0" stroke-width="1.0"/>
    <path d="M7.55 718.65 L27.35 718.65 27.35 755.2 M-39.75 755.2 L-39.75 718.65 -19.95 718.65" fill="none" stroke="#000000" stroke-linecap="round" stroke-linejoin="miter-clip" stroke-miterlimit="10.0" stroke-width="1.0"/>
    <path d="M27.35 755.2 L-39.75 755.2 M-19.95 718.65 L-16.65 718.65 -10.35 718.65 7.55 718.65" fill="none" stroke="#000000" stroke-linecap="round" stroke-linejoin="miter-clip" stroke-miterlimit="10.0" stroke-opacity="0.6" stroke-width="1.0"/>
  </g>
</svg>
