<?xml version="1.0" encoding="UTF-8" standalone="no"?>
<svg xmlns:xlink="http://www.w3.org/1999/xlink" height="173.95px" width="147.95px" xmlns="http://www.w3.org/2000/svg">
  <g transform="matrix(1.0, 0.0, 0.0, 1.0, 263.65, 66.3)">
    <path d="M-127.25 -64.75 L-129.05 -65.7 -129.05 -65.75 -127.25 -64.75" fill="#dedede" fill-rule="evenodd" stroke="none"/>
    <path d="M-247.25 72.4 L-246.9 72.4 -247.25 72.75 -247.25 72.4 M-255.05 81.05 L-255.8 77.05 -255.25 79.95 -255.15 80.4 -255.0 81.05 -255.05 81.05 M-258.55 53.05 L-258.55 53.0 -258.55 53.05" fill="#ffffff" fill-rule="evenodd" stroke="none"/>
    <path d="M-209.2 -51.4 Q-206.75 -52.0 -180.35 -51.9 L-169.15 -51.85 -159.45 -51.75 -132.6 -51.4 -122.8 -46.75 -121.65 -46.2 -121.65 -37.5 -121.65 47.65 -123.25 47.8 -123.3 47.75 -123.25 47.8 -119.6 51.95 -119.5 52.1 -116.2 55.85 -116.75 74.65 -117.5 89.1 -118.0 95.9 -118.85 105.15 -119.8 105.15 Q-122.6 96.4 -128.65 88.2 -142.25 69.55 -163.05 72.65 -183.8 75.75 -195.65 92.55 -199.6 98.15 -201.7 103.5 L-202.9 106.95 -202.9 107.0 -202.95 107.15 -203.55 107.0 -203.55 106.95 -259.25 106.95 Q-261.0 105.5 -262.15 101.55 -264.45 93.65 -261.55 81.05 L-255.05 81.05 -255.0 81.05 -204.65 81.05 -204.55 80.1 Q-204.15 76.7 -201.25 72.4 L-246.9 72.4 -247.25 72.4 -247.75 16.6 -247.25 72.4 -247.25 72.75 -251.95 77.0 -253.8 53.85 Q-253.95 53.35 -254.9 53.15 L-256.3 52.95 -258.55 53.0 Q-259.35 39.9 -258.1 28.65 -257.25 26.05 -255.5 23.25 -252.05 17.65 -247.75 16.6 L-244.8 10.15 -235.1 13.7 Q-232.2 13.1 -230.45 8.5 L-213.2 -38.15 -214.5 -39.4 -214.95 -39.75 Q-217.65 -41.8 -220.95 -41.75 L-219.55 -44.45 Q-215.45 -49.8 -209.2 -51.4 M-129.05 -65.7 L-131.6 -52.8 -197.1 -59.45 -172.4 -62.8 Q-144.6 -66.1 -129.15 -65.75 L-129.05 -65.7 M-198.7 69.0 L-201.25 72.4 -198.7 69.0 Q-201.5 68.25 -203.55 65.3 -206.35 61.3 -206.35 55.7 L-206.35 -27.45 -206.25 -29.2 -206.35 -27.45 -206.35 55.7 Q-206.35 61.3 -203.55 65.3 -201.5 68.25 -198.7 69.0 -196.0 65.7 -191.95 61.9 -180.7 51.4 -169.55 46.5 L-132.55 47.5 -132.55 -27.45 Q-132.55 -33.05 -135.35 -37.05 -138.1 -41.0 -142.05 -41.0 L-196.85 -41.0 Q-200.15 -41.0 -202.6 -38.25 -200.15 -41.0 -196.85 -41.0 L-142.05 -41.0 Q-138.1 -41.0 -135.35 -37.05 -132.55 -33.05 -132.55 -27.45 L-132.55 47.5 -123.3 47.75 -132.55 47.5 -169.55 46.5 Q-180.7 51.4 -191.95 61.9 -196.0 65.7 -198.7 69.0 M-202.6 -38.25 L-203.2 -38.3 -203.25 -38.3 Q-205.4 -38.3 -205.4 -36.85 L-205.4 -31.65 -209.0 -31.65 -209.0 -33.85 -209.0 -34.4 Q-209.2 -36.45 -210.85 -36.45 -212.65 -36.45 -212.65 -33.85 L-212.65 12.65 Q-212.65 15.3 -210.85 15.3 -209.0 15.3 -209.0 12.65 L-209.0 -29.2 -206.25 -29.2 -205.4 -29.2 -205.4 -4.0 Q-205.4 -2.55 -203.25 -2.55 -201.15 -2.55 -201.15 -4.0 L-201.15 -36.85 -201.2 -37.25 -201.2 -37.3 -201.35 -37.6 -201.5 -37.8 -201.55 -37.85 -201.6 -37.85 Q-201.95 -38.15 -202.6 -38.25 M-195.4 -35.15 L-196.8 -34.3 Q-199.15 -32.5 -199.15 -29.95 L-199.15 7.85 Q-199.15 10.35 -196.8 12.15 -194.5 13.95 -191.2 13.95 L-145.35 13.95 Q-142.1 13.95 -139.75 12.15 -137.45 10.35 -137.45 7.85 L-137.45 -29.95 Q-137.45 -32.5 -139.75 -34.3 -142.1 -36.1 -145.35 -36.1 L-191.2 -36.1 Q-193.55 -36.1 -195.4 -35.15 M-157.95 21.05 Q-157.95 22.75 -156.7 22.75 L-142.3 22.75 Q-141.1 22.75 -141.1 21.05 -141.1 19.3 -142.3 19.3 L-156.7 19.3 Q-157.95 19.3 -157.95 21.05 -157.95 19.3 -156.7 19.3 L-142.3 19.3 Q-141.1 19.3 -141.1 21.05 -141.1 22.75 -142.3 22.75 L-156.7 22.75 Q-157.95 22.75 -157.95 21.05 M-204.65 81.05 L-204.8 83.35 -204.9 89.95 Q-204.75 97.2 -203.55 106.95 -204.75 97.2 -204.9 89.95 L-204.8 83.35 -204.65 81.05 M-203.55 107.0 L-202.9 107.0 -203.55 107.0" fill="#ffffff" fill-opacity="0.0" fill-rule="evenodd" stroke="none"/>
    <path d="M-122.8 -46.75 L-132.6 -51.4 -159.45 -51.75 -169.15 -51.85 -180.35 -51.9 Q-206.75 -52.0 -209.2 -51.4 L-204.85 -54.55 Q-199.95 -58.0 -197.1 -59.45 L-131.6 -52.8 -129.05 -65.7 -127.25 -64.75 -122.8 -62.3 -122.8 -46.75 M-255.8 77.05 L-256.9 70.05 Q-258.1 61.85 -258.6 53.1 L-258.55 53.05 -258.55 53.0 -256.3 52.95 -254.9 53.15 Q-253.95 53.35 -253.8 53.85 L-251.95 77.0 -255.25 79.95 -255.8 77.05" fill="#000000" fill-opacity="0.101960786" fill-rule="evenodd" stroke="none"/>
    <path d="M-246.9 72.4 L-201.25 72.4 Q-204.15 76.7 -204.55 80.1 L-204.65 81.05 -255.0 81.05 -255.15 80.4 -255.25 79.95 -251.95 77.0 -247.25 72.75 -246.9 72.4" fill="#000000" fill-opacity="0.2" fill-rule="evenodd" stroke="none"/>
    <path d="M-119.8 105.15 L-202.9 107.0 -202.9 106.95 -201.7 103.5 Q-199.6 98.15 -195.65 92.55 -183.8 75.75 -163.05 72.65 -142.25 69.55 -128.65 88.2 -122.6 96.4 -119.8 105.15" fill="#000000" fill-opacity="0.6" fill-rule="evenodd" stroke="none"/>
    <path d="M-209.2 -51.4 Q-206.75 -52.0 -180.35 -51.9 L-169.15 -51.85 -159.45 -51.75 -132.6 -51.4 -122.8 -46.75 M-247.75 16.6 L-247.25 72.4 -247.25 72.75 M-201.25 72.4 L-198.7 69.0 Q-196.0 65.7 -191.95 61.9 -180.7 51.4 -169.55 46.5 L-132.55 47.5 -123.3 47.75 M-121.65 47.65 L-121.65 -37.5 M-119.5 52.1 L-116.2 55.85 -116.75 74.65 -117.5 89.1 -118.0 95.9 -118.85 105.15 M-119.6 51.95 L-123.25 47.8 M-203.55 106.95 Q-204.75 97.2 -204.9 89.95 L-204.8 83.35 -204.65 81.05 -255.0 81.05 M-204.65 81.05 L-204.55 80.1 Q-204.15 76.7 -201.25 72.4" fill="none" stroke="#000000" stroke-linecap="round" stroke-linejoin="round" stroke-opacity="0.6" stroke-width="1.0"/>
    <path d="M-122.8 -46.75 L-122.8 -62.3 -127.25 -64.75 -129.05 -65.7 -129.15 -65.75 Q-144.6 -66.1 -172.4 -62.8 L-197.1 -59.45 Q-199.95 -58.0 -204.85 -54.55 L-209.2 -51.4 Q-215.45 -49.8 -219.55 -44.45 L-220.95 -41.75 M-244.8 10.15 L-247.75 16.6 Q-252.05 17.65 -255.5 23.25 -257.25 26.05 -258.1 28.65 -259.35 39.9 -258.55 53.0 L-258.55 53.05 -258.55 53.0 M-121.65 -37.5 L-121.65 -46.2 -122.8 -46.75 M-118.85 105.15 L-119.8 105.15 -202.9 107.0 -202.95 107.15 -203.55 107.0 -203.55 106.95 -259.25 106.95 Q-261.0 105.5 -262.15 101.55 -264.45 93.65 -261.55 81.05 L-255.05 81.05 -255.8 77.05 -256.9 70.05 Q-258.1 61.85 -258.6 53.1 L-258.55 53.05 M-202.9 107.0 L-202.9 106.95 -201.7 103.5 Q-199.6 98.15 -195.65 92.55 -183.8 75.75 -163.05 72.65 -142.25 69.55 -128.65 88.2 -122.6 96.4 -119.8 105.15 M-255.0 81.05 L-255.05 81.05 M-255.25 79.95 L-255.15 80.4 M-255.8 77.05 L-255.25 79.95" fill="none" stroke="#000000" stroke-linecap="round" stroke-linejoin="round" stroke-width="1.0"/>
    <path d="M-198.7 69.0 Q-201.5 68.25 -203.55 65.3 -206.35 61.3 -206.35 55.7 L-206.35 -27.45 -206.25 -29.2 -209.0 -29.2 -209.0 12.65 Q-209.0 15.3 -210.85 15.3 -212.65 15.3 -212.65 12.65 L-212.65 -33.85 Q-212.65 -36.45 -210.85 -36.45 -209.2 -36.45 -209.0 -34.4 L-209.0 -33.85 -209.0 -31.65 -205.4 -31.65 -205.4 -36.85 Q-205.4 -38.3 -203.25 -38.3 L-203.2 -38.3 -202.6 -38.25 Q-200.15 -41.0 -196.85 -41.0 L-142.05 -41.0 Q-138.1 -41.0 -135.35 -37.05 -132.55 -33.05 -132.55 -27.45 L-132.55 47.5 M-123.3 47.75 L-123.25 47.8 -121.65 47.65 M-206.25 -29.2 L-205.4 -29.2 -205.4 -4.0 Q-205.4 -2.55 -203.25 -2.55 -201.15 -2.55 -201.15 -4.0 L-201.15 -36.85 -201.2 -37.25 -201.2 -37.3 -201.35 -37.6 -201.5 -37.8 -201.55 -37.85 -201.6 -37.85 Q-201.95 -38.15 -202.6 -38.25 M-157.95 21.05 Q-157.95 19.3 -156.7 19.3 L-142.3 19.3 Q-141.1 19.3 -141.1 21.05 -141.1 22.75 -142.3 22.75 L-156.7 22.75 Q-157.95 22.75 -157.95 21.05 M-119.5 52.1 L-119.6 51.95 -119.5 51.95 -119.5 52.1 M-258.55 53.0 L-256.3 52.95 -254.9 53.15 Q-253.95 53.35 -253.8 53.85 L-251.95 77.0" fill="none" stroke="#000000" stroke-linecap="round" stroke-linejoin="round" stroke-opacity="0.4" stroke-width="1.0"/>
    <path d="M-202.9 107.0 L-203.55 107.0" fill="none" stroke="#000000" stroke-linecap="round" stroke-linejoin="round" stroke-opacity="0.09803922" stroke-width="1.0"/>
  </g>
</svg>
