<?xml version="1.0" encoding="UTF-8" standalone="no"?>
<svg xmlns:xlink="http://www.w3.org/1999/xlink" height="91.15px" width="152.2px" xmlns="http://www.w3.org/2000/svg">
  <g transform="matrix(1.0, 0.0, 0.0, 1.0, 76.1, 27.1)">
    <path d="M-74.6 52.25 L-74.5 52.25 -74.65 52.4 -74.6 52.25" fill="#bfbfbf" fill-rule="evenodd" stroke="none"/>
    <path d="M31.95 -26.6 L33.0 -26.6 Q36.8 -26.6 40.15 -25.55 45.1 -24.0 49.1 -20.2 55.75 -13.75 55.75 -4.7 L58.7 22.05 59.6 30.1 60.3 36.5 -72.85 36.5 -68.3 -4.7 Q-68.3 -13.8 -61.65 -20.2 -55.5 -26.15 -46.9 -26.55 L-45.55 -26.6 -35.35 -26.6 31.95 -26.6" fill="#ffffff" fill-opacity="0.0" fill-rule="evenodd" stroke="none"/>
    <path d="M-72.85 36.5 L60.3 36.5 62.0 52.0 Q60.95 51.1 59.55 51.1 L-71.8 51.1 Q-73.35 51.1 -74.5 52.25 L-74.6 52.25 -73.1 38.5 -72.95 37.5 -72.95 37.25 -72.85 36.5" fill="#000000" fill-opacity="0.101960786" fill-rule="evenodd" stroke="none"/>
    <path d="M-74.5 52.25 Q-73.35 51.1 -71.8 51.1 L59.55 51.1 Q60.95 51.1 62.0 52.0 L62.3 52.25 Q63.4 53.35 63.4 54.95 63.4 56.55 62.3 57.65 61.15 58.8 59.55 58.8 L54.5 58.8 46.4 58.8 -56.8 58.8 -64.85 58.8 -71.8 58.8 Q-73.35 58.8 -74.5 57.65 -75.6 56.55 -75.6 54.95 -75.6 53.45 -74.65 52.4 L-74.5 52.25" fill="#000000" fill-opacity="0.2" fill-rule="evenodd" stroke="none"/>
    <path d="M59.6 30.1 L58.7 22.05 73.15 21.7 Q74.1 21.65 74.8 22.3 75.5 22.95 75.5 23.9 L75.6 27.4 Q75.65 28.35 74.95 29.05 74.3 29.7 73.35 29.75 L59.6 30.1 M-56.8 58.8 L-56.8 61.95 Q-56.8 62.6 -57.5 63.05 -58.15 63.55 -59.1 63.55 L-62.6 63.55 Q-63.55 63.55 -64.2 63.05 -64.85 62.6 -64.85 61.95 L-64.85 58.8 -56.8 58.8 M54.5 58.8 L54.5 61.95 Q54.5 62.6 53.8 63.05 53.15 63.55 52.2 63.55 L48.7 63.55 Q47.75 63.55 47.1 63.05 46.4 62.6 46.4 61.95 L46.4 58.8 54.5 58.8" fill="#000000" fill-opacity="0.5019608" fill-rule="evenodd" stroke="none"/>
    <path d="M59.6 30.1 L58.7 22.05 M-56.8 58.8 L-64.85 58.8 M54.5 58.8 L46.4 58.8" fill="none" stroke="#0e0e0e" stroke-linecap="round" stroke-linejoin="round" stroke-opacity="0.6" stroke-width="1.0"/>
    <path d="M58.7 22.05 L55.75 -4.7 Q55.75 -13.75 49.1 -20.2 45.1 -24.0 40.15 -25.55 36.8 -26.6 33.0 -26.6 L31.95 -26.6 M-35.35 -26.6 L-45.55 -26.6 -46.9 -26.55 Q-55.5 -26.15 -61.65 -20.2 -68.3 -13.8 -68.3 -4.7 L-72.85 36.5 -72.95 37.25 -72.95 37.5 -73.1 38.5 -74.6 52.25 -74.65 52.4 Q-75.6 53.45 -75.6 54.95 -75.6 56.55 -74.5 57.65 -73.35 58.8 -71.8 58.8 L-64.85 58.8 -64.85 61.95 Q-64.85 62.6 -64.2 63.05 -63.55 63.55 -62.6 63.55 L-59.1 63.55 Q-58.15 63.55 -57.5 63.05 -56.8 62.6 -56.8 61.95 L-56.8 58.8 46.4 58.8 46.4 61.95 Q46.4 62.6 47.1 63.05 47.75 63.55 48.7 63.55 L52.2 63.55 Q53.15 63.55 53.8 63.05 54.5 62.6 54.5 61.95 L54.5 58.8 59.55 58.8 Q61.15 58.8 62.3 57.65 63.4 56.55 63.4 54.95 63.4 53.35 62.3 52.25 L62.0 52.0 60.3 36.5 59.6 30.1 73.35 29.75 Q74.3 29.7 74.95 29.05 75.65 28.35 75.6 27.4 L75.5 23.9 Q75.5 22.95 74.8 22.3 74.1 21.65 73.15 21.7 L58.7 22.05" fill="none" stroke="#000000" stroke-linecap="round" stroke-linejoin="round" stroke-width="1.0"/>
    <path d="M31.95 -26.6 L-35.35 -26.6" fill="none" stroke="#000000" stroke-linecap="round" stroke-linejoin="round" stroke-opacity="0.6" stroke-width="1.0"/>
    <path d="M-74.5 52.25 Q-73.35 51.1 -71.8 51.1 L59.55 51.1 Q60.95 51.1 62.0 52.0" fill="none" stroke="#000000" stroke-linecap="round" stroke-linejoin="round" stroke-opacity="0.4" stroke-width="1.0"/>
  </g>
</svg>
