<?xml version="1.0" encoding="UTF-8" standalone="no"?>
<svg xmlns:xlink="http://www.w3.org/1999/xlink" height="138.15px" width="74.25px" xmlns="http://www.w3.org/2000/svg">
  <g transform="matrix(1.0, 0.0, 0.0, 1.0, 37.1, 51.25)">
    <path d="M-23.1 -48.85 L-23.4 -48.6 -23.3 -48.7 -23.1 -48.85 M18.05 82.85 L18.7 82.65 20.1 82.25 19.65 82.4 18.05 82.85 M21.8 81.7 L23.05 81.25 22.25 81.55 21.8 81.7" fill="#dbdcdd" fill-rule="evenodd" stroke="none"/>
    <path d="M19.0 48.1 L19.05 48.1 19.0 48.2 19.0 48.1" fill="#9c9ea1" fill-rule="evenodd" stroke="none"/>
    <path d="M-25.6 -45.9 L-26.35 -44.9 -21.15 -44.9 Q-23.2 -42.35 -24.85 -39.45 -30.65 -29.5 -32.05 -15.45 -33.15 -4.55 -31.7 4.0 -31.05 -18.2 -24.05 -35.9 L-22.55 -39.45 -19.85 -44.9 12.2 -44.9 15.05 -40.85 15.75 -39.45 Q18.5 -33.35 20.15 -23.4 21.95 -12.15 22.2 2.55 L11.35 2.55 4.4 2.55 -0.25 2.55 -28.2 2.55 -25.55 48.1 19.0 48.1 19.0 48.2 19.05 48.1 19.95 48.1 19.6 51.35 -21.2 51.35 Q-22.6 51.35 -23.6 52.8 -24.6 54.3 -24.6 56.35 -24.6 58.4 -23.6 59.85 -22.6 61.3 -21.2 61.3 L18.5 61.3 15.5 83.55 Q8.15 85.55 2.95 86.15 -2.25 86.7 -7.95 86.0 -13.7 85.3 -20.65 82.6 L-25.8 80.1 Q-31.3 73.7 -33.8 52.7 -35.9 34.95 -36.55 -0.85 -37.0 -24.8 -29.6 -39.45 L-27.3 -43.5 -25.6 -45.9" fill="#ffffff" fill-opacity="0.0" fill-rule="evenodd" stroke="none"/>
    <path d="M-21.15 -44.9 L-17.35 -49.0 -17.15 -49.2 -19.3 -45.9 -19.85 -44.9 -22.55 -39.45 -24.05 -35.9 Q-31.05 -18.2 -31.7 4.0 -33.15 -4.55 -32.05 -15.45 -30.65 -29.5 -24.85 -39.45 -23.2 -42.35 -21.15 -44.9" fill="#ffffff" fill-opacity="0.2" fill-rule="evenodd" stroke="none"/>
    <path d="M-21.15 -50.75 L-20.0 -50.65 20.05 -50.65 21.25 -50.75 23.1 -49.0 Q25.35 -46.65 27.35 -43.5 L29.65 -39.45 Q37.05 -24.8 36.6 -0.85 35.95 34.95 33.85 52.7 31.35 73.7 25.85 80.1 L25.15 80.4 23.05 81.25 21.8 81.7 20.1 82.25 18.7 82.65 18.05 82.85 16.1 83.4 15.6 83.55 15.5 83.55 18.5 61.3 21.35 61.3 Q22.75 61.3 23.75 59.85 24.75 58.4 24.75 56.35 24.75 54.3 23.75 52.8 22.75 51.35 21.35 51.35 L19.6 51.35 19.95 48.1 25.25 48.1 26.0 32.1 25.25 48.1 19.95 48.1 19.05 48.1 22.3 32.8 26.0 32.1 26.2 27.65 26.5 21.15 26.2 27.65 Q23.35 28.6 20.45 28.6 13.0 28.6 7.7 23.35 2.45 18.05 2.45 10.6 2.45 6.3 4.4 2.55 L11.35 2.55 Q8.3 6.0 8.3 10.6 8.3 15.65 11.85 19.25 15.4 22.8 20.45 22.8 23.65 22.8 26.5 21.15 L27.35 2.55 22.2 2.55 Q21.95 -12.15 20.15 -23.4 18.5 -33.35 15.75 -39.45 L15.05 -40.85 12.2 -44.9 -19.85 -44.9 -19.3 -45.9 -17.15 -49.2 -17.35 -49.0 -21.15 -44.9 -26.35 -44.9 -25.6 -45.9 -23.4 -48.6 -23.1 -48.85 -21.25 -50.65 -21.2 -50.7 -21.15 -50.75 M-0.25 2.55 Q-1.0 4.55 -1.4 6.55 L-16.6 10.1 -1.8 10.6 -1.6 13.7 -18.55 23.9 -0.05 19.35 1.45 22.25 -10.35 35.9 4.85 26.45 6.7 28.1 1.4 44.0 11.9 31.25 Q14.1 32.15 16.55 32.55 L19.0 48.1 -25.55 48.1 -28.2 2.55 -0.25 2.55" fill="#000000" fill-opacity="0.101960786" fill-rule="evenodd" stroke="none"/>
    <path d="M26.2 27.65 L26.0 32.1 22.3 32.8 19.05 48.1 19.0 48.1 16.55 32.55 Q14.1 32.15 11.9 31.25 L1.4 44.0 6.7 28.1 4.85 26.45 -10.35 35.9 1.45 22.25 -0.05 19.35 -18.55 23.9 -1.6 13.7 -1.8 10.6 -16.6 10.1 -1.4 6.55 Q-1.0 4.55 -0.25 2.55 L4.4 2.55 Q2.45 6.3 2.45 10.6 2.45 18.05 7.7 23.35 13.0 28.6 20.45 28.6 23.35 28.6 26.2 27.65 M19.6 51.35 L21.35 51.35 Q22.75 51.35 23.75 52.8 24.75 54.3 24.75 56.35 24.75 58.4 23.75 59.85 22.75 61.3 21.35 61.3 L18.5 61.3 -21.2 61.3 Q-22.6 61.3 -23.6 59.85 -24.6 58.4 -24.6 56.35 -24.6 54.3 -23.6 52.8 -22.6 51.35 -21.2 51.35 L19.6 51.35" fill="#000000" fill-opacity="0.3019608" fill-rule="evenodd" stroke="none"/>
    <path d="M22.2 2.55 L27.35 2.55 26.5 21.15 Q23.65 22.8 20.45 22.8 15.4 22.8 11.85 19.25 8.3 15.65 8.3 10.6 8.3 6.0 11.35 2.55 L22.2 2.55" fill="#000000" fill-opacity="0.2" fill-rule="evenodd" stroke="none"/>
    <path d="M-21.25 -50.65 L-23.1 -48.85 -23.4 -48.6 -25.6 -45.9 -27.3 -43.5 -29.6 -39.45 Q-37.0 -24.8 -36.55 -0.85 -35.9 34.95 -33.8 52.7 -31.3 73.7 -25.8 80.1 L-20.65 82.6 Q-13.7 85.3 -7.95 86.0 -2.25 86.7 2.95 86.15 8.15 85.55 15.5 83.55 L15.6 83.55 16.1 83.4 18.05 82.85 18.7 82.65 20.1 82.25 21.8 81.7 23.05 81.25 25.15 80.4 25.85 80.1 Q31.35 73.7 33.85 52.7 35.95 34.95 36.6 -0.85 37.05 -24.8 29.65 -39.45 L27.35 -43.5 Q25.35 -46.65 23.1 -49.0 L21.25 -50.75 M22.25 81.55 L23.05 81.25 M-23.3 -48.7 L-23.4 -48.6" fill="none" stroke="#231f20" stroke-linecap="round" stroke-linejoin="round" stroke-width="1.0"/>
    <path d="M21.25 -50.75 L20.05 -50.65 -20.0 -50.65 -21.15 -50.75" fill="none" stroke="#000000" stroke-linecap="round" stroke-linejoin="round" stroke-opacity="0.6" stroke-width="1.0"/>
    <path d="M22.2 2.55 L27.35 2.55 26.5 21.15 26.2 27.65 26.0 32.1 25.25 48.1 19.95 48.1 19.05 48.1 19.0 48.1 -25.55 48.1 -28.2 2.55 -0.25 2.55 4.4 2.55 11.35 2.55 22.2 2.55" fill="none" stroke="#000000" stroke-linecap="round" stroke-linejoin="round" stroke-opacity="0.4" stroke-width="1.0"/>
  </g>
</svg>
