<?xml version="1.0" encoding="UTF-8" standalone="no"?>
<svg xmlns:xlink="http://www.w3.org/1999/xlink" height="156.2px" width="410.1px" xmlns="http://www.w3.org/2000/svg">
  <g transform="matrix(1.0, 0.0, 0.0, 1.0, 205.05, 78.1)">
    <path d="M111.95 22.0 L112.2 21.95 112.4 21.95 111.95 22.0 M89.8 13.0 L89.6 13.25 89.65 13.15 89.8 12.95 89.8 13.0 89.8 12.95 89.85 12.85 89.85 12.9 89.8 13.4 89.85 12.95 89.8 13.0 M53.15 8.6 L53.1 9.15 53.1 8.6 53.1 9.15 53.45 -3.45 53.45 -3.0 53.15 8.6 53.1 8.6 53.15 8.6 M82.4 -25.2 L83.05 -25.75 82.95 -25.65 82.75 -25.5 82.4 -25.2 M48.85 -5.55 L50.15 -5.3 48.85 -5.55 M113.8 21.85 L114.2 21.8 114.85 21.75 113.85 21.85 113.8 21.85 M115.3 25.75 L115.35 25.75 115.2 25.75 115.15 25.75 114.8 25.8 115.3 25.75 115.2 25.75 115.3 25.75 M90.2 12.25 L90.2 12.2 90.4 11.7 90.25 12.15 90.9 11.65 90.2 12.2 90.2 12.25 M90.25 12.15 L90.2 12.2 90.25 12.15 M101.85 34.55 L102.15 35.55 101.85 34.55" fill="#ffffff" fill-rule="evenodd" stroke="none"/>
    <path d="M91.0 -25.25 L92.05 -25.3 92.0 -25.2 91.0 -25.2 91.0 -25.25 M47.0 -5.9 L48.85 -5.55 48.3 -5.65 47.9 -5.7 47.0 -5.9 47.9 -5.7 45.85 -6.05 45.85 -6.1 47.0 -5.9 45.85 -6.05 47.0 -5.9 M113.0 21.9 L113.8 21.85 113.0 21.9 114.2 21.8 113.8 21.85 113.0 21.9 M102.8 37.5 L102.8 37.55 102.75 37.55 102.75 37.5 102.8 37.5 M102.45 36.5 L102.15 35.55 102.45 36.5" fill="#d7d7d7" fill-rule="evenodd" stroke="none"/>
    <path d="M112.2 21.95 L113.0 21.9 112.4 21.95 112.2 21.95 M99.7 27.9 L100.05 28.9 100.0 28.9 99.7 27.9" fill="#c7c7c7" fill-rule="evenodd" stroke="none"/>
    <path d="M45.85 -6.1 L45.85 -6.05 44.5 -6.3 45.85 -6.1 M-135.8 -26.2 L-135.75 -26.2 -134.8 -24.65 -135.8 -26.2" fill="#9c9c9c" fill-rule="evenodd" stroke="none"/>
    <path d="M181.3 -6.95 L182.4 -6.7 181.3 -6.9 181.3 -6.95 M204.55 4.65 L204.5 4.95 204.45 5.35 204.5 4.95 204.5 4.6 204.55 4.65" fill="#979797" fill-rule="evenodd" stroke="none"/>
    <path d="M182.45 17.4 L182.45 17.55 182.4 17.4 182.45 17.4" fill="#7d7d7d" fill-rule="evenodd" stroke="none"/>
    <path d="M-144.35 -4.6 Q-147.1 -3.75 -151.5 -3.25 L-157.6 -2.7 -158.7 -2.7 -152.0 -3.3 -150.45 -3.5 Q-146.55 -4.0 -144.35 -4.6" fill="#d4d4d4" fill-rule="evenodd" stroke="none"/>
    <path d="M12.2 -17.65 Q10.25 -19.45 8.25 -22.0 L5.35 -26.35 Q3.0 -27.05 3.75 -28.35 L25.3 -34.15 Q49.35 -40.15 62.1 -41.0 L72.6 -41.05 Q83.95 -40.55 88.0 -37.65 L88.45 -38.4 Q89.2 -39.3 89.85 -38.7 91.65 -37.1 91.2 -27.3 L91.0 -25.25 91.0 -25.2 92.0 -25.2 130.65 -24.5 131.75 -24.3 133.15 -24.0 134.5 -23.65 138.85 -20.5 129.65 -17.95 Q121.0 -15.95 116.05 -16.35 L115.6 -0.35 119.3 -0.35 128.25 -1.45 Q139.5 -3.75 146.2 -9.8 L149.15 -13.0 181.3 -6.9 181.1 -6.55 181.0 -6.35 180.7 -5.65 Q179.8 -3.15 179.5 -0.8 L179.5 -0.65 179.45 -0.55 179.45 -0.4 179.4 -0.1 179.4 0.0 179.35 0.15 179.35 0.2 179.25 1.75 110.5 5.5 110.5 16.45 Q110.5 18.2 109.25 19.5 107.95 20.75 106.15 20.75 L97.45 20.75 98.2 23.2 111.45 22.05 111.95 22.0 111.85 22.0 111.45 22.05 111.85 22.0 111.95 22.0 112.4 21.95 113.0 21.9 113.8 21.85 113.85 21.85 114.85 21.75 115.1 21.7 112.15 12.7 Q114.05 12.1 114.7 13.9 L119.05 27.65 123.4 41.25 119.2 41.45 118.5 39.25 120.4 38.25 116.35 25.65 116.5 25.6 116.15 23.55 Q116.1 21.6 115.1 21.7 116.1 21.6 116.15 23.55 L98.85 25.15 98.9 25.4 99.45 27.15 99.7 27.9 100.0 28.9 101.5 33.6 101.55 33.6 116.3 32.3 117.1 32.2 Q118.1 32.1 118.15 34.05 L102.15 35.55 101.85 34.55 102.15 35.55 102.45 36.5 102.55 36.85 102.75 37.5 102.75 37.55 103.15 38.7 104.3 42.35 103.6 42.4 101.7 42.5 91.7 11.3 91.7 6.55 90.9 6.6 90.75 -1.0 90.6 -3.35 90.9 -3.5 91.0 -3.6 Q91.45 -4.15 91.7 -5.7 L91.7 6.55 91.7 -5.7 Q91.45 -4.15 91.0 -3.6 L90.9 -3.5 90.6 -3.35 90.75 -1.0 90.9 6.6 90.6 10.7 90.4 11.7 90.2 12.2 90.2 12.25 89.9 12.7 89.85 12.85 89.8 12.95 89.65 13.15 89.6 13.25 89.55 13.3 89.05 13.8 Q88.6 14.05 88.2 13.6 87.0 12.3 87.0 6.8 L65.5 7.95 63.1 8.05 55.5 8.5 55.0 8.5 53.15 8.6 53.45 -3.0 53.45 -3.45 53.5 -4.75 58.6 -3.85 59.05 -3.8 58.95 -3.55 58.85 -2.8 58.85 2.3 Q58.85 4.05 60.6 4.05 L65.55 4.05 Q67.3 4.05 67.3 2.3 L67.3 -2.95 75.45 -2.65 76.4 -2.65 75.45 -2.65 75.45 2.3 Q75.45 4.05 77.15 4.05 L82.15 4.05 Q83.85 4.05 83.85 2.3 L83.85 -2.8 83.85 -3.1 86.65 -3.5 86.65 -12.4 86.75 -8.55 88.25 -8.3 88.45 -8.3 88.95 -12.5 88.95 -12.8 89.05 -16.2 89.05 -16.25 88.5 -17.6 88.4 -18.5 88.2 -20.6 88.05 -21.85 87.75 -25.1 88.05 -21.85 88.2 -20.6 88.4 -18.5 88.0 -18.5 86.65 -18.25 86.65 -24.35 82.85 -13.35 79.9 -13.05 Q66.4 -12.0 53.7 -13.6 L51.85 -13.85 40.05 -16.35 40.15 -16.35 46.55 -18.35 49.15 -19.1 52.35 -20.0 62.65 -22.5 Q70.35 -24.1 76.6 -24.6 L81.95 -24.85 83.0 -24.8 84.4 -24.75 86.65 -24.35 84.4 -24.75 87.75 -25.1 87.4 -29.95 87.4 -30.55 Q73.95 -23.9 44.05 -21.75 L24.2 -20.95 15.9 -21.0 Q15.15 -20.1 15.6 -18.5 L15.95 -17.65 Q16.65 -16.0 18.5 -13.7 15.55 -14.65 12.6 -17.3 L12.5 -17.35 12.2 -17.65 M53.1 9.15 L52.55 27.75 52.15 28.3 46.8 27.9 48.85 -5.55 50.15 -5.3 53.45 -4.75 53.45 -3.45 53.1 9.15 M53.75 31.3 L59.6 45.45 34.45 47.45 29.4 47.85 30.4 47.45 42.4 32.95 45.65 34.0 Q49.4 34.35 53.2 31.75 L53.75 31.3 M38.65 9.35 L34.65 9.55 -3.1 11.55 -3.1 26.4 Q-3.1 27.95 -4.05 29.15 L-4.35 29.45 -6.05 30.5 -7.4 30.7 -17.55 30.7 Q-19.35 30.7 -20.6 29.45 -21.85 28.2 -21.85 26.4 L-21.85 12.5 -137.95 17.65 Q-149.15 17.2 -168.65 11.4 L-185.9 5.65 -186.85 6.25 -187.55 3.25 -185.85 3.4 -176.0 3.85 -176.9 6.3 -163.25 6.95 -162.65 3.75 -149.6 2.7 Q-140.7 1.55 -140.7 -0.15 -140.7 -1.8 -149.6 -3.0 L-151.5 -3.25 Q-147.1 -3.75 -144.35 -4.6 L-143.15 -5.05 Q-150.55 -6.85 -160.65 -7.5 L-172.65 -7.85 -181.1 -7.75 -202.2 -6.35 Q-202.2 -8.05 -193.35 -9.2 L-190.45 -9.55 -194.3 -26.35 -184.9 -26.85 Q-178.55 -26.65 -173.25 -25.0 -158.25 -20.25 -141.0 -22.1 L-134.0 -23.1 -119.3 -0.35 -119.15 0.45 Q-118.55 1.35 -116.2 1.65 -108.7 2.65 -86.65 -2.35 L-57.45 -7.2 Q-22.7 -12.7 8.15 -16.8 L8.3 -16.55 Q10.65 -12.55 13.05 -9.75 16.25 -6.0 19.45 -4.55 L39.55 -5.8 39.45 -4.45 38.75 -4.55 33.8 -4.55 Q32.05 -4.55 32.05 -2.8 L32.05 2.3 Q32.05 4.05 33.8 4.05 L38.75 4.05 38.95 4.05 38.65 9.35 M5.35 -26.35 Q12.05 -24.35 44.6 -27.35 L87.35 -32.1 87.4 -30.55 87.35 -32.1 44.6 -27.35 Q12.05 -24.35 5.35 -26.35 M19.45 -4.55 L19.15 -4.55 Q17.4 -4.55 17.4 -2.8 L17.4 2.3 Q17.4 4.05 19.15 4.05 L24.1 4.05 Q25.85 4.05 25.85 2.3 L25.85 -2.8 Q25.85 -4.55 24.1 -4.55 L19.45 -4.55 M5.15 -4.55 Q3.4 -4.55 3.4 -2.8 L3.4 2.3 Q3.4 4.05 5.15 4.05 L10.1 4.05 Q11.85 4.05 11.85 2.3 L11.85 -2.8 Q11.85 -4.55 10.1 -4.55 L5.15 -4.55 M87.35 -32.1 Q87.3 -34.6 87.5 -35.95 L88.0 -37.65 87.5 -35.95 Q87.3 -34.6 87.35 -32.1 M89.95 -21.9 Q89.4 -21.1 89.2 -18.45 89.05 -17.5 89.05 -16.25 89.05 -17.5 89.2 -18.45 89.4 -21.1 89.95 -21.9 L90.5 -22.25 90.7 -22.2 90.5 -22.25 89.95 -21.9 M90.85 -23.7 L90.7 -22.2 90.85 -23.7 91.0 -25.2 90.85 -23.7 M110.5 5.5 L110.5 -8.6 Q110.5 -10.35 109.25 -11.65 107.95 -12.9 106.15 -12.9 L100.35 -12.9 Q99.75 -11.65 96.75 -10.4 L95.45 -9.9 94.9 -9.7 92.05 -8.85 92.1 -11.5 92.1 -11.7 92.1 -12.8 91.95 -18.05 95.3 -17.1 Q100.45 -15.45 100.5 -13.55 L100.35 -12.9 100.5 -13.55 Q100.45 -15.45 95.3 -17.1 L91.95 -18.05 92.1 -12.8 92.1 -11.7 92.1 -11.5 92.05 -8.85 94.9 -9.7 95.45 -9.9 96.75 -10.4 Q99.75 -11.65 100.35 -12.9 L106.15 -12.9 Q107.95 -12.9 109.25 -11.65 110.5 -10.35 110.5 -8.6 L110.5 5.5 M91.05 -21.9 L90.7 -22.2 91.05 -21.9 Q91.65 -21.05 91.95 -18.05 91.65 -21.05 91.05 -21.9 M88.95 -12.5 Q88.95 -10.1 89.1 -8.35 89.35 -3.35 90.5 -3.35 L90.6 -3.35 90.5 -3.35 Q89.35 -3.35 89.1 -8.35 88.95 -10.1 88.95 -12.5 M97.45 20.75 L94.9 12.85 Q94.15 10.5 91.7 11.3 94.15 10.5 94.9 12.85 L97.45 20.75 M94.85 -7.15 L94.85 -2.1 Q94.85 0.25 99.15 0.25 L103.0 0.25 Q107.3 0.25 107.3 -2.1 L107.3 -7.15 Q107.3 -9.55 103.0 -9.55 L99.15 -9.55 Q94.85 -9.55 94.85 -7.15 94.85 -9.55 99.15 -9.55 L103.0 -9.55 Q107.3 -9.55 107.3 -7.15 L107.3 -2.1 Q107.3 0.25 103.0 0.25 L99.15 0.25 Q94.85 0.25 94.85 -2.1 L94.85 -7.15 M91.7 -5.7 L92.05 -8.85 91.7 -5.7 M191.9 -2.65 Q202.05 0.1 202.5 4.45 201.85 3.2 198.85 2.05 192.95 -0.3 181.5 0.1 L181.85 -4.55 191.9 -2.65 M175.1 42.95 Q164.85 60.6 107.05 68.95 88.95 71.55 68.3 72.95 L51.25 73.8 48.1 66.7 -80.6 62.25 -82.0 57.6 175.1 42.95 M108.5 9.0 L108.75 8.7 108.75 2.15 108.5 1.85 Q108.15 1.85 108.15 2.15 L108.15 8.7 Q108.15 9.0 108.5 9.0 108.15 9.0 108.15 8.7 L108.15 2.15 Q108.15 1.85 108.5 1.85 L108.75 2.15 108.75 8.7 108.5 9.0 M112.4 21.95 L111.85 22.0 112.4 21.95 M89.8 12.95 L89.85 12.85 89.8 12.95 89.65 13.15 89.8 12.95 M88.45 -8.3 L87.25 1.1 87.0 6.8 87.25 1.1 88.45 -8.3 M101.85 34.55 L101.55 33.6 101.85 34.55 M98.2 23.2 L98.85 25.15 98.2 23.2 M-3.1 34.15 L-2.95 27.85 Q-2.85 26.35 -1.3 26.45 0.3 26.45 0.3 27.95 L0.15 34.05 -0.25 50.45 -3.5 50.7 -3.4 48.05 -22.35 48.05 -22.45 52.4 -25.7 52.65 -25.3 34.15 -25.15 27.85 Q-25.05 26.35 -23.5 26.45 -21.9 26.45 -21.9 27.95 L-22.05 34.2 -22.05 35.0 -21.85 34.95 -3.1 34.95 -3.1 34.15 M-145.2 -40.45 Q-157.95 -38.45 -166.05 -41.7 -168.6 -42.75 -173.15 -45.35 -178.2 -48.25 -181.25 -49.65 -191.7 -54.4 -200.4 -52.85 L-204.55 -70.95 -204.2 -69.6 -170.9 -73.3 -146.2 -42.0 -145.2 -40.45 M-190.45 -9.55 L-187.2 -9.85 -173.0 -10.4 -187.2 -9.85 -190.45 -9.55 M-160.4 -10.1 L-164.6 -19.35 -175.9 -19.7 -173.25 -11.35 -173.0 -10.4 -171.9 -10.4 -160.4 -10.1 -150.45 -9.2 Q-141.6 -8.05 -141.6 -6.35 -141.6 -5.4 -144.35 -4.6 -141.6 -5.4 -141.6 -6.35 -141.6 -8.05 -150.45 -9.2 L-160.4 -10.1 M-3.1 11.55 L-3.1 1.4 Q-3.1 -0.35 -4.35 -1.65 -5.6 -2.9 -7.4 -2.9 L-17.55 -2.9 Q-19.35 -2.9 -20.6 -1.65 -21.85 -0.35 -21.85 1.4 L-21.85 12.5 -21.85 1.4 Q-21.85 -0.35 -20.6 -1.65 -19.35 -2.9 -17.55 -2.9 L-7.4 -2.9 Q-5.6 -2.9 -4.35 -1.65 -3.1 -0.35 -3.1 1.4 L-3.1 11.55 M-4.8 12.15 Q-4.8 11.8 -5.1 11.8 -5.4 11.8 -5.4 12.15 L-5.4 18.7 -5.1 19.0 Q-4.8 19.0 -4.8 18.7 L-4.8 12.15 -4.8 18.7 Q-4.8 19.0 -5.1 19.0 L-5.4 18.7 -5.4 12.15 Q-5.4 11.8 -5.1 11.8 -4.8 11.8 -4.8 12.15 M-6.25 7.85 L-6.25 2.85 Q-6.25 0.45 -10.55 0.45 L-14.4 0.45 Q-18.7 0.45 -18.7 2.85 L-18.7 7.85 Q-18.7 10.25 -14.4 10.25 L-10.55 10.25 Q-6.25 10.25 -6.25 7.85 M-22.05 35.0 Q-22.95 35.05 -22.95 36.05 -22.95 37.0 -22.1 37.15 -22.95 37.0 -22.95 36.05 -22.95 35.05 -22.05 35.0 M-21.85 37.15 L-22.1 37.15 -22.2 40.25 -3.25 40.25 -3.15 37.15 -21.85 37.15 M-22.25 42.5 L-22.7 42.5 Q-23.35 42.5 -23.65 42.15 -23.35 42.5 -22.7 42.5 L-22.25 42.5 -22.3 45.8 -22.5 45.8 Q-23.6 45.8 -23.6 46.95 -23.6 48.05 -22.5 48.05 L-22.35 48.05 -22.5 48.05 Q-23.6 48.05 -23.6 46.95 -23.6 45.8 -22.5 45.8 L-22.3 45.8 -3.35 45.8 -2.5 45.8 Q-1.4 45.8 -1.4 46.95 -1.4 48.05 -2.5 48.05 L-3.4 48.05 -2.5 48.05 Q-1.4 48.05 -1.4 46.95 -1.4 45.8 -2.5 45.8 L-3.35 45.8 -3.3 42.5 -22.25 42.5 M-23.65 40.65 Q-23.35 40.25 -22.7 40.25 L-22.2 40.25 -22.7 40.25 Q-23.35 40.25 -23.65 40.65 L-23.85 41.4 -23.65 42.15 -23.85 41.4 -23.65 40.65 M-3.25 40.25 L-2.75 40.25 Q-1.6 40.25 -1.6 41.4 -1.6 42.5 -2.75 42.5 L-3.3 42.5 -2.75 42.5 Q-1.6 42.5 -1.6 41.4 -1.6 40.25 -2.75 40.25 L-3.25 40.25 M-3.1 34.95 L-1.85 34.95 Q-0.75 34.95 -0.75 36.05 -0.75 37.15 -1.85 37.15 L-3.15 37.15 -1.85 37.15 Q-0.75 37.15 -0.75 36.05 -0.75 34.95 -1.85 34.95 L-3.1 34.95" fill="#ffffff" fill-opacity="0.0" fill-rule="evenodd" stroke="none"/>
    <path d="M113.0 21.9 L110.85 15.15 Q110.2 13.35 112.15 12.7 L115.1 21.7 114.85 21.75 114.2 21.8 113.0 21.9 M118.5 39.25 L117.55 36.2 102.8 37.55 102.8 37.5 117.15 36.2 102.8 37.5 102.6 36.9 102.55 36.85 102.45 36.5 102.15 35.55 118.15 34.05 Q118.1 32.1 117.1 32.2 L116.3 32.3 114.95 27.95 114.25 25.85 114.8 25.8 114.25 25.85 99.45 27.15 98.9 25.4 98.85 25.15 116.15 23.55 116.5 25.6 116.35 25.65 120.4 38.25 118.5 39.25 M101.7 42.5 L99.0 42.7 94.7 29.25 89.95 14.4 89.8 13.6 89.8 13.55 89.8 13.4 89.85 12.9 89.85 12.85 89.9 12.7 90.2 12.25 90.2 12.2 90.9 11.65 91.2 11.5 91.7 11.3 101.7 42.5 M52.15 28.3 L52.55 28.3 53.35 30.25 53.6 30.95 53.75 31.3 53.2 31.75 Q49.4 34.35 45.65 34.0 L42.4 32.95 30.4 47.45 29.4 47.85 27.75 47.95 21.8 48.5 38.8 32.5 43.9 27.65 44.25 27.7 43.9 26.9 44.95 9.0 45.85 -6.05 47.9 -5.7 48.3 -5.65 48.85 -5.55 47.0 -5.9 45.85 -6.1 44.5 -6.3 44.05 -6.4 Q40.7 -8.05 40.05 -12.35 L40.05 -14.65 40.05 -15.2 18.5 -13.7 Q16.65 -16.0 15.95 -17.65 L15.6 -18.5 Q15.15 -20.1 15.9 -21.0 L24.2 -20.95 44.05 -21.75 Q73.95 -23.9 87.4 -30.55 L87.4 -29.95 83.65 -26.25 83.05 -25.75 82.4 -25.2 81.95 -24.85 76.6 -24.6 Q70.35 -24.1 62.65 -22.5 L52.35 -20.0 49.15 -19.1 46.55 -18.35 40.15 -16.35 40.05 -16.35 51.85 -13.85 53.7 -13.6 Q66.4 -12.0 79.9 -13.05 L82.85 -13.35 86.65 -24.35 86.65 -18.25 86.65 -12.4 86.65 -18.25 88.0 -18.5 88.4 -18.5 88.5 -17.6 89.05 -16.25 89.05 -16.2 88.95 -12.8 88.95 -12.5 88.45 -8.3 88.25 -8.3 86.75 -8.55 86.65 -12.4 86.65 -3.5 83.85 -3.1 83.75 -3.1 78.8 -2.75 77.3 -2.7 76.75 -2.65 76.55 -2.65 76.4 -2.65 75.45 -2.65 67.3 -2.95 62.55 -3.4 61.45 -3.5 60.75 -3.6 60.3 -3.65 59.05 -3.8 58.6 -3.85 53.5 -4.75 53.45 -4.75 50.15 -5.3 48.85 -5.55 46.8 27.9 44.25 27.7 46.8 27.9 52.15 28.3 M-188.95 -3.0 L-193.35 -3.5 Q-202.2 -4.65 -202.2 -6.35 L-181.1 -7.75 -172.65 -7.85 -160.65 -7.5 Q-150.55 -6.85 -143.15 -5.05 L-144.35 -4.6 Q-146.55 -4.0 -150.45 -3.5 L-152.0 -3.3 -158.7 -2.7 -161.5 -2.6 -171.9 -2.3 -173.75 -2.3 -186.9 -2.8 -188.95 -3.0 M40.05 -16.35 L40.05 -15.2 40.05 -16.35 M175.1 42.95 L171.8 49.6 Q151.0 69.15 98.05 75.3 81.5 77.25 63.7 77.6 L49.25 77.55 45.9 72.25 -80.0 64.25 -80.6 62.25 48.1 66.7 51.25 73.8 68.3 72.95 Q88.95 71.55 107.05 68.95 164.85 60.6 175.1 42.95 M115.3 25.75 Q116.15 25.55 116.15 23.65 L116.15 23.55 116.15 23.65 Q116.15 25.55 115.3 25.75 L114.8 25.8 115.15 25.75 115.2 25.75 115.35 25.75 115.3 25.75 M117.15 36.2 L117.5 36.1 Q118.15 35.7 118.15 34.15 L118.15 34.05 118.15 34.15 Q118.15 35.7 117.5 36.1 L117.15 36.2 M-204.55 -70.95 L-169.25 -77.6 -146.2 -42.0 -170.9 -73.3 -204.2 -69.6 -204.55 -70.95" fill="#000000" fill-opacity="0.101960786" fill-rule="evenodd" stroke="none"/>
    <path d="M182.4 -6.7 L198.4 -3.7 Q200.9 -2.85 202.35 -0.8 L202.6 -0.5 202.8 -0.25 202.9 -0.1 203.4 0.6 203.55 0.85 203.6 0.9 203.7 1.05 Q204.6 2.75 204.55 4.65 L204.5 4.6 204.4 3.1 204.2 3.3 203.4 3.9 Q200.75 5.8 198.75 5.65 L179.65 8.25 Q179.1 4.9 179.25 1.75 L179.35 0.2 179.35 0.15 179.4 0.0 179.4 -0.1 179.45 -0.4 179.45 -0.55 179.5 -0.65 179.5 -0.8 Q179.8 -3.15 180.7 -5.65 L181.0 -6.35 181.1 -6.55 181.3 -6.9 182.4 -6.7 M-187.55 3.25 L-188.95 -3.0 -186.9 -2.8 -173.75 -2.3 -171.9 -2.3 -161.5 -2.6 -158.7 -2.7 -157.6 -2.7 -151.5 -3.25 -149.6 -3.0 Q-140.7 -1.8 -140.7 -0.15 -140.7 1.55 -149.6 2.7 L-162.65 3.75 -163.25 6.95 -176.9 6.3 -176.0 3.85 -185.85 3.4 -187.55 3.25 M8.15 -16.8 L9.7 -17.0 9.85 -17.0 12.6 -17.3 Q15.55 -14.65 18.5 -13.7 L40.05 -15.2 40.05 -14.65 39.55 -5.8 19.45 -4.55 Q16.25 -6.0 13.05 -9.75 10.65 -12.55 8.3 -16.55 L8.15 -16.8 M191.9 -2.65 L181.85 -4.55 181.5 0.1 Q192.95 -0.3 198.85 2.05 201.85 3.2 202.5 4.45 202.05 0.1 191.9 -2.65 M-160.4 -10.1 L-171.9 -10.4 -173.0 -10.4 -173.25 -11.35 -175.9 -19.7 -164.6 -19.35 -160.4 -10.1 M-176.0 3.85 L-173.75 -2.3 -176.0 3.85 M-161.5 -2.6 L-162.65 3.75 -161.5 -2.6" fill="#000000" fill-opacity="0.2" fill-rule="evenodd" stroke="none"/>
    <path d="M44.95 9.0 L38.95 9.35 38.65 9.35 38.95 4.05 Q40.5 3.95 40.5 2.3 L40.5 -2.8 Q40.5 -4.15 39.45 -4.45 L39.55 -5.8 40.05 -14.65 40.05 -12.35 Q40.7 -8.05 44.05 -6.4 L44.5 -6.3 45.85 -6.05 44.95 9.0" fill="#000000" fill-opacity="0.3019608" fill-rule="evenodd" stroke="none"/>
    <path d="M204.45 5.35 L203.75 7.65 Q202.9 9.5 198.05 11.75 L195.8 12.75 Q192.05 14.3 187.2 15.9 L184.45 16.8 183.5 17.1 183.1 17.2 182.45 17.4 182.4 17.4 Q181.4 14.85 180.75 12.75 180.05 10.45 179.65 8.25 L198.75 5.65 Q200.75 5.8 203.4 3.9 L204.2 3.3 204.4 3.1 204.5 4.6 204.5 4.95 204.45 5.35" fill="#000000" fill-opacity="0.4" fill-rule="evenodd" stroke="none"/>
    <path d="M12.2 -17.65 Q10.25 -19.45 8.25 -22.0 L5.35 -26.35 Q3.0 -27.05 3.75 -28.35 L25.3 -34.15 Q49.35 -40.15 62.1 -41.0 L72.6 -41.05 Q83.95 -40.55 88.0 -37.65 L88.45 -38.4 Q89.2 -39.3 89.85 -38.7 91.65 -37.1 91.2 -27.3 L91.0 -25.25 91.0 -25.2 92.0 -25.2 130.65 -24.5 131.75 -24.3 133.15 -24.0 134.5 -23.65 138.85 -20.5 149.15 -13.0 181.3 -6.9 181.3 -6.95 182.4 -6.7 198.4 -3.7 Q200.9 -2.85 202.35 -0.8 L202.6 -0.5 202.8 -0.25 202.9 -0.1 203.4 0.6 203.55 0.85 203.6 0.9 203.7 1.05 Q204.6 2.75 204.55 4.65 L204.5 4.95 204.45 5.35 203.75 7.65 Q202.9 9.5 198.05 11.75 L195.8 12.75 Q192.05 14.3 187.2 15.9 L184.45 16.8 183.5 17.1 183.1 17.2 182.45 17.4 182.4 17.4 M119.05 27.65 L123.4 41.25 119.2 41.45 118.5 39.25 117.55 36.2 M102.8 37.55 L104.3 42.35 103.6 42.4 101.7 42.5 99.0 42.7 94.7 29.25 M53.35 30.25 L53.6 30.95 M53.75 31.3 L59.6 45.45 M21.8 48.5 L38.8 32.5 M-186.85 6.25 L-187.55 3.25 -188.95 -3.0 -193.35 -3.5 Q-202.2 -4.65 -202.2 -6.35 -202.2 -8.05 -193.35 -9.2 L-190.45 -9.55 -194.3 -26.35 M-134.0 -23.1 L-119.3 -0.35 -119.15 0.45 Q-118.55 1.35 -116.2 1.65 -108.7 2.65 -86.65 -2.35 L-57.45 -7.2 Q-22.7 -12.7 8.15 -16.8 M83.65 -26.25 L87.4 -29.95 87.4 -30.55 M86.65 -24.35 L84.4 -24.75 83.0 -24.8 81.95 -24.85 82.4 -25.2 82.75 -25.5 82.95 -25.65 83.05 -25.75 M82.4 -25.2 L81.95 -24.85 M82.95 -25.65 L83.65 -26.25 M87.4 -29.95 L87.75 -25.1 84.4 -24.75 M89.95 -21.9 L90.5 -22.25 90.7 -22.2 91.05 -21.9 M90.85 -23.7 L91.0 -25.2 M182.4 -6.7 L181.3 -6.9 M204.5 4.6 L204.55 4.65 M-80.6 62.25 L-80.0 64.25 45.9 72.25 49.25 77.55 63.7 77.6 Q81.5 77.25 98.05 75.3 151.0 69.15 171.8 49.6 L175.1 42.95 M-80.6 62.25 L-82.0 57.6 M114.95 27.95 L116.3 32.3 101.55 33.6 101.85 34.55 102.15 35.55 102.45 36.5 M117.15 36.2 L102.8 37.5 102.8 37.55 103.15 38.7 104.3 42.35 M100.05 28.9 L101.55 33.6 101.5 33.6 M100.0 28.9 L100.05 28.9 M102.6 36.9 L102.8 37.5 102.75 37.5 M0.15 34.05 L-0.25 50.45 M-3.5 50.7 L-3.4 48.05 -22.35 48.05 -22.45 52.4 M-25.7 52.65 L-25.3 34.15 M-22.05 34.2 L-22.05 35.0 M-21.85 34.95 L-3.1 34.95 -3.1 34.15 M-200.4 -52.85 L-204.55 -70.95 -169.25 -77.6 -146.2 -42.0 -145.2 -40.45 M-22.1 37.15 L-22.2 40.25 -3.25 40.25 -3.15 37.15 -21.85 37.15 M-22.25 42.5 L-3.3 42.5 -3.35 45.8 -22.3 45.8 -22.25 42.5 M-23.65 40.65 L-23.85 41.4 -23.65 42.15" fill="none" stroke="#000000" stroke-linecap="round" stroke-linejoin="round" stroke-width="1.0"/>
    <path d="M182.4 17.4 Q181.4 14.85 180.75 12.75 180.05 10.45 179.65 8.25 179.1 4.9 179.25 1.75 L179.35 0.2 179.35 0.15 179.4 0.0 179.4 -0.1 179.45 -0.4 179.45 -0.55 179.5 -0.65 179.5 -0.8 Q179.8 -3.15 180.7 -5.65 L181.0 -6.35 181.1 -6.55 181.3 -6.9 M110.5 5.5 L110.5 16.45 Q110.5 18.2 109.25 19.5 107.95 20.75 106.15 20.75 L97.45 20.75 98.2 23.2 111.45 22.05 111.85 22.0 111.95 22.0 112.2 21.95 113.0 21.9 110.85 15.15 Q110.2 13.35 112.15 12.7 114.05 12.1 114.7 13.9 L119.05 27.65 M94.7 29.25 L89.95 14.4 89.8 13.6 89.8 13.55 89.8 13.4 89.8 13.0 89.8 12.95 89.65 13.15 89.6 13.25 89.55 13.3 89.05 13.8 Q88.6 14.05 88.2 13.6 87.0 12.3 87.0 6.8 L87.25 1.1 88.45 -8.3 88.95 -12.5 88.95 -12.8 89.05 -16.2 89.05 -16.25 Q89.05 -17.5 89.2 -18.45 89.4 -21.1 89.95 -21.9 M53.15 8.6 L53.1 9.15 52.55 27.75 52.15 28.3 52.55 28.3 53.35 30.25 M59.6 45.45 L34.45 47.45 29.4 47.85 27.75 47.95 21.8 48.5 M38.8 32.5 L43.9 27.65 44.25 27.7 43.9 26.9 44.95 9.0 45.85 -6.05 44.5 -6.3 45.85 -6.1 47.0 -5.9 47.9 -5.7 48.3 -5.65 48.85 -5.55 50.15 -5.3 53.45 -4.75 53.5 -4.75 58.6 -3.85 59.05 -3.8 60.3 -3.65 60.75 -3.6 M-3.1 11.55 L-3.1 26.4 Q-3.1 27.95 -4.05 29.15 L-4.35 29.45 -6.05 30.5 -7.4 30.7 -17.55 30.7 Q-19.35 30.7 -20.6 29.45 -21.85 28.2 -21.85 26.4 L-21.85 12.5 -21.85 1.4 Q-21.85 -0.35 -20.6 -1.65 -19.35 -2.9 -17.55 -2.9 L-7.4 -2.9 Q-5.6 -2.9 -4.35 -1.65 -3.1 -0.35 -3.1 1.4 L-3.1 11.55 M8.15 -16.8 L9.7 -17.0 9.85 -17.0 12.5 -17.35 12.2 -17.65 M87.4 -30.55 L87.35 -32.1 44.6 -27.35 Q12.05 -24.35 5.35 -26.35 M12.6 -17.3 Q15.55 -14.65 18.5 -13.7 L40.05 -15.2 40.05 -16.35 40.15 -16.35 46.55 -18.35 49.15 -19.1 52.35 -20.0 62.65 -22.5 Q70.35 -24.1 76.6 -24.6 L81.95 -24.85 M12.5 -17.35 L12.6 -17.3 9.85 -17.0 M40.05 -14.65 L40.05 -15.2 M44.5 -6.3 L44.05 -6.4 Q40.7 -8.05 40.05 -12.35 L40.05 -14.65 M67.3 -2.95 L75.45 -2.65 76.4 -2.65 76.55 -2.65 M76.75 -2.65 L77.3 -2.7 78.8 -2.75 83.75 -3.1 83.85 -3.1 86.65 -3.5 86.65 -12.4 86.65 -18.25 86.65 -24.35 M47.0 -5.9 L45.85 -6.05 45.85 -6.1 M53.45 -4.75 L53.45 -3.45 53.5 -4.75 M53.45 -3.45 L53.45 -3.0 53.15 8.6 M75.45 -2.65 L76.4 -2.65 M83.85 -2.8 L83.85 -3.1 M88.0 -37.65 L87.5 -35.95 Q87.3 -34.6 87.35 -32.1 M87.75 -25.1 L88.05 -21.85 88.2 -20.6 88.4 -18.5 88.5 -17.6 89.05 -16.25 M90.7 -22.2 L90.85 -23.7 M100.35 -12.9 L100.5 -13.55 Q100.45 -15.45 95.3 -17.1 L91.95 -18.05 92.1 -12.8 92.1 -11.7 92.1 -11.5 92.05 -8.85 94.9 -9.7 95.45 -9.9 96.75 -10.4 Q99.75 -11.65 100.35 -12.9 L106.15 -12.9 Q107.95 -12.9 109.25 -11.65 110.5 -10.35 110.5 -8.6 L110.5 5.5 M91.05 -21.9 Q91.65 -21.05 91.95 -18.05 M86.65 -12.4 L86.75 -8.55 88.25 -8.3 88.45 -8.3 M88.4 -18.5 L88.0 -18.5 86.65 -18.25 M91.7 6.55 L91.7 -5.7 Q91.45 -4.15 91.0 -3.6 L90.9 -3.5 90.6 -3.35 90.75 -1.0 90.9 6.6 91.7 6.55 91.7 11.3 Q94.15 10.5 94.9 12.85 L97.45 20.75 M90.6 -3.35 L90.5 -3.35 Q89.35 -3.35 89.1 -8.35 88.95 -10.1 88.95 -12.5 M92.05 -8.85 L91.7 -5.7 M138.85 -20.5 L129.65 -17.95 Q121.0 -15.95 116.05 -16.35 L115.6 -0.35 119.3 -0.35 128.25 -1.45 Q139.5 -3.75 146.2 -9.8 L149.15 -13.0 M113.8 21.85 L113.0 21.9 113.8 21.85 113.85 21.85 114.85 21.75 115.1 21.7 Q116.1 21.6 116.15 23.55 L116.15 23.65 Q116.15 25.55 115.3 25.75 L115.2 25.75 115.15 25.75 114.8 25.8 114.25 25.85 114.95 27.95 M112.4 21.95 L113.0 21.9 M111.85 22.0 L112.4 21.95 M116.3 32.3 L117.1 32.2 Q118.1 32.1 118.15 34.05 L118.15 34.15 Q118.15 35.7 117.5 36.1 L117.15 36.2 M90.9 11.65 L91.2 11.5 91.7 11.3 M90.4 11.7 L90.6 10.7 90.9 6.6 M90.2 12.25 L90.2 12.2 90.4 11.7 M90.25 12.15 L90.9 11.65 M90.2 12.2 L90.2 12.25 89.9 12.7 89.85 12.85 89.85 12.9 89.8 13.4 M90.2 12.2 L90.25 12.15 M89.85 12.85 L89.8 12.95 M98.9 25.4 L99.45 27.15 114.25 25.85 M99.7 27.9 L100.05 28.9 M99.45 27.15 L99.7 27.9 M101.85 34.55 L102.15 35.55 102.45 36.5 M102.55 36.85 L102.6 36.9 M98.85 25.15 L98.2 23.2 M46.8 27.9 L44.25 27.7 M52.15 28.3 L46.8 27.9 M-3.1 34.15 L-2.95 27.85 Q-2.85 26.35 -1.3 26.45 0.3 26.45 0.3 27.95 L0.15 34.05 M-0.25 50.45 L-3.5 50.7 M-22.45 52.4 L-25.7 52.65 M-25.3 34.15 L-25.15 27.85 Q-25.05 26.35 -23.5 26.45 -21.9 26.45 -21.9 27.95 L-22.05 34.2 M-22.05 35.0 L-21.85 34.95 M-173.0 -10.4 L-187.2 -9.85 -190.45 -9.55 M-173.75 -2.3 L-186.9 -2.8 -188.95 -3.0 M-160.4 -10.1 L-164.6 -19.35 -175.9 -19.7 -173.25 -11.35 -173.0 -10.4 -171.9 -10.4 -160.4 -10.1 -150.45 -9.2 Q-141.6 -8.05 -141.6 -6.35 -141.6 -5.4 -144.35 -4.6 -146.55 -4.0 -150.45 -3.5 L-152.0 -3.3 -158.7 -2.7 -161.5 -2.6 -171.9 -2.3 -173.75 -2.3 -176.0 3.85 -176.9 6.3 -163.25 6.95 -162.65 3.75 -161.5 -2.6 M-22.1 37.15 Q-22.95 37.0 -22.95 36.05 -22.95 35.05 -22.05 35.0 M-21.85 37.15 L-22.1 37.15 M-23.65 42.15 Q-23.35 42.5 -22.7 42.5 L-22.25 42.5 M-3.3 42.5 L-2.75 42.5 Q-1.6 42.5 -1.6 41.4 -1.6 40.25 -2.75 40.25 L-3.25 40.25 M-22.2 40.25 L-22.7 40.25 Q-23.35 40.25 -23.65 40.65 M-22.35 48.05 L-22.5 48.05 Q-23.6 48.05 -23.6 46.95 -23.6 45.8 -22.5 45.8 L-22.3 45.8 M-3.15 37.15 L-1.85 37.15 Q-0.75 37.15 -0.75 36.05 -0.75 34.95 -1.85 34.95 L-3.1 34.95 M-3.4 48.05 L-2.5 48.05 Q-1.4 48.05 -1.4 46.95 -1.4 45.8 -2.5 45.8 L-3.35 45.8" fill="none" stroke="#000000" stroke-linecap="round" stroke-linejoin="round" stroke-opacity="0.6" stroke-width="1.0"/>
    <path d="M179.25 1.75 L110.5 5.5 M87.0 6.8 L65.5 7.95 63.1 8.05 55.5 8.5 55.0 8.5 53.15 8.6 53.1 8.6 M44.95 9.0 L38.95 9.35 38.65 9.35 34.65 9.55 -3.1 11.55 M-21.85 12.5 L-137.95 17.65 Q-149.15 17.2 -168.65 11.4 L-185.9 5.65 -186.85 6.25 M-194.3 -26.35 L-184.9 -26.85 Q-178.55 -26.65 -173.25 -25.0 -158.25 -20.25 -141.0 -22.1 L-134.0 -23.1 M5.15 -4.55 L10.1 -4.55 Q11.85 -4.55 11.85 -2.8 L11.85 2.3 Q11.85 4.05 10.1 4.05 L5.15 4.05 Q3.4 4.05 3.4 2.3 L3.4 -2.8 Q3.4 -4.55 5.15 -4.55 M19.45 -4.55 L24.1 -4.55 Q25.85 -4.55 25.85 -2.8 L25.85 2.3 Q25.85 4.05 24.1 4.05 L19.15 4.05 Q17.4 4.05 17.4 2.3 L17.4 -2.8 Q17.4 -4.55 19.15 -4.55 L19.45 -4.55 M38.95 4.05 L38.75 4.05 33.8 4.05 Q32.05 4.05 32.05 2.3 L32.05 -2.8 Q32.05 -4.55 33.8 -4.55 L38.75 -4.55 39.45 -4.45 Q40.5 -4.15 40.5 -2.8 L40.5 2.3 Q40.5 3.95 38.95 4.05 M67.3 -2.95 L67.3 2.3 Q67.3 4.05 65.55 4.05 L60.6 4.05 Q58.85 4.05 58.85 2.3 L58.85 -2.8 58.95 -3.55 59.05 -3.8 M75.45 -2.65 L75.45 2.3 Q75.45 4.05 77.15 4.05 L82.15 4.05 Q83.85 4.05 83.85 2.3 L83.85 -2.8 M94.85 -7.15 Q94.85 -9.55 99.15 -9.55 L103.0 -9.55 Q107.3 -9.55 107.3 -7.15 L107.3 -2.1 Q107.3 0.25 103.0 0.25 L99.15 0.25 Q94.85 0.25 94.85 -2.1 L94.85 -7.15 M-82.0 57.6 L175.1 42.95 M108.5 9.0 Q108.15 9.0 108.15 8.7 L108.15 2.15 Q108.15 1.85 108.5 1.85 L108.75 2.15 108.75 8.7 108.5 9.0 M-145.2 -40.45 Q-157.95 -38.45 -166.05 -41.7 -168.6 -42.75 -173.15 -45.35 -178.2 -48.25 -181.25 -49.65 -191.7 -54.4 -200.4 -52.85 M-4.8 12.15 L-4.8 18.7 Q-4.8 19.0 -5.1 19.0 L-5.4 18.7 -5.4 12.15 Q-5.4 11.8 -5.1 11.8 -4.8 11.8 -4.8 12.15 M-6.25 7.85 Q-6.25 10.25 -10.55 10.25 L-14.4 10.25 Q-18.7 10.25 -18.7 7.85 L-18.7 2.85 Q-18.7 0.45 -14.4 0.45 L-10.55 0.45 Q-6.25 0.45 -6.25 2.85 L-6.25 7.85" fill="none" stroke="#000000" stroke-linecap="round" stroke-linejoin="round" stroke-opacity="0.4" stroke-width="1.0"/>
  </g>
</svg>
