<?xml version="1.0" encoding="UTF-8" standalone="no"?>
<svg xmlns:xlink="http://www.w3.org/1999/xlink" height="27.85px" width="49.5px" xmlns="http://www.w3.org/2000/svg">
  <g transform="matrix(1.0, 0.0, 0.0, 1.0, 25.65, 62.25)">
    <path d="M-24.8 -48.15 L-24.8 -48.2 -24.75 -48.2 -24.8 -48.15" fill="#aaaaaa" fill-rule="evenodd" stroke="none"/>
    <path d="M3.6 -53.5 L2.05 -53.15 Q1.35 -52.85 1.35 -52.4 1.35 -51.95 2.05 -51.6 2.7 -51.25 3.6 -51.25 L5.2 -51.6 Q5.85 -51.95 5.85 -52.4 5.85 -52.85 5.2 -53.15 L3.6 -53.5 M1.95 -57.7 Q2.6 -58.05 2.6 -58.5 2.6 -59.0 1.95 -59.3 L0.35 -59.65 -1.2 -59.3 Q-1.9 -59.0 -1.9 -58.5 -1.9 -58.05 -1.2 -57.7 L0.35 -57.4 1.95 -57.7 M8.55 -56.8 Q7.85 -56.5 7.85 -56.0 7.85 -55.55 8.55 -55.2 L10.1 -54.9 11.7 -55.2 Q12.35 -55.55 12.35 -56.0 12.35 -56.5 11.7 -56.8 L10.1 -57.15 8.55 -56.8 M-25.1 -49.75 L-25.15 -50.25 Q-25.15 -55.05 -18.05 -58.4 -10.95 -61.75 -0.9 -61.75 9.15 -61.75 16.25 -58.4 23.35 -55.05 23.35 -50.25 L23.25 -49.15 Q12.75 -45.75 -2.4 -45.75 -14.7 -45.75 -24.75 -48.2 L-25.1 -49.75 M-6.15 -52.75 L-7.7 -52.4 Q-8.4 -52.1 -8.4 -51.65 -8.4 -51.2 -7.7 -50.85 L-6.15 -50.5 Q-5.2 -50.5 -4.55 -50.85 -3.9 -51.2 -3.9 -51.65 -3.9 -52.1 -4.55 -52.4 L-6.15 -52.75 M-15.4 -55.4 L-16.95 -55.05 Q-17.65 -54.75 -17.65 -54.25 -17.65 -53.8 -16.95 -53.45 L-15.4 -53.15 Q-14.45 -53.15 -13.8 -53.45 -13.15 -53.8 -13.15 -54.25 -13.15 -54.75 -13.8 -55.05 L-15.4 -55.4 M-10.9 -57.65 Q-10.9 -57.2 -10.2 -56.85 -9.55 -56.5 -8.65 -56.5 -7.7 -56.5 -7.05 -56.85 -6.4 -57.2 -6.4 -57.65 -6.4 -58.1 -7.05 -58.4 -7.7 -58.75 -8.65 -58.75 L-10.2 -58.4 Q-10.9 -58.1 -10.9 -57.65" fill="#ffffff" fill-opacity="0.0" fill-rule="evenodd" stroke="none"/>
    <path d="M8.55 -56.8 L10.1 -57.15 11.7 -56.8 Q12.35 -56.5 12.35 -56.0 12.35 -55.55 11.7 -55.2 L10.1 -54.9 8.55 -55.2 Q7.85 -55.55 7.85 -56.0 7.85 -56.5 8.55 -56.8 M1.95 -57.7 L0.35 -57.4 -1.2 -57.7 Q-1.9 -58.05 -1.9 -58.5 -1.9 -59.0 -1.2 -59.3 L0.35 -59.65 1.95 -59.3 Q2.6 -59.0 2.6 -58.5 2.6 -58.05 1.95 -57.7 M3.6 -53.5 L5.2 -53.15 Q5.85 -52.85 5.85 -52.4 5.85 -51.95 5.2 -51.6 L3.6 -51.25 Q2.7 -51.25 2.05 -51.6 1.35 -51.95 1.35 -52.4 1.35 -52.85 2.05 -53.15 L3.6 -53.5 M-10.9 -57.65 Q-10.9 -58.1 -10.2 -58.4 L-8.65 -58.75 Q-7.7 -58.75 -7.05 -58.4 -6.4 -58.1 -6.4 -57.65 -6.4 -57.2 -7.05 -56.85 -7.7 -56.5 -8.65 -56.5 -9.55 -56.5 -10.2 -56.85 -10.9 -57.2 -10.9 -57.65 M-15.4 -55.4 L-13.8 -55.05 Q-13.15 -54.75 -13.15 -54.25 -13.15 -53.8 -13.8 -53.45 -14.45 -53.15 -15.4 -53.15 L-16.95 -53.45 Q-17.65 -53.8 -17.65 -54.25 -17.65 -54.75 -16.95 -55.05 L-15.4 -55.4 M-6.15 -52.75 L-4.55 -52.4 Q-3.9 -52.1 -3.9 -51.65 -3.9 -51.2 -4.55 -50.85 -5.2 -50.5 -6.15 -50.5 L-7.7 -50.85 Q-8.4 -51.2 -8.4 -51.65 -8.4 -52.1 -7.7 -52.4 L-6.15 -52.75" fill="#000000" fill-opacity="0.4" fill-rule="evenodd" stroke="none"/>
    <path d="M23.25 -49.15 Q22.5 -45.1 16.25 -42.1 L13.6 -41.0 -15.35 -41.0 -18.05 -42.1 Q-23.55 -44.75 -24.8 -48.15 L-24.75 -48.2 Q-14.7 -45.75 -2.4 -45.75 12.75 -45.75 23.25 -49.15" fill="#000000" fill-opacity="0.2" fill-rule="evenodd" stroke="none"/>
    <path d="M-24.8 -48.2 L-25.1 -49.75 -24.75 -48.2 -24.8 -48.2" fill="#ffffff" fill-rule="evenodd" stroke="none"/>
    <path d="M13.6 -41.0 L16.0 -41.0 Q17.2 -41.0 18.05 -40.15 18.85 -39.35 18.85 -38.15 18.85 -36.95 18.05 -36.1 17.35 -35.4 16.35 -35.25 L16.3 -35.25 16.0 -35.25 -16.3 -35.25 -18.75 -35.25 Q-19.95 -35.25 -20.8 -36.1 -21.65 -36.95 -21.65 -38.15 -21.65 -39.35 -20.8 -40.15 -19.95 -41.0 -18.75 -41.0 L-15.35 -41.0 13.6 -41.0" fill="#000000" fill-opacity="0.101960786" fill-rule="evenodd" stroke="none"/>
    <path d="M16.0 -35.25 L-16.3 -35.25 M13.6 -41.0 L-15.35 -41.0" fill="none" stroke="#000000" stroke-linecap="butt" stroke-linejoin="miter-clip" stroke-miterlimit="4.0" stroke-opacity="0.6" stroke-width="1.0"/>
    <path d="M8.55 -56.8 L10.1 -57.15 11.7 -56.8 Q12.35 -56.5 12.35 -56.0 12.35 -55.55 11.7 -55.2 L10.1 -54.9 8.55 -55.2 Q7.85 -55.55 7.85 -56.0 7.85 -56.5 8.55 -56.8 M1.95 -57.7 L0.35 -57.4 -1.2 -57.7 Q-1.9 -58.05 -1.9 -58.5 -1.9 -59.0 -1.2 -59.3 L0.35 -59.65 1.95 -59.3 Q2.6 -59.0 2.6 -58.5 2.6 -58.05 1.95 -57.7 M3.6 -53.5 L5.2 -53.15 Q5.85 -52.85 5.85 -52.4 5.85 -51.95 5.2 -51.6 L3.6 -51.25 Q2.7 -51.25 2.05 -51.6 1.35 -51.95 1.35 -52.4 1.35 -52.85 2.05 -53.15 L3.6 -53.5 M-10.9 -57.65 Q-10.9 -58.1 -10.2 -58.4 L-8.65 -58.75 Q-7.7 -58.75 -7.05 -58.4 -6.4 -58.1 -6.4 -57.65 -6.4 -57.2 -7.05 -56.85 -7.7 -56.5 -8.65 -56.5 -9.55 -56.5 -10.2 -56.85 -10.9 -57.2 -10.9 -57.65 M-15.4 -55.4 L-13.8 -55.05 Q-13.15 -54.75 -13.15 -54.25 -13.15 -53.8 -13.8 -53.45 -14.45 -53.15 -15.4 -53.15 L-16.95 -53.45 Q-17.65 -53.8 -17.65 -54.25 -17.65 -54.75 -16.95 -55.05 L-15.4 -55.4 M-6.15 -52.75 L-4.55 -52.4 Q-3.9 -52.1 -3.9 -51.65 -3.9 -51.2 -4.55 -50.85 -5.2 -50.5 -6.15 -50.5 L-7.7 -50.85 Q-8.4 -51.2 -8.4 -51.65 -8.4 -52.1 -7.7 -52.4 L-6.15 -52.75" fill="none" stroke="#000000" stroke-linecap="butt" stroke-linejoin="miter-clip" stroke-miterlimit="4.0" stroke-opacity="0.4" stroke-width="1.0"/>
    <path d="M-25.1 -49.75 L-25.15 -50.25 Q-25.15 -55.05 -18.05 -58.4 -10.95 -61.75 -0.9 -61.75 9.15 -61.75 16.25 -58.4 23.35 -55.05 23.35 -50.25 L23.25 -49.15 Q22.5 -45.1 16.25 -42.1 L13.6 -41.0 16.0 -41.0 Q17.2 -41.0 18.05 -40.15 18.85 -39.35 18.85 -38.15 18.85 -36.95 18.05 -36.1 17.35 -35.4 16.35 -35.25 L16.3 -35.25 16.0 -35.25 M-16.3 -35.25 L-18.75 -35.25 Q-19.95 -35.25 -20.8 -36.1 -21.65 -36.95 -21.65 -38.15 -21.65 -39.35 -20.8 -40.15 -19.95 -41.0 -18.75 -41.0 L-15.35 -41.0 -18.05 -42.1 Q-23.55 -44.75 -24.8 -48.15 L-24.8 -48.2 -25.1 -49.75 -24.75 -48.2" fill="none" stroke="#000000" stroke-linecap="butt" stroke-linejoin="miter-clip" stroke-miterlimit="4.0" stroke-width="1.0"/>
  </g>
</svg>
