<?xml version="1.0" encoding="UTF-8" standalone="no"?>
<svg xmlns:xlink="http://www.w3.org/1999/xlink" height="16.2px" width="16.15px" xmlns="http://www.w3.org/2000/svg">
  <g transform="matrix(1.0, 0.0, 0.0, 1.0, 8.05, 8.1)">
    <path d="M1.85 -3.4 L3.4 -1.85 1.55 0.0 3.4 1.85 1.85 3.4 0.0 1.55 -1.85 3.4 -3.4 1.85 -1.55 0.0 -3.4 -1.85 -1.85 -3.4 0.0 -1.55 1.85 -3.4" fill="#ffffff" fill-opacity="0.0" fill-rule="evenodd" stroke="none"/>
    <path d="M1.85 -3.4 L3.4 -1.85 1.55 0.0 3.4 1.85 1.85 3.4 0.0 1.55 -1.85 3.4 -3.4 1.85 -1.55 0.0 -3.4 -1.85 -1.85 -3.4 0.0 -1.55 1.85 -3.4 Z" fill="none" stroke="#000000" stroke-linecap="round" stroke-linejoin="round" stroke-width="1.0"/>
    <path d="M3.85 -3.85 Q2.25 -5.45 0.05 -5.45 -2.2 -5.45 -3.85 -3.85 -5.45 -2.25 -5.45 0.0 -5.45 2.25 -3.85 3.85 -2.2 5.45 0.05 5.45 2.25 5.45 3.85 3.85 5.5 2.25 5.5 0.0 5.5 -2.25 3.85 -3.85 M5.35 -5.4 Q7.6 -3.1 7.6 0.0 7.6 3.1 5.35 5.3 3.15 7.6 0.0 7.6 -3.1 7.6 -5.35 5.3 -7.55 3.1 -7.55 0.0 -7.55 -3.1 -5.35 -5.4 -3.1 -7.6 0.0 -7.6 3.15 -7.6 5.35 -5.4" fill="#ffffff" fill-opacity="0.0" fill-rule="evenodd" stroke="none"/>
    <path d="M3.85 -3.85 Q5.5 -2.25 5.5 0.0 5.5 2.25 3.85 3.85 2.25 5.45 0.05 5.45 -2.2 5.45 -3.85 3.85 -5.45 2.25 -5.45 0.0 -5.45 -2.25 -3.85 -3.85 -2.2 -5.45 0.05 -5.45 2.25 -5.45 3.85 -3.85 M5.35 -5.4 Q7.6 -3.1 7.6 0.0 7.6 3.1 5.35 5.3 3.15 7.6 0.0 7.6 -3.1 7.6 -5.35 5.3 -7.55 3.1 -7.55 0.0 -7.55 -3.1 -5.35 -5.4 -3.1 -7.6 0.0 -7.6 3.15 -7.6 5.35 -5.4" fill="none" stroke="#000000" stroke-linecap="round" stroke-linejoin="round" stroke-opacity="0.4" stroke-width="1.0"/>
  </g>
</svg>
