<?xml version="1.0" encoding="UTF-8" standalone="no"?>
<svg xmlns:xlink="http://www.w3.org/1999/xlink" height="16.2px" width="16.15px" xmlns="http://www.w3.org/2000/svg">
  <g transform="matrix(1.0, 0.0, 0.0, 1.0, 8.05, 8.1)">
    <path d="M-0.9 -3.95 L3.1 0.05 -0.85 4.0 -2.0 2.85 0.85 0.0 -2.0 -2.85 -0.9 -3.95" fill="#ffffff" fill-opacity="0.0" fill-rule="evenodd" stroke="none"/>
    <path d="M-0.9 -3.95 L3.1 0.05 -0.85 4.0 -2.0 2.85 0.85 0.0 -2.0 -2.85 -0.9 -3.95 Z" fill="none" stroke="#000000" stroke-linecap="round" stroke-linejoin="round" stroke-width="1.0"/>
    <path d="M4.15 -4.15 Q2.45 -5.9 0.05 -5.9 -2.4 -5.9 -4.15 -4.15 -5.9 -2.45 -5.9 0.0 -5.9 2.45 -4.15 4.15 -2.4 5.9 0.05 5.9 2.45 5.9 4.15 4.15 5.95 2.45 5.95 0.0 5.95 -2.45 4.15 -4.15 M5.35 -5.4 Q7.6 -3.1 7.6 0.0 7.6 3.1 5.35 5.3 3.15 7.6 0.0 7.6 -3.1 7.6 -5.35 5.3 -7.55 3.1 -7.55 0.0 -7.55 -3.1 -5.35 -5.4 -3.1 -7.6 0.0 -7.6 3.15 -7.6 5.35 -5.4" fill="#ffffff" fill-opacity="0.0" fill-rule="evenodd" stroke="none"/>
    <path d="M4.15 -4.15 Q5.95 -2.45 5.95 0.0 5.95 2.45 4.15 4.15 2.45 5.9 0.05 5.9 -2.4 5.9 -4.15 4.15 -5.9 2.45 -5.9 0.0 -5.9 -2.45 -4.15 -4.15 -2.4 -5.9 0.05 -5.9 2.45 -5.9 4.15 -4.15 M5.35 -5.4 Q7.6 -3.1 7.6 0.0 7.6 3.1 5.35 5.3 3.15 7.6 0.0 7.6 -3.1 7.6 -5.35 5.3 -7.55 3.1 -7.55 0.0 -7.55 -3.1 -5.35 -5.4 -3.1 -7.6 0.0 -7.6 3.15 -7.6 5.35 -5.4" fill="none" stroke="#000000" stroke-linecap="round" stroke-linejoin="round" stroke-opacity="0.4" stroke-width="1.0"/>
  </g>
</svg>
