<?xml version="1.0" encoding="UTF-8" standalone="no"?>
<svg xmlns:xlink="http://www.w3.org/1999/xlink" height="76.0px" width="71.8px" xmlns="http://www.w3.org/2000/svg">
  <g transform="matrix(1.0, 0.0, 0.0, 1.0, 35.9, 38.0)">
    <path d="M-12.75 -37.4 L29.4 -25.3 35.4 20.0 -12.1 37.4 -35.35 0.5 -12.75 -37.4" fill="#ffffff" fill-opacity="0.0" fill-rule="evenodd" stroke="none"/>
    <path d="M-12.75 -37.4 L-35.35 0.5 -12.1 37.4 35.4 20.0 29.4 -25.3 -12.75 -37.4 Z" fill="none" stroke="#000000" stroke-linecap="butt" stroke-linejoin="miter-clip" stroke-miterlimit="10.0" stroke-opacity="0.8" stroke-width="1.0"/>
    <path d="M15.0 -13.45 Q16.85 -13.75 18.45 -13.5 20.8 -13.15 21.3 -11.9 21.9 -10.4 19.85 -8.25 18.15 -6.45 16.4 -5.75 13.95 -4.65 11.0 -5.2 7.6 -5.85 8.45 -8.7 9.0 -10.6 11.1 -11.95 12.95 -13.2 15.0 -13.45 M16.95 -11.6 Q16.35 -12.1 15.55 -12.25 14.2 -12.6 13.05 -11.85 11.85 -11.1 11.55 -9.75 11.25 -8.4 12.0 -7.25 12.75 -6.1 14.1 -5.75 15.45 -5.45 16.65 -6.2 17.8 -6.95 18.1 -8.3 L18.15 -9.7 17.5 -9.65 16.75 -10.15 Q16.5 -10.6 16.6 -11.05 16.65 -11.4 16.95 -11.6 M26.9 -24.2 L26.9 -24.25 28.4 -23.75 34.15 19.5 32.4 19.0 27.1 -22.85 26.9 -22.75 -11.85 -34.0 -11.85 -35.75 26.9 -24.2 M-7.65 -3.6 Q-8.25 -4.05 -9.05 -4.25 -10.4 -4.55 -11.55 -3.8 -12.75 -3.1 -13.05 -1.7 -13.35 -0.4 -12.6 0.8 -11.85 2.0 -10.5 2.3 -9.15 2.6 -8.0 1.85 -6.85 1.1 -6.5 -0.25 -6.35 -0.95 -6.45 -1.65 L-7.1 -1.6 Q-7.6 -1.75 -7.85 -2.15 -8.1 -2.55 -8.0 -3.0 L-7.65 -3.6 M-16.2 -0.7 Q-15.6 -2.5 -13.55 -3.9 -11.7 -5.2 -9.6 -5.45 -7.65 -5.65 -6.15 -5.45 -3.8 -5.15 -3.3 -3.85 -2.75 -2.35 -4.75 -0.2 -6.45 1.55 -8.2 2.3 -10.65 3.35 -13.6 2.8 -17.05 2.15 -16.2 -0.7" fill="#ffffff" fill-rule="evenodd" stroke="none"/>
    <path d="M18.15 -9.7 L18.1 -8.3 Q17.8 -6.95 16.65 -6.2 15.45 -5.45 14.1 -5.75 12.75 -6.1 12.0 -7.25 11.25 -8.4 11.55 -9.75 11.85 -11.1 13.05 -11.85 14.2 -12.6 15.55 -12.25 16.35 -12.1 16.95 -11.6 16.65 -11.4 16.6 -11.05 16.5 -10.6 16.75 -10.15 L17.5 -9.65 18.15 -9.7 M-6.45 -1.65 Q-6.35 -0.95 -6.5 -0.25 -6.85 1.1 -8.0 1.85 -9.15 2.6 -10.5 2.3 -11.85 2.0 -12.6 0.8 -13.35 -0.4 -13.05 -1.7 -12.75 -3.1 -11.55 -3.8 -10.4 -4.55 -9.05 -4.25 -8.25 -4.05 -7.65 -3.6 L-8.0 -3.0 Q-8.1 -2.55 -7.85 -2.15 -7.6 -1.75 -7.1 -1.6 L-6.45 -1.65" fill="#000000" fill-rule="evenodd" stroke="none"/>
    <path d="M15.0 -13.45 Q12.95 -13.2 11.1 -11.95 9.0 -10.6 8.45 -8.7 7.6 -5.85 11.0 -5.2 13.95 -4.65 16.4 -5.75 18.15 -6.45 19.85 -8.25 21.9 -10.4 21.3 -11.9 20.8 -13.15 18.45 -13.5 16.85 -13.75 15.0 -13.45 M18.15 -9.7 L18.1 -8.3 Q17.8 -6.95 16.65 -6.2 15.45 -5.45 14.1 -5.75 12.75 -6.1 12.0 -7.25 11.25 -8.4 11.55 -9.75 11.85 -11.1 13.05 -11.85 14.2 -12.6 15.55 -12.25 16.35 -12.1 16.95 -11.6 M16.2 2.7 L15.9 3.95 14.35 6.85 Q11.1 11.3 4.35 12.65 -2.4 14.0 -6.55 10.4 -7.85 9.3 -8.7 7.8 L-9.35 6.55 M-7.65 -3.6 Q-8.25 -4.05 -9.05 -4.25 -10.4 -4.55 -11.55 -3.8 -12.75 -3.1 -13.05 -1.7 -13.35 -0.4 -12.6 0.8 -11.85 2.0 -10.5 2.3 -9.15 2.6 -8.0 1.85 -6.85 1.1 -6.5 -0.25 -6.35 -0.95 -6.45 -1.65 M-16.2 -0.7 Q-17.05 2.15 -13.6 2.8 -10.65 3.35 -8.2 2.3 -6.45 1.55 -4.75 -0.2 -2.75 -2.35 -3.3 -3.85 -3.8 -5.15 -6.15 -5.45 -7.65 -5.65 -9.6 -5.45 -11.7 -5.2 -13.55 -3.9 -15.6 -2.5 -16.2 -0.7" fill="none" stroke="#000000" stroke-linecap="butt" stroke-linejoin="miter-clip" stroke-miterlimit="10.0" stroke-width="1.0"/>
  </g>
</svg>
