<?xml version="1.0" encoding="UTF-8" standalone="no"?>
<svg xmlns:xlink="http://www.w3.org/1999/xlink" height="155.75px" width="110.9px" xmlns="http://www.w3.org/2000/svg">
  <g transform="matrix(1.0, 0.0, 0.0, 1.0, 55.45, 77.85)">
    <path d="M0.5 -77.35 L1.5 -77.3 Q49.1 -76.0 54.35 -41.85 56.1 -30.4 52.75 -16.75 51.6 -12.2 49.65 -7.45 47.95 -3.35 46.55 -1.3 48.4 4.75 48.35 9.2 48.15 18.2 41.3 23.15 39.3 24.45 37.2 27.25 33.05 32.9 32.65 40.55 32.35 46.7 32.2 55.9 31.75 62.45 29.15 64.65 25.2 69.7 21.1 72.55 13.6 77.65 0.05 77.4 L-0.1 77.4 Q-13.65 77.65 -21.15 72.55 -25.25 69.7 -29.2 64.65 -31.8 62.45 -32.25 55.9 -32.4 46.7 -32.7 40.55 -33.1 32.9 -37.25 27.25 -39.35 24.45 -41.35 23.15 -48.2 18.2 -48.4 9.2 -48.45 4.75 -46.6 -1.25 -47.95 -3.3 -49.65 -7.45 -51.6 -12.2 -52.75 -16.75 -56.1 -30.4 -54.35 -41.85 -49.05 -76.35 -0.45 -77.35 L0.5 -77.35 M7.15 -10.45 Q6.9 -9.45 7.1 -7.5 7.35 -5.45 7.85 -4.45 L13.15 6.05 Q15.6 11.6 20.55 12.1 24.6 12.55 30.15 9.55 34.15 7.4 37.1 0.5 L39.15 -5.95 Q39.15 -7.55 37.55 -9.45 34.35 -13.15 26.15 -14.45 10.4 -16.9 7.15 -10.45 M-36.65 -9.45 Q-38.25 -7.55 -38.25 -5.95 L-36.2 0.5 Q-33.25 7.4 -29.25 9.55 -23.7 12.55 -19.65 12.1 -14.8 11.6 -12.35 6.3 L-6.95 -4.45 Q-6.45 -5.45 -6.2 -7.5 -6.0 -9.45 -6.25 -10.45 -9.5 -16.9 -25.25 -14.45 -33.45 -13.15 -36.65 -9.45 M-3.5 11.3 Q-5.0 12.85 -6.25 15.05 L-7.8 17.95 Q-12.35 28.0 -8.15 30.1 -5.25 30.05 -3.4 27.9 -2.25 26.65 -1.9 25.45 L-1.75 9.7 -3.5 11.3 M-36.05 25.15 L-33.0 26.25 Q-32.25 26.55 -31.55 26.95 -32.25 26.55 -33.0 26.25 L-36.05 25.15 M-31.55 26.95 Q-28.45 31.25 -26.45 37.8 -24.45 44.45 -24.0 52.3 -22.55 54.0 -20.45 55.4 -18.45 56.7 -15.85 57.75 L-14.35 58.3 -10.85 59.35 -5.75 60.3 -10.85 59.35 -14.35 58.3 -15.85 57.75 Q-18.45 56.7 -20.45 55.4 L-20.45 48.6 -20.35 39.0 -20.3 39.05 Q-21.85 35.7 -24.4 32.7 -27.55 29.0 -31.55 26.95 M4.65 42.3 L-0.35 42.5 -5.75 42.3 -6.95 42.15 -10.85 41.65 -15.85 40.65 Q-18.45 39.95 -20.3 39.05 -18.45 39.95 -15.85 40.65 L-10.85 41.65 -6.95 42.15 -5.75 42.3 -0.35 42.5 4.65 42.3 4.65 41.9 4.65 42.3 10.0 41.65 4.65 42.3 4.65 51.9 10.0 51.25 10.05 59.9 10.0 51.25 4.65 51.9 4.65 42.3 M-15.85 40.65 L-15.85 50.25 Q-18.45 49.55 -20.45 48.6 -18.45 49.55 -15.85 50.25 L-15.85 40.65 M-0.35 60.7 L-0.65 60.7 -5.75 60.3 -0.65 60.7 -0.35 60.7 -0.35 52.1 -5.75 51.9 -5.75 60.3 -5.75 51.9 -0.35 52.1 -0.35 60.7 10.05 59.9 15.15 58.5 10.05 59.9 -0.35 60.7 M-0.35 42.5 L-0.35 52.1 -0.35 42.5 M-5.75 51.9 L-5.75 42.3 -5.75 51.9 -6.95 51.75 -10.85 51.25 -10.85 59.35 -10.85 51.25 -6.95 51.75 -5.75 51.9 M-15.85 57.75 L-15.85 50.25 -10.85 51.25 -15.85 50.25 -15.85 57.75 M-10.85 41.65 L-10.85 51.25 -10.85 41.65 M3.1 11.3 L1.35 9.7 Q1.35 25.05 1.5 25.45 1.85 26.65 2.95 27.9 4.85 30.05 7.75 30.1 11.95 28.0 7.35 17.95 L5.85 15.05 Q4.55 12.85 3.1 11.3 M10.0 41.65 L15.15 40.6 10.0 41.65 10.0 51.25 15.15 50.2 15.15 40.6 15.15 50.2 10.0 51.25 10.0 41.65 M20.5 39.05 L15.15 40.6 20.5 39.05 20.5 48.65 15.15 50.2 15.15 58.5 15.15 50.2 20.5 48.65 20.5 55.85 Q22.85 54.3 24.8 52.3 25.25 44.7 27.7 37.5 29.95 30.85 33.2 26.25 28.3 28.35 24.6 32.7 22.05 35.7 20.5 39.05 M36.25 25.15 L33.2 26.25 36.25 25.15 M-0.35 52.1 L4.65 51.9 4.65 60.15 4.65 51.9 -0.35 52.1 M20.5 55.85 Q18.05 57.45 15.15 58.5 18.05 57.45 20.5 55.85" fill="#ffffff" fill-opacity="0.0" fill-rule="evenodd" stroke="none"/>
    <path d="M0.5 -77.35 L-0.45 -77.35 Q-49.05 -76.35 -54.35 -41.85 -56.1 -30.4 -52.75 -16.75 -51.6 -12.2 -49.65 -7.45 -47.95 -3.3 -46.6 -1.25 -48.45 4.75 -48.4 9.2 -48.2 18.2 -41.35 23.15 -39.35 24.45 -37.25 27.25 -33.1 32.9 -32.7 40.55 -32.4 46.7 -32.25 55.9 -31.8 62.45 -29.2 64.65 -25.25 69.7 -21.15 72.55 -13.65 77.65 -0.1 77.4 L0.05 77.4 Q13.6 77.65 21.1 72.55 25.2 69.7 29.15 64.65 31.75 62.45 32.2 55.9 32.35 46.7 32.65 40.55 33.05 32.9 37.2 27.25 39.3 24.45 41.3 23.15 48.15 18.2 48.35 9.2 48.4 4.75 46.55 -1.3 47.95 -3.35 49.65 -7.45 51.6 -12.2 52.75 -16.75 56.1 -30.4 54.35 -41.85 49.1 -76.0 1.5 -77.3 L0.5 -77.35" fill="none" stroke="#000000" stroke-linecap="round" stroke-linejoin="round" stroke-width="1.0"/>
    <path d="M-31.55 26.95 Q-32.25 26.55 -33.0 26.25 L-36.05 25.15 M-24.0 52.3 Q-24.45 44.45 -26.45 37.8 -28.45 31.25 -31.55 26.95 M4.65 42.3 L4.65 41.9 M-20.3 39.05 L-20.35 39.0 -20.45 48.6 Q-18.45 49.55 -15.85 50.25 L-15.85 40.65 M-0.35 60.7 L-0.35 52.1 -5.75 51.9 -5.75 60.3 M-5.75 51.9 L-6.95 51.75 -10.85 51.25 -10.85 59.35 M-10.85 51.25 L-15.85 50.25 -15.85 57.75 M-5.75 42.3 L-5.75 51.9 M-0.35 52.1 L-0.35 42.5 M-20.45 48.6 L-20.45 55.4 M-10.85 51.25 L-10.85 41.65 M10.0 41.65 L10.0 51.25 15.15 50.2 15.15 40.6 M33.2 26.25 L36.25 25.15 M4.65 42.3 L4.65 51.9 10.0 51.25 10.05 59.9 M15.15 58.5 L15.15 50.2 20.5 48.65 20.5 39.05 M24.8 52.3 Q25.25 44.7 27.7 37.5 29.95 30.85 33.2 26.25 M4.65 60.15 L4.65 51.9 -0.35 52.1 M20.5 55.85 L20.5 48.65" fill="none" stroke="#000000" stroke-linecap="round" stroke-linejoin="round" stroke-opacity="0.4" stroke-width="1.0"/>
    <path d="M7.15 -10.45 Q10.4 -16.9 26.15 -14.45 34.35 -13.15 37.55 -9.45 39.15 -7.55 39.15 -5.95 L37.1 0.5 Q34.15 7.4 30.15 9.55 24.6 12.55 20.55 12.1 15.6 11.6 13.15 6.05 L7.85 -4.45 Q7.35 -5.45 7.1 -7.5 6.9 -9.45 7.15 -10.45 M-36.65 -9.45 Q-38.25 -7.55 -38.25 -5.95 L-36.2 0.5 Q-33.25 7.4 -29.25 9.55 -23.7 12.55 -19.65 12.1 -14.8 11.6 -12.35 6.3 L-6.95 -4.45 Q-6.45 -5.45 -6.2 -7.5 -6.0 -9.45 -6.25 -10.45 -9.5 -16.9 -25.25 -14.45 -33.45 -13.15 -36.65 -9.45 M-3.5 11.3 Q-5.0 12.85 -6.25 15.05 L-7.8 17.95 Q-12.35 28.0 -8.15 30.1 -5.25 30.05 -3.4 27.9 -2.25 26.65 -1.9 25.45 L-1.75 9.7 -3.5 11.3 M-31.55 26.95 Q-27.55 29.0 -24.4 32.7 -21.85 35.7 -20.3 39.05 -18.45 39.95 -15.85 40.65 L-10.85 41.65 -6.95 42.15 -5.75 42.3 -0.35 42.5 4.65 42.3 10.0 41.65 15.15 40.6 20.5 39.05 Q22.05 35.7 24.6 32.7 28.3 28.35 33.2 26.25 M-5.75 60.3 L-0.65 60.7 -0.35 60.7 10.05 59.9 15.15 58.5 Q18.05 57.45 20.5 55.85 22.85 54.3 24.8 52.3 M-5.75 60.3 L-10.85 59.35 -14.35 58.3 -15.85 57.75 Q-18.45 56.7 -20.45 55.4 -22.55 54.0 -24.0 52.3 M3.1 11.3 Q4.55 12.85 5.85 15.05 L7.35 17.95 Q11.95 28.0 7.75 30.1 4.85 30.05 2.95 27.9 1.85 26.65 1.5 25.45 1.35 25.05 1.35 9.7 L3.1 11.3" fill="none" stroke="#000000" stroke-linecap="round" stroke-linejoin="round" stroke-opacity="0.6" stroke-width="1.0"/>
  </g>
</svg>
