<?xml version="1.0" encoding="UTF-8" standalone="no"?>
<svg xmlns:xlink="http://www.w3.org/1999/xlink" height="51.0px" width="51.0px" xmlns="http://www.w3.org/2000/svg">
  <g transform="matrix(1.0, 0.0, 0.0, 1.0, 25.5, 25.5)">
    <path d="M13.8 -13.6 Q9.2 -18.25 3.05 -19.05 L3.05 -2.3 17.25 9.2 Q19.5 5.1 19.5 0.05 19.5 -7.95 13.8 -13.6 M17.65 -17.65 Q25.0 -10.35 25.0 0.0 25.0 10.35 17.65 17.65 10.35 25.0 0.0 25.0 -10.35 25.0 -17.65 17.65 -25.0 10.35 -25.0 0.0 -25.0 -10.35 -17.65 -17.65 -10.35 -25.0 0.0 -25.0 10.35 -25.0 17.65 -17.65 M-2.55 3.55 L-14.0 13.15 -13.5 13.7 Q-8.8 18.35 -2.55 19.2 L-2.55 3.55 M-2.55 -19.1 Q-8.8 -18.25 -13.5 -13.6 -19.1 -7.95 -19.1 0.05 -19.1 5.1 -16.85 9.2 L-2.55 -2.3 -2.55 -19.1 M3.05 3.55 L3.05 19.15 Q9.2 18.3 13.8 13.7 L14.45 13.0 3.05 3.55" fill="#ffffff" fill-opacity="0.0" fill-rule="evenodd" stroke="none"/>
    <path d="M17.65 -17.65 Q25.0 -10.35 25.0 0.0 25.0 10.35 17.65 17.65 10.35 25.0 0.0 25.0 -10.35 25.0 -17.65 17.65 -25.0 10.35 -25.0 0.0 -25.0 -10.35 -17.65 -17.65 -10.35 -25.0 0.0 -25.0 10.35 -25.0 17.65 -17.65" fill="none" stroke="#000000" stroke-linecap="round" stroke-linejoin="round" stroke-width="1.0"/>
    <path d="M13.8 -13.6 Q19.5 -7.95 19.5 0.05 19.5 5.1 17.25 9.2 L3.05 -2.3 3.05 -19.05 Q9.2 -18.25 13.8 -13.6 M3.05 3.55 L14.45 13.0 13.8 13.7 Q9.2 18.3 3.05 19.15 L3.05 3.55 M-2.55 -19.1 L-2.55 -2.3 -16.85 9.2 Q-19.1 5.1 -19.1 0.05 -19.1 -7.95 -13.5 -13.6 -8.8 -18.25 -2.55 -19.1 M-2.55 3.55 L-2.55 19.2 Q-8.8 18.35 -13.5 13.7 L-14.0 13.15 -2.55 3.55" fill="none" stroke="#000000" stroke-linecap="round" stroke-linejoin="round" stroke-opacity="0.6" stroke-width="1.0"/>
  </g>
</svg>
