<?xml version="1.0" encoding="UTF-8" standalone="no"?>
<svg xmlns:xlink="http://www.w3.org/1999/xlink" height="111.7px" width="899.55px" xmlns="http://www.w3.org/2000/svg">
  <g transform="matrix(1.0, 0.0, 0.0, 1.0, 442.1, 55.75)">
    <path d="M366.6 -41.35 L380.4 10.65 -421.8 32.2 380.4 10.65 439.1 16.55 439.6 16.6 439.5 24.35 -344.05 55.45 -419.65 41.55 -421.8 32.2 -441.5 -53.55 -376.75 -55.25 Q-157.8 -52.6 126.25 -46.65 268.3 -43.8 366.6 -41.35 M-348.35 44.85 L-421.8 32.2 -348.35 44.85 439.1 16.55 -348.35 44.85" fill="#ffffff" fill-opacity="0.0" fill-rule="evenodd" stroke="none"/>
    <path d="M126.25 -46.65 Q-157.8 -52.6 -376.75 -55.25 L-441.5 -53.55 -421.8 32.2 M439.6 16.6 L439.5 24.35 -344.05 55.45 -419.65 41.55" fill="none" stroke="#000000" stroke-linecap="butt" stroke-linejoin="miter-clip" stroke-miterlimit="4.0" stroke-width="1.0"/>
    <path d="M380.4 10.65 L439.1 16.55" fill="none" stroke="#000000" stroke-linecap="round" stroke-linejoin="miter-clip" stroke-miterlimit="4.0" stroke-width="1.0"/>
    <path d="M-421.8 32.2 L380.4 10.65" fill="none" stroke="#000000" stroke-linecap="round" stroke-linejoin="miter-clip" stroke-miterlimit="4.0" stroke-opacity="0.4" stroke-width="1.0"/>
    <path d="M-348.35 44.85 L439.1 16.55" fill="none" stroke="#000000" stroke-linecap="round" stroke-linejoin="miter-clip" stroke-miterlimit="4.0" stroke-opacity="0.4" stroke-width="1.0"/>
    <path d="M366.6 -41.35 Q268.3 -43.8 126.25 -46.65" fill="none" stroke="#000000" stroke-linecap="butt" stroke-linejoin="miter-clip" stroke-miterlimit="4.0" stroke-width="1.0"/>
    <path d="M380.4 10.65 L366.6 -41.35 M-419.65 41.55 L-421.8 32.2" fill="none" stroke="#000000" stroke-linecap="round" stroke-linejoin="miter-clip" stroke-miterlimit="4.0" stroke-width="1.0"/>
    <path d="M439.1 16.55 L439.6 16.6 M-421.8 32.2 L-348.35 44.85" fill="none" stroke="#000000" stroke-linecap="butt" stroke-linejoin="miter-clip" stroke-miterlimit="4.0" stroke-opacity="0.4" stroke-width="1.0"/>
    <path d="M-432.4 -38.55 Q-279.1 -38.7 48.4 -33.55 L53.9 -33.5 63.95 -33.35 69.25 -33.25 Q235.5 -30.65 369.65 -28.05" fill="none" stroke="#000000" stroke-linecap="butt" stroke-linejoin="miter-clip" stroke-miterlimit="4.0" stroke-opacity="0.4" stroke-width="1.0"/>
  </g>
</svg>
