<?xml version="1.0" encoding="UTF-8" standalone="no"?>
<svg xmlns:xlink="http://www.w3.org/1999/xlink" height="77.9px" width="74.0px" xmlns="http://www.w3.org/2000/svg">
  <g transform="matrix(1.0, 0.0, 0.0, 1.0, 41.05, 107.85)">
    <path d="M-9.85 -96.15 L-9.75 -96.1 -9.85 -96.1 -9.85 -96.15 M-3.9 -78.75 Q-4.45 -78.4 -5.4 -78.0 L-5.85 -77.65 -6.0 -77.55 -5.9 -77.7 -5.8 -77.8 -5.45 -78.35 -3.9 -78.75 M-14.05 -92.4 L-12.45 -93.15 -9.15 -93.0 -12.45 -92.95 -14.05 -92.4 M-5.4 -78.0 L-5.8 -77.8 -5.4 -78.0 M-5.85 -77.65 L-5.9 -77.7 -5.85 -77.65" fill="#eaeaea" fill-rule="evenodd" stroke="none"/>
    <path d="M9.2 -73.35 L9.55 -73.5 9.15 -73.15 9.2 -73.35" fill="#c8cacb" fill-rule="evenodd" stroke="none"/>
    <path d="M9.1 -73.3 L9.2 -73.35 9.15 -73.15 9.1 -73.3 M-8.85 -92.95 L-8.45 -92.9 -7.55 -92.5 -7.4 -92.4 -7.55 -92.45 -7.55 -92.5 -8.85 -92.95 M-3.75 -81.15 L-5.45 -78.35 -5.9 -78.25 Q-4.65 -79.65 -3.75 -81.15 M-12.35 -87.25 L-11.55 -88.85 -12.2 -87.75 -12.35 -87.25" fill="#d7d8da" fill-rule="evenodd" stroke="none"/>
    <path d="M-27.9 -64.05 L-27.65 -66.8 -27.55 -66.85 -27.65 -66.8 -27.55 -66.85 -27.85 -64.8 -27.9 -64.05 M-5.4 -51.25 L-5.2 -50.65 -5.45 -51.15 -5.4 -51.2 -5.4 -51.25 -5.4 -51.2 -5.45 -51.15 -5.55 -50.9 -5.5 -51.25 -5.4 -51.25 M-7.55 -45.45 L-7.45 -45.45 -7.7 -44.9 -7.7 -44.95 -7.55 -45.45 M-6.3 -47.4 L-5.65 -48.35 -6.3 -47.4 M-25.9 -79.85 L-25.2 -79.15 -26.65 -80.55 -25.9 -79.85 M-22.8 -74.8 L-22.75 -74.7 -22.9 -74.75 -22.8 -74.8 M-14.4 -92.1 L-14.95 -91.5 -15.05 -91.6 -14.4 -92.1" fill="#b1b3b5" fill-rule="evenodd" stroke="none"/>
    <path d="M32.4 -70.05 Q32.5 -69.35 32.25 -68.7 L31.8 -67.9 31.05 -67.25 31.0 -67.25 Q30.0 -66.6 28.3 -66.45 29.75 -66.65 30.95 -67.35 L31.0 -67.35 Q31.9 -67.95 32.25 -68.7 32.5 -69.3 32.3 -70.05 L32.4 -70.05 M21.15 -65.55 L20.8 -65.45 21.15 -65.55 M3.15 -66.6 L2.45 -65.7 3.15 -66.6 M2.05 -65.1 L1.5 -64.3 1.8 -64.75 2.05 -65.1 M0.75 -63.2 L0.45 -62.7 0.25 -62.4 0.75 -63.2 M-5.2 -50.65 L-5.15 -50.6 -5.3 -50.4 -5.55 -50.1 -5.95 -49.8 -5.6 -50.75 -5.55 -50.9 -5.45 -51.15 -5.2 -50.65 M-7.45 -45.8 L-7.55 -45.45 -7.45 -45.8 M-5.2 -54.25 L-5.2 -54.1 -5.25 -54.25 -5.2 -54.25 M-27.55 -66.85 L-25.8 -67.35 -27.55 -66.85 M-20.2 -66.85 L-19.65 -66.2 -20.0 -66.65 -20.2 -66.85 M-10.2 -58.45 L-8.9 -58.35 -8.35 -58.15 -10.2 -58.45 M-7.9 -44.45 L-7.7 -44.95 -7.55 -45.45 -7.7 -44.95 -7.7 -44.9 -7.9 -44.45" fill="#e6e7e8" fill-rule="evenodd" stroke="none"/>
    <path d="M-6.3 -56.35 L-6.4 -56.3 -6.3 -56.35" fill="#cbcdcd" fill-rule="evenodd" stroke="none"/>
    <path d="M-7.45 -45.45 L-7.3 -45.75 -6.95 -46.4 -6.85 -46.55 -6.3 -47.4 -5.65 -48.35 -6.75 -46.5 -6.8 -46.35 -7.8 -44.4 -7.9 -44.45 -7.7 -44.9 -7.45 -45.45" fill="#d8d9da" fill-rule="evenodd" stroke="none"/>
    <path d="M-3.1 -82.3 L-2.55 -82.1 -3.25 -82.1 -3.3 -82.1 -8.25 -82.95 Q-13.25 -84.35 -12.35 -87.25 -12.9 -85.15 -10.05 -83.75 -7.4 -82.45 -3.25 -82.15 L-3.15 -82.15 -3.1 -82.3 M-11.55 -88.85 L-10.6 -90.2 Q-8.8 -92.65 -7.55 -92.45 -10.35 -90.5 -11.55 -88.85" fill="#7d7e80" fill-rule="evenodd" stroke="none"/>
    <path d="M8.45 -105.8 L8.4 -105.75 7.75 -105.75 8.45 -105.8" fill="#5b5b5b" fill-rule="evenodd" stroke="none"/>
    <path d="M8.45 -105.8 L7.75 -105.75 8.4 -105.75 Q9.15 -105.6 9.9 -104.95 12.2 -102.95 13.15 -96.85 13.45 -99.25 12.95 -101.6 12.0 -105.8 8.45 -105.8 M-6.8 -99.35 L-6.75 -99.4 -2.95 -102.6 Q5.8 -109.1 10.45 -106.75 12.55 -105.75 13.6 -103.75 L13.95 -103.0 Q14.75 -101.0 14.85 -97.85 14.9 -95.65 15.35 -93.35 L16.3 -88.95 Q17.1 -85.15 15.8 -81.4 L14.55 -78.7 Q13.45 -76.75 12.05 -75.35 L11.65 -75.15 9.55 -73.5 11.65 -75.15 12.05 -75.35 13.8 -76.45 14.45 -77.15 Q15.3 -77.9 16.55 -78.2 L16.9 -78.25 17.15 -78.3 19.3 -78.35 Q22.55 -78.0 26.8 -75.45 31.85 -72.4 32.4 -70.05 L32.3 -70.05 Q30.75 -67.05 24.0 -67.65 L21.0 -67.75 19.4 -67.7 Q16.7 -67.5 16.1 -66.45 14.45 -63.65 10.8 -61.3 7.6 -59.25 4.1 -58.25 1.5 -57.55 -2.3 -53.75 L-2.6 -53.4 -5.05 -50.65 -5.15 -50.6 -5.2 -50.65 -5.4 -51.25 -4.9 -52.45 -4.5 -53.4 0.25 -62.4 0.45 -62.7 0.75 -63.2 1.5 -64.3 2.05 -65.1 2.45 -65.7 2.05 -65.1 1.8 -64.75 Q-3.95 -74.05 -12.55 -76.65 -19.7 -76.55 -25.9 -79.85 L-26.65 -80.55 -27.2 -81.1 -27.75 -81.3 Q-31.45 -83.0 -32.4 -86.25 L-32.55 -89.45 Q-29.85 -97.15 -22.75 -99.4 -19.2 -100.5 -16.2 -100.1 L-14.15 -100.4 Q-11.25 -100.5 -6.9 -99.45 L-6.8 -99.35 -8.25 -97.95 -8.45 -97.75 -8.25 -97.95 -6.8 -99.35 M-9.85 -96.15 L-8.45 -97.75 Q-14.3 -97.6 -19.85 -93.15 -22.2 -89.65 -20.8 -86.1 -19.05 -83.95 -15.95 -83.65 L-15.7 -83.45 Q-14.25 -82.5 -11.4 -82.1 -14.35 -83.5 -15.05 -85.4 -16.05 -88.25 -14.4 -92.1 L-14.25 -92.25 -14.35 -92.15 -14.4 -92.1 -15.05 -91.6 -13.7 -93.35 Q-12.0 -95.15 -9.9 -96.0 L-9.75 -96.1 -9.85 -96.15 M-5.25 -96.85 Q-7.6 -97.0 -9.75 -96.1 -7.6 -97.0 -5.25 -96.85 -3.2 -96.75 -1.0 -95.85 1.5 -94.75 3.1 -93.25 4.45 -92.0 4.75 -90.65 L5.1 -90.25 5.5 -88.85 Q5.8 -87.1 5.3 -85.5 3.9 -81.4 -2.35 -79.25 2.75 -79.3 7.25 -81.6 11.2 -86.65 11.0 -91.85 L10.9 -92.7 Q9.65 -99.6 5.05 -100.2 1.95 -100.0 -1.45 -98.65 L-5.25 -96.85 M-3.9 -78.75 L-2.35 -79.25 -3.9 -78.75 -5.45 -78.35 -3.75 -81.15 -3.3 -82.05 -3.75 -81.15 Q-4.65 -79.65 -5.9 -78.25 L-5.45 -78.35 -5.8 -77.8 -5.9 -77.7 -6.0 -77.55 -5.85 -77.65 -5.4 -78.0 Q-4.45 -78.4 -3.9 -78.75 M-0.3 -71.95 Q-3.0 -75.6 -5.85 -77.65 -3.0 -75.6 -0.3 -71.95 L1.1 -69.95 1.25 -69.75 2.7 -67.4 3.15 -66.6 2.45 -65.7 3.15 -66.6 6.2 -70.3 9.15 -73.15 9.55 -73.5 9.2 -73.35 9.1 -73.3 Q7.85 -72.7 6.45 -72.4 5.65 -72.25 3.9 -72.4 L1.35 -72.45 -0.3 -71.95 M-40.55 -65.45 Q-40.55 -67.55 -39.75 -69.2 -37.9 -73.05 -31.7 -74.35 L-27.65 -74.85 Q-25.55 -75.0 -23.4 -74.8 L-22.9 -74.75 -22.75 -74.7 Q-13.05 -71.15 -8.2 -62.3 -5.75 -57.95 -5.2 -54.25 L-5.25 -54.25 Q-5.7 -55.5 -6.3 -56.35 L-6.05 -56.45 Q-6.35 -58.1 -8.1 -59.25 L-9.75 -60.1 Q-10.85 -59.7 -12.35 -60.1 -15.3 -60.9 -17.05 -64.75 L-18.0 -66.55 Q-19.75 -69.5 -21.95 -69.95 -23.7 -70.35 -26.4 -69.35 L-26.6 -69.25 -27.25 -69.0 -29.9 -67.75 Q-34.2 -65.45 -37.8 -65.25 L-40.55 -65.45 M1.2 -90.95 Q0.15 -93.85 -3.9 -94.75 L-1.4 -93.15 Q1.15 -90.95 1.5 -88.25 1.75 -89.5 1.2 -90.95 M8.85 -76.0 Q6.85 -74.95 5.15 -74.85 10.35 -73.85 12.85 -78.3 13.6 -79.7 14.0 -81.5 L14.25 -83.0 Q12.85 -78.15 8.85 -76.0 M26.85 -73.0 L30.25 -70.35 Q27.6 -74.2 23.0 -75.85 L19.15 -76.7 Q22.85 -75.75 26.85 -73.0 M-7.4 -92.4 L-7.55 -92.5 -8.45 -92.9 -8.85 -92.95 -9.15 -93.0 -8.85 -92.95 -7.55 -92.5 -7.55 -92.45 Q-8.8 -92.65 -10.6 -90.2 L-11.55 -88.85 -12.35 -87.25 Q-13.25 -84.35 -8.25 -82.95 L-3.3 -82.1 -3.3 -82.05 -3.25 -82.1 -2.55 -82.1 -3.1 -82.3 -2.7 -83.55 Q-1.45 -87.15 -3.25 -89.5 -4.45 -91.8 -7.4 -92.4 M-14.05 -92.4 L-14.25 -92.25 -14.05 -92.4 -12.45 -92.95 -9.15 -93.0 -12.45 -93.15 -14.05 -92.4 M-16.2 -100.1 Q-19.55 -99.25 -21.55 -97.1 L-22.9 -95.1 Q-28.3 -84.7 -19.65 -81.2 -15.3 -79.4 -9.9 -79.75 -7.9 -79.1 -5.95 -77.75 L-5.9 -77.7 -5.95 -77.75 Q-7.9 -79.1 -9.9 -79.75 -15.3 -79.4 -19.65 -81.2 -28.3 -84.7 -22.9 -95.1 L-21.55 -97.1 Q-19.55 -99.25 -16.2 -100.1 M-3.3 -82.05 Q-8.25 -81.7 -11.4 -82.1 -8.25 -81.7 -3.3 -82.05" fill="#ffffff" fill-opacity="0.0" fill-rule="evenodd" stroke="none"/>
    <path d="M-0.3 -71.95 L1.35 -72.45 3.9 -72.4 Q5.65 -72.25 6.45 -72.4 7.85 -72.7 9.1 -73.3 L9.15 -73.15 6.2 -70.3 3.15 -66.6 2.7 -67.4 1.25 -69.75 1.1 -69.95 -0.3 -71.95 M12.05 -75.35 Q13.45 -76.75 14.55 -78.7 L15.8 -81.4 Q17.1 -85.15 16.3 -88.95 L15.35 -93.35 Q14.9 -95.65 14.85 -97.85 14.75 -101.0 13.95 -103.0 L13.6 -103.75 Q17.5 -100.65 19.1 -94.95 21.05 -87.9 19.3 -78.35 L17.15 -78.3 16.9 -78.25 16.55 -78.2 Q15.3 -77.9 14.45 -77.15 L13.8 -76.45 12.05 -75.35 M19.65 -57.8 Q16.25 -41.3 6.3 -34.65 5.45 -33.6 0.7 -31.5 -3.8 -29.55 -9.7 -31.2 L-9.85 -31.3 -10.15 -31.4 Q-13.35 -32.6 -15.65 -34.1 L-15.85 -34.25 Q-25.5 -40.8 -27.55 -53.9 -28.1 -57.45 -28.05 -61.15 -25.8 -62.5 -23.25 -61.45 L-22.95 -61.3 Q-21.65 -60.5 -20.55 -57.0 -19.6 -53.9 -16.55 -54.45 L-9.7 -54.7 Q-7.1 -54.15 -5.5 -51.25 L-5.55 -50.9 -5.6 -50.75 -5.95 -49.8 -7.2 -46.45 -7.45 -45.8 -7.55 -45.45 -7.7 -44.95 -7.9 -44.45 -7.8 -44.4 -8.85 -41.4 Q-9.8 -38.2 -9.75 -35.45 -8.6 -38.25 -6.65 -41.3 L-5.85 -42.5 Q-2.3 -47.65 1.45 -48.95 L6.15 -49.65 6.85 -49.6 10.3 -49.5 Q14.85 -49.7 17.45 -54.75 18.3 -56.4 19.6 -57.85 L19.65 -57.8 M-39.75 -69.2 Q-38.75 -75.6 -32.35 -79.3 -30.25 -80.55 -27.75 -81.3 L-27.2 -81.1 -26.65 -80.55 -25.2 -79.15 -25.9 -79.85 Q-19.7 -76.55 -12.55 -76.65 -3.95 -74.05 1.8 -64.75 L1.5 -64.3 0.75 -63.2 0.25 -62.4 -4.5 -53.4 -4.9 -52.45 Q-5.15 -53.55 -5.55 -54.55 L-6.4 -56.3 -6.3 -56.35 Q-5.7 -55.5 -5.25 -54.25 L-5.2 -54.1 -5.2 -54.25 Q-5.75 -57.95 -8.2 -62.3 -13.05 -71.15 -22.75 -74.7 L-22.8 -74.8 -24.3 -77.9 -25.05 -79.0 -25.2 -79.15 -25.05 -79.0 -24.3 -77.9 -22.8 -74.8 -22.9 -74.75 -23.4 -74.8 Q-25.55 -75.0 -27.65 -74.85 L-31.7 -74.35 Q-37.9 -73.05 -39.75 -69.2 M-3.25 -89.5 Q-1.45 -87.15 -2.7 -83.55 L-3.1 -82.3 -3.2 -82.3 Q-6.4 -83.5 -7.6 -85.0 L-8.2 -86.45 Q-7.15 -89.55 -4.6 -89.65 L-3.25 -89.5 M-25.55 -54.55 Q-25.1 -51.45 -24.05 -48.5 -20.7 -39.1 -12.35 -35.1 -15.2 -37.2 -18.3 -41.05 -24.5 -48.65 -25.75 -57.1 L-25.55 -54.55" fill="#000000" fill-opacity="0.101960786" fill-rule="evenodd" stroke="none"/>
    <path d="M-8.45 -97.75 L-9.85 -96.15 -9.85 -96.1 -9.9 -96.0 Q-12.0 -95.15 -13.7 -93.35 L-15.05 -91.6 -14.95 -91.5 -15.3 -91.1 Q-17.1 -88.7 -17.3 -86.85 -17.5 -84.85 -15.95 -83.65 -17.5 -84.85 -17.3 -86.85 -17.1 -88.7 -15.3 -91.1 L-14.95 -91.5 -14.4 -92.1 Q-16.05 -88.25 -15.05 -85.4 -14.35 -83.5 -11.4 -82.1 -14.25 -82.5 -15.7 -83.45 L-15.95 -83.65 Q-19.05 -83.95 -20.8 -86.1 -22.2 -89.65 -19.85 -93.15 -14.3 -97.6 -8.45 -97.75 M-5.25 -96.85 L-1.45 -98.65 Q1.95 -100.0 5.05 -100.2 9.65 -99.6 10.9 -92.7 L11.0 -91.85 Q11.2 -86.65 7.25 -81.6 2.75 -79.3 -2.35 -79.25 3.9 -81.4 5.3 -85.5 5.8 -87.1 5.5 -88.85 L5.1 -90.25 4.75 -90.65 Q4.45 -92.0 3.1 -93.25 1.5 -94.75 -1.0 -95.85 -3.2 -96.75 -5.25 -96.85 M28.3 -66.45 L27.95 -66.45 27.45 -66.45 21.25 -65.6 21.15 -65.55 20.8 -65.45 17.8 -64.75 Q15.65 -60.9 11.45 -58.75 L11.3 -58.65 9.0 -57.7 3.9 -55.5 3.55 -55.35 3.0 -55.15 2.35 -54.85 2.1 -54.75 Q-2.45 -52.7 -5.6 -48.4 L-5.65 -48.35 -5.6 -48.4 Q-2.45 -52.7 2.1 -54.75 L2.35 -54.85 3.0 -55.15 3.55 -55.35 3.9 -55.5 9.0 -57.7 11.3 -58.65 11.45 -58.75 Q15.65 -60.9 17.8 -64.75 L20.8 -65.45 19.6 -57.85 Q18.3 -56.4 17.45 -54.75 14.85 -49.7 10.3 -49.5 L6.85 -49.6 6.15 -49.65 1.45 -48.95 Q-2.3 -47.65 -5.85 -42.5 L-6.65 -41.3 Q-8.6 -38.25 -9.75 -35.45 -9.8 -38.2 -8.85 -41.4 L-7.8 -44.4 -6.8 -46.35 -6.75 -46.5 -5.65 -48.35 -6.3 -47.4 -6.85 -46.55 -6.95 -46.4 -7.3 -45.75 -7.45 -45.45 -7.55 -45.45 -7.45 -45.8 -7.2 -46.45 -5.95 -49.8 -5.55 -50.1 -5.3 -50.4 -5.15 -50.6 -5.05 -50.65 -2.6 -53.4 -2.3 -53.75 Q1.5 -57.55 4.1 -58.25 7.6 -59.25 10.8 -61.3 14.45 -63.65 16.1 -66.45 16.7 -67.5 19.4 -67.7 L21.0 -67.75 24.0 -67.65 Q30.75 -67.05 32.3 -70.05 32.5 -69.3 32.25 -68.7 31.9 -67.95 31.0 -67.35 L30.95 -67.35 Q29.75 -66.65 28.3 -66.45 M-28.05 -61.15 L-27.9 -64.05 -27.85 -64.8 -27.55 -66.85 -27.65 -66.8 -28.65 -66.45 -32.7 -64.95 -33.2 -64.75 Q-37.4 -63.1 -39.4 -64.1 L-40.55 -65.45 -37.8 -65.25 Q-34.2 -65.45 -29.9 -67.75 L-27.25 -69.0 -26.6 -69.25 -26.4 -69.35 Q-23.7 -70.35 -21.95 -69.95 -19.75 -69.5 -18.0 -66.55 L-17.05 -64.75 Q-15.3 -60.9 -12.35 -60.1 -10.85 -59.7 -9.75 -60.1 L-8.1 -59.25 Q-6.35 -58.1 -6.05 -56.45 L-6.3 -56.35 -6.7 -56.85 -6.75 -56.95 -8.35 -58.15 -6.75 -56.95 -6.7 -56.85 -5.6 -54.55 -5.55 -54.55 Q-5.15 -53.55 -4.9 -52.45 L-5.4 -51.25 -5.5 -51.25 Q-7.1 -54.15 -9.7 -54.7 L-16.55 -54.45 Q-19.6 -53.9 -20.55 -57.0 -21.65 -60.5 -22.95 -61.3 L-23.25 -61.45 Q-25.8 -62.5 -28.05 -61.15 M-25.8 -67.35 L-27.55 -66.85 -25.8 -67.35 -24.5 -67.65 -24.45 -67.7 Q-21.7 -68.15 -20.2 -66.85 -21.7 -68.15 -24.45 -67.7 L-24.5 -67.65 -25.8 -67.35 M-19.65 -66.2 L-20.2 -66.85 -20.0 -66.65 -19.65 -66.2 -19.3 -65.7 -19.25 -65.55 -19.2 -65.45 Q-17.65 -62.1 -15.05 -60.05 -12.4 -57.95 -10.2 -58.45 -12.4 -57.95 -15.05 -60.05 -17.65 -62.1 -19.2 -65.45 L-19.25 -65.55 -19.3 -65.7 -19.65 -66.2 M-8.35 -58.15 L-8.9 -58.35 -10.2 -58.45 -8.35 -58.15" fill="#000000" fill-opacity="0.2" fill-rule="evenodd" stroke="none"/>
    <path d="M-7.4 -92.4 Q-4.45 -91.8 -3.25 -89.5 L-4.6 -89.65 Q-7.15 -89.55 -8.2 -86.45 L-7.6 -85.0 Q-6.4 -83.5 -3.2 -82.3 L-3.1 -82.3 -3.15 -82.15 -3.25 -82.15 Q-7.4 -82.45 -10.05 -83.75 -12.9 -85.15 -12.35 -87.25 L-12.2 -87.75 -11.55 -88.85 Q-10.35 -90.5 -7.55 -92.45 L-7.4 -92.4" fill="#000000" fill-opacity="0.3019608" fill-rule="evenodd" stroke="none"/>
    <path d="M8.4 -105.75 L8.45 -105.8 Q12.0 -105.8 12.95 -101.6 13.45 -99.25 13.15 -96.85 12.2 -102.95 9.9 -104.95 9.15 -105.6 8.4 -105.75 M1.2 -90.95 Q1.75 -89.5 1.5 -88.25 1.15 -90.95 -1.4 -93.15 L-3.9 -94.75 Q0.15 -93.85 1.2 -90.95 M8.85 -76.0 Q12.85 -78.15 14.25 -83.0 L14.0 -81.5 Q13.6 -79.7 12.85 -78.3 10.35 -73.85 5.15 -74.85 6.85 -74.95 8.85 -76.0 M26.85 -73.0 Q22.85 -75.75 19.15 -76.7 L23.0 -75.85 Q27.6 -74.2 30.25 -70.35 L26.85 -73.0 M-25.55 -54.55 L-25.75 -57.1 Q-24.5 -48.65 -18.3 -41.05 -15.2 -37.2 -12.35 -35.1 -20.7 -39.1 -24.05 -48.5 -25.1 -51.45 -25.55 -54.55" fill="#ffffff" fill-opacity="0.3019608" fill-rule="evenodd" stroke="none"/>
    <path d="M13.6 -103.75 Q12.55 -105.75 10.45 -106.75 5.8 -109.1 -2.95 -102.6 L-6.75 -99.4 -6.8 -99.35 M13.6 -103.75 Q17.5 -100.65 19.1 -94.95 21.05 -87.9 19.3 -78.35 22.55 -78.0 26.8 -75.45 31.85 -72.4 32.4 -70.05 32.5 -69.35 32.25 -68.7 L31.8 -67.9 31.05 -67.25 31.0 -67.25 Q30.0 -66.6 28.3 -66.45 L27.95 -66.45 27.45 -66.45 21.25 -65.6 21.15 -65.55 M20.8 -65.45 Q20.4 -61.4 19.65 -57.8 16.25 -41.3 6.3 -34.65 M-15.85 -34.25 Q-25.5 -40.8 -27.55 -53.9 -28.1 -57.45 -28.05 -61.15 L-27.9 -64.05 -27.85 -64.8 -27.55 -66.85 M-28.65 -66.45 L-32.7 -64.95 -33.2 -64.75 Q-37.4 -63.1 -39.4 -64.1 L-40.55 -65.45 Q-40.55 -67.55 -39.75 -69.2 -38.75 -75.6 -32.35 -79.3 -30.25 -80.55 -27.75 -81.3 -31.45 -83.0 -32.4 -86.25 L-32.55 -89.45 Q-29.85 -97.15 -22.75 -99.4 -19.2 -100.5 -16.2 -100.1 M-14.15 -100.4 Q-11.25 -100.5 -6.9 -99.45 L-6.75 -99.4" fill="none" stroke="#231f20" stroke-linecap="round" stroke-linejoin="round" stroke-width="1.0"/>
    <path d="M-6.8 -99.35 L-8.25 -97.95 -8.45 -97.75 -9.85 -96.15 -9.85 -96.1 -9.9 -96.0 -9.75 -96.1 Q-7.6 -97.0 -5.25 -96.85 -3.2 -96.75 -1.0 -95.85 1.5 -94.75 3.1 -93.25 4.45 -92.0 4.75 -90.65 L5.1 -90.25 5.5 -88.85 Q5.8 -87.1 5.3 -85.5 3.9 -81.4 -2.35 -79.25 L-3.9 -78.75 Q-4.45 -78.4 -5.4 -78.0 L-5.85 -77.65 Q-3.0 -75.6 -0.3 -71.95 L1.35 -72.45 3.9 -72.4 Q5.65 -72.25 6.45 -72.4 7.85 -72.7 9.1 -73.3 L9.2 -73.35 9.55 -73.5 11.65 -75.15 12.05 -75.35 Q13.45 -76.75 14.55 -78.7 L15.8 -81.4 Q17.1 -85.15 16.3 -88.95 L15.35 -93.35 Q14.9 -95.65 14.85 -97.85 14.75 -101.0 13.95 -103.0 L13.6 -103.75 M21.15 -65.55 L20.8 -65.45 21.15 -65.55 M6.3 -34.65 Q5.45 -33.6 0.7 -31.5 -3.8 -29.55 -9.7 -31.2 L-10.15 -31.4 Q-13.35 -32.6 -15.65 -34.1 L-15.85 -34.25 M-27.65 -66.8 L-28.65 -66.45 M-16.2 -100.1 L-14.15 -100.4 M19.3 -78.35 L17.15 -78.3 16.9 -78.25 16.55 -78.2 Q15.3 -77.9 14.45 -77.15 L13.8 -76.45 12.05 -75.35 M9.2 -73.35 L9.15 -73.15 9.55 -73.5 M9.15 -73.15 L6.2 -70.3 3.15 -66.6 2.45 -65.7 2.05 -65.1 1.5 -64.3 0.75 -63.2 0.45 -62.7 0.25 -62.4 -4.5 -53.4 -4.9 -52.45 -5.4 -51.25 -5.4 -51.2 -5.45 -51.15 -5.55 -50.9 -5.6 -50.75 -5.95 -49.8 -7.2 -46.45 -7.45 -45.8 -7.55 -45.45 -7.45 -45.8 M-7.45 -45.45 L-7.3 -45.75 -6.95 -46.4 -6.85 -46.55 -6.3 -47.4 -5.65 -48.35 -5.6 -48.4 Q-2.45 -52.7 2.1 -54.75 L2.35 -54.85 3.0 -55.15 3.55 -55.35 3.9 -55.5 9.0 -57.7 11.3 -58.65 11.45 -58.75 Q15.65 -60.9 17.8 -64.75 L20.8 -65.45 M-0.3 -71.95 L1.1 -69.95 1.25 -69.75 2.7 -67.4 3.15 -66.6 2.45 -65.7 M0.75 -63.2 L0.25 -62.4 M-25.2 -79.15 L-25.05 -79.0 -24.3 -77.9 -22.8 -74.8 -22.75 -74.7 Q-13.05 -71.15 -8.2 -62.3 -5.75 -57.95 -5.2 -54.25 L-5.2 -54.1 -5.25 -54.25 Q-5.7 -55.5 -6.3 -56.35 L-6.7 -56.85 -6.4 -56.3 -5.55 -54.55 Q-5.15 -53.55 -4.9 -52.45 M-8.85 -92.95 L-8.45 -92.9 -7.55 -92.5 -7.4 -92.4 Q-4.45 -91.8 -3.25 -89.5 -1.45 -87.15 -2.7 -83.55 L-3.1 -82.3 -3.15 -82.15 -3.25 -82.15 Q-7.4 -82.45 -10.05 -83.75 -12.9 -85.15 -12.35 -87.25 L-11.55 -88.85 Q-10.35 -90.5 -7.55 -92.45 L-7.55 -92.5 -8.85 -92.95 -9.15 -93.0 -12.45 -92.95 -14.05 -92.4 -14.25 -92.25 -14.35 -92.15 -14.4 -92.1 -14.35 -92.15 M-3.3 -82.05 L-3.75 -81.15 -5.45 -78.35 -5.8 -77.8 -5.4 -78.0 M-14.95 -91.5 L-15.3 -91.1 Q-17.1 -88.7 -17.3 -86.85 -17.5 -84.85 -15.95 -83.65 L-15.7 -83.45 Q-14.25 -82.5 -11.4 -82.1 -8.25 -81.7 -3.3 -82.05 M-14.4 -92.1 L-14.95 -91.5 M-15.05 -91.6 L-13.7 -93.35 Q-12.0 -95.15 -9.9 -96.0 M-14.4 -92.1 L-14.25 -92.25 M-14.4 -92.1 L-15.05 -91.6 M-5.9 -77.7 L-5.95 -77.75 Q-7.9 -79.1 -9.9 -79.75 -15.3 -79.4 -19.65 -81.2 -28.3 -84.7 -22.9 -95.1 L-21.55 -97.1 Q-19.55 -99.25 -16.2 -100.1 M-5.85 -77.65 L-6.0 -77.55 -5.9 -77.7 -5.8 -77.8 M-5.9 -77.7 L-5.85 -77.65 M-27.75 -81.3 L-27.2 -81.1 -26.65 -80.55 -25.2 -79.15 M-22.75 -74.7 L-22.9 -74.75 -23.4 -74.8 Q-25.55 -75.0 -27.65 -74.85 L-31.7 -74.35 Q-37.9 -73.05 -39.75 -69.2 M-27.55 -66.85 L-27.65 -66.8 M-27.55 -66.85 L-25.8 -67.35 -24.5 -67.65 -24.45 -67.7 Q-21.7 -68.15 -20.2 -66.85 L-19.65 -66.2 -19.3 -65.7 -19.25 -65.55 -19.2 -65.45 Q-17.65 -62.1 -15.05 -60.05 -12.4 -57.95 -10.2 -58.45 L-8.35 -58.15 -6.75 -56.95 -6.7 -56.85 M-27.55 -66.85 L-25.8 -67.35 M-20.2 -66.85 L-20.0 -66.65 -19.65 -66.2 M-7.9 -44.45 L-7.7 -44.95 -7.55 -45.45 -7.7 -44.95 M-7.7 -44.9 L-7.9 -44.45 M-7.45 -45.45 L-7.7 -44.9 M-10.15 -31.4 L-9.85 -31.3" fill="none" stroke="#000000" stroke-linecap="round" stroke-linejoin="round" stroke-opacity="0.6" stroke-width="1.0"/>
  </g>
</svg>
