<?xml version="1.0" encoding="UTF-8" standalone="no"?>
<svg xmlns:xlink="http://www.w3.org/1999/xlink" height="36.0px" width="126.75px" xmlns="http://www.w3.org/2000/svg">
  <g transform="matrix(1.0, 0.0, 0.0, 1.0, 59.6, 62.9)">
    <path d="M28.85 -32.85 L27.3 -32.9 26.05 -32.85 21.15 -33.2 12.5 -34.35 12.3 -34.4 7.25 -35.25 5.5 -35.7 Q2.95 -36.3 1.5 -37.1 L2.8 -41.9 4.95 -42.95 7.7 -44.15 13.55 -46.35 Q18.4 -48.25 25.4 -48.7 33.15 -49.6 40.85 -46.3 49.8 -42.5 57.15 -42.05 64.2 -41.7 66.65 -44.6 65.35 -42.55 61.6 -40.25 54.15 -35.6 42.0 -34.15 34.95 -32.95 28.85 -32.85 M-2.7 -43.0 L-2.8 -42.1 Q-3.0 -39.25 -3.65 -35.7 L-4.4 -35.7 Q-9.9 -35.4 -14.0 -31.9 L-20.3 -30.05 -24.7 -28.9 -27.2 -28.6 -33.55 -27.4 -35.85 -27.4 Q-44.5 -27.3 -50.9 -31.1 -53.25 -32.5 -55.4 -35.8 L-59.1 -41.3 Q-54.5 -38.05 -48.55 -38.3 L-46.75 -38.45 -44.95 -38.8 -44.8 -38.8 -42.8 -39.35 Q-38.5 -40.7 -30.05 -44.25 L-24.5 -46.4 -21.0 -47.45 -18.5 -48.05 -17.65 -48.2 -15.35 -48.45 -13.65 -48.4 -12.05 -48.25 -12.0 -48.25 Q-6.8 -47.4 -2.7 -43.0" fill="#ffffff" fill-opacity="0.0" fill-rule="evenodd" stroke="none"/>
    <path d="M-12.0 -48.25 L-12.45 -48.95 -13.1 -50.3 -13.35 -50.75 -17.1 -58.5 Q-18.55 -60.3 -22.0 -60.75 L-25.2 -60.8 Q-17.75 -63.25 -11.25 -62.0 L-8.7 -61.35 -6.3 -60.4 -4.95 -59.75 -2.85 -58.5 Q-2.35 -53.75 -2.45 -48.45 -2.5 -45.65 -2.7 -43.0 -6.8 -47.4 -12.0 -48.25" fill="#000000" fill-opacity="0.101960786" fill-rule="evenodd" stroke="none"/>
    <path d="M-12.0 -48.25 Q-6.8 -47.4 -2.7 -43.0" fill="none" stroke="#000000" stroke-linecap="round" stroke-linejoin="round" stroke-opacity="0.4" stroke-width="1.0"/>
    <path d="M1.5 -37.1 L2.8 -41.9 M-2.85 -58.5 Q-2.35 -53.75 -2.45 -48.45 -2.5 -45.65 -2.7 -43.0 L-2.8 -42.1 Q-3.0 -39.25 -3.65 -35.7 L-4.4 -35.7 Q-9.9 -35.4 -14.0 -31.9" fill="none" stroke="#000000" stroke-linecap="round" stroke-linejoin="round" stroke-opacity="0.6" stroke-width="1.0"/>
    <path d="M28.85 -32.85 L27.3 -32.9 26.05 -32.85" fill="none" stroke="#0e0e0e" stroke-linecap="round" stroke-linejoin="round" stroke-opacity="0.6" stroke-width="1.0"/>
    <path d="M26.05 -32.85 L21.15 -33.2 12.5 -34.35 12.3 -34.4 7.25 -35.25 5.5 -35.7 Q2.95 -36.3 1.5 -37.1 M2.8 -41.9 L4.95 -42.95 7.7 -44.15 13.55 -46.35 Q18.4 -48.25 25.4 -48.7 33.15 -49.6 40.85 -46.3 49.8 -42.5 57.15 -42.05 64.2 -41.7 66.65 -44.6 65.35 -42.55 61.6 -40.25 54.15 -35.6 42.0 -34.15 34.95 -32.95 28.85 -32.85 M-12.0 -48.25 L-12.45 -48.95 -13.1 -50.3 -13.35 -50.75 -17.1 -58.5 Q-18.55 -60.3 -22.0 -60.75 L-25.2 -60.8 Q-17.75 -63.25 -11.25 -62.0 L-8.7 -61.35 -6.3 -60.4 -4.95 -59.75 -2.85 -58.5 M-14.0 -31.9 L-20.3 -30.05 -24.7 -28.9 -27.2 -28.6 -33.55 -27.4 -35.85 -27.4 Q-44.5 -27.3 -50.9 -31.1 -53.25 -32.5 -55.4 -35.8 L-59.1 -41.3 Q-54.5 -38.05 -48.55 -38.3 L-46.75 -38.45 -44.95 -38.8 -44.8 -38.8 -42.8 -39.35 Q-38.5 -40.7 -30.05 -44.25 L-24.5 -46.4 -21.0 -47.45 -18.5 -48.05 -17.65 -48.2 -15.35 -48.45 -13.65 -48.4 -12.05 -48.25 -12.0 -48.25 Z" fill="none" stroke="#000000" stroke-linecap="round" stroke-linejoin="round" stroke-width="1.0"/>
  </g>
</svg>
