<?xml version="1.0" encoding="UTF-8" standalone="no"?>
<svg xmlns:xlink="http://www.w3.org/1999/xlink" height="82.0px" width="28.85px" xmlns="http://www.w3.org/2000/svg">
  <g transform="matrix(1.0, 0.0, 0.0, 1.0, 13.75, 41.05)">
    <path d="M-10.0 -32.3 L-8.55 -40.05 -8.2 -40.45 1.7 -36.15 Q-6.5 -7.5 -4.2 14.35 -3.05 25.3 -0.3 30.45 8.65 30.95 11.8 35.25 13.4 37.4 13.2 39.45 8.5 41.8 -0.5 38.65 L-6.2 36.2 -8.55 34.95 Q-15.1 17.15 -12.5 -13.25 -11.65 -22.7 -10.0 -32.3" fill="#ffffff" fill-opacity="0.0" fill-rule="evenodd" stroke="none"/>
    <path d="M-10.0 -32.3 Q-11.65 -22.7 -12.5 -13.25 -15.1 17.15 -8.55 34.95 L-6.2 36.2 -0.5 38.65 Q8.5 41.8 13.2 39.45 13.4 37.4 11.8 35.25 8.65 30.95 -0.3 30.45 -3.05 25.3 -4.2 14.35 -6.5 -7.5 1.7 -36.15 L-8.2 -40.45 -8.55 -40.05 -10.0 -32.3 Z" fill="none" stroke="#000000" stroke-linecap="butt" stroke-linejoin="miter-clip" stroke-miterlimit="10.0" stroke-width="1.0"/>
    <path d="M-0.5 38.65 L-6.2 36.2 -8.55 34.95 -8.85 34.15 Q-2.25 34.4 1.45 30.55 9.25 31.4 12.0 35.5 13.4 37.6 13.2 39.45 8.5 41.8 -0.5 38.65" fill="#000000" fill-opacity="0.49803922" fill-rule="evenodd" stroke="none"/>
    <path d="M-0.5 38.65 Q8.5 41.8 13.2 39.45 13.4 37.6 12.0 35.5 9.25 31.4 1.45 30.55 -2.25 34.4 -8.85 34.15 L-8.55 34.95 -6.2 36.2 -0.5 38.65 Z" fill="none" stroke="#000000" stroke-linecap="butt" stroke-linejoin="miter-clip" stroke-miterlimit="10.0" stroke-width="1.0"/>
    <path d="M-4.8 -25.75 L-3.3 -32.55 Q-7.5 -10.05 -5.25 12.65 -4.1 24.0 -2.15 30.85 -9.65 17.0 -7.25 -9.15 -6.5 -17.3 -4.8 -25.75" fill="#ffffff" fill-rule="evenodd" stroke="none"/>
  </g>
</svg>
