<?xml version="1.0" encoding="UTF-8" standalone="no"?>
<svg xmlns:xlink="http://www.w3.org/1999/xlink" height="85.75px" width="65.1px" xmlns="http://www.w3.org/2000/svg">
  <g transform="matrix(1.0, 0.0, 0.0, 1.0, 21.05, 31.1)">
    <path d="M-13.85 -16.0 L-14.05 -16.35 -14.5 -17.1 -14.8 -17.65 -13.65 -15.7 -13.85 -16.0 M-20.2 -28.2 L-20.55 -29.1 -20.5 -28.95 -20.2 -28.2" fill="#ffffff" fill-rule="evenodd" stroke="none"/>
    <path d="M25.15 -11.15 Q25.8 -11.95 25.85 -12.95 25.9 -11.85 25.2 -11.2 L25.15 -11.15" fill="#4f4f4f" fill-rule="evenodd" stroke="none"/>
    <path d="M9.4 -9.1 L9.15 -9.4 11.05 -7.75 Q10.25 -8.35 9.4 -9.1 M26.3 -16.05 L26.0 -17.1 26.35 -16.05 26.6 -15.25 26.3 -16.05 26.35 -16.05 26.3 -16.05 M8.4 7.65 L8.35 7.65 7.7 7.15 8.4 7.65 M-14.8 -17.65 L-16.65 -20.95 -18.6 -25.15 -14.8 -17.65" fill="#828282" fill-rule="evenodd" stroke="none"/>
    <path d="M29.25 -6.15 L29.65 -4.35 29.7 -3.9 29.25 -6.15" fill="#3f3f3f" fill-rule="evenodd" stroke="none"/>
    <path d="M12.2 10.8 L9.7 8.65 12.2 10.75 12.2 10.8" fill="#999999" fill-rule="evenodd" stroke="none"/>
    <path d="M13.1 11.6 L12.2 10.8 12.2 10.75 13.1 11.6" fill="#6e6e6e" fill-rule="evenodd" stroke="none"/>
    <path d="M9.7 8.65 L8.9 8.05 8.4 7.65 8.9 8.05 9.7 8.65" fill="#636363" fill-rule="evenodd" stroke="none"/>
    <path d="M-14.6 -28.25 L-14.25 -27.9 Q-13.85 -24.4 -12.75 -21.1 -10.15 -13.7 -5.65 -12.2 L-4.5 -11.9 -0.3 -8.85 Q1.25 -7.95 2.7 -7.4 6.1 -6.1 9.15 -6.6 9.8 -6.7 10.0 -7.45 10.15 -8.2 9.4 -9.1 10.25 -8.35 11.05 -7.75 L11.85 -7.05 Q15.45 -4.75 18.0 -7.6 19.7 -6.65 21.4 -6.45 23.2 -6.25 23.4 -7.45 23.6 -8.45 22.65 -10.5 L22.7 -10.5 Q24.2 -9.65 25.15 -11.15 L25.2 -11.2 Q25.9 -11.85 25.85 -12.95 L25.7 -15.0 25.25 -16.75 26.05 -16.2 26.3 -16.05 26.6 -15.25 26.7 -14.9 27.9 -11.35 29.25 -6.15 29.7 -3.9 30.6 1.0 Q31.4 6.4 31.6 11.75 L36.95 26.15 37.05 26.45 Q42.7 42.85 43.5 51.5 42.2 42.45 34.6 26.7 L31.4 20.0 Q26.3 9.1 25.65 6.55 24.1 0.0 21.55 -2.4 L19.35 -3.5 Q21.25 -1.85 20.6 -0.55 20.8 5.5 12.45 -3.3 L14.15 -0.35 Q16.6 5.0 1.95 -2.7 L1.7 -2.8 1.55 -2.9 1.95 -1.55 Q2.4 -0.4 3.3 0.9 L4.25 2.25 6.95 5.35 9.3 7.6 8.4 7.65 7.7 7.15 6.6 6.4 6.35 6.25 6.15 6.1 Q4.1 5.0 1.35 2.25 L-0.8 -0.15 -3.35 -3.65 -5.0 -6.35 -5.05 -6.4 -5.15 -6.6 -5.25 -6.8 -6.45 -9.2 -7.45 -11.3 -7.5 -11.45 -7.65 -11.75 -8.6 -8.65 -8.75 -8.85 -8.85 -8.9 -12.85 -14.45 -13.3 -15.2 -13.65 -15.7 -14.8 -17.65 -18.6 -25.15 -20.2 -28.2 -20.5 -28.95 -19.35 -27.05 Q-18.6 -26.0 -17.9 -25.65 -17.25 -25.35 -16.6 -25.65 -15.3 -26.25 -16.0 -30.6 L-15.85 -30.1 Q-15.45 -29.1 -14.65 -28.3 L-14.6 -28.25" fill="#ffffff" fill-opacity="0.0" fill-rule="evenodd" stroke="none"/>
    <path d="M36.95 26.15 L37.1 26.55 Q42.75 43.05 43.55 51.65 L39.45 46.6 40.0 48.95 Q40.3 51.8 39.15 54.15 36.0 45.45 30.3 35.1 L30.25 34.95 30.2 34.9 30.1 34.75 30.05 34.65 30.0 34.55 29.55 33.8 29.05 32.9 14.9 13.4 14.6 13.1 14.6 13.05 13.1 11.6 12.2 10.75 9.7 8.65 8.9 8.05 8.4 7.65 9.3 7.6 6.95 5.35 4.25 2.25 3.3 0.9 Q2.4 -0.4 1.95 -1.55 L1.55 -2.9 1.7 -2.8 1.95 -2.7 Q16.6 5.0 14.15 -0.35 L12.45 -3.3 Q20.8 5.5 20.6 -0.55 21.25 -1.85 19.35 -3.5 L21.55 -2.4 Q24.1 0.0 25.65 6.55 26.3 9.1 31.4 20.0 L34.6 26.7 Q42.2 42.45 43.5 51.5 42.7 42.85 37.05 26.45 L36.95 26.15" fill="#000000" fill-opacity="0.101960786" fill-rule="evenodd" stroke="none"/>
    <path d="M26.7 -14.9 L27.9 -11.35 29.25 -6.15 29.7 -3.9 30.6 1.0 Q31.4 6.4 31.6 11.75 L36.95 26.15 37.1 26.55 Q42.75 43.05 43.55 51.65 L39.45 46.6 40.0 48.95 Q40.3 51.8 39.15 54.15 36.0 45.45 30.3 35.1 L30.25 34.95 30.2 34.9 M30.1 34.75 L30.05 34.65 M6.6 6.4 L6.35 6.25 6.15 6.1 Q4.1 5.0 1.35 2.25 L-0.8 -0.15 M-5.0 -6.35 L-5.05 -6.4 -5.15 -6.6 -5.25 -6.8 -6.45 -9.2 -7.65 -11.75 -8.6 -8.65 -8.75 -8.85 M-8.85 -8.9 L-12.85 -14.45 -13.85 -16.0 -14.05 -16.35 -14.5 -17.1 -14.8 -17.65 M26.6 -15.25 L26.3 -16.05 26.35 -16.05 M-20.5 -28.95 L-20.2 -28.2" fill="none" stroke="#000000" stroke-linecap="round" stroke-linejoin="round" stroke-width="1.0"/>
    <path d="M26.35 -16.05 L26.6 -15.25 26.7 -14.9 M-18.6 -25.15 L-20.2 -28.2 -20.55 -29.1 M-13.85 -16.0 L-13.65 -15.7 -13.3 -15.2 -12.85 -14.45 M-14.8 -17.65 L-18.6 -25.15" fill="none" stroke="#000000" stroke-linecap="butt" stroke-linejoin="miter-clip" stroke-miterlimit="3.0" stroke-width="1.0"/>
    <path d="M-14.6 -28.25 L-14.25 -27.9 Q-13.85 -24.4 -12.75 -21.1 -10.15 -13.7 -5.65 -12.2 L-4.5 -11.9 -0.3 -8.85 Q1.25 -7.95 2.7 -7.4 6.1 -6.1 9.15 -6.6 9.8 -6.7 10.0 -7.45 10.15 -8.2 9.4 -9.1 L9.15 -9.4 11.05 -7.75 11.85 -7.05 Q15.45 -4.75 18.0 -7.6 19.7 -6.65 21.4 -6.45 23.2 -6.25 23.4 -7.45 23.6 -8.45 22.65 -10.5 L22.7 -10.5 Q24.2 -9.65 25.15 -11.15 25.8 -11.95 25.85 -12.95 L25.7 -15.0 25.25 -16.75 26.05 -16.2 26.3 -16.05 M14.6 13.1 L14.6 13.05 M9.7 8.65 L8.9 8.05 M-20.5 -28.95 L-19.35 -27.05 Q-18.6 -26.0 -17.9 -25.65 -17.25 -25.35 -16.6 -25.65 -15.3 -26.25 -16.0 -30.6 L-15.85 -30.1 Q-15.45 -29.1 -14.65 -28.3" fill="none" stroke="#000000" stroke-linecap="round" stroke-linejoin="round" stroke-opacity="0.4" stroke-width="1.0"/>
    <path d="M-14.65 -28.3 L-14.6 -28.25 M9.7 8.65 L12.2 10.75 13.1 11.6 M11.05 -7.75 Q10.25 -8.35 9.4 -9.1" fill="none" stroke="#000000" stroke-linecap="butt" stroke-linejoin="miter-clip" stroke-miterlimit="3.0" stroke-opacity="0.4" stroke-width="1.0"/>
    <path d="M30.05 34.65 L30.0 34.55 29.55 33.8 29.05 32.9 M14.9 13.4 L14.6 13.1 M13.1 11.6 L12.2 10.8 9.7 8.65 M8.9 8.05 L8.4 7.65 7.7 7.15 6.6 6.4 M-0.8 -0.15 L-3.35 -3.65 -5.0 -6.35" fill="none" stroke="#000000" stroke-linecap="round" stroke-linejoin="round" stroke-opacity="0.6" stroke-width="1.0"/>
    <path d="M29.05 32.9 L14.9 13.4 M14.6 13.05 L13.1 11.6 M8.4 7.65 L8.9 8.05 9.7 8.65" fill="none" stroke="#000000" stroke-linecap="butt" stroke-linejoin="miter-clip" stroke-miterlimit="3.0" stroke-opacity="0.6" stroke-width="1.0"/>
  </g>
</svg>
