<?xml version="1.0" encoding="UTF-8" standalone="no"?>
<svg xmlns:xlink="http://www.w3.org/1999/xlink" height="70.1px" width="101.3px" xmlns="http://www.w3.org/2000/svg">
  <g transform="matrix(1.0, 0.0, 0.0, 1.0, 50.65, 35.05)">
    <path d="M50.0 -3.25 Q51.4 11.4 38.0 22.55 24.6 33.65 4.2 34.45 -16.15 35.3 -32.7 27.15 -49.3 19.05 -50.1 5.2 -50.9 -8.75 -37.05 -19.05 -23.2 -29.35 -2.45 -33.35 18.25 -37.4 33.45 -27.6 48.65 -17.9 50.0 -3.25" fill="#ffffff" fill-opacity="0.0" fill-rule="evenodd" stroke="none"/>
    <path d="M50.0 -3.25 Q51.4 11.4 38.0 22.55 24.6 33.65 4.2 34.45 -16.15 35.3 -32.7 27.15 -49.3 19.05 -50.1 5.2 -50.9 -8.75 -37.05 -19.05 -23.2 -29.35 -2.45 -33.35 18.25 -37.4 33.45 -27.6 48.65 -17.9 50.0 -3.25 Z" fill="none" stroke="#000000" stroke-linecap="round" stroke-linejoin="round" stroke-width="1.0"/>
  </g>
</svg>
