<?xml version="1.0" encoding="UTF-8" standalone="no"?>
<svg xmlns:xlink="http://www.w3.org/1999/xlink" height="16.9px" width="40.2px" xmlns="http://www.w3.org/2000/svg">
  <g transform="matrix(1.0, 0.0, 0.0, 1.0, 20.1, 8.45)">
    <path d="M-15.45 -2.8 L-15.45 -2.5 -15.45 -1.95 -15.3 -1.35 -14.9 -0.8 -14.15 -0.6 -13.35 -0.7 -12.4 -1.0 Q-11.9 -1.15 -11.5 -1.55 -11.1 -1.85 -11.1 -2.35 L-11.4 -3.1 -12.0 -3.55 -12.8 -3.85 -13.6 -3.9 -14.2 -3.9 -14.75 -3.7 -15.35 -3.25 -15.45 -2.8 M-20.05 -1.75 L-19.8 -4.1 -19.4 -6.0 -18.8 -6.95 Q-18.2 -7.45 -17.0 -7.75 L-14.4 -8.1 -11.75 -7.7 Q-10.45 -7.3 -9.45 -6.5 -8.4 -5.75 -7.8 -4.6 -7.15 -3.5 -7.15 -2.05 L-7.15 -1.65 -7.25 -1.2 Q-7.45 0.1 -8.2 1.15 -8.95 2.25 -9.95 2.7 L-12.1 3.45 -13.8 3.8 Q-14.55 3.95 -14.95 4.25 -15.4 4.5 -15.4 5.35 L-15.25 6.6 -15.05 7.6 -15.3 8.05 -15.7 8.3 -16.3 8.4 -17.0 8.45 -18.5 8.25 -19.25 7.75 -19.65 6.5 -19.95 4.9 -20.05 3.0 -20.1 0.95 -20.05 -1.75 M15.25 -3.55 L14.45 -3.85 13.65 -3.9 13.05 -3.9 12.55 -3.7 11.9 -3.25 11.8 -2.8 11.8 -2.5 11.8 -1.95 11.95 -1.35 12.35 -0.8 13.1 -0.6 13.9 -0.7 14.85 -1.0 15.75 -1.55 Q16.15 -1.85 16.15 -2.35 L15.9 -3.1 15.25 -3.55 M2.1 -3.05 Q2.1 -4.55 1.55 -5.25 1.1 -5.95 0.6 -5.95 L0.45 -5.95 0.25 -5.85 -0.4 -5.3 -0.95 -4.4 -1.2 -3.4 -1.4 -2.5 -1.5 -1.8 -1.6 -0.95 -1.55 -0.2 -1.4 0.45 -1.05 0.9 -0.45 1.05 -0.2 1.0 Q0.45 0.75 0.9 0.3 L1.55 -0.7 1.95 -1.85 2.1 -3.05 M2.2 -8.25 Q3.3 -8.0 4.0 -7.3 L5.2 -5.8 5.85 -4.05 6.15 -2.5 6.3 -1.4 6.0 1.0 5.25 3.4 3.95 5.5 2.15 7.05 Q0.55 8.05 -0.95 8.05 L-2.9 7.55 Q-3.9 7.0 -4.6 6.05 L-5.8 3.7 -6.15 2.35 -6.05 2.2 -5.25 0.45 Q-5.0 -0.55 -5.0 -1.5 -5.0 -2.7 -5.4 -3.75 L-5.0 -4.7 -4.3 -5.8 -3.25 -6.9 -1.95 -7.85 -0.35 -8.35 2.2 -8.25 M7.9 -6.0 Q8.1 -6.75 8.45 -6.95 9.05 -7.45 10.25 -7.75 L12.85 -8.1 15.5 -7.7 Q16.8 -7.3 17.8 -6.5 18.85 -5.75 19.45 -4.6 20.1 -3.5 20.1 -2.05 L20.1 -1.65 20.05 -1.2 Q19.8 0.1 19.05 1.15 18.35 2.25 17.3 2.7 L15.15 3.45 13.45 3.8 Q12.7 3.95 12.3 4.25 11.85 4.5 11.85 5.35 L12.0 6.6 12.2 7.6 11.95 8.05 11.55 8.3 10.95 8.4 10.25 8.45 8.8 8.25 Q8.1 8.1 8.0 7.75 L7.6 6.5 7.3 4.9 7.3 4.5 7.8 2.95 Q8.4 1.0 8.4 -0.75 8.4 -2.45 8.0 -4.0 L7.65 -5.0 7.9 -6.0" fill="#ffffff" fill-rule="evenodd" stroke="none"/>
  </g>
</svg>
