<?xml version="1.0" encoding="UTF-8" standalone="no"?>
<svg xmlns:xlink="http://www.w3.org/1999/xlink" height="18.65px" width="75.35px" xmlns="http://www.w3.org/2000/svg">
  <g transform="matrix(1.0, 0.0, 0.0, 1.0, 41.6, 54.05)">
    <path d="M24.6 -46.2 L24.65 -46.3 Q26.35 -47.9 28.65 -47.5 32.7 -46.75 33.25 -42.15 L31.75 -42.3 Q31.2 -45.2 28.65 -45.55 27.1 -45.75 25.95 -44.65 L25.9 -44.6 25.85 -44.55 25.85 -44.5 25.55 -44.15 25.15 -43.55 25.25 -43.0 25.25 -42.95 24.95 -42.95 24.85 -42.5 24.8 -41.8 Q24.8 -41.2 24.95 -40.65 25.2 -39.65 25.9 -38.9 26.95 -37.7 28.45 -37.65 L30.05 -37.7 30.4 -37.0 30.35 -36.6 30.25 -36.4 Q30.1 -36.2 29.75 -36.05 L28.4 -35.9 Q26.25 -35.9 24.65 -37.65 23.4 -39.05 23.05 -40.8 L22.95 -42.1 22.95 -42.8 23.0 -43.15 23.35 -44.35 Q22.5 -46.05 20.6 -46.3 19.05 -46.5 17.95 -45.4 17.4 -44.9 17.15 -44.2 L17.2 -43.75 17.2 -43.7 16.95 -43.7 16.85 -43.25 16.8 -42.55 Q16.8 -41.95 16.95 -41.4 17.2 -40.4 17.9 -39.6 19.0 -38.4 20.45 -38.4 L22.0 -38.45 Q22.55 -38.1 22.35 -37.35 L22.25 -37.15 Q21.85 -36.65 20.4 -36.65 18.25 -36.65 16.6 -38.4 15.35 -39.8 15.05 -41.55 L14.95 -42.7 14.95 -42.85 14.95 -43.15 15.0 -43.3 15.2 -44.6 15.35 -45.1 Q14.5 -46.8 12.6 -47.05 11.05 -47.25 9.95 -46.15 9.4 -45.65 9.15 -44.95 L9.2 -44.45 8.95 -44.45 8.8 -43.55 8.8 -43.3 Q8.8 -42.7 8.95 -42.15 9.2 -41.15 9.9 -40.35 11.0 -39.15 12.45 -39.15 L14.0 -39.2 Q14.6 -38.8 14.3 -38.1 L14.2 -37.9 Q13.85 -37.4 12.4 -37.4 10.25 -37.4 8.6 -39.15 7.35 -40.55 7.05 -42.3 L6.95 -43.45 6.95 -43.6 6.95 -43.7 6.95 -43.9 7.2 -45.35 7.35 -45.85 Q6.5 -47.55 4.6 -47.8 3.05 -48.0 1.95 -46.9 L1.15 -45.7 1.2 -45.2 0.95 -45.2 0.8 -44.3 0.8 -44.05 Q0.8 -43.45 0.95 -42.9 1.2 -41.9 1.9 -41.1 3.0 -39.9 4.45 -39.9 L6.0 -39.95 Q6.5 -39.6 6.3 -38.85 L6.2 -38.65 Q5.85 -38.15 4.4 -38.15 2.2 -38.1 0.6 -39.9 -0.7 -41.25 -1.0 -43.05 L-1.1 -44.2 -1.1 -44.4 -1.0 -45.35 -0.65 -46.6 Q-1.5 -48.25 -3.4 -48.55 -4.95 -48.75 -6.05 -47.65 L-6.85 -46.45 -6.8 -45.95 -7.05 -45.95 -7.05 -45.9 -7.2 -44.85 -7.2 -44.8 -7.05 -43.65 Q-6.8 -42.65 -6.1 -41.85 -5.05 -40.65 -3.55 -40.65 L-2.0 -40.7 Q-1.5 -40.3 -1.7 -39.6 L-1.8 -39.4 Q-2.15 -38.9 -3.6 -38.9 -5.8 -38.85 -7.4 -40.65 -8.7 -42.0 -9.0 -43.85 L-9.1 -44.95 -9.1 -45.1 -9.0 -46.05 -8.7 -47.35 Q-9.45 -49.0 -11.4 -49.3 -12.95 -49.5 -13.6 -48.75 L-14.6 -47.55 -14.65 -47.4 -14.5 -46.45 -14.95 -46.45 -14.95 -46.4 -15.05 -46.0 -15.05 -45.9 -15.1 -44.45 Q-14.85 -43.4 -14.15 -42.6 -13.05 -41.4 -11.6 -41.4 L-10.0 -41.45 Q-9.5 -41.05 -9.7 -40.35 L-9.8 -40.15 Q-10.15 -39.65 -11.6 -39.65 -13.8 -39.6 -15.4 -41.35 -16.7 -42.75 -17.0 -44.6 L-17.1 -45.7 -17.1 -46.2 -17.05 -46.7 -16.7 -48.1 Q-17.5 -49.75 -19.45 -50.05 -20.95 -50.3 -22.1 -49.15 L-22.55 -48.65 -22.9 -48.05 -22.75 -47.2 -22.8 -47.2 -22.85 -47.2 -23.15 -47.2 -23.2 -46.75 -23.25 -46.35 -23.25 -46.3 -23.1 -45.2 Q-22.9 -44.2 -22.15 -43.35 -21.05 -42.15 -19.6 -42.15 L-18.0 -42.2 Q-17.5 -41.8 -17.7 -41.1 L-17.8 -40.85 Q-18.2 -40.4 -19.65 -40.4 -21.8 -40.35 -23.4 -42.1 L-24.0 -42.85 -24.05 -42.9 -24.15 -43.05 Q-24.8 -44.15 -25.0 -45.4 L-25.1 -46.3 -25.1 -46.45 -25.1 -46.5 -25.1 -46.6 -25.1 -46.7 -25.1 -46.85 -25.05 -47.35 -24.7 -48.8 Q-25.55 -50.5 -27.45 -50.8 -29.0 -51.0 -30.1 -49.9 L-30.4 -49.55 -30.9 -48.7 -30.7 -47.85 -31.1 -47.85 -31.15 -47.85 -31.25 -47.15 -31.25 -47.05 -31.25 -46.9 -31.25 -46.85 -31.1 -46.0 -30.9 -45.3 -30.75 -45.0 -30.6 -44.75 -30.6 -44.7 -30.2 -44.15 -30.15 -44.1 Q-29.1 -42.9 -27.6 -42.85 L-26.05 -42.95 Q-25.5 -42.6 -25.7 -41.85 L-25.8 -41.6 Q-26.2 -41.15 -27.65 -41.15 -29.8 -41.1 -31.45 -42.85 -32.75 -44.25 -33.0 -46.15 L-33.1 -47.2 -33.05 -48.0 -33.05 -48.3 -32.9 -49.0 -32.7 -49.55 Q-33.55 -51.25 -35.45 -51.55 -37.0 -51.75 -38.1 -50.65 -39.0 -49.8 -39.2 -48.5 L-39.25 -47.95 -39.25 -47.8 -39.25 -47.7 -39.25 -47.65 -39.2 -47.25 -38.8 -45.85 -38.3 -45.0 -38.25 -44.95 -38.2 -44.9 -38.15 -44.85 Q-37.1 -43.65 -35.6 -43.6 L-34.05 -43.7 Q-33.45 -43.3 -33.75 -42.55 L-33.85 -42.35 Q-34.2 -41.9 -35.65 -41.9 -37.8 -41.85 -39.45 -43.6 -40.75 -45.05 -41.0 -46.9 L-41.1 -47.75 -41.1 -47.95 -41.1 -48.2 Q-41.05 -50.7 -39.4 -52.25 -37.7 -53.85 -35.4 -53.45 -32.95 -53.05 -31.75 -51.1 L-31.5 -51.4 -31.4 -51.5 Q-29.7 -53.15 -27.4 -52.75 -24.9 -52.3 -23.75 -50.35 L-23.5 -50.6 -23.5 -50.65 -23.45 -50.7 -23.4 -50.75 Q-21.7 -52.4 -19.4 -52.0 L-19.25 -51.95 -19.1 -51.95 -17.9 -51.55 Q-16.6 -50.95 -15.6 -49.65 -14.0 -51.4 -11.85 -51.15 -8.9 -50.8 -7.75 -48.9 L-7.45 -49.15 -7.4 -49.25 Q-5.7 -50.9 -3.35 -50.5 -0.9 -50.05 0.3 -48.15 L0.6 -48.5 Q2.35 -50.15 4.65 -49.75 7.15 -49.3 8.3 -47.35 L8.55 -47.65 8.65 -47.75 Q10.35 -49.4 12.65 -49.0 15.15 -48.55 16.3 -46.6 L16.55 -46.9 16.65 -47.0 Q18.35 -48.65 20.65 -48.25 23.15 -47.8 24.3 -45.95 L24.6 -46.2 M24.3 -45.95 Q23.65 -45.25 23.35 -44.35 23.65 -45.25 24.3 -45.95 M17.15 -44.2 L17.0 -43.75 16.95 -43.7 17.0 -43.75 17.15 -44.2 M25.15 -43.55 L24.95 -43.0 24.95 -42.95 24.95 -43.0 25.15 -43.55 M16.3 -46.6 L15.35 -45.1 16.3 -46.6 M9.15 -44.95 L8.95 -44.5 8.95 -44.45 8.95 -44.5 9.15 -44.95 M8.3 -47.35 L7.35 -45.85 8.3 -47.35 M1.15 -45.7 L0.95 -45.2 1.15 -45.7 M-8.7 -47.35 L-7.75 -48.9 -8.7 -47.35 M-31.75 -51.1 L-32.7 -49.55 -31.75 -51.1 M-22.9 -48.05 L-23.05 -47.7 -23.15 -47.2 -23.05 -47.7 -22.9 -48.05 M-14.65 -47.4 L-14.95 -46.45 -14.65 -47.4 M-7.05 -45.95 L-6.85 -46.45 -7.05 -45.95 M-0.65 -46.6 L0.3 -48.15 -0.65 -46.6 M-24.7 -48.8 L-23.75 -50.35 -24.7 -48.8 M-16.7 -48.1 L-15.6 -49.65 -16.7 -48.1 M-31.15 -47.85 L-30.9 -48.7 -31.15 -47.85" fill="#ffffff" fill-opacity="0.0" fill-rule="evenodd" stroke="none"/>
    <path d="M24.6 -46.2 L24.65 -46.3 Q26.35 -47.9 28.65 -47.5 32.7 -46.75 33.25 -42.15 L31.75 -42.3 Q31.2 -45.2 28.65 -45.55 27.1 -45.75 25.95 -44.65 L25.9 -44.6 25.85 -44.55 25.85 -44.5 25.55 -44.15 25.15 -43.55 25.25 -43.0 25.25 -42.95 24.95 -42.95 24.95 -43.0 25.15 -43.55 M30.4 -37.0 L30.35 -36.6 30.25 -36.4 Q30.1 -36.2 29.75 -36.05 M23.0 -43.15 L23.35 -44.35 Q22.5 -46.05 20.6 -46.3 19.05 -46.5 17.95 -45.4 17.4 -44.9 17.15 -44.2 L17.2 -43.75 17.2 -43.7 16.95 -43.7 17.0 -43.75 17.15 -44.2 M15.0 -43.3 L15.2 -44.6 15.35 -45.1 Q14.5 -46.8 12.6 -47.05 11.05 -47.25 9.95 -46.15 9.4 -45.65 9.15 -44.95 L9.2 -44.45 8.95 -44.45 8.95 -44.5 9.15 -44.95 M6.95 -43.9 L7.2 -45.35 7.35 -45.85 Q6.5 -47.55 4.6 -47.8 3.05 -48.0 1.95 -46.9 L1.15 -45.7 1.2 -45.2 0.95 -45.2 1.15 -45.7 M-1.0 -45.35 L-0.65 -46.6 Q-1.5 -48.25 -3.4 -48.55 -4.95 -48.75 -6.05 -47.65 L-6.85 -46.45 -6.8 -45.95 -7.05 -45.95 -7.05 -45.9 M-9.0 -46.05 L-8.7 -47.35 Q-9.45 -49.0 -11.4 -49.3 -12.95 -49.5 -13.6 -48.75 L-14.6 -47.55 -14.65 -47.4 -14.5 -46.45 -14.95 -46.45 -14.65 -47.4 M-17.05 -46.7 L-16.7 -48.1 Q-17.5 -49.75 -19.45 -50.05 -20.95 -50.3 -22.1 -49.15 L-22.55 -48.65 -22.9 -48.05 -22.75 -47.2 M-22.8 -47.2 L-22.85 -47.2 -23.15 -47.2 -23.05 -47.7 -22.9 -48.05 M-25.05 -47.35 L-24.7 -48.8 Q-25.55 -50.5 -27.45 -50.8 -29.0 -51.0 -30.1 -49.9 L-30.4 -49.55 -30.9 -48.7 -30.7 -47.85 -31.1 -47.85 M-33.05 -48.0 L-33.05 -48.3 -32.9 -49.0 M-32.7 -49.55 Q-33.55 -51.25 -35.45 -51.55 -37.0 -51.75 -38.1 -50.65 -39.0 -49.8 -39.2 -48.5 M-41.1 -48.2 Q-41.05 -50.7 -39.4 -52.25 -37.7 -53.85 -35.4 -53.45 -32.95 -53.05 -31.75 -51.1 M-31.5 -51.4 L-31.4 -51.5 Q-29.7 -53.15 -27.4 -52.75 -24.9 -52.3 -23.75 -50.35 L-23.5 -50.6 -23.5 -50.65 -23.45 -50.7 -23.4 -50.75 Q-21.7 -52.4 -19.4 -52.0 L-19.25 -51.95 -19.1 -51.95 -17.9 -51.55 Q-16.6 -50.95 -15.6 -49.65 -14.0 -51.4 -11.85 -51.15 -8.9 -50.8 -7.75 -48.9 L-7.45 -49.15 -7.4 -49.25 Q-5.7 -50.9 -3.35 -50.5 -0.9 -50.05 0.3 -48.15 L0.6 -48.5 Q2.35 -50.15 4.65 -49.75 7.15 -49.3 8.3 -47.35 M8.55 -47.65 L8.65 -47.75 Q10.35 -49.4 12.65 -49.0 15.15 -48.55 16.3 -46.6 M16.55 -46.9 L16.65 -47.0 Q18.35 -48.65 20.65 -48.25 23.15 -47.8 24.3 -45.95 M-6.85 -46.45 L-7.05 -45.95" fill="none" stroke="#000000" stroke-linecap="round" stroke-linejoin="round" stroke-width="1.0"/>
    <path d="M24.95 -42.95 L24.85 -42.5 24.8 -41.8 Q24.8 -41.2 24.95 -40.65 25.2 -39.65 25.9 -38.9 26.95 -37.7 28.45 -37.65 L30.05 -37.7 30.4 -37.0 M29.75 -36.05 L28.4 -35.9 Q26.25 -35.9 24.65 -37.65 23.4 -39.05 23.05 -40.8 L22.95 -42.1 22.95 -42.8 23.0 -43.15 M16.95 -43.7 L16.85 -43.25 16.8 -42.55 Q16.8 -41.95 16.95 -41.4 17.2 -40.4 17.9 -39.6 19.0 -38.4 20.45 -38.4 L22.0 -38.45 Q22.55 -38.1 22.35 -37.35 L22.25 -37.15 Q21.85 -36.65 20.4 -36.65 18.25 -36.65 16.6 -38.4 15.35 -39.8 15.05 -41.55 L14.95 -42.7 14.95 -42.85 14.95 -43.15 15.0 -43.3 M8.95 -44.45 L8.8 -43.55 8.8 -43.3 Q8.8 -42.7 8.95 -42.15 9.2 -41.15 9.9 -40.35 11.0 -39.15 12.45 -39.15 L14.0 -39.2 Q14.6 -38.8 14.3 -38.1 L14.2 -37.9 Q13.85 -37.4 12.4 -37.4 10.25 -37.4 8.6 -39.15 7.35 -40.55 7.05 -42.3 L6.95 -43.45 6.95 -43.6 6.95 -43.7 6.95 -43.9 M0.95 -45.2 L0.8 -44.3 0.8 -44.05 Q0.8 -43.45 0.95 -42.9 1.2 -41.9 1.9 -41.1 3.0 -39.9 4.45 -39.9 L6.0 -39.95 Q6.5 -39.6 6.3 -38.85 L6.2 -38.65 Q5.85 -38.15 4.4 -38.15 2.2 -38.1 0.6 -39.9 -0.7 -41.25 -1.0 -43.05 L-1.1 -44.2 -1.1 -44.4 -1.0 -45.35 M-7.05 -45.9 L-7.2 -44.85 -7.2 -44.8 -7.05 -43.65 Q-6.8 -42.65 -6.1 -41.85 -5.05 -40.65 -3.55 -40.65 L-2.0 -40.7 Q-1.5 -40.3 -1.7 -39.6 L-1.8 -39.4 Q-2.15 -38.9 -3.6 -38.9 -5.8 -38.85 -7.4 -40.65 -8.7 -42.0 -9.0 -43.85 L-9.1 -44.95 -9.1 -45.1 -9.0 -46.05 M-14.95 -46.45 L-14.95 -46.4 -15.05 -46.0 -15.05 -45.9 -15.1 -44.45 Q-14.85 -43.4 -14.15 -42.6 -13.05 -41.4 -11.6 -41.4 L-10.0 -41.45 Q-9.5 -41.05 -9.7 -40.35 L-9.8 -40.15 Q-10.15 -39.65 -11.6 -39.65 -13.8 -39.6 -15.4 -41.35 -16.7 -42.75 -17.0 -44.6 L-17.1 -45.7 -17.1 -46.2 -17.05 -46.7 M-22.75 -47.2 L-22.8 -47.2 M-23.15 -47.2 L-23.2 -46.75 -23.25 -46.35 -23.25 -46.3 -23.1 -45.2 Q-22.9 -44.2 -22.15 -43.35 -21.05 -42.15 -19.6 -42.15 L-18.0 -42.2 Q-17.5 -41.8 -17.7 -41.1 L-17.8 -40.85 Q-18.2 -40.4 -19.65 -40.4 -21.8 -40.35 -23.4 -42.1 L-24.0 -42.85 -24.05 -42.9 -24.15 -43.05 Q-24.8 -44.15 -25.0 -45.4 L-25.1 -46.3 -25.1 -46.45 -25.1 -46.5 -25.1 -46.6 -25.1 -46.7 -25.1 -46.85 -25.05 -47.35 M-31.1 -47.85 L-31.15 -47.85 -31.25 -47.15 -31.25 -47.05 -31.25 -46.9 -31.25 -46.85 -31.1 -46.0 -30.9 -45.3 -30.75 -45.0 -30.6 -44.75 -30.6 -44.7 -30.2 -44.15 -30.15 -44.1 Q-29.1 -42.9 -27.6 -42.85 L-26.05 -42.95 Q-25.5 -42.6 -25.7 -41.85 L-25.8 -41.6 Q-26.2 -41.15 -27.65 -41.15 -29.8 -41.1 -31.45 -42.85 -32.75 -44.25 -33.0 -46.15 L-33.1 -47.2 -33.05 -48.0 M-32.9 -49.0 L-32.7 -49.55 -31.75 -51.1 -31.5 -51.4 M-39.2 -48.5 L-39.25 -47.95 -39.25 -47.8 -39.25 -47.7 -39.25 -47.65 -39.2 -47.25 -38.8 -45.85 -38.3 -45.0 -38.25 -44.95 -38.2 -44.9 -38.15 -44.85 Q-37.1 -43.65 -35.6 -43.6 L-34.05 -43.7 Q-33.45 -43.3 -33.75 -42.55 L-33.85 -42.35 Q-34.2 -41.9 -35.65 -41.9 -37.8 -41.85 -39.45 -43.6 -40.75 -45.05 -41.0 -46.9 L-41.1 -47.75 -41.1 -47.95 -41.1 -48.2 M8.3 -47.35 L8.55 -47.65 M16.3 -46.6 L16.55 -46.9 M24.3 -45.95 L24.6 -46.2 M23.35 -44.35 Q23.65 -45.25 24.3 -45.95 M15.35 -45.1 L16.3 -46.6 M7.35 -45.85 L8.3 -47.35 M-7.75 -48.9 L-8.7 -47.35 M-30.9 -48.7 L-31.15 -47.85 M-15.6 -49.65 L-16.7 -48.1 M-23.75 -50.35 L-24.7 -48.8 M0.3 -48.15 L-0.65 -46.6" fill="none" stroke="#000000" stroke-linecap="round" stroke-linejoin="round" stroke-opacity="0.6" stroke-width="1.0"/>
  </g>
</svg>
