<?xml version="1.0" encoding="UTF-8" standalone="no"?>
<svg xmlns:xlink="http://www.w3.org/1999/xlink" height="52.95px" width="72.3px" xmlns="http://www.w3.org/2000/svg">
  <g transform="matrix(1.0, 0.0, 0.0, 1.0, 37.55, 27.95)">
    <path d="M-16.85 -22.35 Q-14.5 -19.3 -12.15 -14.7 -10.1 -10.65 -8.8 -5.75 0.75 4.65 18.45 11.75 27.3 15.3 34.25 16.8 L30.75 24.5 Q13.6 18.9 -0.2 10.05 L-8.0 4.55 -10.55 2.4 Q-13.35 1.35 -16.95 4.8 -21.15 8.85 -23.0 9.15 -25.85 9.55 -24.0 4.85 L-21.6 0.1 -26.05 -0.25 Q-31.0 -1.05 -33.6 -3.45 -36.15 -5.85 -29.3 -5.7 L-21.95 -5.1 Q-23.85 -5.6 -26.15 -6.7 -30.65 -8.85 -32.45 -11.85 -34.25 -14.85 -27.4 -13.0 -24.0 -12.1 -20.25 -10.55 L-23.05 -12.6 Q-26.05 -15.2 -26.85 -18.25 -27.65 -21.3 -22.9 -18.25 L-18.0 -14.6 -19.1 -16.75 Q-20.15 -19.55 -20.05 -22.95 -20.0 -26.45 -16.85 -22.35" fill="#ffffff" fill-opacity="0.0" fill-rule="evenodd" stroke="none"/>
    <path d="M30.75 24.5 Q13.6 18.9 -0.2 10.05 L-8.0 4.55 -10.55 2.4 Q-13.35 1.35 -16.95 4.8 -21.15 8.85 -23.0 9.15 -25.85 9.55 -24.0 4.85 L-21.6 0.1 -26.05 -0.25 Q-31.0 -1.05 -33.6 -3.45 -36.15 -5.85 -29.3 -5.7 L-21.95 -5.1 Q-23.85 -5.6 -26.15 -6.7 -30.65 -8.85 -32.45 -11.85 -34.25 -14.85 -27.4 -13.0 -24.0 -12.1 -20.25 -10.55 L-23.05 -12.6 Q-26.05 -15.2 -26.85 -18.25 -27.65 -21.3 -22.9 -18.25 L-18.0 -14.6 -19.1 -16.75 Q-20.15 -19.55 -20.05 -22.95 -20.0 -26.45 -16.85 -22.35 -14.5 -19.3 -12.15 -14.7 -10.1 -10.65 -8.8 -5.75 0.75 4.65 18.45 11.75 27.3 15.3 34.25 16.8" fill="none" stroke="#000000" stroke-linecap="butt" stroke-linejoin="miter-clip" stroke-miterlimit="10.0" stroke-width="1.0"/>
    <path d="M-2.5 4.5 L11.2 12.85 Q23.5 19.9 29.7 21.55 24.3 20.4 18.1 18.15 3.1 12.6 -2.5 4.5" fill="#ffffff" fill-rule="evenodd" stroke="none"/>
  </g>
</svg>
