<?xml version="1.0" encoding="UTF-8" standalone="no"?>
<svg xmlns:xlink="http://www.w3.org/1999/xlink" height="31.95px" width="73.55px" xmlns="http://www.w3.org/2000/svg">
  <g transform="matrix(1.0, 0.0, 0.0, 1.0, 32.5, -18.8)">
    <path d="M-17.65 42.8 L-20.8 41.15 -18.95 42.1 -17.65 42.8" fill="#ebebeb" fill-rule="evenodd" stroke="none"/>
    <path d="M40.5 35.0 L40.5 35.5 39.85 37.5 39.55 37.95 39.45 38.1 39.5 38.05 39.55 37.95 Q40.55 36.45 40.5 35.0 M-13.55 44.65 L-16.35 43.4 -17.65 42.8 -18.95 42.1 -17.0 43.05 -13.55 44.65" fill="#dedede" fill-rule="evenodd" stroke="none"/>
    <path d="M40.15 33.4 L40.3 33.75 40.25 33.75 40.2 33.5 40.15 33.4" fill="#c7c7c7" fill-rule="evenodd" stroke="none"/>
    <path d="M9.15 50.2 L8.95 50.25 8.7 50.25 9.15 50.2 M7.1 50.2 L6.7 50.2 Q2.7 50.05 -2.15 48.75 -7.2 47.4 -13.2 44.8 -9.2 46.45 -4.85 47.75 2.3 50.0 7.1 50.2 M-23.95 39.3 L-24.45 39.0 Q-32.3 34.15 -32.0 30.1 -32.05 31.4 -31.1 32.9 -29.25 35.95 -23.95 39.3" fill="#bdbdbd" fill-rule="evenodd" stroke="none"/>
    <path d="M39.45 38.1 L39.2 38.5 38.3 39.5 38.1 39.7 Q35.75 41.95 31.15 44.25 L30.35 44.65 29.55 45.05 30.1 44.75 Q40.95 39.6 40.4 34.55 34.0 41.45 20.8 44.05 L12.35 45.15 8.85 45.25 Q-6.5 44.4 -19.05 38.0 -26.6 34.15 -31.8 29.1 L-32.0 30.1 Q-31.95 28.05 -29.55 26.5 L-28.2 25.75 -19.3 22.55 -18.3 22.25 Q-12.65 20.6 -7.65 19.85 L-7.4 19.85 -7.1 19.8 -1.85 19.35 -1.15 19.3 -0.95 19.3 -0.35 19.3 7.7 19.85 11.95 20.55 12.0 20.55 13.5 20.85 Q18.45 21.9 23.8 23.65 L28.3 25.25 Q38.35 29.15 40.15 33.4 L40.2 33.5 40.25 33.75 40.45 34.5 40.5 35.0 Q40.55 36.45 39.55 37.95 L39.5 38.05 39.45 38.1" fill="#ffffff" fill-opacity="0.0" fill-rule="evenodd" stroke="none"/>
    <path d="M30.35 44.65 Q21.25 49.05 11.7 50.05 L10.8 50.1 9.2 50.2 9.15 50.2 8.7 50.25 7.1 50.2 Q2.3 50.0 -4.85 47.75 -9.2 46.45 -13.2 44.8 L-13.55 44.65 -17.0 43.05 -18.95 42.1 -20.8 41.15 -20.85 41.15 -23.95 39.3 Q-29.25 35.95 -31.1 32.9 -32.05 31.4 -32.0 30.1 L-31.8 29.1 Q-26.6 34.15 -19.05 38.0 -6.5 44.4 8.85 45.25 L12.35 45.15 20.8 44.05 Q34.0 41.45 40.4 34.55 40.95 39.6 30.1 44.75 L29.55 45.05 30.35 44.65" fill="#000000" fill-opacity="0.101960786" fill-rule="evenodd" stroke="none"/>
    <path d="M39.55 37.95 L39.45 38.1 39.2 38.5 38.3 39.5 38.1 39.7 Q35.75 41.95 31.15 44.25 L30.35 44.65 Q21.25 49.05 11.7 50.05 L10.8 50.1 9.2 50.2 9.15 50.2 8.95 50.25 M8.7 50.25 L7.1 50.2 Q2.3 50.0 -4.85 47.75 -9.2 46.45 -13.2 44.8 L-13.55 44.65 -16.35 43.4 -17.65 42.8 -20.8 41.15 -20.85 41.15 -23.95 39.3 Q-29.25 35.95 -31.1 32.9 -32.05 31.4 -32.0 30.1 -31.95 28.05 -29.55 26.5 L-28.2 25.75 -19.3 22.55 -18.3 22.25 Q-12.65 20.6 -7.65 19.85 L-7.4 19.85 -7.1 19.8 -1.85 19.35 -1.15 19.3 -0.95 19.3 -0.35 19.3 7.7 19.85 11.95 20.55 12.0 20.55 13.5 20.85 Q18.45 21.9 23.8 23.65 L28.3 25.25 Q38.35 29.15 40.15 33.4 L40.3 33.75 40.55 33.6 M29.55 45.05 L30.35 44.65 M40.25 33.75 L40.2 33.5 40.15 33.4 M40.25 33.75 L40.45 34.5 40.5 35.0 40.3 33.75 40.25 33.75 M39.55 37.95 L39.5 38.05 39.45 38.1 M9.15 50.2 L8.7 50.25 M39.55 37.95 Q40.55 36.45 40.5 35.0 M-18.95 42.1 L-17.65 42.8 M-20.8 41.15 L-18.95 42.1" fill="none" stroke="#000000" stroke-linecap="round" stroke-linejoin="round" stroke-opacity="0.6" stroke-width="1.0"/>
  </g>
</svg>
