<?xml version="1.0" encoding="UTF-8" standalone="no"?>
<svg xmlns:xlink="http://www.w3.org/1999/xlink" height="20.35px" width="36.0px" xmlns="http://www.w3.org/2000/svg">
  <g transform="matrix(1.0, 0.0, 0.0, 1.0, 25.2, 10.8)">
    <path d="M10.25 3.8 L10.25 5.6 9.8 5.65 Q9.35 5.4 9.0 4.65 10.2 4.8 10.25 3.8" fill="#000000" fill-opacity="0.3019608" fill-rule="evenodd" stroke="none"/>
    <path d="M3.15 3.6 Q1.7 2.45 1.8 0.55 L2.05 -0.9 2.4 -2.0 Q2.65 -2.9 3.35 -3.55 L4.8 -4.4 3.05 -5.85 Q1.1 -7.1 -1.3 -7.15 -3.8 -7.2 -6.5 -5.85 -8.3 -4.9 -9.4 -3.9 L-9.6 -3.65 Q-10.35 -2.9 -10.45 -1.45 -10.55 -0.4 -10.2 0.55 L-10.0 1.15 -9.6 1.85 -7.75 3.4 -7.65 3.5 -6.45 4.05 -4.95 4.0 -5.3 3.8 Q-5.75 3.45 -6.0 2.65 L-6.35 1.4 M5.95 4.45 L6.7 4.9 6.9 5.05 7.25 5.2 8.55 5.55 9.65 5.65 9.8 5.65 10.25 5.6 10.25 3.8 10.25 3.55 9.85 0.75 8.95 -1.45 7.9 -3.25 6.75 -4.15 5.05 -4.45 4.8 -4.4 M6.7 4.9 L4.75 5.45 Q4.65 5.95 4.9 6.4 5.0 5.95 5.35 5.75 5.2 6.25 5.35 6.7 5.6 6.0 6.1 5.5 5.85 6.15 6.2 6.65 6.5 5.6 6.95 5.5 L6.9 5.05 M-0.25 4.2 L1.3 5.6 3.2 5.6 4.75 5.45 M-4.95 4.0 L-4.05 4.35 -3.95 4.35 -2.95 4.45 -2.55 4.45 1.25 7.35 2.6 8.5 Q2.9 8.7 2.75 9.05 3.2 8.75 3.0 8.35 3.6 8.45 3.9 9.0 4.0 8.4 3.65 8.0 L4.55 8.5 Q4.3 7.45 3.8 7.2 L2.8 7.2 1.85 6.05 1.3 5.6 M-10.2 0.55 L-16.45 -0.85 -18.55 -1.5 Q-20.75 -2.35 -22.3 -3.7 L-22.45 -3.9 Q-23.35 -5.0 -22.25 -6.05 -20.85 -7.35 -20.65 -8.35 -20.45 -9.25 -21.25 -9.8 -21.85 -10.2 -22.9 -10.3 L-24.6 -10.1 -24.7 -10.0 -24.7 -9.9 -24.6 -9.8 -24.5 -9.8 -22.9 -10.0 -21.4 -9.55 Q-20.8 -9.1 -20.95 -8.4 -21.15 -7.5 -22.45 -6.25 -23.75 -5.0 -22.9 -3.9 -22.05 -2.75 -20.05 -1.75 L-18.55 -1.1 -16.45 -0.35 -12.7 0.85 -9.7 1.8 -9.6 1.85 M-7.65 3.5 L-7.6 3.95 Q-7.5 4.25 -6.4 4.7 -5.65 5.1 -5.25 5.85 -5.05 5.45 -5.3 5.15 L-4.2 5.85 -4.3 5.1 Q-3.9 5.0 -3.2 5.75 -3.25 4.95 -3.5 4.75 L-4.05 4.35" fill="none" stroke="#000000" stroke-linecap="round" stroke-linejoin="round" stroke-width="1.0"/>
  </g>
</svg>
