<?xml version="1.0" encoding="UTF-8" standalone="no"?>
<svg xmlns:xlink="http://www.w3.org/1999/xlink" height="121.05px" width="170.35px" xmlns="http://www.w3.org/2000/svg">
  <g transform="matrix(1.0, 0.0, 0.0, 1.0, 117.75, 74.75)">
    <path d="M-115.9 -17.3 L-115.9 -17.5 -117.15 -30.0 Q-117.7 -39.15 -115.6 -40.8 L-115.15 -41.1 Q-111.25 -42.55 -72.9 -44.85 L-66.45 -45.25 -58.15 -45.75 Q-6.55 -48.75 0.5 -46.3 L1.1 -46.0 Q3.45 -44.55 2.15 -34.95 0.9 -25.35 -2.35 -24.75 -66.35 -11.85 -115.9 -17.3 M-63.75 -25.0 Q-67.45 -31.05 -71.05 -38.4 -73.3 -42.9 -73.0 -44.8 L-72.9 -44.85 -73.0 -44.8 Q-73.3 -42.9 -71.05 -38.4 -67.45 -31.05 -63.75 -25.0 M-60.1 -26.85 Q-61.65 -26.85 -62.7 -25.8 -63.75 -24.7 -63.75 -23.2 -63.75 -21.7 -62.7 -20.65 -61.65 -19.5 -60.1 -19.5 -58.6 -19.5 -57.55 -20.65 -56.5 -21.7 -56.5 -23.2 -56.5 -24.7 -57.55 -25.8 -58.6 -26.85 -60.1 -26.85 -62.85 -30.45 -65.2 -34.35 -69.9 -42.1 -68.05 -43.2 -64.95 -45.1 -63.75 -45.1 L-66.45 -45.25 -63.75 -45.1 Q-64.95 -45.1 -68.05 -43.2 -69.9 -42.1 -65.2 -34.35 -62.85 -30.45 -60.1 -26.85 -58.6 -26.85 -57.55 -25.8 -56.5 -24.7 -56.5 -23.2 -56.5 -21.7 -57.55 -20.65 -58.6 -19.5 -60.1 -19.5 -61.65 -19.5 -62.7 -20.65 -63.75 -21.7 -63.75 -23.2 -63.75 -24.7 -62.7 -25.8 -61.65 -26.85 -60.1 -26.85" fill="#ffffff" fill-opacity="0.0" fill-rule="evenodd" stroke="none"/>
    <path d="M45.5 -73.05 L47.25 -74.1 Q48.2 -74.7 50.15 -72.6 52.1 -70.45 51.35 -68.85 51.0 -68.1 48.45 -66.45 46.35 -65.2 42.75 -63.3 L33.0 -58.35 Q31.85 -58.35 30.95 -59.05 29.15 -60.45 30.35 -64.0 L45.5 -73.05 M52.1 34.25 L50.7 37.7 Q48.8 41.45 46.5 42.9 43.95 44.4 14.9 45.35 -13.3 46.2 -16.15 45.5 -18.6 44.9 -18.75 41.6 -18.9 38.3 -15.7 37.85 -7.65 40.4 17.6 39.35 45.2 38.25 48.75 36.5 L52.1 34.25" fill="#000000" fill-opacity="0.49803922" fill-rule="evenodd" stroke="none"/>
    <path d="M48.45 -66.45 Q46.35 -65.2 42.75 -63.3 L33.0 -58.35 Q31.85 -58.35 30.95 -59.05 29.15 -60.45 30.35 -64.0 L45.5 -73.05 M-115.9 -17.3 L-115.9 -17.5 -117.15 -30.0 Q-117.7 -39.15 -115.6 -40.8 L-115.15 -41.1 Q-111.25 -42.55 -72.9 -44.85 L-66.45 -45.25 -58.15 -45.75 Q-6.55 -48.75 0.5 -46.3 L1.1 -46.0 Q3.45 -44.55 2.15 -34.95 0.9 -25.35 -2.35 -24.75 M-15.7 37.85 Q-7.65 40.4 17.6 39.35 45.2 38.25 48.75 36.5 L52.1 34.25" fill="none" stroke="#000000" stroke-linecap="round" stroke-linejoin="round" stroke-width="1.0"/>
    <path d="M45.5 -73.05 L47.25 -74.1 Q48.2 -74.7 50.15 -72.6 52.1 -70.45 51.35 -68.85 51.0 -68.1 48.45 -66.45 M-2.35 -24.75 Q-66.35 -11.85 -115.9 -17.3 M52.1 34.25 L50.7 37.7 Q48.8 41.45 46.5 42.9 43.95 44.4 14.9 45.35 -13.3 46.2 -16.15 45.5 -18.6 44.9 -18.75 41.6 -18.9 38.3 -15.7 37.85" fill="none" stroke="#000000" stroke-linecap="round" stroke-linejoin="round" stroke-opacity="0.6" stroke-width="1.0"/>
    <path d="M-66.45 -45.25 L-63.75 -45.1 Q-64.95 -45.1 -68.05 -43.2 -69.9 -42.1 -65.2 -34.35 -62.85 -30.45 -60.1 -26.85 -58.6 -26.85 -57.55 -25.8 -56.5 -24.7 -56.5 -23.2 -56.5 -21.7 -57.55 -20.65 -58.6 -19.5 -60.1 -19.5 -61.65 -19.5 -62.7 -20.65 -63.75 -21.7 -63.75 -23.2 -63.75 -24.7 -62.7 -25.8 -61.65 -26.85 -60.1 -26.85 M-72.9 -44.85 L-73.0 -44.8 Q-73.3 -42.9 -71.05 -38.4 -67.45 -31.05 -63.75 -25.0" fill="none" stroke="#000000" stroke-linecap="round" stroke-linejoin="round" stroke-opacity="0.4" stroke-width="1.0"/>
  </g>
</svg>
