<?xml version="1.0" encoding="UTF-8" standalone="no"?>
<svg xmlns:xlink="http://www.w3.org/1999/xlink" height="175.25px" width="131.6px" xmlns="http://www.w3.org/2000/svg">
  <g transform="matrix(1.0, 0.0, 0.0, 1.0, 65.8, 87.6)">
    <path d="M-47.0 -78.2 Q-47.25 -80.15 -46.4 -80.4 -44.5 -80.85 -42.15 -79.55 L-25.0 -83.25 Q-6.75 -86.95 -0.95 -87.1 L0.0 -87.1 0.95 -87.1 Q6.75 -86.95 25.0 -83.25 L42.15 -79.55 Q44.5 -80.85 46.4 -80.4 47.25 -80.15 47.0 -78.2 L46.8 -77.2 45.55 -72.65 45.45 -72.2 Q45.15 -70.4 43.15 -72.0 42.1 -72.75 41.2 -73.9 L26.9 -76.6 12.0 -79.25 18.05 -69.4 20.25 -64.25 Q23.05 -57.2 23.85 -50.45 L24.1 -43.3 24.05 -43.3 24.2 17.8 24.2 20.9 24.2 32.1 13.65 32.1 13.65 27.1 17.9 27.1 17.9 -41.1 Q10.05 -38.95 0.0 -38.9 -10.05 -38.95 -17.9 -41.1 L-17.9 27.1 -13.65 27.1 -13.65 32.1 -24.2 32.1 -24.2 20.9 -24.2 17.8 -24.05 -43.3 -24.1 -43.3 -23.85 -50.45 Q-23.05 -57.2 -20.25 -64.25 L-18.05 -69.4 -12.0 -79.25 -26.9 -76.6 -41.2 -73.9 Q-42.1 -72.75 -43.15 -72.0 -45.15 -70.4 -45.45 -72.2 L-45.55 -72.65 -46.8 -77.2 -47.0 -78.2" fill="#ffffff" fill-opacity="0.0" fill-rule="evenodd" stroke="none"/>
    <path d="M-24.2 17.8 L-24.2 20.9 -36.4 20.9 -36.4 22.55 -54.0 22.55 -54.0 16.1 -36.4 16.1 -36.4 17.8 -24.2 17.8 M24.2 20.9 L24.2 17.8 36.4 17.8 36.4 16.1 54.0 16.1 54.0 22.55 36.4 22.55 36.4 20.9 24.2 20.9" fill="#000000" fill-opacity="0.49803922" fill-rule="evenodd" stroke="none"/>
    <path d="M-47.0 -78.2 L-46.8 -77.2 -45.55 -72.65 -63.9 -67.9 -65.3 -73.45 -47.0 -78.2 M45.55 -72.65 L46.8 -77.2 47.0 -78.2 65.3 -73.45 63.9 -67.9 45.55 -72.65" fill="#000000" fill-opacity="0.8" fill-rule="evenodd" stroke="none"/>
    <path d="M-13.65 32.1 L-13.65 27.1 -13.65 13.45 -13.5 -22.35 Q-13.5 -23.3 -11.65 -24.1 L-9.85 -24.8 -5.15 -25.6 -0.9 -25.8 0.0 -25.8 0.9 -25.8 5.15 -25.6 9.85 -24.8 11.65 -24.1 Q13.5 -23.3 13.5 -22.35 L13.65 13.45 13.65 27.1 13.65 32.1 13.5 75.1 13.35 77.05 Q12.95 79.2 11.85 81.0 L9.9 83.4 8.65 84.6 7.25 85.5 Q4.5 87.15 0.9 87.15 L0.0 87.15 -0.9 87.15 Q-4.5 87.15 -7.25 85.5 L-8.65 84.6 -9.9 83.4 -11.85 81.0 Q-12.95 79.2 -13.35 77.05 L-13.5 75.1 -13.65 32.1" fill="#000000" fill-rule="evenodd" stroke="none"/>
    <path d="M47.0 -78.2 Q47.25 -80.15 46.4 -80.4 44.5 -80.85 42.15 -79.55 L25.0 -83.25 Q6.75 -86.95 0.95 -87.1 L0.0 -87.1 -0.95 -87.1 Q-6.75 -86.95 -25.0 -83.25 L-42.15 -79.55 Q-44.5 -80.85 -46.4 -80.4 -47.25 -80.15 -47.0 -78.2 L-46.8 -77.2 -45.55 -72.65 -63.9 -67.9 -65.3 -73.45 -47.0 -78.2 M-12.0 -79.25 L-18.05 -69.4 -20.25 -64.25 Q-23.05 -57.2 -23.85 -50.45 L-24.1 -43.3 -24.05 -43.3 -24.2 17.8 -24.2 20.9 -24.2 32.1 -13.65 32.1 -13.65 27.1 -13.65 13.45 -13.5 -22.35 Q-13.5 -23.3 -11.65 -24.1 L-9.85 -24.8 -5.15 -25.6 -0.9 -25.8 0.0 -25.8 0.9 -25.8 5.15 -25.6 9.85 -24.8 11.65 -24.1 Q13.5 -23.3 13.5 -22.35 L13.65 13.45 13.65 27.1 13.65 32.1 24.2 32.1 24.2 20.9 24.2 17.8 24.05 -43.3 24.1 -43.3 23.85 -50.45 Q23.05 -57.2 20.25 -64.25 L18.05 -69.4 12.0 -79.25 M45.55 -72.65 L46.8 -77.2 47.0 -78.2 65.3 -73.45 63.9 -67.9 45.55 -72.65 M54.0 16.1 L54.0 22.55 36.4 22.55 36.4 20.9 24.2 20.9 M-13.65 32.1 L-13.5 75.1 -13.35 77.05 Q-12.95 79.2 -11.85 81.0 L-9.9 83.4 -8.65 84.6 -7.25 85.5 Q-4.5 87.15 -0.9 87.15 L0.0 87.15 0.9 87.15 Q4.5 87.15 7.25 85.5 L8.65 84.6 9.9 83.4 11.85 81.0 Q12.95 79.2 13.35 77.05 L13.5 75.1 13.65 32.1 M-54.0 16.1 L-54.0 22.55 -36.4 22.55 -36.4 20.9 -24.2 20.9" fill="none" stroke="#000000" stroke-linecap="round" stroke-linejoin="round" stroke-width="1.0"/>
    <path d="M-45.55 -72.65 L-45.45 -72.2 Q-45.15 -70.4 -43.15 -72.0 -42.1 -72.75 -41.2 -73.9 L-26.9 -76.6 -12.0 -79.25 M-13.65 27.1 L-17.9 27.1 -17.9 -41.1 Q-10.05 -38.95 0.0 -38.9 10.05 -38.95 17.9 -41.1 L17.9 27.1 13.65 27.1 M12.0 -79.25 L26.9 -76.6 41.2 -73.9 Q42.1 -72.75 43.15 -72.0 45.15 -70.4 45.45 -72.2 L45.55 -72.65 M24.2 17.8 L36.4 17.8 36.4 16.1 54.0 16.1 M-24.2 17.8 L-36.4 17.8 -36.4 16.1 -54.0 16.1" fill="none" stroke="#000000" stroke-linecap="round" stroke-linejoin="round" stroke-opacity="0.6" stroke-width="1.0"/>
  </g>
</svg>
