<?xml version="1.0" encoding="UTF-8" standalone="no"?>
<svg xmlns:xlink="http://www.w3.org/1999/xlink" height="59.9px" width="98.05px" xmlns="http://www.w3.org/2000/svg">
  <g transform="matrix(1.0, 0.0, 0.0, 1.0, 38.05, 29.95)">
    <path d="M40.25 -29.45 L58.95 -29.45 Q59.5 -29.45 59.5 -28.9 L59.5 28.9 Q59.5 29.45 58.95 29.45 L40.25 29.45 40.25 -29.45 40.25 29.45 -37.0 29.45 Q-37.55 29.45 -37.55 28.9 L-37.55 -28.9 Q-37.55 -29.45 -37.0 -29.45 L40.25 -29.45" fill="#ffffff" fill-opacity="0.0" fill-rule="evenodd" stroke="none"/>
    <path d="M40.25 29.45 L58.95 29.45 Q59.5 29.45 59.5 28.9 L59.5 -28.9 Q59.5 -29.45 58.95 -29.45 L40.25 -29.45 40.25 29.45 -37.0 29.45 Q-37.55 29.45 -37.55 28.9 L-37.55 -28.9 Q-37.55 -29.45 -37.0 -29.45 L40.25 -29.45" fill="none" stroke="#000000" stroke-linecap="round" stroke-linejoin="round" stroke-width="1.0"/>
    <path d="M28.75 -19.15 Q29.75 -19.15 29.75 -18.15 L29.75 18.95 Q29.75 19.95 28.75 19.95 L-26.2 19.95 Q-27.25 19.95 -27.25 18.95 L-27.25 -18.15 Q-27.25 -19.15 -26.2 -19.15 L28.75 -19.15 M42.1 -20.25 L56.8 -20.25 56.8 -13.35 42.1 -13.35 42.1 -20.25" fill="#000000" fill-opacity="0.4" fill-rule="evenodd" stroke="none"/>
    <path d="M34.8 -19.25 L35.7 -19.3 35.7 22.15 34.8 22.05 34.8 -19.25 M36.2 -19.25 L36.9 -19.05 36.9 21.95 36.2 22.1 36.2 -19.25" fill="#ffffff" fill-opacity="0.4" fill-rule="evenodd" stroke="none"/>
    <path d="M34.8 22.05 L33.95 21.85 33.95 -18.95 34.8 -19.25 35.7 -19.3 36.2 -19.25 36.9 -19.05 37.15 -18.95 37.15 21.85 36.9 21.95 36.2 22.1 35.7 22.15 34.8 22.05" fill="none" stroke="#000000" stroke-linecap="round" stroke-linejoin="round" stroke-opacity="0.6" stroke-width="1.0"/>
    <path d="M42.1 -20.25 L56.8 -20.25 56.8 -13.35 42.1 -13.35 42.1 -20.25" fill="none" stroke="#000000" stroke-linecap="round" stroke-linejoin="round" stroke-width="1.0"/>
    <path d="M29.4 -20.0 L-26.9 -20.0 Q-27.95 -20.0 -27.95 -18.9 L-27.95 19.7 Q-27.95 20.8 -26.9 20.8 L29.4 20.8 Q30.5 20.8 30.5 19.7 L30.5 -18.9 Q30.5 -20.0 29.4 -20.0" fill="none" stroke="#000000" stroke-linecap="round" stroke-linejoin="round" stroke-opacity="0.6" stroke-width="1.0"/>
  </g>
</svg>
