<?xml version="1.0" encoding="UTF-8" standalone="no"?>
<svg xmlns:xlink="http://www.w3.org/1999/xlink" height="21.3px" width="16.6px" xmlns="http://www.w3.org/2000/svg">
  <g transform="matrix(1.0, 0.0, 0.0, 1.0, 8.35, 6.85)">
    <path d="M-2.8 13.95 L-2.75 8.8 -2.8 8.75 Q-4.3 8.25 -5.6 6.95 -7.85 4.65 -7.85 1.45 -7.85 -1.8 -5.6 -4.1 -3.3 -6.35 -0.05 -6.35 3.2 -6.35 5.45 -4.1 7.75 -1.8 7.75 1.45 7.75 4.65 5.45 6.95 4.0 8.45 2.15 8.95 L2.15 13.95 -2.8 13.95" fill="#ffffff" fill-opacity="0.0" fill-rule="evenodd" stroke="none"/>
    <path d="M-2.8 13.95 L-2.75 8.8 -2.8 8.75 Q-4.3 8.25 -5.6 6.95 -7.85 4.65 -7.85 1.45 -7.85 -1.8 -5.6 -4.1 -3.3 -6.35 -0.05 -6.35 3.2 -6.35 5.45 -4.1 7.75 -1.8 7.75 1.45 7.75 4.65 5.45 6.95 4.0 8.45 2.15 8.95 L2.15 13.95" fill="none" stroke="#000000" stroke-linecap="round" stroke-linejoin="round" stroke-opacity="0.6" stroke-width="1.0"/>
  </g>
</svg>
