<?xml version="1.0" encoding="UTF-8" standalone="no"?>
<svg xmlns:xlink="http://www.w3.org/1999/xlink" height="13.25px" width="13.2px" xmlns="http://www.w3.org/2000/svg">
  <g transform="matrix(1.0, 0.0, 0.0, 1.0, 6.6, 6.6)">
    <path d="M0.05 4.55 Q1.95 4.4 3.3 2.95 4.6 1.5 4.55 -0.4 4.5 -2.25 3.1 -3.5 1.75 -4.7 -0.15 -4.6 -2.0 -4.5 -3.35 -3.1 -4.65 -1.65 -4.6 0.2 -4.55 2.1 -3.2 3.35 -1.8 4.65 0.05 4.55 M0.2 -6.6 Q2.8 -6.65 4.7 -4.8 6.65 -2.95 6.6 -0.4 6.6 2.2 4.55 4.4 2.5 6.6 -0.1 6.65 -2.8 6.75 -4.7 4.7 -6.65 2.65 -6.6 -0.1 -6.5 -2.8 -4.55 -4.7 -2.6 -6.5 0.2 -6.6" fill="#000000" fill-opacity="0.29803923" fill-rule="evenodd" stroke="none"/>
  </g>
</svg>
