<?xml version="1.0" encoding="UTF-8" standalone="no"?>
<svg xmlns:xlink="http://www.w3.org/1999/xlink" height="239.05px" width="158.45px" xmlns="http://www.w3.org/2000/svg">
  <g transform="matrix(1.0, 0.0, 0.0, 1.0, 79.25, 119.5)">
    <path d="M59.5 7.7 L9.9 7.7 13.15 99.85 59.5 99.85 59.5 7.7 M55.65 -103.65 L6.05 -103.65 9.4 -7.65 59.5 -7.65 55.65 -103.65 M74.85 -119.0 L78.7 115.25 -59.55 119.05 -78.75 -119.0 74.85 -119.0 M-1.6 7.7 L-51.85 7.7 -44.2 99.85 1.65 99.85 -1.6 7.7 M-5.5 -103.65 L-63.4 -103.65 -55.7 -7.65 -2.15 -7.65 -5.5 -103.65" fill="#ffffff" fill-opacity="0.0" fill-rule="evenodd" stroke="none"/>
    <path d="M74.85 -119.0 L-78.75 -119.0 -59.55 119.05 78.7 115.25 74.85 -119.0 Z" fill="none" stroke="#000000" stroke-linecap="round" stroke-linejoin="round" stroke-opacity="0.4" stroke-width="1.0"/>
  </g>
</svg>
