<?xml version="1.0" encoding="UTF-8" standalone="no"?>
<svg xmlns:xlink="http://www.w3.org/1999/xlink" height="335.4px" width="372.2px" xmlns="http://www.w3.org/2000/svg">
  <g transform="matrix(1.0, 0.0, 0.0, 1.0, 183.4, 167.3)">
    <path d="M12.3 -149.2 L167.5 -144.4 165.9 148.4 7.5 143.6 12.3 -149.2 M66.7 -18.0 L49.1 -18.0 49.1 17.2 66.7 17.2 66.7 -18.0 M138.7 -110.8 L137.1 118.0 41.1 114.8 39.5 -114.0 138.7 -110.8 M26.7 -126.8 L28.3 127.6 149.9 130.8 151.5 -122.0 26.7 -126.8 M-61.3 -18.0 L-61.3 17.2 -43.7 17.2 -43.7 -18.0 -61.3 -18.0 M-162.1 -144.4 L-5.3 -149.2 -10.1 143.6 -160.5 148.4 -162.1 -144.4 M-133.3 -110.8 L-34.1 -114.0 -35.7 114.8 -131.7 118.0 -133.3 -110.8 M-21.3 -126.8 L-146.1 -122.0 -144.5 130.8 -22.9 127.6 -21.3 -126.8" fill="#ffffff" fill-opacity="0.0" fill-rule="evenodd" stroke="none"/>
    <path d="M12.3 -149.2 L12.3 -166.8 12.3 -149.2 7.5 143.6 165.9 148.4 167.5 -144.4 12.3 -149.2 M7.5 162.8 L7.5 143.6 7.5 162.8 -181.3 167.6 -182.9 -163.6 12.3 -166.8 188.3 -163.6 186.7 167.6 7.5 162.8 M26.7 -126.8 L151.5 -122.0 149.9 130.8 28.3 127.6 26.7 -126.8 M138.7 -110.8 L39.5 -114.0 41.1 114.8 137.1 118.0 138.7 -110.8 M-21.3 -126.8 L-22.9 127.6 -144.5 130.8 -146.1 -122.0 -21.3 -126.8 M-133.3 -110.8 L-131.7 118.0 -35.7 114.8 -34.1 -114.0 -133.3 -110.8 M-162.1 -144.4 L-160.5 148.4 -10.1 143.6 -5.3 -149.2 -162.1 -144.4" fill="#ffffff" fill-opacity="0.49803922" fill-rule="evenodd" stroke="none"/>
    <path d="M66.7 -18.0 L66.7 17.2 49.1 17.2 49.1 -18.0 66.7 -18.0 M-61.3 -18.0 L-43.7 -18.0 -43.7 17.2 -61.3 17.2 -61.3 -18.0" fill="#000000" fill-opacity="0.49803922" fill-rule="evenodd" stroke="none"/>
    <path d="M12.3 -166.8 L12.3 -149.2 7.5 143.6 7.5 162.8 186.7 167.6 188.3 -163.6 12.3 -166.8 -182.9 -163.6 -181.3 167.6 7.5 162.8" fill="none" stroke="#000000" stroke-linecap="round" stroke-linejoin="round" stroke-opacity="0.4" stroke-width="1.0"/>
    <path d="M12.3 -149.2 L167.5 -144.4 165.9 148.4 7.5 143.6 M66.7 -18.0 L66.7 17.2 49.1 17.2 49.1 -18.0 66.7 -18.0 M138.7 -110.8 L137.1 118.0 41.1 114.8 39.5 -114.0 138.7 -110.8 M26.7 -126.8 L28.3 127.6 149.9 130.8 151.5 -122.0 26.7 -126.8 M-61.3 -18.0 L-61.3 17.2 -43.7 17.2 -43.7 -18.0 -61.3 -18.0 M-21.3 -126.8 L-22.9 127.6 -144.5 130.8 -146.1 -122.0 -21.3 -126.8 M-133.3 -110.8 L-131.7 118.0 -35.7 114.8 -34.1 -114.0 -133.3 -110.8 M-162.1 -144.4 L-160.5 148.4 -10.1 143.6 -5.3 -149.2 -162.1 -144.4" fill="none" stroke="#000000" stroke-linecap="round" stroke-linejoin="round" stroke-opacity="0.2" stroke-width="1.0"/>
  </g>
</svg>
