<?xml version="1.0" encoding="UTF-8" standalone="no"?>
<svg xmlns:xlink="http://www.w3.org/1999/xlink" height="626.85px" width="1753.4px" xmlns="http://www.w3.org/2000/svg">
  <g transform="matrix(1.0, 0.0, 0.0, 1.0, 876.7, 313.45)">
    <path d="M-288.3 -157.0 L296.9 -157.0 -0.6 223.25 -288.3 -157.0 M523.75 -157.0 L677.15 -157.0 677.15 46.65 523.75 -157.0 M12.1 303.55 L9.75 303.6 9.7 303.6 8.5 303.6 9.75 303.6 9.75 303.55 9.75 303.6 8.5 303.6 9.0 303.6 9.75 303.55 12.1 303.55 M-773.6 158.65 L-773.6 -157.0 -527.75 -157.0 -773.6 158.65" fill="#ffffff" fill-opacity="0.0" fill-rule="evenodd" stroke="none"/>
    <path d="M814.0 312.0 L814.65 312.9 765.4 312.9 414.5 -159.05 59.5 302.65 12.1 303.55 9.75 303.55 416.55 -220.6 814.0 312.0 M-2.7 303.8 L-2.05 304.7 -53.35 304.7 -57.8 298.65 -59.5 298.55 -58.65 297.5 -402.2 -167.25 -761.3 296.5 -806.4 294.45 -806.1 294.1 -400.15 -228.8 -2.7 303.8" fill="#000000" fill-opacity="0.2" fill-rule="evenodd" stroke="none"/>
    <path d="M-527.75 -157.0 L-406.3 -312.95 -288.3 -157.0 -0.6 223.25 296.9 -157.0 412.45 -304.75 523.75 -157.0 677.15 46.65 876.2 310.85 814.0 312.0 416.55 -220.6 9.75 303.55 9.0 303.6 8.5 303.6 -2.7 303.8 -400.15 -228.8 -806.1 294.1 -876.2 290.35 -773.6 158.65 -527.75 -157.0" fill="#ffffff" fill-opacity="0.09803922" fill-rule="evenodd" stroke="none"/>
    <path d="M-527.75 -157.0 L-406.3 -312.95 -288.3 -157.0 296.9 -157.0 412.45 -304.75 523.75 -157.0 677.15 -157.0 677.15 46.65 876.2 310.85 M-53.35 304.7 L-57.8 298.65 M-876.2 290.35 L-773.6 158.65 -773.6 -157.0 -527.75 -157.0" fill="none" stroke="#000000" stroke-linecap="round" stroke-linejoin="round" stroke-width="1.0"/>
    <path d="M876.2 310.85 L814.0 312.0 M814.65 312.9 L765.4 312.9 414.5 -159.05 59.5 302.65 12.1 303.55 M8.5 303.6 L-2.7 303.8 M-2.05 304.7 L-53.35 304.7 M-58.65 297.5 L-402.2 -167.25 -761.3 296.5 -806.4 294.45 M-806.1 294.1 L-876.2 290.35 M-527.75 -157.0 L-773.6 158.65 M-288.3 -157.0 L-0.6 223.25 296.9 -157.0 M523.75 -157.0 L677.15 46.65" fill="none" stroke="#000000" stroke-linecap="round" stroke-linejoin="round" stroke-opacity="0.6" stroke-width="1.0"/>
    <path d="M814.0 312.0 L814.65 312.9 M9.75 303.6 L9.7 303.6 8.5 303.6 -2.7 303.8 -2.05 304.7 M-806.4 294.45 L-806.1 294.1 -400.15 -228.8 -2.7 303.8 M8.5 303.6 L9.75 303.6 9.75 303.55 9.0 303.6 8.5 303.6 M9.75 303.55 L12.1 303.55 M9.75 303.55 L416.55 -220.6 814.0 312.0" fill="none" stroke="#000000" stroke-linecap="round" stroke-linejoin="round" stroke-opacity="0.4" stroke-width="1.0"/>
  </g>
</svg>
