<?xml version="1.0" encoding="UTF-8" standalone="no"?>
<svg xmlns:xlink="http://www.w3.org/1999/xlink" height="31.4px" width="46.9px" xmlns="http://www.w3.org/2000/svg">
  <g transform="matrix(1.0, 0.0, 0.0, 1.0, 30.2, 8.8)">
    <path d="M4.25 5.7 L4.25 -7.45 12.85 -7.45 12.85 5.4 12.85 8.4 4.25 8.4 4.25 5.7 M-14.7 8.9 L-15.15 8.9 -15.15 -7.45 -6.65 -7.45 -6.65 6.0 -6.65 8.9 -14.7 8.9 M-17.8 -5.75 L-17.8 7.5 Q-17.85 7.9 -18.05 8.2 L-18.8 8.45 -19.55 8.2 -19.85 7.5 -19.85 -5.75 -19.55 -6.45 Q-19.25 -6.75 -18.8 -6.75 L-18.05 -6.45 Q-17.8 -6.15 -17.8 -5.75 M-26.25 -7.8 L-26.25 9.3 Q-27.95 10.0 -29.55 9.3 L-29.55 -7.8 Q-28.0 -8.45 -26.25 -7.8" fill="#dfdfd9" fill-opacity="0.4" fill-rule="evenodd" stroke="none"/>
    <path d="M12.85 5.4 L16.05 5.3 14.0 9.1 Q12.15 11.95 11.05 12.55 7.95 13.65 5.3 14.7 0.0 16.6 -2.3 18.65 -4.8 20.95 -7.55 21.6 L-12.1 21.9 Q-13.95 21.7 -15.1 19.4 -16.05 17.5 -16.2 15.15 -16.3 13.35 -15.5 11.0 L-14.7 8.9 -6.65 8.9 -6.65 6.0 4.25 5.7 4.25 8.4 12.85 8.4 12.85 5.4" fill="#1e1d1a" fill-rule="evenodd" stroke="none"/>
    <path d="M4.25 5.7 L4.25 -7.45 12.85 -7.45 12.85 5.4 12.85 8.4 4.25 8.4 4.25 5.7 M16.05 5.3 L14.0 9.1 Q12.15 11.95 11.05 12.55 7.95 13.65 5.3 14.7 0.0 16.6 -2.3 18.65 -4.8 20.95 -7.55 21.6 L-12.1 21.9 Q-13.95 21.7 -15.1 19.4 -16.05 17.5 -16.2 15.15 -16.3 13.35 -15.5 11.0 L-14.7 8.9 -15.15 8.9 -15.15 -7.45 -6.65 -7.45 -6.65 6.0 -6.65 8.9 -14.7 8.9 M-17.8 -5.75 L-17.8 7.5 Q-17.85 7.9 -18.05 8.2 L-18.8 8.45 -19.55 8.2 -19.85 7.5 -19.85 -5.75 -19.55 -6.45 Q-19.25 -6.75 -18.8 -6.75 L-18.05 -6.45 Q-17.8 -6.15 -17.8 -5.75 M-26.25 -7.8 L-26.25 9.3 Q-27.95 10.0 -29.55 9.3 L-29.55 -7.8 Q-28.0 -8.45 -26.25 -7.8" fill="none" stroke="#000000" stroke-linecap="square" stroke-linejoin="round" stroke-opacity="0.4" stroke-width="1.0"/>
  </g>
</svg>
