<?xml version="1.0" encoding="UTF-8" standalone="no"?>
<svg xmlns:xlink="http://www.w3.org/1999/xlink" height="17.85px" width="40.0px" xmlns="http://www.w3.org/2000/svg">
  <g transform="matrix(1.0, 0.0, 0.0, 1.0, 20.0, 8.9)">
    <path d="M6.15 -1.45 Q6.7 -5.95 9.65 -8.9 8.5 -5.0 9.65 -1.15 10.65 -3.95 13.8 -5.9 12.1 -2.3 12.65 1.25 13.6 -1.3 16.95 -2.5 15.35 -0.2 15.9 2.1 16.6 -0.1 20.0 -0.9 18.25 0.6 18.8 2.45 9.1 9.7 -3.6 8.85 -15.65 8.1 -19.75 1.45 -20.35 0.5 -19.4 -1.0 L-17.05 -3.65 Q-17.4 -1.15 -16.0 1.0 -15.45 -2.45 -12.8 -5.9 -13.15 -2.85 -11.6 -0.55 -11.05 -4.6 -7.8 -8.65 -8.9 -4.45 -7.8 -0.3 -7.35 -3.0 -5.15 -5.3 -5.35 -1.05 -3.95 1.9 -3.1 -0.8 0.35 -3.1 -0.25 -0.15 1.5 2.05 1.8 -2.2 5.45 -5.65 4.8 -3.1 6.15 -1.45" fill="#ffffff" fill-rule="evenodd" stroke="none"/>
  </g>
</svg>
