<?xml version="1.0" encoding="UTF-8" standalone="no"?>
<svg xmlns:xlink="http://www.w3.org/1999/xlink" height="22.9px" width="47.85px" xmlns="http://www.w3.org/2000/svg">
  <g transform="matrix(1.0, 0.0, 0.0, 1.0, 23.9, 11.45)">
    <path d="M22.85 -5.7 L23.4 -3.8 Q23.7 -1.6 22.5 0.1 L2.1 0.8 3.5 -0.65 3.5 -7.65 3.5 -0.65 2.1 0.8 -7.5 10.55 -9.4 10.85 -12.75 10.75 -14.7 5.95 -23.05 1.9 -23.4 -3.35 -18.3 -4.8 -17.6 -6.65 Q-16.25 -9.45 -15.1 -9.65 L-8.25 -10.95 3.5 -8.2 3.5 -7.65 22.85 -5.7 M-14.7 5.95 L-18.7 -3.9 -18.3 -4.8 -18.7 -3.9 -14.7 5.95" fill="#ffffff" fill-opacity="0.0" fill-rule="evenodd" stroke="none"/>
    <path d="M22.5 0.1 Q23.7 -1.6 23.4 -3.8 L22.85 -5.7" fill="none" stroke="#000000" stroke-linecap="butt" stroke-linejoin="miter-clip" stroke-miterlimit="4.0" stroke-opacity="0.6" stroke-width="1.0"/>
    <path d="M22.85 -5.7 L3.5 -7.65" fill="none" stroke="#000000" stroke-linecap="butt" stroke-linejoin="miter-clip" stroke-miterlimit="4.0" stroke-width="1.0"/>
    <path d="M3.5 -7.65 L3.5 -0.65 2.1 0.8" fill="none" stroke="#000000" stroke-linecap="round" stroke-linejoin="miter-clip" stroke-miterlimit="4.0" stroke-opacity="0.4" stroke-width="1.0"/>
    <path d="M2.1 0.8 L22.5 0.1" fill="none" stroke="#000000" stroke-linecap="round" stroke-linejoin="miter-clip" stroke-miterlimit="4.0" stroke-width="1.0"/>
    <path d="M3.5 -7.65 L3.5 -8.2 -8.25 -10.95 -15.1 -9.65 Q-16.25 -9.45 -17.6 -6.65 L-18.3 -4.8 -23.4 -3.35 -23.05 1.9 -14.7 5.95 -12.75 10.75 -9.4 10.85 -7.5 10.55 2.1 0.8" fill="none" stroke="#000000" stroke-linecap="round" stroke-linejoin="miter-clip" stroke-miterlimit="4.0" stroke-width="1.0"/>
    <path d="M-18.3 -4.8 L-18.7 -3.9 -14.7 5.95" fill="none" stroke="#000000" stroke-linecap="round" stroke-linejoin="miter-clip" stroke-miterlimit="4.0" stroke-opacity="0.6" stroke-width="1.0"/>
    <path d="M22.5 -3.85 L4.4 -5.55 4.5 -6.45 22.55 -4.75 22.5 -3.85 M-14.75 -8.4 L-8.4 -9.65 -12.05 10.2 -14.75 -8.4" fill="#ffffff" fill-rule="evenodd" stroke="none"/>
  </g>
</svg>
