<?xml version="1.0" encoding="UTF-8" standalone="no"?>
<svg xmlns:xlink="http://www.w3.org/1999/xlink" height="255.45px" width="264.75px" xmlns="http://www.w3.org/2000/svg">
  <g transform="matrix(1.0, 0.0, 0.0, 1.0, 128.9, 176.95)">
    <path d="M122.0 -155.25 L124.05 -154.75 124.5 -154.6 124.5 -154.45 Q124.25 -150.1 131.15 -149.25 L126.5 -144.9 Q124.0 -144.1 121.35 -145.75 L119.15 -147.6 119.5 -154.9 Q119.5 -155.75 122.0 -155.25 M129.3 -153.1 L124.8 -159.1 127.65 -166.2 132.4 -153.35 129.3 -153.1 M123.15 -158.9 Q121.5 -157.9 119.15 -159.6 L116.5 -171.25 119.7 -172.8 Q123.3 -173.55 125.15 -169.6 124.8 -159.9 123.15 -158.9 M95.5 -176.9 L99.55 -176.95 Q103.6 -176.2 103.8 -172.25 L99.8 -167.6 Q97.85 -168.25 96.35 -169.4 96.75 -170.95 95.3 -173.1 L94.1 -174.0 Q94.3 -175.4 95.5 -176.9 M100.8 -164.9 L103.3 -161.3 Q106.15 -157.65 107.8 -157.25 107.8 -155.5 106.15 -154.0 104.65 -152.7 101.8 -151.6 97.85 -150.05 91.55 -153.85 89.25 -155.25 87.75 -156.75 86.8 -157.7 86.7 -158.2 L86.8 -158.6 Q87.2 -158.9 89.15 -159.45 L93.3 -160.6 Q96.4 -161.6 98.3 -162.7 100.05 -163.75 100.8 -164.9 M82.95 -155.8 Q82.35 -154.85 81.8 -154.6 L80.95 -154.3 69.5 -153.6 68.4 -156.35 Q73.75 -163.1 79.2 -169.1 L78.7 -168.5 79.9 -169.8 80.0 -169.9 Q82.95 -167.1 87.15 -166.55 84.7 -158.5 82.95 -155.8 M107.9 -152.65 Q111.55 -155.0 117.8 -152.9 117.8 -145.6 115.15 -145.25 L114.95 -145.2 Q113.25 -145.2 109.35 -147.45 L105.5 -149.9 Q106.05 -151.4 107.7 -152.5 L107.9 -152.65 M43.15 -50.9 Q43.8 -52.35 49.7 -53.95 L55.5 -55.25 Q58.15 -53.25 51.8 -43.25 L42.5 -42.9 Q42.15 -48.6 43.15 -50.9 M54.9 -98.35 L59.15 -98.6 Q61.15 -97.9 58.8 -84.6 55.15 -80.9 46.15 -77.9 L44.65 -80.5 Q42.55 -84.4 41.8 -87.9 41.2 -90.85 44.45 -95.35 L47.8 -99.25 Q49.95 -98.3 54.9 -98.35 M50.6 -75.3 L54.5 -76.6 61.15 -71.9 58.25 -65.8 Q55.05 -59.5 53.8 -58.25 51.8 -56.25 40.5 -53.25 39.15 -60.9 39.15 -62.25 39.15 -63.1 41.65 -67.75 L44.15 -72.25 Q46.25 -73.7 50.6 -75.3 M61.15 -82.25 L67.45 -81.9 65.0 -73.75 57.15 -77.9 61.15 -82.25 M74.75 -108.3 L68.5 -107.6 70.15 -111.9 76.8 -116.25 74.75 -108.3 M63.15 -99.6 Q63.35 -100.85 67.1 -103.5 L70.8 -105.9 73.7 -104.25 73.15 -102.1 69.5 -88.9 69.2 -87.85 68.5 -85.5 68.25 -84.7 63.5 -85.25 Q62.8 -97.6 63.15 -99.6 M42.4 -114.2 L42.8 -114.25 44.55 -108.65 Q46.05 -102.65 44.8 -100.6 42.8 -97.25 37.8 -90.9 35.25 -93.1 33.9 -95.95 L38.8 -105.6 42.15 -113.6 42.4 -114.2 M59.15 -128.9 Q58.25 -127.55 53.85 -124.5 48.5 -120.85 45.65 -120.9 48.8 -127.25 53.3 -134.65 59.8 -129.85 59.15 -128.9 M64.5 -125.25 L65.1 -124.55 Q65.9 -122.75 65.7 -116.0 L65.15 -107.25 Q61.15 -102.9 57.15 -101.6 L56.35 -101.35 51.0 -101.75 47.8 -102.9 Q47.65 -106.15 47.8 -109.75 48.15 -116.9 49.8 -118.6 51.5 -120.25 58.15 -122.9 L64.5 -125.25 M75.55 -150.2 L76.75 -150.3 81.8 -150.6 Q83.5 -146.6 74.15 -136.6 69.8 -129.25 67.15 -128.25 L66.1 -128.15 Q63.5 -128.5 58.8 -134.25 L62.55 -140.8 Q66.55 -147.55 67.8 -148.6 69.05 -149.65 75.55 -150.2 M128.5 -143.75 L130.15 -144.9 131.55 -144.75 Q133.1 -144.15 135.85 -141.55 132.8 -139.7 131.25 -140.15 L129.25 -140.4 128.3 -140.9 Q127.3 -141.45 127.15 -141.9 126.95 -142.5 128.5 -143.75 M84.1 -134.25 L82.1 -129.7 78.6 -121.1 78.4 -120.5 77.7 -118.65 77.65 -118.6 70.15 -116.25 Q67.8 -120.25 68.5 -122.25 68.9 -123.5 73.9 -130.5 L78.8 -137.25 Q80.25 -137.25 84.1 -134.25 M92.2 -147.2 L91.55 -146.55 88.2 -142.0 88.1 -141.8 88.0 -141.65 87.9 -141.45 87.4 -140.55 85.75 -137.55 81.8 -141.9 88.15 -149.25 Q91.15 -149.25 92.2 -147.2 M113.5 -140.6 Q115.1 -140.85 117.3 -142.75 L118.5 -143.9 Q118.8 -141.6 123.8 -140.9 L123.45 -140.65 123.4 -140.65 122.65 -140.25 Q118.7 -138.55 113.5 -140.6 M38.15 -86.25 Q38.8 -85.25 40.5 -75.9 L39.85 -73.7 Q37.6 -66.95 34.15 -64.9 L31.35 -63.2 18.5 -55.25 Q17.15 -64.25 21.5 -70.9 L33.15 -89.6 38.15 -86.25 M14.6 -53.95 L13.8 -51.6 Q11.8 -47.25 6.8 -45.9 L-8.5 -40.6 Q-8.25 -43.0 -7.5 -45.75 -6.0 -51.25 -3.5 -52.9 L15.15 -65.6 15.25 -60.2 Q15.1 -56.4 14.6 -53.95 M26.0 -31.25 L29.5 -35.9 37.8 -39.6 38.3 -34.1 Q38.9 -28.5 39.5 -27.9 40.35 -27.05 37.7 -17.85 L36.8 -14.9 25.8 -12.6 Q24.45 -15.5 23.65 -17.85 22.5 -21.25 22.5 -23.6 22.5 -26.1 26.0 -31.25 M24.15 -51.9 Q24.55 -53.75 29.55 -57.2 L34.5 -60.25 Q37.5 -58.9 39.15 -43.9 L28.5 -41.6 Q23.5 -48.9 24.15 -51.9 M23.65 -44.85 Q26.5 -40.3 26.5 -39.25 26.5 -37.6 20.15 -28.25 6.15 -34.6 4.5 -37.25 3.45 -38.9 7.5 -40.95 12.5 -43.05 13.8 -43.9 16.5 -45.6 16.5 -51.9 L20.8 -49.25 23.65 -44.85 M21.8 -4.25 L22.5 -8.9 26.8 -10.25 36.5 -3.6 30.5 2.75 Q23.5 2.75 22.15 1.4 21.3 0.6 21.8 -4.25 M15.8 -12.25 L18.8 -4.9 Q14.15 2.75 10.5 3.1 8.2 3.3 1.6 1.05 L-4.5 -1.25 Q-7.85 -6.9 -7.2 -8.6 -6.75 -9.65 -3.95 -12.2 L-1.2 -14.6 Q-3.85 -11.25 15.8 -12.25 M6.2 -28.35 Q5.75 -32.35 6.8 -31.9 8.5 -31.25 19.5 -25.6 21.45 -23.3 19.55 -17.85 L18.8 -15.9 5.5 -15.25 Q3.8 -15.4 4.2 -17.85 L4.75 -19.9 6.8 -24.25 6.2 -28.35 M38.75 -7.95 L37.8 -7.25 31.8 -11.25 37.15 -12.6 39.05 -11.65 38.75 -7.95 M-98.5 -8.25 L-93.6 -11.3 -91.75 -12.25 -91.7 -12.2 -88.5 -10.9 -85.6 -6.3 Q-82.75 -1.15 -83.2 1.75 -83.85 6.4 -98.2 8.4 L-109.0 3.1 Q-107.15 0.0 -104.5 -2.85 L-98.5 -8.25 M24.15 27.1 L21.8 24.75 24.8 20.75 Q28.15 20.1 28.15 24.75 L24.15 27.1 M2.15 37.1 Q1.55 36.25 1.3 34.1 L1.15 32.1 Q1.55 31.5 4.55 32.05 L7.5 32.75 6.5 38.4 Q3.15 38.4 2.15 37.1 M15.65 33.9 L17.5 32.4 21.15 34.1 22.8 39.1 Q16.5 43.4 16.5 42.4 16.5 42.1 15.15 40.55 13.8 38.95 13.8 37.4 13.8 35.75 15.65 33.9 M3.8 20.4 Q4.65 19.35 7.8 17.95 L10.8 16.75 18.5 21.75 Q16.15 25.75 12.15 27.1 L5.65 27.6 2.15 27.1 Q2.5 22.1 3.8 20.4 M12.5 7.1 Q11.5 12.1 10.15 13.1 8.8 14.1 -4.2 18.1 -12.85 15.1 -12.85 13.1 -12.85 11.85 -9.15 6.85 L-5.5 2.1 12.5 7.1 M20.5 6.4 L28.5 7.4 Q29.5 12.75 26.8 14.4 24.15 16.1 20.5 16.4 14.8 14.75 14.8 12.1 14.8 10.4 17.65 8.25 L20.5 6.4 M52.15 -40.25 Q52.7 -40.2 53.25 -39.65 L52.8 -38.6 52.15 -36.85 Q49.4 -30.65 47.5 -28.25 L46.85 -27.4 45.5 -25.6 44.9 -24.85 42.8 -25.25 Q41.15 -35.9 42.15 -38.25 42.8 -39.7 47.55 -40.15 L52.15 -40.25 M-10.25 -51.45 L-12.85 -39.6 Q-24.15 -31.2 -29.0 -30.7 L-28.5 -31.35 -17.7 -44.2 -16.5 -45.55 -11.2 -50.9 -9.6 -51.85 -10.25 -51.45 M-60.8 -6.8 Q-56.0 -3.65 -54.5 -1.9 -52.85 0.1 -51.2 8.4 -64.2 12.1 -69.85 11.4 -73.75 10.95 -79.05 1.9 -84.25 -7.0 -82.5 -7.9 L-75.7 -9.3 -67.85 -10.25 Q-66.0 -10.25 -60.8 -6.8 M-61.55 -19.25 L-60.85 -19.35 -60.7 -19.4 -59.6 -19.55 -45.5 -21.85 -44.2 -22.15 -48.7 -20.2 Q-62.1 -14.5 -66.5 -12.9 -70.0 -11.65 -76.3 -16.9 L-76.35 -16.95 -73.2 -17.5 -61.55 -19.25 M-61.2 -11.9 L-35.2 -19.6 -35.2 -12.6 -38.5 -8.2 Q-42.35 -3.45 -44.85 -1.6 -48.85 1.4 -61.2 -11.9 M-0.85 -37.25 Q2.15 -34.9 3.8 -26.9 -0.05 -21.2 -2.9 -17.85 -5.7 -14.6 -7.5 -13.6 -10.7 -11.85 -18.85 -17.85 L-21.5 -19.9 -16.4 -28.1 Q-11.1 -36.4 -9.85 -36.6 L-6.45 -37.8 Q-2.7 -38.7 -0.85 -37.25 M-25.5 -17.9 L-25.55 -17.85 Q-29.15 -14.9 -31.5 -14.9 -32.05 -14.9 -32.4 -17.85 L-32.85 -23.9 -20.85 -30.25 Q-23.5 -19.6 -25.5 -17.9 M-22.2 -14.9 L-18.15 -13.2 Q-13.9 -11.3 -12.85 -10.25 -11.2 -8.6 -9.5 -1.6 L-13.5 7.4 Q-36.2 4.75 -38.85 0.1 L-35.2 -6.0 Q-30.95 -12.15 -27.85 -12.6 L-22.2 -14.9 M-15.5 18.1 L-28.5 21.4 -28.85 15.25 Q-28.7 8.9 -26.2 8.1 L-21.9 8.75 Q-17.45 9.5 -16.85 10.1 -15.85 11.1 -15.5 18.1 M-35.95 5.15 L-31.2 6.4 -31.5 14.4 Q-38.85 18.75 -40.5 19.4 -42.2 20.1 -49.85 14.1 L-46.75 9.5 Q-43.45 4.85 -42.2 4.4 -40.95 4.0 -35.95 5.15 M-38.2 24.1 L-32.2 20.4 Q-31.2 21.1 -29.2 25.1 L-35.2 26.75 -38.2 24.1 M-16.5 23.4 Q-17.1 22.6 -13.7 20.6 L-10.2 18.75 Q-8.1 18.75 -6.8 21.85 -5.5 24.85 -6.85 25.4 L-12.2 27.75 -16.5 23.4 M-34.85 32.75 L-32.2 35.75 -42.5 37.1 -39.2 33.75 -34.85 32.75 M-44.5 22.4 L-39.5 29.4 -47.2 32.1 -51.9 28.9 Q-56.45 25.6 -55.85 25.4 L-52.9 23.1 Q-49.8 20.9 -49.2 21.1 L-44.5 22.4 M-54.2 17.1 Q-62.85 33.1 -66.5 35.1 -70.2 37.1 -79.85 39.4 -83.5 28.4 -82.5 25.75 -81.85 24.1 -77.6 20.25 L-73.5 16.75 -53.85 13.4 -54.2 17.1 M-75.5 14.75 Q-75.85 16.75 -86.2 25.4 L-106.5 21.75 Q-106.25 19.9 -105.6 17.8 -104.25 13.55 -102.2 12.1 -100.1 10.65 -90.45 8.55 L-81.2 6.75 -78.25 10.0 Q-75.3 13.5 -75.5 14.75 M-79.85 43.1 L-77.85 46.1 Q-81.85 53.1 -84.2 54.4 -86.0 55.45 -88.55 56.15 L-91.2 56.1 Q-88.5 47.4 -88.5 46.4 -88.5 45.8 -84.15 44.4 L-79.85 43.1 M-65.2 42.75 L-68.5 49.4 -72.85 50.4 -72.2 46.1 -69.5 41.4 -65.2 42.75 M-52.85 36.1 Q-61.2 35.75 -62.2 34.75 -62.8 34.15 -60.05 32.2 L-57.2 30.4 -52.2 32.4 -52.85 36.1 M-80.5 61.1 Q-78.2 62.05 -78.2 63.1 -78.2 64.75 -81.5 68.1 L-84.2 66.1 -82.85 60.4 -80.5 61.1 M-57.1 59.35 L-57.2 59.4 -57.35 59.5 -55.9 53.65 -55.8 53.7 -57.1 59.35 M-107.85 32.75 L-104.85 25.75 -96.95 26.45 Q-88.9 27.35 -87.85 28.4 -86.2 30.1 -84.2 39.4 L-94.85 44.1 -101.35 38.8 Q-107.85 33.4 -107.85 32.75 M-96.95 48.15 Q-96.75 50.0 -97.2 52.1 -97.85 55.4 -101.5 56.4 -108.5 44.75 -106.5 41.4 L-97.2 46.75 -96.95 48.15 M-128.75 77.35 L-128.9 78.5 -128.75 77.35 M-91.2 67.4 L-95.5 70.75 -96.5 66.4 -94.5 63.4 Q-93.35 63.7 -92.0 65.15 -90.5 66.7 -91.2 67.4" fill="#ffffff" fill-opacity="0.0" fill-rule="evenodd" stroke="none"/>
  </g>
</svg>
