<?xml version="1.0" encoding="UTF-8" standalone="no"?>
<svg xmlns:xlink="http://www.w3.org/1999/xlink" height="120.8px" width="104.0px" xmlns="http://www.w3.org/2000/svg">
  <g transform="matrix(1.0, 0.0, 0.0, 1.0, 52.0, 60.4)">
    <path d="M7.2 -59.9 Q10.15 -59.35 10.15 -58.65 L10.2 -42.7 Q25.25 -39.9 36.75 -28.4 52.0 -13.15 52.0 8.4 L51.95 10.65 Q51.2 30.75 36.75 45.15 21.55 60.4 0.0 60.4 -21.55 60.4 -36.8 45.15 -51.05 30.9 -51.95 11.1 L-52.0 8.4 -52.0 7.4 Q-51.65 -13.5 -36.8 -28.4 -25.25 -39.9 -10.1 -42.7 L-10.05 -58.65 Q-10.05 -59.35 -7.1 -59.9 L0.05 -60.4 7.2 -59.9" fill="#cccccc" fill-rule="evenodd" stroke="none"/>
  </g>
</svg>
