<?xml version="1.0" encoding="UTF-8" standalone="no"?>
<svg xmlns:xlink="http://www.w3.org/1999/xlink" height="38.45px" width="23.2px" xmlns="http://www.w3.org/2000/svg">
  <g transform="matrix(1.0, 0.0, 0.0, 1.0, 11.6, 19.25)">
    <path d="M1.2 -12.85 L1.2 -4.2 2.0 -4.15 2.85 -4.0 Q7.2 -3.35 9.4 -1.25 11.6 0.85 11.6 4.25 11.6 8.15 8.6 10.55 5.6 12.95 1.2 13.25 L1.2 19.2 -0.9 19.2 -0.9 13.25 Q-5.3 13.2 -8.45 11.3 -11.6 9.3 -11.6 6.75 -11.6 5.25 -10.7 4.2 -9.75 3.2 -8.2 3.2 -6.5 3.2 -5.5 4.05 -4.55 4.95 -4.55 6.45 -4.55 7.5 -4.9 8.6 L-5.5 10.25 -3.6 11.05 -0.9 11.45 -0.9 2.05 -1.4 2.0 -2.1 1.85 Q-6.1 1.5 -8.45 -0.6 -10.8 -2.65 -10.8 -6.0 -10.8 -7.45 -10.25 -8.85 -9.7 -10.25 -8.55 -11.5 -7.4 -12.75 -5.5 -13.6 -3.6 -14.45 -0.9 -14.65 L-0.9 -19.25 1.2 -19.25 1.2 -14.65 Q5.55 -14.45 8.25 -12.85 10.9 -11.2 10.9 -8.8 10.9 -7.35 10.05 -6.35 9.15 -5.35 7.65 -5.35 6.0 -5.35 5.05 -6.25 4.15 -7.05 4.15 -8.45 4.15 -9.45 4.5 -10.45 L5.05 -12.1 3.5 -12.6 1.2 -12.85 M2.35 2.4 L1.8 2.3 1.2 2.25 1.2 11.45 Q4.1 11.25 5.35 9.9 6.7 8.6 6.7 6.75 6.7 5.0 5.6 3.9 4.6 2.85 2.35 2.4 M-1.3 -4.45 L-0.9 -4.45 -0.9 -12.85 Q-3.3 -12.6 -4.55 -11.45 -5.85 -10.25 -5.85 -8.65 -5.85 -6.75 -4.8 -5.8 -3.75 -4.85 -1.8 -4.55 L-1.3 -4.45" fill="#000000" fill-rule="evenodd" stroke="none"/>
  </g>
</svg>
