<?xml version="1.0" encoding="UTF-8" standalone="no"?>
<svg xmlns:xlink="http://www.w3.org/1999/xlink" height="24.6px" width="26.25px" xmlns="http://www.w3.org/2000/svg">
  <g transform="matrix(1.0, 0.0, 0.0, 1.0, 13.3, 12.65)">
    <path d="M-0.3 -12.45 Q0.7 -4.55 3.3 -2.9 5.9 -1.25 12.75 0.15 5.3 1.15 2.9 2.95 0.45 4.7 -0.15 11.75 -1.25 5.9 -3.15 3.05 -5.1 0.2 -13.1 -0.2 -6.95 -0.85 -3.85 -2.65 -0.8 -4.45 -0.3 -12.45" fill="#ffffff" fill-opacity="0.0" fill-rule="evenodd" stroke="none"/>
    <path d="M-0.3 -12.45 Q0.7 -4.55 3.3 -2.9 5.9 -1.25 12.75 0.15 5.3 1.15 2.9 2.95 0.45 4.7 -0.15 11.75 -1.25 5.9 -3.15 3.05 -5.1 0.2 -13.1 -0.2 -6.95 -0.85 -3.85 -2.65 -0.8 -4.45 -0.3 -12.45 Z" fill="none" stroke="#000000" stroke-linecap="butt" stroke-linejoin="miter-clip" stroke-miterlimit="4.0" stroke-width="0.1"/>
  </g>
</svg>
