<?xml version="1.0" encoding="UTF-8" standalone="no"?>
<svg xmlns:xlink="http://www.w3.org/1999/xlink" height="86.85px" width="288.0px" xmlns="http://www.w3.org/2000/svg">
  <g transform="matrix(1.0, 0.0, 0.0, 1.0, 152.6, 113.8)">
    <path d="M104.0 -110.8 L104.85 -110.6 121.4 -105.25 Q126.45 -103.75 134.3 -103.8 136.45 -97.0 131.15 -88.4 128.5 -84.1 125.4 -81.2 108.6 -87.6 91.75 -96.4 80.5 -102.3 81.05 -112.05 L83.35 -112.3 88.1 -112.6 88.6 -112.6 96.9 -112.15 104.0 -110.8 M42.15 -105.6 L65.55 -108.65 66.0 -108.8 66.3 -108.85 66.35 -108.85 66.65 -108.95 67.25 -109.1 67.35 -109.15 67.55 -109.2 67.65 -109.2 67.7 -109.25 70.2 -109.95 70.5 -99.25 Q70.5 -97.05 67.0 -96.05 64.7 -95.4 58.9 -94.9 45.45 -93.8 42.45 -91.2 38.45 -87.7 30.85 -89.5 L24.0 -92.0 22.75 -91.8 Q21.15 -91.4 19.4 -90.4 13.8 -87.2 8.75 -79.2 3.75 -71.15 -5.85 -69.55 L-12.0 -69.25 -14.5 -69.55 Q-14.7 -72.55 -16.0 -76.55 -18.55 -84.6 -24.1 -89.6 -29.6 -94.65 -27.4 -99.45 -26.7 -100.95 -25.35 -102.25 L-22.75 -104.3 -20.8 -104.3 -7.85 -104.25 Q22.35 -104.25 41.5 -105.55 L42.15 -105.6 M5.5 -57.05 Q3.8 -59.35 3.9 -61.55 4.05 -63.9 6.35 -64.75 12.8 -67.15 20.8 -76.8 32.85 -76.3 37.65 -68.45 40.05 -64.55 40.05 -60.75 24.8 -56.75 16.0 -53.55 9.7 -51.25 5.5 -57.05 M67.0 -49.55 L65.7 -53.55 Q57.15 -55.55 52.55 -63.15 51.1 -65.55 50.25 -68.15 L49.65 -70.35 Q55.65 -75.4 66.5 -77.4 L76.1 -78.4 Q81.9 -80.7 84.15 -75.7 86.2 -71.1 84.95 -61.55 84.4 -57.5 87.6 -56.45 L95.35 -56.05 104.3 -55.8 Q109.0 -54.85 110.6 -51.15 112.35 -47.05 111.85 -44.8 111.35 -42.65 108.6 -41.2 106.75 -40.25 101.1 -38.4 L89.75 -34.3 Q78.7 -29.8 71.1 -41.2 68.7 -44.8 67.0 -49.55 M-51.2 -104.85 Q-49.25 -100.95 -48.15 -98.05 L-54.55 -91.6 -70.6 -82.0 -88.25 -66.75 Q-92.25 -63.25 -99.45 -64.25 L-105.85 -65.95 Q-116.25 -78.8 -116.25 -85.2 -116.25 -89.2 -121.05 -95.6 L-125.9 -101.25 Q-130.8 -105.05 -132.6 -108.15 L-126.85 -108.55 -121.55 -108.85 -121.2 -108.9 -113.4 -109.5 -112.85 -109.55 -96.55 -111.55 -95.5 -111.75 -93.5 -112.2 -92.75 -112.4 -92.65 -112.45 Q-85.5 -114.5 -77.2 -111.55 -72.4 -109.85 -63.0 -105.25 L-51.2 -104.85 M-76.2 -62.35 L-69.4 -66.75 -54.15 -69.15 -38.9 -53.15 Q-37.35 -49.5 -42.4 -42.9 L-52.55 -31.5 Q-56.55 -27.0 -68.55 -29.6 -72.35 -30.4 -76.45 -31.85 L-79.8 -33.1 Q-83.0 -46.7 -83.0 -53.15 -83.0 -57.15 -76.2 -62.35 M-33.0 -83.8 Q-29.5 -81.2 -27.7 -78.4 L-38.9 -73.6 Q-50.15 -74.4 -53.35 -77.6 -55.35 -79.6 -52.15 -84.0 L-48.55 -88.0 Q-40.0 -89.0 -33.0 -83.8 M-121.5 -83.6 L-113.5 -67.55 -103.05 -57.95 Q-99.85 -55.55 -99.05 -39.5 L-111.85 -28.3 Q-117.95 -26.5 -131.2 -28.5 -146.65 -30.75 -148.75 -37.1 -151.35 -44.9 -151.95 -55.6 -152.6 -67.5 -150.35 -77.15 -148.35 -85.7 -141.1 -92.3 L-136.35 -96.0 -134.3 -97.2 Q-133.5 -92.4 -121.5 -83.6" fill="#ffffff" fill-opacity="0.0" fill-rule="evenodd" stroke="none"/>
    <path d="M104.0 -110.8 L104.85 -110.6 121.4 -105.25 Q126.45 -103.75 134.3 -103.8 136.45 -97.0 131.15 -88.4 128.5 -84.1 125.4 -81.2 108.6 -87.6 91.75 -96.4 80.5 -102.3 81.05 -112.05 L83.35 -112.3 88.1 -112.6 88.6 -112.6 96.9 -112.15 104.0 -110.8 M42.15 -105.6 L65.55 -108.65 66.0 -108.8 66.3 -108.85 66.35 -108.85 66.65 -108.95 67.25 -109.1 67.35 -109.15 67.55 -109.2 67.65 -109.2 67.7 -109.25 70.2 -109.95 70.5 -99.25 Q70.5 -97.05 67.0 -96.05 64.7 -95.4 58.9 -94.9 45.45 -93.8 42.45 -91.2 38.45 -87.7 30.85 -89.5 L24.0 -92.0 22.75 -91.8 Q21.15 -91.4 19.4 -90.4 13.8 -87.2 8.75 -79.2 3.75 -71.15 -5.85 -69.55 L-12.0 -69.25 -14.5 -69.55 Q-14.7 -72.55 -16.0 -76.55 -18.55 -84.6 -24.1 -89.6 -29.6 -94.65 -27.4 -99.45 -26.7 -100.95 -25.35 -102.25 L-22.75 -104.3 -20.8 -104.3 -7.85 -104.25 Q22.35 -104.25 41.5 -105.55 L42.15 -105.6 M67.0 -49.55 Q68.7 -44.8 71.1 -41.2 78.7 -29.8 89.75 -34.3 L101.1 -38.4 Q106.75 -40.25 108.6 -41.2 111.35 -42.65 111.85 -44.8 112.35 -47.05 110.6 -51.15 109.0 -54.85 104.3 -55.8 L95.35 -56.05 87.6 -56.45 Q84.4 -57.5 84.95 -61.55 86.2 -71.1 84.15 -75.7 81.9 -80.7 76.1 -78.4 L66.5 -77.4 Q55.65 -75.4 49.65 -70.35 L50.25 -68.15 Q51.1 -65.55 52.55 -63.15 57.15 -55.55 65.7 -53.55 L67.0 -49.55 M5.5 -57.05 Q9.7 -51.25 16.0 -53.55 24.8 -56.75 40.05 -60.75 40.05 -64.55 37.65 -68.45 32.85 -76.3 20.8 -76.8 12.8 -67.15 6.35 -64.75 4.05 -63.9 3.9 -61.55 3.8 -59.35 5.5 -57.05 M-51.2 -104.85 Q-49.25 -100.95 -48.15 -98.05 L-54.55 -91.6 -70.6 -82.0 -88.25 -66.75 Q-92.25 -63.25 -99.45 -64.25 L-105.85 -65.95 Q-116.25 -78.8 -116.25 -85.2 -116.25 -89.2 -121.05 -95.6 L-125.9 -101.25 Q-130.8 -105.05 -132.6 -108.15 L-126.85 -108.55 -121.55 -108.85 -121.2 -108.9 -113.4 -109.5 -112.85 -109.55 -96.55 -111.55 -95.5 -111.75 -93.5 -112.2 -92.75 -112.4 -92.65 -112.45 Q-85.5 -114.5 -77.2 -111.55 -72.4 -109.85 -63.0 -105.25 L-51.2 -104.85 M-121.5 -83.6 Q-133.5 -92.4 -134.3 -97.2 L-136.35 -96.0 -141.1 -92.3 Q-148.35 -85.7 -150.35 -77.15 -152.6 -67.5 -151.95 -55.6 -151.35 -44.9 -148.75 -37.1 -146.65 -30.75 -131.2 -28.5 -117.95 -26.5 -111.85 -28.3 L-99.05 -39.5 Q-99.85 -55.55 -103.05 -57.95 L-113.5 -67.55 -121.5 -83.6 M-33.0 -83.8 Q-40.0 -89.0 -48.55 -88.0 L-52.15 -84.0 Q-55.35 -79.6 -53.35 -77.6 -50.15 -74.4 -38.9 -73.6 L-27.7 -78.4 Q-29.5 -81.2 -33.0 -83.8 M-76.2 -62.35 Q-83.0 -57.15 -83.0 -53.15 -83.0 -46.7 -79.8 -33.1 L-76.45 -31.85 Q-72.35 -30.4 -68.55 -29.6 -56.55 -27.0 -52.55 -31.5 L-42.4 -42.9 Q-37.35 -49.5 -38.9 -53.15 L-54.15 -69.15 -69.4 -66.75 -76.2 -62.35" fill="none" stroke="#000000" stroke-linecap="round" stroke-linejoin="round" stroke-opacity="0.2" stroke-width="1.0"/>
  </g>
</svg>
