<?xml version="1.0" encoding="UTF-8" standalone="no"?>
<svg xmlns:xlink="http://www.w3.org/1999/xlink" height="34.85px" width="48.9px" xmlns="http://www.w3.org/2000/svg">
  <g transform="matrix(1.0, 0.0, 0.0, 1.0, -55.7, 12.6)">
    <path d="M63.25 21.75 L56.95 21.75 Q56.3 18.3 56.2 15.5 L56.3 12.35 Q56.65 9.2 58.1 6.5 59.2 4.45 58.95 2.25 L58.45 0.5 Q57.6 -0.8 57.4 -2.6 57.25 -4.35 57.85 -5.85 L57.8 -5.7 58.35 -5.5 59.7 -5.95 59.0 -4.7 Q58.4 -2.35 60.1 0.25 60.75 -0.65 61.05 -1.95 61.6 -4.25 60.35 -6.0 61.2 -5.9 61.9 -5.15 L63.0 -3.4 Q63.95 -1.1 63.1 0.7 62.15 2.65 62.6 4.0 63.55 6.9 63.9 11.3 L64.05 15.5 Q63.95 18.85 63.25 21.75 M75.65 21.75 L69.35 21.75 Q68.7 18.3 68.6 15.5 L68.7 12.35 Q69.0 9.2 70.45 6.5 71.55 4.45 71.3 2.25 L70.85 0.5 Q69.95 -0.8 69.8 -2.6 69.65 -4.35 70.25 -5.85 L70.2 -5.7 70.75 -5.5 72.05 -5.9 71.4 -4.7 Q70.8 -2.35 72.5 0.25 73.15 -0.65 73.4 -1.95 73.95 -4.25 72.7 -6.0 74.35 -5.85 75.35 -3.4 76.3 -1.1 75.45 0.7 74.55 2.65 75.0 4.0 75.95 7.0 76.3 11.3 L76.45 15.5 Q76.35 18.85 75.65 21.75 M88.0 21.75 L81.7 21.75 Q81.05 18.3 80.95 15.5 L81.05 12.35 Q81.4 9.2 82.85 6.5 83.95 4.45 83.7 2.25 L83.2 0.5 Q82.35 -0.8 82.15 -2.6 82.0 -4.35 82.6 -5.85 L82.55 -5.7 83.1 -5.5 84.45 -5.95 83.75 -4.7 Q83.15 -2.35 84.85 0.25 85.5 -0.65 85.8 -1.95 86.35 -4.25 85.1 -6.0 86.75 -5.8 87.75 -3.4 88.7 -1.1 87.85 0.7 86.9 2.65 87.35 4.0 88.3 6.9 88.65 11.3 L88.8 15.5 Q88.7 18.85 88.0 21.75 M95.0 -5.85 L94.95 -5.7 95.5 -5.5 96.8 -5.9 96.15 -4.7 Q95.55 -2.35 97.25 0.25 97.9 -0.65 98.15 -1.95 98.7 -4.25 97.45 -6.0 99.1 -5.85 100.1 -3.4 101.05 -1.1 100.2 0.7 99.3 2.65 99.75 4.0 100.7 7.0 101.05 11.3 L101.2 15.5 Q101.1 18.85 100.4 21.75 L94.1 21.75 Q93.45 18.3 93.35 15.5 L93.45 12.35 Q93.75 9.2 95.2 6.5 96.3 4.45 96.05 2.25 L95.6 0.5 Q94.7 -0.8 94.55 -2.6 94.4 -4.35 95.0 -5.85 M95.65 10.35 Q95.3 12.85 95.8 15.5 96.1 17.2 96.75 19.0 97.35 17.55 97.6 15.5 L97.65 15.1 Q98.25 10.55 96.6 7.1 L95.65 10.35 M83.25 10.35 Q82.9 12.85 83.4 15.5 83.7 17.2 84.35 19.0 84.95 17.55 85.25 15.5 L85.3 15.1 Q85.9 10.55 84.25 7.1 L83.25 10.35 M70.9 10.35 Q70.55 12.85 71.05 15.5 71.35 17.2 72.0 19.0 72.6 17.55 72.85 15.5 L72.9 15.1 Q73.5 10.55 71.85 7.1 L70.9 10.35 M58.5 10.35 Q58.15 12.85 58.65 15.5 58.95 17.2 59.6 19.0 60.2 17.55 60.5 15.5 L60.55 15.1 Q61.15 10.55 59.5 7.1 L58.5 10.35" fill="#ffffff" fill-opacity="0.0" fill-rule="evenodd" stroke="none"/>
    <path d="M63.2 -7.8 L64.1 -7.45 Q64.65 -7.05 65.2 -5.95 66.9 -2.8 64.7 0.5 L64.25 2.25 Q64.0 4.45 65.1 6.5 66.55 9.2 66.85 12.35 L66.95 15.5 Q66.85 18.3 66.2 21.75 L63.25 21.75 Q63.95 18.85 64.05 15.5 L63.9 11.3 Q63.55 6.9 62.6 4.0 62.15 2.65 63.1 0.7 63.95 -1.1 63.0 -3.4 L61.9 -5.15 Q61.2 -5.9 60.35 -6.0 L60.0 -6.05 59.7 -5.95 58.35 -5.5 57.8 -5.7 57.85 -5.85 Q58.45 -7.25 59.3 -7.8 L63.2 -7.8 M75.6 -7.8 L76.5 -7.45 Q77.0 -7.1 77.6 -5.95 79.25 -2.7 77.1 0.5 L76.6 2.25 Q76.35 4.45 77.45 6.5 78.9 9.2 79.25 12.35 L79.35 15.5 Q79.25 18.3 78.6 21.75 L75.65 21.75 Q76.35 18.85 76.45 15.5 L76.3 11.3 Q75.95 7.0 75.0 4.0 74.55 2.65 75.45 0.7 76.3 -1.1 75.35 -3.4 74.35 -5.85 72.7 -6.0 L72.4 -6.05 72.05 -5.9 70.75 -5.5 70.2 -5.7 70.25 -5.85 Q70.85 -7.25 71.7 -7.8 L75.6 -7.8 M87.95 -7.8 L88.85 -7.45 Q89.4 -7.05 89.95 -5.95 91.65 -2.8 89.45 0.5 L89.0 2.25 Q88.75 4.45 89.85 6.5 91.3 9.2 91.6 12.35 L91.7 15.5 Q91.6 18.3 90.95 21.75 L88.0 21.75 Q88.7 18.85 88.8 15.5 L88.65 11.3 Q88.3 6.9 87.35 4.0 86.9 2.65 87.85 0.7 88.7 -1.1 87.75 -3.4 86.75 -5.8 85.1 -6.0 L84.75 -6.05 84.45 -5.95 83.1 -5.5 82.55 -5.7 82.6 -5.85 Q83.2 -7.25 84.05 -7.8 L87.95 -7.8 M96.45 -7.8 L100.35 -7.8 101.25 -7.45 Q101.75 -7.1 102.35 -5.95 104.0 -2.7 101.85 0.5 L101.35 2.25 Q101.1 4.45 102.2 6.5 103.65 9.2 104.0 12.35 L104.1 15.5 Q104.0 18.3 103.35 21.75 L100.4 21.75 Q101.1 18.85 101.2 15.5 L101.05 11.3 Q100.7 7.0 99.75 4.0 99.3 2.65 100.2 0.7 101.05 -1.1 100.1 -3.4 99.1 -5.85 97.45 -6.0 L97.15 -6.05 96.8 -5.9 95.5 -5.5 94.95 -5.7 95.0 -5.85 Q95.6 -7.25 96.45 -7.8" fill="#000000" fill-opacity="0.101960786" fill-rule="evenodd" stroke="none"/>
    <path d="M59.3 -7.8 L57.2 -7.8 57.2 -12.1 66.0 -12.1 66.0 -7.8 63.2 -7.8 59.3 -7.8 M71.7 -7.8 L69.55 -7.8 69.55 -12.1 78.35 -12.1 78.35 -7.8 75.6 -7.8 71.7 -7.8 M84.05 -7.8 L81.95 -7.8 81.95 -12.1 90.75 -12.1 90.75 -7.8 87.95 -7.8 84.05 -7.8 M100.35 -7.8 L96.45 -7.8 94.3 -7.8 94.3 -12.1 103.1 -12.1 103.1 -7.8 100.35 -7.8" fill="#000000" fill-opacity="0.5019608" fill-rule="evenodd" stroke="none"/>
    <path d="M59.7 -5.95 L60.0 -6.05 60.35 -6.0 Q61.6 -4.25 61.05 -1.95 60.75 -0.65 60.1 0.25 58.4 -2.35 59.0 -4.7 L59.7 -5.95 M72.05 -5.9 L72.4 -6.05 72.7 -6.0 Q73.95 -4.25 73.4 -1.95 73.15 -0.65 72.5 0.25 70.8 -2.35 71.4 -4.7 L72.05 -5.9 M85.1 -6.0 Q86.35 -4.25 85.8 -1.95 85.5 -0.65 84.85 0.25 83.15 -2.35 83.75 -4.7 L84.45 -5.95 84.75 -6.05 85.1 -6.0 M96.8 -5.9 L97.15 -6.05 97.45 -6.0 Q98.7 -4.25 98.15 -1.95 97.9 -0.65 97.25 0.25 95.55 -2.35 96.15 -4.7 L96.8 -5.9 M58.5 10.35 L59.5 7.1 Q61.15 10.55 60.55 15.1 L60.5 15.5 Q60.2 17.55 59.6 19.0 58.95 17.2 58.65 15.5 58.15 12.85 58.5 10.35 M70.9 10.35 L71.85 7.1 Q73.5 10.55 72.9 15.1 L72.85 15.5 Q72.6 17.55 72.0 19.0 71.35 17.2 71.05 15.5 70.55 12.85 70.9 10.35 M83.25 10.35 L84.25 7.1 Q85.9 10.55 85.3 15.1 L85.25 15.5 Q84.95 17.55 84.35 19.0 83.7 17.2 83.4 15.5 82.9 12.85 83.25 10.35 M95.65 10.35 L96.6 7.1 Q98.25 10.55 97.65 15.1 L97.6 15.5 Q97.35 17.55 96.75 19.0 96.1 17.2 95.8 15.5 95.3 12.85 95.65 10.35" fill="#ffffff" fill-opacity="0.4" fill-rule="evenodd" stroke="none"/>
    <path d="M59.3 -7.8 L57.2 -7.8 57.2 -12.1 66.0 -12.1 66.0 -7.8 63.2 -7.8 64.1 -7.45 Q64.65 -7.05 65.2 -5.95 66.9 -2.8 64.7 0.5 L64.25 2.25 Q64.0 4.45 65.1 6.5 66.55 9.2 66.85 12.35 L66.95 15.5 Q66.85 18.3 66.2 21.75 L63.25 21.75 56.95 21.75 Q56.3 18.3 56.2 15.5 L56.3 12.35 Q56.65 9.2 58.1 6.5 59.2 4.45 58.95 2.25 L58.45 0.5 Q57.6 -0.8 57.4 -2.6 57.25 -4.35 57.85 -5.85 58.45 -7.25 59.3 -7.8 M71.7 -7.8 L69.55 -7.8 69.55 -12.1 78.35 -12.1 78.35 -7.8 75.6 -7.8 76.5 -7.45 Q77.0 -7.1 77.6 -5.95 79.25 -2.7 77.1 0.5 L76.6 2.25 Q76.35 4.45 77.45 6.5 78.9 9.2 79.25 12.35 L79.35 15.5 Q79.25 18.3 78.6 21.75 L75.65 21.75 69.35 21.75 Q68.7 18.3 68.6 15.5 L68.7 12.35 Q69.0 9.2 70.45 6.5 71.55 4.45 71.3 2.25 L70.85 0.5 Q69.95 -0.8 69.8 -2.6 69.65 -4.35 70.25 -5.85 70.85 -7.25 71.7 -7.8 M84.05 -7.8 L81.95 -7.8 81.95 -12.1 90.75 -12.1 90.75 -7.8 87.95 -7.8 88.85 -7.45 Q89.4 -7.05 89.95 -5.95 91.65 -2.8 89.45 0.5 L89.0 2.25 Q88.75 4.45 89.85 6.5 91.3 9.2 91.6 12.35 L91.7 15.5 Q91.6 18.3 90.95 21.75 L88.0 21.75 81.7 21.75 Q81.05 18.3 80.95 15.5 L81.05 12.35 Q81.4 9.2 82.85 6.5 83.95 4.45 83.7 2.25 L83.2 0.5 Q82.35 -0.8 82.15 -2.6 82.0 -4.35 82.6 -5.85 83.2 -7.25 84.05 -7.8 M96.45 -7.8 Q95.6 -7.25 95.0 -5.85 94.4 -4.35 94.55 -2.6 94.7 -0.8 95.6 0.5 L96.05 2.25 Q96.3 4.45 95.2 6.5 93.75 9.2 93.45 12.35 L93.35 15.5 Q93.45 18.3 94.1 21.75 L100.4 21.75 103.35 21.75 Q104.0 18.3 104.1 15.5 L104.0 12.35 Q103.65 9.2 102.2 6.5 101.1 4.45 101.35 2.25 L101.85 0.5 Q104.0 -2.7 102.35 -5.95 101.75 -7.1 101.25 -7.45 L100.35 -7.8 103.1 -7.8 103.1 -12.1 94.3 -12.1 94.3 -7.8 96.45 -7.8" fill="none" stroke="#231f20" stroke-linecap="round" stroke-linejoin="round" stroke-width="1.0"/>
    <path d="M59.3 -7.8 L63.2 -7.8 M71.7 -7.8 L75.6 -7.8 M84.05 -7.8 L87.95 -7.8 M100.35 -7.8 L96.45 -7.8" fill="none" stroke="#000000" stroke-linecap="round" stroke-linejoin="round" stroke-opacity="0.6" stroke-width="1.0"/>
  </g>
</svg>
