<?xml version="1.0" encoding="UTF-8" standalone="no"?>
<svg xmlns:xlink="http://www.w3.org/1999/xlink" height="614.45px" width="1001.45px" xmlns="http://www.w3.org/2000/svg">
  <g transform="matrix(1.0, 0.0, 0.0, 1.0, 497.65, 307.85)">
    <path d="M416.0 76.1 L413.85 72.9 Q408.05 64.25 400.25 47.2 392.25 30.1 389.9 19.55 389.0 16.05 388.8 11.55 389.65 20.6 392.45 26.85 395.95 34.85 407.15 57.35 412.35 67.9 416.0 76.1 M199.15 -295.2 L200.0 -293.45 Q196.35 -291.75 192.65 -289.15 186.4 -284.8 181.45 -281.8 L181.65 -282.85 181.85 -287.85 181.85 -288.25 Q189.45 -291.1 199.15 -295.2 M149.9 -185.0 Q159.4 -181.35 168.7 -178.75 158.1 -180.25 150.1 -183.1 L149.9 -183.3 150.1 -183.1 149.7 -182.0 149.9 -183.3 149.9 -185.0 M177.75 -176.4 L178.85 -176.15 182.1 -175.5 182.5 -173.8 Q182.5 -172.7 182.95 -171.4 181.45 -173.8 180.35 -174.65 L177.75 -176.4 M191.4 -150.7 Q195.9 -142.7 202.6 -134.05 L198.7 -137.95 Q195.25 -141.15 191.4 -150.7 M205.4 -130.8 L209.1 -126.25 Q212.35 -122.6 214.7 -118.95 209.3 -124.75 205.4 -130.8 M220.1 -106.4 Q222.25 -96.45 217.75 -86.95 L207.15 -69.7 205.4 -66.65 210.15 -76.6 Q219.45 -93.85 220.1 -106.4 M201.55 202.5 L199.8 204.0 199.25 201.9 199.2 201.6 199.15 201.4 201.55 202.5 M281.9 122.35 L282.55 124.7 282.55 125.3 282.3 124.3 282.55 124.7 282.3 124.3 281.9 122.35 M283.15 129.3 L283.2 129.45 283.2 129.65 283.15 129.3 M283.3 130.55 L283.4 131.0 283.4 131.4 283.3 130.55 M290.75 176.15 L293.35 187.6 Q294.4 193.0 295.9 198.15 L296.55 200.55 Q295.5 197.1 294.4 192.75 292.45 184.75 290.75 176.15 M323.15 -13.1 L322.9 -13.3 324.0 -17.6 323.15 -13.1 M357.05 96.0 L361.8 114.8 361.35 113.7 361.35 113.25 Q359.2 105.3 357.5 97.95 357.05 96.85 357.05 96.0 M176.05 65.55 Q177.1 69.2 178.2 75.05 L177.75 73.55 176.05 65.55 M190.1 151.7 L190.7 155.45 190.5 154.95 190.1 151.7 M198.5 197.3 L198.7 198.65 198.5 197.45 198.5 197.3 M161.55 100.95 Q160.9 94.7 161.15 89.5 161.55 80.85 166.95 71.15 L167.2 70.95 166.35 74.4 165.9 76.35 162.65 94.5 162.45 95.55 162.2 97.05 161.8 99.65 Q161.55 99.9 161.55 100.3 L161.55 100.95 M330.05 -242.05 L327.9 -243.15 Q326.6 -244.0 326.4 -246.6 327.45 -245.95 328.75 -245.5 L330.9 -244.65 330.05 -242.05 M348.85 117.6 L348.85 118.45 347.55 117.4 348.85 117.6 M417.1 252.4 L417.1 251.75 418.4 251.5 417.55 253.05 417.1 252.4 M335.45 279.15 L334.25 278.95 335.25 278.95 335.45 279.15 M166.35 74.4 L166.95 71.15 166.35 74.4 M-306.05 263.2 Q-309.3 259.3 -311.9 249.55 -314.9 239.1 -317.05 235.65 -316.4 236.65 -315.15 237.45 -313.65 241.6 -311.9 247.2 -307.6 262.55 -297.45 266.4 L-305.85 263.6 -306.05 263.2 M-411.25 158.2 L-411.05 161.0 Q-411.25 159.05 -412.15 157.35 L-411.5 157.1 -411.5 157.15 -411.25 158.2 M-319.45 -211.35 L-308.0 -213.95 -301.55 -215.05 Q-309.3 -212.65 -316.45 -211.6 L-319.45 -211.35 M-119.65 -107.25 L-118.15 -108.55 -118.35 -108.35 -120.55 -105.95 -120.75 -105.95 -123.35 -104.0 -119.65 -107.25 -120.55 -105.95 -119.65 -107.25 M-391.4 -108.55 L-391.15 -109.4 -390.95 -109.4 -391.4 -108.55 Q-393.75 -104.0 -397.0 -98.2 L-397.45 -97.35 -397.65 -96.9 -398.3 -96.05 Q-402.4 -88.7 -405.2 -82.65 L-405.2 -82.4 -405.45 -82.4 -405.2 -82.4 Q-407.8 -76.8 -409.3 -72.5 -412.75 -62.1 -416.45 -43.55 -420.55 -22.8 -422.95 -14.6 -426.6 -0.75 -427.9 8.75 -427.45 -0.55 -425.75 -10.95 -423.8 -22.15 -420.35 -34.7 -413.0 -62.75 -408.9 -74.0 -407.35 -78.3 -405.45 -82.4 L-405.45 -82.65 Q-402.4 -89.75 -398.3 -96.9 -398.1 -97.1 -397.65 -96.9 -398.1 -97.1 -398.3 -96.9 L-398.3 -97.35 Q-395.05 -102.95 -391.4 -108.55 M-421.2 -119.15 L-421.4 -118.95 -422.3 -119.8 Q-421.65 -119.55 -421.2 -119.15 M-411.25 48.45 Q-410.6 50.2 -410.2 55.4 -409.3 66.2 -411.7 81.1 L-414.7 96.65 -414.9 97.9 -414.95 97.95 -415.35 100.75 -415.15 98.15 -415.15 96.65 -414.05 86.25 Q-411.9 58.65 -411.25 48.45 M-416.45 128.85 L-415.6 133.8 Q-412.55 150.2 -411.5 157.1 -415.8 145.45 -416.45 128.85 M-452.1 25.8 L-451.0 26.45 -452.3 26.25 -452.1 25.8 M-135.0 -230.6 L-135.0 -229.5 -138.9 -229.75 -135.0 -230.6 M-126.2 -229.05 L-116.65 -228.85 -121.4 -228.85 -126.2 -229.05 M-439.15 95.8 L-436.75 95.55 -438.25 96.65 -439.15 95.8 M-432.45 104.65 Q-432.2 104.4 -432.0 104.4 L-431.55 106.35 -432.45 104.65 M-414.95 97.95 L-415.15 98.15 -414.95 97.95 M-415.15 96.65 Q-414.7 97.3 -414.9 97.9 -414.7 97.3 -415.15 96.65" fill="#adafb1" fill-rule="evenodd" stroke="none"/>
    <path d="M388.8 11.55 Q387.95 4.4 387.95 -4.25 387.95 -15.45 390.1 -37.5 L390.3 -38.55 Q389.45 -28.65 389.0 -19.35 387.95 1.6 388.8 11.55 M391.6 -59.3 Q392.7 -85.0 390.3 -105.3 L388.8 -115.45 Q393.75 -90.0 392.05 -65.15 L391.6 -59.3 M384.25 -134.25 Q381.25 -143.1 377.15 -149.6 367.4 -165.35 360.05 -172.05 376.5 -158.65 384.25 -134.25 M305.0 -266.45 L304.8 -268.6 306.3 -266.65 305.0 -266.45 M157.45 -237.95 L154.65 -238.15 155.95 -252.2 Q156.0 -247.2 157.45 -237.95 M168.7 -178.75 L173.9 -178.1 Q175.6 -177.7 177.75 -176.4 L168.7 -178.75 M182.95 -171.4 Q185.55 -167.1 189.0 -156.95 L191.4 -150.7 Q185.1 -161.7 182.95 -171.4 M205.0 -65.8 L202.4 -60.4 202.2 -60.4 Q203.25 -63.2 205.0 -65.8 M217.75 31.0 Q216.65 35.95 215.8 41.55 214.7 48.05 213.85 55.4 213.0 62.5 212.55 70.7 211.25 86.9 211.45 97.3 L211.45 97.5 211.25 97.5 211.25 97.3 Q210.8 77.2 213.4 55.4 L215.35 41.8 215.35 41.55 217.3 31.0 217.75 31.0 M265.25 94.05 Q266.65 93.45 268.0 93.5 L269.15 93.6 Q268.05 93.4 267.0 93.6 L265.25 94.05 M282.75 126.35 L282.95 127.75 282.75 127.1 282.75 126.35 M288.6 165.1 Q289.0 168.35 289.85 171.6 289.85 172.65 290.3 173.75 L290.75 176.15 289.65 171.6 289.45 170.4 Q289.5 171.0 289.85 171.6 289.5 171.0 289.45 170.4 L289.45 170.1 Q288.8 167.5 288.6 165.1 M104.1 -284.4 L104.35 -284.4 104.1 -283.35 104.1 -284.4 M114.05 -200.15 L110.8 -201.85 113.85 -202.3 114.05 -200.15 M110.6 -229.75 L110.6 -229.5 109.3 -228.6 110.6 -229.75 M146.25 -151.35 L146.65 -151.35 145.8 -149.15 146.25 -151.35 M-165.65 234.9 Q-165.45 235.1 -165.25 235.1 L-165.9 235.3 -165.65 234.9 M-65.25 254.3 L-63.5 254.1 -63.3 255.2 -65.25 254.3 M28.95 177.65 L28.5 175.7 30.0 175.5 29.8 175.9 Q29.4 176.35 28.95 177.65 M97.55 262.0 L100.75 262.3 103.45 262.55 103.7 262.55 103.45 262.95 98.05 262.1 100.75 262.3 98.05 262.1 97.55 262.0 M166.95 71.15 L167.55 68.7 167.2 70.95 166.95 71.15 M418.4 251.5 Q420.55 247.4 428.55 235.1 L430.7 231.85 Q425.1 245.7 420.35 250.0 L418.4 251.5 M112.55 263.4 Q113.2 263.2 113.6 262.75 L114.05 263.4 112.55 263.4 M-370.65 191.25 L-370.85 191.25 -370.85 191.05 -370.65 191.25 -370.85 191.05 -367.2 191.9 -370.65 191.25 M-386.2 -119.35 L-385.35 -118.7 Q-388.35 -113.3 -390.95 -109.4 -387.7 -115.9 -386.2 -119.35 M-268.5 -266.0 L-268.9 -266.9 -262.2 -266.9 -268.5 -266.0 M-230.8 -266.25 L-228.95 -266.25 -229.6 -266.0 -230.8 -266.25 M-78.4 -264.1 L-78.4 -263.85 Q-78.2 -263.2 -79.05 -261.9 L-79.55 -260.45 -79.25 -261.7 -79.05 -261.9 -78.85 -263.2 -78.8 -263.25 -78.4 -264.1 M-116.65 -111.6 L-119.0 -108.75 Q-119.25 -107.9 -119.65 -107.25 L-123.35 -104.0 -121.15 -106.4 -119.0 -108.75 -121.15 -106.4 -116.65 -111.6 M-421.4 -118.95 L-421.4 -118.7 -422.3 -119.8 -421.4 -118.95 M-289.0 54.1 L-286.85 54.1 -286.9 54.3 -287.05 54.5 -289.0 54.1 M-235.65 213.5 L-233.05 213.7 -233.05 213.95 -235.65 213.5 M-428.1 10.05 L-428.1 10.25 Q-428.35 16.3 -427.9 21.45 L-427.9 22.35 Q-425.95 43.95 -411.25 43.5 L-411.25 48.45 Q-411.7 47.6 -412.15 47.4 -417.55 45.45 -419.25 44.15 -427.9 37.05 -428.75 22.75 -428.95 19.55 -428.75 16.05 L-428.1 10.05 M-415.6 101.85 Q-416.9 116.6 -416.45 128.85 L-417.3 120.6 Q-417.75 112.65 -416.65 106.35 L-415.6 101.85 M-411.5 157.15 L-411.25 157.75 -411.25 157.8 -411.25 158.2 -411.5 157.15 M-243.0 -170.1 L-242.55 -175.3 -234.35 -231.9 -234.95 -226.2 -241.05 -177.45 -243.0 -170.1 M-241.05 -120.85 L-241.25 -127.15 -241.75 -141.6 -241.25 -132.1 -241.25 -127.15 -241.05 -127.15 -241.05 -120.85" fill="#c5c7c9" fill-rule="evenodd" stroke="none"/>
    <path d="M-195.05 -272.5 L-194.85 -271.65 -195.05 -271.4 -195.05 -272.5" fill="#d9dbdc" fill-rule="evenodd" stroke="none"/>
    <path d="M181.85 -288.25 L181.85 -287.85 180.8 -287.85 181.85 -288.25 M-234.35 -231.9 L-233.95 -234.05 -233.95 -234.5 -233.5 -237.4 -233.95 -234.05 -234.95 -226.2 -234.35 -231.9 M-241.05 -127.15 L-241.25 -127.15 -241.25 -132.1 -241.05 -127.15" fill="#a2a4a7" fill-rule="evenodd" stroke="none"/>
    <path d="M95.45 261.65 L96.35 261.85 96.55 261.9 95.25 261.65 96.35 261.85 95.25 261.65 95.45 261.65 M97.25 262.0 L97.55 262.0 98.05 262.1 97.25 262.0 M86.6 259.5 L86.4 260.15 Q79.25 258.2 72.6 257.15 L72.8 255.85 79.5 257.55 86.6 259.5 M207.6 251.1 Q205.4 249.15 207.8 250.85 L207.6 251.1 M-476.5 -250.7 L-476.7 -250.45 -476.7 -250.7 -476.5 -250.7" fill="#b5b7b9" fill-rule="evenodd" stroke="none"/>
    <path d="M145.8 -149.15 L149.45 -180.7 149.9 -185.0 149.9 -183.3 149.7 -182.0 146.25 -151.35 145.8 -149.15" fill="#d4d6d7" fill-rule="evenodd" stroke="none"/>
    <path d="M365.7 130.1 Q371.8 154.5 376.9 172.7 L376.05 169.85 Q371.3 152.35 365.5 129.45 L365.7 130.1 M382.3 191.35 L382.55 192.1 382.9 193.2 382.3 191.35 M199.8 204.0 L200.25 207.25 199.25 201.9 199.8 204.0 M270.0 93.85 L270.2 93.85 271.1 94.25 Q272.4 95.15 273.65 96.65 L274.1 97.35 273.65 96.85 Q272.15 94.9 270.45 94.05 L270.25 93.95 270.2 93.85 270.25 93.95 270.0 93.85 M178.2 75.05 L178.4 76.75 178.65 78.3 177.75 73.55 178.2 75.05 M20.1 269.45 L20.1 268.35 21.15 268.35 20.1 269.45 M70.2 93.85 L70.2 94.05 70.0 94.05 70.2 93.85 M94.95 257.3 L95.45 261.65 95.25 261.65 94.95 257.3 M169.35 62.75 L170.2 60.55 170.0 62.75 169.35 62.75 M390.55 215.45 L391.4 217.6 391.4 217.8 390.55 215.45" fill="#dbdcdd" fill-rule="evenodd" stroke="none"/>
    <path d="M-1.5 285.85 L0.2 284.55 -2.8 286.95 -1.5 285.85 M396.15 293.4 L396.6 293.85 399.6 295.6 396.35 294.5 394.85 294.05 396.15 293.4 M456.65 305.5 L456.65 306.6 455.35 306.6 456.65 305.5 M167.2 249.35 Q173.9 247.65 178.85 247.0 L181.0 246.55 Q193.3 245.05 207.6 251.1 189.45 244.15 167.2 249.35 M-287.05 54.5 L-286.9 54.3 -287.3 56.05 -287.7 57.55 -287.7 57.35 -287.05 54.5 -287.3 56.05 -287.05 54.5 M-278.2 215.25 L-275.85 215.65 -278.2 215.65 -278.2 215.25 M-10.35 283.7 Q-7.15 285.65 -4.1 287.8 L-10.6 283.7 -10.35 283.7" fill="#c1c3c5" fill-rule="evenodd" stroke="none"/>
    <path d="M174.3 59.9 L175.2 62.3 Q172.6 55.8 170.2 60.55 L170.2 60.35 Q172.15 56.05 174.3 59.9 M198.05 194.7 L198.05 195.35 197.85 194.9 198.05 194.7 M172.25 163.65 L174.3 164.05 174.1 164.25 172.25 163.65" fill="#b2b4b7" fill-rule="evenodd" stroke="none"/>
    <path d="M-151.65 232.5 L-149.9 232.7 Q-148.4 232.95 -146.65 234.0 L-139.1 238.75 -139.3 239.4 -146.65 234.0 Q-149.45 233.15 -151.85 233.6 L-151.65 232.5 M-68.45 253.05 L-65.25 254.3 -63.3 255.2 Q-65.85 254.15 -68.45 253.05 M-306.05 263.4 L-306.05 263.2 -305.85 263.6 -306.05 263.4 M-317.05 235.65 L-317.1 235.55 -316.2 234.9 -315.15 237.45 Q-316.4 236.65 -317.05 235.65 M-48.8 272.9 L-38.0 273.55 -38.0 274.4 -48.8 272.9" fill="#cccecf" fill-rule="evenodd" stroke="none"/>
    <path d="M-78.6 -264.75 L-78.4 -264.75 -78.4 -264.1 -78.8 -263.25 -78.6 -264.1 -78.6 -264.75 M-103.45 -137.05 Q-106.85 -127.15 -110.75 -119.8 L-108.65 -124.35 Q-106.05 -130.15 -103.45 -137.05 M-123.55 -103.8 Q-125.3 -102.75 -126.8 -102.3 L-126.55 -102.5 Q-125.05 -102.95 -123.55 -103.8 M-93.1 -231.7 L-92.45 -231.9 -93.1 -231.05 -93.1 -231.7" fill="#e3e4e5" fill-rule="evenodd" stroke="none"/>
    <path d="M200.0 -293.45 Q210.6 -298.85 220.1 -296.05 229.6 -293.45 242.15 -276.6 251.45 -264.1 257.9 -250.9 254.9 -250.45 231.1 -250.9 214.7 -251.1 205.65 -246.6 209.5 -238.6 227.25 -233.85 246.9 -228.45 253.15 -221.3 258.35 -215.5 262.85 -204.7 268.7 -191.3 271.3 -187.2 275.85 -180.05 286.0 -169.9 296.35 -159.75 304.35 -155.0 308.65 -152.4 320.55 -150.25 329.4 -147.0 325.1 -137.7 322.05 -130.8 308.65 -130.35 L289.25 -131.0 Q295.25 -120.0 312.75 -110.3 332.65 -99.05 342.15 -107.7 353.4 -87.15 356.6 -80.05 364.2 -63.65 366.35 -50.65 368.05 -40.75 365.05 -31.45 360.05 -16.75 359.2 -11.15 L351.2 -10.5 Q345.4 -9.65 342.8 -10.3 342.15 0.3 357.7 19.75 376.05 42.2 378.45 49.55 383.85 65.75 383.4 86.5 382.95 110.25 374.1 121.5 L365.7 130.1 365.5 129.45 365.05 127.75 362.45 117.8 362.0 116.1 361.8 114.8 357.05 96.0 338.25 11.55 338.25 10.9 338.05 10.05 337.4 6.15 Q333.3 -19.55 328.55 -22.15 327.05 -23.0 325.5 -21.5 L324.45 -19.8 324.45 -19.35 324.2 -18.5 324.0 -17.6 322.9 -13.3 323.15 -13.1 Q317.75 15.2 309.3 109.8 304.55 163.8 300.65 213.5 299.15 209.4 297.2 202.9 L296.55 200.55 295.9 198.15 Q294.4 193.0 293.35 187.6 L290.75 176.15 290.3 173.75 Q289.85 172.65 289.85 171.6 289.0 168.35 288.6 165.1 L286.65 153.65 Q284.7 142.85 283.4 131.4 L283.4 131.0 283.3 130.55 283.2 129.65 283.2 129.45 283.15 129.3 282.95 127.75 282.75 126.35 282.75 126.25 282.55 125.3 282.75 126.25 282.55 125.6 282.55 125.3 282.55 124.7 281.9 122.35 280.15 115.65 Q278.2 102.8 270.45 94.05 272.15 94.9 273.65 96.85 L274.1 97.35 273.65 96.65 Q272.4 95.15 271.1 94.25 L270.2 93.85 270.0 93.85 269.8 93.85 269.35 93.65 269.3 93.65 269.25 93.6 269.15 93.6 268.0 93.5 Q266.65 93.45 265.25 94.05 L264.8 94.5 264.4 94.7 264.15 94.7 Q262.65 95.55 261.8 96.85 263.1 122.55 250.15 212.4 244.1 253.65 238.05 290.85 L232.0 291.7 Q224.45 292.1 216.85 289.75 220.95 261.25 208.0 251.3 L206.05 240.7 201.1 212.0 200.25 207.25 199.8 204.0 201.55 202.5 Q208.65 195.55 208.0 179.15 207.6 170.95 207.6 165.1 L207.6 164.9 206.7 165.1 Q204.1 152.35 204.35 150.2 205.0 144.4 208.65 138.55 211.9 133.35 214.05 128.2 214.25 127.3 214.7 126.45 217.1 120.6 213.65 112.0 211.7 107.65 211.45 97.5 L211.45 97.3 Q211.25 86.9 212.55 70.7 213.0 62.5 213.85 55.4 214.7 48.05 215.8 41.55 216.65 35.95 217.75 31.0 219.05 24.5 220.55 19.3 222.25 10.9 222.7 6.55 223.55 -1.0 220.95 -7.9 219.05 -12.65 209.1 -21.95 198.95 -31.45 198.05 -40.3 197.45 -49.6 202.4 -60.4 L205.0 -65.8 205.4 -66.65 207.15 -69.7 217.75 -86.95 Q222.25 -96.45 220.1 -106.4 218.6 -112.65 214.7 -118.95 212.35 -122.6 209.1 -126.25 L205.4 -130.8 202.6 -134.05 Q195.9 -142.7 191.4 -150.7 L189.0 -156.95 Q185.55 -167.1 182.95 -171.4 182.5 -172.7 182.5 -173.8 L182.1 -175.5 178.85 -176.15 177.75 -176.4 Q175.6 -177.7 173.9 -178.1 L168.7 -178.75 Q159.4 -181.35 149.9 -185.0 L154.65 -238.15 157.45 -237.95 160.25 -221.55 160.7 -218.95 161.15 -216.75 161.35 -215.7 Q166.95 -186.55 170.65 -189.35 175.6 -193.25 180.8 -271.85 L181.45 -281.8 Q186.4 -284.8 192.65 -289.15 196.35 -291.75 200.0 -293.45 M382.55 192.1 Q407.4 176.35 417.3 154.75 432.2 122.15 420.35 87.35 L416.0 76.1 Q412.35 67.9 407.15 57.35 395.95 34.85 392.45 26.85 389.65 20.6 388.8 11.55 387.95 1.6 389.0 -19.35 389.45 -28.65 390.3 -38.55 391.2 -49.35 391.6 -59.3 L392.05 -65.15 Q393.75 -90.0 388.8 -115.45 L386.65 -125.4 385.15 -131.65 384.25 -134.25 Q376.5 -158.65 360.05 -172.05 349.5 -182.85 336.55 -187.6 L315.35 -190.65 Q308.65 -191.5 304.15 -196.25 297.45 -206.85 300.9 -226.05 304.15 -245.5 304.15 -247.65 L305.0 -252.4 Q305.45 -259.75 305.0 -266.45 L306.3 -266.65 Q320.35 -249.6 325.3 -247.0 L326.4 -246.6 Q326.6 -244.0 327.9 -243.15 L330.05 -242.05 Q335.9 -232.1 351.0 -229.5 358.8 -228.2 378.65 -233.2 395.7 -237.5 406.75 -231.9 430.7 -219.8 426.4 -200.15 422.3 -181.8 400.05 -172.3 404.8 -172.7 419.05 -167.75 429.65 -164.05 436.1 -169.9 437.6 -167.55 438.9 -164.05 441.05 -158.45 442.8 -149.8 446.25 -131.9 447.35 -128.65 451.65 -115.7 452.3 -105.95 452.95 -96.25 450.6 -83.5 448.0 -69.7 444.75 -46.15 L443.65 -37.7 Q439.55 -11.8 431.55 6.15 432.65 7.0 433.3 9.4 L434.4 13.05 Q436.1 12.6 438.05 13.05 440.45 13.25 442.8 14.8 445.85 33.55 446.25 63.4 446.9 106.8 447.1 112.2 448.85 145.05 447.55 154.3 445.85 165.1 440.2 175.7 436.1 182.85 430.25 189.95 420.35 201.85 417.1 220.4 414.05 236.4 417.1 251.75 L417.1 252.4 Q414.7 251.5 411.5 248.5 L411.25 248.25 410.6 247.65 409.3 246.55 Q399.6 236.85 391.4 217.8 L391.4 217.6 390.55 215.45 382.9 193.2 382.55 192.1 M-78.4 -264.75 L-78.2 -264.75 Q-50.95 -265.8 -44.3 -265.6 -44.5 -259.95 -42.55 -249.15 -14.7 -246.15 18.8 -261.5 L27.85 -265.6 Q62.65 -280.95 76.25 -283.3 86.85 -285.05 104.1 -284.4 L104.1 -283.35 104.1 -283.3 110.6 -229.75 109.3 -228.6 110.6 -229.5 111.9 -218.3 113.85 -202.3 110.8 -201.85 Q89.0 -219.35 76.45 -226.95 58.1 -238.35 41.25 -239.9 L34.35 -241.85 28.75 -242.9 27.85 -242.9 Q12.95 -245.5 0.85 -241.6 -0.85 -241.2 -11.0 -234.7 -19.45 -229.5 -22.45 -230.15 L-6.7 -229.1 Q4.75 -228.2 7.15 -224.55 10.15 -219.8 6.25 -214.6 0.65 -207.7 0.2 -204.9 -0.65 -199.05 -8.85 -196.25 -19.2 -192.6 -22.45 -188.5 2.6 -184.6 17.05 -187.6 L27.85 -191.3 34.8 -193.9 Q45.8 -198.0 52.9 -196.25 59.6 -194.75 67.2 -187.85 71.5 -183.75 76.25 -177.7 87.7 -163.4 91.6 -151.35 85.95 -148.1 84.65 -145.5 L81.65 -137.95 Q85.95 -146.8 115.35 -150.7 L120.95 -151.35 Q129.15 -100.15 134.55 -102.95 135.45 -103.35 136.5 -105.1 L137.8 -107.9 145.8 -149.15 146.65 -151.35 Q149.7 -150.7 151.65 -149.4 162.2 -143.1 172.35 -123.9 182.5 -104.65 181.65 -92.35 181.0 -78.95 165.9 -67.1 146.0 -50.9 142.15 -45.05 135.2 -34.45 132.65 -24.75 130.25 -14.8 131.55 -2.3 L142.15 -19.35 Q150.35 -32.3 155.3 -33.15 165.65 -35.35 167.85 -21.75 169.15 -14.15 170.85 0.95 173.65 8.3 181.45 19.1 187.05 29.05 184.05 40.9 182.5 47.4 174.3 59.9 172.15 56.05 170.2 60.35 L170.2 60.55 169.35 62.75 168.5 65.55 168.25 65.95 167.6 68.35 167.55 68.7 166.95 71.15 Q161.55 80.85 161.15 89.5 160.9 94.7 161.55 100.95 155.5 138.35 147.1 207.9 L141.9 210.7 138.9 212.4 Q125.3 220.2 120.95 226.05 117.3 231.45 111.05 247.65 107.8 256.25 103.7 262.55 L103.45 262.55 100.75 262.3 97.55 262.0 97.25 262.0 96.35 261.85 97.25 262.0 96.55 261.9 96.35 261.85 95.45 261.65 94.95 257.3 90.3 215.65 90.3 214.6 Q90.05 213.5 90.05 212.4 L89.0 204.65 88.8 203.15 87.5 192.35 85.75 179.15 85.3 176.15 70.65 95.35 70.2 94.05 70.2 93.85 70.0 93.6 70.0 93.2 Q77.35 77.2 77.35 67.25 77.35 61.85 71.7 50.0 66.3 37.9 66.1 30.75 66.1 22.75 70.2 10.05 74.75 -3.35 74.95 -9.65 76.25 -31.45 60.05 -46.8 38.45 -62.75 28.1 -73.55 7.8 -94.95 4.75 -96.45 -5.2 -101.2 -29.15 -92.55 -43.85 -87.15 -62.2 -85.65 L-97.85 -83.95 Q-119.0 -82.4 -125.5 -66.85 L-131.1 -52.2 Q-134.8 -43.75 -140.6 -37.5 -130.9 -47.2 -125.5 -51.75 -115.15 -59.75 -104.95 -60.15 -90.95 -60.6 -78.85 -50.9 L-57.45 -33.4 Q-52.5 -30.6 -30.0 -25.85 -18.15 -23.45 -12.75 -5.55 -8.65 8.1 0.45 26.85 11.65 50.0 14.9 58.4 9.95 66.6 -7.55 65.3 -22.05 64.25 -32.6 58.85 -45.35 52.6 -54.2 40.25 -63.5 24.7 -68.9 16.5 -72.15 37.25 -65.45 53.25 -58.55 70.3 -41.9 79.35 L-24.6 88.85 Q-19.85 93.2 -15.75 107.25 -11.25 122.55 -10.8 134.45 -10.6 148.9 -16.4 161.0 -35.2 201.2 -45.35 209.6 L-49.7 212.4 Q-58.1 216.75 -71.95 217.15 L-100.65 216.3 Q-111.0 216.5 -124.2 220.65 -139.95 225.6 -146.45 226.65 -157.7 228.4 -169.15 224.3 -181.65 218.45 -190.1 216.3 -184.45 227.1 -165.65 234.9 L-165.9 235.3 Q-176.25 238.75 -182.1 237.05 -186.6 235.55 -190.95 229.05 -194.6 223.65 -196.15 218.25 L-206.95 216.5 -207.35 212.4 -210.4 189.1 -211.05 185.0 -211.05 184.1 Q-215.55 152.35 -217.5 149.35 -219.9 145.45 -221.85 147.85 -224.2 150.85 -227.65 164.45 -232.2 181.95 -233.05 213.7 L-235.65 213.5 -251.0 214.35 -257.25 182.4 -257.25 181.75 -260.95 163.6 -264.4 145.25 Q-271.3 108.95 -271.75 103.35 -272.8 91.45 -278.2 71.15 -284.05 48.05 -286.85 54.1 L-289.0 54.1 Q-292.7 47.2 -306.3 39.6 -322.25 31.0 -325.5 27.75 -334.8 18.25 -336.3 -3.8 -336.95 -12.85 -335.9 -38.8 -335.45 -47.65 -334.15 -53.05 -332.4 -59.1 -328.3 -65.35 -327.45 -66.65 -323.55 -70.35 -320.55 -73.55 -319.7 -75.95 -318.15 -79.6 -319.05 -82.2 -320.35 -85.65 -320.35 -88.05 -320.1 -113.75 -318.4 -119.15 -313.85 -134.5 -294.85 -133.4 -300.0 -141.15 -293.55 -155.45 -287.05 -169.9 -277.55 -170.55 -274.3 -178.95 -274.55 -192.35 -274.95 -205.55 -278.4 -214.2 -283.6 -208.8 -287.95 -194.55 -292.7 -178.35 -295.5 -173.8 -300.25 -166.65 -309.95 -158.9 -315.35 -154.35 -326.35 -145.95 -337.4 -136.2 -340.2 -120.65 -341.95 -111.6 -343.45 -90.85 -343.65 -89.1 -355.75 -39.45 -362.65 -9.85 -360.3 13.7 -347.1 13.25 -339.35 35.75 -334.15 51.3 -333.3 69.2 -332.85 76.35 -333.5 90.6 -333.5 103.35 -331.15 111.35 -329.2 118.05 -324.0 126.0 -317.95 134.85 -313.0 135.95 -311.7 127.95 -317.1 108.75 -322.05 90.8 -318.6 80.65 -316.0 72.45 -305.65 65.1 -293.75 58.0 -289.0 54.1 L-287.05 54.5 -287.7 57.35 -287.7 57.55 -287.7 58.4 -298.3 119.3 -298.5 121.25 -299.15 124.95 Q-308.0 183.9 -311.25 214.6 -326.35 211.55 -327.65 203.15 -330.9 203.35 -333.3 201.4 -336.3 198.8 -337.6 198.4 L-367.2 191.9 -370.85 191.05 Q-377.55 186.05 -389.0 179.6 -406.75 169.45 -411.05 158.0 L-411.25 157.8 -411.25 157.75 -411.5 157.15 -411.5 157.1 Q-412.55 150.2 -415.6 133.8 L-416.45 128.85 Q-416.9 116.6 -415.6 101.85 L-415.6 101.6 -415.35 100.75 -414.95 97.95 -414.9 97.9 -414.7 96.65 -411.7 81.1 Q-409.3 66.2 -410.2 55.4 -410.6 50.2 -411.25 48.45 L-411.25 43.5 Q-425.95 43.95 -427.9 22.35 L-427.9 21.45 Q-428.35 16.3 -428.1 10.25 L-428.1 10.05 -427.9 8.75 Q-426.6 -0.75 -422.95 -14.6 -420.55 -22.8 -416.45 -43.55 -412.75 -62.1 -409.3 -72.5 -407.8 -76.8 -405.2 -82.4 L-405.2 -82.65 Q-402.4 -88.7 -398.3 -96.05 L-397.65 -96.9 -397.45 -97.35 -397.0 -98.2 Q-393.75 -104.0 -391.4 -108.55 L-390.95 -109.4 Q-388.35 -113.3 -385.35 -118.7 L-385.35 -118.95 Q-382.55 -123.9 -379.5 -130.15 -374.75 -140.1 -369.15 -153.05 -356.4 -182.45 -347.35 -195.8 -340.85 -205.35 -329.6 -209.0 L-319.45 -211.35 -316.45 -211.6 Q-309.3 -212.65 -301.55 -215.05 L-296.15 -215.9 Q-289.45 -217.2 -284.9 -219.6 -282.75 -220.65 -278.65 -226.95 -277.15 -229.5 -274.95 -231.05 L-273.25 -232.1 -268.25 -232.55 Q-267.6 -195.8 -266.35 -179.6 -264.15 -153.7 -255.55 -123.45 -253.35 -125.6 -250.55 -133.2 -245.6 -146.8 -243.0 -170.1 L-241.75 -141.6 -241.25 -127.15 -241.05 -120.85 -240.6 -110.5 Q-239.1 -50.0 -240.4 -28.4 -241.25 -13.95 -240.85 -0.55 L-240.85 3.1 Q-240.2 16.95 -238.25 29.7 -234.15 56.9 -225.7 54.95 L-223.15 53.65 Q-213.6 46.95 -212.1 -1.2 L-212.35 -47.85 Q-212.35 -75.95 -211.45 -106.4 -209.95 -167.55 -205.85 -179.6 -201.75 -191.7 -198.05 -233.4 L-195.05 -271.4 -194.85 -271.65 -190.95 -272.7 Q-176.25 -277.05 -166.75 -278.55 L-163.1 -253.3 -156.15 -206.6 Q-143.0 -121.3 -138.9 -110.5 -136.3 -103.35 -130.9 -102.3 -128.95 -101.85 -126.8 -102.3 -125.3 -102.75 -123.55 -103.8 L-123.35 -104.0 -120.75 -105.95 -120.55 -105.95 -118.35 -108.35 -118.15 -108.55 -119.65 -107.25 Q-119.25 -107.9 -119.0 -108.75 L-116.65 -111.6 -112.95 -115.9 -110.75 -119.8 Q-106.85 -127.15 -103.45 -137.05 L-91.35 -190.4 -89.65 -200.55 -89.4 -202.3 -89.2 -202.95 -89.0 -205.1 -84.45 -232.55 -84.25 -232.95 -83.8 -235.8 -83.8 -236.45 -83.15 -239.45 -83.15 -240.1 -82.95 -240.95 -82.95 -241.6 -79.7 -259.55 -79.55 -260.45 -79.05 -261.9 Q-78.2 -263.2 -78.4 -263.85 L-78.4 -264.1 -78.4 -264.75 M-139.1 238.75 L-138.9 238.75 -139.3 239.4 -139.1 238.75 M67.85 89.75 L68.05 89.75 69.1 91.55 67.85 89.75 M-406.1 -236.85 L-408.45 -237.3 -409.7 -237.45 -406.1 -236.85 M-99.15 -230.15 L-93.1 -231.7 -93.1 -231.05 -99.15 -230.15 M-104.75 -198.65 L-101.1 -199.3 -100.0 -199.5 -101.1 -198.0 -104.35 -197.35 -104.75 -198.65" fill="#ffffff" fill-opacity="0.0" fill-rule="evenodd" stroke="none"/>
    <path d="M126.35 -282.85 L128.95 -277.25 Q135.0 -264.95 135.45 -261.5 135.85 -255.85 132.85 -252.0 127.25 -245.05 126.15 -242.9 L130.9 -242.5 136.1 -242.05 131.75 -235.55 129.4 -235.55 Q117.5 -234.7 110.6 -229.5 117.5 -234.7 129.4 -235.55 L131.75 -235.55 130.05 -233.4 Q126.35 -228.0 126.35 -224.1 L125.5 -224.1 Q116.85 -223.05 111.9 -218.3 116.85 -223.05 125.5 -224.1 L126.35 -224.1 Q136.5 -224.35 137.15 -199.95 137.4 -194.55 137.15 -187.85 136.95 -177.9 135.85 -164.95 136.1 -156.5 135.85 -136.4 135.65 -117.4 136.5 -105.1 135.45 -103.35 134.55 -102.95 129.15 -100.15 120.95 -151.35 118.35 -167.1 115.55 -187.85 L115.15 -190.85 114.05 -200.15 113.85 -202.3 111.9 -218.3 110.6 -229.5 110.6 -229.75 104.1 -283.3 104.1 -283.35 104.35 -284.4 119.25 -283.5 126.35 -282.85 M238.05 290.85 Q244.1 253.65 250.15 212.4 263.1 122.55 261.8 96.85 262.65 95.55 264.15 94.7 266.75 97.3 267.85 99.0 270.85 104.0 274.55 120.2 278.0 134.25 277.15 141.8 275.85 153.25 265.05 158.2 271.75 156.9 274.95 158.2 278.2 159.5 277.8 163.8 277.35 167.7 273.9 175.7 L273.65 176.15 272.4 179.15 265.7 180.0 Q276.9 180.45 279.05 194.5 280.35 202.05 278.85 218.9 277.35 232.7 278.0 243.1 278.45 254.1 281.65 266.85 282.1 253.45 287.5 234.65 294.4 213.5 297.2 202.9 299.15 209.4 300.65 213.5 304.55 163.8 309.3 109.8 317.75 15.2 323.15 -13.1 324.45 -8.35 331.55 10.05 337.2 24.3 337.85 33.15 339.1 50.0 337.6 59.9 337.2 62.5 334.35 70.7 332.2 77.2 332.45 81.5 348.65 83.25 338.9 95.35 335.0 100.3 327.25 106.8 L322.7 110.45 Q326.15 114.15 335.9 114.55 342.6 114.8 346.25 116.75 L347.55 117.4 348.85 118.45 Q354.25 124.5 350.15 132.5 347.75 137.45 340.4 144.6 351.45 143.95 351.65 150.0 351.85 154.3 346.05 161.65 342.6 166.0 330.25 174.85 324.45 180.0 326.8 183.45 327.9 185.0 330.7 186.3 334.15 187.8 350.15 184.55 364.2 183.7 363.95 195.8 363.95 203.15 348.65 214.35 333.95 225.15 335.0 234.0 L354.9 233.35 Q368.95 233.6 369.6 240.5 369.8 241.35 361.35 255.4 L351.45 271.15 Q345.6 278.75 335.25 278.95 L334.25 278.95 334.15 278.95 Q329.2 277.65 323.8 275.7 L321.65 275.05 Q299.6 267.3 285.55 269.45 276.25 270.75 252.5 284.8 245.15 289.1 238.05 290.85 M20.1 268.35 Q20.95 249.15 22.45 229.5 22.45 227.1 22.7 224.75 L23.55 214.6 23.75 212.4 24.2 209.2 28.3 179.35 28.95 177.65 Q29.4 176.35 29.8 175.9 L30.0 175.5 30.05 175.5 Q33.9 172.45 39.75 205.05 L41.05 212.4 Q44.5 232.05 44.5 239.85 L46.65 212.4 50.75 168.35 Q54.2 135.5 57.65 116.5 L57.65 116.3 Q61.8 91.25 65.9 89.1 L66.1 89.1 67.85 89.75 69.1 91.55 69.35 92.1 70.0 93.2 70.0 93.6 70.2 93.85 70.0 94.05 65.0 122.55 Q62.45 138.1 62.45 142.0 62.45 149.35 68.05 163.6 L73.65 177.0 Q73.65 178.3 68.05 186.95 62.45 195.35 62.45 198.8 62.45 201.85 69.55 210.25 L65.9 210.05 69.55 210.25 71.3 212.4 Q74.3 216.5 75.6 221.25 L71.05 221.7 58.75 221.5 71.05 221.7 75.6 221.25 Q76.7 225.15 76.7 229.5 76.7 234.45 74.5 245.45 73.25 251.75 72.8 255.85 56.6 251.75 47.75 253.25 39.95 254.55 21.15 268.35 L20.1 268.35 M147.1 207.9 Q155.5 138.35 161.55 100.95 L161.55 100.3 Q161.55 99.9 161.8 99.65 L162.2 97.05 162.45 95.55 162.65 94.5 165.9 76.35 166.35 74.4 167.2 70.95 167.55 68.7 167.6 68.35 168.25 65.95 168.5 65.55 169.35 62.75 170.0 62.75 Q168.7 73.3 171.7 82.8 L174.1 89.1 Q175.4 92.55 175.4 95.55 175.2 98.8 173.65 103.75 171.5 109.8 171.05 112.0 170.2 115.65 171.05 117.6 L174.1 121.7 Q175.85 124.7 176.05 127.1 176.25 128.6 175.4 132.5 174.3 137.25 174.75 144.6 175.2 148.7 174.75 149.35 174.3 150.0 170.65 152.6 163.75 157.1 163.1 160.6 163.3 160.8 166.55 161.85 L171.95 163.6 172.25 163.65 174.1 164.25 Q182.1 167.05 182.95 169.2 L179.5 172.45 176.7 172.25 167.85 170.3 176.7 172.25 179.5 172.45 168.9 181.95 Q165.25 185.4 166.55 188.45 167.6 191.05 172.35 194.05 L179.3 197.75 Q181.85 199.65 182.1 202.25 182.1 203.35 181.65 204.45 180.15 208.3 172.6 212.4 L170.0 213.7 164.15 215.0 Q160.25 215.65 159.4 218.05 157.45 223.65 176.7 225.6 L181.45 225.4 Q184.05 225.6 183.8 228.2 183.8 229.5 181.25 231.85 178.65 234.0 178.65 236.2 186.2 234.9 182.75 240.95 L178.85 247.0 Q173.9 247.65 167.2 249.35 L160.9 250.85 141.25 256.25 141.25 256.05 143.2 239.4 146.45 212.4 Q146.65 210.05 147.1 207.9 M164.15 203.55 L176.25 203.15 182.1 202.25 176.25 203.15 164.15 203.55 M44.3 243.1 L44.5 239.85 44.3 243.1 M-317.1 235.55 L-316.65 234.25 -316.2 234.9 -317.1 235.55 M-411.05 158.0 L-411.25 158.2 -411.25 157.8 -411.05 158.0 M-381.45 -131.45 L-379.5 -130.15 Q-382.55 -123.9 -385.35 -118.95 L-385.35 -118.7 -386.2 -119.35 -381.45 -131.45 M-268.25 -232.55 L-268.25 -248.75 Q-267.2 -248.1 -266.35 -248.1 L-259.65 -247.25 Q-252.05 -246.8 -247.95 -248.1 L-251.0 -238.6 Q-255.1 -228.45 -259.85 -226.5 -251.2 -225.4 -247.95 -228.65 L-249.25 -216.35 Q-252.05 -203.15 -258.75 -198.4 L-249.05 -200.55 -252.05 -186.75 Q-255.1 -172.3 -254.45 -170.35 -253.8 -168.4 -254.65 -145.7 -254.9 -134.25 -255.55 -123.45 -264.15 -153.7 -266.35 -179.6 -267.6 -195.8 -268.25 -232.55 M-126.8 -102.3 Q-128.95 -101.85 -130.9 -102.3 -136.3 -103.35 -138.9 -110.5 -143.0 -121.3 -156.15 -206.6 L-163.1 -253.3 -159.4 -254.55 -143.65 -249.6 Q-125.95 -245.05 -115.15 -247.0 L-115.35 -240.75 Q-118.8 -234.5 -135.0 -230.6 L-138.9 -229.75 -135.0 -229.5 -126.2 -229.05 -121.4 -228.85 -116.65 -228.85 -100.2 -229.95 -100.05 -229.95 -99.95 -230.0 -99.15 -230.15 -93.1 -231.05 -102.6 -219.35 Q-116.85 -205.95 -137.8 -200.55 L-111.9 -198.65 -104.75 -198.65 -104.35 -197.35 -101.1 -198.0 -107.55 -189.55 Q-116.2 -179.6 -121.6 -178.95 L-106.5 -175.75 -109.1 -151.55 Q-114.05 -123.25 -126.55 -102.5 L-126.8 -102.3 M-241.05 -177.45 Q-223.55 -207.7 -220.3 -213.75 -221.6 -209.0 -224.0 -190.85 -226.8 -167.95 -227.0 -153.25 -227.25 -138.6 -225.5 -113.55 -224.0 -88.7 -224.0 -75.75 -224.0 -44.4 -225.95 -16.95 -228.1 10.45 -228.1 13.25 L-228.75 13.5 Q-229.4 13.9 -229.4 15.0 L-235.0 10.45 Q-238.9 6.8 -240.85 3.1 L-240.85 -0.55 Q-241.25 -13.95 -240.4 -28.4 -239.1 -50.0 -240.6 -110.5 L-241.05 -120.85 -241.05 -127.15 -241.25 -132.1 -241.75 -141.6 -243.0 -170.1 -241.05 -177.45 M-104.35 -197.35 L-118.6 -196.45 -104.35 -197.35 M-287.3 56.05 L-287.7 59.05 Q-287.5 68.15 -283.15 81.3 L-275.6 102.9 Q-271.95 115.0 -276.5 124.5 -277.35 126.45 -283.6 131.0 -289.2 135.3 -289.65 136.8 -290.75 142.2 -284.45 147.2 -278.65 152.15 -280.6 158.65 -281.45 161.25 -288.55 165.35 -294.2 168.35 -292.45 174.6 -291.6 177.45 -286.0 180.45 -280.15 183.7 -278.65 187.15 -276.9 191.25 -277.55 200.95 -278.4 213.3 -278.2 215.25 L-278.2 215.65 -287.95 215.85 Q-302.2 216.3 -311.25 214.6 -308.0 183.9 -299.15 124.95 L-298.5 121.25 -298.3 119.3 -287.7 58.4 -287.3 56.05" fill="#ffffff" fill-opacity="0.2" fill-rule="evenodd" stroke="none"/>
    <path d="M376.9 172.7 L377.65 175.45 381.6 189.0 382.3 191.35 382.9 193.2 390.55 215.45 391.4 217.8 Q399.6 236.85 409.3 246.55 L410.6 247.65 411.25 248.25 411.5 248.5 Q414.7 251.5 417.1 252.4 409.55 257.15 388.15 267.5 360.95 280.65 356.85 281.1 348.2 282.2 335.45 279.15 L335.25 278.95 Q345.6 278.75 351.45 271.15 L361.35 255.4 Q369.8 241.35 369.6 240.5 368.95 233.6 354.9 233.35 L335.0 234.0 Q333.95 225.15 348.65 214.35 363.95 203.15 363.95 195.8 364.2 183.7 350.15 184.55 334.15 187.8 330.7 186.3 327.9 185.0 326.8 183.45 324.45 180.0 330.25 174.85 342.6 166.0 346.05 161.65 351.85 154.3 351.65 150.0 351.45 143.95 340.4 144.6 347.75 137.45 350.15 132.5 354.25 124.5 348.85 118.45 L348.85 117.6 347.55 117.4 346.25 116.75 Q342.6 114.8 335.9 114.55 326.15 114.15 322.7 110.45 L327.25 106.8 Q335.0 100.3 338.9 95.35 348.65 83.25 332.45 81.5 332.2 77.2 334.35 70.7 337.2 62.5 337.6 59.9 339.1 50.0 337.85 33.15 337.2 24.3 331.55 10.05 324.45 -8.35 323.15 -13.1 L324.0 -17.6 324.2 -18.5 324.45 -19.35 324.45 -19.8 325.5 -21.5 Q327.05 -23.0 328.55 -22.15 333.3 -19.55 337.4 6.15 L338.05 10.05 338.25 10.9 338.25 11.55 357.05 96.0 Q357.05 96.85 357.5 97.95 359.2 105.3 361.35 113.25 L361.35 113.7 361.8 114.8 362.0 116.1 362.45 117.8 365.05 127.75 365.5 129.45 Q371.3 152.35 376.05 169.85 365.25 178.7 345.6 181.75 L326.8 183.45 345.6 181.75 Q365.25 178.7 376.05 169.85 L376.9 172.7 M199.35 -295.2 L200.0 -293.45 199.15 -295.2 199.35 -295.2 M181.85 -287.85 L181.65 -282.85 181.45 -281.8 180.8 -271.85 Q175.6 -193.25 170.65 -189.35 166.95 -186.55 161.35 -215.7 L161.15 -216.75 160.7 -218.95 160.25 -221.55 157.45 -237.95 Q156.0 -247.2 155.95 -252.2 L155.95 -252.65 155.95 -254.15 155.95 -252.65 155.95 -252.2 154.65 -238.15 149.9 -185.0 149.45 -180.7 145.8 -149.15 137.8 -107.9 136.5 -105.1 Q135.65 -117.4 135.85 -136.4 136.1 -156.5 135.85 -164.95 136.95 -177.9 137.15 -187.85 137.4 -194.55 137.15 -199.95 136.5 -224.35 126.35 -224.1 126.35 -228.0 130.05 -233.4 L131.75 -235.55 136.1 -242.05 130.9 -242.5 126.15 -242.9 Q127.25 -245.05 132.85 -252.0 135.85 -255.85 135.45 -261.5 135.0 -264.95 128.95 -277.25 L126.35 -282.85 Q150.75 -281.35 162.2 -282.85 168.7 -283.5 180.8 -287.85 L181.85 -287.85 M141.7 -235.35 Q137.15 -235.8 131.75 -235.55 137.15 -235.8 141.7 -235.35 M206.7 165.1 L207.6 164.9 207.6 165.1 206.7 165.1 M200.25 207.25 L201.1 212.0 206.05 240.7 208.0 251.3 207.6 251.1 Q193.3 245.05 181.0 246.55 L178.85 247.0 182.75 240.95 Q186.2 234.9 178.65 236.2 178.65 234.0 181.25 231.85 183.8 229.5 183.8 228.2 184.05 225.6 181.45 225.4 L176.7 225.6 Q157.45 223.65 159.4 218.05 160.25 215.65 164.15 215.0 L170.0 213.7 172.6 212.4 Q180.15 208.3 181.65 204.45 182.1 203.35 182.1 202.25 181.85 199.65 179.3 197.75 L172.35 194.05 Q167.6 191.05 166.55 188.45 165.25 185.4 168.9 181.95 L179.5 172.45 182.95 169.2 Q182.1 167.05 174.1 164.25 L174.3 164.05 172.25 163.65 171.95 163.6 166.55 161.85 Q163.3 160.8 163.1 160.6 163.75 157.1 170.65 152.6 174.3 150.0 174.75 149.35 175.2 148.7 174.75 144.6 174.3 137.25 175.4 132.5 176.25 128.6 176.05 127.1 175.85 124.7 174.1 121.7 L171.05 117.6 Q170.2 115.65 171.05 112.0 171.5 109.8 173.65 103.75 175.2 98.8 175.4 95.55 175.4 92.55 174.1 89.1 L171.7 82.8 Q168.7 73.3 170.0 62.75 L170.2 60.55 Q172.6 55.8 175.2 62.3 L175.4 62.9 175.4 62.95 175.5 63.25 176.05 65.55 177.75 73.55 178.65 78.3 179.05 81.1 Q182.1 100.3 188.35 143.75 L189.65 149.8 Q189.65 150.65 190.1 151.7 L190.5 154.95 190.7 155.45 190.75 155.6 190.95 157.1 191.4 158.65 191.4 158.85 191.6 159.95 193.1 167.9 198.05 194.7 197.85 194.9 198.05 195.35 198.35 196.65 198.5 197.3 198.5 197.45 198.35 196.65 198.5 197.45 198.7 198.65 198.7 198.8 199.15 201.4 199.2 201.6 199.25 201.9 200.25 207.25 M264.15 94.7 L264.4 94.7 264.8 94.5 265.25 94.05 267.0 93.6 Q268.05 93.4 269.15 93.6 L269.25 93.6 269.3 93.65 269.35 93.65 269.8 93.85 270.0 93.85 270.25 93.95 270.45 94.05 Q278.2 102.8 280.15 115.65 L281.9 122.35 282.3 124.3 282.55 125.3 282.55 125.6 282.75 126.25 282.75 126.35 282.75 127.1 282.95 127.75 283.15 129.3 283.2 129.65 283.3 130.55 283.4 131.4 Q284.7 142.85 286.65 153.65 L288.6 165.1 Q288.8 167.5 289.45 170.1 L289.45 170.4 289.65 171.6 290.75 176.15 Q292.45 184.75 294.4 192.75 295.5 197.1 296.55 200.55 L297.2 202.9 Q294.4 213.5 287.5 234.65 282.1 253.45 281.65 266.85 278.45 254.1 278.0 243.1 277.35 232.7 278.85 218.9 280.35 202.05 279.05 194.5 276.9 180.45 265.7 180.0 L272.4 179.15 273.65 176.15 273.9 175.7 Q277.35 167.7 277.8 163.8 278.2 159.5 274.95 158.2 271.75 156.9 265.05 158.2 275.85 153.25 277.15 141.8 278.0 134.25 274.55 120.2 270.85 104.0 267.85 99.0 266.75 97.3 264.15 94.7 M134.55 -223.9 Q131.1 -224.55 126.35 -224.1 131.1 -224.55 134.55 -223.9 M70.2 94.05 L70.65 95.35 85.3 176.15 85.75 179.15 87.5 192.35 88.8 203.15 89.0 204.65 90.05 212.4 Q90.05 213.5 90.3 214.6 L90.3 215.65 94.95 257.3 95.25 261.65 86.6 259.5 79.5 257.55 72.8 255.85 Q73.25 251.75 74.5 245.45 76.7 234.45 76.7 229.5 76.7 225.15 75.6 221.25 74.3 216.5 71.3 212.4 L69.55 210.25 Q62.45 201.85 62.45 198.8 62.45 195.35 68.05 186.95 73.65 178.3 73.65 177.0 L68.05 163.6 Q62.45 149.35 62.45 142.0 62.45 138.1 65.0 122.55 L70.0 94.05 70.2 94.05 M348.85 117.6 Q355.1 118.45 361.35 113.7 355.1 118.45 348.85 117.6 M327.25 106.8 L340.2 106.8 Q353.4 105.05 357.5 97.95 353.4 105.05 340.2 106.8 L327.25 106.8 M175.5 63.25 L175.4 62.9 175.5 63.25 M191.6 159.95 Q185.1 164.9 175.2 164.25 L174.3 164.05 175.2 164.25 Q185.1 164.9 191.6 159.95 M190.95 157.1 L190.7 155.45 190.95 157.1 M193.1 167.9 Q187.7 172.25 179.5 172.45 187.7 172.25 193.1 167.9 M273.9 175.7 L278.45 175.5 Q284.7 174.4 289.45 170.1 284.7 174.4 278.45 175.5 L273.9 175.7 M286.65 153.65 Q282.3 157.1 274.95 158.2 282.3 157.1 286.65 153.65 M89.0 204.65 Q83.8 209.4 74.95 210.25 L69.55 210.25 74.95 210.25 Q83.8 209.4 89.0 204.65 M90.3 215.65 Q84.65 219.75 75.6 221.25 84.65 219.75 90.3 215.65 M166.3 220.85 L178.4 220.4 Q191.6 218.9 200.45 212.4 L201.1 212.0 200.45 212.4 Q191.6 218.9 178.4 220.4 L166.3 220.85 M207.6 251.1 L207.8 250.85 Q205.4 249.15 207.6 251.1 M182.1 202.25 Q191.4 200.1 197.85 194.9 191.4 200.1 182.1 202.25 M-412.15 157.35 Q-413.4 154.55 -416.25 151.7 -422.05 145.9 -423.35 143.5 -425.3 140.25 -425.5 135.75 -425.5 131.2 -425.75 128.2 L-425.95 127.75 Q-427.45 115.2 -431.55 106.35 L-432.0 104.4 Q-432.2 104.4 -432.45 104.65 -435.0 99.65 -438.25 96.65 L-436.75 95.55 -439.15 95.8 Q-442.6 92.95 -446.9 91.9 -438.5 82.15 -434.6 76.35 -427.7 65.95 -430.5 58.0 -432.65 51.5 -444.55 47.4 -461.15 41.35 -462.65 40.5 -455.75 31.65 -452.3 26.25 L-451.0 26.45 -452.1 25.8 Q-449.5 21.25 -449.05 19.1 -447.75 12.2 -464.85 -0.55 -459.2 -4.65 -456.4 -10.95 -453.8 -17.2 -454.05 -25.85 -454.9 -53.7 -454.45 -55.85 -452.5 -64.7 -442.35 -82.85 -438.05 -90.4 -436.1 -97.75 -434.35 -104.65 -434.6 -111.15 -430.7 -111.6 -427.25 -114.4 -422.95 -118.05 -421.4 -118.7 L-421.4 -118.95 -421.2 -119.15 Q-406.5 -110.95 -391.4 -109.4 L-391.15 -109.4 -391.4 -109.4 Q-406.5 -110.95 -421.2 -119.15 -421.65 -119.55 -422.3 -119.8 -429.4 -126.25 -432.65 -131.0 -438.05 -138.35 -438.9 -145.7 L-422.05 -146.55 -413.4 -140.75 Q-397.85 -132.1 -381.45 -131.45 L-386.2 -119.35 Q-387.7 -115.9 -390.95 -109.4 L-391.15 -109.4 -391.4 -108.55 Q-395.05 -102.95 -398.3 -97.35 L-398.3 -96.9 Q-402.4 -89.75 -405.45 -82.65 L-405.45 -82.4 Q-413.2 -83.95 -425.5 -91.05 L-436.1 -97.75 -425.5 -91.05 Q-413.2 -83.95 -405.45 -82.4 -407.35 -78.3 -408.9 -74.0 -413.0 -62.75 -420.35 -34.7 -423.8 -22.15 -425.75 -10.95 -442.8 -7.45 -456.4 -10.95 -442.8 -7.45 -425.75 -10.95 -427.45 -0.55 -427.9 8.75 L-428.1 10.05 -428.75 16.05 Q-428.95 19.55 -428.75 22.75 -438.7 27.75 -451.0 26.45 -438.7 27.75 -428.75 22.75 -427.9 37.05 -419.25 44.15 -417.55 45.45 -412.15 47.4 -411.7 47.6 -411.25 48.45 -411.9 58.65 -414.05 86.25 -422.05 92.75 -436.75 95.55 -422.05 92.75 -414.05 86.25 L-415.15 96.65 -415.15 98.15 Q-422.5 102.05 -432.0 104.4 -422.5 102.05 -415.15 98.15 L-415.35 100.75 -415.6 101.6 -415.6 101.85 -416.65 106.35 Q-417.75 112.65 -417.3 120.6 L-416.45 128.85 Q-415.8 145.45 -411.5 157.1 L-412.15 157.35 M-268.25 -248.75 L-268.5 -248.95 -268.5 -266.0 -262.2 -266.9 -256.8 -266.9 -230.9 -266.25 -230.8 -266.25 -229.6 -266.0 -233.5 -237.4 -229.6 -266.0 -228.95 -266.25 -217.75 -272.5 Q-204.1 -277.9 -195.05 -272.5 L-195.05 -271.4 -198.05 -233.4 Q-201.75 -191.7 -205.85 -179.6 -209.95 -167.55 -211.45 -106.4 -212.35 -75.95 -212.35 -47.85 L-212.1 -1.2 Q-213.6 46.95 -223.15 53.65 L-225.7 54.95 Q-234.15 56.9 -238.25 29.7 -240.2 16.95 -240.85 3.1 -238.9 6.8 -235.0 10.45 L-229.4 15.0 Q-229.4 13.9 -228.75 13.5 L-228.1 13.25 Q-228.1 10.45 -225.95 -16.95 -224.0 -44.4 -224.0 -75.75 -224.0 -88.7 -225.5 -113.55 -227.25 -138.6 -227.0 -153.25 -226.8 -167.95 -224.0 -190.85 -221.6 -209.0 -220.3 -213.75 -223.55 -207.7 -241.05 -177.45 L-234.95 -226.2 -233.95 -234.05 -233.5 -237.4 -233.95 -234.5 -233.95 -234.05 -234.35 -231.9 -242.55 -175.3 -243.0 -170.1 Q-245.6 -146.8 -250.55 -133.2 -253.35 -125.6 -255.55 -123.45 -254.9 -134.25 -254.65 -145.7 -253.8 -168.4 -254.45 -170.35 -255.1 -172.3 -252.05 -186.75 L-249.05 -200.55 -258.75 -198.4 Q-252.05 -203.15 -249.25 -216.35 L-247.95 -228.65 Q-251.2 -225.4 -259.85 -226.5 -255.1 -228.45 -251.0 -238.6 L-247.95 -248.1 Q-252.05 -246.8 -259.65 -247.25 L-266.35 -248.1 Q-267.2 -248.1 -268.25 -248.75 M-166.75 -278.55 Q-135.85 -285.9 -117.3 -272.3 -103.45 -263.0 -78.6 -264.75 L-78.6 -264.1 -78.8 -263.25 -78.85 -263.2 -79.05 -261.9 -79.25 -261.7 -79.55 -260.45 -79.7 -259.55 -82.95 -241.6 -82.95 -240.95 -83.15 -240.1 -83.15 -239.45 -83.8 -236.45 -83.8 -235.8 -84.25 -232.95 -84.45 -232.55 -89.0 -205.1 -89.2 -202.95 -89.4 -202.3 -89.65 -200.55 -91.35 -190.4 -103.45 -137.05 Q-106.05 -130.15 -108.65 -124.35 L-110.75 -119.8 -112.95 -115.9 -116.65 -111.6 -121.15 -106.4 -123.35 -104.0 -123.55 -103.8 Q-125.05 -102.95 -126.55 -102.5 -114.05 -123.25 -109.1 -151.55 L-106.5 -175.75 -121.6 -178.95 Q-116.2 -179.6 -107.55 -189.55 L-101.1 -198.0 -100.0 -199.5 -101.1 -199.3 -104.75 -198.65 -111.9 -198.65 -137.8 -200.55 Q-116.85 -205.95 -102.6 -219.35 L-93.1 -231.05 -92.45 -231.9 -93.1 -231.7 -99.15 -230.15 -99.95 -230.0 -100.05 -229.95 -100.2 -229.95 -116.65 -228.85 -126.2 -229.05 -135.0 -229.5 -135.0 -230.6 Q-118.8 -234.5 -115.35 -240.75 L-115.15 -247.0 Q-125.95 -245.05 -143.65 -249.6 L-159.4 -254.55 -163.1 -253.3 -166.75 -278.55 M-424.0 -108.35 L-414.05 -102.1 Q-405.0 -97.55 -398.3 -96.9 -405.0 -97.55 -414.05 -102.1 L-424.0 -108.35 M-286.85 54.1 Q-284.05 48.05 -278.2 71.15 -272.8 91.45 -271.75 103.35 -271.3 108.95 -264.4 145.25 L-260.95 163.6 -257.25 181.75 -257.25 182.4 -251.0 214.35 -275.85 215.65 -278.2 215.25 Q-278.4 213.3 -277.55 200.95 -276.9 191.25 -278.65 187.15 -280.15 183.7 -286.0 180.45 -291.6 177.45 -292.45 174.6 -294.2 168.35 -288.55 165.35 -281.45 161.25 -280.6 158.65 -278.65 152.15 -284.45 147.2 -290.75 142.2 -289.65 136.8 -289.2 135.3 -283.6 131.0 -277.35 126.45 -276.5 124.5 -271.95 115.0 -275.6 102.9 L-283.15 81.3 Q-287.5 68.15 -287.7 59.05 L-287.3 56.05 -286.9 54.3 -286.85 54.1 M-233.05 213.7 Q-232.2 181.95 -227.65 164.45 -224.2 150.85 -221.85 147.85 -219.9 145.45 -217.5 149.35 -215.55 152.35 -211.05 184.1 L-211.05 185.0 -210.4 189.1 -207.35 212.4 -206.95 216.5 -215.8 215.45 -218.35 215.25 -233.05 213.95 -233.05 213.7 M-84.45 -232.55 L-93.1 -231.05 -84.45 -232.55 M-89.65 -200.55 L-101.1 -198.0 -89.65 -200.55 M-287.7 58.4 L-287.7 57.55 -287.3 56.05 -287.7 58.4 M-278.65 147.85 Q-275.85 145.9 -269.8 145.45 L-264.4 145.25 -269.8 145.45 Q-275.85 145.9 -278.65 147.85 M-226.35 191.7 Q-223.55 189.75 -217.3 189.3 L-210.4 189.1 -217.3 189.3 Q-223.55 189.75 -226.35 191.7 M-223.15 184.75 Q-220.55 183.25 -215.55 183.45 L-211.05 184.1 -215.55 183.45 Q-220.55 183.25 -223.15 184.75 M-268.05 182.6 Q-265.45 181.1 -260.3 181.3 L-257.25 181.75 -260.3 181.3 Q-265.45 181.1 -268.05 182.6 M-315.15 237.45 Q-309.75 241.6 -293.75 240.7 -283.6 240.3 -267.6 237.7 L-268.7 234.25 -269.55 232.7 Q-262.0 230.15 -251.2 229.25 L-232.0 228.2 Q-227.25 228.2 -218.35 226.05 L-214.05 224.75 Q-203.05 221.7 -196.35 222.35 -195.9 227.75 -189.45 234.25 L-185.1 238.1 -189.45 239.4 Q-197.4 242.25 -204.35 247.65 -210.4 252.4 -218.35 261.45 L-220.3 263.6 -218.35 263.4 Q-208.0 261.45 -189.45 259.7 L-188.8 259.5 Q-180.35 258.45 -175.4 254.95 -171.5 252.4 -165.25 244.6 -159.6 237.7 -156.8 235.75 -154.45 234.0 -151.85 233.6 -149.45 233.15 -146.65 234.0 L-139.3 239.4 Q-126.35 249.15 -124.65 251.1 L-120.95 248.9 Q-117.7 252.8 -110.35 256.9 -103.9 260.6 -98.05 262.3 -97.0 259.3 -96.75 254.75 L-96.35 247.0 Q-89.2 247.0 -80.8 251.75 -76.05 254.3 -66.55 260.15 -61.35 262.75 -52.05 268.35 -44.5 272.45 -38.0 273.55 L-48.8 272.9 Q-65.65 271.4 -86.6 273.55 -147.3 283.7 -172.35 282.85 L-189.45 282.2 -218.35 280.05 Q-242.55 277.65 -263.1 274.2 -283.15 270.75 -297.45 266.4 -307.6 262.55 -311.9 247.2 -313.65 241.6 -315.15 237.45 M-425.75 128.2 Q-421.4 125.35 -417.3 120.6 -421.4 125.35 -425.75 128.2" fill="#000000" fill-opacity="0.101960786" fill-rule="evenodd" stroke="none"/>
    <path d="M365.7 130.1 L374.1 121.5 Q382.95 110.25 383.4 86.5 383.85 65.75 378.45 49.55 376.05 42.2 357.7 19.75 342.15 0.3 342.8 -10.3 345.4 -9.65 351.2 -10.5 L359.2 -11.15 Q360.05 -16.75 365.05 -31.45 368.05 -40.75 366.35 -50.65 364.2 -63.65 356.6 -80.05 353.4 -87.15 342.15 -107.7 332.65 -99.05 312.75 -110.3 295.25 -120.0 289.25 -131.0 L308.65 -130.35 Q322.05 -130.8 325.1 -137.7 329.4 -147.0 320.55 -150.25 308.65 -152.4 304.35 -155.0 296.35 -159.75 286.0 -169.9 275.85 -180.05 271.3 -187.2 268.7 -191.3 262.85 -204.7 258.35 -215.5 253.15 -221.3 246.9 -228.45 227.25 -233.85 209.5 -238.6 205.65 -246.6 214.7 -251.1 231.1 -250.9 254.9 -250.45 257.9 -250.9 251.45 -264.1 242.15 -276.6 229.6 -293.45 220.1 -296.05 210.6 -298.85 200.0 -293.45 L199.35 -295.2 201.3 -296.05 Q227.9 -307.05 237.8 -307.3 254.65 -307.7 262.25 -303.4 L282.1 -289.8 Q291.6 -284.4 304.8 -268.6 L305.0 -266.45 Q305.45 -259.75 305.0 -252.4 L304.15 -247.65 Q304.15 -245.5 300.9 -226.05 297.45 -206.85 304.15 -196.25 308.65 -191.5 315.35 -190.65 L336.55 -187.6 Q349.5 -182.85 360.05 -172.05 367.4 -165.35 377.15 -149.6 381.25 -143.1 384.25 -134.25 L385.15 -131.65 386.65 -125.4 388.8 -115.45 390.3 -105.3 Q392.7 -85.0 391.6 -59.3 391.2 -49.35 390.3 -38.55 L390.1 -37.5 Q387.95 -15.45 387.95 -4.25 387.95 4.4 388.8 11.55 389.0 16.05 389.9 19.55 392.25 30.1 400.25 47.2 408.05 64.25 413.85 72.9 L416.0 76.1 420.35 87.35 Q432.2 122.15 417.3 154.75 407.4 176.35 382.55 192.1 L382.3 191.35 381.6 189.0 377.65 175.45 376.9 172.7 Q371.8 154.5 365.7 130.1 M202.6 -134.05 L205.4 -130.8 Q209.3 -124.75 214.7 -118.95 218.6 -112.65 220.1 -106.4 219.45 -93.85 210.15 -76.6 L205.4 -66.65 205.0 -65.8 Q203.25 -63.2 202.2 -60.4 L202.4 -60.4 Q197.45 -49.6 198.05 -40.3 198.95 -31.45 209.1 -21.95 219.05 -12.65 220.95 -7.9 223.55 -1.0 222.7 6.55 222.25 10.9 220.55 19.3 219.05 24.5 217.75 31.0 L217.3 31.0 215.35 41.55 215.35 41.8 213.4 55.4 Q210.8 77.2 211.25 97.3 L211.25 97.5 211.45 97.5 Q211.7 107.65 213.65 112.0 217.1 120.6 214.7 126.45 214.25 127.3 214.05 128.2 211.9 133.35 208.65 138.55 205.0 144.4 204.35 150.2 204.1 152.35 206.7 165.1 L207.6 165.1 Q207.6 170.95 208.0 179.15 208.65 195.55 201.55 202.5 L199.15 201.4 198.7 198.8 198.7 198.65 198.5 197.3 198.35 196.65 198.05 195.35 198.05 194.7 193.1 167.9 191.6 159.95 191.4 158.85 191.4 158.65 190.95 157.1 190.75 155.6 190.7 155.45 190.1 151.7 Q189.65 150.65 189.65 149.8 L188.35 143.75 Q182.1 100.3 179.05 81.1 L178.65 78.3 178.4 76.75 178.2 75.05 Q177.1 69.2 176.05 65.55 L175.5 63.25 175.4 62.95 175.4 62.9 175.2 62.3 174.3 59.9 Q182.5 47.4 184.05 40.9 187.05 29.05 181.45 19.1 173.65 8.3 170.85 0.95 169.15 -14.15 167.85 -21.75 165.65 -35.35 155.3 -33.15 150.35 -32.3 142.15 -19.35 L131.55 -2.3 Q130.25 -14.8 132.65 -24.75 135.2 -34.45 142.15 -45.05 146.0 -50.9 165.9 -67.1 181.0 -78.95 181.65 -92.35 182.5 -104.65 172.35 -123.9 162.2 -143.1 151.65 -149.4 149.7 -150.7 146.65 -151.35 L146.25 -151.35 149.7 -182.0 150.1 -183.1 Q158.1 -180.25 168.7 -178.75 L177.75 -176.4 180.35 -174.65 Q181.45 -173.8 182.95 -171.4 185.1 -161.7 191.4 -150.7 195.25 -141.15 198.7 -137.95 L202.6 -134.05 M120.95 -151.35 L115.35 -150.7 Q85.95 -146.8 81.65 -137.95 L84.65 -145.5 Q85.95 -148.1 91.6 -151.35 87.7 -163.4 76.25 -177.7 71.5 -183.75 67.2 -187.85 59.6 -194.75 52.9 -196.25 45.8 -198.0 34.8 -193.9 L27.85 -191.3 17.05 -187.6 Q2.6 -184.6 -22.45 -188.5 -19.2 -192.6 -8.85 -196.25 -0.65 -199.05 0.2 -204.9 0.65 -207.7 6.25 -214.6 10.15 -219.8 7.15 -224.55 4.75 -228.2 -6.7 -229.1 L-22.45 -230.15 Q-19.45 -229.5 -11.0 -234.7 -0.85 -241.2 0.85 -241.6 12.95 -245.5 27.85 -242.9 L28.75 -242.9 34.35 -241.85 41.25 -239.9 Q58.1 -238.35 76.45 -226.95 89.0 -219.35 110.8 -201.85 L114.05 -200.15 115.15 -190.85 115.55 -187.85 Q118.35 -167.1 120.95 -151.35 M-165.65 234.9 Q-184.45 227.1 -190.1 216.3 -181.65 218.45 -169.15 224.3 -157.7 228.4 -146.45 226.65 -139.95 225.6 -124.2 220.65 -111.0 216.5 -100.65 216.3 L-71.95 217.15 Q-58.1 216.75 -49.7 212.4 L-45.35 209.6 Q-35.2 201.2 -16.4 161.0 -10.6 148.9 -10.8 134.45 -11.25 122.55 -15.75 107.25 -19.85 93.2 -24.6 88.85 L-41.9 79.35 Q-58.55 70.3 -65.45 53.25 -72.15 37.25 -68.9 16.5 -63.5 24.7 -54.2 40.25 -45.35 52.6 -32.6 58.85 -22.05 64.25 -7.55 65.3 9.95 66.6 14.9 58.4 11.65 50.0 0.45 26.85 -8.65 8.1 -12.75 -5.55 -18.15 -23.45 -30.0 -25.85 -52.5 -30.6 -57.45 -33.4 L-78.85 -50.9 Q-90.95 -60.6 -104.95 -60.15 -115.15 -59.75 -125.5 -51.75 -130.9 -47.2 -140.6 -37.5 -134.8 -43.75 -131.1 -52.2 L-125.5 -66.85 Q-119.0 -82.4 -97.85 -83.95 L-62.2 -85.65 Q-43.85 -87.15 -29.15 -92.55 -5.2 -101.2 4.75 -96.45 7.8 -94.95 28.1 -73.55 38.45 -62.75 60.05 -46.8 76.25 -31.45 74.95 -9.65 74.75 -3.35 70.2 10.05 66.1 22.75 66.1 30.75 66.3 37.9 71.7 50.0 77.35 61.85 77.35 67.25 77.35 77.2 70.0 93.2 L69.35 92.1 69.1 91.55 68.05 89.75 67.85 89.75 66.1 89.1 65.9 89.1 Q61.8 91.25 57.65 116.3 L57.65 116.5 Q54.2 135.5 50.75 168.35 L46.65 212.4 44.5 239.85 Q44.5 232.05 41.05 212.4 L39.75 205.05 Q33.9 172.45 30.05 175.5 L30.0 175.5 28.5 175.7 28.95 177.65 28.3 179.35 24.2 209.2 23.75 212.4 23.55 214.6 22.7 224.75 Q22.45 227.1 22.45 229.5 20.95 249.15 20.1 268.35 L20.1 269.45 Q16.0 272.45 11.25 276.15 L0.2 284.55 -1.5 285.85 -20.1 266.0 -63.3 255.2 -63.5 254.1 -65.25 254.3 -68.45 253.05 -93.55 241.6 Q-103.9 236.85 -111.0 237.25 -114.7 237.45 -118.35 241.8 -121.8 246.1 -124.2 246.1 L-124.4 246.1 -124.85 246.1 -125.3 246.1 -138.9 238.75 -139.1 238.75 -146.65 234.0 Q-148.4 232.95 -149.9 232.7 L-151.65 232.5 -151.85 232.5 Q-156.8 232.3 -165.25 235.1 -165.45 235.1 -165.65 234.9 M103.7 262.55 Q107.8 256.25 111.05 247.65 117.3 231.45 120.95 226.05 125.3 220.2 138.9 212.4 L141.9 210.7 147.1 207.9 Q146.65 210.05 146.45 212.4 L143.2 239.4 141.25 256.05 141.25 256.25 114.05 263.4 113.6 262.75 Q113.2 263.2 112.55 263.4 L112.3 263.4 103.7 262.55 M330.05 -242.05 L330.9 -244.65 Q338.25 -241.85 346.9 -241.2 358.15 -240.55 371.75 -243.15 398.95 -248.75 425.5 -241.85 L426.6 -241.4 438.25 -237.95 443.0 -236.2 443.45 -236.0 465.05 -205.95 Q486.2 -176.15 503.3 -10.5 502.0 120.85 472.4 167.5 L442.6 214.35 Q440.45 216.75 430.7 231.85 L428.55 235.1 Q420.55 247.4 418.4 251.5 L417.1 251.75 Q414.05 236.4 417.1 220.4 420.35 201.85 430.25 189.95 436.1 182.85 440.2 175.7 445.85 165.1 447.55 154.3 448.85 145.05 447.1 112.2 446.9 106.8 446.25 63.4 445.85 33.55 442.8 14.8 440.45 13.25 438.05 13.05 436.1 12.6 434.4 13.05 L433.3 9.4 Q432.65 7.0 431.55 6.15 439.55 -11.8 443.65 -37.7 L444.75 -46.15 Q448.0 -69.7 450.6 -83.5 452.95 -96.25 452.3 -105.95 451.65 -115.7 447.35 -128.65 446.25 -131.9 442.8 -149.8 441.05 -158.45 438.9 -164.05 437.6 -167.55 436.1 -169.9 429.65 -164.05 419.05 -167.75 404.8 -172.7 400.05 -172.3 422.3 -181.8 426.4 -200.15 430.7 -219.8 406.75 -231.9 395.7 -237.5 378.65 -233.2 358.8 -228.2 351.0 -229.5 335.9 -232.1 330.05 -242.05 M202.4 176.8 Q208.25 173.55 206.7 165.1 208.25 173.55 202.4 176.8 M-289.0 54.1 Q-293.75 58.0 -305.65 65.1 -316.0 72.45 -318.6 80.65 -322.05 90.8 -317.1 108.75 -311.7 127.95 -313.0 135.95 -317.95 134.85 -324.0 126.0 -329.2 118.05 -331.15 111.35 -333.5 103.35 -333.5 90.6 -332.85 76.35 -333.3 69.2 -334.15 51.3 -339.35 35.75 -347.1 13.25 -360.3 13.7 -362.65 -9.85 -355.75 -39.45 -343.65 -89.1 -343.45 -90.85 -341.95 -111.6 -340.2 -120.65 -337.4 -136.2 -326.35 -145.95 -315.35 -154.35 -309.95 -158.9 -300.25 -166.65 -295.5 -173.8 -292.7 -178.35 -287.95 -194.55 -283.6 -208.8 -278.4 -214.2 -274.95 -205.55 -274.55 -192.35 -274.3 -178.95 -277.55 -170.55 -287.05 -169.9 -293.55 -155.45 -300.0 -141.15 -294.85 -133.4 -313.85 -134.5 -318.4 -119.15 -320.1 -113.75 -320.35 -88.05 -320.35 -85.65 -319.05 -82.2 -318.15 -79.6 -319.7 -75.95 -320.55 -73.55 -323.55 -70.35 -327.45 -66.65 -328.3 -65.35 -332.4 -59.1 -334.15 -53.05 -335.45 -47.65 -335.9 -38.8 -336.95 -12.85 -336.3 -3.8 -334.8 18.25 -325.5 27.75 -322.25 31.0 -306.3 39.6 -292.7 47.2 -289.0 54.1" fill="#000000" fill-opacity="0.2" fill-rule="evenodd" stroke="none"/>
    <path d="M-165.25 235.1 Q-156.8 232.3 -151.85 232.5 L-151.65 232.5 -151.85 233.6 Q-154.45 234.0 -156.8 235.75 -159.6 237.7 -165.25 244.6 -171.5 252.4 -175.4 254.95 -180.35 258.45 -188.8 259.5 L-189.45 259.7 Q-208.0 261.45 -218.35 263.4 L-220.3 263.6 -218.35 261.45 Q-210.4 252.4 -204.35 247.65 -197.4 242.25 -189.45 239.4 L-185.1 238.1 -189.45 234.25 Q-195.9 227.75 -196.35 222.35 -203.05 221.7 -214.05 224.75 L-218.35 226.05 Q-227.25 228.2 -232.0 228.2 L-251.2 229.25 Q-262.0 230.15 -269.55 232.7 L-268.7 234.25 -267.6 237.7 Q-283.6 240.3 -293.75 240.7 -309.75 241.6 -315.15 237.45 L-316.2 234.9 -316.65 234.25 -317.1 235.55 -317.05 235.65 Q-314.9 239.1 -311.9 249.55 -309.3 259.3 -306.05 263.2 L-306.05 263.4 Q-330.7 254.1 -334.15 240.95 -342.15 238.1 -348.2 234.25 -362.45 225.15 -368.5 209.85 -394.2 215.65 -400.25 216.5 -418.8 219.35 -434.6 216.3 -439.55 185.0 -441.95 172.9 -443.65 164.25 -446.45 156.05 -450.35 144.6 -456.6 133.6 -458.55 129.9 -460.1 119.95 -461.6 109.8 -482.95 99.45 -504.35 89.3 -493.55 -11.35 -481.9 -50.45 -493.55 -112.65 -496.8 -159.95 -471.1 -193.45 -445.6 -226.95 -429.85 -233.6 L-426.8 -234.7 -426.6 -234.7 Q-424.0 -235.8 -421.65 -236.2 L-421.2 -236.45 -420.75 -236.45 -420.35 -236.65 -411.05 -237.5 -410.95 -237.5 -409.7 -237.45 -408.45 -237.3 -406.1 -236.85 -405.85 -236.85 Q-390.55 -233.2 -387.95 -233.4 -379.1 -233.85 -367.2 -237.1 -360.3 -239.0 -352.1 -241.85 -345.6 -244.4 -338.45 -247.45 -303.5 -262.35 -289.2 -264.95 -280.8 -266.45 -268.9 -266.9 L-268.5 -266.0 -268.5 -248.95 -268.25 -248.75 -268.25 -232.55 -273.25 -232.1 -274.95 -231.05 Q-277.15 -229.5 -278.65 -226.95 -282.75 -220.65 -284.9 -219.6 -289.45 -217.2 -296.15 -215.9 L-301.55 -215.05 -308.0 -213.95 -319.45 -211.35 -329.6 -209.0 Q-340.85 -205.35 -347.35 -195.8 -356.4 -182.45 -369.15 -153.05 -374.75 -140.1 -379.5 -130.15 L-381.45 -131.45 Q-397.85 -132.1 -413.4 -140.75 L-422.05 -146.55 -438.9 -145.7 Q-438.05 -138.35 -432.65 -131.0 -429.4 -126.25 -422.3 -119.8 L-421.4 -118.7 Q-422.95 -118.05 -427.25 -114.4 -430.7 -111.6 -434.6 -111.15 -434.35 -104.65 -436.1 -97.75 -438.05 -90.4 -442.35 -82.85 -452.5 -64.7 -454.45 -55.85 -454.9 -53.7 -454.05 -25.85 -453.8 -17.2 -456.4 -10.95 -458.35 -11.35 -460.1 -12.0 L-471.55 -17.6 -460.1 -12.0 Q-458.35 -11.35 -456.4 -10.95 -459.2 -4.65 -464.85 -0.55 -447.75 12.2 -449.05 19.1 -449.5 21.25 -452.1 25.8 L-452.3 26.25 Q-455.75 31.65 -462.65 40.5 -461.15 41.35 -444.55 47.4 -432.65 51.5 -430.5 58.0 -427.7 65.95 -434.6 76.35 -438.5 82.15 -446.9 91.9 -442.6 92.95 -439.15 95.8 L-438.25 96.65 Q-435.0 99.65 -432.45 104.65 L-431.55 106.35 Q-427.45 115.2 -425.95 127.75 L-425.75 128.2 Q-425.5 131.2 -425.5 135.75 -425.3 140.25 -423.35 143.5 -422.05 145.9 -416.25 151.7 -413.4 154.55 -412.15 157.35 -411.25 159.05 -411.05 161.0 L-411.25 158.2 -411.05 158.0 Q-406.75 169.45 -389.0 179.6 -377.55 186.05 -370.85 191.05 L-370.85 191.25 -370.65 191.25 Q-365.25 195.15 -362.9 198.15 -360.5 201.2 -357.05 210.25 -354.45 217.8 -350.15 220.85 -346.25 223.85 -336.3 224.3 -325.95 224.75 -322.05 227.1 -319.25 228.85 -316.65 234.25 -319.25 228.85 -322.05 227.1 -325.95 224.75 -336.3 224.3 -346.25 223.85 -350.15 220.85 -354.45 217.8 -357.05 210.25 -360.5 201.2 -362.9 198.15 -365.25 195.15 -370.65 191.25 L-367.2 191.9 -337.6 198.4 Q-336.3 198.8 -333.3 201.4 -330.9 203.35 -327.65 203.15 -326.35 211.55 -311.25 214.6 -302.2 216.3 -287.95 215.85 L-278.2 215.65 -275.85 215.65 -251.0 214.35 -235.65 213.5 -233.05 213.95 -218.35 215.25 -215.8 215.45 -206.95 216.5 -196.15 218.25 Q-194.6 223.65 -190.95 229.05 -186.6 235.55 -182.1 237.05 -176.25 238.75 -165.9 235.3 L-165.25 235.1 M-138.9 238.75 L-125.3 246.1 -124.85 246.1 -124.4 246.1 -124.2 246.1 Q-121.8 246.1 -118.35 241.8 -114.7 237.45 -111.0 237.25 -103.9 236.85 -93.55 241.6 L-68.45 253.05 Q-65.85 254.15 -63.3 255.2 L-20.1 266.0 -1.5 285.85 -2.8 286.95 -4.1 287.8 Q-7.15 285.65 -10.35 283.7 -22.25 277.0 -38.0 274.4 L-38.0 273.55 Q-44.5 272.45 -52.05 268.35 -61.35 262.75 -66.55 260.15 -76.05 254.3 -80.8 251.75 -89.2 247.0 -96.35 247.0 L-96.75 254.75 Q-97.0 259.3 -98.05 262.3 -103.9 260.6 -110.35 256.9 -117.7 252.8 -120.95 248.9 L-124.65 251.1 Q-126.35 249.15 -139.3 239.4 L-138.9 238.75 M-439.15 131.4 L-432.45 131.0 Q-428.95 130.1 -425.75 128.2 -428.95 130.1 -432.45 131.0 L-439.15 131.4 M-426.15 -149.4 L-422.05 -146.55 -426.15 -149.4 M-458.55 -153.7 L-440.0 -132.75 Q-431.35 -124.95 -422.3 -119.8 -431.35 -124.95 -440.0 -132.75 L-458.55 -153.7 M-436.1 -97.75 L-439.15 -99.7 -436.1 -97.75 M-462.9 23.4 L-452.3 26.25 -462.9 23.4 M-439.15 95.8 L-449.95 96.85 -439.15 95.8 M-432.45 104.65 L-441.3 106.35 -456.4 107.65 -441.3 106.35 -432.45 104.65" fill="#ffffff" fill-opacity="0.101960786" fill-rule="evenodd" stroke="none"/>
    <path d="M382.55 192.1 Q407.4 176.35 417.3 154.75 432.2 122.15 420.35 87.35 L416.0 76.1 413.85 72.9 Q408.05 64.25 400.25 47.2 392.25 30.1 389.9 19.55 389.0 16.05 388.8 11.55 387.95 1.6 389.0 -19.35 389.45 -28.65 390.3 -38.55 391.2 -49.35 391.6 -59.3 L392.05 -65.15 Q393.75 -90.0 388.8 -115.45 L386.65 -125.4 385.15 -131.65 384.25 -134.25 Q376.5 -158.65 360.05 -172.05 349.5 -182.85 336.55 -187.6 L315.35 -190.65 Q308.65 -191.5 304.15 -196.25 297.45 -206.85 300.9 -226.05 304.15 -245.5 304.15 -247.65 L305.0 -252.4 Q305.45 -259.75 305.0 -266.45 L304.8 -268.6 M131.75 -235.55 Q137.15 -235.8 141.7 -235.35 M168.7 -178.75 L173.9 -178.1 Q175.6 -177.7 177.75 -176.4 L180.35 -174.65 Q181.45 -173.8 182.95 -171.4 185.55 -167.1 189.0 -156.95 L191.4 -150.7 Q195.25 -141.15 198.7 -137.95 L202.6 -134.05 205.4 -130.8 Q209.3 -124.75 214.7 -118.95 218.6 -112.65 220.1 -106.4 219.45 -93.85 210.15 -76.6 L205.4 -66.65 205.0 -65.8 202.4 -60.4 Q197.45 -49.6 198.05 -40.3 198.95 -31.45 209.1 -21.95 219.05 -12.65 220.95 -7.9 223.55 -1.0 222.7 6.55 222.25 10.9 220.55 19.3 219.05 24.5 217.75 31.0 216.65 35.95 215.8 41.55 214.7 48.05 213.85 55.4 213.0 62.5 212.55 70.7 211.25 86.9 211.45 97.3 L211.45 97.5 Q211.7 107.65 213.65 112.0 217.1 120.6 214.7 126.45 214.25 127.3 214.05 128.2 211.9 133.35 208.65 138.55 205.0 144.4 204.35 150.2 204.1 152.35 206.7 165.1 208.25 173.55 202.4 176.8 M110.8 -201.85 Q89.0 -219.35 76.45 -226.95 58.1 -238.35 41.25 -239.9 M110.6 -229.5 Q117.5 -234.7 129.4 -235.55 L131.75 -235.55 M126.35 -224.1 Q131.1 -224.55 134.55 -223.9 M111.9 -218.3 Q116.85 -223.05 125.5 -224.1 L126.35 -224.1 M149.9 -183.3 L150.1 -183.1 Q158.1 -180.25 168.7 -178.75 M190.7 155.45 L190.75 155.6 M191.4 158.65 L191.4 158.85 191.6 159.95 Q185.1 164.9 175.2 164.25 L174.3 164.05 172.25 163.65 171.95 163.6 166.55 161.85 M348.85 117.6 L347.55 117.4 346.25 116.75 M326.8 183.45 L345.6 181.75 Q365.25 178.7 376.05 169.85 M361.35 113.7 Q355.1 118.45 348.85 117.6 M357.5 97.95 Q353.4 105.05 340.2 106.8 L327.25 106.8 M162.45 95.55 L162.2 97.05 M190.5 154.95 L190.7 155.45 M167.85 170.3 L176.7 172.25 179.5 172.45 Q187.7 172.25 193.1 167.9 M198.05 194.7 L197.85 194.9 Q191.4 200.1 182.1 202.25 L176.25 203.15 164.15 203.55 M274.95 158.2 Q271.75 156.9 265.05 158.2 M274.95 158.2 Q282.3 157.1 286.65 153.65 M289.45 170.1 Q284.7 174.4 278.45 175.5 L273.9 175.7 M289.45 170.4 L289.65 171.6 M69.55 210.25 L74.95 210.25 Q83.8 209.4 89.0 204.65 M75.6 221.25 L71.05 221.7 58.75 221.5 M65.9 210.05 L69.55 210.25 M75.6 221.25 Q84.65 219.75 90.3 215.65 M201.1 212.0 L200.45 212.4 Q191.6 218.9 178.4 220.4 L166.3 220.85 M-425.75 128.2 Q-428.95 130.1 -432.45 131.0 L-439.15 131.4 M-390.95 -109.4 L-391.15 -109.4 -391.4 -109.4 Q-406.5 -110.95 -421.2 -119.15 -421.65 -119.55 -422.3 -119.8 -431.35 -124.95 -440.0 -132.75 L-458.55 -153.7 M-436.1 -97.75 L-425.5 -91.05 Q-413.2 -83.95 -405.45 -82.4 L-405.2 -82.4 M-398.3 -96.9 Q-405.0 -97.55 -414.05 -102.1 L-424.0 -108.35 M-381.45 -131.45 Q-397.85 -132.1 -413.4 -140.75 L-422.05 -146.55 -426.15 -149.4 M-397.65 -96.9 Q-398.1 -97.1 -398.3 -96.9 M-456.4 -10.95 Q-442.8 -7.45 -425.75 -10.95 M-414.7 96.65 L-414.9 97.9 M-456.4 -10.95 Q-458.35 -11.35 -460.1 -12.0 L-471.55 -17.6 M-451.0 26.45 Q-438.7 27.75 -428.75 22.75 M-439.15 -99.7 L-436.1 -97.75 M-135.0 -229.5 L-126.2 -229.05 -116.65 -228.85 -100.2 -229.95 -100.05 -229.95 -99.95 -230.0 -99.15 -230.15 -93.1 -231.05 -84.45 -232.55 M-101.1 -198.0 L-89.65 -200.55 M-118.6 -196.45 L-104.35 -197.35 -101.1 -198.0 M-264.4 145.25 L-269.8 145.45 Q-275.85 145.9 -278.65 147.85 M-257.25 181.75 L-260.3 181.3 Q-265.45 181.1 -268.05 182.6 M-211.05 184.1 L-215.55 183.45 Q-220.55 183.25 -223.15 184.75 M-210.4 189.1 L-217.3 189.3 Q-223.55 189.75 -226.35 191.7 M-452.3 26.25 L-451.0 26.45 M-439.15 95.8 L-436.75 95.55 Q-422.05 92.75 -414.05 86.25 M-452.3 26.25 L-462.9 23.4 M-432.45 104.65 Q-432.2 104.4 -432.0 104.4 -422.5 102.05 -415.15 98.15 M-449.95 96.85 L-439.15 95.8 M-456.4 107.65 L-441.3 106.35 -432.45 104.65 M-417.3 120.6 Q-421.4 125.35 -425.75 128.2" fill="none" stroke="#000000" stroke-linecap="round" stroke-linejoin="round" stroke-opacity="0.4" stroke-width="1.0"/>
    <path d="M376.9 172.7 L377.65 175.45 381.6 189.0 382.3 191.35 382.9 193.2 390.55 215.45 391.4 217.6 391.4 217.8 Q399.6 236.85 409.3 246.55 L410.6 247.65 411.25 248.25 411.5 248.5 Q414.7 251.5 417.1 252.4 409.55 257.15 388.15 267.5 360.95 280.65 356.85 281.1 348.2 282.2 335.45 279.15 L334.25 278.95 334.15 278.95 Q329.2 277.65 323.8 275.7 L321.65 275.05 Q299.6 267.3 285.55 269.45 276.25 270.75 252.5 284.8 245.15 289.1 238.05 290.85 244.1 253.65 250.15 212.4 263.1 122.55 261.8 96.85 262.65 95.55 264.15 94.7 L264.4 94.7 264.8 94.5 265.25 94.05 Q266.65 93.45 268.0 93.5 L269.15 93.6 269.25 93.6 269.3 93.65 269.35 93.65 269.8 93.85 270.0 93.85 270.2 93.85 270.25 93.95 270.45 94.05 Q278.2 102.8 280.15 115.65 L281.9 122.35 282.3 124.3 282.55 125.3 282.55 125.6 282.75 126.25 282.75 126.35 282.95 127.75 283.15 129.3 283.2 129.45 283.2 129.65 283.3 130.55 283.4 131.0 283.4 131.4 Q284.7 142.85 286.65 153.65 L288.6 165.1 Q289.0 168.35 289.85 171.6 289.85 172.65 290.3 173.75 L290.75 176.15 Q292.45 184.75 294.4 192.75 295.5 197.1 296.55 200.55 L297.2 202.9 Q299.15 209.4 300.65 213.5 304.55 163.8 309.3 109.8 317.75 15.2 323.15 -13.1 L324.0 -17.6 324.2 -18.5 324.45 -19.35 324.45 -19.8 325.5 -21.5 Q327.05 -23.0 328.55 -22.15 333.3 -19.55 337.4 6.15 L338.05 10.05 338.25 10.9 338.25 11.55 357.05 96.0 361.8 114.8 362.0 116.1 362.45 117.8 365.05 127.75 365.5 129.45 Q371.3 152.35 376.05 169.85 L376.9 172.7 M304.8 -268.6 Q291.6 -284.4 282.1 -289.8 L262.25 -303.4 Q254.65 -307.7 237.8 -307.3 227.9 -307.05 201.3 -296.05 L199.35 -295.2 199.15 -295.2 Q189.45 -291.1 181.85 -288.25 L181.85 -287.85 181.65 -282.85 181.45 -281.8 180.8 -271.85 Q175.6 -193.25 170.65 -189.35 166.95 -186.55 161.35 -215.7 L161.15 -216.75 160.7 -218.95 160.25 -221.55 157.45 -237.95 Q156.0 -247.2 155.95 -252.2 L154.65 -238.15 149.9 -185.0 149.9 -183.3 149.7 -182.0 146.25 -151.35 145.8 -149.15 137.8 -107.9 136.5 -105.1 Q135.45 -103.35 134.55 -102.95 129.15 -100.15 120.95 -151.35 118.35 -167.1 115.55 -187.85 L115.15 -190.85 114.05 -200.15 113.85 -202.3 111.9 -218.3 110.6 -229.5 110.6 -229.75 109.3 -228.6 110.6 -229.5 M180.8 -287.85 Q168.7 -283.5 162.2 -282.85 150.75 -281.35 126.35 -282.85 L119.25 -283.5 104.35 -284.4 104.1 -284.4 Q86.85 -285.05 76.25 -283.3 62.65 -280.95 27.85 -265.6 L18.8 -261.5 Q-14.7 -246.15 -42.55 -249.15 -44.5 -259.95 -44.3 -265.6 -50.95 -265.8 -78.2 -264.75 L-78.4 -264.75 -78.4 -264.1 -78.4 -263.85 Q-78.2 -263.2 -79.05 -261.9 L-79.55 -260.45 -79.7 -259.55 -82.95 -241.6 -82.95 -240.95 -83.15 -240.1 -83.15 -239.45 -83.8 -236.45 -83.8 -235.8 -84.25 -232.95 -84.45 -232.55 -89.0 -205.1 -89.2 -202.95 -89.4 -202.3 -89.65 -200.55 -91.35 -190.4 -103.45 -137.05 Q-106.85 -127.15 -110.75 -119.8 L-112.95 -115.9 -116.65 -111.6 -119.0 -108.75 Q-119.25 -107.9 -119.65 -107.25 L-120.55 -105.95 -120.75 -105.95 -123.35 -104.0 -123.55 -103.8 Q-125.3 -102.75 -126.8 -102.3 -128.95 -101.85 -130.9 -102.3 -136.3 -103.35 -138.9 -110.5 -143.0 -121.3 -156.15 -206.6 L-163.1 -253.3 -166.75 -278.55 Q-135.85 -285.9 -117.3 -272.3 -103.45 -263.0 -78.6 -264.75 L-78.4 -264.75 M181.85 -288.25 L180.8 -287.85 M199.8 204.0 L200.25 207.25 201.1 212.0 206.05 240.7 208.0 251.3 Q220.95 261.25 216.85 289.75 224.45 292.1 232.0 291.7 L238.05 290.85 M282.55 124.7 L282.55 125.3 282.75 126.25 M306.3 -266.65 L304.8 -268.6 M155.95 -254.15 L155.95 -252.65 155.95 -252.2 M104.1 -283.35 L104.35 -284.4 M110.6 -229.75 L104.1 -283.3 104.1 -283.35 M175.2 62.3 L175.4 62.9 175.5 63.25 176.05 65.55 Q177.1 69.2 178.2 75.05 L178.4 76.75 178.65 78.3 179.05 81.1 Q182.1 100.3 188.35 143.75 L189.65 149.8 Q189.65 150.65 190.1 151.7 L190.7 155.45 190.95 157.1 191.4 158.65 M190.75 155.6 L190.95 157.1 M191.6 159.95 L193.1 167.9 198.05 194.7 198.05 195.35 198.35 196.65 198.5 197.3 198.5 197.45 198.7 198.65 198.7 198.8 199.15 201.4 199.2 201.6 199.25 201.9 199.8 204.0 M-165.25 235.1 Q-156.8 232.3 -151.85 232.5 L-151.65 232.5 -149.9 232.7 Q-148.4 232.95 -146.65 234.0 L-139.1 238.75 -138.9 238.75 -125.3 246.1 -124.85 246.1 -124.4 246.1 -124.2 246.1 Q-121.8 246.1 -118.35 241.8 -114.7 237.45 -111.0 237.25 -103.9 236.85 -93.55 241.6 L-68.45 253.05 Q-65.85 254.15 -63.3 255.2 L-20.1 266.0 -1.5 285.85 0.2 284.55 11.25 276.15 Q16.0 272.45 20.1 269.45 L20.1 268.35 Q20.95 249.15 22.45 229.5 22.45 227.1 22.7 224.75 L23.55 214.6 23.75 212.4 24.2 209.2 28.3 179.35 28.95 177.65 Q29.4 176.35 29.8 175.9 L30.0 175.5 30.05 175.5 Q33.9 172.45 39.75 205.05 L41.05 212.4 Q44.5 232.05 44.5 239.85 L46.65 212.4 50.75 168.35 Q54.2 135.5 57.65 116.5 L57.65 116.3 Q61.8 91.25 65.9 89.1 L66.1 89.1 67.85 89.75 68.05 89.75 69.1 91.55 69.35 92.1 70.0 93.2 70.0 93.6 M70.2 94.05 L70.65 95.35 85.3 176.15 85.75 179.15 87.5 192.35 88.8 203.15 89.0 204.65 90.05 212.4 Q90.05 213.5 90.3 214.6 L90.3 215.65 94.95 257.3 95.45 261.65 96.35 261.85 97.25 262.0 97.55 262.0 100.75 262.3 103.45 262.55 103.7 262.55 112.3 263.4 112.55 263.4 114.05 263.4 141.25 256.25 160.9 250.85 167.2 249.35 Q173.9 247.65 178.85 247.0 L181.0 246.55 Q193.3 245.05 207.6 251.1 L208.0 251.3 M147.1 207.9 Q155.5 138.35 161.55 100.95 L161.55 100.3 Q161.55 99.9 161.8 99.65 L162.2 97.05 M166.95 71.15 L167.55 68.7 167.6 68.35 168.25 65.95 168.5 65.55 169.35 62.75 170.2 60.55 Q172.6 55.8 175.2 62.3 M326.4 -246.6 L325.3 -247.0 Q320.35 -249.6 306.3 -266.65 M330.9 -244.65 L328.75 -245.5 Q327.45 -245.95 326.4 -246.6 M430.7 231.85 Q440.45 216.75 442.6 214.35 L472.4 167.5 Q502.0 120.85 503.3 -10.5 486.2 -176.15 465.05 -205.95 L443.45 -236.0 443.0 -236.2 438.25 -237.95 426.6 -241.4 425.5 -241.85 Q398.95 -248.75 371.75 -243.15 358.15 -240.55 346.9 -241.2 338.25 -241.85 330.9 -244.65 M357.5 97.95 Q357.05 96.85 357.05 96.0 M361.8 114.8 L361.35 113.7 361.35 113.25 Q359.2 105.3 357.5 97.95 M430.7 231.85 Q425.1 245.7 420.35 250.0 L418.4 251.5 M391.4 217.8 L390.55 215.45 M269.15 93.6 Q268.05 93.4 267.0 93.6 L265.25 94.05 M167.2 70.95 L167.55 68.7 M177.75 73.55 L176.05 65.55 M167.2 70.95 L166.35 74.4 165.9 76.35 162.65 94.5 M177.75 73.55 L178.2 75.05 M166.95 71.15 L166.35 74.4 M190.5 154.95 L190.1 151.7 M198.35 196.65 L198.5 197.45 M282.3 124.3 L282.55 124.7 M283.2 129.65 L283.15 129.3 M282.95 127.75 L282.75 127.1 282.75 126.35 M283.4 131.4 L283.3 130.55 M289.45 170.4 Q289.5 171.0 289.85 171.6 M288.6 165.1 Q288.8 167.5 289.45 170.1 L289.45 170.4 M69.1 91.55 L67.85 89.75 M147.1 207.9 Q146.65 210.05 146.45 212.4 L143.2 239.4 141.25 256.05 141.25 256.25 M98.05 262.1 L97.25 262.0 96.55 261.9 95.25 261.65 86.6 259.5 79.5 257.55 72.8 255.85 Q56.6 251.75 47.75 253.25 39.95 254.55 21.15 268.35 L20.1 269.45 M72.6 257.15 L72.8 255.85 M100.75 262.3 L98.05 262.1 97.55 262.0 M96.55 261.9 L96.35 261.85 95.25 261.65 94.95 257.3 M95.45 261.65 L95.25 261.65 M44.5 239.85 L44.3 243.1 M-406.1 -236.85 L-409.7 -237.45 -410.95 -237.5 -411.05 -237.5 -420.35 -236.65 -420.75 -236.45 -421.2 -236.45 -421.65 -236.2 Q-424.0 -235.8 -426.6 -234.7 L-426.8 -234.7 -429.85 -233.6 Q-445.6 -226.95 -471.1 -193.45 -496.8 -159.95 -493.55 -112.65 -481.9 -50.45 -493.55 -11.35 -504.35 89.3 -482.95 99.45 -461.6 109.8 -460.1 119.95 -458.55 129.9 -456.6 133.6 -450.35 144.6 -446.45 156.05 -443.65 164.25 -441.95 172.9 -439.55 185.0 -434.6 216.3 -418.8 219.35 -400.25 216.5 -394.2 215.65 -368.5 209.85 -362.45 225.15 -348.2 234.25 -342.15 238.1 -334.15 240.95 -330.7 254.1 -306.05 263.4 L-305.85 263.6 -297.45 266.4 Q-283.15 270.75 -263.1 274.2 -242.55 277.65 -218.35 280.05 L-189.45 282.2 -172.35 282.85 Q-147.3 283.7 -86.6 273.55 -65.65 271.4 -48.8 272.9 L-38.0 274.4 Q-22.25 277.0 -10.35 283.7 -7.15 285.65 -4.1 287.8 L-2.8 286.95 -1.5 285.85 M-316.65 234.25 Q-319.25 228.85 -322.05 227.1 -325.95 224.75 -336.3 224.3 -346.25 223.85 -350.15 220.85 -354.45 217.8 -357.05 210.25 -360.5 201.2 -362.9 198.15 -365.25 195.15 -370.65 191.25 L-370.85 191.05 -367.2 191.9 -337.6 198.4 Q-336.3 198.8 -333.3 201.4 -330.9 203.35 -327.65 203.15 -326.35 211.55 -311.25 214.6 -308.0 183.9 -299.15 124.95 L-298.5 121.25 -298.3 119.3 -287.7 58.4 -287.3 56.05 -287.05 54.5 -286.9 54.3 -286.85 54.1 Q-284.05 48.05 -278.2 71.15 -272.8 91.45 -271.75 103.35 -271.3 108.95 -264.4 145.25 L-260.95 163.6 -257.25 181.75 -257.25 182.4 -251.0 214.35 -235.65 213.5 -233.05 213.95 -233.05 213.7 Q-232.2 181.95 -227.65 164.45 -224.2 150.85 -221.85 147.85 -219.9 145.45 -217.5 149.35 -215.55 152.35 -211.05 184.1 L-211.05 185.0 -210.4 189.1 -207.35 212.4 -206.95 216.5 -196.15 218.25 Q-194.6 223.65 -190.95 229.05 -186.6 235.55 -182.1 237.05 -176.25 238.75 -165.9 235.3 L-165.25 235.1 M-370.85 191.05 Q-377.55 186.05 -389.0 179.6 -406.75 169.45 -411.05 158.0 L-411.25 157.8 -411.25 157.75 -411.5 157.15 -411.5 157.1 Q-415.8 145.45 -416.45 128.85 -416.9 116.6 -415.6 101.85 L-415.6 101.6 -415.35 100.75 -415.15 98.15 -415.15 96.65 -414.05 86.25 Q-411.9 58.65 -411.25 48.45 L-411.25 43.5 Q-425.95 43.95 -427.9 22.35 L-427.9 21.45 Q-428.35 16.3 -428.1 10.25 L-428.1 10.05 -427.9 8.75 Q-427.45 -0.55 -425.75 -10.95 -423.8 -22.15 -420.35 -34.7 -413.0 -62.75 -408.9 -74.0 -407.35 -78.3 -405.45 -82.4 L-405.45 -82.65 Q-402.4 -89.75 -398.3 -96.9 L-398.3 -97.35 Q-395.05 -102.95 -391.4 -108.55 L-390.95 -109.4 Q-388.35 -113.3 -385.35 -118.7 L-385.35 -118.95 Q-382.55 -123.9 -379.5 -130.15 -374.75 -140.1 -369.15 -153.05 -356.4 -182.45 -347.35 -195.8 -340.85 -205.35 -329.6 -209.0 L-319.45 -211.35 -308.0 -213.95 -301.55 -215.05 -296.15 -215.9 Q-289.45 -217.2 -284.9 -219.6 -282.75 -220.65 -278.65 -226.95 -277.15 -229.5 -274.95 -231.05 L-273.25 -232.1 -268.25 -232.55 -268.25 -248.75 -268.5 -248.95 -268.5 -266.0 -262.2 -266.9 -256.8 -266.9 -230.9 -266.25 -230.8 -266.25 -228.95 -266.25 -217.75 -272.5 Q-204.1 -277.9 -195.05 -272.5 L-195.05 -271.4 -194.85 -271.65 -190.95 -272.7 Q-176.25 -277.05 -166.75 -278.55 M-268.9 -266.9 Q-280.8 -266.45 -289.2 -264.95 -303.5 -262.35 -338.45 -247.45 -345.6 -244.4 -352.1 -241.85 -360.3 -239.0 -367.2 -237.1 -379.1 -233.85 -387.95 -233.4 -390.55 -233.2 -405.85 -236.85 L-406.1 -236.85 M-268.9 -266.9 L-262.2 -266.9 M-414.9 97.9 L-414.95 97.95 -415.15 98.15 M-255.55 -123.45 Q-253.35 -125.6 -250.55 -133.2 -245.6 -146.8 -243.0 -170.1 L-242.55 -175.3 -234.35 -231.9 -233.95 -234.05 -233.95 -234.5 -233.5 -237.4 -229.6 -266.0 -230.8 -266.25 M-240.85 3.1 Q-240.2 16.95 -238.25 29.7 -234.15 56.9 -225.7 54.95 L-223.15 53.65 Q-213.6 46.95 -212.1 -1.2 L-212.35 -47.85 Q-212.35 -75.95 -211.45 -106.4 -209.95 -167.55 -205.85 -179.6 -201.75 -191.7 -198.05 -233.4 L-195.05 -271.4 M-228.95 -266.25 L-229.6 -266.0 M-240.85 3.1 L-240.85 -0.55 Q-241.25 -13.95 -240.4 -28.4 -239.1 -50.0 -240.6 -110.5 L-241.05 -120.85 -241.25 -127.15 -241.75 -141.6 -243.0 -170.1 M-268.25 -232.55 Q-267.6 -195.8 -266.35 -179.6 -264.15 -153.7 -255.55 -123.45 M-121.15 -106.4 L-119.0 -108.75 M-123.35 -104.0 L-121.15 -106.4 M-275.85 215.65 L-251.0 214.35 M-287.7 57.35 L-287.05 54.5 M-315.15 237.45 Q-313.65 241.6 -311.9 247.2 -307.6 262.55 -297.45 266.4 M-233.05 213.95 L-218.35 215.25 -215.8 215.45 -206.95 216.5 M-278.2 215.65 L-275.85 215.65 M-316.2 234.9 L-316.65 234.25 M-316.2 234.9 L-315.15 237.45 M-311.25 214.6 Q-302.2 216.3 -287.95 215.85 L-278.2 215.65 M-414.9 97.9 Q-414.7 97.3 -415.15 96.65" fill="none" stroke="#000000" stroke-linecap="round" stroke-linejoin="round" stroke-opacity="0.6" stroke-width="1.0"/>
  </g>
</svg>
