<?xml version="1.0" encoding="UTF-8" standalone="no"?>
<svg xmlns:xlink="http://www.w3.org/1999/xlink" height="85.25px" width="55.35px" xmlns="http://www.w3.org/2000/svg">
  <g transform="matrix(1.0, 0.0, 0.0, 1.0, 27.65, 42.5)">
    <path d="M7.45 3.5 Q-1.8 -3.55 -2.9 -4.7 L-5.15 -7.7 -6.55 -9.9 Q-8.8 -13.95 -9.45 -14.6 L-11.1 -17.25 Q-12.2 -19.4 -12.2 -20.05 L-11.75 -22.35 -11.3 -24.8 Q-11.3 -25.5 -12.3 -27.0 L-13.3 -28.4 -7.45 -33.15 -8.35 -38.55 -6.1 -41.95 7.7 -39.7 20.35 -38.8 Q20.8 -39.1 23.45 -39.85 L26.0 -40.6 Q13.35 -28.4 12.2 -28.6 11.3 -28.8 9.85 -28.2 8.25 -27.6 7.95 -26.8 L1.85 -20.35 Q-3.9 -14.45 -4.05 -13.7 -4.25 -12.35 -1.1 -4.45 L7.45 3.5 M-12.2 -20.05 L-6.45 -21.4 -0.55 -30.2 -0.1 -34.7 -2.8 -30.9 -7.8 -27.5 -10.3 -24.8 -12.2 -20.05 M-6.45 11.15 Q-4.55 9.25 -4.05 9.1 L7.15 4.0 0.0 12.15 -2.35 28.05 -6.4 33.85 -5.05 41.95 -26.05 34.5 Q-22.0 32.5 -21.65 31.45 L-18.65 27.85 -15.9 25.0 -10.8 22.3 Q-9.45 18.25 -9.45 17.25 -9.45 16.6 -7.75 13.45 L-6.45 11.15" fill="#ffffff" fill-opacity="0.0" fill-rule="evenodd" stroke="none"/>
    <path d="M-12.2 -20.05 L-10.3 -24.8 -7.8 -27.5 -2.8 -30.9 -0.1 -34.7 -0.55 -30.2 -6.45 -21.4 -12.2 -20.05" fill="#000000" fill-opacity="0.09803922" fill-rule="evenodd" stroke="none"/>
    <path d="M-6.45 11.15 L-7.75 13.45 Q-9.45 16.6 -9.45 17.25 -9.45 18.25 -10.8 22.3 L-15.9 25.0 -18.65 27.85 -21.65 31.45 Q-22.0 32.5 -26.05 34.5 L-21.65 29.1 Q-22.0 25.35 -21.0 24.35 L-17.7 21.3 Q-15.1 18.85 -14.9 18.25 -14.7 17.65 -10.35 14.0 L-6.1 10.45 -6.45 11.15" fill="#000000" fill-opacity="0.2" fill-rule="evenodd" stroke="none"/>
    <path d="M7.45 3.5 Q-1.8 -3.55 -2.9 -4.7 L-5.15 -7.7 -6.55 -9.9 Q-8.8 -13.95 -9.45 -14.6 L-11.1 -17.25 Q-12.2 -19.4 -12.2 -20.05 L-11.75 -22.35 -11.3 -24.8 Q-11.3 -25.5 -12.3 -27.0 L-13.3 -28.4 -7.45 -33.15 -8.35 -38.55 -6.1 -41.95 7.7 -39.7 20.35 -38.8 Q20.8 -39.1 23.45 -39.85 L26.0 -40.6 Q13.35 -28.4 12.2 -28.6 11.3 -28.8 9.85 -28.2 8.25 -27.6 7.95 -26.8 L1.85 -20.35 Q-3.9 -14.45 -4.05 -13.7 -4.25 -12.35 -1.1 -4.45 L7.45 3.5 M-26.05 34.5 L-5.05 41.95 -6.4 33.85 -2.35 28.05 0.0 12.15 7.15 4.0 -4.05 9.1 Q-4.55 9.25 -6.45 11.15 L-7.75 13.45 Q-9.45 16.6 -9.45 17.25 -9.45 18.25 -10.8 22.3 L-15.9 25.0 -18.65 27.85 -21.65 31.45 Q-22.0 32.5 -26.05 34.5 L-21.65 29.1 Q-22.0 25.35 -21.0 24.35 L-17.7 21.3 Q-15.1 18.85 -14.9 18.25 -14.7 17.65 -10.35 14.0 L-6.1 10.45 -6.45 11.15" fill="none" stroke="#000000" stroke-linecap="butt" stroke-linejoin="miter-clip" stroke-miterlimit="4.0" stroke-opacity="0.6" stroke-width="1.0"/>
  </g>
</svg>
