<?xml version="1.0" encoding="UTF-8" standalone="no"?>
<svg xmlns:xlink="http://www.w3.org/1999/xlink" height="23.7px" width="130.65px" xmlns="http://www.w3.org/2000/svg">
  <g transform="matrix(1.0, 0.0, 0.0, 1.0, 71.5, -54.3)">
    <path d="M53.95 61.85 Q56.45 64.35 56.45 67.9 56.45 71.0 54.45 73.4 57.45 70.8 57.45 66.9 57.45 63.4 54.95 60.85 L53.7 59.8 52.95 59.35 Q51.15 58.35 48.9 58.35 L47.75 58.45 Q45.95 58.65 44.5 59.55 L44.1 59.8 42.4 61.35 Q43.2 60.7 44.1 60.25 L45.15 59.8 46.05 59.55 47.75 59.35 47.95 59.35 50.75 59.8 Q51.9 60.2 52.95 61.0 53.45 61.35 53.95 61.85 M54.3 58.75 L55.6 59.85 Q58.65 62.9 58.65 67.15 58.65 71.45 55.6 74.45 52.6 77.5 48.3 77.5 44.05 77.5 41.0 74.45 38.0 71.45 38.0 67.15 38.0 62.85 41.0 59.85 41.9 58.95 42.95 58.3 L43.15 58.2 43.4 58.05 Q45.4 56.95 47.75 56.85 L48.3 56.8 Q51.45 56.8 53.95 58.45 L54.2 58.65 54.3 58.75 M45.0 63.85 Q43.65 65.25 43.65 67.15 L43.7 67.65 Q43.8 69.25 45.0 70.45 46.4 71.8 48.3 71.8 50.25 71.8 51.65 70.45 53.0 69.1 53.0 67.15 53.0 65.9 52.4 64.85 L51.65 63.85 Q50.25 62.5 48.3 62.5 46.4 62.5 45.0 63.85 M-64.95 55.7 Q-63.0 54.8 -60.7 54.8 -58.2 54.8 -56.1 55.85 -54.65 56.6 -53.4 57.85 -50.35 60.9 -50.35 65.15 -50.35 69.45 -53.4 72.45 -56.4 75.5 -60.7 75.5 -64.95 75.5 -68.0 72.45 -71.0 69.45 -71.0 65.15 -71.0 60.85 -68.0 57.85 -66.6 56.45 -64.95 55.7 M-60.15 56.25 Q-62.85 56.25 -64.95 57.7 L-66.65 59.25 -64.95 58.15 Q-63.2 57.25 -61.1 57.25 -58.25 57.25 -56.1 58.9 L-55.1 59.75 Q-52.6 62.25 -52.6 65.8 -52.6 68.9 -54.6 71.3 -51.6 68.7 -51.6 64.8 -51.6 61.3 -54.1 58.75 L-56.1 57.25 Q-57.9 56.25 -60.15 56.25 M-57.35 61.85 Q-58.75 60.5 -60.7 60.5 -62.6 60.5 -64.0 61.85 L-64.95 63.25 Q-65.35 64.1 -65.35 65.15 -65.35 67.1 -64.0 68.45 -62.6 69.8 -60.7 69.8 -58.75 69.8 -57.35 68.45 -56.0 67.1 -56.0 65.15 -56.0 64.45 -56.15 63.85 -56.5 62.75 -57.35 61.85" fill="#ffffff" fill-opacity="0.0" fill-rule="evenodd" stroke="none"/>
    <path d="M53.95 61.85 Q53.45 61.35 52.95 61.0 51.9 60.2 50.75 59.8 L47.95 59.35 47.75 59.35 46.05 59.55 45.15 59.8 44.1 60.25 Q43.2 60.7 42.4 61.35 L44.1 59.8 44.5 59.55 Q45.95 58.65 47.75 58.45 L48.9 58.35 Q51.15 58.35 52.95 59.35 L53.7 59.8 54.95 60.85 Q57.45 63.4 57.45 66.9 57.45 70.8 54.45 73.4 56.45 71.0 56.45 67.9 56.45 64.35 53.95 61.85 M-60.15 56.25 Q-57.9 56.25 -56.1 57.25 L-54.1 58.75 Q-51.6 61.3 -51.6 64.8 -51.6 68.7 -54.6 71.3 -52.6 68.9 -52.6 65.8 -52.6 62.25 -55.1 59.75 L-56.1 58.9 Q-58.25 57.25 -61.1 57.25 -63.2 57.25 -64.95 58.15 L-66.65 59.25 -64.95 57.7 Q-62.85 56.25 -60.15 56.25" fill="#e0e0e0" fill-opacity="0.5019608" fill-rule="evenodd" stroke="none"/>
    <path d="M45.0 63.85 Q46.4 62.5 48.3 62.5 50.25 62.5 51.65 63.85 L52.4 64.85 Q53.0 65.9 53.0 67.15 53.0 69.1 51.65 70.45 50.25 71.8 48.3 71.8 46.4 71.8 45.0 70.45 43.8 69.25 43.7 67.65 L43.65 67.15 Q43.65 65.25 45.0 63.85 M-57.35 61.85 Q-56.5 62.75 -56.15 63.85 -56.0 64.45 -56.0 65.15 -56.0 67.1 -57.35 68.45 -58.75 69.8 -60.7 69.8 -62.6 69.8 -64.0 68.45 -65.35 67.1 -65.35 65.15 -65.35 64.1 -64.95 63.25 L-64.0 61.85 Q-62.6 60.5 -60.7 60.5 -58.75 60.5 -57.35 61.85" fill="#ffffff" fill-opacity="0.3019608" fill-rule="evenodd" stroke="none"/>
    <path d="M54.3 58.75 L55.6 59.85 Q58.65 62.9 58.65 67.15 58.65 71.45 55.6 74.45 52.6 77.5 48.3 77.5 44.05 77.5 41.0 74.45 38.0 71.45 38.0 67.15 38.0 62.85 41.0 59.85 41.9 58.95 42.95 58.3 M-56.1 55.85 Q-54.65 56.6 -53.4 57.85 -50.35 60.9 -50.35 65.15 -50.35 69.45 -53.4 72.45 -56.4 75.5 -60.7 75.5 -64.95 75.5 -68.0 72.45 -71.0 69.45 -71.0 65.15 -71.0 60.85 -68.0 57.85 -66.6 56.45 -64.95 55.7" fill="none" stroke="#231f20" stroke-linecap="round" stroke-linejoin="round" stroke-width="1.0"/>
    <path d="M42.95 58.3 L43.15 58.2 43.4 58.05 Q45.4 56.95 47.75 56.85 L48.3 56.8 Q51.45 56.8 53.95 58.45 L54.2 58.65 54.3 58.75 M-64.95 55.7 Q-63.0 54.8 -60.7 54.8 -58.2 54.8 -56.1 55.85" fill="none" stroke="#000000" stroke-linecap="round" stroke-linejoin="round" stroke-opacity="0.6" stroke-width="1.0"/>
    <path d="M45.0 63.85 Q46.4 62.5 48.3 62.5 50.25 62.5 51.65 63.85 L52.4 64.85 Q53.0 65.9 53.0 67.15 53.0 69.1 51.65 70.45 50.25 71.8 48.3 71.8 46.4 71.8 45.0 70.45 43.8 69.25 43.7 67.65 L43.65 67.15 Q43.65 65.25 45.0 63.85 M-57.35 61.85 Q-56.5 62.75 -56.15 63.85 -56.0 64.45 -56.0 65.15 -56.0 67.1 -57.35 68.45 -58.75 69.8 -60.7 69.8 -62.6 69.8 -64.0 68.45 -65.35 67.1 -65.35 65.15 -65.35 64.1 -64.95 63.25 L-64.0 61.85 Q-62.6 60.5 -60.7 60.5 -58.75 60.5 -57.35 61.85" fill="none" stroke="#000000" stroke-linecap="round" stroke-linejoin="round" stroke-opacity="0.3019608" stroke-width="1.0"/>
  </g>
</svg>
