<?xml version="1.0" encoding="UTF-8" standalone="no"?>
<svg xmlns:xlink="http://www.w3.org/1999/xlink" height="176.8px" width="564.2px" xmlns="http://www.w3.org/2000/svg">
  <g transform="matrix(1.0, 0.0, 0.0, 1.0, 282.1, 108.5)">
    <path d="M32.35 -82.25 L34.15 -81.7 35.75 -81.1 32.35 -82.25" fill="#a3a3a3" fill-rule="evenodd" stroke="none"/>
    <path d="M34.15 -81.7 L35.85 -81.1 35.75 -81.1 34.15 -81.7 M250.85 27.65 L249.9 25.0 250.65 26.95 250.85 27.65" fill="#ffffff" fill-rule="evenodd" stroke="none"/>
    <path d="M46.35 -76.8 L46.6 -76.7 47.4 -76.3 46.35 -76.8 M-190.55 -65.8 L-189.95 -65.7 -190.7 -65.8 -190.55 -65.8" fill="#757575" fill-rule="evenodd" stroke="none"/>
    <path d="M-21.35 38.8 L-20.8 38.85 -22.05 38.8 -21.35 38.8" fill="#c5c5c5" fill-rule="evenodd" stroke="none"/>
    <path d="M-217.4 -95.2 L-224.7 -94.75 Q-231.85 -94.65 -230.9 -96.2 -229.95 -97.75 -214.6 -100.65 L-196.15 -103.95 -191.9 -104.7 -163.65 -106.5 Q-137.05 -107.6 -107.2 -107.9 -24.75 -108.75 10.1 -103.2 L21.6 -99.65 23.5 -99.0 21.85 -99.55 19.6 -98.2 22.5 -96.45 Q26.25 -94.45 30.6 -93.2 40.95 -90.25 71.25 -75.2 98.9 -61.45 114.65 -50.2 120.45 -46.0 124.6 -42.2 L124.75 -41.85 Q125.0 -41.45 125.75 -41.5 127.4 -41.6 130.85 -43.8 L133.6 -45.7 136.75 -45.3 150.25 -43.6 188.6 -37.9 Q209.8 -34.35 225.25 -30.9 252.1 -24.95 261.6 -19.2 L265.35 -16.45 Q269.35 -12.95 270.6 -9.2 L274.6 10.3 281.6 17.3 280.85 41.7 234.05 41.3 Q231.25 23.55 221.1 14.8 213.85 8.55 203.6 4.05 192.25 -0.95 180.6 -2.2 151.5 -5.3 132.6 15.3 131.55 16.7 130.05 19.2 127.05 24.3 124.85 30.1 122.95 35.15 121.85 40.2 L114.1 40.15 116.1 -20.2 Q116.35 -22.55 115.75 -25.95 114.7 -31.6 111.45 -36.05 114.7 -31.6 115.75 -25.95 116.35 -22.55 116.1 -20.2 L114.1 40.15 -20.8 38.85 -21.35 38.8 -23.9 -15.2 -28.25 -45.25 Q67.1 -36.15 99.05 -36.9 67.1 -36.15 -28.25 -45.25 L-23.9 -15.2 -21.35 38.8 -22.05 38.8 -108.8 37.95 -120.4 37.85 -121.15 35.45 Q-130.65 5.2 -156.9 -1.7 -172.45 -5.75 -187.0 -3.3 -201.2 -0.85 -212.1 7.45 -222.85 15.6 -228.5 28.1 L-230.4 27.8 -248.35 26.25 -263.55 24.0 -270.1 22.6 -278.4 20.3 -280.9 19.3 -280.3 16.65 -280.45 17.25 Q-274.95 12.1 -263.9 5.05 L-259.15 2.1 Q-251.8 -2.35 -245.75 -5.55 L-270.9 -9.7 -271.5 -32.0 -270.9 -31.7 -244.4 -30.2 Q-248.65 -35.95 -251.2 -43.3 -256.35 -58.05 -247.9 -66.2 L-207.9 -94.2 -217.4 -95.2 M-211.9 -69.8 Q-212.15 -66.7 -207.9 -64.7 L-163.85 -59.55 -147.0 -57.65 -147.9 -56.0 Q-149.65 -52.6 -150.7 -49.15 -154.1 -38.0 -149.4 -30.2 -118.8 20.8 -108.8 37.95 -118.8 20.8 -149.4 -30.2 -154.1 -38.0 -150.7 -49.15 -149.65 -52.6 -147.9 -56.0 L-147.0 -57.65 -163.85 -59.55 -207.9 -64.7 Q-212.15 -66.7 -211.9 -69.8 L-211.85 -69.75 Q-211.4 -76.0 -193.85 -86.2 L-190.35 -88.2 -179.95 -93.55 -176.4 -95.2 -130.4 -98.15 Q-83.65 -98.7 -39.35 -95.95 L-37.85 -95.85 -36.55 -95.75 -35.25 -95.65 Q1.85 -92.55 25.6 -88.2 53.75 -76.9 87.05 -60.0 L90.45 -58.0 92.45 -56.65 97.85 -52.6 98.1 -53.95 98.2 -54.2 97.55 -54.75 Q91.0 -60.15 81.85 -65.55 72.1 -71.35 59.45 -77.05 44.25 -83.9 24.9 -90.7 1.15 -95.05 -35.95 -98.15 -110.2 -104.25 -177.1 -97.7 -187.35 -93.1 -196.85 -87.35 -215.65 -75.9 -211.9 -69.8 M111.45 -36.05 Q111.35 -40.9 109.35 -45.65 L108.1 -48.25 Q106.55 -51.2 104.4 -53.75 L102.6 -55.7 Q101.05 -56.6 100.0 -56.3 L99.55 -56.15 Q98.65 -55.7 98.2 -54.2 98.65 -55.7 99.55 -56.15 L100.0 -56.3 Q101.05 -56.6 102.6 -55.7 L104.4 -53.75 Q106.55 -51.2 108.1 -48.25 L109.35 -45.65 Q111.35 -40.9 111.45 -36.05 111.5 -32.65 110.6 -29.2 106.6 -26.2 101.6 -25.2 100.05 -31.2 99.05 -36.9 100.05 -31.2 101.6 -25.2 106.6 -26.2 110.6 -29.2 111.5 -32.65 111.45 -36.05 M222.4 -17.8 L207.35 -20.5 166.6 -27.7 Q152.25 -30.2 143.5 -36.95 140.75 -39.05 138.9 -41.35 L136.75 -45.3 138.9 -41.35 Q140.75 -39.05 143.5 -36.95 152.25 -30.2 166.6 -27.7 L207.35 -20.5 222.4 -17.8 M47.4 -76.3 L46.6 -76.7 46.35 -76.8 35.85 -81.1 34.15 -81.7 32.35 -82.25 26.05 -84.2 23.05 -85.15 22.85 -85.2 20.85 -85.65 20.45 -85.75 20.2 -85.85 19.9 -85.9 19.1 -86.1 18.8 -86.15 18.45 -86.25 16.75 -86.6 16.05 -86.75 13.6 -87.2 -14.4 -90.95 -29.9 -92.55 -25.15 -71.95 Q-20.0 -50.55 -17.9 -46.35 L92.25 -40.35 Q90.9 -45.65 84.75 -52.7 L78.95 -58.55 Q68.5 -67.75 52.4 -74.25 L48.75 -75.7 47.4 -76.3 M9.6 -26.55 Q9.6 -29.55 6.6 -29.55 L-12.75 -29.55 Q-15.75 -29.55 -15.75 -26.55 -15.75 -23.55 -12.75 -23.55 L6.6 -23.55 Q9.6 -23.55 9.6 -26.55 9.6 -23.55 6.6 -23.55 L-12.75 -23.55 Q-15.75 -23.55 -15.75 -26.55 -15.75 -29.55 -12.75 -29.55 L6.6 -29.55 Q9.6 -29.55 9.6 -26.55 M97.85 -52.6 Q97.35 -49.2 98.15 -42.7 L99.05 -36.9 98.15 -42.7 Q97.35 -49.2 97.85 -52.6 M265.45 34.65 L269.1 34.3 Q267.85 23.35 265.35 18.5 264.55 16.95 263.75 16.25 L263.1 15.8 244.1 13.8 244.2 13.9 Q245.75 15.5 247.6 19.4 L247.7 19.55 247.5 19.5 247.6 19.75 249.9 25.0 250.85 27.65 253.6 35.8 265.45 34.65 M-190.55 -65.8 L-190.7 -65.8 -189.95 -65.7 -154.4 -61.7 -139.4 -93.85 -139.3 -94.05 -139.3 -94.15 Q-138.75 -96.05 -141.1 -95.85 L-175.25 -93.35 -199.6 -76.2 Q-204.6 -72.65 -203.6 -69.5 -203.1 -67.9 -201.6 -67.05 L-190.55 -65.8 M-128.65 -77.8 Q-135.35 -59.75 -134.4 -58.7 L-44.9 -49.05 Q-42.9 -49.35 -42.6 -50.05 L-42.25 -50.7 -44.4 -93.85 -46.1 -94.55 Q-82.3 -96.45 -120.1 -96.55 L-121.75 -95.7 -128.65 -77.8 M-130.4 -98.15 L-146.4 -58.7 -147.0 -57.65 -146.4 -58.7 -130.4 -98.15 M-142.1 -42.55 Q-145.1 -42.55 -145.1 -39.55 -145.1 -36.55 -142.1 -36.55 L-122.75 -36.55 Q-119.75 -36.55 -119.75 -39.55 -119.75 -42.55 -122.75 -42.55 L-142.1 -42.55 -122.75 -42.55 Q-119.75 -42.55 -119.75 -39.55 -119.75 -36.55 -122.75 -36.55 L-142.1 -36.55 Q-145.1 -36.55 -145.1 -39.55 -145.1 -42.55 -142.1 -42.55 M-147.0 -57.65 L-63.9 -48.75 -28.25 -45.25 -37.85 -95.85 -28.25 -45.25 -63.9 -48.75 -147.0 -57.65" fill="#ffffff" fill-opacity="0.0" fill-rule="evenodd" stroke="none"/>
    <path d="M-270.9 -9.7 L-245.75 -5.55 Q-251.8 -2.35 -259.15 2.1 L-263.9 5.05 Q-274.95 12.1 -280.45 17.25 L-280.3 16.65 -278.85 10.25 Q-276.35 -0.3 -274.0 -5.3 L-270.9 -9.7 M-280.9 19.3 L-278.4 20.3 -270.1 22.6 -263.55 24.0 -248.35 26.25 -230.4 27.8 -228.5 28.1 -229.9 31.45 -232.35 39.6 Q-234.45 48.85 -233.9 59.3 L-270.4 43.8 Q-274.0 41.2 -277.15 36.8 -283.4 28.05 -280.9 19.3 M-120.4 37.85 L-108.8 37.95 -22.05 38.8 -20.8 38.85 114.1 40.15 121.85 40.2 Q118.85 53.85 121.6 67.75 L121.6 67.8 -116.9 64.3 -116.85 63.55 -119.55 41.2 -120.4 37.85 M-211.9 -69.8 Q-215.65 -75.9 -196.85 -87.35 -187.35 -93.1 -177.1 -97.7 -110.2 -104.25 -35.95 -98.15 1.15 -95.05 24.9 -90.7 44.25 -83.9 59.45 -77.05 72.1 -71.35 81.85 -65.55 91.0 -60.15 97.55 -54.75 L98.2 -54.2 98.1 -53.95 97.85 -52.6 92.45 -56.65 90.45 -58.0 87.05 -60.0 Q53.75 -76.9 25.6 -88.2 1.85 -92.55 -35.25 -95.65 L-36.55 -95.75 -37.85 -95.85 -39.35 -95.95 Q-83.65 -98.7 -130.4 -98.15 L-176.4 -95.2 -179.95 -93.55 -190.35 -88.2 -193.85 -86.2 Q-211.4 -76.0 -211.85 -69.75 L-211.9 -69.8 M234.05 41.3 L280.85 41.7 280.6 50.8 Q278.25 53.45 271.3 56.45 257.45 62.45 234.7 64.3 L234.6 64.3 235.15 57.55 Q235.3 51.8 234.6 45.35 L234.45 44.15 234.05 41.3 M247.7 19.55 L247.6 19.4 Q245.75 15.5 244.2 13.9 L244.1 13.8 263.1 15.8 263.75 16.25 Q264.55 16.95 265.35 18.5 267.85 23.35 269.1 34.3 L265.45 34.65 Q264.15 26.5 262.0 22.85 L260.1 20.8 247.7 19.55" fill="#000000" fill-opacity="0.101960786" fill-rule="evenodd" stroke="none"/>
    <path d="M265.45 34.65 L253.6 35.8 250.85 27.65 250.65 26.95 249.9 25.0 247.6 19.75 247.5 19.5 247.7 19.55 260.1 20.8 262.0 22.85 Q264.15 26.5 265.45 34.65" fill="#000000" fill-opacity="0.2" fill-rule="evenodd" stroke="none"/>
    <path d="M-228.5 28.1 Q-222.85 15.6 -212.1 7.45 -201.2 -0.85 -187.0 -3.3 -172.45 -5.75 -156.9 -1.7 -130.65 5.2 -121.15 35.45 L-120.4 37.85 -120.45 37.85 -119.55 41.2 -116.85 63.55 -116.9 64.3 -233.9 59.3 Q-234.45 48.85 -232.35 39.6 L-229.9 31.45 -228.5 28.1 M121.85 40.2 Q122.95 35.15 124.85 30.1 127.05 24.3 130.05 19.2 131.55 16.7 132.6 15.3 151.5 -5.3 180.6 -2.2 192.25 -0.95 203.6 4.05 213.85 8.55 221.1 14.8 231.25 23.55 234.05 41.3 L234.45 44.15 234.6 45.35 Q235.3 51.8 235.15 57.55 L234.6 64.3 121.6 67.75 Q118.85 53.85 121.85 40.2" fill="#000000" fill-opacity="0.8" fill-rule="evenodd" stroke="none"/>
    <path d="M19.6 -98.2 L21.85 -99.55 23.5 -99.0 21.6 -99.65 10.1 -103.2 Q-24.75 -108.75 -107.2 -107.9 -137.05 -107.6 -163.65 -106.5 L-191.9 -104.7 -196.15 -103.95 -214.6 -100.65 Q-229.95 -97.75 -230.9 -96.2 -231.85 -94.65 -224.7 -94.75 L-217.4 -95.2 Q-250.5 -81.75 -264.5 -63.15 -271.5 -53.8 -271.9 -47.2 L-271.5 -32.0 -270.9 -9.7 -274.0 -5.3 Q-276.35 -0.3 -278.85 10.25 L-280.3 16.65 -280.9 19.3 Q-283.4 28.05 -277.15 36.8 -274.0 41.2 -270.4 43.8 L-233.9 59.3 -116.9 64.3 121.6 67.8 121.6 67.75 Q118.85 53.85 121.85 40.2 122.95 35.15 124.85 30.1 127.05 24.3 130.05 19.2 131.55 16.7 132.6 15.3 151.5 -5.3 180.6 -2.2 192.25 -0.95 203.6 4.05 213.85 8.55 221.1 14.8 231.25 23.55 234.05 41.3 L234.45 44.15 234.6 45.35 Q235.3 51.8 235.15 57.55 L234.6 64.3 121.6 67.75 M-270.9 -31.7 L-271.5 -32.0 M-280.45 17.25 L-280.3 16.65 M-230.4 27.8 L-228.5 28.1 Q-222.85 15.6 -212.1 7.45 -201.2 -0.85 -187.0 -3.3 -172.45 -5.75 -156.9 -1.7 -130.65 5.2 -121.15 35.45 L-120.4 37.85 -119.55 41.2 -116.85 63.55 -116.9 64.3 M280.85 41.7 L281.6 17.3 274.6 10.3 270.6 -9.2 Q269.35 -12.95 265.35 -16.45 L261.6 -19.2 Q252.1 -24.95 225.25 -30.9 209.8 -34.35 188.6 -37.9 L150.25 -43.6 136.75 -45.3 133.6 -45.7 132.5 -46.45 131.95 -46.8 56.9 -86.6 48.2 -90.05 23.5 -99.0 M234.6 64.3 L234.7 64.3 Q257.45 62.45 271.3 56.45 278.25 53.45 280.6 50.8 L280.85 41.7 M-119.55 41.2 L-120.45 37.85 -120.4 37.85 M-228.5 28.1 L-229.9 31.45 -232.35 39.6 Q-234.45 48.85 -233.9 59.3" fill="none" stroke="#000000" stroke-linecap="round" stroke-linejoin="round" stroke-width="1.0"/>
    <path d="M-280.9 19.3 L-278.4 20.3 -270.1 22.6 -263.55 24.0 -248.35 26.25 -230.4 27.8 M-120.4 37.85 L-108.8 37.95 Q-118.8 20.8 -149.4 -30.2 -154.1 -38.0 -150.7 -49.15 -149.65 -52.6 -147.9 -56.0 L-147.0 -57.65 -163.85 -59.55 -207.9 -64.7 Q-212.15 -66.7 -211.9 -69.8 L-211.85 -69.75 Q-211.4 -76.0 -193.85 -86.2 L-190.35 -88.2 -179.95 -93.55 -176.4 -95.2 -130.4 -98.15 Q-83.65 -98.7 -39.35 -95.95 L-37.85 -95.85 -36.55 -95.75 -35.25 -95.65 Q1.85 -92.55 25.6 -88.2 53.75 -76.9 87.05 -60.0 L90.45 -58.0 92.45 -56.65 97.85 -52.6 M111.45 -36.05 Q114.7 -31.6 115.75 -25.95 116.35 -22.55 116.1 -20.2 L114.1 40.15 121.85 40.2 M234.05 41.3 L280.85 41.7 M136.75 -45.3 L138.9 -41.35 Q140.75 -39.05 143.5 -36.95 152.25 -30.2 166.6 -27.7 L207.35 -20.5 222.4 -17.8 M133.6 -45.7 L130.85 -43.8 Q127.4 -41.6 125.75 -41.5 125.0 -41.45 124.75 -41.85 L124.6 -42.2 Q120.45 -46.0 114.65 -50.2 98.9 -61.45 71.25 -75.2 40.95 -90.25 30.6 -93.2 26.25 -94.45 22.5 -96.45 L19.6 -98.2 M99.05 -36.9 Q67.1 -36.15 -28.25 -45.25 L-23.9 -15.2 -21.35 38.8 M-20.8 38.85 L114.1 40.15 M247.7 19.55 L247.6 19.4 Q245.75 15.5 244.2 13.9 L244.1 13.8 263.1 15.8 263.75 16.25 Q264.55 16.95 265.35 18.5 267.85 23.35 269.1 34.3 L265.45 34.65 253.6 35.8 250.85 27.65 249.9 25.0 247.6 19.75 247.5 19.5 247.7 19.55 260.1 20.8 262.0 22.85 Q264.15 26.5 265.45 34.65 M-147.0 -57.65 L-146.4 -58.7 -130.4 -98.15 M-37.85 -95.85 L-28.25 -45.25 -63.9 -48.75 -147.0 -57.65 M-22.05 38.8 L-20.8 38.85 M-108.8 37.95 L-22.05 38.8" fill="none" stroke="#000000" stroke-linecap="round" stroke-linejoin="round" stroke-opacity="0.4" stroke-width="1.0"/>
    <path d="M98.2 -54.2 Q98.65 -55.7 99.55 -56.15 L100.0 -56.3 Q101.05 -56.6 102.6 -55.7 L104.4 -53.75 Q106.55 -51.2 108.1 -48.25 L109.35 -45.65 Q111.35 -40.9 111.45 -36.05 111.5 -32.65 110.6 -29.2 106.6 -26.2 101.6 -25.2 100.05 -31.2 99.05 -36.9 L98.15 -42.7 Q97.35 -49.2 97.85 -52.6 L98.1 -53.95 98.2 -54.2 M9.6 -26.55 Q9.6 -23.55 6.6 -23.55 L-12.75 -23.55 Q-15.75 -23.55 -15.75 -26.55 -15.75 -29.55 -12.75 -29.55 L6.6 -29.55 Q9.6 -29.55 9.6 -26.55 M-142.1 -42.55 L-122.75 -42.55 Q-119.75 -42.55 -119.75 -39.55 -119.75 -36.55 -122.75 -36.55 L-142.1 -36.55 Q-145.1 -36.55 -145.1 -39.55 -145.1 -42.55 -142.1 -42.55" fill="none" stroke="#000000" stroke-linecap="round" stroke-linejoin="round" stroke-opacity="0.6" stroke-width="1.0"/>
  </g>
</svg>
