<?xml version="1.0" encoding="UTF-8" standalone="no"?>
<svg xmlns:xlink="http://www.w3.org/1999/xlink" height="72.55px" width="354.0px" xmlns="http://www.w3.org/2000/svg">
  <g transform="matrix(1.0, 0.0, 0.0, 1.0, 212.85, 94.2)">
    <path d="M-11.55 -31.55 L-11.9 -31.6 -15.25 -33.75 -15.55 -34.55 -17.4 -86.45 -16.55 -88.6 Q-15.45 -90.75 -14.3 -90.75 L25.4 -87.2 Q65.3 -48.2 66.15 -37.65 66.75 -30.7 27.35 -30.45 15.1 -30.35 0.2 -31.0 L-11.55 -31.55 M-193.8 -51.95 L-194.45 -51.95 -194.45 -51.9 Q-201.35 -56.1 -207.4 -72.8 -209.4 -78.25 -211.1 -84.45 L-212.35 -89.55 Q-212.3 -91.5 -208.85 -92.4 L-202.15 -93.25 -129.5 -93.7 Q-135.5 -59.05 -142.2 -54.9 -148.15 -51.3 -193.8 -51.95 M-121.5 -43.2 L-123.35 -93.25 -34.4 -91.85 -38.35 -70.6 Q-43.25 -48.75 -48.3 -45.65 -56.3 -40.7 -121.5 -43.2" fill="#ffffff" fill-opacity="0.0" fill-rule="evenodd" stroke="none"/>
    <path d="M140.65 -30.0 Q137.7 -26.9 134.45 -24.85 131.55 -23.1 128.4 -22.15 122.85 -25.25 48.1 -86.45 L53.65 -90.15 93.3 -63.2 Q133.9 -35.25 138.95 -30.2 L140.65 -30.05 140.65 -30.0 M25.4 -87.2 L27.1 -87.05 32.05 -85.1 Q38.55 -81.85 46.25 -75.3 52.45 -70.05 81.55 -46.5 L87.4 -41.55 87.4 -25.65 -9.35 -30.85 -9.65 -30.8 -9.75 -30.8 -10.2 -30.8 -11.55 -31.35 -11.55 -31.55 0.2 -31.0 Q15.1 -30.35 27.35 -30.45 66.75 -30.7 66.15 -37.65 65.3 -48.2 25.4 -87.2 M-193.8 -51.55 L-193.8 -51.95 Q-148.15 -51.3 -142.2 -54.9 -135.5 -59.05 -129.5 -93.7 L-128.45 -93.7 -126.15 -43.65 -155.6 -45.35 Q-186.55 -47.75 -193.8 -51.55 M-121.5 -43.2 Q-56.3 -40.7 -48.3 -45.65 -43.25 -48.75 -38.35 -70.6 L-34.4 -91.85 -33.0 -36.25 -121.5 -43.2" fill="#000000" fill-opacity="0.14901961" fill-rule="evenodd" stroke="none"/>
    <path d="M140.65 -30.05 L138.95 -30.2 Q133.9 -35.25 93.3 -63.2 L53.65 -90.15" fill="none" stroke="#000000" stroke-linecap="round" stroke-linejoin="round" stroke-width="1.0"/>
    <path d="M53.65 -90.15 L48.1 -86.45 Q122.85 -25.25 128.4 -22.15 131.55 -23.1 134.45 -24.85 137.7 -26.9 140.65 -30.0 M25.4 -87.2 L27.1 -87.05 32.05 -85.1 Q38.55 -81.85 46.25 -75.3 52.45 -70.05 81.55 -46.5 L87.4 -41.55 87.4 -25.65 -9.35 -30.85 -9.65 -30.8 -9.75 -30.8 M-11.9 -31.6 L-15.25 -33.75 -15.55 -34.55 -17.4 -86.45 -16.55 -88.6 Q-15.45 -90.75 -14.3 -90.75 L25.4 -87.2 M-194.45 -51.9 Q-201.35 -56.1 -207.4 -72.8 -209.4 -78.25 -211.1 -84.45 L-212.35 -89.55 Q-212.3 -91.5 -208.85 -92.4 L-202.15 -93.25 -129.5 -93.7 -128.45 -93.7 -126.15 -43.65 -155.6 -45.35 Q-186.55 -47.75 -193.8 -51.55 M-34.4 -91.85 L-123.35 -93.25 -121.5 -43.2 -33.0 -36.25 -34.4 -91.85" fill="none" stroke="#000000" stroke-linecap="round" stroke-linejoin="round" stroke-opacity="0.6" stroke-width="1.0"/>
  </g>
</svg>
