<?xml version="1.0" encoding="UTF-8" standalone="no"?>
<svg xmlns:xlink="http://www.w3.org/1999/xlink" height="140.8px" width="204.1px" xmlns="http://www.w3.org/2000/svg">
  <g transform="matrix(1.0, 0.0, 0.0, 1.0, 102.0, 70.5)">
    <path d="M-71.95 -41.35 L-72.0 -41.85 -71.85 -40.7 -71.95 -41.35" fill="#c7c7c7" fill-rule="evenodd" stroke="none"/>
    <path d="M-16.0 -46.15 L-15.9 -46.15 -15.8 -46.1 -16.0 -46.15" fill="#737373" fill-rule="evenodd" stroke="none"/>
    <path d="M16.9 -38.15 L17.15 -38.2 17.0 -38.15 16.9 -38.15 M-5.1 -38.5 L-3.95 -38.5 -5.1 -38.5" fill="#fdfdfd" fill-rule="evenodd" stroke="none"/>
    <path d="M67.55 -36.95 L68.2 -36.95 68.85 -36.9 68.35 -36.9 67.55 -36.95 M-82.35 -11.1 L-83.0 -11.25 -83.9 -11.35 -82.35 -11.1" fill="#eeeeee" fill-rule="evenodd" stroke="none"/>
    <path d="M63.65 -37.0 L67.55 -36.95 68.35 -36.9 68.85 -36.9 75.25 -36.85 78.25 -36.5 78.3 -36.5 Q82.0 -35.9 85.3 -34.7 88.5 -33.55 91.0 -32.05 92.95 -30.85 94.5 -29.4 97.45 -26.6 98.75 -22.85 L100.55 11.1 Q102.2 47.95 101.25 62.65 L101.0 65.4 Q100.0 68.4 96.25 69.65 L-89.25 69.65 Q-100.2 70.7 -101.0 65.3 -101.75 45.8 -101.35 23.85 -100.6 -20.05 -96.25 -27.85 L-96.1 -28.0 -92.75 -31.1 -89.25 -33.7 Q-85.75 -36.1 -81.45 -38.2 -76.8 -40.5 -72.0 -41.85 L-71.95 -41.35 Q-76.65 -40.0 -81.25 -37.75 -87.1 -34.9 -92.1 -30.9 L-95.9 -27.5 -79.95 -30.1 Q-62.6 -32.15 -55.4 -29.45 L-56.3 -20.4 Q-57.25 -9.2 -57.55 1.6 -58.45 36.05 -52.25 53.15 -52.65 42.15 -52.25 29.6 -51.35 4.55 -47.15 -3.1 -38.55 -26.65 -38.75 -38.35 L-42.55 -41.3 -48.25 -42.55 -48.25 -43.15 -45.75 -42.7 -42.7 -41.95 -42.25 -41.85 -38.75 -39.15 -37.75 -38.35 -15.25 -38.05 -15.15 -38.05 -15.05 -38.1 -14.8 -38.15 -0.5 -38.2 16.9 -38.15 17.0 -38.15 45.7 -37.2 60.85 -36.5 62.55 -36.45 63.1 -36.65 63.35 -36.7 63.75 -36.85 63.65 -37.0 M100.5 64.3 L48.75 65.7 42.95 65.85 6.9 66.4 -1.3 66.45 -34.35 65.35 Q-42.65 63.6 -47.25 56.85 -48.7 54.75 -49.65 52.4 L-50.25 50.45 -50.25 62.2 Q-51.9 65.35 -99.7 65.05 -99.35 68.9 -93.85 69.45 L-88.65 69.3 95.6 69.3 Q99.75 67.9 100.5 64.3 M92.3 57.95 Q93.7 56.6 93.65 54.6 93.65 52.65 92.25 51.25 90.9 49.85 88.9 49.85 L77.9 49.9 Q75.95 49.9 74.55 51.3 73.15 52.7 73.15 54.7 73.2 56.65 74.6 58.05 75.95 59.4 77.95 59.4 L88.95 59.35 Q90.9 59.35 92.3 57.95 M-82.35 -11.1 L-83.9 -11.35 -84.0 -11.35 Q-85.95 -11.35 -87.35 -9.95 -88.75 -8.6 -88.75 -6.6 L-88.75 4.4 -88.75 4.55 -88.75 4.6 Q-88.7 6.4 -87.4 7.7 L-87.35 7.75 Q-85.95 9.15 -84.0 9.15 -82.0 9.15 -80.65 7.75 -79.25 6.35 -79.25 4.4 L-79.25 -6.6 Q-79.25 -8.3 -80.25 -9.5 L-80.3 -9.55 -80.35 -9.6 -80.45 -9.75 -80.55 -9.85 -80.65 -10.0 -80.7 -10.05 -80.75 -10.1 -82.35 -11.1 M-50.75 57.65 Q-51.35 46.65 -51.1 33.4 -50.6 6.9 -46.25 -4.35 -41.85 -15.6 -39.35 -28.1 L-37.75 -38.35 -39.35 -28.1 Q-41.85 -15.6 -46.25 -4.35 -50.6 6.9 -51.1 33.4 -51.35 46.65 -50.75 57.65" fill="#ffffff" fill-opacity="0.0" fill-rule="evenodd" stroke="none"/>
    <path d="M4.95 -57.05 Q5.6 -55.75 6.95 -55.0 8.65 -54.05 11.55 -53.95 L12.35 -53.95 12.45 -53.95 30.85 -54.0 30.95 -54.0 31.75 -54.0 Q33.8 -54.1 35.3 -54.65 37.75 -55.6 38.6 -57.75 L38.75 -58.8 Q38.75 -60.75 36.45 -62.1 34.1 -63.5 30.8 -63.5 L12.4 -63.45 Q9.1 -63.4 6.8 -62.0 4.5 -60.65 4.5 -58.65 4.5 -57.8 4.95 -57.05 M17.7 -68.75 L5.1 -67.35 Q25.75 -69.2 41.25 -66.05 32.1 -69.45 17.7 -68.75 M-15.25 -38.85 L-14.25 -40.45 -8.9 -49.0 -6.8 -52.3 Q2.05 -66.15 4.25 -68.35 L16.9 -69.85 Q31.65 -70.6 42.25 -66.85 L63.65 -37.0 63.75 -36.85 63.35 -36.7 63.1 -36.65 62.55 -36.45 60.85 -36.5 63.3 -36.8 42.1 -66.35 45.2 -42.85 Q45.8 -38.65 45.7 -37.2 L17.0 -38.15 17.15 -38.2 16.9 -38.15 -0.5 -38.2 4.5 -67.9 Q1.35 -64.2 -7.85 -49.65 L-12.95 -41.5 -15.1 -38.2 -15.25 -38.85 M-72.25 -43.35 Q-65.35 -47.7 -56.1 -47.2 -51.5 -46.95 -48.25 -45.85 -50.55 -44.6 -52.95 -43.75 -58.7 -41.75 -64.95 -42.05 L-69.25 -42.55 -70.25 -42.8 -72.25 -43.35 M100.5 64.3 Q99.75 67.9 95.6 69.3 L-88.65 69.3 -93.85 69.45 Q-99.35 68.9 -99.7 65.05 -51.9 65.35 -50.25 62.2 L-50.25 50.45 -49.65 52.4 Q-48.7 54.75 -47.25 56.85 -42.65 63.6 -34.35 65.35 L-1.3 66.45 6.9 66.4 42.95 65.85 48.75 65.7 100.5 64.3 M92.3 57.95 Q90.9 59.35 88.95 59.35 L77.95 59.4 Q75.95 59.4 74.6 58.05 73.2 56.65 73.15 54.7 73.15 52.7 74.55 51.3 75.95 49.9 77.9 49.9 L88.9 49.85 Q90.9 49.85 92.25 51.25 93.65 52.65 93.65 54.6 93.7 56.6 92.3 57.95 M-48.25 -42.55 L-42.55 -41.3 -38.75 -38.35 Q-38.55 -26.65 -47.15 -3.1 -51.35 4.55 -52.25 29.6 -52.65 42.15 -52.25 53.15 -58.45 36.05 -57.55 1.6 -57.25 -9.2 -56.3 -20.4 L-55.4 -29.45 Q-62.6 -32.15 -79.95 -30.1 L-95.9 -27.5 -92.1 -30.9 Q-87.1 -34.9 -81.25 -37.75 -76.65 -40.0 -71.95 -41.35 L-71.85 -40.7 -71.75 -39.85 -69.7 -39.25 Q-67.1 -38.6 -64.3 -38.4 -55.45 -37.8 -48.25 -41.85 L-48.25 -42.55" fill="#000000" fill-opacity="0.101960786" fill-rule="evenodd" stroke="none"/>
    <path d="M38.6 -57.75 L38.35 -58.35 36.4 -60.35 Q34.35 -61.5 30.8 -61.5 L12.4 -61.45 Q6.0 -61.35 4.7 -57.65 L4.95 -57.05 Q4.5 -57.8 4.5 -58.65 4.5 -60.65 6.8 -62.0 9.1 -63.4 12.4 -63.45 L30.8 -63.5 Q34.1 -63.5 36.45 -62.1 38.75 -60.75 38.75 -58.8 L38.6 -57.75 M-15.1 -38.2 L-12.95 -41.5 -7.85 -49.65 Q1.35 -64.2 4.5 -67.9 L-0.5 -38.2 -14.8 -38.15 -15.05 -38.1 -15.1 -38.2 M45.7 -37.2 Q45.8 -38.65 45.2 -42.85 L42.1 -66.35 63.3 -36.8 60.85 -36.5 45.7 -37.2 M-87.35 7.75 L-86.35 8.5 Q-87.0 7.35 -87.0 6.15 L-87.0 -4.85 Q-87.0 -6.85 -85.6 -8.2 -84.2 -9.6 -82.25 -9.6 -81.05 -9.6 -79.9 -8.95 L-80.25 -9.5 Q-79.25 -8.3 -79.25 -6.6 L-79.25 4.4 Q-79.25 6.35 -80.65 7.75 -82.0 9.15 -84.0 9.15 -85.95 9.15 -87.35 7.75 M-5.1 -38.5 L-3.95 -38.5 -5.1 -38.5" fill="#000000" fill-opacity="0.2" fill-rule="evenodd" stroke="none"/>
    <path d="M38.6 -57.75 Q37.75 -55.6 35.3 -54.65 33.8 -54.1 31.75 -54.0 L30.95 -54.0 30.85 -54.0 12.45 -53.95 12.35 -53.95 11.55 -53.95 Q8.65 -54.05 6.95 -55.0 5.6 -55.75 4.95 -57.05 L4.7 -57.65 Q6.0 -61.35 12.4 -61.45 L30.8 -61.5 Q34.35 -61.5 36.4 -60.35 L38.35 -58.35 38.6 -57.75 M68.2 -36.95 L67.75 -41.35 71.15 -42.15 78.25 -41.85 78.25 -36.5 75.25 -36.85 68.85 -36.9 68.2 -36.95 M91.0 -32.05 L91.0 -35.6 Q91.0 -37.35 92.75 -37.35 94.5 -37.35 94.5 -35.6 L94.5 -29.4 Q92.95 -30.85 91.0 -32.05 M-92.75 -31.1 L-92.75 -39.1 Q-92.75 -40.85 -91.0 -40.85 -89.25 -40.85 -89.25 -39.1 L-89.25 -33.7 -92.75 -31.1 M-72.0 -41.85 L-72.25 -43.35 -70.25 -42.8 -69.25 -42.55 -64.95 -42.05 Q-58.7 -41.75 -52.95 -43.75 -50.55 -44.6 -48.25 -45.85 L-48.25 -43.15 -48.25 -42.55 -48.25 -41.85 Q-55.45 -37.8 -64.3 -38.4 -67.1 -38.6 -69.7 -39.25 L-71.75 -39.85 -71.85 -40.7 -72.0 -41.85 M-45.75 -42.7 L-45.75 -47.35 -35.2 -48.65 Q-29.75 -48.95 -25.15 -48.4 L-26.25 -48.5 -26.3 -47.2 Q-29.9 -47.45 -34.25 -47.3 L-44.5 -46.35 Q-34.3 -47.1 -26.3 -46.5 L-26.5 -41.35 -38.75 -39.15 -42.25 -41.85 -42.7 -41.95 -45.75 -42.7 M-83.9 -11.35 L-83.0 -11.25 -82.35 -11.1 -80.75 -10.1 -80.7 -10.05 -80.65 -10.0 -80.55 -9.85 -80.45 -9.75 -80.35 -9.6 -80.3 -9.55 -80.25 -9.5 -79.9 -8.95 Q-81.05 -9.6 -82.25 -9.6 -84.2 -9.6 -85.6 -8.2 -87.0 -6.85 -87.0 -4.85 L-87.0 6.15 Q-87.0 7.35 -86.35 8.5 L-87.35 7.75 -87.4 7.7 Q-88.7 6.4 -88.75 4.6 L-88.75 4.55 -88.75 4.4 -88.75 -6.6 Q-88.75 -8.6 -87.35 -9.95 -85.95 -11.35 -84.0 -11.35 L-83.9 -11.35" fill="#000000" fill-opacity="0.3019608" fill-rule="evenodd" stroke="none"/>
    <path d="M-25.15 -48.4 Q-20.05 -47.8 -16.0 -46.15 L-15.8 -46.1 -15.75 -46.05 -15.6 -46.0 -15.4 -45.9 -15.25 -45.85 -15.25 -38.85 -15.25 -38.05 -37.75 -38.35 -38.75 -39.15 -26.5 -41.35 -26.3 -46.5 -16.25 -45.1 Q-20.3 -46.75 -26.3 -47.2 L-26.25 -48.5 -25.15 -48.4" fill="#000000" fill-opacity="0.4" fill-rule="evenodd" stroke="none"/>
    <path d="M17.7 -68.75 Q32.1 -69.45 41.25 -66.05 25.75 -69.2 5.1 -67.35 L17.7 -68.75 M-26.3 -46.5 Q-34.3 -47.1 -44.5 -46.35 L-34.25 -47.3 Q-29.9 -47.45 -26.3 -47.2 -20.3 -46.75 -16.25 -45.1 L-26.3 -46.5" fill="#ffffff" fill-opacity="0.3019608" fill-rule="evenodd" stroke="none"/>
    <path d="M-15.25 -38.85 L-14.25 -40.45 -8.9 -49.0 -6.8 -52.3 Q2.05 -66.15 4.25 -68.35 L16.9 -69.85 Q31.65 -70.6 42.25 -66.85 L63.65 -37.0 67.55 -36.95 68.35 -36.9 M68.2 -36.95 L67.75 -41.35 71.15 -42.15 78.25 -41.85 78.25 -36.5 78.3 -36.5 Q82.0 -35.9 85.3 -34.7 88.5 -33.55 91.0 -32.05 L91.0 -35.6 Q91.0 -37.35 92.75 -37.35 94.5 -37.35 94.5 -35.6 L94.5 -29.4 Q97.45 -26.6 98.75 -22.85 L100.55 11.1 Q102.2 47.95 101.25 62.65 L101.0 65.4 Q100.0 68.4 96.25 69.65 L-89.25 69.65 Q-100.2 70.7 -101.0 65.3 -101.75 45.8 -101.35 23.85 -100.6 -20.05 -96.25 -27.85 L-96.1 -28.0 -92.75 -31.1 -92.75 -39.1 Q-92.75 -40.85 -91.0 -40.85 -89.25 -40.85 -89.25 -39.1 L-89.25 -33.7 Q-85.75 -36.1 -81.45 -38.2 -76.8 -40.5 -72.0 -41.85 L-72.25 -43.35 Q-65.35 -47.7 -56.1 -47.2 -51.5 -46.95 -48.25 -45.85 L-48.25 -43.15 -45.75 -42.7 -45.75 -47.35 -35.2 -48.65 Q-29.75 -48.95 -25.15 -48.4 -20.05 -47.8 -16.0 -46.15 L-15.9 -46.15 -15.8 -46.1 -15.75 -46.05 -15.6 -46.0 -15.4 -45.9 -15.25 -45.85 -15.25 -38.85 M63.75 -36.85 L63.65 -37.0 M-48.25 -42.55 L-48.25 -43.15 M-16.0 -46.15 L-15.8 -46.1" fill="none" stroke="#000000" stroke-linecap="round" stroke-linejoin="round" stroke-width="1.0"/>
    <path d="M4.95 -57.05 Q5.6 -55.75 6.95 -55.0 8.65 -54.05 11.55 -53.95 L12.35 -53.95 12.45 -53.95 30.85 -54.0 30.95 -54.0 31.75 -54.0 Q33.8 -54.1 35.3 -54.65 37.75 -55.6 38.6 -57.75 L38.75 -58.8 Q38.75 -60.75 36.45 -62.1 34.1 -63.5 30.8 -63.5 L12.4 -63.45 Q9.1 -63.4 6.8 -62.0 4.5 -60.65 4.5 -58.65 4.5 -57.8 4.95 -57.05 L4.7 -57.65 M-15.25 -38.85 L-15.1 -38.2 -15.05 -38.1 -15.15 -38.05 -15.25 -38.05 -15.25 -38.85 M60.85 -36.5 L62.55 -36.45 M60.85 -36.5 L45.7 -37.2 M92.3 57.95 Q90.9 59.35 88.95 59.35 L77.95 59.4 Q75.95 59.4 74.6 58.05 73.2 56.65 73.15 54.7 73.15 52.7 74.55 51.3 75.95 49.9 77.9 49.9 L88.9 49.85 Q90.9 49.85 92.25 51.25 93.65 52.65 93.65 54.6 93.7 56.6 92.3 57.95 M-82.35 -11.1 L-83.9 -11.35 -84.0 -11.35 Q-85.95 -11.35 -87.35 -9.95 -88.75 -8.6 -88.75 -6.6 L-88.75 4.4 -88.75 4.55 -88.75 4.6 Q-88.7 6.4 -87.4 7.7 L-87.35 7.75 -86.35 8.5 M-79.9 -8.95 L-80.25 -9.5 -80.3 -9.55 -80.35 -9.6 -80.45 -9.75 -80.55 -9.85 -80.65 -10.0 -80.7 -10.05 -80.75 -10.1 -82.35 -11.1 M-72.25 -43.35 L-70.25 -42.8 -69.25 -42.55 -64.95 -42.05 Q-58.7 -41.75 -52.95 -43.75 -50.55 -44.6 -48.25 -45.85 M-87.35 7.75 Q-85.95 9.15 -84.0 9.15 -82.0 9.15 -80.65 7.75 -79.25 6.35 -79.25 4.4 L-79.25 -6.6 Q-79.25 -8.3 -80.25 -9.5 M-0.5 -38.2 L-14.8 -38.15 -15.05 -38.1" fill="none" stroke="#000000" stroke-linecap="round" stroke-linejoin="round" stroke-opacity="0.4" stroke-width="1.0"/>
    <path d="M62.55 -36.45 L63.1 -36.65 63.35 -36.7 63.75 -36.85 M68.85 -36.9 L75.25 -36.85 78.25 -36.5 M68.35 -36.9 L68.85 -36.9 M91.0 -32.05 Q92.95 -30.85 94.5 -29.4 M-72.0 -41.85 L-71.85 -40.7 -71.75 -39.85 -69.7 -39.25 Q-67.1 -38.6 -64.3 -38.4 -55.45 -37.8 -48.25 -41.85 L-48.25 -42.55 M-92.75 -31.1 L-89.25 -33.7 M-38.75 -39.15 L-42.25 -41.85 -42.7 -41.95 -45.75 -42.7 M-37.75 -38.35 L-39.35 -28.1 Q-41.85 -15.6 -46.25 -4.35 -50.6 6.9 -51.1 33.4 -51.35 46.65 -50.75 57.65 M-38.75 -39.15 L-37.75 -38.35 -15.25 -38.05" fill="none" stroke="#000000" stroke-linecap="round" stroke-linejoin="round" stroke-opacity="0.6" stroke-width="1.0"/>
    <path d="M-0.5 -38.2 L16.9 -38.15 17.0 -38.15 45.7 -37.2" fill="none" stroke="#000000" stroke-linecap="round" stroke-linejoin="round" stroke-opacity="0.4" stroke-width="1.0"/>
  </g>
</svg>
