<?xml version="1.0" encoding="UTF-8" standalone="no"?>
<svg xmlns:xlink="http://www.w3.org/1999/xlink" height="70.6px" width="412.65px" xmlns="http://www.w3.org/2000/svg">
  <g transform="matrix(1.0, 0.0, 0.0, 1.0, 206.35, 24.8)">
    <path d="M-205.85 5.75 L-205.1 5.15 -139.25 6.3 -132.9 5.85 Q-124.4 4.05 -114.15 -2.4 -99.9 -11.4 -92.0 -15.85 -81.75 -21.7 -76.5 -23.2 -68.75 -25.35 -48.45 -23.35 -21.9 -20.65 11.95 -11.2 45.6 -1.75 115.75 8.85 178.6 18.3 188.8 17.75 196.15 17.4 205.8 24.3 173.5 20.4 28.9 13.8 L-109.25 7.95 -205.85 5.75" fill="#ffffff" fill-opacity="0.0" fill-rule="evenodd" stroke="none"/>
    <path d="M205.8 24.3 Q196.15 17.4 188.8 17.75 178.6 18.3 115.75 8.85 45.6 -1.75 11.95 -11.2 -21.9 -20.65 -48.45 -23.35 -68.75 -25.35 -76.5 -23.2 -81.75 -21.7 -92.0 -15.85 -99.9 -11.4 -114.15 -2.4 -124.4 4.05 -132.9 5.85 L-139.25 6.3 -205.1 5.15 -205.85 5.75" fill="none" stroke="#000000" stroke-linecap="butt" stroke-linejoin="miter-clip" stroke-miterlimit="4.0" stroke-width="1.0"/>
    <path d="M-205.85 5.75 L-109.25 7.95 28.9 13.8 Q173.5 20.4 205.8 24.3 Z" fill="none" stroke="#000000" stroke-linecap="butt" stroke-linejoin="miter-clip" stroke-miterlimit="4.0" stroke-opacity="0.6" stroke-width="1.0"/>
    <path d="M-52.8 22.45 Q-42.9 32.65 -25.6 40.0 -16.9 43.65 -10.25 45.3 -39.95 43.65 -58.9 35.35 -64.8 32.7 -68.9 29.75 L-71.9 27.35 -52.8 22.45" fill="#000000" fill-opacity="0.09803922" fill-rule="evenodd" stroke="none"/>
    <path d="M-71.9 27.35 L-68.9 29.75 Q-64.8 32.7 -58.9 35.35 -39.95 43.65 -10.25 45.3 -16.9 43.65 -25.6 40.0 -42.9 32.65 -52.8 22.45" fill="none" stroke="#000000" stroke-linecap="butt" stroke-linejoin="miter-clip" stroke-miterlimit="4.0" stroke-opacity="0.6" stroke-width="1.0"/>
    <path d="M-115.95 14.0 Q-117.15 15.6 -118.8 15.6 -120.5 15.6 -121.7 14.0 -122.9 12.45 -122.9 10.25 -122.9 8.1 -121.7 6.5 -120.5 4.95 -118.8 4.95 -117.15 4.95 -115.95 6.5 -114.75 8.1 -114.75 10.25 -114.75 12.45 -115.95 14.0" fill="#231f20" fill-rule="evenodd" stroke="none"/>
    <path d="M-115.95 14.0 Q-117.15 15.6 -118.8 15.6 -120.5 15.6 -121.7 14.0 -122.9 12.45 -122.9 10.25 -122.9 8.1 -121.7 6.5 -120.5 4.95 -118.8 4.95 -117.15 4.95 -115.95 6.5 -114.75 8.1 -114.75 10.25 -114.75 12.45 -115.95 14.0 Z" fill="none" stroke="#000000" stroke-linecap="butt" stroke-linejoin="miter-clip" stroke-miterlimit="4.0" stroke-width="1.0"/>
    <path d="M-119.0 9.05 Q-120.0 9.05 -120.0 8.0 -120.0 6.95 -119.0 6.95 -117.95 6.95 -117.95 8.0 -117.95 9.05 -119.0 9.05" fill="#ffffff" fill-rule="evenodd" stroke="none"/>
  </g>
</svg>
