<?xml version="1.0" encoding="UTF-8" standalone="no"?>
<svg xmlns:xlink="http://www.w3.org/1999/xlink" height="80.35px" width="102.05px" xmlns="http://www.w3.org/2000/svg">
  <g transform="matrix(1.0, 0.0, 0.0, 1.0, 48.05, -15.1)">
    <path d="M-6.05 67.55 L-47.55 62.2 -47.55 58.25 -45.45 57.65 -1.1 60.8 14.1 48.05 15.45 48.05 15.45 51.95 6.45 62.45 53.5 72.35 53.5 76.55 51.65 77.65 5.05 69.35 Q2.05 70.8 -0.45 70.15 L-21.5 94.95 -22.9 94.95 -22.9 88.75 -6.05 67.55 -2.9 63.5 Q-4.45 62.85 -4.2 62.2 -4.45 62.85 -2.9 63.5 L-6.05 67.55 M3.7 61.85 L6.45 62.45 3.7 61.85" fill="#dfdfe1" fill-rule="evenodd" stroke="none"/>
    <path d="M-6.05 67.55 L-47.55 62.2 -47.55 58.25 -45.45 57.65 -1.1 60.8 14.1 48.05 15.45 48.05 15.45 51.95 6.45 62.45 53.5 72.35 53.5 76.55 51.65 77.65 5.05 69.35 Q2.05 70.8 -0.45 70.15 L-21.5 94.95 -22.9 94.95 -22.9 88.75 -6.05 67.55 -2.9 63.5 Q-4.45 62.85 -4.2 62.2 M6.45 62.45 L3.7 61.85" fill="none" stroke="#000000" stroke-linecap="round" stroke-linejoin="round" stroke-width="1.0"/>
    <path d="M2.95 61.85 Q-0.2 63.75 -2.75 61.55 L-2.75 15.6 2.95 15.8 2.95 61.85" fill="#dfdfe1" fill-rule="evenodd" stroke="none"/>
    <path d="M2.95 61.85 Q-0.2 63.75 -2.75 61.55 L-2.75 15.6 2.95 15.8 2.95 61.85 Z" fill="none" stroke="#000000" stroke-linecap="round" stroke-linejoin="round" stroke-width="1.0"/>
  </g>
</svg>
