<?xml version="1.0" encoding="UTF-8" standalone="no"?>
<svg xmlns:xlink="http://www.w3.org/1999/xlink" height="88.65px" width="198.8px" xmlns="http://www.w3.org/2000/svg">
  <g transform="matrix(1.0, 0.0, 0.0, 1.0, 96.0, 30.95)">
    <path d="M-51.4 -26.25 L-51.3 -26.25 -50.5 -26.55 Q-47.6 -27.65 -44.65 -28.05 L-32.95 -28.4 Q-19.85 -28.1 -1.75 -24.8 L23.4 -19.45 Q35.15 -16.7 39.1 -15.45 44.95 -13.7 48.75 -11.3 L51.75 -9.15 Q57.55 -4.2 59.1 -1.6 60.95 1.4 61.25 4.75 L61.5 9.15 61.5 9.2 61.5 9.15 61.25 4.75 Q60.95 1.4 59.1 -1.6 57.55 -4.2 51.75 -9.15 L52.0 -8.95 56.05 -9.3 Q61.55 -9.7 72.7 -7.9 L86.15 -5.7 102.3 -2.25 97.2 16.65 Q82.25 12.35 61.5 9.2 L61.5 12.95 Q61.5 17.8 56.7 24.9 L56.65 25.0 57.1 25.15 Q61.7 26.95 71.15 29.7 L84.65 33.6 92.05 35.9 86.35 57.2 69.15 52.0 53.2 47.45 Q41.45 43.95 32.7 36.0 L30.85 34.25 22.05 34.95 Q10.5 34.9 -2.7 33.05 L-21.4 30.45 Q-32.65 28.65 -37.7 26.95 L-46.7 24.85 -46.55 24.7 -46.7 24.8 Q-53.9 28.6 -63.75 30.25 -74.5 32.1 -95.5 31.15 L-95.5 9.05 Q-82.6 9.4 -74.25 8.9 L-70.65 8.7 -70.65 8.65 -71.9 3.25 Q-72.65 -1.9 -71.5 -7.75 L-70.9 -9.85 -70.9 -9.9 -70.8 -10.2 -69.7 -12.5 Q-68.4 -14.8 -66.4 -16.7 L-66.4 -16.75 Q-63.4 -19.65 -56.25 -23.9 -53.9 -25.3 -51.4 -26.25 -53.9 -25.3 -56.25 -23.9 -63.4 -19.65 -66.4 -16.75 L-66.5 -16.8 -68.5 -14.65 -69.85 -12.6 -69.85 -12.55 -70.85 -10.2 -70.95 -9.9 -95.5 -10.8 -95.5 -30.45 Q-85.3 -30.45 -76.35 -29.95 L-60.75 -28.25 -51.4 -26.25 M-52.1 2.85 Q-56.1 6.75 -70.65 8.65 -56.1 6.75 -52.1 2.85 -36.85 -2.85 -32.25 9.65 L-31.95 9.05 -31.9 8.95 Q-4.7 13.85 24.0 16.2 23.6 17.3 23.45 18.85 L23.5 20.9 23.5 21.1 Q29.05 9.8 43.95 16.0 L44.35 16.85 44.6 17.15 Q44.9 15.7 44.5 13.95 L44.25 13.15 Q43.9 12.35 43.4 11.95 L42.8 11.4 Q38.9 8.35 32.1 5.9 L28.85 4.85 27.05 4.3 Q23.05 3.15 18.0 1.95 6.8 -0.7 -4.7 -2.5 -20.15 -5.0 -32.0 -5.3 L-32.8 -5.35 -41.9 -5.45 Q-45.7 -5.25 -49.4 -3.7 L-51.1 -2.15 -51.55 -1.55 -51.65 -1.4 Q-53.2 0.85 -52.1 2.85 M56.65 25.0 Q49.15 21.55 47.5 19.95 L44.95 17.55 44.6 17.15 44.95 17.55 47.5 19.95 Q49.15 21.55 56.65 25.0 M44.95 17.55 L44.55 17.2 44.6 17.15 44.55 17.2 44.95 17.55 M25.2 27.0 Q24.05 24.1 23.7 22.25 L23.5 21.1 23.7 22.25 Q24.05 24.1 25.2 27.0 26.3 29.9 30.85 34.25 L30.45 33.85 Q26.9 30.25 25.2 27.0 M-36.65 17.15 Q-34.4 13.95 -33.6 12.25 L-32.25 9.65 -33.6 12.25 Q-34.4 13.95 -36.65 17.15 L-36.8 17.35 -36.65 17.15 M-46.55 24.7 Q-45.75 24.05 -43.3 22.8 L-42.55 22.45 Q-39.15 20.7 -36.8 17.35 -39.15 20.7 -42.55 22.45 L-43.3 22.8 Q-45.75 24.05 -46.55 24.7" fill="#ffffff" fill-opacity="0.0" fill-rule="evenodd" stroke="none"/>
    <path d="M-51.55 -1.55 L-51.1 -2.15 -49.4 -3.7 Q-45.7 -5.25 -41.9 -5.45 L-32.8 -5.35 -32.0 -5.3 Q-31.6 -4.35 -31.25 0.0 -31.0 3.45 -31.4 6.3 L-31.95 9.05 -32.25 9.65 Q-36.85 -2.85 -52.1 2.85 L-51.75 2.25 Q-50.85 0.4 -51.55 -1.55 M28.85 4.85 L32.1 5.9 Q38.9 8.35 42.8 11.4 L43.4 11.95 Q43.9 12.35 44.25 13.15 43.75 14.75 43.95 16.0 29.05 9.8 23.5 21.1 L23.5 20.9 Q23.4 19.0 23.85 16.95 L24.0 16.2 24.35 14.95 Q25.2 12.2 27.0 8.35 27.8 6.4 28.85 4.85" fill="#000000" fill-opacity="0.2" fill-rule="evenodd" stroke="none"/>
    <path d="M-70.65 8.65 Q-56.1 6.75 -52.1 2.85 -53.2 0.85 -51.65 -1.4 L-51.55 -1.55 -51.1 -2.15 -49.4 -3.7 Q-45.7 -5.25 -41.9 -5.45 L-32.8 -5.35 -32.0 -5.3 Q-20.15 -5.0 -4.7 -2.5 6.8 -0.7 18.0 1.95 23.05 3.15 27.05 4.3 L28.85 4.85 32.1 5.9 Q38.9 8.35 42.8 11.4 L43.4 11.95 Q43.9 12.35 44.25 13.15 L44.5 13.95 Q44.9 15.7 44.6 17.15 L44.95 17.55 47.5 19.95 Q49.15 21.55 56.65 25.0 L57.1 25.15 Q61.7 26.95 71.15 29.7 L84.65 33.6 92.05 35.9 M97.2 16.65 Q82.25 12.35 61.5 9.2 M86.35 57.2 L69.15 52.0 53.2 47.45 Q41.45 43.95 32.7 36.0 L30.85 34.25 22.05 34.95 Q10.5 34.9 -2.7 33.05 L-21.4 30.45 Q-32.65 28.65 -37.7 26.95 L-46.7 24.85 -46.55 24.7 -46.7 24.8 Q-53.9 28.6 -63.75 30.25 -74.5 32.1 -95.5 31.15 M-95.5 9.05 Q-82.6 9.4 -74.25 8.9 L-70.65 8.7 M43.95 16.0 L44.35 16.85 44.6 17.15 44.55 17.2 44.95 17.55 M44.25 13.15 Q43.75 14.75 43.95 16.0 M23.5 21.1 L23.7 22.25 Q24.05 24.1 25.2 27.0 26.9 30.25 30.45 33.85 L30.85 34.25 M24.0 16.2 L24.35 14.95 Q25.2 12.2 27.0 8.35 27.8 6.4 28.85 4.85 M24.0 16.2 Q-4.7 13.85 -31.9 8.95 L-31.95 9.05 -32.25 9.65 -33.6 12.25 Q-34.4 13.95 -36.65 17.15 L-36.8 17.35 Q-39.15 20.7 -42.55 22.45 L-43.3 22.8 Q-45.75 24.05 -46.55 24.7 M23.5 21.1 L23.5 20.9 Q23.4 19.0 23.85 16.95 L24.0 16.2 M-95.5 -10.8 L-70.95 -9.9 M-31.95 9.05 L-31.4 6.3 Q-31.0 3.45 -31.25 0.0 -31.6 -4.35 -32.0 -5.3 M-51.55 -1.55 Q-50.85 0.4 -51.75 2.25 L-52.1 2.85" fill="none" stroke="#000000" stroke-linecap="round" stroke-linejoin="round" stroke-width="1.0"/>
    <path d="M51.75 -9.15 L48.75 -11.3 Q44.95 -13.7 39.1 -15.45 35.15 -16.7 23.4 -19.45 L-1.75 -24.8 Q-19.85 -28.1 -32.95 -28.4 L-44.65 -28.05 Q-47.6 -27.65 -50.5 -26.55 L-51.3 -26.25 -51.4 -26.25 Q-53.9 -25.3 -56.25 -23.9 -63.4 -19.65 -66.4 -16.75 L-66.4 -16.7 Q-68.4 -14.8 -69.7 -12.5 L-70.8 -10.2 -70.9 -9.9 -70.9 -9.85 -71.5 -7.75 Q-72.65 -1.9 -71.9 3.25 L-70.65 8.65 M56.65 25.0 L56.7 24.9 Q61.5 17.8 61.5 12.95 L61.5 9.2 61.5 9.15 61.25 4.75 Q60.95 1.4 59.1 -1.6 57.55 -4.2 51.75 -9.15 M52.0 -8.95 L56.05 -9.3 Q61.55 -9.7 72.7 -7.9 L86.15 -5.7 102.3 -2.25 M-51.4 -26.25 L-60.75 -28.25 -76.35 -29.95 Q-85.3 -30.45 -95.5 -30.45" fill="none" stroke="#000000" stroke-linecap="round" stroke-linejoin="round" stroke-opacity="0.4" stroke-width="1.0"/>
  </g>
</svg>
