<?xml version="1.0" encoding="UTF-8" standalone="no"?>
<svg xmlns:xlink="http://www.w3.org/1999/xlink" height="208.65px" width="80.85px" xmlns="http://www.w3.org/2000/svg">
  <g transform="matrix(1.0, 0.0, 0.0, 1.0, 40.4, 104.3)">
    <path d="M27.85 -102.6 Q29.5 -101.3 29.5 -99.5 L29.3 -89.05 39.95 -69.3 39.75 91.35 19.25 103.85 -39.9 97.85 -39.9 -69.35 -26.25 -88.4 -26.25 -99.25 Q-26.25 -100.8 -25.8 -101.2 L-24.05 -101.65 24.75 -103.8 Q26.4 -103.8 27.85 -102.6" fill="#ffffff" fill-opacity="0.0" fill-rule="evenodd" stroke="none"/>
    <path d="M27.85 -102.6 Q29.5 -101.3 29.5 -99.5 L29.3 -89.05 39.95 -69.3 39.75 91.35 19.25 103.85 -39.9 97.85 -39.9 -69.35 -26.25 -88.4 -26.25 -99.25 Q-26.25 -100.8 -25.8 -101.2 L-24.05 -101.65 24.75 -103.8 Q26.4 -103.8 27.85 -102.6 Z" fill="none" stroke="#000000" stroke-linecap="round" stroke-linejoin="round" stroke-width="1.0"/>
    <path d="M39.95 -69.3 L18.4 -69.95 22.25 -76.65 39.95 -69.3" fill="#000000" fill-opacity="0.101960786" fill-rule="evenodd" stroke="none"/>
    <path d="M39.95 -69.3 L22.25 -76.65 29.3 -89.05 39.95 -69.3" fill="#000000" fill-opacity="0.2" fill-rule="evenodd" stroke="none"/>
    <path d="M22.25 -76.65 L18.4 -69.95 39.95 -69.3 22.25 -76.65 29.3 -89.05 M19.2 88.05 L19.25 103.85 M18.4 -69.95 L19.2 88.05 M18.4 -69.95 L-39.9 -69.35" fill="none" stroke="#000000" stroke-linecap="round" stroke-linejoin="round" stroke-opacity="0.6" stroke-width="1.0"/>
    <path d="M29.3 -89.05 L-26.25 -88.4 M1.6 -10.2 Q-3.6 -7.15 -10.7 -7.5 -17.85 -7.9 -22.75 -11.5 -27.6 -15.1 -27.35 -19.7 -27.15 -24.35 -21.9 -27.45 -16.7 -30.55 -9.55 -30.15 -2.45 -29.8 2.45 -26.15 7.3 -22.55 7.1 -17.9 6.85 -13.3 1.6 -10.2" fill="none" stroke="#000000" stroke-linecap="round" stroke-linejoin="round" stroke-opacity="0.2" stroke-width="1.0"/>
    <path d="M19.2 88.05 L39.8 77.25 M19.2 88.05 L-39.9 83.75" fill="none" stroke="#000000" stroke-linecap="round" stroke-linejoin="round" stroke-opacity="0.4" stroke-width="1.0"/>
  </g>
</svg>
