<?xml version="1.0" encoding="UTF-8" standalone="no"?>
<svg xmlns:xlink="http://www.w3.org/1999/xlink" height="233.5px" width="326.85px" xmlns="http://www.w3.org/2000/svg">
  <g transform="matrix(1.0, 0.0, 0.0, 1.0, 163.45, 116.75)">
    <path d="M-161.45 -116.25 Q-151.75 -112.85 -142.1 -109.8 -67.85 -80.4 -47.95 -75.4 L-45.0 -83.45 -43.95 -81.45 Q-42.1 -79.15 -38.5 -77.65 -37.05 -77.05 -14.9 -70.75 11.7 -61.75 36.55 -46.7 115.55 1.15 157.75 96.0 L162.75 107.55 162.9 116.25 Q160.35 115.9 157.05 111.35 L154.25 106.85 Q113.05 45.95 65.6 13.75 30.5 -9.95 -5.1 -16.35 -28.45 -20.45 -51.9 -33.05 L-70.7 -44.75 Q-76.25 -42.95 -86.9 -50.45 L-96.45 -58.35 Q-109.65 -74.7 -128.75 -80.05 -134.7 -81.7 -140.45 -82.05 L-145.1 -82.05 Q-138.9 -83.95 -121.9 -83.7 L-106.25 -83.0 Q-121.2 -96.85 -125.25 -99.55 -127.15 -100.85 -162.95 -115.1 L-161.45 -116.25" fill="#ffffff" fill-opacity="0.0" fill-rule="evenodd" stroke="none"/>
    <path d="M-142.1 -109.8 Q-151.75 -112.85 -161.45 -116.25 M-162.95 -115.1 Q-127.15 -100.85 -125.25 -99.55 -121.2 -96.85 -106.25 -83.0 L-121.9 -83.7 Q-138.9 -83.95 -145.1 -82.05 L-140.45 -82.05 Q-134.7 -81.7 -128.75 -80.05 -109.65 -74.7 -96.45 -58.35 L-86.9 -50.45 Q-76.25 -42.95 -70.7 -44.75 L-51.9 -33.05 Q-28.45 -20.45 -5.1 -16.35 30.5 -9.95 65.6 13.75 113.05 45.95 154.25 106.85 L157.05 111.35 Q160.35 115.9 162.9 116.25 L162.75 107.55" fill="none" stroke="#000000" stroke-linecap="butt" stroke-linejoin="miter-clip" stroke-miterlimit="1.0" stroke-width="1.0"/>
    <path d="M-161.45 -116.25 L-162.95 -115.1 M162.75 107.55 L157.75 96.0 Q115.55 1.15 36.55 -46.7 11.7 -61.75 -14.9 -70.75 -37.05 -77.05 -38.5 -77.65 -42.1 -79.15 -43.95 -81.45 L-45.0 -83.45 -47.95 -75.4 Q-67.85 -80.4 -142.1 -109.8 Z" fill="none" stroke="#000000" stroke-linecap="butt" stroke-linejoin="miter-clip" stroke-miterlimit="1.0" stroke-opacity="0.6" stroke-width="1.0"/>
  </g>
</svg>
