<?xml version="1.0" encoding="UTF-8" standalone="no"?>
<svg xmlns:xlink="http://www.w3.org/1999/xlink" height="19.7px" width="14.7px" xmlns="http://www.w3.org/2000/svg">
  <g transform="matrix(1.0, 0.0, 0.0, 1.0, 7.35, 9.85)">
    <path d="M5.25 -9.35 Q6.85 -9.35 6.85 -7.75 L6.85 7.75 Q6.85 9.35 5.25 9.35 L-5.25 9.35 Q-6.85 9.35 -6.85 7.75 L-6.85 -7.75 Q-6.85 -9.35 -5.25 -9.35 L5.25 -9.35" fill="#ffffff" fill-rule="evenodd" stroke="none"/>
    <path d="M5.25 -9.35 L-5.25 -9.35 Q-6.85 -9.35 -6.85 -7.75 L-6.85 7.75 Q-6.85 9.35 -5.25 9.35 L5.25 9.35 Q6.85 9.35 6.85 7.75 L6.85 -7.75 Q6.85 -9.35 5.25 -9.35 Z" fill="none" stroke="#000000" stroke-linecap="round" stroke-linejoin="round" stroke-width="1.0"/>
  </g>
</svg>
