<?xml version="1.0" encoding="UTF-8" standalone="no"?>
<svg xmlns:xlink="http://www.w3.org/1999/xlink" height="8.85px" width="27.2px" xmlns="http://www.w3.org/2000/svg">
  <g transform="matrix(1.0, 0.0, 0.0, 1.0, 13.6, 4.05)">
    <path d="M-12.9 0.15 L-12.95 0.0 Q-12.95 -1.45 -9.2 -2.4 -5.4 -3.4 0.0 -3.4 5.4 -3.4 9.2 -2.4 12.95 -1.45 12.95 0.0 L12.95 0.25 Q12.7 0.9 11.9 1.35 10.95 0.8 9.2 0.35 5.4 -0.6 0.0 -0.6 -5.4 -0.6 -9.2 0.35 -10.95 0.8 -11.85 1.35 -12.8 0.8 -12.9 0.15" fill="#ffffff" fill-opacity="0.0" fill-rule="evenodd" stroke="none"/>
    <path d="M-11.85 1.35 Q-10.95 0.8 -9.2 0.35 -5.4 -0.6 0.0 -0.6 5.4 -0.6 9.2 0.35 10.95 0.8 11.9 1.35 11.3 2.35 10.3 2.6 L7.8 3.6 Q6.25 4.35 0.55 4.7 L-7.45 4.3 Q-9.7 3.55 -10.35 2.75 L-11.85 1.35" fill="#000000" fill-opacity="0.8" fill-rule="evenodd" stroke="none"/>
    <path d="M12.95 0.25 L12.95 0.0 Q12.95 -1.45 9.2 -2.4 5.4 -3.4 0.0 -3.4 -5.4 -3.4 -9.2 -2.4 -12.95 -1.45 -12.95 0.0 L-12.9 0.15 M-11.85 1.35 Q-10.95 0.8 -9.2 0.35 -5.4 -0.6 0.0 -0.6 5.4 -0.6 9.2 0.35 10.95 0.8 11.9 1.35" fill="none" stroke="#000000" stroke-linecap="square" stroke-linejoin="miter-clip" stroke-miterlimit="3.0" stroke-width="1.0"/>
  </g>
</svg>
