<?xml version="1.0" encoding="UTF-8" standalone="no"?>
<svg xmlns:xlink="http://www.w3.org/1999/xlink" height="40.2px" width="67.6px" xmlns="http://www.w3.org/2000/svg">
  <g transform="matrix(1.0, 0.0, 0.0, 1.0, 33.8, 20.1)">
    <path d="M6.05 -16.25 L6.3 -20.1 Q7.8 -0.85 -0.9 -0.3 -3.6 -0.15 -7.0 -1.9 L-9.7 -3.55 Q0.15 2.05 4.2 -8.45 5.4 -11.7 6.05 -16.25 M31.6 -16.85 Q36.2 -3.2 31.25 5.45 26.6 13.35 14.0 15.6 9.95 15.35 5.15 14.05 -5.25 11.15 -9.35 5.1 L-9.45 5.1 -18.75 -0.75 -19.0 -0.4 -10.5 8.0 Q-5.15 14.15 3.3 16.6 7.25 17.65 11.7 17.65 10.05 18.95 7.15 20.1 L6.55 19.55 6.4 19.45 6.3 19.55 0.85 19.4 Q-4.65 17.9 -12.45 11.75 L-19.15 6.0 Q-25.75 -1.95 -33.8 -7.5 L-30.3 -7.05 Q-19.95 -4.25 -8.4 2.25 -3.0 9.3 6.75 11.95 L10.5 12.75 Q20.9 12.2 26.15 6.1 32.35 -1.1 31.05 -15.35 L31.6 -16.85" fill="#000000" fill-opacity="0.09803922" fill-rule="evenodd" stroke="none"/>
  </g>
</svg>
