<?xml version="1.0" encoding="UTF-8" standalone="no"?>
<svg xmlns:xlink="http://www.w3.org/1999/xlink" height="8.4px" width="62.5px" xmlns="http://www.w3.org/2000/svg">
  <g transform="matrix(1.0, 0.0, 0.0, 1.0, 31.3, 4.8)">
    <path d="M30.7 -4.3 L30.7 3.1 -30.8 3.1 -30.8 -4.3 30.7 -4.3" fill="#ffffff" fill-opacity="0.0" fill-rule="evenodd" stroke="none"/>
    <path d="M30.7 -4.3 L30.7 3.1 -30.8 3.1 -30.8 -4.3 30.7 -4.3 Z" fill="none" stroke="#000000" stroke-linecap="round" stroke-linejoin="round" stroke-opacity="0.6" stroke-width="1.0"/>
    <path d="M7.05 -3.55 L7.05 0.5 6.2 0.5 6.2 -3.55 7.05 -3.55 M2.95 -3.55 L2.95 0.5 2.1 0.5 2.1 -3.55 2.95 -3.55 M15.6 -3.55 L15.6 0.45 14.8 0.45 14.8 -3.55 15.6 -3.55 M20.0 -3.55 L20.0 0.45 19.2 0.45 19.2 -3.55 20.0 -3.55 M11.45 -3.55 L11.45 0.45 10.6 0.45 10.6 -3.55 11.45 -3.55 M-10.75 -3.5 L-10.75 0.5 -11.55 0.5 -11.55 -3.5 -10.75 -3.5 M-20.15 -3.4 L-20.1 -2.8 -20.1 0.6 -20.95 0.6 -21.0 -3.55 -20.2 -3.5 -20.15 -3.4 M-15.7 -3.5 L-15.7 0.65 -16.55 0.65 -16.55 -3.5 -15.7 -3.5 M-1.45 -3.55 L-1.45 0.5 -2.3 0.5 -2.3 -3.55 -1.45 -3.55 M-6.3 -3.5 L-6.3 0.6 -7.15 0.6 -7.15 -3.5 -6.3 -3.5" fill="#ffffff" fill-opacity="0.0" fill-rule="evenodd" stroke="none"/>
    <path d="M8.75 -1.55 L9.55 -1.55 9.55 0.2 8.75 0.2 8.75 -1.55 M4.45 -1.65 L5.25 -1.65 5.25 0.2 4.45 0.2 4.45 -1.65 M0.4 -1.25 L1.2 -1.25 1.2 0.2 0.4 0.2 0.4 -1.25 M17.65 -1.45 L18.4 -1.45 18.4 0.2 17.65 0.2 17.65 -1.45 M12.8 -1.45 L13.6 -1.45 13.6 0.2 12.8 0.2 12.8 -1.45 M-13.55 -1.45 L-12.8 -1.45 -12.8 0.2 -13.55 0.2 -13.55 -1.45 M-15.25 -1.45 L-14.45 -1.45 -14.45 0.2 -15.25 0.2 -15.25 -1.45 M-19.4 -1.45 L-18.6 -1.45 -18.6 0.2 -19.4 0.2 -19.4 -1.45 M-1.15 -1.25 L-0.4 -1.25 -0.4 0.2 -1.15 0.2 -1.15 -1.25 M-3.75 -1.35 L-2.95 -1.35 -2.95 0.2 -3.75 0.2 -3.75 -1.35 M-10.2 -1.55 L-9.45 -1.55 -9.45 0.25 -10.2 0.25 -10.2 -1.55" fill="#ffffff" fill-opacity="0.2" fill-rule="evenodd" stroke="none"/>
    <path d="M4.45 -1.65 L4.45 0.2 5.25 0.2 5.25 -1.65 4.45 -1.65 M8.75 -1.55 L8.75 0.2 9.55 0.2 9.55 -1.55 8.75 -1.55 M7.05 -3.55 L7.05 0.5 6.2 0.5 6.2 -3.55 7.05 -3.55 M2.95 -3.55 L2.95 0.5 2.1 0.5 2.1 -3.55 2.95 -3.55 M0.4 -1.25 L0.4 0.2 1.2 0.2 1.2 -1.25 0.4 -1.25 M15.6 -3.55 L15.6 0.45 14.8 0.45 14.8 -3.55 15.6 -3.55 M17.65 -1.45 L17.65 0.2 18.4 0.2 18.4 -1.45 17.65 -1.45 M20.0 -3.55 L20.0 0.45 19.2 0.45 19.2 -3.55 20.0 -3.55 M12.8 -1.45 L12.8 0.2 13.6 0.2 13.6 -1.45 12.8 -1.45 M11.45 -3.55 L11.45 0.45 10.6 0.45 10.6 -3.55 11.45 -3.55 M-15.25 -1.45 L-15.25 0.2 -14.45 0.2 -14.45 -1.45 -15.25 -1.45 M-13.55 -1.45 L-13.55 0.2 -12.8 0.2 -12.8 -1.45 -13.55 -1.45 M-10.75 -3.5 L-10.75 0.5 -11.55 0.5 -11.55 -3.5 -10.75 -3.5 M-19.4 -1.45 L-19.4 0.2 -18.6 0.2 -18.6 -1.45 -19.4 -1.45 M-15.7 -3.5 L-15.7 0.65 -16.55 0.65 -16.55 -3.5 -15.7 -3.5 M-3.75 -1.35 L-3.75 0.2 -2.95 0.2 -2.95 -1.35 -3.75 -1.35 M-1.15 -1.25 L-1.15 0.2 -0.4 0.2 -0.4 -1.25 -1.15 -1.25 M-1.45 -3.55 L-1.45 0.5 -2.3 0.5 -2.3 -3.55 -1.45 -3.55 M-6.3 -3.5 L-6.3 0.6 -7.15 0.6 -7.15 -3.5 -6.3 -3.5 M-10.2 -1.55 L-10.2 0.25 -9.45 0.25 -9.45 -1.55 -10.2 -1.55" fill="none" stroke="#000000" stroke-linecap="round" stroke-linejoin="round" stroke-opacity="0.6" stroke-width="1.0"/>
    <path d="M-20.15 -3.4 L-20.1 -2.8 -20.1 0.6 -20.95 0.6 -21.0 -3.55 -20.2 -3.5 -20.15 -3.4" fill="none" stroke="#000000" stroke-linecap="round" stroke-linejoin="round" stroke-opacity="0.6" stroke-width="1.0"/>
  </g>
</svg>
