<?xml version="1.0" encoding="UTF-8" standalone="no"?>
<svg xmlns:xlink="http://www.w3.org/1999/xlink" height="117.45px" width="375.25px" xmlns="http://www.w3.org/2000/svg">
  <g transform="matrix(1.0, 0.0, 0.0, 1.0, 197.3, 71.25)">
    <path d="M-78.4 -3.05 L-78.4 -3.0 -78.45 -3.05 -78.4 -3.05 -78.45 -3.05 -78.35 -3.25 -78.4 -3.05 M-41.6 -28.0 L-41.75 -27.9 -41.7 -27.95 -43.85 -26.9 Q-46.0 -25.85 -48.55 -24.4 L-53.2 -21.6 Q-61.0 -16.8 -70.8 -9.5 L-72.4 -8.35 Q-53.4 -22.6 -41.65 -28.0 L-41.6 -28.0 -41.7 -27.95 -41.65 -28.0 -41.7 -27.95 -41.6 -28.0 M-76.7 -5.05 L-77.05 -4.8 -76.8 -5.0 -76.7 -5.05 M-77.5 -4.45 L-77.7 -4.25 -77.8 -4.2 -77.75 -4.25 -77.5 -4.45 M-77.9 -4.1 L-78.0 -4.0 -78.1 -3.95 -78.25 -3.6 -78.15 -3.9 -78.1 -3.95 -78.05 -4.0 -77.9 -4.1 M-77.7 -4.25 L-77.75 -4.25 -77.7 -4.25 M-78.0 -4.0 L-78.05 -4.0 -78.0 -4.0" fill="#757679" fill-rule="evenodd" stroke="none"/>
    <path d="M11.6 -17.45 L5.5 2.25 7.2 2.25 79.35 1.2 79.2 1.15 Q63.9 -5.4 39.35 -11.8 24.95 -15.55 14.85 -17.55 L14.55 -17.55 11.65 -17.75 11.6 -17.45 M-78.4 -3.05 L-77.25 -2.6 -76.05 -2.15 Q-70.1 -0.1 -62.15 1.25 -49.15 3.5 -25.25 3.0 L2.2 2.0 8.65 -18.1 2.8 -18.95 -41.6 -28.0 -36.85 -29.9 -15.1 -25.2 Q8.1 -20.55 15.15 -20.55 L44.75 -13.45 Q72.6 -5.9 87.3 1.6 L87.6 1.75 87.3 1.6 101.2 2.75 115.85 5.2 122.35 5.25 133.8 5.3 Q152.95 5.45 159.2 5.9 L164.45 6.7 Q168.1 7.5 171.7 9.05 174.75 10.4 176.05 11.95 L164.45 12.6 59.95 15.9 Q-72.45 17.9 -183.9 8.9 L-196.8 7.8 -187.85 6.3 -162.3 2.95 Q-121.85 -1.6 -78.45 -2.15 L-78.4 -3.0 -78.4 -3.05 M87.6 1.75 Q89.9 2.9 91.85 4.1 L84.4 4.15 43.25 4.6 Q-6.9 5.25 -14.85 6.1 -32.15 6.95 -48.75 6.1 -78.25 4.65 -78.45 -2.15 -78.25 4.65 -48.75 6.1 -32.15 6.95 -14.85 6.1 -6.9 5.25 43.25 4.6 L84.4 4.15 91.85 4.1 Q89.9 2.9 87.6 1.75 M171.7 42.0 L96.75 45.0 Q34.7 46.55 -14.8 44.75 -69.3 42.8 -125.95 33.75 -157.3 28.75 -180.65 23.15 L-189.5 15.2 -196.3 8.3 -191.6 9.05 Q-172.1 11.95 -131.3 14.15 L-43.05 17.9 Q5.5 19.75 96.25 17.9 L164.45 16.15 177.3 15.7 177.35 15.7 177.4 16.95 177.35 19.6 176.65 24.8 Q175.85 29.1 174.3 34.3 L172.95 38.6 171.25 43.25 170.7 44.55 171.7 42.0 M177.4 16.95 L177.35 19.6 177.4 16.95" fill="#ffffff" fill-opacity="0.0" fill-rule="evenodd" stroke="none"/>
    <path d="M11.6 -17.45 L11.65 -17.75 14.55 -17.55 14.85 -17.55 Q24.95 -15.55 39.35 -11.8 63.9 -5.4 79.2 1.15 L79.35 1.2 7.2 2.25 5.5 2.25 11.6 -17.45 M-41.6 -28.0 L2.8 -18.95 8.65 -18.1 2.2 2.0 -25.25 3.0 Q-49.15 3.5 -62.15 1.25 -70.1 -0.1 -76.05 -2.15 L-77.25 -2.6 -78.4 -3.05 -78.35 -3.25 -78.25 -3.6 -78.1 -3.95 -78.0 -4.0 -77.9 -4.1 -77.8 -4.2 -77.7 -4.25 -77.5 -4.45 -77.05 -4.8 -76.7 -5.05 -76.6 -5.1 -75.4 -6.05 -75.3 -6.15 -73.95 -7.15 -72.4 -8.35 -70.8 -9.5 Q-61.0 -16.8 -53.2 -21.6 L-48.55 -24.4 Q-46.0 -25.85 -43.85 -26.9 L-41.7 -27.95 -41.75 -27.9 -41.6 -28.0" fill="#000000" fill-opacity="0.49803922" fill-rule="evenodd" stroke="none"/>
    <path d="M-196.3 8.3 L-196.8 7.8 -183.9 8.9 Q-72.45 17.9 59.95 15.9 L164.45 12.6 176.05 11.95 176.1 11.95 Q176.95 13.7 177.3 15.7 L164.45 16.15 96.25 17.9 Q5.5 19.75 -43.05 17.9 L-131.3 14.15 Q-172.1 11.95 -191.6 9.05 L-196.3 8.3" fill="#cccccc" fill-opacity="0.2" fill-rule="evenodd" stroke="none"/>
    <path d="M-78.4 -3.05 L-78.4 -3.0 -78.45 -3.05 -78.35 -3.4 -78.3 -3.5 -78.35 -3.25 -78.45 -3.05 -78.4 -3.05 -78.35 -3.25 -78.25 -3.6 -78.3 -3.5 M87.6 1.75 L87.3 1.6 Q72.6 -5.9 44.75 -13.45 L15.15 -20.55 Q8.1 -20.55 -15.1 -25.2 L-36.85 -29.9 -41.6 -28.0 -41.75 -27.9 -41.7 -27.95 -43.85 -26.9 Q-46.0 -25.85 -48.55 -24.4 L-53.2 -21.6 Q-61.0 -16.8 -70.8 -9.5 L-72.4 -8.35 -73.95 -7.15 -75.3 -6.15 -75.4 -6.05 -76.6 -5.1 -76.7 -5.05 -77.05 -4.8 -77.5 -4.45 -77.7 -4.25 -77.8 -4.2 -77.9 -4.1 -78.0 -4.0 -78.1 -3.95 -78.25 -3.6 -78.15 -3.9 -78.1 -3.95 -78.05 -4.0 -78.0 -4.0 M122.35 5.25 L126.7 -30.8 Q129.25 -51.6 146.3 -70.75 M-41.65 -28.0 L-41.7 -27.95 -41.6 -28.0 -41.65 -28.0 Q-53.4 -22.6 -72.4 -8.35 M-76.7 -5.05 L-76.8 -5.0 -77.05 -4.8 M-77.5 -4.45 L-77.75 -4.25 -77.7 -4.25 M-77.75 -4.25 L-77.8 -4.2 M-77.9 -4.1 L-78.05 -4.0 M-180.65 23.15 L-189.5 15.2 -196.3 8.3 -196.8 7.8 -187.85 6.3 -162.3 2.95 Q-121.85 -1.6 -78.45 -2.15 M177.3 15.7 Q176.95 13.7 176.1 11.95 L176.05 11.95 Q174.75 10.4 171.7 9.05 168.1 7.5 164.45 6.7 L159.2 5.9 Q152.95 5.45 133.8 5.3 L122.35 5.25 115.85 5.2 101.2 2.75 87.3 1.6 M177.3 15.7 L177.35 15.7 177.4 16.95 177.35 19.6 176.65 24.8 Q175.85 29.1 174.3 34.3 L172.95 38.6 171.25 43.25 170.7 44.55 171.7 42.0 M177.35 19.6 L177.4 16.95" fill="none" stroke="#231f20" stroke-linecap="round" stroke-linejoin="round" stroke-width="1.0"/>
    <path d="M-78.4 -3.0 L-78.45 -2.15 Q-78.25 4.65 -48.75 6.1 -32.15 6.95 -14.85 6.1 -6.9 5.25 43.25 4.6 L84.4 4.15 91.85 4.1 Q89.9 2.9 87.6 1.75" fill="none" stroke="#000000" stroke-linecap="round" stroke-linejoin="round" stroke-opacity="0.6" stroke-width="1.0"/>
    <path d="M171.7 42.0 L96.75 45.0 Q34.7 46.55 -14.8 44.75 -69.3 42.8 -125.95 33.75 -157.3 28.75 -180.65 23.15" fill="none" stroke="#000000" stroke-linecap="round" stroke-linejoin="round" stroke-opacity="0.4" stroke-width="1.0"/>
    <path d="M-196.3 8.3 L-191.6 9.05 Q-172.1 11.95 -131.3 14.15 L-43.05 17.9 Q5.5 19.75 96.25 17.9 L164.45 16.15 177.3 15.7 M176.05 11.95 L164.45 12.6 59.95 15.9 Q-72.45 17.9 -183.9 8.9 L-196.8 7.8" fill="none" stroke="#000000" stroke-linecap="round" stroke-linejoin="round" stroke-opacity="0.2" stroke-width="1.0"/>
  </g>
</svg>
