<?xml version="1.0" encoding="UTF-8" standalone="no"?>
<svg xmlns:xlink="http://www.w3.org/1999/xlink" height="74.75px" width="151.7px" xmlns="http://www.w3.org/2000/svg">
  <g transform="matrix(1.0, 0.0, 0.0, 1.0, 77.8, 39.1)">
    <path d="M65.0 -15.05 L65.35 -14.25 64.95 -15.05 65.0 -15.05 M3.1 -38.55 L3.55 -38.5 3.55 -38.4 3.1 -38.55 M-0.35 17.5 L-0.4 17.25 -0.25 17.5 -0.35 17.5" fill="#ffffff" fill-rule="evenodd" stroke="none"/>
    <path d="M65.35 -14.25 L67.75 -10.0 69.6 -6.0 73.4 10.7 Q73.05 19.9 70.9 24.75 68.8 29.55 64.25 31.55 60.6 33.1 28.85 33.25 13.0 33.35 -2.1 33.1 L-2.1 32.95 Q1.85 31.95 4.0 27.45 L6.1 21.65 7.75 15.8 8.75 12.55 11.5 12.75 Q12.45 12.65 14.2 11.8 15.95 11.05 16.9 11.0 17.7 10.95 18.9 11.7 20.2 12.5 21.0 12.55 L23.95 11.95 27.0 11.2 28.35 11.45 29.8 11.4 30.9 10.15 Q31.45 9.1 31.85 8.85 33.45 7.85 37.05 9.1 40.95 10.5 42.85 9.75 L44.9 8.75 47.0 7.9 49.8 7.6 52.4 7.2 Q54.25 6.4 56.4 3.75 L59.7 -0.45 Q61.2 -2.0 63.8 -4.15 65.65 -6.1 65.75 -9.2 L65.3 -11.95 Q64.95 -14.2 64.95 -15.05 L65.35 -14.25 M-4.55 33.25 Q-7.3 34.35 -12.5 34.05 -16.6 33.8 -23.15 34.3 L-33.95 35.0 -38.0 35.0 Q-40.4 34.95 -41.95 35.05 -44.6 35.3 -48.3 35.0 L-54.8 34.25 -61.45 32.65 -68.1 30.75 -71.8 30.55 Q-74.05 30.5 -75.3 29.9 -78.1 28.65 -76.95 26.05 -76.2 24.35 -74.85 23.4 -70.8 25.15 -60.85 26.35 L-38.1 28.0 Q-26.4 28.4 -16.6 27.95 L-14.35 27.8 -1.8 26.3 Q-0.95 27.7 -1.45 29.65 -1.95 31.9 -3.6 32.8 L-4.55 33.25 M-70.75 21.85 L-73.75 21.3 Q-76.5 20.0 -75.35 17.35 -74.6 15.7 -73.25 14.75 -69.25 16.4 -59.25 17.7 L-36.55 19.35 Q-25.9 19.65 -16.9 19.35 L-15.0 19.2 Q-5.55 18.75 -0.35 17.5 L-0.25 17.5 Q0.7 18.9 0.15 20.95 -0.35 23.2 -1.95 24.15 L-3.7 24.8 -10.9 25.35 Q-12.7 25.25 -15.0 25.3 L-21.6 25.65 -32.35 26.3 -35.95 26.3 -36.35 26.3 -37.7 26.25 -40.35 26.35 Q-43.05 26.55 -46.7 26.25 L-53.25 25.6 Q-55.75 25.3 -59.9 23.95 L-60.65 23.7 -66.5 22.0 -70.15 21.85 -70.75 21.85" fill="#0e0e0e" fill-opacity="0.101960786" fill-rule="evenodd" stroke="none"/>
    <path d="M3.55 -38.5 L9.1 -38.5 11.85 -38.25 17.1 -38.1 25.25 -37.75 Q31.25 -37.2 33.6 -36.4 35.25 -35.8 43.95 -34.1 52.8 -31.5 57.4 -25.85 61.65 -20.55 65.0 -15.05 L64.95 -15.05 Q64.95 -14.2 65.3 -11.95 L65.75 -9.2 Q65.65 -6.1 63.8 -4.15 61.2 -2.0 59.7 -0.45 L56.4 3.75 Q54.25 6.4 52.4 7.2 L49.8 7.6 47.0 7.9 44.9 8.75 42.85 9.75 Q40.95 10.5 37.05 9.1 33.45 7.85 31.85 8.85 31.45 9.1 30.9 10.15 L29.8 11.4 28.35 11.45 27.0 11.2 23.95 11.95 21.0 12.55 Q20.2 12.5 18.9 11.7 17.7 10.95 16.9 11.0 15.95 11.05 14.2 11.8 12.45 12.65 11.5 12.75 L8.75 12.55 Q9.6 9.6 10.05 6.35 10.6 2.4 10.8 -3.5 L11.05 -10.2 11.1 -16.55 Q11.0 -20.25 10.4 -24.0 L9.6 -29.35 Q9.05 -32.45 7.9 -34.55 L7.0 -36.2 5.7 -37.5 Q4.65 -38.25 3.55 -38.4 4.65 -38.25 5.7 -37.5 L7.0 -36.2 7.9 -34.55 Q9.05 -32.45 9.6 -29.35 L10.4 -24.0 Q11.0 -20.25 11.1 -16.55 L11.05 -10.2 10.8 -3.5 Q10.6 2.4 10.05 6.35 9.6 9.6 8.75 12.55 L7.75 15.8 6.1 21.65 4.0 27.45 Q1.85 31.95 -2.1 32.95 L-4.55 33.25 -3.6 32.8 Q-1.95 31.9 -1.45 29.65 -0.95 27.7 -1.8 26.3 L-2.0 26.0 -2.15 25.75 -3.7 24.8 -2.15 25.75 -2.0 26.0 -1.8 26.3 -14.35 27.8 -16.6 27.95 Q-26.4 28.4 -38.1 28.0 L-60.85 26.35 Q-70.8 25.15 -74.85 23.4 L-74.35 23.15 Q-74.05 22.9 -73.6 22.75 L-70.75 21.85 -70.15 21.85 -66.5 22.0 -60.65 23.7 -59.9 23.95 Q-55.75 25.3 -53.25 25.6 L-46.7 26.25 Q-43.05 26.55 -40.35 26.35 L-37.7 26.25 -36.35 26.3 -35.95 26.3 -32.35 26.3 -21.6 25.65 -15.0 25.3 Q-12.7 25.25 -10.9 25.35 L-3.7 24.8 -1.95 24.15 Q-0.35 23.2 0.15 20.95 0.7 18.9 -0.25 17.5 L-0.4 17.25 -0.6 17.05 Q-1.4 16.15 -3.8 15.75 L-7.45 15.4 -12.25 14.65 -16.8 14.05 Q-16.85 9.65 -16.3 6.9 L-15.85 5.35 -15.15 2.65 Q-14.25 0.0 -14.1 -1.75 L-13.6 -6.75 Q-13.3 -9.75 -12.7 -11.75 L-10.6 -18.7 Q-9.35 -22.75 -8.1 -25.55 L-5.65 -31.65 Q-4.05 -35.25 -2.0 -37.05 -0.35 -38.45 1.75 -38.6 L2.05 -38.6 2.6 -38.6 3.1 -38.55 3.55 -38.4 3.55 -38.5 M-73.25 14.75 L-72.8 14.5 -72.05 14.05 Q-68.95 12.8 -64.7 12.5 L-57.15 12.15 -50.9 11.95 -44.75 12.15 -30.9 13.15 -17.05 14.0 -16.8 14.05 -12.25 14.65 -7.45 15.4 -3.8 15.75 Q-1.4 16.15 -0.6 17.05 L-0.4 17.25 -0.35 17.5 Q-5.55 18.75 -15.0 19.2 L-16.9 19.35 Q-25.9 19.65 -36.55 19.35 L-59.25 17.7 Q-69.25 16.4 -73.25 14.75 M1.2 -28.1 Q5.35 -27.6 5.25 -24.1 L4.9 -20.85 Q4.75 -18.7 5.15 -17.5 L6.25 -15.65 7.15 -13.75 Q7.5 -12.35 7.05 -6.9 7.5 -12.35 7.15 -13.75 L6.25 -15.65 5.15 -17.5 Q4.75 -18.7 4.9 -20.85 L5.25 -24.1 Q5.35 -27.6 1.2 -28.1" fill="#ffffff" fill-opacity="0.0" fill-rule="evenodd" stroke="none"/>
    <path d="M2.6 -38.6 L3.1 -38.55 3.55 -38.4 Q4.65 -38.25 5.7 -37.5 L7.0 -36.2 7.9 -34.55 Q9.05 -32.45 9.6 -29.35 L10.4 -24.0 Q11.0 -20.25 11.1 -16.55 L11.05 -10.2 10.8 -3.5 Q10.6 2.4 10.05 6.35 9.6 9.6 8.75 12.55 L7.75 15.8 6.1 21.65 4.0 27.45 Q1.85 31.95 -2.1 32.95" fill="none" stroke="#0e0e0e" stroke-linecap="butt" stroke-linejoin="round" stroke-opacity="0.6" stroke-width="1.0"/>
    <path d="M7.05 -6.9 Q7.5 -12.35 7.15 -13.75 L6.25 -15.65 5.15 -17.5 Q4.75 -18.7 4.9 -20.85 L5.25 -24.1 Q5.35 -27.6 1.2 -28.1" fill="none" stroke="#1b1b1b" stroke-linecap="round" stroke-linejoin="round" stroke-opacity="0.4" stroke-width="1.0"/>
    <path d="M-3.7 24.8 L-10.9 25.35 Q-12.7 25.25 -15.0 25.3 L-21.6 25.65 -32.35 26.3 -35.95 26.3 -36.35 26.3 -37.7 26.25 -40.35 26.35 Q-43.05 26.55 -46.7 26.25 L-53.25 25.6 Q-55.75 25.3 -59.9 23.95 L-60.65 23.7 -66.5 22.0 -70.15 21.85 -70.75 21.85" fill="none" stroke="#1b1b1b" stroke-linecap="butt" stroke-linejoin="round" stroke-opacity="0.8" stroke-width="1.0"/>
    <path d="M-73.25 14.75 Q-69.25 16.4 -59.25 17.7 L-36.55 19.35 Q-25.9 19.65 -16.9 19.35 L-15.0 19.2 Q-5.55 18.75 -0.35 17.5 L-0.25 17.5 M-1.8 26.3 L-14.35 27.8 -16.6 27.95 Q-26.4 28.4 -38.1 28.0 L-60.85 26.35 Q-70.8 25.15 -74.85 23.4" fill="none" stroke="#1b1b1b" stroke-linecap="butt" stroke-linejoin="round" stroke-opacity="0.6" stroke-width="1.0"/>
    <path d="M3.55 -38.5 L9.1 -38.5 11.85 -38.25 17.1 -38.1 25.25 -37.75 Q31.25 -37.2 33.6 -36.4 35.25 -35.8 43.95 -34.1 52.8 -31.5 57.4 -25.85 61.65 -20.55 65.0 -15.05 L65.35 -14.25 67.75 -10.0 69.6 -6.0 73.4 10.7 Q73.05 19.9 70.9 24.75 68.8 29.55 64.25 31.55 60.6 33.1 28.85 33.25 13.0 33.35 -2.1 33.1 L-2.1 32.95 -4.55 33.25 Q-7.3 34.35 -12.5 34.05 -16.6 33.8 -23.15 34.3 L-33.95 35.0 -38.0 35.0 Q-40.4 34.95 -41.95 35.05 -44.6 35.3 -48.3 35.0 L-54.8 34.25 -61.45 32.65 -68.1 30.75 -71.8 30.55 Q-74.05 30.5 -75.3 29.9 -78.1 28.65 -76.95 26.05 -76.2 24.35 -74.85 23.4 L-74.35 23.15 Q-74.05 22.9 -73.6 22.75 L-70.75 21.85 -73.75 21.3 Q-76.5 20.0 -75.35 17.35 -74.6 15.7 -73.25 14.75 L-72.8 14.5 -72.05 14.05 Q-68.95 12.8 -64.7 12.5 L-57.15 12.15 -50.9 11.95 -44.75 12.15 -30.9 13.15 -17.05 14.0 -16.8 14.05 Q-16.85 9.65 -16.3 6.9 L-15.85 5.35 -15.15 2.65 Q-14.25 0.0 -14.1 -1.75 L-13.6 -6.75 Q-13.3 -9.75 -12.7 -11.75 L-10.6 -18.7 Q-9.35 -22.75 -8.1 -25.55 L-5.65 -31.65 Q-4.05 -35.25 -2.0 -37.05 -0.35 -38.45 1.75 -38.6 L2.05 -38.6 2.6 -38.6 M3.1 -38.55 L3.55 -38.5 M64.95 -15.05 L65.35 -14.25 M-0.4 17.25 L-0.6 17.05 Q-1.4 16.15 -3.8 15.75 L-7.45 15.4 -12.25 14.65 -16.8 14.05 M-0.4 17.25 L-0.25 17.5 Q0.7 18.9 0.15 20.95 -0.35 23.2 -1.95 24.15 L-3.7 24.8 -2.15 25.75 -2.0 26.0 -1.8 26.3 Q-0.95 27.7 -1.45 29.65 -1.95 31.9 -3.6 32.8 L-4.55 33.25" fill="none" stroke="#000000" stroke-linecap="butt" stroke-linejoin="round" stroke-width="1.0"/>
  </g>
</svg>
