<?xml version="1.0" encoding="UTF-8" standalone="no"?>
<svg xmlns:xlink="http://www.w3.org/1999/xlink" height="81.6px" width="187.3px" xmlns="http://www.w3.org/2000/svg">
  <g transform="matrix(1.0, 0.0, 0.0, 1.0, 93.65, 20.4)">
    <path d="M49.65 -16.1 L52.5 -15.7 50.65 -19.9 59.3 -18.9 50.7 -19.8 51.9 -17.25 52.6 -15.7 52.7 -15.5 49.65 -16.1 M52.5 -15.7 L52.6 -15.7 52.5 -15.7 M-15.55 -14.8 L-15.65 -15.65 -15.7 -16.05 -15.55 -14.8" fill="#ffffff" fill-rule="evenodd" stroke="none"/>
    <path d="M71.9 -14.7 L72.25 -14.75 72.1 -14.55 71.9 -14.7" fill="#c4c5c7" fill-rule="evenodd" stroke="none"/>
    <path d="M-36.8 -18.7 L-36.0 -18.9 -35.85 -18.85 -36.0 -18.8 -36.8 -18.7 M-39.1 20.2 L-39.2 20.9 -39.3 21.45 -39.2 20.9 -39.35 21.75 -39.3 21.45 -39.1 20.2 M62.8 14.7 L62.75 14.6 63.1 14.55 62.8 14.7 M53.95 -13.1 L53.55 -14.95 52.7 -15.5 52.6 -15.7 53.55 -15.5 53.95 -13.1 M-63.3 19.0 L-63.65 20.1 -63.45 19.45 -63.3 19.0" fill="#dddfe0" fill-rule="evenodd" stroke="none"/>
    <path d="M40.0 -13.35 L39.95 -13.3 39.8 -13.45 40.0 -13.35 M-17.65 -13.4 L-17.5 -13.45 -17.6 -13.35 -17.65 -13.3 -17.65 -13.4" fill="#96999b" fill-rule="evenodd" stroke="none"/>
    <path d="M-18.35 57.8 L-19.0 57.8 -20.6 57.8 -19.0 57.55 -18.3 57.45 -18.35 57.8 M40.1 41.45 L39.5 41.75 39.75 42.5 39.45 41.75 40.1 41.45 M5.75 52.95 L5.15 53.1 4.4 53.25 4.15 53.3 5.15 53.1 5.75 52.95 M63.6 28.7 L63.7 28.6 63.75 28.95 63.6 28.7 M31.85 44.9 L30.75 45.5 15.35 51.5 13.1 51.75 Q12.45 51.65 12.1 51.35 22.5 48.5 31.85 44.9 M7.95 39.85 L8.2 39.5 8.0 39.85 7.95 39.85 M1.25 41.4 L1.3 41.5 1.25 41.4 M39.5 41.75 L39.45 41.75 39.5 41.75" fill="#d7d8da" fill-rule="evenodd" stroke="none"/>
    <path d="M-34.6 -18.95 L-34.4 -19.05 -33.95 -19.0 -34.6 -18.95 M-33.95 -19.0 L-33.8 -19.0 -33.95 -19.0 M-39.45 22.25 L-39.3 21.45 -39.35 21.75 -39.45 22.25" fill="#b1b3b5" fill-rule="evenodd" stroke="none"/>
    <path d="M70.85 10.9 L71.55 10.55 Q72.1 10.25 72.7 10.05 L70.85 10.9 M28.8 32.3 L29.05 32.7 30.5 36.4 28.8 32.3 M12.1 51.35 L11.75 50.8 9.85 45.9 12.1 51.35 M7.9 40.95 Q7.7 40.4 7.95 39.85 L8.0 39.85 9.5 39.45 7.95 39.85 7.9 40.95 M7.95 39.85 L8.0 39.85 7.95 39.85 M-63.95 16.95 Q-62.0 12.85 -60.8 8.2 L-60.7 7.8 -60.85 8.5 -60.9 8.75 -60.8 8.2 -60.9 8.75 -61.1 9.4 Q-62.0 12.6 -63.4 15.8 L-63.95 16.95" fill="#e3e4e5" fill-rule="evenodd" stroke="none"/>
    <path d="M-60.9 8.75 L-60.85 8.5 -61.05 9.45 -60.9 8.75 -61.05 9.45 -61.1 9.4 -60.9 8.75" fill="#9c9ea1" fill-rule="evenodd" stroke="none"/>
    <path d="M39.75 -16.2 L38.5 -16.2 39.7 -16.25 39.75 -16.2 M-33.45 -1.55 L-33.5 -1.7 -33.5 -2.6 -33.45 -2.6 -33.35 -2.55 -33.45 -1.55" fill="#b2b4b7" fill-rule="evenodd" stroke="none"/>
    <path d="M-32.9 -6.25 L-33.35 -2.55 -33.45 -2.6 -32.9 -6.25 M-26.75 -6.6 L-24.85 -8.4 -24.8 -8.35 -25.45 -7.8 -26.75 -6.6 M-15.75 -16.2 L-17.45 -16.25 -17.5 -16.2 -17.45 -16.25 -15.75 -16.2" fill="#e6e7e8" fill-rule="evenodd" stroke="none"/>
    <path d="M39.75 42.5 L39.9 42.95 Q40.35 44.1 39.4 45.45 40.15 44.35 39.75 42.5 M31.9 26.2 Q33.45 26.5 33.9 27.65 L34.55 29.25 34.7 29.65 34.55 29.3 Q33.5 26.55 31.9 26.2 M1.25 41.4 L0.9 40.5 Q0.45 39.4 1.35 38.15 0.5 39.4 1.25 41.4 M34.55 29.25 L34.55 29.3 34.55 29.25" fill="#c8cacb" fill-rule="evenodd" stroke="none"/>
    <path d="M66.55 56.85 L65.5 56.8 Q37.15 57.8 6.65 57.95 L-18.35 57.8 -18.3 57.45 -17.6 57.35 -16.9 57.25 -15.1 57.0 -14.1 56.85 -13.55 56.75 4.15 53.3 4.4 53.25 5.15 53.1 5.75 52.95 6.9 55.85 Q7.35 57.0 9.0 57.35 10.65 57.65 12.5 56.95 L36.5 47.6 Q38.4 46.85 39.35 45.5 L39.4 45.45 Q40.35 44.1 39.9 42.95 L39.75 42.5 39.5 41.75 40.1 41.45 56.95 32.55 59.65 30.8 63.6 28.7 63.75 28.95 64.4 34.9 64.45 35.05 64.8 37.9 65.4 41.9 65.45 42.3 Q67.1 52.85 66.55 56.85 M-55.25 -10.75 L-55.05 -11.1 -55.05 -11.15 Q-53.5 -13.75 -50.5 -15.7 L-50.1 -15.9 -49.1 -16.35 Q-45.55 -17.75 -36.8 -18.7 L-36.0 -18.8 -37.05 -13.95 -38.15 -8.75 Q-40.55 3.05 -42.2 13.45 -45.75 36.25 -45.1 48.15 L-45.7 48.2 -67.15 48.95 -67.65 48.95 -68.45 48.9 -69.85 48.9 -69.85 48.85 -70.05 48.35 -70.4 47.2 -70.45 47.05 -70.95 44.0 -71.05 42.4 -70.6 37.25 -70.4 36.95 -70.15 36.5 -69.9 36.1 -63.65 20.1 -63.3 19.0 -61.05 9.45 -60.85 8.5 -60.7 7.8 Q-60.5 7.1 -60.6 6.45 L-60.65 6.25 -60.55 5.85 -60.2 4.7 -59.85 3.65 -57.55 -4.45 Q-56.4 -8.65 -55.25 -10.75 M-39.2 20.9 L4.4 22.0 Q29.35 22.45 47.85 22.25 L34.55 29.25 33.9 27.65 Q33.45 26.5 31.9 26.2 L31.8 26.15 Q30.15 25.8 28.3 26.55 L4.3 35.9 Q2.45 36.6 1.45 38.0 L1.35 38.15 Q0.45 39.4 0.9 40.5 L1.25 41.4 1.3 41.5 Q-16.6 45.65 -40.6 47.75 L-41.45 47.85 -41.6 41.55 Q-41.55 32.75 -40.35 27.15 L-40.25 26.75 -39.45 22.25 -39.35 21.75 -39.2 20.9 M8.2 39.5 L8.25 39.35 Q8.85 38.45 10.05 38.0 L25.45 32.0 Q26.65 31.5 27.7 31.75 28.45 31.9 28.8 32.3 L9.5 39.45 8.0 39.85 8.2 39.5" fill="#ffffff" fill-opacity="0.0" fill-rule="evenodd" stroke="none"/>
    <path d="M84.55 5.15 Q88.25 3.9 89.0 4.15 92.75 6.85 93.1 12.6 93.25 15.5 92.65 17.8 L87.8 17.95 Q82.3 19.05 73.0 23.55 L63.7 28.6 63.6 28.7 59.65 30.8 56.95 32.55 40.1 41.45 39.45 41.75 34.7 29.65 34.55 29.25 47.85 22.25 Q56.0 18.0 62.8 14.7 L63.1 14.55 65.45 13.45 70.85 10.9 72.7 10.05 79.75 7.0 80.05 6.85 84.55 5.15 M-20.6 57.8 L-31.9 59.1 -67.45 60.7 -81.7 60.15 Q-84.4 60.35 -89.0 55.3 L-93.0 50.15 Q-94.05 45.35 -88.65 40.1 -85.9 37.5 -83.0 35.8 -75.5 30.8 -68.3 17.55 -65.5 12.35 -63.6 7.8 L-63.55 7.65 -63.5 7.6 -63.1 6.55 -62.6 5.25 Q-61.45 5.2 -60.95 5.75 L-60.65 6.25 -60.6 6.45 Q-60.5 7.1 -60.7 7.8 L-60.8 8.2 Q-62.0 12.85 -63.95 16.95 L-64.55 18.15 Q-68.85 26.55 -76.85 34.75 -80.85 38.85 -85.3 42.4 L-89.0 45.15 Q-88.35 47.35 -79.95 48.25 L-74.0 48.7 -69.85 48.9 -68.45 48.9 -67.65 48.95 -67.15 48.95 -45.7 48.2 -45.1 48.15 -41.45 47.85 -40.6 47.75 Q-16.6 45.65 1.3 41.5 L5.75 52.95 5.15 53.1 4.15 53.3 -13.55 56.75 -14.1 56.85 -15.1 57.0 -16.9 57.25 -17.6 57.35 -18.3 57.45 -19.0 57.55 -20.6 57.8 M30.5 36.4 L32.9 42.55 Q33.2 43.3 32.6 44.15 L31.85 44.9 Q22.5 48.5 12.1 51.35 L9.85 45.9 7.9 40.95 7.95 39.85 9.5 39.45 28.8 32.3 30.5 36.4 M-68.0 51.9 L-85.0 51.05 -79.7 51.75 -67.35 52.55 -64.85 52.6 -41.2 51.5 -33.65 50.6 Q-23.5 49.2 -13.25 46.8 L-36.95 50.05 -37.8 50.15 -41.3 50.5 -68.0 51.9" fill="#ffffff" fill-opacity="0.101960786" fill-rule="evenodd" stroke="none"/>
    <path d="M55.8 -2.65 L47.25 -1.65 41.7 -1.45 Q41.45 -1.55 41.25 -2.3 40.7 -4.05 40.3 -9.0 L40.0 -13.25 46.75 -7.9 53.05 -2.95 47.75 -7.8 47.15 -8.3 Q42.1 -12.65 40.0 -13.35 L39.8 -16.2 39.75 -16.2 45.25 -16.3 45.75 -16.3 46.9 -16.25 47.15 -16.25 47.55 -16.25 49.65 -16.1 52.7 -15.5 53.55 -14.95 53.95 -13.1 54.05 -12.55 Q55.6 -5.1 55.8 -2.65 M-35.85 -18.85 L-35.55 -18.85 -34.6 -18.95 -33.95 -19.0 -33.8 -19.0 -34.35 -15.25 -34.45 -14.55 -34.65 -12.95 -39.1 20.2 -39.3 21.45 -39.45 22.25 -40.25 26.75 -40.35 27.15 Q-41.55 32.75 -41.6 41.55 L-41.45 47.85 -45.1 48.15 Q-45.75 36.25 -42.2 13.45 -40.55 3.05 -38.15 -8.75 L-37.05 -13.95 -36.0 -18.8 -35.85 -18.85 M41.25 -2.3 L46.75 -7.9 41.25 -2.3 M54.2 -3.05 Q52.8 -11.55 52.05 -14.2 L52.65 -9.45 Q53.4 -4.4 54.2 -3.05 M51.3 -12.7 L47.15 -8.3 51.3 -12.7 M-32.9 -6.25 L-31.25 -14.95 -31.1 -15.1 Q-29.8 -16.2 -22.95 -16.3 L-17.5 -16.25 -17.45 -16.25 -17.5 -16.2 -17.5 -15.65 -17.65 -13.4 Q-19.7 -12.7 -24.45 -8.65 L-24.8 -8.35 -24.85 -8.4 -26.75 -6.6 -30.75 -2.95 -24.45 -7.95 -18.9 -2.3 -24.45 -7.95 -17.65 -13.3 Q-18.15 -4.65 -18.9 -2.3 -19.15 -1.55 -19.4 -1.45 -29.3 -1.55 -33.35 -2.55 L-32.9 -6.25 M-29.0 -12.7 L-24.85 -8.4 -29.0 -12.7 M-29.75 -14.2 Q-30.5 -11.55 -31.9 -3.05 -30.65 -5.2 -29.75 -14.2" fill="#000000" fill-opacity="0.101960786" fill-rule="evenodd" stroke="none"/>
    <path d="M55.8 -2.65 L55.8 -1.7 Q55.6 -0.55 49.2 -0.05 L39.05 -0.45 Q38.55 -3.0 38.2 -6.25 37.45 -12.75 38.05 -16.2 L38.5 -16.2 39.75 -16.2 39.8 -16.2 40.0 -13.35 Q42.1 -12.65 47.15 -8.3 L47.75 -7.8 53.05 -2.95 46.75 -7.9 40.0 -13.25 40.3 -9.0 Q40.7 -4.05 41.25 -2.3 41.45 -1.55 41.7 -1.45 L47.25 -1.65 55.8 -2.65 M40.0 -13.35 L39.8 -13.45 39.95 -13.3 40.0 -13.35 M59.3 -18.9 L65.5 -17.7 Q68.95 -16.8 71.9 -14.7 L72.1 -14.55 72.25 -14.75 Q73.5 -14.85 74.45 -14.0 L86.15 -3.5 Q87.3 -2.5 87.15 -1.0 87.05 0.0 86.4 0.75 85.55 1.65 84.35 1.75 L83.3 1.6 84.55 5.15 80.05 6.85 79.75 7.0 72.7 10.05 Q72.1 10.25 71.55 10.55 L70.85 10.9 65.45 13.45 63.1 14.55 62.75 14.6 Q61.45 5.3 57.15 -5.8 L54.05 -12.55 53.95 -13.1 53.55 -15.5 52.6 -15.7 51.9 -17.25 50.7 -19.8 59.3 -18.9 M87.8 17.95 Q89.35 25.75 90.5 35.3 92.3 44.2 90.0 48.9 L89.35 50.05 89.25 50.2 68.75 56.85 66.55 56.85 Q67.1 52.85 65.45 42.3 L65.4 41.9 64.8 37.9 64.45 35.05 64.4 34.9 63.75 28.95 63.7 28.6 73.0 23.55 Q82.3 19.05 87.8 17.95 M-63.6 7.8 L-64.05 7.8 Q-65.05 7.8 -65.8 7.25 -66.8 6.5 -67.0 5.3 -67.15 4.05 -66.45 3.05 L-57.1 -9.6 Q-56.4 -10.55 -55.25 -10.75 -56.4 -8.65 -57.55 -4.45 L-59.85 3.65 -60.2 4.7 -60.2 4.75 -60.95 5.75 Q-61.45 5.2 -62.6 5.25 L-63.1 6.55 -63.5 7.6 -63.55 7.65 -63.6 7.8 M83.3 1.6 Q78.9 -9.65 72.1 -14.55 78.9 -9.65 83.3 1.6 M39.4 45.45 L39.35 45.5 Q38.4 46.85 36.5 47.6 L12.5 56.95 Q10.65 57.65 9.0 57.35 7.35 57.0 6.9 55.85 L5.75 52.95 1.3 41.5 1.25 41.4 Q0.5 39.4 1.35 38.15 L1.45 38.0 Q2.45 36.6 4.3 35.9 L28.3 26.55 Q30.15 25.8 31.8 26.15 L31.9 26.2 Q33.5 26.55 34.55 29.3 L34.7 29.65 39.45 41.75 39.75 42.5 Q40.15 44.35 39.4 45.45 M28.8 32.3 Q28.45 31.9 27.7 31.75 26.65 31.5 25.45 32.0 L10.05 38.0 Q8.85 38.45 8.25 39.35 L8.2 39.5 7.95 39.85 Q7.7 40.4 7.9 40.95 L9.85 45.9 11.75 50.8 12.1 51.35 Q12.45 51.65 13.1 51.75 L15.35 51.5 30.75 45.5 31.85 44.9 32.6 44.15 Q33.2 43.3 32.9 42.55 L30.5 36.4 29.05 32.7 28.8 32.3 M3.6 39.2 L2.95 39.25 Q2.15 39.6 2.35 40.15 L8.35 55.2 Q8.6 55.7 9.4 55.45 10.25 55.05 10.0 54.55 L4.0 39.5 Q3.95 39.3 3.6 39.2 M-79.95 48.25 Q-88.35 47.35 -89.0 45.15 L-85.3 42.4 Q-80.85 38.85 -76.85 34.75 -68.85 26.55 -64.55 18.15 L-63.95 16.95 -63.4 15.8 Q-62.0 12.6 -61.1 9.4 L-61.05 9.45 -63.3 19.0 -63.45 19.45 -63.65 20.1 -69.9 36.1 -70.15 36.5 -70.4 36.95 -70.6 37.25 -70.85 37.65 Q-74.8 44.1 -79.4 47.9 L-79.95 48.25 M31.55 30.45 L30.55 30.35 Q29.75 30.7 29.85 31.1 L34.25 42.05 35.25 42.15 Q36.05 41.8 35.9 41.4 L31.55 30.45 M-33.35 -2.55 Q-29.3 -1.55 -19.4 -1.45 -19.15 -1.55 -18.9 -2.3 -18.15 -4.65 -17.65 -13.3 L-17.6 -13.35 -17.5 -13.45 -17.65 -13.4 -17.5 -15.65 -17.5 -16.2 -17.45 -16.25 -15.75 -16.2 -15.7 -16.05 -15.65 -15.65 -15.55 -14.8 Q-15.25 -8.8 -15.95 -5.85 L-16.75 -0.45 -26.9 -0.05 Q-32.9 -0.5 -33.45 -1.55 L-33.35 -2.55 M-24.45 -7.95 L-30.75 -2.95 -26.75 -6.6 -25.45 -7.8 -24.8 -8.35 -24.45 -8.65 Q-19.7 -12.7 -17.65 -13.4 L-17.65 -13.3 -24.45 -7.95" fill="#000000" fill-opacity="0.2" fill-rule="evenodd" stroke="none"/>
    <path d="M54.2 -3.05 Q53.4 -4.4 52.65 -9.45 L52.05 -14.2 Q52.8 -11.55 54.2 -3.05 M3.6 39.2 Q3.95 39.3 4.0 39.5 L10.0 54.55 Q10.25 55.05 9.4 55.45 8.6 55.7 8.35 55.2 L2.35 40.15 Q2.15 39.6 2.95 39.25 L3.6 39.2 M31.55 30.45 L35.9 41.4 Q36.05 41.8 35.25 42.15 L34.25 42.05 29.85 31.1 Q29.75 30.7 30.55 30.35 L31.55 30.45 M-29.75 -14.2 Q-30.65 -5.2 -31.9 -3.05 -30.5 -11.55 -29.75 -14.2 M-68.0 51.9 L-41.3 50.5 -37.8 50.15 -36.95 50.05 -13.25 46.8 Q-23.5 49.2 -33.65 50.6 L-41.2 51.5 -64.85 52.6 -67.35 52.55 -79.7 51.75 -85.0 51.05 -68.0 51.9" fill="#ffffff" fill-opacity="0.3019608" fill-rule="evenodd" stroke="none"/>
    <path d="M65.5 -17.7 Q68.95 -16.8 71.9 -14.7 L72.25 -14.75 Q73.5 -14.85 74.45 -14.0 L86.15 -3.5 Q87.3 -2.5 87.15 -1.0 87.05 0.0 86.4 0.75 85.55 1.65 84.35 1.75 L83.3 1.6 84.55 5.15 Q88.25 3.9 89.0 4.15 92.75 6.85 93.1 12.6 93.25 15.5 92.65 17.8 L87.8 17.95 Q89.35 25.75 90.5 35.3 92.3 44.2 90.0 48.9 L89.35 50.05 89.25 50.2 68.75 56.85 66.55 56.85 65.5 56.8 Q37.15 57.8 6.65 57.95 L-18.35 57.8 -19.0 57.8 -20.6 57.8 -31.9 59.1 -67.45 60.7 -81.7 60.15 Q-84.4 60.35 -89.0 55.3 L-93.0 50.15 Q-94.05 45.35 -88.65 40.1 -85.9 37.5 -83.0 35.8 -75.5 30.8 -68.3 17.55 -65.5 12.35 -63.6 7.8 L-64.05 7.8 Q-65.05 7.8 -65.8 7.25 -66.8 6.5 -67.0 5.3 -67.15 4.05 -66.45 3.05 L-57.1 -9.6 Q-56.4 -10.55 -55.25 -10.75 M-69.85 48.9 L-74.0 48.7 -79.95 48.25" fill="none" stroke="#231f20" stroke-linecap="round" stroke-linejoin="round" stroke-width="1.0"/>
    <path d="M50.65 -19.9 L59.3 -18.9 65.5 -17.7 M-55.25 -10.75 L-55.05 -11.1 -55.05 -11.15 Q-53.5 -13.75 -50.5 -15.7 L-50.1 -15.9 -49.1 -16.35 Q-45.55 -17.75 -36.8 -18.7 L-36.0 -18.8 -35.85 -18.85 -35.55 -18.85 -34.6 -18.95 -33.95 -19.0 -33.8 -19.05 M-70.6 37.25 L-71.05 42.4 -70.95 44.0 -70.45 47.05 -70.4 47.2 -70.05 48.35 -69.85 48.85 -69.85 48.9 M-79.95 48.25 L-79.4 47.9 Q-74.8 44.1 -70.85 37.65 L-70.6 37.25" fill="none" stroke="#000000" stroke-linecap="round" stroke-linejoin="round" stroke-width="1.0"/>
    <path d="M38.5 -16.2 L38.05 -16.2 Q37.45 -12.75 38.2 -6.25 38.55 -3.0 39.05 -0.45 L49.2 -0.05 Q55.6 -0.55 55.8 -1.7 L55.8 -2.65 Q55.6 -5.1 54.05 -12.55 L53.95 -13.1 53.55 -15.5 52.6 -15.7 52.5 -15.7 49.65 -16.1 47.55 -16.25 47.15 -16.25 46.9 -16.25 45.75 -16.3 45.25 -16.3 39.75 -16.2 38.5 -16.2 M47.85 22.25 Q56.0 18.0 62.8 14.7 L63.1 14.55 65.45 13.45 70.85 10.9 72.7 10.05 79.75 7.0 M72.1 -14.55 Q78.9 -9.65 83.3 1.6 M71.9 -14.7 L72.1 -14.55 M80.05 6.85 L84.55 5.15 M63.6 28.7 L59.65 30.8 56.95 32.55 40.1 41.45 39.5 41.75 39.75 42.5 Q40.15 44.35 39.4 45.45 L39.35 45.5 Q38.4 46.85 36.5 47.6 L12.5 56.95 Q10.65 57.65 9.0 57.35 7.35 57.0 6.9 55.85 L5.75 52.95 5.15 53.1 4.4 53.25 4.15 53.3 -13.55 56.75 -14.1 56.85 -15.1 57.0 -16.9 57.25 -17.6 57.35 -18.3 57.45 -19.0 57.55 -20.6 57.8 M63.7 28.6 L63.6 28.7 M63.7 28.6 L73.0 23.55 Q82.3 19.05 87.8 17.95 M9.5 39.45 L28.8 32.3 M7.95 39.85 L9.5 39.45 M1.35 38.15 L1.45 38.0 Q2.45 36.6 4.3 35.9 L28.3 26.55 Q30.15 25.8 31.8 26.15 L31.9 26.2 Q33.5 26.55 34.55 29.3 L34.55 29.25 47.85 22.25 M1.3 41.5 L1.25 41.4 Q0.5 39.4 1.35 38.15 M1.3 41.5 Q-16.6 45.65 -40.6 47.75 L-41.45 47.85 -45.1 48.15 -45.7 48.2 -67.15 48.95 -67.65 48.95 -68.45 48.9 -69.85 48.9 M-60.7 7.8 Q-60.5 7.1 -60.6 6.45 L-60.65 6.25 -60.95 5.75 Q-61.45 5.2 -62.6 5.25 L-63.1 6.55 -63.5 7.6 -63.55 7.65 -63.6 7.8 M34.7 29.65 L39.45 41.75 39.5 41.75 M34.55 29.3 L34.7 29.65 M4.15 53.3 L5.15 53.1 5.75 52.95 1.3 41.5 M12.1 51.35 Q22.5 48.5 31.85 44.9 M-60.2 4.7 L-59.85 3.65 -57.55 -4.45 Q-56.4 -8.65 -55.25 -10.75 M-17.45 -16.25 L-17.5 -16.25 -22.95 -16.3 Q-29.8 -16.2 -31.1 -15.1 L-31.25 -14.95 -32.9 -6.25 -33.35 -2.55 -33.45 -1.55 Q-32.9 -0.5 -26.9 -0.05 L-16.75 -0.45 -15.95 -5.85 Q-15.25 -8.8 -15.55 -14.8 L-15.7 -16.05 -15.75 -16.2 -17.45 -16.25 M-24.8 -8.35 L-24.85 -8.4 M-60.55 5.85 L-60.2 4.7 M-60.65 6.25 L-60.55 5.85 M-60.9 8.75 L-61.05 9.45 -63.3 19.0 -63.65 20.1 -69.9 36.1 -70.15 36.5 -70.4 36.95 -70.6 37.25 M-60.8 8.2 L-60.9 8.75" fill="none" stroke="#000000" stroke-linecap="round" stroke-linejoin="round" stroke-opacity="0.6" stroke-width="1.0"/>
    <path d="M53.05 -2.95 L47.75 -7.8 47.15 -8.3 Q42.1 -12.65 40.0 -13.35 M52.5 -15.7 L50.65 -19.9 M-33.8 -19.05 L-33.8 -19.0 -34.35 -15.25 -34.45 -14.55 -34.65 -12.95 -39.1 20.2 -39.2 20.9 4.4 22.0 Q29.35 22.45 47.85 22.25 M62.8 14.7 L62.75 14.6 Q61.45 5.3 57.15 -5.8 L54.05 -12.55 M46.75 -7.9 L41.25 -2.3 M47.15 -8.3 L51.3 -12.7 M63.75 28.95 L63.7 28.6 M63.75 28.95 L64.4 34.9 64.45 35.05 64.8 37.9 65.4 41.9 65.45 42.3 Q67.1 52.85 66.55 56.85 M8.2 39.5 L8.25 39.35 Q8.85 38.45 10.05 38.0 L25.45 32.0 Q26.65 31.5 27.7 31.75 28.45 31.9 28.8 32.3 L30.5 36.4 32.9 42.55 Q33.2 43.3 32.6 44.15 L31.85 44.9 30.75 45.5 15.35 51.5 13.1 51.75 Q12.45 51.65 12.1 51.35 L9.85 45.9 7.9 40.95 7.95 39.85 8.0 39.85 8.2 39.5 M-79.95 48.25 Q-88.35 47.35 -89.0 45.15 L-85.3 42.4 Q-80.85 38.85 -76.85 34.75 -68.85 26.55 -64.55 18.15 L-63.95 16.95 Q-62.0 12.85 -60.8 8.2 L-60.7 7.8 M-18.9 -2.3 L-24.45 -7.95 M-30.75 -2.95 L-26.75 -6.6 -24.85 -8.4 -29.0 -12.7 M-17.65 -13.4 Q-19.7 -12.7 -24.45 -8.65 L-24.8 -8.35 M-39.45 22.25 L-39.3 21.45 -39.2 20.9 M-39.45 22.25 L-40.25 26.75 -40.35 27.15 Q-41.55 32.75 -41.6 41.55 L-41.45 47.85" fill="none" stroke="#000000" stroke-linecap="round" stroke-linejoin="round" stroke-opacity="0.4" stroke-width="1.0"/>
  </g>
</svg>
