<?xml version="1.0" encoding="UTF-8" standalone="no"?>
<svg xmlns:xlink="http://www.w3.org/1999/xlink" height="229.85px" width="170.9px" xmlns="http://www.w3.org/2000/svg">
  <g transform="matrix(1.0, 0.0, 0.0, 1.0, 85.45, 115.15)">
    <path d="M-36.6 113.65 Q-39.7 110.5 -40.45 93.3 -41.25 76.1 -46.6 62.25 -48.8 56.6 -54.2 47.65 -57.35 42.4 -64.6 30.9 -78.55 8.05 -82.6 -8.7 -88.0 -31.0 -81.05 -53.3 -73.8 -76.6 -54.6 -94.7 -41.95 -106.65 -25.8 -111.4 -14.8 -114.65 1.1 -114.65 14.8 -114.65 25.8 -111.4 41.95 -106.65 54.6 -94.7 73.8 -76.6 81.05 -53.3 88.0 -31.0 82.6 -8.7 78.55 8.05 64.6 30.9 57.35 42.4 54.2 47.65 48.8 56.6 45.0 67.25 41.15 77.9 39.4 92.7 37.65 107.5 35.6 113.25 -0.5 115.9 -36.6 113.65" fill="#ffffff" fill-opacity="0.0" fill-rule="evenodd" stroke="none"/>
    <path d="M35.6 113.25 Q37.65 107.5 39.4 92.7 41.15 77.9 45.0 67.25 48.8 56.6 54.2 47.65 57.35 42.4 64.6 30.9 78.55 8.05 82.6 -8.7 88.0 -31.0 81.05 -53.3 73.8 -76.6 54.6 -94.7 41.95 -106.65 25.8 -111.4 14.8 -114.65 1.1 -114.65 -14.8 -114.65 -25.8 -111.4 -41.95 -106.65 -54.6 -94.7 -73.8 -76.6 -81.05 -53.3 -88.0 -31.0 -82.6 -8.7 -78.55 8.05 -64.6 30.9 -57.35 42.4 -54.2 47.65 -48.8 56.6 -46.6 62.25 -41.25 76.1 -40.45 93.3 -39.7 110.5 -36.6 113.65" fill="none" stroke="#000000" stroke-linecap="round" stroke-linejoin="round" stroke-width="1.0"/>
  </g>
</svg>
