<?xml version="1.0" encoding="UTF-8" standalone="no"?>
<svg xmlns:xlink="http://www.w3.org/1999/xlink" height="1333.6px" width="1796.0px" xmlns="http://www.w3.org/2000/svg">
  <g transform="matrix(1.0, 0.0, 0.0, 1.0, 898.0, 666.8)">
    <path d="M25.1 666.3 L-47.1 666.3 -47.1 558.5 25.1 558.5 25.1 666.3 M-541.5 666.3 L-606.5 666.3 -606.5 561.1 -541.5 561.1 -541.5 666.3" fill="#000000" fill-opacity="0.49803922" fill-rule="evenodd" stroke="none"/>
    <path d="M-151.7 -632.7 L891.5 -30.9 830.1 50.3 628.1 -70.1 628.1 -111.9 616.1 -119.5 552.1 -115.3 328.1 -248.7 328.1 -296.9 312.1 -309.1 232.1 -305.9 -169.9 -545.5 -649.5 -408.3 -761.7 -443.7 -151.7 -632.7 M51.5 666.3 L25.1 666.3 25.1 558.5 -47.1 558.5 -47.1 666.3 -85.5 666.3 -127.7 666.3 -127.7 519.7 -85.5 522.7 51.5 532.1 51.5 666.3 M-231.1 666.3 L-322.5 666.3 -322.5 522.5 -231.1 522.5 -231.1 666.3 M-483.7 666.3 L-541.5 666.3 -541.5 561.1 -606.5 561.1 -606.5 666.3 -671.9 666.3 -671.9 533.3 -527.9 530.3 -483.7 533.3 -483.7 666.3 M-85.5 666.3 L-85.5 522.7 -85.5 666.3" fill="#000000" fill-opacity="0.24705882" fill-rule="evenodd" stroke="none"/>
    <path d="M-148.1 -666.3 L897.5 -44.7 891.5 -30.9 -151.7 -632.7 -148.1 -666.3 M628.1 666.3 L616.1 666.3 616.1 -119.5 628.1 -111.9 628.1 -70.1 628.1 -29.5 628.1 70.3 628.1 666.3 M328.1 666.3 L312.1 666.3 312.1 -309.1 328.1 -296.9 328.1 -248.7 328.1 -165.5 328.1 -49.5 328.1 666.3 M-649.5 -648.3 L-468.9 -564.1 -649.5 -506.5 -649.5 -648.3 M-527.9 -297.5 L-527.9 -353.5 -467.9 -327.1 -467.9 534.3 -483.7 533.3 -527.9 530.3 -527.9 458.3 -527.9 278.3 -527.9 222.3 -527.9 90.3 -527.9 34.5 -527.9 -105.5 -527.9 -166.7 -527.9 -297.5" fill="#ffffff" fill-opacity="0.14901961" fill-rule="evenodd" stroke="none"/>
    <path d="M-148.1 -666.3 L-151.7 -632.7 -761.7 -443.7 -774.9 -466.7 -649.5 -506.5 -774.9 -466.7 -761.7 -443.7 -649.5 -408.3 -169.9 -545.5 -169.9 666.3 -169.9 -545.5 232.1 -305.9 312.1 -309.1 312.1 666.3 232.1 666.3 51.5 666.3 51.5 532.1 -85.5 522.7 -127.7 519.7 -127.7 666.3 -169.9 666.3 -231.1 666.3 -231.1 522.5 -322.5 522.5 -322.5 666.3 -483.7 666.3 -483.7 533.3 -467.9 534.3 -467.9 -327.1 -527.9 -353.5 -527.9 -297.5 -592.3 -280.3 -656.7 -263.1 -723.7 -248.3 -723.7 -297.5 -527.9 -353.5 -723.7 -297.5 -723.7 -248.3 -723.7 -127.5 -659.1 -139.9 -655.9 -140.9 -594.1 -154.9 -527.9 -166.7 -527.9 -105.5 -594.1 -93.3 -660.1 -81.1 -723.7 -69.5 -723.7 -127.5 -723.7 -69.5 -723.7 70.3 -662.9 59.3 -595.3 46.9 -527.9 34.5 -527.9 90.3 -595.9 98.7 -663.7 107.1 -723.7 114.3 -723.7 70.3 -723.7 114.3 -723.7 246.3 -666.3 239.3 -597.1 230.9 -527.9 222.3 -527.9 278.3 -597.5 285.5 -667.3 292.5 -723.7 298.3 -723.7 246.3 -723.7 298.3 -723.7 462.3 -670.5 461.3 -599.1 459.9 -527.9 458.3 -527.9 530.3 -671.9 533.3 -723.7 534.3 -723.7 462.3 -723.7 534.3 -671.9 533.3 -671.9 666.3 -897.5 666.3 -897.5 -557.5 -649.5 -648.3 -649.5 -506.5 -468.9 -564.1 -148.1 -666.3 M830.1 50.3 L830.1 666.3 628.1 666.3 628.1 70.3 659.5 87.3 659.5 -9.5 628.1 -29.5 628.1 -70.1 830.1 50.3 M616.1 666.3 L552.1 666.3 328.1 666.3 328.1 -49.5 377.7 -24.7 377.7 -138.5 328.1 -165.5 328.1 -248.7 552.1 -115.3 616.1 -119.5 616.1 666.3 M232.1 -169.3 L232.1 -305.9 232.1 -169.3 184.1 -196.5 184.1 -78.7 232.1 -56.7 232.1 -169.3 M232.1 666.3 L232.1 -56.7 232.1 666.3 M141.9 -31.5 L106.9 -46.3 106.9 65.7 141.9 79.3 141.9 -31.5 M44.3 -72.7 L6.7 -88.5 6.7 26.7 44.3 41.3 44.3 -72.7 M156.1 -212.5 L92.1 -248.7 92.1 -120.9 156.1 -91.5 156.1 -212.5 M56.1 -137.3 L56.1 -269.1 -11.9 -307.7 -11.9 -168.5 56.1 -137.3 M441.5 -104.1 L399.3 -126.9 399.3 -13.9 441.5 7.1 441.5 -104.1 M552.1 -44.3 L519.9 -61.7 519.9 46.3 552.1 62.3 552.1 114.3 552.1 62.3 552.1 -44.3 552.1 -115.3 552.1 -44.3 M552.1 114.3 L528.7 103.9 528.7 188.7 552.1 198.3 552.1 254.3 552.1 198.3 552.1 114.3 M505.3 -69.5 L466.7 -90.5 466.7 19.7 505.3 38.9 505.3 -69.5 M495.7 175.1 L495.7 89.1 473.9 79.5 473.9 166.3 495.7 175.1 M637.1 123.1 L637.1 194.7 654.5 203.3 654.5 132.1 637.1 123.1 M408.7 50.5 L408.7 139.5 433.3 149.5 433.5 61.5 408.7 50.5 M364.1 30.5 L338.9 19.3 338.9 110.7 364.1 121.1 364.1 30.5 M338.9 178.3 L338.9 269.7 364.1 277.3 364.1 187.3 338.9 178.3 M364.1 342.1 L338.9 336.7 338.9 460.3 364.1 464.7 364.1 342.1 M433.3 211.9 L408.7 203.1 408.7 290.7 433.3 298.3 433.3 211.9 M408.7 351.7 L408.7 472.7 433.3 477.1 433.3 356.9 408.7 351.7 M473.9 310.5 L495.7 317.1 495.7 234.3 473.9 226.5 473.9 310.5 M552.1 254.3 L528.7 246.1 528.7 327.3 552.1 334.3 552.1 382.3 552.1 334.3 552.1 254.3 M552.1 382.3 L528.7 377.3 528.7 494.1 552.1 498.3 552.1 666.3 552.1 498.3 552.1 382.3 M637.1 253.7 L637.1 335.5 654.5 339.7 654.5 259.9 637.1 253.7 M473.9 365.7 L473.9 484.3 495.7 488.3 495.7 370.3 473.9 365.7 M223.7 111.1 L223.9 3.1 196.1 -8.7 196.1 100.5 223.7 111.1 M223.7 324.7 L196.1 319.1 196.1 461.9 223.7 465.3 223.7 324.7 M141.9 308.3 L106.9 301.3 106.9 451.1 141.9 455.3 141.9 308.3 M44.3 288.7 L6.7 281.3 6.7 438.9 44.3 443.5 44.3 288.7 M44.3 103.9 L6.7 92.1 6.7 207.3 44.3 216.5 44.3 103.9 M141.9 134.3 L106.9 123.3 106.9 231.7 141.9 240.3 141.9 134.3 M223.7 159.7 L196.1 151.1 196.1 253.5 223.7 260.3 223.7 159.7 M407.7 536.9 L384.5 534.5 384.5 626.3 407.7 626.3 407.7 536.9 M449.7 541.3 L427.9 539.1 427.7 626.3 449.5 626.3 449.7 541.3 M364.1 532.5 L338.9 529.9 338.9 626.3 364.1 626.3 364.1 532.5 M637.1 500.7 L637.3 500.7 654.5 502.5 654.5 392.3 637.1 388.1 637.1 500.7 M524.3 549.1 L512.7 547.9 512.7 626.3 524.3 625.9 524.3 549.1 M640.9 547.5 L640.9 626.3 653.9 626.3 653.9 548.7 640.9 547.5 M489.5 545.5 L467.5 543.3 467.5 626.3 489.5 626.3 489.5 545.5 M754.3 50.5 L754.3 138.3 778.3 151.3 778.3 65.7 754.3 50.5 M698.5 155.1 L682.9 146.9 682.9 217.1 698.5 224.7 698.5 155.1 M762.9 188.9 L762.9 256.3 774.7 262.1 774.9 195.1 762.9 188.9 M673.9 95.1 L704.9 111.7 704.9 19.1 673.9 -0.5 673.9 95.1 M725.7 169.3 L725.7 238.1 741.1 245.5 741.1 177.5 725.7 169.3 M716.9 26.7 L716.9 118.3 740.3 130.9 740.3 41.5 716.9 26.7 M682.9 270.3 L682.9 346.7 698.5 350.5 698.5 275.9 682.9 270.3 M774.7 303.7 L762.9 299.3 762.9 366.3 774.7 369.1 774.7 303.7 M725.7 285.9 L725.7 357.1 741.1 360.9 741.1 291.5 725.7 285.9 M762.9 411.7 L762.9 513.9 774.7 515.3 774.7 413.9 762.9 411.7 M681.9 551.3 L667.3 549.9 667.3 626.3 681.7 626.3 681.9 551.3 M698.5 400.1 L682.9 397.3 682.9 505.5 698.5 507.1 698.5 400.1 M699.9 553.1 L699.9 626.3 710.5 626.3 710.7 554.1 699.9 553.1 M787.9 561.3 L775.5 560.1 775.5 626.3 787.9 626.3 787.9 561.3 M764.7 559.1 L751.7 557.9 751.7 626.3 764.7 626.3 764.7 559.1 M724.9 555.3 L724.9 626.3 738.3 626.3 738.3 556.5 724.9 555.3 M725.7 405.1 L725.7 510.1 741.1 511.7 741.1 407.9 725.7 405.1 M-347.9 -206.5 L-239.9 -229.5 -239.9 -381.5 -347.9 -355.7 -347.9 -206.5 M-127.9 -373.5 L-127.9 -221.5 -51.9 -186.7 -51.9 -330.5 -127.9 -373.5 M-319.5 -134.9 L-319.5 -20.5 -279.7 -26.9 -279.7 -142.1 -319.5 -134.9 M-104.7 -16.5 L-68.9 -2.5 -68.9 -120.5 -104.7 -135.7 -104.7 -16.5 M-823.7 -405.5 L-823.7 -271.7 -779.9 -281.3 -779.9 -417.5 -823.7 -405.5 M-779.9 -114.5 L-779.9 -252.9 -823.7 -242.5 -823.7 -105.1 -779.9 -114.5 M-823.7 -42.9 L-823.7 62.3 -779.9 55.1 -779.9 -50.9 -823.7 -42.9 M-823.7 312.7 L-823.7 444.7 -779.9 442.7 -779.9 308.1 -823.7 312.7 M-779.9 234.5 L-779.9 121.7 -823.7 127.5 -823.7 239.7 -779.9 234.5 M-68.9 188.7 L-68.9 68.7 -104.7 57.5 -104.7 180.1 -68.9 188.7 M-319.5 60.9 L-319.5 179.7 -279.7 175.1 -279.7 55.7 -319.5 60.9 M-319.5 258.9 L-319.5 421.9 -279.7 420.1 -279.7 254.7 -319.5 258.9 M-68.9 266.1 L-104.7 258.9 -104.7 425.1 -68.9 429.5 -68.9 266.1" fill="#ffffff" fill-opacity="0.0" fill-rule="evenodd" stroke="none"/>
    <path d="M891.5 -30.9 L897.5 -44.7 -148.1 -666.3 -468.9 -564.1 -649.5 -648.3 -897.5 -557.5 -897.5 666.3 -671.9 666.3 -606.5 666.3 -541.5 666.3 -483.7 666.3 -322.5 666.3 -231.1 666.3 -169.9 666.3 -169.9 -545.5 232.1 -305.9 312.1 -309.1 328.1 -296.9 328.1 -248.7 552.1 -115.3 616.1 -119.5 628.1 -111.9 628.1 -70.1 830.1 50.3 830.1 666.3 628.1 666.3 616.1 666.3 552.1 666.3 328.1 666.3 312.1 666.3 232.1 666.3 51.5 666.3 25.1 666.3 -47.1 666.3 -85.5 666.3 -127.7 666.3 -169.9 666.3 M891.5 -30.9 L830.1 50.3 M-761.7 -443.7 L-774.9 -466.7 -649.5 -506.5 -468.9 -564.1 M-169.9 -545.5 L-649.5 -408.3 -761.7 -443.7" fill="none" stroke="#000000" stroke-linecap="round" stroke-linejoin="round" stroke-width="1.0"/>
    <path d="M-148.1 -666.3 L-151.7 -632.7 891.5 -30.9 M232.1 -305.9 L232.1 -169.3 232.1 -56.7 232.1 666.3 M156.1 -212.5 L156.1 -91.5 92.1 -120.9 92.1 -248.7 156.1 -212.5 M44.3 -72.7 L44.3 41.3 6.7 26.7 6.7 -88.5 44.3 -72.7 M141.9 -31.5 L141.9 79.3 106.9 65.7 106.9 -46.3 141.9 -31.5 M232.1 -169.3 L184.1 -196.5 184.1 -78.7 232.1 -56.7 M56.1 -137.3 L-11.9 -168.5 -11.9 -307.7 56.1 -269.1 56.1 -137.3 M312.1 -309.1 L312.1 666.3 M328.1 -165.5 L377.7 -138.5 377.7 -24.7 328.1 -49.5 328.1 666.3 M328.1 -165.5 L328.1 -49.5 M441.5 -104.1 L441.5 7.1 399.3 -13.9 399.3 -126.9 441.5 -104.1 M616.1 -119.5 L616.1 666.3 M552.1 62.3 L519.9 46.3 519.9 -61.7 552.1 -44.3 552.1 -115.3 M328.1 -248.7 L328.1 -165.5 M628.1 -29.5 L628.1 -70.1 M505.3 -69.5 L505.3 38.9 466.7 19.7 466.7 -90.5 505.3 -69.5 M552.1 198.3 L528.7 188.7 528.7 103.9 552.1 114.3 552.1 62.3 552.1 -44.3 M637.1 123.1 L654.5 132.1 654.5 203.3 637.1 194.7 637.1 123.1 M495.7 175.1 L473.9 166.3 473.9 79.5 495.7 89.1 495.7 175.1 M408.7 50.5 L408.7 139.5 433.3 149.5 433.5 61.5 408.7 50.5 M364.1 30.5 L364.1 121.1 338.9 110.7 338.9 19.3 364.1 30.5 M338.9 178.3 L338.9 269.7 364.1 277.3 364.1 187.3 338.9 178.3 M433.3 211.9 L433.3 298.3 408.7 290.7 408.7 203.1 433.3 211.9 M364.1 342.1 L364.1 464.7 338.9 460.3 338.9 336.7 364.1 342.1 M408.7 351.7 L408.7 472.7 433.3 477.1 433.3 356.9 408.7 351.7 M473.9 310.5 L495.7 317.1 495.7 234.3 473.9 226.5 473.9 310.5 M552.1 334.3 L528.7 327.3 528.7 246.1 552.1 254.3 552.1 198.3 552.1 114.3 M552.1 498.3 L528.7 494.1 528.7 377.3 552.1 382.3 552.1 334.3 552.1 254.3 M637.1 253.7 L654.5 259.9 654.5 339.7 637.1 335.5 637.1 253.7 M473.9 365.7 L473.9 484.3 495.7 488.3 495.7 370.3 473.9 365.7 M223.7 111.1 L223.9 3.1 196.1 -8.7 196.1 100.5 223.7 111.1 M223.7 159.7 L223.7 260.3 196.1 253.5 196.1 151.1 223.7 159.7 M141.9 134.3 L141.9 240.3 106.9 231.7 106.9 123.3 141.9 134.3 M44.3 103.9 L44.3 216.5 6.7 207.3 6.7 92.1 44.3 103.9 M44.3 288.7 L44.3 443.5 6.7 438.9 6.7 281.3 44.3 288.7 M141.9 308.3 L141.9 455.3 106.9 451.1 106.9 301.3 141.9 308.3 M223.7 324.7 L223.7 465.3 196.1 461.9 196.1 319.1 223.7 324.7 M51.5 666.3 L51.5 532.1 -85.5 522.7 -85.5 666.3 M-47.1 666.3 L-47.1 558.5 25.1 558.5 25.1 666.3 M524.3 549.1 L524.3 625.9 512.7 626.3 512.7 547.9 524.3 549.1 M637.1 500.7 L637.1 388.1 654.5 392.3 654.5 502.5 637.3 500.7 637.1 500.7 M364.1 532.5 L364.1 626.3 338.9 626.3 338.9 529.9 364.1 532.5 M449.7 541.3 L449.5 626.3 427.7 626.3 427.9 539.1 449.7 541.3 M407.7 536.9 L407.7 626.3 384.5 626.3 384.5 534.5 407.7 536.9 M552.1 666.3 L552.1 498.3 552.1 382.3 M489.5 545.5 L489.5 626.3 467.5 626.3 467.5 543.3 489.5 545.5 M640.9 547.5 L653.9 548.7 653.9 626.3 640.9 626.3 640.9 547.5 M628.1 666.3 L628.1 70.3 628.1 -29.5 659.5 -9.5 659.5 87.3 628.1 70.3 M754.3 50.5 L754.3 138.3 778.3 151.3 778.3 65.7 754.3 50.5 M698.5 155.1 L698.5 224.7 682.9 217.1 682.9 146.9 698.5 155.1 M762.9 188.9 L762.9 256.3 774.7 262.1 774.9 195.1 762.9 188.9 M673.9 95.1 L673.9 -0.5 704.9 19.1 704.9 111.7 673.9 95.1 M725.7 169.3 L725.7 238.1 741.1 245.5 741.1 177.5 725.7 169.3 M716.9 26.7 L716.9 118.3 740.3 130.9 740.3 41.5 716.9 26.7 M682.9 270.3 L682.9 346.7 698.5 350.5 698.5 275.9 682.9 270.3 M774.7 303.7 L774.7 369.1 762.9 366.3 762.9 299.3 774.7 303.7 M725.7 285.9 L725.7 357.1 741.1 360.9 741.1 291.5 725.7 285.9 M762.9 411.7 L762.9 513.9 774.7 515.3 774.7 413.9 762.9 411.7 M698.5 400.1 L698.5 507.1 682.9 505.5 682.9 397.3 698.5 400.1 M681.9 551.3 L681.7 626.3 667.3 626.3 667.3 549.9 681.9 551.3 M699.9 553.1 L699.9 626.3 710.5 626.3 710.7 554.1 699.9 553.1 M764.7 559.1 L764.7 626.3 751.7 626.3 751.7 557.9 764.7 559.1 M787.9 561.3 L787.9 626.3 775.5 626.3 775.5 560.1 787.9 561.3 M724.9 555.3 L724.9 626.3 738.3 626.3 738.3 556.5 724.9 555.3 M725.7 405.1 L725.7 510.1 741.1 511.7 741.1 407.9 725.7 405.1 M-347.9 -206.5 L-239.9 -229.5 -239.9 -381.5 -347.9 -355.7 -347.9 -206.5 M-527.9 -297.5 L-527.9 -353.5 -723.7 -297.5 -723.7 -248.3 -656.7 -263.1 -592.3 -280.3 -527.9 -297.5 -527.9 -166.7 -527.9 -105.5 -527.9 34.5 -527.9 90.3 -527.9 222.3 -527.9 278.3 -527.9 458.3 -527.9 530.3 -483.7 533.3 -467.9 534.3 -467.9 -327.1 -527.9 -353.5 M-527.9 -166.7 L-594.1 -154.9 -655.9 -140.9 -659.1 -139.9 -723.7 -127.5 -723.7 -69.5 -660.1 -81.1 -594.1 -93.3 -527.9 -105.5 M-592.3 -280.3 L-594.1 -154.9 M-127.9 -373.5 L-51.9 -330.5 -51.9 -186.7 -127.9 -221.5 -127.9 -373.5 M-319.5 -134.9 L-319.5 -20.5 -279.7 -26.9 -279.7 -142.1 -319.5 -134.9 M-104.7 -16.5 L-104.7 -135.7 -68.9 -120.5 -68.9 -2.5 -104.7 -16.5 M-649.5 -506.5 L-649.5 -648.3 M-761.7 -443.7 L-151.7 -632.7 M-823.7 -405.5 L-823.7 -271.7 -779.9 -281.3 -779.9 -417.5 -823.7 -405.5 M-655.9 -140.9 L-659.1 -140.1 -659.1 -139.9 M-723.7 -127.5 L-723.7 -248.3 M-779.9 -114.5 L-779.9 -252.9 -823.7 -242.5 -823.7 -105.1 -779.9 -114.5 M-823.7 -42.9 L-823.7 62.3 -779.9 55.1 -779.9 -50.9 -823.7 -42.9 M-659.1 -140.1 L-656.7 -263.1 M-527.9 34.5 L-595.3 46.9 -662.9 59.3 -723.7 70.3 -723.7 114.3 -663.7 107.1 -595.9 98.7 -527.9 90.3 M-527.9 222.3 L-597.1 230.9 -666.3 239.3 -723.7 246.3 -723.7 298.3 -667.3 292.5 -597.5 285.5 -527.9 278.3 M-723.7 246.3 L-723.7 114.3 M-823.7 312.7 L-823.7 444.7 -779.9 442.7 -779.9 308.1 -823.7 312.7 M-779.9 234.5 L-779.9 121.7 -823.7 127.5 -823.7 239.7 -779.9 234.5 M-666.3 239.3 L-663.7 107.1 M-527.9 458.3 L-599.1 459.9 -670.5 461.3 -723.7 462.3 -723.7 534.3 -671.9 533.3 -527.9 530.3 M-671.9 666.3 L-671.9 533.3 M-723.7 462.3 L-723.7 298.3 M-667.3 292.5 L-670.5 461.3 M-68.9 188.7 L-68.9 68.7 -104.7 57.5 -104.7 180.1 -68.9 188.7 M-319.5 60.9 L-319.5 179.7 -279.7 175.1 -279.7 55.7 -319.5 60.9 M-319.5 258.9 L-319.5 421.9 -279.7 420.1 -279.7 254.7 -319.5 258.9 M-68.9 266.1 L-68.9 429.5 -104.7 425.1 -104.7 258.9 -68.9 266.1 M-595.9 98.7 L-597.1 230.9 M-541.5 666.3 L-541.5 561.1 -606.5 561.1 -606.5 666.3 M-483.7 533.3 L-483.7 666.3 M-85.5 522.7 L-127.7 519.7 -127.7 666.3 M-322.5 666.3 L-322.5 522.5 -231.1 522.5 -231.1 666.3 M-599.1 459.9 L-597.5 285.5 M-723.7 70.3 L-723.7 -69.5 M-660.1 -81.1 L-662.9 59.3 M-594.1 -93.3 L-595.3 46.9" fill="none" stroke="#000000" stroke-linecap="round" stroke-linejoin="round" stroke-opacity="0.4" stroke-width="1.0"/>
  </g>
</svg>
