<?xml version="1.0" encoding="UTF-8" standalone="no"?>
<svg xmlns:xlink="http://www.w3.org/1999/xlink" height="8.0px" width="45.4px" xmlns="http://www.w3.org/2000/svg">
  <g transform="matrix(1.0, 0.0, 0.0, 1.0, 23.5, 4.0)">
    <path d="M20.15 2.5 L21.05 2.5 Q21.6 3.05 21.05 3.5 L-21.35 3.5 Q-22.9 3.5 -23.0 0.05 L-23.0 -0.25 Q-22.95 -2.15 -22.55 -2.85 -22.2 -3.5 -21.35 -3.5 L21.1 -3.5 Q21.7 -3.05 21.1 -2.5 L20.2 -2.5 20.15 2.5" fill="#ffffff" fill-opacity="0.0" fill-rule="evenodd" stroke="none"/>
    <path d="M20.15 2.5 L21.05 2.5 Q21.6 3.05 21.05 3.5 L-21.35 3.5 Q-22.9 3.5 -23.0 0.05 L-23.0 -0.25 Q-22.95 -2.15 -22.55 -2.85 -22.2 -3.5 -21.35 -3.5 L21.1 -3.5 Q21.7 -3.05 21.1 -2.5 L20.2 -2.5" fill="none" stroke="#000000" stroke-linecap="round" stroke-linejoin="round" stroke-width="1.0"/>
  </g>
</svg>
