<?xml version="1.0" encoding="UTF-8" standalone="no"?>
<svg xmlns:xlink="http://www.w3.org/1999/xlink" height="14.3px" width="42.45px" xmlns="http://www.w3.org/2000/svg">
  <g transform="matrix(1.0, 0.0, 0.0, 1.0, 21.3, 13.15)">
    <path d="M7.45 -5.35 Q9.5 -6.9 11.55 -8.95 L14.75 -12.5 Q17.0 -12.3 18.7 -10.6 20.65 -8.65 20.65 -5.95 20.65 -3.2 18.7 -1.3 16.75 0.65 14.05 0.65 11.3 0.65 9.35 -1.3 7.65 -3.0 7.45 -5.35 M-15.3 -12.65 Q-12.4 -9.3 -7.6 -5.85 -7.7 -3.3 -9.55 -1.5 -11.5 0.45 -14.2 0.45 -16.95 0.45 -18.9 -1.5 -20.8 -3.4 -20.8 -6.15 -20.8 -8.85 -18.9 -10.8 -17.35 -12.35 -15.3 -12.65" fill="#ffffff" fill-opacity="0.0" fill-rule="evenodd" stroke="none"/>
    <path d="M14.75 -12.5 Q17.0 -12.3 18.7 -10.6 20.65 -8.65 20.65 -5.95 20.65 -3.2 18.7 -1.3 16.75 0.65 14.05 0.65 11.3 0.65 9.35 -1.3 7.65 -3.0 7.45 -5.35 M-7.6 -5.85 Q-7.7 -3.3 -9.55 -1.5 -11.5 0.45 -14.2 0.45 -16.95 0.45 -18.9 -1.5 -20.8 -3.4 -20.8 -6.15 -20.8 -8.85 -18.9 -10.8 -17.35 -12.35 -15.3 -12.65" fill="none" stroke="#ffffff" stroke-linecap="round" stroke-linejoin="round" stroke-opacity="0.4" stroke-width="1.0"/>
  </g>
</svg>
