<?xml version="1.0" encoding="UTF-8" standalone="no"?>
<svg xmlns:xlink="http://www.w3.org/1999/xlink" height="30.15px" width="36.6px" xmlns="http://www.w3.org/2000/svg">
  <g transform="matrix(1.0, 0.0, 0.0, 1.0, 18.3, 15.1)">
    <path d="M6.3 14.55 Q7.35 13.7 9.0 9.4 L11.15 3.4 12.55 -1.6 13.05 -4.3 Q13.5 -7.85 12.5 -9.4 L13.8 -8.35 14.25 -7.95 17.55 -4.65 Q18.0 -3.45 17.65 -1.1 17.35 1.05 16.35 4.25 L14.75 8.9 Q13.55 12.05 12.55 13.15 L11.65 13.35 6.3 14.55 M-12.8 -13.2 L-8.3 -14.25 -6.15 -14.6 Q-7.95 -13.9 -9.4 -10.35 -10.6 -7.5 -11.6 -2.7 L-12.8 3.7 Q-13.55 8.55 -12.95 9.55 L-17.35 5.6 -17.6 5.35 Q-18.0 4.05 -17.6 0.55 L-16.6 -4.55 -15.0 -10.0 Q-13.95 -12.55 -12.8 -13.2" fill="#ffffff" fill-opacity="0.0" fill-rule="evenodd" stroke="none"/>
    <path d="M6.3 14.55 Q7.35 13.7 9.0 9.4 L11.15 3.4 12.55 -1.6 13.05 -4.3 Q13.5 -7.85 12.5 -9.4 M17.55 -4.65 Q18.0 -3.45 17.65 -1.1 17.35 1.05 16.35 4.25 L14.75 8.9 Q13.55 12.05 12.55 13.15 M-6.15 -14.6 Q-7.95 -13.9 -9.4 -10.35 -10.6 -7.5 -11.6 -2.7 L-12.8 3.7 Q-13.55 8.55 -12.95 9.55 M-17.6 5.35 Q-18.0 4.05 -17.6 0.55 L-16.6 -4.55 -15.0 -10.0 Q-13.95 -12.55 -12.8 -13.2" fill="none" stroke="#000000" stroke-linecap="round" stroke-linejoin="round" stroke-opacity="0.4" stroke-width="1.0"/>
    <path d="M12.5 -9.4 L13.8 -8.35 14.25 -7.95 17.55 -4.65 M12.55 13.15 L11.65 13.35 6.3 14.55 M-12.8 -13.2 L-8.3 -14.25 -6.15 -14.6 M-12.95 9.55 L-17.35 5.6 -17.6 5.35" fill="none" stroke="#000000" stroke-linecap="round" stroke-linejoin="round" stroke-width="1.0"/>
  </g>
</svg>
