<?xml version="1.0" encoding="UTF-8" standalone="no"?>
<svg xmlns:xlink="http://www.w3.org/1999/xlink" height="67.1px" width="67.85px" xmlns="http://www.w3.org/2000/svg">
  <g transform="matrix(1.0, 0.0, 0.0, 1.0, 33.95, 30.6)">
    <path d="M-0.8 -28.75 L3.45 -28.7 12.85 -29.0 20.0 -29.4 23.65 -29.65 33.25 -28.8 31.15 -13.4 30.7 -1.55 31.6 7.35 31.3 19.9 31.85 24.95 30.25 27.45 23.75 28.75 14.7 31.25 -8.75 35.85 -14.35 35.65 -32.05 31.1 -33.3 17.45 -28.95 -29.85 -23.6 -29.95 -21.7 -29.95 -13.35 -29.1 -4.4 -28.85 -0.8 -28.75 -0.8 -28.65 -4.4 -28.85 -0.8 -28.65 -0.8 -28.75 M-30.05 29.05 L-20.95 19.45 -22.15 -17.15 -23.6 -29.95 -22.15 -17.15 -20.95 19.45 -30.05 29.05 M-12.55 33.45 L-10.0 30.25 -10.6 27.85 -9.25 16.95 -13.55 1.55 -13.95 -18.3 -13.35 -29.1 -13.95 -18.3 -13.55 1.55 -9.25 16.95 -10.6 27.85 -10.0 30.25 -12.55 33.45" fill="#ffffff" fill-opacity="0.0" fill-rule="evenodd" stroke="none"/>
    <path d="M-0.8 -28.75 L3.45 -28.7 12.85 -29.0 20.0 -29.4 23.65 -29.65 33.25 -28.8 31.15 -13.4 30.7 -1.55 31.6 7.35 31.3 19.9 31.85 24.95 30.25 27.45 23.75 28.75 14.7 31.25 -8.75 35.85 -14.35 35.65 -32.05 31.1 -33.3 17.45 -28.95 -29.85 -23.6 -29.95 -21.7 -29.95 -13.35 -29.1 -4.4 -28.85 -0.8 -28.75 -0.8 -28.65 -4.4 -28.85" fill="none" stroke="#000000" stroke-linecap="round" stroke-linejoin="miter-clip" stroke-miterlimit="3.0" stroke-width="1.0"/>
    <path d="M-23.6 -29.95 L-22.15 -17.15 -20.95 19.45 -30.05 29.05" fill="none" stroke="#000000" stroke-linecap="round" stroke-linejoin="miter-clip" stroke-miterlimit="3.0" stroke-opacity="0.29803923" stroke-width="1.0"/>
    <path d="M-13.35 -29.1 L-13.95 -18.3 -13.55 1.55 -9.25 16.95 -10.6 27.85 -10.0 30.25 -12.55 33.45" fill="none" stroke="#000000" stroke-linecap="round" stroke-linejoin="miter-clip" stroke-miterlimit="3.0" stroke-opacity="0.6" stroke-width="1.0"/>
  </g>
</svg>
