<?xml version="1.0" encoding="UTF-8" standalone="no"?>
<svg xmlns:xlink="http://www.w3.org/1999/xlink" height="42.35px" width="51.75px" xmlns="http://www.w3.org/2000/svg">
  <g transform="matrix(1.0, 0.0, 0.0, 1.0, 23.95, 29.9)">
    <path d="M17.55 -3.95 L18.25 -4.35 18.9 -4.8 Q19.55 -5.8 19.35 -6.45 L19.05 -7.05 18.9 -7.25 16.8 -7.1 Q16.35 -6.9 16.0 -6.0 L15.65 -4.6 15.65 -4.1 Q15.65 -3.15 16.15 -1.05 16.6 1.05 16.9 1.45 L17.5 1.95 17.95 2.0 18.3 1.75 18.5 1.15 17.9 -1.45 Q17.35 -3.8 17.5 -3.95 L17.55 -3.95 18.7 0.6 Q19.7 4.55 19.95 4.65 L23.65 4.45 26.95 4.2 27.3 6.5 23.05 7.65 20.45 7.8 18.35 7.6 Q17.9 7.35 16.45 1.95 14.95 -3.4 15.15 -4.05 L15.65 -4.6 M-7.95 -2.1 L-7.95 -2.8 -7.95 -3.6 -7.95 -4.15 -7.85 -4.75 -7.65 -5.3 -7.25 -5.8 -4.9 -5.75 Q-4.55 -5.5 -5.05 -3.8 L-5.55 -1.95 -5.45 -1.85 Q-5.15 -1.5 -4.65 0.9 -4.2 3.1 -4.1 4.2 L-3.55 7.4 Q-3.15 9.8 -3.45 10.2 -3.75 10.65 -6.9 11.25 L-11.3 11.9 -16.1 11.95 -20.45 11.85 -22.25 11.55 -23.15 11.3 -23.45 8.65 -20.55 9.2 -15.85 9.15 -10.15 8.55 -6.85 7.85 -7.65 3.1 Q-8.5 -1.45 -8.35 -1.8 L-7.95 -2.1 -7.95 -1.25 -7.35 1.6 -6.65 4.25 Q-6.1 5.15 -5.3 4.95 L-4.75 4.7 -4.45 4.05 Q-4.4 3.6 -4.9 1.25 L-5.55 -1.65 -5.55 -1.95" fill="none" stroke="#000000" stroke-linecap="round" stroke-linejoin="round" stroke-opacity="0.4" stroke-width="1.0"/>
    <path d="M-6.45 -6.0 L-5.1 -13.65 Q-4.4 -17.7 -3.7 -19.8 -1.95 -25.25 3.55 -27.8 6.35 -29.05 9.65 -24.15 13.05 -19.1 16.85 -7.65" fill="none" stroke="#000000" stroke-linecap="butt" stroke-linejoin="miter-clip" stroke-miterlimit="3.0" stroke-width="2.0"/>
  </g>
</svg>
