<?xml version="1.0" encoding="UTF-8" standalone="no"?>
<svg xmlns:xlink="http://www.w3.org/1999/xlink" height="131.2px" width="673.5px" xmlns="http://www.w3.org/2000/svg">
  <g transform="matrix(1.0, 0.0, 0.0, 1.0, 336.5, 65.85)">
    <path d="M-336.2 34.45 L-336.5 21.95 -324.2 21.35 Q-327.8 33.45 -326.4 50.65 -325.6 59.25 -324.2 65.35 -333.9 49.95 -336.2 34.45" fill="#ffffff" fill-opacity="0.4" fill-rule="evenodd" stroke="none"/>
    <path d="M-140.5 58.85 L13.0 55.25" fill="none" stroke="#000000" stroke-linecap="butt" stroke-linejoin="miter-clip" stroke-miterlimit="4.0" stroke-opacity="0.6" stroke-width="1.0"/>
    <path d="M13.0 56.35 L-140.1 59.95 -138.5 63.45" fill="none" stroke="#ffffff" stroke-linecap="butt" stroke-linejoin="miter-clip" stroke-miterlimit="4.0" stroke-opacity="0.29803923" stroke-width="1.0"/>
    <path d="M13.6 -56.35 L13.5 -37.85 M-154.4 -30.45 L-153.0 3.55 Q-149.9 39.15 -141.8 58.85" fill="none" stroke="#000000" stroke-linecap="butt" stroke-linejoin="miter-clip" stroke-miterlimit="4.0" stroke-opacity="0.6" stroke-width="1.0"/>
    <path d="M13.5 -37.85 L164.1 -44.45 165.3 -44.45 Q164.2 -34.15 162.3 -22.45 154.3 25.15 136.9 53.45 L13.0 56.35 M-140.5 58.85 L-140.1 59.95" fill="none" stroke="#ffffff" stroke-linecap="round" stroke-linejoin="miter-clip" stroke-miterlimit="4.0" stroke-opacity="0.29803923" stroke-width="1.0"/>
    <path d="M164.1 -44.45 Q165.3 -55.75 165.6 -65.35 M13.0 56.35 L12.9 60.85 M-154.4 -30.45 L-154.5 -32.35 Q-154.5 -36.65 -151.5 -43.95 L-148.5 -50.45" fill="none" stroke="#000000" stroke-linecap="round" stroke-linejoin="miter-clip" stroke-miterlimit="4.0" stroke-opacity="0.6" stroke-width="1.0"/>
    <path d="M165.3 -44.45 Q166.4 -55.15 166.7 -64.35 M165.3 -44.45 L336.5 -52.05 M-154.4 -30.45 L-153.1 -30.45 -153.2 -32.35 Q-153.2 -36.65 -150.2 -43.95 L-147.2 -50.45 M-140.1 59.95 L-140.7 59.95 M-140.5 58.85 Q-148.6 39.05 -151.7 3.55 L-153.1 -30.45 13.5 -37.85" fill="none" stroke="#ffffff" stroke-linecap="round" stroke-linejoin="miter-clip" stroke-miterlimit="4.0" stroke-opacity="0.29803923" stroke-width="1.0"/>
    <path d="M13.5 -37.85 L13.0 55.25 135.9 52.45 Q153.3 24.15 161.2 -23.45 163.0 -34.55 164.1 -44.45 M13.0 55.25 L13.0 56.35 M-141.8 58.85 L-140.5 58.85" fill="none" stroke="#000000" stroke-linecap="round" stroke-linejoin="miter-clip" stroke-miterlimit="4.0" stroke-opacity="0.6" stroke-width="1.0"/>
    <path d="M-258.8 -22.65 L-221.5 -26.25 Q-179.3 -29.85 -154.5 -30.45 L-154.4 -30.45" fill="none" stroke="#ffffff" stroke-linecap="butt" stroke-linejoin="miter-clip" stroke-miterlimit="4.0" stroke-opacity="0.29803923" stroke-width="1.0"/>
    <path d="M-141.8 58.85 L-139.8 63.45" fill="none" stroke="#000000" stroke-linecap="round" stroke-linejoin="miter-clip" stroke-miterlimit="4.0" stroke-width="1.0"/>
  </g>
</svg>
