<?xml version="1.0" encoding="UTF-8" standalone="no"?>
<svg xmlns:xlink="http://www.w3.org/1999/xlink" height="181.8px" width="596.2px" xmlns="http://www.w3.org/2000/svg">
  <g transform="matrix(1.0, 0.0, 0.0, 1.0, 298.1, 90.9)">
    <path d="M184.0 -71.15 L184.0 -58.35 184.0 -71.15 184.0 -90.4 297.6 -90.4 297.6 88.8 184.0 88.8 184.0 87.3 184.0 58.5 184.0 45.7 184.0 58.5 -184.0 59.9 -184.0 88.7 -184.0 90.4 -296.0 90.4 -297.6 -88.8 -184.0 -88.8 -184.0 -69.75 184.0 -71.15 M-184.0 -56.95 L-184.0 -69.75 -184.0 -56.95 -184.0 -31.2 184.0 -31.2 184.0 -58.35 -184.0 -56.95 M184.0 -19.9 L184.0 -31.2 184.0 -19.9 -184.0 -18.55 -184.0 -31.2 -184.0 -18.55 -184.0 8.65 -184.0 21.45 -184.0 8.65 184.0 7.3 184.0 -19.9 M184.0 20.1 L184.0 7.3 184.0 20.1 -184.0 21.45 -184.0 47.1 -184.0 59.9 -184.0 47.1 184.0 45.7 184.0 20.1" fill="#ffffff" fill-opacity="0.0" fill-rule="evenodd" stroke="none"/>
    <path d="M-184.0 -56.95 L184.0 -58.35 184.0 -31.2 -184.0 -31.2 -184.0 -56.95 M184.0 -19.9 L184.0 7.3 -184.0 8.65 -184.0 -18.55 184.0 -19.9 M184.0 20.1 L184.0 45.7 -184.0 47.1 -184.0 21.45 184.0 20.1 M184.0 58.5 L184.0 87.3 -184.0 88.7 -184.0 59.9 184.0 58.5" fill="#000000" fill-opacity="0.09803922" fill-rule="evenodd" stroke="none"/>
    <path d="M184.0 -58.35 L184.0 -71.15 -184.0 -69.75 -184.0 -56.95 -184.0 -31.2 184.0 -31.2 184.0 -19.9 184.0 7.3 184.0 20.1 184.0 45.7 184.0 58.5 184.0 87.3 184.0 88.8 M184.0 -58.35 L184.0 -31.2 M184.0 -90.4 L184.0 -71.15 M-184.0 -88.8 L-184.0 -69.75 M-184.0 -31.2 L-184.0 -18.55 -184.0 8.65 184.0 7.3 M-184.0 21.45 L-184.0 8.65 M-184.0 47.1 L-184.0 21.45 M-184.0 88.7 L-184.0 90.4 M-184.0 59.9 L-184.0 88.7 M-184.0 47.1 L-184.0 59.9 M-184.0 47.1 L184.0 45.7" fill="none" stroke="#000000" stroke-linecap="round" stroke-linejoin="round" stroke-opacity="0.4" stroke-width="1.0"/>
    <path d="M297.6 -90.4 L184.0 -90.4 M-297.6 -88.8 L-184.0 -88.8" fill="none" stroke="#000000" stroke-linecap="round" stroke-linejoin="round" stroke-opacity="0.6" stroke-width="1.0"/>
    <path d="M184.0 88.8 L297.6 88.8 297.6 -90.4 M-184.0 90.4 L-296.0 90.4 -297.6 -88.8 M-184.0 88.7 L184.0 87.3" fill="none" stroke="#000000" stroke-linecap="round" stroke-linejoin="round" stroke-width="1.0"/>
    <path d="M-184.0 -56.95 L184.0 -58.35 M-184.0 -18.55 L184.0 -19.9 M-184.0 21.45 L184.0 20.1 M-184.0 59.9 L184.0 58.5" fill="none" stroke="#000000" stroke-linecap="round" stroke-linejoin="round" stroke-opacity="0.2" stroke-width="1.0"/>
  </g>
</svg>
