<?xml version="1.0" encoding="UTF-8" standalone="no"?>
<svg xmlns:xlink="http://www.w3.org/1999/xlink" height="684.2px" width="314.6px" xmlns="http://www.w3.org/2000/svg">
  <g transform="matrix(1.0, 0.0, 0.0, 1.0, 157.3, 342.1)">
    <path d="M78.45 -223.2 L76.0 -223.2 73.2 -223.2 73.2 -223.15 -81.2 -221.6 -156.8 -221.2 -156.8 -232.4 154.0 -232.4 154.0 -224.0 78.45 -223.2 M75.6 224.0 L156.8 224.0 156.8 235.2 -156.8 235.2 -156.8 224.0 -81.2 224.0 75.6 224.0" fill="#000000" fill-opacity="0.09803922" fill-rule="evenodd" stroke="none"/>
    <path d="M73.2 -223.15 L75.6 224.0 -81.2 224.0 -81.2 -221.6 73.2 -223.15 M156.8 235.2 L156.8 341.6 -156.8 341.6 -156.8 235.2 156.8 235.2 M-156.8 -232.4 L-156.8 -341.6 154.0 -341.6 154.0 -232.4 -156.8 -232.4" fill="#ffffff" fill-opacity="0.0" fill-rule="evenodd" stroke="none"/>
    <path d="M73.2 -223.15 L79.2 -223.2 78.45 -223.2 M76.0 -223.2 L73.2 -223.2 M156.8 341.6 L-156.8 341.6 M-156.8 -341.6 L154.0 -341.6 M154.0 -232.4 L-156.8 -232.4 M75.6 224.0 L-81.2 224.0 M-156.8 235.2 L156.8 235.2 M-81.2 -221.6 L73.2 -223.15" fill="none" stroke="#000000" stroke-linecap="round" stroke-linejoin="round" stroke-opacity="0.4" stroke-width="1.0"/>
    <path d="M73.2 -223.2 L73.2 -223.15 75.6 224.0 M156.8 224.0 L156.8 235.2 156.8 341.6 M-156.8 341.6 L-156.8 235.2 -156.8 224.0 M-81.2 224.0 L-81.2 -221.6 M-156.8 -221.2 L-156.8 -232.4 -156.8 -341.6 M154.0 -341.6 L154.0 -232.4 154.0 -224.0" fill="none" stroke="#000000" stroke-linecap="round" stroke-linejoin="round" stroke-width="1.0"/>
    <path d="M78.45 -223.2 L76.0 -223.2 M75.6 224.0 L156.8 224.0 M-156.8 224.0 L-81.2 224.0 M-81.2 -221.6 L-156.8 -221.2 M154.0 -224.0 L78.45 -223.2" fill="none" stroke="#000000" stroke-linecap="round" stroke-linejoin="round" stroke-opacity="0.6" stroke-width="1.0"/>
  </g>
</svg>
