<?xml version="1.0" encoding="UTF-8" standalone="no"?>
<svg xmlns:xlink="http://www.w3.org/1999/xlink" height="42.95px" width="45.55px" xmlns="http://www.w3.org/2000/svg">
  <g transform="matrix(1.0, 0.0, 0.0, 1.0, 25.5, 87.3)">
    <path d="M-7.9 -71.25 L-8.15 -73.25 -8.2 -73.5 -8.1 -72.9 -8.05 -72.35 -7.95 -71.5 -7.9 -71.35 -7.9 -71.25 M9.35 -60.95 L9.35 -61.75 9.3 -62.05 9.35 -62.1 9.3 -62.85 9.3 -62.95 9.35 -62.55 9.35 -62.25 9.35 -62.1 9.35 -61.75 9.35 -61.2 9.35 -60.95 M14.45 -65.7 L14.4 -65.75 14.4 -65.85 14.45 -65.7 M14.45 -62.0 L14.55 -62.1 14.5 -61.95 14.45 -62.0 14.5 -61.95 14.55 -61.8 14.45 -62.0 M9.3 -62.85 L9.35 -62.55 9.3 -62.85 M-11.45 -72.0 L-11.05 -70.45 -9.55 -64.45 -9.55 -64.4 -11.05 -70.4 -11.05 -70.45 -11.05 -70.4 -11.45 -72.0 M-24.35 -82.35 L-24.7 -83.8 -24.3 -82.3 -24.35 -82.35 M-3.3 -76.5 L-3.35 -76.55 -3.35 -76.65 -3.3 -76.5 M-2.85 -72.9 L-2.85 -72.75 -2.8 -72.6 -2.9 -72.8 -2.85 -72.75 -2.9 -72.8 -2.85 -72.9 M-8.15 -73.25 L-8.1 -72.9 -8.15 -73.25" fill="#ffffff" fill-opacity="0.0" fill-rule="evenodd" stroke="none"/>
    <path d="M-3.85 -80.8 L0.6 -85.9 0.85 -83.5 1.3 -79.95 1.3 -80.0 1.35 -79.8 1.7 -76.3 2.1 -72.65 2.5 -68.95 3.3 -61.7 -0.75 -56.25 -6.8 -62.25 -7.5 -67.85 -7.9 -71.25 -7.9 -71.35 -7.95 -71.5 -8.05 -72.35 -8.1 -72.9 -8.2 -73.5 -8.4 -75.1 -8.85 -78.75 -9.3 -82.25 -9.65 -85.05 -3.85 -80.8 -3.85 -80.85 -3.85 -80.8 -3.85 -80.75 -3.85 -80.8 -3.85 -80.75 -3.85 -80.8 M14.3 -69.7 L16.2 -71.85 16.35 -72.0 19.15 -75.05 19.2 -72.1 14.55 -66.0 14.4 -65.85 14.3 -69.7 14.4 -65.85 14.55 -66.0 19.2 -72.1 19.25 -68.55 19.35 -64.9 19.4 -61.25 19.45 -57.5 19.55 -50.3 15.0 -45.05 14.8 -44.85 9.55 -51.85 9.45 -57.5 9.35 -60.95 9.35 -61.2 9.35 -61.75 9.35 -62.1 9.35 -62.25 9.35 -62.55 9.3 -62.95 9.25 -64.85 9.15 -68.45 9.1 -71.95 9.0 -74.85 14.3 -69.7 M15.0 -45.0 L14.8 -44.8 14.8 -44.85 15.0 -45.0 M14.45 -65.7 L14.4 -65.85 14.4 -65.75 14.45 -65.7 14.55 -62.1 19.25 -68.55 14.55 -62.1 14.45 -65.7 M14.5 -61.95 L14.55 -62.1 14.45 -62.0 9.15 -68.45 14.45 -62.0 14.55 -61.8 14.5 -61.95 M19.35 -64.9 L14.6 -58.55 14.55 -61.8 14.6 -58.55 19.35 -64.9 M9.25 -64.85 L14.6 -58.25 14.7 -54.95 14.7 -54.75 9.35 -61.2 14.7 -54.75 14.7 -54.95 14.6 -58.25 9.25 -64.85 M14.8 -51.1 L19.45 -57.5 14.8 -51.1 14.85 -51.0 9.45 -57.5 14.85 -51.0 14.8 -51.1 14.7 -54.75 14.8 -51.1 M14.7 -54.95 L19.4 -61.25 14.7 -54.95 M14.6 -58.55 L14.6 -58.25 14.6 -58.55 M9.1 -71.95 L14.4 -65.75 9.1 -71.95 M14.85 -51.0 L15.0 -45.05 14.85 -51.0 M-24.7 -83.8 L-25.0 -84.95 -18.75 -81.4 -15.15 -86.8 -14.55 -84.45 -14.55 -84.4 -13.65 -80.95 -12.8 -77.45 -12.8 -77.4 -11.95 -73.9 -11.45 -72.0 -11.05 -70.4 -9.55 -64.4 -13.0 -57.05 -19.5 -62.45 -19.6 -62.55 -20.9 -68.0 -21.8 -71.65 -22.65 -75.2 -22.55 -75.15 -23.45 -78.7 -24.35 -82.35 -24.3 -82.3 -24.7 -83.8 M-18.7 -81.2 L-17.7 -77.0 -24.3 -82.3 -17.7 -77.0 -18.7 -81.2 -18.75 -81.4 -18.7 -81.2 M1.35 -79.8 L-2.85 -72.9 -3.3 -76.45 -3.3 -76.5 -3.3 -76.45 -2.85 -72.9 1.35 -79.8 M-14.55 -84.4 L-17.7 -77.0 -14.55 -84.4 M-3.3 -76.5 L-3.35 -76.65 -3.35 -76.55 -3.3 -76.5 M0.85 -83.5 L-3.35 -76.65 -3.85 -80.75 -3.35 -76.65 0.85 -83.5 M-9.3 -82.25 L-3.35 -76.55 -9.3 -82.25 M-2.8 -72.6 L-2.85 -72.75 -2.85 -72.9 -2.9 -72.8 -8.85 -78.75 -2.9 -72.8 -2.8 -72.6 -2.45 -69.4 1.7 -76.3 -2.45 -69.4 -2.8 -72.6 M-2.45 -69.4 L-2.4 -69.1 -8.4 -75.1 -2.4 -69.1 -2.45 -69.4 M-7.5 -67.85 L-1.45 -61.9 -1.5 -62.0 2.5 -68.95 -1.5 -62.0 -1.45 -61.9 -0.75 -56.25 -1.45 -61.9 -7.5 -67.85 M-2.4 -69.1 L-1.95 -65.8 2.1 -72.65 -1.95 -65.8 -1.95 -65.6 -1.5 -62.0 -1.95 -65.6 -1.95 -65.8 -2.4 -69.1 M-1.95 -65.6 L-7.9 -71.35 -1.95 -65.6 M-16.1 -70.25 L-12.8 -77.4 -16.1 -70.25 -16.0 -69.85 -22.55 -75.15 -16.0 -69.85 -16.1 -70.25 -16.85 -73.6 -16.1 -70.25 M-13.65 -80.95 L-16.9 -73.8 -16.85 -73.6 -23.45 -78.7 -16.85 -73.6 -16.9 -73.8 -17.7 -77.0 -16.9 -73.8 -13.65 -80.95 M-14.3 -62.8 L-20.9 -68.0 -14.3 -62.8 -11.05 -70.4 -14.3 -62.8 -13.0 -57.05 -14.3 -62.8 -15.15 -66.35 -21.8 -71.65 -15.15 -66.35 -14.3 -62.8 M-15.2 -66.65 L-16.0 -69.85 -15.2 -66.65 -11.95 -73.9 -15.2 -66.65 -15.15 -66.35 -15.2 -66.65" fill="#ffffff" fill-opacity="0.09803922" fill-rule="evenodd" stroke="none"/>
    <path d="M-3.85 -80.8 L0.6 -85.9 0.85 -83.5 1.3 -79.95 1.3 -80.0 1.35 -79.8 1.7 -76.3 2.1 -72.65 2.5 -68.95 3.3 -61.7 -0.75 -56.25 -6.8 -62.25 -7.5 -67.85 -7.9 -71.25 -8.15 -73.25 -8.2 -73.5 -8.4 -75.1 -8.85 -78.75 -9.3 -82.25 -9.65 -85.05 -3.85 -80.8 -3.85 -80.75 M19.2 -72.1 L19.15 -75.05 16.35 -72.0 16.2 -71.85 14.3 -69.7 9.0 -74.85 9.1 -71.95 9.15 -68.45 9.25 -64.85 9.3 -62.95 9.35 -62.55 9.35 -62.25 9.35 -62.1 9.35 -61.75 9.35 -61.2 9.35 -60.95 9.35 -61.75 9.3 -62.05 9.35 -62.1 9.3 -62.85 9.3 -62.95 M19.2 -72.1 L19.25 -68.55 19.35 -64.9 19.4 -61.25 19.45 -57.5 19.55 -50.3 15.0 -45.05 14.8 -44.85 9.55 -51.85 9.45 -57.5 9.35 -60.95 M9.35 -62.55 L9.3 -62.85 M-24.7 -83.8 L-25.0 -84.95 -18.75 -81.4 -15.15 -86.8 -14.55 -84.45 -14.55 -84.4 -13.65 -80.95 -12.8 -77.45 -12.8 -77.4 -11.95 -73.9 -11.45 -72.0 -11.05 -70.45 -9.55 -64.45 -9.55 -64.4 -13.0 -57.05 -19.5 -62.45 -19.6 -62.55 -20.9 -68.0 -21.8 -71.65 -22.65 -75.2 -22.55 -75.15 -23.45 -78.7 -24.35 -82.35 -24.7 -83.8 -24.3 -82.3 -24.35 -82.35 M-18.7 -81.2 L-18.75 -81.4 M-7.9 -71.25 L-7.9 -71.35 -7.95 -71.5 -8.05 -72.35 -8.1 -72.9 -8.15 -73.25 M-8.1 -72.9 L-8.2 -73.5 M-11.05 -70.45 L-11.05 -70.4 -9.55 -64.4 M-11.45 -72.0 L-11.05 -70.4" fill="none" stroke="#000000" stroke-linecap="round" stroke-linejoin="round" stroke-width="1.0"/>
    <path d="M-3.85 -80.8 L-3.85 -80.75 -3.35 -76.65 0.85 -83.5 M14.3 -69.7 L14.4 -65.85 14.55 -66.0 19.2 -72.1 M15.0 -45.05 L15.0 -45.0 M14.45 -65.7 L14.4 -65.85 14.4 -65.75 14.45 -65.7 14.55 -62.1 19.25 -68.55 M14.5 -61.95 L14.55 -62.1 14.45 -62.0 14.5 -61.95 14.55 -61.8 14.6 -58.55 19.35 -64.9 M9.35 -61.2 L14.7 -54.75 14.7 -54.95 14.6 -58.25 9.25 -64.85 M14.6 -58.25 L14.6 -58.55 M9.45 -57.5 L14.85 -51.0 14.8 -51.1 14.7 -54.75 M19.4 -61.25 L14.7 -54.95 M19.45 -57.5 L14.8 -51.1 M9.15 -68.45 L14.45 -62.0 14.55 -61.8 M14.4 -65.75 L9.1 -71.95 M15.0 -45.05 L14.85 -51.0 M-24.3 -82.3 L-17.7 -77.0 -18.7 -81.2 M-17.7 -77.0 L-14.55 -84.4 M-3.3 -76.5 L-3.3 -76.45 -2.85 -72.9 1.35 -79.8 M-3.3 -76.5 L-3.35 -76.65 -3.35 -76.55 -3.3 -76.5 M-3.35 -76.55 L-9.3 -82.25 M-2.85 -72.9 L-2.85 -72.75 -2.8 -72.6 -2.45 -69.4 1.7 -76.3 M-2.9 -72.8 L-2.85 -72.75 M-2.85 -72.9 L-2.9 -72.8 -8.85 -78.75 M-8.4 -75.1 L-2.4 -69.1 -2.45 -69.4 M-2.8 -72.6 L-2.9 -72.8 M2.5 -68.95 L-1.5 -62.0 -1.45 -61.9 -0.75 -56.25 M2.1 -72.65 L-1.95 -65.8 -1.95 -65.6 -1.5 -62.0 M-7.9 -71.35 L-1.95 -65.6 M-1.95 -65.8 L-2.4 -69.1 M-1.45 -61.9 L-7.5 -67.85 M-11.05 -70.4 L-14.3 -62.8 -13.0 -57.05 M-23.45 -78.7 L-16.85 -73.6 -16.9 -73.8 -17.7 -77.0 M-22.55 -75.15 L-16.0 -69.85 -16.1 -70.25 -16.85 -73.6 M-14.3 -62.8 L-15.15 -66.35 -21.8 -71.65 M-11.95 -73.9 L-15.2 -66.65 -15.15 -66.35 M-16.0 -69.85 L-15.2 -66.65 M-20.9 -68.0 L-14.3 -62.8 M-16.9 -73.8 L-13.65 -80.95 M-12.8 -77.4 L-16.1 -70.25" fill="none" stroke="#000000" stroke-linecap="round" stroke-linejoin="round" stroke-opacity="0.4" stroke-width="1.0"/>
  </g>
</svg>
