<?xml version="1.0" encoding="UTF-8" standalone="no"?>
<svg xmlns:xlink="http://www.w3.org/1999/xlink" height="5.85px" width="8.0px" xmlns="http://www.w3.org/2000/svg">
  <g transform="matrix(1.0, 0.0, 0.0, 1.0, -3.55, -2.35)">
    <path d="M10.55 4.55 Q10.75 5.6 10.3 6.65 L10.4 6.65 Q11.05 6.65 11.05 7.15 L10.9 7.5 10.45 7.65 4.7 7.7 Q4.05 7.7 4.05 7.25 4.05 6.8 4.7 6.7 L4.75 6.7 Q4.35 5.65 4.6 4.65 L4.95 3.85 Q4.65 3.75 4.65 3.4 L4.8 3.05 5.25 2.9 10.0 2.85 Q10.65 2.85 10.65 3.35 L10.5 3.75 10.25 3.8 10.55 4.55 M6.55 4.7 L6.6 6.7 7.35 6.7 7.3 4.55 7.4 3.9 6.75 3.9 6.55 4.7 M5.25 4.75 Q5.0 5.7 5.45 6.7 L6.0 6.7 Q5.75 5.6 5.9 4.6 L6.05 3.9 5.6 3.9 5.25 4.75 M8.05 3.9 L7.95 4.6 8.0 6.7 8.55 6.7 8.65 4.65 8.5 3.9 8.05 3.9 M9.3 4.6 L9.2 6.65 9.6 6.65 Q10.35 5.1 9.7 3.9 L9.1 3.9 9.3 4.6" fill="#ffffff" fill-opacity="0.0" fill-rule="evenodd" stroke="none"/>
    <path d="M10.55 4.55 Q10.75 5.6 10.3 6.65 L10.4 6.65 Q11.05 6.65 11.05 7.15 L10.9 7.5 10.45 7.65 4.7 7.7 Q4.05 7.7 4.05 7.25 4.05 6.8 4.7 6.7 L4.75 6.7 Q4.35 5.65 4.6 4.65 L4.95 3.85 Q4.65 3.75 4.65 3.4 L4.8 3.05 5.25 2.9 10.0 2.85 Q10.65 2.85 10.65 3.35 L10.5 3.75 10.25 3.8 10.55 4.55 M6.55 4.7 L6.6 6.7 7.35 6.7 7.3 4.55 7.4 3.9 6.75 3.9 6.55 4.7 M5.25 4.75 Q5.0 5.7 5.45 6.7 L6.0 6.7 Q5.75 5.6 5.9 4.6 L6.05 3.9 5.6 3.9 5.25 4.75 M8.05 3.9 L7.95 4.6 8.0 6.7 8.55 6.7 8.65 4.65 8.5 3.9 8.05 3.9 M9.3 4.6 L9.2 6.65 9.6 6.65 Q10.35 5.1 9.7 3.9 L9.1 3.9 9.3 4.6" fill="none" stroke="#000000" stroke-linecap="round" stroke-linejoin="round" stroke-opacity="0.29803923" stroke-width="1.0"/>
  </g>
</svg>
