<?xml version="1.0" encoding="UTF-8" standalone="no"?>
<svg xmlns:xlink="http://www.w3.org/1999/xlink" height="75.8px" width="269.7px" xmlns="http://www.w3.org/2000/svg">
  <g transform="matrix(1.0, 0.0, 0.0, 1.0, 140.65, 83.6)">
    <path d="M51.6 -64.5 L46.45 -64.5 -60.85 -64.5 -66.0 -64.5 -140.15 -64.5 -140.15 -83.1 128.55 -83.1 128.55 -64.5 51.6 -64.5 M123.55 -67.85 L123.55 -71.75 -136.0 -71.75 -136.0 -67.85 123.55 -67.85" fill="#ffffff" fill-opacity="0.0" fill-rule="evenodd" stroke="none"/>
    <path d="M46.45 -64.5 L51.6 -64.5 51.6 -8.3 46.45 -8.3 46.45 -64.5 M-66.0 -64.5 L-60.85 -64.5 -60.85 -8.3 -66.0 -8.3 -66.0 -64.5" fill="#000000" fill-opacity="0.101960786" fill-rule="evenodd" stroke="none"/>
    <path d="M24.75 -29.4 Q24.15 -24.6 20.8 -19.6 18.75 -16.6 15.7 -13.55 12.9 -10.7 9.5 -8.3 L-36.1 -8.3 -36.1 -29.4 24.75 -29.4 M-134.6 -8.3 L-134.6 -29.4 -73.75 -29.4 Q-74.35 -24.6 -77.7 -19.6 -79.75 -16.6 -82.8 -13.55 -85.6 -10.7 -89.0 -8.3 L-134.6 -8.3" fill="#000000" fill-opacity="0.3019608" fill-rule="evenodd" stroke="none"/>
    <path d="M9.5 -8.3 Q12.9 -10.7 15.7 -13.55 18.75 -16.6 20.8 -19.6 24.15 -24.6 24.75 -29.4 L24.75 -8.3 9.5 -8.3 M-73.75 -29.4 L-73.75 -8.3 -89.0 -8.3 Q-85.6 -10.7 -82.8 -13.55 -79.75 -16.6 -77.7 -19.6 -74.35 -24.6 -73.75 -29.4" fill="#000000" fill-opacity="0.4" fill-rule="evenodd" stroke="none"/>
    <path d="M123.55 -67.85 L-136.0 -67.85 -136.0 -71.75 123.55 -71.75 123.55 -67.85" fill="#ffffff" fill-opacity="0.2" fill-rule="evenodd" stroke="none"/>
    <path d="M46.45 -64.5 L46.45 -8.3 51.6 -8.3 51.6 -64.5 128.55 -64.5 128.55 -83.1 -140.15 -83.1 -140.15 -64.5 -66.0 -64.5 -66.0 -8.3 -60.85 -8.3 -60.85 -64.5 46.45 -64.5 M24.75 -8.3 L24.75 -29.4 -36.1 -29.4 -36.1 -8.3 M-134.6 -8.3 L-134.6 -29.4 -73.75 -29.4 -73.75 -8.3" fill="none" stroke="#000000" stroke-linecap="round" stroke-linejoin="round" stroke-width="1.0"/>
    <path d="M51.6 -64.5 L46.45 -64.5 M-66.0 -64.5 L-60.85 -64.5 M9.5 -8.3 L24.75 -8.3 M-36.1 -8.3 L9.5 -8.3 M-73.75 -8.3 L-89.0 -8.3 -134.6 -8.3" fill="none" stroke="#000000" stroke-linecap="round" stroke-linejoin="round" stroke-opacity="0.6" stroke-width="1.0"/>
    <path d="M123.55 -67.85 L-136.0 -67.85 -136.0 -71.75 123.55 -71.75 123.55 -67.85" fill="none" stroke="#000000" stroke-linecap="round" stroke-linejoin="round" stroke-opacity="0.4" stroke-width="1.0"/>
  </g>
</svg>
