<?xml version="1.0" encoding="UTF-8" standalone="no"?>
<svg xmlns:xlink="http://www.w3.org/1999/xlink" height="348.9px" width="361.0px" xmlns="http://www.w3.org/2000/svg">
  <g transform="matrix(1.0, 0.0, 0.0, 1.0, 180.5, 174.45)">
    <path d="M110.9 3.95 L111.1 3.95 110.85 5.15 110.9 3.95" fill="#e1e1e1" fill-rule="evenodd" stroke="none"/>
    <path d="M121.1 -30.2 L127.25 -30.2 142.1 -30.2 142.1 3.95 151.8 3.95 146.0 22.95 -3.3 26.95 -3.3 3.95 2.0 3.95 7.75 3.95 7.75 -30.2 16.6 -30.2 32.6 -30.2 32.75 -30.2 32.75 3.95 34.6 3.95 110.9 3.95 110.85 5.15 111.1 3.95 116.9 3.95 117.1 -30.2 121.1 -30.2 M32.75 3.95 L7.75 3.95 32.75 3.95 M153.9 65.95 L156.0 83.95 170.7 83.95 173.95 65.95 180.0 65.95 175.0 168.7 Q175.0 169.2 146.7 173.95 L146.7 65.95 153.9 65.95 M116.9 3.95 L142.1 3.95 116.9 3.95 M5.0 37.3 L143.0 37.3 143.0 83.45 5.0 83.45 5.0 37.3 M143.0 127.95 L143.0 144.45 5.0 144.45 5.0 127.95 143.0 127.95 M143.0 152.45 L143.0 173.95 5.0 173.95 5.0 152.45 143.0 152.45 M-4.5 168.0 L-27.0 168.0 -27.0 -133.1 -149.15 -133.1 -157.5 -133.1 -157.5 168.0 -180.0 168.0 -180.0 -173.95 -4.5 -173.95 -4.5 168.0 M-12.65 -141.35 L-12.65 -146.05 -33.3 -146.05 -33.3 -141.35 -12.65 -141.35 M-8.0 -171.35 L-177.3 -171.35 -176.6 80.3 -172.0 -166.7 -8.0 -171.35" fill="#ffffff" fill-opacity="0.0" fill-rule="evenodd" stroke="none"/>
    <path d="M146.7 173.95 Q175.0 169.2 175.0 168.7 L180.0 65.95 180.0 173.95 146.7 173.95 M-3.3 26.95 L146.0 22.95 151.8 3.95 152.0 3.95 152.0 27.95 143.0 27.95 5.0 27.95 2.0 27.95 -3.3 27.95 -3.3 26.95 M143.0 83.45 L143.0 127.95 5.0 127.95 5.0 83.45 143.0 83.45 M143.0 144.45 L143.0 152.45 5.0 152.45 5.0 144.45 143.0 144.45" fill="#000000" fill-opacity="0.101960786" fill-rule="evenodd" stroke="none"/>
    <path d="M16.6 -106.2 L23.6 -101.05 121.1 -101.05 121.1 -30.2 117.1 -30.2 116.9 3.95 111.1 3.95 110.9 3.95 111.1 -11.9 111.2 -15.55 111.25 -18.65 111.2 -15.55 111.1 -11.9 110.9 3.95 34.6 3.95 36.6 -80.55 50.1 -79.55 51.9 -13.2 53.0 -23.55 55.6 -80.55 69.6 -81.05 70.5 -14.4 74.1 -80.55 86.1 -80.55 87.8 -14.4 92.6 -81.55 104.6 -81.05 111.25 -18.65 111.25 -86.95 32.6 -86.95 32.6 -30.2 16.6 -30.2 16.6 -106.2 M173.95 65.95 L170.7 83.95 156.0 83.95 153.9 65.95 158.0 68.45 160.0 81.95 168.75 81.95 170.25 69.95 173.95 65.95 M143.0 27.95 L143.0 37.3 5.0 37.3 5.0 27.95 143.0 27.95 M2.0 3.95 L-3.3 3.95 -3.3 26.95 -3.3 27.95 2.0 27.95 2.0 163.95 -4.5 168.0 -4.5 -173.95 2.0 -173.35 2.0 3.95 M-149.15 -133.1 L-148.65 -132.7 -148.65 163.95 -157.5 168.0 -157.5 -133.1 -149.15 -133.1" fill="#000000" fill-opacity="0.2" fill-rule="evenodd" stroke="none"/>
    <path d="M121.1 -30.2 L121.1 -101.05 23.6 -101.05 16.6 -106.2 127.25 -106.2 127.25 -30.2 121.1 -30.2 M32.6 -30.2 L32.6 -86.95 111.25 -86.95 111.25 -18.65 104.6 -81.05 92.6 -81.55 87.8 -14.4 86.1 -80.55 74.1 -80.55 70.5 -14.4 69.6 -81.05 55.6 -80.55 53.0 -23.55 51.9 -13.2 50.1 -79.55 36.6 -80.55 34.6 3.95 32.75 3.95 32.75 -30.2 32.6 -30.2" fill="#000000" fill-opacity="0.3019608" fill-rule="evenodd" stroke="none"/>
    <path d="M-8.0 -171.35 L-172.0 -166.7 -176.6 80.3 -177.3 -171.35 -8.0 -171.35" fill="#ffffff" fill-opacity="0.3019608" fill-rule="evenodd" stroke="none"/>
    <path d="M-12.65 -141.35 L-33.3 -141.35 -33.3 -146.05 -12.65 -146.05 -12.65 -141.35" fill="#ffffff" fill-opacity="0.2" fill-rule="evenodd" stroke="none"/>
    <path d="M127.25 -30.2 L127.25 -106.2 16.6 -106.2 16.6 -30.2 7.75 -30.2 7.75 3.95 2.0 3.95 2.0 -173.35 -4.5 -173.95 -180.0 -173.95 -180.0 168.0 -157.5 168.0 -148.65 163.95 -148.65 -132.7 -149.15 -133.1 -27.0 -133.1 -27.0 168.0 -4.5 168.0 2.0 163.95 2.0 27.95 5.0 27.95 5.0 37.3 5.0 83.45 5.0 127.95 5.0 144.45 5.0 152.45 5.0 173.95 143.0 173.95 143.0 152.45 143.0 144.45 143.0 127.95 143.0 83.45 143.0 37.3 143.0 27.95 152.0 27.95 152.0 3.95 151.8 3.95 142.1 3.95 142.1 -30.2 127.25 -30.2 M173.95 65.95 L170.25 69.95 168.75 81.95 160.0 81.95 158.0 68.45 153.9 65.95 146.7 65.95 146.7 173.95 180.0 173.95 180.0 65.95 173.95 65.95" fill="none" stroke="#000000" stroke-linecap="round" stroke-linejoin="round" stroke-width="1.0"/>
    <path d="M121.1 -30.2 L127.25 -30.2 M16.6 -30.2 L32.6 -30.2 32.6 -86.95 111.25 -86.95 111.25 -18.65 111.2 -15.55 111.1 -11.9 110.9 3.95 111.1 3.95 116.9 3.95 117.1 -30.2 121.1 -30.2 M32.6 -30.2 L32.75 -30.2 32.75 3.95 34.6 3.95 110.9 3.95 M7.75 3.95 L32.75 3.95 M153.9 65.95 L156.0 83.95 170.7 83.95 173.95 65.95 M142.1 3.95 L116.9 3.95 M143.0 27.95 L5.0 27.95 M2.0 3.95 L-3.3 3.95 -3.3 26.95 -3.3 27.95 2.0 27.95 M-157.5 168.0 L-157.5 -133.1 -149.15 -133.1 M-4.5 168.0 L-4.5 -173.95" fill="none" stroke="#000000" stroke-linecap="round" stroke-linejoin="round" stroke-opacity="0.6" stroke-width="1.0"/>
    <path d="M5.0 83.45 L143.0 83.45 M143.0 127.95 L5.0 127.95 M5.0 144.45 L143.0 144.45 M143.0 152.45 L5.0 152.45 M-12.65 -141.35 L-33.3 -141.35 -33.3 -146.05 -12.65 -146.05 -12.65 -141.35" fill="none" stroke="#000000" stroke-linecap="round" stroke-linejoin="round" stroke-opacity="0.4" stroke-width="1.0"/>
  </g>
</svg>
