<?xml version="1.0" encoding="UTF-8" standalone="no"?>
<svg xmlns:xlink="http://www.w3.org/1999/xlink" height="84.05px" width="30.65px" xmlns="http://www.w3.org/2000/svg">
  <g transform="matrix(1.0, 0.0, 0.0, 1.0, 15.3, 42.0)">
    <path d="M14.85 -38.6 L14.85 28.65 14.5 34.3 Q13.6 40.2 11.0 41.55 L-10.95 41.55 Q-13.55 40.2 -14.45 34.3 L-14.8 28.65 -14.8 -38.6 Q-12.55 -41.65 -7.5 -41.4 -4.15 -41.2 0.0 -39.6 11.0 -43.8 14.85 -38.6" fill="#ffffff" fill-opacity="0.0" fill-rule="evenodd" stroke="none"/>
    <path d="M14.85 -38.6 L14.85 28.65 14.5 34.3 Q13.6 40.2 11.0 41.55 L-10.95 41.55 Q-13.55 40.2 -14.45 34.3 L-14.8 28.65 -14.8 -38.6 Q-12.55 -41.65 -7.5 -41.4 -4.15 -41.2 0.0 -39.6 11.0 -43.8 14.85 -38.6 Z" fill="none" stroke="#000000" stroke-linecap="butt" stroke-linejoin="miter-clip" stroke-miterlimit="10.0" stroke-width="1.0"/>
  </g>
</svg>
