<?xml version="1.0" encoding="UTF-8" standalone="no"?>
<svg xmlns:xlink="http://www.w3.org/1999/xlink" height="24.45px" width="18.1px" xmlns="http://www.w3.org/2000/svg">
  <g transform="matrix(1.0, 0.0, 0.0, 1.0, 9.05, 11.8)">
    <path d="M-8.1 -5.35 Q-8.95 -7.35 -8.15 -9.5 L-7.2 -11.3 7.05 -11.3 Q10.2 -9.6 6.65 1.0 4.85 6.25 2.45 11.2 L-0.7 11.2 Q-4.25 11.0 -6.3 9.85 -8.3 8.7 -8.15 5.25 L-7.65 2.0 -1.2 2.0 0.6 -2.6 Q1.2 -4.05 -3.4 -4.85 L-8.1 -5.35" fill="#ffffff" fill-opacity="0.0" fill-rule="evenodd" stroke="none"/>
    <path d="M-8.1 -5.35 L-3.4 -4.85 Q1.2 -4.05 0.6 -2.6 L-1.2 2.0 -7.65 2.0 -8.15 5.25 Q-8.3 8.7 -6.3 9.85 -4.25 11.0 -0.7 11.2 L2.45 11.2 Q4.85 6.25 6.65 1.0 10.2 -9.6 7.05 -11.3 L-7.2 -11.3 -8.15 -9.5 Q-8.95 -7.35 -8.1 -5.35 Z" fill="none" stroke="#000000" stroke-linecap="butt" stroke-linejoin="miter-clip" stroke-miterlimit="10.0" stroke-opacity="0.6" stroke-width="1.0"/>
  </g>
</svg>
