<?xml version="1.0" encoding="UTF-8" standalone="no"?>
<svg xmlns:xlink="http://www.w3.org/1999/xlink" height="55.05px" width="164.2px" xmlns="http://www.w3.org/2000/svg">
  <g transform="matrix(1.0, 0.0, 0.0, 1.0, 125.1, 27.5)">
    <path d="M14.5 -13.45 L22.1 -13.45 Q21.85 -7.2 22.4 12.7 L14.55 12.7 14.5 -13.45" fill="#231f20" fill-rule="evenodd" stroke="none"/>
    <path d="M29.8 -3.65 L38.6 -3.3 38.6 2.7 29.25 3.25 29.8 2.35 29.8 -3.65 M-98.25 8.8 L-119.45 6.75 -120.25 6.45 -120.45 6.2 Q-120.5 10.8 -120.7 14.4 -121.0 20.15 -121.5 20.15 L-123.4 20.15 Q-123.9 20.15 -124.25 14.4 -124.6 8.6 -124.6 0.45 -124.65 -7.6 -124.3 -13.45 -124.0 -19.25 -123.55 -19.25 L-121.6 -19.25 Q-121.15 -19.25 -120.8 -13.45 L-120.45 -5.1 -120.3 -5.35 -119.5 -5.65 -98.3 -7.8 -98.35 -5.85 -121.05 -3.4 -98.35 -5.85 -98.35 0.05 -98.35 0.2 -98.25 6.8 -121.05 4.6 -98.25 6.8 -98.25 7.3 -98.25 8.8 M-121.6 -19.25 Q-122.1 -19.25 -122.4 -13.45 -122.75 -7.65 -122.7 0.45 -122.75 -7.65 -122.4 -13.45 -122.1 -19.25 -121.6 -19.25 M-121.45 -0.6 L-121.05 -3.4 -121.45 -0.6 -121.55 -0.6 -121.45 -0.6 M-121.05 4.6 L-121.45 1.7 -121.55 1.7 -121.55 -0.6 -121.55 1.7 -121.45 1.7 -121.05 4.6 -120.9 5.05 -121.05 4.6 M-121.05 0.3 L-98.35 0.2 -121.05 0.3 M-121.05 -3.4 L-120.45 -5.1 -121.05 -3.4 M-120.45 6.2 L-120.9 5.05 -120.45 6.2 M-122.3 14.4 Q-122.0 20.15 -121.5 20.15 -122.0 20.15 -122.3 14.4 L-122.7 0.45 -122.3 14.4" fill="#000000" fill-opacity="0.2" fill-rule="evenodd" stroke="none"/>
    <path d="M6.15 -10.7 L6.1 -15.45 6.15 -10.7 13.45 -10.85 6.15 -10.7 6.15 0.8 14.0 0.7 6.15 0.8 6.15 2.25 6.15 0.8 6.15 -10.7 -9.8 -10.4 6.15 -10.7 M6.1 -15.45 L22.4 -15.5 29.8 -3.65 29.8 2.35 29.25 3.25 22.5 14.25 -92.8 14.6 -93.0 19.15 Q-93.45 27.05 -94.1 27.05 L-96.7 27.05 Q-97.35 27.05 -97.85 19.15 L-98.25 8.8 -98.25 7.3 -98.25 6.8 -98.35 0.2 -98.35 0.05 -98.35 -5.85 -98.3 -7.8 -97.95 -19.1 Q-97.55 -27.0 -96.9 -27.0 L-94.25 -27.0 Q-93.6 -27.0 -93.1 -19.1 L-92.9 -15.15 -57.7 -15.25 -41.75 -15.3 -41.7 -9.8 -41.75 -15.3 -25.8 -15.35 -25.75 -10.1 -25.8 -15.35 -9.85 -15.4 -9.8 -10.4 -9.85 -15.4 6.1 -15.45 M14.5 -13.45 L14.55 12.7 22.4 12.7 Q21.85 -7.2 22.1 -13.45 L14.5 -13.45 M-9.8 0.95 L6.15 0.8 -9.8 0.95 -9.8 2.3 -9.8 0.95 -9.8 -10.4 -9.8 0.95 -25.75 1.1 -9.8 0.95 M-92.9 -15.15 L-93.7 -15.15 -92.9 -15.15 M-93.7 -15.15 L-94.0 -1.8 -94.0 1.25 -93.6 14.6 -94.0 1.25 -94.0 -1.8 -93.7 -15.15 M-95.35 -19.1 Q-94.9 -27.0 -94.25 -27.0 -94.9 -27.0 -95.35 -19.1 -95.8 -11.2 -95.75 0.05 -95.8 -11.2 -95.35 -19.1 M-94.1 27.05 Q-94.75 27.05 -95.2 19.15 -95.7 11.2 -95.75 0.05 -95.7 11.2 -95.2 19.15 -94.75 27.05 -94.1 27.05 M-57.65 -9.35 L-41.7 -9.8 -57.65 -9.35 -57.65 1.4 -57.65 -9.35 -57.7 -15.25 -57.65 -9.35 -90.9 -7.4 -57.65 -9.35 M-41.7 1.25 L-57.65 1.4 -41.7 1.25 -41.7 -9.8 -41.7 1.25 -25.75 1.1 -41.7 1.25 -41.7 2.4 -41.7 1.25 M-9.8 -10.4 L-25.75 -10.1 -9.8 -10.4 M-25.75 2.35 L-25.75 1.1 -25.75 2.35 M-25.75 -10.1 L-41.7 -9.8 -25.75 -10.1 -25.75 1.1 -25.75 -10.1 M-57.65 2.45 L-57.65 1.4 -57.65 2.45 M-93.6 14.6 L-92.8 14.6 -93.6 14.6 M-57.65 1.4 L-92.45 1.75 -57.65 1.4 M-90.55 10.4 L-49.5 12.1 12.5 11.9 -49.5 12.1 -90.55 10.4" fill="#ffffff" fill-opacity="0.0" fill-rule="evenodd" stroke="none"/>
    <path d="M38.6 2.7 L29.25 3.25" fill="none" stroke="#000000" stroke-linecap="butt" stroke-linejoin="miter-clip" stroke-miterlimit="10.0" stroke-width="1.0"/>
    <path d="M-119.45 6.75 L-120.25 6.45 M-120.3 -5.35 L-119.5 -5.65 M14.5 -13.45 L14.55 12.7 22.4 12.7 Q21.85 -7.2 22.1 -13.45 L14.5 -13.45 M-122.7 0.45 Q-122.75 -7.65 -122.4 -13.45 -122.1 -19.25 -121.6 -19.25 M-121.55 -0.6 L-121.55 1.7 -121.45 1.7 -121.05 4.6 M-95.75 0.05 Q-95.7 11.2 -95.2 19.15 -94.75 27.05 -94.1 27.05" fill="none" stroke="#000000" stroke-linecap="butt" stroke-linejoin="miter-clip" stroke-miterlimit="10.0" stroke-opacity="0.6" stroke-width="1.0"/>
    <path d="M-93.6 14.6 L-94.0 1.25 -94.0 -1.8 -93.7 -15.15 M12.5 11.9 L-49.5 12.1 -90.55 10.4" fill="none" stroke="#000000" stroke-linecap="butt" stroke-linejoin="miter-clip" stroke-miterlimit="10.0" stroke-opacity="0.4" stroke-width="1.0"/>
    <path d="M-97.85 19.15 L-98.25 8.8 M-124.25 14.4 Q-124.6 8.6 -124.6 0.45 -124.65 -7.6 -124.3 -13.45 -124.0 -19.25 -123.55 -19.25 L-121.6 -19.25 M-96.9 -27.0 L-94.25 -27.0" fill="none" stroke="#000000" stroke-linecap="butt" stroke-linejoin="miter-clip" stroke-miterlimit="10.0" stroke-opacity="0.8" stroke-width="1.0"/>
    <path d="M6.1 -15.45 L6.15 -10.7 6.15 0.8 -9.8 0.95 -25.75 1.1 -41.7 1.25 -41.7 -9.8 -41.75 -15.3 M-121.05 4.6 L-98.25 6.8 M-121.05 -3.4 L-98.35 -5.85 M-41.7 -9.8 L-57.65 -9.35 -57.65 1.4 -41.7 1.25 M-57.7 -15.25 L-57.65 -9.35 M-9.85 -15.4 L-9.8 -10.4 6.15 -10.7 M-25.8 -15.35 L-25.75 -10.1 -9.8 -10.4 -9.8 0.95 M-41.7 -9.8 L-25.75 -10.1 -25.75 1.1" fill="none" stroke="#000000" stroke-linecap="round" stroke-linejoin="miter-clip" stroke-miterlimit="10.0" stroke-opacity="0.4" stroke-width="1.0"/>
    <path d="M6.15 -10.7 L13.45 -10.85 M-57.7 -15.25 L-57.7 -15.6 M6.15 0.8 L6.15 2.25 M-9.8 0.95 L-9.8 2.3 M-98.35 0.2 L-121.05 0.3 M-57.65 -9.35 L-90.9 -7.4 M-25.8 -15.35 L-25.8 -15.7 M-25.75 1.1 L-25.75 2.35 M-41.7 1.25 L-41.7 2.4 M-57.65 1.4 L-57.65 2.45" fill="none" stroke="#000000" stroke-linecap="round" stroke-linejoin="miter-clip" stroke-miterlimit="10.0" stroke-opacity="0.4" stroke-width="1.0"/>
    <path d="M6.1 -15.8 L6.1 -15.45 M14.0 0.7 L6.15 0.8 M-41.75 -15.65 L-41.75 -15.3 M-9.85 -15.75 L-9.85 -15.4 M-92.45 1.75 L-57.65 1.4" fill="none" stroke="#000000" stroke-linecap="butt" stroke-linejoin="miter-clip" stroke-miterlimit="10.0" stroke-opacity="0.4" stroke-width="1.0"/>
    <path d="M-92.9 -15.15 L-57.7 -15.25 -41.75 -15.3 -25.8 -15.35 -9.85 -15.4 6.1 -15.45" fill="none" stroke="#000000" stroke-linecap="round" stroke-linejoin="miter-clip" stroke-miterlimit="10.0" stroke-width="1.0"/>
    <path d="M-92.8 14.6 L-93.0 19.15 M-94.1 27.05 L-96.7 27.05 M-98.25 8.8 L-119.45 6.75 M-120.45 6.2 Q-120.5 10.8 -120.7 14.4 M-121.5 20.15 L-123.4 20.15 M-121.6 -19.25 Q-121.15 -19.25 -120.8 -13.45 M-98.3 -7.8 L-97.95 -19.1 M-94.25 -27.0 Q-93.6 -27.0 -93.1 -19.1" fill="none" stroke="#000000" stroke-linecap="round" stroke-linejoin="miter-clip" stroke-miterlimit="10.0" stroke-opacity="0.8" stroke-width="1.0"/>
    <path d="M-120.25 6.45 L-120.45 6.2 -120.9 5.05 M29.8 2.35 L29.8 -3.65 M-121.45 -0.6 L-121.55 -0.6 M-93.7 -15.15 L-92.9 -15.15 M-95.35 -19.1 Q-95.8 -11.2 -95.75 0.05 M-98.25 7.3 L-98.25 6.8 M-98.35 0.05 L-98.35 -5.85 M-122.3 14.4 L-122.7 0.45" fill="none" stroke="#000000" stroke-linecap="butt" stroke-linejoin="miter-clip" stroke-miterlimit="10.0" stroke-opacity="0.6" stroke-width="1.0"/>
    <path d="M-120.45 -5.1 L-120.3 -5.35 M29.25 3.25 L29.8 2.35 M-121.05 -3.4 L-121.45 -0.6 M-94.25 -27.0 Q-94.9 -27.0 -95.35 -19.1 M-98.25 8.8 L-98.25 7.3 M-98.35 0.2 L-98.35 0.05 M-92.8 14.6 L-93.6 14.6 M-121.05 4.6 L-120.9 5.05 M-121.5 20.15 Q-122.0 20.15 -122.3 14.4" fill="none" stroke="#000000" stroke-linecap="round" stroke-linejoin="miter-clip" stroke-miterlimit="10.0" stroke-opacity="0.6" stroke-width="1.0"/>
    <path d="M-93.0 19.15 Q-93.45 27.05 -94.1 27.05 M-96.7 27.05 Q-97.35 27.05 -97.85 19.15 M-120.7 14.4 Q-121.0 20.15 -121.5 20.15 M-123.4 20.15 Q-123.9 20.15 -124.25 14.4 M-120.8 -13.45 L-120.45 -5.1 M-119.5 -5.65 L-98.3 -7.8 M-97.95 -19.1 Q-97.55 -27.0 -96.9 -27.0 M-93.1 -19.1 L-92.9 -15.15" fill="none" stroke="#000000" stroke-linecap="butt" stroke-linejoin="miter-clip" stroke-miterlimit="10.0" stroke-opacity="0.8" stroke-width="1.0"/>
    <path d="M-98.25 6.8 L-98.35 0.2 M-120.45 -5.1 L-121.05 -3.4 M-98.35 -5.85 L-98.3 -7.8" fill="none" stroke="#000000" stroke-linecap="round" stroke-linejoin="miter-clip" stroke-miterlimit="10.0" stroke-opacity="0.6" stroke-width="1.0"/>
    <path d="M6.1 -15.45 L22.4 -15.5 M29.8 -3.65 L38.6 -3.3 M29.25 3.25 L22.5 14.25" fill="none" stroke="#000000" stroke-linecap="round" stroke-linejoin="miter-clip" stroke-miterlimit="10.0" stroke-width="1.0"/>
    <path d="M22.4 -15.5 L29.8 -3.65 M38.6 -3.3 L38.6 2.7 M22.5 14.25 L-92.8 14.6" fill="none" stroke="#000000" stroke-linecap="butt" stroke-linejoin="miter-clip" stroke-miterlimit="10.0" stroke-width="1.0"/>
  </g>
</svg>
