<?xml version="1.0" encoding="UTF-8" standalone="no"?>
<svg xmlns:xlink="http://www.w3.org/1999/xlink" height="646.0px" width="1673.8px" xmlns="http://www.w3.org/2000/svg">
  <g transform="matrix(1.0, 0.0, 0.0, 1.0, 836.9, 323.0)">
    <path d="M615.6 -175.5 L-615.6 -175.5 -615.6 -290.1 615.6 -290.1 615.6 -175.5" fill="#ffffff" fill-opacity="0.0" fill-rule="evenodd" stroke="none"/>
    <path d="M615.6 -175.5 L-615.6 -175.5 -615.6 -290.1 615.6 -290.1 615.6 -175.5 Z" fill="none" stroke="#000000" stroke-linecap="butt" stroke-linejoin="miter-clip" stroke-miterlimit="4.0" stroke-width="1.0"/>
    <path d="M615.6 301.5 L-615.6 301.5 -615.6 149.1 615.6 149.1 615.6 301.5" fill="#ffffff" fill-opacity="0.0" fill-rule="evenodd" stroke="none"/>
    <path d="M615.6 301.5 L-615.6 301.5 -615.6 149.1 615.6 149.1 615.6 301.5 Z" fill="none" stroke="#000000" stroke-linecap="butt" stroke-linejoin="miter-clip" stroke-miterlimit="4.0" stroke-width="1.0"/>
    <path d="M-369.2 149.1 L-369.2 301.5" fill="none" stroke="#000000" stroke-linecap="butt" stroke-linejoin="miter-clip" stroke-miterlimit="4.0" stroke-opacity="0.6" stroke-width="1.0"/>
    <path d="M-370.6 150.5 L-370.6 299.7 -374.6 299.7 -374.6 150.5 -370.6 150.5" fill="#ffffff" fill-rule="evenodd" stroke="none"/>
    <path d="M36.0 149.1 L36.0 301.5" fill="none" stroke="#000000" stroke-linecap="butt" stroke-linejoin="miter-clip" stroke-miterlimit="4.0" stroke-opacity="0.6" stroke-width="1.0"/>
    <path d="M34.8 150.5 L34.8 299.7 30.8 299.7 30.8 150.5 34.8 150.5" fill="#ffffff" fill-rule="evenodd" stroke="none"/>
    <path d="M446.8 149.1 L446.8 301.5" fill="none" stroke="#000000" stroke-linecap="butt" stroke-linejoin="miter-clip" stroke-miterlimit="4.0" stroke-opacity="0.6" stroke-width="1.0"/>
    <path d="M445.4 150.5 L445.4 299.7 441.4 299.7 441.4 150.5 445.4 150.5" fill="#ffffff" fill-rule="evenodd" stroke="none"/>
    <path d="M730.2 -322.5 Q762.4 -322.5 785.4 -314.9 802.6 -309.1 836.4 -290.1 L836.4 301.5 Q826.8 306.9 808.2 312.1 771.2 322.7 727.4 322.5 686.6 322.7 647.0 312.1 L615.6 301.5 615.6 -290.1 648.0 -306.3 Q688.6 -322.5 730.2 -322.5" fill="#ffffff" fill-opacity="0.0" fill-rule="evenodd" stroke="none"/>
    <path d="M730.2 -322.5 Q688.6 -322.5 648.0 -306.3 L615.6 -290.1 615.6 301.5 647.0 312.1 Q686.6 322.7 727.4 322.5 771.2 322.7 808.2 312.1 826.8 306.9 836.4 301.5 L836.4 -290.1 Q802.6 -309.1 785.4 -314.9 762.4 -322.5 730.2 -322.5 Z" fill="none" stroke="#000000" stroke-linecap="butt" stroke-linejoin="miter-clip" stroke-miterlimit="4.0" stroke-width="1.0"/>
    <path d="M-721.8 -322.5 Q-689.6 -322.5 -666.6 -314.9 -649.4 -309.1 -615.6 -290.1 L-615.6 301.5 Q-625.2 306.9 -643.8 312.1 -680.8 322.7 -724.6 322.5 -765.4 322.7 -805.0 312.1 L-836.4 301.5 -836.4 -290.1 -804.0 -306.3 Q-763.4 -322.5 -721.8 -322.5" fill="#ffffff" fill-opacity="0.0" fill-rule="evenodd" stroke="none"/>
    <path d="M-721.8 -322.5 Q-763.4 -322.5 -804.0 -306.3 L-836.4 -290.1 -836.4 301.5 -805.0 312.1 Q-765.4 322.7 -724.6 322.5 -680.8 322.7 -643.8 312.1 -625.2 306.9 -615.6 301.5 L-615.6 -290.1 Q-649.4 -309.1 -666.6 -314.9 -689.6 -322.5 -721.8 -322.5 Z" fill="none" stroke="#000000" stroke-linecap="butt" stroke-linejoin="miter-clip" stroke-miterlimit="4.0" stroke-width="1.0"/>
  </g>
</svg>
