<?xml version="1.0" encoding="UTF-8" standalone="no"?>
<svg xmlns:xlink="http://www.w3.org/1999/xlink" height="419.8px" width="27.75px" xmlns="http://www.w3.org/2000/svg">
  <g transform="matrix(1.0, 0.0, 0.0, 1.0, 11.55, 191.75)">
    <path d="M-6.9 16.05 L-8.4 15.65 -7.95 0.0 Q-7.8 -1.45 -5.1 -5.4 L-2.4 -9.0 Q-1.75 -20.8 -1.25 -33.1 -0.3 -57.7 -1.2 -60.0 -2.1 -62.3 -4.4 -122.4 L-6.55 -182.05 -2.2 -185.45 Q2.5 -188.45 4.55 -186.4 5.55 -62.35 5.2 -58.85 5.0 -56.65 5.7 -32.9 L6.45 -9.65 7.65 -5.95 Q9.1 -1.9 10.45 -0.3 11.8 1.3 11.25 8.5 L10.45 15.35 8.4 16.15 6.3 153.55 15.65 220.2 6.95 220.2 7.65 227.55 -7.0 227.55 Q-5.3 225.6 -4.3 220.2 L-11.0 220.2 -1.7 153.55 -4.3 16.35 -4.9 16.3 -6.9 16.05 M7.1 16.65 L8.4 16.15 7.1 16.65 -4.3 16.35 7.1 16.65 M7.0 198.2 Q5.75 202.8 6.6 215.65 5.75 202.8 7.0 198.2 M6.6 215.65 L6.95 220.2 6.6 215.65 M-3.0 198.2 L-3.25 210.85 -3.0 198.2 M-3.25 210.85 Q-3.6 216.4 -4.3 220.2 -3.6 216.4 -3.25 210.85" fill="#ffffff" fill-opacity="0.0" fill-rule="evenodd" stroke="none"/>
    <path d="M-6.9 16.05 L-8.4 15.65 -7.95 0.0 Q-7.8 -1.45 -5.1 -5.4 L-2.4 -9.0 Q-1.75 -20.8 -1.25 -33.1 -0.3 -57.7 -1.2 -60.0 -2.1 -62.3 -4.4 -122.4 L-6.55 -182.05 -2.2 -185.45 Q2.5 -188.45 4.55 -186.4 5.55 -62.35 5.2 -58.85 5.0 -56.65 5.7 -32.9 L6.45 -9.65 7.65 -5.95 Q9.1 -1.9 10.45 -0.3 11.8 1.3 11.25 8.5 L10.45 15.35 8.4 16.15 M15.65 220.2 L6.95 220.2 M-7.0 227.55 Q-5.3 225.6 -4.3 220.2 M-1.7 153.55 L-4.3 16.35 M6.6 215.65 Q5.75 202.8 7.0 198.2 M-3.25 210.85 L-3.0 198.2" fill="none" stroke="#000000" stroke-linecap="butt" stroke-linejoin="miter-clip" stroke-miterlimit="10.0" stroke-opacity="0.6" stroke-width="1.0"/>
    <path d="M8.4 16.15 L6.3 153.55 M6.95 220.2 L7.65 227.55 M-4.3 220.2 L-11.0 220.2 M-4.3 16.35 L-4.9 16.3 M8.4 16.15 L7.1 16.65 M6.95 220.2 L6.6 215.65 M-4.3 220.2 Q-3.6 216.4 -3.25 210.85" fill="none" stroke="#000000" stroke-linecap="round" stroke-linejoin="miter-clip" stroke-miterlimit="10.0" stroke-opacity="0.6" stroke-width="1.0"/>
    <path d="M6.3 153.55 L15.65 220.2 M7.65 227.55 L-7.0 227.55 M-11.0 220.2 L-1.7 153.55 M-4.9 16.3 L-6.9 16.05 M7.1 16.65 L-4.3 16.35" fill="none" stroke="#000000" stroke-linecap="butt" stroke-linejoin="miter-clip" stroke-miterlimit="10.0" stroke-opacity="0.6" stroke-width="1.0"/>
  </g>
</svg>
