<?xml version="1.0" encoding="UTF-8" standalone="no"?>
<svg xmlns:xlink="http://www.w3.org/1999/xlink" height="28.25px" width="17.6px" xmlns="http://www.w3.org/2000/svg">
  <g transform="matrix(1.0, 0.0, 0.0, 1.0, 8.45, 14.7)">
    <path d="M7.8 -9.75 L7.55 -8.6 7.8 -9.75 M2.15 10.3 Q0.55 10.6 -3.5 10.4 -7.65 10.15 -7.95 9.6 -8.2 9.1 -4.7 -0.7 L-1.15 -10.45 6.65 -9.85 2.15 10.3 M-3.9 -0.95 Q-7.25 8.05 -7.15 9.25 L-5.7 9.6 0.1 -9.5 -0.55 -9.8 -3.9 -0.95" fill="#ffffff" fill-opacity="0.0" fill-rule="evenodd" stroke="none"/>
    <path d="M7.8 -9.75 L7.55 -8.6 4.05 8.05 2.9 9.65 2.15 10.3 6.65 -9.85 6.8 -10.5 7.9 -10.3 7.8 -9.75" fill="#000000" fill-opacity="0.2" fill-rule="evenodd" stroke="none"/>
    <path d="M-3.9 -0.95 L-0.55 -9.8 0.1 -9.5 -5.7 9.6 -7.15 9.25 Q-7.25 8.05 -3.9 -0.95" fill="#ffffff" fill-opacity="0.8" fill-rule="evenodd" stroke="none"/>
    <path d="M6.65 -9.85 L2.15 10.3" fill="none" stroke="#000000" stroke-linecap="butt" stroke-linejoin="miter-clip" stroke-miterlimit="10.0" stroke-opacity="0.6" stroke-width="1.0"/>
    <path d="M7.55 -8.6 L7.8 -9.75" fill="none" stroke="#000000" stroke-linecap="round" stroke-linejoin="miter-clip" stroke-miterlimit="10.0" stroke-width="1.0"/>
    <path d="M7.8 -9.75 L7.55 -8.6 4.05 8.05 2.9 9.65 2.15 10.3 Q0.55 10.6 -3.5 10.4 -7.65 10.15 -7.95 9.6 -8.2 9.1 -4.7 -0.7 L-1.15 -10.45 6.65 -9.85 6.8 -10.5 7.9 -10.3 7.8 -9.75" fill="none" stroke="#000000" stroke-linecap="round" stroke-linejoin="miter-clip" stroke-miterlimit="10.0" stroke-width="1.0"/>
  </g>
</svg>
