<?xml version="1.0" encoding="UTF-8" standalone="no"?>
<svg xmlns:xlink="http://www.w3.org/1999/xlink" height="30.65px" width="67.9px" xmlns="http://www.w3.org/2000/svg">
  <g transform="matrix(1.0, 0.0, 0.0, 1.0, 33.95, 15.8)">
    <path d="M13.95 2.9 L13.9 1.85 Q13.9 -2.2 16.75 -5.05 19.6 -7.95 23.65 -7.95 27.7 -7.95 30.55 -5.05 33.45 -2.2 33.45 1.85 33.45 5.9 30.55 8.75 27.7 11.65 23.65 11.65 20.8 11.65 18.55 10.25 L11.65 14.15 10.1 9.4 Q8.75 4.65 9.7 4.5 L13.95 2.9 17.65 1.5 18.45 1.95 20.05 3.4 Q22.05 5.95 20.35 9.2 L18.55 10.25 20.35 9.2 Q22.05 5.95 20.05 3.4 L18.45 1.95 17.65 1.5 13.95 2.9 M-13.9 -3.25 L-15.55 -4.45 Q-19.25 -4.65 -20.7 -1.75 -21.45 -0.3 -21.45 1.2 L-18.6 4.05 -21.45 1.2 Q-21.45 -0.3 -20.7 -1.75 -19.25 -4.65 -15.55 -4.45 L-13.9 -3.25 -7.45 1.4 -11.1 4.8 Q-14.9 8.0 -15.45 7.2 L-18.6 4.05 -19.55 4.5 -27.05 4.75 Q-30.85 3.35 -32.5 -0.35 -34.2 -4.05 -32.8 -7.8 -31.35 -11.6 -27.7 -13.3 -24.0 -15.0 -20.2 -13.55 -16.4 -12.15 -14.75 -8.45 -13.55 -5.9 -13.9 -3.25" fill="#ffffff" fill-opacity="0.0" fill-rule="evenodd" stroke="none"/>
    <path d="M13.95 2.9 L13.9 1.85 Q13.9 -2.2 16.75 -5.05 19.6 -7.95 23.65 -7.95 27.7 -7.95 30.55 -5.05 33.45 -2.2 33.45 1.85 33.45 5.9 30.55 8.75 27.7 11.65 23.65 11.65 20.8 11.65 18.55 10.25 L11.65 14.15 10.1 9.4 Q8.75 4.65 9.7 4.5 L13.95 2.9 17.65 1.5 18.45 1.95 20.05 3.4 Q22.05 5.95 20.35 9.2 L18.55 10.25 M-18.6 4.05 L-21.45 1.2 Q-21.45 -0.3 -20.7 -1.75 -19.25 -4.65 -15.55 -4.45 L-13.9 -3.25 Q-13.55 -5.9 -14.75 -8.45 -16.4 -12.15 -20.2 -13.55 -24.0 -15.0 -27.7 -13.3 -31.35 -11.6 -32.8 -7.8 -34.2 -4.05 -32.5 -0.35 -30.85 3.35 -27.05 4.75 L-19.55 4.5 -18.6 4.05 -15.45 7.2 Q-14.9 8.0 -11.1 4.8 L-7.45 1.4 -13.9 -3.25" fill="none" stroke="#000000" stroke-linecap="round" stroke-linejoin="miter-clip" stroke-miterlimit="10.0" stroke-width="1.0"/>
    <path d="M27.15 -4.55 Q28.2 -3.8 28.2 -2.7 28.2 -1.65 27.15 -0.9 26.1 -0.1 24.65 -0.1 23.2 -0.1 22.15 -0.9 21.1 -1.65 21.1 -2.7 21.1 -3.8 22.15 -4.55 23.2 -5.35 24.65 -5.35 26.1 -5.35 27.15 -4.55 M-25.8 -4.5 Q-25.2 -3.15 -25.5 -1.9 -25.75 -0.6 -26.7 -0.2 L-28.8 -0.35 Q-29.95 -1.0 -30.55 -2.3 -31.15 -3.65 -30.9 -4.9 -30.65 -6.15 -29.65 -6.6 L-27.55 -6.45 Q-26.45 -5.8 -25.8 -4.5" fill="#ffffff" fill-opacity="0.8" fill-rule="evenodd" stroke="none"/>
  </g>
</svg>
