<?xml version="1.0" encoding="UTF-8" standalone="no"?>
<svg xmlns:xlink="http://www.w3.org/1999/xlink" height="19.85px" width="156.25px" xmlns="http://www.w3.org/2000/svg">
  <g transform="matrix(1.0, 0.0, 0.0, 1.0, 76.9, 34.4)">
    <path d="M30.45 -32.6 Q49.0 -33.1 54.9 -32.45 L69.45 -31.4 Q76.7 -30.35 77.75 -25.75 78.35 -23.1 55.55 -20.1 33.4 -17.15 4.45 -15.8 -27.3 -14.35 -48.55 -15.85 -73.5 -17.55 -76.4 -23.0 -75.95 -24.8 -74.9 -26.75 -72.8 -30.65 -69.7 -31.35 -66.55 -32.05 -37.1 -32.05 L2.6 -31.9 30.45 -32.6" fill="#ffffff" fill-opacity="0.0" fill-rule="evenodd" stroke="none"/>
    <path d="M30.45 -32.6 Q49.0 -33.1 54.9 -32.45 L69.45 -31.4 Q76.7 -30.35 77.75 -25.75 78.35 -23.1 55.55 -20.1 33.4 -17.15 4.45 -15.8 -27.3 -14.35 -48.55 -15.85 -73.5 -17.55 -76.4 -23.0 -75.95 -24.8 -74.9 -26.75 -72.8 -30.65 -69.7 -31.35 -66.55 -32.05 -37.1 -32.05 L2.6 -31.9 30.45 -32.6 Z" fill="none" stroke="#000000" stroke-linecap="butt" stroke-linejoin="miter-clip" stroke-miterlimit="10.0" stroke-width="1.0"/>
  </g>
</svg>
