<?xml version="1.0" encoding="UTF-8" standalone="no"?>
<svg xmlns:xlink="http://www.w3.org/1999/xlink" height="29.6px" width="13.3px" xmlns="http://www.w3.org/2000/svg">
  <g transform="matrix(1.0, 0.0, 0.0, 1.0, 6.7, 14.7)">
    <path d="M6.1 0.05 Q6.1 5.95 4.3 10.15 2.5 14.25 0.0 14.25 -2.55 14.25 -4.3 10.15 -6.1 5.95 -6.1 0.05 -6.1 -5.8 -4.3 -10.0 -2.55 -14.2 0.0 -14.2 2.5 -14.2 4.3 -10.0 6.1 -5.8 6.1 0.05" fill="#ffffff" fill-opacity="0.0" fill-rule="evenodd" stroke="none"/>
    <path d="M6.1 0.05 Q6.1 5.95 4.3 10.15 2.5 14.25 0.0 14.25 -2.55 14.25 -4.3 10.15 -6.1 5.95 -6.1 0.05 -6.1 -5.8 -4.3 -10.0 -2.55 -14.2 0.0 -14.2 2.5 -14.2 4.3 -10.0 6.1 -5.8 6.1 0.05 Z" fill="none" stroke="#000000" stroke-linecap="butt" stroke-linejoin="miter-clip" stroke-miterlimit="10.0" stroke-width="1.0"/>
  </g>
</svg>
