<?xml version="1.0" encoding="UTF-8" standalone="no"?>
<svg xmlns:xlink="http://www.w3.org/1999/xlink" height="101.05px" width="293.35px" xmlns="http://www.w3.org/2000/svg">
  <g transform="matrix(1.0, 0.0, 0.0, 1.0, 146.7, 50.55)">
    <path d="M-128.45 -30.7 L-117.6 -49.8 Q-98.4 -50.85 0.0 -50.35 98.35 -50.85 117.7 -49.8 L128.5 -30.7 Q140.35 -7.7 145.4 11.4 L146.65 22.65 Q146.05 34.6 136.7 38.6 128.2 41.1 108.95 43.85 70.45 49.3 17.0 50.05 17.0 50.85 0.0 50.15 -16.95 50.85 -17.05 50.05 -70.5 49.3 -108.9 43.85 L-136.75 38.6 Q-146.1 34.6 -146.7 22.65 L-145.35 11.4 Q-140.3 -7.7 -128.45 -30.7" fill="#ffffff" fill-opacity="0.0" fill-rule="evenodd" stroke="none"/>
    <path d="M-84.85 46.55 Q-107.45 44.45 -122.55 41.65 -22.4 -30.6 11.95 -50.45 L47.45 -50.55 -84.85 46.55" fill="#ffffff" fill-opacity="0.8" fill-rule="evenodd" stroke="none"/>
    <path d="M-53.8 48.9 L-70.9 47.7 44.1 -27.9 -53.8 48.9" fill="#ffffff" fill-opacity="0.8" fill-rule="evenodd" stroke="none"/>
  </g>
</svg>
