<?xml version="1.0" encoding="UTF-8" standalone="no"?>
<svg xmlns:xlink="http://www.w3.org/1999/xlink" height="56.6px" width="595.2px" xmlns="http://www.w3.org/2000/svg">
  <g transform="matrix(1.0, 0.0, 0.0, 1.0, 297.6, 28.3)">
    <path d="M297.1 21.9 Q297.1 24.35 294.15 26.05 291.25 27.8 287.1 27.8 L-287.15 27.8 Q-291.3 27.8 -294.2 26.05 -297.1 24.35 -297.1 21.9 -297.1 19.45 -294.2 17.75 -291.3 16.0 -287.15 16.0 L287.1 16.0 Q291.25 16.0 294.15 17.75 297.1 19.45 297.1 21.9" fill="#ffffff" fill-opacity="0.0" fill-rule="evenodd" stroke="none"/>
    <path d="M297.1 21.9 Q297.1 24.35 294.15 26.05 291.25 27.8 287.1 27.8 L-287.15 27.8 Q-291.3 27.8 -294.2 26.05 -297.1 24.35 -297.1 21.9 -297.1 19.45 -294.2 17.75 -291.3 16.0 -287.15 16.0 L287.1 16.0 Q291.25 16.0 294.15 17.75 297.1 19.45 297.1 21.9 Z" fill="none" stroke="#000000" stroke-linecap="butt" stroke-linejoin="miter-clip" stroke-miterlimit="4.0" stroke-width="1.0"/>
    <path d="M218.8 -22.6 Q218.8 -20.45 216.6 -18.9 214.35 -17.4 211.2 -17.4 L-225.05 -17.4 Q-228.2 -17.4 -230.4 -18.9 -232.65 -20.45 -232.65 -22.6 -232.65 -24.75 -230.4 -26.25 -228.2 -27.8 -225.05 -27.8 L211.2 -27.8 Q214.35 -27.8 216.6 -26.25 218.8 -24.75 218.8 -22.6" fill="#ffffff" fill-opacity="0.0" fill-rule="evenodd" stroke="none"/>
    <path d="M218.8 -22.6 Q218.8 -20.45 216.6 -18.9 214.35 -17.4 211.2 -17.4 L-225.05 -17.4 Q-228.2 -17.4 -230.4 -18.9 -232.65 -20.45 -232.65 -22.6 -232.65 -24.75 -230.4 -26.25 -228.2 -27.8 -225.05 -27.8 L211.2 -27.8 Q214.35 -27.8 216.6 -26.25 218.8 -24.75 218.8 -22.6 Z" fill="none" stroke="#000000" stroke-linecap="butt" stroke-linejoin="miter-clip" stroke-miterlimit="4.0" stroke-width="1.0"/>
    <path d="M-233.5 19.7 Q-233.5 20.65 -234.45 20.65 L-291.65 20.65 Q-292.6 20.65 -292.6 19.7 -292.6 18.7 -291.65 18.7 L-234.45 18.7 Q-234.05 18.7 -233.75 19.05 -233.5 19.3 -233.5 19.7" fill="#ffffff" fill-rule="evenodd" stroke="none"/>
    <path d="M214.95 -24.5 Q214.95 -23.55 214.0 -23.55 L158.1 -23.55 Q157.1 -23.55 157.1 -24.5 157.1 -25.5 158.1 -25.5 L214.0 -25.5 Q214.35 -25.5 214.7 -25.15 L214.95 -24.5" fill="#ffffff" fill-rule="evenodd" stroke="none"/>
    <path d="M291.0 19.05 Q291.0 20.0 289.6 20.0 L213.65 20.0 Q212.35 20.0 212.35 19.05 212.35 18.65 212.75 18.4 213.15 18.05 213.65 18.05 L289.6 18.05 Q290.15 18.05 290.6 18.4 291.0 18.65 291.0 19.05" fill="#ffffff" fill-rule="evenodd" stroke="none"/>
    <path d="M-166.15 -25.5 L-167.7 -23.55 -226.0 -23.55 Q-227.0 -23.55 -227.0 -24.5 L-226.65 -25.15 Q-226.4 -25.5 -226.0 -25.5 L-166.15 -25.5" fill="#ffffff" fill-rule="evenodd" stroke="none"/>
  </g>
</svg>
