<?xml version="1.0" encoding="UTF-8" standalone="no"?>
<svg xmlns:xlink="http://www.w3.org/1999/xlink" height="74.7px" width="184.35px" xmlns="http://www.w3.org/2000/svg">
  <g transform="matrix(1.0, 0.0, 0.0, 1.0, 88.75, 62.25)">
    <path d="M-56.1 -61.75 Q-42.8 -61.75 -33.4 -53.4 -24.0 -45.05 -24.0 -33.25 -24.0 -21.45 -33.4 -13.1 -42.8 -4.75 -56.1 -4.75 -69.4 -4.75 -78.85 -13.1 -88.25 -21.45 -88.25 -33.25 -88.25 -45.05 -78.85 -53.4 -69.4 -61.75 -56.1 -61.75" fill="#ffffff" fill-opacity="0.0" fill-rule="evenodd" stroke="none"/>
    <path d="M-56.1 -61.75 Q-42.8 -61.75 -33.4 -53.4 -24.0 -45.05 -24.0 -33.25 -24.0 -21.45 -33.4 -13.1 -42.8 -4.75 -56.1 -4.75 -69.4 -4.75 -78.85 -13.1 -88.25 -21.45 -88.25 -33.25 -88.25 -45.05 -78.85 -53.4 -69.4 -61.75 -56.1 -61.75 Z" fill="none" stroke="#000000" stroke-linecap="butt" stroke-linejoin="miter-clip" stroke-miterlimit="4.0" stroke-opacity="0.6" stroke-width="1.0"/>
    <path d="M73.55 -52.5 Q78.75 -49.6 80.35 -43.9 82.0 -38.15 79.1 -33.0 76.2 -27.8 70.5 -26.2 L35.85 -16.35 Q30.15 -14.75 24.95 -17.65 19.75 -20.55 18.15 -26.25 16.55 -32.0 19.45 -37.15 22.3 -42.35 28.05 -43.95 L62.65 -53.75 Q68.4 -55.35 73.55 -52.5" fill="#ffffff" fill-opacity="0.0" fill-rule="evenodd" stroke="none"/>
    <path d="M73.55 -52.5 Q78.75 -49.6 80.35 -43.9 82.0 -38.15 79.1 -33.0 76.2 -27.8 70.5 -26.2 L35.85 -16.35 Q30.15 -14.75 24.95 -17.65 19.75 -20.55 18.15 -26.25 16.55 -32.0 19.45 -37.15 22.3 -42.35 28.05 -43.95 L62.65 -53.75 Q68.4 -55.35 73.55 -52.5 Z" fill="none" stroke="#000000" stroke-linecap="butt" stroke-linejoin="miter-clip" stroke-miterlimit="4.0" stroke-opacity="0.6" stroke-width="1.0"/>
    <path d="M67.1 -2.55 Q69.6 -0.05 69.6 3.45 69.6 6.95 67.1 9.45 64.6 11.95 61.1 11.95 57.6 11.95 55.1 9.45 52.6 6.95 52.6 3.45 52.6 -0.05 55.1 -2.55 57.6 -5.05 61.1 -5.05 64.65 -5.05 67.1 -2.55" fill="#ffffff" fill-opacity="0.0" fill-rule="evenodd" stroke="none"/>
    <path d="M67.1 -2.55 Q69.6 -0.05 69.6 3.45 69.6 6.95 67.1 9.45 64.6 11.95 61.1 11.95 57.6 11.95 55.1 9.45 52.6 6.95 52.6 3.45 52.6 -0.05 55.1 -2.55 57.6 -5.05 61.1 -5.05 64.65 -5.05 67.1 -2.55 Z" fill="none" stroke="#000000" stroke-linecap="butt" stroke-linejoin="miter-clip" stroke-miterlimit="4.0" stroke-opacity="0.6" stroke-width="1.0"/>
    <path d="M80.6 -12.05 Q83.1 -14.55 86.6 -14.55 90.15 -14.55 92.6 -12.05 95.1 -9.55 95.1 -6.05 95.1 -2.55 92.6 -0.05 90.1 2.45 86.6 2.45 83.1 2.45 80.6 -0.05 78.1 -2.55 78.1 -6.05 78.1 -9.55 80.6 -12.05" fill="#ffffff" fill-opacity="0.0" fill-rule="evenodd" stroke="none"/>
    <path d="M80.6 -12.05 Q83.1 -14.55 86.6 -14.55 90.15 -14.55 92.6 -12.05 95.1 -9.55 95.1 -6.05 95.1 -2.55 92.6 -0.05 90.1 2.45 86.6 2.45 83.1 2.45 80.6 -0.05 78.1 -2.55 78.1 -6.05 78.1 -9.55 80.6 -12.05 Z" fill="none" stroke="#000000" stroke-linecap="butt" stroke-linejoin="miter-clip" stroke-miterlimit="4.0" stroke-opacity="0.6" stroke-width="1.0"/>
    <path d="M60.75 -2.4 L62.8 -1.95 Q63.6 -1.55 63.6 -0.9 63.6 -0.3 62.8 0.15 L60.75 0.6 58.75 0.15 Q57.95 -0.3 57.95 -0.9 57.95 -1.55 58.75 -1.95 L60.75 -2.4" fill="#ffffff" fill-opacity="0.6" fill-rule="evenodd" stroke="none"/>
    <path d="M86.6 -8.9 Q85.45 -8.9 84.6 -9.35 83.75 -9.8 83.75 -10.4 83.75 -11.05 84.6 -11.45 L86.6 -11.9 88.6 -11.45 Q89.45 -11.05 89.45 -10.4 89.45 -9.8 88.6 -9.35 87.75 -8.9 86.6 -8.9" fill="#ffffff" fill-opacity="0.6" fill-rule="evenodd" stroke="none"/>
  </g>
</svg>
