<?xml version="1.0" encoding="UTF-8" standalone="no"?>
<svg xmlns:xlink="http://www.w3.org/1999/xlink" height="89.95px" width="108.35px" xmlns="http://www.w3.org/2000/svg">
  <g transform="matrix(1.0, 0.0, 0.0, 1.0, 54.15, 45.15)">
    <path d="M53.7 24.85 L53.7 44.3 -53.65 44.3 -53.65 24.85 -45.0 -44.3 45.05 -44.3 53.7 24.85" fill="#ffffff" fill-opacity="0.0" fill-rule="evenodd" stroke="none"/>
    <path d="M53.7 24.85 L45.05 -44.3 -45.0 -44.3 -53.65 24.85 -53.65 44.3 53.7 44.3 53.7 24.85 Z" fill="none" stroke="#000000" stroke-linecap="butt" stroke-linejoin="miter-clip" stroke-miterlimit="4.0" stroke-width="1.0"/>
    <path d="M53.6 24.4 L53.7 24.85 53.7 44.3 -53.65 44.3 -53.65 24.85 -53.55 24.4 53.6 24.4" fill="#000000" fill-opacity="0.2" fill-rule="evenodd" stroke="none"/>
    <path d="M53.6 24.4 L-53.55 24.4 -53.65 24.85 -53.65 44.3 53.7 44.3 53.7 24.85 53.6 24.4 Z" fill="none" stroke="#000000" stroke-linecap="butt" stroke-linejoin="miter-clip" stroke-miterlimit="4.0" stroke-width="1.0"/>
    <path d="M42.15 6.6 L-2.85 6.6 -1.3 -23.65 38.55 -23.65 42.15 6.6" fill="#000000" fill-opacity="0.2" fill-rule="evenodd" stroke="none"/>
    <path d="M42.15 6.6 L-2.85 6.6 -1.3 -23.65 38.55 -23.65 42.15 6.6 Z" fill="none" stroke="#000000" stroke-linecap="butt" stroke-linejoin="miter-clip" stroke-miterlimit="4.0" stroke-opacity="0.8" stroke-width="1.0"/>
    <path d="M-25.5 -17.9 L-39.15 -17.9 -38.45 -25.55 -25.5 -25.55 -25.5 -17.9" fill="#000000" fill-opacity="0.2" fill-rule="evenodd" stroke="none"/>
    <path d="M-25.5 -17.9 L-39.15 -17.9 -38.45 -25.55 -25.5 -25.55 -25.5 -17.9 Z" fill="none" stroke="#000000" stroke-linecap="butt" stroke-linejoin="miter-clip" stroke-miterlimit="4.0" stroke-width="1.0"/>
    <path d="M-10.1 -17.9 L-23.1 -17.9 -23.1 -25.55 -10.1 -25.55 -10.1 -17.9" fill="#000000" fill-opacity="0.2" fill-rule="evenodd" stroke="none"/>
    <path d="M-10.1 -17.9 L-23.1 -17.9 -23.1 -25.55 -10.1 -25.55 -10.1 -17.9 Z" fill="none" stroke="#000000" stroke-linecap="butt" stroke-linejoin="miter-clip" stroke-miterlimit="4.0" stroke-width="1.0"/>
    <path d="M-38.45 -14.75 L-25.5 -14.75 -25.5 -7.05 -39.15 -7.05 -38.45 -14.75" fill="#000000" fill-opacity="0.2" fill-rule="evenodd" stroke="none"/>
    <path d="M-38.45 -14.75 L-25.5 -14.75 -25.5 -7.05 -39.15 -7.05 -38.45 -14.75 Z" fill="none" stroke="#000000" stroke-linecap="butt" stroke-linejoin="miter-clip" stroke-miterlimit="4.0" stroke-width="1.0"/>
    <path d="M-10.1 -7.05 L-23.1 -7.05 -23.1 -14.75 -10.1 -14.75 -10.1 -7.05" fill="#000000" fill-opacity="0.2" fill-rule="evenodd" stroke="none"/>
    <path d="M-10.1 -7.05 L-23.1 -7.05 -23.1 -14.75 -10.1 -14.75 -10.1 -7.05 Z" fill="none" stroke="#000000" stroke-linecap="butt" stroke-linejoin="miter-clip" stroke-miterlimit="4.0" stroke-width="1.0"/>
    <path d="M37.1 -33.7 L-38.25 -33.7 -38.25 -37.3 37.1 -37.3 37.1 -33.7" fill="#000000" fill-opacity="0.14901961" fill-rule="evenodd" stroke="none"/>
    <path d="M44.25 14.6 L-18.9 14.6 -18.15 11.45 43.55 11.45 44.25 14.6" fill="#000000" fill-opacity="0.14901961" fill-rule="evenodd" stroke="none"/>
    <path d="M44.6 19.85 L-20.7 19.85 -19.95 16.7 43.9 16.7 44.6 19.85" fill="#000000" fill-opacity="0.14901961" fill-rule="evenodd" stroke="none"/>
    <path d="M-43.4 -42.5 L-51.05 22.45 -52.85 23.65 -44.6 -43.9 -43.4 -42.5" fill="#ffffff" fill-opacity="0.49803922" fill-rule="evenodd" stroke="none"/>
    <path d="M52.95 26.3 L-52.65 26.3 -52.65 25.1 52.95 25.1 52.95 26.3" fill="#ffffff" fill-opacity="0.49803922" fill-rule="evenodd" stroke="none"/>
  </g>
</svg>
