<?xml version="1.0" encoding="UTF-8" standalone="no"?>
<svg xmlns:xlink="http://www.w3.org/1999/xlink" height="33.75px" width="150.2px" xmlns="http://www.w3.org/2000/svg">
  <g transform="matrix(1.0, 0.0, 0.0, 1.0, 75.1, 16.85)">
    <path d="M24.5 -15.75 L24.95 -15.75 Q41.6 -15.0 52.05 -12.35 57.3 -11.05 59.2 -9.9 61.45 -8.75 65.0 -2.75 L73.35 12.1 Q74.85 13.4 74.55 14.95 L73.95 16.3 0.0 10.1 -73.95 16.3 -74.55 14.95 Q-74.85 13.4 -73.35 12.1 L-65.0 -2.75 Q-61.45 -8.75 -59.2 -9.9 -57.3 -11.05 -52.05 -12.35 -41.6 -15.0 -24.95 -15.75 L-2.9 -16.3 -2.9 -16.35 2.9 -16.35 2.9 -16.3 23.25 -15.8 24.5 -15.75" fill="#000000" fill-opacity="0.2" fill-rule="evenodd" stroke="none"/>
    <path d="M24.5 -15.75 L23.25 -15.8 2.9 -16.3 2.9 -16.35 -2.9 -16.35 -2.9 -16.3 -24.95 -15.75 Q-41.6 -15.0 -52.05 -12.35 -57.3 -11.05 -59.2 -9.9 -61.45 -8.75 -65.0 -2.75 L-73.35 12.1 Q-74.85 13.4 -74.55 14.95 L-73.95 16.3 0.0 10.1 73.95 16.3 74.55 14.95 Q74.85 13.4 73.35 12.1 L65.0 -2.75 Q61.45 -8.75 59.2 -9.9 57.3 -11.05 52.05 -12.35 41.6 -15.0 24.95 -15.75 L24.5 -15.75 Z" fill="none" stroke="#231f20" stroke-linecap="butt" stroke-linejoin="miter-clip" stroke-miterlimit="4.0" stroke-opacity="0.6" stroke-width="1.0"/>
  </g>
</svg>
