<?xml version="1.0" encoding="UTF-8" standalone="no"?>
<svg xmlns:xlink="http://www.w3.org/1999/xlink" height="43.1px" width="88.4px" xmlns="http://www.w3.org/2000/svg">
  <g transform="matrix(1.0, 0.0, 0.0, 1.0, 44.3, 21.65)">
    <path d="M7.65 -2.05 Q23.05 -9.4 37.8 -16.7 16.8 -12.9 -6.9 0.5 -18.8 7.2 -26.45 13.15 -23.15 12.7 7.65 -2.05 M43.5 -9.8 Q37.15 -8.55 26.55 -4.1 5.3 4.8 -16.1 20.95 L-27.7 19.4 Q-40.0 16.9 -43.55 12.2 -31.2 6.4 -14.6 -0.7 18.6 -14.8 39.95 -21.0 L42.4 -14.2 43.5 -9.8" fill="#ffffff" fill-opacity="0.0" fill-rule="evenodd" stroke="none"/>
    <path d="M7.65 -2.05 Q-23.15 12.7 -26.45 13.15 -18.8 7.2 -6.9 0.5 16.8 -12.9 37.8 -16.7 23.05 -9.4 7.65 -2.05" fill="#ffffff" fill-opacity="0.09803922" fill-rule="evenodd" stroke="none"/>
    <path d="M43.5 -9.8 Q37.15 -8.55 26.55 -4.1 5.3 4.8 -16.1 20.95 L-27.7 19.4 Q-40.0 16.9 -43.55 12.2 -31.2 6.4 -14.6 -0.7 18.6 -14.8 39.95 -21.0 L42.4 -14.2 43.5 -9.8 Z" fill="none" stroke="#000000" stroke-linecap="butt" stroke-linejoin="miter-clip" stroke-miterlimit="4.0" stroke-opacity="0.4" stroke-width="1.0"/>
  </g>
</svg>
