<?xml version="1.0" encoding="UTF-8" standalone="no"?>
<svg xmlns:xlink="http://www.w3.org/1999/xlink" height="33.4px" width="140.35px" xmlns="http://www.w3.org/2000/svg">
  <g transform="matrix(1.0, 0.0, 0.0, 1.0, 70.15, 16.7)">
    <path d="M7.35 -16.65 L12.45 -16.55 19.15 -16.35 18.55 -16.35 -4.9 12.45 2.1 12.95 21.15 -16.25 Q33.5 -15.6 43.0 -13.6 49.4 -12.3 52.2 -11.05 57.05 -7.35 62.5 1.7 L64.65 5.45 Q68.0 11.5 70.2 16.7 L-25.35 16.4 7.35 -16.65 M-9.45 -16.6 L-19.6 -9.35 -34.8 2.55 -42.7 9.1 -44.4 10.55 -51.3 16.6 -70.15 16.7 Q-67.95 11.5 -64.6 5.45 -57.95 -6.65 -52.15 -11.05 -49.35 -12.3 -42.95 -13.6 L-42.7 -13.65 Q-32.7 -15.7 -19.6 -16.3 L-12.4 -16.55 -9.45 -16.6" fill="#ffffff" fill-opacity="0.0" fill-rule="evenodd" stroke="none"/>
    <path d="M7.35 -16.65 L-25.35 16.4 -51.3 16.6 -44.4 10.55 -42.7 9.1 -34.8 2.55 -19.6 -9.35 -9.45 -16.6 7.35 -16.7 7.35 -16.65 M21.15 -16.25 L2.1 12.95 -4.9 12.45 18.55 -16.35 19.15 -16.35 21.15 -16.25" fill="#ffffff" fill-opacity="0.09803922" fill-rule="evenodd" stroke="none"/>
  </g>
</svg>
