<?xml version="1.0" encoding="UTF-8" standalone="no"?>
<svg xmlns:xlink="http://www.w3.org/1999/xlink" height="42.45px" width="142.25px" xmlns="http://www.w3.org/2000/svg">
  <g transform="matrix(1.0, 0.0, 0.0, 1.0, 70.35, 19.6)">
    <path d="M-56.6 -13.55 L-56.4 -13.95 Q-53.85 -18.2 -50.4 -19.1 L49.9 -19.1 Q53.35 -18.2 55.9 -13.95 L56.15 -13.55 -56.6 -13.55 56.15 -13.55 60.25 -13.55 Q65.45 -13.55 66.8 -9.4 67.5 -7.35 67.15 -5.3 L67.15 5.75 Q67.6 9.9 69.0 11.75 71.55 13.2 71.0 15.85 70.7 17.15 69.9 18.2 L62.55 22.35 -61.0 22.35 -68.35 18.2 Q-69.15 17.15 -69.45 15.85 -70.05 13.2 -67.45 11.75 -66.05 9.9 -65.6 5.75 L-65.6 -5.3 Q-65.95 -7.35 -65.3 -9.4 -63.9 -13.55 -58.7 -13.55 L-56.6 -13.55 M62.45 -10.05 L62.65 -10.6 Q62.65 -11.35 61.9 -11.35 L-60.55 -11.35 Q-61.3 -11.35 -61.3 -10.6 L-61.05 -10.05 -60.55 -9.85 61.9 -9.85 62.45 -10.05 M-67.45 11.75 L69.0 11.75 -67.45 11.75" fill="#ffffff" fill-opacity="0.0" fill-rule="evenodd" stroke="none"/>
    <path d="M62.45 -10.05 L61.9 -9.85 -60.55 -9.85 -61.05 -10.05 -61.3 -10.6 Q-61.3 -11.35 -60.55 -11.35 L61.9 -11.35 Q62.65 -11.35 62.65 -10.6 L62.45 -10.05" fill="#ffffff" fill-opacity="0.6" fill-rule="evenodd" stroke="none"/>
    <path d="M56.15 -13.55 L55.9 -13.95 Q53.35 -18.2 49.9 -19.1 L-50.4 -19.1 Q-53.85 -18.2 -56.4 -13.95 L-56.6 -13.55 -58.7 -13.55 Q-63.9 -13.55 -65.3 -9.4 -65.95 -7.35 -65.6 -5.3 L-65.6 5.75 Q-66.05 9.9 -67.45 11.75 -70.05 13.2 -69.45 15.85 -69.15 17.15 -68.35 18.2 L-61.0 22.35 62.55 22.35 69.9 18.2 Q70.7 17.15 71.0 15.85 71.55 13.2 69.0 11.75 67.6 9.9 67.15 5.75 L67.15 -5.3 Q67.5 -7.35 66.8 -9.4 65.45 -13.55 60.25 -13.55 L56.15 -13.55" fill="none" stroke="#000000" stroke-linecap="butt" stroke-linejoin="miter-clip" stroke-miterlimit="4.0" stroke-width="1.0"/>
    <path d="M-56.6 -13.55 L56.15 -13.55 M69.0 11.75 L-67.45 11.75" fill="none" stroke="#000000" stroke-linecap="butt" stroke-linejoin="miter-clip" stroke-miterlimit="4.0" stroke-opacity="0.4" stroke-width="1.0"/>
  </g>
</svg>
