<?xml version="1.0" encoding="UTF-8" standalone="no"?>
<svg xmlns:xlink="http://www.w3.org/1999/xlink" height="10.2px" width="35.3px" xmlns="http://www.w3.org/2000/svg">
  <g transform="matrix(1.0, 0.0, 0.0, 1.0, 17.65, 5.2)">
    <path d="M14.85 -1.4 L15.65 -1.4 14.55 -1.2 11.5 -0.2 11.85 -0.8 12.2 -1.25 12.85 -1.35 13.4 -1.4 14.85 -1.4" fill="#ffffff" fill-opacity="0.0" fill-rule="evenodd" stroke="none"/>
    <path d="M14.85 -1.4 L13.4 -1.4 12.85 -1.35 12.2 -1.25 11.85 -0.8 11.5 -0.2 14.55 -1.2 15.65 -1.4 14.85 -1.4 Z" fill="none" stroke="#000000" stroke-linecap="butt" stroke-linejoin="miter-clip" stroke-miterlimit="4.0" stroke-width="1.0"/>
    <path d="M-8.6 0.75 L-15.65 -0.5 -11.75 -0.7 -7.95 -0.55 -4.1 -0.55 Q-2.3 -0.65 -1.7 -1.35 -1.1 -2.0 -1.35 -3.35 L-0.8 -3.65 Q-0.4 -2.85 0.4 -2.95 1.15 -3.1 1.2 -4.05 L1.65 -3.8 1.65 -3.6 Q1.85 -1.6 3.0 -1.1 L6.25 -0.85 10.0 -1.1 Q10.0 -0.25 10.35 -0.05 L10.65 0.1 5.8 1.95 3.55 3.0 1.3 3.95 -0.35 3.85 -1.9 3.05 Q-4.7 1.65 -8.6 0.75" fill="#ffffff" fill-opacity="0.0" fill-rule="evenodd" stroke="none"/>
    <path d="M-8.6 0.75 Q-4.7 1.65 -1.9 3.05 L-0.35 3.85 1.3 3.95 3.55 3.0 5.8 1.95 10.65 0.1 10.35 -0.05 Q10.0 -0.25 10.0 -1.1 L6.25 -0.85 3.0 -1.1 Q1.85 -1.6 1.65 -3.6 L1.65 -3.8 1.2 -4.05 Q1.15 -3.1 0.4 -2.95 -0.4 -2.85 -0.8 -3.65 L-1.35 -3.35 Q-1.1 -2.0 -1.7 -1.35 -2.3 -0.65 -4.1 -0.55 L-7.95 -0.55 -11.75 -0.7 -15.65 -0.5 -8.6 0.75 Z" fill="none" stroke="#000000" stroke-linecap="butt" stroke-linejoin="miter-clip" stroke-miterlimit="4.0" stroke-width="1.0"/>
  </g>
</svg>
