<?xml version="1.0" encoding="UTF-8" standalone="no"?>
<svg xmlns:xlink="http://www.w3.org/1999/xlink" height="247.95px" width="263.85px" xmlns="http://www.w3.org/2000/svg">
  <g transform="matrix(1.0, 0.0, 0.0, 1.0, 132.5, 164.4)">
    <path d="M-35.75 -122.55 Q-36.7 -122.8 -37.5 -123.35 -39.75 -124.85 -40.2 -128.2 -40.7 -127.75 -42.5 -127.0 -44.25 -126.35 -44.8 -125.9 L-45.0 -135.4 Q-46.6 -135.6 -49.95 -133.8 L-55.55 -130.5 Q-58.55 -128.8 -59.75 -129.25 -61.25 -129.8 -60.45 -133.85 -62.2 -131.45 -64.0 -131.9 -65.8 -132.45 -66.9 -135.45 -69.75 -133.9 -72.1 -134.05 -74.9 -134.3 -75.55 -137.2 L-70.8 -137.85 Q-67.8 -138.25 -66.05 -138.9 -66.1 -141.7 -69.0 -142.6 -72.45 -143.65 -73.1 -145.15 L-62.55 -144.8 -52.3 -142.95 Q-52.55 -143.9 -52.2 -146.05 -51.85 -148.25 -52.05 -149.2 -49.05 -149.35 -44.25 -147.1 -38.0 -144.05 -36.9 -143.75 -37.05 -144.45 -36.8 -146.05 -36.6 -147.65 -36.7 -148.35 -27.05 -147.3 -20.9 -140.8 -20.05 -143.25 -17.65 -144.05 L-12.65 -144.6 -12.65 -150.7 Q-12.65 -151.15 -13.7 -152.45 L-15.1 -154.3 Q-10.05 -154.45 -10.4 -159.05 -10.6 -161.55 -10.4 -162.25 -9.9 -163.8 -7.6 -163.9 -5.65 -164.0 -2.95 -160.65 -0.45 -157.55 2.7 -158.35 1.95 -165.0 8.25 -162.75 L13.6 -160.35 Q16.8 -158.9 18.15 -158.9 18.0 -157.6 18.25 -154.95 L18.35 -151.05 Q20.75 -151.4 22.7 -153.1 L25.3 -155.6 Q27.75 -157.5 32.8 -150.4 33.25 -151.15 34.45 -152.0 L36.05 -153.25 Q41.05 -147.05 43.8 -148.2 L47.25 -149.9 Q50.05 -150.95 53.7 -150.8 53.7 -150.2 54.4 -148.15 54.95 -146.4 54.8 -145.35 L58.05 -146.2 Q59.9 -146.75 61.15 -147.8 64.1 -146.55 68.45 -142.7 72.25 -147.55 77.45 -145.3 L81.35 -143.65 Q83.55 -143.05 85.25 -144.35 85.5 -139.15 79.6 -139.1 L70.0 -139.4 66.85 -137.8 Q64.4 -136.5 63.55 -136.45 62.8 -136.4 60.2 -137.85 L56.55 -139.45 Q58.95 -134.6 57.45 -131.25 56.2 -128.4 52.55 -127.65 49.2 -126.9 45.95 -128.45 42.45 -130.15 41.55 -133.65 40.2 -130.9 37.45 -131.15 L32.15 -132.2 Q32.25 -130.2 33.65 -124.8 L33.8 -123.9 Q34.25 -119.65 32.2 -117.75 29.55 -115.2 26.7 -117.25 23.05 -119.95 20.8 -119.5 20.85 -120.35 20.3 -121.8 19.7 -123.35 19.7 -124.15 L17.55 -123.9 15.35 -123.45 Q16.55 -119.05 16.05 -114.6 15.4 -109.3 12.55 -106.45 8.2 -107.55 6.45 -108.25 3.55 -109.5 4.35 -113.6 2.65 -114.1 -0.15 -112.5 L-5.1 -109.1 Q-10.95 -105.25 -11.85 -111.2 -12.5 -110.45 -14.2 -109.85 L-16.4 -108.9 -18.9 -116.25 Q-20.85 -122.05 -21.4 -122.65 -23.45 -124.65 -25.95 -124.05 -29.3 -123.2 -31.8 -124.1 L-32.05 -122.75 -35.75 -122.55 -32.05 -122.75 -31.8 -124.1 Q-29.3 -123.2 -25.95 -124.05 -23.45 -124.65 -21.4 -122.65 -20.85 -122.05 -18.9 -116.25 L-16.4 -108.9 -14.2 -109.85 Q-12.5 -110.45 -11.85 -111.2 -10.95 -105.25 -5.1 -109.1 L-0.15 -112.5 Q2.65 -114.1 4.35 -113.6 3.55 -109.5 6.45 -108.25 8.2 -107.55 12.55 -106.45 15.4 -109.3 16.05 -114.6 16.55 -119.05 15.35 -123.45 L17.55 -123.9 19.7 -124.15 Q19.7 -123.35 20.3 -121.8 20.85 -120.35 20.8 -119.5 23.05 -119.95 26.7 -117.25 29.55 -115.2 32.2 -117.75 34.25 -119.65 33.8 -123.9 L37.55 -124.1 Q35.65 -120.2 38.4 -117.65 41.15 -115.15 44.15 -119.0 46.65 -112.05 49.8 -116.05 51.5 -118.25 54.6 -123.5 L56.05 -121.8 Q56.95 -120.75 57.25 -119.5 L62.6 -119.05 67.65 -118.6 Q68.95 -118.0 72.45 -114.3 75.1 -111.55 76.55 -112.65 74.2 -107.75 66.9 -108.15 66.0 -111.4 61.9 -113.4 60.9 -110.7 57.45 -107.7 54.15 -104.65 50.5 -103.2 46.55 -101.6 44.4 -102.85 41.85 -104.35 42.4 -109.55 38.45 -109.55 36.1 -105.45 L33.7 -107.0 Q33.55 -103.95 32.85 -102.25 31.85 -99.95 29.55 -98.95 27.3 -97.95 25.0 -99.75 22.8 -101.55 20.65 -100.55 18.95 -99.75 18.55 -96.75 18.15 -94.1 15.0 -93.45 12.7 -92.9 10.2 -94.45 7.75 -95.9 6.85 -98.05 7.5 -92.7 6.05 -89.15 4.3 -84.85 -0.35 -83.75 -5.4 -82.6 -6.9 -87.25 -7.65 -89.65 -8.35 -90.35 -9.65 -91.6 -12.4 -90.95 -12.2 -90.1 -12.5 -88.2 L-12.65 -85.5 -14.55 -85.7 -16.35 -86.1 Q-18.95 -82.75 -22.15 -84.2 -25.75 -86.6 -27.75 -87.1 -27.7 -90.7 -27.8 -92.45 -28.0 -95.5 -29.3 -97.25 -29.85 -94.05 -31.65 -92.65 -33.75 -91.05 -36.2 -93.35 L-37.95 -92.85 -39.9 -92.75 -40.1 -96.3 Q-40.35 -98.7 -40.2 -99.85 L-46.55 -96.25 Q-50.3 -94.55 -52.9 -96.85 -52.5 -98.6 -50.9 -99.85 -49.45 -101.2 -47.35 -101.75 -49.3 -103.9 -52.2 -106.1 -53.7 -104.85 -54.4 -104.55 L-57.7 -103.85 -57.85 -101.5 -58.0 -99.25 -59.85 -99.85 Q-61.5 -100.35 -61.95 -100.7 -62.15 -100.05 -63.1 -98.7 L-64.3 -96.75 Q-68.2 -98.15 -70.0 -99.05 -73.25 -100.55 -73.9 -103.0 L-70.8 -103.15 -67.65 -103.3 -67.45 -106.3 -65.0 -105.9 Q-63.6 -105.75 -62.5 -105.0 -62.65 -108.05 -65.9 -109.85 -69.9 -111.6 -71.45 -112.75 -71.85 -109.95 -74.75 -108.95 L-80.35 -108.75 -81.45 -104.9 -84.5 -104.95 Q-82.85 -107.9 -84.85 -109.8 -86.6 -111.4 -90.1 -111.4 -91.0 -116.35 -86.75 -116.85 -83.6 -117.25 -79.0 -115.4 -78.35 -118.95 -74.75 -119.05 -72.85 -119.15 -67.25 -117.6 -62.05 -116.2 -59.85 -116.6 -56.45 -117.2 -56.05 -121.65 L-49.8 -120.05 Q-46.7 -120.05 -45.0 -123.75 -41.65 -120.1 -35.75 -122.55 M5.15 -9.85 Q5.1 -10.95 5.35 -12.3 L6.05 -15.7 Q8.25 -15.35 9.6 -13.6 10.95 -11.85 11.05 -9.4 L13.05 -9.7 14.85 -10.0 14.7 -7.8 14.3 -5.55 18.4 -7.45 Q20.8 -8.45 22.75 -8.95 L23.1 -7.35 23.45 -5.8 Q29.85 -7.9 33.9 -6.55 38.6 -4.9 31.45 1.1 L39.95 0.55 Q40.15 0.35 39.95 2.75 L37.9 2.8 Q40.95 3.8 44.1 7.55 L42.05 9.35 39.65 11.65 Q38.4 12.85 37.75 12.85 35.95 12.9 33.85 12.2 31.15 11.25 31.8 9.55 L30.8 11.4 Q30.25 12.55 30.25 14.05 L29.15 14.15 28.25 14.3 Q29.15 15.75 29.3 17.7 L29.45 21.15 Q28.05 22.1 26.15 22.6 L22.4 22.95 Q22.15 22.45 22.15 21.5 L22.15 19.95 20.35 20.3 18.3 20.6 Q19.95 17.65 19.55 15.4 19.05 12.95 15.95 12.0 16.15 15.0 15.1 17.75 13.95 20.6 11.75 22.35 10.35 19.55 8.25 19.45 6.05 19.25 4.3 22.25 3.0 19.65 0.9 18.35 -1.55 16.7 -4.35 17.55 -2.75 19.8 -2.1 21.25 -1.2 23.35 -1.3 25.4 L-3.65 24.15 Q-3.1 27.85 -4.6 30.55 -5.85 32.85 -8.0 33.5 -10.05 34.15 -11.25 32.65 -12.15 31.45 -12.0 29.35 L-16.4 28.25 -14.8 33.55 Q-13.85 36.75 -14.25 39.15 L-16.4 38.5 Q-16.05 41.75 -17.3 44.05 -18.45 46.1 -20.4 46.5 -22.3 46.95 -23.7 45.25 -25.35 43.35 -25.6 39.55 -26.1 40.0 -27.55 40.6 L-29.45 41.6 Q-28.85 40.35 -28.85 38.3 L-28.6 34.9 -31.85 34.9 -35.1 35.35 Q-34.75 36.2 -34.7 37.7 L-34.5 40.0 -36.1 39.8 -37.75 39.55 Q-35.95 42.6 -36.0 45.45 -37.6 44.2 -39.4 47.3 L-40.1 46.35 -40.9 45.25 -42.8 45.7 -44.6 46.15 Q-43.25 43.65 -45.0 42.3 -46.8 41.05 -48.0 44.0 L-49.75 43.35 -50.8 43.0 -49.75 43.35 -48.0 44.0 Q-46.8 41.05 -45.0 42.3 -43.25 43.65 -44.6 46.15 L-42.8 45.7 -40.9 45.25 -40.1 46.35 -39.4 47.3 Q-37.6 44.2 -36.0 45.45 L-35.35 46.1 Q-33.35 48.75 -35.45 51.55 -34.15 51.65 -32.4 50.9 -30.35 50.0 -29.55 49.9 L-27.2 49.75 -24.7 50.0 -21.75 49.55 Q-20.35 49.45 -20.4 51.65 -20.4 53.05 -21.85 54.0 -23.1 54.8 -24.65 54.9 -24.4 58.5 -27.85 59.85 -31.0 61.05 -34.3 59.75 -35.0 62.9 -36.7 64.4 -38.7 66.2 -41.3 64.15 -41.75 63.8 -46.8 66.75 -51.85 69.75 -53.5 68.6 -53.85 71.2 -55.75 71.9 -57.75 72.65 -58.85 70.05 L-60.2 71.0 Q-60.15 69.8 -60.65 68.5 -61.35 66.95 -62.5 67.25 -64.0 67.65 -64.0 69.0 L-64.1 71.6 Q-65.85 75.55 -66.7 76.65 -68.7 79.2 -69.5 74.5 L-70.9 75.6 -72.2 76.4 -72.8 74.35 Q-76.3 74.9 -76.25 77.15 -76.1 80.5 -76.9 81.35 -78.35 83.05 -79.75 82.65 -81.2 82.25 -81.35 79.85 -81.75 81.95 -83.15 82.6 -84.6 83.3 -85.65 81.5 L-88.35 81.75 -86.8 76.5 Q-88.1 76.25 -89.4 76.5 -88.9 80.1 -91.8 81.7 -92.85 82.3 -93.35 81.7 -93.9 81.15 -93.2 79.3 -94.45 81.4 -95.9 81.15 -97.45 80.8 -97.1 78.15 -99.65 77.55 -99.35 76.6 -99.2 75.95 -97.1 74.6 -91.8 71.2 -92.25 69.45 L-93.6 70.0 -94.75 70.45 Q-94.6 67.8 -94.0 65.45 -93.2 62.35 -91.85 60.9 -91.95 60.75 -92.3 60.65 L-92.75 60.3 Q-92.35 57.65 -88.4 57.3 L-82.25 56.75 Q-80.45 56.05 -77.55 53.65 -74.9 52.2 -72.3 55.0 L-72.7 53.4 -73.0 51.9 Q-71.0 51.5 -69.55 51.95 L-70.0 50.55 Q-70.3 49.4 -70.55 49.05 -69.2 48.2 -67.85 48.6 -66.6 48.95 -65.7 50.35 -65.8 49.25 -66.4 47.4 L-67.15 44.65 Q-64.65 45.2 -62.0 47.7 -62.5 44.95 -61.5 43.45 L-60.5 42.6 -60.6 42.45 Q-61.3 41.55 -61.0 38.75 -64.5 42.3 -65.85 38.35 -67.8 32.45 -69.05 31.85 -68.65 31.6 -67.4 29.75 -66.25 28.25 -65.15 27.7 -66.45 26.2 -67.85 25.75 L-71.45 25.6 Q-70.6 29.75 -73.05 30.8 -75.45 31.85 -76.65 27.35 -77.55 28.35 -78.6 28.7 -80.05 29.2 -80.4 29.4 -80.15 28.6 -80.1 26.25 -80.1 23.95 -79.8 23.1 -80.85 23.75 -82.65 24.0 L-85.35 24.55 -83.45 21.75 Q-82.3 19.9 -81.4 19.2 -83.9 18.15 -87.65 17.5 -87.5 18.15 -87.75 19.85 -88.05 21.5 -87.95 22.2 L-90.6 21.6 Q-92.05 21.35 -93.35 20.15 -93.25 21.0 -93.45 23.1 L-93.6 26.1 Q-93.9 25.45 -95.0 24.3 L-96.55 22.45 Q-96.7 24.05 -97.55 25.15 L-99.15 27.2 -100.2 25.15 Q-100.95 23.8 -100.9 22.35 -102.65 24.15 -103.2 25.25 -102.7 23.8 -102.65 21.75 L-102.5 18.25 -104.75 18.6 -107.05 19.15 Q-107.4 23.7 -110.5 24.8 -113.7 25.95 -114.5 20.95 -115.05 21.6 -116.45 22.45 L-118.4 23.8 -117.3 19.15 Q-116.9 16.4 -117.75 14.4 -118.15 15.35 -119.0 16.15 L-120.2 17.5 -121.85 15.65 Q-123.0 14.55 -123.35 13.6 L-125.45 15.55 -127.3 17.35 -126.2 13.85 -125.1 10.4 Q-126.6 11.95 -128.1 12.45 L-131.4 13.25 Q-129.9 10.9 -128.45 7.3 -126.9 4.75 -123.35 3.6 -121.6 3.1 -118.5 3.5 L-113.85 4.3 Q-112.05 0.35 -106.55 3.55 L-106.45 0.7 Q-106.45 1.05 -99.7 3.15 L-97.55 0.35 Q-96.2 -1.4 -95.7 -2.7 L-93.0 -0.45 Q-91.55 1.0 -90.95 2.45 L-91.45 0.35 -91.7 -1.95 Q-90.2 -1.45 -88.75 -0.45 L-88.45 -3.55 Q-87.05 -2.15 -85.55 -1.45 L-84.25 -3.45 Q-83.25 -4.8 -83.15 -5.2 -81.7 -1.65 -81.95 3.6 -79.3 3.05 -76.6 1.95 L-77.2 -1.65 Q-77.55 -4.05 -77.95 -5.15 L-75.8 -5.35 Q-76.5 -9.15 -74.55 -11.8 -72.45 -14.7 -69.35 -11.8 -66.6 -16.95 -62.05 -16.85 -57.4 -16.85 -58.5 -10.2 L-56.05 -6.3 Q-55.65 -7.3 -54.25 -8.75 -52.65 -10.35 -52.4 -10.85 L-51.35 -9.0 -50.5 -7.25 -51.0 -10.1 -51.25 -13.05 Q-50.15 -12.45 -48.05 -11.9 L-44.95 -11.05 Q-46.15 -12.3 -46.9 -14.5 L-48.0 -18.15 -45.8 -16.35 -43.45 -14.4 Q-42.75 -15.7 -41.35 -16.65 L-39.35 -18.1 -39.35 -17.1 Q-38.5 -19.25 -36.25 -20.9 -34.5 -22.1 -33.1 -21.75 -31.55 -21.3 -31.15 -18.9 -31.15 -22.4 -29.4 -23.5 L-26.15 -23.4 Q-24.5 -22.3 -24.5 -20.3 -24.4 -18.6 -25.8 -17.1 L-25.45 -17.3 -23.95 -18.1 -24.0 -15.25 Q-23.95 -13.5 -24.35 -12.45 -21.15 -16.5 -18.1 -18.15 -17.9 -17.45 -17.0 -16.3 L-15.9 -14.4 Q-15.8 -16.15 -14.9 -17.15 L-13.25 -19.15 -11.5 -16.15 Q-10.6 -14.4 -10.75 -12.55 -10.25 -13.25 -8.8 -13.95 L-6.95 -14.85 -6.25 -11.75 Q-5.75 -9.8 -5.85 -8.5 -1.9 -13.25 0.85 -14.0 4.2 -14.95 5.15 -9.85 L5.35 -8.7 5.15 -9.85 M-27.05 -16.0 L-25.8 -17.1 -27.05 -16.0 M71.9 46.5 L70.15 46.4 Q64.1 43.65 61.25 44.0 61.05 43.7 61.15 43.1 61.2 42.45 60.95 42.15 60.45 43.5 59.2 44.6 L57.3 46.45 56.7 44.55 Q56.25 43.3 56.15 42.6 53.95 43.65 53.2 44.15 52.0 37.1 47.85 39.4 43.0 43.7 41.0 45.05 L35.65 47.3 Q32.15 48.6 31.25 50.5 28.45 50.0 27.1 48.1 25.7 46.25 26.2 43.45 L23.55 45.2 Q21.4 46.6 20.7 47.45 L18.35 45.55 Q18.4 41.75 19.2 40.2 20.3 37.95 23.15 39.8 22.75 35.25 25.6 34.65 L28.4 34.45 Q30.15 34.25 31.2 33.6 33.15 32.5 34.7 29.6 36.3 27.95 40.15 31.1 40.25 30.35 41.2 28.5 41.9 26.95 41.85 25.6 L46.65 25.85 Q48.9 26.85 49.1 29.5 49.35 29.25 50.75 28.35 51.85 27.7 52.4 26.4 L53.95 27.65 55.5 28.9 55.55 28.85 Q58.1 25.9 58.15 22.65 59.55 23.05 61.95 21.9 L66.0 19.65 Q70.6 17.4 70.9 23.25 L74.1 21.95 Q75.9 17.5 77.55 14.25 L79.75 20.0 Q81.6 16.95 84.45 16.85 L89.7 17.9 93.35 18.2 Q95.35 17.85 96.75 15.95 97.15 15.75 97.55 16.35 L98.4 16.95 Q101.25 12.2 104.65 16.8 107.7 21.15 107.2 24.45 107.85 21.25 110.2 20.3 112.65 19.3 114.75 21.95 115.5 21.35 117.55 20.85 L120.1 19.95 119.85 23.75 Q119.75 26.65 120.15 27.15 121.05 28.2 123.4 28.55 125.95 28.9 126.75 29.7 132.3 35.25 130.35 42.9 L127.85 38.6 Q126.35 36.3 124.5 35.35 L123.9 37.1 Q123.35 38.35 123.3 39.15 L119.55 38.7 Q118.1 38.1 117.2 36.15 117.2 36.95 116.6 38.75 116.05 40.5 116.05 41.55 L113.4 41.9 110.65 41.55 110.55 40.25 110.4 41.55 107.2 40.85 Q105.85 40.4 104.55 38.5 L100.9 44.7 Q103.05 46.05 104.0 47.75 105.0 49.6 104.15 51.3 L106.75 51.5 109.0 53.85 Q107.85 56.2 105.5 57.4 102.95 58.65 100.1 57.8 100.2 56.15 99.75 53.85 L99.05 50.0 Q95.8 52.55 93.6 50.55 91.75 48.85 91.15 44.95 L89.5 46.15 87.9 47.55 86.9 45.35 Q86.15 43.85 86.15 42.55 83.1 44.5 79.3 45.2 L72.35 46.4 71.9 46.5 73.4 43.35 74.9 40.35 Q74.85 45.6 72.35 46.4 74.85 45.6 74.9 40.35 L73.4 43.35 71.9 46.5 M110.55 40.25 L110.55 37.45 Q110.35 38.25 110.45 39.5 L110.55 40.25 110.45 39.5 Q110.35 38.25 110.55 37.45 L110.55 40.25 M-62.5 -105.0 L-62.5 -104.9 -62.25 -104.7 -62.4 -104.95 -62.5 -105.0 -62.4 -104.95 -62.25 -104.7 -62.5 -104.9 -62.5 -105.0 M-57.7 43.25 Q-58.25 42.55 -59.15 42.4 L-60.5 42.6 -59.15 42.4 Q-58.25 42.55 -57.7 43.25 -57.35 43.65 -57.15 44.25 -56.6 46.1 -57.7 48.8 -57.1 47.75 -56.15 47.15 L-54.5 46.3 -53.45 48.4 -51.6 42.5 -50.8 43.0 -50.45 41.3 Q-49.1 35.6 -49.25 33.6 -49.4 29.95 -52.9 30.45 -52.4 31.7 -52.45 33.95 L-52.3 37.55 -54.85 36.95 Q-56.6 36.65 -57.5 35.95 -57.05 37.3 -57.1 39.5 L-57.15 43.2 -57.7 43.25 M-12.0 29.35 L-11.8 29.4 -11.75 27.65 -12.0 29.35 -11.75 27.65 -11.8 29.4 -12.0 29.35 M-39.35 -17.1 Q-40.1 -15.2 -39.85 -12.8 -39.35 -13.95 -39.3 -15.35 L-39.35 -17.1 -39.3 -15.35 Q-39.35 -13.95 -39.85 -12.8 -40.1 -15.2 -39.35 -17.1" fill="#ffffff" fill-opacity="0.0" fill-rule="evenodd" stroke="none"/>
    <path d="M33.8 -123.9 L33.65 -124.8 Q32.25 -130.2 32.15 -132.2 L37.45 -131.15 Q40.2 -130.9 41.55 -133.65 42.45 -130.15 45.95 -128.45 49.2 -126.9 52.55 -127.65 56.2 -128.4 57.45 -131.25 58.95 -134.6 56.55 -139.45 L60.2 -137.85 Q62.8 -136.4 63.55 -136.45 64.4 -136.5 66.85 -137.8 L70.0 -139.4 79.6 -139.1 Q85.5 -139.15 85.25 -144.35 83.55 -143.05 81.35 -143.65 L77.45 -145.3 Q72.25 -147.55 68.45 -142.7 64.1 -146.55 61.15 -147.8 59.9 -146.75 58.05 -146.2 L54.8 -145.35 Q54.95 -146.4 54.4 -148.15 53.7 -150.2 53.7 -150.8 50.05 -150.95 47.25 -149.9 L43.8 -148.2 Q41.05 -147.05 36.05 -153.25 L34.45 -152.0 Q33.25 -151.15 32.8 -150.4 27.75 -157.5 25.3 -155.6 L22.7 -153.1 Q20.75 -151.4 18.35 -151.05 L18.25 -154.95 Q18.0 -157.6 18.15 -158.9 16.8 -158.9 13.6 -160.35 L8.25 -162.75 Q1.95 -165.0 2.7 -158.35 -0.45 -157.55 -2.95 -160.65 -5.65 -164.0 -7.6 -163.9 -9.9 -163.8 -10.4 -162.25 -10.6 -161.55 -10.4 -159.05 -10.05 -154.45 -15.1 -154.3 L-13.7 -152.45 Q-12.65 -151.15 -12.65 -150.7 L-12.65 -144.6 -17.65 -144.05 Q-20.05 -143.25 -20.9 -140.8 -27.05 -147.3 -36.7 -148.35 -36.6 -147.65 -36.8 -146.05 -37.05 -144.45 -36.9 -143.75 -38.0 -144.05 -44.25 -147.1 -49.05 -149.35 -52.05 -149.2 -51.85 -148.25 -52.2 -146.05 -52.55 -143.9 -52.3 -142.95 L-62.55 -144.8 -73.1 -145.15 Q-72.45 -143.65 -69.0 -142.6 -66.1 -141.7 -66.05 -138.9 -67.8 -138.25 -70.8 -137.85 L-75.55 -137.2 Q-74.9 -134.3 -72.1 -134.05 -69.75 -133.9 -66.9 -135.45 -65.8 -132.45 -64.0 -131.9 -62.2 -131.45 -60.45 -133.85 -61.25 -129.8 -59.75 -129.25 -58.55 -128.8 -55.55 -130.5 L-49.95 -133.8 Q-46.6 -135.6 -45.0 -135.4 L-44.8 -125.9 Q-44.25 -126.35 -42.5 -127.0 -40.7 -127.75 -40.2 -128.2 -39.75 -124.85 -37.5 -123.35 -36.7 -122.8 -35.75 -122.55 L-32.05 -122.75 -31.8 -124.1 Q-29.3 -123.2 -25.95 -124.05 -23.45 -124.65 -21.4 -122.65 -20.85 -122.05 -18.9 -116.25 L-16.4 -108.9 -14.2 -109.85 Q-12.5 -110.45 -11.85 -111.2 -10.95 -105.25 -5.1 -109.1 L-0.15 -112.5 Q2.65 -114.1 4.35 -113.6 3.55 -109.5 6.45 -108.25 8.2 -107.55 12.55 -106.45 15.4 -109.3 16.05 -114.6 16.55 -119.05 15.35 -123.45 L17.55 -123.9 19.7 -124.15 Q19.7 -123.35 20.3 -121.8 20.85 -120.35 20.8 -119.5 23.05 -119.95 26.7 -117.25 29.55 -115.2 32.2 -117.75 34.25 -119.65 33.8 -123.9 L37.55 -124.1 Q35.65 -120.2 38.4 -117.65 41.15 -115.15 44.15 -119.0 46.65 -112.05 49.8 -116.05 51.5 -118.25 54.6 -123.5 L56.05 -121.8 Q56.95 -120.75 57.25 -119.5 L62.6 -119.05 67.65 -118.6 Q68.95 -118.0 72.45 -114.3 75.1 -111.55 76.55 -112.65 74.2 -107.75 66.9 -108.15 66.0 -111.4 61.9 -113.4 60.9 -110.7 57.45 -107.7 54.15 -104.65 50.5 -103.2 46.55 -101.6 44.4 -102.85 41.85 -104.35 42.4 -109.55 38.45 -109.55 36.1 -105.45 L33.7 -107.0 Q33.55 -103.95 32.85 -102.25 31.85 -99.95 29.55 -98.95 27.3 -97.95 25.0 -99.75 22.8 -101.55 20.65 -100.55 18.95 -99.75 18.55 -96.75 18.15 -94.1 15.0 -93.45 12.7 -92.9 10.2 -94.45 7.75 -95.9 6.85 -98.05 7.5 -92.7 6.05 -89.15 4.3 -84.85 -0.35 -83.75 -5.4 -82.6 -6.9 -87.25 -7.65 -89.65 -8.35 -90.35 -9.65 -91.6 -12.4 -90.95 -12.2 -90.1 -12.5 -88.2 L-12.65 -85.5 -14.55 -85.7 -16.35 -86.1 Q-18.95 -82.75 -22.15 -84.2 -25.75 -86.6 -27.75 -87.1 -27.7 -90.7 -27.8 -92.45 -28.0 -95.5 -29.3 -97.25 -29.85 -94.05 -31.65 -92.65 -33.75 -91.05 -36.2 -93.35 L-37.95 -92.85 -39.9 -92.75 -40.1 -96.3 Q-40.35 -98.7 -40.2 -99.85 L-46.55 -96.25 Q-50.3 -94.55 -52.9 -96.85 -52.5 -98.6 -50.9 -99.85 -49.45 -101.2 -47.35 -101.75 -49.3 -103.9 -52.2 -106.1 -53.7 -104.85 -54.4 -104.55 L-57.7 -103.85 -57.85 -101.5 -58.0 -99.25 -59.85 -99.85 Q-61.5 -100.35 -61.95 -100.7 -62.15 -100.05 -63.1 -98.7 L-64.3 -96.75 Q-68.2 -98.15 -70.0 -99.05 -73.25 -100.55 -73.9 -103.0 L-70.8 -103.15 -67.65 -103.3 -67.45 -106.3 -65.0 -105.9 Q-63.6 -105.75 -62.5 -105.0 -62.65 -108.05 -65.9 -109.85 -69.9 -111.6 -71.45 -112.75 -71.85 -109.95 -74.75 -108.95 L-80.35 -108.75 -81.45 -104.9 -84.5 -104.95 Q-82.85 -107.9 -84.85 -109.8 -86.6 -111.4 -90.1 -111.4 -91.0 -116.35 -86.75 -116.85 -83.6 -117.25 -79.0 -115.4 -78.35 -118.95 -74.75 -119.05 -72.85 -119.15 -67.25 -117.6 -62.05 -116.2 -59.85 -116.6 -56.45 -117.2 -56.05 -121.65 L-49.8 -120.05 Q-46.7 -120.05 -45.0 -123.75 -41.65 -120.1 -35.75 -122.55 M-12.0 29.35 Q-12.15 31.45 -11.25 32.65 -10.05 34.15 -8.0 33.5 -5.85 32.85 -4.6 30.55 -3.1 27.85 -3.65 24.15 L-1.3 25.4 Q-1.2 23.35 -2.1 21.25 -2.75 19.8 -4.35 17.55 -1.55 16.7 0.9 18.35 3.0 19.65 4.3 22.25 6.05 19.25 8.25 19.45 10.35 19.55 11.75 22.35 13.95 20.6 15.1 17.75 16.15 15.0 15.95 12.0 19.05 12.95 19.55 15.4 19.95 17.65 18.3 20.6 L20.35 20.3 22.15 19.95 22.15 21.5 Q22.15 22.45 22.4 22.95 L26.15 22.6 Q28.05 22.1 29.45 21.15 L29.3 17.7 Q29.15 15.75 28.25 14.3 L29.15 14.15 30.25 14.05 Q30.25 12.55 30.8 11.4 L31.8 9.55 Q31.15 11.25 33.85 12.2 35.95 12.9 37.75 12.85 38.4 12.85 39.65 11.65 L42.05 9.35 44.1 7.55 Q40.95 3.8 37.9 2.8 L39.95 2.75 Q40.15 0.35 39.95 0.55 L31.45 1.1 Q38.6 -4.9 33.9 -6.55 29.85 -7.9 23.45 -5.8 L23.1 -7.35 22.75 -8.95 Q20.8 -8.45 18.4 -7.45 L14.3 -5.55 14.7 -7.8 14.85 -10.0 13.05 -9.7 11.05 -9.4 Q10.95 -11.85 9.6 -13.6 8.25 -15.35 6.05 -15.7 L5.35 -12.3 Q5.1 -10.95 5.15 -9.85 4.2 -14.95 0.85 -14.0 -1.9 -13.25 -5.85 -8.5 -5.75 -9.8 -6.25 -11.75 L-6.95 -14.85 -8.8 -13.95 Q-10.25 -13.25 -10.75 -12.55 -10.6 -14.4 -11.5 -16.15 L-13.25 -19.15 -14.9 -17.15 Q-15.8 -16.15 -15.9 -14.4 L-17.0 -16.3 Q-17.9 -17.45 -18.1 -18.15 -21.15 -16.5 -24.35 -12.45 -23.95 -13.5 -24.0 -15.25 L-23.95 -18.1 -25.45 -17.3 -25.8 -17.1 Q-24.4 -18.6 -24.5 -20.3 -24.5 -22.3 -26.15 -23.4 L-29.4 -23.5 Q-31.15 -22.4 -31.15 -18.9 -31.55 -21.3 -33.1 -21.75 -34.5 -22.1 -36.25 -20.9 -38.5 -19.25 -39.35 -17.1 L-39.3 -15.35 Q-39.35 -13.95 -39.85 -12.8 -40.1 -15.2 -39.35 -17.1 L-39.35 -18.1 -41.35 -16.65 Q-42.75 -15.7 -43.45 -14.4 L-45.8 -16.35 -48.0 -18.15 -46.9 -14.5 Q-46.15 -12.3 -44.95 -11.05 L-48.05 -11.9 Q-50.15 -12.45 -51.25 -13.05 L-51.0 -10.1 -50.5 -7.25 -51.35 -9.0 -52.4 -10.85 Q-52.65 -10.35 -54.25 -8.75 -55.65 -7.3 -56.05 -6.3 L-58.5 -10.2 Q-57.4 -16.85 -62.05 -16.85 -66.6 -16.95 -69.35 -11.8 -72.45 -14.7 -74.55 -11.8 -76.5 -9.15 -75.8 -5.35 L-77.95 -5.15 Q-77.55 -4.05 -77.2 -1.65 L-76.6 1.95 Q-79.3 3.05 -81.95 3.6 -81.7 -1.65 -83.15 -5.2 -83.25 -4.8 -84.25 -3.45 L-85.55 -1.45 Q-87.05 -2.15 -88.45 -3.55 L-88.75 -0.45 Q-90.2 -1.45 -91.7 -1.95 L-91.45 0.35 -90.95 2.45 Q-91.55 1.0 -93.0 -0.45 L-95.7 -2.7 Q-96.2 -1.4 -97.55 0.35 L-99.7 3.15 Q-106.45 1.05 -106.45 0.7 L-106.55 3.55 Q-112.05 0.35 -113.85 4.3 L-118.5 3.5 Q-121.6 3.1 -123.35 3.6 -126.9 4.75 -128.45 7.3 -129.9 10.9 -131.4 13.25 L-128.1 12.45 Q-126.6 11.95 -125.1 10.4 L-126.2 13.85 -127.3 17.35 -125.45 15.55 -123.35 13.6 Q-123.0 14.55 -121.85 15.65 L-120.2 17.5 -119.0 16.15 Q-118.15 15.35 -117.75 14.4 -116.9 16.4 -117.3 19.15 L-118.4 23.8 -116.45 22.45 Q-115.05 21.6 -114.5 20.95 -113.7 25.95 -110.5 24.8 -107.4 23.7 -107.05 19.15 L-104.75 18.6 -102.5 18.25 -102.65 21.75 Q-102.7 23.8 -103.2 25.25 -102.65 24.15 -100.9 22.35 -100.95 23.8 -100.2 25.15 L-99.15 27.2 -97.55 25.15 Q-96.7 24.05 -96.55 22.45 L-95.0 24.3 Q-93.9 25.45 -93.6 26.1 L-93.45 23.1 Q-93.25 21.0 -93.35 20.15 -92.05 21.35 -90.6 21.6 L-87.95 22.2 Q-88.05 21.5 -87.75 19.85 -87.5 18.15 -87.65 17.5 -83.9 18.15 -81.4 19.2 -82.3 19.9 -83.45 21.75 L-85.35 24.55 -82.65 24.0 Q-80.85 23.75 -79.8 23.1 -80.1 23.95 -80.1 26.25 -80.15 28.6 -80.4 29.4 -80.05 29.2 -78.6 28.7 -77.55 28.35 -76.65 27.35 -75.45 31.85 -73.05 30.8 -70.6 29.75 -71.45 25.6 L-67.85 25.75 Q-66.45 26.2 -65.15 27.7 -66.25 28.25 -67.4 29.75 -68.65 31.6 -69.05 31.85 -67.8 32.45 -65.85 38.35 -64.5 42.3 -61.0 38.75 -61.3 41.55 -60.6 42.45 L-60.5 42.6 -59.15 42.4 Q-58.25 42.55 -57.7 43.25 L-57.15 43.2 -57.1 39.5 Q-57.05 37.3 -57.5 35.95 -56.6 36.65 -54.85 36.95 L-52.3 37.55 -52.45 33.95 Q-52.4 31.7 -52.9 30.45 -49.4 29.95 -49.25 33.6 -49.1 35.6 -50.45 41.3 L-50.8 43.0 -49.75 43.35 -48.0 44.0 Q-46.8 41.05 -45.0 42.3 -43.25 43.65 -44.6 46.15 L-42.8 45.7 -40.9 45.25 -40.1 46.35 -39.4 47.3 Q-37.6 44.2 -36.0 45.45 -35.95 42.6 -37.75 39.55 L-36.1 39.8 -34.5 40.0 -34.7 37.7 Q-34.75 36.2 -35.1 35.35 L-31.85 34.9 -28.6 34.9 -28.85 38.3 Q-28.85 40.35 -29.45 41.6 L-27.55 40.6 Q-26.1 40.0 -25.6 39.55 -25.35 43.35 -23.7 45.25 -22.3 46.95 -20.4 46.5 -18.45 46.1 -17.3 44.05 -16.05 41.75 -16.4 38.5 L-14.25 39.15 Q-13.85 36.75 -14.8 33.55 L-16.4 28.25 -12.0 29.35 -11.75 27.65 -11.8 29.4 -12.0 29.35 M71.9 46.5 L70.15 46.4 Q64.1 43.65 61.25 44.0 61.05 43.7 61.15 43.1 61.2 42.45 60.95 42.15 60.45 43.5 59.2 44.6 L57.3 46.45 56.7 44.55 Q56.25 43.3 56.15 42.6 53.95 43.65 53.2 44.15 52.0 37.1 47.85 39.4 43.0 43.7 41.0 45.05 L35.65 47.3 Q32.15 48.6 31.25 50.5 28.45 50.0 27.1 48.1 25.7 46.25 26.2 43.45 L23.55 45.2 Q21.4 46.6 20.7 47.45 L18.35 45.55 Q18.4 41.75 19.2 40.2 20.3 37.95 23.15 39.8 22.75 35.25 25.6 34.65 L28.4 34.45 Q30.15 34.25 31.2 33.6 33.15 32.5 34.7 29.6 36.3 27.95 40.15 31.1 40.25 30.35 41.2 28.5 41.9 26.95 41.85 25.6 L46.65 25.85 Q48.9 26.85 49.1 29.5 49.35 29.25 50.75 28.35 51.85 27.7 52.4 26.4 L53.95 27.65 55.5 28.9 55.55 28.85 Q58.1 25.9 58.15 22.65 59.55 23.05 61.95 21.9 L66.0 19.65 Q70.6 17.4 70.9 23.25 L74.1 21.95 Q75.9 17.5 77.55 14.25 L79.75 20.0 Q81.6 16.95 84.45 16.85 L89.7 17.9 93.35 18.2 Q95.35 17.85 96.75 15.95 97.15 15.75 97.55 16.35 L98.4 16.95 Q101.25 12.2 104.65 16.8 107.7 21.15 107.2 24.45 107.85 21.25 110.2 20.3 112.65 19.3 114.75 21.95 115.5 21.35 117.55 20.85 L120.1 19.95 119.85 23.75 Q119.75 26.65 120.15 27.15 121.05 28.2 123.4 28.55 125.95 28.9 126.75 29.7 132.3 35.25 130.35 42.9 L127.85 38.6 Q126.35 36.3 124.5 35.35 L123.9 37.1 Q123.35 38.35 123.3 39.15 L119.55 38.7 Q118.1 38.1 117.2 36.15 117.2 36.95 116.6 38.75 116.05 40.5 116.05 41.55 L113.4 41.9 110.65 41.55 110.55 40.25 110.4 41.55 107.2 40.85 Q105.85 40.4 104.55 38.5 L100.9 44.7 Q103.05 46.05 104.0 47.75 105.0 49.6 104.15 51.3 L106.75 51.5 109.0 53.85 Q107.85 56.2 105.5 57.4 102.95 58.65 100.1 57.8 100.2 56.15 99.75 53.85 L99.05 50.0 Q95.8 52.55 93.6 50.55 91.75 48.85 91.15 44.95 L89.5 46.15 87.9 47.55 86.9 45.35 Q86.15 43.85 86.15 42.55 83.1 44.5 79.3 45.2 L72.35 46.4 71.9 46.5 73.4 43.35 74.9 40.35 Q74.85 45.6 72.35 46.4 M110.55 40.25 L110.45 39.5 Q110.35 38.25 110.55 37.45 L110.55 40.25 M-62.5 -105.0 L-62.4 -104.95 -62.25 -104.7 -62.5 -104.9 -62.5 -105.0 M-60.5 42.6 L-61.5 43.45 Q-62.5 44.95 -62.0 47.7 -64.65 45.2 -67.15 44.65 L-66.4 47.4 Q-65.8 49.25 -65.7 50.35 -66.6 48.95 -67.85 48.6 -69.2 48.2 -70.55 49.05 -70.3 49.4 -70.0 50.55 L-69.55 51.95 Q-71.0 51.5 -73.0 51.9 L-72.7 53.4 -72.3 55.0 Q-74.9 52.2 -77.55 53.65 -80.45 56.05 -82.25 56.75 L-88.4 57.3 Q-92.35 57.65 -92.75 60.3 L-92.3 60.65 Q-91.95 60.75 -91.85 60.9 -93.2 62.35 -94.0 65.45 -94.6 67.8 -94.75 70.45 L-93.6 70.0 -92.25 69.45 Q-91.8 71.2 -97.1 74.6 -99.2 75.95 -99.35 76.6 -99.65 77.55 -97.1 78.15 -97.45 80.8 -95.9 81.15 -94.45 81.4 -93.2 79.3 -93.9 81.15 -93.35 81.7 -92.85 82.3 -91.8 81.7 -88.9 80.1 -89.4 76.5 -88.1 76.25 -86.8 76.5 L-88.35 81.75 -85.65 81.5 Q-84.6 83.3 -83.15 82.6 -81.75 81.95 -81.35 79.85 -81.2 82.25 -79.75 82.65 -78.35 83.05 -76.9 81.35 -76.1 80.5 -76.25 77.15 -76.3 74.9 -72.8 74.35 L-72.2 76.4 -70.9 75.6 -69.5 74.5 Q-68.7 79.2 -66.7 76.65 -65.85 75.55 -64.1 71.6 L-64.0 69.0 Q-64.0 67.65 -62.5 67.25 -61.35 66.95 -60.65 68.5 -60.15 69.8 -60.2 71.0 L-58.85 70.05 Q-57.75 72.65 -55.75 71.9 -53.85 71.2 -53.5 68.6 -51.85 69.75 -46.8 66.75 -41.75 63.8 -41.3 64.15 -38.7 66.2 -36.7 64.4 -35.0 62.9 -34.3 59.75 -31.0 61.05 -27.85 59.85 -24.4 58.5 -24.65 54.9 -23.1 54.8 -21.85 54.0 -20.4 53.05 -20.4 51.65 -20.35 49.45 -21.75 49.55 L-24.7 50.0 -27.2 49.75 -29.55 49.9 Q-30.35 50.0 -32.4 50.9 -34.15 51.65 -35.45 51.55 -33.35 48.75 -35.35 46.1 L-36.0 45.45 M-50.8 43.0 L-51.6 42.5 -53.45 48.4 -54.5 46.3 -56.15 47.15 Q-57.1 47.75 -57.7 48.8 -56.6 46.1 -57.15 44.25 -57.35 43.65 -57.7 43.25" fill="none" stroke="#000000" stroke-linecap="round" stroke-linejoin="miter-clip" stroke-miterlimit="4.0" stroke-opacity="0.6" stroke-width="1.0"/>
    <path d="M5.15 -9.85 L5.35 -8.7 M-25.8 -17.1 L-27.05 -16.0" fill="none" stroke="#000000" stroke-linecap="round" stroke-linejoin="miter-clip" stroke-miterlimit="4.0" stroke-opacity="0.6" stroke-width="1.0"/>
  </g>
</svg>
