<?xml version="1.0" encoding="UTF-8" standalone="no"?>
<svg xmlns:xlink="http://www.w3.org/1999/xlink" height="347.85px" width="266.0px" xmlns="http://www.w3.org/2000/svg">
  <g transform="matrix(1.0, 0.0, 0.0, 1.0, 130.15, 173.9)">
    <path d="M-86.7 -76.0 L-86.7 -14.4 -87.45 -13.05 Q-87.85 -11.4 -86.25 -10.0 -81.05 -5.55 -57.3 -5.1 L-13.6 -5.1 -11.75 -5.3 Q-9.55 -5.65 -7.6 -6.6 -1.5 -9.65 -0.75 -17.2 L-0.65 -53.55 -0.7 -88.9 Q-0.5 -91.75 0.9 -95.7 3.75 -103.55 10.0 -108.95 10.9 -113.6 11.8 -121.05 13.6 -135.9 13.6 -149.8 L13.6 -173.4 27.95 -173.4 27.95 -112.55 27.3 -108.4 Q25.7 -103.05 20.75 -96.75 L18.25 -92.45 Q15.75 -87.1 15.75 -81.75 L15.75 -20.85 15.95 -18.35 Q16.4 -15.35 17.55 -12.8 21.15 -4.55 30.1 -3.65 L96.55 -3.7 Q100.7 -3.95 104.1 -5.05 115.05 -8.65 114.6 -19.4 115.3 -22.25 113.9 -25.4 111.0 -31.65 100.25 -33.0 L100.25 -55.25 135.35 -55.25 135.35 1.35 116.05 30.0 116.05 109.5 115.65 112.7 Q115.4 116.75 116.15 120.7 118.45 133.45 129.65 141.05 L133.2 172.55 98.15 172.55 98.15 158.25 -85.95 158.25 -85.95 172.55 -115.35 173.1 -115.35 136.9 -113.1 135.45 Q-110.4 133.35 -107.95 130.1 -100.15 119.8 -98.15 102.0 -100.15 119.8 -107.95 130.1 -110.4 133.35 -113.1 135.45 L-115.35 136.9 -115.35 173.1 -125.35 173.25 -121.8 135.3 -119.0 132.5 Q-115.65 128.9 -112.9 124.75 -104.15 111.5 -104.6 98.05 L-106.0 -50.95 -121.8 -50.95 -121.8 -76.0 -86.7 -76.0 M42.25 -76.0 Q45.4 -62.1 58.1 -55.15 64.45 -51.65 70.2 -50.95 L70.2 -20.85 24.35 -20.85 25.05 -76.0 42.25 -76.0 M-98.15 -51.65 L-106.0 -50.95 -98.15 -51.65 -98.15 102.0 -98.15 -51.65 M-86.55 7.1 L98.85 7.1 98.85 2.8 -86.55 2.8 -86.55 7.1 M-53.1 100.95 L-84.95 100.95 -84.55 138.15 93.0 138.35 Q96.75 138.0 98.1 135.3 L98.1 125.4 -84.15 125.35 -84.15 121.8 -0.8 118.85 Q5.0 118.1 11.7 115.25 L98.1 115.25 98.1 100.95 -41.55 100.95 Q-28.4 96.95 -16.0 90.25 -2.85 83.2 4.3 76.55 L91.85 76.55 91.85 14.2 Q66.5 17.3 43.45 30.4 21.1 43.1 -5.0 68.7 -26.5 89.75 -51.55 100.3 L-53.1 100.95" fill="#ffffff" fill-opacity="0.0" fill-rule="evenodd" stroke="none"/>
    <path d="M-41.55 100.95 L98.1 100.95 98.1 115.25 11.7 115.25 Q5.0 118.1 -0.8 118.85 L-84.15 121.8 -84.15 125.35 98.1 125.4 98.1 135.3 Q96.75 138.0 93.0 138.35 L-84.55 138.15 -84.95 100.95 -53.1 100.95 -41.55 100.95 -53.1 100.95 -51.55 100.3 Q-26.5 89.75 -5.0 68.7 21.1 43.1 43.45 30.4 66.5 17.3 91.85 14.2 L91.85 76.55 4.3 76.55 Q-2.85 83.2 -16.0 90.25 -28.4 96.95 -41.55 100.95 M-86.55 7.1 L-86.55 2.8 98.85 2.8 98.85 7.1 -86.55 7.1" fill="#000000" fill-opacity="0.4" fill-rule="evenodd" stroke="none"/>
    <path d="M-86.7 -76.0 L-86.7 -14.4 -87.45 -13.05 Q-87.85 -11.4 -86.25 -10.0 -81.05 -5.55 -57.3 -5.1 L-13.6 -5.1 -11.75 -5.3 Q-9.55 -5.65 -7.6 -6.6 -1.5 -9.65 -0.75 -17.2 L-0.65 -53.55 -0.7 -88.9 Q-0.5 -91.75 0.9 -95.7 3.75 -103.55 10.0 -108.95 10.9 -113.6 11.8 -121.05 13.6 -135.9 13.6 -149.8 L13.6 -173.4 27.95 -173.4 27.95 -112.55 27.3 -108.4 Q25.7 -103.05 20.75 -96.75 L18.25 -92.45 Q15.75 -87.1 15.75 -81.75 L15.75 -20.85 15.95 -18.35 Q16.4 -15.35 17.55 -12.8 21.15 -4.55 30.1 -3.65 L96.55 -3.7 Q100.7 -3.95 104.1 -5.05 115.05 -8.65 114.6 -19.4 115.3 -22.25 113.9 -25.4 111.0 -31.65 100.25 -33.0 L100.25 -55.25 135.35 -55.25 135.35 1.35 116.05 30.0 116.05 109.5 115.65 112.7 Q115.4 116.75 116.15 120.7 118.45 133.45 129.65 141.05 L133.2 172.55 98.15 172.55 98.15 158.25 -85.95 158.25 -85.95 172.55 -115.35 173.1 M42.25 -76.0 L25.05 -76.0 24.35 -20.85 70.2 -20.85 70.2 -50.95 Q64.45 -51.65 58.1 -55.15 45.4 -62.1 42.25 -76.0 M-121.8 135.3 L-119.0 132.5 Q-115.65 128.9 -112.9 124.75 -104.15 111.5 -104.6 98.05 L-106.0 -50.95 -121.8 -50.95" fill="none" stroke="#000000" stroke-linecap="butt" stroke-linejoin="miter-clip" stroke-miterlimit="4.0" stroke-width="1.0"/>
    <path d="M-106.0 -50.95 L-98.15 -51.65 M-98.15 102.0 Q-100.15 119.8 -107.95 130.1 -110.4 133.35 -113.1 135.45 L-115.35 136.9 -115.35 173.1 M-86.55 7.1 L98.85 7.1 98.85 2.8 -86.55 2.8 -86.55 7.1 M-53.1 100.95 L-84.95 100.95 -84.55 138.15 93.0 138.35 Q96.75 138.0 98.1 135.3 L98.1 125.4 -84.15 125.35 -84.15 121.8 -0.8 118.85 Q5.0 118.1 11.7 115.25 L98.1 115.25 98.1 100.95 -41.55 100.95 -53.1 100.95" fill="none" stroke="#000000" stroke-linecap="butt" stroke-linejoin="miter-clip" stroke-miterlimit="4.0" stroke-opacity="0.6" stroke-width="1.0"/>
    <path d="M-115.35 173.1 L-115.35 173.45 M-121.8 -50.95 L-129.65 -47.0" fill="none" stroke="#000000" stroke-linecap="round" stroke-linejoin="miter-clip" stroke-miterlimit="4.0" stroke-opacity="0.6" stroke-width="1.0"/>
    <path d="M-98.15 -51.65 L-98.15 102.0" fill="none" stroke="#000000" stroke-linecap="butt" stroke-linejoin="miter-clip" stroke-miterlimit="4.0" stroke-opacity="0.6" stroke-width="1.0"/>
    <path d="M-125.35 173.25 L-121.8 135.3 M-121.8 -76.0 L-86.7 -76.0" fill="none" stroke="#000000" stroke-linecap="butt" stroke-linejoin="miter-clip" stroke-miterlimit="4.0" stroke-width="1.0"/>
    <path d="M-115.35 173.1 L-125.35 173.25 M-121.8 -50.95 L-121.8 -76.0" fill="none" stroke="#000000" stroke-linecap="round" stroke-linejoin="miter-clip" stroke-miterlimit="4.0" stroke-width="1.0"/>
  </g>
</svg>
