<?xml version="1.0" encoding="UTF-8" standalone="no"?>
<svg xmlns:xlink="http://www.w3.org/1999/xlink" height="5.45px" width="5.4px" xmlns="http://www.w3.org/2000/svg">
  <g transform="matrix(1.0, 0.0, 0.0, 1.0, 2.7, 2.7)">
    <path d="M1.55 -1.55 Q2.2 -0.9 2.2 0.05 2.2 0.95 1.55 1.6 0.9 2.25 0.0 2.25 -0.9 2.25 -1.55 1.6 -2.2 0.95 -2.2 0.05 -2.2 -0.9 -1.55 -1.55 -0.9 -2.2 0.0 -2.2 0.9 -2.2 1.55 -1.55" fill="#000000" fill-opacity="0.4" fill-rule="evenodd" stroke="none"/>
    <path d="M1.55 -1.55 Q2.2 -0.9 2.2 0.05 2.2 0.95 1.55 1.6 0.9 2.25 0.0 2.25 -0.9 2.25 -1.55 1.6 -2.2 0.95 -2.2 0.05 -2.2 -0.9 -1.55 -1.55 -0.9 -2.2 0.0 -2.2 0.9 -2.2 1.55 -1.55 Z" fill="none" stroke="#000000" stroke-linecap="butt" stroke-linejoin="miter-clip" stroke-miterlimit="4.0" stroke-opacity="0.6" stroke-width="1.0"/>
  </g>
</svg>
