<?xml version="1.0" encoding="UTF-8" standalone="no"?>
<svg xmlns:xlink="http://www.w3.org/1999/xlink" height="238.6px" width="275.0px" xmlns="http://www.w3.org/2000/svg">
  <g transform="matrix(1.0, 0.0, 0.0, 1.0, 137.6, 124.6)">
    <path d="M0.4 -120.35 Q1.8 -123.05 3.75 -123.2 L5.75 -122.95 7.55 -122.45 Q11.95 -120.2 14.95 -105.05 L15.55 -101.65 Q17.3 -91.25 18.9 -72.5 19.8 -61.4 12.7 -46.3 11.7 -51.35 9.9 -56.75 11.7 -51.35 12.7 -46.3 13.75 -40.5 13.7 -35.1 13.65 -28.25 12.1 -24.5 L11.95 -24.25 12.05 -24.6 11.95 -24.25 12.1 -24.5 Q15.55 -16.0 21.3 -9.0 31.9 3.8 35.05 11.85 37.6 18.35 36.65 26.65 33.6 28.8 30.55 29.45 24.45 30.75 24.45 23.35 26.25 21.0 26.5 16.65 27.1 8.0 19.7 -1.9 L7.85 -17.8 7.1 -15.65 Q4.6 -8.7 -2.4 7.55 -5.35 14.45 -5.75 25.5 -5.95 31.05 -5.55 35.2 -9.5 36.6 -13.55 36.3 -21.6 35.7 -21.8 27.3 -20.9 23.35 -18.9 17.65 -14.95 6.2 -9.5 -2.7 -2.3 -14.5 0.95 -21.35 L3.0 -26.1 Q0.25 -32.35 -0.8 -39.8 -1.95 -47.8 -0.25 -50.85 -1.15 -55.65 -0.8 -60.35 L-0.75 -61.85 Q-5.45 -71.7 -7.2 -83.15 -9.4 -97.2 -7.1 -110.9 -5.65 -119.75 -2.5 -120.9 -1.0 -121.4 0.2 -120.4 L0.35 -120.25 0.2 -120.4 0.3 -120.4 0.4 -120.35 0.35 -120.25 0.4 -120.35 M1.25 -118.8 L0.35 -120.25 1.25 -118.8 Q2.35 -115.5 3.9 -105.6 L3.1 -97.05 Q2.15 -85.6 1.75 -76.85 3.3 -72.1 5.5 -67.45 L7.1 -64.0 8.35 -71.8 10.1 -58.25 Q11.55 -70.4 11.4 -82.2 L11.3 -85.2 Q10.6 -97.6 5.75 -109.6 L4.55 -112.45 2.05 -117.45 1.25 -118.8 M9.9 -56.75 L10.1 -58.25 9.9 -56.75 7.1 -64.0 9.9 -56.75 M0.35 -120.25 L-0.75 -116.0 -1.35 -112.55 -0.75 -116.0 0.35 -120.25 M2.4 -55.95 Q0.65 -58.85 -0.75 -61.85 0.65 -58.85 2.4 -55.95 L2.85 -52.6 4.2 -52.15 5.45 -51.25 Q3.8 -53.55 2.4 -55.95 M6.65 -48.8 L6.3 -50.1 5.45 -51.25 6.3 -50.1 6.65 -48.8 7.9 -44.4 6.65 -48.8 7.2 -44.9 7.45 -43.15 7.2 -44.9 6.65 -48.8 M8.05 -43.85 L7.9 -44.4 8.05 -43.85 9.65 -37.95 11.4 -30.4 9.65 -37.95 8.05 -43.85 7.8 -43.65 8.05 -43.85 M12.05 -24.6 Q12.2 -26.15 11.4 -30.4 L10.85 -27.85 12.05 -24.6 M2.85 -52.6 L1.25 -52.35 Q0.3 -51.9 -0.25 -50.85 0.3 -51.9 1.25 -52.35 L2.85 -52.6 M7.8 -43.65 L7.45 -43.15 7.8 -43.65 7.9 -44.4 7.8 -43.65 M7.45 -43.15 Q6.0 -41.1 5.5 -35.85 5.1 -31.55 3.0 -26.1 5.1 -31.55 5.5 -35.85 6.0 -41.1 7.45 -43.15 M7.85 -17.8 Q9.8 -23.45 10.85 -27.85 9.8 -23.45 7.85 -17.8 M-1.35 -112.55 Q-1.95 -108.7 -2.1 -104.5 -2.4 -96.9 -1.25 -89.55 L-1.4 -94.9 Q-1.65 -106.25 -1.35 -112.55 M1.75 -76.85 Q-0.3 -83.15 -1.25 -89.55 -0.3 -83.15 1.75 -76.85" fill="#ffffff" fill-opacity="0.0" fill-rule="evenodd" stroke="none"/>
    <path d="M4.55 -112.45 L5.75 -109.6 Q10.6 -97.6 11.3 -85.2 L10.15 -80.9 Q9.1 -76.25 8.35 -71.8 L7.1 -64.0 5.5 -67.45 Q3.3 -72.1 1.75 -76.85 2.15 -85.6 3.1 -97.05 L3.9 -105.6 4.5 -112.2 4.55 -112.45 M15.55 -101.65 L14.95 -105.05 Q11.95 -120.2 7.55 -122.45 9.4 -125.3 11.55 -122.8 14.3 -119.6 15.2 -110.05 L15.55 -101.65 M2.4 -55.95 Q3.8 -53.55 5.45 -51.25 L4.2 -52.15 2.85 -52.6 2.4 -55.95" fill="#000000" fill-opacity="0.2" fill-rule="evenodd" stroke="none"/>
    <path d="M-5.55 35.2 Q-9.5 36.6 -13.55 36.3 -21.6 35.7 -21.8 27.3 M36.65 26.65 Q33.6 28.8 30.55 29.45 24.45 30.75 24.45 23.35" fill="none" stroke="#000000" stroke-linecap="butt" stroke-linejoin="miter-clip" stroke-miterlimit="4.0" stroke-opacity="0.24705882" stroke-width="1.0"/>
    <path d="M7.55 -122.45 L5.75 -122.95 3.75 -123.2 Q1.8 -123.05 0.4 -120.35 M12.7 -46.3 Q19.8 -61.4 18.9 -72.5 17.3 -91.25 15.55 -101.65 L15.2 -110.05 Q14.3 -119.6 11.55 -122.8 9.4 -125.3 7.55 -122.45 M0.2 -120.4 Q-1.0 -121.4 -2.5 -120.9 -5.65 -119.75 -7.1 -110.9 -9.4 -97.2 -7.2 -83.15 -5.45 -71.7 -0.75 -61.85 L-0.8 -60.35 Q-1.15 -55.65 -0.25 -50.85 -1.95 -47.8 -0.8 -39.8 0.25 -32.35 3.0 -26.1 M12.1 -24.5 Q13.65 -28.25 13.7 -35.1 13.75 -40.5 12.7 -46.3" fill="none" stroke="#000000" stroke-linecap="round" stroke-linejoin="miter-clip" stroke-miterlimit="4.0" stroke-opacity="0.6" stroke-width="1.0"/>
    <path d="M0.4 -120.35 L0.35 -120.25 1.25 -118.8 2.05 -117.45 4.55 -112.45 5.75 -109.6 Q10.6 -97.6 11.3 -85.2 L11.4 -82.2 Q11.55 -70.4 10.1 -58.25 L9.9 -56.75 Q11.7 -51.35 12.7 -46.3 M15.55 -101.65 L14.95 -105.05 Q11.95 -120.2 7.55 -122.45 M-1.35 -112.55 L-0.75 -116.0 0.35 -120.25 0.2 -120.4 0.3 -120.4 0.4 -120.35 M-0.75 -61.85 Q0.65 -58.85 2.4 -55.95 3.8 -53.55 5.45 -51.25 L6.3 -50.1 6.65 -48.8 7.9 -44.4 8.05 -43.85 9.65 -37.95 11.4 -30.4 Q12.2 -26.15 12.05 -24.6 L11.95 -24.25 12.1 -24.5 M3.9 -105.6 L4.5 -112.2 4.55 -112.45 M1.25 -118.8 Q2.35 -115.5 3.9 -105.6 L3.1 -97.05 Q2.15 -85.6 1.75 -76.85 3.3 -72.1 5.5 -67.45 L7.1 -64.0 8.35 -71.8 Q9.1 -76.25 10.15 -80.9 L11.3 -85.2 M2.4 -55.95 L2.85 -52.6 4.2 -52.15 5.45 -51.25 M-0.25 -50.85 Q0.3 -51.9 1.25 -52.35 L2.85 -52.6 M7.1 -64.0 L9.9 -56.75 M8.35 -71.8 L10.1 -58.25 M6.65 -48.8 L7.2 -44.9 7.45 -43.15 7.8 -43.65 7.9 -44.4 M7.8 -43.65 L8.05 -43.85 M3.0 -26.1 Q5.1 -31.55 5.5 -35.85 6.0 -41.1 7.45 -43.15 M11.4 -30.4 L10.85 -27.85 12.05 -24.6 M10.85 -27.85 Q9.8 -23.45 7.85 -17.8 M-1.25 -89.55 Q-2.4 -96.9 -2.1 -104.5 -1.95 -108.7 -1.35 -112.55 -1.65 -106.25 -1.4 -94.9 L-1.25 -89.55 Q-0.3 -83.15 1.75 -76.85" fill="none" stroke="#000000" stroke-linecap="round" stroke-linejoin="miter-clip" stroke-miterlimit="4.0" stroke-opacity="0.24705882" stroke-width="1.0"/>
    <path d="M24.45 23.35 Q26.25 21.0 26.5 16.65 27.1 8.0 19.7 -1.9 L7.85 -17.8" fill="none" stroke="#000000" stroke-linecap="butt" stroke-linejoin="miter-clip" stroke-miterlimit="4.0" stroke-opacity="0.4" stroke-width="1.0"/>
    <path d="M7.85 -17.8 L7.1 -15.65 Q4.6 -8.7 -2.4 7.55 -5.35 14.45 -5.75 25.5 -5.95 31.05 -5.55 35.2" fill="none" stroke="#000000" stroke-linecap="round" stroke-linejoin="miter-clip" stroke-miterlimit="4.0" stroke-opacity="0.4" stroke-width="1.0"/>
    <path d="M-21.8 27.3 Q-20.9 23.35 -18.9 17.65 -14.95 6.2 -9.5 -2.7 -2.3 -14.5 0.95 -21.35 L3.0 -26.1 M36.65 26.65 Q37.6 18.35 35.05 11.85 31.9 3.8 21.3 -9.0 15.55 -16.0 12.1 -24.5" fill="none" stroke="#000000" stroke-linecap="butt" stroke-linejoin="miter-clip" stroke-miterlimit="4.0" stroke-opacity="0.6" stroke-width="1.0"/>
    <path d="M136.85 34.1 Q137.45 37.5 133.0 39.95 L135.55 42.9 Q137.2 46.15 133.0 47.85 130.55 48.8 129.55 53.55 129.05 55.95 129.05 58.1 L131.6 60.15 Q133.55 62.75 130.6 65.2 L125.85 67.6 127.95 67.8 Q129.7 68.55 128.25 71.5 L123.5 73.9 121.15 83.35 124.0 84.55 Q126.55 86.15 125.1 88.1 L120.55 89.6 122.45 89.75 Q123.6 90.6 122.7 93.65 122.7 94.45 122.1 95.6 120.95 98.0 118.0 99.95 L112.3 106.9 21.25 111.05 21.2 113.0 -0.1 112.0 -21.4 113.0 -21.45 111.05 -112.5 106.9 -118.15 99.95 Q-121.1 98.0 -122.3 95.6 L-122.9 93.65 Q-123.8 90.6 -122.65 89.75 L-120.75 89.6 -125.3 88.1 Q-126.75 86.15 -124.2 84.55 -122.9 83.75 -121.35 83.35 L-123.7 73.9 -128.45 71.5 Q-129.9 68.55 -128.15 67.8 L-126.05 67.6 -130.8 65.2 Q-133.75 62.75 -131.8 60.15 -130.8 58.9 -129.25 58.1 -129.25 55.95 -129.75 53.55 -130.75 48.8 -133.2 47.85 -137.4 46.15 -135.75 42.9 L-133.2 39.95 Q-137.65 37.5 -137.05 34.1 L-135.55 31.25 -22.2 28.4 Q-22.05 27.3 -21.8 27.3 L-0.1 27.8 21.6 27.3 Q21.85 27.3 22.0 28.4 L135.35 31.25 136.85 34.1" fill="#ffffff" fill-opacity="0.0" fill-rule="evenodd" stroke="none"/>
    <path d="M127.55 31.05 Q126.65 33.8 122.65 36.05 115.35 40.1 101.6 41.15 L79.4 42.3 32.85 43.9 Q4.8 43.9 -10.8 43.15 L-29.25 42.55 Q-41.2 43.4 -29.8 50.05 L-46.55 49.05 -63.6 47.95 Q-63.2 50.0 -61.05 51.5 -59.8 52.35 -56.85 53.55 -58.6 54.75 -61.15 55.05 -62.85 55.25 -65.95 55.05 -66.3 56.65 -66.05 58.6 -65.8 60.5 -65.15 61.9 L-59.7 63.0 Q-56.7 63.9 -55.9 65.85 -60.55 66.6 -65.15 65.3 -65.95 70.4 -63.0 76.15 -68.15 77.65 -70.55 73.2 L-73.3 64.5 Q-76.25 66.15 -75.25 69.55 -74.65 71.5 -72.45 75.35 -74.55 75.9 -77.0 75.35 L-77.7 71.75 Q-79.2 76.65 -76.55 78.6 -74.55 80.1 -69.4 80.3 L-60.55 80.4 Q-55.8 80.7 -54.3 82.6 -55.55 83.45 -59.4 84.2 L-65.5 85.35 Q-68.4 86.0 -68.15 86.85 -67.85 87.95 -62.95 89.65 L-49.65 90.25 Q-40.85 89.7 -36.95 92.25 -39.9 95.55 -49.0 94.9 L-55.55 94.7 Q-58.85 95.0 -60.45 96.8 -57.1 99.15 -51.6 99.4 L-41.3 98.8 -30.95 98.4 Q-25.5 98.9 -22.1 101.75 -25.9 103.75 -32.5 103.0 L-43.1 102.45 Q-42.0 104.15 -37.1 105.0 L-27.1 106.2 Q-13.3 107.75 -12.35 112.55 L-21.4 113.0 -21.45 111.05 -112.5 106.9 -118.15 99.95 Q-121.1 98.0 -122.3 95.6 L-122.9 93.65 Q-123.8 90.6 -122.65 89.75 L-120.75 89.6 -125.3 88.1 Q-126.75 86.15 -124.2 84.55 -122.9 83.75 -121.35 83.35 L-123.7 73.9 -128.45 71.5 Q-129.9 68.55 -128.15 67.8 L-126.05 67.6 -130.8 65.2 Q-133.75 62.75 -131.8 60.15 -130.8 58.9 -129.25 58.1 -129.25 55.95 -129.75 53.55 -130.75 48.8 -133.2 47.85 -137.4 46.15 -135.75 42.9 L-133.2 39.95 Q-137.65 37.5 -137.05 34.1 L-135.55 31.25 -22.2 28.4 Q-22.05 27.3 -21.8 27.3 L-0.1 27.8 21.6 27.3 Q21.85 27.3 22.0 28.4 L127.55 31.05" fill="#000000" fill-opacity="0.09803922" fill-rule="evenodd" stroke="none"/>
    <path d="M136.85 34.1 L135.35 31.25 22.0 28.4 Q21.85 27.3 21.6 27.3 L-0.1 27.8 -21.8 27.3 Q-22.05 27.3 -22.2 28.4 L-135.55 31.25 -137.05 34.1 Q-137.65 37.5 -133.2 39.95 L-135.75 42.9 Q-137.4 46.15 -133.2 47.85 -130.75 48.8 -129.75 53.55 -129.25 55.95 -129.25 58.1 -130.8 58.9 -131.8 60.15 -133.75 62.75 -130.8 65.2 L-126.05 67.6 -128.15 67.8 Q-129.9 68.55 -128.45 71.5 L-123.7 73.9 -121.35 83.35 Q-122.9 83.75 -124.2 84.55 -126.75 86.15 -125.3 88.1 L-120.75 89.6 -122.65 89.75 Q-123.8 90.6 -122.9 93.65 L-122.3 95.6 Q-121.1 98.0 -118.15 99.95 L-112.5 106.9 -21.45 111.05 -21.4 113.0 -0.1 112.0 21.2 113.0 21.25 111.05 112.3 106.9 118.0 99.95 Q120.95 98.0 122.1 95.6 122.7 94.45 122.7 93.65 123.6 90.6 122.45 89.75 L120.55 89.6 125.1 88.1 Q126.55 86.15 124.0 84.55 L121.15 83.35 123.5 73.9 128.25 71.5 Q129.7 68.55 127.95 67.8 L125.85 67.6 130.6 65.2 Q133.55 62.75 131.6 60.15 L129.05 58.1 Q129.05 55.95 129.55 53.55 130.55 48.8 133.0 47.85 137.2 46.15 135.55 42.9 L133.0 39.95 Q137.45 37.5 136.85 34.1 Z" fill="none" stroke="#000000" stroke-linecap="butt" stroke-linejoin="miter-clip" stroke-miterlimit="4.0" stroke-width="1.0"/>
    <path d="M5.2 79.15 L5.5 87.3 Q6.45 97.05 9.9 105.1 M-66.85 47.25 L-59.9 47.8 -42.35 47.15 M-58.55 74.3 L-54.0 73.8 -41.05 72.6 M-61.7 66.2 L-55.25 65.9 -39.5 64.85 M-35.2 47.95 L-34.95 56.1 Q-34.0 65.85 -30.55 73.9 M-0.75 78.15 L-0.45 86.3 Q0.5 96.05 3.9 104.1 M-15.15 96.25 Q-15.2 94.75 -16.05 91.2 M-26.4 78.45 L-19.45 79.0 -1.9 78.35 M-21.25 97.4 L-14.8 97.1 0.95 96.05 M-41.2 46.9 L-40.9 55.05 Q-39.95 64.8 -36.5 72.85 M-133.2 39.95 L-126.65 42.25 Q-118.35 44.4 -109.5 43.7 M-123.7 58.95 Q-123.75 57.4 -124.6 54.05 M-107.1 61.45 Q-114.9 61.85 -122.85 60.0 L-129.25 58.1 M-126.05 67.6 L-121.7 68.6 -108.9 69.15 M-108.3 43.5 L-108.25 51.65 Q-107.55 61.4 -104.35 69.55 M-113.95 75.95 L-113.85 76.3 Q-111.8 82.9 -111.55 85.55 L-111.55 86.65 M-120.75 89.6 L-115.85 91.6 Q-109.65 93.7 -102.95 94.05 M-123.7 73.9 L-119.65 74.8 -108.9 75.65 M-97.25 78.65 L-97.2 86.8 Q-96.5 96.55 -93.3 104.7 M-102.4 44.7 L-102.35 52.85 Q-101.65 62.6 -98.45 70.75 M-18.1 105.5 L-13.55 105.0 -0.65 103.8" fill="none" stroke="#000000" stroke-linecap="butt" stroke-linejoin="miter-clip" stroke-miterlimit="4.0" stroke-opacity="0.14901961" stroke-width="1.0"/>
    <path d="M-50.5 63.95 Q-50.55 62.5 -51.5 58.95 L-52.3 56.3 M-65.9 56.45 L-59.35 56.55 -57.35 56.5 M-16.05 91.2 L-16.95 87.75 M-12.05 86.95 L-11.85 87.5 M-124.6 54.05 L-125.5 50.85 M-109.5 52.0 Q-114.75 52.4 -119.8 51.85 M-103.15 77.45 L-103.1 85.6 -102.95 87.5 M-119.55 75.1 L-119.35 75.7 -118.15 79.85 -117.35 83.4 Q-117.1 85.0 -117.2 85.75" fill="none" stroke="#000000" stroke-linecap="butt" stroke-linejoin="miter-clip" stroke-miterlimit="4.0" stroke-opacity="0.14901961" stroke-width="1.0"/>
    <path d="M-52.3 56.3 L-57.35 56.5 M-11.85 87.5 L-16.95 87.75 M-102.95 87.5 Q-111.6 87.9 -117.2 85.75 M-119.8 51.85 L-125.5 50.85" fill="none" stroke="#000000" stroke-linecap="round" stroke-linejoin="miter-clip" stroke-miterlimit="4.0" stroke-opacity="0.14901961" stroke-width="1.0"/>
    <path d="M-57.35 56.5 L-56.5 59.95 Q-55.65 63.55 -55.6 65.0 M-52.3 56.3 L-52.45 55.9 M-52.3 56.3 L-42.15 55.45 M-16.95 87.75 L-18.9 87.75 -25.45 87.65 M-11.85 87.5 L-1.7 86.65 M-11.85 87.5 L-11.05 90.2 Q-10.1 93.7 -10.05 95.2 M-125.5 50.85 L-126.65 50.55 -133.2 48.25 M-119.8 51.85 L-118.95 55.25 -118.05 59.8 -118.05 60.25 M-102.95 87.5 Q-102.1 96.2 -99.2 103.5 M-117.2 85.75 L-117.45 85.65 -121.35 83.35" fill="none" stroke="#000000" stroke-linecap="round" stroke-linejoin="miter-clip" stroke-miterlimit="4.0" stroke-opacity="0.14901961" stroke-width="1.0"/>
    <path d="M130.95 39.95 Q128.6 41.2 124.45 42.25 116.2 44.4 107.3 43.7 M121.5 58.95 Q121.55 57.4 122.4 54.05 M106.1 43.5 L106.05 51.65 Q105.35 61.4 102.15 69.55 M127.05 58.1 Q124.65 59.1 120.65 60.0 112.7 61.85 104.9 61.45 M123.85 67.6 L119.5 68.6 106.7 69.15 M100.2 44.7 L100.15 52.85 Q99.45 62.6 96.25 70.75 M95.05 78.65 L95.0 86.8 Q94.3 96.55 91.1 104.7 M111.75 75.95 L110.45 80.5 110.35 80.9 110.3 81.1 109.95 82.5 109.95 82.55 Q109.5 84.45 109.4 85.55 L109.35 86.65 M118.55 89.6 Q116.8 90.55 113.65 91.6 107.45 93.7 100.75 94.05 M121.5 73.9 L117.45 74.8 106.7 75.65" fill="none" stroke="#000000" stroke-linecap="butt" stroke-linejoin="miter-clip" stroke-miterlimit="4.0" stroke-opacity="0.14901961" stroke-width="1.0"/>
    <path d="M122.4 54.05 L123.3 50.85 M117.65 51.85 L116.75 55.25 116.7 55.55 116.6 55.9 116.55 56.1 116.45 56.55 116.45 56.6 Q115.95 58.65 115.9 59.8 L115.85 60.25 M117.65 51.85 Q112.6 52.4 107.3 52.0 M115.0 85.8 L115.05 84.3 Q115.25 82.65 116.05 79.65 L117.35 75.1 M115.0 85.8 L115.3 85.65 Q118.1 84.55 119.15 83.35 M100.75 87.5 Q99.9 96.2 97.0 103.5" fill="none" stroke="#000000" stroke-linecap="round" stroke-linejoin="miter-clip" stroke-miterlimit="4.0" stroke-opacity="0.14901961" stroke-width="1.0"/>
    <path d="M100.95 77.45 L100.9 85.6 100.75 87.5 M130.95 48.25 Q128.6 49.5 124.45 50.55 L123.3 50.85" fill="none" stroke="#000000" stroke-linecap="butt" stroke-linejoin="miter-clip" stroke-miterlimit="4.0" stroke-opacity="0.14901961" stroke-width="1.0"/>
    <path d="M123.3 50.85 L117.65 51.85 M100.75 87.5 Q109.4 87.9 115.0 85.8" fill="none" stroke="#000000" stroke-linecap="round" stroke-linejoin="miter-clip" stroke-miterlimit="4.0" stroke-opacity="0.14901961" stroke-width="1.0"/>
    <path d="M94.15 39.95 Q91.8 41.2 87.65 42.25 79.35 44.4 70.45 43.7 M87.05 67.6 L82.7 68.6 69.85 69.15 M90.2 58.1 Q87.8 59.1 83.8 60.0 75.9 61.85 68.1 61.45 M69.3 43.5 L69.25 51.65 Q68.55 61.4 65.35 69.55 M84.7 73.9 L80.6 74.8 69.85 75.65 M63.35 44.7 L63.3 52.85 Q62.6 62.6 59.4 70.75" fill="none" stroke="#000000" stroke-linecap="butt" stroke-linejoin="miter-clip" stroke-miterlimit="4.0" stroke-opacity="0.14901961" stroke-width="1.0"/>
    <path d="M94.15 48.25 Q91.8 49.5 87.65 50.55 L86.45 50.85" fill="none" stroke="#000000" stroke-linecap="butt" stroke-linejoin="miter-clip" stroke-miterlimit="4.0" stroke-opacity="0.14901961" stroke-width="1.0"/>
    <path d="M86.45 50.85 L85.6 54.05 Q84.75 57.4 84.7 58.95 M80.85 51.85 L79.95 55.25 79.9 55.55 79.8 55.9 79.75 56.1 79.65 56.55 Q79.15 58.6 79.1 59.8 L79.05 60.25 M80.85 51.85 Q75.75 52.4 70.45 52.0" fill="none" stroke="#000000" stroke-linecap="round" stroke-linejoin="miter-clip" stroke-miterlimit="4.0" stroke-opacity="0.14901961" stroke-width="1.0"/>
    <path d="M86.45 50.85 L80.85 51.85" fill="none" stroke="#000000" stroke-linecap="round" stroke-linejoin="miter-clip" stroke-miterlimit="4.0" stroke-opacity="0.14901961" stroke-width="1.0"/>
  </g>
</svg>
