<?xml version="1.0" encoding="UTF-8" standalone="no"?>
<svg xmlns:xlink="http://www.w3.org/1999/xlink" height="63.15px" width="251.75px" xmlns="http://www.w3.org/2000/svg">
  <g transform="matrix(1.0, 0.0, 0.0, 1.0, 126.05, 31.7)">
    <path d="M-115.5 -15.35 L-123.95 -27.9 -125.15 -29.7 -106.6 -29.35 -86.4 -28.4 Q-84.3 -27.55 -66.0 -9.25 L-69.35 -8.5 -78.7 -6.5 -82.1 -5.8 -92.05 -14.5 -115.5 -15.35 M-80.7 6.1 L-68.85 8.65 -66.0 9.25 Q-84.3 27.55 -86.4 28.4 L-106.6 29.4 -125.15 29.7 -115.5 15.35 -92.05 14.5 -82.1 5.8 -80.7 6.1 M-69.35 -8.5 L-87.7 -26.65 -123.95 -27.9 -87.7 -26.65 -69.35 -8.5 M-68.85 8.65 L-87.7 26.7 -123.55 27.9 -87.7 26.7 -68.85 8.65" fill="#ffffff" fill-opacity="0.0" fill-rule="evenodd" stroke="none"/>
    <path d="M-115.5 15.35 L-115.5 -15.35 -92.05 -14.5 -92.05 14.5 -115.5 15.35" fill="#000000" fill-opacity="0.4" fill-rule="evenodd" stroke="none"/>
    <path d="M-78.7 -6.5 L-78.3 -6.25 -80.7 6.1 -82.1 5.8 -92.05 14.5 -92.05 -14.5 -82.1 -5.8 -78.7 -6.5" fill="#000000" fill-opacity="0.2" fill-rule="evenodd" stroke="none"/>
    <path d="M-115.5 -15.35 L-123.95 -27.9 -125.15 -29.7 -106.6 -29.35 -86.4 -28.4 Q-84.3 -27.55 -66.0 -9.25 L-69.35 -8.5 -78.7 -6.5 -78.3 -6.25 -80.7 6.1 -68.85 8.65 -66.0 9.25 Q-84.3 27.55 -86.4 28.4 L-106.6 29.4 -125.15 29.7 -115.5 15.35 -115.5 -15.35" fill="none" stroke="#000000" stroke-linecap="round" stroke-linejoin="miter-clip" stroke-miterlimit="4.0" stroke-width="1.0"/>
    <path d="M-115.5 -15.35 L-92.05 -14.5 -82.1 -5.8 -78.7 -6.5 M-92.05 14.5 L-82.1 5.8 -80.7 6.1 M-92.05 14.5 L-115.5 15.35 M-92.05 -14.5 L-92.05 14.5" fill="none" stroke="#000000" stroke-linecap="round" stroke-linejoin="miter-clip" stroke-miterlimit="4.0" stroke-opacity="0.6" stroke-width="1.0"/>
    <path d="M-123.95 -27.9 L-87.7 -26.65 -69.35 -8.5" fill="none" stroke="#000000" stroke-linecap="round" stroke-linejoin="miter-clip" stroke-miterlimit="4.0" stroke-opacity="0.24705882" stroke-width="1.0"/>
    <path d="M-123.55 27.9 L-87.7 26.7 -68.85 8.65" fill="none" stroke="#000000" stroke-linecap="butt" stroke-linejoin="miter-clip" stroke-miterlimit="4.0" stroke-opacity="0.24705882" stroke-width="1.0"/>
    <path d="M5.75 -29.7 L6.2 -20.15 2.3 -20.55 5.75 -29.7" fill="#ffffff" fill-opacity="0.0" fill-rule="evenodd" stroke="none"/>
    <path d="M5.75 -29.7 L6.2 -20.15 2.3 -20.55 5.75 -29.7 Z" fill="none" stroke="#000000" stroke-linecap="butt" stroke-linejoin="miter-clip" stroke-miterlimit="4.0" stroke-opacity="0.6" stroke-width="1.0"/>
    <path d="M85.35 -25.8 Q86.75 -30.35 87.55 -29.25 88.85 -27.55 88.85 -21.9 L84.1 -21.0 85.35 -25.8" fill="#ffffff" fill-opacity="0.0" fill-rule="evenodd" stroke="none"/>
    <path d="M85.35 -25.8 Q86.75 -30.35 87.55 -29.25 88.85 -27.55 88.85 -21.9 L84.1 -21.0 85.35 -25.8 Z" fill="none" stroke="#000000" stroke-linecap="butt" stroke-linejoin="miter-clip" stroke-miterlimit="4.0" stroke-opacity="0.6" stroke-width="1.0"/>
    <path d="M124.9 -3.3 Q125.75 -0.45 124.1 3.35 L117.6 5.1 118.9 -5.35 123.7 -5.35 Q124.45 -4.7 124.9 -3.3" fill="#ffffff" fill-opacity="0.0" fill-rule="evenodd" stroke="none"/>
    <path d="M124.9 -3.3 Q125.75 -0.45 124.1 3.35 L117.6 5.1 118.9 -5.35 123.7 -5.35 Q124.45 -4.7 124.9 -3.3 Z" fill="none" stroke="#000000" stroke-linecap="butt" stroke-linejoin="miter-clip" stroke-miterlimit="4.0" stroke-opacity="0.6" stroke-width="1.0"/>
  </g>
</svg>
