<?xml version="1.0" encoding="UTF-8" standalone="no"?>
<svg xmlns:xlink="http://www.w3.org/1999/xlink" height="46.95px" width="98.6px" xmlns="http://www.w3.org/2000/svg">
  <g transform="matrix(1.0, 0.0, 0.0, 1.0, 49.3, 23.5)">
    <path d="M-22.95 -20.6 L-17.55 -21.6 -16.7 -20.0 Q-15.5 -18.05 -13.8 -16.4 -8.5 -11.25 -0.5 -11.25 7.5 -11.25 11.9 -16.9 14.05 -19.7 14.65 -22.55 L20.3 -23.0 Q17.65 -17.2 13.6 -13.2 7.75 -7.4 0.0 -6.5 -8.9 -5.5 -15.9 -11.2 -20.95 -15.35 -22.95 -20.6 M46.85 -7.25 L48.8 -5.55 48.35 -3.15 Q47.7 -0.2 46.65 2.4 43.35 10.65 37.4 12.45 L33.45 10.95 Q42.9 6.9 46.85 -7.25 M-31.7 19.55 L-33.2 22.85 Q-35.9 23.2 -39.25 22.25 -45.85 20.4 -48.8 13.85 L-47.45 9.95 Q-45.25 13.6 -42.05 16.0 -37.55 19.4 -31.7 19.55" fill="#ffffff" fill-opacity="0.0" fill-rule="evenodd" stroke="none"/>
    <path d="M20.3 -23.0 L14.65 -22.55 Q14.05 -19.7 11.9 -16.9 7.5 -11.25 -0.5 -11.25 -8.5 -11.25 -13.8 -16.4 -15.5 -18.05 -16.7 -20.0 L-17.55 -21.6 -22.95 -20.6 M33.45 10.95 L37.4 12.45 Q43.35 10.65 46.65 2.4 47.7 -0.2 48.35 -3.15 L48.8 -5.55 46.85 -7.25 M-47.45 9.95 L-48.8 13.85 Q-45.85 20.4 -39.25 22.25 -35.9 23.2 -33.2 22.85 L-31.7 19.55" fill="none" stroke="#000000" stroke-linecap="butt" stroke-linejoin="miter-clip" stroke-miterlimit="4.0" stroke-width="1.0"/>
    <path d="M-22.95 -20.6 Q-20.95 -15.35 -15.9 -11.2 -8.9 -5.5 0.0 -6.5 7.75 -7.4 13.6 -13.2 17.65 -17.2 20.3 -23.0 M46.85 -7.25 Q42.9 6.9 33.45 10.95 M-31.7 19.55 Q-37.55 19.4 -42.05 16.0 -45.25 13.6 -47.45 9.95" fill="none" stroke="#000000" stroke-linecap="butt" stroke-linejoin="miter-clip" stroke-miterlimit="4.0" stroke-opacity="0.6" stroke-width="1.0"/>
  </g>
</svg>
