<?xml version="1.0" encoding="UTF-8" standalone="no"?>
<svg xmlns:xlink="http://www.w3.org/1999/xlink" height="220.55px" width="253.35px" xmlns="http://www.w3.org/2000/svg">
  <g transform="matrix(1.0, 0.0, 0.0, 1.0, 115.1, 109.6)">
    <path d="M42.5 -107.15 Q61.3 -109.75 72.3 -108.9 84.6 -107.9 96.35 -104.6 111.85 -100.2 119.1 -93.3 127.85 -84.95 130.75 -76.05 134.15 -65.75 130.9 -51.8 128.05 -39.55 120.25 -30.1 117.85 -27.15 115.2 -24.85 L113.05 -23.15 Q111.6 -21.45 111.25 -18.5 110.55 -12.65 116.05 -6.55 120.1 -2.05 129.9 7.6 137.3 14.9 137.7 16.1 138.15 17.4 135.1 36.3 L130.4 65.9 Q129.15 75.2 128.8 84.8 L128.65 92.55 Q126.5 93.0 124.2 93.95 119.55 95.9 118.6 98.6 116.35 104.75 114.3 104.35 L108.95 104.15 104.5 104.1 Q104.7 101.95 105.4 99.4 106.85 94.25 109.5 92.05 L115.55 87.5 Q118.15 79.15 120.5 69.0 125.2 48.7 124.1 39.75 123.0 30.8 114.9 19.25 L107.0 9.55 Q100.2 5.7 92.7 0.2 77.7 -10.9 74.05 -19.35 70.05 -17.0 63.45 -15.0 50.3 -10.9 37.6 -12.3 24.95 -13.7 9.25 -7.75 1.3 -4.7 -5.15 -1.25 -9.5 0.65 -14.6 2.35 -24.7 5.8 -33.85 5.8 -37.8 8.8 -42.45 13.7 -51.75 23.5 -55.2 32.95 -60.75 48.05 -66.45 66.7 -67.2 70.5 -71.55 79.75 -75.05 87.1 -76.85 90.1 L-78.65 93.4 Q-79.5 95.5 -79.85 98.95 -80.25 102.5 -81.4 105.15 -82.3 107.25 -83.05 107.65 -83.8 108.0 -83.45 100.1 L-85.35 105.55 Q-86.15 107.2 -88.55 108.35 L-90.8 109.15 -93.35 108.6 Q-96.25 107.55 -98.15 105.2 -100.0 102.9 -101.35 96.05 -102.6 88.7 -103.25 86.5 -104.05 83.85 -107.3 80.45 L-111.55 76.35 Q-113.05 74.65 -114.4 65.2 -115.35 59.3 -111.55 50.25 -107.0 39.5 -98.95 35.75 -86.0 16.6 -80.35 2.0 -73.95 -14.45 -71.3 -19.1 -70.7 -20.15 -66.45 -30.2 L-58.25 -49.55 Q-54.45 -58.35 -45.1 -69.1 -36.9 -78.65 -31.8 -81.75 -28.85 -83.55 -16.1 -88.45 -0.05 -94.7 8.65 -98.6 20.95 -104.15 42.5 -107.15" fill="#ffffff" fill-opacity="0.0" fill-rule="evenodd" stroke="none"/>
    <path d="M-31.35 5.7 L-33.85 5.8 Q-37.8 8.8 -42.45 13.7 -51.75 23.5 -55.2 32.95 -60.75 48.05 -66.45 66.7 -67.2 70.5 -71.55 79.75 -75.05 87.1 -76.85 90.1 L-78.65 93.4 Q-79.5 95.5 -79.85 98.95 -80.25 102.5 -81.4 105.15 -82.3 107.25 -83.05 107.65 -83.45 107.85 -83.55 104.9 -82.15 99.5 -82.25 92.95 -82.3 89.5 -80.45 85.5 L-76.7 78.6 Q-74.35 74.4 -73.5 71.9 -72.2 68.25 -72.45 64.65 -72.6 61.8 -73.9 57.75 L-75.8 51.05 Q-69.05 46.65 -65.0 38.4 -61.0 28.45 -58.5 23.15 -54.8 15.4 -47.3 10.25 -39.55 4.95 -31.4 5.1 L-31.35 5.7" fill="#000000" fill-opacity="0.2" fill-rule="evenodd" stroke="none"/>
    <path d="M37.6 -12.3 Q24.95 -13.7 9.25 -7.75 1.3 -4.7 -5.15 -1.25 -9.5 0.65 -14.6 2.35 -24.7 5.8 -33.85 5.8 L-38.85 10.15 Q-44.7 15.65 -48.9 21.45 -43.15 12.45 -36.8 5.3 -28.25 -4.4 -19.75 -9.3 -7.8 -16.2 20.5 -27.0 L51.7 -39.0 Q59.75 -43.0 68.3 -46.05 68.05 -42.5 68.65 -37.4 69.85 -27.25 74.3 -19.55 L74.1 -19.3 74.05 -19.35 Q70.05 -17.0 63.45 -15.0 50.3 -10.9 37.6 -12.3" fill="#ffffff" fill-opacity="0.2" fill-rule="evenodd" stroke="none"/>
    <path d="M-54.4 30.9 L-54.1 30.3 -54.45 30.95 -54.4 30.9 Z" fill="none" stroke="#000000" stroke-linecap="butt" stroke-linejoin="miter-clip" stroke-miterlimit="10.0" stroke-width="1.0"/>
    <path d="M-95.5 79.85 Q-96.65 77.6 -94.95 75.7 -93.25 73.85 -90.9 72.85 L-88.9 72.2 -88.4 73.35 Q-87.95 74.8 -88.05 76.1 -88.3 80.3 -93.95 81.75 -94.9 81.0 -95.5 79.85" fill="#231f20" fill-rule="evenodd" stroke="none"/>
    <path d="M-95.5 79.85 Q-96.65 77.6 -94.95 75.7 -93.25 73.85 -90.9 72.85 L-88.9 72.2 -88.4 73.35 Q-87.95 74.8 -88.05 76.1 -88.3 80.3 -93.95 81.75 -94.9 81.0 -95.5 79.85 Z" fill="none" stroke="#000000" stroke-linecap="butt" stroke-linejoin="miter-clip" stroke-miterlimit="10.0" stroke-width="1.0"/>
    <path d="M-98.15 105.2 L-98.55 104.65 Q-94.5 100.25 -89.9 99.6 L-88.8 102.75 Q-88.5 106.35 -92.45 108.85 -95.95 107.95 -98.15 105.2" fill="#231f20" fill-rule="evenodd" stroke="none"/>
    <path d="M-98.15 105.2 Q-95.95 107.95 -92.45 108.85 -88.5 106.35 -88.8 102.75 L-89.9 99.6 Q-94.5 100.25 -98.55 104.65 L-98.15 105.2 Z" fill="none" stroke="#000000" stroke-linecap="butt" stroke-linejoin="miter-clip" stroke-miterlimit="10.0" stroke-width="1.0"/>
    <path d="M-94.25 76.75 Q-93.15 74.7 -90.2 73.55 L-94.7 78.6 Q-94.75 77.8 -94.25 76.75" fill="#8f9194" fill-rule="evenodd" stroke="none"/>
    <path d="M-95.25 102.95 L-92.7 101.25 Q-91.55 101.65 -93.55 103.7 -95.6 105.8 -96.7 105.25 -97.65 104.8 -95.25 102.95" fill="#8f9194" fill-rule="evenodd" stroke="none"/>
    <path d="M122.45 -89.85 L123.25 -88.9 Q129.6 -81.55 131.55 -73.2 133.7 -63.95 130.9 -51.8 128.05 -39.55 120.25 -30.1 117.85 -27.15 115.2 -24.85 L113.05 -23.15 Q111.6 -21.45 111.25 -18.5 110.55 -12.65 116.05 -6.55 120.1 -2.05 129.9 7.6 137.3 14.9 137.7 16.1 138.15 17.4 135.1 36.3 L130.4 65.9 Q129.15 75.2 128.8 84.8 L128.65 92.55 Q126.5 93.0 124.2 93.95 119.55 95.9 118.6 98.6 117.15 102.6 115.75 103.8 L117.3 97.75 Q118.4 94.2 119.7 91.95 L123.5 86.7 Q125.5 84.05 126.15 80.85 L128.85 67.35 Q130.35 59.5 130.65 53.7 130.95 48.1 130.85 39.65 L130.65 25.55 130.5 19.3 Q130.1 16.5 128.1 14.05 L124.3 10.15 Q121.85 7.75 120.7 5.9 L117.8 -0.25 Q116.05 -4.25 114.45 -6.05 113.75 -6.85 111.5 -7.9 109.3 -9.0 108.65 -9.8 107.9 -10.7 107.15 -12.8 L106.0 -15.8 105.1 -14.75 105.0 -22.6 104.45 -21.7 Q106.55 -28.3 110.9 -34.95 113.8 -39.45 119.9 -46.95 L118.75 -47.0 122.0 -51.2 Q124.05 -53.65 124.55 -55.75 L123.65 -55.5 Q125.6 -58.4 125.55 -60.4 L123.65 -60.05 Q125.6 -60.6 126.55 -66.65 127.25 -71.15 127.1 -74.45 126.7 -81.35 122.45 -89.85" fill="#000000" fill-opacity="0.2" fill-rule="evenodd" stroke="none"/>
    <path d="M100.45 -101.35 L90.0 -103.45 79.35 -104.75 Q54.6 -106.1 34.7 -102.75 L40.95 -101.7 Q36.85 -102.15 30.35 -100.7 L19.85 -98.25 Q7.85 -96.0 1.95 -92.55 1.95 -92.25 2.2 -92.05 -1.15 -90.75 -2.2 -90.65 L-0.25 -90.2 2.35 -89.5 Q0.05 -88.15 -6.1 -87.75 L-15.2 -87.05 -12.95 -86.6 -10.35 -86.65 -23.9 -81.5 Q-31.65 -78.25 -36.25 -73.95 -40.1 -70.3 -44.35 -64.3 -49.0 -57.35 -51.4 -54.05 L-49.5 -53.85 -53.9 -48.7 Q-56.8 -45.5 -58.0 -43.4 L-60.7 -37.65 -63.4 -31.8 Q-67.7 -23.5 -73.05 -9.7 -75.0 -4.75 -77.95 0.85 L-83.65 10.95 -86.05 14.35 Q-82.8 8.25 -80.35 2.0 -73.95 -14.45 -71.3 -19.1 -70.7 -20.15 -66.45 -30.2 L-58.25 -49.55 Q-54.45 -58.35 -45.1 -69.1 -36.9 -78.65 -31.8 -81.75 -28.85 -83.55 -16.1 -88.45 -0.05 -94.7 8.65 -98.6 20.95 -104.15 42.5 -107.15 61.3 -109.75 72.3 -108.9 83.5 -108.0 94.4 -105.1 108.7 -101.35 116.5 -95.45 L111.5 -98.25 Q109.15 -99.35 106.1 -100.1 L100.45 -101.35" fill="#ffffff" fill-opacity="0.2" fill-rule="evenodd" stroke="none"/>
    <path d="M42.5 -107.15 Q20.95 -104.15 8.65 -98.6 -0.05 -94.7 -16.1 -88.45 -28.85 -83.55 -31.8 -81.75 -36.9 -78.65 -45.1 -69.1 -54.45 -58.35 -58.25 -49.55 L-66.45 -30.2 Q-70.7 -20.15 -71.3 -19.1 -73.95 -14.45 -80.35 2.0 -86.0 16.6 -98.95 35.75 -107.0 39.5 -111.55 50.25 -115.35 59.3 -114.4 65.2 -113.05 74.65 -111.55 76.35 L-107.3 80.45 Q-104.05 83.85 -103.25 86.5 -102.6 88.7 -101.35 96.05 -100.0 102.9 -98.15 105.2 -96.25 107.55 -93.35 108.6 L-90.8 109.15 -88.55 108.35 Q-86.15 107.2 -85.35 105.55 L-83.45 100.1 Q-83.8 108.0 -83.05 107.65 -82.3 107.25 -81.4 105.15 -80.25 102.5 -79.85 98.95 -79.5 95.5 -78.65 93.4 L-76.85 90.1 Q-75.05 87.1 -71.55 79.75 -67.2 70.5 -66.45 66.7 -60.75 48.05 -55.2 32.95 -51.75 23.5 -42.45 13.7 -37.8 8.8 -33.85 5.8 -24.7 5.8 -14.6 2.35 -9.5 0.65 -5.15 -1.25 1.3 -4.7 9.25 -7.75 24.95 -13.7 37.6 -12.3 50.3 -10.9 63.45 -15.0 70.05 -17.0 74.05 -19.35 77.7 -10.9 92.7 0.2 100.2 5.7 107.0 9.55 L114.9 19.25 Q123.0 30.8 124.1 39.75 125.2 48.7 120.5 69.0 118.15 79.15 115.55 87.5 L109.5 92.05 Q106.85 94.25 105.4 99.4 104.7 101.95 104.5 104.1 L108.95 104.15 114.3 104.35 Q116.35 104.75 118.6 98.6 119.55 95.9 124.2 93.95 126.5 93.0 128.65 92.55 L128.8 84.8 Q129.15 75.2 130.4 65.9 L135.1 36.3 Q138.15 17.4 137.7 16.1 137.3 14.9 129.9 7.6 120.1 -2.05 116.05 -6.55 110.55 -12.65 111.25 -18.5 111.6 -21.45 113.05 -23.15 L115.2 -24.85 Q117.85 -27.15 120.25 -30.1 128.05 -39.55 130.9 -51.8 134.15 -65.75 130.75 -76.05 127.85 -84.95 119.1 -93.3 111.85 -100.2 96.35 -104.6 84.6 -107.9 72.3 -108.9 61.3 -109.75 42.5 -107.15 Z" fill="none" stroke="#000000" stroke-linecap="butt" stroke-linejoin="miter-clip" stroke-miterlimit="10.0" stroke-width="1.0"/>
    <path d="M50.4 -94.7 Q53.4 -93.45 57.2 -89.65 52.7 -92.4 48.15 -95.2 L50.4 -94.7" fill="#000000" fill-opacity="0.2" fill-rule="evenodd" stroke="none"/>
    <path d="M77.9 -55.2 Q81.05 -53.2 83.85 -49.4 L75.3 -56.45 77.9 -55.2" fill="#000000" fill-opacity="0.2" fill-rule="evenodd" stroke="none"/>
    <path d="M99.75 -54.8 L97.45 -56.45 Q101.95 -56.45 104.3 -52.55 105.1 -51.2 105.0 -50.5 104.9 -49.8 104.0 -50.95 L99.75 -54.8" fill="#000000" fill-opacity="0.2" fill-rule="evenodd" stroke="none"/>
    <path d="M76.15 -82.0 Q81.55 -79.45 84.35 -75.1 L71.3 -83.65 76.15 -82.0" fill="#000000" fill-opacity="0.2" fill-rule="evenodd" stroke="none"/>
    <path d="M56.4 -87.0 Q60.55 -84.25 62.75 -81.1 L52.7 -89.15 Q54.35 -88.4 56.4 -87.0" fill="#000000" fill-opacity="0.2" fill-rule="evenodd" stroke="none"/>
    <path d="M27.65 -82.7 Q31.7 -82.55 36.1 -79.1 27.05 -82.1 24.5 -82.1 L27.65 -82.7" fill="#000000" fill-opacity="0.2" fill-rule="evenodd" stroke="none"/>
    <path d="M50.6 -82.4 Q57.3 -81.05 60.75 -77.6 L44.65 -83.1 50.6 -82.4" fill="#000000" fill-opacity="0.2" fill-rule="evenodd" stroke="none"/>
    <path d="M22.8 -62.2 Q27.7 -60.3 30.55 -57.45 L18.5 -63.5 22.8 -62.2" fill="#000000" fill-opacity="0.2" fill-rule="evenodd" stroke="none"/>
    <path d="M41.65 -62.65 Q47.6 -58.95 50.0 -56.6 47.95 -58.5 41.25 -61.35 L34.55 -64.0 Q42.1 -54.95 37.1 -59.5 34.8 -61.55 31.2 -63.45 27.65 -65.3 24.65 -66.05 L27.85 -65.3 31.0 -64.6 30.55 -65.8 30.1 -67.0 Q30.9 -66.55 32.1 -66.4 L34.05 -66.1 32.85 -67.5 31.6 -68.85 41.65 -62.65" fill="#000000" fill-opacity="0.2" fill-rule="evenodd" stroke="none"/>
    <path d="M8.1 -74.7 L1.75 -74.1 Q-2.25 -73.85 -4.25 -75.45 L-1.7 -75.1 -5.5 -77.55 Q-8.55 -79.6 -8.95 -79.55 -6.55 -79.9 -2.5 -78.8 1.9 -77.65 3.85 -77.7 L2.15 -79.9 5.5 -79.75 8.7 -79.5 Q9.9 -79.1 11.5 -77.6 13.1 -76.1 13.9 -75.75 9.65 -77.5 4.5 -77.0 6.25 -76.2 8.1 -74.7" fill="#000000" fill-opacity="0.2" fill-rule="evenodd" stroke="none"/>
  </g>
</svg>
