<?xml version="1.0" encoding="UTF-8" standalone="no"?>
<svg xmlns:xlink="http://www.w3.org/1999/xlink" height="38.95px" width="121.7px" xmlns="http://www.w3.org/2000/svg">
  <g transform="matrix(1.0, 0.0, 0.0, 1.0, 49.3, 18.3)">
    <path d="M67.5 -16.7 Q65.55 -11.4 57.85 -4.85 50.2 1.7 39.35 7.4 13.75 20.9 -8.3 20.1 -29.7 19.35 -40.25 13.5 -48.8 8.8 -48.8 1.9 -48.8 -2.95 -45.45 -6.4 L-42.15 -8.9 Q-37.95 -11.7 -30.7 -9.45 -27.1 -8.3 -24.3 -6.65 -6.25 3.9 24.7 -3.65 34.75 -6.05 46.5 -10.55 L60.05 -15.95 Q66.55 -18.25 67.7 -17.7 68.25 -17.45 67.5 -16.7" fill="#ffffff" fill-opacity="0.0" fill-rule="evenodd" stroke="none"/>
    <path d="M-10.8 -0.25 Q12.35 4.65 34.05 -4.8 24.65 0.1 10.7 2.35 -17.15 6.9 -39.8 -6.3 L-37.3 -7.6 Q-33.95 -8.55 -29.6 -7.0 L-24.55 -4.55 Q-18.05 -1.75 -10.8 -0.25" fill="#ffffff" fill-opacity="0.6" fill-rule="evenodd" stroke="none"/>
    <path d="M66.85 -15.2 Q64.15 -9.85 56.3 -3.5 48.4 2.85 37.85 8.2 12.95 20.9 -8.3 20.1 -29.7 19.35 -40.25 13.5 -48.8 8.8 -48.8 1.9 L-48.75 0.45 -43.5 -4.65 -44.15 -3.6 Q-44.85 -2.3 -45.0 -0.85 -45.55 3.75 -40.75 7.6 -37.9 9.95 -29.9 11.8 -21.95 13.65 -12.15 14.25 11.7 15.8 24.65 9.6 37.45 3.4 48.0 -2.6 60.95 -10.0 66.85 -15.2" fill="#000000" fill-opacity="0.2" fill-rule="evenodd" stroke="none"/>
    <path d="M67.5 -16.7 Q68.25 -17.45 67.7 -17.7 66.55 -18.25 60.05 -15.95 L46.5 -10.55 Q34.75 -6.05 24.7 -3.65 -6.25 3.9 -24.3 -6.65 -27.1 -8.3 -30.7 -9.45 -37.95 -11.7 -42.15 -8.9 L-45.45 -6.4 Q-48.8 -2.95 -48.8 1.9 -48.8 8.8 -40.25 13.5 -29.7 19.35 -8.3 20.1 13.75 20.9 39.35 7.4 50.2 1.7 57.85 -4.85 65.55 -11.4 67.5 -16.7 Z" fill="none" stroke="#000000" stroke-linecap="butt" stroke-linejoin="miter-clip" stroke-miterlimit="10.0" stroke-width="1.0"/>
  </g>
</svg>
