<?xml version="1.0" encoding="UTF-8" standalone="no"?>
<svg xmlns:xlink="http://www.w3.org/1999/xlink" height="187.5px" width="391.5px" xmlns="http://www.w3.org/2000/svg">
  <g transform="matrix(1.0, 0.0, 0.0, 1.0, 195.75, 93.75)">
    <path d="M165.75 -93.75 Q184.5 -84.3 192.0 -55.8 195.75 -41.55 195.75 -29.25 L195.75 93.75 -195.75 93.75 -195.75 -29.25 Q-195.75 -41.55 -192.0 -55.8 -184.5 -84.3 -165.75 -93.75 L165.75 -93.75" fill="#ffffff" fill-opacity="0.0" fill-rule="evenodd" stroke="none"/>
    <path d="M-195.75 52.65 L-195.75 45.75 195.75 45.75 195.75 52.65 -195.75 52.65 M-195.75 22.65 L-195.75 15.75 195.75 15.75 195.75 22.65 -195.75 22.65 M-195.75 37.65 L-195.75 30.75 195.75 30.75 195.75 37.65 -195.75 37.65 M-195.75 7.65 L-195.75 0.75 195.75 0.75 195.75 7.65 -195.75 7.65 M194.4 -44.25 L195.15 -37.35 -195.3 -37.35 -194.55 -44.25 194.4 -44.25 M195.75 -29.25 L195.75 -22.35 -195.75 -22.35 -195.75 -29.25 195.75 -29.25 M195.75 -14.25 L195.75 -7.35 -195.75 -7.35 -195.75 -14.25 195.75 -14.25 M165.75 -93.75 Q172.5 -90.45 178.2 -84.0 L-178.35 -84.0 Q-172.5 -90.6 -165.75 -93.75 L165.75 -93.75 M190.95 -59.25 L192.75 -52.35 -192.9 -52.35 -191.1 -59.25 190.95 -59.25 M184.8 -74.25 Q186.45 -71.55 188.1 -67.35 L-188.25 -67.35 Q-186.6 -71.55 -184.95 -74.25 L184.8 -74.25" fill="#ffffff" fill-opacity="0.49803922" fill-rule="evenodd" stroke="none"/>
  </g>
</svg>
