<?xml version="1.0" encoding="UTF-8" standalone="no"?>
<svg xmlns:xlink="http://www.w3.org/1999/xlink" height="169.95px" width="643.85px" xmlns="http://www.w3.org/2000/svg">
  <g transform="matrix(1.0, 0.0, 0.0, 1.0, 331.25, 104.5)">
    <path d="M199.05 -27.2 L199.05 -19.4 -330.25 -19.2 -330.25 -26.95 199.05 -27.2" fill="#333333" fill-opacity="0.4" fill-rule="evenodd" stroke="none"/>
    <path d="M199.05 -27.2 L-330.25 -26.95 -330.25 -19.2 199.05 -19.4 199.05 -27.2 Z" fill="none" stroke="#000000" stroke-linecap="butt" stroke-linejoin="miter-clip" stroke-miterlimit="10.0" stroke-opacity="0.6" stroke-width="1.0"/>
    <path d="M199.8 1.8 L199.8 10.0 -330.35 9.75 -330.35 2.05 199.8 1.8" fill="#333333" fill-opacity="0.4" fill-rule="evenodd" stroke="none"/>
    <path d="M199.8 1.8 L-330.35 2.05 -330.35 9.75 199.8 10.0 199.8 1.8 Z" fill="none" stroke="#000000" stroke-linecap="butt" stroke-linejoin="miter-clip" stroke-miterlimit="10.0" stroke-opacity="0.6" stroke-width="1.0"/>
    <path d="M199.8 24.0 L199.8 32.4 -169.85 32.05 -169.85 24.3 199.8 24.0" fill="#333333" fill-opacity="0.4" fill-rule="evenodd" stroke="none"/>
    <path d="M199.8 24.0 L-169.85 24.3 -169.85 32.05 199.8 32.4 199.8 24.0 Z" fill="none" stroke="#000000" stroke-linecap="butt" stroke-linejoin="miter-clip" stroke-miterlimit="10.0" stroke-opacity="0.6" stroke-width="1.0"/>
    <path d="M-242.4 24.3 L-242.4 32.05 -330.45 32.05 -330.45 24.3 -242.4 24.3" fill="#333333" fill-opacity="0.4" fill-rule="evenodd" stroke="none"/>
    <path d="M-242.4 24.3 L-330.45 24.3 -330.45 32.05 -242.4 32.05 -242.4 24.3 Z" fill="none" stroke="#000000" stroke-linecap="butt" stroke-linejoin="miter-clip" stroke-miterlimit="10.0" stroke-opacity="0.6" stroke-width="1.0"/>
    <path d="M298.8 22.4 Q293.35 15.5 283.05 10.1 262.35 -0.65 237.85 6.9 231.2 9.55 224.6 16.0 211.45 28.8 211.75 47.55" fill="none" stroke="#000000" stroke-linecap="butt" stroke-linejoin="miter-clip" stroke-miterlimit="10.0" stroke-opacity="0.6" stroke-width="1.0"/>
    <path d="M130.75 -73.25 L130.75 -69.65 -314.2 -69.65 -314.2 -73.25 130.75 -73.25" fill="#ffffff" fill-opacity="0.8" fill-rule="evenodd" stroke="none"/>
    <path d="M229.15 -27.5 L257.25 -25.3 Q299.9 -20.4 312.1 -9.05 L304.15 -6.15 Q295.25 -10.85 279.1 -14.95 246.85 -23.1 210.55 -19.95 L211.95 -22.75 Q213.95 -26.1 216.9 -28.95 L217.05 -27.9 229.15 -27.5" fill="#ffffff" fill-opacity="0.8" fill-rule="evenodd" stroke="none"/>
    <path d="M67.6 52.6 L67.6 33.05 118.4 33.05 118.4 52.6 118.4 64.95 67.6 64.95 67.6 52.6" fill="#000000" fill-opacity="0.2" fill-rule="evenodd" stroke="none"/>
    <path d="M132.2 -30.9 L132.2 -67.45 83.15 -67.45 83.15 -30.9 132.2 -30.9 M26.5 -67.45 L26.5 -30.9 75.5 -30.9 75.5 -67.45 26.5 -67.45 M19.2 -30.9 L19.2 -67.45 -29.85 -67.45 -29.85 -30.9 19.2 -30.9 M67.6 52.6 L-163.8 52.6 Q-167.4 37.65 -179.4 28.4 -183.15 25.5 -187.25 23.55 L-190.65 22.15 Q-217.85 14.45 -235.75 32.5 -244.65 41.55 -248.15 52.15 L-330.75 52.15 -329.95 -68.55 Q-329.85 -91.65 -309.6 -99.45 -303.25 -101.9 -295.65 -102.5 L209.1 -102.65 209.8 -76.5 217.05 -27.9 229.15 -27.5 257.25 -25.3 Q299.9 -20.4 312.1 -9.05 L312.1 40.3 294.0 40.3 Q293.65 33.6 288.45 26.9 278.1 13.45 254.05 13.45 230.0 13.45 222.25 33.05 218.35 42.8 219.25 52.6 L118.4 52.6 118.4 33.05 67.6 33.05 67.6 52.6 M-142.85 -67.45 L-142.85 -30.9 -93.8 -30.9 -93.8 -67.45 -142.85 -67.45 M-86.2 -67.45 L-86.2 -30.9 -37.15 -30.9 -37.15 -67.45 -86.2 -67.45 M-199.85 -67.45 L-199.85 -30.9 -150.8 -30.9 -150.8 -67.45 -199.85 -67.45 M-308.7 -66.75 L-308.7 -30.25 -211.8 -30.25 -211.8 -66.75 -308.7 -66.75" fill="#ffffff" fill-opacity="0.0" fill-rule="evenodd" stroke="none"/>
    <path d="M118.4 52.6 L219.25 52.6 Q218.35 42.8 222.25 33.05 230.0 13.45 254.05 13.45 278.1 13.45 288.45 26.9 293.65 33.6 294.0 40.3 L312.1 40.3 312.1 -9.05 Q299.9 -20.4 257.25 -25.3 L229.15 -27.5 217.05 -27.9 209.8 -76.5 209.1 -102.65 -295.65 -102.5 Q-303.25 -101.9 -309.6 -99.45 -329.85 -91.65 -329.95 -68.55 L-330.75 52.15 -248.15 52.15 Q-244.65 41.55 -235.75 32.5 -217.85 14.45 -190.65 22.15 L-187.25 23.55 Q-183.15 25.5 -179.4 28.4 -167.4 37.65 -163.8 52.6 L67.6 52.6 67.6 33.05 118.4 33.05 118.4 52.6 118.4 64.95 67.6 64.95 67.6 52.6" fill="none" stroke="#000000" stroke-linecap="butt" stroke-linejoin="miter-clip" stroke-miterlimit="10.0" stroke-width="1.0"/>
    <path d="M205.45 -99.0 L205.45 -94.65 -292.25 -94.65 -292.25 -99.0 205.45 -99.0" fill="#ffffff" fill-opacity="0.8" fill-rule="evenodd" stroke="none"/>
    <path d="M141.7 -75.95 L141.7 -78.55 198.7 -78.55 198.7 -75.95 141.7 -75.95" fill="#ffffff" fill-opacity="0.8" fill-rule="evenodd" stroke="none"/>
  </g>
</svg>
