<?xml version="1.0" encoding="UTF-8" standalone="no"?>
<svg xmlns:xlink="http://www.w3.org/1999/xlink" height="32.2px" width="43.25px" xmlns="http://www.w3.org/2000/svg">
  <g transform="matrix(1.0, 0.0, 0.0, 1.0, 21.65, 16.1)">
    <path d="M21.6 16.1 L-21.65 16.1 -21.65 1.2 21.6 1.2 21.6 16.1" fill="#ffffff" fill-opacity="0.0" fill-rule="evenodd" stroke="none"/>
    <path d="M21.6 -0.95 L-21.65 -0.95 -21.65 -16.1 21.6 -16.1 21.6 -0.95" fill="#ffffff" fill-opacity="0.0" fill-rule="evenodd" stroke="none"/>
    <path d="M7.05 1.2 L12.0 1.2 21.45 16.1 16.5 16.1 7.05 1.2" fill="#ffffff" fill-opacity="0.8" fill-rule="evenodd" stroke="none"/>
    <path d="M10.6 -0.95 L5.7 -0.95 -3.95 -16.1 0.9 -16.1 10.6 -0.95" fill="#ffffff" fill-opacity="0.8" fill-rule="evenodd" stroke="none"/>
    <path d="M9.7 16.1 L8.05 16.1 -1.05 1.2 1.2 1.2 9.7 16.1" fill="#ffffff" fill-opacity="0.8" fill-rule="evenodd" stroke="none"/>
    <path d="M-0.05 -0.95 L-2.35 -0.95 -11.6 -16.1 -8.75 -16.1 -0.05 -0.95" fill="#ffffff" fill-opacity="0.8" fill-rule="evenodd" stroke="none"/>
  </g>
</svg>
