<?xml version="1.0" encoding="UTF-8" standalone="no"?>
<svg xmlns:xlink="http://www.w3.org/1999/xlink" height="40.0px" width="40.0px" xmlns="http://www.w3.org/2000/svg">
  <g transform="matrix(1.0, 0.0, 0.0, 1.0, 20.0, 20.0)">
    <path d="M19.5 0.0 Q19.5 8.0 13.75 13.75 8.0 19.5 0.0 19.5 -8.0 19.5 -13.75 13.75 -19.5 8.0 -19.5 0.0 -19.5 -8.0 -13.75 -13.75 -8.0 -19.5 0.0 -19.5 8.0 -19.5 13.75 -13.75 19.5 -8.0 19.5 0.0" fill="#ffffff" fill-opacity="0.49803922" fill-rule="evenodd" stroke="none"/>
    <path d="M19.5 0.0 Q19.5 8.0 13.75 13.75 8.0 19.5 0.0 19.5 -8.0 19.5 -13.75 13.75 -19.5 8.0 -19.5 0.0 -19.5 -8.0 -13.75 -13.75 -8.0 -19.5 0.0 -19.5 8.0 -19.5 13.75 -13.75 19.5 -8.0 19.5 0.0 Z" fill="none" stroke="#000000" stroke-linecap="butt" stroke-linejoin="miter-clip" stroke-miterlimit="4.0" stroke-opacity="0.4" stroke-width="1.0"/>
  </g>
</svg>
