<?xml version="1.0" encoding="UTF-8" standalone="no"?>
<svg xmlns:xlink="http://www.w3.org/1999/xlink" height="60.2px" width="60.15px" xmlns="http://www.w3.org/2000/svg">
  <g transform="matrix(1.0, 0.0, 0.0, 1.0, 30.05, 30.1)">
    <path d="M27.75 10.0 Q23.65 21.5 12.6 26.7 1.5 31.9 -9.95 27.75 -21.5 23.65 -26.7 12.55 -31.85 1.5 -27.75 -9.95 -23.6 -21.5 -12.55 -26.7 -1.5 -31.9 10.0 -27.75 21.5 -23.6 26.7 -12.6 31.9 -1.5 27.75 10.0" fill="#ffffff" fill-opacity="0.0" fill-rule="evenodd" stroke="none"/>
    <path d="M27.75 10.0 Q23.65 21.5 12.6 26.7 1.5 31.9 -9.95 27.75 -21.5 23.65 -26.7 12.55 -31.85 1.5 -27.75 -9.95 -23.6 -21.5 -12.55 -26.7 -1.5 -31.9 10.0 -27.75 21.5 -23.6 26.7 -12.6 31.9 -1.5 27.75 10.0 Z" fill="none" stroke="#000000" stroke-linecap="butt" stroke-linejoin="miter-clip" stroke-miterlimit="4.0" stroke-width="1.0"/>
    <path d="M-13.8 -17.0 Q-18.05 -5.9 -14.15 5.95 -11.55 13.75 -6.8 20.25 -3.2 25.3 1.5 29.25 -7.45 29.75 -15.05 25.2 -22.7 20.65 -26.55 12.5 -31.7 1.5 -27.55 -9.9 -23.45 -21.35 -12.5 -26.55 -9.55 -27.9 -6.5 -28.55 -11.2 -23.7 -13.8 -17.0" fill="#000000" fill-opacity="0.14901961" fill-rule="evenodd" stroke="none"/>
    <path d="M22.2 -8.1 Q15.55 -21.6 1.5 -26.4 7.95 -26.25 14.25 -22.35 26.85 -14.5 26.1 4.45 25.55 -1.35 22.2 -8.1" fill="#ffffff" fill-opacity="0.49803922" fill-rule="evenodd" stroke="none"/>
  </g>
</svg>
