<?xml version="1.0" encoding="UTF-8" standalone="no"?>
<svg xmlns:xlink="http://www.w3.org/1999/xlink" height="372.3px" width="243.95px" xmlns="http://www.w3.org/2000/svg">
  <g transform="matrix(1.0, 0.0, 0.0, 1.0, 122.0, 186.15)">
    <path d="M-115.85 -62.1 Q-119.4 -62.65 -120.85 -65.9 -123.8 -72.4 -113.45 -85.7 L-98.25 -105.9 Q-87.1 -120.45 -77.0 -131.3 -47.4 -163.1 -15.85 -175.1 17.35 -187.7 52.25 -185.25 65.9 -184.25 75.05 -181.2 83.85 -178.35 84.25 -175.1 84.95 -169.95 82.3 -165.55 L79.5 -162.15 Q53.95 -164.8 28.35 -161.85 -22.85 -156.0 -22.85 -128.0 L-15.85 -115.05 Q-20.25 -115.9 -24.05 -114.85 -31.65 -112.85 -28.8 -103.3 L-25.0 -91.25 Q-23.05 -84.15 -23.9 -79.6 -26.15 -67.15 -49.95 -65.65 -62.05 -64.85 -85.8 -66.4 -91.5 -66.75 -94.25 -65.8 -97.55 -64.7 -100.55 -61.0 -103.5 -61.0 -105.35 -62.15 -109.25 -64.55 -104.1 -70.35 -95.9 -79.75 -115.85 -62.1 M112.85 -19.75 L115.3 -1.5 Q117.85 18.15 118.35 25.0 L120.7 54.45 Q122.25 76.6 120.7 81.5 118.75 87.85 99.8 114.25 80.3 141.4 73.6 145.8 67.75 149.7 63.0 159.15 L59.45 167.8 50.85 182.7 Q46.2 184.05 41.35 185.0 31.8 186.65 31.3 184.2 30.8 181.75 37.2 174.15 L43.8 166.95 Q43.8 161.7 44.5 155.85 45.85 144.35 49.3 141.9 52.8 139.45 72.15 106.3 81.9 89.7 90.85 73.65 90.5 69.5 88.65 63.75 84.95 52.15 77.55 43.85 69.45 34.65 61.4 23.45 55.65 15.4 47.3 2.5 46.0 0.45 36.85 -10.05 31.7 -15.95 30.1 -24.45 L112.85 -19.75 M37.3 185.25 L47.9 171.15 49.05 154.65 47.9 171.15 37.3 185.25" fill="#ffffff" fill-opacity="0.0" fill-rule="evenodd" stroke="none"/>
    <path d="M-115.85 -62.1 Q-119.4 -62.65 -120.85 -65.9 -123.8 -72.4 -113.45 -85.7 L-98.25 -105.9 Q-87.1 -120.45 -77.0 -131.3 -47.4 -163.1 -15.85 -175.1 17.35 -187.7 52.25 -185.25 65.9 -184.25 75.05 -181.2 83.85 -178.35 84.25 -175.1 84.95 -169.95 82.3 -165.55 L79.5 -162.15 Q53.95 -164.8 28.35 -161.85 -22.85 -156.0 -22.85 -128.0 L-15.85 -115.05 Q-20.25 -115.9 -24.05 -114.85 -31.65 -112.85 -28.8 -103.3 L-25.0 -91.25 Q-23.05 -84.15 -23.9 -79.6 -26.15 -67.15 -49.95 -65.65 -62.05 -64.85 -85.8 -66.4 -91.5 -66.75 -94.25 -65.8 -97.55 -64.7 -100.55 -61.0 -103.5 -61.0 -105.35 -62.15 -109.25 -64.55 -104.1 -70.35 -95.9 -79.75 -115.85 -62.1 M30.1 -24.45 Q31.7 -15.95 36.85 -10.05 46.0 0.45 47.3 2.5 55.65 15.4 61.4 23.45 69.45 34.65 77.55 43.85 84.95 52.15 88.65 63.75 90.5 69.5 90.85 73.65 81.9 89.7 72.15 106.3 52.8 139.45 49.3 141.9 45.85 144.35 44.5 155.85 43.8 161.7 43.8 166.95 L37.2 174.15 Q30.8 181.75 31.3 184.2 31.8 186.65 41.35 185.0 46.2 184.05 50.85 182.7 L59.45 167.8 63.0 159.15 Q67.75 149.7 73.6 145.8 80.3 141.4 99.8 114.25 118.75 87.85 120.7 81.5 122.25 76.6 120.7 54.45 L118.35 25.0 Q117.85 18.15 115.3 -1.5 L112.85 -19.75" fill="none" stroke="#000000" stroke-linecap="butt" stroke-linejoin="miter-clip" stroke-miterlimit="4.0" stroke-width="1.0"/>
    <path d="M49.05 154.65 L47.9 171.15 37.3 185.25" fill="none" stroke="#000000" stroke-linecap="butt" stroke-linejoin="miter-clip" stroke-miterlimit="4.0" stroke-opacity="0.6" stroke-width="1.0"/>
  </g>
</svg>
