<?xml version="1.0" encoding="UTF-8" standalone="no"?>
<svg xmlns:xlink="http://www.w3.org/1999/xlink" height="342.9px" width="615.4px" xmlns="http://www.w3.org/2000/svg">
  <g transform="matrix(1.0, 0.0, 0.0, 1.0, 307.05, 170.9)">
    <path d="M-20.15 -33.25 L-19.35 -34.1 -21.05 -31.3 -20.15 -33.25 M115.05 163.2 L115.1 162.85 115.0 163.8 115.05 163.2" fill="#9c7d29" fill-rule="evenodd" stroke="none"/>
    <path d="M-139.25 2.85 L-139.6 2.5 -139.85 2.3 -138.05 3.45 -139.25 2.85" fill="#bd9637" fill-rule="evenodd" stroke="none"/>
    <path d="M159.85 -92.0 L154.4 -90.8 Q134.65 -86.8 130.55 -85.45 125.95 -83.85 118.05 -80.0 108.9 -75.6 105.45 -74.3 98.0 -71.35 79.8 -63.6 63.65 -56.75 54.4 -53.2 29.1 -43.55 1.7 -35.65 -6.4 -33.25 -23.45 -22.85 L-26.45 -21.05 Q-23.75 -25.55 -21.05 -31.3 -23.75 -25.55 -26.45 -21.05 -29.6 -15.85 -32.7 -12.35 L-32.8 -12.2 Q-40.7 -3.4 -54.15 2.35 -58.1 4.05 -62.6 5.5 L-63.65 5.85 Q-61.55 8.9 -55.15 15.7 -51.35 19.75 -48.95 23.5 L-47.3 26.3 Q-43.5 33.55 -26.5 45.1 -9.65 56.45 -9.15 57.5 -7.9 59.95 -10.4 64.45 L-14.7 71.05 Q-16.0 73.4 -22.7 75.4 -27.0 76.75 -38.35 79.05 -45.3 80.55 -61.05 82.2 L-78.05 84.1 Q-80.9 84.75 -80.7 87.25 -80.7 88.7 -80.05 91.15 -80.05 92.1 -81.65 92.3 -83.75 92.6 -85.1 94.2 -86.45 95.85 -87.75 100.25 -89.3 104.9 -90.15 106.25 -89.3 103.45 -90.45 103.1 L-91.8 103.4 -93.1 104.35 -93.7 102.7 -94.0 105.35 Q-94.95 106.65 -94.7 108.25 -95.25 109.9 -96.15 110.8 -96.85 108.05 -98.45 108.35 L-99.9 109.1 Q-101.25 109.85 -102.15 110.85 L-102.2 110.8 -102.2 110.9 Q-104.4 113.5 -103.2 117.65 L-103.25 117.9 Q-106.3 118.35 -109.25 115.8 -108.55 114.45 -108.5 113.2 -108.2 110.7 -110.95 111.1 L-111.3 111.25 -111.25 109.3 Q-106.95 106.9 -104.0 100.9 -100.85 94.5 -101.25 87.65 -101.5 81.45 -98.95 77.05 -96.85 73.5 -95.2 73.5 L-82.9 71.15 Q-68.7 68.65 -55.45 68.0 -41.2 67.3 -32.45 64.15 -25.85 61.7 -25.2 59.5 -24.6 57.0 -38.75 47.65 -54.95 36.9 -70.05 34.3 L-70.6 34.2 -70.75 34.2 -74.05 33.45 -74.55 33.3 -73.85 33.45 Q-82.15 31.1 -87.95 27.7 L-88.6 27.3 -89.3 26.85 -90.3 26.25 -90.55 26.1 -91.3 25.55 -94.8 23.05 -97.05 21.25 -106.75 11.1 Q-112.7 5.5 -116.1 -0.35 L-118.3 -4.9 -118.3 -5.0 Q-118.65 -6.4 -118.6 -8.05 -118.5 -11.0 -117.25 -14.75 -131.0 -15.3 -136.95 -14.85 -155.7 -13.35 -149.35 -5.4 -145.4 -2.65 -139.85 2.3 L-139.6 2.5 -139.25 2.85 Q-131.55 9.75 -120.9 20.75 -121.35 26.3 -122.9 28.3 -123.75 29.5 -137.05 32.8 L-141.45 33.9 -161.05 38.3 -162.7 39.4 -166.1 41.85 -166.7 42.8 Q-167.45 44.7 -167.15 49.75 -166.7 56.55 -165.15 58.45 -163.9 60.05 -158.55 60.15 -155.5 60.25 -149.05 59.95 -145.85 59.95 -141.45 56.8 L-139.95 55.65 -139.2 55.05 -135.9 51.85 -135.5 51.4 -133.65 52.6 -133.6 52.65 -133.85 52.8 -135.4 52.7 Q-136.65 53.95 -135.1 55.6 L-134.4 56.3 Q-136.05 57.5 -139.5 59.5 L-143.95 61.95 -138.9 59.95 -137.35 61.55 -139.7 62.05 Q-140.0 63.8 -139.05 64.55 L-141.45 65.25 -144.45 66.0 Q-147.2 66.75 -155.7 66.0 L-168.1 64.45 Q-171.55 63.9 -172.5 53.75 L-172.7 43.85 Q-173.85 41.85 -174.3 39.75 -175.25 35.45 -172.2 34.8 L-169.85 34.15 Q-162.0 31.4 -135.5 19.2 -139.95 16.15 -142.45 13.7 L-144.25 12.4 Q-146.85 10.9 -152.2 8.9 -160.0 6.15 -163.15 6.15 -165.65 6.15 -169.15 3.65 L-172.2 1.1 Q-182.25 -0.9 -187.3 -2.9 L-188.15 -3.5 Q-190.65 -6.15 -192.45 -17.75 L-192.7 -16.65 -193.75 -20.35 -195.6 -22.65 Q-197.9 -25.15 -199.3 -25.5 -200.15 -25.7 -201.8 -26.85 L-203.1 -28.0 -205.8 -28.4 Q-206.45 -28.5 -207.5 -29.65 L-208.45 -30.65 Q-230.5 -38.7 -241.5 -59.7 -246.75 -69.8 -250.75 -88.9 -251.9 -94.5 -254.25 -111.95 -256.15 -126.65 -257.3 -129.35 -258.55 -132.4 -262.2 -136.85 L-266.3 -141.55 Q-267.55 -143.05 -273.35 -144.0 -274.7 -144.3 -275.9 -146.05 L-276.8 -147.75 -280.0 -148.1 -287.85 -147.85 Q-293.2 -147.15 -294.45 -146.5 L-296.7 -145.25 Q-298.05 -144.6 -299.4 -144.5 -300.65 -144.3 -303.0 -146.2 L-305.1 -148.1 Q-306.0 -148.1 -306.35 -148.7 L-306.55 -149.35 -305.7 -152.05 Q-304.45 -155.0 -302.65 -156.15 L-295.95 -159.75 -289.1 -162.9 -287.2 -163.8 -282.05 -166.65 -275.55 -170.05 Q-273.35 -171.1 -268.6 -169.1 L-265.15 -169.55 Q-258.5 -169.9 -252.55 -165.6 -240.35 -156.35 -237.85 -147.75 -236.7 -143.95 -235.1 -130.1 -232.9 -111.7 -230.05 -95.45 -226.6 -76.1 -208.75 -66.25 -199.9 -61.4 -191.7 -60.35 L-187.55 -60.55 -183.1 -60.35 -183.3 -59.6 Q-172.4 -65.2 -160.95 -70.25 -142.55 -78.4 -134.9 -78.95 L-111.15 -80.2 -88.15 -81.45 -72.2 -83.15 -57.45 -84.95 Q-49.7 -85.75 -36.45 -83.35 -24.5 -81.35 -16.1 -78.4 -6.1 -74.95 2.5 -73.4 L10.5 -72.2 31.6 -70.55 Q66.7 -69.6 96.55 -79.45 104.5 -82.0 173.75 -106.7 220.0 -123.2 238.45 -126.75 301.2 -138.85 306.35 -136.3 307.6 -135.7 300.75 -134.6 L281.1 -131.35 Q247.95 -125.4 223.35 -115.85 L220.3 -114.65 218.05 -113.7 212.15 -111.7 195.05 -105.95 Q186.6 -103.3 159.85 -92.0 M-264.65 -156.9 L-265.45 -155.65 Q-266.1 -154.9 -266.65 -154.7 L-267.6 -154.8 -269.7 -155.75 -272.2 -155.65 -275.25 -154.6 -287.65 -152.4 -296.25 -150.3 Q-298.35 -149.75 -302.25 -148.2 L-304.35 -147.95 -305.1 -148.1 -304.35 -147.95 -302.25 -148.2 Q-298.35 -149.75 -296.25 -150.3 L-287.65 -152.4 -275.25 -154.6 -272.2 -155.65 -269.7 -155.75 -267.6 -154.8 -266.65 -154.7 Q-266.1 -154.9 -265.45 -155.65 L-264.65 -156.9 M-302.0 -150.65 Q-300.75 -149.6 -300.2 -152.35 L-297.45 -154.05 -300.0 -153.85 Q-301.55 -153.6 -301.9 -152.05 L-302.0 -150.65 M-194.15 -33.65 L-192.65 -19.05 -192.45 -17.8 -192.45 -17.75 -192.45 -17.8 -192.65 -19.05 -194.15 -33.65 M-257.8 -145.75 Q-252.0 -145.15 -248.95 -136.7 -246.65 -130.2 -244.95 -115.05 L-241.9 -87.85 Q-239.3 -71.8 -234.85 -61.8 -225.95 -42.5 -208.0 -40.9 -199.05 -40.05 -191.9 -43.1 -226.6 -43.85 -238.45 -79.05 -242.35 -90.8 -244.0 -107.2 L-245.5 -128.3 Q-246.75 -140.05 -252.65 -144.05 -254.5 -145.4 -256.6 -145.65 L-257.8 -145.75 M-163.15 -15.05 L-149.5 -5.5 -149.35 -5.4 -149.5 -5.5 -163.15 -15.05 M-91.7 -53.75 Q-99.2 -45.35 -106.3 -35.05 -114.55 -23.0 -117.25 -14.75 -114.55 -23.0 -106.3 -35.05 -99.2 -45.35 -91.7 -53.75 M-20.15 -33.25 Q-26.4 -26.9 -33.3 -23.25 -42.15 -18.35 -49.6 -19.5 -57.75 -20.75 -59.05 -21.45 -60.3 -22.0 -61.25 -24.0 -62.1 -25.7 -63.75 -26.3 -69.2 -26.1 -71.85 -26.3 -76.8 -26.5 -75.85 -32.2 -80.25 -31.15 -82.9 -33.55 -85.95 -36.2 -88.55 -36.2 -90.45 -36.1 -92.85 -34.0 L-96.65 -30.7 Q-98.65 -29.45 -102.0 -28.85 -105.55 -28.3 -106.95 -27.45 -110.5 -25.45 -112.5 -18.45 -114.05 -13.2 -114.05 -7.9 -113.85 -12.95 -104.6 -18.0 -95.9 -22.75 -90.65 -22.3 -89.5 -22.1 -87.6 -20.85 -85.6 -19.6 -84.55 -19.5 -83.3 -19.4 -81.1 -20.2 -78.9 -21.05 -77.75 -20.95 -74.45 -20.55 -73.0 -18.0 -71.45 -14.95 -69.75 -14.15 L-64.8 -14.35 Q-62.7 -15.2 -60.2 -12.25 -58.0 -9.6 -56.6 -6.65 -55.45 -5.2 -50.95 -6.85 -48.3 -7.8 -44.35 -10.45 L-38.15 -14.85 Q-31.75 -19.15 -27.55 -23.35 -23.9 -27.0 -21.05 -31.3 L-19.35 -34.1 -20.15 -33.25 Q-17.85 -38.35 -15.55 -44.3 -17.85 -38.35 -20.15 -33.25 M-87.5 81.6 Q-90.15 97.75 -93.7 102.7 -90.15 97.75 -87.5 81.6 M-101.9 108.8 Q-98.25 104.45 -96.05 91.75 L-94.55 79.9 -96.05 91.75 Q-98.25 104.45 -101.9 108.8" fill="#ffffff" fill-opacity="0.0" fill-rule="evenodd" stroke="none"/>
    <path d="M-26.45 -21.05 L-23.45 -22.85 Q-6.4 -33.25 1.7 -35.65 29.1 -43.55 54.4 -53.2 63.65 -56.75 79.8 -63.6 98.0 -71.35 105.45 -74.3 108.9 -75.6 118.05 -80.0 125.95 -83.85 130.55 -85.45 134.65 -86.8 154.4 -90.8 L159.85 -92.0 Q138.65 -83.05 105.9 -68.65 L92.45 -62.75 Q72.35 -53.95 38.95 -40.5 10.1 -28.85 8.95 -28.6 -25.6 -0.95 -54.15 2.35 -40.7 -3.4 -32.8 -12.2 L-32.7 -12.35 Q-29.6 -15.85 -26.45 -21.05 M-302.0 -150.65 L-301.9 -152.05 Q-301.55 -153.6 -300.0 -153.85 L-297.45 -154.05 -300.2 -152.35 Q-300.75 -149.6 -302.0 -150.65 M-257.8 -145.75 L-256.6 -145.65 Q-254.5 -145.4 -252.65 -144.05 -246.75 -140.05 -245.5 -128.3 L-244.0 -107.2 Q-242.35 -90.8 -238.45 -79.05 -226.6 -43.85 -191.9 -43.1 -199.05 -40.05 -208.0 -40.9 -225.95 -42.5 -234.85 -61.8 -239.3 -71.8 -241.9 -87.85 L-244.95 -115.05 Q-246.65 -130.2 -248.95 -136.7 -252.0 -145.15 -257.8 -145.75 M-144.25 12.4 L-142.45 13.7 Q-139.95 16.15 -135.5 19.2 -162.0 31.4 -169.85 34.15 -171.25 28.3 -168.7 27.25 -162.6 24.95 -144.25 12.4 M-133.6 52.65 L-133.65 52.6 -135.5 51.4 -135.9 51.85 -139.2 55.05 -141.45 54.95 -142.45 54.9 -160.55 54.9 Q-164.0 48.95 -166.7 42.8 L-166.1 41.85 -162.7 39.4 -161.55 43.35 Q-159.45 49.2 -157.6 50.4 -154.55 52.45 -143.5 48.9 L-135.5 44.3 Q-132.45 43.35 -130.4 35.35 -128.5 38.5 -131.3 44.2 L-132.25 46.15 -132.35 45.95 -132.35 46.3 -134.45 49.35 Q-133.4 49.15 -132.45 48.6 -132.7 51.65 -133.6 52.65 M-139.85 2.3 Q-145.4 -2.65 -149.35 -5.4 -155.7 -13.35 -136.95 -14.85 -131.0 -15.3 -117.25 -14.75 -118.5 -11.0 -118.6 -8.05 L-125.55 -8.05 Q-136.65 -8.05 -140.1 -6.35 L-140.75 -5.5 Q-141.25 -2.9 -135.5 4.75 -136.75 4.05 -138.05 3.45 L-139.85 2.3 M-21.05 -31.3 Q-23.9 -27.0 -27.55 -23.35 -31.75 -19.15 -38.15 -14.85 L-44.35 -10.45 Q-48.3 -7.8 -50.95 -6.85 -55.45 -5.2 -56.6 -6.65 -58.0 -9.6 -60.2 -12.25 -62.7 -15.2 -64.8 -14.35 L-69.75 -14.15 Q-71.45 -14.95 -73.0 -18.0 -74.45 -20.55 -77.75 -20.95 -78.9 -21.05 -81.1 -20.2 -83.3 -19.4 -84.55 -19.5 -85.6 -19.6 -87.6 -20.85 -89.5 -22.1 -90.65 -22.3 -95.9 -22.75 -104.6 -18.0 -113.85 -12.95 -114.05 -7.9 -114.05 -13.2 -112.5 -18.45 -110.5 -25.45 -106.95 -27.45 -105.55 -28.3 -102.0 -28.85 -98.65 -29.45 -96.65 -30.7 L-92.85 -34.0 Q-90.45 -36.1 -88.55 -36.2 -85.95 -36.2 -82.9 -33.55 -80.25 -31.15 -75.85 -32.2 -76.8 -26.5 -71.85 -26.3 -69.2 -26.1 -63.75 -26.3 -62.1 -25.7 -61.25 -24.0 -60.3 -22.0 -59.05 -21.45 -57.75 -20.75 -49.6 -19.5 -42.15 -18.35 -33.3 -23.25 -26.4 -26.9 -20.15 -33.25 L-21.05 -31.3 M-48.95 23.5 Q-42.0 20.45 -34.05 18.45 L-20.25 15.4 Q-6.6 12.85 -1.35 10.15 L1.05 8.7 Q0.85 15.75 2.1 16.85 3.35 17.9 8.95 21.05 14.6 24.75 16.9 29.25 19.75 34.95 26.15 42.05 32.65 49.2 37.0 51.4 L49.45 57.6 Q58.85 61.8 67.15 63.5 75.55 65.2 84.25 73.05 86.65 75.25 97.05 86.7 100.4 90.3 111.35 107.5 120.9 122.65 123.25 123.5 127.55 125.25 130.25 125.9 L137.3 147.35 137.0 147.55 132.6 150.4 132.55 150.75 132.45 151.05 132.3 151.6 Q130.05 160.0 127.9 162.9 L126.6 164.15 Q120.9 167.8 119.15 168.45 L118.8 168.6 116.2 169.0 Q114.5 168.9 114.5 168.15 L114.9 164.45 115.0 163.8 115.1 162.85 115.15 162.45 115.15 162.15 119.25 158.25 Q123.35 153.75 123.55 151.1 123.85 148.3 123.75 145.75 L123.55 143.65 Q113.85 133.6 111.45 129.6 109.9 126.75 99.05 113.6 L81.3 92.7 Q72.25 82.2 64.7 76.65 53.6 68.35 41.05 66.15 L11.75 61.4 Q-4.75 58.8 -9.15 57.5 -9.65 56.45 -26.5 45.1 -43.5 33.55 -47.3 26.3 L-48.95 23.5 M-131.5 47.9 Q-130.25 46.75 -129.3 44.8 -128.25 42.8 -127.85 40.9 L-127.85 47.35 Q-127.85 48.95 -130.1 51.85 L-130.35 50.5 -131.5 47.9" fill="#000000" fill-opacity="0.2" fill-rule="evenodd" stroke="none"/>
    <path d="M159.85 -92.0 Q186.6 -103.3 195.05 -105.95 L212.15 -111.7 218.05 -113.7 218.55 -113.9 218.05 -113.7 Q187.2 -101.15 139.85 -77.3 92.45 -53.4 73.0 -40.6 66.5 -36.3 58.2 -32.9 53.05 -30.8 44.0 -27.8 29.85 -23.05 24.25 -19.7 15.0 -14.0 11.0 -4.25 7.55 4.25 1.05 8.7 L-1.35 10.15 Q-6.6 12.85 -20.25 15.4 L-34.05 18.45 Q-42.0 20.45 -48.95 23.5 -51.35 19.75 -55.15 15.7 -61.55 8.9 -63.65 5.85 L-62.6 5.5 Q-58.1 4.05 -54.15 2.35 -25.6 -0.95 8.95 -28.6 10.1 -28.85 38.95 -40.5 72.35 -53.95 92.45 -62.75 L105.9 -68.65 Q138.65 -83.05 159.85 -92.0 M-135.5 4.75 Q-141.25 -2.9 -140.75 -5.5 L-140.1 -6.35 Q-136.65 -8.05 -125.55 -8.05 L-118.6 -8.05 Q-118.65 -6.4 -118.3 -5.0 L-118.3 -4.9 -116.1 -0.35 Q-112.7 5.5 -106.75 11.1 L-97.05 21.25 -94.8 23.05 -91.3 25.55 -90.55 26.1 -90.3 26.25 -89.3 26.85 -88.6 27.3 -87.95 27.7 Q-82.15 31.1 -73.85 33.45 L-74.55 33.3 -81.2 34.1 Q-87.4 34.1 -94.65 30.75 -101.8 27.35 -113.85 18.75 -124.25 11.5 -134.35 6.25 L-135.5 4.75" fill="#ffffff" fill-opacity="0.8" fill-rule="evenodd" stroke="none"/>
    <path d="M-139.05 64.55 Q-140.0 63.8 -139.7 62.05 L-137.35 61.55 -137.1 61.5 Q-134.35 60.25 -132.4 56.55 L-133.4 57.0 -134.4 56.3 -135.1 55.6 Q-136.65 53.95 -135.4 52.7 L-133.85 52.8 -133.6 52.65 Q-132.7 51.65 -132.45 48.6 L-132.35 46.3 -132.35 45.95 -132.25 46.15 -131.5 47.9 -130.35 50.5 -130.1 51.85 Q-129.85 54.9 -132.05 56.35 L-131.0 59.8 Q-130.8 63.7 -135.2 64.85 L-137.7 65.05 Q-138.55 64.95 -139.05 64.55 M-111.3 111.25 L-110.95 111.1 Q-108.2 110.7 -108.5 113.2 -108.55 114.45 -109.25 115.8 -115.35 116.15 -116.6 121.4 -117.25 124.1 -116.7 126.55 -119.65 119.0 -115.55 114.25 -113.7 112.1 -111.3 111.25 M-103.2 117.65 Q-104.4 113.5 -102.2 110.9 L-102.15 110.85 Q-101.25 109.85 -99.9 109.1 L-98.45 108.35 Q-96.85 108.05 -96.15 110.8 L-99.3 114.45 Q-101.9 119.2 -99.2 124.85 -101.5 122.1 -102.85 118.75 L-103.2 117.65 M-94.7 108.25 Q-94.95 106.65 -94.0 105.35 L-93.1 104.35 -91.8 103.4 -90.45 103.1 Q-89.3 103.45 -90.15 106.25 L-91.4 108.9 Q-92.15 112.15 -89.5 115.1 -91.95 113.4 -93.5 111.0 -94.5 109.55 -94.7 108.25 M137.0 147.55 L138.1 148.5 Q138.35 153.45 141.05 156.8 142.4 158.5 143.6 159.15 137.7 159.55 133.8 153.8 L132.45 151.05 132.55 150.75 132.6 150.4 137.0 147.55 M118.8 168.6 Q118.5 169.0 117.95 169.2 L115.3 169.3 Q111.25 165.0 108.0 167.25 L105.55 170.4 Q106.2 162.1 112.3 162.6 L115.05 163.2 115.0 163.8 114.9 164.45 114.5 168.15 Q114.5 168.9 116.2 169.0 L118.8 168.6 M-132.05 56.35 L-132.15 56.05 -132.4 56.55 -132.15 56.05 -132.05 56.35 M-130.35 50.5 L-132.35 46.3 -130.35 50.5" fill="#000000" fill-opacity="0.6" fill-rule="evenodd" stroke="none"/>
    <path d="M218.05 -113.7 L220.3 -114.65 223.35 -115.85 Q247.95 -125.4 281.1 -131.35 L300.75 -134.6 Q307.6 -135.7 306.35 -136.3 301.2 -138.85 238.45 -126.75 220.0 -123.2 173.75 -106.7 104.5 -82.0 96.55 -79.45 66.7 -69.6 31.6 -70.55 L10.5 -72.2 2.5 -73.4 Q-6.1 -74.95 -16.1 -78.4 -24.5 -81.35 -36.45 -83.35 -49.7 -85.75 -57.45 -84.95 L-72.2 -83.15 -88.15 -81.45 -111.15 -80.2 -134.9 -78.95 Q-142.55 -78.4 -160.95 -70.25 -172.4 -65.2 -183.3 -59.6 L-183.1 -60.35 -187.55 -60.55 -191.7 -60.35 Q-199.9 -61.4 -208.75 -66.25 -226.6 -76.1 -230.05 -95.45 -232.9 -111.7 -235.1 -130.1 -236.7 -143.95 -237.85 -147.75 -240.35 -156.35 -252.55 -165.6 -258.5 -169.9 -265.15 -169.55 L-268.6 -169.1 Q-273.35 -171.1 -275.55 -170.05 L-282.05 -166.65 -287.2 -163.8 -289.1 -162.9 -295.95 -159.75 -302.65 -156.15 Q-304.45 -155.0 -305.7 -152.05 L-306.55 -149.35 -306.35 -148.7 Q-306.0 -148.1 -305.1 -148.1 L-304.35 -147.95 -302.25 -148.2 Q-298.35 -149.75 -296.25 -150.3 L-287.65 -152.4 -275.25 -154.6 -272.2 -155.65 -269.7 -155.75 -267.6 -154.8 -266.65 -154.7 Q-266.1 -154.9 -265.45 -155.65 L-264.65 -156.9 M1.05 8.7 Q7.55 4.25 11.0 -4.25 15.0 -14.0 24.25 -19.7 29.85 -23.05 44.0 -27.8 53.05 -30.8 58.2 -32.9 66.5 -36.3 73.0 -40.6 92.45 -53.4 139.85 -77.3 187.2 -101.15 218.05 -113.7 L218.55 -113.9 218.05 -113.7 M-305.1 -148.1 L-303.0 -146.2 Q-300.65 -144.3 -299.4 -144.5 -298.05 -144.6 -296.7 -145.25 L-294.45 -146.5 Q-293.2 -147.15 -287.85 -147.85 L-280.0 -148.1 -276.8 -147.75 -275.9 -146.05 Q-274.7 -144.3 -273.35 -144.0 -267.55 -143.05 -266.3 -141.55 L-262.2 -136.85 Q-258.55 -132.4 -257.3 -129.35 -256.15 -126.65 -254.25 -111.95 -251.9 -94.5 -250.75 -88.9 -246.75 -69.8 -241.5 -59.7 -230.5 -38.7 -208.45 -30.65 L-207.5 -29.65 Q-206.45 -28.5 -205.8 -28.4 L-203.1 -28.0 -201.8 -26.85 Q-200.15 -25.7 -199.3 -25.5 -197.9 -25.15 -195.6 -22.65 L-193.75 -20.35 -192.7 -16.65 -192.45 -17.75 -192.45 -17.8 -192.65 -19.05 -194.15 -33.65 M-192.45 -17.75 Q-190.65 -6.15 -188.15 -3.5 L-187.3 -2.9 Q-182.25 -0.9 -172.2 1.1 L-169.15 3.65 Q-165.65 6.15 -163.15 6.15 -160.0 6.15 -152.2 8.9 -146.85 10.9 -144.25 12.4 L-142.45 13.7 Q-139.95 16.15 -135.5 19.2 -162.0 31.4 -169.85 34.15 L-172.2 34.8 Q-175.25 35.45 -174.3 39.75 -173.85 41.85 -172.7 43.85 L-172.5 53.75 Q-171.55 63.9 -168.1 64.45 L-155.7 66.0 Q-147.2 66.75 -144.45 66.0 L-141.45 65.25 -139.05 64.55 Q-140.0 63.8 -139.7 62.05 L-137.35 61.55 -138.9 59.95 -143.95 61.95 -139.5 59.5 Q-136.05 57.5 -134.4 56.3 L-135.1 55.6 Q-136.65 53.95 -135.4 52.7 L-133.85 52.8 -133.6 52.65 -133.65 52.6 -135.5 51.4 -135.9 51.85 -139.2 55.05 -139.95 55.65 -141.45 56.8 Q-145.85 59.95 -149.05 59.95 -155.5 60.25 -158.55 60.15 -163.9 60.05 -165.15 58.45 -166.7 56.55 -167.15 49.75 -167.45 44.7 -166.7 42.8 L-166.1 41.85 -162.7 39.4 -161.05 38.3 -141.45 33.9 -137.05 32.8 Q-123.75 29.5 -122.9 28.3 -121.35 26.3 -120.9 20.75 -131.55 9.75 -139.25 2.85 L-139.6 2.5 -139.85 2.3 Q-145.4 -2.65 -149.35 -5.4 L-149.5 -5.5 -163.15 -15.05 M-117.25 -14.75 Q-114.55 -23.0 -106.3 -35.05 -99.2 -45.35 -91.7 -53.75 M-118.6 -8.05 Q-118.5 -11.0 -117.25 -14.75 M-20.15 -33.25 Q-17.85 -38.35 -15.55 -44.3 M-118.6 -8.05 Q-118.65 -6.4 -118.3 -5.0 L-118.3 -4.9 -116.1 -0.35 Q-112.7 5.5 -106.75 11.1 L-97.05 21.25 -94.8 23.05 -91.3 25.55 -90.55 26.1 -90.3 26.25 -89.3 26.85 -88.6 27.3 -87.95 27.7 Q-82.15 31.1 -73.85 33.45 L-74.55 33.3 -81.2 34.1 Q-87.4 34.1 -94.65 30.75 -101.8 27.35 -113.85 18.75 -124.25 11.5 -134.35 6.25 L-135.5 4.75 Q-136.75 4.05 -138.05 3.45 L-139.25 2.85 M-74.05 33.45 L-70.75 34.2 -70.6 34.2 -70.05 34.3 Q-54.95 36.9 -38.75 47.65 -24.6 57.0 -25.2 59.5 -25.85 61.7 -32.45 64.15 -41.2 67.3 -55.45 68.0 -68.7 68.65 -82.9 71.15 L-95.2 73.5 Q-96.85 73.5 -98.95 77.05 -101.5 81.45 -101.25 87.65 -100.85 94.5 -104.0 100.9 -106.95 106.9 -111.25 109.3 L-111.3 111.25 -110.95 111.1 Q-108.2 110.7 -108.5 113.2 -108.55 114.45 -109.25 115.8 -106.3 118.35 -103.25 117.9 L-103.2 117.65 Q-104.4 113.5 -102.2 110.9 L-102.2 110.8 -102.15 110.85 Q-101.25 109.85 -99.9 109.1 L-98.45 108.35 Q-96.85 108.05 -96.15 110.8 -95.25 109.9 -94.7 108.25 -94.95 106.65 -94.0 105.35 L-93.7 102.7 Q-90.15 97.75 -87.5 81.6 M-21.05 -31.3 Q-23.75 -25.55 -26.45 -21.05 -29.6 -15.85 -32.7 -12.35 L-32.8 -12.2 Q-40.7 -3.4 -54.15 2.35 -58.1 4.05 -62.6 5.5 L-63.65 5.85 Q-61.55 8.9 -55.15 15.7 -51.35 19.75 -48.95 23.5 -42.0 20.45 -34.05 18.45 L-20.25 15.4 Q-6.6 12.85 -1.35 10.15 L1.05 8.7 Q0.85 15.75 2.1 16.85 3.35 17.9 8.95 21.05 14.6 24.75 16.9 29.25 19.75 34.95 26.15 42.05 32.65 49.2 37.0 51.4 L49.45 57.6 Q58.85 61.8 67.15 63.5 75.55 65.2 84.25 73.05 86.65 75.25 97.05 86.7 100.4 90.3 111.35 107.5 120.9 122.65 123.25 123.5 127.55 125.25 130.25 125.9 L137.3 147.35 137.0 147.55 138.1 148.5 Q138.35 153.45 141.05 156.8 142.4 158.5 143.6 159.15 137.7 159.55 133.8 153.8 L132.45 151.05 M132.3 151.6 Q130.05 160.0 127.9 162.9 L126.6 164.15 Q120.9 167.8 119.15 168.45 L118.8 168.6 Q118.5 169.0 117.95 169.2 L115.3 169.3 Q111.25 165.0 108.0 167.25 L105.55 170.4 Q106.2 162.1 112.3 162.6 L115.05 163.2 M115.1 162.85 L115.15 162.45 115.15 162.15 119.25 158.25 Q123.35 153.75 123.55 151.1 123.85 148.3 123.75 145.75 L123.55 143.65 Q113.85 133.6 111.45 129.6 109.9 126.75 99.05 113.6 L81.3 92.7 Q72.25 82.2 64.7 76.65 53.6 68.35 41.05 66.15 L11.75 61.4 Q-4.75 58.8 -9.15 57.5 -7.9 59.95 -10.4 64.45 L-14.7 71.05 Q-16.0 73.4 -22.7 75.4 -27.0 76.75 -38.35 79.05 -45.3 80.55 -61.05 82.2 L-78.05 84.1 Q-80.9 84.75 -80.7 87.25 -80.7 88.7 -80.05 91.15 -80.05 92.1 -81.65 92.3 -83.75 92.6 -85.1 94.2 -86.45 95.85 -87.75 100.25 -89.3 104.9 -90.15 106.25 L-91.4 108.9 Q-92.15 112.15 -89.5 115.1 -91.95 113.4 -93.5 111.0 -94.5 109.55 -94.7 108.25 M-20.15 -33.25 L-21.05 -31.3 M-48.95 23.5 L-47.3 26.3 Q-43.5 33.55 -26.5 45.1 -9.65 56.45 -9.15 57.5 M-132.45 48.6 L-132.35 46.3 -134.45 49.35 Q-133.4 49.15 -132.45 48.6 -132.7 51.65 -133.6 52.65 M-132.35 46.3 L-132.35 45.95 -132.25 46.15 -131.3 44.2 Q-128.5 38.5 -130.4 35.35 -132.45 43.35 -135.5 44.3 L-143.5 48.9 Q-154.55 52.45 -157.6 50.4 -159.45 49.2 -161.55 43.35 L-162.7 39.4 M-130.1 51.85 Q-127.85 48.95 -127.85 47.35 L-127.85 40.9 Q-128.25 42.8 -129.3 44.8 -130.25 46.75 -131.5 47.9 M-130.35 50.5 L-130.1 51.85 Q-129.85 54.9 -132.05 56.35 L-131.0 59.8 Q-130.8 63.7 -135.2 64.85 L-137.7 65.05 Q-138.55 64.95 -139.05 64.55 M-166.7 42.8 Q-164.0 48.95 -160.55 54.9 L-142.45 54.9 -141.45 54.95 -139.2 55.05 M-137.35 61.55 L-137.1 61.5 Q-134.35 60.25 -132.4 56.55 L-133.4 57.0 -134.4 56.3 M-132.4 56.55 L-132.15 56.05 -132.05 56.35 M-94.55 79.9 L-96.05 91.75 Q-98.25 104.45 -101.9 108.8 M-132.35 46.3 L-130.35 50.5 M-93.1 104.35 L-91.8 103.4 -90.45 103.1 Q-89.3 103.45 -90.15 106.25 M-93.1 104.35 L-93.7 102.7 M-94.0 105.35 L-93.1 104.35 M-96.15 110.8 L-99.3 114.45 Q-101.9 119.2 -99.2 124.85 -101.5 122.1 -102.85 118.75 L-103.2 117.65 M-102.2 110.9 L-102.15 110.85 M-111.3 111.25 Q-113.7 112.1 -115.55 114.25 -119.65 119.0 -116.7 126.55 -117.25 124.1 -116.6 121.4 -115.35 116.15 -109.25 115.8 M-144.25 12.4 Q-162.6 24.95 -168.7 27.25 -171.25 28.3 -169.85 34.15 M118.8 168.6 L116.2 169.0 Q114.5 168.9 114.5 168.15 L114.9 164.45 115.0 163.8 115.1 162.85 M137.0 147.55 L132.6 150.4 132.55 150.75" fill="none" stroke="#000000" stroke-linecap="butt" stroke-linejoin="miter-clip" stroke-miterlimit="4.0" stroke-width="1.0"/>
  </g>
</svg>
