<?xml version="1.0" encoding="UTF-8" standalone="no"?>
<svg xmlns:xlink="http://www.w3.org/1999/xlink" height="151.9px" width="128.4px" xmlns="http://www.w3.org/2000/svg">
  <g transform="matrix(1.0, 0.0, 0.0, 1.0, 66.4, 25.4)">
    <path d="M-19.2 14.1 Q-24.35 11.05 -25.95 5.05 -28.95 -6.2 -23.0 -15.1 -17.55 -23.3 -8.75 -24.4 -1.3 -25.3 7.2 -23.6 13.9 -22.3 20.6 -19.55 25.3 -17.65 27.6 -13.8 28.75 -11.9 28.95 -10.35 L31.7 -8.6 Q34.65 -6.4 35.95 -4.05 37.5 -1.2 36.4 1.5 L35.15 3.6 36.4 1.5 Q40.15 0.1 40.3 5.55 40.4 8.55 39.55 11.95 46.0 3.25 48.15 2.7 49.5 2.35 51.45 4.2 52.0 4.35 52.2 4.95 54.75 3.6 55.7 5.35 57.15 8.05 59.15 13.95 61.3 20.4 61.15 22.25 61.0 24.15 59.1 25.6 L59.2 27.95 Q59.25 34.5 57.75 37.35 56.55 39.55 55.45 39.7 L55.35 40.3 Q54.5 45.95 54.95 47.8 55.4 49.65 52.3 50.75 L49.15 51.45 48.65 49.35 50.55 48.4 Q52.45 47.15 52.65 45.7 52.85 44.25 54.6 39.5 L54.65 39.45 53.55 38.35 54.05 26.1 Q52.6 24.5 50.55 16.05 L49.65 11.9 Q47.4 15.85 44.85 19.15 43.8 20.5 41.0 21.4 L38.45 22.05 Q34.2 21.7 36.4 16.9 34.3 19.25 33.2 17.05 32.05 14.6 33.75 7.95 L35.15 3.6 Q32.45 6.85 25.6 9.85 L19.3 12.4 18.65 10.05 Q17.4 7.45 16.15 8.0 14.95 8.55 14.6 11.5 L14.65 14.0 14.6 11.5 Q14.95 8.55 16.15 8.0 17.4 7.45 18.65 10.05 L19.3 12.4 20.1 15.55 Q21.65 22.45 22.45 29.35 L22.35 29.9 Q23.75 30.6 24.15 33.8 24.55 36.75 24.1 40.25 29.55 30.85 31.65 30.05 32.35 29.8 33.25 30.35 34.45 31.1 35.05 31.2 35.65 31.3 35.9 31.9 38.3 30.2 39.45 31.9 41.2 34.45 43.8 40.1 46.65 46.25 46.7 48.1 46.8 50.0 45.05 51.7 L44.4 48.05 Q43.25 46.45 41.4 47.7 L39.75 49.25 40.0 52.7 39.75 49.25 41.4 47.7 Q43.25 46.45 44.4 48.05 L45.05 51.7 45.4 53.95 Q46.1 60.45 44.9 63.5 44.0 65.75 42.9 66.1 L43.2 61.35 42.0 65.95 43.2 61.35 42.9 66.1 42.85 66.7 Q42.65 72.4 43.3 74.2 43.95 76.0 41.0 77.35 39.5 78.05 37.9 78.4 L37.2 76.4 38.95 75.25 Q40.7 73.8 40.75 72.35 40.8 70.9 42.0 65.95 L40.85 64.95 40.0 52.7 Q38.4 51.25 35.45 43.1 L34.1 39.05 32.7 34.8 35.35 32.25 35.9 31.9 35.35 32.25 32.7 34.8 34.1 39.05 Q32.5 42.8 30.15 46.8 29.25 48.25 26.55 49.45 L24.05 50.35 Q19.8 50.5 21.55 45.4 L21.6 45.3 Q20.7 46.65 19.9 46.85 20.35 49.75 19.8 54.0 19.35 57.9 18.7 60.3 18.15 57.65 15.1 59.75 L14.1 62.2 15.1 59.75 Q18.15 57.65 18.7 60.3 19.2 62.7 17.45 69.35 15.7 76.2 12.7 83.85 L10.85 83.05 Q11.35 80.7 10.55 79.8 L9.6 82.15 10.55 79.8 Q11.35 80.7 10.85 83.05 L10.0 85.65 8.0 89.9 Q3.8 92.45 1.05 92.3 -0.65 92.2 0.85 89.55 L2.7 86.9 5.25 87.45 Q6.9 87.8 8.9 83.85 L9.6 82.15 Q8.55 81.1 8.25 79.8 7.8 77.9 11.4 68.65 L14.1 62.2 Q12.05 60.6 11.75 58.9 11.45 57.35 12.45 49.25 L13.15 43.95 10.0 44.15 0.7 44.4 Q0.2 43.65 -0.05 42.55 L-0.1 42.15 Q-1.8 42.0 -3.7 38.7 L-4.2 37.65 -5.65 34.5 -5.9 33.1 -5.65 34.5 -4.2 37.65 Q-3.5 44.2 -4.0 44.8 L-5.25 46.15 Q-4.8 41.85 -7.35 41.15 L-9.3 43.65 -7.35 41.15 Q-4.8 41.85 -5.25 46.15 -5.7 50.05 -8.7 56.95 -11.8 64.2 -15.9 71.15 L-16.35 71.15 Q-17.45 74.65 -20.15 80.55 -23.2 87.15 -26.6 93.5 L-29.35 107.55 Q-37.4 109.85 -34.3 108.05 -32.4 106.95 -30.35 99.7 L-28.7 92.7 -27.2 75.7 -26.95 74.5 Q-31.0 80.8 -35.8 86.8 L-36.25 86.75 Q-38.05 90.4 -41.9 96.35 -46.25 103.1 -50.95 109.45 L-56.15 124.4 -60.2 124.85 Q-63.85 125.1 -61.6 124.15 -59.3 123.25 -55.95 115.7 L-53.05 108.3 -48.8 90.0 Q-47.85 86.4 -43.55 81.35 L-42.15 79.9 Q-42.5 76.05 -32.25 65.5 L-24.25 57.9 Q-24.8 49.9 -24.05 17.0 L-19.2 14.1 -16.7 12.55 Q-12.25 10.55 -10.15 11.8 -12.25 10.55 -16.7 12.55 L-19.2 14.1 M-1.0 17.1 L-1.45 12.95 Q-2.5 11.25 -4.15 10.3 -7.4 8.3 -10.15 11.8 -7.4 8.3 -4.15 10.3 -2.5 11.25 -1.45 12.95 L-1.0 17.1 -0.6 21.4 Q0.05 30.2 -1.0 32.15 -1.65 33.35 -2.65 33.95 L-2.1 34.95 Q-0.05 38.55 0.95 38.95 2.45 37.45 7.75 37.25 L14.05 37.55 Q15.6 37.9 16.5 39.45 L17.5 41.25 Q17.55 39.35 17.9 36.85 L18.65 33.25 17.9 33.3 Q15.0 19.45 14.65 14.0 6.35 16.55 -1.0 17.1 M52.2 4.95 L51.6 5.25 48.7 7.5 49.65 11.9 48.7 7.5 51.6 5.25 52.2 4.95 M59.1 25.6 L58.85 21.95 Q57.9 20.25 55.9 21.25 L54.15 22.65 54.05 26.1 54.15 22.65 55.9 21.25 Q57.9 20.25 58.85 21.95 L59.1 25.6 M55.45 39.7 L56.3 35.0 54.65 39.45 56.3 35.0 55.45 39.7 M36.4 16.9 L36.45 16.8 39.55 11.95 36.45 16.8 36.4 16.9 M18.65 33.25 L19.2 30.5 Q21.15 29.25 22.35 29.9 21.15 29.25 19.2 30.5 L18.65 33.25 M18.15 42.4 L17.5 41.65 Q15.4 39.45 14.25 40.15 L13.45 41.5 13.15 43.95 13.45 41.5 14.25 40.15 Q15.4 39.45 17.5 41.65 L18.15 42.4 17.5 41.25 18.15 42.4 Q19.5 43.95 19.9 46.85 19.5 43.95 18.15 42.4 M21.6 45.3 L24.1 40.25 21.6 45.3 M-9.2 17.0 L-5.9 33.1 -9.2 17.0 -12.2 16.6 -9.2 17.0 -9.55 15.35 -9.2 17.0 M-13.1 17.05 L-12.2 16.6 -13.1 17.05 Q-17.7 19.5 -17.65 20.6 -17.4 46.0 -17.9 55.05 L-15.5 51.55 -9.3 43.65 Q-10.55 37.8 -13.1 17.05 M0.95 38.95 Q-0.35 40.25 -0.1 42.15 -0.35 40.25 0.95 38.95 M-9.55 15.35 L-8.5 14.85 Q-8.8 12.6 -10.15 11.8 -8.8 12.6 -8.5 14.85 L-9.55 15.35 Q-10.85 15.9 -12.2 16.6 -10.85 15.9 -9.55 15.35 M-2.65 33.95 L-4.0 31.45 Q-5.85 31.0 -5.95 32.7 L-5.9 33.1 -5.95 32.7 Q-5.85 31.0 -4.0 31.45 L-2.65 33.95 M-20.25 61.2 L-18.65 59.95 Q-18.2 59.5 -17.9 55.05 -18.2 59.5 -18.65 59.95 L-20.25 61.2 -21.15 63.85 -20.25 61.2 Q-19.8 59.45 -19.9 58.2 -20.1 56.15 -21.75 55.45 L-24.25 57.9 -21.75 55.45 Q-20.1 56.15 -19.9 58.2 -19.8 59.45 -20.25 61.2 M-16.35 71.15 Q-14.95 66.75 -16.05 66.05 L-20.45 62.85 -21.15 63.85 -20.45 62.85 -16.05 66.05 Q-14.95 66.75 -16.35 71.15 M-21.15 63.85 Q-22.6 67.4 -25.7 72.45 L-26.95 74.5 -25.7 72.45 Q-22.6 67.4 -21.15 63.85 M-42.15 79.9 L-39.45 77.05 -35.1 81.2 Q-34.05 82.15 -36.25 86.75 -34.05 82.15 -35.1 81.2 L-39.45 77.05 -42.15 79.9" fill="#ffffff" fill-opacity="0.0" fill-rule="evenodd" stroke="none"/>
    <path d="M36.4 1.5 Q37.5 -1.2 35.95 -4.05 34.65 -6.4 31.7 -8.6 L28.95 -10.35 Q28.75 -11.9 27.6 -13.8 25.3 -17.65 20.6 -19.55 13.9 -22.3 7.2 -23.6 -1.3 -25.3 -8.75 -24.4 -17.55 -23.3 -23.0 -15.1 -28.95 -6.2 -25.95 5.05 -24.35 11.05 -19.2 14.1 M-1.0 17.1 Q6.35 16.55 14.65 14.0 M19.3 12.4 L25.6 9.85 Q32.45 6.85 35.15 3.6" fill="none" stroke="#000000" stroke-linecap="round" stroke-linejoin="miter-clip" stroke-miterlimit="10.0" stroke-width="1.0"/>
    <path d="M-19.2 14.1 L-16.7 12.55 Q-12.25 10.55 -10.15 11.8 -7.4 8.3 -4.15 10.3 -2.5 11.25 -1.45 12.95 L-1.0 17.1 -0.6 21.4 Q0.05 30.2 -1.0 32.15 -1.65 33.35 -2.65 33.95 L-2.1 34.95 Q-0.05 38.55 0.95 38.95 2.45 37.45 7.75 37.25 L14.05 37.55 Q15.6 37.9 16.5 39.45 L17.5 41.25 Q17.55 39.35 17.9 36.85 L18.65 33.25 17.9 33.3 Q15.0 19.45 14.65 14.0 L14.6 11.5 Q14.95 8.55 16.15 8.0 17.4 7.45 18.65 10.05 L19.3 12.4 20.1 15.55 Q21.65 22.45 22.45 29.35 L22.35 29.9 Q23.75 30.6 24.15 33.8 24.55 36.75 24.1 40.25 29.55 30.85 31.65 30.05 32.35 29.8 33.25 30.35 34.45 31.1 35.05 31.2 35.65 31.3 35.9 31.9 L35.35 32.25 32.7 34.8 34.1 39.05 35.45 43.1 Q38.4 51.25 40.0 52.7 L40.85 64.95 42.0 65.95 43.2 61.35 42.9 66.1 Q44.0 65.75 44.9 63.5 46.1 60.45 45.4 53.95 L45.05 51.7 Q46.8 50.0 46.7 48.1 46.65 46.25 43.8 40.1 41.2 34.45 39.45 31.9 38.3 30.2 35.9 31.9 M35.15 3.6 L36.4 1.5 Q40.15 0.1 40.3 5.55 40.4 8.55 39.55 11.95 46.0 3.25 48.15 2.7 49.5 2.35 51.45 4.2 52.0 4.35 52.2 4.95 54.75 3.6 55.7 5.35 57.15 8.05 59.15 13.95 61.3 20.4 61.15 22.25 61.0 24.15 59.1 25.6 L59.2 27.95 Q59.25 34.5 57.75 37.35 56.55 39.55 55.45 39.7 L55.35 40.3 Q54.5 45.95 54.95 47.8 55.4 49.65 52.3 50.75 L49.15 51.45 48.65 49.35 50.55 48.4 Q52.45 47.15 52.65 45.7 52.85 44.25 54.6 39.5 L54.65 39.45 53.55 38.35 54.05 26.1 Q52.6 24.5 50.55 16.05 L49.65 11.9 Q47.4 15.85 44.85 19.15 43.8 20.5 41.0 21.4 L38.45 22.05 Q34.2 21.7 36.4 16.9 34.3 19.25 33.2 17.05 32.05 14.6 33.75 7.95 L35.15 3.6 M49.65 11.9 L48.7 7.5 51.6 5.25 52.2 4.95 M54.05 26.1 L54.15 22.65 55.9 21.25 Q57.9 20.25 58.85 21.95 L59.1 25.6 M40.0 52.7 L39.75 49.25 41.4 47.7 Q43.25 46.45 44.4 48.05 L45.05 51.7 M54.65 39.45 L56.3 35.0 55.45 39.7 M39.55 11.95 L36.45 16.8 36.4 16.9 M22.35 29.9 Q21.15 29.25 19.2 30.5 L18.65 33.25 M-0.1 42.15 L-0.05 42.55 Q0.2 43.65 0.7 44.4 L10.0 44.15 13.15 43.95 13.45 41.5 14.25 40.15 Q15.4 39.45 17.5 41.65 L18.15 42.4 17.5 41.25 M13.15 43.95 L12.45 49.25 Q11.45 57.35 11.75 58.9 12.05 60.6 14.1 62.2 L15.1 59.75 Q18.15 57.65 18.7 60.3 19.35 57.9 19.8 54.0 20.35 49.75 19.9 46.85 19.5 43.95 18.15 42.4 M24.1 40.25 L21.6 45.3 21.55 45.4 Q19.8 50.5 24.05 50.35 L26.55 49.45 Q29.25 48.25 30.15 46.8 32.5 42.8 34.1 39.05 M19.9 46.85 Q20.7 46.65 21.6 45.3 M10.85 83.05 L12.7 83.85 Q15.7 76.2 17.45 69.35 19.2 62.7 18.7 60.3 M14.1 62.2 L11.4 68.65 Q7.8 77.9 8.25 79.8 8.55 81.1 9.6 82.15 L10.55 79.8 Q11.35 80.7 10.85 83.05 L10.0 85.65 8.0 89.9 Q3.8 92.45 1.05 92.3 -0.65 92.2 0.85 89.55 L2.7 86.9 5.25 87.45 Q6.9 87.8 8.9 83.85 L9.6 82.15 M42.9 66.1 L42.85 66.7 Q42.65 72.4 43.3 74.2 43.95 76.0 41.0 77.35 39.5 78.05 37.9 78.4 L37.2 76.4 38.95 75.25 Q40.7 73.8 40.75 72.35 40.8 70.9 42.0 65.95 M-4.2 37.65 L-5.65 34.5 -5.9 33.1 -9.2 17.0 -12.2 16.6 -13.1 17.05 Q-10.55 37.8 -9.3 43.65 L-7.35 41.15 Q-4.8 41.85 -5.25 46.15 L-4.0 44.8 Q-3.5 44.2 -4.2 37.65 L-3.7 38.7 Q-1.8 42.0 -0.1 42.15 -0.35 40.25 0.95 38.95 M-13.1 17.05 Q-17.7 19.5 -17.65 20.6 -17.4 46.0 -17.9 55.05 L-15.5 51.55 -9.3 43.65 M-10.15 11.8 Q-8.8 12.6 -8.5 14.85 L-9.55 15.35 -9.2 17.0 M-9.55 15.35 Q-10.85 15.9 -12.2 16.6 M-5.9 33.1 L-5.95 32.7 Q-5.85 31.0 -4.0 31.45 L-2.65 33.95 M-5.25 46.15 Q-5.7 50.05 -8.7 56.95 -11.8 64.2 -15.9 71.15 L-16.35 71.15 Q-17.45 74.65 -20.15 80.55 -23.2 87.15 -26.6 93.5 L-29.35 107.55 Q-37.4 109.85 -34.3 108.05 -32.4 106.95 -30.35 99.7 L-28.7 92.7 -27.2 75.7 -26.95 74.5 Q-31.0 80.8 -35.8 86.8 L-36.25 86.75 Q-38.05 90.4 -41.9 96.35 -46.25 103.1 -50.95 109.45 L-56.15 124.4 -60.2 124.85 Q-63.85 125.1 -61.6 124.15 -59.3 123.25 -55.95 115.7 L-53.05 108.3 -48.8 90.0 Q-47.85 86.4 -43.55 81.35 L-42.15 79.9 Q-42.5 76.05 -32.25 65.5 L-24.25 57.9 Q-24.8 49.9 -24.05 17.0 L-19.2 14.1 M-17.9 55.05 Q-18.2 59.5 -18.65 59.95 L-20.25 61.2 -21.15 63.85 -20.45 62.85 -16.05 66.05 Q-14.95 66.75 -16.35 71.15 M-20.25 61.2 Q-19.8 59.45 -19.9 58.2 -20.1 56.15 -21.75 55.45 L-24.25 57.9 M-26.95 74.5 L-25.7 72.45 Q-22.6 67.4 -21.15 63.85 M-36.25 86.75 Q-34.05 82.15 -35.1 81.2 L-39.45 77.05 -42.15 79.9" fill="none" stroke="#000000" stroke-linecap="round" stroke-linejoin="miter-clip" stroke-miterlimit="10.0" stroke-opacity="0.6" stroke-width="1.0"/>
  </g>
</svg>
