<?xml version="1.0" encoding="UTF-8" standalone="no"?>
<svg xmlns:xlink="http://www.w3.org/1999/xlink" height="621.05px" width="1537.25px" xmlns="http://www.w3.org/2000/svg">
  <g transform="matrix(1.0, 0.0, 0.0, 1.0, 768.6, 310.05)">
    <path d="M-151.85 296.9 Q-166.85 298.5 -175.5 288.95 -184.0 279.6 -180.5 267.2 -177.65 257.2 -182.1 248.7 L-187.25 242.05 Q-193.05 221.55 -199.8 212.35 -205.2 205.3 -205.45 201.4 -205.85 196.95 -202.1 181.55 -197.35 161.55 -198.7 154.1 -200.05 145.35 -199.4 117.8 -198.6 85.25 -194.1 76.3 -191.8 71.85 -183.7 69.45 L-166.3 65.8 Q-139.8 60.65 -129.0 46.6 L-116.7 29.05 Q-110.1 19.7 -104.3 14.45 -88.35 0.4 -51.2 -4.75 L-52.65 -17.8 Q-81.45 -35.65 -130.65 -52.95 -202.65 -78.35 -253.55 -81.3 -297.75 -83.9 -363.1 -104.0 -418.65 -121.05 -462.4 -141.55 -493.45 -156.15 -554.8 -198.55 -615.85 -242.05 -628.4 -250.45 -648.25 -263.8 -674.35 -270.15 -702.15 -276.9 -717.55 -270.3 -754.05 -254.65 -761.6 -253.3 -782.0 -249.5 -738.2 -287.05 -693.9 -325.0 -603.3 -298.95 -550.05 -283.65 -483.75 -246.65 -451.85 -229.1 -387.55 -219.25 -337.3 -211.7 -302.3 -212.35 L-228.3 -216.15 -111.85 -220.05 Q-54.75 -220.45 -13.95 -230.85 9.3 -236.8 45.1 -249.75 68.85 -256.8 106.95 -257.45 126.0 -257.75 140.35 -256.65 201.1 -273.55 238.25 -275.3 266.35 -276.65 299.6 -268.8 324.3 -263.0 348.6 -253.7 363.05 -248.15 372.0 -243.7 376.6 -241.4 389.55 -241.4 394.8 -242.9 399.4 -240.6 404.0 -245.15 412.4 -246.65 L413.2 -249.1 Q414.25 -251.5 416.15 -252.05 L429.15 -254.35 Q429.0 -255.85 429.15 -257.35 429.55 -260.45 431.4 -260.45 434.4 -260.45 451.95 -265.05 451.0 -266.1 450.45 -267.6 449.4 -270.45 451.3 -271.8 454.25 -274.1 472.6 -280.15 L473.7 -283.0 Q474.9 -285.85 476.4 -286.35 L496.95 -290.85 Q500.7 -295.55 507.05 -296.75 511.65 -297.6 522.85 -297.05 L522.85 -301.5 526.5 -302.85 Q531.5 -304.35 538.55 -304.2 561.25 -303.8 595.95 -288.65 L597.45 -290.95 Q600.25 -293.15 607.45 -291.65 616.35 -289.9 620.55 -286.1 625.0 -282.05 625.0 -274.9 L627.0 -276.4 Q629.45 -278.0 631.75 -278.0 L634.85 -271.8 637.8 -273.4 Q641.35 -274.35 643.2 -271.1 646.35 -265.7 648.65 -258.15 L661.75 -254.65 Q675.8 -250.45 680.5 -246.65 L685.65 -247.45 Q691.2 -247.75 693.45 -244.35 L697.95 -244.65 Q702.95 -244.1 705.75 -239.9 L712.25 -239.1 Q719.0 -237.6 720.9 -233.7 L735.75 -225.2 Q752.65 -213.55 763.6 -197.9 L766.7 -184.4 Q769.25 -169.15 767.35 -160.6 L763.6 -156.85 Q761.95 -157.9 759.0 -158.85 753.05 -160.6 746.85 -159.15 733.75 -156.0 710.1 -157.35 677.4 -159.15 656.2 -170.5 653.5 -170.5 648.35 -172.65 638.1 -177.1 625.65 -188.05 611.6 -200.45 589.35 -210.75 568.95 -219.9 551.8 -223.0 L530.45 -226.95 546.1 -220.6 Q563.25 -212.2 570.8 -201.7 576.9 -193.3 595.0 -171.15 611.5 -149.25 618.1 -130.9 628.75 -101.2 625.0 -113.35 631.05 -108.05 630.25 -105.75 629.6 -103.5 629.6 -96.6 L637.95 -92.8 Q640.95 -91.3 644.7 -86.75 L647.55 -85.1 Q650.8 -83.35 653.1 -82.95 657.0 -82.15 658.5 -76.75 L669.3 -78.9 Q680.35 -80.4 681.3 -77.55 682.8 -72.95 685.9 -68.35 L695.1 -63.1 700.1 -62.4 Q704.95 -61.05 704.95 -57.7 669.15 -30.25 661.45 -28.8 653.2 -27.15 635.65 -36.75 611.6 -49.7 584.6 -78.35 L558.65 -91.3 Q529.75 -97.4 522.05 -97.4 517.35 -97.4 517.35 -101.6 L518.3 -105.75 Q487.05 -108.75 474.1 -111.85 466.25 -113.6 460.45 -107.95 455.05 -100.8 451.95 -98.9 449.25 -97.15 423.45 -99.15 L411.75 -99.9 Q393.7 -100.75 386.45 -98.9 L387.25 -102.95 Q383.45 -94.05 371.5 -85.25 L363.7 -80.0 363.3 -79.8 362.8 -79.0 368.5 -71.35 Q375.9 -62.4 384.95 -56.2 399.4 -46.35 430.6 -27.3 L443.6 -14.3 443.95 -13.6 Q448.15 -5.05 446.7 -2.15 446.4 -1.6 445.7 -1.6 444.3 -1.7 441.3 -4.45 L443.6 4.2 443.95 5.7 444.45 7.9 Q445.9 14.25 445.9 16.85 L445.9 16.9 Q445.9 20.0 442.25 23.1 437.9 26.9 437.5 27.55 436.05 30.65 437.5 20.8 437.4 18.1 436.3 15.15 434.4 8.9 430.6 7.0 426.85 5.15 424.15 -2.05 L422.25 -8.9 Q411.6 -14.3 405.5 -16.6 403.75 -17.3 403.75 -18.9 L403.75 -22.0 Q402.25 -26.6 384.95 -30.25 342.75 -39.15 327.5 -62.9 319.8 -59.95 311.2 -57.0 274.2 -44.2 224.45 -33.2 L192.2 -26.5 Q146.95 -17.55 122.9 -2.05 L108.1 9.9 Q100.0 15.95 94.65 18.5 81.95 24.55 65.45 26.85 L64.95 27.9 Q62.8 33.0 62.15 36.0 L61.85 37.55 Q61.05 45.5 17.0 71.2 -27.7 97.5 -60.4 108.35 -78.9 114.55 -113.35 117.9 -124.55 119.0 -129.3 121.05 -135.75 123.75 -138.05 130.1 -143.6 144.8 -141.85 159.4 -139.95 175.2 -130.1 179.25 -121.2 183.05 -116.85 192.75 -114.3 198.7 -112.95 208.95 -111.85 217.9 -106.6 228.15 -100.1 240.55 -92.4 242.05 -85.25 243.55 -81.85 247.45 -80.1 249.5 -79.85 251.25 L-80.4 252.35 -84.15 252.45 Q-97.15 255.95 -93.65 268.8 -92.0 275.3 -87.7 280.95 L-83.8 280.3 -83.2 282.05 Q-90.1 284.35 -97.65 286.1 -112.8 289.45 -116.45 286.65 -118.75 284.9 -122.95 271.65 -126.85 259.9 -131.3 259.2 L-139.3 258.15 -137.9 273.3 Q-142.8 270.5 -148.45 269.2 L-153.85 268.4 Q-168.85 280.55 -161.85 290.0 -158.35 294.6 -151.85 296.9" fill="#ffffff" fill-opacity="0.0" fill-rule="evenodd" stroke="none"/>
    <path d="M108.1 9.9 L122.9 -2.05 Q146.95 -17.55 192.2 -26.5 L224.45 -33.2 228.55 -28.35 Q234.9 -19.75 234.9 -10.55 L228.0 7.85 Q228.65 16.05 221.9 36.6 213.25 62.65 198.3 84.7 182.35 108.2 176.4 132.1 171.4 152.35 173.85 170.85 176.1 187.1 182.6 193.95 188.7 200.3 204.35 204.35 219.5 208.3 222.6 210.15 225.25 211.9 228.7 218.6 L230.0 219.65 Q237.7 224.9 243.95 224.9 253.65 224.9 264.6 227.2 277.95 230.05 279.05 234.1 279.55 236.15 279.4 239.8 L275.25 238.7 Q271.75 240.05 269.65 242.3 267.15 245.0 266.7 249.1 L261.5 247.85 Q252.3 248.4 249.45 265.3 248.4 271.75 249.75 275.55 251.1 279.75 254.6 277.6 258.0 275.5 261.9 274.7 L262.3 278.25 Q250.8 280.55 242.45 279.75 236.5 279.2 227.05 271.65 218.0 264.5 217.3 260.7 216.8 257.85 212.05 258.25 L208.75 258.95 Q204.8 256.15 197.6 256.9 L188.4 259.2 Q184.5 263.0 186.4 269.45 187.35 272.85 189.1 275.3 L192.85 276.0 182.75 275.0 Q159.8 272.6 154.1 270.7 150.3 269.45 150.2 262.05 150.2 249.6 148.7 243.25 146.25 232.75 127.5 214.35 114.4 201.55 99.95 190.6 91.95 184.65 97.9 168.85 99.65 164.4 113.7 137.35 120.35 124.4 118.45 106.45 115.05 75.5 115.2 68.75 115.75 49.3 127.75 35.25 133.7 28.35 139.65 25.25 L131.95 19.15 Q118.3 16.45 108.1 9.9 M444.45 7.9 L443.95 5.7 Q445.2 2.95 445.7 -1.6 446.4 -1.6 446.7 -2.15 448.15 -5.05 443.95 -13.6 L442.1 -19.6 Q440.6 -23.4 436.3 -26.5 L432.25 -28.8 432.25 -36.35 Q431.15 -40.25 417.8 -46.45 L396.45 -55.4 Q390.2 -58.1 383.05 -68.9 375.5 -80.5 374.3 -81.3 372.25 -82.65 371.5 -85.25 383.45 -94.05 387.25 -102.95 L386.45 -98.9 Q393.7 -100.75 411.75 -99.9 L410.6 -98.9 403.2 -93.5 405.2 -91.3 Q407.8 -88.9 410.1 -87.4 412.5 -85.9 411.55 -81.2 411.05 -78.75 410.1 -76.75 L416.95 -72.95 Q458.85 -33.35 461.95 -31.1 464.9 -28.8 467.2 -16.6 464.25 -15.0 461.15 -14.35 459.25 -13.8 456.55 -17.05 L454.25 -20.4 Q455.85 -4.45 453.55 1.75 452.35 5.15 447.1 7.15 L444.45 7.9" fill="#000000" fill-opacity="0.2" fill-rule="evenodd" stroke="none"/>
    <path d="M-151.85 296.9 Q-158.35 294.6 -161.85 290.0 -168.85 280.55 -153.85 268.4 L-148.45 269.2 Q-142.8 270.5 -137.9 273.3 L-136.6 274.05 Q-119.3 284.6 -118.5 309.6 -121.2 306.5 -126.6 303.25 -137.65 296.9 -151.85 296.9 M-83.8 280.3 L-87.7 280.95 Q-92.0 275.3 -93.65 268.8 -97.15 255.95 -84.15 252.45 L-80.4 252.35 -77.95 252.3 Q-70.55 252.6 -64.6 254.75 -45.4 261.65 -47.55 284.45 -50.4 282.15 -56.9 280.55 -68.3 277.8 -83.8 280.3 M279.4 239.8 L290.25 242.75 Q305.1 249.5 304.2 263.8 L300.4 263.8 Q296.75 261.35 291.9 259.6 287.15 257.95 283.2 258.05 294.05 268.1 292.0 285.15 290.25 285.15 288.25 284.45 283.9 283.1 282.05 279.75 279.6 275.4 270.95 274.35 L261.9 274.7 Q258.0 275.5 254.6 277.6 251.1 279.75 249.75 275.55 248.4 271.75 249.45 265.3 252.3 248.4 261.5 247.85 L266.7 249.1 Q267.15 245.0 269.65 242.3 271.75 240.05 275.25 238.7 L279.4 239.8 M208.75 258.95 Q210.2 259.95 211.25 261.5 215.05 267.3 217.75 278.0 219.1 283.25 219.6 287.45 217.2 287.3 213.95 286.35 207.6 284.6 204.35 281.35 201.1 278.0 194.75 276.35 L192.85 276.0 189.1 275.3 Q187.35 272.85 186.4 269.45 184.5 263.0 188.4 259.2 L197.6 256.9 Q204.8 256.15 208.75 258.95" fill="#000000" fill-opacity="0.6" fill-rule="evenodd" stroke="none"/>
    <path d="M656.2 -244.35 L660.4 -248.95 Q665.4 -252.05 669.15 -244.35 L672.15 -238.3 676.2 -240.7 Q680.35 -242.9 681.3 -241.4 682.8 -239.1 688.2 -233.0 L693.6 -234.35 Q699.55 -235.3 701.85 -233.0 705.75 -229.25 711.05 -221.55 L714.95 -223.0 Q719.4 -224.25 721.7 -222.35 725.5 -219.25 729.25 -212.35 723.75 -215.05 714.4 -218.3 695.75 -225.05 676.7 -228.45 655.4 -232.05 652.8 -234.65 651.2 -236.25 656.2 -244.35 M577.05 -232.35 L592.45 -231.4 Q606.35 -229.5 614.05 -216.15 622.0 -202.65 637.7 -185.75 645.65 -177.25 651.85 -171.55 L650.15 -171.95 Q647.85 -172.6 645.25 -174.1 637.65 -178.5 627.4 -189.95 L603.8 -218.45 Q595.8 -227.75 577.05 -232.35 565.15 -233.4 554.6 -235.6 L574.05 -233.0 577.05 -232.35 M652.4 -41.75 Q666.2 -41.05 687.55 -44.85 L678.15 -38.15 Q665.55 -29.6 661.45 -28.8 653.2 -27.15 635.65 -36.75 611.6 -49.7 584.6 -78.35 L558.65 -91.3 Q529.75 -97.4 522.05 -97.4 517.35 -97.4 517.35 -101.6 L518.3 -105.75 Q487.05 -108.75 474.1 -111.85 466.25 -113.6 460.45 -107.95 455.05 -100.8 451.95 -98.9 449.25 -97.15 423.45 -99.15 L411.75 -99.9 Q393.7 -100.75 386.45 -98.9 L387.25 -102.95 Q385.3 -98.5 381.4 -94.1 376.9 -89.2 369.95 -84.3 386.3 -112.0 391.05 -126.3 393.75 -137.0 394.55 -138.85 395.1 -140.1 403.2 -146.15 408.75 -150.2 422.35 -157.8 433.2 -163.85 435.2 -166.7 437.1 -169.25 439.55 -174.95 442.1 -179.95 446.7 -182.65 450.45 -184.95 455.75 -188.7 460.45 -191.8 466.4 -194.1 476.4 -197.9 490.05 -209.4 L496.65 -214.4 Q503.8 -219.5 506.1 -220.05 509.35 -220.6 507.05 -217.2 504.65 -213.55 497.75 -209.4 486.15 -202.2 474.1 -193.3 466.7 -189.0 463.3 -186.8 457.5 -183.3 449.65 -173.6 433.85 -154.0 426.85 -138.45 424.15 -132.4 421.95 -121.6 419.8 -111.05 421.55 -113.35 422.5 -114.7 428.2 -115.25 434.55 -115.75 438.3 -118.75 451.8 -129.3 455.05 -132.4 458.05 -135.5 464.9 -156.0 L468.05 -149.8 Q472.5 -143.6 478.7 -143.05 L487.75 -139.25 Q483.45 -144.55 480.05 -151.85 473.15 -166.3 477.9 -175.9 L478.15 -171.15 Q478.85 -165.2 480.85 -159.95 487.05 -143.05 503.8 -137.8 500.45 -143.85 497.2 -151.45 490.85 -166.7 492.35 -174.25 493.85 -181.95 502.75 -195.75 507.2 -202.5 511.4 -207.9 L504.25 -189.0 Q497.75 -167.9 501.55 -157.5 505.3 -146.95 521.65 -127.65 529.9 -117.95 537.3 -110.35 L520.55 -141.55 543.0 -124.55 Q567.05 -106.7 574.6 -102.0 582.3 -97.15 592.15 -84.95 597.15 -78.9 600.55 -73.75 L619.3 -58.1 Q640.5 -42.3 652.4 -41.75 M108.85 -221.8 Q122.9 -222.6 129.25 -210.45 134.5 -200.75 147.9 -173.2 156.55 -157.65 164.1 -150.5 159.5 -153.75 154.5 -157.9 136.0 -173.3 128.15 -187.65 118.7 -208.45 114.8 -214.25 109.95 -221.15 100.9 -219.8 L108.85 -221.8 M120.2 -234.5 L123.15 -234.1 Q126.8 -233.15 130.6 -230.7 142.9 -223.3 152.2 -204.8 L166.15 -176.0 Q176.65 -155.9 188.0 -143.75 221.25 -108.5 271.1 -128.2 254.2 -118.45 232.45 -117.95 188.95 -116.7 164.8 -162.5 140.45 -208.3 127.9 -226.0 L120.2 -234.5 M139.65 -124.8 L149.9 -119.0 Q162.75 -112.25 175.45 -107.55 216.25 -92.4 241.35 -103.05 266.35 -113.75 287.15 -120.9 L302.95 -125.9 Q289.6 -118.75 272.85 -110.5 239.5 -93.9 223.0 -88.2 206.0 -82.25 179.25 -97.0 165.3 -104.7 139.65 -124.8 M323.2 -121.6 Q331.85 -130.9 338.05 -139.2 L329.45 -117.5 Q317.85 -82.55 324.05 -69.15 325.55 -65.9 327.5 -62.9 L327.55 -62.8 Q316.9 -58.7 304.7 -54.7 281.6 -47.1 253.45 -40.05 240.0 -36.65 225.4 -33.4 L223.45 -33.0 192.2 -26.5 Q146.95 -17.55 122.9 -2.05 L108.1 9.9 Q100.0 15.95 94.65 18.5 L88.65 21.05 Q79.0 24.5 65.55 26.45 69.05 18.45 75.65 5.8 85.75 -13.8 96.15 -31.05 99.35 -36.3 103.2 -47.5 108.5 -52.1 115.9 -61.75 122.65 -70.5 128.45 -74.45 137.5 -80.5 153.3 -83.6 182.6 -89.3 207.45 -81.85 219.9 -78.2 226.5 -73.35 L243.0 -78.2 Q263.25 -84.45 282.45 -91.6 301.75 -98.75 323.2 -121.6 M514.65 -219.65 L517.6 -228.7 Q523.4 -238.0 537.6 -239.1 L537.6 -232.2 Q533.25 -231.25 528.25 -229.35 518.3 -225.3 514.65 -219.65 M593.0 -255.85 L606.35 -262.75 Q621.05 -268.8 627.3 -265.05 633.5 -261.25 642.4 -248.7 646.85 -242.35 650.1 -236.8 L638.65 -240.6 Q630.55 -244.65 620.65 -248.55 601.1 -256.4 593.0 -255.85 M540.95 -187.75 L551.8 -179.1 Q565.0 -167.35 570.7 -156.7 L589.2 -122.0 Q601.9 -98.2 608.35 -88.2 616.5 -75.5 630.95 -64.6 640.5 -57.3 647.8 -54.85 641.45 -56.2 634.6 -59.05 612.0 -68.2 602.7 -88.2 566.35 -166.4 540.95 -187.75 M-135.9 -119.95 L-130.9 -120.75 Q-110.25 -124.4 -92.95 -134.7 -76.75 -144.25 -50.4 -145.75 -37.3 -146.45 -27.45 -145.35 -33.5 -144.95 -43.5 -142.8 -63.25 -138.6 -82.3 -130.1 -100.9 -121.7 -135.25 -119.95 L-135.9 -119.95 Q-148.45 -118.2 -158.45 -119.4 -162.9 -119.95 -135.9 -119.95 M-121.05 -106.45 Q-104.85 -104.55 -77.0 -96.2 -63.4 -92.1 -52.9 -88.35 -55.8 -71.15 -54.2 -40.1 -53.6 -28.3 -52.65 -17.8 L-52.6 -17.55 Q-59.65 -21.9 -67.5 -26.15 -80.9 -33.25 -97.2 -40.15 -112.15 -46.45 -129.5 -52.55 L-131.05 -53.1 -135.2 -54.55 -144.45 -57.65 -147.65 -58.65 -151.5 -59.9 Q-210.95 -78.8 -253.55 -81.3 -297.75 -83.9 -363.1 -104.0 -418.65 -121.05 -462.4 -141.55 -493.45 -156.15 -554.8 -198.55 -615.85 -242.05 -628.4 -250.45 -648.25 -263.8 -674.35 -270.15 -702.15 -276.9 -717.55 -270.3 -732.15 -263.7 -741.05 -260.15 -757.15 -253.55 -763.6 -253.0 L-763.55 -253.0 Q-742.8 -269.6 -725.25 -279.6 -698.65 -294.6 -683.25 -292.45 -658.65 -288.95 -634.75 -280.55 -609.9 -272.05 -596.4 -261.9 L-573.7 -242.9 Q-553.45 -225.7 -537.35 -213.85 -484.8 -174.8 -448.6 -169.0 -415.5 -163.7 -403.25 -148.45 L-395.4 -138.05 Q-390.95 -133.35 -383.1 -132.4 -376.35 -131.55 -352.85 -122.95 -335.95 -116.7 -319.05 -120.25 -300.95 -124.0 -276.25 -123.2 L-255.05 -121.7 -251.65 -116.6 Q-247.2 -110.65 -241.65 -106.05 -224.25 -91.6 -203.3 -97.4 -177.5 -104.4 -159.3 -106.45 -139.95 -108.75 -121.05 -106.45 M-39.85 -3.65 Q-29.85 7.0 -26.9 18.75 -25.55 24.7 -26.1 28.35 -39.05 40.5 -80.1 47.7 L-118.75 52.4 Q-98.65 49.45 -67.55 37.7 -42.45 28.2 -35.25 23.75 -31.75 21.6 -35.4 8.75 L-39.85 -3.65 M-39.6 -131.55 Q-41.25 -108.3 -38.65 -79.35 -33.5 -21.45 -12.2 7.0 -24.9 -3.95 -29.55 -10.0 -39.55 -23.05 -45.05 -43.9 -51.1 -66.9 -50.4 -81.85 -49.55 -98.9 -39.6 -131.55 M-13.55 52.4 Q-30.55 66.05 -67.3 69.55 L-104.7 72.95 Q-117.0 74.55 -133.6 79.8 -149.3 84.8 -164.7 86.85 L-176.95 87.8 -171.15 84.3 Q-162.25 79.95 -147.25 76.3 -134.15 73.2 -116.05 69.95 L-97.0 66.05 Q-92.95 64.95 -60.0 60.8 -26.9 53.9 -17.05 37.55 L-13.1 43.2 Q-10.0 49.55 -13.55 52.4 M-143.2 193.55 L-145.25 191.15 Q-153.2 182.2 -154.15 180.3 -155.9 176.65 -156.45 159.5 -156.85 141.7 -155.2 130.05 -153.75 120.1 -141.85 111.55 -135.75 107.25 -130.1 104.95 -143.9 109.55 -148.45 111.85 L-158.6 115.9 Q-166.45 119.15 -171.3 123.2 -176.3 127.5 -181.15 145.75 L-184.15 159.0 -178.2 124.4 Q-173.45 113.45 -152.1 104.25 -136.2 97.25 -107.25 90.1 -75.25 82.1 -18.1 74.0 L-30.7 84.4 Q-34.75 87.65 -76.05 96.05 -120.65 105.1 -123.2 106.05 -129.4 108.45 -137.25 116.55 -144.0 123.45 -146.15 127.8 -147.95 131.3 -149.3 143.45 -150.75 155.6 -150.75 166.7 -150.75 176.4 -144.4 190.7 L-143.2 193.55 Q-138.05 199.35 -138.05 201.0 -138.05 204.5 -143.2 193.55 M-189.4 181.55 Q-188.2 176.15 -184.55 172.6 -177.1 165.85 -164.25 175.85 -167.65 174.5 -172.5 174.5 -182.25 174.5 -189.4 181.55 M-172.25 242.2 L-165.9 236.8 Q-157.95 232.75 -149.4 239.9 -152.8 238.8 -157.4 238.4 -166.45 237.85 -172.25 242.2 M-176.85 220.45 Q-175.9 219.5 -174.15 218.3 -170.75 216.0 -167.4 215.15 -156.45 212.45 -149.4 226.1 -137.95 247.85 -147.1 230.7 -153.35 227.6 -160.2 224.75 -174.0 218.95 -176.85 220.45 M-189.4 205.6 Q-188.45 203.95 -186.7 201.95 -183.2 197.9 -179.15 195.6 -165.9 188.15 -151.6 201.0 -157.0 199.25 -164.4 198.95 -179.4 198.4 -189.4 205.6 M-169.95 258.15 L-165.6 253.95 Q-160.9 251.5 -153.85 253.95 L-155.75 253.55 Q-163.35 252.45 -169.95 258.15 M-124.15 238.7 Q-124.45 235.05 -122.95 231.9 -119.85 226.0 -110.5 229.65 -113.6 229.9 -116.85 231.1 -123.5 233.7 -124.15 238.7 M-135.65 227.35 Q-135.75 220.15 -132.95 214.25 -127.4 202.45 -112.95 208.95 -117.8 209.25 -123.1 211.65 -133.5 216.65 -135.65 227.35 M-115.1 252.45 Q-116.2 250.7 -115.1 248.8 -112.8 245.15 -101.35 244.35 L-115.1 252.45" fill="#070707" fill-opacity="0.2" fill-rule="evenodd" stroke="none"/>
    <path d="M629.6 -250.15 Q629.6 -251.25 628.75 -252.05 627.95 -252.75 626.9 -252.75 624.3 -252.75 624.3 -250.15 624.3 -249.1 625.0 -248.3 625.8 -247.45 626.9 -247.45 627.95 -247.45 628.75 -248.3 629.6 -249.1 629.6 -250.15 M615.0 -249.75 L620.15 -254.75 Q625.95 -259.1 628.75 -255.85 633.35 -250.45 638.65 -240.6 634.85 -237.35 630.0 -236.8 620.25 -235.85 615.0 -249.75" fill="#000000" fill-rule="evenodd" stroke="none"/>
    <path d="M629.6 -250.15 Q629.6 -249.1 628.75 -248.3 627.95 -247.45 626.9 -247.45 625.8 -247.45 625.0 -248.3 624.3 -249.1 624.3 -250.15 624.3 -252.75 626.9 -252.75 627.95 -252.75 628.75 -252.05 629.6 -251.25 629.6 -250.15" fill="#ffffff" fill-rule="evenodd" stroke="none"/>
    <path d="M615.0 -249.75 L620.15 -254.75 Q625.95 -259.1 628.75 -255.85 633.35 -250.45 638.65 -240.6 634.85 -237.35 630.0 -236.8 620.25 -235.85 615.0 -249.75 Z" fill="none" stroke="#000000" stroke-linecap="butt" stroke-linejoin="miter-clip" stroke-miterlimit="4.0" stroke-opacity="0.6" stroke-width="1.0"/>
    <path d="M391.05 -142.4 L388.75 -137.25 Q385.9 -130.2 383.5 -120.2 381.05 -110.25 371.75 -93.6 M443.95 -13.6 L443.6 -14.3 430.6 -27.3 Q399.4 -46.35 384.95 -56.2 375.9 -62.4 368.5 -71.35 L362.8 -79.0 363.3 -79.8" fill="none" stroke="#000000" stroke-linecap="butt" stroke-linejoin="miter-clip" stroke-miterlimit="4.0" stroke-width="1.0"/>
    <path d="M363.7 -80.0 L371.5 -85.25 Q383.45 -94.05 387.25 -102.95 L386.45 -98.9 Q393.7 -100.75 411.75 -99.9 L423.45 -99.15 Q449.25 -97.15 451.95 -98.9 455.05 -100.8 460.45 -107.95 466.25 -113.6 474.1 -111.85 487.05 -108.75 518.3 -105.75 L517.35 -101.6 Q517.35 -97.4 522.05 -97.4 529.75 -97.4 558.65 -91.3 L584.6 -78.35 Q611.6 -49.7 635.65 -36.75 653.2 -27.15 661.45 -28.8 669.15 -30.25 704.95 -57.7 704.95 -61.05 700.1 -62.4 L695.1 -63.1 685.9 -68.35 Q682.8 -72.95 681.3 -77.55 680.35 -80.4 669.3 -78.9 L658.5 -76.75 Q657.0 -82.15 653.1 -82.95 650.8 -83.35 647.55 -85.1 L644.7 -86.75 Q640.95 -91.3 637.95 -92.8 L629.6 -96.6 Q629.6 -103.5 630.25 -105.75 631.05 -108.05 625.0 -113.35 628.75 -101.2 618.1 -130.9 611.5 -149.25 595.0 -171.15 576.9 -193.3 570.8 -201.7 563.25 -212.2 546.1 -220.6 L530.45 -226.95 551.8 -223.0 Q568.95 -219.9 589.35 -210.75 611.6 -200.45 625.65 -188.05 638.1 -177.1 648.35 -172.65 653.5 -170.5 656.2 -170.5 677.4 -159.15 710.1 -157.35 733.75 -156.0 746.85 -159.15 753.05 -160.6 759.0 -158.85 761.95 -157.9 763.6 -156.85 L767.35 -160.6 Q769.25 -169.15 766.7 -184.4 L763.6 -197.9 Q752.65 -213.55 735.75 -225.2 L720.9 -233.7 Q719.0 -237.6 712.25 -239.1 L705.75 -239.9 Q702.95 -244.1 697.95 -244.65 L693.45 -244.35 Q691.2 -247.75 685.65 -247.45 L680.5 -246.65 Q675.8 -250.45 661.75 -254.65 L648.65 -258.15 Q646.35 -265.7 643.2 -271.1 641.35 -274.35 637.8 -273.4 L634.85 -271.8 631.75 -278.0 Q629.45 -278.0 627.0 -276.4 L625.0 -274.9 Q625.0 -282.05 620.55 -286.1 616.35 -289.9 607.45 -291.65 600.25 -293.15 597.45 -290.95 L595.95 -288.65 Q561.25 -303.8 538.55 -304.2 531.5 -304.35 526.5 -302.85 L522.85 -301.5 522.85 -297.05 Q511.65 -297.6 507.05 -296.75 500.7 -295.55 496.95 -290.85 L476.4 -286.35 Q474.9 -285.85 473.7 -283.0 L472.6 -280.15 Q454.25 -274.1 451.3 -271.8 449.4 -270.45 450.45 -267.6 451.0 -266.1 451.95 -265.05 434.4 -260.45 431.4 -260.45 429.55 -260.45 429.15 -257.35 429.0 -255.85 429.15 -254.35 L416.15 -252.05 Q414.25 -251.5 413.2 -249.1 L412.4 -246.65 Q404.0 -245.15 399.4 -240.6 394.8 -242.9 389.55 -241.4 376.6 -241.4 372.0 -243.7 363.05 -248.15 348.6 -253.7 324.3 -263.0 299.6 -268.8 266.35 -276.65 238.25 -275.3 201.1 -273.55 140.35 -256.65 126.0 -257.75 106.95 -257.45 68.85 -256.8 45.1 -249.75 9.3 -236.8 -13.95 -230.85 -54.75 -220.45 -111.85 -220.05 L-228.3 -216.15 -302.3 -212.35 Q-337.3 -211.7 -387.55 -219.25 -451.85 -229.1 -483.75 -246.65 -550.05 -283.65 -603.3 -298.95 -693.9 -325.0 -738.2 -287.05 -782.0 -249.5 -761.6 -253.3 -754.05 -254.65 -717.55 -270.3 -702.15 -276.9 -674.35 -270.15 -648.25 -263.8 -628.4 -250.45 -615.85 -242.05 -554.8 -198.55 -493.45 -156.15 -462.4 -141.55 -418.65 -121.05 -363.1 -104.0 -297.75 -83.9 -253.55 -81.3 -202.65 -78.35 -130.65 -52.95 -81.45 -35.65 -52.65 -17.8 L-51.2 -4.75 Q-88.35 0.4 -104.3 14.45 -110.1 19.7 -116.7 29.05 L-129.0 46.6 Q-139.8 60.65 -166.3 65.8 L-183.7 69.45 Q-191.8 71.85 -194.1 76.3 -198.6 85.25 -199.4 117.8 -200.05 145.35 -198.7 154.1 -197.35 161.55 -202.1 181.55 -205.85 196.95 -205.45 201.4 -205.2 205.3 -199.8 212.35 -193.05 221.55 -187.25 242.05 L-182.1 248.7 Q-177.65 257.2 -180.5 267.2 -184.0 279.6 -175.5 288.95 -166.85 298.5 -151.85 296.9 -158.35 294.6 -161.85 290.0 -168.85 280.55 -153.85 268.4 L-148.45 269.2 Q-142.8 270.5 -137.9 273.3 L-136.6 274.05 Q-119.3 284.6 -118.5 309.6 -121.2 306.5 -126.6 303.25 -137.65 296.9 -151.85 296.9 M65.4 26.85 Q81.95 24.55 94.65 18.5 100.0 15.95 108.1 9.9 L122.9 -2.05 Q146.95 -17.55 192.2 -26.5 L224.45 -33.2 Q274.2 -44.2 311.2 -57.0 319.8 -59.95 327.5 -62.9 342.75 -39.15 384.95 -30.25 402.25 -26.6 403.75 -22.0 L403.75 -18.9 Q403.75 -17.3 405.5 -16.6 411.6 -14.3 422.25 -8.9 L424.15 -2.05 Q426.85 5.15 430.6 7.0 434.4 8.9 436.3 15.15 437.4 18.1 437.5 20.8 436.05 30.65 437.5 27.55 437.9 26.9 442.25 23.1 445.9 20.0 445.9 16.9 L445.9 16.85 Q445.9 14.25 444.45 7.9 L447.1 7.15 Q452.35 5.15 453.55 1.75 455.85 -4.45 454.25 -20.4 L456.55 -17.05 Q459.25 -13.8 461.15 -14.35 464.25 -15.0 467.2 -16.6 464.9 -28.8 461.95 -31.1 458.85 -33.35 416.95 -72.95 L410.1 -76.75 Q411.05 -78.75 411.55 -81.2 412.5 -85.9 410.1 -87.4 407.8 -88.9 405.2 -91.3 L403.2 -93.5 410.6 -98.9 411.75 -99.9 M108.1 9.9 Q118.3 16.45 131.95 19.15 L139.65 25.25 Q133.7 28.35 127.75 35.25 115.75 49.3 115.2 68.75 115.05 75.5 118.45 106.45 120.35 124.4 113.7 137.35 99.65 164.4 97.9 168.85 91.95 184.65 99.95 190.6 114.4 201.55 127.5 214.35 146.25 232.75 148.7 243.25 150.2 249.6 150.2 262.05 150.3 269.45 154.1 270.7 159.8 272.6 182.75 275.0 L192.85 276.0 189.1 275.3 Q187.35 272.85 186.4 269.45 184.5 263.0 188.4 259.2 L197.6 256.9 Q204.8 256.15 208.75 258.95 L212.05 258.25 Q216.8 257.85 217.3 260.7 218.0 264.5 227.05 271.65 236.5 279.2 242.45 279.75 250.8 280.55 262.3 278.25 L261.9 274.7 Q258.0 275.5 254.6 277.6 251.1 279.75 249.75 275.55 248.4 271.75 249.45 265.3 252.3 248.4 261.5 247.85 L266.7 249.1 Q267.15 245.0 269.65 242.3 268.05 241.2 262.55 240.05 254.85 238.25 250.0 236.4 242.05 233.4 237.45 229.65 232.05 225.45 228.8 218.8 L228.7 218.6 Q225.25 211.9 222.6 210.15 219.5 208.3 204.35 204.35 188.7 200.3 182.6 193.95 176.1 187.1 173.85 170.85 171.4 152.35 176.4 132.1 182.35 108.2 198.3 84.7 213.25 62.65 221.9 36.6 228.65 16.05 228.0 7.85 L234.9 -10.55 Q234.9 -19.75 228.55 -28.35 L224.45 -33.2 M371.5 -85.25 Q372.25 -82.65 374.3 -81.3 375.5 -80.5 383.05 -68.9 390.2 -58.1 396.45 -55.4 L417.8 -46.45 Q431.15 -40.25 432.25 -36.35 L432.25 -28.8 436.3 -26.5 Q440.6 -23.4 442.1 -19.6 L443.95 -13.6 Q448.15 -5.05 446.7 -2.15 446.4 -1.6 445.7 -1.6 445.2 2.95 443.95 5.7 L444.45 7.9 M363.3 -79.8 L363.7 -80.0 M443.95 5.7 L443.6 4.2 441.3 -4.45 Q444.3 -1.7 445.7 -1.6 M65.4 26.85 L64.95 27.9 Q62.8 33.0 62.15 36.0 L61.85 37.55 Q61.05 45.5 17.0 71.2 -27.7 97.5 -60.4 108.35 -78.9 114.55 -113.35 117.9 -124.55 119.0 -129.3 121.05 -135.75 123.75 -138.05 130.1 -143.6 144.8 -141.85 159.4 -139.95 175.2 -130.1 179.25 -121.2 183.05 -116.85 192.75 -114.3 198.7 -112.95 208.95 -111.85 217.9 -106.6 228.15 -100.1 240.55 -92.4 242.05 -85.25 243.55 -81.85 247.45 -80.1 249.5 -79.85 251.25 L-80.4 252.35 -77.95 252.3 Q-70.55 252.6 -64.6 254.75 -45.4 261.65 -47.55 284.45 -50.4 282.15 -56.9 280.55 -68.3 277.8 -83.8 280.3 L-83.2 282.05 Q-90.1 284.35 -97.65 286.1 -112.8 289.45 -116.45 286.65 -118.75 284.9 -122.95 271.65 -126.85 259.9 -131.3 259.2 L-139.3 258.15 -137.9 273.3 M228.7 218.6 L230.0 219.65 Q237.7 224.9 243.95 224.9 253.65 224.9 264.6 227.2 277.95 230.05 279.05 234.1 279.55 236.15 279.4 239.8 L290.25 242.75 Q305.1 249.5 304.2 263.8 L300.4 263.8 Q296.75 261.35 291.9 259.6 287.15 257.95 283.2 258.05 294.05 268.1 292.0 285.15 290.25 285.15 288.25 284.45 283.9 283.1 282.05 279.75 279.6 275.4 270.95 274.35 L261.9 274.7 M269.65 242.3 Q271.75 240.05 275.25 238.7 L279.4 239.8 M266.7 249.1 L266.75 249.1 Q273.1 250.95 278.25 254.2 281.0 255.95 283.2 258.05 M208.75 258.95 Q210.2 259.95 211.25 261.5 215.05 267.3 217.75 278.0 219.1 283.25 219.6 287.45 217.2 287.3 213.95 286.35 207.6 284.6 204.35 281.35 201.1 278.0 194.75 276.35 L192.85 276.0 M-83.8 280.3 L-87.7 280.95 Q-92.0 275.3 -93.65 268.8 -97.15 255.95 -84.15 252.45 L-80.4 252.35" fill="none" stroke="#000000" stroke-linecap="round" stroke-linejoin="miter-clip" stroke-miterlimit="4.0" stroke-width="1.0"/>
    <path d="M371.75 -93.6 L363.7 -80.0 M-52.65 -17.8 Q-53.6 -28.3 -54.2 -40.1 -56.2 -79.0 -51.2 -96.2 M327.5 -62.9 Q325.55 -65.9 324.05 -69.15 317.85 -82.55 329.45 -117.5 L342.3 -149.95 M441.3 -4.45 L432.9 -13.5" fill="none" stroke="#000000" stroke-linecap="round" stroke-linejoin="miter-clip" stroke-miterlimit="4.0" stroke-width="1.0"/>
    <path d="M120.2 -111.05 L112.1 -77.55 Q102.65 -41.75 96.15 -31.05 85.75 -13.8 75.65 5.8 68.9 18.75 65.4 26.85" fill="none" stroke="#000000" stroke-linecap="butt" stroke-linejoin="miter-clip" stroke-miterlimit="4.0" stroke-width="1.0"/>
  </g>
</svg>
