<?xml version="1.0" encoding="UTF-8" standalone="no"?>
<svg xmlns:xlink="http://www.w3.org/1999/xlink" height="59.9px" width="62.05px" xmlns="http://www.w3.org/2000/svg">
  <g transform="matrix(1.0, 0.0, 0.0, 1.0, 38.65, 55.4)">
    <path d="M-19.0 -53.5 Q-13.1 -50.65 -16.55 -46.9 -11.7 -46.65 -12.8 -43.5 -13.35 -41.85 -16.65 -37.85 L-18.2 -35.65 -19.15 -32.75 Q-19.55 -31.95 -21.9 -31.25 -25.45 -30.3 -29.85 -32.75 -32.5 -34.25 -36.75 -37.85 -38.55 -39.35 -38.65 -40.05 L-38.4 -42.5 -37.7 -46.65 Q-37.0 -49.95 -34.95 -50.35 -31.5 -51.05 -30.3 -51.85 -29.75 -52.3 -29.2 -53.65 -28.9 -54.9 -27.8 -55.15 -24.35 -56.15 -19.0 -53.5" fill="#ffffff" fill-opacity="0.4" fill-rule="evenodd" stroke="none"/>
    <path d="M15.65 -16.65 Q21.55 -14.9 23.05 -7.45 24.45 0.1 19.9 4.25 19.9 -4.45 19.5 -6.2 18.1 -12.55 12.2 -9.5 9.6 -8.15 8.75 -3.05 7.95 2.3 5.75 3.7 0.95 6.85 0.95 -2.25 1.2 -9.95 4.35 -13.9 8.35 -18.75 15.65 -16.65" fill="#ffffff" fill-opacity="0.4" fill-rule="evenodd" stroke="none"/>
  </g>
</svg>
