<?xml version="1.0" encoding="UTF-8" standalone="no"?>
<svg xmlns:xlink="http://www.w3.org/1999/xlink" height="89.3px" width="210.75px" xmlns="http://www.w3.org/2000/svg">
  <g transform="matrix(1.0, 0.0, 0.0, 1.0, 105.25, 44.65)">
    <path d="M-28.9 -2.75 L-28.9 9.95 -26.6 9.95 Q-24.05 10.7 -22.5 12.75 -21.7 13.75 -21.4 14.6 L-21.4 28.95 74.75 31.75 84.55 -27.85 99.05 -27.85 97.9 32.4 103.1 32.55 104.8 37.75 -21.4 37.75 -21.4 44.15 -77.55 44.15 Q-79.7 43.8 -81.15 42.75 L-82.15 41.8 -82.15 39.55 Q-96.25 39.65 -101.85 38.25 -103.85 37.75 -104.5 37.15 L-104.75 36.6 -92.6 0.7 Q-91.9 -0.75 -90.15 -1.9 L-88.55 -2.75 -28.9 -2.75 M-98.4 -41.85 Q-98.4 -42.8 -88.05 -43.45 -77.6 -44.15 -63.05 -44.15 -48.5 -44.15 -38.1 -43.45 -27.75 -42.8 -27.75 -41.85 -27.75 -40.9 -38.1 -40.2 -48.35 -39.55 -63.05 -39.55 -77.75 -39.55 -88.05 -40.2 -98.4 -40.9 -98.4 -41.85 M-21.4 28.95 L-21.4 37.75 -21.4 28.95 M-82.15 39.55 L-82.15 12.85 Q-80.0 10.7 -77.7 10.1 L-75.8 9.95 -28.9 9.95 -75.8 9.95 -77.7 10.1 Q-80.0 10.7 -82.15 12.85 L-82.15 39.55 M74.75 31.75 L97.9 32.4 74.75 31.75" fill="#ffffff" fill-opacity="0.0" fill-rule="evenodd" stroke="none"/>
    <path d="M-88.55 -2.75 Q-88.35 -3.45 -82.05 -4.65 L-75.8 -5.65 -75.8 -7.4 -67.7 -7.4 -57.85 -7.4 -50.35 -7.4 -50.35 -6.1 -43.0 -6.25 -28.9 -2.75 -88.55 -2.75 M-67.7 -9.7 L-70.0 -9.7 -70.0 -25.35 -65.65 -25.35 Q-65.55 -26.95 -65.9 -28.75 -66.85 -34.15 -71.95 -36.7 L-88.05 -37.3 Q-98.4 -38.0 -98.4 -38.95 L-98.4 -41.85 Q-98.4 -40.9 -88.05 -40.2 -77.75 -39.55 -63.05 -39.55 -48.35 -39.55 -38.1 -40.2 -27.75 -40.9 -27.75 -41.85 L-27.75 -38.95 Q-27.75 -38.0 -38.1 -37.3 L-53.55 -36.7 Q-58.7 -34.15 -59.65 -28.75 -59.95 -26.95 -59.85 -25.35 L-54.95 -25.35 -54.95 -9.7 -57.85 -9.7 -67.7 -9.7 M-53.55 -36.7 L-63.05 -36.65 -71.95 -36.7 -63.05 -36.65 -53.55 -36.7 M-50.35 -5.65 L-50.35 -6.1 -50.35 -5.65 -75.8 -5.65 -50.35 -5.65 M-59.85 -25.35 L-65.65 -25.35 -59.85 -25.35" fill="#000000" fill-opacity="0.2" fill-rule="evenodd" stroke="none"/>
    <path d="M-67.7 -7.4 L-67.7 -9.7 -57.85 -9.7 -57.85 -7.4 -67.7 -7.4" fill="#000000" fill-opacity="0.4" fill-rule="evenodd" stroke="none"/>
    <path d="M-28.9 -2.75 L-28.9 9.95 -26.6 9.95 Q-24.05 10.7 -22.5 12.75 -21.7 13.75 -21.4 14.6 L-21.4 28.95 74.75 31.75 84.55 -27.85 99.05 -27.85 97.9 32.4 103.1 32.55 104.8 37.75 -21.4 37.75 -21.4 44.15 -77.55 44.15 Q-79.7 43.8 -81.15 42.75 L-82.15 41.8 -82.15 39.55 Q-96.25 39.65 -101.85 38.25 -103.85 37.75 -104.5 37.15 L-104.75 36.6 -92.6 0.7 Q-91.9 -0.75 -90.15 -1.9 L-88.55 -2.75 Q-88.35 -3.45 -82.05 -4.65 L-75.8 -5.65 -75.8 -7.4 -67.7 -7.4 -67.7 -9.7 -70.0 -9.7 -70.0 -25.35 -65.65 -25.35 Q-65.55 -26.95 -65.9 -28.75 -66.85 -34.15 -71.95 -36.7 L-88.05 -37.3 Q-98.4 -38.0 -98.4 -38.95 L-98.4 -41.85 Q-98.4 -42.8 -88.05 -43.45 -77.6 -44.15 -63.05 -44.15 -48.5 -44.15 -38.1 -43.45 -27.75 -42.8 -27.75 -41.85 L-27.75 -38.95 Q-27.75 -38.0 -38.1 -37.3 L-53.55 -36.7 Q-58.7 -34.15 -59.65 -28.75 -59.95 -26.95 -59.85 -25.35 L-54.95 -25.35 -54.95 -9.7 -57.85 -9.7 -57.85 -7.4 -50.35 -7.4 -50.35 -6.1 -43.0 -6.25 -28.9 -2.75" fill="none" stroke="#000000" stroke-linecap="round" stroke-linejoin="miter-clip" stroke-miterlimit="10.0" stroke-width="1.0"/>
    <path d="M-28.9 -2.75 L-88.55 -2.75 M-27.75 -41.85 Q-27.75 -40.9 -38.1 -40.2 -48.35 -39.55 -63.05 -39.55 -77.75 -39.55 -88.05 -40.2 -98.4 -40.9 -98.4 -41.85 M-71.95 -36.7 L-63.05 -36.65 -53.55 -36.7 M-65.65 -25.35 L-59.85 -25.35 M-57.85 -9.7 L-67.7 -9.7 M-67.7 -7.4 L-57.85 -7.4" fill="none" stroke="#000000" stroke-linecap="round" stroke-linejoin="miter-clip" stroke-miterlimit="10.0" stroke-opacity="0.4" stroke-width="1.0"/>
    <path d="M-50.35 -6.1 L-50.35 -5.65" fill="none" stroke="#000000" stroke-linecap="round" stroke-linejoin="miter-clip" stroke-miterlimit="10.0" stroke-width="1.0"/>
    <path d="M-50.35 -5.65 L-75.8 -5.65" fill="none" stroke="#000000" stroke-linecap="butt" stroke-linejoin="miter-clip" stroke-miterlimit="10.0" stroke-opacity="0.4" stroke-width="1.0"/>
    <path d="M-21.4 37.75 L-21.4 28.95 M-28.9 9.95 L-75.8 9.95 -77.7 10.1 Q-80.0 10.7 -82.15 12.85 L-82.15 39.55 M97.9 32.4 L74.75 31.75" fill="none" stroke="#000000" stroke-linecap="round" stroke-linejoin="miter-clip" stroke-miterlimit="10.0" stroke-opacity="0.6" stroke-width="1.0"/>
    <path d="M-88.65 -0.15 L-87.55 -0.6 Q-88.3 -0.1 -88.65 1.45 L-88.9 3.4 -99.35 36.6 -102.45 35.85 -90.85 2.25 Q-90.4 0.8 -88.65 -0.15" fill="#ffffff" fill-opacity="0.8" fill-rule="evenodd" stroke="none"/>
  </g>
</svg>
