<?xml version="1.0" encoding="UTF-8" standalone="no"?>
<svg xmlns:xlink="http://www.w3.org/1999/xlink" height="47.65px" width="151.95px" xmlns="http://www.w3.org/2000/svg">
  <g transform="matrix(1.0, 0.0, 0.0, 1.0, 75.95, 23.8)">
    <path d="M-61.65 -19.3 L-49.95 22.45 -49.95 22.55 Q-53.4 23.4 -58.0 22.7 L-58.05 22.7 -59.7 17.8 Q-60.75 14.3 -61.4 13.1 L-63.35 13.05 -65.15 13.2 -66.1 18.25 Q-66.6 21.95 -67.25 23.4 L-67.4 23.45 -69.8 23.6 -75.85 23.85 -75.95 23.8 -74.1 9.3 Q-71.9 -6.65 -69.0 -18.6 L-66.9 -18.8 -61.65 -19.3 M-61.5 5.9 Q-63.85 -7.9 -64.65 -6.35 -64.95 -5.7 -65.95 6.15 L-61.5 5.9" fill="#ffffff" fill-opacity="0.0" fill-rule="evenodd" stroke="none"/>
    <path d="M-42.55 -7.15 L-42.85 -6.55 -43.15 -1.15 Q-43.3 4.35 -43.05 7.3 -42.65 11.15 -40.25 11.75 -39.15 11.9 -38.25 11.45 -37.25 11.0 -36.8 10.1 -36.4 9.2 -36.35 7.7 L-36.2 5.25 -32.95 5.3 -29.7 5.55 Q-28.05 10.65 -30.9 15.05 -33.9 19.55 -39.15 19.7 -43.1 20.25 -46.2 18.75 -49.8 17.0 -50.2 13.25 -50.55 6.2 -50.35 -6.95 -50.55 -8.4 -49.8 -10.2 -48.9 -12.8 -47.1 -14.45 -46.1 -15.15 -44.65 -15.55 -37.9 -17.75 -32.65 -12.85 -27.3 -7.95 -29.65 -1.3 L-33.15 -1.0 -36.75 -1.5 Q-36.8 -4.45 -37.15 -5.75 -37.7 -8.05 -40.15 -7.95 L-41.45 -7.75 Q-42.2 -7.55 -42.55 -7.15" fill="#ffffff" fill-opacity="0.0" fill-rule="evenodd" stroke="none"/>
    <path d="M-25.35 -21.25 Q-24.25 -21.0 -21.45 -21.2 L-17.65 -21.05 Q-17.35 -18.65 -17.1 -12.85 -16.9 -7.9 -16.35 -5.05 L-16.3 -5.05 -13.05 -4.85 -9.75 -5.1 -9.7 -5.1 Q-9.1 -12.05 -9.45 -21.0 L-5.4 -21.65 -1.1 -21.7 0.55 20.9 -4.0 21.2 -7.95 21.3 -8.05 21.3 Q-8.45 18.5 -8.55 12.85 -8.6 7.0 -8.95 4.5 L-9.0 4.45 Q-12.65 3.75 -16.05 4.55 -16.3 7.05 -16.15 12.9 -16.05 18.1 -16.45 20.9 L-20.75 21.2 Q-24.0 20.9 -24.7 21.25 L-25.4 2.1 Q-25.75 -12.5 -25.55 -21.2 L-25.55 -21.25 -25.35 -21.25" fill="#ffffff" fill-opacity="0.0" fill-rule="evenodd" stroke="none"/>
    <path d="M29.85 -11.05 L29.9 -5.65 29.8 -0.05 29.65 5.45 29.5 7.25 Q29.25 11.7 27.45 14.6 25.8 16.85 21.8 17.9 19.15 18.75 15.6 18.5 12.9 18.2 11.4 17.55 9.3 16.6 8.45 14.65 7.2 12.5 7.15 8.6 L6.75 0.1 Q6.6 -4.85 6.85 -8.45 7.0 -14.6 9.75 -17.75 L11.0 -18.7 Q14.7 -20.55 19.05 -20.35 23.65 -20.1 26.7 -17.75 28.3 -16.3 28.95 -14.45 L29.85 -11.05 M15.75 -11.8 Q13.8 -10.3 13.2 -8.05 12.35 -4.3 12.7 0.85 L13.05 4.75 Q13.3 7.1 13.7 8.5 14.75 10.7 17.55 10.9 20.25 11.15 21.9 9.2 22.8 8.1 22.9 7.25 L23.0 4.25 23.1 -1.15 22.8 -7.95 Q22.65 -9.55 21.95 -10.75 21.2 -12.0 19.95 -12.55 L17.7 -12.75 Q16.65 -12.55 15.75 -11.8" fill="#ffffff" fill-opacity="0.0" fill-rule="evenodd" stroke="none"/>
    <path d="M39.6 -21.7 Q43.5 -23.05 47.85 -22.3 52.35 -21.55 55.1 -18.85 56.5 -17.25 56.95 -15.3 57.4 -13.8 57.4 -11.85 57.35 -9.5 56.9 -6.5 L56.1 -0.95 55.35 4.55 54.95 6.3 Q54.15 10.7 52.05 13.35 50.15 15.4 46.1 16.0 L39.9 15.8 Q37.2 15.25 35.8 14.4 33.85 13.25 33.15 11.2 32.2 8.85 32.6 5.05 L33.25 -3.45 Q33.65 -8.35 34.3 -11.95 35.1 -18.05 38.25 -20.85 L39.6 -21.7 M40.5 -10.85 Q39.35 -7.3 39.0 -2.05 L38.95 1.9 Q38.9 4.25 39.15 5.7 39.95 7.95 42.65 8.5 45.3 9.05 47.25 7.4 48.2 6.35 48.4 5.55 L48.9 2.6 49.95 -6.5 Q49.95 -8.35 50.1 -9.6 50.15 -11.15 49.55 -12.45 48.95 -13.75 47.8 -14.5 45.8 -15.65 43.5 -14.25 41.4 -13.0 40.5 -10.85" fill="#ffffff" fill-opacity="0.0" fill-rule="evenodd" stroke="none"/>
    <path d="M68.8 -23.8 L72.45 -23.35 Q74.75 -23.0 76.0 -22.3 70.75 -0.85 69.0 8.75 L65.25 8.1 61.4 7.3 61.35 7.3 64.8 -8.2 Q66.85 -17.75 68.6 -23.8 L68.8 -23.8 M61.2 10.4 Q62.45 10.25 64.7 10.85 L68.4 11.9 66.6 18.9 64.0 18.25 63.9 18.2 59.45 17.3 Q59.15 17.2 59.95 14.65 L61.2 10.45 61.2 10.4" fill="#ffffff" fill-opacity="0.0" fill-rule="evenodd" stroke="none"/>
  </g>
</svg>
