<?xml version="1.0" encoding="UTF-8" standalone="no"?>
<svg xmlns:xlink="http://www.w3.org/1999/xlink" height="427.25px" width="274.3px" xmlns="http://www.w3.org/2000/svg">
  <g transform="matrix(1.0, 0.0, 0.0, 1.0, 137.15, 213.65)">
    <path d="M127.15 -198.4 L127.2 -198.4 126.05 -195.3 119.3 -192.9 118.2 -190.4 118.15 -190.4 -118.15 -190.4 118.15 -190.4 112.55 -178.15 -112.55 -178.15 -118.15 -190.4 -118.2 -190.4 -119.3 -192.9 -126.05 -195.3 -127.2 -198.4 -127.15 -198.4 -130.45 -207.65 -135.95 -213.15 135.95 -213.15 130.45 -207.65 127.15 -198.4 -127.15 -198.4 127.15 -198.4" fill="#000000" fill-opacity="0.003921569" fill-rule="evenodd" stroke="none"/>
    <path d="M65.2 205.6 L65.2 -131.3 -67.05 -131.3 -67.05 205.6 65.2 205.6 -67.05 205.6 -67.05 -131.3 65.2 -131.3 65.2 205.6 M71.95 213.1 L-71.95 213.1 -71.95 -138.8 71.95 -138.8 71.95 213.1 M-43.05 16.85 L-57.8 16.85 -57.8 56.85 -43.05 56.85 -43.05 16.85 M-38.65 -41.6 Q-8.75 -104.85 41.5 -130.5 L-66.25 -130.5 -66.25 48.9 Q-58.0 -0.75 -38.65 -41.6" fill="#ffffff" fill-opacity="0.003921569" fill-rule="evenodd" stroke="none"/>
    <path d="M-43.05 16.85 L-43.05 56.85 -57.8 56.85 -57.8 16.85 -43.05 16.85" fill="#ffffff" fill-opacity="0.0" fill-rule="evenodd" stroke="none"/>
    <path d="M-38.65 -41.6 Q-58.0 -0.75 -66.25 48.9 L-66.25 -130.5 41.5 -130.5 Q-8.75 -104.85 -38.65 -41.6" fill="#000000" fill-opacity="0.2" fill-rule="evenodd" stroke="none"/>
    <path d="M118.15 -190.4 L118.2 -190.4 119.3 -192.9 126.05 -195.3 127.2 -198.4 127.15 -198.4 130.45 -207.65 135.95 -213.15 -135.95 -213.15 -130.45 -207.65 -127.15 -198.4 -127.2 -198.4 -126.05 -195.3 -119.3 -192.9 -118.2 -190.4 -118.15 -190.4 -112.55 -178.15 112.55 -178.15 118.15 -190.4" fill="none" stroke="#000000" stroke-linecap="butt" stroke-linejoin="miter-clip" stroke-miterlimit="4.0" stroke-width="1.0"/>
    <path d="M127.15 -198.4 L-127.15 -198.4 M-118.15 -190.4 L118.15 -190.4 M65.2 205.6 L-67.05 205.6 -67.05 -131.3 65.2 -131.3 65.2 205.6" fill="none" stroke="#000000" stroke-linecap="butt" stroke-linejoin="miter-clip" stroke-miterlimit="4.0" stroke-opacity="0.4" stroke-width="1.0"/>
    <path d="M71.95 213.1 L-71.95 213.1 -71.95 -138.8 71.95 -138.8 71.95 213.1 M-43.05 16.85 L-43.05 56.85 -57.8 56.85 -57.8 16.85 -43.05 16.85" fill="none" stroke="#000000" stroke-linecap="butt" stroke-linejoin="miter-clip" stroke-miterlimit="4.0" stroke-opacity="0.6" stroke-width="1.0"/>
  </g>
</svg>
