<?xml version="1.0" encoding="UTF-8" standalone="no"?>
<svg xmlns:xlink="http://www.w3.org/1999/xlink" height="2741.6px" width="6338.0px" xmlns="http://www.w3.org/2000/svg">
  <g transform="matrix(1.0, 0.0, 0.0, 1.0, 3168.7, 1370.75)">
    <path d="M1947.2 -1024.0 Q2006.3 -1014.55 2227.15 -742.9 2338.2 -605.85 2436.25 -472.4 L3168.6 1370.35 Q2573.3 1350.25 2156.3 1342.0 1838.55 1334.9 1623.55 1334.9 1575.15 1334.9 1534.95 1336.1 1468.8 1336.1 1427.5 1338.45 L1225.5 1343.2 Q1030.6 1343.2 711.65 1336.1 588.8 1333.75 488.4 1332.55 L328.95 1329.0 Q97.4 1323.1 41.9 1323.1 -248.7 1323.1 -596.0 1303.0 -1098.0 1273.5 -1468.9 1212.05 -2227.25 1085.65 -2334.75 975.8 -2358.4 952.2 -2552.1 945.1 -2738.75 936.85 -2791.9 865.95 -2850.95 786.8 -2790.7 714.75 L-2719.85 659.25 Q-2760.0 659.25 -2804.9 658.05 L-2832.05 656.9 -2900.55 653.35 Q-2984.45 647.45 -3043.5 636.8 -3047.05 636.8 -3050.6 635.6 -3303.35 589.55 -3012.8 472.6 -2879.3 407.65 -2756.45 349.75 -2515.5 232.8 -2429.25 204.45 -2351.3 178.5 -2061.9 47.35 -1757.15 -90.85 -1705.15 -110.9 -1666.2 -125.1 -1576.4 -201.9 -1459.45 -307.0 -1386.25 -368.45 -1095.65 -616.5 -855.85 -708.65 -567.65 -819.65 -278.25 -973.25 -12.45 -1113.8 26.55 -1165.75 73.8 -1228.35 310.05 -1370.1 435.25 -1260.25 499.05 -1228.35 501.4 -1227.2 506.1 -1226.0 514.4 -1223.65 528.55 -1223.65 553.35 -1223.65 592.35 -1230.75 643.15 -1241.35 718.75 -1263.8 L749.45 -1273.25 Q827.4 -1298.05 892.4 -1322.85 L1128.6 -1244.9 Q1309.35 -1192.95 1503.1 -1139.8 1888.15 -1033.45 1947.2 -1024.0" fill="#ffffff" fill-opacity="0.0" fill-rule="evenodd" stroke="none"/>
    <path d="M1947.2 -1024.0 Q2006.3 -1014.55 2227.15 -742.9 2338.2 -605.85 2436.25 -472.4 L3168.6 1370.35 Q2573.3 1350.25 2156.3 1342.0 1838.55 1334.9 1623.55 1334.9 1575.15 1334.9 1534.95 1336.1 1468.8 1336.1 1427.5 1338.45 L1225.5 1343.2 Q1030.6 1343.2 711.65 1336.1 588.8 1333.75 488.4 1332.55 L328.95 1329.0 Q97.4 1323.1 41.9 1323.1 -248.7 1323.1 -596.0 1303.0 -1098.0 1273.5 -1468.9 1212.05 -2227.25 1085.65 -2334.75 975.8 -2358.4 952.2 -2552.1 945.1 -2738.75 936.85 -2791.9 865.95 -2850.95 786.8 -2790.7 714.75 L-2719.85 659.25 Q-2760.0 659.25 -2804.9 658.05 L-2832.05 656.9 -2900.55 653.35 Q-2984.45 647.45 -3043.5 636.8 -3047.05 636.8 -3050.6 635.6 -3303.35 589.55 -3012.8 472.6 -2879.3 407.65 -2756.45 349.75 -2515.5 232.8 -2429.25 204.45 -2351.3 178.5 -2061.9 47.35 -1757.15 -90.85 -1705.15 -110.9 -1666.2 -125.1 -1576.4 -201.9 -1459.45 -307.0 -1386.25 -368.45 -1095.65 -616.5 -855.85 -708.65 -567.65 -819.65 -278.25 -973.25 -12.45 -1113.8 26.55 -1165.75 73.8 -1228.35 310.05 -1370.1 435.25 -1260.25 499.05 -1228.35 501.4 -1227.2 506.1 -1226.0 514.4 -1223.65 528.55 -1223.65 553.35 -1223.65 592.35 -1230.75 643.15 -1241.35 718.75 -1263.8 L749.45 -1273.25 Q827.4 -1298.05 892.4 -1322.85 L1128.6 -1244.9 Q1309.35 -1192.95 1503.1 -1139.8 1888.15 -1033.45 1947.2 -1024.0 Z" fill="none" stroke="#000000" stroke-linecap="butt" stroke-linejoin="miter-clip" stroke-miterlimit="4.0" stroke-width="1.0"/>
    <path d="M-2115.05 567.1 L-2429.25 692.3 -2634.8 614.35 -2719.85 659.25 -2873.4 654.5 Q-3042.3 645.05 -3115.55 619.1 -2880.5 609.65 -2712.75 582.45 -2594.65 562.4 -2350.1 452.55 L-2130.4 346.2 Q-2024.1 278.9 -1903.6 210.35 -1663.8 72.15 -1595.3 62.7 -1526.8 53.25 -1314.15 -11.7 -1075.55 -87.3 -997.6 -110.9 -840.5 -158.15 -336.1 -347.15 -418.8 -291.65 -510.95 -234.95 -696.4 -120.35 -746.0 -110.9 -794.45 -100.3 -976.35 -37.7 -1072.0 -3.45 -1217.3 47.35 -1275.2 66.25 -1484.25 174.95 -1595.3 231.65 -1752.4 314.3 -1846.9 361.55 -2115.05 567.1 L-2000.45 563.55 Q-1867.0 555.3 -1767.75 535.2 -1692.15 519.85 -1525.6 453.7 -1353.15 386.4 -1248.0 361.55 -1137.0 335.6 -762.55 228.1 -370.35 114.7 -288.85 94.6 -170.75 65.1 254.5 -167.6 467.15 -283.4 656.15 -394.4 L800.25 -530.25 Q953.8 -667.3 1002.25 -677.9 1051.85 -687.35 906.55 -510.2 L750.65 -330.65 293.5 0.1 -729.45 771.45 -179.0 739.55 Q136.4 676.95 183.65 661.6 230.9 645.05 -20.7 834.05 L419.9 850.6 Q813.25 692.3 892.4 645.05 958.55 606.1 1231.4 483.25 1514.9 356.85 1569.25 346.2 1618.85 336.75 1780.65 174.95 1861.0 94.6 1931.85 15.45 L2120.85 -377.9 Q2235.45 -173.55 2345.3 39.1 2566.2 464.35 2546.1 503.3 2526.05 543.5 2298.05 673.4 2165.75 747.85 2026.35 818.7 1987.4 838.8 1892.9 941.55 L1805.45 1039.6 1601.1 1212.05 1396.75 992.35 1255.0 897.85 1191.25 1149.45 1043.6 1342.0 Q899.45 1340.8 711.65 1336.1 L193.1 1325.45 237.95 1325.45 183.65 1243.95 89.15 865.95 -52.6 1039.6 -351.45 1149.45 -445.95 1023.05 -572.35 913.2 -634.95 771.45 -1139.35 897.85 Q-1177.15 907.3 -1239.75 958.1 -1271.65 984.1 -1295.25 1007.7 L-1815.0 1134.1 -1815.0 1148.25 Q-2000.45 1110.45 -2122.15 1073.85 L-2067.8 975.8 -2115.05 567.1" fill="#000000" fill-opacity="0.09803922" fill-rule="evenodd" stroke="none"/>
    <path d="M-445.95 1023.05 L-351.45 1149.45 -52.6 1039.6 89.15 865.95 183.65 1243.95 237.95 1325.45 41.9 1323.1 Q-248.7 1323.1 -596.0 1303.0 -1098.0 1273.5 -1468.9 1212.05 -1665.0 1181.35 -1815.0 1148.25 L-1815.0 1134.1 -1295.25 1007.7 Q-1271.65 984.1 -1239.75 958.1 -1177.15 907.3 -1139.35 897.85 L-634.95 771.45 -572.35 913.2 -445.95 1023.05 M-2429.25 692.3 L-2115.05 567.1 -2067.8 975.8 -2122.15 1073.85 Q-2291.05 1021.9 -2334.75 975.8 -2358.4 952.2 -2552.1 945.1 -2738.75 936.85 -2791.9 865.95 -2850.95 786.8 -2790.7 714.75 L-2719.85 659.25 -2634.8 614.35 -2429.25 692.3 M2376.0 -552.7 L2436.25 -472.4 3168.6 1370.35 Q1742.85 1323.1 1427.5 1338.45 1316.45 1344.35 1043.6 1342.0 L1191.25 1149.45 1255.0 897.85 1396.75 992.35 1601.1 1212.05 1805.45 1039.6 1892.9 941.55 Q1987.4 838.8 2026.35 818.7 2165.75 747.85 2298.05 673.4 2526.05 543.5 2546.1 503.3 2566.2 464.35 2345.3 39.1 2235.45 -173.55 2120.85 -377.9 L2376.0 -552.7 M246.25 -1197.65 L310.05 -1370.1 Q435.25 -1260.25 499.05 -1228.35 538.0 -1209.45 718.75 -1263.8 809.7 -1291.0 892.4 -1322.85 L923.1 -1313.4 703.4 -1197.65 404.55 -1086.6 183.65 -866.9 -462.5 -661.4 Q-256.95 -803.15 -179.0 -850.4 -143.55 -871.65 -17.15 -973.25 96.2 -1063.0 121.05 -1071.25 168.3 -1086.6 246.25 -1197.65 M1491.25 -921.25 Q1364.85 -944.9 1333.0 -944.9 1294.0 -944.9 1144.0 -913.0 L1002.25 -882.25 499.05 -677.9 183.65 -708.65 529.75 -803.15 Q593.5 -819.65 797.9 -914.15 L1113.25 -1071.25 1256.2 -1068.9 Q1409.75 -1065.35 1459.35 -1055.9 1514.9 -1044.1 1757.05 -1071.25 1902.35 -1032.3 1947.2 -1024.0 1992.1 -1015.75 2132.7 -855.1 2070.05 -863.35 2058.25 -866.9 2015.75 -877.55 1852.7 -888.2 1708.6 -897.65 1648.35 -897.65 1617.65 -897.65 1491.25 -921.25" fill="#000000" fill-opacity="0.2" fill-rule="evenodd" stroke="none"/>
  </g>
</svg>
