<?xml version="1.0" encoding="UTF-8" standalone="no"?>
<svg xmlns:xlink="http://www.w3.org/1999/xlink" height="244.3px" width="137.4px" xmlns="http://www.w3.org/2000/svg">
  <g transform="matrix(1.0, 0.0, 0.0, 1.0, 59.7, 121.4)">
    <path d="M-59.2 120.9 Q-58.4 25.7 -58.4 -70.3 -58.4 -100.7 -32.0 -113.5 -18.4 -119.9 -5.6 -120.7 32.8 -123.1 49.6 -96.7 58.4 -83.1 59.2 -69.5 L57.6 120.9 -59.2 120.9" fill="#ffffff" fill-opacity="0.0" fill-rule="evenodd" stroke="none"/>
    <path d="M-59.2 120.9 L57.6 120.9 59.2 -69.5 Q58.4 -83.1 49.6 -96.7 32.8 -123.1 -5.6 -120.7 -18.4 -119.9 -32.0 -113.5 -58.4 -100.7 -58.4 -70.3 -58.4 25.7 -59.2 120.9 Z" fill="none" stroke="#000000" stroke-linecap="butt" stroke-linejoin="miter-clip" stroke-miterlimit="4.0" stroke-width="1.0"/>
    <path d="M-29.6 -27.9 Q-29.6 -58.3 -3.2 -71.1 10.4 -77.5 23.2 -78.3 41.6 -79.9 58.4 -72.7 L59.2 -69.5 57.6 120.9 -30.4 120.9 -29.6 -27.9" fill="#000000" fill-opacity="0.2" fill-rule="evenodd" stroke="none"/>
    <path d="M49.6 -96.7 Q32.8 -123.1 -5.6 -120.7 -18.4 -119.9 -32.0 -113.5 -58.4 -100.7 -58.4 -70.3 L-59.2 120.9 57.6 120.9 59.2 -69.5 Q58.4 -83.1 49.6 -96.7 Z" fill="none" stroke="#000000" stroke-linecap="butt" stroke-linejoin="miter-clip" stroke-miterlimit="4.0" stroke-opacity="0.6" stroke-width="1.0"/>
    <path d="M-59.2 -67.9 L59.2 -67.9" fill="none" stroke="#000000" stroke-linecap="butt" stroke-linejoin="miter-clip" stroke-miterlimit="4.0" stroke-opacity="0.4" stroke-width="1.0"/>
    <path d="M-59.2 29.7 L58.4 29.7" fill="none" stroke="#000000" stroke-linecap="butt" stroke-linejoin="miter-clip" stroke-miterlimit="4.0" stroke-opacity="0.4" stroke-width="1.0"/>
    <path d="M-33.6 -112.7 Q-16.8 -90.3 -0.8 -67.9 L-0.8 120.9" fill="none" stroke="#000000" stroke-linecap="butt" stroke-linejoin="miter-clip" stroke-miterlimit="4.0" stroke-opacity="0.4" stroke-width="1.0"/>
    <path d="M33.6 -112.7 Q16.8 -90.3 -0.8 -67.9" fill="none" stroke="#000000" stroke-linecap="butt" stroke-linejoin="miter-clip" stroke-miterlimit="4.0" stroke-opacity="0.4" stroke-width="1.0"/>
  </g>
</svg>
