<?xml version="1.0" encoding="UTF-8" standalone="no"?>
<svg xmlns:xlink="http://www.w3.org/1999/xlink" height="24.05px" width="25.55px" xmlns="http://www.w3.org/2000/svg">
  <g transform="matrix(1.0, 0.0, 0.0, 1.0, 12.75, 12.0)">
    <path d="M11.65 -8.15 L10.2 -9.75 8.7 -8.4 7.3 -9.95 6.1 -8.05 4.8 -10.35 3.6 -8.25 1.9 -9.8 0.55 -8.4 -1.05 -10.15 -2.15 -8.0 -2.8 -8.55 -0.8 -11.2 0.7 -9.55 1.75 -11.4 3.3 -9.7 4.75 -11.25 5.8 -9.4 7.35 -11.15 8.95 -9.5 9.85 -11.65 12.15 -8.6 11.65 -8.15 M10.75 2.3 Q11.9 3.4 11.95 5.05 11.95 6.6 10.9 7.75 9.75 8.9 8.15 9.0 6.55 9.0 5.35 7.9 4.2 6.75 4.15 5.15 4.15 3.6 5.3 2.45 6.4 1.3 8.05 1.2 9.6 1.2 10.75 2.3 M11.65 12.05 L-7.85 12.05 -9.0 11.65 -8.9 11.15 12.65 11.15 12.8 11.6 11.65 12.05 M-3.9 -7.95 L-4.8 -5.25 -6.05 -2.6 -1.8 -3.15 -1.8 -1.0 -6.75 -1.65 -6.05 9.45 -8.45 9.45 -7.8 -1.65 -12.75 -0.95 -12.75 -3.15 -8.2 -2.6 -9.45 -4.55 -10.3 -6.4 Q-10.7 -8.9 -9.85 -10.65 -9.35 -11.7 -8.2 -11.95 L-5.9 -11.7 Q-4.65 -11.2 -4.15 -10.15 -3.6 -9.15 -3.9 -7.95" fill="#000000" fill-opacity="0.4" fill-rule="evenodd" stroke="none"/>
  </g>
</svg>
