<?xml version="1.0" encoding="UTF-8" standalone="no"?>
<svg xmlns:xlink="http://www.w3.org/1999/xlink" height="31.1px" width="71.6px" xmlns="http://www.w3.org/2000/svg">
  <g transform="matrix(1.0, 0.0, 0.0, 1.0, 35.8, 15.5)">
    <path d="M13.55 -6.75 Q19.15 -4.25 22.4 -4.7 L23.8 -6.05 27.15 -8.95 Q32.35 -13.1 34.75 -12.75 L35.6 -11.25 Q36.2 -9.15 35.2 -6.45 L32.8 0.25 Q33.6 2.75 34.05 5.8 34.85 11.8 32.9 14.3 L29.3 11.6 Q25.3 8.1 23.35 4.4 21.2 0.25 18.4 1.2 16.15 1.9 13.3 5.9 11.95 8.05 9.5 10.3 4.65 14.85 -0.8 15.4 L-13.0 14.75 Q-18.6 13.55 -21.3 11.2 -23.15 9.6 -28.9 8.8 -34.4 8.1 -35.15 7.15 -35.8 6.1 -35.8 4.95 -33.7 4.2 -30.2 4.85 L-29.0 4.95 Q-29.0 4.15 -29.45 3.05 -30.3 0.85 -32.35 -0.45 L-32.65 -1.25 Q-32.8 -2.15 -32.0 -2.5 L-30.7 -4.3 Q-28.85 -6.35 -26.05 -7.7 -23.45 -10.15 -19.2 -12.35 -10.65 -16.65 -2.2 -15.05 L-0.35 -14.6 Q2.1 -13.75 4.95 -11.7 9.05 -8.75 13.55 -6.75" fill="#ffffff" fill-opacity="0.0" fill-rule="evenodd" stroke="none"/>
  </g>
</svg>
