<?xml version="1.0" encoding="UTF-8" standalone="no"?>
<svg xmlns:xlink="http://www.w3.org/1999/xlink" height="22.3px" width="21.75px" xmlns="http://www.w3.org/2000/svg">
  <g transform="matrix(1.0, 0.0, 0.0, 1.0, 9.7, 11.5)">
    <path d="M-9.0 -5.45 Q-8.15 -7.9 -4.8 -9.25 -1.9 -10.45 0.9 -10.15 L3.35 -9.6 5.65 -8.75 7.75 -7.45 Q8.5 -6.65 8.9 -5.3 L9.6 -3.75 10.15 -2.15 10.2 -0.8 9.9 0.7 9.3 3.7 Q8.85 5.4 7.95 6.45 6.05 8.65 3.25 9.1 0.65 9.55 -2.0 8.45 -4.65 7.4 -6.45 5.3 -8.35 3.05 -8.7 0.4 L-9.1 -2.55 Q-9.35 -4.45 -9.0 -5.45" fill="#000000" fill-opacity="0.2" fill-rule="evenodd" stroke="none"/>
    <path d="M-9.0 -5.45 Q-8.15 -7.9 -4.8 -9.25 -1.9 -10.45 0.9 -10.15 L3.35 -9.6 5.65 -8.75 7.75 -7.45 Q8.5 -6.65 8.9 -5.3 L9.6 -3.75 10.15 -2.15 10.2 -0.8 9.9 0.7 9.3 3.7 Q8.85 5.4 7.95 6.45 6.05 8.65 3.25 9.1 0.65 9.55 -2.0 8.45 -4.65 7.4 -6.45 5.3 -8.35 3.05 -8.7 0.4 L-9.1 -2.55 Q-9.35 -4.45 -9.0 -5.45 Z" fill="none" stroke="#000000" stroke-linecap="butt" stroke-linejoin="miter-clip" stroke-miterlimit="10.0" stroke-opacity="0.6" stroke-width="1.0"/>
  </g>
</svg>
