<?xml version="1.0" encoding="UTF-8" standalone="no"?>
<svg xmlns:xlink="http://www.w3.org/1999/xlink" height="31.8px" width="1120.1px" xmlns="http://www.w3.org/2000/svg">
  <g transform="matrix(1.0, 0.0, 0.0, 1.0, 560.05, 15.9)">
    <path d="M559.55 -9.2 L269.15 -9.2 269.15 15.4 260.55 15.4 260.55 -9.2 93.85 -9.2 93.85 15.4 85.25 15.4 85.25 -9.2 -81.55 -9.2 -81.55 15.4 -90.15 15.4 -90.15 -9.2 -256.85 -9.2 -256.85 15.4 -265.45 15.4 -265.45 -9.2 -559.55 -9.2 -559.55 -15.4 559.55 -15.4 559.55 -9.2" fill="#ffffff" fill-opacity="0.0" fill-rule="evenodd" stroke="none"/>
    <path d="M-559.55 -9.2 L-265.45 -9.2 -265.45 15.4 -256.85 15.4 -256.85 -9.2 -90.15 -9.2 -90.15 15.4 -81.55 15.4 -81.55 -9.2 85.25 -9.2 85.25 15.4 93.85 15.4 93.85 -9.2 260.55 -9.2 260.55 15.4 269.15 15.4 269.15 -9.2 559.55 -9.2 M559.55 -15.4 L-559.55 -15.4" fill="none" stroke="#000000" stroke-linecap="butt" stroke-linejoin="miter-clip" stroke-miterlimit="4.0" stroke-opacity="0.6" stroke-width="1.0"/>
    <path d="M559.55 -9.2 L559.55 -15.4 M-559.55 -15.4 L-559.55 -9.2 Z" fill="none" stroke="#000000" stroke-linecap="butt" stroke-linejoin="miter-clip" stroke-miterlimit="4.0" stroke-width="1.0"/>
  </g>
</svg>
