<?xml version="1.0" encoding="UTF-8" standalone="no"?>
<svg xmlns:xlink="http://www.w3.org/1999/xlink" height="59.1px" width="55.35px" xmlns="http://www.w3.org/2000/svg">
  <g transform="matrix(1.0, 0.0, 0.0, 1.0, 27.7, 29.55)">
    <path d="M18.2 -26.4 Q19.95 -24.5 20.3 -22.2 21.55 -15.2 18.55 -12.4 20.65 -12.75 23.65 -14.15 26.95 -15.9 27.65 -17.65 27.85 -14.35 25.75 -11.35 22.75 -7.5 20.65 -6.3 19.45 -5.4 17.85 -4.9 L14.9 -4.2 19.25 -0.85 Q22.25 1.25 23.65 2.65 26.8 5.8 27.5 10.15 28.0 14.2 26.1 18.05 23.65 22.95 17.7 23.8 11.55 24.7 8.25 20.65 6.5 18.75 5.95 15.4 5.45 11.75 7.2 9.8 8.75 8.05 12.25 7.55 16.1 7.2 17.7 8.75 20.5 11.75 17.15 13.85 13.65 15.95 13.5 12.95 L16.1 12.8 Q17.35 11.9 15.95 10.7 15.6 10.35 14.0 10.7 12.6 10.85 12.25 11.2 10.85 12.45 11.9 14.9 12.95 16.8 14.55 17.85 16.8 19.25 19.45 18.05 21.9 17.0 22.75 14.0 24.0 10.7 22.6 7.55 21.0 4.4 17.5 2.65 12.1 0.0 5.25 3.15 -1.75 6.3 -2.25 12.45 -2.45 14.7 -1.05 18.2 0.35 21.35 2.1 23.45 3.35 25.05 7.0 26.8 10.65 28.65 12.2 27.9 7.55 30.45 2.8 29.05 -1.75 27.5 -4.35 22.75 L-5.4 20.5 Q-7.7 14.7 -6.65 9.1 -5.95 5.45 -2.8 2.3 L3.5 -2.6 Q7.35 -5.75 9.1 -7.7 13.85 -13.45 10.7 -17.85 6.85 -23.6 1.95 -21.85 5.1 -24.85 10.0 -23.1 15.25 -21.35 15.4 -17.15 16.65 -21.5 16.8 -23.6 17.0 -26.75 14.7 -29.55 L18.2 -26.4 M6.85 -11.9 Q5.45 -6.65 -1.9 -4.2 L5.6 -16.8 Q7.9 -15.55 6.85 -11.9 M-6.45 -26.95 Q-2.1 -25.2 -0.5 -21.7 0.9 -18.2 -0.85 -14.0 L-7.5 -2.95 -11.35 2.8 Q-15.2 7.9 -13.3 14.2 -11.55 19.8 -6.65 23.8 L-9.8 24.15 Q-14.0 22.25 -15.75 18.2 -16.95 15.4 -17.5 9.8 -17.65 4.75 -18.0 1.75 -18.9 -3.5 -21.5 -5.05 -15.9 -3.5 -15.2 -0.5 -11.2 -2.95 -8.4 -9.1 -7.7 -11.0 -8.05 -15.55 -8.4 -17.6 -10.15 -19.9 -8.8 -18.0 -9.8 -14.15 -10.85 -9.95 -13.3 -8.75 -16.8 -7.0 -19.05 -9.1 -21.35 -11.2 -19.4 -14.7 -18.9 -8.05 -15.05 -12.75 -11.35 -17.3 -17.15 -18.7 -22.05 -19.75 -27.3 -8.9 -26.6 -10.5 -26.05 -16.1 -25.7 -20.3 -23.45 -22.55 -20.1 -25.9 -15.4 -27.3 -10.5 -28.7 -6.45 -26.95 M-25.2 7.55 Q-30.8 2.65 -23.8 -4.0 L-24.15 3.7 -25.2 7.55 M-23.1 10.0 Q-21.7 7.7 -21.35 6.3 -22.4 11.2 -21.15 15.95 -19.4 21.7 -18.35 23.45 -16.6 25.9 -11.35 28.9 L-21.7 28.9 Q-28.0 27.85 -27.3 22.4 L-26.25 18.4 -25.0 14.35 Q-24.65 12.95 -23.1 10.0" fill="#ffffff" fill-opacity="0.49803922" fill-rule="evenodd" stroke="none"/>
  </g>
</svg>
