<?xml version="1.0" encoding="UTF-8" standalone="no"?>
<svg xmlns:xlink="http://www.w3.org/1999/xlink" height="37.5px" width="5.3px" xmlns="http://www.w3.org/2000/svg">
  <g transform="matrix(1.0, 0.0, 0.0, 1.0, 0.5, 0.5)">
    <path d="M4.25 3.95 L4.25 33.05 4.2 34.7 Q3.85 36.4 2.35 36.5 0.85 36.6 0.3 34.85 0.0 33.95 0.0 33.05 L0.0 3.95 0.2 2.0 Q0.75 0.0 2.2 0.0 3.65 0.0 4.1 2.0 L4.25 3.95" fill="#000000" fill-opacity="0.09803922" fill-rule="evenodd" stroke="none"/>
    <path d="M4.25 3.95 L4.25 33.05 4.2 34.7 Q3.85 36.4 2.35 36.5 0.85 36.6 0.3 34.85 0.0 33.95 0.0 33.05 L0.0 3.95 0.2 2.0 Q0.75 0.0 2.2 0.0 3.65 0.0 4.1 2.0 L4.25 3.95 Z" fill="none" stroke="#000000" stroke-linecap="round" stroke-linejoin="round" stroke-opacity="0.6" stroke-width="1.0"/>
  </g>
</svg>
