<?xml version="1.0" encoding="UTF-8" standalone="no"?>
<svg xmlns:xlink="http://www.w3.org/1999/xlink" height="306.25px" width="1347.55px" xmlns="http://www.w3.org/2000/svg">
  <g transform="matrix(1.0, 0.0, 0.0, 1.0, 673.8, 153.15)">
    <path d="M169.05 -61.25 L169.0 -61.15 Q88.25 -103.65 43.0 -136.4 L43.0 -151.65 48.25 -152.65 103.0 -134.4 Q160.25 -115.15 172.5 -109.15 L172.25 -93.15 172.2 -91.4 Q171.4 -74.1 169.05 -61.25 171.4 -74.1 172.2 -91.4 L172.75 -91.4 227.0 -71.15 Q283.5 -49.9 295.5 -43.65 L297.3 -29.7 300.5 -29.9 354.75 -9.65 Q411.25 11.6 423.0 17.85 L425.0 31.85 479.25 51.85 Q535.75 73.1 547.75 79.35 L548.7 86.0 602.5 105.85 Q659.0 127.1 670.75 133.6 L671.75 139.1 Q672.75 145.85 673.25 152.6 L645.25 152.6 Q605.45 137.0 550.25 113.85 485.0 86.85 405.75 51.85 L405.75 51.8 Q348.65 26.55 297.05 2.2 L297.0 2.35 Q224.15 -32.3 169.05 -61.25 M297.3 -29.7 L297.5 -28.15 Q299.0 -10.5 297.05 2.2 299.0 -10.5 297.5 -28.15 L297.3 -29.7 M550.25 113.85 Q550.75 103.1 549.25 90.1 L548.7 86.0 549.25 90.1 Q550.75 103.1 550.25 113.85 M425.0 31.85 Q426.75 48.1 425.25 60.35 L405.75 51.8 425.25 60.35 Q426.75 48.1 425.0 31.85 M-425.05 31.85 L-425.0 31.1 -423.25 17.85 Q-404.0 7.85 -300.5 -29.9 L-297.6 -29.75 -297.75 -28.9 Q-299.25 -11.65 -297.5 0.6 -289.05 -3.35 -280.75 -7.25 -289.05 -3.35 -297.5 0.6 -299.25 -11.65 -297.75 -28.9 L-297.6 -29.75 -295.75 -43.65 Q-276.5 -53.65 -173.0 -91.4 L-172.35 -91.4 -172.5 -93.9 -172.75 -109.15 Q-153.25 -118.65 -48.5 -152.65 L-46.5 -152.4 -46.5 -136.4 Q-90.75 -104.65 -169.5 -62.9 L-169.5 -62.95 Q-221.8 -35.3 -280.75 -7.25 L-280.75 -7.15 Q-338.2 20.05 -406.25 50.35 L-425.5 58.85 Q-426.5 47.15 -425.05 31.85 -426.5 47.15 -425.5 58.85 L-406.25 50.35 Q-464.8 76.4 -529.5 103.6 L-615.75 139.35 -649.0 152.6 -673.25 152.6 -671.0 133.6 Q-651.8 123.4 -549.0 86.15 L-549.5 89.6 Q-550.75 101.85 -550.5 112.35 L-529.5 103.6 -550.5 112.35 Q-550.75 101.85 -549.5 89.6 L-549.0 86.15 -548.0 79.35 Q-528.75 69.35 -425.25 31.85 L-425.05 31.85 M-172.35 -91.4 Q-171.6 -75.05 -169.5 -62.95 -171.6 -75.05 -172.35 -91.4" fill="#000000" fill-opacity="0.29803923" fill-rule="evenodd" stroke="none"/>
    <path d="M172.2 -91.4 L172.25 -93.15 172.5 -109.15 Q160.25 -115.15 103.0 -134.4 L48.25 -152.65 43.0 -151.65 43.0 -136.4 Q88.25 -103.65 169.0 -61.15 L169.05 -61.25 Q171.4 -74.1 172.2 -91.4 L172.75 -91.4 227.0 -71.15 Q283.5 -49.9 295.5 -43.65 L297.3 -29.7 300.5 -29.9 354.75 -9.65 Q411.25 11.6 423.0 17.85 L425.0 31.85 479.25 51.85 Q535.75 73.1 547.75 79.35 L548.7 86.0 602.5 105.85 Q659.0 127.1 670.75 133.6 L671.75 139.1 Q672.75 145.85 673.25 152.6 L645.25 152.6 Q605.45 137.0 550.25 113.85 550.75 103.1 549.25 90.1 L548.7 86.0 M405.75 51.8 Q348.65 26.55 297.05 2.2 L297.0 2.35 Q224.15 -32.3 169.05 -61.25 M297.05 2.2 Q299.0 -10.5 297.5 -28.15 L297.3 -29.7 M405.75 51.8 L425.25 60.35 Q426.75 48.1 425.0 31.85 M-297.6 -29.75 L-300.5 -29.9 Q-404.0 7.85 -423.25 17.85 L-425.0 31.1 -425.05 31.85 Q-426.5 47.15 -425.5 58.85 L-406.25 50.35 Q-338.2 20.05 -280.75 -7.15 L-280.75 -7.25 Q-289.05 -3.35 -297.5 0.6 -299.25 -11.65 -297.75 -28.9 L-297.6 -29.75 -295.75 -43.65 Q-276.5 -53.65 -173.0 -91.4 L-172.35 -91.4 -172.5 -93.9 -172.75 -109.15 Q-153.25 -118.65 -48.5 -152.65 L-46.5 -152.4 -46.5 -136.4 Q-90.75 -104.65 -169.5 -62.9 L-169.5 -62.95 Q-221.8 -35.3 -280.75 -7.25 M-169.5 -62.95 Q-171.6 -75.05 -172.35 -91.4 M-549.0 86.15 Q-651.8 123.4 -671.0 133.6 L-673.25 152.6 -649.0 152.6 -615.75 139.35 -529.5 103.6 -550.5 112.35 Q-550.75 101.85 -549.5 89.6 L-549.0 86.15 -548.0 79.35 Q-528.75 69.35 -425.25 31.85 L-425.05 31.85 M-529.5 103.6 Q-464.8 76.4 -406.25 50.35" fill="none" stroke="#000000" stroke-linecap="round" stroke-linejoin="miter-clip" stroke-miterlimit="4.0" stroke-width="1.0"/>
    <path d="M550.25 113.85 Q485.0 86.85 405.75 51.85 L405.75 51.8" fill="none" stroke="#000000" stroke-linecap="butt" stroke-linejoin="miter-clip" stroke-miterlimit="4.0" stroke-width="1.0"/>
  </g>
</svg>
