<?xml version="1.0" encoding="UTF-8" standalone="no"?>
<svg xmlns:xlink="http://www.w3.org/1999/xlink" height="718.25px" width="1140.85px" xmlns="http://www.w3.org/2000/svg">
  <g transform="matrix(1.0, 0.0, 0.0, 1.0, 570.45, 359.15)">
    <path d="M269.05 -325.05 L274.95 -328.3 Q291.75 -337.3 297.25 -342.35 305.3 -349.55 296.95 -353.2 L289.35 -359.15 340.1 -359.15 340.1 -255.0 Q333.7 -268.35 319.65 -284.05 299.45 -306.85 269.05 -325.05 M211.95 -283.35 Q199.5 -276.8 191.6 -270.0 181.1 -261.15 176.2 -249.7 173.45 -242.85 169.5 -229.1 164.9 -216.3 157.9 -208.05 149.8 -204.55 125.2 -203.75 109.5 -203.3 77.0 -203.9 L33.2 -204.7 Q14.1 -204.7 13.95 -202.55 15.95 -191.1 18.7 -181.0 20.5 -173.7 24.95 -158.9 L46.9 -91.9 Q50.75 -80.0 53.65 -69.75 60.2 -44.55 62.05 -26.85 64.15 -4.6 60.2 13.15 59.75 15.4 57.6 107.6 55.6 198.4 54.1 201.95 49.65 211.4 43.55 219.35 30.3 236.6 6.75 250.95 -17.5 265.6 -55.35 278.85 -63.75 281.45 -52.0 287.55 -44.65 291.4 -21.9 299.45 0.95 307.55 8.3 311.35 20.05 317.65 11.65 320.85 L-33.85 323.6 Q-61.15 324.95 -61.3 326.65 -69.25 339.45 -71.05 350.45 -71.7 354.6 -71.2 359.1 L-166.3 359.1 Q-159.85 355.05 -159.45 351.05 -154.7 343.4 -158.2 334.4 -160.8 327.25 -169.95 316.25 -174.4 311.05 -188.3 296.55 -200.5 283.75 -206.15 276.4 -214.7 265.3 -217.0 256.9 -219.9 247.1 -214.4 239.5 L-214.15 239.15 -212.45 237.2 Q-197.95 222.05 -142.65 217.5 -95.35 212.9 -70.45 114.45 -61.9 80.9 -57.65 42.45 -54.3 11.6 -55.35 0.15 -56.1 -8.7 -66.5 -34.95 -75.1 -57.05 -73.45 -69.15 L-73.35 -69.9 Q-72.6 -74.35 -94.75 -88.35 -116.7 -102.25 -116.1 -106.4 L-110.45 -147.0 Q-110.0 -149.85 -108.5 -165.4 L-108.5 -165.5 -108.45 -165.9 -108.35 -166.8 -106.95 -184.85 -106.95 -184.95 -106.9 -185.15 Q-106.15 -193.05 -88.6 -198.9 -79.3 -201.95 -50.75 -207.9 -25.3 -213.25 -16.75 -216.45 -3.75 -221.6 -9.0 -227.9 L-9.35 -228.3 -9.4 -228.35 Q-9.4 -229.85 14.7 -234.45 38.65 -239.2 38.65 -240.85 25.65 -282.65 26.75 -332.1 143.45 -321.85 211.95 -283.35 M247.0 -259.2 Q268.5 -240.95 279.85 -220.4 285.65 -209.85 287.0 -203.0 L287.0 168.2 Q285.45 194.8 284.4 196.45 L272.95 213.4 261.05 229.7 Q190.25 234.15 169.95 236.9 121.85 242.1 140.2 263.15 149.5 273.8 196.5 302.05 L160.8 334.4 Q158.8 336.1 155.9 347.7 153.9 355.95 152.25 359.1 L93.35 359.1 99.85 346.05 102.8 339.3 Q109.4 324.0 101.95 317.2 L101.7 317.0 Q89.95 307.25 86.3 301.15 81.55 292.45 88.9 286.5 89.35 283.45 125.35 285.9 L161.4 287.4 Q136.05 271.25 125.5 265.45 104.0 253.35 72.25 239.65 64.6 235.35 74.4 233.55 81.55 232.15 100.95 231.7 L131.95 230.8 Q146.9 229.85 147.35 226.95 154.5 223.2 161.95 214.15 166.65 208.3 171.5 200.3 175.4 193.85 179.35 185.95 192.85 159.0 207.15 115.4 L213.75 94.35 215.25 89.2 Q227.9 45.5 235.45 21.05 L239.4 8.25 Q252.95 -35.4 262.75 -48.7 263.35 -52.35 252.8 -62.9 242.3 -73.55 242.75 -76.95 252.5 -87.45 251.75 -99.65 251.3 -105.0 248.7 -110.95 246.7 -116.15 242.45 -123.5 237.7 -131.4 223.8 -148.95 211.0 -165.2 205.8 -173.3 L204.45 -175.55 Q197.4 -190.35 206.55 -207.1 211.3 -215.8 230.25 -237.5 240.7 -249.4 247.0 -259.2 M526.75 -359.15 Q524.9 -349.0 525.05 -342.05 525.35 -333.95 527.5 -327.85 529.8 -321.0 535.15 -314.25 538.05 -311.35 544.9 -307.55 548.7 -305.4 556.5 -301.45 562.6 -297.95 564.45 -295.95 566.9 -293.2 563.7 -291.55 554.05 -281.0 549.05 -270.0 544.9 -261.0 543.05 -249.7 542.0 -242.85 540.5 -229.1 538.8 -216.6 535.9 -208.05 532.7 -204.55 523.25 -203.75 L517.15 -203.55 517.15 -220.85 517.9 -221.0 517.9 -226.8 517.15 -226.65 517.15 -226.8 Q516.05 -238.7 508.75 -250.3 L508.55 -250.6 507.8 -251.7 507.65 -251.95 506.75 -253.2 506.6 -253.4 505.95 -254.2 505.7 -254.5 505.45 -254.8 505.05 -255.3 504.85 -255.55 504.65 -255.8 504.4 -256.1 504.25 -256.3 503.55 -257.05 502.85 -257.75 502.4 -258.2 494.15 -263.6 Q496.8 -262.45 499.25 -261.0 494.15 -265.15 488.0 -267.55 L487.95 -267.6 486.85 -268.0 Q483.8 -308.7 485.4 -355.35 L485.55 -359.15 526.75 -359.15 M340.4 -359.15 L346.3 -359.15 340.4 -345.25 340.4 -359.15 M340.4 -220.85 L340.4 -240.7 Q342.65 -236.75 344.05 -232.75 345.7 -227.4 345.7 -222.55 L345.4 -217.5 343.9 -213.1 340.4 -220.85 M378.55 -65.5 L376.1 -68.25 Q366.5 -76.6 364.8 -79.05 362.05 -82.9 377.3 -76.6 L389.35 -71.45 Q382.5 -70.95 378.1 -69.3 L378.55 -65.5 Q381.6 -61.8 379.15 -61.5 L378.55 -65.5 M446.75 359.1 L409.8 359.1 Q412.4 354.75 412.4 351.05 414.25 343.9 413.05 334.4 411.8 326.5 408.3 316.25 406.6 310.9 401.3 296.55 396.4 283.75 394.25 276.4 391.05 265.9 390.0 256.9 389.05 246.65 391.05 239.5 396.1 222.25 419.0 217.5 437.45 212.9 447.05 114.45 454.4 40.6 453.0 0.15 452.7 -8.25 448.6 -34.95 445.8 -53.25 445.85 -64.7 L461.1 -67.8 461.1 -67.45 466.6 -68.55 466.6 -68.95 494.7 -74.7 495.3 -69.75 Q495.9 -64.7 495.15 -50.05 494.4 -36.95 495.6 -31.6 497.3 -23.8 504.6 -18.75 514.7 -12.05 517.3 -8.55 521.4 -3.2 520.2 4.75 519.1 11.9 514.4 17.85 511.0 22.3 504.3 27.95 L493.45 37.55 Q487.95 43.35 485.7 49.75 482.8 57.25 485.05 63.5 486.75 68.05 492.85 76.0 496.35 82.1 496.65 89.45 496.85 96.9 493.6 103.2 L487.2 113.25 Q483.7 119.35 484.0 124.1 484.45 128.35 488.45 133.7 493.3 140.25 494.25 142.7 496.05 147.9 496.5 154.45 L496.35 166.5 496.65 184.25 Q496.85 195.05 495.6 201.95 493.95 211.4 491.5 219.35 486.3 236.75 477.15 250.95 467.65 265.75 453.0 278.85 449.65 281.45 454.25 287.55 457.15 291.4 466.0 299.45 474.85 307.55 477.75 311.35 482.15 317.65 478.95 320.85 L461.25 323.6 Q450.75 324.95 450.75 326.65 447.55 338.85 446.9 350.45 446.75 351.95 446.75 359.1 M570.4 -81.95 L570.4 -69.45 Q568.85 -74.35 568.85 -76.95 L570.4 -81.95 M570.4 230.65 L570.4 235.95 Q555.15 238.55 546.9 241.0 528.1 246.2 535.3 267.1 538.95 278.1 557.1 305.7 564.6 287.7 570.4 270.9 L570.4 359.1 509.3 359.1 Q504.15 353.6 505.2 350.15 506.45 346.5 515.45 345.85 L532.25 344.8 551.0 302.05 Q532.7 273.65 529.05 263.15 521.85 242.1 540.65 236.9 548.4 234.3 570.4 230.65 M-329.65 -359.15 L-189.05 -359.15 Q-275.85 -331.65 -318.2 -284.05 -331.45 -269.25 -338.65 -254.15 L-340.25 -250.65 -340.25 -349.5 -329.65 -359.15 M-340.55 -156.9 Q-344.85 -163.45 -352.95 -173.55 -364.2 -187.75 -368.35 -194.45 -374.45 -206.95 -370.8 -223.9 -368.95 -232.6 -359.65 -256.1 -351.55 -276.55 -349.4 -290.15 -347.9 -299.15 -348.8 -306.65 -349.7 -315.05 -354.0 -321.9 -359.5 -323.75 -355.05 -331.5 -352.6 -335.95 -342.7 -347.85 L-340.55 -350.6 -340.55 -156.9 M-570.45 248.5 Q-564.65 245.6 -558.35 243.0 -529.05 230.15 -515.35 128.5 -510.45 92.5 -508.9 55.25 -507.55 22.6 -509.4 13.75 -510.9 6.1 -520.65 -16.65 -529.05 -36.0 -529.2 -47.6 -529.35 -51.9 -544.8 -60.75 -560.2 -69.45 -560.35 -73.4 L-561.9 -111.9 -562.95 -129.75 Q-563.55 -141.35 -564.15 -147.3 -564.8 -153.1 -553.65 -161.05 L-530.3 -175.2 Q-522.4 -179.85 -517.15 -183.7 L-517.15 -162.05 -517.95 -162.25 -517.95 -156.45 -517.15 -156.25 -517.15 -97.65 -517.95 -97.85 -517.95 -92.05 -517.15 -91.85 -517.15 -79.35 -466.65 -68.95 -466.65 -68.55 -461.15 -67.45 -461.15 -67.85 -448.35 -65.2 Q-443.75 -49.1 -439.95 -19.25 -434.0 11.0 -416.6 25.5 -411.1 30.05 -409.55 31.9 -406.2 35.85 -406.35 40.0 -406.5 45.05 -413.35 51.3 -440.7 76.45 -471.05 97.05 -482.8 105.0 -487.7 110.05 -495.95 118.45 -496.7 127.6 -497.15 132.5 -495.5 138.75 -494.55 141.95 -491.65 149.45 -476.55 187.45 -469.4 227.75 -465.7 247.9 -472.3 259.8 -477.3 268.95 -496.25 283.9 -501.3 287.85 -493.2 291.2 -488.15 293.35 -472.9 296.7 -457.5 300.25 -452.6 302.35 -444.5 306.05 -449.25 310.6 L-477.3 321.15 Q-494.25 327.4 -494.1 328.9 -497.45 341.6 -497.3 352.6 -497.3 356.25 -496.75 359.1 L-570.45 359.1 -570.45 248.5 M-432.9 -359.15 Q-436.55 -342.9 -435.2 -334.55 -434.0 -327.7 -429.4 -322.65 -424.5 -317.15 -415.5 -313.65 -410.3 -312.3 -399.0 -312.0 -392.45 -311.7 -379.8 -311.5 -369.55 -311.2 -366.2 -310.15 -361.95 -308.8 -366.8 -305.7 -381.0 -291.55 -387.75 -279.15 -393.4 -268.95 -394.9 -257.8 L-396.75 -237.65 Q-397.8 -225.3 -401.3 -216.15 -403.5 -214.05 -407.85 -211.8 -409.95 -220.9 -415.05 -231.1 -429.85 -260.1 -461.3 -270.45 L-461.3 -270.6 -461.9 -270.6 -462.5 -270.9 -462.5 -270.75 Q-472.7 -271.55 -481.1 -269.65 -486.05 -268.6 -490.35 -266.6 L-491.45 -266.05 -491.7 -265.95 Q-498.15 -295.1 -500.5 -328.45 -501.3 -338.95 -502.2 -359.15 L-432.9 -359.15 M-150.65 -310.6 Q-153.55 -305.6 -155.3 -301.6 -163.4 -291.4 -168.0 -281.15 -169.65 -277.5 -171.65 -271.25 -173.35 -266.05 -174.25 -261.45 -175.95 -253.2 -176.55 -242.1 -177.0 -235.65 -177.3 -222.7 L-178.2 -203.6 Q-179.45 -192.8 -181.9 -184.85 -188.45 -165.15 -206.75 -149.6 -229.95 -128.05 -238.65 -115.55 -252.7 -95.55 -249.8 -76.6 -288.9 -82.9 -281.85 -79.05 -277.75 -76.6 -253.0 -68.25 -269.65 -63.95 -264.45 -53.9 -261.1 -47.45 -244.3 -34.05 -226.0 -19.4 -223.1 -15.4 -216.55 -6.85 -230.9 -4.9 -257.0 -1.55 -273.6 5.5 -281.1 8.85 -286.3 12.8 -288.8 14.75 -291.0 17.2 L-291.0 -203.0 -283.4 -221.15 Q-271.15 -243.3 -247.2 -262.4 -209.5 -292.85 -150.65 -310.6 M-291.0 238.8 L-284.75 254.0 Q-279.7 266.65 -278.65 274.75 -277.3 285.6 -281.7 293.5 -284.75 299.15 -291.0 303.9 L-291.0 238.8 M-418.65 359.1 Q-417.85 352.95 -412.0 346.3 -405.9 339.15 -394.9 332.15 -415.95 326.0 -387.6 316.7 L-373.25 312.3 Q-373.1 307.55 -379.8 301.75 L-393.4 290.9 Q-401.75 284.05 -404.8 278.85 -409.1 272.0 -405.15 264.95 -405.3 262.2 -382.4 257.95 -359.65 253.7 -359.65 252.9 -377.5 242.55 -384.7 239.0 -400.85 231.4 -421.15 224.85 -426.5 222.25 -420.55 218.9 -416.4 216.45 -404.2 212.45 L-385.0 206.05 Q-375.65 202.4 -375.65 199.8 -367.45 190.2 -356.0 88.05 -344.25 -17.4 -340.55 -25.05 L-340.55 201.65 -349.9 205.9 Q-375.05 217.35 -368.5 230.5 -364.05 239.8 -340.55 252.6 L-340.55 359.1 -418.65 359.1" fill="#ffffff" fill-opacity="0.0" fill-rule="evenodd" stroke="none"/>
    <path d="M205.8 -173.3 Q211.0 -165.2 223.8 -148.95 237.7 -131.4 242.45 -123.5 246.7 -116.15 248.7 -110.95 251.3 -105.0 251.75 -99.65 252.5 -87.45 242.75 -76.95 242.3 -73.55 252.8 -62.9 263.35 -52.35 262.75 -48.7 252.95 -35.4 239.4 8.25 L235.45 21.05 Q235.35 18.8 235.4 16.2 L238.0 -44.7 Q211.9 -24.25 200.9 6.7 L179.85 6.55 Q185.35 -36.65 201.7 -77.1 L212.85 -103.95 Q219.1 -119.65 221.2 -131.7 223.65 -144.85 218.15 -154.9 210.65 -165.35 205.8 -173.3 M526.75 -359.15 L570.4 -359.15 570.4 -258.55 Q567.65 -247.7 564.0 -237.5 556.65 -215.65 554.85 -207.1 551.3 -190.35 554.05 -175.55 555.6 -169.1 561.55 -148.95 566.9 -131.4 568.7 -123.5 569.5 -121.05 570.4 -115.85 L570.4 -81.95 568.85 -76.95 Q568.85 -74.35 570.4 -69.45 L570.4 230.65 Q548.4 234.3 540.65 236.9 521.85 242.1 529.05 263.15 532.7 273.65 551.0 302.05 L532.25 344.8 515.45 345.85 Q506.45 346.5 505.2 350.15 504.15 353.6 509.3 359.1 L446.75 359.1 Q446.75 351.95 446.9 350.45 447.55 338.85 450.75 326.65 450.75 324.95 461.25 323.6 L478.95 320.85 Q482.15 317.65 477.75 311.35 474.85 307.55 466.0 299.45 457.15 291.4 454.25 287.55 449.65 281.45 453.0 278.85 467.65 265.75 477.15 250.95 486.3 236.75 491.5 219.35 493.95 211.4 495.6 201.95 496.85 195.05 496.65 184.25 L496.35 166.5 496.5 154.45 Q496.05 147.9 494.25 142.7 493.3 140.25 488.45 133.7 484.45 128.35 484.0 124.1 483.7 119.35 487.2 113.25 L493.6 103.2 Q496.85 96.9 496.65 89.45 496.35 82.1 492.85 76.0 486.75 68.05 485.05 63.5 482.8 57.25 485.7 49.75 487.95 43.35 493.45 37.55 L504.3 27.95 Q511.0 22.3 514.4 17.85 519.1 11.9 520.2 4.75 521.4 -3.2 517.3 -8.55 514.7 -12.05 504.6 -18.75 497.3 -23.8 495.6 -31.6 494.4 -36.95 495.15 -50.05 495.9 -64.7 495.3 -69.75 L494.7 -74.7 517.15 -79.35 517.15 -91.9 517.9 -92.05 517.9 -97.85 517.15 -97.7 517.15 -156.3 517.9 -156.45 517.9 -162.25 517.15 -162.1 517.15 -203.55 523.25 -203.75 Q532.7 -204.55 535.9 -208.05 538.8 -216.6 540.5 -229.1 542.0 -242.85 543.05 -249.7 544.9 -261.0 549.05 -270.0 554.05 -281.0 563.7 -291.55 566.9 -293.2 564.45 -295.95 562.6 -297.95 556.5 -301.45 548.7 -305.4 544.9 -307.55 538.05 -311.35 535.15 -314.25 529.8 -321.0 527.5 -327.85 525.35 -333.95 525.05 -342.05 524.9 -349.0 526.75 -359.15 M378.55 -65.5 L378.1 -69.3 Q382.5 -70.95 389.35 -71.45 L377.3 -76.6 Q376.25 -95.55 381.6 -115.55 385.1 -128.2 394.1 -149.6 401.3 -165.45 403.7 -184.85 404.95 -194.0 405.1 -203.6 L405.85 -242.1 Q405.85 -250.8 406.6 -261.45 L409.2 -281.15 Q410.75 -290.3 414.1 -301.6 416.1 -313.35 422.05 -334.1 426.25 -348.05 429.15 -359.15 L485.55 -359.15 485.4 -355.35 Q483.8 -308.7 486.85 -268.0 L486.75 -268.05 485.95 -268.3 479.4 -270.0 469.4 -270.95 463.7 -270.85 462.35 -270.75 462.35 -270.9 461.85 -270.6 461.25 -270.6 461.25 -270.45 Q429.8 -260.1 415.0 -231.1 410.45 -221.95 408.15 -212.15 406.95 -207.1 406.6 -204.05 L406.6 -56.65 445.85 -64.7 Q445.8 -53.25 448.6 -34.95 452.7 -8.25 453.0 0.15 454.4 40.6 447.05 114.45 437.45 212.9 419.0 217.5 396.1 222.25 391.05 239.5 389.05 246.65 390.0 256.9 391.05 265.9 394.25 276.4 396.4 283.75 401.3 296.55 406.6 310.9 408.3 316.25 411.8 326.5 413.05 334.4 414.25 343.9 412.4 351.05 412.4 354.75 409.8 359.1 L344.8 359.1 Q344.95 351.25 346.5 342.05 349.7 325.7 357.6 309.55 367.25 297.0 366.0 274.75 365.7 266.65 363.75 254.0 L360.2 232.15 Q358.4 217.8 358.25 210.8 357.95 200.1 358.55 115.7 359.15 25.05 360.05 21.2 361.45 16.05 363.1 12.8 364.8 9.15 368.0 5.5 374.4 -1.35 384.65 -4.9 390.3 -6.85 387.85 -15.4 386.6 -19.4 379.45 -34.05 372.9 -47.45 371.65 -53.9 369.55 -63.95 376.1 -68.25 L378.55 -65.5 379.15 -61.5 Q381.6 -61.8 378.55 -65.5 M215.25 89.2 L213.75 94.35 207.15 115.4 202.75 116.0 158.8 123.5 173.9 89.45 215.25 89.2 M152.25 359.1 Q153.9 355.95 155.9 347.7 158.8 336.1 160.8 334.4 L196.5 302.05 Q149.5 273.8 140.2 263.15 121.85 242.1 169.95 236.9 190.25 234.15 261.05 229.7 L272.95 213.4 284.4 196.45 Q285.45 194.8 287.0 168.2 L287.0 249.8 Q274.9 271.7 259.25 290.0 259.25 292.6 249.9 296.25 L230.7 302.65 Q218.5 306.65 214.35 309.1 208.4 312.45 213.6 315.05 234.05 321.45 250.2 329.25 254.65 331.5 275.25 343.1 275.25 343.9 252.5 348.15 229.6 352.45 229.75 355.2 228.85 356.8 228.3 359.1 L152.25 359.1 M287.0 343.85 Q263.7 330.85 257.85 323.1 246.25 307.85 274.5 295.05 279.65 292.55 287.0 289.45 L287.0 343.85 M212.5 305.7 Q250.2 269.7 277.1 234.0 207.95 238.4 185.95 241.0 137.9 246.2 156.2 267.1 165.8 278.1 212.5 305.7 M-340.25 -359.15 L-329.65 -359.15 -340.25 -349.5 -340.25 -359.15 M-340.55 -156.9 L-340.55 -25.05 Q-344.25 -17.4 -356.0 88.05 -367.45 190.2 -375.65 199.8 -375.65 202.4 -385.0 206.05 L-404.2 212.45 Q-416.4 216.45 -420.55 218.9 -426.5 222.25 -421.15 224.85 -400.85 231.4 -384.7 239.0 -377.5 242.55 -359.65 252.9 -359.65 253.7 -382.4 257.95 -405.3 262.2 -405.15 264.95 -409.1 272.0 -404.8 278.85 -401.75 284.05 -393.4 290.9 L-379.8 301.75 Q-373.1 307.55 -373.25 312.3 L-387.6 316.7 Q-415.95 326.0 -394.9 332.15 -405.9 339.15 -412.0 346.3 -417.85 352.95 -418.65 359.1 L-496.75 359.1 Q-497.3 356.25 -497.3 352.6 -497.45 341.6 -494.1 328.9 -494.25 327.4 -477.3 321.15 L-449.25 310.6 Q-444.5 306.05 -452.6 302.35 -457.5 300.25 -472.9 296.7 -488.15 293.35 -493.2 291.2 -501.3 287.85 -496.25 283.9 -477.3 268.95 -472.3 259.8 -465.7 247.9 -469.4 227.75 -476.55 187.45 -491.65 149.45 -494.55 141.95 -495.5 138.75 -497.15 132.5 -496.7 127.6 -495.95 118.45 -487.7 110.05 -482.8 105.0 -471.05 97.05 -440.7 76.45 -413.35 51.3 -406.5 45.05 -406.35 40.0 -406.2 35.85 -409.55 31.9 -411.1 30.05 -416.6 25.5 -434.0 11.0 -439.95 -19.25 -443.75 -49.1 -448.35 -65.2 L-406.65 -56.65 -406.65 -204.05 Q-406.95 -207.8 -407.85 -211.8 -403.5 -214.05 -401.3 -216.15 -397.8 -225.3 -396.75 -237.65 L-394.9 -257.8 Q-393.4 -268.95 -387.75 -279.15 -381.0 -291.55 -366.8 -305.7 -361.95 -308.8 -366.2 -310.15 -369.55 -311.2 -379.8 -311.5 -392.45 -311.7 -399.0 -312.0 -410.3 -312.3 -415.5 -313.65 -424.5 -317.15 -429.4 -322.65 -434.0 -327.7 -435.2 -334.55 -436.55 -342.9 -432.9 -359.15 L-340.55 -359.15 -340.55 -350.6 -342.7 -347.85 Q-352.6 -335.95 -355.05 -331.5 -359.5 -323.75 -354.0 -321.9 -349.7 -315.05 -348.8 -306.65 -347.9 -299.15 -349.4 -290.15 -351.55 -276.55 -359.65 -256.1 -368.95 -232.6 -370.8 -223.9 -374.45 -206.95 -368.35 -194.45 -364.2 -187.75 -352.95 -173.55 -344.85 -163.45 -340.55 -156.9 M-246.45 -65.5 Q-248.75 -66.7 -253.0 -68.25 -277.75 -76.6 -281.85 -79.05 -288.9 -82.9 -249.8 -76.6 L-218.95 -71.45 Q-236.35 -70.95 -247.8 -69.3 L-246.45 -65.5 Q-238.5 -61.95 -244.9 -61.5 L-246.45 -65.5 M-73.45 -69.15 Q-75.1 -57.05 -66.5 -34.95 -56.1 -8.7 -55.35 0.15 -54.3 11.6 -57.65 42.45 -61.9 80.9 -70.45 114.45 -95.35 212.9 -142.65 217.5 -197.95 222.05 -212.45 237.2 -206.3 230.4 -194.4 226.35 -186.45 223.6 -170.45 220.85 L-150.75 218.1 Q-140.95 216.75 -136.85 214.3 -126.15 208.05 -136.7 183.6 -146.0 161.65 -152.9 137.85 -156.7 124.4 -155.3 116.45 -154.55 111.4 -151.5 105.95 -149.85 102.7 -145.4 96.3 -124.8 66.25 -114.7 53.4 -97.45 31.15 -79.15 14.95 -58.85 -2.9 -65.4 -25.5 -70.0 -38.45 -71.85 -45.8 -75.25 -58.05 -73.45 -69.15" fill="#000000" fill-opacity="0.047058824" fill-rule="evenodd" stroke="none"/>
    <path d="M211.95 -283.35 Q230.75 -272.8 245.95 -260.1 L247.0 -259.2 Q240.7 -249.4 230.25 -237.5 211.3 -215.8 206.55 -207.1 197.4 -190.35 204.45 -175.55 L205.8 -173.3 Q210.65 -165.35 218.15 -154.9 223.65 -144.85 221.2 -131.7 219.1 -119.65 212.85 -103.95 L201.7 -77.1 Q185.35 -36.65 179.85 6.55 L200.9 6.7 Q211.9 -24.25 238.0 -44.7 L235.4 16.2 Q235.35 18.8 235.45 21.05 227.9 45.5 215.25 89.2 L173.9 89.45 158.8 123.5 202.75 116.0 207.15 115.4 Q192.85 159.0 179.35 185.95 175.4 193.85 171.5 200.3 166.65 208.3 161.95 214.15 154.5 223.2 147.35 226.95 146.9 229.85 131.95 230.8 L100.95 231.7 Q81.55 232.15 74.4 233.55 64.6 235.35 72.25 239.65 104.0 253.35 125.5 265.45 136.05 271.25 161.4 287.4 L125.35 285.9 Q89.35 283.45 88.9 286.5 81.55 292.45 86.3 301.15 89.95 307.25 101.7 317.0 L101.95 317.2 Q109.4 324.0 102.8 339.3 L99.85 346.05 93.35 359.1 -71.2 359.1 Q-71.7 354.6 -71.05 350.45 -69.25 339.45 -61.3 326.65 -61.15 324.95 -33.85 323.6 L11.65 320.85 Q20.05 317.65 8.3 311.35 0.95 307.55 -21.9 299.45 -44.65 291.4 -52.0 287.55 -63.75 281.45 -55.35 278.85 -17.5 265.6 6.75 250.95 30.3 236.6 43.55 219.35 49.65 211.4 54.1 201.95 55.6 198.4 57.6 107.6 59.75 15.4 60.2 13.15 64.15 -4.6 62.05 -26.85 60.2 -44.55 53.65 -69.75 50.75 -80.0 46.9 -91.9 L24.95 -158.9 Q20.5 -173.7 18.7 -181.0 15.95 -191.1 13.95 -202.55 14.1 -204.7 33.2 -204.7 L77.0 -203.9 Q109.5 -203.3 125.2 -203.75 149.8 -204.55 157.9 -208.05 164.9 -216.3 169.5 -229.1 173.45 -242.85 176.2 -249.7 181.1 -261.15 191.6 -270.0 199.5 -276.8 211.95 -283.35 M269.05 -325.05 Q235.95 -344.85 190.75 -359.15 L289.35 -359.15 296.95 -353.2 Q305.3 -349.55 297.25 -342.35 291.75 -337.3 274.95 -328.3 L269.05 -325.05 M-246.45 -65.5 L-247.8 -69.3 Q-236.35 -70.95 -218.95 -71.45 L-249.8 -76.6 Q-252.7 -95.55 -238.65 -115.55 -229.95 -128.05 -206.75 -149.6 -188.45 -165.15 -181.9 -184.85 -179.45 -192.8 -178.2 -203.6 L-177.3 -222.7 Q-177.0 -235.65 -176.55 -242.1 -175.95 -253.2 -174.25 -261.45 -173.35 -266.05 -171.65 -271.25 -169.65 -277.5 -168.0 -281.15 -163.4 -291.4 -155.3 -301.6 -153.55 -305.6 -150.65 -310.6 -90.55 -328.8 -8.35 -333.8 L-8.35 -335.5 22.95 -335.5 22.95 -332.45 26.75 -332.1 Q25.65 -282.65 38.65 -240.85 38.65 -239.2 14.7 -234.45 -9.4 -229.85 -9.4 -228.35 L-9.35 -228.3 -9.0 -227.9 Q-3.75 -221.6 -16.75 -216.45 -25.3 -213.25 -50.75 -207.9 -79.3 -201.95 -88.6 -198.9 -106.15 -193.05 -106.9 -185.15 L-106.95 -184.95 -106.95 -184.85 -108.35 -166.8 -108.45 -166.05 -108.5 -165.5 -108.5 -165.4 Q-110.0 -149.85 -110.45 -147.0 L-116.1 -106.4 Q-116.7 -102.25 -94.75 -88.35 -72.6 -74.35 -73.35 -69.9 L-73.45 -69.15 Q-75.25 -58.05 -71.85 -45.8 -70.0 -38.45 -65.4 -25.5 -58.85 -2.9 -79.15 14.95 -97.45 31.15 -114.7 53.4 -124.8 66.25 -145.4 96.3 -149.85 102.7 -151.5 105.95 -154.55 111.4 -155.3 116.45 -156.7 124.4 -152.9 137.85 -146.0 161.65 -136.7 183.6 -126.15 208.05 -136.85 214.3 -140.95 216.75 -150.75 218.1 L-170.45 220.85 Q-186.45 223.6 -194.4 226.35 -206.3 230.4 -212.45 237.2 L-214.15 239.15 -214.4 239.5 Q-219.9 247.1 -217.0 256.9 -214.7 265.3 -206.15 276.4 -200.5 283.75 -188.3 296.55 -174.4 311.05 -169.95 316.25 -160.8 327.25 -158.2 334.4 -154.7 343.4 -159.45 351.05 -159.85 355.05 -166.3 359.1 L-291.0 359.1 -291.0 303.9 Q-284.75 299.15 -281.7 293.5 -277.3 285.6 -278.65 274.75 -279.7 266.65 -284.75 254.0 L-291.0 238.8 -291.0 17.2 Q-288.8 14.75 -286.3 12.8 -281.1 8.85 -273.6 5.5 -257.0 -1.55 -230.9 -4.9 -216.55 -6.85 -223.1 -15.4 -226.0 -19.4 -244.3 -34.05 -261.1 -47.45 -264.45 -53.9 -269.65 -63.95 -253.0 -68.25 -248.75 -66.7 -246.45 -65.5 L-244.9 -61.5 Q-238.5 -61.95 -246.45 -65.5 M570.4 -115.85 Q569.5 -121.05 568.7 -123.5 566.9 -131.4 561.55 -148.95 555.6 -169.1 554.05 -175.55 551.3 -190.35 554.85 -207.1 556.65 -215.65 564.0 -237.5 567.65 -247.7 570.4 -258.55 L570.4 -115.85 M346.3 -359.15 L429.15 -359.15 Q426.25 -348.05 422.05 -334.1 416.1 -313.35 414.1 -301.6 410.75 -290.3 409.2 -281.15 L406.6 -261.45 Q405.85 -250.8 405.85 -242.1 L405.1 -203.6 Q404.95 -194.0 403.7 -184.85 401.3 -165.45 394.1 -149.6 385.1 -128.2 381.6 -115.55 376.25 -95.55 377.3 -76.6 362.05 -82.9 364.8 -79.05 366.5 -76.6 376.1 -68.25 369.55 -63.95 371.65 -53.9 372.9 -47.45 379.45 -34.05 386.6 -19.4 387.85 -15.4 390.3 -6.85 384.65 -4.9 374.4 -1.35 368.0 5.5 364.8 9.15 363.1 12.8 361.45 16.05 360.05 21.2 359.15 25.05 358.55 115.7 357.95 200.1 358.25 210.8 358.4 217.8 360.2 232.15 L363.75 254.0 Q365.7 266.65 366.0 274.75 367.25 297.0 357.6 309.55 349.7 325.7 346.5 342.05 344.95 351.25 344.8 359.1 L340.4 359.1 340.4 -220.85 343.9 -213.1 345.4 -217.5 345.7 -222.55 Q345.7 -227.4 344.05 -232.75 342.65 -236.75 340.4 -240.7 L340.4 -345.25 346.3 -359.15 M570.4 235.95 L570.4 270.9 Q564.6 287.7 557.1 305.7 538.95 278.1 535.3 267.1 528.1 246.2 546.9 241.0 555.15 238.55 570.4 235.95 M-340.55 201.65 L-340.55 252.6 Q-364.05 239.8 -368.5 230.5 -375.05 217.35 -349.9 205.9 L-340.55 201.65 M-502.2 -359.15 Q-501.3 -338.95 -500.5 -328.45 -498.15 -295.1 -491.7 -265.95 -502.0 -260.8 -508.75 -250.3 -513.35 -243.15 -515.65 -234.3 -516.85 -229.85 -517.15 -226.8 L-517.15 -226.6 -517.95 -226.8 -517.95 -221.0 -517.15 -220.8 -517.15 -183.7 Q-522.4 -179.85 -530.3 -175.2 L-553.65 -161.05 Q-564.8 -153.1 -564.15 -147.3 -563.55 -141.35 -562.95 -129.75 L-561.9 -111.9 -560.35 -73.4 Q-560.2 -69.45 -544.8 -60.75 -529.35 -51.9 -529.2 -47.6 -529.05 -36.0 -520.65 -16.65 -510.9 6.1 -509.4 13.75 -507.55 22.6 -508.9 55.25 -510.45 92.5 -515.35 128.5 -529.05 230.15 -558.35 243.0 -564.65 245.6 -570.45 248.5 L-570.45 -359.15 -502.2 -359.15 M212.5 305.7 Q165.8 278.1 156.2 267.1 137.9 246.2 185.95 241.0 207.95 238.4 277.1 234.0 250.2 269.7 212.5 305.7 M228.3 359.1 Q228.85 356.8 229.75 355.2 229.6 352.45 252.5 348.15 275.25 343.9 275.25 343.1 254.65 331.5 250.2 329.25 234.05 321.45 213.6 315.05 208.4 312.45 214.35 309.1 218.5 306.65 230.7 302.65 L249.9 296.25 Q259.25 292.6 259.25 290.0 274.9 271.7 287.0 249.8 L287.0 289.45 Q279.65 292.55 274.5 295.05 246.25 307.85 257.85 323.1 263.7 330.85 287.0 343.85 L287.0 359.1 228.3 359.1" fill="#000000" fill-opacity="0.09803922" fill-rule="evenodd" stroke="none"/>
    <path d="M340.35 359.1 L-340.25 359.1 -340.25 -359.15 340.35 -359.15 340.35 359.1" fill="#ffffff" fill-opacity="0.0" fill-rule="evenodd" stroke="none"/>
    <path d="M340.35 -359.15 L570.4 -359.15 570.4 359.1 340.35 359.1 -340.25 359.1 -570.45 359.1 -570.45 -359.15 -340.25 -359.15 340.35 -359.15 340.35 359.1 M-340.25 359.1 L-340.25 -359.15" fill="none" stroke="#000000" stroke-linecap="round" stroke-linejoin="miter-clip" stroke-miterlimit="4.0" stroke-width="0.05"/>
  </g>
</svg>
