<?xml version="1.0" encoding="UTF-8" standalone="no"?>
<svg xmlns:xlink="http://www.w3.org/1999/xlink" height="2512.0px" width="1756.7px" xmlns="http://www.w3.org/2000/svg">
  <g transform="matrix(1.0, 0.0, 0.0, 1.0, 878.35, 1256.0)">
    <path d="M39.35 -219.6 L562.65 -219.6 562.65 -261.6 615.45 -261.6 615.45 -219.6 708.0 -219.6 708.0 -191.8 38.15 -191.75 38.15 1255.5 -26.5 1255.5 -26.5 -191.75 -705.25 -191.8 -705.25 -219.6 -26.5 -219.6 -26.5 -832.9 -877.85 -832.9 -877.85 -860.7 -761.8 -860.7 -761.8 -891.3 -656.9 -891.3 -656.9 -860.7 -383.15 -860.7 -383.15 -918.4 -330.35 -918.4 -330.35 -860.7 -26.5 -860.7 -26.5 -1203.4 -85.55 -1203.4 -85.55 -1255.5 100.65 -1255.5 100.65 -1203.4 38.15 -1203.4 38.15 -860.7 257.4 -860.7 257.4 -918.4 310.2 -918.4 310.2 -860.7 763.9 -860.7 763.9 -947.85 816.7 -947.85 816.7 -860.7 877.85 -860.7 877.85 -832.9 38.15 -832.9 38.15 -219.6 39.35 -219.6 38.15 -219.6 38.15 -191.75 38.15 -219.6 39.35 -219.6 M38.15 -832.9 L38.15 -860.7 38.15 -832.9 M-26.5 -1203.4 L38.15 -1203.4 -26.5 -1203.4 M-26.5 -219.6 L-26.5 -191.75 -26.5 -219.6 M-26.5 -860.7 L-26.5 -832.9 -26.5 -860.7" fill="#ffffff" fill-opacity="0.0" fill-rule="evenodd" stroke="none"/>
    <path d="M39.35 -219.6 L38.15 -219.6 38.15 -191.75 M-26.5 -832.9 L-26.5 -860.7 M-26.5 -191.75 L-26.5 -219.6 M38.15 -1203.4 L-26.5 -1203.4" fill="none" stroke="#000000" stroke-linecap="butt" stroke-linejoin="round" stroke-width="1.0"/>
    <path d="M39.35 -219.6 L562.65 -219.6 562.65 -261.6 615.45 -261.6 615.45 -219.6 708.0 -219.6 708.0 -191.8 38.15 -191.75 38.15 1255.5 -26.5 1255.5 -26.5 -191.75 -705.25 -191.8 -705.25 -219.6 -26.5 -219.6 -26.5 -832.9 -877.85 -832.9 -877.85 -860.7 -761.8 -860.7 -761.8 -891.3 -656.9 -891.3 -656.9 -860.7 -383.15 -860.7 -383.15 -918.4 -330.35 -918.4 -330.35 -860.7 -26.5 -860.7 -26.5 -1203.4 -85.55 -1203.4 -85.55 -1255.5 100.65 -1255.5 100.65 -1203.4 38.15 -1203.4 38.15 -860.7" fill="none" stroke="#000000" stroke-linecap="butt" stroke-linejoin="round" stroke-width="1.0"/>
    <path d="M38.15 -860.7 L257.4 -860.7 257.4 -918.4 310.2 -918.4 310.2 -860.7 763.9 -860.7 763.9 -947.85 816.7 -947.85 816.7 -860.7 877.85 -860.7 877.85 -832.9 38.15 -832.9 38.15 -219.6 M38.15 -860.7 L38.15 -832.9" fill="none" stroke="#000000" stroke-linecap="round" stroke-linejoin="round" stroke-width="1.0"/>
  </g>
</svg>
