<?xml version="1.0" encoding="UTF-8" standalone="no"?>
<svg xmlns:xlink="http://www.w3.org/1999/xlink" height="262.05px" width="418.35px" xmlns="http://www.w3.org/2000/svg">
  <g transform="matrix(1.0, 0.0, 0.0, 1.0, 365.0, 313.0)">
    <path d="M27.75 -156.15 L26.95 -156.7 29.3 -154.95 41.25 -54.55 51.35 -51.8 -31.55 -64.7 -31.3 -66.4 -364.3 -146.2 -364.15 -146.65 -363.95 -147.15 -358.3 -157.6 -356.45 -160.1 -349.45 -167.55 -348.8 -168.2 -341.0 -174.65 -340.05 -175.35 Q-316.4 -259.2 -237.45 -294.1 -194.85 -312.5 -157.1 -312.5 -48.65 -304.3 1.2 -222.95 22.2 -189.05 27.75 -156.15 M-340.05 -175.35 L-340.15 -175.1 -339.6 -175.5 -339.5 -175.55 Q-296.95 -204.8 -221.05 -210.45 L-182.75 -211.8 -177.4 -211.8 -172.5 -211.75 Q-130.45 -211.3 -87.85 -202.65 -19.45 -188.45 26.95 -156.7 -19.45 -188.45 -87.85 -202.65 -130.45 -211.3 -172.5 -211.75 L-177.4 -211.8 -182.75 -211.8 -221.05 -210.45 Q-296.95 -204.8 -339.5 -175.55 L-339.6 -175.5 -340.15 -175.1 -340.05 -175.35" fill="#ffffff" fill-opacity="0.0" fill-rule="evenodd" stroke="none"/>
    <path d="M27.75 -156.15 L26.95 -156.7" fill="none" stroke="#000000" stroke-linecap="butt" stroke-linejoin="miter-clip" stroke-miterlimit="4.0" stroke-opacity="0.8980392" stroke-width="1.0"/>
    <path d="M26.95 -156.7 L29.3 -154.95 41.25 -54.55 51.35 -51.8 -31.55 -64.7 -31.3 -66.4 -364.3 -146.2 -364.15 -146.65 -363.95 -147.15 -358.3 -157.6 -356.45 -160.1 -349.45 -167.55 -348.8 -168.2 -341.0 -174.65 -340.05 -175.35 -340.15 -175.1 -339.6 -175.5 -339.5 -175.55 Q-296.95 -204.8 -221.05 -210.45 L-182.75 -211.8 -177.4 -211.8 -172.5 -211.75 Q-130.45 -211.3 -87.85 -202.65 -19.45 -188.45 26.95 -156.7" fill="none" stroke="#000000" stroke-linecap="round" stroke-linejoin="miter-clip" stroke-miterlimit="4.0" stroke-opacity="0.8980392" stroke-width="1.0"/>
    <path d="M-340.05 -175.35 Q-316.4 -259.2 -237.45 -294.1 -194.85 -312.5 -157.1 -312.5 -48.65 -304.3 1.2 -222.95 22.2 -189.05 27.75 -156.15" fill="none" stroke="#000000" stroke-linecap="round" stroke-linejoin="miter-clip" stroke-miterlimit="4.0" stroke-opacity="0.8980392" stroke-width="1.0"/>
    <path d="M-157.1 -312.5 L-136.25 -310.1 Q-206.45 -274.75 -208.9 -220.05 L-181.3 -216.65 -172.5 -211.75 -177.4 -211.8 -182.75 -211.8 -221.05 -210.45 -239.4 -195.1 -205.5 -188.8 -165.8 -191.7 -101.4 -182.55 -76.25 -160.75 -76.45 -160.75 -52.05 -139.45 9.45 -93.45 14.9 -61.65 51.35 -51.8 -31.55 -64.7 -31.3 -66.4 -364.3 -146.2 -364.15 -146.65 -363.95 -147.15 -358.3 -157.6 Q-351.7 -166.3 -339.35 -175.55 L-339.5 -175.55 -339.6 -175.5 -340.15 -175.1 -340.05 -175.35 Q-316.4 -259.2 -237.45 -294.1 -194.85 -312.5 -157.1 -312.5" fill="#000000" fill-opacity="0.09803922" fill-rule="evenodd" stroke="none"/>
  </g>
</svg>
