<?xml version="1.0" encoding="UTF-8" standalone="no"?>
<svg xmlns:xlink="http://www.w3.org/1999/xlink" height="414.9px" width="280.55px" xmlns="http://www.w3.org/2000/svg">
  <g transform="matrix(1.0, 0.0, 0.0, 1.0, 140.8, 207.45)">
    <path d="M-138.25 -205.6 L136.9 -205.6 136.9 -204.25 -138.25 -204.25 -138.25 -205.6" fill="#ffffff" fill-rule="evenodd" stroke="none"/>
    <path d="M120.85 -155.5 L121.55 -155.5 121.55 -152.4 120.85 -155.5" fill="#595252" fill-rule="evenodd" stroke="none"/>
    <path d="M-115.4 197.4 L-115.4 -151.75 114.05 -151.75 114.05 195.7 115.2 197.4 -115.4 197.4" fill="#000000" fill-opacity="0.6" fill-rule="evenodd" stroke="none"/>
    <path d="M120.85 -155.5 L121.55 -152.4 121.55 206.95 115.2 197.4 114.05 195.7 114.05 -151.75 -115.4 -151.75 -115.4 197.4 -115.4 197.75 -122.9 206.95 -122.9 -155.5 120.85 -155.5" fill="#000000" fill-opacity="0.29803923" fill-rule="evenodd" stroke="none"/>
    <path d="M-138.25 -205.6 L-138.25 -204.25 136.9 -204.25 136.9 -205.6 -138.25 -205.6 M121.55 -152.4 L121.55 -155.5 120.85 -155.5 -122.9 -155.5 -122.9 206.95 -140.3 206.95 -140.3 -179.7 -140.3 -206.95 139.25 -206.95 139.25 206.95 121.55 206.95 121.55 -152.4 M138.75 -179.7 L-140.3 -179.7 138.75 -179.7" fill="#ffffff" fill-opacity="0.0" fill-rule="evenodd" stroke="none"/>
    <path d="M121.55 -152.4 L121.55 -155.5 120.85 -155.5 -122.9 -155.5 -122.9 206.95 -140.3 206.95 -140.3 -179.7 138.75 -179.7 M121.55 -152.4 L121.55 206.95 139.25 206.95 139.25 -206.95 -140.3 -206.95 -140.3 -179.7 M115.2 197.4 L-115.4 197.4" fill="none" stroke="#000000" stroke-linecap="butt" stroke-linejoin="miter-clip" stroke-miterlimit="4.0" stroke-width="1.0"/>
    <path d="M-122.9 206.95 L-115.4 197.75 -115.4 197.4 -115.4 -151.75 114.05 -151.75 114.05 195.7 115.2 197.4 121.55 206.95" fill="none" stroke="#000000" stroke-linecap="round" stroke-linejoin="round" stroke-opacity="0.4" stroke-width="1.0"/>
  </g>
</svg>
