<?xml version="1.0" encoding="UTF-8" standalone="no"?>
<svg xmlns:xlink="http://www.w3.org/1999/xlink" height="526.8px" width="353.95px" xmlns="http://www.w3.org/2000/svg">
  <g transform="matrix(1.0, 0.0, 0.0, 1.0, 0.05, 0.05)">
    <path d="M170.55 0.25 Q232.55 -1.2 292.4 5.7 319.35 8.8 345.65 13.85 L348.35 39.9 Q353.25 89.1 353.8 105.95 354.35 122.7 348.8 195.45 L341.05 294.25 Q340.7 297.95 340.15 313.5 339.45 331.85 339.6 342.25 340.0 384.45 343.3 466.4 L345.4 515.1 Q340.4 516.65 314.6 521.3 282.45 527.1 269.95 526.65 257.55 526.2 241.8 522.35 L228.5 518.55 218.65 324.5 Q218.3 314.25 214.7 294.25 211.15 274.55 204.4 245.3 187.65 172.6 184.35 152.8 178.75 119.25 171.55 119.5 169.3 119.55 167.2 123.0 166.1 124.75 165.5 126.45 L135.5 256.95 Q132.2 272.15 129.95 294.25 127.75 315.15 126.45 342.25 124.1 390.8 124.6 457.0 124.85 490.1 125.55 513.45 115.95 517.6 102.05 521.2 74.25 528.3 52.8 525.3 31.35 522.3 17.9 516.45 11.15 513.55 8.7 511.2 10.95 482.65 13.05 447.2 17.35 376.4 16.9 342.25 16.55 317.45 15.3 294.25 L0.0 18.4 Q18.15 14.45 48.55 10.2 109.3 1.7 170.55 0.25" fill="#ffffff" fill-opacity="0.0" fill-rule="evenodd" stroke="none"/>
    <path d="M165.5 126.45 Q166.1 124.75 167.2 123.0 169.3 119.55 171.55 119.5 178.75 119.25 184.35 152.8 187.65 172.6 204.4 245.3 211.15 274.55 214.7 294.25 218.3 314.25 218.65 324.5 L228.5 518.55 241.8 522.35 Q257.55 526.2 269.95 526.65 282.45 527.1 314.6 521.3 340.4 516.65 345.4 515.1 L343.3 466.4 Q340.0 384.45 339.6 342.25 339.45 331.85 340.15 313.5 340.7 297.95 341.05 294.25 L348.8 195.45 Q354.35 122.7 353.8 105.95 353.25 89.1 348.35 39.9 L345.65 13.85 Q319.35 8.8 292.4 5.7 232.55 -1.2 170.55 0.25 M0.0 18.4 L15.3 294.25 Q16.55 317.45 16.9 342.25 17.35 376.4 13.05 447.2 10.95 482.65 8.7 511.2 11.15 513.55 17.9 516.45 31.35 522.3 52.8 525.3 74.25 528.3 102.05 521.2 115.95 517.6 125.55 513.45 124.85 490.1 124.6 457.0 124.1 390.8 126.45 342.25 127.75 315.15 129.95 294.25 132.2 272.15 135.5 256.95" fill="none" stroke="#000000" stroke-linecap="round" stroke-linejoin="miter-clip" stroke-miterlimit="4.0" stroke-width="0.1"/>
    <path d="M170.55 0.25 Q109.3 1.7 48.55 10.2 18.15 14.45 0.0 18.4 M135.5 256.95 L165.5 126.45 Z" fill="none" stroke="#000000" stroke-linecap="round" stroke-linejoin="miter-clip" stroke-miterlimit="3.0" stroke-width="0.1"/>
    <path d="M325.15 42.25 Q324.4 26.85 323.45 14.45 L342.95 17.9 349.75 105.45 Q345.8 153.55 342.0 206.45 334.45 312.25 335.5 336.45 337.15 375.15 341.35 511.05 L307.0 517.85 301.75 321.8 Q324.5 112.15 325.85 88.1 326.7 73.05 325.15 42.25 M135.0 188.25 Q149.35 154.2 162.8 123.75 154.8 154.25 146.3 188.85 L141.55 208.45 Q128.9 261.25 126.75 278.95 125.9 285.95 124.5 323.1 123.35 353.0 121.85 402.45 120.15 457.85 118.8 510.75 L97.2 518.0 Q95.3 467.95 94.35 413.9 93.35 355.75 94.3 323.1 95.1 294.95 97.4 285.7 102.35 265.65 133.1 192.7 L135.0 188.25" fill="#000000" fill-opacity="0.2" fill-rule="evenodd" stroke="none"/>
  </g>
</svg>
