<?xml version="1.0" encoding="UTF-8" standalone="no"?>
<svg xmlns:xlink="http://www.w3.org/1999/xlink" height="68.1px" width="237.75px" xmlns="http://www.w3.org/2000/svg">
  <g transform="matrix(1.0, 0.0, 0.0, 1.0, 3.25, -0.7)">
    <path d="M126.65 52.6 L229.75 61.2 230.65 60.95 231.3 60.3 231.5 59.4 Q230.5 34.45 230.25 21.35 L230.0 20.45 229.35 19.85 Q228.1 19.1 226.05 18.65 221.15 17.5 211.15 17.6 L130.5 15.65 126.65 52.6 126.0 58.55 126.0 58.6 Q125.0 60.2 122.8 61.9 118.1 65.4 111.5 65.7 103.7 66.0 90.4 65.35 L73.8 64.1 Q60.7 62.3 58.5 53.55 L58.5 53.35 Q58.05 51.35 57.85 48.6 L2.8 54.7 -0.25 25.05 57.4 15.65 Q57.35 12.8 58.05 9.8 59.25 4.75 62.3 3.85 L88.75 3.7 121.65 5.1 Q126.35 6.35 128.85 11.15 L128.85 11.2 Q130.1 13.5 130.5 15.65 M109.95 31.7 L109.95 31.65 109.95 31.55 109.95 23.95 Q109.95 18.3 105.95 14.3 101.95 10.2 96.2 10.2 L81.7 10.2 Q76.05 10.2 72.05 14.25 L72.0 14.3 Q67.95 18.3 67.95 23.95 L67.95 30.1 67.95 30.15 109.95 31.7 Q109.85 34.95 108.95 39.05 107.75 44.65 105.95 46.3 101.95 50.3 96.2 50.3 L81.7 50.3 Q76.05 50.3 72.05 46.3 67.95 42.25 67.95 36.55 L67.95 30.15 M57.85 48.6 Q57.2 41.85 57.5 30.5 L57.4 15.65" fill="none" stroke="#ffffff" stroke-linecap="round" stroke-linejoin="round" stroke-width="6.0"/>
  </g>
</svg>
