<?xml version="1.0" encoding="UTF-8" standalone="no"?>
<svg xmlns:xlink="http://www.w3.org/1999/xlink" height="18.25px" width="48.3px" xmlns="http://www.w3.org/2000/svg">
  <g transform="matrix(1.0, 0.0, 0.0, 1.0, 0.5, 0.5)">
    <path d="M47.3 0.0 L47.3 9.25 45.75 9.25 45.75 0.0 47.3 0.0 M44.25 0.0 L44.25 9.25 42.7 9.25 42.7 0.0 44.25 0.0 M41.15 9.25 L39.6 9.25 39.6 0.0 41.15 0.0 41.15 9.25 M38.1 0.0 L38.1 9.25 36.55 9.25 36.55 0.0 38.1 0.0 M35.0 0.0 L35.0 9.25 33.45 9.25 33.45 0.0 35.0 0.0 M21.0 2.75 L21.0 10.2 21.9 9.9 21.9 2.45 M16.75 4.15 L16.75 11.6 17.7 11.25 17.7 3.8 M18.85 3.45 L18.85 10.9 19.75 10.6 19.75 3.15 M15.0 4.7 L15.0 12.15 15.9 11.85 15.9 4.4 M8.7 6.8 L8.7 14.2 9.6 13.9 9.6 6.5 M7.2 7.3 L7.2 14.7 6.3 15.0 6.3 7.6 M0.9 9.35 L0.9 16.8 0.0 17.1 0.0 9.65 M3.0 8.65 L3.0 16.1 2.05 16.4 2.05 8.95 M4.2 8.25 L4.2 15.7 5.1 15.4 5.1 7.95 M10.75 6.1 L10.75 13.55 11.7 13.25 11.7 5.8 M12.9 5.4 L12.9 12.85 13.85 12.55 13.85 5.1" fill="none" stroke="#000000" stroke-linecap="round" stroke-linejoin="miter-clip" stroke-miterlimit="4.0" stroke-opacity="0.6" stroke-width="1.0"/>
  </g>
</svg>
