<?xml version="1.0" encoding="UTF-8" standalone="no"?>
<svg xmlns:xlink="http://www.w3.org/1999/xlink" height="20.4px" width="11.9px" xmlns="http://www.w3.org/2000/svg">
  <g transform="matrix(1.0, 0.0, 0.0, 1.0, 0.5, 0.5)">
    <path d="M10.9 14.65 L10.9 16.35 10.9 19.4 10.15 19.4 7.65 19.4 7.15 18.25 7.15 18.15 7.1 18.15 4.75 12.75 3.65 10.25 2.2 6.9 1.3 4.8 0.0 1.85 0.0 0.0 2.55 0.0 3.4 0.0 3.65 0.0 4.6 0.0 6.1 3.5 7.15 5.95 7.6 6.9 9.35 11.05 9.75 11.9 10.1 12.75 10.9 14.65 M2.7 19.4 L0.0 19.4 0.0 13.15 2.7 19.4 M7.05 0.0 L7.15 0.0 10.2 0.0 10.9 0.0 10.9 6.9 10.9 8.85 10.05 6.9 9.25 5.1 8.55 3.5 7.15 0.3 7.05 0.0" fill="#ffffff" fill-opacity="0.0" fill-rule="evenodd" stroke="none"/>
    <path d="M10.9 8.85 L10.9 11.9 10.9 12.75 10.9 14.65 10.1 12.75 9.75 11.9 9.35 11.05 7.6 6.9 7.15 5.95 6.1 3.5 4.6 0.0 6.1 0.0 7.05 0.0 7.15 0.3 8.55 3.5 9.25 5.1 10.05 6.9 10.9 8.85 M7.65 19.4 L7.15 19.4 6.15 19.4 2.7 19.4 0.0 13.15 0.0 12.75 0.0 6.9 0.0 4.8 0.0 1.85 1.3 4.8 2.2 6.9 3.65 10.25 4.75 12.75 7.1 18.15 7.15 18.15 7.15 18.25 7.65 19.4" fill="#ffffff" fill-opacity="0.44705883" fill-rule="evenodd" stroke="none"/>
    <path d="M10.9 8.85 L10.9 11.9 10.9 12.75 10.9 14.65 10.9 16.35 10.9 19.4 10.15 19.4 7.65 19.4 7.15 19.4 6.15 19.4 2.7 19.4 0.0 19.4 0.0 13.15 M0.0 12.75 L0.0 6.9 0.0 4.8 0.0 1.85 0.0 0.0 2.55 0.0 3.4 0.0 3.65 0.0 4.6 0.0 6.1 0.0 7.05 0.0 M7.15 0.0 L10.2 0.0 10.9 0.0 10.9 6.9 10.9 8.85" fill="none" stroke="#000000" stroke-linecap="round" stroke-linejoin="miter-clip" stroke-miterlimit="4.0" stroke-opacity="0.6" stroke-width="1.0"/>
    <path d="M0.0 13.15 L0.0 12.75 M7.05 0.0 L7.15 0.0" fill="none" stroke="#000000" stroke-linecap="round" stroke-linejoin="miter-clip" stroke-miterlimit="4.0" stroke-opacity="0.4" stroke-width="1.0"/>
  </g>
</svg>
