<?xml version="1.0" encoding="UTF-8" standalone="no"?>
<svg xmlns:xlink="http://www.w3.org/1999/xlink" height="418.1px" width="458.45px" xmlns="http://www.w3.org/2000/svg">
  <g transform="matrix(1.0, 0.0, 0.0, 1.0, 0.05, 0.05)">
    <path d="M450.35 106.25 Q431.05 83.5 406.6 71.0 345.75 40.3 303.1 116.5 L350.85 133.55 Q399.2 143.2 441.85 125.05 L458.35 116.5 Q454.35 110.8 450.35 106.25 M246.2 231.95 Q250.75 227.95 255.9 222.25 266.7 209.2 277.5 185.85 291.7 155.75 291.7 144.95 M3.95 113.65 L51.75 133.55 Q71.05 138.1 89.85 138.65 127.35 139.8 163.2 122.75 146.7 92.6 118.25 76.1 67.65 47.1 17.05 99.45 10.2 105.7 3.95 113.65 M102.35 368.4 L124.5 365.55 Q148.4 363.85 155.25 368.4 166.6 375.8 223.45 368.4 L262.15 363.3 Q302.5 358.75 314.45 361.0 333.2 364.45 363.95 364.45" fill="none" stroke="#000000" stroke-linecap="round" stroke-linejoin="miter-clip" stroke-miterlimit="4.0" stroke-opacity="0.4" stroke-width="0.1"/>
    <path d="M0.0 38.6 Q10.2 28.35 25.55 18.7 55.7 -0.1 79.6 4.45 105.75 9.6 148.4 24.35 167.15 30.65 189.35 38.6 L324.1 0.5 Q352.55 -1.8 382.7 6.15 413.95 13.55 446.95 31.2 M193.35 68.75 L199.6 90.9 Q204.15 117.05 196.75 133.55 M181.95 136.95 L180.8 141.5 175.15 156.3 Q165.45 178.5 151.25 190.4 148.4 192.7 146.15 195.55 136.45 207.5 135.3 227.4 134.75 240.45 136.45 250.7 L208.1 266.05 200.7 227.95 284.3 262.1 M314.45 361.0 Q276.35 345.65 246.2 341.7 L218.35 340.55 Q212.65 340.0 206.4 340.55 L189.35 341.7 M142.15 401.4 L144.4 407.65 Q151.25 413.9 176.25 415.6 218.9 418.45 253.05 417.9 300.25 416.75 304.2 407.1 307.65 398.0 316.15 390.6 L324.1 384.35" fill="none" stroke="#000000" stroke-linecap="round" stroke-linejoin="miter-clip" stroke-miterlimit="4.0" stroke-opacity="0.6" stroke-width="0.1"/>
  </g>
</svg>
