<?xml version="1.0" encoding="UTF-8" standalone="no"?>
<svg xmlns:xlink="http://www.w3.org/1999/xlink" height="100.0px" width="591.2px" xmlns="http://www.w3.org/2000/svg">
  <g transform="matrix(1.0, 0.0, 0.0, 1.0, 0.5, -20.6)">
    <path d="M168.45 112.55 Q169.3 111.95 178.35 107.3 188.0 101.25 193.25 93.15 195.75 89.3 198.25 87.2 L202.5 83.45 Q205.65 79.85 209.45 72.1 212.95 65.0 213.95 64.2 L217.65 61.55 Q221.6 58.7 227.35 54.05 L223.25 63.9 Q222.45 65.7 221.35 73.45 227.65 67.0 227.65 64.45 228.6 63.25 246.25 54.95 L244.45 65.6 251.85 57.25 Q254.1 54.7 261.5 47.55 L242.1 72.05 Q236.45 73.65 229.5 76.0 215.6 80.65 209.1 84.25 L217.25 81.25 Q214.3 82.55 209.8 86.25 203.3 91.6 200.1 97.25 202.4 96.9 218.5 88.8 L214.6 94.95 224.4 89.65 Q236.95 83.1 250.8 77.05 239.55 84.8 234.8 89.9 232.05 92.9 226.75 101.25 227.2 101.6 229.15 101.85 L231.8 102.05 234.05 101.9 235.2 100.4 Q238.7 96.0 252.6 87.45 L250.05 91.65 246.9 96.15 Q254.4 94.6 261.15 87.6 266.5 82.05 266.5 80.4 266.5 77.25 266.65 76.7 266.9 75.75 268.4 75.05 269.5 74.55 273.75 72.95 278.75 70.9 284.6 67.9 L281.2 70.75 Q279.8 72.0 279.25 73.25 278.05 75.95 278.05 88.0 278.05 89.3 279.4 97.05 280.8 105.2 281.45 106.65 L281.9 107.35 282.15 97.6 285.9 97.95 284.75 94.0 283.45 90.1 289.65 92.7 295.7 95.35 Q294.8 93.3 292.6 91.45 L288.8 88.05 Q284.15 82.9 284.15 70.2 284.15 69.6 286.0 68.7 286.95 68.25 287.85 67.9 290.0 73.1 292.6 77.25 295.75 82.35 300.75 93.25 301.65 95.25 307.55 98.55 314.6 102.5 316.5 104.25 L317.8 105.45 Q314.1 101.4 312.85 99.45 309.95 94.85 310.6 90.8 312.65 90.8 317.3 93.8 L324.05 98.55 Q325.15 99.35 330.5 101.35 L336.65 103.7 337.1 103.95 Q331.6 99.8 330.05 96.55 328.95 94.2 328.95 89.15 L328.05 84.2 Q326.9 78.9 325.25 74.35 L331.7 70.65 Q334.6 74.85 337.15 76.75 L346.95 84.05 Q342.8 74.8 331.95 66.0 L317.85 55.9 331.0 63.75 Q345.55 72.75 352.5 78.5 L351.1 82.75 Q352.25 83.15 357.3 85.95 361.75 88.35 362.6 88.35 L377.45 86.85 373.75 81.75 Q385.05 84.15 391.05 86.1 L407.0 87.3 385.65 88.5 Q408.9 91.2 417.7 95.05 419.65 95.9 423.4 98.15 426.5 100.05 429.5 101.05 L430.45 101.3 Q429.9 100.25 426.4 96.4 422.9 92.55 422.05 90.8 L441.75 92.85 461.75 94.85 Q463.2 94.85 463.8 94.35 462.6 91.95 457.1 89.4 453.75 87.85 450.7 86.95 L449.55 86.7 Q466.6 87.25 482.5 90.9 492.05 93.1 511.8 98.8 503.0 94.65 495.75 91.4 481.85 85.1 475.15 83.4 466.0 81.05 461.45 77.25 460.15 76.2 454.05 69.0 L453.95 68.9 Q462.55 77.85 478.85 81.4 L490.8 83.5 Q497.15 84.45 499.5 85.35 L526.8 95.6 558.3 107.0 549.7 105.15 537.15 103.95 530.75 104.2 533.5 106.4 536.35 109.15 536.6 109.95 532.7 110.1 Q516.3 110.1 490.8 102.65 L488.75 102.15 Q489.5 102.7 499.9 107.45 510.0 112.0 511.45 113.4 L507.5 114.7 502.9 115.4 483.4 114.15 460.9 112.7 474.65 112.2 Q488.0 111.3 491.8 108.7 474.75 104.05 462.35 104.05 L447.9 105.7 433.35 107.5 431.7 107.5 434.9 109.6 435.55 109.95 433.3 108.9 427.45 106.0 Q420.95 103.05 411.9 103.05 L400.05 103.4 398.9 103.35 Q400.5 104.5 404.8 105.8 L409.5 107.1 409.85 107.25 407.95 107.3 Q401.6 107.3 387.2 104.25 L372.1 100.85 371.6 100.7 378.3 105.9 Q381.8 108.55 385.85 110.05 361.25 104.25 353.1 98.3 L348.1 94.2 Q345.25 92.2 340.4 90.9 L339.45 90.85 Q341.8 94.5 349.8 102.0 359.8 111.35 366.2 113.4 L360.35 112.45 348.7 111.4 340.1 112.0 328.05 111.45 Q328.4 112.65 335.6 116.5 L336.65 116.95 324.75 115.4 Q315.05 114.0 295.45 108.35 295.35 109.75 296.95 112.25 298.8 115.15 301.5 116.55 300.35 116.05 296.45 115.05 L292.65 114.1 290.8 114.15 291.4 116.55 Q291.6 117.45 291.95 117.9 L287.2 118.1 274.15 116.95 Q264.2 115.65 264.2 114.35 L263.95 111.7 263.95 110.95 Q260.6 112.9 258.85 113.6 254.25 115.5 249.85 115.5 L236.15 114.6 236.9 110.8 237.4 107.25 237.25 106.3 Q227.4 112.15 220.1 111.95 220.95 109.85 224.75 103.55 227.4 99.2 227.4 95.9 L227.25 94.15 Q224.45 94.85 220.85 97.5 L214.05 102.6 Q204.25 109.35 191.05 109.35 L188.25 109.25 192.5 103.45 Q186.05 105.1 177.2 108.8 L168.45 112.55 M122.9 73.05 Q123.7 75.15 124.7 75.9 125.8 76.8 128.05 76.8 131.25 76.8 137.35 75.0 L151.8 70.85 150.3 72.25 Q143.65 76.75 138.6 79.7 L134.25 82.2 144.4 84.1 Q145.15 84.1 146.35 83.15 L149.1 81.0 Q153.85 77.55 161.3 76.5 L178.65 75.65 Q180.65 75.75 181.15 75.1 L183.25 72.5 Q189.45 66.95 213.95 59.1 211.25 61.4 199.65 77.4 188.3 93.1 186.6 94.25 L186.55 94.1 Q186.7 93.55 188.6 90.05 L187.75 91.1 180.55 98.75 Q175.65 103.95 168.25 112.6 165.15 113.85 160.85 114.5 L155.3 115.0 150.1 114.6 153.3 110.2 150.5 110.15 Q143.55 110.15 137.05 112.2 L130.7 114.65 Q144.9 101.55 156.0 95.45 156.95 94.9 164.85 90.85 170.2 88.15 174.5 85.35 L173.6 85.5 Q171.55 85.8 151.55 91.8 134.85 96.75 123.5 96.75 L119.4 96.55 120.05 96.15 Q122.5 94.45 123.45 94.1 L91.2 100.15 Q65.65 104.6 60.05 105.95 65.25 101.35 70.0 98.55 74.15 96.35 75.55 95.25 L73.75 95.75 72.9 95.95 Q80.25 93.85 88.3 90.75 107.15 83.45 122.9 73.05 M438.3 73.4 L449.5 73.05 451.35 73.0 Q442.25 76.25 435.6 76.25 L433.6 76.05 404.25 63.75 419.95 65.6 406.55 58.65 433.9 66.25 449.95 70.2 445.6 70.6 439.6 70.25 428.25 69.3 Q437.9 73.35 438.3 73.4 M265.35 91.2 Q261.1 97.0 254.75 108.4 L253.45 109.95 Q258.75 108.7 262.1 106.55 264.85 104.75 267.2 101.7 L271.55 96.35 Q274.55 92.25 274.55 89.9 L273.5 76.2 271.2 81.3 Q268.5 86.9 265.35 91.2 M305.4 76.65 L300.75 61.9 Q311.65 70.4 315.55 85.45 L311.85 78.5 305.4 76.65" fill="#000000" fill-opacity="0.09803922" fill-rule="evenodd" stroke="none"/>
    <path d="M454.05 69.0 Q460.15 76.2 461.45 77.25 466.0 81.05 475.15 83.4 481.85 85.1 495.75 91.4 503.0 94.65 511.8 98.8 492.05 93.1 482.5 90.9 466.6 87.25 449.55 86.7 L450.7 86.95 Q453.75 87.85 457.1 89.4 462.6 91.95 463.8 94.35 463.2 94.85 461.75 94.85 L441.75 92.85 422.05 90.8 Q422.9 92.55 426.4 96.4 429.9 100.25 430.45 101.3 L429.5 101.05 Q426.5 100.05 423.4 98.15 419.65 95.9 417.7 95.05 408.9 91.2 385.65 88.5 L407.0 87.3 391.05 86.1 Q385.05 84.15 373.75 81.75 L377.45 86.85 362.6 88.35 Q361.75 88.35 357.3 85.95 352.25 83.15 351.1 82.75 L352.5 78.5 Q345.55 72.75 331.0 63.75 L317.85 55.9 331.95 66.0 Q342.8 74.8 346.95 84.05 L337.15 76.75 Q334.6 74.85 331.7 70.65 L325.25 74.35 Q326.9 78.9 328.05 84.2 L328.95 89.15 Q328.95 94.2 330.05 96.55 331.6 99.8 337.1 103.95 L336.65 103.7 330.5 101.35 Q325.15 99.35 324.05 98.55 L317.3 93.8 Q312.65 90.8 310.6 90.8 309.95 94.85 312.85 99.45 314.1 101.4 317.8 105.45 L316.5 104.25 Q314.6 102.5 307.55 98.55 301.65 95.25 300.75 93.25 295.75 82.35 292.6 77.25 290.0 73.1 287.85 67.9 286.95 68.25 286.0 68.7 284.15 69.6 284.15 70.2 284.15 82.9 288.8 88.05 L292.6 91.45 Q294.8 93.3 295.7 95.35 L289.65 92.7 283.45 90.1 284.75 94.0 285.9 97.95 282.15 97.6 281.9 107.35 281.45 106.65 Q280.8 105.2 279.4 97.05 278.05 89.3 278.05 88.0 278.05 75.95 279.25 73.25 279.8 72.0 281.2 70.75 L284.6 67.9 Q278.75 70.9 273.75 72.95 269.5 74.55 268.4 75.05 266.9 75.75 266.65 76.7 266.5 77.25 266.5 80.4 266.5 82.05 261.15 87.6 254.4 94.6 246.9 96.15 L250.05 91.65 252.6 87.45 Q238.7 96.0 235.2 100.4 L234.05 101.9 231.8 102.05 229.15 101.85 Q227.2 101.6 226.75 101.25 232.05 92.9 234.8 89.9 239.55 84.8 250.8 77.05 236.95 83.1 224.4 89.65 L214.6 94.95 218.5 88.8 Q202.4 96.9 200.1 97.25 203.3 91.6 209.8 86.25 214.3 82.55 217.25 81.25 L209.1 84.25 Q215.6 80.65 229.5 76.0 236.45 73.65 242.1 72.05 L261.5 47.55 Q254.1 54.7 251.85 57.25 L244.45 65.6 246.25 54.95 Q228.6 63.25 227.65 64.45 227.65 67.0 221.35 73.45 222.45 65.7 223.25 63.9 L227.35 54.05 Q221.6 58.7 217.65 61.55 L213.95 64.2 Q212.95 65.0 209.45 72.1 205.65 79.85 202.5 83.45 L198.25 87.2 Q195.75 89.3 193.25 93.15 188.0 101.25 178.35 107.3 169.3 111.95 168.45 112.55 L168.25 112.6 Q175.65 103.95 180.55 98.75 L187.75 91.1 188.6 90.05 Q186.7 93.55 186.55 94.1 L186.6 94.25 Q188.3 93.1 199.65 77.4 211.25 61.4 213.95 59.1 189.45 66.95 183.25 72.5 L181.15 75.1 Q180.65 75.75 178.65 75.65 L161.3 76.5 Q153.85 77.55 149.1 81.0 L146.35 83.15 Q145.15 84.1 144.4 84.1 L134.25 82.2 138.6 79.7 Q143.65 76.75 150.3 72.25 L151.8 70.85 137.35 75.0 Q131.25 76.8 128.05 76.8 125.8 76.8 124.7 75.9 123.7 75.15 122.9 73.05 142.2 61.45 152.1 57.9 160.1 55.05 194.6 43.75 202.05 41.15 215.75 35.65 228.3 30.6 235.05 28.35 257.0 21.1 281.6 21.1 309.0 21.1 340.35 30.75 360.35 36.9 412.45 56.1 419.3 58.5 432.1 62.3 L454.05 69.0 M305.4 76.65 L311.85 78.5 315.55 85.45 Q311.65 70.4 300.75 61.9 L305.4 76.65 M265.35 91.2 Q268.5 86.9 271.2 81.3 L273.5 76.2 274.55 89.9 Q274.55 92.25 271.55 96.35 L267.2 101.7 Q264.85 104.75 262.1 106.55 258.75 108.7 253.45 109.95 L254.75 108.4 Q261.1 97.0 265.35 91.2 M438.3 73.4 Q437.9 73.35 428.25 69.3 L439.6 70.25 445.6 70.6 449.95 70.2 433.9 66.25 406.55 58.65 419.95 65.6 404.25 63.75 433.6 76.05 435.6 76.25 Q442.25 76.25 451.35 73.0 L449.5 73.05 438.3 73.4" fill="#ffffff" fill-opacity="0.0" fill-rule="evenodd" stroke="none"/>
    <path d="M168.25 112.6 L168.45 112.55 177.2 108.8 Q186.05 105.1 192.5 103.45 L188.25 109.25 191.05 109.35 Q204.25 109.35 214.05 102.6 L220.85 97.5 Q224.45 94.85 227.25 94.15 L227.4 95.9 Q227.4 99.2 224.75 103.55 220.95 109.85 220.1 111.95 227.4 112.15 237.25 106.3 L237.4 107.25 236.9 110.8 236.15 114.6 249.85 115.5 Q254.25 115.5 258.85 113.6 260.6 112.9 263.95 110.95 L263.95 111.7 264.2 114.35 Q264.2 115.65 274.15 116.95 L287.2 118.1 291.95 117.9 Q291.6 117.45 291.4 116.55 L290.8 114.15 292.65 114.1 296.45 115.05 Q300.35 116.05 301.5 116.55 298.8 115.15 296.95 112.25 295.35 109.75 295.45 108.35 315.05 114.0 324.75 115.4 L336.65 116.95 335.6 116.5 Q328.4 112.65 328.05 111.45 L340.1 112.0 348.7 111.4 360.35 112.45 366.2 113.4 Q359.8 111.35 349.8 102.0 341.8 94.5 339.45 90.85 L340.4 90.9 Q345.25 92.2 348.1 94.2 L353.1 98.3 Q361.25 104.25 385.85 110.05 381.8 108.55 378.3 105.9 L371.6 100.7 372.1 100.85 387.2 104.25 Q401.6 107.3 407.95 107.3 L409.85 107.25 409.5 107.1 404.8 105.8 Q400.5 104.5 398.9 103.35 L400.05 103.4 411.9 103.05 Q420.95 103.05 427.45 106.0 L433.3 108.9 435.55 109.95 434.9 109.6 431.7 107.5 433.35 107.5 447.9 105.7 462.35 104.05 Q474.75 104.05 491.8 108.7 488.0 111.3 474.65 112.2 L460.9 112.7 483.4 114.15 502.9 115.4 507.5 114.7 511.45 113.4 Q510.0 112.0 499.9 107.45 489.5 102.7 488.75 102.15 L490.8 102.65 Q516.3 110.1 532.7 110.1 L536.6 109.95 536.35 109.15 533.5 106.4 530.75 104.2 537.15 103.95 549.7 105.15 558.3 107.0 Q562.2 108.05 565.1 109.45 L576.6 114.8 Q588.0 119.9 589.95 120.1 L0.35 120.1 Q7.75 118.6 13.2 116.3 15.85 115.2 22.45 111.7 35.75 104.65 55.3 99.6 63.55 98.55 72.9 95.95 63.55 98.55 55.3 99.6 L72.9 95.95 73.75 95.75 75.55 95.25 Q74.15 96.35 70.0 98.55 65.25 101.35 60.05 105.95 65.65 104.6 91.2 100.15 L123.45 94.1 Q122.5 94.45 120.05 96.15 L119.4 96.55 123.5 96.75 Q134.85 96.75 151.55 91.8 171.55 85.8 173.6 85.5 L174.5 85.35 Q170.2 88.15 164.85 90.85 156.95 94.9 156.0 95.45 144.9 101.55 130.7 114.65 L137.05 112.2 Q143.55 110.15 150.5 110.15 L153.3 110.2 150.1 114.6 155.3 115.0 160.85 114.5 Q165.15 113.85 168.25 112.6" fill="#000000" fill-opacity="0.2" fill-rule="evenodd" stroke="none"/>
    <path d="M454.05 69.0 L432.1 62.3 Q419.3 58.5 412.45 56.1 360.35 36.9 340.35 30.75 309.0 21.1 281.6 21.1 257.0 21.1 235.05 28.35 228.3 30.6 215.75 35.65 202.05 41.15 194.6 43.75 160.1 55.05 152.1 57.9 142.2 61.45 122.9 73.05 107.15 83.45 88.3 90.75 80.25 93.85 72.9 95.95 63.55 98.55 55.3 99.6 35.75 104.65 22.45 111.7 15.85 115.2 13.2 116.3 7.75 118.6 0.35 120.1 L589.95 120.1 Q588.0 119.9 576.6 114.8 L565.1 109.45 Q562.2 108.05 558.3 107.0 L526.8 95.6 499.5 85.35 Q497.15 84.45 490.8 83.5 L478.85 81.4 Q462.55 77.85 453.95 68.9 L454.05 69.0 M589.95 120.1 L590.2 120.1 M0.35 120.1 L0.0 120.1" fill="none" stroke="#000000" stroke-linecap="butt" stroke-linejoin="miter-clip" stroke-miterlimit="4.0" stroke-width="1.0"/>
  </g>
</svg>
