<?xml version="1.0" encoding="UTF-8" standalone="no"?>
<svg xmlns:xlink="http://www.w3.org/1999/xlink" height="62.2px" width="237.15px" xmlns="http://www.w3.org/2000/svg">
  <g transform="matrix(1.0, 0.0, 0.0, 1.0, 1.95, 0.6)">
    <path d="M155.85 16.25 Q160.3 23.9 168.1 29.65 173.1 33.35 187.1 42.05 174.95 38.85 150.25 20.0 L125.65 0.0 155.85 16.25 M123.25 44.6 L127.5 45.75 127.05 51.75 Q126.2 49.4 125.2 49.4 124.6 49.4 122.05 50.6 L119.65 51.75 119.65 48.5 113.65 49.4 Q116.8 46.8 120.85 45.3 L123.25 44.6" fill="#000000" fill-opacity="0.047058824" fill-rule="evenodd" stroke="none"/>
    <path d="M75.75 36.05 Q76.55 32.85 79.8 30.35 81.7 28.9 85.95 26.35 85.65 26.25 103.0 14.3 L75.75 36.05 M126.2 32.65 L116.45 22.3 Q117.5 15.75 116.85 10.15 118.65 13.15 119.25 15.65 L119.5 18.4 Q119.5 20.85 120.75 22.95 L128.9 35.55 128.25 34.85 126.2 32.65 M80.4 20.8 Q59.6 33.85 57.45 35.8 50.45 38.4 19.9 52.65 L80.4 20.8 M40.5 46.75 Q42.75 45.7 44.35 45.25 L39.3 49.4 Q44.8 47.1 55.9 44.8 L34.65 54.5 32.8 51.75 Q36.0 48.85 40.5 46.75" fill="#000000" fill-opacity="0.09803922" fill-rule="evenodd" stroke="none"/>
    <path d="M125.65 0.0 L150.25 20.0 Q174.95 38.85 187.1 42.05 173.1 33.35 168.1 29.65 160.3 23.9 155.85 16.25 179.5 30.85 198.6 40.0 215.0 47.85 234.7 54.8 231.2 55.9 228.3 55.9 L220.8 54.5 198.6 49.4 219.85 56.8 215.3 57.0 Q208.6 57.0 203.55 55.3 200.1 54.1 183.4 46.65 L195.85 54.95 185.85 52.95 Q183.3 52.5 181.95 51.65 175.55 46.2 158.9 34.65 167.95 43.5 170.25 45.4 L181.05 53.6 179.9 53.55 174.9 52.2 172.15 50.8 Q165.85 46.2 138.1 30.95 149.7 42.25 153.35 44.8 158.15 48.2 170.0 52.65 L153.8 49.9 Q152.05 47.7 149.9 45.75 L147.5 43.8 Q145.55 43.4 143.95 42.8 140.85 41.6 140.15 39.15 139.5 36.8 136.65 34.8 131.8 31.5 130.25 30.0 132.65 35.2 136.65 39.95 L145.95 50.8 Q137.5 51.9 134.1 47.65 132.7 45.9 131.2 42.3 L128.25 34.85 128.9 35.55 120.75 22.95 Q119.5 20.85 119.5 18.4 L119.25 15.65 Q118.65 13.15 116.85 10.15 117.5 15.75 116.45 22.3 L126.2 32.65 Q127.4 45.5 128.4 51.3 128.4 52.6 128.0 53.15 127.55 53.8 126.4 53.8 L119.7 53.0 113.55 52.2 Q112.95 52.2 110.0 53.15 L107.2 54.05 106.7 51.95 106.45 49.7 Q106.8 45.85 106.6 45.65 105.25 45.9 101.5 48.95 97.9 51.9 97.25 51.9 96.95 51.9 95.7 50.3 L96.5 47.15 Q97.25 44.25 97.25 42.85 L97.15 41.9 97.05 41.55 Q96.2 41.55 92.15 43.6 L87.85 45.6 83.4 44.5 80.15 43.35 Q79.15 43.35 77.35 44.4 L69.3 48.95 73.35 41.3 75.75 36.05 75.6 36.0 56.15 46.95 Q39.0 56.35 33.75 56.35 32.7 56.35 28.35 54.95 L24.15 53.55 Q22.35 53.55 18.35 54.7 L0.0 60.5 34.65 42.95 22.55 47.3 Q20.8 47.95 18.85 47.95 L15.55 47.4 10.9 46.85 Q34.25 39.1 74.0 19.35 92.95 9.9 98.05 7.6 108.7 2.75 112.25 2.75 L121.65 2.5 Q123.15 2.2 125.65 0.0 M75.75 36.05 L103.0 14.3 Q85.65 26.25 85.95 26.35 81.7 28.9 79.8 30.35 76.55 32.85 75.75 36.05 M123.25 44.6 L120.85 45.3 Q116.8 46.8 113.65 49.4 L119.65 48.5 119.65 51.75 122.05 50.6 Q124.6 49.4 125.2 49.4 126.2 49.4 127.05 51.75 L127.5 45.75 123.25 44.6 M40.5 46.75 Q36.0 48.85 32.8 51.75 L34.65 54.5 55.9 44.8 Q44.8 47.1 39.3 49.4 L44.35 45.25 Q42.75 45.7 40.5 46.75 M80.4 20.8 L19.9 52.65 Q50.45 38.4 57.45 35.8 59.6 33.85 80.4 20.8" fill="#ffffff" fill-opacity="0.0" fill-rule="evenodd" stroke="none"/>
    <path d="M10.9 46.85 L15.55 47.4 18.85 47.95 Q20.8 47.95 22.55 47.3 L34.65 42.95 0.0 60.5 18.35 54.7 Q22.35 53.55 24.15 53.55 L28.35 54.95 Q32.7 56.35 33.75 56.35 39.0 56.35 56.15 46.95 L75.6 36.0 75.75 36.05 73.35 41.3 69.3 48.95 77.35 44.4 Q79.15 43.35 80.15 43.35 L83.4 44.5 87.85 45.6 92.15 43.6 Q96.2 41.55 97.05 41.55 L97.15 41.9 97.25 42.85 Q97.25 44.25 96.5 47.15 L95.7 50.3 Q96.95 51.9 97.25 51.9 97.9 51.9 101.5 48.95 105.25 45.9 106.6 45.65 106.8 45.85 106.45 49.7 L106.7 51.95 107.2 54.05 110.0 53.15 Q112.95 52.2 113.55 52.2 L119.7 53.0 126.4 53.8 Q127.55 53.8 128.0 53.15 128.4 52.6 128.4 51.3 127.4 45.5 126.2 32.65 L128.25 34.85 131.2 42.3 Q132.7 45.9 134.1 47.65 137.5 51.9 145.95 50.8 L136.65 39.95 Q132.65 35.2 130.25 30.0 131.8 31.5 136.65 34.8 139.5 36.8 140.15 39.15 140.85 41.6 143.95 42.8 145.55 43.4 147.5 43.8 L149.9 45.75 Q152.05 47.7 153.8 49.9 L170.0 52.65 Q158.15 48.2 153.35 44.8 149.7 42.25 138.1 30.95 165.85 46.2 172.15 50.8 L174.9 52.2 179.9 53.55 181.05 53.6 170.25 45.4 Q167.95 43.5 158.9 34.65 175.55 46.2 181.95 51.65 183.3 52.5 185.85 52.95 L195.85 54.95 183.4 46.65 Q200.1 54.1 203.55 55.3 208.6 57.0 215.3 57.0 L219.85 56.8 198.6 49.4 220.8 54.5 228.3 55.9 Q231.2 55.9 234.7 54.8" fill="none" stroke="#000000" stroke-linecap="round" stroke-linejoin="miter-clip" stroke-miterlimit="4.0" stroke-opacity="0.4" stroke-width="1.0"/>
    <path d="M125.65 0.0 Q123.15 2.2 121.65 2.5 L112.25 2.75 Q108.7 2.75 98.05 7.6 92.95 9.9 74.0 19.35 34.25 39.1 10.9 46.85 M234.7 54.8 Q215.0 47.85 198.6 40.0 179.5 30.85 155.85 16.25 L125.65 0.0" fill="none" stroke="#000000" stroke-linecap="round" stroke-linejoin="miter-clip" stroke-miterlimit="4.0" stroke-width="1.0"/>
  </g>
</svg>
