<?xml version="1.0" encoding="UTF-8" standalone="no"?>
<svg xmlns:xlink="http://www.w3.org/1999/xlink" height="96.15px" width="226.7px" xmlns="http://www.w3.org/2000/svg">
  <g transform="matrix(1.0, 0.0, 0.0, 1.0, 0.5, 0.5)">
    <path d="M157.8 51.7 L166.55 56.5 Q176.05 61.5 179.5 62.35 185.05 63.7 198.9 65.1 L225.7 73.4 M122.7 0.0 L128.65 5.55 135.65 12.45 147.15 26.3 M113.0 4.6 L118.25 12.7 Q123.9 21.0 125.95 22.15 129.15 24.0 131.95 27.25 M91.75 49.4 L87.65 52.35 Q83.4 55.7 82.5 57.7 90.35 56.35 91.75 55.4 92.65 54.85 103.6 51.35 L114.4 48.0 M136.1 47.1 L119.9 56.8 Q118.55 57.7 111.15 60.0 L95.45 66.95 M115.3 50.35 Q106.05 55.4 102.85 56.8 99.6 58.2 88.5 61.4 L77.2 68.05 Q65.4 75.1 63.1 77.1 L52.7 83.75 40.95 91.45 M0.0 52.2 L10.4 46.65 40.2 32.8 72.05 17.2 M88.5 61.4 Q71.9 69.7 67.75 70.65 65.15 71.2 56.25 75.6 L47.85 79.9 21.55 95.15 M87.15 48.95 L71.45 55.85 Q70.6 56.15 67.0 58.35 L63.6 60.5" fill="none" stroke="#000000" stroke-linecap="round" stroke-linejoin="miter-clip" stroke-miterlimit="4.0" stroke-opacity="0.6" stroke-width="1.0"/>
  </g>
</svg>
