<?xml version="1.0" encoding="UTF-8" standalone="no"?>
<svg xmlns:xlink="http://www.w3.org/1999/xlink" height="209.55px" width="431.0px" xmlns="http://www.w3.org/2000/svg">
  <g transform="matrix(1.0, 0.0, 0.0, 1.0, 0.5, 0.5)">
    <path d="M430.0 208.55 L414.4 207.6 Q419.55 114.4 420.9 83.3 L416.75 83.05 416.95 80.15 420.35 80.4 Q422.15 78.15 422.3 75.7 422.4 73.0 420.4 71.3 L423.25 69.45 Q424.1 62.1 422.6 55.3 421.1 48.45 417.0 43.95 412.9 39.45 410.55 39.45 408.15 39.45 407.1 42.15 406.05 44.8 405.6 49.65 405.15 54.5 405.05 59.2 L407.85 61.95 Q402.65 65.7 404.85 70.35 L407.7 70.55 407.35 73.45 402.4 73.25 402.0 84.4 Q401.5 104.25 400.05 197.05 L383.65 197.05 390.85 72.2 386.7 71.95 386.9 69.05 390.3 69.3 Q392.1 67.05 392.25 64.6 392.35 61.9 390.35 60.2 L393.2 58.35 393.05 46.65 Q392.75 40.45 388.85 34.4 384.9 28.35 379.65 28.35 376.45 28.35 375.05 32.35 374.15 34.8 372.0 43.4 L374.8 46.15 Q369.6 49.9 371.8 54.55 L374.65 54.75 374.3 57.65 369.35 57.45 Q367.55 129.95 366.4 186.8 L350.75 183.65 357.8 56.4 353.65 56.15 353.85 53.25 357.25 53.5 Q359.05 51.25 359.2 48.8 359.3 46.1 357.3 44.4 L360.15 42.55 Q360.55 37.2 360.15 31.95 359.75 26.65 355.1 22.25 350.45 17.8 344.55 17.8 339.8 17.8 337.45 21.7 335.7 24.55 333.8 34.7 L336.6 37.45 Q331.4 41.2 333.6 45.85 L336.45 46.05 336.1 48.95 331.15 48.75 326.4 176.05 310.5 173.05 315.75 111.7 Q318.7 74.6 319.6 47.7 L315.45 47.45 315.65 44.55 319.05 44.8 Q320.85 42.55 321.0 40.1 321.1 37.4 319.1 35.7 L321.95 33.85 321.85 26.45 Q321.85 19.65 316.15 15.05 310.85 10.8 303.85 10.8 299.65 10.8 296.0 13.35 292.95 15.5 288.65 24.45 L291.65 26.95 Q286.8 31.1 289.4 35.6 L292.25 35.55 292.15 38.45 287.2 38.65 283.4 165.05 275.85 164.2 267.55 163.8 271.8 101.95 Q274.7 59.05 275.6 38.65 L271.5 38.75 271.4 35.85 274.8 35.8 Q276.4 33.4 276.35 30.9 276.2 28.25 274.1 26.7 L276.75 24.65 Q274.0 12.55 270.5 8.65 266.25 3.8 258.45 3.8 252.25 3.8 247.6 7.6 246.15 8.8 244.6 11.15 L241.55 16.65 244.55 19.15 Q239.65 23.3 242.3 27.8 L245.15 27.75 245.05 30.65 240.1 30.85 238.55 70.35 Q237.4 112.5 237.2 156.15 L220.9 156.2 Q222.9 133.75 224.7 109.15 226.55 83.65 227.45 67.0 228.5 46.2 228.5 30.85 L224.4 30.95 224.3 28.05 227.7 28.0 Q229.3 25.6 229.25 23.1 229.1 20.45 227.0 18.9 L229.65 16.85 Q229.3 8.65 224.2 4.2 219.35 0.0 213.2 0.0 205.05 0.0 200.65 3.9 196.95 7.15 193.7 16.75 L196.7 19.25 Q191.85 23.4 194.45 27.9 L197.3 27.85 197.2 30.75 192.25 30.95 192.25 31.6 192.15 35.05 191.6 59.8 Q190.75 96.35 190.2 151.1 L174.35 151.1 174.3 152.1 174.25 153.05 174.25 152.1 174.3 152.1 174.3 151.1 174.35 151.1 178.55 68.1 Q179.95 47.75 180.65 30.95 L176.55 31.05 176.45 28.15 179.85 28.1 Q181.45 25.7 181.4 23.2 181.25 20.55 179.15 19.0 L181.8 16.95 Q180.25 8.0 175.65 4.2 171.15 0.45 166.0 0.45 158.65 0.45 153.1 5.3 149.05 8.85 146.9 14.1 146.25 15.65 145.75 17.4 L148.75 19.9 Q143.9 24.05 146.5 28.55 L149.35 28.5 149.25 31.4 144.3 31.6 144.2 35.7 143.85 48.35 Q143.1 78.1 142.05 148.15 L125.85 148.15 125.75 149.45 125.75 148.15 125.85 148.15 Q127.7 113.5 132.45 35.7 L132.7 31.6 128.6 31.7 128.5 28.8 131.9 28.75 Q133.5 26.35 133.45 23.85 133.3 21.2 131.2 19.65 L133.85 17.6 133.85 17.35 Q133.85 15.6 133.45 14.1 132.5 10.4 129.15 8.0 125.45 5.35 120.9 5.35 116.0 5.35 111.9 9.05 107.75 12.75 105.25 20.25 L108.45 22.5 Q103.95 27.05 106.95 31.3 L109.8 31.0 109.95 33.9 105.0 34.5 104.5 44.5 Q104.05 50.7 103.2 75.3 102.7 87.5 102.45 111.7 L101.8 143.9 101.5 144.75 Q101.0 145.85 99.7 146.95 95.6 150.5 85.45 152.8 88.9 92.0 90.5 67.4 90.95 60.4 93.45 35.55 L89.4 36.0 89.0 33.1 92.4 32.75 Q93.8 30.2 93.55 27.75 93.15 25.15 90.95 23.75 L93.4 21.5 Q93.8 18.6 93.4 16.45 93.0 14.25 91.7 11.3 90.35 8.35 87.0 8.35 80.65 8.35 77.25 11.5 73.5 15.05 71.85 24.95 L75.05 27.2 Q70.55 31.75 73.55 36.0 L76.4 35.7 76.55 38.6 71.6 39.2 Q70.75 54.25 70.8 79.7 70.8 89.6 70.05 115.3 L69.05 152.4 53.2 154.9 57.15 95.1 Q59.65 56.4 60.05 40.25 L56.0 40.7 55.6 37.8 59.0 37.45 Q60.4 34.9 60.15 32.45 59.75 29.85 57.55 28.45 L60.0 26.2 Q60.05 19.95 57.45 16.8 54.8 13.7 51.45 13.65 48.1 13.6 45.7 17.75 43.9 20.75 45.05 29.45 L48.25 31.7 Q43.75 36.25 46.75 40.5 L49.6 40.2 49.75 43.1 44.8 43.7 Q45.15 50.1 45.0 53.85 L44.2 67.95 43.15 93.3 Q42.3 114.65 41.35 157.3 L30.95 158.45 25.15 159.05 Q28.3 110.05 31.8 69.35 33.1 54.5 33.25 44.75 L29.2 45.2 28.8 42.3 32.2 41.95 Q33.6 39.4 33.35 36.95 32.95 34.35 30.75 32.95 L33.2 30.7 Q34.05 28.75 33.45 24.55 32.8 20.35 31.9 19.2 30.95 18.0 29.75 18.0 27.7 18.0 25.75 21.25 23.8 24.45 23.0 32.1 L26.2 34.35 Q21.7 38.9 24.7 43.15 L27.55 42.85 27.7 45.75 22.75 46.35 Q22.6 67.25 21.8 79.15 L16.3 162.05 0.0 162.75" fill="none" stroke="#000000" stroke-linecap="round" stroke-linejoin="round" stroke-opacity="0.8" stroke-width="1.0"/>
  </g>
</svg>
