<?xml version="1.0" encoding="UTF-8" standalone="no"?>
<svg xmlns:xlink="http://www.w3.org/1999/xlink" height="30.0px" width="55.0px" xmlns="http://www.w3.org/2000/svg">
  <g transform="matrix(1.0, 0.0, 0.0, 1.0, 0.5, 0.5)">
    <path d="M42.35 0.0 L46.7 10.05 46.7 29.0 42.35 29.0 42.35 0.0 M19.1 0.55 L21.65 10.05 21.65 29.0 19.1 29.0 19.1 0.55" fill="#000000" fill-opacity="0.14901961" fill-rule="evenodd" stroke="none"/>
    <path d="M46.7 10.05 L42.35 0.0 49.7 0.0 54.0 10.05 46.7 10.05 M29.0 9.7 L29.1 10.05 21.65 10.05 19.1 0.55 18.95 0.0 26.4 0.0 29.0 9.7 M4.0 10.05 L0.0 10.05 0.0 0.0 3.55 0.0 4.2 10.05 4.0 10.05" fill="#000000" fill-opacity="0.09803922" fill-rule="evenodd" stroke="none"/>
    <path d="M46.7 29.0 L46.7 10.05 54.0 10.05 54.0 29.0 46.7 29.0 M21.65 10.05 L29.1 10.05 29.1 29.0 21.65 29.0 21.65 10.05 M0.0 10.05 L4.0 10.05 4.2 10.3 4.2 29.0 0.0 29.0 0.0 10.05" fill="#ffffff" fill-opacity="0.0" fill-rule="evenodd" stroke="none"/>
    <path d="M29.1 10.05 L29.0 9.7 29.1 9.8 29.1 10.05" fill="#c4c6c8" fill-rule="evenodd" stroke="none"/>
    <path d="M46.7 10.05 L42.35 0.0 M46.7 29.0 L46.7 10.05 54.0 10.05 M19.1 0.55 L21.65 10.05 29.1 10.05 M4.0 10.05 L0.0 10.05 M21.65 10.05 L21.65 29.0" fill="none" stroke="#000000" stroke-linecap="round" stroke-linejoin="round" stroke-opacity="0.4" stroke-width="1.0"/>
    <path d="M42.35 0.0 L42.35 29.0 46.7 29.0 54.0 29.0 54.0 10.05 49.7 0.0 42.35 0.0 M29.0 9.7 L29.1 10.05 29.1 9.8 29.0 9.7 26.4 0.0 18.95 0.0 19.1 0.55 19.1 29.0 21.65 29.0 29.1 29.0 29.1 10.05 M0.0 29.0 L4.2 29.0 4.2 10.3 4.0 10.05 4.2 10.05 3.55 0.0 0.0 0.0" fill="none" stroke="#000000" stroke-linecap="round" stroke-linejoin="round" stroke-opacity="0.6" stroke-width="1.0"/>
  </g>
</svg>
