<?xml version="1.0" encoding="UTF-8" standalone="no"?>
<svg xmlns:xlink="http://www.w3.org/1999/xlink" height="130.55px" width="610.7px" xmlns="http://www.w3.org/2000/svg">
  <g transform="matrix(1.0, 0.0, 0.0, 1.0, 0.5, 0.5)">
    <path d="M428.15 74.6 L428.15 95.95 M433.3 95.95 L433.3 74.6 M460.7 0.0 L460.7 95.95 M326.25 95.95 L326.25 74.6 M374.7 74.6 L374.7 95.95 M379.7 95.95 L379.7 74.6 M246.1 95.95 L246.1 74.6 M267.85 74.6 L267.85 95.95 M272.8 95.95 L272.8 74.6 M321.3 74.6 L321.3 95.95 M165.95 95.95 L165.95 74.6 M187.7 74.6 L187.7 95.95 M192.7 95.95 L192.7 74.6 M241.15 74.6 L241.15 95.95 M219.4 95.95 L219.4 74.6 M214.4 74.6 L214.4 95.95 M85.85 95.95 L85.85 74.6 M107.55 74.6 L107.55 95.95 M112.55 95.95 L112.55 74.6 M161.0 74.6 L161.0 95.95 M139.25 95.95 L139.25 74.6 M134.3 74.6 L134.3 95.95 M21.0 74.6 L21.0 95.95 M25.95 95.95 L25.95 74.6 M80.85 74.6 L80.85 95.95 M50.85 74.6 L50.85 95.95 M55.8 95.95 L55.8 74.6 M590.85 108.95 L168.9 108.95 M596.7 113.45 L168.9 113.45 M601.3 119.3 L168.9 119.3 M606.3 125.05 L178.5 125.05 M609.7 129.55 L178.5 129.55 M585.65 104.4 L157.85 104.4 M455.6 52.85 L0.0 52.85 M455.6 59.65 L0.0 59.65" fill="none" stroke="#000000" stroke-linecap="butt" stroke-linejoin="miter-clip" stroke-miterlimit="4.0" stroke-opacity="0.4" stroke-width="1.0"/>
  </g>
</svg>
