<?xml version="1.0" encoding="UTF-8" standalone="no"?>
<svg xmlns:xlink="http://www.w3.org/1999/xlink" height="192.95px" width="149.5px" xmlns="http://www.w3.org/2000/svg">
  <g transform="matrix(1.0, 0.0, 0.0, 1.0, 1.95, 0.5)">
    <path d="M72.55 0.0 L72.8 0.0 Q78.9 0.0 83.25 7.15 87.55 14.35 87.55 24.5 87.55 34.65 83.25 41.8 80.7 46.05 77.5 47.8 L68.3 47.8 77.5 47.8 113.85 47.8 110.55 50.3 98.8 63.25 98.0 64.35 Q82.2 86.4 79.15 117.0 L145.6 117.0 Q131.45 122.3 116.55 134.3 86.75 158.3 83.1 191.95 L80.3 191.95 Q78.4 152.45 75.45 138.35 73.45 128.7 46.05 122.45 29.85 118.75 9.3 117.0 L66.5 117.0 74.0 117.0 74.8 98.85 Q75.45 77.8 74.25 66.3 73.2 56.7 58.85 51.75 49.25 48.45 36.3 47.8 L68.1 47.8 68.3 47.8 66.1 46.3 Q76.15 35.3 76.4 20.15 76.55 10.2 72.55 0.0 M79.15 117.0 L74.0 117.0 79.15 117.0" fill="#000000" fill-opacity="0.29803923" fill-rule="evenodd" stroke="none"/>
    <path d="M72.55 0.0 Q76.55 10.2 76.4 20.15 76.15 35.3 66.1 46.3 L68.3 47.8 68.1 47.8 Q64.9 46.05 62.35 41.8 58.0 34.65 58.0 24.5 58.0 14.35 62.35 7.15 66.55 0.15 72.55 0.0 M80.3 191.95 L62.45 191.95 Q58.85 158.3 29.05 134.3 19.75 126.75 8.95 121.15 L0.0 117.0 9.3 117.0 Q29.85 118.75 46.05 122.45 73.45 128.7 75.45 138.35 78.4 152.45 80.3 191.95 M66.5 117.0 Q63.45 87.05 48.1 65.1 42.85 57.6 36.75 51.95 L31.7 47.8 36.3 47.8 Q49.25 48.45 58.85 51.75 73.2 56.7 74.25 66.3 75.45 77.8 74.8 98.85 L74.0 117.0 66.5 117.0" fill="#000000" fill-opacity="0.09803922" fill-rule="evenodd" stroke="none"/>
    <path d="M77.5 47.8 Q80.7 46.05 83.25 41.8 87.55 34.65 87.55 24.5 87.55 14.35 83.25 7.15 78.9 0.0 72.8 0.0 L72.55 0.0 Q66.55 0.15 62.35 7.15 58.0 14.35 58.0 24.5 58.0 34.65 62.35 41.8 64.9 46.05 68.1 47.8 L36.3 47.8 31.7 47.8 36.75 51.95 Q42.85 57.6 48.1 65.1 63.45 87.05 66.5 117.0 L9.3 117.0 0.0 117.0 8.95 121.15 Q19.75 126.75 29.05 134.3 58.85 158.3 62.45 191.95 L80.3 191.95 83.1 191.95 Q86.75 158.3 116.55 134.3 131.45 122.3 145.6 117.0 L79.15 117.0 Q82.2 86.4 98.0 64.35 L98.8 63.25 110.55 50.3 113.85 47.8 77.5 47.8 M68.3 47.8 L68.1 47.8" fill="none" stroke="#000000" stroke-linecap="round" stroke-linejoin="miter-clip" stroke-miterlimit="4.0" stroke-width="1.0"/>
    <path d="M68.3 47.8 L77.5 47.8 M74.0 117.0 L79.15 117.0 M66.5 117.0 L74.0 117.0" fill="none" stroke="#000000" stroke-linecap="round" stroke-linejoin="miter-clip" stroke-miterlimit="4.0" stroke-opacity="0.6" stroke-width="1.0"/>
  </g>
</svg>
