<?xml version="1.0" encoding="UTF-8" standalone="no"?>
<svg xmlns:xlink="http://www.w3.org/1999/xlink" height="144.45px" width="373.35px" xmlns="http://www.w3.org/2000/svg">
  <g transform="matrix(1.0, 0.0, 0.0, 1.0, 1.0, 1.5)">
    <path d="M198.05 0.0 L293.05 51.0 370.85 98.7 198.05 0.0" fill="#000000" fill-opacity="0.4" fill-rule="evenodd" stroke="none"/>
    <path d="M99.0 141.95 L133.35 115.35 151.55 97.6 177.85 82.1 Q182.9 87.1 188.7 92.1 200.3 102.05 204.1 102.05 M30.3 99.8 L62.65 64.35 71.5 48.0 Q80.1 30.8 78.8 26.65 77.55 22.5 95.25 10.85 104.05 5.0 113.15 0.0 M0.0 108.7 L24.25 68.75 50.5 24.4" fill="none" stroke="#000000" stroke-linecap="round" stroke-linejoin="miter-clip" stroke-miterlimit="4.0" stroke-width="2.0"/>
    <path d="M370.85 98.7 L293.05 51.0 198.05 0.0" fill="none" stroke="#000000" stroke-linecap="round" stroke-linejoin="miter-clip" stroke-miterlimit="4.0" stroke-width="3.0"/>
  </g>
</svg>
