<?xml version="1.0" encoding="UTF-8" standalone="no"?>
<svg xmlns:xlink="http://www.w3.org/1999/xlink" height="2926.85px" width="571.35px" xmlns="http://www.w3.org/2000/svg">
  <g transform="matrix(1.0, 0.0, 0.0, 1.0, 0.5, 0.5)">
    <path d="M211.3 897.85 Q271.95 882.05 340.0 866.15 407.75 850.35 468.6 834.45 382.75 874.1 288.45 889.95 258.95 894.9 232.2 896.85 L211.3 897.85 M468.6 1172.4 Q382.75 1212.05 288.45 1227.9 258.95 1232.85 232.2 1234.8 L211.3 1235.8 Q271.95 1220.0 340.0 1204.1 407.75 1188.3 468.6 1172.4 M468.6 1510.35 Q382.75 1550.0 288.45 1565.85 258.95 1570.8 232.2 1572.75 L211.3 1573.75 Q271.95 1557.95 340.0 1542.05 407.75 1526.25 468.6 1510.35 M211.3 1911.85 Q271.95 1896.05 340.0 1880.15 407.75 1864.35 468.6 1848.45 382.75 1888.1 288.45 1903.95 258.95 1908.9 232.2 1910.85 L211.3 1911.85 M468.6 2186.4 Q382.75 2226.05 288.45 2241.9 258.95 2246.85 232.2 2248.8 L211.3 2249.8 Q271.95 2234.0 340.0 2218.1 407.75 2202.3 468.6 2186.4 M211.3 2587.75 Q271.95 2571.95 340.0 2556.05 407.75 2540.25 468.6 2524.35 382.75 2564.0 288.45 2579.85 258.95 2584.8 232.2 2586.75 L211.3 2587.75 M468.6 2862.45 Q382.75 2902.1 288.45 2917.95 258.95 2922.9 232.2 2924.85 L211.3 2925.85 Q271.95 2910.05 340.0 2894.15 407.75 2878.35 468.6 2862.45" fill="#000000" fill-opacity="0.09803922" fill-rule="evenodd" stroke="none"/>
    <path d="M0.0 412.0 Q29.8 407.3 75.8 395.2 167.9 370.8 249.6 332.75 363.9 279.55 441.2 206.9 537.7 116.2 570.35 0.0 M211.3 600.7 Q227.85 598.75 254.05 592.8 306.55 580.85 355.2 560.45 510.95 495.1 570.35 369.7 M211.3 897.85 L232.2 896.85 Q258.95 894.9 288.45 889.95 382.75 874.1 468.6 834.45 M211.3 1235.8 L232.2 1234.8 Q258.95 1232.85 288.45 1227.9 382.75 1212.05 468.6 1172.4 M211.3 1573.75 L232.2 1572.75 Q258.95 1570.8 288.45 1565.85 382.75 1550.0 468.6 1510.35 M211.3 1911.85 L232.2 1910.85 Q258.95 1908.9 288.45 1903.95 382.75 1888.1 468.6 1848.45 M211.3 2249.8 L232.2 2248.8 Q258.95 2246.85 288.45 2241.9 382.75 2226.05 468.6 2186.4 M211.3 2587.75 L232.2 2586.75 Q258.95 2584.8 288.45 2579.85 382.75 2564.0 468.6 2524.35 M211.3 2925.85 L232.2 2924.85 Q258.95 2922.9 288.45 2917.95 382.75 2902.1 468.6 2862.45" fill="none" stroke="#000000" stroke-linecap="round" stroke-linejoin="miter-clip" stroke-miterlimit="4.0" stroke-opacity="0.6" stroke-width="1.0"/>
  </g>
</svg>
