<?xml version="1.0" encoding="UTF-8" standalone="no"?>
<svg xmlns:xlink="http://www.w3.org/1999/xlink" height="6051.4px" width="1580.15px" xmlns="http://www.w3.org/2000/svg">
  <g transform="matrix(1.0, 0.0, 0.0, 1.0, 0.5, 1.05)">
    <path d="M207.25 2329.05 L0.0 2329.05 0.0 0.0 128.35 108.45 128.35 838.9 276.35 947.4 276.35 1381.65 1218.85 2095.6 1223.9 3987.2 542.95 4924.65 542.95 6049.85 542.95 4924.65 1223.9 3987.2 1218.85 2095.6 1579.15 2368.55 1579.15 4209.15 1579.15 6049.85 542.95 6049.85 69.15 6049.85 69.15 3227.15 207.25 3227.15 375.1 3227.15 375.1 2329.05 207.25 2329.05 M533.0 2516.55 L533.0 3217.4 592.2 3217.4 592.2 2516.55 533.0 2516.55 M1085.65 2516.55 L1085.65 3217.4 1144.85 3217.4 1144.85 2516.55 1085.65 2516.55 M671.1 2516.55 L671.1 3217.4 730.45 3217.4 730.45 2516.55 671.1 2516.55 M809.35 2516.55 L809.35 3217.4 868.55 3217.4 868.55 2516.55 809.35 2516.55 M947.6 2516.55 L947.6 3217.4 1006.8 3217.4 1006.8 2516.55 947.6 2516.55" fill="#ffffff" fill-opacity="0.0" fill-rule="evenodd" stroke="none"/>
    <path d="M207.25 2329.05 L375.1 2329.05 375.1 3227.15 207.25 3227.15 207.25 2329.05 M947.6 2516.55 L1006.8 2516.55 1006.8 3217.4 947.6 3217.4 947.6 2516.55 M809.35 2516.55 L868.55 2516.55 868.55 3217.4 809.35 3217.4 809.35 2516.55 M671.1 2516.55 L730.45 2516.55 730.45 3217.4 671.1 3217.4 671.1 2516.55 M1085.65 2516.55 L1144.85 2516.55 1144.85 3217.4 1085.65 3217.4 1085.65 2516.55 M533.0 2516.55 L592.2 2516.55 592.2 3217.4 533.0 3217.4 533.0 2516.55" fill="#000000" fill-opacity="0.2" fill-rule="evenodd" stroke="none"/>
    <path d="M1218.85 2095.6 L276.35 1381.65 276.35 947.4 128.35 838.9 128.35 108.45 0.0 0.0 0.0 2329.05 207.25 2329.05 M207.25 3227.15 L69.15 3227.15 69.15 6049.85 542.95 6049.85 1579.15 6049.85 1579.15 4209.15 1579.15 2368.55 1218.85 2095.6" fill="none" stroke="#000000" stroke-linecap="round" stroke-linejoin="miter-clip" stroke-miterlimit="4.0" stroke-width="1.0"/>
    <path d="M207.25 2329.05 L375.1 2329.05 375.1 3227.15 207.25 3227.15 M533.0 2516.55 L533.0 3217.4 592.2 3217.4 592.2 2516.55 533.0 2516.55 M1085.65 2516.55 L1085.65 3217.4 1144.85 3217.4 1144.85 2516.55 1085.65 2516.55 M671.1 2516.55 L671.1 3217.4 730.45 3217.4 730.45 2516.55 671.1 2516.55 M809.35 2516.55 L809.35 3217.4 868.55 3217.4 868.55 2516.55 809.35 2516.55 M947.6 2516.55 L947.6 3217.4 1006.8 3217.4 1006.8 2516.55 947.6 2516.55" fill="none" stroke="#000000" stroke-linecap="round" stroke-linejoin="miter-clip" stroke-miterlimit="4.0" stroke-opacity="0.4" stroke-width="1.0"/>
    <path d="M542.95 6049.85 L542.95 4924.65 1223.9 3987.2 1218.85 2095.6 M207.25 2329.05 L207.25 3227.15" fill="none" stroke="#000000" stroke-linecap="round" stroke-linejoin="miter-clip" stroke-miterlimit="4.0" stroke-opacity="0.6" stroke-width="1.0"/>
  </g>
</svg>
