<?xml version="1.0" encoding="UTF-8" standalone="no"?>
<svg xmlns:xlink="http://www.w3.org/1999/xlink" height="431.65px" width="291.05px" xmlns="http://www.w3.org/2000/svg">
  <g transform="matrix(1.0, 0.0, 0.0, 1.0, -49.5, 4.4)">
    <path d="M195.1 49.5 L339.85 49.5 339.85 426.75 195.9 426.75 50.2 426.75 50.2 49.5 195.1 49.5 195.9 426.75 195.1 49.5" fill="#ffffff" fill-opacity="0.09803922" fill-rule="evenodd" stroke="none"/>
    <path d="M340.05 -3.9 L340.05 41.8 50.0 41.8 50.0 -3.9 340.05 -3.9" fill="#ffffff" fill-opacity="0.0" fill-rule="evenodd" stroke="none"/>
    <path d="M195.1 49.5 L339.85 49.5 339.85 426.75 195.9 426.75 50.2 426.75 50.2 49.5 195.1 49.5" fill="none" stroke="#000000" stroke-linecap="round" stroke-linejoin="miter-clip" stroke-miterlimit="4.0" stroke-width="1.0"/>
    <path d="M340.05 -3.9 L340.05 41.8 50.0 41.8 50.0 -3.9 340.05 -3.9 M195.1 49.5 L195.9 426.75" fill="none" stroke="#000000" stroke-linecap="round" stroke-linejoin="miter-clip" stroke-miterlimit="4.0" stroke-opacity="0.6" stroke-width="1.0"/>
  </g>
</svg>
