<?xml version="1.0" encoding="UTF-8" standalone="no"?>
<svg xmlns:xlink="http://www.w3.org/1999/xlink" height="379.1px" width="598.15px" xmlns="http://www.w3.org/2000/svg">
  <g transform="matrix(1.0, 0.0, 0.0, 1.0, 306.3, 379.5)">
    <path d="M-107.8 -92.75 Q-90.85 -128.15 -72.95 -170.9 -20.7 -295.2 -9.7 -372.2 L-5.25 -377.85 Q-0.1 -381.75 2.8 -372.2 5.5 -364.6 29.05 -241.75 51.75 -145.8 79.1 -93.45 148.7 -90.3 203.8 -81.6 282.15 -69.05 290.4 -52.05 L290.4 -52.0 Q291.35 -50.05 291.35 -48.0 291.35 -45.95 290.4 -44.0 282.3 -26.95 203.8 -14.65 116.5 -0.9 -7.35 -0.9 -130.95 -0.9 -218.25 -14.65 -296.75 -26.95 -304.85 -44.0 -305.8 -45.95 -305.8 -48.0 -305.8 -50.05 -304.85 -52.0 L-304.8 -52.05 Q-296.6 -69.05 -218.25 -81.6 -168.85 -89.4 -107.8 -92.75 -115.5 -76.75 -122.95 -62.25 -115.5 -76.75 -107.8 -92.75 M98.7 -62.25 Q88.6 -75.2 79.1 -93.45 88.6 -75.2 98.7 -62.25" fill="#ffffff" fill-opacity="0.0" fill-rule="evenodd" stroke="none"/>
    <path d="M-107.8 -92.75 Q-90.85 -128.15 -72.95 -170.9 -20.7 -295.2 -9.7 -372.2 L-5.25 -377.85 Q-0.1 -381.75 2.8 -372.2 5.5 -364.6 29.05 -241.75 51.75 -145.8 79.1 -93.45 148.7 -90.3 203.8 -81.6 282.15 -69.05 290.4 -52.05 L290.4 -52.0 Q291.35 -50.05 291.35 -48.0 291.35 -45.95 290.4 -44.0 282.3 -26.95 203.8 -14.65 116.5 -0.9 -7.35 -0.9 -130.95 -0.9 -218.25 -14.65 -296.75 -26.95 -304.85 -44.0 -305.8 -45.95 -305.8 -48.0 -305.8 -50.05 -304.85 -52.0 L-304.8 -52.05 Q-296.6 -69.05 -218.25 -81.6 -168.85 -89.4 -107.8 -92.75" fill="none" stroke="#000000" stroke-linecap="round" stroke-linejoin="miter-clip" stroke-miterlimit="4.0" stroke-opacity="0.4" stroke-width="1.0"/>
    <path d="M-107.8 -92.75 Q-115.5 -76.75 -122.95 -62.25 M79.1 -93.45 Q88.6 -75.2 98.7 -62.25" fill="none" stroke="#000000" stroke-linecap="round" stroke-linejoin="miter-clip" stroke-miterlimit="4.0" stroke-opacity="0.4" stroke-width="1.0"/>
    <path d="M7.85 -199.8 L2.7 -371.25 Q35.1 -148.05 97.15 -61.0 L254.8 -26.65 Q230.55 -20.8 196.2 -15.4 182.45 -9.5 166.8 -11.2 118.2 -5.6 80.45 -6.8 47.85 -6.3 39.25 -11.45 17.45 -25.45 7.85 -199.8" fill="#000000" fill-opacity="0.2" fill-rule="evenodd" stroke="none"/>
  </g>
</svg>
