<?xml version="1.0" encoding="UTF-8" standalone="no"?>
<svg xmlns:xlink="http://www.w3.org/1999/xlink" height="12.4px" width="36.6px" xmlns="http://www.w3.org/2000/svg">
  <g transform="matrix(1.0, 0.0, 0.0, 1.0, 18.3, 35.65)">
    <path d="M-17.55 -33.3 L-17.6 -33.45 Q-17.6 -34.15 -12.5 -34.65 L-0.15 -35.15 12.2 -34.65 Q17.3 -34.15 17.3 -33.45 L17.25 -33.25 17.5 -33.3 17.8 -30.95 Q17.85 -28.1 16.65 -25.55 L16.5 -25.55 Q16.45 -24.8 11.6 -24.3 L-0.1 -23.75 -11.8 -24.3 Q-16.7 -24.8 -16.7 -25.55 -17.85 -28.1 -17.8 -30.95 L-17.55 -33.3 Q-17.1 -32.65 -12.5 -32.2 L-0.15 -31.7 12.2 -32.2 Q16.75 -32.65 17.25 -33.25 16.75 -32.65 12.2 -32.2 L-0.15 -31.7 -12.5 -32.2 Q-17.1 -32.65 -17.55 -33.3" fill="#ffffff" fill-opacity="0.0" fill-rule="evenodd" stroke="none"/>
    <path d="M-17.55 -33.3 L-17.6 -33.45 Q-17.6 -34.15 -12.5 -34.65 L-0.15 -35.15 12.2 -34.65 Q17.3 -34.15 17.3 -33.45 L17.25 -33.25 17.5 -33.3 17.8 -30.95 Q17.85 -28.1 16.65 -25.55 L16.5 -25.55 Q16.45 -24.8 11.6 -24.3 L-0.1 -23.75 -11.8 -24.3 Q-16.7 -24.8 -16.7 -25.55 -17.85 -28.1 -17.8 -30.95 L-17.55 -33.3 Q-17.1 -32.65 -12.5 -32.2 L-0.15 -31.7 12.2 -32.2 Q16.75 -32.65 17.25 -33.25" fill="none" stroke="#000000" stroke-linecap="round" stroke-linejoin="miter-clip" stroke-miterlimit="4.0" stroke-opacity="0.4" stroke-width="1.0"/>
  </g>
</svg>
