<?xml version="1.0" encoding="UTF-8" standalone="no"?>
<svg xmlns:xlink="http://www.w3.org/1999/xlink" height="90.1px" width="79.6px" xmlns="http://www.w3.org/2000/svg">
  <g transform="matrix(1.0, 0.0, 0.0, 1.0, 39.8, 45.05)">
    <path d="M21.05 -18.25 Q20.85 -21.95 18.35 -24.4 15.7 -27.1 12.2 -26.9 L-22.05 -26.25 -21.65 -8.6 12.6 -9.25 Q16.1 -9.45 18.55 -12.1 21.05 -14.75 21.05 -18.25 M38.05 -18.65 Q38.45 -8.6 32.1 -0.8 25.75 6.55 16.1 8.2 L36.65 28.1 Q39.3 30.8 39.3 34.25 39.3 37.95 36.85 40.65 34.35 43.1 30.9 43.3 27.2 43.3 24.75 40.85 L-7.7 8.85 -21.25 9.05 -20.85 35.5 Q-20.65 39.2 -23.1 41.85 -25.55 44.55 -29.05 44.55 -32.55 44.75 -35.2 42.05 -37.85 39.6 -37.85 35.9 L-39.3 -34.7 -39.2 -36.6 Q-38.8 -39.1 -36.85 -41.05 -34.35 -43.5 -30.9 -43.7 L11.8 -44.55 Q22.45 -44.75 30.25 -37.15 37.85 -29.55 38.05 -18.65" fill="#ffffff" fill-opacity="0.0" fill-rule="evenodd" stroke="none"/>
    <path d="M21.05 -18.25 Q20.85 -21.95 18.35 -24.4 15.7 -27.1 12.2 -26.9 L-22.05 -26.25 -21.65 -8.6 12.6 -9.25 Q16.1 -9.45 18.55 -12.1 21.05 -14.75 21.05 -18.25 M38.05 -18.65 Q38.45 -8.6 32.1 -0.8 25.75 6.55 16.1 8.2 L36.65 28.1 Q39.3 30.8 39.3 34.25 39.3 37.95 36.85 40.65 34.35 43.1 30.9 43.3 27.2 43.3 24.75 40.85 L-7.7 8.85 -21.25 9.05 -20.85 35.5 Q-20.65 39.2 -23.1 41.85 -25.55 44.55 -29.05 44.55 -32.55 44.75 -35.2 42.05 -37.85 39.6 -37.85 35.9 L-39.3 -34.7 -39.2 -36.6 Q-38.8 -39.1 -36.85 -41.05 -34.35 -43.5 -30.9 -43.7 L11.8 -44.55 Q22.45 -44.75 30.25 -37.15 37.85 -29.55 38.05 -18.65" fill="none" stroke="#000000" stroke-linecap="round" stroke-linejoin="round" stroke-opacity="0.6" stroke-width="1.0"/>
  </g>
</svg>
