<?xml version="1.0" encoding="UTF-8" standalone="no"?>
<svg xmlns:xlink="http://www.w3.org/1999/xlink" height="76.8px" width="57.65px" xmlns="http://www.w3.org/2000/svg">
  <g transform="matrix(1.0, 0.0, 0.0, 1.0, 28.8, 38.4)">
    <path d="M26.9 -35.8 Q26.9 -34.95 26.3 -34.35 25.7 -33.75 25.1 -33.75 L-24.6 -32.7 -23.75 -1.5 17.3 -2.55 Q19.15 -2.55 19.15 -0.5 19.15 1.75 17.3 1.75 L-23.75 2.6 -23.15 33.8 26.5 32.75 Q28.35 32.35 28.35 34.6 28.35 35.65 27.75 36.25 L26.7 36.85 -24.8 37.9 Q-26.65 37.9 -26.65 35.85 L-28.3 -34.75 Q-28.3 -35.55 -27.65 -36.2 -27.05 -36.8 -26.45 -36.8 L25.1 -37.85 Q25.7 -38.05 26.3 -37.4 26.9 -36.6 26.9 -35.8" fill="#ffffff" fill-opacity="0.0" fill-rule="evenodd" stroke="none"/>
    <path d="M26.9 -35.8 Q26.9 -34.95 26.3 -34.35 25.7 -33.75 25.1 -33.75 L-24.6 -32.7 -23.75 -1.5 17.3 -2.55 Q19.15 -2.55 19.15 -0.5 19.15 1.75 17.3 1.75 L-23.75 2.6 -23.15 33.8 26.5 32.75 Q28.35 32.35 28.35 34.6 28.35 35.65 27.75 36.25 L26.7 36.85 -24.8 37.9 Q-26.65 37.9 -26.65 35.85 L-28.3 -34.75 Q-28.3 -35.55 -27.65 -36.2 -27.05 -36.8 -26.45 -36.8 L25.1 -37.85 Q25.7 -38.05 26.3 -37.4 26.9 -36.6 26.9 -35.8 Z" fill="none" stroke="#000000" stroke-linecap="round" stroke-linejoin="round" stroke-opacity="0.2" stroke-width="1.0"/>
  </g>
</svg>
