<?xml version="1.0" encoding="UTF-8" standalone="no"?>
<svg xmlns:xlink="http://www.w3.org/1999/xlink" height="107.65px" width="87.4px" xmlns="http://www.w3.org/2000/svg">
  <g transform="matrix(1.0, 0.0, 0.0, 1.0, 43.7, 52.8)">
    <path d="M43.7 54.85 L-43.7 54.85 -43.7 -52.8 43.7 -52.8 43.7 54.85 M41.45 52.05 L41.45 -50.05 -41.45 -50.05 -41.45 52.05 41.45 52.05" fill="#ffffff" fill-opacity="0.0" fill-rule="evenodd" stroke="none"/>
    <path d="M5.25 -15.75 L10.7 -9.9 12.45 -9.75 15.55 -9.0 17.3 -8.55 18.55 -8.5 27.6 -6.35 28.75 -4.9 30.25 -2.8 31.0 -0.1 32.05 3.8 Q33.45 7.9 33.95 10.3 35.0 15.45 35.85 17.8 L37.15 21.6 36.15 24.1 34.7 28.1 Q34.35 29.6 32.25 31.35 L30.0 33.15 26.55 37.0 24.65 26.7 24.15 24.1 23.4 21.5 22.4 19.1 Q21.65 17.5 21.5 18.45 L20.3 24.35 Q19.35 29.7 19.35 32.55 19.35 37.1 18.05 46.75 L8.15 48.15 2.2 48.5 -4.05 48.95 -21.2 46.4 -20.45 41.05 -20.75 38.55 -23.8 38.85 -25.9 38.5 -30.1 36.35 -31.5 35.9 Q-33.0 35.35 -33.4 34.7 -33.85 34.0 -34.25 29.75 -34.65 25.65 -34.4 25.3 L-34.3 22.95 -34.15 19.95 -33.4 15.65 Q-33.8 13.35 -34.4 11.95 -34.8 11.1 -33.5 9.85 L-32.15 8.8 -32.15 7.9 Q-32.35 6.8 -33.15 5.6 -34.0 4.35 -33.55 3.85 L-32.4 3.3 Q-32.0 3.15 -32.05 1.45 L-31.9 -1.9 -31.4 -3.65 Q-30.65 -4.15 -29.45 -5.1 -27.95 -6.25 -23.9 -7.75 L-20.2 -9.0 Q-18.65 -10.2 -17.15 -11.45 -15.65 -8.2 -12.65 -5.3 L-12.05 -5.85 5.25 -15.75" fill="#ffffff" fill-opacity="0.0" fill-rule="evenodd" stroke="none"/>
    <path d="M1.6 -36.4 Q1.4 -33.2 2.45 -30.45 L-0.45 -28.65 Q-2.5 -27.5 -4.4 -26.85 L-5.25 -29.85 -2.85 -32.8 -6.7 -32.9 -8.75 -36.1 -10.05 -32.5 -13.7 -31.5 -10.7 -29.2 -10.85 -26.0 -17.1 -26.25 -19.65 -26.55 Q-19.2 -30.4 -19.35 -33.4 -16.0 -35.45 -11.8 -36.4 -5.45 -37.8 1.6 -36.4 M-5.95 -26.45 L-9.55 -26.1 -9.9 -26.05 -7.75 -27.55 -5.25 -26.6 -5.95 -26.45" fill="#ffffff" fill-opacity="0.0" fill-rule="evenodd" stroke="none"/>
    <path d="M-31.9 22.9 L-30.35 21.6 -27.95 19.2 -26.3 17.55 -23.1 13.2 -25.8 19.1 -28.45 21.5 Q-31.3 23.75 -32.5 23.15 L-31.9 22.9" fill="#ffffff" fill-opacity="0.8" fill-rule="evenodd" stroke="none"/>
  </g>
</svg>
