<?xml version="1.0" encoding="UTF-8" standalone="no"?>
<svg xmlns:xlink="http://www.w3.org/1999/xlink" height="43.7px" width="25.15px" xmlns="http://www.w3.org/2000/svg">
  <g transform="matrix(1.0, 0.0, 0.0, 1.0, 12.6, 21.85)">
    <path d="M4.2 -7.75 Q4.65 -12.75 8.65 -17.8 L12.55 -21.85 9.65 -17.0 Q6.7 -11.3 6.45 -7.0 6.2 -2.2 3.8 1.5 1.7 4.7 -1.15 5.95 -3.4 6.95 -1.7 12.6 -0.1 18.1 3.3 21.85 0.8 20.55 -2.7 19.25 L-5.7 18.15 -8.75 18.5 Q-9.5 18.5 -10.95 13.45 -12.15 9.2 -12.55 6.7 -12.8 5.3 -10.8 5.1 L-8.75 5.2 Q-4.55 3.3 0.0 0.65 2.85 -1.05 3.8 -4.55 L4.2 -7.75" fill="#ffffff" fill-opacity="0.0" fill-rule="evenodd" stroke="none"/>
    <path d="M6.95 -1.85 Q6.65 -4.7 7.5 -5.55 L8.9 -5.0 Q10.5 -4.05 11.2 -2.1 L9.85 -1.2 Q8.2 -0.6 6.95 -1.85" fill="#000000" fill-rule="evenodd" stroke="none"/>
    <path d="M8.2 -4.55 L9.2 -4.0 Q10.25 -3.3 10.5 -2.55 L8.2 -4.55" fill="#ffffff" fill-rule="evenodd" stroke="none"/>
    <path d="M-8.5 7.0 L-7.65 9.9 -6.95 12.85 Q-6.6 14.3 -6.1 14.85 L-4.5 16.05 Q-1.5 18.25 -0.75 19.1 L0.15 20.4 -3.9 18.75 -5.7 18.15 -8.75 18.5 -9.05 18.3 -8.35 17.7 Q-7.5 16.7 -7.85 15.6 L-8.5 13.4 -8.5 7.0" fill="#000000" fill-opacity="0.2" fill-rule="evenodd" stroke="none"/>
  </g>
</svg>
