<?xml version="1.0" encoding="UTF-8" standalone="no"?>
<svg xmlns:xlink="http://www.w3.org/1999/xlink" height="377.0px" width="615.1px" xmlns="http://www.w3.org/2000/svg">
  <g transform="matrix(1.0, 0.0, 0.0, 1.0, 1.6, 0.5)">
    <path d="M228.0 96.5 Q246.2 117.25 277.4 139.2 305.5 158.95 336.3 174.4 360.2 186.45 388.0 191.95 401.95 194.7 411.05 195.05 L442.2 204.2 Q455.1 210.95 468.75 214.35 477.35 216.5 490.35 217.95 502.9 219.4 507.2 220.55 515.05 222.65 519.6 227.6 528.1 236.9 548.45 248.65 L567.05 258.55 594.25 290.95 Q607.6 294.65 611.6 307.35 612.85 311.35 613.0 315.75 L612.9 319.35 Q609.45 308.5 600.05 302.65 595.35 299.7 591.35 298.95 L564.85 282.15 532.95 267.95 556.25 283.55 562.8 322.95 Q565.85 334.8 564.6 342.7 564.2 345.2 563.45 346.95 L562.75 348.25 Q561.9 341.15 559.05 331.55 L556.35 323.35 541.4 297.2 508.5 278.1 Q511.7 280.6 515.85 285.25 524.25 294.6 529.35 305.5 534.5 316.4 536.9 328.55 L538.25 338.5 Q537.3 348.9 533.05 357.55 L529.0 364.1 Q530.45 360.1 531.0 348.55 L531.25 337.8 510.05 303.95 479.05 274.7 497.7 303.1 504.8 321.0 Q509.2 332.2 510.1 340.45 L510.1 346.4 503.95 359.45 Q497.0 373.0 493.25 375.6 489.45 378.2 495.05 364.6 497.8 357.8 501.35 350.5 L493.65 336.85 478.8 305.35 471.85 300.1 Q463.25 293.7 454.95 288.15 428.4 270.45 414.7 267.75 401.0 265.05 389.15 247.7 383.25 239.0 380.1 230.85 341.15 213.65 292.55 194.0 195.4 154.65 147.35 142.4 99.25 130.1 66.6 100.95 50.3 86.4 43.6 74.25 29.65 67.55 13.45 71.85 5.35 74.0 0.0 77.5 21.35 52.2 58.0 34.15 83.15 21.8 131.3 6.5 148.95 0.9 165.2 0.15 176.75 -0.45 192.0 1.55 L216.6 4.5 Q230.75 5.45 243.7 2.8 268.7 -2.3 300.0 4.25 309.8 6.3 319.0 9.25 L326.3 11.8 378.8 108.4 Q357.5 132.65 311.95 120.35 297.2 116.35 279.15 108.2 269.7 103.9 258.05 98.3 247.75 94.0 236.85 94.85 231.4 95.25 228.0 96.5 188.45 65.3 144.25 60.15 122.1 57.6 107.9 61.3 122.1 57.6 144.25 60.15 188.45 65.3 228.0 96.5 M421.05 257.95 Q412.05 253.35 407.45 249.8 394.15 239.45 396.0 221.05 395.6 224.25 348.3 199.0 304.25 175.45 295.1 169.15 274.55 155.15 244.8 144.6 230.3 139.45 190.7 128.45 156.3 118.85 137.35 111.05 109.0 99.4 89.3 82.9 85.1 79.4 75.95 70.65 69.45 64.45 65.5 62.05 59.95 58.65 53.15 58.1 45.7 57.5 34.2 59.9 21.2 62.65 11.35 69.75 18.85 67.35 26.2 67.35 35.65 67.35 44.05 71.4 50.75 83.55 67.05 98.1 99.65 127.25 147.75 139.55 195.8 151.8 292.95 191.15 341.55 210.8 380.5 228.0 383.65 236.15 389.55 244.85 401.4 262.2 415.1 264.9 427.45 267.3 450.4 282.05 463.9 290.7 477.45 301.1 464.3 282.3 436.3 265.95 433.35 264.2 421.05 257.95" fill="#ffffff" fill-opacity="0.0" fill-rule="evenodd" stroke="none"/>
    <path d="M421.05 257.95 Q433.35 264.2 436.3 265.95 464.3 282.3 477.45 301.1 463.9 290.7 450.4 282.05 427.45 267.3 415.1 264.9 401.4 262.2 389.55 244.85 383.65 236.15 380.5 228.0 341.55 210.8 292.95 191.15 195.8 151.8 147.75 139.55 99.65 127.25 67.05 98.1 50.75 83.55 44.05 71.4 35.65 67.35 26.2 67.35 18.85 67.35 11.35 69.75 21.2 62.65 34.2 59.9 45.7 57.5 53.15 58.1 59.95 58.65 65.5 62.05 69.45 64.45 75.95 70.65 85.1 79.4 89.3 82.9 109.0 99.4 137.35 111.05 156.3 118.85 190.7 128.45 230.3 139.45 244.8 144.6 274.55 155.15 295.1 169.15 304.25 175.45 348.3 199.0 395.6 224.25 396.0 221.05 394.15 239.45 407.45 249.8 412.05 253.35 421.05 257.95" fill="#000000" fill-opacity="0.14901961" fill-rule="evenodd" stroke="none"/>
    <path d="M326.3 11.8 L319.0 9.25 Q309.8 6.3 300.0 4.25 268.7 -2.3 243.7 2.8 230.75 5.45 216.6 4.5 L192.0 1.55 Q176.75 -0.45 165.2 0.15 148.95 0.9 131.3 6.5 83.15 21.8 58.0 34.15 21.35 52.2 0.0 77.5 5.35 74.0 13.45 71.85 29.65 67.55 43.6 74.25 50.3 86.4 66.6 100.95 99.25 130.1 147.35 142.4 195.4 154.65 292.55 194.0 341.15 213.65 380.1 230.85 383.25 239.0 389.15 247.7 401.0 265.05 414.7 267.75 428.4 270.45 454.95 288.15 463.25 293.7 471.85 300.1 L478.8 305.35 493.65 336.85 501.35 350.5 Q497.8 357.8 495.05 364.6 489.45 378.2 493.25 375.6 497.0 373.0 503.95 359.45 L510.1 346.4 510.1 340.45 Q509.2 332.2 504.8 321.0 L497.7 303.1 479.05 274.7 510.05 303.95 531.25 337.8 531.0 348.55 Q530.45 360.1 529.0 364.1 L533.05 357.55 Q537.3 348.9 538.25 338.5 L536.9 328.55 Q534.5 316.4 529.35 305.5 524.25 294.6 515.85 285.25 511.7 280.6 508.5 278.1 L541.4 297.2 556.35 323.35 559.05 331.55 Q561.9 341.15 562.75 348.25 L563.45 346.95 Q564.2 345.2 564.6 342.7 565.85 334.8 562.8 322.95 L556.25 283.55 532.95 267.95 564.85 282.15 591.35 298.95 Q595.35 299.7 600.05 302.65 609.45 308.5 612.9 319.35 L613.0 315.75 Q612.85 311.35 611.6 307.35 607.6 294.65 594.25 290.95 L567.05 258.55 548.45 248.65 Q528.1 236.9 519.6 227.6 515.05 222.65 507.2 220.55 502.9 219.4 490.35 217.95 477.35 216.5 468.75 214.35 455.1 210.95 442.2 204.2 L411.05 195.05 Q401.95 194.7 388.0 191.95 360.2 186.45 336.3 174.4 305.5 158.95 277.4 139.2 246.2 117.25 228.0 96.5 231.4 95.25 236.85 94.85 247.75 94.0 258.05 98.3 269.7 103.9 279.15 108.2 297.2 116.35 311.95 120.35 357.5 132.65 378.8 108.4" fill="none" stroke="#000000" stroke-linecap="round" stroke-linejoin="miter-clip" stroke-miterlimit="4.0" stroke-width="1.0"/>
    <path d="M228.0 96.5 Q188.45 65.3 144.25 60.15 122.1 57.6 107.9 61.3" fill="none" stroke="#000000" stroke-linecap="round" stroke-linejoin="miter-clip" stroke-miterlimit="4.0" stroke-opacity="0.6" stroke-width="1.0"/>
  </g>
</svg>
