<?xml version="1.0" encoding="UTF-8" standalone="no"?>
<svg xmlns:xlink="http://www.w3.org/1999/xlink" height="1269.75px" width="2588.55px" xmlns="http://www.w3.org/2000/svg">
  <g transform="matrix(1.0, 0.0, 0.0, 1.0, 0.0, 0.0)">
    <path d="M57.15 1269.75 L0.25 1269.75 Q-0.8 1240.0 2.6 1192.85 10.25 1087.7 37.65 978.95 125.8 631.0 380.05 378.45 634.3 125.65 987.75 37.95 1098.25 10.3 1205.5 2.65 1259.05 -1.15 1290.45 0.55 L1313.4 0.35 Q1343.15 0.75 1377.35 3.5 1486.75 11.8 1598.45 39.65 1956.4 128.2 2204.7 376.1 2288.85 460.0 2355.1 555.8 2484.45 742.75 2545.65 974.7 2574.55 1084.3 2584.3 1191.15 2588.75 1239.35 2588.55 1269.75 L2534.8 1269.75 Q2534.8 1240.65 2530.15 1193.9 2520.15 1091.95 2492.1 987.2 2444.3 807.75 2355.1 655.85 2277.8 523.95 2169.25 413.05 1935.8 174.1 1589.75 89.35 1481.65 62.8 1375.2 54.9 L1313.0 52.15 1290.45 52.35 Q1260.3 50.45 1209.1 53.85 1106.75 60.45 1000.95 86.55 662.55 170.5 417.85 417.75 173.15 665.0 90.75 995.1 65.05 1098.3 58.65 1197.5 55.9 1241.9 57.15 1269.75" fill="#ffffff" fill-opacity="0.0" fill-rule="evenodd" stroke="none"/>
  </g>
</svg>
