<?xml version="1.0" encoding="UTF-8" standalone="no"?>
<svg xmlns:xlink="http://www.w3.org/1999/xlink" height="850.55px" width="891.8px" xmlns="http://www.w3.org/2000/svg">
  <g transform="matrix(1.0, 0.0, 0.0, 1.0, 104.35, 23.3)">
    <path d="M93.2 57.15 Q86.6 58.75 80.15 62.15 59.55 72.95 48.55 97.75 L33.45 85.2 Q38.25 77.35 48.8 69.85 69.9 54.75 98.55 56.25 L93.2 57.15 M60.15 106.4 Q68.4 102.35 81.3 101.6 107.15 100.1 130.6 116.65 L125.6 114.55 Q119.15 112.4 111.9 111.8 88.7 110.0 66.2 125.1 L60.15 106.4 M63.55 153.3 Q72.65 151.85 85.2 154.9 110.4 161.0 128.0 183.7 L123.8 180.25 Q118.3 176.25 111.5 173.6 89.85 165.1 63.95 172.95 L63.55 153.3 M101.7 233.7 Q84.65 217.85 57.65 215.7 L64.45 197.3 Q73.45 199.25 84.05 206.7 105.25 221.6 113.3 249.15 L110.7 244.4 Q107.0 238.7 101.7 233.7 M90.8 285.35 Q87.1 279.65 81.8 274.7 64.75 258.85 37.75 256.7 L44.55 238.3 Q53.55 240.25 64.15 247.7 85.35 262.55 93.4 290.1 L90.8 285.35" fill="#000000" fill-opacity="0.29803923" fill-rule="evenodd" stroke="none"/>
    <path d="M651.65 662.25 Q638.8 665.0 627.1 669.8 589.6 685.0 577.9 714.25 L615.4 725.95 Q630.05 716.6 652.25 709.55 696.75 695.55 734.8 707.25 L723.75 707.2 Q710.45 707.7 699.1 710.45 662.8 719.25 659.85 747.05 675.1 742.95 694.4 741.5 733.05 738.55 753.55 751.75 L746.65 751.4 730.15 752.35 Q704.35 755.85 692.65 770.45 L713.7 800.9 Q727.2 796.8 743.0 796.8 774.6 796.8 786.3 817.3 L779.2 814.15 Q770.3 810.8 761.15 809.7 731.85 806.2 711.4 826.65 L682.9 810.75 Q649.0 791.3 622.1 773.4 536.05 716.0 552.15 695.55 567.4 685.6 588.75 676.2 631.5 657.45 662.2 660.4 L651.65 662.25" fill="#000000" fill-opacity="0.14901961" fill-rule="evenodd" stroke="none"/>
    <path d="M44.55 2.85 Q39.05 6.85 34.4 12.45 19.45 30.3 18.75 57.4 L0.0 51.55 Q1.45 42.5 8.35 31.5 22.1 9.55 49.15 0.0 L44.55 2.85" fill="#000000" fill-opacity="0.2" fill-rule="evenodd" stroke="none"/>
    <path d="M651.65 662.25 Q638.8 665.0 627.1 669.8 589.6 685.0 577.9 714.25 L615.4 725.95 Q630.05 716.6 652.25 709.55 696.75 695.55 734.8 707.25 L723.75 707.2 Q710.45 707.7 699.1 710.45 662.8 719.25 659.85 747.05 675.1 742.95 694.4 741.5 733.05 738.55 753.55 751.75 L746.65 751.4 730.15 752.35 Q704.35 755.85 692.65 770.45 L713.7 800.9 Q727.2 796.8 743.0 796.8 774.6 796.8 786.3 817.3 L779.2 814.15 Q770.3 810.8 761.15 809.7 731.85 806.2 711.4 826.65 L682.9 810.75 Q649.0 791.3 622.1 773.4 536.05 716.0 552.15 695.55 567.4 685.6 588.75 676.2 631.5 657.45 662.2 660.4 L651.65 662.25" fill="none" stroke="#000000" stroke-linecap="round" stroke-linejoin="miter-clip" stroke-miterlimit="4.0" stroke-opacity="0.6" stroke-width="1.0"/>
    <path d="M93.2 57.15 Q86.6 58.75 80.15 62.15 59.55 72.95 48.55 97.75 L33.45 85.2 Q38.25 77.35 48.8 69.85 69.9 54.75 98.55 56.25 L93.2 57.15 M44.55 2.85 Q39.05 6.85 34.4 12.45 19.45 30.3 18.75 57.4 L0.0 51.55 Q1.45 42.5 8.35 31.5 22.1 9.55 49.15 0.0 L44.55 2.85 M60.15 106.4 Q68.4 102.35 81.3 101.6 107.15 100.1 130.6 116.65 L125.6 114.55 Q119.15 112.4 111.9 111.8 88.7 110.0 66.2 125.1 L60.15 106.4 M63.55 153.3 Q72.65 151.85 85.2 154.9 110.4 161.0 128.0 183.7 L123.8 180.25 Q118.3 176.25 111.5 173.6 89.85 165.1 63.95 172.95 L63.55 153.3 M101.7 233.7 Q84.65 217.85 57.65 215.7 L64.45 197.3 Q73.45 199.25 84.05 206.7 105.25 221.6 113.3 249.15 L110.7 244.4 Q107.0 238.7 101.7 233.7 M90.8 285.35 Q87.1 279.65 81.8 274.7 64.75 258.85 37.75 256.7 L44.55 238.3 Q53.55 240.25 64.15 247.7 85.35 262.55 93.4 290.1 L90.8 285.35" fill="none" stroke="#000000" stroke-linecap="round" stroke-linejoin="miter-clip" stroke-miterlimit="4.0" stroke-opacity="0.4" stroke-width="1.0"/>
    <path d="M-81.4 75.15 L-87.35 93.0 -91.1 85.0 Q-98.0 68.2 -97.3 49.15 -96.7 32.85 -90.7 16.7 L-90.6 16.4 Q-93.05 28.9 -92.5 41.5 -91.6 63.1 -81.4 75.1 L-81.4 75.15 M-46.75 43.95 L-55.35 62.55 Q-64.55 45.35 -65.3 25.55 -65.85 10.7 -61.6 -4.7 L-61.6 -4.8 -61.55 -5.0 -61.7 -0.7 -61.5 7.8 -59.7 21.5 -46.75 43.95" fill="#000000" fill-opacity="0.24705882" fill-rule="evenodd" stroke="none"/>
    <path d="M-79.8 121.7 Q-72.95 112.5 -68.65 109.0 -65.95 106.8 -58.05 102.3 -51.2 98.35 -47.9 94.95 L-44.75 91.0 -44.75 121.7 -79.8 121.7" fill="#ffffff" fill-opacity="0.0" fill-rule="evenodd" stroke="none"/>
    <path d="M-81.4 75.15 L-80.95 75.7 -73.9 66.35 -75.0 58.05 Q-76.0 47.65 -75.65 36.95 -74.45 2.7 -59.85 -21.45 -61.3 -13.45 -61.6 -4.8 L-61.6 -4.7 Q-65.85 10.7 -65.3 25.55 -64.55 45.35 -55.35 62.55 L-46.75 43.95 Q-46.2 44.4 -45.45 67.75 L-44.75 91.0 -47.9 94.95 Q-51.2 98.35 -58.05 102.3 -65.95 106.8 -68.65 109.0 -72.95 112.5 -79.8 121.7 L-93.15 125.7 -96.15 100.3 Q-99.35 93.15 -101.2 85.0 -104.35 71.4 -103.75 54.95 -102.75 26.5 -90.3 14.85 L-90.7 16.7 Q-96.7 32.85 -97.3 49.15 -98.0 68.2 -91.1 85.0 L-87.35 93.0 -81.4 75.15" fill="#000000" fill-opacity="0.14901961" fill-rule="evenodd" stroke="none"/>
    <path d="M-61.6 -4.8 Q-61.3 -13.45 -59.85 -21.45 -74.45 2.7 -75.65 36.95 -76.0 47.65 -75.0 58.05 L-73.9 66.35 -80.95 75.7 -81.4 75.15 -81.4 75.1 Q-91.6 63.1 -92.5 41.5 -93.05 28.9 -90.6 16.4 L-90.7 16.7 -90.3 14.85 Q-102.75 26.5 -103.75 54.95 -104.35 71.4 -101.2 85.0 -99.35 93.15 -96.15 100.3 L-93.15 125.7 M-61.6 -4.7 L-61.6 -4.8 -61.55 -5.0 -61.7 -0.7 -61.5 7.8 -59.7 21.5 -46.75 43.95" fill="none" stroke="#000000" stroke-linecap="round" stroke-linejoin="miter-clip" stroke-miterlimit="4.0" stroke-width="1.0"/>
  </g>
</svg>
