<?xml version="1.0" encoding="UTF-8" standalone="no"?>
<svg xmlns:xlink="http://www.w3.org/1999/xlink" height="1149.95px" width="1435.9px" xmlns="http://www.w3.org/2000/svg">
  <g transform="matrix(1.0, 0.0, 0.0, 1.0, 0.5, 0.5)">
    <path d="M1162.45 386.55 L1343.65 386.55 1343.65 224.3 1162.45 224.3 1162.45 279.2 1162.45 386.55 M286.0 0.0 L1434.9 0.0 1434.9 1148.95 959.8 1148.95 761.15 1148.95 286.0 1148.95 286.0 508.9 136.5 508.9 0.0 423.55 0.0 389.1 286.0 389.1 286.0 222.5 4.6 222.5 4.6 102.7 286.0 102.7 286.0 0.0 M1142.45 386.55 L1142.45 279.2 1142.45 224.3 969.15 224.3 969.15 279.2 969.15 386.55 1142.45 386.55 M755.9 386.55 L755.9 279.2 755.9 224.3 582.6 224.3 582.6 279.2 582.6 386.55 755.9 386.55 M775.9 224.3 L775.9 279.2 775.9 386.55 949.15 386.55 949.15 279.2 949.15 224.3 775.9 224.3 M1057.2 1148.5 L1065.45 1148.5 1226.3 1148.5 1234.4 1148.5 1234.4 714.85 1049.1 714.85 1049.1 1148.5 1057.2 1148.5 M562.6 224.3 L377.25 224.3 377.25 386.55 562.6 386.55 562.6 279.2 562.6 224.3 M1213.3 899.1 L1213.3 967.65 1194.95 967.65 1194.95 899.1 1213.3 899.1" fill="#ffffff" fill-opacity="0.0" fill-rule="evenodd" stroke="none"/>
    <path d="M1057.2 1148.5 L1057.2 734.75 1226.3 734.75 1226.3 748.65 1065.45 748.65 1065.45 1148.5 1057.2 1148.5" fill="#000000" fill-opacity="0.4" fill-rule="evenodd" stroke="none"/>
    <path d="M1065.45 1148.5 L1065.45 748.65 1226.3 748.65 1226.3 1148.5 1065.45 1148.5 M1213.3 899.1 L1194.95 899.1 1194.95 967.65 1213.3 967.65 1213.3 899.1" fill="#000000" fill-opacity="0.2" fill-rule="evenodd" stroke="none"/>
    <path d="M1226.3 748.65 L1226.3 734.75 1057.2 734.75 1057.2 1148.5 1049.1 1148.5 1049.1 714.85 1234.4 714.85 1234.4 1148.5 1226.3 1148.5 1226.3 748.65" fill="#000000" fill-opacity="0.09803922" fill-rule="evenodd" stroke="none"/>
    <path d="M1162.45 224.3 L1343.65 224.3 1343.65 386.55 1162.45 386.55 M286.0 0.0 L1434.9 0.0 1434.9 1148.95 959.8 1148.95 761.15 1148.95 286.0 1148.95 286.0 508.9 136.5 508.9 0.0 423.55 0.0 389.1 286.0 389.1 286.0 222.5 4.6 222.5 4.6 102.7 286.0 102.7 M1142.45 386.55 L969.15 386.55 M969.15 224.3 L1142.45 224.3 M755.9 386.55 L582.6 386.55 M582.6 224.3 L755.9 224.3 M775.9 386.55 L949.15 386.55 M949.15 224.3 L775.9 224.3 M1057.2 1148.5 L1065.45 1148.5 1226.3 1148.5 1234.4 1148.5 1234.4 714.85 1049.1 714.85 1049.1 1148.5 1057.2 1148.5 M562.6 386.55 L377.25 386.55 377.25 224.3 562.6 224.3" fill="none" stroke="#000000" stroke-linecap="round" stroke-linejoin="miter-clip" stroke-miterlimit="4.0" stroke-width="1.0"/>
    <path d="M1162.45 386.55 L1162.45 279.2 1162.45 224.3 M286.0 102.7 L286.0 0.0 M1142.45 224.3 L1142.45 279.2 1142.45 386.55 M969.15 386.55 L969.15 279.2 969.15 224.3 M755.9 224.3 L755.9 279.2 755.9 386.55 M582.6 386.55 L582.6 279.2 582.6 224.3 M775.9 224.3 L775.9 279.2 775.9 386.55 M949.15 386.55 L949.15 279.2 949.15 224.3 M1226.3 748.65 L1226.3 734.75 1057.2 734.75 1057.2 1148.5 M1226.3 748.65 L1226.3 1148.5 M562.6 224.3 L562.6 279.2 562.6 386.55" fill="none" stroke="#000000" stroke-linecap="round" stroke-linejoin="miter-clip" stroke-miterlimit="4.0" stroke-opacity="0.6" stroke-width="1.0"/>
    <path d="M1213.3 899.1 L1213.3 967.65 1194.95 967.65 1194.95 899.1 1213.3 899.1" fill="none" stroke="#000000" stroke-linecap="round" stroke-linejoin="miter-clip" stroke-miterlimit="4.0" stroke-opacity="0.4" stroke-width="1.0"/>
  </g>
</svg>
