<?xml version="1.0" encoding="UTF-8" standalone="no"?>
<svg xmlns:xlink="http://www.w3.org/1999/xlink" height="1035.9px" width="1171.5px" xmlns="http://www.w3.org/2000/svg">
  <g transform="matrix(1.0, 0.0, 0.0, 1.0, 1.25, 593.7)">
    <path d="M0.0 -593.0 Q4.9 -594.2 10.4 -588.7 L15.95 -193.2 7.35 -194.5 0.0 -195.0 0.0 -593.0 M437.7 169.25 L453.55 190.05 454.8 256.2 454.8 256.8 Q460.2 258.65 465.65 261.05 L492.25 272.1 Q480.3 268.25 467.45 267.95 449.95 267.6 433.8 274.1 428.05 276.4 422.8 279.45 413.75 284.65 406.1 292.05 393.95 303.75 387.1 319.05 L386.4 320.7 384.9 324.45 Q379.95 337.9 379.65 352.45 379.3 370.0 385.8 386.1 L386.4 387.6 388.9 392.95 399.35 409.05 403.8 414.05 404.6 414.85 360.05 376.6 Q354.35 369.65 349.9 357.4 341.0 332.9 347.2 306.4 351.0 290.25 361.15 277.55 364.95 272.8 369.4 268.85 377.1 261.95 386.8 257.5 388.75 256.6 390.8 255.8 L390.7 259.6 400.4 263.7 Q410.4 267.8 412.05 267.65 L439.85 266.45 437.7 169.25 M439.85 266.45 L454.7 262.4 454.8 256.8 454.7 262.4 439.85 266.45" fill="#000000" fill-opacity="0.09803922" fill-rule="evenodd" stroke="none"/>
    <path d="M71.0 -51.85 Q60.65 -55.8 49.25 -58.7 26.65 -64.35 5.35 -64.7 L0.0 -64.75 0.0 -79.15 1.3 -79.15 Q30.9 -79.15 51.05 -65.2 60.6 -58.55 71.0 -51.85 M160.35 162.3 L178.8 180.5 180.85 231.35 Q174.95 222.35 165.4 216.9 160.4 214.05 154.55 212.2 156.25 207.15 156.35 201.35 156.65 186.9 146.6 176.45 L145.35 175.2 Q151.95 170.8 157.1 165.7 L160.35 162.3" fill="#000000" fill-opacity="0.047058824" fill-rule="evenodd" stroke="none"/>
    <path d="M0.0 -64.75 L5.35 -64.7 Q26.65 -64.35 49.25 -58.7 60.65 -55.8 71.0 -51.85 81.4 -47.8 100.95 -35.95 L118.4 -24.85 Q122.9 -23.6 126.1 -23.55 136.4 -23.3 129.95 -34.85 L137.4 -23.85 Q146.35 -9.95 153.9 4.55 164.85 25.55 171.1 44.3 178.65 66.9 179.3 86.2 179.65 95.6 179.45 103.65 189.45 110.75 201.35 115.55 L210.65 119.45 Q223.05 124.25 238.55 128.8 288.05 143.45 349.7 150.35 L1019.2 189.7 1018.4 193.3 1017.65 196.9 1017.2 199.25 1017.1 199.75 453.55 190.05 437.7 169.25 431.7 169.2 437.7 169.25 439.85 266.45 412.05 267.65 413.3 169.2 431.7 169.2 413.7 168.8 413.3 169.2 392.05 188.65 392.05 189.05 326.15 187.9 Q306.4 187.15 284.5 189.0 250.7 191.85 236.6 200.35 234.9 201.4 219.15 217.8 L203.8 234.05 193.55 243.9 186.65 243.75 Q184.45 236.85 180.85 231.35 L178.8 180.5 160.35 162.3 Q172.85 148.2 177.05 128.05 179.1 118.2 179.45 103.65 179.1 118.2 177.05 128.05 172.85 148.2 160.35 162.3 L157.1 165.7 Q151.95 170.8 145.35 175.2 117.95 193.4 65.95 199.65 L26.0 202.1 0.0 202.9 0.0 -49.9 0.0 -64.75 M156.35 10.8 Q141.15 15.55 121.4 4.55 115.25 1.1 109.35 -3.55 L104.7 -7.45 Q75.25 -34.05 35.3 -44.7 22.85 -48.0 10.85 -49.35 L1.3 -50.0 0.0 -49.9 1.3 -50.0 10.85 -49.35 Q22.85 -48.0 35.3 -44.7 75.25 -34.05 104.7 -7.45 L109.35 -3.55 Q115.25 1.1 121.4 4.55 141.15 15.55 156.35 10.8 M502.9 376.1 L521.3 419.05 Q513.3 426.5 500.15 432.45 473.8 444.35 448.0 436.9 L502.9 376.1 M1017.45 199.75 L1017.1 199.75 1017.2 199.35 1017.45 199.75 M1019.65 189.7 L1020.45 189.75 1019.05 192.1 1019.65 189.7" fill="#ffffff" fill-opacity="0.0" fill-rule="evenodd" stroke="none"/>
    <path d="M203.8 234.05 L219.15 217.8 Q234.9 201.4 236.6 200.35 L391.1 239.9 390.8 255.8 Q388.75 256.6 386.8 257.5 377.1 261.95 369.4 268.85 L309.15 256.35 203.8 234.05 M519.5 286.75 L519.3 286.6 Q511.75 280.55 502.95 276.4 L494.25 272.75 492.25 272.1 465.65 261.05 Q460.2 258.65 454.8 256.8 L454.8 256.2 551.45 280.95 Q539.75 283.75 524.0 286.1 L519.5 286.75 M145.35 175.2 L146.6 176.45 Q156.65 186.9 156.35 201.35 156.25 207.15 154.55 212.2 137.85 206.95 113.9 209.65 94.3 211.85 45.35 213.6 L0.0 214.95 0.0 202.9 26.0 202.1 65.95 199.65 Q117.95 193.4 145.35 175.2" fill="#000000" fill-opacity="0.29803923" fill-rule="evenodd" stroke="none"/>
    <path d="M386.4 320.7 L387.1 319.05 Q393.95 303.75 406.1 292.05 413.75 284.65 422.8 279.45 428.05 276.4 433.8 274.1 449.95 267.6 467.45 267.95 480.3 268.25 492.25 272.1 L494.25 272.75 502.95 276.4 Q511.75 280.55 519.3 286.6 L519.5 286.75 Q523.9 290.25 527.9 294.4 539.6 306.55 545.8 322.15 552.3 338.25 551.95 355.8 551.6 373.3 544.55 389.2 537.7 404.5 525.55 416.2 513.4 427.9 497.8 434.1 481.65 440.6 464.15 440.25 446.6 439.9 430.75 432.85 426.95 431.15 423.4 429.15 L415.35 424.0 Q409.6 419.8 404.55 414.7 L404.5 414.65 403.7 413.85 399.35 409.05 388.9 392.95 386.4 387.6 385.8 386.1 Q379.3 370.0 379.65 352.45 379.95 337.9 384.9 324.45 L502.9 376.1 413.3 289.25 Q406.35 290.4 394.6 307.4 L386.4 320.7 M502.9 376.1 L448.0 436.9 Q473.8 444.35 500.15 432.45 513.3 426.5 521.3 419.05 L502.9 376.1 M1020.45 189.75 L1019.65 189.7 1020.6 187.2 1020.55 189.6 1020.45 189.75" fill="#ffffff" fill-opacity="0.14901961" fill-rule="evenodd" stroke="none"/>
    <path d="M392.05 189.05 L392.05 188.65 413.3 169.2 412.05 267.65 Q410.4 267.8 400.4 263.7 L390.7 259.6 390.8 255.8 391.1 239.9 392.05 189.05 M0.0 228.15 L0.75 228.15 Q22.0 227.9 45.3 227.25 L101.8 224.55 Q126.9 222.35 143.1 228.1 145.65 229.0 147.95 230.1 158.1 234.9 163.6 243.3 170.4 253.75 170.1 269.7 169.9 280.65 161.45 291.0 149.9 305.15 122.95 318.2 93.35 332.55 56.75 340.7 41.6 344.05 25.25 346.35 L12.45 347.8 10.2 348.05 0.0 349.05 0.0 228.15" fill="#000000" fill-opacity="0.14901961" fill-rule="evenodd" stroke="none"/>
    <path d="M413.3 169.2 L413.7 168.8 431.7 169.2 413.3 169.2" fill="#9c9c9c" fill-rule="evenodd" stroke="none"/>
    <path d="M1020.05 187.15 L1021.5 182.85 Q1022.5 180.2 1023.8 177.95 L1015.3 166.2 Q1005.2 151.8 1007.1 151.85 1009.0 151.9 1023.75 163.3 L1031.9 169.75 Q1034.4 168.6 1037.2 168.65 L1058.55 171.45 1065.85 162.75 Q1076.55 150.9 1079.05 152.2 1081.6 153.5 1076.15 166.0 L1072.8 173.3 1116.05 178.9 1126.65 170.05 Q1142.2 157.6 1142.8 159.55 1143.4 161.45 1136.35 172.2 L1130.45 180.75 1165.6 185.3 Q1161.55 186.25 1157.15 188.95 1148.45 194.35 1147.05 203.2 1145.15 214.5 1146.95 220.05 1148.8 225.8 1155.7 230.55 L1150.55 229.6 1105.15 219.6 Q1095.45 223.5 1084.95 227.2 1064.05 234.65 1060.25 233.95 1056.45 233.25 1071.9 223.15 1078.1 219.1 1084.75 215.15 L1041.25 205.2 Q1041.45 205.45 1006.85 218.75 L1024.4 201.85 1019.35 200.75 Q1018.1 200.7 1017.45 199.75 L1017.2 199.35 1017.1 199.75 1017.2 199.25 1017.65 196.9 1018.4 193.3 1019.2 189.7 1019.65 189.7 1019.2 189.7 1020.05 187.15 M1023.8 177.95 L1025.8 180.6 1038.1 174.75 1031.9 169.75 1038.1 174.75 1025.8 180.6 1023.8 177.95 M1020.45 189.75 L1020.55 189.6 1020.6 187.2 1019.65 189.7 1019.05 192.1 1020.45 189.75 M1041.25 205.2 L1039.4 203.5 1037.2 201.85 1034.45 200.05 Q1030.75 198.0 1027.5 198.85 L1024.4 201.85 1027.5 198.85 Q1030.75 198.0 1034.45 200.05 L1037.2 201.85 1039.4 203.5 1041.25 205.2 M1105.15 219.6 Q1102.65 217.55 1099.25 215.7 1092.5 212.0 1088.05 213.2 L1084.75 215.15 1088.05 213.2 Q1092.5 212.0 1099.25 215.7 1102.65 217.55 1105.15 219.6 M1116.05 178.9 L1130.45 180.75 1116.05 178.9 M1058.55 171.45 L1072.8 173.3 1058.55 171.45" fill="#ffffff" fill-opacity="0.047058824" fill-rule="evenodd" stroke="none"/>
    <path d="M180.85 231.35 Q184.45 236.85 186.65 243.75 190.3 255.2 190.0 270.4 189.8 280.8 184.8 291.0 181.4 298.0 175.7 304.95 L174.95 305.85 169.35 312.0 168.4 312.95 159.75 320.7 152.45 326.35 Q145.4 331.45 137.1 336.35 125.0 343.45 111.1 349.7 L111.05 349.75 109.5 350.4 Q97.9 355.45 85.1 359.95 L76.95 362.7 72.85 364.0 69.0 365.2 Q48.65 371.25 27.8 374.95 L26.85 375.1 13.5 376.95 0.0 378.65 0.0 349.05 10.2 348.05 12.45 347.8 25.25 346.35 Q41.6 344.05 56.75 340.7 93.35 332.55 122.95 318.2 149.9 305.15 161.45 291.0 169.9 280.65 170.1 269.7 170.4 253.75 163.6 243.3 158.1 234.9 147.95 230.1 145.65 229.0 143.1 228.1 126.9 222.35 101.8 224.55 L45.3 227.25 Q22.0 227.9 0.75 228.15 L0.0 228.15 0.0 214.95 45.35 213.6 Q94.3 211.85 113.9 209.65 137.85 206.95 154.55 212.2 160.4 214.05 165.4 216.9 174.95 222.35 180.85 231.35 M386.4 320.7 L394.6 307.4 Q406.35 290.4 413.3 289.25 L502.9 376.1 384.9 324.45 386.4 320.7" fill="#ffffff" fill-opacity="0.29803923" fill-rule="evenodd" stroke="none"/>
    <path d="M171.1 44.3 L176.3 53.15 Q183.2 64.05 191.85 74.35 219.6 107.15 254.45 121.15 L287.4 127.5 Q324.55 134.25 345.4 136.55 L1020.05 187.15 1019.2 189.7 349.7 150.35 Q288.05 143.45 238.55 128.8 223.05 124.25 210.65 119.45 L201.35 115.55 Q189.45 110.75 179.45 103.65 179.65 95.6 179.3 86.2 178.65 66.9 171.1 44.3" fill="#ffffff" fill-opacity="0.24705882" fill-rule="evenodd" stroke="none"/>
    <path d="M15.95 -193.2 L10.4 -588.7 Q4.9 -594.2 0.0 -593.0 M0.0 -79.15 L1.3 -79.15 Q30.9 -79.15 51.05 -65.2 60.6 -58.55 71.0 -51.85 81.4 -47.8 100.95 -35.95 L118.4 -24.85 Q122.9 -23.6 126.1 -23.55 136.4 -23.3 129.95 -34.85 M137.4 -23.85 Q146.35 -9.95 153.9 4.55 164.85 25.55 171.1 44.3 L176.3 53.15 Q183.2 64.05 191.85 74.35 219.6 107.15 254.45 121.15 L287.4 127.5 Q324.55 134.25 345.4 136.55 L1020.05 187.15 1021.5 182.85 Q1022.5 180.2 1023.8 177.95 M1031.9 169.75 Q1034.4 168.6 1037.2 168.65 L1058.55 171.45 M1072.8 173.3 L1116.05 178.9 M1130.45 180.75 L1165.6 185.3 M453.55 190.05 L1017.1 199.75 1017.45 199.75 Q1018.1 200.7 1019.35 200.75 L1024.4 201.85 M186.65 243.75 L193.55 243.9 203.8 234.05 309.15 256.35 369.4 268.85 Q364.95 272.8 361.15 277.55 351.0 290.25 347.2 306.4 341.0 332.9 349.9 357.4 354.35 369.65 360.05 376.6 L404.6 414.85 M236.6 200.35 Q250.7 191.85 284.5 189.0 306.4 187.15 326.15 187.9 L392.05 189.05 M404.5 414.65 L404.55 414.7 Q409.6 419.8 415.35 424.0 L423.4 429.15 Q426.95 431.15 430.75 432.85 446.6 439.9 464.15 440.25 481.65 440.6 497.8 434.1 513.4 427.9 525.55 416.2 537.7 404.5 544.55 389.2 551.6 373.3 551.95 355.8 552.3 338.25 545.8 322.15 539.6 306.55 527.9 294.4 523.9 290.25 519.5 286.75 L519.3 286.6 Q511.75 280.55 502.95 276.4 L494.25 272.75 M492.25 272.1 L465.65 261.05 Q460.2 258.65 454.8 256.8 M390.8 255.8 Q388.75 256.6 386.8 257.5 377.1 261.95 369.4 268.85 M519.5 286.75 L524.0 286.1 Q539.75 283.75 551.45 280.95 L454.8 256.2 M0.0 378.65 L13.5 376.95 26.85 375.1 27.8 374.95 Q48.65 371.25 69.0 365.2 L72.85 364.0 76.95 362.7 85.1 359.95 Q97.9 355.45 109.5 350.4 M111.1 349.7 Q125.0 343.45 137.1 336.35 145.4 331.45 152.45 326.35 L159.75 320.7 168.4 312.95 169.35 312.0 174.95 305.85 175.7 304.95 Q181.4 298.0 184.8 291.0 189.8 280.8 190.0 270.4 190.3 255.2 186.65 243.75 M391.1 239.9 L236.6 200.35 M1155.7 230.55 L1150.55 229.6 1105.15 219.6 M1084.75 215.15 L1041.25 205.2" fill="none" stroke="#000000" stroke-linecap="round" stroke-linejoin="miter-clip" stroke-miterlimit="4.0" stroke-width="1.0"/>
    <path d="M71.0 -51.85 Q60.65 -55.8 49.25 -58.7 26.65 -64.35 5.35 -64.7 L0.0 -64.75 M431.7 169.2 L437.7 169.25 439.85 266.45 M412.05 267.65 L413.3 169.2 431.7 169.2 M145.35 175.2 L146.6 176.45 Q156.65 186.9 156.35 201.35 156.25 207.15 154.55 212.2 M0.0 349.05 L10.2 348.05 12.45 347.8 25.25 346.35 Q41.6 344.05 56.75 340.7 93.35 332.55 122.95 318.2 149.9 305.15 161.45 291.0 169.9 280.65 170.1 269.7 170.4 253.75 163.6 243.3 158.1 234.9 147.95 230.1 145.65 229.0 143.1 228.1 126.9 222.35 101.8 224.55 L45.3 227.25 Q22.0 227.9 0.75 228.15 L0.0 228.15" fill="none" stroke="#000000" stroke-linecap="round" stroke-linejoin="miter-clip" stroke-miterlimit="4.0" stroke-opacity="0.4" stroke-width="1.0"/>
    <path d="M0.0 -49.9 L1.3 -50.0 10.85 -49.35 Q22.85 -48.0 35.3 -44.7 75.25 -34.05 104.7 -7.45 L109.35 -3.55 Q115.25 1.1 121.4 4.55 141.15 15.55 156.35 10.8 M129.95 -34.85 L137.4 -23.85 M1023.8 177.95 L1015.3 166.2 Q1005.2 151.8 1007.1 151.85 1009.0 151.9 1023.75 163.3 L1031.9 169.75 1038.1 174.75 1025.8 180.6 1023.8 177.95 M1058.55 171.45 L1065.85 162.75 Q1076.55 150.9 1079.05 152.2 1081.6 153.5 1076.15 166.0 L1072.8 173.3 1058.55 171.45 M1116.05 178.9 L1126.65 170.05 Q1142.2 157.6 1142.8 159.55 1143.4 161.45 1136.35 172.2 L1130.45 180.75 1116.05 178.9 M1165.6 185.3 L1169.75 186.15 M392.05 189.05 L392.05 188.65 413.3 169.2 413.7 168.8 431.7 169.2 M437.7 169.25 L453.55 190.05 454.8 256.2 454.8 256.8 454.7 262.4 439.85 266.45 412.05 267.65 Q410.4 267.8 400.4 263.7 L390.7 259.6 390.8 255.8 391.1 239.9 392.05 189.05 M1017.1 199.75 L1017.2 199.25 1017.65 196.9 1018.4 193.3 1019.2 189.7 349.7 150.35 Q288.05 143.45 238.55 128.8 223.05 124.25 210.65 119.45 L201.35 115.55 Q189.45 110.75 179.45 103.65 179.1 118.2 177.05 128.05 172.85 148.2 160.35 162.3 L178.8 180.5 180.85 231.35 Q184.45 236.85 186.65 243.75 M203.8 234.05 L219.15 217.8 Q234.9 201.4 236.6 200.35 M492.25 272.1 Q480.3 268.25 467.45 267.95 449.95 267.6 433.8 274.1 428.05 276.4 422.8 279.45 413.75 284.65 406.1 292.05 393.95 303.75 387.1 319.05 L386.4 320.7 384.9 324.45 Q379.95 337.9 379.65 352.45 379.3 370.0 385.8 386.1 L386.4 387.6 388.9 392.95 399.35 409.05 403.7 413.85 404.5 414.65 M494.25 272.75 L492.25 272.1 M171.1 44.3 Q178.65 66.9 179.3 86.2 179.65 95.6 179.45 103.65 M160.35 162.3 L157.1 165.7 Q151.95 170.8 145.35 175.2 117.95 193.4 65.95 199.65 L26.0 202.1 0.0 202.9 M154.55 212.2 Q160.4 214.05 165.4 216.9 174.95 222.35 180.85 231.35 M109.5 350.4 L111.05 349.75 111.1 349.7 M0.0 214.95 L45.35 213.6 Q94.3 211.85 113.9 209.65 137.85 206.95 154.55 212.2 M1105.15 219.6 Q1095.45 223.5 1084.95 227.2 1064.05 234.65 1060.25 233.95 1056.45 233.25 1071.9 223.15 1078.1 219.1 1084.75 215.15 L1088.05 213.2 Q1092.5 212.0 1099.25 215.7 1102.65 217.55 1105.15 219.6 M1041.25 205.2 Q1041.45 205.45 1006.85 218.75 L1024.4 201.85 1027.5 198.85 Q1030.75 198.0 1034.45 200.05 L1037.2 201.85 1039.4 203.5 1041.25 205.2 M1019.65 189.7 L1019.2 189.7 1020.05 187.15" fill="none" stroke="#000000" stroke-linecap="round" stroke-linejoin="miter-clip" stroke-miterlimit="4.0" stroke-opacity="0.6" stroke-width="1.0"/>
  </g>
</svg>
