<?xml version="1.0" encoding="UTF-8" standalone="no"?>
<svg xmlns:xlink="http://www.w3.org/1999/xlink" height="347.7px" width="480.35px" xmlns="http://www.w3.org/2000/svg">
  <g transform="matrix(1.0, 0.0, 0.0, 1.0, 0.0, 0.0)">
    <path d="M366.65 144.75 Q366.2 146.05 364.25 146.45 L359.95 146.0 Q357.65 145.2 356.3 143.7 355.0 142.2 355.45 140.85 355.9 139.55 357.85 139.2 L362.15 139.6 Q364.45 140.4 365.8 141.9 367.1 143.45 366.65 144.75 M336.55 146.4 L339.0 146.65 Q340.3 147.1 341.05 148.0 341.8 148.85 341.55 149.6 341.3 150.35 340.15 150.55 L337.7 150.3 Q336.4 149.85 335.65 149.0 334.9 148.15 335.15 147.4 335.4 146.6 336.55 146.4 M363.35 157.15 Q363.85 155.85 365.8 155.5 L370.05 155.9 Q372.35 156.75 373.7 158.25 375.0 159.75 374.55 161.05 374.1 162.35 372.15 162.75 370.15 163.1 367.85 162.3 365.55 161.5 364.2 160.0 362.9 158.5 363.35 157.15 M334.3 167.65 Q337.0 167.15 340.2 168.25 343.4 169.4 345.2 171.45 347.0 173.5 346.35 175.35 345.7 177.15 343.05 177.65 340.35 178.15 337.15 177.05 333.95 175.95 332.15 173.9 330.3 171.8 330.95 170.0 331.6 168.15 334.3 167.65 M396.35 171.7 Q394.05 170.9 392.7 169.35 391.4 167.85 391.85 166.55 392.3 165.2 394.25 164.85 396.2 164.5 398.55 165.3 400.85 166.1 402.2 167.6 403.5 169.1 403.05 170.4 402.6 171.75 400.65 172.1 398.7 172.5 396.35 171.7 M408.6 194.4 Q410.55 194.0 412.9 194.8 415.2 195.65 416.5 197.15 417.85 198.65 417.35 199.95 416.9 201.3 414.95 201.65 413.0 202.05 410.65 201.2 408.35 200.4 407.0 198.9 405.7 197.4 406.15 196.1 406.65 194.75 408.6 194.4 M472.8 281.5 Q473.15 280.6 474.45 280.35 L477.3 280.65 Q478.85 281.2 479.7 282.2 480.6 283.2 480.3 284.1 480.0 284.95 478.7 285.2 L475.8 284.95 Q474.25 284.4 473.4 283.4 472.5 282.4 472.8 281.5 M373.4 232.4 Q374.95 234.15 374.4 235.75 373.85 237.3 371.5 237.75 369.2 238.2 366.45 237.25 363.65 236.3 362.1 234.5 360.55 232.7 361.1 231.1 361.65 229.55 363.95 229.1 366.3 228.7 369.05 229.65 371.8 230.6 373.4 232.4 M394.65 259.05 L391.4 258.7 Q389.65 258.1 388.65 256.95 387.65 255.8 388.0 254.8 388.35 253.8 389.85 253.5 L393.1 253.85 Q394.85 254.45 395.85 255.6 396.85 256.75 396.5 257.75 396.15 258.75 394.65 259.05 M392.15 288.1 Q392.5 287.1 394.0 286.8 395.5 286.5 397.25 287.15 399.0 287.75 400.0 288.9 401.0 290.05 400.65 291.05 400.3 292.05 398.8 292.35 L395.55 292.0 Q393.8 291.4 392.8 290.25 391.8 289.1 392.15 288.1 M455.5 344.25 Q455.8 343.45 457.0 343.2 L459.6 343.45 Q461.05 344.0 461.8 344.9 462.6 345.8 462.35 346.6 462.05 347.4 460.85 347.65 L458.25 347.35 Q456.85 346.85 456.05 345.95 455.25 345.05 455.5 344.25 M421.1 300.2 Q420.8 301.0 419.6 301.2 L417.0 300.95 Q415.6 300.45 414.8 299.55 414.0 298.65 414.3 297.85 414.55 297.05 415.75 296.8 L418.35 297.05 Q419.75 297.55 420.55 298.45 421.35 299.35 421.1 300.2 M167.25 65.25 Q166.35 64.95 165.8 64.3 165.3 63.6 165.5 63.0 165.75 62.4 166.55 62.2 L168.25 62.3 169.7 63.3 Q170.2 63.95 169.95 64.55 169.75 65.15 168.95 65.35 L167.25 65.25 M166.4 94.05 Q165.9 95.6 163.75 96.1 161.6 96.55 159.15 95.7 156.7 94.85 155.35 93.15 154.0 91.45 154.5 89.9 155.05 88.4 157.15 87.9 159.3 87.45 161.75 88.3 164.2 89.15 165.55 90.8 166.95 92.5 166.4 94.05 M195.7 93.4 Q192.95 92.45 191.35 90.7 189.8 88.95 190.3 87.4 190.85 85.85 193.15 85.45 195.5 85.05 198.25 86.0 201.0 86.95 202.6 88.7 204.2 90.45 203.65 92.0 203.15 93.55 200.8 93.95 198.45 94.35 195.7 93.4 M199.45 108.05 Q200.65 110.15 199.9 112.3 199.2 114.45 196.9 115.4 194.65 116.3 192.2 115.45 189.75 114.6 188.5 112.45 187.3 110.35 188.05 108.2 188.8 106.05 191.05 105.15 L195.8 105.05 Q198.25 105.9 199.45 108.05 M194.6 122.95 Q197.65 124.0 199.35 126.05 201.1 128.1 200.45 129.95 199.8 131.8 197.2 132.35 194.6 132.9 191.5 131.85 188.4 130.75 186.7 128.7 184.95 126.65 185.6 124.8 186.25 122.95 188.9 122.4 191.55 121.85 194.6 122.95 M177.2 136.15 Q179.5 136.0 182.25 136.95 185.0 137.9 186.65 139.45 188.3 140.95 187.9 142.2 187.45 143.45 185.2 143.65 182.95 143.85 180.2 142.85 177.45 141.9 175.75 140.35 174.1 138.8 174.55 137.6 174.95 136.35 177.2 136.15 M250.55 142.1 Q251.2 140.25 253.9 139.75 256.55 139.25 259.75 140.35 262.95 141.5 264.75 143.55 266.6 145.6 265.95 147.45 265.3 149.25 262.6 149.75 259.9 150.25 256.7 149.15 253.5 148.05 251.7 146.0 249.9 143.9 250.55 142.1 M251.75 175.75 L255.55 176.15 Q257.6 176.85 258.75 178.2 259.9 179.55 259.5 180.7 259.1 181.9 257.35 182.25 255.6 182.55 253.55 181.85 251.5 181.15 250.35 179.8 249.2 178.45 249.6 177.3 250.0 176.1 251.75 175.75 M270.7 185.2 Q268.9 183.1 269.55 181.3 270.2 179.45 272.9 178.95 275.55 178.45 278.75 179.55 282.0 180.7 283.8 182.75 285.6 184.8 284.95 186.65 284.3 188.45 281.6 188.95 278.9 189.45 275.7 188.35 272.5 187.25 270.7 185.2 M124.75 31.5 Q123.65 30.4 124.0 29.5 124.3 28.55 125.85 28.35 127.35 28.15 129.2 28.8 131.05 29.45 132.1 30.55 133.2 31.65 132.9 32.55 132.55 33.5 131.05 33.7 L127.65 33.25 Q125.8 32.6 124.75 31.5 M92.5 24.4 Q94.35 25.05 95.45 26.15 96.5 27.2 96.2 28.15 95.85 29.1 94.35 29.3 L91.0 28.85 Q89.15 28.2 88.05 27.1 87.0 26.0 87.3 25.05 87.65 24.15 89.15 23.95 90.65 23.75 92.5 24.4 M85.4 39.25 Q83.35 39.5 80.95 38.65 78.45 37.8 77.05 36.3 75.6 34.85 76.05 33.6 76.45 32.4 78.5 32.1 80.55 31.85 83.0 32.7 85.45 33.55 86.9 35.05 88.3 36.5 87.9 37.75 87.45 38.95 85.4 39.25 M101.5 41.6 Q102.05 40.05 105.0 39.9 108.0 39.7 111.7 41.0 115.35 42.3 117.6 44.25 119.85 46.25 119.3 47.8 118.8 49.35 115.8 49.5 112.8 49.7 109.1 48.4 105.45 47.15 103.2 45.15 101.0 43.15 101.5 41.6 M100.3 59.5 Q99.55 61.65 95.35 61.85 91.1 62.1 85.9 60.3 80.65 58.5 77.5 55.7 74.35 52.9 75.1 50.75 75.8 48.6 80.05 48.35 84.25 48.1 89.5 49.9 94.75 51.75 97.9 54.55 101.05 57.35 100.3 59.5 M90.25 67.3 L92.5 67.55 Q93.75 68.0 94.45 68.75 95.15 69.45 94.95 70.1 94.75 70.7 93.7 70.85 L91.45 70.55 Q90.2 70.1 89.5 69.4 88.8 68.65 89.0 68.05 89.25 67.4 90.25 67.3 M115.3 90.45 Q120.5 92.25 123.6 95.25 126.7 98.3 125.85 100.75 125.0 103.2 120.7 103.65 116.4 104.1 111.2 102.3 105.95 100.5 102.85 97.45 99.8 94.45 100.65 92.0 101.5 89.55 105.8 89.05 110.1 88.6 115.3 90.45 M139.9 56.0 Q141.1 56.7 141.0 57.0 L139.55 57.05 136.3 56.2 Q134.5 55.55 133.25 54.9 132.05 54.2 132.1 53.9 L133.6 53.85 136.85 54.7 139.9 56.0 M132.5 86.15 Q130.4 87.35 128.25 86.65 126.1 85.9 125.2 83.6 124.25 81.35 125.1 78.9 125.95 76.45 128.1 75.2 130.2 74.0 132.35 74.75 134.55 75.5 135.45 77.75 136.35 80.05 135.5 82.5 134.65 84.95 132.5 86.15 M68.05 0.0 Q70.05 -0.05 72.45 0.8 74.95 1.65 76.45 2.9 77.95 4.15 77.6 5.1 77.3 6.0 75.35 6.05 73.35 6.1 70.9 5.25 68.45 4.4 66.95 3.15 65.45 1.9 65.75 0.95 66.1 0.05 68.05 0.0 M161.45 109.55 Q162.1 111.25 161.45 113.1 160.8 114.95 159.3 115.85 157.75 116.8 156.2 116.25 154.65 115.7 154.0 114.05 153.35 112.35 154.0 110.5 154.65 108.65 156.2 107.75 157.75 106.8 159.25 107.35 160.8 107.9 161.45 109.55 M151.7 119.7 Q155.7 121.05 158.05 123.35 160.45 125.6 159.75 127.45 159.1 129.3 155.85 129.65 152.6 129.95 148.6 128.55 144.6 127.2 142.25 124.9 139.85 122.65 140.5 120.8 141.15 118.95 144.4 118.6 147.65 118.3 151.7 119.7 M87.1 246.4 Q87.2 247.55 85.2 248.65 83.2 249.75 80.2 250.1 L75.0 249.8 Q72.8 249.2 72.65 248.0 72.55 246.85 74.55 245.75 76.6 244.65 79.55 244.3 L84.75 244.6 Q86.95 245.2 87.1 246.4 M160.2 273.3 Q160.25 271.9 161.2 270.55 162.2 269.25 163.55 268.8 164.85 268.35 165.75 269.0 166.65 269.65 166.6 271.05 166.55 272.45 165.55 273.75 164.55 275.05 163.25 275.55 L161.05 275.35 Q160.15 274.7 160.2 273.3 M55.0 238.2 Q56.45 238.4 56.75 239.35 57.05 240.3 56.0 241.35 54.95 242.45 53.15 243.0 L49.9 243.35 Q48.4 243.1 48.1 242.15 47.8 241.2 48.85 240.15 49.9 239.05 51.7 238.5 L55.0 238.2 M3.65 245.65 Q5.45 245.05 6.95 245.3 8.4 245.55 8.7 246.5 9.0 247.45 7.95 248.5 6.9 249.55 5.1 250.15 L1.85 250.45 Q0.35 250.2 0.05 249.25 -0.25 248.35 0.8 247.3 1.9 246.2 3.65 245.65 M23.1 252.4 L26.35 252.05 Q27.8 252.3 28.1 253.25 28.4 254.2 27.35 255.25 26.3 256.3 24.55 256.85 L21.3 257.2 Q19.8 256.95 19.5 256.0 19.2 255.05 20.25 254.0 21.3 252.95 23.1 252.4 M296.3 235.35 Q295.5 234.45 295.75 233.65 296.05 232.8 297.25 232.6 L299.85 232.9 Q301.25 233.4 302.05 234.3 302.85 235.2 302.6 236.0 302.3 236.85 301.1 237.05 L298.5 236.75 Q297.1 236.25 296.3 235.35 M271.6 222.7 Q272.0 221.55 273.75 221.2 L277.55 221.6 Q279.6 222.3 280.8 223.65 281.95 225.0 281.55 226.15 281.15 227.3 279.4 227.65 277.65 227.95 275.6 227.25 273.55 226.55 272.4 225.2 271.2 223.85 271.6 222.7 M312.35 256.2 Q312.1 257.0 310.9 257.2 L308.3 256.95 Q306.9 256.45 306.1 255.55 305.3 254.65 305.55 253.8 305.85 253.0 307.05 252.8 L309.65 253.05 Q311.05 253.55 311.85 254.45 312.65 255.4 312.35 256.2 M296.45 261.9 Q297.25 262.8 297.0 263.65 296.7 264.45 295.5 264.65 L292.9 264.4 Q291.5 263.9 290.7 263.0 289.9 262.1 290.15 261.25 290.45 260.45 291.65 260.25 L294.25 260.5 Q295.65 261.0 296.45 261.9 M309.15 291.3 Q310.55 291.8 311.35 292.7 312.15 293.6 311.9 294.4 311.65 295.25 310.45 295.45 L307.8 295.15 Q306.4 294.65 305.6 293.75 304.8 292.85 305.1 292.05 305.35 291.25 306.55 291.0 L309.15 291.3 M187.85 265.0 Q189.75 262.45 192.25 261.55 194.8 260.7 196.55 261.95 198.25 263.2 198.15 265.9 198.05 268.6 196.15 271.1 194.25 273.65 191.75 274.55 189.2 275.45 187.5 274.2 185.8 272.95 185.9 270.25 186.0 267.55 187.85 265.0 M166.55 286.55 Q168.5 285.9 169.8 286.85 171.15 287.8 171.05 289.9 171.0 291.95 169.55 293.9 168.1 295.8 166.15 296.5 164.2 297.2 162.9 296.25 161.6 295.3 161.7 293.2 161.75 291.15 163.2 289.2 164.65 287.25 166.55 286.55 M176.0 322.75 Q176.1 320.7 177.5 318.75 178.9 316.8 180.9 316.1 182.85 315.45 184.15 316.4 185.45 317.35 185.35 319.45 185.3 321.5 183.85 323.45 182.4 325.35 180.5 326.05 178.55 326.7 177.25 325.75 175.95 324.8 176.0 322.75" fill="#000000" fill-opacity="0.2" fill-rule="evenodd" stroke="none"/>
  </g>
</svg>
