<?xml version="1.0" encoding="UTF-8" standalone="no"?>
<svg xmlns:xlink="http://www.w3.org/1999/xlink" height="33.85px" width="33.55px" xmlns="http://www.w3.org/2000/svg">
  <g transform="matrix(1.0, 0.0, 0.0, 1.0, 0.5, 0.7)">
    <path d="M30.75 23.85 L30.35 24.0 Q26.3 25.4 22.65 24.5 24.25 21.8 24.8 18.25 26.3 8.8 17.85 3.15 15.25 1.4 12.5 0.4 L16.25 0.0 Q23.0 0.0 27.8 4.75 32.55 9.5 32.55 16.25 32.55 20.45 30.75 23.85" fill="#000000" fill-opacity="0.14901961" fill-rule="evenodd" stroke="none"/>
    <path d="M12.5 0.4 Q15.25 1.4 17.85 3.15 26.3 8.8 24.8 18.25 24.25 21.8 22.65 24.5 26.3 25.4 30.35 24.0 L30.75 23.85 Q29.65 26.0 27.8 27.85 23.0 32.6 16.25 32.6 L12.05 32.1 14.2 31.35 Q19.9 29.05 22.65 24.5 L14.25 22.0 Q9.5 20.5 6.75 20.55 3.9 20.6 1.3 22.15 L1.1 22.3 Q0.0 19.5 0.0 16.25 0.0 9.5 4.75 4.75 8.1 1.4 12.5 0.4" fill="#ffffff" fill-opacity="0.0" fill-rule="evenodd" stroke="none"/>
    <path d="M1.1 22.3 L1.3 22.15 Q3.9 20.6 6.75 20.55 9.5 20.5 14.25 22.0 L22.65 24.5 Q19.9 29.05 14.2 31.35 L12.05 32.1 Q7.95 31.05 4.75 27.85 2.25 25.35 1.1 22.3" fill="#ffffff" fill-opacity="0.24705882" fill-rule="evenodd" stroke="none"/>
    <path d="M30.75 23.85 Q32.55 20.45 32.55 16.25 32.55 9.5 27.8 4.75 23.0 0.0 16.25 0.0 L12.5 0.4 Q8.1 1.4 4.75 4.75 0.0 9.5 0.0 16.25 0.0 19.5 1.1 22.3 2.25 25.35 4.75 27.85 7.95 31.05 12.05 32.1 L16.25 32.6 Q23.0 32.6 27.8 27.85 29.65 26.0 30.75 23.85 Z" fill="none" stroke="#000000" stroke-linecap="round" stroke-linejoin="miter-clip" stroke-miterlimit="4.0" stroke-width="1.0"/>
  </g>
</svg>
