<?xml version="1.0" encoding="UTF-8" standalone="no"?>
<svg xmlns:xlink="http://www.w3.org/1999/xlink" height="6.9px" width="6.55px" xmlns="http://www.w3.org/2000/svg">
  <g transform="matrix(1.0, 0.0, 0.0, 1.0, 0.5, 0.5)">
    <path d="M1.65 0.05 L2.3 0.25 2.75 0.55 4.95 2.7 5.2 3.0 Q5.9 3.6 5.1 4.5 L4.95 4.65 3.3 5.75 2.5 5.9 2.25 5.9 2.15 5.85 Q1.4 5.7 1.0 4.7 L1.4 4.7 2.8 4.55 4.8 4.1 3.55 4.15 1.65 4.3 1.0 4.2 0.7 3.85 0.65 3.7 3.05 3.6 1.8 3.4 0.7 3.25 0.55 3.05 0.55 2.3 1.95 2.6 3.4 3.0 2.5 2.5 1.3 1.95 0.75 1.65 0.75 1.6 0.9 1.2 1.0 1.1 Q1.6 1.15 2.25 1.65 L3.1 2.2 4.15 2.8 2.8 1.55 2.05 0.9 Q1.75 0.6 1.5 0.55 1.9 0.25 2.35 0.3 L1.65 0.05" fill="#000000" fill-opacity="0.09803922" fill-rule="evenodd" stroke="none"/>
    <path d="M1.65 0.05 L2.35 0.3 Q1.9 0.25 1.5 0.55 1.75 0.6 2.05 0.9 L2.8 1.55 4.15 2.8 3.1 2.2 2.25 1.65 Q1.6 1.15 1.0 1.1 L0.9 1.2 0.75 1.6 0.75 1.65 1.3 1.95 2.5 2.5 3.4 3.0 1.95 2.6 0.55 2.3 0.55 3.05 0.7 3.25 1.8 3.4 3.05 3.6 0.65 3.7 0.7 3.85 1.0 4.2 1.65 4.3 3.55 4.15 4.8 4.1 2.8 4.55 1.4 4.7 1.0 4.7 Q1.4 5.7 2.15 5.85 L2.25 5.9 1.8 5.8 1.7 5.75 1.35 5.55 0.75 5.0 0.3 4.2 0.1 3.5 0.0 2.6 0.0 2.5 0.0 1.7 0.05 1.45 0.1 1.2 Q0.25 0.5 0.65 0.2 L0.95 0.05 1.05 0.05 1.3 0.0 1.55 0.05 1.65 0.05" fill="#000000" fill-opacity="0.49803922" fill-rule="evenodd" stroke="none"/>
    <path d="M2.25 5.9 L2.5 5.9 3.3 5.75 4.95 4.65 5.1 4.5 Q5.9 3.6 5.2 3.0 L4.95 2.7 2.75 0.55 2.3 0.25 1.65 0.05 1.55 0.05 1.3 0.0 1.05 0.05 0.95 0.05 0.65 0.2 Q0.25 0.5 0.1 1.2 L0.05 1.45 0.0 1.7 0.0 2.5 0.0 2.6 0.1 3.5 0.3 4.2 0.75 5.0 1.35 5.55 1.7 5.75 1.8 5.8 2.25 5.9 Z" fill="none" stroke="#000000" stroke-linecap="round" stroke-linejoin="miter-clip" stroke-miterlimit="4.0" stroke-opacity="0.6" stroke-width="1.0"/>
  </g>
</svg>
