<?xml version="1.0" encoding="UTF-8" standalone="no"?>
<svg xmlns:xlink="http://www.w3.org/1999/xlink" height="58.85px" width="80.85px" xmlns="http://www.w3.org/2000/svg">
  <g transform="matrix(1.0, 0.0, 0.0, 1.0, 0.45, 0.85)">
    <path d="M57.85 11.15 L58.15 11.2 58.2 11.2 Q59.5 11.5 62.2 10.4 64.75 9.3 66.1 9.85 66.95 10.25 67.6 11.25 L69.3 10.2 Q73.2 8.25 75.2 9.95 77.7 12.15 75.0 16.9 L74.25 18.2 75.55 18.95 Q77.6 20.3 77.15 22.75 L76.25 25.65 Q76.25 26.2 78.55 29.3 80.55 32.0 79.6 33.95 79.05 34.95 76.7 36.35 L75.7 36.95 Q76.65 37.55 77.1 38.75 78.0 41.05 76.25 42.8 76.65 43.45 76.65 44.0 76.8 46.05 74.15 47.4 72.85 48.1 69.75 48.9 70.65 48.7 70.5 51.6 70.35 54.65 69.3 55.3 67.8 56.3 64.7 54.9 62.65 54.0 60.5 52.35 60.45 56.7 54.5 57.35 L53.3 57.45 47.25 57.15 43.0 56.25 Q41.2 55.8 37.1 56.35 L30.2 57.3 Q22.15 57.85 22.65 50.65 17.05 53.0 9.3 52.0 0.0 50.8 0.05 44.4 0.15 41.55 3.75 40.3 L8.5 39.15 10.9 40.85 10.85 42.4 Q10.95 44.7 11.6 47.1 10.95 44.7 10.85 42.4 L10.9 40.85 Q11.05 39.65 11.5 39.15 12.0 38.35 13.1 38.5 L13.55 38.55 Q16.85 39.4 18.55 43.6 L18.65 43.75 18.8 44.15 18.9 44.55 18.9 42.65 Q19.1 40.8 20.2 39.6 21.2 38.5 22.7 38.3 L24.1 38.2 Q23.45 39.55 24.1 43.6 24.4 45.3 25.1 46.8 L25.8 48.0 26.45 45.3 Q26.95 42.55 26.9 41.35 L27.75 38.65 28.65 36.3 Q29.15 35.15 29.8 34.25 32.95 42.45 33.9 47.45 34.55 50.65 34.95 51.6 36.05 54.35 37.7 52.45 38.65 51.45 39.25 48.8 L39.75 46.1 40.45 43.45 Q40.95 42.1 41.6 42.4 42.25 42.65 41.9 46.7 L41.55 51.7 Q41.8 53.3 42.6 54.4 L44.85 56.6 Q47.4 57.05 51.1 55.8 53.9 54.8 56.05 53.35 57.45 52.4 58.0 50.7 58.65 48.75 56.5 48.85 58.65 45.65 59.3 43.8 59.95 42.15 60.1 40.4 60.2 39.35 59.8 37.85 L59.4 36.6 59.05 35.6 58.0 33.65 Q56.9 31.9 56.75 32.85 56.85 30.85 58.4 28.1 60.05 25.05 60.3 23.55 60.65 21.45 60.1 20.4 L59.4 20.45 57.9 20.2 Q57.4 20.0 57.3 19.6 56.25 19.85 55.2 20.55 L55.1 20.6 55.25 20.5 Q56.25 19.2 57.35 18.65 L57.35 17.75 57.2 14.65 57.15 14.3 57.35 14.25 57.85 11.15 M59.9 35.7 Q61.8 32.0 64.35 28.75 67.85 24.25 70.5 23.7 L72.2 23.5 Q75.8 23.45 73.55 28.5 70.9 34.35 67.35 36.15 70.9 34.35 73.55 28.5 75.8 23.45 72.2 23.5 L70.5 23.7 Q67.85 24.25 64.35 28.75 61.8 32.0 59.9 35.7 M67.6 11.25 Q65.5 12.85 65.65 14.7 65.5 12.85 67.6 11.25 M70.05 23.0 Q72.4 21.05 74.25 18.2 72.4 21.05 70.05 23.0 M59.55 32.65 Q61.15 27.6 61.75 24.45 62.9 18.65 59.55 18.2 58.4 18.05 57.35 18.65 58.4 18.05 59.55 18.2 62.9 18.65 61.75 24.45 61.15 27.6 59.55 32.65 M55.25 20.5 L55.2 20.55 55.25 20.5 M59.95 49.7 L62.1 44.2 Q63.3 40.4 62.25 38.55 61.2 36.7 59.4 36.6 61.2 36.7 62.25 38.55 63.3 40.4 62.1 44.2 L59.95 49.7 M19.85 50.85 Q19.95 47.7 19.05 45.0 L18.9 44.55 19.05 45.0 Q19.95 47.7 19.85 50.85 M76.25 42.8 Q74.8 44.1 71.95 44.9 L66.95 46.45 Q64.5 47.55 64.35 49.25 64.5 47.55 66.95 46.45 L71.95 44.9 Q74.8 44.1 76.25 42.8 M64.35 39.2 Q67.2 37.1 71.1 36.45 74.05 35.95 75.7 36.95 74.05 35.95 71.1 36.45 67.2 37.1 64.35 39.2" fill="#000000" fill-opacity="0.14901961" fill-rule="evenodd" stroke="none"/>
    <path d="M8.5 39.15 L6.35 37.65 Q1.7 33.55 3.5 30.65 4.9 28.35 8.4 30.25 7.95 27.6 8.3 26.5 8.7 25.2 10.05 24.5 L14.3 22.9 Q12.6 21.65 10.55 19.15 7.5 15.5 7.65 13.35 7.75 11.55 8.75 10.75 9.85 9.85 11.55 10.5 13.35 11.2 15.45 14.55 17.4 17.6 17.95 20.2 L19.7 17.4 17.35 12.5 Q14.7 5.95 19.05 6.8 22.2 7.3 23.1 11.8 L23.55 14.6 24.0 14.55 Q21.35 6.75 23.95 3.7 27.45 -0.4 29.85 3.1 31.75 5.85 32.1 11.25 L32.15 12.55 32.3 11.1 32.65 9.0 Q33.7 4.85 36.45 3.65 42.5 0.95 42.4 6.15 L42.3 7.85 Q43.4 8.4 44.6 9.9 45.9 11.55 46.95 11.65 47.75 11.7 48.75 10.95 48.5 9.1 48.7 7.2 49.3 1.25 53.4 0.2 58.35 -1.05 58.4 4.95 58.4 7.1 57.85 11.1 L57.85 11.15 57.35 14.25 57.15 14.3 57.2 14.65 57.35 17.75 57.35 18.65 Q56.25 19.2 55.25 20.5 L55.1 20.6 55.2 20.55 Q56.25 19.85 57.3 19.6 57.4 20.0 57.9 20.2 L59.4 20.45 60.1 20.4 Q60.65 21.45 60.3 23.55 60.05 25.05 58.4 28.1 56.85 30.85 56.75 32.85 56.9 31.9 58.0 33.65 L59.05 35.6 59.4 36.6 59.25 36.6 Q57.45 36.7 56.05 38.4 54.75 40.0 54.4 43.2 L54.3 48.4 54.4 43.2 Q54.75 40.0 56.05 38.4 57.45 36.7 59.25 36.6 L59.4 36.6 59.8 37.85 Q60.2 39.35 60.1 40.4 59.95 42.15 59.3 43.8 58.65 45.65 56.5 48.85 58.65 48.75 58.0 50.7 57.45 52.4 56.05 53.35 53.9 54.8 51.1 55.8 47.4 57.05 44.85 56.6 L42.6 54.4 Q41.8 53.3 41.55 51.7 L41.9 46.7 Q42.25 42.65 41.6 42.4 40.95 42.1 40.45 43.45 L39.75 46.1 39.25 48.8 Q38.65 51.45 37.7 52.45 36.05 54.35 34.95 51.6 34.55 50.65 33.9 47.45 32.95 42.45 29.8 34.25 29.15 35.15 28.65 36.3 L27.75 38.65 26.9 41.35 Q26.95 42.55 26.45 45.3 L25.8 48.0 25.1 46.8 Q24.4 45.3 24.1 43.6 23.45 39.55 24.1 38.2 L22.7 38.3 Q21.2 38.5 20.2 39.6 19.1 40.8 18.9 42.65 L18.9 44.55 18.8 44.15 Q18.05 41.45 19.6 39.55 L20.1 39.0 Q21.15 38.05 22.5 37.65 L26.2 37.5 Q26.8 39.3 26.9 41.35 26.8 39.3 26.2 37.5 L22.5 37.65 Q21.15 38.05 20.1 39.0 L19.6 39.55 Q18.05 41.45 18.8 44.15 L18.65 43.75 18.55 43.6 Q16.85 39.4 13.55 38.55 L13.1 38.5 Q12.0 38.35 11.5 39.15 11.05 39.65 10.9 40.85 L8.5 39.15 M55.2 20.55 L55.05 20.7 Q53.05 23.35 53.4 25.65 53.05 23.35 55.05 20.7 L55.2 20.55 M50.2 14.85 L50.15 15.25 Q49.65 17.8 49.45 20.15 49.65 17.8 50.15 15.25 L50.2 14.85 Q49.05 13.25 48.75 10.95 49.05 13.25 50.2 14.85 L50.45 13.75 Q51.95 7.65 54.3 9.45 L54.4 9.55 Q56.45 11.15 57.15 14.3 56.45 11.15 54.4 9.55 L54.3 9.45 Q51.95 7.65 50.45 13.75 L50.2 14.85 M42.9 35.7 Q42.85 32.95 43.25 29.3 43.6 25.9 44.45 24.0 L44.9 23.1 Q46.0 20.65 45.55 18.6 44.95 16.05 43.3 15.6 41.9 15.2 39.4 16.35 35.0 18.3 31.95 23.55 28.5 29.25 30.7 33.1 30.2 33.6 29.8 34.25 30.2 33.6 30.7 33.1 28.5 29.25 31.95 23.55 35.0 18.3 39.4 16.35 41.9 15.2 43.3 15.6 44.95 16.05 45.55 18.6 46.0 20.65 44.9 23.1 45.4 22.15 46.2 21.9 49.1 20.8 50.1 23.4 51.2 26.35 49.05 33.05 51.2 26.35 50.1 23.4 49.1 20.8 46.2 21.9 45.4 22.15 44.9 23.1 L44.45 24.0 Q43.6 25.9 43.25 29.3 42.85 32.95 42.9 35.7 M40.7 15.1 Q41.9 10.85 42.3 7.85 41.9 10.85 40.7 15.1 M53.8 44.0 L53.6 38.05 Q53.3 34.95 52.4 32.25 48.65 31.4 48.15 37.0 47.7 42.05 49.4 44.9 47.7 42.05 48.15 37.0 48.65 31.4 52.4 32.25 53.3 34.95 53.6 38.05 L53.8 44.0 M40.8 41.35 L40.8 41.45 Q40.2 43.1 39.75 46.1 40.2 43.1 40.8 41.45 L40.8 41.35 Q40.75 34.7 40.35 33.45 39.95 32.05 39.25 31.35 39.95 32.05 40.35 33.45 40.75 34.7 40.8 41.35 42.6 36.15 45.9 39.5 47.55 41.15 46.2 46.0 L44.2 52.75 46.2 46.0 Q47.55 41.15 45.9 39.5 42.6 36.15 40.8 41.35 M8.4 30.25 L10.25 31.45 14.9 35.7 10.25 31.45 8.4 30.25 M17.95 20.2 L17.4 20.8 15.3 22.45 14.3 22.9 15.3 22.45 17.4 20.8 17.95 20.2 M31.95 16.3 L31.95 15.95 32.1 12.65 32.15 12.55 32.1 12.65 31.95 15.95 31.95 16.3 M21.9 30.0 Q19.75 24.7 21.45 20.75 L21.65 20.35 19.7 17.4 21.65 20.35 Q21.95 19.45 22.55 18.9 L23.8 17.9 23.55 14.6 23.8 17.9 22.55 18.9 Q21.95 19.45 21.65 20.35 L21.45 20.75 Q19.75 24.7 21.9 30.0 M25.1 17.65 L24.0 14.55 25.1 17.65 26.25 17.75 Q28.7 18.3 28.85 22.9 28.9 25.2 28.45 27.4 28.9 25.2 28.85 22.9 28.7 18.3 26.25 17.75 L25.1 17.65 Q24.4 17.65 23.8 17.95 L23.8 17.9 23.8 17.95 Q24.4 17.65 25.1 17.65 M30.7 33.1 Q32.45 31.1 34.6 30.55 38.0 29.7 39.25 31.35 38.0 29.7 34.6 30.55 32.45 31.1 30.7 33.1 M19.6 39.55 Q16.5 37.0 13.65 31.35 10.35 24.7 15.3 24.75 18.8 24.85 21.1 30.2 23.0 34.7 22.5 37.65 23.0 34.7 21.1 30.2 18.8 24.85 15.3 24.75 10.35 24.7 13.65 31.35 16.5 37.0 19.6 39.55 M39.25 31.35 L44.45 24.0 39.25 31.35" fill="#ffffff" fill-opacity="0.0" fill-rule="evenodd" stroke="none"/>
    <path d="M57.15 14.3 L57.2 14.65 57.35 17.75 M57.35 18.65 Q58.4 18.05 59.55 18.2 62.9 18.65 61.75 24.45 61.15 27.6 59.55 32.65 M74.25 18.2 Q72.4 21.05 70.05 23.0 M65.65 14.7 Q65.5 12.85 67.6 11.25 M67.35 36.15 Q70.9 34.35 73.55 28.5 75.8 23.45 72.2 23.5 L70.5 23.7 Q67.85 24.25 64.35 28.75 61.8 32.0 59.9 35.7 M48.75 10.95 Q49.05 13.25 50.2 14.85 L50.45 13.75 Q51.95 7.65 54.3 9.45 L54.4 9.55 Q56.45 11.15 57.15 14.3 M29.8 34.25 Q30.2 33.6 30.7 33.1 28.5 29.25 31.95 23.55 35.0 18.3 39.4 16.35 41.9 15.2 43.3 15.6 44.95 16.05 45.55 18.6 46.0 20.65 44.9 23.1 45.4 22.15 46.2 21.9 49.1 20.8 50.1 23.4 51.2 26.35 49.05 33.05 M44.9 23.1 L44.45 24.0 Q43.6 25.9 43.25 29.3 42.85 32.95 42.9 35.7 M49.45 20.15 Q49.65 17.8 50.15 15.25 L50.2 14.85 M53.4 25.65 Q53.05 23.35 55.05 20.7 L55.2 20.55 55.25 20.5 Q56.25 19.2 57.35 18.65 M59.4 36.6 Q61.2 36.7 62.25 38.55 63.3 40.4 62.1 44.2 L59.95 49.7 M42.3 7.85 Q41.9 10.85 40.7 15.1 M54.3 48.4 L54.4 43.2 Q54.75 40.0 56.05 38.4 57.45 36.7 59.25 36.6 L59.4 36.6 M39.75 46.1 L39.25 48.8 M29.8 34.25 Q29.15 35.15 28.65 36.3 L27.75 38.65 26.9 41.35 Q26.95 42.55 26.45 45.3 L25.8 48.0 M18.9 44.55 L19.05 45.0 Q19.95 47.7 19.85 50.85 M39.25 31.35 Q39.95 32.05 40.35 33.45 40.75 34.7 40.8 41.35 42.6 36.15 45.9 39.5 47.55 41.15 46.2 46.0 L44.2 52.75 M39.75 46.1 Q40.2 43.1 40.8 41.45 L40.8 41.35 M49.4 44.9 Q47.7 42.05 48.15 37.0 48.65 31.4 52.4 32.25 53.3 34.95 53.6 38.05 L53.8 44.0 M75.7 36.95 Q74.05 35.95 71.1 36.45 67.2 37.1 64.35 39.2 M64.35 49.25 Q64.5 47.55 66.95 46.45 L71.95 44.9 Q74.8 44.1 76.25 42.8 M19.7 17.4 L21.65 20.35 Q21.95 19.45 22.55 18.9 L23.8 17.9 23.55 14.6 M28.45 27.4 Q28.9 25.2 28.85 22.9 28.7 18.3 26.25 17.75 L25.1 17.65 Q24.4 17.65 23.8 17.95 L23.8 17.9 M24.0 14.55 L25.1 17.65 M21.65 20.35 L21.45 20.75 Q19.75 24.7 21.9 30.0 M32.15 12.55 L32.1 12.65 31.95 15.95 31.95 16.3 M14.3 22.9 L15.3 22.45 17.4 20.8 17.95 20.2 M14.9 35.7 L10.25 31.45 8.4 30.25 M26.9 41.35 Q26.8 39.3 26.2 37.5 L22.5 37.65 Q21.15 38.05 20.1 39.0 L19.6 39.55 Q18.05 41.45 18.8 44.15 L18.65 43.75 18.55 43.6 Q16.85 39.4 13.55 38.55 L13.1 38.5 Q12.0 38.35 11.5 39.15 11.05 39.65 10.9 40.85 L8.5 39.15 M11.6 47.1 Q10.95 44.7 10.85 42.4 L10.9 40.85 M22.5 37.65 Q23.0 34.7 21.1 30.2 18.8 24.85 15.3 24.75 10.35 24.7 13.65 31.35 16.5 37.0 19.6 39.55 M39.25 31.35 Q38.0 29.7 34.6 30.55 32.45 31.1 30.7 33.1 M44.45 24.0 L39.25 31.35" fill="none" stroke="#000000" stroke-linecap="round" stroke-linejoin="miter-clip" stroke-miterlimit="4.0" stroke-opacity="0.4" stroke-width="1.0"/>
    <path d="M57.85 11.15 L58.15 11.2 58.2 11.2 Q59.5 11.5 62.2 10.4 64.75 9.3 66.1 9.85 66.95 10.25 67.6 11.25 L69.3 10.2 Q73.2 8.25 75.2 9.95 77.7 12.15 75.0 16.9 L74.25 18.2 75.55 18.95 Q77.6 20.3 77.15 22.75 L76.25 25.65 Q76.25 26.2 78.55 29.3 80.55 32.0 79.6 33.95 79.05 34.95 76.7 36.35 L75.7 36.95 Q76.65 37.55 77.1 38.75 78.0 41.05 76.25 42.8 76.65 43.45 76.65 44.0 76.8 46.05 74.15 47.4 72.85 48.1 69.75 48.9 70.65 48.7 70.5 51.6 70.35 54.65 69.3 55.3 67.8 56.3 64.7 54.9 62.65 54.0 60.5 52.35 60.45 56.7 54.5 57.35 L53.3 57.45 47.25 57.15 43.0 56.25 Q41.2 55.8 37.1 56.35 L30.2 57.3 Q22.15 57.85 22.65 50.65 17.05 53.0 9.3 52.0 0.0 50.8 0.05 44.4 0.15 41.55 3.75 40.3 L8.5 39.15 6.35 37.65 Q1.7 33.55 3.5 30.65 4.9 28.35 8.4 30.25 7.95 27.6 8.3 26.5 8.7 25.2 10.05 24.5 L14.3 22.9 Q12.6 21.65 10.55 19.15 7.5 15.5 7.65 13.35 7.75 11.55 8.75 10.75 9.85 9.85 11.55 10.5 13.35 11.2 15.45 14.55 17.4 17.6 17.95 20.2 L19.7 17.4 17.35 12.5 Q14.7 5.95 19.05 6.8 22.2 7.3 23.1 11.8 L23.55 14.6 M24.0 14.55 Q21.35 6.75 23.95 3.7 27.45 -0.4 29.85 3.1 31.75 5.85 32.1 11.25 L32.15 12.55 32.3 11.1 32.65 9.0 Q33.7 4.85 36.45 3.65 42.5 0.95 42.4 6.15 L42.3 7.85 Q43.4 8.4 44.6 9.9 45.9 11.55 46.95 11.65 47.75 11.7 48.75 10.95 48.5 9.1 48.7 7.2 49.3 1.25 53.4 0.2 58.35 -1.05 58.4 4.95 58.4 7.1 57.85 11.1" fill="none" stroke="#000000" stroke-linecap="round" stroke-linejoin="miter-clip" stroke-miterlimit="4.0" stroke-width="1.0"/>
    <path d="M23.55 14.6 L24.0 14.55 M57.85 11.1 L57.85 11.15 57.35 14.25 M18.8 44.15 L18.9 44.55" fill="none" stroke="#000000" stroke-linecap="round" stroke-linejoin="miter-clip" stroke-miterlimit="4.0" stroke-opacity="0.6" stroke-width="1.0"/>
  </g>
</svg>
