<?xml version="1.0" encoding="UTF-8" standalone="no"?>
<svg xmlns:xlink="http://www.w3.org/1999/xlink" height="57.1px" width="283.9px" xmlns="http://www.w3.org/2000/svg">
  <g transform="matrix(1.0, 0.0, 0.0, 1.0, 0.5, 0.5)">
    <path d="M282.4 17.2 Q281.95 19.2 275.0 21.55 L266.0 23.95 Q248.35 34.55 242.8 37.05 L240.5 37.85 227.85 37.55 Q215.9 37.4 211.1 37.85 L171.85 41.45 Q137.6 44.65 133.8 45.6 L121.3 45.95 107.95 45.3 84.35 43.25 Q81.05 42.45 69.85 41.15 L54.2 40.2 Q51.55 40.65 30.4 34.7 8.8 28.6 7.8 28.6 5.85 28.6 3.55 25.9 L2.25 24.05 1.65 23.15 Q2.4 21.8 3.95 20.45 7.05 17.75 10.9 17.75 15.1 17.75 49.85 12.65 L85.9 6.95 123.1 3.2 158.55 0.0 249.75 7.7 265.1 10.5 Q280.75 13.8 282.2 16.2 L282.4 17.2 M121.45 45.6 L121.3 45.95 121.45 45.6" fill="#ffffff" fill-opacity="0.14901961" fill-rule="evenodd" stroke="none"/>
    <path d="M282.4 17.2 L282.8 19.5 Q283.15 23.4 282.2 26.25 281.35 28.95 273.6 31.75 L266.0 34.0 Q242.8 47.9 240.5 47.9 L227.85 47.6 Q215.9 47.45 211.1 47.9 L171.85 51.5 Q137.6 54.7 133.8 55.65 129.7 56.7 107.95 55.35 L84.35 53.3 Q81.05 52.5 69.85 51.2 L54.2 50.25 51.1 50.0 Q51.1 48.3 51.4 45.6 L51.85 40.95 51.4 45.6 Q51.1 48.3 51.1 50.0 45.4 48.95 30.4 44.75 8.8 38.65 7.8 38.65 5.85 38.65 3.55 35.95 L1.65 33.2 Q0.5 30.9 0.1 28.6 -0.55 24.55 2.25 24.05 L3.55 25.9 Q5.85 28.6 7.8 28.6 8.8 28.6 30.4 34.7 51.55 40.65 54.2 40.2 L69.85 41.15 Q81.05 42.45 84.35 43.25 L107.95 45.3 121.3 45.95 133.8 45.6 Q137.6 44.65 171.85 41.45 L211.1 37.85 Q215.9 37.4 227.85 37.55 L240.5 37.85 242.8 37.05 Q248.35 34.55 266.0 23.95 L275.0 21.55 Q281.95 19.2 282.4 17.2 M242.0 43.25 Q241.6 40.0 242.8 37.05 241.6 40.0 242.0 43.25 M214.2 47.15 Q214.65 44.5 213.4 42.5 214.65 44.5 214.2 47.15 M119.9 55.65 Q119.3 50.0 121.3 45.95 119.3 50.0 119.9 55.65 M157.0 51.0 L157.0 47.9 157.0 51.0 M177.1 47.9 L177.35 45.6 Q177.25 44.55 176.3 44.8 177.25 44.55 177.35 45.6 L177.1 47.9 M80.45 50.25 L81.3 45.35 Q81.65 42.85 80.45 43.25 81.65 42.85 81.3 45.35 L80.45 50.25" fill="#000000" fill-opacity="0.047058824" fill-rule="evenodd" stroke="none"/>
    <path d="M51.1 50.0 L54.2 50.25 69.85 51.2 Q81.05 52.5 84.35 53.3 L107.95 55.35 Q129.7 56.7 133.8 55.65 137.6 54.7 171.85 51.5 L211.1 47.9 Q215.9 47.45 227.85 47.6 L240.5 47.9 Q242.8 47.9 266.0 34.0 L273.6 31.75 Q281.35 28.95 282.2 26.25 283.15 23.4 282.8 19.5 L282.4 17.2 282.2 16.2 Q280.75 13.8 265.1 10.5 L249.75 7.7 158.55 0.0 123.1 3.2 85.9 6.95 49.85 12.65 Q15.1 17.75 10.9 17.75 7.05 17.75 3.95 20.45 2.4 21.8 1.65 23.15 L2.25 24.05 3.55 25.9 M121.3 45.95 L121.45 45.6 M51.1 50.0 Q45.4 48.95 30.4 44.75 8.8 38.65 7.8 38.65 5.85 38.65 3.55 35.95 L1.65 33.2 Q0.5 30.9 0.1 28.6 -0.55 24.55 2.25 24.05 M51.1 50.0 L51.1 50.25" fill="none" stroke="#000000" stroke-linecap="round" stroke-linejoin="miter-clip" stroke-miterlimit="4.0" stroke-width="1.0"/>
    <path d="M282.4 17.2 Q281.95 19.2 275.0 21.55 L266.0 23.95 Q248.35 34.55 242.8 37.05 L240.5 37.85 227.85 37.55 Q215.9 37.4 211.1 37.85 L171.85 41.45 Q137.6 44.65 133.8 45.6 L121.3 45.95 107.95 45.3 84.35 43.25 Q81.05 42.45 69.85 41.15 L54.2 40.2 Q51.55 40.65 30.4 34.7 8.8 28.6 7.8 28.6 5.85 28.6 3.55 25.9" fill="none" stroke="#000000" stroke-linecap="round" stroke-linejoin="miter-clip" stroke-miterlimit="4.0" stroke-opacity="0.6" stroke-width="1.0"/>
    <path d="M242.8 37.05 Q241.6 40.0 242.0 43.25 M213.4 42.5 Q214.65 44.5 214.2 47.15 M176.3 44.8 Q177.25 44.55 177.35 45.6 L177.1 47.9 M157.0 47.9 L157.0 51.0 M121.3 45.95 Q119.3 50.0 119.9 55.65 M51.85 40.95 L51.4 45.6 Q51.1 48.3 51.1 50.0 M80.45 43.25 Q81.65 42.85 81.3 45.35 L80.45 50.25" fill="none" stroke="#000000" stroke-linecap="round" stroke-linejoin="miter-clip" stroke-miterlimit="4.0" stroke-opacity="0.4" stroke-width="1.0"/>
  </g>
</svg>
