<?xml version="1.0" encoding="UTF-8" standalone="no"?>
<svg xmlns:xlink="http://www.w3.org/1999/xlink" height="93.85px" width="543.05px" xmlns="http://www.w3.org/2000/svg">
  <g transform="matrix(1.0, 0.0, 0.0, 1.0, 23.25, -87.8)">
    <path d="M-22.6 129.05 Q-21.85 117.05 -14.1 105.85 -8.75 98.0 5.6 94.85 10.05 93.85 14.9 93.4 L74.5 88.3 96.3 90.65 126.75 91.8 Q134.05 90.85 154.0 93.55 L172.55 96.45 191.7 100.4 206.65 90.35 227.6 91.75 Q251.55 93.6 266.7 95.75 281.0 97.8 304.9 98.0 328.05 98.15 329.15 98.4 L355.65 100.0 Q377.45 100.9 384.4 100.65 L406.95 99.85 Q423.65 99.5 426.75 101.5 429.8 103.45 442.5 104.55 L454.6 105.15 501.95 105.55 506.15 109.6 Q503.15 110.15 493.75 112.7 L472.95 118.0 Q459.9 121.4 452.95 125.15 457.95 125.15 469.75 127.5 L488.15 130.95 Q482.65 132.55 475.6 133.65 L469.95 134.45 451.0 136.3 Q427.0 138.6 413.85 144.7 419.8 147.4 430.25 148.75 L447.05 151.1 Q433.15 156.5 410.05 157.7 389.15 158.75 372.05 156.0 365.55 154.95 354.4 150.4 L334.55 141.95 Q309.3 131.8 296.95 136.7 302.1 142.45 312.0 145.5 L304.35 145.25 303.35 145.05 300.1 143.95 288.6 139.1 Q283.75 137.5 275.65 135.95 L262.55 133.35 Q245.35 129.2 223.1 131.6 200.65 134.1 184.95 142.05 L200.35 145.1 216.05 148.1 179.4 150.85 Q159.05 151.85 142.5 150.05 L122.45 148.55 102.3 147.55 82.4 146.75 Q68.5 145.55 65.4 141.5 69.1 139.75 73.55 138.65 78.95 137.2 85.5 136.7 L107.35 136.05 129.0 134.95 Q140.5 133.35 148.45 128.5 130.95 127.35 107.35 128.65 L66.2 131.45 Q52.0 132.35 28.3 129.55 1.65 126.35 -9.15 126.35 L12.3 117.1 Q5.55 119.75 -5.05 121.05 -16.7 122.4 -22.0 124.55 L-22.6 129.05 M187.95 133.95 Q178.8 135.9 126.3 137.5 L73.55 138.65 126.3 137.5 Q178.8 135.9 187.95 133.95 M475.6 133.65 L451.25 132.0 424.25 131.0 404.6 130.3 384.85 128.75 371.05 126.1 Q362.45 124.6 357.65 125.85 362.45 124.6 371.05 126.1 L384.85 128.75 404.6 130.3 424.25 131.0 451.25 132.0 475.6 133.65 M413.85 143.45 L377.5 141.85 Q362.6 140.35 341.5 136.8 L328.1 134.2 Q319.1 132.35 313.1 131.6 294.85 129.3 285.0 133.8 294.85 129.3 313.1 131.6 319.1 132.35 328.1 134.2 L341.5 136.8 Q362.6 140.35 377.5 141.85 L413.85 143.45 M81.5 118.5 Q72.7 118.85 49.2 121.85 27.9 123.85 17.8 119.9 27.9 123.85 49.2 121.85 72.7 118.85 81.5 118.5" fill="#ffffff" fill-opacity="0.0" fill-rule="evenodd" stroke="none"/>
    <path d="M-22.6 129.05 L-22.0 124.55 Q-16.7 122.4 -5.05 121.05 5.55 119.75 12.3 117.1 L-9.15 126.35 Q1.65 126.35 28.3 129.55 52.0 132.35 66.2 131.45 L107.35 128.65 Q130.95 127.35 148.45 128.5 140.5 133.35 129.0 134.95 L107.35 136.05 85.5 136.7 Q78.95 137.2 73.55 138.65 69.1 139.75 65.4 141.5 68.5 145.55 82.4 146.75 L102.3 147.55 122.45 148.55 142.5 150.05 Q159.05 151.85 179.4 150.85 L216.05 148.1 200.35 145.1 184.95 142.05 Q200.65 134.1 223.1 131.6 245.35 129.2 262.55 133.35 L275.65 135.95 Q283.75 137.5 288.6 139.1 L300.1 143.95 303.35 145.05 304.35 145.25 312.0 145.5 Q302.1 142.45 296.95 136.7 309.3 131.8 334.55 141.95 L354.4 150.4 Q365.55 154.95 372.05 156.0 389.15 158.75 410.05 157.7 433.15 156.5 447.05 151.1 L430.25 148.75 Q419.8 147.4 413.85 144.7 427.0 138.6 451.0 136.3 L469.95 134.45 475.6 133.65 Q482.65 132.55 488.15 130.95 L469.75 127.5 Q457.95 125.15 452.95 125.15 459.9 121.4 472.95 118.0 L493.75 112.7 Q503.15 110.15 506.15 109.6 516.05 119.95 519.3 131.45 L519.25 155.45 518.25 158.7 518.05 159.4 517.65 160.5 Q513.35 172.65 505.15 181.15 L418.3 178.65 394.25 175.75 Q369.4 172.95 365.35 173.65 362.2 174.2 344.9 171.85 326.95 169.45 321.7 169.95 L288.5 171.65 Q261.95 173.15 257.45 175.1 250.1 178.25 168.7 168.1 L139.0 165.75 Q111.45 163.7 105.0 162.55 98.35 161.35 80.05 162.45 L58.2 163.65 Q53.05 163.4 41.6 165.2 30.5 166.85 27.05 168.4 24.3 169.6 11.5 167.3 L-0.8 164.75 -19.35 146.85 -20.05 145.4 -20.8 143.45 -22.35 137.3 -22.75 133.35 -22.6 129.05 M250.0 152.9 Q265.35 148.95 276.9 147.15 290.8 144.95 303.35 145.05 290.8 144.95 276.9 147.15 265.35 148.95 250.0 152.9 M478.0 133.95 L475.6 133.65 478.0 133.95 M73.55 138.65 L65.3 138.65 73.55 138.65" fill="#000000" fill-opacity="0.2" fill-rule="evenodd" stroke="none"/>
    <path d="M-19.35 146.85 L-20.8 143.45 -20.05 145.4 -19.35 146.85" fill="#d0d2d3" fill-rule="evenodd" stroke="none"/>
    <path d="M506.15 109.6 L501.95 105.55 454.6 105.15 442.5 104.55 Q429.8 103.45 426.75 101.5 423.65 99.5 406.95 99.85 L384.4 100.65 Q377.45 100.9 355.65 100.0 L329.15 98.4 Q328.05 98.15 304.9 98.0 281.0 97.8 266.7 95.75 251.55 93.6 227.6 91.75 L206.65 90.35 191.7 100.4 172.55 96.45 154.0 93.55 Q134.05 90.85 126.75 91.8 L96.3 90.65 74.5 88.3 14.9 93.4 Q10.05 93.85 5.6 94.85 -8.75 98.0 -14.1 105.85 -21.85 117.05 -22.6 129.05 L-22.75 133.35 -22.35 137.3 -20.8 143.45 -19.35 146.85 -0.8 164.75 11.5 167.3 Q24.3 169.6 27.05 168.4 30.5 166.85 41.6 165.2 53.05 163.4 58.2 163.65 L80.05 162.45 Q98.35 161.35 105.0 162.55 111.45 163.7 139.0 165.75 L168.7 168.1 Q250.1 178.25 257.45 175.1 261.95 173.15 288.5 171.65 L321.7 169.95 Q326.95 169.45 344.9 171.85 362.2 174.2 365.35 173.65 369.4 172.95 394.25 175.75 L418.3 178.65 505.15 181.15 Q513.35 172.65 517.65 160.5 L518.05 159.4 518.25 158.7 519.25 155.45 519.3 131.45 Q516.05 119.95 506.15 109.6" fill="none" stroke="#000000" stroke-linecap="round" stroke-linejoin="miter-clip" stroke-miterlimit="4.0" stroke-width="1.0"/>
    <path d="M73.55 138.65 L126.3 137.5 Q178.8 135.9 187.95 133.95 M304.35 145.25 L303.35 145.05 Q290.8 144.95 276.9 147.15 265.35 148.95 250.0 152.9 M357.65 125.85 Q362.45 124.6 371.05 126.1 L384.85 128.75 404.6 130.3 424.25 131.0 451.25 132.0 475.6 133.65 478.0 133.95 M285.0 133.8 Q294.85 129.3 313.1 131.6 319.1 132.35 328.1 134.2 L341.5 136.8 Q362.6 140.35 377.5 141.85 L413.85 143.45 M65.3 138.65 L73.55 138.65 M17.8 119.9 Q27.9 123.85 49.2 121.85 72.7 118.85 81.5 118.5" fill="none" stroke="#000000" stroke-linecap="round" stroke-linejoin="miter-clip" stroke-miterlimit="4.0" stroke-opacity="0.6" stroke-width="1.0"/>
  </g>
</svg>
