<?xml version="1.0" encoding="UTF-8" standalone="no"?>
<svg xmlns:xlink="http://www.w3.org/1999/xlink" height="29.2px" width="28.3px" xmlns="http://www.w3.org/2000/svg">
  <g transform="matrix(1.0, 0.0, 0.0, 1.0, 1.05, 1.1)">
    <path d="M25.55 8.75 L21.0 13.6 24.8 17.15 Q25.5 17.8 25.5 18.75 25.55 19.7 24.9 20.35 24.35 20.9 23.5 21.0 22.5 21.15 21.75 20.4 L17.95 16.85 17.25 17.6 21.35 21.5 Q22.05 22.15 22.05 23.05 22.1 24.0 21.45 24.65 20.95 25.2 20.05 25.35 19.05 25.45 18.3 24.75 L14.15 20.85 9.0 26.3 Q8.35 27.0 7.45 27.0 6.55 27.05 5.85 26.4 5.25 25.85 5.15 25.05 5.05 24.0 5.75 23.25 L10.9 17.8 10.15 17.1 4.7 22.85 Q4.05 23.55 3.15 23.55 2.2 23.6 1.55 22.95 0.95 22.4 0.85 21.6 0.7 20.55 1.45 19.8 L6.95 14.05 0.7 8.15 Q0.05 7.5 0.0 6.6 0.0 5.7 0.6 5.0 1.25 4.35 2.2 4.3 3.1 4.3 3.8 4.9 L10.0 10.75 10.7 10.0 4.15 3.85 Q3.5 3.2 3.45 2.3 3.45 1.4 4.05 0.7 4.7 0.05 5.65 0.0 6.6 -0.05 7.25 0.6 L13.75 6.75 18.0 2.25 Q18.65 1.6 19.55 1.55 20.5 1.5 21.15 2.15 21.85 2.8 21.85 3.7 21.9 4.65 21.25 5.3 L17.0 9.8 17.75 10.55 22.3 5.7 Q22.95 5.05 23.85 5.0 24.8 4.95 25.45 5.6 26.15 6.25 26.15 7.15 26.2 8.1 25.55 8.75 M13.75 6.75 L10.7 10.0 13.75 6.75 M13.25 13.8 L14.0 14.55 14.7 13.8 13.95 13.05 13.25 13.8 10.15 17.1 13.25 13.8 M17.95 16.85 L21.0 13.6 17.95 16.85 M17.75 10.55 L14.7 13.8 17.75 10.55 M13.95 13.05 L17.0 9.8 13.95 13.05 M10.0 10.75 L6.95 14.05 10.0 10.75 M14.15 20.85 L17.25 17.6 14.15 20.85 M14.0 14.55 L10.9 17.8 14.0 14.55" fill="#ffffff" fill-opacity="0.0" fill-rule="evenodd" stroke="none"/>
    <path d="M25.55 8.75 L21.0 13.6 24.8 17.15 Q25.5 17.8 25.5 18.75 25.55 19.7 24.9 20.35 24.35 20.9 23.5 21.0 22.5 21.15 21.75 20.4 L17.95 16.85 17.25 17.6 21.35 21.5 Q22.05 22.15 22.05 23.05 22.1 24.0 21.45 24.65 20.95 25.2 20.05 25.35 19.05 25.45 18.3 24.75 L14.15 20.85 9.0 26.3 Q8.35 27.0 7.45 27.0 6.55 27.05 5.85 26.4 5.25 25.85 5.15 25.05 5.05 24.0 5.75 23.25 L10.9 17.8 10.15 17.1 4.7 22.85 Q4.05 23.55 3.15 23.55 2.2 23.6 1.55 22.95 0.95 22.4 0.85 21.6 0.7 20.55 1.45 19.8 L6.95 14.05 0.7 8.15 Q0.05 7.5 0.0 6.6 0.0 5.7 0.6 5.0 1.25 4.35 2.2 4.3 3.1 4.3 3.8 4.9 L10.0 10.75 10.7 10.0 4.15 3.85 Q3.5 3.2 3.45 2.3 3.45 1.4 4.05 0.7 4.7 0.05 5.65 0.0 6.6 -0.05 7.25 0.6 L13.75 6.75 18.0 2.25 Q18.65 1.6 19.55 1.55 20.5 1.5 21.15 2.15 21.85 2.8 21.85 3.7 21.9 4.65 21.25 5.3 L17.0 9.8 17.75 10.55 22.3 5.7 Q22.95 5.05 23.85 5.0 24.8 4.95 25.45 5.6 26.15 6.25 26.15 7.15 26.2 8.1 25.55 8.75" fill="none" stroke="#000000" stroke-linecap="round" stroke-linejoin="miter-clip" stroke-miterlimit="4.0" stroke-opacity="0.6" stroke-width="1.0"/>
    <path d="M10.7 10.0 L13.75 6.75 M13.25 13.8 L14.0 14.55 14.7 13.8 13.95 13.05 13.25 13.8 10.15 17.1 M10.9 17.8 L14.0 14.55 M17.25 17.6 L14.15 20.85 M6.95 14.05 L10.0 10.75 M17.0 9.8 L13.95 13.05 M14.7 13.8 L17.75 10.55 M21.0 13.6 L17.95 16.85" fill="none" stroke="#000000" stroke-linecap="round" stroke-linejoin="miter-clip" stroke-miterlimit="4.0" stroke-opacity="0.4" stroke-width="1.0"/>
  </g>
</svg>
