<?xml version="1.0" encoding="UTF-8" standalone="no"?>
<svg xmlns:xlink="http://www.w3.org/1999/xlink" height="796.65px" width="917.1px" xmlns="http://www.w3.org/2000/svg">
  <g transform="matrix(1.0, 0.0, 0.0, 1.0, 0.5, 0.5)">
    <path d="M553.35 77.0 L554.1 79.45 Q554.9 82.1 555.45 82.9 559.6 89.15 569.95 90.85 L603.25 96.45 606.35 109.6 Q610.35 123.05 614.4 124.15 616.55 124.75 620.75 121.95 L628.95 115.5 Q640.45 106.05 644.85 107.55 L654.0 110.2 Q661.2 112.2 666.05 114.1 680.95 119.95 680.95 126.95 680.95 129.35 680.0 135.95 679.2 141.75 679.55 144.65 680.75 153.65 694.8 151.9 702.2 150.95 708.65 155.85 712.65 158.95 717.0 165.25 L724.85 177.25 Q728.15 181.45 730.85 179.65 734.85 177.0 739.3 171.4 743.1 166.65 749.05 154.05 L749.3 153.4 Q752.25 142.7 752.7 138.95 753.45 132.95 753.05 126.4 760.6 145.1 768.3 166.25 776.1 187.45 794.5 239.35 809.05 278.95 819.65 298.95 840.55 338.5 869.1 398.35 884.85 431.45 893.6 450.6 941.85 617.0 886.7 703.5 L880.75 711.3 Q874.7 718.95 870.75 722.95 847.6 734.9 835.7 740.7 813.75 751.35 797.8 755.4 769.0 762.7 735.35 761.75 721.85 761.4 707.35 759.65 690.9 757.7 673.15 754.0 620.25 742.55 594.35 737.45 550.1 728.75 515.2 725.5 L475.05 723.5 433.75 721.75 Q385.15 718.05 357.2 700.7 337.85 687.5 329.25 682.25 314.4 673.2 298.5 669.6 L259.4 662.3 Q235.85 657.75 221.5 651.5 206.4 644.85 194.75 630.95 182.4 613.9 173.8 604.4 172.95 603.45 166.0 598.3 L158.4 592.65 Q149.3 585.0 152.05 575.95 155.25 565.85 166.1 574.95 171.8 579.75 180.1 589.95 187.75 597.85 201.45 615.3 214.1 629.85 227.05 634.85 239.75 639.8 266.75 644.7 294.95 649.8 307.4 654.2 321.25 659.1 342.6 669.7 L379.1 687.7 Q400.2 697.5 416.35 701.85 436.6 707.3 453.9 705.8 453.9 690.3 431.85 675.75 428.3 673.4 409.1 663.55 393.8 655.75 386.6 652.25 357.95 638.4 349.25 628.4 336.7 614.05 351.05 597.4 357.9 589.5 379.95 584.7 399.5 580.4 412.7 581.55 423.9 582.55 436.15 588.0 437.3 588.5 457.0 598.8 475.8 608.6 479.05 609.8 491.65 614.5 503.9 614.4 499.9 607.0 472.95 583.15 446.5 559.75 437.0 554.6 422.15 546.6 393.65 542.95 L370.9 540.0 Q357.9 538.05 348.95 535.15 345.55 534.05 336.8 529.2 329.1 524.95 327.65 523.85 315.9 515.5 310.0 507.05 303.2 497.4 306.95 491.6 311.3 484.75 329.55 484.45 340.8 484.25 354.0 489.05 L354.1 489.1 357.9 490.6 Q364.2 493.25 377.05 499.55 391.45 506.7 400.35 509.5 413.55 513.7 425.5 512.5 421.75 501.35 393.3 487.05 386.45 483.6 370.3 476.25 356.65 470.05 351.8 467.25 343.85 462.7 331.85 458.4 L310.35 451.35 Q283.35 442.55 271.6 432.5 289.5 430.95 310.5 432.8 334.55 434.95 348.35 440.85 354.65 443.5 363.45 451.95 L378.55 466.65 Q387.45 474.7 394.6 477.2 403.7 480.35 412.5 475.7 410.55 465.4 396.6 454.65 380.1 443.55 373.9 437.55 362.45 426.55 354.05 413.3 345.7 400.15 341.05 385.15 348.25 391.7 358.35 396.1 371.0 401.55 387.85 403.55 408.35 406.05 440.2 403.7 435.85 401.05 426.4 397.95 L417.3 395.15 Q394.95 388.8 388.35 386.4 372.05 380.4 364.0 372.65 353.95 362.95 354.9 349.25 361.8 350.4 375.25 356.7 393.9 365.4 398.95 367.25 412.8 372.35 422.6 371.55 434.8 370.55 442.95 360.45 L412.45 352.25 Q395.3 347.2 383.5 341.55 352.65 326.75 340.0 299.0 338.2 294.95 332.7 285.8 L323.7 270.3 Q313.15 250.6 315.4 239.75 315.95 237.1 321.85 229.9 327.5 223.1 331.7 219.5 L339.2 212.5 Q340.55 211.05 343.7 205.5 347.5 198.85 348.0 195.75 349.3 188.05 347.1 174.6 L346.0 168.35 Q348.65 141.2 350.2 132.35 351.9 122.15 354.05 115.85 359.75 99.35 374.45 89.0 L376.65 85.9 Q379.0 82.2 380.8 78.2 386.45 65.75 384.4 56.15 382.45 48.55 381.3 45.3 379.0 41.0 375.05 38.35 369.85 34.85 359.95 33.65 L344.0 31.95 Q335.85 30.4 332.45 25.8 344.7 43.2 341.65 64.1 338.7 83.7 323.75 99.95 321.2 102.7 310.75 110.25 306.25 113.45 303.65 124.15 301.8 131.65 304.15 141.35 L312.0 174.6 Q313.25 182.25 312.4 187.35 310.4 199.0 292.55 209.45 287.9 212.2 260.95 224.65 243.05 233.0 232.15 243.6 227.35 248.25 217.5 255.75 207.35 263.5 204.25 264.75 191.45 269.85 168.1 266.1 170.8 281.1 158.55 297.4 154.1 303.2 146.85 310.55 L135.0 322.35 Q125.35 332.4 118.05 335.7 112.2 338.4 105.25 337.55 L91.3 335.05 Q81.65 333.65 71.1 335.4 73.85 335.05 75.25 341.8 76.6 348.45 76.4 359.65 75.9 385.15 69.0 410.7 60.9 440.65 48.1 450.45 33.2 461.95 14.55 442.7 2.3 397.6 0.35 337.8 -0.8 301.55 1.75 256.9 L5.9 195.4 Q6.4 186.3 10.9 174.6 17.6 157.4 32.7 135.55 50.65 109.35 81.25 75.65 117.8 35.4 153.85 3.05 182.0 0.15 209.1 0.0 267.6 -0.35 318.9 12.3 325.45 13.9 349.9 22.7 372.95 31.0 375.75 32.6 422.9 25.35 472.95 39.7 L472.95 39.8 Q485.5 43.4 520.45 60.4 538.0 68.95 553.35 77.0 M778.05 545.85 Q764.45 489.75 752.8 485.4 741.15 481.05 711.45 421.0 L706.25 452.2 Q701.4 485.5 703.15 495.9 L703.15 551.4 Q712.2 570.45 704.5 585.45 L692.05 609.65 704.5 585.45 Q712.2 570.45 703.15 551.4 L703.15 495.9 Q701.4 485.5 706.25 452.2 L711.45 421.0 Q694.3 375.25 705.9 329.45 701.35 336.2 690.3 355.75 678.15 377.1 678.15 379.4 678.15 377.1 690.3 355.75 701.35 336.2 705.9 329.45 694.3 375.25 711.45 421.0 741.15 481.05 752.8 485.4 764.45 489.75 778.05 545.85 M761.4 667.9 Q760.4 630.35 729.9 607.6 L730.85 584.7 Q724.6 566.65 718.05 546.55 704.85 506.3 703.15 495.9 704.85 506.3 718.05 546.55 724.6 566.65 730.85 584.7 L729.9 607.6 Q760.4 630.35 761.4 667.9 M815.4 403.8 Q817.15 407.0 834.05 426.3 850.95 445.55 855.55 461.35 860.1 477.1 861.25 493.15 860.1 477.1 855.55 461.35 850.95 445.55 834.05 426.3 817.15 407.0 815.4 403.8 813.2 399.75 810.65 390.35 808.0 380.55 805.4 375.3 L789.15 351.65 Q760.55 301.8 725.3 285.05 719.05 270.5 712.5 253.15 699.35 218.6 697.6 204.6 L697.55 203.9 Q683.25 253.9 680.95 257.35 677.5 262.55 673.3 282.65 L669.85 301.7 673.3 282.65 Q677.5 262.55 680.95 257.35 683.25 253.9 697.55 203.9 696.65 194.75 702.8 183.75 705.6 178.7 710.4 172.7 713.75 168.6 717.0 165.25 713.75 168.6 710.4 172.7 705.6 178.7 702.8 183.75 696.65 194.75 697.55 203.9 L697.6 204.6 Q699.35 218.6 712.5 253.15 719.05 270.5 725.3 285.05 760.55 301.8 789.15 351.65 L805.4 375.3 Q808.0 380.55 810.65 390.35 813.2 399.75 815.4 403.8 836.95 397.65 858.5 426.55 836.95 397.65 815.4 403.8 M705.9 329.45 L725.3 285.05 705.9 329.45 M816.9 531.95 Q813.45 512.55 797.8 494.95 782.15 477.3 790.05 442.1 797.9 406.85 796.1 393.25 L789.15 351.65 796.1 393.25 Q797.9 406.85 790.05 442.1 782.15 477.3 797.8 494.95 813.45 512.55 816.9 531.95 M728.1 648.5 L729.9 607.6 728.1 648.5 M375.75 32.6 L378.85 39.2 381.3 45.3 378.85 39.2 375.75 32.6 M557.0 321.15 Q538.5 318.85 497.85 306.8 L460.85 295.25 Q447.9 287.85 431.7 276.3 L429.65 274.8 Q398.85 252.5 383.15 232.35 L380.35 229.3 Q372.95 222.5 357.3 217.2 351.2 215.15 344.7 213.65 L339.2 212.5 344.7 213.65 Q351.2 215.15 357.3 217.2 372.95 222.5 380.35 229.3 388.7 235.95 404.25 238.3 419.75 240.6 435.45 238.35 L483.5 232.35 512.65 228.65 483.5 232.35 435.45 238.35 Q419.75 240.6 404.25 238.3 388.7 235.95 380.35 229.3 L383.15 232.35 Q398.85 252.5 429.65 274.8 L431.7 276.3 Q447.9 287.85 460.85 295.25 L497.85 306.8 Q538.5 318.85 557.0 321.15 M538.5 402.5 L460.85 391.4 Q449.75 394.2 435.9 396.5 L426.4 397.95 435.9 396.5 Q449.75 394.2 460.85 391.4 L538.5 402.5 M490.45 513.5 Q488.15 501.95 476.1 475.1 L464.55 450.6 Q455.3 448.75 442.35 444.6 416.45 436.25 397.95 424.7 377.5 411.95 358.35 396.1 377.5 411.95 397.95 424.7 416.45 436.25 442.35 444.6 455.3 448.75 464.55 450.6 L476.1 475.1 Q488.15 501.95 490.45 513.5 M490.45 332.25 L429.65 274.8 490.45 332.25 M479.35 531.95 L390.55 513.5 359.6 492.7 359.45 492.6 354.1 489.1 359.45 492.6 359.6 492.7 390.55 513.5 479.35 531.95 M386.9 528.3 L359.45 492.6 386.9 528.3" fill="#ffffff" fill-opacity="0.0" fill-rule="evenodd" stroke="none"/>
    <path d="M829.15 758.95 L771.55 787.15 Q752.4 795.2 707.35 794.1 697.05 793.8 646.2 788.35 587.4 782.0 556.95 776.75 L529.75 771.9 375.35 738.5 324.85 724.85 Q271.05 710.15 254.6 704.9 234.55 697.25 211.8 687.9 166.4 669.2 153.1 660.55 124.95 642.25 105.3 617.05 91.1 598.8 73.45 565.25 L50.6 526.65 35.85 503.45 29.7 493.05 Q27.8 489.65 20.95 465.8 14.1 442.2 14.55 442.7 33.2 461.95 48.1 450.45 60.9 440.65 69.0 410.7 75.9 385.15 76.4 359.65 76.6 348.45 75.25 341.8 73.85 335.05 71.1 335.4 81.65 333.65 91.3 335.05 L105.25 337.55 Q112.2 338.4 118.05 335.7 125.35 332.4 135.0 322.35 L146.85 310.55 Q154.1 303.2 158.55 297.4 170.8 281.1 168.1 266.1 191.45 269.85 204.25 264.75 207.35 263.5 217.5 255.75 227.35 248.25 232.15 243.6 243.05 233.0 260.95 224.65 287.9 212.2 292.55 209.45 310.4 199.0 312.4 187.35 313.25 182.25 312.0 174.6 L304.15 141.35 Q301.8 131.65 303.65 124.15 306.25 113.45 310.75 110.25 321.2 102.7 323.75 99.95 338.7 83.7 341.65 64.1 344.7 43.2 332.45 25.8 335.85 30.4 344.0 31.95 L359.95 33.65 Q369.85 34.85 375.05 38.35 379.0 41.0 381.3 45.3 382.45 48.55 384.4 56.15 386.45 65.75 380.8 78.2 379.0 82.2 376.65 85.9 L374.45 89.0 Q359.75 99.35 354.05 115.85 351.9 122.15 350.2 132.35 348.65 141.2 346.0 168.35 L345.15 174.6 Q343.45 185.25 339.9 193.45 335.2 204.35 326.3 212.45 L322.95 215.35 Q315.6 221.25 305.1 226.65 295.15 231.75 275.9 239.75 245.9 252.2 229.65 268.45 222.6 275.5 213.45 287.6 L197.25 309.75 184.4 326.9 Q170.7 343.6 158.95 351.2 152.35 355.5 142.0 360.05 L120.55 369.2 Q109.1 374.3 102.3 388.45 96.95 399.4 93.75 417.75 91.95 427.65 89.35 447.75 86.95 463.45 83.55 469.1 79.1 476.45 69.65 484.05 63.95 488.6 35.85 503.45 63.95 488.6 69.65 484.05 79.1 476.45 83.55 469.1 86.95 463.45 89.35 447.75 91.95 427.65 93.75 417.75 96.95 399.4 102.3 388.45 109.1 374.3 120.55 369.2 L142.0 360.05 Q152.35 355.5 158.95 351.2 170.7 343.6 184.4 326.9 L197.25 309.75 213.45 287.6 Q222.6 275.5 229.65 268.45 245.9 252.2 275.9 239.75 295.15 231.75 305.1 226.65 315.6 221.25 322.95 215.35 L326.3 212.45 Q335.2 204.35 339.9 193.45 343.45 185.25 345.15 174.6 L346.0 168.35 347.1 174.6 Q349.3 188.05 348.0 195.75 347.5 198.85 343.7 205.5 340.55 211.05 339.2 212.5 L331.7 219.5 Q327.5 223.1 321.85 229.9 315.95 237.1 315.4 239.75 313.15 250.6 323.7 270.3 L332.7 285.8 Q338.2 294.95 340.0 299.0 352.65 326.75 383.5 341.55 395.3 347.2 412.45 352.25 L442.95 360.45 Q434.8 370.55 422.6 371.55 412.8 372.35 398.95 367.25 393.9 365.4 375.25 356.7 361.8 350.4 354.9 349.25 353.95 362.95 364.0 372.65 372.05 380.4 388.35 386.4 394.95 388.8 417.3 395.15 L426.4 397.95 Q405.65 400.7 394.25 398.8 380.35 396.45 350.8 377.1 341.8 371.15 331.85 364.0 L324.0 358.15 Q321.2 347.05 300.4 322.1 L289.45 309.55 Q276.45 295.55 268.5 291.55 259.25 286.95 215.75 309.55 199.9 317.75 184.4 326.9 199.9 317.75 215.75 309.55 259.25 286.95 268.5 291.55 276.45 295.55 289.45 309.55 L300.4 322.1 Q321.2 347.05 324.0 358.15 L331.85 364.0 Q341.8 371.15 350.8 377.1 380.35 396.45 394.25 398.8 405.65 400.7 426.4 397.95 435.85 401.05 440.2 403.7 408.35 406.05 387.85 403.55 371.0 401.55 358.35 396.1 L351.25 390.05 Q326.6 368.55 324.0 358.15 326.6 368.55 351.25 390.05 L358.35 396.1 Q348.25 391.7 341.05 385.15 345.7 400.15 354.05 413.3 362.45 426.55 373.9 437.55 380.1 443.55 396.6 454.65 410.55 465.4 412.5 475.7 403.7 480.35 394.6 477.2 387.45 474.7 378.55 466.65 L363.45 451.95 Q354.65 443.5 348.35 440.85 334.55 434.95 310.5 432.8 289.5 430.95 271.6 432.5 283.35 442.55 310.35 451.35 L331.85 458.4 Q343.85 462.7 351.8 467.25 356.65 470.05 370.3 476.25 386.45 483.6 393.3 487.05 421.75 501.35 425.5 512.5 413.55 513.7 400.35 509.5 391.45 506.7 377.05 499.55 364.2 493.25 357.9 490.6 L354.1 489.1 354.0 489.05 Q340.8 484.25 329.55 484.45 311.3 484.75 306.95 491.6 303.2 497.4 310.0 507.05 315.9 515.5 327.65 523.85 329.1 524.95 336.8 529.2 345.55 534.05 348.95 535.15 357.9 538.05 370.9 540.0 L393.65 542.95 Q422.15 546.6 437.0 554.6 446.5 559.75 472.95 583.15 499.9 607.0 503.9 614.4 491.65 614.5 479.05 609.8 475.8 608.6 457.0 598.8 437.3 588.5 436.15 588.0 423.9 582.55 412.7 581.55 399.5 580.4 379.95 584.7 357.9 589.5 351.05 597.4 336.7 614.05 349.25 628.4 357.95 638.4 386.6 652.25 393.8 655.75 409.1 663.55 428.3 673.4 431.85 675.75 453.9 690.3 453.9 705.8 436.6 707.3 416.35 701.85 400.2 697.5 379.1 687.7 L342.6 669.7 Q321.25 659.1 307.4 654.2 294.95 649.8 266.75 644.7 239.75 639.8 227.05 634.85 214.1 629.85 201.45 615.3 187.75 597.85 180.1 589.95 171.8 579.75 166.1 574.95 155.25 565.85 152.05 575.95 149.3 585.0 158.4 592.65 L166.0 598.3 Q172.95 603.45 173.8 604.4 182.4 613.9 194.75 630.95 206.4 644.85 221.5 651.5 235.85 657.75 259.4 662.3 L298.5 669.6 Q314.4 673.2 329.25 682.25 337.85 687.5 357.2 700.7 385.15 718.05 433.75 721.75 L475.05 723.5 515.2 725.5 Q550.1 728.75 594.35 737.45 620.25 742.55 673.15 754.0 690.9 757.7 707.35 759.65 721.85 761.4 735.35 761.75 769.0 762.7 797.8 755.4 813.75 751.35 835.7 740.7 847.6 734.9 870.75 722.95 863.0 730.7 852.1 740.2 839.95 750.7 829.15 758.95 M335.1 613.35 L342.5 561.55 235.2 443.2 273.6 454.75 Q314.75 467.25 320.3 469.1 326.7 471.2 354.1 489.1 326.7 471.2 320.3 469.1 314.75 467.25 273.6 454.75 L235.2 443.2 342.5 561.55 335.1 613.35 M327.7 402.5 Q313.4 393.25 306.45 352.6 L289.45 309.55 306.45 352.6 Q313.4 393.25 327.7 402.5 M339.2 212.5 Q331.3 212.9 323.35 215.2 L322.95 215.35 323.35 215.2 Q331.3 212.9 339.2 212.5 M294.4 413.6 L257.4 409.9 234.3 413.6 Q208.25 417.3 194.5 417.3 180.6 417.3 162.15 409.9 159.75 408.95 152.9 405.65 L146.55 402.55 135.8 389.55 120.55 369.2 135.8 389.55 146.55 402.55 152.9 405.65 Q159.75 408.95 162.15 409.9 180.6 417.3 194.5 417.3 208.25 417.3 234.3 413.6 L257.4 409.9 294.4 413.6 M113.15 495.0 Q106.25 488.1 84.95 485.3 L69.65 484.05 84.95 485.3 Q106.25 488.1 113.15 495.0 167.7 521.5 172.35 524.55 173.05 525.05 204.05 534.95 235.9 545.1 242.6 546.75 235.9 545.1 204.05 534.95 173.05 525.05 172.35 524.55 167.7 521.5 113.15 495.0 115.5 497.35 126.5 511.7 L137.95 526.65 Q151.4 542.85 161.25 546.75 172.8 551.4 194.05 582.85 204.4 598.05 213.0 613.35 L257.4 621.7 Q303.5 630.9 312.9 635.55 328.5 643.4 401.65 683.6 328.5 643.4 312.9 635.55 303.5 630.9 257.4 621.7 L213.0 613.35 Q204.4 598.05 194.05 582.85 172.8 551.4 161.25 546.75 151.4 542.85 137.95 526.65 L126.5 511.7 Q115.5 497.35 113.15 495.0 M235.2 443.2 Q222.25 441.35 207.0 437.65 176.5 430.25 164.95 421.0 157.05 414.7 146.55 402.55 157.05 414.7 164.95 421.0 176.5 430.25 207.0 437.65 222.25 441.35 235.2 443.2" fill="#000000" fill-opacity="0.2" fill-rule="evenodd" stroke="none"/>
    <path d="M870.75 722.95 L873.25 721.6 Q855.4 742.55 829.15 758.95 839.95 750.7 852.1 740.2 863.0 730.7 870.75 722.95" fill="#949494" fill-rule="evenodd" stroke="none"/>
    <path d="M472.95 39.7 L472.95 39.8" fill="none" stroke="#000000" stroke-linecap="round" stroke-linejoin="miter-clip" stroke-miterlimit="4.0" stroke-opacity="0.6" stroke-width="1.0"/>
    <path d="M753.05 126.4 Q760.6 145.1 768.3 166.25 776.1 187.45 794.5 239.35 809.05 278.95 819.65 298.95 840.55 338.5 869.1 398.35 884.85 431.45 893.6 450.6 941.85 617.0 886.7 703.5 L880.75 711.3 Q874.7 718.95 870.75 722.95 863.0 730.7 852.1 740.2 839.95 750.7 829.15 758.95 L771.55 787.15 Q752.4 795.2 707.35 794.1 697.05 793.8 646.2 788.35 587.4 782.0 556.95 776.75 L529.75 771.9 375.35 738.5 324.85 724.85 Q271.05 710.15 254.6 704.9 234.55 697.25 211.8 687.9 166.4 669.2 153.1 660.55 124.95 642.25 105.3 617.05 91.1 598.8 73.45 565.25 L50.6 526.65 35.85 503.45 29.7 493.05 Q27.8 489.65 20.95 465.8 14.1 442.2 14.55 442.7 2.3 397.6 0.35 337.8 -0.8 301.55 1.75 256.9 L5.9 195.4 Q6.4 186.3 10.9 174.6 17.6 157.4 32.7 135.55 50.65 109.35 81.25 75.65 117.8 35.4 153.85 3.05 182.0 0.15 209.1 0.0 267.6 -0.35 318.9 12.3 325.45 13.9 349.9 22.7 372.95 31.0 375.75 32.6 422.9 25.35 472.95 39.7 M472.95 39.8 Q485.5 43.4 520.45 60.4 538.0 68.95 553.35 77.0" fill="none" stroke="#000000" stroke-linecap="round" stroke-linejoin="miter-clip" stroke-miterlimit="4.0" stroke-width="1.0"/>
    <path d="M553.35 77.0 L554.1 79.45 Q554.9 82.1 555.45 82.9 559.6 89.15 569.95 90.85 L603.25 96.45 606.35 109.6 Q610.35 123.05 614.4 124.15 616.55 124.75 620.75 121.95 L628.95 115.5 Q640.45 106.05 644.85 107.55 L654.0 110.2 Q661.2 112.2 666.05 114.1 680.95 119.95 680.95 126.95 680.95 129.35 680.0 135.95 679.2 141.75 679.55 144.65 680.75 153.65 694.8 151.9 702.2 150.95 708.65 155.85 712.65 158.95 717.0 165.25 L724.85 177.25 Q728.15 181.45 730.85 179.65 734.85 177.0 739.3 171.4 743.1 166.65 749.05 154.05 L749.3 153.4 Q752.25 142.7 752.7 138.95 753.45 132.95 753.05 126.4 M669.85 301.7 L673.3 282.65 Q677.5 262.55 680.95 257.35 683.25 253.9 697.55 203.9 696.65 194.75 702.8 183.75 705.6 178.7 710.4 172.7 713.75 168.6 717.0 165.25 M697.55 203.9 L697.6 204.6 Q699.35 218.6 712.5 253.15 719.05 270.5 725.3 285.05 760.55 301.8 789.15 351.65 L805.4 375.3 Q808.0 380.55 810.65 390.35 813.2 399.75 815.4 403.8 836.95 397.65 858.5 426.55 M692.05 609.65 L704.5 585.45 Q712.2 570.45 703.15 551.4 L703.15 495.9 Q701.4 485.5 706.25 452.2 L711.45 421.0 Q694.3 375.25 705.9 329.45 701.35 336.2 690.3 355.75 678.15 377.1 678.15 379.4 M789.15 351.65 L796.1 393.25 Q797.9 406.85 790.05 442.1 782.15 477.3 797.8 494.95 813.45 512.55 816.9 531.95 M725.3 285.05 L705.9 329.45 M861.25 493.15 Q860.1 477.1 855.55 461.35 850.95 445.55 834.05 426.3 817.15 407.0 815.4 403.8 M703.15 495.9 Q704.85 506.3 718.05 546.55 724.6 566.65 730.85 584.7 L729.9 607.6 Q760.4 630.35 761.4 667.9 M711.45 421.0 Q741.15 481.05 752.8 485.4 764.45 489.75 778.05 545.85 M729.9 607.6 L728.1 648.5 M381.3 45.3 L378.85 39.2 375.75 32.6 M346.0 168.35 Q348.65 141.2 350.2 132.35 351.9 122.15 354.05 115.85 359.75 99.35 374.45 89.0 L376.65 85.9 Q379.0 82.2 380.8 78.2 386.45 65.75 384.4 56.15 382.45 48.55 381.3 45.3 M35.85 503.45 Q63.95 488.6 69.65 484.05 79.1 476.45 83.55 469.1 86.95 463.45 89.35 447.75 91.95 427.65 93.75 417.75 96.95 399.4 102.3 388.45 109.1 374.3 120.55 369.2 L142.0 360.05 Q152.35 355.5 158.95 351.2 170.7 343.6 184.4 326.9 L197.25 309.75 213.45 287.6 Q222.6 275.5 229.65 268.45 245.9 252.2 275.9 239.75 295.15 231.75 305.1 226.65 315.6 221.25 322.95 215.35 L326.3 212.45 Q335.2 204.35 339.9 193.45 343.45 185.25 345.15 174.6 L346.0 168.35 M339.2 212.5 L344.7 213.65 Q351.2 215.15 357.3 217.2 372.95 222.5 380.35 229.3 388.7 235.95 404.25 238.3 419.75 240.6 435.45 238.35 L483.5 232.35 512.65 228.65 M380.35 229.3 L383.15 232.35 Q398.85 252.5 429.65 274.8 L431.7 276.3 Q447.9 287.85 460.85 295.25 L497.85 306.8 Q538.5 318.85 557.0 321.15 M426.4 397.95 L435.9 396.5 Q449.75 394.2 460.85 391.4 L538.5 402.5 M184.4 326.9 Q199.9 317.75 215.75 309.55 259.25 286.95 268.5 291.55 276.45 295.55 289.45 309.55 L300.4 322.1 Q321.2 347.05 324.0 358.15 L331.85 364.0 Q341.8 371.15 350.8 377.1 380.35 396.45 394.25 398.8 405.65 400.7 426.4 397.95 M358.35 396.1 Q377.5 411.95 397.95 424.7 416.45 436.25 442.35 444.6 455.3 448.75 464.55 450.6 L476.1 475.1 Q488.15 501.95 490.45 513.5 M358.35 396.1 L351.25 390.05 Q326.6 368.55 324.0 358.15 M429.65 274.8 L490.45 332.25 M120.55 369.2 L135.8 389.55 146.55 402.55 152.9 405.65 Q159.75 408.95 162.15 409.9 180.6 417.3 194.5 417.3 208.25 417.3 234.3 413.6 L257.4 409.9 294.4 413.6 M322.95 215.35 L323.35 215.2 Q331.3 212.9 339.2 212.5 M289.45 309.55 L306.45 352.6 Q313.4 393.25 327.7 402.5 M354.1 489.1 Q326.7 471.2 320.3 469.1 314.75 467.25 273.6 454.75 L235.2 443.2 342.5 561.55 335.1 613.35 M354.1 489.1 L359.45 492.6 359.6 492.7 390.55 513.5 479.35 531.95 M146.55 402.55 Q157.05 414.7 164.95 421.0 176.5 430.25 207.0 437.65 222.25 441.35 235.2 443.2 M242.6 546.75 Q235.9 545.1 204.05 534.95 173.05 525.05 172.35 524.55 167.7 521.5 113.15 495.0 115.5 497.35 126.5 511.7 L137.95 526.65 Q151.4 542.85 161.25 546.75 172.8 551.4 194.05 582.85 204.4 598.05 213.0 613.35 L257.4 621.7 Q303.5 630.9 312.9 635.55 328.5 643.4 401.65 683.6 M69.65 484.05 L84.95 485.3 Q106.25 488.1 113.15 495.0 M359.45 492.6 L386.9 528.3" fill="none" stroke="#000000" stroke-linecap="round" stroke-linejoin="miter-clip" stroke-miterlimit="4.0" stroke-opacity="0.2" stroke-width="1.0"/>
  </g>
</svg>
