<?xml version="1.0" encoding="UTF-8" standalone="no"?>
<svg xmlns:xlink="http://www.w3.org/1999/xlink" height="17.5px" width="17.5px" xmlns="http://www.w3.org/2000/svg">
  <g transform="matrix(1.0, 0.0, 0.0, 1.0, 7.7, 9.05)">
    <path d="M6.9 -6.1 Q9.3 -3.7 9.3 -0.3 9.3 3.15 6.9 5.55 4.5 7.95 1.05 7.95 -2.35 7.95 -4.75 5.55 -7.2 3.15 -7.2 -0.3 -7.2 -3.7 -4.75 -6.1 -2.35 -8.55 1.05 -8.55 4.5 -8.55 6.9 -6.1" fill="#ffffff" fill-opacity="0.0" fill-rule="evenodd" stroke="none"/>
    <path d="M6.9 -6.1 Q9.3 -3.7 9.3 -0.3 9.3 3.15 6.9 5.55 4.5 7.95 1.05 7.95 -2.35 7.95 -4.75 5.55 -7.2 3.15 -7.2 -0.3 -7.2 -3.7 -4.75 -6.1 -2.35 -8.55 1.05 -8.55 4.5 -8.55 6.9 -6.1 Z" fill="none" stroke="#000000" stroke-linecap="butt" stroke-linejoin="miter-clip" stroke-miterlimit="4.0" stroke-width="1.0"/>
  </g>
</svg>
