<?xml version="1.0" encoding="UTF-8" standalone="no"?>
<svg xmlns:xlink="http://www.w3.org/1999/xlink" height="28.6px" width="38.8px" xmlns="http://www.w3.org/2000/svg">
  <g transform="matrix(1.0, 0.0, 0.0, 1.0, 19.45, 14.65)">
    <path d="M18.85 -0.45 Q18.85 2.35 17.35 4.9 15.9 7.35 13.3 9.25 10.7 11.15 7.3 12.2 3.8 13.25 -0.05 13.25 -3.9 13.25 -7.4 12.2 -10.8 11.15 -13.4 9.25 -16.0 7.35 -17.45 4.9 -18.95 2.35 -18.95 -0.45 -18.95 -3.25 -17.45 -5.8 -16.0 -8.25 -13.4 -10.15 -10.8 -12.05 -7.4 -13.1 -3.9 -14.15 -0.05 -14.15 3.8 -14.15 7.3 -13.1 10.7 -12.05 13.3 -10.15 15.9 -8.25 17.35 -5.8 18.85 -3.25 18.85 -0.45" fill="#ffffff" fill-opacity="0.0" fill-rule="evenodd" stroke="none"/>
    <path d="M18.85 -0.45 Q18.85 2.35 17.35 4.9 15.9 7.35 13.3 9.25 10.7 11.15 7.3 12.2 3.8 13.25 -0.05 13.25 -3.9 13.25 -7.4 12.2 -10.8 11.15 -13.4 9.25 -16.0 7.35 -17.45 4.9 -18.95 2.35 -18.95 -0.45 -18.95 -3.25 -17.45 -5.8 -16.0 -8.25 -13.4 -10.15 -10.8 -12.05 -7.4 -13.1 -3.9 -14.15 -0.05 -14.15 3.8 -14.15 7.3 -13.1 10.7 -12.05 13.3 -10.15 15.9 -8.25 17.35 -5.8 18.85 -3.25 18.85 -0.45 Z" fill="none" stroke="#000000" stroke-linecap="butt" stroke-linejoin="miter-clip" stroke-miterlimit="4.0" stroke-width="1.0"/>
    <path d="M5.05 -11.15 L8.0 -9.75 Q11.1 -7.9 12.05 -5.85 L12.8 -3.85 13.2 -2.45 13.85 -0.95 14.05 0.6 13.95 0.5 13.6 0.1 12.6 -1.6 12.3 -2.4 11.1 -5.1 Q8.9 -9.05 5.05 -11.15 M7.4 -2.35 L6.35 -4.2 Q3.85 -8.45 -0.25 -9.4 L-2.8 -9.65 Q-3.65 -9.35 -5.0 -8.1 L-6.3 -6.95 -7.45 -6.2 -9.45 -6.35 -10.6 -6.95 -12.0 -7.7 Q-13.25 -8.3 -11.25 -10.45 L-9.05 -12.45 Q-12.25 -9.1 -10.45 -8.95 L-8.4 -9.3 -6.15 -10.0 -3.25 -10.2 -2.6 -9.9 -2.45 -9.8 -0.9 -10.0 Q2.4 -10.25 4.35 -9.35 6.4 -8.4 7.6 -6.8 L8.5 -5.3 9.25 -3.6 10.1 -1.9 7.9 -5.0 Q6.05 -7.25 4.25 -8.2 L5.55 -6.0 6.7 -3.75 8.45 -0.85 7.4 -2.35 M2.65 -2.7 L4.9 -1.75 8.3 1.2 Q11.2 4.05 12.45 6.8 L12.65 7.5 12.45 7.3 12.15 6.7 Q11.2 5.1 8.8 3.15 L6.35 1.35 2.0 -1.45 Q2.2 -0.15 2.65 0.35 L4.0 1.3 6.1 2.65 4.6 2.35 5.5 3.4 5.45 3.35 Q3.7 1.95 1.95 0.8 L1.45 -0.4 0.35 -1.95 -0.4 -2.6 -2.0 -3.6 -0.65 -3.5 2.65 -2.7 M2.15 -12.45 L0.45 -12.55 -0.9 -12.8 -3.05 -13.5 -4.0 -13.8 Q-0.8 -14.2 2.75 -13.1 4.5 -12.6 5.6 -11.95 L2.15 -12.45 M13.55 -6.55 L13.4 -6.65 Q12.95 -7.6 11.55 -8.7 L10.7 -9.3 Q9.2 -11.1 8.9 -12.0 8.75 -12.4 8.9 -12.45 L10.35 -10.6 Q12.1 -8.55 13.2 -7.8 L13.3 -7.7 13.55 -6.55 M10.4 -1.45 L10.65 -1.1 13.0 1.85 13.5 2.5 Q13.8 4.5 13.4 6.15 L12.8 4.35 12.2 2.55 Q11.5 0.45 10.7 -0.95 L10.4 -1.45 M-18.9 -1.5 Q-18.7 -3.45 -17.75 -5.3 -16.6 -7.55 -14.45 -9.35 L-15.95 -4.55 Q-16.85 -1.15 -16.45 -0.6 -15.95 0.05 -14.85 -3.25 -14.25 -4.85 -13.8 -6.65 -13.4 -5.15 -13.15 -3.5 -12.65 -0.15 -13.25 0.8 L-14.85 3.0 Q-15.7 4.15 -15.8 4.75 L-15.55 6.3 -14.85 8.0 -16.3 6.5 -16.3 5.6 -16.25 4.65 -15.95 3.6 -15.55 2.65 -14.95 0.6 -14.65 -0.55 -14.45 -1.75 -15.1 -0.85 -16.0 0.3 Q-17.2 1.65 -18.05 1.1 -18.7 0.7 -18.8 -0.35 L-18.8 -2.05 -18.75 -2.4 -18.9 -1.5 M1.4 3.6 L0.4 1.45 Q-1.0 -1.05 -2.6 -1.85 L-1.5 0.0 -1.85 -0.35 Q-1.45 0.35 -1.05 2.0 L-0.8 3.55 -0.6 3.65 -0.55 5.0 -1.55 2.8 Q-2.1 1.5 -2.6 0.8 L-2.85 0.45 Q-3.75 -1.3 -4.8 -1.95 -6.25 -2.85 -7.7 -1.4 L-6.1 -0.4 Q-5.3 0.1 -4.75 0.85 L-3.3 3.05 Q-2.45 4.45 -2.4 5.5 L-3.2 3.65 Q-3.65 2.7 -4.4 2.05 -4.6 1.85 -5.15 1.6 -5.75 1.25 -6.25 1.1 -7.7 0.6 -7.45 1.5 L-6.95 2.2 -6.45 2.85 -6.3 3.05 -7.25 2.15 Q-8.45 1.3 -9.7 1.4 -9.7 -0.7 -8.8 -2.15 -7.95 -3.55 -6.6 -3.9 -5.25 -4.25 -3.95 -3.35 -3.2 -2.8 -2.55 -1.85 L-1.95 -1.55 -0.5 -0.25 Q0.8 1.3 1.4 3.6 M18.0 3.6 L17.95 3.7 18.0 3.6 M16.8 5.7 L16.65 5.95 16.8 5.7 M-5.0 -9.4 Q-6.6 -9.1 -7.7 -8.45 -8.8 -7.8 -9.8 -7.75 L-10.55 -7.85 -9.9 -7.2 -7.7 -7.3 Q-6.85 -7.7 -5.3 -8.75 -4.2 -9.55 -3.55 -9.6 L-5.0 -9.4 M-14.85 4.0 L-14.3 5.95 -13.8 7.2 Q-11.85 9.1 -10.9 10.75 -12.5 9.9 -13.85 8.85 -14.5 7.2 -14.75 5.65 L-14.85 4.0 M-12.65 2.25 Q-11.1 0.6 -11.25 -1.95 L-11.15 0.2 Q-11.25 2.55 -12.45 3.6 -13.6 4.65 -12.1 6.1 L-10.35 7.35 -11.2 7.15 -13.0 6.45 Q-15.35 5.2 -14.2 3.4 -13.4 3.1 -12.65 2.25" fill="#000000" fill-opacity="0.09803922" fill-rule="evenodd" stroke="none"/>
    <path d="M8.65 -10.65 L9.95 -9.8 10.7 -9.3 11.55 -8.7 Q12.95 -7.6 13.4 -6.65 L13.55 -6.55 13.3 -7.7 12.8 -9.0 11.1 -11.55 Q14.7 -9.65 16.75 -6.8 18.85 -3.85 18.85 -0.5 18.85 1.6 18.0 3.6 L17.95 3.7 17.55 4.45 16.8 5.7 16.65 5.95 14.1 8.6 Q11.85 10.45 8.9 11.6 L7.7 12.05 7.2 12.2 7.0 12.25 2.4 13.1 Q3.05 12.0 3.4 10.25 3.75 8.6 3.7 6.75 3.65 4.9 3.2 3.4 2.75 1.75 1.9 0.85 L4.8 4.4 7.05 8.5 Q7.15 7.1 6.5 5.45 5.65 4.0 4.2 2.7 L1.95 0.8 Q3.7 1.95 5.45 3.35 L5.5 3.4 4.6 2.35 6.1 2.65 7.15 3.15 9.5 4.6 11.25 6.1 12.45 7.3 12.65 7.5 12.85 7.75 12.45 6.8 Q11.2 4.05 8.3 1.2 L4.9 -1.75 2.0 -3.9 5.8 -1.6 9.6 0.65 8.45 -0.85 6.7 -3.75 5.55 -6.0 4.25 -8.2 Q6.05 -7.25 7.9 -5.0 L10.1 -1.9 10.4 -1.45 10.7 -0.95 Q11.5 0.45 12.2 2.55 L12.8 4.35 13.4 6.15 Q13.8 4.5 13.5 2.5 L13.05 0.6 Q12.3 -2.05 10.85 -4.55 L12.45 -1.85 12.6 -1.6 13.6 0.1 14.05 0.75 14.05 0.6 13.85 -0.95 Q13.4 -3.4 12.35 -5.45 11.15 -7.85 8.65 -10.65 M2.1 5.65 L2.75 9.4 Q2.85 11.45 2.25 13.15 L-0.05 13.2 -5.25 12.7 Q-7.75 12.15 -9.95 11.2 L-9.4 10.35 Q-9.1 9.55 -9.5 8.35 L-9.85 7.35 -10.05 6.3 -10.05 5.85 -9.5 7.3 -9.0 7.85 -8.35 8.35 Q-7.2 8.95 -6.1 8.85 -4.8 8.7 -4.8 7.45 -4.75 6.55 -4.95 5.75 L-5.1 5.25 -5.65 3.95 -5.7 3.85 -6.3 3.05 -6.45 2.85 -6.95 2.2 -7.3 1.7 Q-5.7 1.35 -4.05 3.15 L-2.85 4.8 Q-2.35 5.65 -2.15 6.4 -1.95 4.15 -3.45 1.95 L-4.9 0.05 -6.4 -1.7 Q-4.15 -1.35 -2.85 0.45 L-2.6 0.8 Q-2.1 1.5 -1.55 2.8 L-0.55 5.0 -0.6 3.65 -0.8 3.55 -1.05 2.0 Q-1.45 0.35 -1.85 -0.35 L-1.5 0.0 -2.6 -1.85 Q-1.0 -1.05 0.4 1.45 L1.4 3.6 2.1 5.65 M-5.0 -9.4 L-3.55 -9.6 Q-4.2 -9.55 -5.3 -8.75 -6.85 -7.7 -7.7 -7.3 L-9.9 -7.2 -10.55 -7.85 -9.8 -7.75 Q-8.8 -7.8 -7.7 -8.45 -6.6 -9.1 -5.0 -9.4 M-18.9 -1.5 L-18.75 -2.4 -18.8 -2.05 -18.8 -0.35 Q-18.7 0.7 -18.05 1.1 -17.2 1.65 -16.0 0.3 L-15.1 -0.85 -14.45 -1.75 -14.65 -0.55 -14.95 0.6 -15.55 2.65 -15.95 3.6 -16.25 4.65 -16.3 5.6 -16.3 6.5 -16.45 6.3 -17.85 4.1 -18.25 3.2 Q-18.95 1.4 -18.95 -0.5 L-18.95 -0.6 -18.9 -1.5" fill="#000000" fill-opacity="0.2" fill-rule="evenodd" stroke="none"/>
    <path d="M-6.3 3.05 L-5.7 3.85 -5.55 4.15 -5.1 5.25 -4.95 5.75 Q-4.75 6.55 -4.8 7.45 -4.8 8.7 -6.1 8.85 -7.2 8.95 -8.35 8.35 L-9.0 7.85 -9.5 7.3 -10.05 5.85 -10.15 4.4 -9.75 1.4 -9.7 1.4 Q-8.45 1.3 -7.25 2.15 L-6.3 3.05" fill="#000000" fill-opacity="0.4" fill-rule="evenodd" stroke="none"/>
    <path d="M8.7 -7.75 Q10.7 -5.75 11.9 -2.4 L10.15 -5.25 Q8.2 -8.25 6.95 -9.05 7.7 -8.7 8.7 -7.75 M7.25 -1.35 L4.75 -2.85 Q1.85 -4.3 -0.05 -4.35 L2.45 -4.15 Q5.3 -3.5 7.25 -1.35 M13.6 -4.95 L14.2 -3.85 Q14.95 -2.2 15.15 -0.6 L14.45 -2.7 13.6 -4.95 M14.55 5.05 L14.05 1.25 Q14.75 1.7 14.7 3.1 L14.6 4.2 14.55 5.05 M0.8 9.05 Q0.1 10.5 -2.95 10.9 -2.1 10.6 -1.2 10.1 0.6 9.0 0.85 7.7 L0.95 8.1 0.8 9.05 M3.0 7.2 L2.2 3.5 Q1.1 -0.5 -0.2 -2.05 L1.3 0.0 Q2.85 2.9 3.0 7.2 M5.7 11.85 L6.25 9.4 Q6.5 6.4 5.0 4.0 5.9 5.15 6.4 6.7 7.4 9.8 5.7 11.85 M-3.7 -7.75 Q-5.4 -5.35 -8.0 -4.15 -9.3 -3.6 -10.25 -3.5 -8.9 -3.8 -6.15 -5.8 L-3.7 -7.75 M-11.75 -2.1 Q-11.65 0.85 -13.55 2.25 -12.95 1.55 -12.5 0.3 -11.6 -2.15 -12.25 -4.75 -11.85 -3.55 -11.75 -2.1 M-1.6 7.75 L-2.0 4.85 Q-2.5 1.65 -3.05 0.5 -2.45 1.65 -2.0 3.15 -1.05 6.15 -1.6 7.75 M-12.0 7.3 Q-11.2 7.35 -10.6 7.85 -9.4 8.85 -10.25 11.0 -10.05 10.3 -10.2 9.5 -10.45 7.9 -12.0 7.3" fill="#ffffff" fill-opacity="0.6" fill-rule="evenodd" stroke="none"/>
    <path d="M-2.05 -13.35 L-0.3 -12.8 1.95 -12.5 2.05 -12.5 Q3.05 -12.35 5.45 -10.95 L8.35 -8.95 Q9.8 -7.55 10.85 -5.55 11.8 -3.9 12.55 -1.7 12.8 -0.9 13.85 0.4 14.75 1.6 14.95 2.45 M5.55 -11.85 Q7.15 -11.3 8.8 -10.35 L11.65 -8.3 M10.55 -9.6 Q9.7 -10.7 8.85 -12.55 M2.05 -8.65 Q3.3 -8.05 4.15 -7.2 L5.55 -5.5 M7.2 -2.8 L8.1 -1.25 9.3 0.1 9.4 0.2 Q8.6 0.0 7.8 -1.05 L6.55 -2.7 Q6.0 -3.4 5.1 -3.9 L3.35 -4.7 Q1.5 -5.55 -0.05 -5.65 M10.55 1.5 Q11.95 3.65 12.55 5.3 13.3 7.4 13.0 9.45 M2.0 -1.4 L3.75 -0.4 6.85 1.65 Q9.35 3.35 11.4 5.55 12.25 6.5 12.5 7.65 12.75 8.85 12.15 9.9 M11.7 -8.25 L12.4 -7.45 14.2 -5.25 15.15 -3.15 15.7 -0.85 16.5 1.3 17.85 3.6 M16.6 6.0 L15.65 4.25 M6.45 5.25 L4.4 2.85 1.95 0.85 M3.5 7.95 Q3.55 11.45 1.7 13.1 M2.3 9.25 Q2.1 10.15 1.0 11.2 L-0.85 12.65 -3.35 12.85 -4.5 12.25 Q-4.65 12.1 -5.65 11.4 L-8.1 9.65 Q-9.6 8.45 -9.85 7.35 -10.15 6.1 -10.05 4.15 L-9.8 1.85 M-6.65 -3.9 L-6.35 -3.95 -6.25 -3.95 -5.8 -4.0 M-2.1 -0.95 Q-1.45 0.35 -1.05 1.95 L-0.75 3.3 M6.9 12.3 Q7.9 10.95 7.65 8.7 M-4.6 -13.7 L-3.8 -13.7 M-11.9 -3.9 L-12.3 -5.1 -12.75 -6.3 -13.25 -7.35 -13.4 -7.9 -13.4 -8.1 M-13.7 -6.2 Q-14.3 -2.6 -14.85 -0.6 -15.75 2.8 -17.2 4.85 M-12.35 -8.05 L-10.85 -7.95 M-9.35 -7.95 L-7.6 -8.55 -5.85 -9.25 -3.1 -9.75 -1.1 -9.65 M-13.05 -10.5 L-13.35 -8.35 M-2.4 -7.4 L-3.2 -7.15 M-3.1 -1.8 Q-3.65 -2.65 -4.4 -3.1 L-5.75 -3.65 -7.4 -3.5 M-6.0 0.1 L-5.1 0.7 Q-4.0 1.8 -3.3 3.25 -2.5 4.8 -2.4 6.2 -2.3 6.95 -2.55 7.8 L-2.9 9.25 M-0.8 6.6 L-0.75 6.1 -0.7 5.6 M-5.5 4.35 Q-4.75 5.85 -4.8 7.15 -4.8 8.55 -5.75 9.0 M-9.85 11.2 Q-9.2 9.75 -9.4 8.7 M-11.5 6.9 Q-14.15 6.3 -14.5 4.85 -14.65 4.1 -14.25 3.45 M-14.55 5.6 Q-14.15 7.7 -13.35 9.3 M-6.55 8.8 L-8.45 8.2 Q-9.55 7.65 -9.55 6.8 M-13.8 3.15 L-12.65 2.1 Q-11.45 0.85 -11.4 -0.85" fill="none" stroke="#000000" stroke-linecap="butt" stroke-linejoin="miter-clip" stroke-miterlimit="4.0" stroke-opacity="0.4" stroke-width="1.0"/>
    <path d="M2.6 -12.45 L5.55 -11.85 M6.3 -4.35 L7.2 -2.8 M-3.25 -3.85 Q-1.0 -3.4 0.35 -2.0 1.3 -1.05 1.8 0.4 M15.65 4.25 L14.95 2.45 M-9.75 0.9 L-9.55 -0.4 M-8.85 -2.1 L-7.4 -3.5 M-6.95 -3.75 L-6.65 -3.9 M-3.8 -3.3 Q-2.85 -2.5 -2.1 -0.95 M1.45 5.95 Q2.6 7.9 2.3 9.25 M7.65 8.7 Q7.4 6.7 6.45 5.25 M-3.8 -13.7 L-2.05 -13.35 M-10.85 -7.95 L-9.35 -7.95 M-0.3 -9.55 Q0.85 -9.3 2.05 -8.65 M-13.35 -8.35 L-13.4 -8.1 M-11.4 -0.85 L-11.4 -1.9 M-11.5 -2.4 L-11.9 -3.9 M-4.35 -6.1 L-5.85 -4.75 M-3.05 -5.5 L-0.05 -5.65 M-0.4 -7.8 L-2.4 -7.4 M-7.35 -0.55 L-6.0 0.1 M-1.75 8.65 Q-1.0 7.85 -0.8 6.6 M-2.3 -0.2 L-3.1 -1.8 M-0.7 4.3 L-0.7 5.6 M-7.35 2.05 Q-6.3 2.8 -5.5 4.35 M-4.05 9.3 L-2.9 9.25 M-9.4 8.7 Q-9.65 7.3 -11.5 6.9 M-15.2 4.1 L-14.85 3.85" fill="none" stroke="#000000" stroke-linecap="butt" stroke-linejoin="miter-clip" stroke-miterlimit="4.0" stroke-opacity="0.4" stroke-width="1.0"/>
    <path d="M-3.2 -7.15 L-1.1 -9.65 M-11.4 -1.9 Q-8.85 -2.35 -5.85 -4.75 M-14.25 3.45 L-14.85 3.85" fill="none" stroke="#000000" stroke-linecap="round" stroke-linejoin="miter-clip" stroke-miterlimit="4.0" stroke-opacity="0.4" stroke-width="1.0"/>
    <path d="M2.05 -12.5 L2.6 -12.45 M11.65 -8.3 L10.55 -9.6 M5.55 -5.5 L6.3 -4.35 M9.4 0.2 L10.55 1.5 M-5.8 -4.0 L-3.25 -3.85 M0.35 -2.0 L2.0 -1.4 M11.65 -8.3 L11.7 -8.25 M1.95 0.85 Q3.45 4.9 3.5 7.95 M1.95 0.85 L1.8 0.4 M-9.8 1.85 L-9.75 0.9 M-9.55 -0.4 L-8.85 -2.1 M-7.4 -3.5 L-6.95 -3.75 M-5.8 -4.0 Q-4.75 -4.05 -3.8 -3.3 M-0.75 3.3 Q0.5 4.25 1.45 5.95 M-13.4 -7.9 L-13.7 -6.2 M-1.1 -9.65 L-0.3 -9.55 M-11.4 -1.9 L-11.5 -2.4 M-3.2 -7.15 L-4.35 -6.1 M-5.85 -4.75 L-3.05 -5.5 M5.55 -5.5 Q2.85 -8.0 -0.4 -7.8 M-9.55 -0.4 L-7.35 -0.55 M-2.9 9.25 Q-2.2 9.1 -1.75 8.65 M-0.7 5.6 Q-0.9 2.85 -2.3 -0.2 M-0.75 3.3 L-0.7 4.3 M-9.8 1.85 Q-8.6 1.2 -7.35 2.05 M-5.75 9.0 L-4.05 9.3 M-14.85 3.85 L-14.55 5.6 M-5.75 9.0 L-6.55 8.8 M-14.25 3.45 L-13.8 3.15" fill="none" stroke="#000000" stroke-linecap="round" stroke-linejoin="miter-clip" stroke-miterlimit="4.0" stroke-opacity="0.4" stroke-width="1.0"/>
  </g>
</svg>
