<?xml version="1.0" encoding="UTF-8" standalone="no"?>
<svg xmlns:xlink="http://www.w3.org/1999/xlink" height="346.1px" width="677.85px" xmlns="http://www.w3.org/2000/svg">
  <g transform="matrix(1.0, 0.0, 0.0, 1.0, 338.9, 172.4)">
    <path d="M-122.25 -13.7 Q-105.65 -11.35 -87.5 -11.95 -54.6 -13.1 -19.6 -24.05 14.15 -34.7 45.95 -53.25 77.6 -71.65 103.1 -95.55 128.0 -118.8 146.3 -148.9 M-149.35 0.85 Q-125.6 20.2 -121.15 21.7 -91.9 31.65 -57.05 30.45 -24.15 29.3 10.85 18.35 44.65 7.7 76.45 -10.85 108.05 -29.25 133.6 -53.15 182.8 -99.15 206.15 -171.9 M-202.8 29.65 L-188.3 39.45 Q-154.85 62.3 -149.0 63.95 -113.85 73.9 -72.0 72.7 -32.45 71.55 9.6 60.6 50.2 49.95 88.4 31.4 126.4 13.0 157.1 -10.9 217.45 -57.85 245.45 -132.65 251.95 -150.05 256.7 -168.8 M-278.45 69.55 Q-268.7 69.05 -258.15 66.95 -256.35 66.6 -219.55 88.8 -181.25 111.9 -174.55 113.6 -134.25 123.65 -86.35 122.45 -41.0 121.3 7.1 110.2 53.6 99.45 97.35 80.7 140.9 62.1 176.05 37.95 245.15 -9.5 277.25 -85.1 291.8 -119.5 298.5 -159.0 M-338.4 98.55 Q-305.75 126.0 -252.55 115.75 -250.65 115.4 -211.9 137.8 -171.6 161.1 -164.55 162.8 -122.15 173.0 -71.65 171.75 -23.95 170.6 26.7 159.35 75.6 148.55 121.7 129.6 167.55 110.8 204.55 86.45 277.3 38.55 311.05 -37.8 334.25 -90.25 338.45 -154.5" fill="none" stroke="#000000" stroke-linecap="round" stroke-linejoin="miter-clip" stroke-miterlimit="4.0" stroke-opacity="0.6" stroke-width="1.0"/>
  </g>
</svg>
