<?xml version="1.0" encoding="UTF-8" standalone="no"?>
<svg xmlns:xlink="http://www.w3.org/1999/xlink" height="357.9px" width="1027.4px" xmlns="http://www.w3.org/2000/svg">
  <g transform="matrix(1.0, 0.0, 0.0, 1.0, 0.0, 0.45)">
    <path d="M7.85 0.05 L12.95 0.3 85.0 4.15 Q140.3 7.35 152.85 9.0 L173.95 13.0 180.1 14.3 Q196.65 17.8 217.55 19.55 229.15 20.5 247.2 23.85 L279.8 30.25 Q321.45 38.45 340.95 37.6 361.55 36.7 373.3 40.65 L387.1 45.65 Q397.65 49.4 410.15 52.65 436.6 59.5 458.15 61.15 465.7 61.7 491.4 61.7 506.3 61.7 522.45 64.5 532.1 66.2 558.05 72.0 L561.05 72.65 572.7 75.25 Q602.5 81.95 628.0 82.95 642.65 83.5 667.5 82.75 676.95 82.75 709.65 88.65 745.45 95.15 747.25 99.3 748.9 103.15 758.8 107.45 768.15 111.55 782.05 114.95 813.8 122.6 836.05 120.4 L855.45 117.65 870.65 115.5 Q885.55 114.3 900.75 121.9 L920.4 132.1 Q933.4 138.85 941.95 142.75 967.65 154.45 982.0 153.5 L1001.5 152.25 Q1015.15 151.55 1026.9 151.7 L1026.9 253.8 1010.05 251.55 Q1000.15 250.1 994.95 247.8 981.55 241.85 958.85 226.75 935.05 210.9 923.1 205.2 900.3 194.35 863.35 190.25 821.95 187.1 801.85 183.6 786.4 180.9 763.25 170.65 755.0 167.0 748.25 164.2 733.55 158.15 725.7 156.05 692.65 147.25 637.65 137.45 585.4 128.1 561.05 123.15 L558.05 122.55 550.7 120.95 Q494.85 107.25 467.4 101.0 419.5 90.1 382.55 87.25 L343.4 84.9 Q320.5 82.55 305.9 74.8 300.15 71.75 292.85 65.95 L280.75 56.25 Q266.1 45.15 252.1 45.1 L208.05 48.15 Q183.75 49.55 173.95 47.8 169.4 47.0 167.95 45.5 170.6 48.4 173.95 50.65 178.5 53.7 184.35 55.45 192.3 57.85 204.65 58.25 L226.1 58.45 227.0 58.5 221.05 58.95 Q210.25 60.0 196.5 62.7 L183.95 65.2 188.95 65.1 201.25 65.7 Q220.8 67.7 232.1 75.25 241.15 81.25 257.95 93.55 271.25 102.55 276.25 101.3 281.25 100.05 294.3 102.6 300.85 103.85 306.35 105.35 314.25 107.7 330.15 104.85 349.9 101.3 354.45 101.3 L402.6 103.2 Q425.75 104.6 446.2 108.6 471.15 113.45 488.3 121.45 474.9 118.15 450.7 118.35 420.75 118.6 412.65 117.8 L376.9 114.4 Q355.3 113.3 341.05 117.3 359.35 124.85 385.05 127.0 L388.7 127.3 384.6 127.4 409.65 132.95 425.0 135.85 Q446.3 139.6 464.85 141.45 486.4 143.6 497.8 152.65 L500.7 155.25 Q503.45 157.95 506.9 163.15 509.4 167.0 511.0 167.55 L519.75 170.65 Q528.15 173.45 537.6 175.85 547.4 178.3 558.05 180.2 579.0 183.95 603.3 185.6 623.5 187.0 634.9 190.0 644.0 192.35 650.15 196.65 653.8 199.15 660.55 204.8 667.6 210.0 677.5 213.7 697.6 221.2 735.7 222.2 754.75 222.7 769.8 221.7 L740.45 214.7 Q709.9 207.65 703.6 207.65 697.65 207.65 685.3 200.9 657.35 185.55 653.45 183.6 649.65 181.7 645.45 180.05 676.6 187.05 695.45 201.0 688.85 185.6 666.45 178.85 L647.3 174.0 Q635.8 171.15 629.35 168.05 L598.15 151.9 596.25 150.9 Q578.9 141.95 565.75 137.35 L574.6 139.3 583.15 141.4 Q591.6 143.45 618.7 152.45 L620.45 153.05 Q641.0 159.8 654.45 161.55 L682.35 163.75 Q699.15 164.95 709.6 167.95 720.15 171.0 733.4 180.5 747.6 190.65 755.8 193.6 768.75 198.35 790.6 199.65 L808.55 200.55 826.0 202.1 855.05 204.95 884.2 207.6 Q897.05 209.3 910.65 217.65 914.1 219.75 922.2 225.35 929.7 230.55 934.35 233.3 949.4 242.2 976.9 250.0 1004.25 257.75 1026.9 259.65 L1026.9 332.6 Q1004.4 320.3 994.45 315.3 976.05 306.05 961.0 300.4 944.0 294.05 916.9 292.75 L894.5 291.9 872.2 290.0 Q856.8 287.8 842.65 283.25 827.0 278.25 814.95 270.95 811.25 268.7 798.85 258.3 789.3 250.3 781.4 247.75 768.85 243.7 755.0 242.95 L730.15 243.7 705.4 245.95 Q691.0 246.95 679.55 245.8 672.1 245.05 660.75 242.1 646.8 238.5 642.1 237.65 656.85 250.1 679.7 254.2 692.5 256.5 722.35 257.1 750.55 257.65 764.7 260.8 787.05 265.75 801.45 279.8 807.35 285.55 814.25 295.55 820.75 303.2 831.9 305.55 838.45 306.9 852.05 306.75 865.65 306.6 872.15 307.95 927.1 319.3 951.85 334.25 930.8 328.0 919.45 325.3 899.4 320.55 886.15 322.0 879.7 322.7 870.9 324.75 L856.95 327.95 Q840.85 331.05 826.45 326.6 813.9 322.7 795.7 314.05 786.5 307.75 779.85 304.35 771.35 300.1 758.85 297.55 748.05 293.6 738.2 291.85 726.9 289.85 715.7 290.4 722.65 292.3 736.45 294.15 L758.85 297.55 Q767.0 300.5 777.4 305.35 L795.7 314.05 809.5 323.75 Q817.6 329.3 824.0 332.6 834.15 337.85 847.1 340.0 855.6 341.4 870.85 342.0 L894.7 343.55 Q908.0 345.2 918.3 349.55 925.65 352.7 934.15 356.95 L701.7 356.95 680.45 343.75 Q667.9 336.1 657.95 332.05 640.8 325.1 615.85 322.85 L572.65 319.95 558.05 318.45 540.8 316.1 Q523.0 312.55 511.0 304.05 506.05 300.55 499.65 294.9 492.05 288.25 489.9 286.55 478.7 277.8 464.85 275.85 L451.95 275.0 439.05 274.7 Q423.85 273.9 414.6 267.4 410.25 264.35 406.0 258.85 L398.95 248.45 Q390.0 234.6 382.15 230.2 370.25 223.5 353.2 220.6 343.5 218.95 321.8 217.5 300.9 216.15 290.2 214.1 273.05 210.85 260.8 203.55 L315.35 206.3 Q342.65 209.25 369.0 218.25 381.25 222.45 395.4 223.65 406.9 224.65 422.7 223.8 437.4 223.05 451.55 226.05 457.95 227.4 480.15 233.95 471.4 216.85 446.25 210.2 429.75 205.8 402.9 205.65 379.1 205.5 359.6 200.25 339.5 194.85 320.35 183.1 308.7 175.95 293.1 172.55 284.55 170.7 264.9 168.55 246.8 166.55 237.3 164.1 222.85 160.3 212.25 152.65 L211.55 152.15 Q194.7 139.7 173.95 134.9 L169.3 133.95 Q169.55 132.4 169.4 130.9 168.5 119.9 150.2 115.85 L134.3 113.15 Q124.55 111.6 119.75 109.85 105.55 104.65 82.85 93.95 L84.7 92.25 Q89.5 88.2 95.65 85.75 105.0 82.0 78.15 68.1 70.6 64.15 55.2 57.0 40.9 50.3 36.95 48.15 26.25 42.3 29.05 35.35 30.7 31.25 36.95 27.1 38.35 26.15 30.35 22.0 19.2 16.55 13.45 13.55 3.2 8.15 0.8 5.05 -2.4 1.05 6.85 0.0 L7.85 0.05 M833.8 159.7 Q842.45 162.8 852.1 163.5 858.95 164.0 887.95 164.0 907.05 164.0 922.3 167.55 938.6 171.3 962.2 181.85 L964.9 183.05 Q975.0 187.6 982.5 191.6 977.55 187.65 971.8 183.65 965.8 179.5 958.9 175.3 931.85 158.75 914.3 157.5 905.55 156.9 896.1 157.45 L881.7 158.5 Q866.2 159.35 852.1 153.5 820.0 140.1 801.2 133.7 765.25 121.4 745.75 121.4 L702.35 123.4 681.55 125.4 693.3 125.55 721.4 126.65 Q765.05 129.15 783.85 135.45 793.5 138.65 803.25 143.75 L818.75 152.5 Q827.4 157.35 833.8 159.7 M690.1 318.15 L716.45 327.1 Q749.15 338.05 770.75 340.2 748.8 332.5 726.05 322.6 705.65 313.7 682.05 301.95 664.45 293.15 642.8 292.4 617.4 293.0 601.7 291.5 586.65 290.05 574.55 285.2 566.1 281.8 558.05 276.35 L550.95 271.05 542.6 263.95 Q538.4 260.4 535.5 258.7 528.05 254.3 515.35 254.25 507.6 254.2 492.8 256.7 L468.65 260.25 Q455.1 261.45 445.75 258.8 437.65 256.45 431.6 251.1 442.5 261.15 463.1 267.1 479.8 271.85 505.4 274.3 523.9 276.1 543.65 286.4 L558.05 294.25 560.4 295.55 Q570.7 301.1 579.15 304.45 587.55 307.8 598.9 308.65 606.7 309.25 620.2 308.75 636.8 308.1 642.05 308.2 654.35 308.35 663.5 310.5 674.85 313.15 690.1 318.15 M533.35 152.65 Q525.3 148.9 515.95 143.85 510.4 140.85 504.4 137.45 512.5 140.3 519.65 144.2 L520.95 144.9 534.2 152.65 533.35 152.65 M515.7 179.55 Q500.7 172.95 486.75 173.65 479.2 174.05 455.95 178.6 436.75 182.35 424.7 181.15 415.65 180.2 405.3 176.4 395.6 172.85 381.1 165.2 L357.2 152.65 357.0 152.55 Q328.15 138.35 308.35 141.45 294.0 143.7 275.0 139.3 270.25 138.2 242.7 129.75 249.4 132.2 262.0 141.95 272.0 149.7 279.5 152.65 L282.25 153.6 Q289.7 155.75 305.25 156.7 321.5 157.75 328.5 159.45 337.05 161.55 347.05 166.4 352.7 169.15 364.65 175.95 387.55 188.95 400.55 191.7 411.2 193.95 424.3 193.25 432.8 192.8 447.9 190.45 L471.45 187.3 Q484.6 186.15 494.95 187.7 528.45 192.7 547.95 197.4 L558.05 200.0 Q582.4 206.75 598.55 215.9 588.95 209.5 571.5 203.45 L558.05 198.75 Q546.5 194.6 543.05 193.05 524.5 183.4 515.7 179.55 M429.75 72.5 L442.75 74.5 Q424.35 70.85 402.65 67.25 354.5 59.2 334.4 59.2 314.35 59.2 295.3 53.2 289.3 51.3 284.2 49.05 L280.25 47.15 281.8 50.9 Q284.1 55.4 288.0 59.2 300.55 71.2 324.4 71.2 332.4 71.2 376.8 71.95 401.95 72.4 406.65 71.2 411.7 69.95 429.75 72.5 M377.35 298.45 Q402.65 298.2 417.45 299.45 443.95 301.65 459.1 309.1 477.65 318.2 481.2 335.75 L537.85 337.95 558.05 338.9 594.3 341.65 Q610.25 343.3 631.35 348.05 643.65 350.8 668.2 356.95 L353.95 356.95 357.75 348.6 Q372.5 349.35 391.65 348.55 L419.45 347.05 444.25 346.1 Q434.45 345.4 421.5 335.05 L411.1 326.55 Q405.05 321.75 400.6 319.5 389.3 313.75 370.8 309.15 L372.55 302.45 Q375.95 301.2 377.35 298.45 M278.55 83.25 Q288.05 93.45 291.6 96.6 L292.65 97.5 289.8 95.55 Q272.35 83.4 264.75 70.15 270.45 74.55 278.55 83.25 M201.55 194.9 L199.5 192.6 Q198.35 189.95 193.3 185.85 183.1 177.55 163.35 170.05 152.45 165.9 151.2 161.4 L151.05 160.45 157.35 161.4 Q168.25 163.55 179.8 171.2 183.0 173.3 189.4 177.8 195.2 181.7 199.9 184.1 210.15 189.25 228.5 191.05 242.55 192.4 256.5 191.55 248.2 194.15 236.4 194.65 L215.05 194.65 Q207.45 194.55 201.55 194.9" fill="#ffffff" fill-opacity="0.0" fill-rule="evenodd" stroke="none"/>
    <path d="M934.15 356.95 Q925.65 352.7 918.3 349.55 908.0 345.2 894.7 343.55 L870.85 342.0 Q855.6 341.4 847.1 340.0 834.15 337.85 824.0 332.6 817.6 329.3 809.5 323.75 L795.7 314.05 777.4 305.35 Q767.0 300.5 758.85 297.55 L736.45 294.15 Q722.65 292.3 715.7 290.4 726.9 289.85 738.2 291.85 748.05 293.6 758.85 297.55 771.35 300.1 779.85 304.35 786.5 307.75 795.7 314.05 813.9 322.7 826.45 326.6 840.85 331.05 856.95 327.95 L870.9 324.75 Q879.7 322.7 886.15 322.0 899.4 320.55 919.45 325.3 930.8 328.0 951.85 334.25 927.1 319.3 872.15 307.95 865.65 306.6 852.05 306.75 838.45 306.9 831.9 305.55 820.75 303.2 814.25 295.55 807.35 285.55 801.45 279.8 787.05 265.75 764.7 260.8 750.55 257.65 722.35 257.1 692.5 256.5 679.7 254.2 656.85 250.1 642.1 237.65 646.8 238.5 660.75 242.1 672.1 245.05 679.55 245.8 691.0 246.95 705.4 245.95 L730.15 243.7 755.0 242.95 Q768.85 243.7 781.4 247.75 789.3 250.3 798.85 258.3 811.25 268.7 814.95 270.95 827.0 278.25 842.65 283.25 856.8 287.8 872.2 290.0 L894.5 291.9 916.9 292.75 Q944.0 294.05 961.0 300.4 976.05 306.05 994.45 315.3 1004.4 320.3 1026.9 332.6 L1026.9 356.95 934.15 356.95 M1026.9 259.65 Q1004.25 257.75 976.9 250.0 949.4 242.2 934.35 233.3 929.7 230.55 922.2 225.35 914.1 219.75 910.65 217.65 897.05 209.3 884.2 207.6 L855.05 204.95 826.0 202.1 808.55 200.55 790.6 199.65 Q768.75 198.35 755.8 193.6 747.6 190.65 733.4 180.5 720.15 171.0 709.6 167.95 699.15 164.95 682.35 163.75 L654.45 161.55 Q641.0 159.8 620.45 153.05 L618.7 152.45 Q591.6 143.45 583.15 141.4 L574.6 139.3 565.75 137.35 Q578.9 141.95 596.25 150.9 L598.15 151.9 629.35 168.05 Q635.8 171.15 647.3 174.0 L666.45 178.85 Q688.85 185.6 695.45 201.0 676.6 187.05 645.45 180.05 630.4 174.0 610.05 170.8 582.25 167.55 571.2 165.5 564.95 164.35 558.05 162.3 548.15 159.25 537.0 154.3 L534.2 152.65 520.95 144.9 519.65 144.2 Q512.5 140.3 504.4 137.45 L500.95 135.45 Q485.9 126.65 436.0 126.15 420.4 126.0 401.95 126.7 L388.7 127.3 385.05 127.0 Q359.35 124.85 341.05 117.3 355.3 113.3 376.9 114.4 L412.65 117.8 Q420.75 118.6 450.7 118.35 474.9 118.15 488.3 121.45 471.15 113.45 446.2 108.6 425.75 104.6 402.6 103.2 L354.45 101.3 Q349.9 101.3 330.15 104.85 314.25 107.7 306.35 105.35 300.85 103.85 294.3 102.6 281.25 100.05 276.25 101.3 271.25 102.55 257.95 93.55 241.15 81.25 232.1 75.25 220.8 67.7 201.25 65.7 L188.95 65.1 183.95 65.2 196.5 62.7 Q210.25 60.0 221.05 58.95 L227.0 58.5 226.1 58.45 204.65 58.25 Q192.3 57.85 184.35 55.45 178.5 53.7 173.95 50.65 170.6 48.4 167.95 45.5 169.4 47.0 173.95 47.8 183.75 49.55 208.05 48.15 L252.1 45.1 Q266.1 45.15 280.75 56.25 L292.85 65.95 Q300.15 71.75 305.9 74.8 320.5 82.55 343.4 84.9 L382.55 87.25 Q419.5 90.1 467.4 101.0 494.85 107.25 550.7 120.95 L558.05 122.55 561.05 123.15 Q585.4 128.1 637.65 137.45 692.65 147.25 725.7 156.05 733.55 158.15 748.25 164.2 755.0 167.0 763.25 170.65 786.4 180.9 801.85 183.6 821.95 187.1 863.35 190.25 900.3 194.35 923.1 205.2 935.05 210.9 958.85 226.75 981.55 241.85 994.95 247.8 1000.15 250.1 1010.05 251.55 L1026.9 253.8 1026.9 259.65 M833.8 159.7 Q827.4 157.35 818.75 152.5 L803.25 143.75 Q793.5 138.65 783.85 135.45 765.05 129.15 721.4 126.65 L693.3 125.55 681.55 125.4 702.35 123.4 745.75 121.4 Q765.25 121.4 801.2 133.7 820.0 140.1 852.1 153.5 866.2 159.35 881.7 158.5 L896.1 157.45 Q905.55 156.9 914.3 157.5 931.85 158.75 958.9 175.3 965.8 179.5 971.8 183.65 977.55 187.65 982.5 191.6 975.0 187.6 964.9 183.05 L962.2 181.85 Q938.6 171.3 922.3 167.55 907.05 164.0 887.95 164.0 858.95 164.0 852.1 163.5 842.45 162.8 833.8 159.7 M690.1 318.15 Q674.85 313.15 663.5 310.5 654.35 308.35 642.05 308.2 636.8 308.1 620.2 308.75 606.7 309.25 598.9 308.65 587.55 307.8 579.15 304.45 570.7 301.1 560.4 295.55 L558.05 294.25 543.65 286.4 Q523.9 276.1 505.4 274.3 479.8 271.85 463.1 267.1 442.5 261.15 431.6 251.1 437.65 256.45 445.75 258.8 455.1 261.45 468.65 260.25 L492.8 256.7 Q507.6 254.2 515.35 254.25 528.05 254.3 535.5 258.7 538.4 260.4 542.6 263.95 L550.95 271.05 558.05 276.35 Q566.1 281.8 574.55 285.2 586.65 290.05 601.7 291.5 617.4 293.0 642.8 292.4 664.45 293.15 682.05 301.95 705.65 313.7 726.05 322.6 748.8 332.5 770.75 340.2 749.15 338.05 716.45 327.1 L690.1 318.15 M515.7 179.55 Q524.5 183.4 543.05 193.05 546.5 194.6 558.05 198.75 L571.5 203.45 Q588.95 209.5 598.55 215.9 582.4 206.75 558.05 200.0 L547.95 197.4 Q528.45 192.7 494.95 187.7 484.6 186.15 471.45 187.3 L447.9 190.45 Q432.8 192.8 424.3 193.25 411.2 193.95 400.55 191.7 387.55 188.95 364.65 175.95 352.7 169.15 347.05 166.4 337.05 161.55 328.5 159.45 321.5 157.75 305.25 156.7 289.7 155.75 282.25 153.6 L279.5 152.65 Q272.0 149.7 262.0 141.95 249.4 132.2 242.7 129.75 270.25 138.2 275.0 139.3 294.0 143.7 308.35 141.45 328.15 138.35 357.0 152.55 L357.2 152.65 381.1 165.2 Q395.6 172.85 405.3 176.4 415.65 180.2 424.7 181.15 436.75 182.35 455.95 178.6 479.2 174.05 486.75 173.65 500.7 172.95 515.7 179.55 M429.75 72.5 Q411.7 69.95 406.65 71.2 401.95 72.4 376.8 71.95 332.4 71.2 324.4 71.2 300.55 71.2 288.0 59.2 284.1 55.4 281.8 50.9 L280.25 47.15 284.2 49.05 Q289.3 51.3 295.3 53.2 314.35 59.2 334.4 59.2 354.5 59.2 402.65 67.25 424.35 70.85 442.75 74.5 L429.75 72.5 M278.55 83.25 Q270.45 74.55 264.75 70.15 272.35 83.4 289.8 95.55 L292.65 97.5 291.6 96.6 Q288.05 93.45 278.55 83.25" fill="#000000" fill-opacity="0.14901961" fill-rule="evenodd" stroke="none"/>
    <path d="M169.3 133.95 L173.95 134.9 Q194.7 139.7 211.55 152.15 L212.25 152.65 Q222.85 160.3 237.3 164.1 246.8 166.55 264.9 168.55 284.55 170.7 293.1 172.55 308.7 175.95 320.35 183.1 339.5 194.85 359.6 200.25 379.1 205.5 402.9 205.65 429.75 205.8 446.25 210.2 471.4 216.85 480.15 233.95 457.95 227.4 451.55 226.05 437.4 223.05 422.7 223.8 406.9 224.65 395.4 223.65 381.25 222.45 369.0 218.25 342.65 209.25 315.35 206.3 L260.8 203.55 Q273.05 210.85 290.2 214.1 300.9 216.15 321.8 217.5 343.5 218.95 353.2 220.6 370.25 223.5 382.15 230.2 390.0 234.6 398.95 248.45 L406.0 258.85 Q410.25 264.35 414.6 267.4 423.85 273.9 439.05 274.7 L451.95 275.0 464.85 275.85 Q478.7 277.8 489.9 286.55 492.05 288.25 499.65 294.9 506.05 300.55 511.0 304.05 523.0 312.55 540.8 316.1 L558.05 318.45 572.65 319.95 615.85 322.85 Q640.8 325.1 657.95 332.05 667.9 336.1 680.45 343.75 L701.7 356.95 668.2 356.95 Q643.65 350.8 631.35 348.05 610.25 343.3 594.3 341.65 L558.05 338.9 537.85 337.95 481.2 335.75 Q477.65 318.2 459.1 309.1 443.95 301.65 417.45 299.45 402.65 298.2 377.35 298.45 378.65 295.95 378.35 292.15 L378.35 292.05 378.35 291.9 371.7 277.2 370.9 276.15 Q371.6 275.95 371.35 275.7 371.15 275.4 370.25 275.3 L369.15 274.05 Q359.45 262.95 342.5 254.0 322.7 243.55 295.8 237.75 247.85 227.4 218.85 208.95 209.8 203.2 203.75 197.35 L201.55 194.9 Q207.45 194.55 215.05 194.65 L236.4 194.65 Q248.2 194.15 256.5 191.55 242.55 192.4 228.5 191.05 210.15 189.25 199.9 184.1 195.2 181.7 189.4 177.8 183.0 173.3 179.8 171.2 168.25 163.55 157.35 161.4 L151.05 160.45 Q150.85 157.25 155.1 152.75 161.7 146.5 164.65 142.95 168.55 138.3 169.3 133.95 M645.45 180.05 Q649.65 181.7 653.45 183.6 657.35 185.55 685.3 200.9 697.65 207.65 703.6 207.65 709.9 207.65 740.45 214.7 L769.8 221.7 Q754.75 222.7 735.7 222.2 697.6 221.2 677.5 213.7 667.6 210.0 660.55 204.8 653.8 199.15 650.15 196.65 644.0 192.35 634.9 190.0 623.5 187.0 603.3 185.6 579.0 183.95 558.05 180.2 547.4 178.3 537.6 175.85 528.15 173.45 519.75 170.65 L511.0 167.55 Q509.4 167.0 506.9 163.15 503.45 157.95 500.7 155.25 L497.8 152.65 Q486.4 143.6 464.85 141.45 446.3 139.6 425.0 135.85 L409.65 132.95 384.6 127.4 388.7 127.3 401.95 126.7 Q420.4 126.0 436.0 126.15 485.9 126.65 500.95 135.45 L504.4 137.45 Q510.4 140.85 515.95 143.85 525.3 148.9 533.35 152.65 L536.85 154.25 537.0 154.3 Q548.15 159.25 558.05 162.3 564.95 164.35 571.2 165.5 582.25 167.55 610.05 170.8 630.4 174.0 645.45 180.05 M357.75 348.6 Q363.15 335.9 367.8 320.3 L370.8 309.15 Q389.3 313.75 400.6 319.5 405.05 321.75 411.1 326.55 L421.5 335.05 Q434.45 345.4 444.25 346.1 L419.45 347.05 391.65 348.55 Q372.5 349.35 357.75 348.6" fill="#000000" fill-opacity="0.29803923" fill-rule="evenodd" stroke="none"/>
    <path d="M1026.9 253.8 L1026.9 151.7 Q1015.15 151.55 1001.5 152.25 L982.0 153.5 Q967.65 154.45 941.95 142.75 933.4 138.85 920.4 132.1 L900.75 121.9 Q885.55 114.3 870.65 115.5 L855.45 117.65 836.05 120.4 Q813.8 122.6 782.05 114.95 768.15 111.55 758.8 107.45 748.9 103.15 747.25 99.3 745.45 95.15 709.65 88.65 676.95 82.75 667.5 82.75 642.65 83.5 628.0 82.95 602.5 81.95 572.7 75.25 L561.05 72.65 558.05 72.0 Q532.1 66.2 522.45 64.5 506.3 61.7 491.4 61.7 465.7 61.7 458.15 61.15 436.6 59.5 410.15 52.65 397.65 49.4 387.1 45.65 L373.3 40.65 Q361.55 36.7 340.95 37.6 321.45 38.45 279.8 30.25 L247.2 23.85 Q229.15 20.5 217.55 19.55 196.65 17.8 180.1 14.3 L173.95 13.0 152.85 9.0 Q140.3 7.35 85.0 4.15 L12.95 0.3 7.85 0.05 M701.7 356.95 L934.15 356.95 1026.9 356.95 1026.9 332.6 1026.9 259.65 1026.9 253.8 M668.2 356.95 L701.7 356.95 M668.2 356.95 L353.95 356.95" fill="none" stroke="#000000" stroke-linecap="round" stroke-linejoin="miter-clip" stroke-miterlimit="4.0" stroke-width="1.0"/>
  </g>
</svg>
