<?xml version="1.0" encoding="UTF-8" standalone="no"?>
<svg xmlns:xlink="http://www.w3.org/1999/xlink" height="203.35px" width="263.9px" xmlns="http://www.w3.org/2000/svg">
  <g transform="matrix(1.0, 0.0, 0.0, 1.0, 0.5, 0.8)">
    <path d="M145.45 10.8 Q155.7 14.6 165.2 20.7 L170.5 24.1 Q173.75 26.25 175.3 28.1 L178.6 31.85 Q180.35 33.7 182.45 35.25 181.1 35.4 179.35 34.55 180.4 35.25 182.55 35.95 184.85 36.65 185.75 37.15 L183.75 37.2 187.15 38.85 Q189.3 39.9 190.0 41.05 L188.25 41.05 186.45 40.8 Q188.25 41.25 189.95 42.25 191.95 43.5 192.45 44.9 L190.6 44.65 Q191.5 45.5 193.75 46.55 195.95 47.6 196.85 48.5 L195.5 48.55 194.15 48.6 Q195.35 50.45 198.9 52.85 202.85 55.55 204.05 56.85 L208.85 62.9 Q214.15 70.15 214.7 78.35 L214.75 79.85 Q214.75 83.1 213.95 85.85 L213.4 87.4 Q214.7 84.0 214.7 79.85 213.3 81.05 210.1 85.05 207.3 88.5 205.9 89.3 202.55 91.15 198.45 91.9 L190.45 92.55 193.8 93.1 193.85 93.1 198.05 94.1 193.5 94.7 189.45 94.8 192.55 95.2 Q191.5 96.1 188.5 96.4 L183.85 96.95 186.5 96.95 188.85 97.25 182.2 98.55 Q178.25 99.35 175.8 100.2 L178.35 100.3 182.9 100.25 178.4 101.45 176.3 102.05 173.9 102.85 180.35 102.85 174.35 104.55 172.85 105.05 Q168.75 106.5 165.9 108.4 L171.5 107.25 166.1 108.95 166.05 109.0 164.4 109.4 Q159.85 110.55 157.5 111.95 155.75 113.0 152.1 116.35 148.8 119.35 146.55 120.45 L151.1 119.65 Q152.9 119.05 154.9 118.05 L151.4 120.45 Q149.4 121.95 148.5 123.4 150.35 123.4 151.95 122.4 149.45 124.95 147.55 129.4 146.0 133.1 145.1 137.4 L147.0 135.55 147.55 134.8 Q149.05 132.7 149.8 132.05 L148.05 136.35 Q146.75 139.1 146.65 140.65 L147.1 140.3 147.15 140.3 Q148.55 139.1 150.35 136.2 148.95 138.6 148.0 141.1 146.8 144.4 146.85 146.95 L149.8 143.05 Q150.0 145.35 148.85 150.15 147.75 154.85 148.05 157.3 L149.25 155.2 150.25 153.0 149.35 157.5 149.35 157.55 149.35 157.65 148.85 159.4 Q147.6 163.8 147.3 165.7 L147.65 165.4 147.7 165.4 149.15 163.45 150.55 161.0 Q150.55 162.85 148.95 166.35 147.35 169.85 147.3 171.6 149.2 169.9 150.65 167.35 149.3 178.0 139.0 190.3 L140.85 193.4 Q141.75 189.7 144.15 188.0 L144.45 189.95 144.5 192.05 145.65 189.35 Q146.7 186.95 147.75 185.85 L147.6 188.05 147.25 190.2 Q148.7 188.1 151.8 184.55 L153.85 182.2 155.4 189.1 Q157.4 197.75 158.25 199.3 159.2 201.0 156.35 201.5 L146.65 202.05 Q140.9 202.25 133.45 200.6 L122.35 197.9 113.9 198.2 Q108.05 199.45 105.2 199.3 101.45 199.15 108.55 195.7 116.1 192.05 115.45 191.85 114.8 191.65 107.6 193.9 100.75 196.0 99.15 194.9 97.45 193.7 104.45 190.55 108.0 189.0 111.85 187.7 103.3 189.35 98.6 191.3 L95.75 191.2 96.4 189.65 Q98.1 187.2 101.75 185.9 L108.55 183.85 Q111.3 182.9 117.95 185.05 L126.5 187.7 Q130.0 188.0 133.55 186.4 L132.9 183.9 132.25 184.85 Q132.15 182.95 132.8 179.9 L133.6 175.0 Q133.8 171.25 132.9 163.8 L130.6 153.65 130.0 151.15 130.0 151.1 Q128.1 143.2 128.9 138.3 L127.8 139.45 Q127.95 138.5 128.6 136.95 L129.45 134.45 128.15 135.7 129.1 133.6 129.95 131.4 129.05 131.85 128.25 132.2 130.55 121.75 130.85 120.5 Q132.55 113.6 134.7 109.25 L136.05 106.65 136.35 106.15 139.2 100.75 141.5 95.5 Q142.95 92.4 144.8 90.85 L144.75 90.85 152.45 84.95 Q157.0 81.9 161.15 80.85 L147.95 77.75 Q140.75 75.9 135.55 71.7 136.3 73.5 137.7 75.5 132.55 71.1 127.9 69.0 L128.25 70.05 128.55 71.05 127.2 70.1 127.1 70.05 Q124.8 68.4 122.4 66.35 L122.95 68.5 Q121.8 67.6 119.05 64.3 119.65 67.05 121.4 69.25 116.75 66.75 114.4 65.15 110.1 62.35 109.0 59.5 L109.55 61.5 110.05 63.45 Q108.4 62.7 106.65 60.9 L103.8 57.65 104.2 60.75 100.95 56.75 101.55 60.5 Q99.8 59.15 99.05 57.1 L98.7 55.9 Q98.3 54.15 98.35 50.3 97.65 51.8 97.4 54.35 L96.85 58.55 96.1 56.55 96.05 58.9 94.75 57.75 Q92.8 56.35 91.45 56.85 L91.05 56.0 89.15 59.3 87.6 61.8 85.25 65.35 85.05 65.55 80.75 71.55 74.55 79.2 Q71.1 83.15 67.8 90.0 66.15 93.45 65.2 96.05 L67.95 97.15 Q67.25 96.95 65.45 98.25 L63.8 99.6 67.65 100.45 Q65.8 101.0 63.1 102.85 L60.75 104.6 64.65 103.5 Q62.2 105.2 55.7 116.0 48.8 127.5 44.45 131.4 39.5 135.9 32.0 148.55 L22.65 164.5 Q20.15 168.0 18.7 173.1 L18.6 173.45 Q17.9 176.1 17.7 178.05 15.8 176.7 14.9 173.65 15.8 176.7 17.7 178.05 17.9 176.1 18.6 173.45 L18.7 173.1 20.75 178.85 24.45 178.85 Q28.3 179.0 29.0 179.7 L30.3 181.1 Q30.55 181.85 28.75 182.75 27.0 183.6 23.3 182.85 L19.9 181.9 21.3 182.9 Q22.9 183.95 23.75 184.1 L30.0 184.6 Q34.9 185.15 33.7 186.35 32.5 187.55 27.85 187.45 L23.5 187.15 Q35.1 188.25 34.0 189.35 32.85 190.5 28.65 191.25 L21.8 191.5 11.9 190.75 Q8.0 189.35 4.5 186.5 0.0 182.9 0.0 179.4 0.0 176.15 3.05 168.5 L4.15 166.05 4.15 166.15 4.15 166.0 4.05 165.6 4.35 161.6 Q4.95 160.2 6.1 159.8 L3.05 160.35 Q3.9 158.15 7.0 155.6 L10.5 152.9 Q11.05 152.4 8.6 154.0 L6.1 155.7 Q8.1 153.7 10.45 147.35 12.75 140.65 13.55 138.85 14.6 136.6 17.35 131.45 L19.9 126.7 17.15 129.45 Q19.05 124.8 23.1 116.85 L26.8 109.85 23.75 113.45 Q30.15 96.8 39.8 89.15 43.9 85.8 48.6 78.65 L41.7 81.95 Q45.35 79.55 46.95 76.65 L47.8 74.2 42.55 77.25 43.65 76.45 44.15 76.0 44.4 75.8 51.9 65.55 52.95 63.65 54.2 61.25 52.95 63.65 51.9 65.55 50.8 65.65 48.7 65.85 Q44.95 66.0 41.9 64.7 L38.95 62.9 36.45 62.9 35.45 62.7 35.4 62.7 Q35.0 62.45 34.85 61.85 L34.85 61.1 35.0 60.75 35.05 60.5 35.1 60.15 Q32.5 57.7 33.25 49.85 L34.55 42.45 Q33.9 41.6 33.8 40.7 L34.0 39.15 33.95 39.1 33.25 35.3 32.45 34.35 31.8 33.8 31.75 33.65 27.9 30.3 27.7 29.95 27.7 29.6 Q27.85 28.75 29.3 27.15 L31.75 24.8 Q32.75 17.1 43.15 9.8 48.8 5.9 56.2 2.3 L58.1 1.35 56.75 2.75 56.55 3.0 58.45 3.15 57.5 4.05 56.45 4.95 59.9 4.25 Q58.7 5.45 57.9 5.95 L61.95 5.1 66.15 4.5 65.15 5.8 64.2 7.1 Q65.95 6.1 67.7 5.7 L66.75 6.8 68.15 6.35 70.95 5.25 68.55 7.35 76.25 5.4 76.3 5.4 79.5 4.8 76.6 7.1 Q75.05 8.55 74.35 9.95 75.25 9.4 77.2 8.55 L74.85 11.45 74.8 11.5 74.9 11.5 Q78.3 10.25 82.95 9.2 L85.5 8.65 91.2 7.45 Q87.8 8.6 85.85 9.65 L88.0 9.85 88.05 9.85 94.15 9.8 102.4 9.35 Q101.05 9.35 99.65 8.8 98.05 8.2 97.25 7.2 L101.4 7.0 105.2 6.75 105.6 6.75 112.25 6.85 120.4 7.95 125.45 9.3 130.6 10.1 129.7 9.4 128.9 8.65 133.1 8.85 Q135.55 9.25 137.1 10.05 L145.45 10.8 M35.65 60.45 L35.05 60.5 35.65 60.45 Q37.15 60.25 38.75 59.55 40.35 58.85 41.8 57.75 43.45 56.5 44.95 54.75 L47.8 50.75 44.95 54.75 Q43.45 56.5 41.8 57.75 40.35 58.85 38.75 59.55 37.15 60.25 35.65 60.45 M172.6 48.25 Q170.8 45.85 169.35 42.2 L169.3 46.1 Q165.2 41.1 162.75 38.85 L165.7 46.05 Q167.65 50.55 168.35 53.4 168.8 50.9 169.35 49.65 169.0 50.5 170.1 53.85 L171.7 58.1 172.5 57.65 Q174.35 60.8 172.45 67.6 172.95 65.85 175.8 60.9 178.0 57.1 177.75 53.25 L174.6 58.55 Q173.8 56.5 173.6 52.35 173.4 47.45 173.05 45.9 L172.6 48.25 M169.55 95.0 L174.5 94.3 Q171.1 91.85 163.95 92.0 157.55 92.15 153.3 94.05 L159.4 94.0 164.1 94.0 159.45 95.4 Q156.65 96.15 155.0 97.25 153.65 98.15 152.35 99.75 L150.0 102.5 Q151.8 102.1 154.65 100.7 L154.85 100.6 158.8 98.8 Q156.85 99.65 155.05 101.55 152.6 104.1 152.5 106.4 154.3 104.8 157.25 103.8 L162.6 102.5 166.85 101.2 Q170.1 100.2 170.65 100.35 169.05 99.75 167.45 99.45 L164.45 99.6 Q165.3 98.95 167.15 98.0 L170.0 96.3 169.55 96.3 Q167.35 96.15 164.65 96.25 166.6 95.4 169.55 95.0 M254.8 130.75 Q261.25 129.8 262.2 138.3 262.85 143.85 261.2 152.1 260.5 155.7 261.45 161.85 262.3 167.05 261.5 168.1 262.65 170.4 262.85 173.8 263.0 176.9 262.35 178.05 261.5 179.4 260.65 174.45 L260.65 175.9 Q260.55 177.7 259.85 179.4 L259.6 179.95 260.1 181.65 Q260.25 183.05 256.4 180.0 L255.85 180.85 Q254.6 182.65 253.2 183.0 251.7 183.35 252.1 181.75 252.5 180.2 253.5 179.4 253.95 179.05 253.0 177.15 247.6 172.45 245.75 170.05 244.65 168.6 245.05 161.85 L245.3 156.3 246.25 157.85 246.1 155.25 Q246.0 153.65 244.7 153.4 L248.15 149.1 Q246.7 150.15 245.6 150.4 L247.2 147.75 247.35 147.55 248.4 145.9 248.45 145.8 248.7 145.1 248.75 144.7 247.8 145.15 246.9 145.45 Q247.0 144.9 248.05 142.5 248.85 140.6 248.75 139.45 L247.75 140.4 Q248.65 134.2 254.8 130.75 M256.4 180.0 L253.75 177.8 253.0 177.15 253.75 177.8 256.4 180.0 M258.25 177.5 Q258.4 176.4 257.8 173.8 L257.0 171.0 254.3 171.95 257.1 175.75 258.25 177.5 259.6 179.95 258.25 177.5 257.1 175.75 254.3 171.95 257.0 171.0 257.3 170.85 259.4 169.85 257.3 170.85 257.0 171.0 257.8 173.8 Q258.4 176.4 258.25 177.5 M260.65 174.45 Q260.6 173.25 260.0 171.4 L259.4 169.85 Q260.85 168.95 261.5 168.1 260.85 168.95 259.4 169.85 L260.0 171.4 Q260.6 173.25 260.65 174.45 M253.25 167.15 Q250.95 161.75 254.4 154.15 L257.0 148.05 Q258.15 144.5 257.7 141.4 258.15 144.5 257.0 148.05 L254.4 154.15 Q250.95 161.75 253.25 167.15 M139.95 32.4 Q136.5 28.7 134.35 24.9 L136.5 30.2 133.25 27.8 Q131.15 26.1 129.75 25.55 L131.15 29.1 126.9 25.65 122.4 22.5 126.15 28.55 Q128.65 32.35 130.7 33.8 130.5 31.55 130.15 30.6 L131.9 32.6 132.05 32.8 133.6 34.65 133.65 33.3 133.7 31.9 137.05 35.55 Q139.05 37.9 140.6 38.75 L140.25 37.15 139.95 35.55 Q143.7 38.7 145.95 41.4 148.35 44.35 150.25 48.25 L145.1 36.5 Q142.0 29.45 138.75 25.3 139.85 27.9 139.95 32.4 M70.15 37.75 L70.4 37.9 70.95 36.8 71.7 35.5 72.45 36.15 73.2 36.85 73.65 35.45 74.1 34.05 75.75 35.7 77.25 37.6 77.4 32.2 Q79.25 33.6 80.35 36.9 79.95 35.3 79.85 33.25 79.7 30.35 80.35 28.65 81.6 29.7 82.9 32.05 82.8 31.45 82.85 30.45 L82.9 28.85 83.65 30.0 84.35 31.3 84.25 28.25 Q84.35 26.45 85.05 25.5 L86.3 26.7 87.6 28.0 86.65 24.9 Q86.05 23.05 85.2 21.9 87.3 22.05 89.15 23.4 L92.4 26.15 Q90.7 22.2 88.8 20.8 91.15 22.0 94.15 22.55 92.65 19.55 88.45 18.15 L93.75 18.2 91.4 16.1 Q89.95 15.0 88.5 14.85 90.8 13.9 94.75 13.6 91.65 11.7 90.95 11.55 L88.05 11.3 84.9 11.85 Q82.95 12.45 79.8 14.45 76.2 16.8 74.8 17.4 75.7 15.95 77.15 15.35 L70.6 16.6 70.15 15.95 70.6 16.6 71.3 17.85 Q74.15 24.1 67.65 30.6 L67.05 31.25 65.2 31.4 65.15 31.35 63.85 32.05 Q64.6 34.0 64.45 36.45 L65.2 34.1 65.15 41.4 66.35 40.4 66.65 40.15 68.7 38.65 69.75 38.0 70.15 37.75 M54.75 60.1 Q60.15 48.3 61.3 46.05 62.5 43.7 65.15 41.4 62.5 43.7 61.3 46.05 60.15 48.3 54.75 60.1 L54.55 60.6 54.75 60.15 54.75 60.1 M54.4 60.85 L54.55 60.6 54.4 60.85 54.2 61.25 54.4 60.85 M4.45 167.25 L4.25 166.4 4.15 166.15 4.25 166.4 4.45 167.25 6.1 165.05 7.25 168.05 Q8.8 171.3 10.5 172.5 L10.8 169.2 11.4 171.3 12.35 173.15 13.9 175.1 14.1 175.3 14.4 170.85 14.1 175.3 13.9 175.1 12.35 173.15 11.4 171.3 10.8 169.2 10.5 172.5 Q8.8 171.3 7.25 168.05 L6.1 165.05 4.45 167.25 M14.9 173.65 L14.4 170.85 14.9 173.65 M93.05 51.3 Q92.45 53.25 91.05 56.0 92.45 53.25 93.05 51.3 M108.6 30.45 L113.9 33.3 Q117.25 35.2 118.6 36.65 111.3 28.2 108.4 23.8 L109.45 26.05 Q110.0 27.4 110.05 28.45 105.65 25.6 103.5 23.8 103.85 25.3 105.95 27.7 104.45 27.55 102.15 26.65 L98.55 25.2 Q99.8 25.7 101.45 27.6 L104.15 30.55 106.95 32.85 Q108.3 34.05 109.4 35.7 109.35 33.2 108.6 30.45 M140.85 193.4 L139.0 190.35 138.95 190.35 138.35 189.15 138.0 190.45 136.65 188.35 135.3 186.1 Q135.55 187.65 134.25 188.55 L133.55 186.4 134.25 188.55 Q135.55 187.65 135.3 186.1 L136.65 188.35 138.0 190.45 138.35 189.15 138.95 190.35 139.0 190.35 140.85 193.4 M67.4 16.25 L66.5 15.95 63.9 15.45 Q62.1 15.35 61.15 16.0 60.15 16.65 59.95 18.15 L59.8 19.6 Q59.8 21.2 60.5 22.05 L62.8 24.05 Q64.1 25.25 63.25 26.45 62.75 27.15 63.25 27.55 63.75 27.9 64.75 27.55 67.5 26.7 68.75 22.85 L68.0 23.6 Q66.9 24.05 65.2 22.85 62.95 21.3 62.1 20.1 61.2 18.8 62.95 19.0 L69.0 20.05 Q66.8 19.5 65.45 18.8 62.65 17.35 67.15 16.3 L67.4 16.25 M67.7 13.95 L67.8 14.0 Q69.15 14.75 70.15 15.95 70.9 15.0 72.45 13.8 L67.7 13.95 Q65.4 12.7 62.95 13.2 61.35 13.55 60.2 14.35 L60.1 14.45 59.8 14.65 Q58.35 15.8 57.75 17.75 57.2 19.55 57.45 21.2 57.2 19.55 57.75 17.75 58.35 15.8 59.8 14.65 L60.1 14.45 60.2 14.35 Q61.35 13.55 62.95 13.2 65.4 12.7 67.7 13.95 M45.45 22.55 Q45.7 25.5 47.05 27.25 47.5 21.3 48.0 18.8 49.2 12.65 51.75 11.65 50.8 12.0 49.3 12.95 L46.8 14.35 47.15 13.35 47.45 12.3 45.9 13.0 Q47.15 11.7 47.85 10.2 45.35 11.45 43.9 12.85 L41.05 16.1 Q41.65 15.45 43.05 14.9 43.35 16.5 42.75 18.9 43.05 18.65 44.0 18.2 L45.2 17.45 45.45 22.55 M44.25 35.9 L44.75 33.1 Q40.25 32.9 38.9 34.2 38.2 34.85 38.4 35.55 L39.85 37.55 40.65 38.4 Q41.75 39.4 42.55 39.15 43.6 38.8 44.25 35.9 M37.0 45.2 Q38.25 45.3 38.95 44.4 40.05 43.0 35.9 44.95 L37.0 45.2 M67.0 52.65 Q70.6 49.75 73.25 48.5 L69.25 49.75 Q66.75 50.45 65.4 51.25 64.0 52.15 63.05 54.35 62.05 56.7 61.2 57.45 L67.0 52.65 M52.75 81.5 L50.8 83.9 49.0 85.85 52.55 85.5 Q49.75 87.8 48.35 89.45 L51.9 89.3 Q51.15 90.25 48.85 92.0 46.65 93.7 45.8 94.85 L46.6 95.0 47.5 95.15 Q46.25 97.65 42.25 102.15 38.25 106.7 36.85 109.4 34.25 114.4 32.75 119.65 39.75 111.25 48.9 106.15 L45.35 106.45 44.05 106.75 Q41.6 107.45 39.7 108.65 L43.65 106.0 45.05 105.0 50.35 101.05 Q48.95 101.8 46.05 103.45 47.25 101.75 50.45 98.85 53.65 95.95 54.9 94.15 L52.15 96.0 49.45 97.95 54.9 91.4 Q58.35 87.2 61.1 85.85 L57.05 86.6 Q57.95 85.05 59.9 82.9 58.9 83.05 57.05 83.85 L54.2 84.75 Q54.35 83.2 56.4 81.45 L59.7 78.7 56.15 80.0 Q53.85 80.75 52.75 81.5 M36.8 129.75 L33.6 131.15 36.9 127.8 40.1 124.7 Q39.0 125.75 36.4 126.15 33.35 126.55 32.5 127.05 31.1 127.9 29.65 130.15 L27.35 133.75 28.95 133.4 30.55 133.1 30.35 133.45 Q28.85 135.95 27.6 139.35 26.9 141.15 25.65 145.45 26.7 142.15 31.75 135.95 37.35 129.0 40.1 129.05 38.95 129.0 37.5 129.5 L36.8 129.75 M12.35 173.15 L11.4 176.35 Q10.4 179.3 9.15 181.35 L14.4 185.75 15.0 186.55 19.05 186.9 Q21.25 186.65 22.15 187.95 L22.6 189.0 Q22.95 190.25 22.65 191.55 22.95 190.25 22.6 189.0 L22.15 187.95 Q21.25 186.65 19.05 186.9 L15.0 186.55 14.4 185.75 9.15 181.35 Q10.4 179.3 11.4 176.35 L12.35 173.15 M22.65 191.55 L21.8 191.5 22.65 191.55" fill="#ffffff" fill-opacity="0.0" fill-rule="evenodd" stroke="none"/>
    <path d="M145.45 10.8 L137.1 10.05 Q135.55 9.25 133.1 8.85 L128.9 8.65 129.7 9.4 130.6 10.1 125.45 9.3 120.4 7.95 112.25 6.85 105.6 6.75 105.2 6.75 101.4 7.0 97.25 7.2 Q98.05 8.2 99.65 8.8 101.05 9.35 102.4 9.35 L94.15 9.8 88.05 9.85 88.0 9.85 85.85 9.65 Q87.8 8.6 91.2 7.45 L85.5 8.65 82.95 9.2 Q78.3 10.25 74.9 11.5 L74.8 11.5 74.85 11.45 77.2 8.55 Q75.25 9.4 74.35 9.95 75.05 8.55 76.6 7.1 L79.5 4.8 76.3 5.4 76.25 5.4 68.55 7.35 70.95 5.25 68.15 6.35 66.75 6.8 67.7 5.7 Q65.95 6.1 64.2 7.1 L65.15 5.8 66.15 4.5 61.95 5.1 57.9 5.95 Q58.7 5.45 59.9 4.25 L56.45 4.95 57.5 4.05 58.45 3.15 56.55 3.0 56.75 2.75 58.1 1.35 58.4 1.25 59.8 0.55 59.4 2.35 62.1 0.0 61.9 1.25 65.05 1.25 68.2 1.1 67.6 1.95 66.65 2.7 92.7 2.3 Q107.8 2.55 118.4 5.2 L130.5 7.25 Q138.2 8.35 142.6 9.8 L145.45 10.8 M140.85 193.4 L139.0 190.3 Q149.3 178.0 150.65 167.35 149.2 169.9 147.3 171.6 147.35 169.85 148.95 166.35 150.55 162.85 150.55 161.0 L149.15 163.45 147.7 165.4 147.65 165.4 147.3 165.7 Q147.6 163.8 148.85 159.4 L149.35 157.65 149.35 157.55 149.35 157.5 150.25 153.0 149.25 155.2 148.05 157.3 Q147.75 154.85 148.85 150.15 150.0 145.35 149.8 143.05 L146.85 146.95 Q146.8 144.4 148.0 141.1 148.95 138.6 150.35 136.2 148.55 139.1 147.15 140.3 L147.1 140.3 146.65 140.65 Q146.75 139.1 148.05 136.35 L149.8 132.05 Q149.05 132.7 147.55 134.8 L147.0 135.55 145.1 137.4 Q146.0 133.1 147.55 129.4 149.45 124.95 151.95 122.4 150.35 123.4 148.5 123.4 149.4 121.95 151.4 120.45 L154.9 118.05 Q152.9 119.05 151.1 119.65 L146.55 120.45 Q148.8 119.35 152.1 116.35 155.75 113.0 157.5 111.95 159.85 110.55 164.4 109.4 L166.05 109.0 166.1 108.95 171.5 107.25 165.9 108.4 Q168.75 106.5 172.85 105.05 L174.35 104.55 180.35 102.85 173.9 102.85 176.3 102.05 178.4 101.45 182.9 100.25 178.35 100.3 175.8 100.2 Q178.25 99.35 182.2 98.55 L188.85 97.25 186.5 96.95 183.85 96.95 188.5 96.4 Q191.5 96.1 192.55 95.2 L189.45 94.8 193.5 94.7 198.05 94.1 193.85 93.1 193.8 93.1 190.45 92.55 198.45 91.9 Q202.55 91.15 205.9 89.3 207.3 88.5 210.1 85.05 213.3 81.05 214.7 79.85 214.7 84.0 213.4 87.4 L213.15 87.9 Q211.85 90.85 209.4 93.25 201.55 101.0 192.2 107.9 L179.95 115.5 179.55 115.75 Q175.2 118.3 172.05 120.65 L171.2 121.35 170.4 121.95 Q169.3 122.85 168.35 123.7 L168.2 123.85 Q169.0 122.55 169.0 121.25 167.2 123.8 166.2 124.75 L165.45 123.9 164.65 122.9 Q162.15 126.3 162.05 131.85 L161.8 131.2 Q161.8 132.1 162.15 134.75 L162.3 138.3 160.7 136.4 161.8 140.75 Q162.55 143.45 162.4 145.1 L160.4 141.95 Q161.45 144.95 161.3 149.95 L160.7 158.1 Q160.3 165.8 160.5 169.55 160.6 172.85 160.3 174.4 L159.5 176.35 Q158.8 177.85 158.85 178.05 L158.5 176.85 158.25 175.65 Q157.2 181.1 154.95 184.85 154.9 183.0 156.55 178.95 L153.85 182.2 151.8 184.55 Q148.7 188.1 147.25 190.2 L147.6 188.05 147.75 185.85 Q146.7 186.95 145.65 189.35 L144.5 192.05 144.45 189.95 144.15 188.0 Q141.75 189.7 140.85 193.4 M169.55 95.0 Q166.6 95.4 164.65 96.25 167.35 96.15 169.55 96.3 L170.0 96.3 167.15 98.0 Q165.3 98.95 164.45 99.6 L167.45 99.45 Q169.05 99.75 170.65 100.35 170.1 100.2 166.85 101.2 L162.6 102.5 157.25 103.8 Q154.3 104.8 152.5 106.4 152.6 104.1 155.05 101.55 156.85 99.65 158.8 98.8 L154.85 100.6 154.65 100.7 Q151.8 102.1 150.0 102.5 L152.35 99.75 Q153.65 98.15 155.0 97.25 156.65 96.15 159.45 95.4 L164.1 94.0 159.4 94.0 153.3 94.05 Q157.55 92.15 163.95 92.0 171.1 91.85 174.5 94.3 L169.55 95.0 M172.6 48.25 L173.05 45.9 Q173.4 47.45 173.6 52.35 173.8 56.5 174.6 58.55 L177.75 53.25 Q178.0 57.1 175.8 60.9 172.95 65.85 172.45 67.6 174.35 60.8 172.5 57.65 L171.7 58.1 170.1 53.85 Q169.0 50.5 169.35 49.65 168.8 50.9 168.35 53.4 167.65 50.55 165.7 46.05 L162.75 38.85 Q165.2 41.1 169.3 46.1 L169.35 42.2 Q170.8 45.85 172.6 48.25 M139.95 32.4 Q139.85 27.9 138.75 25.3 142.0 29.45 145.1 36.5 L150.25 48.25 Q148.35 44.35 145.95 41.4 143.7 38.7 139.95 35.55 L140.25 37.15 140.6 38.75 Q139.05 37.9 137.05 35.55 L133.7 31.9 133.65 33.3 133.6 34.65 132.05 32.8 131.9 32.6 130.15 30.6 Q130.5 31.55 130.7 33.8 128.65 32.35 126.15 28.55 L122.4 22.5 126.9 25.65 131.15 29.1 129.75 25.55 Q131.15 26.1 133.25 27.8 L136.5 30.2 134.35 24.9 Q136.5 28.7 139.95 32.4 M70.6 16.6 L77.15 15.35 Q75.7 15.95 74.8 17.4 76.2 16.8 79.8 14.45 82.95 12.45 84.9 11.85 L88.05 11.3 90.95 11.55 Q91.65 11.7 94.75 13.6 90.8 13.9 88.5 14.85 89.95 15.0 91.4 16.1 L93.75 18.2 88.45 18.15 Q92.65 19.55 94.15 22.55 91.15 22.0 88.8 20.8 90.7 22.2 92.4 26.15 L89.15 23.4 Q87.3 22.05 85.2 21.9 86.05 23.05 86.65 24.9 L87.6 28.0 86.3 26.7 85.05 25.5 Q84.35 26.45 84.25 28.25 L84.35 31.3 83.65 30.0 82.9 28.85 82.85 30.45 Q82.8 31.45 82.9 32.05 81.6 29.7 80.35 28.65 79.7 30.35 79.85 33.25 79.95 35.3 80.35 36.9 79.25 33.6 77.4 32.2 L77.25 37.6 75.75 35.7 74.1 34.05 73.65 35.45 73.2 36.85 72.45 36.15 71.7 35.5 70.95 36.8 70.4 37.9 70.15 37.75 69.75 38.0 68.7 38.65 66.65 40.15 66.35 40.4 65.15 41.4 65.2 34.1 64.45 36.45 Q64.6 34.0 63.85 32.05 L65.15 31.35 65.2 31.4 67.05 31.25 67.65 30.6 Q74.15 24.1 71.3 17.85 L70.6 16.6 M108.6 30.45 Q109.35 33.2 109.4 35.7 108.3 34.05 106.95 32.85 L104.15 30.55 101.45 27.6 Q99.8 25.7 98.55 25.2 L102.15 26.65 Q104.45 27.55 105.95 27.7 103.85 25.3 103.5 23.8 105.65 25.6 110.05 28.45 110.0 27.4 109.45 26.05 L108.4 23.8 Q111.3 28.2 118.6 36.65 117.25 35.2 113.9 33.3 L108.6 30.45 M91.45 56.85 Q92.8 56.35 94.75 57.75 L96.05 58.9 96.1 56.55 96.85 58.55 97.4 54.35 Q97.65 51.8 98.35 50.3 98.3 54.15 98.7 55.9 L99.05 57.1 Q99.8 59.15 101.55 60.5 L100.95 56.75 104.2 60.75 103.8 57.65 106.65 60.9 Q108.4 62.7 110.05 63.45 L109.55 61.5 109.0 59.5 Q110.1 62.35 114.4 65.15 116.75 66.75 121.4 69.25 119.65 67.05 119.05 64.3 121.8 67.6 122.95 68.5 L122.4 66.35 Q124.8 68.4 127.1 70.05 L127.2 70.1 128.55 71.05 128.25 70.05 127.9 69.0 Q132.55 71.1 137.7 75.5 136.3 73.5 135.55 71.7 140.75 75.9 147.95 77.75 L161.15 80.85 Q157.0 81.9 152.45 84.95 L144.75 90.85 144.7 90.85 143.05 90.15 142.05 89.65 141.15 89.15 140.3 88.75 Q138.6 87.85 137.45 87.55 L133.25 86.85 133.2 86.85 132.05 86.75 128.95 86.3 Q122.35 85.15 116.15 78.8 113.75 76.35 106.6 66.85 106.75 68.35 106.25 69.65 L104.3 67.35 102.5 64.9 102.95 67.05 Q103.4 68.4 103.25 69.25 101.6 68.15 99.75 65.7 L99.05 64.75 Q97.65 62.8 97.5 61.4 L98.05 67.05 Q96.5 65.95 94.05 61.8 L94.0 61.7 93.95 61.55 93.65 61.05 93.5 60.85 92.7 59.35 91.4 56.85 91.45 56.85 M67.4 16.25 L67.15 16.3 Q62.65 17.35 65.45 18.8 66.8 19.5 69.0 20.05 L62.95 19.0 Q61.2 18.8 62.1 20.1 62.95 21.3 65.2 22.85 66.9 24.05 68.0 23.6 L68.75 22.85 Q67.5 26.7 64.75 27.55 63.75 27.9 63.25 27.55 62.75 27.15 63.25 26.45 64.1 25.25 62.8 24.05 L60.5 22.05 Q59.8 21.2 59.8 19.6 L59.95 18.15 Q60.15 16.65 61.15 16.0 62.1 15.35 63.9 15.45 L66.5 15.95 67.4 16.25 M70.15 15.95 Q69.15 14.75 67.8 14.0 L67.7 13.95 72.45 13.8 Q70.9 15.0 70.15 15.95 M45.45 22.55 L45.2 17.45 44.0 18.2 Q43.05 18.65 42.75 18.9 43.35 16.5 43.05 14.9 41.65 15.45 41.05 16.1 L43.9 12.85 Q45.35 11.45 47.85 10.2 47.15 11.7 45.9 13.0 L47.45 12.3 47.15 13.35 46.8 14.35 49.3 12.95 Q50.8 12.0 51.75 11.65 49.2 12.65 48.0 18.8 47.5 21.3 47.05 27.25 45.7 25.5 45.45 22.55 M67.0 52.65 L61.2 57.45 Q62.05 56.7 63.05 54.35 64.0 52.15 65.4 51.25 66.75 50.45 69.25 49.75 L73.25 48.5 Q70.6 49.75 67.0 52.65 M36.8 129.75 L37.5 129.5 Q38.95 129.0 40.1 129.05 37.35 129.0 31.75 135.95 26.7 142.15 25.65 145.45 26.9 141.15 27.6 139.35 28.85 135.95 30.35 133.45 L30.55 133.1 28.95 133.4 27.35 133.75 29.65 130.15 Q31.1 127.9 32.5 127.05 33.35 126.55 36.4 126.15 39.0 125.75 40.1 124.7 L36.9 127.8 33.6 131.15 36.8 129.75 M52.75 81.5 Q53.85 80.75 56.15 80.0 L59.7 78.7 56.4 81.45 Q54.35 83.2 54.2 84.75 L57.05 83.85 Q58.9 83.05 59.9 82.9 57.95 85.05 57.05 86.6 L61.1 85.85 Q58.35 87.2 54.9 91.4 L49.45 97.95 52.15 96.0 54.9 94.15 Q53.65 95.95 50.45 98.85 47.25 101.75 46.05 103.45 48.95 101.8 50.35 101.05 L45.05 105.0 43.65 106.0 39.7 108.65 Q41.6 107.45 44.05 106.75 L45.35 106.45 48.9 106.15 Q39.75 111.25 32.75 119.65 34.25 114.4 36.85 109.4 38.25 106.7 42.25 102.15 46.25 97.65 47.5 95.15 L46.6 95.0 45.8 94.85 Q46.65 93.7 48.85 92.0 51.15 90.25 51.9 89.3 L48.35 89.45 Q49.75 87.8 52.55 85.5 L49.0 85.85 50.8 83.9 52.75 81.5" fill="#000000" fill-opacity="0.14901961" fill-rule="evenodd" stroke="none"/>
    <path d="M171.2 121.35 L172.05 120.65 Q175.2 118.3 179.55 115.75 L179.95 115.5 192.2 107.9 Q201.55 101.0 209.4 93.25 211.85 90.85 213.15 87.9 L213.4 87.4 213.95 85.85 213.2 93.35 212.75 95.7 212.7 95.8 212.45 96.2 Q209.55 100.6 208.7 102.15 206.2 106.4 206.25 108.2 L206.2 101.55 Q206.0 103.55 204.9 106.3 L202.95 110.8 203.2 108.8 200.75 113.6 Q199.2 116.5 198.8 118.6 L198.85 117.65 Q197.95 123.4 197.3 134.1 L196.3 134.6 Q199.0 138.35 201.2 140.35 L207.55 140.1 203.4 142.6 207.3 142.3 211.15 141.55 Q210.55 142.05 207.65 143.25 L215.3 142.95 211.9 144.45 Q209.45 145.3 208.45 145.85 L216.85 144.85 225.25 143.4 222.75 144.4 220.55 145.85 224.5 144.8 Q226.9 144.15 228.55 144.05 L225.3 145.85 229.6 145.8 233.9 145.65 232.0 146.7 237.1 146.3 242.15 145.9 241.2 146.6 Q244.2 146.7 248.7 145.1 L248.45 145.8 248.4 145.9 247.35 147.55 247.2 147.75 245.6 150.4 Q246.7 150.15 248.15 149.1 L244.7 153.4 Q246.0 153.65 246.1 155.25 L246.25 157.85 245.3 156.3 Q243.55 154.45 239.35 154.55 L230.85 155.4 223.05 155.25 215.2 155.1 Q207.35 155.15 199.95 153.85 191.6 152.45 185.4 149.6 L185.85 150.7 186.3 151.8 183.55 149.95 Q181.95 148.85 181.15 147.8 L181.95 149.55 177.9 147.2 Q177.9 148.65 179.0 149.75 175.8 148.35 174.05 144.9 172.8 142.4 171.95 138.0 171.45 135.25 171.4 131.05 L171.35 124.05 171.2 121.35 M87.6 61.8 L89.15 59.3 91.05 56.0 91.45 56.85 91.4 56.85 92.7 59.35 92.9 59.75 93.5 60.85 93.65 61.05 93.65 61.1 Q93.8 65.05 96.35 70.1 L99.05 75.0 102.0 79.9 101.6 76.15 Q102.8 79.9 107.45 84.8 L107.55 83.2 107.6 81.6 Q108.75 83.5 110.75 85.6 L114.45 89.1 114.6 88.15 Q116.4 90.5 117.55 94.45 L119.3 101.3 119.3 97.85 Q119.45 95.85 120.4 94.85 120.95 97.05 121.5 102.0 121.8 100.6 123.0 98.15 123.75 100.7 124.05 105.15 L124.1 106.15 124.4 112.35 Q125.2 109.95 126.2 108.1 L126.55 116.5 Q127.15 121.9 129.5 123.8 L130.05 122.6 130.45 121.35 130.55 121.75 128.25 132.2 129.05 131.85 129.95 131.4 129.1 133.6 128.15 135.7 129.45 134.45 128.6 136.95 Q127.95 138.5 127.8 139.45 L128.9 138.3 Q128.1 143.2 130.0 151.1 L130.0 151.15 123.55 140.45 123.35 140.05 117.6 128.7 Q113.15 119.95 111.55 117.95 109.95 115.9 109.7 112.3 L109.75 109.1 109.35 113.9 108.25 105.8 107.5 110.95 106.6 107.55 Q104.2 98.8 104.55 95.85 104.8 94.0 101.3 88.9 L99.05 85.8 95.0 80.0 Q92.7 76.55 88.1 63.4 L87.6 61.8" fill="#000000" fill-opacity="0.2" fill-rule="evenodd" stroke="none"/>
    <path d="M212.7 95.8 L212.0 98.45 Q211.1 101.35 208.45 107.2 205.95 112.85 205.0 116.0 203.35 121.75 204.0 125.3 204.2 126.6 203.85 127.25 205.6 128.15 208.65 127.35 L213.5 125.95 211.05 127.75 214.75 127.2 212.95 128.3 222.25 127.5 Q227.7 127.15 231.7 127.55 L239.95 128.25 248.25 127.85 247.5 128.75 246.9 129.7 247.95 129.7 249.0 129.7 248.25 130.5 251.6 130.5 254.8 130.75 Q248.65 134.2 247.75 140.4 L248.75 139.45 Q248.85 140.6 248.05 142.5 247.0 144.9 246.9 145.45 L247.8 145.15 248.75 144.7 248.7 145.1 Q244.2 146.7 241.2 146.6 L242.15 145.9 237.1 146.3 232.0 146.7 233.9 145.65 229.6 145.8 225.3 145.85 228.55 144.05 Q226.9 144.15 224.5 144.8 L220.55 145.85 222.75 144.4 225.25 143.4 216.85 144.85 208.45 145.85 Q209.45 145.3 211.9 144.45 L215.3 142.95 207.65 143.25 Q210.55 142.05 211.15 141.55 L207.3 142.3 203.4 142.6 207.55 140.1 201.2 140.35 Q199.0 138.35 196.3 134.6 L197.3 134.1 Q197.95 123.4 198.85 117.65 L198.8 118.6 Q199.2 116.5 200.75 113.6 L203.2 108.8 202.95 110.8 204.9 106.3 Q206.0 103.55 206.2 101.55 L206.25 108.2 Q206.2 106.4 208.7 102.15 209.55 100.6 212.45 96.2 L212.7 95.8 M93.65 61.05 L93.95 61.55 94.0 61.7 94.05 61.8 Q96.5 65.95 98.05 67.05 L97.5 61.4 Q97.65 62.8 99.05 64.75 L99.75 65.7 Q101.6 68.15 103.25 69.25 103.4 68.4 102.95 67.05 L102.5 64.9 104.3 67.35 106.25 69.65 Q106.75 68.35 106.6 66.85 113.75 76.35 116.15 78.8 122.35 85.15 128.95 86.3 L132.05 86.75 135.85 99.15 133.3 98.8 135.35 104.35 135.9 106.15 136.05 106.65 134.7 109.25 Q132.55 113.6 130.85 120.5 L130.55 121.75 130.45 121.35 130.05 122.6 129.5 123.8 Q127.15 121.9 126.55 116.5 L126.2 108.1 Q125.2 109.95 124.4 112.35 L124.1 106.15 124.05 105.15 Q123.75 100.7 123.0 98.15 121.8 100.6 121.5 102.0 120.95 97.05 120.4 94.85 119.45 95.85 119.3 97.85 L119.3 101.3 117.55 94.45 Q116.4 90.5 114.6 88.15 L114.45 89.1 110.75 85.6 Q108.75 83.5 107.6 81.6 L107.55 83.2 107.45 84.8 Q102.8 79.9 101.6 76.15 L102.0 79.9 99.05 75.0 96.35 70.1 Q93.8 65.05 93.65 61.1 L93.65 61.05" fill="#000000" fill-opacity="0.29803923" fill-rule="evenodd" stroke="none"/>
    <path d="M4.15 166.0 L4.15 166.15 4.15 166.05 4.15 166.0" fill="#ffffff" fill-opacity="0.14901961" fill-rule="evenodd" stroke="none"/>
    <path d="M92.7 59.35 L93.5 60.85 92.9 59.75 92.7 59.35 M140.3 88.75 L141.15 89.15 142.05 89.65 141.2 89.2 140.3 88.75" fill="#aeb0b2" fill-rule="evenodd" stroke="none"/>
    <path d="M35.0 60.75 L35.0 60.6 35.0 60.45 35.0 60.75" fill="#ffffff" fill-opacity="0.09803922" fill-rule="evenodd" stroke="none"/>
    <path d="M31.8 33.8 L32.45 34.35 33.25 35.3 33.95 39.1 Q32.6 37.75 32.05 35.6 L31.8 33.8 M42.95 35.1 L42.65 34.35 Q42.35 34.05 41.9 34.05 41.45 34.05 41.15 34.35 40.85 34.65 40.85 35.1 40.85 35.55 41.15 35.85 41.45 36.15 41.9 36.15 L42.65 35.85 42.95 35.1 M44.25 35.9 Q43.6 38.8 42.55 39.15 41.75 39.4 40.65 38.4 L39.85 37.55 38.4 35.55 Q38.2 34.85 38.9 34.2 40.25 32.9 44.75 33.1 L44.25 35.9 M37.0 45.2 L35.9 44.95 Q40.05 43.0 38.95 44.4 38.25 45.3 37.0 45.2" fill="#000000" fill-opacity="0.8" fill-rule="evenodd" stroke="none"/>
    <path d="M54.75 60.1 L54.75 60.15 54.55 60.6 54.75 60.1" fill="#ced0d1" fill-rule="evenodd" stroke="none"/>
    <path d="M42.95 35.1 L42.65 35.85 41.9 36.15 Q41.45 36.15 41.15 35.85 40.85 35.55 40.85 35.1 40.85 34.65 41.15 34.35 41.45 34.05 41.9 34.05 42.35 34.05 42.65 34.35 L42.95 35.1" fill="#ffffff" fill-opacity="0.8" fill-rule="evenodd" stroke="none"/>
    <path d="M213.95 85.85 Q214.75 83.1 214.75 79.85 L214.7 78.35 Q214.15 70.15 208.85 62.9 L204.05 56.85 Q202.85 55.55 198.9 52.85 195.35 50.45 194.15 48.6 L195.5 48.55 196.85 48.5 Q195.95 47.6 193.75 46.55 191.5 45.5 190.6 44.65 L192.45 44.9 Q191.95 43.5 189.95 42.25 188.25 41.25 186.45 40.8 L188.25 41.05 190.0 41.05 Q189.3 39.9 187.15 38.85 L183.75 37.2 185.75 37.15 Q184.85 36.65 182.55 35.95 180.4 35.25 179.35 34.55 181.1 35.4 182.45 35.25 180.35 33.7 178.6 31.85 L175.3 28.1 Q173.75 26.25 170.5 24.1 L165.2 20.7 Q155.7 14.6 145.45 10.8 L142.6 9.8 Q138.2 8.35 130.5 7.25 L118.4 5.2 Q107.8 2.55 92.7 2.3 L66.65 2.7 67.6 1.95 68.2 1.1 65.05 1.25 61.9 1.25 62.1 0.0 59.4 2.35 59.8 0.55 58.4 1.25 M58.1 1.35 L56.2 2.3 Q48.8 5.9 43.15 9.8 32.75 17.1 31.75 24.8 L29.3 27.15 Q27.85 28.75 27.7 29.6 L27.7 29.95 27.9 30.3 31.75 33.65 31.8 33.8 32.45 34.35 33.25 35.3 33.95 39.1 34.0 39.15 33.8 40.7 Q33.9 41.6 34.55 42.45 L33.25 49.85 Q32.5 57.7 35.1 60.15 L35.05 60.5 35.65 60.45 M153.85 182.2 L156.55 178.95 Q154.9 183.0 154.95 184.85 157.2 181.1 158.25 175.65 L158.5 176.85 158.85 178.05 Q158.8 177.85 159.5 176.35 L160.3 174.4 Q160.6 172.85 160.5 169.55 160.3 165.8 160.7 158.1 L161.3 149.95 Q161.45 144.95 160.4 141.95 L162.4 145.1 Q162.55 143.45 161.8 140.75 L160.7 136.4 162.3 138.3 162.15 134.75 Q161.8 132.1 161.8 131.2 L162.05 131.85 Q162.15 126.3 164.65 122.9 L165.45 123.9 166.2 124.75 Q167.2 123.8 169.0 121.25 169.0 122.55 168.2 123.85 L168.35 123.7 Q169.3 122.85 170.4 121.95 L171.2 121.35 171.35 124.05 171.4 131.05 Q171.45 135.25 171.95 138.0 172.8 142.4 174.05 144.9 175.8 148.35 179.0 149.75 177.9 148.65 177.9 147.2 L181.95 149.55 181.15 147.8 Q181.95 148.85 183.55 149.95 L186.3 151.8 185.85 150.7 185.4 149.6 Q191.6 152.45 199.95 153.85 207.35 155.15 215.2 155.1 L223.05 155.25 230.85 155.4 239.35 154.55 Q243.55 154.45 245.3 156.3 M213.15 87.9 L213.4 87.4 213.95 85.85 213.2 93.35 212.75 95.7 212.7 95.8 212.0 98.45 Q211.1 101.35 208.45 107.2 205.95 112.85 205.0 116.0 203.35 121.75 204.0 125.3 204.2 126.6 203.85 127.25 205.6 128.15 208.65 127.35 L213.5 125.95 211.05 127.75 214.75 127.2 212.95 128.3 222.25 127.5 Q227.7 127.15 231.7 127.55 L239.95 128.25 248.25 127.85 247.5 128.75 246.9 129.7 247.95 129.7 249.0 129.7 248.25 130.5 251.6 130.5 254.8 130.75 Q261.25 129.8 262.2 138.3 262.85 143.85 261.2 152.1 260.5 155.7 261.45 161.85 262.3 167.05 261.5 168.1 262.65 170.4 262.85 173.8 263.0 176.9 262.35 178.05 261.5 179.4 260.65 174.45 L260.65 175.9 Q260.55 177.7 259.85 179.4 L259.6 179.95 260.1 181.65 Q260.25 183.05 256.4 180.0 L255.85 180.85 Q254.6 182.65 253.2 183.0 251.7 183.35 252.1 181.75 252.5 180.2 253.5 179.4 253.95 179.05 253.0 177.15 M248.7 145.1 L248.75 144.7 M70.15 37.75 L69.75 38.0 M54.4 60.85 L54.2 61.25 M51.9 65.55 L44.4 75.8 44.15 76.0 43.65 76.45 42.55 77.25 47.8 74.2 46.95 76.65 Q45.35 79.55 41.7 81.95 L48.6 78.65 Q43.9 85.8 39.8 89.15 30.15 96.8 23.75 113.45 L26.8 109.85 23.1 116.85 Q19.05 124.8 17.15 129.45 L19.9 126.7 17.35 131.45 Q14.6 136.6 13.55 138.85 12.75 140.65 10.45 147.35 8.1 153.7 6.1 155.7 L8.6 154.0 Q11.05 152.4 10.5 152.9 L7.0 155.6 Q3.9 158.15 3.05 160.35 L6.1 159.8 Q4.95 160.2 4.35 161.6 L4.05 165.6 4.15 166.05 4.15 166.15 4.25 166.4 4.45 167.25 M14.4 170.85 L14.9 173.65 M18.7 173.1 Q20.15 168.0 22.65 164.5 L32.0 148.55 Q39.5 135.9 44.45 131.4 48.8 127.5 55.7 116.0 62.2 105.2 64.65 103.5 L60.75 104.6 63.1 102.85 Q65.8 101.0 67.65 100.45 L63.8 99.6 65.45 98.25 Q67.25 96.95 67.95 97.15 L65.2 96.05 Q66.15 93.45 67.8 90.0 71.1 83.15 74.55 79.2 L80.75 71.55 85.05 65.55 85.25 65.35 87.6 61.8 M99.05 64.75 L99.75 65.7 Q101.6 68.15 103.25 69.25 103.4 68.4 102.95 67.05 L102.5 64.9 104.3 67.35 106.25 69.65 Q106.75 68.35 106.6 66.85 M132.05 86.75 L133.2 86.85 133.25 86.85 137.45 87.55 Q138.6 87.85 140.3 88.75 L141.2 89.2 142.05 89.65 143.05 90.15 144.7 90.85 144.75 90.85 144.8 90.85 Q142.95 92.4 141.5 95.5 L139.2 100.75 136.35 106.15 M130.6 153.65 L132.9 163.8 Q133.8 171.25 133.6 175.0 L132.8 179.9 Q132.15 182.95 132.25 184.85 L132.9 183.9 133.55 186.4 Q130.0 188.0 126.5 187.7 L117.95 185.05 Q111.3 182.9 108.55 183.85 L101.75 185.9 Q98.1 187.2 96.4 189.65 L95.75 191.2 98.6 191.3 Q103.3 189.35 111.85 187.7 108.0 189.0 104.45 190.55 97.45 193.7 99.15 194.9 100.75 196.0 107.6 193.9 114.8 191.65 115.45 191.85 116.1 192.05 108.55 195.7 101.45 199.15 105.2 199.3 108.05 199.45 113.9 198.2 L122.35 197.9 133.45 200.6 Q140.9 202.25 146.65 202.05 L156.35 201.5 Q159.2 201.0 158.25 199.3 157.4 197.75 155.4 189.1 L153.85 182.2 M88.1 63.4 Q92.7 76.55 95.0 80.0 L99.05 85.8 101.3 88.9 Q104.8 94.0 104.55 95.85 104.2 98.8 106.6 107.55 L107.5 110.95 108.25 105.8 109.35 113.9 109.75 109.1 109.7 112.3 Q109.95 115.9 111.55 117.95 113.15 119.95 117.6 128.7 L123.35 140.05 123.55 140.45 130.0 151.15 M31.8 33.8 L32.05 35.6 Q32.6 37.75 33.95 39.1 M35.0 60.6 L35.0 60.75 34.85 61.1 34.85 61.85 Q35.0 62.45 35.4 62.7 L35.45 62.7 36.45 62.9 38.95 62.9 41.9 64.7 Q44.95 66.0 48.7 65.85 L50.8 65.65 51.9 65.55 M35.05 60.5 L35.0 60.75 M3.05 168.5 Q0.0 176.15 0.0 179.4 0.0 182.9 4.5 186.5 8.0 189.35 11.9 190.75 L21.8 191.5 22.65 191.55 M21.8 191.5 L28.65 191.25 Q32.85 190.5 34.0 189.35 35.1 188.25 23.5 187.15 L27.85 187.45 Q32.5 187.55 33.7 186.35 34.9 185.15 30.0 184.6 L23.75 184.1 Q22.9 183.95 21.3 182.9 L19.9 181.9 23.3 182.85 Q27.0 183.6 28.75 182.75 30.55 181.85 30.3 181.1 L29.0 179.7 Q28.3 179.0 24.45 178.85 L20.75 178.85 18.7 173.1 M135.9 106.15 L135.35 104.35 133.3 98.8 135.85 99.15 132.05 86.75" fill="none" stroke="#000000" stroke-linecap="round" stroke-linejoin="miter-clip" stroke-miterlimit="4.0" stroke-width="1.0"/>
    <path d="M35.65 60.45 Q37.15 60.25 38.75 59.55 40.35 58.85 41.8 57.75 43.45 56.5 44.95 54.75 L47.8 50.75 M140.85 193.4 Q141.75 189.7 144.15 188.0 L144.45 189.95 144.5 192.05 145.65 189.35 Q146.7 186.95 147.75 185.85 L147.6 188.05 147.25 190.2 Q148.7 188.1 151.8 184.55 L153.85 182.2 M171.2 121.35 L172.05 120.65 Q175.2 118.3 179.55 115.75 L179.95 115.5 192.2 107.9 Q201.55 101.0 209.4 93.25 211.85 90.85 213.15 87.9 M253.0 177.15 Q247.6 172.45 245.75 170.05 244.65 168.6 245.05 161.85 L245.3 156.3 246.25 157.85 246.1 155.25 Q246.0 153.65 244.7 153.4 L248.15 149.1 Q246.7 150.15 245.6 150.4 L247.2 147.75 247.35 147.55 248.4 145.9 M248.75 144.7 L247.8 145.15 246.9 145.45 Q247.0 144.9 248.05 142.5 248.85 140.6 248.75 139.45 L247.75 140.4 Q248.65 134.2 254.8 130.75 M69.75 38.0 L68.7 38.65 66.65 40.15 66.35 40.4 65.15 41.4 Q62.5 43.7 61.3 46.05 60.15 48.3 54.75 60.1 L54.55 60.6 54.4 60.85 M54.2 61.25 L52.95 63.65 51.9 65.55 M4.45 167.25 L6.1 165.05 7.25 168.05 Q8.8 171.3 10.5 172.5 L10.8 169.2 11.4 171.3 12.35 173.15 13.9 175.1 14.1 175.3 14.4 170.85 M14.9 173.65 Q15.8 176.7 17.7 178.05 17.9 176.1 18.6 173.45 L18.7 173.1 M87.6 61.8 L89.15 59.3 91.05 56.0 Q92.45 53.25 93.05 51.3 M93.5 60.85 L93.65 61.05 93.95 61.55 94.0 61.7 94.05 61.8 Q96.5 65.95 98.05 67.05 L97.5 61.4 Q97.65 62.8 99.05 64.75 M106.6 66.85 Q113.75 76.35 116.15 78.8 122.35 85.15 128.95 86.3 L132.05 86.75 M136.35 106.15 L136.05 106.65 134.7 109.25 Q132.55 113.6 130.85 120.5 L130.55 121.75 128.25 132.2 129.05 131.85 129.95 131.4 129.1 133.6 128.15 135.7 129.45 134.45 128.6 136.95 Q127.95 138.5 127.8 139.45 L128.9 138.3 Q128.1 143.2 130.0 151.1 L130.0 151.15 130.6 153.65 M133.55 186.4 L134.25 188.55 Q135.55 187.65 135.3 186.1 L136.65 188.35 138.0 190.45 138.35 189.15 138.95 190.35 139.0 190.35 140.85 193.4 M92.7 59.35 L92.9 59.75 93.5 60.85 M88.1 63.4 L87.6 61.8 M70.6 16.6 L70.15 15.95 Q69.15 14.75 67.8 14.0 L67.7 13.95 Q65.4 12.7 62.95 13.2 61.35 13.55 60.2 14.35 L60.1 14.45 59.8 14.65 Q58.35 15.8 57.75 17.75 57.2 19.55 57.45 21.2 M65.2 31.4 L67.05 31.25 67.65 30.6 Q74.15 24.1 71.3 17.85 L70.6 16.6 M4.15 166.05 L4.15 166.0 M3.05 168.5 L4.15 166.05 M136.05 106.65 L135.9 106.15" fill="none" stroke="#000000" stroke-linecap="round" stroke-linejoin="miter-clip" stroke-miterlimit="4.0" stroke-opacity="0.6" stroke-width="1.0"/>
    <path d="M257.7 141.4 Q258.15 144.5 257.0 148.05 L254.4 154.15 Q250.95 161.75 253.25 167.15 M261.5 168.1 Q260.85 168.95 259.4 169.85 L260.0 171.4 Q260.6 173.25 260.65 174.45 M259.6 179.95 L258.25 177.5 257.1 175.75 254.3 171.95 257.0 171.0 257.3 170.85 259.4 169.85 M257.0 171.0 L257.8 173.8 Q258.4 176.4 258.25 177.5 M253.0 177.15 L253.75 177.8 256.4 180.0 M22.65 191.55 Q22.95 190.25 22.6 189.0 L22.15 187.95 Q21.25 186.65 19.05 186.9 L15.0 186.55 14.4 185.75 9.15 181.35 Q10.4 179.3 11.4 176.35 L12.35 173.15" fill="none" stroke="#000000" stroke-linecap="round" stroke-linejoin="miter-clip" stroke-miterlimit="4.0" stroke-opacity="0.4" stroke-width="1.0"/>
  </g>
</svg>
