<?xml version="1.0" encoding="UTF-8" standalone="no"?>
<svg xmlns:xlink="http://www.w3.org/1999/xlink" height="303.6px" width="291.65px" xmlns="http://www.w3.org/2000/svg">
  <g transform="matrix(1.0, 0.0, 0.0, 1.0, 0.5, 0.5)">
    <path d="M264.45 36.4 L264.35 37.15 267.65 43.15 267.85 47.3 Q267.8 52.05 266.25 54.75 264.55 57.8 264.4 60.85 264.3 63.35 265.25 66.4 L264.05 65.55 Q263.4 63.1 263.5 61.05 263.65 58.0 265.35 54.95 266.75 52.5 266.95 48.5 267.35 46.7 266.95 44.0 L266.8 43.95 266.75 43.35 264.95 40.05 264.1 42.2 262.95 42.95 261.75 43.55 260.75 44.65 Q259.65 46.1 259.3 48.55 258.95 50.7 259.85 54.35 L260.25 55.9 261.5 60.15 Q262.3 63.15 263.0 65.05 L261.35 64.55 Q255.7 64.4 254.2 67.75 253.05 70.35 254.15 71.85 L254.35 72.1 Q251.45 73.05 249.65 72.15 248.25 71.45 247.75 71.5 247.25 71.55 247.9 72.3 L248.7 73.1 249.75 73.95 251.25 74.75 253.1 75.65 Q255.15 76.6 256.2 76.75 L258.1 76.9 258.9 76.7 Q260.65 76.2 261.85 75.0 L262.0 74.85 262.2 74.8 263.55 74.35 Q262.25 75.95 260.3 76.5 L261.05 77.4 Q261.25 78.45 258.4 79.15 L253.85 79.45 253.05 79.25 Q252.35 79.05 251.75 78.6 250.6 77.85 249.55 76.5 L249.45 76.45 248.2 75.9 247.3 75.5 246.05 75.0 244.8 74.5 244.2 77.5 242.65 87.3 Q239.65 103.6 234.45 112.2 230.4 118.9 227.35 136.1 224.25 153.75 222.5 157.05 220.35 161.1 217.4 165.3 214.4 169.5 212.15 173.8 L212.1 173.9 Q208.3 181.05 207.3 185.55 205.9 191.95 206.0 214.3 206.05 225.5 206.4 235.4 L205.85 243.95 Q205.35 253.25 205.45 256.9 L205.1 273.95 Q205.35 287.3 208.85 290.8 212.35 294.3 214.5 298.7 215.6 300.85 215.95 302.35 L202.0 302.6 201.05 298.6 Q199.7 294.3 197.55 292.5 195.35 290.7 195.6 285.8 L196.25 281.2 Q192.7 250.5 189.7 237.35 187.85 229.1 186.55 218.15 L185.6 208.85 182.25 196.0 182.2 195.85 Q179.5 186.25 177.3 180.95 L175.75 177.7 175.35 176.95 Q173.1 173.05 171.85 169.15 170.4 165.9 170.45 165.45 155.95 165.6 138.9 163.4 104.7 159.1 91.75 147.55 L91.5 154.0 Q90.35 161.95 85.8 169.3 78.05 181.65 52.35 204.1 L51.55 204.75 34.25 219.95 Q26.4 227.3 25.05 230.8 23.3 235.35 24.65 246.9 25.25 252.3 26.5 259.2 28.45 270.05 30.95 279.6 L33.55 284.35 36.2 288.2 38.95 291.65 Q37.3 298.3 37.1 302.35 31.2 303.3 27.75 300.8 25.95 294.7 26.4 291.05 26.75 288.35 24.9 284.55 L23.4 281.8 19.85 276.85 18.1 247.3 Q16.45 217.2 16.8 214.7 17.1 212.95 25.45 202.7 35.35 190.55 39.85 182.5 45.05 173.2 43.5 169.5 43.05 168.35 41.95 167.9 L40.95 167.7 Q24.1 148.7 20.75 120.8 19.75 112.1 20.15 103.5 L20.8 96.7 Q22.7 94.3 25.35 92.35 33.7 86.0 49.15 83.8 L52.3 83.4 59.15 82.9 90.25 87.2 93.05 88.3 Q95.25 89.2 96.85 89.7 L100.8 91.65 Q105.15 93.7 107.2 94.3 L122.85 97.8 Q136.7 100.7 142.6 101.45 L157.9 102.9 Q167.2 103.45 172.95 102.95 178.6 102.5 193.65 98.65 207.55 95.1 210.05 93.95 211.7 93.15 215.7 87.95 L218.9 83.55 219.05 83.3 219.35 82.85 223.35 75.65 Q224.35 73.25 226.6 62.0 228.95 50.15 228.85 46.8 228.75 42.85 227.9 39.65 L227.05 37.25 Q224.8 37.15 221.85 36.25 215.95 34.4 212.5 30.3 209.35 26.55 209.1 17.2 L209.05 15.4 209.05 15.1 209.05 14.45 Q209.15 7.65 210.15 2.8 210.55 1.1 213.55 2.45 215.65 3.4 223.45 7.45 229.2 10.25 229.8 15.9 230.15 18.9 229.5 23.0 229.7 24.7 233.3 26.85 235.1 27.95 236.85 28.7 242.4 23.9 251.25 25.2 L257.7 26.2 261.05 28.35 Q263.8 30.85 264.35 34.0 L264.45 36.4 M234.2 47.9 Q234.45 48.7 234.85 49.3 237.1 52.55 243.05 50.55 L243.0 49.5 Q243.8 48.6 243.15 46.7 242.55 44.8 241.65 43.85 240.7 42.8 239.0 42.3 235.3 41.2 233.25 42.55 230.95 44.0 233.8 47.45 L234.2 47.9 M260.3 76.5 L258.1 76.9 260.3 76.5 M236.2 72.75 Q238.75 72.3 244.4 74.35 L244.8 74.5 244.4 74.35 Q238.75 72.3 236.2 72.75 M222.45 9.35 L218.95 7.7 Q212.4 3.2 211.6 9.75 211.15 13.45 211.55 22.2 211.1 26.4 218.9 29.3 222.85 30.8 226.85 31.4 225.45 22.8 225.75 16.1 225.95 11.9 222.45 9.35 M213.7 143.45 Q217.15 143.0 217.8 142.45 219.35 141.1 219.1 139.45 218.8 137.7 216.8 137.1 214.1 136.25 211.6 138.65 209.2 140.95 209.3 143.7 L213.7 143.45 M195.15 111.25 Q196.75 110.7 197.85 109.0 198.95 107.25 198.7 105.7 198.45 104.0 196.55 103.5 194.2 102.95 191.9 105.85 189.55 108.8 191.65 110.55 193.3 111.9 195.15 111.25 M184.55 119.15 Q183.9 119.45 182.35 121.4 180.7 123.45 181.7 123.55 L186.95 124.3 191.85 124.0 Q194.9 121.6 190.9 119.8 187.0 118.1 184.55 119.15 M173.35 110.5 Q168.45 113.55 173.6 115.75 176.95 117.2 179.4 113.8 181.65 110.7 180.95 107.6 177.3 108.05 173.35 110.5 M167.05 141.65 Q163.9 142.25 162.4 143.3 160.1 144.8 160.55 147.45 L168.6 147.05 Q172.55 146.0 175.9 143.6 176.5 143.15 172.25 142.3 L167.05 141.65 M173.6 131.55 Q175.9 130.25 174.5 128.25 173.15 126.4 170.9 126.3 168.6 126.2 167.9 127.4 167.25 128.4 168.0 129.8 168.8 131.2 170.25 131.8 171.95 132.45 173.6 131.55 M163.1 117.95 Q164.1 116.3 163.25 114.25 162.3 111.9 158.95 111.65 155.6 111.45 154.1 113.55 152.0 116.45 154.55 118.75 157.0 120.95 160.05 120.1 162.2 119.5 163.1 117.95 M182.25 141.25 Q184.55 142.55 187.3 143.25 191.65 144.45 191.75 141.95 191.85 138.4 187.85 138.7 184.15 139.0 182.25 141.25 M198.25 127.85 Q192.85 129.35 194.4 133.05 195.9 136.5 201.0 135.0 206.15 133.5 204.85 129.75 204.3 128.2 202.3 127.7 L198.25 127.85 M187.6 150.5 Q184.55 148.1 180.5 150.5 176.5 152.8 176.3 156.65 180.2 158.4 186.4 156.55 192.85 154.6 187.6 150.5 M170.55 163.25 L171.25 167.15 171.85 169.15 171.25 167.15 170.55 163.25 M198.45 291.95 L202.75 291.5 201.65 290.3 Q199.35 288.05 199.9 283.3 L200.45 278.1 Q199.85 277.15 199.55 270.45 199.25 264.1 199.5 258.75 199.65 255.7 194.0 230.15 188.25 204.25 188.3 198.5 188.35 194.85 185.85 189.05 184.3 185.4 181.8 180.95 L181.25 180.0 Q177.3 173.1 171.95 165.65 173.15 171.1 176.25 176.35 177.25 178.1 178.45 180.95 180.5 186.05 183.0 194.85 L183.1 195.25 Q185.1 202.3 186.5 208.3 L187.45 217.6 Q188.75 228.55 190.6 236.8 193.6 249.95 197.15 280.65 L196.5 285.25 Q196.3 290.15 198.45 291.95 200.6 293.75 201.9 297.85 202.6 299.9 202.8 301.6 L209.0 301.45 Q206.25 296.35 204.15 293.35 201.55 293.6 198.45 291.95 M208.85 290.8 Q208.0 292.05 206.3 292.8 L204.15 293.35 206.3 292.8 Q208.0 292.05 208.85 290.8 M100.6 95.85 Q98.4 96.4 98.4 98.15 98.4 100.15 101.65 100.6 104.9 101.0 105.65 99.2 106.2 98.0 105.65 97.1 L105.15 96.55 Q103.9 95.35 101.2 95.7 L100.6 95.85 M86.45 97.15 Q83.8 94.4 81.25 97.4 80.25 98.6 81.0 100.55 81.65 102.35 83.25 103.8 84.9 105.3 86.3 105.2 87.9 105.15 88.35 102.9 89.0 99.8 86.45 97.15 M33.55 284.35 Q31.65 285.2 28.75 285.1 L24.9 284.55 28.75 285.1 Q31.65 285.2 33.55 284.35 M60.55 92.2 Q66.45 92.1 62.45 87.25 L61.15 86.1 Q59.4 85.0 57.0 85.5 56.3 85.65 55.65 85.95 54.7 86.4 53.85 87.1 52.35 88.35 51.85 89.95 54.95 92.25 60.55 92.2 M68.45 96.05 Q69.45 96.85 73.05 97.05 76.85 97.25 77.25 95.95 77.8 94.1 74.3 93.2 L69.45 92.6 Q67.2 92.65 66.75 93.45 66.2 94.35 68.45 96.05 M75.1 109.3 Q78.6 107.1 76.9 104.5 75.25 101.9 71.6 103.4 69.25 104.35 68.6 105.95 68.05 107.3 68.95 108.55 69.85 109.8 71.5 110.1 73.3 110.4 75.1 109.3 M73.35 119.1 Q70.95 121.4 71.05 124.15 L75.45 123.9 Q78.9 123.45 79.55 122.9 81.1 121.55 80.85 119.9 80.55 118.15 78.55 117.55 75.85 116.7 73.35 119.1 M54.1 113.3 Q51.9 114.9 52.5 116.5 53.0 117.85 55.3 118.7 57.5 119.5 59.65 119.3 62.05 119.05 62.85 117.6 64.55 114.45 60.35 113.0 56.3 111.65 54.1 113.3 M47.4 100.05 L46.45 100.1 Q42.5 100.75 43.65 103.2 44.7 105.55 48.0 105.9 52.2 106.35 51.5 103.25 50.85 100.15 47.4 100.05 M46.35 128.9 Q44.3 129.55 44.35 131.0 44.45 133.65 50.85 134.0 57.25 134.35 57.3 133.3 57.45 129.5 50.85 128.65 L46.35 128.9 M69.45 136.45 Q65.55 134.75 63.1 135.8 62.45 136.1 60.9 138.05 59.25 140.1 60.25 140.2 L65.5 140.95 70.4 140.65 Q73.45 138.25 69.45 136.45 M78.25 154.95 Q81.4 157.15 84.55 155.45 85.75 154.75 85.25 153.9 84.65 152.85 81.9 152.05 L77.0 151.85 Q74.9 152.6 78.25 154.95 M124.45 102.2 Q125.7 101.3 125.3 100.4 124.95 99.65 123.55 98.9 121.2 97.7 118.3 99.6 L117.55 100.1 Q116.2 101.1 116.55 101.95 116.95 102.95 119.55 103.35 122.3 103.8 124.45 102.2 M140.15 107.05 Q136.2 106.45 136.4 109.15 136.6 111.8 140.65 112.0 144.75 112.2 144.1 109.85 143.45 107.55 140.15 107.05 M155.75 104.9 L155.3 104.35 Q154.3 103.55 152.35 103.7 L150.85 103.9 Q147.4 104.65 147.55 107.65 154.3 109.25 155.5 106.85 156.15 105.65 155.75 104.9 M125.1 115.4 Q127.4 114.1 126.0 112.1 124.65 110.25 122.4 110.15 120.1 110.05 119.4 111.25 118.75 112.25 119.5 113.65 120.3 115.05 121.75 115.65 123.45 116.3 125.1 115.4 M124.5 126.25 Q123.85 126.55 122.3 128.5 120.65 130.55 121.65 130.65 L126.9 131.4 131.8 131.1 Q134.85 128.7 130.85 126.9 126.95 125.2 124.5 126.25 M141.6 136.95 Q139.4 138.55 140.0 140.15 140.5 141.5 142.8 142.35 145.0 143.15 147.15 142.95 149.55 142.7 150.35 141.25 152.05 138.1 147.85 136.65 143.8 135.3 141.6 136.95 M122.9 143.0 Q124.1 142.6 121.6 141.15 119.1 139.7 118.05 139.8 115.2 139.95 109.85 144.25 116.75 145.05 122.9 143.0 M110.15 120.2 L108.65 120.4 Q105.2 121.15 105.35 124.15 112.1 125.75 113.3 123.35 113.95 122.15 113.55 121.4 L113.1 120.85 Q112.1 120.05 110.15 120.2 M146.05 128.95 Q147.65 128.9 148.1 126.65 148.75 123.55 146.2 120.9 143.55 118.15 141.0 121.15 140.0 122.35 140.75 124.3 141.4 126.1 143.0 127.55 144.65 129.05 146.05 128.95 M103.4 106.7 Q99.75 107.15 95.8 109.6 90.9 112.65 96.05 114.85 99.4 116.3 101.85 112.9 104.1 109.8 103.4 106.7 M98.95 135.2 Q102.1 137.4 105.25 135.7 106.45 135.0 105.95 134.15 105.35 133.1 102.6 132.3 L97.7 132.1 Q95.6 132.85 98.95 135.2 M88.0 130.5 Q87.3 129.2 83.9 129.45 L80.55 129.9 Q81.9 132.15 85.8 132.8 89.7 133.45 88.0 130.5" fill="#ffffff" fill-opacity="0.0" fill-rule="evenodd" stroke="none"/>
    <path d="M285.1 18.85 Q282.85 26.7 279.15 27.95 275.45 29.15 271.0 29.75 L267.35 30.1 Q266.9 27.75 267.0 24.55 267.2 18.15 269.9 14.05 271.55 11.55 275.05 8.65 278.65 5.7 281.85 4.35 290.15 0.85 286.65 11.2 286.25 14.9 285.1 18.85 M16.5 161.4 Q16.35 163.25 17.05 166.25 L17.95 169.35 Q13.25 168.05 10.5 161.85 L8.7 155.9 11.35 166.35 Q1.7 158.35 0.25 142.0 -0.8 130.15 2.55 112.5 4.75 100.8 16.25 95.25 20.7 93.1 24.9 92.4 L22.0 93.1 Q16.8 96.2 13.8 101.55 7.95 111.7 7.2 130.25 L7.7 139.8 Q8.0 147.25 6.7 148.6 8.0 147.3 8.7 143.45 9.5 139.2 10.55 137.6 11.2 139.55 11.2 142.8 11.25 146.85 11.4 148.05 12.25 154.05 16.45 161.55 L16.5 161.4 M222.45 9.35 Q225.95 11.9 225.75 16.1 225.45 22.8 226.85 31.4 222.85 30.8 218.9 29.3 211.1 26.4 211.55 22.2 211.15 13.45 211.6 9.75 212.4 3.2 218.95 7.7 L222.45 9.35" fill="#000000" fill-opacity="0.2" fill-rule="evenodd" stroke="none"/>
    <path d="M163.1 117.95 Q162.2 119.5 160.05 120.1 157.0 120.95 154.55 118.75 152.0 116.45 154.1 113.55 155.6 111.45 158.95 111.65 162.3 111.9 163.25 114.25 164.1 116.3 163.1 117.95 M173.6 131.55 Q171.95 132.45 170.25 131.8 168.8 131.2 168.0 129.8 167.25 128.4 167.9 127.4 168.6 126.2 170.9 126.3 173.15 126.4 174.5 128.25 175.9 130.25 173.6 131.55 M167.05 141.65 L172.25 142.3 Q176.5 143.15 175.9 143.6 172.55 146.0 168.6 147.05 L160.55 147.45 Q160.1 144.8 162.4 143.3 163.9 142.25 167.05 141.65 M182.25 141.25 Q184.15 139.0 187.85 138.7 191.85 138.4 191.75 141.95 191.65 144.45 187.3 143.25 184.55 142.55 182.25 141.25 M198.25 127.85 L202.3 127.7 Q204.3 128.2 204.85 129.75 206.15 133.5 201.0 135.0 195.9 136.5 194.4 133.05 192.85 129.35 198.25 127.85 M187.6 150.5 Q192.85 154.6 186.4 156.55 180.2 158.4 176.3 156.65 176.5 152.8 180.5 150.5 184.55 148.1 187.6 150.5 M73.35 119.1 Q75.85 116.7 78.55 117.55 80.55 118.15 80.85 119.9 81.1 121.55 79.55 122.9 78.9 123.45 75.45 123.9 L71.05 124.15 Q70.95 121.4 73.35 119.1 M69.45 136.45 Q73.45 138.25 70.4 140.65 L65.5 140.95 60.25 140.2 Q59.25 140.1 60.9 138.05 62.45 136.1 63.1 135.8 65.55 134.75 69.45 136.45 M46.35 128.9 L50.85 128.65 Q57.45 129.5 57.3 133.3 57.25 134.35 50.85 134.0 44.45 133.65 44.35 131.0 44.3 129.55 46.35 128.9 M122.9 143.0 Q116.75 145.05 109.85 144.25 115.2 139.95 118.05 139.8 119.1 139.7 121.6 141.15 124.1 142.6 122.9 143.0 M141.6 136.95 Q143.8 135.3 147.85 136.65 152.05 138.1 150.35 141.25 149.55 142.7 147.15 142.95 145.0 143.15 142.8 142.35 140.5 141.5 140.0 140.15 139.4 138.55 141.6 136.95 M98.95 135.2 Q95.6 132.85 97.7 132.1 L102.6 132.3 Q105.35 133.1 105.95 134.15 106.45 135.0 105.25 135.7 102.1 137.4 98.95 135.2" fill="#ffffff" fill-opacity="0.14901961" fill-rule="evenodd" stroke="none"/>
    <path d="M265.25 66.4 L266.8 69.75 Q267.25 72.85 263.55 74.35 L262.2 74.8 262.0 74.85 Q257.2 76.1 254.35 72.1 L254.15 71.85 Q253.05 70.35 254.2 67.75 255.7 64.4 261.35 64.55 L263.0 65.05 264.05 65.55 265.25 66.4 M266.8 43.95 L266.95 44.0 Q267.35 46.7 266.95 48.5 266.45 50.55 264.8 51.25 L262.65 51.6 261.65 51.4 Q261.35 45.5 264.15 44.15 L266.8 43.95 M264.95 45.85 Q264.95 46.65 265.45 46.7 266.0 46.7 266.1 45.9 266.1 45.05 265.55 45.05 265.05 45.0 264.95 45.85 M243.0 49.5 L243.05 50.55 Q237.1 52.55 234.85 49.3 234.45 48.7 234.2 47.9 L233.95 46.85 233.85 45.65 Q239.6 42.55 241.9 46.25 242.8 47.7 243.0 49.5 M258.95 67.0 Q257.85 66.95 257.05 67.35 256.25 67.75 256.2 68.35 256.15 68.95 256.95 69.4 257.7 69.9 258.8 69.95 L260.75 69.6 Q261.55 69.2 261.55 68.6 261.6 68.0 260.85 67.55 260.1 67.1 258.95 67.0 M237.2 46.3 L238.3 46.55 239.4 46.4 239.9 45.95 Q239.9 45.3 238.35 45.2 236.85 45.1 236.75 45.8 L237.2 46.3" fill="#000000" fill-opacity="0.8" fill-rule="evenodd" stroke="none"/>
    <path d="M215.55 171.9 L212.1 173.9 212.15 173.8 215.55 171.9" fill="#c6c8ca" fill-rule="evenodd" stroke="none"/>
    <path d="M96.85 89.7 Q105.05 92.3 115.55 94.75 127.85 97.6 137.65 98.8 L149.0 100.25 161.7 100.8 173.85 99.8 183.55 98.2 Q190.55 97.25 207.3 92.45 211.65 91.2 215.95 86.9 L218.9 83.55 215.7 87.95 Q211.7 93.15 210.05 93.95 207.55 95.1 193.65 98.65 178.6 102.5 172.95 102.95 167.2 103.45 157.9 102.9 L142.6 101.45 Q136.7 100.7 122.85 97.8 L107.2 94.3 Q105.15 93.7 100.8 91.65 L96.85 89.7 M257.7 26.2 L259.35 23.45 Q263.0 17.55 265.35 14.3 L266.6 12.8 Q268.75 10.45 272.55 7.5 271.85 9.2 269.6 11.8 L266.6 15.25 Q263.8 19.35 263.9 27.15 263.95 31.0 264.35 34.0 263.8 30.85 261.05 28.35 L257.7 26.2 M195.15 111.25 Q193.3 111.9 191.65 110.55 189.55 108.8 191.9 105.85 194.2 102.95 196.55 103.5 198.45 104.0 198.7 105.7 198.95 107.25 197.85 109.0 196.75 110.7 195.15 111.25 M173.35 110.5 Q177.3 108.05 180.95 107.6 181.65 110.7 179.4 113.8 176.95 117.2 173.6 115.75 168.45 113.55 173.35 110.5 M86.45 97.15 Q89.0 99.8 88.35 102.9 87.9 105.15 86.3 105.2 84.9 105.3 83.25 103.8 81.65 102.35 81.0 100.55 80.25 98.6 81.25 97.4 83.8 94.4 86.45 97.15 M100.6 95.85 L101.2 95.7 Q103.9 95.35 105.15 96.55 L105.65 97.1 Q106.2 98.0 105.65 99.2 104.9 101.0 101.65 100.6 98.4 100.15 98.4 98.15 98.4 96.4 100.6 95.85 M68.45 96.05 Q66.2 94.35 66.75 93.45 67.2 92.65 69.45 92.6 L74.3 93.2 Q77.8 94.1 77.25 95.95 76.85 97.25 73.05 97.05 69.45 96.85 68.45 96.05 M60.55 92.2 Q54.95 92.25 51.85 89.95 52.35 88.35 53.85 87.1 54.7 86.4 55.65 85.95 56.3 85.65 57.0 85.5 59.4 85.0 61.15 86.1 L62.45 87.25 Q66.45 92.1 60.55 92.2 M155.75 104.9 Q156.15 105.65 155.5 106.85 154.3 109.25 147.55 107.65 147.4 104.65 150.85 103.9 L152.35 103.7 Q154.3 103.55 155.3 104.35 L155.75 104.9 M140.15 107.05 Q143.45 107.55 144.1 109.85 144.75 112.2 140.65 112.0 136.6 111.8 136.4 109.15 136.2 106.45 140.15 107.05 M124.45 102.2 Q122.3 103.8 119.55 103.35 116.95 102.95 116.55 101.95 116.2 101.1 117.55 100.1 L118.3 99.6 Q121.2 97.7 123.55 98.9 124.95 99.65 125.3 100.4 125.7 101.3 124.45 102.2" fill="#ffffff" fill-opacity="0.29803923" fill-rule="evenodd" stroke="none"/>
    <path d="M26.3 162.6 Q23.2 161.05 21.2 158.35 L19.5 155.05 Q18.8 157.85 21.7 163.8 23.15 166.8 24.7 169.2 20.8 168.5 18.3 164.55 L16.55 160.75 16.5 161.4 16.45 161.55 Q12.25 154.05 11.4 148.05 11.25 146.85 11.2 142.8 11.2 139.55 10.55 137.6 9.5 139.2 8.7 143.45 8.0 147.3 6.7 148.6 8.0 147.25 7.7 139.8 L7.2 130.25 Q7.95 111.7 13.8 101.55 16.8 96.2 22.0 93.1 L24.9 92.4 25.35 92.35 Q22.7 94.3 20.8 96.7 12.55 107.0 16.55 131.55 19.45 149.0 26.3 162.6" fill="#000000" fill-opacity="0.29803923" fill-rule="evenodd" stroke="none"/>
    <path d="M213.7 143.45 L209.3 143.7 Q209.2 140.95 211.6 138.65 214.1 136.25 216.8 137.1 218.8 137.7 219.1 139.45 219.35 141.1 217.8 142.45 217.15 143.0 213.7 143.45 M184.55 119.15 Q187.0 118.1 190.9 119.8 194.9 121.6 191.85 124.0 L186.95 124.3 181.7 123.55 Q180.7 123.45 182.35 121.4 183.9 119.45 184.55 119.15 M75.1 109.3 Q73.3 110.4 71.5 110.1 69.85 109.8 68.95 108.55 68.05 107.3 68.6 105.95 69.25 104.35 71.6 103.4 75.25 101.9 76.9 104.5 78.6 107.1 75.1 109.3 M47.4 100.05 Q50.85 100.15 51.5 103.25 52.2 106.35 48.0 105.9 44.7 105.55 43.65 103.2 42.5 100.75 46.45 100.1 L47.4 100.05 M54.1 113.3 Q56.3 111.65 60.35 113.0 64.55 114.45 62.85 117.6 62.05 119.05 59.65 119.3 57.5 119.5 55.3 118.7 53.0 117.85 52.5 116.5 51.9 114.9 54.1 113.3 M78.25 154.95 Q74.9 152.6 77.0 151.85 L81.9 152.05 Q84.65 152.85 85.25 153.9 85.75 154.75 84.55 155.45 81.4 157.15 78.25 154.95 M125.1 115.4 Q123.45 116.3 121.75 115.65 120.3 115.05 119.5 113.65 118.75 112.25 119.4 111.25 120.1 110.05 122.4 110.15 124.65 110.25 126.0 112.1 127.4 114.1 125.1 115.4 M146.05 128.95 Q144.65 129.05 143.0 127.55 141.4 126.1 140.75 124.3 140.0 122.35 141.0 121.15 143.55 118.15 146.2 120.9 148.75 123.55 148.1 126.65 147.65 128.9 146.05 128.95 M110.15 120.2 Q112.1 120.05 113.1 120.85 L113.55 121.4 Q113.95 122.15 113.3 123.35 112.1 125.75 105.35 124.15 105.2 121.15 108.65 120.4 L110.15 120.2 M103.4 106.7 Q104.1 109.8 101.85 112.9 99.4 116.3 96.05 114.85 90.9 112.65 95.8 109.6 99.75 107.15 103.4 106.7 M88.0 130.5 Q89.7 133.45 85.8 132.8 81.9 132.15 80.55 129.9 L83.9 129.45 Q87.3 129.2 88.0 130.5" fill="#ffffff" fill-opacity="0.2" fill-rule="evenodd" stroke="none"/>
    <path d="M52.35 204.1 L47.6 210.6 Q38.55 224.55 38.5 231.85 38.45 239.15 47.05 259.75 51.4 270.05 55.7 278.9 L60.25 282.5 Q65.0 286.75 65.95 290.15 L66.2 295.1 47.8 294.3 Q47.85 292.5 47.4 290.25 46.55 285.85 44.25 283.8 L43.05 282.4 41.8 279.85 40.95 277.35 Q32.25 260.35 28.1 252.95 L24.65 246.9 Q23.3 235.35 25.05 230.8 26.4 227.3 34.25 219.95 L51.55 204.75 52.35 204.1 M263.0 65.05 Q262.3 63.15 261.5 60.15 L260.25 55.9 259.85 54.35 Q258.95 50.7 259.3 48.55 259.65 46.1 260.75 44.65 L261.75 43.55 262.95 42.95 264.1 42.2 264.95 40.05 266.75 43.35 266.8 43.95 264.15 44.15 Q261.35 45.5 261.65 51.4 L262.65 51.6 264.8 51.25 Q266.45 50.55 266.95 48.5 266.75 52.5 265.35 54.95 263.65 58.0 263.5 61.05 263.4 63.1 264.05 65.55 L263.0 65.05 M243.0 49.5 Q242.8 47.7 241.9 46.25 239.6 42.55 233.85 45.65 L233.95 46.85 234.2 47.9 233.8 47.45 Q230.95 44.0 233.25 42.55 235.3 41.2 239.0 42.3 240.7 42.8 241.65 43.85 242.55 44.8 243.15 46.7 243.8 48.6 243.0 49.5 M198.45 291.95 Q201.55 293.6 204.15 293.35 206.25 296.35 209.0 301.45 L202.8 301.6 Q202.6 299.9 201.9 297.85 200.6 293.75 198.45 291.95 M43.05 282.4 Q47.2 284.8 52.35 283.2 55.1 282.35 56.95 280.9 55.1 282.35 52.35 283.2 47.2 284.8 43.05 282.4" fill="#000000" fill-opacity="0.09803922" fill-rule="evenodd" stroke="none"/>
    <path d="M285.1 18.85 Q286.25 14.9 286.65 11.2 290.15 0.85 281.85 4.35 278.65 5.7 275.05 8.65 271.55 11.55 269.9 14.05 267.2 18.15 267.0 24.55 266.9 27.75 267.35 30.1 L271.0 29.75 Q275.45 29.15 279.15 27.95 282.85 26.7 285.1 18.85 M266.6 12.8 Q270.1 8.8 276.95 4.35 279.55 2.7 281.65 1.65 286.75 -0.9 288.9 0.5 289.45 0.85 289.85 1.65 290.55 3.15 290.65 6.2 290.75 10.7 289.45 16.25 286.25 30.05 279.8 32.9 274.1 35.45 266.85 36.25 L264.45 36.4 264.35 34.0 Q263.95 31.0 263.9 27.15 263.8 19.35 266.6 15.25 L269.6 11.8 Q271.85 9.2 272.55 7.5 268.75 10.45 266.6 12.8 M258.4 79.15 Q256.7 95.95 253.2 107.6 L252.3 110.45 245.05 126.15 232.4 147.6 231.0 152.9 215.55 171.9 212.15 173.8 Q214.4 169.5 217.4 165.3 220.35 161.1 222.5 157.05 224.25 153.75 227.35 136.1 230.4 118.9 234.45 112.2 239.65 103.6 242.65 87.3 L244.2 77.5 244.8 74.5 246.05 75.0 247.3 75.5 248.2 75.9 249.45 76.45 249.55 76.5 Q250.6 77.85 251.75 78.6 252.35 79.05 253.05 79.25 L253.85 79.45 258.4 79.15 M182.25 196.0 L180.65 198.3 Q175.6 205.1 172.1 220.55 170.35 228.3 169.6 234.65 L164.25 243.85 Q160.15 251.2 155.55 262.1 L151.75 271.55 152.45 276.1 Q154.4 282.9 154.75 289.45 154.95 292.75 154.75 294.65 150.3 293.6 146.1 291.7 L142.8 290.05 Q143.6 285.0 141.7 282.45 L139.65 280.9 Q138.95 277.15 146.2 252.85 148.25 245.85 156.3 220.55 158.6 213.35 159.7 195.65 L160.25 183.3 Q134.9 185.95 110.6 179.3 100.75 176.6 92.3 172.7 L85.8 169.3 Q90.35 161.95 91.5 154.0 L91.75 147.55 Q104.7 159.1 138.9 163.4 155.95 165.6 170.45 165.45 170.4 165.9 171.85 169.15 173.1 173.05 175.35 176.95 L175.75 177.7 177.3 180.95 Q179.5 186.25 182.2 195.85 L182.25 196.0 M27.75 300.8 L24.35 296.45 24.0 295.45 23.2 293.0 21.25 285.9 Q19.5 283.35 17.9 282.8 16.45 282.25 16.4 283.45 16.35 284.85 15.55 279.1 L12.05 250.9 Q11.05 242.3 6.55 219.25 5.4 213.2 5.45 210.7 5.5 207.65 7.25 207.1 10.2 206.15 16.8 199.55 L27.85 188.7 Q32.25 184.95 32.25 177.75 L31.35 171.3 Q28.6 167.15 26.3 162.6 19.45 149.0 16.55 131.55 12.55 107.0 20.8 96.7 L20.15 103.5 Q19.75 112.1 20.75 120.8 24.1 148.7 40.95 167.7 L41.95 167.9 Q43.05 168.35 43.5 169.5 45.05 173.2 39.85 182.5 35.35 190.55 25.45 202.7 17.1 212.95 16.8 214.7 16.45 217.2 18.1 247.3 L19.85 276.85 23.4 281.8 24.9 284.55 Q26.75 288.35 26.4 291.05 25.95 294.7 27.75 300.8 M249.75 73.95 L248.7 73.1 247.9 72.3 Q247.25 71.55 247.75 71.5 248.25 71.45 249.65 72.15 251.45 73.05 254.35 72.1 257.2 76.1 262.0 74.85 L261.85 75.0 Q260.65 76.2 258.9 76.7 L258.1 76.9 256.2 76.75 Q255.15 76.6 253.1 75.65 L251.25 74.75 249.75 73.95 M198.45 291.95 Q196.3 290.15 196.5 285.25 L197.15 280.65 Q193.6 249.95 190.6 236.8 188.75 228.55 187.45 217.6 L186.5 208.3 Q185.1 202.3 183.1 195.25 L183.0 194.85 Q180.5 186.05 178.45 180.95 177.25 178.1 176.25 176.35 173.15 171.1 171.95 165.65 177.3 173.1 181.25 180.0 L181.8 180.95 Q184.3 185.4 185.85 189.05 188.35 194.85 188.3 198.5 188.25 204.25 194.0 230.15 199.65 255.7 199.5 258.75 199.25 264.1 199.55 270.45 199.85 277.15 200.45 278.1 L199.9 283.3 Q199.35 288.05 201.65 290.3 L202.75 291.5 198.45 291.95 M141.2 273.35 Q144.35 278.0 148.7 277.5 150.9 277.25 152.45 276.1 150.9 277.25 148.7 277.5 144.35 278.0 141.2 273.35 M24.9 284.55 Q20.25 283.2 15.55 279.1 20.25 283.2 24.9 284.55 M160.25 183.3 Q167.65 182.5 175.15 180.95 167.65 182.5 160.25 183.3" fill="#000000" fill-opacity="0.047058824" fill-rule="evenodd" stroke="none"/>
    <path d="M124.5 126.25 Q126.95 125.2 130.85 126.9 134.85 128.7 131.8 131.1 L126.9 131.4 121.65 130.65 Q120.65 130.55 122.3 128.5 123.85 126.55 124.5 126.25" fill="#ffffff" fill-opacity="0.09803922" fill-rule="evenodd" stroke="none"/>
    <path d="M258.95 67.0 Q260.1 67.1 260.85 67.55 261.6 68.0 261.55 68.6 261.55 69.2 260.75 69.6 L258.8 69.95 Q257.7 69.9 256.95 69.4 256.15 68.95 256.2 68.35 256.25 67.75 257.05 67.35 257.85 66.95 258.95 67.0" fill="#ffffff" fill-opacity="0.4" fill-rule="evenodd" stroke="none"/>
    <path d="M264.95 45.85 Q265.05 45.0 265.55 45.05 266.1 45.05 266.1 45.9 266.0 46.7 265.45 46.7 264.95 46.65 264.95 45.85 M237.2 46.3 L236.75 45.8 Q236.85 45.1 238.35 45.2 239.9 45.3 239.9 45.95 L239.4 46.4 238.3 46.55 237.2 46.3" fill="#ffffff" fill-rule="evenodd" stroke="none"/>
    <path d="M266.6 12.8 Q270.1 8.8 276.95 4.35 279.55 2.7 281.65 1.65 286.75 -0.9 288.9 0.5 289.45 0.85 289.85 1.65 290.55 3.15 290.65 6.2 290.75 10.7 289.45 16.25 286.25 30.05 279.8 32.9 274.1 35.45 266.85 36.25 L264.45 36.4 M258.4 79.15 Q256.7 95.95 253.2 107.6 L252.3 110.45 245.05 126.15 232.4 147.6 231.0 152.9 215.55 171.9 212.1 173.9 M182.25 196.0 L180.65 198.3 Q175.6 205.1 172.1 220.55 170.35 228.3 169.6 234.65 L164.25 243.85 Q160.15 251.2 155.55 262.1 L151.75 271.55 152.45 276.1 Q154.4 282.9 154.75 289.45 154.95 292.75 154.75 294.65 150.3 293.6 146.1 291.7 L142.8 290.05 Q143.6 285.0 141.7 282.45 L139.65 280.9 Q138.95 277.15 146.2 252.85 148.25 245.85 156.3 220.55 158.6 213.35 159.7 195.65 L160.25 183.3 Q134.9 185.95 110.6 179.3 100.75 176.6 92.3 172.7 L85.8 169.3 Q78.05 181.65 52.35 204.1 L47.6 210.6 Q38.55 224.55 38.5 231.85 38.45 239.15 47.05 259.75 51.4 270.05 55.7 278.9 L60.25 282.5 Q65.0 286.75 65.95 290.15 L66.2 295.1 47.8 294.3 Q47.85 292.5 47.4 290.25 46.55 285.85 44.25 283.8 L43.05 282.4 41.8 279.85 40.95 277.35 Q32.25 260.35 28.1 252.95 L24.65 246.9 Q25.25 252.3 26.5 259.2 28.45 270.05 30.95 279.6 L33.55 284.35 36.2 288.2 38.95 291.65 Q37.3 298.3 37.1 302.35 31.2 303.3 27.75 300.8 L24.35 296.45 24.0 295.45 23.2 293.0 21.25 285.9 Q19.5 283.35 17.9 282.8 16.45 282.25 16.4 283.45 16.35 284.85 15.55 279.1 L12.05 250.9 Q11.05 242.3 6.55 219.25 5.4 213.2 5.45 210.7 5.5 207.65 7.25 207.1 10.2 206.15 16.8 199.55 L27.85 188.7 Q32.25 184.95 32.25 177.75 L31.35 171.3 Q28.6 167.15 26.3 162.6 23.2 161.05 21.2 158.35 L19.5 155.05 Q18.8 157.85 21.7 163.8 23.15 166.8 24.7 169.2 20.8 168.5 18.3 164.55 L16.55 160.75 16.5 161.4 Q16.35 163.25 17.05 166.25 L17.95 169.35 Q13.25 168.05 10.5 161.85 L8.7 155.9 11.35 166.35 Q1.7 158.35 0.25 142.0 -0.8 130.15 2.55 112.5 4.75 100.8 16.25 95.25 20.7 93.1 24.9 92.4 L25.35 92.35 Q33.7 86.0 49.15 83.8 L52.3 83.4 59.15 82.9 90.25 87.2 93.05 88.3 Q95.25 89.2 96.85 89.7 105.05 92.3 115.55 94.75 127.85 97.6 137.65 98.8 L149.0 100.25 161.7 100.8 173.85 99.8 183.55 98.2 Q190.55 97.25 207.3 92.45 211.65 91.2 215.95 86.9 L218.9 83.55 219.05 83.3 219.35 82.85 223.35 75.65 Q224.35 73.25 226.6 62.0 228.95 50.15 228.85 46.8 228.75 42.85 227.9 39.65 L227.05 37.25 Q224.8 37.15 221.85 36.25 215.95 34.4 212.5 30.3 209.35 26.55 209.1 17.2 L209.05 15.4 209.05 15.1 209.05 14.45 Q209.15 7.65 210.15 2.8 210.55 1.1 213.55 2.45 215.65 3.4 223.45 7.45 229.2 10.25 229.8 15.9 230.15 18.9 229.5 23.0 229.7 24.7 233.3 26.85 235.1 27.95 236.85 28.7 242.4 23.9 251.25 25.2 L257.7 26.2 259.35 23.45 Q263.0 17.55 265.35 14.3 L266.6 12.8 M175.15 180.95 Q167.65 182.5 160.25 183.3" fill="none" stroke="#000000" stroke-linecap="round" stroke-linejoin="miter-clip" stroke-miterlimit="4.0" stroke-width="1.0"/>
    <path d="M264.35 34.0 L264.45 36.4 M257.7 26.2 L261.05 28.35 Q263.8 30.85 264.35 34.0 M249.75 73.95 L251.25 74.75 253.1 75.65 Q255.15 76.6 256.2 76.75 L258.1 76.9 260.3 76.5 M258.4 79.15 L253.85 79.45 253.05 79.25 Q252.35 79.05 251.75 78.6 250.6 77.85 249.55 76.5 L249.45 76.45 248.2 75.9 247.3 75.5 246.05 75.0 244.8 74.5 244.4 74.35 Q238.75 72.3 236.2 72.75 M222.5 157.05 Q220.35 161.1 217.4 165.3 214.4 169.5 212.15 173.8 M171.85 169.15 L171.25 167.15 170.55 163.25 M198.45 291.95 Q201.55 293.6 204.15 293.35 L206.3 292.8 Q208.0 292.05 208.85 290.8 M182.25 196.0 L182.2 195.85 Q179.5 186.25 177.3 180.95 L175.75 177.7 175.35 176.95 Q173.1 173.05 171.85 169.15 M24.9 284.55 L28.75 285.1 Q31.65 285.2 33.55 284.35 M152.45 276.1 Q150.9 277.25 148.7 277.5 144.35 278.0 141.2 273.35 M15.55 279.1 Q20.25 283.2 24.9 284.55 M56.95 280.9 Q55.1 282.35 52.35 283.2 47.2 284.8 43.05 282.4" fill="none" stroke="#000000" stroke-linecap="round" stroke-linejoin="round" stroke-opacity="0.6" stroke-width="1.0"/>
    <path d="M264.45 36.4 L264.35 37.15 267.65 43.15 267.85 47.3 Q267.8 52.05 266.25 54.75 264.55 57.8 264.4 60.85 264.3 63.35 265.25 66.4 M263.55 74.35 Q262.25 75.95 260.3 76.5 L261.05 77.4 Q261.25 78.45 258.4 79.15 M212.1 173.9 Q208.3 181.05 207.3 185.55 205.9 191.95 206.0 214.3 206.05 225.5 206.4 235.4 L205.85 243.95 Q205.35 253.25 205.45 256.9 L205.1 273.95 Q205.35 287.3 208.85 290.8 212.35 294.3 214.5 298.7 215.6 300.85 215.95 302.35 L202.0 302.6 201.05 298.6 Q199.7 294.3 197.55 292.5 195.35 290.7 195.6 285.8 L196.25 281.2 Q192.7 250.5 189.7 237.35 187.85 229.1 186.55 218.15 L185.6 208.85 182.25 196.0 M247.9 72.3 L248.7 73.1 249.75 73.95 M212.15 173.8 L212.1 173.9" fill="none" stroke="#000000" stroke-linecap="round" stroke-linejoin="round" stroke-width="1.0"/>
    <path d="M25.35 92.35 Q22.7 94.3 20.8 96.7 12.55 107.0 16.55 131.55 19.45 149.0 26.3 162.6 M24.65 246.9 Q23.3 235.35 25.05 230.8 26.4 227.3 34.25 219.95 L51.55 204.75 52.35 204.1" fill="none" stroke="#000000" stroke-linecap="round" stroke-linejoin="miter-clip" stroke-miterlimit="4.0" stroke-opacity="0.6" stroke-width="1.0"/>
  </g>
</svg>
