<?xml version="1.0" encoding="UTF-8" standalone="no"?>
<svg xmlns:xlink="http://www.w3.org/1999/xlink" height="762.6px" width="769.2px" xmlns="http://www.w3.org/2000/svg">
  <g transform="matrix(1.0, 0.0, 0.0, 1.0, 0.0, 0.0)">
    <path d="M0.0 3.55 L0.0 0.0 150.9 0.0 Q305.5 173.5 460.05 348.2 769.2 697.5 769.2 703.4 769.2 715.45 746.85 726.45 725.2 737.05 685.75 745.25 602.3 762.6 484.35 762.6 426.35 762.6 376.65 758.35 377.85 758.4 189.25 380.65 L0.35 2.9 0.0 3.55" fill="#ffffff" fill-opacity="0.0" fill-rule="evenodd" stroke="none"/>
    <path d="M376.65 758.35 L336.3 754.6 Q312.85 751.75 283.95 745.5 256.35 739.55 231.05 729.3 223.05 726.05 216.25 722.8 L210.9 720.05 208.15 717.95 208.05 717.95 0.0 84.1 0.0 3.55 0.35 2.9 189.25 380.65 Q377.85 758.4 376.65 758.35" fill="#000000" fill-opacity="0.047058824" fill-rule="evenodd" stroke="none"/>
    <path d="M210.9 720.05 L208.05 717.95 208.15 717.95 210.9 720.05" fill="#ffffff" fill-rule="evenodd" stroke="none"/>
  </g>
</svg>
