<?xml version="1.0" encoding="UTF-8" standalone="no"?>
<svg xmlns:xlink="http://www.w3.org/1999/xlink" height="297.8px" width="1577.6px" xmlns="http://www.w3.org/2000/svg">
  <g transform="matrix(1.0, 0.0, 0.0, 1.0, 0.5, 0.5)">
    <path d="M837.65 296.55 Q845.95 285.7 858.35 278.15 867.05 272.9 880.35 268.15 895.6 262.7 909.45 260.85 946.1 255.95 954.05 277.95 967.25 258.7 984.45 257.5 999.65 256.4 1019.15 269.45 1033.7 242.35 1055.95 230.7 1076.05 220.2 1110.0 218.8 L1126.85 219.55 Q1143.5 221.85 1156.75 230.45 1177.55 243.95 1184.3 269.5 1205.8 256.95 1219.85 254.85 1240.25 251.8 1255.4 266.75 1262.4 246.1 1266.05 236.5 1272.4 220.05 1279.65 209.7 1298.5 182.85 1340.3 174.95 1380.05 167.4 1411.95 193.4 1421.9 201.5 1429.85 212.0 1433.85 217.25 1435.85 220.85 L1438.6 215.8 Q1442.2 209.75 1446.6 204.75 1460.75 188.8 1477.7 189.35 1490.65 189.8 1502.15 196.2 1512.2 201.85 1521.6 212.35 1530.4 179.65 1539.95 162.8 1553.9 138.35 1576.35 130.25 L1576.35 296.8 837.45 296.8 837.65 296.55 M0.0 202.2 Q13.5 198.2 30.05 195.3 63.0 189.45 80.0 194.05 96.95 198.65 120.55 217.55 132.3 227.0 140.7 235.5 142.45 229.8 146.1 223.5 153.5 210.95 163.3 208.25 173.8 205.35 181.7 211.05 186.95 214.85 192.9 224.65 198.95 194.1 223.75 180.6 246.05 168.5 276.2 173.15 305.55 177.75 328.3 195.8 352.65 215.15 358.1 241.95 369.0 236.0 380.6 233.85 394.8 231.15 404.2 235.75 407.75 237.45 413.7 244.3 L418.9 250.75 427.25 246.1 Q436.3 241.15 440.1 239.55 454.85 233.3 468.55 233.55 481.85 233.8 492.25 240.2 502.7 246.65 508.45 258.25 514.5 270.35 514.5 286.35 531.4 273.0 562.55 277.85 588.4 281.85 617.3 296.8 L0.0 296.8 0.0 202.2" fill="#000000" fill-opacity="0.09803922" fill-rule="evenodd" stroke="none"/>
    <path d="M1004.45 121.5 Q1010.05 133.6 1008.65 148.55 1002.05 134.7 988.9 129.75 977.2 125.35 962.15 128.5 948.3 131.45 935.4 139.9 922.6 148.3 915.45 159.0 917.95 137.8 905.35 129.95 894.85 123.4 876.65 126.95 860.6 130.1 848.25 138.45 835.85 146.85 838.95 152.6 830.35 137.3 819.8 126.1 806.4 111.85 793.2 107.3 780.7 102.95 761.1 104.05 738.75 105.3 732.25 114.25 743.55 97.85 757.55 87.25 772.1 76.25 786.4 73.85 801.7 71.25 814.2 79.1 827.9 87.65 836.75 107.8 845.15 92.15 859.8 83.8 874.9 75.2 892.45 76.75 909.85 78.3 922.5 88.65 936.5 100.05 936.6 116.65 936.85 105.5 957.0 101.85 964.95 100.4 973.25 100.7 981.2 101.0 985.2 102.7 998.25 108.2 1004.45 121.5" fill="#000000" fill-opacity="0.047058824" fill-rule="evenodd" stroke="none"/>
    <path d="M1576.35 296.8 L837.45 296.8 837.65 296.55 0.0 296.8 0.0 202.2 0.0 67.4 Q1.85 63.65 6.7 57.9 12.15 51.4 18.5 45.9 35.45 31.25 48.45 32.2 63.9 33.35 71.35 39.15 79.8 45.65 89.55 65.75 96.25 56.6 106.15 49.85 119.1 41.0 130.85 41.9 141.85 42.75 148.2 48.5 151.35 51.35 152.3 54.05 152.25 52.0 152.85 48.95 153.95 42.8 157.05 37.6 167.0 20.9 192.85 19.5 218.75 18.15 232.45 34.75 239.3 43.05 240.95 51.6 L245.15 46.65 Q249.75 41.95 256.85 38.4 279.2 27.25 324.25 28.25 369.05 29.25 414.35 54.5 437.0 67.15 450.65 79.55 L450.75 79.55 Q451.95 79.55 455.35 76.0 L463.1 68.35 Q475.7 57.4 490.1 58.35 505.8 59.4 514.95 65.85 518.5 68.4 522.65 72.75 L530.35 81.15 Q547.95 65.05 553.05 61.4 565.85 52.25 577.7 52.25 586.25 52.25 595.05 55.55 605.15 59.4 608.35 65.45 615.35 45.55 628.25 32.35 648.45 11.75 678.35 13.7 708.75 15.7 727.3 34.9 734.4 42.25 738.5 50.9 742.05 58.35 742.3 64.15 748.25 59.3 751.15 58.2 756.2 56.25 765.3 57.35 773.7 58.35 779.7 64.0 782.7 66.85 784.0 69.45 L793.2 59.4 Q805.2 47.4 819.4 37.55 864.75 6.05 914.65 8.1 965.35 10.2 1002.25 39.3 1014.6 49.0 1023.9 60.7 1030.3 68.7 1032.55 73.65 1033.25 71.25 1038.75 67.65 1046.9 62.35 1058.1 62.75 1069.4 63.15 1077.35 66.9 1081.9 69.05 1084.2 71.55 1084.3 71.15 1089.2 67.85 1095.4 63.6 1102.4 60.0 1124.3 48.75 1143.8 48.85 1163.9 49.0 1181.3 56.95 1191.25 61.55 1201.35 69.55 1199.4 64.15 1199.8 56.25 1200.25 46.05 1205.0 38.3 1207.55 34.15 1213.2 31.8 1218.4 29.7 1224.8 29.65 1231.1 29.6 1236.25 31.65 1241.8 33.75 1244.15 37.55 1248.7 17.85 1285.25 7.05 1299.4 2.9 1315.4 1.1 L1339.9 0.25 Q1357.45 0.55 1376.0 6.85 1393.85 12.95 1409.7 23.65 1425.6 34.4 1436.6 47.8 1448.05 61.8 1452.2 76.5 1458.9 67.45 1467.95 62.15 1477.0 56.85 1485.8 56.85 1497.35 56.85 1506.3 65.8 1514.4 55.7 1522.8 49.3 1537.65 37.95 1550.1 40.65 1563.0 43.45 1569.5 49.65 1573.45 53.4 1576.6 60.9 L1576.35 130.25 1576.35 296.8" fill="#ffffff" fill-opacity="0.0" fill-rule="evenodd" stroke="none"/>
    <path d="M1576.35 296.8 L1576.35 130.25 1576.4 130.2 1576.4 296.8 1576.35 296.8" fill="#dddedf" fill-rule="evenodd" stroke="none"/>
    <path d="M1576.35 130.25 L1576.6 60.9 Q1573.45 53.4 1569.5 49.65 1563.0 43.45 1550.1 40.65 1537.65 37.95 1522.8 49.3 1514.4 55.7 1506.3 65.8 1497.35 56.85 1485.8 56.85 1477.0 56.85 1467.95 62.15 1458.9 67.45 1452.2 76.5 1448.05 61.8 1436.6 47.8 1425.6 34.4 1409.7 23.65 1393.85 12.95 1376.0 6.85 1357.45 0.55 1339.9 0.25 L1315.4 1.1 Q1299.4 2.9 1285.25 7.05 1248.7 17.85 1244.15 37.55 1241.8 33.75 1236.25 31.65 1231.1 29.6 1224.8 29.65 1218.4 29.7 1213.2 31.8 1207.55 34.15 1205.0 38.3 1200.25 46.05 1199.8 56.25 1199.4 64.15 1201.35 69.55 1191.25 61.55 1181.3 56.95 1163.9 49.0 1143.8 48.85 1124.3 48.75 1102.4 60.0 1095.4 63.6 1089.2 67.85 1084.3 71.15 1084.2 71.55 1081.9 69.05 1077.35 66.9 1069.4 63.15 1058.1 62.75 1046.9 62.35 1038.75 67.65 1033.25 71.25 1032.55 73.65 1030.3 68.7 1023.9 60.7 1014.6 49.0 1002.25 39.3 965.35 10.2 914.65 8.1 864.75 6.05 819.4 37.55 805.2 47.4 793.2 59.4 L784.0 69.45 Q782.7 66.85 779.7 64.0 773.7 58.35 765.3 57.35 756.2 56.25 751.15 58.2 748.25 59.3 742.3 64.15 742.05 58.35 738.5 50.9 734.4 42.25 727.3 34.9 708.75 15.7 678.35 13.7 648.45 11.75 628.25 32.35 615.35 45.55 608.35 65.45 605.15 59.4 595.05 55.55 586.25 52.25 577.7 52.25 565.85 52.25 553.05 61.4 547.95 65.05 530.35 81.15 L522.65 72.75 Q518.5 68.4 514.95 65.85 505.8 59.4 490.1 58.35 475.7 57.4 463.1 68.35 L455.35 76.0 Q451.95 79.55 450.75 79.55 L450.65 79.55 Q437.0 67.15 414.35 54.5 369.05 29.25 324.25 28.25 279.2 27.25 256.85 38.4 249.75 41.95 245.15 46.65 L240.95 51.6 Q239.3 43.05 232.45 34.75 218.75 18.15 192.85 19.5 167.0 20.9 157.05 37.6 153.95 42.8 152.85 48.95 152.25 52.0 152.3 54.05 151.35 51.35 148.2 48.5 141.85 42.75 130.85 41.9 119.1 41.0 106.15 49.85 96.25 56.6 89.55 65.75 79.8 45.65 71.35 39.15 63.9 33.35 48.45 32.2 35.45 31.25 18.5 45.9 12.15 51.4 6.7 57.9 1.85 63.65 0.0 67.4 L0.0 202.2 0.0 296.8 837.65 296.55 837.45 296.8 1576.35 296.8 1576.35 130.25 1576.4 130.2 1576.4 296.8 1576.35 296.8" fill="none" stroke="#000000" stroke-linecap="round" stroke-linejoin="miter-clip" stroke-miterlimit="4.0" stroke-opacity="0.4" stroke-width="1.0"/>
    <path d="M1295.95 168.05 Q1290.45 158.8 1294.75 149.85 1298.6 141.85 1307.8 138.1 1317.1 134.35 1324.75 138.0 1333.5 142.15 1335.3 154.65 1335.1 135.2 1337.35 125.5 1341.2 109.3 1353.05 102.55 M1126.85 219.55 Q1126.05 208.0 1117.5 203.6 1109.95 199.75 1093.6 200.85 1086.4 176.5 1079.85 168.2 1070.35 156.25 1050.9 156.3 1026.75 156.35 1013.25 169.6 1008.4 174.3 1001.75 183.8 L989.4 201.1 Q987.15 185.5 975.25 176.5 964.45 168.3 949.55 168.1 934.7 167.9 923.05 175.65 910.35 184.1 906.65 198.95 M625.4 192.85 Q629.05 180.25 647.6 172.3 664.9 164.85 678.95 167.45 691.85 169.85 700.4 180.15 705.1 185.8 712.75 201.3 M160.45 88.6 Q159.45 78.9 166.15 71.5 172.05 64.95 183.0 61.15 192.95 57.65 204.05 57.3 215.0 57.0 222.55 59.8 242.45 67.25 247.55 84.75 249.45 91.35 250.15 102.2 L251.2 122.15 Q269.05 102.0 285.55 98.1 307.0 93.0 318.35 119.5 320.4 109.15 325.25 100.95 330.25 92.4 336.95 88.55 352.8 79.5 369.0 99.9 M2.7 159.05 Q8.75 145.05 19.15 142.95 28.3 141.1 38.75 148.5 48.4 155.35 55.15 167.0 62.1 178.95 62.3 189.75 82.75 177.35 101.15 176.55 125.2 175.55 129.5 198.5" fill="none" stroke="#000000" stroke-linecap="butt" stroke-linejoin="miter-clip" stroke-miterlimit="4.0" stroke-opacity="0.4" stroke-width="1.0"/>
    <path d="M1395.45 122.3 Q1402.15 102.3 1419.7 90.8 1435.95 80.1 1453.45 81.15 1471.35 82.25 1479.3 95.25 1488.3 109.95 1480.15 134.5 1499.1 126.15 1512.55 127.05 1531.15 128.35 1532.65 148.35 M1395.3 122.75 L1395.45 122.3" fill="none" stroke="#000000" stroke-linecap="round" stroke-linejoin="miter-clip" stroke-miterlimit="4.0" stroke-opacity="0.4" stroke-width="1.0"/>
    <path d="M1353.05 102.55 Q1357.7 99.95 1365.85 99.65 1374.1 99.4 1381.5 101.7 1389.7 104.3 1393.5 109.2 1397.7 114.7 1395.45 122.3" fill="none" stroke="#000000" stroke-linecap="butt" stroke-linejoin="miter-clip" stroke-miterlimit="4.0" stroke-opacity="0.4" stroke-width="1.0"/>
  </g>
</svg>
