<?xml version="1.0" encoding="UTF-8" standalone="no"?>
<svg xmlns:xlink="http://www.w3.org/1999/xlink" height="115.1px" width="76.35px" xmlns="http://www.w3.org/2000/svg">
  <g transform="matrix(1.0, 0.0, 0.0, 1.0, 0.5, 0.5)">
    <path d="M57.25 17.55 Q56.6 20.75 57.1 25.85 L55.2 25.55 49.45 24.7 43.7 23.85 37.9 23.05 32.15 22.2 27.35 21.55 24.0 21.1 Q25.75 15.75 25.8 12.3 L39.3 14.3 Q52.2 16.3 57.25 17.55" fill="#000000" fill-opacity="0.3019608" fill-rule="evenodd" stroke="none"/>
    <path d="M51.95 99.5 Q54.65 100.2 55.6 102.7 L55.9 104.65 Q55.9 107.15 54.6 109.8 53.25 112.5 51.45 113.35 L47.35 113.55 Q44.95 112.7 45.0 110.55 47.35 110.25 46.7 108.9 46.1 107.55 44.25 107.15 41.3 106.55 40.65 109.15 L39.75 112.3 38.5 112.55 35.95 112.4 Q34.5 112.05 32.4 110.9 33.8 107.4 33.95 106.1 34.25 103.95 31.35 103.15 L26.35 102.75 Q24.15 103.25 24.85 105.0 25.4 106.35 26.65 106.55 27.75 106.7 27.8 107.45 28.0 109.75 25.8 110.6 L25.55 110.65 Q23.5 111.3 20.6 109.45 17.95 107.8 17.1 105.85 14.6 100.25 17.75 97.6 18.95 96.55 21.8 95.9 L24.6 96.35 Q32.05 97.0 36.0 100.75 37.95 102.6 38.35 104.35 41.35 101.4 48.55 100.0 L51.95 99.5" fill="#000000" fill-opacity="0.2" fill-rule="evenodd" stroke="none"/>
    <path d="M65.6 23.75 Q64.05 22.25 64.75 19.2 65.5 15.9 68.5 15.45 71.25 15.0 70.85 16.75 L69.95 18.7 70.85 16.75 Q71.25 15.0 68.5 15.45 65.5 15.9 64.75 19.2 64.05 22.25 65.6 23.75 L65.05 24.95 Q64.55 26.55 64.45 28.65 64.05 35.25 68.1 44.1 70.75 49.8 71.95 57.8 72.95 64.35 72.7 70.45 L72.6 72.45 72.4 74.55 Q70.0 94.85 55.1 99.25 L51.95 99.5 48.55 100.0 Q41.35 101.4 38.35 104.35 37.95 102.6 36.0 100.75 32.05 97.0 24.6 96.35 L21.8 95.9 Q18.45 95.0 14.95 92.75 9.7 89.45 5.95 84.25 -3.2 71.5 1.75 56.1 4.25 48.35 11.85 29.95 16.2 19.55 16.25 13.8 L15.2 14.0 Q9.4 15.05 7.6 9.9 5.8 4.9 10.05 2.0 14.8 -1.15 19.4 0.65 24.7 2.7 25.7 10.75 L25.8 12.3 Q25.75 15.75 24.0 21.1 L18.95 34.3 Q11.0 54.05 10.85 66.6 10.65 79.7 24.2 84.9 26.25 85.7 28.7 86.3 L29.8 86.55 35.55 87.5 41.35 87.8 42.8 87.75 47.15 87.45 Q50.5 87.05 52.55 86.2 L53.0 86.0 Q59.05 83.15 62.65 74.8 66.85 65.0 63.8 54.6 59.3 39.2 57.85 31.05 L57.1 25.85 Q56.6 20.75 57.25 17.55 57.7 15.3 58.75 14.0 62.55 8.9 67.85 8.65 73.5 8.35 75.0 14.7 76.5 20.9 71.95 23.85 70.2 25.05 68.3 25.0 66.4 25.0 65.6 23.75 M14.05 9.0 Q13.75 8.6 13.6 8.0 13.35 6.8 14.35 5.85 16.05 4.25 17.6 6.8 19.05 9.2 18.55 10.9 17.8 13.4 16.25 13.8 17.8 13.4 18.55 10.9 19.05 9.2 17.6 6.8 16.05 4.25 14.35 5.85 13.35 6.8 13.6 8.0 13.75 8.6 14.05 9.0" fill="#ffffff" fill-opacity="0.003921569" fill-rule="evenodd" stroke="none"/>
    <path d="M65.05 24.95 Q64.55 26.55 64.45 28.65 64.05 35.25 68.1 44.1 70.75 49.8 71.95 57.8 72.95 64.35 72.7 70.45 L72.6 72.45 72.4 74.55 Q70.0 94.85 55.1 99.25" fill="none" stroke="#000000" stroke-linecap="butt" stroke-linejoin="miter-clip" stroke-miterlimit="4.0" stroke-opacity="0.6" stroke-width="1.0"/>
    <path d="M69.95 18.7 L70.85 16.75 Q71.25 15.0 68.5 15.45 65.5 15.9 64.75 19.2 64.05 22.25 65.6 23.75 M55.1 99.25 L51.95 99.5" fill="none" stroke="#000000" stroke-linecap="butt" stroke-linejoin="miter-clip" stroke-miterlimit="4.0" stroke-opacity="0.4" stroke-width="1.0"/>
    <path d="M65.6 23.75 Q66.4 25.0 68.3 25.0 70.2 25.05 71.95 23.85 76.5 20.9 75.0 14.7 73.5 8.35 67.85 8.65 62.55 8.9 58.75 14.0 57.7 15.3 57.25 17.55 52.2 16.3 39.3 14.3 L25.8 12.3 25.7 10.75 Q24.7 2.7 19.4 0.65 14.8 -1.15 10.05 2.0 5.8 4.9 7.6 9.9 9.4 15.05 15.2 14.0 L16.25 13.8 Q16.2 19.55 11.85 29.95 4.25 48.35 1.75 56.1 -3.2 71.5 5.95 84.25 9.7 89.45 14.95 92.75 18.45 95.0 21.8 95.9" fill="none" stroke="#000000" stroke-linecap="round" stroke-linejoin="miter-clip" stroke-miterlimit="4.0" stroke-opacity="0.6" stroke-width="1.0"/>
    <path d="M57.25 17.55 Q56.6 20.75 57.1 25.85 L57.85 31.05 Q59.3 39.2 63.8 54.6 66.85 65.0 62.65 74.8 59.05 83.15 53.0 86.0 L52.55 86.2 Q50.5 87.05 47.15 87.45 L42.8 87.75 41.35 87.8 35.55 87.5 29.8 86.55 28.7 86.3 Q26.25 85.7 24.2 84.9 10.65 79.7 10.85 66.6 11.0 54.05 18.95 34.3 L24.0 21.1 Q25.75 15.75 25.8 12.3 M49.45 24.7 L43.7 23.85 41.35 87.8 M49.45 24.7 L55.2 25.55 57.1 25.85 M51.95 99.5 Q54.65 100.2 55.6 102.7 L55.9 104.65 Q55.9 107.15 54.6 109.8 53.25 112.5 51.45 113.35 L47.35 113.55 Q44.95 112.7 45.0 110.55 47.35 110.25 46.7 108.9 46.1 107.55 44.25 107.15 41.3 106.55 40.65 109.15 L39.75 112.3 38.5 112.55 35.95 112.4 Q34.5 112.05 32.4 110.9 33.8 107.4 33.95 106.1 34.25 103.95 31.35 103.15 L26.35 102.75 Q24.15 103.25 24.85 105.0 25.4 106.35 26.65 106.55 27.75 106.7 27.8 107.45 28.0 109.75 25.8 110.6 L25.55 110.65 Q23.5 111.3 20.6 109.45 17.95 107.8 17.1 105.85 14.6 100.25 17.75 97.6 18.95 96.55 21.8 95.9 L24.6 96.35 Q32.05 97.0 36.0 100.75 37.95 102.6 38.35 104.35 41.35 101.4 48.55 100.0 L51.95 99.5 M37.9 23.05 L32.15 22.2 29.8 86.55 M24.0 21.1 L27.35 21.55 32.15 22.2 M43.7 23.85 L37.9 23.05 35.55 87.5 M27.35 21.55 L24.2 84.9 M49.45 24.7 L47.15 87.45 M55.2 25.55 L53.0 86.0" fill="none" stroke="#000000" stroke-linecap="round" stroke-linejoin="miter-clip" stroke-miterlimit="4.0" stroke-opacity="0.4" stroke-width="1.0"/>
    <path d="M16.25 13.8 Q17.8 13.4 18.55 10.9 19.05 9.2 17.6 6.8 16.05 4.25 14.35 5.85 13.35 6.8 13.6 8.0 13.75 8.6 14.05 9.0 M65.6 23.75 L65.05 24.95" fill="none" stroke="#000000" stroke-linecap="round" stroke-linejoin="miter-clip" stroke-miterlimit="4.0" stroke-opacity="0.4" stroke-width="1.0"/>
  </g>
</svg>
