<?xml version="1.0" encoding="UTF-8" standalone="no"?>
<svg xmlns:xlink="http://www.w3.org/1999/xlink" height="35.15px" width="62.95px" xmlns="http://www.w3.org/2000/svg">
  <g transform="matrix(1.0, 0.0, 0.0, 1.0, 32.9, 17.5)">
    <path d="M30.05 17.05 Q30.05 17.65 29.1 17.65 28.2 17.65 28.2 17.05 L28.2 -4.85 Q28.2 -5.45 29.1 -5.45 30.05 -5.45 30.05 -4.85 L30.05 17.05 M-0.5 16.75 L-0.75 17.4 -1.4 17.65 Q-2.35 17.65 -2.35 16.75 L-2.35 -16.55 Q-2.35 -17.5 -1.4 -17.5 -0.5 -17.5 -0.5 -16.55 L-0.5 16.75 M-31.05 17.2 Q-31.05 17.65 -31.95 17.65 -32.9 17.65 -32.9 17.2 L-32.9 0.1 Q-32.9 -0.35 -31.95 -0.35 -31.05 -0.35 -31.05 0.1 L-31.05 17.2" fill="#ffffff" fill-opacity="0.4" fill-rule="evenodd" stroke="none"/>
  </g>
</svg>
