<?xml version="1.0" encoding="UTF-8" standalone="no"?>
<svg xmlns:xlink="http://www.w3.org/1999/xlink" height="151.8px" width="275.75px" xmlns="http://www.w3.org/2000/svg">
  <g transform="matrix(1.0, 0.0, 0.0, 1.0, 135.65, 74.8)">
    <path d="M135.1 -73.7 Q10.65 -58.1 -69.75 3.4 -114.9 37.9 -134.6 75.0 L-134.6 -73.7 135.1 -73.7" fill="#ffffff" fill-opacity="0.0" fill-rule="evenodd" stroke="none"/>
    <path d="M-134.6 -0.85 L-134.6 -73.7 -85.7 -73.7 -84.7 -45.6 -75.3 -42.1 -103.75 -22.9 -94.65 -18.7 -48.35 -16.3 -74.15 -11.65 -94.15 -11.65 -104.7 -13.95 -104.7 -22.25 -118.75 -12.8 -134.6 -0.85 M-51.9 -45.6 L-34.3 -49.15 -3.75 -52.65 -22.5 -44.5 -51.9 -45.6 M-112.85 3.65 L-99.95 3.65 -90.6 5.95 -101.35 7.0 Q-112.15 7.25 -112.85 3.65" fill="#000000" fill-opacity="0.2" fill-rule="evenodd" stroke="none"/>
    <path d="M-15.9 -73.05 L-13.95 -73.7 -106.9 -73.7 -103.45 -27.5 -101.85 -25.9 Q-94.95 -30.75 -92.0 -31.9 -83.5 -35.35 -76.6 -38.75 -72.4 -40.95 -68.95 -46.05 -67.3 -48.7 -66.4 -50.8 L-56.1 -52.55 -36.5 -63.75 Q-24.0 -70.35 -15.9 -73.05 M-106.9 -73.7 L-134.6 -73.7 -134.6 -0.85 -116.5 -15.1 -101.85 -25.9 M-134.6 30.7 L-134.6 -0.85 M-134.6 30.7 L-134.6 75.0 Q-114.9 37.9 -69.75 3.4 10.65 -58.1 135.1 -73.7 L-13.95 -73.7" fill="none" stroke="#000000" stroke-linecap="round" stroke-linejoin="miter-clip" stroke-miterlimit="10.0" stroke-width="1.0"/>
    <path d="M-17.2 -73.25 L-15.9 -73.05 61.95 -62.7 M-101.85 -25.9 L-94.65 -18.7 -41.85 -16.95 M-134.6 30.7 L-105.2 34.1" fill="none" stroke="#000000" stroke-linecap="round" stroke-linejoin="miter-clip" stroke-miterlimit="10.0" stroke-width="1.0"/>
    <path d="M-135.15 30.6 L-134.6 30.7" fill="none" stroke="#000000" stroke-linecap="butt" stroke-linejoin="miter-clip" stroke-miterlimit="10.0" stroke-width="1.0"/>
  </g>
</svg>
