<?xml version="1.0" encoding="UTF-8" standalone="no"?>
<svg xmlns:xlink="http://www.w3.org/1999/xlink" height="16.8px" width="32.3px" xmlns="http://www.w3.org/2000/svg">
  <g transform="matrix(1.0, 0.0, 0.0, 1.0, 16.15, 8.4)">
    <path d="M-15.5 -0.85 L-15.55 -2.2 -15.25 -5.55 Q-14.95 -6.9 -14.55 -6.95 L8.85 -7.9 14.6 -7.85 Q15.05 -7.85 15.35 -6.5 L15.65 -3.2 15.6 -1.55 15.35 0.05 Q15.0 1.4 14.6 1.4 L8.8 1.4 -14.55 2.3 Q-14.95 2.4 -15.25 1.05 L-15.5 -0.85" fill="#ffffff" fill-opacity="0.0" fill-rule="evenodd" stroke="none"/>
    <path d="M15.6 1.05 L15.65 2.4 15.3 5.65 Q15.0 7.0 14.55 7.0 L8.8 7.0 -14.55 7.9 Q-14.95 7.95 -15.3 6.6 L-15.6 3.35 -15.55 2.05 -15.25 4.35 Q-14.95 5.7 -14.55 5.65 L8.8 4.75 14.55 4.75 Q15.0 4.75 15.3 3.4 L15.6 1.05" fill="#000000" fill-opacity="0.4" fill-rule="evenodd" stroke="none"/>
    <path d="M15.6 -1.55 L15.65 0.1 15.6 1.05 15.3 3.4 Q15.0 4.75 14.55 4.75 L8.8 4.75 -14.55 5.65 Q-14.95 5.7 -15.25 4.35 L-15.55 2.05 -15.6 1.1 -15.5 -0.85 -15.25 1.05 Q-14.95 2.4 -14.55 2.3 L8.8 1.4 14.6 1.4 Q15.0 1.4 15.35 0.05 L15.6 -1.55" fill="#000000" fill-opacity="0.29803923" fill-rule="evenodd" stroke="none"/>
    <path d="M-15.5 -0.85 L-15.55 -2.2 -15.25 -5.55 Q-14.95 -6.9 -14.55 -6.95 L8.85 -7.9 14.6 -7.85 Q15.05 -7.85 15.35 -6.5 L15.65 -3.2 15.6 -1.55 15.35 0.05 Q15.0 1.4 14.6 1.4 L8.8 1.4 -14.55 2.3 Q-14.95 2.4 -15.25 1.05 L-15.5 -0.85 M8.8 7.0 L-14.55 7.9 Q-14.95 7.95 -15.3 6.6 L-15.6 3.35 -15.55 2.05" fill="none" stroke="#000000" stroke-linecap="round" stroke-linejoin="miter-clip" stroke-miterlimit="4.0" stroke-width="1.0"/>
    <path d="M15.6 -1.55 L15.65 0.1 15.6 1.05 15.65 2.4 15.3 5.65 Q15.0 7.0 14.55 7.0 L8.8 7.0 M-15.55 2.05 L-15.6 1.1 -15.5 -0.85 M15.6 1.05 L15.3 3.4 Q15.0 4.75 14.55 4.75 L8.8 4.75 -14.55 5.65 Q-14.95 5.7 -15.25 4.35 L-15.55 2.05" fill="none" stroke="#000000" stroke-linecap="round" stroke-linejoin="miter-clip" stroke-miterlimit="4.0" stroke-opacity="0.6" stroke-width="1.0"/>
  </g>
</svg>
