<?xml version="1.0" encoding="UTF-8" standalone="no"?>
<svg xmlns:xlink="http://www.w3.org/1999/xlink" height="2698.05px" width="2306.5px" xmlns="http://www.w3.org/2000/svg">
  <g transform="matrix(1.0, 0.0, 0.0, 1.0, 1153.25, 1349.0)">
    <path d="M1079.6 -1195.15 L1049.65 -1195.15 1049.65 -1105.3 1079.6 -1105.3 1079.6 -1195.15 M1030.95 -1195.15 L1001.0 -1195.15 1001.0 -1105.3 1030.95 -1105.3 1030.95 -1195.15 M1112.85 -1228.75 L1112.85 -91.05 773.5 -91.05 773.5 -1228.75 1112.85 -1228.75 M1112.85 28.7 L1112.85 1348.55 773.5 1348.55 773.5 28.75 1112.85 28.7 M933.65 -1195.15 L903.7 -1195.15 903.7 -1105.3 933.65 -1105.3 933.65 -1195.15 M884.95 -1195.15 L855.05 -1195.15 855.05 -1105.3 884.95 -1105.3 884.95 -1195.15 M836.35 -1195.15 L806.4 -1195.15 806.4 -1105.3 836.35 -1105.3 836.35 -1195.15 M982.3 -1105.3 L982.3 -1195.15 952.35 -1195.15 952.35 -1105.3 982.3 -1105.3 M906.8 -961.95 L906.8 -788.2 979.5 -788.2 979.5 -961.95 906.8 -961.95 M1109.55 -567.6 L1109.55 -612.55 785.2 -612.55 785.2 -567.6 1109.55 -567.6 M906.8 -261.55 L979.5 -261.55 979.5 -435.35 906.8 -435.35 906.8 -261.55 M1079.6 155.95 L1079.6 66.1 1049.65 66.1 1049.65 155.95 1079.6 155.95 M982.3 155.95 L982.3 66.1 952.35 66.1 952.35 155.95 982.3 155.95 M1030.95 66.1 L1001.0 66.1 1001.0 155.95 1030.95 155.95 1030.95 66.1 M785.2 525.2 L785.2 570.1 1109.55 570.1 1109.55 525.2 785.2 525.2 M836.35 155.95 L836.35 66.1 806.4 66.1 806.4 155.95 836.35 155.95 M884.95 66.1 L855.05 66.1 855.05 155.95 884.95 155.95 884.95 66.1 M933.65 66.1 L903.7 66.1 903.7 155.95 933.65 155.95 933.65 66.1 M906.8 668.95 L906.8 842.7 979.5 842.7 979.5 668.95 906.8 668.95 M906.8 418.3 L979.5 418.3 979.5 244.5 906.8 244.5 906.8 418.3 M-855.4 -1195.15 L-885.35 -1195.15 -885.35 -1105.3 -855.4 -1105.3 -855.4 -1195.15 M-904.05 -1195.15 L-934.0 -1195.15 -934.0 -1105.3 -904.05 -1105.3 -904.05 -1195.15 M785.2 1298.65 L785.2 1343.55 1109.55 1343.55 1109.55 1298.65 785.2 1298.65 M836.35 941.85 L806.4 941.85 806.4 1031.7 836.35 1031.7 836.35 941.85 M933.65 941.85 L903.7 941.85 903.7 1031.7 933.65 1031.7 933.65 941.85 M884.95 941.85 L855.05 941.85 855.05 1031.7 884.95 1031.7 884.95 941.85 M982.3 1031.7 L982.3 941.85 952.35 941.85 952.35 1031.7 982.3 1031.7 M1079.6 941.85 L1049.65 941.85 1049.65 1031.7 1079.6 1031.7 1079.6 941.85 M1030.95 941.85 L1001.0 941.85 1001.0 1031.7 1030.95 1031.7 1030.95 941.85 M-773.5 -1228.75 L-773.5 -91.05 -1112.8 -91.05 -1112.8 -1228.75 -773.5 -1228.75 M-773.5 28.7 L-773.5 1348.55 -1112.8 1348.55 -1112.8 28.75 -773.5 28.7 M-1050.0 -1195.15 L-1079.95 -1195.15 -1079.95 -1105.3 -1050.0 -1105.3 -1050.0 -1195.15 M-1001.35 -1195.15 L-1031.3 -1195.15 -1031.3 -1105.3 -1001.35 -1105.3 -1001.35 -1195.15 M-806.75 -1195.15 L-836.7 -1195.15 -836.7 -1105.3 -806.75 -1105.3 -806.75 -1195.15 M-952.7 -1195.15 L-982.65 -1195.15 -982.65 -1105.3 -952.7 -1105.3 -952.7 -1195.15 M-979.55 -961.95 L-979.55 -788.2 -906.8 -788.2 -906.8 -961.95 -979.55 -961.95 M-776.8 -567.6 L-776.8 -612.55 -1101.15 -612.55 -1101.15 -567.6 -776.8 -567.6 M-979.55 -261.55 L-906.8 -261.55 -906.8 -435.35 -979.55 -435.35 -979.55 -261.55 M-952.7 155.95 L-952.7 66.1 -982.65 66.1 -982.65 155.95 -952.7 155.95 M-904.05 66.1 L-934.0 66.1 -934.0 155.95 -904.05 155.95 -904.05 66.1 M-855.4 66.1 L-885.35 66.1 -885.35 155.95 -855.4 155.95 -855.4 66.1 M-806.75 155.95 L-806.75 66.1 -836.7 66.1 -836.7 155.95 -806.75 155.95 M-1101.15 525.2 L-1101.15 570.1 -776.8 570.1 -776.8 525.2 -1101.15 525.2 M-1050.0 155.95 L-1050.0 66.1 -1079.95 66.1 -1079.95 155.95 -1050.0 155.95 M-1001.35 66.1 L-1031.3 66.1 -1031.3 155.95 -1001.35 155.95 -1001.35 66.1 M-979.55 668.95 L-979.55 842.7 -906.8 842.7 -906.8 668.95 -979.55 668.95 M-906.8 418.3 L-906.8 244.5 -979.55 244.5 -979.55 418.3 -906.8 418.3 M-1101.15 1298.65 L-1101.15 1343.55 -776.8 1343.55 -776.8 1298.65 -1101.15 1298.65 M-1050.0 941.85 L-1079.95 941.85 -1079.95 1031.7 -1050.0 1031.7 -1050.0 941.85 M-1001.35 941.85 L-1031.3 941.85 -1031.3 1031.7 -1001.35 1031.7 -1001.35 941.85 M-952.7 1031.7 L-952.7 941.85 -982.65 941.85 -982.65 1031.7 -952.7 1031.7 M-806.75 1031.7 L-806.75 941.85 -836.7 941.85 -836.7 1031.7 -806.75 1031.7 M-855.4 941.85 L-885.35 941.85 -885.35 1031.7 -855.4 1031.7 -855.4 941.85 M-904.05 941.85 L-934.0 941.85 -934.0 1031.7 -904.05 1031.7 -904.05 941.85" fill="#000000" fill-opacity="0.2" fill-rule="evenodd" stroke="none"/>
    <path d="M1030.95 -1195.15 L1030.95 -1105.3 1001.0 -1105.3 1001.0 -1195.15 1030.95 -1195.15 M1079.6 -1195.15 L1079.6 -1105.3 1049.65 -1105.3 1049.65 -1195.15 1079.6 -1195.15 M884.95 -1195.15 L884.95 -1105.3 855.05 -1105.3 855.05 -1195.15 884.95 -1195.15 M933.65 -1195.15 L933.65 -1105.3 903.7 -1105.3 903.7 -1195.15 933.65 -1195.15 M836.35 -1195.15 L836.35 -1105.3 806.4 -1105.3 806.4 -1195.15 836.35 -1195.15 M982.3 -1105.3 L952.35 -1105.3 952.35 -1195.15 982.3 -1195.15 982.3 -1105.3 M1109.55 -567.6 L785.2 -567.6 785.2 -612.55 1109.55 -612.55 1109.55 -567.6 M1030.95 66.1 L1030.95 155.95 1001.0 155.95 1001.0 66.1 1030.95 66.1 M982.3 155.95 L952.35 155.95 952.35 66.1 982.3 66.1 982.3 155.95 M1079.6 155.95 L1049.65 155.95 1049.65 66.1 1079.6 66.1 1079.6 155.95 M933.65 66.1 L933.65 155.95 903.7 155.95 903.7 66.1 933.65 66.1 M884.95 66.1 L884.95 155.95 855.05 155.95 855.05 66.1 884.95 66.1 M836.35 155.95 L806.4 155.95 806.4 66.1 836.35 66.1 836.35 155.95 M785.2 525.2 L1109.55 525.2 1109.55 570.1 785.2 570.1 785.2 525.2 M1030.95 941.85 L1030.95 1031.7 1001.0 1031.7 1001.0 941.85 1030.95 941.85 M1079.6 941.85 L1079.6 1031.7 1049.65 1031.7 1049.65 941.85 1079.6 941.85 M982.3 1031.7 L952.35 1031.7 952.35 941.85 982.3 941.85 982.3 1031.7 M884.95 941.85 L884.95 1031.7 855.05 1031.7 855.05 941.85 884.95 941.85 M933.65 941.85 L933.65 1031.7 903.7 1031.7 903.7 941.85 933.65 941.85 M836.35 941.85 L836.35 1031.7 806.4 1031.7 806.4 941.85 836.35 941.85 M785.2 1298.65 L1109.55 1298.65 1109.55 1343.55 785.2 1343.55 785.2 1298.65 M-904.05 -1195.15 L-904.05 -1105.3 -934.0 -1105.3 -934.0 -1195.15 -904.05 -1195.15 M-855.4 -1195.15 L-855.4 -1105.3 -885.35 -1105.3 -885.35 -1195.15 -855.4 -1195.15 M-806.75 -1195.15 L-806.75 -1105.3 -836.7 -1105.3 -836.7 -1195.15 -806.75 -1195.15 M-1001.35 -1195.15 L-1001.35 -1105.3 -1031.3 -1105.3 -1031.3 -1195.15 -1001.35 -1195.15 M-1050.0 -1195.15 L-1050.0 -1105.3 -1079.95 -1105.3 -1079.95 -1195.15 -1050.0 -1195.15 M-952.7 -1195.15 L-952.7 -1105.3 -982.65 -1105.3 -982.65 -1195.15 -952.7 -1195.15 M-776.8 -567.6 L-1101.15 -567.6 -1101.15 -612.55 -776.8 -612.55 -776.8 -567.6 M-806.75 155.95 L-836.7 155.95 -836.7 66.1 -806.75 66.1 -806.75 155.95 M-855.4 66.1 L-855.4 155.95 -885.35 155.95 -885.35 66.1 -855.4 66.1 M-904.05 66.1 L-904.05 155.95 -934.0 155.95 -934.0 66.1 -904.05 66.1 M-952.7 155.95 L-982.65 155.95 -982.65 66.1 -952.7 66.1 -952.7 155.95 M-1001.35 66.1 L-1001.35 155.95 -1031.3 155.95 -1031.3 66.1 -1001.35 66.1 M-1050.0 155.95 L-1079.95 155.95 -1079.95 66.1 -1050.0 66.1 -1050.0 155.95 M-1101.15 525.2 L-776.8 525.2 -776.8 570.1 -1101.15 570.1 -1101.15 525.2 M-904.05 941.85 L-904.05 1031.7 -934.0 1031.7 -934.0 941.85 -904.05 941.85 M-855.4 941.85 L-855.4 1031.7 -885.35 1031.7 -885.35 941.85 -855.4 941.85 M-806.75 1031.7 L-836.7 1031.7 -836.7 941.85 -806.75 941.85 -806.75 1031.7 M-952.7 1031.7 L-982.65 1031.7 -982.65 941.85 -952.7 941.85 -952.7 1031.7 M-1001.35 941.85 L-1001.35 1031.7 -1031.3 1031.7 -1031.3 941.85 -1001.35 941.85 M-1050.0 941.85 L-1050.0 1031.7 -1079.95 1031.7 -1079.95 941.85 -1050.0 941.85 M-1101.15 1298.65 L-776.8 1298.65 -776.8 1343.55 -1101.15 1343.55 -1101.15 1298.65" fill="#000000" fill-opacity="0.6" fill-rule="evenodd" stroke="none"/>
    <path d="M773.5 -1228.75 L733.6 -1228.75 733.6 -1348.5 1152.75 -1348.5 1152.75 -1228.75 1112.85 -1228.75 773.5 -1228.75 M1112.85 -91.05 L1152.75 -91.05 1152.75 28.7 1112.85 28.7 773.5 28.75 733.6 28.7 733.6 -91.05 773.5 -91.05 1112.85 -91.05 M935.35 -1337.7 L746.05 -1237.1 1140.3 -1237.1 935.35 -1337.7 M746.05 20.35 L1140.3 20.35 935.35 -80.25 746.05 20.35 M-1112.8 -1228.75 L-1152.75 -1228.75 -1152.75 -1348.5 -733.55 -1348.5 -733.55 -1228.75 -773.5 -1228.75 -1112.8 -1228.75 M-773.5 -91.05 L-733.55 -91.05 -733.55 28.7 -773.5 28.7 -1112.8 28.75 -1152.75 28.7 -1152.75 -91.05 -1112.8 -91.05 -773.5 -91.05 M-746.05 -1237.1 L-951.0 -1337.7 -1140.3 -1237.1 -746.05 -1237.1 M-1140.3 20.35 L-746.05 20.35 -951.0 -80.25 -1140.3 20.35" fill="#000000" fill-opacity="0.29803923" fill-rule="evenodd" stroke="none"/>
    <path d="M935.35 -1337.7 L1140.3 -1237.1 746.05 -1237.1 935.35 -1337.7 M930.55 -789.2 L907.8 -789.2 907.8 -960.95 978.5 -960.95 978.5 -938.2 930.55 -938.2 930.55 -789.2 M930.55 -262.55 L907.8 -262.55 907.8 -434.35 978.5 -434.35 978.5 -411.6 930.55 -411.6 930.55 -262.55 M930.55 417.3 L907.8 417.3 907.8 245.5 978.5 245.5 978.5 268.25 930.55 268.25 930.55 417.3 M930.55 841.7 L907.8 841.7 907.8 669.95 978.5 669.95 978.5 692.7 930.55 692.7 930.55 841.7 M746.05 20.35 L935.35 -80.25 1140.3 20.35 746.05 20.35 M-746.05 -1237.1 L-1140.3 -1237.1 -951.0 -1337.7 -746.05 -1237.1 M-907.8 -938.2 L-955.8 -938.2 -955.8 -789.2 -978.55 -789.2 -978.55 -960.95 -907.8 -960.95 -907.8 -938.2 M-955.8 -262.55 L-978.55 -262.55 -978.55 -434.35 -907.8 -434.35 -907.8 -411.6 -955.8 -411.6 -955.8 -262.55 M-955.8 417.3 L-978.55 417.3 -978.55 245.5 -907.8 245.5 -907.8 268.25 -955.8 268.25 -955.8 417.3 M-955.8 841.7 L-978.55 841.7 -978.55 669.95 -907.8 669.95 -907.8 692.7 -955.8 692.7 -955.8 841.7 M-1140.3 20.35 L-951.0 -80.25 -746.05 20.35 -1140.3 20.35" fill="#000000" fill-opacity="0.4" fill-rule="evenodd" stroke="none"/>
    <path d="M978.5 -938.2 L978.5 -960.95 907.8 -960.95 907.8 -789.2 930.55 -789.2 978.5 -789.2 978.5 -938.2 M906.8 -961.95 L979.5 -961.95 979.5 -788.2 906.8 -788.2 906.8 -961.95 M978.5 -411.6 L978.5 -434.35 907.8 -434.35 907.8 -262.55 930.55 -262.55 978.5 -262.55 978.5 -411.6 M906.8 -261.55 L906.8 -435.35 979.5 -435.35 979.5 -261.55 906.8 -261.55 M978.5 268.25 L978.5 245.5 907.8 245.5 907.8 417.3 930.55 417.3 978.5 417.3 978.5 268.25 M978.5 692.7 L978.5 669.95 907.8 669.95 907.8 841.7 930.55 841.7 978.5 841.7 978.5 692.7 M906.8 418.3 L906.8 244.5 979.5 244.5 979.5 418.3 906.8 418.3 M906.8 668.95 L979.5 668.95 979.5 842.7 906.8 842.7 906.8 668.95 M-955.8 -789.2 L-907.8 -789.2 -907.8 -938.2 -907.8 -960.95 -978.55 -960.95 -978.55 -789.2 -955.8 -789.2 M-979.55 -961.95 L-906.8 -961.95 -906.8 -788.2 -979.55 -788.2 -979.55 -961.95 M-907.8 -411.6 L-907.8 -434.35 -978.55 -434.35 -978.55 -262.55 -955.8 -262.55 -907.8 -262.55 -907.8 -411.6 M-979.55 -261.55 L-979.55 -435.35 -906.8 -435.35 -906.8 -261.55 -979.55 -261.55 M-907.8 268.25 L-907.8 245.5 -978.55 245.5 -978.55 417.3 -955.8 417.3 -907.8 417.3 -907.8 268.25 M-907.8 692.7 L-907.8 669.95 -978.55 669.95 -978.55 841.7 -955.8 841.7 -907.8 841.7 -907.8 692.7 M-906.8 418.3 L-979.55 418.3 -979.55 244.5 -906.8 244.5 -906.8 418.3 M-979.55 668.95 L-906.8 668.95 -906.8 842.7 -979.55 842.7 -979.55 668.95" fill="#000000" fill-rule="evenodd" stroke="none"/>
    <path d="M978.5 -938.2 L978.5 -789.2 930.55 -789.2 930.55 -938.2 978.5 -938.2 M978.5 -411.6 L978.5 -262.55 930.55 -262.55 930.55 -411.6 978.5 -411.6 M978.5 268.25 L978.5 417.3 930.55 417.3 930.55 268.25 978.5 268.25 M978.5 692.7 L978.5 841.7 930.55 841.7 930.55 692.7 978.5 692.7 M-955.8 -789.2 L-955.8 -938.2 -907.8 -938.2 -907.8 -789.2 -955.8 -789.2 M-907.8 -411.6 L-907.8 -262.55 -955.8 -262.55 -955.8 -411.6 -907.8 -411.6 M-907.8 268.25 L-907.8 417.3 -955.8 417.3 -955.8 268.25 -907.8 268.25 M-955.8 841.7 L-955.8 692.7 -907.8 692.7 -907.8 841.7 -955.8 841.7" fill="#000000" fill-opacity="0.54901963" fill-rule="evenodd" stroke="none"/>
    <path d="M773.5 -1228.75 L733.6 -1228.75 733.6 -1348.5 1152.75 -1348.5 1152.75 -1228.75 1112.85 -1228.75 1112.85 -91.05 1152.75 -91.05 1152.75 28.7 1112.85 28.7 1112.85 1348.55 773.5 1348.55 773.5 28.75 733.6 28.7 733.6 -91.05 773.5 -91.05 773.5 -1228.75 M-1112.8 -1228.75 L-1152.75 -1228.75 -1152.75 -1348.5 -733.55 -1348.5 -733.55 -1228.75 -773.5 -1228.75 -773.5 -91.05 -733.55 -91.05 -733.55 28.7 -773.5 28.7 -773.5 1348.55 -1112.8 1348.55 -1112.8 28.75 -1152.75 28.7 -1152.75 -91.05 -1112.8 -91.05 -1112.8 -1228.75" fill="none" stroke="#000000" stroke-linecap="butt" stroke-linejoin="miter-clip" stroke-miterlimit="4.0" stroke-width="1.0"/>
    <path d="M773.5 -1228.75 L1112.85 -1228.75 M773.5 -91.05 L1112.85 -91.05 M1112.85 28.7 L773.5 28.75 M-1112.8 -1228.75 L-773.5 -1228.75 M-1112.8 -91.05 L-773.5 -91.05 M-773.5 28.7 L-1112.8 28.75" fill="none" stroke="#000000" stroke-linecap="butt" stroke-linejoin="miter-clip" stroke-miterlimit="4.0" stroke-opacity="0.6" stroke-width="1.0"/>
    <path d="M930.55 -789.2 L907.8 -789.2 907.8 -960.95 978.5 -960.95 978.5 -938.2 978.5 -789.2 930.55 -789.2 M906.8 -961.95 L906.8 -788.2 979.5 -788.2 979.5 -961.95 906.8 -961.95 M930.55 -262.55 L907.8 -262.55 907.8 -434.35 978.5 -434.35 978.5 -411.6 978.5 -262.55 930.55 -262.55 M906.8 -261.55 L979.5 -261.55 979.5 -435.35 906.8 -435.35 906.8 -261.55 M930.55 417.3 L907.8 417.3 907.8 245.5 978.5 245.5 978.5 268.25 978.5 417.3 930.55 417.3 M930.55 841.7 L907.8 841.7 907.8 669.95 978.5 669.95 978.5 692.7 978.5 841.7 930.55 841.7 M906.8 668.95 L906.8 842.7 979.5 842.7 979.5 668.95 906.8 668.95 M906.8 418.3 L979.5 418.3 979.5 244.5 906.8 244.5 906.8 418.3 M-955.8 -789.2 L-907.8 -789.2 -907.8 -938.2 -907.8 -960.95 -978.55 -960.95 -978.55 -789.2 -955.8 -789.2 M-979.55 -961.95 L-979.55 -788.2 -906.8 -788.2 -906.8 -961.95 -979.55 -961.95 M-955.8 -262.55 L-978.55 -262.55 -978.55 -434.35 -907.8 -434.35 -907.8 -411.6 -907.8 -262.55 -955.8 -262.55 M-979.55 -261.55 L-906.8 -261.55 -906.8 -435.35 -979.55 -435.35 -979.55 -261.55 M-955.8 417.3 L-978.55 417.3 -978.55 245.5 -907.8 245.5 -907.8 268.25 -907.8 417.3 -955.8 417.3 M-907.8 692.7 L-907.8 669.95 -978.55 669.95 -978.55 841.7 -955.8 841.7 -907.8 841.7 -907.8 692.7 M-979.55 668.95 L-979.55 842.7 -906.8 842.7 -906.8 668.95 -979.55 668.95 M-906.8 418.3 L-906.8 244.5 -979.55 244.5 -979.55 418.3 -906.8 418.3" fill="none" stroke="#000000" stroke-linecap="round" stroke-linejoin="miter-clip" stroke-miterlimit="4.0" stroke-width="1.0"/>
    <path d="M930.55 -789.2 L930.55 -938.2 978.5 -938.2 M930.55 -262.55 L930.55 -411.6 978.5 -411.6 M930.55 417.3 L930.55 268.25 978.5 268.25 M930.55 841.7 L930.55 692.7 978.5 692.7 M-907.8 -938.2 L-955.8 -938.2 -955.8 -789.2 M-955.8 -262.55 L-955.8 -411.6 -907.8 -411.6 M-955.8 417.3 L-955.8 268.25 -907.8 268.25 M-955.8 841.7 L-955.8 692.7 -907.8 692.7" fill="none" stroke="#000000" stroke-linecap="round" stroke-linejoin="miter-clip" stroke-miterlimit="4.0" stroke-opacity="0.6" stroke-width="1.0"/>
  </g>
</svg>
