<?xml version="1.0" encoding="UTF-8" standalone="no"?>
<svg xmlns:xlink="http://www.w3.org/1999/xlink" height="302.6px" width="191.75px" xmlns="http://www.w3.org/2000/svg">
  <g transform="matrix(1.0, 0.0, 0.0, 1.0, 96.1, 151.05)">
    <path d="M-33.35 -142.5 Q-39.7 -140.35 -45.45 -137.05 L-46.35 -140.2 -33.35 -142.5" fill="#829ba6" fill-rule="evenodd" stroke="none"/>
    <path d="M66.3 151.05 L60.15 -26.45 Q55.8 -105.75 30.45 -133.65 22.5 -142.35 13.45 -145.25 L5.8 -145.95 -9.9 -146.6 15.25 -151.05 58.7 -143.8 76.85 -100.35 87.7 8.35 92.75 31.15 Q97.1 56.55 94.95 69.95 91.7 91.65 91.7 151.05 L66.3 151.05" fill="#000000" fill-opacity="0.24705882" fill-rule="evenodd" stroke="none"/>
    <path d="M-9.9 -146.6 L5.8 -145.95 13.45 -145.25 Q22.5 -142.35 30.45 -133.65 55.8 -105.75 60.15 -26.45 L66.3 151.05 -95.6 151.05 -95.6 -33.65 Q-94.5 -64.45 -81.5 -93.8 -68.1 -124.1 -45.45 -137.05 -39.7 -140.35 -33.35 -142.5 -22.5 -146.2 -9.9 -146.6" fill="#000000" fill-opacity="0.8" fill-rule="evenodd" stroke="none"/>
    <path d="M66.3 151.05 L60.15 -26.45 Q55.8 -105.75 30.45 -133.65 22.5 -142.35 13.45 -145.25 L5.8 -145.95 -9.9 -146.6 Q-22.5 -146.2 -33.35 -142.5 -39.7 -140.35 -45.45 -137.05 -68.1 -124.1 -81.5 -93.8 -94.5 -64.45 -95.6 -33.65 L-95.6 151.05 66.3 151.05 Z" fill="none" stroke="#000000" stroke-linecap="butt" stroke-linejoin="miter-clip" stroke-miterlimit="10.0" stroke-opacity="0.6" stroke-width="1.0"/>
  </g>
</svg>
