<?xml version="1.0" encoding="UTF-8" standalone="no"?>
<svg xmlns:xlink="http://www.w3.org/1999/xlink" height="649.25px" width="465.35px" xmlns="http://www.w3.org/2000/svg">
  <g transform="matrix(1.0, 0.0, 0.0, 1.0, 232.55, 323.7)">
    <path d="M-228.0 319.05 L-217.8 198.35 -209.55 184.1 -219.8 159.45 -217.8 126.7 Q-213.9 120.35 -216.4 95.25 L-219.8 71.5 -213.75 55.2 -219.8 6.05 Q-214.7 2.3 -220.9 -7.45 L-228.0 -16.45 -226.0 -77.85 Q-219.65 -80.35 -222.1 -89.5 L-226.0 -98.2 -232.05 -147.35 -215.75 -153.55 -224.0 -169.85 -224.0 -243.5 -217.8 -261.95 -221.8 -276.25 -221.8 -313.0 -123.65 -321.2 -109.35 -313.0 -86.9 -321.2 -15.2 -317.15 48.2 -319.2 97.2 -319.2 121.75 -323.2 162.65 -319.2 207.65 -317.15 219.9 -302.75 219.9 -274.2 226.1 -151.4 222.1 42.95 226.1 79.7 224.1 128.9 215.85 175.9 228.1 181.95 232.3 218.85 230.15 323.2 109.5 323.2 Q125.9 239.3 125.9 218.85 L136.15 206.6 125.9 194.35 121.75 128.9 136.15 128.9 123.9 110.45 119.7 45.0 Q124.85 42.35 118.65 12.7 L111.5 -16.45 125.9 -18.45 107.45 -32.75 93.2 -85.95 Q99.55 -93.55 84.65 -117.1 L68.55 -139.1 80.95 -153.55 62.5 -153.55 38.0 -171.85 19.5 -182.1 21.55 -202.55 7.25 -184.1 -68.4 -180.05 Q-76.0 -185.2 -80.2 -181.15 L-80.25 -181.0 -81.45 -179.45 -82.85 -176.05 -107.35 -151.4 -119.6 -155.55 -111.4 -141.15 -135.9 -100.35 -154.35 -94.15 -140.05 -83.9 -152.35 -34.9 -154.35 -18.45 -176.85 -10.25 -201.35 -6.2 Q-189.1 -2.15 -172.8 -2.15 L-162.55 8.05 -158.55 53.2 -170.8 61.25 -158.55 75.7 -160.55 110.45 -174.8 120.65 -160.55 130.9 -160.55 186.1 -187.05 177.9 -178.85 190.15 -160.55 204.55 -150.3 317.0 -228.0 319.05" fill="#ffffff" fill-opacity="0.0" fill-rule="evenodd" stroke="none"/>
    <path d="M97.05 -319.25 L121.75 -323.2 162.65 -319.2 140.65 -308.35 128.4 -289.9 128.4 -257.4 156.4 -245.45 207.4 -261.9 219.9 -302.75 219.9 -274.2 221.2 -246.85 199.35 -241.45 172.65 -229.2 Q169.1 -227.15 165.2 -226.85 157.6 -226.25 156.4 -235.25 L135.9 -241.45 110.45 -247.2 109.95 -246.95 110.05 -247.3 109.25 -247.5 110.25 -248.05 116.15 -271.6 109.95 -312.4 97.05 -319.25 79.2 -306.35 69.0 -283.85 66.95 -259.2 66.85 -259.0 86.75 -232.6 95.0 -217.55 107.25 -213.4 138.55 -223.0 189.1 -224.4 215.0 -214.75 194.5 -214.75 123.65 -195.7 120.9 -184.85 133.15 -147.95 150.8 -135.7 197.15 -137.1 217.6 -159.6 223.65 -198.65 226.1 -151.4 225.5 -123.1 211.7 -129.85 171.25 -126.25 150.8 -111.2 168.65 -28.1 198.55 11.45 213.1 19.95 222.55 20.7 222.4 29.4 211.6 29.9 178.85 53.15 178.85 64.0 182.9 83.05 170.65 64.0 155.6 55.75 Q131.1 55.75 127.1 54.35 L120.1 53.3 119.7 45.0 Q120.65 44.5 121.15 42.8 121.55 41.5 121.8 38.7 L122.9 38.1 129.55 42.45 Q136.7 46.8 139.35 47.55 143.35 48.95 170.65 50.35 L198.95 23.3 195.9 23.7 171.25 -7.65 150.8 -26.7 125.7 -18.5 148.15 -32.15 152.2 -77.1 135.9 -98.95 134.5 -127.65 115.45 -152.15 115.45 -178.05 80.75 -153.55 99.0 -195.7 71.75 -223.0 39.0 -190.25 60.9 -231.2 40.4 -238.05 22.75 -216.15 25.55 -246.25 5.05 -261.15 -59.1 -257.1 -72.75 -233.85 -74.6 -185.8 -80.8 -182.9 -80.8 -207.95 -83.6 -235.25 -99.9 -243.45 -132.6 -225.8 -135.4 -199.9 -135.4 -232.6 -104.1 -252.9 -83.6 -254.3 -72.75 -263.9 -48.45 -268.85 -51.7 -269.4 -51.7 -300.15 -57.75 -314.55 -86.9 -321.2 -15.2 -317.15 Q-21.55 -315.15 -27.1 -311.65 -33.85 -307.4 -37.25 -302.15 L-39.2 -270.75 -5.95 -277.55 29.55 -267.95 56.85 -244.85 57.15 -245.3 50.7 -263.4 60.9 -300.15 48.2 -319.2 97.05 -319.25 M-142.85 -276.8 L-144.25 -289.05 -132.0 -302.7 -128.4 -320.8 -123.75 -321.15 -109.5 -312.9 -92.9 -318.95 -93.85 -310.9 Q-115.7 -290.45 -119.75 -289.05 -122.2 -288.25 -127.35 -282.35 L-132.0 -276.8 -142.85 -276.8 -137.4 -256.3 -152.45 -237.25 -149.65 -195.1 -163.3 -220.95 -182.35 -241.45 -205.65 -249.5 -224.1 -243.45 -217.9 -261.9 -174.3 -265.95 -142.85 -276.8 M193.15 300.4 L144.5 209.4 133.15 209.9 135.9 206.45 125.7 194.2 144.0 201.05 165.85 177.8 206.75 170.95 209.7 171.7 216.25 173.65 215.6 175.75 227.85 181.8 Q222.3 183.5 200.4 184.3 L179.5 184.6 167.15 191.15 176.85 247.4 193.15 300.4 M224.6 116.6 L224.1 128.9 222.45 138.3 212.2 142.3 186.3 127.4 163.2 131.45 144.0 138.25 122.3 134.2 141.35 127.4 178.1 109.55 224.6 116.6 M-166.7 46.95 L-162.7 15.6 -161.9 16.25 -158.65 53.15 -170.9 61.2 -158.65 75.6 -160.65 110.35 -174.95 120.6 -160.65 130.8 -160.65 186.0 -187.2 177.8 -178.95 190.05 -160.65 204.45 -150.45 316.85 -175.7 317.45 -184.55 278.7 -196.8 211.9 -188.55 192.8 -206.25 173.75 -195.4 170.95 -174.95 172.35 -166.7 146.45 -176.35 128.8 Q-202.2 126.0 -210.45 127.4 -215.4 128.35 -207.95 123.85 -204.25 121.65 -199.45 119.2 L-169.5 106.95 -170.9 74.2 -184.55 66.0 -211.7 66.0 -183.15 57.8 -166.7 46.95 M-195.4 -154.75 L-199.45 -167.15 -157.25 -139.9 -146.25 -158.95 Q-147.65 -178.05 -150.45 -183.45 -152.15 -186.85 -145.3 -187.5 -141.9 -187.8 -138.2 -187.5 L-133.85 -171.65 Q-128.75 -154.95 -124.55 -150.75 L-143.6 -150.75 -157.25 -116.65 -177.7 -97.55 -154.45 -94.15 -181.75 -86.7 -191.35 -75.7 -189.95 -41.75 -183.15 -10.3 -201.45 -6.25 -194.0 -34.95 -196.8 -67.65 -199.45 -78.5 -211.7 -82.5 -195.4 -90.75 -173.55 -114.0 -161.3 -124.85 -176.35 -142.5 -195.4 -154.75" fill="#000000" fill-opacity="0.24705882" fill-rule="evenodd" stroke="none"/>
    <path d="M-160.55 204.55 L-150.3 317.0 -228.0 319.05 -217.8 198.35 -209.55 184.1 -219.8 159.45 -217.8 126.7 Q-213.9 120.35 -216.4 95.25 L-219.8 71.5 -213.75 55.2 -219.8 6.05 Q-214.7 2.3 -220.9 -7.45 L-228.0 -16.45 -226.0 -77.85 Q-219.65 -80.35 -222.1 -89.5 L-226.0 -98.2 -232.05 -147.35 -215.75 -153.55 -224.0 -169.85 -224.0 -243.5 -217.8 -261.95 -221.8 -276.25 -221.8 -313.0 -123.65 -321.2 -109.35 -313.0 -86.9 -321.2 -15.2 -317.15 48.2 -319.2 97.2 -319.2 121.75 -323.2 162.65 -319.2 207.65 -317.15 219.9 -302.75 219.9 -274.2 226.1 -151.4 222.1 42.95 226.1 79.7 224.1 128.9 215.85 175.9 228.1 181.95 232.3 218.85 230.15 323.2 109.5 323.2 Q125.9 239.3 125.9 218.85 L136.15 206.6 125.9 194.35 121.75 128.9 136.15 128.9 123.9 110.45 119.7 45.0 Q124.85 42.35 118.65 12.7 L111.5 -16.45 125.9 -18.45 107.45 -32.75 93.2 -85.95 Q99.55 -93.55 84.65 -117.1 L68.55 -139.1 80.95 -153.55 62.5 -153.55 38.0 -171.85 19.5 -182.1 21.55 -202.55 7.25 -184.1 -68.4 -180.05 Q-76.0 -185.2 -80.2 -181.15 L-80.25 -181.0 -81.45 -179.45 -82.85 -176.05 -107.35 -151.4 -119.6 -155.55 -111.4 -141.15 -135.9 -100.35 -154.35 -94.15 -140.05 -83.9 -152.35 -34.9 -154.35 -18.45 -176.85 -10.25 -201.35 -6.2 Q-189.1 -2.15 -172.8 -2.15 L-162.55 8.05 -158.55 53.2 -170.8 61.25 -158.55 75.7 -160.55 110.45 -174.8 120.65 -160.55 130.9 -160.55 186.1 -187.05 177.9 -178.85 190.15 -160.55 204.55" fill="none" stroke="#000000" stroke-linecap="round" stroke-linejoin="miter-clip" stroke-miterlimit="10.0" stroke-width="1.0"/>
    <path d="M-107.35 -151.4 L-67.65 -152.75 M-170.8 61.25 L-123.65 40.05 M-154.35 -94.15 L-129.85 -90.1 -96.1 -105.1 M-154.35 -18.45 L-127.65 -19.1 M-160.55 186.1 L-135.9 179.9 -111.35 143.1 M-160.55 204.55 L-135.9 208.6 -112.85 227.95" fill="none" stroke="#000000" stroke-linecap="round" stroke-linejoin="miter-clip" stroke-miterlimit="10.0" stroke-opacity="0.6" stroke-width="1.0"/>
    <path d="M-117.6 -11.65 L-140.05 -6.2 -176.85 -10.25 M-121.05 79.3 L-131.85 104.2 -160.55 110.45" fill="none" stroke="#000000" stroke-linecap="butt" stroke-linejoin="miter-clip" stroke-miterlimit="10.0" stroke-opacity="0.6" stroke-width="1.0"/>
  </g>
</svg>
