<?xml version="1.0" encoding="UTF-8" standalone="no"?>
<svg xmlns:xlink="http://www.w3.org/1999/xlink" height="155.3px" width="857.2px" xmlns="http://www.w3.org/2000/svg">
  <g transform="matrix(1.0, 0.0, 0.0, 1.0, 428.1, 77.9)">
    <path d="M428.6 -77.4 L428.6 76.5 -427.6 76.5 -427.6 -75.15 -382.7 -75.15 -350.55 -72.85 -238.05 -72.85 -162.3 -77.4 -121.0 -72.85 236.35 -73.0 319.75 -75.15 342.75 -77.4 428.6 -77.4" fill="#ffffff" fill-opacity="0.0" fill-rule="evenodd" stroke="none"/>
    <path d="M-396.45 -43.0 L-288.6 -38.4 -269.4 -43.0 -244.95 -64.45 -255.65 -43.0 -228.1 -43.0 -189.85 -44.5 -133.25 -38.4 -117.9 -47.6 Q-115.0 -41.85 -89.45 -41.85 L-64.4 -43.0 -33.75 -35.3 -9.3 -33.8 1.5 -46.1 10.65 -36.9 48.9 -33.8 84.1 -33.8 105.45 -32.3 1.5 -26.1 1.5 36.55 -4.7 -23.15 -24.6 -24.6 Q-30.1 -24.6 -50.4 -27.15 -70.35 -29.55 -75.1 -30.7 -78.85 -31.75 -94.95 -30.6 L-110.3 -29.2 Q-131.65 -26.1 -136.25 -26.1 L-222.0 -32.3 -284.8 -29.2 -396.45 -43.0 M-143.95 51.95 L-152.1 76.5 -153.35 76.5 -154.6 53.45 Q-188.35 54.9 -195.95 53.45 -203.65 51.95 -229.7 51.95 L-259.9 50.9 Q-284.8 49.85 -287.75 48.85 -290.65 47.9 -304.05 45.95 L-316.95 44.25 -326.1 50.35 -345.95 73.3 -341.4 50.35 -361.25 48.85 -371.55 49.65 -384.2 50.35 -402.45 48.85 -414.85 47.35 -427.6 47.35 -427.6 -37.25 -402.55 -43.0 -417.95 -27.7 -416.35 -4.75 -402.55 -0.15 -424.0 13.6 -420.9 18.55 Q-417.15 23.95 -413.35 25.9 -407.15 29.0 -376.6 31.95 L-345.95 35.05 -283.2 -21.5 -306.15 25.9 -292.35 33.55 -274.0 35.05 -235.8 31.95 -200.55 39.65 -176.1 41.15 -142.45 33.55 -128.7 -9.35 -131.65 35.05 -110.3 35.05 -78.2 31.95 -46.05 38.15 -12.3 47.35 -125.6 51.95 -143.95 51.95 M104.0 47.35 L131.55 44.25 134.65 22.8 145.3 31.95 Q148.15 38.75 157.8 42.85 162.5 45.05 166.75 45.75 L205.0 48.85 283.05 47.35 312.1 38.15 307.5 25.9 338.15 42.75 388.65 47.35 341.25 58.0 321.25 51.95 241.7 53.45 153.0 56.55 151.4 68.7 133.0 53.45 104.0 47.35" fill="#000000" fill-opacity="0.24705882" fill-rule="evenodd" stroke="none"/>
    <path d="M55.3 -58.85 Q53.45 -59.95 51.55 -61.1 L55.65 -62.6 Q57.7 -59.05 55.3 -58.85 M56.9 -48.15 Q54.5 -46.1 52.35 -46.9 L47.75 -47.25 46.35 -46.65 46.0 -49.75 50.4 -50.35 59.7 -49.4 56.9 -48.15 M79.2 -57.55 Q71.4 -54.95 69.55 -55.25 68.4 -55.4 66.35 -56.65 L64.5 -57.8 79.2 -57.55 M22.85 -52.5 L17.9 -53.45 Q25.8 -53.55 22.85 -52.5 M29.15 -66.15 Q20.2 -63.9 20.1 -65.6 19.95 -66.85 23.85 -67.2 27.75 -67.55 29.15 -66.15 M23.85 -22.1 L18.25 -20.6 Q12.5 -19.45 12.4 -21.4 12.15 -23.7 17.1 -24.3 22.05 -24.75 23.85 -22.1 M57.05 -7.5 L52.1 -11.75 57.4 -14.4 Q60.0 -7.65 57.05 -7.5 M87.1 -4.1 Q77.45 0.4 75.15 -0.3 73.7 -0.65 71.05 -2.95 L68.65 -5.25 87.1 -4.1 M137.15 -62.15 L141.4 -62.95 Q145.9 -63.55 146.35 -62.15 146.9 -60.3 143.45 -60.1 139.9 -60.0 137.15 -62.15 M94.35 -68.45 Q89.5 -67.3 88.85 -68.45 88.25 -69.5 91.25 -69.85 94.2 -70.2 94.35 -68.45 M98.8 -55.15 Q92.25 -53.45 91.6 -54.7 91.0 -55.6 93.75 -55.95 96.65 -56.2 98.8 -55.15 M105.8 -23.7 Q99.75 -21.85 98.8 -24.05 98.0 -26.0 101.8 -26.45 105.6 -26.9 105.8 -23.7 M141.75 -36.9 L144.85 -37.35 Q148.15 -37.5 148.65 -36.1 149.2 -34.15 145.4 -33.9 141.75 -33.7 141.75 -36.9 M190.3 -61.0 L195.6 -62.85 Q201.2 -64.55 202.6 -64.1 204.9 -63.3 208.65 -58.7 L190.3 -61.0 M232.75 -57.55 L238.85 -55.25 234.35 -55.85 Q230.35 -56.65 232.75 -57.55 M171.95 -60.2 L176.5 -55.6 171.15 -53.3 Q170.55 -55.05 170.35 -56.75 170.0 -60.2 171.95 -60.2 M160.1 -3.95 L164.35 -4.75 Q168.85 -5.35 169.3 -3.95 169.85 -2.15 166.4 -2.0 162.85 -1.8 160.1 -3.95 M223.6 -33.1 L229.3 -34.25 Q235.05 -34.95 235.05 -33.1 235.05 -30.7 230.25 -30.5 225.2 -30.25 223.6 -33.1 M213.25 -47.25 L213.7 -48.95 Q214.4 -50.55 216.1 -49.55 219.9 -47.35 222.3 -47.35 L232.2 -47.25 237.6 -43.8 220.7 -42.65 208.65 -42.65 213.25 -47.25 M205.2 -15.45 L207.3 -16.45 211.3 -16.25 Q216.7 -13.15 226.7 -13.15 L235.85 -10.85 Q225.1 -7.05 221.3 -7.05 L204.4 -7.85 205.2 -15.45 M315.65 -64.9 L320.25 -66.5 Q325.05 -68.0 326.3 -67.55 328.25 -66.85 331.6 -62.95 L315.65 -64.9 M299.8 -64.2 L303.8 -60.3 299.1 -58.25 298.4 -61.25 Q298.2 -64.2 299.8 -64.2 M269.75 -65.95 L273.4 -66.65 Q277.2 -67.2 277.65 -65.95 278.2 -64.35 275.25 -64.2 272.15 -64.0 269.75 -65.95 M273.65 -44.0 L276.4 -44.5 Q279.15 -44.7 279.6 -43.45 280.15 -41.75 276.85 -41.5 273.65 -41.25 273.65 -44.0 M322.2 -22.1 Q310.95 -18.3 310.8 -21.4 310.6 -23.7 315.55 -24.3 320.35 -24.75 322.2 -22.1 M391.15 -67.9 L391.5 -69.4 Q392.2 -70.75 393.7 -69.95 396.9 -68.0 399.1 -68.0 L407.6 -67.9 412.15 -64.9 397.7 -64.0 387.25 -64.0 391.15 -67.9 M352.35 -61.95 L357.65 -60.0 353.85 -60.45 Q350.4 -61.1 352.35 -61.95 M344.45 -40.8 L349.5 -41.85 Q354.45 -42.4 354.45 -40.8 354.45 -38.75 350.2 -38.5 345.85 -38.4 344.45 -40.8 M355.45 -7.5 L350.55 -11.75 355.7 -14.4 356.75 -10.95 Q357.3 -7.65 355.45 -7.5 M404.15 -23.7 Q398.15 -21.85 397.25 -24.05 396.45 -26.0 400.25 -26.45 404.0 -26.9 404.15 -23.7 M385.55 -4.1 Q375.9 0.4 373.5 -0.3 372.1 -0.65 369.45 -2.95 L367.05 -5.25 385.55 -4.1 M415.95 47.45 Q411.15 48.6 410.45 47.45 409.9 46.45 412.85 46.1 415.85 45.75 415.95 47.45 M420.45 60.75 Q413.9 62.4 413.2 61.25 412.65 60.3 415.4 59.95 418.25 59.75 420.45 60.75 M357.9 12.45 Q355.0 16.1 352.15 14.75 348.7 13.05 346.4 13.7 L344.7 14.75 344.1 9.0 349.6 8.2 Q353.4 7.95 361.3 10.15 L357.9 12.45 M344.45 63.3 L339.5 62.5 Q347.45 62.4 344.45 63.3 M350.75 49.75 Q341.8 51.95 341.7 50.35 341.6 49.05 345.5 48.7 349.4 48.4 350.75 49.75 M400.8 58.35 Q393.0 60.9 391.15 60.65 390.0 60.45 387.95 59.3 L386.1 58.15 400.8 58.35 M376.95 57.1 L373.15 54.8 377.3 53.3 Q379.35 56.85 376.95 57.1 M378.55 67.8 Q376.15 69.75 373.95 69.05 371.2 68.25 369.35 68.6 L368.0 69.15 367.65 66.15 372.0 65.6 381.3 66.4 378.55 67.8 M410.45 1.1 Q402.2 3.95 401.25 1.8 400.6 -0.05 404.0 -0.4 407.6 -0.85 410.45 1.1 M314.7 2.9 L308.4 0.95 Q318.4 1.1 314.7 2.9 M246.55 25.1 L252.3 23.95 Q258.0 23.15 258.0 25.1 258.0 27.5 253.2 27.7 248.25 27.85 246.55 25.1 M255.7 0.65 L261.8 2.9 257.35 2.35 Q253.3 1.55 255.7 0.65 M258.8 55.15 L264.2 53.9 Q269.85 52.65 271.2 52.95 273.65 53.55 277.55 56.85 L258.8 55.15 M282.1 65.25 L282.6 64.0 Q283.25 62.85 285.0 63.55 288.8 65.15 291.4 65.15 L301.4 65.25 306.8 67.65 289.7 68.6 277.55 68.6 282.1 65.25 M302.0 57.7 L308.2 59.4 303.6 58.95 Q299.55 58.35 302.0 57.7 M292.55 75.45 Q304.3 73.3 304.3 75.45 304.3 77.3 299.35 77.4 294.3 77.55 292.55 75.45 M214.4 8.2 L219.0 12.8 213.6 15.1 Q213.0 13.35 212.8 11.65 212.45 8.2 214.4 8.2 M184.55 2.9 L189.85 1.1 Q195.45 -0.65 196.85 -0.15 199.15 0.65 202.9 5.2 L184.55 2.9 M164.7 21.3 L167.8 20.85 Q171.15 20.6 171.6 22.0 172.15 23.95 168.35 24.25 164.7 24.5 164.7 21.3 M240.25 55.7 L244.8 59.05 239.4 60.75 Q238.85 59.5 238.6 58.25 238.3 55.7 240.25 55.7 M204.9 54.35 L209.25 53.75 Q213.7 53.3 214.15 54.35 214.85 55.7 211.3 55.85 207.75 55.95 204.9 54.35 M209.45 72.7 L212.7 72.35 Q216.0 72.25 216.45 73.3 217.15 74.8 213.25 74.9 209.45 75.0 209.45 72.7 M112.0 1.1 Q103.75 3.95 102.85 1.8 102.15 -0.05 105.6 -0.4 109.15 -0.85 112.0 1.1 M104.9 61.6 Q92.85 64.1 90.1 64.0 L85.15 62.95 82.4 62.15 104.9 61.6 M128.65 51.95 Q121.2 53.1 120.15 52.15 119.35 51.35 124.05 50.9 128.55 50.55 128.65 51.95 M134.95 62.6 Q124.75 64.35 123.7 63.4 123.05 62.75 127.3 62.25 L134.95 62.6 M59.45 12.45 Q56.6 16.1 53.7 14.75 50.25 13.05 47.95 13.7 L46.25 14.75 45.65 9.0 51.2 8.2 Q54.95 7.95 62.9 10.15 L59.45 12.45 M16.3 2.9 L10.1 0.95 Q19.95 1.1 16.3 2.9 M18.25 68.45 L10.65 67.9 Q22.85 67.45 18.25 68.45 M28.7 56.85 L21.7 57.9 Q14.8 58.7 14.7 57.8 14.55 56.75 20.55 56.3 26.6 55.85 28.7 56.85 M70.35 70.4 Q66.7 72.15 63.25 71.7 59.1 71.1 56.1 71.55 L54.05 72.15 53.7 69.6 60.35 68.9 Q65.05 68.7 74.7 69.15 L70.35 70.4 M68.4 61.7 L62.65 60.1 69.1 58.6 70.1 60.1 Q70.7 61.6 68.4 61.7 M-403.15 -22.1 Q-414.4 -18.3 -414.6 -21.4 -414.85 -23.7 -409.9 -24.3 -404.95 -24.75 -403.15 -22.1 M-353.45 -52.65 L-358.15 -53.65 Q-350.45 -53.65 -353.45 -52.65 M-347.25 -66.85 Q-355.95 -64.55 -356.05 -66.3 -356.2 -67.65 -352.4 -68.0 -348.6 -68.35 -347.25 -66.85 M-320.35 -47.8 Q-322.65 -45.75 -324.85 -46.45 -327.35 -47.35 -329.2 -47.0 L-330.6 -46.45 -330.95 -49.65 -326.7 -50.1 Q-323.8 -50.35 -317.75 -49.2 L-320.35 -47.8 M-369.95 -7.5 L-374.9 -11.75 -369.6 -14.4 -368.6 -10.95 Q-368.0 -7.65 -369.95 -7.5 M-321.15 -23.7 Q-327.25 -21.85 -328.2 -24.05 -329.0 -26.0 -325.2 -26.45 -321.4 -26.9 -321.15 -23.7 M-339.9 -4.1 Q-349.55 0.4 -351.8 -0.3 -353.3 -0.65 -355.95 -2.95 L-358.35 -5.25 -339.9 -4.1 M-299.0 -57.55 Q-306.5 -54.95 -308.2 -55.25 -309.35 -55.4 -311.3 -56.65 L-313.15 -57.9 -299.0 -57.55 M-322.0 -59.05 L-325.65 -61.35 -321.65 -62.95 Q-319.7 -59.15 -322.0 -59.05 M-279.95 -54.95 Q-286.3 -53.2 -286.95 -54.45 -287.55 -55.5 -284.8 -55.75 -282.15 -55.95 -279.95 -54.95 M-284.45 -68.95 Q-289.05 -67.65 -289.7 -68.95 -290.3 -69.95 -287.45 -70.3 -284.55 -70.65 -284.45 -68.95 M-245.75 -22.1 Q-248.5 -21.2 -251.4 -20.6 -257.15 -19.45 -257.25 -21.4 -257.45 -23.7 -252.55 -24.3 -247.6 -24.75 -245.75 -22.1 M-189.5 -57.9 L-194.0 -59.75 -189.05 -61.1 Q-186.75 -58.15 -189.5 -57.9 M-187.9 -48.85 Q-190.65 -47.1 -193.3 -47.7 L-198.7 -47.9 -200.3 -47.45 -200.55 -50.0 -195.5 -50.55 -184.6 -50.0 -187.9 -48.85 M-161.75 -57.35 Q-170.8 -54.95 -173.0 -55.15 -174.35 -55.25 -176.8 -56.3 L-178.85 -57.2 -161.75 -57.35 M-227.65 -51.85 L-233.35 -52.5 Q-224.2 -52.85 -227.65 -51.85 M-219.8 -63.55 L-225.1 -62.6 -230.5 -62.85 Q-230.6 -63.9 -226.0 -64.35 -221.45 -64.7 -219.8 -63.55 M-212.6 -7.5 L-217.4 -11.75 -212.25 -14.4 -211.2 -10.95 Q-210.65 -7.65 -212.6 -7.5 M-182.4 -4.1 Q-192.15 0.4 -194.45 -0.3 -195.85 -0.65 -198.45 -2.95 L-200.9 -5.25 -182.4 -4.1 M-163.8 -23.7 Q-169.8 -21.85 -170.7 -24.05 -171.5 -26.0 -167.7 -26.45 -164.05 -26.9 -163.8 -23.7 M-97.1 -51.85 L-102.85 -52.5 Q-93.55 -52.85 -97.1 -51.85 M-89.3 -63.55 L-94.6 -62.6 -100.0 -62.85 Q-100.0 -63.9 -95.5 -64.35 -90.9 -64.7 -89.3 -63.55 M-143.85 -66.85 Q-149.45 -65.85 -150.25 -66.75 -150.95 -67.65 -147.4 -68.0 -143.95 -68.25 -143.85 -66.85 M-138.8 -55.75 Q-146.6 -54.1 -147.3 -55.15 -147.95 -55.85 -144.75 -56.2 L-138.8 -55.75 M-112.4 -6.15 L-108.5 -7.05 Q-104.6 -7.75 -104.1 -6.15 -103.55 -4.2 -106.65 -4.1 -109.95 -3.85 -112.4 -6.15 M-13.35 -66.85 Q-18.95 -65.85 -19.65 -66.75 -20.35 -67.65 -16.75 -68.0 -13.45 -68.25 -13.35 -66.85 M-8.3 -55.75 Q-15.95 -54.1 -16.75 -55.15 -17.45 -55.85 -14.25 -56.2 L-8.3 -55.75 M-59.0 -57.9 L-63.35 -59.75 -58.55 -61.1 Q-56.15 -58.15 -59.0 -57.9 M-57.3 -48.85 Q-60.15 -47.1 -62.7 -47.7 L-68.1 -47.9 -69.7 -47.45 -70.05 -50.0 -65.0 -50.55 -54.05 -50.0 -57.3 -48.85 M-31.25 -57.35 Q-40.3 -54.95 -42.5 -55.15 -43.75 -55.25 -46.15 -56.3 L-48.2 -57.2 -31.25 -57.35 M-67.15 -17.75 L-64.65 -21.4 Q-61.9 -24.95 -60.25 -23.95 -57.3 -21.85 -52.35 -21.5 L-48.1 -21.65 -59.6 -17.75 -59.45 -15.45 Q-59.7 -13.15 -61.9 -13.15 -63.95 -13.15 -69.25 -15.1 L-74.05 -17.05 -67.15 -17.75 M-90.45 1.2 L-85.75 -0.75 Q-80.7 -2.6 -79.45 -2.15 -77.4 -1.3 -74.05 3.6 L-90.45 1.2 M-35.0 24.85 L-29.85 23.7 Q-24.7 22.9 -24.7 24.85 -24.7 27.5 -29.05 27.6 -33.55 27.85 -35.0 24.85 M-26.75 -1.3 L-21.25 1.2 -25.25 0.65 Q-28.95 -0.3 -26.75 -1.3 M-63.7 6.95 L-59.6 11.75 -64.4 14.3 -65.1 10.6 Q-65.45 6.95 -63.7 6.95 M-82.45 51.7 L-79.8 48.95 Q-76.7 46.45 -75.1 47.25 -69.9 49.65 -62.0 48.95 L-74.3 51.7 -74.05 53.45 Q-74.4 55.15 -76.7 55.15 -79.0 55.15 -84.6 53.75 L-89.75 52.3 -82.45 51.7 M-39.15 64.1 L-33.3 65.95 -37.55 65.5 Q-41.45 64.8 -39.15 64.1 M-108.25 20.85 L-105.4 20.25 Q-102.5 20.05 -102.05 21.65 -101.5 23.7 -104.9 23.95 -108.25 24.15 -108.25 20.85 M-130.75 60.45 L-126.6 59.75 Q-122.35 59.3 -121.9 60.45 -121.35 61.9 -124.65 62.05 -128.1 62.15 -130.75 60.45 M-85.75 68.1 L-89.2 65.35 Q-92.3 62.6 -90.9 62.95 L-76.0 63.55 -85.75 68.1 M-186.05 41.85 Q-194.55 43.55 -195.7 41.85 -196.75 40.35 -191.35 39.9 -186.2 39.45 -186.05 41.85 M-210.05 12.45 Q-213.05 16.1 -215.8 14.75 -219.35 13.05 -221.65 13.7 L-223.4 14.75 -223.85 9.0 -218.45 8.2 Q-214.65 7.95 -206.6 10.15 L-210.05 12.45 M-212.8 58.15 Q-223.15 61.0 -226.35 60.65 -228.3 60.45 -231.55 57.35 L-234.4 54.35 -212.8 58.15 M-178.4 61.25 Q-190.0 63.85 -191.15 62.15 -192.15 60.75 -187.35 60.3 -182.3 59.85 -178.4 61.25 M-253.35 2.9 L-259.55 0.95 Q-249.55 1.1 -253.35 2.9 M-299.95 46.45 L-307.85 47.8 Q-315.8 48.95 -315.9 47.45 -316.0 45.5 -309.25 44.95 -302.45 44.35 -299.95 46.45 M-311.4 66.5 L-320.05 65.25 Q-306.15 64.9 -311.4 66.5 M-254.5 56.65 L-261.05 53.45 -253.8 51.15 -252.55 53.75 Q-251.85 56.55 -254.5 56.65 M-251.6 67.45 Q-252.75 69.25 -254.5 71.0 -257.8 74.45 -260.2 73.85 -264.95 72.6 -270.55 72.25 L-275.15 72.15 -270.55 65.25 -263.0 64.45 Q-259.65 64.2 -259.55 66.4 -259.55 67.55 -260.2 68.7 L-251.6 67.45 M-157.6 1.1 Q-165.75 3.95 -166.7 1.8 -167.35 -0.05 -164.05 -0.4 -160.5 -0.85 -157.6 1.1 M-367.55 12.45 Q-370.4 16.1 -373.3 14.75 -376.75 13.05 -379.0 13.7 L-380.75 14.75 -381.3 9.0 -375.8 8.2 Q-372.0 7.95 -364.1 10.15 L-367.55 12.45 M-410.7 2.9 L-416.9 0.95 Q-406.9 1.1 -410.7 2.9 M-315.0 1.1 Q-323.25 3.95 -324.15 1.8 -324.85 -0.05 -321.4 -0.4 -317.85 -0.85 -315.0 1.1" fill="#000000" fill-opacity="0.2" fill-rule="evenodd" stroke="none"/>
    <path d="M0.65 -72.9 L0.35 -31.25 16.75 -29.2 120.15 -33.7 117.75 -41.5 106.7 -72.95 M-108.1 -72.85 L-119.5 -41.5 -122.5 -31.6 -121.0 -31.5 -93.45 -36.1 -1.6 -31.5 0.35 -31.25 -1.15 49.15 14.45 51.15 146.2 48.95 140.7 33.55 120.15 -33.7 122.35 -33.8 140.7 -29.2 264.7 -36.1 265.7 -35.85 236.35 -73.0 M428.6 -27.3 L401.2 -42.65 283.05 -31.5 265.7 -35.85 283.05 -13.95 318.3 35.05 327.35 46.0 336.2 46.9 Q342.15 47.7 347.3 48.85 L428.6 46.7 M428.6 -40.9 L404.7 -43.0 401.2 -42.65 370.3 -59.85 341.2 -77.25 M327.35 46.0 L352.5 76.5 M146.2 48.95 L149.9 48.85 175.15 53.45 319.75 46.55 327.35 46.0 M146.2 48.95 L156.0 76.5 M-350.55 -72.85 L-372.0 -59.85 -401.15 -43.6 -371.2 -43.0 -288.6 -38.4 -272.5 -31.5 -270.05 -32.5 -238.05 -72.85 M-401.15 -43.6 L-427.6 -28.1 M-427.6 -44.35 L-401.15 -43.6 M-270.05 -32.5 L-284.8 -13.95 -323.75 40.05 -304.65 41.95 -189.85 44.25 -150.85 41.95 -145.75 42.8 -142.45 33.55 -122.5 -31.6 -153.15 -33.8 -187.55 -33.8 -225.65 -35.2 Q-260.1 -35.7 -270.05 -32.5 M-145.75 42.8 L-137.05 44.25 -75.1 39.65 -1.15 49.15 -2.05 76.5 M-145.75 42.8 L-157.7 76.5 M-427.6 39.65 L-327.6 39.65 -323.75 40.05 -352.2 76.5" fill="none" stroke="#000000" stroke-linecap="round" stroke-linejoin="miter-clip" stroke-miterlimit="4.0" stroke-opacity="0.6" stroke-width="1.0"/>
    <path d="M106.7 -72.95 L0.65 -72.9 -108.1 -72.85 -121.0 -72.85 -162.3 -77.4 -238.05 -72.85 -350.55 -72.85 -382.7 -75.15 -427.6 -75.15 -427.6 -44.35 -427.6 -28.1 -427.6 39.65 -427.6 76.5 -352.2 76.5 -157.7 76.5 -2.05 76.5 156.0 76.5 352.5 76.5 428.6 76.5 428.6 46.7 428.6 -27.3 428.6 -40.9 M236.35 -73.0 L106.7 -72.95 M341.2 -77.25 L319.75 -75.15 236.35 -73.0" fill="none" stroke="#000000" stroke-linecap="round" stroke-linejoin="miter-clip" stroke-miterlimit="4.0" stroke-width="1.0"/>
    <path d="M342.75 -77.4 L341.2 -77.25" fill="none" stroke="#000000" stroke-linecap="butt" stroke-linejoin="miter-clip" stroke-miterlimit="4.0" stroke-opacity="0.6" stroke-width="1.0"/>
    <path d="M428.6 -40.9 L428.6 -77.4 342.75 -77.4" fill="none" stroke="#000000" stroke-linecap="round" stroke-linejoin="miter-clip" stroke-miterlimit="4.0" stroke-width="1.0"/>
  </g>
</svg>
