<?xml version="1.0" encoding="UTF-8" standalone="no"?>
<svg xmlns:xlink="http://www.w3.org/1999/xlink" height="370.45px" width="1605.1px" xmlns="http://www.w3.org/2000/svg">
  <g transform="matrix(1.0, 0.0, 0.0, 1.0, 0.5, 0.5)">
    <path d="M1444.65 244.3 Q1450.95 229.4 1462.45 217.9 1473.95 206.4 1488.8 200.1 1504.25 193.6 1521.1 193.6 1538.0 193.6 1553.4 200.1 1568.3 206.4 1579.8 217.9 1591.3 229.4 1597.6 244.3 1604.1 259.7 1604.1 276.6 1604.1 293.5 1597.6 308.9 1591.3 323.75 1579.8 335.25 1568.3 346.75 1553.4 353.05 1538.0 359.55 1521.1 359.55 1504.25 359.55 1488.8 353.05 1473.95 346.75 1462.45 335.25 1450.95 323.75 1444.65 308.9 1438.15 293.45 1438.15 276.6 1438.15 259.7 1444.65 244.3 M1587.8 276.6 Q1587.8 248.95 1568.25 229.45 1548.75 209.9 1521.1 209.9 1493.5 209.9 1474.0 229.45 1454.45 248.95 1454.45 276.6 1454.45 304.2 1474.0 323.75 1493.5 343.25 1521.1 343.25 1548.75 343.25 1568.25 323.75 1587.8 304.2 1587.8 276.6 M1114.25 217.9 Q1125.75 206.4 1140.65 200.1 1156.05 193.6 1172.95 193.6 1189.8 193.6 1205.25 200.1 1220.1 206.4 1231.6 217.9 1243.1 229.4 1249.4 244.3 1255.9 259.7 1255.9 276.6 1255.9 293.5 1249.4 308.9 1243.1 323.75 1231.6 335.25 1220.1 346.75 1205.25 353.05 1189.85 359.55 1172.95 359.55 1156.05 359.55 1140.65 353.05 1125.75 346.75 1114.25 335.25 1102.75 323.75 1096.45 308.9 1089.95 293.45 1089.95 276.6 1089.95 259.7 1096.45 244.3 1102.75 229.4 1114.25 217.9 M1125.8 229.45 Q1106.25 248.95 1106.25 276.6 1106.25 304.2 1125.8 323.75 1145.3 343.25 1172.95 343.25 1200.55 343.25 1220.1 323.75 1239.6 304.2 1239.6 276.6 1239.6 248.95 1220.1 229.45 1200.55 209.9 1172.95 209.9 1145.3 209.9 1125.8 229.45 M814.2 112.8 Q828.7 147.1 828.7 184.7 828.7 222.3 814.2 256.6 800.15 289.8 774.6 315.35 749.05 340.9 715.85 354.95 681.55 369.45 643.95 369.45 606.4 369.45 572.1 354.95 538.95 340.9 513.4 315.35 487.85 289.75 473.8 256.6 459.3 222.3 459.3 184.7 459.3 147.15 473.8 112.8 487.85 79.65 513.4 54.1 538.95 28.55 572.1 14.5 606.4 0.0 643.95 0.0 681.55 0.0 715.85 14.5 749.05 28.55 774.6 54.1 800.15 79.65 814.2 112.8 M767.9 60.8 Q743.6 36.55 712.15 23.25 679.6 9.5 643.95 9.5 608.35 9.5 575.8 23.25 544.35 36.55 520.1 60.8 495.85 85.05 482.55 116.5 468.8 149.05 468.8 184.7 468.8 220.35 482.55 252.9 495.85 284.35 520.1 308.65 544.35 332.9 575.8 346.2 608.3 359.95 643.95 359.95 679.6 359.95 712.15 346.2 743.6 332.9 767.9 308.65 792.15 284.35 805.45 252.9 819.2 220.35 819.2 184.7 819.2 149.05 805.45 116.5 792.15 85.05 767.9 60.8 M354.9 112.8 Q369.4 147.1 369.4 184.7 369.4 222.3 354.9 256.6 340.85 289.8 315.3 315.35 289.75 340.9 256.6 354.95 222.3 369.45 184.7 369.45 147.1 369.45 112.8 354.95 79.65 340.9 54.1 315.35 28.55 289.8 14.5 256.6 0.0 222.3 0.0 184.7 0.0 147.1 14.5 112.8 28.55 79.65 54.1 54.1 79.65 28.55 112.8 14.5 147.1 0.0 184.7 0.0 222.25 0.0 256.6 14.5 289.75 28.55 315.3 54.1 340.85 79.65 354.9 112.8 M346.15 116.5 Q332.85 85.05 308.6 60.8 284.35 36.55 252.9 23.25 220.35 9.5 184.7 9.5 149.05 9.5 116.5 23.25 85.05 36.55 60.8 60.8 36.55 85.05 23.25 116.5 9.5 149.05 9.5 184.7 9.5 220.35 23.25 252.9 36.55 284.35 60.8 308.65 85.05 332.9 116.5 346.2 149.05 359.95 184.7 359.95 220.35 359.95 252.9 346.2 284.35 332.9 308.6 308.65 332.85 284.35 346.15 252.9 359.9 220.35 359.9 184.7 359.9 149.05 346.15 116.5" fill="#ffffff" fill-opacity="0.0" fill-rule="evenodd" stroke="none"/>
    <path d="M1547.8 276.6 Q1547.8 265.55 1540.0 257.7 1532.15 249.9 1521.1 249.9 1510.05 249.9 1502.25 257.7 1494.45 265.55 1494.45 276.6 1494.45 287.65 1502.25 295.45 1510.1 303.25 1521.1 303.25 1532.15 303.25 1540.0 295.45 1547.8 287.65 1547.8 276.6 M1562.6 276.6 Q1562.6 293.8 1550.45 305.9 1538.3 318.05 1521.1 318.05 1503.95 318.05 1491.8 305.9 1479.65 293.8 1479.65 276.6 1479.65 259.4 1491.8 247.25 1503.9 235.1 1521.1 235.1 1538.3 235.1 1550.45 247.25 1562.6 259.4 1562.6 276.6 M1172.95 235.1 Q1190.15 235.1 1202.25 247.25 1214.4 259.4 1214.4 276.6 1214.4 293.8 1202.25 305.9 1190.15 318.05 1172.95 318.05 1155.75 318.05 1143.6 305.9 1131.45 293.8 1131.45 276.6 1131.45 259.4 1143.6 247.25 1155.75 235.1 1172.95 235.1 M1172.95 249.9 Q1161.9 249.9 1154.05 257.7 1146.25 265.55 1146.25 276.6 1146.25 287.65 1154.05 295.45 1161.9 303.25 1172.95 303.25 1184.0 303.25 1191.8 295.45 1199.6 287.65 1199.6 276.6 1199.6 265.55 1191.8 257.7 1184.0 249.9 1172.95 249.9 M667.2 184.7 Q667.2 194.35 660.4 201.15 653.6 207.95 643.95 207.95 634.4 207.95 627.6 201.15 620.8 194.35 620.8 184.7 620.8 175.1 627.6 168.3 634.4 161.5 643.95 161.5 653.6 161.5 660.4 168.3 667.2 175.1 667.2 184.7 M201.1 168.3 Q207.9 175.1 207.9 184.7 207.9 194.35 201.1 201.15 194.3 207.95 184.7 207.95 175.05 207.95 168.25 201.15 161.45 194.35 161.45 184.7 161.45 175.1 168.25 168.3 175.05 161.5 184.7 161.5 194.3 161.5 201.1 168.3" fill="#ffffff" fill-opacity="0.14901961" fill-rule="evenodd" stroke="none"/>
    <path d="M1547.8 276.6 Q1547.8 287.65 1540.0 295.45 1532.15 303.25 1521.1 303.25 1510.1 303.25 1502.25 295.45 1494.45 287.65 1494.45 276.6 1494.45 265.55 1502.25 257.7 1510.05 249.9 1521.1 249.9 1532.15 249.9 1540.0 257.7 1547.8 265.55 1547.8 276.6 M1172.95 249.9 Q1184.0 249.9 1191.8 257.7 1199.6 265.55 1199.6 276.6 1199.6 287.65 1191.8 295.45 1184.0 303.25 1172.95 303.25 1161.9 303.25 1154.05 295.45 1146.25 287.65 1146.25 276.6 1146.25 265.55 1154.05 257.7 1161.9 249.9 1172.95 249.9" fill="#000000" fill-opacity="0.24705882" fill-rule="evenodd" stroke="none"/>
    <path d="M1562.6 276.6 Q1562.6 259.4 1550.45 247.25 1538.3 235.1 1521.1 235.1 1503.9 235.1 1491.8 247.25 1479.65 259.4 1479.65 276.6 1479.65 293.8 1491.8 305.9 1503.95 318.05 1521.1 318.05 1538.3 318.05 1550.45 305.9 1562.6 293.8 1562.6 276.6 M1587.8 276.6 Q1587.8 304.2 1568.25 323.75 1548.75 343.25 1521.1 343.25 1493.5 343.25 1474.0 323.75 1454.45 304.2 1454.45 276.6 1454.45 248.95 1474.0 229.45 1493.5 209.9 1521.1 209.9 1548.75 209.9 1568.25 229.45 1587.8 248.95 1587.8 276.6 M1125.8 229.45 Q1145.3 209.9 1172.95 209.9 1200.55 209.9 1220.1 229.45 1239.6 248.95 1239.6 276.6 1239.6 304.2 1220.1 323.75 1200.55 343.25 1172.95 343.25 1145.3 343.25 1125.8 323.75 1106.25 304.2 1106.25 276.6 1106.25 248.95 1125.8 229.45 M1172.95 235.1 Q1155.75 235.1 1143.6 247.25 1131.45 259.4 1131.45 276.6 1131.45 293.8 1143.6 305.9 1155.75 318.05 1172.95 318.05 1190.15 318.05 1202.25 305.9 1214.4 293.8 1214.4 276.6 1214.4 259.4 1202.25 247.25 1190.15 235.1 1172.95 235.1" fill="#000000" fill-opacity="0.14901961" fill-rule="evenodd" stroke="none"/>
    <path d="M703.55 43.7 Q678.3 33.0 650.9 31.8 L650.9 155.9 Q657.65 157.45 663.1 162.15 L750.45 74.8 Q729.9 54.85 703.55 43.7 M673.25 180.4 L797.0 180.4 Q796.2 151.6 785.0 125.15 774.6 100.5 756.5 80.95 L668.8 168.6 Q672.35 173.95 673.25 180.4 M667.2 184.7 Q667.2 175.1 660.4 168.3 653.6 161.5 643.95 161.5 634.4 161.5 627.6 168.3 620.8 175.1 620.8 184.7 620.8 194.35 627.6 201.15 634.4 207.95 643.95 207.95 653.6 207.95 660.4 201.15 667.2 194.35 667.2 184.7 M673.25 189.0 Q672.35 195.45 668.8 200.8 L756.5 288.5 Q774.6 268.9 785.0 244.3 796.2 217.8 797.0 189.0 L673.25 189.0 M767.9 60.8 Q792.15 85.05 805.45 116.5 819.2 149.05 819.2 184.7 819.2 220.35 805.45 252.9 792.15 284.35 767.9 308.65 743.6 332.9 712.15 346.2 679.6 359.95 643.95 359.95 608.3 359.95 575.8 346.2 544.35 332.9 520.1 308.65 495.85 284.35 482.55 252.9 468.8 220.35 468.8 184.7 468.8 149.05 482.55 116.5 495.85 85.05 520.1 60.8 544.35 36.55 575.8 23.25 608.35 9.5 643.95 9.5 679.6 9.5 712.15 23.25 743.6 36.55 767.9 60.8 M650.9 213.5 L650.9 337.6 Q678.3 336.4 703.55 325.75 729.9 314.6 750.45 294.65 L663.1 207.25 Q657.65 211.95 650.9 213.5 M642.3 31.65 Q612.1 31.95 584.4 43.7 559.8 54.1 540.25 72.25 L627.9 159.9 Q634.3 155.6 642.3 155.2 L642.3 31.65 M491.0 180.4 L614.75 180.4 Q615.85 172.1 621.45 165.6 L534.1 78.25 Q514.15 98.8 503.0 125.15 491.8 151.65 491.0 180.4 M491.0 189.0 Q491.8 217.8 503.0 244.3 514.1 270.6 534.1 291.2 L621.45 203.85 Q615.85 197.35 614.75 189.0 L491.0 189.0 M337.7 180.4 Q336.9 151.6 325.7 125.15 315.3 100.5 297.2 80.95 L209.55 168.6 Q213.1 173.95 214.0 180.4 L337.7 180.4 M346.15 116.5 Q359.9 149.05 359.9 184.7 359.9 220.35 346.15 252.9 332.85 284.35 308.6 308.65 284.35 332.9 252.9 346.2 220.35 359.95 184.7 359.95 149.05 359.95 116.5 346.2 85.05 332.9 60.8 308.65 36.55 284.35 23.25 252.9 9.5 220.35 9.5 184.7 9.5 149.05 23.25 116.5 36.55 85.05 60.8 60.8 85.05 36.55 116.5 23.25 149.05 9.5 184.7 9.5 220.35 9.5 252.9 23.25 284.35 36.55 308.6 60.8 332.85 85.05 346.15 116.5 M627.9 209.55 L540.25 297.25 Q559.8 315.3 584.4 325.75 612.1 337.45 642.3 337.75 L642.3 214.2 Q634.3 213.8 627.9 209.55 M168.6 159.85 Q175.0 155.6 183.05 155.2 L183.05 31.65 Q152.8 31.95 125.1 43.7 100.5 54.1 80.9 72.2 L168.6 159.85 M291.2 74.8 Q270.65 54.85 244.25 43.7 219.05 33.0 191.65 31.8 L191.65 155.9 Q198.4 157.45 203.85 162.15 L291.2 74.8 M325.7 244.3 Q336.9 217.8 337.7 189.0 L214.0 189.0 Q213.1 195.45 209.55 200.85 L297.25 288.5 Q315.3 268.9 325.7 244.3 M201.1 168.3 Q194.3 161.5 184.7 161.5 175.05 161.5 168.25 168.3 161.45 175.1 161.45 184.7 161.45 194.35 168.25 201.15 175.05 207.95 184.7 207.95 194.3 207.95 201.1 201.15 207.9 194.35 207.9 184.7 207.9 175.1 201.1 168.3 M155.45 189.0 L31.7 189.0 Q32.5 217.8 43.65 244.3 54.8 270.65 74.75 291.2 L162.15 203.85 Q156.55 197.35 155.45 189.0 M43.65 125.15 Q32.5 151.6 31.7 180.4 L155.45 180.4 Q156.55 172.05 162.15 165.6 L74.8 78.25 Q54.85 98.75 43.65 125.15 M125.1 325.75 Q152.8 337.45 183.05 337.75 L183.05 214.2 Q175.0 213.8 168.6 209.55 L80.95 297.25 Q100.5 315.3 125.1 325.75 M203.85 207.3 Q198.4 211.95 191.65 213.5 L191.65 337.6 Q219.05 336.4 244.25 325.75 270.65 314.55 291.2 294.65 L203.85 207.3" fill="#000000" fill-opacity="0.4" fill-rule="evenodd" stroke="none"/>
    <path d="M1444.65 244.3 Q1450.95 229.4 1462.45 217.9 1473.95 206.4 1488.8 200.1 1504.25 193.6 1521.1 193.6 1538.0 193.6 1553.4 200.1 1568.3 206.4 1579.8 217.9 1591.3 229.4 1597.6 244.3 1604.1 259.7 1604.1 276.6 1604.1 293.5 1597.6 308.9 1591.3 323.75 1579.8 335.25 1568.3 346.75 1553.4 353.05 1538.0 359.55 1521.1 359.55 1504.25 359.55 1488.8 353.05 1473.95 346.75 1462.45 335.25 1450.95 323.75 1444.65 308.9 1438.15 293.45 1438.15 276.6 1438.15 259.7 1444.65 244.3 M1547.8 276.6 Q1547.8 287.65 1540.0 295.45 1532.15 303.25 1521.1 303.25 1510.1 303.25 1502.25 295.45 1494.45 287.65 1494.45 276.6 1494.45 265.55 1502.25 257.7 1510.05 249.9 1521.1 249.9 1532.15 249.9 1540.0 257.7 1547.8 265.55 1547.8 276.6 M1114.25 217.9 Q1125.75 206.4 1140.65 200.1 1156.05 193.6 1172.95 193.6 1189.8 193.6 1205.25 200.1 1220.1 206.4 1231.6 217.9 1243.1 229.4 1249.4 244.3 1255.9 259.7 1255.9 276.6 1255.9 293.5 1249.4 308.9 1243.1 323.75 1231.6 335.25 1220.1 346.75 1205.25 353.05 1189.85 359.55 1172.95 359.55 1156.05 359.55 1140.65 353.05 1125.75 346.75 1114.25 335.25 1102.75 323.75 1096.45 308.9 1089.95 293.45 1089.95 276.6 1089.95 259.7 1096.45 244.3 1102.75 229.4 1114.25 217.9 M1172.95 249.9 Q1184.0 249.9 1191.8 257.7 1199.6 265.55 1199.6 276.6 1199.6 287.65 1191.8 295.45 1184.0 303.25 1172.95 303.25 1161.9 303.25 1154.05 295.45 1146.25 287.65 1146.25 276.6 1146.25 265.55 1154.05 257.7 1161.9 249.9 1172.95 249.9 M814.2 112.8 Q800.15 79.65 774.6 54.1 749.05 28.55 715.85 14.5 681.55 0.0 643.95 0.0 606.4 0.0 572.1 14.5 538.95 28.55 513.4 54.1 487.85 79.65 473.8 112.8 459.3 147.15 459.3 184.7 459.3 222.3 473.8 256.6 487.85 289.75 513.4 315.35 538.95 340.9 572.1 354.95 606.4 369.45 643.95 369.45 681.55 369.45 715.85 354.95 749.05 340.9 774.6 315.35 800.15 289.8 814.2 256.6 828.7 222.3 828.7 184.7 828.7 147.1 814.2 112.8 M667.2 184.7 Q667.2 194.35 660.4 201.15 653.6 207.95 643.95 207.95 634.4 207.95 627.6 201.15 620.8 194.35 620.8 184.7 620.8 175.1 627.6 168.3 634.4 161.5 643.95 161.5 653.6 161.5 660.4 168.3 667.2 175.1 667.2 184.7 M354.9 112.8 Q340.85 79.65 315.3 54.1 289.75 28.55 256.6 14.5 222.25 0.0 184.7 0.0 147.1 0.0 112.8 14.5 79.65 28.55 54.1 54.1 28.55 79.65 14.5 112.8 0.0 147.1 0.0 184.7 0.0 222.3 14.5 256.6 28.55 289.8 54.1 315.35 79.65 340.9 112.8 354.95 147.1 369.45 184.7 369.45 222.3 369.45 256.6 354.95 289.75 340.9 315.3 315.35 340.85 289.8 354.9 256.6 369.4 222.3 369.4 184.7 369.4 147.1 354.9 112.8 M201.1 168.3 Q207.9 175.1 207.9 184.7 207.9 194.35 201.1 201.15 194.3 207.95 184.7 207.95 175.05 207.95 168.25 201.15 161.45 194.35 161.45 184.7 161.45 175.1 168.25 168.3 175.05 161.5 184.7 161.5 194.3 161.5 201.1 168.3" fill="none" stroke="#000000" stroke-linecap="butt" stroke-linejoin="miter-clip" stroke-miterlimit="4.0" stroke-width="1.0"/>
    <path d="M1562.6 276.6 Q1562.6 293.8 1550.45 305.9 1538.3 318.05 1521.1 318.05 1503.95 318.05 1491.8 305.9 1479.65 293.8 1479.65 276.6 1479.65 259.4 1491.8 247.25 1503.9 235.1 1521.1 235.1 1538.3 235.1 1550.45 247.25 1562.6 259.4 1562.6 276.6 M1587.8 276.6 Q1587.8 304.2 1568.25 323.75 1548.75 343.25 1521.1 343.25 1493.5 343.25 1474.0 323.75 1454.45 304.2 1454.45 276.6 1454.45 248.95 1474.0 229.45 1493.5 209.9 1521.1 209.9 1548.75 209.9 1568.25 229.45 1587.8 248.95 1587.8 276.6 M1125.8 229.45 Q1145.3 209.9 1172.95 209.9 1200.55 209.9 1220.1 229.45 1239.6 248.95 1239.6 276.6 1239.6 304.2 1220.1 323.75 1200.55 343.25 1172.95 343.25 1145.3 343.25 1125.8 323.75 1106.25 304.2 1106.25 276.6 1106.25 248.95 1125.8 229.45 M1172.95 235.1 Q1190.15 235.1 1202.25 247.25 1214.4 259.4 1214.4 276.6 1214.4 293.8 1202.25 305.9 1190.15 318.05 1172.95 318.05 1155.75 318.05 1143.6 305.9 1131.45 293.8 1131.45 276.6 1131.45 259.4 1143.6 247.25 1155.75 235.1 1172.95 235.1 M703.55 43.7 Q729.9 54.85 750.45 74.8 L663.1 162.15 Q657.65 157.45 650.9 155.9 L650.9 31.8 Q678.3 33.0 703.55 43.7 M673.25 180.4 L797.0 180.4 Q796.2 151.6 785.0 125.15 774.6 100.5 756.5 80.95 L668.8 168.6 Q672.35 173.95 673.25 180.4 M767.9 60.8 Q743.6 36.55 712.15 23.25 679.6 9.5 643.95 9.5 608.35 9.5 575.8 23.25 544.35 36.55 520.1 60.8 495.85 85.05 482.55 116.5 468.8 149.05 468.8 184.7 468.8 220.35 482.55 252.9 495.85 284.35 520.1 308.65 544.35 332.9 575.8 346.2 608.3 359.95 643.95 359.95 679.6 359.95 712.15 346.2 743.6 332.9 767.9 308.65 792.15 284.35 805.45 252.9 819.2 220.35 819.2 184.7 819.2 149.05 805.45 116.5 792.15 85.05 767.9 60.8 M650.9 213.5 L650.9 337.6 Q678.3 336.4 703.55 325.75 729.9 314.6 750.45 294.65 L663.1 207.25 Q657.65 211.95 650.9 213.5 M642.3 31.65 L642.3 155.2 Q634.3 155.6 627.9 159.9 L540.25 72.25 Q559.8 54.1 584.4 43.7 612.1 31.95 642.3 31.65 M491.0 180.4 L614.75 180.4 Q615.85 172.1 621.45 165.6 L534.1 78.25 Q514.15 98.8 503.0 125.15 491.8 151.65 491.0 180.4 M491.0 189.0 Q491.8 217.8 503.0 244.3 514.1 270.6 534.1 291.2 L621.45 203.85 Q615.85 197.35 614.75 189.0 L491.0 189.0 M337.7 180.4 L214.0 180.4 Q213.1 173.95 209.55 168.6 L297.2 80.95 Q315.3 100.5 325.7 125.15 336.9 151.6 337.7 180.4 M346.15 116.5 Q332.85 85.05 308.6 60.8 284.35 36.55 252.9 23.25 220.35 9.5 184.7 9.5 149.05 9.5 116.5 23.25 85.05 36.55 60.8 60.8 36.55 85.05 23.25 116.5 9.5 149.05 9.5 184.7 9.5 220.35 23.25 252.9 36.55 284.35 60.8 308.65 85.05 332.9 116.5 346.2 149.05 359.95 184.7 359.95 220.35 359.95 252.9 346.2 284.35 332.9 308.6 308.65 332.85 284.35 346.15 252.9 359.9 220.35 359.9 184.7 359.9 149.05 346.15 116.5 M627.9 209.55 L540.25 297.25 Q559.8 315.3 584.4 325.75 612.1 337.45 642.3 337.75 L642.3 214.2 Q634.3 213.8 627.9 209.55 M325.7 244.3 Q315.3 268.9 297.25 288.5 L209.55 200.85 Q213.1 195.45 214.0 189.0 L337.7 189.0 Q336.9 217.8 325.7 244.3 M291.2 74.8 L203.85 162.15 Q198.4 157.45 191.65 155.9 L191.65 31.8 Q219.05 33.0 244.25 43.7 270.65 54.85 291.2 74.8 M168.6 159.85 L80.9 72.2 Q100.5 54.1 125.1 43.7 152.8 31.95 183.05 31.65 L183.05 155.2 Q175.0 155.6 168.6 159.85 M43.65 125.15 Q54.85 98.75 74.8 78.25 L162.15 165.6 Q156.55 172.05 155.45 180.4 L31.7 180.4 Q32.5 151.6 43.65 125.15 M155.45 189.0 Q156.55 197.35 162.15 203.85 L74.75 291.2 Q54.8 270.65 43.65 244.3 32.5 217.8 31.7 189.0 L155.45 189.0 M125.1 325.75 Q152.8 337.45 183.05 337.75 L183.05 214.2 Q175.0 213.8 168.6 209.55 L80.95 297.25 Q100.5 315.3 125.1 325.75 M203.85 207.3 L291.2 294.65 Q270.65 314.55 244.25 325.75 219.05 336.4 191.65 337.6 L191.65 213.5 Q198.4 211.95 203.85 207.3" fill="none" stroke="#000000" stroke-linecap="butt" stroke-linejoin="miter-clip" stroke-miterlimit="4.0" stroke-opacity="0.6" stroke-width="1.0"/>
  </g>
</svg>
