<?xml version="1.0" encoding="UTF-8" standalone="no"?>
<svg xmlns:xlink="http://www.w3.org/1999/xlink" height="412.25px" width="752.35px" xmlns="http://www.w3.org/2000/svg">
  <g transform="matrix(1.0, 0.0, 0.0, 1.0, 30.9, 0.75)">
    <path d="M-30.0 402.8 L-30.1 407.9 -30.2 407.9 -30.0 402.8" fill="#000000" fill-opacity="0.6" fill-rule="evenodd" stroke="none"/>
    <path d="M-29.25 265.65 L-30.4 297.3 -30.0 266.5 -29.25 265.65" fill="#000000" fill-opacity="0.49803922" fill-rule="evenodd" stroke="none"/>
    <path d="M-30.1 407.9 L1.05 402.55 34.4 397.15 Q106.3 386.3 127.85 386.0 134.3 338.35 162.05 294.0 206.6 222.6 294.9 183.65 312.5 175.85 382.4 190.65 426.35 199.95 524.15 226.5 624.1 253.55 657.8 260.9 717.75 273.95 720.9 263.75 L720.95 410.95 563.95 384.95 363.15 381.1 272.95 376.2 248.3 378.05 Q220.85 380.5 207.15 383.55 190.05 387.35 172.7 389.0 L129.15 390.85 Q107.85 390.85 37.0 400.45 1.55 405.2 -29.6 410.0 L-30.1 407.9" fill="#ffffff" fill-opacity="0.0" fill-rule="evenodd" stroke="none"/>
    <path d="M720.9 263.75 Q717.75 273.95 657.8 260.9 624.1 253.55 524.15 226.5 426.35 199.95 382.4 190.65 312.5 175.85 294.9 183.65 206.6 222.6 162.05 294.0 134.3 338.35 127.85 386.0 106.3 386.3 34.4 397.15 L1.05 402.55 -30.1 407.9 -30.0 402.8 -30.4 297.3 -29.25 265.65 Q32.3 200.65 92.95 135.0 214.2 3.75 209.6 0.7 205.05 -2.35 371.75 14.95 L539.4 32.85 Q721.25 262.5 720.9 263.75" fill="#000000" fill-opacity="0.2" fill-rule="evenodd" stroke="none"/>
    <path d="M720.9 263.75 Q721.25 262.5 539.4 32.85 L371.75 14.95 Q205.05 -2.35 209.6 0.7 214.2 3.75 92.95 135.0 32.3 200.65 -29.25 265.65 L-30.0 266.5 -30.4 297.3 -30.0 402.8 M-30.1 407.9 L-29.6 410.0 Q1.55 405.2 37.0 400.45 107.85 390.85 129.15 390.85 L172.7 389.0 Q190.05 387.35 207.15 383.55 220.85 380.5 248.3 378.05 L272.95 376.2 363.15 381.1 563.95 384.95 720.95 410.95 720.9 263.75" fill="none" stroke="#000000" stroke-linecap="butt" stroke-linejoin="miter-clip" stroke-miterlimit="4.0" stroke-opacity="0.4" stroke-width="1.0"/>
    <path d="M-30.0 402.8 L-30.1 407.9" fill="none" stroke="#000000" stroke-linecap="round" stroke-linejoin="miter-clip" stroke-miterlimit="10.0" stroke-opacity="0.4" stroke-width="1.0"/>
  </g>
</svg>
