<?xml version="1.0" encoding="UTF-8" standalone="no"?>
<svg xmlns:xlink="http://www.w3.org/1999/xlink" height="344.3px" width="2446.25px" xmlns="http://www.w3.org/2000/svg">
  <g transform="matrix(1.0, 0.0, 0.0, 1.0, 0.0, 0.0)">
    <path d="M2446.25 178.55 L2446.25 344.3 0.0 344.3 3.9 184.4 57.55 184.4 77.4 183.25 77.4 173.9 91.4 173.9 92.55 154.05 105.4 138.9 121.75 138.9 121.75 158.7 135.75 159.9 136.9 141.2 141.6 115.55 147.4 61.85 153.25 113.2 159.1 114.35 Q162.6 140.05 162.6 143.55 162.6 145.75 166.7 154.2 L170.75 162.2 184.75 161.05 187.1 166.9 227.95 166.9 230.25 155.2 248.95 155.2 248.95 163.4 352.8 163.4 352.8 151.7 380.8 151.7 380.8 133.05 388.95 130.7 388.95 88.7 397.15 78.2 404.15 30.35 408.8 77.05 419.3 88.7 420.5 133.05 426.3 134.2 424.0 162.2 429.8 180.9 429.8 162.2 483.5 162.2 483.5 151.7 608.35 151.7 608.35 158.7 637.55 158.7 637.55 143.55 719.2 143.55 719.2 150.55 733.2 150.55 733.2 172.7 753.05 172.7 753.05 183.25 810.25 183.25 810.25 170.4 872.1 170.4 901.25 162.2 901.25 140.05 915.25 140.05 915.25 87.55 940.95 87.55 948.5 79.95 1078.6 79.95 1078.6 89.85 1111.25 89.85 1111.25 186.7 1138.1 186.7 1138.1 175.05 1163.75 184.4 1168.45 136.55 1173.1 126.05 1176.6 103.85 1181.3 124.9 1187.1 136.55 1194.1 186.7 1206.95 182.05 1215.1 184.4 1239.65 179.7 1261.8 169.2 1280.45 168.05 1287.45 173.9 1304.95 170.4 1331.8 162.2 1347.0 162.2 1347.0 131.9 1399.5 138.9 1398.35 127.2 1422.85 127.2 1421.65 119.05 1428.65 117.85 1428.65 105.05 1456.7 105.05 1456.7 122.55 1519.7 122.55 1522.05 142.4 1596.7 142.4 1606.05 131.9 1620.05 129.55 1632.9 122.55 1709.9 122.55 1741.4 150.55 1741.4 115.55 1748.4 114.35 1747.25 92.2 1754.25 64.2 1763.6 0.0 1771.75 64.2 1778.75 94.55 1778.75 154.05 1796.25 154.05 1796.25 133.05 1809.1 127.2 1839.45 123.7 1839.45 156.4 1849.35 146.45 1863.95 146.45 1866.3 117.85 1938.65 117.85 1942.15 107.35 2022.65 107.35 2022.65 119.05 2069.35 119.05 2069.35 151.7 2106.65 151.7 2121.85 168.05 2133.5 170.4 2133.5 135.4 2191.85 135.4 2197.7 144.7 2210.55 144.7 2210.55 127.2 2307.4 127.2 2312.05 142.4 2320.2 134.2 2363.4 134.2 2379.75 154.05 2384.4 172.7 2386.0 171.9 Q2388.2 171.0 2391.1 170.55 2400.45 169.1 2413.6 172.7 2426.75 176.35 2437.8 177.8 L2446.25 178.55" fill="#ffffff" fill-opacity="0.0" fill-rule="evenodd" stroke="none"/>
  </g>
</svg>
