<?xml version="1.0" encoding="UTF-8" standalone="no"?>
<svg xmlns:xlink="http://www.w3.org/1999/xlink" height="2151.45px" width="1259.1px" xmlns="http://www.w3.org/2000/svg">
  <g transform="matrix(1.0, 0.0, 0.0, 1.0, 606.55, 992.2)">
    <path d="M-392.95 -991.7 Q-390.7 -918.35 -382.15 -798.95 -365.1 -560.2 -333.7 -330.0 -289.75 -7.75 -223.45 251.25 -140.6 575.0 -27.3 780.9 M459.1 -549.55 L456.15 -506.1 Q452.1 -450.2 446.65 -387.45 429.3 -186.8 404.85 5.65 370.55 275.1 326.8 489.95 296.2 640.5 261.9 759.2 L273.9 744.55 Q387.7 604.6 485.75 432.7 555.75 309.95 610.9 183.45 628.15 143.9 641.8 108.75 L652.05 81.5 M402.8 -983.7 Q393.75 -904.55 375.8 -777.0 339.85 -521.85 295.3 -279.75 232.85 59.15 162.0 323.75 73.45 654.4 -23.25 849.25 M-473.4 -561.6 L-471.05 -504.85 Q-467.55 -431.85 -461.95 -351.6 -444.15 -94.35 -412.1 141.8 -383.9 349.8 -346.95 522.45 -305.95 578.5 -263.55 629.25 -143.6 772.75 -19.25 865.35 M-606.05 81.5 L-595.65 104.15 Q-581.95 133.35 -565.25 166.1 -511.7 271.0 -448.3 372.4 -398.75 451.65 -346.95 522.45 -325.2 624.15 -300.45 713.6 -216.95 1015.05 -103.65 1158.75 M205.85 925.6 Q235.0 852.15 261.9 759.2 124.9 924.3 -27.3 1034.15" fill="none" stroke="#000000" stroke-linecap="round" stroke-linejoin="miter-clip" stroke-miterlimit="4.0" stroke-width="1.0"/>
  </g>
</svg>
