<?xml version="1.0" encoding="UTF-8" standalone="no"?>
<svg xmlns:xlink="http://www.w3.org/1999/xlink" height="713.8px" width="452.85px" xmlns="http://www.w3.org/2000/svg">
  <g transform="matrix(1.0, 0.0, 0.0, 1.0, 0.5, 0.5)">
    <path d="M451.85 223.65 Q450.4 212.35 445.05 195.55 434.3 161.75 414.8 134.5 352.6 46.85 226.0 54.8 99.35 46.85 37.0 134.5 17.5 161.9 6.75 195.55 1.4 212.35 0.0 223.65 L0.0 169.55 Q1.4 158.25 6.75 141.4 17.5 107.8 37.0 80.35 99.35 -7.25 226.0 0.65 352.6 -7.25 414.8 80.35 434.3 107.65 445.05 141.4 450.4 158.25 451.85 169.55 L451.85 223.65" fill="#000000" fill-opacity="0.44705883" fill-rule="evenodd" stroke="none"/>
    <path d="M0.0 223.65 Q1.4 212.35 6.75 195.55 17.5 161.9 37.0 134.5 99.35 46.85 226.0 54.8 352.6 46.85 414.8 134.5 434.3 161.75 445.05 195.55 450.4 212.35 451.85 223.65 L451.85 712.8 0.0 712.8 0.0 223.65" fill="#000000" fill-opacity="0.34901962" fill-rule="evenodd" stroke="none"/>
    <path d="M451.85 223.65 L451.85 169.55 Q450.4 158.25 445.05 141.4 434.3 107.65 414.8 80.35 352.6 -7.25 226.0 0.65 99.35 -7.25 37.0 80.35 17.5 107.8 6.75 141.4 1.4 158.25 0.0 169.55 L0.0 223.65 0.0 712.8 451.85 712.8 451.85 223.65 Z" fill="none" stroke="#000000" stroke-linecap="round" stroke-linejoin="miter-clip" stroke-miterlimit="4.0" stroke-opacity="0.6" stroke-width="1.0"/>
  </g>
</svg>
