<?xml version="1.0" encoding="UTF-8" standalone="no"?>
<svg xmlns:xlink="http://www.w3.org/1999/xlink" height="31.25px" width="84.55px" xmlns="http://www.w3.org/2000/svg">
  <g transform="matrix(1.0, 0.0, 0.0, 1.0, 42.25, 15.65)">
    <path d="M-6.8 -8.4 L-7.25 -1.7 -6.25 -0.35 Q-4.35 1.0 0.5 1.0 5.25 1.0 7.15 -0.35 L8.1 -1.7 7.65 -8.4 8.1 -1.7 7.15 -0.35 Q5.25 1.0 0.5 1.0 -4.35 1.0 -6.25 -0.35 L-7.25 -1.7 -6.8 -8.4 M-39.35 2.65 Q-39.15 -1.85 -34.1 -6.35 -24.05 -15.35 0.05 -15.15 24.2 -15.35 34.2 -6.35 39.2 -1.85 39.4 2.65 L0.05 4.95 -39.35 2.65 0.05 4.95 39.4 2.65 40.65 3.9 Q41.8 6.05 41.8 10.25 40.9 11.35 35.8 12.45 25.35 14.65 3.9 15.05 L3.9 15.1 -3.75 15.1 -3.75 15.05 Q-25.2 14.65 -35.65 12.45 L-41.75 10.25 Q-41.75 6.05 -40.5 3.9 L-39.35 2.65" fill="#ffffff" fill-opacity="0.0" fill-rule="evenodd" stroke="none"/>
    <path d="M7.65 -8.4 L8.1 -1.7 7.15 -0.35 Q5.25 1.0 0.5 1.0 -4.35 1.0 -6.25 -0.35 L-7.25 -1.7 -6.8 -8.4" fill="none" stroke="#000000" stroke-linecap="butt" stroke-linejoin="miter-clip" stroke-miterlimit="10.0" stroke-opacity="0.6" stroke-width="1.0"/>
    <path d="M39.4 2.65 Q39.2 -1.85 34.2 -6.35 24.2 -15.35 0.05 -15.15 -24.05 -15.35 -34.1 -6.35 -39.15 -1.85 -39.35 2.65 L0.05 4.95 39.4 2.65 40.65 3.9 Q41.8 6.05 41.8 10.25 40.9 11.35 35.8 12.45 25.35 14.65 3.9 15.05 L3.9 15.1 -3.75 15.1 -3.75 15.05 Q-25.2 14.65 -35.65 12.45 L-41.75 10.25 Q-41.75 6.05 -40.5 3.9 L-39.35 2.65" fill="none" stroke="#000000" stroke-linecap="round" stroke-linejoin="miter-clip" stroke-miterlimit="10.0" stroke-width="1.0"/>
    <path d="M-34.0 -0.25 Q-33.05 -3.5 -28.25 -6.7 -18.95 -13.2 -0.5 -13.2 -5.25 -12.8 -11.1 -11.0 -22.7 -7.25 -28.0 0.55 L-34.0 -0.25 M-38.9 4.6 L-26.65 5.7 -4.2 7.05 -16.85 8.4 Q-31.05 8.9 -38.9 4.6" fill="#ffffff" fill-rule="evenodd" stroke="none"/>
  </g>
</svg>
