<?xml version="1.0" encoding="UTF-8" standalone="no"?>
<svg xmlns:xlink="http://www.w3.org/1999/xlink" height="55.6px" width="430.4px" xmlns="http://www.w3.org/2000/svg">
  <g transform="matrix(1.0, 0.0, 0.0, 1.0, 0.5, 0.5)">
    <path d="M369.25 2.15 L429.3 2.15 429.3 0.3 369.25 0.3 369.25 0.0 429.4 0.0 429.4 19.35 369.4 19.35 369.3 21.25 369.25 21.15 369.25 2.15 M369.25 35.45 L429.3 35.45 429.3 33.65 369.25 33.65 369.25 33.35 429.4 33.35 429.4 52.7 369.4 52.7 369.3 54.6 369.25 54.5 369.25 35.45 M0.0 35.45 L60.1 35.45 60.1 33.65 0.0 33.65 0.0 33.35 60.2 33.35 60.2 52.7 0.15 52.7 0.05 54.6 0.0 54.5 0.0 35.45 M0.0 0.3 L0.0 0.0 60.2 0.0 60.2 19.35 0.15 19.35 0.05 21.25 0.0 21.15 0.0 2.15 60.1 2.15 60.1 0.3 0.0 0.3" fill="#ffffff" fill-opacity="0.0" fill-rule="evenodd" stroke="none"/>
    <path d="M369.25 0.3 L429.3 0.3 429.3 2.15 369.25 2.15 369.25 0.3 M369.25 33.65 L429.3 33.65 429.3 35.45 369.25 35.45 369.25 33.65 M0.0 33.65 L60.1 33.65 60.1 35.45 0.0 35.45 0.0 33.65 M0.0 0.3 L60.1 0.3 60.1 2.15 0.0 2.15 0.0 0.3" fill="#ffffff" fill-opacity="0.2" fill-rule="evenodd" stroke="none"/>
    <path d="M369.3 21.25 L369.4 19.35 429.4 19.35 429.4 21.2 369.4 21.2 369.3 21.25 M369.3 54.6 L369.4 52.7 429.4 52.7 429.4 54.55 369.4 54.55 369.3 54.6 M0.05 54.6 L0.15 52.7 60.2 52.7 60.25 52.7 60.25 54.55 0.15 54.55 0.05 54.6 M0.05 21.25 L0.15 19.35 60.2 19.35 60.25 19.35 60.25 21.2 0.15 21.2 0.05 21.25" fill="#000000" fill-opacity="0.2" fill-rule="evenodd" stroke="none"/>
    <path d="M353.8 11.4 L74.0 11.4 74.0 2.45 353.8 2.45 353.8 11.4" fill="#000000" fill-opacity="0.047058824" fill-rule="evenodd" stroke="none"/>
    <path d="M369.25 2.15 L369.25 21.15 369.3 21.25 369.4 21.2 429.4 21.2 429.4 19.35 429.4 0.0 369.25 0.0 369.25 0.3 369.25 2.15 M369.25 35.45 L369.25 54.5 369.3 54.6 369.4 54.55 429.4 54.55 429.4 52.7 429.4 33.35 369.25 33.35 369.25 33.65 369.25 35.45 M0.0 35.45 L0.0 54.5 0.05 54.6 0.15 54.55 60.25 54.55 60.25 52.7 60.2 52.7 60.2 33.35 0.0 33.35 0.0 33.65 0.0 35.45 M60.2 19.35 L60.2 0.0 0.0 0.0 0.0 0.3 0.0 2.15 0.0 21.15 0.05 21.25 0.15 21.2 60.25 21.2 60.25 19.35 60.2 19.35" fill="none" stroke="#000000" stroke-linecap="round" stroke-linejoin="miter-clip" stroke-miterlimit="4.0" stroke-opacity="0.6" stroke-width="1.0"/>
    <path d="M353.8 11.4 L74.0 11.4 74.0 2.45 353.8 2.45 353.8 11.4" fill="none" stroke="#000000" stroke-linecap="round" stroke-linejoin="round" stroke-opacity="0.6" stroke-width="1.0"/>
  </g>
</svg>
