<?xml version="1.0" encoding="UTF-8" standalone="no"?>
<svg xmlns:xlink="http://www.w3.org/1999/xlink" height="16.35px" width="73.0px" xmlns="http://www.w3.org/2000/svg">
  <g transform="matrix(1.0, 0.0, 0.0, 1.0, 36.5, 8.2)">
    <path d="M33.8 -5.75 Q33.2 -5.0 23.95 -4.5 14.05 -3.95 0.05 -3.95 -14.0 -3.95 -23.85 -4.5 -33.75 -5.05 -33.75 -5.85 -33.75 -6.6 -23.85 -7.15 -14.0 -7.7 0.05 -7.7 14.05 -7.7 23.95 -7.15 33.85 -6.6 33.85 -5.85 L33.8 -5.75" fill="#ffffff" fill-opacity="0.0" fill-rule="evenodd" stroke="none"/>
    <path d="M33.8 -5.75 L34.75 -4.8 Q35.8 -3.35 36.0 -1.75 L36.0 7.65 -36.0 7.65 -36.0 -1.75 Q-35.85 -3.35 -34.8 -4.8 L-33.75 -5.85 Q-33.75 -5.05 -23.85 -4.5 -14.0 -3.95 0.05 -3.95 14.05 -3.95 23.95 -4.5 33.2 -5.0 33.8 -5.75" fill="#000000" fill-opacity="0.09803922" fill-rule="evenodd" stroke="none"/>
    <path d="M-33.75 -5.85 L-34.8 -4.8 Q-35.85 -3.35 -36.0 -1.75 L-36.0 7.65 36.0 7.65 36.0 -1.75 Q35.8 -3.35 34.75 -4.8 L33.8 -5.75 Q33.2 -5.0 23.95 -4.5 14.05 -3.95 0.05 -3.95 -14.0 -3.95 -23.85 -4.5 -33.75 -5.05 -33.75 -5.85 -33.75 -6.6 -23.85 -7.15 -14.0 -7.7 0.05 -7.7 14.05 -7.7 23.95 -7.15 33.85 -6.6 33.85 -5.85 L33.8 -5.75" fill="none" stroke="#000000" stroke-linecap="round" stroke-linejoin="miter-clip" stroke-miterlimit="10.0" stroke-width="1.0"/>
  </g>
</svg>
