<?xml version="1.0" encoding="UTF-8" standalone="no"?>
<svg xmlns:xlink="http://www.w3.org/1999/xlink" height="390.95px" width="176.1px" xmlns="http://www.w3.org/2000/svg">
  <g transform="matrix(1.0, 0.0, 0.0, 1.0, 175.6, 195.5)">
    <path d="M0.0 -195.0 L0.0 -183.4 -101.2 -183.4 -124.3 -183.4 -101.2 -183.4 0.0 -183.4 0.0 -75.75 0.0 -40.95 Q-38.85 -40.9 -66.45 -13.35 -80.9 1.1 -87.75 18.7 L-102.2 18.7 Q-103.6 4.65 -101.5 -14.95 L-99.2 -31.95 -101.5 -14.95 Q-103.6 4.65 -102.2 18.7 L-87.75 18.7 Q-94.05 34.7 -94.05 53.3 -94.05 62.8 -92.4 71.65 L-106.35 71.65 Q-108.95 18.1 -105.3 -8.45 -103.8 -19.25 -101.0 -27.4 L-99.2 -31.95 -101.0 -27.4 Q-103.8 -19.25 -105.3 -8.45 -108.95 18.1 -106.35 71.65 L-107.05 71.65 -107.05 93.45 Q-111.9 95.7 -116.7 93.85 L-121.35 90.8 -121.75 84.25 -126.0 18.7 Q-126.85 9.8 -126.7 1.15 L-126.7 1.1 -126.7 1.15 -127.6 0.85 Q-131.2 8.75 -133.2 34.95 -135.15 58.9 -136.55 109.8 -138.25 117.8 -143.85 122.15 L-144.2 122.4 -151.3 125.5 Q-153.6 126.35 -157.0 126.8 -162.95 127.5 -167.9 125.9 L-168.95 125.5 Q-174.15 123.55 -175.1 106.95 L-175.1 90.8 Q-175.1 51.45 -171.95 25.35 L-168.95 7.1 Q-158.35 -2.75 -139.9 -1.25 -132.65 -0.7 -126.7 1.1 -126.65 -4.85 -126.1 -10.65 L-124.5 -21.9 Q-121.1 -36.9 -119.35 -57.45 L-118.3 -74.95 -124.3 -183.4 -130.5 -183.4 -132.85 -187.6 Q-132.35 -191.2 -128.75 -193.5 -126.9 -194.55 -125.15 -195.0 L0.0 -195.0 M0.0 -26.0 L0.0 27.55 0.0 76.95 0.0 132.6 -4.0 132.5 -4.0 101.5 -4.0 76.55 -4.45 76.5 Q-8.65 75.65 -12.25 73.35 -8.65 75.65 -4.45 76.5 L-14.35 101.5 -25.15 128.7 Q-29.1 127.35 -32.9 125.65 L-23.35 101.5 -12.25 73.35 -13.3 72.65 -42.15 101.5 -52.9 112.2 -55.85 109.4 -58.85 106.25 -54.05 101.5 -24.15 71.65 -19.3 66.8 -16.7 69.75 -14.6 71.65 -13.3 72.65 -14.6 71.65 -16.7 69.75 -19.3 66.8 -24.15 71.65 -34.8 71.65 -72.1 86.4 -75.15 78.6 -57.7 71.65 -77.1 71.65 Q-78.65 64.75 -79.0 57.35 L-79.1 53.3 -79.0 48.95 Q-78.45 37.85 -75.15 27.95 -73.8 23.85 -72.0 19.95 L-20.95 40.2 Q-23.05 43.9 -23.75 48.25 L-75.15 27.95 -23.75 48.25 Q-23.05 43.9 -20.95 40.2 L-72.0 19.95 -71.4 18.7 Q-66.55 8.8 -58.65 0.2 L-55.85 -2.75 -52.7 -5.7 -28.3 18.7 -14.35 32.65 -16.7 34.75 Q-18.65 36.7 -20.0 38.85 L-40.15 18.7 -58.65 0.2 -40.15 18.7 -20.0 38.85 Q-18.65 36.7 -16.7 34.75 L-14.35 32.65 -28.3 18.7 -52.7 -5.7 Q-43.55 -14.1 -32.9 -19.0 -29.05 -20.8 -25.05 -22.1 -15.1 -25.4 -4.0 -25.9 L0.0 -26.0 M-99.2 -31.95 L-96.85 -38.5 Q-93.95 -47.35 -93.95 -62.45 L-94.75 -75.75 0.0 -75.75 -94.75 -75.75 -93.95 -62.45 Q-93.95 -47.35 -96.85 -38.5 L-99.2 -31.95 M-94.75 -75.75 L-101.2 -183.4 -94.75 -75.75 M-4.0 -25.9 L-4.0 18.7 -8.85 18.7 -25.05 -22.1 -8.85 18.7 -4.0 18.7 -4.0 -25.9 M-5.1 28.2 Q-9.35 29.15 -12.85 31.6 L-13.3 31.9 -14.1 32.4 -14.35 32.65 -14.1 32.4 -13.3 31.9 -12.85 31.6 -17.95 18.7 -28.3 18.7 -17.95 18.7 -12.85 31.6 Q-9.35 29.15 -5.1 28.2 L-8.85 18.7 -5.1 28.2 -4.7 28.1 -4.55 28.1 -4.0 28.0 -4.0 18.7 -4.0 28.0 -4.55 28.1 -4.7 28.1 -5.1 28.2 M-20.0 38.85 L-20.35 39.3 -20.8 39.9 -20.95 40.2 -20.8 39.9 -20.35 39.3 -20.0 38.85 M-23.75 48.25 L-23.85 48.85 -23.85 48.95 -79.0 48.95 -23.85 48.95 -23.85 48.85 -23.75 48.25 M-40.15 18.7 L-71.4 18.7 -40.15 18.7 M-57.7 71.65 L-23.35 58.05 Q-22.4 62.2 -20.0 65.8 L-34.8 71.65 -20.0 65.8 Q-22.4 62.2 -23.35 58.05 L-57.7 71.65 M-23.85 48.95 L-24.1 52.25 Q-24.1 54.9 -23.5 57.35 L-79.0 57.35 -23.5 57.35 Q-24.1 54.9 -24.1 52.25 L-23.85 48.95 M-23.5 57.35 L-23.45 57.7 -23.35 58.05 -23.45 57.7 -23.5 57.35 M-20.0 65.8 L-19.7 66.25 -19.55 66.45 -19.3 66.8 -19.55 66.45 -19.7 66.25 -20.0 65.8 M0.0 76.95 L-4.0 76.55 0.0 76.95 M-143.85 36.95 Q-143.85 30.9 -147.8 26.6 -151.75 22.3 -157.45 22.3 -163.0 22.3 -166.95 26.6 -170.9 30.9 -170.9 36.95 -170.9 43.0 -166.95 47.25 -163.0 51.55 -157.45 51.55 -151.75 51.55 -147.8 47.25 -143.85 43.0 -143.85 36.95 M0.0 27.55 L-4.0 28.0 0.0 27.55 M-32.9 -19.0 L-17.95 18.7 -32.9 -19.0" fill="#ffffff" fill-opacity="0.0" fill-rule="evenodd" stroke="none"/>
    <path d="M-143.85 36.95 Q-143.85 43.0 -147.8 47.25 -151.75 51.55 -157.45 51.55 -163.0 51.55 -166.95 47.25 -170.9 43.0 -170.9 36.95 -170.9 30.9 -166.95 26.6 -163.0 22.3 -157.45 22.3 -151.75 22.3 -147.8 26.6 -143.85 30.9 -143.85 36.95" fill="#ffffff" fill-opacity="0.4" fill-rule="evenodd" stroke="none"/>
    <path d="M0.0 -40.95 L0.0 -26.0 -4.0 -25.9 Q-15.1 -25.4 -25.05 -22.1 -29.05 -20.8 -32.9 -19.0 -43.55 -14.1 -52.7 -5.7 L-55.85 -2.75 -58.65 0.2 Q-66.55 8.8 -71.4 18.7 L-72.0 19.95 Q-73.8 23.85 -75.15 27.95 -78.45 37.85 -79.0 48.95 L-79.1 53.3 -79.0 57.35 Q-78.65 64.75 -77.1 71.65 L-57.7 71.65 -75.15 78.6 -77.1 71.65 -75.15 78.6 -72.1 86.4 -34.8 71.65 -24.15 71.65 -54.05 101.5 -62.85 101.5 -58.85 106.25 -55.85 109.4 -52.9 112.2 Q-43.65 120.65 -32.9 125.65 -29.1 127.35 -25.15 128.7 -15.15 132.0 -4.0 132.5 L0.0 132.6 0.0 147.45 Q-38.85 147.4 -66.45 119.85 -75.05 111.2 -80.95 101.5 L-107.05 101.5 -107.05 93.45 -107.05 71.65 -106.35 71.65 -92.4 71.65 Q-94.05 62.8 -94.05 53.3 -94.05 34.7 -87.75 18.7 -80.9 1.1 -66.45 -13.35 -38.85 -40.9 0.0 -40.95 M-121.75 84.25 L-135.95 98.25 -135.95 105.65 Q-136.1 107.5 -136.4 109.2 L-136.55 110.1 -136.55 109.8 Q-135.15 58.9 -133.2 34.95 -131.2 8.75 -127.6 0.85 L-126.7 1.15 Q-126.85 9.8 -126.0 18.7 L-121.75 84.25 M-143.85 122.15 L-143.85 182.85 Q-143.85 187.85 -147.45 191.35 -150.95 194.95 -155.95 194.95 -160.95 194.95 -164.4 191.35 -167.9 187.85 -167.9 182.85 L-167.9 125.9 Q-162.95 127.5 -157.0 126.8 -153.6 126.35 -151.3 125.5 L-144.2 122.4 -143.85 122.15 M-42.15 101.5 L-13.3 72.65 -12.25 73.35 -23.35 101.5 -42.15 101.5 M-4.45 76.5 L-4.0 76.55 -4.0 101.5 -14.35 101.5 -4.45 76.5 M-62.85 101.5 Q-68.45 94.35 -72.1 86.4 -68.45 94.35 -62.85 101.5 M-92.4 71.65 Q-89.4 87.7 -80.95 101.5 -89.4 87.7 -92.4 71.65" fill="#000000" fill-opacity="0.49803922" fill-rule="evenodd" stroke="none"/>
    <path d="M0.0 -195.0 L-125.15 -195.0 Q-126.9 -194.55 -128.75 -193.5 -132.35 -191.2 -132.85 -187.6 L-130.5 -183.4 -124.3 -183.4 -101.2 -183.4 0.0 -183.4 M0.0 147.45 Q-38.85 147.4 -66.45 119.85 -75.05 111.2 -80.95 101.5 L-107.05 101.5 -107.05 93.45 Q-111.9 95.7 -116.7 93.85 L-121.35 90.8 -121.75 84.25 -135.95 98.25 -135.95 105.65 Q-136.1 107.5 -136.4 109.2 L-136.55 110.1 -136.55 109.8 Q-138.25 117.8 -143.85 122.15 L-143.85 182.85 Q-143.85 187.85 -147.45 191.35 -150.95 194.95 -155.95 194.95 -160.95 194.95 -164.4 191.35 -167.9 187.85 -167.9 182.85 L-167.9 125.9 -168.95 125.5 Q-174.15 123.55 -175.1 106.95 L-175.1 90.8 Q-175.1 51.45 -171.95 25.35 L-168.95 7.1 Q-158.35 -2.75 -139.9 -1.25 -132.65 -0.7 -126.7 1.1 -126.65 -4.85 -126.1 -10.65 L-124.5 -21.9 Q-121.1 -36.9 -119.35 -57.45 L-118.3 -74.95 -124.3 -183.4 M0.0 -75.75 L-94.75 -75.75 -93.95 -62.45 Q-93.95 -47.35 -96.85 -38.5 L-99.2 -31.95 -101.0 -27.4 Q-103.8 -19.25 -105.3 -8.45 -108.95 18.1 -106.35 71.65 L-92.4 71.65 Q-94.05 62.8 -94.05 53.3 -94.05 34.7 -87.75 18.7 -80.9 1.1 -66.45 -13.35 -38.85 -40.9 0.0 -40.95 M-101.2 -183.4 L-94.75 -75.75 M-126.7 1.1 L-126.7 1.15 Q-126.85 9.8 -126.0 18.7 L-121.75 84.25 M-143.85 36.95 Q-143.85 43.0 -147.8 47.25 -151.75 51.55 -157.45 51.55 -163.0 51.55 -166.95 47.25 -170.9 43.0 -170.9 36.95 -170.9 30.9 -166.95 26.6 -163.0 22.3 -157.45 22.3 -151.75 22.3 -147.8 26.6 -143.85 30.9 -143.85 36.95 M-126.7 1.15 L-127.6 0.85 Q-131.2 8.75 -133.2 34.95 -135.15 58.9 -136.55 109.8 M-107.05 93.45 L-107.05 71.65 -106.35 71.65 M-167.9 125.9 Q-162.95 127.5 -157.0 126.8 -153.6 126.35 -151.3 125.5 L-144.2 122.4 -143.85 122.15 M-80.95 101.5 Q-89.4 87.7 -92.4 71.65" fill="none" stroke="#000000" stroke-linecap="butt" stroke-linejoin="miter-clip" stroke-miterlimit="10.0" stroke-width="1.0"/>
    <path d="M-99.2 -31.95 L-101.5 -14.95 Q-103.6 4.65 -102.2 18.7 L-87.75 18.7 M-52.7 -5.7 L-55.85 -2.75 -58.65 0.2 -40.15 18.7 -20.0 38.85 Q-18.65 36.7 -16.7 34.75 L-14.35 32.65 -28.3 18.7 -52.7 -5.7 Q-43.55 -14.1 -32.9 -19.0 -29.05 -20.8 -25.05 -22.1 -15.1 -25.4 -4.0 -25.9 L0.0 -26.0 M-25.05 -22.1 L-8.85 18.7 -4.0 18.7 -4.0 -25.9 M-75.15 27.95 L-23.75 48.25 Q-23.05 43.9 -20.95 40.2 L-72.0 19.95 Q-73.8 23.85 -75.15 27.95 -78.45 37.85 -79.0 48.95 L-23.85 48.95 -23.85 48.85 -23.75 48.25 M-20.95 40.2 L-20.8 39.9 -20.35 39.3 -20.0 38.85 M-8.85 18.7 L-5.1 28.2 -4.7 28.1 -4.55 28.1 -4.0 28.0 -4.0 18.7 M-14.35 32.65 L-14.1 32.4 -13.3 31.9 -12.85 31.6 -17.95 18.7 -28.3 18.7 M-12.85 31.6 Q-9.35 29.15 -5.1 28.2 M-71.4 18.7 L-72.0 19.95 M-58.65 0.2 Q-66.55 8.8 -71.4 18.7 L-40.15 18.7 M-75.15 78.6 L-57.7 71.65 -77.1 71.65 -75.15 78.6 -72.1 86.4 -34.8 71.65 -20.0 65.8 Q-22.4 62.2 -23.35 58.05 L-57.7 71.65 M-79.0 48.95 L-79.1 53.3 -79.0 57.35 -23.5 57.35 Q-24.1 54.9 -24.1 52.25 L-23.85 48.95 M-79.0 57.35 Q-78.65 64.75 -77.1 71.65 M-13.3 72.65 L-14.6 71.65 -16.7 69.75 -19.3 66.8 -24.15 71.65 -54.05 101.5 -58.85 106.25 -55.85 109.4 -52.9 112.2 -42.15 101.5 -13.3 72.65 -12.25 73.35 Q-8.65 75.65 -4.45 76.5 L-4.0 76.55 0.0 76.95 M-19.3 66.8 L-19.55 66.45 -19.7 66.25 -20.0 65.8 M-23.35 58.05 L-23.45 57.7 -23.5 57.35 M-34.8 71.65 L-24.15 71.65 M-32.9 125.65 Q-29.1 127.35 -25.15 128.7 L-14.35 101.5 -4.45 76.5 M-32.9 125.65 L-23.35 101.5 -42.15 101.5 M-4.0 132.5 L-4.0 101.5 -14.35 101.5 M-25.15 128.7 Q-15.15 132.0 -4.0 132.5 L0.0 132.6 M-54.05 101.5 L-62.85 101.5 -58.85 106.25 M-52.9 112.2 Q-43.65 120.65 -32.9 125.65 M-23.35 101.5 L-12.25 73.35 M-4.0 101.5 L-4.0 76.55 M-72.1 86.4 Q-68.45 94.35 -62.85 101.5 M-17.95 18.7 L-32.9 -19.0 M-4.0 28.0 L0.0 27.55" fill="none" stroke="#000000" stroke-linecap="butt" stroke-linejoin="miter-clip" stroke-miterlimit="10.0" stroke-opacity="0.6" stroke-width="1.0"/>
  </g>
</svg>
