<?xml version="1.0" encoding="UTF-8" standalone="no"?>
<svg xmlns:xlink="http://www.w3.org/1999/xlink" height="55.85px" width="21.95px" xmlns="http://www.w3.org/2000/svg">
  <g transform="matrix(1.0, 0.0, 0.0, 1.0, 0.5, 0.5)">
    <path d="M15.35 0.3 L18.05 0.85 17.7 4.85 5.25 4.85 5.1 3.35 5.15 3.35 13.1 3.0 Q14.5 2.55 14.8 1.6 L14.85 0.7 15.35 0.3" fill="#000000" fill-opacity="0.14901961" fill-rule="evenodd" stroke="none"/>
    <path d="M15.35 0.3 L14.85 0.7 14.8 1.6 Q14.5 2.55 13.1 3.0 L5.15 3.35 4.95 0.85 8.65 0.15 9.65 0.05 11.25 0.0 15.35 0.3 M5.25 4.85 L17.7 4.85 18.25 4.85 18.7 4.9 Q19.35 4.95 19.85 5.3 20.5 5.8 20.5 6.45 20.5 7.1 19.85 7.55 19.2 8.05 18.25 8.05 L4.4 8.05 Q3.45 8.05 2.8 7.55 2.15 7.1 2.15 6.45 2.15 5.8 2.8 5.3 3.4 4.9 4.2 4.85 L4.4 4.85 5.25 4.85" fill="#ffffff" fill-opacity="0.0" fill-rule="evenodd" stroke="none"/>
    <path d="M16.05 41.75 L16.05 54.85 4.75 54.85 4.75 41.75 16.05 41.75" fill="#ffffff" fill-opacity="0.14901961" fill-rule="evenodd" stroke="none"/>
    <path d="M0.0 35.6 L20.95 35.6 20.95 38.55 0.0 38.55 0.0 35.6" fill="#000000" fill-opacity="0.09803922" fill-rule="evenodd" stroke="none"/>
    <path d="M17.7 4.85 L18.05 0.85 15.35 0.3 11.25 0.0 9.65 0.05 8.65 0.15 4.95 0.85 5.15 3.35 5.1 3.35 5.25 4.85 4.4 4.85 4.2 4.85 Q3.4 4.9 2.8 5.3 2.15 5.8 2.15 6.45 2.15 7.1 2.8 7.55 3.45 8.05 4.4 8.05 L18.25 8.05 Q19.2 8.05 19.85 7.55 20.5 7.1 20.5 6.45 20.5 5.8 19.85 5.3 19.35 4.95 18.7 4.9 L18.25 4.85 17.7 4.85 M16.05 41.75 L16.05 54.85 4.75 54.85 4.75 41.75 16.05 41.75 M0.0 35.6 L20.95 35.6 20.95 38.55 0.0 38.55 0.0 35.6" fill="none" stroke="#000000" stroke-linecap="round" stroke-linejoin="miter-clip" stroke-miterlimit="4.0" stroke-opacity="0.6" stroke-width="1.0"/>
    <path d="M5.25 4.85 L17.7 4.85 Z" fill="none" stroke="#000000" stroke-linecap="round" stroke-linejoin="miter-clip" stroke-miterlimit="4.0" stroke-opacity="0.4" stroke-width="1.0"/>
  </g>
</svg>
