<?xml version="1.0" encoding="UTF-8" standalone="no"?>
<svg xmlns:xlink="http://www.w3.org/1999/xlink" height="117.0px" width="164.45px" xmlns="http://www.w3.org/2000/svg">
  <g transform="matrix(1.0, 0.0, 0.0, 1.0, 82.25, 58.5)">
    <path d="M37.7 -53.55 L37.7 -58.0 81.7 -58.0 81.7 58.0 37.7 58.0 37.7 54.9 37.7 -53.55 M-37.7 54.9 L-37.7 58.0 -81.75 58.0 -81.75 -58.0 -37.7 -58.0 -37.7 -53.55 -37.7 54.9 M73.05 23.35 L49.05 23.35 73.05 23.35 M73.05 12.0 L49.05 12.0 73.05 12.0 M73.05 0.7 L49.05 0.7 73.05 0.7 M73.05 46.0 L49.05 46.0 73.05 46.0 M73.05 34.7 L49.05 34.7 73.05 34.7 M73.05 -21.95 L49.05 -21.95 73.05 -21.95 M73.05 -33.3 L49.05 -33.3 73.05 -33.3 M73.05 -44.65 L49.05 -44.65 73.05 -44.65 M73.05 -10.65 L49.05 -10.65 73.05 -10.65 M-46.4 23.35 L-70.4 23.35 -46.4 23.35 M-46.4 12.0 L-70.4 12.0 -46.4 12.0 M-46.4 0.7 L-70.4 0.7 -46.4 0.7 M-46.4 46.0 L-70.4 46.0 -46.4 46.0 M-46.4 34.7 L-70.4 34.7 -46.4 34.7 M-46.4 -21.95 L-70.4 -21.95 -46.4 -21.95 M-46.4 -33.3 L-70.4 -33.3 -46.4 -33.3 M-46.4 -44.65 L-70.4 -44.65 -46.4 -44.65 M-46.4 -10.65 L-70.4 -10.65 -46.4 -10.65" fill="#ffffff" fill-opacity="0.0" fill-rule="evenodd" stroke="none"/>
    <path d="M37.7 54.9 L-37.7 54.9 -37.7 -53.55 37.7 -53.55 37.7 54.9 M30.2 43.4 L30.2 -42.35 -30.25 -42.35 -30.25 43.4 30.2 43.4" fill="#000000" fill-opacity="0.09803922" fill-rule="evenodd" stroke="none"/>
    <path d="M37.7 -53.55 L37.7 -58.0 81.7 -58.0 81.7 58.0 37.7 58.0 37.7 54.9 -37.7 54.9 -37.7 58.0 -81.75 58.0 -81.75 -58.0 -37.7 -58.0 -37.7 -53.55 37.7 -53.55" fill="none" stroke="#000000" stroke-linecap="round" stroke-linejoin="round" stroke-width="1.0"/>
    <path d="M37.7 -53.55 L37.7 54.9 M30.2 43.4 L-30.25 43.4 -30.25 -42.35 30.2 -42.35 30.2 43.4 M-37.7 -53.55 L-37.7 54.9" fill="none" stroke="#000000" stroke-linecap="round" stroke-linejoin="round" stroke-opacity="0.6" stroke-width="1.0"/>
    <path d="M49.05 -10.65 L73.05 -10.65 M49.05 -44.65 L73.05 -44.65 M49.05 -33.3 L73.05 -33.3 M49.05 -21.95 L73.05 -21.95 M49.05 34.7 L73.05 34.7 M49.05 46.0 L73.05 46.0 M49.05 0.7 L73.05 0.7 M49.05 12.0 L73.05 12.0 M49.05 23.35 L73.05 23.35 M-70.4 -10.65 L-46.4 -10.65 M-70.4 -44.65 L-46.4 -44.65 M-70.4 -33.3 L-46.4 -33.3 M-70.4 -21.95 L-46.4 -21.95 M-70.4 34.7 L-46.4 34.7 M-70.4 46.0 L-46.4 46.0 M-70.4 0.7 L-46.4 0.7 M-70.4 12.0 L-46.4 12.0 M-70.4 23.35 L-46.4 23.35" fill="none" stroke="#000000" stroke-linecap="round" stroke-linejoin="round" stroke-opacity="0.4" stroke-width="1.0"/>
  </g>
</svg>
