<?xml version="1.0" encoding="UTF-8" standalone="no"?>
<svg xmlns:xlink="http://www.w3.org/1999/xlink" height="533.1px" width="1322.0px" xmlns="http://www.w3.org/2000/svg">
  <g transform="matrix(1.0, 0.0, 0.0, 1.0, 661.0, 266.5)">
    <path d="M-335.75 -52.5 L-335.2 -52.6 -326.25 -54.35 Q-241.9 -70.2 -123.45 -83.85 -56.15 -91.6 69.2 -104.4 169.95 -115.35 216.85 -132.4 255.9 -146.6 258.8 -165.5 260.35 -175.55 251.2 -188.6 247.95 -193.15 243.45 -198.1 L229.4 -212.4 Q221.7 -220.25 219.2 -224.5 210.4 -239.65 234.35 -252.4 249.25 -260.35 273.6 -266.0 L293.55 -266.0 333.1 -261.7 Q312.95 -258.4 301.15 -250.95 289.05 -243.3 290.05 -233.8 291.2 -223.45 308.15 -213.45 327.15 -202.2 363.7 -193.05 L381.85 -188.6 401.7 -183.8 Q430.0 -176.85 452.55 -170.45 520.2 -151.3 565.5 -129.35 574.2 -125.15 582.1 -120.8 695.5 -58.65 644.9 25.2 624.1 59.75 582.1 89.0 553.7 108.85 515.55 126.25 482.7 141.25 434.0 158.3 381.05 176.2 358.1 184.5 300.65 205.25 268.8 227.45 241.6 246.45 233.65 266.05 L-660.5 266.05 -660.5 73.4 Q-605.1 27.7 -513.75 -5.4 -438.8 -32.6 -335.75 -52.5" fill="#ffffff" fill-opacity="0.0" fill-rule="evenodd" stroke="none"/>
    <path d="M-335.75 -52.5 Q-438.8 -32.6 -513.75 -5.4 -605.1 27.7 -660.5 73.4 L-660.5 266.05 233.65 266.05 Q241.6 246.45 268.8 227.45 300.65 205.25 358.1 184.5 381.05 176.2 434.0 158.3 482.7 141.25 515.55 126.25 553.7 108.85 582.1 89.0 624.1 59.75 644.9 25.2 695.5 -58.65 582.1 -120.8 574.2 -125.15 565.5 -129.35 520.2 -151.3 452.55 -170.45 430.0 -176.85 401.7 -183.8 L381.85 -188.6 363.7 -193.05 Q327.15 -202.2 308.15 -213.45 291.2 -223.45 290.05 -233.8 289.05 -243.3 301.15 -250.95 312.95 -258.4 333.1 -261.7 L293.55 -266.0 273.6 -266.0 Q249.25 -260.35 234.35 -252.4 210.4 -239.65 219.2 -224.5 221.7 -220.25 229.4 -212.4 L243.45 -198.1 Q247.95 -193.15 251.2 -188.6 260.35 -175.55 258.8 -165.5 255.9 -146.6 216.85 -132.4 169.95 -115.35 69.2 -104.4 -56.15 -91.6 -123.45 -83.85 -241.9 -70.2 -326.25 -54.35 L-335.2 -52.6 -335.75 -52.5 Z" fill="none" stroke="#000000" stroke-linecap="round" stroke-linejoin="miter-clip" stroke-miterlimit="4.0" stroke-width="1.0"/>
  </g>
</svg>
