<?xml version="1.0" encoding="UTF-8" standalone="no"?>
<svg xmlns:xlink="http://www.w3.org/1999/xlink" height="302.35px" width="1152.55px" xmlns="http://www.w3.org/2000/svg">
  <g transform="matrix(1.0, 0.0, 0.0, 1.0, 576.25, 151.25)">
    <path d="M382.55 -148.55 L381.65 -150.65 439.25 -150.65 555.7 112.0 494.15 112.0 489.4 100.9 494.15 112.0 555.7 112.0 575.8 112.0 575.8 150.6 -575.75 150.6 -575.75 112.0 -554.2 112.0 -437.75 -150.65 -380.15 -150.65 -381.05 -148.55 -393.0 -120.6 -414.15 -71.2 -441.9 -6.4 -469.7 58.45 -487.85 100.9 489.4 100.9 471.2 58.45 443.45 -6.4 415.7 -71.2 394.55 -120.6 382.55 -148.55 M-492.6 112.0 L-554.2 112.0 -492.6 112.0 -487.85 100.9 -492.6 112.0 494.15 112.0 -492.6 112.0" fill="#ffffff" fill-opacity="0.0" fill-rule="evenodd" stroke="none"/>
    <path d="M382.55 -148.55 L394.55 -120.6 415.7 -71.2 443.45 -6.4 471.2 58.45 489.4 100.9 -487.85 100.9 -469.7 58.45 -441.9 -6.4 -414.15 -71.2 -393.0 -120.6 -381.05 -148.55 382.55 -148.55 M394.55 -120.6 L-393.0 -120.6 394.55 -120.6 M443.45 -6.4 L-441.9 -6.4 443.45 -6.4 M415.7 -71.2 L-414.15 -71.2 415.7 -71.2 M471.2 58.45 L-469.7 58.45 471.2 58.45" fill="#000000" fill-opacity="0.24705882" fill-rule="evenodd" stroke="none"/>
    <path d="M555.7 112.0 L439.25 -150.65 381.65 -150.65 382.55 -148.55 -381.05 -148.55 -380.15 -150.65 -437.75 -150.65 -554.2 112.0 -575.75 112.0 -575.75 150.6 575.8 150.6 575.8 112.0 555.7 112.0" fill="none" stroke="#000000" stroke-linecap="round" stroke-linejoin="miter-clip" stroke-miterlimit="4.0" stroke-width="1.0"/>
    <path d="M382.55 -148.55 L394.55 -120.6 415.7 -71.2 443.45 -6.4 471.2 58.45 489.4 100.9 494.15 112.0 555.7 112.0 M-381.05 -148.55 L-393.0 -120.6 394.55 -120.6 M-414.15 -71.2 L-441.9 -6.4 443.45 -6.4 M-393.0 -120.6 L-414.15 -71.2 415.7 -71.2 M-487.85 100.9 L-492.6 112.0 494.15 112.0 M-554.2 112.0 L-492.6 112.0 M-469.7 58.45 L-487.85 100.9 489.4 100.9 M-441.9 -6.4 L-469.7 58.45 471.2 58.45" fill="none" stroke="#000000" stroke-linecap="round" stroke-linejoin="miter-clip" stroke-miterlimit="4.0" stroke-opacity="0.6" stroke-width="1.0"/>
  </g>
</svg>
