<?xml version="1.0" encoding="UTF-8" standalone="no"?>
<svg xmlns:xlink="http://www.w3.org/1999/xlink" height="541.95px" width="335.9px" xmlns="http://www.w3.org/2000/svg">
  <g transform="matrix(1.0, 0.0, 0.0, 1.0, 167.95, 271.05)">
    <path d="M167.45 -108.45 L167.45 270.4 -167.45 270.4 -167.45 -97.45 5.5 -270.35 167.45 -108.45 M-120.7 218.2 L-120.7 201.75 -157.75 201.75 -157.75 218.2 -120.7 218.2 M-133.5 166.1 L-133.5 182.55 -113.75 182.55 -113.75 166.1 -133.5 166.1 M-120.7 141.3 L-120.7 124.85 -157.75 124.85 -157.75 141.3 -120.7 141.3 M-148.85 82.25 L-148.85 98.7 -111.5 98.45 -111.5 81.95 -148.85 82.25 M-68.6 -144.1 L-45.3 -142.75 9.65 -197.6 -0.7 -210.0 -68.6 -144.1 M141.35 183.9 L121.25 183.9 121.25 200.35 141.35 200.35 141.35 183.9 M155.75 137.25 L120.45 137.25 120.45 153.75 155.75 153.75 155.75 137.25 M157.15 107.05 L143.45 107.05 143.45 123.55 157.15 123.55 157.15 107.05 M121.25 79.6 L121.25 96.1 154.4 96.1 154.4 79.6 121.25 79.6 M155.35 41.0 L129.0 41.0 129.0 56.45 155.35 56.45 155.35 41.0" fill="#000000" fill-opacity="0.047058824" fill-rule="evenodd" stroke="none"/>
    <path d="M155.35 41.0 L155.35 56.45 129.0 56.45 129.0 41.0 155.35 41.0 M121.25 79.6 L154.4 79.6 154.4 96.1 121.25 96.1 121.25 79.6 M157.15 107.05 L157.15 123.55 143.45 123.55 143.45 107.05 157.15 107.05 M155.75 137.25 L155.75 153.75 120.45 153.75 120.45 137.25 155.75 137.25 M141.35 183.9 L141.35 200.35 121.25 200.35 121.25 183.9 141.35 183.9 M-68.6 -144.1 L-0.7 -210.0 9.65 -197.6 -45.3 -142.75 -68.6 -144.1 M-148.85 82.25 L-111.5 81.95 -111.5 98.45 -148.85 98.7 -148.85 82.25 M-120.7 141.3 L-157.75 141.3 -157.75 124.85 -120.7 124.85 -120.7 141.3 M-133.5 166.1 L-113.75 166.1 -113.75 182.55 -133.5 182.55 -133.5 166.1 M-120.7 218.2 L-157.75 218.2 -157.75 201.75 -120.7 201.75 -120.7 218.2" fill="#000000" fill-opacity="0.2" fill-rule="evenodd" stroke="none"/>
    <path d="M167.45 -108.45 L167.45 270.4 -167.45 270.4 -167.45 -97.45 5.5 -270.35 167.45 -108.45 Z" fill="none" stroke="#000000" stroke-linecap="round" stroke-linejoin="miter-clip" stroke-miterlimit="4.0" stroke-width="1.0"/>
  </g>
</svg>
