<?xml version="1.0" encoding="UTF-8" standalone="no"?>
<svg xmlns:xlink="http://www.w3.org/1999/xlink" height="52.95px" width="39.5px" xmlns="http://www.w3.org/2000/svg">
  <g transform="matrix(1.0, 0.0, 0.0, 1.0, 19.75, 26.45)">
    <path d="M15.8 -9.8 Q16.75 -9.05 17.5 -7.65 19.25 -4.4 19.25 -0.05 19.25 4.45 17.5 7.7 16.75 9.1 15.8 9.85 14.65 10.8 13.25 10.8 10.7 10.8 9.0 7.7 7.25 4.45 7.25 -0.05 7.25 -4.4 9.0 -7.65 10.7 -10.75 13.25 -10.75 14.65 -10.75 15.8 -9.8 M-15.75 -9.85 Q-14.65 -10.75 -13.35 -10.75 -10.8 -10.75 -9.1 -7.65 -7.35 -4.4 -7.35 -0.05 -7.35 4.45 -9.1 7.7 -10.8 10.8 -13.35 10.8 -14.65 10.8 -15.75 9.9 -16.7 9.15 -17.5 7.7 -19.25 4.45 -19.25 -0.05 -19.25 -4.4 -17.5 -7.65 -16.7 -9.1 -15.75 -9.85" fill="#ffffff" fill-opacity="0.09803922" fill-rule="evenodd" stroke="none"/>
    <path d="M15.8 9.85 L15.8 26.0 6.8 26.0 6.8 -25.95 15.8 -25.95 15.8 -9.8 Q14.65 -10.75 13.25 -10.75 10.7 -10.75 9.0 -7.65 7.25 -4.4 7.25 -0.05 7.25 4.45 9.0 7.7 10.7 10.8 13.25 10.8 14.65 10.8 15.8 9.85 M-15.75 9.9 Q-14.65 10.8 -13.35 10.8 -10.8 10.8 -9.1 7.7 -7.35 4.45 -7.35 -0.05 -7.35 -4.4 -9.1 -7.65 -10.8 -10.75 -13.35 -10.75 -14.65 -10.75 -15.75 -9.85 L-15.75 -25.95 -6.9 -25.95 -6.9 26.0 -15.75 26.0 -15.75 9.9" fill="#000000" fill-opacity="0.09803922" fill-rule="evenodd" stroke="none"/>
    <path d="M15.8 9.85 L15.8 26.0 6.8 26.0 6.8 -25.95 15.8 -25.95 15.8 -9.8 Q16.75 -9.05 17.5 -7.65 19.25 -4.4 19.25 -0.05 19.25 4.45 17.5 7.7 16.75 9.1 15.8 9.85 14.65 10.8 13.25 10.8 10.7 10.8 9.0 7.7 7.25 4.45 7.25 -0.05 7.25 -4.4 9.0 -7.65 10.7 -10.75 13.25 -10.75 14.65 -10.75 15.8 -9.8 M-15.75 -9.85 Q-14.65 -10.75 -13.35 -10.75 -10.8 -10.75 -9.1 -7.65 -7.35 -4.4 -7.35 -0.05 -7.35 4.45 -9.1 7.7 -10.8 10.8 -13.35 10.8 -14.65 10.8 -15.75 9.9 L-15.75 26.0 -6.9 26.0 -6.9 -25.95 -15.75 -25.95 -15.75 -9.85 Q-16.7 -9.1 -17.5 -7.65 -19.25 -4.4 -19.25 -0.05 -19.25 4.45 -17.5 7.7 -16.7 9.15 -15.75 9.9" fill="none" stroke="#000000" stroke-linecap="round" stroke-linejoin="miter-clip" stroke-miterlimit="4.0" stroke-opacity="0.6" stroke-width="1.0"/>
  </g>
</svg>
