<?xml version="1.0" encoding="UTF-8" standalone="no"?>
<svg xmlns:xlink="http://www.w3.org/1999/xlink" height="895.6px" width="1094.2px" xmlns="http://www.w3.org/2000/svg">
  <g transform="matrix(1.0, 0.0, 0.0, 1.0, 547.1, 447.75)">
    <path d="M176.35 88.5 Q176.0 107.75 174.5 121.6 169.0 174.25 149.5 143.75 154.6 167.0 154.85 177.95 155.4 202.1 140.55 202.45 134.75 202.55 130.8 198.55 128.0 195.7 125.3 189.45 L120.95 179.85 Q118.3 175.2 114.85 174.4 103.5 171.85 98.75 184.5 97.1 188.9 95.75 196.5 L93.7 208.7 Q91.1 221.7 84.95 220.05 76.75 217.9 57.9 191.5 58.15 197.5 59.55 209.8 60.2 220.5 57.4 227.15 53.15 222.15 47.65 208.5 L41.1 190.8 Q41.0 195.25 43.5 210.5 45.5 223.05 43.75 230.0 41.55 238.7 37.75 241.5 34.85 243.65 34.15 244.35 31.8 246.7 29.5 250.95 L24.5 259.45 19.4 267.65 Q17.75 269.95 17.4 276.5 17.05 282.9 14.6 285.8 13.8 283.1 11.5 278.4 L8.6 272.15 7.05 278.05 Q5.55 283.3 5.4 285.7 0.05 283.9 -5.8 279.45 -11.6 275.05 -15.2 270.05 -14.6 273.85 -15.5 281.85 -16.45 290.4 -16.15 293.75 -17.4 293.25 -22.3 292.35 -26.0 291.7 -28.8 289.7 -27.8 291.95 -26.6 299.7 -25.4 307.5 -24.3 309.95 L-28.85 310.9 Q-29.8 318.4 -27.2 326.55 -25.7 331.25 -21.15 340.55 -16.75 349.55 -15.3 354.45 -12.95 362.35 -14.25 369.7 -18.75 369.0 -22.1 365.75 -25.5 362.55 -26.65 357.85 -26.2 361.35 -23.6 372.95 -21.55 382.25 -21.45 387.95 -22.15 386.9 -25.0 383.9 -27.5 381.25 -28.5 379.4 -28.7 385.8 -25.45 399.6 -22.45 412.55 -23.25 419.95 L-27.0 414.45 Q-29.35 411.05 -30.3 408.35 -29.05 414.85 -25.9 427.75 -23.3 439.3 -23.25 447.3 -29.05 446.65 -32.25 439.5 -34.2 435.15 -35.65 426.4 -35.8 428.25 -36.5 431.35 L-37.4 435.15 Q-39.85 429.5 -39.8 420.45 -39.75 411.35 -37.25 404.7 -38.0 406.4 -39.9 409.25 L-42.4 413.25 Q-42.8 408.45 -42.85 399.15 L-42.75 387.7 Q-43.15 388.7 -44.5 390.8 L-46.05 393.3 Q-46.2 390.1 -47.45 380.55 -48.45 372.55 -48.25 367.65 -52.05 371.75 -53.25 373.45 -49.45 367.8 -48.55 341.9 -47.9 323.65 -48.7 307.85 -49.25 297.25 -53.15 265.55 -56.45 238.35 -56.4 221.8 -56.3 182.05 -57.05 167.45 -58.55 137.45 -64.5 112.75 -66.1 106.05 -71.5 94.1 L-81.4 72.7 Q-93.45 45.7 -89.8 34.3 -101.4 31.2 -111.75 32.8 -121.95 34.3 -129.4 40.1 -145.5 52.5 -143.35 77.35 L-149.9 77.95 -156.05 78.55 Q-156.75 85.95 -153.75 99.6 -150.8 113.3 -151.45 120.6 L-159.15 120.95 -166.9 121.4 Q-167.4 131.9 -167.3 153.5 -167.15 174.85 -167.7 185.55 L-172.7 185.85 -177.7 186.1 Q-179.75 198.75 -177.5 219.0 -174.9 242.45 -175.3 250.95 -175.75 261.55 -177.7 277.9 L-180.8 304.85 -180.7 316.55 Q-180.5 327.85 -181.05 334.9 -182.75 358.2 -192.45 348.5 -198.45 342.45 -196.25 317.5 -195.4 307.45 -193.4 298.7 -191.35 289.85 -189.2 286.65 -197.45 283.9 -199.0 280.6 -200.15 278.0 -197.3 274.1 L-191.5 267.0 Q-188.25 262.6 -188.75 259.1 -189.55 253.45 -195.05 243.45 -200.95 232.7 -202.45 226.55 -204.95 216.2 -208.6 188.8 -211.7 165.55 -216.45 151.2 -224.2 149.2 -228.8 150.4 -232.4 151.35 -234.95 154.7 L-238.95 161.1 Q-241.5 164.9 -244.95 166.55 -259.6 173.5 -275.0 170.35 -287.7 167.75 -305.15 157.0 -299.65 172.35 -301.3 188.05 -302.35 198.2 -308.05 215.75 L-311.75 225.85 Q-313.65 231.15 -314.15 234.6 -315.4 243.8 -308.25 256.5 -311.35 259.45 -317.2 262.75 -322.95 266.0 -326.55 266.9 -327.4 260.55 -324.95 246.45 -322.65 233.05 -324.1 226.4 -325.25 221.15 -330.95 212.9 -337.0 204.2 -338.4 199.6 -341.35 189.85 -341.35 170.95 -341.35 150.2 -343.0 142.0 -347.9 118.0 -357.15 106.25 -367.05 93.6 -389.25 85.15 -402.25 80.2 -431.1 64.6 -457.45 50.3 -472.65 45.55 -473.7 70.05 -483.8 83.1 -488.75 89.55 -500.95 94.75 -507.3 97.45 -509.65 98.8 -514.1 101.35 -516.5 104.65 -521.35 111.25 -519.5 132.9 -517.8 152.35 -513.75 161.35 -524.15 160.65 -526.5 181.85 -527.8 193.45 -527.55 215.35 -539.0 214.95 -541.65 205.75 -542.55 202.55 -542.85 196.65 L-543.45 186.55 Q-544.05 180.85 -544.15 167.75 -544.25 156.1 -545.5 148.05 -547.9 132.6 -545.15 110.85 L-542.6 92.45 Q-541.1 81.35 -540.7 73.05 -539.95 57.9 -540.6 34.1 -541.45 5.0 -541.4 -3.6 -541.0 -47.45 -527.2 -78.85 -516.65 -102.9 -495.75 -119.4 -478.65 -132.9 -451.65 -143.3 -438.85 -148.3 -402.3 -159.4 -371.1 -168.85 -354.8 -176.45 -280.4 -210.9 -238.6 -238.65 -171.9 -282.95 -148.8 -330.7 -116.7 -397.15 -34.6 -425.7 27.45 -447.25 119.6 -447.25 133.7 -447.25 151.7 -444.65 L183.6 -439.15 Q203.35 -435.55 215.4 -434.3 232.9 -432.4 247.4 -433.55 280.0 -436.1 296.1 -434.55 316.65 -432.65 343.7 -422.55 L408.55 -398.35 Q446.15 -384.75 474.05 -376.8 489.25 -372.45 502.05 -362.7 514.5 -353.15 522.8 -339.9 531.2 -326.5 534.0 -311.5 536.9 -295.8 533.25 -280.5 531.55 -273.35 531.3 -234.6 531.0 -195.5 533.1 -195.95 L529.45 -195.6 525.8 -195.15 Q526.6 -186.1 529.85 -175.2 531.55 -169.45 536.5 -155.75 545.75 -130.15 546.6 -114.8 L538.9 -114.45 531.2 -114.0 Q530.1 -106.8 531.7 -94.0 533.5 -80.25 532.95 -74.0 528.45 -77.05 525.85 -78.25 526.45 -75.95 526.85 -68.5 527.2 -61.6 528.3 -58.4 527.25 -61.05 524.1 -64.75 520.2 -69.3 519.25 -70.8 517.8 -69.4 513.0 -66.9 508.15 -64.4 507.0 -63.25 505.95 -67.05 500.45 -81.45 496.3 -92.25 495.25 -100.45 L491.6 -100.3 487.9 -100.45 Q486.85 -86.65 491.6 -60.2 496.3 -33.75 495.25 -20.6 493.95 -21.8 490.2 -24.15 486.65 -26.4 485.35 -27.75 486.05 -22.4 484.75 -14.5 484.05 -10.25 482.2 -2.95 480.75 -5.05 475.55 -9.45 470.45 -13.8 468.9 -16.2 468.9 0.8 462.55 12.6 453.9 3.9 452.5 -15.95 452.1 -21.7 452.1 -32.85 452.15 -44.0 451.8 -48.65 450.65 -47.6 449.25 -45.4 L446.85 -42.0 Q442.2 -56.95 444.4 -67.75 444.05 -67.7 442.35 -66.75 440.75 -65.85 439.35 -65.95 439.1 -69.3 436.7 -76.35 434.3 -83.25 434.15 -86.5 433.3 -86.9 432.2 -84.95 L430.7 -82.85 429.55 -86.3 Q428.7 -88.75 427.9 -89.2 427.2 -84.95 424.95 -76.25 422.75 -67.7 422.05 -63.25 L418.6 -66.45 Q416.2 -68.65 415.0 -70.3 L414.0 -42.15 Q412.3 -44.85 407.55 -48.95 402.35 -53.35 401.35 -54.65 402.1 -41.75 407.2 -19.6 412.8 4.55 413.9 15.25 412.2 15.4 411.6 13.85 411.7 21.0 410.75 29.95 409.55 40.75 407.35 46.9 401.3 64.05 390.8 37.95 384.6 50.5 376.95 44.75 370.85 40.2 366.3 27.05 368.55 39.1 362.95 44.95 356.95 51.2 346.75 43.5 345.65 47.35 344.35 59.55 343.05 72.2 341.6 77.85 339.25 87.15 334.75 89.65 329.3 92.7 320.15 86.2 L318.0 95.1 309.15 87.05 Q303.25 81.6 301.35 77.95 301.25 83.25 302.15 92.5 303.05 102.4 303.1 107.05 301.6 106.55 297.0 106.15 292.55 105.7 290.4 104.9 291.0 108.65 290.05 116.9 289.1 125.25 289.6 128.9 L282.8 122.25 Q278.3 118.05 276.35 113.8 275.85 121.5 275.9 123.5 L270.65 115.25 Q266.85 109.4 265.5 105.6 266.5 109.75 265.9 117.15 265.15 126.45 265.25 128.7 L258.9 129.15 252.5 129.55 Q253.1 133.1 252.05 141.35 251.0 149.6 251.65 153.15 L244.4 148.65 Q238.25 145.1 236.4 142.95 L235.0 148.85 233.9 153.35 Q228.25 141.35 225.65 124.85 223.9 144.7 218.0 162.15 210.1 185.55 198.05 191.65 186.0 180.65 183.15 146.4 L181.55 118.9 Q180.65 103.7 179.0 96.1 L176.95 99.35 176.35 88.5 176.45 80.15 176.35 66.6 176.2 76.7 Q176.2 83.05 176.35 88.5 M176.35 54.6 L176.35 66.6 176.35 54.6 M179.0 96.1 Q179.85 94.6 178.9 95.75 L179.0 96.1" fill="#000000" fill-opacity="0.44705883" fill-rule="evenodd" stroke="none"/>
    <path d="M176.35 88.5 Q176.2 83.05 176.2 76.7 L176.35 66.6 176.45 80.15 176.35 88.5 M179.0 96.1 L178.9 95.75 Q179.85 94.6 179.0 96.1" fill="#565656" fill-rule="evenodd" stroke="none"/>
    <path d="M176.35 88.5 Q176.0 107.75 174.5 121.6 169.0 174.25 149.5 143.75 154.6 167.0 154.85 177.95 155.4 202.1 140.55 202.45 134.75 202.55 130.8 198.55 128.0 195.7 125.3 189.45 L120.95 179.85 Q118.3 175.2 114.85 174.4 103.5 171.85 98.75 184.5 97.1 188.9 95.75 196.5 L93.7 208.7 Q91.1 221.7 84.95 220.05 76.75 217.9 57.9 191.5 58.15 197.5 59.55 209.8 60.2 220.5 57.4 227.15 53.15 222.15 47.65 208.5 L41.1 190.8 Q41.0 195.25 43.5 210.5 45.5 223.05 43.75 230.0 41.55 238.7 37.75 241.5 34.85 243.65 34.15 244.35 31.8 246.7 29.5 250.95 L24.5 259.45 19.4 267.65 Q17.75 269.95 17.4 276.5 17.05 282.9 14.6 285.8 13.8 283.1 11.5 278.4 L8.6 272.15 7.05 278.05 Q5.55 283.3 5.4 285.7 0.05 283.9 -5.8 279.45 -11.6 275.05 -15.2 270.05 -14.6 273.85 -15.5 281.85 -16.45 290.4 -16.15 293.75 -17.4 293.25 -22.3 292.35 -26.0 291.7 -28.8 289.7 -27.8 291.95 -26.6 299.7 -25.4 307.5 -24.3 309.95 L-28.85 310.9 Q-29.8 318.4 -27.2 326.55 -25.7 331.25 -21.15 340.55 -16.75 349.55 -15.3 354.45 -12.95 362.35 -14.25 369.7 -18.75 369.0 -22.1 365.75 -25.5 362.55 -26.65 357.85 -26.2 361.35 -23.6 372.95 -21.55 382.25 -21.45 387.95 -22.15 386.9 -25.0 383.9 -27.5 381.25 -28.5 379.4 -28.7 385.8 -25.45 399.6 -22.45 412.55 -23.25 419.95 L-27.0 414.45 Q-29.35 411.05 -30.3 408.35 -29.05 414.85 -25.9 427.75 -23.3 439.3 -23.25 447.3 -29.05 446.65 -32.25 439.5 -34.2 435.15 -35.65 426.4 -35.8 428.25 -36.5 431.35 L-37.4 435.15 Q-39.85 429.5 -39.8 420.45 -39.75 411.35 -37.25 404.7 -38.0 406.4 -39.9 409.25 L-42.4 413.25 Q-42.8 408.45 -42.85 399.15 L-42.75 387.7 Q-43.15 388.7 -44.5 390.8 L-46.05 393.3 Q-46.2 390.1 -47.45 380.55 -48.45 372.55 -48.25 367.65 -52.05 371.75 -53.25 373.45 -49.45 367.8 -48.55 341.9 -47.9 323.65 -48.7 307.85 -49.25 297.25 -53.15 265.55 -56.45 238.35 -56.4 221.8 -56.3 182.05 -57.05 167.45 -58.55 137.45 -64.5 112.75 -66.1 106.05 -71.5 94.1 L-81.4 72.7 Q-93.45 45.7 -89.8 34.3 -101.4 31.2 -111.75 32.8 -121.95 34.3 -129.4 40.1 -145.5 52.5 -143.35 77.35 L-149.9 77.95 -156.05 78.55 Q-156.75 85.95 -153.75 99.6 -150.8 113.3 -151.45 120.6 L-159.15 120.95 -166.9 121.4 Q-167.4 131.9 -167.3 153.5 -167.15 174.85 -167.7 185.55 L-172.7 185.85 -177.7 186.1 Q-179.75 198.75 -177.5 219.0 -174.9 242.45 -175.3 250.95 -175.75 261.55 -177.7 277.9 L-180.8 304.85 -180.7 316.55 Q-180.5 327.85 -181.05 334.9 -182.75 358.2 -192.45 348.5 -198.45 342.45 -196.25 317.5 -195.4 307.45 -193.4 298.7 -191.35 289.85 -189.2 286.65 -197.45 283.9 -199.0 280.6 -200.15 278.0 -197.3 274.1 L-191.5 267.0 Q-188.25 262.6 -188.75 259.1 -189.55 253.45 -195.05 243.45 -200.95 232.7 -202.45 226.55 -204.95 216.2 -208.6 188.8 -211.7 165.55 -216.45 151.2 -224.2 149.2 -228.8 150.4 -232.4 151.35 -234.95 154.7 L-238.95 161.1 Q-241.5 164.9 -244.95 166.55 -259.6 173.5 -275.0 170.35 -287.7 167.75 -305.15 157.0 -299.65 172.35 -301.3 188.05 -302.35 198.2 -308.05 215.75 L-311.75 225.85 Q-313.65 231.15 -314.15 234.6 -315.4 243.8 -308.25 256.5 -311.35 259.45 -317.2 262.75 -322.95 266.0 -326.55 266.9 -327.4 260.55 -324.95 246.45 -322.65 233.05 -324.1 226.4 -325.25 221.15 -330.95 212.9 -337.0 204.2 -338.4 199.6 -341.35 189.85 -341.35 170.95 -341.35 150.2 -343.0 142.0 -347.9 118.0 -357.15 106.25 -367.05 93.6 -389.25 85.15 -402.25 80.2 -431.1 64.6 -457.45 50.3 -472.65 45.55 -473.7 70.05 -483.8 83.1 -488.75 89.55 -500.95 94.75 -507.3 97.45 -509.65 98.8 -514.1 101.35 -516.5 104.65 -521.35 111.25 -519.5 132.9 -517.8 152.35 -513.75 161.35 -524.15 160.65 -526.5 181.85 -527.8 193.45 -527.55 215.35 -539.0 214.95 -541.65 205.75 -542.55 202.55 -542.85 196.65 L-543.45 186.55 Q-544.05 180.85 -544.15 167.75 -544.25 156.1 -545.5 148.05 -547.9 132.6 -545.15 110.85 L-542.6 92.45 Q-541.1 81.35 -540.7 73.05 -539.95 57.9 -540.6 34.1 -541.45 5.0 -541.4 -3.6 -541.0 -47.45 -527.2 -78.85 -516.65 -102.9 -495.75 -119.4 -478.65 -132.9 -451.65 -143.3 -438.85 -148.3 -402.3 -159.4 -371.1 -168.85 -354.8 -176.45 -280.4 -210.9 -238.6 -238.65 -171.9 -282.95 -148.8 -330.7 -116.7 -397.15 -34.6 -425.7 27.45 -447.25 119.6 -447.25 133.7 -447.25 151.7 -444.65 L183.6 -439.15 Q203.35 -435.55 215.4 -434.3 232.9 -432.4 247.4 -433.55 280.0 -436.1 296.1 -434.55 316.65 -432.65 343.7 -422.55 L408.55 -398.35 Q446.15 -384.75 474.05 -376.8 489.25 -372.45 502.05 -362.7 514.5 -353.15 522.8 -339.9 531.2 -326.5 534.0 -311.5 536.9 -295.8 533.25 -280.5 531.55 -273.35 531.3 -234.6 531.0 -195.5 533.1 -195.95 L529.45 -195.6 525.8 -195.15 Q526.6 -186.1 529.85 -175.2 531.55 -169.45 536.5 -155.75 545.75 -130.15 546.6 -114.8 L538.9 -114.45 531.2 -114.0 Q530.1 -106.8 531.7 -94.0 533.5 -80.25 532.95 -74.0 528.45 -77.05 525.85 -78.25 526.45 -75.95 526.85 -68.5 527.2 -61.6 528.3 -58.4 527.25 -61.05 524.1 -64.75 520.2 -69.3 519.25 -70.8 517.8 -69.4 513.0 -66.9 508.15 -64.4 507.0 -63.25 505.95 -67.05 500.45 -81.45 496.3 -92.25 495.25 -100.45 L491.6 -100.3 487.9 -100.45 Q486.85 -86.65 491.6 -60.2 496.3 -33.75 495.25 -20.6 493.95 -21.8 490.2 -24.15 486.65 -26.4 485.35 -27.75 486.05 -22.4 484.75 -14.5 484.05 -10.25 482.2 -2.95 480.75 -5.05 475.55 -9.45 470.45 -13.8 468.9 -16.2 468.9 0.8 462.55 12.6 453.9 3.9 452.5 -15.95 452.1 -21.7 452.1 -32.85 452.15 -44.0 451.8 -48.65 450.65 -47.6 449.25 -45.4 L446.85 -42.0 Q442.2 -56.95 444.4 -67.75 444.05 -67.7 442.35 -66.75 440.75 -65.85 439.35 -65.95 439.1 -69.3 436.7 -76.35 434.3 -83.25 434.15 -86.5 433.3 -86.9 432.2 -84.95 L430.7 -82.85 429.55 -86.3 Q428.7 -88.75 427.9 -89.2 427.2 -84.95 424.95 -76.25 422.75 -67.7 422.05 -63.25 L418.6 -66.45 Q416.2 -68.65 415.0 -70.3 L414.0 -42.15 Q412.3 -44.85 407.55 -48.95 402.35 -53.35 401.35 -54.65 402.1 -41.75 407.2 -19.6 412.8 4.55 413.9 15.25 412.2 15.4 411.6 13.85 411.7 21.0 410.75 29.95 409.55 40.75 407.35 46.9 401.3 64.05 390.8 37.95 384.6 50.5 376.95 44.75 370.85 40.2 366.3 27.05 368.55 39.1 362.95 44.95 356.95 51.2 346.75 43.5 345.65 47.35 344.35 59.55 343.05 72.2 341.6 77.85 339.25 87.15 334.75 89.65 329.3 92.7 320.15 86.2 L318.0 95.1 309.15 87.05 Q303.25 81.6 301.35 77.95 301.25 83.25 302.15 92.5 303.05 102.4 303.1 107.05 301.6 106.55 297.0 106.15 292.55 105.7 290.4 104.9 291.0 108.65 290.05 116.9 289.1 125.25 289.6 128.9 L282.8 122.25 Q278.3 118.05 276.35 113.8 275.85 121.5 275.9 123.5 L270.65 115.25 Q266.85 109.4 265.5 105.6 266.5 109.75 265.9 117.15 265.15 126.45 265.25 128.7 L258.9 129.15 252.5 129.55 Q253.1 133.1 252.05 141.35 251.0 149.6 251.65 153.15 L244.4 148.65 Q238.25 145.1 236.4 142.95 L235.0 148.85 233.9 153.35 Q228.25 141.35 225.65 124.85 223.9 144.7 218.0 162.15 210.1 185.55 198.05 191.65 186.0 180.65 183.15 146.4 L181.55 118.9 Q180.65 103.7 179.0 96.1 L176.95 99.35 176.35 88.5 Q176.2 83.05 176.2 76.7 L176.35 66.6 176.35 54.6 M179.0 96.1 L178.9 95.75 Q179.85 94.6 179.0 96.1 M176.35 66.6 L176.45 80.15 176.35 88.5 Z" fill="none" stroke="#000000" stroke-linecap="round" stroke-linejoin="miter-clip" stroke-miterlimit="4.0" stroke-opacity="0.4" stroke-width="1.0"/>
  </g>
</svg>
