<?xml version="1.0" encoding="UTF-8" standalone="no"?>
<svg xmlns:xlink="http://www.w3.org/1999/xlink" height="100.95px" width="196.6px" xmlns="http://www.w3.org/2000/svg">
  <g transform="matrix(1.0, 0.0, 0.0, 1.0, 99.9, 48.6)">
    <path d="M85.8 -40.65 Q88.7 -40.85 91.6 -42.5 94.1 -43.9 94.5 -44.95 94.1 -43.9 91.6 -42.5 88.7 -40.85 85.8 -40.65 L85.6 -40.65 85.8 -40.65 85.6 -40.65 -89.0 -40.65 -89.0 43.85 -89.0 43.9 Q-93.05 44.6 -96.1 47.05 -98.95 49.35 -99.4 51.85 -98.95 49.35 -96.1 47.05 -93.05 44.6 -89.0 43.9 L-89.0 43.85 -88.75 43.85 85.8 43.85 85.8 -40.65 M96.0 51.85 Q93.7 47.2 91.2 45.75 L85.8 43.85 91.2 45.75 Q93.7 47.2 96.0 51.85 L-99.4 51.85 -99.4 -48.1 Q-99.1 -45.6 -96.25 -43.45 -93.2 -41.1 -89.0 -40.65 -93.2 -41.1 -96.25 -43.45 -99.1 -45.6 -99.4 -48.1 L96.0 -48.1 96.2 -48.1 96.2 51.85 96.0 51.85 M94.5 -44.95 L96.0 -48.1 94.5 -44.95 M-88.75 43.85 L-89.0 43.9 -88.75 43.85" fill="#ffffff" fill-opacity="0.0" fill-rule="evenodd" stroke="none"/>
    <path d="M96.0 51.85 L96.2 51.85 M96.2 -48.1 L96.0 -48.1 -99.4 -48.1 -99.4 51.85 96.0 51.85 M85.6 -40.65 L85.8 -40.65 M-88.75 43.85 L-89.0 43.85" fill="none" stroke="#000000" stroke-linecap="round" stroke-linejoin="miter-clip" stroke-miterlimit="4.0" stroke-width="1.0"/>
    <path d="M85.8 -40.65 L85.8 43.85 -88.75 43.85 M96.0 -48.1 L94.5 -44.95 M-89.0 43.85 L-89.0 -40.65 85.6 -40.65" fill="none" stroke="#000000" stroke-linecap="round" stroke-linejoin="miter-clip" stroke-miterlimit="4.0" stroke-opacity="0.6" stroke-width="1.0"/>
    <path d="M94.5 -44.95 Q94.1 -43.9 91.6 -42.5 88.7 -40.85 85.8 -40.65 L85.6 -40.65 M85.8 43.85 L91.2 45.75 Q93.7 47.2 96.0 51.85 M96.2 51.85 L96.2 -48.1 M-89.0 -40.65 Q-93.2 -41.1 -96.25 -43.45 -99.1 -45.6 -99.4 -48.1 M-99.4 51.85 Q-98.95 49.35 -96.1 47.05 -93.05 44.6 -89.0 43.9 L-89.0 43.85 M-89.0 43.9 L-88.75 43.85" fill="none" stroke="#000000" stroke-linecap="round" stroke-linejoin="miter-clip" stroke-miterlimit="4.0" stroke-opacity="0.4" stroke-width="1.0"/>
  </g>
</svg>
