<?xml version="1.0" encoding="UTF-8" standalone="no"?>
<svg xmlns:xlink="http://www.w3.org/1999/xlink" height="19.3px" width="293.45px" xmlns="http://www.w3.org/2000/svg">
  <g transform="matrix(1.0, 0.0, 0.0, 1.0, 146.7, 9.65)">
    <path d="M133.1 -2.2 Q132.1 -2.75 132.1 -3.5 132.1 -4.25 133.1 -4.75 134.15 -5.3 135.6 -5.3 137.05 -5.3 138.1 -4.75 139.1 -4.25 139.1 -3.5 139.1 -2.75 138.1 -2.2 137.05 -1.7 135.6 -1.7 134.15 -1.7 133.1 -2.2 M-133.1 -2.2 Q-134.15 -1.7 -135.6 -1.7 -137.05 -1.7 -138.05 -2.2 -139.1 -2.75 -139.1 -3.5 -139.1 -4.25 -138.05 -4.75 L-135.6 -5.3 Q-134.15 -5.3 -133.1 -4.75 -132.1 -4.25 -132.1 -3.5 -132.1 -2.75 -133.1 -2.2" fill="#ffffff" fill-opacity="0.44705883" fill-rule="evenodd" stroke="none"/>
    <path d="M133.1 -2.2 Q134.15 -1.7 135.6 -1.7 137.05 -1.7 138.1 -2.2 139.1 -2.75 139.1 -3.5 139.1 -4.25 138.1 -4.75 137.05 -5.3 135.6 -5.3 134.15 -5.3 133.1 -4.75 132.1 -4.25 132.1 -3.5 132.1 -2.75 133.1 -2.2 M129.45 -6.45 Q132.3 -9.15 136.4 -9.15 140.45 -9.15 143.35 -6.45 146.25 -3.8 146.25 0.0 146.25 3.8 143.35 6.45 140.45 9.15 136.4 9.15 132.3 9.15 129.45 6.45 126.55 3.8 126.55 0.0 126.55 -3.8 129.45 -6.45 M-133.1 -2.2 Q-132.1 -2.75 -132.1 -3.5 -132.1 -4.25 -133.1 -4.75 -134.15 -5.3 -135.6 -5.3 L-138.05 -4.75 Q-139.1 -4.25 -139.1 -3.5 -139.1 -2.75 -138.05 -2.2 -137.05 -1.7 -135.6 -1.7 -134.15 -1.7 -133.1 -2.2 M-129.4 -6.45 Q-126.5 -3.8 -126.5 0.0 -126.5 3.8 -129.4 6.45 -132.25 9.15 -136.35 9.15 -140.45 9.15 -143.3 6.45 -146.2 3.8 -146.2 0.0 -146.2 -3.8 -143.3 -6.45 -140.45 -9.15 -136.35 -9.15 -132.25 -9.15 -129.4 -6.45" fill="#ffffff" fill-opacity="0.0" fill-rule="evenodd" stroke="none"/>
    <path d="M129.45 -6.45 Q126.55 -3.8 126.55 0.0 126.55 3.8 129.45 6.45 132.3 9.15 136.4 9.15 140.45 9.15 143.35 6.45 146.25 3.8 146.25 0.0 146.25 -3.8 143.35 -6.45 140.45 -9.15 136.4 -9.15 132.3 -9.15 129.45 -6.45 M-129.4 -6.45 Q-126.5 -3.8 -126.5 0.0 -126.5 3.8 -129.4 6.45 -132.25 9.15 -136.35 9.15 -140.45 9.15 -143.3 6.45 -146.2 3.8 -146.2 0.0 -146.2 -3.8 -143.3 -6.45 -140.45 -9.15 -136.35 -9.15 -132.25 -9.15 -129.4 -6.45" fill="none" stroke="#000000" stroke-linecap="round" stroke-linejoin="miter-clip" stroke-miterlimit="4.0" stroke-width="1.0"/>
  </g>
</svg>
