<?xml version="1.0" encoding="UTF-8" standalone="no"?>
<svg xmlns:xlink="http://www.w3.org/1999/xlink" height="167.0px" width="398.8px" xmlns="http://www.w3.org/2000/svg">
  <g transform="matrix(1.0, 0.0, 0.0, 1.0, 199.75, 83.5)">
    <path d="M-198.15 43.6 Q-189.1 47.05 -181.6 46.05 -170.25 44.55 -165.05 32.85 L-156.85 -26.45 Q-157.25 -0.95 -151.65 23.65 -140.4 72.9 -110.25 68.45 L-99.0 66.2 Q-86.75 64.0 -81.65 64.5 L-77.55 24.95 Q-73.45 -16.55 -73.45 -26.45 -71.8 -5.7 -69.15 16.95 -63.85 62.25 -58.75 71.6 L-57.2 73.05 Q-55.15 74.6 -52.5 75.35 -44.1 77.75 -33.35 70.8 -22.65 63.9 -8.95 63.9 -2.1 63.9 2.6 65.3 3.45 -0.35 5.05 -27.25 7.7 -3.7 12.3 21.2 21.55 71.0 31.25 77.95 L41.6 77.45 Q52.85 76.45 57.45 74.0 63.85 70.55 68.6 68.95 74.7 66.85 80.35 66.85 85.45 66.85 86.7 24.15 87.3 2.8 86.9 -18.55 L88.25 -5.65 Q90.05 9.85 92.2 22.9 99.15 64.6 107.35 66.1 114.5 67.4 122.35 60.75 127.05 56.75 128.15 56.05 131.4 53.95 134.3 54.2 139.95 54.7 138.95 9.85 138.45 -12.6 136.8 -35.15 L138.8 -22.35 Q141.4 -6.9 144.25 6.15 153.45 48.1 162.15 51.05 169.55 53.6 182.2 53.95 190.1 54.2 198.4 53.6 198.7 58.95 198.15 58.95 196.25 58.95 190.15 61.55 L180.95 65.3 Q177.7 66.3 173.3 66.2 L161.3 65.3 Q151.2 64.55 147.1 65.0 140.1 65.8 133.5 70.05 126.35 74.65 117.25 77.05 108.55 79.35 101.6 78.75 L89.85 76.55 Q82.9 75.1 76.25 75.55 69.1 76.05 64.2 78.25 L60.7 80.3 41.05 82.7 Q29.55 84.1 15.8 79.05 8.8 76.25 5.5 75.0 -0.15 72.9 -3.95 72.4 -11.05 71.45 -23.65 75.65 -40.45 81.25 -44.0 81.9 -52.15 83.35 -61.2 78.85 -70.15 73.2 -73.45 71.6 -77.9 69.45 -88.9 70.4 -96.25 71.05 -113.55 74.0 -126.2 76.1 -139.95 71.3 -151.35 67.35 -156.05 62.15 -160.8 56.8 -164.0 55.0 -169.35 52.1 -178.1 52.65 L-178.3 52.65 -178.8 52.7 -179.45 52.7 -182.5 52.55 Q-186.65 52.0 -190.45 49.95 L-190.8 49.75 -191.95 49.05 -193.75 47.85 -194.25 47.45 -197.2 44.75 -198.15 43.6" fill="#000000" fill-opacity="0.4" fill-rule="evenodd" stroke="none"/>
    <path d="M198.15 58.95 Q198.7 58.95 198.4 53.6 190.1 54.2 182.2 53.95 169.55 53.6 162.15 51.05 153.45 48.1 144.25 6.15 141.4 -6.9 138.8 -22.35 L136.8 -35.15 Q138.45 -12.6 138.95 9.85 139.95 54.7 134.3 54.2 131.4 53.95 128.15 56.05 127.05 56.75 122.35 60.75 114.5 67.4 107.35 66.1 99.15 64.6 92.2 22.9 90.05 9.85 88.25 -5.65 L86.9 -18.55 Q87.3 2.8 86.7 24.15 85.45 66.85 80.35 66.85 74.7 66.85 68.6 68.95 63.85 70.55 57.45 74.0 52.85 76.45 41.6 77.45 L31.25 77.95 Q21.55 71.0 12.3 21.2 7.7 -3.7 5.05 -27.25 3.45 -0.35 2.6 65.3 -2.1 63.9 -8.95 63.9 -22.65 63.9 -33.35 70.8 -44.1 77.75 -52.5 75.35 -55.15 74.6 -57.2 73.05 L-58.75 71.6 Q-63.85 62.25 -69.15 16.95 -71.8 -5.7 -73.45 -26.45 -73.45 -16.55 -77.55 24.95 L-81.65 64.5 Q-86.75 64.0 -99.0 66.2 L-110.25 68.45 Q-140.4 72.9 -151.65 23.65 -157.25 -0.95 -156.85 -26.45 L-165.05 32.85 Q-170.25 44.55 -181.6 46.05 -189.1 47.05 -198.15 43.6 L-198.55 43.15 -190.0 -62.8 Q-190.0 -54.45 -135.35 -48.55 -80.7 -42.65 -3.5 -42.65 73.7 -42.65 128.4 -48.55 183.0 -54.45 183.0 -62.8 187.6 -32.35 191.8 -1.9 200.2 58.95 198.15 58.95" fill="#000000" fill-opacity="0.24705882" fill-rule="evenodd" stroke="none"/>
    <path d="M183.0 -62.8 Q183.0 -54.45 128.4 -48.55 73.7 -42.65 -3.5 -42.65 -80.7 -42.65 -135.35 -48.55 -190.0 -54.45 -190.0 -62.8 L-189.95 -63.1 Q-189.85 -63.95 -189.0 -64.9 -181.75 -57.25 -128.85 -52.05 -75.55 -46.8 -3.5 -46.8 68.5 -46.8 121.85 -52.05 174.75 -57.25 182.0 -64.9 182.85 -63.95 183.0 -63.1 L183.0 -62.8" fill="#000000" fill-opacity="0.14901961" fill-rule="evenodd" stroke="none"/>
    <path d="M183.0 -63.1 Q182.85 -63.95 182.0 -64.9 174.75 -57.25 121.85 -52.05 68.5 -46.8 -3.5 -46.8 -75.55 -46.8 -128.85 -52.05 -181.75 -57.25 -189.0 -64.9 -189.85 -63.95 -189.95 -63.1 -188.95 -71.25 -135.35 -77.1 -80.75 -83.0 -3.5 -83.0 73.75 -83.0 128.4 -77.1 181.95 -71.25 183.0 -63.1" fill="#ffffff" fill-opacity="0.0" fill-rule="evenodd" stroke="none"/>
    <path d="M-198.15 43.6 L-197.2 44.75 -198.25 43.55 -198.2 43.6 -198.15 43.6" fill="#8d8d8d" fill-rule="evenodd" stroke="none"/>
    <path d="M-193.75 47.85 L-191.95 49.05 -190.8 49.75 -193.25 48.2 -193.75 47.85 M-198.55 43.15 L-198.15 43.6 -198.2 43.6 -198.55 43.15" fill="#acacac" fill-rule="evenodd" stroke="none"/>
    <path d="M-198.15 43.6 L-197.2 44.75 -194.25 47.45 -193.75 47.85 -193.25 48.2 -190.8 49.75 M-190.45 49.95 Q-186.65 52.0 -182.5 52.55 L-179.45 52.7 -178.8 52.7 -178.3 52.65 -178.1 52.65 Q-169.35 52.1 -164.0 55.0 -160.8 56.8 -156.05 62.15 -151.35 67.35 -139.95 71.3 -126.2 76.1 -113.55 74.0 -96.25 71.05 -88.9 70.4 -77.9 69.45 -73.45 71.6 -70.15 73.2 -61.2 78.85 -52.15 83.35 -44.0 81.9 -40.45 81.25 -23.65 75.65 -11.05 71.45 -3.95 72.4 -0.15 72.9 5.5 75.0 8.8 76.25 15.8 79.05 29.55 84.1 41.05 82.7 L60.7 80.3 64.2 78.25 Q69.1 76.05 76.25 75.55 82.9 75.1 89.85 76.55 L101.6 78.75 Q108.55 79.35 117.25 77.05 126.35 74.65 133.5 70.05 140.1 65.8 147.1 65.0 151.2 64.55 161.3 65.3 L173.3 66.2 Q177.7 66.3 180.95 65.3 L190.15 61.55 Q196.25 58.95 198.15 58.95 200.2 58.95 191.8 -1.9 187.6 -32.35 183.0 -62.8 183.0 -54.45 128.4 -48.55 73.7 -42.65 -3.5 -42.65 -80.7 -42.65 -135.35 -48.55 -190.0 -54.45 -190.0 -62.8 L-198.55 43.15 -198.15 43.6 M183.0 -62.8 L183.0 -63.1 Q181.95 -71.25 128.4 -77.1 73.75 -83.0 -3.5 -83.0 -80.75 -83.0 -135.35 -77.1 -188.95 -71.25 -189.95 -63.1 L-190.0 -62.8 M-198.55 43.15 L-198.2 43.6" fill="none" stroke="#000000" stroke-linecap="round" stroke-linejoin="miter-clip" stroke-miterlimit="4.0" stroke-width="1.0"/>
  </g>
</svg>
