<?xml version="1.0" encoding="UTF-8" standalone="no"?>
<svg xmlns:xlink="http://www.w3.org/1999/xlink" height="6.4px" width="19.4px" xmlns="http://www.w3.org/2000/svg">
  <g transform="matrix(1.0, 0.0, 0.0, 1.0, 0.0, 0.0)">
    <path d="M19.2 3.0 L18.55 3.4 Q17.85 3.55 17.65 3.2 L17.2 3.4 Q16.25 3.75 16.25 3.9 L16.8 4.25 16.75 4.55 16.75 4.7 14.75 5.3 14.65 5.55 14.2 5.8 13.9 5.75 13.75 5.95 Q13.6 6.35 12.8 6.4 L9.6 6.4 Q9.05 6.4 8.0 5.8 L7.8 5.8 Q7.5 5.8 7.35 5.55 L7.25 5.4 5.45 5.1 5.4 5.25 4.9 5.65 4.2 5.7 3.75 5.4 Q3.7 5.2 3.95 4.95 4.15 4.65 4.5 4.55 L5.35 4.65 5.7 4.1 Q5.75 3.7 5.15 3.55 L2.8 3.2 2.7 2.85 3.1 2.4 Q3.05 2.0 1.55 1.25 L0.75 1.2 0.2 0.75 Q-0.05 0.45 0.05 0.25 0.2 0.05 0.55 0.0 L1.25 0.15 1.7 0.65 1.75 0.75 2.85 1.2 4.5 1.8 Q4.95 1.95 5.1 1.65 L5.2 1.3 5.5 1.25 Q6.1 2.6 7.25 2.6 L7.25 2.55 7.35 2.1 7.8 1.9 Q8.05 1.85 8.25 2.1 L8.4 2.05 9.15 1.95 10.0 1.95 10.85 1.9 10.95 1.9 10.9 2.7 10.85 3.3 11.35 3.45 11.9 3.45 12.6 3.45 12.85 3.25 Q12.9 2.55 13.45 2.05 L13.75 2.1 Q13.9 1.85 14.2 1.9 14.5 1.9 14.65 2.1 L14.75 2.55 14.5 2.9 14.6 3.1 16.95 2.8 17.7 2.65 18.2 2.35 19.4 2.45 Q19.5 2.7 19.2 3.0" fill="#ffffff" fill-opacity="0.29803923" fill-rule="evenodd" stroke="none"/>
  </g>
</svg>
