<?xml version="1.0" encoding="UTF-8" standalone="no"?>
<svg xmlns:xlink="http://www.w3.org/1999/xlink" height="60.6px" width="42.75px" xmlns="http://www.w3.org/2000/svg">
  <g transform="matrix(1.0, 0.0, 0.0, 1.0, 21.3, 30.05)">
    <path d="M3.6 7.1 Q2.55 -9.45 6.25 -21.2 7.45 -24.9 8.95 -27.65 L10.15 -29.55 20.3 -29.55 Q12.6 -21.6 9.05 -3.25 7.3 5.9 7.05 13.45 L3.6 7.1 7.05 13.45 3.55 13.3 0.15 13.15 3.6 7.1 M-9.7 -29.55 Q-3.4 -18.15 -2.2 -4.15 -1.6 2.9 -2.3 7.7 L-0.15 13.15 -3.35 13.0 -6.15 22.2 0.9 29.35 Q-6.15 25.7 -13.25 22.0 -12.85 21.15 -9.25 17.2 L-5.7 13.45 Q-5.1 -1.35 -12.65 -16.9 -15.05 -21.8 -17.95 -26.15 L-20.35 -29.55 -9.7 -29.55 M6.7 22.3 L6.8 22.35 3.55 13.3 7.05 13.45 Q11.8 17.1 15.45 22.0 L0.9 29.35 0.9 29.3 6.7 22.3 M6.8 22.35 L15.45 22.0 6.8 22.35 M-5.7 13.45 L-3.35 13.0 -5.7 13.45 -2.3 7.7 -5.7 13.45 M-6.15 22.2 L-13.25 22.0 -6.15 22.2" fill="#000000" fill-opacity="0.09803922" fill-rule="evenodd" stroke="none"/>
    <path d="M10.15 -29.55 L8.95 -27.65 Q7.45 -24.9 6.25 -21.2 2.55 -9.45 3.6 7.1 L0.15 13.15 -0.05 13.15 -0.15 13.15 -0.05 13.15 0.15 13.15 3.55 13.3 6.8 22.35 6.7 22.3 0.2 21.05 -0.05 13.45 -0.05 13.15 -0.05 13.45 0.2 21.05 6.7 22.3 0.9 29.3 0.9 29.35 -6.15 22.2 0.15 21.15 0.2 21.05 0.15 21.15 -6.15 22.2 -3.35 13.0 -0.15 13.15 -2.3 7.7 Q-1.6 2.9 -2.2 -4.15 -3.4 -18.15 -9.7 -29.55 L10.15 -29.55 M0.15 21.15 L0.9 29.3 0.15 21.15" fill="#ffffff" fill-opacity="0.0" fill-rule="evenodd" stroke="none"/>
    <path d="M10.15 -29.55 L8.95 -27.65 Q7.45 -24.9 6.25 -21.2 2.55 -9.45 3.6 7.1 L7.05 13.45 3.55 13.3 0.15 13.15 3.6 7.1 M-9.7 -29.55 Q-3.4 -18.15 -2.2 -4.15 -1.6 2.9 -2.3 7.7 L-0.15 13.15 -0.05 13.15 0.15 13.15 M6.7 22.3 L6.8 22.35 3.55 13.3 M-0.05 13.15 L-0.05 13.45 0.2 21.05 6.7 22.3 0.9 29.3 0.9 29.35 -6.15 22.2 0.15 21.15 0.2 21.05 M15.45 22.0 L6.8 22.35 M0.9 29.3 L0.15 21.15 M-5.7 13.45 L-2.3 7.7 M-3.35 13.0 L-5.7 13.45 M-13.25 22.0 L-6.15 22.2 -3.35 13.0 -0.15 13.15" fill="none" stroke="#000000" stroke-linecap="round" stroke-linejoin="miter-clip" stroke-miterlimit="4.0" stroke-opacity="0.6" stroke-width="1.0"/>
    <path d="M7.05 13.45 Q7.3 5.9 9.05 -3.25 12.6 -21.6 20.3 -29.55 L10.15 -29.55 -9.7 -29.55 -20.35 -29.55 -17.95 -26.15 Q-15.05 -21.8 -12.65 -16.9 -5.1 -1.35 -5.7 13.45 L-9.25 17.2 Q-12.85 21.15 -13.25 22.0 -6.15 25.7 0.9 29.35 L15.45 22.0 Q11.8 17.1 7.05 13.45" fill="none" stroke="#000000" stroke-linecap="round" stroke-linejoin="miter-clip" stroke-miterlimit="4.0" stroke-width="1.0"/>
  </g>
</svg>
