<?xml version="1.0" encoding="UTF-8" standalone="no"?>
<svg xmlns:xlink="http://www.w3.org/1999/xlink" height="1314.25px" width="301.1px" xmlns="http://www.w3.org/2000/svg">
  <g transform="matrix(1.0, 0.0, 0.0, 1.0, 152.7, 669.65)">
    <path d="M27.65 -658.55 L27.65 -644.8 -12.0 -612.35 -12.0 -625.8 -12.0 -612.35 -21.9 -604.25 -38.15 -604.25 -21.9 -604.25 -47.55 -583.3 -47.55 -596.5 -38.15 -604.25 -12.0 -625.8 27.65 -658.55 M27.65 -626.15 L27.65 -618.9 8.15 -604.25 -12.0 -589.15 -12.0 -595.75 -12.0 -589.15 -47.55 -562.45 -47.55 -568.5 -12.0 -595.75 -0.9 -604.25 8.15 -604.25 -0.9 -604.25 27.65 -626.15 M115.45 -349.85 L115.45 -332.5 75.8 -291.5 65.9 -281.3 40.25 -254.8 40.25 -271.45 49.7 -281.3 65.9 -281.3 49.7 -281.3 75.8 -308.5 115.45 -349.85 M115.45 -308.95 L115.45 -299.8 95.95 -281.3 75.8 -262.2 40.25 -228.5 40.25 -236.15 75.8 -270.55 75.8 -262.2 75.8 -270.55 86.9 -281.3 115.45 -308.95 M75.8 -291.5 L75.8 -308.5 75.8 -291.5 M86.9 -281.3 L95.95 -281.3 86.9 -281.3 M75.8 -36.3 L75.8 -19.3 75.8 -36.3 115.45 -77.65 115.45 -60.25 75.8 -19.3 65.95 -9.1 49.7 -9.1 65.95 -9.1 40.25 17.4 40.25 0.75 49.7 -9.1 75.8 -36.3 M86.9 -9.1 L115.45 -36.75 115.45 -27.55 96.0 -9.1 86.9 -9.1 96.0 -9.1 75.8 10.05 75.8 1.65 75.8 10.05 40.25 43.75 40.25 36.05 75.8 1.65 86.9 -9.1 M-77.0 -349.85 L-77.0 -332.5 -116.7 -291.45 -126.55 -281.3 -152.2 -254.8 -152.2 -271.45 -142.75 -281.3 -116.7 -308.45 -77.0 -349.85 M-77.0 -308.95 L-77.0 -299.8 -96.5 -281.3 -116.7 -262.15 -116.7 -270.5 -116.7 -262.15 -152.2 -228.5 -152.2 -236.15 -116.7 -270.5 -105.55 -281.3 -96.5 -281.3 -105.55 -281.3 -77.0 -308.95 M-142.75 -281.3 L-126.55 -281.3 -142.75 -281.3 M-116.7 -291.45 L-116.7 -308.45 -116.7 -291.45 M-152.2 0.75 L-142.75 -9.1 -116.7 -36.25 -116.7 -19.25 -116.7 -36.25 -77.0 -77.65 -77.0 -60.25 -116.7 -19.25 -126.5 -9.1 -152.2 17.4 -152.2 0.75 M-142.75 -9.1 L-126.5 -9.1 -142.75 -9.1 M-152.2 36.05 L-116.7 1.7 -105.55 -9.1 -77.0 -36.75 -77.0 -27.55 -96.45 -9.1 -116.7 10.1 -116.7 1.7 -116.7 10.1 -152.2 43.75 -152.2 36.05 M-105.55 -9.1 L-96.45 -9.1 -105.55 -9.1 M147.9 367.5 L147.9 390.95 53.4 487.35 53.4 456.45 147.9 367.5 M147.9 446.8 L147.9 457.3 112.55 490.9 54.75 545.9 54.75 534.5 101.05 490.9 112.55 490.9 101.05 490.9 147.9 446.8" fill="#ffffff" fill-opacity="0.29803923" fill-rule="evenodd" stroke="none"/>
    <path d="M27.65 -644.8 L27.65 -626.15 -0.9 -604.25 -12.0 -604.25 -12.0 -612.35 -12.0 -604.25 -0.9 -604.25 -12.0 -595.75 -12.0 -604.25 -12.0 -595.75 -47.55 -568.5 -47.55 -583.3 -21.9 -604.25 -12.0 -612.35 27.65 -644.8 M27.65 -618.9 L27.65 -604.25 8.15 -604.25 27.65 -604.25 27.65 -543.35 -12.0 -543.35 -12.0 -589.15 -12.0 -543.35 -47.55 -543.35 -47.55 -562.45 -12.0 -589.15 8.15 -604.25 27.65 -618.9 M-12.0 -668.9 L27.65 -668.9 27.65 -658.55 -12.0 -625.8 -12.0 -668.9 -12.0 -625.8 -38.15 -604.25 -47.55 -596.5 -47.55 -604.25 -47.55 -668.9 -12.0 -668.9 M40.25 -271.45 L40.25 -281.3 40.25 -362.95 75.8 -362.95 115.45 -362.95 115.45 -349.85 75.8 -308.5 75.8 -362.95 75.8 -308.5 49.7 -281.3 40.25 -271.45 M115.45 -332.5 L115.45 -308.95 86.9 -281.3 75.8 -281.3 75.8 -291.5 75.8 -281.3 86.9 -281.3 75.8 -270.55 75.8 -281.3 65.9 -281.3 75.8 -281.3 75.8 -270.55 40.25 -236.15 40.25 -254.8 65.9 -281.3 75.8 -291.5 115.45 -332.5 M115.45 -299.8 L115.45 -281.3 115.45 -204.35 75.8 -204.35 40.25 -204.35 40.25 -228.5 75.8 -262.2 95.95 -281.3 115.45 -281.3 95.95 -281.3 115.45 -299.8 M40.25 -281.3 L49.7 -281.3 40.25 -281.3 M75.8 -262.2 L75.8 -204.35 75.8 -262.2 M75.8 -36.3 L49.7 -9.1 40.25 -9.1 49.7 -9.1 40.25 0.75 40.25 -9.1 40.25 -90.75 75.8 -90.75 75.8 -36.3 75.8 -90.75 115.45 -90.75 115.45 -77.65 75.8 -36.3 M65.95 -9.1 L75.8 -19.3 115.45 -60.25 115.45 -36.75 86.9 -9.1 75.8 -9.1 86.9 -9.1 75.8 1.65 40.25 36.05 40.25 17.4 65.95 -9.1 75.8 -9.1 75.8 -19.3 75.8 -9.1 65.95 -9.1 M96.0 -9.1 L115.45 -27.55 115.45 -9.1 96.0 -9.1 115.45 -9.1 115.45 67.85 75.8 67.85 75.8 10.05 75.8 67.85 40.25 67.85 40.25 43.75 75.8 10.05 96.0 -9.1 M-21.9 -604.25 L-12.0 -604.25 -21.9 -604.25 M-47.55 -604.25 L-38.15 -604.25 -47.55 -604.25 M-152.2 -271.45 L-152.2 -281.3 -152.2 -362.95 -116.7 -362.95 -77.0 -362.95 -77.0 -349.85 -116.7 -308.45 -116.7 -362.95 -116.7 -308.45 -142.75 -281.3 -152.2 -271.45 M-77.0 -332.5 L-77.0 -308.95 -105.55 -281.3 -116.7 -270.5 -116.7 -281.3 -126.55 -281.3 -116.7 -281.3 -116.7 -270.5 -152.2 -236.15 -152.2 -254.8 -126.55 -281.3 -116.7 -291.45 -116.7 -281.3 -105.55 -281.3 -116.7 -281.3 -116.7 -291.45 -77.0 -332.5 M-77.0 -299.8 L-77.0 -281.3 -77.0 -204.35 -116.7 -204.35 -152.2 -204.35 -152.2 -228.5 -116.7 -262.15 -96.5 -281.3 -77.0 -281.3 -96.5 -281.3 -77.0 -299.8 M-142.75 -281.3 L-152.2 -281.3 -142.75 -281.3 M-116.7 -204.35 L-116.7 -262.15 -116.7 -204.35 M-152.2 -9.1 L-142.75 -9.1 -152.2 -9.1 -152.2 -90.75 -116.7 -90.75 -116.7 -36.25 -116.7 -90.75 -77.0 -90.75 -77.0 -77.65 -116.7 -36.25 -142.75 -9.1 -152.2 0.75 -152.2 -9.1 M-116.7 -19.25 L-116.7 -9.1 -126.5 -9.1 -116.7 -9.1 -116.7 -19.25 -77.0 -60.25 -77.0 -36.75 -105.55 -9.1 -116.7 1.7 -152.2 36.05 -152.2 17.4 -126.5 -9.1 -116.7 -19.25 M-105.55 -9.1 L-116.7 -9.1 -116.7 1.7 -116.7 -9.1 -105.55 -9.1 M-116.7 10.1 L-96.45 -9.1 -77.0 -27.55 -77.0 -9.1 -96.45 -9.1 -77.0 -9.1 -77.0 67.85 -116.7 67.85 -152.2 67.85 -152.2 43.75 -116.7 10.1 -116.7 67.85 -116.7 10.1 M75.8 -9.1 L75.8 1.65 75.8 -9.1 M147.9 390.95 L147.9 446.8 101.05 490.9 54.75 534.5 54.75 545.9 112.55 490.9 147.9 457.3 147.9 490.9 147.9 644.1 53.4 644.1 53.4 490.9 53.4 487.35 147.9 390.95 M53.4 456.45 L53.4 335.55 147.9 335.55 147.9 367.5 53.4 456.45 M112.55 490.9 L147.9 490.9 112.55 490.9 M53.4 490.9 L101.05 490.9 53.4 490.9" fill="#ffffff" fill-opacity="0.0" fill-rule="evenodd" stroke="none"/>
    <path d="M27.65 -658.55 L27.65 -644.8 27.65 -626.15 27.65 -618.9 27.65 -604.25 28.4 -604.25 M-12.0 -668.9 L27.65 -668.9 27.65 -658.55 M-12.0 -625.8 L-12.0 -612.35 -12.0 -604.25 -0.9 -604.25 8.15 -604.25 27.65 -604.25 27.65 -543.35 -12.0 -543.35 -12.0 -542.85 M40.25 -271.45 L40.25 -281.3 40.25 -362.95 75.8 -362.95 115.45 -362.95 115.45 -349.85 115.45 -332.5 115.45 -308.95 115.45 -299.8 115.45 -281.3 115.45 -204.35 75.8 -204.35 40.25 -204.35 40.25 -228.5 40.25 -236.15 40.25 -254.8 40.25 -271.45 M49.7 -281.3 L40.25 -281.3 M75.8 -362.95 L75.8 -308.5 75.8 -291.5 75.8 -281.3 86.9 -281.3 95.95 -281.3 115.45 -281.3 M75.8 -270.55 L75.8 -281.3 65.9 -281.3 49.7 -281.3 M75.8 -262.2 L75.8 -270.55 M75.8 -204.35 L75.8 -262.2 M75.8 -19.3 L75.8 -36.3 75.8 -90.75 40.25 -90.75 40.25 -9.1 49.7 -9.1 65.95 -9.1 75.8 -9.1 75.8 -19.3 M115.45 -60.25 L115.45 -77.65 115.45 -90.75 75.8 -90.75 M40.25 0.75 L40.25 17.4 40.25 36.05 40.25 43.75 40.25 67.85 75.8 67.85 115.45 67.85 115.45 -9.1 115.45 -27.55 115.45 -36.75 115.45 -60.25 M86.9 -9.1 L96.0 -9.1 115.45 -9.1 M75.8 -9.1 L86.9 -9.1 M75.8 1.65 L75.8 10.05 75.8 67.85 M-12.0 -669.15 L-12.0 -668.9 -12.0 -625.8 M-38.15 -604.25 L-21.9 -604.25 -12.0 -604.25 -12.0 -595.75 -12.0 -589.15 -12.0 -543.35 -47.55 -543.35 -47.55 -562.45 -47.55 -568.5 -47.55 -583.3 -47.55 -596.5 -47.55 -604.25 -47.55 -668.9 -12.0 -668.9 M-38.15 -604.25 L-47.55 -604.25 M-152.2 -271.45 L-152.2 -281.3 -152.2 -362.95 -116.7 -362.95 -77.0 -362.95 -77.0 -349.85 -77.0 -332.5 -77.0 -308.95 -77.0 -299.8 -77.0 -281.3 -76.25 -281.3 M-116.7 -362.95 L-116.7 -308.45 -116.7 -291.45 -116.7 -281.3 -126.55 -281.3 -142.75 -281.3 -152.2 -281.3 M-116.7 -270.5 L-116.7 -262.15 -116.7 -204.35 -152.2 -204.35 -152.2 -228.5 -152.2 -236.15 -152.2 -254.8 -152.2 -271.45 M-96.5 -281.3 L-105.55 -281.3 -116.7 -281.3 -116.7 -270.5 M-77.0 -281.3 L-77.0 -204.35 -116.7 -204.35 M-77.0 -281.3 L-96.5 -281.3 M-142.75 -9.1 L-152.2 -9.1 -152.2 0.75 -152.2 17.4 -152.2 36.05 -152.2 43.75 -152.2 67.85 -116.7 67.85 -77.0 67.85 -77.0 -9.1 -76.25 -9.1 M-116.7 -36.25 L-116.7 -90.75 -152.2 -90.75 -152.2 -9.1 M-126.5 -9.1 L-142.75 -9.1 M-116.7 -19.25 L-116.7 -36.25 M-77.0 -77.65 L-77.0 -90.75 -116.7 -90.75 M-126.5 -9.1 L-116.7 -9.1 -116.7 -19.25 M-116.7 1.7 L-116.7 -9.1 -105.55 -9.1 -96.45 -9.1 -77.0 -9.1 -77.0 -27.55 -77.0 -36.75 -77.0 -60.25 -77.0 -77.65 M-116.7 1.7 L-116.7 10.1 -116.7 67.85 M75.8 1.65 L75.8 -9.1 M147.9 367.5 L147.9 390.95 147.9 446.8 147.9 457.3 147.9 490.9 147.9 644.1 53.4 644.1 53.4 490.9 53.4 487.35 53.4 456.45 53.4 335.55 147.9 335.55 147.9 367.5 M112.55 490.9 L101.05 490.9 53.4 490.9 M147.9 490.9 L112.55 490.9 M40.25 -9.1 L40.25 0.75" fill="none" stroke="#000000" stroke-linecap="round" stroke-linejoin="miter-clip" stroke-miterlimit="4.0" stroke-opacity="0.6" stroke-width="1.0"/>
  </g>
</svg>
