<?xml version="1.0" encoding="UTF-8" standalone="no"?>
<svg xmlns:xlink="http://www.w3.org/1999/xlink" height="58.3px" width="111.25px" xmlns="http://www.w3.org/2000/svg">
  <g transform="matrix(1.0, 0.0, 0.0, 1.0, 55.6, 29.15)">
    <path d="M7.2 -20.95 L6.65 -21.25 6.65 -27.05 Q6.1 -27.7 1.3 -28.1 L-2.2 -28.35 -5.35 -28.5 -4.85 -28.5 -2.2 -28.6 -0.75 -28.65 -0.2 -28.65 -0.05 -28.65 1.3 -28.65 10.0 -28.0 Q14.15 -27.35 14.15 -26.45 L14.15 -19.05 Q14.15 -19.95 10.0 -20.6 L7.2 -20.95" fill="#000000" fill-opacity="0.24705882" fill-rule="evenodd" stroke="none"/>
    <path d="M-5.35 -28.5 L-2.2 -28.35 1.3 -28.1 Q6.1 -27.7 6.65 -27.05 L6.65 -21.25 7.2 -20.95 1.3 -21.25 -0.05 -21.25 -2.2 -21.2 -6.35 -21.0 -6.95 -20.95 -10.1 -20.6 Q-14.25 -19.95 -14.25 -19.05 L-14.25 -26.45 Q-14.25 -27.35 -10.1 -28.0 L-9.85 -28.0 -6.95 -28.35 -6.35 -28.4 -5.4 -28.5 -5.35 -28.5 M7.65 -8.1 L7.65 -6.0 43.2 -6.0 43.2 -8.1 7.65 -8.1 M7.65 -3.5 L7.65 -1.45 43.2 -1.45 43.2 -3.5 7.65 -3.5 M45.85 -11.5 L45.85 9.6 46.9 2.9 Q48.15 -3.85 49.25 -4.15 L55.15 -3.5 55.15 13.35 55.05 13.55 54.95 13.7 54.4 14.3 52.9 15.3 49.5 16.4 49.3 16.45 46.45 16.9 46.15 16.95 45.85 16.95 38.45 17.2 -45.75 16.95 Q-52.45 16.25 -54.55 14.1 -52.45 16.25 -45.75 16.95 L38.45 17.2 45.85 16.95 46.15 16.95 46.45 16.9 49.3 16.45 49.5 16.4 52.9 15.3 53.75 14.85 54.15 14.85 51.9 17.0 51.15 17.7 50.8 18.05 50.75 18.1 50.45 18.35 Q45.4 19.75 38.45 19.45 L-43.05 19.4 Q-48.4 19.1 -51.55 18.0 L-51.95 17.5 -52.0 17.45 -52.85 16.3 -54.55 14.1 -55.1 13.35 -55.1 -6.0 -53.9 -7.2 Q-52.0 -8.4 -48.4 -8.7 L-47.9 -9.8 Q-47.15 -11.05 -45.75 -11.5 L-45.4 -11.5 -16.15 -11.5 17.15 -11.5 45.85 -11.5 M-45.4 -11.5 Q-46.75 -11.05 -47.55 -9.8 L-48.05 -8.7 Q-51.65 -8.4 -53.55 -7.2 L-54.7 -6.0 -54.7 -3.5 -48.8 -4.15 Q-47.65 -3.85 -46.4 2.9 L-45.4 9.6 -45.4 -11.5 M-40.0 -8.25 L-42.4 -6.55 -42.4 13.0 -4.05 13.0 -6.7 10.8 -40.0 10.8 -40.0 -8.25 M43.2 3.15 L43.2 1.1 7.65 1.1 7.65 3.15 43.2 3.15 M43.2 7.75 L43.2 5.65 7.65 5.65 7.65 7.75 43.2 7.75 M43.2 12.35 L43.2 10.25 7.65 10.25 7.65 12.35 43.2 12.35 M2.7 9.35 L2.7 -5.15 -2.6 -5.15 -2.6 9.35 2.7 9.35" fill="#ffffff" fill-opacity="0.0" fill-rule="evenodd" stroke="none"/>
    <path d="M-4.85 -28.5 L-5.35 -28.5 -5.4 -28.5 -5.65 -28.5 -4.85 -28.5 M13.8 -18.5 L14.15 -19.05 14.15 -18.5 13.8 -18.5" fill="#888888" fill-rule="evenodd" stroke="none"/>
    <path d="M7.2 -20.95 L10.0 -20.6 Q14.15 -19.95 14.15 -19.05 L13.8 -18.5 Q12.9 -17.9 10.0 -17.45 L7.85 -17.15 7.85 -18.75 Q7.85 -19.25 5.7 -19.6 L1.3 -19.95 0.4 -19.95 -2.2 -19.85 -4.85 -19.6 -6.35 -19.25 -6.95 -18.95 -7.05 -18.75 -7.05 -17.05 -10.1 -17.45 Q-14.25 -18.1 -14.25 -19.05 -14.25 -19.95 -10.1 -20.6 L-6.95 -20.95 -6.35 -21.0 -2.2 -21.2 -0.05 -21.25 1.3 -21.25 7.2 -20.95 M7.65 -3.5 L43.2 -3.5 43.2 -1.45 7.65 -1.45 7.65 -3.5 M7.65 -8.1 L43.2 -8.1 43.2 -6.0 7.65 -6.0 7.65 -8.1 M43.2 12.35 L7.65 12.35 7.65 10.25 43.2 10.25 43.2 12.35 M43.2 7.75 L7.65 7.75 7.65 5.65 43.2 5.65 43.2 7.75 M43.2 3.15 L7.65 3.15 7.65 1.1 43.2 1.1 43.2 3.15" fill="#000000" fill-opacity="0.4" fill-rule="evenodd" stroke="none"/>
    <path d="M-7.05 -17.05 L-7.05 -18.75 -6.95 -18.95 -6.35 -19.25 -4.85 -19.6 -2.2 -19.85 0.4 -19.95 1.3 -19.95 5.7 -19.6 Q7.85 -19.25 7.85 -18.75 L7.85 -17.15 7.85 -14.75 17.15 -14.75 17.15 -11.5 -16.15 -11.5 -16.15 -14.75 -6.95 -14.75 0.4 -14.75 -6.95 -14.9 -7.05 -14.9 -7.05 -17.05 M7.85 -14.75 L0.4 -14.75 7.85 -14.75" fill="#ffffff" fill-opacity="0.09803922" fill-rule="evenodd" stroke="none"/>
    <path d="M55.15 -3.5 L49.25 -4.15 Q48.15 -3.85 46.9 2.9 L45.85 9.6 45.85 -11.5 Q47.25 -11.05 48.0 -9.8 L48.5 -8.7 Q52.15 -8.4 54.0 -7.2 L55.15 -6.0 55.15 -3.5 M-45.4 -11.5 L-45.4 9.6 -46.4 2.9 Q-47.65 -3.85 -48.8 -4.15 L-54.7 -3.5 -54.7 -6.0 -53.55 -7.2 Q-51.65 -8.4 -48.05 -8.7 L-47.55 -9.8 Q-46.75 -11.05 -45.4 -11.5 M-40.0 -8.25 L-40.0 10.8 -6.7 10.8 -4.05 13.0 -42.4 13.0 -42.4 -6.55 -40.0 -8.25 M-51.95 17.5 L-51.55 18.0 Q-48.4 19.1 -43.05 19.4 L38.45 19.45 Q45.4 19.75 50.45 18.35 L50.75 18.1 50.1 18.75 43.8 24.75 Q42.5 27.55 36.15 28.35 L30.1 28.6 -38.9 28.35 Q-45.2 27.55 -46.5 24.75 L-46.5 24.7 -51.95 17.5 M2.7 9.35 L-2.6 9.35 -2.6 -5.15 2.7 -5.15 2.7 9.35" fill="#000000" fill-opacity="0.2" fill-rule="evenodd" stroke="none"/>
    <path d="M-52.85 16.3 L-52.0 17.45 -52.45 16.85 -52.85 16.3" fill="#b2b2b2" fill-rule="evenodd" stroke="none"/>
    <path d="M52.9 15.3 L54.4 14.3 53.75 14.85 52.9 15.3" fill="#bbbbbb" fill-rule="evenodd" stroke="none"/>
    <path d="M14.15 -19.05 L14.15 -26.45 Q14.15 -27.35 10.0 -28.0 L1.3 -28.65 -0.05 -28.65 -0.2 -28.65 -0.75 -28.65 -2.2 -28.6 -4.85 -28.5 -5.35 -28.5 -5.4 -28.5 -6.35 -28.4 -6.95 -28.35 -9.85 -28.0 -10.1 -28.0 Q-14.25 -27.35 -14.25 -26.45 L-14.25 -19.05 Q-14.25 -18.1 -10.1 -17.45 L-7.05 -17.05 -7.05 -14.9 -6.95 -14.9 M14.15 -19.05 L13.8 -18.5 14.15 -18.5 14.15 -19.05 M7.85 -14.75 L7.85 -17.15 10.0 -17.45 Q12.9 -17.9 13.8 -18.5 M17.15 -11.5 L17.15 -14.75 7.85 -14.75 M-16.15 -11.5 L-16.15 -14.75 -6.95 -14.75" fill="none" stroke="#000000" stroke-linecap="round" stroke-linejoin="miter-clip" stroke-miterlimit="4.0" stroke-width="1.0"/>
    <path d="M7.2 -20.95 L10.0 -20.6 Q14.15 -19.95 14.15 -19.05 M-14.25 -19.05 Q-14.25 -19.95 -10.1 -20.6 L-6.95 -20.95 -6.35 -21.0 -2.2 -21.2 -0.05 -21.25 1.3 -21.25 7.2 -20.95 M7.85 -17.15 L7.85 -18.75 Q7.85 -19.25 5.7 -19.6 L1.3 -19.95 0.4 -19.95 -2.2 -19.85 -4.85 -19.6 -6.35 -19.25 -6.95 -18.95 -7.05 -18.75 -7.05 -17.05 M-6.95 -14.9 L0.4 -14.75 7.85 -14.75 M-6.95 -14.75 L0.4 -14.75" fill="none" stroke="#000000" stroke-linecap="round" stroke-linejoin="miter-clip" stroke-miterlimit="4.0" stroke-opacity="0.6" stroke-width="1.0"/>
    <path d="M55.15 -3.5 L55.15 -6.0 54.0 -7.2 Q52.15 -8.4 48.5 -8.7 L48.0 -9.8 Q47.25 -11.05 45.85 -11.5 L17.15 -11.5 M-16.15 -11.5 L-45.4 -11.5 -45.75 -11.5 Q-47.15 -11.05 -47.9 -9.8 L-48.4 -8.7 Q-52.0 -8.4 -53.9 -7.2 L-55.1 -6.0 -55.1 13.35 -54.55 14.1 -52.85 16.3 -52.0 17.45 -51.95 17.5 -46.5 24.7 -46.5 24.75 Q-45.2 27.55 -38.9 28.35 L30.1 28.6 36.15 28.35 Q42.5 27.55 43.8 24.75 L50.1 18.75 50.75 18.1 50.8 18.05 51.15 17.7 51.9 17.0 54.15 14.85 53.75 14.85 52.9 15.3 54.4 14.3 54.95 13.7 55.05 13.55 55.15 13.35 55.15 -3.5 M-52.0 17.45 L-52.45 16.85 -52.85 16.3 M54.4 14.3 L53.75 14.85 M51.9 17.0 L50.1 18.75" fill="none" stroke="#000000" stroke-linecap="round" stroke-linejoin="round" stroke-width="1.0"/>
    <path d="M17.15 -11.5 L-16.15 -11.5 M-54.55 14.1 Q-52.45 16.25 -45.75 16.95 L38.45 17.2 45.85 16.95 46.15 16.95 46.45 16.9 49.3 16.45 49.5 16.4 52.9 15.3" fill="none" stroke="#000000" stroke-linecap="round" stroke-linejoin="round" stroke-opacity="0.6" stroke-width="1.0"/>
  </g>
</svg>
