<?xml version="1.0" encoding="UTF-8" standalone="no"?>
<svg xmlns:xlink="http://www.w3.org/1999/xlink" height="186.8px" width="692.3px" xmlns="http://www.w3.org/2000/svg">
  <g transform="matrix(1.0, 0.0, 0.0, 1.0, 346.15, 93.35)">
    <path d="M133.2 -51.45 L133.2 -51.8 -126.85 -51.8 -282.7 -32.5 -312.05 -28.9 -345.65 -66.15 -4.75 -92.85 345.65 -55.65 336.85 -17.45 336.55 -17.5 335.5 -17.65 255.15 -30.9 250.9 -36.4 132.05 -58.75 -127.9 -57.15 -256.8 -40.4 -256.8 -36.4 -126.85 -54.2 133.2 -54.2 251.95 -31.4 133.2 -51.45" fill="#000000" fill-opacity="0.047058824" fill-rule="evenodd" stroke="none"/>
    <path d="M251.95 -31.4 L133.2 -54.2 -126.85 -54.2 -256.8 -36.4 -256.8 -40.4 -127.9 -57.15 132.05 -58.75 250.9 -36.4 255.15 -30.9 251.95 -31.4" fill="#ffffff" fill-opacity="0.2" fill-rule="evenodd" stroke="none"/>
    <path d="M133.2 -51.45 L251.95 -31.4 255.2 -30.8 255.15 -30.9 335.5 -17.65 336.05 -17.55 342.35 92.85 133.2 48.45 133.2 -51.45 M-282.7 -32.5 L-126.85 -51.8 -126.8 -35.7 -126.85 48.45 -279.15 78.55 -282.7 -32.5 M-199.8 -4.95 L-199.8 -30.35 -253.5 -23.15 -253.7 4.2 -253.95 36.25 -254.2 63.5 -199.8 52.05 -199.8 26.0 -199.8 -4.95 M-189.05 -31.5 L-189.25 -6.4 -189.5 23.7 -189.75 49.9 -135.35 39.1 -135.35 12.65 -135.35 -15.65 -135.35 -38.2 -189.05 -31.5" fill="#000000" fill-opacity="0.24705882" fill-rule="evenodd" stroke="none"/>
    <path d="M44.4 -39.65 L123.9 -39.65 123.9 -15.3 123.9 41.3 44.4 41.3 44.4 -15.25 44.4 -39.65 M123.9 -15.3 L44.4 -15.25 123.9 -15.3 M-199.8 -4.95 L-199.8 26.0 -199.8 52.05 -254.2 63.5 -253.95 36.25 -253.7 4.2 -253.5 -23.15 -199.8 -30.35 -199.8 -4.95 -253.7 4.2 -199.8 -4.95 M-189.05 -31.5 L-135.35 -38.2 -135.35 -15.65 -135.35 12.65 -135.35 39.1 -189.75 49.9 -189.5 23.7 -189.25 -6.4 -189.05 -31.5 M-135.35 12.65 L-189.5 23.7 -135.35 12.65 M-199.8 26.0 L-253.95 36.25 -199.8 26.0 M-135.35 -15.65 L-189.25 -6.4 -135.35 -15.65" fill="#000000" fill-opacity="0.14901961" fill-rule="evenodd" stroke="none"/>
    <path d="M44.4 -39.65 L44.4 -15.25 44.4 41.3 123.9 41.3 123.9 -15.3 123.9 -39.65 44.4 -39.65 M-126.85 -51.8 L133.2 -51.8 133.2 -51.45 133.2 48.45 133.2 49.15 28.65 49.15 28.65 -33.1 -126.75 -33.1 -126.8 -35.7 -126.85 -51.8" fill="#ffffff" fill-opacity="0.0" fill-rule="evenodd" stroke="none"/>
    <path d="M251.95 -31.4 L255.15 -30.9 255.2 -30.8 251.95 -31.4" fill="#ffffff" fill-rule="evenodd" stroke="none"/>
    <path d="M335.5 -17.65 L336.55 -17.5 336.05 -17.55 335.5 -17.65" fill="#d3d3d3" fill-rule="evenodd" stroke="none"/>
    <path d="M-126.85 -51.8 L133.2 -51.8 133.2 -51.45 251.95 -31.4 255.15 -30.9 335.5 -17.65 336.55 -17.5 336.85 -17.45 345.65 -55.65 M-345.65 -66.15 L-312.05 -28.9 -282.7 -32.5 -126.85 -51.8 -126.8 -35.7 -126.75 -33.1 28.65 -33.1 28.65 49.15 133.2 49.15 133.2 48.45 133.2 -51.45 M336.05 -17.55 L335.5 -17.65 M336.55 -17.5 L336.05 -17.55 342.35 92.85 133.2 48.45 M-199.8 -4.95 L-199.8 26.0 -199.8 52.05 -254.2 63.5 -253.95 36.25 -253.7 4.2 -253.5 -23.15 -199.8 -30.35 -199.8 -4.95 M-189.05 -31.5 L-135.35 -38.2 -135.35 -15.65 -135.35 12.65 -135.35 39.1 -189.75 49.9 -189.5 23.7 -189.25 -6.4 -189.05 -31.5 M-126.8 -35.7 L-126.85 48.45 -279.15 78.55 -282.7 -32.5" fill="none" stroke="#000000" stroke-linecap="round" stroke-linejoin="miter-clip" stroke-miterlimit="4.0" stroke-width="1.0"/>
    <path d="M44.4 -15.25 L123.9 -15.3 M-199.8 -4.95 L-253.7 4.2 M-189.25 -6.4 L-135.35 -15.65 M-253.95 36.25 L-199.8 26.0 M-189.5 23.7 L-135.35 12.65" fill="none" stroke="#000000" stroke-linecap="round" stroke-linejoin="round" stroke-opacity="0.6" stroke-width="1.0"/>
    <path d="M345.65 -55.65 L-4.75 -92.85 -345.65 -66.15" fill="none" stroke="#000000" stroke-linecap="round" stroke-linejoin="miter-clip" stroke-miterlimit="4.0" stroke-opacity="0.6" stroke-width="1.0"/>
    <path d="M44.4 -39.65 L123.9 -39.65 123.9 -15.3 123.9 41.3 44.4 41.3 44.4 -15.25 44.4 -39.65" fill="none" stroke="#000000" stroke-linecap="round" stroke-linejoin="round" stroke-width="1.0"/>
  </g>
</svg>
