<?xml version="1.0" encoding="UTF-8" standalone="no"?>
<svg xmlns:xlink="http://www.w3.org/1999/xlink" height="240.55px" width="97.3px" xmlns="http://www.w3.org/2000/svg">
  <g transform="matrix(1.0, 0.0, 0.0, 1.0, 48.65, 120.25)">
    <path d="M3.3 -99.15 L9.7 -99.15 15.45 -17.1 8.9 -17.85 Q4.85 -71.6 3.5 -92.8 L3.3 -99.15 M-10.2 -99.2 L-3.85 -99.15 -1.15 -63.1 1.95 -18.5 -4.6 -19.25 -10.0 -92.4 -10.2 -99.2 M-39.0 -99.5 L-32.25 -99.25 Q-27.75 -41.85 -26.4 -21.5 L-32.95 -22.2 -38.35 -91.75 -39.0 -99.5 M-24.6 -99.3 L-17.7 -99.25 -12.45 -19.4 -19.0 -20.15 -24.4 -92.8 -24.6 -99.3 M15.95 -99.2 L22.35 -99.25 28.05 -15.3 21.5 -16.05 Q17.45 -71.25 16.1 -93.0 L15.95 -99.2" fill="#000000" fill-opacity="0.29803923" fill-rule="evenodd" stroke="none"/>
    <path d="M3.3 -99.15 L3.5 -92.8 Q4.85 -71.6 8.9 -17.85 L15.45 -17.1 9.7 -99.15 3.3 -99.15 M-38.4 -115.55 L-37.05 -115.75 -8.5 -117.4 Q13.1 -118.15 20.75 -117.85 L26.7 -117.35 Q28.95 -116.75 30.15 -114.6 31.45 -112.3 32.65 -107.6 33.75 -103.4 34.1 -100.3 L36.35 -79.65 Q38.4 -59.5 39.55 -42.2 41.85 -8.55 42.2 21.65 42.45 48.2 42.2 72.2 41.75 119.6 39.5 119.8 L31.4 119.8 Q33.95 96.35 34.35 61.6 L34.4 37.95 Q34.2 20.0 33.5 1.9 L32.0 1.85 -3.1 -1.35 -22.4 -3.2 -27.35 -3.45 -27.95 -3.5 -32.7 -3.5 -33.3 -3.45 Q-32.65 12.5 -32.45 28.15 -32.05 56.9 -33.1 84.65 -33.9 106.1 -35.1 118.45 L-43.2 118.45 Q-39.35 81.1 -40.25 28.15 L-40.7 9.3 -41.15 -3.5 Q-42.45 -34.95 -45.25 -69.6 L-46.4 -84.45 -47.7 -99.3 Q-48.25 -104.45 -48.1 -106.8 -47.9 -110.1 -46.45 -111.9 -44.4 -114.6 -38.4 -115.55 M15.95 -99.2 L16.1 -93.0 Q17.45 -71.25 21.5 -16.05 L28.05 -15.3 22.35 -99.25 15.95 -99.2 M-24.6 -99.3 L-24.4 -92.8 -19.0 -20.15 -12.45 -19.4 -17.7 -99.25 -24.6 -99.3 M-39.0 -99.5 L-38.35 -91.75 -32.95 -22.2 -26.4 -21.5 Q-27.75 -41.85 -32.25 -99.25 L-39.0 -99.5 M-10.2 -99.2 L-10.0 -92.4 -4.6 -19.25 1.95 -18.5 -1.15 -63.1 -3.85 -99.15 -10.2 -99.2" fill="#ffffff" fill-opacity="0.0" fill-rule="evenodd" stroke="none"/>
    <path d="M-38.4 -115.55 Q-35.85 -117.05 -31.2 -117.6 L-2.65 -119.2 Q19.05 -119.95 26.6 -119.65 L32.55 -119.15 Q34.8 -118.55 36.0 -116.4 37.3 -114.1 38.5 -109.4 39.6 -105.25 39.95 -102.15 L42.2 -81.5 Q44.25 -61.1 45.4 -44.05 47.7 -10.4 48.05 19.85 48.3 46.85 48.05 71.3 47.6 119.6 45.35 119.8 L39.5 119.8 Q41.75 119.6 42.2 72.2 42.45 48.2 42.2 21.65 41.85 -8.55 39.55 -42.2 38.4 -59.5 36.35 -79.65 L34.1 -100.3 Q33.75 -103.4 32.65 -107.6 31.45 -112.3 30.15 -114.6 28.95 -116.75 26.7 -117.35 L20.75 -117.85 Q13.1 -118.15 -8.5 -117.4 L-37.05 -115.75 -38.4 -115.55 M-27.35 -3.45 Q-26.75 12.45 -26.55 28.15 -26.25 56.25 -27.25 83.75 -28.05 105.65 -29.25 118.45 L-35.1 118.45 Q-33.9 106.1 -33.1 84.65 -32.05 56.9 -32.45 28.15 -32.65 12.5 -33.3 -3.45 L-32.7 -3.5 -27.95 -3.5 -27.35 -3.45" fill="#000000" fill-opacity="0.44705883" fill-rule="evenodd" stroke="none"/>
    <path d="M3.3 -99.15 L3.5 -92.8 Q4.85 -71.6 8.9 -17.85 L15.45 -17.1 9.7 -99.15 3.3 -99.15 M15.95 -99.2 L16.1 -93.0 Q17.45 -71.25 21.5 -16.05 L28.05 -15.3 22.35 -99.25 15.95 -99.2 M-24.6 -99.3 L-24.4 -92.8 -19.0 -20.15 -12.45 -19.4 -17.7 -99.25 -24.6 -99.3 M-39.0 -99.5 L-38.35 -91.75 -32.95 -22.2 -26.4 -21.5 Q-27.75 -41.85 -32.25 -99.25 L-39.0 -99.5 M-10.2 -99.2 L-10.0 -92.4 -4.6 -19.25 1.95 -18.5 -1.15 -63.1 -3.85 -99.15 -10.2 -99.2" fill="none" stroke="#000000" stroke-linecap="butt" stroke-linejoin="miter-clip" stroke-miterlimit="4.0" stroke-opacity="0.6" stroke-width="1.0"/>
    <path d="M39.5 119.8 L45.35 119.8 Q47.6 119.6 48.05 71.3 48.3 46.85 48.05 19.85 47.7 -10.4 45.4 -44.05 44.25 -61.1 42.2 -81.5 L39.95 -102.15 Q39.6 -105.25 38.5 -109.4 37.3 -114.1 36.0 -116.4 34.8 -118.55 32.55 -119.15 L26.6 -119.65 Q19.05 -119.95 -2.65 -119.2 L-31.2 -117.6 Q-35.85 -117.05 -38.4 -115.55 -44.4 -114.6 -46.45 -111.9 -47.9 -110.1 -48.1 -106.8 -48.25 -104.45 -47.7 -99.3 L-46.4 -84.45 -45.25 -69.6 Q-42.45 -34.95 -41.15 -3.5 L-40.7 9.3 -40.25 28.15 Q-39.35 81.1 -43.2 118.45 L-35.1 118.45 -29.25 118.45 Q-28.05 105.65 -27.25 83.75 -26.25 56.25 -26.55 28.15 M39.5 119.8 L31.4 119.8 Q33.95 96.35 34.35 61.6 L34.4 37.95" fill="none" stroke="#000000" stroke-linecap="round" stroke-linejoin="round" stroke-width="1.0"/>
    <path d="M-38.4 -115.55 L-37.05 -115.75 -8.5 -117.4 Q13.1 -118.15 20.75 -117.85 L26.7 -117.35 Q28.95 -116.75 30.15 -114.6 31.45 -112.3 32.65 -107.6 33.75 -103.4 34.1 -100.3 L36.35 -79.65 Q38.4 -59.5 39.55 -42.2 41.85 -8.55 42.2 21.65 42.45 48.2 42.2 72.2 41.75 119.6 39.5 119.8 M34.4 37.95 Q34.2 20.0 33.5 1.9 L32.0 1.85 -3.1 -1.35 -22.4 -3.2 -27.35 -3.45 Q-26.75 12.45 -26.55 28.15 M-35.1 118.45 Q-33.9 106.1 -33.1 84.65 -32.05 56.9 -32.45 28.15 -32.65 12.5 -33.3 -3.45 L-32.7 -3.5 -27.95 -3.5 -27.35 -3.45" fill="none" stroke="#000000" stroke-linecap="round" stroke-linejoin="round" stroke-opacity="0.6" stroke-width="1.0"/>
  </g>
</svg>
