<?xml version="1.0" encoding="UTF-8" standalone="no"?>
<svg xmlns:xlink="http://www.w3.org/1999/xlink" height="20.8px" width="23.45px" xmlns="http://www.w3.org/2000/svg">
  <g transform="matrix(1.0, 0.0, 0.0, 1.0, 0.0, 0.0)">
    <path d="M22.25 2.2 L18.65 5.8 18.1 5.2 17.95 5.25 17.65 5.6 17.35 5.2 17.65 4.95 17.75 4.7 17.95 4.55 18.2 4.65 18.3 4.9 18.3 5.0 18.6 5.3 23.05 1.25 Q23.4 0.9 23.45 0.95 L23.15 1.3 22.5 2.0 Q22.25 1.8 22.25 2.2 M15.1 7.5 L15.4 7.2 15.35 7.05 15.45 6.85 15.8 6.7 15.8 6.75 16.4 6.15 16.7 6.55 16.15 7.1 16.0 7.4 15.75 7.55 15.7 7.55 15.35 7.9 15.1 7.5 M17.3 12.35 L18.2 11.85 18.15 12.0 18.15 12.2 17.3 12.8 17.3 12.55 17.3 12.35 M16.15 15.05 L16.8 15.7 16.65 15.9 15.8 15.05 15.95 15.05 16.15 15.05 M14.4 15.0 L14.35 15.05 13.95 15.35 12.1 16.95 14.95 19.9 14.7 20.15 11.75 17.3 8.65 20.25 8.5 20.45 8.25 20.65 8.15 20.8 8.1 20.8 7.85 20.6 8.05 20.4 8.5 19.9 11.4 16.95 9.5 15.35 9.8 15.3 10.2 15.25 11.75 16.65 13.6 15.0 14.1 15.0 14.4 15.0 M7.75 15.0 L6.6 16.1 7.0 16.55 7.15 16.8 6.05 18.65 5.85 18.25 5.35 17.95 5.7 17.6 5.75 17.25 5.6 16.95 5.9 16.75 6.0 16.4 7.6 14.8 7.75 15.0 M7.35 13.65 Q5.55 12.25 3.95 11.35 L3.35 11.0 Q5.3 11.7 7.55 13.2 L7.4 13.45 7.35 13.65 M6.55 6.3 L5.5 5.25 5.4 5.2 4.8 5.8 0.3 1.3 0.0 0.95 0.4 1.25 4.85 5.3 5.2 4.95 5.3 4.65 5.5 4.55 5.7 4.7 5.85 4.9 6.6 5.65 Q6.5 5.95 6.55 6.3 M19.7 11.25 L19.7 11.15 20.1 11.0 19.7 11.25 M16.5 16.55 L16.4 16.65 16.45 16.65 17.15 16.1 16.75 16.7 17.3 16.4 16.75 17.5 16.3 16.8 16.15 16.85 16.55 16.5 16.5 16.55" fill="#000000" fill-opacity="0.44705883" fill-rule="evenodd" stroke="none"/>
    <path d="M20.8 18.8 L20.95 18.55 20.95 18.6 20.8 18.8 M2.5 18.6 L2.55 18.55 2.65 18.8 2.5 18.6" fill="#3c944c" fill-rule="evenodd" stroke="none"/>
    <path d="M11.2 0.3 L11.05 0.15 Q11.05 0.0 11.2 0.0 L11.35 0.15 11.2 0.3" fill="#ffffff" fill-opacity="0.0" fill-rule="evenodd" stroke="none"/>
    <path d="M13.85 4.7 L13.85 4.65 13.9 4.7 13.85 4.7" fill="#eb3643" fill-rule="evenodd" stroke="none"/>
    <path d="M8.3 4.35 L11.3 4.7 12.85 4.75 13.55 4.75 13.85 4.7 13.9 4.7 14.0 4.7 14.2 4.7 14.55 4.8 14.95 5.0 15.15 5.5 15.15 5.75 15.0 6.25 Q14.8 6.6 14.4 6.6 L15.1 7.5 15.35 7.9 Q16.6 9.65 17.05 11.05 L17.3 12.35 17.3 12.55 17.3 12.8 17.1 14.2 16.7 14.8 16.15 15.05 15.95 15.05 15.8 15.05 14.4 15.0 14.1 15.0 13.6 15.0 12.6 15.05 10.2 15.25 9.8 15.3 9.5 15.35 9.45 15.35 8.9 15.4 9.25 15.35 8.85 15.35 8.6 15.25 8.0 14.75 Q8.15 15.05 8.9 15.05 L9.15 15.05 9.4 15.0 9.65 14.85 9.7 14.85 10.3 14.05 10.35 13.8 10.1 12.6 10.0 12.4 8.75 10.4 7.6 8.2 7.15 6.9 7.05 6.15 7.05 6.1 Q7.0 5.5 7.3 5.1 7.6 4.75 8.0 4.9 7.65 4.85 7.45 5.25 7.3 5.5 7.3 5.85 L7.6 6.5 Q7.95 6.85 8.45 6.8 L11.7 6.6 14.1 6.6 11.45 6.5 9.2 6.6 Q7.65 6.8 7.6 5.95 7.85 6.35 8.3 6.3 8.8 6.2 8.9 5.55 9.05 5.05 8.8 4.7 L8.3 4.35 M7.8 5.75 L7.8 5.45 8.1 5.75 7.8 5.75 M8.35 5.95 L8.35 5.5 8.0 5.05 8.55 5.1 Q8.9 5.7 8.35 5.95 M9.3 13.25 L9.15 13.25 8.25 13.35 8.05 13.6 7.95 13.7 7.9 13.8 7.85 14.0 7.8 14.1 7.85 14.5 7.85 14.55 Q7.6 14.15 7.65 13.85 L7.7 13.65 7.7 13.55 7.8 13.4 8.3 12.95 Q9.0 12.7 9.25 13.1 L9.3 13.25 M9.25 13.45 L9.35 13.45 9.35 14.3 9.05 14.3 9.0 14.05 8.9 13.8 8.75 13.7 8.7 13.7 8.3 13.75 8.15 13.85 8.25 13.7 Q8.4 13.5 8.9 13.45 L9.25 13.45 M9.75 12.95 L9.8 12.95 9.85 13.9 9.45 14.65 9.7 13.6 9.6 13.15 9.45 12.95 9.25 12.8 9.75 12.95 M8.85 14.2 L9.25 14.5 8.95 14.6 8.65 14.55 Q8.4 14.45 8.45 14.2 L8.5 13.95 8.55 13.95 8.75 13.95 8.85 14.15 8.85 14.2" fill="#000000" fill-opacity="0.2" fill-rule="evenodd" stroke="none"/>
    <path d="M8.9 15.4 L8.75 15.4 8.1 15.25 7.75 15.0 7.6 14.8 7.5 14.55 7.5 14.45 7.45 14.4 7.45 14.3 7.4 14.2 7.4 14.1 7.35 13.8 7.35 13.65 7.4 13.45 7.55 13.2 8.05 12.75 9.7 12.7 8.15 10.1 Q7.2 8.6 6.7 7.05 L6.55 6.3 Q6.5 5.95 6.6 5.65 6.65 5.25 6.85 4.95 7.4 4.15 8.25 4.35 L8.3 4.35 8.8 4.7 Q9.05 5.05 8.9 5.55 8.8 6.2 8.3 6.3 7.85 6.35 7.6 5.95 7.65 6.8 9.2 6.6 L11.45 6.5 14.1 6.6 11.7 6.6 8.45 6.8 Q7.95 6.85 7.6 6.5 L7.3 5.85 Q7.3 5.5 7.45 5.25 7.65 4.85 8.0 4.9 7.6 4.75 7.3 5.1 7.0 5.5 7.05 6.1 L7.05 6.15 7.15 6.9 7.6 8.2 8.75 10.4 10.0 12.4 10.1 12.6 10.35 13.8 10.3 14.05 9.7 14.85 9.65 14.85 9.4 15.0 9.15 15.05 8.9 15.05 Q8.15 15.05 8.0 14.75 L8.6 15.25 8.85 15.35 9.25 15.35 8.9 15.4 M8.35 5.95 Q8.9 5.7 8.55 5.1 L8.0 5.05 8.35 5.5 8.35 5.95 M7.8 5.75 L8.1 5.75 7.8 5.45 7.8 5.75 M9.75 12.95 L9.25 12.8 9.45 12.95 9.6 13.15 9.7 13.6 9.45 14.65 9.85 13.9 9.8 12.95 9.75 12.95 M9.25 13.45 L8.9 13.45 Q8.4 13.5 8.25 13.7 L8.15 13.85 8.3 13.75 8.7 13.7 8.75 13.7 8.9 13.8 9.0 14.05 9.05 14.3 9.35 14.3 9.35 13.45 9.25 13.45 M9.3 13.25 L9.25 13.1 Q9.0 12.7 8.3 12.95 L7.8 13.4 7.7 13.55 7.7 13.65 7.65 13.85 Q7.6 14.15 7.85 14.55 L7.85 14.5 7.8 14.1 7.85 14.0 7.9 13.8 7.95 13.7 8.05 13.6 8.25 13.35 9.15 13.25 9.3 13.25 M8.85 14.2 L8.85 14.15 8.75 13.95 8.55 13.95 8.5 13.95 8.45 14.2 Q8.4 14.45 8.65 14.55 L8.95 14.6 9.25 14.5 8.85 14.2" fill="#000000" fill-opacity="0.64705884" fill-rule="evenodd" stroke="none"/>
  </g>
</svg>
