<?xml version="1.0" encoding="UTF-8" standalone="no"?>
<svg xmlns:xlink="http://www.w3.org/1999/xlink" height="128.05px" width="209.1px" xmlns="http://www.w3.org/2000/svg">
  <g transform="matrix(1.0, 0.0, 0.0, 1.0, 105.15, 64.55)">
    <path d="M-6.1 3.95 Q-5.65 1.8 -3.95 -1.7 -2.05 -5.65 -1.7 -7.85 -0.7 -14.5 -2.25 -22.75 -2.85 -25.8 -4.8 -29.3 L-8.4 -35.3 Q-9.95 -38.0 -9.3 -40.75 -8.7 -43.3 -6.3 -45.55 -4.05 -47.65 -0.8 -48.2 L5.25 -48.95 Q4.6 -48.85 3.85 -48.2 L2.75 -47.35 3.9 -47.55 5.15 -47.8 4.9 -47.05 6.5 -47.5 6.55 -46.4 6.65 -45.35 9.55 -45.45 Q11.1 -45.2 12.1 -44.05 9.1 -43.5 8.6 -42.0 L9.8 -42.4 11.0 -42.7 10.5 -41.8 10.0 -40.85 11.0 -41.3 10.6 -40.2 10.3 -39.1 11.35 -39.3 Q11.2 -37.75 10.65 -36.2 L11.45 -36.7 12.2 -37.05 12.1 -35.4 11.65 -33.8 Q14.15 -35.7 16.1 -35.7 L13.6 -32.95 Q14.95 -33.6 15.6 -34.15 L13.95 -31.25 Q13.05 -29.35 13.15 -28.05 13.9 -28.2 15.35 -29.05 16.7 -29.85 17.5 -29.95 L16.45 -28.2 Q15.85 -27.2 15.7 -26.45 L17.0 -27.05 Q16.05 -25.2 15.9 -24.45 L16.9 -24.8 Q17.55 -25.05 17.8 -25.2 L15.5 -22.4 19.0 -22.25 Q16.5 -19.95 15.95 -19.3 L16.4 -19.2 14.9 -17.4 Q14.0 -16.4 13.65 -15.55 15.0 -15.9 16.8 -17.15 L15.05 -15.4 13.4 -13.6 15.3 -14.35 17.25 -14.95 15.2 -12.9 13.2 -10.75 14.9 -11.4 16.65 -11.8 14.45 -10.0 Q13.1 -8.9 12.55 -7.95 L14.65 -8.35 16.7 -8.7 Q12.95 -6.25 10.85 -4.0 L12.5 -4.15 Q11.95 -3.25 10.45 -2.05 L8.3 -0.1 9.65 -0.5 Q8.95 0.8 6.2 3.0 L4.85 4.1 Q2.65 5.7 0.5 6.85 -7.2 10.8 -6.25 4.55 L-6.1 3.95 M35.35 10.4 L35.6 10.35 36.15 10.15 36.3 10.05 36.35 10.05 37.65 9.45 41.45 7.3 Q39.7 12.95 39.4 18.7 L38.7 28.05 Q38.3 33.8 38.85 37.5 39.25 39.8 42.85 45.55 45.95 50.4 45.25 53.5 L41.1 54.3 40.25 54.5 37.8 55.0 36.9 53.25 33.2 50.85 Q32.15 50.1 31.45 48.65 L31.35 47.1 31.05 36.7 31.0 33.15 31.65 26.5 Q32.0 18.3 35.35 10.4 M-32.3 12.1 Q-38.65 17.25 -42.25 18.85 -45.9 20.55 -44.7 31.7 -44.05 37.25 -42.75 42.5 L-39.6 42.55 Q-36.25 42.95 -35.25 44.65 -34.25 46.3 -34.4 48.6 L-34.7 50.55 -38.9 50.2 -48.1 49.45 -50.75 42.1 Q-53.55 33.55 -54.55 27.45 L-56.85 11.75 Q-55.75 11.2 -54.75 10.65 L-54.1 10.3 -52.35 9.2 -51.15 8.4 -50.15 7.6 Q-46.75 4.8 -46.0 1.4 -42.85 8.65 -32.3 12.1 M-22.65 4.9 L-22.6 6.1 Q-22.75 12.35 -29.6 7.15 -32.2 5.2 -34.65 2.4 -36.95 -0.25 -37.4 -1.65 L-37.1 -1.5 -36.1 -1.0 -37.9 -3.3 Q-39.2 -4.8 -39.55 -5.75 L-37.95 -5.25 Q-39.6 -7.9 -42.9 -10.9 -41.6 -10.6 -38.95 -9.5 -39.3 -10.5 -40.45 -11.8 L-42.35 -14.0 Q-41.65 -13.85 -40.65 -13.3 L-39.05 -12.35 -40.7 -14.8 -42.35 -17.2 Q-41.65 -16.95 -40.6 -16.3 L-38.8 -15.2 -40.1 -17.25 -41.55 -19.3 Q-39.95 -17.75 -38.7 -17.15 -38.9 -18.05 -39.6 -19.25 L-40.8 -21.25 -40.3 -21.25 -42.85 -24.75 Q-41.6 -25.15 -39.3 -24.2 -39.75 -25.3 -41.15 -27.4 L-39.4 -26.3 -40.05 -29.05 -38.85 -28.2 Q-38.9 -29.05 -39.25 -30.15 L-40.05 -32.05 Q-39.25 -31.8 -38.05 -30.75 L-36.05 -29.35 Q-35.75 -30.65 -36.3 -32.65 L-37.45 -35.85 -35.7 -34.25 Q-36.4 -35.85 -37.65 -37.45 -35.75 -37.1 -33.55 -34.75 -33.8 -37.25 -33.55 -38.1 L-32.9 -37.55 -32.15 -36.95 -32.35 -40.15 -31.3 -39.8 -31.45 -40.95 -31.65 -42.05 -30.7 -41.45 -31.05 -42.4 -31.4 -43.45 -30.25 -42.95 -29.15 -42.35 Q-29.45 -43.8 -32.3 -45.0 -31.1 -45.95 -29.5 -45.9 L-26.65 -45.3 -26.4 -46.35 -26.15 -47.45 Q-25.95 -47.25 -25.35 -47.0 L-24.65 -46.65 -24.75 -47.45 -23.55 -47.0 -22.45 -46.6 -23.4 -47.6 -24.55 -48.6 Q-22.5 -47.75 -18.8 -46.8 -15.7 -45.7 -13.85 -43.25 -11.9 -40.65 -11.75 -38.0 -11.6 -35.2 -13.55 -32.8 L-18.15 -27.5 Q-20.7 -24.45 -21.8 -21.5 -24.75 -13.75 -24.95 -6.95 -25.0 -4.7 -23.75 -0.45 -22.85 2.8 -22.65 4.9 M37.35 48.0 L38.65 48.3 Q40.05 48.75 40.65 49.7 41.3 50.75 41.25 52.55 L41.1 54.3 41.25 52.55 Q41.3 50.75 40.65 49.7 40.05 48.75 38.65 48.3 L37.35 48.0 M-38.9 50.2 Q-38.6 47.75 -39.0 46.4 -39.3 45.3 -40.3 44.6 -39.3 45.3 -39.0 46.4 -38.6 47.75 -38.9 50.2" fill="#000000" fill-opacity="0.2" fill-rule="evenodd" stroke="none"/>
    <path d="M-65.75 -35.0 L-65.7 -35.1 -57.6 -41.85 -58.75 -41.95 Q-48.85 -45.25 -39.5 -45.6 -35.5 -45.75 -29.85 -47.4 L-20.25 -50.1 Q-10.8 -52.25 -3.55 -52.6 4.85 -53.0 13.4 -51.3 17.6 -50.4 21.9 -50.25 L30.4 -50.85 Q39.3 -52.8 54.2 -59.35 62.1 -62.85 68.4 -63.05 75.75 -63.3 82.55 -59.1 85.25 -57.45 87.15 -53.75 L90.55 -47.4 Q92.55 -44.7 98.2 -41.55 101.05 -40.0 103.45 -38.95 L103.0 -35.7 101.1 -30.4 100.75 -29.75 101.1 -30.4 100.75 -29.8 100.75 -29.75 Q98.95 -28.5 97.1 -27.75 94.8 -26.8 93.0 -27.0 91.55 -27.15 89.15 -28.45 86.6 -29.9 85.3 -30.15 L72.9 -30.75 60.45 -30.0 62.8 -28.6 65.2 -27.35 Q59.55 -26.45 55.3 -22.4 L56.45 -22.4 57.55 -22.35 55.4 -20.6 53.15 -18.85 Q53.95 -18.75 54.7 -18.1 52.05 -16.25 47.5 -10.8 44.3 -7.05 41.6 -4.95 L40.75 -1.45 38.4 3.95 35.8 9.3 35.35 10.4 Q32.0 18.3 31.65 26.5 L31.0 33.15 30.5 36.75 Q29.8 42.95 30.85 47.0 L31.45 48.65 Q32.15 50.1 33.2 50.85 L36.9 53.25 37.8 55.0 38.7 58.35 Q39.7 62.8 39.15 62.8 L33.6 63.0 28.7 62.55 Q24.0 61.1 23.6 54.9 23.35 51.05 23.25 44.5 L23.05 34.0 Q22.6 22.25 20.95 15.3 L20.25 12.95 Q19.3 10.15 17.4 5.9 L16.55 3.9 13.3 4.1 4.85 4.1 6.2 3.0 Q8.95 0.8 9.65 -0.5 L8.3 -0.1 10.45 -2.05 Q11.95 -3.25 12.5 -4.15 L10.85 -4.0 Q12.95 -6.25 16.7 -8.7 L14.65 -8.35 12.55 -7.95 Q13.1 -8.9 14.45 -10.0 L16.65 -11.8 14.9 -11.4 13.2 -10.75 15.2 -12.9 17.25 -14.95 15.3 -14.35 13.4 -13.6 15.05 -15.4 16.8 -17.15 Q15.0 -15.9 13.65 -15.55 14.0 -16.4 14.9 -17.4 L16.4 -19.2 15.95 -19.3 Q16.5 -19.95 19.0 -22.25 L15.5 -22.4 17.8 -25.2 Q17.55 -25.05 16.9 -24.8 L15.9 -24.45 Q16.05 -25.2 17.0 -27.05 L15.7 -26.45 Q15.85 -27.2 16.45 -28.2 L17.5 -29.95 Q16.7 -29.85 15.35 -29.05 13.9 -28.2 13.15 -28.05 13.05 -29.35 13.95 -31.25 L15.6 -34.15 Q14.95 -33.6 13.6 -32.95 L16.1 -35.7 Q14.15 -35.7 11.65 -33.8 L12.1 -35.4 12.2 -37.05 11.45 -36.7 10.65 -36.2 Q11.2 -37.75 11.35 -39.3 L10.3 -39.1 10.6 -40.2 11.0 -41.3 10.0 -40.85 10.5 -41.8 11.0 -42.7 9.8 -42.4 8.6 -42.0 Q9.1 -43.5 12.1 -44.05 11.1 -45.2 9.55 -45.45 L6.65 -45.35 6.55 -46.4 6.5 -47.5 4.9 -47.05 5.15 -47.8 3.9 -47.55 2.75 -47.35 3.85 -48.2 Q4.6 -48.85 5.25 -48.95 L-0.8 -48.2 Q-4.05 -47.65 -6.3 -45.55 -8.7 -43.3 -9.3 -40.75 -9.95 -38.0 -8.4 -35.3 L-4.8 -29.3 Q-2.85 -25.8 -2.25 -22.75 -0.7 -14.5 -1.7 -7.85 -2.05 -5.65 -3.95 -1.7 -5.65 1.8 -6.1 3.95 L-8.4 4.1 -18.9 4.95 -22.65 4.9 Q-22.85 2.8 -23.75 -0.45 -25.0 -4.7 -24.95 -6.95 -24.75 -13.75 -21.8 -21.5 -20.7 -24.45 -18.15 -27.5 L-13.55 -32.8 Q-11.6 -35.2 -11.75 -38.0 -11.9 -40.65 -13.85 -43.25 -15.7 -45.7 -18.8 -46.8 -22.5 -47.75 -24.55 -48.6 L-23.4 -47.6 -22.45 -46.6 -23.55 -47.0 -24.75 -47.45 -24.65 -46.65 -25.35 -47.0 Q-25.95 -47.25 -26.15 -47.45 L-26.4 -46.35 -26.65 -45.3 -29.5 -45.9 Q-31.1 -45.95 -32.3 -45.0 -29.45 -43.8 -29.15 -42.35 L-30.25 -42.95 -31.4 -43.45 -31.05 -42.4 -30.7 -41.45 -31.65 -42.05 -31.45 -40.95 -31.3 -39.8 -32.35 -40.15 -32.15 -36.95 -32.9 -37.55 -33.55 -38.1 Q-33.8 -37.25 -33.55 -34.75 -35.75 -37.1 -37.65 -37.45 -36.4 -35.85 -35.7 -34.25 L-37.45 -35.85 -36.3 -32.65 Q-35.75 -30.65 -36.05 -29.35 L-38.05 -30.75 Q-39.25 -31.8 -40.05 -32.05 L-39.25 -30.15 Q-38.9 -29.05 -38.85 -28.2 L-40.05 -29.05 -39.4 -26.3 -41.15 -27.4 Q-39.75 -25.3 -39.3 -24.2 -41.6 -25.15 -42.85 -24.75 L-40.3 -21.25 -40.8 -21.25 -39.6 -19.25 Q-38.9 -18.05 -38.7 -17.15 -39.95 -17.75 -41.55 -19.3 L-40.1 -17.25 -38.8 -15.2 -40.6 -16.3 Q-41.65 -16.95 -42.35 -17.2 L-40.7 -14.8 -39.05 -12.35 -40.65 -13.3 Q-41.65 -13.85 -42.35 -14.0 L-40.45 -11.8 Q-39.3 -10.5 -38.95 -9.5 -41.6 -10.6 -42.9 -10.9 -39.6 -7.9 -37.95 -5.25 L-39.55 -5.75 Q-39.2 -4.8 -37.9 -3.3 L-36.1 -1.0 -37.1 -1.5 -38.1 -2.7 -40.3 -7.25 Q-41.6 -10.1 -43.6 -10.4 -44.25 -4.05 -46.0 1.35 L-46.0 1.4 Q-46.75 4.8 -50.15 7.6 L-51.15 8.4 -51.55 8.65 -52.1 9.05 Q-48.2 6.2 -46.0 1.35 -48.2 6.2 -52.1 9.05 L-56.35 11.45 -74.95 20.5 -77.15 23.5 Q-79.4 27.85 -80.2 34.45 L-80.85 39.3 Q-81.1 42.3 -80.85 44.1 -80.5 46.5 -79.95 47.2 -76.85 46.9 -74.65 47.2 -71.4 47.5 -71.0 49.0 -70.5 50.85 -71.3 54.25 L-72.2 57.25 -74.9 57.7 Q-77.4 58.85 -80.25 58.6 L-80.45 58.65 -80.45 58.6 Q-83.55 58.3 -85.8 56.55 -88.45 54.55 -89.35 50.95 -91.4 42.85 -92.0 33.95 -92.9 31.7 -93.2 28.55 L-93.6 20.25 Q-93.35 14.9 -91.65 12.3 -89.9 9.75 -83.9 6.8 -78.15 4.05 -76.35 0.55 -75.55 -1.05 -75.2 -3.4 L-74.65 -7.5 -73.75 -10.15 Q-73.05 -11.8 -73.0 -12.85 L-73.1 -14.55 Q-73.2 -15.85 -73.5 -14.95 -72.4 -18.3 -72.05 -20.55 -72.35 -19.9 -73.35 -18.7 -73.5 -22.0 -71.2 -26.35 L-71.55 -26.25 -70.9 -28.1 -67.55 -33.15 -65.75 -35.0 -67.55 -33.15 -70.9 -28.1 -71.2 -27.4 Q-74.5 -25.75 -80.8 -24.2 -87.75 -22.5 -90.5 -21.35 -95.85 -19.15 -99.1 -12.9 -100.65 -9.9 -103.3 -1.55 -102.7 -3.65 -102.5 -7.75 -102.35 -12.35 -101.65 -14.5 -100.8 -17.15 -98.9 -20.3 L-95.55 -25.7 Q-98.5 -24.25 -100.6 -21.0 -98.4 -31.5 -84.9 -35.35 -77.2 -37.55 -60.85 -39.25 L-66.05 -34.75 -66.75 -34.05 -66.9 -33.9 -67.2 -33.55 -67.5 -33.25 -67.55 -33.15 Q-69.8 -30.6 -70.9 -28.1 -69.8 -30.6 -67.55 -33.15 L-67.5 -33.25 -67.2 -33.55 -66.9 -33.9 -66.75 -34.05 -66.05 -34.75 -65.75 -35.0 M-78.65 50.35 L-77.85 50.1 -76.2 50.25 Q-73.9 51.4 -74.9 57.7 -73.9 51.4 -76.2 50.25 L-77.85 50.1 -78.65 50.35 M13.95 -3.55 Q14.55 -0.75 16.55 3.9 14.55 -0.75 13.95 -3.55 M84.4 -26.0 L89.4 -25.45 85.75 -25.85 84.4 -26.0 M92.15 -25.3 Q94.9 -25.4 97.0 -26.35 95.3 -25.55 93.2 -25.35 L92.15 -25.3 M41.6 -4.95 L41.95 -6.5 Q42.7 -9.8 44.0 -11.1 42.7 -9.8 41.95 -6.5 L41.6 -4.95 M33.6 63.0 Q34.75 59.1 33.85 57.65 33.5 57.1 32.1 56.65 33.5 57.1 33.85 57.65 34.75 59.1 33.6 63.0 M-43.6 -10.4 Q-43.5 -11.85 -43.55 -13.35 L-44.25 -20.0 -43.55 -13.35 Q-43.5 -11.85 -43.6 -10.4" fill="#ffffff" fill-opacity="0.0" fill-rule="evenodd" stroke="none"/>
    <path d="M4.85 4.1 L13.3 4.1 16.55 3.9 17.4 5.9 Q19.3 10.15 20.25 12.95 L7.15 13.95 Q-8.6 15.95 -21.9 14.3 L-22.65 14.2 -22.85 14.2 -30.15 12.7 -31.65 12.3 -32.3 12.1 Q-42.85 8.65 -46.0 1.4 L-46.0 1.35 Q-44.25 -4.05 -43.6 -10.4 -41.6 -10.1 -40.3 -7.25 L-38.1 -2.7 -37.1 -1.5 -37.4 -1.65 Q-36.95 -0.25 -34.65 2.4 -32.2 5.2 -29.6 7.15 -22.75 12.35 -22.6 6.1 L-22.65 4.9 -18.9 4.95 -8.4 4.1 -6.1 3.95 -6.25 4.55 Q-7.2 10.8 0.5 6.85 2.65 5.7 4.85 4.1 M41.6 -4.95 Q44.3 -7.05 47.5 -10.8 52.05 -16.25 54.7 -18.1 53.95 -18.75 53.15 -18.85 L55.4 -20.6 57.55 -22.35 56.45 -22.4 55.3 -22.4 Q59.55 -26.45 65.2 -27.35 L62.8 -28.6 60.45 -30.0 72.9 -30.75 85.3 -30.15 Q86.6 -29.9 89.15 -28.45 91.55 -27.15 93.0 -27.0 94.8 -26.8 97.1 -27.75 98.95 -28.5 100.75 -29.75 99.25 -27.5 97.0 -26.35 99.25 -27.5 100.75 -29.75 L100.75 -29.8 101.05 -30.05 Q99.55 -27.55 97.0 -26.35 94.9 -25.4 92.15 -25.3 L90.35 -25.35 89.4 -25.45 84.4 -26.0 79.45 -25.8 Q73.6 -23.75 67.7 -19.6 61.9 -15.45 57.9 -10.6 L48.9 0.6 Q45.35 4.65 41.45 7.3 L37.65 9.45 36.35 10.05 36.3 10.05 35.6 10.35 36.3 10.05 36.15 10.15 35.6 10.35 35.35 10.4 35.8 9.3 38.4 3.95 40.75 -1.45 41.6 -4.95 M92.15 -25.3 L89.4 -25.45 92.15 -25.3 M-31.65 12.3 Q-42.75 8.85 -46.0 1.35 -42.75 8.85 -31.65 12.3 M-30.15 12.7 L-22.65 14.2 -30.15 12.7" fill="#000000" fill-opacity="0.14901961" fill-rule="evenodd" stroke="none"/>
    <path d="M101.1 -30.4 L103.0 -35.7 103.45 -38.95 Q101.05 -40.0 98.2 -41.55 92.55 -44.7 90.55 -47.4 L87.15 -53.75 Q85.25 -57.45 82.55 -59.1 75.75 -63.3 68.4 -63.05 62.1 -62.85 54.2 -59.35 39.3 -52.8 30.4 -50.85 L21.9 -50.25 Q17.6 -50.4 13.4 -51.3 4.85 -53.0 -3.55 -52.6 -10.8 -52.25 -20.25 -50.1 L-29.85 -47.4 Q-35.5 -45.75 -39.5 -45.6 -48.85 -45.25 -58.75 -41.95 L-57.6 -41.85 -65.7 -35.1 -65.75 -35.0 -67.55 -33.15 -70.9 -28.1 -71.55 -26.25 -71.2 -26.35 Q-73.5 -22.0 -73.35 -18.7 -72.35 -19.9 -72.05 -20.55 -72.4 -18.3 -73.5 -14.95 -73.2 -15.85 -73.1 -14.55 L-73.0 -12.85 Q-73.05 -11.8 -73.75 -10.15 L-74.65 -7.5 -75.2 -3.4 Q-75.55 -1.05 -76.35 0.55 -78.15 4.05 -83.9 6.8 -89.9 9.75 -91.65 12.3 -93.35 14.9 -93.6 20.25 L-93.2 28.55 Q-92.9 31.7 -92.0 33.95 -91.4 42.85 -89.35 50.95 -88.45 54.55 -85.8 56.55 -83.55 58.3 -80.45 58.6 L-80.45 58.65 -80.25 58.6 Q-77.4 58.85 -74.9 57.7 L-72.2 57.25 -71.3 54.25 Q-70.5 50.85 -71.0 49.0 -71.4 47.5 -74.65 47.2 -76.85 46.9 -79.95 47.2 -80.5 46.5 -80.85 44.1 -81.1 42.3 -80.85 39.3 L-80.2 34.45 Q-79.4 27.85 -77.15 23.5 L-74.95 20.5 -56.35 11.45 -54.75 10.65 Q-55.75 11.2 -56.85 11.75 L-54.55 27.45 Q-53.55 33.55 -50.75 42.1 L-48.1 49.45 -38.9 50.2 -34.7 50.55 -34.4 48.6 Q-34.25 46.3 -35.25 44.65 -36.25 42.95 -39.6 42.55 L-42.75 42.5 Q-44.05 37.25 -44.7 31.7 -45.9 20.55 -42.25 18.85 -38.65 17.25 -32.3 12.1 M35.6 10.35 L36.3 10.05 36.35 10.05 37.65 9.45 41.45 7.3 Q45.35 4.65 48.9 0.6 L57.9 -10.6 Q61.9 -15.45 67.7 -19.6 73.6 -23.75 79.45 -25.8 L84.4 -26.0 85.75 -25.85 89.4 -25.45 92.15 -25.3 93.2 -25.35 Q95.3 -25.55 97.0 -26.35 99.25 -27.5 100.75 -29.75 L101.1 -30.4 M37.8 55.0 L38.7 58.35 Q39.7 62.8 39.15 62.8 L33.6 63.0 28.7 62.55 Q24.0 61.1 23.6 54.9 23.35 51.05 23.25 44.5 L23.05 34.0 Q22.6 22.25 20.95 15.3 L20.25 12.95 7.15 13.95 Q-8.6 15.95 -21.9 14.3 L-22.65 14.2 M-30.15 12.7 L-31.65 12.3 Q-42.75 8.85 -46.0 1.35 -48.2 6.2 -52.1 9.05 L-52.35 9.2 -54.1 10.3 -54.75 10.65 M31.45 48.65 L31.35 47.1 31.05 36.7 31.0 33.15 30.5 36.75 Q29.8 42.95 30.85 47.0 L31.45 48.65 Q32.15 50.1 33.2 50.85 L36.9 53.25 37.8 55.0 40.25 54.5 41.1 54.3 45.25 53.5 Q45.95 50.4 42.85 45.55 39.25 39.8 38.85 37.5 38.3 33.8 38.7 28.05 L39.4 18.7 Q39.7 12.95 41.45 7.3 M35.35 10.4 Q32.0 18.3 31.65 26.5 L31.0 33.15 M-66.05 -34.75 L-60.85 -39.25 Q-77.2 -37.55 -84.9 -35.35 -98.4 -31.5 -100.6 -21.0 -98.5 -24.25 -95.55 -25.7 L-98.9 -20.3 Q-100.8 -17.15 -101.65 -14.5 -102.35 -12.35 -102.5 -7.75 -102.7 -3.65 -103.3 -1.55 -100.65 -9.9 -99.1 -12.9 -95.85 -19.15 -90.5 -21.35 -87.75 -22.5 -80.8 -24.2 -74.5 -25.75 -71.2 -27.4 L-70.9 -28.1 Q-69.8 -30.6 -67.55 -33.15 L-67.5 -33.25 -67.2 -33.55 -66.9 -33.9 -66.75 -34.05 -66.05 -34.75 M-103.3 -1.55 L-103.45 -1.15 M-46.0 1.4 Q-46.75 4.8 -50.15 7.6 L-51.15 8.4 -52.35 9.2" fill="none" stroke="#000000" stroke-linecap="butt" stroke-linejoin="miter-clip" stroke-miterlimit="10.0" stroke-width="1.0"/>
    <path d="M-74.9 57.7 Q-73.9 51.4 -76.2 50.25 L-77.85 50.1 -78.65 50.35 M16.55 3.9 Q14.55 -0.75 13.95 -3.55 M41.6 -4.95 L40.75 -1.45 38.4 3.95 35.8 9.3 35.35 10.4 M44.0 -11.1 Q42.7 -9.8 41.95 -6.5 L41.6 -4.95 M20.25 12.95 Q19.3 10.15 17.4 5.9 L16.55 3.9 M-43.6 -10.4 Q-44.25 -4.05 -46.0 1.35 M41.1 54.3 L41.25 52.55 Q41.3 50.75 40.65 49.7 40.05 48.75 38.65 48.3 L37.35 48.0 M32.1 56.65 Q33.5 57.1 33.85 57.65 34.75 59.1 33.6 63.0 M-44.25 -20.0 L-43.55 -13.35 Q-43.5 -11.85 -43.6 -10.4 M-22.65 14.2 L-30.15 12.7 M-40.3 44.6 Q-39.3 45.3 -39.0 46.4 -38.6 47.75 -38.9 50.2" fill="none" stroke="#000000" stroke-linecap="butt" stroke-linejoin="miter-clip" stroke-miterlimit="10.0" stroke-opacity="0.8" stroke-width="1.0"/>
    <path d="M94.6 -34.9 Q92.75 -36.75 93.4 -38.75 93.95 -40.2 95.4 -41.15 96.25 -41.65 97.2 -41.75 L97.95 -41.7 Q100.9 -40.05 103.45 -38.95 103.1 -35.05 102.0 -32.2 96.9 -32.6 94.6 -34.9" fill="#000000" fill-rule="evenodd" stroke="none"/>
    <path d="M78.85 -45.0 Q76.75 -46.75 79.3 -48.1 81.55 -49.25 83.4 -48.75 84.3 -48.55 84.8 -48.1 85.1 -46.1 83.45 -43.55 80.8 -43.3 78.85 -45.0" fill="#ffffff" fill-rule="evenodd" stroke="none"/>
    <path d="M84.7 -46.0 Q84.7 -44.9 84.15 -44.15 83.6 -43.35 82.8 -43.35 82.0 -43.35 81.45 -44.15 80.85 -44.9 80.85 -46.0 80.85 -47.1 81.45 -47.85 82.0 -48.65 82.8 -48.65 83.6 -48.65 84.15 -47.85 84.7 -47.1 84.7 -46.0" fill="#000000" fill-rule="evenodd" stroke="none"/>
    <path d="M85.3 -30.2 L89.65 -28.2 Q94.5 -26.2 97.0 -26.45" fill="none" stroke="#000000" stroke-linecap="butt" stroke-linejoin="miter-clip" stroke-miterlimit="10.0" stroke-width="1.0"/>
    <path d="M-59.1 -26.45 L-65.15 -20.4 Q-64.15 -22.9 -61.55 -24.95 L-59.1 -26.45" fill="#000000" fill-opacity="0.14901961" fill-rule="evenodd" stroke="none"/>
    <path d="M-61.9 -20.4 Q-60.95 -22.9 -58.3 -24.95 L-55.9 -26.45 -61.9 -20.4" fill="#000000" fill-opacity="0.14901961" fill-rule="evenodd" stroke="none"/>
    <path d="M-48.5 -31.35 L-56.5 -28.4 Q-54.55 -30.25 -51.3 -31.0 L-48.5 -31.35" fill="#000000" fill-opacity="0.14901961" fill-rule="evenodd" stroke="none"/>
    <path d="M-42.65 -37.2 L-50.65 -34.25 Q-48.7 -36.15 -45.5 -36.85 L-42.65 -37.2" fill="#000000" fill-opacity="0.14901961" fill-rule="evenodd" stroke="none"/>
    <path d="M-52.3 -36.85 L-49.45 -37.2 -57.5 -34.25 Q-55.55 -36.15 -52.3 -36.85" fill="#000000" fill-opacity="0.14901961" fill-rule="evenodd" stroke="none"/>
    <path d="M-33.8 -42.8 L-41.8 -39.9 Q-39.8 -41.75 -36.6 -42.45 L-33.8 -42.8" fill="#000000" fill-opacity="0.14901961" fill-rule="evenodd" stroke="none"/>
    <path d="M-33.8 -35.95 L-41.8 -33.05 Q-39.8 -34.9 -36.6 -35.65 L-33.8 -35.95" fill="#000000" fill-opacity="0.14901961" fill-rule="evenodd" stroke="none"/>
    <path d="M-37.85 -31.95 L-45.8 -29.05 Q-43.85 -30.9 -40.65 -31.65 L-37.85 -31.95" fill="#000000" fill-opacity="0.14901961" fill-rule="evenodd" stroke="none"/>
    <path d="M25.35 -37.6 L19.35 -31.55 Q20.35 -34.05 22.95 -36.1 L25.35 -37.6" fill="#000000" fill-opacity="0.14901961" fill-rule="evenodd" stroke="none"/>
    <path d="M32.8 -42.45 L24.75 -39.55 Q26.75 -41.4 29.95 -42.15 L32.8 -42.45" fill="#000000" fill-opacity="0.14901961" fill-rule="evenodd" stroke="none"/>
    <path d="M38.65 -48.3 L30.6 -45.35 Q32.6 -47.25 35.8 -47.95 L38.65 -48.3" fill="#000000" fill-opacity="0.14901961" fill-rule="evenodd" stroke="none"/>
    <path d="M31.8 -48.3 L23.75 -45.35 Q25.75 -47.25 29.0 -47.95 L31.8 -48.3" fill="#000000" fill-opacity="0.14901961" fill-rule="evenodd" stroke="none"/>
    <path d="M39.5 -51.0 Q41.45 -52.9 44.65 -53.6 L47.45 -53.95 39.5 -51.0" fill="#000000" fill-opacity="0.14901961" fill-rule="evenodd" stroke="none"/>
    <path d="M39.5 -44.15 Q41.45 -46.05 44.65 -46.75 L47.45 -47.1 39.5 -44.15" fill="#000000" fill-opacity="0.14901961" fill-rule="evenodd" stroke="none"/>
    <path d="M43.45 -43.05 L35.45 -40.15 Q37.4 -42.0 40.65 -42.7 L43.45 -43.05" fill="#000000" fill-opacity="0.14901961" fill-rule="evenodd" stroke="none"/>
    <path d="M25.35 -23.9 L19.35 -17.85 Q20.35 -20.35 22.95 -22.4 L25.35 -23.9" fill="#000000" fill-opacity="0.14901961" fill-rule="evenodd" stroke="none"/>
    <path d="M32.8 -28.8 L24.75 -25.85 Q26.75 -27.7 29.95 -28.45 L32.8 -28.8" fill="#000000" fill-opacity="0.14901961" fill-rule="evenodd" stroke="none"/>
    <path d="M44.65 -37.45 L36.65 -34.5 Q38.65 -36.4 41.85 -37.1 L44.65 -37.45" fill="#000000" fill-opacity="0.14901961" fill-rule="evenodd" stroke="none"/>
    <path d="M31.8 -34.6 L23.75 -31.7 Q25.75 -33.55 29.0 -34.25 L31.8 -34.6" fill="#000000" fill-opacity="0.14901961" fill-rule="evenodd" stroke="none"/>
    <path d="M25.75 -42.25 L17.7 -39.3 Q19.7 -41.2 22.95 -41.9 L25.75 -42.25" fill="#000000" fill-opacity="0.14901961" fill-rule="evenodd" stroke="none"/>
    <path d="M55.55 -38.25 L47.5 -35.35 Q49.45 -37.2 52.7 -37.9 L55.55 -38.25" fill="#000000" fill-opacity="0.14901961" fill-rule="evenodd" stroke="none"/>
    <path d="M43.45 -29.4 L35.45 -26.45 Q37.4 -28.3 40.65 -29.05 L43.45 -29.4" fill="#000000" fill-opacity="0.14901961" fill-rule="evenodd" stroke="none"/>
  </g>
</svg>
