<?xml version="1.0" encoding="UTF-8" standalone="no"?>
<svg xmlns:xlink="http://www.w3.org/1999/xlink" height="299.25px" width="236.95px" xmlns="http://www.w3.org/2000/svg">
  <g transform="matrix(1.0, 0.0, 0.0, 1.0, 0.5, -15.15)">
    <path d="M235.95 53.65 L235.95 54.2 235.95 57.2 235.95 63.25 66.8 62.75 66.8 99.2 74.9 99.2 63.25 110.85 63.25 205.55 77.95 205.55 77.95 214.65 61.75 214.65 61.75 271.4 98.2 271.4 98.2 303.8 58.7 303.8 58.7 313.9 Q37.05 275.15 27.1 256.7 14.25 232.85 5.85 213.8 L0.0 199.5 0.0 65.6 58.7 53.65 184.65 53.55 235.95 53.65 M163.0 112.4 L83.0 112.4 83.0 80.0 163.0 80.0 163.0 112.4 M51.6 147.85 L52.6 128.6 25.35 128.6 26.35 145.8 51.6 147.85 M34.45 89.1 L6.1 92.15 7.1 109.35 33.45 108.35 34.45 89.1 M47.05 197.95 L19.75 197.95 20.8 215.15 46.05 217.2 47.05 197.95 M4.05 162.0 L5.1 179.2 30.4 181.25 31.4 162.0 4.05 162.0 M58.7 303.8 L58.7 271.4 58.7 111.25 58.7 53.65 58.7 111.25 58.7 271.4 58.7 303.8 M135.65 221.75 L210.6 221.75 210.6 254.15 135.65 254.15 135.65 221.75" fill="#000000" fill-opacity="0.24705882" fill-rule="evenodd" stroke="none"/>
    <path d="M235.95 63.25 L235.95 313.9 58.7 313.9 58.7 303.8 98.2 303.8 98.2 271.4 61.75 271.4 61.75 214.65 77.95 214.65 77.95 205.55 63.25 205.55 63.25 110.85 74.9 99.2 66.8 99.2 66.8 62.75 235.95 63.25 M233.4 131.1 L191.85 131.1 191.85 163.55 233.4 163.55 233.4 131.1 M163.0 112.4 L163.0 80.0 83.0 80.0 83.0 112.4 163.0 112.4 M135.65 221.75 L135.65 254.15 210.6 254.15 210.6 221.75 135.65 221.75 M87.55 167.6 L87.55 200.0 162.5 200.0 162.5 167.6 87.55 167.6" fill="#ffffff" fill-opacity="0.0" fill-rule="evenodd" stroke="none"/>
    <path d="M57.7 15.15 L58.7 15.15 57.7 15.4 57.7 15.15" fill="#c2c4c6" fill-rule="evenodd" stroke="none"/>
    <path d="M4.05 162.0 L31.4 162.0 30.4 181.25 5.1 179.2 4.05 162.0 M47.05 197.95 L46.05 217.2 20.8 215.15 19.75 197.95 47.05 197.95" fill="#000000" fill-opacity="0.34901962" fill-rule="evenodd" stroke="none"/>
    <path d="M34.45 89.1 L33.45 108.35 7.1 109.35 6.1 92.15 34.45 89.1 M51.6 147.85 L26.35 145.8 25.35 128.6 52.6 128.6 51.6 147.85" fill="#000000" fill-opacity="0.09803922" fill-rule="evenodd" stroke="none"/>
    <path d="M233.4 131.1 L233.4 163.55 191.85 163.55 191.85 131.1 233.4 131.1 M87.55 167.6 L162.5 167.6 162.5 200.0 87.55 200.0 87.55 167.6" fill="#ffffff" fill-opacity="0.14901961" fill-rule="evenodd" stroke="none"/>
    <path d="M235.95 53.65 L235.95 54.2 235.95 57.2 235.95 63.25 235.95 313.9 58.7 313.9" fill="none" stroke="#000000" stroke-linecap="round" stroke-linejoin="miter-clip" stroke-miterlimit="4.0" stroke-width="1.0"/>
    <path d="M58.7 313.9 Q37.05 275.15 27.1 256.7 14.25 232.85 5.85 213.8 L0.0 199.5 0.0 65.6" fill="none" stroke="#000000" stroke-linecap="round" stroke-linejoin="round" stroke-width="1.0"/>
    <path d="M58.7 303.8 L58.7 313.9 M58.7 53.65 L58.7 111.25 58.7 271.4 58.7 303.8" fill="none" stroke="#000000" stroke-linecap="round" stroke-linejoin="round" stroke-opacity="0.6" stroke-width="1.0"/>
  </g>
</svg>
