<?xml version="1.0" encoding="UTF-8" standalone="no"?>
<svg xmlns:xlink="http://www.w3.org/1999/xlink" height="1233.1px" width="1713.3px" xmlns="http://www.w3.org/2000/svg">
  <g transform="matrix(1.0, 0.0, 0.0, 1.0, 0.5, 0.5)">
    <path d="M0.0 57.05 L0.0 0.0 1712.3 0.0 1712.3 57.05 0.0 57.05 1712.3 57.05 1712.3 158.75 1712.3 203.4 0.0 203.4 0.0 158.75 0.0 57.05 M0.0 158.75 L1712.3 158.75 0.0 158.75" fill="#000000" fill-opacity="0.09803922" fill-rule="evenodd" stroke="none"/>
    <path d="M1712.3 910.4 L1712.3 1232.1 0.0 1232.1 0.0 910.4 1712.3 910.4" fill="#ffffff" fill-opacity="0.0" fill-rule="evenodd" stroke="none"/>
    <path d="M1712.3 57.05 L1712.3 0.0 0.0 0.0 0.0 57.05 0.0 158.75 0.0 203.4 M1712.3 57.05 L1712.3 158.75 1712.3 203.4 M0.0 910.4 L0.0 1232.1 1712.3 1232.1 1712.3 910.4" fill="none" stroke="#000000" stroke-linecap="round" stroke-linejoin="miter-clip" stroke-miterlimit="4.0" stroke-width="1.0"/>
    <path d="M0.0 57.05 L1712.3 57.05 M1712.3 203.4 L0.0 203.4 M1712.3 910.4 L0.0 910.4 M1712.3 158.75 L0.0 158.75" fill="none" stroke="#000000" stroke-linecap="round" stroke-linejoin="miter-clip" stroke-miterlimit="4.0" stroke-opacity="0.6" stroke-width="1.0"/>
  </g>
</svg>
