<?xml version="1.0" encoding="UTF-8" standalone="no"?>
<svg xmlns:xlink="http://www.w3.org/1999/xlink" height="380.1px" width="395.2px" xmlns="http://www.w3.org/2000/svg">
  <g transform="matrix(1.0, 0.0, 0.0, 1.0, 0.5, 0.5)">
    <path d="M342.7 215.3 Q326.95 201.85 306.15 189.4 L5.3 18.6 Q1.2 16.3 0.25 12.2 -0.75 8.05 2.0 4.55 4.7 1.05 9.55 0.2 14.35 -0.6 18.45 1.7 L316.45 170.85 323.2 174.85 Q331.4 179.9 339.3 185.4 364.55 203.05 378.65 220.2 391.8 236.3 393.0 250.85 394.2 265.7 394.2 297.0 394.2 331.95 393.05 369.2 392.9 373.3 389.45 376.2 385.95 379.1 381.15 379.1 L380.85 379.1 Q375.95 379.0 372.55 375.9 369.2 372.85 369.3 368.65 370.45 331.6 370.45 297.0 370.45 266.8 369.3 252.2 369.05 245.05 361.3 234.6 354.05 224.75 342.7 215.3 M339.3 204.0 Q354.25 215.75 363.35 226.95 374.45 240.6 375.25 251.65 376.4 266.8 376.4 297.0 376.4 331.75 375.2 368.9 375.2 369.6 375.75 370.1 L377.15 370.65 377.2 370.65 Q378.0 370.65 378.6 370.15 379.15 369.65 379.2 368.95 380.35 331.8 380.35 297.0 380.35 266.75 379.2 251.4 377.25 229.3 342.0 201.5 331.05 192.85 317.9 184.55 L307.05 177.95 9.05 8.75 Q8.35 8.35 7.55 8.5 6.75 8.65 6.3 9.25 5.8 9.8 6.0 10.5 6.15 11.2 6.85 11.6 L304.9 180.75 315.6 187.25 Q328.45 195.4 339.3 204.0" fill="#ffffff" fill-opacity="0.0" fill-rule="evenodd" stroke="none"/>
    <path d="M339.3 204.0 Q328.45 195.4 315.6 187.25 L304.9 180.75 6.85 11.6 Q6.15 11.2 6.0 10.5 5.8 9.8 6.3 9.25 6.75 8.65 7.55 8.5 8.35 8.35 9.05 8.75 L307.05 177.95 317.9 184.55 Q331.05 192.85 342.0 201.5 377.25 229.3 379.2 251.4 380.35 266.75 380.35 297.0 380.35 331.8 379.2 368.95 379.15 369.65 378.6 370.15 378.0 370.65 377.2 370.65 L377.15 370.65 375.75 370.1 Q375.2 369.6 375.2 368.9 376.4 331.75 376.4 297.0 376.4 266.8 375.25 251.65 374.45 240.6 363.35 226.95 354.25 215.75 339.3 204.0" fill="#ffffff" fill-opacity="0.4" fill-rule="evenodd" stroke="none"/>
    <path d="M342.7 215.3 Q326.95 201.85 306.15 189.4 L5.3 18.6 Q1.2 16.3 0.25 12.2 -0.75 8.05 2.0 4.55 4.7 1.05 9.55 0.2 14.35 -0.6 18.45 1.7 L316.45 170.85 323.2 174.85 Q331.4 179.9 339.3 185.4 364.55 203.05 378.65 220.2 391.8 236.3 393.0 250.85 394.2 265.7 394.2 297.0 394.2 331.95 393.05 369.2 392.9 373.3 389.45 376.2 385.95 379.1 381.15 379.1 L380.85 379.1 Q375.95 379.0 372.55 375.9 369.2 372.85 369.3 368.65 370.45 331.6 370.45 297.0 370.45 266.8 369.3 252.2 369.05 245.05 361.3 234.6 354.05 224.75 342.7 215.3 Z" fill="none" stroke="#000000" stroke-linecap="round" stroke-linejoin="miter-clip" stroke-miterlimit="4.0" stroke-width="1.0"/>
  </g>
</svg>
