<?xml version="1.0" encoding="UTF-8" standalone="no"?>
<svg xmlns:xlink="http://www.w3.org/1999/xlink" height="60.65px" width="58.75px" xmlns="http://www.w3.org/2000/svg">
  <g transform="matrix(1.0, 0.0, 0.0, 1.0, 34.85, 31.05)">
    <path d="M15.6 -15.05 L19.15 -19.0 19.25 -20.4 19.05 -20.55 13.75 -20.7 13.5 -20.6 13.4 -19.9 13.3 -19.2 Q13.3 -19.0 13.45 -19.0 L17.05 -19.0 14.8 -16.45 13.05 -14.6 12.9 -14.3 12.85 -14.1 12.85 -13.95 11.85 -13.6 11.9 -14.65 11.95 -20.55 11.8 -20.8 10.95 -20.95 10.05 -21.1 9.95 -20.65 9.95 -20.3 10.0 -19.95 9.95 -19.8 9.75 -19.95 Q8.95 -21.0 7.6 -21.0 6.1 -21.0 5.1 -19.85 4.2 -18.7 4.2 -17.2 4.2 -15.65 5.1 -14.6 6.1 -13.5 7.6 -13.5 8.95 -13.5 9.95 -14.6 L9.95 -13.85 9.7 -12.95 7.1 -12.4 Q6.35 -12.55 5.55 -13.0 L5.45 -13.05 5.3 -12.9 5.15 -12.05 -5.25 -11.2 -18.0 -11.7 -22.8 -12.25 -22.8 -13.45 -22.8 -13.85 -22.8 -14.35 -22.6 -29.05 21.8 -29.05 23.4 28.3 -23.4 29.1 -22.85 -9.1 -22.85 -10.35 -22.8 -11.65 -13.2 0.05 -9.95 -4.25 Q-4.55 -8.6 -1.85 -4.7 -0.5 -2.75 -0.25 0.05 5.45 -10.05 14.2 -10.05 18.6 -10.05 21.8 -8.05 L21.8 -19.35 Q19.35 -16.8 15.6 -15.05 M1.25 -16.9 Q1.25 -15.95 0.65 -15.2 0.05 -14.45 -0.95 -14.45 -1.9 -14.45 -2.6 -15.2 -3.2 -15.95 -3.2 -16.9 -3.2 -17.9 -2.6 -18.65 -1.95 -19.45 -0.95 -19.45 0.0 -19.45 0.65 -18.65 1.25 -17.9 1.25 -16.9 M3.35 -20.35 L2.7 -20.6 1.85 -20.75 1.65 -20.2 1.5 -19.7 1.0 -20.2 Q0.15 -21.05 -1.2 -21.05 -3.0 -21.05 -4.05 -19.85 -5.1 -18.65 -5.1 -16.8 -5.1 -15.2 -4.05 -14.0 -3.0 -12.7 -1.4 -12.7 -0.8 -12.7 -0.1 -13.05 L1.25 -13.95 1.4 -13.4 Q1.5 -12.8 1.65 -12.8 L3.0 -12.9 3.25 -13.15 3.25 -13.3 3.0 -16.95 Q3.0 -18.0 3.35 -20.2 L3.35 -20.35 M8.0 -19.45 Q8.9 -19.45 9.45 -18.75 9.95 -18.2 9.95 -17.2 9.95 -16.3 9.45 -15.65 8.85 -14.95 8.0 -14.95 7.15 -14.95 6.6 -15.65 6.1 -16.3 6.1 -17.2 6.1 -18.1 6.6 -18.75 7.15 -19.45 8.0 -19.45 M6.2 8.65 Q3.95 8.65 2.4 10.25 0.8 11.8 0.8 14.05 0.8 16.25 2.4 17.85 3.95 19.4 6.2 19.4 8.4 19.4 10.0 17.85 11.6 16.25 11.6 14.05 11.6 11.8 10.0 10.25 8.4 8.65 6.2 8.65 M14.8 -2.65 Q13.7 -3.75 12.1 -3.75 10.55 -3.75 9.45 -2.65 8.35 -1.5 8.35 0.05 8.35 1.6 9.45 2.7 10.55 3.8 12.1 3.8 13.65 3.8 14.8 2.7 15.9 1.6 15.9 0.05 15.9 -1.5 14.8 -2.65 M-6.55 -24.4 L-8.25 -24.45 -8.5 -24.15 -11.6 -16.25 -11.95 -15.6 -12.35 -16.4 -15.75 -24.2 -16.0 -24.55 -17.7 -24.4 -17.85 -24.2 -17.85 -13.1 -17.65 -12.9 -17.25 -12.95 -16.35 -12.95 -15.95 -12.9 Q-15.75 -12.9 -15.75 -13.2 L-15.8 -19.55 -15.75 -19.75 -15.65 -19.6 -12.75 -12.9 -11.9 -12.75 -11.3 -12.85 -10.55 -14.75 -8.6 -19.5 -8.5 -19.6 -8.4 -19.45 -8.55 -13.2 Q-8.55 -12.9 -8.35 -12.9 L-7.9 -12.95 -6.55 -12.9 -6.35 -13.15 -6.35 -24.2 -6.55 -24.4 M-4.55 10.8 Q-4.55 7.45 -6.95 5.1 -9.3 2.75 -12.65 2.75 -16.0 2.75 -18.35 5.1 -20.7 7.45 -20.7 10.8 -20.7 14.15 -18.35 16.5 -16.0 18.9 -12.65 18.9 -9.3 18.9 -6.95 16.5 -4.55 14.15 -4.55 10.8" fill="#ffffff" fill-opacity="0.0" fill-rule="evenodd" stroke="none"/>
    <path d="M12.85 -13.95 L12.85 -14.1 12.9 -14.3 13.05 -14.6 14.8 -16.45 17.05 -19.0 13.45 -19.0 Q13.3 -19.0 13.3 -19.2 L13.4 -19.9 13.5 -20.6 13.75 -20.7 19.05 -20.55 19.25 -20.4 19.15 -19.0 15.6 -15.05 15.1 -14.5 19.35 -14.55 19.55 -14.5 19.25 -13.2 19.1 -12.9 16.0 -13.0 14.25 -12.9 13.2 -12.85 13.0 -13.0 Q12.85 -13.35 12.85 -13.9 L12.85 -13.95 M5.15 -12.05 L5.3 -12.9 5.45 -13.05 5.55 -13.0 Q6.35 -12.55 7.1 -12.4 L8.0 -12.3 Q8.85 -12.3 9.35 -12.65 L9.7 -12.95 9.95 -13.85 9.95 -14.6 Q8.95 -13.5 7.6 -13.5 6.1 -13.5 5.1 -14.6 4.2 -15.65 4.2 -17.2 4.2 -18.7 5.1 -19.85 6.1 -21.0 7.6 -21.0 8.95 -21.0 9.75 -19.95 L9.95 -19.8 10.0 -19.95 9.95 -20.3 9.95 -20.65 10.05 -21.1 10.95 -20.95 11.8 -20.8 11.95 -20.55 11.9 -14.65 11.85 -13.6 Q11.65 -12.45 11.05 -11.8 10.25 -10.8 8.25 -10.8 6.3 -10.8 5.25 -11.5 L5.05 -11.65 5.15 -12.05 M8.0 -19.45 Q7.15 -19.45 6.6 -18.75 6.1 -18.1 6.1 -17.2 6.1 -16.3 6.6 -15.65 7.15 -14.95 8.0 -14.95 8.85 -14.95 9.45 -15.65 9.95 -16.3 9.95 -17.2 9.95 -18.2 9.45 -18.75 8.9 -19.45 8.0 -19.45 M3.35 -20.35 L3.35 -20.2 Q3.0 -18.0 3.0 -16.95 L3.25 -13.3 3.25 -13.15 3.0 -12.9 1.65 -12.8 Q1.5 -12.8 1.4 -13.4 L1.25 -13.95 -0.1 -13.05 Q-0.8 -12.7 -1.4 -12.7 -3.0 -12.7 -4.05 -14.0 -5.1 -15.2 -5.1 -16.8 -5.1 -18.65 -4.05 -19.85 -3.0 -21.05 -1.2 -21.05 0.15 -21.05 1.0 -20.2 L1.5 -19.7 1.65 -20.2 1.85 -20.75 2.7 -20.6 3.35 -20.35 M1.25 -16.9 Q1.25 -17.9 0.65 -18.65 0.0 -19.45 -0.95 -19.45 -1.95 -19.45 -2.6 -18.65 -3.2 -17.9 -3.2 -16.9 -3.2 -15.95 -2.6 -15.2 -1.9 -14.45 -0.95 -14.45 0.05 -14.45 0.65 -15.2 1.25 -15.95 1.25 -16.9 M-6.55 -24.4 L-6.35 -24.2 -6.35 -13.15 -6.55 -12.9 -7.9 -12.95 -8.35 -12.9 Q-8.55 -12.9 -8.55 -13.2 L-8.4 -19.45 -8.5 -19.6 -8.6 -19.5 -10.55 -14.75 -11.3 -12.85 -11.9 -12.75 -12.75 -12.9 -15.65 -19.6 -15.75 -19.75 -15.8 -19.55 -15.75 -13.2 Q-15.75 -12.9 -15.95 -12.9 L-16.35 -12.95 -17.25 -12.95 -17.65 -12.9 -17.85 -13.1 -17.85 -24.2 -17.7 -24.4 -16.0 -24.55 -15.75 -24.2 -12.35 -16.4 -11.95 -15.6 -11.6 -16.25 -8.5 -24.15 -8.25 -24.45 -6.55 -24.4" fill="#000000" fill-opacity="0.8980392" fill-rule="evenodd" stroke="none"/>
    <path d="M15.6 -15.05 Q19.35 -16.8 21.8 -19.35 L21.8 -8.05 Q18.6 -10.05 14.2 -10.05 5.45 -10.05 -0.25 0.05 -0.5 -2.75 -1.85 -4.7 -4.55 -8.6 -9.95 -4.25 L-13.2 0.05 -22.8 -11.65 -22.85 -11.65 -22.85 -12.25 -22.8 -12.25 -18.0 -11.7 -5.25 -11.2 5.15 -12.05 5.05 -11.65 5.25 -11.5 Q6.3 -10.8 8.25 -10.8 10.25 -10.8 11.05 -11.8 11.65 -12.45 11.85 -13.6 L12.85 -13.95 12.85 -13.9 Q12.85 -13.35 13.0 -13.0 L13.2 -12.85 14.25 -12.9 16.0 -13.0 19.1 -12.9 19.25 -13.2 19.55 -14.5 19.35 -14.55 15.1 -14.5 15.6 -15.05 M7.1 -12.4 L9.7 -12.95 9.35 -12.65 Q8.85 -12.3 8.0 -12.3 L7.1 -12.4 M14.8 -2.65 Q15.9 -1.5 15.9 0.05 15.9 1.6 14.8 2.7 13.65 3.8 12.1 3.8 10.55 3.8 9.45 2.7 8.35 1.6 8.35 0.05 8.35 -1.5 9.45 -2.65 10.55 -3.75 12.1 -3.75 13.7 -3.75 14.8 -2.65 M6.2 8.65 Q8.4 8.65 10.0 10.25 11.6 11.8 11.6 14.05 11.6 16.25 10.0 17.85 8.4 19.4 6.2 19.4 3.95 19.4 2.4 17.85 0.8 16.25 0.8 14.05 0.8 11.8 2.4 10.25 3.95 8.65 6.2 8.65 M-4.55 10.8 Q-4.55 14.15 -6.95 16.5 -9.3 18.9 -12.65 18.9 -16.0 18.9 -18.35 16.5 -20.7 14.15 -20.7 10.8 -20.7 7.45 -18.35 5.1 -16.0 2.75 -12.65 2.75 -9.3 2.75 -6.95 5.1 -4.55 7.45 -4.55 10.8" fill="#000000" fill-opacity="0.4" fill-rule="evenodd" stroke="none"/>
    <path d="M-22.85 -10.35 L-22.85 -9.1 -23.4 29.1 23.4 28.3 21.8 -29.05 -22.6 -29.05 -22.8 -14.35 -22.8 -13.85 -22.8 -13.45" fill="none" stroke="#000000" stroke-linecap="round" stroke-linejoin="miter-clip" stroke-miterlimit="4.0" stroke-width="1.0"/>
    <path d="M-22.8 -11.65 L-22.85 -10.35 -22.85 -11.65 -22.85 -12.25 M-22.8 -13.45 L-22.8 -12.25" fill="none" stroke="#000000" stroke-linecap="round" stroke-linejoin="miter-clip" stroke-miterlimit="4.0" stroke-opacity="0.6" stroke-width="1.0"/>
  </g>
</svg>
