<?xml version="1.0" encoding="UTF-8" standalone="no"?>
<svg xmlns:xlink="http://www.w3.org/1999/xlink" height="261.95px" width="1630.95px" xmlns="http://www.w3.org/2000/svg">
  <g transform="matrix(1.0, 0.0, 0.0, 1.0, 0.5, 0.5)">
    <path d="M1629.95 35.5 L1629.95 36.75 1629.95 40.2 1629.95 82.6 1629.95 84.9 1629.95 91.85 1629.95 160.05 1629.95 161.85 1629.95 167.0 1629.95 258.95 1629.95 260.95 0.35 260.95 0.35 167.0 0.35 160.05 0.35 91.85 0.35 84.9 0.35 82.6 371.5 82.6 468.7 35.5 1170.8 35.5 1097.55 0.0 1170.8 35.5 1629.95 35.5 1170.8 35.5 1268.0 82.6 371.5 82.6 211.75 160.0 0.35 160.05 211.75 160.0 371.5 82.6 1268.0 82.6 1170.8 35.5 468.7 35.5 371.5 82.6 0.35 82.6 0.35 40.2 0.35 36.75 0.35 35.5 0.35 0.0 542.0 0.0 1097.55 0.0 1629.95 0.0 1629.95 35.5 M1629.95 160.05 L1427.75 160.0 1268.0 82.6 1629.95 82.6 1268.0 82.6 1427.75 160.0 1629.95 160.05 M0.35 260.95 L211.75 160.0 1427.75 160.0 1629.95 258.95 1427.75 160.0 211.75 160.0 0.35 260.95 M542.0 0.0 L468.7 35.5 0.35 35.5 468.7 35.5 542.0 0.0" fill="#ffffff" fill-opacity="0.0" fill-rule="evenodd" stroke="none"/>
    <path d="M1629.95 35.5 L1629.95 36.75 M1629.95 82.6 L1629.95 84.9 M1629.95 160.05 L1629.95 161.85 M1629.95 258.95 L1629.95 260.95 M0.35 84.9 L0.35 82.6 0.0 82.6 M1097.55 0.0 L1170.8 35.5 1629.95 35.5 M1629.95 258.95 L1427.75 160.0 211.75 160.0 0.35 260.95 M1629.95 82.6 L1268.0 82.6 1427.75 160.0 1629.95 160.05 M1170.8 35.5 L1268.0 82.6 371.5 82.6 211.75 160.0 0.35 160.05 M1170.8 35.5 L468.7 35.5 371.5 82.6 0.35 82.6 M0.35 40.2 L0.35 36.75 M0.35 35.5 L468.7 35.5 542.0 0.0" fill="none" stroke="#000000" stroke-linecap="round" stroke-linejoin="miter-clip" stroke-miterlimit="4.0" stroke-opacity="0.6" stroke-width="1.0"/>
    <path d="M1629.95 36.75 L1629.95 40.2 1629.95 82.6 M1629.95 84.9 L1629.95 91.85 1629.95 160.05 M1629.95 161.85 L1629.95 167.0 1629.95 258.95 M1629.95 260.95 L0.35 260.95 0.35 167.0 0.35 160.05 0.35 91.85 0.35 84.9 M1629.95 35.5 L1629.95 0.0 1097.55 0.0 542.0 0.0 0.35 0.0 0.35 35.5 0.35 36.75 M0.35 82.6 L0.35 40.2" fill="none" stroke="#000000" stroke-linecap="round" stroke-linejoin="miter-clip" stroke-miterlimit="4.0" stroke-width="1.0"/>
  </g>
</svg>
