<?xml version="1.0" encoding="UTF-8" standalone="no"?>
<svg xmlns:xlink="http://www.w3.org/1999/xlink" height="31.6px" width="25.1px" xmlns="http://www.w3.org/2000/svg">
  <g transform="matrix(1.0, 0.0, 0.0, 1.0, 0.5, 0.5)">
    <path d="M20.25 2.15 L23.7 7.65 14.7 7.7 13.2 7.7 11.65 7.7 0.0 7.65 3.55 2.15 20.25 2.15" fill="#ffffff" fill-opacity="0.09803922" fill-rule="evenodd" stroke="none"/>
    <path d="M3.55 2.15 L3.55 0.0 20.55 0.0 20.55 2.15 20.25 2.15 3.55 2.15 M23.7 7.65 L23.7 30.6 0.0 30.6 0.0 7.65 11.65 7.7 10.4 7.75 13.2 7.7 14.7 7.7 23.7 7.65" fill="#ffffff" fill-opacity="0.0" fill-rule="evenodd" stroke="none"/>
    <path d="M3.55 2.15 L3.55 0.0 20.55 0.0 20.55 2.15 20.25 2.15 23.7 7.65 23.7 30.6 0.0 30.6 0.0 7.65 3.55 2.15 M13.2 7.7 L11.65 7.7 M23.7 7.65 L14.7 7.7 13.2 7.7" fill="none" stroke="#000000" stroke-linecap="round" stroke-linejoin="miter-clip" stroke-miterlimit="4.0" stroke-width="1.0"/>
    <path d="M3.55 2.15 L20.25 2.15 M11.65 7.7 L0.0 7.65" fill="none" stroke="#000000" stroke-linecap="round" stroke-linejoin="miter-clip" stroke-miterlimit="4.0" stroke-opacity="0.6" stroke-width="1.0"/>
  </g>
</svg>
