<?xml version="1.0" encoding="UTF-8" standalone="no"?>
<svg xmlns:xlink="http://www.w3.org/1999/xlink" height="83.55px" width="108.75px" xmlns="http://www.w3.org/2000/svg">
  <g transform="matrix(1.0, 0.0, 0.0, 1.0, 0.6, 1.4)">
    <path d="M86.95 20.2 Q86.2 20.95 84.55 21.15 L77.9 20.75 Q65.6 20.2 57.6 21.05 52.85 21.5 46.4 21.3 L35.15 20.8 29.65 21.0 24.2 20.8 22.95 20.35 22.65 20.15 Q21.6 19.4 21.45 17.9 21.3 15.6 23.55 14.55 25.9 13.45 30.4 13.9 L37.45 14.5 55.65 13.95 64.15 14.45 72.65 14.95 80.05 14.7 Q85.05 14.6 87.3 15.5 L87.5 17.3 Q87.85 18.95 87.2 19.9 L86.95 20.2 M2.15 48.15 Q0.15 46.9 0.0 44.35 -0.3 40.65 3.35 38.9 7.15 37.05 14.45 37.8 L25.95 38.8 55.45 37.9 69.35 38.75 83.05 39.55 95.1 39.1 Q103.2 38.95 106.85 40.45 106.75 41.3 107.25 43.35 107.85 46.1 106.7 47.65 105.5 49.25 102.4 49.55 L91.6 49.0 Q72.55 48.05 58.65 49.4 51.0 50.15 40.45 49.85 L22.25 49.0 13.3 49.35 4.45 49.0 2.15 48.15 M106.4 72.1 L106.5 72.35 106.5 81.65 2.25 81.65 2.25 69.35 2.4 68.1 2.8 64.65 Q4.45 66.85 8.05 68.5 15.35 71.8 25.3 69.05 35.3 66.3 39.15 67.35 44.25 69.9 50.55 71.8 59.6 74.55 66.95 74.05 73.4 73.6 82.9 70.15 90.45 67.4 99.25 69.35 L106.4 71.8 106.5 71.8 106.4 71.85 106.4 72.1 M33.35 4.65 Q32.5 4.15 32.45 3.0 32.3 1.35 33.9 0.6 35.6 -0.25 38.85 0.1 L43.9 0.55 57.0 0.15 63.1 0.55 69.2 0.9 74.55 0.65 Q78.1 0.6 79.7 1.25 79.65 1.7 79.9 2.55 80.2 3.95 79.5 4.65 78.95 5.2 77.75 5.3 L72.95 5.05 Q64.45 4.6 58.4 5.25 54.95 5.55 50.35 5.45 L42.3 5.05 38.35 5.2 34.4 5.05 Q33.8 4.95 33.35 4.65" fill="#ffffff" fill-opacity="0.0" fill-rule="evenodd" stroke="none"/>
    <path d="M22.65 20.15 L22.95 20.35 24.2 20.8 29.65 21.0 35.15 20.8 46.4 21.3 Q52.85 21.5 57.6 21.05 65.6 20.2 77.9 20.75 L84.55 21.15 Q86.2 20.95 86.95 20.2 M2.15 48.15 L4.45 49.0 13.3 49.35 22.25 49.0 40.45 49.85 Q51.0 50.15 58.65 49.4 72.55 48.05 91.6 49.0 L102.4 49.55 Q105.5 49.25 106.7 47.65 M106.4 72.1 L106.4 71.85 M106.4 71.8 L99.25 69.35 Q90.45 67.4 82.9 70.15 73.4 73.6 66.95 74.05 59.6 74.55 50.55 71.8 44.25 69.9 39.15 67.35 35.3 66.3 25.3 69.05 15.35 71.8 8.05 68.5 4.45 66.85 2.8 64.65 L2.4 68.1 M33.35 4.65 Q33.8 4.95 34.4 5.05 L38.35 5.2 42.3 5.05 50.35 5.45 Q54.95 5.55 58.4 5.25 64.45 4.6 72.95 5.05 L77.75 5.3 Q78.95 5.2 79.5 4.65" fill="none" stroke="#000000" stroke-linecap="round" stroke-linejoin="miter-clip" stroke-miterlimit="4.0" stroke-opacity="0.4" stroke-width="1.0"/>
    <path d="M86.95 20.2 L87.2 19.9 Q87.85 18.95 87.5 17.3 L87.3 15.5 Q85.05 14.6 80.05 14.7 L72.65 14.95 64.15 14.45 55.65 13.95 37.45 14.5 30.4 13.9 Q25.9 13.45 23.55 14.55 21.3 15.6 21.45 17.9 21.6 19.4 22.65 20.15 M106.7 47.65 Q107.85 46.1 107.25 43.35 106.75 41.3 106.85 40.45 103.2 38.95 95.1 39.1 L83.05 39.55 69.35 38.75 55.45 37.9 25.95 38.8 14.45 37.8 Q7.15 37.05 3.35 38.9 -0.3 40.65 0.0 44.35 0.15 46.9 2.15 48.15 M2.4 68.1 L2.25 69.35 2.25 81.65 106.5 81.65 106.5 72.35 106.4 72.1 M106.4 71.85 L106.5 71.8 106.4 71.8 M79.5 4.65 Q80.2 3.95 79.9 2.55 79.65 1.7 79.7 1.25 78.1 0.6 74.55 0.65 L69.2 0.9 63.1 0.55 57.0 0.15 43.9 0.55 38.85 0.1 Q35.6 -0.25 33.9 0.6 32.3 1.35 32.45 3.0 32.5 4.15 33.35 4.65" fill="none" stroke="#000000" stroke-linecap="round" stroke-linejoin="miter-clip" stroke-miterlimit="4.0" stroke-width="1.0"/>
  </g>
</svg>
