<?xml version="1.0" encoding="UTF-8" standalone="no"?>
<svg xmlns:xlink="http://www.w3.org/1999/xlink" height="83.9px" width="100.6px" xmlns="http://www.w3.org/2000/svg">
  <g transform="matrix(1.0, 0.0, 0.0, 1.0, 50.3, 41.95)">
    <path d="M41.25 -20.1 L49.8 -6.2 49.8 23.2 Q42.85 35.95 40.15 37.55 L8.95 41.45 -8.95 41.45 -40.2 37.55 Q-41.85 36.55 -46.0 29.75 L-49.8 23.2 -49.8 -6.2 -41.3 -20.1 -41.3 -38.8 -8.95 -40.5 -8.95 -41.45 -0.05 -41.0 8.95 -41.45 8.95 -40.5 41.25 -38.8 41.25 -20.1" fill="#ffffff" fill-opacity="0.0" fill-rule="evenodd" stroke="none"/>
    <path d="M41.25 -20.1 L41.25 -38.8 8.95 -40.5 8.95 -41.45 -0.05 -41.0 -8.95 -41.45 -8.95 -40.5 -41.3 -38.8 -41.3 -20.1 -49.8 -6.2 -49.8 23.2 -46.0 29.75 Q-41.85 36.55 -40.2 37.55 L-8.95 41.45 8.95 41.45 40.15 37.55 Q42.85 35.95 49.8 23.2 L49.8 -6.2 41.25 -20.1 Z" fill="none" stroke="#000000" stroke-linecap="round" stroke-linejoin="round" stroke-width="1.0"/>
  </g>
</svg>
