<?xml version="1.0" encoding="UTF-8" standalone="no"?>
<svg xmlns:xlink="http://www.w3.org/1999/xlink" height="293.0px" width="192.6px" xmlns="http://www.w3.org/2000/svg">
  <g transform="matrix(1.0, 0.0, 0.0, 1.0, 104.85, 146.1)">
    <path d="M37.55 -140.95 L38.3 -139.75 38.05 -141.95 39.25 -141.7 46.0 -141.45 49.9 -141.55 52.8 -141.7 53.7 -141.75 68.5 -143.15 80.55 -144.65 87.25 -145.6 86.75 -52.85 82.6 29.8 81.55 141.2 64.45 140.95 64.45 140.9 37.0 140.4 Q41.9 95.35 41.65 82.65 41.4 74.6 39.3 51.05 L37.0 29.3 37.9 -15.85 35.5 31.6 34.45 143.0 -8.2 142.35 -8.25 144.55 -25.35 144.55 -25.35 144.5 -60.65 144.3 -60.95 146.4 -76.85 146.4 -76.75 146.2 -104.35 145.85 Q-99.15 100.8 -99.65 87.85 -99.95 79.8 -102.0 56.5 L-104.35 34.45 -101.75 -98.2 Q-101.75 -109.85 -102.25 -121.0 L-102.65 -128.25 -102.8 -130.85 -103.3 -136.5 Q-99.8 -135.55 -88.7 -136.35 L-88.55 -136.5 -85.15 -136.7 -83.05 -136.8 -81.15 -137.0 -80.75 -137.05 -79.35 -137.2 -75.2 -137.6 -69.95 -138.2 -54.1 -140.4 -54.15 -129.4 -53.65 -133.0 -52.85 -138.75 -52.8 -138.95 -50.65 -138.4 -43.55 -138.1 -36.2 -138.45 -34.3 -138.55 -20.2 -139.9 -19.75 -139.95 -10.65 -141.1 -9.5 -141.25 -5.0 -141.85 -4.65 -141.9 -3.4 -142.1 -3.25 -142.1 -2.8 -142.2 -2.8 -139.6 -0.5 -139.65 5.55 -139.95 5.7 -140.15 9.1 -140.35 21.3 -141.45 36.9 -143.6 Q36.9 -142.35 37.55 -140.95 M-2.8 -139.6 L-3.7 -139.6 -4.15 -49.2 -8.05 33.15 -8.2 48.8 -7.8 52.85 -7.45 56.65 -7.8 52.85 -8.2 48.8 -8.05 33.15 -4.15 -49.2 -3.7 -139.6 -2.8 -139.6 M-54.15 -129.4 L-54.75 -125.3 -55.2 -122.0 -55.4 -120.75 -55.5 -120.0 -58.8 -99.75 -61.35 32.9 -59.45 54.6 -59.45 54.65 -58.8 62.0 -59.45 54.65 -59.45 54.6 -61.35 32.9 -58.8 -99.75 -55.5 -120.0 -55.4 -120.75 -55.2 -122.0 -54.75 -125.3 -54.15 -129.4 M38.3 -139.75 L38.6 -134.75 38.95 -128.8 39.15 -124.9 39.2 -123.6 Q39.6 -113.7 39.6 -103.35 L37.9 -15.85 39.6 -103.35 Q39.6 -113.7 39.2 -123.6 L39.15 -124.9 38.95 -128.8 38.6 -134.75 38.3 -139.75 M-59.55 127.65 Q-56.5 96.45 -56.7 86.3 L-58.8 62.0 -59.55 127.65 -60.4 135.6 -61.35 144.3 -60.65 144.3 -61.35 144.3 -60.4 135.6 -59.55 127.65 M-8.05 123.8 Q-5.05 94.3 -5.45 84.2 -5.7 76.85 -7.45 56.65 L-8.05 123.8 -9.15 134.1 -9.25 142.3 -8.2 142.35 -9.25 142.3 -9.15 134.1 -8.05 123.8" fill="#ffffff" fill-opacity="0.0" fill-rule="evenodd" stroke="none"/>
    <path d="M37.55 -140.95 L38.3 -139.75 38.05 -141.95 39.25 -141.7 46.0 -141.45 49.9 -141.55 52.8 -141.7 53.7 -141.75 68.5 -143.15 80.55 -144.65 87.25 -145.6 86.75 -52.85 82.6 29.8 81.55 141.2 64.45 140.95 64.45 140.9 37.0 140.4 Q41.9 95.35 41.65 82.65 41.4 74.6 39.3 51.05 L37.0 29.3 37.9 -15.85 35.5 31.6 34.45 143.0 -8.2 142.35 -8.25 144.55 -25.35 144.55 -25.35 144.5 -60.65 144.3 -60.95 146.4 -76.85 146.4 -76.75 146.2 -104.35 145.85 Q-99.15 100.8 -99.65 87.85 -99.95 79.8 -102.0 56.5 L-104.35 34.45 -101.75 -98.2 Q-101.75 -109.85 -102.25 -121.0 L-102.65 -128.25 -102.8 -130.85 -103.3 -136.5 Q-99.8 -135.55 -88.7 -136.35 L-88.55 -136.5 -85.15 -136.7 -83.05 -136.8 -81.15 -137.0 -80.75 -137.05 -79.35 -137.2 -75.2 -137.6 -69.95 -138.2 -54.1 -140.4 -54.15 -129.4 -53.65 -133.0 -52.85 -138.75 -52.8 -138.95 -50.65 -138.4 -43.55 -138.1 -36.2 -138.45 -34.3 -138.55 -20.2 -139.9 -19.75 -139.95 -10.65 -141.1 -9.5 -141.25 -5.0 -141.85 -4.65 -141.9 -3.4 -142.1 -3.25 -142.1 -2.8 -142.2 -2.8 -139.6 -0.5 -139.65 5.55 -139.95 5.7 -140.15 9.1 -140.35 21.3 -141.45 36.9 -143.6 Q36.9 -142.35 37.55 -140.95 M37.9 -15.85 L39.6 -103.35 Q39.6 -113.7 39.2 -123.6 L39.15 -124.9 38.95 -128.8 38.6 -134.75 38.3 -139.75 M-58.8 62.0 L-59.45 54.65 -59.45 54.6 -61.35 32.9 -58.8 -99.75 -55.5 -120.0 -55.4 -120.75 -55.2 -122.0 -54.75 -125.3 -54.15 -129.4 M-7.45 56.65 L-7.8 52.85 -8.2 48.8 -8.05 33.15 -4.15 -49.2 -3.7 -139.6 -2.8 -139.6 M-59.55 127.65 Q-56.5 96.45 -56.7 86.3 L-58.8 62.0 -59.55 127.65 -60.4 135.6 -61.35 144.3 -60.65 144.3 M-8.05 123.8 Q-5.05 94.3 -5.45 84.2 -5.7 76.85 -7.45 56.65 L-8.05 123.8 -9.15 134.1 -9.25 142.3 -8.2 142.35" fill="none" stroke="#000000" stroke-linecap="round" stroke-linejoin="round" stroke-width="1.0"/>
    <path d="M35.5 31.6 L34.45 143.0 17.4 142.75 17.6 142.0 19.95 115.55 27.7 86.8 29.5 42.5 Q27.7 15.3 25.1 4.15 23.3 -4.15 21.5 -28.75 19.7 -53.35 20.2 -58.3 20.7 -60.85 19.95 -76.7 19.15 -92.2 20.2 -96.9 21.25 -102.3 16.85 -114.25 L11.9 -125.1 2.85 -72.8 Q1.55 -84.95 3.1 -113.45 L4.15 -138.35 5.55 -139.95 5.7 -140.15 9.1 -140.35 21.3 -141.45 36.9 -143.6 Q36.9 -142.35 37.55 -140.95 L38.3 -139.75 38.6 -134.75 38.95 -128.8 39.15 -124.9 39.2 -123.6 Q39.6 -113.7 39.6 -103.35 L37.9 -15.85 35.5 31.6 M87.25 -145.6 L86.75 -52.85 82.6 29.8 81.55 141.2 64.45 140.95 64.45 140.4 67.05 113.75 74.55 85.0 76.65 40.7 Q74.8 13.75 72.2 2.6 70.4 -5.7 68.6 -30.55 66.8 -55.15 67.3 -60.1 67.55 -62.45 67.05 -78.5 66.25 -93.8 67.3 -98.7 68.35 -104.15 63.95 -116.05 L59.0 -126.95 49.95 -74.6 Q48.65 -86.8 50.2 -115.3 L51.25 -140.15 52.8 -141.7 53.7 -141.75 68.5 -143.15 80.55 -144.65 87.25 -145.6 M-54.1 -140.4 L-54.15 -129.4 -54.75 -125.3 -55.2 -122.0 -55.4 -120.75 -55.5 -120.0 -58.8 -99.75 -61.35 32.9 -59.45 54.6 -59.45 54.65 -58.8 62.0 -59.55 127.65 -60.4 135.6 -61.35 144.3 -60.65 144.3 -60.95 146.4 -76.85 146.4 -76.6 145.6 -74.3 119.2 -66.5 90.4 -64.7 46.1 Q-66.5 18.9 -68.85 7.5 -70.65 -0.25 -72.75 -25.4 -74.55 -49.75 -74.0 -54.9 -73.5 -57.5 -74.3 -73.3 -75.05 -88.6 -74.0 -93.25 -73.0 -98.7 -77.4 -110.6 L-82.3 -121.5 -91.4 -69.15 Q-92.15 -77.7 -91.1 -109.85 L-90.1 -134.95 -88.55 -136.5 -85.15 -136.7 -83.05 -136.8 -81.15 -137.0 -69.95 -138.2 -54.1 -140.4 M-7.8 52.85 L-7.45 56.65 -8.05 123.8 -9.15 134.1 -9.25 142.3 -8.2 142.35 -8.25 144.55 -25.35 144.55 -25.35 143.8 -23.05 117.1 -15.25 88.35 -13.45 44.05 Q-15.25 17.1 -17.6 5.7 -19.4 -2.6 -21.45 -27.2 -23.2 -49.25 -22.55 -55.3 -31.3 12.0 -33.65 34.2 -32.35 2.6 -30.8 -123.55 L-42.7 -18.9 Q-40.9 -85.5 -39.85 -111.9 L-38.85 -136.8 -37.0 -138.35 -34.3 -138.55 -20.2 -139.9 -19.75 -139.95 -10.65 -141.1 -9.5 -141.25 -5.0 -141.85 -4.65 -141.9 -3.4 -142.1 -3.25 -142.1 -2.8 -142.2 -2.8 -139.6 -3.7 -139.6 -4.15 -49.2 -8.05 33.15 -8.2 48.8 -7.8 52.85 M-43.0 -14.25 Q-45.05 38.1 -47.1 18.15 L-42.85 -17.3 -43.0 -14.25" fill="#000000" fill-opacity="0.09803922" fill-rule="evenodd" stroke="none"/>
  </g>
</svg>
