<?xml version="1.0" encoding="UTF-8" standalone="no"?>
<svg xmlns:xlink="http://www.w3.org/1999/xlink" height="614.0px" width="502.05px" xmlns="http://www.w3.org/2000/svg">
  <g transform="matrix(1.0, 0.0, 0.0, 1.0, 251.05, 307.0)">
    <path d="M-86.85 280.1 Q-149.7 269.2 -175.95 256.35 -214.7 237.7 -230.7 199.45 -227.9 204.2 -222.8 207.75 -214.0 213.75 -203.25 212.65 -228.95 196.1 -242.0 159.85 -253.95 126.55 -250.1 92.75 -248.85 82.7 -244.65 67.4 L-237.4 41.7 Q-230.7 14.55 -236.15 -5.35 -231.25 7.35 -222.25 14.75 -224.55 -4.65 -219.95 -19.1 -215.55 -33.35 -202.7 -49.55 -183.35 -73.85 -175.4 -89.35 -165.55 -108.2 -161.0 -134.05 -151.3 -133.2 -145.85 -118.75 -138.95 -101.15 -134.05 -97.45 -133.0 -107.3 -134.05 -144.8 -134.9 -175.1 -129.8 -190.95 -121.9 -215.8 -97.05 -239.2 L-75.75 -258.05 Q-63.75 -268.8 -56.35 -277.4 -68.7 -262.45 -77.5 -243.95 -89.3 -219.65 -86.3 -204.7 -84.7 -196.75 -76.1 -186.75 -66.4 -175.8 -64.3 -169.8 -60.6 -159.25 -65.35 -142.7 -71.15 -123.0 -70.8 -115.6 -70.3 -103.95 -62.35 -91.8 -57.8 -84.75 -47.05 -71.2 -35.05 -54.65 -29.8 -39.0 -23.95 -21.9 -25.2 -2.9 -24.5 -9.05 -24.85 -26.1 -25.05 -41.25 -23.45 -49.0 -21.5 -58.35 -13.75 -65.05 -3.55 -73.85 -1.6 -77.0 5.6 -88.3 -2.5 -114.35 -12.35 -145.7 -11.45 -155.55 -10.6 -166.1 0.15 -190.05 8.95 -209.8 5.8 -224.6 3.5 -235.5 -9.35 -265.6 -20.25 -291.35 -21.0 -307.0 -12.9 -300.5 -3.2 -284.1 10.9 -260.15 12.15 -258.6 22.0 -244.85 25.7 -235.7 31.15 -221.95 28.0 -209.6 26.2 -202.95 17.6 -189.55 10.35 -178.25 10.2 -167.9 9.85 -153.25 14.95 -131.8 15.85 -128.1 24.65 -96.9 25.35 -94.65 37.85 -69.6 47.0 -51.5 43.85 -41.1 42.05 -34.95 36.1 -26.85 L25.85 -12.9 Q14.6 4.0 23.6 18.95 26.05 -6.95 36.1 -16.1 40.3 -19.95 50.85 -23.3 58.95 -25.95 61.45 -32.3 65.5 -42.3 57.05 -64.35 48.75 -86.0 54.05 -96.9 56.15 -101.3 64.25 -107.5 72.0 -113.45 73.95 -118.4 77.8 -128.6 73.05 -142.7 66.2 -158.35 63.75 -165.95 57.4 -186.55 67.25 -210.15 L76.25 -230.05 Q81.15 -241.65 83.1 -251.35 80.1 -233.4 82.55 -216.15 84.15 -202.95 90.5 -181.6 93.85 -170.0 87.15 -137.4 81.35 -108.35 91.4 -91.3 95.8 -83.7 111.8 -72.8 126.25 -62.75 129.95 -53.05 134.85 -39.85 127.5 -29.1 123.25 -22.8 111.1 -9.75 89.25 20.7 108.65 38.0 117.25 45.75 157.75 60.7 152.85 48.35 150.9 32.7 148.45 14.4 152.15 3.45 152.3 2.75 161.8 -13.95 166.9 -23.3 164.45 -35.3 160.4 -54.65 160.4 -58.9 160.25 -64.85 164.45 -83.0 168.0 -98.15 165.5 -113.8 163.05 -129.65 154.95 -142.35 168.85 -129.65 184.7 -104.65 206.2 -70.7 211.15 -64.15 215.35 -58.7 226.1 -47.45 235.1 -36.85 236.5 -28.05 237.9 -20.15 232.8 -6.75 L225.05 14.05 Q224.5 16.5 221.85 23.35 219.95 29.9 221.5 32.85 222.9 35.5 227.5 34.8 232.25 34.3 232.95 35.15 248.8 55.05 250.75 85.35 252.0 104.9 246.7 141.7 239.3 192.75 201.8 234.35 166.55 273.25 115.85 292.6 58.45 314.45 21.45 303.2 16.0 301.6 -3.55 293.7 -18.7 287.5 -29.25 285.75 -38.95 284.0 -57.95 282.95 -77.5 281.7 -86.85 280.1" fill="#ffffff" fill-opacity="0.0" fill-rule="evenodd" stroke="none"/>
  </g>
</svg>
