<?xml version="1.0" encoding="UTF-8" standalone="no"?>
<svg xmlns:xlink="http://www.w3.org/1999/xlink" height="80.35px" width="84.45px" xmlns="http://www.w3.org/2000/svg">
  <g transform="matrix(1.0, 0.0, 0.0, 1.0, 42.2, 40.15)">
    <path d="M31.85 -37.25 L31.0 -37.25 Q30.55 -37.25 30.25 -37.55 29.95 -37.9 29.95 -38.4 29.95 -38.85 30.25 -39.15 30.55 -39.5 31.0 -39.5 L38.85 -39.45 39.2 -39.45 39.95 -39.15 40.25 -38.35 39.95 -37.55 Q39.6 -37.25 39.2 -37.25 L38.85 -37.25 38.35 -37.25 39.25 -36.4 39.5 -36.2 40.9 -35.3 41.05 -35.2 41.75 -34.8 41.75 -14.9 39.15 -13.05 39.0 -12.9 38.65 -12.65 38.6 -12.6 38.3 -12.35 37.95 -12.0 37.75 -11.8 37.65 -11.7 37.5 -11.55 37.15 -11.05 38.15 -11.05 38.7 -10.75 38.9 -9.95 38.7 -9.15 Q38.45 -8.85 38.15 -8.85 L37.4 -8.85 33.25 -8.85 32.3 -8.85 31.8 -9.15 Q31.55 -9.5 31.55 -9.95 L31.8 -10.75 32.3 -11.05 33.0 -11.05 31.3 -12.75 31.25 -12.8 31.2 -12.85 31.15 -12.85 31.15 -12.9 31.05 -12.95 30.95 -13.05 28.35 -14.9 28.4 -34.8 29.2 -35.25 29.15 -35.25 29.55 -35.45 29.85 -35.65 29.9 -35.7 30.45 -36.1 31.0 -36.5 31.2 -36.65 31.85 -37.25 38.35 -37.25 31.85 -37.25 M9.05 2.25 L9.05 15.45 9.05 18.85 7.65 19.8 5.3 21.35 5.05 21.55 5.3 21.35 7.65 19.8 7.3 20.05 Q9.05 22.45 9.0 25.6 9.0 29.65 6.15 32.5 3.25 35.35 -0.75 35.35 -4.8 35.35 -7.65 32.5 -10.5 29.65 -10.5 25.6 -10.45 22.3 -8.55 19.8 L-8.75 19.65 -8.8 19.6 -8.85 19.55 -9.85 18.95 -10.05 18.8 9.05 18.85 -10.05 18.8 -10.05 15.0 -10.0 1.85 -10.0 -2.5 -10.0 -7.85 -9.3 -8.2 -8.85 -8.45 -9.0 -8.45 -8.45 -8.7 -6.8 -9.75 -6.4 -10.0 -6.3 -10.1 -6.05 -10.3 -5.1 -11.15 -5.6 -11.15 -6.3 -11.15 Q-6.95 -11.15 -7.4 -11.6 -7.85 -12.05 -7.85 -12.65 L-7.45 -13.6 -7.35 -13.7 -6.3 -14.15 5.45 -14.1 Q6.05 -14.1 6.45 -13.65 L6.5 -13.6 Q6.9 -13.15 6.9 -12.6 6.9 -12.0 6.45 -11.55 6.0 -11.1 5.4 -11.1 L4.45 -11.1 4.15 -11.1 Q5.45 -9.85 8.05 -8.4 L8.0 -8.4 8.35 -8.2 9.05 -7.85 9.05 -2.15 9.05 2.25 M-37.45 -9.0 L-38.2 -9.0 -38.7 -9.35 -38.95 -10.15 -38.7 -10.9 -38.2 -11.25 -37.0 -11.25 -37.25 -11.5 -37.75 -12.0 -37.8 -12.1 -38.05 -12.3 -39.1 -13.2 -41.7 -15.05 -41.7 -34.95 -40.9 -35.4 -41.0 -35.4 Q-39.85 -36.05 -38.95 -36.8 L-38.25 -37.4 -39.1 -37.4 Q-39.55 -37.4 -39.85 -37.75 L-40.15 -38.55 -39.85 -39.3 Q-39.55 -39.65 -39.1 -39.65 L-30.9 -39.65 Q-30.45 -39.65 -30.15 -39.3 -29.85 -39.0 -29.85 -38.5 -29.85 -38.05 -30.15 -37.7 -30.45 -37.4 -30.9 -37.4 L-31.75 -37.4 -29.9 -35.9 -29.6 -35.7 -29.45 -35.6 -28.3 -34.95 -28.4 -15.05 -31.0 -13.2 -33.1 -11.25 -32.35 -11.25 -31.8 -10.9 -31.6 -10.1 -31.8 -9.3 Q-32.05 -9.0 -32.35 -9.0 L-33.25 -9.0 -37.45 -9.0 M30.1 -33.75 L29.85 -33.2 29.8 -17.05 Q29.8 -16.7 30.1 -16.45 30.35 -16.2 30.7 -16.2 31.1 -16.2 31.4 -16.45 L31.65 -17.05 31.65 -33.2 31.4 -33.75 30.8 -34.0 30.1 -33.75 M37.15 -11.05 L33.0 -11.05 37.15 -11.05 M41.05 -35.2 L29.2 -35.25 41.05 -35.2 M28.35 -14.9 L41.75 -14.9 28.35 -14.9 M-6.25 21.35 L-6.35 21.3 -8.75 19.65 -6.35 21.3 -6.25 21.35 Q-7.75 23.2 -7.75 25.6 -7.75 28.5 -5.7 30.55 -3.65 32.6 -0.75 32.65 2.15 32.65 4.2 30.6 6.25 28.5 6.3 25.6 6.3 23.3 5.05 21.55 L3.35 22.95 Q4.1 24.1 4.1 25.6 4.1 27.6 2.7 29.05 1.25 30.45 -0.75 30.45 -2.8 30.45 -4.2 29.05 -5.6 27.6 -5.6 25.6 -5.6 23.95 -4.6 22.7 L-6.25 21.35 M3.35 22.95 Q1.5 24.6 1.4 25.65 L-2.45 25.65 Q-2.55 24.55 -4.6 22.7 -2.55 24.55 -2.45 25.65 L1.4 25.65 Q1.5 24.6 3.35 22.95 M-31.75 -37.4 L-38.25 -37.4 -31.75 -37.4 M-38.85 -33.9 L-39.5 -34.15 -40.15 -33.9 -40.4 -33.35 -40.4 -17.2 -40.15 -16.65 -39.55 -16.4 Q-39.1 -16.4 -38.85 -16.65 -38.6 -16.85 -38.6 -17.2 L-38.55 -33.35 -38.85 -33.9 M-29.05 -35.35 L-29.45 -35.6 -29.05 -35.35 -40.9 -35.4 -29.05 -35.35 M-33.1 -11.25 L-37.0 -11.25 -33.1 -11.25 M-6.85 -6.8 Q-7.1 -7.15 -7.55 -7.15 -7.9 -7.15 -8.15 -6.8 L-8.45 -6.0 -8.5 16.85 -8.25 17.65 Q-7.95 18.0 -7.55 18.0 -7.2 18.0 -6.95 17.65 -6.65 17.4 -6.65 16.9 L-6.6 -5.95 Q-6.6 -6.45 -6.85 -6.8 M-28.4 -15.05 L-41.7 -15.05 -28.4 -15.05 M-5.1 -11.15 L4.15 -11.1 -5.1 -11.15 M8.0 -8.4 L-8.85 -8.45 8.0 -8.4" fill="#ffffff" fill-opacity="0.0" fill-rule="evenodd" stroke="none"/>
    <path d="M31.2 -12.85 L31.15 -12.85 31.2 -12.85 M31.15 -12.9 L31.1 -12.9 31.05 -12.95 31.15 -12.9 M31.0 -36.5 L31.85 -37.25 31.2 -36.65 31.0 -36.5" fill="#efefef" fill-rule="evenodd" stroke="none"/>
    <path d="M37.4 -8.85 Q36.7 -5.3 34.6 -2.8 30.85 1.75 23.35 1.7 L18.7 1.3 15.1 0.95 Q11.65 1.0 9.05 2.25 L9.05 -2.15 Q11.85 -3.15 15.1 -3.1 L19.35 -2.75 23.35 -2.35 Q28.9 -2.4 31.5 -5.4 32.7 -6.85 33.25 -8.85 L37.4 -8.85 M-10.0 1.85 Q-12.3 0.95 -15.2 0.9 L-18.75 1.2 -23.45 1.6 Q-30.9 1.6 -34.65 -2.95 -36.8 -5.5 -37.45 -9.0 L-33.25 -9.0 Q-32.7 -7.0 -31.5 -5.55 -28.9 -2.5 -23.4 -2.5 L-19.4 -2.8 -15.2 -3.2 -10.0 -2.5 -10.0 1.85" fill="#000000" fill-opacity="0.24705882" fill-rule="evenodd" stroke="none"/>
    <path d="M9.05 15.45 L9.25 15.65 Q13.35 19.8 13.35 25.6 13.35 31.5 9.2 35.6 5.05 39.75 -0.75 39.7 -6.6 39.7 -10.75 35.55 -14.9 31.4 -14.85 25.6 -14.85 19.75 -10.7 15.6 L-10.05 15.0 -10.05 18.8 -9.85 18.95 -8.85 19.55 -8.8 19.6 -8.75 19.65 -8.55 19.8 Q-10.45 22.3 -10.5 25.6 -10.5 29.65 -7.65 32.5 -4.8 35.35 -0.75 35.35 3.25 35.35 6.15 32.5 9.0 29.65 9.0 25.6 9.05 22.45 7.3 20.05 L7.65 19.8 9.05 18.85 9.05 15.45 M-6.25 21.35 L-4.6 22.7 Q-5.6 23.95 -5.6 25.6 -5.6 27.6 -4.2 29.05 -2.8 30.45 -0.75 30.45 1.25 30.45 2.7 29.05 4.1 27.6 4.1 25.6 4.1 24.1 3.35 22.95 L5.05 21.55 Q6.3 23.3 6.3 25.6 6.25 28.5 4.2 30.6 2.15 32.65 -0.75 32.65 -3.65 32.6 -5.7 30.55 -7.75 28.5 -7.75 25.6 -7.75 23.2 -6.25 21.35" fill="#000000" fill-opacity="0.29803923" fill-rule="evenodd" stroke="none"/>
    <path d="M30.1 -33.75 L30.8 -34.0 31.4 -33.75 31.65 -33.2 31.65 -17.05 31.4 -16.45 Q31.1 -16.2 30.7 -16.2 30.35 -16.2 30.1 -16.45 29.8 -16.7 29.8 -17.05 L29.85 -33.2 30.1 -33.75 M-38.85 -33.9 L-38.55 -33.35 -38.6 -17.2 Q-38.6 -16.85 -38.85 -16.65 -39.1 -16.4 -39.55 -16.4 L-40.15 -16.65 -40.4 -17.2 -40.4 -33.35 -40.15 -33.9 -39.5 -34.15 -38.85 -33.9 M-6.85 -6.8 Q-6.6 -6.45 -6.6 -5.95 L-6.65 16.9 Q-6.65 17.4 -6.95 17.65 -7.2 18.0 -7.55 18.0 -7.95 18.0 -8.25 17.65 L-8.5 16.85 -8.45 -6.0 -8.15 -6.8 Q-7.9 -7.15 -7.55 -7.15 -7.1 -7.15 -6.85 -6.8" fill="#ffffff" fill-opacity="0.24705882" fill-rule="evenodd" stroke="none"/>
    <path d="M31.85 -37.25 L31.0 -37.25 Q30.55 -37.25 30.25 -37.55 29.95 -37.9 29.95 -38.4 29.95 -38.85 30.25 -39.15 30.55 -39.5 31.0 -39.5 M38.85 -39.45 L39.2 -39.45 39.95 -39.15 40.25 -38.35 39.95 -37.55 Q39.6 -37.25 39.2 -37.25 L38.85 -37.25 M38.35 -37.25 L39.25 -36.4 39.5 -36.2 40.9 -35.3 41.05 -35.2 41.75 -34.8 41.75 -14.9 39.15 -13.05 39.0 -12.9 38.65 -12.65 38.6 -12.6 38.3 -12.35 37.95 -12.0 37.75 -11.8 37.65 -11.7 37.5 -11.55 37.15 -11.05 38.15 -11.05 38.7 -10.75 38.9 -9.95 38.7 -9.15 Q38.45 -8.85 38.15 -8.85 M37.4 -8.85 Q36.7 -5.3 34.6 -2.8 30.85 1.75 23.35 1.7 L18.7 1.3 15.1 0.95 Q11.65 1.0 9.05 2.25 L9.05 15.45 9.25 15.65 Q13.35 19.8 13.35 25.6 13.35 31.5 9.2 35.6 5.05 39.75 -0.75 39.7 -6.6 39.7 -10.75 35.55 -14.9 31.4 -14.85 25.6 -14.85 19.75 -10.7 15.6 L-10.05 15.0 -10.0 1.85 Q-12.3 0.95 -15.2 0.9 L-18.75 1.2 -23.45 1.6 Q-30.9 1.6 -34.65 -2.95 -36.8 -5.5 -37.45 -9.0 M-38.2 -9.0 L-38.7 -9.35 -38.95 -10.15 -38.7 -10.9 -38.2 -11.25 -37.0 -11.25 -37.25 -11.5 -37.75 -12.0 -37.8 -12.1 -38.05 -12.3 -39.1 -13.2 -41.7 -15.05 -41.7 -34.95 M-41.0 -35.4 Q-39.85 -36.05 -38.95 -36.8 M-38.25 -37.4 L-39.1 -37.4 Q-39.55 -37.4 -39.85 -37.75 L-40.15 -38.55 -39.85 -39.3 Q-39.55 -39.65 -39.1 -39.65 M-30.9 -39.65 Q-30.45 -39.65 -30.15 -39.3 -29.85 -39.0 -29.85 -38.5 -29.85 -38.05 -30.15 -37.7 -30.45 -37.4 -30.9 -37.4 L-31.75 -37.4 -29.9 -35.9 -29.6 -35.7 M-28.3 -34.95 L-28.4 -15.05 -31.0 -13.2 -33.1 -11.25 M-32.35 -11.25 L-31.8 -10.9 -31.6 -10.1 -31.8 -9.3 Q-32.05 -9.0 -32.35 -9.0 M-33.25 -9.0 Q-32.7 -7.0 -31.5 -5.55 -28.9 -2.5 -23.4 -2.5 L-19.4 -2.8 -15.2 -3.2 -10.0 -2.5 -10.0 -7.85 -9.3 -8.2 M-5.6 -11.15 L-6.3 -11.15 Q-6.95 -11.15 -7.4 -11.6 -7.85 -12.05 -7.85 -12.65 L-7.45 -13.6 -7.35 -13.7 -6.3 -14.15 5.45 -14.1 Q6.05 -14.1 6.45 -13.65 L6.5 -13.6 Q6.9 -13.15 6.9 -12.6 6.9 -12.0 6.45 -11.55 6.0 -11.1 5.4 -11.1 L4.45 -11.1 M8.35 -8.2 L9.05 -7.85 9.05 -2.15 Q11.85 -3.15 15.1 -3.1 L19.35 -2.75 23.35 -2.35 Q28.9 -2.4 31.5 -5.4 32.7 -6.85 33.25 -8.85 M32.3 -8.85 L31.8 -9.15 Q31.55 -9.5 31.55 -9.95 L31.8 -10.75 32.3 -11.05 M33.0 -11.05 L31.3 -12.75 31.25 -12.8 M31.05 -12.95 L30.95 -13.05 28.35 -14.9 28.4 -34.8 M29.55 -35.45 L29.85 -35.65 29.9 -35.7 M-29.45 -35.6 L-29.05 -35.35" fill="none" stroke="#000000" stroke-linecap="round" stroke-linejoin="miter-clip" stroke-miterlimit="4.0" stroke-width="1.0"/>
    <path d="M38.85 -37.25 L38.35 -37.25 M38.15 -8.85 L37.4 -8.85 33.25 -8.85 32.3 -8.85 M-37.45 -9.0 L-38.2 -9.0 M-41.7 -34.95 L-40.9 -35.4 -41.0 -35.4 M-29.6 -35.7 L-29.45 -35.6 -28.3 -34.95 M-33.1 -11.25 L-32.35 -11.25 M-32.35 -9.0 L-33.25 -9.0 -37.45 -9.0 M32.3 -11.05 L33.0 -11.05 37.15 -11.05 M28.4 -34.8 L29.2 -35.25 29.15 -35.25 29.55 -35.45 M31.0 -36.5 L31.85 -37.25 M31.05 -12.95 L31.15 -12.9 M31.15 -12.85 L31.2 -12.85 M41.75 -14.9 L28.35 -14.9 M7.3 20.05 Q9.05 22.45 9.0 25.6 9.0 29.65 6.15 32.5 3.25 35.35 -0.75 35.35 -4.8 35.35 -7.65 32.5 -10.5 29.65 -10.5 25.6 -10.45 22.3 -8.55 19.8 M3.35 22.95 Q4.1 24.1 4.1 25.6 4.1 27.6 2.7 29.05 1.25 30.45 -0.75 30.45 -2.8 30.45 -4.2 29.05 -5.6 27.6 -5.6 25.6 -5.6 23.95 -4.6 22.7 M5.05 21.55 Q6.3 23.3 6.3 25.6 6.25 28.5 4.2 30.6 2.15 32.65 -0.75 32.65 -3.65 32.6 -5.7 30.55 -7.75 28.5 -7.75 25.6 -7.75 23.2 -6.25 21.35 M-37.0 -11.25 L-33.1 -11.25 M-41.7 -15.05 L-28.4 -15.05" fill="none" stroke="#000000" stroke-linecap="round" stroke-linejoin="miter-clip" stroke-miterlimit="4.0" stroke-opacity="0.4" stroke-width="1.0"/>
    <path d="M31.0 -39.5 L38.85 -39.45 M-38.95 -36.8 L-38.25 -37.4 -31.75 -37.4 M-39.1 -39.65 L-30.9 -39.65 M-9.3 -8.2 L-8.85 -8.45 -9.0 -8.45 -8.45 -8.7 -6.8 -9.75 -6.4 -10.0 -6.3 -10.1 -6.05 -10.3 -5.1 -11.15 -5.6 -11.15 M4.45 -11.1 L4.15 -11.1 Q5.45 -9.85 8.05 -8.4 L8.0 -8.4 8.35 -8.2 M31.25 -12.8 L31.2 -12.85 31.15 -12.85 31.15 -12.9 31.1 -12.9 31.05 -12.95 M30.45 -36.1 L31.0 -36.5 31.2 -36.65 31.85 -37.25 38.35 -37.25 M29.2 -35.25 L41.05 -35.2 M7.65 19.8 L9.05 18.85 -10.05 18.8 -9.85 18.95 -8.85 19.55 -8.8 19.6 M-8.75 19.65 L-6.35 21.3 -6.25 21.35 -4.6 22.7 Q-2.55 24.55 -2.45 25.65 L1.4 25.65 Q1.5 24.6 3.35 22.95 L5.05 21.55 5.3 21.35 7.65 19.8 M9.05 18.85 L9.05 15.45 M9.05 2.25 L9.05 -2.15 M-29.05 -35.35 L-40.9 -35.4 M-10.05 15.0 L-10.05 18.8 M-10.0 -2.5 L-10.0 1.85 M-8.85 -8.45 L8.0 -8.4 M4.15 -11.1 L-5.1 -11.15" fill="none" stroke="#000000" stroke-linecap="round" stroke-linejoin="miter-clip" stroke-miterlimit="4.0" stroke-opacity="0.6" stroke-width="1.0"/>
  </g>
</svg>
