<?xml version="1.0" encoding="UTF-8" standalone="no"?>
<svg xmlns:xlink="http://www.w3.org/1999/xlink" height="62.85px" width="1204.2px" xmlns="http://www.w3.org/2000/svg">
  <g transform="matrix(1.0, 0.0, 0.0, 1.0, 602.1, 31.45)">
    <path d="M214.7 -10.55 L221.75 -10.55 Q224.0 -10.55 225.6 -12.1 227.2 -13.65 227.2 -15.85 227.2 -18.05 225.6 -19.6 224.0 -21.15 221.75 -21.15 L214.7 -21.15 214.7 -25.0 251.25 -25.0 251.25 3.85 214.7 3.85 214.7 -10.55 M-218.3 -21.15 L-224.4 -21.15 Q-226.65 -21.15 -228.25 -19.6 -229.85 -18.05 -229.85 -15.85 -229.85 -13.65 -228.25 -12.1 -226.65 -10.55 -224.4 -10.55 L-218.3 -10.55 -218.3 3.85 -252.0 3.85 -252.0 -25.0 -218.3 -25.0 -218.3 -21.15" fill="#000000" fill-opacity="0.14901961" fill-rule="evenodd" stroke="none"/>
    <path d="M214.7 -21.15 L221.75 -21.15 Q224.0 -21.15 225.6 -19.6 227.2 -18.05 227.2 -15.85 227.2 -13.65 225.6 -12.1 224.0 -10.55 221.75 -10.55 L214.7 -10.55 -218.3 -10.55 -224.4 -10.55 Q-226.65 -10.55 -228.25 -12.1 -229.85 -13.65 -229.85 -15.85 -229.85 -18.05 -228.25 -19.6 -226.65 -21.15 -224.4 -21.15 L-218.3 -21.15 214.7 -21.15 M584.65 1.85 Q578.95 2.15 574.15 -1.05 568.3 -4.95 567.15 -11.6 566.05 -18.3 570.2 -23.85 574.25 -29.25 581.0 -30.55 574.25 -29.25 570.2 -23.85 566.05 -18.3 567.15 -11.6 568.3 -4.95 574.15 -1.05 578.95 2.15 584.65 1.85 L323.05 30.9 Q317.55 25.45 318.25 18.85 318.6 15.55 320.05 13.35 L581.0 -30.55 581.45 -30.65 Q588.55 -31.9 594.35 -28.05 600.2 -24.15 601.3 -17.5 602.45 -10.8 598.3 -5.25 594.1 0.35 587.0 1.6 L584.65 1.85 M-583.6 9.1 L-586.05 8.95 Q-593.15 8.15 -597.65 2.85 -602.15 -2.5 -601.4 -9.25 -600.65 -15.95 -595.05 -20.15 -589.45 -24.35 -582.35 -23.55 L-581.9 -23.5 Q-575.1 -22.6 -570.75 -17.45 -566.25 -12.1 -567.0 -5.35 -567.75 1.35 -573.35 5.55 -577.95 9.0 -583.6 9.1 -577.95 9.0 -573.35 5.55 -567.75 1.35 -567.0 -5.35 -566.25 -12.1 -570.75 -17.45 -575.1 -22.6 -581.9 -23.5 L-318.8 5.15 Q-317.2 7.3 -316.7 10.55 -315.6 17.1 -320.8 22.85 L-583.6 9.1" fill="#ffffff" fill-opacity="0.0" fill-rule="evenodd" stroke="none"/>
    <path d="M214.7 -21.15 L221.75 -21.15 Q224.0 -21.15 225.6 -19.6 227.2 -18.05 227.2 -15.85 227.2 -13.65 225.6 -12.1 224.0 -10.55 221.75 -10.55 L214.7 -10.55 M-218.3 -21.15 L-224.4 -21.15 Q-226.65 -21.15 -228.25 -19.6 -229.85 -18.05 -229.85 -15.85 -229.85 -13.65 -228.25 -12.1 -226.65 -10.55 -224.4 -10.55 L-218.3 -10.55 M581.0 -30.55 Q574.25 -29.25 570.2 -23.85 566.05 -18.3 567.15 -11.6 568.3 -4.95 574.15 -1.05 578.95 2.15 584.65 1.85 M-583.6 9.1 Q-577.95 9.0 -573.35 5.55 -567.75 1.35 -567.0 -5.35 -566.25 -12.1 -570.75 -17.45 -575.1 -22.6 -581.9 -23.5" fill="none" stroke="#000000" stroke-linecap="round" stroke-linejoin="miter-clip" stroke-miterlimit="4.0" stroke-opacity="0.6" stroke-width="1.0"/>
    <path d="M214.7 -10.55 L214.7 3.85 251.25 3.85 251.25 -25.0 214.7 -25.0 214.7 -21.15 -218.3 -21.15 -218.3 -25.0 -252.0 -25.0 -252.0 3.85 -218.3 3.85 -218.3 -10.55 214.7 -10.55 M584.65 1.85 L587.0 1.6 Q594.1 0.35 598.3 -5.25 602.45 -10.8 601.3 -17.5 600.2 -24.15 594.35 -28.05 588.55 -31.9 581.45 -30.65 L581.0 -30.55 320.05 13.35 Q318.6 15.55 318.25 18.85 317.55 25.45 323.05 30.9 L584.65 1.85 M-581.9 -23.5 L-582.35 -23.55 Q-589.45 -24.35 -595.05 -20.15 -600.65 -15.95 -601.4 -9.25 -602.15 -2.5 -597.65 2.85 -593.15 8.15 -586.05 8.95 L-583.6 9.1 -320.8 22.85 Q-315.6 17.1 -316.7 10.55 -317.2 7.3 -318.8 5.15 L-581.9 -23.5" fill="none" stroke="#000000" stroke-linecap="round" stroke-linejoin="miter-clip" stroke-miterlimit="4.0" stroke-width="1.0"/>
  </g>
</svg>
