<?xml version="1.0" encoding="UTF-8" standalone="no"?>
<svg xmlns:xlink="http://www.w3.org/1999/xlink" height="70.35px" width="92.4px" xmlns="http://www.w3.org/2000/svg">
  <g transform="matrix(1.0, 0.0, 0.0, 1.0, 46.3, 35.15)">
    <path d="M18.0 28.0 L6.85 34.7 -45.4 34.7 -45.65 34.15 -40.55 33.9 -40.55 5.65 -31.85 3.25 -31.85 -28.2 -38.65 -33.05 -38.65 -34.65 30.1 -34.65 32.5 -33.55 Q35.45 -32.0 37.85 -29.9 45.6 -23.25 45.6 -13.7 L45.6 11.3 18.0 28.0 18.0 -34.25 18.0 28.0 M-23.65 33.9 L-23.65 -34.25 -23.65 33.9 M-10.1 33.9 L-10.1 -34.25 -10.1 33.9 M3.45 33.9 L3.45 -34.25 3.45 33.9 M30.6 19.0 L30.6 -33.05 30.6 19.0" fill="#000000" fill-opacity="0.24705882" fill-rule="evenodd" stroke="none"/>
    <path d="M18.0 28.0 L45.6 11.3 45.6 -13.7 Q45.6 -23.25 37.85 -29.9 35.45 -32.0 32.5 -33.55 L30.1 -34.65 -38.65 -34.65 -38.65 -33.05 -31.85 -28.2 -31.85 3.25 -40.55 5.65 -40.55 33.9 -45.65 34.15 -45.4 34.7 6.85 34.7 18.0 28.0 18.0 28.65" fill="none" stroke="#000000" stroke-linecap="round" stroke-linejoin="miter-clip" stroke-miterlimit="4.0" stroke-width="1.0"/>
    <path d="M18.0 28.0 L18.0 -34.25 M30.6 -33.05 L30.6 19.0 M3.45 -34.25 L3.45 33.9 M-10.1 -34.25 L-10.1 33.9 M-23.65 -34.25 L-23.65 33.9" fill="none" stroke="#000000" stroke-linecap="round" stroke-linejoin="miter-clip" stroke-miterlimit="4.0" stroke-opacity="0.4" stroke-width="1.0"/>
  </g>
</svg>
