<?xml version="1.0" encoding="UTF-8" standalone="no"?>
<svg xmlns:xlink="http://www.w3.org/1999/xlink" height="264.1px" width="386.5px" xmlns="http://www.w3.org/2000/svg">
  <g transform="matrix(1.0, 0.0, 0.0, 1.0, 193.25, 132.05)">
    <path d="M-79.65 -111.55 L-79.65 -112.95 Q-79.65 -114.35 -80.75 -115.35 -81.9 -116.35 -83.5 -116.35 -85.1 -116.35 -86.2 -115.35 -87.35 -114.35 -87.35 -112.95 L-87.35 -111.55 -104.25 -111.55 -104.25 -112.95 Q-104.25 -114.35 -105.4 -115.35 -106.5 -116.35 -108.1 -116.35 -109.7 -116.35 -110.85 -115.35 -111.95 -114.35 -111.95 -112.95 L-111.95 -111.55 -128.9 -111.55 -128.9 -112.95 Q-128.9 -114.35 -130.0 -115.35 -131.15 -116.35 -132.75 -116.35 -134.35 -116.35 -135.45 -115.35 -136.6 -114.35 -136.6 -112.95 L-136.6 -111.55 -153.5 -111.55 -153.5 -112.95 Q-153.5 -114.35 -154.65 -115.35 -155.75 -116.35 -157.35 -116.35 -158.95 -116.35 -160.1 -115.35 -161.2 -114.35 -161.2 -112.95 L-161.2 -111.55 -171.15 -111.55 -171.15 10.3 -161.2 10.3 Q-161.15 11.65 -160.1 12.55 -158.95 13.55 -157.35 13.55 -155.75 13.55 -154.65 12.55 -153.55 11.6 -153.5 10.3 L-136.6 10.3 Q-136.55 11.6 -135.45 12.55 -134.35 13.55 -132.75 13.55 -131.15 13.55 -130.0 12.55 -128.95 11.65 -128.9 10.3 L-111.95 10.3 Q-111.9 11.65 -110.85 12.55 -109.7 13.55 -108.1 13.55 -106.5 13.55 -105.4 12.55 -104.3 11.6 -104.25 10.3 L-87.35 10.3 Q-87.3 11.6 -86.2 12.55 -85.1 13.55 -83.5 13.55 -81.9 13.55 -80.75 12.55 -79.7 11.65 -79.65 10.3 L-62.7 10.3 Q-62.65 11.6 -61.6 12.55 -60.5 13.55 -58.9 13.55 -57.3 13.55 -56.15 12.55 -55.1 11.65 -55.05 10.3 L-43.55 10.3 -43.55 -111.55 -55.05 -111.55 -55.05 -112.95 Q-55.05 -114.35 -56.15 -115.35 -57.3 -116.35 -58.9 -116.35 -60.5 -116.35 -61.6 -115.35 -62.7 -114.35 -62.7 -112.95 L-62.7 -111.55 -79.65 -111.55 M-35.8 -118.7 L-35.8 13.7 -178.9 13.7 -178.9 -118.7 -35.8 -118.7" fill="#000000" fill-opacity="0.2" fill-rule="evenodd" stroke="none"/>
    <path d="M-192.75 -131.55 L-21.95 -131.55 -21.95 26.55 -192.75 26.55 -192.75 -131.55 M-35.8 -118.7 L-178.9 -118.7 -178.9 13.7 -35.8 13.7 -35.8 -118.7 M192.75 131.55 L10.4 131.55 10.4 115.65 192.75 115.65 192.75 131.55" fill="#ffffff" fill-opacity="0.0" fill-rule="evenodd" stroke="none"/>
    <path d="M-79.65 -111.55 L-62.7 -111.55 M-55.05 -111.55 L-43.55 -111.55 -43.55 10.3 -55.05 10.3 M-62.7 10.3 L-79.65 10.3 M-87.35 10.3 L-104.25 10.3 M-111.95 10.3 L-128.9 10.3 M-136.6 10.3 L-153.5 10.3 M-161.2 10.3 L-171.15 10.3 -171.15 -111.55 -161.2 -111.55 M-153.5 -111.55 L-136.6 -111.55 M-128.9 -111.55 L-111.95 -111.55 M-104.25 -111.55 L-87.35 -111.55 M-35.8 -118.7 L-35.8 13.7 -178.9 13.7 -178.9 -118.7 -35.8 -118.7 M192.75 131.55 L10.4 131.55 10.4 115.65 192.75 115.65 192.75 131.55" fill="none" stroke="#000000" stroke-linecap="round" stroke-linejoin="miter-clip" stroke-miterlimit="4.0" stroke-opacity="0.6" stroke-width="1.0"/>
    <path d="M-192.75 -131.55 L-192.75 26.55 -21.95 26.55 -21.95 -131.55 -192.75 -131.55" fill="none" stroke="#000000" stroke-linecap="round" stroke-linejoin="miter-clip" stroke-miterlimit="4.0" stroke-width="1.0"/>
  </g>
</svg>
