<?xml version="1.0" encoding="UTF-8" standalone="no"?>
<svg xmlns:xlink="http://www.w3.org/1999/xlink" height="1881.65px" width="104.2px" xmlns="http://www.w3.org/2000/svg">
  <g transform="matrix(1.0, 0.0, 0.0, 1.0, 62.45, 847.1)">
    <path d="M-61.95 -846.6 Q-45.95 -843.95 -21.55 -843.45 L-18.25 -843.4 -10.35 -843.35 Q18.55 -843.35 41.25 -844.65 L41.25 1034.05 -61.95 1034.05 -61.95 875.3 -61.95 715.75 -61.95 556.25 -61.95 396.7 -61.95 237.2 -61.95 77.7 -61.95 -81.8 -61.95 -241.4 -61.95 -400.9 -61.95 -560.45 -61.95 -719.9 -61.95 -846.6 M31.4 875.3 L-61.95 875.3 31.4 875.3 M31.4 715.75 L-61.95 715.75 31.4 715.75 M31.4 556.25 L-61.95 556.25 31.4 556.25 M31.4 396.7 L-61.95 396.7 31.4 396.7 M31.4 77.65 L-61.95 77.7 31.4 77.65 M31.4 237.2 L-61.95 237.2 31.4 237.2 M31.4 -81.85 L-61.95 -81.8 31.4 -81.85 M31.4 -241.4 L-61.95 -241.4 31.4 -241.4 M31.4 -400.9 L-61.95 -400.9 31.4 -400.9 M31.4 -560.45 L-61.95 -560.45 31.4 -560.45 M31.4 -719.95 L-61.95 -719.9 31.4 -719.95" fill="#ffffff" fill-opacity="0.0" fill-rule="evenodd" stroke="none"/>
    <path d="M-61.95 -719.9 L31.4 -719.95 M-61.95 -560.45 L31.4 -560.45 M-61.95 -400.9 L31.4 -400.9 M-61.95 -241.4 L31.4 -241.4 M-61.95 -81.8 L31.4 -81.85 M-61.95 237.2 L31.4 237.2 M-61.95 77.7 L31.4 77.65 M-61.95 396.7 L31.4 396.7 M-61.95 556.25 L31.4 556.25 M-61.95 715.75 L31.4 715.75 M-61.95 875.3 L31.4 875.3" fill="none" stroke="#000000" stroke-linecap="round" stroke-linejoin="miter-clip" stroke-miterlimit="4.0" stroke-opacity="0.6" stroke-width="1.0"/>
    <path d="M41.25 -844.65 L41.25 1034.05 -61.95 1034.05 -61.95 875.3 -61.95 715.75 -61.95 556.25 -61.95 396.7 -61.95 237.2 -61.95 77.7 -61.95 -81.8 -61.95 -241.4 -61.95 -400.9 -61.95 -560.45 -61.95 -719.9 -61.95 -846.6" fill="none" stroke="#000000" stroke-linecap="round" stroke-linejoin="miter-clip" stroke-miterlimit="4.0" stroke-width="1.0"/>
  </g>
</svg>
