<?xml version="1.0" encoding="UTF-8" standalone="no"?>
<svg xmlns:xlink="http://www.w3.org/1999/xlink" height="252.1px" width="295.3px" xmlns="http://www.w3.org/2000/svg">
  <g transform="matrix(1.0, 0.0, 0.0, 1.0, 147.45, 125.75)">
    <path d="M92.0 -100.15 Q95.8 -97.9 103.2 -94.25 110.4 -90.7 114.2 -88.4 L121.9 -84.05 Q126.75 -81.35 129.45 -79.15 L114.45 -83.1 Q113.6 -79.9 121.35 -73.35 L132.4 -64.55 138.1 -60.0 Q141.4 -57.25 142.7 -54.55 143.55 -52.75 144.65 -48.25 145.75 -44.0 146.85 -41.85 143.6 -42.9 142.4 -45.35 141.7 -46.75 140.35 -50.2 138.55 -53.2 136.95 -54.7 L132.4 -58.1 Q130.95 -59.15 123.95 -66.65 118.4 -72.5 115.2 -73.15 114.75 -70.6 115.65 -67.65 116.2 -65.85 117.9 -62.6 113.25 -61.05 111.75 -64.6 L110.05 -71.8 Q108.85 -76.0 106.95 -78.2 L101.25 -83.15 Q98.3 -85.45 94.65 -87.35 L87.7 -90.7 Q84.8 -92.15 80.45 -97.1 76.35 -101.8 73.55 -102.95 75.75 -102.1 82.5 -102.1 88.75 -102.1 92.0 -100.15 M1.85 -23.15 Q5.45 -36.25 9.15 -28.7 10.3 -26.35 11.3 -22.2 L12.1 -18.5 8.55 9.45 5.65 28.3 5.55 41.05 Q5.25 56.45 4.5 69.95 3.3 91.55 -0.95 125.25 L-1.15 124.55 -1.4 123.85 Q-2.55 121.5 -5.6 120.95 -4.1 106.3 -2.05 93.95 L-0.35 84.45 -8.35 104.35 Q-1.45 69.0 1.75 58.15 3.75 51.35 3.85 40.1 L3.5 30.2 0.4 40.25 Q0.35 26.55 1.15 20.2 L2.15 9.85 2.55 4.3 Q-0.95 10.25 -2.3 4.8 L-1.8 1.75 0.15 -10.65 0.3 -11.45 0.4 -12.2 0.45 -12.4 0.5 -12.95 0.6 -13.65 0.65 -13.85 0.75 -14.85 0.65 -13.85 0.65 -14.2 0.75 -14.85 1.85 -23.15 M-64.25 -112.25 Q-68.8 -110.9 -74.35 -110.8 L-85.0 -110.7 Q-84.75 -107.35 -89.8 -102.4 -95.05 -97.2 -95.35 -93.75 -98.6 -96.5 -100.9 -93.75 L-104.05 -87.95 Q-106.65 -83.2 -107.35 -82.3 -109.05 -80.25 -112.95 -78.3 L-108.0 -88.4 Q-104.8 -94.95 -102.45 -97.9 -101.55 -99.0 -94.95 -103.9 -90.15 -107.5 -89.55 -111.4 -100.8 -111.55 -104.45 -109.2 -105.7 -108.4 -108.5 -103.75 -110.4 -100.6 -113.85 -101.55 -113.45 -102.6 -113.15 -104.7 L-112.65 -107.85 Q-115.3 -106.5 -121.55 -105.65 -127.5 -104.85 -130.6 -103.05 -134.2 -100.95 -138.5 -99.05 -141.1 -97.95 -146.85 -95.6 -145.85 -101.6 -134.85 -106.85 -126.75 -110.7 -118.25 -112.3 -116.25 -112.65 -106.45 -116.0 -99.1 -118.5 -94.75 -118.0 -97.85 -123.6 -105.55 -122.65 L-112.1 -121.45 -118.4 -120.9 Q-113.55 -122.75 -110.7 -123.6 -105.35 -125.2 -101.7 -125.25 -97.9 -125.3 -93.55 -123.55 L-85.8 -120.2 Q-80.7 -118.35 -78.4 -118.4 -75.5 -118.45 -71.45 -121.1 -65.95 -124.6 -62.1 -125.0 L-51.45 -124.1 -26.15 -121.5 Q-25.75 -120.35 -25.5 -118.4 -25.3 -116.45 -25.4 -115.25 -25.5 -113.85 -43.65 -113.2 L-64.25 -112.25" fill="#000000" fill-opacity="0.09803922" fill-rule="evenodd" stroke="none"/>
    <path d="M0.6 -13.65 L0.5 -12.95 0.45 -12.4 0.5 -13.05 0.6 -13.65" fill="#a7a9ac" fill-rule="evenodd" stroke="none"/>
    <path d="M-2.3 4.8 Q-0.95 10.25 2.55 4.3 L2.15 9.85 1.15 20.2 Q0.35 26.55 0.4 40.25 L3.5 30.2 3.85 40.1 Q3.75 51.35 1.75 58.15 -1.45 69.0 -8.35 104.35 L-0.35 84.45 -2.05 93.95 Q-4.1 106.3 -5.6 120.95 L-7.6 120.75 Q-13.25 120.7 -16.45 125.0 -16.8 117.25 -13.75 100.75 L-8.75 76.65 Q-6.3 64.95 -5.1 42.3 L-4.4 22.0 -4.9 17.45 Q-5.2 12.6 -4.05 11.2 -3.4 10.4 -2.3 4.8" fill="#ffffff" fill-opacity="0.0" fill-rule="evenodd" stroke="none"/>
    <path d="M-1.8 1.75 L-2.3 4.8 -2.35 4.7 -1.9 2.3 -1.8 1.75 M-5.6 120.95 Q-2.55 121.5 -1.4 123.85 -2.55 121.65 -5.6 121.0 L-5.6 120.95" fill="#929396" fill-rule="evenodd" stroke="none"/>
    <path d="M92.0 -100.15 Q95.8 -97.9 103.2 -94.25 110.4 -90.7 114.2 -88.4 L121.9 -84.05 Q126.75 -81.35 129.45 -79.15 L114.45 -83.1 Q113.6 -79.9 121.35 -73.35 L132.4 -64.55 138.1 -60.0 Q141.4 -57.25 142.7 -54.55 143.55 -52.75 144.65 -48.25 145.75 -44.0 146.85 -41.85 143.6 -42.9 142.4 -45.35 141.7 -46.75 140.35 -50.2 138.55 -53.2 136.95 -54.7 L132.4 -58.1 Q130.95 -59.15 123.95 -66.65 118.4 -72.5 115.2 -73.15 114.75 -70.6 115.65 -67.65 116.2 -65.85 117.9 -62.6 113.25 -61.05 111.75 -64.6 L110.05 -71.8 Q108.85 -76.0 106.95 -78.2 L101.25 -83.15 Q98.3 -85.45 94.65 -87.35 L87.7 -90.7 Q84.8 -92.15 80.45 -97.1 76.35 -101.8 73.55 -102.95 75.75 -102.1 82.5 -102.1 88.75 -102.1 92.0 -100.15 M1.85 -23.15 L0.75 -14.85 M0.15 -10.65 L-1.8 1.75 -2.3 4.8 Q-3.4 10.4 -4.05 11.2 -5.2 12.6 -4.9 17.45 L-4.4 22.0 -5.1 42.3 Q-6.3 64.95 -8.75 76.65 L-13.75 100.75 Q-16.8 117.25 -16.45 125.0 -13.25 120.7 -7.6 120.75 L-5.6 120.95 Q-2.55 121.5 -1.4 123.85 M-0.95 125.25 Q3.3 91.55 4.5 69.95 5.25 56.45 5.55 41.05 L5.65 28.3 8.55 9.45 12.1 -18.5 M-64.25 -112.25 L-43.65 -113.2 Q-25.5 -113.85 -25.4 -115.25 -25.3 -116.45 -25.5 -118.4 -25.75 -120.35 -26.15 -121.5 L-51.45 -124.1 -62.1 -125.0 Q-65.95 -124.6 -71.45 -121.1 -75.5 -118.45 -78.4 -118.4 -80.7 -118.35 -85.8 -120.2 L-93.55 -123.55 Q-97.9 -125.3 -101.7 -125.25 -105.35 -125.2 -110.7 -123.6 -113.55 -122.75 -118.4 -120.9 L-112.1 -121.45 -105.55 -122.65 Q-97.85 -123.6 -94.75 -118.0 -99.1 -118.5 -106.45 -116.0 -116.25 -112.65 -118.25 -112.3 -126.75 -110.7 -134.85 -106.85 -145.85 -101.6 -146.85 -95.6 -141.1 -97.95 -138.5 -99.05 -134.2 -100.95 -130.6 -103.05 -127.5 -104.85 -121.55 -105.65 -115.3 -106.5 -112.65 -107.85 L-113.15 -104.7 Q-113.45 -102.6 -113.85 -101.55 -110.4 -100.6 -108.5 -103.75 -105.7 -108.4 -104.45 -109.2 -100.8 -111.55 -89.55 -111.4 -90.15 -107.5 -94.95 -103.9 -101.55 -99.0 -102.45 -97.9 -104.8 -94.95 -108.0 -88.4 L-112.95 -78.3 Q-109.05 -80.25 -107.35 -82.3 -106.65 -83.2 -104.05 -87.95 L-100.9 -93.75 Q-98.6 -96.5 -95.35 -93.75 -95.05 -97.2 -89.8 -102.4 -84.75 -107.35 -85.0 -110.7 L-74.35 -110.8 Q-68.8 -110.9 -64.25 -112.25" fill="none" stroke="#000000" stroke-linecap="round" stroke-linejoin="miter-clip" stroke-miterlimit="4.0" stroke-width="1.0"/>
    <path d="M12.1 -18.5 L11.3 -22.2 Q10.3 -26.35 9.15 -28.7 5.45 -36.25 1.85 -23.15 M0.75 -14.85 L0.65 -13.85 0.6 -13.65 0.5 -13.05 0.45 -12.4 0.4 -12.2 0.3 -11.45 0.15 -10.65 0.5 -13.05 0.65 -14.2 0.75 -14.85 M-1.4 123.85 L-1.15 124.55 -0.95 125.25" fill="none" stroke="#000000" stroke-linecap="round" stroke-linejoin="miter-clip" stroke-miterlimit="4.0" stroke-opacity="0.6" stroke-width="1.0"/>
  </g>
</svg>
