<?xml version="1.0" encoding="UTF-8" standalone="no"?>
<svg xmlns:xlink="http://www.w3.org/1999/xlink" height="37.2px" width="22.9px" xmlns="http://www.w3.org/2000/svg">
  <g transform="matrix(1.0, 0.0, 0.0, 1.0, 11.45, 18.85)">
    <path d="M-4.3 16.6 Q-7.4 15.45 -9.95 15.8 -11.65 8.25 -10.4 0.25 -7.85 -15.75 7.1 -17.9 L7.85 -17.7 Q8.65 -17.2 8.75 -15.7 9.5 -15.55 10.15 -15.05 11.4 -14.05 10.75 -12.45 10.55 -11.9 10.65 -9.95 10.7 -9.05 8.55 -7.75 7.65 -7.2 4.8 -6.1 2.05 -4.8 0.45 -2.85 -4.35 3.05 -1.65 17.85 L-4.3 16.6 M-7.1 5.45 Q-7.6 -5.35 0.55 -11.6 3.05 -13.55 6.15 -14.8 L8.75 -15.7 6.15 -14.8 Q3.05 -13.55 0.55 -11.6 -7.6 -5.35 -7.1 5.45 M2.25 -7.75 Q4.3 -9.3 7.4 -10.3 L10.15 -11.0 7.4 -10.3 Q4.3 -9.3 2.25 -7.75" fill="#ffffff" fill-opacity="0.0" fill-rule="evenodd" stroke="none"/>
    <path d="M-1.65 17.85 L-4.3 16.6 M10.15 -11.0 L7.4 -10.3 Q4.3 -9.3 2.25 -7.75" fill="none" stroke="#000000" stroke-linecap="butt" stroke-linejoin="miter-clip" stroke-miterlimit="4.0" stroke-opacity="0.4" stroke-width="1.0"/>
    <path d="M-4.3 16.6 Q-7.4 15.45 -9.95 15.8 -11.65 8.25 -10.4 0.25 -7.85 -15.75 7.1 -17.9 L7.85 -17.7 Q8.65 -17.2 8.75 -15.7" fill="none" stroke="#000000" stroke-linecap="butt" stroke-linejoin="miter-clip" stroke-miterlimit="4.0" stroke-opacity="0.6" stroke-width="1.0"/>
    <path d="M8.75 -15.7 Q9.5 -15.55 10.15 -15.05 11.4 -14.05 10.75 -12.45 10.55 -11.9 10.65 -9.95 10.7 -9.05 8.55 -7.75 7.65 -7.2 4.8 -6.1 2.05 -4.8 0.45 -2.85 -4.35 3.05 -1.65 17.85" fill="none" stroke="#000000" stroke-linecap="round" stroke-linejoin="miter-clip" stroke-miterlimit="4.0" stroke-opacity="0.6" stroke-width="1.0"/>
    <path d="M8.75 -15.7 L6.15 -14.8 Q3.05 -13.55 0.55 -11.6 -7.6 -5.35 -7.1 5.45" fill="none" stroke="#000000" stroke-linecap="round" stroke-linejoin="miter-clip" stroke-miterlimit="4.0" stroke-opacity="0.4" stroke-width="1.0"/>
  </g>
</svg>
