<?xml version="1.0" encoding="UTF-8" standalone="no"?>
<svg xmlns:xlink="http://www.w3.org/1999/xlink" height="543.55px" width="985.4px" xmlns="http://www.w3.org/2000/svg">
  <g transform="matrix(1.0, 0.0, 0.0, 1.0, 492.7, 271.1)">
    <path d="M491.8 -224.85 L491.8 -225.0 492.2 -225.0 491.8 -224.85 M455.05 -225.0 L455.0 -224.6 455.0 -225.0 455.05 -225.0" fill="#b8babc" fill-rule="evenodd" stroke="none"/>
    <path d="M491.8 -225.0 L491.8 -224.85 491.8 270.45 455.0 270.45 455.0 -223.75 455.0 -224.6 455.05 -225.0 491.8 -225.0 455.05 -225.0 455.0 -225.0 -455.35 -225.0 -456.6 -225.0 -492.2 -225.1 -456.6 -225.0 -455.35 270.45 -492.2 270.45 -492.2 -225.0 -492.2 -225.1 -492.2 -270.6 492.2 -270.6 492.2 -225.0 491.8 -225.0 M448.85 -124.45 L389.1 -174.4 388.5 -174.9 388.25 -175.1 348.0 -208.75 346.85 -209.7 335.95 -218.8 375.2 -218.8 386.1 -210.5 426.75 -179.55 450.1 -161.8 448.85 -124.45 M-386.5 -210.5 L-375.6 -218.8 -336.3 -218.8 -346.25 -210.5 -346.55 -210.2 -449.25 -124.45 -450.45 -161.8 -426.95 -179.65 -386.5 -210.5" fill="#ffffff" fill-opacity="0.0" fill-rule="evenodd" stroke="none"/>
    <path d="M455.0 -224.6 L455.0 -223.75 455.0 270.45 426.75 253.5 426.75 -124.5 327.8 -210.15 328.1 -210.5 335.95 -218.8 328.1 -210.5 -328.5 -210.5 -328.3 -210.2 -426.65 -124.85 -424.5 255.1 -455.35 270.65 -455.35 270.45 -456.6 -225.0 -455.35 -225.0 455.0 -225.0 455.0 -224.6 426.75 -210.5 455.0 -224.6 M448.85 -124.45 L428.0 -123.45 426.75 -124.5 428.0 -123.45 448.85 -124.45 450.1 -161.8 426.75 -179.55 426.75 -210.5 386.1 -210.5 375.2 -218.8 335.95 -218.8 346.85 -209.7 348.0 -208.75 388.25 -175.1 388.5 -174.9 388.95 -174.5 389.1 -174.4 448.85 -124.45 M-427.15 -210.5 L-455.35 -225.0 -427.15 -210.5 -426.95 -179.65 -450.45 -161.8 -449.25 -124.45 -346.55 -210.2 -346.2 -210.5 -346.25 -210.5 -336.3 -218.8 -375.6 -218.8 -386.5 -210.5 -427.15 -210.5 M-328.5 -210.5 L-336.3 -218.8 -328.5 -210.5 M-426.65 -124.85 L-428.35 -123.45 -449.25 -124.45 -428.35 -123.45 -426.65 -124.85" fill="#000000" fill-opacity="0.2" fill-rule="evenodd" stroke="none"/>
    <path d="M492.2 -225.0 L491.8 -225.0 M455.0 270.45 L491.8 270.45 491.8 -224.85 M-492.2 -225.1 L-492.2 -270.6 492.2 -270.6 492.2 -225.0 M327.8 -210.15 L426.75 -124.5 426.75 253.5 455.0 270.45 M328.1 -210.5 L-328.5 -210.5 M-328.3 -210.2 L-426.65 -124.85 -424.5 255.1 -455.35 270.65 M-455.35 270.45 L-492.2 270.45 M426.75 -210.5 L426.75 -179.55 386.1 -210.5 426.75 -210.5 M-427.15 -210.5 L-386.5 -210.5 -426.95 -179.65 -427.15 -210.5" fill="none" stroke="#000000" stroke-linecap="round" stroke-linejoin="miter-clip" stroke-miterlimit="4.0" stroke-width="1.0"/>
    <path d="M491.8 -225.0 L491.8 -224.85 M491.8 -225.0 L455.05 -225.0 455.0 -225.0 455.0 -224.6 426.75 -210.5 M455.0 -224.6 L455.0 -223.75 455.0 270.45 M426.75 -124.5 L428.0 -123.45 448.85 -124.45 389.1 -174.4 388.95 -174.5 388.5 -174.9 388.25 -175.1 348.0 -208.75 M346.85 -209.7 L335.95 -218.8 328.1 -210.5 M-328.5 -210.5 L-328.3 -210.2 M-455.35 270.65 L-455.35 270.45 -456.6 -225.0 -455.35 -225.0 455.0 -225.0 M-492.2 -225.0 L-492.2 -225.1 -456.6 -225.0 M386.1 -210.5 L375.2 -218.8 335.95 -218.8 M426.75 -179.55 L450.1 -161.8 448.85 -124.45 M388.5 -174.9 L389.1 -174.4 M-455.35 -225.0 L-427.15 -210.5 M-386.5 -210.5 L-375.6 -218.8 -336.3 -218.8 -328.5 -210.5 M-336.3 -218.8 L-346.25 -210.5 -346.2 -210.5 M-346.55 -210.2 L-449.25 -124.45 -428.35 -123.45 -426.65 -124.85 M-346.25 -210.5 L-346.55 -210.2 M-449.25 -124.45 L-450.45 -161.8 -426.95 -179.65" fill="none" stroke="#000000" stroke-linecap="round" stroke-linejoin="miter-clip" stroke-miterlimit="4.0" stroke-opacity="0.6" stroke-width="1.0"/>
    <path d="M348.0 -208.75 L346.85 -209.7" fill="none" stroke="#000000" stroke-linecap="round" stroke-linejoin="round" stroke-opacity="0.6" stroke-width="1.0"/>
    <path d="M-492.2 270.45 L-492.2 -225.0" fill="none" stroke="#000000" stroke-linecap="round" stroke-linejoin="round" stroke-width="1.0"/>
  </g>
</svg>
