<?xml version="1.0" encoding="UTF-8" standalone="no"?>
<svg xmlns:xlink="http://www.w3.org/1999/xlink" height="30.55px" width="970.25px" xmlns="http://www.w3.org/2000/svg">
  <g transform="matrix(1.0, 0.0, 0.0, 1.0, 485.15, 15.3)">
    <path d="M462.2 12.95 Q460.05 14.75 457.0 14.75 453.95 14.75 451.75 12.95 449.6 11.1 449.6 8.55 449.6 5.95 451.75 4.15 453.95 2.3 457.0 2.3 460.05 2.3 462.2 4.15 464.35 5.95 464.35 8.55 464.35 11.1 462.2 12.95 M477.25 -14.8 Q480.3 -14.8 482.45 -12.95 484.6 -11.15 484.6 -8.55 484.6 -6.0 482.45 -4.15 480.3 -2.35 477.25 -2.35 474.2 -2.35 472.0 -4.15 469.85 -6.0 469.85 -8.55 469.85 -11.15 472.0 -12.95 474.2 -14.8 477.25 -14.8 M-482.5 -4.15 Q-484.65 -6.0 -484.65 -8.55 -484.65 -11.15 -482.5 -12.95 -480.35 -14.8 -477.3 -14.8 -474.25 -14.8 -472.1 -12.95 -469.95 -11.15 -469.95 -8.55 -469.95 -6.0 -472.1 -4.15 -474.25 -2.35 -477.3 -2.35 -480.35 -2.35 -482.5 -4.15 M-462.25 12.95 Q-464.4 11.1 -464.4 8.55 -464.4 5.95 -462.25 4.15 -460.1 2.3 -457.05 2.3 -454.0 2.3 -451.85 4.15 -449.7 5.95 -449.7 8.55 -449.7 11.1 -451.85 12.95 -454.0 14.75 -457.05 14.75 -460.1 14.75 -462.25 12.95" fill="#ffffff" fill-opacity="0.0" fill-rule="evenodd" stroke="none"/>
    <path d="M477.25 -14.8 Q474.2 -14.8 472.0 -12.95 469.85 -11.15 469.85 -8.55 469.85 -6.0 472.0 -4.15 474.2 -2.35 477.25 -2.35 480.3 -2.35 482.45 -4.15 484.6 -6.0 484.6 -8.55 484.6 -11.15 482.45 -12.95 480.3 -14.8 477.25 -14.8 M462.2 12.95 Q464.35 11.1 464.35 8.55 464.35 5.95 462.2 4.15 460.05 2.3 457.0 2.3 453.95 2.3 451.75 4.15 449.6 5.95 449.6 8.55 449.6 11.1 451.75 12.95 453.95 14.75 457.0 14.75 460.05 14.75 462.2 12.95 M-482.5 -4.15 Q-484.65 -6.0 -484.65 -8.55 -484.65 -11.15 -482.5 -12.95 -480.35 -14.8 -477.3 -14.8 -474.25 -14.8 -472.1 -12.95 -469.95 -11.15 -469.95 -8.55 -469.95 -6.0 -472.1 -4.15 -474.25 -2.35 -477.3 -2.35 -480.35 -2.35 -482.5 -4.15 M-462.25 12.95 Q-464.4 11.1 -464.4 8.55 -464.4 5.95 -462.25 4.15 -460.1 2.3 -457.05 2.3 -454.0 2.3 -451.85 4.15 -449.7 5.95 -449.7 8.55 -449.7 11.1 -451.85 12.95 -454.0 14.75 -457.05 14.75 -460.1 14.75 -462.25 12.95" fill="none" stroke="#000000" stroke-linecap="round" stroke-linejoin="miter-clip" stroke-miterlimit="4.0" stroke-opacity="0.6" stroke-width="1.0"/>
  </g>
</svg>
