<?xml version="1.0" encoding="UTF-8" standalone="no"?>
<svg xmlns:xlink="http://www.w3.org/1999/xlink" height="600.5px" width="1753.5px" xmlns="http://www.w3.org/2000/svg">
  <g transform="matrix(1.0, 0.0, 0.0, 1.0, 876.75, 216.9)">
    <path d="M-259.4 -132.5 Q-250.3 -132.5 -241.45 -132.95 -206.0 -134.75 -145.35 -141.3 -75.6 -148.8 -49.1 -150.8 -78.9 -135.6 -74.75 -120.2 -69.5 -100.9 -10.85 -82.3 90.6 -50.2 283.85 -57.4 367.75 -60.55 443.6 -68.95 388.65 -61.8 327.8 -55.15 179.65 -38.9 98.95 -37.25 14.5 -35.5 -115.0 -9.45 -155.5 -1.3 -195.6 8.3 L-227.6 16.25 -194.15 19.2 Q-152.65 23.35 -112.15 29.25 17.3 48.25 87.7 78.2 158.1 108.1 259.45 125.7 310.1 134.5 346.7 137.3 276.3 133.8 177.05 126.05 -21.4 110.55 -165.7 89.45 -229.3 80.15 -342.35 78.85 -438.7 77.75 -559.65 82.5 -663.55 86.55 -757.65 93.7 -844.95 100.3 -876.25 105.75 L-876.25 -203.1 Q-764.15 -230.25 -629.95 -201.95 L-629.1 -201.8 -609.85 -197.75 Q-593.05 -194.05 -585.75 -192.85 -551.2 -187.15 -501.5 -174.8 L-417.7 -153.7 Q-369.4 -142.15 -333.25 -137.2 -309.5 -133.95 -287.25 -133.0 L-260.35 -132.5 -259.8 -132.5 -259.4 -132.5" fill="#000000" fill-opacity="0.09803922" fill-rule="evenodd" stroke="none"/>
    <path d="M-629.1 -201.8 L-628.25 -201.65 -607.05 -197.75 -580.2 -192.85 Q-545.65 -187.15 -495.9 -174.8 L-412.05 -153.7 Q-363.75 -142.15 -327.6 -137.2 L-295.15 -133.55 -287.25 -133.0 Q-309.5 -133.95 -333.25 -137.2 -369.4 -142.15 -417.7 -153.7 L-501.5 -174.8 Q-551.2 -187.15 -585.75 -192.85 -593.05 -194.05 -609.85 -197.75 L-629.1 -201.8" fill="#d8d9da" fill-rule="evenodd" stroke="none"/>
    <path d="M-259.4 -132.5 L-258.2 -132.55 -247.1 -132.95 Q-210.8 -134.8 -137.15 -142.8 -64.2 -150.7 -26.8 -152.5 34.75 -155.5 116.55 -140.6 168.25 -131.2 257.05 -108.0 339.85 -86.3 418.85 -77.6 444.1 -74.8 479.8 -79.65 500.2 -82.4 540.7 -89.2 593.65 -96.6 707.45 -102.95 834.8 -110.05 876.25 -104.7 L876.25 383.1 -876.25 383.1 -876.25 105.75 Q-844.95 100.3 -757.65 93.7 -663.55 86.55 -559.65 82.5 -438.7 77.75 -342.35 78.85 -229.3 80.15 -165.7 89.45 -21.4 110.55 177.05 126.05 276.3 133.8 346.7 137.3 310.1 134.5 259.45 125.7 158.1 108.1 87.7 78.2 17.3 48.25 -112.15 29.25 -152.65 23.35 -194.15 19.2 L-227.6 16.25 -195.6 8.3 Q-155.5 -1.3 -115.0 -9.45 14.5 -35.5 98.95 -37.25 179.65 -38.9 327.8 -55.15 388.65 -61.8 443.6 -68.95 367.75 -60.55 283.85 -57.4 90.6 -50.2 -10.85 -82.3 -69.5 -100.9 -74.75 -120.2 -78.9 -135.6 -49.1 -150.8 -75.6 -148.8 -145.35 -141.3 -206.0 -134.75 -241.45 -132.95 -250.3 -132.5 -259.4 -132.5" fill="#ffffff" fill-opacity="0.0" fill-rule="evenodd" stroke="none"/>
    <path d="M-876.25 105.75 L-876.25 383.1 876.25 383.1 876.25 -104.7 Q834.8 -110.05 707.45 -102.95 593.65 -96.6 540.7 -89.2 500.2 -82.4 479.8 -79.65 444.1 -74.8 418.85 -77.6 339.85 -86.3 257.05 -108.0 168.25 -131.2 116.55 -140.6 34.75 -155.5 -26.8 -152.5 -64.2 -150.7 -137.15 -142.8 -210.8 -134.8 -247.1 -132.95 L-258.2 -132.55 -259.4 -132.5 -259.8 -132.5 -260.35 -132.5 -258.2 -132.55 M-876.25 105.75 L-876.25 -203.1 Q-764.15 -230.25 -629.95 -201.95 L-629.1 -201.8 -609.85 -197.75 Q-593.05 -194.05 -585.75 -192.85 -551.2 -187.15 -501.5 -174.8 L-417.7 -153.7 Q-369.4 -142.15 -333.25 -137.2 -309.5 -133.95 -287.25 -133.0 L-260.35 -132.5" fill="none" stroke="#000000" stroke-linecap="round" stroke-linejoin="miter-clip" stroke-miterlimit="4.0" stroke-width="1.0"/>
  </g>
</svg>
