<?xml version="1.0" encoding="UTF-8" standalone="no"?>
<svg xmlns:xlink="http://www.w3.org/1999/xlink" height="51.95px" width="177.55px" xmlns="http://www.w3.org/2000/svg">
  <g transform="matrix(1.0, 0.0, 0.0, 1.0, 88.8, 26.0)">
    <path d="M26.9 10.5 L25.05 10.3 Q17.65 8.95 12.0 1.65 8.2 -3.15 6.55 -8.15 L12.5 -7.95 13.85 -7.8 15.35 -7.4 Q18.0 -6.5 20.95 -3.8 20.85 -8.2 22.1 -13.15 23.7 -19.65 26.4 -23.15 29.15 -26.65 30.35 -23.45 L31.45 -19.6 Q32.35 -14.95 32.45 -7.7 L36.65 -14.05 36.75 -14.2 37.65 -15.35 38.0 -15.85 Q40.0 -18.3 41.25 -18.3 L41.35 -18.3 Q41.85 -18.25 42.25 -17.7 L42.3 -17.65 42.35 -17.55 42.4 -17.4 Q43.6 -14.8 42.7 -3.85 42.4 -0.05 40.85 2.85 39.95 4.55 38.65 5.95 L38.0 6.6 34.9 8.9 33.9 9.45 33.5 9.65 31.95 10.3 31.9 10.35 27.95 11.25 27.9 11.25 27.85 11.2 27.75 11.1 26.9 10.5 27.5 10.55 28.35 10.6 29.45 10.55 29.85 10.55 30.05 10.5 29.4 8.85 28.7 6.85 27.4 3.75 Q26.6 2.35 22.65 -2.15 L20.95 -3.8 22.65 -2.15 Q26.6 2.35 27.4 3.75 L28.7 6.85 29.4 8.85 30.05 10.5 29.85 10.55 29.45 10.55 28.35 10.6 27.5 10.55 26.9 10.5 M29.4 8.85 L30.4 7.5 Q31.55 5.85 32.0 4.45 32.5 3.05 32.5 -0.25 L32.45 -6.25 32.45 -7.7 32.45 -6.25 32.5 -0.25 Q32.5 3.05 32.0 4.45 31.55 5.85 30.4 7.5 L29.4 8.85 M66.15 13.8 L63.75 13.9 Q59.45 13.7 55.45 11.8 51.6 9.95 49.05 7.0 50.9 5.65 53.0 4.9 51.3 2.8 49.85 0.0 48.5 -2.6 46.8 -7.25 L46.75 -7.4 Q45.75 -10.1 45.95 -10.75 46.05 -11.3 46.8 -11.55 L48.9 -11.9 Q53.75 -12.05 58.55 -8.05 L59.45 -7.25 Q60.6 -11.65 63.55 -17.45 64.8 -20.05 65.4 -20.35 66.35 -20.85 68.25 -18.95 70.55 -16.65 71.55 -10.95 L71.9 -9.0 Q73.4 -9.8 75.2 -10.5 L82.9 -12.75 86.35 -13.2 Q87.35 -12.8 87.15 -10.15 86.7 -5.3 82.2 -0.9 L79.75 1.2 88.15 2.3 Q88.6 2.35 86.95 4.65 L84.9 7.15 Q83.65 8.15 81.75 8.85 L78.35 9.9 71.6 11.65 71.3 11.7 69.25 8.8 68.85 8.25 69.25 8.8 71.3 11.7 71.25 11.7 71.6 12.25 72.1 12.95 69.85 13.2 68.0 13.5 66.2 13.8 66.15 13.8 M65.05 5.15 L65.95 5.4 Q64.95 4.35 63.65 1.75 62.4 -0.85 61.35 -1.95 57.8 -5.6 52.05 -7.0 L53.6 -2.5 Q54.45 0.3 55.85 1.55 57.5 3.1 59.9 3.85 L60.85 3.95 65.05 5.15 Q65.85 5.55 66.65 6.1 L66.25 4.9 64.7 0.5 Q63.3 -3.8 59.45 -7.25 63.3 -3.8 64.7 0.5 L66.25 4.9 66.65 6.1 Q65.85 5.55 65.05 5.15 M65.2 -9.4 Q65.65 -8.6 65.0 -5.75 64.2 -2.25 64.25 -1.7 64.35 0.1 66.0 2.05 L68.9 5.35 70.9 -3.95 Q71.1 -8.8 66.8 -11.65 L67.2 -8.85 67.35 -6.1 65.2 -9.4 M72.25 -4.0 L72.25 -2.65 71.95 1.45 71.85 2.3 71.95 2.25 Q72.65 1.85 73.55 1.6 L74.6 1.35 75.85 1.2 75.85 1.15 Q79.9 -2.05 81.9 -7.5 L77.3 -6.45 Q74.35 -5.9 72.95 -4.7 L72.25 -4.0 71.9 -9.0 72.25 -4.0 M68.85 8.25 L69.0 8.3 71.5 8.6 Q73.4 8.65 76.0 7.65 80.1 6.1 83.35 3.35 L81.05 3.3 78.55 2.95 Q75.6 2.85 73.15 3.5 72.3 3.7 71.55 4.05 L71.5 4.1 Q70.55 4.5 69.7 5.15 L67.7 7.0 67.9 7.2 68.1 7.4 68.45 7.8 68.85 8.25 M79.75 1.2 L79.7 1.2 Q77.55 1.0 75.85 1.2 77.55 1.0 79.7 1.2 L79.75 1.2 M71.85 2.3 L71.55 4.05 71.85 2.3 M27.95 11.25 L28.35 10.6 27.95 11.25 27.85 11.2 27.95 11.25 M59.9 3.85 L54.8 4.3 53.0 4.9 54.8 4.3 59.9 3.85 M67.7 7.0 L66.65 6.1 67.7 7.0 M-28.3 20.65 L-28.35 20.6 -29.1 20.25 -30.65 19.35 -34.1 16.55 -38.8 11.3 Q-40.4 9.4 -40.45 8.8 -40.55 7.85 -38.35 7.0 -34.35 5.45 -29.2 7.35 L-29.05 7.4 -28.85 7.5 -28.25 7.75 Q-28.55 3.75 -27.8 -1.9 -27.5 -4.4 -27.1 -4.85 -26.45 -5.55 -24.35 -4.5 -21.75 -3.25 -19.3 1.15 L-19.05 1.55 -17.7 4.35 Q-14.45 1.45 -8.55 -1.55 -6.3 -2.7 -5.7 -2.6 -4.75 -2.5 -4.4 -0.2 -4.0 2.6 -6.25 7.2 L-8.0 10.45 -5.3 9.55 2.05 8.0 Q2.4 7.9 1.7 10.3 L0.75 13.0 Q-0.35 14.8 -3.9 17.2 L-8.95 20.6 -10.7 21.35 -9.75 23.1 -9.6 23.35 -9.45 23.55 Q-10.55 23.7 -13.05 24.55 -15.25 25.35 -16.8 25.4 L-16.95 25.4 -17.55 25.45 -19.6 25.3 -20.0 25.2 -20.25 25.15 -20.65 25.05 -20.85 25.0 -21.2 24.9 -21.55 24.8 -22.0 24.65 -22.25 24.55 -22.75 24.35 -23.4 24.1 -23.85 23.85 -24.0 23.8 -24.15 23.7 -24.3 23.65 -24.6 23.45 -24.7 23.4 -27.45 21.45 -28.25 20.65 -28.3 20.65 M-61.45 -4.55 Q-61.35 -4.2 -62.3 -2.4 L-63.5 -0.15 Q-64.55 2.5 -65.0 5.2 L-65.1 6.85 -65.1 6.95 -64.85 9.05 -63.55 12.55 -62.8 11.55 Q-61.65 9.8 -61.2 8.55 -60.5 6.75 -60.4 3.95 -60.25 -0.5 -61.45 -4.55 M-76.2 1.95 L-76.25 -1.7 Q-76.15 -4.8 -75.4 -9.8 -74.95 -12.7 -74.55 -13.2 -73.85 -14.0 -71.6 -12.85 -67.6 -10.75 -65.5 -4.95 L-64.6 -1.8 Q-65.55 0.15 -66.0 1.85 -65.55 0.15 -64.6 -1.8 -61.6 -7.05 -60.6 -9.45 -60.4 -9.85 -59.0 -7.45 L-57.55 -4.65 Q-57.15 -2.9 -57.35 0.3 -54.9 -0.9 -50.5 -2.4 L-47.3 -3.05 Q-46.35 -2.7 -46.35 0.0 -46.4 4.9 -50.25 9.6 -53.9 14.0 -58.35 15.4 L-59.05 15.65 -56.3 17.85 -56.1 18.0 Q-57.35 18.4 -59.95 19.6 L-61.85 20.45 -64.0 21.15 -65.8 21.5 Q-69.15 22.0 -72.6 21.5 -76.75 20.9 -79.95 18.95 L-79.55 18.5 -79.45 18.4 -79.35 18.35 -79.25 18.25 -76.75 16.1 Q-81.0 13.55 -86.5 6.9 -88.2 4.75 -88.3 4.05 -88.4 2.95 -86.05 1.85 -84.4 1.05 -82.05 1.1 L-78.0 1.55 -77.65 1.65 -76.2 1.95 Q-73.95 2.5 -71.75 3.4 -73.95 2.5 -76.2 1.95 M-66.0 1.85 L-66.05 1.8 Q-67.25 -3.1 -71.25 -7.0 -71.25 -6.1 -72.05 -2.25 -72.65 0.7 -72.1 2.45 L-71.75 3.4 Q-69.25 4.4 -66.85 5.85 L-66.5 6.05 -66.15 2.45 -66.0 1.85 M-12.3 18.6 L-9.9 18.1 Q-8.35 17.55 -6.5 16.0 -3.55 13.5 -1.65 10.25 L-3.55 10.9 -5.75 11.35 Q-8.2 12.15 -10.05 13.4 L-11.2 14.3 -12.45 15.75 -13.0 16.8 -13.25 17.35 -13.15 17.45 -13.05 17.55 -12.9 17.75 -12.3 18.6 -10.7 21.35 -12.3 18.6 M-15.8 9.55 L-15.2 12.15 -15.1 12.6 -14.9 14.0 -14.85 15.75 -14.75 15.85 -11.7 13.0 -11.6 12.9 -10.45 11.85 -10.15 11.6 Q-7.75 8.35 -9.25 4.25 L-10.45 6.45 Q-11.1 7.85 -11.75 8.45 L-11.55 5.0 Q-11.55 5.75 -13.6 7.5 L-15.8 9.55 Q-16.55 6.8 -17.7 4.35 -16.55 6.8 -15.8 9.55 M-8.0 10.45 Q-9.45 11.05 -10.45 11.85 -9.45 11.05 -8.0 10.45 M-13.25 17.35 L-13.35 17.2 -14.75 15.85 -13.35 17.2 -13.25 17.35 M-18.95 14.15 L-18.8 14.15 -18.7 14.15 -17.25 14.5 -16.8 14.65 Q-17.5 7.95 -17.75 7.15 -19.0 3.1 -23.4 1.95 L-22.3 4.2 Q-21.5 5.55 -21.35 6.4 L-24.1 4.3 Q-23.45 4.75 -23.15 7.4 L-22.65 10.95 Q-22.0 12.45 -20.1 13.55 L-18.95 14.15 -20.45 14.05 -21.95 14.15 -20.45 14.05 -18.95 14.15 M-27.5 16.5 L-27.35 16.4 Q-26.2 15.55 -24.9 15.0 -23.45 14.35 -21.95 14.15 L-22.1 14.0 Q-23.9 12.2 -25.15 11.6 -29.1 9.6 -34.3 10.1 L-31.7 13.4 Q-30.15 15.45 -28.65 16.1 L-27.85 16.4 -27.5 16.5 -29.9 18.7 -29.1 19.75 -29.9 18.7 -27.5 16.5 M-28.35 20.6 L-29.1 19.75 -28.35 20.6 M-28.25 7.75 Q-24.05 9.5 -21.6 12.65 L-20.45 14.05 -21.6 12.65 Q-24.05 9.5 -28.25 7.75 M-14.85 15.75 Q-15.8 15.05 -16.8 14.65 -15.8 15.05 -14.85 15.75 M-60.3 14.75 L-59.45 14.3 Q-57.05 13.15 -56.0 12.1 -52.5 8.65 -51.0 2.95 L-55.25 4.3 Q-56.9 4.75 -57.95 5.4 L-58.4 8.75 -58.45 9.2 -58.55 9.55 Q-59.3 12.5 -60.85 14.35 -60.6 14.5 -60.3 14.75 L-59.05 15.65 -60.3 14.75 M-57.35 0.3 L-57.6 2.55 -57.95 5.4 -57.6 2.55 -57.35 0.3 M-66.3 8.85 L-72.15 4.7 Q-76.25 2.8 -80.3 5.85 L-77.75 6.45 Q-76.15 6.75 -75.35 7.3 L-78.95 8.15 Q-78.1 8.0 -75.85 9.6 L-72.7 11.8 Q-71.1 12.3 -68.85 11.45 L-66.2 10.3 -66.2 10.15 -66.15 9.7 -66.05 9.05 -66.3 8.85 -66.5 6.35 -66.5 6.05 -66.5 6.35 -66.3 8.85 M-60.85 14.35 L-61.3 14.1 -62.3 13.65 Q-63.35 13.2 -64.45 13.0 L-66.3 12.8 -68.2 12.85 Q-71.8 13.25 -74.95 14.95 L-76.75 16.1 -74.95 14.95 Q-71.8 13.25 -68.2 12.85 L-66.3 12.8 -64.45 13.0 -66.2 10.3 -64.45 13.0 Q-63.35 13.2 -62.3 13.65 L-61.3 14.1 -60.85 14.35" fill="#ffffff" fill-opacity="0.0" fill-rule="evenodd" stroke="none"/>
    <path d="M31.45 -19.6 Q36.6 -25.85 37.95 -25.5 39.0 -25.2 38.55 -21.1 L38.05 -17.6 38.0 -17.3 37.65 -15.35 36.75 -14.2 36.65 -14.05 32.45 -7.7 Q32.35 -14.95 31.45 -19.6" fill="#000000" fill-opacity="0.29803923" fill-rule="evenodd" stroke="none"/>
    <path d="M59.9 3.85 Q57.5 3.1 55.85 1.55 54.45 0.3 53.6 -2.5 L52.05 -7.0 Q57.8 -5.6 61.35 -1.95 62.4 -0.85 63.65 1.75 64.95 4.35 65.95 5.4 L65.05 5.15 60.85 3.95 59.9 3.85 M65.2 -9.4 L67.35 -6.1 67.2 -8.85 66.8 -11.65 Q71.1 -8.8 70.9 -3.95 L68.9 5.35 66.0 2.05 Q64.35 0.1 64.25 -1.7 64.2 -2.25 65.0 -5.75 65.65 -8.6 65.2 -9.4 M75.85 1.2 L74.6 1.35 73.55 1.6 Q72.65 1.85 71.95 2.25 L71.85 2.3 71.95 1.45 72.25 -2.65 72.25 -4.0 72.95 -4.7 Q74.35 -5.9 77.3 -6.45 L81.9 -7.5 Q79.9 -2.05 75.85 1.15 L75.85 1.2 M71.55 4.05 Q72.3 3.7 73.15 3.5 75.6 2.85 78.55 2.95 L81.05 3.3 83.35 3.35 Q80.1 6.1 76.0 7.65 73.4 8.65 71.5 8.6 L69.0 8.3 68.85 8.25 68.45 7.8 68.1 7.4 67.9 7.2 67.7 7.0 69.7 5.15 Q70.55 4.5 71.5 4.1 L71.55 4.05 M-61.45 -4.55 Q-60.25 -0.5 -60.4 3.95 -60.5 6.75 -61.2 8.55 -61.65 9.8 -62.8 11.55 L-63.55 12.55 -64.85 9.05 -65.1 6.95 -65.1 6.85 -65.0 5.2 Q-64.55 2.5 -63.5 -0.15 L-62.3 -2.4 Q-61.35 -4.2 -61.45 -4.55 M-71.75 3.4 L-72.1 2.45 Q-72.65 0.7 -72.05 -2.25 -71.25 -6.1 -71.25 -7.0 -67.25 -3.1 -66.05 1.8 L-66.0 1.85 -66.15 2.45 -66.5 6.05 -66.85 5.85 Q-69.25 4.4 -71.75 3.4 M-13.25 17.35 L-13.0 16.8 -12.45 15.75 -11.2 14.3 -10.05 13.4 Q-8.2 12.15 -5.75 11.35 L-3.55 10.9 -1.65 10.25 Q-3.55 13.5 -6.5 16.0 -8.35 17.55 -9.9 18.1 L-12.3 18.6 -12.9 17.75 -13.05 17.55 -13.15 17.45 -13.25 17.35 M-14.85 15.75 L-14.9 14.0 -15.1 12.6 -15.2 12.15 -15.8 9.55 -13.6 7.5 Q-11.55 5.75 -11.55 5.0 L-11.75 8.45 Q-11.1 7.85 -10.45 6.45 L-9.25 4.25 Q-7.75 8.35 -10.15 11.6 L-10.45 11.85 -11.6 12.9 -11.7 13.0 -14.75 15.85 -14.85 15.75 M-16.8 14.65 L-17.25 14.5 -18.7 14.15 -18.8 14.15 -18.95 14.15 -20.1 13.55 Q-22.0 12.45 -22.65 10.95 L-23.15 7.4 Q-23.45 4.75 -24.1 4.3 L-21.35 6.4 Q-21.5 5.55 -22.3 4.2 L-23.4 1.95 Q-19.0 3.1 -17.75 7.15 -17.5 7.95 -16.8 14.65 M-21.95 14.15 Q-23.45 14.35 -24.9 15.0 -26.2 15.55 -27.35 16.4 L-27.5 16.5 -27.85 16.4 -28.65 16.1 Q-30.15 15.45 -31.7 13.4 L-34.3 10.1 Q-29.1 9.6 -25.15 11.6 -23.9 12.2 -22.1 14.0 L-21.95 14.15 M-57.95 5.4 Q-56.9 4.75 -55.25 4.3 L-51.0 2.95 Q-52.5 8.65 -56.0 12.1 -57.05 13.15 -59.45 14.3 L-60.3 14.75 Q-60.6 14.5 -60.85 14.35 -59.3 12.5 -58.55 9.55 L-58.45 9.2 -58.4 8.75 -57.95 5.4 M-66.2 10.15 L-66.2 10.3 -68.85 11.45 Q-71.1 12.3 -72.7 11.8 L-75.85 9.6 Q-78.1 8.0 -78.95 8.15 L-75.35 7.3 Q-76.15 6.75 -77.75 6.45 L-80.3 5.85 Q-76.25 2.8 -72.15 4.7 L-66.3 8.85 -66.2 10.15" fill="#000000" fill-opacity="0.2" fill-rule="evenodd" stroke="none"/>
    <path d="M-16.95 25.4 L-17.25 25.45 -17.55 25.45 -16.95 25.4" fill="#d6d7d8" fill-rule="evenodd" stroke="none"/>
    <path d="M-66.2 10.15 L-66.3 8.85 -66.05 9.05 -66.15 9.7 -66.2 10.15" fill="#9fa1a4" fill-rule="evenodd" stroke="none"/>
    <path d="M26.9 10.5 L25.05 10.3 Q17.65 8.95 12.0 1.65 8.2 -3.15 6.55 -8.15 L12.5 -7.95 13.85 -7.8 15.35 -7.4 Q18.0 -6.5 20.95 -3.8 20.85 -8.2 22.1 -13.15 23.7 -19.65 26.4 -23.15 29.15 -26.65 30.35 -23.45 L31.45 -19.6 Q36.6 -25.85 37.95 -25.5 39.0 -25.2 38.55 -21.1 L38.05 -17.6 38.0 -17.3 37.65 -15.35 38.0 -15.85 Q40.0 -18.3 41.25 -18.3 L41.35 -18.3 Q41.85 -18.25 42.25 -17.7 L42.3 -17.65 42.35 -17.55 42.4 -17.4 Q43.6 -14.8 42.7 -3.85 42.4 -0.05 40.85 2.85 39.95 4.55 38.65 5.95 L38.0 6.6 34.9 8.9 33.9 9.45 33.5 9.65 31.95 10.3 M66.15 13.8 L63.75 13.9 Q59.45 13.7 55.45 11.8 51.6 9.95 49.05 7.0 50.9 5.65 53.0 4.9 51.3 2.8 49.85 0.0 48.5 -2.6 46.8 -7.25 L46.75 -7.4 Q45.75 -10.1 45.95 -10.75 46.05 -11.3 46.8 -11.55 L48.9 -11.9 Q53.75 -12.05 58.55 -8.05 L59.45 -7.25 Q60.6 -11.65 63.55 -17.45 64.8 -20.05 65.4 -20.35 66.35 -20.85 68.25 -18.95 70.55 -16.65 71.55 -10.95 L71.9 -9.0 Q73.4 -9.8 75.2 -10.5 L82.9 -12.75 86.35 -13.2 Q87.35 -12.8 87.15 -10.15 86.7 -5.3 82.2 -0.9 L79.75 1.2 88.15 2.3 Q88.6 2.35 86.95 4.65 L84.9 7.15 Q83.65 8.15 81.75 8.85 L78.35 9.9 71.6 11.65 71.3 11.7 M71.6 12.25 L72.1 12.95 M-28.3 20.65 L-28.35 20.6 -29.1 20.25 -30.65 19.35 -34.1 16.55 -38.8 11.3 Q-40.4 9.4 -40.45 8.8 -40.55 7.85 -38.35 7.0 -34.35 5.45 -29.2 7.35 L-29.05 7.4 -28.85 7.5 -28.25 7.75 Q-28.55 3.75 -27.8 -1.9 -27.5 -4.4 -27.1 -4.85 -26.45 -5.55 -24.35 -4.5 -21.75 -3.25 -19.3 1.15 L-19.05 1.55 -17.7 4.35 Q-14.45 1.45 -8.55 -1.55 -6.3 -2.7 -5.7 -2.6 -4.75 -2.5 -4.4 -0.2 -4.0 2.6 -6.25 7.2 L-8.0 10.45 -5.3 9.55 2.05 8.0 Q2.4 7.9 1.7 10.3 L0.75 13.0 Q-0.35 14.8 -3.9 17.2 L-8.95 20.6 -10.7 21.35 -9.75 23.1 -9.6 23.35 M-9.45 23.55 Q-10.55 23.7 -13.05 24.55 -15.25 25.35 -16.8 25.4 M-20.85 25.0 L-21.2 24.9 -21.55 24.8 -22.0 24.65 -22.25 24.55 -22.75 24.35 -23.4 24.1 -23.85 23.85 -24.0 23.8 -24.15 23.7 -24.3 23.65 -24.6 23.45 -24.7 23.4 -27.45 21.45 -28.3 20.65 -28.25 20.65 M-64.6 -1.8 L-65.5 -4.95 Q-67.6 -10.75 -71.6 -12.85 -73.85 -14.0 -74.55 -13.2 -74.95 -12.7 -75.4 -9.8 -76.15 -4.8 -76.25 -1.7 L-76.2 1.95 -77.65 1.65 -78.0 1.55 -82.05 1.1 Q-84.4 1.05 -86.05 1.85 -88.4 2.95 -88.3 4.05 -88.2 4.75 -86.5 6.9 -81.0 13.55 -76.75 16.1 L-79.25 18.25 -79.35 18.35 -79.45 18.4 -79.55 18.5 -79.95 18.95 Q-76.75 20.9 -72.6 21.5 -69.15 22.0 -65.8 21.5 L-64.0 21.15 -61.85 20.45 -59.95 19.6 Q-57.35 18.4 -56.1 18.0 M-64.6 -1.8 Q-61.6 -7.05 -60.6 -9.45 -60.4 -9.85 -59.0 -7.45 L-57.55 -4.65 Q-57.15 -2.9 -57.35 0.3 -54.9 -0.9 -50.5 -2.4 L-47.3 -3.05 Q-46.35 -2.7 -46.35 0.0 -46.4 4.9 -50.25 9.6 -53.9 14.0 -58.35 15.4 L-59.05 15.65 -56.3 17.85 M-29.1 19.75 L-28.35 20.6" fill="none" stroke="#000000" stroke-linecap="round" stroke-linejoin="miter-clip" stroke-miterlimit="4.0" stroke-width="1.0"/>
    <path d="M31.95 10.3 L31.9 10.35 27.95 11.25 27.9 11.25 27.85 11.2 27.75 11.1 26.9 10.5 27.5 10.55 28.35 10.6 29.45 10.55 29.85 10.55 30.05 10.5 29.4 8.85 28.7 6.85 27.4 3.75 Q26.6 2.35 22.65 -2.15 L20.95 -3.8 M37.65 -15.35 L36.75 -14.2 36.65 -14.05 32.45 -7.7 32.45 -6.25 32.5 -0.25 Q32.5 3.05 32.0 4.45 31.55 5.85 30.4 7.5 L29.4 8.85 M32.45 -7.7 Q32.35 -14.95 31.45 -19.6 M71.3 11.7 L71.6 12.25 M72.1 12.95 L69.85 13.2 68.0 13.5 66.2 13.8 66.15 13.8 M59.9 3.85 L60.85 3.95 65.05 5.15 Q65.85 5.55 66.65 6.1 L66.25 4.9 64.7 0.5 Q63.3 -3.8 59.45 -7.25 M72.25 -4.0 L72.25 -2.65 71.95 1.45 71.85 2.3 71.95 2.25 Q72.65 1.85 73.55 1.6 L74.6 1.35 75.85 1.2 Q77.55 1.0 79.7 1.2 L79.75 1.2 M72.25 -4.0 L71.9 -9.0 M68.85 8.25 L69.25 8.8 71.3 11.7 71.25 11.7 M71.55 4.05 L71.85 2.3 M67.7 7.0 L67.9 7.2 68.1 7.4 68.45 7.8 68.85 8.25 M66.65 6.1 L67.7 7.0 M53.0 4.9 L54.8 4.3 59.9 3.85 M27.95 11.25 L27.85 11.2 M28.35 10.6 L27.95 11.25 M-9.6 23.35 L-9.45 23.55 M-16.8 25.4 L-16.95 25.4 -17.55 25.45 -19.6 25.3 -20.0 25.2 -20.25 25.15 -20.65 25.05 -20.85 25.0 M-76.2 1.95 Q-73.95 2.5 -71.75 3.4 -69.25 4.4 -66.85 5.85 L-66.5 6.05 -66.15 2.45 -66.0 1.85 Q-65.55 0.15 -64.6 -1.8 M-56.3 17.85 L-56.1 18.0 M-12.3 18.6 L-10.7 21.35 M-14.85 15.75 L-14.9 14.0 -15.1 12.6 -15.2 12.15 -15.8 9.55 Q-16.55 6.8 -17.7 4.35 M-10.45 11.85 Q-9.45 11.05 -8.0 10.45 M-14.85 15.75 L-14.75 15.85 -11.7 13.0 -11.6 12.9 -10.45 11.85 M-13.25 17.35 L-13.15 17.45 -13.05 17.55 -12.9 17.75 -12.3 18.6 M-14.75 15.85 L-13.35 17.2 -13.25 17.35 M-18.95 14.15 L-18.8 14.15 -18.7 14.15 -17.25 14.5 -16.8 14.65 Q-15.8 15.05 -14.85 15.75 M-18.95 14.15 L-20.45 14.05 -21.95 14.15 Q-23.45 14.35 -24.9 15.0 -26.2 15.55 -27.35 16.4 L-27.5 16.5 -29.9 18.7 -29.1 19.75 M-20.45 14.05 L-21.6 12.65 Q-24.05 9.5 -28.25 7.75 M-57.95 5.4 L-58.4 8.75 -58.45 9.2 -58.55 9.55 Q-59.3 12.5 -60.85 14.35 -60.6 14.5 -60.3 14.75 L-59.05 15.65 M-57.95 5.4 L-57.6 2.55 -57.35 0.3 M-66.2 10.15 L-66.3 8.85 -66.5 6.35 -66.5 6.05 M-76.75 16.1 L-74.95 14.95 Q-71.8 13.25 -68.2 12.85 L-66.3 12.8 -64.45 13.0 -66.2 10.3 M-64.45 13.0 Q-63.35 13.2 -62.3 13.65 L-61.3 14.1 -60.85 14.35" fill="none" stroke="#000000" stroke-linecap="round" stroke-linejoin="miter-clip" stroke-miterlimit="4.0" stroke-opacity="0.6" stroke-width="1.0"/>
  </g>
</svg>
