<?xml version="1.0" encoding="UTF-8" standalone="no"?>
<svg xmlns:xlink="http://www.w3.org/1999/xlink" height="1030.85px" width="110.2px" xmlns="http://www.w3.org/2000/svg">
  <g transform="matrix(1.0, 0.0, 0.0, 1.0, 55.1, 515.45)">
    <path d="M39.35 -499.7 Q54.6 -484.4 54.6 -462.85 54.6 -441.25 39.35 -425.95 24.1 -410.7 2.5 -410.7 -19.1 -410.7 -34.35 -425.95 -49.65 -441.25 -49.65 -462.85 -49.65 -484.4 -34.35 -499.7 -19.1 -514.95 2.5 -514.95 24.1 -514.95 39.35 -499.7 M19.55 493.65 Q30.85 482.7 30.85 467.25 30.85 451.75 19.55 440.85 8.2 429.9 -7.85 429.9 -23.85 429.9 -35.2 440.85 -46.5 451.75 -46.5 467.25 -46.5 482.7 -35.2 493.65 -23.85 504.55 -7.85 504.55 8.2 504.55 19.55 493.65 M35.75 -458.35 Q35.75 -473.8 24.45 -484.75 13.1 -495.7 -2.9 -495.7 -18.9 -495.7 -30.25 -484.75 -41.6 -473.8 -41.6 -458.35 -41.6 -442.9 -30.25 -431.95 -18.9 -421.05 -2.9 -421.05 13.1 -421.05 24.45 -431.95 35.75 -442.9 35.75 -458.35 M49.65 462.75 Q49.65 484.35 34.4 499.65 19.15 514.9 -2.45 514.9 -24.05 514.9 -39.3 499.65 -54.6 484.35 -54.6 462.75 -54.6 441.15 -39.3 425.9 -24.05 410.6 -2.45 410.6 19.15 410.6 34.4 425.9 49.65 441.15 49.65 462.75" fill="#000000" fill-opacity="0.14901961" fill-rule="evenodd" stroke="none"/>
    <path d="M35.75 -458.35 Q35.75 -442.9 24.45 -431.95 13.1 -421.05 -2.9 -421.05 -18.9 -421.05 -30.25 -431.95 -41.6 -442.9 -41.6 -458.35 -41.6 -473.8 -30.25 -484.75 -18.9 -495.7 -2.9 -495.7 13.1 -495.7 24.45 -484.75 35.75 -473.8 35.75 -458.35 M19.55 493.65 Q8.2 504.55 -7.85 504.55 -23.85 504.55 -35.2 493.65 -46.5 482.7 -46.5 467.25 -46.5 451.75 -35.2 440.85 -23.85 429.9 -7.85 429.9 8.2 429.9 19.55 440.85 30.85 451.75 30.85 467.25 30.85 482.7 19.55 493.65" fill="#000000" fill-opacity="0.29803923" fill-rule="evenodd" stroke="none"/>
    <path d="M39.35 -499.7 Q54.6 -484.4 54.6 -462.85 54.6 -441.25 39.35 -425.95 24.1 -410.7 2.5 -410.7 -19.1 -410.7 -34.35 -425.95 -49.65 -441.25 -49.65 -462.85 -49.65 -484.4 -34.35 -499.7 -19.1 -514.95 2.5 -514.95 24.1 -514.95 39.35 -499.7 M49.65 462.75 Q49.65 484.35 34.4 499.65 19.15 514.9 -2.45 514.9 -24.05 514.9 -39.3 499.65 -54.6 484.35 -54.6 462.75 -54.6 441.15 -39.3 425.9 -24.05 410.6 -2.45 410.6 19.15 410.6 34.4 425.9 49.65 441.15 49.65 462.75" fill="none" stroke="#000000" stroke-linecap="round" stroke-linejoin="miter-clip" stroke-miterlimit="4.0" stroke-opacity="0.6" stroke-width="1.0"/>
  </g>
</svg>
