<?xml version="1.0" encoding="UTF-8" standalone="no"?>
<svg xmlns:xlink="http://www.w3.org/1999/xlink" height="330.9px" width="680.7px" xmlns="http://www.w3.org/2000/svg">
  <g transform="matrix(1.0, 0.0, 0.0, 1.0, 340.35, 165.4)">
    <path d="M52.75 -11.5 L63.75 -5.05 64.05 44.05 63.9 44.1 53.95 39.15 52.75 -11.5 M232.4 93.15 L244.55 100.25 243.35 164.8 243.2 164.9 232.05 156.75 232.4 93.15 M68.55 -44.7 L62.2 -47.6 77.7 -49.2 86.05 -47.45 68.55 -44.7 M232.8 30.85 L262.05 29.15 271.45 32.4 245.75 35.65 245.75 36.8 233.2 31.05 232.8 30.85 M-258.15 -159.2 L-254.2 -159.0 -254.7 -150.3 -258.65 -148.8 -258.15 -159.2 M-206.1 -153.85 L-202.15 -153.2 -202.65 -141.75 -206.6 -140.45 -206.1 -153.85 M233.2 31.05 L245.75 35.65 233.2 31.05" fill="#000000" fill-opacity="0.2" fill-rule="evenodd" stroke="none"/>
    <path d="M338.5 82.25 L271.0 51.15 245.7 39.5 232.7 33.5 86.05 -34.0 64.2 -44.05 57.45 -47.15 57.4 -47.15 42.35 -54.1 -79.85 -110.2 -93.0 -116.2 -99.6 -119.25 -156.55 -145.15 -162.8 -147.95 -165.95 -149.4 -173.75 -152.8 Q-178.25 -154.55 -183.8 -155.9 -190.1 -157.45 -197.75 -158.55 L-205.45 -159.35 -204.3 -159.4 -203.75 -159.4 -202.45 -159.45 -193.9 -158.75 -190.4 -158.25 -182.15 -156.7 -174.1 -154.75 -167.85 -152.8 -163.95 -151.1 -163.65 -151.0 -163.45 -150.9 -160.9 -149.8 -156.45 -147.8 -99.6 -121.9 -92.9 -118.85 -79.75 -112.8 Q-25.45 -87.95 62.2 -47.6 L68.55 -44.7 86.05 -36.65 232.8 30.85 233.2 31.05 245.75 36.8 271.1 48.5 338.5 79.55 338.5 82.25" fill="#000000" fill-opacity="0.4" fill-rule="evenodd" stroke="none"/>
    <path d="M339.85 119.65 Q310.25 104.1 270.25 83.4 L245.1 70.4 232.55 63.95 197.35 45.85 86.05 -11.35 63.65 -22.95 54.85 -27.5 52.35 -28.8 Q-6.9 -59.65 -78.25 -98.15 L-80.25 -99.2 -93.25 -106.25 -99.75 -109.7 -144.15 -133.45 -177.15 -150.7 Q-180.7 -152.55 -184.6 -154.0 -188.75 -155.55 -193.3 -156.7 L-201.95 -158.4 -205.95 -159.15 -207.6 -159.4 -205.95 -159.15 -201.95 -158.4 -193.3 -156.7 Q-188.75 -155.55 -184.6 -154.0 -180.7 -152.55 -177.15 -150.7 L-144.15 -133.45 -99.75 -109.7 -93.25 -106.25 -80.25 -99.2 -78.25 -98.15 Q-6.9 -59.65 52.35 -28.8 L54.85 -27.5 63.65 -22.95 86.05 -11.35 197.35 45.85 232.55 63.95 245.1 70.4 270.25 83.4 Q310.25 104.1 339.85 119.65 L339.85 155.7 337.5 154.35 269.5 114.75 244.55 100.25 232.4 93.15 86.05 7.9 63.75 -5.05 52.75 -11.5 -26.15 -57.45 -80.6 -88.5 -93.55 -95.85 -99.85 -99.5 -157.0 -132.05 -163.1 -135.55 -166.1 -137.3 -181.3 -146.9 -183.55 -148.2 -183.65 -148.25 -183.7 -148.25 -183.95 -148.4 -184.1 -148.5 Q-192.1 -152.9 -202.0 -156.8 L-205.95 -158.3 -207.65 -159.0 -207.6 -159.4 -206.2 -159.45 -205.7 -159.4 -205.45 -159.35 -197.75 -158.55 Q-190.1 -157.45 -183.8 -155.9 -178.25 -154.55 -173.75 -152.8 L-165.95 -149.4 -162.8 -147.95 -156.55 -145.15 -99.6 -119.25 -93.0 -116.2 -79.85 -110.2 42.35 -54.1 57.4 -47.15 57.45 -47.15 64.2 -44.05 86.05 -34.0 232.7 33.5 245.7 39.5 271.0 51.15 338.5 82.25 339.85 82.85 339.85 119.65" fill="#ffffff" fill-opacity="0.0" fill-rule="evenodd" stroke="none"/>
    <path d="M-339.85 -164.6 Q-272.5 -164.0 -254.2 -163.1 L-207.6 -159.4 -207.65 -159.0 -205.95 -158.3 -202.0 -156.8 -219.85 -158.8 -254.4 -161.7 Q-276.6 -162.85 -339.85 -163.15 -276.6 -162.85 -254.4 -161.7 L-219.85 -158.8 -202.0 -156.8 Q-192.1 -152.9 -184.1 -148.5 L-183.95 -148.4 -183.7 -148.25 -187.65 -149.65 Q-193.45 -151.5 -202.15 -153.2 L-206.1 -153.85 -208.05 -154.2 -213.45 -155.05 Q-229.05 -157.3 -248.7 -158.65 L-254.2 -159.0 -258.15 -159.2 -260.15 -159.3 -263.3 -159.45 Q-290.15 -160.75 -323.55 -160.45 L-327.5 -160.4 -329.45 -160.4 -339.85 -160.25 -339.85 -163.15 -339.85 -164.6 M63.75 -5.05 L86.05 7.9 86.05 34.05 64.05 44.05 63.75 -5.05 M244.55 100.25 L269.5 114.75 268.65 151.95 243.2 164.9 243.35 164.8 244.55 100.25 M86.05 -47.45 L86.05 -36.65 68.55 -44.7 86.05 -47.45 M271.45 32.4 L271.1 48.5 245.75 36.8 245.75 35.65 271.45 32.4" fill="#000000" fill-opacity="0.09803922" fill-rule="evenodd" stroke="none"/>
    <path d="M-206.2 -159.45 L-207.6 -159.4 -254.2 -163.1 Q-272.5 -164.0 -339.85 -164.6 L-321.95 -164.85 Q-299.9 -165.05 -279.05 -164.65 L-263.3 -164.25 -258.65 -164.1 -248.7 -163.7 Q-214.8 -162.15 -193.9 -158.75 L-202.45 -159.45 -203.75 -159.4 -203.25 -159.45 -204.75 -159.45 -206.2 -159.45 M-329.45 -160.4 L-327.5 -160.4 -327.8 -153.8 -327.85 -153.75 -329.55 -154.25 -329.45 -160.4" fill="#000000" fill-opacity="0.34901962" fill-rule="evenodd" stroke="none"/>
    <path d="M-92.9 -118.85 L-99.6 -121.9 -99.55 -124.95 -99.35 -124.95 -99.25 -124.95 -84.9 -124.7 -79.55 -122.95 -81.95 -122.85 -92.85 -122.4 -92.9 -118.85 M-160.9 -149.8 L-163.45 -150.9 -158.95 -150.8 -156.4 -149.8 -160.9 -149.8 M-327.5 -160.4 L-323.55 -160.45 -323.9 -155.0 -327.85 -153.75 -327.8 -153.8 -327.5 -160.4 M-166.1 -137.3 L-163.1 -135.55 -163.6 -114.2 -163.65 -114.2 -166.35 -116.35 -166.1 -137.3 M-99.85 -99.5 L-93.55 -95.85 -94.65 -55.8 -94.75 -55.75 -100.4 -60.25 -99.85 -99.5 M-92.85 -122.4 L-99.25 -124.95 -92.85 -122.4" fill="#000000" fill-opacity="0.24705882" fill-rule="evenodd" stroke="none"/>
    <path d="M-205.45 -159.35 L-205.7 -159.4 -205.6 -159.4 -205.4 -159.4 -204.3 -159.4 -205.4 -159.4 -204.75 -159.45 -203.25 -159.45 -203.75 -159.4 -204.3 -159.4 -205.45 -159.35" fill="#a7a7a7" fill-rule="evenodd" stroke="none"/>
    <path d="M-205.7 -159.4 L-206.2 -159.45 -204.75 -159.45 -205.4 -159.4 -205.6 -159.4 -205.7 -159.4" fill="#8a8a8a" fill-rule="evenodd" stroke="none"/>
    <path d="M-260.15 -159.3 L-258.15 -159.2 -258.65 -148.8 -258.7 -148.8 -260.4 -149.7 -260.15 -159.3 M-208.05 -154.2 L-206.1 -153.85 -206.6 -140.45 -208.3 -141.6 -208.05 -154.2" fill="#000000" fill-opacity="0.29803923" fill-rule="evenodd" stroke="none"/>
    <path d="M-79.75 -112.8 L-92.9 -118.85 -92.85 -122.4 -81.95 -122.85 -79.45 -122.85 -79.75 -112.8 M-156.45 -147.8 L-160.9 -149.8 -156.4 -149.8 -156.45 -147.8 M-163.1 -135.55 L-157.0 -132.05 -157.4 -114.95 -163.6 -114.2 -163.1 -135.55 M-93.55 -95.85 L-80.6 -88.5 -81.6 -61.05 -94.65 -55.8 -93.55 -95.85" fill="#000000" fill-opacity="0.14901961" fill-rule="evenodd" stroke="none"/>
    <path d="M339.85 119.65 L339.85 82.85 338.5 82.25 338.5 79.55 271.1 48.5 271.45 32.4 262.05 29.15 232.8 30.85 86.05 -36.65 86.05 -47.45 77.7 -49.2 62.2 -47.6 Q-25.45 -87.95 -79.75 -112.8 M86.05 7.9 L232.4 93.15 232.05 156.75 243.2 164.9 268.65 151.95 269.5 114.75 337.5 154.35 M339.85 155.7 L339.85 119.65 M-99.6 -121.9 L-156.45 -147.8 M-163.95 -151.1 L-167.85 -152.8 -174.1 -154.75 -182.15 -156.7 -190.4 -158.25 -193.9 -158.75 M-329.45 -160.4 L-327.5 -160.4 -323.55 -160.45 M-258.15 -159.2 L-254.2 -159.0 M-208.05 -154.2 L-206.1 -153.85 -202.15 -153.2 M-183.7 -148.25 L-183.95 -148.4 -184.1 -148.5 M-166.1 -137.3 L-181.3 -146.9 -183.55 -148.2 M-157.0 -132.05 L-99.85 -99.5 M-80.6 -88.5 L-26.15 -57.45 52.75 -11.5 53.95 39.15 63.9 44.1 M86.05 7.9 L86.05 34.05 64.05 44.05" fill="none" stroke="#000000" stroke-linecap="round" stroke-linejoin="miter-clip" stroke-miterlimit="4.0" stroke-width="1.0"/>
    <path d="M-207.6 -159.4 L-205.95 -159.15 -201.95 -158.4 -193.3 -156.7 Q-188.75 -155.55 -184.6 -154.0 -180.7 -152.55 -177.15 -150.7 L-144.15 -133.45 -99.75 -109.7 -93.25 -106.25 -80.25 -99.2 -78.25 -98.15 Q-6.9 -59.65 52.35 -28.8 L54.85 -27.5 63.65 -22.95 86.05 -11.35 197.35 45.85 232.55 63.95 245.1 70.4 270.25 83.4 Q310.25 104.1 339.85 119.65 M-197.75 -158.55 L-205.45 -159.35 -205.7 -159.4 -206.2 -159.45 -207.6 -159.4 -207.65 -159.0 -205.95 -158.3 -202.0 -156.8 Q-192.1 -152.9 -184.1 -148.5 M52.75 -11.5 L63.75 -5.05 86.05 7.9 M232.4 93.15 L244.55 100.25 269.5 114.75 M337.5 154.35 L339.85 155.7 M68.55 -44.7 L62.2 -47.6 M-79.75 -112.8 L-92.9 -118.85 -99.6 -121.9 M-156.45 -147.8 L-160.9 -149.8 -163.45 -150.9 -163.65 -151.0 M-193.9 -158.75 L-202.45 -159.45 -203.75 -159.4 -204.3 -159.4 -205.4 -159.4 -205.6 -159.4 -205.7 -159.4 M68.55 -44.7 L86.05 -36.65 M86.05 -47.45 L68.55 -44.7 M-166.1 -137.3 L-163.1 -135.55 -157.0 -132.05 M-99.85 -99.5 L-93.55 -95.85 -80.6 -88.5 M63.9 44.1 L64.05 44.05 63.75 -5.05 M245.75 36.8 L271.1 48.5 M271.45 32.4 L245.75 35.65 245.75 36.8 233.2 31.05 232.8 30.85 M243.2 164.9 L243.35 164.8 244.55 100.25 M245.75 35.65 L233.2 31.05" fill="none" stroke="#000000" stroke-linecap="round" stroke-linejoin="miter-clip" stroke-miterlimit="4.0" stroke-opacity="0.6" stroke-width="1.0"/>
    <path d="M338.5 82.25 L271.0 51.15 245.7 39.5 232.7 33.5 86.05 -34.0 64.2 -44.05 57.45 -47.15 57.4 -47.15 42.35 -54.1 -79.85 -110.2 -93.0 -116.2 -99.6 -119.25 -156.55 -145.15 -162.8 -147.95 -165.95 -149.4 -173.75 -152.8 Q-178.25 -154.55 -183.8 -155.9 -190.1 -157.45 -197.75 -158.55" fill="none" stroke="#000000" stroke-linecap="round" stroke-linejoin="miter-clip" stroke-miterlimit="4.0" stroke-opacity="0.4" stroke-width="1.0"/>
    <path d="M-339.85 -164.6 L-339.85 -163.15 -339.85 -160.25 -329.45 -160.4 -329.55 -154.25 -327.85 -153.75 -323.9 -155.0 -323.55 -160.45 Q-290.15 -160.75 -263.3 -159.45 L-260.15 -159.3 -260.4 -149.7 -258.7 -148.8 M-254.2 -159.0 L-248.7 -158.65 Q-229.05 -157.3 -213.45 -155.05 L-208.05 -154.2 -208.3 -141.6 -206.6 -140.45 -202.65 -141.75 -202.15 -153.2 Q-193.45 -151.5 -187.65 -149.65 L-183.7 -148.25 -183.65 -148.25 -183.55 -148.2 M-163.65 -114.2 L-166.35 -116.35 -166.1 -137.3 M-163.6 -114.2 L-157.4 -114.95 -157.0 -132.05 M-339.85 -164.6 L-321.95 -164.85 Q-299.9 -165.05 -279.05 -164.65 L-263.3 -164.25 -258.65 -164.1 -248.7 -163.7 Q-214.8 -162.15 -193.9 -158.75 M-254.2 -159.0 L-254.7 -150.3 -258.65 -148.8 M-79.45 -122.85 L-79.75 -112.8 M-163.45 -150.9 L-158.95 -150.8 -156.4 -149.8 -156.45 -147.8 M-99.25 -124.95 L-84.9 -124.7 -79.55 -122.95 M-99.6 -121.9 L-99.55 -124.95 M-94.75 -55.75 L-100.4 -60.25 -99.85 -99.5 M-94.65 -55.8 L-81.6 -61.05 -80.6 -88.5" fill="none" stroke="#000000" stroke-linecap="round" stroke-linejoin="round" stroke-width="1.0"/>
    <path d="M-207.6 -159.4 L-254.2 -163.1 Q-272.5 -164.0 -339.85 -164.6 M-339.85 -163.15 Q-276.6 -162.85 -254.4 -161.7 L-219.85 -158.8 -202.0 -156.8 M-163.65 -151.0 L-163.95 -151.1 M-260.15 -159.3 L-258.15 -159.2 -258.65 -148.8 -258.7 -148.8 M-327.5 -160.4 L-327.8 -153.8 -327.85 -153.75 M-206.6 -140.45 L-206.1 -153.85 M-163.6 -114.2 L-163.65 -114.2 M-163.1 -135.55 L-163.6 -114.2 M-156.4 -149.8 L-160.9 -149.8 M-99.35 -124.95 L-99.25 -124.95 -92.85 -122.4 -92.9 -118.85 M-79.55 -122.95 L-81.95 -122.85 -79.45 -122.85 M-81.95 -122.85 L-92.85 -122.4 M-94.65 -55.8 L-94.75 -55.75 M-93.55 -95.85 L-94.65 -55.8" fill="none" stroke="#000000" stroke-linecap="round" stroke-linejoin="round" stroke-opacity="0.6" stroke-width="1.0"/>
  </g>
</svg>
