<?xml version="1.0" encoding="UTF-8" standalone="no"?>
<svg xmlns:xlink="http://www.w3.org/1999/xlink" height="92.0px" width="294.7px" xmlns="http://www.w3.org/2000/svg">
  <g transform="matrix(1.0, 0.0, 0.0, 1.0, 0.75, 5.05)">
    <path d="M186.25 0.75 L206.5 1.65 Q254.5 3.95 259.55 7.9 264.85 12.05 276.7 35.2 L280.15 42.05 Q287.35 56.6 290.4 64.9 293.0 71.9 293.2 75.8 293.4 79.6 291.4 81.15 L291.15 81.3 276.3 82.35 186.25 0.75 M261.65 82.9 L232.1 83.6 140.7 0.0 159.5 0.0 171.6 0.3 261.65 82.9 M204.2 84.15 L159.6 84.85 159.5 84.85 133.7 84.85 99.0 84.35 26.2 17.65 Q30.85 10.1 33.65 7.9 38.7 3.95 86.7 1.65 L111.7 0.6 112.75 0.55 204.2 84.15 M84.6 84.1 L68.75 83.75 1.8 81.15 Q-0.2 79.6 0.0 75.8 0.2 71.9 2.8 64.9 6.55 54.75 16.5 35.2 19.05 30.2 21.35 26.05 L84.6 84.1" fill="#ffffff" fill-opacity="0.0" fill-rule="evenodd" stroke="none"/>
    <path d="M276.3 82.35 L261.65 82.9 171.6 0.3 186.25 0.75 276.3 82.35 M232.1 83.6 L224.45 83.75 204.2 84.15 112.75 0.55 133.7 0.0 140.7 0.0 232.1 83.6 M99.0 84.35 L84.6 84.1 21.35 26.05 Q23.95 21.2 26.2 17.65 L99.0 84.35" fill="#ffffff" fill-opacity="0.09803922" fill-rule="evenodd" stroke="none"/>
    <path d="M186.25 0.75 L206.5 1.65 Q254.5 3.95 259.55 7.9 264.85 12.05 276.7 35.2 L280.15 42.05 Q287.35 56.6 290.4 64.9 293.0 71.9 293.2 75.8 293.4 79.6 291.4 81.15 L291.15 81.3 276.3 82.35 261.65 82.9 232.1 83.6 224.45 83.75 204.2 84.15 159.6 84.85 159.5 84.85 133.7 84.85 99.0 84.35 84.6 84.1 68.75 83.75 1.8 81.15 Q-0.2 79.6 0.0 75.8 0.2 71.9 2.8 64.9 6.55 54.75 16.5 35.2 19.05 30.2 21.35 26.05 23.95 21.2 26.2 17.65 30.85 10.1 33.65 7.9 38.7 3.95 86.7 1.65 L111.7 0.6 112.75 0.55 133.7 0.0 140.7 0.0 159.5 0.0 171.6 0.3 186.25 0.75 Z" fill="none" stroke="#000000" stroke-linecap="round" stroke-linejoin="miter-clip" stroke-miterlimit="10.0" stroke-opacity="0.09803922" stroke-width="1.0"/>
  </g>
</svg>
