<?xml version="1.0" encoding="UTF-8" standalone="no"?>
<svg xmlns:xlink="http://www.w3.org/1999/xlink" height="34.7px" width="363.7px" xmlns="http://www.w3.org/2000/svg">
  <g transform="matrix(1.0, 0.0, 0.0, 1.0, 0.65, 1.0)">
    <path d="M347.2 6.2 Q351.5 9.9 351.5 15.15 351.5 20.35 347.2 24.1 342.85 27.8 336.7 27.8 330.6 27.8 326.25 24.1 321.9 20.35 321.9 15.15 321.9 9.9 326.25 6.2 330.6 2.45 336.7 2.45 342.85 2.45 347.2 6.2 M283.65 16.7 Q283.65 12.15 286.9 8.95 290.2 5.75 294.8 5.75 299.4 5.75 302.7 8.95 305.95 12.15 305.95 16.7 305.95 21.25 302.7 24.45 299.4 27.65 294.8 27.65 290.2 27.65 286.9 24.45 283.65 21.25 283.65 16.7 M75.5 8.95 Q78.75 12.15 78.75 16.7 78.75 21.25 75.5 24.45 72.2 27.65 67.6 27.65 63.0 27.65 59.7 24.45 56.45 21.25 56.45 16.7 56.45 12.15 59.7 8.95 63.0 5.75 67.6 5.75 72.2 5.75 75.5 8.95 M36.15 6.2 Q40.5 9.9 40.5 15.15 40.5 20.35 36.15 24.1 31.8 27.8 25.7 27.8 19.55 27.8 15.25 24.1 10.9 20.35 10.9 15.15 10.9 9.9 15.25 6.2 19.55 2.45 25.7 2.45 31.8 2.45 36.15 6.2" fill="#ffffff" fill-opacity="0.0" fill-rule="evenodd" stroke="none"/>
    <path d="M347.2 6.2 Q342.85 2.45 336.7 2.45 330.6 2.45 326.25 6.2 321.9 9.9 321.9 15.15 321.9 20.35 326.25 24.1 330.6 27.8 336.7 27.8 342.85 27.8 347.2 24.1 351.5 20.35 351.5 15.15 351.5 9.9 347.2 6.2 M358.15 14.35 L362.4 30.5 312.3 30.5 274.5 30.5 270.1 25.65 Q267.15 22.25 272.25 14.3 277.0 6.85 282.6 3.9 287.15 1.55 321.2 0.5 335.6 0.05 348.45 0.0 L352.35 3.55 Q356.55 8.3 358.15 14.35 M283.65 16.7 Q283.65 21.25 286.9 24.45 290.2 27.65 294.8 27.65 299.4 27.65 302.7 24.45 305.95 21.25 305.95 16.7 305.95 12.15 302.7 8.95 299.4 5.75 294.8 5.75 290.2 5.75 286.9 8.95 283.65 12.15 283.65 16.7 M312.3 30.5 L321.2 0.5 312.3 30.5 M41.0 0.55 L44.35 0.6 Q75.55 1.65 79.8 3.9 85.4 6.85 90.2 14.3 95.25 22.25 92.3 25.65 L88.55 29.9 87.9 30.5 50.0 30.5 41.0 0.55 50.0 30.5 0.0 30.5 4.25 14.35 Q5.85 8.3 10.05 3.55 12.15 1.15 13.95 0.0 L41.0 0.55 M36.15 6.2 Q31.8 2.45 25.7 2.45 19.55 2.45 15.25 6.2 10.9 9.9 10.9 15.15 10.9 20.35 15.25 24.1 19.55 27.8 25.7 27.8 31.8 27.8 36.15 24.1 40.5 20.35 40.5 15.15 40.5 9.9 36.15 6.2 M75.5 8.95 Q72.2 5.75 67.6 5.75 63.0 5.75 59.7 8.95 56.45 12.15 56.45 16.7 56.45 21.25 59.7 24.45 63.0 27.65 67.6 27.65 72.2 27.65 75.5 24.45 78.75 21.25 78.75 16.7 78.75 12.15 75.5 8.95" fill="#000000" fill-opacity="0.14901961" fill-rule="evenodd" stroke="none"/>
    <path d="M347.2 6.2 Q342.85 2.45 336.7 2.45 330.6 2.45 326.25 6.2 321.9 9.9 321.9 15.15 321.9 20.35 326.25 24.1 330.6 27.8 336.7 27.8 342.85 27.8 347.2 24.1 351.5 20.35 351.5 15.15 351.5 9.9 347.2 6.2 M283.65 16.7 Q283.65 21.25 286.9 24.45 290.2 27.65 294.8 27.65 299.4 27.65 302.7 24.45 305.95 21.25 305.95 16.7 305.95 12.15 302.7 8.95 299.4 5.75 294.8 5.75 290.2 5.75 286.9 8.95 283.65 12.15 283.65 16.7 M321.2 0.5 L312.3 30.5 M41.0 0.55 L50.0 30.5 M75.5 8.95 Q78.75 12.15 78.75 16.7 78.75 21.25 75.5 24.45 72.2 27.65 67.6 27.65 63.0 27.65 59.7 24.45 56.45 21.25 56.45 16.7 56.45 12.15 59.7 8.95 63.0 5.75 67.6 5.75 72.2 5.75 75.5 8.95 M36.15 6.2 Q40.5 9.9 40.5 15.15 40.5 20.35 36.15 24.1 31.8 27.8 25.7 27.8 19.55 27.8 15.25 24.1 10.9 20.35 10.9 15.15 10.9 9.9 15.25 6.2 19.55 2.45 25.7 2.45 31.8 2.45 36.15 6.2" fill="none" stroke="#000000" stroke-linecap="round" stroke-linejoin="miter-clip" stroke-miterlimit="10.0" stroke-opacity="0.6" stroke-width="1.0"/>
    <path d="M358.15 14.35 L362.4 30.5 312.3 30.5 274.5 30.5 270.1 25.65 Q267.15 22.25 272.25 14.3 277.0 6.85 282.6 3.9 287.15 1.55 321.2 0.5 335.6 0.05 348.45 0.0 L352.35 3.55 Q356.55 8.3 358.15 14.35 M50.0 30.5 L87.9 30.5 88.55 29.9 92.3 25.65 Q95.25 22.25 90.2 14.3 85.4 6.85 79.8 3.9 75.55 1.65 44.35 0.6 L41.0 0.55 13.95 0.0 Q12.15 1.15 10.05 3.55 5.85 8.3 4.25 14.35 L0.0 30.5 50.0 30.5" fill="none" stroke="#000000" stroke-linecap="round" stroke-linejoin="miter-clip" stroke-miterlimit="10.0" stroke-width="1.0"/>
  </g>
</svg>
