<?xml version="1.0" encoding="UTF-8" standalone="no"?>
<svg xmlns:xlink="http://www.w3.org/1999/xlink" height="223.0px" width="419.25px" xmlns="http://www.w3.org/2000/svg">
  <g transform="matrix(1.0, 0.0, 0.0, 1.0, 21.9, 5.05)">
    <path d="M62.15 84.3 L63.6 84.55 69.8 85.15 Q85.05 86.35 198.2 86.35 311.35 86.35 326.55 85.15 L332.75 84.55 Q335.9 84.05 337.8 83.35 L329.95 88.55 Q318.15 96.45 311.9 101.25 305.65 106.05 297.7 118.75 293.75 125.15 291.0 130.55 293.75 125.15 297.7 118.75 305.65 106.05 311.9 101.25 318.15 96.45 329.95 88.55 L337.8 83.35 Q339.85 82.6 340.5 81.55 341.75 79.6 334.2 63.85 L326.35 48.55 Q323.4 42.55 317.9 33.7 311.85 23.9 309.15 21.35 307.55 19.85 273.6 17.25 234.5 14.25 198.1 14.25 161.8 14.25 122.75 17.25 88.8 19.85 87.25 21.35 84.5 23.9 78.45 33.7 72.95 42.6 70.05 48.55 L62.2 63.85 Q54.6 79.6 55.9 81.55 57.05 83.3 62.15 84.3 L68.55 88.55 Q80.35 96.45 86.6 101.25 92.85 106.05 100.8 118.75 104.65 124.95 107.35 130.2 104.65 124.95 100.8 118.75 92.85 106.05 86.6 101.25 80.35 96.45 68.55 88.55 L62.15 84.3 M291.0 130.55 Q291.15 129.05 290.35 127.1 288.8 123.15 284.0 120.95 279.2 118.75 242.4 118.35 L191.85 118.4 Q174.4 118.15 156.0 118.35 119.2 118.75 114.4 120.95 109.6 123.15 108.0 127.1 107.3 128.85 107.35 130.2 L107.35 130.55 107.4 130.65 126.45 163.5 271.95 163.5 291.0 130.55 M373.45 111.0 Q375.1 113.95 376.65 117.75 379.4 124.6 381.0 132.3 382.5 139.6 383.35 174.25 384.2 208.55 383.1 212.3 382.2 215.35 375.55 216.55 L369.1 217.15 27.15 217.15 20.7 216.55 Q14.05 215.35 13.15 212.3 12.05 208.55 12.9 174.25 13.75 139.6 15.25 132.3 16.85 124.6 19.6 117.75 21.15 113.95 22.8 110.95 24.3 108.25 25.95 106.2 28.75 102.65 36.7 98.15 L36.8 98.1 44.15 94.3 44.65 92.75 47.7 83.05 Q51.75 70.6 54.45 64.85 62.4 48.05 74.05 32.8 86.7 16.35 98.15 9.3 104.0 5.7 131.4 2.45 L153.15 0.0 243.0 0.0 264.85 2.45 Q292.25 5.7 298.1 9.3 309.55 16.35 322.2 32.8 333.85 48.05 341.8 64.85 345.95 73.7 351.65 92.7 L352.1 94.3 359.55 98.15 359.65 98.2 Q367.5 102.65 370.3 106.2 371.95 108.25 373.45 111.0 M266.6 174.7 L131.7 174.7 141.55 191.1 256.8 191.1 266.6 174.7 M259.7 204.5 L296.05 148.2 259.7 204.5 276.05 204.5 259.7 204.5 138.05 204.5 121.3 204.5 138.05 204.5 259.7 204.5 M138.05 204.5 L101.3 148.2 138.05 204.5" fill="#ffffff" fill-opacity="0.0" fill-rule="evenodd" stroke="none"/>
    <path d="M358.7 87.65 L358.75 84.75 Q359.0 80.55 360.15 79.0 361.65 77.1 364.55 76.25 368.3 75.2 375.5 75.45 L386.45 76.0 Q389.7 76.5 391.25 78.65 L394.15 82.4 Q395.45 84.6 395.85 89.4 L396.45 98.5 Q396.25 102.4 394.15 105.5 391.85 108.9 377.65 110.55 L373.45 111.0 Q371.95 108.25 370.3 106.2 367.5 102.65 359.65 98.2 L359.1 93.7 Q358.75 90.4 358.7 87.65 M22.8 110.95 L18.8 110.55 Q4.55 108.9 2.25 105.5 0.15 102.4 0.0 98.5 -0.05 97.1 0.55 89.4 0.95 84.6 2.25 82.4 L5.2 78.65 Q6.75 76.5 10.0 76.0 L20.9 75.45 Q28.1 75.2 31.9 76.25 34.75 77.1 36.25 79.0 37.45 80.55 37.7 84.75 L37.75 87.7 37.3 93.7 36.8 98.1 36.7 98.15 Q28.75 102.65 25.95 106.2 24.3 108.25 22.8 110.95" fill="#000000" fill-opacity="0.09803922" fill-rule="evenodd" stroke="none"/>
    <path d="M37.75 87.7 L41.2 91.4 Q42.75 93.0 44.65 92.75 L44.15 94.3 36.8 98.1 37.3 93.7 37.75 87.7 M351.65 92.7 Q353.6 93.1 355.2 91.4 L358.7 87.65 Q358.75 90.4 359.1 93.7 L359.65 98.2 359.55 98.15 352.1 94.3 351.65 92.7" fill="#000000" fill-opacity="0.24705882" fill-rule="evenodd" stroke="none"/>
    <path d="M107.35 130.2 Q107.3 128.85 108.0 127.1 109.6 123.15 114.4 120.95 119.2 118.75 156.0 118.35 174.4 118.15 191.85 118.4 L242.4 118.35 Q279.2 118.75 284.0 120.95 288.8 123.15 290.35 127.1 291.15 129.05 291.0 130.55 L271.95 163.5 126.45 163.5 107.4 130.65 107.35 130.2" fill="#000000" fill-opacity="0.8" fill-rule="evenodd" stroke="none"/>
    <path d="M266.6 174.7 L256.8 191.1 141.55 191.1 131.7 174.7 266.6 174.7" fill="#ffffff" fill-opacity="0.14901961" fill-rule="evenodd" stroke="none"/>
    <path d="M107.4 130.65 L107.35 130.55 107.35 130.2 107.4 130.65" fill="#1a0503" fill-rule="evenodd" stroke="none"/>
    <path d="M62.15 84.3 L68.55 88.55 Q80.35 96.45 86.6 101.25 92.85 106.05 100.8 118.75 104.65 124.95 107.35 130.2 M291.0 130.55 Q293.75 125.15 297.7 118.75 305.65 106.05 311.9 101.25 318.15 96.45 329.95 88.55 L337.8 83.35 M358.7 87.65 Q358.75 90.4 359.1 93.7 L359.65 98.2 M266.6 174.7 L131.7 174.7 141.55 191.1 256.8 191.1 266.6 174.7 M36.8 98.1 L37.3 93.7 37.75 87.7 M276.05 204.5 L259.7 204.5 138.05 204.5 121.3 204.5 M101.3 148.2 L138.05 204.5 M296.05 148.2 L259.7 204.5" fill="none" stroke="#000000" stroke-linecap="round" stroke-linejoin="miter-clip" stroke-miterlimit="10.0" stroke-opacity="0.6" stroke-width="1.0"/>
    <path d="M337.8 83.35 Q335.9 84.05 332.75 84.55 L326.55 85.15 Q311.35 86.35 198.2 86.35 85.05 86.35 69.8 85.15 L63.6 84.55 62.15 84.3 Q57.05 83.3 55.9 81.55 54.6 79.6 62.2 63.85 L70.05 48.55 Q72.95 42.6 78.45 33.7 84.5 23.9 87.25 21.35 88.8 19.85 122.75 17.25 161.8 14.25 198.1 14.25 234.5 14.25 273.6 17.25 307.55 19.85 309.15 21.35 311.85 23.9 317.9 33.7 323.4 42.55 326.35 48.55 L334.2 63.85 Q341.75 79.6 340.5 81.55 339.85 82.6 337.8 83.35 M107.35 130.2 Q107.3 128.85 108.0 127.1 109.6 123.15 114.4 120.95 119.2 118.75 156.0 118.35 174.4 118.15 191.85 118.4 L242.4 118.35 Q279.2 118.75 284.0 120.95 288.8 123.15 290.35 127.1 291.15 129.05 291.0 130.55 L271.95 163.5 126.45 163.5 107.4 130.65 107.35 130.2 M358.7 87.65 L358.75 84.75 Q359.0 80.55 360.15 79.0 361.65 77.1 364.55 76.25 368.3 75.2 375.5 75.45 L386.45 76.0 Q389.7 76.5 391.25 78.65 L394.15 82.4 Q395.45 84.6 395.85 89.4 L396.45 98.5 Q396.25 102.4 394.15 105.5 391.85 108.9 377.65 110.55 L373.45 111.0 Q375.1 113.95 376.65 117.75 379.4 124.6 381.0 132.3 382.5 139.6 383.35 174.25 384.2 208.55 383.1 212.3 382.2 215.35 375.55 216.55 L369.1 217.15 27.15 217.15 20.7 216.55 Q14.05 215.35 13.15 212.3 12.05 208.55 12.9 174.25 13.75 139.6 15.25 132.3 16.85 124.6 19.6 117.75 21.15 113.95 22.8 110.95 L18.8 110.55 Q4.55 108.9 2.25 105.5 0.15 102.4 0.0 98.5 -0.05 97.1 0.55 89.4 0.95 84.6 2.25 82.4 L5.2 78.65 Q6.75 76.5 10.0 76.0 L20.9 75.45 Q28.1 75.2 31.9 76.25 34.75 77.1 36.25 79.0 37.45 80.55 37.7 84.75 L37.75 87.7 41.2 91.4 Q42.75 93.0 44.65 92.75 L47.7 83.05 Q51.75 70.6 54.45 64.85 62.4 48.05 74.05 32.8 86.7 16.35 98.15 9.3 104.0 5.7 131.4 2.45 L153.15 0.0 243.0 0.0 264.85 2.45 Q292.25 5.7 298.1 9.3 309.55 16.35 322.2 32.8 333.85 48.05 341.8 64.85 345.95 73.7 351.65 92.7 353.6 93.1 355.2 91.4 L358.7 87.65 M359.65 98.2 Q367.5 102.65 370.3 106.2 371.95 108.25 373.45 111.0 M351.65 92.7 L352.1 94.3 359.55 98.15 359.65 98.2 M22.8 110.95 Q24.3 108.25 25.95 106.2 28.75 102.65 36.7 98.15 L36.8 98.1 44.15 94.3 44.65 92.75" fill="none" stroke="#000000" stroke-linecap="round" stroke-linejoin="miter-clip" stroke-miterlimit="10.0" stroke-width="1.0"/>
    <path d="M357.1 195.45 L357.1 170.6 368.65 170.6 369.05 178.15 Q369.0 186.3 366.75 189.0 364.45 191.7 360.55 193.85 L357.1 195.45 M38.95 195.45 Q37.45 194.9 35.5 193.85 31.6 191.7 29.35 189.0 27.05 186.3 27.0 178.15 L27.4 170.6 38.95 170.6 38.95 195.45" fill="#ffffff" fill-opacity="0.047058824" fill-rule="evenodd" stroke="none"/>
    <path d="M357.1 195.45 L360.55 193.85 Q364.45 191.7 366.75 189.0 369.0 186.3 369.05 178.15 L368.65 170.6 357.1 170.6 357.1 195.45 M370.05 192.85 Q366.7 196.65 360.75 198.9 353.7 201.55 341.5 202.8 L275.4 204.05 Q278.05 198.45 283.35 191.85 293.85 178.7 306.9 173.75 319.95 168.8 347.95 167.8 362.0 167.35 373.4 167.85 L373.3 178.65 Q372.65 190.0 370.05 192.85 M38.95 195.45 L38.95 170.6 27.4 170.6 27.0 178.15 Q27.05 186.3 29.35 189.0 31.6 191.7 35.5 193.85 37.45 194.9 38.95 195.45 M26.0 192.85 Q23.4 190.0 22.75 178.65 L22.65 167.85 48.1 167.8 Q76.1 168.8 89.15 173.75 102.2 178.7 112.7 191.85 118.0 198.45 120.65 204.05 L54.55 202.8 Q42.35 201.55 35.35 198.9 29.35 196.65 26.0 192.85" fill="#000000" fill-opacity="0.2" fill-rule="evenodd" stroke="none"/>
    <path d="M370.05 192.85 Q366.7 196.65 360.75 198.9 353.7 201.55 341.5 202.8 L275.4 204.05 Q278.05 198.45 283.35 191.85 293.85 178.7 306.9 173.75 319.95 168.8 347.95 167.8 362.0 167.35 373.4 167.85 L373.3 178.65 Q372.65 190.0 370.05 192.85 M26.0 192.85 Q29.35 196.65 35.35 198.9 42.35 201.55 54.55 202.8 L120.65 204.05 Q118.0 198.45 112.7 191.85 102.2 178.7 89.15 173.75 76.1 168.8 48.1 167.8 L22.65 167.85 22.75 178.65 Q23.4 190.0 26.0 192.85" fill="none" stroke="#000000" stroke-linecap="round" stroke-linejoin="miter-clip" stroke-miterlimit="10.0" stroke-width="1.0"/>
  </g>
</svg>
