<?xml version="1.0" encoding="UTF-8" standalone="no"?>
<svg xmlns:xlink="http://www.w3.org/1999/xlink" height="58.8px" width="36.35px" xmlns="http://www.w3.org/2000/svg">
  <g transform="matrix(1.0, 0.0, 0.0, 1.0, 0.0, 0.0)">
    <path d="M36.35 0.0 Q35.3 5.6 32.55 9.95 L31.2 12.0 Q30.4 13.0 29.35 13.25 L18.85 31.5 34.25 58.2 33.25 58.8 18.2 32.65 3.1 58.8 2.1 58.2 17.5 31.5 7.0 13.25 Q5.95 13.0 5.15 12.0 L3.8 9.95 Q1.05 5.6 0.0 0.0 3.9 3.4 6.7 8.25 L7.8 10.45 Q8.25 11.65 8.0 12.7 L18.2 30.35 28.35 12.7 Q28.1 11.65 28.55 10.45 L29.65 8.25 Q32.45 3.4 36.35 0.0" fill="#ffffff" fill-opacity="0.0" fill-rule="evenodd" stroke="none"/>
  </g>
</svg>
