<?xml version="1.0" encoding="UTF-8" standalone="no"?>
<svg xmlns:xlink="http://www.w3.org/1999/xlink" height="491.9px" width="1007.7px" xmlns="http://www.w3.org/2000/svg">
  <g transform="matrix(1.0, 0.0, 0.0, 1.0, 503.85, 245.95)">
    <path d="M-503.35 -195.25 L-503.35 -245.45 503.35 -245.45 503.35 -195.25 -503.35 -195.25" fill="#ffffff" fill-opacity="0.09803922" fill-rule="evenodd" stroke="none"/>
    <path d="M503.35 89.6 L503.35 122.9 -503.35 122.9 -503.35 89.6 503.35 89.6 M503.35 220.5 L503.35 245.45 -503.35 245.45 -503.35 220.5 503.35 220.5" fill="#000000" fill-opacity="0.09803922" fill-rule="evenodd" stroke="none"/>
    <path d="M-503.35 -195.25 L503.35 -195.25 503.35 89.6 -503.35 89.6 -503.35 -195.25 M503.35 122.9 L503.35 220.5 -503.35 220.5 -503.35 122.9 503.35 122.9" fill="#ffffff" fill-opacity="0.0" fill-rule="evenodd" stroke="none"/>
    <path d="M503.35 -195.25 L503.35 -245.45 -503.35 -245.45 -503.35 -195.25 -503.35 89.6 -503.35 122.9 -503.35 220.5 -503.35 245.45 M503.35 -195.25 L503.35 89.6 503.35 122.9 503.35 220.5 503.35 245.45" fill="none" stroke="#000000" stroke-linecap="round" stroke-linejoin="miter-clip" stroke-miterlimit="4.0" stroke-width="1.0"/>
    <path d="M-503.35 -195.25 L503.35 -195.25 M503.35 245.45 L-503.35 245.45 M503.35 220.5 L-503.35 220.5 M503.35 89.6 L-503.35 89.6 M-503.35 122.9 L503.35 122.9" fill="none" stroke="#000000" stroke-linecap="round" stroke-linejoin="miter-clip" stroke-miterlimit="4.0" stroke-opacity="0.6" stroke-width="1.0"/>
  </g>
</svg>
