<?xml version="1.0" encoding="UTF-8" standalone="no"?>
<svg xmlns:xlink="http://www.w3.org/1999/xlink" height="217.3px" width="38.45px" xmlns="http://www.w3.org/2000/svg">
  <g transform="matrix(1.0, 0.0, 0.0, 1.0, 19.2, 108.65)">
    <path d="M-4.85 33.4 L-4.85 -102.0 Q-4.85 -104.55 -3.2 -106.35 -1.6 -108.15 0.7 -108.15 3.0 -108.15 4.65 -106.35 6.25 -104.55 6.25 -102.0 L6.25 33.4 -4.85 33.4" fill="#000000" fill-opacity="0.2" fill-rule="evenodd" stroke="none"/>
    <path d="M6.25 33.4 L18.75 33.4 18.75 108.15 -18.7 108.15 -18.7 33.4 -4.85 33.4 6.25 33.4" fill="#ffffff" fill-opacity="0.0" fill-rule="evenodd" stroke="none"/>
    <path d="M-4.85 33.4 L-4.85 -102.0 Q-4.85 -104.55 -3.2 -106.35 -1.6 -108.15 0.7 -108.15 3.0 -108.15 4.65 -106.35 6.25 -104.55 6.25 -102.0 L6.25 33.4 18.75 33.4 18.75 108.15 -18.7 108.15 -18.7 33.4 -4.85 33.4" fill="none" stroke="#000000" stroke-linecap="round" stroke-linejoin="miter-clip" stroke-miterlimit="4.0" stroke-width="1.0"/>
    <path d="M-4.85 33.4 L6.25 33.4" fill="none" stroke="#000000" stroke-linecap="round" stroke-linejoin="miter-clip" stroke-miterlimit="4.0" stroke-opacity="0.6" stroke-width="1.0"/>
  </g>
</svg>
