<?xml version="1.0" encoding="UTF-8" standalone="no"?>
<svg xmlns:xlink="http://www.w3.org/1999/xlink" height="73.35px" width="1187.6px" xmlns="http://www.w3.org/2000/svg">
  <g transform="matrix(1.0, 0.0, 0.0, 1.0, 593.8, 36.65)">
    <path d="M10.25 -36.15 L201.5 -16.5 341.25 -23.85 412.35 -30.3 Q483.45 -35.85 483.45 -31.25 483.45 -25.95 593.3 -19.6 L593.3 36.2 -593.3 36.2 -593.3 -16.65 -470.25 -21.4 -377.1 -33.7 -266.8 -28.8 -117.25 -18.95 10.25 -36.15 M198.85 -4.2 L159.6 -4.2 108.15 8.15 228.25 15.5 240.55 3.2 198.85 -4.2 M369.25 -2.6 L374.75 -3.55 Q383.15 -4.45 396.1 -2.45 L417.3 1.05 436.6 1.4 Q449.75 1.55 454.35 3.85 418.0 -15.85 385.1 -16.4 351.75 -16.95 319.05 2.05 L316.2 2.75 290.7 9.2 Q276.2 12.5 265.1 12.9 282.7 19.85 301.4 18.6 309.05 18.1 318.95 16.15 L336.3 12.4 Q358.0 7.8 373.15 9.1 L454.35 17.65 Q438.8 13.4 420.15 8.7 384.9 -0.2 369.25 -2.6 M-229.2 17.85 L-186.95 16.4 Q-113.15 13.35 -63.95 5.65 -48.15 3.2 48.3 14.4 L101.6 20.25 Q120.15 21.85 105.85 17.95 83.35 14.25 55.25 8.75 -1.0 -2.35 -29.0 -11.55 -56.95 -20.75 -90.3 -12.15 -100.75 -9.45 -110.45 -5.3 L-118.05 -1.7 -250.9 17.95 -320.75 17.95 Q-325.35 17.95 -352.9 11.8 L-379.55 5.65 -445.75 3.2 -497.2 35.2 -423.65 35.2 Q-409.55 30.9 -394.55 27.5 -364.5 20.75 -359.95 25.35 -355.35 30.0 -331.45 30.6 -319.5 30.9 -308.45 30.25 L24.95 30.25 -65.75 17.95 -229.2 17.85" fill="#ffffff" fill-opacity="0.0" fill-rule="evenodd" stroke="none"/>
    <path d="M198.85 -4.2 L240.55 3.2 228.25 15.5 108.15 8.15 159.6 -4.2 198.85 -4.2 M-250.9 17.95 L-229.2 17.85 -65.75 17.95 24.95 30.25 -308.45 30.25 Q-319.5 30.9 -331.45 30.6 -355.35 30.0 -359.95 25.35 -364.5 20.75 -394.55 27.5 -409.55 30.9 -423.65 35.2 L-497.2 35.2 -445.75 3.2 -379.55 5.65 -352.9 11.8 Q-325.35 17.95 -320.75 17.95 L-250.9 17.95" fill="#000000" fill-opacity="0.2" fill-rule="evenodd" stroke="none"/>
    <path d="M319.05 2.05 Q351.75 -16.95 385.1 -16.4 418.0 -15.85 454.35 3.85 449.75 1.55 436.6 1.4 L417.3 1.05 396.1 -2.45 Q383.15 -4.45 374.75 -3.55 L369.25 -2.6 367.45 -2.85 Q355.7 -4.5 341.75 -2.6 332.6 -1.4 319.05 2.05" fill="#000000" fill-opacity="0.14901961" fill-rule="evenodd" stroke="none"/>
    <path d="M319.05 2.05 Q332.6 -1.4 341.75 -2.6 355.7 -4.5 367.45 -2.85 L369.25 -2.6 Q384.9 -0.2 420.15 8.7 438.8 13.4 454.35 17.65 L373.15 9.1 Q358.0 7.8 336.3 12.4 L318.95 16.15 Q309.05 18.1 301.4 18.6 282.7 19.85 265.1 12.9 276.2 12.5 290.7 9.2 L316.2 2.75 319.05 2.05 M-250.9 17.95 L-118.05 -1.7 -110.45 -5.3 Q-100.75 -9.45 -90.3 -12.15 -56.95 -20.75 -29.0 -11.55 -1.0 -2.35 55.25 8.75 83.35 14.25 105.85 17.95 120.15 21.85 101.6 20.25 L48.3 14.4 Q-48.15 3.2 -63.95 5.65 -113.15 13.35 -186.95 16.4 L-229.2 17.85 -250.9 17.95" fill="#ffffff" fill-opacity="0.2" fill-rule="evenodd" stroke="none"/>
    <path d="M10.25 -36.15 L-117.25 -18.95 -266.8 -28.8 -377.1 -33.7 -470.25 -21.4 -593.3 -16.65 -593.3 36.2 593.3 36.2 593.3 -19.6 Q483.45 -25.95 483.45 -31.25 483.45 -35.85 412.35 -30.3 L341.25 -23.85 201.5 -16.5 10.25 -36.15 Z" fill="none" stroke="#000000" stroke-linecap="round" stroke-linejoin="miter-clip" stroke-miterlimit="4.0" stroke-width="1.0"/>
  </g>
</svg>
