<?xml version="1.0" encoding="UTF-8" standalone="no"?>
<svg xmlns:xlink="http://www.w3.org/1999/xlink" height="123.9px" width="646.15px" xmlns="http://www.w3.org/2000/svg">
  <g transform="matrix(1.0, 0.0, 0.0, 1.0, 323.05, 61.95)">
    <path d="M-309.15 53.7 L-304.7 52.8 Q-299.3 51.55 -294.65 49.9 -279.8 44.7 -278.0 37.65 -276.2 30.55 -273.65 -10.5 L-271.4 -50.15 -271.55 -35.65 Q-271.6 -18.25 -271.15 -3.45 -269.75 43.75 -263.85 46.1 -255.25 49.55 -248.85 50.95 -240.65 52.8 -237.4 50.85 -233.6 48.55 -226.55 47.05 -218.95 45.45 -212.9 46.1 L-188.8 47.65 Q-170.6 47.45 -167.6 41.4 -164.65 35.5 -162.05 -6.5 L-160.05 -47.3 -160.3 -33.9 Q-160.5 -17.6 -160.05 -3.65 -158.6 41.2 -151.55 47.05 -143.0 54.15 -136.55 55.55 -130.05 57.0 -125.1 52.75 -118.4 46.95 -116.5 45.9 -111.85 43.3 -104.35 43.3 -97.25 43.3 -93.95 1.3 -92.95 -11.75 -92.4 -27.55 L-92.1 -40.7 -89.25 -0.8 Q-85.95 39.75 -83.6 43.3 -80.95 47.25 -68.95 49.9 -57.5 52.45 -54.35 50.85 -49.8 48.6 -36.15 46.85 -18.8 44.6 -5.25 47.05 -3.1 35.75 -1.25 19.0 2.25 -11.65 1.6 -37.0 L3.5 -4.6 Q6.3 34.1 9.85 42.35 13.6 51.1 19.85 52.75 23.8 53.75 30.6 51.8 37.0 50.0 57.2 48.6 79.95 47.05 90.1 48.95 L115.7 54.4 Q131.05 57.35 136.35 55.55 141.65 53.8 162.6 53.6 173.1 53.45 182.55 53.7 L183.5 -42.6 192.0 50.85 193.7 51.8 198.4 53.55 Q206.4 55.7 214.65 52.75 222.95 49.8 236.15 50.0 L247.7 50.85 258.55 52.95 Q269.9 54.85 272.25 53.7 274.45 52.55 277.6 7.15 L280.05 -32.55 Q279.5 -12.6 279.7 4.1 280.25 47.1 286.4 49.9 294.45 53.55 302.95 54.7 314.1 56.2 321.6 52.3 L320.5 53.8 317.55 56.5 305.4 56.75 282.6 58.4 Q273.05 59.7 258.45 58.4 246.3 57.35 239.2 55.55 235.05 54.5 226.0 56.4 213.5 58.95 207.1 59.35 L177.6 60.3 153.0 61.05 152.55 61.05 152.15 61.1 149.55 61.2 147.85 61.35 145.95 61.4 130.6 60.75 130.3 60.7 130.15 60.7 129.95 60.65 Q120.9 59.5 108.95 56.5 99.65 54.2 77.8 55.1 L52.35 56.5 Q38.9 57.0 28.85 57.1 9.7 57.3 3.25 55.55 -3.6 53.7 -21.05 54.15 -36.0 54.5 -41.1 55.55 L-53.35 56.75 Q-62.35 57.15 -65.65 56.5 L-77.9 54.95 -93.0 52.75 Q-97.2 51.8 -108.8 55.45 -122.7 59.8 -131.7 60.3 -142.7 60.85 -152.25 58.05 -161.45 54.65 -165.7 53.7 L-187.85 52.85 Q-206.75 53.1 -210.05 52.75 -219.3 51.7 -243.1 56.5 -249.65 57.8 -259.7 56.4 -268.65 55.1 -274.25 52.75 -278.3 51.0 -288.15 51.8 L-309.15 53.7" fill="#000000" fill-opacity="0.14901961" fill-rule="evenodd" stroke="none"/>
    <path d="M320.5 53.8 L321.6 52.3 Q314.1 56.2 302.95 54.7 294.45 53.55 286.4 49.9 280.25 47.1 279.7 4.1 279.5 -12.6 280.05 -32.55 L277.6 7.15 Q274.45 52.55 272.25 53.7 269.9 54.85 258.55 52.95 L247.7 50.85 236.15 50.0 Q222.95 49.8 214.65 52.75 206.4 55.7 198.4 53.55 L193.7 51.8 192.0 50.85 183.5 -42.6 182.55 53.7 Q173.1 53.45 162.6 53.6 141.65 53.8 136.35 55.55 131.05 57.35 115.7 54.4 L90.1 48.95 Q79.95 47.05 57.2 48.6 37.0 50.0 30.6 51.8 23.8 53.75 19.85 52.75 13.6 51.1 9.85 42.35 6.3 34.1 3.5 -4.6 L1.6 -37.0 Q2.25 -11.65 -1.25 19.0 -3.1 35.75 -5.25 47.05 -18.8 44.6 -36.15 46.85 -49.8 48.6 -54.35 50.85 -57.5 52.45 -68.95 49.9 -80.95 47.25 -83.6 43.3 -85.95 39.75 -89.25 -0.8 L-92.1 -40.7 -92.4 -27.55 Q-92.95 -11.75 -93.95 1.3 -97.25 43.3 -104.35 43.3 -111.85 43.3 -116.5 45.9 -118.4 46.95 -125.1 52.75 -130.05 57.0 -136.55 55.55 -143.0 54.15 -151.55 47.05 -158.6 41.2 -160.05 -3.65 -160.5 -17.6 -160.3 -33.9 L-160.05 -47.3 -162.05 -6.5 Q-164.65 35.5 -167.6 41.4 -170.6 47.45 -188.8 47.65 L-212.9 46.1 Q-218.95 45.45 -226.55 47.05 -233.6 48.55 -237.4 50.85 -240.65 52.8 -248.85 50.95 -255.25 49.55 -263.85 46.1 -269.75 43.75 -271.15 -3.45 -271.6 -18.25 -271.55 -35.65 L-271.4 -50.15 -273.65 -10.5 Q-276.2 30.55 -278.0 37.65 -279.8 44.7 -294.65 49.9 -299.3 51.55 -304.7 52.8 L-309.15 53.7 Q-319.2 54.25 -321.75 50.7 -322.6 49.6 -322.55 48.2 L-322.35 47.05 Q-320.45 36.1 -316.0 -2.5 -311.9 -38.3 -311.05 -49.2 -310.45 -56.85 -304.55 -59.9 -301.6 -61.45 -298.75 -61.45 L287.35 -61.45 Q295.0 -61.45 300.9 -53.45 303.85 -49.45 305.25 -45.45 L313.05 -0.15 Q321.05 45.65 322.25 48.0 323.45 50.4 320.6 53.7 L320.5 53.8" fill="#ffffff" fill-opacity="0.0" fill-rule="evenodd" stroke="none"/>
    <path d="M147.85 61.35 L149.55 61.2 152.15 61.1 149.55 61.25 147.85 61.35 M317.55 56.5 L320.5 53.8 319.05 55.3 317.55 56.5" fill="#bec0c2" fill-rule="evenodd" stroke="none"/>
    <path d="M-309.15 53.7 L-288.15 51.8 Q-278.3 51.0 -274.25 52.75 -268.65 55.1 -259.7 56.4 -249.65 57.8 -243.1 56.5 -219.3 51.7 -210.05 52.75 -206.75 53.1 -187.85 52.85 L-165.7 53.7 Q-161.45 54.65 -152.25 58.05 -142.7 60.85 -131.7 60.3 -122.7 59.8 -108.8 55.45 -97.2 51.8 -93.0 52.75 L-77.9 54.95 -65.65 56.5 Q-62.35 57.15 -53.35 56.75 L-41.1 55.55 Q-36.0 54.5 -21.05 54.15 -3.6 53.7 3.25 55.55 9.7 57.3 28.85 57.1 38.9 57.0 52.35 56.5 L77.8 55.1 Q99.65 54.2 108.95 56.5 120.9 59.5 129.95 60.65 L130.15 60.7 130.3 60.7 130.6 60.75 145.95 61.4 147.85 61.35 149.55 61.2 152.15 61.1 153.0 61.05 177.6 60.3 207.1 59.35 Q213.5 58.95 226.0 56.4 235.05 54.5 239.2 55.55 246.3 57.35 258.45 58.4 273.05 59.7 282.6 58.4 L305.4 56.75 317.55 56.5 320.5 53.8 320.6 53.7 Q323.45 50.4 322.25 48.0 321.05 45.65 313.05 -0.15 L305.25 -45.45 Q303.85 -49.45 300.9 -53.45 295.0 -61.45 287.35 -61.45 L-298.75 -61.45 Q-301.6 -61.45 -304.55 -59.9 -310.45 -56.85 -311.05 -49.2 -311.9 -38.3 -316.0 -2.5 -320.45 36.1 -322.35 47.05 L-322.55 48.2 Q-322.6 49.6 -321.75 50.7 -319.2 54.25 -309.15 53.7 Z" fill="none" stroke="#000000" stroke-linecap="round" stroke-linejoin="miter-clip" stroke-miterlimit="4.0" stroke-width="1.0"/>
  </g>
</svg>
