<?xml version="1.0" encoding="UTF-8" standalone="no"?>
<svg xmlns:xlink="http://www.w3.org/1999/xlink" height="112.75px" width="79.35px" xmlns="http://www.w3.org/2000/svg">
  <g transform="matrix(1.0, 0.0, 0.0, 1.0, 46.7, 56.0)">
    <path d="M-4.1 -55.45 L-2.9 -55.5 -2.7 -55.5 Q2.85 -55.5 7.7 -52.5 17.45 -46.5 23.65 -28.75 L32.15 -27.45 31.2 44.5 Q3.25 51.4 -26.4 56.25 L-32.05 -14.6 -23.55 -22.3 -24.2 -26.15 Q-24.75 -30.85 -24.4 -35.15 -23.25 -48.85 -13.2 -53.15 -8.45 -55.2 -4.1 -55.45 M2.85 -28.75 L2.5 -38.05 -3.5 -37.6 -3.1 -28.3 -11.45 -27.7 -11.1 -19.55 -2.8 -20.15 -1.6 9.75 4.4 9.3 3.2 -20.6 11.5 -21.25 11.2 -29.35 2.85 -28.75" fill="#ffffff" fill-opacity="0.0" fill-rule="evenodd" stroke="none"/>
    <path d="M-26.4 56.25 L-39.6 50.9 -46.2 -18.45 -37.75 -27.45 Q-40.85 -39.7 -34.15 -48.45 -30.75 -52.8 -26.8 -54.75 L-4.1 -55.45 Q-8.45 -55.2 -13.2 -53.15 -23.25 -48.85 -24.4 -35.15 -24.75 -30.85 -24.2 -26.15 L-23.55 -22.3 -32.05 -14.6 -26.4 56.25 M2.85 -28.75 L11.2 -29.35 11.5 -21.25 3.2 -20.6 4.4 9.3 -1.6 9.75 -2.8 -20.15 -11.1 -19.55 -11.45 -27.7 -3.1 -28.3 -3.5 -37.6 2.5 -38.05 2.85 -28.75 M-32.05 -14.6 L-46.2 -18.45 -32.05 -14.6 M-37.75 -27.45 L-23.55 -22.3 -37.75 -27.45" fill="#000000" fill-opacity="0.14901961" fill-rule="evenodd" stroke="none"/>
    <path d="M-4.1 -55.45 L-2.9 -55.5 -2.7 -55.5 Q2.85 -55.5 7.7 -52.5 17.45 -46.5 23.65 -28.75 L32.15 -27.45 31.2 44.5 Q3.25 51.4 -26.4 56.25 L-39.6 50.9 -46.2 -18.45 -37.75 -27.45 Q-40.85 -39.7 -34.15 -48.45 -30.75 -52.8 -26.8 -54.75 L-4.1 -55.45" fill="none" stroke="#000000" stroke-linecap="round" stroke-linejoin="miter-clip" stroke-miterlimit="4.0" stroke-width="1.0"/>
    <path d="M-4.1 -55.45 Q-8.45 -55.2 -13.2 -53.15 -23.25 -48.85 -24.4 -35.15 -24.75 -30.85 -24.2 -26.15 L-23.55 -22.3 -32.05 -14.6 -26.4 56.25 M2.85 -28.75 L2.5 -38.05 -3.5 -37.6 -3.1 -28.3 -11.45 -27.7 -11.1 -19.55 -2.8 -20.15 -1.6 9.75 4.4 9.3 3.2 -20.6 11.5 -21.25 11.2 -29.35 2.85 -28.75 M-23.55 -22.3 L-37.75 -27.45 M-46.2 -18.45 L-32.05 -14.6" fill="none" stroke="#000000" stroke-linecap="round" stroke-linejoin="miter-clip" stroke-miterlimit="4.0" stroke-opacity="0.6" stroke-width="1.0"/>
  </g>
</svg>
