<?xml version="1.0" encoding="UTF-8" standalone="no"?>
<svg xmlns:xlink="http://www.w3.org/1999/xlink" height="332.35px" width="174.8px" xmlns="http://www.w3.org/2000/svg">
  <g transform="matrix(1.0, 0.0, 0.0, 1.0, 87.4, 165.2)">
    <path d="M84.95 -119.05 L84.8 -113.0 Q84.4 -115.05 84.95 -119.05 M-38.4 -126.0 L-35.55 -125.85 -35.75 -124.9 -38.4 -126.0 M39.9 -162.95 L39.3 -137.35 39.05 -144.6 39.9 -162.95" fill="#d0d2d3" fill-rule="evenodd" stroke="none"/>
    <path d="M84.8 -113.0 L84.95 -112.45 Q85.6 -110.5 86.9 -91.45 L84.1 -84.85 37.7 -89.5 37.7 -77.7 37.95 -77.7 37.7 -63.25 35.1 -53.4 37.05 -46.2 34.95 43.75 10.5 43.35 3.6 43.65 3.4 33.95 3.6 35.15 6.25 14.15 9.6 13.15 Q13.05 11.85 13.45 10.2 13.85 8.6 16.55 7.85 L20.65 6.95 Q21.9 6.5 18.8 5.35 L15.4 4.3 7.55 -6.2 9.5 -19.3 7.55 -34.4 11.5 -40.3 9.5 -48.15 8.85 -84.25 11.5 -88.85 4.9 -93.45 -4.9 -92.8 -17.4 -93.45 -31.15 -95.4 -39.2 -91.75 -32.8 -89.45 -41.05 -89.9 -39.7 -98.05 -42.3 -108.5 -38.4 -126.0 -35.75 -124.9 -25.9 -126.9 2.3 -122.95 4.85 -124.7 5.0 -122.75 12.8 -119.65 10.15 -130.15 8.85 -141.3 14.1 -141.3 8.2 -151.15 8.6 -164.7 39.9 -162.95 39.05 -144.6 39.3 -137.35 39.7 -124.25 44.95 -121.65 84.95 -119.05 Q84.4 -115.05 84.8 -113.0 M23.15 99.55 L23.15 62.6 71.7 62.6 71.7 62.65 71.7 99.55 23.15 99.55" fill="#ffffff" fill-opacity="0.0" fill-rule="evenodd" stroke="none"/>
    <path d="M8.6 -164.7 L8.2 -151.15 14.1 -141.3 8.85 -141.3 10.15 -130.15 12.8 -119.65 5.0 -122.75 4.85 -124.7 5.9 -125.45 6.25 -132.8 2.95 -147.9 8.6 -164.7 M-32.8 -89.45 L-39.2 -91.75 -31.15 -95.4 -17.4 -93.45 -4.9 -92.8 4.9 -93.45 11.5 -88.85 8.85 -84.25 9.5 -48.15 11.5 -40.3 7.55 -34.4 9.5 -19.3 7.55 -6.2 15.4 4.3 18.8 5.35 Q21.9 6.5 20.65 6.95 L16.55 7.85 Q13.85 8.6 13.45 10.2 13.05 11.85 9.6 13.15 L6.25 14.15 3.6 35.15 3.4 33.95 2.95 12.85 8.85 7.6 4.25 -1.6 4.9 -82.95 2.95 -87.55 -4.5 -87.9 -4.3 -87.9 -7.3 -88.05 -8.65 -88.15 -32.8 -89.45 M37.95 -77.7 L37.7 -77.7 37.7 -89.5 84.1 -84.85 38.1 -87.4 37.95 -77.7" fill="#000000" fill-opacity="0.29803923" fill-rule="evenodd" stroke="none"/>
    <path d="M84.1 -84.85 L63.3 -82.95 54.8 -80.3 38.55 -77.8 37.95 -77.7 38.1 -87.4 84.1 -84.85 M-36.3 43.55 L-35.75 29.25 -32.45 21.35 -35.1 8.25 -33.15 -32.45 -31.15 -38.35 -33.8 -46.85 -32.45 -63.9 -34.45 -81.65 -32.55 -82.25 -34.95 -81.95 -81.0 -84.55 -78.5 -94.7 -78.75 -94.3 -77.75 -98.7 -82.3 -105.9 -78.55 -112.2 -78.4 -112.45 -78.35 -120.6 -38.4 -126.0 -42.3 -108.5 -39.7 -98.05 -41.05 -89.9 -32.8 -89.45 -8.65 -88.15 -7.3 -88.05 -4.6 -87.85 -4.5 -87.9 2.95 -87.55 4.9 -82.95 4.25 -1.6 8.85 7.6 2.95 12.85 3.4 33.95 3.6 43.65 -36.3 43.55 M-35.55 -125.85 L-31.8 -143.3 -32.45 -153.8 -31.35 -159.35 -30.65 -159.4 8.6 -164.7 2.95 -147.9 6.25 -132.8 5.9 -125.45 4.85 -124.7 2.3 -122.95 -25.9 -126.9 -35.75 -124.9 -35.55 -125.85 M23.15 99.55 L21.1 88.25 19.8 61.15 22.0 56.8 25.45 57.65 53.9 58.1 58.25 58.55 73.15 58.55 71.7 62.65 71.7 62.6 23.15 62.6 23.15 99.55 M-30.5 -82.95 L-32.55 -82.25 -30.5 -82.95 -4.6 -87.85 -30.5 -82.95 M-41.05 -89.9 L-81.0 -84.55 -41.05 -89.9" fill="#000000" fill-opacity="0.54901963" fill-rule="evenodd" stroke="none"/>
    <path d="M34.95 43.75 L82.4 43.85 85.35 164.65 9.55 166.65 -85.65 164.65 -82.85 94.7 -83.0 94.85 -86.9 80.4 -83.0 63.35 -80.8 43.2 -71.15 41.05 -50.2 38.4 -44.25 43.5 -36.3 43.55 3.6 43.65 10.5 43.35 34.95 43.75 M15.0 98.35 L18.05 96.6 15.85 83.45 15.4 75.15 11.5 46.7 11.05 136.8 13.65 124.15 17.6 120.65 15.0 98.35 M71.7 62.65 L73.15 58.55 58.25 58.55 53.9 58.1 25.45 57.65 22.0 56.8 19.8 61.15 21.1 88.25 23.15 99.55 71.7 99.55 71.7 62.65 M49.55 120.4 L65.25 123.7 59.35 119.3 49.55 120.4 M9.55 166.65 L10.5 43.35 9.55 166.65 M-50.2 38.4 L-62.0 43.65 -46.25 44.3 -50.2 38.4 M-30.9 106.55 L-33.55 99.65 -42.9 92.65 -30.9 106.55 M-32.7 88.25 L-37.95 83.0 -49.3 80.4 -32.7 88.25" fill="#000000" fill-opacity="0.34901962" fill-rule="evenodd" stroke="none"/>
    <path d="M15.0 98.35 L17.6 120.65 13.65 124.15 11.05 136.8 11.5 46.7 15.4 75.15 15.85 83.45 18.05 96.6 15.0 98.35 M49.55 120.4 L59.35 119.3 65.25 123.7 49.55 120.4 M-32.7 88.25 L-49.3 80.4 -37.95 83.0 -32.7 88.25 M-30.9 106.55 L-42.9 92.65 -33.55 99.65 -30.9 106.55" fill="#000000" fill-opacity="0.44705883" fill-rule="evenodd" stroke="none"/>
    <path d="M-78.55 -112.2 L-78.35 -120.6 -78.4 -112.45 -78.55 -112.2" fill="#86888a" fill-rule="evenodd" stroke="none"/>
    <path d="M-50.2 38.4 L-46.25 44.3 -62.0 43.65 -50.2 38.4" fill="#000000" fill-opacity="0.09803922" fill-rule="evenodd" stroke="none"/>
    <path d="M84.8 -113.0 L84.95 -112.45 Q85.6 -110.5 86.9 -91.45 L84.1 -84.85 M37.95 -77.7 L37.7 -63.25 35.1 -53.4 37.05 -46.2 34.95 43.75 M8.6 -164.7 L39.9 -162.95 39.05 -144.6 39.3 -137.35 39.7 -124.25 44.95 -121.65 84.95 -119.05 Q84.4 -115.05 84.8 -113.0 M5.9 -125.45 L4.85 -124.7" fill="none" stroke="#000000" stroke-linecap="round" stroke-linejoin="miter-clip" stroke-miterlimit="4.0" stroke-width="1.0"/>
    <path d="M4.85 -124.7 L2.3 -122.95 -25.9 -126.9 -35.75 -124.9 -38.4 -126.0 -42.3 -108.5 -39.7 -98.05 -41.05 -89.9 -32.8 -89.45 -8.65 -88.15 M3.4 33.95 L3.6 43.65 M8.6 -164.7 L2.95 -147.9 6.25 -132.8 5.9 -125.45 M84.1 -84.85 L38.1 -87.4 37.95 -77.7 M-4.5 -87.9 L2.95 -87.55 4.9 -82.95 4.25 -1.6 8.85 7.6 2.95 12.85 3.4 33.95 M-4.3 -87.9 L-7.3 -88.05" fill="none" stroke="#000000" stroke-linecap="round" stroke-linejoin="miter-clip" stroke-miterlimit="4.0" stroke-opacity="0.6" stroke-width="1.0"/>
    <path d="M84.1 -84.85 L63.3 -82.95 54.8 -80.3 38.55 -77.8 M34.95 43.75 L82.4 43.85 85.35 164.65 9.55 166.65 -85.65 164.65 -82.85 94.7 -83.0 94.85 -86.9 80.4 -83.0 63.35 -80.8 43.2 -71.15 41.05 -50.2 38.4 -44.25 43.5 -36.3 43.55 -35.75 29.25 -32.45 21.35 -35.1 8.25 -33.15 -32.45 -31.15 -38.35 -33.8 -46.85 -32.45 -63.9 -34.45 -81.65 -32.55 -82.25 -30.5 -82.95 M-34.95 -81.95 L-81.0 -84.55 -78.5 -94.7 M-78.75 -94.3 L-77.75 -98.7 -82.3 -105.9 -78.55 -112.2 -78.4 -112.45 -78.35 -120.6 -38.4 -126.0 M-35.55 -125.85 L-31.8 -143.3 -32.45 -153.8 -31.35 -159.35 M-30.65 -159.4 L8.6 -164.7 M-35.75 -124.9 L-35.55 -125.85 M-7.3 -88.05 L-4.6 -87.85 -4.5 -87.9 -4.3 -87.9 M-8.65 -88.15 L-7.3 -88.05" fill="none" stroke="#000000" stroke-linecap="round" stroke-linejoin="round" stroke-width="1.0"/>
    <path d="M-32.55 -82.25 L-34.95 -81.95 M3.6 43.65 L10.5 43.35 34.95 43.75 M23.15 99.55 L23.15 62.6 71.7 62.6 71.7 62.65 71.7 99.55 23.15 99.55 M10.5 43.35 L9.55 166.65 M-30.5 -82.95 L-4.6 -87.85 M-81.0 -84.55 L-41.05 -89.9 M-36.3 43.55 L3.6 43.65" fill="none" stroke="#000000" stroke-linecap="round" stroke-linejoin="round" stroke-opacity="0.6" stroke-width="1.0"/>
  </g>
</svg>
