<?xml version="1.0" encoding="UTF-8" standalone="no"?>
<svg xmlns:xlink="http://www.w3.org/1999/xlink" height="225.4px" width="51.45px" xmlns="http://www.w3.org/2000/svg">
  <g transform="matrix(1.0, 0.0, 0.0, 1.0, 25.8, 112.65)">
    <path d="M0.1 -103.55 L2.3 -103.55 2.55 -103.3 Q2.9 -102.95 2.9 -102.35 L2.9 -97.0 2.9 -94.25 2.9 -93.35 2.9 -94.25 2.9 -97.0 Q4.05 -96.6 4.95 -95.55 6.5 -93.8 6.5 -91.25 6.5 -88.65 4.95 -86.9 4.05 -85.85 2.9 -85.4 L2.9 -82.45 Q4.05 -82.05 4.95 -81.0 6.5 -79.25 6.5 -76.65 6.5 -74.05 4.95 -72.3 4.05 -71.25 2.9 -70.8 L2.9 -68.4 Q4.05 -68.0 4.95 -66.95 6.5 -65.2 6.5 -62.6 6.5 -60.05 4.95 -58.3 4.05 -57.25 2.9 -56.8 L2.9 -53.85 Q4.05 -53.45 4.95 -52.4 6.5 -50.65 6.5 -48.05 6.5 -45.45 4.95 -43.7 4.05 -42.65 2.9 -42.2 L2.9 -39.25 Q4.05 -38.85 4.95 -37.8 6.5 -36.05 6.5 -33.5 6.5 -32.25 6.1 -31.05 L4.95 -29.15 Q4.05 -28.1 2.9 -27.65 L2.9 -24.7 Q4.05 -24.3 4.95 -23.25 6.5 -21.5 6.5 -18.9 6.5 -16.3 4.95 -14.55 4.05 -13.5 2.9 -13.05 L2.9 -10.15 Q4.05 -9.75 4.95 -8.7 6.5 -6.85 6.5 -4.35 6.5 -1.75 4.95 0.0 L4.6 0.4 4.55 0.45 4.55 -2.55 Q4.55 -3.55 3.85 -4.25 L3.7 -4.4 3.85 -4.25 Q4.55 -3.55 4.55 -2.55 L4.55 0.45 4.55 3.2 4.55 5.3 4.55 12.8 4.55 13.1 Q4.55 14.1 3.85 14.8 3.15 15.5 2.15 15.5 L-0.25 15.5 Q-1.25 15.5 -1.9 14.8 -2.6 14.1 -2.6 13.1 L-2.6 12.8 -2.6 3.1 -2.6 1.15 -2.6 0.35 -2.6 0.1 -2.7 0.0 Q-4.25 -1.75 -4.25 -4.35 -4.25 -6.85 -2.7 -8.7 -1.75 -9.8 -0.5 -10.2 L-0.5 -13.0 Q-1.75 -13.45 -2.7 -14.55 -4.25 -16.3 -4.25 -18.9 -4.25 -21.5 -2.7 -23.25 -1.75 -24.35 -0.5 -24.75 L-0.5 -27.6 Q-1.75 -28.05 -2.7 -29.15 -3.4 -29.9 -3.8 -31.05 -4.25 -32.15 -4.25 -33.5 -4.25 -36.05 -2.7 -37.8 -1.75 -38.9 -0.5 -39.3 L-0.5 -42.15 Q-1.75 -42.6 -2.7 -43.7 -4.25 -45.45 -4.25 -48.05 -4.25 -50.65 -2.7 -52.4 -1.75 -53.5 -0.5 -53.9 L-0.5 -56.75 Q-1.75 -57.2 -2.7 -58.3 -4.25 -60.05 -4.25 -62.6 -4.25 -65.2 -2.7 -66.95 -1.75 -68.05 -0.5 -68.45 L-0.5 -70.75 Q-1.75 -71.2 -2.7 -72.3 -4.25 -74.05 -4.25 -76.65 -4.25 -79.25 -2.7 -81.0 -1.75 -82.1 -0.5 -82.5 L-0.5 -85.35 Q-1.75 -85.8 -2.7 -86.9 -4.25 -88.65 -4.25 -91.25 -4.25 -93.8 -2.7 -95.55 -1.75 -96.65 -0.5 -97.05 L-0.5 -102.35 Q-0.5 -102.95 -0.15 -103.3 L0.1 -103.55 M-0.5 -96.1 L-0.5 -97.05 -0.5 -96.1 Q-2.3 -95.25 -3.0 -93.3 -3.45 -92.1 -3.3 -91.05 -3.2 -93.2 -1.3 -95.05 L-0.5 -95.75 -0.5 -96.1 M-0.5 -93.5 L-0.5 -95.75 -0.5 -93.5 -0.7 -93.3 Q-1.45 -92.45 -1.45 -91.25 -1.45 -89.95 -0.7 -89.15 L-0.2 -88.7 -0.15 -88.7 -0.15 -88.75 Q0.15 -89.1 0.6 -89.1 L1.75 -89.1 Q2.25 -89.1 2.55 -88.75 L2.95 -89.15 Q3.7 -89.95 3.7 -91.25 3.7 -92.45 2.95 -93.3 L2.9 -93.35 2.55 -92.7 Q2.25 -92.3 1.75 -92.3 L0.6 -92.3 -0.15 -92.7 -0.5 -93.5 M0.45 -103.05 Q0.05 -103.05 0.05 -102.65 L0.05 -93.3 Q0.05 -92.9 0.45 -92.9 0.8 -92.9 0.8 -93.3 L0.8 -102.65 Q0.8 -103.05 0.45 -103.05 M5.9 0.45 L7.7 -1.65 Q11.65 -5.15 17.45 -3.05 20.7 -1.9 22.0 1.1 23.2 3.75 22.55 7.0 21.95 10.15 19.95 12.2 17.85 14.4 15.2 14.25 L14.95 14.1 Q13.55 13.2 12.95 12.25 11.75 10.45 13.2 9.1 L14.5 8.15 Q16.25 7.2 16.4 5.8 16.5 4.6 15.45 3.75 14.3 2.85 12.9 3.1 11.3 3.35 10.2 5.0 L9.75 5.4 8.75 6.0 7.8 6.25 Q6.05 6.55 5.3 4.4 L5.05 3.35 4.9 2.6 5.55 1.0 5.9 0.45 M23.15 20.95 L17.2 25.1 11.2 25.05 9.8 25.0 1.95 24.9 1.45 24.9 -15.35 24.8 -21.6 20.95 18.75 21.0 18.9 21.0 23.15 20.95 M-13.7 14.2 Q-16.35 14.25 -18.35 11.95 -20.2 9.8 -20.7 6.65 -21.2 3.4 -19.9 0.8 -18.45 -2.15 -15.15 -3.2 -9.35 -5.05 -5.5 -1.35 L-4.0 0.45 -3.65 0.95 Q-3.2 1.65 -2.85 2.7 L-2.9 3.15 -3.45 5.05 -3.45 5.1 Q-3.9 5.9 -4.45 6.3 L-5.55 6.55 -5.9 6.5 -6.4 6.2 -8.15 5.2 -8.25 5.15 Q-9.3 3.45 -10.9 3.15 -12.3 2.85 -13.45 3.7 -14.6 4.5 -14.5 5.7 -14.45 7.05 -12.7 8.1 L-11.7 8.8 Q-10.85 9.6 -10.75 10.55 -10.7 11.35 -11.35 12.25 L-13.7 14.2 M2.9 -85.4 L2.9 -87.8 2.85 -88.25 2.55 -88.75 2.85 -88.25 2.9 -87.8 2.9 -85.4 M0.8 -88.05 L0.45 -88.5 Q0.05 -88.5 0.05 -88.05 L0.05 -78.75 Q0.05 -78.3 0.45 -78.3 0.8 -78.3 0.8 -78.75 L0.8 -88.05 M2.9 -78.8 L2.55 -78.1 Q2.25 -77.7 1.75 -77.7 L0.6 -77.7 -0.15 -78.1 -0.5 -78.95 -0.7 -78.75 Q-1.45 -77.9 -1.45 -76.65 -1.45 -75.45 -0.7 -74.55 L-0.4 -74.25 -0.15 -74.7 Q0.15 -75.1 0.6 -75.1 L1.75 -75.1 Q2.25 -75.1 2.55 -74.7 L2.8 -74.35 2.95 -74.55 Q3.7 -75.45 3.7 -76.65 3.7 -77.9 2.95 -78.75 L2.9 -78.8 2.9 -82.45 2.9 -78.8 M2.9 -70.8 L2.9 -73.75 2.8 -74.35 2.9 -73.75 2.9 -70.8 M2.95 -64.7 L2.9 -64.75 2.55 -64.05 Q2.25 -63.65 1.75 -63.65 L0.6 -63.65 -0.15 -64.05 -0.5 -64.9 -0.7 -64.7 Q-1.45 -63.85 -1.45 -62.6 -1.45 -61.35 -0.7 -60.55 L-0.15 -60.05 -0.15 -60.1 Q0.15 -60.5 0.6 -60.5 L1.75 -60.5 Q2.2 -60.5 2.5 -60.15 L2.95 -60.55 Q3.7 -61.35 3.7 -62.6 3.7 -63.85 2.95 -64.7 M0.05 -64.7 Q0.05 -64.25 0.45 -64.25 0.8 -64.25 0.8 -64.7 L0.8 -74.05 Q0.8 -74.45 0.45 -74.45 0.05 -74.45 0.05 -74.05 L0.05 -64.7 M2.9 -56.8 L2.9 -59.2 2.85 -59.65 2.55 -60.1 2.5 -60.15 2.55 -60.1 2.85 -59.65 2.9 -59.2 2.9 -56.8 M2.9 -64.75 L2.9 -65.65 2.9 -68.4 2.9 -65.65 2.9 -64.75 M0.45 -59.9 Q0.05 -59.9 0.05 -59.45 L0.05 -50.1 Q0.05 -49.7 0.45 -49.7 0.8 -49.7 0.8 -50.1 L0.8 -59.45 0.45 -59.9 M2.9 -50.2 L2.9 -51.05 2.9 -53.85 2.9 -51.05 2.9 -50.2 2.55 -49.5 Q2.25 -49.1 1.75 -49.1 L0.6 -49.1 -0.15 -49.5 -0.5 -50.35 -0.7 -50.15 Q-1.45 -49.3 -1.45 -48.05 -1.45 -46.75 -0.7 -45.95 L-0.2 -45.5 -0.15 -45.5 -0.15 -45.55 Q0.15 -45.95 0.6 -45.95 L1.75 -45.95 Q2.25 -45.95 2.55 -45.55 L2.95 -45.95 Q3.7 -46.75 3.7 -48.05 3.7 -49.3 2.95 -50.15 L2.9 -50.2 M2.9 -42.2 L2.9 -44.6 2.85 -45.1 2.6 -45.5 2.55 -45.55 2.6 -45.5 2.85 -45.1 2.9 -44.6 2.9 -42.2 M0.45 -45.3 Q0.05 -45.3 0.05 -44.9 L0.05 -35.55 Q0.05 -35.15 0.45 -35.15 0.8 -35.15 0.8 -35.55 L0.8 -44.9 Q0.8 -45.3 0.45 -45.3 M2.55 -31.0 L2.55 -31.05 2.95 -31.4 Q3.7 -32.2 3.7 -33.5 3.7 -34.7 2.95 -35.55 L2.9 -35.6 2.9 -36.5 2.9 -39.25 2.9 -36.5 2.9 -35.6 2.55 -34.95 Q2.25 -34.55 1.75 -34.55 L0.6 -34.55 -0.15 -34.95 -0.5 -35.75 -0.7 -35.55 Q-1.45 -34.7 -1.45 -33.5 -1.45 -32.2 -0.7 -31.4 L-0.2 -30.95 -0.1 -31.05 0.6 -31.35 1.75 -31.35 2.5 -31.05 2.55 -31.0 2.85 -30.5 2.9 -30.05 2.9 -27.65 2.9 -30.05 2.85 -30.5 2.55 -31.0 M0.75 -30.6 L0.45 -30.75 0.35 -30.7 0.05 -30.3 0.05 -20.95 Q0.05 -20.55 0.45 -20.55 0.8 -20.55 0.8 -20.95 L0.8 -30.3 0.75 -30.6 M2.9 -21.05 L2.9 -21.95 2.9 -24.7 2.9 -21.95 2.9 -21.05 2.55 -20.35 Q2.25 -19.95 1.75 -19.95 L0.6 -19.95 -0.15 -20.35 -0.5 -21.2 -0.7 -21.0 Q-1.45 -20.15 -1.45 -18.9 -1.45 -17.7 -0.7 -16.8 L-0.2 -16.35 -0.15 -16.35 -0.15 -16.4 Q0.15 -16.8 0.6 -16.8 L1.75 -16.8 Q2.25 -16.8 2.55 -16.4 L2.95 -16.8 Q3.7 -17.7 3.7 -18.9 3.7 -20.15 2.95 -21.0 L2.9 -21.05 M2.9 -13.05 L2.9 -15.45 2.85 -15.95 2.6 -16.35 2.55 -16.4 2.6 -16.35 2.85 -15.95 2.9 -15.45 2.9 -13.05 M0.45 -16.15 Q0.05 -16.15 0.05 -15.75 L0.05 -6.4 Q0.05 -6.0 0.45 -6.0 0.8 -6.0 0.8 -6.4 L0.8 -15.75 Q0.8 -16.15 0.45 -16.15 M2.9 -6.45 L2.9 -10.15 2.9 -6.45 2.55 -5.8 Q2.25 -5.4 1.75 -5.4 L0.6 -5.4 -0.15 -5.8 -0.5 -6.6 -0.7 -6.4 Q-1.35 -5.65 -1.45 -4.6 -0.95 -4.95 -0.25 -4.95 L2.15 -4.95 Q3.0 -4.95 3.7 -4.4 3.7 -5.55 2.95 -6.4 L2.9 -6.45 M12.1 -2.0 Q16.9 -2.55 21.1 1.65 19.8 -0.4 17.5 -1.7 12.95 -4.35 8.15 -0.65 L12.1 -2.0 M-0.5 -82.5 L-0.5 -81.55 -0.5 -82.5 M-0.5 -85.35 L-0.5 -87.8 -0.2 -88.7 -0.5 -87.8 -0.5 -85.35 M-0.5 -81.2 L-0.5 -81.55 Q-2.3 -80.7 -3.0 -78.75 -3.45 -77.55 -3.3 -76.5 -3.2 -78.65 -1.3 -80.5 L-0.5 -81.2 -0.5 -78.95 -0.5 -81.2 M-0.4 -74.25 L-0.5 -73.75 -0.5 -70.75 -0.5 -73.75 -0.4 -74.25 M-0.5 -67.5 Q-2.3 -66.65 -3.0 -64.7 -3.45 -63.5 -3.3 -62.45 -3.2 -64.6 -1.3 -66.45 L-0.5 -67.15 -0.5 -67.5 -0.5 -68.45 -0.5 -67.5 M-0.5 -53.9 L-0.5 -52.9 -0.5 -53.9 M-0.15 -60.05 Q-0.5 -59.75 -0.5 -59.2 L-0.5 -56.75 -0.5 -59.2 Q-0.5 -59.75 -0.15 -60.05 M-0.5 -67.15 L-0.5 -64.9 -0.5 -67.15 M-0.5 -52.55 L-0.5 -52.9 Q-2.3 -52.0 -3.0 -50.15 -3.45 -48.9 -3.3 -47.85 -3.2 -50.0 -1.3 -51.85 L-0.5 -52.55 -0.5 -50.35 -0.5 -52.55 M-0.5 -42.15 L-0.5 -44.6 -0.2 -45.5 -0.5 -44.6 -0.5 -42.15 M-0.5 -38.35 Q-2.3 -37.5 -3.0 -35.55 -3.45 -34.35 -3.3 -33.3 -3.2 -35.45 -1.3 -37.3 L-0.5 -38.0 -0.5 -38.35 -0.5 -39.3 -0.5 -38.35 M-0.5 -24.75 L-0.5 -23.75 -0.5 -24.75 M-0.5 -38.0 L-0.5 -35.75 -0.5 -38.0 M-0.2 -30.95 L-0.5 -30.05 -0.5 -27.6 -0.5 -30.05 -0.2 -30.95 M-0.5 -23.75 Q-2.3 -22.85 -3.0 -21.0 -3.45 -19.75 -3.3 -18.7 -3.2 -20.85 -1.3 -22.7 L-0.5 -23.4 -0.5 -23.75 M-0.5 -10.2 L-0.5 -9.2 -0.5 -10.2 M-0.5 -13.0 L-0.5 -15.45 -0.2 -16.35 -0.5 -15.45 -0.5 -13.0 M-0.5 -23.4 L-0.5 -21.2 -0.5 -23.4 M-0.5 -8.85 L-0.5 -9.2 Q-2.3 -8.35 -3.0 -6.4 -3.45 -5.2 -3.3 -4.15 -3.2 -6.3 -1.3 -8.15 L-0.5 -8.85 -0.5 -6.6 -0.5 -8.85 M-1.45 -4.6 L-1.9 -4.25 Q-2.6 -3.55 -2.6 -2.55 L-2.6 0.1 -2.6 -2.55 Q-2.6 -3.55 -1.9 -4.25 L-1.45 -4.6 M0.1 13.7 L0.1 -3.0 Q0.1 -3.75 -0.65 -3.75 -1.15 -3.75 -1.3 -3.4 L-1.4 -3.0 -1.4 13.7 Q-1.4 14.45 -0.65 14.45 0.1 14.45 0.1 13.7 M-18.15 1.1 L-19.1 2.3 Q-14.9 -1.9 -10.1 -1.35 -7.7 -1.1 -6.15 0.0 -10.95 -3.7 -15.5 -1.05 L-18.15 1.1 M-15.8 101.3 L-18.1 101.05 -14.1 111.35 -12.1 111.35 -15.8 101.3 M24.95 97.3 L19.2 112.2 -16.4 112.2 -25.0 94.45 24.95 97.3" fill="#000000" fill-opacity="0.29803923" fill-rule="evenodd" stroke="none"/>
    <path d="M2.3 -103.55 L0.1 -103.55 -8.55 -103.55 -12.95 -110.35 -14.1 -112.15 15.75 -112.15 14.65 -110.35 10.4 -103.55 2.3 -103.55 M4.6 0.4 L5.9 0.45 5.55 1.0 4.9 2.6 5.05 3.35 5.3 4.4 Q6.05 6.55 7.8 6.25 L8.75 6.0 9.75 5.4 Q11.3 6.45 12.5 8.0 L12.1 7.55 13.2 9.1 Q11.75 10.45 12.95 12.25 13.55 13.2 14.95 14.1 L14.95 14.15 Q18.9 18.85 23.15 20.95 L18.9 21.0 18.75 21.0 16.95 20.95 -5.3 20.65 12.2 18.55 Q10.35 16.45 8.35 13.1 L7.8 13.05 7.55 11.8 Q6.7 7.9 4.55 5.3 L4.55 3.2 5.05 3.35 4.55 3.2 4.55 0.45 4.6 0.4 M17.2 25.1 L17.2 31.6 -1.45 31.6 9.8 28.65 9.8 25.05 11.2 25.05 17.2 25.1 M-4.0 0.45 L-2.6 0.35 -2.6 1.15 -3.65 0.95 -4.0 0.45 M14.95 14.15 L14.95 14.2 8.35 13.1 14.95 14.2 14.95 14.15" fill="#000000" fill-opacity="0.2" fill-rule="evenodd" stroke="none"/>
    <path d="M-0.5 -96.1 L-0.5 -95.75 -1.3 -95.05 Q-3.2 -93.2 -3.3 -91.05 -3.45 -92.1 -3.0 -93.3 -2.3 -95.25 -0.5 -96.1 M0.45 -103.05 Q0.8 -103.05 0.8 -102.65 L0.8 -93.3 Q0.8 -92.9 0.45 -92.9 0.05 -92.9 0.05 -93.3 L0.05 -102.65 Q0.05 -103.05 0.45 -103.05 M0.8 -88.05 L0.8 -78.75 Q0.8 -78.3 0.45 -78.3 0.05 -78.3 0.05 -78.75 L0.05 -88.05 Q0.05 -88.5 0.45 -88.5 L0.8 -88.05 M0.05 -64.7 L0.05 -74.05 Q0.05 -74.45 0.45 -74.45 0.8 -74.45 0.8 -74.05 L0.8 -64.7 Q0.8 -64.25 0.45 -64.25 0.05 -64.25 0.05 -64.7 M0.45 -59.9 L0.8 -59.45 0.8 -50.1 Q0.8 -49.7 0.45 -49.7 0.05 -49.7 0.05 -50.1 L0.05 -59.45 Q0.05 -59.9 0.45 -59.9 M0.45 -45.3 Q0.8 -45.3 0.8 -44.9 L0.8 -35.55 Q0.8 -35.15 0.45 -35.15 0.05 -35.15 0.05 -35.55 L0.05 -44.9 Q0.05 -45.3 0.45 -45.3 M0.75 -30.6 L0.8 -30.3 0.8 -20.95 Q0.8 -20.55 0.45 -20.55 0.05 -20.55 0.05 -20.95 L0.05 -30.3 0.35 -30.7 0.45 -30.75 0.75 -30.6 M0.45 -16.15 Q0.8 -16.15 0.8 -15.75 L0.8 -6.4 Q0.8 -6.0 0.45 -6.0 0.05 -6.0 0.05 -6.4 L0.05 -15.75 Q0.05 -16.15 0.45 -16.15 M12.1 -2.0 L8.15 -0.65 Q12.95 -4.35 17.5 -1.7 19.8 -0.4 21.1 1.65 16.9 -2.55 12.1 -2.0 M-0.5 -81.55 L-0.5 -81.2 -1.3 -80.5 Q-3.2 -78.65 -3.3 -76.5 -3.45 -77.55 -3.0 -78.75 -2.3 -80.7 -0.5 -81.55 M-0.5 -67.15 L-1.3 -66.45 Q-3.2 -64.6 -3.3 -62.45 -3.45 -63.5 -3.0 -64.7 -2.3 -66.65 -0.5 -67.5 L-0.5 -67.15 M-0.5 -52.9 L-0.5 -52.55 -1.3 -51.85 Q-3.2 -50.0 -3.3 -47.85 -3.45 -48.9 -3.0 -50.15 -2.3 -52.0 -0.5 -52.9 M-0.5 -38.0 L-1.3 -37.3 Q-3.2 -35.45 -3.3 -33.3 -3.45 -34.35 -3.0 -35.55 -2.3 -37.5 -0.5 -38.35 L-0.5 -38.0 M-0.5 -23.4 L-1.3 -22.7 Q-3.2 -20.85 -3.3 -18.7 -3.45 -19.75 -3.0 -21.0 -2.3 -22.85 -0.5 -23.75 L-0.5 -23.4 M-0.5 -9.2 L-0.5 -8.85 -1.3 -8.15 Q-3.2 -6.3 -3.3 -4.15 -3.45 -5.2 -3.0 -6.4 -2.3 -8.35 -0.5 -9.2 M0.1 13.7 Q0.1 14.45 -0.65 14.45 -1.4 14.45 -1.4 13.7 L-1.4 -3.0 -1.3 -3.4 Q-1.15 -3.75 -0.65 -3.75 0.1 -3.75 0.1 -3.0 L0.1 13.7 M-18.15 1.1 L-15.5 -1.05 Q-10.95 -3.7 -6.15 0.0 -7.7 -1.1 -10.1 -1.35 -14.9 -1.9 -19.1 2.3 L-18.15 1.1 M-15.8 101.3 L-12.1 111.35 -14.1 111.35 -18.1 101.05 -15.8 101.3" fill="#ffffff" fill-opacity="0.2" fill-rule="evenodd" stroke="none"/>
    <path d="M-1.45 31.6 L-15.35 31.6 -15.35 24.8 1.45 24.9 9.8 25.05 9.8 28.65 -1.45 31.6 M-21.6 20.95 Q-17.35 18.85 -13.4 14.15 L-13.7 14.2 -11.35 12.25 Q-10.7 11.35 -10.75 10.55 -10.85 9.6 -11.7 8.8 L-11.7 8.75 Q-10.3 6.6 -8.15 5.2 L-6.4 6.2 Q-8.5 7.5 -9.4 10.0 -9.85 11.25 -9.9 12.25 L-7.8 12.45 -7.8 11.45 Q-7.7 8.4 -5.8 6.55 L-5.55 6.55 -4.45 6.3 Q-3.9 5.9 -3.45 5.1 L-3.05 4.95 -3.45 5.05 -2.9 3.15 -2.85 2.7 Q-3.2 1.65 -3.65 0.95 L-2.6 1.15 -2.6 3.1 -2.9 3.15 -2.6 3.1 -2.6 12.8 -2.6 13.1 Q-2.6 14.1 -1.9 14.8 -1.25 15.5 -0.25 15.5 L2.15 15.5 Q3.15 15.5 3.85 14.8 4.55 14.1 4.55 13.1 L4.55 12.8 7.8 13.05 8.35 13.1 Q10.35 16.45 12.2 18.55 L-5.3 20.65 16.95 20.95 18.75 21.0 -21.6 20.95 M-9.0 13.4 Q-11.5 17.05 -15.05 20.05 L-10.9 20.05 -7.9 16.2 Q-7.05 14.8 -6.4 13.05 L-9.0 13.4 -13.4 14.15 -9.0 13.4 M-6.4 13.05 L-2.6 12.8 -6.4 13.05" fill="#ffffff" fill-opacity="0.0" fill-rule="evenodd" stroke="none"/>
    <path d="M-3.45 5.05 L-3.05 4.95 -3.45 5.1 -3.45 5.05" fill="#f1f2f2" fill-rule="evenodd" stroke="none"/>
    <path d="M-5.55 6.55 L-5.8 6.55 -5.9 6.5 -5.55 6.55" fill="#939598" fill-rule="evenodd" stroke="none"/>
    <path d="M-5.8 6.55 Q-7.7 8.4 -7.8 11.45 L-7.8 12.45 -9.9 12.25 Q-9.85 11.25 -9.4 10.0 -8.5 7.5 -6.4 6.2 L-5.9 6.5 -5.8 6.55 M-6.4 13.05 Q-7.05 14.8 -7.9 16.2 L-10.9 20.05 -15.05 20.05 Q-11.5 17.05 -9.0 13.4 L-6.4 13.05 M4.55 5.3 Q6.7 7.9 7.55 11.8 L7.8 13.05 4.55 12.8 4.55 5.3" fill="#ffffff" fill-opacity="0.29803923" fill-rule="evenodd" stroke="none"/>
    <path d="M12.5 8.0 L13.1 8.9 13.2 9.1 12.1 7.55 12.5 8.0" fill="#d3d5d6" fill-rule="evenodd" stroke="none"/>
    <path d="M9.8 25.0 L11.2 25.05 9.8 25.05 9.8 25.0" fill="#86888a" fill-rule="evenodd" stroke="none"/>
    <path d="M0.1 -103.55 L-0.15 -103.3 Q-0.5 -102.95 -0.5 -102.35 L-0.5 -97.05 Q-1.75 -96.65 -2.7 -95.55 -4.25 -93.8 -4.25 -91.25 -4.25 -88.65 -2.7 -86.9 -1.75 -85.8 -0.5 -85.35 L-0.5 -82.5 Q-1.75 -82.1 -2.7 -81.0 -4.25 -79.25 -4.25 -76.65 -4.25 -74.05 -2.7 -72.3 -1.75 -71.2 -0.5 -70.75 L-0.5 -68.45 Q-1.75 -68.05 -2.7 -66.95 -4.25 -65.2 -4.25 -62.6 -4.25 -60.05 -2.7 -58.3 -1.75 -57.2 -0.5 -56.75 L-0.5 -53.9 Q-1.75 -53.5 -2.7 -52.4 -4.25 -50.65 -4.25 -48.05 -4.25 -45.45 -2.7 -43.7 -1.75 -42.6 -0.5 -42.15 L-0.5 -39.3 Q-1.75 -38.9 -2.7 -37.8 -4.25 -36.05 -4.25 -33.5 -4.25 -32.15 -3.8 -31.05 -3.4 -29.9 -2.7 -29.15 -1.75 -28.05 -0.5 -27.6 L-0.5 -24.75 Q-1.75 -24.35 -2.7 -23.25 -4.25 -21.5 -4.25 -18.9 -4.25 -16.3 -2.7 -14.55 -1.75 -13.45 -0.5 -13.0 L-0.5 -10.2 Q-1.75 -9.8 -2.7 -8.7 -4.25 -6.85 -4.25 -4.35 -4.25 -1.75 -2.7 0.0 L-2.6 0.1 M2.9 -97.0 L2.9 -102.35 Q2.9 -102.95 2.55 -103.3 L2.3 -103.55 M2.9 -97.0 Q4.05 -96.6 4.95 -95.55 6.5 -93.8 6.5 -91.25 6.5 -88.65 4.95 -86.9 4.05 -85.85 2.9 -85.4 L2.9 -82.45 Q4.05 -82.05 4.95 -81.0 6.5 -79.25 6.5 -76.65 6.5 -74.05 4.95 -72.3 4.05 -71.25 2.9 -70.8 L2.9 -68.4 Q4.05 -68.0 4.95 -66.95 6.5 -65.2 6.5 -62.6 6.5 -60.05 4.95 -58.3 4.05 -57.25 2.9 -56.8 L2.9 -53.85 Q4.05 -53.45 4.95 -52.4 6.5 -50.65 6.5 -48.05 6.5 -45.45 4.95 -43.7 4.05 -42.65 2.9 -42.2 L2.9 -39.25 Q4.05 -38.85 4.95 -37.8 6.5 -36.05 6.5 -33.5 6.5 -32.25 6.1 -31.05 L4.95 -29.15 Q4.05 -28.1 2.9 -27.65 L2.9 -24.7 Q4.05 -24.3 4.95 -23.25 6.5 -21.5 6.5 -18.9 6.5 -16.3 4.95 -14.55 4.05 -13.5 2.9 -13.05 L2.9 -10.15 Q4.05 -9.75 4.95 -8.7 6.5 -6.85 6.5 -4.35 6.5 -1.75 4.95 0.0 L4.6 0.4 M-11.7 8.8 Q-10.85 9.6 -10.75 10.55 -10.7 11.35 -11.35 12.25 L-13.7 14.2 M-9.0 13.4 L-13.4 14.15 M-6.4 13.05 L-9.0 13.4 M-2.6 12.8 L-6.4 13.05 M14.95 14.1 Q13.55 13.2 12.95 12.25 11.75 10.45 13.2 9.1 M8.35 13.1 L14.95 14.2 14.95 14.15 M4.55 12.8 L7.8 13.05" fill="none" stroke="#000000" stroke-linecap="round" stroke-linejoin="miter-clip" stroke-miterlimit="4.0" stroke-opacity="0.6" stroke-width="1.0"/>
    <path d="M2.3 -103.55 L10.4 -103.55 14.65 -110.35 15.75 -112.15 -14.1 -112.15 -12.95 -110.35 -8.55 -103.55 0.1 -103.55 M4.6 0.4 L5.9 0.45 7.7 -1.65 Q11.65 -5.15 17.45 -3.05 20.7 -1.9 22.0 1.1 23.2 3.75 22.55 7.0 21.95 10.15 19.95 12.2 17.85 14.4 15.2 14.25 L14.95 14.1 M14.95 14.15 Q18.9 18.85 23.15 20.95 L17.2 25.1 17.2 31.6 -1.45 31.6 -15.35 31.6 -15.35 24.8 -21.6 20.95 Q-17.35 18.85 -13.4 14.15 M-13.7 14.2 Q-16.35 14.25 -18.35 11.95 -20.2 9.8 -20.7 6.65 -21.2 3.4 -19.9 0.8 -18.45 -2.15 -15.15 -3.2 -9.35 -5.05 -5.5 -1.35 L-4.0 0.45 -2.6 0.35 M-8.15 5.2 Q-10.3 6.6 -11.7 8.75 L-11.7 8.8 -12.7 8.1 Q-14.45 7.05 -14.5 5.7 -14.6 4.5 -13.45 3.7 -12.3 2.85 -10.9 3.15 -9.3 3.45 -8.25 5.15 L-8.15 5.2 M24.95 97.3 L-25.0 94.45 -16.4 112.2 19.2 112.2 24.95 97.3 M13.2 9.1 L14.5 8.15 Q16.25 7.2 16.4 5.8 16.5 4.6 15.45 3.75 14.3 2.85 12.9 3.1 11.3 3.35 10.2 5.0 L9.75 5.4 Q11.3 6.45 12.5 8.0 L13.1 8.9 13.2 9.1" fill="none" stroke="#000000" stroke-linecap="round" stroke-linejoin="miter-clip" stroke-miterlimit="4.0" stroke-width="1.0"/>
    <path d="M2.3 -103.55 L0.1 -103.55 M-0.5 -97.05 L-0.5 -96.1 -0.5 -95.75 -0.5 -93.5 -0.15 -92.7 0.6 -92.3 1.75 -92.3 Q2.25 -92.3 2.55 -92.7 L2.9 -93.35 2.9 -94.25 2.9 -97.0 M14.95 14.1 L14.95 14.15 M-13.4 14.15 L-13.7 14.2 M-2.6 0.35 L-2.6 0.1 -2.6 -2.55 Q-2.6 -3.55 -1.9 -4.25 L-1.45 -4.6 Q-0.95 -4.95 -0.25 -4.95 L2.15 -4.95 Q3.0 -4.95 3.7 -4.4 L3.85 -4.25 Q4.55 -3.55 4.55 -2.55 L4.55 0.45 4.6 0.4 M2.9 -93.35 L2.95 -93.3 Q3.7 -92.45 3.7 -91.25 3.7 -89.95 2.95 -89.15 L2.55 -88.75 2.85 -88.25 2.9 -87.8 2.9 -85.4 M-0.15 -88.7 L-0.15 -88.75 Q0.15 -89.1 0.6 -89.1 L1.75 -89.1 Q2.25 -89.1 2.55 -88.75 M2.9 -78.8 L2.55 -78.1 Q2.25 -77.7 1.75 -77.7 L0.6 -77.7 -0.15 -78.1 -0.5 -78.95 -0.7 -78.75 Q-1.45 -77.9 -1.45 -76.65 -1.45 -75.45 -0.7 -74.55 L-0.4 -74.25 -0.15 -74.7 Q0.15 -75.1 0.6 -75.1 L1.75 -75.1 Q2.25 -75.1 2.55 -74.7 L2.8 -74.35 2.95 -74.55 Q3.7 -75.45 3.7 -76.65 3.7 -77.9 2.95 -78.75 L2.9 -78.8 2.9 -82.45 M2.8 -74.35 L2.9 -73.75 2.9 -70.8 M2.95 -64.7 L2.9 -64.75 2.55 -64.05 Q2.25 -63.65 1.75 -63.65 L0.6 -63.65 -0.15 -64.05 -0.5 -64.9 -0.7 -64.7 Q-1.45 -63.85 -1.45 -62.6 -1.45 -61.35 -0.7 -60.55 L-0.15 -60.05 -0.15 -60.1 Q0.15 -60.5 0.6 -60.5 L1.75 -60.5 Q2.2 -60.5 2.5 -60.15 L2.95 -60.55 Q3.7 -61.35 3.7 -62.6 3.7 -63.85 2.95 -64.7 M2.9 -68.4 L2.9 -65.65 2.9 -64.75 M2.5 -60.15 L2.55 -60.1 2.85 -59.65 2.9 -59.2 2.9 -56.8 M2.9 -53.85 L2.9 -51.05 2.9 -50.2 2.95 -50.15 Q3.7 -49.3 3.7 -48.05 3.7 -46.75 2.95 -45.95 L2.55 -45.55 2.6 -45.5 2.85 -45.1 2.9 -44.6 2.9 -42.2 M2.9 -50.2 L2.55 -49.5 Q2.25 -49.1 1.75 -49.1 L0.6 -49.1 -0.15 -49.5 -0.5 -50.35 -0.7 -50.15 Q-1.45 -49.3 -1.45 -48.05 -1.45 -46.75 -0.7 -45.95 L-0.2 -45.5 -0.5 -44.6 -0.5 -42.15 M-0.15 -45.5 L-0.15 -45.55 Q0.15 -45.95 0.6 -45.95 L1.75 -45.95 Q2.25 -45.95 2.55 -45.55 M2.9 -35.6 L2.95 -35.55 Q3.7 -34.7 3.7 -33.5 3.7 -32.2 2.95 -31.4 L2.55 -31.05 2.55 -31.0 2.85 -30.5 2.9 -30.05 2.9 -27.65 M2.9 -39.25 L2.9 -36.5 2.9 -35.6 2.55 -34.95 Q2.25 -34.55 1.75 -34.55 L0.6 -34.55 -0.15 -34.95 -0.5 -35.75 -0.7 -35.55 Q-1.45 -34.7 -1.45 -33.5 -1.45 -32.2 -0.7 -31.4 L-0.2 -30.95 -0.1 -31.05 0.6 -31.35 1.75 -31.35 2.5 -31.05 2.55 -31.0 M2.9 -24.7 L2.9 -21.95 2.9 -21.05 2.95 -21.0 Q3.7 -20.15 3.7 -18.9 3.7 -17.7 2.95 -16.8 L2.55 -16.4 2.6 -16.35 2.85 -15.95 2.9 -15.45 2.9 -13.05 M2.9 -21.05 L2.55 -20.35 Q2.25 -19.95 1.75 -19.95 L0.6 -19.95 -0.15 -20.35 -0.5 -21.2 -0.7 -21.0 Q-1.45 -20.15 -1.45 -18.9 -1.45 -17.7 -0.7 -16.8 L-0.2 -16.35 -0.5 -15.45 -0.5 -13.0 M-0.15 -16.35 L-0.15 -16.4 Q0.15 -16.8 0.6 -16.8 L1.75 -16.8 Q2.25 -16.8 2.55 -16.4 M2.9 -10.15 L2.9 -6.45 2.95 -6.4 Q3.7 -5.55 3.7 -4.4 M2.9 -6.45 L2.55 -5.8 Q2.25 -5.4 1.75 -5.4 L0.6 -5.4 -0.15 -5.8 -0.5 -6.6 -0.7 -6.4 Q-1.35 -5.65 -1.45 -4.6 M-0.5 -93.5 L-0.7 -93.3 Q-1.45 -92.45 -1.45 -91.25 -1.45 -89.95 -0.7 -89.15 L-0.2 -88.7 -0.5 -87.8 -0.5 -85.35 M-0.5 -81.55 L-0.5 -82.5 M-0.5 -81.2 L-0.5 -81.55 M-0.5 -81.2 L-0.5 -78.95 M-0.5 -70.75 L-0.5 -73.75 -0.4 -74.25 M-0.5 -67.5 L-0.5 -68.45 M-0.5 -67.15 L-0.5 -67.5 M-0.5 -64.9 L-0.5 -67.15 M-0.5 -56.75 L-0.5 -59.2 Q-0.5 -59.75 -0.15 -60.05 M-0.5 -52.9 L-0.5 -53.9 M-0.5 -52.55 L-0.5 -52.9 M-0.5 -52.55 L-0.5 -50.35 M-0.5 -38.0 L-0.5 -38.35 -0.5 -39.3 M-0.5 -27.6 L-0.5 -30.05 -0.2 -30.95 M-0.5 -35.75 L-0.5 -38.0 M-0.5 -23.75 L-0.5 -24.75 M-0.5 -23.4 L-0.5 -23.75 M-0.5 -21.2 L-0.5 -23.4 M-0.5 -9.2 L-0.5 -10.2 M-0.5 -8.85 L-0.5 -9.2 M-0.5 -8.85 L-0.5 -6.6 M-2.6 1.15 L-2.6 0.35 M-3.65 0.95 L-4.0 0.45 M-3.45 5.05 L-2.9 3.15 -2.85 2.7 Q-3.2 1.65 -3.65 0.95 M-3.45 5.1 Q-3.9 5.9 -4.45 6.3 L-5.55 6.55 -5.9 6.5 -6.4 6.2 -8.15 5.2 M-2.6 3.1 L-2.9 3.15 M-3.45 5.1 L-3.45 5.05 M-2.6 3.1 L-2.6 1.15 M4.55 12.8 L4.55 13.1 Q4.55 14.1 3.85 14.8 3.15 15.5 2.15 15.5 L-0.25 15.5 Q-1.25 15.5 -1.9 14.8 -2.6 14.1 -2.6 13.1 L-2.6 12.8 -2.6 3.1 M12.1 7.55 L12.5 8.0 M5.05 3.35 L4.9 2.6 5.55 1.0 5.9 0.45 M9.75 5.4 L8.75 6.0 7.8 6.25 Q6.05 6.55 5.3 4.4 L5.05 3.35 4.55 3.2 4.55 5.3 4.55 12.8 M7.8 13.05 L8.35 13.1 M4.55 0.45 L4.55 3.2 M23.15 20.95 L18.9 21.0 18.75 21.0 -21.6 20.95 M11.2 25.05 L17.2 25.1 M9.8 25.05 L1.45 24.9 -15.35 24.8 M1.45 24.9 L1.95 24.9 9.8 25.0 11.2 25.05 9.8 25.05" fill="none" stroke="#000000" stroke-linecap="round" stroke-linejoin="miter-clip" stroke-miterlimit="4.0" stroke-opacity="0.4" stroke-width="1.0"/>
  </g>
</svg>
