<?xml version="1.0" encoding="UTF-8" standalone="no"?>
<svg xmlns:xlink="http://www.w3.org/1999/xlink" height="90.7px" width="317.25px" xmlns="http://www.w3.org/2000/svg">
  <g transform="matrix(1.0, 0.0, 0.0, 1.0, 158.6, 45.35)">
    <path d="M119.4 -2.55 L119.4 -0.9 -119.9 -0.9 -119.9 -2.55 119.4 -2.55 M132.9 -39.8 L132.9 37.75 Q132.9 38.75 132.0 38.75 131.0 38.75 131.0 37.75 L131.0 -39.8 Q131.0 -40.85 132.0 -40.85 132.9 -40.85 132.9 -39.8 M140.1 -30.6 L140.1 29.15 Q140.1 30.0 139.15 30.0 138.25 30.0 138.25 29.15 L138.25 -30.6 Q138.25 -31.35 139.15 -31.35 140.1 -31.35 140.1 -30.6 M145.75 -0.9 L145.75 -2.55 151.35 -2.55 152.4 -2.3 152.8 -1.7 Q152.8 -0.9 151.35 -0.9 L145.75 -0.9 M-132.5 -40.85 Q-132.1 -40.85 -131.75 -40.5 -131.5 -40.25 -131.5 -39.8 L-131.5 37.75 Q-131.5 38.2 -131.75 38.45 L-132.5 38.75 Q-133.45 38.75 -133.45 37.75 L-133.45 -39.8 Q-133.45 -40.85 -132.5 -40.85 M-139.65 -31.35 Q-138.75 -31.35 -138.75 -30.6 L-138.75 29.15 Q-138.75 30.0 -139.65 30.0 -140.6 30.0 -140.6 29.15 L-140.6 -30.6 Q-140.6 -31.35 -139.65 -31.35 M-146.25 -0.9 L-151.85 -0.9 Q-153.3 -0.9 -153.3 -1.7 -153.3 -2.55 -151.85 -2.55 L-146.25 -2.55 -146.25 -0.9" fill="#ffffff" fill-opacity="0.4" fill-rule="evenodd" stroke="none"/>
    <path d="M119.4 -4.9 L119.4 -2.55 -119.9 -2.55 -119.9 -4.9 119.4 -4.9 M119.4 -0.9 L119.4 1.5 -119.9 1.5 -119.9 -0.9 119.4 -0.9 M145.75 -4.9 L148.4 -4.9 Q152.45 -4.9 155.3 -3.25 157.5 -2.05 158.0 -0.4 L158.15 0.25 158.15 0.65 158.0 1.7 145.75 1.5 145.75 -0.9 151.35 -0.9 Q152.8 -0.9 152.8 -1.7 L152.4 -2.3 151.35 -2.55 145.75 -2.55 145.75 -4.9 M-156.6 3.65 L-157.1 3.15 -157.5 2.6 Q-158.0 1.85 -158.1 1.0 L-158.1 0.35 Q-158.05 -0.45 -157.45 -1.35 L-157.3 -1.6 -156.55 -2.3 -155.25 -3.25 Q-152.4 -4.9 -148.4 -4.9 L-146.2 -4.9 -146.2 1.5 -148.15 1.5 Q-153.75 1.5 -156.55 3.65 L-156.6 3.65 M-146.25 -0.9 L-146.25 -2.55 -151.85 -2.55 Q-153.3 -2.55 -153.3 -1.7 -153.3 -0.9 -151.85 -0.9 L-146.25 -0.9 M-157.1 3.15 L-156.55 3.65 -157.1 3.15" fill="#ffffff" fill-opacity="0.0" fill-rule="evenodd" stroke="none"/>
    <path d="M119.4 1.5 L119.4 6.2 -119.9 6.2 -119.9 1.5 119.4 1.5 M158.0 1.7 L158.15 1.7 157.15 3.4 155.15 4.75 Q152.55 5.9 150.45 6.1 L150.25 6.15 148.4 6.2 145.75 6.2 145.75 1.5 158.0 1.7 Q157.5 3.35 155.3 4.55 153.25 5.7 150.45 6.1 153.25 5.7 155.3 4.55 157.5 3.35 158.0 1.7 M-146.2 1.5 L-146.2 6.2 -149.95 6.15 -151.55 5.95 Q-153.7 5.5 -155.25 4.55 L-156.5 3.75 -156.6 3.65 -156.55 3.65 -156.5 3.75 -156.55 3.65 Q-153.75 1.5 -148.15 1.5 L-146.2 1.5" fill="#000000" fill-opacity="0.4509804" fill-rule="evenodd" stroke="none"/>
    <path d="M135.75 36.05 L135.75 -36.05 Q138.1 -35.8 139.7 -34.0 141.65 -31.95 141.65 -29.0 L141.65 -22.7 141.65 21.95 141.65 28.95 Q141.65 31.95 139.7 33.95 138.05 35.85 135.75 36.05 M140.1 -30.6 Q140.1 -31.35 139.15 -31.35 138.25 -31.35 138.25 -30.6 L138.25 29.15 Q138.25 30.0 139.15 30.0 140.1 30.0 140.1 29.15 L140.1 -30.6 M-142.2 -22.7 L-142.2 -29.0 Q-142.2 -31.95 -140.3 -34.0 -138.6 -35.8 -136.25 -36.05 L-136.25 36.05 Q-138.55 35.85 -140.3 33.95 -142.2 31.9 -142.2 28.95 L-142.2 21.95 -142.2 -22.7 M-139.65 -31.35 Q-140.6 -31.35 -140.6 -30.6 L-140.6 29.15 Q-140.6 30.0 -139.65 30.0 -138.75 30.0 -138.75 29.15 L-138.75 -30.6 Q-138.75 -31.35 -139.65 -31.35" fill="#000000" fill-opacity="0.4" fill-rule="evenodd" stroke="none"/>
    <path d="M119.4 -4.9 L119.4 -36.05 Q119.4 -39.7 121.8 -42.3 124.15 -44.85 127.55 -44.85 130.95 -44.85 133.35 -42.3 135.75 -39.7 135.75 -36.05 L135.75 36.05 Q135.75 39.6 133.4 42.25 130.95 44.85 127.55 44.85 124.2 44.85 121.8 42.25 119.4 39.65 119.4 36.0 L119.4 6.2 119.4 1.5 119.4 -0.9 119.4 -2.55 119.4 -4.9 M141.65 -22.7 Q143.35 -22.7 144.55 -21.4 145.75 -20.15 145.75 -18.35 L145.75 -4.9 145.75 -2.55 145.75 -0.9 145.75 1.5 145.75 6.2 145.75 17.6 Q145.75 19.4 144.55 20.7 143.35 21.95 141.65 21.95 L141.65 -22.7 M132.9 -39.8 Q132.9 -40.85 132.0 -40.85 131.0 -40.85 131.0 -39.8 L131.0 37.75 Q131.0 38.75 132.0 38.75 132.9 38.75 132.9 37.75 L132.9 -39.8 M-136.25 -36.05 Q-136.25 -39.7 -133.85 -42.3 -131.45 -44.85 -128.05 -44.85 -124.7 -44.85 -122.3 -42.3 -119.9 -39.7 -119.9 -36.05 L-119.9 -4.9 -119.9 -2.55 -119.9 -0.9 -119.9 1.5 -119.9 6.2 -119.9 36.0 Q-119.9 39.65 -122.3 42.25 -124.7 44.85 -128.05 44.85 -131.45 44.85 -133.9 42.25 -136.25 39.6 -136.25 36.05 L-136.25 -36.05 M-132.5 -40.85 Q-133.45 -40.85 -133.45 -39.8 L-133.45 37.75 Q-133.45 38.75 -132.5 38.75 L-131.75 38.45 Q-131.5 38.2 -131.5 37.75 L-131.5 -39.8 Q-131.5 -40.25 -131.75 -40.5 -132.1 -40.85 -132.5 -40.85 M-146.2 -4.9 L-146.2 -18.35 Q-146.2 -20.15 -145.05 -21.4 -143.9 -22.7 -142.2 -22.7 L-142.2 21.95 Q-143.9 21.95 -145.05 20.7 -146.2 19.4 -146.2 17.6 L-146.2 6.2 -146.2 1.5 -146.2 -4.9" fill="#000000" fill-opacity="0.54901963" fill-rule="evenodd" stroke="none"/>
    <path d="M135.75 -36.05 Q135.75 -39.7 133.35 -42.3 130.95 -44.85 127.55 -44.85 124.15 -44.85 121.8 -42.3 119.4 -39.7 119.4 -36.05 L119.4 -4.9 119.4 -2.55 119.4 -0.9 119.4 1.5 119.4 6.2 119.4 36.0 Q119.4 39.65 121.8 42.25 124.2 44.85 127.55 44.85 130.95 44.85 133.4 42.25 135.75 39.6 135.75 36.05 138.05 35.85 139.7 33.95 141.65 31.95 141.65 28.95 L141.65 21.95 Q143.35 21.95 144.55 20.7 145.75 19.4 145.75 17.6 L145.75 6.2 148.4 6.2 150.25 6.15 150.45 6.1 Q153.25 5.7 155.3 4.55 157.5 3.35 158.0 1.7 L158.15 0.65 158.15 0.25 158.0 -0.4 Q157.5 -2.05 155.3 -3.25 152.45 -4.9 148.4 -4.9 L145.75 -4.9 145.75 -18.35 Q145.75 -20.15 144.55 -21.4 143.35 -22.7 141.65 -22.7 L141.65 -29.0 Q141.65 -31.95 139.7 -34.0 138.1 -35.8 135.75 -36.05 M-136.25 -36.05 Q-136.25 -39.7 -133.85 -42.3 -131.45 -44.85 -128.05 -44.85 -124.7 -44.85 -122.3 -42.3 -119.9 -39.7 -119.9 -36.05 L-119.9 -4.9 119.4 -4.9 M-142.2 -22.7 L-142.2 -29.0 Q-142.2 -31.95 -140.3 -34.0 -138.6 -35.8 -136.25 -36.05 M-136.25 36.05 Q-136.25 39.6 -133.9 42.25 -131.45 44.85 -128.05 44.85 -124.7 44.85 -122.3 42.25 -119.9 39.65 -119.9 36.0 L-119.9 6.2 -119.9 1.5 -119.9 -0.9 -119.9 -2.55 -119.9 -4.9 M-146.2 -4.9 L-146.2 -18.35 Q-146.2 -20.15 -145.05 -21.4 -143.9 -22.7 -142.2 -22.7 M-142.2 21.95 L-142.2 28.95 Q-142.2 31.9 -140.3 33.95 -138.55 35.85 -136.25 36.05 M-156.6 3.65 L-157.1 3.15 -157.5 2.6 Q-158.0 1.85 -158.1 1.0 L-158.1 0.35 Q-158.05 -0.45 -157.45 -1.35 L-157.3 -1.6 -156.55 -2.3 -155.25 -3.25 Q-152.4 -4.9 -148.4 -4.9 L-146.2 -4.9 M-146.2 6.2 L-146.2 17.6 Q-146.2 19.4 -145.05 20.7 -143.9 21.95 -142.2 21.95 M-146.2 6.2 L-149.95 6.15 -151.55 5.95 Q-153.7 5.5 -155.25 4.55 L-156.5 3.75 -156.55 3.65 -157.1 3.15 M-119.9 6.2 L119.4 6.2" fill="none" stroke="#000000" stroke-linecap="round" stroke-linejoin="miter-clip" stroke-miterlimit="4.0" stroke-width="1.0"/>
    <path d="M135.75 36.05 L135.75 -36.05 M145.75 -2.55 L145.75 -4.9 M145.75 -0.9 L145.75 -2.55 M145.75 -0.9 L145.75 1.5 145.75 6.2 M141.65 -22.7 L141.65 21.95 M-136.25 -36.05 L-136.25 36.05 M-142.2 -22.7 L-142.2 21.95 M-146.2 -4.9 L-146.2 1.5 -146.2 6.2" fill="none" stroke="#000000" stroke-linecap="round" stroke-linejoin="miter-clip" stroke-miterlimit="4.0" stroke-opacity="0.6" stroke-width="1.0"/>
  </g>
</svg>
