<?xml version="1.0" encoding="UTF-8" standalone="no"?>
<svg xmlns:xlink="http://www.w3.org/1999/xlink" height="51.55px" width="21.75px" xmlns="http://www.w3.org/2000/svg">
  <g transform="matrix(1.0, 0.0, 0.0, 1.0, 11.15, 24.85)">
    <path d="M-3.25 -24.35 L9.7 -22.75 Q4.3 -15.35 2.55 -7.15 1.15 -0.5 1.65 10.1 1.6 9.4 4.15 11.4 L6.75 13.65 9.2 16.0 Q10.1 17.25 9.75 19.35 9.35 21.45 7.7 22.05 6.0 22.75 4.55 21.0 4.65 22.85 4.0 23.75 3.15 24.85 1.55 24.1 0.05 23.35 -0.5 21.8 0.05 23.45 -4.7 22.0 -9.4 20.6 -9.85 17.85 -10.05 16.8 -9.4 14.6 L-8.65 11.25 -8.7 7.55 -8.9 3.8 Q-9.0 -5.2 -8.15 -10.8 -6.9 -18.95 -3.25 -24.35" fill="#ffffff" fill-opacity="0.0" fill-rule="evenodd" stroke="none"/>
    <path d="M-3.25 -24.35 Q-6.9 -18.95 -8.15 -10.8 -9.0 -5.2 -8.9 3.8 L-8.7 7.55 -8.65 11.25 -9.4 14.6 Q-10.05 16.8 -9.85 17.85 -9.4 20.6 -4.7 22.0 0.05 23.45 -0.5 21.8 0.05 23.35 1.55 24.1 3.15 24.85 4.0 23.75 4.65 22.85 4.55 21.0 6.0 22.75 7.7 22.05 9.35 21.45 9.75 19.35 10.1 17.25 9.2 16.0 L6.75 13.65 4.15 11.4 Q1.6 9.4 1.65 10.1 1.15 -0.5 2.55 -7.15 4.3 -15.35 9.7 -22.75" fill="none" stroke="#000000" stroke-linecap="butt" stroke-linejoin="miter-clip" stroke-miterlimit="10.0" stroke-width="1.0"/>
  </g>
</svg>
