<?xml version="1.0" encoding="UTF-8" standalone="no"?>
<svg xmlns:xlink="http://www.w3.org/1999/xlink" height="638.05px" width="14.8px" xmlns="http://www.w3.org/2000/svg">
  <g transform="matrix(1.0, 0.0, 0.0, 1.0, 7.4, 319.0)">
    <path d="M-2.9 318.0 L-2.9 -299.55 -1.7 -299.55 -1.7 318.4 -1.7 318.55 -2.9 318.55 -2.9 318.0" fill="#ffffff" fill-opacity="0.4" fill-rule="evenodd" stroke="none"/>
    <path d="M-2.9 318.0 Q-3.9 317.55 -4.75 316.7 -6.9 314.55 -6.9 311.8 L-6.9 -311.45 Q-6.9 -314.55 -4.75 -316.35 -2.9 -318.5 -0.15 -318.5 2.9 -318.5 4.75 -316.35 6.9 -314.55 6.9 -311.45 L6.9 311.8 Q6.9 314.55 4.75 316.7 2.9 318.55 -0.15 318.55 L-1.7 318.4 -1.7 -299.55 -2.9 -299.55 -2.9 318.0" fill="#ffffff" fill-opacity="0.0" fill-rule="evenodd" stroke="none"/>
    <path d="M-1.7 318.4 L-0.15 318.55 Q2.9 318.55 4.75 316.7 6.9 314.55 6.9 311.8 L6.9 -311.45 Q6.9 -314.55 4.75 -316.35 2.9 -318.5 -0.15 -318.5 -2.9 -318.5 -4.75 -316.35 -6.9 -314.55 -6.9 -311.45 L-6.9 311.8 Q-6.9 314.55 -4.75 316.7 -3.9 317.55 -2.9 318.0" fill="none" stroke="#000000" stroke-linecap="round" stroke-linejoin="miter-clip" stroke-miterlimit="4.0" stroke-width="1.0"/>
  </g>
</svg>
