<?xml version="1.0" encoding="UTF-8" standalone="no"?>
<svg xmlns:xlink="http://www.w3.org/1999/xlink" height="263.75px" width="74.45px" xmlns="http://www.w3.org/2000/svg">
  <g transform="matrix(1.0, 0.0, 0.0, 1.0, 37.2, 131.85)">
    <path d="M-4.9 -125.05 L-7.35 -125.05 Q-8.65 -125.05 -9.6 -125.95 -10.5 -126.95 -10.5 -128.2 -10.5 -129.5 -9.6 -130.45 -8.65 -131.35 -7.35 -131.35 L6.65 -131.35 Q7.9 -131.35 8.9 -130.45 9.8 -129.5 9.8 -128.2 9.8 -126.95 8.9 -125.95 7.9 -125.05 6.65 -125.05 L4.25 -125.05 -1.05 -125.05 -4.9 -125.05" fill="#ffffff" fill-opacity="0.3019608" fill-rule="evenodd" stroke="none"/>
    <path d="M4.25 113.5 L18.9 113.5 18.9 120.5 32.6 120.5 32.6 131.4 -32.65 131.4 -32.65 120.5 -18.85 120.5 -18.85 113.5 -4.9 113.5 -1.05 113.5 4.25 113.5 M18.9 120.5 L-18.85 120.5 18.9 120.5" fill="#ffffff" fill-opacity="0.2509804" fill-rule="evenodd" stroke="none"/>
    <path d="M-4.9 113.5 L-4.9 -19.45 -1.05 -19.45 -1.05 113.5 -4.9 113.5 M-4.9 -117.05 L-4.9 -125.05 -1.05 -125.05 -1.05 -117.05 -4.9 -117.05 M-1.05 -25.8 L-4.9 -25.8 -4.9 -110.75 -1.05 -110.75 -1.05 -25.8" fill="#ffffff" fill-opacity="0.0" fill-rule="evenodd" stroke="none"/>
    <path d="M4.25 -125.05 L4.25 -117.05 -1.05 -117.05 -1.05 -125.05 4.25 -125.05 M4.25 -19.45 L4.25 113.5 -1.05 113.5 -1.05 -19.45 4.25 -19.45 M4.25 -25.8 L-1.05 -25.8 -1.05 -110.75 4.25 -110.75 4.25 -25.8" fill="#000000" fill-opacity="0.4" fill-rule="evenodd" stroke="none"/>
    <path d="M4.25 -117.05 L27.55 -117.05 Q31.55 -117.05 34.4 -114.2 37.25 -111.4 37.25 -107.4 L37.25 -29.05 Q37.25 -25.1 34.4 -22.25 31.55 -19.45 27.55 -19.45 L4.25 -19.45 -1.05 -19.45 -4.9 -19.45 -27.55 -19.45 Q-31.55 -19.45 -34.35 -22.25 -37.2 -25.1 -37.2 -29.05 L-37.2 -107.4 Q-37.2 -111.4 -34.35 -114.2 -31.55 -117.05 -27.55 -117.05 L-4.9 -117.05 -1.05 -117.05 4.25 -117.05 M4.25 -25.8 L23.95 -25.8 Q27.5 -25.8 29.95 -28.25 32.45 -30.7 32.45 -34.2 L32.45 -102.35 Q32.45 -105.8 29.95 -108.25 27.5 -110.75 23.95 -110.75 L4.25 -110.75 -1.05 -110.75 -4.9 -110.75 -23.95 -110.75 Q-27.45 -110.75 -29.85 -108.25 -32.4 -105.8 -32.4 -102.35 L-32.4 -34.2 Q-32.4 -30.7 -29.85 -28.25 -27.45 -25.8 -23.95 -25.8 L-4.9 -25.8 -1.05 -25.8 4.25 -25.8 M32.0 -111.55 Q34.05 -109.1 34.05 -105.75 L34.05 -31.45 Q34.05 -27.65 31.35 -24.95 28.65 -22.25 24.85 -22.25 L-27.45 -22.25 Q-30.75 -22.25 -33.2 -24.3 -30.45 -20.85 -26.1 -20.85 L26.2 -20.85 Q30.0 -20.85 32.7 -23.55 35.4 -26.25 35.4 -30.05 L35.4 -104.4 Q35.4 -108.85 32.0 -111.55" fill="#000000" fill-opacity="0.4509804" fill-rule="evenodd" stroke="none"/>
    <path d="M32.0 -111.55 Q35.4 -108.85 35.4 -104.4 L35.4 -30.05 Q35.4 -26.25 32.7 -23.55 30.0 -20.85 26.2 -20.85 L-26.1 -20.85 Q-30.45 -20.85 -33.2 -24.3 -30.75 -22.25 -27.45 -22.25 L24.85 -22.25 Q28.65 -22.25 31.35 -24.95 34.05 -27.65 34.05 -31.45 L34.05 -105.75 Q34.05 -109.1 32.0 -111.55" fill="#ffffff" fill-opacity="0.34901962" fill-rule="evenodd" stroke="none"/>
    <path d="M-4.9 -125.05 L-7.35 -125.05 Q-8.65 -125.05 -9.6 -125.95 -10.5 -126.95 -10.5 -128.2 -10.5 -129.5 -9.6 -130.45 -8.65 -131.35 -7.35 -131.35 L6.65 -131.35 Q7.9 -131.35 8.9 -130.45 9.8 -129.5 9.8 -128.2 9.8 -126.95 8.9 -125.95 7.9 -125.05 6.65 -125.05 L4.25 -125.05 4.25 -117.05 M4.25 -19.45 L4.25 113.5 18.9 113.5 18.9 120.5 32.6 120.5 32.6 131.4 -32.65 131.4 -32.65 120.5 -18.85 120.5 -18.85 113.5 -4.9 113.5 -4.9 -19.45 M-4.9 -117.05 L-4.9 -125.05 -1.05 -125.05 4.25 -125.05 M4.25 -110.75 L4.25 -25.8 M-4.9 -25.8 L-4.9 -110.75 M-4.9 113.5 L-1.05 113.5 4.25 113.5 M-18.85 120.5 L18.9 120.5" fill="none" stroke="#000000" stroke-linecap="round" stroke-linejoin="miter-clip" stroke-miterlimit="4.0" stroke-width="1.0"/>
  </g>
</svg>
