<?xml version="1.0" encoding="UTF-8" standalone="no"?>
<svg xmlns:xlink="http://www.w3.org/1999/xlink" height="347.15px" width="343.45px" xmlns="http://www.w3.org/2000/svg">
  <g transform="matrix(1.0, 0.0, 0.0, 1.0, 171.1, 182.85)">
    <path d="M170.75 50.35 Q174.85 75.45 163.4 97.2 152.3 118.25 128.05 133.65 103.85 149.05 69.9 156.8 35.05 164.75 -5.75 163.7 -92.05 161.45 -132.0 138.95 -175.4 114.55 -170.0 63.5 -165.75 23.3 -150.5 -42.15 -142.9 -74.9 -136.15 -99.6 -129.25 -127.25 -122.0 -143.9 -116.15 -157.3 -111.3 -161.25 -106.3 -165.3 -79.75 -171.55 -48.7 -178.9 -13.4 -182.35 L34.3 -180.05 Q118.15 -167.2 124.4 -161.1 130.65 -155.05 132.35 -151.1 L147.5 -74.95 Q164.05 9.4 170.75 50.35 M110.45 -151.25 Q10.6 -168.85 -13.15 -166.25 -76.95 -160.75 -90.55 -154.65 -104.15 -148.6 -109.05 -140.0 L-122.9 -83.65 Q-152.15 68.2 -2.65 75.65 120.0 76.15 130.25 27.2 140.45 -21.8 138.45 -46.55 136.4 -71.3 128.75 -108.4 121.4 -143.15 117.7 -147.75 116.55 -149.2 110.45 -151.25" fill="#000000" fill-opacity="0.101960786" fill-rule="evenodd" stroke="none"/>
    <path d="M110.45 -151.25 Q116.55 -149.2 117.7 -147.75 121.4 -143.15 128.75 -108.4 136.4 -71.3 138.45 -46.55 140.45 -21.8 130.25 27.2 120.0 76.15 -2.65 75.65 -152.15 68.2 -122.9 -83.65 L-109.05 -140.0 Q-104.15 -148.6 -90.55 -154.65 -76.95 -160.75 -13.15 -166.25 10.6 -168.85 110.45 -151.25" fill="#000000" fill-opacity="0.8" fill-rule="evenodd" stroke="none"/>
    <path d="M170.75 50.35 Q164.05 9.4 147.5 -74.95 L132.35 -151.1 Q130.65 -155.05 124.4 -161.1 118.15 -167.2 34.3 -180.05 L-13.4 -182.35 Q-48.7 -178.9 -79.75 -171.55 -106.3 -165.3 -111.3 -161.25 -116.15 -157.3 -122.0 -143.9 -129.25 -127.25 -136.15 -99.6 -142.9 -74.9 -150.5 -42.15 -165.75 23.3 -170.0 63.5 -175.4 114.55 -132.0 138.95 -92.05 161.45 -5.75 163.7 35.05 164.75 69.9 156.8 103.85 149.05 128.05 133.65 152.3 118.25 163.4 97.2 174.85 75.45 170.75 50.35 M110.45 -151.25 Q116.55 -149.2 117.7 -147.75 121.4 -143.15 128.75 -108.4 136.4 -71.3 138.45 -46.55 140.45 -21.8 130.25 27.2 120.0 76.15 -2.65 75.65 -152.15 68.2 -122.9 -83.65 L-109.05 -140.0 Q-104.15 -148.6 -90.55 -154.65 -76.95 -160.75 -13.15 -166.25 10.6 -168.85 110.45 -151.25" fill="none" stroke="#000000" stroke-linecap="round" stroke-linejoin="miter-clip" stroke-miterlimit="4.0" stroke-width="1.0"/>
  </g>
</svg>
