<?xml version="1.0" encoding="UTF-8" standalone="no"?>
<svg xmlns:xlink="http://www.w3.org/1999/xlink" height="288.05px" width="1046.65px" xmlns="http://www.w3.org/2000/svg">
  <g transform="matrix(1.0, 0.0, 0.0, 1.0, 651.65, -81.45)">
    <path d="M236.2 355.3 Q241.45 351.0 255.5 351.2 272.15 351.4 276.6 349.85 271.75 347.7 255.3 346.95 240.85 346.35 235.8 342.5 245.25 341.7 277.35 342.1 306.35 340.75 314.25 330.9 309.45 328.95 299.0 329.35 288.35 329.75 283.55 327.6 287.4 325.85 312.75 321.6 333.0 318.15 340.0 310.2 331.1 305.6 311.35 306.15 L281.2 307.3 248.95 305.4 Q230.4 303.45 217.85 298.05 221.9 294.75 231.75 295.55 L247.2 297.05 Q255.7 297.45 267.9 296.9 L288.35 295.7 319.7 294.95 Q341.9 293.0 345.2 285.65 338.05 284.3 322.8 284.1 307.7 284.1 300.15 282.6 303.45 278.5 320.25 275.8 335.15 273.3 336.1 266.35 317.95 261.9 290.9 259.0 L245.1 254.55 Q226.55 252.6 214.95 248.75 202.55 244.5 188.45 235.25 204.7 236.0 226.15 234.65 L263.85 231.35 305.2 227.9 Q329.75 225.2 345.2 218.4 365.7 209.7 345.95 204.1 329.95 199.65 313.5 200.45 299.95 201.0 267.1 204.7 237.75 207.8 220.75 208.15 230.95 203.15 249.15 200.45 L278.5 196.75 311.0 194.85 Q331.65 193.65 342.5 189.8 329.15 172.05 294.35 176.3 255.5 184.8 241.4 184.95 253.4 177.05 275.8 173.2 304.05 168.15 311.75 165.25 301.15 158.1 283.35 158.5 271.55 158.9 253.6 162.75 235.6 166.6 222.1 172.4 L214.35 175.3 Q245.1 149.8 284.7 149.8 330.1 149.8 362.0 181.9 394.1 213.95 394.1 259.4 394.1 304.8 362.0 336.7 330.1 368.8 284.7 368.8 259.75 368.8 237.35 358.15 L236.0 355.45 236.2 355.3 M266.9 323.35 Q274.85 329.75 256.3 331.85 L233.3 335.35 Q219.7 337.5 210.5 337.25 L207.6 337.1 Q195.6 325.1 188.45 311.55 189.2 311.05 190.05 310.6 199.5 305.5 217.45 308.65 228.05 310.6 246.05 315.45 259.75 317.75 266.9 323.35 M207.8 327.8 Q217.45 330.9 219.95 330.9 235.2 331.3 245.85 328.95 235.4 323.95 223.8 322.0 209.9 319.5 201.2 322.95 197.35 324.5 207.8 327.8" fill="#000000" fill-opacity="0.3019608" fill-rule="evenodd" stroke="none"/>
    <path d="M236.0 355.45 L237.35 358.15 Q259.75 368.8 284.7 368.8 330.1 368.8 362.0 336.7 394.1 304.8 394.1 259.4 394.1 213.95 362.0 181.9 330.1 149.8 284.7 149.8 245.1 149.8 214.35 175.3 L222.1 172.4 Q235.6 166.6 253.6 162.75 271.55 158.9 283.35 158.5 301.15 158.1 311.75 165.25 304.05 168.15 275.8 173.2 253.4 177.05 241.4 184.95 255.5 184.8 294.35 176.3 329.15 172.05 342.5 189.8 331.65 193.65 311.0 194.85 L278.5 196.75 249.15 200.45 Q230.95 203.15 220.75 208.15 237.75 207.8 267.1 204.7 299.95 201.0 313.5 200.45 329.95 199.65 345.95 204.1 365.7 209.7 345.2 218.4 329.75 225.2 305.2 227.9 L263.85 231.35 226.15 234.65 Q204.7 236.0 188.45 235.25 202.55 244.5 214.95 248.75 226.55 252.6 245.1 254.55 L290.9 259.0 Q317.95 261.9 336.1 266.35 335.15 273.3 320.25 275.8 303.45 278.5 300.15 282.6 307.7 284.1 322.8 284.1 338.05 284.3 345.2 285.65 341.9 293.0 319.7 294.95 L288.35 295.7 267.9 296.9 Q255.7 297.45 247.2 297.05 L231.75 295.55 Q221.9 294.75 217.85 298.05 230.4 303.45 248.95 305.4 L281.2 307.3 311.35 306.15 Q331.1 305.6 340.0 310.2 333.0 318.15 312.75 321.6 287.4 325.85 283.55 327.6 288.35 329.75 299.0 329.35 309.45 328.95 314.25 330.9 306.35 340.75 277.35 342.1 245.25 341.7 235.8 342.5 240.85 346.35 255.3 346.95 271.75 347.7 276.6 349.85 272.15 351.4 255.5 351.2 241.45 351.0 236.2 355.3 L236.0 355.45 M206.55 181.05 Q238.8 148.8 284.4 148.8 330.0 148.8 362.25 181.05 394.5 213.3 394.5 258.9 394.5 304.5 362.25 336.75 330.0 369.0 284.4 369.0 238.8 369.0 206.55 336.75 174.3 304.5 174.3 258.9 174.3 213.3 206.55 181.05 M266.9 323.35 Q259.75 317.75 246.05 315.45 228.05 310.6 217.45 308.65 199.5 305.5 190.05 310.6 189.2 311.05 188.45 311.55 195.6 325.1 207.6 337.1 L210.5 337.25 Q219.7 337.5 233.3 335.35 L256.3 331.85 Q274.85 329.75 266.9 323.35 M-625.25 164.2 L-625.65 164.05 Q-632.75 160.95 -638.7 155.0 -651.15 142.55 -651.15 124.9 -651.15 107.25 -638.7 94.75 -633.8 89.9 -628.15 86.95 L-627.55 86.65 -619.25 88.75 Q-614.0 89.9 -614.4 90.45 -616.5 93.95 -623.1 96.65 L-633.55 101.1 Q-608.8 100.9 -606.65 101.3 -600.1 102.6 -596.95 106.9 -598.25 108.95 -600.1 109.8 -602.2 110.75 -609.55 110.95 L-626.95 110.0 Q-616.5 113.45 -610.7 113.65 L-602.2 113.1 Q-597.2 113.1 -594.7 115.8 -600.3 121.6 -618.05 121.4 -631.8 121.2 -643.4 118.3 -637.0 125.45 -618.45 125.65 -608.2 125.65 -590.25 124.85 -591.8 126.8 -595.05 127.55 L-600.85 128.35 -593.35 129.1 Q-591.55 129.4 -590.35 130.1 L-592.15 134.35 -595.15 140.1 -600.5 142.65 Q-607.65 146.5 -618.85 147.5 L-638.35 149.4 Q-630.65 152.7 -618.45 151.35 L-600.8 149.45 -602.05 151.35 -602.2 151.95 -605.9 153.45 Q-611.7 155.6 -613.25 156.95 -608.8 158.7 -603.0 156.7 L-604.9 159.1 Q-607.25 161.6 -615.55 162.95 L-625.15 164.25 -625.25 164.2 M-645.3 131.25 L-646.1 132.4 -619.25 137.45 Q-603.75 139.0 -592.35 133.0 L-619.8 132.0 -645.3 131.25" fill="#ffffff" fill-opacity="0.0" fill-rule="evenodd" stroke="none"/>
    <path d="M207.8 327.8 Q197.35 324.5 201.2 322.95 209.9 319.5 223.8 322.0 235.4 323.95 245.85 328.95 235.2 331.3 219.95 330.9 217.45 330.9 207.8 327.8" fill="#000000" fill-opacity="0.4509804" fill-rule="evenodd" stroke="none"/>
    <path d="M-627.55 86.65 Q-622.3 84.25 -616.35 83.5 L-615.15 84.3 Q-613.25 85.45 -607.65 86.4 -602.05 87.35 -599.5 88.75 -592.55 92.8 -586.75 100.3 -583.45 104.75 -580.55 114.6 L-578.45 123.7 Q-577.3 129.5 -578.05 132.8 -578.45 134.35 -580.0 136.45 L-582.3 139.95 Q-583.45 142.45 -585.4 148.45 -588.3 154.65 -593.9 159.25 -598.15 162.95 -608.8 163.9 -616.75 164.65 -620.65 165.65 L-625.15 164.25 -615.55 162.95 Q-607.25 161.6 -604.9 159.1 L-603.0 156.7 Q-608.8 158.7 -613.25 156.95 -611.7 155.6 -605.9 153.45 L-602.2 151.95 -602.05 151.35 -600.8 149.45 -618.45 151.35 Q-630.65 152.7 -638.35 149.4 L-618.85 147.5 Q-607.65 146.5 -600.5 142.65 L-595.15 140.1 -592.15 134.35 -590.35 130.1 Q-591.55 129.4 -593.35 129.1 L-600.85 128.35 -595.05 127.55 Q-591.8 126.8 -590.25 124.85 -608.2 125.65 -618.45 125.65 -637.0 125.45 -643.4 118.3 -631.8 121.2 -618.05 121.4 -600.3 121.6 -594.7 115.8 -597.2 113.1 -602.2 113.1 L-610.7 113.65 Q-616.5 113.45 -626.95 110.0 L-609.55 110.95 Q-602.2 110.75 -600.1 109.8 -598.25 108.95 -596.95 106.9 -600.1 102.6 -606.65 101.3 -608.8 100.9 -633.55 101.1 L-623.1 96.65 Q-616.5 93.95 -614.4 90.45 -614.0 89.9 -619.25 88.75 L-627.55 86.65 M-645.3 131.25 L-619.8 132.0 -592.35 133.0 Q-603.75 139.0 -619.25 137.45 L-646.1 132.4 -645.3 131.25" fill="#000000" fill-opacity="0.14901961" fill-rule="evenodd" stroke="none"/>
    <path d="M-616.9 83.05 L-608.55 82.3 -605.15 82.45 Q-589.7 83.5 -578.45 94.75 -565.95 107.25 -565.95 124.9 -565.95 142.25 -578.05 154.6 L-578.45 155.0 Q-590.9 167.5 -608.55 167.5 -615.15 167.5 -621.05 165.75 L-620.65 165.65 Q-616.75 164.65 -608.8 163.9 -598.15 162.95 -593.9 159.25 -588.3 154.65 -585.4 148.45 -583.45 142.45 -582.3 139.95 L-580.0 136.45 Q-578.45 134.35 -578.05 132.8 -577.3 129.5 -578.45 123.7 L-580.55 114.6 Q-583.45 104.75 -586.75 100.3 -592.55 92.8 -599.5 88.75 -602.05 87.35 -607.65 86.4 -613.25 85.45 -615.15 84.3 L-616.35 83.5 -616.9 83.05" fill="#000000" fill-opacity="0.34901962" fill-rule="evenodd" stroke="none"/>
    <path d="M236.2 355.3 L236.0 355.45 M206.55 181.05 Q238.8 148.8 284.4 148.8 330.0 148.8 362.25 181.05 394.5 213.3 394.5 258.9 394.5 304.5 362.25 336.75 330.0 369.0 284.4 369.0 238.8 369.0 206.55 336.75 174.3 304.5 174.3 258.9 174.3 213.3 206.55 181.05 M-625.25 164.2 L-625.65 164.05 Q-632.75 160.95 -638.7 155.0 -651.15 142.55 -651.15 124.9 -651.15 107.25 -638.7 94.75 -633.8 89.9 -628.15 86.95 -622.85 84.15 -616.9 83.05 L-608.55 82.3 -605.15 82.45 Q-589.7 83.5 -578.45 94.75 -565.95 107.25 -565.95 124.9 -565.95 142.25 -578.05 154.6 L-578.45 155.0 Q-590.9 167.5 -608.55 167.5 -615.15 167.5 -621.05 165.75 L-625.15 164.25" fill="none" stroke="#000000" stroke-linecap="round" stroke-linejoin="miter-clip" stroke-miterlimit="10.0" stroke-width="1.0"/>
  </g>
</svg>
