<?xml version="1.0" encoding="UTF-8" standalone="no"?>
<svg xmlns:xlink="http://www.w3.org/1999/xlink" height="79.05px" width="125.9px" xmlns="http://www.w3.org/2000/svg">
  <g transform="matrix(1.0, 0.0, 0.0, 1.0, 62.95, 39.5)">
    <path d="M-49.2 5.1 L-49.2 8.5 48.95 8.5 48.95 5.1 -49.2 5.1 48.95 5.1 48.95 8.5 -49.2 8.5 -49.2 5.1 M21.15 -8.45 L21.15 -11.85 -49.2 -11.85 -49.2 -8.45 21.15 -8.45 -49.2 -8.45 -49.2 -11.85 21.15 -11.85 21.15 -8.45 M21.15 -20.35 L21.15 -23.75 -24.7 -23.75 -24.7 -20.35 21.15 -20.35 -24.7 -20.35 -24.7 -23.75 21.15 -23.75 21.15 -20.35 M54.3 33.95 L-54.3 33.95 -54.3 -33.9 54.3 -33.9 54.3 33.95 M48.95 0.05 L48.95 -3.35 -49.2 -3.35 -49.2 0.05 48.95 0.05 -49.2 0.05 -49.2 -3.35 48.95 -3.35 48.95 0.05" fill="#ffffff" fill-opacity="0.0" fill-rule="evenodd" stroke="none"/>
    <path d="M21.15 -20.35 L-24.7 -20.35 -24.7 -23.75 21.15 -23.75 21.15 -20.35 M21.15 -8.45 L-49.2 -8.45 -49.2 -11.85 21.15 -11.85 21.15 -8.45 M-49.2 5.1 L48.95 5.1 48.95 8.5 -49.2 8.5 -49.2 5.1 M48.95 0.05 L-49.2 0.05 -49.2 -3.35 48.95 -3.35 48.95 0.05" fill="none" stroke="#000000" stroke-linecap="round" stroke-linejoin="miter-clip" stroke-miterlimit="10.0" stroke-opacity="0.6" stroke-width="0.9500000000000001"/>
    <path d="M54.3 33.95 L-54.3 33.95 -54.3 -33.9 54.3 -33.9 54.3 33.95" fill="none" stroke="#000000" stroke-linecap="round" stroke-linejoin="miter-clip" stroke-miterlimit="10.0" stroke-opacity="0.6" stroke-width="1.0"/>
    <path d="M62.45 39.05 L-62.45 39.05 -62.45 -39.0 62.45 -39.0 62.45 39.05" fill="none" stroke="#000000" stroke-linecap="round" stroke-linejoin="miter-clip" stroke-miterlimit="10.0" stroke-width="1.0"/>
  </g>
</svg>
