<?xml version="1.0" encoding="UTF-8" standalone="no"?>
<svg xmlns:xlink="http://www.w3.org/1999/xlink" height="63.9px" width="236.35px" xmlns="http://www.w3.org/2000/svg">
  <g transform="matrix(1.0, 0.0, 0.0, 1.0, 143.7, 100.25)">
    <path d="M91.2 -74.45 L61.55 -77.55 54.8 -77.75 42.15 -76.9 23.0 -73.9 22.05 -73.7 20.55 -73.35 20.5 -73.3 20.15 -73.2 20.35 -73.15 23.1 -72.6 61.7 -67.35 70.25 -66.8 81.0 -67.6 89.65 -69.15 88.6 -65.9 Q86.7 -60.25 84.45 -54.75 L83.65 -52.9 81.8 -48.8 80.55 -46.2 80.25 -45.5 78.25 -41.6 77.3 -39.8 75.75 -36.95 16.5 -52.75 17.15 -54.65 45.0 -57.45 45.1 -57.45 Q47.1 -57.6 48.25 -58.95 49.5 -60.15 49.25 -61.8 48.95 -63.35 47.4 -64.35 46.2 -65.05 44.75 -65.1 L43.95 -65.1 15.65 -62.3 15.55 -62.5 14.0 -64.3 13.9 -64.4 13.85 -64.4 12.75 -65.05 13.85 -73.7 14.2 -74.0 14.8 -74.35 16.1 -74.65 39.95 -78.1 16.1 -74.65 14.8 -74.35 14.2 -74.0 13.85 -73.7 12.75 -65.05 7.75 -64.7 7.55 -64.7 6.0 -64.6 3.6 -64.45 -2.25 -64.05 -6.1 -63.75 -7.65 -63.65 -9.3 -63.5 Q-11.2 -63.25 -12.75 -61.8 L-13.0 -61.55 -13.65 -60.8 -35.15 -66.55 -32.9 -66.8 -32.8 -66.8 -13.4 -68.75 -13.25 -68.75 Q-11.8 -68.95 -10.85 -69.9 -9.9 -70.9 -10.05 -72.15 -10.3 -73.35 -11.55 -74.15 -12.4 -74.65 -13.4 -74.75 L-14.25 -74.75 -36.35 -72.55 Q-36.95 -73.6 -37.7 -74.2 L-38.05 -74.35 -38.65 -74.7 -39.6 -74.65 -43.6 -74.35 -45.15 -74.25 -47.6 -74.1 -55.65 -73.45 -55.85 -73.45 -56.6 -73.25 Q-57.25 -73.05 -57.85 -72.65 L-58.15 -72.7 -76.45 -77.6 -68.55 -78.4 -68.35 -78.4 Q-67.15 -78.5 -66.45 -79.3 -65.6 -80.25 -65.75 -81.25 -65.9 -82.35 -67.0 -83.05 -67.7 -83.45 -68.5 -83.55 L-69.3 -83.55 -84.5 -82.05 -84.55 -82.05 -88.35 -81.65 -87.95 -88.65 -87.9 -88.95 -87.55 -89.25 -86.95 -89.6 -85.65 -89.9 -72.45 -92.45 -70.7 -92.75 -67.15 -93.2 -61.95 -93.4 -57.35 -93.15 -26.35 -90.05 -23.75 -89.5 -22.5 -89.2 -22.65 -84.3 -15.85 -85.35 -5.75 -86.05 -0.35 -85.8 35.75 -82.2 Q38.05 -81.95 38.75 -81.55 L40.05 -81.15 39.95 -78.1 41.9 -78.45 54.8 -79.3 61.7 -79.1 91.6 -75.9 91.2 -74.45 M37.05 -80.5 L35.6 -80.65 -0.5 -84.25 -5.75 -84.5 -15.55 -83.85 -32.3 -81.1 -30.55 -80.8 -0.35 -76.6 6.3 -76.25 14.75 -76.85 37.05 -80.5 M-123.5 -90.2 L-134.3 -93.05 -125.85 -92.85 -125.6 -96.15 -124.9 -96.75 -124.3 -97.1 -123.0 -97.4 -122.5 -97.45 -111.95 -99.15 -104.85 -99.65 -75.55 -96.95 -73.4 -96.45 -72.3 -96.15 -72.45 -92.45 -85.65 -89.9 -86.95 -89.6 -87.55 -89.25 -87.9 -88.95 -87.95 -88.65 -88.35 -81.65 -89.55 -83.1 -90.3 -83.5 -91.1 -83.45 -94.75 -83.2 -96.85 -83.05 -111.75 -87.05 -110.15 -87.2 -109.9 -87.2 Q-109.0 -87.35 -108.45 -88.05 -107.75 -88.75 -107.9 -89.6 -108.0 -90.45 -108.95 -91.0 L-110.0 -91.4 -110.85 -91.45 -123.5 -90.2 M-100.95 -93.0 L-96.35 -92.75 -90.45 -93.15 -76.0 -95.4 -104.85 -98.1 -111.7 -97.6 -122.3 -96.0 -122.45 -95.9 -122.3 -95.9 -100.95 -93.0 M-22.65 -84.3 L-34.9 -81.9 -36.2 -81.6 -36.8 -81.25 -37.15 -80.95 -37.2 -80.65 -37.7 -74.2 -37.2 -80.65 -37.15 -80.95 -36.8 -81.25 -36.2 -81.6 -34.9 -81.9 -22.65 -84.3 M-57.35 -85.25 L-51.6 -84.95 -44.45 -85.4 -26.05 -88.45 -57.5 -91.6 -61.95 -91.85 -67.15 -91.65 -70.45 -91.3 -84.3 -88.95 -57.35 -85.25" fill="#ffffff" fill-opacity="0.0" fill-rule="evenodd" stroke="none"/>
    <path d="M89.65 -69.15 L81.0 -67.6 70.25 -66.8 61.7 -67.35 23.1 -72.6 20.35 -73.15 20.15 -73.2 20.5 -73.3 20.55 -73.35 22.05 -73.7 23.0 -73.9 42.15 -76.9 54.8 -77.75 61.55 -77.55 91.2 -74.45 90.9 -73.35 90.45 -71.8 89.65 -69.15 M37.05 -80.5 L14.75 -76.85 6.3 -76.25 -0.35 -76.6 -30.55 -80.8 -32.3 -81.1 -15.55 -83.85 -5.75 -84.5 -0.5 -84.25 35.6 -80.65 37.05 -80.5 M-100.95 -93.0 L-122.3 -95.9 -122.45 -95.9 -122.3 -96.0 -111.7 -97.6 -104.85 -98.1 -76.0 -95.4 -90.45 -93.15 -96.35 -92.75 -100.95 -93.0 M-57.35 -85.25 L-84.3 -88.95 -70.45 -91.3 -67.15 -91.65 -61.95 -91.85 -57.5 -91.6 -26.05 -88.45 -44.45 -85.4 -51.6 -84.95 -57.35 -85.25" fill="#000000" fill-opacity="0.34901962" fill-rule="evenodd" stroke="none"/>
    <path d="M15.65 -62.3 L43.95 -65.1 44.75 -65.1 Q46.2 -65.05 47.4 -64.35 48.95 -63.35 49.25 -61.8 49.5 -60.15 48.25 -58.95 47.1 -57.6 45.1 -57.45 L45.0 -57.45 17.15 -54.65 17.3 -56.1 17.25 -57.65 Q17.0 -59.35 16.2 -61.15 L15.65 -62.3 M16.2 -61.15 L17.35 -59.45 46.15 -63.35 44.4 -63.85 16.2 -61.15 M-87.3 -76.55 Q-86.9 -78.55 -88.0 -80.85 L-88.35 -81.65 -84.55 -82.05 -84.5 -82.05 -69.3 -83.55 -68.5 -83.55 Q-67.7 -83.45 -67.0 -83.05 -65.9 -82.35 -65.75 -81.25 -65.6 -80.25 -66.45 -79.3 -67.15 -78.5 -68.35 -78.4 L-68.55 -78.4 -76.45 -77.6 -87.3 -76.55 M-126.1 -89.3 L-125.45 -88.35 -109.55 -90.45 -110.55 -90.75 -126.1 -89.3 -126.4 -89.9 -123.5 -90.2 -110.85 -91.45 -110.0 -91.4 -108.95 -91.0 Q-108.0 -90.45 -107.9 -89.6 -107.75 -88.75 -108.45 -88.05 -109.0 -87.35 -109.9 -87.2 L-110.15 -87.2 -111.75 -87.05 -125.6 -85.65 -125.55 -85.95 Q-125.3 -87.5 -126.1 -89.3 M-88.0 -80.85 L-87.2 -79.8 -67.85 -82.35 -69.0 -82.7 -88.0 -80.85 M-36.35 -72.55 L-14.25 -74.75 -13.4 -74.75 Q-12.4 -74.65 -11.55 -74.15 -10.3 -73.35 -10.05 -72.15 -9.9 -70.9 -10.85 -69.9 -11.8 -68.95 -13.25 -68.75 L-13.4 -68.75 -32.8 -66.8 -32.9 -66.8 -35.15 -66.55 -35.25 -66.55 Q-35.1 -67.35 -35.1 -68.25 -35.15 -69.85 -35.95 -71.65 L-36.35 -72.55 M-35.95 -71.65 L-35.0 -70.35 -12.45 -73.35 -13.9 -73.75 -35.95 -71.65" fill="#000000" fill-opacity="0.2" fill-rule="evenodd" stroke="none"/>
    <path d="M16.2 -61.15 L44.4 -63.85 46.15 -63.35 17.35 -59.45 16.2 -61.15 M-88.0 -80.85 L-69.0 -82.7 -67.85 -82.35 -87.2 -79.8 -88.0 -80.85 M-126.1 -89.3 L-110.55 -90.75 -109.55 -90.45 -125.45 -88.35 -126.1 -89.3 M-35.95 -71.65 L-13.9 -73.75 -12.45 -73.35 -35.0 -70.35 -35.95 -71.65" fill="#ffffff" fill-opacity="0.4" fill-rule="evenodd" stroke="none"/>
    <path d="M12.75 -65.05 L13.85 -64.4 13.9 -64.4 14.0 -64.3 15.55 -62.5 15.65 -62.3 16.2 -61.15 Q17.0 -59.35 17.25 -57.65 L17.3 -56.1 17.15 -54.65 16.5 -52.75 16.2 -52.2 16.45 -52.75 Q17.15 -54.35 17.2 -56.05 L17.2 -56.85 12.4 -56.5 7.7 -56.2 6.15 -56.1 4.35 -56.0 3.9 -56.0 -8.5 -55.35 Q-11.15 -55.35 -12.85 -57.85 L-13.9 -60.4 -13.65 -60.8 -13.0 -61.55 -12.75 -61.8 Q-11.2 -63.25 -9.3 -63.5 L-7.65 -63.65 -6.1 -63.75 -2.25 -64.05 3.6 -64.45 6.0 -64.6 7.55 -64.7 7.75 -64.7 12.75 -65.05 M-96.85 -83.05 L-94.75 -83.2 -91.1 -83.45 -90.3 -83.5 -89.55 -83.1 -88.35 -81.65 -88.0 -80.85 Q-86.9 -78.55 -87.3 -76.55 -87.6 -75.3 -88.45 -74.15 -87.65 -75.3 -87.4 -76.55 L-87.3 -78.0 -103.45 -77.0 -104.6 -77.0 Q-106.4 -77.0 -107.45 -78.7 L-108.25 -80.4 -107.45 -81.35 Q-106.4 -82.25 -105.15 -82.4 L-96.85 -83.05 M-57.85 -72.65 Q-57.25 -73.05 -56.6 -73.25 L-55.85 -73.45 -55.65 -73.45 -47.6 -74.1 -45.15 -74.25 -43.6 -74.35 -39.6 -74.65 -38.65 -74.7 -38.05 -74.35 -37.7 -74.2 Q-36.95 -73.6 -36.35 -72.55 L-35.95 -71.65 Q-35.15 -69.85 -35.1 -68.25 L-54.0 -67.15 -55.25 -67.1 Q-57.35 -67.1 -58.65 -69.05 L-59.5 -71.05 -58.55 -72.15 -57.85 -72.65 M-126.1 -89.3 Q-125.3 -87.5 -125.55 -85.95 L-125.55 -86.9 -138.75 -86.05 -139.65 -86.05 Q-141.15 -86.05 -142.05 -87.45 L-142.7 -88.8 -142.05 -89.6 Q-141.2 -90.45 -140.15 -90.5 L-128.0 -91.35 -127.4 -91.05 -126.4 -89.9 -126.1 -89.3" fill="#000000" fill-opacity="0.4" fill-rule="evenodd" stroke="none"/>
    <path d="M-13.9 -60.4 L-12.85 -57.85 Q-11.15 -55.35 -8.5 -55.35 L3.9 -56.0 4.35 -56.0 6.15 -56.1 7.7 -56.2 12.4 -56.5 17.2 -56.85 17.2 -56.05 Q17.15 -54.35 16.45 -52.75 L16.2 -52.2 15.7 -51.45 15.45 -51.1 Q-8.5 -48.05 -10.45 -49.6 -16.8 -54.7 -13.9 -60.4 M-108.25 -80.4 L-107.45 -78.7 Q-106.4 -77.0 -104.6 -77.0 L-103.45 -77.0 -87.3 -78.0 -87.4 -76.55 Q-87.65 -75.3 -88.45 -74.15 -104.6 -72.05 -105.9 -73.05 -110.0 -76.7 -108.25 -80.4 M-125.55 -85.95 L-125.6 -85.65 -126.55 -83.7 Q-139.65 -82.0 -140.75 -82.85 -144.3 -85.65 -142.7 -88.8 L-142.05 -87.45 Q-141.15 -86.05 -139.65 -86.05 L-138.75 -86.05 -125.55 -86.9 -125.55 -85.95 M-35.1 -68.25 Q-35.1 -67.35 -35.25 -66.55 L-35.3 -66.3 -36.0 -64.6 -36.55 -63.8 Q-55.25 -61.4 -56.7 -62.55 -61.75 -66.55 -59.5 -71.05 L-58.65 -69.05 Q-57.35 -67.1 -55.25 -67.1 L-54.0 -67.15 -35.1 -68.25" fill="#000000" fill-opacity="0.54901963" fill-rule="evenodd" stroke="none"/>
    <path d="M89.65 -69.15 L81.0 -67.6 70.25 -66.8 61.7 -67.35 23.1 -72.6 20.35 -73.15 20.15 -73.2 20.5 -73.3 20.55 -73.35 22.05 -73.7 23.0 -73.9 42.15 -76.9 54.8 -77.75 61.55 -77.55 91.2 -74.45 M37.05 -80.5 L14.75 -76.85 6.3 -76.25 -0.35 -76.6 -30.55 -80.8 -32.3 -81.1 -15.55 -83.85 -5.75 -84.5 -0.5 -84.25 35.6 -80.65 37.05 -80.5 M-100.95 -93.0 L-122.3 -95.9 -122.45 -95.9 -122.3 -96.0 -111.7 -97.6 -104.85 -98.1 -76.0 -95.4 -90.45 -93.15 -96.35 -92.75 -100.95 -93.0 M-57.35 -85.25 L-84.3 -88.95 -70.45 -91.3 -67.15 -91.65 -61.95 -91.85 -57.5 -91.6 -26.05 -88.45 -44.45 -85.4 -51.6 -84.95 -57.35 -85.25" fill="none" stroke="#000000" stroke-linecap="round" stroke-linejoin="miter-clip" stroke-miterlimit="10.0" stroke-opacity="0.6" stroke-width="1.0"/>
    <path d="M91.2 -74.45 L91.6 -75.9 61.7 -79.1 54.8 -79.3 41.9 -78.45 39.95 -78.1 16.1 -74.65 14.8 -74.35 14.2 -74.0 13.85 -73.7 12.75 -65.05 13.85 -64.4 13.9 -64.4 14.0 -64.3 15.55 -62.5 15.65 -62.3 43.95 -65.1 44.75 -65.1 Q46.2 -65.05 47.4 -64.35 48.95 -63.35 49.25 -61.8 49.5 -60.15 48.25 -58.95 47.1 -57.6 45.1 -57.45 L45.0 -57.45 17.15 -54.65 16.5 -52.75 75.75 -36.95 77.3 -39.8 78.25 -41.6 80.25 -45.5 80.55 -46.2 81.8 -48.8 83.65 -52.9 84.45 -54.75 Q86.7 -60.25 88.6 -65.9 L89.65 -69.15 90.45 -71.8 90.9 -73.35 91.2 -74.45 M16.2 -61.15 Q17.0 -59.35 17.25 -57.65 L17.3 -56.1 17.15 -54.65 M-123.5 -90.2 L-134.3 -93.05 -125.85 -92.85 -125.6 -96.15 -124.9 -96.75 -124.3 -97.1 -123.0 -97.4 -122.5 -97.45 -111.95 -99.15 -104.85 -99.65 -75.55 -96.95 -73.4 -96.45 -72.3 -96.15 -72.45 -92.45 -70.7 -92.75 -67.15 -93.2 -61.95 -93.4 -57.35 -93.15 -26.35 -90.05 -23.75 -89.5 -22.5 -89.2 -22.65 -84.3 -15.85 -85.35 -5.75 -86.05 -0.35 -85.8 35.75 -82.2 Q38.05 -81.95 38.75 -81.55 L40.05 -81.15 39.95 -78.1 M-13.65 -60.8 L-13.0 -61.55 -12.75 -61.8 Q-11.2 -63.25 -9.3 -63.5 L-7.65 -63.65 -6.1 -63.75 -2.25 -64.05 3.6 -64.45 6.0 -64.6 7.55 -64.7 7.75 -64.7 12.75 -65.05 M-13.9 -60.4 Q-16.8 -54.7 -10.45 -49.6 -8.5 -48.05 15.45 -51.1 L15.7 -51.45 16.2 -52.2 16.5 -52.75 M15.65 -62.3 L16.2 -61.15 M-88.35 -81.65 L-87.95 -88.65 -87.9 -88.95 -87.55 -89.25 -86.95 -89.6 -85.65 -89.9 -72.45 -92.45 M-88.35 -81.65 L-89.55 -83.1 -90.3 -83.5 -91.1 -83.45 -94.75 -83.2 -96.85 -83.05 -105.15 -82.4 Q-106.4 -82.25 -107.45 -81.35 L-108.25 -80.4 Q-110.0 -76.7 -105.9 -73.05 -104.6 -72.05 -88.45 -74.15 -87.6 -75.3 -87.3 -76.55 -86.9 -78.55 -88.0 -80.85 L-88.35 -81.65 -84.55 -82.05 -84.5 -82.05 -69.3 -83.55 -68.5 -83.55 Q-67.7 -83.45 -67.0 -83.05 -65.9 -82.35 -65.75 -81.25 -65.6 -80.25 -66.45 -79.3 -67.15 -78.5 -68.35 -78.4 L-68.55 -78.4 -76.45 -77.6 -58.15 -72.7 -57.85 -72.65 Q-57.25 -73.05 -56.6 -73.25 L-55.85 -73.45 -55.65 -73.45 -47.6 -74.1 -45.15 -74.25 -43.6 -74.35 -39.6 -74.65 -38.65 -74.7 -38.05 -74.35 -37.7 -74.2 -37.2 -80.65 -37.15 -80.95 -36.8 -81.25 -36.2 -81.6 -34.9 -81.9 -22.65 -84.3 M-126.1 -89.3 Q-125.3 -87.5 -125.55 -85.95 L-125.6 -85.65 -111.75 -87.05 -96.85 -83.05 M-110.15 -87.2 L-109.9 -87.2 Q-109.0 -87.35 -108.45 -88.05 -107.75 -88.75 -107.9 -89.6 -108.0 -90.45 -108.95 -91.0 L-110.0 -91.4 -110.85 -91.45 -123.5 -90.2 -126.4 -89.9 -126.1 -89.3 M-142.7 -88.8 L-142.05 -89.6 Q-141.2 -90.45 -140.15 -90.5 L-128.0 -91.35 -127.4 -91.05 -126.4 -89.9 M-142.7 -88.8 Q-144.3 -85.65 -140.75 -82.85 -139.65 -82.0 -126.55 -83.7 L-125.6 -85.65 M-36.35 -72.55 L-14.25 -74.75 -13.4 -74.75 Q-12.4 -74.65 -11.55 -74.15 -10.3 -73.35 -10.05 -72.15 -9.9 -70.9 -10.85 -69.9 -11.8 -68.95 -13.25 -68.75 L-13.4 -68.75 -32.8 -66.8 -32.9 -66.8 -35.15 -66.55 -13.65 -60.8 -13.9 -60.4 M-36.35 -72.55 L-35.95 -71.65 Q-35.15 -69.85 -35.1 -68.25 -35.1 -67.35 -35.25 -66.55 L-35.15 -66.55 M-37.7 -74.2 Q-36.95 -73.6 -36.35 -72.55 M-59.5 -71.05 Q-61.75 -66.55 -56.7 -62.55 -55.25 -61.4 -36.55 -63.8 L-36.0 -64.6 -35.3 -66.3 M-59.5 -71.05 L-58.55 -72.15 -57.85 -72.65 M-87.3 -76.55 L-76.45 -77.6" fill="none" stroke="#000000" stroke-linecap="round" stroke-linejoin="miter-clip" stroke-miterlimit="10.0" stroke-opacity="0.4" stroke-width="1.0"/>
  </g>
</svg>
