<?xml version="1.0" encoding="UTF-8" standalone="no"?>
<svg xmlns:xlink="http://www.w3.org/1999/xlink" height="338.75px" width="253.9px" xmlns="http://www.w3.org/2000/svg">
  <g transform="matrix(1.0, 0.0, 0.0, 1.0, 126.95, 169.35)">
    <path d="M-48.85 79.5 L-49.3 79.9 -92.0 79.9 -92.0 79.5 -48.85 79.5" fill="#a1a1a1" fill-rule="evenodd" stroke="none"/>
    <path d="M109.0 -14.65 L109.0 -15.05 109.0 -15.2 126.4 -15.2 126.45 112.75 Q126.45 114.95 124.85 116.5 123.15 118.05 120.9 118.05 118.65 118.05 117.0 116.5 115.4 114.95 115.4 112.75 L115.4 79.9 -41.4 79.9 -41.05 79.55 -40.4 79.65 -41.0 79.5 115.6 79.5 111.05 75.1 -97.35 75.1 -99.85 79.1 -101.95 79.1 -101.95 79.9 -102.15 79.9 -102.15 6.9 -101.3 8.3 -101.25 5.25 -101.05 -10.75 -102.15 -10.75 -101.05 -10.75 -101.25 5.25 Q-103.3 2.05 -108.75 0.0 -107.1 -2.4 -107.1 -5.5 -107.1 -8.45 -108.6 -10.75 L-102.15 -10.75 -102.15 -15.2 -88.3 -15.2 -88.3 -15.05 -88.3 -14.65 -101.6 -14.65 -97.15 -10.2 121.2 -10.2 125.9 -14.65 109.0 -14.65 M-121.65 -10.35 Q-119.65 -12.4 -116.8 -12.4 -113.9 -12.4 -111.9 -10.35 -109.9 -8.4 -109.9 -5.5 -109.9 -2.65 -111.9 -0.65 -113.9 1.4 -116.8 1.4 -119.65 1.4 -121.65 -0.65 -123.7 -2.65 -123.7 -5.5 -123.7 -8.4 -121.65 -10.35 M-49.3 79.9 L-48.85 79.5 -42.0 79.75 -91.8 122.3 -91.4 118.25 -92.0 118.75 -49.3 79.9 M-101.95 83.5 L-101.4 85.8 -96.6 86.9 -96.25 168.75 -92.0 168.9 -101.95 168.9 -101.95 83.5" fill="#ffffff" fill-opacity="0.0" fill-rule="evenodd" stroke="none"/>
    <path d="M105.85 -165.25 L108.1 -167.75 107.25 -16.0 105.85 -18.75 105.85 -165.25 M7.85 -164.45 L7.85 -17.95 6.5 -19.1 6.5 -162.7 7.85 -164.45 M109.0 -15.05 L109.0 -14.65 125.9 -14.65 121.2 -10.2 -97.15 -10.2 -101.6 -14.65 -88.3 -14.65 -88.3 -15.05 109.0 -15.05 M-85.0 -165.25 L-85.0 -18.75 -86.4 -16.0 -87.2 -167.75 -85.0 -165.25" fill="#ffffff" fill-opacity="0.54901963" fill-rule="evenodd" stroke="none"/>
    <path d="M105.85 -165.25 L105.85 -18.75 107.25 -16.0 108.1 -167.75 105.85 -165.25 M7.85 -164.45 L6.5 -162.7 6.5 -19.1 7.85 -17.95 7.85 -164.45 M-88.3 -15.05 L-88.3 -15.2 -88.3 -168.85 109.0 -168.85 109.0 -15.2 109.0 -15.05 -88.3 -15.05 M-101.25 5.25 L-101.3 8.3 -102.15 6.9 Q-104.45 3.6 -109.05 1.85 L-110.05 1.5 Q-112.85 4.15 -116.8 4.15 -120.75 4.15 -123.6 1.35 -126.45 -1.45 -126.45 -5.5 -126.45 -9.55 -123.6 -12.35 -120.75 -15.2 -116.8 -15.2 -112.75 -15.2 -109.95 -12.35 L-108.6 -10.75 Q-107.1 -8.45 -107.1 -5.5 -107.1 -2.4 -108.75 0.0 -103.3 2.05 -101.25 5.25 M-101.95 79.9 L-101.95 79.1 -99.85 79.1 -97.35 75.1 111.05 75.1 115.6 79.5 -41.0 79.5 -40.4 79.65 -41.05 79.55 -41.4 79.9 -92.0 127.15 -92.0 168.9 -96.25 168.75 -96.6 86.9 -101.4 85.8 -101.95 83.5 -101.95 79.9 M5.65 -19.1 L5.65 -162.7 -80.6 -162.7 -80.6 -19.1 5.65 -19.1 M10.05 -162.7 L10.05 -19.1 101.3 -19.1 101.3 -162.7 10.05 -162.7 M-85.0 -165.25 L-87.2 -167.75 -86.4 -16.0 -85.0 -18.75 -85.0 -165.25 M-121.65 -10.35 Q-123.7 -8.4 -123.7 -5.5 -123.7 -2.65 -121.65 -0.65 -119.65 1.4 -116.8 1.4 -113.9 1.4 -111.9 -0.65 -109.9 -2.65 -109.9 -5.5 -109.9 -8.4 -111.9 -10.35 -113.9 -12.4 -116.8 -12.4 -119.65 -12.4 -121.65 -10.35 M-41.0 79.5 L-41.05 79.55 -42.0 79.75 -41.05 79.55 -41.0 79.5 M-92.0 118.75 L-91.4 118.25 -91.8 122.3 -42.0 79.75 -48.85 79.5 -92.0 79.5 -92.0 79.9 -92.0 118.75 M-110.05 1.5 L-109.95 1.35 -108.75 0.0 -109.95 1.35 -110.05 1.5 M-92.0 79.5 L-92.0 79.0 -99.85 79.1 -92.0 79.0 -92.0 79.5" fill="#000000" fill-opacity="0.4509804" fill-rule="evenodd" stroke="none"/>
    <path d="M109.0 -15.05 L109.0 -14.65 M-88.3 -14.65 L-88.3 -15.05 -88.3 -15.2 -102.15 -15.2 -102.15 -10.75 -101.05 -10.75 -101.25 5.25 Q-103.3 2.05 -108.75 0.0 L-109.95 1.35 -110.05 1.5 Q-112.85 4.15 -116.8 4.15 -120.75 4.15 -123.6 1.35 -126.45 -1.45 -126.45 -5.5 -126.45 -9.55 -123.6 -12.35 -120.75 -15.2 -116.8 -15.2 -112.75 -15.2 -109.95 -12.35 L-108.6 -10.75 -102.15 -10.75 M-101.3 8.3 L-102.15 6.9 -102.15 79.9 -101.95 79.9 -101.95 79.1 -99.85 79.1 -92.0 79.0 -92.0 79.5 -92.0 79.9 -49.3 79.9 -92.0 118.75 -92.0 79.9 M-41.0 79.5 L-40.4 79.65 -41.05 79.55 -41.4 79.9 115.4 79.9 115.4 112.75 Q115.4 114.95 117.0 116.5 118.65 118.05 120.9 118.05 123.15 118.05 124.85 116.5 126.45 114.95 126.45 112.75 L126.4 -15.2 109.0 -15.2 109.0 -15.05 -88.3 -15.05 M10.05 -162.7 L101.3 -162.7 101.3 -19.1 10.05 -19.1 10.05 -162.7 M5.65 -19.1 L-80.6 -19.1 -80.6 -162.7 5.65 -162.7 5.65 -19.1 M109.0 -15.2 L109.0 -168.85 -88.3 -168.85 -88.3 -15.2 M-121.65 -10.35 Q-119.65 -12.4 -116.8 -12.4 -113.9 -12.4 -111.9 -10.35 -109.9 -8.4 -109.9 -5.5 -109.9 -2.65 -111.9 -0.65 -113.9 1.4 -116.8 1.4 -119.65 1.4 -121.65 -0.65 -123.7 -2.65 -123.7 -5.5 -123.7 -8.4 -121.65 -10.35 M-102.15 6.9 Q-104.45 3.6 -109.05 1.85 L-110.05 1.5 M-108.6 -10.75 Q-107.1 -8.45 -107.1 -5.5 -107.1 -2.4 -108.75 0.0 M-42.0 79.75 L-41.05 79.55 -41.0 79.5 M-48.85 79.5 L-49.3 79.9 M-42.0 79.75 L-48.85 79.5 M-101.95 79.9 L-101.95 83.5 -101.95 168.9 -92.0 168.9 -92.0 127.15 -41.4 79.9" fill="none" stroke="#000000" stroke-linecap="round" stroke-linejoin="miter-clip" stroke-miterlimit="4.0" stroke-width="1.0"/>
  </g>
</svg>
