<?xml version="1.0" encoding="UTF-8" standalone="no"?>
<svg xmlns:xlink="http://www.w3.org/1999/xlink" height="145.4px" width="98.2px" xmlns="http://www.w3.org/2000/svg">
  <g transform="matrix(1.0, 0.0, 0.0, 1.0, 0.5, 0.5)">
    <path d="M38.7 21.15 Q51.05 21.15 59.75 36.4 68.5 51.65 68.5 73.2 68.5 94.75 59.75 110.0 51.05 125.25 38.7 125.25 26.35 125.25 17.6 110.0 8.9 94.75 8.9 73.2 8.9 51.65 17.6 36.4 26.35 21.15 38.7 21.15" fill="#000000" fill-opacity="0.4" fill-rule="evenodd" stroke="none"/>
    <path d="M97.2 72.2 Q97.2 102.1 82.95 123.25 68.75 144.4 48.6 144.4 28.45 144.4 14.2 123.25 0.0 102.1 0.0 72.2 0.0 42.3 14.2 21.15 28.45 0.0 48.6 0.0 68.75 0.0 82.95 21.15 97.2 42.3 97.2 72.2 M38.7 21.15 Q26.35 21.15 17.6 36.4 8.9 51.65 8.9 73.2 8.9 94.75 17.6 110.0 26.35 125.25 38.7 125.25 51.05 125.25 59.75 110.0 68.5 94.75 68.5 73.2 68.5 51.65 59.75 36.4 51.05 21.15 38.7 21.15" fill="#ffffff" fill-opacity="0.0" fill-rule="evenodd" stroke="none"/>
    <path d="M97.2 72.2 Q97.2 102.1 82.95 123.25 68.75 144.4 48.6 144.4 28.45 144.4 14.2 123.25 0.0 102.1 0.0 72.2 0.0 42.3 14.2 21.15 28.45 0.0 48.6 0.0 68.75 0.0 82.95 21.15 97.2 42.3 97.2 72.2" fill="none" stroke="#000000" stroke-linecap="round" stroke-linejoin="round" stroke-width="1.0"/>
    <path d="M38.7 21.15 Q51.05 21.15 59.75 36.4 68.5 51.65 68.5 73.2 68.5 94.75 59.75 110.0 51.05 125.25 38.7 125.25 26.35 125.25 17.6 110.0 8.9 94.75 8.9 73.2 8.9 51.65 17.6 36.4 26.35 21.15 38.7 21.15" fill="none" stroke="#000000" stroke-linecap="round" stroke-linejoin="round" stroke-opacity="0.4" stroke-width="1.0"/>
  </g>
</svg>
