<?xml version="1.0" encoding="UTF-8" standalone="no"?>
<svg xmlns:xlink="http://www.w3.org/1999/xlink" height="106.15px" width="60.1px" xmlns="http://www.w3.org/2000/svg">
  <g transform="matrix(1.0, 0.0, 0.0, 1.0, 31.05, 52.05)">
    <path d="M21.1 -40.35 L21.8 -38.3 21.3 -34.75 Q21.05 -31.7 21.2 -29.75 L21.3 -28.7 21.35 -26.45 21.25 -24.9 21.0 -22.95 20.95 -22.85 20.05 -17.45 20.0 -17.2 Q18.3 -8.45 16.85 -5.5 L15.75 -3.65 Q14.5 -2.15 12.45 -0.8 9.15 1.3 4.95 2.2 8.95 -0.25 10.35 -2.0 12.9 -5.3 13.75 -10.8 L14.2 -16.45 14.3 -22.05 15.4 -27.15 15.6 -28.35 15.5 -30.6 14.9 -32.3 Q12.35 -36.6 4.95 -32.9 7.25 -35.3 9.9 -36.1 L15.85 -36.75 15.75 -36.9 15.1 -38.1 13.25 -41.05 Q11.55 -43.35 9.15 -44.8 6.85 -46.3 4.1 -46.9 L-1.25 -47.1 Q3.85 -50.85 11.9 -49.75 16.85 -47.55 19.85 -42.7 L21.1 -40.35 M-11.7 -0.2 Q-6.4 2.9 1.2 2.65 6.5 2.5 11.0 0.1 12.8 -0.85 14.1 -1.95 13.35 6.9 14.0 9.8 14.65 13.0 18.1 15.0 L24.05 18.75 19.15 18.7 Q16.0 18.4 14.75 19.25 13.1 20.15 10.6 23.8 8.25 27.35 6.4 28.2 9.35 21.4 10.35 17.95 12.1 11.7 8.8 7.4 7.25 5.3 3.85 5.95 L-1.9 6.6 Q-7.3 5.6 -11.6 0.4 L-11.7 -0.2 M-16.15 -30.8 L-16.45 -29.45 -16.5 -30.6 -16.2 -32.3 Q-15.2 -35.3 -11.5 -35.75 -7.75 -36.2 -6.65 -33.45 -6.45 -33.1 -6.15 -30.95 L-5.95 -29.15 Q-6.15 -30.3 -6.6 -31.35 L-6.95 -32.0 Q-8.5 -35.05 -11.8 -34.55 -15.0 -34.1 -16.0 -31.75 L-16.15 -30.8" fill="#000000" fill-opacity="0.3019608" fill-rule="evenodd" stroke="none"/>
    <path d="M21.1 -40.35 L19.85 -42.7 Q16.85 -47.55 11.9 -49.75 3.85 -50.85 -1.25 -47.1 L4.1 -46.9 Q6.85 -46.3 9.15 -44.8 11.55 -43.35 13.25 -41.05 L15.1 -38.1 Q11.35 -40.6 5.4 -38.3 4.2 -37.85 3.95 -36.65 L3.95 -35.55 Q9.15 -38.7 13.8 -37.6 L15.75 -36.9 15.85 -36.75 9.9 -36.1 Q7.25 -35.3 4.95 -32.9 12.35 -36.6 14.9 -32.3 L15.5 -30.6 14.2 -31.55 Q11.9 -32.85 9.6 -32.9 8.05 -32.9 6.7 -32.1 5.05 -31.1 4.2 -29.45 L3.85 -28.9 4.3 -28.35 5.75 -27.15 Q7.6 -26.05 9.8 -26.05 12.75 -26.05 15.6 -28.35 L15.4 -27.15 14.3 -22.05 14.2 -16.45 13.75 -10.8 Q12.9 -5.3 10.35 -2.0 8.95 -0.25 4.95 2.2 9.15 1.3 12.45 -0.8 14.5 -2.15 15.75 -3.65 L14.1 -1.95 Q12.8 -0.85 11.0 0.1 6.5 2.5 1.2 2.65 -6.4 2.9 -11.7 -0.2 L-11.8 -0.3 -11.7 -0.2 -11.6 0.4 Q-7.3 5.6 -1.9 6.6 L3.85 5.95 Q7.25 5.3 8.8 7.4 12.1 11.7 10.35 17.95 9.35 21.4 6.4 28.2 8.25 27.35 10.6 23.8 13.1 20.15 14.75 19.25 16.0 18.4 19.15 18.7 L24.05 18.75 18.1 15.0 27.65 21.05 Q28.9 28.45 28.3 40.0 L27.45 50.15 Q20.6 51.9 -3.65 51.5 L-26.6 50.9 Q-27.55 50.35 -28.25 49.05 -28.8 48.05 -28.25 34.7 -27.6 21.25 -27.0 20.3 -26.45 19.6 -21.2 16.95 L-13.35 12.65 Q-10.95 11.15 -11.25 4.4 L-11.8 -0.3 -14.25 -2.0 Q-16.3 -3.75 -18.4 -12.25 L-19.5 -16.9 -20.1 -19.9 -19.5 -16.9 Q-20.6 -13.9 -23.4 -21.05 -24.35 -23.7 -23.8 -27.15 -23.3 -30.45 -22.3 -30.45 -21.25 -30.45 -20.15 -29.55 L-20.1 -30.2 -20.65 -40.25 Q-18.85 -45.9 -16.85 -47.4 -13.25 -49.85 -0.55 -51.3 11.15 -52.7 17.65 -45.65 19.95 -43.05 21.1 -40.35 M20.0 -17.2 L20.05 -17.45 20.95 -22.85 21.15 -22.5 20.85 -21.05 Q20.7 -19.4 21.05 -18.85 21.7 -17.85 22.6 -20.55 21.85 -19.3 21.8 -19.95 L21.7 -21.4 21.95 -22.2 22.4 -22.95 Q22.8 -23.6 21.6 -24.15 21.5 -25.05 21.85 -26.35 22.15 -27.8 22.6 -27.9 22.95 -28.0 23.25 -27.35 22.5 -29.85 21.35 -26.45 L21.3 -28.7 21.2 -29.75 21.4 -29.9 Q22.35 -30.45 22.95 -30.45 23.9 -30.45 24.45 -27.15 24.9 -23.6 24.0 -21.05 21.2 -13.4 20.0 -17.2 M7.55 -30.5 L7.4 -29.7 Q7.4 -28.9 8.0 -28.2 L6.8 -28.7 6.25 -29.15 Q6.8 -30.1 7.55 -30.5 M11.55 -28.15 Q12.1 -28.75 12.1 -29.7 L11.95 -30.6 13.25 -29.9 14.1 -29.45 Q12.85 -28.5 11.55 -28.15 M0.85 -16.8 L0.2 -16.25 3.05 -16.35 Q4.2 -17.3 2.65 -17.35 1.65 -17.45 0.85 -16.8 M1.4 -11.35 L0.35 -11.25 Q-0.25 -10.85 -0.7 -10.85 L-2.55 -11.15 -3.65 -11.4 Q-5.55 -11.15 -7.3 -10.25 L-8.7 -9.3 -4.4 -8.85 -0.1 -8.75 6.85 -9.3 Q4.05 -10.8 1.4 -11.35 M1.65 -4.75 Q3.6 -5.65 4.75 -7.3 2.0 -5.3 -2.3 -5.75 L-6.1 -6.55 Q-2.2 -2.9 1.65 -4.75 M-20.45 -25.8 L-20.4 -26.8 -20.15 -29.55 -20.4 -26.8 -20.45 -25.8 Q-21.75 -30.35 -22.7 -27.15 -22.3 -28.0 -21.95 -27.9 -21.5 -27.8 -21.15 -26.35 -20.85 -25.05 -20.95 -24.15 L-21.5 -23.75 Q-21.95 -23.3 -21.75 -22.95 L-21.2 -22.2 -21.05 -21.4 -21.05 -19.95 Q-21.2 -19.3 -21.95 -20.55 -21.05 -17.85 -20.4 -18.85 L-20.1 -19.9 -20.4 -21.85 -20.45 -22.35 -20.45 -22.55 -20.45 -25.8 M-6.6 -31.35 L-7.7 -32.1 Q-9.05 -32.9 -10.5 -32.9 -12.7 -32.85 -15.1 -31.55 L-16.15 -30.8 -16.0 -31.75 Q-15.0 -34.1 -11.8 -34.55 -8.5 -35.05 -6.95 -32.0 L-6.6 -31.35 M-16.5 -30.6 L-17.1 -30.2 -17.85 -29.55 -17.1 -28.8 Q-14.0 -26.05 -10.7 -26.05 -8.6 -26.05 -6.75 -27.15 L-5.2 -28.35 -4.85 -28.9 -5.1 -29.45 Q-5.55 -30.3 -6.15 -30.95 -6.45 -33.1 -6.65 -33.45 -7.75 -36.2 -11.5 -35.75 -15.2 -35.3 -16.2 -32.3 L-16.5 -30.6 M-8.5 -30.5 Q-7.7 -30.05 -7.15 -29.15 L-7.75 -28.7 Q-8.3 -28.35 -8.95 -28.15 -8.4 -28.8 -8.4 -29.7 L-8.5 -30.5 M-12.45 -28.15 Q-13.7 -28.55 -15.0 -29.45 L-14.0 -30.0 -12.95 -30.5 -13.1 -29.7 Q-13.1 -28.85 -12.45 -28.15 M-4.5 -35.55 Q-3.95 -37.6 -5.95 -38.3 -13.9 -41.35 -17.9 -35.85 L-14.35 -37.6 Q-9.7 -38.7 -4.5 -35.55 M-5.5 -16.8 L-5.1 -16.35 -2.2 -16.25 Q-3.1 -17.45 -4.75 -17.35 -5.75 -17.3 -5.5 -16.8" fill="#ffffff" fill-opacity="0.0" fill-rule="evenodd" stroke="none"/>
    <path d="M20.95 -22.85 L21.0 -22.95 21.25 -24.9 21.35 -26.45 Q22.5 -29.85 23.25 -27.35 22.95 -28.0 22.6 -27.9 22.15 -27.8 21.85 -26.35 21.5 -25.05 21.6 -24.15 22.8 -23.6 22.4 -22.95 L21.95 -22.2 21.7 -21.4 21.8 -19.95 Q21.85 -19.3 22.6 -20.55 21.7 -17.85 21.05 -18.85 20.7 -19.4 20.85 -21.05 L21.15 -22.5 20.95 -22.85 M7.55 -30.5 L8.15 -31.35 Q8.9 -32.1 9.8 -32.1 10.7 -32.1 11.45 -31.35 L11.95 -30.6 12.1 -29.7 Q12.1 -28.75 11.55 -28.15 L11.45 -28.05 Q10.8 -27.45 9.8 -27.45 8.8 -27.45 8.15 -28.05 L8.0 -28.2 Q7.4 -28.9 7.4 -29.7 L7.55 -30.5 M1.65 -4.75 Q-2.2 -2.9 -6.1 -6.55 L-2.3 -5.75 Q2.0 -5.3 4.75 -7.3 3.6 -5.65 1.65 -4.75 M1.4 -11.35 Q4.05 -10.8 6.85 -9.3 L-0.1 -8.75 -4.4 -8.85 -8.7 -9.3 -7.3 -10.25 Q-5.55 -11.15 -3.65 -11.4 L-2.55 -11.15 -0.7 -10.85 Q-0.25 -10.85 0.35 -11.25 L1.4 -11.35 M-20.45 -25.8 L-20.45 -22.55 -20.5 -22.5 -20.45 -22.35 -20.4 -21.85 -20.1 -19.9 -20.4 -18.85 Q-21.05 -17.85 -21.95 -20.55 -21.2 -19.3 -21.05 -19.95 L-21.05 -21.4 -21.2 -22.2 -21.75 -22.95 Q-21.95 -23.3 -21.5 -23.75 L-20.95 -24.15 Q-20.85 -25.05 -21.15 -26.35 -21.5 -27.8 -21.95 -27.9 -22.3 -28.0 -22.7 -27.15 -21.75 -30.35 -20.45 -25.8 M-12.95 -30.5 L-12.35 -31.35 Q-11.6 -32.1 -10.7 -32.1 -9.8 -32.1 -9.05 -31.35 -8.65 -31.0 -8.5 -30.5 L-8.4 -29.7 Q-8.4 -28.8 -8.95 -28.15 L-9.05 -28.05 Q-9.7 -27.45 -10.7 -27.45 -11.7 -27.45 -12.35 -28.05 L-12.45 -28.15 Q-13.1 -28.85 -13.1 -29.7 L-12.95 -30.5" fill="#000000" fill-opacity="0.8509804" fill-rule="evenodd" stroke="none"/>
    <path d="M15.5 -30.6 L15.6 -28.35 Q12.75 -26.05 9.8 -26.05 7.6 -26.05 5.75 -27.15 L4.3 -28.35 3.85 -28.9 4.2 -29.45 Q5.05 -31.1 6.7 -32.1 8.05 -32.9 9.6 -32.9 11.9 -32.85 14.2 -31.55 L15.5 -30.6 M11.95 -30.6 L11.45 -31.35 Q10.7 -32.1 9.8 -32.1 8.9 -32.1 8.15 -31.35 L7.55 -30.5 Q6.8 -30.1 6.25 -29.15 L6.8 -28.7 8.0 -28.2 8.15 -28.05 Q8.8 -27.45 9.8 -27.45 10.8 -27.45 11.45 -28.05 L11.55 -28.15 Q12.85 -28.5 14.1 -29.45 L13.25 -29.9 11.95 -30.6 M-16.15 -30.8 L-15.1 -31.55 Q-12.7 -32.85 -10.5 -32.9 -9.05 -32.9 -7.7 -32.1 L-6.6 -31.35 Q-6.15 -30.3 -5.95 -29.15 L-6.15 -30.95 Q-5.55 -30.3 -5.1 -29.45 L-4.85 -28.9 -5.2 -28.35 -6.75 -27.15 Q-8.6 -26.05 -10.7 -26.05 -14.0 -26.05 -17.1 -28.8 L-17.85 -29.55 -17.1 -30.2 -16.5 -30.6 -16.45 -29.45 -16.15 -30.8 M-8.5 -30.5 Q-8.65 -31.0 -9.05 -31.35 -9.8 -32.1 -10.7 -32.1 -11.6 -32.1 -12.35 -31.35 L-12.95 -30.5 -14.0 -30.0 -15.0 -29.45 Q-13.7 -28.55 -12.45 -28.15 L-12.35 -28.05 Q-11.7 -27.45 -10.7 -27.45 -9.7 -27.45 -9.05 -28.05 L-8.95 -28.15 Q-8.3 -28.35 -7.75 -28.7 L-7.15 -29.15 Q-7.7 -30.05 -8.5 -30.5" fill="#000000" fill-rule="evenodd" stroke="none"/>
    <path d="M15.1 -38.1 L15.75 -36.9 13.8 -37.6 Q9.15 -38.7 3.95 -35.55 L3.95 -36.65 Q4.2 -37.85 5.4 -38.3 11.35 -40.6 15.1 -38.1 M-4.5 -35.55 Q-9.7 -38.7 -14.35 -37.6 L-17.9 -35.85 Q-13.9 -41.35 -5.95 -38.3 -3.95 -37.6 -4.5 -35.55" fill="#000000" fill-opacity="0.7490196" fill-rule="evenodd" stroke="none"/>
    <path d="M0.85 -16.8 Q1.65 -17.45 2.65 -17.35 4.2 -17.3 3.05 -16.35 L0.2 -16.25 0.85 -16.8 M-5.5 -16.8 Q-5.75 -17.3 -4.75 -17.35 -3.1 -17.45 -2.2 -16.25 L-5.1 -16.35 -5.5 -16.8" fill="#3d3d3d" fill-rule="evenodd" stroke="none"/>
    <path d="M-20.45 -22.55 L-20.45 -22.35 -20.5 -22.5 -20.45 -22.55" fill="#d4d4d4" fill-rule="evenodd" stroke="none"/>
    <path d="M21.2 -29.75 Q21.05 -31.7 21.3 -34.75 L21.8 -38.3 21.1 -40.35 Q19.95 -43.05 17.65 -45.65 11.15 -52.7 -0.55 -51.3 -13.25 -49.85 -16.85 -47.4 -18.85 -45.9 -20.65 -40.25 L-20.1 -30.2 M15.75 -3.65 L16.85 -5.5 Q18.3 -8.45 20.0 -17.2 21.2 -13.4 24.0 -21.05 24.9 -23.6 24.45 -27.15 23.9 -30.45 22.95 -30.45 22.35 -30.45 21.4 -29.9 M14.1 -1.95 L15.75 -3.65 M-19.5 -16.9 L-18.4 -12.25 Q-16.3 -3.75 -14.25 -2.0 L-11.8 -0.3 -11.25 4.4 Q-10.95 11.15 -13.35 12.65 L-21.2 16.95 Q-26.45 19.6 -27.0 20.3 -27.6 21.25 -28.25 34.7 -28.8 48.05 -28.25 49.05 -27.55 50.35 -26.6 50.9 L-3.65 51.5 Q20.6 51.9 27.45 50.15 L28.3 40.0 Q28.9 28.45 27.65 21.05 L18.1 15.0 Q14.65 13.0 14.0 9.8 13.35 6.9 14.1 -1.95 M-20.15 -29.55 Q-21.25 -30.45 -22.3 -30.45 -23.3 -30.45 -23.8 -27.15 -24.35 -23.7 -23.4 -21.05 -20.6 -13.9 -19.5 -16.9" fill="none" stroke="#000000" stroke-linecap="butt" stroke-linejoin="miter-clip" stroke-miterlimit="10.0" stroke-width="1.0"/>
    <path d="M20.0 -17.2 L20.05 -17.45 20.95 -22.85 21.0 -22.95 21.25 -24.9 21.35 -26.45 21.3 -28.7 21.2 -29.75 21.4 -29.9 M-20.1 -30.2 L-20.15 -29.55 -20.4 -26.8 -20.45 -25.8 -20.45 -22.55 -20.45 -22.35 -20.4 -21.85 -20.1 -19.9 -19.5 -16.9 M-11.8 -0.3 L-11.7 -0.2 Q-6.4 2.9 1.2 2.65 6.5 2.5 11.0 0.1 12.8 -0.85 14.1 -1.95" fill="none" stroke="#000000" stroke-linecap="butt" stroke-linejoin="miter-clip" stroke-miterlimit="10.0" stroke-opacity="0.4" stroke-width="1.0"/>
  </g>
</svg>
