<?xml version="1.0" encoding="UTF-8" standalone="no"?>
<svg xmlns:xlink="http://www.w3.org/1999/xlink" height="8.2px" width="8.6px" xmlns="http://www.w3.org/2000/svg">
  <g transform="matrix(1.0, 0.0, 0.0, 1.0, 4.3, 4.1)">
    <path d="M3.8 -0.15 Q3.8 1.35 2.7 2.4 1.6 3.45 0.0 3.6 -1.55 3.75 -2.65 2.65 -3.8 1.5 -3.8 0.1 -3.8 -1.35 -2.65 -2.3 -1.55 -3.25 0.0 -3.55 1.6 -3.85 2.7 -2.75 3.8 -1.6 3.8 -0.15" fill="#ffffff" fill-opacity="0.0" fill-rule="evenodd" stroke="none"/>
    <path d="M3.8 -0.15 Q3.8 1.35 2.7 2.4 1.6 3.45 0.0 3.6 -1.55 3.75 -2.65 2.65 -3.8 1.5 -3.8 0.1 -3.8 -1.35 -2.65 -2.3 -1.55 -3.25 0.0 -3.55 1.6 -3.85 2.7 -2.75 3.8 -1.6 3.8 -0.15 Z" fill="none" stroke="#000000" stroke-linecap="round" stroke-linejoin="round" stroke-opacity="0.6" stroke-width="1.0"/>
  </g>
</svg>
