<?xml version="1.0" encoding="UTF-8" standalone="no"?>
<svg xmlns:xlink="http://www.w3.org/1999/xlink" height="415.35px" width="83.95px" xmlns="http://www.w3.org/2000/svg">
  <g transform="matrix(1.0, 0.0, 0.0, 1.0, 41.95, 207.7)">
    <path d="M-6.8 -187.4 L-8.15 -188.95 -9.6 -193.45 -9.6 -193.7 Q-9.6 -197.2 -7.1 -199.7 -4.6 -202.2 -1.1 -202.2 L-0.8 -202.2 3.7 -200.75 5.2 -199.4 5.6 -198.9 Q3.35 -200.7 0.4 -200.7 -3.1 -200.7 -5.6 -198.2 -8.1 -195.7 -8.1 -192.2 -8.1 -189.25 -6.3 -187.0 L-6.8 -187.4" fill="#000000" fill-opacity="0.14901961" fill-rule="evenodd" stroke="none"/>
    <path d="M5.2 -199.4 L3.7 -200.75 -0.8 -202.2 -1.1 -202.2 Q-4.6 -202.2 -7.1 -199.7 -9.6 -197.2 -9.6 -193.7 L-9.6 -193.45 -8.15 -188.95 -6.8 -187.4 Q-4.4 -185.2 -1.1 -185.2 2.45 -185.2 4.9 -187.7 7.4 -190.15 7.4 -193.7 7.4 -197.0 5.2 -199.4 M-6.6 -181.3 Q-8.8 -182.3 -10.65 -184.15 -14.6 -188.1 -14.6 -193.7 -14.6 -199.3 -10.65 -203.25 -6.7 -207.2 -1.1 -207.2 4.5 -207.2 8.45 -203.25 12.4 -199.3 12.4 -193.7 12.4 -188.1 8.45 -184.15 7.05 -182.75 5.4 -181.8 L5.4 -135.05 8.9 -134.35 10.05 -124.6 10.25 -123.25 15.75 -122.65 41.45 -122.8 41.5 -117.5 16.2 -118.95 10.8 -117.8 6.65 -117.25 Q-3.25 -116.15 -12.25 -117.3 L-15.25 -117.8 -41.35 -116.7 -41.45 -121.35 -11.05 -122.55 -10.85 -124.15 -9.6 -134.2 -6.6 -134.85 -6.6 -181.3 M6.4 -118.55 Q-4.9 -117.6 -15.6 -119.95 L-40.45 -118.05 -15.35 -119.3 -6.75 -118.05 -2.9 -117.9 2.75 -118.05 10.2 -118.9 6.4 -118.55 M-8.55 -201.7 Q-5.8 -204.7 -2.35 -205.95 -12.8 -202.8 -12.9 -194.55 -12.9 -190.45 -10.85 -186.95 -14.15 -195.7 -8.55 -201.7 M-4.6 -180.45 L-4.6 -135.45 -4.15 -135.45 -5.25 -135.2 -8.6 -134.2 -6.05 -133.3 Q-2.35 -132.65 4.3 -133.4 1.35 -133.15 -1.35 -133.4 L-6.45 -134.05 -3.1 -135.45 -2.85 -180.95 -4.6 -180.45" fill="#ffffff" fill-opacity="0.0" fill-rule="evenodd" stroke="none"/>
    <path d="M-6.8 -187.4 L-6.3 -187.0 Q-8.1 -189.25 -8.1 -192.2 -8.1 -195.7 -5.6 -198.2 -3.1 -200.7 0.4 -200.7 3.35 -200.7 5.6 -198.9 L5.2 -199.4 Q7.4 -197.0 7.4 -193.7 7.4 -190.15 4.9 -187.7 2.45 -185.2 -1.1 -185.2 -4.4 -185.2 -6.8 -187.4 M10.8 -117.8 L2.15 198.75 1.55 201.3 Q0.75 204.1 -0.25 205.6 -3.55 210.45 -7.95 200.15 L-12.25 -117.3 Q-3.25 -116.15 6.65 -117.25 L10.8 -117.8" fill="#ffffff" fill-opacity="0.2" fill-rule="evenodd" stroke="none"/>
    <path d="M10.05 -124.6 L15.9 -123.95 37.8 -123.7 41.45 -122.8 15.75 -122.65 10.25 -123.25 10.05 -124.6 M-41.45 -121.35 L-36.1 -122.45 -15.85 -123.45 -12.7 -123.9 -10.85 -124.15 -11.05 -122.55 -41.45 -121.35 M6.4 -118.55 L10.2 -118.9 2.75 -118.05 -2.9 -117.9 -6.75 -118.05 -15.35 -119.3 -40.45 -118.05 -15.6 -119.95 Q-4.9 -117.6 6.4 -118.55 M-8.55 -201.7 Q-14.15 -195.7 -10.85 -186.95 -12.9 -190.45 -12.9 -194.55 -12.8 -202.8 -2.35 -205.95 -5.8 -204.7 -8.55 -201.7 M-4.6 -180.45 L-2.85 -180.95 -3.1 -135.45 -6.45 -134.05 -1.35 -133.4 Q1.35 -133.15 4.3 -133.4 -2.35 -132.65 -6.05 -133.3 L-8.6 -134.2 -5.25 -135.2 -4.15 -135.45 -4.6 -135.45 -4.6 -180.45" fill="#ffffff" fill-opacity="0.3019608" fill-rule="evenodd" stroke="none"/>
    <path d="M-6.6 -181.3 Q-8.8 -182.3 -10.65 -184.15 -14.6 -188.1 -14.6 -193.7 -14.6 -199.3 -10.65 -203.25 -6.7 -207.2 -1.1 -207.2 4.5 -207.2 8.45 -203.25 12.4 -199.3 12.4 -193.7 12.4 -188.1 8.45 -184.15 7.05 -182.75 5.4 -181.8 M5.4 -135.05 L8.9 -134.35 10.05 -124.6 15.9 -123.95 37.8 -123.7 41.45 -122.8 41.5 -117.5 M2.15 198.75 L1.55 201.3 Q0.75 204.1 -0.25 205.6 -3.55 210.45 -7.95 200.15 M-41.35 -116.7 L-41.45 -121.35 -36.1 -122.45 -15.85 -123.45 -12.7 -123.9 -10.85 -124.15 -9.6 -134.2 -6.6 -134.85" fill="none" stroke="#000000" stroke-linecap="round" stroke-linejoin="round" stroke-opacity="0.6" stroke-width="1.0"/>
    <path d="M5.4 -181.8 L5.4 -135.05 M41.5 -117.5 L16.2 -118.95 10.8 -117.8 2.15 198.75 M-7.95 200.15 L-12.25 -117.3 -15.25 -117.8 -41.35 -116.7 M-6.6 -134.85 L-6.6 -181.3 M10.8 -117.8 L6.65 -117.25 Q-3.25 -116.15 -12.25 -117.3" fill="none" stroke="#000000" stroke-linecap="round" stroke-linejoin="round" stroke-width="1.0"/>
    <path d="M-6.8 -187.4 L-6.3 -187.0 Q-8.1 -189.25 -8.1 -192.2 -8.1 -195.7 -5.6 -198.2 -3.1 -200.7 0.4 -200.7 3.35 -200.7 5.6 -198.9 L5.2 -199.4 Q7.4 -197.0 7.4 -193.7 7.4 -190.15 4.9 -187.7 2.45 -185.2 -1.1 -185.2 -4.4 -185.2 -6.8 -187.4" fill="none" stroke="#000000" stroke-linecap="round" stroke-linejoin="round" stroke-opacity="0.4" stroke-width="1.0"/>
  </g>
</svg>
