<?xml version="1.0" encoding="UTF-8" standalone="no"?>
<svg xmlns:xlink="http://www.w3.org/1999/xlink" height="32.3px" width="253.15px" xmlns="http://www.w3.org/2000/svg">
  <g transform="matrix(1.0, 0.0, 0.0, 1.0, 126.6, 16.15)">
    <path d="M-126.1 -15.65 L-115.45 -3.65 -115.45 5.0 64.25 5.0 Q62.45 5.4 62.0 5.7 L61.9 5.8 59.95 6.35 58.55 6.8 56.65 7.5 Q54.25 8.7 52.65 9.85 L52.6 9.9 52.4 10.0 50.9 11.15 50.75 11.25 46.55 15.65 -126.1 15.65 -126.1 -15.65" fill="#000000" fill-opacity="0.4" fill-rule="evenodd" stroke="none"/>
    <path d="M-126.1 -15.65 L47.25 -15.65 Q49.6 -10.35 55.75 -7.05 60.1 -4.7 65.8 -3.65 L-115.45 -3.65 -126.1 -15.65" fill="#ffffff" fill-opacity="0.0" fill-rule="evenodd" stroke="none"/>
    <path d="M-115.45 -3.65 L65.8 -3.65 126.05 -3.65 125.9 5.0 64.3 5.0 64.25 5.0 -115.45 5.0 -115.45 -3.65" fill="#ffffff" fill-opacity="0.3019608" fill-rule="evenodd" stroke="none"/>
    <path d="M-126.1 -15.65 L-115.45 -3.65 65.8 -3.65 M64.25 5.0 L-115.45 5.0 -115.45 -3.65" fill="none" stroke="#000000" stroke-linecap="round" stroke-linejoin="miter-clip" stroke-miterlimit="4.0" stroke-opacity="0.4" stroke-width="1.0"/>
    <path d="M65.8 -3.65 Q60.1 -4.7 55.75 -7.05 49.6 -10.35 47.25 -15.65 L-126.1 -15.65 -126.1 15.65 46.55 15.65 50.75 11.25 50.9 11.15 52.4 10.0 52.6 9.9 M65.8 -3.65 L126.05 -3.65 125.9 5.0 64.3 5.0 61.9 5.8 59.95 6.35 58.55 6.8 56.65 7.5 Q54.25 8.7 52.65 9.85 M64.25 5.0 L64.3 5.0" fill="none" stroke="#000000" stroke-linecap="round" stroke-linejoin="miter-clip" stroke-miterlimit="4.0" stroke-width="1.0"/>
  </g>
</svg>
