<?xml version="1.0" encoding="UTF-8" standalone="no"?>
<svg xmlns:xlink="http://www.w3.org/1999/xlink" height="5.35px" width="84.0px" xmlns="http://www.w3.org/2000/svg">
  <g transform="matrix(1.0, 0.0, 0.0, 1.0, 41.25, -6.55)">
    <path d="M38.7 7.05 L40.05 7.05 Q42.25 7.05 42.25 9.2 42.25 11.4 40.05 11.4 L-38.6 11.4 Q-40.75 11.4 -40.75 9.2 -40.75 7.05 -38.6 7.05 L-37.55 7.05 38.7 7.05" fill="#ffffff" fill-opacity="0.0" fill-rule="evenodd" stroke="none"/>
    <path d="M38.7 7.05 L40.05 7.05 Q42.25 7.05 42.25 9.2 42.25 11.4 40.05 11.4 L-38.6 11.4 Q-40.75 11.4 -40.75 9.2 -40.75 7.05 -38.6 7.05 L-37.55 7.05" fill="none" stroke="#000000" stroke-linecap="round" stroke-linejoin="miter-clip" stroke-miterlimit="3.0" stroke-width="1.0"/>
    <path d="M-37.55 7.05 L38.7 7.05 Z" fill="none" stroke="#000000" stroke-linecap="round" stroke-linejoin="miter-clip" stroke-miterlimit="3.0" stroke-opacity="0.6" stroke-width="1.0"/>
  </g>
</svg>
