<?xml version="1.0" encoding="UTF-8" standalone="no"?>
<svg xmlns:xlink="http://www.w3.org/1999/xlink" height="165.45px" width="1896.9px" xmlns="http://www.w3.org/2000/svg">
  <g transform="matrix(1.0, 0.0, 0.0, 1.0, 285.05, 0.65)">
    <path d="M-284.4 138.0 L49.85 0.0 230.7 0.0 0.5 137.4 -284.4 138.0 M248.5 0.0 L427.65 0.0 314.9 137.35 17.7 137.35 248.5 0.0 M439.55 0.0 L631.6 0.0 631.6 137.3 631.6 137.35 330.5 137.35 439.55 0.0 M641.7 0.0 L843.5 0.0 987.35 137.35 641.7 137.35 641.95 61.25 641.7 0.0 M852.35 0.0 L1054.3 0.0 1087.95 18.2 1321.2 137.35 1000.55 137.35 1000.5 137.35 852.35 0.0 M1073.1 0.0 L1259.2 0.0 1611.2 137.4 1335.8 137.4 1073.1 0.0" fill="#ffffff" fill-opacity="0.0" fill-rule="evenodd" stroke="none"/>
    <path d="M230.7 0.0 L248.5 0.0 17.7 137.35 0.5 137.4 230.7 0.0 M427.65 0.0 L439.55 0.0 330.5 137.35 314.95 137.35 314.9 137.35 427.65 0.0 M631.6 0.0 L641.7 0.0 641.95 61.25 641.7 137.35 631.6 137.35 631.6 137.3 631.6 0.0 M843.5 0.0 L852.35 0.0 1000.5 137.35 987.35 137.35 843.5 0.0 M1054.3 0.0 L1073.1 0.0 1335.8 137.4 1321.2 137.35 1087.95 18.2 1054.3 0.0" fill="#000000" fill-opacity="0.2" fill-rule="evenodd" stroke="none"/>
    <path d="M1611.2 137.4 L1611.2 163.55 1336.2 163.65 1335.8 137.4 1611.2 137.4 M1320.4 163.65 L1000.95 163.75 1000.55 137.35 1321.2 137.35 1320.4 163.65 M987.75 163.75 L642.15 163.85 641.7 137.35 987.35 137.35 987.75 163.75 M631.6 163.85 L330.0 163.95 330.5 137.35 631.6 137.35 631.6 163.85 M314.95 163.95 L17.95 164.05 17.7 137.35 314.9 137.35 314.95 137.35 314.95 163.95 M1.15 164.05 L-284.4 164.15 -284.4 138.0 0.5 137.4 1.15 164.05" fill="#000000" fill-opacity="0.14901961" fill-rule="evenodd" stroke="none"/>
    <path d="M1336.2 163.65 L1320.4 163.65 1321.2 137.35 1335.8 137.4 1336.2 163.65 M1000.95 163.75 L987.75 163.75 987.35 137.35 1000.5 137.35 1000.55 137.35 1000.95 163.75 M642.15 163.85 L631.6 163.85 631.6 137.35 641.7 137.35 642.15 163.85 M330.0 163.95 L314.95 163.95 314.95 137.35 330.5 137.35 330.0 163.95 M17.95 164.05 L1.15 164.05 0.5 137.4 17.7 137.35 17.95 164.05" fill="#000000" fill-opacity="0.29803923" fill-rule="evenodd" stroke="none"/>
    <path d="M1611.2 137.4 L1611.2 163.55 1336.2 163.65 1320.4 163.65 1000.95 163.75 987.75 163.75 642.15 163.85 631.6 163.85 330.0 163.95 314.95 163.95 17.95 164.05 1.15 164.05 -284.4 164.15 -284.4 138.0 49.85 0.0 230.7 0.0 248.5 0.0 427.65 0.0 439.55 0.0 631.6 0.0 641.7 0.0 843.5 0.0 852.35 0.0 1054.3 0.0 1073.1 0.0 1259.2 0.0 1611.2 137.4 M1000.55 137.35 L1000.5 137.35" fill="none" stroke="#000000" stroke-linecap="square" stroke-linejoin="miter-clip" stroke-miterlimit="4.0" stroke-width="1.0"/>
    <path d="M1611.2 137.4 L1335.8 137.4 M1321.2 137.35 L1320.4 163.65 M1321.2 137.35 L1000.55 137.35 M987.35 137.35 L987.75 163.75 M987.35 137.35 L641.7 137.35 642.15 163.85 M631.6 137.35 L631.6 137.3 M330.0 163.95 L330.5 137.35 631.6 137.35 M314.9 137.35 L17.7 137.35 17.95 164.05 M0.5 137.4 L-284.4 138.0" fill="none" stroke="#000000" stroke-linecap="square" stroke-linejoin="miter-clip" stroke-miterlimit="4.0" stroke-opacity="0.4" stroke-width="1.0"/>
    <path d="M1335.8 137.4 L1336.2 163.65 M1054.3 0.0 L1087.95 18.2 1321.2 137.35 M1000.55 137.35 L1000.95 163.75 M1000.5 137.35 L852.35 0.0 M843.5 0.0 L987.35 137.35 M641.7 0.0 L641.95 61.25 641.7 137.35 M631.6 137.35 L631.6 163.85 M631.6 137.3 L631.6 0.0 M314.95 137.35 L314.95 163.95 M439.55 0.0 L330.5 137.35 M0.5 137.4 L1.15 164.05 M230.7 0.0 L0.5 137.4 M427.65 0.0 L314.9 137.35 M1073.1 0.0 L1335.8 137.4" fill="none" stroke="#000000" stroke-linecap="round" stroke-linejoin="miter-clip" stroke-miterlimit="4.0" stroke-opacity="0.4" stroke-width="1.0"/>
    <path d="M248.5 0.0 L17.7 137.35" fill="none" stroke="#000000" stroke-linecap="butt" stroke-linejoin="miter-clip" stroke-miterlimit="4.0" stroke-opacity="0.4" stroke-width="1.0"/>
  </g>
</svg>
