<?xml version="1.0" encoding="UTF-8" standalone="no"?>
<svg xmlns:xlink="http://www.w3.org/1999/xlink" height="217.7px" width="147.95px" xmlns="http://www.w3.org/2000/svg">
  <g transform="matrix(1.0, 0.0, 0.0, 1.0, 73.95, 120.25)">
    <path d="M-19.6 -63.1 Q-24.15 -59.55 -27.5 -59.65 -26.8 -61.0 -23.7 -63.7 -20.95 -66.1 -20.35 -68.3 L-23.1 -66.65 Q-22.0 -68.0 -20.1 -74.25 -26.7 -69.75 -34.9 -68.25 -33.1 -70.5 -24.05 -76.6 L-29.55 -74.9 Q-28.25 -76.15 -22.75 -79.0 -18.4 -81.25 -16.85 -84.45 -19.2 -83.4 -21.55 -83.25 -15.5 -88.25 -13.35 -92.2 L-14.9 -91.8 -12.85 -96.3 Q-15.4 -94.2 -19.45 -94.2 -17.2 -94.25 -14.2 -98.6 -12.0 -101.7 -10.65 -104.95 L-10.0 -106.9 Q-8.95 -110.65 -7.7 -118.75 -7.8 -112.45 -4.4 -106.9 -0.7 -100.85 7.25 -95.75 4.3 -97.5 1.85 -96.05 2.6 -92.8 5.0 -90.6 2.4 -91.7 0.75 -92.05 1.65 -89.75 4.5 -87.1 6.1 -85.55 9.3 -82.95 L6.15 -83.1 7.9 -81.0 Q6.0 -81.4 1.8 -84.7 2.55 -81.15 6.45 -78.05 L13.05 -73.0 10.45 -72.65 12.05 -71.3 8.05 -70.8 8.5 -68.45 4.55 -72.15 Q4.7 -69.15 8.35 -63.4 12.2 -57.35 14.9 -57.05 12.55 -57.25 9.95 -58.55 L10.25 -57.05 6.6 -58.25 6.9 -57.05 Q4.65 -57.75 3.05 -60.4 3.35 -57.7 11.35 -48.85 19.35 -40.0 22.35 -41.3 19.85 -38.5 10.9 -42.05 L11.0 -40.6 Q7.65 -43.7 5.65 -44.85 L11.35 -35.0 Q14.8 -29.95 19.9 -27.6 L15.4 -27.9 15.75 -27.25 11.55 -29.7 12.0 -27.75 Q8.35 -29.25 6.0 -32.95 10.85 -20.2 16.7 -17.85 L27.4 -14.15 Q34.3 -11.95 40.05 -14.25 38.55 -11.25 35.85 -10.3 L29.9 -9.25 31.1 -7.85 Q28.75 -8.1 25.65 -9.65 L26.6 -7.05 26.15 -6.7 Q24.7 -7.25 22.95 -8.75 L20.05 -11.25 20.75 -7.75 Q17.15 -9.1 14.9 -13.3 13.6 -9.0 18.05 -3.45 21.75 1.2 26.25 3.35 23.65 3.05 21.3 2.2 L21.7 3.75 Q18.7 2.75 17.15 2.6 17.1 2.9 17.45 3.4 L13.15 0.55 Q16.95 10.0 26.5 13.75 33.8 16.6 45.6 16.35 44.55 18.15 41.9 18.65 L37.25 19.15 Q38.2 19.7 38.95 20.95 L33.7 21.1 35.05 24.15 Q31.35 24.45 28.05 22.25 L28.95 25.5 Q26.4 25.55 23.85 22.7 L25.35 27.5 Q20.6 23.0 17.95 21.25 18.65 26.0 22.45 32.0 26.3 37.95 30.3 40.55 33.8 42.8 39.7 43.6 L49.65 44.45 55.6 44.65 Q59.25 44.9 60.65 46.1 56.95 48.55 53.95 46.8 L57.6 50.6 Q56.1 51.7 54.3 51.2 L54.7 51.5 Q52.75 51.55 50.3 50.25 L52.85 53.3 Q49.85 52.1 48.7 52.15 L48.95 52.8 Q47.05 53.3 44.65 51.9 L41.0 49.15 Q44.0 53.65 51.0 56.95 L62.75 62.0 58.3 61.7 60.35 63.0 Q58.7 63.35 54.15 61.6 55.65 63.15 59.4 64.85 63.3 66.6 64.8 68.05 L59.55 67.75 60.95 70.05 Q58.35 69.4 57.25 68.8 L58.45 70.15 52.9 68.75 53.15 69.45 Q49.75 68.25 48.2 66.65 46.6 65.05 47.05 68.55 47.35 71.4 53.4 75.35 62.3 81.35 72.5 80.4 71.35 80.55 68.8 81.75 66.45 82.85 64.7 82.7 L66.15 83.65 Q64.15 85.1 61.0 84.85 L55.65 84.25 58.05 86.1 Q56.75 86.85 53.8 86.65 L49.2 86.5 Q50.35 87.05 51.6 88.65 L47.15 88.4 42.7 87.85 43.75 89.1 44.4 90.1 38.8 89.1 36.5 88.8 36.95 89.1 38.95 90.65 Q36.9 90.85 33.9 89.95 L30.95 89.1 28.95 88.6 29.55 89.1 32.0 91.6 21.15 89.3 Q21.8 89.45 24.15 90.55 L18.6 90.3 13.4 89.2 Q14.25 90.2 15.6 92.55 L8.95 90.3 Q10.85 92.15 11.15 94.15 10.2 94.15 5.35 92.8 L6.1 94.6 Q1.35 92.7 0.75 92.65 1.1 94.05 0.8 95.35 L0.25 96.75 Q-1.05 96.1 -1.85 93.85 L-1.9 93.75 -2.1 93.1 -2.3 92.5 -2.7 91.45 -3.2 90.05 Q-6.5 92.8 -8.7 94.2 L-9.15 94.5 Q-12.85 96.55 -11.0 92.05 -11.35 92.75 -12.65 93.35 L-15.35 94.2 -20.25 94.7 Q-20.55 92.65 -20.3 91.65 -24.25 95.3 -26.9 96.35 -24.55 91.75 -24.3 89.3 L-29.45 93.8 Q-32.7 96.7 -35.2 96.95 L-33.5 92.45 Q-32.9 90.6 -32.65 89.1 L-32.55 87.8 -34.05 89.1 -37.1 91.8 Q-39.85 94.25 -42.3 94.7 -42.2 93.4 -41.35 91.3 L-40.5 89.1 -40.15 87.8 -41.2 89.1 Q-43.15 90.95 -47.25 92.9 L-45.0 89.1 -44.4 88.2 -45.4 89.1 Q-48.45 91.7 -51.0 91.4 L-49.5 89.1 -48.5 87.3 Q-53.35 89.1 -56.65 88.6 L-54.0 85.5 -61.6 85.85 -57.45 83.75 Q-59.3 83.1 -64.95 82.15 -69.7 81.35 -72.5 79.9 -57.95 80.05 -52.45 79.45 -38.5 77.9 -35.35 71.8 -36.3 72.0 -37.4 72.6 L-35.6 69.95 Q-34.5 68.3 -34.25 67.0 -35.8 67.7 -39.2 70.45 -42.25 72.85 -44.5 73.5 L-42.75 69.5 -48.25 74.1 Q-51.7 76.7 -54.45 77.35 -53.3 75.6 -52.45 73.85 L-55.85 74.15 -50.75 67.6 Q-52.6 68.65 -54.75 68.65 L-52.25 66.0 -57.85 68.05 Q-61.2 68.75 -63.45 66.95 -59.15 63.65 -44.75 59.2 -32.6 54.1 -33.4 44.85 L-34.75 46.25 -35.5 46.8 Q-37.85 48.45 -39.5 48.3 -39.4 46.6 -39.05 45.85 -41.05 48.1 -43.65 47.8 L-42.7 45.5 -48.95 49.15 Q-48.7 47.15 -46.95 44.95 -49.3 47.15 -54.65 49.25 -51.9 46.4 -47.4 39.9 -52.95 42.55 -54.85 42.95 L-53.9 41.35 -58.2 42.4 Q-57.2 40.1 -55.4 38.5 -58.25 39.55 -61.65 39.6 L-67.9 39.6 Q-54.95 37.3 -38.6 30.05 -30.8 26.6 -26.95 23.35 -21.45 18.8 -20.25 12.35 -22.9 15.0 -24.45 15.55 L-23.1 11.9 Q-25.2 14.9 -29.7 17.95 L-29.45 16.05 Q-34.45 20.1 -37.1 21.15 -36.2 18.75 -34.1 15.95 L-37.25 17.8 Q-39.15 18.9 -40.6 19.05 -40.15 18.25 -39.75 16.55 L-44.15 18.7 Q-47.05 19.75 -46.8 16.7 -51.5 20.25 -54.3 20.15 -53.95 19.3 -50.3 15.65 -57.35 20.55 -62.4 20.9 -60.35 19.0 -55.9 16.65 L-49.2 12.8 -54.45 13.5 Q-52.55 12.35 -45.55 8.8 -39.8 5.9 -36.7 3.7 L-37.4 2.95 -34.9 0.4 -40.45 1.65 -34.7 -1.35 -32.05 -3.8 Q-30.4 -5.45 -29.35 -5.95 L-33.15 -5.6 -31.1 -7.4 Q-37.05 -4.95 -39.75 -4.65 -35.5 -6.45 -30.95 -9.95 -26.25 -13.55 -23.65 -17.15 L-26.7 -17.0 -24.25 -20.4 Q-27.6 -19.25 -29.4 -19.3 -23.2 -24.75 -21.6 -29.25 L-24.8 -26.9 Q-26.8 -25.55 -28.3 -25.3 L-24.45 -31.2 Q-25.8 -30.85 -28.2 -28.7 -30.5 -26.65 -32.15 -26.5 L-30.9 -30.2 -34.8 -27.3 Q-37.55 -25.6 -39.05 -26.35 -38.65 -27.05 -38.25 -28.8 -41.9 -26.55 -44.1 -27.15 -42.55 -30.3 -40.15 -31.05 -46.7 -29.4 -50.1 -29.05 -47.95 -30.3 -38.2 -34.8 -30.75 -38.3 -27.15 -41.35 L-32.1 -41.85 -27.05 -44.7 Q-23.95 -46.4 -22.9 -48.3 L-24.9 -48.25 -22.9 -50.55 -29.0 -49.5 -21.75 -55.05 Q-16.8 -59.2 -17.25 -61.95 L-20.15 -61.1 -19.6 -63.1 -18.7 -64.2 Q-17.95 -65.4 -17.85 -66.55 L-16.85 -63.95 Q-15.3 -66.55 -14.2 -67.6 L-12.7 -64.2 -11.2 -67.45 -10.45 -64.35 -9.05 -66.55 -10.45 -64.35 -11.2 -67.45 -12.7 -64.2 -14.2 -67.6 Q-15.3 -66.55 -16.85 -63.95 L-17.85 -66.55 Q-17.95 -65.4 -18.7 -64.2 L-19.6 -63.1 M-7.3 -36.0 Q-8.85 -32.8 -11.35 -30.4 L-11.25 -32.75 -15.25 -28.0 -15.3 -32.0 Q-17.05 -30.75 -17.6 -29.9 L-16.35 -34.7 Q-17.65 -32.8 -20.1 -30.55 L-21.6 -29.25 -20.1 -30.55 Q-17.65 -32.8 -16.35 -34.7 L-17.6 -29.9 Q-17.05 -30.75 -15.3 -32.0 L-15.25 -28.0 -11.25 -32.75 -11.35 -30.4 Q-8.85 -32.8 -7.3 -36.0 M-7.95 -53.35 L-13.0 -48.9 Q-12.6 -50.05 -12.4 -52.4 L-15.4 -49.5 Q-17.25 -48.0 -19.05 -47.95 -18.15 -50.6 -17.1 -52.15 L-22.9 -50.55 -17.1 -52.15 Q-18.15 -50.6 -19.05 -47.95 -17.25 -48.0 -15.4 -49.5 L-12.4 -52.4 Q-12.6 -50.05 -13.0 -48.9 L-7.95 -53.35 M13.65 -8.8 L10.0 -12.45 Q10.3 -11.2 10.3 -8.55 8.6 -9.25 6.3 -12.0 3.85 -14.85 2.4 -15.65 L3.05 -11.2 Q1.45 -12.1 -0.8 -14.05 -0.7 -13.25 -0.75 -11.3 L-2.55 -14.3 -3.2 -11.2 Q-4.05 -13.15 -5.15 -20.45 -4.05 -13.15 -3.2 -11.2 L-2.55 -14.3 -0.75 -11.3 Q-0.7 -13.25 -0.8 -14.05 1.45 -12.1 3.05 -11.2 L2.4 -15.65 Q3.85 -14.85 6.3 -12.0 8.6 -9.25 10.3 -8.55 10.3 -11.2 10.0 -12.45 L13.65 -8.8 M-20.1 42.6 Q-22.8 45.55 -24.3 46.65 L-23.9 42.6 Q-26.65 45.95 -28.35 47.3 -28.55 45.2 -28.3 44.15 -30.3 45.0 -31.1 45.85 -30.1 43.3 -30.2 40.65 L-33.4 44.85 -30.2 40.65 Q-30.1 43.3 -31.1 45.85 -30.3 45.0 -28.3 44.15 -28.55 45.2 -28.35 47.3 -26.65 45.95 -23.9 42.6 L-24.3 46.65 Q-22.8 45.55 -20.1 42.6 M-11.7 0.0 Q-11.65 4.05 -15.5 7.75 L-15.95 4.65 -16.1 5.0 Q-17.1 6.95 -18.85 7.9 L-18.8 5.3 -20.2 6.75 -22.45 9.15 -21.95 6.0 Q-23.4 7.4 -25.5 9.0 L-27.35 10.4 -27.85 10.75 -27.7 10.4 Q-26.2 6.95 -26.15 5.1 L-30.7 8.9 -30.85 9.0 -33.55 11.0 -30.85 9.0 -30.7 8.9 -26.15 5.1 Q-26.2 6.95 -27.7 10.4 L-27.85 10.75 -27.35 10.4 -25.5 9.0 Q-23.4 7.4 -21.95 6.0 L-22.45 9.15 -20.2 6.75 -18.8 5.3 -18.85 7.9 Q-17.1 6.95 -16.1 5.0 L-15.95 4.65 -15.5 7.75 Q-11.65 4.05 -11.7 0.0 M14.2 76.9 Q13.0 76.75 11.2 75.85 L8.25 74.55 Q8.7 75.5 8.8 77.35 5.7 75.95 4.1 75.45 L4.3 78.05 Q2.35 76.35 0.45 75.2 L0.0 77.15 Q-2.35 73.35 -3.95 72.3 -4.05 75.4 -6.1 76.1 L-6.7 70.85 Q-9.5 75.6 -11.9 76.2 L-13.35 73.9 -14.25 74.7 Q-15.7 75.95 -16.9 76.2 -16.45 74.0 -14.95 70.75 -19.5 73.9 -21.7 73.65 -19.7 71.65 -14.25 64.0 -19.7 71.65 -21.7 73.65 -19.5 73.9 -14.95 70.75 -16.45 74.0 -16.9 76.2 -15.7 75.95 -14.25 74.7 L-13.35 73.9 -11.9 76.2 Q-9.5 75.6 -6.7 70.85 L-6.1 76.1 Q-4.05 75.4 -3.95 72.3 -2.35 73.35 0.0 77.15 L0.45 75.2 Q2.35 76.35 4.3 78.05 L4.1 75.45 Q5.7 75.95 8.8 77.35 8.7 75.5 8.25 74.55 L11.2 75.85 Q13.0 76.75 14.2 76.9 M25.65 49.45 L21.85 48.3 18.75 47.35 18.1 47.25 18.75 48.05 19.4 49.05 18.75 48.7 Q17.15 47.9 15.5 47.95 L15.2 47.95 15.65 49.45 15.5 49.4 Q12.4 47.7 10.6 47.15 L11.1 49.85 Q8.2 47.55 7.35 47.15 5.0 46.1 6.1 49.85 4.9 49.3 3.95 47.7 L2.35 44.95 0.3 49.0 Q-0.1 46.75 0.3 44.6 -5.0 49.9 -6.45 50.6 -3.65 44.6 -2.4 41.6 -5.85 45.65 -8.7 46.8 L-3.6 37.05 -8.7 46.8 Q-5.85 45.65 -2.4 41.6 -3.65 44.6 -6.45 50.6 -5.0 49.9 0.3 44.6 -0.1 46.75 0.3 49.0 L2.35 44.95 3.95 47.7 Q4.9 49.3 6.1 49.85 5.0 46.1 7.35 47.15 8.2 47.55 11.1 49.85 L10.6 47.15 Q12.4 47.7 15.5 49.4 L15.65 49.45 15.2 47.95 15.5 47.95 Q17.15 47.9 18.75 48.7 L19.4 49.05 18.75 48.05 18.1 47.25 18.75 47.35 21.85 48.3 25.65 49.45 M3.75 11.15 Q3.55 13.7 5.05 16.45 L8.0 21.1 8.05 17.95 8.95 18.6 10.45 16.5 Q11.1 19.1 14.1 22.2 L14.85 20.3 15.4 20.65 Q16.6 21.25 17.95 21.25 16.6 21.25 15.4 20.65 L14.85 20.3 14.1 22.2 Q11.1 19.1 10.45 16.5 L8.95 18.6 8.05 17.95 8.0 21.1 5.05 16.45 Q3.55 13.7 3.75 11.15 M-26.95 69.25 Q-28.85 69.7 -31.5 73.35 L-28.6 66.55 Q-29.35 66.95 -31.25 69.15 L-33.25 70.9 Q-34.25 71.55 -35.35 71.8 -34.25 71.55 -33.25 70.9 L-31.25 69.15 Q-29.35 66.95 -28.6 66.55 L-31.5 73.35 Q-28.85 69.7 -26.95 69.25" fill="#ffffff" fill-opacity="0.0" fill-rule="evenodd" stroke="none"/>
    <path d="M17.95 21.25 Q20.6 23.0 25.35 27.5 L23.85 22.7 Q26.4 25.55 28.95 25.5 L28.05 22.25 Q31.35 24.45 35.05 24.15 L33.7 21.1 38.95 20.95 Q38.2 19.7 37.25 19.15 L41.9 18.65 Q44.55 18.15 45.6 16.35 33.8 16.6 26.5 13.75 16.95 10.0 13.15 0.55 L17.45 3.4 Q17.1 2.9 17.15 2.6 18.7 2.75 21.7 3.75 L21.3 2.2 Q23.65 3.05 26.25 3.35 21.75 1.2 18.05 -3.45 13.6 -9.0 14.9 -13.3 17.15 -9.1 20.75 -7.75 L20.05 -11.25 22.95 -8.75 Q24.7 -7.25 26.15 -6.7 L26.6 -7.05 25.65 -9.65 Q28.75 -8.1 31.1 -7.85 L29.9 -9.25 35.85 -10.3 Q38.55 -11.25 40.05 -14.25 34.3 -11.95 27.4 -14.15 L16.7 -17.85 Q10.85 -20.2 6.0 -32.95 8.35 -29.25 12.0 -27.75 L11.55 -29.7 15.75 -27.25 15.4 -27.9 19.9 -27.6 Q14.8 -29.95 11.35 -35.0 L5.65 -44.85 Q7.65 -43.7 11.0 -40.6 L10.9 -42.05 Q19.85 -38.5 22.35 -41.3 19.35 -40.0 11.35 -48.85 3.35 -57.7 3.05 -60.4 4.65 -57.75 6.9 -57.05 L6.6 -58.25 10.25 -57.05 9.95 -58.55 Q12.55 -57.25 14.9 -57.05 12.2 -57.35 8.35 -63.4 4.7 -69.15 4.55 -72.15 L8.5 -68.45 8.05 -70.8 12.05 -71.3 10.45 -72.65 13.05 -73.0 6.45 -78.05 Q2.55 -81.15 1.8 -84.7 6.0 -81.4 7.9 -81.0 L6.15 -83.1 9.3 -82.95 Q6.1 -85.55 4.5 -87.1 1.65 -89.75 0.75 -92.05 2.4 -91.7 5.0 -90.6 2.6 -92.8 1.85 -96.05 4.3 -97.5 7.25 -95.75 -0.7 -100.85 -4.4 -106.9 -7.8 -112.45 -7.7 -118.75 -8.95 -110.65 -10.0 -106.9 L-10.65 -104.95 Q-12.0 -101.7 -14.2 -98.6 -17.2 -94.25 -19.45 -94.2 -15.4 -94.2 -12.85 -96.3 L-14.9 -91.8 -13.35 -92.2 Q-15.5 -88.25 -21.55 -83.25 -19.2 -83.4 -16.85 -84.45 -18.4 -81.25 -22.75 -79.0 -28.25 -76.15 -29.55 -74.9 L-24.05 -76.6 Q-33.1 -70.5 -34.9 -68.25 -26.7 -69.75 -20.1 -74.25 -22.0 -68.0 -23.1 -66.65 L-20.35 -68.3 Q-20.95 -66.1 -23.7 -63.7 -26.8 -61.0 -27.5 -59.65 -24.15 -59.55 -19.6 -63.1 L-20.15 -61.1 -17.25 -61.95 Q-16.8 -59.2 -21.75 -55.05 L-29.0 -49.5 -22.9 -50.55 -24.9 -48.25 -22.9 -48.3 Q-23.95 -46.4 -27.05 -44.7 L-32.1 -41.85 -27.15 -41.35 Q-30.75 -38.3 -38.2 -34.8 -47.95 -30.3 -50.1 -29.05 -46.7 -29.4 -40.15 -31.05 -42.55 -30.3 -44.1 -27.15 -41.9 -26.55 -38.25 -28.8 -38.65 -27.05 -39.05 -26.35 -37.55 -25.6 -34.8 -27.3 L-30.9 -30.2 -32.15 -26.5 Q-30.5 -26.65 -28.2 -28.7 -25.8 -30.85 -24.45 -31.2 L-28.3 -25.3 Q-26.8 -25.55 -24.8 -26.9 L-21.6 -29.25 Q-23.2 -24.75 -29.4 -19.3 -27.6 -19.25 -24.25 -20.4 L-26.7 -17.0 -23.65 -17.15 Q-26.25 -13.55 -30.95 -9.95 -35.5 -6.45 -39.75 -4.65 -37.05 -4.95 -31.1 -7.4 L-33.15 -5.6 -29.35 -5.95 Q-30.4 -5.45 -32.05 -3.8 L-34.7 -1.35 -40.45 1.65 -34.9 0.4 -37.4 2.95 -36.7 3.7 Q-39.8 5.9 -45.55 8.8 -52.55 12.35 -54.45 13.5 L-49.2 12.8 -55.9 16.65 Q-60.35 19.0 -62.4 20.9 -57.35 20.55 -50.3 15.65 -53.95 19.3 -54.3 20.15 -51.5 20.25 -46.8 16.7 -47.05 19.75 -44.15 18.7 L-39.75 16.55 Q-40.15 18.25 -40.6 19.05 -39.15 18.9 -37.25 17.8 L-34.1 15.95 Q-36.2 18.75 -37.1 21.15 -34.45 20.1 -29.45 16.05 L-29.7 17.95 Q-25.2 14.9 -23.1 11.9 L-24.45 15.55 Q-22.9 15.0 -20.25 12.35 -21.45 18.8 -26.95 23.35 -30.8 26.6 -38.6 30.05 -54.95 37.3 -67.9 39.6 L-61.65 39.6 Q-58.25 39.55 -55.4 38.5 -57.2 40.1 -58.2 42.4 L-53.9 41.35 -54.85 42.95 Q-52.95 42.55 -47.4 39.9 -51.9 46.4 -54.65 49.25 -49.3 47.15 -46.95 44.95 -48.7 47.15 -48.95 49.15 L-42.7 45.5 -43.65 47.8 Q-41.05 48.1 -39.05 45.85 -39.4 46.6 -39.5 48.3 -37.85 48.45 -35.5 46.8 L-34.75 46.25 -33.4 44.85 Q-32.6 54.1 -44.75 59.2 -59.15 63.65 -63.45 66.95 -61.2 68.75 -57.85 68.05 L-52.25 66.0 -54.75 68.65 Q-52.6 68.65 -50.75 67.6 L-55.85 74.15 -52.45 73.85 Q-53.3 75.6 -54.45 77.35 -51.7 76.7 -48.25 74.1 L-42.75 69.5 -44.5 73.5 Q-42.25 72.85 -39.2 70.45 -35.8 67.7 -34.25 67.0 -34.5 68.3 -35.6 69.95 L-37.4 72.6 Q-36.3 72.0 -35.35 71.8 -38.5 77.9 -52.45 79.45 -57.95 80.05 -72.5 79.9 -69.7 81.35 -64.95 82.15 -59.3 83.1 -57.45 83.75 L-61.6 85.85 -54.0 85.5 -56.65 88.6 Q-53.35 89.1 -48.5 87.3 L-49.5 89.1 -51.0 91.4 Q-48.45 91.7 -45.4 89.1 L-44.4 88.2 -45.0 89.1 -47.25 92.9 Q-43.15 90.95 -41.2 89.1 L-40.15 87.8 -40.5 89.1 -41.35 91.3 Q-42.2 93.4 -42.3 94.7 -39.85 94.25 -37.1 91.8 L-34.05 89.1 -32.55 87.8 -32.65 89.1 Q-32.9 90.6 -33.5 92.45 L-35.2 96.95 Q-32.7 96.7 -29.45 93.8 L-24.3 89.3 Q-24.55 91.75 -26.9 96.35 -24.25 95.3 -20.3 91.65 -20.55 92.65 -20.25 94.7 L-15.35 94.2 -12.65 93.35 Q-11.35 92.75 -11.0 92.05 -12.85 96.55 -9.15 94.5 M-2.3 92.5 L-2.1 93.1 -1.9 93.75 -1.85 93.85 Q-1.05 96.1 0.25 96.75 L0.8 95.35 Q1.1 94.05 0.75 92.65 1.35 92.7 6.1 94.6 L5.35 92.8 Q10.2 94.15 11.15 94.15 10.85 92.15 8.95 90.3 L15.6 92.55 Q14.25 90.2 13.4 89.2 L18.6 90.3 24.15 90.55 Q21.8 89.45 21.15 89.3 L32.0 91.6 29.55 89.1 28.95 88.6 30.95 89.1 33.9 89.95 Q36.9 90.85 38.95 90.65 L36.95 89.1 36.5 88.8 38.8 89.1 44.4 90.1 43.75 89.1 42.7 87.85 47.15 88.4 51.6 88.65 Q50.35 87.05 49.2 86.5 L53.8 86.65 Q56.75 86.85 58.05 86.1 L55.65 84.25 61.0 84.85 Q64.15 85.1 66.15 83.65 L64.7 82.7 Q66.45 82.85 68.8 81.75 71.35 80.55 72.5 80.4 62.3 81.35 53.4 75.35 47.35 71.4 47.05 68.55 46.6 65.05 48.2 66.65 49.75 68.25 53.15 69.45 L52.9 68.75 58.45 70.15 57.25 68.8 Q58.35 69.4 60.95 70.05 L59.55 67.75 64.8 68.05 Q63.3 66.6 59.4 64.85 55.65 63.15 54.15 61.6 58.7 63.35 60.35 63.0 L58.3 61.7 62.75 62.0 51.0 56.95 Q44.0 53.65 41.0 49.15 L44.65 51.9 Q47.05 53.3 48.95 52.8 L48.7 52.15 Q49.85 52.1 52.85 53.3 L50.3 50.25 Q52.75 51.55 54.7 51.5 L54.3 51.2 Q56.1 51.7 57.6 50.6 L53.95 46.8 Q56.95 48.55 60.65 46.1 59.25 44.9 55.6 44.65 L49.65 44.45 39.7 43.6 Q33.8 42.8 30.3 40.55 26.3 37.95 22.45 32.0 18.65 26.0 17.95 21.25" fill="none" stroke="#000000" stroke-linecap="round" stroke-linejoin="miter-clip" stroke-miterlimit="3.0" stroke-width="1.0"/>
    <path d="M-9.15 94.5 L-8.7 94.2 Q-6.5 92.8 -3.2 90.05 L-2.7 91.45 -2.3 92.5" fill="none" stroke="#000000" stroke-linecap="round" stroke-linejoin="miter-clip" stroke-miterlimit="3.0" stroke-opacity="0.6" stroke-width="1.0"/>
    <path d="M-19.6 -63.1 L-18.7 -64.2 Q-17.95 -65.4 -17.85 -66.55 L-16.85 -63.95 Q-15.3 -66.55 -14.2 -67.6 L-12.7 -64.2 -11.2 -67.45 -10.45 -64.35 -9.05 -66.55 M-22.9 -50.55 L-17.1 -52.15 Q-18.15 -50.6 -19.05 -47.95 -17.25 -48.0 -15.4 -49.5 L-12.4 -52.4 Q-12.6 -50.05 -13.0 -48.9 L-7.95 -53.35 M-21.6 -29.25 L-20.1 -30.55 Q-17.65 -32.8 -16.35 -34.7 L-17.6 -29.9 Q-17.05 -30.75 -15.3 -32.0 L-15.25 -28.0 -11.25 -32.75 -11.35 -30.4 Q-8.85 -32.8 -7.3 -36.0 M-33.4 44.85 L-30.2 40.65 Q-30.1 43.3 -31.1 45.85 -30.3 45.0 -28.3 44.15 -28.55 45.2 -28.35 47.3 -26.65 45.95 -23.9 42.6 L-24.3 46.65 Q-22.8 45.55 -20.1 42.6 M-5.15 -20.45 Q-4.05 -13.15 -3.2 -11.2 L-2.55 -14.3 -0.75 -11.3 Q-0.7 -13.25 -0.8 -14.05 1.45 -12.1 3.05 -11.2 L2.4 -15.65 Q3.85 -14.85 6.3 -12.0 8.6 -9.25 10.3 -8.55 10.3 -11.2 10.0 -12.45 L13.65 -8.8 M17.95 21.25 Q16.6 21.25 15.4 20.65 L14.85 20.3 14.1 22.2 Q11.1 19.1 10.45 16.5 L8.95 18.6 8.05 17.95 8.0 21.1 5.05 16.45 Q3.55 13.7 3.75 11.15 M-3.6 37.05 L-8.7 46.8 Q-5.85 45.65 -2.4 41.6 -3.65 44.6 -6.45 50.6 -5.0 49.9 0.3 44.6 -0.1 46.75 0.3 49.0 L2.35 44.95 3.95 47.7 Q4.9 49.3 6.1 49.85 5.0 46.1 7.35 47.15 8.2 47.55 11.1 49.85 L10.6 47.15 Q12.4 47.7 15.5 49.4 L15.65 49.45 15.2 47.95 15.5 47.95 Q17.15 47.9 18.75 48.7 L19.4 49.05 18.75 48.05 18.1 47.25 18.75 47.35 21.85 48.3 25.65 49.45 M-14.25 64.0 Q-19.7 71.65 -21.7 73.65 -19.5 73.9 -14.95 70.75 -16.45 74.0 -16.9 76.2 -15.7 75.95 -14.25 74.7 L-13.35 73.9 -11.9 76.2 Q-9.5 75.6 -6.7 70.85 L-6.1 76.1 Q-4.05 75.4 -3.95 72.3 -2.35 73.35 0.0 77.15 L0.45 75.2 Q2.35 76.35 4.3 78.05 L4.1 75.45 Q5.7 75.95 8.8 77.35 8.7 75.5 8.25 74.55 L11.2 75.85 Q13.0 76.75 14.2 76.9 M-33.55 11.0 L-30.85 9.0 -30.7 8.9 -26.15 5.1 Q-26.2 6.95 -27.7 10.4 L-27.85 10.75 -27.35 10.4 -25.5 9.0 Q-23.4 7.4 -21.95 6.0 L-22.45 9.15 -20.2 6.75 -18.8 5.3 -18.85 7.9 Q-17.1 6.95 -16.1 5.0 L-15.95 4.65 -15.5 7.75 Q-11.65 4.05 -11.7 0.0 M-35.35 71.8 Q-34.25 71.55 -33.25 70.9 L-31.25 69.15 Q-29.35 66.95 -28.6 66.55 L-31.5 73.35 Q-28.85 69.7 -26.95 69.25" fill="none" stroke="#000000" stroke-linecap="round" stroke-linejoin="miter-clip" stroke-miterlimit="3.0" stroke-opacity="0.4" stroke-width="1.0"/>
  </g>
</svg>
