<?xml version="1.0" encoding="UTF-8" standalone="no"?>
<svg xmlns:xlink="http://www.w3.org/1999/xlink" height="29.1px" width="558.35px" xmlns="http://www.w3.org/2000/svg">
  <g transform="matrix(1.0, 0.0, 0.0, 1.0, 279.15, 29.25)">
    <path d="M44.0 -28.75 L73.35 -28.75 73.35 -23.15 73.35 -28.75 102.7 -28.75 132.0 -28.75 161.35 -28.75 190.7 -28.75 220.0 -28.75 278.7 -28.75 278.7 -23.15 278.35 -23.15 220.0 -23.15 190.7 -23.15 161.35 -23.15 132.0 -23.15 132.0 -28.75 132.0 -23.15 102.7 -23.15 102.7 -28.75 102.7 -23.15 73.35 -23.15 44.0 -23.15 44.0 -28.75 44.0 -23.15 16.85 -23.15 -44.0 -23.15 -73.3 -23.15 -73.3 -28.75 -44.0 -28.75 44.0 -28.75 M-278.15 -23.15 L-278.65 -23.15 -278.65 -28.75 -249.3 -28.75 -220.0 -28.75 -190.65 -28.75 -161.3 -28.75 -102.65 -28.75 -73.3 -28.75 -73.3 -23.15 -102.65 -23.15 -161.3 -23.15 -161.3 -28.75 -161.3 -23.15 -190.65 -23.15 -220.0 -23.15 -220.0 -28.75 -220.0 -23.15 -249.3 -23.15 -278.15 -23.15 M161.35 -28.75 L161.35 -23.15 161.35 -28.75 M190.7 -28.75 L190.7 -23.15 190.7 -28.75 M220.0 -28.75 L220.0 -23.15 220.0 -28.75 M-249.3 -28.75 L-249.3 -23.15 -249.3 -28.75 M-190.65 -28.75 L-190.65 -23.15 -190.65 -28.75 M-102.65 -28.75 L-102.65 -23.15 -102.65 -28.75 M-44.0 -28.75 L-44.0 -23.15 -44.0 -28.75" fill="#000000" fill-opacity="0.101960786" fill-rule="evenodd" stroke="none"/>
    <path d="M44.0 -23.15 L73.35 -23.15 102.7 -23.15 132.0 -23.15 161.35 -23.15 190.7 -23.15 220.0 -23.15 278.35 -23.15 278.35 -18.85 -278.15 -18.85 -278.15 -23.15 -249.3 -23.15 -220.0 -23.15 -190.65 -23.15 -161.3 -23.15 -102.65 -23.15 -73.3 -23.15 -44.0 -23.15 16.85 -23.15 44.0 -23.15 M256.85 -5.15 L256.85 -0.65 -268.55 -0.65 -268.55 -5.15 256.85 -5.15" fill="#000000" fill-opacity="0.2" fill-rule="evenodd" stroke="none"/>
    <path d="M278.35 -18.85 L278.35 -5.15 256.85 -5.15 -268.55 -5.15 -278.15 -5.15 -278.15 -18.85 278.35 -18.85" fill="#ffffff" fill-opacity="0.0" fill-rule="evenodd" stroke="none"/>
    <path d="M73.35 -28.75 L44.0 -28.75 -44.0 -28.75 -73.3 -28.75 -102.65 -28.75 -161.3 -28.75 -190.65 -28.75 -220.0 -28.75 -249.3 -28.75 -278.65 -28.75 -278.65 -23.15 -278.15 -23.15 -278.15 -18.85 -278.15 -5.15 -268.55 -5.15 M73.35 -28.75 L102.7 -28.75 132.0 -28.75 161.35 -28.75 190.7 -28.75 220.0 -28.75 278.7 -28.75 278.7 -23.15 278.35 -23.15 278.35 -18.85 278.35 -5.15 256.85 -5.15 M256.85 -0.65 L-268.55 -0.65" fill="none" stroke="#000000" stroke-linecap="round" stroke-linejoin="miter-clip" stroke-miterlimit="3.0" stroke-width="1.0"/>
    <path d="M256.85 -5.15 L256.85 -0.65 M-268.55 -0.65 L-268.55 -5.15" fill="none" stroke="#000000" stroke-linecap="round" stroke-linejoin="round" stroke-opacity="0.6" stroke-width="1.0"/>
    <path d="M44.0 -23.15 L73.35 -23.15 102.7 -23.15 132.0 -23.15 161.35 -23.15 190.7 -23.15 220.0 -23.15 278.35 -23.15 M-44.0 -23.15 L16.85 -23.15 44.0 -23.15 M-278.15 -23.15 L-249.3 -23.15 -220.0 -23.15 -190.65 -23.15 -161.3 -23.15 -102.65 -23.15 -73.3 -23.15 -44.0 -23.15 M-268.55 -5.15 L256.85 -5.15" fill="none" stroke="#000000" stroke-linecap="round" stroke-linejoin="miter-clip" stroke-miterlimit="3.0" stroke-opacity="0.6" stroke-width="1.0"/>
    <path d="M44.0 -28.75 L44.0 -23.15 M73.35 -23.15 L73.35 -28.75 M102.7 -23.15 L102.7 -28.75 M161.35 -23.15 L161.35 -28.75 M132.0 -28.75 L132.0 -23.15 M190.7 -23.15 L190.7 -28.75 M220.0 -23.15 L220.0 -28.75 M-249.3 -23.15 L-249.3 -28.75 M-220.0 -28.75 L-220.0 -23.15 M-190.65 -23.15 L-190.65 -28.75 M-161.3 -28.75 L-161.3 -23.15 M-102.65 -23.15 L-102.65 -28.75 M-73.3 -28.75 L-73.3 -23.15 M-44.0 -23.15 L-44.0 -28.75" fill="none" stroke="#000000" stroke-linecap="round" stroke-linejoin="miter-clip" stroke-miterlimit="3.0" stroke-opacity="0.4" stroke-width="1.0"/>
    <path d="M63.45 -9.35 L55.75 -9.35 Q51.4 -9.15 48.3 -7.85 51.05 -6.25 57.6 -7.15 61.2 -7.65 67.5 -9.05 L77.15 -9.9 Q83.5 -10.25 86.35 -11.0 77.45 -13.15 65.8 -13.75 59.8 -14.1 44.45 -14.15 L22.55 -12.05 20.0 -11.85 19.8 -11.8 19.6 -11.8 16.85 -11.75 -28.75 -9.75 -40.1 -9.4 -51.65 -10.85 -62.05 -12.7 -72.65 -13.55 M149.35 -13.0 Q126.3 -13.45 116.35 -15.9 95.1 -21.25 32.15 -19.8 L30.85 -19.75 29.4 -19.7 -58.75 -16.45 -84.95 -18.15 -103.4 -19.0 -111.1 -18.9 Q-107.4 -16.35 -103.4 -14.35 -90.15 -7.7 -74.05 -6.9 L-65.8 -7.35 Q-60.7 -8.3 -66.0 -10.6 -70.0 -12.35 -80.65 -12.35 M78.1 -5.75 Q80.65 -5.8 87.1 -7.5 93.85 -9.3 96.3 -9.5 113.35 -10.8 131.75 -9.4 L146.15 -10.2 M133.85 -20.9 L130.3 -21.7 119.0 -22.25 Q121.0 -19.0 128.6 -18.1 130.05 -17.95 148.8 -17.85 M277.7 -16.55 L275.15 -16.5 272.65 -16.5 Q228.95 -16.2 219.15 -16.45 L193.3 -18.15 Q177.25 -19.35 167.5 -18.9 183.4 -7.9 204.05 -6.9 L212.15 -7.35 Q217.2 -8.3 212.0 -10.6 208.0 -12.35 197.5 -12.35 M278.0 -9.35 L277.65 -9.35 Q241.45 -9.1 237.5 -9.4 L226.15 -10.85 215.85 -12.7 205.4 -13.55 M-278.0 -14.15 Q-271.65 -9.95 -250.8 -12.65 L-235.95 -14.15 Q-220.35 -14.1 -214.3 -13.75 -202.45 -13.15 -193.45 -11.0 -196.35 -10.25 -202.75 -9.9 L-212.55 -9.05 Q-218.95 -7.65 -222.6 -7.15 -229.2 -6.25 -232.0 -7.85 -228.9 -9.15 -224.45 -9.35 L-216.65 -9.35 M-201.8 -5.75 Q-199.2 -5.8 -192.7 -7.5 -185.85 -9.3 -183.35 -9.5 -171.05 -10.4 -158.05 -9.95 L-147.4 -9.4 -121.45 -9.65 M-127.05 -12.05 Q-148.5 -12.65 -158.05 -14.75 L-162.95 -15.9 Q-185.0 -21.35 -222.0 -21.35 M-142.85 -20.4 L-148.8 -21.7 -158.05 -22.5 -160.3 -22.25 Q-159.55 -21.05 -158.05 -20.15 -155.45 -18.65 -150.6 -18.1 L-129.2 -18.85" fill="none" stroke="#000000" stroke-linecap="round" stroke-linejoin="miter-clip" stroke-miterlimit="3.0" stroke-opacity="0.4" stroke-width="1.0"/>
  </g>
</svg>
