<?xml version="1.0" encoding="UTF-8" standalone="no"?>
<svg xmlns:xlink="http://www.w3.org/1999/xlink" height="54.95px" width="184.4px" xmlns="http://www.w3.org/2000/svg">
  <g transform="matrix(1.0, 0.0, 0.0, 1.0, 92.2, 27.45)">
    <path d="M53.75 -0.8 L59.1 -0.8 91.7 -0.8 91.7 3.35 81.25 3.35 74.0 3.35 -74.6 3.35 -81.85 3.35 -91.7 3.35 -91.7 -0.8 -61.2 -0.8 -55.85 -0.8 -52.55 -0.8 -48.75 -0.8 46.65 -0.8 50.45 -0.8 53.75 -0.8 M59.1 -19.05 L53.75 -19.05 -55.85 -19.05 -61.2 -19.05 -68.5 -19.05 -68.5 -26.95 66.8 -26.95 66.8 -19.05 59.1 -19.05" fill="#ffffff" fill-opacity="0.0" fill-rule="evenodd" stroke="none"/>
    <path d="M53.75 -14.9 L53.75 -19.05 59.1 -19.05 59.1 -0.8 53.75 -0.8 53.75 -14.9 M-55.85 -19.05 L-55.85 -14.9 -55.85 -0.8 -61.2 -0.8 -61.2 -19.05 -55.85 -19.05 M81.25 3.35 L81.25 27.0 74.0 27.0 74.0 5.8 74.0 3.35 81.25 3.35 M59.1 5.8 L59.1 18.25 53.75 18.25 53.75 5.8 59.1 5.8 M-55.85 5.8 L-55.85 18.25 -61.2 18.25 -61.2 5.8 -55.85 5.8 M-74.6 5.8 L-74.6 27.0 -81.85 27.0 -81.85 3.35 -74.6 3.35 -74.6 5.8" fill="#000000" fill-opacity="0.101960786" fill-rule="evenodd" stroke="none"/>
    <path d="M53.75 -19.05 L53.75 -14.9 50.45 -14.9 46.65 -14.9 50.45 -14.9 50.45 -0.8 46.65 -0.8 46.65 -14.9 -48.75 -14.9 -52.55 -14.9 -48.75 -14.9 -48.75 -0.8 -52.55 -0.8 -52.55 -14.9 -55.85 -14.9 -55.85 -19.05 53.75 -19.05 M74.0 3.35 L74.0 5.8 70.45 5.8 70.45 20.95 65.2 20.95 65.2 5.8 59.1 5.8 53.75 5.8 50.45 5.8 50.45 13.3 46.65 13.3 46.65 5.8 -48.75 5.8 -48.75 13.3 -52.55 13.3 -52.55 5.8 -55.85 5.8 -61.2 5.8 -67.1 5.8 -67.1 21.6 -72.35 21.6 -72.35 5.8 -74.6 5.8 -74.6 3.35 74.0 3.35 M65.2 5.8 L70.45 5.8 65.2 5.8 M46.65 5.8 L50.45 5.8 46.65 5.8 M-52.55 5.8 L-48.75 5.8 -52.55 5.8 M-72.35 5.8 L-67.1 5.8 -72.35 5.8" fill="#000000" fill-opacity="0.15294118" fill-rule="evenodd" stroke="none"/>
    <path d="M53.75 -14.9 L53.75 -0.8 50.45 -0.8 50.45 -14.9 53.75 -14.9 M59.1 -0.8 L59.1 -19.05 66.8 -19.05 66.8 -26.95 -68.5 -26.95 -68.5 -19.05 -61.2 -19.05 -61.2 -0.8 -91.7 -0.8 -91.7 3.35 -81.85 3.35 -81.85 27.0 -74.6 27.0 -74.6 5.8 -72.35 5.8 -72.35 21.6 -67.1 21.6 -67.1 5.8 -61.2 5.8 -61.2 18.25 -55.85 18.25 -55.85 5.8 -52.55 5.8 -52.55 13.3 -48.75 13.3 -48.75 5.8 46.65 5.8 46.65 13.3 50.45 13.3 50.45 5.8 53.75 5.8 53.75 18.25 59.1 18.25 59.1 5.8 65.2 5.8 65.2 20.95 70.45 20.95 70.45 5.8 74.0 5.8 74.0 27.0 81.25 27.0 81.25 3.35 91.7 3.35 91.7 -0.8 59.1 -0.8 M-55.85 -14.9 L-52.55 -14.9 -52.55 -0.8 -55.85 -0.8 -55.85 -14.9 M-48.75 -14.9 L46.65 -14.9 46.65 -0.8 -48.75 -0.8 -48.75 -14.9" fill="none" stroke="#000000" stroke-linecap="round" stroke-linejoin="miter-clip" stroke-miterlimit="3.0" stroke-width="1.0"/>
    <path d="M53.75 -19.05 L53.75 -14.9 M53.75 -0.8 L59.1 -0.8 M59.1 -19.05 L53.75 -19.05 -55.85 -19.05 -55.85 -14.9 M-52.55 -14.9 L-48.75 -14.9 M46.65 -14.9 L50.45 -14.9 M46.65 -0.8 L50.45 -0.8 M-61.2 -19.05 L-55.85 -19.05 M81.25 3.35 L74.0 3.35 74.0 5.8 M70.45 5.8 L65.2 5.8 M59.1 5.8 L53.75 5.8 M50.45 5.8 L46.65 5.8 M-52.55 -0.8 L-48.75 -0.8 M-61.2 -0.8 L-55.85 -0.8 M-48.75 5.8 L-52.55 5.8 M-74.6 3.35 L-74.6 5.8 M-67.1 5.8 L-72.35 5.8 M-55.85 5.8 L-61.2 5.8 M-74.6 3.35 L-81.85 3.35 M74.0 3.35 L-74.6 3.35" fill="none" stroke="#000000" stroke-linecap="round" stroke-linejoin="miter-clip" stroke-miterlimit="3.0" stroke-opacity="0.6" stroke-width="1.0"/>
  </g>
</svg>
