<?xml version="1.0" encoding="UTF-8" standalone="no"?>
<svg xmlns:xlink="http://www.w3.org/1999/xlink" height="58.6px" width="149.7px" xmlns="http://www.w3.org/2000/svg">
  <g transform="matrix(1.0, 0.0, 0.0, 1.0, 41.6, 10.35)">
    <path d="M90.95 -6.8 L90.6 -7.35 90.4 -7.65 90.25 -7.85 90.6 -7.9 90.8 -7.95 96.2 -9.35 96.55 -9.45 96.65 -9.5 96.75 -9.5 96.8 -9.55 96.8 -9.3 97.05 -3.3 Q97.3 2.95 97.5 4.5 L98.15 8.4 98.95 11.7 101.95 19.95 105.2 25.45 107.6 28.35 107.55 28.4 103.4 30.0 Q86.4 39.3 59.8 35.85 3.55 54.85 -40.6 43.55 L-40.95 43.45 -41.1 43.4 Q31.2 27.4 31.95 26.65 34.0 24.7 40.6 23.5 L48.65 22.4 48.7 22.4 44.4 18.1 44.15 17.9 54.65 17.5 60.35 17.6 63.1 17.7 63.25 17.7 60.35 15.35 58.95 14.4 58.7 14.2 59.55 14.05 60.35 13.95 61.4 13.85 61.6 14.05 68.75 21.55 Q71.25 24.45 72.5 26.55 L73.8 15.25 73.9 15.5 79.7 28.35 79.7 28.4 79.8 28.55 75.75 0.3 75.7 0.1 86.0 -1.35 88.75 -1.9 92.55 -2.8 92.4 -3.3 91.95 -4.7 91.4 -5.9 90.95 -6.8" fill="#ffffff" fill-opacity="0.0" fill-rule="evenodd" stroke="none"/>
    <path d="M75.75 0.3 L79.8 28.55 73.9 15.45 73.9 15.5 73.8 15.25 72.5 26.55 Q71.25 24.45 68.75 21.55 L61.6 14.05 Q65.25 13.7 71.4 13.85 70.65 13.2 69.7 11.25 68.65 9.1 68.0 8.45 L70.7 6.6 Q71.8 5.65 74.15 5.8 L66.0 0.6 75.75 0.3" fill="#000000" fill-opacity="0.101960786" fill-rule="evenodd" stroke="none"/>
    <path d="M101.95 19.95 L98.95 11.7 98.25 8.6 97.6 4.7 Q97.4 3.15 97.15 -3.1 L96.9 -9.35" fill="none" stroke="#000000" stroke-linecap="round" stroke-linejoin="miter-clip" stroke-miterlimit="3.0" stroke-opacity="0.6" stroke-width="1.0"/>
    <path d="M90.95 -6.8 L91.4 -5.9 M48.65 22.4 L40.6 23.5 Q34.0 24.7 31.95 26.65 31.2 27.4 -41.1 43.4 L-40.95 43.45 -40.6 43.55 Q3.55 54.85 59.8 35.85 86.4 39.3 103.4 30.0 L107.55 28.4 107.6 28.35 105.2 25.45 101.95 19.95 M96.9 -9.35 L96.85 -9.3 96.8 -9.3 M90.4 -7.65 L90.35 -7.65 90.7 -7.15 90.95 -6.8 M96.9 -9.35 L98.75 -9.85 M61.6 14.05 Q65.25 13.7 71.4 13.85 70.65 13.2 69.7 11.25 68.65 9.1 68.0 8.45 L70.7 6.6 Q71.8 5.65 74.15 5.8 L66.0 0.6 75.75 0.3 M44.4 18.1 L44.25 18.1 48.65 22.4 M63.1 17.7 L60.45 15.55 58.8 14.4 58.95 14.4" fill="none" stroke="#000000" stroke-linecap="round" stroke-linejoin="round" stroke-opacity="0.6" stroke-width="1.0"/>
  </g>
</svg>
