<?xml version="1.0" encoding="UTF-8" standalone="no"?>
<svg xmlns:xlink="http://www.w3.org/1999/xlink" height="438.8px" width="1234.9px" xmlns="http://www.w3.org/2000/svg">
  <g transform="matrix(1.0, 0.0, 0.0, 1.0, 618.45, 218.5)">
    <path d="M-484.85 218.2 L-493.75 218.15 -556.15 218.2 -556.15 218.05 -491.25 218.1 -490.4 218.1 -484.85 218.1 -484.85 218.2 M-491.25 218.1 L-493.75 218.15 -491.25 218.1" fill="#24677e" fill-rule="evenodd" stroke="none"/>
    <path d="M-478.0 218.15 L-484.85 218.2 -484.85 218.1 -478.0 218.15" fill="#134f62" fill-rule="evenodd" stroke="none"/>
    <path d="M-573.95 -186.6 L578.15 -186.6 578.15 -166.55 -573.95 -166.55 -573.95 -186.6" fill="#ffffff" fill-opacity="0.0" fill-rule="evenodd" stroke="none"/>
    <path d="M578.2 -186.6 L591.1 -186.6 578.2 -186.6 578.15 -186.6 -573.95 -186.6 -584.45 -186.6 -573.95 -186.6 -573.95 -166.55 -573.95 -145.75 -556.15 -142.55 -556.15 217.85 -556.85 218.05 -556.15 218.05 -556.15 218.2 -556.15 218.25 -558.8 218.25 -584.45 218.25 -584.45 -186.6 -617.95 -186.6 -617.95 -218.0 615.95 -218.0 615.95 -186.6 591.1 -186.6 591.1 218.25 562.8 218.25 562.8 218.2 562.8 -143.05 578.2 -145.75 578.2 -186.6 M-558.8 218.25 L-556.15 218.2 -558.8 218.25" fill="#000000" fill-opacity="0.09803922" fill-rule="evenodd" stroke="none"/>
    <path d="M578.2 -145.75 L562.8 -143.05 562.8 218.2 562.45 218.2 562.65 218.25 562.8 218.3 560.2 218.3 562.65 218.25 560.2 218.3 484.05 218.25 97.2 218.2 -478.0 218.15 -484.85 218.1 -490.4 218.1 -491.25 218.1 -556.15 218.05 -556.85 218.05 -556.15 217.85 -484.85 197.0 -556.15 217.85 -556.15 -142.55 -573.95 -145.75 578.2 -145.75 M562.8 -143.05 L487.1 -129.95 562.8 -143.05 M562.45 218.2 L487.1 196.55 562.45 218.2 M-484.85 197.0 L-484.4 196.85 487.1 196.55 487.1 -129.95 -484.85 -129.95 -484.85 197.0 M-484.85 -129.95 L-485.9 -129.95 -556.15 -142.55 -485.9 -129.95 -484.85 -129.95" fill="#000000" fill-opacity="0.2" fill-rule="evenodd" stroke="none"/>
    <path d="M487.1 -129.95 L487.1 196.55 -484.4 196.85 -484.85 197.0 -484.85 -129.95 487.1 -129.95" fill="#000000" fill-opacity="0.29803923" fill-rule="evenodd" stroke="none"/>
    <path d="M578.2 -186.6 L578.2 -145.75 -573.95 -145.75 -573.95 -166.55 578.15 -166.55 578.15 -186.6 578.2 -186.6" fill="#ffffff" fill-opacity="0.6" fill-rule="evenodd" stroke="none"/>
    <path d="M562.8 218.25 L591.1 218.25 591.1 -186.6 615.95 -186.6 615.95 -218.0 -617.95 -218.0 -617.95 -186.6 -584.45 -186.6 -584.45 218.25 -558.8 218.25 -556.15 218.2 -493.75 218.15 -491.25 218.1 -490.4 218.1 -484.85 218.1 -478.0 218.15 97.2 218.2 484.05 218.25 560.2 218.3 562.65 218.25 562.8 218.25" fill="none" stroke="#000000" stroke-linecap="butt" stroke-linejoin="miter-clip" stroke-miterlimit="4.0" stroke-width="1.0"/>
    <path d="M578.2 -145.75 L562.8 -143.05 562.8 218.2 562.8 218.25 M-584.45 -186.6 L-573.95 -186.6 -573.95 -166.55 -573.95 -145.75 578.2 -145.75 M578.15 -186.6 L578.2 -186.6 M578.15 -186.6 L578.15 -166.55 -573.95 -166.55 M487.1 -129.95 L562.8 -143.05 M562.8 218.3 L562.65 218.25 562.45 218.2 562.8 218.2 M-478.0 218.15 L-484.85 218.2 -493.75 218.15 M-556.15 218.2 L-556.15 218.25 M487.1 196.55 L562.45 218.2 M487.1 -129.95 L487.1 196.55 -484.4 196.85 -484.85 197.0 -556.15 217.85 -556.85 218.05 -556.15 218.05 -556.15 218.2 M-573.95 -145.75 L-556.15 -142.55 -485.9 -129.95 -484.85 -129.95 487.1 -129.95 M-484.85 218.1 L-484.85 218.2 M-484.85 -129.95 L-484.85 197.0 M-556.15 217.85 L-556.15 -142.55" fill="none" stroke="#000000" stroke-linecap="butt" stroke-linejoin="miter-clip" stroke-miterlimit="4.0" stroke-opacity="0.6" stroke-width="1.0"/>
    <path d="M591.1 -186.6 L578.2 -186.6 M-573.95 -186.6 L578.15 -186.6" fill="none" stroke="#000000" stroke-linecap="butt" stroke-linejoin="miter-clip" stroke-miterlimit="4.0" stroke-opacity="0.6" stroke-width="1.0"/>
    <path d="M578.2 -186.6 L578.2 -145.75" fill="none" stroke="#000000" stroke-linecap="round" stroke-linejoin="miter-clip" stroke-miterlimit="4.0" stroke-opacity="0.6" stroke-width="1.0"/>
    <path d="M614.9 -209.6 L-614.75 -209.6 -614.75 -214.9 614.9 -214.9 614.9 -209.6" fill="#ffffff" fill-opacity="0.8" fill-rule="evenodd" stroke="none"/>
  </g>
</svg>
