<?xml version="1.0" encoding="UTF-8" standalone="no"?>
<svg xmlns:xlink="http://www.w3.org/1999/xlink" height="414.55px" width="422.8px" xmlns="http://www.w3.org/2000/svg">
  <g transform="matrix(1.0, 0.0, 0.0, 1.0, 211.4, 179.65)">
    <path d="M5.35 233.4 L4.25 233.4 4.25 233.35 5.35 233.4" fill="#e3e3e3" fill-rule="evenodd" stroke="none"/>
    <path d="M-3.35 92.9 L-3.45 93.45 -4.1 96.85 -4.2 97.4 -3.85 95.25 -4.2 97.4 -4.8 100.15 -4.9 100.6 -5.3 102.35 Q-6.55 107.5 -8.65 112.8 -5.85 103.55 -3.85 95.25 L-3.35 92.9 M-10.65 119.2 L-11.5 121.95 -11.95 123.05 -12.3 123.8 -11.9 122.9 -10.65 119.2 M-11.95 123.05 L-11.9 122.9 -11.5 121.95 -11.9 122.9 -11.95 123.05" fill="#ffffff" fill-rule="evenodd" stroke="none"/>
    <path d="M1.2 -179.15 L10.45 -140.4 9.2 -140.4 -25.6 -138.7 -5.5 -179.15 -4.0 -179.15 1.2 -179.15 M54.5 42.5 L35.0 81.45 5.0 22.75 -34.2 80.95 -53.6 17.95 -94.0 70.6 -107.1 25.25 -58.25 -73.0 Q-30.9 -66.95 -6.25 -65.75 2.4 -65.35 10.7 -65.45 L18.35 -65.75 28.15 -66.45 54.25 42.95 54.5 42.5 M-80.25 233.6 L-210.9 234.05 -115.3 41.75 -99.1 97.4 -58.35 44.35 -38.4 109.2 3.55 46.9 35.1 108.7 58.7 61.5 91.85 200.25 Q84.65 194.2 77.55 187.5 L77.2 187.2 76.9 186.9 76.35 186.35 76.0 186.05 75.7 185.7 75.35 185.4 74.7 184.75 74.0 184.1 73.7 183.8 72.2 182.3 71.1 181.2 70.75 180.85 70.1 180.2 Q38.0 147.2 14.95 105.2 L14.8 104.9 13.9 103.2 Q6.25 88.55 0.0 72.95 -0.9 82.1 -3.35 92.9 L-3.85 95.25 Q-5.85 103.55 -8.65 112.8 L-8.7 112.9 -9.7 116.15 -10.65 119.2 -11.9 122.9 -12.3 123.8 -17.6 134.85 -24.4 145.3 -24.6 145.6 -25.35 146.55 Q-42.4 168.85 -70.1 177.15 -89.9 183.1 -113.0 181.45 L-126.95 179.75 -132.2 178.65 Q-123.05 208.25 -102.4 223.75 -97.55 227.4 -93.05 229.75 -88.05 232.35 -83.45 233.5 L-83.55 233.55 -80.25 233.6" fill="#ffffff" fill-opacity="0.0" fill-rule="evenodd" stroke="none"/>
    <path d="M93.2 233.2 L92.1 233.35 88.55 233.85 85.1 234.2 84.6 234.2 Q78.4 234.6 72.9 234.1 L68.6 233.5 68.45 233.35 68.05 233.0 Q53.95 220.7 25.85 146.5 19.4 129.5 12.8 110.65 L7.55 95.5 0.0 72.95 Q6.25 88.55 13.9 103.2 L14.8 104.9 14.95 105.2 Q38.0 147.2 70.1 180.2 L70.75 180.85 71.1 181.2 72.2 182.3 73.7 183.8 74.0 184.1 74.7 184.75 75.35 185.4 75.7 185.7 76.0 186.05 76.35 186.35 76.9 186.9 77.2 187.2 77.55 187.5 Q84.65 194.2 91.85 200.25 100.75 207.7 109.85 214.05 118.05 219.8 123.1 222.5 108.45 230.55 93.2 233.2 M-4.2 97.4 Q-6.8 112.5 -10.3 126.6 -12.5 135.35 -15.1 143.7 -17.9 152.85 -21.05 161.05 L-22.0 163.6 -22.55 164.95 -23.45 167.15 -23.9 168.25 -24.55 169.8 -25.25 171.4 -26.55 174.3 -26.95 175.25 -27.25 175.9 -27.55 176.55 -28.0 177.45 -28.35 178.1 -29.8 181.15 -30.0 181.5 -30.4 182.3 -30.7 182.85 -33.2 187.55 -33.35 187.85 -33.55 188.15 -33.9 188.8 -34.1 189.15 -34.35 189.55 -34.6 190.0 Q-51.45 216.35 -69.3 227.15 -75.55 230.95 -83.15 233.45 L-83.45 233.5 Q-88.05 232.35 -93.05 229.75 -97.55 227.4 -102.4 223.75 -123.05 208.25 -132.2 178.65 L-126.95 179.75 -113.0 181.45 Q-89.9 183.1 -70.1 177.15 -42.4 168.85 -25.35 146.55 L-24.6 145.6 -24.4 145.3 -17.6 134.85 -12.3 123.8 -11.95 123.05 -11.5 121.95 -10.65 119.2 -9.7 116.15 -8.7 112.9 -8.65 112.8 Q-6.55 107.5 -5.3 102.35 L-4.9 100.6 -4.8 100.15 -4.2 97.4" fill="#ffffff" fill-opacity="0.2" fill-rule="evenodd" stroke="none"/>
    <path d="M14.1 -179.15 L16.0 -179.15 34.8 -139.4 10.45 -140.4 1.2 -179.15 14.1 -179.15 M28.15 -66.45 L30.15 -66.7 Q41.85 -68.05 52.2 -70.45 L55.05 -71.1 65.65 -74.15 115.45 31.1 99.05 74.6 66.65 18.15 54.5 42.5 54.25 42.95 28.15 -66.45 M122.75 46.55 L122.55 46.05 210.9 232.8 93.2 233.2 Q108.45 230.55 123.1 222.5 118.05 219.8 109.85 214.05 100.75 207.7 91.85 200.25 L58.7 61.5 67.35 44.15 101.35 103.3 122.75 46.55" fill="#000000" fill-opacity="0.15294118" fill-rule="evenodd" stroke="none"/>
    <path d="M68.45 233.35 L5.35 233.4 4.25 233.35 4.25 233.4 -80.25 233.6 -83.55 233.55 -83.15 233.45 Q-75.55 230.95 -69.3 227.15 -51.45 216.35 -34.6 190.0 L-34.35 189.55 -34.1 189.15 -33.9 188.8 -33.55 188.15 -33.35 187.85 -33.2 187.55 -30.7 182.85 -30.4 182.3 -30.0 181.5 -29.8 181.15 -28.35 178.1 -28.0 177.45 -27.55 176.55 -27.25 175.9 -26.95 175.25 -26.55 174.3 -25.25 171.4 -24.55 169.8 -23.9 168.25 -23.45 167.15 -22.55 164.95 -22.0 163.6 -21.05 161.05 Q-17.9 152.85 -15.1 143.7 -12.5 135.35 -10.3 126.6 -6.8 112.5 -4.2 97.4 L-4.1 96.85 -3.45 93.45 -3.35 92.9 Q-0.9 82.1 0.0 72.95 L7.55 95.5 12.8 110.65 Q19.4 129.5 25.85 146.5 53.95 220.7 68.05 233.0 L68.45 233.35" fill="#000000" fill-opacity="0.3019608" fill-rule="evenodd" stroke="none"/>
    <path d="M34.8 -139.4 L16.0 -179.15 14.1 -179.15 M65.65 -74.15 L115.45 31.1 M-107.1 25.25 L-58.25 -73.0 M122.75 46.55 L122.55 46.05 210.9 232.8 93.2 233.2 92.1 233.35 88.55 233.85 85.1 234.2 84.6 234.2 Q78.4 234.6 72.9 234.1 L68.6 233.5 68.45 233.35 5.35 233.4 4.25 233.4 -80.25 233.6 -210.9 234.05 -115.3 41.75 M-83.15 233.45 L-83.55 233.55 -80.25 233.6 M68.45 233.35 L68.05 233.0 M4.25 233.4 L4.25 233.35 5.35 233.4 M-4.0 -179.15 L-5.5 -179.15 -25.6 -138.7 M-83.45 233.5 L-83.15 233.45 M-83.55 233.55 L-83.45 233.5" fill="none" stroke="#000000" stroke-linecap="round" stroke-linejoin="round" stroke-width="1.0"/>
    <path d="M14.1 -179.15 L1.2 -179.15 -4.0 -179.15 M68.05 233.0 Q53.95 220.7 25.85 146.5 19.4 129.5 12.8 110.65 L7.55 95.5 0.0 72.95 Q-0.9 82.1 -3.35 92.9 L-3.85 95.25 Q-5.85 103.55 -8.65 112.8 L-8.7 112.9 -9.7 116.15 -10.65 119.2 -11.5 121.95 -11.9 122.9 -11.95 123.05 M-4.2 97.4 Q-6.8 112.5 -10.3 126.6 -12.5 135.35 -15.1 143.7 -17.9 152.85 -21.05 161.05 L-22.0 163.6 -22.55 164.95 -23.45 167.15 -23.9 168.25 -24.55 169.8 -25.25 171.4 -26.55 174.3 -26.95 175.25 -27.25 175.9 -27.55 176.55 -28.0 177.45 -28.35 178.1 -29.8 181.15 -30.0 181.5 -30.4 182.3 -30.7 182.85 -33.2 187.55 -33.35 187.85 -33.55 188.15 -33.9 188.8 -34.1 189.15 -34.35 189.55 -34.6 190.0 Q-51.45 216.35 -69.3 227.15 -75.55 230.95 -83.15 233.45 M0.0 72.95 Q6.25 88.55 13.9 103.2 L14.8 104.9 14.95 105.2 Q38.0 147.2 70.1 180.2 L70.75 180.85 71.1 181.2 72.2 182.3 73.7 183.8 74.0 184.1 74.7 184.75 75.35 185.4 75.7 185.7 76.0 186.05 76.35 186.35 76.9 186.9 77.2 187.2 77.55 187.5 Q84.65 194.2 91.85 200.25 100.75 207.7 109.85 214.05 118.05 219.8 123.1 222.5 108.45 230.55 93.2 233.2 M-3.85 95.25 L-4.2 97.4 M-12.3 123.8 L-17.6 134.85 -24.4 145.3 -24.6 145.6 -25.35 146.55 Q-42.4 168.85 -70.1 177.15 -89.9 183.1 -113.0 181.45 L-126.95 179.75 -132.2 178.65 Q-123.05 208.25 -102.4 223.75 -97.55 227.4 -93.05 229.75 -88.05 232.35 -83.45 233.5 M-12.3 123.8 L-11.9 122.9 -10.65 119.2" fill="none" stroke="#000000" stroke-linecap="round" stroke-linejoin="round" stroke-opacity="0.6" stroke-width="1.0"/>
    <path d="M34.8 -139.4 L36.1 -139.3" fill="none" stroke="#000000" stroke-linecap="round" stroke-linejoin="round" stroke-opacity="0.4" stroke-width="1.0"/>
  </g>
</svg>
