<?xml version="1.0" encoding="UTF-8" standalone="no"?>
<svg xmlns:xlink="http://www.w3.org/1999/xlink" height="387.9px" width="427.6px" xmlns="http://www.w3.org/2000/svg">
  <g transform="matrix(1.0, 0.0, 0.0, 1.0, 213.8, 193.95)">
    <path d="M80.0 -173.85 L89.75 -169.2 Q166.6 -130.4 213.3 -58.6 L213.3 193.45 Q-5.75 186.25 -208.25 189.85 L-213.3 -79.45 Q-153.45 -146.2 -92.95 -173.85 -7.2 -213.05 80.0 -173.85" fill="#ffffff" fill-opacity="0.0" fill-rule="evenodd" stroke="none"/>
    <path d="M80.0 -173.85 Q-7.2 -213.05 -92.95 -173.85 -153.45 -146.2 -213.3 -79.45 L-208.25 189.85 Q-5.75 186.25 213.3 193.45 L213.3 -58.6 Q166.6 -130.4 89.75 -169.2 L80.0 -173.85 Z" fill="none" stroke="#000000" stroke-linecap="butt" stroke-linejoin="miter-clip" stroke-miterlimit="4.0" stroke-opacity="0.6" stroke-width="1.0"/>
    <path d="M110.35 -154.0 L-187.0 181.4 -199.2 182.15 -199.9 137.6 76.6 -171.95 Q96.75 -163.35 110.35 -154.0 M178.6 -98.0 L-41.9 99.55 164.25 -112.35 178.6 -98.0" fill="#ffffff" fill-opacity="0.8" fill-rule="evenodd" stroke="none"/>
  </g>
</svg>
