<?xml version="1.0" encoding="UTF-8" standalone="no"?>
<svg xmlns:xlink="http://www.w3.org/1999/xlink" height="183.0px" width="363.0px" xmlns="http://www.w3.org/2000/svg">
  <g transform="matrix(1.0, 0.0, 0.0, 1.0, 181.5, 91.5)">
    <path d="M172.0 -76.0 L92.0 -76.0 92.0 84.0 172.0 84.0 172.0 -76.0 M86.0 -76.0 L6.0 -76.0 6.0 84.0 86.0 84.0 86.0 -76.0 M181.0 91.0 L-181.0 91.0 -181.0 -91.0 181.0 -91.0 181.0 91.0 M-92.0 -76.0 L-172.0 -76.0 -172.0 84.0 -92.0 84.0 -92.0 -76.0 M-6.0 -76.0 L-86.0 -76.0 -86.0 84.0 -6.0 84.0 -6.0 -76.0" fill="#ffffff" fill-opacity="0.0" fill-rule="evenodd" stroke="none"/>
    <path d="M86.0 -76.0 L86.0 84.0 6.0 84.0 6.0 -76.0 86.0 -76.0 M172.0 -76.0 L172.0 84.0 92.0 84.0 92.0 -76.0 172.0 -76.0 M-6.0 -76.0 L-6.0 84.0 -86.0 84.0 -86.0 -76.0 -6.0 -76.0 M-92.0 -76.0 L-92.0 84.0 -172.0 84.0 -172.0 -76.0 -92.0 -76.0" fill="none" stroke="#000000" stroke-linecap="round" stroke-linejoin="round" stroke-opacity="0.6" stroke-width="1.0"/>
    <path d="M181.0 91.0 L-181.0 91.0 -181.0 -91.0 181.0 -91.0 181.0 91.0" fill="none" stroke="#000000" stroke-linecap="round" stroke-linejoin="round" stroke-width="1.0"/>
  </g>
</svg>
