<?xml version="1.0" encoding="UTF-8" standalone="no"?>
<svg xmlns:xlink="http://www.w3.org/1999/xlink" height="41.1px" width="178.2px" xmlns="http://www.w3.org/2000/svg">
  <g transform="matrix(1.0, 0.0, 0.0, 1.0, 89.1, 20.9)">
    <path d="M75.05 -19.7 L76.95 -19.15 81.25 -16.6 Q87.6 -11.35 88.55 -1.05 89.55 9.9 72.35 14.95 60.8 18.3 40.1 19.05 31.1 19.4 17.2 19.55 L12.15 19.7 0.0 19.7 -12.15 19.7 -17.15 19.55 Q-31.05 19.4 -40.05 19.05 -60.8 18.3 -72.35 14.95 -89.5 9.9 -88.55 -1.05 -87.6 -11.35 -81.2 -16.6 -79.25 -18.2 -76.95 -19.15 L-75.05 -19.7 -43.55 -18.5 Q-20.05 -17.9 0.0 -17.65 20.1 -17.9 43.55 -18.5 L75.05 -19.7" fill="#ffffff" fill-opacity="0.0" fill-rule="evenodd" stroke="none"/>
    <path d="M40.1 18.95 L17.2 19.45 17.15 19.45 0.0 19.6 -12.0 19.55 -17.15 19.45 -40.05 18.95 Q-58.55 18.25 -69.85 15.45 -81.1 12.65 -85.55 7.6 -88.85 3.9 -88.4 -1.05 L-88.25 -2.35 Q-85.95 -0.85 -81.8 0.55 -75.9 2.6 -67.1 4.15 -42.0 8.6 1.85 8.6 L11.7 8.55 58.0 6.25 Q77.25 4.25 88.45 0.6 88.1 9.0 76.15 13.55 64.15 18.05 40.1 18.95" fill="#000000" fill-opacity="0.2" fill-rule="evenodd" stroke="none"/>
    <path d="M-39.8 -15.8 Q-32.5 -14.9 -37.2 -13.8 -41.3 -12.85 -52.1 -12.15 L-70.85 -11.5 Q-80.1 -11.55 -80.0 -12.45 -79.85 -14.15 -77.25 -16.05 L-74.7 -17.6 -55.15 -16.35 -39.8 -15.8" fill="#ffffff" fill-opacity="0.6" fill-rule="evenodd" stroke="none"/>
    <path d="M74.35 -19.65 L43.55 -18.5 Q20.1 -17.9 0.0 -17.65 L-17.6 -17.9 -30.75 -18.2 -43.55 -18.5 -73.8 -19.6 -75.05 -19.7 -76.95 -19.15 Q-79.25 -18.2 -81.2 -16.6 -87.6 -11.35 -88.55 -1.05 -89.5 9.9 -72.35 14.95 -60.8 18.3 -40.05 19.05 L-21.25 19.5 0.0 19.7 21.25 19.5 40.1 19.05 Q60.8 18.3 72.35 14.95 89.55 9.9 88.55 -1.05 87.6 -11.35 81.25 -16.6 L76.95 -19.15 75.05 -19.7 74.35 -19.65 Z" fill="none" stroke="#000000" stroke-linecap="butt" stroke-linejoin="miter-clip" stroke-miterlimit="10.0" stroke-width="1.0"/>
  </g>
</svg>
