<?xml version="1.0" encoding="UTF-8" standalone="no"?>
<svg xmlns:xlink="http://www.w3.org/1999/xlink" height="418.5px" width="2942.85px" xmlns="http://www.w3.org/2000/svg">
  <g transform="matrix(1.0, 0.0, 0.0, 1.0, 1473.55, 208.75)">
    <path d="M1468.8 143.9 L1468.8 162.9 -1204.6 162.9 Q-1266.8 162.9 -1338.55 176.2 -1359.75 180.1 -1403.5 192.3 -1446.45 204.35 -1468.75 208.25 -1408.8 184.9 -1380.3 175.2 -1367.6 170.85 -1350.3 165.95 L-1320.1 157.8 Q-1290.4 149.65 -1256.55 146.5 L-1214.7 144.2 Q-1200.55 143.9 -1171.3 143.9 L1468.8 143.9" fill="#ffffff" fill-opacity="0.0" fill-rule="evenodd" stroke="none"/>
    <path d="M1468.8 143.9 L-1171.3 143.9 Q-1200.55 143.9 -1214.7 144.2 L-1256.55 146.5 Q-1290.4 149.65 -1320.1 157.8 L-1350.3 165.95 Q-1367.6 170.85 -1380.3 175.2 -1408.8 184.9 -1468.75 208.25 -1446.45 204.35 -1403.5 192.3 -1359.75 180.1 -1338.55 176.2 -1266.8 162.9 -1204.6 162.9 L1468.8 162.9 1468.8 143.9 Z" fill="none" stroke="#000000" stroke-linecap="butt" stroke-linejoin="miter-clip" stroke-miterlimit="10.0" stroke-opacity="0.6" stroke-width="1.0"/>
    <path d="M1185.45 -197.15 L1103.45 -197.15 1103.45 -208.25 1185.45 -208.25 1185.45 -197.15" fill="#ffffff" fill-opacity="0.0" fill-rule="evenodd" stroke="none"/>
    <path d="M1185.45 -197.15 L1103.45 -197.15 1103.45 -208.25 1185.45 -208.25 1185.45 -197.15 Z" fill="none" stroke="#000000" stroke-linecap="butt" stroke-linejoin="miter-clip" stroke-miterlimit="10.0" stroke-opacity="0.6" stroke-width="1.0"/>
    <path d="M1293.85 -197.15 L1212.0 -197.15 1212.0 -208.25 1293.85 -208.25 1293.85 -197.15" fill="#ffffff" fill-opacity="0.0" fill-rule="evenodd" stroke="none"/>
    <path d="M1293.85 -197.15 L1212.0 -197.15 1212.0 -208.25 1293.85 -208.25 1293.85 -197.15 Z" fill="none" stroke="#000000" stroke-linecap="butt" stroke-linejoin="miter-clip" stroke-miterlimit="10.0" stroke-opacity="0.6" stroke-width="1.0"/>
  </g>
</svg>
