<?xml version="1.0" encoding="UTF-8" standalone="no"?>
<svg xmlns:xlink="http://www.w3.org/1999/xlink" height="17.0px" width="44.85px" xmlns="http://www.w3.org/2000/svg">
  <g transform="matrix(1.0, 0.0, 0.0, 1.0, 22.4, 8.5)">
    <path d="M7.8 -7.0 L8.1 -6.25 8.1 -3.9 7.8 -3.15 Q7.45 -2.85 7.0 -2.85 6.55 -2.85 6.25 -3.15 5.95 -3.5 5.95 -3.9 L5.95 -6.25 Q5.95 -6.7 6.25 -7.0 L7.05 -7.3 7.8 -7.0" fill="#ffffff" fill-opacity="0.0" fill-rule="evenodd" stroke="none"/>
    <path d="M7.8 -7.0 L8.1 -6.25 8.1 -3.9 7.8 -3.15 Q7.45 -2.85 7.0 -2.85 6.55 -2.85 6.25 -3.15 5.95 -3.5 5.95 -3.9 L5.95 -6.25 Q5.95 -6.7 6.25 -7.0 L7.05 -7.3 7.8 -7.0 Z" fill="none" stroke="#000000" stroke-linecap="butt" stroke-linejoin="miter-clip" stroke-miterlimit="4.0" stroke-opacity="0.6" stroke-width="1.0"/>
    <path d="M10.1 -7.0 L10.4 -6.2 10.4 -3.9 Q10.4 -3.45 10.1 -3.15 9.75 -2.85 9.35 -2.85 8.9 -2.85 8.55 -3.15 8.25 -3.5 8.25 -3.9 L8.25 -6.25 8.55 -7.0 Q8.9 -7.3 9.35 -7.3 L10.1 -7.0" fill="#ffffff" fill-opacity="0.0" fill-rule="evenodd" stroke="none"/>
    <path d="M10.1 -7.0 L10.4 -6.2 10.4 -3.9 Q10.4 -3.45 10.1 -3.15 9.75 -2.85 9.35 -2.85 8.9 -2.85 8.55 -3.15 8.25 -3.5 8.25 -3.9 L8.25 -6.25 8.55 -7.0 Q8.9 -7.3 9.35 -7.3 L10.1 -7.0 Z" fill="none" stroke="#000000" stroke-linecap="butt" stroke-linejoin="miter-clip" stroke-miterlimit="4.0" stroke-opacity="0.6" stroke-width="1.0"/>
    <path d="M10.55 -6.2 Q10.55 -6.65 10.9 -7.0 L11.65 -7.3 12.4 -7.0 12.7 -6.2 12.7 -3.9 12.4 -3.15 Q12.1 -2.85 11.65 -2.85 11.2 -2.85 10.85 -3.15 10.55 -3.45 10.55 -3.9 L10.55 -6.2" fill="#ffffff" fill-opacity="0.0" fill-rule="evenodd" stroke="none"/>
    <path d="M10.55 -6.2 Q10.55 -6.65 10.9 -7.0 L11.65 -7.3 12.4 -7.0 12.7 -6.2 12.7 -3.9 12.4 -3.15 Q12.1 -2.85 11.65 -2.85 11.2 -2.85 10.85 -3.15 10.55 -3.45 10.55 -3.9 L10.55 -6.2 Z" fill="none" stroke="#000000" stroke-linecap="butt" stroke-linejoin="miter-clip" stroke-miterlimit="4.0" stroke-opacity="0.6" stroke-width="1.0"/>
    <path d="M13.95 -7.3 Q14.4 -7.3 14.7 -6.95 L15.0 -6.2 15.0 -3.9 14.7 -3.15 Q14.4 -2.85 13.95 -2.85 13.5 -2.85 13.2 -3.15 12.85 -3.45 12.85 -3.9 L12.9 -6.2 Q12.9 -6.65 13.2 -7.0 13.5 -7.3 13.95 -7.3" fill="#ffffff" fill-opacity="0.0" fill-rule="evenodd" stroke="none"/>
    <path d="M13.95 -7.3 Q14.4 -7.3 14.7 -6.95 L15.0 -6.2 15.0 -3.9 14.7 -3.15 Q14.4 -2.85 13.95 -2.85 13.5 -2.85 13.2 -3.15 12.85 -3.45 12.85 -3.9 L12.9 -6.2 Q12.9 -6.65 13.2 -7.0 13.5 -7.3 13.95 -7.3 Z" fill="none" stroke="#000000" stroke-linecap="butt" stroke-linejoin="miter-clip" stroke-miterlimit="4.0" stroke-opacity="0.6" stroke-width="1.0"/>
    <path d="M17.0 -6.95 L17.35 -6.2 17.3 -3.9 17.0 -3.15 Q16.7 -2.85 16.25 -2.85 15.8 -2.85 15.5 -3.15 15.2 -3.45 15.2 -3.9 L15.2 -6.2 Q15.2 -6.65 15.5 -6.95 15.8 -7.3 16.25 -7.3 L17.0 -6.95" fill="#ffffff" fill-opacity="0.0" fill-rule="evenodd" stroke="none"/>
    <path d="M17.0 -6.95 L17.35 -6.2 17.3 -3.9 17.0 -3.15 Q16.7 -2.85 16.25 -2.85 15.8 -2.85 15.5 -3.15 15.2 -3.45 15.2 -3.9 L15.2 -6.2 Q15.2 -6.65 15.5 -6.95 15.8 -7.3 16.25 -7.3 L17.0 -6.95 Z" fill="none" stroke="#000000" stroke-linecap="butt" stroke-linejoin="miter-clip" stroke-miterlimit="4.0" stroke-opacity="0.6" stroke-width="1.0"/>
    <path d="M19.3 -3.15 Q19.0 -2.85 18.55 -2.85 18.1 -2.85 17.8 -3.15 17.5 -3.45 17.5 -3.9 L17.5 -6.2 Q17.5 -6.65 17.8 -6.95 18.15 -7.3 18.55 -7.3 19.0 -7.3 19.35 -6.95 L19.65 -6.2 19.65 -3.9 Q19.65 -3.45 19.3 -3.15" fill="#ffffff" fill-opacity="0.0" fill-rule="evenodd" stroke="none"/>
    <path d="M19.3 -3.15 Q19.0 -2.85 18.55 -2.85 18.1 -2.85 17.8 -3.15 17.5 -3.45 17.5 -3.9 L17.5 -6.2 Q17.5 -6.65 17.8 -6.95 18.15 -7.3 18.55 -7.3 19.0 -7.3 19.35 -6.95 L19.65 -6.2 19.65 -3.9 Q19.65 -3.45 19.3 -3.15 Z" fill="none" stroke="#000000" stroke-linecap="butt" stroke-linejoin="miter-clip" stroke-miterlimit="4.0" stroke-opacity="0.6" stroke-width="1.0"/>
    <path d="M21.65 -6.95 L21.95 -6.2 21.95 -3.9 21.65 -3.15 Q21.3 -2.8 20.85 -2.8 20.45 -2.8 20.1 -3.15 19.8 -3.45 19.8 -3.9 L19.8 -6.2 Q19.8 -6.65 20.1 -6.95 20.45 -7.3 20.9 -7.25 L21.65 -6.95" fill="#ffffff" fill-opacity="0.0" fill-rule="evenodd" stroke="none"/>
    <path d="M21.65 -6.95 L21.95 -6.2 21.95 -3.9 21.65 -3.15 Q21.3 -2.8 20.85 -2.8 20.45 -2.8 20.1 -3.15 19.8 -3.45 19.8 -3.9 L19.8 -6.2 Q19.8 -6.65 20.1 -6.95 20.45 -7.3 20.9 -7.25 L21.65 -6.95 Z" fill="none" stroke="#000000" stroke-linecap="butt" stroke-linejoin="miter-clip" stroke-miterlimit="4.0" stroke-opacity="0.6" stroke-width="1.0"/>
    <path d="M10.85 7.65 Q10.55 7.35 10.55 6.9 L10.55 4.6 Q10.55 4.15 10.85 3.8 11.2 3.5 11.6 3.5 12.05 3.5 12.4 3.8 L12.7 4.6 12.7 6.9 12.35 7.65 11.6 7.95 Q11.15 7.95 10.85 7.65" fill="#ffffff" fill-opacity="0.0" fill-rule="evenodd" stroke="none"/>
    <path d="M10.85 7.65 Q10.55 7.35 10.55 6.9 L10.55 4.6 Q10.55 4.15 10.85 3.8 11.2 3.5 11.6 3.5 12.05 3.5 12.4 3.8 L12.7 4.6 12.7 6.9 12.35 7.65 11.6 7.95 Q11.15 7.95 10.85 7.65 Z" fill="none" stroke="#000000" stroke-linecap="butt" stroke-linejoin="miter-clip" stroke-miterlimit="4.0" stroke-opacity="0.6" stroke-width="1.0"/>
    <path d="M13.15 3.8 Q13.5 3.5 13.95 3.5 14.35 3.5 14.7 3.85 L15.0 4.6 15.0 6.9 14.7 7.65 13.9 7.95 13.15 7.65 Q12.85 7.35 12.85 6.9 L12.85 4.6 Q12.85 4.15 13.15 3.8" fill="#ffffff" fill-opacity="0.0" fill-rule="evenodd" stroke="none"/>
    <path d="M13.15 3.8 Q13.5 3.5 13.95 3.5 14.35 3.5 14.7 3.85 L15.0 4.6 15.0 6.9 14.7 7.65 13.9 7.95 13.15 7.65 Q12.85 7.35 12.85 6.9 L12.85 4.6 Q12.85 4.15 13.15 3.8 Z" fill="none" stroke="#000000" stroke-linecap="butt" stroke-linejoin="miter-clip" stroke-miterlimit="4.0" stroke-opacity="0.6" stroke-width="1.0"/>
    <path d="M17.3 4.6 L17.3 6.9 17.0 7.65 16.25 7.95 Q15.8 7.95 15.45 7.65 15.15 7.35 15.15 6.9 L15.15 4.6 Q15.15 4.15 15.5 3.85 15.8 3.5 16.25 3.5 16.7 3.5 17.0 3.85 L17.3 4.6" fill="#ffffff" fill-opacity="0.0" fill-rule="evenodd" stroke="none"/>
    <path d="M17.3 4.6 L17.3 6.9 17.0 7.65 16.25 7.95 Q15.8 7.95 15.45 7.65 15.15 7.35 15.15 6.9 L15.15 4.6 Q15.15 4.15 15.5 3.85 15.8 3.5 16.25 3.5 16.7 3.5 17.0 3.85 L17.3 4.6 Z" fill="none" stroke="#000000" stroke-linecap="butt" stroke-linejoin="miter-clip" stroke-miterlimit="4.0" stroke-opacity="0.6" stroke-width="1.0"/>
    <path d="M19.3 7.65 Q19.0 7.95 18.55 7.95 L17.8 7.65 Q17.45 7.35 17.45 6.9 L17.45 4.6 Q17.45 4.15 17.8 3.85 18.1 3.5 18.55 3.5 19.0 3.5 19.3 3.85 L19.6 4.6 19.6 6.9 19.3 7.65" fill="#ffffff" fill-opacity="0.0" fill-rule="evenodd" stroke="none"/>
    <path d="M19.3 7.65 Q19.0 7.95 18.55 7.95 L17.8 7.65 Q17.45 7.35 17.45 6.9 L17.45 4.6 Q17.45 4.15 17.8 3.85 18.1 3.5 18.55 3.5 19.0 3.5 19.3 3.85 L19.6 4.6 19.6 6.9 19.3 7.65 Z" fill="none" stroke="#000000" stroke-linecap="butt" stroke-linejoin="miter-clip" stroke-miterlimit="4.0" stroke-opacity="0.6" stroke-width="1.0"/>
    <path d="M21.9 4.6 L21.9 6.9 21.6 7.65 20.85 8.0 Q20.4 8.0 20.1 7.65 19.75 7.35 19.8 6.9 L19.8 4.6 Q19.8 4.15 20.1 3.85 20.4 3.5 20.85 3.55 21.3 3.55 21.6 3.85 21.9 4.15 21.9 4.6" fill="#ffffff" fill-opacity="0.0" fill-rule="evenodd" stroke="none"/>
    <path d="M21.9 4.6 L21.9 6.9 21.6 7.65 20.85 8.0 Q20.4 8.0 20.1 7.65 19.75 7.35 19.8 6.9 L19.8 4.6 Q19.8 4.15 20.1 3.85 20.4 3.5 20.85 3.55 21.3 3.55 21.6 3.85 21.9 4.15 21.9 4.6 Z" fill="none" stroke="#000000" stroke-linecap="butt" stroke-linejoin="miter-clip" stroke-miterlimit="4.0" stroke-opacity="0.6" stroke-width="1.0"/>
    <path d="M-4.65 3.25 Q-4.2 3.25 -3.9 3.55 -3.6 3.85 -3.6 4.3 L-3.6 6.6 Q-3.6 7.05 -3.9 7.35 -4.2 7.7 -4.65 7.7 -5.1 7.7 -5.4 7.35 L-5.75 6.6 -5.7 4.3 -5.4 3.55 Q-5.1 3.2 -4.65 3.25" fill="#ffffff" fill-opacity="0.0" fill-rule="evenodd" stroke="none"/>
    <path d="M-4.65 3.25 Q-4.2 3.25 -3.9 3.55 -3.6 3.85 -3.6 4.3 L-3.6 6.6 Q-3.6 7.05 -3.9 7.35 -4.2 7.7 -4.65 7.7 -5.1 7.7 -5.4 7.35 L-5.75 6.6 -5.7 4.3 -5.4 3.55 Q-5.1 3.2 -4.65 3.25 Z" fill="none" stroke="#000000" stroke-linecap="butt" stroke-linejoin="miter-clip" stroke-miterlimit="4.0" stroke-opacity="0.6" stroke-width="1.0"/>
    <path d="M-6.2 3.55 Q-5.9 3.85 -5.9 4.3 L-5.9 6.6 Q-5.9 7.05 -6.2 7.35 -6.5 7.65 -6.95 7.65 L-7.7 7.35 -8.05 6.6 -8.05 4.3 Q-8.05 3.85 -7.7 3.55 -7.4 3.2 -6.95 3.2 -6.5 3.2 -6.2 3.55" fill="#ffffff" fill-opacity="0.0" fill-rule="evenodd" stroke="none"/>
    <path d="M-6.2 3.55 Q-5.9 3.85 -5.9 4.3 L-5.9 6.6 Q-5.9 7.05 -6.2 7.35 -6.5 7.65 -6.95 7.65 L-7.7 7.35 -8.05 6.6 -8.05 4.3 Q-8.05 3.85 -7.7 3.55 -7.4 3.2 -6.95 3.2 -6.5 3.2 -6.2 3.55 Z" fill="none" stroke="#000000" stroke-linecap="butt" stroke-linejoin="miter-clip" stroke-miterlimit="4.0" stroke-opacity="0.6" stroke-width="1.0"/>
    <path d="M-8.5 3.55 Q-8.2 3.85 -8.2 4.3 L-8.2 6.6 Q-8.2 7.05 -8.5 7.35 -8.85 7.65 -9.25 7.65 L-10.05 7.35 -10.35 6.6 -10.35 4.3 Q-10.35 3.85 -10.0 3.55 -9.7 3.2 -9.25 3.2 -8.8 3.2 -8.5 3.55" fill="#ffffff" fill-opacity="0.0" fill-rule="evenodd" stroke="none"/>
    <path d="M-8.5 3.55 Q-8.2 3.85 -8.2 4.3 L-8.2 6.6 Q-8.2 7.05 -8.5 7.35 -8.85 7.65 -9.25 7.65 L-10.05 7.35 -10.35 6.6 -10.35 4.3 Q-10.35 3.85 -10.0 3.55 -9.7 3.2 -9.25 3.2 -8.8 3.2 -8.5 3.55 Z" fill="none" stroke="#000000" stroke-linecap="butt" stroke-linejoin="miter-clip" stroke-miterlimit="4.0" stroke-opacity="0.6" stroke-width="1.0"/>
    <path d="M-10.8 3.55 Q-10.5 3.85 -10.5 4.3 L-10.5 6.6 Q-10.5 7.05 -10.8 7.35 -11.15 7.65 -11.6 7.65 L-12.35 7.35 -12.65 6.6 -12.65 4.3 -12.35 3.5 Q-12.0 3.2 -11.55 3.2 -11.15 3.2 -10.8 3.55" fill="#ffffff" fill-opacity="0.0" fill-rule="evenodd" stroke="none"/>
    <path d="M-10.8 3.55 Q-10.5 3.85 -10.5 4.3 L-10.5 6.6 Q-10.5 7.05 -10.8 7.35 -11.15 7.65 -11.6 7.65 L-12.35 7.35 -12.65 6.6 -12.65 4.3 -12.35 3.5 Q-12.0 3.2 -11.55 3.2 -11.15 3.2 -10.8 3.55 Z" fill="none" stroke="#000000" stroke-linecap="butt" stroke-linejoin="miter-clip" stroke-miterlimit="4.0" stroke-opacity="0.6" stroke-width="1.0"/>
    <path d="M-12.8 4.3 L-12.8 6.6 Q-12.8 7.05 -13.15 7.35 -13.45 7.65 -13.9 7.65 L-14.65 7.35 -14.95 6.6 -14.95 4.3 -14.65 3.5 Q-14.3 3.2 -13.9 3.2 -13.45 3.2 -13.1 3.5 -12.8 3.85 -12.8 4.3" fill="#ffffff" fill-opacity="0.0" fill-rule="evenodd" stroke="none"/>
    <path d="M-12.8 4.3 L-12.8 6.6 Q-12.8 7.05 -13.15 7.35 -13.45 7.65 -13.9 7.65 L-14.65 7.35 -14.95 6.6 -14.95 4.3 -14.65 3.5 Q-14.3 3.2 -13.9 3.2 -13.45 3.2 -13.1 3.5 -12.8 3.85 -12.8 4.3 Z" fill="none" stroke="#000000" stroke-linecap="butt" stroke-linejoin="miter-clip" stroke-miterlimit="4.0" stroke-opacity="0.6" stroke-width="1.0"/>
    <path d="M-15.45 3.5 Q-15.1 3.85 -15.1 4.3 L-15.15 6.6 Q-15.15 7.05 -15.45 7.35 -15.75 7.65 -16.2 7.65 L-16.95 7.35 -17.25 6.6 -17.25 4.25 -16.95 3.5 Q-16.65 3.2 -16.2 3.2 -15.75 3.2 -15.45 3.5" fill="#ffffff" fill-opacity="0.0" fill-rule="evenodd" stroke="none"/>
    <path d="M-15.45 3.5 Q-15.1 3.85 -15.1 4.3 L-15.15 6.6 Q-15.15 7.05 -15.45 7.35 -15.75 7.65 -16.2 7.65 L-16.95 7.35 -17.25 6.6 -17.25 4.25 -16.95 3.5 Q-16.65 3.2 -16.2 3.2 -15.75 3.2 -15.45 3.5 Z" fill="none" stroke="#000000" stroke-linecap="butt" stroke-linejoin="miter-clip" stroke-miterlimit="4.0" stroke-opacity="0.6" stroke-width="1.0"/>
    <path d="M-17.75 3.5 Q-17.45 3.85 -17.45 4.25 L-17.45 6.6 Q-17.45 7.0 -17.75 7.35 -18.05 7.65 -18.5 7.65 L-19.25 7.35 -19.6 6.6 -19.55 4.25 -19.25 3.5 Q-18.95 3.2 -18.5 3.2 -18.05 3.2 -17.75 3.5" fill="#ffffff" fill-opacity="0.0" fill-rule="evenodd" stroke="none"/>
    <path d="M-17.75 3.5 Q-17.45 3.85 -17.45 4.25 L-17.45 6.6 Q-17.45 7.0 -17.75 7.35 -18.05 7.65 -18.5 7.65 L-19.25 7.35 -19.6 6.6 -19.55 4.25 -19.25 3.5 Q-18.95 3.2 -18.5 3.2 -18.05 3.2 -17.75 3.5 Z" fill="none" stroke="#000000" stroke-linecap="butt" stroke-linejoin="miter-clip" stroke-miterlimit="4.0" stroke-opacity="0.6" stroke-width="1.0"/>
    <path d="M-20.8 3.2 Q-20.35 3.2 -20.05 3.5 -19.75 3.85 -19.75 4.25 L-19.75 6.6 Q-19.75 7.0 -20.05 7.35 -20.35 7.65 -20.8 7.65 L-21.6 7.35 -21.9 6.55 -21.9 4.25 Q-21.9 3.8 -21.55 3.5 -21.25 3.2 -20.8 3.2" fill="#ffffff" fill-opacity="0.0" fill-rule="evenodd" stroke="none"/>
    <path d="M-20.8 3.2 Q-20.35 3.2 -20.05 3.5 -19.75 3.85 -19.75 4.25 L-19.75 6.6 Q-19.75 7.0 -20.05 7.35 -20.35 7.65 -20.8 7.65 L-21.6 7.35 -21.9 6.55 -21.9 4.25 Q-21.9 3.8 -21.55 3.5 -21.25 3.2 -20.8 3.2 Z" fill="none" stroke="#000000" stroke-linecap="butt" stroke-linejoin="miter-clip" stroke-miterlimit="4.0" stroke-opacity="0.6" stroke-width="1.0"/>
    <path d="M-8.15 -6.9 L-8.2 -4.6 Q-8.2 -4.15 -8.5 -3.85 -8.8 -3.55 -9.25 -3.55 -9.7 -3.55 -10.0 -3.85 L-10.3 -4.6 -10.3 -6.95 -10.0 -7.7 -9.25 -8.0 Q-8.8 -8.0 -8.5 -7.7 -8.15 -7.35 -8.15 -6.9" fill="#ffffff" fill-opacity="0.0" fill-rule="evenodd" stroke="none"/>
    <path d="M-8.15 -6.9 L-8.2 -4.6 Q-8.2 -4.15 -8.5 -3.85 -8.8 -3.55 -9.25 -3.55 -9.7 -3.55 -10.0 -3.85 L-10.3 -4.6 -10.3 -6.95 -10.0 -7.7 -9.25 -8.0 Q-8.8 -8.0 -8.5 -7.7 -8.15 -7.35 -8.15 -6.9 Z" fill="none" stroke="#000000" stroke-linecap="butt" stroke-linejoin="miter-clip" stroke-miterlimit="4.0" stroke-opacity="0.6" stroke-width="1.0"/>
    <path d="M-11.55 -8.0 L-10.8 -7.7 -10.5 -6.95 -10.5 -4.6 Q-10.5 -4.2 -10.8 -3.85 -11.1 -3.55 -11.55 -3.55 -12.0 -3.55 -12.3 -3.85 -12.65 -4.2 -12.65 -4.6 L-12.6 -6.95 -12.3 -7.7 -11.55 -8.0" fill="#ffffff" fill-opacity="0.0" fill-rule="evenodd" stroke="none"/>
    <path d="M-11.55 -8.0 L-10.8 -7.7 -10.5 -6.95 -10.5 -4.6 Q-10.5 -4.2 -10.8 -3.85 -11.1 -3.55 -11.55 -3.55 -12.0 -3.55 -12.3 -3.85 -12.65 -4.2 -12.65 -4.6 L-12.6 -6.95 -12.3 -7.7 -11.55 -8.0 Z" fill="none" stroke="#000000" stroke-linecap="butt" stroke-linejoin="miter-clip" stroke-miterlimit="4.0" stroke-opacity="0.6" stroke-width="1.0"/>
    <path d="M-12.8 -6.95 L-12.8 -4.6 Q-12.8 -4.2 -13.1 -3.85 -13.45 -3.55 -13.85 -3.55 -14.3 -3.55 -14.65 -3.85 L-14.95 -4.65 -14.95 -6.95 -14.6 -7.7 -13.85 -8.0 Q-13.4 -8.0 -13.1 -7.7 -12.8 -7.35 -12.8 -6.95" fill="#ffffff" fill-opacity="0.0" fill-rule="evenodd" stroke="none"/>
    <path d="M-12.8 -6.95 L-12.8 -4.6 Q-12.8 -4.2 -13.1 -3.85 -13.45 -3.55 -13.85 -3.55 -14.3 -3.55 -14.65 -3.85 L-14.95 -4.65 -14.95 -6.95 -14.6 -7.7 -13.85 -8.0 Q-13.4 -8.0 -13.1 -7.7 -12.8 -7.35 -12.8 -6.95 Z" fill="none" stroke="#000000" stroke-linecap="butt" stroke-linejoin="miter-clip" stroke-miterlimit="4.0" stroke-opacity="0.6" stroke-width="1.0"/>
    <path d="M-16.15 -8.0 L-15.4 -7.7 Q-15.1 -7.4 -15.1 -6.95 L-15.1 -4.65 Q-15.1 -4.2 -15.4 -3.85 -15.75 -3.55 -16.2 -3.55 -16.6 -3.55 -16.95 -3.85 L-17.25 -4.65 -17.25 -6.95 -16.95 -7.7 -16.15 -8.0" fill="#ffffff" fill-opacity="0.0" fill-rule="evenodd" stroke="none"/>
    <path d="M-16.15 -8.0 L-15.4 -7.7 Q-15.1 -7.4 -15.1 -6.95 L-15.1 -4.65 Q-15.1 -4.2 -15.4 -3.85 -15.75 -3.55 -16.2 -3.55 -16.6 -3.55 -16.95 -3.85 L-17.25 -4.65 -17.25 -6.95 -16.95 -7.7 -16.15 -8.0 Z" fill="none" stroke="#000000" stroke-linecap="butt" stroke-linejoin="miter-clip" stroke-miterlimit="4.0" stroke-opacity="0.6" stroke-width="1.0"/>
    <path d="M-18.5 -8.0 Q-18.05 -8.0 -17.7 -7.7 -17.4 -7.4 -17.4 -6.95 L-17.4 -4.65 Q-17.4 -4.2 -17.7 -3.85 -18.05 -3.55 -18.5 -3.55 -18.95 -3.55 -19.25 -3.85 L-19.55 -4.65 -19.55 -6.95 -19.25 -7.7 -18.5 -8.0" fill="#ffffff" fill-opacity="0.0" fill-rule="evenodd" stroke="none"/>
    <path d="M-18.5 -8.0 Q-18.05 -8.0 -17.7 -7.7 -17.4 -7.4 -17.4 -6.95 L-17.4 -4.65 Q-17.4 -4.2 -17.7 -3.85 -18.05 -3.55 -18.5 -3.55 -18.95 -3.55 -19.25 -3.85 L-19.55 -4.65 -19.55 -6.95 -19.25 -7.7 -18.5 -8.0 Z" fill="none" stroke="#000000" stroke-linecap="butt" stroke-linejoin="miter-clip" stroke-miterlimit="4.0" stroke-opacity="0.6" stroke-width="1.0"/>
    <path d="M-21.85 -6.95 L-21.55 -7.7 Q-21.25 -8.0 -20.8 -8.0 L-20.0 -7.7 Q-19.7 -7.4 -19.7 -6.95 L-19.7 -4.65 Q-19.7 -4.2 -20.05 -3.9 -20.35 -3.55 -20.8 -3.55 -21.25 -3.55 -21.55 -3.9 -21.85 -4.2 -21.85 -4.65 L-21.85 -6.95" fill="#ffffff" fill-opacity="0.0" fill-rule="evenodd" stroke="none"/>
    <path d="M-21.85 -6.95 L-21.55 -7.7 Q-21.25 -8.0 -20.8 -8.0 L-20.0 -7.7 Q-19.7 -7.4 -19.7 -6.95 L-19.7 -4.65 Q-19.7 -4.2 -20.05 -3.9 -20.35 -3.55 -20.8 -3.55 -21.25 -3.55 -21.55 -3.9 -21.85 -4.2 -21.85 -4.65 L-21.85 -6.95 Z" fill="none" stroke="#000000" stroke-linecap="butt" stroke-linejoin="miter-clip" stroke-miterlimit="4.0" stroke-opacity="0.6" stroke-width="1.0"/>
    <path d="M-20.8 -7.1 L-20.65 -7.2 -20.5 -7.1 -20.45 -6.95 -20.45 -6.3 -20.5 -6.15 -20.65 -6.1 -20.8 -6.15 -20.9 -6.3 -20.9 -6.95 -20.8 -7.1" fill="#ffffff" fill-opacity="0.6" fill-rule="evenodd" stroke="none"/>
    <path d="M-18.4 -7.1 L-18.25 -7.2 -18.1 -7.1 -18.05 -6.95 -18.05 -6.3 -18.1 -6.15 -18.25 -6.1 -18.4 -6.15 -18.5 -6.3 -18.5 -6.95 -18.4 -7.1" fill="#ffffff" fill-opacity="0.6" fill-rule="evenodd" stroke="none"/>
    <path d="M-16.05 -7.1 L-15.9 -7.2 -15.7 -7.1 -15.65 -6.95 -15.65 -6.3 -15.7 -6.15 -15.9 -6.1 -16.05 -6.15 -16.1 -6.3 -16.1 -6.95 -16.05 -7.1" fill="#ffffff" fill-opacity="0.6" fill-rule="evenodd" stroke="none"/>
    <path d="M-13.25 -6.3 L-13.35 -6.15 -13.5 -6.1 -13.65 -6.15 -13.7 -6.3 -13.7 -6.95 -13.65 -7.1 -13.5 -7.2 -13.35 -7.1 -13.25 -6.95 -13.25 -6.3" fill="#ffffff" fill-opacity="0.6" fill-rule="evenodd" stroke="none"/>
    <path d="M-11.25 -7.1 L-11.1 -7.15 -10.95 -7.1 -10.9 -6.95 -10.9 -6.3 -10.95 -6.15 -11.1 -6.05 -11.25 -6.15 -11.3 -6.3 -11.3 -6.95 -11.25 -7.1" fill="#ffffff" fill-opacity="0.6" fill-rule="evenodd" stroke="none"/>
    <path d="M7.4 -5.85 L7.2 -5.65 7.05 -5.7 7.0 -5.85 7.0 -6.5 7.05 -6.65 7.2 -6.75 7.45 -6.5 7.4 -5.85" fill="#ffffff" fill-opacity="0.6" fill-rule="evenodd" stroke="none"/>
    <path d="M9.45 -6.65 L9.6 -6.75 9.75 -6.65 9.8 -6.5 9.8 -5.85 9.75 -5.7 9.6 -5.65 9.45 -5.7 9.4 -5.85 9.4 -6.5 9.45 -6.65" fill="#ffffff" fill-opacity="0.6" fill-rule="evenodd" stroke="none"/>
    <path d="M11.85 -6.65 L12.0 -6.75 12.15 -6.65 12.2 -6.5 12.2 -5.85 12.15 -5.7 12.0 -5.65 11.85 -5.7 11.75 -5.85 11.75 -6.5 11.85 -6.65" fill="#ffffff" fill-opacity="0.6" fill-rule="evenodd" stroke="none"/>
    <path d="M14.25 -6.65 L14.4 -6.7 14.55 -6.65 14.6 -6.5 14.6 -5.85 14.55 -5.7 14.4 -5.6 14.25 -5.7 14.15 -5.85 14.15 -6.5 14.25 -6.65" fill="#ffffff" fill-opacity="0.6" fill-rule="evenodd" stroke="none"/>
    <path d="M16.6 -6.65 L16.75 -6.7 16.95 -6.65 17.0 -6.5 17.0 -5.85 16.95 -5.7 Q16.85 -5.6 16.75 -5.6 L16.6 -5.7 16.55 -5.85 16.55 -6.5 16.6 -6.65" fill="#ffffff" fill-opacity="0.6" fill-rule="evenodd" stroke="none"/>
    <path d="M11.9 4.25 L11.95 4.4 11.95 5.1 11.9 5.25 11.7 5.3 11.55 5.25 11.5 5.1 11.5 4.4 11.55 4.25 11.7 4.2 11.9 4.25" fill="#ffffff" fill-opacity="0.6" fill-rule="evenodd" stroke="none"/>
    <path d="M13.95 4.25 L14.1 4.2 14.25 4.25 14.35 4.4 14.35 5.1 14.25 5.25 14.1 5.3 13.95 5.25 13.9 5.1 13.9 4.4 13.95 4.25" fill="#ffffff" fill-opacity="0.6" fill-rule="evenodd" stroke="none"/>
    <path d="M16.35 4.3 Q16.4 4.2 16.5 4.2 L16.65 4.3 16.7 4.45 16.7 5.1 16.65 5.25 16.5 5.3 16.35 5.25 16.3 5.1 16.3 4.45 16.35 4.3" fill="#ffffff" fill-opacity="0.6" fill-rule="evenodd" stroke="none"/>
    <path d="M19.1 5.1 L19.05 5.25 18.9 5.3 18.75 5.25 18.65 5.1 18.65 4.45 18.75 4.3 Q18.8 4.2 18.9 4.2 L19.05 4.3 19.1 4.45 19.1 5.1" fill="#ffffff" fill-opacity="0.6" fill-rule="evenodd" stroke="none"/>
    <path d="M21.15 4.3 Q21.2 4.2 21.3 4.2 L21.45 4.3 21.5 4.45 21.5 5.1 21.45 5.25 21.3 5.3 21.15 5.25 21.05 5.1 21.05 4.45 21.15 4.3" fill="#ffffff" fill-opacity="0.6" fill-rule="evenodd" stroke="none"/>
    <path d="M-20.45 4.2 L-20.4 4.35 -20.4 5.0 -20.45 5.15 -20.65 5.25 -20.8 5.15 -20.85 5.0 -20.85 4.35 -20.8 4.2 -20.65 4.15 -20.45 4.2" fill="#ffffff" fill-opacity="0.6" fill-rule="evenodd" stroke="none"/>
    <path d="M-18.4 4.2 L-18.25 4.15 -18.1 4.2 -18.0 4.35 -18.0 5.0 -18.1 5.2 -18.25 5.25 -18.4 5.2 -18.45 5.0 -18.45 4.35 -18.4 4.2" fill="#ffffff" fill-opacity="0.6" fill-rule="evenodd" stroke="none"/>
    <path d="M-15.65 5.0 L-15.7 5.2 -15.85 5.25 -16.0 5.2 -16.05 5.0 -16.05 4.35 -16.0 4.2 -15.85 4.15 -15.7 4.2 -15.65 4.35 -15.65 5.0" fill="#ffffff" fill-opacity="0.6" fill-rule="evenodd" stroke="none"/>
    <path d="M-13.25 5.05 L-13.3 5.2 -13.45 5.25 -13.6 5.2 -13.7 5.05 -13.65 4.35 -13.45 4.15 -13.3 4.2 -13.25 4.35 -13.25 5.05" fill="#ffffff" fill-opacity="0.6" fill-rule="evenodd" stroke="none"/>
    <path d="M-11.2 4.2 L-11.05 4.15 -10.9 4.2 -10.85 4.35 -10.85 5.05 -10.9 5.2 -11.05 5.25 -11.2 5.2 -11.3 5.05 -11.3 4.35 -11.2 4.2" fill="#ffffff" fill-opacity="0.6" fill-rule="evenodd" stroke="none"/>
    <path d="M-9.2 4.2 L-9.05 4.15 -8.9 4.2 -8.85 4.4 -8.85 5.05 -8.9 5.2 -9.05 5.25 -9.2 5.2 -9.3 5.05 -9.3 4.4 -9.2 4.2" fill="#ffffff" fill-opacity="0.6" fill-rule="evenodd" stroke="none"/>
    <path d="M-6.45 4.4 L-6.45 5.05 -6.5 5.2 -6.65 5.25 -6.8 5.2 -6.9 5.05 -6.9 4.4 -6.8 4.25 -6.65 4.15 Q-6.55 4.15 -6.5 4.25 L-6.45 4.4" fill="#ffffff" fill-opacity="0.6" fill-rule="evenodd" stroke="none"/>
    <path d="M-4.45 4.25 L-4.3 4.15 Q-4.05 4.15 -4.05 4.4 L-4.05 5.05 -4.1 5.2 -4.3 5.25 -4.45 5.2 -4.5 5.05 -4.5 4.4 -4.45 4.25" fill="#ffffff" fill-opacity="0.6" fill-rule="evenodd" stroke="none"/>
    <path d="M-8.95 -7.0 L-8.8 -7.05 -8.65 -7.0 -8.55 -6.85 -8.55 -6.2 -8.65 -6.0 -8.8 -5.95 -8.95 -6.0 -9.0 -6.2 -9.0 -6.85 -8.95 -7.0" fill="#ffffff" fill-opacity="0.6" fill-rule="evenodd" stroke="none"/>
    <path d="M18.9 -6.65 L19.05 -6.7 19.2 -6.65 19.25 -6.5 19.25 -5.85 19.2 -5.65 19.05 -5.6 18.9 -5.65 18.8 -5.85 18.8 -6.5 18.9 -6.65" fill="#ffffff" fill-opacity="0.6" fill-rule="evenodd" stroke="none"/>
    <path d="M21.3 -6.65 L21.45 -6.7 21.6 -6.65 21.65 -6.5 21.65 -5.85 21.6 -5.65 21.45 -5.6 21.25 -5.65 21.2 -5.85 21.2 -6.5 21.3 -6.65" fill="#ffffff" fill-opacity="0.6" fill-rule="evenodd" stroke="none"/>
  </g>
</svg>
