<?xml version="1.0" encoding="UTF-8" standalone="no"?>
<svg xmlns:xlink="http://www.w3.org/1999/xlink" height="28.2px" width="185.85px" xmlns="http://www.w3.org/2000/svg">
  <g transform="matrix(1.0, 0.0, 0.0, 1.0, 92.9, 13.9)">
    <path d="M-91.95 10.45 L-91.95 10.4 Q-91.5 9.95 -90.8 9.95 L53.8 9.95 58.6 9.55 Q66.1 8.5 69.95 5.1 L83.9 -9.85 Q86.9 -12.7 88.4 -12.3 L90.3 -10.9 90.5 -10.7 Q92.25 -9.1 92.45 -7.75 L88.8 -2.75 Q83.6 3.45 76.15 9.65 L73.5 11.4 Q70.35 13.2 67.9 13.4 L-90.8 13.4 Q-91.45 13.4 -91.95 12.9 -92.4 12.45 -92.4 11.8 L-92.4 11.5 Q-92.4 10.85 -91.95 10.45" fill="#ffffff" fill-opacity="0.0" fill-rule="evenodd" stroke="none"/>
    <path d="M-91.95 10.45 L-91.3 9.6 Q-90.5 8.9 -89.85 8.9 L53.2 8.9 57.95 8.5 Q65.35 7.45 69.15 4.05 L82.95 -10.9 Q85.95 -13.75 87.4 -13.35 L89.3 -11.95 90.5 -10.7 90.3 -10.9 88.4 -12.3 Q86.9 -12.7 83.9 -9.85 L69.95 5.1 Q66.1 8.5 58.6 9.55 L53.8 9.95 -90.8 9.95 Q-91.5 9.95 -91.95 10.4 L-91.95 10.45" fill="#000000" fill-opacity="0.2" fill-rule="evenodd" stroke="none"/>
    <path d="M69.95 5.1 L83.9 -9.85 M88.4 -12.3 L90.3 -10.9" fill="none" stroke="#000000" stroke-linecap="butt" stroke-linejoin="miter-clip" stroke-miterlimit="10.0" stroke-opacity="0.6" stroke-width="1.0"/>
    <path d="M-90.8 9.95 L53.8 9.95 58.6 9.55 Q66.1 8.5 69.95 5.1 M83.9 -9.85 Q86.9 -12.7 88.4 -12.3" fill="none" stroke="#000000" stroke-linecap="butt" stroke-linejoin="miter-clip" stroke-miterlimit="10.0" stroke-opacity="0.4" stroke-width="1.0"/>
    <path d="M90.5 -10.7 L89.3 -11.95 87.4 -13.35 Q85.95 -13.75 82.95 -10.9 L69.15 4.05 Q65.35 7.45 57.95 8.5 L53.2 8.9 -89.85 8.9 Q-90.5 8.9 -91.3 9.6 L-91.95 10.45 Q-92.4 10.85 -92.4 11.5 L-92.4 11.8 Q-92.4 12.45 -91.95 12.9 -91.45 13.4 -90.8 13.4 L67.9 13.4 Q70.35 13.2 73.5 11.4 L76.15 9.65 Q83.6 3.45 88.8 -2.75 L92.45 -7.75 Q92.25 -9.1 90.5 -10.7" fill="none" stroke="#000000" stroke-linecap="round" stroke-linejoin="miter-clip" stroke-miterlimit="10.0" stroke-width="1.0"/>
    <path d="M-91.95 10.45 L-91.95 10.4 Q-91.5 9.95 -90.8 9.95" fill="none" stroke="#000000" stroke-linecap="round" stroke-linejoin="miter-clip" stroke-miterlimit="10.0" stroke-width="1.0"/>
    <path d="M90.3 -10.9 L90.5 -10.7" fill="none" stroke="#000000" stroke-linecap="butt" stroke-linejoin="miter-clip" stroke-miterlimit="10.0" stroke-width="1.0"/>
  </g>
</svg>
