<?xml version="1.0" encoding="UTF-8" standalone="no"?>
<svg xmlns:xlink="http://www.w3.org/1999/xlink" height="28.1px" width="3.95px" xmlns="http://www.w3.org/2000/svg">
  <g transform="matrix(1.0, 0.0, 0.0, 1.0, 5.65, 24.4)">
    <path d="M-3.65 -19.6 L-2.7 -17.75 Q-2.2 -16.4 -2.3 -15.7 L-2.25 -13.75 -2.15 -11.85 Q-2.15 -10.8 -2.3 -10.2 L-2.75 -7.4 -2.85 -5.0 -2.6 -3.45 -2.35 -2.1 -2.3 -1.0 -2.2 0.35 -1.9 2.45 -1.7 3.7 -2.75 1.05 -2.9 -0.05 -2.95 -0.7 -3.3 -1.8 Q-3.65 -2.8 -3.7 -5.6 L-3.65 -11.05 -3.6 -14.7 Q-3.6 -16.4 -3.75 -16.95 L-5.4 -22.25 -5.65 -23.5 -5.55 -23.95 -4.1 -24.4 Q-4.7 -23.85 -4.6 -23.55 L-4.5 -22.7 -4.2 -21.0 -3.65 -19.6" fill="#c9c9c9" fill-rule="evenodd" stroke="none"/>
  </g>
</svg>
