<?xml version="1.0" encoding="UTF-8" standalone="no"?>
<svg xmlns:xlink="http://www.w3.org/1999/xlink" height="62.15px" width="28.85px" xmlns="http://www.w3.org/2000/svg">
  <g transform="matrix(1.0, 0.0, 0.0, 1.0, 14.6, 31.7)">
    <path d="M8.45 -23.1 L6.5 -23.55 4.5 -23.9 Q3.7 -24.25 3.55 -24.35 3.1 -24.65 3.05 -25.2 3.0 -25.55 3.5 -26.3 L4.2 -27.15 3.5 -26.3 Q3.0 -25.55 3.05 -25.2 3.1 -24.65 3.55 -24.35 3.7 -24.25 4.5 -23.9 L6.5 -23.55 8.45 -23.1 M1.15 -25.4 L1.15 -25.05 1.15 -25.4 1.3 -26.15 Q1.75 -27.55 3.5 -28.5 L6.0 -29.65 7.85 -29.85 9.65 -29.7 11.35 -29.5 Q12.25 -29.15 12.25 -28.45 L12.0 -27.45 11.7 -27.15 8.8 -28.15 6.9 -28.55 Q5.65 -28.55 4.9 -27.85 L4.2 -27.15 3.75 -26.65 Q3.45 -26.15 3.85 -25.6 4.15 -25.15 6.4 -24.55 L8.55 -24.05 9.95 -20.95 8.15 -20.75 Q6.1 -20.65 4.75 -21.5 L3.2 -22.5 1.9 -23.5 1.65 -23.75 Q-0.9 -21.95 -0.2 -20.65 0.35 -19.55 3.0 -19.05 L6.7 -18.55 6.55 -17.5 6.45 -16.15 Q1.9 -16.3 -1.0 -17.35 -2.2 -17.75 -2.9 -18.3 L-3.2 -18.5 -2.9 -18.3 -2.95 -18.25 Q-5.6 -16.3 -4.7 -14.95 -3.95 -13.8 -0.25 -12.8 L4.85 -12.0 4.65 -11.0 4.55 -9.5 Q0.5 -9.7 -2.6 -10.65 -4.8 -11.35 -5.95 -12.3 L-6.0 -12.25 -6.95 -11.15 Q-7.8 -9.2 -4.2 -7.0 -1.2 -5.1 3.85 -5.5 L3.5 -3.15 4.15 -3.2 Q-0.45 -2.6 -4.1 -3.8 -6.95 -4.7 -8.25 -6.35 L-8.3 -6.3 -8.9 -4.95 Q-9.3 -2.75 -6.6 -0.95 -4.7 0.3 -2.05 1.0 L2.75 1.55 2.5 4.05 1.5 4.1 0.5 4.0 Q-3.65 3.5 -6.5 2.0 -8.6 0.9 -9.8 -0.65 -10.95 1.2 -10.3 2.95 -9.7 4.65 -7.7 6.1 -5.85 7.35 -3.5 8.0 L0.65 8.3 1.25 8.2 1.1 8.25 0.75 10.6 -3.85 10.4 Q-6.4 9.75 -8.9 7.8 L-10.3 6.5 -10.4 7.85 -10.2 9.4 -9.8 10.45 -9.0 11.6 -8.3 12.3 -7.45 13.0 -6.45 13.7 -4.05 14.5 Q-4.85 15.1 -4.55 16.05 L-4.2 16.8 -6.35 16.25 -7.45 15.85 -8.3 15.4 -9.0 14.95 -10.3 13.6 -11.6 11.4 -11.65 11.65 -11.6 13.55 Q-11.4 15.5 -10.55 16.85 L-10.4 17.05 -10.25 17.3 -9.55 18.05 Q-7.75 19.65 -5.4 20.25 L-3.3 20.5 -3.45 20.6 -3.7 21.35 -3.45 22.35 -3.2 22.5 -5.2 22.6 Q-7.95 22.45 -9.75 20.45 L-9.9 20.25 -9.75 20.45 -9.75 21.4 -9.3 23.0 Q-8.3 25.2 -5.7 24.95 -3.1 24.7 -1.1 22.25 L-0.35 21.35 2.45 18.85 3.2 17.95 Q2.35 20.6 0.95 22.55 L-0.65 25.85 Q-2.95 29.5 -5.85 29.9 -8.75 30.3 -10.05 27.55 L-10.85 24.95 -11.55 22.4 Q-12.6 20.75 -12.6 18.2 L-12.55 17.3 -12.55 17.05 -12.5 16.85 -12.5 16.6 -12.4 16.15 -12.65 15.35 Q-13.2 13.05 -12.55 10.45 L-12.35 9.75 -12.45 9.4 -12.6 8.9 Q-13.3 6.0 -11.75 4.05 -12.2 2.75 -12.15 1.35 -12.05 0.0 -11.55 -1.15 L-10.8 -2.25 -11.0 -2.65 Q-12.05 -5.2 -10.35 -7.05 L-9.2 -7.95 Q-10.15 -10.25 -8.75 -12.5 L-7.25 -14.25 Q-7.85 -16.4 -5.9 -18.25 L-3.95 -19.65 -3.95 -20.35 Q-3.6 -22.6 -0.95 -24.35 L1.15 -25.4 M-3.7 -19.1 L-3.95 -19.65 -3.7 -19.1 -4.85 -18.1 Q-5.65 -17.15 -5.65 -16.4 -5.6 -15.85 -5.0 -15.2 L-5.05 -15.55 Q-5.2 -16.75 -3.1 -18.35 L-3.2 -18.5 -3.7 -19.1 M1.6 -23.85 L1.65 -23.75 1.6 -23.85 Q1.2 -24.45 1.15 -25.05 L-0.6 -23.8 Q-1.8 -22.75 -1.75 -22.1 L-1.3 -21.25 -0.15 -20.35 -0.45 -21.1 Q-0.6 -22.35 1.6 -23.85 M-2.75 20.45 L-2.85 20.5 -2.8 20.45 -2.75 20.45 M0.95 22.55 L0.1 23.6 -1.2 24.8 -1.75 25.15 -1.2 24.8 0.1 23.6 0.95 22.55 M-6.9 -13.35 L-7.05 -13.45 -7.65 -12.65 Q-8.1 -11.85 -8.0 -11.1 -7.9 -9.6 -6.1 -8.3 -7.3 -9.45 -7.2 -10.55 L-6.65 -11.8 -6.05 -12.35 -5.95 -12.3 -6.05 -12.35 -6.9 -13.35 -7.05 -13.65 -7.25 -14.25 -7.05 -13.65 -6.9 -13.35 M-10.3 -1.35 L-10.65 -1.7 -11.2 0.25 Q-11.35 2.0 -10.3 3.35 -11.2 1.3 -9.9 -0.8 L-9.8 -0.65 -9.9 -0.8 -10.3 -1.35 -10.8 -2.25 -10.3 -1.35 M-8.9 -7.3 L-9.1 -7.5 -9.8 -6.65 -10.3 -5.15 Q-10.4 -4.25 -9.7 -3.5 L-8.15 -2.15 Q-8.9 -3.0 -9.05 -4.0 -9.15 -4.8 -8.8 -5.6 L-8.35 -6.45 -8.9 -7.3 -9.2 -7.95 -8.9 -7.3 M-8.35 -6.45 L-8.25 -6.35 -8.35 -6.45 M-11.35 5.0 L-11.6 4.75 Q-11.95 5.75 -11.8 6.8 -11.65 8.2 -10.6 9.4 L-10.05 9.95 -10.3 9.4 Q-10.95 8.0 -10.5 6.3 L-10.3 6.5 -10.5 6.3 -11.35 5.0 -11.75 4.05 -11.35 5.0 M-11.6 11.4 L-11.7 11.15 -11.6 11.4 M-11.95 10.65 L-12.05 10.45 -12.35 9.75 -12.05 10.45 -11.95 10.65 -12.15 12.9 Q-12.0 15.0 -10.9 16.5 -11.65 14.95 -11.75 12.85 L-11.7 11.15 -11.95 10.65 M-12.4 16.15 L-12.15 16.85 -12.05 17.05 -11.95 17.3 -10.65 19.4 -11.95 17.3 -12.05 17.05 -12.15 16.85 -12.4 16.15 M-10.65 19.4 L-11.65 18.3 -11.1 20.75 Q-10.4 22.6 -9.0 23.75 L-9.3 23.25 -9.9 21.5 -9.9 20.4 -9.9 20.25 -10.65 19.4 M-1.75 25.15 L-3.1 25.95 Q-4.8 26.7 -6.6 26.55 -8.0 26.45 -9.2 25.4 L-9.7 24.9 -9.35 25.85 Q-8.6 27.75 -7.4 28.05 -5.1 28.6 -3.2 26.95 -2.25 26.15 -1.75 25.15 M-9.7 24.9 L-11.55 22.4 -9.7 24.9" fill="#ffffff" fill-opacity="0.0" fill-rule="evenodd" stroke="none"/>
    <path d="M12.55 3.5 L12.9 3.85 12.55 3.5" fill="#000000" fill-opacity="0.2" fill-rule="evenodd" stroke="none"/>
    <path d="M-3.7 -19.1 L-3.2 -18.5 -3.1 -18.35 Q-5.2 -16.75 -5.05 -15.55 L-5.0 -15.2 Q-5.6 -15.85 -5.65 -16.4 -5.65 -17.15 -4.85 -18.1 L-3.7 -19.1 M6.45 -16.15 L6.55 -17.5 6.7 -18.55 6.7 -18.6 11.95 -18.9 Q12.7 -18.85 12.8 -17.45 L12.75 -16.45 12.55 -15.95 9.4 -15.85 6.45 -16.15 M1.6 -23.85 Q-0.6 -22.35 -0.45 -21.1 L-0.15 -20.35 -1.3 -21.25 -1.75 -22.1 Q-1.8 -22.75 -0.6 -23.8 L1.15 -25.05 Q1.2 -24.45 1.6 -23.85 M4.85 -12.0 L9.25 -12.45 12.15 -12.85 11.95 -10.15 Q10.45 -9.65 7.35 -9.5 L4.55 -9.5 4.65 -11.0 4.85 -12.0 M3.85 -5.5 L3.85 -5.55 Q6.3 -5.8 9.05 -6.6 L11.35 -7.35 11.45 -5.0 Q9.4 -4.05 6.25 -3.5 L4.15 -3.2 3.5 -3.15 3.85 -5.5 M2.75 1.55 L2.75 1.5 Q5.55 1.25 8.5 -0.45 L10.8 -2.1 11.25 0.45 Q8.5 2.7 5.25 3.6 L3.25 4.0 2.5 4.05 2.75 1.55 M1.25 8.2 Q4.5 7.2 8.35 4.35 L11.65 1.6 12.55 3.45 12.55 3.5 12.9 3.85 8.35 10.55 3.2 17.95 2.45 18.85 -0.35 21.35 -0.75 21.55 Q-2.45 22.6 -3.2 22.5 L-3.45 22.35 -3.7 21.35 -3.45 20.6 -3.3 20.5 -3.2 20.5 -2.85 20.5 -2.75 20.45 -2.65 20.45 -1.5 20.1 Q0.55 19.35 2.15 17.45 3.7 15.65 7.7 9.65 L8.05 9.1 10.1 6.05 8.05 9.1 7.7 9.65 3.75 13.95 Q2.4 15.35 0.6 16.05 -1.25 16.8 -4.1 16.9 L-4.2 16.8 -4.55 16.05 Q-4.85 15.1 -4.05 14.5 L-3.25 14.6 -1.1 14.2 Q1.9 13.1 4.95 9.5 L4.3 9.75 1.75 10.5 0.75 10.6 1.1 8.25 1.25 8.2 M10.1 6.05 L12.55 3.5 10.1 6.05 Q7.6 8.3 4.95 9.5 7.6 8.3 10.1 6.05 M-6.05 -12.35 L-6.65 -11.8 -7.2 -10.55 Q-7.3 -9.45 -6.1 -8.3 -7.9 -9.6 -8.0 -11.1 -8.1 -11.85 -7.65 -12.65 L-7.05 -13.45 -6.9 -13.35 -6.05 -12.35 M-9.9 -0.8 Q-11.2 1.3 -10.3 3.35 -11.35 2.0 -11.2 0.25 L-10.65 -1.7 -10.3 -1.35 -9.9 -0.8 M-8.35 -6.45 L-8.8 -5.6 Q-9.15 -4.8 -9.05 -4.0 -8.9 -3.0 -8.15 -2.15 L-9.7 -3.5 Q-10.4 -4.25 -10.3 -5.15 L-9.8 -6.65 -9.1 -7.5 -8.9 -7.3 -8.35 -6.45 M-10.5 6.3 Q-10.95 8.0 -10.3 9.4 L-10.05 9.95 -10.6 9.4 Q-11.65 8.2 -11.8 6.8 -11.95 5.75 -11.6 4.75 L-11.35 5.0 -10.5 6.3 M-11.95 10.65 L-11.7 11.15 -11.75 12.85 Q-11.65 14.95 -10.9 16.5 -12.0 15.0 -12.15 12.9 L-11.95 10.65 M-9.9 20.25 L-9.9 20.4 -9.9 21.5 -9.3 23.25 -9.0 23.75 Q-10.4 22.6 -11.1 20.75 L-11.65 18.3 -10.65 19.4 -9.9 20.25" fill="#000000" fill-opacity="0.09803922" fill-rule="evenodd" stroke="none"/>
    <path d="M4.65 -11.0 L4.85 -12.0" fill="none" stroke="#000000" stroke-linecap="butt" stroke-linejoin="miter-clip" stroke-miterlimit="10.0" stroke-opacity="0.6" stroke-width="1.0"/>
    <path d="M1.15 -25.05 L1.15 -25.4 -0.95 -24.35 Q-3.6 -22.6 -3.95 -20.35 L-3.95 -19.65 -3.7 -19.1 -3.2 -18.5 -2.9 -18.3 Q-2.2 -17.75 -1.0 -17.35 1.9 -16.3 6.45 -16.15 L9.4 -15.85 12.55 -15.95 12.75 -16.45 12.8 -17.45 Q12.7 -18.85 11.95 -18.9 L6.7 -18.6 M1.15 -25.05 Q1.2 -24.45 1.6 -23.85 M4.85 -12.0 L-0.25 -12.8 Q-3.95 -13.8 -4.7 -14.95 -5.6 -16.3 -2.95 -18.25 L-2.9 -18.3 M-4.05 14.5 L-3.25 14.6 -1.1 14.2 Q1.9 13.1 4.95 9.5 L4.3 9.75 1.75 10.5 0.75 10.6 -3.85 10.4 Q-6.4 9.75 -8.9 7.8 L-10.3 6.5 -10.4 7.85 -10.2 9.4 -9.8 10.45 -9.0 11.6 -8.3 12.3 -7.45 13.0 -6.45 13.7 -4.05 14.5 M-1.75 25.15 L-1.2 24.8 0.1 23.6 0.95 22.55 M-6.9 -13.35 L-7.05 -13.65 -7.25 -14.25 M-10.3 -1.35 L-10.8 -2.25 M-5.95 -12.3 L-6.05 -12.35 -6.9 -13.35 M-8.9 -7.3 L-9.2 -7.95 M-8.35 -6.45 L-8.9 -7.3 M-8.25 -6.35 L-8.35 -6.45 M-9.8 -0.65 L-9.9 -0.8 -10.3 -1.35 M-11.35 5.0 L-11.75 4.05 M-10.3 6.5 L-10.5 6.3 -11.35 5.0 M-11.7 11.15 L-11.6 11.4 -10.3 13.6 -9.0 14.95 -8.3 15.4 -7.45 15.85 -6.35 16.25 -4.2 16.8 M-11.6 11.4 L-11.65 11.65 -11.6 13.55 Q-11.4 15.5 -10.55 16.85 L-10.4 17.05 -10.25 17.3 -9.55 18.05 Q-7.75 19.65 -5.4 20.25 L-3.3 20.5 M-12.35 9.75 L-12.05 10.45 -11.95 10.65 -11.7 11.15 M-10.65 19.4 L-11.95 17.3 -12.05 17.05 -12.15 16.85 -12.4 16.15 M-10.65 19.4 L-9.9 20.25 -9.75 20.45 Q-7.95 22.45 -5.2 22.6 L-3.2 22.5 M-0.35 21.35 L-1.1 22.25 Q-3.1 24.7 -5.7 24.95 -8.3 25.2 -9.3 23.0 L-9.75 21.4 -9.75 20.45 M-2.75 20.45 L-2.8 20.45 M-1.75 25.15 L-3.1 25.95 Q-4.8 26.7 -6.6 26.55 -8.0 26.45 -9.2 25.4 L-9.7 24.9 -9.35 25.85 Q-8.6 27.75 -7.4 28.05 -5.1 28.6 -3.2 26.95 -2.25 26.15 -1.75 25.15 M-11.55 22.4 L-9.7 24.9" fill="none" stroke="#000000" stroke-linecap="butt" stroke-linejoin="miter-clip" stroke-miterlimit="10.0" stroke-opacity="0.8" stroke-width="1.0"/>
    <path d="M6.45 -16.15 L6.55 -17.5 M4.55 -9.5 L4.65 -11.0 M3.5 -3.15 L3.85 -5.5 M-3.3 20.5 L-3.45 20.6 -3.7 21.35 -3.45 22.35 -3.2 22.5 M0.75 10.6 L1.1 8.25 M-4.05 14.5 Q-4.85 15.1 -4.55 16.05 L-4.2 16.8" fill="none" stroke="#000000" stroke-linecap="butt" stroke-linejoin="miter-clip" stroke-miterlimit="10.0" stroke-opacity="0.4" stroke-width="1.0"/>
    <path d="M4.2 -27.15 L3.5 -26.3 Q3.0 -25.55 3.05 -25.2 3.1 -24.65 3.55 -24.35 3.7 -24.25 4.5 -23.9 L6.5 -23.55 8.45 -23.1" fill="none" stroke="#000000" stroke-linecap="round" stroke-linejoin="miter-clip" stroke-miterlimit="10.0" stroke-opacity="0.6" stroke-width="1.0"/>
    <path d="M6.55 -17.5 L6.7 -18.55" fill="none" stroke="#000000" stroke-linecap="butt" stroke-linejoin="miter-clip" stroke-miterlimit="10.0" stroke-opacity="0.6" stroke-width="1.0"/>
    <path d="M6.7 -18.55 L3.0 -19.05 Q0.35 -19.55 -0.2 -20.65 -0.9 -21.95 1.65 -23.75 L1.6 -23.85 M4.2 -27.15 L3.75 -26.65 Q3.45 -26.15 3.85 -25.6 4.15 -25.15 6.4 -24.55 L8.55 -24.05 9.95 -20.95 8.15 -20.75 Q6.1 -20.65 4.75 -21.5 L3.2 -22.5 1.9 -23.5 1.65 -23.75 M3.2 17.95 Q2.35 20.6 0.95 22.55 L-0.65 25.85 Q-2.95 29.5 -5.85 29.9 -8.75 30.3 -10.05 27.55 L-10.85 24.95 -11.55 22.4 Q-12.6 20.75 -12.6 18.2 L-12.55 17.3 -12.55 17.05 -12.5 16.85 -12.5 16.6 -12.4 16.15 -12.65 15.35 Q-13.2 13.05 -12.55 10.45 L-12.35 9.75 -12.45 9.4 -12.6 8.9 Q-13.3 6.0 -11.75 4.05 -12.2 2.75 -12.15 1.35 -12.05 0.0 -11.55 -1.15 L-10.8 -2.25 -11.0 -2.65 Q-12.05 -5.2 -10.35 -7.05 L-9.2 -7.95 Q-10.15 -10.25 -8.75 -12.5 L-7.25 -14.25 Q-7.85 -16.4 -5.9 -18.25 L-3.95 -19.65 M4.15 -3.2 L3.5 -3.15 M7.7 9.65 Q3.7 15.65 2.15 17.45 0.55 19.35 -1.5 20.1 L-2.65 20.45 -2.75 20.45 -2.85 20.5 -3.2 20.5 -3.3 20.5 M10.1 6.05 Q7.6 8.3 4.95 9.5" fill="none" stroke="#000000" stroke-linecap="round" stroke-linejoin="miter-clip" stroke-miterlimit="10.0" stroke-opacity="0.8" stroke-width="1.0"/>
    <path d="M1.15 -25.4 L1.3 -26.15 Q1.75 -27.55 3.5 -28.5 L6.0 -29.65 7.85 -29.85 9.65 -29.7 11.35 -29.5 Q12.25 -29.15 12.25 -28.45 L12.0 -27.45 11.7 -27.15 8.8 -28.15 6.9 -28.55 Q5.65 -28.55 4.9 -27.85 L4.2 -27.15 M4.85 -12.0 L9.25 -12.45 12.15 -12.85 11.95 -10.15 Q10.45 -9.65 7.35 -9.5 L4.55 -9.5 Q0.5 -9.7 -2.6 -10.65 -4.8 -11.35 -5.95 -12.3 L-6.0 -12.25 -6.95 -11.15 Q-7.8 -9.2 -4.2 -7.0 -1.2 -5.1 3.85 -5.5 L3.85 -5.55 Q6.3 -5.8 9.05 -6.6 L11.35 -7.35 11.45 -5.0 Q9.4 -4.05 6.25 -3.5 L4.15 -3.2 Q-0.45 -2.6 -4.1 -3.8 -6.95 -4.7 -8.25 -6.35 L-8.3 -6.3 -8.9 -4.95 Q-9.3 -2.75 -6.6 -0.95 -4.7 0.3 -2.05 1.0 L2.75 1.55 2.75 1.5 Q5.55 1.25 8.5 -0.45 L10.8 -2.1 11.25 0.45 Q8.5 2.7 5.25 3.6 L3.25 4.0 2.5 4.05 M-3.2 22.5 Q-2.45 22.6 -0.75 21.55 L-0.35 21.35 2.45 18.85 3.2 17.95 M1.1 8.25 L1.25 8.2 M-4.2 16.8 L-4.1 16.9 Q-1.25 16.8 0.6 16.05 2.4 15.35 3.75 13.95 L7.7 9.65" fill="none" stroke="#000000" stroke-linecap="butt" stroke-linejoin="miter-clip" stroke-miterlimit="10.0" stroke-opacity="0.8" stroke-width="1.0"/>
    <path d="M6.7 -18.55 L6.7 -18.6 M2.5 4.05 L2.75 1.55" fill="none" stroke="#000000" stroke-linecap="round" stroke-linejoin="miter-clip" stroke-miterlimit="10.0" stroke-opacity="0.4" stroke-width="1.0"/>
    <path d="M2.5 4.05 L1.5 4.1 0.5 4.0 Q-3.65 3.5 -6.5 2.0 -8.6 0.9 -9.8 -0.65 -10.95 1.2 -10.3 2.95 -9.7 4.65 -7.7 6.1 -5.85 7.35 -3.5 8.0 L0.65 8.3 1.25 8.2 Q4.5 7.2 8.35 4.35 L11.65 1.6 12.55 3.45 12.55 3.5 12.9 3.85 8.35 10.55 3.2 17.95 M12.55 3.5 L12.9 3.85 M12.55 3.5 L10.1 6.05 8.05 9.1 7.7 9.65" fill="none" stroke="#000000" stroke-linecap="round" stroke-linejoin="miter-clip" stroke-miterlimit="10.0" stroke-opacity="0.8" stroke-width="1.0"/>
  </g>
</svg>
