<?xml version="1.0" encoding="UTF-8" standalone="no"?>
<svg xmlns:xlink="http://www.w3.org/1999/xlink" height="127.8px" width="421.4px" xmlns="http://www.w3.org/2000/svg">
  <g transform="matrix(1.0, 0.0, 0.0, 1.0, 210.7, 63.9)">
    <path d="M193.8 -29.3 Q210.2 -18.0 210.2 -4.3 210.2 9.5 193.7 22.05 177.75 34.2 148.65 43.6 119.55 52.95 81.8 58.1 42.75 63.4 0.0 63.4 -42.75 63.4 -81.8 58.1 -119.55 52.95 -148.65 43.6 -177.75 34.2 -193.7 22.05 -210.2 9.5 -210.2 -4.3 -210.2 -18.0 -193.55 -29.3 -177.75 -40.1 -148.2 -47.85 -89.4 -63.4 0.85 -63.4 90.9 -63.4 149.05 -47.85 178.2 -40.1 193.8 -29.3" fill="#ffffff" fill-opacity="0.0" fill-rule="evenodd" stroke="none"/>
    <path d="M193.8 -29.3 Q210.2 -18.0 210.2 -4.3 210.2 9.5 193.7 22.05 177.75 34.2 148.65 43.6 119.55 52.95 81.8 58.1 42.75 63.4 0.0 63.4 -42.75 63.4 -81.8 58.1 -119.55 52.95 -148.65 43.6 -177.75 34.2 -193.7 22.05 -210.2 9.5 -210.2 -4.3 -210.2 -18.0 -193.55 -29.3 -177.75 -40.1 -148.2 -47.85 -89.4 -63.4 0.85 -63.4 90.9 -63.4 149.05 -47.85 178.2 -40.1 193.8 -29.3 Z" fill="none" stroke="#000000" stroke-linecap="butt" stroke-linejoin="miter-clip" stroke-miterlimit="10.0" stroke-width="1.0"/>
  </g>
</svg>
