<?xml version="1.0" encoding="UTF-8" standalone="no"?>
<svg xmlns:xlink="http://www.w3.org/1999/xlink" height="69.45px" width="36.85px" xmlns="http://www.w3.org/2000/svg">
  <g transform="matrix(1.0, 0.0, 0.0, 1.0, 18.4, 34.65)">
    <path d="M-8.0 -21.9 Q-5.0 -26.5 -2.35 -29.55 1.9 -34.45 4.1 -34.05 8.65 -33.25 12.65 -27.15 14.3 -24.65 15.55 -21.7 16.7 -18.9 17.15 -16.5 18.2 -11.35 17.85 -5.35 17.6 -0.55 16.4 5.75 L15.45 9.65 14.5 13.7 Q13.75 18.4 15.8 21.35 L14.75 20.4 13.7 19.5 14.4 22.85 Q14.65 24.85 14.3 26.1 14.25 25.1 13.8 23.95 L12.85 21.9 Q12.9 24.3 11.45 27.65 L9.85 31.2 Q8.6 33.45 7.45 34.1 L6.5 30.0 5.3 26.0 Q5.1 27.8 4.4 29.85 3.65 32.05 2.75 33.35 2.05 32.7 1.45 30.95 L0.35 28.3 -1.45 26.05 -3.65 24.35 Q-4.8 23.65 -6.4 23.2 L-9.15 22.55 Q-12.5 21.75 -14.2 19.7 -15.75 17.8 -16.6 15.3 -17.35 13.2 -17.65 10.45 L-17.85 6.5 -17.9 2.6 Q-17.9 -1.45 -17.25 -4.9 -16.55 -8.45 -15.1 -12.1 -13.65 -15.7 -8.4 -23.15 L-5.45 -27.05 Q-4.4 -28.25 -5.4 -26.45 L-8.0 -21.9 -8.9 -20.55 -10.9 -17.3 -11.3 -16.4 -8.0 -21.9 -11.3 -16.4 -10.9 -17.3 -8.9 -20.55 -8.0 -21.9" fill="#ffffff" fill-opacity="0.0" fill-rule="evenodd" stroke="none"/>
    <path d="M-8.0 -21.9 L-5.4 -26.45 Q-4.4 -28.25 -5.45 -27.05 L-8.4 -23.15 Q-13.65 -15.7 -15.1 -12.1 -16.55 -8.45 -17.25 -4.9 -17.9 -1.45 -17.9 2.6 L-17.85 6.5 -17.65 10.45 Q-17.35 13.2 -16.6 15.3 -15.75 17.8 -14.2 19.7 -12.5 21.75 -9.15 22.55 L-6.4 23.2 Q-4.8 23.65 -3.65 24.35 L-1.45 26.05 0.35 28.3 1.45 30.95 Q2.05 32.7 2.75 33.35 3.65 32.05 4.4 29.85 5.1 27.8 5.3 26.0 L6.5 30.0 7.45 34.1 Q8.6 33.45 9.85 31.2 L11.45 27.65 Q12.9 24.3 12.85 21.9 L13.8 23.95 Q14.25 25.1 14.3 26.1 14.65 24.85 14.4 22.85 L13.7 19.5 14.75 20.4 15.8 21.35 Q13.75 18.4 14.5 13.7 L15.45 9.65 16.4 5.75 Q17.6 -0.55 17.85 -5.35 18.2 -11.35 17.15 -16.5 16.7 -18.9 15.55 -21.7 14.3 -24.65 12.65 -27.15 8.65 -33.25 4.1 -34.05 1.9 -34.45 -2.35 -29.55 -5.0 -26.5 -8.0 -21.9 L-11.3 -16.4 -10.9 -17.3 -8.9 -20.55 -8.0 -21.9" fill="none" stroke="#000000" stroke-linecap="round" stroke-linejoin="miter-clip" stroke-miterlimit="4.0" stroke-opacity="0.6" stroke-width="1.0"/>
  </g>
</svg>
