<?xml version="1.0" encoding="UTF-8" standalone="no"?>
<svg xmlns:xlink="http://www.w3.org/1999/xlink" height="56.75px" width="192.85px" xmlns="http://www.w3.org/2000/svg">
  <g transform="matrix(1.0, 0.0, 0.0, 1.0, 96.45, 28.4)">
    <path d="M-95.95 -5.6 L-90.15 -6.2 -90.15 26.1 -95.95 27.7 -95.95 -5.6" fill="#ffffff" fill-opacity="0.0" fill-rule="evenodd" stroke="none"/>
    <path d="M-95.95 -5.6 L-95.95 27.7 -90.15 26.1 -90.15 -6.2 -95.95 -5.6 Z" fill="none" stroke="#000000" stroke-linecap="butt" stroke-linejoin="miter-clip" stroke-miterlimit="10.0" stroke-width="1.0"/>
    <path d="M-57.7 -9.4 L-52.65 -9.95 -52.65 18.25 -57.7 19.65 -57.7 -9.4" fill="#ffffff" fill-opacity="0.0" fill-rule="evenodd" stroke="none"/>
    <path d="M-57.7 -9.4 L-57.7 19.65 -52.65 18.25 -52.65 -9.95 -57.7 -9.4 Z" fill="none" stroke="#000000" stroke-linecap="butt" stroke-linejoin="miter-clip" stroke-miterlimit="10.0" stroke-width="1.0"/>
    <path d="M-26.65 -13.65 L-22.2 -14.1 -22.45 12.55 -26.95 13.85 -26.65 -13.65" fill="#ffffff" fill-opacity="0.0" fill-rule="evenodd" stroke="none"/>
    <path d="M-26.65 -13.65 L-26.95 13.85 -22.45 12.55 -22.2 -14.1 -26.65 -13.65 Z" fill="none" stroke="#000000" stroke-linecap="butt" stroke-linejoin="miter-clip" stroke-miterlimit="10.0" stroke-width="1.0"/>
    <path d="M0.7 -17.05 L4.35 -17.45 4.1 6.55 0.45 7.7 0.7 -17.05" fill="#ffffff" fill-opacity="0.0" fill-rule="evenodd" stroke="none"/>
    <path d="M0.7 -17.05 L0.45 7.7 4.1 6.55 4.35 -17.45 0.7 -17.05 Z" fill="none" stroke="#000000" stroke-linecap="butt" stroke-linejoin="miter-clip" stroke-miterlimit="10.0" stroke-width="1.0"/>
    <path d="M22.35 -19.15 L25.35 -19.55 25.1 2.0 22.1 3.05 22.35 -19.15" fill="#ffffff" fill-opacity="0.0" fill-rule="evenodd" stroke="none"/>
    <path d="M22.35 -19.15 L22.1 3.05 25.1 2.0 25.35 -19.55 22.35 -19.15 Z" fill="none" stroke="#000000" stroke-linecap="butt" stroke-linejoin="miter-clip" stroke-miterlimit="10.0" stroke-width="1.0"/>
    <path d="M39.85 -21.95 L42.5 -22.3 42.3 -1.55 39.6 -0.5 39.85 -21.95" fill="#ffffff" fill-opacity="0.0" fill-rule="evenodd" stroke="none"/>
    <path d="M39.85 -21.95 L39.6 -0.5 42.3 -1.55 42.5 -22.3 39.85 -21.95 Z" fill="none" stroke="#000000" stroke-linecap="butt" stroke-linejoin="miter-clip" stroke-miterlimit="10.0" stroke-width="1.0"/>
    <path d="M54.3 -23.35 L57.0 -23.65 56.8 -5.2 54.15 -4.3 54.3 -23.35" fill="#ffffff" fill-opacity="0.0" fill-rule="evenodd" stroke="none"/>
    <path d="M54.3 -23.35 L54.15 -4.3 56.8 -5.2 57.0 -23.65 54.3 -23.35 Z" fill="none" stroke="#000000" stroke-linecap="butt" stroke-linejoin="miter-clip" stroke-miterlimit="10.0" stroke-width="1.0"/>
    <path d="M66.8 -24.7 L69.5 -25.0 69.35 -8.25 66.65 -7.4 66.8 -24.7" fill="#ffffff" fill-opacity="0.0" fill-rule="evenodd" stroke="none"/>
    <path d="M66.8 -24.7 L66.65 -7.4 69.35 -8.25 69.5 -25.0 66.8 -24.7 Z" fill="none" stroke="#000000" stroke-linecap="butt" stroke-linejoin="miter-clip" stroke-miterlimit="10.0" stroke-width="1.0"/>
    <path d="M78.05 -25.85 L80.1 -26.1 79.95 -10.85 77.9 -10.1 78.05 -25.85" fill="#ffffff" fill-opacity="0.0" fill-rule="evenodd" stroke="none"/>
    <path d="M78.05 -25.85 L77.9 -10.1 79.95 -10.85 80.1 -26.1 78.05 -25.85 Z" fill="none" stroke="#000000" stroke-linecap="butt" stroke-linejoin="miter-clip" stroke-miterlimit="10.0" stroke-width="1.0"/>
    <path d="M87.0 -26.65 L88.75 -26.9 88.6 -12.4 86.85 -11.65 87.0 -26.65" fill="#ffffff" fill-opacity="0.0" fill-rule="evenodd" stroke="none"/>
    <path d="M87.0 -26.65 L86.85 -11.65 88.6 -12.4 88.75 -26.9 87.0 -26.65 Z" fill="none" stroke="#000000" stroke-linecap="butt" stroke-linejoin="miter-clip" stroke-miterlimit="10.0" stroke-width="1.0"/>
    <path d="M94.6 -27.55 L95.9 -27.8 95.75 -14.2 94.45 -13.5 94.6 -27.55" fill="#ffffff" fill-opacity="0.0" fill-rule="evenodd" stroke="none"/>
    <path d="M94.6 -27.55 L94.45 -13.5 95.75 -14.2 95.9 -27.8 94.6 -27.55 Z" fill="none" stroke="#000000" stroke-linecap="butt" stroke-linejoin="miter-clip" stroke-miterlimit="10.0" stroke-width="1.0"/>
  </g>
</svg>
