<?xml version="1.0" encoding="UTF-8" standalone="no"?>
<svg xmlns:xlink="http://www.w3.org/1999/xlink" height="14.3px" width="21.8px" xmlns="http://www.w3.org/2000/svg">
  <g transform="matrix(1.0, 0.0, 0.0, 1.0, 11.7, 7.55)">
    <path d="M-3.7 4.1 L-6.9 4.0 Q-5.75 4.4 -4.25 2.95 L-1.4 -0.55 1.7 -4.05 Q3.55 -5.5 5.25 -4.95 7.65 -4.2 6.65 -2.1 L4.35 1.1 2.45 4.05 Q0.9 5.8 0.45 3.55 L-1.5 5.05 Q-1.5 3.75 -0.8 2.55 -2.7 3.8 -3.7 4.1" fill="#ffffff" fill-opacity="0.0" fill-rule="evenodd" stroke="none"/>
    <path d="M-3.7 4.1 Q-2.7 3.8 -0.8 2.55 -1.5 3.75 -1.5 5.05 L0.45 3.55 Q0.9 5.8 2.45 4.05 L4.35 1.1 6.65 -2.1 Q7.65 -4.2 5.25 -4.95 3.55 -5.5 1.7 -4.05 L-1.4 -0.55 -4.25 2.95 Q-5.75 4.4 -6.9 4.0 L-3.7 4.1 Z" fill="none" stroke="#000000" stroke-linecap="butt" stroke-linejoin="miter-clip" stroke-miterlimit="10.0" stroke-opacity="0.6" stroke-width="1.0"/>
  </g>
</svg>
