<?xml version="1.0" encoding="UTF-8" standalone="no"?>
<svg xmlns:xlink="http://www.w3.org/1999/xlink" height="104.4px" width="138.75px" xmlns="http://www.w3.org/2000/svg">
  <g transform="matrix(1.0, 0.0, 0.0, 1.0, 68.9, 51.65)">
    <path d="M7.8 -14.5 L7.1 -14.35 6.45 -14.25 9.3 -14.65 8.55 -14.4 7.95 -14.15 7.8 -14.1 9.7 -14.1 11.5 -13.9 9.65 -13.25 11.6 -13.15 13.5 -12.75 12.75 -12.45 11.95 -12.2 11.95 -12.35 12.8 -12.65 13.0 -12.75 10.75 -13.05 9.65 -13.1 9.6 -13.4 9.7 -13.45 10.8 -13.9 9.9 -13.9 7.8 -13.9 7.75 -14.2 6.55 -14.05 7.45 -13.8 10.05 -12.75 Q12.5 -11.65 13.75 -11.3 L13.7 -11.0 10.75 -11.05 9.2 -11.0 11.35 -10.8 12.6 -10.75 13.75 -10.55 13.7 -10.25 13.2 -10.15 14.5 -10.25 16.75 -9.85 Q18.0 -9.35 19.45 -8.35 L22.0 -6.15 21.85 -5.85 20.8 -6.35 22.5 -4.95 22.75 -4.6 22.35 -4.65 21.0 -5.0 22.35 -3.85 23.5 -2.45 23.8 -2.05 23.3 -2.2 Q22.5 -2.55 21.4 -3.45 22.4 -1.45 23.0 0.55 23.75 3.2 23.55 5.6 L23.55 5.85 23.3 5.7 22.7 5.25 Q23.1 6.45 23.15 7.85 L23.2 8.45 22.15 6.85 22.5 9.9 22.5 10.2 22.25 10.05 Q21.65 9.55 21.3 8.85 21.3 11.15 20.85 12.45 L20.75 12.7 20.55 12.55 Q19.85 11.9 19.25 10.35 18.85 10.85 18.55 11.6 L18.15 13.0 17.45 15.0 16.15 16.85 15.7 17.4 Q14.5 18.9 14.0 19.9 13.3 21.35 13.25 22.9 L13.25 23.15 13.05 23.0 Q12.15 22.55 11.55 20.9 12.1 22.95 13.35 26.25 L14.8 30.5 14.5 30.6 Q14.95 33.75 14.3 35.6 L14.15 35.6 Q13.9 37.5 13.35 38.75 L13.05 38.7 12.25 40.7 11.3 42.7 Q9.95 45.2 9.55 46.5 L8.95 48.35 10.4 47.65 11.4 46.35 12.65 44.0 14.55 40.4 Q15.75 38.35 16.9 37.25 17.85 36.45 17.8 35.15 L17.3 32.3 Q16.55 29.45 16.5 27.75 16.45 24.8 17.85 22.0 L19.15 19.45 Q23.1 11.75 24.4 7.7 26.7 0.7 25.1 -4.0 24.3 -6.35 21.8 -8.45 20.2 -9.8 18.2 -10.85 16.75 -11.55 14.65 -11.6 L14.55 -11.95 14.75 -12.0 13.6 -12.05 11.95 -12.0 11.95 -12.2 13.7 -12.2 15.35 -12.05 14.65 -11.75 15.55 -11.7 15.85 -11.7 16.45 -11.6 18.25 -11.0 Q20.65 -9.75 22.4 -8.15 24.55 -6.15 25.25 -4.05 L25.3 -3.85 25.35 -3.85 28.05 -2.55 30.5 -1.0 34.95 2.35 Q37.55 4.15 39.7 5.15 41.45 5.95 44.8 6.45 L49.85 6.6 49.0 6.9 52.35 6.85 55.65 7.15 54.65 7.35 53.65 7.5 56.85 8.15 60.15 8.6 Q58.8 9.2 56.65 9.35 L59.65 10.2 Q61.75 10.6 62.6 10.95 L61.65 11.0 60.7 11.05 65.25 14.25 63.9 14.05 62.6 14.2 64.45 16.4 66.35 18.55 65.45 18.05 64.55 17.6 Q64.55 18.4 65.1 19.4 L66.1 21.0 65.05 20.2 64.0 19.5 65.05 23.05 Q65.6 25.0 65.6 26.55 L65.6 33.35 65.0 32.3 64.3 31.35 Q64.55 32.75 65.0 33.6 L63.6 32.5 Q62.8 31.9 62.05 31.85 L62.65 32.35 63.35 32.85 Q61.5 31.95 59.6 31.55 L60.05 31.95 60.6 32.35 58.2 31.5 55.85 30.7 56.35 31.6 57.05 32.6 Q55.0 32.35 53.3 30.15 L50.6 26.4 50.9 27.4 50.3 26.15 Q49.6 24.65 48.65 23.95 L48.9 24.65 49.15 25.4 48.2 23.95 47.05 22.8 47.35 23.7 47.8 24.65 45.85 22.45 Q44.7 21.0 43.75 20.4 L44.4 21.4 45.05 22.45 40.7 19.3 42.2 21.45 Q43.1 22.75 43.4 23.75 42.15 22.4 40.15 21.4 L36.55 19.9 Q34.25 19.0 33.0 18.2 31.2 17.05 30.0 15.35 27.55 11.75 25.3 5.25 L25.35 4.9 25.3 5.25 24.1 9.15 21.15 15.9 18.0 22.05 Q16.7 24.65 16.65 27.3 16.65 29.1 17.25 31.55 L17.95 34.85 Q18.05 36.45 17.05 37.4 15.3 38.95 13.15 43.35 L11.7 46.25 Q10.95 47.5 10.45 47.8 L6.9 49.45 2.55 49.45 0.35 49.45 0.9 48.0 Q1.55 46.45 2.1 45.85 2.7 45.3 4.25 45.45 L5.7 45.75 11.45 36.05 Q12.0 35.15 11.95 33.5 11.85 31.7 10.9 29.8 10.05 28.15 8.55 26.45 5.3 22.7 2.9 18.05 L1.6 15.2 1.15 14.15 1.6 15.2 2.9 18.05 Q5.3 22.7 8.55 26.45 10.05 28.15 10.9 29.8 L9.35 31.55 7.35 33.4 5.1 35.3 Q4.55 35.7 3.65 37.3 2.8 38.7 2.15 39.05 L-0.7 39.4 Q-1.95 38.15 -1.25 37.25 -1.0 36.95 -0.55 36.8 L0.05 36.7 -0.55 36.8 Q-1.0 36.95 -1.25 37.25 -1.95 38.15 -0.7 39.4 L-2.65 39.2 -3.6 39.15 -4.5 36.85 Q-2.7 36.25 -0.9 34.9 1.0 33.5 2.25 31.75 5.2 27.45 2.45 23.8 L-0.2 20.9 -2.85 18.4 -4.45 16.3 -5.1 14.85 -5.85 14.85 -8.8 14.65 -9.75 14.55 -10.6 14.45 -12.5 14.2 -13.2 16.05 -12.5 14.15 -13.2 16.05 -14.0 18.25 -14.05 18.45 -14.15 18.7 -14.4 19.4 -14.45 19.55 -14.5 19.6 -15.85 23.15 Q-17.55 27.5 -18.55 28.65 -20.0 30.35 -18.9 32.35 L-17.55 33.95 -14.55 35.2 Q-13.05 36.4 -13.05 37.7 -13.0 38.35 -13.35 38.75 -13.8 39.9 -15.2 40.8 -16.7 41.75 -17.15 40.8 -17.6 39.95 -20.7 37.1 L-23.75 34.4 Q-23.8 33.75 -24.4 32.75 L-25.25 31.1 Q-26.0 29.4 -25.4 27.95 L-23.7 25.0 Q-22.2 22.2 -21.25 18.25 L-20.65 14.9 Q-20.55 13.55 -20.8 12.65 L-21.05 12.6 -24.5 11.55 -26.25 10.7 -26.7 10.5 -26.95 10.35 -26.7 10.5 -26.6 10.7 Q-25.75 12.2 -26.05 14.65 L-26.9 18.4 -27.35 26.75 -27.4 36.05 -27.5 39.9 -27.7 41.35 Q-28.75 41.6 -29.4 42.8 L-30.45 44.35 -32.75 44.8 -34.55 44.8 Q-35.5 42.75 -35.3 41.9 L-35.1 41.55 -34.95 41.5 Q-33.85 41.05 -33.55 40.3 L-32.75 37.95 Q-32.2 36.65 -32.4 35.2 L-32.75 31.65 Q-32.75 27.3 -33.5 21.0 -34.45 12.5 -36.05 10.45 -37.4 8.8 -39.8 4.45 L-39.8 4.55 -39.8 4.4 Q-40.2 2.75 -41.0 1.6 L-41.0 2.25 -41.0 1.6 Q-40.2 2.75 -39.8 4.4 L-40.65 2.9 -41.0 2.25 -40.95 2.8 -40.75 3.8 -42.25 1.1 -43.5 -1.7 -44.0 -3.3 -44.15 -3.9 Q-44.5 -5.4 -44.9 -5.8 L-45.0 -5.25 -45.15 -4.65 -45.15 -6.15 Q-45.15 -7.0 -45.3 -7.45 L-45.55 -6.8 -45.75 -6.1 -46.2 -8.25 -46.35 -7.75 -46.6 -9.9 -47.0 -9.6 -46.95 -11.35 -47.0 -13.05 Q-47.1 -15.45 -47.65 -16.75 -48.35 -18.55 -50.15 -19.1 -52.45 -18.95 -56.85 -19.05 L-61.75 -19.1 Q-62.75 -19.0 -63.65 -20.2 L-65.45 -22.4 -64.9 -21.85 -64.8 -21.9 -64.0 -20.9 -63.45 -20.2 -63.65 -20.2 -63.45 -20.2 -63.05 -19.75 Q-62.5 -19.25 -61.9 -19.25 L-60.75 -19.3 -58.05 -19.25 -53.6 -19.15 -50.15 -19.25 -50.1 -19.25 Q-48.25 -18.7 -47.45 -16.8 -46.95 -15.5 -46.8 -13.05 L-46.8 -10.4 -46.8 -9.95 -46.7 -10.05 -46.5 -10.2 -46.3 -8.5 -46.2 -8.7 -46.05 -8.3 -45.7 -6.8 -45.65 -6.9 -45.45 -7.5 -45.3 -8.1 -45.15 -7.5 -44.95 -6.15 -44.75 -5.95 -44.25 -4.9 -43.85 -3.5 -43.35 -1.75 -42.85 -0.6 -41.1 2.95 -41.15 1.6 -41.1 1.15 -40.85 1.5 -39.95 3.3 -40.0 2.65 -39.65 2.55 -38.95 4.35 -38.95 4.25 -38.9 3.45 -38.95 3.05 -38.65 3.35 -37.65 4.5 -36.85 5.9 -35.9 7.4 Q-35.95 6.5 -36.45 5.35 L-36.3 5.3 -36.15 5.25 -34.85 7.6 -35.0 6.95 -35.15 6.5 -34.8 6.75 -33.3 8.0 -33.6 7.2 -33.35 7.05 Q-32.55 8.15 -31.2 9.15 L-31.25 9.05 -31.0 8.9 -31.0 8.85 -29.6 9.25 -27.95 9.7 -26.5 10.4 -24.4 11.35 -21.3 12.35 -20.9 12.45 -20.95 12.3 -21.05 12.1 -21.1 12.05 -21.25 11.8 -21.25 11.75 -21.3 11.7 -22.5 11.0 -23.85 10.6 Q-26.15 9.8 -28.05 8.4 L-28.25 8.25 -28.5 8.05 -28.65 7.9 -30.75 5.45 -30.8 5.35 -30.9 5.2 -30.95 5.1 -31.0 5.0 -31.05 4.9 -31.1 4.8 -30.35 4.9 -29.6 5.05 -30.1 4.55 -30.55 4.05 -30.0 4.15 -29.4 4.25 -29.8 3.65 -30.15 3.05 -29.65 3.1 -29.2 3.2 -30.6 1.8 -31.8 0.2 -28.5 1.5 Q-29.75 0.9 -30.15 -0.25 L-29.55 -0.3 -29.0 -0.3 Q-30.0 -0.6 -31.0 -1.75 L-32.6 -3.55 -30.9 -3.15 -32.15 -4.15 -31.45 -4.2 -30.8 -4.2 Q-31.05 -5.3 -32.65 -7.05 -34.35 -8.9 -34.65 -9.95 L-34.05 -9.7 -34.95 -10.65 -34.75 -10.9 -34.35 -10.75 -32.55 -10.3 -34.3 -11.45 -34.15 -11.75 -33.85 -11.75 -33.35 -11.75 Q-34.2 -12.45 -34.45 -12.9 -35.45 -13.3 -36.35 -13.85 L-36.8 -14.15 -36.0 -14.2 -36.1 -14.3 -36.55 -14.7 -36.4 -15.0 -36.2 -14.95 -36.7 -15.3 -37.85 -16.1 -37.65 -16.35 Q-36.85 -15.9 -35.25 -15.7 L-37.3 -17.75 -39.05 -19.45 -38.85 -19.7 -38.55 -19.6 -38.8 -19.9 -39.3 -20.45 -39.6 -20.75 -38.8 -20.75 Q-39.85 -21.75 -41.35 -22.25 L-41.25 -22.55 -41.8 -23.1 -43.3 -24.3 -43.2 -24.65 -43.05 -24.6 -42.65 -24.65 -42.5 -24.65 -44.3 -25.4 -44.25 -25.7 -42.4 -25.7 Q-43.65 -26.7 -45.45 -26.7 L-48.7 -26.2 -49.15 -26.15 -53.75 -25.4 -56.4 -25.05 -56.35 -24.75 Q-58.65 -23.85 -61.15 -23.85 L-63.7 -24.05 Q-63.5 -24.9 -63.8 -25.25 -64.15 -25.75 -65.65 -24.85 L-64.9 -25.55 -60.65 -28.55 -57.5 -30.6 -56.0 -34.7 Q-55.75 -35.4 -52.9 -37.7 L-51.75 -38.6 -51.75 -38.65 Q-51.65 -41.0 -51.35 -42.2 -51.25 -42.75 -52.25 -46.1 -53.15 -48.95 -52.45 -48.65 -51.8 -48.35 -49.95 -46.65 L-49.95 -46.85 Q-49.95 -49.8 -49.15 -49.35 L-46.45 -47.25 -43.55 -44.8 Q-42.35 -43.95 -40.95 -42.05 L-40.9 -41.95 -40.45 -41.4 -39.95 -40.65 Q-37.65 -39.55 -35.45 -37.4 -32.8 -34.8 -31.25 -31.8 L-28.2 -26.5 Q-26.75 -24.55 -24.9 -23.5 -24.2 -23.1 -23.45 -22.85 L-23.95 -22.65 -24.4 -22.5 -23.7 -22.45 -23.05 -22.45 -24.45 -22.05 -22.65 -22.05 -23.2 -21.65 -21.0 -21.4 -21.05 -20.9 -20.9 -20.85 -13.5 -18.9 -5.95 -16.9 -2.55 -16.45 1.05 -16.15 4.55 -15.6 5.7 -15.3 Q6.9 -15.0 7.8 -14.5 M-40.0 -40.7 L-40.45 -41.4 -40.0 -40.7 -39.95 -40.65 -39.55 -39.9 -39.45 -39.55 -39.45 -39.5 Q-39.35 -38.85 -40.95 -36.7 L-43.3 -34.0 -44.4 -33.2 -43.3 -34.0 -40.95 -36.7 Q-39.35 -38.85 -39.45 -39.5 L-39.45 -39.55 -39.55 -39.9 -39.95 -40.65 -40.0 -40.7 M0.2 -14.45 L1.85 -14.3 3.7 -14.3 3.55 -14.4 0.2 -14.45 M25.35 4.9 L26.8 8.9 Q28.3 12.6 30.15 15.3 31.35 17.05 33.35 18.25 34.55 18.9 37.2 19.95 L40.2 21.25 Q41.85 22.05 42.95 23.1 L41.3 20.4 40.6 19.4 40.8 19.15 44.45 21.8 44.4 21.75 43.6 20.5 43.8 20.25 45.2 21.4 46.35 22.75 47.25 23.9 46.65 22.35 47.1 22.65 Q47.8 23.1 48.6 24.3 L48.3 23.45 48.75 23.8 Q49.75 24.6 50.55 26.35 L50.7 26.3 52.35 28.5 54.2 30.9 Q55.3 32.05 56.6 32.35 L56.1 31.45 55.7 30.8 55.4 30.4 55.85 30.55 59.25 31.7 59.7 31.85 59.5 31.7 59.6 31.4 62.2 32.2 61.5 31.6 62.1 31.65 63.25 32.1 64.25 32.8 64.6 33.1 64.1 31.35 64.45 31.25 64.85 31.9 63.35 27.45 63.25 27.2 Q62.2 24.35 60.15 21.2 58.1 18.05 55.7 15.55 55.8 17.2 56.5 19.1 L56.2 19.2 54.1 16.05 Q52.85 14.35 51.45 13.35 51.7 14.05 52.5 15.35 L53.2 16.65 53.75 18.0 53.45 18.1 51.55 15.1 Q50.2 13.45 48.75 12.7 L49.6 14.15 50.6 15.9 51.4 17.75 51.1 17.9 Q49.75 15.7 47.8 13.65 45.45 11.2 43.45 10.45 L45.35 12.55 45.2 12.8 44.45 12.35 Q41.6 10.3 39.95 9.7 40.9 11.3 42.35 12.25 L42.15 12.55 36.7 8.65 Q34.3 6.65 32.15 4.25 L33.15 6.75 34.0 8.65 34.15 9.1 33.75 8.85 Q32.75 8.3 31.85 7.05 L30.5 4.65 30.8 6.2 31.05 7.7 31.05 8.2 30.75 7.8 29.7 6.2 28.95 4.4 29.4 6.0 29.1 6.15 28.45 4.85 26.7 1.5 25.9 0.7 25.35 4.9 M3.45 -0.6 L2.4 -0.9 5.8 1.0 Q4.7 -0.1 3.45 -0.6 M1.15 -6.15 L3.35 -5.3 2.1 -7.2 6.25 -6.4 Q4.85 -7.5 1.15 -8.2 L-2.25 -8.7 0.9 -7.35 -2.55 -6.95 1.15 -6.15 M2.95 -10.6 L4.7 -10.75 Q3.8 -11.25 1.85 -11.2 L0.05 -11.05 2.95 -10.6 M1.6 -15.25 Q2.75 -15.05 3.6 -14.55 L6.4 -14.1 6.4 -14.4 7.0 -14.5 7.25 -14.6 Q5.65 -15.35 3.3 -15.7 L-1.0 -16.15 -3.55 -16.4 -6.0 -16.75 Q-4.6 -15.7 -3.25 -15.5 L-1.35 -15.4 -0.4 -15.4 1.6 -15.25 M25.3 -3.85 Q25.95 -1.8 25.9 0.7 25.95 -1.8 25.3 -3.85 M4.85 46.4 L4.6 46.35 4.0 46.55 Q3.05 47.15 2.55 49.45 3.05 47.15 4.0 46.55 L4.6 46.35 4.85 46.4 M-11.95 12.75 L-12.4 13.95 -12.45 14.05 -11.6 14.15 -11.25 14.2 -9.75 14.4 -9.25 14.45 -5.85 14.7 -4.65 14.7 -4.45 14.7 -0.1 14.4 1.05 14.0 Q0.8 13.15 1.0 12.05 L-0.55 11.5 -2.1 10.7 Q-3.75 9.8 -4.7 9.5 L-4.7 9.4 -6.4 9.25 -6.95 9.3 -6.95 9.55 -9.25 9.85 -10.7 9.8 -10.85 10.05 -10.9 10.2 -10.95 10.3 -11.95 12.75 -12.45 13.95 -12.5 14.15 -12.45 13.95 -11.95 12.75 M1.15 14.15 L-0.05 14.55 -4.45 14.85 -5.1 14.85 -4.45 14.85 -0.05 14.55 1.15 14.15 M-3.15 36.8 L-3.5 37.2 Q-3.85 37.9 -2.65 39.2 -3.85 37.9 -3.5 37.2 L-3.15 36.8 M-48.5 -46.55 L-47.8 -45.25 -48.65 -44.15 -47.95 -43.45 -47.1 -42.5 -46.9 -41.65 -46.85 -40.3 -47.0 -37.3 -48.1 -38.8 -47.55 -36.05 -47.1 -34.95 -47.05 -35.5 -47.05 -35.85 Q-46.95 -36.65 -46.85 -36.2 L-46.65 -35.1 -46.45 -33.9 -45.75 -36.05 -45.2 -34.7 -44.85 -36.15 Q-44.5 -37.85 -44.5 -38.95 -44.5 -39.8 -45.45 -41.85 L-46.25 -43.35 Q-47.8 -46.2 -48.65 -47.15 -49.15 -47.75 -48.5 -46.55 M-50.15 -38.1 L-50.2 -39.4 -50.2 -39.85 -50.0 -42.2 Q-49.9 -42.7 -49.95 -46.65 -49.9 -42.7 -50.0 -42.2 L-50.2 -39.85 -50.2 -39.4 -50.15 -38.1 M-53.4 -30.95 L-54.25 -31.3 Q-54.75 -31.0 -54.75 -30.15 L-54.65 -29.35 -52.55 -29.5 -51.5 -29.9 -53.4 -30.95 M-30.65 -3.0 L-30.9 -3.15 -30.65 -3.0 M-50.2 -39.85 L-51.75 -38.6 -50.2 -39.85 M-38.8 5.2 L-39.8 2.65 -39.8 4.45 -39.8 2.65 -38.8 5.2 -38.8 4.35 -38.75 3.45 -38.8 4.35 -38.8 5.2 M-37.25 5.55 Q-38.05 4.1 -38.75 3.45 -38.05 4.1 -37.25 5.55 L-37.15 6.0 -36.45 7.45 -35.0 8.55 -33.7 9.55 Q-33.0 10.2 -32.75 11.1 L-32.65 11.25 -32.05 12.3 -31.35 13.05 -31.35 12.95 -31.95 11.55 -31.7 11.35 Q-30.85 12.4 -30.4 13.4 L-30.35 12.1 -30.0 12.0 Q-29.55 13.2 -29.4 14.95 L-29.3 18.2 -29.2 21.25 Q-28.75 25.4 -28.75 30.3 L-28.6 33.0 -28.4 36.25 Q-28.4 38.1 -28.75 39.15 L-29.1 39.7 -29.5 40.1 -30.05 40.8 -30.4 41.9 -30.65 42.85 -31.6 44.5 -30.5 44.25 -29.85 43.25 -29.1 42.05 Q-28.6 41.45 -27.85 41.25 L-27.65 39.5 Q-27.5 37.85 -27.6 36.05 L-27.5 26.7 -27.05 18.35 -26.75 17.1 -26.15 13.9 Q-26.05 12.05 -26.75 10.8 L-26.95 10.35 -28.05 9.85 -29.7 9.4 -31.1 9.0 -30.65 9.75 Q-32.45 8.55 -33.45 7.15 L-33.15 8.0 -32.8 8.85 Q-33.95 7.45 -34.85 6.9 L-34.65 7.7 -34.45 8.45 -36.3 5.3 Q-35.65 6.8 -35.75 7.9 L-37.2 5.65 -37.25 5.55 M-20.9 12.45 L-20.8 12.65 -20.9 12.45 M-30.15 -20.9 Q-29.65 -20.2 -27.75 -20.2 L-25.9 -20.35 -28.15 -20.75 -30.15 -20.9 M-20.95 -8.55 L-22.3 -9.65 -22.1 -9.2 -21.95 -8.75 Q-22.2 -8.85 -22.65 -9.1 L-23.4 -9.5 -23.0 -8.95 -22.65 -8.5 -24.0 -9.45 Q-24.85 -10.15 -25.35 -10.45 -25.0 -9.15 -24.05 -8.4 L-22.0 -7.05 -22.8 -7.85 -21.75 -7.3 Q-21.05 -6.95 -20.6 -6.85 L-21.05 -8.0 -19.75 -7.2 Q-19.05 -6.55 -18.35 -6.55 L-19.9 -8.0 -21.2 -9.55 -21.05 -9.0 -20.95 -8.55 M-11.15 -11.25 L-12.1 -11.6 -9.1 -9.65 Q-10.05 -10.7 -11.15 -11.25 M-11.7 -0.9 L-11.3 0.3 -10.6 3.3 Q-9.75 7.9 -10.85 10.05 -9.75 7.9 -10.6 3.3 L-11.3 0.3 -11.7 -0.9 M-34.4 9.35 L-33.5 10.4 Q-32.95 11.0 -32.85 11.5 L-32.9 11.2 -33.6 10.15 -34.4 9.35 M-15.95 39.2 L-15.65 39.55 Q-14.95 39.85 -13.35 38.75 -14.95 39.85 -15.65 39.55 L-15.95 39.2 M-31.95 41.2 L-32.55 41.3 Q-33.25 41.55 -33.5 42.15 -33.7 42.85 -33.25 43.85 L-32.75 44.8 -33.25 43.85 Q-33.7 42.85 -33.5 42.15 -33.25 41.55 -32.55 41.3 L-31.95 41.2" fill="#ffffff" fill-opacity="0.0" fill-rule="evenodd" stroke="none"/>
    <path d="M0.2 -14.45 L3.55 -14.4 3.7 -14.3 1.85 -14.3 0.2 -14.45 M-34.4 9.35 L-33.6 10.15 -32.9 11.2 -32.85 11.5 Q-32.95 11.0 -33.5 10.4 L-34.4 9.35" fill="#b54d22" fill-rule="evenodd" stroke="none"/>
    <path d="M11.95 -12.2 L11.95 -12.0 13.6 -12.05 14.75 -12.0 14.55 -11.95 14.65 -11.6 Q16.75 -11.55 18.2 -10.85 20.2 -9.8 21.8 -8.45 24.3 -6.35 25.1 -4.0 26.7 0.7 24.4 7.7 23.1 11.75 19.15 19.45 L17.85 22.0 Q16.45 24.8 16.5 27.75 16.55 29.45 17.3 32.3 L17.8 35.15 Q17.85 36.45 16.9 37.25 15.75 38.35 14.55 40.4 L12.65 44.0 11.4 46.35 10.4 47.65 8.95 48.35 9.55 46.5 Q9.95 45.2 11.3 42.7 L12.25 40.7 13.05 38.7 13.35 38.75 Q13.9 37.5 14.15 35.6 L14.3 35.6 Q14.95 33.75 14.5 30.6 L14.8 30.5 13.35 26.25 Q12.1 22.95 11.55 20.9 12.15 22.55 13.05 23.0 L13.25 23.15 13.25 22.9 Q13.3 21.35 14.0 19.9 14.5 18.9 15.7 17.4 L16.15 16.85 17.45 15.0 18.15 13.0 18.55 11.6 Q18.85 10.85 19.25 10.35 19.85 11.9 20.55 12.55 L20.75 12.7 20.85 12.45 Q21.3 11.15 21.3 8.85 21.65 9.55 22.25 10.05 L22.5 10.2 22.5 9.9 22.15 6.85 23.2 8.45 23.15 7.85 Q23.1 6.45 22.7 5.25 L23.3 5.7 23.55 5.85 23.55 5.6 Q23.75 3.2 23.0 0.55 22.4 -1.45 21.4 -3.45 22.5 -2.55 23.3 -2.2 L23.8 -2.05 23.5 -2.45 22.35 -3.85 21.0 -5.0 22.35 -4.65 22.75 -4.6 22.5 -4.95 20.8 -6.35 21.85 -5.85 22.0 -6.15 19.45 -8.35 Q18.0 -9.35 16.75 -9.85 L14.5 -10.25 13.2 -10.15 13.7 -10.25 13.75 -10.55 12.6 -10.75 11.35 -10.8 9.2 -11.0 10.75 -11.05 13.7 -11.0 13.75 -11.3 Q12.5 -11.65 10.05 -12.75 L7.45 -13.8 6.55 -14.05 7.75 -14.2 7.8 -13.9 9.9 -13.9 10.8 -13.9 9.7 -13.45 9.6 -13.4 9.65 -13.1 10.75 -13.05 13.0 -12.75 12.8 -12.65 11.95 -12.35 11.95 -12.2 M1.6 -15.25 L-0.4 -15.4 -1.35 -15.4 -3.25 -15.5 Q-4.6 -15.7 -6.0 -16.75 L-3.55 -16.4 -1.0 -16.15 3.3 -15.7 Q5.65 -15.35 7.25 -14.6 L7.0 -14.5 6.4 -14.4 6.4 -14.1 3.6 -14.55 Q2.75 -15.05 1.6 -15.25 M2.95 -10.6 L0.05 -11.05 1.85 -11.2 Q3.8 -11.25 4.7 -10.75 L2.95 -10.6 M1.15 -6.15 L-2.55 -6.95 0.9 -7.35 -2.25 -8.7 1.15 -8.2 Q4.85 -7.5 6.25 -6.4 L2.1 -7.2 3.35 -5.3 1.15 -6.15 M3.45 -0.6 Q4.7 -0.1 5.8 1.0 L2.4 -0.9 3.45 -0.6 M25.9 0.7 L26.7 1.5 28.45 4.85 29.1 6.15 29.4 6.0 28.95 4.4 29.7 6.2 30.75 7.8 31.05 8.2 31.05 7.7 30.8 6.2 30.5 4.65 31.85 7.05 Q32.75 8.3 33.75 8.85 L34.15 9.1 34.0 8.65 33.15 6.75 32.15 4.25 Q34.3 6.65 36.7 8.65 L42.15 12.55 42.35 12.25 Q40.9 11.3 39.95 9.7 41.6 10.3 44.45 12.35 L45.2 12.8 45.35 12.55 43.45 10.45 Q45.45 11.2 47.8 13.65 49.75 15.7 51.1 17.9 L51.4 17.75 50.6 15.9 49.6 14.15 48.75 12.7 Q50.2 13.45 51.55 15.1 L53.45 18.1 53.75 18.0 53.2 16.65 52.5 15.35 Q51.7 14.05 51.45 13.35 52.85 14.35 54.1 16.05 L56.2 19.2 56.5 19.1 Q55.8 17.2 55.7 15.55 58.1 18.05 60.15 21.2 62.2 24.35 63.25 27.2 L63.35 27.45 64.85 31.9 64.45 31.25 64.1 31.35 64.6 33.1 64.25 32.8 63.25 32.1 62.1 31.65 61.5 31.6 62.2 32.2 59.6 31.4 59.5 31.7 59.7 31.85 59.25 31.7 55.85 30.55 55.4 30.4 55.7 30.8 56.1 31.45 56.6 32.35 Q55.3 32.05 54.2 30.9 L52.35 28.5 50.7 26.3 50.55 26.35 Q49.75 24.6 48.75 23.8 L48.3 23.45 48.6 24.3 Q47.8 23.1 47.1 22.65 L46.65 22.35 47.25 23.9 46.35 22.75 45.2 21.4 43.8 20.25 43.6 20.5 44.4 21.75 44.45 21.8 40.8 19.15 40.6 19.4 41.3 20.4 42.95 23.1 Q41.85 22.05 40.2 21.25 L37.2 19.95 Q34.55 18.9 33.35 18.25 31.35 17.05 30.15 15.3 28.3 12.6 26.8 8.9 L25.35 4.9 25.9 0.7 M-37.25 5.55 L-37.2 5.65 -35.75 7.9 Q-35.65 6.8 -36.3 5.3 L-34.45 8.45 -34.65 7.7 -34.85 6.9 Q-33.95 7.45 -32.8 8.85 L-33.15 8.0 -33.45 7.15 Q-32.45 8.55 -30.65 9.75 L-31.1 9.0 -29.7 9.4 -28.05 9.85 -26.95 10.35 -26.75 10.8 Q-26.05 12.05 -26.15 13.9 L-26.75 17.1 -27.05 18.35 -27.5 26.7 -27.6 36.05 Q-27.5 37.85 -27.65 39.5 L-27.85 41.25 Q-28.6 41.45 -29.1 42.05 L-29.85 43.25 -30.5 44.25 -31.6 44.5 -30.65 42.85 -30.4 41.9 -30.05 40.8 -29.5 40.1 -29.1 39.7 -28.75 39.15 Q-28.4 38.1 -28.4 36.25 L-28.6 33.0 -28.75 30.3 Q-28.75 25.4 -29.2 21.25 L-29.3 18.2 -29.4 14.95 Q-29.55 13.2 -30.0 12.0 L-30.35 12.1 -30.4 13.4 Q-30.85 12.4 -31.7 11.35 L-31.95 11.55 -31.35 12.95 -31.35 13.05 -32.05 12.3 -32.65 11.25 -32.75 11.1 Q-33.0 10.2 -33.7 9.55 L-35.0 8.55 -36.45 7.45 -37.15 6.0 -37.25 5.55 M-30.15 -20.9 L-28.15 -20.75 -25.9 -20.35 -27.75 -20.2 Q-29.65 -20.2 -30.15 -20.9 M-20.95 -8.55 L-21.05 -9.0 -21.2 -9.55 -19.9 -8.0 -18.35 -6.55 Q-19.05 -6.55 -19.75 -7.2 L-21.05 -8.0 -20.6 -6.85 Q-21.05 -6.95 -21.75 -7.3 L-22.8 -7.85 -22.0 -7.05 -24.05 -8.4 Q-25.0 -9.15 -25.35 -10.45 -24.85 -10.15 -24.0 -9.45 L-22.65 -8.5 -23.0 -8.95 -23.4 -9.5 -22.65 -9.1 Q-22.2 -8.85 -21.95 -8.75 L-22.1 -9.2 -22.3 -9.65 -20.95 -8.55 M-11.15 -11.25 Q-10.05 -10.7 -9.1 -9.65 L-12.1 -11.6 -11.15 -11.25" fill="#000000" fill-opacity="0.2" fill-rule="evenodd" stroke="none"/>
    <path d="M-10.85 10.05 L-10.7 9.8 -9.25 9.85 -6.95 9.55 -6.95 9.3 -6.4 9.25 -4.7 9.4 -4.7 9.5 Q-3.75 9.8 -2.1 10.7 L-0.55 11.5 1.0 12.05 Q0.8 13.15 1.05 14.0 L-0.1 14.4 -4.45 14.7 -4.65 14.7 -5.85 14.7 -9.25 14.45 -9.75 14.4 -11.25 14.2 -11.6 14.15 -12.45 14.05 -12.4 13.95 -11.95 12.75 -10.95 10.3 -10.9 10.2 -10.85 10.05 M-63.7 -24.05 L-61.15 -23.85 Q-58.65 -23.85 -56.35 -24.75 L-56.4 -25.05 -53.75 -25.4 -49.15 -26.15 -48.7 -26.2 -45.45 -26.7 Q-43.65 -26.7 -42.4 -25.7 L-44.25 -25.7 -44.3 -25.4 -42.5 -24.65 -42.65 -24.65 -43.05 -24.6 -43.2 -24.65 -43.3 -24.3 -41.8 -23.1 -41.25 -22.55 -41.35 -22.25 Q-39.85 -21.75 -38.8 -20.75 L-39.6 -20.75 -39.3 -20.45 -38.8 -19.9 -38.55 -19.6 -38.85 -19.7 -39.05 -19.45 -37.3 -17.75 -35.25 -15.7 Q-36.85 -15.9 -37.65 -16.35 L-37.85 -16.1 -36.7 -15.3 -36.2 -14.95 -36.4 -15.0 -36.55 -14.7 -36.1 -14.3 -36.0 -14.2 -36.8 -14.15 -36.35 -13.85 Q-35.45 -13.3 -34.45 -12.9 -34.2 -12.45 -33.35 -11.75 L-33.85 -11.75 -34.15 -11.75 -34.3 -11.45 -32.55 -10.3 -34.35 -10.75 -34.75 -10.9 -34.95 -10.65 -34.05 -9.7 -34.65 -9.95 Q-34.35 -8.9 -32.65 -7.05 -31.05 -5.3 -30.8 -4.2 L-31.45 -4.2 -32.15 -4.15 -30.9 -3.15 -32.6 -3.55 -31.0 -1.75 Q-30.0 -0.6 -29.0 -0.3 L-29.55 -0.3 -30.15 -0.25 Q-29.75 0.9 -28.5 1.5 L-31.8 0.2 -30.6 1.8 -29.2 3.2 -29.65 3.1 -30.15 3.05 -29.8 3.65 -29.4 4.25 -30.0 4.15 -30.55 4.05 -30.1 4.55 -29.6 5.05 -30.35 4.9 -31.1 4.8 -31.05 4.9 -31.0 5.0 -30.95 5.1 -30.9 5.2 -30.8 5.35 -30.75 5.45 -28.65 7.9 -28.5 8.05 -28.25 8.25 -28.05 8.4 Q-26.15 9.8 -23.85 10.6 L-22.5 11.0 -21.3 11.7 -21.25 11.75 -21.25 11.8 -21.1 12.05 -21.05 12.1 -20.95 12.3 -20.9 12.45 -21.3 12.35 -24.4 11.35 -26.5 10.4 -27.95 9.7 -29.6 9.25 -31.0 8.85 -31.0 8.9 -31.25 9.05 -31.2 9.15 Q-32.55 8.15 -33.35 7.05 L-33.6 7.2 -33.3 8.0 -34.8 6.75 -35.15 6.5 -35.0 6.95 -34.85 7.6 -36.15 5.25 -36.3 5.3 -36.45 5.35 Q-35.95 6.5 -35.9 7.4 L-36.85 5.9 -37.65 4.5 -38.65 3.35 -38.95 3.05 -38.9 3.45 -38.95 4.25 -38.95 4.35 -39.65 2.55 -40.0 2.65 -39.95 3.3 -40.85 1.5 -41.1 1.15 -41.15 1.6 -41.1 2.95 -42.85 -0.6 -43.35 -1.75 -43.85 -3.5 -44.25 -4.9 -44.75 -5.95 -44.95 -6.15 -45.15 -7.5 -45.3 -8.1 -45.45 -7.5 -45.65 -6.9 -45.7 -6.8 -46.05 -8.3 -46.2 -8.7 -46.3 -8.5 -46.5 -10.2 -46.7 -10.05 -46.8 -9.95 -46.8 -10.4 -46.8 -13.05 Q-46.95 -15.5 -47.45 -16.8 -48.25 -18.7 -50.1 -19.25 L-50.15 -19.25 -53.6 -19.15 -58.05 -19.25 -60.75 -19.3 -61.9 -19.25 Q-62.5 -19.25 -63.05 -19.75 L-63.45 -20.2 -64.0 -20.9 -64.8 -21.9 Q-64.15 -22.4 -63.8 -23.6 L-63.7 -24.05 M-52.0 -22.55 Q-52.25 -22.2 -53.85 -21.95 L-56.95 -21.45 -57.95 -21.0 -58.9 -20.4 -61.85 -20.3 -63.05 -20.3 -63.45 -20.2 -63.05 -20.3 -61.85 -20.3 -58.9 -20.4 -57.95 -21.0 -56.95 -21.45 -53.85 -21.95 Q-52.25 -22.2 -52.0 -22.55" fill="#ffffff" fill-opacity="0.29803923" fill-rule="evenodd" stroke="none"/>
    <path d="M-48.5 -46.55 Q-49.15 -47.75 -48.65 -47.15 -47.8 -46.2 -46.25 -43.35 L-45.45 -41.85 Q-44.5 -39.8 -44.5 -38.95 -44.5 -37.85 -44.85 -36.15 L-45.2 -34.7 -45.75 -36.05 -46.45 -33.9 -46.65 -35.1 -46.85 -36.2 Q-46.95 -36.65 -47.05 -35.85 L-47.05 -35.5 -47.1 -34.95 -47.55 -36.05 -48.1 -38.8 -47.0 -37.3 -46.85 -40.3 -46.9 -41.65 -47.1 -42.5 -47.95 -43.45 -48.65 -44.15 -47.8 -45.25 -48.5 -46.55" fill="#000000" fill-opacity="0.4" fill-rule="evenodd" stroke="none"/>
    <path d="M-53.4 -30.95 L-51.5 -29.9 -52.55 -29.5 -54.65 -29.35 -54.75 -30.15 Q-54.75 -31.0 -54.25 -31.3 L-53.4 -30.95 M-53.25 -30.3 L-53.4 -30.5 -53.7 -30.55 -54.05 -30.5 -54.15 -30.3 -54.05 -30.1 -53.7 -30.05 -53.4 -30.1 -53.25 -30.3 M-65.65 -24.85 Q-64.15 -25.75 -63.8 -25.25 -63.5 -24.9 -63.7 -24.05 L-63.8 -23.6 Q-64.15 -22.4 -64.8 -21.9 L-64.9 -21.85 -65.45 -22.4 -65.85 -22.75 -66.35 -23.7 -66.3 -23.95 -65.65 -24.85 M-65.9 -23.95 Q-65.5 -23.8 -65.0 -24.55 -64.5 -25.4 -65.0 -25.05 L-65.7 -24.6 Q-66.3 -24.05 -65.9 -23.95" fill="#000000" fill-rule="evenodd" stroke="none"/>
    <path d="M-53.25 -30.3 L-53.4 -30.1 -53.7 -30.05 -54.05 -30.1 -54.15 -30.3 -54.05 -30.5 -53.7 -30.55 -53.4 -30.5 -53.25 -30.3 M-65.9 -23.95 Q-66.3 -24.05 -65.7 -24.6 L-65.0 -25.05 Q-64.5 -25.4 -65.0 -24.55 -65.5 -23.8 -65.9 -23.95" fill="#ffffff" fill-opacity="0.6" fill-rule="evenodd" stroke="none"/>
    <path d="M7.8 -14.5 Q6.9 -15.0 5.7 -15.3 L4.55 -15.6 1.05 -16.15 -2.55 -16.45 -5.95 -16.9 -13.5 -18.9 -20.9 -20.85 M-23.45 -22.85 Q-24.2 -23.1 -24.9 -23.5 -26.75 -24.55 -28.2 -26.5 L-31.25 -31.8 Q-32.8 -34.8 -35.45 -37.4 -37.65 -39.55 -39.95 -40.65 M-40.45 -41.4 L-40.0 -40.7 M14.65 -11.75 L15.55 -11.7 15.85 -11.7 16.45 -11.6 18.25 -11.0 Q20.65 -9.75 22.4 -8.15 24.55 -6.15 25.25 -4.05 L25.3 -3.85 Q25.95 -1.8 25.9 0.7 L25.35 4.9 25.3 5.25 Q27.55 11.75 30.0 15.35 31.2 17.05 33.0 18.2 34.25 19.0 36.55 19.9 L40.15 21.4 Q42.15 22.4 43.4 23.75 M2.55 49.45 L6.9 49.45 10.45 47.8 Q10.95 47.5 11.7 46.25 L13.15 43.35 Q15.3 38.95 17.05 37.4 18.05 36.45 17.95 34.85 L17.25 31.55 Q16.65 29.1 16.65 27.3 16.7 24.65 18.0 22.05 L21.15 15.9 24.1 9.15 25.3 5.25 M1.15 14.15 L1.6 15.2 2.9 18.05 Q5.3 22.7 8.55 26.45 10.05 28.15 10.9 29.8 11.85 31.7 11.95 33.5 12.0 35.15 11.45 36.05 L5.7 45.75 4.25 45.45 Q2.7 45.3 2.1 45.85 1.55 46.45 0.9 48.0 L0.35 49.45 2.55 49.45 M-10.85 10.05 L-10.9 10.2 -10.95 10.3 M-12.5 14.15 L-13.2 16.05 -14.0 18.25 -14.05 18.45 -14.15 18.7 -14.4 19.4 -14.45 19.55 -14.5 19.6 -15.85 23.15 Q-17.55 27.5 -18.55 28.65 -20.0 30.35 -18.9 32.35 L-17.55 33.95 -14.55 35.2 Q-13.05 36.4 -13.05 37.7 -13.0 38.35 -13.35 38.75 -13.8 39.9 -15.2 40.8 -16.7 41.75 -17.15 40.8 -17.6 39.95 -20.7 37.1 L-23.75 34.4 Q-23.8 33.75 -24.4 32.75 L-25.25 31.1 Q-26.0 29.4 -25.4 27.95 L-23.7 25.0 Q-22.2 22.2 -21.25 18.25 L-20.65 14.9 Q-20.55 13.55 -20.8 12.65 L-20.9 12.45 M-0.7 39.4 L2.15 39.05 Q2.8 38.7 3.65 37.3 4.55 35.7 5.1 35.3 L7.35 33.4 9.35 31.55 10.9 29.8 M-5.1 14.85 L-4.45 16.3 -2.85 18.4 -0.2 20.9 2.45 23.8 Q5.2 27.45 2.25 31.75 1.0 33.5 -0.9 34.9 -2.7 36.25 -4.5 36.85 L-3.6 39.15 -2.65 39.2 -0.7 39.4 M-65.65 -24.85 L-64.9 -25.55 -60.65 -28.55 -57.5 -30.6 -56.0 -34.7 Q-55.75 -35.4 -52.9 -37.7 L-51.75 -38.6 -51.75 -38.65 Q-51.65 -41.0 -51.35 -42.2 -51.25 -42.75 -52.25 -46.1 -53.15 -48.95 -52.45 -48.65 -51.8 -48.35 -49.95 -46.65 L-49.95 -46.85 Q-49.95 -49.8 -49.15 -49.35 L-46.45 -47.25 -43.55 -44.8 Q-42.35 -43.95 -40.95 -42.05 L-40.9 -41.95 -40.45 -41.4 M-49.95 -46.65 Q-49.9 -42.7 -50.0 -42.2 L-50.2 -39.85 -50.2 -39.4 -50.15 -38.1 M-53.4 -30.95 L-51.5 -29.9 -52.55 -29.5 -54.65 -29.35 -54.75 -30.15 Q-54.75 -31.0 -54.25 -31.3 L-53.4 -30.95 M-51.75 -38.6 L-50.2 -39.85 M-65.65 -24.85 Q-64.15 -25.75 -63.8 -25.25 -63.5 -24.9 -63.7 -24.05 L-63.8 -23.6 Q-64.15 -22.4 -64.8 -21.9 L-64.9 -21.85 -65.45 -22.4 -63.65 -20.2 -63.45 -20.2 -63.05 -20.3 -61.85 -20.3 -58.9 -20.4 -57.95 -21.0 -56.95 -21.45 -53.85 -21.95 Q-52.25 -22.2 -52.0 -22.55 M-20.95 12.3 L-21.05 12.1 -21.1 12.05 -21.25 11.8 -21.25 11.75 -21.3 11.7 -22.5 11.0 -23.85 10.6 Q-26.15 9.8 -28.05 8.4 L-28.25 8.25 -28.5 8.05 -28.65 7.9 -30.75 5.45 -30.8 5.35 -30.9 5.2 -30.95 5.1 -31.0 5.0 -31.05 4.9 -31.1 4.8 M-63.65 -20.2 Q-62.75 -19.0 -61.75 -19.1 L-56.85 -19.05 Q-52.45 -18.95 -50.15 -19.1 M-47.0 -9.6 L-46.6 -9.9 M-38.8 5.2 L-38.8 4.35 -38.75 3.45 M-65.65 -24.85 L-66.3 -23.95 -66.35 -23.7 -65.85 -22.75 -65.45 -22.4 M-32.75 44.8 L-30.45 44.35 -29.4 42.8 Q-28.75 41.6 -27.7 41.35 L-27.5 39.9 -27.4 36.05 -27.35 26.75 -26.9 18.4 -26.05 14.65 Q-25.75 12.2 -26.6 10.7 L-26.7 10.5 M-39.8 4.45 Q-37.4 8.8 -36.05 10.45 -34.45 12.5 -33.5 21.0 -32.75 27.3 -32.75 31.65 L-32.4 35.2 Q-32.2 36.65 -32.75 37.95 L-33.55 40.3 Q-33.85 41.05 -34.95 41.5 L-35.1 41.55 -35.3 41.9 Q-35.5 42.75 -34.55 44.8 L-32.75 44.8 M-41.0 2.25 L-40.65 2.9 -39.8 4.4" fill="none" stroke="#000000" stroke-linecap="butt" stroke-linejoin="miter-clip" stroke-miterlimit="10.0" stroke-width="1.0"/>
    <path d="M11.95 -12.2 L12.75 -12.45 13.5 -12.75 11.6 -13.15 9.65 -13.25 11.5 -13.9 9.7 -14.1 7.8 -14.1 7.95 -14.15 8.55 -14.4 9.3 -14.65 6.45 -14.25 7.1 -14.35 7.8 -14.5 M-20.9 -20.85 L-21.05 -20.9 -21.0 -21.4 -23.2 -21.65 -22.65 -22.05 -24.45 -22.05 -23.05 -22.45 -23.7 -22.45 -24.4 -22.5 -23.95 -22.65 -23.45 -22.85 M-40.0 -40.7 L-39.95 -40.65 -39.55 -39.9 -39.45 -39.55 -39.45 -39.5 Q-39.35 -38.85 -40.95 -36.7 L-43.3 -34.0 -44.4 -33.2 M11.95 -12.2 L13.7 -12.2 15.35 -12.05 14.65 -11.75 M25.3 -3.85 L25.35 -3.85 28.05 -2.55 30.5 -1.0 34.95 2.35 Q37.55 4.15 39.7 5.15 41.45 5.95 44.8 6.45 L49.85 6.6 49.0 6.9 52.35 6.85 55.65 7.15 54.65 7.35 53.65 7.5 56.85 8.15 60.15 8.6 Q58.8 9.2 56.65 9.35 L59.65 10.2 Q61.75 10.6 62.6 10.95 L61.65 11.0 60.7 11.05 65.25 14.25 63.9 14.05 62.6 14.2 64.45 16.4 66.35 18.55 65.45 18.05 64.55 17.6 Q64.55 18.4 65.1 19.4 L66.1 21.0 65.05 20.2 64.0 19.5 65.05 23.05 Q65.6 25.0 65.6 26.55 L65.6 33.35 65.0 32.3 64.3 31.35 Q64.55 32.75 65.0 33.6 L63.6 32.5 Q62.8 31.9 62.05 31.85 L62.65 32.35 63.35 32.85 Q61.5 31.95 59.6 31.55 L60.05 31.95 60.6 32.35 58.2 31.5 55.85 30.7 56.35 31.6 57.05 32.6 Q55.0 32.35 53.3 30.15 L50.6 26.4 50.9 27.4 50.95 27.6 51.4 28.7 M43.4 23.75 Q43.1 22.75 42.2 21.45 L40.7 19.3 45.05 22.45 44.4 21.4 43.75 20.4 Q44.7 21.0 45.85 22.45 L47.8 24.65 47.35 23.7 47.05 22.8 48.2 23.95 49.15 25.4 48.9 24.65 48.65 23.95 Q49.6 24.65 50.3 26.15 L50.9 27.4 50.9 27.55 50.95 27.6 M2.55 49.45 Q3.05 47.15 4.0 46.55 L4.6 46.35 4.85 46.4 M-10.95 10.3 L-11.95 12.75 -12.45 13.95 -12.5 14.15 M-12.5 14.2 L-10.6 14.45 -9.75 14.55 -8.8 14.65 -5.85 14.85 -5.1 14.85 -4.45 14.85 -0.05 14.55 1.15 14.15 M-2.65 39.2 Q-3.85 37.9 -3.5 37.2 L-3.15 36.8 M-34.65 -9.95 Q-34.35 -8.9 -32.65 -7.05 -31.05 -5.3 -30.8 -4.2 L-31.45 -4.2 -32.15 -4.15 -30.9 -3.15 -30.65 -3.0 M-31.1 4.8 L-30.35 4.9 -29.6 5.05 -30.1 4.55 -30.55 4.05 -30.0 4.15 -29.4 4.25 -29.8 3.65 -30.15 3.05 -29.65 3.1 -29.2 3.2 -30.6 1.8 -31.8 0.2 -28.5 1.5 Q-29.75 0.9 -30.15 -0.25 L-29.55 -0.3 -29.0 -0.3 Q-30.0 -0.6 -31.0 -1.75 L-32.6 -3.55 -30.9 -3.15 M-50.15 -19.1 Q-48.35 -18.55 -47.65 -16.75 -47.1 -15.45 -47.0 -13.05 L-46.95 -11.35 -47.0 -9.6 M-46.6 -9.9 L-46.35 -7.75 -46.2 -8.25 -45.75 -6.1 -45.55 -6.8 -45.3 -7.45 Q-45.15 -7.0 -45.15 -6.15 L-45.15 -4.65 -45.0 -5.25 -44.9 -5.8 Q-44.5 -5.4 -44.15 -3.9 L-44.0 -3.3 -43.5 -1.7 -42.25 1.1 -40.75 3.8 -40.95 2.8 -41.0 2.25 -41.0 1.6 Q-40.2 2.75 -39.8 4.4 L-39.8 4.55 -39.8 4.45 -39.8 2.65 -38.8 5.2 M-38.75 3.45 Q-38.05 4.1 -37.25 5.55 L-37.2 5.65 -35.75 7.9 Q-35.65 6.8 -36.3 5.3 L-34.45 8.45 -34.65 7.7 -34.85 6.9 Q-33.95 7.45 -32.8 8.85 L-33.15 8.0 -33.45 7.15 Q-32.45 8.55 -30.65 9.75 L-31.1 9.0 -29.7 9.4 -28.05 9.85 -26.95 10.35 -26.7 10.5 -26.25 10.7 -24.5 11.55 -21.05 12.6 -20.8 12.65 M-10.85 10.05 Q-9.75 7.9 -10.6 3.3 L-11.3 0.3 -11.7 -0.9 M-32.75 44.8 L-33.25 43.85 Q-33.7 42.85 -33.5 42.15 -33.25 41.55 -32.55 41.3 L-31.95 41.2 M-13.35 38.75 Q-14.95 39.85 -15.65 39.55 L-15.95 39.2 M-0.7 39.4 Q-1.95 38.15 -1.25 37.25 -1.0 36.95 -0.55 36.8 L0.05 36.7" fill="none" stroke="#000000" stroke-linecap="butt" stroke-linejoin="miter-clip" stroke-miterlimit="10.0" stroke-opacity="0.6" stroke-width="1.0"/>
  </g>
</svg>
