<?xml version="1.0" encoding="UTF-8" standalone="no"?>
<svg xmlns:xlink="http://www.w3.org/1999/xlink" height="893.45px" width="1197.1px" xmlns="http://www.w3.org/2000/svg">
  <g transform="matrix(1.0, 0.0, 0.0, 1.0, 598.55, 446.75)">
    <path d="M-583.15 -5.65 L-583.15 -19.0 -579.45 -19.0 Q-568.65 -84.7 -520.5 -167.65 -505.45 -193.5 -488.5 -218.05 L-474.5 -237.4 Q-417.45 -306.8 -335.25 -354.75 -268.5 -393.75 -187.9 -417.05 -128.25 -434.3 -66.15 -441.75 -30.4 -446.0 -3.9 -446.2 L-3.9 -446.25 -1.5 -446.25 -1.5 -446.2 Q25.0 -446.0 60.75 -441.75 122.85 -434.3 182.5 -417.05 263.1 -393.75 329.85 -354.75 412.05 -306.8 469.05 -237.4 L483.05 -218.05 Q500.0 -193.5 515.05 -167.65 563.25 -84.7 574.0 -19.0 L581.7 -19.0 581.7 -5.65 535.5 -5.65 581.7 -5.65 598.05 -5.65 598.05 37.05 580.1 37.05 580.1 446.2 543.35 446.2 496.95 446.2 -499.9 446.2 -546.4 446.2 -581.5 446.2 -581.5 37.05 -598.05 37.05 -598.05 -5.65 -583.15 -5.65 -542.25 -5.65 -583.15 -5.65 M535.5 -5.65 Q523.5 -62.95 483.05 -133.65 468.75 -158.55 452.55 -182.2 L439.2 -200.9 Q385.7 -266.65 308.6 -312.15 246.0 -349.0 170.35 -371.15 114.45 -387.5 56.1 -394.5 22.95 -398.5 -2.25 -398.75 L-4.5 -398.75 Q-29.7 -398.5 -62.9 -394.5 -121.2 -387.5 -177.05 -371.15 -252.7 -349.0 -315.3 -312.15 -392.45 -266.65 -445.95 -200.9 L-459.3 -182.2 Q-475.5 -158.55 -489.75 -133.65 -530.25 -62.95 -542.25 -5.65 -530.25 -62.95 -489.75 -133.65 -475.5 -158.55 -459.3 -182.2 L-445.95 -200.9 Q-392.45 -266.65 -315.3 -312.15 -252.7 -349.0 -177.05 -371.15 -121.2 -387.5 -62.9 -394.5 -29.7 -398.5 -4.5 -398.75 L-2.25 -398.75 Q22.95 -398.5 56.1 -394.5 114.45 -387.5 170.35 -371.15 246.0 -349.0 308.6 -312.15 385.7 -266.65 439.2 -200.9 L452.55 -182.2 Q468.75 -158.55 483.05 -133.65 523.5 -62.95 535.5 -5.65 L508.1 -5.65 508.1 5.95 508.1 -5.65 535.5 -5.65 M431.0 -140.5 Q414.6 -166.15 395.3 -191.7 L379.25 -212.15 379.25 -6.45 486.05 -6.45 Q483.25 -58.45 431.0 -140.5 483.25 -58.45 486.05 -6.45 L379.25 -6.45 379.25 -212.15 395.3 -191.7 Q414.6 -166.15 431.0 -140.5 M33.45 -365.55 L19.5 -366.2 19.5 -8.7 151.0 -8.7 151.0 -348.2 Q121.5 -358.0 67.55 -363.05 L33.45 -365.55 67.55 -363.05 Q121.5 -358.0 151.0 -348.2 L151.0 -8.7 19.5 -8.7 19.5 -366.2 33.45 -365.55 M214.0 -322.7 L199.35 -329.05 199.35 -8.7 335.35 -8.7 335.35 -245.9 Q305.85 -275.4 249.7 -305.2 232.1 -314.5 214.0 -322.7 232.1 -314.5 249.7 -305.2 305.85 -275.4 335.35 -245.9 L335.35 -8.7 199.35 -8.7 199.35 -329.05 214.0 -322.7 M-508.15 5.95 L-508.15 -5.65 -542.25 -5.65 -508.15 -5.65 -508.15 5.95 508.1 5.95 -508.15 5.95 -508.15 26.95 -508.15 5.95 M-499.9 26.95 L-508.15 26.95 -499.9 26.95 -209.45 26.95 -499.9 26.95 -499.9 50.95 -499.9 26.95 M-163.0 26.95 L-209.45 26.95 -163.0 26.95 160.35 26.95 -163.0 26.95 -163.0 50.95 -163.0 26.95 M206.85 26.95 L160.35 26.95 206.85 26.95 496.95 26.95 206.85 26.95 206.85 50.95 206.85 26.95 M508.1 26.95 L496.95 26.95 508.1 26.95 508.1 5.95 508.1 26.95 508.1 37.05 543.35 37.05 508.1 37.05 508.1 26.95 M543.35 37.05 L543.35 446.2 543.35 37.05 580.1 37.05 543.35 37.05 M496.95 50.95 L496.95 26.95 496.95 50.95 496.95 446.2 496.95 50.95 206.85 50.95 496.95 50.95 M160.35 50.95 L160.35 26.95 160.35 50.95 160.35 446.1 206.85 446.1 206.85 50.95 206.85 446.1 160.35 446.1 160.35 50.95 -163.0 50.95 160.35 50.95 M-26.25 -366.2 L-74.3 -363.05 Q-128.25 -358.0 -157.75 -348.2 L-157.75 -8.7 -26.25 -8.7 -26.25 -366.2 -26.25 -8.7 -157.75 -8.7 -157.75 -348.2 Q-128.25 -358.0 -74.3 -363.05 L-26.25 -366.2 M-342.15 -245.9 L-342.15 -8.7 -206.15 -8.7 -206.15 -329.05 -220.75 -322.7 Q-238.9 -314.5 -256.45 -305.2 -312.65 -275.4 -342.15 -245.9 -312.65 -275.4 -256.45 -305.2 -238.9 -314.5 -220.75 -322.7 L-206.15 -329.05 -206.15 -8.7 -342.15 -8.7 -342.15 -245.9 M-402.05 -191.7 Q-421.4 -166.15 -437.7 -140.5 -490.0 -58.45 -492.75 -6.45 L-386.0 -6.45 -386.0 -212.15 -402.05 -191.7 -386.0 -212.15 -386.0 -6.45 -492.75 -6.45 Q-490.0 -58.45 -437.7 -140.5 -421.4 -166.15 -402.05 -191.7 M-209.45 50.95 L-209.45 26.95 -209.45 50.95 -209.45 446.1 -163.0 446.1 -163.0 50.95 -163.0 446.1 -209.45 446.1 -209.45 50.95 -499.9 50.95 -209.45 50.95 M-546.4 37.05 L-581.5 37.05 -546.4 37.05 -508.15 37.05 -508.15 26.95 -508.15 37.05 -546.4 37.05 -546.4 446.2 -546.4 37.05 M-499.9 50.95 L-499.9 446.2 -499.9 50.95" fill="#ffffff" fill-opacity="0.0" fill-rule="evenodd" stroke="none"/>
    <path d="M214.0 -322.7 Q232.1 -314.5 249.7 -305.2 305.85 -275.4 335.35 -245.9 L335.35 -8.7 199.35 -8.7 199.35 -329.05 214.0 -322.7 M33.45 -365.55 L67.55 -363.05 Q121.5 -358.0 151.0 -348.2 L151.0 -8.7 19.5 -8.7 19.5 -366.2 33.45 -365.55 M431.0 -140.5 Q483.25 -58.45 486.05 -6.45 L379.25 -6.45 379.25 -212.15 395.3 -191.7 Q414.6 -166.15 431.0 -140.5 M-402.05 -191.7 L-386.0 -212.15 -386.0 -6.45 -492.75 -6.45 Q-490.0 -58.45 -437.7 -140.5 -421.4 -166.15 -402.05 -191.7 M-342.15 -245.9 Q-312.65 -275.4 -256.45 -305.2 -238.9 -314.5 -220.75 -322.7 L-206.15 -329.05 -206.15 -8.7 -342.15 -8.7 -342.15 -245.9 M-26.25 -366.2 L-26.25 -8.7 -157.75 -8.7 -157.75 -348.2 Q-128.25 -358.0 -74.3 -363.05 L-26.25 -366.2" fill="none" stroke="#000000" stroke-linecap="butt" stroke-linejoin="miter-clip" stroke-miterlimit="10.0" stroke-width="1.0"/>
    <path d="M581.7 -5.65 L581.7 -19.0 574.0 -19.0 Q563.25 -84.7 515.05 -167.65 500.0 -193.5 483.05 -218.05 L469.05 -237.4 Q412.05 -306.8 329.85 -354.75 263.1 -393.75 182.5 -417.05 122.85 -434.3 60.75 -441.75 25.0 -446.0 -1.5 -446.2 L-1.5 -446.25 -3.9 -446.25 -3.9 -446.2 Q-30.4 -446.0 -66.15 -441.75 -128.25 -434.3 -187.9 -417.05 -268.5 -393.75 -335.25 -354.75 -417.45 -306.8 -474.5 -237.4 L-488.5 -218.05 Q-505.45 -193.5 -520.5 -167.65 -568.65 -84.7 -579.45 -19.0 L-583.15 -19.0 -583.15 -5.65 -598.05 -5.65 -598.05 37.05 -581.5 37.05 -581.5 446.2 -546.4 446.2 -499.9 446.2 -499.9 50.95 -209.45 50.95 -209.45 446.1 -163.0 446.1 -163.0 50.95 160.35 50.95 160.35 446.1 206.85 446.1 206.85 50.95 496.95 50.95 496.95 446.2 -499.9 446.2 M581.7 -5.65 L598.05 -5.65 598.05 37.05 580.1 37.05 580.1 446.2 543.35 446.2 496.95 446.2" fill="none" stroke="#000000" stroke-linecap="round" stroke-linejoin="miter-clip" stroke-miterlimit="10.0" stroke-width="1.0"/>
    <path d="M-583.15 -5.65 L-542.25 -5.65 Q-530.25 -62.95 -489.75 -133.65 -475.5 -158.55 -459.3 -182.2 L-445.95 -200.9 Q-392.45 -266.65 -315.3 -312.15 -252.7 -349.0 -177.05 -371.15 -121.2 -387.5 -62.9 -394.5 -29.7 -398.5 -4.5 -398.75 L-2.25 -398.75 Q22.95 -398.5 56.1 -394.5 114.45 -387.5 170.35 -371.15 246.0 -349.0 308.6 -312.15 385.7 -266.65 439.2 -200.9 L452.55 -182.2 Q468.75 -158.55 483.05 -133.65 523.5 -62.95 535.5 -5.65 L581.7 -5.65 M-542.25 -5.65 L-508.15 -5.65 -508.15 5.95 508.1 5.95 508.1 -5.65 535.5 -5.65 M-508.15 5.95 L-508.15 26.95 -499.9 26.95 -209.45 26.95 -163.0 26.95 160.35 26.95 206.85 26.95 496.95 26.95 508.1 26.95 508.1 5.95 M543.35 446.2 L543.35 37.05 508.1 37.05 508.1 26.95 M496.95 26.95 L496.95 50.95 M543.35 37.05 L580.1 37.05 M206.85 50.95 L206.85 26.95 M160.35 26.95 L160.35 50.95 M-209.45 26.95 L-209.45 50.95 M-163.0 50.95 L-163.0 26.95 M-581.5 37.05 L-546.4 37.05 -508.15 37.05 -508.15 26.95 M-499.9 50.95 L-499.9 26.95 M-546.4 446.2 L-546.4 37.05" fill="none" stroke="#000000" stroke-linecap="round" stroke-linejoin="miter-clip" stroke-miterlimit="10.0" stroke-opacity="0.6" stroke-width="1.0"/>
  </g>
</svg>
