<?xml version="1.0" encoding="UTF-8" standalone="no"?>
<svg xmlns:xlink="http://www.w3.org/1999/xlink" height="409.75px" width="291.45px" xmlns="http://www.w3.org/2000/svg">
  <g transform="matrix(1.0, 0.0, 0.0, 1.0, 145.75, 204.85)">
    <path d="M-145.25 -204.35 L145.2 -204.35 145.2 204.4 -145.25 204.4 -145.25 -204.35 M117.85 179.0 L117.85 17.8 31.65 17.8 31.65 179.0 117.85 179.0 M-114.9 17.8 L-114.9 179.0 -28.75 179.0 -28.75 17.8 -114.9 17.8 M-29.5 -9.85 L-29.5 -171.75 -113.4 -171.75 -113.4 -9.85 -29.5 -9.85 M34.25 -171.75 L34.25 -9.85 118.2 -9.85 118.2 -171.75 34.25 -171.75" fill="#ffffff" fill-opacity="0.0" fill-rule="evenodd" stroke="none"/>
    <path d="M34.25 -171.75 L118.2 -171.75 118.2 -9.85 34.25 -9.85 34.25 -171.75 M-29.5 -9.85 L-113.4 -9.85 -113.4 -171.75 -29.5 -171.75 -29.5 -9.85 M-114.9 17.8 L-28.75 17.8 -28.75 179.0 -114.9 179.0 -114.9 17.8 M117.85 179.0 L31.65 179.0 31.65 17.8 117.85 17.8 117.85 179.0 M-145.25 -204.35 L-145.25 204.4 145.2 204.4 145.2 -204.35 -145.25 -204.35" fill="none" stroke="#000000" stroke-linecap="butt" stroke-linejoin="miter-clip" stroke-miterlimit="10.0" stroke-width="1.0"/>
    <path d="M1.25 -204.0 L1.25 204.05" fill="none" stroke="#000000" stroke-linecap="butt" stroke-linejoin="miter-clip" stroke-miterlimit="10.0" stroke-opacity="0.6" stroke-width="1.0"/>
  </g>
</svg>
