<?xml version="1.0" encoding="UTF-8" standalone="no"?>
<svg xmlns:xlink="http://www.w3.org/1999/xlink" height="949.65px" width="2007.4px" xmlns="http://www.w3.org/2000/svg">
  <g transform="matrix(1.0, 0.0, 0.0, 1.0, 1003.7, 474.85)">
    <path d="M-945.6 -10.2 L-891.6 -50.5 -458.0 -50.5 -896.5 -54.4 -963.3 -11.2 -945.6 -10.2 M754.3 397.8 L768.7 397.8 768.7 427.2 786.3 427.2 786.3 474.3 -1003.2 474.3 -1003.2 427.2 -988.5 427.2 -988.5 397.8 -965.2 397.8 -965.2 39.8 -982.9 39.8 -982.9 -5.3 -898.5 -60.3 -457.0 -60.3 194.5 -216.95 194.5 -237.0 194.5 -287.9 223.9 -337.0 431.7 -440.95 237.7 -338.9 271.0 -342.8 496.7 -474.3 783.2 -337.0 783.2 -268.3 768.7 -268.3 768.7 -185.0 1003.2 -185.0 1003.2 -111.5 768.7 -111.5 768.7 397.45 754.3 397.45 711.8 397.45 711.8 262.9 711.8 253.7 711.8 262.9 697.4 262.9 697.4 397.8 754.3 397.8 M296.6 397.8 L697.4 397.8 296.6 397.8 276.9 397.8 296.6 397.8 M259.5 397.8 L276.9 397.8 276.9 397.45 259.5 397.45 250.05 397.45 240.05 397.45 250.05 397.45 259.5 397.45 259.5 397.8 240.05 397.8 259.5 397.8 M-484.5 397.8 L240.05 397.8 -484.5 397.8 -484.5 262.9 -500.2 262.9 -500.2 397.8 -484.5 397.8 M-545.3 397.8 L-500.2 397.8 -545.3 397.8 -906.4 397.8 -545.3 397.8 -545.3 262.9 -545.3 253.7 -545.3 39.8 -500.2 39.8 -545.3 39.8 -545.3 253.7 -545.3 262.9 -545.3 397.8 M-920.1 397.8 L-906.4 397.8 -906.4 262.9 -920.1 262.9 -920.1 253.7 -906.4 253.7 -906.4 39.8 -920.1 39.8 -920.1 253.7 -920.1 262.9 -920.1 397.8 -965.2 397.8 -920.1 397.8 M-427.6 -5.3 L-437.4 -44.6 46.5 -171.0 -451.1 -52.4 -427.6 -5.3 239.6 -162.75 -427.6 -5.3 -427.6 39.8 -427.6 -5.3 -982.9 -5.3 -427.6 -5.3 M194.5 -216.95 L212.2 -221.2 239.6 -184.1 239.6 -162.75 239.6 -184.1 212.2 -221.2 194.5 -216.95 M223.9 -268.3 L239.6 -268.3 239.6 -261.7 239.6 -268.3 223.9 -268.3 194.5 -237.0 223.9 -268.3 223.9 -337.0 783.2 -337.0 223.9 -337.0 223.9 -268.3 M208.2 -221.2 L208.2 -229.0 239.6 -261.7 208.2 -229.0 208.2 -221.2 M711.8 253.7 L711.8 -268.3 296.5 -268.3 296.5 -218.2 697.4 -218.2 697.4 253.7 711.8 253.7 M239.6 -268.3 L296.5 -268.3 239.6 -268.3 M54.9 -35.05 L56.0 -35.3 56.0 -35.25 54.9 -35.05 M202.15 -66.6 L204.3 -67.1 204.3 -67.05 202.15 -66.6 M239.6 397.45 L239.6 262.9 239.6 253.7 239.6 -121.4 239.6 -162.75 239.6 -121.4 239.6 253.7 239.6 262.9 239.6 397.45 240.05 397.45 239.6 397.45 M296.5 397.45 L290.05 397.45 276.9 397.45 290.05 397.45 296.5 397.45 296.5 390.1 296.5 262.9 296.5 253.7 296.5 -218.2 296.5 253.7 296.5 262.9 296.5 390.1 296.5 397.45 M239.6 -261.7 L239.6 -184.1 239.6 -261.7 M768.7 -111.5 L768.7 -185.0 768.7 -111.5 M711.8 -268.3 L768.7 -268.3 711.8 -268.3 M693.4 -111.3 L322.5 -111.3 322.5 232.1 693.4 232.1 693.4 -111.3 M296.5 262.9 L697.4 262.9 296.5 262.9 M697.4 253.7 L296.5 253.7 697.4 253.7 M-484.5 39.8 L-427.6 39.8 239.6 -121.4 -427.6 39.8 -484.5 39.8 -500.2 39.8 -500.2 253.7 -484.5 253.7 -484.5 39.8 M239.6 253.7 L-484.5 253.7 239.6 253.7 M-500.2 253.7 L-500.2 262.9 -500.2 253.7 M-896.5 238.0 L-568.8 238.0 -568.8 65.3 -896.5 65.3 -896.5 238.0 M227.9 -89.7 L-482.5 71.2 -482.5 232.1 227.9 232.1 227.9 -89.7 M-988.5 427.2 L-523.5 427.2 -374.2 427.6 -178.45 426.1 768.7 427.2 -178.45 426.1 -374.2 427.6 -523.5 427.2 -988.5 427.2 M239.6 262.9 L-484.5 262.9 239.6 262.9 M-965.2 39.8 L-920.1 39.8 -965.2 39.8 M-545.3 39.8 L-906.4 39.8 -545.3 39.8 M-545.3 262.9 L-906.4 262.9 -545.3 262.9 M-545.3 253.7 L-906.4 253.7 -545.3 253.7" fill="#ffffff" fill-opacity="0.0" fill-rule="evenodd" stroke="none"/>
    <path d="M-945.6 -10.2 L-963.3 -11.2 -896.5 -54.4 -458.0 -50.5 -891.6 -50.5 -945.6 -10.2 M431.7 -440.95 L496.7 -474.3 271.0 -342.8 237.7 -338.9 431.7 -440.95 M-427.6 -5.3 L-451.1 -52.4 46.5 -171.0 -437.4 -44.6 -427.6 -5.3" fill="#ffffff" fill-opacity="0.6" fill-rule="evenodd" stroke="none"/>
    <path d="M754.3 397.45 L754.3 397.8 697.4 397.8 697.4 262.9 711.8 262.9 711.8 397.45 754.3 397.45 M-484.5 397.8 L-500.2 397.8 -500.2 262.9 -484.5 262.9 -484.5 397.8 M-906.4 397.8 L-920.1 397.8 -920.1 262.9 -906.4 262.9 -906.4 397.8 M296.5 -218.2 L296.5 -268.3 711.8 -268.3 711.8 253.7 697.4 253.7 697.4 -218.2 296.5 -218.2 M-484.5 39.8 L-484.5 253.7 -500.2 253.7 -500.2 39.8 -484.5 39.8 M-920.1 253.7 L-920.1 39.8 -906.4 39.8 -906.4 253.7 -920.1 253.7" fill="#000000" fill-opacity="0.2" fill-rule="evenodd" stroke="none"/>
    <path d="M56.0 -35.25 L56.0 -35.3 54.9 -35.05 -104.9 -0.7 -104.9 219.4 56.0 219.4 56.0 -35.25 M81.9 -40.8 L67.8 -37.8 67.8 219.4 204.3 219.4 204.3 -67.05 204.3 -67.1 202.15 -66.6 81.9 -40.8 M500.1 -95.6 L339.5 -95.6 339.5 216.4 500.1 216.4 500.1 -95.6 M693.4 -111.3 L693.4 232.1 322.5 232.1 322.5 -111.3 693.4 -111.3 M676.5 -95.6 L515.8 -95.6 515.8 216.4 676.5 216.4 676.5 -95.6 M-290.4 219.4 L-290.4 39.1 -462.8 76.1 -462.8 219.4 -290.4 219.4 M-278.6 36.6 L-278.6 219.4 -116.7 219.4 -116.7 1.8 -278.6 36.6 M-896.5 238.0 L-896.5 65.3 -568.8 65.3 -568.8 238.0 -896.5 238.0 M-676.1 73.2 L-676.1 230.2 -583.7 230.2 -583.7 73.2 -676.1 73.2 M227.9 -89.7 L227.9 232.1 -482.5 232.1 -482.5 71.2 227.9 -89.7 M-686.6 73.2 L-784.0 73.2 -784.0 230.2 -686.6 230.2 -686.6 73.2 M-794.5 73.2 L-881.7 73.2 -881.7 230.2 -794.5 230.2 -794.5 73.2" fill="#000000" fill-opacity="0.09803922" fill-rule="evenodd" stroke="none"/>
    <path d="M754.3 397.8 L768.7 397.8 768.7 427.2 786.3 427.2 786.3 474.3 -1003.2 474.3 -1003.2 427.2 -988.5 427.2 -988.5 397.8 -965.2 397.8 -965.2 39.8 -982.9 39.8 -982.9 -5.3 -898.5 -60.3 -457.0 -60.3 194.5 -216.95 194.5 -237.0 194.5 -287.9 223.9 -337.0 431.7 -440.95 496.7 -474.3 783.2 -337.0 783.2 -268.3 768.7 -268.3 768.7 -185.0 1003.2 -185.0 1003.2 -111.5 768.7 -111.5 768.7 397.45 M54.9 -35.05 L56.0 -35.25 M239.6 397.45 L240.05 397.45 M202.15 -66.6 L204.3 -67.05" fill="none" stroke="#000000" stroke-linecap="butt" stroke-linejoin="miter-clip" stroke-miterlimit="10.0" stroke-width="1.0"/>
    <path d="M296.6 397.8 L276.9 397.8 259.5 397.8 240.05 397.8 M-500.2 397.8 L-545.3 397.8 M-920.1 397.8 L-965.2 397.8 M-427.6 -5.3 L239.6 -162.75 M-427.6 39.8 L-427.6 -5.3 -982.9 -5.3 M223.9 -268.3 L194.5 -237.0 M239.6 -261.7 L208.2 -229.0 208.2 -221.2 M697.4 253.7 L711.8 253.7 M783.2 -337.0 L223.9 -337.0 223.9 -268.3 M56.0 -35.25 L56.0 -35.3 54.9 -35.05 -104.9 -0.7 -104.9 219.4 56.0 219.4 56.0 -35.25 M81.9 -40.8 L202.15 -66.6 204.3 -67.1 204.3 -67.05 204.3 219.4 67.8 219.4 67.8 -37.8 M240.05 397.45 L250.05 397.45 259.5 397.45 276.9 397.45 290.05 397.45 296.5 397.45 M500.1 -95.6 L500.1 216.4 339.5 216.4 339.5 -95.6 500.1 -95.6 M676.5 -95.6 L676.5 216.4 515.8 216.4 515.8 -95.6 676.5 -95.6 M711.8 262.9 L697.4 262.9 296.5 262.9 M259.5 397.45 L259.5 397.8 M276.9 397.8 L276.9 397.45 M296.5 253.7 L697.4 253.7 M-278.6 36.6 L-116.7 1.8 -116.7 219.4 -278.6 219.4 -278.6 36.6 M-290.4 219.4 L-462.8 219.4 -462.8 76.1 -290.4 39.1 -290.4 219.4 M-484.5 253.7 L239.6 253.7 M-500.2 253.7 L-484.5 253.7 M-484.5 262.9 L-500.2 262.9 M-676.1 73.2 L-583.7 73.2 -583.7 230.2 -676.1 230.2 -676.1 73.2 M768.7 427.2 L-178.45 426.1 -374.2 427.6 -523.5 427.2 -988.5 427.2 M-484.5 262.9 L239.6 262.9 M-686.6 73.2 L-686.6 230.2 -784.0 230.2 -784.0 73.2 -686.6 73.2 M-920.1 253.7 L-906.4 253.7 -545.3 253.7 M-920.1 262.9 L-906.4 262.9 -545.3 262.9 M-794.5 73.2 L-794.5 230.2 -881.7 230.2 -881.7 73.2 -794.5 73.2" fill="none" stroke="#000000" stroke-linecap="butt" stroke-linejoin="miter-clip" stroke-miterlimit="10.0" stroke-opacity="0.6" stroke-width="1.0"/>
    <path d="M67.8 -37.8 L81.9 -40.8" fill="none" stroke="#000000" stroke-linecap="butt" stroke-linejoin="miter-clip" stroke-miterlimit="4.0" stroke-opacity="0.6" stroke-width="1.0"/>
    <path d="M768.7 397.45 L754.3 397.45 711.8 397.45 711.8 262.9 711.8 253.7 711.8 -268.3 296.5 -268.3 296.5 -218.2 296.5 253.7 296.5 262.9 296.5 390.1 296.5 397.45 M754.3 397.8 L697.4 397.8 296.6 397.8 M240.05 397.8 L-484.5 397.8 -500.2 397.8 -500.2 262.9 -500.2 253.7 -500.2 39.8 -484.5 39.8 -427.6 39.8 239.6 -121.4 239.6 253.7 239.6 262.9 239.6 397.45 M-545.3 397.8 L-906.4 397.8 -920.1 397.8 -920.1 262.9 -920.1 253.7 -920.1 39.8 -965.2 39.8 M239.6 -162.75 L239.6 -184.1 212.2 -221.2 194.5 -216.95 M239.6 -261.7 L239.6 -268.3 223.9 -268.3 M296.5 -268.3 L239.6 -268.3 M239.6 -162.75 L239.6 -121.4 M239.6 -184.1 L239.6 -261.7 M768.7 -268.3 L711.8 -268.3 M768.7 -185.0 L768.7 -111.5 M693.4 -111.3 L322.5 -111.3 322.5 232.1 693.4 232.1 693.4 -111.3 M-500.2 39.8 L-545.3 39.8 -545.3 253.7 -545.3 262.9 -545.3 397.8 M-896.5 238.0 L-568.8 238.0 -568.8 65.3 -896.5 65.3 -896.5 238.0 M227.9 -89.7 L-482.5 71.2 -482.5 232.1 227.9 232.1 227.9 -89.7 M-906.4 39.8 L-920.1 39.8 M-906.4 39.8 L-545.3 39.8" fill="none" stroke="#000000" stroke-linecap="butt" stroke-linejoin="miter-clip" stroke-miterlimit="10.0" stroke-opacity="0.8" stroke-width="1.0"/>
  </g>
</svg>
