<?xml version="1.0" encoding="UTF-8" standalone="no"?>
<svg xmlns:xlink="http://www.w3.org/1999/xlink" height="440.8px" width="633.5px" xmlns="http://www.w3.org/2000/svg">
  <g transform="matrix(1.0, 0.0, 0.0, 1.0, 315.8, 220.25)">
    <path d="M-154.0 -200.5 Q-140.55 -202.85 -131.7 -206.05 L-119.3 -211.15 Q-111.15 -214.55 -103.35 -217.0 -86.6 -222.25 -68.35 -217.55 -59.25 -215.2 -53.45 -211.8 L-34.7 -211.15 -18.4 -208.75 Q3.0 -205.45 26.35 -208.1 L79.3 -214.9 100.9 -218.2 Q170.95 -219.35 220.45 -172.3 237.4 -156.2 252.15 -134.05 257.1 -126.55 262.6 -117.25 L270.1 -104.35 Q280.55 -86.65 279.75 -67.9 279.45 -61.5 277.75 -52.65 L275.1 -38.7 273.0 -24.5 Q272.1 -16.05 272.85 -9.35 274.8 8.45 290.0 21.85 304.5 34.7 307.5 48.85 309.0 55.95 307.55 60.45 L309.15 58.95 Q311.0 57.45 312.35 57.5 316.6 57.7 313.75 73.3 310.85 88.9 312.85 102.55 313.8 109.4 315.35 113.1 L311.15 107.45 Q306.45 101.5 300.25 94.8 L297.1 91.5 Q291.15 85.25 291.65 77.25 291.8 74.2 292.9 70.9 294.2 67.15 296.5 63.5 L298.6 60.6 298.4 48.6 Q297.25 41.2 293.1 34.8 290.15 30.3 284.1 24.2 276.4 16.45 274.35 13.95 269.15 7.8 266.8 1.3 262.2 -11.05 263.5 -40.5 263.9 -49.7 264.85 -59.45 L265.65 -67.4 264.7 -66.85 Q263.5 -65.75 262.35 -63.0 258.8 -54.2 257.25 -32.4 256.6 -23.2 250.45 -12.6 241.55 2.55 221.25 20.55 209.15 31.3 194.55 41.55 183.35 49.45 175.95 53.55 172.35 55.55 169.25 59.3 164.0 65.45 160.0 76.5 157.75 82.55 154.3 94.55 L148.05 115.8 Q144.9 125.7 144.0 136.15 143.5 142.2 143.65 152.6 143.8 161.85 143.25 165.85 142.35 172.3 139.05 176.7 132.95 184.9 130.15 198.15 128.8 204.75 128.6 209.75 103.15 213.9 83.85 206.7 L83.35 206.55 Q85.75 198.4 81.55 191.95 80.25 189.95 78.45 188.35 L77.0 187.2 77.1 179.05 77.0 187.2 76.95 187.15 74.5 191.7 64.05 192.3 Q57.85 192.75 59.95 200.8 60.95 204.75 63.2 208.6 60.3 204.15 52.65 203.6 50.25 203.45 47.6 203.7 L45.5 204.0 Q38.0 196.2 32.35 187.6 29.0 182.55 17.2 179.55 13.5 178.6 9.4 178.0 L6.05 177.55 -0.6 172.8 Q-8.9 166.6 -17.4 159.25 -25.95 151.9 -29.1 118.7 -30.05 108.3 -30.4 96.6 L-30.5 86.95 Q-32.35 77.85 -35.3 66.0 -41.3 42.4 -47.15 28.95 -50.55 21.1 -59.4 12.95 -65.75 7.1 -74.85 1.1 -76.5 0.0 -78.2 -1.05 -76.5 0.0 -74.85 1.1 -65.75 7.1 -59.4 12.95 L-62.45 12.25 -62.9 12.15 -63.3 12.05 Q-85.6 7.05 -105.85 1.25 -122.55 -3.5 -131.3 -15.4 L-131.95 -15.1 -132.1 -15.05 -135.8 -13.3 -135.85 -13.25 -135.95 -13.2 -140.7 -10.0 -146.8 -5.8 -148.05 -5.05 Q-158.45 1.3 -164.65 0.15 -169.2 -0.65 -166.7 -35.0 L-166.65 -35.6 -166.7 -35.0 -177.15 -32.5 Q-182.15 -31.15 -188.35 -25.7 L-195.85 -18.25 Q-197.7 -16.35 -201.45 -19.05 L-204.85 -22.1 -209.4 -18.65 -217.65 -12.9 Q-219.5 -11.75 -225.75 -10.4 -231.95 -9.1 -237.5 -5.65 -240.85 -3.55 -244.4 9.25 -247.0 18.45 -250.85 38.15 L-257.4 71.2 Q-261.3 89.35 -264.75 98.4 -267.75 106.45 -272.9 117.15 L-280.5 133.3 Q-284.15 142.05 -285.6 149.75 -287.4 159.0 -286.5 169.5 -285.0 188.15 -268.5 190.35 -260.25 191.5 -252.35 188.85 L-244.55 200.2 Q-242.55 203.45 -243.0 204.15 L-245.75 204.45 -251.1 204.8 Q-264.85 208.45 -276.7 205.05 -287.55 201.95 -296.05 193.15 -303.6 185.4 -308.45 174.0 L-308.9 173.0 Q-312.95 163.2 -314.55 152.2 L-315.05 148.45 Q-316.15 138.2 -312.45 126.75 L-309.6 128.95 Q-305.75 131.2 -301.05 131.65 -305.75 131.2 -309.6 128.95 L-312.45 126.75 -311.55 124.1 -307.2 113.15 -304.7 106.3 -303.2 101.1 Q-301.35 93.95 -300.0 85.3 -298.6 76.1 -297.75 65.3 -297.05 56.6 -296.55 45.55 L-296.1 32.8 -295.9 25.95 -295.2 0.25 Q-295.05 -4.3 -294.15 -11.25 -293.15 -19.35 -291.2 -30.8 L-289.0 -43.15 -283.35 -71.65 Q-277.8 -96.65 -276.9 -104.65 -276.6 -107.7 -273.05 -117.0 -269.4 -126.6 -264.35 -137.45 -251.4 -165.4 -242.15 -174.95 -234.25 -183.15 -206.9 -190.55 L-202.35 -191.75 Q-186.7 -195.7 -172.8 -197.95 -162.5 -199.05 -154.0 -200.5 M-263.15 -22.2 Q-271.65 -28.55 -282.3 -30.35 L-288.75 -30.9 -291.2 -30.8 -288.75 -30.9 -282.3 -30.35 Q-271.65 -28.55 -263.15 -22.2 M113.3 -34.8 L112.65 -34.4 113.4 -36.45 115.15 -41.6 Q115.9 -44.55 115.85 -46.9 L112.05 -42.5 Q105.9 -35.4 102.6 -32.3 97.0 -27.1 92.15 -25.7 L88.15 -25.15 80.8 -25.85 76.0 -26.4 71.9 -26.25 67.0 -26.05 63.85 -26.3 Q59.55 -28.0 56.85 -32.7 55.25 -35.55 53.2 -42.05 L51.5 -46.9 49.45 -51.15 48.65 -52.4 42.6 -60.6 37.9 -66.8 Q35.45 -70.25 33.9 -73.4 L34.6 -67.2 34.2 -68.6 Q31.2 -80.3 31.35 -80.15 31.2 -80.3 34.2 -68.6 L34.6 -67.2 35.0 -62.05 Q35.5 -55.45 35.9 -52.25 36.55 -46.8 37.75 -42.6 L38.6 -39.65 43.65 -20.85 Q46.2 -10.25 47.1 -1.7 L47.75 5.65 48.35 16.05 Q48.95 29.2 49.8 36.1 73.1 39.65 87.7 39.4 94.75 39.3 99.65 38.25 L99.7 37.2 Q99.85 21.25 100.75 13.2 101.7 4.4 103.9 -3.4 L105.7 -9.05 106.35 -10.8 Q110.2 -20.7 117.2 -30.8 121.4 -36.8 131.05 -48.5 139.15 -58.15 143.3 -63.85 137.15 -59.1 130.2 -52.7 L127.65 -50.35 Q125.7 -48.5 122.2 -43.95 L118.45 -39.35 Q116.3 -36.9 114.2 -35.45 L113.3 -34.8 Q116.05 -41.25 119.5 -47.95 123.9 -56.45 128.95 -64.45 L133.15 -70.8 128.95 -64.45 Q123.9 -56.45 119.5 -47.95 116.05 -41.25 113.3 -34.8 M47.75 5.65 Q48.2 16.8 46.65 24.15 45.0 11.4 39.05 -13.6 L32.5 -39.55 39.05 -13.6 Q45.0 11.4 46.65 24.15 48.2 16.8 47.75 5.65 M134.35 -57.85 L130.85 -53.55 130.2 -52.7 130.85 -53.55 134.35 -57.85 M103.35 1.1 L103.4 0.85 Q104.4 -4.4 105.7 -9.05 104.4 -4.4 103.4 0.85 L103.35 1.1 Q101.5 10.75 100.6 22.35 99.9 31.95 100.0 38.8 99.9 31.95 100.6 22.35 101.5 10.75 103.35 1.1 M77.1 179.05 L77.9 177.55 Q82.55 169.15 95.75 149.5 105.5 135.0 107.85 96.4 108.6 84.3 108.55 71.25 L108.3 60.6 100.0 38.8 Q84.35 42.2 47.35 36.35 47.25 42.6 46.05 47.85 L46.0 48.15 45.95 48.4 45.9 48.6 45.85 48.8 45.75 49.1 45.7 49.25 Q44.45 53.85 43.0 55.9 33.3 70.7 28.9 82.2 25.3 91.75 24.8 100.65 24.55 105.25 25.45 115.65 26.2 125.1 25.5 131.65 23.85 146.65 35.85 149.05 41.85 150.3 48.15 148.5 L58.9 148.15 73.6 148.85 Q76.85 149.7 77.05 174.0 L77.1 179.05 M103.4 0.85 L103.9 -3.4 103.4 0.85 M240.15 -42.3 Q237.6 -34.65 234.55 -29.75 228.6 -20.3 220.95 -11.9 213.35 -3.5 205.45 2.3 200.95 5.55 194.55 9.15 L182.4 15.55 Q170.05 21.85 164.35 25.4 154.75 31.3 149.25 37.45 142.35 45.1 141.2 59.1 140.55 67.55 142.15 85.8 L143.25 100.35 Q143.5 108.0 142.75 113.45 142.05 118.6 139.75 124.3 L135.0 134.2 131.55 141.0 Q129.75 144.9 128.7 148.2 127.6 151.5 127.0 155.15 L126.2 161.4 Q125.55 167.6 124.7 170.8 123.3 176.05 120.1 181.0 114.5 189.6 106.5 196.75 98.5 203.85 89.8 208.0 100.2 210.8 112.5 210.6 L128.05 209.25 Q128.4 203.05 130.0 196.05 132.9 183.95 138.55 176.35 141.75 172.05 142.65 165.7 143.2 161.8 143.05 152.6 142.9 142.3 143.4 136.1 144.3 125.55 147.45 115.6 L152.8 97.75 Q158.55 77.6 162.0 69.9 167.6 57.5 175.65 53.05 182.4 49.3 193.35 41.55 207.9 31.35 220.05 20.7 255.1 -10.1 256.65 -32.45 257.95 -50.65 260.7 -59.9 262.5 -66.15 264.75 -67.65 264.85 -80.7 264.0 -87.2 263.5 -91.7 262.6 -92.6 L262.4 -92.7 262.15 -92.6 Q255.35 -87.65 250.8 -77.05 248.1 -70.7 244.3 -56.5 L240.15 -42.3 M309.8 59.2 Q308.8 59.95 308.0 60.85 L307.05 61.9 306.55 55.35 304.15 62.2 303.0 62.05 302.1 54.6 299.15 59.75 299.2 60.8 299.05 61.0 296.75 64.1 Q294.5 67.65 293.3 71.35 289.6 82.8 297.5 91.05 307.3 101.25 313.65 109.75 312.05 103.45 311.6 95.95 311.0 84.95 313.15 73.2 315.35 61.0 313.3 58.6 312.85 58.1 312.25 58.1 311.25 58.15 309.8 59.2 M46.65 24.15 L47.0 27.45 Q47.45 32.1 47.35 36.35 47.45 32.1 47.0 27.45 L46.65 24.15 M-141.95 -201.4 L-116.2 -204.55 Q-88.1 -207.5 -76.25 -206.45 -66.8 -205.6 -58.95 -199.1 -66.8 -205.6 -76.25 -206.45 -88.1 -207.5 -116.2 -204.55 L-141.95 -201.4 M-203.6 -99.35 L-210.45 -100.7 Q-217.95 -102.1 -221.1 -102.05 -224.2 -101.95 -226.65 -100.2 L-228.5 -98.45 Q-226.05 -100.35 -214.55 -100.0 L-203.6 -99.35 M-163.05 -128.9 Q-167.05 -117.45 -168.65 -106.25 -171.15 -88.65 -165.6 -81.35 L-166.55 -80.6 Q-169.95 -85.1 -171.35 -90.4 L-170.4 -81.0 -169.6 -74.2 Q-169.25 -70.3 -169.35 -67.2 L-169.35 -66.7 -169.85 -66.65 -175.4 -66.1 -182.6 -66.65 -181.65 -65.95 Q-176.9 -62.6 -173.9 -61.05 L-173.1 -60.65 -173.85 -60.05 Q-177.6 -57.2 -182.25 -57.15 -186.2 -57.05 -191.3 -59.3 -189.65 -57.35 -188.55 -55.4 L-188.45 -55.15 -188.55 -54.9 Q-188.6 -54.65 -189.15 -54.35 L-192.8 -52.65 -205.7 -46.5 Q-214.1 -42.3 -215.15 -40.85 -217.55 -37.65 -218.45 -31.95 -219.05 -28.55 -219.3 -21.25 -219.5 -14.95 -219.85 -12.5 L-218.0 -13.4 Q-214.95 -15.3 -209.8 -19.1 L-204.8 -22.9 -204.55 -22.65 -204.85 -22.1 -204.55 -22.65 -204.45 -22.5 -201.5 -19.8 Q-199.15 -18.05 -197.65 -18.05 -196.8 -18.1 -196.25 -18.65 L-195.15 -19.85 Q-190.7 -24.55 -187.65 -27.1 -182.0 -31.8 -177.3 -33.05 L-166.65 -35.6 -164.9 -55.7 -163.95 -64.85 -162.85 -74.5 -162.65 -75.9 -162.55 -76.85 -162.65 -75.9 -162.85 -74.5 -163.95 -64.85 -164.9 -55.7 -164.25 -67.05 -163.3 -81.1 -162.65 -75.9 -163.3 -81.1 -163.2 -83.2 -162.15 -99.85 Q-161.25 -109.1 -159.45 -116.05 L-159.75 -116.05 -160.25 -116.1 -160.3 -116.6 -160.95 -125.35 Q-161.2 -131.0 -160.8 -134.95 L-163.05 -128.9 -160.4 -140.35 -163.05 -128.9 M-276.35 -7.0 Q-280.15 -9.75 -287.55 -10.8 L-294.15 -11.25 -287.55 -10.8 Q-280.15 -9.75 -276.35 -7.0 M-273.45 -72.55 L-276.4 -72.5 -273.45 -72.55 M-267.75 -90.55 L-269.7 -90.55 -267.75 -90.55 M-261.2 -118.6 L-266.15 -118.5 -261.2 -118.6 M-270.0 -43.7 Q-272.55 -44.15 -275.4 -43.8 -278.25 -43.5 -279.9 -42.6 -278.25 -43.5 -275.4 -43.8 -272.55 -44.15 -270.0 -43.7 M-275.0 31.05 Q-280.2 26.95 -288.6 26.05 L-293.8 25.8 -295.9 25.95 -293.8 25.8 -288.6 26.05 Q-280.2 26.95 -275.0 31.05 M-155.75 -128.45 L-162.55 -76.85 -155.75 -128.45 M-127.25 -17.25 L-131.3 -15.4 -127.25 -17.25 -124.45 -15.45 Q-110.15 -6.45 -101.85 -2.8 -96.8 -0.6 -88.5 -0.65 L-78.2 -1.05 -73.9 -1.35 Q-65.35 -1.6 -60.35 0.05 -53.75 2.25 -50.3 8.35 -54.3 0.25 -55.25 -15.4 -55.5 -20.5 -54.05 -24.7 L-51.35 -32.75 Q-50.85 -35.25 -50.6 -38.4 L-50.2 -43.2 Q-49.5 -48.6 -45.45 -53.9 -40.85 -60.0 -31.95 -67.9 -20.6 -77.9 -17.8 -80.9 -11.7 -87.3 -7.8 -96.5 -5.25 -102.6 -2.15 -114.55 1.75 -125.65 1.65 -129.15 1.6 -131.65 -0.1 -135.05 -1.65 -138.1 -6.0 -144.65 L-19.4 -164.6 Q-27.9 -176.5 -35.55 -184.0 -46.8 -194.95 -58.95 -199.1 -56.95 -197.4 -55.05 -195.35 -52.25 -192.3 -47.25 -185.6 L-38.9 -175.15 Q-28.25 -163.1 -23.55 -155.5 -17.2 -145.25 -16.35 -135.65 -15.6 -126.85 -24.05 -103.9 -28.65 -91.65 -36.3 -73.6 -39.65 -65.15 -45.95 -59.75 -51.3 -55.1 -57.9 -53.3 -63.1 -51.95 -75.95 -44.8 -82.4 -41.25 -98.4 -31.75 -106.85 -26.75 -120.9 -20.15 L-127.25 -17.25 M-206.75 -94.05 L-211.9 -95.0 -220.95 -95.3 Q-224.25 -94.75 -225.1 -90.1 -225.5 -87.75 -225.3 -85.55 -217.35 -83.3 -211.25 -88.45 -209.3 -90.05 -207.85 -92.2 L-206.75 -94.05 M-262.5 20.7 L-262.5 21.35 Q-263.7 47.35 -272.7 78.0 -279.15 99.8 -290.85 127.45 -296.4 140.5 -295.9 157.05 -295.35 174.9 -287.6 186.4 -283.35 192.75 -277.25 195.95 -271.15 199.2 -263.65 199.05 -258.95 199.0 -253.55 197.55 -250.5 196.75 -248.4 195.5 L-252.6 189.6 Q-258.05 191.2 -263.65 191.25 -272.75 191.4 -278.55 187.3 -286.1 181.9 -287.1 169.55 -288.3 155.45 -284.55 142.75 -282.2 134.9 -275.1 120.3 L-270.15 109.9 Q-267.35 103.8 -265.25 98.2 -262.25 90.15 -258.9 75.25 -256.85 66.1 -253.15 46.8 L-248.9 25.5 Q-246.6 14.5 -244.65 7.8 -253.05 12.35 -261.95 15.4 -270.9 18.4 -279.1 19.55 L-276.3 19.9 -264.4 20.8 -262.5 20.7 M-271.7 49.7 Q-278.3 46.5 -288.1 45.7 L-296.55 45.55 -288.1 45.7 Q-278.3 46.5 -271.7 49.7 M-287.55 88.05 Q-291.45 85.7 -296.1 85.25 L-300.0 85.3 -296.1 85.25 Q-291.45 85.7 -287.55 88.05 M-282.65 68.55 Q-285.1 66.15 -290.45 65.45 -294.1 64.95 -297.75 65.3 -294.1 64.95 -290.45 65.45 -285.1 66.15 -282.65 68.55 M-293.95 109.85 L-304.7 106.3 -293.95 109.85 M-297.65 157.0 Q-304.4 157.15 -310.15 154.65 -311.95 153.9 -313.45 152.95 L-314.55 152.2 -313.45 152.95 Q-311.95 153.9 -310.15 154.65 -304.4 157.15 -297.65 157.0 M-298.85 175.65 Q-300.75 176.2 -304.8 175.15 L-308.45 174.0 -304.8 175.15 Q-300.75 176.2 -298.85 175.65" fill="#ffffff" fill-opacity="0.0" fill-rule="evenodd" stroke="none"/>
    <path d="M34.6 -67.2 L33.9 -73.4 Q35.45 -70.25 37.9 -66.8 L42.6 -60.6 48.65 -52.4 49.45 -51.15 51.5 -46.9 53.2 -42.05 Q55.25 -35.55 56.85 -32.7 59.55 -28.0 63.85 -26.3 L67.0 -26.05 71.9 -26.25 76.0 -26.4 80.8 -25.85 88.15 -25.15 92.15 -25.7 Q97.0 -27.1 102.6 -32.3 105.9 -35.4 112.05 -42.5 L115.85 -46.9 Q115.9 -44.55 115.15 -41.6 L113.4 -36.45 112.65 -34.4 113.3 -34.8 Q106.05 -18.0 103.9 -3.4 106.05 -18.0 113.3 -34.8 L114.2 -35.45 Q116.3 -36.9 118.45 -39.35 L122.2 -43.95 Q125.7 -48.5 127.65 -50.35 L130.2 -52.7 Q137.15 -59.1 143.3 -63.85 139.15 -58.15 131.05 -48.5 121.4 -36.8 117.2 -30.8 110.2 -20.7 106.35 -10.8 L105.7 -9.05 106.15 -10.6 Q110.3 -24.35 122.7 -42.5 126.3 -47.7 130.2 -52.7 126.3 -47.7 122.7 -42.5 110.3 -24.35 106.15 -10.6 L105.7 -9.05 103.9 -3.4 Q101.7 4.4 100.75 13.2 99.85 21.25 99.7 37.2 L99.65 38.25 Q94.75 39.3 87.7 39.4 73.1 39.65 49.8 36.1 48.95 29.2 48.35 16.05 L47.75 5.65 47.1 -1.7 Q46.2 -10.25 43.65 -20.85 L38.6 -39.65 37.75 -42.6 Q36.55 -46.8 35.9 -52.25 35.5 -55.45 35.0 -62.05 L34.6 -67.2 Q38.4 -52.35 41.05 -40.0 46.95 -12.25 47.75 5.65 46.95 -12.25 41.05 -40.0 38.4 -52.35 34.6 -67.2 M240.15 -42.3 L244.3 -56.5 Q248.1 -70.7 250.8 -77.05 255.35 -87.65 262.15 -92.6 L262.4 -92.7 262.6 -92.6 Q263.5 -91.7 264.0 -87.2 264.85 -80.7 264.75 -67.65 262.5 -66.15 260.7 -59.9 257.95 -50.65 256.65 -32.45 255.1 -10.1 220.05 20.7 207.9 31.35 193.35 41.55 182.4 49.3 175.65 53.05 167.6 57.5 162.0 69.9 158.55 77.6 152.8 97.75 L147.45 115.6 Q144.3 125.55 143.4 136.1 142.9 142.3 143.05 152.6 143.2 161.8 142.65 165.7 141.75 172.05 138.55 176.35 132.9 183.95 130.0 196.05 128.4 203.05 128.05 209.25 L112.5 210.6 Q100.2 210.8 89.8 208.0 98.5 203.85 106.5 196.75 114.5 189.6 120.1 181.0 123.3 176.05 124.7 170.8 125.55 167.6 126.2 161.4 L127.0 155.15 Q127.6 151.5 128.7 148.2 129.75 144.9 131.55 141.0 L135.0 134.2 139.75 124.3 Q142.05 118.6 142.75 113.45 143.5 108.0 143.25 100.35 L142.15 85.8 Q140.55 67.55 141.2 59.1 142.35 45.1 149.25 37.45 154.75 31.3 164.35 25.4 170.05 21.85 182.4 15.55 L194.55 9.15 Q200.95 5.55 205.45 2.3 213.35 -3.5 220.95 -11.9 228.6 -20.3 234.55 -29.75 237.6 -34.65 240.15 -42.3 M211.95 203.4 L212.85 203.7 Q214.05 204.1 215.15 204.8 218.7 207.15 220.3 211.75 220.9 209.05 222.3 206.75 225.1 202.2 229.15 204.65 233.25 207.1 236.85 212.45 238.65 215.15 239.6 217.35 L238.9 217.4 227.2 217.95 Q214.45 218.1 212.9 216.1 210.85 213.55 210.45 210.1 210.05 206.3 211.95 203.4 M-203.6 -99.35 L-214.55 -100.0 Q-226.05 -100.35 -228.5 -98.45 L-226.65 -100.2 Q-224.2 -101.95 -221.1 -102.05 -217.95 -102.1 -210.45 -100.7 L-203.6 -99.35 M-204.55 -22.65 L-204.8 -22.9 -209.8 -19.1 Q-214.95 -15.3 -218.0 -13.4 L-219.85 -12.5 Q-219.5 -14.95 -219.3 -21.25 -219.05 -28.55 -218.45 -31.95 -217.55 -37.65 -215.15 -40.85 -214.1 -42.3 -205.7 -46.5 L-192.8 -52.65 -189.15 -54.35 Q-188.6 -54.65 -188.55 -54.9 L-188.45 -55.15 -188.55 -55.4 Q-189.65 -57.35 -191.3 -59.3 -186.2 -57.05 -182.25 -57.15 -177.6 -57.2 -173.85 -60.05 L-173.1 -60.65 -173.9 -61.05 Q-176.9 -62.6 -181.65 -65.95 L-182.6 -66.65 -175.4 -66.1 -169.85 -66.65 -169.35 -66.7 -169.35 -67.2 Q-169.25 -70.3 -169.6 -74.2 L-170.4 -81.0 -171.35 -90.4 Q-169.95 -85.1 -166.55 -80.6 L-165.6 -81.35 Q-171.15 -88.65 -168.65 -106.25 -167.05 -117.45 -163.05 -128.9 L-163.2 -128.35 Q-165.95 -115.25 -165.9 -109.65 -165.8 -104.05 -164.25 -89.4 L-163.3 -81.1 -164.25 -89.4 Q-165.8 -104.05 -165.9 -109.65 -165.95 -115.25 -163.2 -128.35 L-163.05 -128.9 -160.8 -134.95 Q-161.2 -131.0 -160.95 -125.35 L-160.3 -116.6 -160.25 -116.1 -159.75 -116.05 -159.45 -116.05 Q-161.25 -109.1 -162.15 -99.85 L-163.2 -83.2 -163.3 -81.1 -164.25 -67.05 -164.9 -55.7 -166.65 -35.6 -177.3 -33.05 Q-182.0 -31.8 -187.65 -27.1 -190.7 -24.55 -195.15 -19.85 L-196.25 -18.65 Q-196.8 -18.1 -197.65 -18.05 -199.15 -18.05 -201.5 -19.8 L-204.45 -22.5 -204.55 -22.65 Q-201.15 -29.15 -196.8 -30.7 -201.15 -29.15 -204.55 -22.65 M-127.25 -17.25 L-120.9 -20.15 Q-106.85 -26.75 -98.4 -31.75 -82.4 -41.25 -75.95 -44.8 -63.1 -51.95 -57.9 -53.3 -51.3 -55.1 -45.95 -59.75 -39.65 -65.15 -36.3 -73.6 -28.65 -91.65 -24.05 -103.9 -15.6 -126.85 -16.35 -135.65 -17.2 -145.25 -23.55 -155.5 -28.25 -163.1 -38.9 -175.15 L-47.25 -185.6 Q-52.25 -192.3 -55.05 -195.35 -56.95 -197.4 -58.95 -199.1 -46.8 -194.95 -35.55 -184.0 -27.9 -176.5 -19.4 -164.6 L-6.0 -144.65 Q-1.65 -138.1 -0.1 -135.05 1.6 -131.65 1.65 -129.15 1.75 -125.65 -2.15 -114.55 -5.25 -102.6 -7.8 -96.5 -11.7 -87.3 -17.8 -80.9 -20.6 -77.9 -31.95 -67.9 -40.85 -60.0 -45.45 -53.9 -49.5 -48.6 -50.2 -43.2 L-50.6 -38.4 Q-50.85 -35.25 -51.35 -32.75 L-54.05 -24.7 Q-55.5 -20.5 -55.25 -15.4 -54.3 0.25 -50.3 8.35 -53.75 2.25 -60.35 0.05 -65.35 -1.6 -73.9 -1.35 L-78.2 -1.05 -88.5 -0.65 Q-96.8 -0.6 -101.85 -2.8 -110.15 -6.45 -124.45 -15.45 L-127.25 -17.25 M-161.5 219.1 L-172.05 219.45 Q-181.05 218.05 -173.5 208.8 L-173.45 208.75 -172.35 209.1 Q-170.9 209.65 -169.4 210.6 -164.7 213.55 -161.5 219.1 M-262.5 20.7 L-264.4 20.8 -276.3 19.9 -279.1 19.55 Q-270.9 18.4 -261.95 15.4 -253.05 12.35 -244.65 7.8 -246.6 14.5 -248.9 25.5 L-253.15 46.8 Q-256.85 66.1 -258.9 75.25 -262.25 90.15 -265.25 98.2 -267.35 103.8 -270.15 109.9 L-275.1 120.3 Q-282.2 134.9 -284.55 142.75 -288.3 155.45 -287.1 169.55 -286.1 181.9 -278.55 187.3 -272.75 191.4 -263.65 191.25 -258.05 191.2 -252.6 189.6 L-248.4 195.5 Q-250.5 196.75 -253.55 197.55 -258.95 199.0 -263.65 199.05 -271.15 199.2 -277.25 195.95 -283.35 192.75 -287.6 186.4 -295.35 174.9 -295.9 157.05 -296.4 140.5 -290.85 127.45 -279.15 99.8 -272.7 78.0 -263.7 47.35 -262.5 21.35 L-262.5 20.7" fill="#000000" fill-opacity="0.2" fill-rule="evenodd" stroke="none"/>
    <path d="M-154.0 -200.5 Q-162.5 -199.05 -172.8 -197.95 -186.7 -195.7 -202.35 -191.75 L-206.9 -190.55 -205.55 -191.6 -191.75 -201.65 Q-187.3 -204.55 -177.55 -208.95 -168.1 -213.25 -167.05 -214.0 -165.9 -214.8 -163.65 -215.25 L-159.0 -215.5 Q-153.15 -214.85 -153.05 -210.2 -153.0 -206.45 -154.0 -200.5 M169.25 59.3 Q172.35 55.55 175.95 53.55 183.35 49.45 194.55 41.55 209.15 31.3 221.25 20.55 241.55 2.55 250.45 -12.6 L251.95 -7.35 Q254.7 2.85 256.8 14.7 262.05 44.4 259.8 63.7 257.55 82.95 263.4 108.0 268.1 128.2 275.25 142.65 280.5 153.3 282.5 164.4 283.95 172.45 284.15 185.1 284.25 193.95 285.5 202.35 286.15 206.55 286.75 208.95 276.15 217.05 243.45 217.4 L238.9 217.4 239.6 217.35 Q238.65 215.15 236.85 212.45 233.25 207.1 229.15 204.65 225.1 202.2 222.3 206.75 220.9 209.05 220.3 211.75 218.7 207.15 215.15 204.8 214.05 204.1 212.85 203.7 L211.95 203.4 Q212.85 201.45 219.0 194.45 L226.6 186.0 Q228.15 184.45 226.95 170.4 225.95 158.85 223.7 144.2 L222.0 129.25 Q220.8 118.65 218.8 111.25 212.85 88.9 196.5 79.65 180.8 70.75 169.25 59.3 M-146.8 -5.8 L-140.7 -10.0 -135.95 -13.2 -135.85 -13.25 -135.8 -13.3 -132.1 -15.05 -131.95 -15.1 -131.3 -15.4 Q-122.55 -3.5 -105.85 1.25 -85.6 7.05 -63.3 12.05 L-63.3 12.2 Q-64.15 18.2 -68.35 28.45 -70.5 33.65 -75.3 43.6 L-81.8 56.35 Q-88.2 69.0 -92.65 79.75 -97.15 90.55 -102.15 106.5 L-106.2 120.3 -107.7 138.65 Q-109.8 159.25 -112.9 170.5 L-115.75 181.1 Q-116.75 185.25 -116.7 187.8 -116.7 190.5 -115.45 193.55 L-111.65 201.1 Q-107.3 208.95 -107.05 214.75 -106.9 217.65 -107.6 218.95 L-161.5 219.1 Q-164.7 213.55 -169.4 210.6 -170.9 209.65 -172.35 209.1 L-173.45 208.75 -173.5 208.8 -173.1 208.15 Q-171.9 206.35 -164.75 199.7 -159.85 195.15 -157.6 188.65 -156.0 183.95 -156.05 179.4 L-156.8 156.5 Q-157.15 135.6 -155.4 128.55 -153.3 120.15 -153.65 98.35 -153.95 76.6 -156.45 62.05 -158.6 49.5 -154.75 33.55 -153.15 26.85 -146.85 8.85 -144.95 3.45 -146.8 -5.8 M-122.25 5.5 L-118.65 6.85 Q-113.8 8.4 -107.7 9.6 -88.25 13.45 -63.3 12.2 -88.25 13.45 -107.7 9.6 -113.8 8.4 -118.65 6.85 L-122.25 5.5" fill="#000000" fill-opacity="0.29803923" fill-rule="evenodd" stroke="none"/>
    <path d="M309.8 59.2 Q311.25 58.15 312.25 58.1 312.85 58.1 313.3 58.6 315.35 61.0 313.15 73.2 311.0 84.95 311.6 95.95 312.05 103.45 313.65 109.75 307.3 101.25 297.5 91.05 289.6 82.8 293.3 71.35 294.5 67.65 296.75 64.1 L299.05 61.0 299.2 60.8 299.15 59.75 302.1 54.6 303.0 62.05 304.15 62.2 306.55 55.35 307.05 61.9 308.0 60.85 Q308.8 59.95 309.8 59.2" fill="#000000" fill-opacity="0.4" fill-rule="evenodd" stroke="none"/>
    <path d="M291.65 77.25 Q291.15 85.25 297.1 91.5 L300.25 94.8 Q300.2 98.6 302.0 102.8 303.3 105.85 304.8 107.8 288.45 96.55 291.4 78.45 L291.65 77.25" fill="#000000" fill-opacity="0.49803922" fill-rule="evenodd" stroke="none"/>
    <path d="M-219.15 -91.65 L-215.95 -93.15 Q-222.2 -94.3 -223.65 -91.0 -224.35 -89.4 -223.85 -87.55 -222.6 -89.75 -219.15 -91.65 M-206.75 -94.05 L-207.85 -92.2 Q-209.3 -90.05 -211.25 -88.45 -217.35 -83.3 -225.3 -85.55 -225.5 -87.75 -225.1 -90.1 -224.25 -94.75 -220.95 -95.3 L-211.9 -95.0 -206.75 -94.05" fill="#000000" fill-rule="evenodd" stroke="none"/>
    <path d="M-219.15 -91.65 Q-222.6 -89.75 -223.85 -87.55 -224.35 -89.4 -223.65 -91.0 -222.2 -94.3 -215.95 -93.15 L-219.15 -91.65" fill="#fefefe" fill-rule="evenodd" stroke="none"/>
    <path d="M77.0 187.2 L78.45 188.35 Q80.25 189.95 81.55 191.95 85.75 198.4 83.35 206.55 L78.7 205.2 Q76.25 204.35 74.6 203.5 L75.25 202.7 Q77.05 200.15 77.6 197.55 78.0 195.3 77.5 193.25 L76.9 191.75 76.85 191.65 76.9 191.75 77.5 193.25 Q78.0 195.3 77.6 197.55 77.05 200.15 75.25 202.7 L74.6 203.5 Q71.5 207.3 65.35 210.75 62.35 214.5 58.35 215.55 50.35 217.6 45.45 204.0 L45.5 204.0 47.6 203.7 Q50.25 203.45 52.65 203.6 60.3 204.15 63.2 208.6 60.95 204.75 59.95 200.8 57.85 192.75 64.05 192.3 L74.5 191.7 76.95 187.15 77.0 187.2 M76.85 191.65 L74.5 191.7 76.85 191.65 M63.2 208.6 L63.3 208.8 63.2 208.6" fill="#ffffff" fill-opacity="0.2" fill-rule="evenodd" stroke="none"/>
    <path d="M300.25 94.8 Q306.45 101.5 311.15 107.45 L315.35 113.1 Q313.8 109.4 312.85 102.55 310.85 88.9 313.75 73.3 316.6 57.7 312.35 57.5 311.0 57.45 309.15 58.95 L307.55 60.45 Q309.0 55.95 307.5 48.85 304.5 34.7 290.0 21.85 274.8 8.45 272.85 -9.35 272.1 -16.05 273.0 -24.5 L275.1 -38.7 277.75 -52.65 Q279.45 -61.5 279.75 -67.9 280.55 -86.65 270.1 -104.35 L262.6 -117.25 Q257.1 -126.55 252.15 -134.05 237.4 -156.2 220.45 -172.3 170.95 -219.35 100.9 -218.2 L79.3 -214.9 26.35 -208.1 Q3.0 -205.45 -18.4 -208.75 L-34.7 -211.15 -53.45 -211.8 Q-59.25 -215.2 -68.35 -217.55 -86.6 -222.25 -103.35 -217.0 -111.15 -214.55 -119.3 -211.15 L-131.7 -206.05 Q-140.55 -202.85 -154.0 -200.5 -162.5 -199.05 -172.8 -197.95 -186.7 -195.7 -202.35 -191.75 L-206.9 -190.55 Q-234.25 -183.15 -242.15 -174.95 -251.4 -165.4 -264.35 -137.45 -269.4 -126.6 -273.05 -117.0 -276.6 -107.7 -276.9 -104.65 -277.8 -96.65 -283.35 -71.65 L-289.0 -43.15 -291.2 -30.8 Q-293.15 -19.35 -294.15 -11.25 -295.05 -4.3 -295.2 0.25 L-295.9 25.95 -296.1 32.8 -296.55 45.55 Q-297.05 56.6 -297.75 65.3 -298.6 76.1 -300.0 85.3 -301.35 93.95 -303.2 101.1 L-304.7 106.3 -307.2 113.15 -311.55 124.1 -312.45 126.75 Q-316.15 138.2 -315.05 148.45 L-314.55 152.2 Q-312.95 163.2 -308.9 173.0 L-308.45 174.0 Q-303.6 185.4 -296.05 193.15 -287.55 201.95 -276.7 205.05 -264.85 208.45 -251.1 204.8 L-245.75 204.45 -243.0 204.15 Q-242.55 203.45 -244.55 200.2 L-252.35 188.85 Q-260.25 191.5 -268.5 190.35 -285.0 188.15 -286.5 169.5 -287.4 159.0 -285.6 149.75 -284.15 142.05 -280.5 133.3 L-272.9 117.15 Q-267.75 106.45 -264.75 98.4 -261.3 89.35 -257.4 71.2 L-250.85 38.15 Q-247.0 18.45 -244.4 9.25 -240.85 -3.55 -237.5 -5.65 -231.95 -9.1 -225.75 -10.4 -219.5 -11.75 -217.65 -12.9 L-209.4 -18.65 -204.85 -22.1 -201.45 -19.05 Q-197.7 -16.35 -195.85 -18.25 L-188.35 -25.7 Q-182.15 -31.15 -177.15 -32.5 L-166.7 -35.0 Q-169.2 -0.65 -164.65 0.15 -158.45 1.3 -148.05 -5.05 L-146.8 -5.8 -140.7 -10.0 -135.95 -13.2 -135.85 -13.25 -135.8 -13.3 -132.1 -15.05 -131.95 -15.1 -131.3 -15.4 -127.25 -17.25 -120.9 -20.15 Q-106.85 -26.75 -98.4 -31.75 -82.4 -41.25 -75.95 -44.8 -63.1 -51.95 -57.9 -53.3 -51.3 -55.1 -45.95 -59.75 -39.65 -65.15 -36.3 -73.6 -28.65 -91.65 -24.05 -103.9 -15.6 -126.85 -16.35 -135.65 -17.2 -145.25 -23.55 -155.5 -28.25 -163.1 -38.9 -175.15 L-47.25 -185.6 Q-52.25 -192.3 -55.05 -195.35 -56.95 -197.4 -58.95 -199.1 -66.8 -205.6 -76.25 -206.45 -88.1 -207.5 -116.2 -204.55 L-141.95 -201.4 M103.35 1.1 Q101.5 10.75 100.6 22.35 99.9 31.95 100.0 38.8 L108.3 60.6 108.55 71.25 Q108.6 84.3 107.85 96.4 105.5 135.0 95.75 149.5 82.55 169.15 77.9 177.55 L77.1 179.05 77.0 187.2 M83.35 206.55 L83.85 206.7 Q103.15 213.9 128.6 209.75 128.8 204.75 130.15 198.15 132.95 184.9 139.05 176.7 142.35 172.3 143.25 165.85 143.8 161.85 143.65 152.6 143.5 142.2 144.0 136.15 144.9 125.7 148.05 115.8 L154.3 94.55 Q157.75 82.55 160.0 76.5 164.0 65.45 169.25 59.3 172.35 55.55 175.95 53.55 183.35 49.45 194.55 41.55 209.15 31.3 221.25 20.55 241.55 2.55 250.45 -12.6 256.6 -23.2 257.25 -32.4 258.8 -54.2 262.35 -63.0 263.5 -65.75 264.7 -66.85 L265.65 -67.4 264.85 -59.45 Q263.9 -49.7 263.5 -40.5 262.2 -11.05 266.8 1.3 269.15 7.8 274.35 13.95 276.4 16.45 284.1 24.2 290.15 30.3 293.1 34.8 297.25 41.2 298.4 48.6 L298.6 60.6 296.5 63.5 Q294.2 67.15 292.9 70.9 291.8 74.2 291.65 77.25 L291.4 78.45 Q288.45 96.55 304.8 107.8 303.3 105.85 302.0 102.8 300.2 98.6 300.25 94.8 M238.9 217.4 L243.45 217.4 Q276.15 217.05 286.75 208.95 286.15 206.55 285.5 202.35 284.25 193.95 284.15 185.1 283.95 172.45 282.5 164.4 280.5 153.3 275.25 142.65 268.1 128.2 263.4 108.0 257.55 82.95 259.8 63.7 262.05 44.4 256.8 14.7 254.7 2.85 251.95 -7.35 L250.45 -12.6 M169.25 59.3 Q180.8 70.75 196.5 79.65 212.85 88.9 218.8 111.25 220.8 118.65 222.0 129.25 L223.7 144.2 Q225.95 158.85 226.95 170.4 228.15 184.45 226.6 186.0 L219.0 194.45 Q212.85 201.45 211.95 203.4 210.05 206.3 210.45 210.1 210.85 213.55 212.9 216.1 214.45 218.1 227.2 217.95 L238.9 217.4 239.6 217.35 M47.35 36.35 Q47.45 32.1 47.0 27.45 L46.65 24.15 M77.1 179.05 L77.05 174.0 Q76.85 149.7 73.6 148.85 L58.9 148.15 48.15 148.5 Q41.85 150.3 35.85 149.05 23.85 146.65 25.5 131.65 26.2 125.1 25.45 115.65 24.55 105.25 24.8 100.65 25.3 91.75 28.9 82.2 33.3 70.7 43.0 55.9 44.45 53.85 45.7 49.25 L45.75 49.1 45.85 48.8 45.9 48.6 45.95 48.4 46.0 48.15 46.05 47.85 Q47.25 42.6 47.35 36.35 84.35 42.2 100.0 38.8 M-59.4 12.95 Q-50.55 21.1 -47.15 28.95 -41.3 42.4 -35.3 66.0 -32.35 77.85 -30.5 86.95 L-30.4 96.6 Q-30.05 108.3 -29.1 118.7 -25.95 151.9 -17.4 159.25 -8.9 166.6 -0.6 172.8 L6.05 177.55 9.4 178.0 Q13.5 178.6 17.2 179.55 29.0 182.55 32.35 187.6 38.0 196.2 45.5 204.0 M74.5 191.7 L76.95 187.15 M76.85 191.65 L76.9 191.75 77.5 193.25 Q78.0 195.3 77.6 197.55 77.05 200.15 75.25 202.7 L74.6 203.5 Q76.25 204.35 78.7 205.2 L83.35 206.55 M45.45 204.0 Q50.35 217.6 58.35 215.55 62.35 214.5 65.35 210.75 71.5 207.3 74.6 203.5 M-154.0 -200.5 Q-153.0 -206.45 -153.05 -210.2 -153.15 -214.85 -159.0 -215.5 L-163.65 -215.25 Q-165.9 -214.8 -167.05 -214.0 -168.1 -213.25 -177.55 -208.95 -187.3 -204.55 -191.75 -201.65 L-205.55 -191.6 -206.9 -190.55 M-162.65 -75.9 L-162.55 -76.85 M-164.9 -55.7 L-163.95 -64.85 -162.85 -74.5 -162.65 -75.9 M-164.9 -55.7 L-166.65 -35.6 -166.7 -35.0 M-78.2 -1.05 Q-76.5 0.0 -74.85 1.1 -65.75 7.1 -59.4 12.95 L-62.45 12.25 -62.9 12.15 -63.3 12.05 Q-85.6 7.05 -105.85 1.25 -122.55 -3.5 -131.3 -15.4 M-63.3 12.2 Q-64.15 18.2 -68.35 28.45 -70.5 33.65 -75.3 43.6 L-81.8 56.35 Q-88.2 69.0 -92.65 79.75 -97.15 90.55 -102.15 106.5 L-106.2 120.3 -107.7 138.65 Q-109.8 159.25 -112.9 170.5 L-115.75 181.1 Q-116.75 185.25 -116.7 187.8 -116.7 190.5 -115.45 193.55 L-111.65 201.1 Q-107.3 208.95 -107.05 214.75 -106.9 217.65 -107.6 218.95 L-161.5 219.1 -172.05 219.45 Q-181.05 218.05 -173.5 208.8 L-173.1 208.15 Q-171.9 206.35 -164.75 199.7 -159.85 195.15 -157.6 188.65 -156.0 183.95 -156.05 179.4 L-156.8 156.5 Q-157.15 135.6 -155.4 128.55 -153.3 120.15 -153.65 98.35 -153.95 76.6 -156.45 62.05 -158.6 49.5 -154.75 33.55 -153.15 26.85 -146.85 8.85 -144.95 3.45 -146.8 -5.8 M-206.75 -94.05 L-207.85 -92.2 Q-209.3 -90.05 -211.25 -88.45 -217.35 -83.3 -225.3 -85.55 -225.5 -87.75 -225.1 -90.1 -224.25 -94.75 -220.95 -95.3 L-211.9 -95.0 -206.75 -94.05 M-63.3 12.2 L-63.3 12.05 M-173.45 208.75 L-173.5 208.8" fill="none" stroke="#000000" stroke-linecap="butt" stroke-linejoin="miter-clip" stroke-miterlimit="10.0" stroke-width="1.0"/>
    <path d="M-291.2 -30.8 L-288.75 -30.9 -282.3 -30.35 Q-271.65 -28.55 -263.15 -22.2 M113.3 -34.8 Q116.05 -41.25 119.5 -47.95 123.9 -56.45 128.95 -64.45 L133.15 -70.8 M34.6 -67.2 L34.2 -68.6 Q31.2 -80.3 31.35 -80.15 M34.6 -67.2 Q38.4 -52.35 41.05 -40.0 46.95 -12.25 47.75 5.65 48.2 16.8 46.65 24.15 45.0 11.4 39.05 -13.6 L32.5 -39.55 M103.9 -3.4 Q106.05 -18.0 113.3 -34.8 M130.2 -52.7 L130.85 -53.55 134.35 -57.85 M105.7 -9.05 Q104.4 -4.4 103.4 0.85 L103.35 1.1 M77.0 187.2 L78.45 188.35 Q80.25 189.95 81.55 191.95 85.75 198.4 83.35 206.55 M291.65 77.25 Q291.15 85.25 297.1 91.5 L300.25 94.8 M130.2 -52.7 Q126.3 -47.7 122.7 -42.5 110.3 -24.35 106.15 -10.6 L105.7 -9.05 M103.9 -3.4 L103.4 0.85 M211.95 203.4 L212.85 203.7 Q214.05 204.1 215.15 204.8 218.7 207.15 220.3 211.75 220.9 209.05 222.3 206.75 225.1 202.2 229.15 204.65 233.25 207.1 236.85 212.45 238.65 215.15 239.6 217.35 M45.5 204.0 L47.6 203.7 Q50.25 203.45 52.65 203.6 60.3 204.15 63.2 208.6 60.95 204.75 59.95 200.8 57.85 192.75 64.05 192.3 L74.5 191.7 76.85 191.65 M76.95 187.15 L77.0 187.2 M63.2 208.6 L63.3 208.8 63.2 208.6 M45.45 204.0 L45.5 204.0 M-204.55 -22.65 Q-201.15 -29.15 -196.8 -30.7 M-163.3 -81.1 L-164.25 -89.4 Q-165.8 -104.05 -165.9 -109.65 -165.95 -115.25 -163.2 -128.35 L-163.05 -128.9 -160.4 -140.35 M-266.15 -118.5 L-261.2 -118.6 M-269.7 -90.55 L-267.75 -90.55 M-276.4 -72.5 L-273.45 -72.55 M-294.15 -11.25 L-287.55 -10.8 Q-280.15 -9.75 -276.35 -7.0 M-295.9 25.95 L-293.8 25.8 -288.6 26.05 Q-280.2 26.95 -275.0 31.05 M-279.9 -42.6 Q-278.25 -43.5 -275.4 -43.8 -272.55 -44.15 -270.0 -43.7 M-162.55 -76.85 L-155.75 -128.45 M-162.65 -75.9 L-163.3 -81.1 M-62.9 12.15 L-63.3 12.2 Q-88.25 13.45 -107.7 9.6 -113.8 8.4 -118.65 6.85 L-122.25 5.5 M-204.85 -22.1 L-204.55 -22.65 M-296.55 45.55 L-288.1 45.7 Q-278.3 46.5 -271.7 49.7 M-297.75 65.3 Q-294.1 64.95 -290.45 65.45 -285.1 66.15 -282.65 68.55 M-300.0 85.3 L-296.1 85.25 Q-291.45 85.7 -287.55 88.05 M-304.7 106.3 L-293.95 109.85 M-312.45 126.75 L-309.6 128.95 Q-305.75 131.2 -301.05 131.65 M-314.55 152.2 L-313.45 152.95 Q-311.95 153.9 -310.15 154.65 -304.4 157.15 -297.65 157.0 M-308.45 174.0 L-304.8 175.15 Q-300.75 176.2 -298.85 175.65 M-161.5 219.1 Q-164.7 213.55 -169.4 210.6 -170.9 209.65 -172.35 209.1 L-173.45 208.75" fill="none" stroke="#000000" stroke-linecap="butt" stroke-linejoin="miter-clip" stroke-miterlimit="10.0" stroke-opacity="0.6" stroke-width="1.0"/>
  </g>
</svg>
