<?xml version="1.0" encoding="UTF-8" standalone="no"?>
<svg xmlns:xlink="http://www.w3.org/1999/xlink" height="22.05px" width="19.2px" xmlns="http://www.w3.org/2000/svg">
  <g transform="matrix(1.0, 0.0, 0.0, 1.0, 8.15, 10.25)">
    <path d="M-6.05 -7.05 L-5.8 -7.5 Q-4.35 -9.75 -3.7 -9.75 -3.0 -9.75 2.05 -5.65 L6.95 -1.6 4.3 -2.8 Q1.5 -3.85 0.85 -2.85 0.4 -2.2 0.1 -1.15 -1.1 -2.15 -1.4 -3.0 -1.9 -4.5 -4.45 -6.15 L-6.05 -7.05" fill="#000000" fill-opacity="0.29803923" fill-rule="evenodd" stroke="none"/>
    <path d="M-6.05 -7.05 L-4.45 -6.15 Q-1.9 -4.5 -1.4 -3.0 -1.1 -2.15 0.1 -1.15 L1.95 0.2 6.05 2.85 Q7.45 4.0 7.6 6.8 7.8 9.55 6.6 9.75 6.05 9.8 5.9 9.55 L5.75 8.7 Q5.45 7.15 3.65 6.3 L0.2 3.7 -4.15 -0.55 Q-9.25 -6.3 -6.95 -7.55 L-6.05 -7.05" fill="#ffffff" fill-opacity="0.0" fill-rule="evenodd" stroke="none"/>
    <path d="M0.1 -1.15 Q0.4 -2.2 0.85 -2.85 1.5 -3.85 4.3 -2.8 L6.95 -1.6 2.05 -5.65 Q-3.0 -9.75 -3.7 -9.75 -4.35 -9.75 -5.8 -7.5 L-6.05 -7.05 -6.95 -7.55 Q-9.25 -6.3 -4.15 -0.55 L0.2 3.7 3.65 6.3 Q5.45 7.15 5.75 8.7 L5.9 9.55 Q6.05 9.8 6.6 9.75 7.8 9.55 7.6 6.8 7.45 4.0 6.05 2.85 L1.95 0.2 0.1 -1.15" fill="none" stroke="#000000" stroke-linecap="round" stroke-linejoin="miter-clip" stroke-miterlimit="10.0" stroke-width="1.0"/>
    <path d="M-6.05 -7.05 L-4.45 -6.15 Q-1.9 -4.5 -1.4 -3.0 -1.1 -2.15 0.1 -1.15" fill="none" stroke="#000000" stroke-linecap="round" stroke-linejoin="miter-clip" stroke-miterlimit="10.0" stroke-opacity="0.6" stroke-width="1.0"/>
  </g>
</svg>
