<?xml version="1.0" encoding="UTF-8" standalone="no"?>
<svg xmlns:xlink="http://www.w3.org/1999/xlink" height="25.25px" width="226.3px" xmlns="http://www.w3.org/2000/svg">
  <g transform="matrix(1.0, 0.0, 0.0, 1.0, 113.2, 12.65)">
    <path d="M-51.75 -9.7 Q-51.1 -8.15 -50.8 -6.9 -49.85 -3.05 -52.05 0.2 L-53.25 0.3 -54.75 0.05 Q-55.65 -0.75 -56.35 -2.05 -57.7 -4.65 -56.75 -7.35 -55.45 -10.75 -54.45 -12.0 -53.3 -13.4 -52.7 -11.8 L-51.75 -9.7" fill="#ffffff" fill-opacity="0.0" fill-rule="evenodd" stroke="none"/>
    <path d="M57.2 -9.7 L58.2 -6.9 Q59.05 -3.05 56.9 0.2 L55.7 0.3 54.2 0.05 Q53.3 -0.75 52.6 -2.05 51.25 -4.65 52.25 -7.35 53.5 -10.75 54.55 -12.0 55.65 -13.4 56.25 -11.8 L57.2 -9.7" fill="#ffffff" fill-opacity="0.0" fill-rule="evenodd" stroke="none"/>
    <path d="M106.1 -3.8 Q107.55 -7.7 108.65 -9.1 109.95 -10.7 110.65 -8.85 L111.7 -6.5 112.8 -3.3 Q113.8 1.0 111.4 4.75 L110.0 4.85 108.3 4.55 Q107.3 3.65 106.5 2.2 104.95 -0.75 106.1 -3.8" fill="#ffffff" fill-opacity="0.0" fill-rule="evenodd" stroke="none"/>
    <path d="M43.25 -2.2 Q44.3 0.1 44.75 1.95 46.05 7.6 42.85 12.45 L41.05 12.6 Q39.2 12.6 38.85 12.2 37.5 11.05 36.5 9.1 34.45 5.25 35.95 1.3 37.8 -3.8 39.3 -5.65 41.0 -7.7 41.9 -5.35 L43.25 -2.2" fill="#ffffff" fill-opacity="0.0" fill-rule="evenodd" stroke="none"/>
    <path d="M-35.2 1.9 Q-33.85 7.55 -37.05 12.4 L-38.85 12.55 Q-40.7 12.55 -41.1 12.15 -42.4 11.0 -43.45 9.05 -45.45 5.2 -44.0 1.25 -42.1 -3.85 -40.6 -5.7 -38.95 -7.75 -38.05 -5.4 L-36.65 -2.25 Q-35.65 0.05 -35.2 1.9" fill="#ffffff" fill-opacity="0.0" fill-rule="evenodd" stroke="none"/>
    <path d="M-108.35 4.55 L-110.1 4.85 -111.45 4.75 Q-113.9 1.0 -112.9 -3.3 L-111.75 -6.5 -110.7 -8.85 Q-110.05 -10.7 -108.75 -9.1 -107.6 -7.7 -106.15 -3.8 -105.05 -0.75 -106.6 2.2 -107.35 3.65 -108.35 4.55" fill="#ffffff" fill-opacity="0.0" fill-rule="evenodd" stroke="none"/>
  </g>
</svg>
