<?xml version="1.0" encoding="UTF-8" standalone="no"?>
<svg xmlns:xlink="http://www.w3.org/1999/xlink" height="53.2px" width="72.85px" xmlns="http://www.w3.org/2000/svg">
  <g transform="matrix(1.0, 0.0, 0.0, 1.0, 35.85, 26.55)">
    <path d="M23.85 -24.9 Q23.4 -24.35 23.05 -23.15 22.6 -21.8 22.6 -20.6 22.6 -18.6 22.7 -18.65 L23.65 -19.8 23.7 -20.05 Q23.75 -20.3 24.05 -20.3 L24.1 -20.65 Q24.15 -20.95 24.3 -20.85 L24.45 -22.0 25.1 -21.45 25.4 -21.45 Q26.1 -21.45 27.1 -20.85 L28.0 -20.3 30.0 -18.9 30.15 -18.15 Q30.2 -17.4 30.65 -17.05 L32.55 -15.65 32.05 -15.6 31.75 -15.45 31.75 -15.55 31.05 -16.0 30.4 -16.4 31.65 -15.05 31.7 -15.2 32.3 -14.55 32.45 -15.05 32.3 -14.5 32.3 -14.45 32.15 -13.9 32.05 -13.6 31.85 -13.4 31.15 -13.2 30.4 -13.25 31.15 -13.2 31.85 -13.4 32.05 -13.6 31.45 -12.4 Q30.95 -11.6 29.25 -11.45 L27.65 -11.5 25.3 -10.45 Q24.15 -9.95 22.9 -6.45 21.95 -3.8 21.3 -0.6 20.9 1.35 18.85 3.8 L15.75 7.5 15.3 8.1 Q13.95 10.0 10.8 12.75 L10.8 12.6 10.8 12.75 10.75 13.1 10.7 15.25 Q10.65 16.3 11.35 20.3 12.9 20.4 12.95 21.65 L12.95 21.85 12.7 22.9 7.45 22.9 7.3 22.05 6.8 23.0 Q2.35 22.7 -1.05 22.9 L-4.3 23.05 -7.5 22.9 -11.1 22.55 -14.6 22.05 Q-16.2 21.7 -17.2 19.95 L-17.6 19.1 -17.65 19.05 -17.6 19.1 Q-18.95 20.0 -21.8 20.65 -26.45 21.35 -26.05 21.55 L-23.05 21.7 -16.45 22.35 Q-12.95 22.95 -12.75 24.05 -12.65 24.6 -13.3 25.05 L-24.9 25.1 Q-33.15 24.9 -33.7 23.05 -34.3 21.15 -31.1 19.7 -29.15 18.8 -24.45 17.7 -21.6 17.05 -19.95 14.75 -19.15 13.6 -18.9 12.6 -18.4 10.35 -17.35 8.2 -14.85 3.3 -9.0 -0.8 L-5.2 -3.1 -1.4 -5.4 3.1 -8.1 Q5.3 -9.3 6.0 -9.95 L7.8 -11.35 11.05 -13.6 15.6 -17.45 18.15 -19.7 20.75 -21.05 21.1 -21.7 22.35 -23.4 23.85 -24.9 M25.1 -22.35 L24.95 -23.25 Q24.75 -25.05 24.3 -25.15 24.7 -25.1 24.95 -23.5 L24.95 -23.45 25.1 -22.35 M-18.95 13.1 L-18.9 12.6 -18.95 13.1 -19.25 13.7 Q-19.8 14.8 -20.65 15.7 -19.75 17.0 -20.05 17.9 -20.25 18.55 -21.0 18.8 L-24.85 19.9 Q-29.4 21.0 -29.4 21.3 L-29.3 21.4 -25.85 21.75 -24.65 21.75 -26.1 21.6 -26.15 21.5 -25.9 21.35 -24.7 21.1 -19.85 20.05 -17.65 19.05 -18.4 16.7 -18.9 14.65 -18.95 13.1 M7.0 20.5 L7.3 22.05 7.0 20.5 6.65 18.45 6.15 16.45 6.1 16.35 5.9 15.75 5.1 13.45 5.0 12.3 5.0 11.95 Q5.05 10.55 5.6 9.15 6.1 7.85 6.65 3.55 L7.05 -0.45 6.65 3.55 Q6.1 7.85 5.6 9.15 5.05 10.55 5.0 11.95 L5.0 12.3 5.1 13.45 5.9 15.75 6.1 16.35 6.15 16.45 6.0 16.5 Q5.15 17.1 4.35 18.4 L3.7 19.55 6.1 20.05 Q6.7 20.15 7.0 20.5 M3.4 19.5 L3.7 19.55 3.4 19.5 Q2.05 19.35 -0.65 19.45 L0.0 19.45 3.4 19.5 M-3.25 15.5 L-3.9 17.85 -4.15 19.5 -0.9 19.45 -0.65 19.45 -0.9 19.45 -4.15 19.5 -3.9 17.85 -3.25 15.5 -2.95 14.1 Q-1.85 9.05 -2.85 6.4 -2.4 7.85 -2.5 9.85 L-2.85 13.55 -3.1 14.45 -3.25 15.5 M-9.7 5.15 L-9.05 4.65 Q-8.2 4.05 -7.35 3.8 -4.7 2.95 -3.2 5.65 L-2.85 6.4 -3.2 5.65 Q-4.7 2.95 -7.35 3.8 -8.2 4.05 -9.05 4.65 L-9.7 5.15 M16.55 -18.25 L11.1 -13.55 7.9 -11.35 6.95 -10.7 6.05 -9.9 Q5.55 -9.45 4.7 -8.95 L2.95 -7.9 Q0.2 -6.4 -1.35 -5.35 L-5.0 -3.15 -8.95 -0.75 Q-14.85 3.35 -17.3 8.25 -18.35 10.3 -18.8 12.6 -19.0 13.5 -18.8 14.6 -18.6 12.95 -17.8 10.95 L-16.15 7.5 -16.1 7.35 Q-14.8 4.8 -13.25 3.35 L-11.1 1.8 -9.9 1.05 -9.15 0.5 -6.3 -1.4 -3.1 -2.9 Q-0.45 -4.05 0.75 -4.8 L3.9 -7.25 5.65 -8.75 7.1 -9.85 8.1 -10.25 8.5 -10.0 8.75 -9.4 12.4 -13.15 16.25 -16.8 16.45 -17.0 18.65 -18.85 Q20.0 -19.75 21.1 -19.8 L21.2 -19.8 21.25 -19.8 Q21.4 -21.45 22.45 -23.45 L21.1 -21.6 20.8 -21.0 20.75 -20.95 18.15 -19.65 16.55 -18.25 M4.35 -4.7 Q3.6 -4.0 3.3 -3.25 L2.9 -1.65 Q3.0 -2.3 3.4 -3.2 L4.35 -4.7 M0.6 -1.65 L1.15 -2.75 2.05 -3.8 1.0 -2.85 0.6 -1.65 M2.1 -1.85 L3.0 -3.35 1.95 -1.95 Q1.65 -1.3 1.6 -0.25 L2.1 -1.85 M9.85 -2.15 L10.7 -3.25 9.7 -2.25 Q9.45 -1.8 9.35 -1.0 L9.85 -2.15 M25.55 -13.05 L25.0 -13.35 23.85 -13.95 23.85 -13.9 Q24.0 -13.35 22.45 -11.85 L22.4 -11.8 21.35 -10.45 20.45 -8.9 19.75 -7.7 Q18.1 -5.0 17.5 -3.05 L17.1 -1.4 16.45 0.95 15.5 3.2 15.0 4.0 15.1 4.05 13.85 5.5 12.6 7.15 11.7 9.0 10.9 11.1 10.8 12.6 Q13.95 9.9 15.25 8.05 L17.6 5.2 19.85 2.4 Q20.95 0.85 21.25 -0.6 21.85 -3.75 22.8 -6.45 24.1 -10.0 25.25 -10.5 L27.6 -11.55 27.95 -11.55 28.7 -11.5 Q30.85 -11.5 31.4 -12.45 L31.75 -13.05 31.0 -12.85 29.75 -12.6 28.95 -12.55 28.0 -12.5 27.6 -12.5 26.2 -12.75 25.55 -13.05 31.1 -14.4 25.55 -13.05 M9.7 -0.7 Q9.55 -0.15 9.7 0.6 9.6 0.05 9.8 -0.65 10.0 -1.4 10.35 -1.95 9.8 -1.3 9.7 -0.7 M29.05 -17.65 L29.05 -17.95 28.9 -18.6 28.7 -18.8 28.35 -19.05 28.5 -18.85 28.25 -18.8 28.35 -18.75 28.0 -18.65 28.05 -18.6 27.5 -18.3 27.15 -17.9 26.7 -17.55 27.4 -17.5 27.8 -17.35 27.9 -17.05 Q28.35 -16.45 29.05 -16.95 L29.05 -17.35 29.05 -17.65 M25.6 -15.55 L28.05 -15.2 30.5 -14.9 28.05 -15.2 25.6 -15.55 M30.7 -14.0 L28.0 -12.5 30.7 -14.0 M4.7 20.45 L5.2 20.65 Q5.85 21.2 5.55 22.85 L5.9 22.85 6.0 21.5 Q5.8 20.2 4.45 20.45 L4.7 20.45 M11.2 21.9 Q10.95 20.9 9.95 20.9 L10.5 21.3 Q11.05 21.9 10.95 22.85 L11.25 22.85 11.2 21.9 M-3.9 -0.85 L-4.6 0.3 -3.8 -0.75 -2.7 -1.6 Q-3.5 -1.3 -3.9 -0.85 M-17.7 11.4 L-18.1 12.15 -18.2 12.9 -18.3 13.4 -17.9 12.75 -17.95 13.5 -17.95 14.25 -17.7 14.05 -17.55 14.7 -17.4 15.55 -17.05 17.25 -17.15 14.85 Q-17.15 13.5 -16.8 12.9 L-16.95 13.1 -17.25 13.65 -16.5 11.3 -16.95 12.0 -17.35 12.7 -17.25 11.5 -17.55 12.1 -17.2 10.7 -17.7 11.4 M-12.95 24.6 Q-12.7 24.2 -12.9 23.9 L-14.2 24.0 -17.9 23.85 -21.1 23.7 -24.45 23.6 -27.25 23.7 -28.75 23.75 -32.2 23.3 -33.75 22.45 -33.65 23.05 Q-33.0 25.1 -22.4 25.1 L-17.15 25.0 -13.9 24.95 -13.3 24.95 -12.95 24.6" fill="#ffffff" fill-opacity="0.0" fill-rule="evenodd" stroke="none"/>
    <path d="M-18.95 13.1 L-18.9 14.65 -18.4 16.7 -17.65 19.05 -19.85 20.05 -24.7 21.1 -25.9 21.35 -26.15 21.5 -26.1 21.6 -24.65 21.75 -25.85 21.75 -29.3 21.4 -29.4 21.3 Q-29.4 21.0 -24.85 19.9 L-21.0 18.8 Q-20.25 18.55 -20.05 17.9 -19.75 17.0 -20.65 15.7 -19.8 14.8 -19.25 13.7 L-18.95 13.1 M3.4 19.5 L0.0 19.45 -0.65 19.45 Q2.05 19.35 3.4 19.5 M-3.25 15.5 L-3.1 14.45 -2.85 13.55 -2.5 9.85 Q-2.4 7.85 -2.85 6.4 -1.85 9.05 -2.95 14.1 L-3.25 15.5 M9.85 -2.15 L9.35 -1.0 Q9.45 -1.8 9.7 -2.25 L10.7 -3.25 9.85 -2.15 M2.1 -1.85 L1.6 -0.25 Q1.65 -1.3 1.95 -1.95 L3.0 -3.35 2.1 -1.85 M0.6 -1.65 L1.0 -2.85 2.05 -3.8 1.15 -2.75 0.6 -1.65 M4.35 -4.7 L3.4 -3.2 Q3.0 -2.3 2.9 -1.65 L3.3 -3.25 Q3.6 -4.0 4.35 -4.7 M15.1 4.05 L15.0 4.0 15.5 3.2 16.45 0.95 17.1 -1.4 17.5 -3.05 Q18.1 -5.0 19.75 -7.7 L20.45 -8.9 21.35 -10.45 22.4 -11.8 22.45 -11.85 Q24.0 -13.35 23.85 -13.9 L23.85 -13.95 25.0 -13.35 25.55 -13.05 26.2 -12.75 27.6 -12.5 28.0 -12.5 28.95 -12.55 29.75 -12.6 31.0 -12.85 31.75 -13.05 31.4 -12.45 Q30.85 -11.5 28.7 -11.5 L27.95 -11.55 27.6 -11.55 25.25 -10.5 Q24.1 -10.0 22.8 -6.45 21.85 -3.75 21.25 -0.6 20.95 0.85 19.85 2.4 L17.6 5.2 15.25 8.05 Q13.95 9.9 10.8 12.6 L10.9 11.1 11.7 9.0 12.6 7.15 13.85 5.5 15.1 4.05 M31.7 -15.2 L31.65 -15.05 30.4 -16.4 31.05 -16.0 31.75 -15.55 31.75 -15.45 31.65 -15.3 31.7 -15.2 M9.7 -0.7 Q9.8 -1.3 10.35 -1.95 10.0 -1.4 9.8 -0.65 9.6 0.05 9.7 0.6 9.55 -0.15 9.7 -0.7 M27.8 -17.35 L27.4 -17.5 26.7 -17.55 27.15 -17.9 27.5 -18.3 28.05 -18.6 28.0 -18.65 28.35 -18.75 28.25 -18.8 28.5 -18.85 28.35 -19.05 28.7 -18.8 28.9 -18.6 29.05 -17.95 29.05 -17.65 28.9 -18.05 Q28.55 -18.85 27.6 -17.7 L27.8 -17.35 M25.55 -13.05 L24.75 -12.8 25.55 -13.05 M28.0 -12.5 L26.15 -11.5 28.0 -12.5 M-17.7 11.4 L-17.2 10.7 -17.55 12.1 -17.25 11.5 -17.35 12.7 -16.95 12.0 -16.5 11.3 -17.25 13.65 -16.95 13.1 -16.8 12.9 Q-17.15 13.5 -17.15 14.85 L-17.05 17.25 -17.4 15.55 -17.55 14.7 -17.7 14.05 -17.95 14.25 -17.95 13.5 -17.9 12.75 -18.3 13.4 -18.2 12.9 -18.1 12.15 -17.7 11.4 M-3.9 -0.85 Q-3.5 -1.3 -2.7 -1.6 L-3.8 -0.75 -4.6 0.3 -3.9 -0.85 M-12.95 24.6 L-13.3 24.95 -13.9 24.95 -17.15 25.0 -22.4 25.1 Q-33.0 25.1 -33.65 23.05 L-33.75 22.45 -32.2 23.3 -28.75 23.75 -27.25 23.7 -24.45 23.6 -21.1 23.7 -17.9 23.85 -14.2 24.0 -12.9 23.9 Q-12.7 24.2 -12.95 24.6" fill="#000000" fill-opacity="0.2" fill-rule="evenodd" stroke="none"/>
    <path d="M23.85 -24.9 L24.15 -25.1 24.3 -25.15 Q24.75 -25.05 24.95 -23.25 L25.1 -22.35 25.1 -21.45 25.1 -22.35 24.95 -23.45 24.95 -23.5 25.1 -23.75 Q26.1 -25.05 26.2 -24.75 26.35 -24.35 25.4 -21.45 L25.1 -21.45 24.45 -22.0 24.3 -20.85 Q24.15 -20.95 24.1 -20.65 L24.05 -20.3 Q23.75 -20.3 23.7 -20.05 L23.65 -19.8 22.7 -18.65 Q22.6 -18.6 22.6 -20.6 22.6 -21.8 23.05 -23.15 23.4 -24.35 23.85 -24.9 M10.8 12.75 Q13.95 10.0 15.3 8.1 L15.75 7.5 15.4 8.6 Q14.55 11.45 14.45 12.1 14.25 13.4 14.2 15.45 14.1 18.1 14.45 18.5 L15.45 19.1 Q16.05 19.35 16.1 19.75 L16.25 21.85 15.4 21.85 15.35 20.7 Q15.1 19.5 14.15 19.55 L14.65 19.85 Q15.15 20.45 15.1 21.85 L12.95 21.85 12.95 21.65 Q12.9 20.4 11.35 20.3 10.65 16.3 10.7 15.25 L10.75 13.1 10.8 12.75" fill="#000000" fill-opacity="0.29803923" fill-rule="evenodd" stroke="none"/>
    <path d="M4.7 20.45 L4.45 20.45 Q5.8 20.2 6.0 21.5 L5.9 22.85 5.55 22.85 Q5.85 21.2 5.2 20.65 L4.7 20.45 M11.2 21.9 L11.25 22.85 10.95 22.85 Q11.05 21.9 10.5 21.3 L9.95 20.9 Q10.95 20.9 11.2 21.9" fill="#000000" fill-opacity="0.4" fill-rule="evenodd" stroke="none"/>
    <path d="M15.4 21.85 L15.1 21.85 Q15.15 20.45 14.65 19.85 L14.15 19.55 Q15.1 19.5 15.35 20.7 L15.4 21.85" fill="#000000" fill-opacity="0.49803922" fill-rule="evenodd" stroke="none"/>
    <path d="M16.55 -18.25 L18.15 -19.65 20.75 -20.95 20.8 -21.0 21.1 -21.6 22.45 -23.45 Q21.4 -21.45 21.25 -19.8 L21.2 -19.8 21.1 -19.8 Q20.0 -19.75 18.65 -18.85 L16.45 -17.0 16.25 -16.8 12.4 -13.15 8.75 -9.4 8.5 -10.0 8.1 -10.25 7.1 -9.85 5.65 -8.75 3.9 -7.25 0.75 -4.8 Q-0.45 -4.05 -3.1 -2.9 L-6.3 -1.4 -9.15 0.5 -9.9 1.05 -11.1 1.8 -13.25 3.35 Q-14.8 4.8 -16.1 7.35 L-16.15 7.5 -17.8 10.95 Q-18.6 12.95 -18.8 14.6 -19.0 13.5 -18.8 12.6 -18.35 10.3 -17.3 8.25 -14.85 3.35 -8.95 -0.75 L-5.0 -3.15 -1.35 -5.35 Q0.2 -6.4 2.95 -7.9 L4.7 -8.95 Q5.55 -9.45 6.05 -9.9 L6.95 -10.7 7.9 -11.35 11.1 -13.55 16.55 -18.25" fill="#ffffff" fill-opacity="0.4" fill-rule="evenodd" stroke="none"/>
    <path d="M32.55 -15.65 L32.45 -15.05 32.3 -14.55 31.7 -15.2 31.65 -15.3 31.75 -15.45 32.05 -15.6 32.55 -15.65 M28.8 -18.1 L28.95 -17.55 28.8 -17.0 28.55 -16.8 28.25 -17.0 28.1 -17.5 28.3 -17.7 28.15 -17.85 28.25 -18.1 Q28.35 -18.35 28.55 -18.35 L28.8 -18.1" fill="#000000" fill-rule="evenodd" stroke="none"/>
    <path d="M27.8 -17.35 L27.6 -17.7 Q28.55 -18.85 28.9 -18.05 L29.05 -17.65 29.05 -17.35 29.05 -16.95 Q28.35 -16.45 27.9 -17.05 L27.8 -17.35 M28.8 -18.1 L28.55 -18.35 Q28.35 -18.35 28.25 -18.1 L28.15 -17.85 28.3 -17.7 28.1 -17.5 28.25 -17.0 28.55 -16.8 28.8 -17.0 28.95 -17.55 28.8 -18.1" fill="#ffffff" fill-rule="evenodd" stroke="none"/>
    <path d="M24.3 -25.15 L24.15 -25.1 23.85 -24.9 Q23.4 -24.35 23.05 -23.15 22.6 -21.8 22.6 -20.6 22.6 -18.6 22.7 -18.65 M25.1 -21.45 L25.1 -22.35 24.95 -23.25 Q24.75 -25.05 24.3 -25.15 24.7 -25.1 24.95 -23.5 L25.1 -23.75 Q26.1 -25.05 26.2 -24.75 26.35 -24.35 25.4 -21.45 26.1 -21.45 27.1 -20.85 L28.0 -20.3 30.0 -18.9 30.15 -18.15 Q30.2 -17.4 30.65 -17.05 L32.55 -15.65 32.45 -15.05 33.85 -15.6 M23.85 -24.9 L22.35 -23.4 21.1 -21.7 20.75 -21.05 18.15 -19.7 15.6 -17.45 11.05 -13.6 7.8 -11.35 6.0 -9.95 Q5.3 -9.3 3.1 -8.1 L-1.4 -5.4 -5.2 -3.1 -9.0 -0.8 Q-14.85 3.3 -17.35 8.2 -18.4 10.35 -18.9 12.6 L-18.95 13.1 M-17.6 19.1 L-17.2 19.95 Q-16.2 21.7 -14.6 22.05 L-11.1 22.55 -7.5 22.9 -4.3 23.05 -1.05 22.9 Q2.35 22.7 6.8 23.0 L7.3 22.05 7.0 20.5 Q6.7 20.15 6.1 20.05 L3.7 19.55 3.4 19.5 M25.55 -13.05 L31.1 -14.4 M31.7 -15.2 L31.65 -15.3 31.75 -15.45 32.05 -15.6 32.55 -15.65 M32.45 -15.05 L32.3 -14.55 31.7 -15.2 M32.15 -13.9 L32.3 -14.45 32.3 -14.5 32.45 -15.05 M15.75 7.5 L18.85 3.8 Q20.9 1.35 21.3 -0.6 21.95 -3.8 22.9 -6.45 24.15 -9.95 25.3 -10.45 L27.65 -11.5 29.25 -11.45 Q30.95 -11.6 31.45 -12.4 L32.05 -13.6 M32.15 -13.9 L33.45 -13.35 M15.75 7.5 L15.4 8.6 Q14.55 11.45 14.45 12.1 14.25 13.4 14.2 15.45 14.1 18.1 14.45 18.5 L15.45 19.1 Q16.05 19.35 16.1 19.75 L16.25 21.85 15.4 21.85 15.1 21.85 12.95 21.85 12.7 22.9 7.45 22.9 7.3 22.05 M32.3 -14.45 L32.95 -14.4 33.85 -14.3 M24.95 -23.5 L24.95 -23.45 25.1 -22.35 M28.0 -12.5 L30.7 -14.0 M30.5 -14.9 L28.05 -15.2 25.6 -15.55 M24.75 -12.8 L25.55 -13.05 M26.15 -11.5 L28.0 -12.5 M6.15 16.45 L6.65 18.45 7.0 20.5 M3.7 19.55 L4.35 18.4 Q5.15 17.1 6.0 16.5 L6.15 16.45 M12.95 21.85 L12.95 21.65 Q12.9 20.4 11.35 20.3 M-18.9 12.6 Q-19.15 13.6 -19.95 14.75 -21.6 17.05 -24.45 17.7 -29.15 18.8 -31.1 19.7 -34.3 21.15 -33.7 23.05 -33.15 24.9 -24.9 25.1 L-13.3 25.05 Q-12.65 24.6 -12.75 24.05 -12.95 22.95 -16.45 22.35 L-23.05 21.7 -26.05 21.55 Q-26.45 21.35 -21.8 20.65 -18.95 20.0 -17.6 19.1" fill="none" stroke="#000000" stroke-linecap="butt" stroke-linejoin="miter-clip" stroke-miterlimit="10.0" stroke-width="1.0"/>
    <path d="M22.7 -18.65 L23.65 -19.8 23.7 -20.05 Q23.75 -20.3 24.05 -20.3 L24.1 -20.65 Q24.15 -20.95 24.3 -20.85 L24.45 -22.0 25.1 -21.45 25.4 -21.45 M-18.95 13.1 L-18.9 14.65 -18.4 16.7 -17.65 19.05 -17.6 19.1 M-0.65 19.45 L-0.9 19.45 -4.15 19.5 -3.9 17.85 -3.25 15.5 -2.95 14.1 Q-1.85 9.05 -2.85 6.4 L-3.2 5.65 Q-4.7 2.95 -7.35 3.8 -8.2 4.05 -9.05 4.65 L-9.7 5.15 M32.05 -13.6 L31.85 -13.4 31.15 -13.2 30.4 -13.25 M32.05 -13.6 L32.15 -13.9 M10.8 12.6 L10.8 12.75 Q13.95 10.0 15.3 8.1 L15.75 7.5 M27.8 -17.35 L27.6 -17.7 Q28.55 -18.85 28.9 -18.05 L29.05 -17.65 29.05 -17.35 29.05 -16.95 Q28.35 -16.45 27.9 -17.05 L27.8 -17.35 M15.1 4.05 L13.85 5.5 12.6 7.15 11.7 9.0 10.9 11.1 10.8 12.6 M7.05 -0.45 L6.65 3.55 Q6.1 7.85 5.6 9.15 5.05 10.55 5.0 11.95 L5.0 12.3 5.1 13.45 5.9 15.75 6.1 16.35 6.15 16.45 M11.35 20.3 Q10.65 16.3 10.7 15.25 L10.75 13.1 10.8 12.75 M3.4 19.5 Q2.05 19.35 -0.65 19.45" fill="none" stroke="#000000" stroke-linecap="butt" stroke-linejoin="miter-clip" stroke-miterlimit="10.0" stroke-opacity="0.6" stroke-width="1.0"/>
  </g>
</svg>
