<?xml version="1.0" encoding="UTF-8" standalone="no"?>
<svg xmlns:xlink="http://www.w3.org/1999/xlink" height="270.85px" width="355.8px" xmlns="http://www.w3.org/2000/svg">
  <g transform="matrix(1.0, 0.0, 0.0, 1.0, 177.9, 135.45)">
    <path d="M99.1 -124.8 Q107.9 -122.6 112.05 -116.7 114.1 -113.75 114.4 -111.25 L135.2 -17.05 Q149.65 -11.35 159.65 8.45 164.7 18.35 166.8 27.15 L166.8 71.3 176.2 78.8 177.25 94.3 Q177.9 112.5 175.9 126.15 L162.15 134.9 -162.1 134.9 -175.9 126.15 Q-177.9 112.5 -177.25 94.3 L-176.2 78.8 -166.8 71.3 -166.8 27.15 Q-164.65 18.35 -159.65 8.45 -149.6 -11.35 -135.2 -17.05 L-114.4 -111.25 Q-114.05 -113.75 -112.05 -116.7 -107.9 -122.6 -99.1 -124.8 -86.85 -127.85 -56.9 -131.4 -23.2 -135.35 -4.85 -134.9 L4.85 -134.9 Q23.2 -135.35 56.95 -131.4 86.85 -127.85 99.1 -124.8 M96.8 -100.15 Q93.15 -105.8 86.35 -106.35 L2.5 -108.55 2.5 -108.7 -2.4 -108.7 -2.35 -108.55 -86.2 -106.35 Q-93.0 -105.8 -96.7 -100.15 -98.55 -97.35 -99.05 -94.65 L-101.1 -73.15 Q-103.15 -50.4 -102.9 -44.25 -102.65 -38.15 -97.15 -35.45 -94.35 -34.1 -91.65 -33.95 L0.05 -38.6 91.8 -33.95 Q94.5 -34.1 97.3 -35.45 102.8 -38.15 103.05 -44.25 103.3 -50.4 101.25 -73.15 L99.15 -94.65 Q98.65 -97.35 96.8 -100.15" fill="#ffffff" fill-opacity="0.0" fill-rule="evenodd" stroke="none"/>
    <path d="M99.1 -124.8 Q86.85 -127.85 56.95 -131.4 23.2 -135.35 4.85 -134.9 L-4.85 -134.9 Q-23.2 -135.35 -56.9 -131.4 -86.85 -127.85 -99.1 -124.8 -107.9 -122.6 -112.05 -116.7 -114.05 -113.75 -114.4 -111.25 L-135.2 -17.05 Q-149.6 -11.35 -159.65 8.45 -164.65 18.35 -166.8 27.15 L-166.8 71.3 -176.2 78.8 -177.25 94.3 Q-177.9 112.5 -175.9 126.15 L-162.1 134.9 162.15 134.9 175.9 126.15 Q177.9 112.5 177.25 94.3 L176.2 78.8 166.8 71.3 166.8 27.15 Q164.7 18.35 159.65 8.45 149.65 -11.35 135.2 -17.05 L114.4 -111.25 Q114.1 -113.75 112.05 -116.7 107.9 -122.6 99.1 -124.8" fill="none" stroke="#000000" stroke-linecap="butt" stroke-linejoin="miter-clip" stroke-miterlimit="10.0" stroke-width="1.0"/>
    <path d="M96.8 -100.15 Q98.65 -97.35 99.15 -94.65 L101.25 -73.15 Q103.3 -50.4 103.05 -44.25 102.8 -38.15 97.3 -35.45 94.5 -34.1 91.8 -33.95 L0.05 -38.6 -91.65 -33.95 Q-94.35 -34.1 -97.15 -35.45 -102.65 -38.15 -102.9 -44.25 -103.15 -50.4 -101.1 -73.15 L-99.05 -94.65 Q-98.55 -97.35 -96.7 -100.15 -93.0 -105.8 -86.2 -106.35 L-2.35 -108.55 -2.4 -108.7 2.5 -108.7 2.5 -108.55 86.35 -106.35 Q93.15 -105.8 96.8 -100.15" fill="none" stroke="#000000" stroke-linecap="butt" stroke-linejoin="miter-clip" stroke-miterlimit="10.0" stroke-opacity="0.6" stroke-width="1.0"/>
    <path d="M-55.65 21.25 L51.45 21.25 51.45 49.35 -55.65 49.35 -55.65 21.25" fill="#000000" fill-opacity="0.2" fill-rule="evenodd" stroke="none"/>
    <path d="M-55.65 21.25 L51.45 21.25 51.45 49.35 -55.65 49.35 -55.65 21.25 Z" fill="none" stroke="#000000" stroke-linecap="butt" stroke-linejoin="miter-clip" stroke-miterlimit="10.0" stroke-width="1.0"/>
    <path d="M-104.3 -117.2 Q-88.0 -125.25 -37.45 -126.75 -53.55 -125.15 -70.7 -122.25 -105.05 -116.35 -110.45 -109.45 -110.95 -110.4 -110.45 -111.85 -109.4 -114.75 -104.3 -117.2" fill="#ffffff" fill-opacity="0.6" fill-rule="evenodd" stroke="none"/>
    <path d="M88.6 -108.5 Q95.8 -107.9 99.7 -101.95 101.7 -99.0 102.2 -96.15 L104.4 -73.25 Q106.6 -49.05 106.35 -42.55 106.05 -36.05 100.2 -33.15 97.25 -31.75 94.35 -31.6 L0.05 -36.4 -94.25 -31.6 Q-97.1 -31.75 -100.1 -33.15 -105.95 -36.05 -106.2 -42.55 -106.45 -49.05 -104.25 -73.25 L-102.05 -96.15 Q-101.55 -99.0 -99.6 -101.95 -95.7 -107.9 -88.45 -108.5 L0.05 -110.85 88.6 -108.5 M96.8 -100.15 Q93.15 -105.8 86.35 -106.35 L2.5 -108.55 2.5 -108.7 -2.4 -108.7 -2.35 -108.55 -86.2 -106.35 Q-93.0 -105.8 -96.7 -100.15 -98.55 -97.35 -99.05 -94.65 L-101.1 -73.15 Q-103.15 -50.4 -102.9 -44.25 -102.65 -38.15 -97.15 -35.45 -94.35 -34.1 -91.65 -33.95 L0.05 -38.6 91.8 -33.95 Q94.5 -34.1 97.3 -35.45 102.8 -38.15 103.05 -44.25 103.3 -50.4 101.25 -73.15 L99.15 -94.65 Q98.65 -97.35 96.8 -100.15" fill="#ffffff" fill-opacity="0.0" fill-rule="evenodd" stroke="none"/>
    <path d="M88.6 -108.5 L0.05 -110.85 -88.45 -108.5 Q-95.7 -107.9 -99.6 -101.95 -101.55 -99.0 -102.05 -96.15 L-104.25 -73.25 Q-106.45 -49.05 -106.2 -42.55 -105.95 -36.05 -100.1 -33.15 -97.1 -31.75 -94.25 -31.6 L0.05 -36.4 94.35 -31.6 Q97.25 -31.75 100.2 -33.15 106.05 -36.05 106.35 -42.55 106.6 -49.05 104.4 -73.25 L102.2 -96.15 Q101.7 -99.0 99.7 -101.95 95.8 -107.9 88.6 -108.5" fill="none" stroke="#000000" stroke-linecap="butt" stroke-linejoin="miter-clip" stroke-miterlimit="10.0" stroke-width="1.0"/>
    <path d="M96.8 -100.15 Q98.65 -97.35 99.15 -94.65 L101.25 -73.15 Q103.3 -50.4 103.05 -44.25 102.8 -38.15 97.3 -35.45 94.5 -34.1 91.8 -33.95 L0.05 -38.6 -91.65 -33.95 Q-94.35 -34.1 -97.15 -35.45 -102.65 -38.15 -102.9 -44.25 -103.15 -50.4 -101.1 -73.15 L-99.05 -94.65 Q-98.55 -97.35 -96.7 -100.15 -93.0 -105.8 -86.2 -106.35 L-2.35 -108.55 -2.4 -108.7 2.5 -108.7 2.5 -108.55 86.35 -106.35 Q93.15 -105.8 96.8 -100.15" fill="none" stroke="#000000" stroke-linecap="butt" stroke-linejoin="miter-clip" stroke-miterlimit="10.0" stroke-opacity="0.4" stroke-width="1.0"/>
    <path d="M-175.9 126.15 L175.9 126.15" fill="none" stroke="#000000" stroke-linecap="butt" stroke-linejoin="miter-clip" stroke-miterlimit="10.0" stroke-opacity="0.6" stroke-width="1.0"/>
    <path d="M-135.2 -17.05 L-125.45 -14.5 Q-114.25 -12.2 -106.95 -13.3 L-64.1 -16.3 3.75 -18.7" fill="none" stroke="#000000" stroke-linecap="butt" stroke-linejoin="miter-clip" stroke-miterlimit="10.0" stroke-opacity="0.6" stroke-width="1.0"/>
    <path d="M136.3 -17.05 Q132.2 -15.65 126.65 -14.5 115.45 -12.2 108.15 -13.3 L65.3 -16.3 -2.55 -18.7" fill="none" stroke="#000000" stroke-linecap="butt" stroke-linejoin="miter-clip" stroke-miterlimit="10.0" stroke-opacity="0.6" stroke-width="1.0"/>
    <path d="M-101.05 -14.0 L-102.95 -11.85 Q-105.15 -9.1 -106.9 -5.95 -112.6 4.2 -111.45 14.85 L-111.45 84.8 9.15 84.8" fill="none" stroke="#000000" stroke-linecap="butt" stroke-linejoin="miter-clip" stroke-miterlimit="10.0" stroke-opacity="0.6" stroke-width="1.0"/>
    <path d="M99.7 -14.2 L101.65 -12.05 Q103.95 -9.3 105.85 -6.05 111.75 4.2 110.6 14.85 L110.6 84.8 -10.0 84.8" fill="none" stroke="#000000" stroke-linecap="butt" stroke-linejoin="miter-clip" stroke-miterlimit="10.0" stroke-opacity="0.6" stroke-width="1.0"/>
    <path d="M-176.2 78.8 L-160.6 81.7 Q-144.65 85.4 -142.95 89.3 -141.25 93.25 -137.9 98.45 L-134.85 102.8 0.2 102.8" fill="none" stroke="#000000" stroke-linecap="butt" stroke-linejoin="miter-clip" stroke-miterlimit="4.0" stroke-opacity="0.6" stroke-width="1.0"/>
    <path d="M176.2 78.8 Q167.55 79.85 158.55 81.7 140.5 85.4 138.8 89.3 137.1 93.25 133.75 98.45 L130.7 102.8 0.2 102.8" fill="none" stroke="#000000" stroke-linecap="butt" stroke-linejoin="miter-clip" stroke-miterlimit="4.0" stroke-opacity="0.6" stroke-width="1.0"/>
    <path d="M-118.1 -15.8 Q-121.45 -15.35 -123.15 -18.7 L-111.45 -93.4 -115.05 -16.9 Q-116.4 -16.0 -118.1 -15.8" fill="#ffffff" fill-opacity="0.6" fill-rule="evenodd" stroke="none"/>
    <path d="M-154.1 6.25 Q-145.75 -8.15 -133.95 -11.5 L-160.05 20.0 Q-158.25 13.45 -154.1 6.25" fill="#ffffff" fill-opacity="0.6" fill-rule="evenodd" stroke="none"/>
    <path d="M-134.85 108.2 L134.25 107.3 6.45 111.5 Q-123.6 114.4 -134.85 108.2" fill="#ffffff" fill-opacity="0.6" fill-rule="evenodd" stroke="none"/>
    <path d="M-151.05 94.7 L-170.85 85.7 -160.5 86.75 Q-149.7 88.3 -147.45 91.1 -143.85 95.6 -134.85 108.2 L-151.05 94.7" fill="#ffffff" fill-opacity="0.6" fill-rule="evenodd" stroke="none"/>
  </g>
</svg>
