<?xml version="1.0" encoding="UTF-8" standalone="no"?>
<svg xmlns:xlink="http://www.w3.org/1999/xlink" height="21.9px" width="91.05px" xmlns="http://www.w3.org/2000/svg">
  <g transform="matrix(1.0, 0.0, 0.0, 1.0, 45.5, 10.85)">
    <path d="M-40.75 -6.6 L-42.75 -6.6 Q-43.7 -6.6 -44.3 -7.15 -45.0 -7.7 -45.0 -8.5 -45.0 -9.25 -44.3 -9.8 -43.7 -10.35 -42.75 -10.35 L42.8 -10.35 Q43.75 -10.35 44.4 -9.8 45.05 -9.25 45.05 -8.5 45.05 -7.7 44.4 -7.15 43.75 -6.6 42.8 -6.6 L40.85 -6.6 37.65 -0.5 Q33.6 7.6 33.2 10.35 L-33.1 10.35 Q-33.55 7.6 -37.6 -0.5 L-40.75 -6.6 -40.5 -6.6 -40.75 -6.6 M40.6 -6.6 L-40.5 -6.6 -38.8 -3.35 -6.85 -3.45 Q16.05 -3.45 16.55 -3.05 17.4 -2.4 17.0 1.6 16.5 6.15 14.55 10.2 L33.05 10.2 Q33.55 7.5 37.0 0.35 L40.6 -6.6 40.85 -6.6 40.6 -6.6" fill="#ffffff" fill-opacity="0.0" fill-rule="evenodd" stroke="none"/>
    <path d="M-40.5 -6.6 L40.6 -6.6 37.0 0.35 Q33.55 7.5 33.05 10.2 L14.55 10.2 Q16.5 6.15 17.0 1.6 17.4 -2.4 16.55 -3.05 16.05 -3.45 -6.85 -3.45 L-38.8 -3.35 -40.5 -6.6" fill="#000000" fill-opacity="0.2" fill-rule="evenodd" stroke="none"/>
    <path d="M-40.5 -6.6 L40.6 -6.6" fill="none" stroke="#000000" stroke-linecap="butt" stroke-linejoin="miter-clip" stroke-miterlimit="4.0" stroke-opacity="0.6" stroke-width="1.0"/>
    <path d="M-40.75 -6.6 L-42.75 -6.6 Q-43.7 -6.6 -44.3 -7.15 -45.0 -7.7 -45.0 -8.5 -45.0 -9.25 -44.3 -9.8 -43.7 -10.35 -42.75 -10.35 L42.8 -10.35 Q43.75 -10.35 44.4 -9.8 45.05 -9.25 45.05 -8.5 45.05 -7.7 44.4 -7.15 43.75 -6.6 42.8 -6.6 L40.85 -6.6 40.6 -6.6" fill="none" stroke="#000000" stroke-linecap="butt" stroke-linejoin="miter-clip" stroke-miterlimit="4.0" stroke-width="1.0"/>
    <path d="M40.85 -6.6 L37.65 -0.5 Q33.6 7.6 33.2 10.35 L-33.1 10.35 Q-33.55 7.6 -37.6 -0.5 L-40.75 -6.6 -40.5 -6.6" fill="none" stroke="#000000" stroke-linecap="round" stroke-linejoin="miter-clip" stroke-miterlimit="4.0" stroke-width="1.0"/>
  </g>
</svg>
