<?xml version="1.0" encoding="UTF-8" standalone="no"?>
<svg xmlns:xlink="http://www.w3.org/1999/xlink" height="276.35px" width="785.95px" xmlns="http://www.w3.org/2000/svg">
  <g transform="matrix(1.0, 0.0, 0.0, 1.0, 392.95, 138.2)">
    <path d="M200.75 -124.0 L163.3 -126.05 137.5 -126.85 Q96.15 -127.9 19.85 -127.9 L15.55 -127.85 Q-22.6 -127.3 -58.4 -116.85 -70.25 -113.45 -80.4 -109.3 L-88.2 -105.9 -80.4 -109.3 Q-70.25 -113.45 -58.4 -116.85 -22.6 -127.3 15.55 -127.85 L19.85 -127.9 Q96.15 -127.9 137.5 -126.85 L163.3 -126.05 200.75 -124.0 206.1 -123.45 Q244.45 -119.15 261.55 -114.45 238.25 -130.05 128.3 -131.45 93.9 -131.85 54.95 -130.8 L30.9 -129.9 Q128.6 -131.6 200.75 -124.0 M15.55 -127.85 L13.15 -113.2 12.55 -113.2 Q-41.65 -113.6 -76.4 -97.6 -87.3 -92.6 -94.95 -86.55 -98.75 -83.5 -100.35 -81.45 -98.75 -83.5 -94.95 -86.55 -87.3 -92.6 -76.4 -97.6 -41.65 -113.6 12.55 -113.2 L13.15 -113.2 15.55 -127.85 M-56.3 -127.25 Q-30.85 -133.15 1.85 -135.15 L35.8 -136.15 Q77.2 -137.05 114.25 -136.6 232.8 -135.25 263.7 -121.15 L269.9 -117.85 Q277.95 -112.75 286.95 -103.9 315.8 -75.5 343.65 -19.85 344.65 -17.5 339.45 -15.2 331.15 -11.5 309.75 -10.8 306.1 -27.7 294.05 -54.1 282.05 -80.35 271.9 -93.7 263.55 -104.75 213.5 -110.05 L179.95 -112.65 165.05 -113.2 163.3 -126.05 165.05 -113.2 179.95 -112.65 213.5 -110.05 Q263.55 -104.75 271.9 -93.7 282.05 -80.35 294.05 -54.1 306.1 -27.7 309.75 -10.8 331.15 -11.5 339.45 -15.2 344.65 -17.5 343.65 -19.85 L348.4 -17.35 Q354.15 -13.35 359.45 -5.85 376.4 18.1 382.15 68.1 L392.5 75.4 391.65 91.8 Q390.25 109.95 387.6 118.7 384.95 127.5 348.45 130.1 L323.65 131.0 312.5 130.95 Q312.85 114.5 306.45 96.15 293.6 59.55 260.05 50.35 240.55 45.05 222.7 50.35 205.95 55.3 193.2 68.65 180.8 81.55 174.7 99.55 170.85 111.05 170.1 123.0 L160.25 123.0 Q158.7 105.1 168.45 84.8 171.55 78.45 175.35 72.65 L178.55 68.1 178.55 1.55 Q179.0 -0.25 178.05 -10.95 L298.2 -10.65 Q304.4 -10.65 309.75 -10.8 304.4 -10.65 298.2 -10.65 L178.05 -10.95 Q179.0 -0.25 178.55 1.55 L178.55 68.1 175.35 72.65 Q171.55 78.45 168.45 84.8 158.7 105.1 160.25 123.0 L170.1 123.0 170.05 123.7 Q169.6 129.65 170.25 136.95 L170.3 137.65 -191.3 137.65 -200.8 137.65 Q-200.55 133.2 -200.85 126.55 L-200.9 125.3 Q-201.65 110.3 -205.15 97.25 -216.3 55.45 -250.25 48.55 -291.55 40.2 -316.35 66.05 -327.4 77.6 -333.65 94.75 -339.6 111.25 -340.55 130.95 L-367.45 130.95 -392.45 115.05 -386.95 66.25 -379.65 63.8 -360.75 -5.8 -346.8 -8.85 Q-329.0 -12.5 -310.0 -15.55 -249.15 -25.45 -198.6 -25.9 L-180.65 -22.85 -142.55 -60.25 Q-103.2 -98.4 -96.7 -102.25 L-103.95 -107.8 Q-99.45 -111.25 -97.05 -112.6 L-90.25 -116.1 Q-77.7 -122.0 -59.95 -126.4 L-56.3 -127.25 -59.95 -126.4 Q-77.7 -122.0 -90.25 -116.1 -88.25 -120.05 -88.7 -124.3 -89.35 -129.9 -93.05 -131.55 -94.4 -132.1 -98.85 -131.65 L-105.9 -130.85 Q-109.1 -130.5 -108.3 -131.25 -107.4 -132.2 -100.4 -135.15 L-98.25 -136.0 Q-85.9 -140.1 -69.35 -134.4 -61.05 -131.55 -55.25 -127.85 L-56.3 -127.25 M13.15 -113.2 L165.05 -113.2 171.6 -65.0 Q176.5 -27.45 178.05 -10.95 L-4.0 -11.4 -3.95 -12.5 Q-0.55 -31.25 7.85 -81.4 L13.15 -113.2 7.85 -81.4 Q-0.55 -31.25 -3.95 -12.5 L-4.0 -11.4 178.05 -10.95 Q176.5 -27.45 171.6 -65.0 L165.05 -113.2 13.15 -113.2 M-331.0 62.3 L-332.9 62.35 -379.65 63.8 -332.9 62.35 -331.0 62.3 M23.5 -108.3 L11.0 -18.0 163.3 -18.0 153.55 -107.7 23.5 -108.3 M223.55 -102.3 Q203.2 -105.5 175.15 -106.8 L186.2 -18.0 232.7 -20.45 Q280.1 -23.5 285.05 -26.55 287.85 -28.25 284.6 -38.7 281.7 -48.0 275.05 -61.0 268.6 -73.7 262.0 -83.4 254.8 -93.75 250.85 -95.55 242.15 -99.4 223.55 -102.3 M381.2 68.1 L301.2 72.95 302.0 73.6 Q303.1 74.4 305.05 75.0 311.15 77.0 322.6 76.6 340.9 76.0 391.6 75.4 340.9 76.0 322.6 76.6 311.15 77.0 305.05 75.0 303.1 74.4 302.0 73.6 L301.2 72.95 381.2 68.1 M370.2 66.25 Q370.5 61.5 370.05 54.4 369.1 40.25 365.35 28.4 361.2 15.55 351.3 8.7 344.1 3.75 331.75 0.9 323.35 -1.0 250.4 -2.05 L179.2 -2.75 250.4 -2.05 Q323.35 -1.0 331.75 0.9 344.1 3.75 351.3 8.7 361.2 15.55 365.35 28.4 369.1 40.25 370.05 54.4 370.5 61.5 370.2 66.25 M-8.25 70.5 L170.0 70.5 170.0 60.1 -8.05 60.1 -193.2 60.1 -193.2 70.5 -8.25 70.5 Q-7.85 73.15 -6.2 99.6 L-4.7 123.0 160.25 123.0 -4.7 123.0 -6.2 99.6 Q-7.85 73.15 -8.25 70.5 M-348.8 5.8 Q-354.9 11.95 -362.55 35.4 -366.35 47.15 -368.95 57.7 -365.55 45.9 -355.0 26.2 L-345.15 8.85 Q-314.65 -2.2 -240.8 -2.95 -203.85 -3.35 -173.05 -1.55 -230.65 -9.15 -295.5 -2.45 -315.75 -0.3 -334.3 2.95 L-348.8 5.8 Q-326.3 -2.55 -253.8 -8.05 L-185.85 -11.9 -4.0 -11.4 Q-7.3 41.15 -8.05 60.1 -7.3 41.15 -4.0 -11.4 L-185.85 -11.9 -253.8 -8.05 Q-326.3 -2.55 -348.8 5.8 M-100.35 -81.45 Q-107.35 -76.2 -113.25 -69.9 L-151.8 -28.45 Q-156.3 -23.15 -156.8 -20.7 -157.35 -18.45 -154.7 -16.8 L-20.45 -16.8 -0.3 -105.9 Q-18.3 -107.85 -41.4 -104.35 -77.0 -98.95 -100.35 -81.45 M-4.7 123.0 L-191.4 123.0 Q-192.65 92.25 -202.75 71.35 -212.65 50.7 -230.6 40.55 -243.35 33.25 -258.95 31.95 -263.75 31.5 -268.35 31.75 -263.75 31.5 -258.95 31.95 -243.35 33.25 -230.6 40.55 -212.65 50.7 -202.75 71.35 -192.65 92.25 -191.4 123.0 L-4.7 123.0 -4.55 125.45 -4.7 123.0 M-268.35 31.75 L-271.9 32.05 -268.35 31.75 M-200.85 123.0 L-200.85 126.55 -200.85 123.0 -191.4 123.0 Q-191.1 130.05 -191.3 137.65 -191.1 130.05 -191.4 123.0 L-200.85 123.0 M-341.0 115.05 L-392.45 115.05 -341.0 115.05 M-332.9 62.35 L-362.95 64.45 -386.95 66.25 -362.95 64.45 -332.9 62.35" fill="#ffffff" fill-opacity="0.0" fill-rule="evenodd" stroke="none"/>
    <path d="M312.5 130.95 L290.8 119.95 287.05 120.4 Q287.65 116.75 287.65 113.1 287.65 104.2 284.2 95.9 280.8 87.6 274.5 81.3 268.3 75.1 259.95 71.45 250.9 67.5 242.7 68.15 L236.15 68.6 Q232.3 69.0 229.8 70.0 221.05 73.45 218.8 74.7 214.9 76.8 209.35 81.95 204.5 86.35 201.45 92.1 199.85 95.15 196.3 104.0 193.45 111.35 194.4 120.1 L195.0 126.1 Q195.45 130.05 196.1 132.7 L170.3 137.65 170.25 136.95 Q169.6 129.65 170.05 123.7 L170.1 123.0 Q170.85 111.05 174.7 99.55 180.8 81.55 193.2 68.65 205.95 55.3 222.7 50.35 240.55 45.05 260.05 50.35 293.6 59.55 306.45 96.15 312.85 114.5 312.5 130.95 M-200.8 137.65 L-220.7 133.25 Q-217.95 126.15 -217.45 119.05 -216.9 111.15 -219.35 105.25 -223.7 94.55 -225.8 90.65 -229.6 83.6 -235.35 77.8 -243.0 70.15 -253.65 65.95 -264.5 61.75 -275.15 62.45 L-288.35 64.25 Q-293.6 65.0 -299.55 69.05 L-309.15 76.65 Q-312.15 79.0 -315.25 83.1 L-320.25 90.5 Q-324.7 97.35 -327.1 106.65 -329.3 114.95 -329.6 124.05 L-329.55 127.25 -340.55 130.95 Q-339.6 111.25 -333.65 94.75 -327.4 77.6 -316.35 66.05 -291.55 40.2 -250.25 48.55 -216.3 55.45 -205.15 97.25 -201.65 110.3 -200.9 125.3 L-200.85 126.55 Q-200.55 133.2 -200.8 137.65 M170.05 123.7 L170.1 123.0 170.05 123.7" fill="#000000" fill-opacity="0.4" fill-rule="evenodd" stroke="none"/>
    <path d="M200.75 -124.0 Q128.6 -131.6 30.9 -129.9 L54.95 -130.8 Q93.9 -131.85 128.3 -131.45 238.25 -130.05 261.55 -114.45 244.45 -119.15 206.1 -123.45 L200.75 -124.0 M-348.8 5.8 L-334.3 2.95 Q-315.75 -0.3 -295.5 -2.45 -230.65 -9.15 -173.05 -1.55 -203.85 -3.35 -240.8 -2.95 -314.65 -2.2 -345.15 8.85 L-355.0 26.2 Q-365.55 45.9 -368.95 57.7 -366.35 47.15 -362.55 35.4 -354.9 11.95 -348.8 5.8" fill="#ffffff" fill-opacity="0.6" fill-rule="evenodd" stroke="none"/>
    <path d="M-8.25 70.5 L-193.2 70.5 -193.2 60.1 -8.05 60.1 170.0 60.1 170.0 70.5 -8.25 70.5" fill="#000000" fill-opacity="0.2" fill-rule="evenodd" stroke="none"/>
    <path d="M343.65 -19.85 Q315.8 -75.5 286.95 -103.9 277.95 -112.75 269.9 -117.85 L263.7 -121.15 Q232.8 -135.25 114.25 -136.6 77.2 -137.05 35.8 -136.15 L1.85 -135.15 Q-30.85 -133.15 -56.3 -127.25 L-59.95 -126.4 Q-77.7 -122.0 -90.25 -116.1 L-97.05 -112.6 Q-99.45 -111.25 -103.95 -107.8 M-198.6 -25.9 Q-249.15 -25.45 -310.0 -15.55 -329.0 -12.5 -346.8 -8.85 L-360.75 -5.8 -379.65 63.8 -386.95 66.25 -392.45 115.05 -367.45 130.95 -340.55 130.95 -329.55 127.25 -329.6 124.05 Q-329.3 114.95 -327.1 106.65 -324.7 97.35 -320.25 90.5 L-315.25 83.1 Q-312.15 79.0 -309.15 76.65 L-299.55 69.05 Q-293.6 65.0 -288.35 64.25 L-275.15 62.45 Q-264.5 61.75 -253.65 65.95 -243.0 70.15 -235.35 77.8 -229.6 83.6 -225.8 90.65 -223.7 94.55 -219.35 105.25 -216.9 111.15 -217.45 119.05 -217.95 126.15 -220.7 133.25 L-200.8 137.65 Q-200.55 133.2 -200.85 126.55 L-200.9 125.3 Q-201.65 110.3 -205.15 97.25 -216.3 55.45 -250.25 48.55 -291.55 40.2 -316.35 66.05 -327.4 77.6 -333.65 94.75 -339.6 111.25 -340.55 130.95 M343.65 -19.85 L348.4 -17.35 Q354.15 -13.35 359.45 -5.85 376.4 18.1 382.15 68.1 L392.5 75.4 391.65 91.8 Q390.25 109.95 387.6 118.7 384.95 127.5 348.45 130.1 L323.65 131.0 312.5 130.95 290.8 119.95 287.05 120.4 Q287.65 116.75 287.65 113.1 287.65 104.2 284.2 95.9 280.8 87.6 274.5 81.3 268.3 75.1 259.95 71.45 250.9 67.5 242.7 68.15 L236.15 68.6 Q232.3 69.0 229.8 70.0 221.05 73.45 218.8 74.7 214.9 76.8 209.35 81.95 204.5 86.35 201.45 92.1 199.85 95.15 196.3 104.0 193.45 111.35 194.4 120.1 L195.0 126.1 Q195.45 130.05 196.1 132.7 L170.3 137.65 -191.3 137.65 -200.8 137.65 M170.1 123.0 Q170.85 111.05 174.7 99.55 180.8 81.55 193.2 68.65 205.95 55.3 222.7 50.35 240.55 45.05 260.05 50.35 293.6 59.55 306.45 96.15 312.85 114.5 312.5 130.95 M170.1 123.0 L170.05 123.7 Q169.6 129.65 170.25 136.95 L170.3 137.65 M170.05 123.7 L170.1 123.0 M-56.3 -127.25 L-55.25 -127.85 Q-61.05 -131.55 -69.35 -134.4 -85.9 -140.1 -98.25 -136.0 L-100.4 -135.15 Q-107.4 -132.2 -108.3 -131.25 -109.1 -130.5 -105.9 -130.85 L-98.85 -131.65 Q-94.4 -132.1 -93.05 -131.55 -89.35 -129.9 -88.7 -124.3 -88.25 -120.05 -90.25 -116.1 M-271.9 32.05 L-268.35 31.75 M-200.85 126.55 L-200.85 123.0" fill="none" stroke="#000000" stroke-linecap="butt" stroke-linejoin="miter-clip" stroke-miterlimit="10.0" stroke-width="1.0"/>
    <path d="M-88.2 -105.9 L-80.4 -109.3 Q-70.25 -113.45 -58.4 -116.85 -22.6 -127.3 15.55 -127.85 L19.85 -127.9 Q96.15 -127.9 137.5 -126.85 L163.3 -126.05 200.75 -124.0 M-100.35 -81.45 Q-98.75 -83.5 -94.95 -86.55 -87.3 -92.6 -76.4 -97.6 -41.65 -113.6 12.55 -113.2 L13.15 -113.2 15.55 -127.85 M-103.95 -107.8 L-96.7 -102.25 Q-103.2 -98.4 -142.55 -60.25 L-180.65 -22.85 -198.6 -25.9 M-379.65 63.8 L-332.9 62.35 -331.0 62.3 M13.15 -113.2 L7.85 -81.4 Q-0.55 -31.25 -3.95 -12.5 L-4.0 -11.4 178.05 -10.95 Q176.5 -27.45 171.6 -65.0 L165.05 -113.2 13.15 -113.2 M23.5 -108.3 L153.55 -107.7 163.3 -18.0 11.0 -18.0 23.5 -108.3 M163.3 -126.05 L165.05 -113.2 179.95 -112.65 213.5 -110.05 Q263.55 -104.75 271.9 -93.7 282.05 -80.35 294.05 -54.1 306.1 -27.7 309.75 -10.8 331.15 -11.5 339.45 -15.2 344.65 -17.5 343.65 -19.85 M223.55 -102.3 Q242.15 -99.4 250.85 -95.55 254.8 -93.75 262.0 -83.4 268.6 -73.7 275.05 -61.0 281.7 -48.0 284.6 -38.7 287.85 -28.25 285.05 -26.55 280.1 -23.5 232.7 -20.45 L186.2 -18.0 175.15 -106.8 Q203.2 -105.5 223.55 -102.3 M309.75 -10.8 Q304.4 -10.65 298.2 -10.65 L178.05 -10.95 Q179.0 -0.25 178.55 1.55 L178.55 68.1 175.35 72.65 Q171.55 78.45 168.45 84.8 158.7 105.1 160.25 123.0 L170.1 123.0 M179.2 -2.75 L250.4 -2.05 Q323.35 -1.0 331.75 0.9 344.1 3.75 351.3 8.7 361.2 15.55 365.35 28.4 369.1 40.25 370.05 54.4 370.5 61.5 370.2 66.25 M391.6 75.4 Q340.9 76.0 322.6 76.6 311.15 77.0 305.05 75.0 303.1 74.4 302.0 73.6 L301.2 72.95 381.2 68.1 M-8.25 70.5 L170.0 70.5 170.0 60.1 -8.05 60.1 -193.2 60.1 -193.2 70.5 -8.25 70.5 Q-7.85 73.15 -6.2 99.6 L-4.7 123.0 160.25 123.0 M-348.8 5.8 Q-326.3 -2.55 -253.8 -8.05 L-185.85 -11.9 -4.0 -11.4 Q-7.3 41.15 -8.05 60.1 M-100.35 -81.45 Q-77.0 -98.95 -41.4 -104.35 -18.3 -107.85 -0.3 -105.9 L-20.45 -16.8 -154.7 -16.8 Q-157.35 -18.45 -156.8 -20.7 -156.3 -23.15 -151.8 -28.45 L-113.25 -69.9 Q-107.35 -76.2 -100.35 -81.45 M-4.7 123.0 L-4.55 125.45 M-268.35 31.75 Q-263.75 31.5 -258.95 31.95 -243.35 33.25 -230.6 40.55 -212.65 50.7 -202.75 71.35 -192.65 92.25 -191.4 123.0 L-4.7 123.0 M-200.85 123.0 L-191.4 123.0 Q-191.1 130.05 -191.3 137.65 M-386.95 66.25 L-362.95 64.45 -332.9 62.35 M-392.45 115.05 L-341.0 115.05" fill="none" stroke="#000000" stroke-linecap="butt" stroke-linejoin="miter-clip" stroke-miterlimit="10.0" stroke-opacity="0.6" stroke-width="1.0"/>
  </g>
</svg>
