<?xml version="1.0" encoding="UTF-8" standalone="no"?>
<svg xmlns:xlink="http://www.w3.org/1999/xlink" height="28.6px" width="49.15px" xmlns="http://www.w3.org/2000/svg">
  <g transform="matrix(1.0, 0.0, 0.0, 1.0, 24.6, 14.65)">
    <path d="M-9.5 6.1 Q-10.8 4.2 -11.25 -2.5 -11.8 -10.65 -8.65 -10.65 L2.4 -12.45 18.45 -13.05 Q20.85 -12.45 22.5 -9.35 24.05 -6.4 24.05 -2.75 24.1 1.15 22.35 3.75 20.3 6.7 16.45 6.95 L0.15 7.55 -3.2 7.5 -3.3 7.55 Q-11.25 14.55 -22.8 13.25 L-24.0 5.8 -21.8 6.55 Q-19.0 7.3 -16.3 7.35 -12.6 7.35 -9.5 6.1 -5.35 4.4 -2.4 0.3 L-0.8 -1.15 Q1.1 -2.1 2.3 0.3 L0.95 2.6 Q-0.8 5.3 -3.2 7.5 -0.8 5.3 0.95 2.6 L2.3 0.3 Q1.1 -2.1 -0.8 -1.15 L-2.4 0.3 Q-5.35 4.4 -9.5 6.1" fill="#ffffff" fill-opacity="0.29803923" fill-rule="evenodd" stroke="none"/>
    <path d="M-9.5 6.1 Q-10.8 4.2 -11.25 -2.5 -11.8 -10.65 -8.65 -10.65 L2.4 -12.45 18.45 -13.05 Q20.85 -12.45 22.5 -9.35 24.05 -6.4 24.05 -2.75 24.1 1.15 22.35 3.75 20.3 6.7 16.45 6.95 L0.15 7.55 -3.2 7.5 -3.3 7.55 Q-11.25 14.55 -22.8 13.25 L-24.0 5.8 -21.8 6.55 Q-19.0 7.3 -16.3 7.35 -12.6 7.35 -9.5 6.1 -5.35 4.4 -2.4 0.3 L-0.8 -1.15 Q1.1 -2.1 2.3 0.3 L0.95 2.6 Q-0.8 5.3 -3.2 7.5" fill="none" stroke="#000000" stroke-linecap="round" stroke-linejoin="miter-clip" stroke-miterlimit="10.0" stroke-width="1.0"/>
  </g>
</svg>
