<?xml version="1.0" encoding="UTF-8" standalone="no"?>
<svg xmlns:xlink="http://www.w3.org/1999/xlink" height="10.0px" width="262.05px" xmlns="http://www.w3.org/2000/svg">
  <g transform="matrix(1.0, 0.0, 0.0, 1.0, 131.0, 5.0)">
    <path d="M-126.9 -4.5 L-95.15 -4.5 Q-93.6 -4.5 -92.55 -3.15 -91.55 -1.8 -91.55 0.0 -91.55 1.85 -92.55 3.2 -93.6 4.5 -95.15 4.5 L-126.9 4.5 Q-128.4 4.5 -129.4 3.2 -130.5 1.85 -130.5 0.0 -130.5 -1.8 -129.4 -3.15 -128.4 -4.5 -126.9 -4.5" fill="#ffffff" fill-opacity="0.29803923" fill-rule="evenodd" stroke="none"/>
    <path d="M-126.9 -4.5 L-95.15 -4.5 Q-93.6 -4.5 -92.55 -3.15 -91.55 -1.8 -91.55 0.0 -91.55 1.85 -92.55 3.2 -93.6 4.5 -95.15 4.5 L-126.9 4.5 Q-128.4 4.5 -129.4 3.2 -130.5 1.85 -130.5 0.0 -130.5 -1.8 -129.4 -3.15 -128.4 -4.5 -126.9 -4.5 Z" fill="none" stroke="#000000" stroke-linecap="butt" stroke-linejoin="miter-clip" stroke-miterlimit="4.0" stroke-width="1.0"/>
    <path d="M95.1 -4.5 L126.9 -4.5 Q128.4 -4.5 129.45 -3.15 130.5 -1.8 130.5 0.0 130.5 1.85 129.45 3.2 128.4 4.5 126.9 4.5 L95.1 4.5 Q93.6 4.5 92.55 3.2 91.5 1.85 91.5 0.0 91.5 -1.8 92.55 -3.15 93.6 -4.5 95.1 -4.5" fill="#ffffff" fill-opacity="0.29803923" fill-rule="evenodd" stroke="none"/>
    <path d="M95.1 -4.5 L126.9 -4.5 Q128.4 -4.5 129.45 -3.15 130.5 -1.8 130.5 0.0 130.5 1.85 129.45 3.2 128.4 4.5 126.9 4.5 L95.1 4.5 Q93.6 4.5 92.55 3.2 91.5 1.85 91.5 0.0 91.5 -1.8 92.55 -3.15 93.6 -4.5 95.1 -4.5 Z" fill="none" stroke="#000000" stroke-linecap="butt" stroke-linejoin="miter-clip" stroke-miterlimit="4.0" stroke-width="1.0"/>
  </g>
</svg>
