<?xml version="1.0" encoding="UTF-8" standalone="no"?>
<svg xmlns:xlink="http://www.w3.org/1999/xlink" height="88.55px" width="310.95px" xmlns="http://www.w3.org/2000/svg">
  <g transform="matrix(1.0, 0.0, 0.0, 1.0, 155.45, 44.3)">
    <path d="M0.0 -43.75 L2.45 -43.65 52.05 -40.95 Q91.2 -38.0 108.0 -33.95 L125.95 -7.2 Q145.3 22.5 152.4 37.55 L154.8 43.75 99.95 40.7 0.0 37.55 -99.9 40.7 -154.75 43.75 -152.3 37.55 Q-145.2 22.5 -125.85 -7.2 L-107.95 -33.95 Q-91.15 -38.0 -52.0 -40.95 L-2.4 -43.65 -1.75 -43.75 0.0 -43.75" fill="#ffffff" fill-opacity="0.0" fill-rule="evenodd" stroke="none"/>
    <path d="M0.0 -43.75 L-1.75 -43.75 -2.4 -43.65 -52.0 -40.95 Q-91.15 -38.0 -107.95 -33.95 L-125.85 -7.2 Q-145.2 22.5 -152.3 37.55 L-154.75 43.75 -99.9 40.7 0.0 37.55 99.95 40.7 154.8 43.75 152.4 37.55 Q145.3 22.5 125.95 -7.2 L108.0 -33.95 Q91.2 -38.0 52.05 -40.95 L2.45 -43.65 0.0 -43.75 Z" fill="none" stroke="#000000" stroke-linecap="butt" stroke-linejoin="miter-clip" stroke-miterlimit="4.0" stroke-opacity="0.6" stroke-width="1.0"/>
    <path d="M-87.4 39.75 L30.85 -41.95 64.0 -39.6 -42.1 38.0 -87.4 39.75" fill="#ffffff" fill-opacity="0.6" fill-rule="evenodd" stroke="none"/>
    <path d="M0.0 37.2 L-17.65 37.4 77.7 -38.25 97.35 -35.7 7.4 37.25 0.0 37.2" fill="#ffffff" fill-opacity="0.6" fill-rule="evenodd" stroke="none"/>
  </g>
</svg>
