<?xml version="1.0" encoding="UTF-8" standalone="no"?>
<svg xmlns:xlink="http://www.w3.org/1999/xlink" height="435.2px" width="494.35px" xmlns="http://www.w3.org/2000/svg">
  <g transform="matrix(1.0, 0.0, 0.0, 1.0, 247.15, 217.6)">
    <path d="M-143.3 -201.5 Q-143.3 -195.05 -147.85 -190.45 -152.4 -185.9 -158.9 -185.9 -165.35 -185.9 -169.9 -190.45 -174.5 -195.05 -174.5 -201.5 -174.5 -208.0 -169.9 -212.55 -165.35 -217.1 -158.9 -217.1 -152.4 -217.1 -147.85 -212.55 -143.3 -208.0 -143.3 -201.5" fill="#ffffff" fill-opacity="0.0" fill-rule="evenodd" stroke="none"/>
    <path d="M-143.3 -201.5 Q-143.3 -195.05 -147.85 -190.45 -152.4 -185.9 -158.9 -185.9 -165.35 -185.9 -169.9 -190.45 -174.5 -195.05 -174.5 -201.5 -174.5 -208.0 -169.9 -212.55 -165.35 -217.1 -158.9 -217.1 -152.4 -217.1 -147.85 -212.55 -143.3 -208.0 -143.3 -201.5 Z" fill="none" stroke="#000000" stroke-linecap="butt" stroke-linejoin="miter-clip" stroke-miterlimit="4.0" stroke-width="1.0"/>
    <path d="M164.8 -201.5 Q164.8 -195.05 160.25 -190.45 155.7 -185.9 149.2 -185.9 142.75 -185.9 138.2 -190.45 133.6 -195.05 133.6 -201.5 133.6 -208.0 138.2 -212.55 142.75 -217.1 149.2 -217.1 155.7 -217.1 160.25 -212.55 164.8 -208.0 164.8 -201.5" fill="#ffffff" fill-opacity="0.0" fill-rule="evenodd" stroke="none"/>
    <path d="M164.8 -201.5 Q164.8 -195.05 160.25 -190.45 155.7 -185.9 149.2 -185.9 142.75 -185.9 138.2 -190.45 133.6 -195.05 133.6 -201.5 133.6 -208.0 138.2 -212.55 142.75 -217.1 149.2 -217.1 155.7 -217.1 160.25 -212.55 164.8 -208.0 164.8 -201.5 Z" fill="none" stroke="#000000" stroke-linecap="butt" stroke-linejoin="miter-clip" stroke-miterlimit="4.0" stroke-width="1.0"/>
    <path d="M-220.0 190.45 Q-215.45 195.0 -215.45 201.5 -215.45 207.95 -220.0 212.55 -224.55 217.1 -231.05 217.1 -237.5 217.1 -242.05 212.55 -246.65 207.95 -246.65 201.5 -246.65 195.0 -242.05 190.45 -237.5 185.9 -231.05 185.9 -224.55 185.9 -220.0 190.45" fill="#000000" fill-opacity="0.2" fill-rule="evenodd" stroke="none"/>
    <path d="M-220.0 190.45 Q-215.45 195.0 -215.45 201.5 -215.45 207.95 -220.0 212.55 -224.55 217.1 -231.05 217.1 -237.5 217.1 -242.05 212.55 -246.65 207.95 -246.65 201.5 -246.65 195.0 -242.05 190.45 -237.5 185.9 -231.05 185.9 -224.55 185.9 -220.0 190.45 Z" fill="none" stroke="#000000" stroke-linecap="butt" stroke-linejoin="miter-clip" stroke-miterlimit="4.0" stroke-width="1.0"/>
    <path d="M242.15 190.45 Q246.7 195.0 246.7 201.5 246.7 207.95 242.15 212.55 237.6 217.1 231.1 217.1 224.6 217.1 220.05 212.55 215.5 207.95 215.5 201.5 215.5 195.0 220.05 190.45 224.6 185.9 231.1 185.9 237.6 185.9 242.15 190.45" fill="#000000" fill-opacity="0.2" fill-rule="evenodd" stroke="none"/>
    <path d="M242.15 190.45 Q246.7 195.0 246.7 201.5 246.7 207.95 242.15 212.55 237.6 217.1 231.1 217.1 224.6 217.1 220.05 212.55 215.5 207.95 215.5 201.5 215.5 195.0 220.05 190.45 224.6 185.9 231.1 185.9 237.6 185.9 242.15 190.45 Z" fill="none" stroke="#000000" stroke-linecap="butt" stroke-linejoin="miter-clip" stroke-miterlimit="4.0" stroke-width="1.0"/>
    <path d="M-215.45 112.6 Q-215.45 119.1 -220.0 123.65 -224.55 128.2 -231.05 128.2 -237.5 128.2 -242.05 123.65 -246.65 119.1 -246.65 112.6 -246.65 106.15 -242.05 101.6 -237.5 97.0 -231.05 97.0 -224.55 97.0 -220.0 101.6 -215.45 106.15 -215.45 112.6" fill="#ffffff" fill-opacity="0.0" fill-rule="evenodd" stroke="none"/>
    <path d="M-215.45 112.6 Q-215.45 119.1 -220.0 123.65 -224.55 128.2 -231.05 128.2 -237.5 128.2 -242.05 123.65 -246.65 119.1 -246.65 112.6 -246.65 106.15 -242.05 101.6 -237.5 97.0 -231.05 97.0 -224.55 97.0 -220.0 101.6 -215.45 106.15 -215.45 112.6 Z" fill="none" stroke="#000000" stroke-linecap="butt" stroke-linejoin="miter-clip" stroke-miterlimit="4.0" stroke-width="1.0"/>
    <path d="M-215.45 157.3 Q-215.45 163.75 -220.0 168.35 -224.55 172.9 -231.05 172.9 -237.5 172.9 -242.05 168.35 -246.65 163.75 -246.65 157.3 -246.65 150.8 -242.05 146.25 -237.5 141.7 -231.05 141.7 -224.55 141.7 -220.0 146.25 -215.45 150.8 -215.45 157.3" fill="#000000" fill-opacity="0.09803922" fill-rule="evenodd" stroke="none"/>
    <path d="M-215.45 157.3 Q-215.45 163.75 -220.0 168.35 -224.55 172.9 -231.05 172.9 -237.5 172.9 -242.05 168.35 -246.65 163.75 -246.65 157.3 -246.65 150.8 -242.05 146.25 -237.5 141.7 -231.05 141.7 -224.55 141.7 -220.0 146.25 -215.45 150.8 -215.45 157.3 Z" fill="none" stroke="#000000" stroke-linecap="butt" stroke-linejoin="miter-clip" stroke-miterlimit="4.0" stroke-width="1.0"/>
    <path d="M246.7 112.6 Q246.7 119.1 242.15 123.65 237.6 128.2 231.1 128.2 224.6 128.2 220.05 123.65 215.5 119.1 215.5 112.6 215.5 106.15 220.05 101.6 224.6 97.0 231.1 97.0 237.6 97.0 242.15 101.6 246.7 106.15 246.7 112.6" fill="#ffffff" fill-opacity="0.0" fill-rule="evenodd" stroke="none"/>
    <path d="M246.7 112.6 Q246.7 119.1 242.15 123.65 237.6 128.2 231.1 128.2 224.6 128.2 220.05 123.65 215.5 119.1 215.5 112.6 215.5 106.15 220.05 101.6 224.6 97.0 231.1 97.0 237.6 97.0 242.15 101.6 246.7 106.15 246.7 112.6 Z" fill="none" stroke="#000000" stroke-linecap="butt" stroke-linejoin="miter-clip" stroke-miterlimit="4.0" stroke-width="1.0"/>
    <path d="M246.7 157.3 Q246.7 163.75 242.15 168.35 237.6 172.9 231.1 172.9 224.6 172.9 220.05 168.35 215.5 163.75 215.5 157.3 215.5 150.8 220.05 146.25 224.6 141.7 231.1 141.7 237.6 141.7 242.15 146.25 246.7 150.8 246.7 157.3" fill="#000000" fill-opacity="0.09803922" fill-rule="evenodd" stroke="none"/>
    <path d="M246.7 157.3 Q246.7 163.75 242.15 168.35 237.6 172.9 231.1 172.9 224.6 172.9 220.05 168.35 215.5 163.75 215.5 157.3 215.5 150.8 220.05 146.25 224.6 141.7 231.1 141.7 237.6 141.7 242.15 146.25 246.7 150.8 246.7 157.3 Z" fill="none" stroke="#000000" stroke-linecap="butt" stroke-linejoin="miter-clip" stroke-miterlimit="4.0" stroke-width="1.0"/>
  </g>
</svg>
