<?xml version="1.0" encoding="UTF-8" standalone="no"?>
<svg xmlns:xlink="http://www.w3.org/1999/xlink" height="602.85px" width="1635.35px" xmlns="http://www.w3.org/2000/svg">
  <g transform="matrix(1.0, 0.0, 0.0, 1.0, 792.1, 339.8)">
    <path d="M5.35 -0.25 L551.95 -0.25 551.95 175.9 5.35 175.9 5.35 -0.25 5.35 175.9 -791.6 175.9 -791.6 -0.25 -6.15 -0.25 5.35 -0.25 M263.65 155.8 L263.65 3.85 19.4 3.85 19.4 155.8 263.65 155.8 M529.3 155.8 L529.3 3.85 285.05 3.85 285.05 155.8 529.3 155.8 M-765.15 3.85 L-765.15 155.8 -520.9 155.8 -520.9 3.85 -765.15 3.85 M-262.5 155.7 L-262.5 3.75 -506.75 3.75 -506.75 155.7 -262.5 155.7 M-6.15 155.8 L-6.15 3.85 -249.85 3.85 -249.85 155.8 -6.15 155.8" fill="#000000" fill-opacity="0.49803922" fill-rule="evenodd" stroke="none"/>
    <path d="M836.65 34.0 Q841.5 75.4 842.5 112.5 845.55 231.15 807.65 262.0 L807.65 0.0 831.9 0.0 836.65 34.0" fill="#000000" fill-opacity="0.6" fill-rule="evenodd" stroke="none"/>
    <path d="M-6.15 155.8 L-249.85 155.8 -249.85 3.85 -6.15 3.85 -6.15 155.8 M-262.5 155.7 L-506.75 155.7 -506.75 3.75 -262.5 3.75 -262.5 155.7 M-765.15 3.85 L-520.9 3.85 -520.9 155.8 -765.15 155.8 -765.15 3.85 M529.3 155.8 L285.05 155.8 285.05 3.85 529.3 3.85 529.3 155.8 M263.65 155.8 L19.4 155.8 19.4 3.85 263.65 3.85 263.65 155.8" fill="none" stroke="#000000" stroke-linecap="butt" stroke-linejoin="miter-clip" stroke-miterlimit="10.0" stroke-width="1.0"/>
    <path d="M836.65 34.0 Q841.5 75.4 842.5 112.5 845.55 231.15 807.65 262.0 L807.65 0.0 831.9 0.0 836.65 34.0" fill="none" stroke="#000000" stroke-linecap="butt" stroke-linejoin="miter-clip" stroke-miterlimit="10.0" stroke-opacity="0.6" stroke-width="1.0"/>
    <path d="M5.35 175.9 L551.95 175.9 551.95 -0.25 5.35 -0.25" fill="none" stroke="#000000" stroke-linecap="round" stroke-linejoin="miter-clip" stroke-miterlimit="10.0" stroke-width="1.0"/>
    <path d="M5.35 -0.25 L5.35 175.9" fill="none" stroke="#000000" stroke-linecap="round" stroke-linejoin="miter-clip" stroke-miterlimit="10.0" stroke-opacity="0.6" stroke-width="1.0"/>
    <path d="M5.35 175.9 L-791.6 175.9 -791.6 -0.25 -6.15 -0.25" fill="none" stroke="#000000" stroke-linecap="round" stroke-linejoin="miter-clip" stroke-miterlimit="10.0" stroke-width="1.0"/>
    <path d="M-6.15 -0.25 L5.35 -0.25" fill="none" stroke="#000000" stroke-linecap="butt" stroke-linejoin="miter-clip" stroke-miterlimit="4.0" stroke-width="1.0"/>
    <path d="M725.25 -277.4 Q704.1 -303.55 667.1 -315.9 640.65 -324.7 608.95 -325.8 599.0 -326.1 589.75 -325.6 L582.5 -325.05 582.5 -193.5 751.7 -192.35 Q751.7 -244.75 725.25 -277.4 M669.45 -327.45 Q713.4 -312.9 738.5 -282.1 769.9 -243.55 769.9 -181.75 L568.95 -183.1 568.95 -338.35 577.6 -339.0 Q588.55 -339.55 600.35 -339.15 638.05 -337.95 669.45 -327.45" fill="#000000" fill-opacity="0.6" fill-rule="evenodd" stroke="none"/>
    <path d="M669.45 -327.45 Q638.05 -337.95 600.35 -339.15 588.55 -339.55 577.6 -339.0 L568.95 -338.35 568.95 -183.1 769.9 -181.75 Q769.9 -243.55 738.5 -282.1 713.4 -312.9 669.45 -327.45" fill="none" stroke="#000000" stroke-linecap="butt" stroke-linejoin="miter-clip" stroke-miterlimit="10.0" stroke-width="1.0"/>
    <path d="M725.25 -277.4 Q751.7 -244.75 751.7 -192.35 L582.5 -193.5 582.5 -325.05 589.75 -325.6 Q599.0 -326.1 608.95 -325.8 640.65 -324.7 667.1 -315.9 704.1 -303.55 725.25 -277.4" fill="none" stroke="#000000" stroke-linecap="butt" stroke-linejoin="miter-clip" stroke-miterlimit="10.0" stroke-opacity="0.6" stroke-width="1.0"/>
  </g>
</svg>
