<?xml version="1.0" encoding="UTF-8" standalone="no"?>
<svg xmlns:xlink="http://www.w3.org/1999/xlink" height="172.15px" width="1116.05px" xmlns="http://www.w3.org/2000/svg">
  <g transform="matrix(1.0, 0.0, 0.0, 1.0, 558.05, 86.05)">
    <path d="M458.65 -13.25 Q464.1 -18.8 471.9 -18.8 479.7 -18.8 485.25 -13.25 490.75 -7.8 490.75 0.0 490.75 7.8 485.25 13.35 479.7 18.85 471.9 18.85 464.1 18.85 458.65 13.35 453.1 7.8 453.1 0.0 453.1 -7.8 458.65 -13.25 M435.65 -36.25 Q420.55 -21.25 420.55 0.0 420.55 21.25 435.65 36.35 450.65 51.35 471.9 51.35 493.25 51.35 508.25 36.35 523.25 21.25 523.25 0.0 523.25 -21.25 508.25 -36.25 493.25 -51.35 471.9 -51.35 450.65 -51.35 435.65 -36.25 M411.4 -60.5 Q436.5 -85.55 471.9 -85.55 507.35 -85.55 532.4 -60.5 557.5 -35.4 557.5 0.0 557.5 35.45 532.4 60.5 507.35 85.6 471.9 85.6 436.5 85.6 411.4 60.5 386.35 35.45 386.35 0.0 386.35 -35.4 411.4 -60.5 M-471.95 -18.8 Q-464.2 -18.8 -458.7 -13.25 -453.15 -7.8 -453.15 0.0 -453.15 7.8 -458.7 13.35 -464.2 18.85 -471.95 18.85 -479.75 18.85 -485.3 13.35 -490.8 7.8 -490.8 0.0 -490.8 -7.8 -485.3 -13.25 -479.75 -18.8 -471.95 -18.8 M-471.95 -85.55 Q-436.55 -85.55 -411.45 -60.5 -386.4 -35.4 -386.4 0.0 -386.4 35.45 -411.45 60.5 -436.55 85.6 -471.95 85.6 -507.35 85.6 -532.45 60.5 -557.55 35.45 -557.55 0.0 -557.55 -35.4 -532.45 -60.5 -507.35 -85.55 -471.95 -85.55 M-471.95 -51.35 Q-493.25 -51.35 -508.3 -36.25 -523.3 -21.25 -523.3 0.0 -523.3 21.25 -508.3 36.35 -493.25 51.35 -471.95 51.35 -450.7 51.35 -435.7 36.35 -420.65 21.25 -420.65 0.0 -420.65 -21.25 -435.7 -36.25 -450.7 -51.35 -471.95 -51.35" fill="#ffffff" fill-opacity="0.0" fill-rule="evenodd" stroke="none"/>
    <path d="M411.4 -60.5 Q386.35 -35.4 386.35 0.0 386.35 35.45 411.4 60.5 436.5 85.6 471.9 85.6 507.35 85.6 532.4 60.5 557.5 35.45 557.5 0.0 557.5 -35.4 532.4 -60.5 507.35 -85.55 471.9 -85.55 436.5 -85.55 411.4 -60.5 M-471.95 -85.55 Q-507.35 -85.55 -532.45 -60.5 -557.55 -35.4 -557.55 0.0 -557.55 35.45 -532.45 60.5 -507.35 85.6 -471.95 85.6 -436.55 85.6 -411.45 60.5 -386.4 35.45 -386.4 0.0 -386.4 -35.4 -411.45 -60.5 -436.55 -85.55 -471.95 -85.55" fill="none" stroke="#000000" stroke-linecap="butt" stroke-linejoin="miter-clip" stroke-miterlimit="10.0" stroke-width="1.0"/>
    <path d="M458.65 -13.25 Q453.1 -7.8 453.1 0.0 453.1 7.8 458.65 13.35 464.1 18.85 471.9 18.85 479.7 18.85 485.25 13.35 490.75 7.8 490.75 0.0 490.75 -7.8 485.25 -13.25 479.7 -18.8 471.9 -18.8 464.1 -18.8 458.65 -13.25 M435.65 -36.25 Q420.55 -21.25 420.55 0.0 420.55 21.25 435.65 36.35 450.65 51.35 471.9 51.35 493.25 51.35 508.25 36.35 523.25 21.25 523.25 0.0 523.25 -21.25 508.25 -36.25 493.25 -51.35 471.9 -51.35 450.65 -51.35 435.65 -36.25 M-471.95 -18.8 Q-479.75 -18.8 -485.3 -13.25 -490.8 -7.8 -490.8 0.0 -490.8 7.8 -485.3 13.35 -479.75 18.85 -471.95 18.85 -464.2 18.85 -458.7 13.35 -453.15 7.8 -453.15 0.0 -453.15 -7.8 -458.7 -13.25 -464.2 -18.8 -471.95 -18.8 M-471.95 -51.35 Q-493.25 -51.35 -508.3 -36.25 -523.3 -21.25 -523.3 0.0 -523.3 21.25 -508.3 36.35 -493.25 51.35 -471.95 51.35 -450.7 51.35 -435.7 36.35 -420.65 21.25 -420.65 0.0 -420.65 -21.25 -435.7 -36.25 -450.7 -51.35 -471.95 -51.35" fill="none" stroke="#000000" stroke-linecap="butt" stroke-linejoin="miter-clip" stroke-miterlimit="10.0" stroke-opacity="0.6" stroke-width="1.0"/>
  </g>
</svg>
