<?xml version="1.0" encoding="UTF-8" standalone="no"?>
<svg xmlns:xlink="http://www.w3.org/1999/xlink" height="651.75px" width="1559.05px" xmlns="http://www.w3.org/2000/svg">
  <g transform="matrix(1.0, 0.0, 0.0, 1.0, 779.55, 325.9)">
    <path d="M-37.1 16.0 L-37.1 151.2 -254.4 151.2 -254.4 16.0 -37.1 16.0" fill="#ffffff" fill-opacity="0.0" fill-rule="evenodd" stroke="none"/>
    <path d="M-151.2 16.0 L-104.65 16.0 -249.05 151.2 -254.4 151.2 -254.4 105.6 -151.2 16.0" fill="#ffffff" fill-opacity="0.6" fill-rule="evenodd" stroke="none"/>
    <path d="M-75.05 16.0 L-55.0 16.0 -196.7 151.2 -219.9 151.2 -75.05 16.0" fill="#ffffff" fill-opacity="0.6" fill-rule="evenodd" stroke="none"/>
    <path d="M-302.8 151.2 L-520.1 151.2 -520.1 16.0 -302.8 16.0 -302.8 151.2" fill="#ffffff" fill-opacity="0.0" fill-rule="evenodd" stroke="none"/>
    <path d="M-520.1 151.2 L-520.1 105.6 -416.9 16.0 -370.35 16.0 -514.8 151.2 -520.1 151.2" fill="#ffffff" fill-opacity="0.6" fill-rule="evenodd" stroke="none"/>
    <path d="M-340.8 16.0 L-320.7 16.0 -462.4 151.2 -485.6 151.2 -340.8 16.0" fill="#ffffff" fill-opacity="0.6" fill-rule="evenodd" stroke="none"/>
    <path d="M747.3 16.0 L747.3 151.2 530.0 151.2 530.0 16.0 747.3 16.0" fill="#ffffff" fill-opacity="0.0" fill-rule="evenodd" stroke="none"/>
    <path d="M633.25 16.0 L679.75 16.0 535.35 151.2 530.0 151.2 530.0 105.6 633.25 16.0" fill="#ffffff" fill-opacity="0.6" fill-rule="evenodd" stroke="none"/>
    <path d="M709.35 16.0 L729.45 16.0 587.75 151.2 564.55 151.2 709.35 16.0" fill="#ffffff" fill-opacity="0.6" fill-rule="evenodd" stroke="none"/>
    <path d="M481.6 151.2 L264.3 151.2 264.3 16.0 481.6 16.0 481.6 151.2" fill="#ffffff" fill-opacity="0.0" fill-rule="evenodd" stroke="none"/>
    <path d="M367.5 16.0 L414.05 16.0 269.65 151.2 264.3 151.2 264.3 105.6 367.5 16.0" fill="#ffffff" fill-opacity="0.6" fill-rule="evenodd" stroke="none"/>
    <path d="M443.65 16.0 L463.7 16.0 322.0 151.2 298.8 151.2 443.65 16.0" fill="#ffffff" fill-opacity="0.6" fill-rule="evenodd" stroke="none"/>
    <path d="M-311.2 -190.75 L-528.5 -190.75 -528.5 -325.9 -311.2 -325.9 -311.2 -190.75" fill="#ffffff" fill-opacity="0.0" fill-rule="evenodd" stroke="none"/>
    <path d="M-523.15 -190.75 L-528.5 -190.75 -528.5 -236.3 -425.3 -325.9 -378.75 -325.9 -523.15 -190.75" fill="#ffffff" fill-opacity="0.6" fill-rule="evenodd" stroke="none"/>
    <path d="M-349.15 -325.9 L-329.1 -325.9 -470.8 -190.75 -494.0 -190.75 -349.15 -325.9" fill="#ffffff" fill-opacity="0.6" fill-rule="evenodd" stroke="none"/>
    <path d="M-38.55 -190.75 L-255.85 -190.75 -255.85 -325.9 -38.55 -325.9 -38.55 -190.75" fill="#ffffff" fill-opacity="0.0" fill-rule="evenodd" stroke="none"/>
    <path d="M-152.6 -325.9 L-106.05 -325.9 -250.5 -190.75 -255.85 -190.75 -255.85 -236.3 -152.6 -325.9" fill="#ffffff" fill-opacity="0.6" fill-rule="evenodd" stroke="none"/>
    <path d="M-76.5 -325.9 L-56.4 -325.9 -198.1 -190.75 -221.3 -190.75 -76.5 -325.9" fill="#ffffff" fill-opacity="0.6" fill-rule="evenodd" stroke="none"/>
    <path d="M234.05 -190.75 L16.85 -190.75 16.85 -325.9 234.05 -325.9 234.05 -190.75" fill="#ffffff" fill-opacity="0.0" fill-rule="evenodd" stroke="none"/>
    <path d="M120.05 -325.9 L166.55 -325.9 22.2 -190.75 16.85 -190.75 16.85 -236.3 120.05 -325.9" fill="#ffffff" fill-opacity="0.6" fill-rule="evenodd" stroke="none"/>
    <path d="M196.1 -325.9 L216.2 -325.9 74.55 -190.75 51.35 -190.75 196.1 -325.9" fill="#ffffff" fill-opacity="0.6" fill-rule="evenodd" stroke="none"/>
    <path d="M506.75 -190.75 L289.45 -190.75 289.45 -325.9 506.75 -325.9 506.75 -190.75" fill="#ffffff" fill-opacity="0.0" fill-rule="evenodd" stroke="none"/>
    <path d="M294.8 -190.75 L289.45 -190.75 289.45 -236.3 392.75 -325.9 439.2 -325.9 294.8 -190.75" fill="#ffffff" fill-opacity="0.6" fill-rule="evenodd" stroke="none"/>
    <path d="M468.8 -325.9 L488.85 -325.9 347.15 -190.75 324.05 -190.75 468.8 -325.9" fill="#ffffff" fill-opacity="0.6" fill-rule="evenodd" stroke="none"/>
    <path d="M779.5 -190.75 L562.2 -190.75 562.2 -325.9 779.5 -325.9 779.5 -190.75" fill="#ffffff" fill-opacity="0.0" fill-rule="evenodd" stroke="none"/>
    <path d="M665.4 -325.9 L711.9 -325.9 567.45 -190.75 562.2 -190.75 562.2 -236.3 665.4 -325.9" fill="#ffffff" fill-opacity="0.6" fill-rule="evenodd" stroke="none"/>
    <path d="M741.45 -325.9 L761.6 -325.9 619.85 -190.75 596.7 -190.75 741.45 -325.9" fill="#ffffff" fill-opacity="0.6" fill-rule="evenodd" stroke="none"/>
    <path d="M-613.2 -322.0 Q-597.35 -322.5 -586.75 -321.25 L-586.75 -189.7 -755.95 -188.55 Q-755.95 -240.95 -729.5 -273.6 -708.35 -299.75 -671.3 -312.1 -644.9 -320.9 -613.2 -322.0" fill="#ffffff" fill-opacity="0.0" fill-rule="evenodd" stroke="none"/>
    <path d="M-589.35 -321.55 L-586.75 -321.25 -586.75 -286.55 -708.75 -188.85 -753.9 -188.55 -589.35 -321.55" fill="#ffffff" fill-opacity="0.6" fill-rule="evenodd" stroke="none"/>
    <path d="M-697.0 17.55 L-697.0 325.85 -779.55 325.85 -779.55 17.55 -697.0 17.55" fill="#ffffff" fill-opacity="0.0" fill-rule="evenodd" stroke="none"/>
    <path d="M-600.05 17.55 L-600.05 325.85 -682.6 325.85 -682.6 17.55 -600.05 17.55" fill="#ffffff" fill-opacity="0.0" fill-rule="evenodd" stroke="none"/>
    <path d="M-697.0 19.4 L-697.0 89.6 -779.55 257.3 -779.55 183.05 -697.0 19.4" fill="#ffffff" fill-opacity="0.6" fill-rule="evenodd" stroke="none"/>
    <path d="M-623.05 16.65 L-613.05 16.65 -682.6 161.6 -682.6 136.65 -623.05 16.65" fill="#ffffff" fill-opacity="0.6" fill-rule="evenodd" stroke="none"/>
    <path d="M106.4 17.55 L106.4 325.85 23.8 325.85 23.8 17.55 106.4 17.55" fill="#ffffff" fill-opacity="0.0" fill-rule="evenodd" stroke="none"/>
    <path d="M203.25 17.55 L203.25 325.85 120.7 325.85 120.7 17.55 203.25 17.55" fill="#ffffff" fill-opacity="0.0" fill-rule="evenodd" stroke="none"/>
    <path d="M106.4 19.4 L106.4 89.6 23.8 257.3 23.8 183.05 106.4 19.4" fill="#ffffff" fill-opacity="0.6" fill-rule="evenodd" stroke="none"/>
    <path d="M180.25 16.65 L190.25 16.65 120.7 161.6 120.7 136.65 180.25 16.65" fill="#ffffff" fill-opacity="0.6" fill-rule="evenodd" stroke="none"/>
  </g>
</svg>
