<?xml version="1.0" encoding="UTF-8" standalone="no"?>
<svg xmlns:xlink="http://www.w3.org/1999/xlink" height="469.35px" width="67.1px" xmlns="http://www.w3.org/2000/svg">
  <g transform="matrix(1.0, 0.0, 0.0, 1.0, 33.55, 234.7)">
    <path d="M33.05 -208.7 L33.05 208.65 Q33.05 219.3 25.55 226.65 18.2 234.15 7.55 234.15 L-7.7 234.15 Q-18.2 234.15 -25.55 226.65 -33.05 219.3 -33.05 208.65 L-33.05 -208.7 Q-33.05 -219.35 -25.55 -226.7 -18.2 -234.2 -7.7 -234.2 L7.55 -234.2 Q18.2 -234.2 25.55 -226.7 33.05 -219.35 33.05 -208.7" fill="#000000" fill-opacity="0.4" fill-rule="evenodd" stroke="none"/>
    <path d="M33.05 -208.7 L33.05 208.65 Q33.05 219.3 25.55 226.65 18.2 234.15 7.55 234.15 L-7.7 234.15 Q-18.2 234.15 -25.55 226.65 -33.05 219.3 -33.05 208.65 L-33.05 -208.7 Q-33.05 -219.35 -25.55 -226.7 -18.2 -234.2 -7.7 -234.2 L7.55 -234.2 Q18.2 -234.2 25.55 -226.7 33.05 -219.35 33.05 -208.7 Z" fill="none" stroke="#000000" stroke-linecap="butt" stroke-linejoin="miter-clip" stroke-miterlimit="10.0" stroke-width="1.0"/>
  </g>
</svg>
