<?xml version="1.0" encoding="UTF-8" standalone="no"?>
<svg xmlns:xlink="http://www.w3.org/1999/xlink" height="486.15px" width="490.65px" xmlns="http://www.w3.org/2000/svg">
  <g transform="matrix(1.0, 0.0, 0.0, 1.0, 245.35, 243.05)">
    <path d="M165.9 -237.3 L165.9 -158.65 Q165.9 -156.45 164.2 -154.85 162.5 -153.3 160.2 -153.3 L-162.8 -153.3 Q-165.15 -153.3 -166.85 -154.85 -168.55 -156.45 -168.55 -158.65 L-168.55 -237.3 Q-168.55 -239.5 -166.85 -241.0 -165.15 -242.55 -162.8 -242.55 L160.2 -242.55 Q162.5 -242.55 164.2 -241.0 165.9 -239.5 165.9 -237.3" fill="#ffffff" fill-opacity="0.0" fill-rule="evenodd" stroke="none"/>
    <path d="M165.9 -237.3 L165.9 -158.65 Q165.9 -156.45 164.2 -154.85 162.5 -153.3 160.2 -153.3 L-162.8 -153.3 Q-165.15 -153.3 -166.85 -154.85 -168.55 -156.45 -168.55 -158.65 L-168.55 -237.3 Q-168.55 -239.5 -166.85 -241.0 -165.15 -242.55 -162.8 -242.55 L160.2 -242.55 Q162.5 -242.55 164.2 -241.0 165.9 -239.5 165.9 -237.3 Z" fill="none" stroke="#000000" stroke-linecap="butt" stroke-linejoin="miter-clip" stroke-miterlimit="4.0" stroke-width="1.0"/>
    <path d="M-215.5 151.65 Q-186.25 169.95 -186.8 229.75 -201.1 231.35 -215.5 229.75 -244.3 226.55 -244.85 210.45 L-244.85 145.35 -235.65 145.1 Q-224.6 145.95 -215.5 151.65" fill="#ffffff" fill-opacity="0.0" fill-rule="evenodd" stroke="none"/>
    <path d="M-215.5 151.65 Q-186.25 169.95 -186.8 229.75 -201.1 231.35 -215.5 229.75 -244.3 226.55 -244.85 210.45 L-244.85 145.35 -235.65 145.1 Q-224.6 145.95 -215.5 151.65 Z" fill="none" stroke="#000000" stroke-linecap="butt" stroke-linejoin="miter-clip" stroke-miterlimit="4.0" stroke-opacity="0.6" stroke-width="1.0"/>
    <path d="M-226.35 148.15 Q-214.75 149.35 -211.15 161.3 -214.4 158.5 -218.0 156.2 -225.15 151.6 -226.7 154.15 -228.25 156.6 -228.45 167.15 L-228.3 177.2 -217.65 179.1 Q-207.45 181.3 -209.45 182.75 -210.85 183.8 -221.9 183.8 -231.95 183.8 -232.4 185.9 -233.25 189.95 -233.25 204.25 L-228.15 206.15 Q-221.55 208.35 -214.4 209.85 -207.25 211.35 -217.45 213.5 L-224.1 214.6 -219.35 216.8 Q-209.1 220.75 -207.05 217.75 -205.5 215.5 -205.7 204.6 -205.9 195.8 -203.75 197.9 -201.2 200.35 -199.35 212.5 -198.45 218.55 -198.05 224.15 -207.0 226.95 -217.1 226.55 -237.1 225.7 -242.25 209.85 L-237.35 149.35 -234.05 148.5 -226.35 148.15" fill="#000000" fill-opacity="0.2" fill-rule="evenodd" stroke="none"/>
    <path d="M195.75 230.3 L186.75 229.75 Q186.25 169.95 215.5 151.65 224.6 145.95 235.65 145.1 L244.8 145.35 244.8 210.45 Q244.3 226.55 215.5 229.75 206.45 230.75 195.75 230.3" fill="#ffffff" fill-opacity="0.0" fill-rule="evenodd" stroke="none"/>
    <path d="M195.75 230.3 Q206.45 230.75 215.5 229.75 244.3 226.55 244.8 210.45 L244.8 145.35 235.65 145.1 Q224.6 145.95 215.5 151.65 186.25 169.95 186.75 229.75 L195.75 230.3 Z" fill="none" stroke="#000000" stroke-linecap="butt" stroke-linejoin="miter-clip" stroke-miterlimit="4.0" stroke-opacity="0.6" stroke-width="1.0"/>
    <path d="M203.8 225.5 L198.0 224.2 Q198.4 218.75 199.3 212.85 201.2 200.95 203.75 198.45 205.85 196.45 205.7 205.05 205.5 215.75 207.05 217.95 209.05 220.9 219.35 217.0 L224.2 215.0 217.5 213.8 Q207.25 211.65 214.4 210.15 225.85 207.85 233.25 204.7 233.25 190.65 232.4 186.75 231.95 184.6 221.85 184.6 210.8 184.6 209.45 183.65 207.45 182.2 217.65 180.05 L228.3 178.2 228.45 168.35 Q228.25 158.05 226.65 155.55 225.1 153.15 217.95 157.65 214.4 159.85 211.15 162.6 214.7 150.95 226.4 149.7 232.2 149.15 237.35 150.9 L242.2 210.15 Q237.05 225.75 217.05 226.55 210.75 226.8 203.8 225.5" fill="#000000" fill-opacity="0.2" fill-rule="evenodd" stroke="none"/>
    <path d="M-166.45 224.15 L-131.75 224.15 Q-129.05 224.15 -127.1 225.9 -125.25 227.65 -125.25 230.1 L-125.25 236.55 Q-125.25 239.1 -127.1 240.85 -129.05 242.6 -131.75 242.6 L-166.45 242.6 Q-169.1 242.6 -171.05 240.85 -172.95 239.1 -172.95 236.55 L-172.95 230.1 Q-172.95 227.65 -171.05 225.9 -169.1 224.15 -166.45 224.15" fill="#000000" fill-opacity="0.09803922" fill-rule="evenodd" stroke="none"/>
    <path d="M-166.45 224.15 L-131.75 224.15 Q-129.05 224.15 -127.1 225.9 -125.25 227.65 -125.25 230.1 L-125.25 236.55 Q-125.25 239.1 -127.1 240.85 -129.05 242.6 -131.75 242.6 L-166.45 242.6 Q-169.1 242.6 -171.05 240.85 -172.95 239.1 -172.95 236.55 L-172.95 230.1 Q-172.95 227.65 -171.05 225.9 -169.1 224.15 -166.45 224.15 Z" fill="none" stroke="#000000" stroke-linecap="butt" stroke-linejoin="miter-clip" stroke-miterlimit="4.0" stroke-opacity="0.6" stroke-width="1.0"/>
    <path d="M129.95 224.15 L164.65 224.15 Q167.35 224.15 169.3 225.9 171.15 227.65 171.15 230.1 L171.15 236.55 Q171.15 239.1 169.3 240.85 167.35 242.6 164.65 242.6 L129.95 242.6 Q127.3 242.6 125.35 240.85 123.45 239.1 123.45 236.55 L123.45 230.1 Q123.45 227.65 125.35 225.9 127.3 224.15 129.95 224.15" fill="#000000" fill-opacity="0.09803922" fill-rule="evenodd" stroke="none"/>
    <path d="M129.95 224.15 L164.65 224.15 Q167.35 224.15 169.3 225.9 171.15 227.65 171.15 230.1 L171.15 236.55 Q171.15 239.1 169.3 240.85 167.35 242.6 164.65 242.6 L129.95 242.6 Q127.3 242.6 125.35 240.85 123.45 239.1 123.45 236.55 L123.45 230.1 Q123.45 227.65 125.35 225.9 127.3 224.15 129.95 224.15 Z" fill="none" stroke="#000000" stroke-linecap="butt" stroke-linejoin="miter-clip" stroke-miterlimit="4.0" stroke-opacity="0.6" stroke-width="1.0"/>
    <path d="M-168.4 231.95 Q-170.0 230.85 -167.1 228.9 L-163.85 227.15 -130.7 231.95 -148.55 232.65 -168.4 231.95" fill="#ffffff" fill-opacity="0.6" fill-rule="evenodd" stroke="none"/>
    <path d="M149.7 231.7 Q127.95 230.7 129.95 228.35 131.6 226.5 148.5 227.8 L165.05 229.55 Q171.15 232.6 149.7 231.7" fill="#ffffff" fill-opacity="0.6" fill-rule="evenodd" stroke="none"/>
  </g>
</svg>
