<?xml version="1.0" encoding="UTF-8" standalone="no"?>
<svg xmlns:xlink="http://www.w3.org/1999/xlink" height="27.65px" width="11.2px" xmlns="http://www.w3.org/2000/svg">
  <g transform="matrix(1.0, 0.0, 0.0, 1.0, 4.4, 13.8)">
    <path d="M3.9 -10.05 L3.9 10.1 Q3.9 11.45 2.95 12.4 1.95 13.35 0.65 13.35 L-0.65 13.35 Q-2.0 13.35 -3.0 12.4 -3.9 11.45 -3.9 10.1 L-3.9 -10.05 Q-3.9 -11.4 -3.0 -12.35 -2.0 -13.3 -0.65 -13.3 L0.65 -13.3 Q1.95 -13.3 2.95 -12.35 3.9 -11.4 3.9 -10.05" fill="#ffffff" fill-opacity="0.0" fill-rule="evenodd" stroke="none"/>
    <path d="M3.9 -10.05 L3.9 10.1 Q3.9 11.45 2.95 12.4 1.95 13.35 0.65 13.35 L-0.65 13.35 Q-2.0 13.35 -3.0 12.4 -3.9 11.45 -3.9 10.1 L-3.9 -10.05 Q-3.9 -11.4 -3.0 -12.35 -2.0 -13.3 -0.65 -13.3 L0.65 -13.3 Q1.95 -13.3 2.95 -12.35 3.9 -11.4 3.9 -10.05 Z" fill="none" stroke="#000000" stroke-linecap="butt" stroke-linejoin="miter-clip" stroke-miterlimit="10.0" stroke-width="1.0"/>
    <path d="M-0.65 -9.4 L-0.65 7.5 -0.85 7.95 Q-1.05 8.15 -1.3 8.15 -1.6 8.15 -1.8 7.95 L-1.95 7.5 -1.95 -9.4 Q-1.95 -10.05 -1.3 -10.05 -0.65 -10.05 -0.65 -9.4" fill="#ffffff" fill-opacity="0.6" fill-rule="evenodd" stroke="none"/>
  </g>
</svg>
