<?xml version="1.0" encoding="UTF-8" standalone="no"?>
<svg xmlns:xlink="http://www.w3.org/1999/xlink" height="143.5px" width="645.7px" xmlns="http://www.w3.org/2000/svg">
  <g transform="matrix(1.0, 0.0, 0.0, 1.0, 322.7, 71.8)">
    <path d="M309.8 -53.45 L309.8 -53.8 306.9 -53.25 Q304.15 -52.55 304.55 -51.65 L305.1 -50.6 302.35 -48.95 301.5 -50.0 Q299.55 -52.5 304.35 -54.5 306.85 -55.5 310.25 -56.15 313.35 -57.1 320.05 -61.6 L322.2 -59.95 315.5 -54.5 Q314.55 -53.8 313.75 -52.55 L312.5 -50.3 Q311.5 -48.3 310.65 -47.4 L310.05 -46.9 Q308.15 -45.75 306.05 -46.35 L303.95 -47.45 305.9 -49.2 306.0 -49.05 Q307.1 -47.65 308.15 -48.55 309.05 -49.35 309.5 -51.25 L309.6 -51.7 309.7 -52.55 309.7 -52.6 311.0 -53.95 311.0 -54.0 310.9 -54.0 310.85 -54.0 309.8 -53.45 M309.5 -52.45 L309.5 -52.55 309.6 -52.55 309.5 -52.45 M155.25 38.75 L157.1 39.35 177.05 67.85 Q176.1 70.25 173.65 70.95 L171.35 71.2 Q168.3 70.2 164.8 67.6 L162.9 66.1 Q160.45 64.05 157.9 61.3 L156.35 59.65 154.05 56.95 145.7 45.55 145.85 44.8 146.15 43.7 149.85 42.85 150.8 42.5 Q152.35 41.8 153.45 40.9 L155.25 38.75 153.45 40.9 Q152.35 41.8 150.8 42.5 L149.85 42.85 146.15 43.7 146.0 43.75 145.2 43.9 Q144.45 43.85 143.85 42.3 L143.8 42.25 Q143.45 41.55 143.25 40.2 L143.1 39.05 143.1 39.0 Q142.7 36.2 147.2 34.4 151.55 32.65 153.3 34.15 L154.65 35.3 Q155.95 36.65 155.65 37.7 L155.25 38.7 155.25 38.75 M143.1 39.0 L144.8 38.75 Q146.9 38.3 149.1 37.25 151.4 36.1 153.3 34.15 151.4 36.1 149.1 37.25 146.9 38.3 144.8 38.75 L143.1 39.0 M-312.6 -62.7 Q-309.65 -63.45 -307.95 -62.4 L-307.05 -61.65 Q-306.25 -60.7 -305.25 -57.4 -304.7 -55.7 -302.5 -53.3 L-300.35 -51.3 -302.3 -51.1 -302.55 -51.05 -304.1 -50.4 -304.65 -49.95 -305.5 -49.4 -307.85 -52.95 Q-308.35 -53.75 -311.8 -54.25 L-317.85 -55.35 Q-320.65 -56.15 -318.8 -58.85 -317.75 -60.3 -316.0 -61.3 L-318.5 -64.3 -318.55 -64.35 -322.2 -69.05 Q-321.6 -70.9 -320.7 -71.25 L-317.75 -67.65 -314.75 -64.35 -312.6 -62.7 Q-310.8 -61.8 -311.0 -60.6 -310.8 -61.8 -312.6 -62.7 M-314.25 -59.15 L-314.85 -58.85 -315.65 -58.45 Q-316.7 -57.75 -315.8 -57.4 -314.6 -56.8 -311.8 -57.4 -309.45 -57.85 -308.8 -58.85 -308.6 -59.15 -308.55 -59.55 -308.55 -60.1 -309.05 -60.45 L-311.0 -60.6 -311.1 -60.3 Q-311.3 -59.6 -312.0 -59.15 L-312.6 -58.85 Q-313.45 -58.55 -313.9 -58.85 L-314.25 -59.15 -316.0 -61.3 -314.25 -59.15 M-244.65 11.35 L-237.3 13.05 -236.1 12.15 -235.2 12.0 Q-234.3 12.05 -233.5 13.05 -232.3 14.55 -230.2 14.2 L-229.95 14.15 -228.3 13.55 -223.5 14.5 -216.35 14.95 -212.1 16.4 Q-210.5 16.95 -209.2 19.85 L-206.45 20.45 Q-202.7 21.45 -202.6 22.55 -202.3 25.45 -202.6 27.0 L-202.75 27.6 -203.05 28.25 -203.15 28.4 Q-203.8 29.3 -204.8 29.65 L-205.75 29.8 -208.25 29.25 -209.0 29.75 -209.05 29.8 Q-210.8 27.55 -213.8 25.45 -218.05 22.55 -221.5 22.2 -223.3 22.1 -220.9 24.9 L-217.8 28.0 -219.25 27.9 Q-221.7 26.15 -224.7 24.35 -230.65 20.8 -233.3 20.8 -236.0 20.8 -230.2 25.55 L-229.5 26.1 -231.75 25.3 -235.9 24.4 -236.9 24.15 Q-238.7 23.5 -239.35 22.35 L-239.1 22.2 -247.45 19.8 -247.5 19.85 -248.1 20.4 -249.3 21.35 -255.7 19.0 Q-256.85 19.0 -257.5 17.5 -258.55 15.2 -257.25 11.75 -256.45 9.65 -254.8 8.85 L-254.0 8.55 -253.55 8.45 -252.8 8.35 -251.8 8.35 -251.8 8.3 -245.85 9.0 -244.8 11.0 -244.75 11.25 -244.7 11.3 -244.65 11.35 M-208.25 29.25 Q-207.55 28.45 -207.45 27.0 -207.4 25.35 -208.15 22.75 L-209.2 19.85 -208.15 22.75 Q-207.4 25.35 -207.45 27.0 -207.55 28.45 -208.25 29.25 M-255.5 19.0 L-254.7 18.75 -254.2 18.45 Q-253.05 17.75 -252.2 16.4 -251.45 15.15 -250.9 13.4 L-250.75 13.0 -250.55 12.2 -250.4 11.0 Q-250.3 9.25 -251.2 8.45 -250.3 9.25 -250.4 11.0 L-250.55 12.2 -250.75 13.0 -250.9 13.4 Q-251.45 15.15 -252.2 16.4 -253.05 17.75 -254.2 18.45 L-254.7 18.75 -255.5 19.0 -255.7 19.0 -255.5 19.0 M-237.3 13.05 L-236.55 15.95 -236.4 16.5 Q-235.85 18.95 -236.4 19.95 L-236.9 20.6 Q-237.65 21.4 -239.1 22.2 -237.65 21.4 -236.9 20.6 L-236.4 19.95 Q-235.85 18.95 -236.4 16.5 L-236.55 15.95 -237.3 13.05 M-251.2 8.45 L-251.8 8.35 -251.2 8.45 M-247.45 19.8 L-245.8 17.75 -245.45 17.2 -245.05 16.4 Q-243.95 13.9 -244.7 11.4 L-244.7 11.3 -244.7 11.4 Q-243.95 13.9 -245.05 16.4 L-245.45 17.2 -245.8 17.75 -247.45 19.8" fill="#ffffff" fill-opacity="0.0" fill-rule="evenodd" stroke="none"/>
    <path d="M305.1 -50.6 L304.55 -51.65 Q304.15 -52.55 306.9 -53.25 L309.8 -53.8 309.8 -53.45 M310.85 -54.0 L310.9 -54.0 M309.7 -52.55 L309.6 -51.7 309.5 -51.25 Q309.05 -49.35 308.15 -48.55 307.1 -47.65 306.0 -49.05 L305.9 -49.2 M303.95 -47.45 L306.05 -46.35 Q308.15 -45.75 310.05 -46.9 L310.65 -47.4 Q311.5 -48.3 312.5 -50.3 L313.75 -52.55 Q314.55 -53.8 315.5 -54.5 L322.2 -59.95 320.05 -61.6 Q313.35 -57.1 310.25 -56.15 306.85 -55.5 304.35 -54.5 299.55 -52.5 301.5 -50.0 L302.35 -48.95 M146.15 43.7 L145.85 44.8 145.7 45.55 154.05 56.95 156.35 59.65 157.9 61.3 Q160.45 64.05 162.9 66.1 L164.8 67.6 Q168.3 70.2 171.35 71.2 L173.65 70.95 Q176.1 70.25 177.05 67.85 L157.1 39.35 155.25 38.75 M146.0 43.75 L145.2 43.9 Q144.45 43.85 143.85 42.3 L143.8 42.25 Q143.45 41.55 143.25 40.2 L143.1 39.05 143.1 39.0 Q142.7 36.2 147.2 34.4 151.55 32.65 153.3 34.15 L154.65 35.3 Q155.95 36.65 155.65 37.7 L155.25 38.7 M-302.3 -51.1 L-300.35 -51.3 -302.5 -53.3 Q-304.7 -55.7 -305.25 -57.4 -306.25 -60.7 -307.05 -61.65 L-307.95 -62.4 Q-309.65 -63.45 -312.6 -62.7 -310.8 -61.8 -311.0 -60.6 L-309.05 -60.45 Q-308.55 -60.1 -308.55 -59.55 -308.6 -59.15 -308.8 -58.85 -309.45 -57.85 -311.8 -57.4 -314.6 -56.8 -315.8 -57.4 -316.7 -57.75 -315.65 -58.45 L-314.85 -58.85 -314.25 -59.15 -316.0 -61.3 Q-317.75 -60.3 -318.8 -58.85 -320.65 -56.15 -317.85 -55.35 L-311.8 -54.25 Q-308.35 -53.75 -307.85 -52.95 L-305.5 -49.4 -304.65 -49.95 M-304.1 -50.4 L-302.55 -51.05 M-316.0 -61.3 L-318.5 -64.3 -318.55 -64.35 -322.2 -69.05 Q-321.6 -70.9 -320.7 -71.25 L-317.75 -67.65 -314.75 -64.35 -312.6 -62.7 M-314.25 -59.15 L-313.9 -58.85 Q-313.45 -58.55 -312.6 -58.85 L-312.0 -59.15 Q-311.3 -59.6 -311.1 -60.3 L-311.0 -60.6 M-244.65 11.35 L-237.3 13.05 -236.1 12.15 -235.2 12.0 Q-234.3 12.05 -233.5 13.05 -232.3 14.55 -230.2 14.2 L-229.95 14.15 -228.3 13.55 -223.5 14.5 -216.35 14.95 -212.1 16.4 Q-210.5 16.95 -209.2 19.85 L-206.45 20.45 Q-202.7 21.45 -202.6 22.55 -202.3 25.45 -202.6 27.0 L-202.75 27.6 -203.05 28.25 -203.15 28.4 Q-203.8 29.3 -204.8 29.65 L-205.75 29.8 -208.25 29.25 -209.0 29.75 M-209.05 29.8 Q-210.8 27.55 -213.8 25.45 -218.05 22.55 -221.5 22.2 -223.3 22.1 -220.9 24.9 L-217.8 28.0 M-219.25 27.9 Q-221.7 26.15 -224.7 24.35 -230.65 20.8 -233.3 20.8 -236.0 20.8 -230.2 25.55 L-229.5 26.1 -231.75 25.3 -235.9 24.4 -236.9 24.15 Q-238.7 23.5 -239.35 22.35 L-239.1 22.2 -247.45 19.8 M-247.5 19.85 L-248.1 20.4 -249.3 21.35 -255.7 19.0 Q-256.85 19.0 -257.5 17.5 -258.55 15.2 -257.25 11.75 -256.45 9.65 -254.8 8.85 L-254.0 8.55 -253.55 8.45 -252.8 8.35 -251.8 8.35 -251.8 8.3 -245.85 9.0 -244.8 11.0 -244.75 11.25 M-209.2 19.85 L-208.15 22.75 Q-207.4 25.35 -207.45 27.0 -207.55 28.45 -208.25 29.25 M-255.5 19.0 L-255.7 19.0 M-251.8 8.35 L-251.2 8.45" fill="none" stroke="#000000" stroke-linecap="butt" stroke-linejoin="miter-clip" stroke-miterlimit="10.0" stroke-width="1.0"/>
    <path d="M155.25 38.75 L153.45 40.9 Q152.35 41.8 150.8 42.5 L149.85 42.85 146.15 43.7 146.0 43.75 M155.25 38.7 L155.25 38.75 M153.3 34.15 Q151.4 36.1 149.1 37.25 146.9 38.3 144.8 38.75 L143.1 39.0 M-247.45 19.8 L-247.5 19.85 M-239.1 22.2 Q-237.65 21.4 -236.9 20.6 L-236.4 19.95 Q-235.85 18.95 -236.4 16.5 L-236.55 15.95 -237.3 13.05 M-251.2 8.45 Q-250.3 9.25 -250.4 11.0 L-250.55 12.2 -250.75 13.0 -250.9 13.4 Q-251.45 15.15 -252.2 16.4 -253.05 17.75 -254.2 18.45 L-254.7 18.75 -255.5 19.0 M-244.7 11.3 L-244.7 11.4 Q-243.95 13.9 -245.05 16.4 L-245.45 17.2 -245.8 17.75 -247.45 19.8" fill="none" stroke="#000000" stroke-linecap="butt" stroke-linejoin="miter-clip" stroke-miterlimit="10.0" stroke-opacity="0.6" stroke-width="1.0"/>
  </g>
</svg>
