<?xml version="1.0" encoding="UTF-8" standalone="no"?>
<svg xmlns:xlink="http://www.w3.org/1999/xlink" height="8.7px" width="14.55px" xmlns="http://www.w3.org/2000/svg">
  <g transform="matrix(1.0, 0.0, 0.0, 1.0, 7.0, 4.5)">
    <path d="M1.05 -2.95 Q2.05 -3.45 2.85 -3.6 L3.4 -3.65 4.15 -3.1 Q4.75 -2.45 4.6 -1.35 4.55 -0.6 3.85 0.15 L1.9 1.5 Q0.65 2.1 -0.9 2.3 L-4.35 2.15 -4.5 2.0 -5.4 0.45 Q-5.75 -1.05 -5.1 -1.85 -4.7 -2.4 -3.8 -2.6 L-3.4 -2.6 -2.55 -2.6 -1.5 -2.25 -0.5 -2.0 0.1 -2.2 0.55 -2.5 1.05 -2.95 M-0.6 3.7 L-2.3 3.4 -1.65 3.55 -0.6 3.7 M-5.2 -0.15 Q-5.15 -0.05 -4.9 -0.4 L-4.65 -0.85 -4.4 -1.4 Q-4.05 -2.05 -3.05 -2.2 L-4.1 -2.05 Q-5.1 -1.65 -5.2 -0.35 L-5.2 -0.15" fill="#ffffff" fill-opacity="0.0" fill-rule="evenodd" stroke="none"/>
    <path d="M1.05 -2.95 L0.55 -2.5 0.1 -2.2 -0.5 -2.0 -1.5 -2.25 -2.55 -2.6 -3.4 -2.6 -3.8 -2.6 -2.3 -2.75 -1.1 -2.55 -0.9 -2.5 -0.8 -2.55 -0.45 -2.75 -0.2 -2.75 0.0 -2.65 0.3 -2.65 1.1 -3.0 1.05 -2.95" fill="#000000" fill-opacity="0.4" fill-rule="evenodd" stroke="none"/>
    <path d="M-4.35 2.15 L-0.9 2.3 Q0.65 2.1 1.9 1.5 L3.85 0.15 Q4.55 -0.6 4.6 -1.35 4.75 -2.45 4.15 -3.1 L3.4 -3.65 Q4.55 -3.65 5.1 -2.65 L5.5 -1.1 Q5.55 -0.25 5.2 0.55 4.4 2.45 1.95 3.3 L0.1 3.7 -0.6 3.7 -1.65 3.55 -2.3 3.4 -2.7 3.25 -3.65 2.7 -4.35 2.15 -2.7 3.25 -4.35 2.15" fill="#000000" fill-opacity="0.2" fill-rule="evenodd" stroke="none"/>
    <path d="M-5.2 -0.15 L-5.2 -0.35 Q-5.1 -1.65 -4.1 -2.05 L-3.05 -2.2 Q-4.05 -2.05 -4.4 -1.4 L-4.65 -0.85 -4.9 -0.4 Q-5.15 -0.05 -5.2 -0.15" fill="#ffffff" fill-opacity="0.6" fill-rule="evenodd" stroke="none"/>
    <path d="M3.4 -3.65 L2.85 -3.6 Q2.05 -3.45 1.05 -2.95 L0.55 -2.5 0.1 -2.2 -0.5 -2.0 -1.5 -2.25 -2.55 -2.6 -3.4 -2.6 -3.8 -2.6 Q-4.7 -2.4 -5.1 -1.85 -5.75 -1.05 -5.4 0.45 L-4.5 2.0 -4.35 2.15 M3.4 -3.65 Q4.55 -3.65 5.1 -2.65 L5.5 -1.1 Q5.55 -0.25 5.2 0.55 4.4 2.45 1.95 3.3 L0.1 3.7 -0.6 3.7 -2.3 3.4 M1.05 -2.95 L1.1 -3.0 0.3 -2.65 0.0 -2.65 -0.2 -2.75 -0.45 -2.75 -0.8 -2.55 -0.9 -2.5 -1.1 -2.55 -2.3 -2.75 -3.8 -2.6" fill="none" stroke="#000000" stroke-linecap="butt" stroke-linejoin="miter-clip" stroke-miterlimit="10.0" stroke-opacity="0.6" stroke-width="1.0"/>
    <path d="M-2.3 3.4 L-2.7 3.25 -4.35 2.15" fill="none" stroke="#4c4c4c" stroke-linecap="round" stroke-linejoin="round" stroke-opacity="0.6" stroke-width="1.0"/>
  </g>
</svg>
