<?xml version="1.0" encoding="UTF-8" standalone="no"?>
<svg xmlns:xlink="http://www.w3.org/1999/xlink" height="120.15px" width="309.5px" xmlns="http://www.w3.org/2000/svg">
  <g transform="matrix(1.0, 0.0, 0.0, 1.0, 154.75, 60.05)">
    <path d="M132.65 41.2 L129.35 53.1 Q82.65 59.6 25.9 59.6 -20.65 59.6 -71.3 55.3 -104.2 52.5 -133.75 48.4 L-136.5 36.55 Q-87.05 43.75 -31.9 46.7 61.95 51.7 132.65 41.2" fill="#ffffff" fill-opacity="0.0" fill-rule="evenodd" stroke="none"/>
    <path d="M129.35 53.1 L132.65 41.2 M-136.5 36.55 L-133.75 48.4" fill="none" stroke="#000000" stroke-linecap="butt" stroke-linejoin="miter-clip" stroke-miterlimit="10.0" stroke-width="1.0"/>
    <path d="M132.65 41.2 Q61.95 51.7 -31.9 46.7 -87.05 43.75 -136.5 36.55 M-133.75 48.4 Q-104.2 52.5 -71.3 55.3 -20.65 59.6 25.9 59.6 82.65 59.6 129.35 53.1 Z" fill="none" stroke="#000000" stroke-linecap="butt" stroke-linejoin="miter-clip" stroke-miterlimit="10.0" stroke-opacity="0.6" stroke-width="1.0"/>
    <path d="M140.05 12.0 L137.15 23.75 Q89.35 29.4 32.0 29.4 -18.1 29.4 -72.55 25.15 -108.4 22.4 -140.3 18.3 L-142.6 6.55 Q-89.85 13.5 -31.65 16.45 65.45 21.3 140.05 12.0" fill="#ffffff" fill-opacity="0.0" fill-rule="evenodd" stroke="none"/>
    <path d="M137.15 23.75 L140.05 12.0 M-142.6 6.55 L-140.3 18.3" fill="none" stroke="#000000" stroke-linecap="butt" stroke-linejoin="miter-clip" stroke-miterlimit="10.0" stroke-width="1.0"/>
    <path d="M140.05 12.0 Q65.45 21.3 -31.65 16.45 -89.85 13.5 -142.6 6.55 M-140.3 18.3 Q-108.4 22.4 -72.55 25.15 -18.1 29.4 32.0 29.4 89.35 29.4 137.15 23.75 Z" fill="none" stroke="#000000" stroke-linecap="butt" stroke-linejoin="miter-clip" stroke-miterlimit="10.0" stroke-opacity="0.6" stroke-width="1.0"/>
    <path d="M154.25 -59.55 L152.35 -47.85 Q87.45 -39.0 5.8 -39.0 -39.85 -39.0 -88.2 -41.8 -121.6 -43.7 -152.35 -46.65 L-153.15 -51.4 Q-154.4 -55.55 -154.2 -58.2 -92.9 -52.15 -28.3 -50.7 75.35 -48.4 154.25 -59.55" fill="#ffffff" fill-opacity="0.0" fill-rule="evenodd" stroke="none"/>
    <path d="M152.35 -47.85 L154.25 -59.55 M-154.2 -58.2 Q-154.4 -55.55 -153.15 -51.4 L-152.35 -46.65" fill="none" stroke="#000000" stroke-linecap="butt" stroke-linejoin="miter-clip" stroke-miterlimit="10.0" stroke-width="1.0"/>
    <path d="M154.25 -59.55 Q75.35 -48.4 -28.3 -50.7 -92.9 -52.15 -154.2 -58.2 M-152.35 -46.65 Q-121.6 -43.7 -88.2 -41.8 -39.85 -39.0 5.8 -39.0 87.45 -39.0 152.35 -47.85 Z" fill="none" stroke="#000000" stroke-linecap="butt" stroke-linejoin="miter-clip" stroke-miterlimit="10.0" stroke-opacity="0.6" stroke-width="1.0"/>
    <path d="M103.9 -52.3 L111.6 -53.1 111.05 -44.6 104.45 -44.0 103.9 -52.3" fill="#ffffff" fill-opacity="0.6" fill-rule="evenodd" stroke="none"/>
    <path d="M103.9 26.1 L103.65 17.15 111.6 16.4 111.05 25.65 103.9 26.1" fill="#ffffff" fill-opacity="0.6" fill-rule="evenodd" stroke="none"/>
    <path d="M103.65 46.05 L111.6 45.5 111.05 54.55 104.45 55.0 103.65 46.05" fill="#ffffff" fill-opacity="0.6" fill-rule="evenodd" stroke="none"/>
  </g>
</svg>
