<?xml version="1.0" encoding="UTF-8" standalone="no"?>
<svg xmlns:xlink="http://www.w3.org/1999/xlink" height="543.85px" width="1171.6px" xmlns="http://www.w3.org/2000/svg">
  <g transform="matrix(1.0, 0.0, 0.0, 1.0, 585.85, 271.8)">
    <path d="M204.75 -145.15 L36.8 -145.15 36.8 180.8 204.75 180.8 204.75 -145.15 M287.75 -160.35 Q280.15 -160.35 274.85 -152.2 269.5 -143.95 269.5 -132.35 L269.5 48.85 Q269.5 60.45 274.85 68.7 280.15 76.85 287.75 76.85 L510.4 76.85 Q518.0 76.85 523.3 68.7 528.6 60.45 528.6 48.85 L528.6 -132.35 Q528.6 -143.95 523.3 -152.2 518.0 -160.35 510.4 -160.35 L287.75 -160.35 M-461.65 -133.85 L-448.55 -166.1 Q-421.5 -220.0 -346.0 -251.05 -308.15 -266.55 -275.8 -271.3 L585.25 -271.3 585.25 271.3 -402.65 271.3 Q-454.95 267.9 -513.65 246.35 -531.95 239.6 -548.7 231.8 L-561.8 225.4 Q-588.8 198.35 -584.8 164.65 -583.5 154.1 -579.25 144.1 L-549.1 73.6 -549.0 73.6 -505.15 73.5 -498.1 70.25 Q-490.0 64.7 -484.9 53.3 L-407.95 -155.25 -452.45 -155.25 -461.65 -133.85 M-324.4 -160.35 Q-333.3 -160.35 -339.6 -152.2 -345.9 -143.95 -345.9 -132.35 L-345.9 48.85 Q-345.9 60.45 -339.6 68.7 -333.3 76.85 -324.4 76.85 L-62.4 76.85 Q-53.5 76.85 -47.2 68.7 -40.9 60.45 -40.9 48.85 L-40.9 -132.35 Q-40.9 -143.95 -47.2 -152.2 -53.5 -160.35 -62.4 -160.35 L-324.4 -160.35" fill="#ffffff" fill-opacity="0.0" fill-rule="evenodd" stroke="none"/>
    <path d="M287.75 -160.35 L510.4 -160.35 Q518.0 -160.35 523.3 -152.2 528.6 -143.95 528.6 -132.35 L528.6 48.85 Q528.6 60.45 523.3 68.7 518.0 76.85 510.4 76.85 L287.75 76.85 Q280.15 76.85 274.85 68.7 269.5 60.45 269.5 48.85 L269.5 -132.35 Q269.5 -143.95 274.85 -152.2 280.15 -160.35 287.75 -160.35 M204.75 -145.15 L204.75 180.8 36.8 180.8 36.8 -145.15 204.75 -145.15 M-324.4 -160.35 L-62.4 -160.35 Q-53.5 -160.35 -47.2 -152.2 -40.9 -143.95 -40.9 -132.35 L-40.9 48.85 Q-40.9 60.45 -47.2 68.7 -53.5 76.85 -62.4 76.85 L-324.4 76.85 Q-333.3 76.85 -339.6 68.7 -345.9 60.45 -345.9 48.85 L-345.9 -132.35 Q-345.9 -143.95 -339.6 -152.2 -333.3 -160.35 -324.4 -160.35" fill="none" stroke="#000000" stroke-linecap="butt" stroke-linejoin="miter-clip" stroke-miterlimit="10.0" stroke-opacity="0.6" stroke-width="1.0"/>
    <path d="M-549.0 73.6 L-549.1 73.6 -579.25 144.1 Q-583.5 154.1 -584.8 164.65 -588.8 198.35 -561.8 225.4 L-548.7 231.8 Q-531.95 239.6 -513.65 246.35 -454.95 267.9 -402.65 271.3 L585.25 271.3 585.25 -271.3 -275.8 -271.3 Q-308.15 -266.55 -346.0 -251.05 -421.5 -220.0 -448.55 -166.1 L-461.65 -133.85 -549.0 73.6" fill="none" stroke="#000000" stroke-linecap="round" stroke-linejoin="miter-clip" stroke-miterlimit="10.0" stroke-width="1.0"/>
    <path d="M-461.65 -133.85 L-452.45 -155.25" fill="none" stroke="#000000" stroke-linecap="round" stroke-linejoin="miter-clip" stroke-miterlimit="10.0" stroke-width="1.0"/>
    <path d="M-452.45 -155.25 L-407.95 -155.25 -484.9 53.3 Q-490.0 64.7 -498.1 70.25 L-505.15 73.5 -549.0 73.6" fill="none" stroke="#000000" stroke-linecap="butt" stroke-linejoin="miter-clip" stroke-miterlimit="10.0" stroke-opacity="0.6" stroke-width="1.0"/>
    <path d="M582.0 268.05 L-402.65 268.05 Q-452.2 264.75 -508.4 244.7 -538.9 233.75 -559.95 222.65 L-565.5 216.5 582.0 216.5 582.0 268.05" fill="#000000" fill-opacity="0.2" fill-rule="evenodd" stroke="none"/>
    <path d="M-532.2 236.15 L585.25 236.15" fill="none" stroke="#000000" stroke-linecap="butt" stroke-linejoin="miter-clip" stroke-miterlimit="10.0" stroke-opacity="0.6" stroke-width="1.0"/>
    <path d="M237.3 271.55 L5.1 271.55 5.1 -187.25 237.3 -187.25 237.3 271.55 Z" fill="none" stroke="#000000" stroke-linecap="butt" stroke-linejoin="miter-clip" stroke-miterlimit="10.0" stroke-width="1.0"/>
    <path d="M-372.9 -171.4 L-370.2 -177.45 Q-366.2 -184.95 -359.45 -191.7 -337.85 -213.3 -297.4 -220.0 L577.2 -220.0" fill="none" stroke="#000000" stroke-linecap="butt" stroke-linejoin="miter-clip" stroke-miterlimit="10.0" stroke-opacity="0.6" stroke-width="1.0"/>
  </g>
</svg>
