<?xml version="1.0" encoding="UTF-8" standalone="no"?>
<svg xmlns:xlink="http://www.w3.org/1999/xlink" height="241.95px" width="97.2px" xmlns="http://www.w3.org/2000/svg">
  <g transform="matrix(1.0, 0.0, 0.0, 1.0, 52.0, 121.05)">
    <path d="M14.75 -104.6 Q14.9 -106.1 15.8 -107.05 16.7 -108.05 18.1 -108.1 19.55 -108.05 20.45 -107.05 21.4 -106.1 21.4 -104.6 21.4 -103.1 20.45 -102.15 19.55 -101.15 18.1 -101.1 16.7 -101.15 15.65 -102.15 14.7 -103.1 14.75 -104.6 M18.1 -105.9 Q18.05 -106.85 17.15 -106.95 16.15 -106.85 16.1 -105.9 16.15 -105.0 17.15 -104.85 18.05 -105.0 18.1 -105.9" fill="#000000" fill-opacity="0.8980392" fill-rule="evenodd" stroke="none"/>
    <path d="M18.1 -105.9 Q18.05 -105.0 17.15 -104.85 16.15 -105.0 16.1 -105.9 16.15 -106.85 17.15 -106.95 18.05 -106.85 18.1 -105.9" fill="#ffffff" fill-opacity="0.7490196" fill-rule="evenodd" stroke="none"/>
    <path d="M14.75 -104.6 Q14.7 -103.1 15.65 -102.15 16.7 -101.15 18.1 -101.1 19.55 -101.15 20.45 -102.15 21.4 -103.1 21.4 -104.6 21.4 -106.1 20.45 -107.05 19.55 -108.05 18.1 -108.1 16.7 -108.05 15.8 -107.05 14.9 -106.1 14.75 -104.6" fill="none" stroke="#ffffff" stroke-linecap="round" stroke-linejoin="round" stroke-opacity="0.49803922" stroke-width="1.0"/>
    <path d="M-19.6 22.15 Q-22.35 30.5 -25.7 46.3 -28.8 57.9 -32.05 54.55 -35.3 51.15 -37.35 40.75 -39.45 30.35 -39.0 21.3 L-35.2 14.35 -32.45 8.8 Q-25.5 -5.95 -20.95 -22.6 -30.45 -58.9 -15.7 -89.7" fill="none" stroke="#000000" stroke-linecap="round" stroke-linejoin="round" stroke-opacity="0.4" stroke-width="1.0"/>
    <path d="M28.85 -97.9 Q27.9 -93.05 26.9 -91.8 26.65 -91.5 27.35 -88.15 L29.1 -79.55 Q31.7 -64.85 30.3 -51.3 25.75 -6.6 -19.5 21.95 -19.9 22.25 -19.7 59.1 L-19.5 85.6 -19.4 95.9 -20.35 98.75 Q-22.0 101.55 -25.4 101.35 -25.4 103.5 -27.4 106.0 -30.15 109.45 -34.8 109.9 -36.0 116.6 -40.65 119.15 -42.95 120.45 -45.0 120.4 L-39.0 21.3 -42.95 28.1 Q-45.35 32.0 -46.5 33.1 -49.75 36.25 -50.9 33.4 -51.6 31.55 -51.45 26.85 L-48.15 2.9 Q-44.8 -20.7 -44.7 -25.45 -43.6 -68.2 -15.7 -89.7 -12.05 -92.55 -7.9 -95.0 -5.75 -104.65 -0.65 -111.65 7.6 -122.95 19.8 -119.9 28.8 -117.65 30.65 -111.3 31.2 -109.35 31.0 -107.2 L30.65 -105.45 30.7 -105.45 Q30.8 -103.6 25.3 -101.8 28.7 -100.45 28.85 -97.95 L28.85 -97.9" fill="#ffffff" fill-opacity="0.0" fill-rule="evenodd" stroke="none"/>
    <path d="M28.85 -97.95 Q28.7 -100.45 25.3 -101.8 30.8 -103.6 30.7 -105.45 37.7 -103.9 44.7 -99.4 35.6 -99.55 28.85 -97.95 M25.3 -101.8 Q34.35 -101.35 44.7 -99.4 34.35 -101.35 25.3 -101.8" fill="#ffffff" fill-opacity="0.49803922" fill-rule="evenodd" stroke="none"/>
    <path d="M30.7 -105.45 L30.65 -105.45 31.0 -107.2 Q31.2 -109.35 30.65 -111.3 28.8 -117.65 19.8 -119.9 7.6 -122.95 -0.65 -111.65 -5.75 -104.65 -7.9 -95.0 -12.05 -92.55 -15.7 -89.7 -43.6 -68.2 -44.7 -25.45 -44.8 -20.7 -48.15 2.9 L-51.45 26.85 Q-51.6 31.55 -50.9 33.4 -49.75 36.25 -46.5 33.1 -45.35 32.0 -42.95 28.1 L-39.0 21.3 -45.0 120.4 Q-42.95 120.45 -40.65 119.15 -36.0 116.6 -34.8 109.9 -30.15 109.45 -27.4 106.0 -25.4 103.5 -25.4 101.35 -22.0 101.55 -20.35 98.75 L-19.4 95.9 -19.5 85.6 -19.7 59.1 Q-19.9 22.25 -19.5 21.95 25.75 -6.6 30.3 -51.3 31.7 -64.85 29.1 -79.55 L27.35 -88.15 Q26.65 -91.5 26.9 -91.8 27.9 -93.05 28.85 -97.9 M30.7 -105.45 Q37.7 -103.9 44.7 -99.4 35.6 -99.55 28.85 -97.95" fill="none" stroke="#000000" stroke-linecap="round" stroke-linejoin="round" stroke-width="1.0"/>
    <path d="M28.85 -97.9 L28.85 -97.95 M25.3 -101.8 Q30.8 -103.6 30.7 -105.45 M44.7 -99.4 Q34.35 -101.35 25.3 -101.8" fill="none" stroke="#000000" stroke-linecap="round" stroke-linejoin="round" stroke-opacity="0.4" stroke-width="1.0"/>
  </g>
</svg>
