<?xml version="1.0" encoding="UTF-8" standalone="no"?>
<svg xmlns:xlink="http://www.w3.org/1999/xlink" height="20.05px" width="58.4px" xmlns="http://www.w3.org/2000/svg">
  <g transform="matrix(1.0, 0.0, 0.0, 1.0, 29.2, 10.0)">
    <path d="M0.8 -1.0 Q0.9 0.4 1.15 1.35 L2.8 -8.05 6.9 -8.8 Q4.4 0.75 3.65 7.9 L-0.15 8.9 -1.65 4.5 -2.0 3.4 -2.8 8.9 -6.7 10.05 -3.55 -8.0 0.6 -8.8 0.55 -6.75 Q0.55 -3.4 0.8 -1.0 M14.5 -4.1 Q12.9 -4.1 11.4 -1.9 10.35 -0.25 9.8 1.85 L9.6 3.3 Q9.6 4.25 10.1 4.85 10.65 5.5 11.6 5.5 12.8 5.5 13.75 4.5 L14.95 2.45 11.65 3.2 12.45 -0.35 18.8 -1.7 Q18.85 -0.15 18.15 1.9 L16.5 5.1 Q13.75 9.45 9.9 9.45 7.35 9.45 6.2 6.8 5.7 5.3 5.7 3.65 5.7 2.05 6.2 0.1 7.05 -3.1 9.25 -5.9 11.8 -9.2 14.8 -9.2 17.3 -9.2 18.45 -6.4 L15.75 -3.5 Q15.3 -4.1 14.5 -4.1 M26.25 -3.45 Q25.0 -0.75 24.05 2.45 L20.7 2.35 24.25 -10.0 29.2 -9.1 Q27.2 -5.55 26.25 -3.45 M22.6 8.45 Q21.65 9.15 20.6 9.3 L19.1 9.1 Q18.35 8.75 18.35 7.95 18.35 6.85 19.5 5.8 20.4 5.05 21.5 4.95 L23.05 5.15 Q23.8 5.55 23.8 6.5 23.8 7.55 22.6 8.45 M-20.85 -9.15 L-20.05 -9.15 Q-16.8 -9.15 -16.8 -6.95 -16.8 -3.7 -20.8 -0.6 -18.35 -0.75 -17.85 0.8 L-17.8 1.55 Q-17.8 3.3 -19.65 5.1 -20.9 6.65 -22.8 7.7 -25.2 8.95 -28.15 8.95 L-29.2 8.95 Q-28.15 4.0 -27.05 -4.3 L-26.6 -8.0 -23.8 -8.6 -20.85 -9.15 M-23.1 -2.8 L-23.55 -1.25 Q-21.7 -2.3 -21.0 -3.7 L-20.85 -4.3 Q-20.85 -4.7 -21.45 -4.7 L-22.75 -4.45 -23.1 -2.8 M-6.3 -9.45 Q-7.6 -2.1 -7.5 7.85 L-12.55 9.0 -12.2 6.05 -13.85 6.35 -14.35 8.45 -19.45 9.2 Q-15.85 0.15 -13.7 -8.15 L-6.3 -9.45 M-11.8 2.8 L-10.75 -6.25 -12.95 3.0 -11.8 2.8 M-21.15 2.15 Q-21.15 1.65 -21.95 1.65 L-24.15 2.0 -24.55 4.45 Q-21.15 3.45 -21.15 2.15" fill="#000000" fill-rule="evenodd" stroke="none"/>
  </g>
</svg>
