<?xml version="1.0" encoding="UTF-8" standalone="no"?>
<svg xmlns:xlink="http://www.w3.org/1999/xlink" height="2133.1px" width="1244.95px" xmlns="http://www.w3.org/2000/svg">
  <g transform="matrix(1.0, 0.0, 0.0, 1.0, 622.45, 1066.55)">
    <path d="M-595.05 667.6 Q-596.35 -604.85 -621.95 -1063.35 L622.0 -1066.05 578.55 665.25 -595.05 667.6 M577.6 701.65 L575.9 769.2 -73.65 769.2 -595.0 763.85 -595.0 702.3 577.6 701.65 M575.05 803.95 L573.7 857.75 431.95 860.15 -73.65 860.15 -595.0 852.1 -595.0 798.6 -73.65 806.65 94.9 806.65 575.05 803.95 M572.75 894.9 L571.1 961.35 429.3 959.1 -76.3 959.1 -595.05 953.15 -595.0 889.55 -73.65 897.6 94.9 897.6 572.75 894.9 M570.25 993.9 L568.5 1063.4 -595.2 1066.05 -595.1 988.55 -76.3 996.55 92.2 996.55 570.25 993.9" fill="#ffffff" fill-opacity="0.0" fill-rule="evenodd" stroke="none"/>
    <path d="M578.55 665.25 L577.6 701.65 -595.0 702.3 -595.3 702.3 -595.3 667.55 -595.05 667.6 578.55 665.25 M575.9 769.2 L575.05 803.95 94.9 806.65 -73.65 806.65 -595.0 798.6 -595.3 798.6 -595.3 763.85 -595.0 763.85 -73.65 769.2 575.9 769.2 M573.7 857.75 L572.75 894.9 94.9 897.6 -73.65 897.6 -595.0 889.55 -595.3 889.55 -595.3 852.1 -595.0 852.1 -73.65 860.15 431.95 860.15 573.7 857.75 M571.1 961.35 L570.25 993.9 92.2 996.55 -76.3 996.55 -595.1 988.55 -595.05 953.15 -76.3 959.1 429.3 959.1 571.1 961.35" fill="#000000" fill-opacity="0.09803922" fill-rule="evenodd" stroke="none"/>
    <path d="M-595.05 667.6 Q-596.35 -604.85 -621.95 -1063.35 L622.0 -1066.05 578.55 665.25 577.6 701.65 575.9 769.2 575.05 803.95 573.7 857.75 572.75 894.9 571.1 961.35 570.25 993.9 568.5 1063.4 -595.2 1066.05 -595.1 988.55 -595.05 953.15 -595.0 889.55 -595.3 889.55 -595.3 852.1 -595.0 852.1 -595.0 798.6 -595.3 798.6 -595.3 763.85 -595.0 763.85 -595.0 702.3 -595.3 702.3 -595.3 667.55 -595.05 667.6" fill="none" stroke="#000000" stroke-linecap="round" stroke-linejoin="round" stroke-width="1.0"/>
    <path d="M-595.05 667.6 L578.55 665.25 M575.9 769.2 L-73.65 769.2 -595.0 763.85 M-595.0 702.3 L577.6 701.65 M573.7 857.75 L431.95 860.15 -73.65 860.15 -595.0 852.1 M571.1 961.35 L429.3 959.1 -76.3 959.1 -595.05 953.15 M-595.0 889.55 L-73.65 897.6 94.9 897.6 572.75 894.9 M-595.1 988.55 L-76.3 996.55 92.2 996.55 570.25 993.9 M-595.0 798.6 L-73.65 806.65 94.9 806.65 575.05 803.95" fill="none" stroke="#000000" stroke-linecap="round" stroke-linejoin="round" stroke-opacity="0.2" stroke-width="1.0"/>
  </g>
</svg>
