<?xml version="1.0" encoding="UTF-8" standalone="no"?>
<svg xmlns:xlink="http://www.w3.org/1999/xlink" height="484.5px" width="1526.35px" xmlns="http://www.w3.org/2000/svg">
  <g transform="matrix(1.0, 0.0, 0.0, 1.0, 0.5, 0.6)">
    <path d="M1274.85 252.8 L1168.75 304.35 1338.55 196.25 1274.85 252.8" fill="#000000" fill-opacity="0.29803923" fill-rule="evenodd" stroke="none"/>
    <path d="M1436.0 89.2 L1462.85 88.15 1524.25 113.1 1525.35 167.95 1525.35 483.4 1.55 459.05 0.0 360.9 42.45 234.5 172.8 206.25 207.7 187.95 224.35 201.25 248.6 172.95 274.4 161.3 281.8 171.3 Q289.0 181.25 288.05 181.25 287.65 181.25 289.95 193.75 292.2 206.25 289.55 206.25 286.7 206.25 274.95 220.4 L263.8 234.5 259.25 261.1 250.15 296.05 301.65 262.8 318.35 261.1 313.8 286.05 348.65 289.4 375.95 291.05 406.25 306.0 395.65 332.65 368.35 337.65 366.85 379.2 395.65 345.95 418.4 335.95 438.1 334.3 457.8 352.6 456.3 382.55 471.45 344.3 503.3 347.6 526.05 350.95 541.2 362.55 550.3 399.15 568.45 397.5 563.9 364.25 580.6 389.2 612.45 384.2 627.6 359.25 665.5 317.65 677.6 321.0 721.55 324.3 695.8 357.6 683.65 382.55 750.35 357.6 806.45 364.25 845.9 302.7 873.15 244.45 883.75 271.1 942.9 224.5 1027.8 134.7 1027.8 181.25 1032.35 214.55 1077.8 161.3 1067.2 111.4 1117.2 84.8 1130.85 116.4 1096.0 211.2 1045.95 257.8 1197.55 174.6 1236.95 123.05 1283.95 128.05 1278.9 149.4 962.6 317.65 Q968.65 360.9 970.2 367.55 971.15 371.7 1060.15 354.35 1104.65 345.7 1148.95 336.2 L1291.55 262.8 1302.15 231.15 1318.05 224.65 1409.8 287.7 1488.55 319.35 1402.2 236.15 1402.2 167.95 1436.0 89.2 M1103.55 312.65 L1164.2 274.4 1042.95 321.0 1206.65 232.85 1326.4 161.3 1233.95 242.8 Q1168.75 277.75 1103.55 312.65" fill="#000000" fill-opacity="0.09803922" fill-rule="evenodd" stroke="none"/>
    <path d="M1436.0 89.2 L1402.2 167.95 1402.2 236.15 1488.55 319.35 1409.8 287.7 1318.05 224.65 1302.15 231.15 1291.55 262.8 1148.95 336.2 Q1104.65 345.7 1060.15 354.35 971.15 371.7 970.2 367.55 968.65 360.9 962.6 317.65 L1278.9 149.4 1283.95 128.05 1236.95 123.05 1197.55 174.6 1045.95 257.8 1096.0 211.2 1130.85 116.4 1117.2 84.8 1067.2 111.4 1077.8 161.3 1032.35 214.55 1027.8 181.25 1027.8 134.7 942.9 224.5 883.75 271.1 873.15 244.45 845.9 302.7 806.45 364.25 750.35 357.6 683.65 382.55 695.8 357.6 721.55 324.3 677.6 321.0 665.5 317.65 627.6 359.25 612.45 384.2 580.6 389.2 563.9 364.25 568.45 397.5 550.3 399.15 541.2 362.55 526.05 350.95 503.3 347.6 471.45 344.3 456.3 382.55 457.8 352.6 438.1 334.3 418.4 335.95 395.65 345.95 366.85 379.2 368.35 337.65 395.65 332.65 406.25 306.0 375.95 291.05 348.65 289.4 313.8 286.05 318.35 261.1 301.65 262.8 250.15 296.05 259.25 261.1 263.8 234.5 274.95 220.4 Q286.7 206.25 289.55 206.25 292.2 206.25 289.95 193.75 287.65 181.25 288.05 181.25 289.0 181.25 281.8 171.3 L274.4 161.3 289.55 169.65 297.15 187.95 307.75 222.85 336.55 251.15 372.9 276.1 398.7 274.4 419.9 281.05 445.7 304.35 450.25 321.0 495.7 321.0 Q524.5 301.05 529.05 299.35 531.9 298.3 548.95 297.9 L565.45 297.7 577.55 307.7 Q602.95 301.05 627.95 293.95 678.0 279.8 676.1 277.75 674.2 275.65 696.2 275.65 L718.55 276.1 729.15 289.4 780.7 271.1 829.2 241.15 868.6 237.8 1039.9 68.15 1054.3 52.6 Q1068.7 36.4 1068.7 33.25 1068.7 30.15 1079.35 28.05 L1089.95 26.6 1105.1 33.25 1115.7 0.0 1146.0 16.6 1170.25 79.8 1188.45 108.1 1217.25 113.1 1250.6 71.5 1287.0 74.85 1318.25 128.45 1362.8 104.75 1420.4 89.8 1436.0 89.2 M1274.85 252.8 L1338.55 196.25 1168.75 304.35 1274.85 252.8 M1103.55 312.65 Q1168.75 277.75 1233.95 242.8 L1326.4 161.3 1206.65 232.85 1042.95 321.0 1164.2 274.4 1103.55 312.65 M1318.25 128.45 Q1298.6 138.95 1278.9 149.4 1298.6 138.95 1318.25 128.45" fill="#000000" fill-opacity="0.2" fill-rule="evenodd" stroke="none"/>
    <path d="M274.4 161.3 L248.6 172.95 224.35 201.25 207.7 187.95 172.8 206.25 42.45 234.5 0.0 360.9 1.55 459.05 1525.35 483.4 1525.35 167.95 1524.25 113.1 1462.85 88.15 1436.0 89.2 1420.4 89.8 1362.8 104.75 1318.25 128.45 1287.0 74.85 1250.6 71.5 1217.25 113.1 1188.45 108.1 1170.25 79.8 1146.0 16.6 1115.7 0.0 1105.1 33.25 1089.95 26.6 1079.35 28.05 Q1068.7 30.15 1068.7 33.25 1068.7 36.4 1054.3 52.6 L1039.9 68.15 868.6 237.8 829.2 241.15 780.7 271.1 729.15 289.4 718.55 276.1 696.2 275.65 Q674.2 275.65 676.1 277.75 678.0 279.8 627.95 293.95 602.95 301.05 577.55 307.7 L565.45 297.7 548.95 297.9 Q531.9 298.3 529.05 299.35 524.5 301.05 495.7 321.0 L450.25 321.0 445.7 304.35 419.9 281.05 398.7 274.4 372.9 276.1 336.55 251.15 307.75 222.85 297.15 187.95 289.55 169.65 274.4 161.3" fill="none" stroke="#000000" stroke-linecap="round" stroke-linejoin="miter-clip" stroke-miterlimit="4.0" stroke-width="1.0"/>
    <path d="M962.6 317.65 L1278.9 149.4 Q1298.6 138.95 1318.25 128.45" fill="none" stroke="#000000" stroke-linecap="round" stroke-linejoin="miter-clip" stroke-miterlimit="4.0" stroke-opacity="0.6" stroke-width="1.0"/>
  </g>
</svg>
