<?xml version="1.0" encoding="UTF-8" standalone="no"?>
<svg xmlns:xlink="http://www.w3.org/1999/xlink" height="1745.3px" width="648.55px" xmlns="http://www.w3.org/2000/svg">
  <g transform="matrix(1.0, 0.0, 0.0, 1.0, 831.9, 781.45)">
    <path d="M-829.2 -723.6 L-688.4 -780.8 -688.4 84.0 Q-677.2 537.6 -658.0 963.2 -677.2 537.6 -688.4 84.0 L-688.4 -780.8 -243.35 -777.6 -238.8 956.8 -658.0 963.2 -814.6 938.25 Q-823.15 512.5 -828.4 -90.25 -833.7 -693.05 -829.2 -723.6" fill="#ffffff" fill-opacity="0.0" fill-rule="evenodd" stroke="none"/>
    <path d="M-829.2 -723.6 Q-833.7 -693.05 -828.4 -90.25 -823.15 512.5 -814.6 938.25 L-658.0 963.2 -238.8 956.8 -243.35 -777.6" fill="none" stroke="#000000" stroke-linecap="square" stroke-linejoin="miter-clip" stroke-miterlimit="3.0" stroke-width="1.0"/>
    <path d="M-658.0 963.2 Q-677.2 537.6 -688.4 84.0 L-688.4 -780.8" fill="none" stroke="#000000" stroke-linecap="square" stroke-linejoin="miter-clip" stroke-miterlimit="3.0" stroke-opacity="0.4" stroke-width="1.0"/>
  </g>
</svg>
