<?xml version="1.0" encoding="UTF-8" standalone="no"?>
<svg xmlns:xlink="http://www.w3.org/1999/xlink" height="6.9px" width="20.7px" xmlns="http://www.w3.org/2000/svg">
  <g transform="matrix(1.0, 0.0, 0.0, 1.0, 19.4, -26.7)">
    <path d="M-2.95 27.8 L-2.95 27.2 0.8 27.2 0.8 33.1 -2.95 33.1 -2.95 33.05 -2.95 32.1 -2.95 31.7 -2.95 30.85 -2.95 30.45 -2.95 29.55 -2.95 29.15 -2.95 28.25 -2.95 27.8 M-15.15 33.05 L-15.15 33.1 -18.9 33.1 -18.9 27.2 -15.15 27.2 -15.15 27.8 -15.15 28.25 -15.15 29.15 -15.15 29.55 -15.15 30.45 -15.15 30.85 -15.15 31.7 -15.15 32.1 -15.15 33.05" fill="#ffffff" fill-opacity="0.0" fill-rule="evenodd" stroke="none"/>
    <path d="M-2.95 33.05 L-3.0 33.05 -15.1 33.05 -15.15 33.05 -15.15 32.1 -3.0 32.1 -2.95 32.1 -2.95 33.05 M-2.95 28.25 L-2.95 29.15 -3.0 29.15 -15.15 29.15 -15.15 28.25 -3.0 28.25 -2.95 28.25 M-2.95 29.55 L-2.95 30.45 -3.0 30.45 -15.15 30.45 -15.15 29.55 -3.0 29.55 -2.95 29.55 M-2.95 30.85 L-2.95 31.7 -3.0 31.7 -15.15 31.7 -15.15 30.85 -3.0 30.85 -2.95 30.85" fill="#000000" fill-opacity="0.101960786" fill-rule="evenodd" stroke="none"/>
    <path d="M-15.15 27.8 L-3.0 27.8 -2.95 27.8 -2.95 28.25 -3.0 28.25 -15.15 28.25 -15.15 27.8 M-2.95 29.15 L-2.95 29.55 -3.0 29.55 -15.15 29.55 -15.15 29.15 -3.0 29.15 -2.95 29.15 M-2.95 30.45 L-2.95 30.85 -3.0 30.85 -15.15 30.85 -15.15 30.45 -3.0 30.45 -2.95 30.45 M-2.95 31.7 L-2.95 32.1 -3.0 32.1 -15.15 32.1 -15.15 31.7 -3.0 31.7 -2.95 31.7" fill="#000000" fill-opacity="0.3019608" fill-rule="evenodd" stroke="none"/>
    <path d="M-15.15 31.7 L-15.15 32.1 M-15.15 30.45 L-15.15 30.85 -15.15 31.7 M-15.15 29.15 L-15.15 29.55 M-15.15 27.8 L-15.15 28.25" fill="none" stroke="#000000" stroke-linecap="round" stroke-linejoin="round" stroke-opacity="0.6" stroke-width="1.0"/>
    <path d="M-2.95 27.8 L-2.95 27.2 0.8 27.2 0.8 33.1 -2.95 33.1 -2.95 33.05 -3.0 33.05 M-15.1 33.05 L-15.15 33.05 -15.15 33.1 -18.9 33.1 -18.9 27.2 -15.15 27.2 -15.15 27.8 M-3.0 27.8 L-2.95 27.8 -2.95 28.25 -2.95 29.15 -2.95 29.55 -2.95 30.45 -2.95 30.85 -2.95 31.7 -2.95 32.1 -2.95 33.05 M-2.95 28.25 L-3.0 28.25 M-3.0 29.15 L-2.95 29.15 M-2.95 29.55 L-3.0 29.55 M-3.0 30.45 L-2.95 30.45 M-3.0 30.85 L-2.95 30.85 M-2.95 31.7 L-3.0 31.7 M-3.0 32.1 L-2.95 32.1 M-15.15 32.1 L-15.15 33.05" fill="none" stroke="#000000" stroke-linecap="round" stroke-linejoin="round" stroke-opacity="0.6" stroke-width="1.0"/>
    <path d="M-3.0 33.05 L-15.1 33.05 M-15.15 27.8 L-3.0 27.8 M-3.0 28.25 L-15.15 28.25 -15.15 29.15 -3.0 29.15 M-3.0 29.55 L-15.15 29.55 -15.15 30.45 -3.0 30.45 M-3.0 31.7 L-15.15 31.7 M-15.15 32.1 L-3.0 32.1 M-15.15 30.85 L-3.0 30.85" fill="none" stroke="#000000" stroke-linecap="round" stroke-linejoin="round" stroke-opacity="0.4" stroke-width="1.0"/>
  </g>
</svg>
