<?xml version="1.0" encoding="UTF-8" standalone="no"?>
<svg xmlns:xlink="http://www.w3.org/1999/xlink" height="10.15px" width="27.55px" xmlns="http://www.w3.org/2000/svg">
  <g transform="matrix(1.0, 0.0, 0.0, 1.0, 13.75, 27.3)">
    <path d="M13.25 -19.6 L13.3 -19.6 13.25 -19.6 M-7.75 -23.7 L-5.7 -25.25 -5.65 -25.25 -7.75 -23.7" fill="url(#gradient0)" fill-rule="evenodd" stroke="none"/>
    <path d="M-5.7 -25.25 L-4.1 -26.45 4.6 -26.8 6.1 -25.55 8.7 -23.4 10.0 -22.3 10.35 -22.0 10.65 -21.75 13.25 -19.7 -13.25 -19.6 -10.7 -21.5 -8.15 -23.4 -7.75 -23.7 -5.65 -25.25 -5.7 -25.25 M6.1 -25.55 L-5.65 -25.25 6.1 -25.55 M10.65 -21.75 L-10.7 -21.5 10.65 -21.75 M8.7 -23.4 L8.1 -23.4 -8.15 -23.4 8.1 -23.4 8.7 -23.4" fill="#ffffff" fill-opacity="0.0" fill-rule="evenodd" stroke="none"/>
    <path d="M13.25 -19.6 L11.95 -17.65 -12.55 -17.7 -13.25 -19.6 13.25 -19.7 13.25 -19.6" fill="#000000" fill-opacity="0.2" fill-rule="evenodd" stroke="none"/>
    <path d="M-5.7 -25.25 L-4.1 -26.45 4.6 -26.8 6.1 -25.55 8.7 -23.4 10.0 -22.3 10.35 -22.0 10.65 -21.75 13.25 -19.7 13.3 -19.7 13.25 -19.6 11.95 -17.65 M-12.55 -17.7 L-13.25 -19.6 -10.7 -21.5 -10.75 -21.5 -10.7 -21.5 -8.15 -23.4 -7.75 -23.7 -5.65 -25.25" fill="none" stroke="#000000" stroke-linecap="round" stroke-linejoin="round" stroke-width="1.0"/>
    <path d="M11.95 -17.65 L-12.55 -17.7 M13.25 -19.7 L13.3 -19.7" fill="none" stroke="#000000" stroke-linecap="round" stroke-linejoin="round" stroke-opacity="0.6" stroke-width="1.0"/>
    <path d="M-5.65 -25.25 L6.1 -25.55 M13.25 -19.7 L-13.25 -19.6 M-8.15 -23.4 L8.1 -23.4 8.7 -23.4 M-10.7 -21.5 L10.65 -21.75" fill="none" stroke="#000000" stroke-linecap="round" stroke-linejoin="round" stroke-opacity="0.4" stroke-width="1.0"/>
  </g>
  <defs>
    <linearGradient gradientTransform="matrix(0.0014, -0.0064, -0.0064, -0.0014, 0.55, -22.15)" gradientUnits="userSpaceOnUse" id="gradient0" spreadMethod="pad" x1="-819.2" x2="819.2">
      <stop offset="0.0" stop-color="#cf2023"/>
      <stop offset="0.0784313725490196" stop-color="#c71f23"/>
      <stop offset="0.27058823529411763" stop-color="#b61d22"/>
      <stop offset="0.4745098039215686" stop-color="#aa1c22"/>
      <stop offset="0.7019607843137254" stop-color="#a21b22"/>
      <stop offset="1.0" stop-color="#a01b22"/>
    </linearGradient>
  </defs>
</svg>
