<?xml version="1.0" encoding="UTF-8" standalone="no"?>
<svg xmlns:xlink="http://www.w3.org/1999/xlink" height="92.2px" width="94.5px" xmlns="http://www.w3.org/2000/svg">
  <g transform="matrix(1.0, 0.0, 0.0, 1.0, 237.7, -17.75)">
    <path d="M-224.8 81.05 L-224.65 85.0 -224.75 85.0 -224.8 81.05" fill="#b0b0b0" fill-rule="evenodd" stroke="none"/>
    <path d="M-163.1 108.2 L-163.05 108.2 -163.05 109.95 -163.1 108.2" fill="#e1e1e1" fill-rule="evenodd" stroke="none"/>
    <path d="M-164.1 79.75 L-169.25 37.75 -178.55 37.35 -182.25 84.4 -182.55 82.0 -183.55 38.1 -192.85 38.1 -195.35 81.65 -196.3 86.1 -196.3 37.75 -207.15 38.1 -208.95 86.95 -209.7 81.65 -211.4 38.9 -221.85 38.1 -224.65 89.45 -224.65 85.0 -224.8 81.05 -224.95 33.15 -164.1 33.15 -164.1 79.75" fill="#000000" fill-opacity="0.2" fill-rule="evenodd" stroke="none"/>
    <path d="M-156.5 77.05 L-151.7 77.05 -143.7 77.05 -143.7 108.2 -163.05 108.2 -163.05 77.05 -156.5 77.05 -163.05 77.05 -163.05 108.2 -163.1 108.2 -164.1 108.2 -164.1 79.75 -164.1 33.15 -224.95 33.15 -224.8 81.05 -224.75 85.0 -224.65 85.0 -224.65 89.45 -224.65 108.2 -237.2 108.2 -237.2 18.35 -231.9 22.25 -156.5 22.25 -156.5 77.05" fill="#ffffff" fill-opacity="0.0" fill-rule="evenodd" stroke="none"/>
    <path d="M-151.7 77.05 L-156.5 77.05 -156.5 22.25 -231.9 22.25 -237.2 18.35 -237.2 18.25 -151.7 18.25 -151.7 77.05 M-224.65 89.45 L-221.85 38.1 -211.4 38.9 -209.7 81.65 -208.95 86.95 -207.15 38.1 -196.3 37.75 -196.3 86.1 -195.35 81.65 -192.85 38.1 -183.55 38.1 -182.55 82.0 -182.25 84.4 -178.55 37.35 -169.25 37.75 -164.1 79.75 -164.1 108.2 -224.65 108.2 -224.65 89.45" fill="#000000" fill-opacity="0.101960786" fill-rule="evenodd" stroke="none"/>
    <path d="M-163.05 108.2 L-143.7 108.2 M-143.7 77.05 L-151.7 77.05 -151.7 18.25 -237.2 18.25 -237.2 18.35 M-224.65 108.2 L-164.1 108.2 -163.1 108.2 -163.05 108.2 M-237.2 108.2 L-224.65 108.2" fill="none" stroke="#000000" stroke-linecap="round" stroke-linejoin="round" stroke-width="1.0"/>
    <path d="M-151.7 77.05 L-156.5 77.05 -163.05 77.05 -163.05 108.2 M-143.7 108.2 L-143.7 77.05 M-164.1 79.75 L-164.1 33.15 -224.95 33.15 -224.8 81.05 -224.65 85.0 -224.65 89.45 -224.65 108.2 M-164.1 108.2 L-164.1 79.75 M-237.2 18.35 L-237.2 108.2" fill="none" stroke="#000000" stroke-linecap="round" stroke-linejoin="round" stroke-opacity="0.6" stroke-width="1.0"/>
  </g>
</svg>
