<?xml version="1.0" encoding="UTF-8" standalone="no"?>
<svg xmlns:xlink="http://www.w3.org/1999/xlink" height="16.5px" width="27.85px" xmlns="http://www.w3.org/2000/svg">
  <g transform="matrix(1.0, 0.0, 0.0, 1.0, 20.9, 41.2)">
    <path d="M0.3 -40.65 L1.05 -40.65 3.75 -40.45 4.55 -40.35 5.35 -39.9 Q5.8 -39.5 6.05 -38.4 L6.45 -36.3 6.3 -34.3 Q6.15 -33.5 5.75 -33.05 L5.15 -32.55 4.35 -32.45 3.5 -32.5 2.7 -32.25 2.0 -31.85 1.95 -31.8 Q1.55 -31.65 1.05 -31.3 L-0.5 -30.35 -1.75 -30.05 -1.9 -30.0 Q-2.75 -30.0 -3.2 -30.4 L-3.4 -30.55 -4.5 -31.8 -5.6 -32.75 -5.7 -32.8 -6.45 -33.15 Q-7.7 -33.55 -11.6 -30.5 L-15.55 -27.1 Q-19.0 -33.65 -17.65 -39.15 L-14.8 -39.45 -10.2 -39.85 -7.4 -40.05 -5.4 -40.4 -5.35 -40.4 -5.25 -40.45 -5.05 -40.5 -3.1 -40.65 -1.85 -40.7 0.3 -40.65" fill="#ffffff" fill-opacity="0.0" fill-rule="evenodd" stroke="none"/>
    <path d="M-17.65 -39.15 Q-19.0 -33.65 -15.55 -27.1 L-17.25 -25.2 Q-19.65 -28.65 -20.2 -32.75 -20.55 -34.6 -20.35 -38.95 L-17.65 -39.15" fill="#ffffff" fill-opacity="0.2" fill-rule="evenodd" stroke="none"/>
    <path d="M1.95 -31.8 L2.0 -31.85 2.7 -32.25 3.5 -32.5 4.35 -32.45 5.15 -32.55 5.75 -33.05 Q6.15 -33.5 6.3 -34.3 L6.45 -36.3 6.05 -38.4 Q5.8 -39.5 5.35 -39.9 L4.55 -40.35 3.75 -40.45 1.05 -40.65 0.3 -40.65 M-5.35 -40.4 L-5.4 -40.4 -7.4 -40.05 -10.2 -39.85 -14.8 -39.45 -17.65 -39.15 -20.35 -38.95 Q-20.55 -34.6 -20.2 -32.75 -19.65 -28.65 -17.25 -25.2 L-15.55 -27.1 -11.6 -30.5 Q-7.7 -33.55 -6.45 -33.15 L-5.7 -32.8 -5.6 -32.75" fill="none" stroke="#000000" stroke-linecap="round" stroke-linejoin="round" stroke-width="1.0"/>
    <path d="M0.3 -40.65 L-1.85 -40.7 -3.1 -40.65 -5.05 -40.5 -5.25 -40.45 -5.35 -40.4 M-5.6 -32.75 L-4.5 -31.8 -3.4 -30.55 -3.2 -30.4 Q-2.75 -30.0 -1.9 -30.0 L-1.75 -30.05 -0.5 -30.35 1.05 -31.3 Q1.55 -31.65 1.95 -31.8" fill="none" stroke="#000000" stroke-linecap="round" stroke-linejoin="round" stroke-opacity="0.4" stroke-width="1.0"/>
    <path d="M-17.65 -39.15 Q-19.0 -33.65 -15.55 -27.1" fill="none" stroke="#000000" stroke-linecap="round" stroke-linejoin="round" stroke-opacity="0.2" stroke-width="1.0"/>
  </g>
</svg>
