<?xml version="1.0" encoding="UTF-8" standalone="no"?>
<svg xmlns:xlink="http://www.w3.org/1999/xlink" height="941.5px" width="2016.6px" xmlns="http://www.w3.org/2000/svg">
  <g transform="matrix(1.0, 0.0, 0.0, 1.0, -110.25, 0.5)">
    <path d="M1624.6 341.7 L1624.65 341.7 1624.6 341.75 1624.6 342.9 1624.45 341.85 Q1624.25 341.8 1624.55 341.75 L1624.6 341.75 1624.6 341.7 M364.25 547.3 L363.0 547.3 362.95 547.35 362.95 547.3 363.0 547.3 363.0 547.25 Q363.05 546.95 363.1 547.15 L364.25 547.3" fill="#919396" fill-rule="evenodd" stroke="none"/>
    <path d="M1760.6 844.05 L1760.6 844.1 1760.75 869.75 1561.05 870.6 411.5 875.55 236.55 876.3 236.4 850.65 236.4 850.6 487.9 849.55 1509.15 845.15 1760.6 844.05 M659.55 191.9 L659.45 166.25 742.15 165.9 1218.3 163.85 1290.65 163.55 1290.8 189.2 659.55 191.9" fill="#ffffff" fill-opacity="0.2" fill-rule="evenodd" stroke="none"/>
    <path d="M362.95 547.3 Q358.1 547.0 353.8 544.65 349.05 542.05 345.9 537.5 342.35 532.15 342.35 525.55 L341.6 348.5 Q341.55 339.45 347.9 333.05 354.25 326.65 363.3 326.6 L1602.65 321.3 Q1609.25 321.3 1614.6 324.75 1616.35 325.85 1618.15 327.6 1624.1 333.45 1624.6 341.7 L1212.4 343.5 383.9 347.05 Q374.9 347.1 368.55 353.5 362.15 359.9 362.2 368.95 L362.95 547.3" fill="#000000" fill-opacity="0.24705882" fill-rule="evenodd" stroke="none"/>
    <path d="M1912.8 417.45 L2099.15 416.65 2100.2 663.0 1913.85 663.8 1912.8 417.45 1913.85 663.8 1914.15 740.8 1760.2 741.45 1760.6 844.05 1509.15 845.15 487.9 849.55 492.9 840.95 494.4 837.95 Q499.8 826.8 505.05 811.6 524.05 756.35 533.3 669.7 L1446.8 665.8 Q1456.8 752.35 1484.0 807.4 1491.45 822.55 1499.5 833.65 L1501.65 836.6 Q1506.25 842.6 1509.15 845.15 1506.25 842.6 1501.65 836.6 L1499.5 833.65 Q1491.45 822.55 1484.0 807.4 1456.8 752.35 1446.8 665.8 L533.3 669.7 Q524.05 756.35 505.05 811.6 499.8 826.8 494.4 837.95 L492.9 840.95 487.9 849.55 236.4 850.6 236.4 850.65 231.25 850.65 Q179.9 834.85 141.2 790.1 129.1 776.1 119.75 760.9 L112.8 748.5 110.75 276.35 Q145.9 237.75 190.7 211.9 213.1 198.95 228.45 193.75 L659.55 191.9 1290.8 189.2 1757.8 187.2 1758.35 310.4 1912.3 309.7 1912.8 417.45 M1561.05 870.6 Q1525.55 883.45 1483.55 894.65 1331.95 935.1 1153.8 939.05 L819.25 940.5 Q641.1 938.05 489.15 898.95 447.0 888.1 411.5 875.55 L1561.05 870.6 M742.15 165.9 Q756.8 153.1 774.15 142.0 805.15 122.25 838.85 111.35 L838.35 1.25 1125.75 0.0 1126.25 111.85 Q1157.25 122.2 1186.0 140.25 1203.5 151.15 1218.3 163.85 L742.15 165.9 M1624.65 341.7 L1624.6 341.7 Q1624.1 333.45 1618.15 327.6 1616.35 325.85 1614.6 324.75 1609.25 321.3 1602.65 321.3 L363.3 326.6 Q354.25 326.65 347.9 333.05 341.55 339.45 341.6 348.5 L342.35 525.55 Q342.35 532.15 345.9 537.5 349.05 542.05 353.8 544.65 358.1 547.0 362.95 547.3 L362.95 547.35 363.0 547.3 364.25 547.3 403.05 547.1 1603.6 541.95 Q1612.65 541.9 1619.0 535.5 1625.4 529.1 1625.35 520.05 L1624.6 342.9 1624.6 341.75 1624.65 341.7 M1614.6 324.75 Q1611.75 320.3 1606.95 317.65 1601.95 314.85 1596.25 314.9 L356.85 320.2 Q347.8 320.25 341.45 326.7 335.1 333.1 335.15 342.15 L335.9 519.15 Q335.95 524.9 338.75 529.9 341.45 534.75 345.9 537.5 341.45 534.75 338.75 529.9 335.95 524.9 335.9 519.15 L335.15 342.15 Q335.1 333.1 341.45 326.7 347.8 320.25 356.85 320.2 L1596.25 314.9 Q1601.95 314.85 1606.95 317.65 1611.75 320.3 1614.6 324.75 M1760.2 741.45 L1758.35 310.4 1760.2 741.45 M484.0 838.0 L489.05 829.6 Q495.3 817.8 501.3 800.9 520.45 746.85 529.75 662.05 L1450.15 658.1 Q1460.2 742.8 1487.6 796.65 1496.15 813.5 1505.4 825.25 1510.05 831.1 1512.95 833.6 1510.05 831.1 1505.4 825.25 1496.15 813.5 1487.6 796.65 1460.2 742.8 1450.15 658.1 L529.75 662.05 Q520.45 746.85 501.3 800.9 495.3 817.8 489.05 829.6 L484.0 838.0 M838.85 111.35 Q873.3 100.25 910.6 98.45 L1049.2 97.85 Q1089.3 99.45 1126.25 111.85 1089.3 99.45 1049.2 97.85 L910.6 98.45 Q873.3 100.25 838.85 111.35 M228.45 193.75 L231.25 850.65 228.45 193.75" fill="#ffffff" fill-opacity="0.0" fill-rule="evenodd" stroke="none"/>
    <path d="M1913.85 663.8 L2100.2 663.0 2099.15 416.65 1912.8 417.45 1912.3 309.7 1758.35 310.4 1757.8 187.2 1290.8 189.2 1290.65 163.55 1218.3 163.85 Q1203.5 151.15 1186.0 140.25 1157.25 122.2 1126.25 111.85 L1125.75 0.0 M1913.85 663.8 L1914.15 740.8 1760.2 741.45 1760.6 844.05 M1760.6 844.1 L1760.75 869.75 1561.05 870.6 Q1525.55 883.45 1483.55 894.65 1331.95 935.1 1153.8 939.05 L819.25 940.5 Q641.1 938.05 489.15 898.95 447.0 888.1 411.5 875.55 L236.55 876.3 236.4 850.65 231.25 850.65 Q179.9 834.85 141.2 790.1 129.1 776.1 119.75 760.9 L112.8 748.5 M110.75 276.35 Q145.9 237.75 190.7 211.9 213.1 198.95 228.45 193.75 L659.55 191.9 659.45 166.25 742.15 165.9 Q756.8 153.1 774.15 142.0 805.15 122.25 838.85 111.35 L838.35 1.25 M1624.6 341.7 L1624.6 341.75 1624.65 341.7 M1624.6 341.75 L1624.6 342.9 1625.35 520.05 Q1625.4 529.1 1619.0 535.5 1612.65 541.9 1603.6 541.95 L403.05 547.1 364.25 547.3 363.0 547.3 362.95 547.35 M362.95 547.3 Q358.1 547.0 353.8 544.65 349.05 542.05 345.9 537.5 342.35 532.15 342.35 525.55 L341.6 348.5 Q341.55 339.45 347.9 333.05 354.25 326.65 363.3 326.6 L1602.65 321.3 Q1609.25 321.3 1614.6 324.75 1616.35 325.85 1618.15 327.6 1624.1 333.45 1624.6 341.7 M362.95 547.3 L363.0 547.3 363.0 547.25 Q363.05 546.95 363.1 547.15 L364.25 547.3 M1624.6 342.9 L1624.45 341.85 Q1624.25 341.8 1624.55 341.75 L1624.6 341.75 M742.15 165.9 L1218.3 163.85 M659.55 191.9 L1290.8 189.2 M236.4 850.65 L236.4 850.6 M1561.05 870.6 L411.5 875.55" fill="none" stroke="#000000" stroke-linecap="round" stroke-linejoin="miter-clip" stroke-miterlimit="4.0" stroke-width="1.0"/>
    <path d="M112.8 748.5 L110.75 276.35 M1624.65 341.7 L1624.6 341.7 1212.4 343.5 383.9 347.05 Q374.9 347.1 368.55 353.5 362.15 359.9 362.2 368.95 L362.95 547.3 362.95 547.35 M1509.15 845.15 Q1506.25 842.6 1501.65 836.6 L1499.5 833.65 Q1491.45 822.55 1484.0 807.4 1456.8 752.35 1446.8 665.8 L533.3 669.7 Q524.05 756.35 505.05 811.6 499.8 826.8 494.4 837.95 L492.9 840.95 487.9 849.55" fill="none" stroke="#000000" stroke-linecap="round" stroke-linejoin="miter-clip" stroke-miterlimit="4.0" stroke-opacity="0.4" stroke-width="1.0"/>
    <path d="M345.9 537.5 Q341.45 534.75 338.75 529.9 335.95 524.9 335.9 519.15 L335.15 342.15 Q335.1 333.1 341.45 326.7 347.8 320.25 356.85 320.2 L1596.25 314.9 Q1601.95 314.85 1606.95 317.65 1611.75 320.3 1614.6 324.75" fill="none" stroke="#ffffff" stroke-linecap="round" stroke-linejoin="miter-clip" stroke-miterlimit="4.0" stroke-width="1.0"/>
    <path d="M1912.8 417.45 L1913.85 663.8 M1758.35 310.4 L1760.2 741.45 M487.9 849.55 L1509.15 845.15 1760.6 844.05 M1126.25 111.85 Q1089.3 99.45 1049.2 97.85 L910.6 98.45 Q873.3 100.25 838.85 111.35 M236.4 850.6 L487.9 849.55 M231.25 850.65 L228.45 193.75" fill="none" stroke="#000000" stroke-linecap="round" stroke-linejoin="miter-clip" stroke-miterlimit="4.0" stroke-opacity="0.6" stroke-width="1.0"/>
    <path d="M1512.95 833.6 Q1510.05 831.1 1505.4 825.25 1496.15 813.5 1487.6 796.65 1460.2 742.8 1450.15 658.1 L529.75 662.05 Q520.45 746.85 501.3 800.9 495.3 817.8 489.05 829.6 L484.0 838.0" fill="none" stroke="#ffffff" stroke-linecap="round" stroke-linejoin="miter-clip" stroke-miterlimit="4.0" stroke-opacity="0.6" stroke-width="1.0"/>
  </g>
</svg>
