<?xml version="1.0" encoding="UTF-8" standalone="no"?>
<svg xmlns:xlink="http://www.w3.org/1999/xlink" height="82.6px" width="71.0px" xmlns="http://www.w3.org/2000/svg">
  <g transform="matrix(1.0, 0.0, 0.0, 1.0, 35.5, 41.3)">
    <path d="M21.6 -13.55 L0.0 -40.8 35.0 -19.9 21.6 -13.55 M0.0 -40.8 L-21.6 -13.55 -35.0 -19.9 0.0 -40.8" fill="#ffffff" fill-opacity="0.2" fill-rule="evenodd" stroke="none"/>
    <path d="M0.0 -40.8 L21.6 -13.55 -21.6 -13.55 0.0 -40.8" fill="#ffffff" fill-opacity="0.4" fill-rule="evenodd" stroke="none"/>
    <path d="M21.6 -13.55 L35.0 20.1 0.0 23.9 21.6 -13.55 M0.0 23.9 L-35.0 20.1 -21.6 -13.55 0.0 23.9" fill="#000000" fill-opacity="0.09803922" fill-rule="evenodd" stroke="none"/>
    <path d="M-21.6 -13.55 L21.6 -13.55 0.0 23.9 -21.6 -13.55" fill="#ffffff" fill-opacity="0.0" fill-rule="evenodd" stroke="none"/>
    <path d="M0.0 23.9 L35.0 20.1 0.0 40.8 0.0 23.9 0.0 40.8 -35.0 20.1 0.0 23.9" fill="#000000" fill-opacity="0.14901961" fill-rule="evenodd" stroke="none"/>
    <path d="M21.6 -13.55 L35.0 -19.9 35.0 20.1 21.6 -13.55 M-35.0 -19.9 L-21.6 -13.55 -35.0 20.1 -35.0 -19.9" fill="#000000" fill-opacity="0.047058824" fill-rule="evenodd" stroke="none"/>
    <path d="M35.0 -19.9 L0.0 -40.8 -35.0 -19.9 -35.0 20.1 0.0 40.8 35.0 20.1 35.0 -19.9" fill="none" stroke="#000000" stroke-linecap="round" stroke-linejoin="round" stroke-width="1.0"/>
    <path d="M0.0 -40.8 L21.6 -13.55 35.0 -19.9 M0.0 -40.8 L-21.6 -13.55 21.6 -13.55 35.0 20.1 0.0 23.9 0.0 40.8 M21.6 -13.55 L0.0 23.9 -35.0 20.1 -21.6 -13.55 0.0 23.9 M-21.6 -13.55 L-35.0 -19.9" fill="none" stroke="#000000" stroke-linecap="round" stroke-linejoin="round" stroke-opacity="0.4" stroke-width="1.0"/>
  </g>
</svg>
