<?xml version="1.0" encoding="UTF-8" standalone="no"?>
<svg xmlns:xlink="http://www.w3.org/1999/xlink" height="2181.55px" width="438.9px" xmlns="http://www.w3.org/2000/svg">
  <g transform="matrix(1.0, 0.0, 0.0, 1.0, 1.2, 0.5)">
    <path d="M436.4 145.65 L436.9 145.65 Q436.75 145.95 436.6 145.8 L436.4 145.65" fill="#e9eaeb" fill-rule="evenodd" stroke="none"/>
    <path d="M142.0 2180.55 L61.9 2180.55 61.9 1450.75 61.9 221.55 Q64.0 225.6 65.5 229.4 L142.0 229.4 142.0 496.0 Q126.85 504.05 118.15 510.4 104.55 520.35 98.3 531.6 L98.3 997.65 101.95 1325.35 Q104.45 1349.2 125.85 1370.7 132.6 1377.45 142.0 1384.65 132.6 1377.45 125.85 1370.7 104.45 1349.2 101.95 1325.35 L98.3 997.65 98.3 531.6 Q104.55 520.35 118.15 510.4 126.85 504.05 142.0 496.0 L142.0 1384.65 142.0 1490.05 Q113.8 1474.6 83.6 1460.5 L61.9 1450.75 83.6 1460.5 Q113.8 1474.6 142.0 1490.05 L142.0 2180.55" fill="#000000" fill-opacity="0.14901961" fill-rule="evenodd" stroke="none"/>
    <path d="M94.65 145.65 L436.35 145.65 Q425.05 153.6 403.2 183.75 L375.0 224.3 371.35 229.4 269.4 229.4 142.0 229.4 65.5 229.4 Q64.0 225.6 61.9 221.55 51.55 201.2 27.3 173.9 18.25 163.65 8.2 153.6 L0.0 145.65 94.65 145.65" fill="#000000" fill-opacity="0.047058824" fill-rule="evenodd" stroke="none"/>
    <path d="M436.9 145.65 L436.4 145.65 436.35 145.65 94.65 145.65 94.65 0.8 94.65 145.65 0.0 145.65 0.0 0.0 94.65 0.8 436.9 3.65 436.9 145.65 M375.0 224.3 L375.0 2180.55 338.6 2180.55 272.45 2180.55 142.0 2180.55 142.0 1490.05 143.8 1491.0 Q236.65 1541.95 273.05 1587.5 L272.45 2180.55 273.05 1587.5 Q236.65 1541.95 143.8 1491.0 L142.0 1490.05 142.0 1384.65 142.0 496.0 142.0 229.4 269.4 229.4 371.35 229.4 375.0 224.3 M269.4 229.4 L269.15 372.65 Q268.25 383.35 264.85 394.15 253.95 428.75 222.1 451.5 205.85 463.1 183.8 474.75 171.25 481.4 147.9 492.9 L142.0 496.0 147.9 492.9 Q171.25 481.4 183.8 474.75 205.85 463.1 222.1 451.5 253.95 428.75 264.85 394.15 268.25 383.35 269.15 372.65 L269.4 229.4 M338.6 2180.55 L338.6 1576.55 Q340.45 1563.8 334.95 1544.7 324.05 1506.5 287.6 1474.6 269.75 1459.0 235.05 1439.5 194.75 1417.95 175.65 1406.8 155.9 1395.3 142.0 1384.65 155.9 1395.3 175.65 1406.8 194.75 1417.95 235.05 1439.5 269.75 1459.0 287.6 1474.6 324.05 1506.5 334.95 1544.7 340.45 1563.8 338.6 1576.55 L338.6 2180.55" fill="#ffffff" fill-opacity="0.0" fill-rule="evenodd" stroke="none"/>
    <path d="M436.9 145.65 L436.4 145.65 436.6 145.8 Q436.75 145.95 436.9 145.65 L436.9 3.65 94.65 0.8 94.65 0.0 M94.65 145.65 L436.35 145.65 436.4 145.65 M436.35 145.65 Q425.05 153.6 403.2 183.75 L375.0 224.3 375.0 2180.55 338.6 2180.55 272.45 2180.55 142.0 2180.55 61.9 2180.55 61.9 1450.75 61.9 221.55 Q51.55 201.2 27.3 173.9 18.25 163.65 8.2 153.6 L0.0 145.65 0.0 0.0 94.65 0.8 M0.0 145.65 L94.65 145.65" fill="none" stroke="#000000" stroke-linecap="round" stroke-linejoin="miter-clip" stroke-miterlimit="4.0" stroke-width="1.0"/>
    <path d="M94.65 0.8 L94.65 145.65 M142.0 229.4 L269.4 229.4 371.35 229.4 375.0 224.3 M61.9 221.55 Q64.0 225.6 65.5 229.4 L142.0 229.4 M142.0 496.0 L147.9 492.9 Q171.25 481.4 183.8 474.75 205.85 463.1 222.1 451.5 253.95 428.75 264.85 394.15 268.25 383.35 269.15 372.65 L269.4 229.4 M142.0 1384.65 Q132.6 1377.45 125.85 1370.7 104.45 1349.2 101.95 1325.35 L98.3 997.65 98.3 531.6 Q104.55 520.35 118.15 510.4 126.85 504.05 142.0 496.0 M142.0 1384.65 Q155.9 1395.3 175.65 1406.8 194.75 1417.95 235.05 1439.5 269.75 1459.0 287.6 1474.6 324.05 1506.5 334.95 1544.7 340.45 1563.8 338.6 1576.55 L338.6 2180.55 M142.0 1490.05 L143.8 1491.0 Q236.65 1541.95 273.05 1587.5 L272.45 2180.55 M61.9 1450.75 L83.6 1460.5 Q113.8 1474.6 142.0 1490.05" fill="none" stroke="#000000" stroke-linecap="round" stroke-linejoin="miter-clip" stroke-miterlimit="4.0" stroke-opacity="0.6" stroke-width="1.0"/>
  </g>
</svg>
