<?xml version="1.0" encoding="UTF-8" standalone="no"?>
<svg xmlns:xlink="http://www.w3.org/1999/xlink" height="150.3px" width="1773.2px" xmlns="http://www.w3.org/2000/svg">
  <g transform="matrix(1.0, 0.0, 0.0, 1.0, 2.0, 0.5)">
    <path d="M1736.5 57.4 L1738.8 58.25 Q1770.7 70.4 1770.7 83.75 1770.7 97.1 1738.8 109.25 1708.0 121.05 1651.8 130.1 1532.9 149.3 1364.75 149.3 1196.55 149.3 1077.65 130.1 1033.3 122.95 1004.75 114.1 997.15 111.75 990.65 109.25 960.2 97.65 958.85 84.95 960.2 97.65 990.65 109.25 997.15 111.75 1004.75 114.1 L0.0 114.1 0.0 84.95 958.85 84.95 958.75 83.75 Q958.75 70.4 990.65 58.25 L992.95 57.4 Q992.6 58.7 992.6 60.05 992.6 72.3 1021.85 83.45 1050.1 94.25 1101.6 102.55 1210.6 120.15 1364.75 120.15 1518.85 120.15 1627.85 102.55 1679.35 94.25 1707.6 83.45 1736.85 72.3 1736.85 60.05 L1736.5 57.4" fill="#000000" fill-opacity="0.09803922" fill-rule="evenodd" stroke="none"/>
    <path d="M992.95 57.4 L990.65 58.25 Q958.75 70.4 958.75 83.75 L958.85 84.95 0.0 84.95 Q116.05 78.1 158.8 63.25 172.2 58.6 176.65 53.7 178.0 52.2 178.35 50.8 L178.4 49.75 998.0 49.75 Q994.0 53.5 992.95 57.4" fill="#000000" fill-opacity="0.047058824" fill-rule="evenodd" stroke="none"/>
    <path d="M1736.5 57.4 L1736.85 60.05 Q1736.85 72.3 1707.6 83.45 1679.35 94.25 1627.85 102.55 1518.85 120.15 1364.75 120.15 1210.6 120.15 1101.6 102.55 1050.1 94.25 1021.85 83.45 992.6 72.3 992.6 60.05 992.6 58.7 992.95 57.4 994.0 53.5 998.0 49.75 1005.2 43.05 1021.85 36.7 1050.1 25.9 1101.6 17.6 1210.6 0.0 1364.75 0.0 1518.85 0.0 1627.85 17.6 1679.35 25.9 1707.6 36.7 1733.65 46.65 1736.5 57.4" fill="#ffffff" fill-opacity="0.0" fill-rule="evenodd" stroke="none"/>
    <path d="M1736.5 57.4 L1736.85 60.05 Q1736.85 72.3 1707.6 83.45 1679.35 94.25 1627.85 102.55 1518.85 120.15 1364.75 120.15 1210.6 120.15 1101.6 102.55 1050.1 94.25 1021.85 83.45 992.6 72.3 992.6 60.05 992.6 58.7 992.95 57.4" fill="none" stroke="#000000" stroke-linecap="round" stroke-linejoin="miter-clip" stroke-miterlimit="4.0" stroke-opacity="0.4" stroke-width="1.0"/>
    <path d="M1004.75 114.1 Q1033.3 122.95 1077.65 130.1 1196.55 149.3 1364.75 149.3 1532.9 149.3 1651.8 130.1 1708.0 121.05 1738.8 109.25 1770.7 97.1 1770.7 83.75 1770.7 70.4 1738.8 58.25 L1736.5 57.4 Q1733.65 46.65 1707.6 36.7 1679.35 25.9 1627.85 17.6 1518.85 0.0 1364.75 0.0 1210.6 0.0 1101.6 17.6 1050.1 25.9 1021.85 36.7 1005.2 43.05 998.0 49.75 994.0 53.5 992.95 57.4 L990.65 58.25 Q958.75 70.4 958.75 83.75 L958.85 84.95 Q960.2 97.65 990.65 109.25 997.15 111.75 1004.75 114.1 L0.0 114.1 0.0 84.95 M178.35 50.8 L178.4 49.75 998.0 49.75" fill="none" stroke="#000000" stroke-linecap="round" stroke-linejoin="miter-clip" stroke-miterlimit="4.0" stroke-width="1.0"/>
    <path d="M0.0 84.95 Q116.05 78.1 158.8 63.25 172.2 58.6 176.65 53.7 178.0 52.2 178.35 50.8 M0.0 84.95 L958.85 84.95" fill="none" stroke="#000000" stroke-linecap="round" stroke-linejoin="miter-clip" stroke-miterlimit="4.0" stroke-opacity="0.6" stroke-width="1.0"/>
  </g>
</svg>
