<?xml version="1.0" encoding="UTF-8" standalone="no"?>
<svg xmlns:xlink="http://www.w3.org/1999/xlink" height="204.25px" width="534.45px" xmlns="http://www.w3.org/2000/svg">
  <g transform="matrix(1.0, 0.0, 0.0, 1.0, 0.55, 0.5)">
    <path d="M-0.05 0.0 L533.4 0.0 533.4 187.55 Q494.95 164.25 434.65 139.7 324.65 94.85 201.4 73.85 101.5 56.8 -0.05 56.9 L-0.05 7.4 -0.05 0.0 M533.05 57.1 Q500.65 50.1 442.95 41.35 327.6 23.85 201.25 15.1 100.05 8.1 -0.05 7.4 100.05 8.1 201.25 15.1 327.6 23.85 442.95 41.35 500.65 50.1 533.05 57.1" fill="#ffffff" fill-opacity="0.0" fill-rule="evenodd" stroke="none"/>
    <path d="M533.4 187.55 L533.4 203.25 Q494.95 179.95 434.65 155.4 324.65 110.6 201.4 89.55 101.5 72.5 -0.05 72.65 L-0.05 56.9 Q101.5 56.8 201.4 73.85 324.65 94.85 434.65 139.7 494.95 164.25 533.4 187.55" fill="#000000" fill-opacity="0.34901962" fill-rule="evenodd" stroke="none"/>
    <path d="M-0.05 0.0 L533.4 0.0 533.4 187.55 533.4 203.25 Q494.95 179.95 434.65 155.4 324.65 110.6 201.4 89.55 101.5 72.5 -0.05 72.65" fill="none" stroke="#000000" stroke-linecap="round" stroke-linejoin="round" stroke-width="1.0"/>
    <path d="M-0.05 7.4 Q100.05 8.1 201.25 15.1 327.6 23.85 442.95 41.35 500.65 50.1 533.05 57.1" fill="none" stroke="#000000" stroke-linecap="round" stroke-linejoin="round" stroke-opacity="0.6" stroke-width="1.0"/>
    <path d="M533.4 187.55 Q494.95 164.25 434.65 139.7 324.65 94.85 201.4 73.85 101.5 56.8 -0.05 56.9" fill="none" stroke="#000000" stroke-linecap="round" stroke-linejoin="round" stroke-opacity="0.4" stroke-width="1.0"/>
  </g>
</svg>
