<?xml version="1.0" encoding="UTF-8" standalone="no"?>
<svg xmlns:xlink="http://www.w3.org/1999/xlink" height="503.75px" width="226.85px" xmlns="http://www.w3.org/2000/svg">
  <g transform="matrix(1.0, 0.0, 0.0, 1.0, 38.6, 0.8)">
    <path d="M163.75 113.4 L147.65 112.35 138.6 112.85 136.0 113.1 126.6 108.95 72.1 110.8 101.8 112.7 72.0 143.6 62.0 138.0 48.95 108.95 Q48.65 106.75 46.8 104.85 43.05 101.1 35.3 102.55 L40.5 119.05 Q45.6 137.25 44.95 146.0 L49.95 142.0 43.95 155.05 105.05 162.05 95.45 156.7 72.15 143.65 87.3 130.15 Q104.55 115.2 108.2 114.2 111.75 113.25 118.4 112.9 L124.35 112.7 88.65 147.65 108.3 130.6 Q128.2 113.6 129.6 113.85 131.85 114.2 136.75 116.1 L148.0 116.45 158.55 115.1 171.3 114.45 163.75 113.4 M129.25 86.8 L135.05 90.7 Q142.35 94.9 149.9 96.55 157.4 98.2 164.75 101.1 168.4 102.55 170.55 103.7 L173.55 112.35 179.2 170.55 184.85 196.1 Q185.6 199.1 186.35 217.55 L187.4 226.75 Q188.25 236.35 187.1 238.2 185.9 240.1 178.7 246.3 L174.35 249.9 176.55 349.4 169.1 350.55 180.85 464.9 181.85 474.5 181.1 501.6 173.55 492.2 171.3 475.4 162.1 406.6 156.1 361.4 162.1 406.6 Q162.0 421.3 160.5 437.9 L159.05 451.5 155.05 359.3 156.1 361.4 153.2 339.7 Q149.95 339.5 148.4 339.65 L141.9 340.05 133.4 340.5 127.35 341.15 126.05 341.35 127.75 263.35 116.85 308.45 111.2 260.35 111.55 332.5 100.3 332.35 85.65 332.1 86.0 338.9 Q86.1 339.8 85.3 340.5 84.65 341.15 83.35 341.45 L84.3 341.1 85.65 337.65 78.15 240.05 82.1 341.5 82.05 341.5 82.1 341.55 82.1 341.6 79.25 341.5 59.1 338.4 44.3 335.9 40.6 337.1 33.8 339.25 Q36.05 290.05 35.7 282.15 35.45 277.2 38.2 252.5 L40.95 228.8 43.95 209.65 41.95 206.05 Q39.95 202.2 40.2 201.0 L40.35 195.05 40.2 190.5 31.15 188.6 31.45 174.85 Q26.85 172.25 23.65 169.8 24.4 120.6 25.55 112.7 26.25 107.75 28.2 105.4 L30.05 104.05 Q31.45 102.65 33.45 102.05 L36.15 100.4 Q43.3 96.55 49.6 95.05 L54.85 90.55 57.85 92.35 Q61.25 94.0 63.1 93.55 66.1 92.8 70.6 89.8 L70.8 88.25 70.65 89.65 Q75.9 94.05 75.9 96.55 75.9 98.9 69.9 103.95 L63.85 108.55 80.4 102.55 87.9 110.05 84.15 101.05 82.9 73.4 Q85.95 79.45 89.6 81.1 85.95 79.45 82.9 73.4 80.35 68.5 78.4 60.85 L76.9 54.2 75.5 32.65 75.4 31.15 Q84.2 17.1 102.45 22.2 108.35 23.85 113.85 26.9 116.3 28.3 118.95 30.15 L117.95 58.25 Q114.85 64.2 105.8 73.3 L97.4 81.25 89.9 81.25 89.6 81.1 86.8 82.25 91.7 84.55 Q97.05 86.95 99.15 87.15 L106.7 87.55 104.05 98.4 116.85 98.8 124.95 100.0 Q133.7 101.0 136.75 100.3 139.8 99.6 139.35 99.3 L138.25 99.15 123.95 93.15 126.05 89.25 Q128.3 85.6 129.25 86.8 M129.1 477.2 L137.1 477.55 Q140.4 477.55 140.25 482.8 140.15 485.45 139.4 488.05 L90.55 488.05 90.75 483.35 90.9 478.3 Q92.05 468.9 93.55 464.0 94.35 461.35 92.9 427.8 91.3 392.1 91.65 387.35 92.1 380.8 95.15 367.05 L98.05 354.65 98.5 350.15 Q104.15 350.15 108.65 351.15 115.5 352.65 116.85 356.15 L110.45 431.3 Q109.3 443.35 109.7 464.75 L115.5 471.2 Q121.6 477.7 123.2 477.9 124.5 478.15 128.2 477.2 L128.3 477.15 128.95 477.2 129.1 477.2 M47.1 487.3 L1.1 487.3 0.0 483.55 Q-0.25 477.45 5.3 475.0 8.1 473.75 10.9 473.75 L30.05 453.5 31.05 444.5 Q32.05 432.95 32.3 420.05 32.5 407.15 36.75 384.15 L40.95 363.7 40.65 343.4 47.0 344.15 Q52.9 345.05 54.45 346.4 56.1 347.8 57.15 354.4 L57.85 360.7 58.2 376.75 Q58.45 394.05 58.2 400.15 58.0 405.1 53.35 426.2 48.65 447.4 48.45 452.0 L47.1 487.3 M73.65 30.75 L72.1 19.9 68.75 17.25 74.4 12.4 81.15 13.9 79.85 9.9 Q78.7 5.85 79.65 5.6 81.15 5.25 85.65 3.35 L90.15 6.75 90.1 3.75 Q90.2 0.75 90.9 0.75 L98.8 0.35 99.95 4.85 105.55 4.85 111.55 0.0 112.35 1.6 111.55 6.0 117.6 11.65 107.05 14.25 113.05 17.95 120.2 22.55 Q121.2 23.25 116.65 25.6 L113.85 26.9 Q108.35 23.85 102.45 22.2 84.2 17.1 75.4 31.15 L75.5 32.65 Q74.65 31.45 73.65 30.75 M147.7 244.05 L147.45 246.45 Q150.7 243.45 158.2 238.45 166.1 234.2 168.75 232.0 173.0 228.55 173.2 221.2 173.35 215.8 170.1 208.9 165.9 200.1 165.2 197.1 164.3 193.15 163.35 186.15 L163.35 184.7 Q167.6 182.3 172.7 182.2 L163.55 182.7 Q164.4 179.45 163.95 178.6 163.05 177.05 158.3 177.95 159.1 175.55 161.35 172.0 L165.1 166.2 160.7 167.6 156.3 168.95 Q156.0 163.5 154.95 156.1 L154.4 152.3 154.8 151.8 149.5 121.35 151.75 154.6 151.05 156.45 Q151.3 158.4 151.2 160.75 L151.1 162.05 151.0 162.65 146.5 176.2 145.1 177.25 149.5 205.5 152.55 205.9 Q156.2 206.55 159.2 207.8 168.75 211.85 168.3 220.55 L166.85 223.15 Q164.65 225.35 160.85 223.5 L158.15 221.65 156.0 223.5 153.45 225.05 154.8 234.05 148.0 241.55 147.7 244.05 Q147.25 247.45 147.25 249.1 147.25 251.35 148.75 258.85 L148.75 261.1 Q148.75 263.35 151.8 273.15 L155.65 271.1 160.55 267.75 161.15 267.1 167.25 258.65 171.7 252.1 174.35 249.9 171.7 252.1 167.25 258.65 161.15 267.1 160.55 267.75 155.65 271.1 151.8 273.15 Q148.75 263.35 148.75 261.1 L148.75 258.85 Q147.25 251.35 147.25 249.1 147.25 247.45 147.7 244.05 M86.8 35.7 L89.05 39.45 89.4 31.2 Q83.3 30.5 80.1 32.45 L78.15 34.6 Q81.45 31.75 84.45 33.45 L86.8 35.7 M100.75 29.3 Q97.4 29.6 94.65 30.8 L93.9 42.1 98.8 43.6 97.3 32.3 Q102.7 30.45 104.85 32.7 105.55 33.4 105.8 34.45 L105.95 35.35 110.8 33.45 Q107.5 28.75 100.75 29.3 M87.95 52.1 Q85.85 52.7 84.9 53.75 L98.05 53.0 Q92.2 50.9 87.95 52.1 M30.05 104.05 L35.3 102.55 30.05 104.05 M31.45 174.85 L32.65 175.5 Q40.2 179.65 47.95 182.0 40.2 179.65 32.65 175.5 L31.45 174.85 M47.95 182.0 L49.6 192.0 53.7 188.2 57.45 188.3 Q61.05 188.7 60.1 190.1 58.6 192.35 51.45 206.65 L58.05 198.2 Q65.0 189.75 66.85 189.75 69.85 189.75 74.75 191.25 L70.4 199.95 Q65.45 209.6 62.35 214.15 L83.75 194.25 86.05 201.65 Q88.25 209.7 87.55 213.0 86.85 216.3 87.5 221.95 L88.3 226.9 Q92.05 206.65 92.05 202.1 92.05 199.3 93.2 195.35 L94.3 192.0 105.2 191.6 105.15 197.2 Q104.85 203.45 103.7 207.0 L99.55 218.65 Q116.1 190.65 115.7 189.35 L116.1 190.5 116.05 201.65 Q115.35 213.55 112.3 217.55 107.45 223.9 100.7 233.3 L105.45 230.85 Q110.6 227.85 112.7 225.05 114.85 222.25 119.8 214.35 L124.35 207.0 131.5 192.35 134.5 205.9 134.1 169.45 134.35 168.45 Q134.8 167.35 135.6 166.75 L136.4 166.4 136.0 164.95 126.6 166.45 Q125.2 170.2 119.95 177.55 L114.95 184.1 91.5 185.2 Q65.9 185.85 54.85 183.7 L47.95 182.0 M95.45 156.7 L111.95 155.9 125.5 146.15 147.25 149.9 Q149.5 150.9 150.45 153.75 L151.1 157.1 151.1 162.05 151.1 157.1 150.45 153.75 Q149.5 150.9 147.25 149.9 L125.5 146.15 111.95 155.9 95.45 156.7 M134.5 205.9 L123.2 219.4 123.95 229.55 130.75 231.45 Q135.45 232.85 138.25 229.1 L138.6 228.65 Q142.45 258.85 153.2 339.7 142.45 258.85 138.6 228.65 L138.25 229.1 Q135.45 232.85 130.75 231.45 L123.95 229.55 123.2 219.4 134.5 205.9 M145.1 177.25 L143.9 169.45 Q139.0 165.6 136.4 166.4 139.0 165.6 143.9 169.45 L145.1 177.25 M138.6 228.65 Q139.8 226.8 140.15 225.05 L144.25 226.55 Q148.5 227.65 153.45 225.05 148.5 227.65 144.25 226.55 L140.15 225.05 Q139.8 226.8 138.6 228.65 M169.1 350.55 L160.55 267.75 169.1 350.55 M149.0 455.15 L142.0 465.15 141.25 417.2 Q140.75 368.85 142.0 366.95 L149.0 455.15" fill="#ffffff" fill-opacity="0.0" fill-rule="evenodd" stroke="none"/>
    <path d="M163.75 113.4 L171.3 114.45 158.55 115.1 148.0 116.45 136.75 116.1 Q131.85 114.2 129.6 113.85 128.2 113.6 108.3 130.6 L88.65 147.65 124.35 112.7 118.4 112.9 Q111.75 113.25 108.2 114.2 104.55 115.2 87.3 130.15 L72.15 143.65 95.45 156.7 105.05 162.05 43.95 155.05 49.95 142.0 44.95 146.0 Q45.6 137.25 40.5 119.05 L35.3 102.55 Q43.05 101.1 46.8 104.85 48.65 106.75 48.95 108.95 L62.0 138.0 72.0 143.6 101.8 112.7 72.1 110.8 126.6 108.95 136.0 113.1 138.6 112.85 147.65 112.35 163.75 113.4 M70.8 88.25 L72.85 67.25 71.8 59.15 Q70.9 50.5 71.35 47.7 L72.8 37.55 73.65 30.8 73.6 30.7 73.65 30.75 Q74.65 31.45 75.5 32.65 L76.9 54.2 78.4 60.85 Q80.35 68.5 82.9 73.4 L84.15 101.05 87.9 110.05 80.4 102.55 63.85 108.55 69.9 103.95 Q75.9 98.9 75.9 96.55 75.9 94.05 70.65 89.65 L70.8 88.25 M112.35 1.6 L112.35 1.55 114.6 6.0 Q115.05 6.95 119.55 6.95 L123.95 6.75 127.0 12.0 124.35 16.9 130.35 18.75 Q131.85 24.05 130.75 25.15 130.2 25.75 130.2 29.35 130.2 32.65 129.6 32.65 128.9 32.65 127.5 36.45 L126.25 40.2 126.6 71.0 124.35 72.9 129.25 86.8 Q128.3 85.6 126.05 89.25 L123.95 93.15 138.25 99.15 139.35 99.3 Q139.8 99.6 136.75 100.3 133.7 101.0 124.95 100.0 L116.85 98.8 104.05 98.4 106.7 87.55 99.15 87.15 Q97.05 86.95 91.7 84.55 L86.8 82.25 89.6 81.1 89.9 81.25 97.4 81.25 105.8 73.3 Q114.85 64.2 117.95 58.25 L118.95 30.15 Q116.3 28.3 113.85 26.9 L116.65 25.6 Q121.2 23.25 120.2 22.55 L113.05 17.95 107.05 14.25 117.6 11.65 111.55 6.0 112.35 1.6 M146.5 176.2 L151.0 162.65 151.1 162.05 151.2 160.75 Q151.3 158.4 151.05 156.45 L151.75 154.6 149.5 121.35 154.8 151.8 154.4 152.3 154.95 156.1 Q156.0 163.5 156.3 168.95 L160.7 167.6 165.1 166.2 161.35 172.0 Q159.1 175.55 158.3 177.95 163.05 177.05 163.95 178.6 164.4 179.45 163.55 182.7 L172.7 182.2 Q167.6 182.3 163.35 184.7 L163.35 186.15 Q164.3 193.15 165.2 197.1 165.9 200.1 170.1 208.9 173.35 215.8 173.2 221.2 173.0 228.55 168.75 232.0 166.1 234.2 158.2 238.45 150.7 243.45 147.45 246.45 L147.7 244.05 148.0 241.55 154.8 234.05 153.45 225.05 156.0 223.5 158.15 221.65 160.85 223.5 Q164.65 225.35 166.85 223.15 L168.3 220.55 Q168.75 211.85 159.2 207.8 156.2 206.55 152.55 205.9 L149.5 205.5 145.1 177.25 146.5 176.2 M134.5 205.9 L131.5 192.35 124.35 207.0 119.8 214.35 Q114.85 222.25 112.7 225.05 110.6 227.85 105.45 230.85 L100.7 233.3 Q107.45 223.9 112.3 217.55 115.35 213.55 116.05 201.65 L116.1 190.5 115.7 189.35 Q116.1 190.65 99.55 218.65 L103.7 207.0 Q104.85 203.45 105.15 197.2 L105.2 191.6 94.3 192.0 93.2 195.35 Q92.05 199.3 92.05 202.1 92.05 206.65 88.3 226.9 L87.5 221.95 Q86.85 216.3 87.55 213.0 88.25 209.7 86.05 201.65 L83.75 194.25 62.35 214.15 Q65.45 209.6 70.4 199.95 L74.75 191.25 Q69.85 189.75 66.85 189.75 65.0 189.75 58.05 198.2 L51.45 206.65 Q58.6 192.35 60.1 190.1 61.05 188.7 57.45 188.3 L53.7 188.2 49.6 192.0 47.95 182.0 54.85 183.7 Q65.9 185.85 91.5 185.2 L114.95 184.1 119.95 177.55 Q125.2 170.2 126.6 166.45 L136.0 164.95 136.4 166.4 135.6 166.75 Q134.8 167.35 134.35 168.45 L134.1 169.45 134.5 205.9 M82.1 341.5 L78.15 240.05 85.65 337.65 84.3 341.1 83.35 341.45 82.1 341.5 M111.55 332.5 L111.2 260.35 116.85 308.45 127.75 263.35 126.05 341.35 122.4 341.5 120.15 341.5 120.0 341.5 119.7 341.45 114.6 341.15 113.8 336.85 Q112.75 332.5 111.55 332.5" fill="#000000" fill-opacity="0.14901961" fill-rule="evenodd" stroke="none"/>
    <path d="M176.55 349.4 L182.1 463.5 180.85 464.9 169.1 350.55 176.55 349.4 M171.3 475.4 L162.05 485.55 160.05 464.5 149.0 474.5 129.1 477.2 128.95 477.2 128.3 477.15 128.2 477.2 Q124.5 478.15 123.2 477.9 121.6 477.7 115.5 471.2 L109.7 464.75 Q109.3 443.35 110.45 431.3 L116.85 356.15 Q115.5 352.65 108.65 351.15 104.15 350.15 98.5 350.15 L98.05 354.65 95.15 367.05 Q92.1 380.8 91.65 387.35 91.3 392.1 92.9 427.8 94.35 461.35 93.55 464.0 92.05 468.9 90.9 478.3 L90.75 483.35 83.9 484.55 Q74.9 486.55 71.85 486.55 69.5 486.55 65.1 424.2 L61.2 435.6 Q55.4 452.8 54.85 456.85 54.1 462.9 53.7 487.3 L47.1 487.3 48.45 452.0 Q48.65 447.4 53.35 426.2 58.0 405.1 58.2 400.15 58.45 394.05 58.2 376.75 L57.85 360.7 57.15 354.4 Q56.1 347.8 54.45 346.4 52.9 345.05 47.0 344.15 L40.65 343.4 40.6 337.1 44.3 335.9 59.1 338.4 79.25 341.5 82.1 341.6 82.1 341.55 82.05 341.5 82.1 341.5 83.35 341.45 Q84.65 341.15 85.3 340.5 86.1 339.8 86.0 338.9 L85.65 332.1 100.3 332.35 111.55 332.5 Q112.75 332.5 113.8 336.85 L114.6 341.15 119.7 341.45 120.0 341.5 120.15 341.5 122.4 341.5 126.05 341.35 127.35 341.15 133.4 340.5 141.9 340.05 148.4 339.65 Q149.95 339.5 153.2 339.7 L156.1 361.4 155.05 359.3 159.05 451.5 160.5 437.9 Q162.0 421.3 162.1 406.6 L171.3 475.4 M100.75 29.3 Q107.5 28.75 110.8 33.45 L105.95 35.35 105.8 34.45 Q105.55 33.4 104.85 32.7 102.7 30.45 97.3 32.3 L98.8 43.6 93.9 42.1 94.65 30.8 Q97.4 29.6 100.75 29.3 M86.8 35.7 L84.45 33.45 Q81.45 31.75 78.15 34.6 L80.1 32.45 Q83.3 30.5 89.4 31.2 L89.05 39.45 86.8 35.7 M87.95 52.1 Q92.2 50.9 98.05 53.0 L84.9 53.75 Q85.85 52.7 87.95 52.1 M65.1 424.2 L68.75 413.95 69.5 411.8 Q71.6 405.95 72.25 388.95 L72.5 373.1 75.45 357.75 Q78.55 342.2 79.25 341.5 78.55 342.2 75.45 357.75 L72.5 373.1 72.25 388.95 Q71.6 405.95 69.5 411.8 L68.75 413.95 65.1 424.2 M133.4 340.5 Q131.1 353.7 131.1 357.65 131.1 365.2 130.35 388.1 126.35 401.25 121.95 433.55 119.75 449.75 118.35 463.25 L128.2 477.2 118.35 463.25 Q119.75 449.75 121.95 433.55 126.35 401.25 130.35 388.1 131.1 365.2 131.1 357.65 131.1 353.7 133.4 340.5 M100.3 332.35 L98.5 350.15 100.3 332.35 M149.0 455.15 L142.0 366.95 Q140.75 368.85 141.25 417.2 L142.0 465.15 149.0 455.15" fill="#000000" fill-opacity="0.24705882" fill-rule="evenodd" stroke="none"/>
    <path d="M129.25 86.8 L135.05 90.7 Q142.35 94.9 149.9 96.55 157.4 98.2 164.75 101.1 168.4 102.55 170.55 103.7 L173.55 112.35 179.2 170.55 184.85 196.1 Q185.6 199.1 186.35 217.55 L187.4 226.75 Q188.25 236.35 187.1 238.2 185.9 240.1 178.7 246.3 L174.35 249.9 176.55 349.4 169.1 350.55 180.85 464.9 181.85 474.5 181.1 501.6 173.55 492.2 171.3 475.4 162.1 406.6 156.1 361.4 153.2 339.7 Q142.45 258.85 138.6 228.65 L138.25 229.1 Q135.45 232.85 130.75 231.45 L123.95 229.55 123.2 219.4 134.5 205.9 134.1 169.45 134.35 168.45 Q134.8 167.35 135.6 166.75 L136.4 166.4 Q139.0 165.6 143.9 169.45 L145.1 177.25 149.5 205.5 152.55 205.9 Q156.2 206.55 159.2 207.8 168.75 211.85 168.3 220.55 L166.85 223.15 Q164.65 225.35 160.85 223.5 L158.15 221.65 156.0 223.5 153.45 225.05 M129.1 477.2 L137.1 477.55 Q140.4 477.55 140.25 482.8 140.15 485.45 139.4 488.05 L90.55 488.05 90.75 483.35 90.9 478.3 Q92.05 468.9 93.55 464.0 94.35 461.35 92.9 427.8 91.3 392.1 91.65 387.35 92.1 380.8 95.15 367.05 L98.05 354.65 98.5 350.15 100.3 332.35 111.55 332.5 Q112.75 332.5 113.8 336.85 L114.6 341.15 119.7 341.45 120.0 341.5 120.15 341.5 122.4 341.5 126.05 341.35 127.35 341.15 133.4 340.5 141.9 340.05 148.4 339.65 Q149.95 339.5 153.2 339.7 M65.1 424.2 L61.2 435.6 Q55.4 452.8 54.85 456.85 54.1 462.9 53.7 487.3 L47.1 487.3 1.1 487.3 0.0 483.55 Q-0.25 477.45 5.3 475.0 8.1 473.75 10.9 473.75 L30.05 453.5 31.05 444.5 Q32.05 432.95 32.3 420.05 32.5 407.15 36.75 384.15 L40.95 363.7 40.65 343.4 40.6 337.1 33.8 339.25 Q36.05 290.05 35.7 282.15 35.45 277.2 38.2 252.5 L40.95 228.8 43.95 209.65 41.95 206.05 Q39.95 202.2 40.2 201.0 L40.35 195.05 40.2 190.5 31.15 188.6 31.45 174.85 Q26.85 172.25 23.65 169.8 24.4 120.6 25.55 112.7 26.25 107.75 28.2 105.4 L30.05 104.05 Q31.45 102.65 33.45 102.05 L36.15 100.4 Q43.3 96.55 49.6 95.05 L54.85 90.55 57.85 92.35 Q61.25 94.0 63.1 93.55 66.1 92.8 70.6 89.8 L70.8 88.25 72.85 67.25 71.8 59.15 Q70.9 50.5 71.35 47.7 L72.8 37.55 73.65 30.8 M73.65 30.75 L72.1 19.9 68.75 17.25 74.4 12.4 81.15 13.9 79.85 9.9 Q78.7 5.85 79.65 5.6 81.15 5.25 85.65 3.35 L90.15 6.75 90.1 3.75 Q90.2 0.75 90.9 0.75 L98.8 0.35 99.95 4.85 105.55 4.85 111.55 0.0 112.35 1.6 112.35 1.55 114.6 6.0 Q115.05 6.95 119.55 6.95 L123.95 6.75 127.0 12.0 124.35 16.9 130.35 18.75 Q131.85 24.05 130.75 25.15 130.2 25.75 130.2 29.35 130.2 32.65 129.6 32.65 128.9 32.65 127.5 36.45 L126.25 40.2 126.6 71.0 124.35 72.9 129.25 86.8 M35.3 102.55 L30.05 104.05 M40.6 337.1 L44.3 335.9 59.1 338.4 79.25 341.5 82.1 341.6 M82.05 341.5 L82.1 341.5 83.35 341.45 Q84.65 341.15 85.3 340.5 86.1 339.8 86.0 338.9 L85.65 332.1 100.3 332.35 M79.25 341.5 Q78.55 342.2 75.45 357.75 L72.5 373.1 72.25 388.95 Q71.6 405.95 69.5 411.8 L68.75 413.95 65.1 424.2 M128.2 477.2 L118.35 463.25 Q119.75 449.75 121.95 433.55 126.35 401.25 130.35 388.1 131.1 365.2 131.1 357.65 131.1 353.7 133.4 340.5 M160.55 267.75 L169.1 350.55 M128.3 477.15 L128.95 477.2 129.1 477.2" fill="none" stroke="#000000" stroke-linecap="round" stroke-linejoin="miter-clip" stroke-miterlimit="4.0" stroke-width="1.0"/>
    <path d="M176.55 349.4 L182.1 463.5 180.85 464.9 M171.3 475.4 L162.05 485.55 160.05 464.5 149.0 474.5 129.1 477.2 M90.75 483.35 L83.9 484.55 Q74.9 486.55 71.85 486.55 69.5 486.55 65.1 424.2 M89.6 81.1 Q85.95 79.45 82.9 73.4 80.35 68.5 78.4 60.85 L76.9 54.2 75.5 32.65 75.4 31.15 Q84.2 17.1 102.45 22.2 108.35 23.85 113.85 26.9 116.3 28.3 118.95 30.15 L117.95 58.25 Q114.85 64.2 105.8 73.3 L97.4 81.25 89.9 81.25 89.6 81.1 M146.5 176.2 L145.1 177.25 M154.8 234.05 L148.0 241.55 147.7 244.05 Q147.25 247.45 147.25 249.1 147.25 251.35 148.75 258.85 L148.75 261.1 Q148.75 263.35 151.8 273.15 L155.65 271.1 160.55 267.75 161.15 267.1 167.25 258.65 171.7 252.1 174.35 249.9 M47.95 182.0 Q40.2 179.65 32.65 175.5 L31.45 174.85 M136.4 166.4 L136.0 164.95 126.6 166.45 Q125.2 170.2 119.95 177.55 L114.95 184.1 91.5 185.2 Q65.9 185.85 54.85 183.7 L47.95 182.0 M151.1 162.05 L151.1 157.1 150.45 153.75 Q149.5 150.9 147.25 149.9 L125.5 146.15 111.95 155.9 95.45 156.7 M153.45 225.05 Q148.5 227.65 144.25 226.55 L140.15 225.05 Q139.8 226.8 138.6 228.65" fill="none" stroke="#000000" stroke-linecap="round" stroke-linejoin="miter-clip" stroke-miterlimit="4.0" stroke-opacity="0.6" stroke-width="1.0"/>
  </g>
</svg>
