<?xml version="1.0" encoding="UTF-8" standalone="no"?>
<svg xmlns:xlink="http://www.w3.org/1999/xlink" height="110.2px" width="79.7px" xmlns="http://www.w3.org/2000/svg">
  <g transform="matrix(1.0, 0.0, 0.0, 1.0, 0.5, 0.5)">
    <path d="M11.2 13.3 L12.4 13.35 Q9.35 14.3 8.65 13.3 8.35 12.8 8.6 12.1 9.8 13.05 11.2 13.3" fill="#000000" fill-opacity="0.6" fill-rule="evenodd" stroke="none"/>
    <path d="M53.75 38.05 Q56.35 39.75 58.6 42.1 65.0 48.7 68.75 58.85 70.95 64.85 73.75 77.65 L76.15 88.15 77.05 91.45 Q78.8 97.05 78.5 99.6 77.95 103.9 72.85 106.7 68.15 109.2 61.85 109.2 58.05 109.2 54.75 108.2 L53.2 107.75 Q48.95 106.55 46.9 105.65 43.35 104.15 42.05 102.15 41.35 101.1 41.25 98.25 L40.9 95.65 Q38.35 89.35 36.6 85.7 34.1 80.4 31.5 76.5 L30.9 75.6 Q28.9 72.65 28.4 71.5 L26.9 67.1 Q25.6 62.6 25.3 44.65 20.15 40.7 17.5 37.45 16.5 36.2 14.3 35.55 L10.05 34.85 6.2 34.25 Q4.2 33.7 3.3 31.65 2.65 30.05 2.8 28.0 0.95 27.4 0.7 25.45 0.4 24.0 1.0 22.9 0.5 21.9 0.7 21.15 1.0 19.85 2.05 19.35 L1.65 18.75 Q0.15 17.95 0.0 16.65 -0.15 15.35 1.0 14.3 L1.15 14.2 1.3 14.15 Q3.1 13.5 4.8 11.6 4.3 7.35 6.5 4.3 6.5 3.05 7.25 2.15 8.9 0.0 13.75 0.0 L21.7 1.0 Q26.7 2.0 30.7 5.8 36.85 11.6 38.8 22.65 L39.2 25.3 Q39.55 27.8 39.95 28.75 40.55 30.0 42.45 31.4 44.95 33.25 49.1 35.4 52.2 37.0 53.75 38.05 M8.75 2.1 L7.95 2.85 7.95 2.9 8.75 2.1 M11.2 13.3 Q9.8 13.05 8.6 12.1 8.35 12.8 8.65 13.3 9.35 14.3 12.4 13.35 L11.2 13.3 M18.3 36.8 Q19.9 38.8 23.25 41.7 L26.25 44.15 Q26.6 62.35 27.85 66.85 L28.55 69.1 Q29.0 70.6 29.6 71.7 L30.25 72.7 32.35 75.95 32.8 76.65 34.05 78.6 Q36.95 83.25 38.25 86.85 L38.35 87.1 38.65 87.75 38.95 88.4 41.8 95.3 Q42.1 96.05 42.25 98.55 42.4 100.8 42.9 101.6 43.7 102.8 45.6 103.9 L46.35 104.3 51.0 101.9 Q50.35 97.0 45.6 92.2 39.95 86.5 38.6 83.3 34.6 73.75 33.35 66.95 32.95 64.85 36.1 61.85 L39.3 59.3 31.4 43.95 Q30.75 42.7 26.3 38.55 L20.55 33.3 Q19.35 32.1 19.75 31.0 L20.35 30.1 Q16.6 32.25 10.65 32.55 7.65 32.7 5.4 32.45 L5.25 32.65 5.25 32.7 5.75 33.0 5.8 33.05 6.45 33.3 12.75 34.2 Q16.75 34.85 18.3 36.8" fill="#ffffff" fill-opacity="0.0" fill-rule="evenodd" stroke="none"/>
    <path d="M18.3 36.8 Q16.75 34.85 12.75 34.2 L6.45 33.3 5.8 33.05 5.75 33.0 5.25 32.7 5.25 32.65 5.4 32.45 Q7.65 32.7 10.65 32.55 16.6 32.25 20.35 30.1 L19.75 31.0 Q19.35 32.1 20.55 33.3 L26.3 38.55 Q30.75 42.7 31.4 43.95 L39.3 59.3 36.1 61.85 Q32.95 64.85 33.35 66.95 34.6 73.75 38.6 83.3 39.95 86.5 45.6 92.2 50.35 97.0 51.0 101.9 L46.35 104.3 45.6 103.9 Q43.7 102.8 42.9 101.6 42.4 100.8 42.25 98.55 42.1 96.05 41.8 95.3 L38.95 88.4 38.65 87.75 38.35 87.1 38.25 86.85 Q36.95 83.25 34.05 78.6 L32.8 76.65 32.35 75.95 30.25 72.7 29.6 71.7 Q29.0 70.6 28.55 69.1 L27.85 66.85 Q26.6 62.35 26.25 44.15 L23.25 41.7 Q19.9 38.8 18.3 36.8" fill="#000000" fill-opacity="0.14901961" fill-rule="evenodd" stroke="none"/>
    <path d="M53.75 38.05 Q52.2 37.0 49.1 35.4 44.95 33.25 42.45 31.4 40.55 30.0 39.95 28.75 39.55 27.8 39.2 25.3 L38.8 22.65 Q36.85 11.6 30.7 5.8 26.7 2.0 21.7 1.0 L13.75 0.0 Q8.9 0.0 7.25 2.15 6.5 3.05 6.5 4.3 4.3 7.35 4.8 11.6 3.1 13.5 1.3 14.15 L1.15 14.2 1.0 14.3 Q-0.15 15.35 0.0 16.65 0.15 17.95 1.65 18.75 L2.05 19.35 Q1.0 19.85 0.7 21.15 0.5 21.9 1.0 22.9 0.4 24.0 0.7 25.45 0.95 27.4 2.8 28.0 2.65 30.05 3.3 31.65 4.2 33.7 6.2 34.25 L10.05 34.85 14.3 35.55 Q16.5 36.2 17.5 37.45 20.15 40.7 25.3 44.65 25.6 62.6 26.9 67.1 L28.4 71.5 Q28.9 72.65 30.9 75.6 L31.5 76.5 Q34.1 80.4 36.6 85.7 38.35 89.35 40.9 95.65 L41.25 98.25 Q41.35 101.1 42.05 102.15 43.35 104.15 46.9 105.65 48.95 106.55 53.2 107.75 L54.75 108.2 Q58.05 109.2 61.85 109.2 68.15 109.2 72.85 106.7 77.95 103.9 78.5 99.6 78.8 97.05 77.05 91.45 L76.15 88.15 73.75 77.65 Q70.95 64.85 68.75 58.85 65.0 48.7 58.6 42.1 56.35 39.75 53.75 38.05" fill="none" stroke="#000000" stroke-linecap="round" stroke-linejoin="miter-clip" stroke-miterlimit="4.0" stroke-width="1.0"/>
    <path d="M11.2 13.3 Q9.8 13.05 8.6 12.1 8.35 12.8 8.65 13.3 9.35 14.3 12.4 13.35 L11.2 13.3" fill="none" stroke="#000000" stroke-linecap="round" stroke-linejoin="miter-clip" stroke-miterlimit="4.0" stroke-opacity="0.4" stroke-width="1.0"/>
  </g>
</svg>
