<?xml version="1.0" encoding="UTF-8" standalone="no"?>
<svg xmlns:xlink="http://www.w3.org/1999/xlink" height="91.2px" width="513.5px" xmlns="http://www.w3.org/2000/svg">
  <g transform="matrix(1.0, 0.0, 0.0, 1.0, 0.5, 0.5)">
    <path d="M0.0 52.15 L0.0 11.9 12.8 9.45 Q11.35 8.75 11.5 8.2 L12.0 5.5 Q12.15 4.75 14.95 4.7 L21.7 5.3 Q22.15 3.05 24.85 1.55 27.55 0.0 31.2 0.0 35.0 0.0 37.85 1.7 L41.15 1.65 48.95 2.25 Q52.2 2.85 52.2 3.65 L52.2 4.7 54.5 4.9 Q62.4 6.0 72.5 12.0 75.25 10.3 79.1 10.3 83.05 10.3 85.9 12.1 88.7 13.9 88.7 16.4 L88.7 16.45 90.0 16.45 95.15 16.25 100.9 16.55 119.15 16.95 126.8 16.4 134.1 16.9 Q137.15 17.35 137.75 18.1 142.3 18.4 143.8 19.3 L144.25 19.25 144.25 18.6 Q144.25 17.8 147.5 17.25 L155.3 16.65 163.4 17.3 165.75 17.25 171.05 17.5 172.05 15.15 Q172.35 14.35 175.6 15.1 L180.55 11.9 181.05 10.55 Q181.75 8.95 183.0 7.75 L183.0 7.65 Q183.0 7.2 184.35 6.7 L185.05 6.35 Q188.55 4.5 194.05 5.55 L195.1 5.75 Q201.9 5.9 204.35 7.05 L215.35 8.5 Q221.55 9.45 225.25 10.5 229.75 11.35 232.85 12.5 235.9 13.65 235.75 14.45 L235.25 17.15 Q235.1 18.05 231.35 17.95 229.9 21.9 233.6 22.4 L245.1 21.45 256.2 20.4 256.2 18.75 Q256.2 17.95 259.45 17.35 L267.25 16.75 275.05 17.35 Q278.3 17.95 278.3 18.75 L278.3 21.5 278.1 21.9 297.4 27.55 Q308.85 31.0 308.1 29.9 307.05 28.3 319.0 23.4 330.95 18.5 335.9 18.5 L337.75 18.65 Q340.65 16.0 345.7 16.0 349.65 16.0 352.5 17.8 355.3 19.6 355.3 22.1 L355.15 23.15 361.15 25.15 367.25 23.35 Q366.5 23.0 366.5 22.65 L366.5 19.85 Q366.5 19.05 369.75 18.5 L377.55 17.9 385.4 18.5 Q388.65 19.05 388.65 19.85 392.0 20.45 408.55 20.35 L426.75 21.0 Q429.7 21.95 452.5 23.7 L474.65 25.3 499.65 24.9 512.5 25.15 512.5 65.8 511.7 64.45 Q504.9 63.15 499.15 63.2 489.6 63.3 493.9 68.3 L488.75 68.5 483.8 69.25 Q484.3 72.35 481.2 73.5 L474.3 73.75 Q470.1 72.9 467.3 70.7 464.15 68.2 464.45 65.15 L456.55 64.7 Q451.55 64.75 449.4 66.4 451.4 69.45 454.75 71.05 L451.45 71.2 448.3 71.7 Q449.3 72.15 450.9 73.4 L453.35 75.2 Q444.3 74.85 438.8 74.95 428.65 75.2 426.25 78.75 L427.8 79.7 429.4 80.65 Q419.1 81.85 413.9 83.0 L414.4 84.8 Q412.45 83.95 409.15 84.4 L403.65 85.0 403.45 87.55 384.65 86.3 385.7 85.05 Q382.85 84.1 378.45 83.55 L379.95 82.75 381.45 81.95 Q376.75 80.8 370.0 80.85 361.7 80.95 360.45 83.6 L362.65 84.7 364.85 85.6 Q359.8 84.7 352.85 85.9 345.55 87.15 339.5 90.2 L128.7 90.2 Q123.45 89.25 122.1 86.65 L112.25 87.55 Q106.35 87.7 102.25 86.35 L102.95 84.3 Q103.45 82.65 103.9 82.05 97.6 81.75 91.35 82.05 90.45 87.45 82.25 86.75 76.6 86.25 70.3 83.55 L72.9 81.85 Q74.75 80.55 75.6 80.3 58.05 79.0 36.65 79.25 38.65 78.7 40.5 77.35 L43.6 74.8 Q41.1 73.95 36.35 73.6 L29.15 72.6 Q31.5 71.7 33.15 70.0 35.05 68.05 35.35 65.65 30.45 63.65 26.15 62.75 L16.6 61.65 18.9 59.3 Q16.85 58.15 14.05 58.2 L9.1 58.9 Q10.45 57.8 11.6 55.55 L13.45 51.75 Q14.15 50.5 9.75 50.75 L0.0 52.15" fill="#000000" fill-opacity="0.09803922" fill-rule="evenodd" stroke="none"/>
    <path d="M0.0 52.15 L9.75 50.75 Q14.15 50.5 13.45 51.75 L11.6 55.55 Q10.45 57.8 9.1 58.9 L14.05 58.2 Q16.85 58.15 18.9 59.3 L16.6 61.65 26.15 62.75 Q30.45 63.65 35.35 65.65 35.05 68.05 33.15 70.0 31.5 71.7 29.15 72.6 L36.35 73.6 Q41.1 73.95 43.6 74.8 L40.5 77.35 Q38.65 78.7 36.65 79.25 58.05 79.0 75.6 80.3 74.75 80.55 72.9 81.85 L70.3 83.55 Q76.6 86.25 82.25 86.75 90.45 87.45 91.35 82.05 97.6 81.75 103.9 82.05 103.45 82.65 102.95 84.3 L102.25 86.35 Q106.35 87.7 112.25 87.55 L122.1 86.65 Q123.45 89.25 128.7 90.2 L0.0 90.2 0.0 52.15 M339.5 90.2 Q345.55 87.15 352.85 85.9 359.8 84.7 364.85 85.6 L362.65 84.7 360.45 83.6 Q361.7 80.95 370.0 80.85 376.75 80.8 381.45 81.95 L379.95 82.75 378.45 83.55 Q382.85 84.1 385.7 85.05 L384.65 86.3 403.45 87.55 403.65 85.0 409.15 84.4 Q412.45 83.95 414.4 84.8 L413.9 83.0 Q419.1 81.85 429.4 80.65 L427.8 79.7 426.25 78.75 Q428.65 75.2 438.8 74.95 444.3 74.85 453.35 75.2 L450.9 73.4 Q449.3 72.15 448.3 71.7 L451.45 71.2 454.75 71.05 Q451.4 69.45 449.4 66.4 451.55 64.75 456.55 64.7 L464.45 65.15 Q464.15 68.2 467.3 70.7 470.1 72.9 474.3 73.75 L481.2 73.5 Q484.3 72.35 483.8 69.25 L488.75 68.5 493.9 68.3 Q489.6 63.3 499.15 63.2 504.9 63.15 511.7 64.45 L512.5 65.8 512.5 90.2 339.5 90.2" fill="#000000" fill-opacity="0.2" fill-rule="evenodd" stroke="none"/>
    <path d="M512.5 65.8 L512.5 25.15 499.65 24.9 474.65 25.3 452.5 23.7 Q429.7 21.95 426.75 21.0 L408.55 20.35 Q392.0 20.45 388.65 19.85 388.65 19.05 385.4 18.5 L377.55 17.9 369.75 18.5 Q366.5 19.05 366.5 19.85 L366.5 22.65 Q366.5 23.0 367.25 23.35 L361.15 25.15 355.15 23.15 355.3 22.1 Q355.3 19.6 352.5 17.8 349.65 16.0 345.7 16.0 340.65 16.0 337.75 18.65 L335.9 18.5 Q330.95 18.5 319.0 23.4 307.05 28.3 308.1 29.9 308.85 31.0 297.4 27.55 L278.1 21.9 278.3 21.5 278.3 18.75 Q278.3 17.95 275.05 17.35 L267.25 16.75 259.45 17.35 Q256.2 17.95 256.2 18.75 L256.2 20.4 245.1 21.45 233.6 22.4 Q229.9 21.9 231.35 17.95 235.1 18.05 235.25 17.15 L235.75 14.45 Q235.9 13.65 232.85 12.5 229.75 11.35 225.25 10.5 221.55 9.45 215.35 8.5 L204.35 7.05 Q201.9 5.9 195.1 5.75 L194.05 5.55 Q188.55 4.5 185.05 6.35 L184.35 6.7 Q183.0 7.2 183.0 7.65 L183.0 7.75 Q181.75 8.95 181.05 10.55 L180.55 11.9 175.6 15.1 Q172.35 14.35 172.05 15.15 L171.05 17.5 165.75 17.25 163.4 17.3 155.3 16.65 147.5 17.25 Q144.25 17.8 144.25 18.6 L144.25 19.25 143.8 19.3 Q142.3 18.4 137.75 18.1 137.15 17.35 134.1 16.9 L126.8 16.4 119.15 16.95 100.9 16.55 95.15 16.25 90.0 16.45 88.7 16.45 88.7 16.4 Q88.7 13.9 85.9 12.1 83.05 10.3 79.1 10.3 75.25 10.3 72.5 12.0 62.4 6.0 54.5 4.9 L52.2 4.7 52.2 3.65 Q52.2 2.85 48.95 2.25 L41.15 1.65 37.85 1.7 Q35.0 0.0 31.2 0.0 27.55 0.0 24.85 1.55 22.15 3.05 21.7 5.3 L14.95 4.7 Q12.15 4.75 12.0 5.5 L11.5 8.2 Q11.35 8.75 12.8 9.45 L0.0 11.9 0.0 52.15 0.0 90.2 128.7 90.2 339.5 90.2 512.5 90.2 512.5 65.8 Z" fill="none" stroke="#000000" stroke-linecap="round" stroke-linejoin="miter-clip" stroke-miterlimit="4.0" stroke-width="1.0"/>
  </g>
</svg>
