<?xml version="1.0" encoding="UTF-8" standalone="no"?>
<svg xmlns:xlink="http://www.w3.org/1999/xlink" height="42.0px" width="29.45px" xmlns="http://www.w3.org/2000/svg">
  <g transform="matrix(1.0, 0.0, 0.0, 1.0, 0.5, 0.5)">
    <path d="M22.05 21.6 L26.1 21.95 Q27.7 22.1 28.05 22.7 L28.4 24.0 28.45 38.65 Q28.5 39.55 28.05 40.2 L27.3 40.65 26.85 40.65 26.45 40.7 22.05 40.85 22.05 21.6 M5.85 40.85 L2.7 40.7 1.95 40.65 1.3 40.5 0.8 40.2 Q0.25 39.65 0.0 38.75 L0.0 24.5 0.1 23.9 Q0.3 23.15 0.6 22.7 1.1 21.95 2.6 21.9 L5.85 21.5 5.85 40.85 M16.25 0.55 Q17.95 1.4 19.35 3.85 21.5 7.7 21.5 13.25 21.5 16.65 20.7 19.4 L19.95 21.4 14.4 21.1 12.65 21.1 12.55 21.1 12.45 21.1 Q11.0 17.75 11.0 13.25 11.0 7.7 13.15 3.85 14.55 1.4 16.25 0.55 M15.0 7.35 L14.5 7.0 Q13.9 7.0 13.35 8.9 12.9 10.8 12.9 13.5 12.9 16.25 13.35 18.1 13.85 19.85 14.4 20.0 L14.5 20.0 15.0 19.7 15.5 20.0 16.2 19.4 16.6 18.1 Q17.1 16.3 17.1 13.5 17.1 10.7 16.6 8.9 16.15 7.0 15.5 7.0 L15.0 7.35" fill="#000000" fill-opacity="0.14901961" fill-rule="evenodd" stroke="none"/>
    <path d="M22.05 40.85 L13.4 41.0 6.0 40.85 5.85 40.85 5.85 21.5 8.35 21.35 Q6.8 17.9 6.8 13.25 6.8 7.7 8.95 3.85 11.15 0.0 14.15 0.0 15.25 0.0 16.25 0.55 14.55 1.4 13.15 3.85 11.0 7.7 11.0 13.25 11.0 17.75 12.45 21.1 L12.55 21.1 12.65 21.1 14.4 21.1 19.95 21.4 21.9 21.6 22.05 21.6 22.05 40.85 M15.0 7.35 L15.5 7.0 Q16.15 7.0 16.6 8.9 17.1 10.7 17.1 13.5 17.1 16.3 16.6 18.1 L16.2 19.4 15.5 20.0 15.0 19.7 15.2 19.4 15.6 18.1 Q16.1 16.3 16.1 13.5 16.1 10.7 15.6 8.9 L15.0 7.35 M12.45 21.1 L8.35 21.35 12.45 21.1" fill="#ffffff" fill-opacity="0.0" fill-rule="evenodd" stroke="none"/>
    <path d="M15.0 19.7 L14.5 20.0 14.4 20.0 Q13.85 19.85 13.35 18.1 12.9 16.25 12.9 13.5 12.9 10.8 13.35 8.9 13.9 7.0 14.5 7.0 L15.0 7.35 15.6 8.9 Q16.1 10.7 16.1 13.5 16.1 16.3 15.6 18.1 L15.2 19.4 15.0 19.7" fill="none" stroke="#000000" stroke-linecap="round" stroke-linejoin="round" stroke-opacity="0.4" stroke-width="1.0"/>
    <path d="M22.05 21.6 L26.1 21.95 Q27.7 22.1 28.05 22.7 L28.4 24.0 28.45 38.65 Q28.5 39.55 28.05 40.2 L27.3 40.65 26.85 40.65 26.45 40.7 M1.3 40.5 L0.8 40.2 Q0.25 39.65 0.0 38.75 L0.0 24.5 0.1 23.9 Q0.3 23.15 0.6 22.7 1.1 21.95 2.6 21.9 L5.85 21.5 8.35 21.35 Q6.8 17.9 6.8 13.25 6.8 7.7 8.95 3.85 11.15 0.0 14.15 0.0 15.25 0.0 16.25 0.55 17.95 1.4 19.35 3.85 21.5 7.7 21.5 13.25 21.5 16.65 20.7 19.4 L19.95 21.4 21.9 21.6 22.05 21.6" fill="none" stroke="#000000" stroke-linecap="round" stroke-linejoin="round" stroke-width="1.0"/>
    <path d="M26.45 40.7 L22.05 40.85 13.4 41.0 6.0 40.85 5.85 40.85 2.7 40.7 1.95 40.65 1.3 40.5 M12.45 21.1 L12.55 21.1 12.65 21.1 14.4 21.1 19.95 21.4 M8.35 21.35 L12.45 21.1" fill="none" stroke="#000000" stroke-linecap="round" stroke-linejoin="round" stroke-opacity="0.6" stroke-width="1.0"/>
  </g>
</svg>
