<?xml version="1.0" encoding="UTF-8" standalone="no"?>
<svg xmlns:xlink="http://www.w3.org/1999/xlink" height="306.1px" width="199.5px" xmlns="http://www.w3.org/2000/svg">
  <g transform="matrix(1.0, 0.0, 0.0, 1.0, 0.5, 0.5)">
    <path d="M92.9 185.4 Q90.15 185.4 87.7 186.1 83.1 187.35 79.45 190.95 73.9 196.55 73.9 204.4 73.9 212.25 79.45 217.8 83.1 221.45 87.7 222.7 L92.9 223.4 Q100.75 223.4 106.3 217.8 111.9 212.25 111.9 204.4 111.9 196.55 106.3 190.95 100.75 185.4 92.9 185.4 M157.95 148.85 Q182.05 172.95 182.05 207.0 182.05 241.05 157.95 265.1 133.85 289.2 99.8 289.2 65.75 289.2 41.65 265.1 17.55 241.05 17.55 207.0 17.55 172.95 41.65 148.85 65.75 124.8 99.8 124.8 133.85 124.8 157.95 148.85" fill="#000000" fill-opacity="0.69803923" fill-rule="evenodd" stroke="none"/>
    <path d="M92.9 185.4 Q100.75 185.4 106.3 190.95 111.9 196.55 111.9 204.4 111.9 212.25 106.3 217.8 100.75 223.4 92.9 223.4 L87.7 222.7 Q83.1 221.45 79.45 217.8 73.9 212.25 73.9 204.4 73.9 196.55 79.45 190.95 83.1 187.35 87.7 186.1 90.15 185.4 92.9 185.4 M93.9 208.25 Q94.9 207.25 94.9 205.85 94.9 204.45 93.9 203.45 92.9 202.45 91.5 202.45 90.1 202.45 89.1 203.45 88.1 204.45 88.1 205.85 88.1 207.25 89.1 208.25 90.1 209.25 91.5 209.25 92.9 209.25 93.9 208.25" fill="#000000" fill-opacity="0.6" fill-rule="evenodd" stroke="none"/>
    <path d="M139.85 42.5 L140.15 47.7 140.1 50.2 122.25 50.2 140.1 50.2 Q139.9 53.15 139.35 55.95 L120.95 55.25 Q121.8 52.8 122.25 50.2 L103.45 50.2 79.85 50.2 65.5 50.2 Q66.8 58.8 73.55 65.25 81.6 73.05 92.9 73.35 L94.3 87.55 Q79.7 86.25 69.05 75.95 56.85 64.25 56.85 47.7 56.85 31.15 69.05 19.4 81.25 7.7 98.5 7.7 115.75 7.7 127.95 19.4 138.2 29.25 139.85 42.5 L122.4 42.5 139.85 42.5 M102.6 42.5 L122.4 42.5 Q121.3 33.2 114.15 26.3 105.75 18.25 93.85 18.25 81.95 18.25 73.55 26.3 66.4 33.2 65.35 42.5 L80.75 42.5 102.6 42.5 M157.95 148.85 Q133.85 124.8 99.8 124.8 65.75 124.8 41.65 148.85 17.55 172.95 17.55 207.0 17.55 241.05 41.65 265.1 65.75 289.2 99.8 289.2 133.85 289.2 157.95 265.1 182.05 241.05 182.05 207.0 182.05 172.95 157.95 148.85 M99.5 114.0 Q136.5 114.0 162.65 140.5 188.8 167.0 188.8 204.45 188.8 241.9 162.65 268.4 136.5 294.9 99.5 294.9 62.5 294.9 36.35 268.4 10.2 241.9 10.2 204.45 10.2 167.0 36.35 140.5 62.5 114.0 99.5 114.0 M93.9 208.25 Q92.9 209.25 91.5 209.25 90.1 209.25 89.1 208.25 88.1 207.25 88.1 205.85 88.1 204.45 89.1 203.45 90.1 202.45 91.5 202.45 92.9 202.45 93.9 203.45 94.9 204.45 94.9 205.85 94.9 207.25 93.9 208.25" fill="#000000" fill-opacity="0.2" fill-rule="evenodd" stroke="none"/>
    <path d="M140.1 50.2 L140.15 47.7 139.85 42.5 Q138.2 29.25 127.95 19.4 115.75 7.7 98.5 7.7 81.25 7.7 69.05 19.4 56.85 31.15 56.85 47.7 56.85 64.25 69.05 75.95 79.7 86.25 94.3 87.55 L98.5 87.7 Q115.75 87.7 127.95 75.95 137.0 67.3 139.35 55.95 139.9 53.15 140.1 50.2 M102.6 42.5 L80.75 42.5 Q81.6 40.95 83.05 39.6 86.6 36.4 91.65 36.4 96.7 36.4 100.25 39.6 101.7 40.95 102.6 42.5 M79.85 50.2 L103.45 50.2 Q102.8 52.55 101.1 54.45 L100.25 55.25 Q96.7 58.5 91.65 58.5 L91.5 58.5 Q86.55 58.45 83.05 55.25 80.6 53.05 79.85 50.2 M145.7 47.45 L145.65 50.2 145.0 56.15 Q142.5 70.3 131.8 81.0 117.9 94.9 98.25 94.9 L95.0 94.8 Q77.45 93.75 64.7 81.0 50.8 67.1 50.8 47.45 50.8 27.8 64.7 13.9 78.6 0.0 98.25 0.0 117.9 0.0 131.8 13.9 143.9 26.0 145.5 42.5 L145.7 47.45 M99.25 105.5 Q140.35 105.5 169.4 134.7 198.5 163.95 198.5 205.3 198.5 246.65 169.4 275.85 140.35 305.1 99.25 305.1 58.15 305.1 29.05 275.85 0.0 246.65 0.0 205.3 0.0 163.95 29.05 134.7 57.0 106.65 96.0 105.55 L99.25 105.5 M99.5 114.0 Q62.5 114.0 36.35 140.5 10.2 167.0 10.2 204.45 10.2 241.9 36.35 268.4 62.5 294.9 99.5 294.9 136.5 294.9 162.65 268.4 188.8 241.9 188.8 204.45 188.8 167.0 162.65 140.5 136.5 114.0 99.5 114.0" fill="#ffffff" fill-opacity="0.0" fill-rule="evenodd" stroke="none"/>
    <path d="M122.4 42.5 L102.6 42.5 Q101.7 40.95 100.25 39.6 96.7 36.4 91.65 36.4 86.6 36.4 83.05 39.6 81.6 40.95 80.75 42.5 L65.35 42.5 Q66.4 33.2 73.55 26.3 81.95 18.25 93.85 18.25 105.75 18.25 114.15 26.3 121.3 33.2 122.4 42.5 M92.9 73.35 Q81.6 73.05 73.55 65.25 66.8 58.8 65.5 50.2 L79.85 50.2 Q80.6 53.05 83.05 55.25 86.55 58.45 91.5 58.5 L92.9 73.35 M103.45 50.2 L122.25 50.2 Q121.8 52.8 120.95 55.25 L101.1 54.45 Q102.8 52.55 103.45 50.2" fill="#000000" fill-opacity="0.4" fill-rule="evenodd" stroke="none"/>
    <path d="M94.3 87.55 L92.9 73.35 93.85 73.35 Q105.75 73.35 114.15 65.25 118.85 60.75 120.95 55.25 L139.35 55.95 Q137.0 67.3 127.95 75.95 115.75 87.7 98.5 87.7 L94.3 87.55" fill="#ffffff" fill-opacity="0.29803923" fill-rule="evenodd" stroke="none"/>
    <path d="M120.95 55.25 Q118.85 60.75 114.15 65.25 105.75 73.35 93.85 73.35 L92.9 73.35 91.5 58.5 91.65 58.5 Q96.7 58.5 100.25 55.25 L101.1 54.45 120.95 55.25" fill="#ffffff" fill-opacity="0.14901961" fill-rule="evenodd" stroke="none"/>
    <path d="M139.85 42.5 L122.4 42.5 102.6 42.5 80.75 42.5 65.35 42.5 M65.5 50.2 L79.85 50.2 103.45 50.2 122.25 50.2 140.1 50.2 M157.95 148.85 Q182.05 172.95 182.05 207.0 182.05 241.05 157.95 265.1 133.85 289.2 99.8 289.2 65.75 289.2 41.65 265.1 17.55 241.05 17.55 207.0 17.55 172.95 41.65 148.85 65.75 124.8 99.8 124.8 133.85 124.8 157.95 148.85" fill="none" stroke="#000000" stroke-linecap="round" stroke-linejoin="round" stroke-opacity="0.6" stroke-width="1.0"/>
    <path d="M145.7 47.45 L145.65 50.2 145.0 56.15 Q142.5 70.3 131.8 81.0 117.9 94.9 98.25 94.9 L95.0 94.8 Q77.45 93.75 64.7 81.0 50.8 67.1 50.8 47.45 50.8 27.8 64.7 13.9 78.6 0.0 98.25 0.0 117.9 0.0 131.8 13.9 143.9 26.0 145.5 42.5 L145.7 47.45 M99.25 105.5 Q140.35 105.5 169.4 134.7 198.5 163.95 198.5 205.3 198.5 246.65 169.4 275.85 140.35 305.1 99.25 305.1 58.15 305.1 29.05 275.85 0.0 246.65 0.0 205.3 0.0 163.95 29.05 134.7 57.0 106.65 96.0 105.55 L99.25 105.5" fill="none" stroke="#000000" stroke-linecap="round" stroke-linejoin="round" stroke-width="1.0"/>
    <path d="M140.1 50.2 L140.15 47.7 139.85 42.5 Q138.2 29.25 127.95 19.4 115.75 7.7 98.5 7.7 81.25 7.7 69.05 19.4 56.85 31.15 56.85 47.7 56.85 64.25 69.05 75.95 79.7 86.25 94.3 87.55 L98.5 87.7 Q115.75 87.7 127.95 75.95 137.0 67.3 139.35 55.95 139.9 53.15 140.1 50.2 M65.35 42.5 Q66.4 33.2 73.55 26.3 81.95 18.25 93.85 18.25 105.75 18.25 114.15 26.3 121.3 33.2 122.4 42.5 M92.9 73.35 Q81.6 73.05 73.55 65.25 66.8 58.8 65.5 50.2 M120.95 55.25 Q118.85 60.75 114.15 65.25 105.75 73.35 93.85 73.35 L92.9 73.35 M120.95 55.25 Q121.8 52.8 122.25 50.2 M92.9 185.4 Q100.75 185.4 106.3 190.95 111.9 196.55 111.9 204.4 111.9 212.25 106.3 217.8 100.75 223.4 92.9 223.4 L87.7 222.7 Q83.1 221.45 79.45 217.8 73.9 212.25 73.9 204.4 73.9 196.55 79.45 190.95 83.1 187.35 87.7 186.1 90.15 185.4 92.9 185.4 M99.5 114.0 Q136.5 114.0 162.65 140.5 188.8 167.0 188.8 204.45 188.8 241.9 162.65 268.4 136.5 294.9 99.5 294.9 62.5 294.9 36.35 268.4 10.2 241.9 10.2 204.45 10.2 167.0 36.35 140.5 62.5 114.0 99.5 114.0" fill="none" stroke="#000000" stroke-linecap="round" stroke-linejoin="round" stroke-opacity="0.4" stroke-width="1.0"/>
  </g>
</svg>
