<?xml version="1.0" encoding="UTF-8" standalone="no"?>
<svg xmlns:xlink="http://www.w3.org/1999/xlink" height="118.15px" width="144.35px" xmlns="http://www.w3.org/2000/svg">
  <g transform="matrix(1.0, 0.0, 0.0, 1.0, 0.5, 0.5)">
    <path d="M104.15 11.3 Q113.1 16.15 120.8 23.4 128.3 30.5 133.9 39.25 141.0 50.25 142.8 57.75 143.65 61.3 143.2 66.9 L142.35 76.2 Q141.2 95.45 119.7 106.05 103.95 113.75 79.15 116.2 68.8 117.2 59.95 116.75 48.75 116.1 41.2 113.1 38.05 111.85 27.15 110.5 19.35 109.5 15.2 105.15 2.45 91.7 0.4 70.25 -1.55 50.5 6.0 32.3 10.4 21.65 17.15 13.6 25.5 3.55 34.55 1.65 47.05 -0.95 66.8 0.55 76.25 1.25 86.0 4.05 96.0 6.9 104.15 11.3" fill="#ffffff" fill-opacity="0.0" fill-rule="evenodd" stroke="none"/>
    <path d="M104.15 11.3 Q96.0 6.9 86.0 4.05 76.25 1.25 66.8 0.55 47.05 -0.95 34.55 1.65 25.5 3.55 17.15 13.6 10.4 21.65 6.0 32.3 -1.55 50.5 0.4 70.25 2.45 91.7 15.2 105.15 19.35 109.5 27.15 110.5 38.05 111.85 41.2 113.1 48.75 116.1 59.95 116.75 68.8 117.2 79.15 116.2 103.95 113.75 119.7 106.05 141.2 95.45 142.35 76.2 L143.2 66.9 Q143.65 61.3 142.8 57.75 141.0 50.25 133.9 39.25 128.3 30.5 120.8 23.4 113.1 16.15 104.15 11.3 Z" fill="none" stroke="#000000" stroke-linecap="round" stroke-linejoin="miter-clip" stroke-miterlimit="4.0" stroke-width="1.0"/>
  </g>
</svg>
