<?xml version="1.0" encoding="UTF-8" standalone="no"?>
<svg xmlns:xlink="http://www.w3.org/1999/xlink" height="1941.2px" width="1439.05px" xmlns="http://www.w3.org/2000/svg">
  <g transform="matrix(1.0, 0.0, 0.0, 1.0, 0.5, 0.5)">
    <path d="M1395.1 0.0 L1395.1 279.05 1427.55 311.5 1427.55 1139.35 Q1429.3 1138.8 1430.8 1138.8 1440.95 1138.8 1436.9 1539.5 1434.85 1739.85 1430.8 1940.2 L1395.1 1940.2 629.4 1940.2 0.0 1940.2 0.0 1349.7 51.95 1349.7 90.85 1388.65 207.65 1427.55 486.65 1427.55 532.1 1473.0 761.25 1473.0 785.15 1382.15 798.1 1271.85 772.15 1122.6 746.2 837.05 772.15 512.65 837.05 460.75 921.4 402.35 979.8 415.3 1031.7 395.85 1077.15 343.95 1084.15 340.5 Q1092.45 336.0 1099.05 330.95 1120.15 314.7 1116.1 298.5 1112.05 282.3 1126.65 240.1 1133.95 219.0 1142.05 201.15 L1193.95 110.35 1271.8 13.0 1343.2 0.0 1395.1 0.0 1343.2 58.4 1343.2 175.2 1304.8 242.05 1193.2 295.45 1304.8 242.05 1343.2 175.2 1343.2 58.4 1395.1 0.0 M1336.7 1206.95 L1343.2 1310.75 1395.1 1408.15 1343.2 1310.75 1336.7 1206.95 1297.75 1122.6 1239.35 1096.65 1297.75 1122.6 1336.7 1206.95 1323.7 1051.2 1304.25 882.5 1323.7 1051.2 1336.7 1206.95 M1427.55 1139.35 Q1417.65 1142.45 1400.4 1163.15 L1395.1 1169.7 1400.4 1163.15 Q1417.65 1142.45 1427.55 1139.35 M1395.1 1169.7 L1395.1 279.05 1395.1 1169.7 1395.1 1408.15 1395.1 1940.2 1395.1 1408.15 1395.1 1169.7 M923.85 1333.75 L855.95 1333.75 855.95 1443.5 923.85 1443.5 923.85 1333.75 M930.35 1119.6 L862.4 1119.6 862.4 1229.4 930.35 1229.4 930.35 1119.6 M930.35 986.3 L930.35 876.55 862.4 876.55 862.4 986.3 930.35 986.3 M1213.4 1119.6 L1145.45 1119.6 1145.45 1229.4 1213.4 1229.4 1213.4 1119.6 M1064.15 1119.6 L996.2 1119.6 996.2 1229.4 1064.15 1229.4 1064.15 1119.6 M1064.15 986.3 L1064.15 876.55 996.2 876.55 996.2 986.3 1064.15 986.3 M1213.4 876.55 L1145.45 876.55 1145.45 986.3 1213.4 986.3 1213.4 876.55 M1213.4 617.0 L1145.45 617.0 1145.45 726.75 1213.4 726.75 1213.4 617.0 M1064.15 617.0 L996.2 617.0 996.2 726.75 1064.15 726.75 1064.15 617.0 M930.35 726.75 L930.35 617.0 862.4 617.0 862.4 726.75 930.35 726.75 M761.25 1473.0 L752.7 1505.45 622.9 1563.85 629.4 1940.2 622.9 1563.85 752.7 1505.45 761.25 1473.0 M1072.2 1703.1 L1072.2 1593.3 1004.25 1593.3 1004.25 1703.1 1072.2 1703.1 M1213.4 1346.7 L1145.45 1346.7 1145.45 1456.5 1213.4 1456.5 1213.4 1346.7 M830.55 1726.05 L720.25 1771.45 830.55 1726.05 863.0 1609.25 999.3 1498.95 863.0 1609.25 830.55 1726.05 895.45 1674.15 960.35 1602.75 895.45 1674.15 830.55 1726.05" fill="#ffffff" fill-opacity="0.0" fill-rule="evenodd" stroke="none"/>
    <path d="M1395.1 0.0 L1395.1 279.05 1427.55 311.5 1427.55 1139.35 Q1429.3 1138.8 1430.8 1138.8 1440.95 1138.8 1436.9 1539.5 1434.85 1739.85 1430.8 1940.2 L1395.1 1940.2 629.4 1940.2 0.0 1940.2 0.0 1349.7 51.95 1349.7 90.85 1388.65 207.65 1427.55 486.65 1427.55 532.1 1473.0 761.25 1473.0 785.15 1382.15 798.1 1271.85 772.15 1122.6 746.2 837.05 772.15 512.65 837.05 460.75 921.4 402.35 979.8 415.3 1031.7 395.85 1077.15 343.95 1084.15 340.5 Q1092.45 336.0 1099.05 330.95 1120.15 314.7 1116.1 298.5 1112.05 282.3 1126.65 240.1 1133.95 219.0 1142.05 201.15 L1193.95 110.35 1271.8 13.0 1343.2 0.0 1395.1 0.0" fill="none" stroke="#000000" stroke-linecap="round" stroke-linejoin="miter-clip" stroke-miterlimit="4.0" stroke-width="1.0"/>
    <path d="M1395.1 0.0 L1343.2 58.4 1343.2 175.2 1304.8 242.05 1193.2 295.45 M1395.1 1169.7 L1400.4 1163.15 Q1417.65 1142.45 1427.55 1139.35 M1239.35 1096.65 L1297.75 1122.6 1336.7 1206.95 1323.7 1051.2 1304.25 882.5 M1395.1 1408.15 L1343.2 1310.75 1336.7 1206.95 M930.35 726.75 L862.4 726.75 862.4 617.0 930.35 617.0 930.35 726.75 M1064.15 617.0 L1064.15 726.75 996.2 726.75 996.2 617.0 1064.15 617.0 M1213.4 617.0 L1213.4 726.75 1145.45 726.75 1145.45 617.0 1213.4 617.0 M1213.4 876.55 L1213.4 986.3 1145.45 986.3 1145.45 876.55 1213.4 876.55 M1064.15 986.3 L996.2 986.3 996.2 876.55 1064.15 876.55 1064.15 986.3 M1064.15 1119.6 L1064.15 1229.4 996.2 1229.4 996.2 1119.6 1064.15 1119.6 M1213.4 1119.6 L1213.4 1229.4 1145.45 1229.4 1145.45 1119.6 1213.4 1119.6 M930.35 986.3 L862.4 986.3 862.4 876.55 930.35 876.55 930.35 986.3 M930.35 1119.6 L930.35 1229.4 862.4 1229.4 862.4 1119.6 930.35 1119.6 M923.85 1333.75 L923.85 1443.5 855.95 1443.5 855.95 1333.75 923.85 1333.75 M629.4 1940.2 L622.9 1563.85 752.7 1505.45 761.25 1473.0 M1213.4 1346.7 L1213.4 1456.5 1145.45 1456.5 1145.45 1346.7 1213.4 1346.7 M1072.2 1703.1 L1004.25 1703.1 1004.25 1593.3 1072.2 1593.3 1072.2 1703.1 M999.3 1498.95 L863.0 1609.25 830.55 1726.05 895.45 1674.15 960.35 1602.75 M720.25 1771.45 L830.55 1726.05" fill="none" stroke="#000000" stroke-linecap="round" stroke-linejoin="miter-clip" stroke-miterlimit="4.0" stroke-opacity="0.6" stroke-width="1.0"/>
    <path d="M1395.1 1169.7 L1395.1 1408.15 1395.1 1940.2 M1395.1 279.05 L1395.1 1169.7" fill="none" stroke="#000000" stroke-linecap="round" stroke-linejoin="miter-clip" stroke-miterlimit="4.0" stroke-opacity="0.4" stroke-width="1.0"/>
  </g>
</svg>
