<?xml version="1.0" encoding="UTF-8" standalone="no"?>
<svg xmlns:xlink="http://www.w3.org/1999/xlink" height="214.6px" width="140.55px" xmlns="http://www.w3.org/2000/svg">
  <g transform="matrix(1.0, 0.0, 0.0, 1.0, 0.5, 0.5)">
    <path d="M38.85 8.4 L41.25 9.35 Q44.7 11.25 52.4 18.0 L43.8 11.05 Q41.3 9.15 38.85 8.4 M120.7 4.2 L121.3 6.25 Q121.5 7.95 120.85 11.4 121.6 6.25 120.7 4.2" fill="#dfe0e1" fill-rule="evenodd" stroke="none"/>
    <path d="M120.85 11.4 L120.7 12.3 120.6 12.75 120.5 13.4 120.45 13.9 Q120.0 17.95 122.15 19.8 L122.65 20.15 122.8 20.25 128.2 20.6 Q131.7 20.2 133.4 22.35 134.95 24.3 134.45 26.75 134.0 28.85 132.25 30.7 134.05 28.9 137.0 36.25 139.8 43.2 139.5 45.25 139.1 48.55 135.05 52.95 131.65 56.6 132.7 60.55 L134.75 64.85 Q135.6 66.6 134.55 69.8 L132.65 73.3 Q131.4 75.25 131.45 77.2 131.5 78.55 132.75 81.15 134.0 83.7 133.95 85.4 133.85 88.05 132.4 90.4 131.25 92.35 128.9 94.5 127.25 96.0 122.65 97.0 118.05 98.0 117.2 98.8 113.75 102.2 117.55 106.95 L120.85 110.7 Q122.65 112.9 122.85 114.45 123.3 117.85 120.25 120.15 115.7 123.55 115.25 124.2 114.2 125.75 113.85 127.75 L113.1 131.6 109.35 139.05 Q106.95 143.55 107.35 147.05 107.55 148.55 109.45 151.6 111.2 154.4 111.1 156.45 110.9 159.5 108.3 162.15 106.65 163.75 102.9 166.2 97.6 169.6 97.1 172.5 97.25 177.0 96.25 181.65 95.5 185.25 91.3 188.85 86.9 192.6 85.9 195.9 85.6 196.9 85.6 200.3 85.6 203.3 84.9 204.35 84.15 205.5 80.7 207.3 77.75 208.85 77.1 211.3 L77.1 211.4 Q76.9 212.25 70.75 212.65 65.35 212.95 64.65 212.1 64.4 211.95 63.6 212.35 60.85 213.7 57.35 213.15 52.85 212.45 49.55 203.45 L47.05 194.1 47.05 194.05 47.95 184.7 47.9 179.95 Q47.85 176.95 48.65 175.4 49.1 174.55 50.8 173.35 52.45 172.1 53.05 170.95 55.0 166.9 50.6 158.9 54.0 158.1 54.7 154.8 L54.9 148.5 Q51.65 152.25 44.6 150.2 38.0 148.3 35.35 144.0 38.1 145.8 41.2 145.05 44.5 144.2 45.05 140.95 L53.6 139.5 Q53.6 136.1 51.7 133.45 56.7 129.9 57.4 128.55 58.7 126.05 56.75 120.05 52.95 124.5 48.8 120.3 47.0 118.5 43.45 112.1 45.25 114.85 47.8 114.85 50.5 114.9 50.65 111.25 53.45 112.5 56.6 111.15 59.85 109.75 60.45 106.85 61.25 103.15 59.25 102.4 56.35 102.05 55.0 100.9 51.55 98.0 52.3 95.35 52.8 93.7 55.5 89.6 55.95 88.7 56.95 87.95 57.6 87.5 57.8 85.85 57.9 85.25 57.3 83.5 L56.6 81.0 Q54.25 83.8 50.45 83.45 46.55 83.05 44.85 79.7 40.35 83.8 33.3 82.1 27.05 80.6 22.95 75.95 27.55 76.45 31.0 74.65 35.0 72.45 34.6 68.0 40.95 73.75 45.55 69.7 46.45 72.35 49.15 75.35 50.4 76.75 60.2 81.75 67.95 85.7 67.1 88.95 66.85 89.85 64.15 91.7 61.6 93.35 61.65 95.15 61.65 96.6 68.1 102.8 74.55 109.0 74.55 111.1 L71.65 112.25 Q69.6 113.1 69.2 113.8 L68.8 115.2 Q66.3 116.65 65.35 117.6 62.75 120.2 65.95 126.65 L67.1 128.45 66.1 129.7 Q64.7 131.5 64.3 132.7 63.35 135.45 66.5 138.65 L65.6 139.25 Q62.85 141.1 62.4 142.7 61.75 144.95 63.25 148.35 65.15 152.55 65.25 153.8 65.45 156.1 64.55 159.2 L63.05 164.45 Q61.6 172.15 65.3 183.15 L68.4 193.45 67.9 193.75 Q66.35 194.65 65.9 195.4 65.5 196.05 64.9 200.3 66.35 199.4 68.6 198.55 L72.25 197.0 Q75.65 194.8 75.35 187.9 L80.95 187.6 Q83.8 186.75 84.0 183.6 87.8 184.0 90.15 180.25 92.2 176.9 91.8 173.05 88.45 175.45 83.85 173.0 80.0 170.9 77.65 167.05 79.55 167.25 80.15 167.05 L82.15 165.65 Q89.05 168.9 88.95 161.95 L88.35 156.2 Q87.9 152.9 88.3 152.1 98.5 149.45 98.6 145.3 94.0 143.85 93.05 137.35 87.9 140.65 84.0 137.45 80.15 134.25 82.15 128.55 84.45 132.3 87.9 131.95 91.45 131.6 92.55 126.85 93.7 129.55 97.05 129.95 99.9 130.3 102.95 129.0 106.7 127.4 107.2 125.75 107.6 124.5 106.2 121.1 L102.95 116.65 Q100.95 113.85 102.55 111.2 103.6 109.4 106.55 108.55 L111.45 108.15 109.7 104.75 107.9 101.4 Q103.85 103.5 100.95 102.4 97.85 101.2 97.55 96.9 93.6 97.5 89.05 95.3 83.95 92.8 84.6 89.0 90.8 92.7 95.25 91.4 100.25 89.95 99.3 82.4 104.8 84.2 108.6 81.25 111.9 78.65 112.35 74.2 112.8 69.75 109.9 67.75 106.65 65.5 100.7 68.5 99.2 63.4 98.3 62.25 96.7 60.25 92.4 60.4 L86.0 61.4 Q82.75 61.5 81.5 57.55 83.75 57.35 85.8 56.05 87.85 54.7 88.85 52.75 L93.15 52.95 Q95.35 52.45 96.55 50.8 102.3 53.25 107.45 52.85 113.3 52.4 117.25 48.2 121.65 43.55 120.45 38.75 119.8 36.15 115.45 29.8 117.3 27.9 115.35 24.2 L111.65 18.5 Q115.25 15.0 117.35 11.55 119.5 8.05 120.55 3.95 L120.7 4.2 Q121.6 6.25 120.85 11.4 M35.7 8.0 L35.45 7.9 Q37.15 7.9 38.85 8.4 41.3 9.15 43.8 11.05 L52.4 18.0 Q57.85 13.35 62.9 13.6 66.85 13.75 69.15 16.45 L70.15 17.6 Q67.75 19.4 65.35 23.0 65.05 23.45 65.25 24.7 65.4 25.85 64.8 26.45 L63.2 26.55 Q61.9 26.25 61.65 26.55 L59.95 27.0 Q58.7 27.1 58.1 27.9 56.8 29.65 58.25 34.0 60.1 38.65 60.35 40.05 58.35 39.75 56.85 40.5 55.3 41.35 54.75 43.15 46.5 43.1 46.25 48.05 46.0 52.75 52.25 56.8 50.4 58.3 49.05 59.7 L48.75 57.65 Q44.2 61.55 40.15 57.3 36.65 53.65 36.25 48.25 31.4 48.9 28.85 45.35 26.55 42.1 27.15 37.25 30.9 41.35 35.65 41.45 39.6 41.5 42.9 38.9 46.0 36.4 46.15 33.6 46.4 30.65 42.85 29.7 47.75 30.85 47.3 25.5 47.0 21.45 45.05 18.2 42.6 14.15 40.95 12.15 38.4 9.15 35.7 8.0 M63.6 212.35 L64.0 208.3 64.9 200.3 64.0 208.3 63.6 212.35" fill="#000000" fill-opacity="0.24705882" fill-rule="evenodd" stroke="none"/>
    <path d="M47.05 194.05 L44.95 185.7 Q43.5 179.55 43.6 175.95 L44.1 170.45 Q44.25 167.6 43.15 165.4 42.45 163.95 40.5 162.8 39.3 162.1 39.6 159.4 39.7 158.45 41.85 155.55 43.35 153.6 41.4 151.3 40.75 150.55 37.35 150.05 33.6 149.45 32.6 148.9 26.95 145.75 28.9 140.95 30.7 136.35 36.7 135.5 34.95 132.8 36.4 131.4 L38.7 129.0 Q39.1 127.3 38.95 122.25 38.85 116.9 38.2 115.5 37.7 114.45 32.35 107.35 28.85 101.0 36.75 101.85 L33.25 97.5 Q30.7 94.35 29.55 93.95 L24.8 94.35 19.7 95.15 Q11.4 94.5 8.85 89.05 6.55 84.25 9.05 76.7 2.7 76.2 5.55 70.05 L8.35 64.9 Q10.05 61.95 10.1 60.6 3.35 60.75 3.8 52.35 4.0 49.2 5.25 46.9 6.5 44.6 7.95 45.1 4.0 43.65 2.25 41.75 0.25 39.6 0.0 35.85 -0.2 32.7 1.25 28.5 2.95 23.6 5.45 22.8 6.9 22.35 11.5 23.85 16.4 25.45 18.3 25.2 18.75 18.0 19.7 15.9 21.3 12.45 27.05 10.0 31.85 7.95 35.7 8.0 38.4 9.15 40.95 12.15 42.6 14.15 45.05 18.2 47.0 21.45 47.3 25.5 47.75 30.85 42.85 29.7 46.4 30.65 46.15 33.6 46.0 36.4 42.9 38.9 39.6 41.5 35.65 41.45 30.9 41.35 27.15 37.25 26.55 42.1 28.85 45.35 31.4 48.9 36.25 48.25 36.65 53.65 40.15 57.3 44.2 61.55 48.75 57.65 L49.05 59.7 Q50.4 58.3 52.25 56.8 46.0 52.75 46.25 48.05 46.5 43.1 54.75 43.15 55.3 41.35 56.85 40.5 58.35 39.75 60.35 40.05 60.1 38.65 58.25 34.0 56.8 29.65 58.1 27.9 58.7 27.1 59.95 27.0 L61.65 26.55 Q61.9 26.25 63.2 26.55 L64.8 26.45 Q65.4 25.85 65.25 24.7 65.05 23.45 65.35 23.0 67.75 19.4 70.15 17.6 70.65 17.15 71.2 16.85 73.15 15.7 78.9 13.35 80.15 12.75 83.0 10.25 85.5 8.1 87.35 7.6 L91.6 7.75 95.65 8.05 Q97.75 7.6 100.85 5.55 L106.25 2.0 Q113.05 -1.95 118.55 1.85 119.85 2.75 120.55 3.95 119.5 8.05 117.35 11.55 115.25 15.0 111.65 18.5 L115.35 24.2 Q117.3 27.9 115.45 29.8 119.8 36.15 120.45 38.75 121.65 43.55 117.25 48.2 113.3 52.4 107.45 52.85 102.3 53.25 96.55 50.8 95.35 52.45 93.15 52.95 L88.85 52.75 Q87.85 54.7 85.8 56.05 83.75 57.35 81.5 57.55 82.75 61.5 86.0 61.4 L92.4 60.4 Q96.7 60.25 98.3 62.25 99.2 63.4 100.7 68.5 106.65 65.5 109.9 67.75 112.8 69.75 112.35 74.2 111.9 78.65 108.6 81.25 104.8 84.2 99.3 82.4 100.25 89.95 95.25 91.4 90.8 92.7 84.6 89.0 83.95 92.8 89.05 95.3 93.6 97.5 97.55 96.9 97.85 101.2 100.95 102.4 103.85 103.5 107.9 101.4 L109.7 104.75 111.45 108.15 106.55 108.55 Q103.6 109.4 102.55 111.2 100.95 113.85 102.95 116.65 L106.2 121.1 Q107.6 124.5 107.2 125.75 106.7 127.4 102.95 129.0 99.9 130.3 97.05 129.95 93.7 129.55 92.55 126.85 91.45 131.6 87.9 131.95 84.45 132.3 82.15 128.55 80.15 134.25 84.0 137.45 87.9 140.65 93.05 137.35 94.0 143.85 98.6 145.3 98.5 149.45 88.3 152.1 87.9 152.9 88.35 156.2 L88.95 161.95 Q89.05 168.9 82.15 165.65 L80.15 167.05 Q79.55 167.25 77.65 167.05 80.0 170.9 83.85 173.0 88.45 175.45 91.8 173.05 92.2 176.9 90.15 180.25 87.8 184.0 84.0 183.6 83.8 186.75 80.95 187.6 L75.35 187.9 Q75.65 194.8 72.25 197.0 L68.6 198.55 Q66.35 199.4 64.9 200.3 65.5 196.05 65.9 195.4 66.35 194.65 67.9 193.75 L68.4 193.45 Q69.5 192.7 69.85 192.05 70.45 190.8 70.25 188.45 70.05 185.75 70.3 184.75 70.8 182.65 72.2 180.55 L74.45 176.65 Q76.0 172.9 74.05 166.55 71.95 159.7 72.8 156.3 74.5 149.2 73.85 146.85 73.1 144.35 67.7 139.75 L66.5 138.65 Q63.35 135.45 64.3 132.7 64.7 131.5 66.1 129.7 L67.1 128.45 68.7 126.3 Q70.75 123.4 69.5 119.6 68.6 116.9 68.8 115.2 L69.2 113.8 Q69.6 113.1 71.65 112.25 L74.55 111.1 Q74.55 109.0 68.1 102.8 61.65 96.6 61.65 95.15 61.6 93.35 64.15 91.7 66.85 89.85 67.1 88.95 67.95 85.7 60.2 81.75 50.4 76.75 49.15 75.35 46.45 72.35 45.55 69.7 40.95 73.75 34.6 68.0 35.0 72.45 31.0 74.65 27.55 76.45 22.95 75.95 27.05 80.6 33.3 82.1 40.35 83.8 44.85 79.7 46.55 83.05 50.45 83.45 54.25 83.8 56.6 81.0 L57.3 83.5 Q57.9 85.25 57.8 85.85 57.6 87.5 56.95 87.95 55.95 88.7 55.5 89.6 52.8 93.7 52.3 95.35 51.55 98.0 55.0 100.9 56.35 102.05 59.25 102.4 61.25 103.15 60.45 106.85 59.85 109.75 56.6 111.15 53.45 112.5 50.65 111.25 50.5 114.9 47.8 114.85 45.25 114.85 43.45 112.1 47.0 118.5 48.8 120.3 52.95 124.5 56.75 120.05 58.7 126.05 57.4 128.55 56.7 129.9 51.7 133.45 53.6 136.1 53.6 139.5 L45.05 140.95 Q44.5 144.2 41.2 145.05 38.1 145.8 35.35 144.0 38.0 148.3 44.6 150.2 51.65 152.25 54.9 148.5 L54.7 154.8 Q54.0 158.1 50.6 158.9 55.0 166.9 53.05 170.95 52.45 172.1 50.8 173.35 49.1 174.55 48.65 175.4 47.85 176.95 47.9 179.95 L47.95 184.7 47.05 194.05 M45.55 69.7 Q44.7 67.35 45.25 65.3 45.9 62.85 49.05 59.7 45.9 62.85 45.25 65.3 44.7 67.35 45.55 69.7" fill="#ffffff" fill-opacity="0.0" fill-rule="evenodd" stroke="none"/>
    <path d="M120.85 11.4 L120.7 12.3 120.6 12.75 120.5 13.4 120.45 13.9 Q120.0 17.95 122.15 19.8 L122.65 20.15 122.8 20.25 128.2 20.6 Q131.7 20.2 133.4 22.35 134.95 24.3 134.45 26.75 134.0 28.85 132.25 30.7 134.05 28.9 137.0 36.25 139.8 43.2 139.5 45.25 139.1 48.55 135.05 52.95 131.65 56.6 132.7 60.55 L134.75 64.85 Q135.6 66.6 134.55 69.8 L132.65 73.3 Q131.4 75.25 131.45 77.2 131.5 78.55 132.75 81.15 134.0 83.7 133.95 85.4 133.85 88.05 132.4 90.4 131.25 92.35 128.9 94.5 127.25 96.0 122.65 97.0 118.05 98.0 117.2 98.8 113.75 102.2 117.55 106.95 L120.85 110.7 Q122.65 112.9 122.85 114.45 123.3 117.85 120.25 120.15 115.7 123.55 115.25 124.2 114.2 125.75 113.85 127.75 L113.1 131.6 109.35 139.05 Q106.95 143.55 107.35 147.05 107.55 148.55 109.45 151.6 111.2 154.4 111.1 156.45 110.9 159.5 108.3 162.15 106.65 163.75 102.9 166.2 97.6 169.6 97.1 172.5 97.25 177.0 96.25 181.65 95.5 185.25 91.3 188.85 86.9 192.6 85.9 195.9 85.6 196.9 85.6 200.3 85.6 203.3 84.9 204.35 84.15 205.5 80.7 207.3 77.75 208.85 77.1 211.3 L77.1 211.4 Q76.9 212.25 70.75 212.65 65.35 212.95 64.65 212.1 64.4 211.95 63.6 212.35 60.85 213.7 57.35 213.15 52.85 212.45 49.55 203.45 L47.05 194.1 M47.05 194.05 L44.95 185.7 Q43.5 179.55 43.6 175.95 L44.1 170.45 Q44.25 167.6 43.15 165.4 42.45 163.95 40.5 162.8 39.3 162.1 39.6 159.4 39.7 158.45 41.85 155.55 43.35 153.6 41.4 151.3 40.75 150.55 37.35 150.05 33.6 149.45 32.6 148.9 26.95 145.75 28.9 140.95 30.7 136.35 36.7 135.5 34.95 132.8 36.4 131.4 L38.7 129.0 Q39.1 127.3 38.95 122.25 38.85 116.9 38.2 115.5 37.7 114.45 32.35 107.35 28.85 101.0 36.75 101.85 L33.25 97.5 Q30.7 94.35 29.55 93.95 L24.8 94.35 19.7 95.15 Q11.4 94.5 8.85 89.05 6.55 84.25 9.05 76.7 2.7 76.2 5.55 70.05 L8.35 64.9 Q10.05 61.95 10.1 60.6 3.35 60.75 3.8 52.35 4.0 49.2 5.25 46.9 6.5 44.6 7.95 45.1 4.0 43.65 2.25 41.75 0.25 39.6 0.0 35.85 -0.2 32.7 1.25 28.5 2.95 23.6 5.45 22.8 6.9 22.35 11.5 23.85 16.4 25.45 18.3 25.2 18.75 18.0 19.7 15.9 21.3 12.45 27.05 10.0 31.85 7.95 35.7 8.0 L35.45 7.9 Q37.15 7.9 38.85 8.4 L41.25 9.35 Q44.7 11.25 52.4 18.0 57.85 13.35 62.9 13.6 66.85 13.75 69.15 16.45 L70.15 17.6 Q70.65 17.15 71.2 16.85 73.15 15.7 78.9 13.35 80.15 12.75 83.0 10.25 85.5 8.1 87.35 7.6 L91.6 7.75 95.65 8.05 Q97.75 7.6 100.85 5.55 L106.25 2.0 Q113.05 -1.95 118.55 1.85 119.85 2.75 120.55 3.95 L120.7 4.2 121.3 6.25 Q121.5 7.95 120.85 11.4 M68.8 115.2 Q68.6 116.9 69.5 119.6 70.75 123.4 68.7 126.3 L67.1 128.45 65.95 126.65 Q62.75 120.2 65.35 117.6 66.3 116.65 68.8 115.2 M66.5 138.65 L67.7 139.75 Q73.1 144.35 73.85 146.85 74.5 149.2 72.8 156.3 71.95 159.7 74.05 166.55 76.0 172.9 74.45 176.65 L72.2 180.55 Q70.8 182.65 70.3 184.75 70.05 185.75 70.25 188.45 70.45 190.8 69.85 192.05 69.5 192.7 68.4 193.45 L65.3 183.15 Q61.6 172.15 63.05 164.45 L64.55 159.2 Q65.45 156.1 65.25 153.8 65.15 152.55 63.25 148.35 61.75 144.95 62.4 142.7 62.85 141.1 65.6 139.25 L66.5 138.65" fill="none" stroke="#000000" stroke-linecap="round" stroke-linejoin="miter-clip" stroke-miterlimit="4.0" stroke-opacity="0.6" stroke-width="1.0"/>
    <path d="M64.9 200.3 L64.0 208.3 63.6 212.35 M49.05 59.7 Q50.4 58.3 52.25 56.8 46.0 52.75 46.25 48.05 46.5 43.1 54.75 43.15 55.3 41.35 56.85 40.5 58.35 39.75 60.35 40.05 60.1 38.65 58.25 34.0 56.8 29.65 58.1 27.9 58.7 27.1 59.95 27.0 L61.65 26.55 Q61.9 26.25 63.2 26.55 L64.8 26.45 Q65.4 25.85 65.25 24.7 65.05 23.45 65.35 23.0 67.75 19.4 70.15 17.6 M49.05 59.7 Q45.9 62.85 45.25 65.3 44.7 67.35 45.55 69.7 46.45 72.35 49.15 75.35 50.4 76.75 60.2 81.75 67.95 85.7 67.1 88.95 66.85 89.85 64.15 91.7 61.6 93.35 61.65 95.15 61.65 96.6 68.1 102.8 74.55 109.0 74.55 111.1 L71.65 112.25 Q69.6 113.1 69.2 113.8 L68.8 115.2 M67.1 128.45 L66.1 129.7 Q64.7 131.5 64.3 132.7 63.35 135.45 66.5 138.65 M68.4 193.45 L67.9 193.75 Q66.35 194.65 65.9 195.4 65.5 196.05 64.9 200.3" fill="none" stroke="#000000" stroke-linecap="round" stroke-linejoin="miter-clip" stroke-miterlimit="4.0" stroke-opacity="0.4" stroke-width="1.0"/>
  </g>
</svg>
