<?xml version="1.0" encoding="UTF-8" standalone="no"?>
<svg xmlns:xlink="http://www.w3.org/1999/xlink" height="76.2px" width="76.2px" xmlns="http://www.w3.org/2000/svg">
  <g transform="matrix(1.0, 0.0, 0.0, 1.0, 0.5, 0.5)">
    <path d="M73.45 38.25 Q73.45 53.05 63.0 63.5 52.55 73.95 37.75 73.95 22.95 73.95 12.5 63.5 2.05 53.05 2.05 38.25 2.05 23.45 12.5 13.0 22.95 2.55 37.75 2.55 52.55 2.55 63.0 13.0 73.45 23.45 73.45 38.25" fill="#ffffff" fill-opacity="0.14901961" fill-rule="evenodd" stroke="none"/>
    <path d="M75.2 37.6 Q75.2 53.2 64.2 64.2 53.2 75.2 37.6 75.2 22.0 75.2 11.0 64.2 0.0 53.2 0.0 37.6 0.0 22.0 11.0 11.0 22.0 0.0 37.6 0.0 53.2 0.0 64.2 11.0 75.2 22.0 75.2 37.6 M73.45 38.25 Q73.45 23.45 63.0 13.0 52.55 2.55 37.75 2.55 22.95 2.55 12.5 13.0 2.05 23.45 2.05 38.25 2.05 53.05 12.5 63.5 22.95 73.95 37.75 73.95 52.55 73.95 63.0 63.5 73.45 53.05 73.45 38.25" fill="#000000" fill-opacity="0.2" fill-rule="evenodd" stroke="none"/>
    <path d="M73.45 38.25 Q73.45 53.05 63.0 63.5 52.55 73.95 37.75 73.95 22.95 73.95 12.5 63.5 2.05 53.05 2.05 38.25 2.05 23.45 12.5 13.0 22.95 2.55 37.75 2.55 52.55 2.55 63.0 13.0 73.45 23.45 73.45 38.25" fill="none" stroke="#000000" stroke-linecap="round" stroke-linejoin="round" stroke-opacity="0.4" stroke-width="1.0"/>
    <path d="M75.2 37.6 Q75.2 53.2 64.2 64.2 53.2 75.2 37.6 75.2 22.0 75.2 11.0 64.2 0.0 53.2 0.0 37.6 0.0 22.0 11.0 11.0 22.0 0.0 37.6 0.0 53.2 0.0 64.2 11.0 75.2 22.0 75.2 37.6" fill="none" stroke="#000000" stroke-linecap="round" stroke-linejoin="round" stroke-opacity="0.6" stroke-width="1.0"/>
  </g>
</svg>
