<?xml version="1.0" encoding="UTF-8" standalone="no"?>
<svg xmlns:xlink="http://www.w3.org/1999/xlink" height="1074.55px" width="1155.05px" xmlns="http://www.w3.org/2000/svg">
  <g transform="matrix(1.0, 0.0, 0.0, 1.0, 0.6, 0.55)">
    <path d="M878.75 440.05 L886.05 444.2 909.45 457.55 904.3 454.75 Q891.7 447.7 878.75 440.05" fill="#d0d2d3" fill-rule="evenodd" stroke="none"/>
    <path d="M434.2 995.15 L432.9 994.3 432.95 994.3 434.2 995.15" fill="#9b9c9f" fill-rule="evenodd" stroke="none"/>
    <path d="M176.05 788.0 Q173.05 784.95 167.75 777.55 L167.25 776.8 176.05 788.0" fill="#bec0c2" fill-rule="evenodd" stroke="none"/>
    <path d="M1001.0 0.0 L1035.7 55.6 1035.7 139.0 966.15 215.45 771.5 368.35 797.2 389.0 Q677.3 309.1 639.45 250.25 L675.75 225.15 1001.0 0.0 M432.95 994.3 L411.0 980.35 Q399.45 973.0 399.8 972.85 400.1 972.75 387.85 960.55 L522.7 724.6 553.25 671.2 Q526.9 652.6 499.6 631.45 445.15 589.25 440.9 576.9 L440.3 575.65 Q438.25 572.65 431.05 572.65 410.45 572.65 357.75 594.85 L352.6 596.95 331.75 606.25 325.05 609.45 Q314.0 614.9 306.7 618.8 L296.0 625.45 Q282.15 635.8 163.2 770.95 L163.05 770.75 127.4 732.45 Q87.8 689.35 68.15 665.5 33.05 622.75 0.0 577.0 L453.4 88.8 529.0 188.55 540.4 203.6 Q629.55 322.15 640.6 341.3 651.65 360.6 695.65 388.0 717.65 401.65 737.4 411.5 L790.35 525.7 684.95 605.0 764.25 644.5 Q744.45 673.1 722.25 702.6 677.8 761.4 665.45 765.55 653.1 769.65 607.55 803.3 L564.4 836.0 498.55 880.1 Q490.1 899.85 477.6 923.95 452.8 972.3 432.95 994.3 M407.95 330.55 L529.0 188.55 407.95 330.55 410.1 319.8 340.6 236.3 264.15 326.7 326.7 347.55 351.35 396.95 354.45 403.15 458.8 465.75 514.3 535.25 514.3 479.6 458.8 382.35 396.2 389.3 407.95 330.55 M68.15 665.5 L257.2 507.35 351.35 396.95 257.2 507.35 68.15 665.5" fill="#000000" fill-opacity="0.09803922" fill-rule="evenodd" stroke="none"/>
    <path d="M1035.7 55.6 L1001.0 0.0 1091.3 34.7 1153.9 111.25 1035.7 55.6 1153.9 111.25 1119.05 243.35 Q1068.0 297.65 1016.25 351.55 912.8 459.4 909.45 457.55 L886.05 444.2 878.75 440.05 Q867.85 433.65 840.1 416.35 815.75 401.2 808.55 396.5 L797.75 389.4 797.2 389.0 797.75 389.4 808.55 396.5 Q815.75 401.2 840.1 416.35 867.85 433.65 878.75 440.05 891.7 447.7 904.3 454.75 961.25 521.95 968.5 554.05 L733.3 347.55 Q698.5 317.2 572.5 199.95 L546.35 175.55 453.4 88.8 480.65 102.9 Q514.3 120.65 546.3 139.25 629.25 187.2 675.75 225.15 L639.45 250.25 Q677.3 309.1 797.2 389.0 L771.5 368.35 966.15 215.45 1035.7 139.0 1035.7 55.6 M1035.7 139.0 L1119.05 243.35 1035.7 139.0 M407.95 330.55 L396.2 389.3 458.8 382.35 514.3 479.6 514.3 535.25 458.8 465.75 354.45 403.15 351.35 396.95 326.7 347.55 264.15 326.7 340.6 236.3 410.1 319.8 407.95 330.55 351.35 396.95 407.95 330.55" fill="#000000" fill-opacity="0.29803923" fill-rule="evenodd" stroke="none"/>
    <path d="M968.5 554.05 L578.05 1073.45 570.35 1070.25 468.55 1015.5 435.5 995.95 434.2 995.15 432.95 994.3 Q452.8 972.3 477.6 923.95 490.1 899.85 498.55 880.1 L564.4 836.0 607.55 803.3 Q653.1 769.65 665.45 765.55 677.8 761.4 722.25 702.6 744.45 673.1 764.25 644.5 L684.95 605.0 790.35 525.7 737.4 411.5 Q717.65 401.65 695.65 388.0 651.65 360.6 640.6 341.3 629.55 322.15 540.4 203.6 L529.0 188.55 546.35 175.55 572.5 199.95 Q698.5 317.2 733.3 347.55 L968.5 554.05 M211.2 817.15 L176.05 788.0 167.25 776.8 162.9 771.3 163.2 770.95 Q282.15 635.8 296.0 625.45 L306.7 618.8 Q314.0 614.9 325.05 609.45 L331.75 606.25 352.6 596.95 357.75 594.85 Q410.45 572.65 431.05 572.65 438.25 572.65 440.3 575.65 L440.9 576.9 Q445.15 589.25 499.6 631.45 526.9 652.6 553.25 671.2 L522.7 724.6 523.0 724.0 465.75 674.25 347.55 674.25 211.2 817.15 M907.15 503.95 Q868.1 550.05 827.15 596.5 745.55 689.45 736.8 691.65 728.1 693.8 646.5 804.1 L566.5 914.05 468.55 1015.5 566.5 914.05 646.5 804.1 Q728.1 693.8 736.8 691.65 745.55 689.45 827.15 596.5 868.1 550.05 907.15 503.95 M453.4 88.8 L546.35 175.55 529.0 188.55 453.4 88.8" fill="#000000" fill-opacity="0.24705882" fill-rule="evenodd" stroke="none"/>
    <path d="M387.85 960.55 L211.2 817.15 347.55 674.25 465.75 674.25 523.0 724.0 522.7 724.6 387.85 960.55" fill="#000000" fill-opacity="0.44705883" fill-rule="evenodd" stroke="none"/>
    <path d="M1001.0 0.0 L1035.7 55.6 1035.7 139.0 966.15 215.45 771.5 368.35 M675.75 225.15 L639.45 250.25 Q677.3 309.1 797.2 389.0 L797.75 389.4 808.55 396.5 Q815.75 401.2 840.1 416.35 867.85 433.65 878.75 440.05 L886.05 444.2 909.45 457.55 M399.8 972.85 Q400.1 972.75 387.85 960.55 L522.7 724.6 553.25 671.2 Q526.9 652.6 499.6 631.45 445.15 589.25 440.9 576.9 L440.3 575.65 Q438.25 572.65 431.05 572.65 410.45 572.65 357.75 594.85 L352.6 596.95 331.75 606.25 325.05 609.45 Q314.0 614.9 306.7 618.8 L296.0 625.45 Q282.15 635.8 163.2 770.95 M453.4 88.8 L546.35 175.55 572.5 199.95 Q698.5 317.2 733.3 347.55 L968.5 554.05" fill="none" stroke="#000000" stroke-linecap="round" stroke-linejoin="miter-clip" stroke-miterlimit="4.0" stroke-opacity="0.6" stroke-width="1.0"/>
    <path d="M1153.9 111.25 L1091.3 34.7 1001.0 0.0 675.75 225.15 Q629.25 187.2 546.3 139.25 514.3 120.65 480.65 102.9 L453.4 88.8 0.0 577.0 Q33.05 622.75 68.15 665.5 87.8 689.35 127.4 732.45 L163.05 770.75 M909.45 457.55 Q912.8 459.4 1016.25 351.55 1068.0 297.65 1119.05 243.35 L1153.9 111.25 M904.3 454.75 Q961.25 521.95 968.5 554.05 L578.05 1073.45 570.35 1070.25 468.55 1015.5 435.5 995.95 434.2 995.15 432.95 994.3 411.0 980.35 Q399.45 973.0 399.8 972.85 M387.85 960.55 L211.2 817.15 176.05 788.0 167.25 776.8 162.9 771.3 163.2 770.95 M211.2 817.15 L347.55 674.25 465.75 674.25 523.0 724.0 522.7 724.6" fill="none" stroke="#000000" stroke-linecap="round" stroke-linejoin="miter-clip" stroke-miterlimit="4.0" stroke-width="1.0"/>
    <path d="M1035.7 55.6 L1153.9 111.25 M1119.05 243.35 L1035.7 139.0 M529.0 188.55 L407.95 330.55 351.35 396.95 257.2 507.35 68.15 665.5 M468.55 1015.5 L566.5 914.05 646.5 804.1 Q728.1 693.8 736.8 691.65 745.55 689.45 827.15 596.5 868.1 550.05 907.15 503.95 M529.0 188.55 L546.35 175.55" fill="none" stroke="#000000" stroke-linecap="round" stroke-linejoin="miter-clip" stroke-miterlimit="4.0" stroke-opacity="0.4" stroke-width="1.0"/>
  </g>
</svg>
