<?xml version="1.0" encoding="UTF-8" standalone="no"?>
<svg xmlns:xlink="http://www.w3.org/1999/xlink" height="12.8px" width="30.85px" xmlns="http://www.w3.org/2000/svg">
  <g transform="matrix(1.0, 0.0, 0.0, 1.0, 0.6, 0.5)">
    <path d="M5.6 8.65 L5.55 8.65 5.6 8.65" fill="#a2a4a6" fill-rule="evenodd" stroke="none"/>
    <path d="M5.65 8.6 Q6.7 7.3 9.0 6.9 L10.55 6.75 13.4 7.15 14.1 7.4 Q19.7 9.2 21.8 9.15 23.2 9.1 24.05 8.4 L24.65 7.7 Q25.2 8.1 26.1 8.35 26.7 8.5 27.2 8.0 L27.55 7.45 27.25 7.05 27.25 6.9 29.6 6.85 Q29.55 8.05 28.2 8.8 L26.8 9.3 26.75 9.35 26.35 9.55 Q25.05 10.15 23.25 10.3 L22.45 10.3 18.2 10.25 14.1 9.6 Q12.35 9.1 10.55 8.2 L9.85 7.8 9.75 7.75 9.6 7.75 8.6 7.7 Q7.45 7.75 6.55 8.25 L5.65 8.6" fill="#000000" fill-opacity="0.09803922" fill-rule="evenodd" stroke="none"/>
    <path d="M5.65 8.6 L5.6 8.65 4.65 8.9 3.6 9.0 2.9 8.95 2.2 8.8 1.25 8.25 Q-0.15 7.25 0.0 4.75 0.15 2.1 2.25 1.8 L2.35 1.8 4.1 1.9 5.1 2.4 Q5.95 2.95 6.95 3.25 L7.65 3.4 8.15 3.5 8.75 3.55 9.8 3.2 10.0 3.05 10.1 2.95 10.35 2.75 10.55 2.6 12.1 1.65 Q12.9 1.25 13.9 0.9 L17.25 0.15 18.45 0.05 19.95 0.05 22.25 0.35 22.7 0.6 26.35 2.25 Q28.0 2.9 28.75 4.4 L29.2 5.75 Q29.7 5.75 29.75 6.15 L29.65 6.5 29.6 6.85 27.25 6.9 27.25 7.05 27.55 7.45 27.2 8.0 Q26.7 8.5 26.1 8.35 25.2 8.1 24.65 7.7 L24.05 8.4 Q23.2 9.1 21.8 9.15 19.7 9.2 14.1 7.4 L13.4 7.15 10.55 6.75 9.0 6.9 Q6.7 7.3 5.65 8.6" fill="#ffffff" fill-opacity="0.0" fill-rule="evenodd" stroke="none"/>
    <path d="M29.6 6.85 L29.65 6.5 29.75 6.15 Q29.7 5.75 29.2 5.75 L28.75 4.4 Q28.0 2.9 26.35 2.25 L22.7 0.6 22.25 0.35 19.95 0.05 18.45 0.05 17.25 0.15 13.9 0.9 Q12.9 1.25 12.1 1.65 L10.55 2.6 10.35 2.75 10.1 2.95 10.0 3.05 9.8 3.2 8.75 3.55 8.15 3.5 7.65 3.4 6.95 3.25 Q5.95 2.95 5.1 2.4 L4.1 1.9 2.35 1.8 2.25 1.8 Q0.15 2.1 0.0 4.75 -0.15 7.25 1.25 8.25 L2.2 8.8 2.9 8.95 3.6 9.0 4.65 8.9 5.6 8.65 5.65 8.6 6.55 8.25 Q7.45 7.75 8.6 7.7 L9.6 7.75 8.95 7.7 Q7.6 7.7 6.55 8.25 M29.6 6.85 Q29.55 8.05 28.2 8.8 L26.8 9.3 26.75 9.35 26.35 9.55 Q25.05 10.15 23.25 10.3 L22.45 10.3 18.2 10.25 14.1 9.6 Q12.35 9.1 10.55 8.2 L9.85 7.8 9.75 7.75 9.6 7.75 M2.35 1.8 L3.2 1.75 4.1 1.9 M5.6 8.65 L5.55 8.65 5.6 8.65" fill="none" stroke="#000000" stroke-linecap="round" stroke-linejoin="miter-clip" stroke-miterlimit="4.0" stroke-width="1.0"/>
  </g>
</svg>
