<?xml version="1.0" encoding="UTF-8" standalone="no"?>
<svg xmlns:xlink="http://www.w3.org/1999/xlink" height="155.25px" width="404.15px" xmlns="http://www.w3.org/2000/svg">
  <g transform="matrix(1.0, 0.0, 0.0, 1.0, 0.5, 0.5)">
    <path d="M0.15 77.35 Q-0.05 76.9 0.05 76.5 0.6 76.95 2.0 77.2 L0.1 77.15 0.15 77.35" fill="#bdbdbd" fill-rule="evenodd" stroke="none"/>
    <path d="M47.4 72.7 L49.1 72.65 50.2 73.15 47.4 72.7" fill="#a3a3a3" fill-rule="evenodd" stroke="none"/>
    <path d="M208.5 12.25 Q192.05 24.8 183.95 38.6 188.0 30.8 194.95 22.35 208.8 5.55 223.3 2.5 L218.95 5.05 Q213.6 8.35 208.5 12.25" fill="#ffffff" fill-opacity="0.4" fill-rule="evenodd" stroke="none"/>
    <path d="M354.25 107.75 Q339.15 89.35 315.2 75.75 299.6 66.85 282.0 61.15 264.3 55.35 246.55 53.5 L237.3 52.35 228.05 51.75 225.15 51.75 Q224.05 51.55 222.55 50.2 220.2 48.15 217.15 42.95 213.85 37.4 213.8 34.8 213.5 25.3 216.85 17.8 219.95 10.65 224.15 5.0 L226.4 2.65 227.9 0.85 227.55 1.6 227.4 1.85 227.3 2.25 226.55 3.7 Q221.4 13.85 219.85 19.8 215.95 34.9 224.1 42.55 L228.2 43.15 230.05 43.45 Q250.45 44.4 276.15 52.9 327.6 69.9 354.25 107.75 M29.85 62.45 L31.85 60.1 Q36.7 54.9 43.5 52.4 L43.75 52.65 41.7 53.9 Q39.35 55.5 37.85 57.15 33.0 62.4 38.35 66.1 L43.8 69.7 47.5 71.85 49.1 72.65 47.4 72.7 43.15 71.95 Q35.2 70.3 30.8 68.3 27.7 66.85 21.1 66.85 26.85 65.8 28.4 64.75 L28.5 64.65 Q29.0 63.6 29.85 62.45 M394.65 130.8 L394.7 130.8 373.15 129.7 372.4 129.7 371.9 129.75 363.15 130.1 362.25 130.15 362.1 130.15 362.75 139.15 Q363.25 148.85 362.8 152.45 362.35 156.05 359.3 152.45 357.8 150.65 356.35 148.15 348.85 140.95 347.0 132.1 345.6 125.3 347.55 118.0 L349.4 127.65 Q352.1 137.75 356.6 141.75 L357.7 135.9 Q358.6 129.65 357.85 127.6 357.0 125.4 370.35 126.15 384.35 126.95 394.65 130.8" fill="#000000" fill-opacity="0.2" fill-rule="evenodd" stroke="none"/>
    <path d="M354.25 107.75 Q374.05 107.2 390.15 119.8 395.2 123.7 399.25 128.45 L402.3 132.45 Q399.05 131.4 394.65 130.8 384.35 126.95 370.35 126.15 357.0 125.4 357.85 127.6 358.6 129.65 357.7 135.9 L356.6 141.75 Q352.1 137.75 349.4 127.65 L347.55 118.0 348.95 117.1 Q300.5 91.6 254.8 89.95 240.2 89.45 224.1 91.4 L204.7 93.9 Q133.3 97.85 91.25 85.5 81.5 82.65 67.75 76.7 63.9 75.05 60.95 74.1 56.65 72.75 54.25 72.85 L43.8 73.85 30.45 75.25 Q23.0 76.75 13.5 77.3 5.35 77.8 2.0 77.2 0.6 76.95 0.05 76.5 1.35 71.8 2.0 70.95 3.6 68.65 8.15 68.4 L19.95 67.05 21.1 66.85 Q27.7 66.85 30.8 68.3 35.2 70.3 43.15 71.95 L47.4 72.7 43.8 72.9 Q38.2 73.35 33.65 74.5 L30.45 75.25 33.65 74.5 Q38.2 73.35 43.8 72.9 L47.4 72.7 50.2 73.15 49.1 72.65 47.5 71.85 43.8 69.7 38.35 66.1 Q33.0 62.4 37.85 57.15 39.35 55.5 41.7 53.9 L43.75 52.65 43.5 52.4 Q36.7 54.9 31.85 60.1 L29.85 62.45 Q31.25 60.5 33.5 58.45 38.0 54.3 43.8 52.3 47.2 51.1 51.0 50.6 L60.95 49.6 73.0 48.85 82.55 48.6 151.3 44.15 Q162.95 43.65 171.85 42.05 L178.4 40.5 Q184.7 30.0 194.05 19.7 212.75 -0.95 228.15 0.05 L227.3 2.25 227.4 1.85 227.55 1.6 227.9 0.85 226.4 2.65 224.15 5.0 Q219.95 10.65 216.85 17.8 213.5 25.3 213.8 34.8 213.85 37.4 217.15 42.95 220.2 48.15 222.55 50.2 224.05 51.55 225.15 51.75 L228.05 51.75 237.3 52.35 246.55 53.5 Q264.3 55.35 282.0 61.15 299.6 66.85 315.2 75.75 339.15 89.35 354.25 107.75 M58.7 72.85 L50.4 72.6 49.1 72.65 50.4 72.6 58.7 72.85 M119.9 106.2 L123.4 112.9 Q127.1 120.55 125.4 128.6 124.25 134.25 121.4 137.55 119.85 139.35 116.85 134.8 115.3 132.55 114.1 129.9 106.55 121.55 102.7 110.5 L100.9 103.3 101.9 103.45 108.4 104.5 119.9 106.2 M208.5 12.25 Q213.6 8.35 218.95 5.05 L223.3 2.5 Q208.8 5.55 194.95 22.35 188.0 30.8 183.95 38.6 192.05 24.8 208.5 12.25 M173.7 43.9 L175.5 43.4 Q166.25 45.55 144.5 47.4 L93.35 49.95 Q74.45 50.25 60.95 52.0 L58.65 52.3 Q51.55 53.3 48.6 54.25 L60.95 53.1 76.65 52.65 96.6 52.65 Q129.95 52.3 157.85 47.3 166.55 45.75 173.7 43.9 M69.55 68.65 Q68.4 69.3 68.4 70.25 68.4 71.15 69.55 71.8 70.7 72.45 72.25 72.45 73.85 72.45 75.0 71.8 76.1 71.15 76.1 70.25 76.1 69.3 75.0 68.65 73.85 68.0 72.25 68.0 70.65 68.0 69.55 68.65 M107.85 115.6 Q111.5 123.45 116.55 128.15 L111.5 118.65 Q106.25 109.05 105.2 108.7 L107.85 115.6" fill="#ffffff" fill-opacity="0.0" fill-rule="evenodd" stroke="none"/>
    <path d="M69.55 68.65 Q70.65 68.0 72.25 68.0 73.85 68.0 75.0 68.65 76.1 69.3 76.1 70.25 76.1 71.15 75.0 71.8 73.85 72.45 72.25 72.45 70.7 72.45 69.55 71.8 68.4 71.15 68.4 70.25 68.4 69.3 69.55 68.65" fill="#000000" fill-opacity="0.8" fill-rule="evenodd" stroke="none"/>
    <path d="M347.55 118.0 Q343.25 117.45 339.25 116.25 313.6 108.7 294.7 105.6 255.3 99.2 225.9 105.9 L225.2 106.1 Q184.25 112.6 150.9 109.65 L148.1 109.4 146.45 109.25 141.5 108.8 133.6 107.95 128.6 107.35 120.3 106.25 119.9 106.2 108.4 104.5 101.9 103.45 100.9 103.3 Q86.05 100.75 72.3 97.5 53.65 93.1 35.25 87.4 L31.35 86.5 30.95 86.45 28.45 85.9 28.3 85.9 12.2 82.4 11.25 82.2 11.2 82.15 9.55 81.75 3.6 79.8 Q1.3 78.85 0.5 77.95 L0.3 77.6 0.25 77.55 0.15 77.35 0.1 77.15 2.0 77.2 Q5.35 77.8 13.5 77.3 23.0 76.75 30.45 75.25 L43.8 73.85 54.25 72.85 Q56.65 72.75 60.95 74.1 63.9 75.05 67.75 76.7 81.5 82.65 91.25 85.5 133.3 97.85 204.7 93.9 L224.1 91.4 Q240.2 89.45 254.8 89.95 300.5 91.6 348.95 117.1 L347.55 118.0" fill="#ffffff" fill-opacity="0.29803923" fill-rule="evenodd" stroke="none"/>
    <path d="M173.7 43.9 Q166.55 45.75 157.85 47.3 129.95 52.3 96.6 52.65 L76.65 52.65 60.95 53.1 48.6 54.25 Q51.55 53.3 58.65 52.3 L60.95 52.0 Q74.45 50.25 93.35 49.95 L144.5 47.4 Q166.25 45.55 175.5 43.4 L173.7 43.9 M107.85 115.6 L105.2 108.7 Q106.25 109.05 111.5 118.65 L116.55 128.15 Q111.5 123.45 107.85 115.6" fill="#ffffff" fill-opacity="0.49803922" fill-rule="evenodd" stroke="none"/>
    <path d="M394.65 130.8 Q399.05 131.4 402.3 132.45 L399.25 128.45 Q395.2 123.7 390.15 119.8 374.05 107.2 354.25 107.75 327.6 69.9 276.15 52.9 250.45 44.4 230.05 43.45 L228.2 43.15 224.1 42.55 Q215.95 34.9 219.85 19.8 221.4 13.85 226.55 3.7 L227.3 2.25 228.15 0.05 Q212.75 -0.95 194.05 19.7 184.7 30.0 178.4 40.5 L171.85 42.05 Q162.95 43.65 151.3 44.15 L82.55 48.6 73.0 48.85 60.95 49.6 51.0 50.6 Q47.2 51.1 43.8 52.3 38.0 54.3 33.5 58.45 31.25 60.5 29.85 62.45 29.0 63.6 28.5 64.65 L28.4 64.75 Q26.85 65.8 21.1 66.85 L19.95 67.05 8.15 68.4 Q3.6 68.65 2.0 70.95 1.35 71.8 0.05 76.5 -0.05 76.9 0.15 77.35 L0.25 77.55 0.3 77.6 0.5 77.95 Q1.3 78.85 3.6 79.8 L9.55 81.75 11.2 82.15 11.25 82.2 12.2 82.4 28.3 85.9 28.45 85.9 30.95 86.45 31.35 86.5 35.25 87.4 Q53.65 93.1 72.3 97.5 86.05 100.75 100.9 103.3 L102.7 110.5 Q106.55 121.55 114.1 129.9 115.3 132.55 116.85 134.8 119.85 139.35 121.4 137.55 124.25 134.25 125.4 128.6 127.1 120.55 123.4 112.9 L119.9 106.2 120.3 106.25 128.6 107.35 133.6 107.95 141.5 108.8 146.45 109.25 148.1 109.4 150.9 109.65 Q184.25 112.6 225.2 106.1 L225.9 105.9 Q255.3 99.2 294.7 105.6 313.6 108.7 339.25 116.25 343.25 117.45 347.55 118.0 345.6 125.3 347.0 132.1 348.85 140.95 356.35 148.15 357.8 150.65 359.3 152.45 362.35 156.05 362.8 152.45 363.25 148.85 362.75 139.15 L362.1 130.15 362.25 130.15 363.15 130.1 371.9 129.75 372.4 129.7 373.15 129.7 394.7 130.8 394.65 130.8 M69.55 68.65 Q70.65 68.0 72.25 68.0 73.85 68.0 75.0 68.65 76.1 69.3 76.1 70.25 76.1 71.15 75.0 71.8 73.85 72.45 72.25 72.45 70.7 72.45 69.55 71.8 68.4 71.15 68.4 70.25 68.4 69.3 69.55 68.65" fill="none" stroke="#000000" stroke-linecap="round" stroke-linejoin="miter-clip" stroke-miterlimit="4.0" stroke-width="1.0"/>
    <path d="M0.05 76.5 Q0.6 76.95 2.0 77.2" fill="none" stroke="#000000" stroke-linecap="round" stroke-linejoin="miter-clip" stroke-miterlimit="4.0" stroke-opacity="0.6" stroke-width="1.0"/>
    <path d="M49.1 72.65 L50.4 72.6 58.7 72.85 M30.45 75.25 Q23.0 76.75 13.5 77.3 5.35 77.8 2.0 77.2 M30.45 75.25 L33.65 74.5 Q38.2 73.35 43.8 72.9 L47.4 72.7 49.1 72.65" fill="none" stroke="#000000" stroke-linecap="round" stroke-linejoin="round" stroke-opacity="0.6" stroke-width="1.0"/>
    <path d="M100.9 103.3 L101.9 103.45 108.4 104.5 119.9 106.2" fill="none" stroke="#000000" stroke-linecap="round" stroke-linejoin="miter-clip" stroke-miterlimit="4.0" stroke-opacity="0.4" stroke-width="1.0"/>
  </g>
</svg>
