<?xml version="1.0" encoding="UTF-8" standalone="no"?>
<svg xmlns:xlink="http://www.w3.org/1999/xlink" height="179.6px" width="784.8px" xmlns="http://www.w3.org/2000/svg">
  <g transform="matrix(1.0, 0.0, 0.0, 1.0, 0.5, 0.5)">
    <path d="M765.0 16.9 L761.25 38.25 770.5 54.15 746.7 72.7 742.7 85.9 688.45 79.3 552.1 67.4 532.2 50.2 382.6 64.75 276.7 62.1 145.65 43.55 74.15 51.5 35.75 40.9 2.65 44.9 3.6 49.35 2.65 48.85 2.65 48.65 0.0 6.5 132.4 3.85 206.55 11.8 272.4 7.5 Q339.25 2.85 344.2 1.2 349.15 -0.45 389.55 0.2 L428.95 1.2 505.75 6.5 701.65 14.45 762.55 14.45 765.0 16.9 M66.5 66.6 L116.5 59.45 238.3 70.05 357.45 72.7 484.55 72.7 644.25 85.35 618.25 84.6 665.95 124.3 659.3 157.4 610.35 148.15 452.8 150.8 386.45 142.2 323.05 133.6 288.6 108.45 219.8 107.1 225.1 145.5 143.0 119.0 98.0 115.05 74.15 68.7 66.5 66.6" fill="#ffffff" fill-opacity="0.0" fill-rule="evenodd" stroke="none"/>
    <path d="M3.6 49.35 L42.4 70.05 66.5 66.6 74.15 68.7 98.0 115.05 143.0 119.0 225.1 145.5 219.8 107.1 288.6 108.45 323.05 133.6 386.45 142.2 452.8 150.8 610.35 148.15 659.3 157.4 665.95 124.3 618.25 84.6 644.25 85.35 720.2 93.85 773.15 104.45 749.35 168.0 669.9 178.6 426.3 162.7 309.8 141.55 240.95 157.4 145.65 157.4 71.5 149.45 58.25 107.1 29.15 75.35 19.05 66.15 18.75 65.85 16.9 64.1 Q7.3 55.0 4.05 50.9 L3.6 49.35" fill="#000000" fill-opacity="0.2" fill-rule="evenodd" stroke="none"/>
    <path d="M2.65 48.85 L3.6 49.35 4.05 50.9 2.65 48.85" fill="#babcbe" fill-rule="evenodd" stroke="none"/>
    <path d="M3.6 49.35 L2.65 44.9 35.75 40.9 74.15 51.5 145.65 43.55 276.7 62.1 382.6 64.75 532.2 50.2 552.1 67.4 688.45 79.3 742.7 85.9 746.7 72.7 770.5 54.15 761.25 38.25 765.0 16.9 765.0 16.85 783.75 35.6 773.15 72.7 773.15 104.45 720.2 93.85 644.25 85.35 484.55 72.7 357.45 72.7 238.3 70.05 116.5 59.45 66.5 66.6 42.4 70.05 3.6 49.35" fill="#000000" fill-opacity="0.09803922" fill-rule="evenodd" stroke="none"/>
    <path d="M773.15 104.45 L773.15 72.7 783.75 35.6 765.0 16.85 765.0 16.9 762.55 14.45 701.65 14.45 505.75 6.5 428.95 1.2 389.55 0.2 Q349.15 -0.45 344.2 1.2 339.25 2.85 272.4 7.5 L206.55 11.8 132.4 3.85 0.0 6.5 2.65 48.65 2.65 48.85 3.6 49.35 M4.05 50.9 Q7.3 55.0 16.9 64.1 L18.75 65.85 19.05 66.15 29.15 75.35 58.25 107.1 71.5 149.45 145.65 157.4 240.95 157.4 309.8 141.55 426.3 162.7 669.9 178.6 749.35 168.0 773.15 104.45 M4.05 50.9 L2.65 48.85" fill="none" stroke="#373535" stroke-linecap="butt" stroke-linejoin="miter-clip" stroke-miterlimit="4.0" stroke-width="1.0"/>
    <path d="M3.6 49.35 L42.4 70.05 66.5 66.6 116.5 59.45 238.3 70.05 357.45 72.7 484.55 72.7 644.25 85.35 720.2 93.85 773.15 104.45 Z" fill="none" stroke="#000000" stroke-linecap="butt" stroke-linejoin="miter-clip" stroke-miterlimit="4.0" stroke-opacity="0.6" stroke-width="1.0"/>
  </g>
</svg>
