<?xml version="1.0" encoding="UTF-8" standalone="no"?>
<svg xmlns:xlink="http://www.w3.org/1999/xlink" height="309.1px" width="590.25px" xmlns="http://www.w3.org/2000/svg">
  <g transform="matrix(1.0, 0.0, 0.0, 1.0, 0.5, 1.9)">
    <path d="M0.0 270.1 Q10.35 242.4 20.65 208.2 41.3 139.85 41.3 107.45 41.3 62.15 50.55 39.05 62.6 9.0 93.1 3.9 112.75 0.65 160.9 0.05 194.4 -0.4 280.35 3.45 452.35 14.8 570.25 55.7 L576.15 62.05 Q582.7 70.15 586.05 78.8 596.8 106.55 571.35 129.7 511.9 123.2 444.15 117.2 L432.1 116.05 444.15 116.95 Q511.9 122.9 571.35 129.25 593.9 99.8 584.55 77.4 581.65 70.45 575.9 65.0 L570.75 60.95 561.8 65.1 Q551.8 69.5 546.4 70.55 481.3 83.65 386.45 76.2 350.65 73.35 304.55 67.15 L226.95 55.95 Q180.45 49.15 152.9 57.6 113.8 69.65 115.75 111.6 115.95 115.8 119.15 146.5 122.15 174.9 122.55 193.8 123.95 254.75 101.85 268.65 L87.65 275.65 Q73.55 282.65 73.65 283.05 65.25 280.65 52.5 276.3 41.2 272.5 36.1 271.2 19.95 267.0 0.0 270.1" fill="#000000" fill-opacity="0.047058824" fill-rule="evenodd" stroke="none"/>
    <path d="M73.65 283.05 Q73.55 282.65 87.65 275.65 L101.85 268.65 Q123.95 254.75 122.55 193.8 122.15 174.9 119.15 146.5 115.95 115.8 115.75 111.6 113.8 69.65 152.9 57.6 180.45 49.15 226.95 55.95 L304.55 67.15 Q350.65 73.35 386.45 76.2 481.3 83.65 546.4 70.55 551.8 69.5 561.8 65.1 L570.75 60.95 575.9 65.0 Q581.65 70.45 584.55 77.4 593.9 99.8 571.35 129.25 511.9 122.9 444.15 116.95 L432.1 116.05 264.95 107.6 Q252.35 107.35 238.6 109.65 211.0 114.2 205.0 126.9 200.95 135.5 199.85 139.25 197.25 148.0 198.6 156.75 L200.75 170.05 Q202.25 178.15 204.1 185.15 L204.25 185.6 207.35 199.5 Q210.55 214.35 211.05 219.05 212.5 232.3 210.1 242.9 207.95 252.4 201.45 264.7 200.35 266.85 186.9 286.75 173.3 306.95 172.9 306.7 170.9 305.3 122.05 294.05 L73.65 283.05" fill="#000000" fill-opacity="0.2" fill-rule="evenodd" stroke="none"/>
    <path d="M432.1 116.05 L444.15 117.2 Q511.9 123.2 571.35 129.7 596.8 106.55 586.05 78.8 582.7 70.15 576.15 62.05 L570.25 55.7 Q452.35 14.8 280.35 3.45 194.4 -0.4 160.9 0.05 112.75 0.65 93.1 3.9 62.6 9.0 50.55 39.05 41.3 62.15 41.3 107.45 41.3 139.85 20.65 208.2 10.35 242.4 0.0 270.1 M432.1 116.05 L264.95 107.6 Q252.35 107.35 238.6 109.65 211.0 114.2 205.0 126.9 200.95 135.5 199.85 139.25 197.25 148.0 198.6 156.75 L200.75 170.05 Q202.25 178.15 204.1 185.15 L204.25 185.6 207.35 199.5 Q210.55 214.35 211.05 219.05 212.5 232.3 210.1 242.9 207.95 252.4 201.45 264.7 200.35 266.85 186.9 286.75 173.3 306.95 172.9 306.7" fill="none" stroke="#000000" stroke-linecap="round" stroke-linejoin="miter-clip" stroke-miterlimit="4.0" stroke-width="1.0"/>
  </g>
</svg>
