<?xml version="1.0" encoding="UTF-8" standalone="no"?>
<svg xmlns:xlink="http://www.w3.org/1999/xlink" height="1083.0px" width="1100.75px" xmlns="http://www.w3.org/2000/svg">
  <g transform="matrix(1.0, 0.0, 0.0, 1.0, -99.75, 1.85)">
    <path d="M945.1 404.9 L934.85 411.05 971.3 360.15 1024.25 304.95 945.1 404.9" fill="#000000" fill-opacity="0.24705882" fill-rule="evenodd" stroke="none"/>
    <path d="M661.05 763.75 L669.4 755.15 645.95 836.95 641.95 773.95 Q642.45 767.95 639.65 731.7 L636.95 696.95 643.4 725.6 Q643.65 729.85 646.3 748.35 649.1 767.9 649.95 768.95 652.25 771.8 661.05 763.75 M731.25 870.8 Q721.8 850.95 722.95 850.95 L736.2 864.5 Q749.85 879.2 752.15 885.0 754.45 890.8 763.8 930.5 L772.7 969.0 761.45 959.3 Q749.5 948.65 745.95 943.95 742.4 939.25 741.35 914.45 L740.95 890.6 731.25 870.8" fill="#000000" fill-opacity="0.34901962" fill-rule="evenodd" stroke="none"/>
    <path d="M872.25 560.1 L854.4 570.5 Q870.4 533.05 887.4 495.25 921.45 419.6 926.6 417.9 931.75 416.2 981.9 392.1 999.15 383.85 1015.9 375.75 L1091.05 360.7 Q1053.15 373.25 1013.8 387.95 934.9 416.85 927.8 426.35 920.7 436.0 895.75 499.0 883.3 530.5 872.25 560.1 M726.85 643.0 L725.85 623.95 Q725.0 603.2 725.85 594.55 726.7 585.95 746.65 541.25 756.65 518.9 766.45 498.3 L784.3 481.65 Q802.85 463.05 806.3 453.6 L831.75 384.9 848.9 329.2 858.6 307.9 853.85 346.0 838.2 387.95 841.3 388.9 Q845.3 390.3 851.25 393.15 L851.95 397.2 854.8 407.15 Q848.15 404.55 838.7 402.65 L830.6 401.2 822.1 435.35 Q811.65 471.15 801.95 478.45 791.05 486.75 779.65 501.45 769.25 514.95 763.8 527.05 757.15 541.05 726.85 643.0 M909.0 321.05 Q914.4 332.8 921.1 334.05 928.0 335.35 949.3 323.85 L961.5 316.9 961.45 317.35 Q954.8 330.1 949.1 333.2 928.75 343.85 917.85 340.8 913.3 339.6 910.5 331.05 L908.6 322.55 909.0 321.05 M846.8 285.45 L837.9 306.55 836.05 260.95 842.95 239.85 842.7 291.0 846.8 285.45 M714.8 584.2 L708.0 603.5 714.85 511.4 744.45 341.6 756.8 324.45 749.95 316.2 758.85 284.55 805.75 232.7 801.45 237.95 Q779.9 264.95 776.35 270.65 771.35 278.95 764.25 291.95 755.95 306.65 754.8 310.7 753.85 314.25 772.55 312.6 L791.75 310.0 815.45 324.2 788.2 321.85 Q782.05 320.9 766.15 330.35 L751.45 339.85 714.8 584.2 M674.0 624.2 L669.7 640.4 Q661.85 626.65 653.65 610.35 637.25 577.65 635.55 564.7 634.4 555.8 633.8 547.85 637.8 558.35 648.15 579.2 663.8 610.9 674.0 624.2 M692.65 142.1 L699.5 150.65 Q706.45 159.65 706.65 162.2 706.85 164.75 693.1 182.7 L679.25 200.2 680.15 193.6 701.7 162.35 692.2 146.7 692.65 142.1 M666.85 285.9 Q655.45 328.65 643.4 371.4 619.3 456.95 615.9 457.1 612.55 457.25 582.6 401.15 567.65 373.15 553.35 345.05 L554.45 325.75 Q555.9 305.65 557.45 301.75 559.0 297.85 565.05 290.9 L570.8 284.7 Q567.2 294.7 562.85 317.55 560.45 331.05 558.55 342.9 L612.6 423.5 666.85 285.9 M528.45 310.7 L529.3 322.35 497.65 292.8 Q477.35 183.6 476.35 176.65 475.75 172.3 435.8 127.7 L395.95 83.95 416.85 100.75 Q478.25 166.15 481.1 176.1 483.9 186.05 501.7 284.85 L528.45 310.7 M120.25 276.0 L121.4 271.5 Q123.4 263.35 122.75 261.7 L118.75 250.15 118.8 250.15 Q126.05 253.2 127.05 256.05 130.9 265.95 126.35 277.95 124.0 284.05 121.0 288.0 L120.25 276.0 M176.6 213.35 L178.05 213.45 191.45 213.7 210.35 213.1 241.0 205.85 261.9 200.7 254.0 211.25 Q217.0 217.8 205.7 218.05 199.35 218.25 178.05 213.8 L176.6 213.35 M170.2 337.95 L170.7 326.5 Q174.4 324.8 178.05 323.05 L222.0 308.4 220.15 310.95 Q214.65 317.3 178.05 328.95 L171.45 331.8 170.2 337.95 M284.55 264.5 Q293.4 260.9 298.35 259.1 303.05 257.4 324.55 256.7 335.3 256.35 345.1 256.35 L392.5 277.65 386.65 280.2 Q344.5 260.15 331.8 257.15 324.45 255.25 311.4 260.95 297.4 267.1 293.85 267.1 290.5 267.1 284.55 264.5 M416.7 340.55 L428.9 354.65 Q432.35 358.55 474.65 434.3 L516.2 509.3 558.15 580.1 540.3 570.95 540.3 570.9 Q543.15 568.05 498.4 491.05 L452.9 414.75 416.7 340.55 M269.25 513.7 L272.9 507.3 272.0 495.35 280.85 511.4 325.4 503.35 Q318.05 506.2 310.7 509.75 295.75 516.85 295.5 519.7 295.3 524.45 301.45 532.05 L316.6 528.0 325.85 532.5 Q316.6 543.9 310.2 546.25 306.2 547.65 300.25 546.0 L295.05 544.1 Q287.7 527.3 285.35 522.8 283.9 520.2 278.2 517.8 271.45 515.1 269.25 513.7 M286.4 471.2 L292.15 468.7 Q302.45 464.4 305.9 464.0 309.35 463.65 339.25 468.95 L351.55 471.15 286.4 471.2 M422.7 512.65 L452.3 547.85 505.25 583.6 538.8 612.75 492.2 592.2 452.15 558.35 422.7 512.65 M273.15 615.1 L294.9 609.7 Q339.6 630.3 349.9 633.75 356.35 635.9 381.6 634.7 L391.9 634.15 380.1 638.55 Q367.7 642.8 363.55 642.7 354.55 642.45 338.4 634.15 317.55 623.25 313.75 621.85 293.0 614.35 273.15 615.1 M452.9 640.75 Q494.45 662.25 497.0 664.0 500.9 666.6 503.55 676.1 504.4 679.15 504.9 682.3 L505.25 684.95 Q480.9 662.55 465.45 650.05 458.9 644.8 452.9 640.75 M518.9 912.75 Q516.4 934.7 509.2 950.7 505.1 959.85 502.0 962.95 L474.3 986.85 Q483.95 977.6 502.4 944.25 L518.9 912.75 M713.55 1039.15 L661.95 952.95 Q661.3 933.2 661.15 909.55 660.9 862.25 663.6 842.7 666.3 823.15 678.75 774.0 L690.65 728.8 750.4 654.8 773.3 630.45 Q795.3 607.85 803.1 603.55 811.15 599.1 849.65 587.3 868.9 581.4 886.55 576.35 823.25 609.3 804.1 624.7 801.65 626.65 798.95 630.45 783.75 651.9 761.2 732.3 L761.1 737.8 Q760.55 762.65 761.3 786.35 763.1 845.7 772.8 897.9 796.25 1024.95 859.55 1045.1 870.2 1048.4 924.0 1060.0 962.15 1068.3 954.1 1070.7 937.75 1074.95 872.35 1072.6 798.4 1069.75 779.65 1057.4 761.9 1045.8 736.05 1041.3 L713.55 1039.15 M927.1 547.95 L943.25 534.6 959.6 521.05 1005.25 507.45 Q992.7 513.0 976.7 521.1 L975.2 521.85 927.1 547.95 M614.5 610.75 L628.0 627.95 644.95 682.95 621.55 644.3 601.0 594.95 Q601.0 593.8 614.5 610.75 M550.6 718.1 L544.3 702.25 592.25 734.0 601.0 757.9 600.85 769.2 591.9 852.3 588.95 935.1 Q582.45 933.3 579.1 933.95 573.4 935.1 531.45 965.2 510.45 980.25 490.6 995.05 503.6 981.6 517.5 965.85 545.35 934.4 549.9 923.0 554.45 911.6 561.75 837.25 L568.15 765.2 Q569.05 765.6 558.3 737.8 L550.6 718.1 M731.25 870.8 L740.95 890.6 741.35 914.45 Q742.4 939.25 745.95 943.95 749.5 948.65 761.45 959.3 L772.7 969.0 763.8 930.5 Q754.45 890.8 752.15 885.0 749.85 879.2 736.2 864.5 L722.95 850.95 Q721.8 850.95 731.25 870.8" fill="#000000" fill-opacity="0.14901961" fill-rule="evenodd" stroke="none"/>
    <path d="M1015.9 375.75 Q999.15 383.85 981.9 392.1 931.75 416.2 926.6 417.9 921.45 419.6 887.4 495.25 870.4 533.05 854.4 570.5 L872.25 560.1 957.4 516.4 1048.55 484.15 1050.7 483.7 1166.55 524.45 1198.75 551.95 1184.2 544.9 Q1161.95 534.35 1136.4 523.75 1077.85 499.3 1048.55 496.05 L1043.65 495.55 Q1032.35 495.55 1005.25 507.45 L959.6 521.05 943.25 534.6 927.1 547.95 999.35 548.15 1018.3 601.7 Q1025.65 620.9 1023.5 638.65 1022.55 647.7 1019.95 652.65 L964.75 682.05 1011.9 637.95 992.7 566.4 Q989.25 555.6 950.6 561.5 L940.15 563.25 937.25 563.8 886.55 576.35 Q868.9 581.4 849.65 587.3 811.15 599.1 803.1 603.55 795.3 607.85 773.3 630.45 L750.4 654.8 690.65 728.8 678.75 774.0 Q666.3 823.15 663.6 842.7 660.9 862.25 661.15 909.55 661.3 933.2 661.95 952.95 L713.55 1039.15 780.15 1080.4 549.1 1056.7 Q516.4 1053.4 431.55 1060.95 368.05 1066.65 375.15 1058.85 381.55 1051.7 411.65 1032.55 443.65 1012.1 464.75 995.05 L469.0 991.55 474.3 986.85 502.0 962.95 Q505.1 959.85 509.2 950.7 516.4 934.7 518.9 912.75 L532.5 874.25 Q537.95 840.6 532.75 792.25 L526.4 750.15 Q525.55 748.8 505.25 684.95 L504.9 682.3 Q504.4 679.15 503.55 676.1 500.9 666.6 497.0 664.0 494.45 662.25 452.9 640.75 432.5 626.95 418.05 626.6 408.2 626.35 391.9 634.15 L381.6 634.7 Q356.35 635.9 349.9 633.75 339.6 630.3 294.9 609.7 L273.15 615.1 Q260.35 615.55 247.9 619.45 225.6 626.35 189.6 651.0 L187.65 650.15 Q177.8 643.45 173.75 641.1 166.4 636.85 160.65 635.55 147.8 632.65 131.3 643.4 120.7 650.0 101.4 670.45 109.8 659.3 120.0 647.65 140.5 624.25 147.95 623.5 159.9 622.15 174.75 629.1 182.2 632.55 187.25 636.3 L187.65 636.0 277.05 591.25 217.55 537.2 Q216.2 535.55 214.45 530.7 212.55 525.35 210.85 522.75 204.6 513.1 187.2 512.0 174.2 511.1 164.35 511.8 157.95 512.2 152.75 510.95 146.9 509.5 152.9 507.2 158.45 505.1 170.05 503.6 182.2 502.0 192.15 502.25 203.7 502.6 207.15 505.5 212.1 509.75 268.75 561.9 330.6 613.3 368.5 620.2 381.05 622.55 395.55 614.0 410.7 605.0 420.15 605.95 433.7 607.4 474.7 619.95 512.6 631.3 544.8 642.95 L538.8 612.75 505.25 583.6 452.3 547.85 422.7 512.65 394.6 469.0 351.55 471.15 339.25 468.95 Q309.35 463.65 305.9 464.0 302.45 464.4 292.15 468.7 L286.4 471.2 282.0 471.15 268.05 488.2 272.0 495.35 272.9 507.3 269.25 513.7 269.0 513.55 Q265.65 510.95 261.65 496.0 L258.3 481.3 273.7 459.3 281.55 456.2 Q290.3 453.1 294.55 452.9 297.4 452.9 317.1 455.95 336.05 459.05 340.8 458.55 349.55 457.4 372.8 443.4 L363.55 424.7 322.75 394.35 265.45 373.25 248.6 372.55 Q230.85 372.8 226.55 378.95 221.8 385.6 222.05 401.7 222.05 416.85 225.15 419.25 228.95 422.05 239.85 419.25 L241.75 395.75 Q252.85 425.15 250.25 430.6 247.9 436.05 237.0 437.95 L211.65 418.05 Q209.95 410.2 209.0 400.75 207.15 382.0 211.15 374.45 214.95 366.85 229.15 359.25 236.3 355.5 242.45 353.1 L283.2 356.65 Q292.7 357.4 337.25 388.65 359.25 404.3 379.65 419.7 L460.2 528.7 Q535.6 575.5 540.3 570.95 L558.15 580.1 516.2 509.3 474.65 434.3 Q432.35 358.55 428.9 354.65 L416.7 340.55 387.45 280.6 386.65 280.2 392.5 277.65 345.1 256.35 Q335.3 256.35 324.55 256.7 303.05 257.4 298.35 259.1 293.4 260.9 284.55 264.5 280.1 262.5 274.2 259.05 L261.65 250.95 272.3 245.5 Q285.35 239.85 295.75 237.7 306.2 235.55 342.45 245.3 360.45 250.25 376.35 255.5 L376.2 254.95 Q374.1 247.45 370.75 239.4 L365.2 227.5 Q349.55 197.9 328.2 188.9 306.65 179.9 287.7 188.65 L273.0 199.3 251.9 244.35 Q229.6 296.4 222.0 308.4 L178.05 323.05 Q174.4 324.8 170.7 326.5 L170.2 337.95 Q163.75 369.4 159.1 380.85 155.9 388.65 148.3 393.65 L141.4 396.95 Q148.8 388.65 153.4 376.35 157.95 363.8 163.3 333.2 150.5 333.45 144.6 335.35 L124.2 344.35 131.3 333.45 Q138.7 322.55 141.05 321.85 144.95 320.4 166.85 320.15 L178.05 316.35 Q207.85 308.85 211.85 305.0 216.85 300.25 254.5 211.15 L254.0 211.25 261.9 200.7 241.0 205.85 210.35 213.1 191.45 213.7 178.05 213.45 176.6 213.35 156.75 207.15 Q156.55 207.1 150.5 210.4 147.45 212.1 144.45 213.75 L131.3 221.3 Q125.0 224.5 116.6 231.3 L109.35 237.4 111.7 247.6 118.75 250.15 122.75 261.7 Q123.4 263.35 121.4 271.5 L120.25 276.0 119.3 261.3 106.15 254.6 102.95 236.9 112.9 225.95 Q123.65 214.3 128.2 211.8 L144.45 203.35 154.55 196.7 178.05 201.95 Q201.0 205.45 204.75 205.45 210.9 205.7 257.6 194.55 L274.65 184.15 Q292.9 173.7 299.3 173.5 312.6 173.25 318.75 174.65 332.75 177.5 344.6 189.1 356.2 200.5 371.1 223.7 378.45 235.35 383.45 244.8 L400.5 258.8 472.3 401.45 501.95 454.75 Q537.0 515.45 563.55 551.25 576.35 568.5 598.6 587.25 586.55 506.2 582.75 494.8 577.05 477.3 557.15 428.7 537.0 380.15 530.35 367.35 524.7 356.45 505.95 331.55 L488.2 308.8 Q471.6 204.55 465.9 192.2 460.2 180.1 387.25 101.9 L358.1 80.35 330.35 87.0 312.75 79.8 Q328.7 69.05 329.65 69.2 L351.9 67.1 324.9 34.85 285.55 12.35 329.15 27.25 360.45 55.45 395.95 83.95 435.8 127.7 Q475.75 172.3 476.35 176.65 477.35 183.6 497.65 292.8 L529.3 322.35 528.45 310.7 549.8 264.5 592.2 208.1 579.2 167.55 Q565.7 126.55 563.55 125.6 561.4 124.65 553.85 126.3 L546.7 128.2 562.0 118.0 565.2 88.15 570.4 111.65 Q571.85 116.15 588.9 159.05 597.45 180.6 605.75 200.95 L612.6 197.9 Q620.2 194.1 623.25 190.3 628.5 184.15 645.05 119.2 L650.7 82.5 Q656.3 44.15 656.0 36.0 655.7 27.85 651.65 13.1 L647.65 0.0 663.8 22.55 650.4 130.4 700.5 61.85 679.2 97.6 643.65 152.4 627.3 207.35 Q614.95 222.3 601.95 239.1 575.85 272.55 572.1 281.3 L570.8 284.7 565.05 290.9 Q559.0 297.85 557.45 301.75 555.9 305.65 554.45 325.75 L553.35 345.05 Q567.65 373.15 582.6 401.15 612.55 457.25 615.9 457.1 619.3 456.95 643.4 371.4 655.45 328.65 666.85 285.9 L667.35 284.6 679.25 200.2 693.1 182.7 Q706.85 164.75 706.65 162.2 706.45 159.65 699.5 150.65 L692.65 142.1 694.6 122.05 697.6 139.6 710.25 153.6 726.8 150.25 Q726.6 146.25 726.8 141.25 727.3 131.55 728.95 127.5 730.75 123.5 739.55 116.15 743.95 112.5 748.0 109.6 L750.75 75.15 734.15 56.9 757.15 67.3 754.55 111.15 Q742.7 125.85 738.45 132.95 735.85 137.45 735.1 150.0 734.65 156.2 734.9 161.4 L711.2 164.25 695.05 191.0 672.55 362.6 639.15 487.95 Q631.3 524.9 631.3 538.9 631.4 541.5 633.8 547.85 634.4 555.8 635.55 564.7 637.25 577.65 653.65 610.35 661.85 626.65 669.7 640.4 L674.0 624.2 676.1 626.8 744.35 282.0 Q793.4 217.1 798.4 209.05 800.3 205.95 808.1 180.6 815.7 156.4 819.7 151.45 824.2 145.75 845.55 141.95 856.0 140.05 865.7 139.35 L885.1 168.75 862.0 145.6 Q858.05 145.95 841.85 153.8 825.5 161.7 823.75 164.25 820.2 169.7 820.9 191.5 821.4 202.65 822.3 212.35 L805.75 232.7 758.85 284.55 749.95 316.2 756.8 324.45 744.45 341.6 714.85 511.4 708.0 603.5 714.8 584.2 760.25 480.35 775.15 463.8 Q791.5 445.55 798.4 437.0 809.3 423.25 835.35 342.9 829.2 305.7 828.0 295.55 827.3 289.15 835.1 263.75 L836.05 260.95 837.9 306.55 846.8 285.45 872.55 250.25 888.45 245.3 Q905.25 240.3 910.5 240.55 915.95 240.8 921.85 255.95 L929.7 280.85 Q931.55 287.45 924.45 306.45 918.05 322.8 921.4 323.95 927.9 326.0 936.75 324.5 947.6 322.7 953.2 316.0 954.3 314.7 953.35 311.25 952.35 307.35 953.15 305.25 L961.5 316.9 949.3 323.85 Q928.0 335.35 921.1 334.05 914.4 332.8 909.0 321.05 L916.4 290.1 Q916.15 284.15 915.0 277.5 912.4 264.25 907.65 260.95 902.9 257.6 891.75 259.25 L881.35 261.65 Q876.1 269.2 870.9 277.75 860.25 295.05 859.55 300.25 L858.6 307.9 848.9 329.2 831.75 384.9 806.3 453.6 Q802.85 463.05 784.3 481.65 L766.45 498.3 Q756.65 518.9 746.65 541.25 726.7 585.95 725.85 594.55 725.0 603.2 725.85 623.95 L726.85 643.0 726.8 643.15 Q770.9 592.45 781.1 586.3 800.3 574.9 858.8 549.8 L915.0 421.85 Q920.45 409.5 953.85 371.35 970.65 352.15 986.3 335.55 L1052.9 268.75 1024.25 304.95 971.3 360.15 934.85 411.05 945.1 404.9 944.6 405.5 1015.9 375.75 M661.05 763.75 Q652.25 771.8 649.95 768.95 649.1 767.9 646.3 748.35 643.65 729.85 643.4 725.6 L636.95 696.95 639.65 731.7 Q642.45 767.95 641.95 773.95 L645.95 836.95 669.4 755.15 661.05 763.75 M614.5 610.75 Q601.0 593.8 601.0 594.95 L621.55 644.3 644.95 682.95 628.0 627.95 614.5 610.75 M550.6 718.1 L558.3 737.8 Q569.05 765.6 568.15 765.2 L561.75 837.25 Q554.45 911.6 549.9 923.0 545.35 934.4 517.5 965.85 503.6 981.6 490.6 995.05 510.45 980.25 531.45 965.2 573.4 935.1 579.1 933.95 582.45 933.3 588.95 935.1 L591.9 852.3 600.85 769.2 601.0 757.9 592.25 734.0 544.3 702.25 550.6 718.1" fill="#ffffff" fill-opacity="0.0" fill-rule="evenodd" stroke="none"/>
    <path d="M1015.9 375.75 L944.6 405.5 945.1 404.9 1024.25 304.95 1052.9 268.75 986.3 335.55 Q970.65 352.15 953.85 371.35 920.45 409.5 915.0 421.85 L858.8 549.8 Q800.3 574.9 781.1 586.3 770.9 592.45 726.8 643.15 L726.85 643.0 Q757.15 541.05 763.8 527.05 769.25 514.95 779.65 501.45 791.05 486.75 801.95 478.45 811.65 471.15 822.1 435.35 L830.6 401.2 838.7 402.65 Q848.15 404.55 854.8 407.15 L851.95 397.2 851.25 393.15 Q845.3 390.3 841.3 388.9 L838.2 387.95 853.85 346.0 858.6 307.9 859.55 300.25 Q860.25 295.05 870.9 277.75 876.1 269.2 881.35 261.65 L891.75 259.25 Q902.9 257.6 907.65 260.95 912.4 264.25 915.0 277.5 916.15 284.15 916.4 290.1 L909.0 321.05 908.6 322.55 910.5 331.05 Q913.3 339.6 917.85 340.8 928.75 343.85 949.1 333.2 954.8 330.1 961.45 317.35 L961.5 316.9 953.15 305.25 Q952.35 307.35 953.35 311.25 954.3 314.7 953.2 316.0 947.6 322.7 936.75 324.5 927.9 326.0 921.4 323.95 918.05 322.8 924.45 306.45 931.55 287.45 929.7 280.85 L921.85 255.95 Q915.95 240.8 910.5 240.55 905.25 240.3 888.45 245.3 L872.55 250.25 846.8 285.45 842.7 291.0 842.95 239.85 836.05 260.95 835.1 263.75 Q827.3 289.15 828.0 295.55 829.2 305.7 835.35 342.9 809.3 423.25 798.4 437.0 791.5 445.55 775.15 463.8 L760.25 480.35 714.8 584.2 751.45 339.85 766.15 330.35 Q782.05 320.9 788.2 321.85 L815.45 324.2 791.75 310.0 772.55 312.6 Q753.85 314.25 754.8 310.7 755.95 306.65 764.25 291.95 771.35 278.95 776.35 270.65 779.9 264.95 801.45 237.95 L805.75 232.7 822.3 212.35 Q821.4 202.65 820.9 191.5 820.2 169.7 823.75 164.25 825.5 161.7 841.85 153.8 858.05 145.95 862.0 145.6 L885.1 168.75 865.7 139.35 Q856.0 140.05 845.55 141.95 824.2 145.75 819.7 151.45 815.7 156.4 808.1 180.6 800.3 205.95 798.4 209.05 793.4 217.1 744.35 282.0 L676.1 626.8 674.0 624.2 Q663.8 610.9 648.15 579.2 637.8 558.35 633.8 547.85 631.4 541.5 631.3 538.9 631.3 524.9 639.15 487.95 L672.55 362.6 695.05 191.0 711.2 164.25 734.9 161.4 Q734.65 156.2 735.1 150.0 735.85 137.45 738.45 132.95 742.7 125.85 754.55 111.15 L757.15 67.3 734.15 56.9 750.75 75.15 748.0 109.6 Q743.95 112.5 739.55 116.15 730.75 123.5 728.95 127.5 727.3 131.55 726.8 141.25 726.6 146.25 726.8 150.25 L710.25 153.6 697.6 139.6 694.6 122.05 692.65 142.1 692.2 146.7 701.7 162.35 680.15 193.6 679.25 200.2 667.35 284.6 666.85 285.9 612.6 423.5 558.55 342.9 Q560.45 331.05 562.85 317.55 567.2 294.7 570.8 284.7 L572.1 281.3 Q575.85 272.55 601.95 239.1 614.95 222.3 627.3 207.35 L643.65 152.4 679.2 97.6 700.5 61.85 650.4 130.4 663.8 22.55 647.65 0.0 651.65 13.1 Q655.7 27.85 656.0 36.0 656.3 44.15 650.7 82.5 L645.05 119.2 Q628.5 184.15 623.25 190.3 620.2 194.1 612.6 197.9 L605.75 200.95 Q597.45 180.6 588.9 159.05 571.85 116.15 570.4 111.65 L565.2 88.15 562.0 118.0 546.7 128.2 553.85 126.3 Q561.4 124.65 563.55 125.6 565.7 126.55 579.2 167.55 L592.2 208.1 549.8 264.5 528.45 310.7 501.7 284.85 Q483.9 186.05 481.1 176.1 478.25 166.15 416.85 100.75 L395.95 83.95 360.45 55.45 329.15 27.25 285.55 12.35 324.9 34.85 351.9 67.1 329.65 69.2 Q328.7 69.05 312.75 79.8 L330.35 87.0 358.1 80.35 387.25 101.9 Q460.2 180.1 465.9 192.2 471.6 204.55 488.2 308.8 L505.95 331.55 Q524.7 356.45 530.35 367.35 537.0 380.15 557.15 428.7 577.05 477.3 582.75 494.8 586.55 506.2 598.6 587.25 576.35 568.5 563.55 551.25 537.0 515.45 501.95 454.75 L472.3 401.45 400.5 258.8 383.45 244.8 Q378.45 235.35 371.1 223.7 356.2 200.5 344.6 189.1 332.75 177.5 318.75 174.65 312.6 173.25 299.3 173.5 292.9 173.7 274.65 184.15 L257.6 194.55 Q210.9 205.7 204.75 205.45 201.0 205.45 178.05 201.95 L154.55 196.7 144.45 203.35 128.2 211.8 Q123.65 214.3 112.9 225.95 L102.95 236.9 106.15 254.6 119.3 261.3 120.25 276.0 121.0 288.0 Q124.0 284.05 126.35 277.95 130.9 265.95 127.05 256.05 126.05 253.2 118.8 250.15 L118.75 250.15 111.7 247.6 109.35 237.4 116.6 231.3 Q125.0 224.5 131.3 221.3 L144.45 213.75 Q147.45 212.1 150.5 210.4 156.55 207.1 156.75 207.15 L176.6 213.35 178.05 213.8 Q199.35 218.25 205.7 218.05 217.0 217.8 254.0 211.25 L254.5 211.15 Q216.85 300.25 211.85 305.0 207.85 308.85 178.05 316.35 L166.85 320.15 Q144.95 320.4 141.05 321.85 138.7 322.55 131.3 333.45 L124.2 344.35 144.6 335.35 Q150.5 333.45 163.3 333.2 157.95 363.8 153.4 376.35 148.8 388.65 141.4 396.95 L148.3 393.65 Q155.9 388.65 159.1 380.85 163.75 369.4 170.2 337.95 L171.45 331.8 178.05 328.95 Q214.65 317.3 220.15 310.95 L222.0 308.4 Q229.6 296.4 251.9 244.35 L273.0 199.3 287.7 188.65 Q306.65 179.9 328.2 188.9 349.55 197.9 365.2 227.5 L370.75 239.4 Q374.1 247.45 376.2 254.95 L376.35 255.5 Q360.45 250.25 342.45 245.3 306.2 235.55 295.75 237.7 285.35 239.85 272.3 245.5 L261.65 250.95 274.2 259.05 Q280.1 262.5 284.55 264.5 290.5 267.1 293.85 267.1 297.4 267.1 311.4 260.95 324.45 255.25 331.8 257.15 344.5 260.15 386.65 280.2 L387.45 280.6 416.7 340.55 452.9 414.75 498.4 491.05 Q543.15 568.05 540.3 570.9 L540.3 570.95 Q535.6 575.5 460.2 528.7 L379.65 419.7 Q359.25 404.3 337.25 388.65 292.7 357.4 283.2 356.65 L242.45 353.1 Q236.3 355.5 229.15 359.25 214.95 366.85 211.15 374.45 207.15 382.0 209.0 400.75 209.95 410.2 211.65 418.05 L237.0 437.95 Q247.9 436.05 250.25 430.6 252.85 425.15 241.75 395.75 L239.85 419.25 Q228.95 422.05 225.15 419.25 222.05 416.85 222.05 401.7 221.8 385.6 226.55 378.95 230.85 372.8 248.6 372.55 L265.45 373.25 322.75 394.35 363.55 424.7 372.8 443.4 Q349.55 457.4 340.8 458.55 336.05 459.05 317.1 455.95 297.4 452.9 294.55 452.9 290.3 453.1 281.55 456.2 L273.7 459.3 258.3 481.3 261.65 496.0 Q265.65 510.95 269.0 513.55 L269.25 513.7 Q271.45 515.1 278.2 517.8 283.9 520.2 285.35 522.8 287.7 527.3 295.05 544.1 L300.25 546.0 Q306.2 547.65 310.2 546.25 316.6 543.9 325.85 532.5 L316.6 528.0 301.45 532.05 Q295.3 524.45 295.5 519.7 295.75 516.85 310.7 509.75 318.05 506.2 325.4 503.35 L280.85 511.4 272.0 495.35 268.05 488.2 282.0 471.15 286.4 471.2 351.55 471.15 394.6 469.0 422.7 512.65 452.15 558.35 492.2 592.2 538.8 612.75 544.8 642.95 Q512.6 631.3 474.7 619.95 433.7 607.4 420.15 605.95 410.7 605.0 395.55 614.0 381.05 622.55 368.5 620.2 330.6 613.3 268.75 561.9 212.1 509.75 207.15 505.5 203.7 502.6 192.15 502.25 182.2 502.0 170.05 503.6 158.45 505.1 152.9 507.2 146.9 509.5 152.75 510.95 157.95 512.2 164.35 511.8 174.2 511.1 187.2 512.0 204.6 513.1 210.85 522.75 212.55 525.35 214.45 530.7 216.2 535.55 217.55 537.2 L277.05 591.25 187.65 636.0 187.25 636.3 Q182.2 632.55 174.75 629.1 159.9 622.15 147.95 623.5 140.5 624.25 120.0 647.65 109.8 659.3 101.4 670.45 120.7 650.0 131.3 643.4 147.8 632.65 160.65 635.55 166.4 636.85 173.75 641.1 177.8 643.45 187.65 650.15 L189.6 651.0 Q225.6 626.35 247.9 619.45 260.35 615.55 273.15 615.1 293.0 614.35 313.75 621.85 317.55 623.25 338.4 634.15 354.55 642.45 363.55 642.7 367.7 642.8 380.1 638.55 L391.9 634.15 Q408.2 626.35 418.05 626.6 432.5 626.95 452.9 640.75 458.9 644.8 465.45 650.05 480.9 662.55 505.25 684.95 525.55 748.8 526.4 750.15 M886.55 576.35 L937.25 563.8 940.15 563.25 950.6 561.5 Q989.25 555.6 992.7 566.4 L1011.9 637.95 964.75 682.05 1019.95 652.65 Q1022.55 647.7 1023.5 638.65 1025.65 620.9 1018.3 601.7 L999.35 548.15 927.1 547.95 975.2 521.85 976.7 521.1 Q992.7 513.0 1005.25 507.45 1032.35 495.55 1043.65 495.55 L1048.55 496.05 Q1077.85 499.3 1136.4 523.75 1161.95 534.35 1184.2 544.9 L1198.75 551.95 1166.55 524.45 1050.7 483.7 1048.55 484.15 957.4 516.4 872.25 560.1 Q883.3 530.5 895.75 499.0 920.7 436.0 927.8 426.35 934.9 416.85 1013.8 387.95 1053.15 373.25 1091.05 360.7 L1015.9 375.75 M761.2 732.3 Q783.75 651.9 798.95 630.45 801.65 626.65 804.1 624.7 823.25 609.3 886.55 576.35" fill="none" stroke="#000000" stroke-linecap="round" stroke-linejoin="miter-clip" stroke-miterlimit="4.0" stroke-opacity="0.6" stroke-width="1.0"/>
    <path d="M526.4 750.15 L532.75 792.25 Q537.95 840.6 532.5 874.25 L518.9 912.75 502.4 944.25 Q483.95 977.6 474.3 986.85 L469.0 991.55 464.75 995.05 Q443.65 1012.1 411.65 1032.55 381.55 1051.7 375.15 1058.85 368.05 1066.65 431.55 1060.95 516.4 1053.4 549.1 1056.7 L780.15 1080.4 713.55 1039.15 736.05 1041.3 Q761.9 1045.8 779.65 1057.4 798.4 1069.75 872.35 1072.6 937.75 1074.95 954.1 1070.7 962.15 1068.3 924.0 1060.0 870.2 1048.4 859.55 1045.1 796.25 1024.95 772.8 897.9 763.1 845.7 761.3 786.35 760.55 762.65 761.1 737.8 L761.2 732.3" fill="none" stroke="#000000" stroke-linecap="round" stroke-linejoin="miter-clip" stroke-miterlimit="4.0" stroke-width="1.0"/>
  </g>
</svg>
