<?xml version="1.0" encoding="UTF-8" standalone="no"?>
<svg xmlns:xlink="http://www.w3.org/1999/xlink" height="65.2px" width="37.5px" xmlns="http://www.w3.org/2000/svg">
  <g transform="matrix(1.0, 0.0, 0.0, 1.0, 0.5, 0.5)">
    <path d="M24.6 3.9 L26.5 5.85 28.4 8.65 29.35 10.6 29.6 11.15 29.9 11.9 30.15 12.7 Q31.55 16.85 31.8 22.0 31.95 25.05 31.35 27.75 30.55 31.15 28.4 33.9 25.65 37.4 22.25 38.6 25.15 36.65 26.5 30.3 L27.1 26.65 Q27.5 21.85 26.1 17.65 24.35 12.55 19.35 9.0 L14.65 6.55 Q15.9 4.45 24.6 3.9" fill="#000000" fill-opacity="0.14901961" fill-rule="evenodd" stroke="none"/>
    <path d="M9.95 20.45 L9.1 21.35 Q7.4 22.75 4.75 21.65 L5.45 20.75 Q6.3 19.85 7.25 19.7 L9.2 19.9 Q10.05 20.2 9.95 20.45 M8.7 20.05 L7.95 19.75 Q7.6 19.75 7.3 20.05 7.0 20.35 7.0 20.75 7.0 21.2 7.3 21.5 L7.95 21.8 8.7 21.5 9.0 20.75 8.7 20.05 M19.6 15.0 Q19.3 14.65 18.8 14.65 18.4 14.65 18.1 15.0 17.75 15.3 17.75 15.75 17.75 16.2 18.1 16.55 18.4 16.85 18.8 16.85 L19.6 16.55 19.9 15.75 Q19.9 15.3 19.6 15.0 M15.35 16.7 L16.1 15.75 Q17.0 14.75 18.05 14.6 L21.2 14.65 Q20.9 15.65 20.0 16.35 18.2 17.85 15.35 16.7" fill="#ffffff" fill-opacity="0.34901962" fill-rule="evenodd" stroke="none"/>
    <path d="M8.7 20.05 L9.0 20.75 8.7 21.5 7.95 21.8 7.3 21.5 Q7.0 21.2 7.0 20.75 7.0 20.35 7.3 20.05 7.6 19.75 7.95 19.75 L8.7 20.05 M19.6 15.0 Q19.9 15.3 19.9 15.75 L19.6 16.55 18.8 16.85 Q18.4 16.85 18.1 16.55 17.75 16.2 17.75 15.75 17.75 15.3 18.1 15.0 18.4 14.65 18.8 14.65 19.3 14.65 19.6 15.0" fill="#000000" fill-opacity="0.4509804" fill-rule="evenodd" stroke="none"/>
    <path d="M13.85 29.45 Q16.2 28.3 19.7 27.55 L16.2 29.75 Q12.55 31.7 12.1 30.45 L13.85 29.45" fill="#000000" fill-opacity="0.047058824" fill-rule="evenodd" stroke="none"/>
    <path d="M31.35 27.75 L31.4 27.8 32.45 36.2 Q33.65 45.1 34.25 48.0 35.25 52.7 36.35 54.55 33.2 57.05 29.35 59.45 L25.7 61.5 23.5 62.65 26.2 59.0 Q28.4 55.4 28.5 52.65 L28.25 47.05 28.15 45.1 27.7 43.25 Q27.15 42.25 22.9 42.85 18.25 43.5 17.3 42.95 L16.55 38.35 18.3 38.9 22.25 38.6 Q25.65 37.4 28.4 33.9 30.55 31.15 31.35 27.75" fill="#000000" fill-opacity="0.2" fill-rule="evenodd" stroke="none"/>
    <path d="M23.5 62.65 Q20.0 64.2 17.65 64.2 13.55 64.2 12.05 60.0 L11.25 55.3 14.25 54.2 14.3 54.2 14.5 54.1 17.35 52.75 17.4 52.65 Q17.95 51.6 17.8 48.6 L17.45 44.6 16.55 38.35 Q12.25 37.8 8.55 33.6 5.8 30.5 4.6 27.15 L2.65 22.8 1.6 20.65 Q-0.95 16.25 0.6 10.0 1.4 6.85 2.65 4.6 5.5 0.5 10.85 0.05 15.1 -0.3 20.65 1.6 22.8 2.35 24.6 3.9 15.9 4.45 14.65 6.55 L19.35 9.0 Q24.35 12.55 26.1 17.65 27.5 21.85 27.1 26.65 L26.5 30.3 Q25.15 36.65 22.25 38.6 L18.3 38.9 16.55 38.35 17.3 42.95 Q18.25 43.5 22.9 42.85 27.15 42.25 27.7 43.25 L28.15 45.1 28.25 47.05 28.5 52.65 Q28.4 55.4 26.2 59.0 L23.5 62.65 M19.6 11.4 Q17.2 10.25 14.9 11.35 L13.0 12.65 14.9 11.35 Q17.2 10.25 19.6 11.4 M4.75 21.65 Q7.4 22.75 9.1 21.35 L9.95 20.45 Q10.05 20.2 9.2 19.9 L7.25 19.7 Q6.3 19.85 5.45 20.75 L4.75 21.65 M12.8 26.45 L10.3 26.1 Q9.75 26.0 9.95 24.7 L10.3 23.4 Q10.75 21.95 9.95 20.45 10.75 21.95 10.3 23.4 L9.95 24.7 Q9.75 26.0 10.3 26.1 L12.8 26.45 M7.4 15.95 Q4.35 15.4 3.3 17.05 L2.85 18.85 3.3 17.05 Q4.35 15.4 7.4 15.95 M21.2 14.65 L18.05 14.6 Q17.0 14.75 16.1 15.75 L15.35 16.7 Q18.2 17.85 20.0 16.35 20.9 15.65 21.2 14.65 M13.85 29.45 L12.1 30.45 Q12.55 31.7 16.2 29.75 L19.7 27.55 Q16.2 28.3 13.85 29.45" fill="#ffffff" fill-opacity="0.0" fill-rule="evenodd" stroke="none"/>
    <path d="M24.6 3.9 L26.5 5.85 28.4 8.65 29.35 10.6 29.6 11.15 29.9 11.9 30.15 12.7 Q31.55 16.85 31.8 22.0 31.95 25.05 31.35 27.75 L31.4 27.8 32.45 36.2 Q33.65 45.1 34.25 48.0 35.25 52.7 36.35 54.55 33.2 57.05 29.35 59.45 L25.7 61.5 23.5 62.65 Q20.0 64.2 17.65 64.2 13.55 64.2 12.05 60.0 L11.25 55.3 14.25 54.2 14.3 54.2 14.5 54.1 17.35 52.75 17.4 52.65 Q17.95 51.6 17.8 48.6 L17.45 44.6 16.55 38.35 Q12.25 37.8 8.55 33.6 5.8 30.5 4.6 27.15 L2.65 22.8 1.6 20.65 Q-0.95 16.25 0.6 10.0 1.4 6.85 2.65 4.6 5.5 0.5 10.85 0.05 15.1 -0.3 20.65 1.6 22.8 2.35 24.6 3.9" fill="none" stroke="#000000" stroke-linecap="butt" stroke-linejoin="miter-clip" stroke-miterlimit="4.0" stroke-width="1.0"/>
    <path d="M13.0 12.65 L14.9 11.35 Q17.2 10.25 19.6 11.4 M2.85 18.85 L3.3 17.05 Q4.35 15.4 7.4 15.95" fill="none" stroke="#000000" stroke-linecap="round" stroke-linejoin="round" stroke-opacity="0.6" stroke-width="1.0"/>
    <path d="M22.25 38.6 Q25.65 37.4 28.4 33.9 30.55 31.15 31.35 27.75 M4.75 21.65 L5.45 20.75 Q6.3 19.85 7.25 19.7 L9.2 19.9 Q10.05 20.2 9.95 20.45 10.75 21.95 10.3 23.4 L9.95 24.7 Q9.75 26.0 10.3 26.1 L12.8 26.45 M15.35 16.7 L16.1 15.75 Q17.0 14.75 18.05 14.6 L21.2 14.65 M16.55 38.35 L18.3 38.9 22.25 38.6" fill="none" stroke="#000000" stroke-linecap="butt" stroke-linejoin="miter-clip" stroke-miterlimit="4.0" stroke-opacity="0.6" stroke-width="1.0"/>
    <path d="M8.7 20.05 L9.0 20.75 8.7 21.5 7.95 21.8 7.3 21.5 Q7.0 21.2 7.0 20.75 7.0 20.35 7.3 20.05 7.6 19.75 7.95 19.75 L8.7 20.05" fill="none" stroke="#000000" stroke-linecap="butt" stroke-linejoin="miter-clip" stroke-miterlimit="4.0" stroke-opacity="0.4" stroke-width="1.0"/>
  </g>
</svg>
