<?xml version="1.0" encoding="UTF-8" standalone="no"?>
<svg xmlns:xlink="http://www.w3.org/1999/xlink" height="206.35px" width="182.75px" xmlns="http://www.w3.org/2000/svg">
  <g transform="matrix(1.0, 0.0, 0.0, 1.0, 91.35, 103.2)">
    <path d="M-66.05 -92.6 Q-56.15 -97.4 -50.75 -99.35 -41.5 -102.7 -29.8 -102.7 -19.1 -102.7 -6.55 -98.95 6.35 -95.05 12.5 -89.65 L15.7 41.8 15.65 41.25 Q-5.7 41.05 -30.7 41.8 L-64.4 43.75 -66.05 -92.6" fill="#000000" fill-opacity="0.24705882" fill-rule="evenodd" stroke="none"/>
    <path d="M-71.1 -89.25 L-70.15 -90.0 -69.9 -90.15 -71.1 -89.25" fill="#5f5f5f" fill-rule="evenodd" stroke="none"/>
    <path d="M15.7 41.8 L15.8 46.2 Q-0.25 45.9 -23.3 46.35 L-70.95 48.65 -72.6 -88.0 -72.55 -88.0 -71.1 -89.25 -69.9 -90.15 -66.05 -92.6 -64.4 43.75 -30.7 41.8 Q-5.7 41.05 15.65 41.25 L15.7 41.8" fill="#000000" fill-opacity="0.44705883" fill-rule="evenodd" stroke="none"/>
    <path d="M-88.45 72.4 L-53.45 80.05 Q-45.1 81.5 -34.15 82.0 -34.15 94.8 -34.4 102.55 -34.15 94.8 -34.15 82.0 2.5 81.45 49.5 79.9 L89.6 78.4 90.3 81.05 Q90.9 83.8 90.9 85.7 L90.2 92.95 90.1 95.7 Q89.3 97.75 85.35 98.1 L70.8 99.0 54.05 99.9 8.95 101.55 Q-21.2 102.45 -34.4 102.55 L-40.75 102.65 Q-43.6 102.65 -49.4 101.35 L-61.7 98.65 -85.1 92.45 Q-88.35 91.55 -89.55 89.8 -90.3 88.75 -90.55 86.5 L-90.85 82.45 Q-90.85 79.05 -90.1 76.2 -89.45 73.55 -88.45 72.4" fill="#000000" fill-opacity="0.2" fill-rule="evenodd" stroke="none"/>
    <path d="M-34.15 82.0 Q-45.1 81.5 -53.45 80.05 L-88.45 72.4 Q-80.95 70.8 -59.25 69.15 L1.35 66.9 Q33.75 66.9 58.4 70.05 83.75 73.25 89.6 78.4 L49.5 79.9 Q2.5 81.45 -34.15 82.0" fill="#ffffff" fill-opacity="0.0" fill-rule="evenodd" stroke="none"/>
    <path d="M-66.05 -92.6 Q-56.15 -97.4 -50.75 -99.35 -41.5 -102.7 -29.8 -102.7 -19.1 -102.7 -6.55 -98.95 6.35 -95.05 12.5 -89.65 L15.7 41.8 15.8 46.2 Q-0.25 45.9 -23.3 46.35 L-70.95 48.65 -72.6 -88.0 -72.55 -88.0 -71.1 -89.25 -70.15 -90.0 -69.9 -90.15 -66.05 -92.6 M-34.15 82.0 Q-45.1 81.5 -53.45 80.05 L-88.45 72.4 Q-89.45 73.55 -90.1 76.2 -90.85 79.05 -90.85 82.45 L-90.55 86.5 Q-90.3 88.75 -89.55 89.8 -88.35 91.55 -85.1 92.45 L-61.7 98.65 -49.4 101.35 Q-43.6 102.65 -40.75 102.65 L-34.4 102.55 Q-21.2 102.45 8.95 101.55 L54.05 99.9 70.8 99.0 85.35 98.1 Q89.3 97.75 90.1 95.7 L90.2 92.95 90.9 85.7 Q90.9 83.8 90.3 81.05 L89.6 78.4 Q83.75 73.25 58.4 70.05 33.75 66.9 1.35 66.9 L-59.25 69.15 Q-80.95 70.8 -88.45 72.4 M-34.15 82.0 Q2.5 81.45 49.5 79.9 L89.6 78.4" fill="none" stroke="#000000" stroke-linecap="round" stroke-linejoin="miter-clip" stroke-miterlimit="4.0" stroke-opacity="0.6" stroke-width="1.0"/>
    <path d="M-34.4 102.55 Q-34.15 94.8 -34.15 82.0" fill="none" stroke="#000000" stroke-linecap="round" stroke-linejoin="miter-clip" stroke-miterlimit="4.0" stroke-opacity="0.4" stroke-width="1.0"/>
  </g>
</svg>
