<?xml version="1.0" encoding="UTF-8" standalone="no"?>
<svg xmlns:xlink="http://www.w3.org/1999/xlink" height="496.6px" width="281.55px" xmlns="http://www.w3.org/2000/svg">
  <g transform="matrix(1.0, 0.0, 0.0, 1.0, 140.65, 248.3)">
    <path d="M127.55 8.15 L126.75 6.75 125.15 3.9 Q112.05 -29.05 98.0 -67.9 61.75 -168.3 54.0 -217.25 L54.75 -191.15 Q56.7 -158.75 62.6 -127.6 64.55 -117.25 66.85 -107.4 48.05 -147.4 37.15 -178.75 L37.2 -171.95 Q37.45 -163.2 38.25 -153.55 40.9 -122.65 48.55 -94.4 59.25 -54.85 78.4 -26.1 94.1 -2.65 114.85 12.65 112.8 14.0 111.45 16.85 80.05 1.5 56.6 -30.75 30.2 -67.1 14.95 -123.1 4.4 -161.8 0.15 -205.95 L-0.15 -208.9 Q-1.5 -223.2 -1.95 -236.45 L-2.2 -246.75 -1.95 -236.45 Q-1.5 -223.2 -0.15 -208.9 L0.15 -205.95 Q-4.15 -161.8 -14.65 -123.1 -29.9 -67.1 -56.3 -30.75 -79.25 0.8 -109.7 16.2 -111.0 13.85 -112.8 12.6 L-113.75 12.1 Q-93.45 -3.1 -78.1 -26.1 -58.95 -54.85 -48.25 -94.4 -40.65 -122.65 -38.0 -153.55 -37.2 -163.15 -36.95 -171.95 L-36.9 -178.75 Q-47.75 -147.45 -66.5 -107.55 -64.25 -117.3 -62.3 -127.6 -56.45 -158.75 -54.5 -191.15 L-53.75 -217.25 Q-61.45 -168.3 -97.7 -67.9 -111.75 -28.95 -124.9 4.15 L-126.95 7.7 -132.45 6.15 Q-124.35 -25.6 -117.1 -63.75 -97.75 -165.4 -105.45 -222.35 L-119.2 -123.9 Q-130.7 -39.55 -135.75 5.25 L-138.0 4.65 -138.0 -246.75 -2.2 -246.75 138.3 -246.75 138.3 5.15 136.1 5.75 Q131.05 -39.1 119.45 -123.9 L105.7 -222.35 Q98.0 -165.4 117.35 -63.75 124.7 -25.35 132.95 6.6 L127.55 8.15 M-138.35 97.6 L-136.45 47.95 -136.15 41.25 -135.8 33.6 -116.25 31.35 Q-113.85 30.95 -112.4 29.85 L-109.95 38.7 Q-104.45 59.7 -99.4 83.45 -83.85 156.6 -77.85 229.75 L-77.4 235.85 -80.25 235.1 Q-83.8 234.35 -87.6 234.35 -92.95 234.35 -97.7 235.85 -103.75 237.75 -108.9 241.95 -112.95 245.25 -116.5 246.7 -119.55 240.55 -121.9 231.8 -128.85 205.1 -129.75 122.3 -130.0 96.45 -129.65 68.05 L-129.25 44.85 -136.25 44.1 Q-139.35 115.8 -140.1 165.95 L-140.15 169.0 -139.25 126.4 -138.35 97.6 M136.4 41.2 L136.6 45.4 136.5 44.1 129.55 44.85 129.95 68.05 Q130.3 96.35 130.0 122.3 129.1 205.1 122.15 231.8 119.95 240.25 116.75 246.7 113.2 245.25 109.15 241.95 104.0 237.75 98.05 235.85 93.25 234.35 87.9 234.35 81.85 234.35 77.7 235.85 L78.2 229.75 Q84.15 156.6 99.7 83.45 104.75 59.65 110.25 38.7 L113.15 28.25 113.7 29.1 Q115.15 30.8 118.3 31.35 L136.05 33.4 136.4 41.2 M98.05 191.15 Q95.75 158.15 108.7 100.25 112.75 82.15 117.85 63.7 L122.15 48.9 119.35 66.8 Q116.15 89.05 113.8 111.15 106.4 181.75 111.05 223.65 106.4 181.75 113.8 111.15 116.15 89.05 119.35 66.8 L122.15 48.9 117.85 63.7 Q112.75 82.15 108.7 100.25 95.75 158.15 98.05 191.15 M-97.8 191.15 Q-95.45 158.15 -108.45 100.25 -112.5 82.15 -117.6 63.7 L-121.9 48.9 -119.1 66.8 Q-115.85 89.0 -113.55 111.15 -106.1 181.75 -110.75 223.65 -106.1 181.75 -113.55 111.15 -115.85 89.0 -119.1 66.8 L-121.9 48.9 -117.6 63.7 Q-112.5 82.15 -108.45 100.25 -95.45 158.15 -97.8 191.15" fill="#ffffff" fill-opacity="0.0" fill-rule="evenodd" stroke="none"/>
    <path d="M114.85 12.65 Q94.1 -2.65 78.4 -26.1 59.25 -54.85 48.55 -94.4 40.9 -122.65 38.25 -153.55 37.45 -163.2 37.2 -171.95 L37.15 -178.75 Q48.05 -147.4 66.85 -107.4 64.55 -117.25 62.6 -127.6 56.7 -158.75 54.75 -191.15 L54.0 -217.25 Q61.75 -168.3 98.0 -67.9 112.05 -29.05 125.15 3.9 L126.75 6.75 127.55 8.15 Q116.75 11.3 114.85 12.6 L114.85 12.65 M132.95 6.6 Q124.7 -25.35 117.35 -63.75 98.0 -165.4 105.7 -222.35 L119.45 -123.9 Q131.05 -39.1 136.1 5.75 L132.95 6.6 M138.3 5.15 L138.3 -246.75 -2.2 -246.75 -138.0 -246.75 -138.0 4.65 -138.0 33.8 -136.2 33.65 -136.65 40.8 -136.15 41.25 -136.45 47.95 -138.35 97.6 -138.35 -247.8 140.05 -247.8 140.05 4.65 138.3 5.15 M136.5 33.45 L140.05 33.8 140.05 147.75 140.0 145.7 139.6 130.2 139.5 126.4 139.35 120.25 136.85 51.5 136.8 50.4 136.8 49.65 136.75 49.2 136.6 45.4 136.75 49.2 136.8 49.65 136.8 50.4 136.85 51.5 139.35 120.25 139.5 126.4 139.6 130.2 140.0 145.7 140.05 147.75 140.4 165.95 140.1 223.55 139.75 229.95 139.7 230.3 139.1 235.85 139.05 236.05 137.1 241.9 136.95 241.95 136.55 242.05 136.35 242.1 136.3 242.15 136.0 242.2 135.95 242.25 134.45 242.75 134.05 242.9 133.55 243.15 131.9 243.9 Q130.7 244.55 128.65 245.7 L125.95 247.0 125.65 247.15 125.15 247.3 122.15 247.8 Q119.6 247.85 116.75 246.7 119.95 240.25 122.15 231.8 129.1 205.1 130.0 122.3 130.3 96.35 129.95 68.05 L129.55 44.85 136.5 44.1 136.6 45.4 136.4 41.2 136.95 40.8 136.5 33.45 M-126.95 7.7 L-124.9 4.15 Q-111.75 -28.95 -97.7 -67.9 -61.45 -168.3 -53.75 -217.25 L-54.5 -191.15 Q-56.45 -158.75 -62.3 -127.6 -64.25 -117.3 -66.5 -107.55 -47.75 -147.45 -36.9 -178.75 L-36.95 -171.95 Q-37.2 -163.15 -38.0 -153.55 -40.65 -122.65 -48.25 -94.4 -58.95 -54.85 -78.1 -26.1 -93.45 -3.1 -113.75 12.1 -116.9 10.6 -126.95 7.7 M-135.75 5.25 Q-130.7 -39.55 -119.2 -123.9 L-105.45 -222.35 Q-97.75 -165.4 -117.1 -63.75 -124.35 -25.6 -132.45 6.15 L-135.75 5.25 M-121.95 247.8 L-122.85 247.75 -124.3 247.45 -124.5 247.4 -124.85 247.3 -125.0 247.25 Q-126.7 246.65 -130.5 244.55 L-130.9 244.35 -131.35 244.1 -131.65 243.9 -132.15 243.65 -132.65 243.4 -132.8 243.35 -135.4 242.3 -135.8 242.2 -136.45 242.0 -136.65 241.95 -136.7 241.95 -138.55 237.2 -138.55 237.05 -138.75 235.95 -138.75 235.85 -138.85 235.1 -139.15 232.65 -140.15 169.0 -140.1 165.95 Q-139.35 115.8 -136.25 44.1 L-129.25 44.85 -129.65 68.05 Q-130.0 96.45 -129.75 122.3 -128.85 205.1 -121.9 231.8 -119.55 240.55 -116.5 246.7 -119.4 247.85 -121.95 247.8" fill="#000000" fill-opacity="0.29803923" fill-rule="evenodd" stroke="none"/>
    <path d="M-136.15 41.25 L-136.65 40.8 -136.2 33.65 -135.8 33.6 -136.15 41.25 M136.05 33.4 L136.5 33.45 136.95 40.8 136.4 41.2 136.05 33.4 M128.65 245.7 Q130.7 244.55 131.9 243.9 L133.55 243.15 134.05 242.9 134.45 242.75 133.3 243.25 130.8 244.55 128.65 245.7 M135.95 242.25 L136.0 242.2 136.3 242.15 135.95 242.25 M139.75 229.95 L140.1 223.55 140.05 224.75 139.75 229.75 139.75 229.95 M133.55 243.15 L133.3 243.25 133.55 243.15 M-131.35 244.1 L-132.15 243.65 -131.65 243.9 -131.35 244.1" fill="#646464" fill-rule="evenodd" stroke="none"/>
    <path d="M139.75 229.75 L140.05 224.75 140.05 229.75 139.75 229.75" fill="#0e0e0e" fill-rule="evenodd" stroke="none"/>
    <path d="M116.75 246.7 Q119.6 247.85 122.15 247.8 119.4 247.95 116.7 246.8 L116.75 246.7 M125.65 247.15 L125.95 247.0 128.65 245.7 127.4 246.4 125.65 247.15 M-116.5 246.7 L-116.45 246.8 Q-119.2 247.95 -121.95 247.8 -119.4 247.85 -116.5 246.7 M-125.0 247.25 L-127.15 246.4 -130.5 244.55 Q-126.7 246.65 -125.0 247.25" fill="#424242" fill-rule="evenodd" stroke="none"/>
    <path d="M127.55 8.15 L132.95 6.6 136.1 5.75 138.3 5.15 140.05 4.65 140.05 33.8 136.5 33.45 136.05 33.4 118.3 31.35 Q115.15 30.8 113.7 29.1 L113.15 28.25 110.9 24.8 Q109.15 22.35 110.85 18.1 L111.45 16.85 Q112.8 14.0 114.85 12.65 L114.85 12.6 Q116.75 11.3 127.55 8.15 M-136.2 33.65 L-138.0 33.8 -138.0 4.65 -135.75 5.25 -132.45 6.15 -126.95 7.7 Q-116.9 10.6 -113.75 12.1 L-112.8 12.6 Q-111.0 13.85 -109.7 16.2 L-108.8 18.1 Q-107.1 22.35 -108.85 24.8 L-111.65 29.1 -112.4 29.85 Q-113.85 30.95 -116.25 31.35 L-135.8 33.6 -136.2 33.65" fill="#000000" fill-opacity="0.2" fill-rule="evenodd" stroke="none"/>
    <path d="M127.55 8.15 L132.95 6.6 136.1 5.75 138.3 5.15 138.3 -246.75 -2.2 -246.75 -1.95 -236.45 Q-1.5 -223.2 -0.15 -208.9 L0.15 -205.95 Q4.4 -161.8 14.95 -123.1 30.2 -67.1 56.6 -30.75 80.05 1.5 111.45 16.85 112.8 14.0 114.85 12.65 L114.85 12.6 Q116.75 11.3 127.55 8.15 M140.05 4.65 L138.3 5.15 M136.5 33.45 L140.05 33.8 140.05 4.65 140.05 -247.8 -138.35 -247.8 -138.35 97.6 -136.45 47.95 -136.15 41.25 -136.65 40.8 M-136.2 33.65 L-138.0 33.8 -138.0 4.65 -138.0 -246.75 -2.2 -246.75 M136.05 33.4 L136.5 33.45 M136.4 41.2 L136.6 45.4 136.75 49.2 136.8 49.65 136.8 50.4 136.85 51.5 139.35 120.25 139.5 126.4 139.6 130.2 140.0 145.7 140.05 147.75 140.05 33.8 M136.05 33.4 L118.3 31.35 Q115.15 30.8 113.7 29.1 L113.15 28.25 110.25 38.7 Q104.75 59.65 99.7 83.45 84.15 156.6 78.2 229.75 L77.7 235.85 Q81.85 234.35 87.9 234.35 93.25 234.35 98.05 235.85 104.0 237.75 109.15 241.95 113.2 245.25 116.75 246.7 119.6 247.85 122.15 247.8 L125.15 247.3 125.65 247.15 125.95 247.0 128.65 245.7 130.8 244.55 133.3 243.25 133.55 243.15 134.05 242.9 134.45 242.75 135.95 242.25 136.0 242.2 136.3 242.15 136.35 242.1 136.55 242.05 136.95 241.95 137.1 241.9 139.05 236.05 139.1 235.85 139.7 230.3 139.75 229.95 139.75 229.75 140.05 224.75 140.1 223.55 140.4 165.95 140.05 147.75 M111.45 16.85 L110.85 18.1 Q109.15 22.35 110.9 24.8 L113.15 28.25 M140.05 224.75 L140.05 229.75 139.75 229.75 M136.3 242.15 L135.95 242.25 M134.45 242.75 L133.3 243.25 M-113.75 12.1 L-112.8 12.6 Q-111.0 13.85 -109.7 16.2 -79.25 0.8 -56.3 -30.75 -29.9 -67.1 -14.65 -123.1 -4.15 -161.8 0.15 -205.95 M-135.75 5.25 L-132.45 6.15 -126.95 7.7 Q-116.9 10.6 -113.75 12.1 M-112.4 29.85 Q-113.85 30.95 -116.25 31.35 L-135.8 33.6 -136.15 41.25 M-112.4 29.85 L-109.95 38.7 Q-104.45 59.7 -99.4 83.45 -83.85 156.6 -77.85 229.75 L-77.4 235.85 -80.25 235.1 Q-83.8 234.35 -87.6 234.35 -92.95 234.35 -97.7 235.85 -103.75 237.75 -108.9 241.95 -112.95 245.25 -116.5 246.7 -119.4 247.85 -121.95 247.8 L-122.85 247.75 -124.3 247.45 -124.5 247.4 -124.85 247.3 -125.0 247.25 Q-126.7 246.65 -130.5 244.55 L-130.9 244.35 -131.35 244.1 -132.15 243.65 -132.8 243.35 -135.4 242.3 -135.8 242.2 -136.45 242.0 -136.65 241.95 -136.7 241.95 -138.55 237.2 M-138.55 237.05 L-138.75 235.95 -138.75 235.85 -138.85 235.1 -139.15 232.65 -140.15 169.0 -139.25 126.4 -138.35 97.6 M-109.7 16.2 L-108.8 18.1 Q-107.1 22.35 -108.85 24.8 L-111.65 29.1 -112.4 29.85 M-138.0 4.65 L-135.75 5.25 M-135.8 33.6 L-136.2 33.65 M-132.8 243.35 L-132.65 243.4 -132.15 243.65" fill="none" stroke="#000000" stroke-linecap="round" stroke-linejoin="miter-clip" stroke-miterlimit="4.0" stroke-width="1.0"/>
    <path d="M111.05 223.65 Q106.4 181.75 113.8 111.15 116.15 89.05 119.35 66.8 L122.15 48.9 117.85 63.7 Q112.75 82.15 108.7 100.25 95.75 158.15 98.05 191.15 M-110.75 223.65 Q-106.1 181.75 -113.55 111.15 -115.85 89.0 -119.1 66.8 L-121.9 48.9 -117.6 63.7 Q-112.5 82.15 -108.45 100.25 -95.45 158.15 -97.8 191.15" fill="none" stroke="#000000" stroke-linecap="round" stroke-linejoin="miter-clip" stroke-miterlimit="4.0" stroke-opacity="0.6" stroke-width="1.0"/>
  </g>
</svg>
