<?xml version="1.0" encoding="UTF-8" standalone="no"?>
<svg xmlns:xlink="http://www.w3.org/1999/xlink" height="214.9px" width="106.15px" xmlns="http://www.w3.org/2000/svg">
  <g transform="matrix(1.0, 0.0, 0.0, 1.0, 53.1, 107.5)">
    <path d="M-39.75 89.45 L-39.75 -91.7 19.45 -84.15 40.85 -81.85 40.85 104.7 -39.75 89.45 M23.05 21.55 L13.15 19.4 12.6 71.8 23.05 74.1 23.05 21.55" fill="#ffffff" fill-opacity="0.0" fill-rule="evenodd" stroke="none"/>
    <path d="M40.85 104.7 L40.85 -81.85 19.45 -84.15 -39.75 -91.7 -39.75 89.45 -52.6 87.0 -52.6 -106.95 20.85 -100.35 52.55 -97.85 52.55 106.9 40.85 104.7" fill="#ffffff" fill-opacity="0.14901961" fill-rule="evenodd" stroke="none"/>
    <path d="M23.05 21.55 L23.05 74.1 12.6 71.8 13.15 19.4 23.05 21.55" fill="#000000" fill-opacity="0.09803922" fill-rule="evenodd" stroke="none"/>
    <path d="M40.85 104.7 L40.85 -81.85 19.45 -84.15 -39.75 -91.7 -39.75 89.45 40.85 104.7 52.55 106.9 M-52.6 87.0 L-39.75 89.45" fill="none" stroke="#000000" stroke-linecap="round" stroke-linejoin="miter-clip" stroke-miterlimit="4.0" stroke-opacity="0.6" stroke-width="1.0"/>
    <path d="M52.55 106.9 L52.55 -97.85 20.85 -100.35 -52.6 -106.95 -52.6 87.0 M23.05 21.55 L23.05 74.1 12.6 71.8 13.15 19.4 23.05 21.55" fill="none" stroke="#000000" stroke-linecap="round" stroke-linejoin="miter-clip" stroke-miterlimit="4.0" stroke-opacity="0.4" stroke-width="1.0"/>
  </g>
</svg>
