<?xml version="1.0" encoding="UTF-8" standalone="no"?>
<svg xmlns:xlink="http://www.w3.org/1999/xlink" height="442.1px" width="770.75px" xmlns="http://www.w3.org/2000/svg">
  <g transform="matrix(1.0, 0.0, 0.0, 1.0, 0.5, 2.0)">
    <path d="M247.75 0.0 L593.95 29.25 Q598.5 55.15 684.45 165.45 727.4 220.65 769.45 270.6 767.4 271.4 762.15 272.05 L467.15 282.8 762.15 272.05 762.15 416.85 Q762.15 416.1 716.5 420.8 L615.8 430.95 Q469.0 444.9 467.15 436.4 L467.15 282.8 247.75 0.0 M649.65 211.2 Q662.1 206.35 669.5 202.45 657.85 207.35 643.9 210.3 531.65 192.8 442.5 122.6 412.95 99.35 389.6 73.0 382.25 64.75 376.45 57.2 L372.1 51.3 Q394.7 105.75 444.4 143.3 484.2 173.3 539.4 191.15 578.8 203.95 622.0 209.35 L639.3 211.25 Q597.7 218.95 536.35 210.7 509.45 207.05 482.0 200.75 L459.85 195.15 Q516.25 239.35 598.5 225.3 623.4 221.1 647.9 211.85 L657.3 212.2 649.65 211.2 M518.5 319.0 L515.9 303.2 Q512.85 373.3 539.3 404.6 547.55 414.35 557.75 419.1 562.85 421.45 566.3 421.85 542.95 409.65 527.1 355.2 522.1 338.2 518.5 319.0" fill="#ffffff" fill-opacity="0.0" fill-rule="evenodd" stroke="none"/>
    <path d="M649.65 211.2 L657.3 212.2 647.9 211.85 Q623.4 221.1 598.5 225.3 516.25 239.35 459.85 195.15 L482.0 200.75 Q509.45 207.05 536.35 210.7 597.7 218.95 639.3 211.25 L622.0 209.35 Q578.8 203.95 539.4 191.15 484.2 173.3 444.4 143.3 394.7 105.75 372.1 51.3 L376.45 57.2 Q382.25 64.75 389.6 73.0 412.95 99.35 442.5 122.6 531.65 192.8 643.9 210.3 657.85 207.35 669.5 202.45 662.1 206.35 649.65 211.2 M518.5 319.0 Q522.1 338.2 527.1 355.2 542.95 409.65 566.3 421.85 562.85 421.45 557.75 419.1 547.55 414.35 539.3 404.6 512.85 373.3 515.9 303.2 L518.5 319.0" fill="#000000" fill-opacity="0.29803923" fill-rule="evenodd" stroke="none"/>
    <path d="M413.55 436.4 L412.75 435.55 Q384.3 405.75 330.25 254.7 L310.1 196.75 280.75 107.4 266.6 62.15 258.5 35.7 258.95 36.9 Q288.0 123.9 328.95 184.45 391.25 276.65 467.15 282.8 463.05 285.1 457.05 290.35 445.1 300.85 435.8 315.7 405.95 363.25 413.55 436.4 M183.55 135.05 Q156.8 175.4 127.0 214.35 67.6 292.0 48.35 291.5 L41.2 290.75 Q32.5 289.2 24.65 284.6 20.5 282.15 17.1 279.45 13.4 276.55 10.0 273.0 L9.85 272.8 9.85 272.85 Q6.1 268.9 4.05 265.75 45.15 265.75 118.9 199.95 L131.2 188.75 183.55 135.05" fill="#ffffff" fill-opacity="0.24705882" fill-rule="evenodd" stroke="none"/>
    <path d="M247.75 0.0 L467.15 282.8 Q391.25 276.65 328.95 184.45 288.0 123.9 258.95 36.9 L258.2 34.45 247.75 0.0 Q244.65 17.35 235.05 42.9 215.9 94.0 183.6 135.0 L183.55 135.05 131.2 188.75 118.9 199.95 Q45.15 265.75 4.05 265.75 6.1 268.9 9.85 272.85 14.8 288.75 20.4 311.35 31.3 355.5 33.1 383.2 L31.65 298.25 56.05 374.6 41.2 290.75 48.35 291.5 53.9 309.35 Q61.05 332.75 66.5 352.6 84.15 416.65 79.6 424.2 75.05 431.85 37.85 425.1 19.3 421.75 1.6 416.85 0.4 383.95 0.05 348.6 -0.55 277.95 4.05 265.75 8.6 253.55 128.65 125.55 188.65 61.55 247.75 0.0 M467.15 436.4 L413.55 436.4 Q405.95 363.25 435.8 315.7 445.1 300.85 457.05 290.35 463.05 285.1 467.15 282.8 L467.15 436.4" fill="#000000" fill-opacity="0.09803922" fill-rule="evenodd" stroke="none"/>
    <path d="M9.85 272.85 L9.85 272.8 10.0 273.0 Q13.4 276.55 17.1 279.45 20.5 282.15 24.65 284.6 32.5 289.2 41.2 290.75 L56.05 374.6 31.65 298.25 33.1 383.2 Q31.3 355.5 20.4 311.35 14.8 288.75 9.85 272.85 L10.0 273.0 9.85 272.85" fill="#000000" fill-opacity="0.34901962" fill-rule="evenodd" stroke="none"/>
    <path d="M762.15 272.05 Q767.4 271.4 769.45 270.6 727.4 220.65 684.45 165.45 598.5 55.15 593.95 29.25 L247.75 0.0 Q244.65 17.35 235.05 42.9 215.9 94.0 183.6 135.0 M762.15 272.05 L762.15 416.85 Q762.15 416.1 716.5 420.8 L615.8 430.95 Q469.0 444.9 467.15 436.4 L413.55 436.4 M412.75 435.55 Q384.3 405.75 330.25 254.7 L310.1 196.75 280.75 107.4 266.6 62.15 258.5 35.7 M258.2 34.45 L247.75 0.0 Q188.65 61.55 128.65 125.55 8.6 253.55 4.05 265.75 -0.55 277.95 0.05 348.6 0.4 383.95 1.6 416.85 19.3 421.75 37.85 425.1 75.05 431.85 79.6 424.2 84.15 416.65 66.5 352.6 61.05 332.75 53.9 309.35 L48.35 291.5 Q67.6 292.0 127.0 214.35 156.8 175.4 183.55 135.05" fill="none" stroke="#000000" stroke-linecap="round" stroke-linejoin="miter-clip" stroke-miterlimit="4.0" stroke-width="1.0"/>
    <path d="M247.75 0.0 L467.15 282.8 762.15 272.05 M413.55 436.4 L412.75 435.55 M258.5 35.7 L258.2 34.45 258.95 36.9 258.5 35.7 M183.6 135.0 L183.55 135.05 131.2 188.75 118.9 199.95 Q45.15 265.75 4.05 265.75 6.1 268.9 9.85 272.85 L10.0 273.0 Q13.4 276.55 17.1 279.45 20.5 282.15 24.65 284.6 32.5 289.2 41.2 290.75 L48.35 291.5 M413.55 436.4 Q405.95 363.25 435.8 315.7 445.1 300.85 457.05 290.35 463.05 285.1 467.15 282.8 391.25 276.65 328.95 184.45 288.0 123.9 258.95 36.9 M467.15 436.4 L467.15 282.8" fill="none" stroke="#000000" stroke-linecap="round" stroke-linejoin="miter-clip" stroke-miterlimit="4.0" stroke-opacity="0.6" stroke-width="1.0"/>
  </g>
</svg>
