<?xml version="1.0" encoding="UTF-8" standalone="no"?>
<svg xmlns:xlink="http://www.w3.org/1999/xlink" height="420.9px" width="3705.05px" xmlns="http://www.w3.org/2000/svg">
  <g transform="matrix(1.0, 0.0, 0.0, 1.0, 0.5, 0.5)">
    <path d="M3016.3 0.0 L3036.25 0.0 3036.25 189.95 3212.2 189.95 3212.2 209.9 3036.25 209.9 3036.25 419.9 3016.3 419.9 3016.3 209.9 2844.3 209.9 2844.3 189.95 3016.3 189.95 3016.3 0.0 M3704.05 189.95 L3704.05 209.9 3532.05 209.9 3532.05 419.9 3512.1 419.9 3512.1 209.9 3360.15 209.9 3360.15 189.95 3512.1 189.95 3512.1 0.0 3532.05 0.0 3532.05 189.95 3704.05 189.95 M2704.4 209.9 L2552.45 209.9 2552.45 419.9 2532.4 419.9 2532.4 209.9 2360.5 209.9 2360.5 189.95 2532.4 189.95 2532.4 0.0 2552.45 0.0 2552.45 189.95 2704.4 189.95 2704.4 209.9 M1343.5 189.95 L1343.5 209.9 1171.5 209.9 1171.5 419.9 1151.55 419.9 1151.55 209.9 999.65 209.9 999.65 189.95 1151.55 189.95 1151.55 0.0 1171.5 0.0 1171.5 189.95 1343.5 189.95 M687.7 0.0 L687.7 189.95 859.7 189.95 859.7 209.9 687.7 209.9 687.7 419.9 667.8 419.9 667.8 209.9 491.8 209.9 491.8 189.95 667.8 189.95 667.8 0.0 687.7 0.0 M343.85 209.9 L191.9 209.9 191.9 419.9 171.85 419.9 171.85 209.9 0.0 209.9 0.0 189.95 171.85 189.95 171.85 0.0 191.9 0.0 191.9 189.95 343.85 189.95 343.85 209.9" fill="#ffffff" fill-opacity="0.14901961" fill-rule="evenodd" stroke="none"/>
    <path d="M3704.05 189.95 L3532.05 189.95 3532.05 0.0 3512.1 0.0 3512.1 189.95 3360.15 189.95 3360.15 209.9 3512.1 209.9 3512.1 419.9 3532.05 419.9 3532.05 209.9 3704.05 209.9 3704.05 189.95 M3016.3 0.0 L3016.3 189.95 2844.3 189.95 2844.3 209.9 3016.3 209.9 3016.3 419.9 3036.25 419.9 3036.25 209.9 3212.2 209.9 3212.2 189.95 3036.25 189.95 3036.25 0.0 3016.3 0.0 M2704.4 209.9 L2552.45 209.9 2552.45 419.9 2532.4 419.9 2532.4 209.9 2360.5 209.9 2360.5 189.95 2532.4 189.95 2532.4 0.0 2552.45 0.0 2552.45 189.95 2704.4 189.95 2704.4 209.9 M1343.5 189.95 L1171.5 189.95 1171.5 0.0 1151.55 0.0 1151.55 189.95 999.65 189.95 999.65 209.9 1151.55 209.9 1151.55 419.9 1171.5 419.9 1171.5 209.9 1343.5 209.9 1343.5 189.95 M687.7 0.0 L687.7 189.95 859.7 189.95 859.7 209.9 687.7 209.9 687.7 419.9 667.8 419.9 667.8 209.9 491.8 209.9 491.8 189.95 667.8 189.95 667.8 0.0 687.7 0.0 M343.85 209.9 L191.9 209.9 191.9 419.9 171.85 419.9 171.85 209.9 0.0 209.9 0.0 189.95 171.85 189.95 171.85 0.0 191.9 0.0 191.9 189.95 343.85 189.95 343.85 209.9" fill="none" stroke="#000000" stroke-linecap="round" stroke-linejoin="miter-clip" stroke-miterlimit="4.0" stroke-opacity="0.6" stroke-width="1.0"/>
  </g>
</svg>
