<?xml version="1.0" encoding="UTF-8" standalone="no"?>
<svg xmlns:xlink="http://www.w3.org/1999/xlink" height="200.4px" width="1593.15px" xmlns="http://www.w3.org/2000/svg">
  <g transform="matrix(1.0, 0.0, 0.0, 1.0, 0.5, 0.5)">
    <path d="M1556.3 40.6 L1554.0 42.9 Q1564.3 54.05 1570.0 67.85 1575.85 82.0 1576.2 97.4 L1579.45 97.4 1579.8 97.4 1579.8 102.05 1579.45 102.05 1576.2 102.05 Q1575.7 117.6 1569.8 131.85 1564.1 145.6 1553.95 156.55 L1556.3 158.9 1556.7 159.3 1553.4 162.6 1553.05 162.25 1550.7 159.9 Q1539.35 170.85 1525.05 176.9 1511.1 182.8 1496.15 183.45 L1496.15 186.75 1496.15 186.85 1491.5 186.85 1491.5 186.8 1491.5 183.5 Q1474.95 183.35 1459.8 176.9 1446.25 171.15 1435.6 161.3 L1433.25 163.6 1429.95 160.3 1432.25 158.05 Q1421.25 146.65 1415.2 132.35 1409.1 117.8 1408.65 102.05 L1405.4 102.05 1405.35 100.9 1405.4 102.05 1405.35 102.05 1405.35 100.9 1405.35 99.7 1405.35 98.55 1405.4 97.4 1405.35 98.55 1405.35 97.4 1405.4 97.4 1408.65 97.4 Q1409.05 81.65 1415.2 67.05 1421.25 52.75 1432.2 41.4 L1429.75 39.15 1430.75 38.25 1430.85 38.15 1432.65 36.4 1433.25 35.9 1432.65 36.4 1433.2 35.85 1433.25 35.9 1435.55 38.15 Q1446.25 28.2 1459.8 22.5 1474.95 16.05 1491.5 15.9 L1491.5 12.65 1491.5 12.55 1496.15 12.55 1496.15 12.75 1496.15 16.0 Q1511.25 16.7 1525.05 22.5 1539.35 28.55 1550.75 39.55 L1553.05 37.25 1553.4 36.85 1556.7 40.15 1556.3 40.6 M1539.4 97.4 L1565.65 97.4 Q1565.2 83.75 1559.9 71.2 1555.0 59.6 1546.55 50.4 L1528.0 68.9 1525.7 66.45 1524.8 65.55 1543.3 47.05 Q1533.5 37.55 1520.95 32.25 1509.05 27.25 1496.2 26.6 L1496.2 52.85 1492.5 52.7 1491.55 52.7 1491.55 26.5 Q1477.15 26.65 1463.95 32.25 1452.35 37.15 1443.1 45.65 L1461.65 64.2 1459.25 66.45 1458.3 67.45 1439.75 48.9 Q1430.3 58.65 1425.0 71.2 1419.7 83.75 1419.3 97.4 L1445.5 97.4 1445.45 99.7 1445.5 102.05 1419.3 102.05 Q1419.7 115.7 1425.0 128.2 1430.3 140.75 1439.8 150.55 L1458.3 132.0 1459.25 132.95 1461.7 135.25 1443.15 153.8 Q1452.35 162.25 1463.95 167.15 1477.15 172.75 1491.55 172.9 L1491.55 146.7 1492.5 146.7 1496.2 146.6 1496.2 172.8 Q1509.05 172.15 1520.95 167.15 1533.5 161.85 1543.25 152.4 L1524.75 133.9 1525.7 132.95 1528.0 130.55 1546.5 149.05 Q1555.0 139.8 1559.9 128.2 1565.2 115.7 1565.65 102.05 L1539.4 102.05 1539.45 99.7 1539.4 97.4 M1327.1 40.35 L1324.8 42.65 Q1334.7 53.3 1340.45 66.85 1346.6 81.4 1347.05 97.2 L1350.3 97.2 1350.6 97.2 1350.6 101.85 1350.3 101.85 1347.05 101.85 Q1346.55 117.4 1340.65 131.65 1334.95 145.4 1324.8 156.4 L1327.1 158.7 1327.5 159.1 1324.2 162.4 1323.85 162.05 1321.55 159.75 Q1310.2 170.65 1295.85 176.7 1281.9 182.6 1266.95 183.25 L1266.95 186.55 1266.95 186.65 1262.3 186.65 1262.3 186.6 1262.3 183.3 Q1245.75 183.15 1230.6 176.7 1217.15 171.0 1206.4 161.1 L1204.25 163.6 1200.95 160.3 1203.05 157.85 Q1192.05 146.45 1186.0 132.15 1179.9 117.6 1179.45 101.85 L1176.2 101.85 1175.9 101.85 1175.9 97.2 1176.2 97.2 1179.45 97.2 Q1179.85 81.45 1186.0 66.85 1192.05 52.5 1203.05 41.2 L1200.65 39.0 1201.45 38.2 1200.65 39.0 1200.6 38.95 1201.45 38.2 1201.95 37.7 1202.2 37.4 1202.75 36.9 1203.9 35.8 1202.75 36.9 1203.85 35.75 1203.9 35.8 1206.35 37.95 Q1217.05 28.0 1230.6 22.3 1245.75 15.85 1262.3 15.7 L1262.3 12.45 1262.3 12.35 1266.95 12.35 1266.95 12.55 1266.95 15.8 Q1282.05 16.5 1295.85 22.3 1310.2 28.3 1321.55 39.3 L1323.85 37.0 1324.2 36.65 1327.5 39.95 1327.1 40.35 M1310.15 97.4 L1336.4 97.4 Q1335.95 83.75 1330.65 71.2 1325.75 59.6 1317.3 50.4 L1298.75 68.9 1296.45 66.45 1295.55 65.55 1314.05 47.05 Q1304.25 37.55 1291.7 32.25 1279.8 27.25 1266.95 26.6 L1266.95 52.85 1263.25 52.7 1262.3 52.7 1262.3 26.5 Q1247.9 26.65 1234.7 32.25 1223.1 37.15 1213.85 45.65 L1232.4 64.2 1230.0 66.45 1229.05 67.45 1210.55 48.9 Q1201.05 58.65 1195.75 71.2 1190.45 83.75 1190.05 97.4 L1216.25 97.4 1216.2 99.7 1216.25 102.05 1190.05 102.05 Q1190.45 115.7 1195.75 128.2 1201.05 140.75 1210.55 150.55 L1229.05 132.0 1230.0 132.95 1232.45 135.25 1213.9 153.8 Q1223.15 162.25 1234.7 167.15 1247.9 172.75 1262.3 172.9 L1262.3 146.7 1263.25 146.7 1266.95 146.6 1266.95 172.8 Q1279.8 172.15 1291.7 167.15 1304.25 161.85 1314.0 152.4 L1295.5 133.9 1296.45 132.95 1298.75 130.55 1317.25 149.05 Q1325.75 139.8 1330.65 128.2 1335.95 115.7 1336.4 102.05 L1310.15 102.05 1310.2 99.7 1310.15 97.4 M1093.6 38.3 L1094.65 37.25 1094.8 37.05 1098.05 40.35 1097.85 40.55 1095.55 42.85 Q1105.5 53.6 1111.2 67.05 1117.35 81.6 1117.8 97.4 L1121.05 97.4 1121.35 97.4 1121.35 102.05 1121.05 102.05 1117.8 102.05 Q1117.35 117.85 1111.2 132.35 1105.5 145.85 1095.55 156.6 L1097.85 158.9 1098.05 159.1 1094.8 162.4 1094.65 162.25 1092.3 159.9 Q1081.05 170.8 1066.6 176.9 1052.75 182.75 1037.75 183.45 L1037.75 186.75 1037.75 186.85 1033.1 186.85 1033.1 186.8 1033.1 183.5 Q1016.55 183.35 1001.35 176.9 987.9 171.2 977.2 161.3 L974.85 163.6 971.55 160.3 973.85 158.05 Q962.9 146.75 956.8 132.35 950.65 117.85 950.25 102.05 L947.05 102.05 947.05 97.4 950.25 97.4 Q950.55 85.85 953.9 75.0 955.15 70.95 956.8 67.05 962.75 53.05 973.25 42.0 L973.8 41.4 971.55 39.15 974.85 35.85 977.15 38.15 Q987.9 28.2 1001.35 22.5 1016.55 16.05 1033.1 15.9 L1033.1 12.65 1033.1 12.55 1037.75 12.55 1037.75 12.75 1037.75 16.0 Q1052.75 16.65 1066.6 22.5 1072.3 24.9 1077.55 28.1 1085.0 32.6 1091.4 38.65 L1092.35 39.55 1093.6 38.3 M1062.5 32.25 Q1060.9 31.55 1059.25 31.0 1048.85 27.15 1037.75 26.6 L1037.75 34.35 1037.75 48.1 1037.75 52.85 1034.0 52.7 1033.1 52.7 1033.1 48.9 1033.1 35.1 1033.1 26.5 Q1018.7 26.65 1005.5 32.25 996.45 36.05 988.85 42.05 L984.65 45.65 994.65 55.65 1003.2 64.2 1000.75 66.45 999.8 67.4 989.05 56.65 981.3 48.9 979.5 50.8 Q971.3 59.85 966.5 71.2 L964.65 76.1 Q961.1 86.4 960.8 97.4 L987.0 97.4 986.95 99.7 987.0 102.05 960.8 102.05 Q961.2 115.7 966.5 128.2 971.8 140.75 981.3 150.55 L999.85 132.05 1000.75 132.95 1003.2 135.25 984.65 153.8 Q993.9 162.25 1005.5 167.15 1018.7 172.75 1033.1 172.9 L1033.1 146.7 1034.0 146.7 1037.75 146.6 1037.75 172.8 Q1050.6 172.15 1062.5 167.15 1075.0 161.85 1084.8 152.4 L1066.3 133.9 1067.25 132.95 1069.5 130.55 1088.05 149.1 Q1096.55 139.85 1101.45 128.2 1106.75 115.7 1107.2 102.05 L1080.95 102.05 1081.0 99.7 1080.95 97.4 1107.2 97.4 Q1106.75 83.75 1101.45 71.2 1096.55 59.6 1088.05 50.35 L1069.55 68.9 1067.25 66.45 1066.3 65.55 1084.85 47.05 Q1081.45 43.8 1077.8 41.05 1070.75 35.75 1062.5 32.25 M802.45 12.65 L802.45 12.55 807.1 12.55 807.1 12.75 807.1 16.0 Q822.1 16.65 836.0 22.5 850.45 28.6 861.7 39.5 L864.0 37.2 864.15 37.05 867.45 40.35 867.25 40.55 864.95 42.85 Q872.1 50.55 877.05 59.7 879.0 63.25 880.6 67.05 882.3 71.05 883.55 75.2 886.85 85.95 887.2 97.4 L890.45 97.4 890.75 97.4 890.75 102.05 890.45 102.05 887.2 102.05 Q886.75 117.85 880.6 132.35 874.9 145.85 864.95 156.6 L867.25 158.9 867.45 159.1 864.15 162.4 864.0 162.25 861.7 159.95 Q850.4 170.8 836.0 176.9 822.1 182.75 807.1 183.45 L807.1 186.75 807.1 186.85 802.45 186.85 802.45 186.8 802.45 183.5 Q785.9 183.35 770.75 176.9 757.25 171.2 746.55 161.3 L744.2 163.6 740.9 160.3 743.2 158.05 Q732.25 146.75 726.15 132.35 722.15 122.95 720.6 113.0 L731.35 113.0 Q732.75 120.8 735.9 128.2 741.2 140.75 750.7 150.55 L769.2 132.0 770.15 132.95 772.6 135.25 754.05 153.8 Q763.3 162.25 774.85 167.15 788.05 172.75 802.45 172.9 L802.45 146.7 803.4 146.7 807.1 146.6 807.1 172.8 Q819.95 172.15 831.85 167.15 844.4 161.85 854.15 152.4 L835.65 133.9 836.6 132.95 838.9 130.55 857.4 149.05 Q865.9 139.8 870.8 128.2 876.1 115.7 876.55 102.05 L865.25 102.05 Q865.2 99.5 864.35 97.4 L876.55 97.4 Q876.2 86.9 873.0 77.05 L870.8 71.2 Q868.65 66.1 865.8 61.45 862.15 55.55 857.45 50.4 L842.7 65.1 838.9 68.9 836.6 66.45 835.7 65.55 854.2 47.05 Q844.4 37.55 831.85 32.25 819.95 27.25 807.1 26.6 L807.1 52.85 803.4 52.7 802.45 52.7 802.45 26.5 Q788.05 26.65 774.85 32.25 763.25 37.15 754.0 45.65 L769.95 61.6 772.55 64.2 770.15 66.45 769.2 67.45 763.45 61.7 750.65 48.9 Q744.75 55.0 740.5 62.15 737.9 66.5 735.9 71.2 731.75 81.05 730.6 91.55 L719.95 91.55 Q721.15 78.9 726.15 67.05 L728.3 62.4 Q734.05 50.8 743.15 41.4 L740.9 39.15 744.2 35.85 746.5 38.15 Q757.25 28.2 770.75 22.5 785.9 16.05 802.45 15.9 L802.45 12.65 M634.35 42.9 Q644.25 53.6 649.95 67.05 L652.55 73.95 Q655.25 82.4 656.15 91.2 L656.15 91.55 645.55 91.55 645.5 91.2 Q644.45 82.4 641.35 74.1 L640.2 71.2 Q635.3 59.6 626.85 50.4 L608.3 68.9 606.0 66.45 605.05 65.55 623.6 47.05 Q613.8 37.55 601.25 32.25 589.35 27.25 576.5 26.6 L576.5 52.85 572.75 52.7 571.85 52.7 571.85 26.5 Q557.45 26.65 544.25 32.25 532.65 37.15 523.4 45.65 L541.95 64.2 539.5 66.45 538.6 67.45 520.05 48.9 Q510.6 58.65 505.3 71.2 L503.65 75.5 Q500.95 83.15 500.05 91.2 L500.0 91.55 489.35 91.55 489.4 91.2 Q490.15 83.25 492.45 75.65 493.75 71.3 495.55 67.05 501.65 52.65 512.55 41.4 L510.3 39.15 513.6 35.85 515.9 38.15 Q526.65 28.2 540.1 22.5 555.3 16.05 571.85 15.9 L571.85 12.65 571.85 12.55 576.5 12.55 576.5 12.75 576.5 16.0 Q591.5 16.65 605.4 22.5 619.8 28.6 631.1 39.55 L633.4 37.25 633.55 37.05 636.85 40.35 636.65 40.6 634.35 42.9 M490.0 113.0 L500.75 113.0 Q502.15 120.8 505.3 128.2 510.6 140.75 520.1 150.55 L538.6 132.0 539.5 132.95 541.95 135.25 523.45 153.8 Q532.65 162.25 544.25 167.15 557.45 172.75 571.85 172.9 L571.85 146.7 572.75 146.7 576.5 146.6 576.5 172.8 Q589.35 172.15 601.25 167.15 613.8 161.85 623.55 152.4 L605.05 133.9 606.0 132.95 608.3 130.55 626.8 149.05 Q635.3 139.8 640.2 128.2 643.35 120.8 644.75 113.0 L655.55 113.0 Q653.95 122.95 649.95 132.35 644.25 145.8 634.3 156.55 L636.65 158.9 636.85 159.1 633.55 162.4 633.4 162.25 631.05 159.9 Q619.8 170.8 605.4 176.9 591.5 182.75 576.5 183.45 L576.5 186.75 576.5 186.85 571.85 186.85 571.85 186.8 571.85 183.5 Q555.3 183.35 540.1 176.9 526.65 171.2 515.95 161.3 L513.6 163.6 510.3 160.3 512.6 158.05 Q501.65 146.75 495.55 132.35 491.55 122.95 490.0 113.0 M402.95 37.05 L406.2 40.35 406.0 40.55 403.7 42.85 Q413.65 53.6 419.35 67.05 421.3 71.6 422.65 76.3 424.8 83.6 425.55 91.2 L425.55 91.55 414.95 91.55 414.9 91.2 Q414.0 83.65 411.6 76.45 L409.6 71.2 Q404.7 59.6 396.2 50.35 L377.7 68.9 375.4 66.45 374.45 65.55 393.0 47.05 Q383.15 37.55 370.65 32.25 358.75 27.25 345.9 26.6 L345.9 52.85 342.15 52.7 341.25 52.7 341.25 26.5 Q326.85 26.65 313.65 32.25 302.05 37.15 292.8 45.65 L311.35 64.2 308.9 66.45 307.95 67.4 289.45 48.9 Q279.95 58.65 274.65 71.2 270.5 81.05 269.35 91.55 L258.75 91.55 Q259.95 78.9 264.95 67.05 271.05 52.65 281.95 41.4 L279.7 39.15 283.0 35.85 285.3 38.15 Q296.05 28.2 309.5 22.5 324.7 16.05 341.25 15.9 L341.25 12.65 341.25 12.55 345.9 12.55 345.9 12.75 345.9 16.0 Q360.9 16.65 374.75 22.5 389.2 28.6 400.5 39.55 L402.8 37.25 402.95 37.05 M308.0 132.05 L308.9 132.95 311.35 135.25 292.8 153.8 Q302.05 162.25 313.65 167.15 326.85 172.75 341.25 172.9 L341.25 146.7 342.15 146.7 345.9 146.6 345.9 172.8 Q358.75 172.15 370.65 167.15 383.15 161.85 392.95 152.4 L374.45 133.9 375.4 132.95 377.65 130.55 396.2 149.1 Q404.7 139.85 409.6 128.2 412.75 120.8 414.15 113.0 L424.95 113.0 Q423.35 122.95 419.35 132.35 413.65 145.85 403.7 156.6 L406.0 158.9 406.2 159.1 402.95 162.4 402.8 162.25 400.45 159.9 Q389.2 170.8 374.75 176.9 360.9 182.75 345.9 183.45 L345.9 186.75 345.9 186.85 341.25 186.85 341.25 186.8 341.25 183.5 Q324.7 183.35 309.5 176.9 296.05 171.2 285.35 161.3 L283.0 163.6 279.7 160.3 282.0 158.05 Q271.05 146.75 264.95 132.35 260.95 122.95 259.4 113.0 L270.1 113.0 Q271.5 120.8 274.65 128.2 279.95 140.75 289.45 150.55 L308.0 132.05 M160.45 37.05 L163.75 40.35 163.55 40.55 161.25 42.85 Q171.2 53.6 176.9 67.05 181.9 78.9 183.15 91.55 L172.45 91.55 Q171.25 81.05 167.1 71.2 162.2 59.6 153.75 50.4 L135.2 68.9 132.9 66.45 132.0 65.55 150.5 47.05 Q140.7 37.55 128.15 32.25 116.25 27.25 103.4 26.6 L103.4 52.85 99.7 52.7 98.75 52.7 98.75 26.5 Q84.35 26.65 71.15 32.25 59.55 37.15 50.3 45.65 L68.85 64.2 66.45 66.45 65.5 67.45 47.0 48.9 Q37.5 58.65 32.2 71.2 26.9 83.75 26.5 97.4 L52.7 97.4 52.65 99.7 52.7 102.05 26.5 102.05 Q26.9 115.7 32.2 128.2 37.5 140.75 47.0 150.55 L65.5 132.0 66.45 132.95 68.9 135.25 50.35 153.8 Q59.6 162.25 71.15 167.15 84.35 172.75 98.75 172.9 L98.75 146.7 99.7 146.7 103.4 146.6 103.4 172.8 Q116.25 172.15 128.15 167.15 140.7 161.85 150.45 152.4 L131.95 133.9 132.9 132.95 135.2 130.55 153.7 149.05 Q162.2 139.8 167.1 128.2 170.25 120.8 171.65 113.0 L182.5 113.0 Q180.9 122.95 176.9 132.35 171.2 145.85 161.25 156.6 L163.55 158.9 163.75 159.1 160.45 162.4 160.3 162.25 158.0 159.95 Q146.7 170.8 132.3 176.9 118.4 182.75 103.4 183.45 L103.4 186.75 103.4 186.85 98.75 186.85 98.75 186.8 98.75 183.5 Q82.2 183.35 67.05 176.9 53.55 171.2 42.85 161.3 L40.5 163.6 37.2 160.3 39.5 158.05 Q28.55 146.75 22.45 132.35 16.3 117.85 15.9 102.05 L12.75 102.05 12.75 97.4 15.9 97.4 Q16.3 81.6 22.45 67.05 28.55 52.65 39.5 41.4 L37.25 39.15 40.5 35.85 42.8 38.15 Q53.55 28.2 67.05 22.5 82.2 16.05 98.75 15.9 L98.75 12.65 98.75 12.55 103.4 12.55 103.4 12.75 103.4 16.0 Q118.4 16.65 132.3 22.5 146.75 28.6 158.0 39.5 L160.3 37.2 160.45 37.05" fill="#000000" fill-opacity="0.54901963" fill-rule="evenodd" stroke="none"/>
    <path d="M1579.45 97.4 Q1579.05 81.3 1572.9 66.55 1567.0 52.2 1556.3 40.6 L1556.7 40.15 1553.4 36.85 1553.05 37.25 Q1541.3 25.9 1526.3 19.5 1511.85 13.45 1496.15 12.75 L1496.15 12.55 1491.5 12.55 1491.5 12.65 Q1474.4 12.8 1458.5 19.5 1444.4 25.45 1433.25 35.9 L1433.2 35.85 1432.65 36.4 1430.85 38.15 1430.75 38.25 1429.75 39.15 Q1418.7 50.55 1412.2 65.8 1405.75 81.05 1405.4 97.4 L1405.35 97.4 1405.35 98.55 1405.35 99.7 1405.35 100.9 1405.35 102.05 1405.4 102.05 Q1405.75 118.4 1412.2 133.6 1418.8 149.25 1430.85 161.3 1442.9 173.35 1458.5 179.95 1474.4 186.65 1491.5 186.8 L1491.5 186.85 1496.15 186.85 1496.15 186.75 Q1511.7 186.1 1526.3 179.95 1541.25 173.6 1553.05 162.25 L1553.4 162.6 1556.7 159.3 1556.3 158.9 Q1566.9 147.35 1572.85 133.05 1578.95 118.2 1579.45 102.05 L1579.8 102.05 1579.8 97.4 1579.45 97.4 M1539.4 97.4 L1539.45 99.7 1539.4 102.05 Q1538.7 118.35 1528.0 130.55 L1525.7 132.95 1524.75 133.9 Q1512.6 145.4 1496.2 146.6 L1492.5 146.7 1491.55 146.7 Q1474.35 146.4 1461.7 135.25 L1459.25 132.95 1458.3 132.0 Q1446.25 119.35 1445.5 102.05 L1445.45 99.7 1445.5 97.4 Q1446.25 80.1 1458.3 67.45 L1459.25 66.45 1461.65 64.2 Q1474.3 53.0 1491.55 52.7 L1492.5 52.7 1496.2 52.85 Q1512.65 54.0 1524.8 65.55 L1525.7 66.45 1528.0 68.9 Q1538.7 81.1 1539.4 97.4 M1562.95 29.2 Q1576.75 43.0 1584.3 60.9 1592.15 79.4 1592.15 99.7 1592.15 120.0 1584.3 138.5 1576.75 156.4 1562.95 170.2 1549.15 184.0 1531.25 191.55 1512.75 199.4 1492.45 199.4 1472.15 199.4 1453.65 191.55 1435.75 184.0 1422.0 170.2 1408.2 156.4 1400.65 138.5 1392.8 120.0 1392.8 99.7 1392.8 79.4 1400.65 60.9 1408.2 43.0 1422.0 29.2 1435.8 15.4 1453.65 7.85 1472.2 0.0 1492.45 0.0 1512.75 0.0 1531.25 7.85 1549.15 15.4 1562.95 29.2 M1492.5 65.95 Q1478.5 65.95 1468.6 75.85 1458.7 85.7 1458.7 99.7 1458.7 113.7 1468.6 123.55 1478.5 133.45 1492.5 133.45 1506.45 133.45 1516.35 123.55 1526.25 113.7 1526.25 99.7 1526.25 85.7 1516.35 75.85 1506.45 65.95 1492.5 65.95 M1350.3 97.2 Q1349.85 80.8 1343.45 65.6 1337.5 51.5 1327.1 40.35 L1327.5 39.95 1324.2 36.65 1323.85 37.0 Q1312.15 25.65 1297.1 19.3 1282.65 13.25 1266.95 12.55 L1266.95 12.35 1262.3 12.35 1262.3 12.45 Q1245.15 12.6 1229.35 19.3 1215.15 25.3 1203.9 35.8 L1203.85 35.75 1202.75 36.9 1202.2 37.4 1201.95 37.7 1201.45 38.2 1200.6 38.95 1200.65 39.0 Q1189.3 50.65 1183.0 65.6 1176.55 80.85 1176.2 97.2 L1175.9 97.2 1175.9 101.85 1176.2 101.85 Q1176.55 118.2 1183.0 133.4 1189.6 149.05 1201.65 161.1 L1204.25 163.6 Q1215.25 173.8 1229.35 179.75 1245.15 186.45 1262.3 186.6 L1262.3 186.65 1266.95 186.65 1266.95 186.55 Q1282.5 185.9 1297.1 179.75 1312.15 173.4 1323.85 162.05 L1324.2 162.4 1327.5 159.1 1327.1 158.7 Q1337.7 147.2 1343.65 132.85 1349.8 118.0 1350.3 101.85 L1350.6 101.85 1350.6 97.2 1350.3 97.2 M1302.0 7.85 Q1319.9 15.4 1333.7 29.2 1347.5 43.0 1355.05 60.9 1362.9 79.4 1362.9 99.7 1362.9 120.0 1355.05 138.5 1347.5 156.4 1333.7 170.2 1319.9 184.0 1302.0 191.55 1283.5 199.4 1263.2 199.4 1242.9 199.4 1224.4 191.55 1206.5 184.0 1192.75 170.2 1178.95 156.4 1171.4 138.5 1163.55 120.0 1163.55 99.7 1163.55 79.4 1171.4 60.9 1178.95 43.0 1192.75 29.2 1206.55 15.4 1224.4 7.85 1242.95 0.0 1263.2 0.0 1283.5 0.0 1302.0 7.85 M1310.15 97.4 L1310.2 99.7 1310.15 102.05 Q1309.45 118.35 1298.75 130.55 L1296.45 132.95 1295.5 133.9 Q1283.4 145.4 1266.95 146.6 L1263.25 146.7 1262.3 146.7 Q1245.1 146.4 1232.45 135.25 L1230.0 132.95 1229.05 132.0 Q1217.0 119.35 1216.25 102.05 L1216.2 99.7 1216.25 97.4 Q1217.0 80.1 1229.05 67.45 L1230.0 66.45 1232.4 64.2 Q1245.05 53.0 1262.3 52.7 L1263.25 52.7 1266.95 52.85 Q1283.4 54.0 1295.55 65.55 L1296.45 66.45 1298.75 68.9 Q1309.45 81.1 1310.15 97.4 M1296.95 102.05 L1297.0 99.7 1296.95 97.4 Q1296.2 84.9 1287.1 75.85 1278.55 67.3 1266.95 66.15 L1263.25 65.95 1262.3 65.95 Q1250.6 66.25 1241.8 73.6 L1239.35 75.85 1238.45 76.8 Q1230.25 85.55 1229.55 97.4 L1229.45 99.7 1229.55 102.05 Q1230.3 114.55 1239.35 123.55 1248.9 133.1 1262.3 133.45 L1263.25 133.45 1266.95 133.3 Q1277.9 132.2 1286.15 124.5 L1287.1 123.55 1289.35 121.15 Q1296.25 112.9 1296.95 102.05 M1094.65 37.25 Q1088.9 31.65 1082.4 27.35 1075.55 22.75 1067.85 19.5 1053.4 13.4 1037.75 12.75 L1037.75 12.55 1033.1 12.55 1033.1 12.65 Q1015.9 12.8 1000.1 19.5 984.45 26.1 972.4 38.15 L970.5 40.15 Q959.8 51.45 953.75 65.8 952.15 69.6 950.95 73.45 946.9 86.15 946.9 99.7 946.9 117.4 953.75 133.6 960.35 149.25 972.4 161.3 984.45 173.35 1000.1 179.95 1015.9 186.65 1033.1 186.8 L1033.1 186.85 1037.75 186.85 1037.75 186.75 Q1053.4 186.05 1067.85 179.95 1082.9 173.6 1094.65 162.25 L1094.8 162.4 1098.05 159.1 1097.85 158.9 Q1108.25 147.7 1114.2 133.6 1120.6 118.5 1121.05 102.05 L1121.35 102.05 1121.35 97.4 1121.05 97.4 Q1120.6 80.95 1114.2 65.8 1108.25 51.75 1097.85 40.55 L1098.05 40.35 1094.8 37.05 1094.65 37.25 M1066.3 65.55 L1067.25 66.45 1069.55 68.9 Q1080.25 81.1 1080.95 97.4 L1081.0 99.7 1080.95 102.05 Q1080.25 118.35 1069.5 130.55 L1067.25 132.95 1066.3 133.9 Q1054.15 145.4 1037.75 146.6 L1034.0 146.7 1033.1 146.7 Q1015.9 146.4 1003.2 135.25 L1000.75 132.95 999.85 132.05 Q987.75 119.35 987.0 102.05 L986.95 99.7 987.0 97.4 Q987.75 80.1 999.8 67.4 L1000.75 66.45 1003.2 64.2 Q1015.85 53.0 1033.1 52.7 L1034.0 52.7 1037.75 52.85 Q1054.15 54.0 1066.3 65.55 M1067.7 97.4 Q1066.95 84.9 1057.85 75.85 1049.35 67.3 1037.75 66.15 L1034.0 65.95 1033.1 65.95 Q1019.7 66.25 1010.1 75.85 1001.0 84.9 1000.3 97.4 L1000.2 99.7 1000.3 102.05 Q1001.05 114.55 1010.1 123.55 1019.7 133.15 1033.1 133.45 L1034.0 133.45 1037.75 133.3 Q1049.35 132.1 1057.85 123.55 1066.9 114.55 1067.7 102.05 L1067.75 99.7 1067.7 97.4 M955.1 38.75 Q958.95 33.75 963.5 29.2 977.3 15.4 995.2 7.85 1013.75 0.0 1034.0 0.0 1054.3 0.0 1072.8 7.85 1090.7 15.4 1104.45 29.2 1118.25 43.0 1125.8 60.9 1133.65 79.4 1133.65 99.7 1133.65 120.0 1125.8 138.5 1118.25 156.4 1104.45 170.2 1090.7 184.0 1072.8 191.55 1054.3 199.4 1034.0 199.4 1013.7 199.4 995.2 191.55 977.3 184.0 963.5 170.2 949.7 156.4 942.15 138.5 934.3 120.0 934.3 99.7 934.3 81.75 940.45 65.2 L942.15 60.9 942.25 60.75 Q947.25 48.8 955.1 38.75 M893.5 57.1 L895.2 60.9 Q897.6 66.55 899.3 72.4 903.05 85.6 903.05 99.7 903.05 120.0 895.2 138.5 887.65 156.4 873.85 170.2 860.05 184.0 842.15 191.55 823.65 199.4 803.35 199.4 783.05 199.4 764.55 191.55 746.65 184.0 732.9 170.2 719.1 156.4 711.55 138.5 708.55 131.45 706.7 124.15 711.7 119.15 713.8 113.0 L717.3 113.0 Q718.9 123.6 723.15 133.6 729.75 149.25 741.8 161.3 753.85 173.35 769.5 179.95 785.25 186.65 802.45 186.8 L802.45 186.85 807.1 186.85 807.1 186.75 Q822.75 186.05 837.25 179.95 852.3 173.6 864.0 162.25 L864.15 162.4 867.45 159.1 867.25 158.9 Q877.65 147.7 883.6 133.6 890.0 118.5 890.45 102.05 L890.75 102.05 890.75 97.4 890.45 97.4 Q890.1 85.65 886.8 74.6 885.45 70.15 883.6 65.8 L880.45 59.15 Q875.1 49.0 867.25 40.55 L867.45 40.35 864.15 37.05 864.0 37.2 Q852.3 25.85 837.25 19.5 822.75 13.4 807.1 12.75 L807.1 12.55 802.45 12.55 802.45 12.65 Q785.25 12.8 769.5 19.5 753.85 26.1 741.8 38.15 731.05 48.9 724.65 62.45 L723.15 65.8 Q717.9 78.25 716.7 91.55 L713.2 91.55 Q711.0 86.35 706.7 82.05 L705.45 80.9 Q707.25 71.6 710.8 62.75 L711.55 60.9 Q719.1 43.0 732.9 29.2 746.7 15.4 764.55 7.85 783.1 0.0 803.35 0.0 823.65 0.0 842.15 7.85 860.05 15.4 873.85 29.2 886.15 41.5 893.5 57.1 M838.9 130.55 L836.6 132.95 835.65 133.9 Q823.5 145.4 807.1 146.6 L803.4 146.7 802.45 146.7 Q785.25 146.4 772.6 135.25 L770.15 132.95 769.2 132.0 Q761.15 123.5 758.15 113.0 L772.25 113.0 Q774.45 118.2 778.6 122.6 L779.5 123.55 782.0 125.85 Q790.75 133.15 802.45 133.45 L803.4 133.45 807.1 133.3 Q818.0 132.2 826.25 124.5 L827.25 123.55 829.5 121.15 Q832.65 117.35 834.55 113.0 L848.55 113.0 Q845.8 122.65 838.9 130.55 M836.6 66.45 L838.9 68.9 Q844.05 74.8 846.9 81.6 848.85 86.35 849.7 91.55 L836.25 91.55 Q835.3 87.55 833.4 84.0 831.8 81.0 829.5 78.3 L827.25 75.85 826.3 74.95 Q822.3 71.2 817.7 69.05 812.75 66.7 807.1 66.15 L803.4 65.95 802.45 65.95 798.9 66.25 Q789.35 67.4 781.95 73.6 L779.5 75.85 778.6 76.85 Q772.5 83.3 770.55 91.55 L757.0 91.55 Q759.25 77.9 769.2 67.45 L770.15 66.45 772.55 64.2 775.95 61.45 Q787.5 52.95 802.45 52.7 L803.4 52.7 807.1 52.85 Q823.55 54.0 835.7 65.55 L836.6 66.45 M669.05 73.8 L670.05 77.7 Q667.15 79.5 664.6 82.05 661.25 85.4 659.2 89.3 658.25 81.45 655.95 73.95 654.65 69.8 652.95 65.8 647.0 51.75 636.65 40.6 L636.85 40.35 633.55 37.05 633.4 37.25 Q621.65 25.85 606.65 19.5 592.15 13.4 576.5 12.75 L576.5 12.55 571.85 12.55 571.85 12.65 Q554.65 12.8 538.85 19.5 523.25 26.1 511.2 38.15 499.15 50.2 492.55 65.8 490.5 70.65 489.05 75.65 486.85 83.25 486.1 91.2 L486.1 91.55 483.4 91.55 Q481.2 86.35 476.9 82.05 L474.95 80.25 475.95 75.8 Q477.8 68.2 480.9 60.9 488.45 43.0 502.25 29.2 516.05 15.4 533.95 7.85 552.5 0.0 572.75 0.0 593.05 0.0 611.55 7.85 629.45 15.4 643.25 29.2 657.05 43.0 664.6 60.9 667.3 67.25 669.05 73.8 M619.1 91.55 L605.6 91.55 Q603.5 82.7 596.6 75.85 586.75 65.95 572.75 65.95 558.75 65.95 548.85 75.85 541.95 82.7 539.9 91.55 L526.4 91.55 526.45 91.2 Q527.95 82.55 532.55 75.2 535.05 71.1 538.6 67.45 L539.5 66.45 541.95 64.2 Q554.65 53.0 571.85 52.7 L572.75 52.7 576.5 52.85 Q592.9 54.0 605.05 65.55 L606.0 66.45 608.3 68.9 Q610.6 71.55 612.5 74.4 617.5 82.1 619.05 91.2 L619.1 91.55 M484.0 113.0 L486.7 113.0 Q488.3 123.6 492.55 133.6 499.15 149.25 511.2 161.3 523.25 173.35 538.85 179.95 554.65 186.65 571.85 186.8 L571.85 186.85 576.5 186.85 576.5 186.75 Q592.15 186.05 606.65 179.95 621.65 173.6 633.4 162.25 L633.55 162.4 636.85 159.1 636.65 158.9 Q647.0 147.7 652.95 133.6 656.7 124.7 658.45 115.35 660.55 120.1 664.6 124.15 666.5 126.05 668.55 127.5 666.9 133.1 664.6 138.5 657.05 156.4 643.25 170.2 629.45 184.0 611.55 191.55 593.05 199.4 572.75 199.4 552.45 199.4 533.95 191.55 516.05 184.0 502.25 170.2 488.45 156.4 480.9 138.5 478.05 131.75 476.25 124.8 L476.9 124.15 Q481.9 119.15 484.0 113.0 M527.55 113.0 L541.6 113.0 Q544.05 118.75 548.85 123.55 558.75 133.45 572.75 133.45 586.75 133.45 596.6 123.55 601.4 118.75 603.9 113.0 L617.95 113.0 Q615.2 122.65 608.3 130.55 L606.0 132.95 605.05 133.9 Q592.9 145.4 576.5 146.6 L572.75 146.7 571.85 146.7 Q554.65 146.4 541.95 135.25 L539.5 132.95 538.6 132.0 Q530.55 123.55 527.55 113.0 M438.05 127.0 Q436.35 132.85 433.95 138.5 426.4 156.4 412.6 170.2 398.85 184.0 380.95 191.55 362.45 199.4 342.15 199.4 321.85 199.4 303.35 191.55 285.45 184.0 271.65 170.2 257.85 156.4 250.3 138.5 246.7 130.05 244.8 121.2 247.75 117.4 249.25 113.0 L256.05 113.0 Q257.65 123.6 261.9 133.6 268.5 149.25 280.55 161.3 292.6 173.35 308.25 179.95 324.05 186.65 341.25 186.8 L341.25 186.85 345.9 186.85 345.9 186.75 Q361.55 186.05 376.0 179.95 391.05 173.6 402.8 162.25 L402.95 162.4 406.2 159.1 406.0 158.9 Q416.4 147.7 422.35 133.6 426.4 124.05 428.05 113.95 430.2 119.55 434.8 124.15 L438.05 127.0 M197.15 120.8 Q195.15 129.85 191.5 138.5 183.95 156.4 170.15 170.2 156.35 184.0 138.45 191.55 119.95 199.4 99.65 199.4 79.35 199.4 60.85 191.55 42.95 184.0 29.2 170.2 15.4 156.4 7.85 138.5 0.0 120.0 0.0 99.7 0.0 79.4 7.85 60.9 15.4 43.0 29.2 29.2 43.0 15.4 60.85 7.85 79.4 0.0 99.65 0.0 119.95 0.0 138.45 7.85 156.35 15.4 170.15 29.2 183.95 43.0 191.5 60.9 196.3 72.15 198.15 84.15 195.25 87.55 193.6 91.55 L186.4 91.55 Q185.15 78.25 179.9 65.8 173.95 51.75 163.55 40.55 L163.75 40.35 160.45 37.05 160.3 37.2 Q148.6 25.85 133.55 19.5 119.05 13.4 103.4 12.75 L103.4 12.55 98.75 12.55 98.75 12.65 Q81.55 12.8 65.8 19.5 50.15 26.1 38.1 38.15 26.05 50.2 19.45 65.8 12.6 82.0 12.6 99.7 12.6 117.4 19.45 133.6 26.05 149.25 38.1 161.3 50.15 173.35 65.8 179.95 81.55 186.65 98.75 186.8 L98.75 186.85 103.4 186.85 103.4 186.75 Q119.05 186.05 133.55 179.95 148.6 173.6 160.3 162.25 L160.45 162.4 163.75 159.1 163.55 158.9 Q173.95 147.7 179.9 133.6 184.15 123.6 185.75 113.0 L192.95 113.0 Q194.4 117.15 197.15 120.8 M243.75 83.75 Q245.6 72.0 250.3 60.9 257.85 43.0 271.65 29.2 285.45 15.4 303.35 7.85 321.9 0.0 342.15 0.0 362.45 0.0 380.95 7.85 398.85 15.4 412.6 29.2 426.4 43.0 433.95 60.9 437.1 68.4 439.0 76.15 L439.5 78.2 Q437.0 79.85 434.8 82.05 430.9 85.95 428.75 90.6 428.0 83.3 426.05 76.3 424.55 70.95 422.35 65.8 416.4 51.75 406.0 40.55 L406.2 40.35 402.95 37.05 402.8 37.25 Q391.05 25.85 376.0 19.5 361.55 13.4 345.9 12.75 L345.9 12.55 341.25 12.55 341.25 12.65 Q324.05 12.8 308.25 19.5 292.6 26.1 280.55 38.15 268.5 50.2 261.9 65.8 256.65 78.25 255.45 91.55 L248.65 91.55 Q246.85 87.35 243.75 83.75 M388.45 91.2 L388.5 91.55 375.0 91.55 374.9 91.2 Q372.9 83.2 367.0 76.9 L366.0 75.85 364.45 74.4 Q357.9 68.5 349.65 66.75 L342.15 65.95 Q337.3 65.95 333.0 67.15 324.75 69.35 318.25 75.85 311.35 82.7 309.3 91.55 L295.75 91.55 Q297.95 78.1 307.65 67.75 L307.95 67.4 308.9 66.45 311.35 64.2 Q324.0 53.0 341.25 52.7 L342.15 52.7 345.9 52.85 Q362.3 54.0 374.45 65.55 L375.4 66.45 377.7 68.9 Q380.95 72.6 383.3 76.7 387.1 83.45 388.45 91.2 M366.0 123.55 Q370.8 118.75 373.3 113.0 L387.35 113.0 Q384.6 122.65 377.65 130.55 L375.4 132.95 374.45 133.9 Q362.3 145.4 345.9 146.6 L342.15 146.7 341.25 146.7 Q324.0 146.4 311.35 135.25 L308.9 132.95 308.0 132.05 Q299.9 123.55 296.9 113.0 L311.0 113.0 Q312.05 115.5 313.55 117.8 315.5 120.85 318.25 123.55 328.15 133.45 342.15 133.45 356.15 133.45 366.0 123.55 M135.2 130.55 L132.9 132.95 131.95 133.9 Q119.85 145.4 103.4 146.6 L99.7 146.7 98.75 146.7 Q81.55 146.4 68.9 135.25 L66.45 132.95 65.5 132.0 Q53.45 119.35 52.7 102.05 L52.65 99.7 52.7 97.4 Q53.45 80.1 65.5 67.45 L66.45 66.45 68.85 64.2 Q81.5 53.0 98.75 52.7 L99.7 52.7 103.4 52.85 Q119.85 54.0 132.0 65.55 L132.9 66.45 135.2 68.9 Q143.95 78.85 146.0 91.55 L132.55 91.55 Q130.45 82.7 123.55 75.85 113.65 65.95 99.7 65.95 85.7 65.95 75.8 75.85 65.9 85.7 65.9 99.7 65.9 113.7 75.8 123.55 85.7 133.45 99.7 133.45 113.65 133.45 123.55 123.55 128.35 118.75 130.85 113.0 L144.85 113.0 Q142.1 122.65 135.2 130.55" fill="#ffffff" fill-opacity="0.0" fill-rule="evenodd" stroke="none"/>
    <path d="M1492.5 65.95 Q1506.45 65.95 1516.35 75.85 1526.25 85.7 1526.25 99.7 1526.25 113.7 1516.35 123.55 1506.45 133.45 1492.5 133.45 1478.5 133.45 1468.6 123.55 1458.7 113.7 1458.7 99.7 1458.7 85.7 1468.6 75.85 1478.5 65.95 1492.5 65.95 M1296.95 102.05 Q1296.25 112.9 1289.35 121.15 L1287.1 123.55 1286.15 124.5 Q1277.9 132.2 1266.95 133.3 L1263.25 133.45 1262.3 133.45 Q1248.9 133.1 1239.35 123.55 1230.3 114.55 1229.55 102.05 L1229.45 99.7 1229.55 97.4 Q1230.25 85.55 1238.45 76.8 L1239.35 75.85 1241.8 73.6 Q1250.6 66.25 1262.3 65.95 L1263.25 65.95 1266.95 66.15 Q1278.55 67.3 1287.1 75.85 1296.2 84.9 1296.95 97.4 L1297.0 99.7 1296.95 102.05 M1067.7 97.4 L1067.75 99.7 1067.7 102.05 Q1066.9 114.55 1057.85 123.55 1049.35 132.1 1037.75 133.3 L1034.0 133.45 1033.1 133.45 Q1019.7 133.15 1010.1 123.55 1001.05 114.55 1000.3 102.05 L1000.2 99.7 1000.3 97.4 Q1001.0 84.9 1010.1 75.85 1019.7 66.25 1033.1 65.95 L1034.0 65.95 1037.75 66.15 Q1049.35 67.3 1057.85 75.85 1066.95 84.9 1067.7 97.4 M713.2 91.55 L716.7 91.55 719.95 91.55 730.6 91.55 757.0 91.55 770.55 91.55 Q772.5 83.3 778.6 76.85 L779.5 75.85 781.95 73.6 Q789.35 67.4 798.9 66.25 L802.45 65.95 803.4 65.95 807.1 66.15 Q812.75 66.7 817.7 69.05 822.3 71.2 826.3 74.95 L827.25 75.85 829.5 78.3 Q831.8 81.0 833.4 84.0 835.3 87.55 836.25 91.55 L849.7 91.55 856.65 91.55 Q860.2 91.55 862.75 94.7 863.75 95.95 864.35 97.4 865.2 99.5 865.25 102.05 L865.25 102.3 Q865.25 106.75 862.75 109.85 860.2 113.0 856.65 113.0 L848.55 113.0 834.55 113.0 Q832.65 117.35 829.5 121.15 L827.25 123.55 826.25 124.5 Q818.0 132.2 807.1 133.3 L803.4 133.45 802.45 133.45 Q790.75 133.15 782.0 125.85 L779.5 123.55 778.6 122.6 Q774.45 118.2 772.25 113.0 L758.15 113.0 731.35 113.0 720.6 113.0 717.3 113.0 713.8 113.0 Q715.4 108.4 715.4 103.1 715.4 96.85 713.2 91.55 M658.15 91.55 Q657.05 94.1 656.5 96.85 655.9 99.85 655.9 103.1 655.9 105.4 656.2 107.55 656.6 110.4 657.5 113.0 L655.55 113.0 644.75 113.0 617.95 113.0 603.9 113.0 541.6 113.0 603.9 113.0 Q601.4 118.75 596.6 123.55 586.75 133.45 572.75 133.45 558.75 133.45 548.85 123.55 544.05 118.75 541.6 113.0 L527.55 113.0 500.75 113.0 490.0 113.0 486.7 113.0 484.0 113.0 Q485.6 108.4 485.6 103.1 485.6 96.85 483.4 91.55 L486.1 91.55 489.35 91.55 500.0 91.55 526.4 91.55 539.9 91.55 605.6 91.55 539.9 91.55 Q541.95 82.7 548.85 75.85 558.75 65.95 572.75 65.95 586.75 65.95 596.6 75.85 603.5 82.7 605.6 91.55 L619.1 91.55 645.55 91.55 656.15 91.55 658.15 91.55 M772.25 113.0 L834.55 113.0 772.25 113.0 M836.25 91.55 L770.55 91.55 836.25 91.55 M414.95 91.55 L425.55 91.55 428.35 91.55 Q427.15 94.35 426.6 97.4 426.2 99.65 426.15 102.05 L426.1 103.1 Q426.1 108.4 427.7 113.0 L424.95 113.0 414.15 113.0 387.35 113.0 373.3 113.0 Q370.8 118.75 366.0 123.55 356.15 133.45 342.15 133.45 328.15 133.45 318.25 123.55 315.5 120.85 313.55 117.8 312.05 115.5 311.0 113.0 L296.9 113.0 270.1 113.0 259.4 113.0 256.05 113.0 249.25 113.0 Q250.85 108.4 250.85 103.1 250.85 96.85 248.65 91.55 L255.45 91.55 258.75 91.55 269.35 91.55 291.75 91.55 295.75 91.55 309.3 91.55 Q311.35 82.7 318.25 75.85 324.75 69.35 333.0 67.15 337.3 65.95 342.15 65.95 L349.65 66.75 Q357.9 68.5 364.45 74.4 L366.0 75.85 367.0 76.9 Q372.9 83.2 374.9 91.2 L375.0 91.55 388.5 91.55 414.95 91.55 M311.0 113.0 L373.3 113.0 311.0 113.0 M186.4 91.55 L193.6 91.55 Q191.35 96.85 191.35 103.1 191.35 108.4 192.95 113.0 L185.75 113.0 182.5 113.0 171.65 113.0 144.85 113.0 130.85 113.0 Q128.35 118.75 123.55 123.55 113.65 133.45 99.7 133.45 85.7 133.45 75.8 123.55 65.9 113.7 65.9 99.7 65.9 85.7 75.8 75.85 85.7 65.95 99.7 65.95 113.65 65.95 123.55 75.85 130.45 82.7 132.55 91.55 L94.15 91.55 Q90.6 91.55 88.05 94.7 85.55 97.85 85.55 102.3 85.55 106.75 88.05 109.85 90.6 113.0 94.15 113.0 90.6 113.0 88.05 109.85 85.55 106.75 85.55 102.3 85.55 97.85 88.05 94.7 90.6 91.55 94.15 91.55 L132.55 91.55 146.0 91.55 172.45 91.55 183.15 91.55 186.4 91.55 M94.15 113.0 L130.85 113.0 94.15 113.0 M375.0 91.55 L309.3 91.55 375.0 91.55" fill="#000000" fill-opacity="0.34901962" fill-rule="evenodd" stroke="none"/>
    <path d="M1094.65 37.25 L1093.6 38.3 1091.4 38.65 Q1085.0 32.6 1077.55 28.1 L1082.4 27.35 Q1088.9 31.65 1094.65 37.25 M1059.25 31.0 Q1060.9 31.55 1062.5 32.25 1070.75 35.75 1077.8 41.05 L1037.75 48.1 1037.75 34.35 1059.25 31.0 M964.65 76.1 L966.5 71.2 Q971.3 59.85 979.5 50.8 L981.3 48.9 989.05 56.65 980.5 58.15 Q980.1 65.45 974.85 70.7 970.45 75.1 964.65 76.1 M994.65 55.65 L984.65 45.65 988.85 42.05 1033.1 35.1 1033.1 48.9 994.65 55.65 M950.95 73.45 Q952.15 69.6 953.75 65.8 959.8 51.45 970.5 40.15 L973.25 42.0 Q962.75 53.05 956.8 67.05 955.15 70.95 953.9 75.0 952.35 74.35 950.95 73.45 M955.1 38.75 Q947.25 48.8 942.25 60.75 L942.15 60.9 940.45 65.2 899.3 72.4 Q897.6 66.55 895.2 60.9 L893.5 57.1 943.5 49.2 Q944.9 46.05 947.55 43.45 950.9 40.1 955.1 38.75 M980.5 58.15 L980.5 57.05 Q980.5 53.7 979.5 50.8 980.5 53.7 980.5 57.05 L980.5 58.15 M710.8 62.75 Q707.25 71.6 705.45 80.9 698.6 74.7 689.65 73.6 L703.2 73.45 704.95 62.85 710.8 62.75 M716.7 91.55 Q717.9 78.25 723.15 65.8 L724.65 62.45 728.3 62.4 726.15 67.05 Q721.15 78.9 719.95 91.55 L716.7 91.55 M880.45 59.15 L883.6 65.8 Q885.45 70.15 886.8 74.6 L883.55 75.2 Q882.3 71.05 880.6 67.05 879.0 63.25 877.05 59.7 L880.45 59.15 M943.5 49.2 Q941.9 52.8 941.9 57.05 941.9 58.95 942.25 60.75 941.9 58.95 941.9 57.05 941.9 52.8 943.5 49.2 M838.9 68.9 L842.7 65.1 865.8 61.45 Q868.65 66.1 870.8 71.2 L873.0 77.05 846.9 81.6 Q844.05 74.8 838.9 68.9 M775.95 61.45 L772.55 64.2 769.95 61.6 775.95 61.45 M769.2 67.45 Q759.25 77.9 757.0 91.55 L730.6 91.55 Q731.75 81.05 735.9 71.2 737.9 66.5 740.5 62.15 L763.45 61.7 769.2 67.45 M669.05 73.8 L680.95 73.7 Q675.0 74.55 670.05 77.7 L669.05 73.8 M652.55 73.95 L655.95 73.95 Q658.25 81.45 659.2 89.3 L658.3 91.2 656.15 91.2 Q655.25 82.4 652.55 73.95 M439.0 76.15 L443.1 76.1 439.5 78.2 439.0 76.15 M468.05 75.85 L475.95 75.8 474.95 80.25 Q471.7 77.5 468.05 75.85 M489.05 75.65 L492.45 75.65 Q490.15 83.25 489.4 91.2 L486.1 91.2 Q486.85 83.25 489.05 75.65 M641.35 74.1 Q644.45 82.4 645.5 91.2 L619.05 91.2 Q617.5 82.1 612.5 74.4 L641.35 74.1 M532.55 75.2 Q527.95 82.55 526.45 91.2 L500.05 91.2 Q500.95 83.15 503.65 75.5 L532.55 75.2 M426.05 76.3 Q428.0 83.3 428.75 90.6 L428.5 91.2 425.55 91.2 Q424.8 83.6 422.65 76.3 L426.05 76.3 M411.6 76.45 Q414.0 83.65 414.9 91.2 L388.45 91.2 Q387.1 83.45 383.3 76.7 L411.6 76.45 M307.65 67.75 Q297.95 78.1 295.75 91.55 L291.75 91.55 291.75 68.15 307.65 67.75" fill="#000000" fill-opacity="0.09803922" fill-rule="evenodd" stroke="none"/>
    <path d="M705.45 80.9 L706.7 82.05 Q711.0 86.35 713.2 91.55 715.4 96.85 715.4 103.1 715.4 108.4 713.8 113.0 711.7 119.15 706.7 124.15 697.95 132.85 685.65 132.85 675.95 132.85 668.55 127.5 666.5 126.05 664.6 124.15 660.55 120.1 658.45 115.35 L657.5 113.0 Q656.6 110.4 656.2 107.55 655.9 105.4 655.9 103.1 655.9 99.85 656.5 96.85 657.05 94.1 658.15 91.55 L658.3 91.2 659.2 89.3 Q661.25 85.4 664.6 82.05 667.15 79.5 670.05 77.7 675.0 74.55 680.95 73.7 L685.65 73.35 689.65 73.6 Q698.6 74.7 705.45 80.9 M483.4 91.55 Q485.6 96.85 485.6 103.1 485.6 108.4 484.0 113.0 481.9 119.15 476.9 124.15 L476.25 124.8 Q467.75 132.85 455.85 132.85 445.7 132.85 438.05 127.0 L434.8 124.15 Q430.2 119.55 428.05 113.95 L427.7 113.0 Q426.1 108.4 426.1 103.1 L426.15 102.05 Q426.2 99.65 426.6 97.4 427.15 94.35 428.35 91.55 L428.5 91.2 428.75 90.6 Q430.9 85.95 434.8 82.05 437.0 79.85 439.5 78.2 L443.1 76.1 Q448.9 73.35 455.85 73.35 462.5 73.35 468.05 75.85 471.7 77.5 474.95 80.25 L476.9 82.05 Q481.2 86.35 483.4 91.55 M685.65 86.55 Q678.95 86.55 674.15 91.2 L673.95 91.4 672.25 93.35 Q669.1 97.55 669.1 103.1 669.1 108.1 671.7 112.05 672.65 113.5 673.95 114.8 678.8 119.65 685.65 119.65 692.5 119.65 697.3 114.8 702.15 109.95 702.15 103.1 702.15 96.25 697.3 91.4 L697.1 91.2 Q692.35 86.55 685.65 86.55 M244.8 121.2 L242.15 124.15 Q233.45 132.85 221.1 132.85 208.75 132.85 200.05 124.15 198.45 122.55 197.15 120.8 194.4 117.15 192.95 113.0 191.35 108.4 191.35 103.1 191.35 96.85 193.6 91.55 195.25 87.55 198.15 84.15 L200.05 82.05 Q208.75 73.35 221.1 73.35 233.45 73.35 242.15 82.05 L243.75 83.75 Q246.85 87.35 248.65 91.55 250.85 96.85 250.85 103.1 250.85 108.4 249.25 113.0 247.75 117.4 244.8 121.2 M444.15 91.4 Q442.7 92.85 441.7 94.5 439.3 98.3 439.3 103.1 439.3 107.4 441.2 110.9 442.35 113.0 444.15 114.8 449.0 119.65 455.85 119.65 462.7 119.65 467.55 114.8 472.4 109.95 472.4 103.1 472.4 96.25 467.55 91.4 L467.35 91.2 Q462.55 86.55 455.85 86.55 449.15 86.55 444.35 91.2 L444.15 91.4 M221.1 86.55 Q214.25 86.55 209.4 91.4 204.55 96.25 204.55 103.1 204.55 109.95 209.4 114.8 214.25 119.65 221.1 119.65 227.95 119.65 232.8 114.8 237.65 109.95 237.65 103.1 237.65 96.25 232.8 91.4 227.95 86.55 221.1 86.55" fill="#ffffff" fill-opacity="0.2" fill-rule="evenodd" stroke="none"/>
    <path d="M685.65 86.55 Q692.35 86.55 697.1 91.2 L697.3 91.4 Q702.15 96.25 702.15 103.1 702.15 109.95 697.3 114.8 692.5 119.65 685.65 119.65 678.8 119.65 673.95 114.8 672.65 113.5 671.7 112.05 669.1 108.1 669.1 103.1 669.1 97.55 672.25 93.35 L673.95 91.4 674.15 91.2 Q678.95 86.55 685.65 86.55 M444.15 91.4 L444.35 91.2 Q449.15 86.55 455.85 86.55 462.55 86.55 467.35 91.2 L467.55 91.4 Q472.4 96.25 472.4 103.1 472.4 109.95 467.55 114.8 462.7 119.65 455.85 119.65 449.0 119.65 444.15 114.8 442.35 113.0 441.2 110.9 439.3 107.4 439.3 103.1 439.3 98.3 441.7 94.5 442.7 92.85 444.15 91.4 M221.1 86.55 Q227.95 86.55 232.8 91.4 237.65 96.25 237.65 103.1 237.65 109.95 232.8 114.8 227.95 119.65 221.1 119.65 214.25 119.65 209.4 114.8 204.55 109.95 204.55 103.1 204.55 96.25 209.4 91.4 214.25 86.55 221.1 86.55" fill="#ffffff" fill-opacity="0.14901961" fill-rule="evenodd" stroke="none"/>
    <path d="M1554.0 42.9 Q1564.3 54.05 1570.0 67.85 1575.85 82.0 1576.2 97.4 L1579.45 97.4 1579.8 97.4 1579.8 102.05 M1556.7 40.15 L1553.4 36.85 1553.05 37.25 M1550.75 39.55 Q1539.35 28.55 1525.05 22.5 1511.25 16.7 1496.15 16.0 L1496.15 12.75 M1496.15 12.55 L1491.5 12.55 1491.5 12.65 M1491.5 15.9 Q1474.95 16.05 1459.8 22.5 1446.25 28.2 1435.55 38.15 L1433.25 35.9 1433.2 35.85 M1432.2 41.4 Q1421.25 52.75 1415.2 67.05 1409.05 81.65 1408.65 97.4 L1405.4 97.4 1405.35 97.4 M1408.65 102.05 Q1409.1 117.8 1415.2 132.35 1421.25 146.65 1432.25 158.05 L1429.95 160.3 1433.25 163.6 1435.6 161.3 Q1446.25 171.15 1459.8 176.9 1474.95 183.35 1491.5 183.5 L1491.5 186.8 M1491.5 186.85 L1496.15 186.85 1496.15 186.75 M1496.15 183.45 Q1511.1 182.8 1525.05 176.9 1539.35 170.85 1550.7 159.9 L1553.05 162.25 M1553.4 162.6 L1556.7 159.3 1556.3 158.9 M1553.95 156.55 Q1564.1 145.6 1569.8 131.85 1575.7 117.6 1576.2 102.05 L1579.45 102.05 M1546.55 50.4 Q1555.0 59.6 1559.9 71.2 1565.2 83.75 1565.65 97.4 L1539.4 97.4 M1539.45 99.7 L1539.4 102.05 M1565.65 102.05 Q1565.2 115.7 1559.9 128.2 1555.0 139.8 1546.5 149.05 L1528.0 130.55 M1525.7 132.95 L1524.75 133.9 M1543.25 152.4 Q1533.5 161.85 1520.95 167.15 1509.05 172.15 1496.2 172.8 L1496.2 146.6 M1492.5 146.7 L1491.55 146.7 M1491.55 172.9 Q1477.15 172.75 1463.95 167.15 1452.35 162.25 1443.15 153.8 L1461.7 135.25 M1459.25 132.95 L1458.3 132.0 M1439.8 150.55 Q1430.3 140.75 1425.0 128.2 1419.7 115.7 1419.3 102.05 L1445.5 102.05 M1445.45 99.7 L1445.5 97.4 M1419.3 97.4 Q1419.7 83.75 1425.0 71.2 1430.3 58.65 1439.75 48.9 L1458.3 67.45 M1459.25 66.45 L1461.65 64.2 M1443.1 45.65 Q1452.35 37.15 1463.95 32.25 1477.15 26.65 1491.55 26.5 L1491.55 52.7 M1492.5 52.7 L1496.2 52.85 M1496.2 26.6 Q1509.05 27.25 1520.95 32.25 1533.5 37.55 1543.3 47.05 L1524.8 65.55 M1525.7 66.45 L1528.0 68.9 M1405.35 102.05 L1405.35 100.9 M1324.8 42.65 Q1334.7 53.3 1340.45 66.85 1346.6 81.4 1347.05 97.2 L1350.3 97.2 1350.6 97.2 1350.6 101.85 M1327.5 39.95 L1324.2 36.65 1323.85 37.0 M1321.55 39.3 Q1310.2 28.3 1295.85 22.3 1282.05 16.5 1266.95 15.8 L1266.95 12.55 M1266.95 12.35 L1262.3 12.35 1262.3 12.45 M1262.3 15.7 Q1245.75 15.85 1230.6 22.3 1217.05 28.0 1206.35 37.95 L1203.9 35.8 1203.85 35.75 M1202.2 37.4 L1201.95 37.7 M1203.05 41.2 Q1192.05 52.5 1186.0 66.85 1179.85 81.45 1179.45 97.2 L1176.2 97.2 M1175.9 97.2 L1175.9 101.85 1176.2 101.85 M1179.45 101.85 Q1179.9 117.6 1186.0 132.15 1192.05 146.45 1203.05 157.85 L1200.95 160.3 1204.25 163.6 M1206.4 161.1 Q1217.15 171.0 1230.6 176.7 1245.75 183.15 1262.3 183.3 L1262.3 186.6 M1262.3 186.65 L1266.95 186.65 1266.95 186.55 M1266.95 183.25 Q1281.9 182.6 1295.85 176.7 1310.2 170.65 1321.55 159.75 L1323.85 162.05 M1324.2 162.4 L1327.5 159.1 1327.1 158.7 M1324.8 156.4 Q1334.95 145.4 1340.65 131.65 1346.55 117.4 1347.05 101.85 L1350.3 101.85 M1317.3 50.4 Q1325.75 59.6 1330.65 71.2 1335.95 83.75 1336.4 97.4 L1310.15 97.4 M1310.2 99.7 L1310.15 102.05 M1336.4 102.05 Q1335.95 115.7 1330.65 128.2 1325.75 139.8 1317.25 149.05 L1298.75 130.55 M1296.45 132.95 L1295.5 133.9 M1314.0 152.4 Q1304.25 161.85 1291.7 167.15 1279.8 172.15 1266.95 172.8 L1266.95 146.6 M1263.25 146.7 L1262.3 146.7 M1262.3 172.9 Q1247.9 172.75 1234.7 167.15 1223.15 162.25 1213.9 153.8 L1232.45 135.25 M1230.0 132.95 L1229.05 132.0 M1210.55 150.55 Q1201.05 140.75 1195.75 128.2 1190.45 115.7 1190.05 102.05 L1216.25 102.05 M1216.2 99.7 L1216.25 97.4 M1190.05 97.4 Q1190.45 83.75 1195.75 71.2 1201.05 58.65 1210.55 48.9 L1229.05 67.45 M1230.0 66.45 L1232.4 64.2 M1213.85 45.65 Q1223.1 37.15 1234.7 32.25 1247.9 26.65 1262.3 26.5 L1262.3 52.7 M1263.25 52.7 L1266.95 52.85 M1266.95 26.6 Q1279.8 27.25 1291.7 32.25 1304.25 37.55 1314.05 47.05 L1295.55 65.55 M1296.45 66.45 L1298.75 68.9 M1200.6 38.95 L1201.45 38.2 M1092.35 39.55 L1091.4 38.65 M1095.55 42.85 Q1105.5 53.6 1111.2 67.05 1117.35 81.6 1117.8 97.4 L1121.05 97.4 M1098.05 40.35 L1094.8 37.05 1094.65 37.25 M1062.5 32.25 Q1070.75 35.75 1077.8 41.05 M1084.85 47.05 L1066.3 65.55 M1067.25 66.45 L1069.55 68.9 M1088.05 50.35 Q1096.55 59.6 1101.45 71.2 1106.75 83.75 1107.2 97.4 L1080.95 97.4 M1081.0 99.7 L1080.95 102.05 M1107.2 102.05 Q1106.75 115.7 1101.45 128.2 1096.55 139.85 1088.05 149.1 L1069.5 130.55 M1067.25 132.95 L1066.3 133.9 M1084.8 152.4 Q1075.0 161.85 1062.5 167.15 1050.6 172.15 1037.75 172.8 L1037.75 146.6 M1034.0 146.7 L1033.1 146.7 M1033.1 172.9 Q1018.7 172.75 1005.5 167.15 993.9 162.25 984.65 153.8 L1003.2 135.25 M1000.75 132.95 L999.85 132.05 M981.3 150.55 Q971.8 140.75 966.5 128.2 961.2 115.7 960.8 102.05 L987.0 102.05 M986.95 99.7 L987.0 97.4 M960.8 97.4 Q961.1 86.4 964.65 76.1 M966.5 71.2 Q971.3 59.85 979.5 50.8 M981.3 48.9 L989.05 56.65 M1000.75 66.45 L1003.2 64.2 M984.65 45.65 L988.85 42.05 M1005.5 32.25 Q1018.7 26.65 1033.1 26.5 L1033.1 35.1 M1034.0 52.7 L1037.75 52.85 M1037.75 26.6 Q1048.85 27.15 1059.25 31.0 M1037.75 16.0 Q1052.75 16.65 1066.6 22.5 1072.3 24.9 1077.55 28.1 M1121.35 97.4 L1121.35 102.05 1121.05 102.05 M1098.05 159.1 L1094.8 162.4 1094.65 162.25 M1037.75 186.85 L1033.1 186.85 1033.1 186.8 M1033.1 12.55 L1037.75 12.55 1037.75 12.75 M973.8 41.4 L971.55 39.15 974.85 35.85 977.15 38.15 Q987.9 28.2 1001.35 22.5 1016.55 16.05 1033.1 15.9 L1033.1 12.65 M1033.1 183.5 Q1016.55 183.35 1001.35 176.9 987.9 171.2 977.2 161.3 L974.85 163.6 971.55 160.3 973.85 158.05 Q962.9 146.75 956.8 132.35 950.65 117.85 950.25 102.05 L947.05 102.05 947.05 97.4 950.25 97.4 Q950.55 85.85 953.9 75.0 M1092.3 159.9 Q1081.05 170.8 1066.6 176.9 1052.75 182.75 1037.75 183.45 L1037.75 186.75 M1117.8 102.05 Q1117.35 117.85 1111.2 132.35 1105.5 145.85 1095.55 156.6 L1097.85 158.9 M802.45 12.65 L802.45 12.55 807.1 12.55 M864.0 37.2 L864.15 37.05 867.45 40.35 M890.45 97.4 L890.75 97.4 890.75 102.05 M867.25 158.9 L867.45 159.1 864.15 162.4 M807.1 186.75 L807.1 186.85 802.45 186.85 M956.8 67.05 Q962.75 53.05 973.25 42.0 M864.95 42.85 Q872.1 50.55 877.05 59.7 879.0 63.25 880.6 67.05 M857.45 50.4 Q862.15 55.55 865.8 61.45 M870.8 71.2 L873.0 77.05 M876.55 97.4 L864.35 97.4 M876.55 102.05 Q876.1 115.7 870.8 128.2 865.9 139.8 857.4 149.05 L838.9 130.55 M836.6 132.95 L835.65 133.9 M854.15 152.4 Q844.4 161.85 831.85 167.15 819.95 172.15 807.1 172.8 L807.1 146.6 M803.4 146.7 L802.45 146.7 M802.45 172.9 Q788.05 172.75 774.85 167.15 763.3 162.25 754.05 153.8 L772.6 135.25 M770.15 132.95 L769.2 132.0 M750.7 150.55 Q741.2 140.75 735.9 128.2 732.75 120.8 731.35 113.0 M726.15 132.35 Q732.25 146.75 743.2 158.05 L740.9 160.3 744.2 163.6 746.55 161.3 Q757.25 171.2 770.75 176.9 785.9 183.35 802.45 183.5 L802.45 186.8 M836.6 66.45 L838.9 68.9 M883.55 75.2 Q886.85 85.95 887.2 97.4 M807.1 26.6 Q819.95 27.25 831.85 32.25 844.4 37.55 854.2 47.05 L835.7 65.55 M807.1 52.85 L803.4 52.7 M772.55 64.2 L770.15 66.45 M807.1 12.75 L807.1 16.0 Q822.1 16.65 836.0 22.5 850.45 28.6 861.7 39.5 M890.45 102.05 L887.2 102.05 Q886.75 117.85 880.6 132.35 874.9 145.85 864.95 156.6 M864.0 162.25 L861.7 159.95 Q850.4 170.8 836.0 176.9 822.1 182.75 807.1 183.45 M754.0 45.65 Q763.25 37.15 774.85 32.25 788.05 26.65 802.45 26.5 L802.45 52.7 M728.3 62.4 Q734.05 50.8 743.15 41.4 L740.9 39.15 744.2 35.85 746.5 38.15 Q757.25 28.2 770.75 22.5 785.9 16.05 802.45 15.9 M735.9 71.2 Q737.9 66.5 740.5 62.15 M750.65 48.9 L763.45 61.7 M634.35 42.9 Q644.25 53.6 649.95 67.05 L652.55 73.95 M656.2 107.55 Q655.9 105.4 655.9 103.1 655.9 99.85 656.5 96.85 657.05 94.1 658.15 91.55 M485.6 103.1 Q485.6 108.4 484.0 113.0 M685.65 86.55 Q692.35 86.55 697.1 91.2 L697.3 91.4 Q702.15 96.25 702.15 103.1 702.15 109.95 697.3 114.8 692.5 119.65 685.65 119.65 678.8 119.65 673.95 114.8 672.65 113.5 671.7 112.05 669.1 108.1 669.1 103.1 669.1 97.55 672.25 93.35 L673.95 91.4 674.15 91.2 Q678.95 86.55 685.65 86.55 M719.95 91.55 Q721.15 78.9 726.15 67.05 M715.4 103.1 Q715.4 108.4 713.8 113.0 M649.95 132.35 Q644.25 145.8 634.3 156.55 L636.65 158.9 636.85 159.1 633.55 162.4 M633.4 37.25 L633.55 37.05 636.85 40.35 M576.5 12.75 L576.5 16.0 Q591.5 16.65 605.4 22.5 619.8 28.6 631.1 39.55 M571.85 12.65 L571.85 12.55 576.5 12.55 M492.45 75.65 Q493.75 71.3 495.55 67.05 501.65 52.65 512.55 41.4 L510.3 39.15 513.6 35.85 515.9 38.15 Q526.65 28.2 540.1 22.5 555.3 16.05 571.85 15.9 M576.5 26.6 Q589.35 27.25 601.25 32.25 613.8 37.55 623.6 47.05 L605.05 65.55 M606.0 66.45 L608.3 68.9 M626.85 50.4 Q635.3 59.6 640.2 71.2 L641.35 74.1 M572.75 52.7 L576.5 52.85 M523.4 45.65 Q532.65 37.15 544.25 32.25 557.45 26.65 571.85 26.5 L571.85 52.7 M541.95 64.2 L539.5 66.45 M505.3 71.2 Q510.6 58.65 520.05 48.9 L538.6 67.45 M539.5 132.95 L541.95 135.25 M572.75 146.7 L576.5 146.6 M606.0 132.95 L608.3 130.55 M538.6 132.0 L520.1 150.55 Q510.6 140.75 505.3 128.2 M571.85 183.5 Q555.3 183.35 540.1 176.9 526.65 171.2 515.95 161.3 L513.6 163.6 510.3 160.3 512.6 158.05 Q501.65 146.75 495.55 132.35 491.55 122.95 490.0 113.0 M523.45 153.8 Q532.65 162.25 544.25 167.15 557.45 172.75 571.85 172.9 L571.85 146.7 M626.8 149.05 Q635.3 139.8 640.2 128.2 643.35 120.8 644.75 113.0 M576.5 186.85 L571.85 186.85 571.85 186.8 M631.05 159.9 Q619.8 170.8 605.4 176.9 591.5 182.75 576.5 183.45 L576.5 186.75 M576.5 172.8 Q589.35 172.15 601.25 167.15 613.8 161.85 623.55 152.4 L605.05 133.9 M402.95 37.05 L406.2 40.35 406.0 40.55 403.7 42.85 Q413.65 53.6 419.35 67.05 M426.1 103.1 L426.15 102.05 Q426.2 99.65 426.6 97.4 427.15 94.35 428.35 91.55 M444.15 91.4 L444.35 91.2 Q449.15 86.55 455.85 86.55 462.55 86.55 467.35 91.2 L467.55 91.4 Q472.4 96.25 472.4 103.1 472.4 109.95 467.55 114.8 462.7 119.65 455.85 119.65 449.0 119.65 444.15 114.8 442.35 113.0 441.2 110.9 439.3 107.4 439.3 103.1 439.3 98.3 441.7 94.5 442.7 92.85 444.15 91.4 M396.2 50.35 Q404.7 59.6 409.6 71.2 L411.6 76.45 M345.9 16.0 Q360.9 16.65 374.75 22.5 389.2 28.6 400.5 39.55 L402.8 37.25 M345.9 26.6 Q358.75 27.25 370.65 32.25 383.15 37.55 393.0 47.05 L374.45 65.55 M375.4 66.45 L377.7 68.9 M341.25 12.65 L341.25 12.55 345.9 12.55 M258.75 91.55 Q259.95 78.9 264.95 67.05 271.05 52.65 281.95 41.4 L279.7 39.15 283.0 35.85 285.3 38.15 Q296.05 28.2 309.5 22.5 324.7 16.05 341.25 15.9 M342.15 52.7 L345.9 52.85 M292.8 45.65 Q302.05 37.15 313.65 32.25 326.85 26.65 341.25 26.5 L341.25 52.7 M311.35 64.2 L308.9 66.45 M308.9 132.95 L311.35 135.25 M342.15 146.7 L345.9 146.6 M375.4 132.95 L377.65 130.55 396.2 149.1 Q404.7 139.85 409.6 128.2 M341.25 186.85 L345.9 186.85 345.9 186.75 M345.9 183.45 Q360.9 182.75 374.75 176.9 389.2 170.8 400.45 159.9 L402.8 162.25 M402.95 162.4 L406.2 159.1 406.0 158.9 M403.7 156.6 Q413.65 145.85 419.35 132.35 423.35 122.95 424.95 113.0 M264.95 132.35 Q271.05 146.75 282.0 158.05 L279.7 160.3 283.0 163.6 285.35 161.3 Q296.05 171.2 309.5 176.9 324.7 183.35 341.25 183.5 L341.25 186.8 M345.9 172.8 Q358.75 172.15 370.65 167.15 383.15 161.85 392.95 152.4 L374.45 133.9 M292.8 153.8 Q302.05 162.25 313.65 167.15 326.85 172.75 341.25 172.9 L341.25 146.7 M250.85 103.1 Q250.85 108.4 249.25 113.0 M274.65 71.2 Q279.95 58.65 289.45 48.9 L307.95 67.4 M160.45 37.05 L163.75 40.35 163.55 40.55 161.25 42.85 Q171.2 53.6 176.9 67.05 M153.75 50.4 Q162.2 59.6 167.1 71.2 171.25 81.05 172.45 91.55 M221.1 86.55 Q227.95 86.55 232.8 91.4 237.65 96.25 237.65 103.1 237.65 109.95 232.8 114.8 227.95 119.65 221.1 119.65 214.25 119.65 209.4 114.8 204.55 109.95 204.55 103.1 204.55 96.25 209.4 91.4 214.25 86.55 221.1 86.55 M191.35 103.1 Q191.35 96.85 193.6 91.55 M176.9 132.35 Q171.2 145.85 161.25 156.6 L163.55 158.9 M167.1 128.2 Q162.2 139.8 153.7 149.05 L135.2 130.55 M132.9 132.95 L131.95 133.9 M150.45 152.4 Q140.7 161.85 128.15 167.15 116.25 172.15 103.4 172.8 L103.4 146.6 M99.7 146.7 L98.75 146.7 M98.75 172.9 Q84.35 172.75 71.15 167.15 59.6 162.25 50.35 153.8 L68.9 135.25 M66.45 132.95 L65.5 132.0 M47.0 150.55 Q37.5 140.75 32.2 128.2 26.9 115.7 26.5 102.05 L52.7 102.05 M52.65 99.7 L52.7 97.4 M26.5 97.4 Q26.9 83.75 32.2 71.2 37.5 58.65 47.0 48.9 L65.5 67.45 M66.45 66.45 L68.85 64.2 M50.3 45.65 Q59.55 37.15 71.15 32.25 84.35 26.65 98.75 26.5 L98.75 52.7 M99.7 52.7 L103.4 52.85 M103.4 26.6 Q116.25 27.25 128.15 32.25 140.7 37.55 150.5 47.05 L132.0 65.55 M132.9 66.45 L135.2 68.9 M163.75 159.1 L160.45 162.4 160.3 162.25 M103.4 186.85 L98.75 186.85 98.75 186.8 M98.75 12.55 L103.4 12.55 103.4 12.75 103.4 16.0 Q118.4 16.65 132.3 22.5 146.75 28.6 158.0 39.5 M274.65 128.2 Q279.95 140.75 289.45 150.55 L308.0 132.05 M98.75 183.5 Q82.2 183.35 67.05 176.9 53.55 171.2 42.85 161.3 L40.5 163.6 37.2 160.3 39.5 158.05 Q28.55 146.75 22.45 132.35 16.3 117.85 15.9 102.05 L12.75 102.05 12.75 97.4 15.9 97.4 Q16.3 81.6 22.45 67.05 28.55 52.65 39.5 41.4 L37.25 39.15 40.5 35.85 42.8 38.15 Q53.55 28.2 67.05 22.5 82.2 16.05 98.75 15.9 L98.75 12.65 M158.0 159.95 Q146.7 170.8 132.3 176.9 118.4 182.75 103.4 183.45 L103.4 186.75" fill="none" stroke="#000000" stroke-linecap="butt" stroke-linejoin="miter-clip" stroke-miterlimit="10.0" stroke-opacity="0.6" stroke-width="1.0"/>
    <path d="M1572.9 66.55 Q1567.0 52.2 1556.3 40.6 M1430.85 38.15 L1430.75 38.25 M1458.5 19.5 Q1474.4 12.8 1491.5 12.65 M1526.3 19.5 Q1541.3 25.9 1553.05 37.25 M1458.5 179.95 Q1442.9 173.35 1430.85 161.3 1418.8 149.25 1412.2 133.6 1405.75 118.4 1405.4 102.05 M1526.3 179.95 Q1511.7 186.1 1496.15 186.75 M1572.85 133.05 Q1566.9 147.35 1556.3 158.9 M1412.2 65.8 Q1418.7 50.55 1429.75 39.15 M1343.45 65.6 Q1337.5 51.5 1327.1 40.35 M1297.1 19.3 Q1312.15 25.65 1323.85 37.0 M1343.65 132.85 Q1337.7 147.2 1327.1 158.7 M1297.1 179.75 Q1282.5 185.9 1266.95 186.55 M1229.35 19.3 Q1245.15 12.6 1262.3 12.45 M1183.0 65.6 Q1189.3 50.65 1200.65 39.0 M1201.65 161.1 Q1189.6 149.05 1183.0 133.4 1176.55 118.2 1176.2 101.85 M1229.35 179.75 Q1215.25 173.8 1204.25 163.6 M1114.2 65.8 Q1108.25 51.75 1097.85 40.55 M1067.85 19.5 Q1075.55 22.75 1082.4 27.35 M1114.2 133.6 Q1108.25 147.7 1097.85 158.9 M1067.85 179.95 Q1053.4 186.05 1037.75 186.75 M1000.1 179.95 Q984.45 173.35 972.4 161.3 960.35 149.25 953.75 133.6 946.9 117.4 946.9 99.7 946.9 86.15 950.95 73.45 M953.75 65.8 Q959.8 51.45 970.5 40.15 M972.4 38.15 Q984.45 26.1 1000.1 19.5 1015.9 12.8 1033.1 12.65 M716.7 91.55 Q717.9 78.25 723.15 65.8 M741.8 38.15 Q753.85 26.1 769.5 19.5 785.25 12.8 802.45 12.65 M837.25 19.5 Q852.3 25.85 864.0 37.2 M883.6 65.8 Q885.45 70.15 886.8 74.6 M883.6 133.6 Q877.65 147.7 867.25 158.9 M837.25 179.95 Q822.75 186.05 807.1 186.75 M769.5 179.95 Q753.85 173.35 741.8 161.3 729.75 149.25 723.15 133.6 718.9 123.6 717.3 113.0 M652.95 65.8 Q647.0 51.75 636.65 40.6 M652.95 133.6 Q656.7 124.7 658.45 115.35 M633.4 37.25 Q621.65 25.85 606.65 19.5 M571.85 12.65 Q554.65 12.8 538.85 19.5 523.25 26.1 511.2 38.15 499.15 50.2 492.55 65.8 M492.55 133.6 Q499.15 149.25 511.2 161.3 523.25 173.35 538.85 179.95 554.65 186.65 571.85 186.8 M606.65 179.95 Q621.65 173.6 633.4 162.25 M422.35 65.8 Q424.55 70.95 426.05 76.3 M376.0 19.5 Q361.55 13.4 345.9 12.75 M341.25 12.65 Q324.05 12.8 308.25 19.5 292.6 26.1 280.55 38.15 268.5 50.2 261.9 65.8 M308.25 179.95 Q292.6 173.35 280.55 161.3 268.5 149.25 261.9 133.6 257.65 123.6 256.05 113.0 M376.0 179.95 Q361.55 186.05 345.9 186.75 M422.35 133.6 Q416.4 147.7 406.0 158.9 M179.9 65.8 Q185.15 78.25 186.4 91.55 M179.9 133.6 Q184.15 123.6 185.75 113.0 M133.55 179.95 Q119.05 186.05 103.4 186.75 M65.8 179.95 Q50.15 173.35 38.1 161.3 26.05 149.25 19.45 133.6 12.6 117.4 12.6 99.7 12.6 82.0 19.45 65.8 26.05 50.2 38.1 38.15 50.15 26.1 65.8 19.5 81.55 12.8 98.75 12.65 M133.55 19.5 Q148.6 25.85 160.3 37.2" fill="none" stroke="#000000" stroke-linecap="butt" stroke-linejoin="miter-clip" stroke-miterlimit="4.0" stroke-opacity="0.6" stroke-width="1.0"/>
    <path d="M1562.95 29.2 Q1549.15 15.4 1531.25 7.85 1512.75 0.0 1492.45 0.0 1472.2 0.0 1453.65 7.85 1435.8 15.4 1422.0 29.2 1408.2 43.0 1400.65 60.9 1392.8 79.4 1392.8 99.7 1392.8 120.0 1400.65 138.5 1408.2 156.4 1422.0 170.2 1435.75 184.0 1453.65 191.55 1472.15 199.4 1492.45 199.4 1512.75 199.4 1531.25 191.55 1549.15 184.0 1562.95 170.2 1576.75 156.4 1584.3 138.5 1592.15 120.0 1592.15 99.7 1592.15 79.4 1584.3 60.9 1576.75 43.0 1562.95 29.2 M1492.5 65.95 Q1506.45 65.95 1516.35 75.85 1526.25 85.7 1526.25 99.7 1526.25 113.7 1516.35 123.55 1506.45 133.45 1492.5 133.45 1478.5 133.45 1468.6 123.55 1458.7 113.7 1458.7 99.7 1458.7 85.7 1468.6 75.85 1478.5 65.95 1492.5 65.95 M1302.0 7.85 Q1283.5 0.0 1263.2 0.0 1242.95 0.0 1224.4 7.85 1206.55 15.4 1192.75 29.2 1178.95 43.0 1171.4 60.9 1163.55 79.4 1163.55 99.7 1163.55 120.0 1171.4 138.5 1178.95 156.4 1192.75 170.2 1206.5 184.0 1224.4 191.55 1242.9 199.4 1263.2 199.4 1283.5 199.4 1302.0 191.55 1319.9 184.0 1333.7 170.2 1347.5 156.4 1355.05 138.5 1362.9 120.0 1362.9 99.7 1362.9 79.4 1355.05 60.9 1347.5 43.0 1333.7 29.2 1319.9 15.4 1302.0 7.85 M1296.95 102.05 Q1296.25 112.9 1289.35 121.15 L1287.1 123.55 1286.15 124.5 Q1277.9 132.2 1266.95 133.3 L1263.25 133.45 1262.3 133.45 Q1248.9 133.1 1239.35 123.55 1230.3 114.55 1229.55 102.05 L1229.45 99.7 1229.55 97.4 Q1230.25 85.55 1238.45 76.8 L1239.35 75.85 1241.8 73.6 Q1250.6 66.25 1262.3 65.95 L1263.25 65.95 1266.95 66.15 Q1278.55 67.3 1287.1 75.85 1296.2 84.9 1296.95 97.4 L1297.0 99.7 1296.95 102.05 M1067.7 97.4 L1067.75 99.7 1067.7 102.05 Q1066.9 114.55 1057.85 123.55 1049.35 132.1 1037.75 133.3 L1034.0 133.45 1033.1 133.45 Q1019.7 133.15 1010.1 123.55 1001.05 114.55 1000.3 102.05 L1000.2 99.7 1000.3 97.4 Q1001.0 84.9 1010.1 75.85 1019.7 66.25 1033.1 65.95 L1034.0 65.95 1037.75 66.15 Q1049.35 67.3 1057.85 75.85 1066.95 84.9 1067.7 97.4 M934.3 99.7 Q934.3 120.0 942.15 138.5 949.7 156.4 963.5 170.2 977.3 184.0 995.2 191.55 1013.7 199.4 1034.0 199.4 1054.3 199.4 1072.8 191.55 1090.7 184.0 1104.45 170.2 1118.25 156.4 1125.8 138.5 1133.65 120.0 1133.65 99.7 1133.65 79.4 1125.8 60.9 1118.25 43.0 1104.45 29.2 1090.7 15.4 1072.8 7.85 1054.3 0.0 1034.0 0.0 1013.75 0.0 995.2 7.85 977.3 15.4 963.5 29.2 958.95 33.75 955.1 38.75 M942.15 60.9 L940.45 65.2 M895.2 60.9 L893.5 57.1 Q886.15 41.5 873.85 29.2 860.05 15.4 842.15 7.85 823.65 0.0 803.35 0.0 783.1 0.0 764.55 7.85 746.7 15.4 732.9 29.2 719.1 43.0 711.55 60.9 M706.7 124.15 Q708.55 131.45 711.55 138.5 719.1 156.4 732.9 170.2 746.65 184.0 764.55 191.55 783.05 199.4 803.35 199.4 823.65 199.4 842.15 191.55 860.05 184.0 873.85 170.2 887.65 156.4 895.2 138.5 903.05 120.0 903.05 99.7 M778.6 76.85 L779.5 75.85 781.95 73.6 Q789.35 67.4 798.9 66.25 L802.45 65.95 803.4 65.95 807.1 66.15 Q812.75 66.7 817.7 69.05 822.3 71.2 826.3 74.95 L827.25 75.85 829.5 78.3 Q831.8 81.0 833.4 84.0 835.3 87.55 836.25 91.55 M829.5 121.15 L827.25 123.55 826.25 124.5 Q818.0 132.2 807.1 133.3 L803.4 133.45 802.45 133.45 Q790.75 133.15 782.0 125.85 L779.5 123.55 778.6 122.6 Q774.45 118.2 772.25 113.0 M480.9 60.9 Q488.45 43.0 502.25 29.2 516.05 15.4 533.95 7.85 552.5 0.0 572.75 0.0 593.05 0.0 611.55 7.85 629.45 15.4 643.25 29.2 657.05 43.0 664.6 60.9 667.3 67.25 669.05 73.8 M664.6 138.5 Q657.05 156.4 643.25 170.2 629.45 184.0 611.55 191.55 593.05 199.4 572.75 199.4 552.45 199.4 533.95 191.55 516.05 184.0 502.25 170.2 488.45 156.4 480.9 138.5 478.05 131.75 476.25 124.8 M433.95 138.5 Q426.4 156.4 412.6 170.2 398.85 184.0 380.95 191.55 362.45 199.4 342.15 199.4 321.85 199.4 303.35 191.55 285.45 184.0 271.65 170.2 257.85 156.4 250.3 138.5 246.7 130.05 244.8 121.2 M191.5 138.5 Q183.95 156.4 170.15 170.2 156.35 184.0 138.45 191.55 119.95 199.4 99.65 199.4 79.35 199.4 60.85 191.55 42.95 184.0 29.2 170.2 15.4 156.4 7.85 138.5 0.0 120.0 0.0 99.7 0.0 79.4 7.85 60.9 15.4 43.0 29.2 29.2 43.0 15.4 60.85 7.85 79.4 0.0 99.65 0.0 119.95 0.0 138.45 7.85 156.35 15.4 170.15 29.2 183.95 43.0 191.5 60.9 196.3 72.15 198.15 84.15 M250.3 60.9 Q257.85 43.0 271.65 29.2 285.45 15.4 303.35 7.85 321.9 0.0 342.15 0.0 362.45 0.0 380.95 7.85 398.85 15.4 412.6 29.2 426.4 43.0 433.95 60.9 437.1 68.4 439.0 76.15 M548.85 75.85 Q558.75 65.95 572.75 65.95 586.75 65.95 596.6 75.85 603.5 82.7 605.6 91.55 M596.6 123.55 Q586.75 133.45 572.75 133.45 558.75 133.45 548.85 123.55 544.05 118.75 541.6 113.0 M318.25 75.85 Q324.75 69.35 333.0 67.15 337.3 65.95 342.15 65.95 L349.65 66.75 Q357.9 68.5 364.45 74.4 L366.0 75.85 367.0 76.9 Q372.9 83.2 374.9 91.2 L375.0 91.55 M366.0 123.55 Q356.15 133.45 342.15 133.45 328.15 133.45 318.25 123.55 315.5 120.85 313.55 117.8 312.05 115.5 311.0 113.0 M123.55 75.85 Q113.65 65.95 99.7 65.95 85.7 65.95 75.8 75.85 65.9 85.7 65.9 99.7 65.9 113.7 75.8 123.55 85.7 133.45 99.7 133.45 113.65 133.45 123.55 123.55 128.35 118.75 130.85 113.0" fill="none" stroke="#000000" stroke-linecap="butt" stroke-linejoin="miter-clip" stroke-miterlimit="4.0" stroke-width="1.0"/>
    <path d="M1082.4 27.35 L1077.55 28.1 M1091.4 38.65 L1093.6 38.3 M1059.25 31.0 L1037.75 34.35 M989.05 56.65 L980.5 58.15 Q980.1 65.45 974.85 70.7 970.45 75.1 964.65 76.1 M979.5 50.8 Q980.5 53.7 980.5 57.05 L980.5 58.15 M1033.1 48.9 L994.65 55.65 M988.85 42.05 L1033.1 35.1 M953.9 75.0 Q952.35 74.35 950.95 73.45 M1037.75 48.1 L1077.8 41.05 M893.5 57.1 L943.5 49.2 Q944.9 46.05 947.55 43.45 950.9 40.1 955.1 38.75 M942.25 60.75 Q941.9 58.95 941.9 57.05 941.9 52.8 943.5 49.2 M973.25 42.0 L970.5 40.15 M899.3 72.4 L940.45 65.2 M877.05 59.7 L880.45 59.15 M846.9 81.6 L873.0 77.05 M883.55 75.2 L886.8 74.6 M865.8 61.45 L842.7 65.1 M763.45 61.7 L740.5 62.15 M775.95 61.45 L769.95 61.6 M680.95 73.7 L669.05 73.8 M689.65 73.6 L703.2 73.45 704.95 62.85 710.8 62.75 M652.55 73.95 L655.95 73.95 M728.3 62.4 L724.65 62.45 M439.0 76.15 L443.1 76.1 M468.05 75.85 L475.95 75.8 M489.05 75.65 L492.45 75.65 M619.05 91.2 L645.5 91.2 M641.35 74.1 L612.5 74.4 M489.4 91.2 L486.1 91.2 M526.45 91.2 L500.05 91.2 M532.55 75.2 L503.65 75.5 M414.9 91.2 L388.45 91.2 M428.5 91.2 L425.55 91.2 M422.65 76.3 L426.05 76.3 M411.6 76.45 L383.3 76.7 M291.75 91.55 L291.75 68.15 307.65 67.75" fill="none" stroke="#000000" stroke-linecap="round" stroke-linejoin="round" stroke-opacity="0.6" stroke-width="1.0"/>
    <path d="M706.7 82.05 Q711.0 86.35 713.2 91.55 M856.65 91.55 Q860.2 91.55 862.75 94.7 863.75 95.95 864.35 97.4 M865.25 102.3 Q865.25 106.75 862.75 109.85 860.2 113.0 856.65 113.0 L848.55 113.0 M685.65 73.35 L689.65 73.6 M664.6 82.05 Q667.15 79.5 670.05 77.7 M685.65 132.85 Q675.95 132.85 668.55 127.5 M455.85 132.85 Q445.7 132.85 438.05 127.0 M242.15 124.15 Q233.45 132.85 221.1 132.85 208.75 132.85 200.05 124.15 198.45 122.55 197.15 120.8 M200.05 82.05 Q208.75 73.35 221.1 73.35 233.45 73.35 242.15 82.05 L243.75 83.75 M455.85 73.35 Q462.5 73.35 468.05 75.85 M658.45 115.35 Q660.55 120.1 664.6 124.15 M434.8 82.05 Q437.0 79.85 439.5 78.2 M476.9 82.05 Q481.2 86.35 483.4 91.55 M476.9 124.15 L476.25 124.8 M434.8 124.15 Q430.2 119.55 428.05 113.95 M94.15 113.0 Q90.6 113.0 88.05 109.85 85.55 106.75 85.55 102.3 85.55 97.85 88.05 94.7 90.6 91.55 94.15 91.55 L132.55 91.55" fill="none" stroke="#000000" stroke-linecap="butt" stroke-linejoin="miter-clip" stroke-miterlimit="10.0" stroke-width="1.0"/>
    <path d="M658.3 91.2 L656.15 91.2" fill="none" stroke="#000000" stroke-linecap="round" stroke-linejoin="round" stroke-width="1.0"/>
    <path d="M1556.3 40.6 L1554.0 42.9 M1556.3 40.6 L1556.7 40.15 M1553.05 37.25 L1550.75 39.55 M1496.15 12.75 L1496.15 12.55 M1491.5 12.65 L1491.5 15.9 M1429.75 39.15 L1432.2 41.4 M1405.4 102.05 L1408.65 102.05 M1491.5 186.8 L1491.5 186.85 M1496.15 186.75 L1496.15 183.45 M1553.05 162.25 L1553.4 162.6 M1556.3 158.9 L1553.95 156.55 M1579.45 102.05 L1579.8 102.05 M1539.4 97.4 L1539.45 99.7 M1539.4 102.05 L1565.65 102.05 M1528.0 130.55 L1525.7 132.95 M1524.75 133.9 L1543.25 152.4 M1496.2 146.6 L1492.5 146.7 M1491.55 146.7 L1491.55 172.9 M1461.7 135.25 L1459.25 132.95 M1458.3 132.0 L1439.8 150.55 M1445.5 102.05 L1445.45 99.7 M1445.5 97.4 L1419.3 97.4 M1458.3 67.45 L1459.25 66.45 M1461.65 64.2 L1443.1 45.65 M1491.55 52.7 L1492.5 52.7 M1496.2 52.85 L1496.2 26.6 M1524.8 65.55 L1525.7 66.45 M1528.0 68.9 L1546.55 50.4 M1405.4 102.05 L1405.35 102.05 M1432.65 36.4 L1433.2 35.85 M1405.35 98.55 L1405.35 97.4 M1327.1 40.35 L1324.8 42.65 M1327.1 40.35 L1327.5 39.95 M1323.85 37.0 L1321.55 39.3 M1266.95 12.55 L1266.95 12.35 M1262.3 12.45 L1262.3 15.7 M1200.65 39.0 L1203.05 41.2 M1176.2 97.2 L1175.9 97.2 M1176.2 101.85 L1179.45 101.85 M1204.25 163.6 L1206.4 161.1 M1262.3 186.6 L1262.3 186.65 M1266.95 186.55 L1266.95 183.25 M1323.85 162.05 L1324.2 162.4 M1327.1 158.7 L1324.8 156.4 M1350.3 101.85 L1350.6 101.85 M1310.15 97.4 L1310.2 99.7 M1310.15 102.05 L1336.4 102.05 M1298.75 130.55 L1296.45 132.95 M1295.5 133.9 L1314.0 152.4 M1266.95 146.6 L1263.25 146.7 M1262.3 146.7 L1262.3 172.9 M1232.45 135.25 L1230.0 132.95 M1229.05 132.0 L1210.55 150.55 M1216.25 102.05 L1216.2 99.7 M1216.25 97.4 L1190.05 97.4 M1229.05 67.45 L1230.0 66.45 M1232.4 64.2 L1213.85 45.65 M1262.3 52.7 L1263.25 52.7 M1266.95 52.85 L1266.95 26.6 M1295.55 65.55 L1296.45 66.45 M1298.75 68.9 L1317.3 50.4 M1202.75 36.9 L1203.85 35.75 M1200.65 39.0 L1200.6 38.95 M1093.6 38.3 L1094.65 37.25 M1077.55 28.1 Q1085.0 32.6 1091.4 38.65 M1093.6 38.3 L1092.35 39.55 M1097.85 40.55 L1095.55 42.85 M1097.85 40.55 L1098.05 40.35 M1059.25 31.0 Q1060.9 31.55 1062.5 32.25 M1077.8 41.05 Q1081.45 43.8 1084.85 47.05 M1066.3 65.55 L1067.25 66.45 M1069.55 68.9 L1088.05 50.35 M1080.95 97.4 L1081.0 99.7 M1080.95 102.05 L1107.2 102.05 M1069.5 130.55 L1067.25 132.95 M1066.3 133.9 L1084.8 152.4 M1037.75 146.6 L1034.0 146.7 M1033.1 146.7 L1033.1 172.9 M1003.2 135.25 L1000.75 132.95 M999.85 132.05 L981.3 150.55 M987.0 102.05 L986.95 99.7 M987.0 97.4 L960.8 97.4 M964.65 76.1 L966.5 71.2 M979.5 50.8 L981.3 48.9 M989.05 56.65 L999.8 67.4 1000.75 66.45 M1003.2 64.2 L994.65 55.65 984.65 45.65 M988.85 42.05 Q996.45 36.05 1005.5 32.25 M1033.1 35.1 L1033.1 48.9 1033.1 52.7 1034.0 52.7 M1037.75 52.85 L1037.75 48.1 1037.75 34.35 1037.75 26.6 M1121.05 97.4 L1121.35 97.4 M1097.85 158.9 L1098.05 159.1 M1037.75 186.75 L1037.75 186.85 M1033.1 12.65 L1033.1 12.55 M1037.75 12.75 L1037.75 16.0 M973.25 42.0 L973.8 41.4 M1033.1 186.8 L1033.1 183.5 M1121.05 102.05 L1117.8 102.05 M1094.65 162.25 L1092.3 159.9 M807.1 12.55 L807.1 12.75 M867.45 40.35 L867.25 40.55 864.95 42.85 M890.75 102.05 L890.45 102.05 M864.15 162.4 L864.0 162.25 M802.45 186.85 L802.45 186.8 M953.9 75.0 Q955.15 70.95 956.8 67.05 M861.7 39.5 L864.0 37.2 M838.9 68.9 L842.7 65.1 857.45 50.4 M865.8 61.45 Q868.65 66.1 870.8 71.2 M873.0 77.05 Q876.2 86.9 876.55 97.4 M865.25 102.05 L876.55 102.05 M838.9 130.55 L836.6 132.95 M835.65 133.9 L854.15 152.4 M807.1 146.6 L803.4 146.7 M802.45 146.7 L802.45 172.9 M772.6 135.25 L770.15 132.95 M769.2 132.0 L750.7 150.55 M720.6 113.0 Q722.15 122.95 726.15 132.35 M835.7 65.55 L836.6 66.45 M880.6 67.05 Q882.3 71.05 883.55 75.2 M887.2 97.4 L890.45 97.4 M803.4 52.7 L802.45 52.7 M770.15 66.45 L769.2 67.45 763.45 61.7 M864.95 156.6 L867.25 158.9 M807.1 183.45 L807.1 186.75 M802.45 15.9 L802.45 12.65 M740.5 62.15 Q744.75 55.0 750.65 48.9 M730.6 91.55 Q731.75 81.05 735.9 71.2 M769.95 61.6 L772.55 64.2 M807.1 52.85 L807.1 26.6 M769.95 61.6 L754.0 45.65 M636.65 40.6 L634.35 42.9 M658.15 91.55 L656.15 91.55 656.15 91.2 Q655.25 82.4 652.55 73.95 M483.4 91.55 Q485.6 96.85 485.6 103.1 M657.5 113.0 Q656.6 110.4 656.2 107.55 M658.15 91.55 L658.3 91.2 M726.15 67.05 L728.3 62.4 M655.55 113.0 Q653.95 122.95 649.95 132.35 M713.2 91.55 Q715.4 96.85 715.4 103.1 M636.85 40.35 L636.65 40.6 M631.1 39.55 L633.4 37.25 M576.5 12.55 L576.5 12.75 M571.85 15.9 L571.85 12.65 M605.05 65.55 L606.0 66.45 M608.3 68.9 L626.85 50.4 M641.35 74.1 Q644.45 82.4 645.5 91.2 L645.55 91.55 M576.5 52.85 L576.5 26.6 M571.85 52.7 L572.75 52.7 M539.5 66.45 L538.6 67.45 M489.35 91.55 L489.4 91.2 Q490.15 83.25 492.45 75.65 M500.0 91.55 L500.05 91.2 Q500.95 83.15 503.65 75.5 L505.3 71.2 M541.95 64.2 L523.4 45.65 M571.85 146.7 L572.75 146.7 M605.05 133.9 L606.0 132.95 M538.6 132.0 L539.5 132.95 M505.3 128.2 Q502.15 120.8 500.75 113.0 M571.85 186.8 L571.85 183.5 M541.95 135.25 L523.45 153.8 M576.5 186.75 L576.5 186.85 M633.4 162.25 L631.05 159.9 M633.55 162.4 L633.4 162.25 M608.3 130.55 L626.8 149.05 M576.5 146.6 L576.5 172.8 M414.9 91.2 L414.95 91.55 M425.55 91.55 L425.55 91.2 Q424.8 83.6 422.65 76.3 421.3 71.6 419.35 67.05 M411.6 76.45 Q414.0 83.65 414.9 91.2 M428.35 91.55 L428.5 91.2 M402.8 37.25 L402.95 37.05 M345.9 12.75 L345.9 16.0 M374.45 65.55 L375.4 66.45 M377.7 68.9 L396.2 50.35 M345.9 12.55 L345.9 12.75 M341.25 15.9 L341.25 12.65 M341.25 52.7 L342.15 52.7 M345.9 52.85 L345.9 26.6 M308.9 66.45 L307.95 67.4 M308.0 132.05 L308.9 132.95 M341.25 146.7 L342.15 146.7 M374.45 133.9 L375.4 132.95 M341.25 186.8 L341.25 186.85 M345.9 186.75 L345.9 183.45 M402.8 162.25 L402.95 162.4 M406.0 158.9 L403.7 156.6 M414.15 113.0 Q412.75 120.8 409.6 128.2 M345.9 146.6 L345.9 172.8 M427.7 113.0 Q426.1 108.4 426.1 103.1 M248.65 91.55 Q250.85 96.85 250.85 103.1 M269.35 91.55 Q270.5 81.05 274.65 71.2 M311.35 64.2 L292.8 45.65 M183.15 91.55 Q181.9 78.9 176.9 67.05 M192.95 113.0 Q191.35 108.4 191.35 103.1 M182.5 113.0 Q180.9 122.95 176.9 132.35 M171.65 113.0 Q170.25 120.8 167.1 128.2 M135.2 130.55 L132.9 132.95 M131.95 133.9 L150.45 152.4 M103.4 146.6 L99.7 146.7 M98.75 146.7 L98.75 172.9 M68.9 135.25 L66.45 132.95 M65.5 132.0 L47.0 150.55 M52.7 102.05 L52.65 99.7 M52.7 97.4 L26.5 97.4 M65.5 67.45 L66.45 66.45 M68.85 64.2 L50.3 45.65 M98.75 52.7 L99.7 52.7 M103.4 52.85 L103.4 26.6 M132.0 65.55 L132.9 66.45 M135.2 68.9 L153.75 50.4 M163.55 158.9 L163.75 159.1 M103.4 186.75 L103.4 186.85 M98.75 12.65 L98.75 12.55 M160.3 37.2 L160.45 37.05 M259.4 113.0 Q260.95 122.95 264.95 132.35 M270.1 113.0 Q271.5 120.8 274.65 128.2 M311.35 135.25 L292.8 153.8 M158.0 39.5 L160.3 37.2 M98.75 186.8 L98.75 183.5 M160.3 162.25 L158.0 159.95" fill="none" stroke="#000000" stroke-linecap="round" stroke-linejoin="miter-clip" stroke-miterlimit="10.0" stroke-opacity="0.6" stroke-width="1.0"/>
    <path d="M1579.45 97.4 Q1579.05 81.3 1572.9 66.55 M1433.25 35.9 L1432.65 36.4 M1405.4 97.4 L1405.35 98.55 M1405.35 100.9 L1405.4 102.05 M1461.65 64.2 Q1474.3 53.0 1491.55 52.7 M1496.2 52.85 Q1512.65 54.0 1524.8 65.55 M1496.15 12.75 Q1511.85 13.45 1526.3 19.5 M1491.55 146.7 Q1474.35 146.4 1461.7 135.25 M1491.5 186.8 Q1474.4 186.65 1458.5 179.95 M1524.75 133.9 Q1512.6 145.4 1496.2 146.6 M1579.45 102.05 Q1578.95 118.2 1572.85 133.05 M1539.4 102.05 Q1538.7 118.35 1528.0 130.55 M1528.0 68.9 Q1538.7 81.1 1539.4 97.4 M1553.05 162.25 Q1541.25 173.6 1526.3 179.95 M1433.25 35.9 Q1444.4 25.45 1458.5 19.5 M1405.4 97.4 Q1405.75 81.05 1412.2 65.8 M1350.3 97.2 Q1349.85 80.8 1343.45 65.6 M1203.9 35.8 L1202.75 36.9 M1201.45 38.2 L1200.65 39.0 M1298.75 68.9 Q1309.45 81.1 1310.15 97.4 M1350.3 101.85 Q1349.8 118.0 1343.65 132.85 M1310.15 102.05 Q1309.45 118.35 1298.75 130.55 M1323.85 162.05 Q1312.15 173.4 1297.1 179.75 M1458.3 132.0 Q1446.25 119.35 1445.5 102.05 M1445.5 97.4 Q1446.25 80.1 1458.3 67.45 M1216.25 97.4 Q1217.0 80.1 1229.05 67.45 M1266.95 52.85 Q1283.4 54.0 1295.55 65.55 M1232.4 64.2 Q1245.05 53.0 1262.3 52.7 M1203.9 35.8 Q1215.15 25.3 1229.35 19.3 M1176.2 97.2 Q1176.55 80.85 1183.0 65.6 M1204.25 163.6 L1201.65 161.1 M1295.5 133.9 Q1283.4 145.4 1266.95 146.6 M1229.05 132.0 Q1217.0 119.35 1216.25 102.05 M1262.3 146.7 Q1245.1 146.4 1232.45 135.25 M1262.3 186.6 Q1245.15 186.45 1229.35 179.75 M1094.65 37.25 Q1088.9 31.65 1082.4 27.35 M1121.05 97.4 Q1120.6 80.95 1114.2 65.8 M1069.55 68.9 Q1080.25 81.1 1080.95 97.4 M1121.05 102.05 Q1120.6 118.5 1114.2 133.6 M1094.65 162.25 Q1082.9 173.6 1067.85 179.95 M1033.1 186.8 Q1015.9 186.65 1000.1 179.95 M970.5 40.15 L972.4 38.15 M1037.75 12.75 Q1053.4 13.4 1067.85 19.5 M987.0 97.4 Q987.75 80.1 999.8 67.4 M1003.2 64.2 Q1015.85 53.0 1033.1 52.7 M999.85 132.05 Q987.75 119.35 987.0 102.05 M1033.1 146.7 Q1015.9 146.4 1003.2 135.25 M1080.95 102.05 Q1080.25 118.35 1069.5 130.55 M1037.75 52.85 Q1054.15 54.0 1066.3 65.55 M1066.3 133.9 Q1054.15 145.4 1037.75 146.6 M723.15 65.8 L724.65 62.45 Q731.05 48.9 741.8 38.15 M807.1 12.75 Q822.75 13.4 837.25 19.5 M867.25 40.55 Q875.1 49.0 880.45 59.15 M890.45 102.05 Q890.0 118.5 883.6 133.6 M864.0 162.25 Q852.3 173.6 837.25 179.95 M802.45 186.8 Q785.25 186.65 769.5 179.95 M838.9 68.9 Q844.05 74.8 846.9 81.6 848.85 86.35 849.7 91.55 M835.7 65.55 Q823.55 54.0 807.1 52.85 M802.45 52.7 Q787.5 52.95 775.95 61.45 L772.55 64.2 M769.2 67.45 Q759.25 77.9 757.0 91.55 M848.55 113.0 Q845.8 122.65 838.9 130.55 M758.15 113.0 Q761.15 123.5 769.2 132.0 M655.95 73.95 Q654.65 69.8 652.95 65.8 M659.2 89.3 Q658.25 81.45 655.95 73.95 M636.65 158.9 Q647.0 147.7 652.95 133.6 M802.45 146.7 Q785.25 146.4 772.6 135.25 M835.65 133.9 Q823.5 145.4 807.1 146.6 M606.65 19.5 Q592.15 13.4 576.5 12.75 M492.55 65.8 Q490.5 70.65 489.05 75.65 486.85 83.25 486.1 91.2 L486.1 91.55 M576.5 52.85 Q592.9 54.0 605.05 65.55 M619.05 91.2 Q617.5 82.1 612.5 74.4 610.6 71.55 608.3 68.9 M619.1 91.55 L619.05 91.2 M571.85 52.7 Q554.65 53.0 541.95 64.2 M538.6 67.45 Q535.05 71.1 532.55 75.2 527.95 82.55 526.45 91.2 L526.4 91.55 M541.95 135.25 Q554.65 146.4 571.85 146.7 M576.5 146.6 Q592.9 145.4 605.05 133.9 M608.3 130.55 Q615.2 122.65 617.95 113.0 M527.55 113.0 Q530.55 123.55 538.6 132.0 M486.7 113.0 Q488.3 123.6 492.55 133.6 M576.5 186.75 Q592.15 186.05 606.65 179.95 M406.0 40.55 Q416.4 51.75 422.35 65.8 M426.05 76.3 Q428.0 83.3 428.75 90.6 M388.45 91.2 L388.5 91.55 M383.3 76.7 Q387.1 83.45 388.45 91.2 M402.8 37.25 Q391.05 25.85 376.0 19.5 M261.9 65.8 Q256.65 78.25 255.45 91.55 M383.3 76.7 Q380.95 72.6 377.7 68.9 M345.9 52.85 Q362.3 54.0 374.45 65.55 M341.25 52.7 Q324.0 53.0 311.35 64.2 M307.95 67.4 L307.65 67.75 Q297.95 78.1 295.75 91.55 M296.9 113.0 Q299.9 123.55 308.0 132.05 M311.35 135.25 Q324.0 146.4 341.25 146.7 M345.9 146.6 Q362.3 145.4 374.45 133.9 M377.65 130.55 Q384.6 122.65 387.35 113.0 M341.25 186.8 Q324.05 186.65 308.25 179.95 M402.8 162.25 Q391.05 173.6 376.0 179.95 M428.05 113.95 Q426.4 124.05 422.35 133.6 M163.55 40.55 Q173.95 51.75 179.9 65.8 M163.55 158.9 Q173.95 147.7 179.9 133.6 M144.85 113.0 Q142.1 122.65 135.2 130.55 M160.3 162.25 Q148.6 173.6 133.55 179.95 M98.75 186.8 Q81.55 186.65 65.8 179.95 M103.4 12.75 Q119.05 13.4 133.55 19.5 M146.0 91.55 Q143.95 78.85 135.2 68.9 M103.4 52.85 Q119.85 54.0 132.0 65.55 M52.7 97.4 Q53.45 80.1 65.5 67.45 M65.5 132.0 Q53.45 119.35 52.7 102.05 M131.95 133.9 Q119.85 145.4 103.4 146.6 M68.85 64.2 Q81.5 53.0 98.75 52.7 M98.75 146.7 Q81.55 146.4 68.9 135.25 M1266.95 12.55 Q1282.65 13.25 1297.1 19.3" fill="none" stroke="#000000" stroke-linecap="round" stroke-linejoin="miter-clip" stroke-miterlimit="4.0" stroke-opacity="0.6" stroke-width="1.0"/>
    <path d="M1432.65 36.4 L1430.85 38.15" fill="none" stroke="#000000" stroke-linecap="round" stroke-linejoin="miter-clip" stroke-miterlimit="4.0" stroke-opacity="0.6" stroke-width="1.0"/>
    <path d="M1430.75 38.25 L1429.75 39.15" fill="none" stroke="#000000" stroke-linecap="butt" stroke-linejoin="miter-clip" stroke-miterlimit="10.0" stroke-opacity="0.6" stroke-width="1.0"/>
    <path d="M1405.35 98.55 L1405.35 99.7 M1202.75 36.9 L1202.2 37.4" fill="none" stroke="#000000" stroke-linecap="round" stroke-linejoin="miter-clip" stroke-miterlimit="10.0" stroke-opacity="0.6" stroke-width="1.0"/>
    <path d="M1405.35 99.7 L1405.35 100.9 M1201.95 37.7 L1201.45 38.2 M950.95 73.45 Q952.15 69.6 953.75 65.8 M880.45 59.15 L883.6 65.8 M886.8 74.6 Q890.1 85.65 890.45 97.4" fill="none" stroke="#000000" stroke-linecap="butt" stroke-linejoin="miter-clip" stroke-miterlimit="4.0" stroke-opacity="0.6" stroke-width="1.0"/>
    <path d="M955.1 38.75 Q947.25 48.8 942.25 60.75 L942.15 60.9 M940.45 65.2 Q934.3 81.75 934.3 99.7 M711.55 60.9 L710.8 62.75 Q707.25 71.6 705.45 80.9 M903.05 99.7 Q903.05 85.6 899.3 72.4 897.6 66.55 895.2 60.9 M770.55 91.55 Q772.5 83.3 778.6 76.85 M834.55 113.0 Q832.65 117.35 829.5 121.15 M669.05 73.8 L670.05 77.7 M668.55 127.5 Q666.9 133.1 664.6 138.5 M438.05 127.0 Q436.35 132.85 433.95 138.5 M197.15 120.8 Q195.15 129.85 191.5 138.5 M243.75 83.75 Q245.6 72.0 250.3 60.9 M475.95 75.8 Q477.8 68.2 480.9 60.9 M539.9 91.55 Q541.95 82.7 548.85 75.85 M603.9 113.0 Q601.4 118.75 596.6 123.55 M439.5 78.2 L439.0 76.15 M474.95 80.25 L475.95 75.8 M309.3 91.55 Q311.35 82.7 318.25 75.85 M373.3 113.0 Q370.8 118.75 366.0 123.55 M132.55 91.55 Q130.45 82.7 123.55 75.85" fill="none" stroke="#000000" stroke-linecap="round" stroke-linejoin="miter-clip" stroke-miterlimit="4.0" stroke-width="1.0"/>
    <path d="M705.45 80.9 L706.7 82.05 M713.2 91.55 L716.7 91.55 719.95 91.55 730.6 91.55 757.0 91.55 770.55 91.55 836.25 91.55 849.7 91.55 856.65 91.55 M717.3 113.0 L713.8 113.0 Q711.7 119.15 706.7 124.15 697.95 132.85 685.65 132.85 M864.35 97.4 Q865.2 99.5 865.25 102.05 L865.25 102.3 M731.35 113.0 L720.6 113.0 717.3 113.0 M848.55 113.0 L834.55 113.0 772.25 113.0 758.15 113.0 731.35 113.0 M670.05 77.7 Q675.0 74.55 680.95 73.7 L685.65 73.35 M656.15 91.55 L645.55 91.55 619.1 91.55 605.6 91.55 539.9 91.55 526.4 91.55 500.0 91.55 489.35 91.55 486.1 91.55 483.4 91.55 M484.0 113.0 L486.7 113.0 490.0 113.0 500.75 113.0 527.55 113.0 541.6 113.0 603.9 113.0 617.95 113.0 644.75 113.0 655.55 113.0 657.5 113.0 658.45 115.35 M659.2 89.3 Q661.25 85.4 664.6 82.05 M658.3 91.2 L659.2 89.3 M689.65 73.6 Q698.6 74.7 705.45 80.9 M476.25 124.8 Q467.75 132.85 455.85 132.85 M244.8 121.2 L242.15 124.15 M198.15 84.15 L200.05 82.05 M443.1 76.1 Q448.9 73.35 455.85 73.35 M664.6 124.15 Q666.5 126.05 668.55 127.5 M428.75 90.6 Q430.9 85.95 434.8 82.05 M414.95 91.55 L425.55 91.55 428.35 91.55 M388.5 91.55 L414.95 91.55 M439.5 78.2 L443.1 76.1 M428.5 91.2 L428.75 90.6 M474.95 80.25 L476.9 82.05 M468.05 75.85 Q471.7 77.5 474.95 80.25 M255.45 91.55 L258.75 91.55 269.35 91.55 291.75 91.55 295.75 91.55 309.3 91.55 375.0 91.55 388.5 91.55 M311.0 113.0 L296.9 113.0 270.1 113.0 259.4 113.0 256.05 113.0 249.25 113.0 Q247.75 117.4 244.8 121.2 M387.35 113.0 L373.3 113.0 311.0 113.0 M424.95 113.0 L414.15 113.0 387.35 113.0 M484.0 113.0 Q481.9 119.15 476.9 124.15 M428.05 113.95 L427.7 113.0 424.95 113.0 M438.05 127.0 L434.8 124.15 M248.65 91.55 L255.45 91.55 M243.75 83.75 Q246.85 87.35 248.65 91.55 M186.4 91.55 L193.6 91.55 Q195.25 87.55 198.15 84.15 M183.15 91.55 L186.4 91.55 M172.45 91.55 L183.15 91.55 M185.75 113.0 L182.5 113.0 171.65 113.0 144.85 113.0 130.85 113.0 94.15 113.0 M185.75 113.0 L192.95 113.0 Q194.4 117.15 197.15 120.8 M132.55 91.55 L146.0 91.55 172.45 91.55" fill="none" stroke="#000000" stroke-linecap="round" stroke-linejoin="miter-clip" stroke-miterlimit="10.0" stroke-width="1.0"/>
  </g>
</svg>
