<?xml version="1.0" encoding="UTF-8" standalone="no"?>
<svg xmlns:xlink="http://www.w3.org/1999/xlink" height="127.75px" width="127.8px" xmlns="http://www.w3.org/2000/svg">
  <g transform="matrix(1.0, 0.0, 0.0, 1.0, 63.9, 63.9)">
    <path d="M44.85 -44.85 Q63.4 -26.3 63.4 -0.05 63.4 26.25 44.85 44.8 26.25 63.35 0.0 63.35 -26.25 63.35 -44.8 44.8 -63.4 26.25 -63.4 -0.05 -63.4 -26.3 -44.8 -44.85 -26.25 -63.4 0.0 -63.4 26.25 -63.4 44.85 -44.85" fill="#ffffff" fill-opacity="0.0" fill-rule="evenodd" stroke="none"/>
    <path d="M44.85 -44.85 Q26.25 -63.4 0.0 -63.4 -26.25 -63.4 -44.8 -44.85 -63.4 -26.3 -63.4 -0.05 -63.4 26.25 -44.8 44.8 -26.25 63.35 0.0 63.35 26.25 63.35 44.85 44.8 63.4 26.25 63.4 -0.05 63.4 -26.3 44.85 -44.85 Z" fill="none" stroke="#000000" stroke-linecap="round" stroke-linejoin="miter-clip" stroke-miterlimit="4.0" stroke-opacity="0.6" stroke-width="1.0"/>
  </g>
</svg>
