<?xml version="1.0" encoding="UTF-8" standalone="no"?>
<svg xmlns:xlink="http://www.w3.org/1999/xlink" height="33.7px" width="86.45px" xmlns="http://www.w3.org/2000/svg">
  <g transform="matrix(1.0, 0.0, 0.0, 1.0, 43.25, 16.8)">
    <path d="M-37.2 -3.1 Q-15.35 -12.0 -8.55 -14.1 -1.7 -16.3 4.6 -16.3 10.5 -16.3 18.55 -13.05 27.2 -9.55 42.7 -0.7 L17.6 16.3 -37.2 -3.1" fill="#ffffff" fill-opacity="0.0" fill-rule="evenodd" stroke="none"/>
    <path d="M17.6 16.3 L-38.95 16.3 -39.0 16.25 -41.95 12.1 Q-42.75 10.55 -42.75 7.65 -42.75 5.25 -41.15 2.45 -39.95 0.25 -37.2 -3.1 L17.6 16.3" fill="#000000" fill-opacity="0.14901961" fill-rule="evenodd" stroke="none"/>
    <path d="M-37.2 -3.1 Q-15.35 -12.0 -8.55 -14.1 -1.7 -16.3 4.6 -16.3 10.5 -16.3 18.55 -13.05 27.2 -9.55 42.7 -0.7 M-39.0 16.25 L-41.95 12.1 Q-42.75 10.55 -42.75 7.65 -42.75 5.25 -41.15 2.45 -39.95 0.25 -37.2 -3.1" fill="none" stroke="#000000" stroke-linecap="round" stroke-linejoin="miter-clip" stroke-miterlimit="4.0" stroke-width="1.0"/>
    <path d="M42.7 -0.7 L17.6 16.3 -38.95 16.3 -39.0 16.25 M-37.2 -3.1 L17.6 16.3" fill="none" stroke="#000000" stroke-linecap="round" stroke-linejoin="miter-clip" stroke-miterlimit="4.0" stroke-opacity="0.6" stroke-width="1.0"/>
  </g>
</svg>
