<?xml version="1.0" encoding="UTF-8" standalone="no"?>
<svg xmlns:xlink="http://www.w3.org/1999/xlink" height="454.45px" width="1466.55px" xmlns="http://www.w3.org/2000/svg">
  <g transform="matrix(1.0, 0.0, 0.0, 1.0, 733.25, 227.2)">
    <path d="M165.3 -227.2 L169.1 -227.2 169.1 -171.0 181.9 -149.2 181.9 -116.4 200.5 -92.45 200.5 -46.1 197.55 -37.05 197.55 112.55 216.95 112.55 234.7 111.95 234.1 55.15 234.1 -20.45 287.6 -20.45 287.6 107.85 306.65 107.15 307.4 48.4 347.2 48.7 347.65 84.05 356.35 84.05 356.6 44.6 386.65 44.6 386.65 139.85 416.1 139.85 416.1 6.2 429.1 -7.55 429.1 -39.35 438.7 -52.5 438.7 -104.55 445.1 -104.55 445.1 -52.5 455.35 -39.35 455.35 -7.55 468.55 6.2 468.55 76.75 493.8 76.7 493.8 82.1 494.1 82.1 494.1 15.25 496.65 15.25 496.65 -5.95 532.3 -5.95 532.3 15.25 535.85 15.25 535.85 88.7 550.9 88.7 551.05 -8.5 561.15 17.2 566.9 4.0 569.7 19.75 588.55 19.75 597.75 -7.55 603.85 16.55 612.8 -3.05 613.05 49.0 722.6 49.0 722.6 75.3 733.3 75.3 733.3 227.25 493.8 227.25 493.8 226.9 493.5 226.9 493.5 227.25 -159.5 227.25 -159.5 226.9 -159.8 226.9 -159.8 227.25 -733.25 227.25 -733.25 112.55 -726.85 112.55 -722.45 36.45 -716.8 56.3 -699.8 56.3 -691.7 37.1 -681.8 56.3 -662.2 56.3 -656.8 39.0 -655.2 112.55 -647.15 112.55 -647.15 89.75 -640.15 102.6 -628.6 46.1 -620.25 99.7 -614.2 91.05 -614.2 112.55 -596.25 112.55 -596.25 83.65 -580.85 83.65 -580.85 112.55 -568.9 112.55 -569.0 -122.6 -556.85 -94.25 -556.85 -68.9 -543.4 -68.9 -516.15 -113.2 -513.3 -185.7 -506.55 -117.05 -499.8 -99.7 -481.55 -65.7 -473.9 -65.35 -473.55 -87.2 -458.2 -123.5 -458.25 83.15 -439.7 83.15 -439.6 20.05 -435.15 39.85 -418.35 39.85 -407.25 23.3 -398.35 39.85 -385.7 39.85 Q-385.0 39.3 -384.15 38.9 L-378.4 21.05 -378.15 37.8 Q-376.7 37.95 -375.3 38.5 -373.2 39.3 -371.7 40.8 L-368.85 39.65 Q-374.65 25.1 -377.0 9.85 L-377.55 5.75 Q-378.25 0.15 -378.45 -5.55 L-380.95 -5.55 Q-381.75 -3.3 -383.55 -1.5 -386.7 1.65 -391.15 1.65 -395.6 1.65 -398.75 -1.5 -401.9 -4.65 -401.9 -9.1 -401.9 -13.55 -398.75 -16.7 -395.6 -19.85 -391.15 -19.85 -386.7 -19.85 -383.55 -16.7 -380.7 -13.85 -380.4 -10.0 L-378.6 -10.0 -378.6 -11.4 Q-378.6 -26.6 -375.4 -41.05 L-374.45 -45.15 -371.9 -54.0 -374.25 -54.9 Q-375.2 -54.25 -376.3 -53.8 -380.4 -52.05 -384.55 -53.75 -388.65 -55.4 -390.4 -59.5 -392.15 -63.6 -390.45 -67.75 -388.8 -71.85 -384.7 -73.6 -380.55 -75.35 -376.45 -73.65 -372.3 -72.0 -370.6 -67.9 -368.85 -63.75 -370.55 -59.65 L-371.1 -58.45 -370.45 -58.2 -367.75 -65.15 Q-362.95 -76.45 -356.4 -86.55 L-354.05 -90.05 Q-349.9 -96.05 -345.1 -101.6 -346.75 -101.05 -348.6 -101.05 -353.05 -101.05 -356.2 -104.2 -359.35 -107.35 -359.35 -111.8 -359.35 -116.25 -356.2 -119.45 -353.05 -122.55 -348.6 -122.55 -344.15 -122.55 -341.0 -119.45 -337.85 -116.25 -337.85 -111.8 -337.85 -110.35 -338.15 -109.05 L-338.15 -109.1 Q-323.15 -124.05 -304.7 -133.7 L-304.75 -133.75 Q-308.85 -135.5 -310.55 -139.65 -312.2 -143.75 -310.45 -147.85 -308.7 -151.95 -304.6 -153.65 -300.45 -155.35 -296.35 -153.6 -292.25 -151.85 -290.6 -147.75 -289.05 -144.0 -290.35 -140.25 -273.25 -146.9 -255.1 -148.75 -256.65 -151.25 -256.65 -154.35 -256.65 -158.8 -253.5 -161.95 -250.35 -165.1 -245.9 -165.1 -241.45 -165.1 -238.3 -161.95 -235.15 -158.8 -235.15 -154.35 -235.15 -151.7 -236.25 -149.5 -217.1 -148.95 -199.05 -143.25 -198.95 -145.0 -198.2 -146.7 -196.45 -150.8 -192.3 -152.45 -188.15 -154.1 -184.05 -152.35 -179.95 -150.55 -178.3 -146.4 -176.65 -142.25 -178.45 -138.2 -179.05 -136.8 -179.95 -135.65 -165.0 -128.4 -152.2 -117.75 L-150.8 -119.45 Q-147.65 -122.55 -143.2 -122.55 -138.75 -122.55 -135.6 -119.45 -132.45 -116.3 -132.45 -111.8 -132.45 -107.35 -135.6 -104.2 L-136.95 -103.0 Q-125.9 -90.55 -118.15 -75.85 L-116.8 -76.55 Q-112.7 -78.3 -108.55 -76.65 -104.4 -75.05 -102.65 -70.95 -100.9 -66.85 -102.55 -62.7 -104.2 -58.55 -108.3 -56.8 L-109.7 -56.3 Q-103.6 -38.55 -102.5 -19.7 L-100.65 -19.85 Q-96.2 -19.85 -93.05 -16.7 -89.9 -13.55 -89.9 -9.1 -89.9 -4.65 -93.05 -1.5 -95.35 0.8 -98.3 1.45 L-92.1 17.2 -86.35 4.0 -83.6 19.75 -64.75 19.75 -55.5 -7.55 -49.4 16.55 -40.45 -3.05 -40.25 49.0 69.3 49.0 69.3 75.3 86.3 75.3 86.3 101.95 138.1 101.95 138.1 -37.05 132.9 -46.1 132.9 -92.45 153.1 -116.4 153.1 -149.2 165.3 -171.0 165.3 -227.2 M-313.3 -121.75 Q-324.35 -114.45 -333.9 -104.9 L-336.8 -101.85 -329.45 -94.5 -326.55 -97.5 Q-318.0 -106.05 -308.1 -112.65 L-313.3 -121.75 M-275.35 -32.1 L-274.7 -33.45 -328.7 -87.45 Q-333.0 -82.55 -336.6 -77.2 L-275.35 -32.1 M-340.85 -80.35 Q-336.95 -86.0 -332.45 -91.15 L-339.85 -98.55 Q-344.9 -92.8 -349.25 -86.55 L-340.85 -80.35 M-338.95 -73.7 Q-344.05 -65.65 -347.8 -56.75 L-350.25 -50.4 -278.0 -22.55 -276.85 -28.0 -338.95 -73.7 M-351.6 -83.0 Q-357.75 -73.5 -362.25 -62.85 L-364.9 -56.05 -355.15 -52.3 -352.65 -58.8 Q-348.65 -68.3 -343.15 -76.8 L-351.6 -83.0 M-369.65 -39.45 Q-372.65 -25.75 -372.65 -11.4 L-372.65 -10.0 -362.2 -10.0 -362.2 -11.4 Q-362.2 -24.35 -359.6 -36.7 L-369.65 -39.45 M-354.5 -35.3 Q-356.95 -23.65 -356.95 -11.4 L-356.95 -10.0 -277.8 -10.0 -278.3 -14.45 -354.5 -35.3 M-358.65 -40.8 L-356.6 -48.1 -366.35 -51.85 -368.7 -43.55 -358.65 -40.8 M-286.6 -21.1 L-351.65 -46.2 -353.55 -39.4 -286.6 -21.1 M-361.25 3.8 Q-361.85 -0.85 -362.05 -5.55 L-372.5 -5.55 Q-372.3 -0.2 -371.65 5.05 L-361.25 3.8 M-215.9 -125.3 Q-227.85 -127.9 -240.4 -127.9 L-243.65 -127.85 -243.65 -54.75 -240.4 -54.9 -235.25 -54.55 -215.9 -125.3 M-210.45 -129.45 Q-203.7 -127.75 -197.15 -125.25 L-193.7 -133.15 Q-195.85 -134.4 -197.2 -136.35 -202.4 -138.2 -207.7 -139.5 L-210.45 -129.45 M-211.75 -140.5 Q-225.75 -143.6 -240.4 -143.6 L-243.65 -143.55 -243.65 -133.1 -240.4 -133.15 Q-227.15 -133.15 -214.5 -130.4 L-211.75 -140.5 M-163.95 -106.2 L-156.85 -100.0 -151.65 -105.15 Q-153.85 -107.85 -153.95 -111.4 -168.5 -124.0 -186.0 -131.9 L-189.45 -131.7 -193.0 -123.6 Q-179.15 -117.75 -167.25 -108.8 L-161.2 -116.35 -157.9 -113.75 -163.95 -106.2 M-170.55 -104.7 Q-181.9 -113.2 -195.1 -118.75 L-224.4 -51.45 Q-220.55 -49.7 -217.1 -46.9 L-170.55 -104.7 M-231.1 -53.8 L-228.55 -53.1 -199.25 -120.4 Q-205.45 -122.75 -211.85 -124.35 L-231.1 -53.8 M-264.6 -141.4 Q-278.6 -138.85 -291.9 -133.2 L-294.6 -132.0 -290.6 -122.35 -287.8 -123.6 Q-275.85 -128.65 -263.3 -131.0 L-264.6 -141.4 M-265.1 -45.75 L-264.25 -46.5 -292.65 -115.55 Q-297.45 -113.2 -302.0 -110.35 L-265.1 -45.75 M-262.65 -125.8 Q-274.5 -123.5 -285.8 -118.75 L-288.6 -117.5 -260.5 -49.2 Q-257.25 -51.35 -253.6 -52.65 L-262.65 -125.8 M-304.6 -114.9 Q-299.8 -117.9 -294.65 -120.45 L-298.65 -130.1 Q-304.4 -127.35 -309.75 -124.0 L-304.6 -114.9 M-249.45 -53.85 L-248.15 -54.15 -248.15 -127.65 -258.5 -126.5 -249.45 -53.85 M-259.15 -131.75 L-248.15 -132.9 -248.15 -143.35 -260.4 -142.1 -259.15 -131.75 M-305.5 -108.05 Q-314.8 -101.85 -322.85 -93.8 L-325.75 -90.8 -272.4 -37.45 Q-270.6 -40.2 -268.25 -42.7 L-305.5 -108.05 M-213.9 -44.1 L-213.55 -43.75 -213.3 -43.5 -160.55 -96.25 -167.25 -102.1 -213.9 -44.1 M-204.35 -29.05 L-203.8 -27.25 -132.75 -56.05 -133.05 -56.75 Q-135.25 -62.0 -137.95 -66.95 L-204.35 -29.05 M-140.0 -70.6 Q-147.25 -82.8 -157.35 -93.1 L-210.35 -40.15 Q-207.7 -36.8 -205.9 -33.0 L-140.0 -70.6 M-128.75 22.05 Q-124.75 8.65 -124.05 -5.55 L-204.05 -5.55 -204.8 -3.3 -206.2 0.3 -206.15 0.9 -128.75 22.05 M-202.9 -10.75 L-203.0 -10.0 -123.9 -10.0 -123.9 -11.4 Q-123.9 -15.8 -124.2 -20.05 L-202.9 -10.75 M-124.6 -24.3 Q-126.15 -38.45 -131.1 -51.85 L-202.85 -22.8 Q-202.45 -19.95 -202.45 -16.9 L-202.5 -15.05 -124.6 -24.3 M-133.35 -69.55 Q-130.55 -64.35 -128.2 -58.8 L-127.85 -58.0 -121.45 -60.6 -122.4 -62.4 Q-124.2 -66.5 -122.55 -70.65 L-122.4 -71.0 Q-130.7 -87.45 -143.25 -101.05 -146.0 -101.05 -148.2 -102.25 L-153.65 -96.85 Q-143.0 -86.05 -135.45 -73.2 L-127.35 -77.85 -125.25 -74.2 -133.35 -69.55 M-119.0 -20.7 Q-118.65 -16.1 -118.65 -11.4 L-118.65 -10.0 -111.35 -10.0 Q-111.1 -13.85 -108.3 -16.65 -109.1 -37.3 -116.1 -56.5 L-116.5 -56.65 -117.8 -57.25 -126.25 -53.85 Q-121.0 -39.8 -119.35 -24.9 L-109.4 -26.1 -108.9 -21.9 -119.0 -20.7 M-113.6 26.2 Q-109.55 12.55 -108.5 -1.8 -110.1 -3.5 -110.8 -5.55 L-118.75 -5.55 Q-119.45 9.35 -123.65 23.45 L-113.6 26.2 M-282.55 -5.55 L-356.8 -5.55 Q-356.6 -1.15 -356.05 3.2 L-282.55 -5.55 M-70.7 63.7 L-76.95 63.7 -76.95 84.75 -70.7 84.75 -70.7 63.7 M-70.7 31.15 L-76.95 31.15 -76.95 52.2 -70.7 52.2 -70.7 31.15 M-52.4 31.15 L-58.7 31.15 -58.7 52.2 -52.4 52.2 -52.4 31.15 M-102.8 1.45 Q-104.4 18.55 -110.1 34.75 L-107.25 35.5 Q-104.05 36.8 -102.3 39.55 L-102.2 1.55 -102.8 1.45 M-124.95 27.5 Q-126.3 31.4 -127.9 35.3 L-119.55 38.55 Q-118.5 37.25 -117.1 36.4 L-114.85 30.25 -124.95 27.5 M-136.4 70.3 Q-128.0 59.55 -121.9 47.35 -122.35 44.95 -121.65 42.55 L-129.7 39.45 Q-135.8 52.7 -144.8 64.1 L-136.4 70.3 M-205.6 5.35 L-132.8 33.4 -130.05 26.1 -205.05 5.55 -205.6 5.35 M-204.0 25.7 L-203.5 31.45 -161.05 73.9 -158.05 71.0 -151.75 64.2 -204.0 25.7 M-178.8 105.6 Q-165.05 98.35 -153.25 88.05 L-160.65 80.65 Q-171.4 90.0 -183.95 96.6 L-178.8 105.6 M-147.5 67.35 L-154.3 74.7 -157.3 77.65 -149.95 85.0 -146.95 82.1 Q-142.8 77.95 -139.05 73.55 L-147.5 67.35 M-135.6 86.0 Q-132.45 89.15 -132.45 93.6 -132.45 98.05 -135.6 101.2 -138.75 104.35 -143.2 104.35 -147.65 104.35 -150.8 101.2 -153.0 99.0 -153.65 96.2 -162.1 102.95 -171.4 108.35 L-117.45 108.35 -102.4 88.7 -102.3 51.45 Q-104.05 54.05 -107.1 55.35 -111.2 57.1 -115.35 55.45 L-118.4 53.6 Q-127.1 69.8 -139.85 83.35 -137.5 84.1 -135.6 86.0 M-85.3 63.7 L-91.6 63.7 -91.6 84.75 -85.3 84.75 -85.3 63.7 M-149.05 60.95 Q-140.45 50.15 -134.6 37.55 L-205.3 10.25 -204.45 20.15 -149.05 60.95 M-219.5 15.45 L-216.4 18.55 -216.55 16.45 -218.65 14.9 -219.5 15.45 M-239.3 21.1 L-240.2 21.1 -229.8 104.7 Q-219.35 103.75 -209.25 100.95 L-210.8 83.4 -236.45 21.05 -239.3 21.1 M-214.25 43.5 L-215.8 25.5 -223.55 17.7 -227.95 19.45 -214.25 43.5 M-230.9 22.75 L-212.1 68.5 -213.4 53.45 -230.9 22.75 M-199.45 77.9 L-197.75 97.1 -195.1 96.0 -190.3 93.85 -199.45 77.9 M-186.55 92.0 Q-174.65 85.75 -164.4 76.9 L-202.9 38.4 -200.3 67.9 -186.55 92.0 M-263.55 17.55 L-264.55 29.45 -258.85 16.45 -261.4 14.85 -263.55 17.55 M-255.85 20.7 L-265.65 43.2 -270.4 101.3 Q-259.5 104.15 -248.15 104.9 L-248.15 20.4 -251.2 19.65 -269.05 84.95 -267.2 62.35 -255.85 20.7 M-340.4 48.55 Q-334.0 59.25 -325.3 68.5 L-275.45 18.6 -274.8 11.15 -340.4 48.55 M-355.45 7.3 Q-353.5 19.7 -348.8 31.5 L-274.0 1.2 -274.0 1.1 -275.55 -2.15 -355.45 7.3 M-313.4 79.5 Q-303.6 87.4 -292.25 93.05 L-279.05 62.85 -276.0 25.5 -322.15 71.7 -316.65 76.75 -276.05 26.35 -276.7 33.85 -313.4 79.5 M-285.8 96.0 L-281.95 97.55 -280.2 76.6 -288.2 94.95 -285.8 96.0 M-323.25 91.7 Q-311.8 100.9 -298.5 107.4 L-294.35 97.85 Q-306.35 91.95 -316.7 83.6 L-323.25 91.7 M-271.0 108.35 L-262.85 108.35 -270.85 106.6 -271.0 108.35 M-282.4 103.0 L-287.8 100.85 -290.3 99.75 -294.05 108.35 -282.85 108.35 -282.4 103.0 M-187.7 98.45 L-193.0 100.85 -197.3 102.6 -197.1 104.95 -195.65 108.35 -184.35 108.35 -182.55 107.5 -187.7 98.45 M-243.65 27.6 L-243.65 105.1 -240.4 105.15 -234.0 105.0 -243.65 27.6 M-208.8 106.3 L-217.9 108.35 -208.65 108.35 -208.8 106.3 M-371.05 9.15 Q-368.85 23.65 -363.35 37.4 L-353.65 33.5 Q-358.6 21.05 -360.7 7.95 L-371.05 9.15 M-347.05 47.5 Q-349.7 42.7 -351.95 37.65 L-361.6 41.55 Q-359.1 47.25 -356.1 52.7 L-347.05 47.5 M-275.4 6.6 L-347.05 35.65 -342.5 44.9 -275.4 6.6 M-369.2 44.65 Q-367.7 48.5 -369.25 52.45 -370.9 56.6 -375.0 58.35 -376.4 58.95 -377.8 59.15 L-377.05 108.35 -309.4 108.35 Q-318.65 103.05 -327.0 96.35 L-330.25 93.65 -337.45 87.0 -339.05 88.6 Q-337.85 90.85 -337.85 93.6 -337.85 98.05 -341.0 101.2 -344.15 104.35 -348.6 104.35 -353.05 104.35 -356.2 101.2 -359.35 98.05 -359.35 93.6 -359.35 89.15 -356.2 86.0 -353.05 82.85 -348.6 82.85 -344.8 82.85 -341.95 85.15 L-340.6 83.8 Q-351.35 72.45 -359.2 59.3 L-361.3 55.65 Q-364.5 49.85 -367.15 43.8 L-369.2 44.65 M-354.0 56.35 Q-346.55 68.85 -336.35 79.6 L-329.0 72.2 Q-338.2 62.45 -344.95 51.15 L-354.0 56.35 M-319.95 80.85 L-325.85 75.4 -333.25 82.75 -326.5 89.0 -319.95 80.85" fill="#ffffff" fill-opacity="0.0" fill-rule="evenodd" stroke="none"/>
  </g>
</svg>
