<?xml version="1.0" encoding="UTF-8" standalone="no"?>
<svg xmlns:xlink="http://www.w3.org/1999/xlink" height="400.5px" width="1043.65px" xmlns="http://www.w3.org/2000/svg">
  <g transform="matrix(1.0, 0.0, 0.0, 1.0, 521.8, 200.3)">
    <path d="M-521.3 150.85 L-493.85 91.2 -451.95 0.05 -378.2 -160.5 -360.15 -199.75 391.75 -199.75 431.95 -91.05 465.6 0.05 499.3 91.2 521.35 150.85 -521.3 150.85 M431.95 -91.05 L-408.5 -91.05 431.95 -91.05 M405.15 -160.5 L-378.2 -160.5 405.15 -160.5 M499.3 91.2 L-493.85 91.2 499.3 91.2 M465.6 0.05 L-451.95 0.05 465.6 0.05" fill="#ffffff" fill-opacity="0.0" fill-rule="evenodd" stroke="none"/>
    <path d="M521.35 150.85 L521.35 199.7 -521.3 199.7 -521.3 150.85 521.35 150.85" fill="#ffffff" fill-opacity="0.14901961" fill-rule="evenodd" stroke="none"/>
    <path d="M-521.3 150.85 L-493.85 91.2 -451.95 0.05 -378.2 -160.5 -360.15 -199.75 391.75 -199.75 431.95 -91.05 465.6 0.05 466.25 0.05 M465.6 0.05 L499.3 91.2 521.35 150.85 521.35 199.7 -521.3 199.7 -521.3 150.85" fill="none" stroke="#000000" stroke-linecap="round" stroke-linejoin="miter-clip" stroke-miterlimit="4.0" stroke-width="1.0"/>
    <path d="M-378.2 -160.5 L405.15 -160.5 M-408.5 -91.05 L431.95 -91.05 M-521.3 150.85 L521.35 150.85 M-451.95 0.05 L465.6 0.05 M-493.85 91.2 L499.3 91.2" fill="none" stroke="#000000" stroke-linecap="round" stroke-linejoin="miter-clip" stroke-miterlimit="4.0" stroke-opacity="0.6" stroke-width="1.0"/>
  </g>
</svg>
