<?xml version="1.0" encoding="UTF-8" standalone="no"?>
<svg xmlns:xlink="http://www.w3.org/1999/xlink" height="1016.65px" width="1566.0px" xmlns="http://www.w3.org/2000/svg">
  <g transform="matrix(1.0, 0.0, 0.0, 1.0, 783.0, 508.35)">
    <path d="M-782.5 -122.1 L-782.5 -383.75 -686.1 -383.75 -686.1 -507.85 -544.65 -507.85 -544.65 -383.75 -420.55 -383.75 -420.55 -507.85 -279.2 -507.85 -279.2 -383.75 -155.15 -383.75 -155.15 -507.85 -13.8 -507.85 -13.8 -383.75 110.25 -383.75 110.25 -507.85 251.6 -507.85 251.6 -383.75 375.65 -383.75 375.65 -507.85 517.1 -507.85 517.1 -383.75 641.2 -383.75 641.2 -507.85 782.5 -507.85 782.5 -332.05 734.25 -332.05 734.25 -117.05 642.2 -117.05 642.2 236.8 -605.0 236.8 -605.0 291.95 642.2 291.95 642.2 304.3 734.25 304.3 734.25 485.9 -782.5 507.8 -782.5 299.25 -663.25 299.25 -663.25 -122.1 -782.5 -122.1 M718.7 -230.35 L718.7 -285.4 -605.0 -285.4 -605.0 -230.35 718.7 -230.35 M414.55 -140.05 L414.55 125.3 489.2 125.3 489.2 -140.05 414.55 -140.05 M230.65 -140.05 L230.65 125.3 305.3 125.3 305.3 -140.05 230.65 -140.05 M50.9 -140.05 L50.9 125.3 125.55 125.3 125.55 -140.05 50.9 -140.05 M-131.6 -140.05 L-131.6 125.3 -56.95 125.3 -56.95 -140.05 -131.6 -140.05 M-312.7 -140.05 L-312.7 125.3 -238.05 125.3 -238.05 -140.05 -312.7 -140.05 M-499.35 -140.05 L-499.35 125.3 -424.7 125.3 -424.7 -140.05 -499.35 -140.05" fill="#ffffff" fill-opacity="0.0" fill-rule="evenodd" stroke="none"/>
    <path d="M642.2 291.95 L-605.0 291.95 -605.0 236.8 642.2 236.8 642.2 291.95 M718.7 -230.35 L-605.0 -230.35 -605.0 -285.4 718.7 -285.4 718.7 -230.35" fill="#000000" fill-opacity="0.14901961" fill-rule="evenodd" stroke="none"/>
    <path d="M734.25 -117.05 L734.25 -332.05 782.5 -332.05 782.5 -507.85 641.2 -507.85 641.2 -383.75 517.1 -383.75 517.1 -507.85 375.65 -507.85 375.65 -383.75 251.6 -383.75 251.6 -507.85 110.25 -507.85 110.25 -383.75 -13.8 -383.75 -13.8 -507.85 -155.15 -507.85 -155.15 -383.75 -279.2 -383.75 -279.2 -507.85 -420.55 -507.85 -420.55 -383.75 -544.65 -383.75 -544.65 -507.85 -686.1 -507.85 -686.1 -383.75 -782.5 -383.75 -782.5 -122.1 M-782.5 299.25 L-782.5 507.8 734.25 485.9 734.25 304.3" fill="none" stroke="#000000" stroke-linecap="round" stroke-linejoin="miter-clip" stroke-miterlimit="4.0" stroke-width="1.0"/>
  </g>
</svg>
