<?xml version="1.0" encoding="UTF-8" standalone="no"?>
<svg xmlns:xlink="http://www.w3.org/1999/xlink" height="213.5px" width="152.6px" xmlns="http://www.w3.org/2000/svg">
  <g transform="matrix(1.0, 0.0, 0.0, 1.0, 1.7, -12.9)">
    <path d="M62.2 61.1 Q67.45 61.1 81.4 53.3 97.45 44.4 104.5 34.85 107.35 32.05 119.05 18.1 124.45 11.65 127.45 13.2 136.6 29.4 139.1 39.0 L141.05 47.7 Q142.35 53.6 144.15 59.25 145.05 62.0 148.2 69.0 150.9 77.05 150.9 89.15 150.9 113.8 139.45 133.1 129.9 149.25 99.65 180.45 77.5 203.35 60.15 215.65 44.95 226.4 37.6 226.4 34.6 226.4 31.8 223.4 30.5 222.05 28.25 218.5 23.55 222.25 18.0 224.45 13.75 226.2 11.7 226.2 9.9 226.2 9.75 223.3 9.4 216.2 8.85 213.15 5.75 196.3 1.45 180.25 -1.65 168.6 -1.65 165.9 L1.4 156.15 Q1.4 154.35 -0.15 150.0 -1.7 145.65 -1.7 141.9 -1.7 130.05 5.5 117.4 L10.45 108.1 Q12.7 102.85 12.7 97.75 12.7 94.8 10.4 86.65 8.05 78.5 8.05 76.25 8.05 73.75 8.9 70.05 9.8 66.2 11.0 63.8 17.25 51.25 24.2 43.5 29.55 37.55 31.55 37.55 33.05 37.55 35.35 41.25 L40.5 49.35 Q49.05 61.1 62.2 61.1" fill="#ffffff" fill-rule="evenodd" stroke="none"/>
  </g>
</svg>
