<?xml version="1.0" encoding="UTF-8" standalone="no"?>
<svg xmlns:xlink="http://www.w3.org/1999/xlink" height="82.3px" width="191.25px" xmlns="http://www.w3.org/2000/svg">
  <g transform="matrix(1.0, 0.0, 0.0, 1.0, 0.5, 0.5)">
    <path d="M170.45 81.3 Q166.35 80.0 156.3 75.7 161.0 73.8 171.05 75.1 180.9 76.35 185.15 74.35 L184.45 72.6 Q178.3 72.3 169.2 68.6 L176.5 68.0 183.8 67.65 Q184.1 60.5 181.3 58.9 176.3 57.5 171.9 55.0 180.45 55.4 181.3 52.05 182.1 48.7 174.45 46.6 167.3 44.65 155.35 44.95 L135.9 45.3 Q136.95 41.55 149.8 42.45 L167.5 43.95 Q168.6 40.85 169.0 36.5 L169.1 35.5 164.9 35.9 153.65 35.45 141.9 34.55 127.4 31.25 Q118.1 28.9 123.6 28.45 L128.35 27.75 Q134.1 27.45 139.15 29.15 144.4 30.9 152.65 31.85 L161.55 32.5 169.45 32.2 169.75 30.6 Q171.25 25.4 181.6 25.65 181.75 22.2 182.45 20.45 183.45 18.1 186.05 16.95 179.35 9.4 162.4 11.15 L148.6 12.75 Q140.85 13.45 136.0 12.15 141.6 12.35 151.35 10.0 161.65 7.5 166.8 7.45 L175.5 7.9 Q182.5 8.15 183.1 6.8 183.6 5.75 181.6 3.6 L177.6 0.0 186.6 0.0 187.95 1.85 Q189.3 4.55 189.3 8.8 L189.3 52.15 190.25 52.15 190.0 54.55 190.05 81.3 170.45 81.3 M11.4 0.0 Q11.15 6.5 12.2 8.1 13.05 9.4 20.15 10.9 L27.1 12.2 44.05 12.85 33.45 14.9 18.3 16.95 Q14.5 16.95 11.95 20.7 10.65 22.55 10.15 24.4 L12.9 29.8 14.65 31.4 Q16.2 33.25 14.9 34.55 12.9 36.6 10.85 39.95 L11.5 45.4 Q14.05 44.2 17.35 43.3 24.0 41.4 27.8 42.7 31.6 43.95 33.8 47.2 L35.25 50.15 27.1 48.1 Q25.35 47.65 18.8 49.3 13.05 50.7 11.5 51.5 10.7 51.9 11.85 54.95 L14.25 61.0 Q15.1 63.55 21.55 63.85 L27.8 63.7 29.65 68.45 Q31.0 73.15 28.45 73.15 L17.45 72.8 Q9.8 72.85 11.5 74.55 13.2 76.25 25.75 78.95 L37.95 81.3 0.0 81.3 0.0 54.2 4.05 54.2 4.75 0.0 11.4 0.0 M125.6 20.3 Q121.55 18.65 117.9 17.8 L119.05 13.8 126.3 15.55 Q129.85 16.65 136.4 17.5 142.35 18.3 143.9 18.95 146.9 20.15 138.6 21.15 130.25 22.2 125.6 20.3 M113.45 12.8 L112.3 16.9 Q109.05 16.6 106.4 16.95 101.6 17.5 91.8 15.65 82.0 13.8 89.45 12.85 L97.65 11.6 Q104.8 10.65 107.75 11.5 L113.45 12.8 M48.05 32.1 L39.55 31.85 Q34.9 31.85 29.3 30.5 L24.65 29.15 31.1 27.7 Q38.55 26.5 43.6 27.75 L53.45 29.9 61.25 30.5 Q66.65 30.5 74.1 32.5 L68.1 33.95 Q61.15 35.15 56.5 33.85 51.25 32.45 48.05 32.1" fill="#000000" fill-opacity="0.14901961" fill-rule="evenodd" stroke="none"/>
    <path d="M177.6 0.0 L181.6 3.6 Q183.6 5.75 183.1 6.8 182.5 8.15 175.5 7.9 L166.8 7.45 Q161.65 7.5 151.35 10.0 141.6 12.35 136.0 12.15 140.85 13.45 148.6 12.75 L162.4 11.15 Q179.35 9.4 186.05 16.95 183.45 18.1 182.45 20.45 181.75 22.2 181.6 25.65 171.25 25.4 169.75 30.6 L169.45 32.2 161.55 32.5 152.65 31.85 Q144.4 30.9 139.15 29.15 134.1 27.45 128.35 27.75 L123.6 28.45 Q118.1 28.9 127.4 31.25 L141.9 34.55 153.65 35.45 164.9 35.9 169.1 35.5 169.0 36.5 Q168.6 40.85 167.5 43.95 L149.8 42.45 Q136.95 41.55 135.9 45.3 L155.35 44.95 Q167.3 44.65 174.45 46.6 182.1 48.7 181.3 52.05 180.45 55.4 171.9 55.0 176.3 57.5 181.3 58.9 184.1 60.5 183.8 67.65 L176.5 68.0 169.2 68.6 Q178.3 72.3 184.45 72.6 L185.15 74.35 Q180.9 76.35 171.05 75.1 161.0 73.8 156.3 75.7 166.35 80.0 170.45 81.3 L152.05 81.3 151.05 71.85 Q149.7 62.35 148.0 62.35 146.3 62.35 148.65 60.0 L151.35 57.6 145.25 52.85 141.2 48.1 Q138.75 49.35 135.15 49.5 127.95 49.75 122.25 44.05 L115.95 43.6 115.75 43.25 Q114.95 41.95 111.4 40.35 108.75 39.15 106.05 38.35 L81.65 38.35 76.25 39.15 Q72.6 40.25 70.75 43.25 L67.5 43.75 64.4 44.05 59.3 45.55 Q54.2 47.6 54.2 50.15 54.2 54.2 52.2 58.95 L44.05 63.0 33.9 64.35 42.7 65.7 37.95 81.3 25.75 78.95 Q13.2 76.25 11.5 74.55 9.8 72.85 17.45 72.8 L28.45 73.15 Q31.0 73.15 29.65 68.45 L27.8 63.7 21.55 63.85 Q15.1 63.55 14.25 61.0 L11.85 54.95 Q10.7 51.9 11.5 51.5 13.05 50.7 18.8 49.3 25.35 47.65 27.1 48.1 L35.25 50.15 33.8 47.2 Q31.6 43.95 27.8 42.7 24.0 41.4 17.35 43.3 14.05 44.2 11.5 45.4 L10.85 39.95 Q12.9 36.6 14.9 34.55 16.2 33.25 14.65 31.4 L12.9 29.8 10.15 24.4 Q10.65 22.55 11.95 20.7 14.5 16.95 18.3 16.95 L33.45 14.9 44.05 12.85 27.1 12.2 20.15 10.9 Q13.05 9.4 12.2 8.1 11.15 6.5 11.4 0.0 L177.6 0.0 M48.05 32.1 Q51.25 32.45 56.5 33.85 61.15 35.15 68.1 33.95 L74.1 32.5 Q66.65 30.5 61.25 30.5 L53.45 29.9 43.6 27.75 Q38.55 26.5 31.1 27.7 L24.65 29.15 29.3 30.5 Q34.9 31.85 39.55 31.85 L48.05 32.1 M113.45 12.8 L107.75 11.5 Q104.8 10.65 97.65 11.6 L89.45 12.85 Q82.0 13.8 91.8 15.65 101.6 17.5 106.4 16.95 109.05 16.6 112.3 16.9 L113.45 12.8 M125.6 20.3 Q130.25 22.2 138.6 21.15 146.9 20.15 143.9 18.95 142.35 18.3 136.4 17.5 129.85 16.65 126.3 15.55 L119.05 13.8 117.9 17.8 Q121.55 18.65 125.6 20.3" fill="#000000" fill-opacity="0.003921569" fill-rule="evenodd" stroke="none"/>
    <path d="M177.6 0.0 L11.4 0.0 4.75 0.0 4.05 54.2 0.0 54.2 M37.95 81.3 L42.7 65.7 33.9 64.35 44.05 63.0 52.2 58.95 Q54.2 54.2 54.2 50.15 54.2 47.6 59.3 45.55 L64.4 44.05 67.5 43.75 70.75 43.25 M115.95 43.6 L122.25 44.05 Q127.95 49.75 135.15 49.5 138.75 49.35 141.2 48.1 L145.25 52.85 151.35 57.6 148.65 60.0 Q146.3 62.35 148.0 62.35 149.7 62.35 151.05 71.85 L152.05 81.3 170.45 81.3 190.05 81.3 M190.25 52.15 L189.3 52.15 189.3 8.8 Q189.3 4.55 187.95 1.85 L186.6 0.0 177.6 0.0 M37.95 81.3 L0.0 81.3" fill="none" stroke="#000000" stroke-linecap="round" stroke-linejoin="miter-clip" stroke-miterlimit="4.0" stroke-width="1.0"/>
    <path d="M190.05 81.3 L190.0 54.55 190.25 52.15 M0.0 81.3 L0.0 54.2" fill="none" stroke="#000000" stroke-linecap="round" stroke-linejoin="miter-clip" stroke-miterlimit="4.0" stroke-opacity="0.6" stroke-width="1.0"/>
  </g>
</svg>
