<?xml version="1.0" encoding="UTF-8" standalone="no"?>
<svg xmlns:xlink="http://www.w3.org/1999/xlink" height="378.6px" width="315.15px" xmlns="http://www.w3.org/2000/svg">
  <g transform="matrix(1.0, 0.0, 0.0, 1.0, 157.55, 189.3)">
    <path d="M-106.25 -143.95 L-124.2 -143.95 -157.05 -188.8 157.1 -188.8 130.2 -143.95 111.05 -143.95 111.05 188.8 78.7 188.8 78.7 -143.95 -73.9 -143.95 -73.9 188.8 -106.25 188.8 -106.25 -143.95 -73.9 -143.95 -106.25 -143.95 M78.7 -143.95 L111.05 -143.95 78.7 -143.95" fill="#000000" fill-opacity="0.09803922" fill-rule="evenodd" stroke="none"/>
    <path d="M-106.25 -143.95 L-124.2 -143.95 -157.05 -188.8 157.1 -188.8 130.2 -143.95 111.05 -143.95 M78.7 -143.95 L-73.9 -143.95" fill="none" stroke="#000000" stroke-linecap="round" stroke-linejoin="round" stroke-width="1.0"/>
    <path d="M-106.25 -143.95 L-73.9 -143.95 M111.05 -143.95 L78.7 -143.95" fill="none" stroke="#000000" stroke-linecap="round" stroke-linejoin="round" stroke-opacity="0.6" stroke-width="1.0"/>
    <path d="M111.05 188.8 L78.7 188.8 78.7 -143.95 M-73.9 188.8 L-106.25 188.8 -106.25 -143.95" fill="none" stroke="#000000" stroke-linecap="butt" stroke-linejoin="miter-clip" stroke-miterlimit="4.0" stroke-width="1.0"/>
    <path d="M111.05 -143.95 L111.05 188.8 M-73.9 -143.95 L-73.9 188.8" fill="none" stroke="#000000" stroke-linecap="round" stroke-linejoin="miter-clip" stroke-miterlimit="4.0" stroke-width="1.0"/>
  </g>
</svg>
