<?xml version="1.0" encoding="UTF-8" standalone="no"?>
<svg xmlns:xlink="http://www.w3.org/1999/xlink" height="285.4px" width="452.1px" xmlns="http://www.w3.org/2000/svg">
  <g transform="matrix(1.0, 0.0, 0.0, 1.0, 0.5, 0.0)">
    <path d="M449.55 68.25 Q447.15 67.9 432.8 70.45 L417.2 73.6 Q405.15 76.35 392.4 80.1 367.45 87.45 344.2 97.35 306.7 113.3 273.55 135.95 220.25 172.35 184.7 232.25 166.9 262.25 159.8 284.9 L103.9 284.9 109.3 195.1 57.0 192.5 49.45 284.9 0.0 284.9 21.35 73.6 28.8 0.0 237.45 17.15 Q447.0 34.6 451.6 36.2 L450.2 58.1 449.55 68.25 M51.25 142.3 L51.8 150.6 Q55.5 138.2 62.7 126.2 77.15 102.25 94.5 104.55 111.8 106.85 120.6 132.05 125.0 144.65 125.9 156.8 L127.9 149.05 Q127.8 136.65 123.5 123.9 114.9 98.4 94.0 96.75 73.05 95.15 60.1 118.55 53.55 130.25 51.25 142.3 M54.0 179.15 L51.25 187.3 128.0 190.5 129.85 182.5 54.0 179.15 M56.75 165.35 L54.0 173.5 130.75 176.7 132.6 168.7 56.75 165.35" fill="#000000" fill-opacity="0.34901962" fill-rule="evenodd" stroke="none"/>
    <path d="M159.8 284.9 Q166.9 262.25 184.7 232.25 220.25 172.35 273.55 135.95 306.7 113.3 344.2 97.35 367.45 87.45 392.4 80.1 405.15 76.35 417.2 73.6 L432.8 70.45 Q447.15 67.9 449.55 68.25 L439.7 284.9 159.8 284.9" fill="#000000" fill-opacity="0.2" fill-rule="evenodd" stroke="none"/>
    <path d="M49.45 284.9 L57.0 192.5 109.3 195.1 103.9 284.9 103.85 284.9 49.45 284.9 M51.25 142.3 Q53.55 130.25 60.1 118.55 73.05 95.15 94.0 96.75 114.9 98.4 123.5 123.9 127.8 136.65 127.9 149.05 L125.9 156.8 Q125.0 144.65 120.6 132.05 111.8 106.85 94.5 104.55 77.15 102.25 62.7 126.2 55.5 138.2 51.8 150.6 L51.25 142.3 M56.75 165.35 L132.6 168.7 130.75 176.7 54.0 173.5 56.75 165.35 M54.0 179.15 L129.85 182.5 128.0 190.5 51.25 187.3 54.0 179.15" fill="#000000" fill-opacity="0.49803922" fill-rule="evenodd" stroke="none"/>
    <path d="M0.0 284.9 L49.45 284.9 103.85 284.9 M103.9 284.9 L159.8 284.9 439.7 284.9" fill="none" stroke="#000000" stroke-linecap="butt" stroke-linejoin="miter-clip" stroke-miterlimit="4.0" stroke-width="1.0"/>
  </g>
</svg>
