<?xml version="1.0" encoding="UTF-8" standalone="no"?>
<svg xmlns:xlink="http://www.w3.org/1999/xlink" height="1932.2px" width="3929.4px" xmlns="http://www.w3.org/2000/svg">
  <g transform="matrix(1.0, 0.0, 0.0, 1.0, 1964.7, 966.1)">
    <path d="M66.6 -904.65 L154.7 -965.6 1794.7 -965.6 1964.2 -904.65 66.6 -904.65 M1912.2 510.4 L1912.2 965.6 1835.4 965.6 1835.4 949.2 1871.3 944.6 Q1868.7 852.2 1867.45 755.25 1865.0 561.2 1871.3 537.95 1874.7 525.15 1887.1 517.95 1897.0 512.3 1912.2 510.4 M-1964.2 -710.4 L-1688.55 -818.8 66.6 -818.8 66.65 -710.4 66.6 -710.4 -1964.2 -710.4 M161.5 -789.4 L1862.55 -789.4 1862.55 -735.2 161.5 -735.2 161.5 -789.4" fill="#000000" fill-opacity="0.14901961" fill-rule="evenodd" stroke="none"/>
    <path d="M242.15 379.45 L242.15 -102.45 1856.35 -102.45 1856.35 379.45 242.15 379.45 M242.15 -169.3 L242.15 -651.45 1856.35 -651.45 1856.35 -169.3 242.15 -169.3 M-1716.45 537.0 L-102.15 537.0 -102.15 857.25 -1716.45 857.25 -1716.45 537.0 M-1716.45 348.95 L-1716.45 28.8 -102.15 28.8 -102.15 348.95 -1716.45 348.95 M-1716.45 -189.7 L-1716.45 -509.95 -102.15 -509.95 -102.15 -189.7 -1716.45 -189.7" fill="#000000" fill-opacity="0.2" fill-rule="evenodd" stroke="none"/>
    <path d="M1912.2 473.25 L1912.2 510.4 Q1897.0 512.3 1887.1 517.95 1874.7 525.15 1871.3 537.95 1865.0 561.2 1867.45 755.25 1868.7 852.2 1871.3 944.6 L1835.4 949.2 1835.4 473.25 1912.2 473.25" fill="#000000" fill-opacity="0.29803923" fill-rule="evenodd" stroke="none"/>
    <path d="M1964.2 -904.65 L1964.2 473.25 1912.2 473.25 1835.4 473.25 1600.5 473.25 1600.5 965.6 -181.9 965.6 -1964.2 965.6 -1964.2 -710.4 66.6 -710.4 66.65 -710.4 66.6 -818.8 66.6 -904.65 1964.2 -904.65 M161.5 -789.4 L161.5 -735.2 1862.55 -735.2 1862.55 -789.4 161.5 -789.4 M242.15 -169.3 L1856.35 -169.3 1856.35 -651.45 242.15 -651.45 242.15 -169.3 M242.15 379.45 L1856.35 379.45 1856.35 -102.45 242.15 -102.45 242.15 379.45 M-1716.45 -189.7 L-102.15 -189.7 -102.15 -509.95 -1716.45 -509.95 -1716.45 -189.7 M-1716.45 348.95 L-102.15 348.95 -102.15 28.8 -1716.45 28.8 -1716.45 348.95 M-1716.45 537.0 L-1716.45 857.25 -102.15 857.25 -102.15 537.0 -1716.45 537.0" fill="#ffffff" fill-opacity="0.0" fill-rule="evenodd" stroke="none"/>
    <path d="M66.6 -904.65 L154.7 -965.6 1794.7 -965.6 1964.2 -904.65" fill="none" stroke="#000000" stroke-linecap="round" stroke-linejoin="round" stroke-width="1.0"/>
    <path d="M1964.2 -904.65 L1964.2 473.25 1912.2 473.25 1912.2 510.4 1912.2 965.6 1835.4 965.6 1835.4 949.2 1835.4 473.25 1600.5 473.25 1600.5 965.6 -181.9 965.6 -1964.2 965.6 -1964.2 -710.4 -1688.55 -818.8 66.6 -818.8 66.6 -904.65" fill="none" stroke="#000000" stroke-linecap="round" stroke-linejoin="miter-clip" stroke-miterlimit="4.0" stroke-width="1.0"/>
    <path d="M66.6 -710.4 L-1964.2 -710.4 M1835.4 473.25 L1912.2 473.25 M66.6 -818.8 L66.65 -710.4" fill="none" stroke="#000000" stroke-linecap="round" stroke-linejoin="miter-clip" stroke-miterlimit="4.0" stroke-opacity="0.6" stroke-width="1.0"/>
    <path d="M66.6 -904.65 L1964.2 -904.65" fill="none" stroke="#000000" stroke-linecap="round" stroke-linejoin="round" stroke-opacity="0.6" stroke-width="1.0"/>
  </g>
</svg>
