<?xml version="1.0" encoding="UTF-8" standalone="no"?>
<svg xmlns:xlink="http://www.w3.org/1999/xlink" height="207.7px" width="456.1px" xmlns="http://www.w3.org/2000/svg">
  <g transform="matrix(1.0, 0.0, 0.0, 1.0, 0.5, 2.6)">
    <path d="M0.0 167.55 L6.8 111.0 Q13.7 54.4 13.9 54.15 13.75 53.85 12.05 53.55 L10.35 53.25 10.8 50.55 14.35 50.8 Q15.3 47.8 15.1 46.8 14.8 45.25 13.55 43.9 L12.35 42.85 Q16.1 41.65 16.1 40.65 L15.95 31.15 Q15.2 25.15 11.7 24.9 10.3 24.65 9.4 25.85 8.95 26.4 8.75 27.05 L10.9 3.15 Q18.75 1.4 49.55 -0.1 L60.65 -0.6 Q97.85 -2.1 128.45 -2.1 166.6 -2.1 202.45 -0.1 268.7 3.6 326.9 14.15 L330.7 14.85 Q397.8 27.3 450.25 48.15 L455.1 50.1 450.05 91.45 445.0 90.65 446.05 80.3 Q446.05 73.65 443.65 70.5 441.7 68.0 438.5 68.0 434.8 68.0 433.35 73.9 L432.65 77.25 Q432.4 78.85 432.4 81.5 432.4 82.5 435.25 83.8 L433.55 84.45 Q431.85 85.35 431.9 86.6 431.95 88.6 432.75 89.9 L436.45 89.9 436.35 92.5 432.1 92.65 428.3 204.6 424.05 204.4 421.8 204.35 419.6 204.4 414.6 204.65 412.2 204.7 414.6 174.45 417.75 127.35 419.7 91.4 415.55 91.3 415.65 89.05 419.05 89.2 Q420.7 87.35 420.7 85.65 420.7 83.7 418.65 82.5 L421.35 81.15 Q421.9 76.05 420.05 71.7 L418.55 67.55 Q417.55 65.45 415.8 64.25 L412.35 62.0 Q411.0 61.25 409.95 61.3 L406.8 61.8 Q404.8 62.35 404.4 63.2 404.0 63.9 403.35 66.7 L402.9 68.6 Q401.9 73.15 401.95 74.65 L404.85 76.45 Q402.5 77.7 402.2 79.25 401.95 80.55 403.25 82.3 L406.05 82.4 405.85 84.45 401.0 84.5 401.0 92.9 Q401.55 112.75 397.95 195.8 L381.65 197.25 Q383.95 174.0 387.0 126.8 L389.55 84.25 385.45 84.25 385.5 82.15 388.85 82.15 Q389.6 81.5 389.65 80.55 L389.55 78.8 Q389.55 76.8 387.55 75.85 L390.25 74.45 390.55 70.6 Q390.9 68.15 390.75 66.7 L390.75 66.6 Q390.15 62.4 386.5 58.2 382.55 54.0 377.6 54.0 376.05 54.05 373.3 58.0 370.65 61.8 369.7 65.05 L372.45 66.85 Q367.7 69.4 370.15 72.8 L372.95 72.8 Q372.65 73.75 372.7 74.85 L367.8 74.95 366.55 125.0 364.7 187.8 349.25 186.9 Q350.3 175.05 353.45 123.75 L356.45 74.8 352.4 74.85 352.5 72.75 355.8 72.75 Q356.95 71.6 357.25 69.4 357.25 67.75 355.8 66.7 L355.25 66.35 358.05 64.9 Q358.25 62.4 357.0 57.3 L355.8 53.3 Q354.85 50.85 353.7 49.95 349.35 46.45 343.6 46.55 338.95 46.65 336.45 49.95 335.4 51.35 334.5 53.3 333.2 56.15 332.15 60.2 L334.95 62.2 Q331.4 64.25 331.7 66.7 331.8 67.6 332.45 68.55 L335.25 68.55 334.95 70.65 332.6 71.0 331.5 71.35 331.25 75.85 325.3 183.15 309.65 182.55 Q312.4 159.5 318.65 70.6 L314.55 70.65 Q314.55 69.5 314.7 68.5 L318.05 68.5 319.1 66.7 319.5 64.9 Q319.6 62.75 317.65 61.65 L320.45 60.05 Q320.35 56.65 319.55 53.0 L319.35 52.15 Q318.0 46.65 315.75 44.95 312.9 42.9 309.45 42.05 L303.75 41.45 299.95 42.05 297.65 42.95 Q296.7 43.4 295.75 44.0 L294.9 44.6 Q291.8 47.0 287.9 53.85 L290.8 55.8 Q285.95 59.35 288.5 62.9 L291.3 62.65 291.25 64.95 287.35 65.75 287.35 66.7 Q285.15 133.8 282.85 175.85 L280.95 175.9 267.0 176.45 Q268.85 156.25 274.6 65.85 L270.45 66.15 270.3 63.85 273.75 63.65 Q275.25 61.55 275.35 59.6 275.15 57.5 273.1 56.2 L275.85 54.4 Q273.9 46.1 271.45 42.05 L270.25 40.35 Q266.2 36.0 258.15 36.05 250.3 36.5 246.1 39.6 245.25 40.15 242.55 43.5 L238.7 48.6 241.8 50.7 Q239.3 52.5 239.1 54.5 238.95 56.2 240.45 58.25 L243.45 58.15 243.3 60.55 238.15 60.9 Q237.9 66.8 237.4 109.0 L236.55 170.25 220.0 171.0 Q220.9 162.25 223.55 110.9 L226.0 61.25 221.7 61.5 221.6 59.05 225.2 58.9 Q225.85 58.05 225.8 56.8 L225.7 54.65 Q225.55 52.35 223.35 51.0 L226.2 49.1 Q226.05 44.8 225.4 42.45 224.45 39.35 222.15 37.4 217.1 33.45 210.65 33.55 202.5 33.85 197.95 37.35 192.9 41.7 189.8 49.15 L192.8 51.5 Q188.3 54.65 191.25 59.0 L194.15 59.05 194.0 61.5 189.1 61.5 Q189.55 129.7 189.15 166.1 L173.3 165.5 Q174.8 138.4 177.65 60.8 L173.55 60.55 173.5 58.1 176.85 58.35 Q177.45 57.55 177.55 56.35 L177.55 54.2 Q177.5 51.85 175.35 50.25 L178.05 48.65 Q177.25 44.0 176.3 41.4 175.1 38.15 173.1 36.3 168.65 32.25 163.75 31.6 156.35 30.95 150.7 34.75 146.65 37.6 144.35 42.2 143.6 43.55 143.2 45.05 L146.1 47.75 Q141.3 50.85 143.85 55.15 L146.7 55.5 146.6 58.0 141.75 57.45 141.65 61.05 Q141.6 118.1 141.05 164.65 L135.0 164.2 124.9 163.25 Q127.0 126.65 130.05 59.4 L130.3 55.85 126.2 55.3 126.15 52.75 129.5 53.2 Q130.9 51.35 131.05 49.1 130.85 46.65 128.85 44.95 L131.45 43.45 131.45 43.25 131.1 40.15 Q130.25 36.65 126.95 33.75 123.35 30.75 118.95 29.8 114.3 29.15 110.4 31.55 L109.95 31.85 Q105.8 34.75 103.25 41.25 L106.4 43.85 Q101.85 47.35 104.9 51.6 L107.75 51.75 107.85 54.35 103.05 54.15 100.6 159.9 94.95 160.75 84.6 161.75 Q86.9 121.15 91.65 53.25 L87.65 53.0 87.2 50.35 90.55 50.55 Q91.85 48.5 91.7 46.25 91.25 43.8 89.15 42.15 90.3 41.3 91.6 40.4 92.0 37.85 91.55 35.7 91.2 33.7 90.0 30.5 88.65 27.5 85.45 26.9 79.1 25.9 75.75 28.3 71.85 31.25 70.3 40.2 L73.5 42.8 Q68.9 46.25 72.05 50.65 L74.85 50.8 74.95 53.5 70.05 53.3 68.25 162.1 56.1 162.9 52.35 163.25 56.1 99.95 58.75 52.7 56.1 52.6 54.7 52.6 54.25 49.85 56.1 49.9 57.7 50.0 Q58.95 47.75 58.8 45.5 58.35 43.0 56.25 41.45 L58.65 39.65 58.55 34.45 Q58.3 31.95 57.15 30.45 54.6 27.15 51.25 26.6 49.55 26.35 47.95 27.15 46.3 28.0 45.1 29.8 42.8 33.35 43.9 40.8 L47.0 43.25 45.5 44.75 Q43.1 47.8 45.6 51.35 L48.4 51.35 48.6 54.1 43.65 54.1 42.6 90.3 40.55 164.75 24.4 165.45 29.6 90.3 32.25 53.95 28.25 54.1 27.85 51.3 Q29.45 51.2 31.2 51.25 32.5 48.95 32.35 46.65 32.2 45.65 31.7 44.75 31.0 43.55 29.75 42.65 L32.15 40.75 Q32.9 39.0 32.4 35.0 31.65 31.05 30.9 29.75 29.9 28.55 28.7 28.4 26.65 28.3 24.75 31.2 22.7 34.3 22.0 41.25 L25.25 43.65 24.15 44.75 Q21.15 48.15 23.75 51.8 L26.6 51.7 Q26.5 53.1 26.75 54.45 L21.85 54.7 20.05 90.3 19.75 96.1 17.0 144.85 15.55 168.0 13.6 168.0 7.25 167.8 0.0 167.55" fill="#ffffff" fill-opacity="0.0" fill-rule="evenodd" stroke="none"/>
    <path d="M0.0 167.55 L6.8 111.0 Q13.7 54.4 13.9 54.15 13.75 53.85 12.05 53.55 L10.35 53.25 10.8 50.55 14.35 50.8 Q15.3 47.8 15.1 46.8 14.8 45.25 13.55 43.9 L12.35 42.85 Q16.1 41.65 16.1 40.65 L15.95 31.15 Q15.2 25.15 11.7 24.9 10.3 24.65 9.4 25.85 8.95 26.4 8.75 27.05 L10.9 3.15 Q18.75 1.4 49.55 -0.1 L60.65 -0.6 Q97.85 -2.1 128.45 -2.1 166.6 -2.1 202.45 -0.1 268.7 3.6 326.9 14.15 L330.7 14.85 Q397.8 27.3 450.25 48.15 L455.1 50.1 450.05 91.45 445.0 90.65 446.05 80.3 Q446.05 73.65 443.65 70.5 441.7 68.0 438.5 68.0 434.8 68.0 433.35 73.9 L432.65 77.25 Q432.4 78.85 432.4 81.5 432.4 82.5 435.25 83.8 L433.55 84.45 Q431.85 85.35 431.9 86.6 431.95 88.6 432.75 89.9 L436.45 89.9 436.35 92.5 432.1 92.65 428.3 204.6" fill="none" stroke="#000000" stroke-linecap="round" stroke-linejoin="round" stroke-opacity="0.6" stroke-width="1.0"/>
  </g>
</svg>
