<?xml version="1.0" encoding="UTF-8" standalone="no"?>
<svg xmlns:xlink="http://www.w3.org/1999/xlink" height="668.65px" width="514.2px" xmlns="http://www.w3.org/2000/svg">
  <g transform="matrix(1.0, 0.0, 0.0, 1.0, 513.7, 0.5)">
    <path d="M-506.7 556.3 L-508.55 557.65 -506.9 556.3 -506.7 556.3" fill="#e5e6e7" fill-rule="evenodd" stroke="none"/>
    <path d="M0.0 27.3 L0.0 36.95 -415.65 36.95 -513.2 164.45 -513.2 154.8 -419.75 32.75 -415.65 27.3 0.0 27.3 M0.0 106.15 L0.0 112.6 -283.2 112.6 -513.2 485.05 -513.2 465.45 -292.2 107.6 -291.3 106.15 0.0 106.15" fill="#000000" fill-opacity="0.2" fill-rule="evenodd" stroke="none"/>
    <path d="M0.0 51.6 L0.0 106.15 -291.3 106.15 -292.2 107.6 -319.4 91.6 -319.4 91.65 -352.45 72.25 -383.7 53.9 -383.75 53.9 -382.2 51.6 0.0 51.6 M0.0 127.25 L0.0 141.9 0.0 225.45 -38.15 225.45 -38.15 360.5 0.0 360.5 0.0 506.8 0.0 667.65 -513.2 667.65 -513.2 561.45 -508.55 557.65 -506.7 556.3 -439.05 506.8 -233.7 141.9 -257.8 127.8 -257.5 127.25 0.0 127.25 M-475.6 0.0 L0.0 0.0 0.0 27.3 -415.65 27.3 -419.75 32.75 -468.7 4.05 -468.75 4.05 -472.15 2.0 -475.6 0.0 M0.0 141.9 L-233.7 141.9 0.0 141.9 M-439.05 506.8 L0.0 506.8 -439.05 506.8" fill="#000000" fill-opacity="0.047058824" fill-rule="evenodd" stroke="none"/>
    <path d="M-513.2 465.45 L-513.2 239.2 -383.75 53.9 -383.7 53.9 -352.45 72.25 -319.4 91.65 -319.4 91.6 -292.2 107.6 -513.2 465.45 M-513.2 154.8 L-513.2 0.0 -475.6 0.0 -472.15 2.0 -468.75 4.05 -468.7 4.05 -419.75 32.75 -513.2 154.8 M-257.8 127.8 L-233.7 141.9 -439.05 506.8 -506.7 556.3 -506.9 556.3 -257.8 127.8" fill="#ffffff" fill-opacity="0.0" fill-rule="evenodd" stroke="none"/>
    <path d="M0.0 36.95 L0.0 51.6 -382.2 51.6 -383.75 53.9 -513.2 239.2 -513.2 164.45 -415.65 36.95 0.0 36.95 M0.0 112.6 L0.0 127.25 -257.5 127.25 -257.8 127.8 -506.9 556.3 -508.55 557.65 -513.2 561.45 -513.2 485.05 -283.2 112.6 0.0 112.6" fill="#ffffff" fill-opacity="0.2" fill-rule="evenodd" stroke="none"/>
    <path d="M0.0 667.65 L-513.2 667.65 -513.2 561.45 -513.2 485.05 -513.2 465.45 -513.2 239.2 -513.2 164.45 -513.2 154.8 -513.2 0.0 -475.6 0.0 0.0 0.0 M-319.4 91.65 L-319.4 91.6 M-292.2 107.6 L-291.3 106.15 M-257.8 127.8 L-257.5 127.25 M-383.75 53.9 L-383.7 53.9 M-468.75 4.05 L-468.7 4.05 M-475.6 0.0 L-472.15 2.0 M-506.7 556.3 L-506.9 556.3 -508.55 557.65" fill="none" stroke="#000000" stroke-linecap="round" stroke-linejoin="miter-clip" stroke-miterlimit="4.0" stroke-opacity="0.6" stroke-width="1.0"/>
    <path d="M0.0 27.3 L-415.65 27.3 -419.75 32.75 -513.2 154.8 M-319.4 91.6 L-292.2 107.6 -513.2 465.45 M-291.3 106.15 L0.0 106.15 M-257.5 127.25 L0.0 127.25 M-257.8 127.8 L-233.7 141.9 0.0 141.9 M-383.7 53.9 L-352.45 72.25 -319.4 91.65 M-383.75 53.9 L-382.2 51.6 0.0 51.6 M-472.15 2.0 L-468.75 4.05 M-468.7 4.05 L-419.75 32.75 M-513.2 239.2 L-383.75 53.9 M-508.55 557.65 L-506.7 556.3 -439.05 506.8 -233.7 141.9 M-508.55 557.65 L-513.2 561.45 M-506.9 556.3 L-257.8 127.8 M0.0 506.8 L-439.05 506.8" fill="none" stroke="#000000" stroke-linecap="round" stroke-linejoin="miter-clip" stroke-miterlimit="4.0" stroke-width="1.0"/>
  </g>
</svg>
