<?xml version="1.0" encoding="UTF-8" standalone="no"?>
<svg xmlns:xlink="http://www.w3.org/1999/xlink" height="977.45px" width="1444.9px" xmlns="http://www.w3.org/2000/svg">
  <g transform="matrix(1.0, 0.0, 0.0, 1.0, 0.5, 0.5)">
    <path d="M1443.9 976.45 L11.7 906.05 0.0 358.0 722.0 0.0 1424.75 342.3 1443.9 976.45 M909.75 440.4 L826.95 405.0 104.9 748.45 104.1 882.4 1342.0 946.45 1311.2 611.85 1095.7 519.8 1311.2 396.2 1293.55 334.45 1016.0 485.75 951.9 458.4 Q1096.35 378.85 1240.75 299.25 L1208.45 275.9 909.75 440.4 M964.9 137.95 L932.55 111.55 31.6 586.95 75.65 628.1 964.9 137.95" fill="#ffffff" fill-opacity="0.0" fill-rule="evenodd" stroke="none"/>
    <path d="M909.75 440.4 L1208.45 275.9 1240.75 299.25 Q1096.35 378.85 951.9 458.4 L201.75 871.65 137.25 865.75 909.75 440.4 M1016.0 485.75 L1293.55 334.45 1311.2 396.2 1095.7 519.8 492.35 865.75 313.3 868.75 1016.0 485.75 M964.9 137.95 L75.65 628.1 31.6 586.95 932.55 111.55 964.9 137.95" fill="#ffffff" fill-opacity="0.34901962" fill-rule="evenodd" stroke="none"/>
    <path d="M1095.7 519.8 L1311.2 611.85 1342.0 946.45 104.1 882.4 104.9 748.45 826.95 405.0 909.75 440.4 137.25 865.75 201.75 871.65 951.9 458.4 1016.0 485.75 313.3 868.75 492.35 865.75 1095.7 519.8" fill="#000000" fill-opacity="0.14901961" fill-rule="evenodd" stroke="none"/>
    <path d="M1443.9 976.45 L11.7 906.05 0.0 358.0 722.0 0.0 1424.75 342.3 1443.9 976.45 Z" fill="none" stroke="#000000" stroke-linecap="round" stroke-linejoin="miter-clip" stroke-miterlimit="4.0" stroke-width="1.0"/>
  </g>
</svg>
