<?xml version="1.0" encoding="UTF-8" standalone="no"?>
<svg xmlns:xlink="http://www.w3.org/1999/xlink" height="198.25px" width="758.55px" xmlns="http://www.w3.org/2000/svg">
  <g transform="matrix(1.0, 0.0, 0.0, 1.0, 0.5, 0.5)">
    <path d="M524.85 13.45 L524.85 0.0 754.8 0.0 755.5 0.15 Q756.3 0.35 756.75 0.8 757.45 1.5 757.55 3.2 L757.55 13.45 524.85 13.45 M326.45 53.4 L196.4 94.05 Q104.15 122.45 86.95 124.5 69.7 126.55 39.8 122.55 24.85 120.55 13.35 118.15 L8.8 107.4 0.0 89.7 Q-0.55 89.15 108.4 68.4 L217.45 47.75 220.65 51.45 Q224.75 55.5 229.55 57.3 234.35 59.1 239.55 59.65 L243.85 59.85 316.35 29.65 326.45 53.4" fill="#ffffff" fill-opacity="0.14901961" fill-rule="evenodd" stroke="none"/>
    <path d="M757.55 29.25 Q757.6 30.2 756.75 31.1 L755.7 31.85 755.25 31.9 709.45 32.7 700.4 33.5 699.1 34.7 Q697.45 35.9 695.8 35.9 L524.85 37.5 524.85 13.45 757.55 13.45 757.55 29.25 M326.45 53.4 L333.65 70.3 21.3 197.25 17.8 182.6 19.05 167.35 Q20.1 149.8 18.95 138.55 18.15 130.55 13.35 118.15 24.85 120.55 39.8 122.55 69.7 126.55 86.95 124.5 104.15 122.45 196.4 94.05 L326.45 53.4" fill="#ffffff" fill-opacity="0.0" fill-rule="evenodd" stroke="none"/>
    <path d="M757.55 29.25 Q757.6 30.2 756.75 31.1 L755.7 31.85 755.25 31.9 709.45 32.7 700.4 33.5 699.1 34.7 Q697.45 35.9 695.8 35.9 L524.85 37.5 M524.85 0.0 L754.8 0.0 755.5 0.15 Q756.3 0.35 756.75 0.8 757.45 1.5 757.55 3.2 M13.35 118.15 Q18.15 130.55 18.95 138.55 20.1 149.8 19.05 167.35 L17.8 182.6 21.3 197.25 333.65 70.3 326.45 53.4 316.35 29.65 243.85 59.85 239.55 59.65 Q234.35 59.1 229.55 57.3 224.75 55.5 220.65 51.45 L217.45 47.75 108.4 68.4 Q-0.55 89.15 0.0 89.7 L8.8 107.4 13.35 118.15" fill="none" stroke="#000000" stroke-linecap="round" stroke-linejoin="round" stroke-width="1.0"/>
    <path d="M524.85 37.5 L524.85 13.45 524.85 0.0 M757.55 3.2 L757.55 13.45 757.55 29.25 Z" fill="none" stroke="#000000" stroke-linecap="round" stroke-linejoin="round" stroke-opacity="0.4" stroke-width="1.0"/>
  </g>
</svg>
