<?xml version="1.0" encoding="UTF-8" standalone="no"?>
<svg xmlns:xlink="http://www.w3.org/1999/xlink" height="36.3px" width="96.85px" xmlns="http://www.w3.org/2000/svg">
  <g transform="matrix(1.0, 0.0, 0.0, 1.0, 0.5, 0.5)">
    <path d="M80.85 22.7 L81.35 24.35 83.25 20.75 83.15 20.7 83.45 20.4 82.8 20.45 79.4 18.2 80.15 20.6 77.0 20.75 79.95 23.45 80.85 22.7 M92.2 27.0 L88.45 25.55 86.35 29.65 92.2 27.0 M95.85 35.3 L0.0 35.3 0.0 0.0 95.85 0.0 95.85 35.3 M68.25 25.4 L71.55 24.85 68.3 22.45 67.8 23.05 67.2 20.15 64.95 23.5 66.35 24.65 65.2 25.9 67.4 25.55 68.45 26.45 68.25 25.4 M71.15 18.95 L76.1 14.8 72.1 14.45 71.15 18.95 M51.95 22.6 L56.9 18.45 52.9 18.05 51.95 22.6 M56.7 16.3 L60.25 18.15 62.8 14.35 56.7 16.3 M48.25 25.1 L48.0 23.8 47.5 24.6 45.6 23.3 42.65 26.85 46.5 26.1 45.75 27.15 49.25 30.1 48.4 25.7 48.95 25.55 48.25 25.1 M38.85 19.5 L37.5 19.95 41.05 21.8 43.6 17.95 40.25 19.05 41.55 17.5 38.4 14.15 38.85 19.5 M77.55 26.0 L73.05 30.6 77.1 30.55 77.55 26.0 M64.25 24.05 L57.8 24.35 60.75 27.1 64.25 24.05 M24.1 17.7 L23.6 17.2 23.7 18.0 22.85 18.55 23.75 18.6 24.2 23.6 26.8 20.55 25.0 18.7 29.25 18.9 26.6 15.9 24.1 17.7 M14.75 27.9 L18.65 28.75 20.1 24.35 14.75 27.9 M8.1 21.55 L14.5 21.95 11.85 18.9 8.1 21.55 M29.5 24.9 L33.45 25.7 34.85 21.35 29.5 24.9 M30.85 26.35 L27.9 29.85 34.2 28.6 30.85 26.35" fill="#ffffff" fill-opacity="0.003921569" fill-rule="evenodd" stroke="none"/>
    <path d="M83.15 20.7 L83.25 20.75 81.35 24.35 80.85 22.7 80.15 20.6 79.4 18.2 82.8 20.45 83.15 20.7 M92.2 27.0 L86.35 29.65 88.45 25.55 92.2 27.0 M67.8 23.05 L68.3 22.45 71.55 24.85 68.25 25.4 67.4 25.55 65.2 25.9 66.35 24.65 67.8 23.05 M51.95 22.6 L52.9 18.05 56.9 18.45 51.95 22.6 M47.5 24.6 L48.0 23.8 48.25 25.1 48.4 25.7 49.25 30.1 45.75 27.15 46.5 26.1 47.5 24.6 M40.25 19.05 L43.6 17.95 41.05 21.8 37.5 19.95 38.85 19.5 40.25 19.05 M77.55 26.0 L77.1 30.55 73.05 30.6 77.55 26.0 M64.25 24.05 L60.75 27.1 57.8 24.35 64.25 24.05 M23.7 18.0 L23.6 17.2 24.1 17.7 23.7 18.0 M25.0 18.7 L26.8 20.55 24.2 23.6 23.75 18.6 25.0 18.7 M8.1 21.55 L11.85 18.9 14.5 21.95 8.1 21.55 M14.75 27.9 L20.1 24.35 18.65 28.75 14.75 27.9 M30.85 26.35 L34.2 28.6 27.9 29.85 30.85 26.35" fill="#000000" fill-opacity="0.2" fill-rule="evenodd" stroke="none"/>
    <path d="M82.8 20.45 L83.45 20.4 83.15 20.7 82.8 20.45" fill="#ffffff" fill-rule="evenodd" stroke="none"/>
    <path d="M80.85 22.7 L79.95 23.45 77.0 20.75 80.15 20.6 80.85 22.7 M68.25 25.4 L68.45 26.45 67.4 25.55 68.25 25.4 M66.35 24.65 L64.95 23.5 67.2 20.15 67.8 23.05 66.35 24.65 M71.15 18.95 L72.1 14.45 76.1 14.8 71.15 18.95 M56.7 16.3 L62.8 14.35 60.25 18.15 56.7 16.3 M48.25 25.1 L48.95 25.55 48.4 25.7 48.25 25.1 M46.5 26.1 L42.65 26.85 45.6 23.3 47.5 24.6 46.5 26.1 M38.85 19.5 L38.4 14.15 41.55 17.5 40.25 19.05 38.85 19.5 M23.7 18.0 L24.1 17.7 26.6 15.9 29.25 18.9 25.0 18.7 23.75 18.6 22.85 18.55 23.7 18.0 M29.5 24.9 L34.85 21.35 33.45 25.7 29.5 24.9" fill="#ffffff" fill-opacity="0.2" fill-rule="evenodd" stroke="none"/>
    <path d="M95.85 35.3 L0.0 35.3 0.0 0.0 95.85 0.0 95.85 35.3 Z" fill="none" stroke="#000000" stroke-linecap="round" stroke-linejoin="miter-clip" stroke-miterlimit="4.0" stroke-width="1.0"/>
  </g>
</svg>
