<?xml version="1.0" encoding="UTF-8" standalone="no"?>
<svg xmlns:xlink="http://www.w3.org/1999/xlink" height="835.5px" width="1546.15px" xmlns="http://www.w3.org/2000/svg">
  <g transform="matrix(1.0, 0.0, 0.0, 1.0, 794.15, 226.45)">
    <path d="M49.25 -226.45 L81.0 -226.45 81.0 -167.95 -103.25 16.3 -103.25 -73.95 49.25 -226.45 M81.0 -77.5 L81.0 60.25 -56.75 60.25 81.0 -77.5 M-103.25 -138.55 L-103.25 -226.45 -15.35 -226.45 -103.25 -138.55 M601.2 -168.2 L601.2 -83.6 457.3 60.25 416.95 60.25 416.95 16.05 601.2 -168.2 M601.2 -27.65 L601.2 60.25 513.3 60.25 601.2 -27.65 M416.95 -71.55 L416.95 -226.45 571.85 -226.45 416.95 -71.55 M363.85 564.6 L364.9 413.75 364.95 413.7 365.05 413.5 365.15 413.35 365.2 413.3 365.5 412.8 366.05 412.1 366.2 411.8 366.5 411.35 368.3 409.0 368.7 408.5 Q371.0 405.55 373.95 402.35 L384.75 391.65 388.65 388.3 Q419.0 362.85 461.75 349.8 484.2 344.2 507.95 341.0 530.35 337.95 549.05 337.7 571.35 337.45 589.9 338.55 L363.85 564.6 M661.6 352.8 Q701.9 366.8 726.15 386.55 L729.4 389.2 731.4 390.95 735.7 395.0 521.6 609.05 405.35 609.05 661.6 352.8 M751.3 454.55 L748.7 609.05 596.8 609.05 751.3 454.55 M-451.95 -226.45 L-439.2 -226.45 -439.2 -124.0 -623.4 60.25 -623.45 60.25 -623.45 -54.95 -451.95 -226.45 M-439.2 -31.85 L-439.2 60.25 -531.25 60.25 -439.2 -31.85 M-623.45 -102.25 L-623.45 -226.45 -499.25 -226.45 -623.45 -102.25 M-793.15 467.55 L-792.8 413.75 -792.75 413.7 -792.65 413.5 -792.55 413.35 -792.5 413.3 -792.2 412.8 -791.65 412.1 -791.5 411.8 -791.2 411.35 -789.4 409.0 -789.0 408.5 -783.75 402.35 -781.85 400.3 -773.15 391.85 -772.95 391.65 -769.05 388.3 Q-738.75 362.85 -695.95 349.8 -682.35 346.4 -669.6 343.95 L-793.15 467.55 M-594.5 337.75 Q-557.3 338.35 -532.2 343.5 -490.05 354.4 -461.35 370.15 L-697.7 606.5 -794.15 606.5 -793.65 536.9 -594.5 337.75 M-410.85 418.7 L-414.1 606.5 -598.7 606.5 -410.85 418.7" fill="#ffffff" fill-opacity="0.0" fill-rule="evenodd" stroke="none"/>
    <path d="M81.0 -167.95 L81.0 -77.5 -56.75 60.25 -103.25 60.25 -103.25 16.3 81.0 -167.95 M-103.25 -73.95 L-103.25 -138.55 -15.35 -226.45 49.25 -226.45 -103.25 -73.95 M571.85 -226.45 L601.2 -226.45 601.2 -168.2 416.95 16.05 416.95 -71.55 571.85 -226.45 M601.2 -83.6 L601.2 -27.65 513.3 60.25 457.3 60.25 601.2 -83.6 M363.85 564.6 L589.9 338.55 590.35 338.6 Q613.35 339.95 630.6 343.5 647.15 347.8 661.6 352.8 L405.35 609.05 363.55 609.05 363.85 564.6 M735.7 395.0 L738.8 397.9 741.3 400.55 742.95 402.35 Q746.55 406.3 749.45 410.1 L750.3 411.25 750.85 412.05 751.0 412.25 752.0 413.75 751.3 454.55 596.8 609.05 521.6 609.05 735.7 395.0 M-439.2 -124.0 L-439.2 -31.85 -531.25 60.25 -623.4 60.25 -439.2 -124.0 M-623.45 -54.95 L-623.45 -102.25 -499.25 -226.45 -451.95 -226.45 -623.45 -54.95 M-793.15 467.55 L-669.6 343.95 Q-639.1 338.1 -613.75 337.7 -603.75 337.6 -594.5 337.75 L-793.65 536.9 -793.15 467.55 M-461.35 370.15 Q-447.4 377.8 -436.65 386.55 L-433.4 389.2 -431.4 390.95 -424.0 397.9 -421.5 400.55 -419.85 402.35 Q-416.25 406.3 -413.35 410.1 L-412.5 411.25 -411.95 412.05 -411.8 412.25 -410.8 413.75 -410.85 418.7 -598.7 606.5 -697.7 606.5 -461.35 370.15" fill="#ffffff" fill-opacity="0.29803923" fill-rule="evenodd" stroke="none"/>
  </g>
</svg>
