<?xml version="1.0" encoding="UTF-8" standalone="no"?>
<svg xmlns:xlink="http://www.w3.org/1999/xlink" height="839.0px" width="354.1px" xmlns="http://www.w3.org/2000/svg">
  <g transform="matrix(1.0, 0.0, 0.0, 1.0, 176.9, 418.6)">
    <path d="M-24.9 -95.85 L51.0 -95.95 52.75 -95.6 57.4 -95.95 72.3 -96.0 175.15 -96.0 175.15 -94.9 175.15 -94.55 175.15 -84.4 -82.5 -84.85 -104.0 -84.85 -136.2 -84.5 -144.25 -84.45 -150.25 -84.35 -168.4 -84.4 -170.85 -83.95 Q-172.75 -83.95 -174.25 -85.25 -175.8 -86.6 -175.9 -89.65 -176.0 -92.75 -174.5 -94.2 -173.05 -95.7 -170.95 -95.7 L-56.45 -95.85 -24.9 -95.85 M57.4 -95.95 L52.75 -95.6 51.0 -95.95 57.4 -95.95" fill="#000000" fill-rule="evenodd" stroke="none"/>
    <path d="M127.7 -409.85 L142.0 -317.1 148.55 -317.3 Q160.5 -314.85 165.95 -307.55 167.6 -305.3 168.45 -302.8 L168.95 -300.8 M129.5 -278.25 Q132.35 -268.5 141.9 -261.15 155.1 -250.9 163.1 -237.8 172.15 -223.05 171.2 -209.5 170.0 -193.7 152.4 -185.3 L152.2 -185.2 Q138.4 -178.85 117.1 -177.8 M142.0 -317.1 L142.05 -316.8 M151.95 -301.0 Q150.95 -302.35 149.3 -302.05 147.75 -301.85 146.85 -300.45 145.85 -298.95 146.5 -297.55 147.35 -295.75 150.35 -294.6 156.2 -292.4 159.7 -296.2 163.05 -299.85 160.9 -304.65 156.1 -315.3 145.55 -310.2 137.25 -306.1 131.95 -297.5 126.3 -288.4 129.25 -278.25 M28.9 -382.3 L80.0 -281.75 91.7 -281.7 Q93.4 -281.65 99.15 -286.7 L111.75 -298.0 Q131.05 -315.0 142.0 -317.1 M-19.05 -356.2 L48.2 -268.4 Q47.9 -270.05 48.4 -271.7 49.4 -274.95 53.15 -277.15 59.8 -281.0 74.15 -281.75 L80.0 -281.75 M49.1 -265.9 Q48.55 -266.8 48.3 -267.9 L48.3 -267.95 48.2 -268.4 M64.95 -273.25 Q67.15 -271.35 67.85 -268.95 69.25 -264.3 62.05 -262.0 L61.85 -261.9 Q57.7 -260.75 54.2 -262.0 50.95 -263.15 49.35 -265.9 M31.45 -204.9 L33.15 -124.0 Q43.9 -132.4 53.55 -132.25 L55.35 -132.1 55.35 -221.4 Q45.3 -211.05 29.65 -204.8 L28.1 -204.15 Q5.6 -195.65 -24.9 -196.65 L-24.9 -95.85 51.0 -95.95 Q46.9 -97.2 44.25 -102.25 42.45 -105.7 43.65 -109.45 44.7 -112.8 47.45 -114.95 50.2 -117.1 52.65 -116.65 55.35 -116.15 56.2 -112.4 M71.55 -252.0 Q67.3 -233.85 55.5 -221.55 L55.35 -221.4 M119.9 -272.0 Q124.25 -270.8 126.6 -266.85 128.55 -263.1 128.35 -258.75 L128.35 -258.7 Q127.95 -254.3 125.05 -251.7 M124.8 -251.7 Q121.5 -248.75 116.3 -249.45 110.6 -250.2 110.05 -253.75 109.6 -256.6 112.55 -259.7 115.4 -262.7 117.7 -262.1 120.35 -261.4 119.4 -255.7 M109.0 -236.75 Q99.8 -243.85 98.0 -250.95 97.05 -254.6 98.4 -258.9 99.65 -263.15 102.7 -266.55 109.9 -274.7 119.65 -272.0 M116.85 -177.8 Q107.85 -177.35 99.75 -181.85 92.1 -186.15 87.8 -193.15 83.4 -200.4 84.05 -207.75 84.8 -215.8 91.6 -221.55 100.25 -228.85 109.8 -229.5 116.55 -229.95 121.3 -226.55 L121.45 -226.45 Q119.6 -228.75 116.65 -231.1 L109.25 -236.75 M124.15 -204.55 Q120.95 -201.1 116.7 -200.75 111.9 -200.3 106.85 -204.0 102.95 -206.9 103.25 -211.0 103.65 -215.25 108.35 -217.0 L113.6 -217.3 Q115.75 -216.65 116.65 -214.8 117.55 -213.0 116.65 -211.2 115.6 -209.2 112.65 -208.2 M126.25 -221.2 Q128.65 -217.2 128.0 -212.4 127.4 -207.85 124.4 -204.55 M121.45 -226.45 Q124.05 -224.4 126.0 -221.2 M168.7 -197.5 Q166.35 -191.9 164.4 -188.8 162.3 -185.45 158.15 -181.05 L158.05 -180.9 Q154.1 -176.9 152.75 -174.1 150.6 -169.55 153.4 -165.9 156.05 -162.4 161.2 -162.5 166.5 -162.65 168.45 -166.8 169.35 -168.65 168.7 -170.75 168.05 -172.6 166.5 -173.8 164.85 -174.95 163.25 -174.65 161.45 -174.25 160.4 -171.95 M72.2 -265.65 L72.3 -113.2 75.85 -119.3 Q78.55 -123.7 83.15 -126.05 87.1 -128.15 94.0 -129.9 L105.45 -132.7 Q121.25 -137.0 125.35 -138.4 137.7 -142.8 142.2 -148.2 147.9 -154.95 146.85 -162.95 145.7 -171.65 137.05 -174.25 128.3 -176.95 121.95 -174.7 114.95 -172.15 114.25 -164.3 114.05 -161.0 115.9 -157.8 117.25 -155.65 119.3 -153.75 125.3 -148.2 131.05 -152.25 133.5 -153.95 133.5 -156.8 133.5 -159.3 131.7 -161.5 129.85 -163.75 127.6 -163.95 124.95 -164.25 123.0 -161.75 M115.9 -157.8 Q112.3 -161.35 107.8 -167.05 102.65 -172.05 94.55 -171.75 85.95 -171.5 79.7 -166.95 72.65 -161.75 74.75 -154.8 75.65 -151.75 79.7 -149.2 83.5 -146.75 88.5 -145.75 93.75 -144.75 97.55 -145.85 102.0 -147.05 103.4 -150.7 104.6 -153.75 102.65 -156.25 100.65 -158.7 97.05 -158.95 93.15 -159.15 90.95 -156.55 88.7 -153.9 93.25 -152.7 M95.5 -110.1 Q101.3 -114.05 105.6 -111.1 107.35 -109.85 107.35 -107.9 107.35 -105.8 105.3 -103.6 L105.2 -103.45 Q101.75 -100.4 96.25 -99.55 90.3 -98.65 86.85 -101.45 82.5 -105.0 82.45 -108.95 82.4 -112.45 85.7 -115.3 88.85 -118.1 93.6 -119.1 L102.9 -118.7 103.1 -118.65 Q107.6 -117.05 112.85 -113.7 L121.9 -107.6 Q133.0 -100.5 143.25 -101.45 156.35 -102.7 162.35 -109.8 168.9 -117.45 162.0 -127.3 158.25 -132.6 149.65 -134.5 140.7 -136.5 135.5 -132.15 L135.35 -132.0 Q130.7 -128.05 132.6 -122.05 134.5 -116.05 140.75 -114.45 143.55 -113.7 146.15 -114.55 148.5 -115.3 149.55 -116.9 150.65 -118.55 149.7 -120.1 148.6 -121.8 145.25 -122.65 M4.15 -197.7 L4.15 -165.5 7.55 -165.4 Q15.05 -164.8 21.45 -158.1 28.25 -150.95 26.35 -143.5 25.2 -138.85 19.35 -136.05 14.45 -133.75 8.85 -133.6 2.3 -133.45 -0.7 -138.95 -3.7 -144.4 -0.1 -149.7 3.45 -154.8 8.3 -153.7 13.3 -152.6 11.8 -146.05 M33.15 -124.0 L23.55 -116.35 Q17.95 -112.1 13.7 -110.1 2.15 -104.75 -9.3 -110.95 -18.75 -116.15 -22.05 -125.85 -25.0 -134.85 -21.95 -144.45 -18.95 -154.15 -11.35 -159.95 -4.45 -165.25 4.15 -165.5 M55.35 -131.75 L55.35 -132.1 Q65.3 -131.0 69.85 -119.15 72.0 -113.7 69.6 -107.65 67.45 -102.15 62.55 -98.6 59.85 -96.65 57.4 -95.95 L72.3 -96.0 72.3 -113.2 M51.0 -95.95 L52.75 -95.6 57.4 -95.95 51.0 -95.95 M22.75 -10.2 Q18.85 -12.15 18.35 -14.65 17.95 -16.85 20.2 -18.7 22.35 -20.45 25.75 -20.95 29.4 -21.5 32.6 -20.15 36.9 -18.35 37.7 -15.5 38.45 -12.95 36.35 -10.1 34.4 -7.45 30.8 -5.6 27.9 -4.1 24.95 -3.7 L23.25 -3.55 19.85 -3.7 Q13.15 -4.6 9.85 -10.5 6.25 -17.0 8.75 -23.75 10.75 -29.2 17.25 -34.95 L29.05 -44.5 Q36.55 -50.95 39.3 -57.05 40.8 -60.45 41.4 -65.2 L41.65 -68.05 41.65 -71.5 41.65 -72.35 41.65 -72.6 -0.9 -72.6 -0.9 -72.35 -0.9 411.7 165.55 411.7 165.55 -72.6 126.65 -72.6 126.65 -72.35 126.65 -66.6 Q127.05 -60.65 128.35 -57.05 130.7 -50.75 137.9 -44.5 145.95 -38.25 149.7 -34.95 156.2 -29.2 158.2 -23.75 160.7 -17.0 157.1 -10.5 153.8 -4.6 147.1 -3.7 L143.7 -3.55 142.05 -3.7 Q139.05 -4.1 136.15 -5.6 132.55 -7.45 130.6 -10.1 128.5 -12.95 129.25 -15.5 130.05 -18.35 134.35 -20.15 137.55 -21.5 141.2 -20.95 144.6 -20.45 146.8 -18.7 149.05 -16.85 148.6 -14.65 148.1 -12.15 144.2 -10.2 M41.65 -68.05 L41.75 -70.0 41.75 -70.65 41.65 -71.5 M41.75 -70.0 Q41.95 -61.6 43.6 -57.05 45.95 -50.75 53.15 -44.5 L64.95 -34.95 Q71.45 -29.2 73.45 -23.75 75.95 -17.0 72.35 -10.5 69.05 -4.6 62.35 -3.7 L58.95 -3.55 57.3 -3.7 Q54.3 -4.1 51.4 -5.6 47.8 -7.45 45.85 -10.1 43.75 -12.95 44.5 -15.5 45.3 -18.35 49.6 -20.15 52.8 -21.5 56.45 -20.95 59.85 -20.45 62.05 -18.7 64.3 -16.85 63.85 -14.65 63.35 -12.15 59.45 -10.2 M107.5 -10.2 Q103.6 -12.15 103.1 -14.65 102.7 -16.85 104.95 -18.7 107.1 -20.45 110.5 -20.95 114.15 -21.5 117.35 -20.15 121.65 -18.35 122.45 -15.5 123.2 -12.95 121.1 -10.1 119.15 -7.45 115.55 -5.6 112.65 -4.1 109.7 -3.7 L108.0 -3.55 104.6 -3.7 Q97.9 -4.6 94.6 -10.5 91.0 -17.0 93.5 -23.75 95.5 -29.2 102.0 -34.95 L113.8 -44.5 Q121.3 -50.95 124.05 -57.05 125.55 -60.45 126.15 -65.2 L126.4 -68.05 126.4 -71.5 126.5 -70.65 126.5 -70.0 126.65 -66.6 126.65 92.25 126.75 93.1 126.75 93.75 Q126.95 102.15 128.6 106.7 130.95 113.0 138.15 119.25 146.2 125.5 149.95 128.8 156.45 134.55 158.45 140.0 160.95 146.75 157.35 153.25 153.25 160.55 143.95 160.2 140.1 160.05 136.4 158.15 132.8 156.3 130.85 153.65 128.75 150.8 129.5 148.25 130.3 145.4 134.6 143.6 137.8 142.25 141.45 142.8 144.85 143.3 147.05 145.05 149.3 146.9 148.85 149.1 148.35 151.6 144.45 153.55 M126.4 -68.05 L126.5 -70.0 M126.65 -72.6 L84.15 -72.6 84.15 -72.35 84.15 411.4 M84.15 -72.6 L41.65 -72.6 M-24.9 -95.85 L-56.45 -95.85 -170.95 -95.7 Q-173.05 -95.7 -174.5 -94.2 -176.0 -92.75 -175.9 -89.65 -175.8 -86.6 -174.25 -85.25 -172.75 -83.95 -170.85 -83.95 L-168.4 -84.4 -150.25 -84.35 -144.25 -84.45 -136.2 -84.5 -104.0 -84.85 -82.5 -84.85 175.15 -84.4 175.15 -94.55 175.15 -94.9 175.15 -96.0 72.3 -96.0 M-150.25 -84.35 L-170.85 -83.95 -172.4 -83.05 Q-174.0 -81.6 -174.0 -79.75 L-174.0 413.85 Q-174.0 415.85 -172.35 417.1 -170.75 418.45 -168.4 418.45 L170.95 418.45 Q173.35 418.45 174.9 417.1 L175.9 416.2 Q175.15 415.2 175.15 413.85 L175.15 -73.4 175.15 -78.15 175.15 -84.4 M78.0 -399.95 L110.8 -297.65 M175.15 -96.0 L175.15 -417.6 M107.75 153.55 Q103.85 151.6 103.35 149.1 102.95 146.9 105.2 145.05 107.35 143.3 110.75 142.8 114.4 142.25 117.6 143.6 121.9 145.4 122.7 148.25 123.45 150.8 121.35 153.65 119.4 156.3 115.8 158.15 112.1 160.05 108.25 160.2 98.95 160.55 94.85 153.25 91.25 146.75 93.75 140.0 95.75 134.55 102.25 128.8 110.3 122.5 114.05 119.25 121.55 112.8 124.3 106.7 125.8 103.3 126.4 98.55 L126.65 95.7 126.65 92.25 M126.65 95.7 L126.75 93.75 M22.75 153.55 Q18.85 151.6 18.35 149.1 17.95 146.9 20.2 145.05 22.35 143.3 25.75 142.8 29.4 142.25 32.6 143.6 36.9 145.4 37.7 148.25 38.45 150.8 36.35 153.65 34.4 156.3 30.8 158.15 27.1 160.05 23.25 160.2 13.95 160.55 9.85 153.25 6.25 146.75 8.75 140.0 10.75 134.55 17.25 128.8 L29.05 119.25 Q36.55 112.8 39.3 106.7 40.8 103.3 41.4 98.55 L41.65 95.7 41.65 92.25 41.65 -68.05 M41.65 95.7 L41.75 93.75 41.75 93.1 41.65 92.25 M41.75 93.75 Q41.95 102.15 43.6 106.7 45.95 113.0 53.15 119.25 L64.95 128.8 Q71.45 134.55 73.45 140.0 75.95 146.75 72.35 153.25 68.25 160.55 58.95 160.2 55.1 160.05 51.4 158.15 47.8 156.3 45.85 153.65 43.75 150.8 44.5 148.25 45.3 145.4 49.6 143.6 52.8 142.25 56.45 142.8 59.85 143.3 62.05 145.05 64.3 146.9 63.85 149.1 63.35 151.6 59.45 153.55 M22.75 170.6 Q18.85 172.55 18.35 175.05 17.95 177.25 20.2 179.1 22.35 180.85 25.75 181.35 29.4 181.9 32.6 180.55 36.9 178.75 37.7 175.9 38.45 173.35 36.35 170.5 34.4 167.85 30.8 166.0 27.1 164.1 23.25 163.95 13.95 163.6 9.85 170.9 6.25 177.4 8.75 184.15 10.75 189.6 17.25 195.35 L29.05 204.9 Q36.55 211.35 39.3 217.45 40.8 220.85 41.4 225.6 L41.65 228.2 41.65 95.7 M41.65 228.2 L41.75 230.6 Q41.9 222.1 43.6 217.45 45.95 211.15 53.15 204.9 L64.95 195.35 Q71.45 189.6 73.45 184.15 75.95 177.4 72.35 170.9 68.25 163.6 58.95 163.95 55.1 164.1 51.4 166.0 47.8 167.85 45.85 170.5 43.75 173.35 44.5 175.9 45.3 178.75 49.6 180.55 52.8 181.9 56.45 181.35 59.85 180.85 62.05 179.1 64.3 177.25 63.85 175.05 63.35 172.55 59.45 170.6 M107.75 170.6 Q103.85 172.55 103.35 175.05 102.95 177.25 105.2 179.1 107.35 180.85 110.75 181.35 114.4 181.9 117.6 180.55 121.9 178.75 122.7 175.9 123.45 173.35 121.35 170.5 119.4 167.85 115.8 166.0 112.1 164.1 108.25 163.95 98.95 163.6 94.85 170.9 91.25 177.4 93.75 184.15 95.75 189.6 102.25 195.35 110.3 201.65 114.05 204.9 121.55 211.35 124.3 217.45 125.8 220.85 126.4 225.6 L126.65 228.2 126.65 95.7 M126.65 228.2 L126.75 230.6 Q126.9 222.1 128.6 217.45 130.95 211.15 138.15 204.9 146.2 198.65 149.95 195.35 156.45 189.6 158.45 184.15 160.95 177.4 157.35 170.9 153.25 163.6 143.95 163.95 140.1 164.1 136.4 166.0 132.8 167.85 130.85 170.5 128.75 173.35 129.5 175.9 130.3 178.75 134.6 180.55 137.8 181.9 141.45 181.35 144.85 180.85 147.05 179.1 149.3 177.25 148.85 175.05 148.35 172.55 144.45 170.6 M126.65 228.2 L126.65 231.9 126.75 231.05 126.75 230.6 M41.65 228.2 L41.65 231.9 41.75 231.05 41.75 230.6 M41.65 231.9 L41.65 407.5 41.75 409.6 Q41.95 401.15 43.6 396.55 45.95 390.15 53.15 383.8 L64.95 374.1 Q71.45 368.25 73.45 362.75 75.95 355.9 72.35 349.3 68.25 341.85 58.95 342.2 55.1 342.4 51.4 344.3 47.8 346.2 45.85 348.85 43.75 351.75 44.5 354.35 45.3 357.25 49.6 359.1 52.8 360.45 56.45 359.9 59.85 359.4 62.05 357.6 64.3 355.75 63.85 353.5 63.35 350.95 59.45 348.95 M22.75 348.95 Q18.85 350.95 18.35 353.5 17.95 355.75 20.2 357.6 22.35 359.4 25.75 359.9 29.4 360.45 32.6 359.1 36.9 357.25 37.7 354.35 38.45 351.75 36.35 348.85 34.4 346.2 30.8 344.3 27.1 342.4 23.25 342.2 13.95 341.85 9.85 349.3 6.25 355.9 8.75 362.75 10.75 368.25 17.25 374.1 L29.05 383.8 Q36.55 390.35 39.3 396.55 40.8 400.0 41.4 404.8 L41.65 407.5 41.65 411.2 41.75 410.35 41.75 409.9 41.75 409.6 M126.65 231.9 L126.65 407.5 126.75 409.6 Q126.95 401.15 128.6 396.55 130.95 390.15 138.15 383.8 L149.95 374.1 Q156.45 368.25 158.45 362.75 160.95 355.9 157.35 349.3 153.25 341.85 143.95 342.2 140.1 342.4 136.4 344.3 132.8 346.2 130.85 348.85 128.75 351.75 129.5 354.35 130.3 357.25 134.6 359.1 137.8 360.45 141.45 359.9 144.85 359.4 147.05 357.6 149.3 355.75 148.85 353.5 148.35 350.95 144.45 348.95 M126.75 409.6 L126.75 409.9 126.75 410.35 126.65 411.2 126.65 407.5 126.4 404.8 Q125.8 400.0 124.3 396.55 121.55 390.35 114.05 383.8 L102.25 374.1 Q95.75 368.25 93.75 362.75 91.25 355.9 94.85 349.3 98.95 341.85 108.25 342.2 112.1 342.4 115.8 344.3 119.4 346.2 121.35 348.85 123.45 351.75 122.7 354.35 121.9 357.25 117.6 359.1 114.4 360.45 110.75 359.9 107.35 359.4 105.2 357.6 102.95 355.75 103.35 353.5 103.85 350.95 107.75 348.95 M-24.9 -196.65 L-26.95 -196.75 -35.95 -197.3 Q-47.65 -198.3 -56.45 -195.85 -68.1 -192.6 -71.55 -184.2 -74.55 -176.85 -72.9 -170.05 -71.85 -165.55 -68.8 -161.3 -63.75 -154.25 -56.35 -152.4 L-47.75 -151.9 Q-40.9 -152.55 -36.4 -156.75 -32.3 -160.55 -31.4 -166.2 -30.5 -171.7 -33.15 -176.85 -35.9 -182.3 -42.05 -185.5 -49.0 -189.05 -53.55 -186.5 -57.5 -184.25 -57.95 -179.15 -58.4 -174.1 -55.0 -171.45 -51.2 -168.4 -44.5 -171.25 M-56.35 -152.4 L-56.45 -127.15 -56.45 -95.85 M-62.25 -10.2 Q-66.15 -12.15 -66.65 -14.65 -67.05 -16.85 -64.8 -18.7 -62.65 -20.45 -59.25 -20.95 -55.6 -21.5 -52.4 -20.15 -48.1 -18.35 -47.3 -15.5 -46.55 -12.95 -48.65 -10.1 -50.6 -7.45 -54.2 -5.6 -57.1 -4.1 -60.05 -3.7 L-61.75 -3.55 -65.15 -3.7 Q-71.85 -4.6 -75.15 -10.5 -78.75 -17.0 -76.25 -23.75 -74.25 -29.2 -67.75 -34.95 -59.7 -41.25 -55.95 -44.5 -48.45 -50.95 -45.7 -57.05 -44.2 -60.45 -43.6 -65.2 L-43.4 -67.35 -43.4 -72.35 -43.4 -72.6 -85.9 -72.6 -85.9 -72.35 -85.9 411.7 -43.4 411.7 -43.4 411.2 -43.5 410.35 -43.5 409.9 Q-43.55 407.2 -43.85 404.8 -44.45 400.0 -45.95 396.55 -48.7 390.35 -56.2 383.8 L-68.0 374.1 Q-74.5 368.25 -76.5 362.75 -79.0 355.9 -75.4 349.3 -71.3 341.85 -62.0 342.2 -58.15 342.4 -54.45 344.3 -50.85 346.2 -48.9 348.85 -46.8 351.75 -47.55 354.35 -48.35 357.25 -52.65 359.1 -55.85 360.45 -59.5 359.9 -62.9 359.4 -65.05 357.6 -67.3 355.75 -66.9 353.5 -66.4 350.95 -62.5 348.95 M-85.9 -72.6 L-128.4 -72.6 -128.4 -72.35 -128.4 -67.35 -128.35 -68.05 -128.35 -71.5 -128.25 -70.65 -128.25 -70.0 Q-128.05 -61.6 -126.4 -57.05 -124.05 -50.75 -116.85 -44.5 L-105.05 -34.95 Q-98.55 -29.2 -96.55 -23.75 -94.05 -17.0 -97.65 -10.5 -100.95 -4.6 -107.65 -3.7 L-111.05 -3.55 -112.7 -3.7 Q-115.7 -4.1 -118.6 -5.6 -122.2 -7.45 -124.15 -10.1 -126.25 -12.95 -125.5 -15.5 -124.7 -18.35 -120.4 -20.15 -117.2 -21.5 -113.55 -20.95 -110.15 -20.45 -107.95 -18.7 -105.7 -16.85 -106.15 -14.65 -106.65 -12.15 -110.55 -10.2 M-128.35 -68.05 L-128.25 -70.0 M-147.25 -10.2 Q-151.15 -12.15 -151.65 -14.65 -152.05 -16.85 -149.8 -18.7 -147.65 -20.45 -144.25 -20.95 -140.6 -21.5 -137.4 -20.15 -133.1 -18.35 -132.3 -15.5 -131.55 -12.95 -133.65 -10.1 -135.6 -7.45 -139.2 -5.6 -142.1 -4.1 -145.05 -3.7 L-146.75 -3.55 -150.15 -3.7 Q-156.85 -4.6 -160.15 -10.5 -163.75 -17.0 -161.25 -23.75 -159.25 -29.2 -152.75 -34.95 L-140.95 -44.5 Q-133.45 -50.95 -130.7 -57.05 -129.2 -60.45 -128.6 -65.2 L-128.4 -67.35 -128.4 89.75 -128.4 96.35 Q-128.05 102.85 -126.65 106.7 -124.3 113.0 -117.1 119.25 -109.05 125.5 -105.3 128.8 -98.8 134.55 -96.8 140.0 -94.3 146.75 -97.9 153.25 -102.0 160.55 -111.3 160.2 -115.15 160.05 -118.85 158.15 -122.45 156.3 -124.4 153.65 -126.5 150.8 -125.75 148.25 -124.95 145.4 -120.65 143.6 -117.45 142.25 -113.8 142.8 -110.4 143.3 -108.2 145.05 -105.95 146.9 -106.4 149.1 -106.9 151.6 -110.8 153.55 M-43.4 -67.35 L-43.35 -68.05 -43.35 -71.5 -43.25 -70.65 -43.25 -70.0 Q-43.05 -61.6 -41.4 -57.05 -39.05 -50.75 -31.85 -44.5 L-20.05 -34.95 Q-13.55 -29.2 -11.55 -23.75 -9.05 -17.0 -12.65 -10.5 -15.95 -4.6 -22.65 -3.7 L-26.05 -3.55 -27.7 -3.7 Q-30.7 -4.1 -33.6 -5.6 -37.2 -7.45 -39.15 -10.1 -41.25 -12.95 -40.5 -15.5 -39.7 -18.35 -35.4 -20.15 -32.2 -21.5 -28.55 -20.95 -25.15 -20.45 -22.95 -18.7 -20.7 -16.85 -21.15 -14.65 -21.65 -12.15 -25.55 -10.2 M-43.35 -68.05 L-43.25 -70.0 M-0.9 -72.6 L-43.4 -72.6 M-150.35 -194.8 L-72.9 -170.05 M-123.9 -247.8 L-26.95 -196.75 M-128.4 -72.6 L-162.55 -72.6 -162.55 411.7 -128.4 411.7 -128.4 411.2 -128.5 410.35 -128.5 409.9 Q-128.55 407.2 -128.85 404.8 -129.45 400.0 -130.95 396.55 -133.7 390.35 -141.2 383.8 L-153.0 374.1 Q-159.5 368.25 -161.5 362.75 -164.0 355.9 -160.4 349.3 -156.3 341.85 -147.0 342.2 -143.15 342.4 -139.45 344.3 -135.85 346.2 -133.9 348.85 -131.8 351.75 -132.55 354.35 -133.35 357.25 -137.65 359.1 -140.85 360.45 -144.5 359.9 -147.9 359.4 -150.05 357.6 -152.3 355.75 -151.9 353.5 -151.4 350.95 -147.5 348.95 M-167.8 -144.65 L-56.45 -127.15 M-43.35 95.7 L-43.35 92.25 -43.4 89.75 -43.4 96.4 -43.35 95.7 -43.25 93.75 -43.25 93.1 -43.35 92.25 M-62.25 153.55 Q-66.15 151.6 -66.65 149.1 -67.05 146.9 -64.8 145.05 -62.65 143.3 -59.25 142.8 -55.6 142.25 -52.4 143.6 -48.1 145.4 -47.3 148.25 -46.55 150.8 -48.65 153.65 -50.6 156.3 -54.2 158.15 -57.9 160.05 -61.75 160.2 -71.05 160.55 -75.15 153.25 -78.75 146.75 -76.25 140.0 -74.25 134.55 -67.75 128.8 L-55.95 119.25 Q-48.45 112.8 -45.7 106.7 -44.2 103.3 -43.6 98.55 L-43.4 96.4 -43.4 227.55 -43.25 230.6 Q-43.1 222.1 -41.4 217.45 -39.05 211.15 -31.85 204.9 L-20.05 195.35 Q-13.55 189.6 -11.55 184.15 -9.05 177.4 -12.65 170.9 -16.75 163.6 -26.05 163.95 -29.9 164.1 -33.6 166.0 -37.2 167.85 -39.15 170.5 -41.25 173.35 -40.5 175.9 -39.7 178.75 -35.4 180.55 -32.2 181.9 -28.55 181.35 -25.15 180.85 -22.95 179.1 -20.7 177.25 -21.15 175.05 -21.65 172.55 -25.55 170.6 M-147.5 153.55 Q-151.4 151.6 -151.9 149.1 -152.3 146.9 -150.05 145.05 -147.9 143.3 -144.5 142.8 -140.85 142.25 -137.65 143.6 -133.35 145.4 -132.55 148.25 -131.8 150.8 -133.9 153.65 -135.85 156.3 -139.45 158.15 -143.15 160.05 -147.0 160.2 -156.3 160.55 -160.4 153.25 -164.0 146.75 -161.5 140.0 -159.5 134.55 -153.0 128.8 L-141.2 119.25 Q-133.7 112.8 -130.95 106.7 -129.45 103.3 -128.85 98.55 L-128.6 95.7 -128.6 92.25 -128.4 89.75 M-128.6 92.25 L-128.5 93.1 -128.5 93.75 -128.4 96.35 -128.4 227.75 Q-128.05 221.3 -126.65 217.45 -124.3 211.15 -117.1 204.9 L-105.3 195.35 Q-98.8 189.6 -96.8 184.15 -94.3 177.4 -97.9 170.9 -102.0 163.6 -111.3 163.95 -115.15 164.1 -118.85 166.0 -122.45 167.85 -124.4 170.5 -126.5 173.35 -125.75 175.9 -124.95 178.75 -120.65 180.55 -117.45 181.9 -113.8 181.35 -110.4 180.85 -108.2 179.1 -105.95 177.25 -106.4 175.05 -106.9 172.55 -110.8 170.6 M-128.6 95.7 L-128.5 93.75 M-147.5 170.6 Q-151.4 172.55 -151.9 175.05 -152.3 177.25 -150.05 179.1 -147.9 180.85 -144.5 181.35 -140.85 181.9 -137.65 180.55 -133.35 178.75 -132.55 175.9 -131.8 173.35 -133.9 170.5 -135.85 167.85 -139.45 166.0 -143.15 164.1 -147.0 163.95 -156.3 163.6 -160.4 170.9 -164.0 177.4 -161.5 184.15 -159.5 189.6 -153.0 195.35 -144.95 201.65 -141.2 204.9 -133.7 211.35 -130.95 217.45 -129.45 220.85 -128.85 225.6 -128.55 227.95 -128.5 230.6 L-128.4 227.75 -128.4 231.9 -128.4 407.0 Q-128.05 400.45 -126.65 396.55 -124.3 390.15 -117.1 383.8 -109.05 377.45 -105.3 374.1 -98.8 368.25 -96.8 362.75 -94.3 355.9 -97.9 349.3 -102.0 341.85 -111.3 342.2 -115.15 342.4 -118.85 344.3 -122.45 346.2 -124.4 348.85 -126.5 351.75 -125.75 354.35 -124.95 357.25 -120.65 359.1 -117.45 360.45 -113.8 359.9 -110.4 359.4 -108.2 357.6 -105.95 355.75 -106.4 353.5 -106.9 350.95 -110.8 348.95 M-43.25 93.75 Q-43.05 102.15 -41.4 106.7 -39.05 113.0 -31.85 119.25 -23.8 125.5 -20.05 128.8 -13.55 134.55 -11.55 140.0 -9.05 146.75 -12.65 153.25 -16.75 160.55 -26.05 160.2 -29.9 160.05 -33.6 158.15 -37.2 156.3 -39.15 153.65 -41.25 150.8 -40.5 148.25 -39.7 145.4 -35.4 143.6 -32.2 142.25 -28.55 142.8 -25.15 143.3 -22.95 145.05 -20.7 146.9 -21.15 149.1 -21.65 151.6 -25.55 153.55 M-62.25 170.6 Q-66.15 172.55 -66.65 175.05 -67.05 177.25 -64.8 179.1 -62.65 180.85 -59.25 181.35 -55.6 181.9 -52.4 180.55 -48.1 178.75 -47.3 175.9 -46.55 173.35 -48.65 170.5 -50.6 167.85 -54.2 166.0 -57.9 164.1 -61.75 163.95 -71.05 163.6 -75.15 170.9 -78.75 177.4 -76.25 184.15 -74.25 189.6 -67.75 195.35 -59.7 201.65 -55.95 204.9 -48.45 211.35 -45.7 217.45 -44.2 220.85 -43.6 225.6 L-43.4 227.55 -43.4 231.9 -43.25 231.05 -43.25 230.6 M-128.5 230.6 L-128.5 231.05 -128.4 231.9 M-25.8 348.95 Q-21.9 350.95 -21.4 353.5 -20.95 355.75 -23.2 357.6 -25.4 359.4 -28.8 359.9 -32.45 360.45 -35.65 359.1 -39.95 357.25 -40.75 354.35 -41.5 351.75 -39.4 348.85 -37.45 346.2 -33.85 344.3 -30.15 342.4 -26.3 342.2 -17.0 341.85 -12.9 349.3 -9.3 355.9 -11.8 362.75 -13.8 368.25 -20.3 374.1 -24.05 377.45 -32.1 383.8 -39.3 390.15 -41.65 396.55 -43.05 400.45 -43.4 407.0 L-43.4 411.2 M-43.5 409.9 L-43.4 407.0 -43.4 231.9 M-43.4 411.7 L-0.9 411.7 M-128.5 409.9 L-128.4 407.0 -128.4 411.2 M-128.4 411.7 L-85.9 411.7 M-43.4 -67.35 L-43.4 89.75 M-91.0 -292.35 L28.1 -204.15 M-54.75 -329.35 L52.25 -221.2" fill="none" stroke="#000000" stroke-linecap="round" stroke-linejoin="miter-clip" stroke-miterlimit="4.0" stroke-width="2.0"/>
  </g>
</svg>
