<?xml version="1.0" encoding="UTF-8" standalone="no"?>
<svg xmlns:xlink="http://www.w3.org/1999/xlink" height="74.35px" width="45.8px" xmlns="http://www.w3.org/2000/svg">
  <g transform="matrix(1.0, 0.0, 0.0, 1.0, 22.8, 37.55)">
    <path d="M-15.2 30.2 Q-19.2 27.4 -20.95 21.3 -22.3 16.5 -22.3 9.1 -22.3 -7.9 -12.95 -19.3 L-6.55 -26.35 Q-3.65 -29.7 -3.65 -32.15 -3.65 -33.4 -4.5 -35.55 L-2.0 -29.7 Q-1.65 -28.6 -1.65 -26.5 -1.65 -25.0 -8.15 -11.95 -14.65 1.15 -14.65 6.5 L-13.15 13.8 Q-5.65 3.65 -2.55 1.75 3.3 -1.8 15.25 -14.2 L19.0 -18.9 20.7 -22.7 22.3 -26.75 Q21.8 -22.55 18.55 -10.35 14.9 3.2 14.0 8.05 12.7 15.25 3.9 24.95 -4.9 34.65 -11.6 36.2 L-13.0 28.75 -13.9 22.9 -14.35 17.95 Q-13.6 14.4 -13.15 13.8 -13.6 14.4 -14.35 17.95 L-13.9 22.9 -13.0 28.75 -13.55 31.55 -14.15 31.1 -15.2 30.2 Q-15.9 29.4 -16.85 26.7 L-17.7 23.8 Q-17.1 11.15 -17.05 5.05 -17.8 2.5 -17.8 1.2 L-17.45 -1.85 -17.85 -5.75 Q-17.85 -8.8 -16.75 -11.0 -14.85 -14.8 -8.15 -22.75 -14.85 -14.8 -16.75 -11.0 -17.85 -8.8 -17.85 -5.75 L-17.45 -1.85 -17.8 1.2 Q-17.8 2.5 -17.05 5.05 -17.1 11.15 -17.7 23.8 L-16.85 26.7 Q-15.9 29.4 -15.2 30.2 M-3.5 -28.6 Q-3.85 -26.3 -10.0 -15.95 -16.5 -5.1 -17.45 -1.85 -16.5 -5.1 -10.0 -15.95 -3.85 -26.3 -3.5 -28.6 M-14.35 17.95 Q-14.8 14.65 -15.7 10.3 -16.65 5.8 -17.05 5.05 -16.65 5.8 -15.7 10.3 -14.8 14.65 -14.35 17.95 M-13.9 22.9 Q-13.95 24.3 -14.35 27.55 L-14.15 31.1 -14.35 27.55 Q-13.95 24.3 -13.9 22.9" fill="#ffffff" fill-opacity="0.14901961" fill-rule="evenodd" stroke="none"/>
    <path d="M-4.5 -35.55 L-4.8 -36.2 M-13.15 13.8 L-14.65 6.5 Q-14.65 1.15 -8.15 -11.95 -1.65 -25.0 -1.65 -26.5 -1.65 -28.6 -2.0 -29.7 L-4.5 -35.55 Q-3.65 -33.4 -3.65 -32.15 -3.65 -29.7 -6.55 -26.35 L-12.95 -19.3 Q-22.3 -7.9 -22.3 9.1 -22.3 16.5 -20.95 21.3 -19.2 27.4 -15.2 30.2 L-14.15 31.1 -14.35 27.55 Q-13.95 24.3 -13.9 22.9 L-13.0 28.75 -11.6 36.2 Q-4.9 34.65 3.9 24.95 12.7 15.25 14.0 8.05 14.9 3.2 18.55 -10.35 21.8 -22.55 22.3 -26.75 L20.7 -22.7 19.0 -18.9 15.25 -14.2 Q3.3 -1.8 -2.55 1.75 -5.65 3.65 -13.15 13.8 -13.6 14.4 -14.35 17.95 L-13.9 22.9" fill="none" stroke="#000000" stroke-linecap="round" stroke-linejoin="miter-clip" stroke-miterlimit="4.0" stroke-opacity="0.6" stroke-width="1.0"/>
    <path d="M-15.2 30.2 Q-15.9 29.4 -16.85 26.7 L-17.7 23.8 Q-17.1 11.15 -17.05 5.05 -17.8 2.5 -17.8 1.2 L-17.45 -1.85 -17.85 -5.75 Q-17.85 -8.8 -16.75 -11.0 -14.85 -14.8 -8.15 -22.75 M-17.45 -1.85 Q-16.5 -5.1 -10.0 -15.95 -3.85 -26.3 -3.5 -28.6 M-17.05 5.05 Q-16.65 5.8 -15.7 10.3 -14.8 14.65 -14.35 17.95" fill="none" stroke="#000000" stroke-linecap="round" stroke-linejoin="miter-clip" stroke-miterlimit="4.0" stroke-opacity="0.4" stroke-width="1.0"/>
  </g>
</svg>
