<?xml version="1.0" encoding="UTF-8" standalone="no"?>
<svg xmlns:xlink="http://www.w3.org/1999/xlink" height="57.1px" width="108.5px" xmlns="http://www.w3.org/2000/svg">
  <g transform="matrix(1.0, 0.0, 0.0, 1.0, 54.25, 28.55)">
    <path d="M41.2 -13.05 L41.9 -14.9 43.1 -14.2 41.9 -14.9 43.0 -17.8 48.25 -15.75 Q53.4 -13.5 53.1 -12.45 L52.05 -10.75 51.05 -9.1 49.8 -7.1 Q49.35 -6.5 45.25 -8.0 L43.15 -8.85 43.95 -10.05 43.15 -8.85 40.05 -10.15 41.2 -13.05 42.7 -12.15 41.2 -13.05 M46.2 -9.4 L45.25 -8.0 46.2 -9.4 M50.15 -11.85 L52.05 -10.75 50.15 -11.85 M51.05 -9.1 L49.75 -9.85 51.05 -9.1 M-35.9 15.8 L-38.05 16.25 -35.9 15.8 -33.65 20.55 -38.05 22.65 -38.85 19.95 -38.05 22.65 -40.8 24.0 -45.1 26.05 -48.6 18.85 -44.7 18.0 -48.6 18.85 -48.95 18.15 -50.0 15.65 Q-52.25 9.9 -51.05 9.2 L-48.0 8.35 -45.1 7.55 -44.45 9.8 -45.1 7.55 -41.55 6.65 Q-40.55 6.45 -37.45 12.6 L-37.0 13.45 -35.9 15.8 M-39.95 13.1 L-37.45 12.6 -39.95 13.1 M-47.05 11.65 L-48.0 8.35 -47.05 11.65 M-41.45 21.8 L-40.8 24.0 -41.45 21.8 M-46.55 14.9 L-50.0 15.65 -46.55 14.9" fill="#ffffff" fill-opacity="0.0" fill-rule="evenodd" stroke="none"/>
    <path d="M-11.8 -25.25 Q-10.6 -27.8 -10.0 -27.6 L-8.75 -26.85 -7.55 -26.1 -6.2 -25.2 Q-5.85 -24.9 -6.9 -22.05 L-7.85 -22.7 -6.9 -22.05 -7.1 -21.6 -7.5 -20.5 -8.45 -18.3 -10.5 -19.1 -11.8 -19.6 -11.25 -20.5 -11.8 -19.6 -13.8 -20.4 -12.5 -23.8 -11.0 -22.75 -12.5 -23.8 -12.35 -24.15 -11.8 -25.25 -10.5 -24.35 -11.8 -25.25 M-7.55 -26.1 L-8.15 -25.2 -7.55 -26.1 M-9.55 -25.5 L-8.75 -26.85 -9.55 -25.5 M-7.5 -20.5 L-8.35 -21.1 -7.5 -20.5 M-9.85 -20.2 L-10.5 -19.1 -9.85 -20.2" fill="#888a8c" fill-rule="evenodd" stroke="none"/>
    <path d="M41.2 -13.05 L41.9 -14.9 39.55 -16.25 M41.9 -14.9 L43.1 -14.2 M41.9 -14.9 L43.0 -17.8 48.25 -15.75 Q53.4 -13.5 53.1 -12.45 L52.05 -10.75 53.75 -9.75 M43.95 -10.05 L43.15 -8.85 45.25 -8.0 46.2 -9.4 M45.25 -8.0 L43.5 -5.45 M51.05 -9.1 L49.8 -7.1 Q49.35 -6.5 45.25 -8.0 M43.15 -8.85 L41.25 -6.1 M51.05 -9.1 L52.05 -10.75 50.15 -11.85 M51.05 -9.1 L53.35 -7.75 M49.75 -9.85 L51.05 -9.1 M41.2 -13.05 L42.7 -12.15 M41.2 -13.05 L39.15 -14.25 M43.15 -8.85 L40.05 -10.15 41.2 -13.05 M-13.25 -26.3 L-11.8 -25.25 Q-10.6 -27.8 -10.0 -27.6 L-8.75 -26.85 -8.05 -28.05 M-7.55 -26.1 L-6.2 -25.2 Q-5.85 -24.9 -6.9 -22.05 L-5.1 -20.75 M-8.15 -25.2 L-7.55 -26.1 -8.75 -26.85 -9.55 -25.5 M-7.55 -26.1 L-6.6 -27.75 M-7.85 -22.7 L-6.9 -22.05 -7.1 -21.6 -7.5 -20.5 -5.6 -19.15 M-7.5 -20.5 L-8.45 -18.3 -10.5 -19.1 -11.35 -17.65 M-8.35 -21.1 L-7.5 -20.5 M-10.5 -19.1 L-11.8 -19.6 -12.8 -17.95 M-11.8 -19.6 L-11.25 -20.5 M-11.8 -19.6 L-13.8 -20.4 -12.5 -23.8 -13.75 -24.7 M-12.5 -23.8 L-11.0 -22.75 M-12.5 -23.8 L-12.35 -24.15 -11.8 -25.25 -10.5 -24.35 M-10.5 -19.1 L-9.85 -20.2 M-38.05 16.25 L-35.9 15.8 -37.0 13.45 -37.45 12.6 -39.95 13.1 M-35.9 15.8 L-33.65 20.55 -38.05 22.65 -37.0 26.15 M-38.05 22.65 L-38.85 19.95 M-35.9 15.8 L-30.85 14.65 M-37.45 12.6 L-32.7 11.55 M-45.1 7.55 L-48.0 8.35 -47.05 11.65 M-48.0 8.35 L-48.9 5.45 M-45.1 7.55 L-46.3 3.6 M-45.1 7.55 L-44.45 9.8 M-37.45 12.6 Q-40.55 6.45 -41.55 6.65 L-45.1 7.55 M-50.0 15.65 L-46.55 14.9 M-40.8 24.0 L-41.45 21.8 M-48.6 18.85 L-44.7 18.0 M-48.6 18.85 L-48.95 18.15 -50.0 15.65 -53.75 16.45 M-51.9 19.55 L-48.6 18.85 -45.1 26.05 -40.8 24.0 -38.05 22.65 M-50.0 15.65 Q-52.25 9.9 -51.05 9.2 L-48.0 8.35 M-40.8 24.0 L-39.6 28.05" fill="none" stroke="#000000" stroke-linecap="round" stroke-linejoin="miter-clip" stroke-miterlimit="4.0" stroke-opacity="0.6" stroke-width="1.0"/>
  </g>
</svg>
