<?xml version="1.0" encoding="UTF-8" standalone="no"?>
<svg xmlns:xlink="http://www.w3.org/1999/xlink" height="655.45px" width="1006.55px" xmlns="http://www.w3.org/2000/svg">
  <g transform="matrix(1.0, 0.0, 0.0, 1.0, 503.25, 327.7)">
    <path d="M502.8 -327.2 L502.8 -156.85 -502.75 -156.85 -502.75 -327.2 502.8 -327.2" fill="#ffffff" fill-opacity="0.09803922" fill-rule="evenodd" stroke="none"/>
    <path d="M502.5 268.0 L401.4 268.0 502.5 268.0 M151.7 151.35 L502.8 151.35 502.8 327.25 389.0 327.25 303.85 327.25 224.9 327.25 129.3 327.25 51.85 327.25 44.4 285.25 20.55 151.35 48.65 151.35 83.65 151.35 112.6 151.35 151.7 151.35 192.05 181.25 237.05 214.65 308.6 216.15 237.05 214.65 192.05 181.25 151.7 151.35 M318.3 177.95 L244.2 177.95 318.3 177.95 M199.15 152.35 L502.8 327.25 199.15 152.35 M-7.85 151.35 L20.55 151.35 44.4 285.25 51.85 327.25 -29.2 327.25 -19.2 244.8 -7.85 151.35 -19.2 244.8 -29.2 327.25 -120.6 327.25 -55.1 184.55 -39.9 151.35 -55.1 184.55 -120.6 327.25 -216.2 327.25 -198.3 305.0 -111.6 305.0 -198.3 305.0 -216.2 327.25 -295.15 327.25 -252.85 288.35 -327.65 288.35 -274.3 248.95 -158.95 163.7 -142.2 151.35 -158.95 163.7 -274.3 248.95 -327.65 288.35 -252.85 288.35 -168.45 210.75 -103.85 151.35 -74.9 151.35 -39.9 151.35 -7.85 151.35 M192.05 181.25 L144.15 180.4 112.6 151.35 144.15 180.4 192.05 181.25 M122.65 199.9 L71.55 200.05 122.65 199.9 83.65 151.35 122.65 199.9 149.9 233.85 202.3 233.85 144.15 180.4 202.3 233.85 149.9 233.85 122.65 199.9 M48.65 151.35 L119.35 305.5 129.3 327.25 119.35 305.5 48.65 151.35 M237.05 214.65 L301.9 262.7 232.25 261.4 303.85 327.25 232.25 261.4 202.3 233.85 232.25 261.4 301.9 262.7 237.05 214.65 M149.9 233.85 L224.9 327.25 149.9 233.85 M206.6 305.5 L119.35 305.5 206.6 305.5 M301.9 262.7 L389.0 327.25 301.9 262.7 M-142.2 151.35 L-103.85 151.35 -168.45 210.75 -252.85 288.35 -295.15 327.25 -380.3 327.25 -327.65 288.35 -380.3 327.25 -502.75 327.25 -361.35 248.9 -279.95 203.8 -379.8 203.6 -279.95 203.8 -207.65 163.7 -185.9 151.65 -207.65 163.7 -279.95 203.8 -361.35 248.9 -502.75 327.25 -502.75 151.35 -142.2 151.35 M-55.1 184.55 L-101.9 185.85 -55.1 184.55 M-124.05 210.8 L-168.45 210.75 -124.05 210.8 M-207.65 163.7 L-158.95 163.7 -207.65 163.7 M-198.3 305.0 L-74.9 151.35 -198.3 305.0 M-81.65 244.75 L-19.2 244.8 -81.65 244.75 M44.4 285.25 L-24.0 286.65 44.4 285.25 M-274.3 248.95 L-361.35 248.9 -274.3 248.95 M27.95 200.05 L-12.55 200.05 27.95 200.05" fill="#ffffff" fill-opacity="0.0" fill-rule="evenodd" stroke="none"/>
    <path d="M502.8 -327.2 L502.8 -156.85 -502.75 -156.85 -502.75 -327.2 M-12.55 200.05 L27.95 200.05" fill="none" stroke="#000000" stroke-linecap="round" stroke-linejoin="miter-clip" stroke-miterlimit="4.0" stroke-opacity="0.6" stroke-width="1.0"/>
    <path d="M401.4 268.0 L502.5 268.0 M151.7 151.35 L192.05 181.25 237.05 214.65 308.6 216.15 M502.8 327.25 L199.15 152.35 M244.2 177.95 L318.3 177.95 M20.55 151.35 L20.5 151.25 M-7.85 151.25 L-7.85 151.35 20.55 151.35 44.4 285.25 51.85 327.25 M48.65 151.35 L48.6 151.25 M83.55 151.25 L83.65 151.35 122.65 199.9 149.9 233.85 202.3 233.85 144.15 180.4 192.05 181.25 M112.6 151.35 L112.45 151.25 M151.55 151.25 L151.7 151.35 112.6 151.35 144.15 180.4 M48.65 151.35 L83.65 151.35 M129.3 327.25 L119.35 305.5 48.65 151.35 M71.55 200.05 L122.65 199.9 M224.9 327.25 L149.9 233.85 M303.85 327.25 L232.25 261.4 202.3 233.85 M232.25 261.4 L301.9 262.7 237.05 214.65 M389.0 327.25 L301.9 262.7 M119.35 305.5 L206.6 305.5 M-142.1 151.25 L-142.2 151.35 -103.85 151.35 -103.75 151.25 M-142.2 151.35 L-158.95 163.7 -274.3 248.95 -327.65 288.35 -252.85 288.35 -168.45 210.75 -103.85 151.35 M-74.9 151.35 L-74.85 151.25 M-39.85 151.25 L-39.9 151.35 -55.1 184.55 -120.6 327.25 M-7.85 151.35 L-19.2 244.8 -29.2 327.25 M-74.9 151.35 L-39.9 151.35 M-101.9 185.85 L-55.1 184.55 M-379.8 203.6 L-279.95 203.8 -207.65 163.7 -185.9 151.65 M-111.6 305.0 L-198.3 305.0 -216.2 327.25 M-295.15 327.25 L-252.85 288.35 M-19.2 244.8 L-81.65 244.75 M-74.9 151.35 L-198.3 305.0 M-158.95 163.7 L-207.65 163.7 M-168.45 210.75 L-124.05 210.8 M-327.65 288.35 L-380.3 327.25 M-502.75 327.25 L-361.35 248.9 -279.95 203.8 M-361.35 248.9 L-274.3 248.95 M-24.0 286.65 L44.4 285.25" fill="none" stroke="#000000" stroke-linecap="round" stroke-linejoin="miter-clip" stroke-miterlimit="4.0" stroke-opacity="0.4" stroke-width="1.0"/>
    <path d="M-502.75 -327.2 L502.8 -327.2 M502.8 327.25 L502.8 151.35 151.7 151.35 M389.0 327.25 L502.8 327.25 M20.5 151.25 L-7.85 151.25 M20.55 151.35 L48.65 151.35 M48.6 151.25 L83.55 151.25 M83.65 151.35 L112.6 151.35 M112.45 151.25 L151.55 151.25 M51.85 327.25 L129.3 327.25 224.9 327.25 303.85 327.25 389.0 327.25 M-103.75 151.25 L-142.1 151.25 M-103.85 151.35 L-74.9 151.35 M-74.85 151.25 L-39.85 151.25 M-39.9 151.35 L-7.85 151.35 M-29.2 327.25 L51.85 327.25 M-120.6 327.25 L-29.2 327.25 M-216.2 327.25 L-120.6 327.25 M-295.15 327.25 L-216.2 327.25 M-380.3 327.25 L-295.15 327.25 M-502.75 327.25 L-380.3 327.25 M-142.2 151.35 L-502.75 151.35 -502.75 327.25" fill="none" stroke="#000000" stroke-linecap="round" stroke-linejoin="miter-clip" stroke-miterlimit="4.0" stroke-width="1.0"/>
  </g>
</svg>
