<?xml version="1.0" encoding="UTF-8" standalone="no"?>
<svg xmlns:xlink="http://www.w3.org/1999/xlink" height="76.55px" width="83.15px" xmlns="http://www.w3.org/2000/svg">
  <g transform="matrix(1.0, 0.0, 0.0, 1.0, 41.5, 38.3)">
    <path d="M-31.35 23.85 Q-34.05 21.15 -36.85 15.6 -41.0 7.4 -41.0 -0.65 -41.0 -13.95 -36.2 -21.9 -31.7 -29.35 -24.6 -29.7 -22.9 -32.9 -18.55 -34.25 -15.0 -35.35 -12.0 -34.85 L-7.0 -36.5 Q-2.5 -37.8 -0.2 -37.8 1.4 -37.8 4.85 -36.65 8.8 -35.35 10.7 -33.8 14.6 -33.95 20.45 -31.65 26.65 -29.15 28.05 -26.35 L24.5 -27.35 21.7 -27.75 18.5 -27.45 14.2 -26.7 Q12.55 -26.1 9.35 -23.6 6.2 -21.05 5.55 -19.8 L6.05 -19.5 Q7.6 -20.15 10.1 -20.6 L12.95 -21.0 Q21.45 -21.0 26.1 -14.0 30.45 -7.45 30.45 3.65 30.45 7.2 30.0 8.9 L28.1 15.6 30.0 8.9 Q30.45 7.2 30.45 3.65 30.45 -7.45 26.1 -14.0 21.45 -21.0 12.95 -21.0 L10.1 -20.6 Q7.6 -20.15 6.05 -19.5 L5.55 -19.8 Q6.2 -21.05 9.35 -23.6 12.55 -26.1 14.2 -26.7 L18.5 -27.45 21.7 -27.75 24.5 -27.35 28.05 -26.35 28.1 -26.3 28.5 -26.1 Q32.65 -23.9 36.35 -17.85 41.15 -10.1 41.15 -1.1 41.15 9.85 34.2 19.55 L31.2 23.3 31.2 23.35 Q28.7 26.0 21.85 28.4 L28.1 15.6 Q23.95 20.15 18.35 26.7 14.25 31.05 11.0 31.05 L9.3 30.8 Q8.4 30.5 7.95 30.2 9.65 28.3 10.55 19.5 11.15 13.65 11.15 9.75 11.15 1.75 10.0 -0.3 L6.15 3.9 Q6.55 0.7 5.65 -4.75 4.6 -11.1 2.6 -14.05 L1.65 -13.7 -2.45 -16.65 Q-2.65 -15.55 -3.0 -14.5 L-7.85 -17.25 Q-7.1 8.8 -7.5 16.3 -10.3 1.5 -12.0 -3.65 -13.85 -9.2 -16.1 -9.2 -21.4 -9.2 -23.55 8.55 L-24.8 20.75 Q-25.4 26.3 -26.25 26.3 -27.05 26.3 -29.15 25.05 -31.6 23.5 -32.25 22.0 L-31.9 22.9 -31.35 23.85 M-32.25 21.95 L-32.25 22.0 -32.25 21.95 Q-34.35 17.95 -35.15 12.85 -35.8 9.05 -35.8 3.75 -35.8 -9.7 -28.25 -17.1 -22.25 -23.0 -14.7 -23.0 -12.75 -23.0 -10.85 -21.95 -8.55 -20.7 -7.9 -18.4 -7.55 -22.5 -12.0 -26.45 -17.25 -31.05 -24.6 -29.7 -17.25 -31.05 -12.0 -26.45 -7.55 -22.5 -7.9 -18.4 -8.55 -20.7 -10.85 -21.95 -12.75 -23.0 -14.7 -23.0 -22.25 -23.0 -28.25 -17.1 -35.8 -9.7 -35.8 3.75 -35.8 9.05 -35.15 12.85 -34.35 17.95 -32.25 21.95 M6.05 -19.5 L2.65 -16.9 Q1.6 -15.85 2.6 -14.05 1.6 -15.85 2.65 -16.9 L6.05 -19.5 M14.2 -26.7 Q14.4 -28.95 13.7 -30.35 13.0 -31.8 10.7 -33.8 13.0 -31.8 13.7 -30.35 14.4 -28.95 14.2 -26.7 M29.75 32.8 L29.2 32.55 29.2 32.1 29.75 32.8 M-2.45 -16.65 Q-1.2 -23.1 -3.3 -27.8 -5.75 -33.2 -12.0 -34.85 -5.75 -33.2 -3.3 -27.8 -1.2 -23.1 -2.45 -16.65 M-7.9 -18.4 L-7.85 -17.25 -7.9 -18.4" fill="#ffffff" fill-opacity="0.0" fill-rule="evenodd" stroke="none"/>
    <path d="M21.85 28.4 L17.65 32.8 16.85 33.45 16.5 33.7 16.0 34.1 15.65 34.4 10.8 36.9 Q8.35 37.75 5.05 37.75 4.05 37.75 1.2 36.8 L-0.95 35.65 0.9 30.7 Q2.2 28.05 4.2 18.5 6.3 8.3 6.15 3.9 L10.0 -0.3 Q11.15 1.75 11.15 9.75 11.15 13.65 10.55 19.5 9.65 28.3 7.95 30.2 8.4 30.5 9.3 30.8 L11.0 31.05 Q14.25 31.05 18.35 26.7 23.95 20.15 28.1 15.6 L21.85 28.4 M-7.5 16.3 Q-9.1 28.45 -9.5 29.35 -10.95 32.85 -17.6 33.3 L-17.8 33.3 -18.1 33.35 -22.9 31.85 -29.1 27.2 -30.95 24.7 -30.85 24.8 -31.25 24.2 -31.35 23.85 -31.9 22.9 -32.25 22.0 Q-31.6 23.5 -29.15 25.05 -27.05 26.3 -26.25 26.3 -25.4 26.3 -24.8 20.75 L-23.55 8.55 Q-21.4 -9.2 -16.1 -9.2 -13.85 -9.2 -12.0 -3.65 -10.3 1.5 -7.5 16.3" fill="#000000" fill-opacity="0.24705882" fill-rule="evenodd" stroke="none"/>
    <path d="M15.65 34.4 L15.25 34.65 Q11.2 37.9 5.9 37.9 3.95 37.9 1.2 36.8 4.05 37.75 5.05 37.75 8.35 37.75 10.8 36.9 L15.65 34.4 M0.9 30.7 Q4.3 21.6 6.15 3.9 6.3 8.3 4.2 18.5 2.2 28.05 0.9 30.7 M-17.6 33.3 L-18.1 33.35 -17.8 33.3 -17.6 33.3" fill="#929396" fill-rule="evenodd" stroke="none"/>
    <path d="M-30.95 24.7 L-31.15 24.4 -31.25 24.2 -30.95 24.7 -31.25 24.2 -30.85 24.8 -30.95 24.7" fill="#d8d9da" fill-rule="evenodd" stroke="none"/>
    <path d="M1.2 36.8 L-0.95 35.65 0.9 30.7 Q2.2 28.05 4.2 18.5 6.3 8.3 6.15 3.9 6.55 0.7 5.65 -4.75 4.6 -11.1 2.6 -14.05 M-7.5 16.3 Q-9.1 28.45 -9.5 29.35 -10.95 32.85 -17.6 33.3 L-17.8 33.3 M-29.1 27.2 L-30.95 24.7 -31.15 24.4 -31.25 24.2 -31.35 23.85 -31.9 22.9 -32.25 22.0 -32.25 21.95 M16.0 34.1 L16.5 33.7 M15.65 34.4 L10.8 36.9 Q8.35 37.75 5.05 37.75 4.05 37.75 1.2 36.8 M-31.25 24.2 L-30.95 24.7 -30.85 24.8" fill="none" stroke="#000000" stroke-linecap="butt" stroke-linejoin="miter-clip" stroke-miterlimit="4.0" stroke-width="1.0"/>
    <path d="M-18.1 33.35 L-22.9 31.85 -29.1 27.2 M-17.8 33.3 L-18.1 33.35" fill="none" stroke="#000000" stroke-linecap="round" stroke-linejoin="miter-clip" stroke-miterlimit="4.0" stroke-width="1.0"/>
    <path d="M2.6 -14.05 L1.65 -13.7 -2.45 -16.65 Q-2.65 -15.55 -3.0 -14.5 L-7.85 -17.25 Q-7.1 8.8 -7.5 16.3 M-32.25 21.95 Q-34.35 17.95 -35.15 12.85 -35.8 9.05 -35.8 3.75 -35.8 -9.7 -28.25 -17.1 -22.25 -23.0 -14.7 -23.0 -12.75 -23.0 -10.85 -21.95 -8.55 -20.7 -7.9 -18.4 -7.55 -22.5 -12.0 -26.45 -17.25 -31.05 -24.6 -29.7 M28.05 -26.35 L24.5 -27.35 21.7 -27.75 18.5 -27.45 14.2 -26.7 Q12.55 -26.1 9.35 -23.6 6.2 -21.05 5.55 -19.8 L6.05 -19.5 Q7.6 -20.15 10.1 -20.6 L12.95 -21.0 Q21.45 -21.0 26.1 -14.0 30.45 -7.45 30.45 3.65 30.45 7.2 30.0 8.9 L28.1 15.6 21.85 28.4 M10.7 -33.8 Q13.0 -31.8 13.7 -30.35 14.4 -28.95 14.2 -26.7 M2.6 -14.05 Q1.6 -15.85 2.65 -16.9 L6.05 -19.5 M-12.0 -34.85 Q-5.75 -33.2 -3.3 -27.8 -1.2 -23.1 -2.45 -16.65 M-7.85 -17.25 L-7.9 -18.4" fill="none" stroke="#000000" stroke-linecap="round" stroke-linejoin="miter-clip" stroke-miterlimit="4.0" stroke-opacity="0.4" stroke-width="1.0"/>
    <path d="M-31.35 23.85 Q-34.05 21.15 -36.85 15.6 -41.0 7.4 -41.0 -0.65 -41.0 -13.95 -36.2 -21.9 -31.7 -29.35 -24.6 -29.7 -22.9 -32.9 -18.55 -34.25 -15.0 -35.35 -12.0 -34.85 L-7.0 -36.5 Q-2.5 -37.8 -0.2 -37.8 1.4 -37.8 4.85 -36.65 8.8 -35.35 10.7 -33.8 14.6 -33.95 20.45 -31.65 26.65 -29.15 28.05 -26.35 L28.5 -26.1 Q32.65 -23.9 36.35 -17.85 41.15 -10.1 41.15 -1.1 41.15 9.85 34.2 19.55 L31.2 23.3 31.2 23.35 Q28.7 26.0 21.85 28.4 L17.65 32.8 16.85 33.45 16.0 34.1 15.65 34.4 15.25 34.65" fill="none" stroke="#000000" stroke-linecap="butt" stroke-linejoin="miter-clip" stroke-miterlimit="4.0" stroke-width="1.0"/>
    <path d="M28.05 -26.35 L28.1 -26.3" fill="none" stroke="#000000" stroke-linecap="round" stroke-linejoin="miter-clip" stroke-miterlimit="4.0" stroke-width="1.0"/>
  </g>
</svg>
