<?xml version="1.0" encoding="UTF-8" standalone="no"?>
<svg xmlns:xlink="http://www.w3.org/1999/xlink" height="31.7px" width="51.4px" xmlns="http://www.w3.org/2000/svg">
  <g transform="matrix(1.0, 0.0, 0.0, 1.0, 25.7, 15.85)">
    <path d="M6.4 -13.05 Q5.75 -13.05 5.25 -12.6 4.8 -12.15 4.8 -11.55 4.8 -10.9 5.25 -10.5 5.75 -10.05 6.4 -10.05 7.1 -10.05 7.55 -10.5 8.0 -10.9 8.0 -11.55 8.0 -12.15 7.55 -12.6 7.05 -13.05 6.4 -13.05 M15.2 -12.6 Q14.75 -13.05 14.1 -13.05 L12.95 -12.6 Q12.5 -12.15 12.5 -11.55 12.5 -10.9 12.95 -10.5 13.45 -10.05 14.1 -10.05 14.75 -10.05 15.2 -10.5 15.7 -10.9 15.7 -11.55 15.7 -12.15 15.2 -12.6 M0.35 -9.4 L0.25 -9.4 0.35 -9.4 1.1 -9.3 Q2.1 -9.1 2.85 -8.3 3.95 -7.15 3.95 -5.6 3.95 -4.0 2.85 -2.9 1.85 -1.85 0.35 -1.8 1.85 -1.85 2.85 -2.9 3.95 -4.0 3.95 -5.6 3.95 -7.15 2.85 -8.3 2.1 -9.1 1.1 -9.3 L0.35 -9.4 M0.25 -1.7 L0.35 -1.8 -12.0 -1.8 -21.1 -1.8 -12.0 -1.8 -10.35 14.0 Q-14.4 15.8 -19.15 15.2 -21.5 14.9 -23.05 14.25 L-21.1 -1.8 -21.4 -1.8 Q-22.95 -1.8 -24.0 -2.9 -25.1 -4.0 -25.1 -5.6 -25.1 -7.15 -24.0 -8.3 -22.95 -9.4 -21.4 -9.4 L0.25 -9.4 0.25 -15.35 18.7 -15.35 18.7 -9.4 Q20.1 -9.35 21.1 -8.3 22.2 -7.15 22.2 -5.6 L22.0 -4.35 22.2 -5.6 Q22.2 -7.15 21.1 -8.3 20.1 -9.35 18.7 -9.4 L18.85 -9.4 19.05 -9.4 19.6 -9.4 21.4 -9.4 Q22.95 -9.4 24.0 -8.3 25.1 -7.15 25.1 -5.6 25.1 -4.0 24.0 -2.9 22.95 -1.8 21.4 -1.8 L19.35 -1.8 19.45 -1.85 19.55 -1.9 Q20.4 -2.2 21.1 -2.9 L21.8 -3.85 22.0 -4.35 6.0 -4.35 Q5.8 -2.75 4.35 -1.05 L2.95 0.35 2.6 9.05 0.25 9.05 0.25 -1.7 M-17.85 1.55 L-18.85 10.65 -13.8 10.2 -14.65 1.55 -17.85 1.55" fill="#ffffff" fill-opacity="0.0" fill-rule="evenodd" stroke="none"/>
    <path d="M15.2 -12.6 Q15.7 -12.15 15.7 -11.55 15.7 -10.9 15.2 -10.5 14.75 -10.05 14.1 -10.05 13.45 -10.05 12.95 -10.5 12.5 -10.9 12.5 -11.55 12.5 -12.15 12.95 -12.6 L14.1 -13.05 Q14.75 -13.05 15.2 -12.6 M6.4 -13.05 Q7.05 -13.05 7.55 -12.6 8.0 -12.15 8.0 -11.55 8.0 -10.9 7.55 -10.5 7.1 -10.05 6.4 -10.05 5.75 -10.05 5.25 -10.5 4.8 -10.9 4.8 -11.55 4.8 -12.15 5.25 -12.6 5.75 -13.05 6.4 -13.05 M12.95 5.4 Q12.5 4.95 12.5 4.35 12.5 3.7 12.95 3.3 13.45 2.85 14.1 2.85 14.75 2.85 15.2 3.3 15.7 3.7 15.7 4.35 15.7 4.95 15.2 5.4 14.75 5.8 14.1 5.8 13.45 5.8 12.95 5.4 M7.55 5.4 Q7.05 5.8 6.4 5.8 5.75 5.8 5.25 5.4 4.8 4.95 4.8 4.35 4.8 3.7 5.25 3.3 5.75 2.85 6.4 2.85 7.1 2.85 7.55 3.3 8.0 3.7 8.0 4.35 8.0 4.95 7.55 5.4" fill="#000000" fill-opacity="0.4" fill-rule="evenodd" stroke="none"/>
    <path d="M2.6 9.05 L2.95 0.35 4.35 -1.05 Q5.8 -2.75 6.0 -4.35 L22.0 -4.35 21.8 -3.85 21.1 -2.9 Q20.4 -2.2 19.55 -1.9 L18.7 -1.75 18.7 9.05 2.6 9.05 M7.55 5.4 Q8.0 4.95 8.0 4.35 8.0 3.7 7.55 3.3 7.1 2.85 6.4 2.85 5.75 2.85 5.25 3.3 4.8 3.7 4.8 4.35 4.8 4.95 5.25 5.4 5.75 5.8 6.4 5.8 7.05 5.8 7.55 5.4 M12.95 5.4 Q13.45 5.8 14.1 5.8 14.75 5.8 15.2 5.4 15.7 4.95 15.7 4.35 15.7 3.7 15.2 3.3 14.75 2.85 14.1 2.85 13.45 2.85 12.95 3.3 12.5 3.7 12.5 4.35 12.5 4.95 12.95 5.4" fill="#000000" fill-opacity="0.24705882" fill-rule="evenodd" stroke="none"/>
    <path d="M19.6 -9.4 L19.05 -9.4 19.25 -9.45 19.6 -9.4" fill="#828486" fill-rule="evenodd" stroke="none"/>
    <path d="M18.7 -1.75 L19.55 -1.9 19.45 -1.85 19.35 -1.8 19.25 -1.7 18.75 -1.7 18.75 -1.35 18.7 -1.75" fill="#636466" fill-rule="evenodd" stroke="none"/>
    <path d="M0.25 -9.4 L0.35 -9.4 M0.25 -9.4 L-21.4 -9.4 Q-22.95 -9.4 -24.0 -8.3 -25.1 -7.15 -25.1 -5.6 -25.1 -4.0 -24.0 -2.9 -22.95 -1.8 -21.4 -1.8 L-21.1 -1.8 -23.05 14.25 Q-21.5 14.9 -19.15 15.2 -14.4 15.8 -10.35 14.0 L-12.0 -1.8 0.35 -1.8 M19.6 -9.4 L19.05 -9.4 M18.85 -9.4 L18.7 -9.4 M19.55 -1.9 L18.7 -1.75 18.7 9.05 M19.35 -1.8 L21.4 -1.8 Q22.95 -1.8 24.0 -2.9 25.1 -4.0 25.1 -5.6 25.1 -7.15 24.0 -8.3 22.95 -9.4 21.4 -9.4 L19.6 -9.4 M-17.85 1.55 L-14.65 1.55 -13.8 10.2 -18.85 10.65 -17.85 1.55" fill="none" stroke="#000000" stroke-linecap="butt" stroke-linejoin="miter-clip" stroke-miterlimit="4.0" stroke-width="1.0"/>
    <path d="M0.35 -9.4 L1.1 -9.3 Q2.1 -9.1 2.85 -8.3 3.95 -7.15 3.95 -5.6 3.95 -4.0 2.85 -2.9 1.85 -1.85 0.35 -1.8 M22.0 -4.35 L22.2 -5.6 Q22.2 -7.15 21.1 -8.3 20.1 -9.35 18.7 -9.4 M-21.1 -1.8 L-12.0 -1.8 M19.55 -1.9 Q20.4 -2.2 21.1 -2.9 L21.8 -3.85 22.0 -4.35" fill="none" stroke="#000000" stroke-linecap="butt" stroke-linejoin="miter-clip" stroke-miterlimit="4.0" stroke-opacity="0.6" stroke-width="1.0"/>
    <path d="M0.25 -1.7 L0.25 9.05 2.6 9.05 18.7 9.05 M18.7 -9.4 L18.7 -15.35 0.25 -15.35 0.25 -9.4 Z" fill="none" stroke="#000000" stroke-linecap="round" stroke-linejoin="round" stroke-width="1.0"/>
  </g>
</svg>
