<?xml version="1.0" encoding="UTF-8" standalone="no"?>
<svg xmlns:xlink="http://www.w3.org/1999/xlink" height="908.5px" width="941.45px" xmlns="http://www.w3.org/2000/svg">
  <g transform="matrix(1.0, 0.0, 0.0, 1.0, 470.75, 454.25)">
    <path d="M305.45 -345.9 L470.2 -64.35 470.2 453.75 -470.25 453.75 -470.25 -64.35 -305.5 -345.9 -0.05 -453.75 305.45 -345.9 M440.25 423.8 L440.25 -34.4 -440.3 -34.4 -440.3 423.8 440.25 423.8 M432.85 -68.85 L285.15 -321.3 -0.05 -421.95 -285.2 -321.3 -432.9 -68.85 432.85 -68.85" fill="#ffffff" fill-opacity="0.0" fill-rule="evenodd" stroke="none"/>
    <path d="M305.45 -345.9 L-0.05 -453.75 -305.5 -345.9 -470.25 -64.35 -470.25 453.75 470.2 453.75 470.2 -64.35 305.45 -345.9" fill="none" stroke="#000000" stroke-linecap="round" stroke-linejoin="miter-clip" stroke-miterlimit="4.0" stroke-width="1.0"/>
    <path d="M432.85 -68.85 L-432.9 -68.85 -285.2 -321.3 -0.05 -421.95 285.15 -321.3 432.85 -68.85 M440.25 423.8 L-440.3 423.8 -440.3 -34.4 440.25 -34.4 440.25 423.8" fill="none" stroke="#434343" stroke-linecap="round" stroke-linejoin="miter-clip" stroke-miterlimit="4.0" stroke-opacity="0.6" stroke-width="1.0"/>
  </g>
</svg>
