<?xml version="1.0" encoding="UTF-8" standalone="no"?>
<svg xmlns:xlink="http://www.w3.org/1999/xlink" height="403.75px" width="829.85px" xmlns="http://www.w3.org/2000/svg">
  <g transform="matrix(1.0, 0.0, 0.0, 1.0, 397.1, 77.95)">
    <path d="M49.05 -70.8 L49.0 -70.85 50.15 -72.05 49.05 -70.8 M-377.95 210.85 L-375.8 209.85 -375.8 209.9 -377.95 210.85" fill="#dcddde" fill-rule="evenodd" stroke="none"/>
    <path d="M50.05 -69.25 L49.0 -70.8 49.05 -70.8 50.05 -69.25 M227.0 11.55 L237.05 15.55 226.65 11.85 227.0 11.55 M93.75 239.65 L94.9 238.0 94.95 238.05 93.75 239.65 M168.0 319.1 L166.4 318.8 167.0 318.65 168.0 319.1 M-86.0 139.8 L-86.95 141.05 -86.05 139.75 -86.0 139.8 M-158.85 265.65 L-157.3 263.8 -157.2 263.8 -158.85 265.65" fill="#c5c6c8" fill-rule="evenodd" stroke="none"/>
    <path d="M50.15 -72.05 L55.1 -77.45 59.25 -70.3 68.0 -70.65 65.6 -67.05 71.9 -66.35 76.25 -64.65 75.95 -64.55 75.1 -64.25 66.5 -61.5 53.2 -64.7 50.05 -69.25 49.05 -70.8 50.15 -72.05 M428.05 252.2 L432.25 257.6 427.55 271.7 410.5 270.2 411.15 259.15 418.95 260.75 422.9 259.15 426.6 250.4 428.05 252.2 M227.0 11.55 L234.55 4.05 239.25 10.5 243.2 11.95 251.9 7.9 251.85 8.8 251.2 17.05 237.05 15.55 227.0 11.55 M150.5 27.35 L151.3 26.3 160.35 32.5 154.9 38.35 154.2 42.5 173.6 48.65 172.2 48.85 150.7 51.3 141.15 40.0 150.5 27.35 M93.75 239.65 L94.95 238.05 97.75 239.95 96.05 241.8 95.8 243.1 101.8 245.0 94.75 245.8 91.8 242.3 93.75 239.65 M19.1 307.5 L9.9 308.55 5.85 303.7 10.1 297.85 14.05 300.45 11.7 303.0 11.4 304.75 19.7 307.4 19.1 307.5 M183.9 298.4 Q191.6 299.9 196.6 307.6 L197.0 308.4 196.5 308.8 196.0 309.25 Q193.95 311.15 192.7 313.4 L191.5 318.25 Q182.95 320.2 171.65 319.55 L169.15 319.3 168.0 319.1 167.0 318.65 Q173.75 316.9 181.05 313.6 188.25 310.3 190.25 308.3 192.25 306.4 188.25 302.15 186.25 300.1 183.9 298.4 M204.0 306.55 Q207.9 307.8 210.5 314.4 211.7 317.7 212.2 320.75 L208.85 323.1 Q204.2 325.25 197.75 324.6 L195.25 324.1 195.1 324.05 195.15 324.05 Q198.6 322.55 202.55 319.55 206.2 316.75 207.2 315.05 208.2 313.3 206.2 309.75 L204.0 306.55 M-86.0 139.8 L-83.75 141.3 -85.1 142.8 -85.3 143.85 -80.5 145.35 -86.15 146.0 -88.5 143.2 -86.95 141.05 -86.0 139.8 M-158.85 265.65 L-159.4 266.25 -160.15 267.0 -167.5 275.25 -193.45 278.1 -209.8 270.15 -210.75 254.95 -192.9 264.75 -179.65 258.6 -177.85 266.25 -166.75 263.55 -157.3 263.8 -158.85 265.65 M-369.0 172.25 L-368.75 172.3 -351.7 173.95 -333.0 187.95 -322.4 198.55 -344.65 206.7 -346.2 192.7 -360.3 187.2 -354.0 183.3 -363.35 177.8 -369.0 172.25 M-381.55 212.4 L-382.1 206.7 -387.8 204.55 -385.3 202.9 -388.95 200.85 -384.3 199.2 -376.8 204.85 -375.8 209.85 -377.95 210.85 -381.55 212.4" fill="#000000" fill-opacity="0.09803922" fill-rule="evenodd" stroke="none"/>
    <path d="M55.1 -77.45 L74.3 -76.85 79.6 -65.7 77.5 -65.0 76.25 -64.65 71.9 -66.35 65.6 -67.05 68.0 -70.65 59.25 -70.3 55.1 -77.45 M410.5 270.2 L409.6 270.1 404.15 259.15 416.6 249.0 424.4 247.45 428.05 252.2 426.6 250.4 422.9 259.15 418.95 260.75 411.15 259.15 410.5 270.2 M251.85 8.8 L251.9 7.9 243.2 11.95 239.25 10.5 234.55 4.05 227.0 11.55 226.05 11.15 229.3 -0.65 245.4 0.2 252.2 4.3 251.85 8.8 M172.2 48.85 L173.6 48.65 154.2 42.5 154.9 38.35 160.35 32.5 151.3 26.3 150.5 27.35 151.85 25.5 164.0 26.5 179.95 40.8 177.25 48.3 172.2 48.85 M94.95 238.05 L95.1 237.8 98.9 238.05 103.85 242.5 102.95 244.85 101.85 245.0 101.8 245.0 95.8 243.1 96.05 241.8 97.75 239.95 94.95 238.05 M10.1 297.85 L10.4 297.45 15.65 297.9 22.4 304.05 21.25 307.25 19.1 307.5 19.7 307.4 11.4 304.75 11.7 303.0 14.05 300.45 10.1 297.85 M167.0 318.65 L159.85 315.35 159.8 315.3 159.65 315.0 159.6 314.95 159.45 314.65 Q159.0 313.65 159.0 312.45 159.0 310.55 160.25 308.25 L161.5 306.4 Q164.05 303.8 168.1 301.5 176.2 296.9 183.9 298.4 186.25 300.1 188.25 302.15 192.25 306.4 190.25 308.3 188.25 310.3 181.05 313.6 173.75 316.9 167.0 318.65 M197.0 308.4 Q197.4 308.0 197.9 307.75 L204.0 306.55 206.2 309.75 Q208.2 313.3 207.2 315.05 206.2 316.75 202.55 319.55 198.6 322.55 195.15 324.05 191.4 322.7 191.4 318.6 L191.5 318.25 192.7 313.4 Q193.95 311.15 196.0 309.25 L196.5 308.8 197.0 308.4 M-80.5 145.35 L-85.3 143.85 -85.1 142.8 -83.75 141.3 -86.0 139.8 -85.85 139.6 -82.85 139.8 -78.85 143.35 -79.6 145.25 -80.45 145.35 -80.5 145.35 M-157.3 263.8 L-166.75 263.55 -177.85 266.25 -179.65 258.6 -192.9 264.75 -210.75 254.95 -179.65 243.9 -153.7 259.65 -157.3 263.8 M-369.0 172.25 L-363.35 177.8 -354.0 183.3 -360.3 187.2 -346.2 192.7 -344.65 206.7 -372.75 198.55 -375.1 171.6 -369.0 172.25 M-384.3 199.2 L-388.95 200.85 -385.3 202.9 -387.8 204.55 -382.1 206.7 -381.55 212.4 -393.45 206.7 -396.3 202.35 -384.3 199.2" fill="#ffffff" fill-opacity="0.0" fill-rule="evenodd" stroke="none"/>
    <path d="M168.15 319.2 L168.0 319.1 169.15 319.3 168.15 319.2" fill="#dedfe0" fill-rule="evenodd" stroke="none"/>
    <path d="M49.05 -70.8 L49.0 -70.85 50.15 -72.05 55.1 -77.45 74.3 -76.85 79.6 -65.7 77.5 -65.0 75.1 -64.25 66.5 -61.5 53.2 -64.7 50.05 -69.25 49.05 -70.8 M75.1 -64.25 L75.95 -64.55 M77.5 -65.0 L76.25 -64.65 M428.05 252.2 L432.25 257.6 427.55 271.7 410.5 270.2 409.6 270.1 404.15 259.15 416.6 249.0 424.4 247.45 428.05 252.2 M227.0 11.55 L237.05 15.55 251.2 17.05 251.85 8.8 252.2 4.3 245.4 0.2 229.3 -0.65 226.05 11.15 227.0 11.55 M172.2 48.85 L177.25 48.3 179.95 40.8 164.0 26.5 151.85 25.5 150.5 27.35 141.15 40.0 150.7 51.3 172.2 48.85 M93.75 239.65 L94.95 238.05 95.1 237.8 98.9 238.05 103.85 242.5 102.95 244.85 101.85 245.0 101.8 245.0 94.75 245.8 91.8 242.3 93.75 239.65 M10.1 297.85 L10.4 297.45 15.65 297.9 22.4 304.05 21.25 307.25 19.1 307.5 9.9 308.55 5.85 303.7 10.1 297.85 M167.0 318.65 L159.85 315.35 159.8 315.3 159.65 315.0 159.6 314.95 159.45 314.65 Q159.0 313.65 159.0 312.45 159.0 310.55 160.25 308.25 L161.5 306.4 Q164.05 303.8 168.1 301.5 176.2 296.9 183.9 298.4 191.6 299.9 196.6 307.6 L197.0 308.4 Q197.4 308.0 197.9 307.75 L204.0 306.55 Q207.9 307.8 210.5 314.4 211.7 317.7 212.2 320.75 L208.85 323.1 Q204.2 325.25 197.75 324.6 L195.25 324.1 M195.15 324.05 Q191.4 322.7 191.4 318.6 L191.5 318.25 Q182.95 320.2 171.65 319.55 L168.15 319.2 168.0 319.1 167.0 318.65 M191.5 318.25 L192.7 313.4 Q193.95 311.15 196.0 309.25 L196.5 308.8 197.0 308.4 M168.15 319.2 L169.15 319.3 171.65 319.55 M-86.0 139.8 L-86.95 141.05 -88.5 143.2 -86.15 146.0 -80.5 145.35 -80.45 145.35 -79.6 145.25 -78.85 143.35 -82.85 139.8 -85.85 139.6 -86.0 139.8 M-210.75 254.95 L-209.8 270.15 -193.45 278.1 -167.5 275.25 -160.15 267.0 -159.4 266.25 -158.85 265.65 -157.3 263.8 -153.7 259.65 -179.65 243.9 -210.75 254.95 M-344.65 206.7 L-322.4 198.55 -333.0 187.95 -351.7 173.95 -368.75 172.3 M-369.0 172.25 L-375.1 171.6 -372.75 198.55 -344.65 206.7 M-381.55 212.4 L-377.95 210.85 -375.8 209.9 -375.8 209.85 -376.8 204.85 -384.3 199.2 -396.3 202.35 -393.45 206.7 -381.55 212.4" fill="none" stroke="#000000" stroke-linecap="round" stroke-linejoin="miter-clip" stroke-miterlimit="4.0" stroke-opacity="0.6" stroke-width="1.0"/>
  </g>
</svg>
