<?xml version="1.0" encoding="UTF-8" standalone="no"?>
<svg xmlns:xlink="http://www.w3.org/1999/xlink" height="44.95px" width="186.95px" xmlns="http://www.w3.org/2000/svg">
  <g transform="matrix(1.0, 0.0, 0.0, 1.0, 104.1, 34.65)">
    <path d="M0.7 4.65 Q0.8 2.1 3.9 -4.05 L3.85 0.25 Q3.95 2.65 4.35 4.05 5.5 -0.9 7.15 -4.05 7.3 -2.9 7.95 -0.75 L8.85 2.3 Q9.8 0.2 10.25 -2.6 L10.9 -7.7 Q12.65 -2.4 15.5 -1.55 16.25 -6.0 13.85 -11.55 11.8 -16.2 8.25 -20.2 L15.8 -12.05 Q20.2 -7.1 22.0 -2.85 22.9 -5.2 23.1 -8.5 L23.3 -14.0 Q23.8 -20.45 28.6 -24.2 27.6 -19.45 27.4 -17.15 27.05 -13.1 28.0 -9.95 31.2 -20.55 32.2 -22.8 35.25 -29.75 40.45 -33.25 35.85 -24.0 34.0 -15.5 31.55 -4.45 34.3 3.15 34.25 -1.65 35.9 -6.55 37.45 -11.2 40.3 -15.25 40.5 -12.85 39.75 -8.2 39.0 -3.35 39.1 -1.0 39.35 -5.95 45.15 -12.45 45.1 -8.85 43.75 -4.2 45.25 -8.15 49.45 -12.5 54.1 -17.4 59.05 -19.9 54.15 -11.3 53.3 -9.3 50.6 -3.2 50.8 2.5 51.7 -1.9 57.6 -6.8 57.1 -1.8 54.95 2.3 56.45 -0.35 57.8 -1.85 59.6 -3.95 61.75 -4.9 62.3 -1.65 61.3 3.15 62.85 1.25 64.4 -2.35 66.0 -6.4 66.9 -8.25 L67.95 -2.8 Q68.5 0.55 69.5 2.45 69.6 0.85 70.4 -0.65 L72.1 -3.35 72.15 -0.85 72.15 1.75 Q73.7 0.1 76.4 -1.55 L81.05 -4.2 Q80.9 -1.9 78.8 2.2 L77.5 5.0 77.0 6.2 76.65 7.3 Q76.45 7.85 76.4 8.35 L76.35 8.6 75.9 8.75 73.7 9.25 Q72.95 9.15 72.3 8.05 L71.75 7.25 71.35 7.0 71.3 7.0 70.5 7.2 69.2 7.8 67.25 8.8 66.95 7.75 66.75 7.15 66.65 6.65 66.4 6.7 65.85 6.9 65.2 7.15 Q64.7 7.35 64.1 7.65 L61.6 8.85 61.3 7.45 61.2 7.05 Q61.0 6.3 61.1 5.85 L59.8 7.05 58.35 8.1 Q56.8 8.85 56.2 6.7 L56.15 6.6 54.75 7.55 53.95 6.7 53.85 6.6 Q53.15 5.9 53.0 5.35 L52.85 5.75 52.5 6.4 52.05 6.95 Q50.5 8.3 47.0 7.65 L42.8 6.65 39.6 5.7 39.45 5.65 35.3 6.0 31.25 6.15 Q30.6 6.0 30.15 4.7 29.75 3.4 28.95 3.3 28.45 3.25 25.35 5.6 L24.7 3.9 24.0 2.5 23.35 4.1 21.8 2.8 20.3 1.55 Q20.85 4.25 19.15 5.25 17.45 6.25 16.55 3.4 15.3 3.8 13.65 5.3 L13.4 5.55 13.2 5.75 12.6 6.3 11.05 7.5 11.0 6.15 10.9 4.8 Q10.1 5.1 8.55 6.25 L6.95 7.45 6.6 6.2 Q6.05 5.15 4.8 5.25 L4.75 5.25 3.1 5.8 Q2.7 5.95 2.25 6.15 L1.4 6.5 Q1.3 5.1 0.7 4.65 M43.15 -2.4 L43.75 -4.2 43.15 -2.4 M-80.25 7.45 L-84.9 2.3 Q-86.5 0.4 -87.65 -1.85 L-83.5 2.15 Q-84.65 -2.0 -87.15 -6.45 -86.3 -5.35 -84.45 -3.9 L-81.65 -1.55 Q-82.45 -4.6 -84.45 -9.1 L-87.9 -16.65 -83.1 -11.15 Q-80.2 -7.8 -78.8 -5.25 -78.3 -7.65 -77.1 -9.75 -75.85 -11.9 -74.15 -13.1 -72.25 -7.75 -74.05 -2.4 -72.5 -5.1 -67.9 -8.3 -68.0 -7.3 -67.7 -4.8 -67.4 -2.4 -67.55 -1.3 -64.65 -4.45 -60.5 -6.7 -60.2 -3.25 -62.1 3.05 -61.05 2.0 -58.95 1.15 -56.3 0.05 -55.95 -0.2 -56.15 0.7 -55.8 2.9 L-55.6 4.5 -55.6 4.55 -55.55 5.2 -56.25 5.1 -59.15 4.95 -62.5 4.95 -68.65 5.7 -74.35 6.25 Q-77.55 6.4 -79.6 6.2 L-80.25 7.45" fill="#ffffff" fill-opacity="0.0" fill-rule="evenodd" stroke="none"/>
    <path d="M0.7 4.65 Q0.8 2.1 3.9 -4.05 L3.85 0.25 Q3.95 2.65 4.35 4.05 5.5 -0.9 7.15 -4.05 7.3 -2.9 7.95 -0.75 L8.85 2.3 Q9.8 0.2 10.25 -2.6 L10.9 -7.7 Q12.65 -2.4 15.5 -1.55 16.25 -6.0 13.85 -11.55 11.8 -16.2 8.25 -20.2 L15.8 -12.05 Q20.2 -7.1 22.0 -2.85 22.9 -5.2 23.1 -8.5 L23.3 -14.0 Q23.8 -20.45 28.6 -24.2 27.6 -19.45 27.4 -17.15 27.05 -13.1 28.0 -9.95 31.2 -20.55 32.2 -22.8 35.25 -29.75 40.45 -33.25 35.85 -24.0 34.0 -15.5 31.55 -4.45 34.3 3.15 34.25 -1.65 35.9 -6.55 37.45 -11.2 40.3 -15.25 40.5 -12.85 39.75 -8.2 39.0 -3.35 39.1 -1.0 39.35 -5.95 45.15 -12.45 45.1 -8.85 43.75 -4.2 45.25 -8.15 49.45 -12.5 54.1 -17.4 59.05 -19.9 54.15 -11.3 53.3 -9.3 50.6 -3.2 50.8 2.5 51.7 -1.9 57.6 -6.8 57.1 -1.8 54.95 2.3 56.45 -0.35 57.8 -1.85 59.6 -3.95 61.75 -4.9 62.3 -1.65 61.3 3.15 62.85 1.25 64.4 -2.35 66.0 -6.4 66.9 -8.25 L67.95 -2.8 Q68.5 0.55 69.5 2.45 69.6 0.85 70.4 -0.65 L72.1 -3.35 72.15 -0.85 72.15 1.75 Q73.7 0.1 76.4 -1.55 L81.05 -4.2 Q80.9 -1.9 78.8 2.2 L77.5 5.0 77.0 6.2 76.65 7.3 Q76.45 7.85 76.4 8.35 L76.35 8.6 78.25 8.05 82.35 8.75 M43.75 -4.2 L43.15 -2.4 M0.7 4.65 Q1.3 5.1 1.4 6.5 L2.25 6.15 Q2.7 5.95 3.1 5.8 L4.75 5.25 4.8 5.25 Q6.05 5.15 6.6 6.2 L6.95 7.45 8.55 6.25 Q10.1 5.1 10.9 4.8 L11.0 6.15 11.05 7.5 12.6 6.3 13.2 5.75 13.4 5.55 13.65 5.3 Q15.3 3.8 16.55 3.4 17.45 6.25 19.15 5.25 20.85 4.25 20.3 1.55 L21.8 2.8 23.35 4.1 24.0 2.5 24.7 3.9 25.35 5.6 Q28.45 3.25 28.95 3.3 29.75 3.4 30.15 4.7 30.6 6.0 31.25 6.15 L35.3 6.0 39.45 5.65 39.6 5.7 42.8 6.65 47.0 7.65 Q50.5 8.3 52.05 6.95 L52.5 6.4 52.85 5.75 53.0 5.35 Q53.15 5.9 53.85 6.6 L53.95 6.7 54.75 7.55 56.15 6.6 56.2 6.7 Q56.8 8.85 58.35 8.1 L59.8 7.05 61.1 5.85 Q61.0 6.3 61.2 7.05 L61.3 7.45 61.6 8.85 64.1 7.65 Q64.7 7.35 65.2 7.15 L65.85 6.9 66.4 6.7 66.65 6.65 66.75 7.15 66.95 7.75 67.25 8.8 69.2 7.8 70.5 7.2 71.3 7.0 71.35 7.0 71.75 7.25 72.3 8.05 Q72.95 9.15 73.7 9.25 L75.9 8.75 76.35 8.6 M-80.25 7.45 L-84.9 2.3 Q-86.5 0.4 -87.65 -1.85 L-83.5 2.15 Q-84.65 -2.0 -87.15 -6.45 -86.3 -5.35 -84.45 -3.9 L-81.65 -1.55 Q-82.45 -4.6 -84.45 -9.1 L-87.9 -16.65 -83.1 -11.15 Q-80.2 -7.8 -78.8 -5.25 -78.3 -7.65 -77.1 -9.75 -75.85 -11.9 -74.15 -13.1 -72.25 -7.75 -74.05 -2.4 -72.5 -5.1 -67.9 -8.3 -68.0 -7.3 -67.7 -4.8 -67.4 -2.4 -67.55 -1.3 -64.65 -4.45 -60.5 -6.7 -60.2 -3.25 -62.1 3.05 -61.05 2.0 -58.95 1.15 -56.3 0.05 -55.95 -0.2 -56.15 0.7 -55.8 2.9 L-55.6 4.5 -55.6 4.55 -55.55 4.95 -55.55 5.2 -52.35 5.45 -43.45 5.8 Q-33.55 5.75 -33.6 3.4 L-30.7 4.2 -27.75 4.65 -27.6 2.5 -24.95 2.9 -22.2 3.3 -22.45 2.0 -20.95 2.9 Q-19.85 3.45 -19.5 3.75 -19.65 0.55 -17.9 -2.15 -16.85 -0.6 -16.2 3.25 L-14.75 -1.1 Q-13.65 -3.5 -11.6 -3.95 -11.75 -2.55 -12.4 -0.35 L-13.45 3.2 Q-12.85 2.2 -12.0 1.8 L-10.25 1.1 -10.3 2.8 -10.6 4.2 Q-9.75 3.05 -7.5 2.05 L-7.35 4.25 -7.45 6.45 Q-6.7 4.6 -4.3 3.4 L-3.95 4.7 -3.65 6.05 Q-1.45 4.8 -0.45 4.55 L0.7 4.65 M-80.25 7.45 L-79.6 6.2 Q-77.55 6.4 -74.35 6.25 L-68.65 5.7 -62.5 4.95 -59.15 4.95 -56.25 5.1 -55.55 5.2 -55.6 4.55 M-99.5 8.9 L-102.7 5.7 Q-101.7 5.9 -100.15 6.95 L-97.7 8.35 Q-98.2 7.6 -98.5 6.35 L-99.0 4.3 Q-96.7 6.25 -95.9 7.35 L-96.05 5.6 Q-96.05 4.35 -96.2 3.85 L-94.9 4.95 -93.6 6.1 -93.45 4.35 Q-91.45 5.1 -90.75 7.35 -90.35 6.65 -89.55 6.1 L-88.4 5.25 -87.9 6.75 -87.45 8.35 Q-87.0 7.4 -86.05 6.55 L-84.3 5.15 -83.65 6.4 Q-83.1 7.3 -83.05 7.8 -82.1 6.7 -81.75 6.75 L-80.25 7.45" fill="none" stroke="#000000" stroke-linecap="round" stroke-linejoin="miter-clip" stroke-miterlimit="4.0" stroke-opacity="0.6" stroke-width="1.0"/>
  </g>
</svg>
