<?xml version="1.0" encoding="UTF-8" standalone="no"?>
<svg xmlns:xlink="http://www.w3.org/1999/xlink" height="3794.15px" width="3684.25px" xmlns="http://www.w3.org/2000/svg">
  <g transform="matrix(1.0, 0.0, 0.0, 1.0, 1842.1, 1897.0)">
    <path d="M35.2 -1896.25 L131.75 -1891.45 143.8 -1638.55 35.45 -1445.95 11.4 -1771.0 -102.5 -1896.25 35.2 -1896.25 M1444.4 209.35 L1372.15 678.8 1534.65 913.55 1606.85 1256.7 1697.2 1545.6 1841.65 1780.35 1835.2 1896.25 1645.85 1896.25 1697.0 1768.6 1528.4 1600.05 1456.15 1190.7 1420.05 937.9 1275.6 925.9 1250.05 1020.7 Q1222.95 1119.95 1215.4 1142.55 1207.85 1165.15 1186.75 1258.45 1176.2 1305.1 1167.15 1347.3 L1124.1 1605.6 1070.85 1359.3 1124.1 1605.6 1119.0 1636.2 1070.85 1359.3 1143.1 925.9 1046.8 697.05 1275.6 612.8 1323.75 372.05 1339.2 345.8 Q1357.95 314.5 1374.95 288.5 1429.2 205.65 1444.4 209.35 M1052.35 1896.25 L933.9 1896.25 866.25 1648.2 878.25 1214.8 974.55 1551.9 1052.35 1896.25 M781.7 1896.25 L475.3 1896.25 541.15 1600.05 408.7 1130.5 625.4 817.55 565.2 1178.65 577.25 1419.5 733.8 1720.45 781.7 1896.25 M67.9 1896.25 L-301.6 1896.25 -277.5 1756.55 -313.6 1178.65 -373.9 1359.3 -434.1 1804.7 -452.9 1896.25 -589.1 1896.25 -554.45 1612.1 -638.75 1106.45 -578.55 1046.25 -193.25 974.05 -133.05 1238.85 -96.95 937.9 23.45 925.9 -0.65 1262.95 107.7 1479.7 95.65 1816.75 67.9 1896.25 M-930.7 1896.25 L-1841.6 1896.25 -1841.6 1347.0 -1601.9 1326.2 -1529.7 1287.0 -1481.55 1636.2 -1409.2 1383.4 -1337.0 1226.8 -1036.05 1479.7 -982.55 1687.5 -963.85 1756.55 -947.7 1826.55 -930.7 1896.25 M-832.7 621.45 L-862.15 629.4 -954.9 648.0 -1037.65 652.55 Q-1153.45 659.1 -1168.45 660.95 -1183.5 662.8 -1291.85 663.6 L-1397.2 664.05 -1425.85 671.6 Q-1461.95 680.55 -1499.55 688.1 -1518.55 691.9 -1568.9 697.65 L-1723.75 713.2 -1805.7 720.55 -1746.35 564.65 -1517.65 251.6 -1529.7 636.9 -1409.2 456.3 -1349.05 239.55 -1300.9 540.6 -1168.45 660.95 -879.5 504.45 -832.7 621.45 M689.6 676.05 L632.6 674.85 655.0 642.35 729.5 658.95 689.6 676.05 M-927.7 1046.25 L-932.2 1023.65 -897.6 1031.25 -906.65 1061.3 -927.7 1046.25 M-982.55 1687.5 L-947.7 1826.55 -982.55 1687.5 M-1341.05 1173.75 L-1427.3 1190.7 -1406.25 1148.6 -1365.1 1141.6 -1341.05 1173.75" fill="#000000" fill-opacity="0.2509804" fill-rule="evenodd" stroke="none"/>
    <path d="M-102.5 -1896.25 L11.4 -1771.0 35.45 -1445.95 143.8 -1638.55 131.75 -1891.45 35.2 -1896.25 382.25 -1896.25 312.4 -1662.65 107.7 -1373.75 71.6 -651.3 73.95 -646.35 71.6 -603.15 -12.7 -916.2 35.45 -1445.95 -48.8 -1674.7 -277.5 -1807.2 -325.65 -1205.1 -277.5 -362.4 -229.35 239.55 -446.15 480.4 -325.65 155.3 -353.3 -61.3 -361.75 -133.6 -370.5 -188.2 -397.95 -398.5 -458.2 -736.0 -397.95 -398.5 -370.5 -188.2 -458.2 -736.0 -578.55 -1409.85 -434.1 -1758.95 -420.3 -1896.25 -102.5 -1896.25 M426.05 -14.95 L420.75 -16.2 293.65 162.95 312.4 119.2 107.7 215.5 -96.95 251.6 155.95 -49.35 288.35 -266.1 487.25 -314.45 396.95 -170.0 426.05 -14.95 M-1841.6 246.25 L-1841.6 -1896.25 -1696.55 -1896.25 -1638.0 -1650.6 -1698.2 -1229.2 -1710.25 -422.6 -1806.55 167.35 -1841.6 246.25 M-1372.85 -1896.25 L-1208.8 -1896.25 -1156.45 -1686.7 -1048.1 -1578.4 -1264.75 -1361.7 -1252.75 -771.75 -1096.25 -169.7 -963.85 119.2 -1168.45 119.2 -1349.05 239.55 -1529.7 636.9 -1517.65 251.6 -1312.9 -1.2 -1337.0 -542.95 -1433.4 -1385.8 -1312.9 -1686.7 -1372.85 -1896.25 M-6.0 460.45 L11.4 408.15 211.85 302.65 203.9 314.25 193.1 397.2 206.95 410.3 -6.0 460.45 M-828.75 620.35 L-830.6 620.85 -807.25 492.45 -735.05 107.15 -759.1 -482.8 -879.5 -711.5 -662.8 -494.8 -650.75 179.35 -735.05 456.3 -828.75 620.35 M-1549.7 1117.5 L-1501.55 1165.65 -1597.85 1149.65 -1549.7 1117.5" fill="#000000" fill-opacity="0.14901961" fill-rule="evenodd" stroke="none"/>
    <path d="M-420.3 -1896.25 L-434.1 -1758.95 -578.55 -1409.85 -458.2 -736.0 -370.5 -188.2 -353.3 -61.3 -325.65 155.3 -446.15 480.4 -229.35 239.55 -277.5 -362.4 -325.65 -1205.1 -277.5 -1807.2 -48.8 -1674.7 35.45 -1445.95 -12.7 -916.2 71.6 -603.15 73.95 -646.35 71.6 -651.3 107.7 -1373.75 312.4 -1662.65 382.25 -1896.25 415.05 -1650.7 324.7 -1253.45 360.85 -729.75 487.25 -314.45 288.35 -266.1 155.95 -49.35 -96.95 251.6 107.7 215.5 312.4 119.2 293.65 162.95 420.75 -16.2 426.05 -14.95 624.85 119.0 1173.5 119.0 1299.95 82.9 1444.4 209.35 Q1429.2 205.65 1374.95 288.5 1357.95 314.5 1339.2 345.8 L1323.75 372.05 1275.6 612.8 1046.8 697.05 1143.1 925.9 1070.85 1359.3 1119.0 1636.2 1124.1 1605.6 1167.15 1347.3 Q1176.2 1305.1 1186.75 1258.45 1207.85 1165.15 1215.4 1142.55 1222.95 1119.95 1250.05 1020.7 L1275.6 925.9 1420.05 937.9 1456.15 1190.7 1528.4 1600.05 1697.0 1768.6 1645.85 1896.25 1052.35 1896.25 974.55 1551.9 878.25 1214.8 866.25 1648.2 933.9 1896.25 781.7 1896.25 733.8 1720.45 577.25 1419.5 565.2 1178.65 625.4 817.55 408.7 1130.5 541.15 1600.05 475.3 1896.25 67.9 1896.25 95.65 1816.75 107.7 1479.7 -0.65 1262.95 23.45 925.9 -96.95 937.9 -133.05 1238.85 -193.25 974.05 -578.55 1046.25 -638.75 1106.45 -554.45 1612.1 -589.1 1896.25 -930.7 1896.25 -947.7 1826.55 -963.85 1756.55 -982.55 1687.5 -1036.05 1479.7 -1337.0 1226.8 -1409.2 1383.4 -1481.55 1636.2 -1529.7 1287.0 -1601.9 1326.2 -1841.6 1347.0 -1841.6 942.65 -1841.6 723.6 -1841.6 246.25 -1806.55 167.35 -1710.25 -422.6 -1698.2 -1229.2 -1638.0 -1650.6 -1696.55 -1896.25 -1372.85 -1896.25 -1312.9 -1686.7 -1433.4 -1385.8 -1337.0 -542.95 -1312.9 -1.2 -1517.65 251.6 -1746.35 564.65 -1805.7 720.55 -1723.75 713.2 -1568.9 697.65 Q-1518.55 691.9 -1499.55 688.1 -1461.95 680.55 -1425.85 671.6 L-1397.2 664.05 -1291.85 663.6 Q-1183.5 662.8 -1168.45 660.95 -1153.45 659.1 -1037.65 652.55 L-954.9 648.0 -862.15 629.4 -832.7 621.45 -830.6 620.85 -832.7 621.45 -879.5 504.45 -1168.45 660.95 -1300.9 540.6 -1349.05 239.55 -1409.2 456.3 -1529.7 636.9 -1349.05 239.55 -1168.45 119.2 -963.85 119.2 -1096.25 -169.7 -1252.75 -771.75 -1264.75 -1361.7 -1048.1 -1578.4 -1156.45 -1686.7 -1208.8 -1896.25 -420.3 -1896.25 M155.95 -470.75 L73.95 -646.35 155.95 -470.75 M-301.6 1896.25 L-452.9 1896.25 -434.1 1804.7 -373.9 1359.3 -313.6 1178.65 -277.5 1756.55 -301.6 1896.25 M206.95 410.3 L193.1 397.2 203.9 314.25 211.85 302.65 11.4 408.15 -6.0 460.45 206.95 410.3 M-828.75 620.35 L-640.95 570.0 -578.55 552.6 -259.5 513.5 -6.0 460.45 -259.5 513.5 -578.55 552.6 -640.95 570.0 -828.75 620.35 -735.05 456.3 -650.75 179.35 -662.8 -494.8 -879.5 -711.5 -759.1 -482.8 -735.05 107.15 -807.25 492.45 -830.6 620.85 -828.75 620.35 M709.75 219.0 L727.75 212.5 607.4 471.35 -560.45 796.45 -1662.1 959.0 -1841.6 942.65 -1662.1 959.0 -560.45 796.45 607.4 471.35 727.75 212.5 709.75 219.0 M-1841.6 723.6 L-1805.7 720.55 -1841.6 723.6 M689.6 676.05 L729.5 658.95 655.0 642.35 632.6 674.85 689.6 676.05 M1155.15 600.75 L950.5 648.9 757.9 685.05 553.15 781.35 276.3 805.4 107.7 889.75 -96.95 937.9 -446.15 986.05 -795.2 1070.35 -891.5 1082.35 -1180.5 1154.6 -1668.05 1290.1 -1589.85 1302.1 -1838.7 1326.2 -1589.85 1302.1 -1668.05 1290.1 -1180.5 1154.6 -891.5 1082.35 -795.2 1070.35 -446.15 986.05 -96.95 937.9 107.7 889.75 276.3 805.4 553.15 781.35 757.9 685.05 950.5 648.9 1155.15 600.75 M-927.7 1046.25 L-906.65 1061.3 -897.6 1031.25 -932.2 1023.65 -927.7 1046.25 M-1549.7 1117.5 L-1597.85 1149.65 -1501.55 1165.65 -1549.7 1117.5 M-1341.05 1173.75 L-1365.1 1141.6 -1406.25 1148.6 -1427.3 1190.7 -1341.05 1173.75 M107.7 1479.7 L107.7 1865.0 107.7 1479.7 M1167.15 1804.7 L1124.1 1605.6 1167.15 1804.7" fill="#ffffff" fill-opacity="0.0" fill-rule="evenodd" stroke="none"/>
    <path d="M-370.5 -188.2 L-361.75 -133.6 -353.3 -61.3 -370.5 -188.2" fill="#d1d1d1" fill-rule="evenodd" stroke="none"/>
    <path d="M35.2 -1896.25 L-102.5 -1896.25 -420.3 -1896.25 -1208.8 -1896.25 -1372.85 -1896.25 -1696.55 -1896.25 -1841.6 -1896.25 -1841.6 246.25 -1841.6 723.6 -1841.6 942.65 -1841.6 1347.0 -1841.6 1896.25 -930.7 1896.25 -589.1 1896.25 -452.9 1896.25 -301.6 1896.25 67.9 1896.25 475.3 1896.25 781.7 1896.25 933.9 1896.25 1052.35 1896.25 1645.85 1896.25 1835.2 1896.25 1841.65 1780.35 1697.2 1545.6 1606.85 1256.7 1534.65 913.55 1372.15 678.8 1444.4 209.35 1299.95 82.9 1173.5 119.0 624.85 119.0 426.05 -14.95 396.95 -170.0 487.25 -314.45 360.85 -729.75 324.7 -1253.45 415.05 -1650.7 382.25 -1896.25 35.2 -1896.25" fill="none" stroke="#000000" stroke-linecap="round" stroke-linejoin="miter-clip" stroke-miterlimit="4.0" stroke-width="1.0"/>
    <path d="M-420.3 -1896.25 L-434.1 -1758.95 -578.55 -1409.85 -458.2 -736.0 -397.95 -398.5 -370.5 -188.2 -353.3 -61.3 -325.65 155.3 -446.15 480.4 M73.95 -646.35 L71.6 -651.3 107.7 -1373.75 312.4 -1662.65 382.25 -1896.25 M73.95 -646.35 L155.95 -470.75 M206.95 410.3 L-6.0 460.45 -259.5 513.5 -578.55 552.6 -640.95 570.0 -828.75 620.35 -830.6 620.85 -832.7 621.45 -862.15 629.4 -954.9 648.0 -1037.65 652.55 Q-1153.45 659.1 -1168.45 660.95 -1183.5 662.8 -1291.85 663.6 L-1397.2 664.05 -1425.85 671.6 Q-1461.95 680.55 -1499.55 688.1 -1518.55 691.9 -1568.9 697.65 L-1723.75 713.2 -1805.7 720.55 -1841.6 723.6 M-1841.6 942.65 L-1662.1 959.0 -560.45 796.45 607.4 471.35 727.75 212.5 709.75 219.0 M-1838.7 1326.2 L-1589.85 1302.1 -1668.05 1290.1 -1180.5 1154.6 -891.5 1082.35 -795.2 1070.35 -446.15 986.05 -96.95 937.9 107.7 889.75 276.3 805.4 553.15 781.35 757.9 685.05 950.5 648.9 1155.15 600.75 M1323.75 372.05 L1275.6 612.8 1046.8 697.05 1143.1 925.9 1070.85 1359.3 1124.1 1605.6 1167.15 1804.7 M-963.85 119.2 L-1096.25 -169.7 -1252.75 -771.75 -1264.75 -1361.7 -1048.1 -1578.4 -1156.45 -1686.7 -1208.8 -1896.25 M-1806.55 167.35 L-1710.25 -422.6 -1698.2 -1229.2 -1638.0 -1650.6 -1696.55 -1896.25 M-578.55 1046.25 L-638.75 1106.45 -554.45 1612.1 -589.1 1896.25 M-930.7 1896.25 L-947.7 1826.55 -982.55 1687.5 -1036.05 1479.7 -1337.0 1226.8 M107.7 1479.7 L-0.65 1262.95 23.45 925.9 M107.7 1865.0 L107.7 1479.7" fill="none" stroke="#000000" stroke-linecap="round" stroke-linejoin="miter-clip" stroke-miterlimit="4.0" stroke-opacity="0.6" stroke-width="1.0"/>
  </g>
</svg>
