<?xml version="1.0" encoding="UTF-8" standalone="no"?>
<svg xmlns:xlink="http://www.w3.org/1999/xlink" height="292.9px" width="305.5px" xmlns="http://www.w3.org/2000/svg">
  <g transform="matrix(1.0, 0.0, 0.0, 1.0, 0.0, 0.0)">
    <path d="M93.3 0.0 L139.3 3.05 207.15 7.55 225.05 8.7 225.05 56.55 225.05 88.85 225.05 183.05 225.05 187.5 225.05 287.55 220.45 287.3 93.3 280.0 93.3 181.7 93.3 81.3 93.3 32.2 93.3 0.0" fill="#ffffff" fill-opacity="0.0" fill-rule="evenodd" stroke="none"/>
    <path d="M225.05 8.7 L229.95 11.1 305.5 48.15 305.5 125.1 305.5 213.5 305.5 230.6 305.5 292.9 261.6 290.0 225.05 287.55 225.05 187.5 226.75 187.95 225.05 183.05 225.05 88.85 225.05 56.55 225.05 8.7" fill="#ffffff" fill-opacity="0.2" fill-rule="evenodd" stroke="none"/>
    <path d="M93.3 280.0 L69.15 278.1 68.15 278.0 47.75 276.4 0.0 272.55 0.0 204.25 0.0 136.15 0.0 113.6 0.0 78.0 0.0 46.1 80.05 6.55 93.3 0.0 93.3 32.2 93.3 81.3 93.3 181.7 93.3 280.0" fill="#ffffff" fill-opacity="0.09803922" fill-rule="evenodd" stroke="none"/>
  </g>
</svg>
