<?xml version="1.0" encoding="UTF-8" standalone="no"?>
<svg xmlns:xlink="http://www.w3.org/1999/xlink" height="44.6px" width="360.5px" xmlns="http://www.w3.org/2000/svg">
  <g transform="matrix(1.0, 0.0, 0.0, 1.0, 181.25, -82.5)">
    <path d="M133.7 83.1 L134.15 83.0 174.3 83.0 Q178.3 83.7 178.3 87.95 L178.3 117.7 Q178.3 122.35 174.8 124.6 171.7 126.6 166.3 126.6 L142.6 126.6 Q137.2 126.6 134.15 124.6 130.6 122.35 130.6 117.7 L130.6 115.7 130.6 87.95 Q130.6 83.95 133.7 83.1 130.6 83.95 130.6 87.95 L130.6 115.7 118.6 115.7 Q114.55 115.7 112.25 114.2 109.6 112.5 109.6 109.05 L109.6 99.1 82.95 98.0 77.85 95.6 13.65 95.75 10.3 97.65 Q6.35 99.6 3.35 99.65 0.35 99.7 -3.5 97.8 L-6.75 95.85 -12.7 95.85 -14.45 98.85 Q-17.0 101.8 -21.1 101.5 -25.2 101.8 -27.95 98.85 L-29.9 95.85 -37.0 95.85 Q-45.0 98.1 -50.9 98.4 L-60.75 99.05 -69.55 99.4 Q-72.25 99.35 -74.75 97.6 L-76.65 95.85 -111.7 99.0 -111.7 109.05 Q-111.7 112.5 -114.3 114.2 -116.6 115.7 -120.65 115.7 L-132.7 115.7 -132.7 117.7 Q-132.7 122.35 -136.2 124.6 -139.3 126.6 -144.7 126.6 L-168.4 126.6 Q-173.8 126.6 -176.85 124.6 -180.4 122.35 -180.4 117.7 L-180.4 87.95 Q-180.4 83.7 -176.35 83.0 L-136.2 83.0 -135.75 83.1 -120.65 83.1 -114.3 83.1 Q-111.7 83.6 -111.7 86.8 L-111.7 90.0 109.6 90.0 109.6 86.8 Q109.6 83.6 112.25 83.1 L118.6 83.1 133.7 83.1 M-111.7 90.0 L-111.7 99.0 -111.7 90.0 M-132.7 115.7 L-132.7 87.95 Q-132.7 83.95 -135.75 83.1 -132.7 83.95 -132.7 87.95 L-132.7 115.7 M109.6 99.1 L109.6 90.0 109.6 99.1" fill="#000000" fill-rule="evenodd" stroke="none"/>
    <path d="M130.6 115.7 L130.6 117.7 Q130.6 122.35 134.15 124.6 137.2 126.6 142.6 126.6 L166.3 126.6 Q171.7 126.6 174.8 124.6 178.3 122.35 178.3 117.7 L178.3 87.95 Q178.3 83.7 174.3 83.0 L134.15 83.0 133.7 83.1 Q130.6 83.95 130.6 87.95 L130.6 115.7 118.6 115.7 Q114.55 115.7 112.25 114.2 109.6 112.5 109.6 109.05 L109.6 99.1 82.95 98.0 77.85 95.6 13.65 95.75 10.3 97.65 Q6.35 99.6 3.35 99.65 0.35 99.7 -3.5 97.8 L-6.75 95.85 -12.7 95.85 -14.45 98.85 Q-17.0 101.8 -21.1 101.5 -25.2 101.8 -27.95 98.85 L-29.9 95.85 -37.0 95.85 Q-45.0 98.1 -50.9 98.4 L-60.75 99.05 -69.55 99.4 Q-72.25 99.35 -74.75 97.6 L-76.65 95.85 -111.7 99.0 -111.7 109.05 Q-111.7 112.5 -114.3 114.2 -116.6 115.7 -120.65 115.7 L-132.7 115.7 -132.7 117.7 Q-132.7 122.35 -136.2 124.6 -139.3 126.6 -144.7 126.6 L-168.4 126.6 Q-173.8 126.6 -176.85 124.6 -180.4 122.35 -180.4 117.7 L-180.4 87.95 Q-180.4 83.7 -176.35 83.0 L-136.2 83.0 -135.75 83.1 -120.65 83.1 -114.3 83.1 Q-111.7 83.6 -111.7 86.8 L-111.7 90.0 109.6 90.0 109.6 86.8 Q109.6 83.6 112.25 83.1 L118.6 83.1 133.7 83.1 M109.6 90.0 L109.6 99.1 M-135.75 83.1 Q-132.7 83.95 -132.7 87.95 L-132.7 115.7 M-111.7 99.0 L-111.7 90.0" fill="none" stroke="#000000" stroke-linecap="round" stroke-linejoin="miter-clip" stroke-miterlimit="10.0" stroke-width="1.0"/>
  </g>
</svg>
