<?xml version="1.0" encoding="UTF-8" standalone="no"?>
<svg xmlns:xlink="http://www.w3.org/1999/xlink" height="51.45px" width="76.45px" xmlns="http://www.w3.org/2000/svg">
  <g transform="matrix(1.0, 0.0, 0.0, 1.0, 176.15, 25.6)">
    <path d="M-126.2 -22.7 Q-125.1 -21.2 -124.3 -19.2 L-123.0 -15.45 Q-121.65 -8.15 -121.1 -7.6 L-120.5 -7.65 -119.8 -7.9 Q-120.65 -14.15 -123.45 -19.0 -124.85 -21.4 -126.2 -22.7 M-139.0 -11.9 Q-140.0 -2.4 -139.65 20.1 -138.65 19.85 -138.65 18.9 L-138.55 2.35 Q-138.45 -10.8 -137.85 -11.8 L-139.0 -11.9 M-141.6 20.5 L-141.8 4.15 Q-141.8 -11.95 -140.45 -16.75 -138.15 -25.1 -129.65 -25.1 -124.95 -25.1 -121.65 -20.25 -118.15 -15.15 -118.15 -7.3 L-118.3 -6.2 -124.65 -5.7 Q-125.8 -5.7 -127.05 -11.3 -128.3 -16.95 -129.65 -16.95 -132.85 -16.95 -133.5 -10.9 -133.9 -7.25 -133.9 11.8 L-133.8 20.5 -141.6 20.5 M-121.55 10.75 L-121.15 11.15 Q-120.2 11.55 -114.95 11.1 L-114.95 14.55 -118.05 14.55 -118.05 21.9 -121.55 21.85 -121.55 10.75 M-160.4 11.1 L-154.45 10.95 -153.75 10.2 -153.75 21.85 -157.3 21.9 -157.3 14.55 -160.4 14.55 -160.4 11.1" fill="#ffffff" fill-opacity="0.0" fill-rule="evenodd" stroke="none"/>
    <path d="M-133.8 20.5 L-128.2 20.5 -128.2 25.35 -147.1 25.35 -147.1 20.5 -141.6 20.5 -133.8 20.5 M-121.55 10.75 L-121.55 10.25 -121.85 9.6 -121.95 8.7 -121.55 7.85 -120.25 6.25 -101.9 6.25 -100.9 6.55 Q-100.2 7.0 -100.2 8.7 -100.2 10.25 -100.95 10.75 L-101.9 11.1 -114.95 11.1 Q-120.2 11.55 -121.15 11.15 L-121.55 10.75 M-114.95 14.55 L-114.95 21.9 Q-112.15 22.05 -113.1 24.95 L-123.4 24.95 Q-124.0 21.6 -121.55 21.85 L-118.05 21.9 -118.05 14.55 -114.95 14.55 M-114.95 21.9 L-118.05 21.9 -114.95 21.9 M-153.75 10.2 L-154.45 10.95 -160.4 11.1 -173.45 11.1 -174.75 9.6 -175.15 8.7 -174.75 7.85 -173.45 6.25 -155.1 6.25 -153.8 7.25 Q-152.9 8.4 -153.75 10.2 M-160.4 14.55 L-157.3 14.55 -157.3 21.9 -153.75 21.85 Q-151.45 22.1 -151.9 24.95 L-162.25 24.95 Q-162.95 22.35 -160.4 21.9 L-160.4 14.55 M-157.3 21.9 L-160.4 21.9 -157.3 21.9" fill="#ffffff" fill-opacity="0.14901961" fill-rule="evenodd" stroke="none"/>
    <path d="M-126.2 -22.7 Q-124.85 -21.4 -123.45 -19.0 -120.65 -14.15 -119.8 -7.9 L-120.5 -7.65 -121.1 -7.6 Q-121.65 -8.15 -123.0 -15.45 L-124.3 -19.2 Q-125.1 -21.2 -126.2 -22.7 M-139.0 -11.9 L-137.85 -11.8 Q-138.45 -10.8 -138.55 2.35 L-138.65 18.9 Q-138.65 19.85 -139.65 20.1 -140.0 -2.4 -139.0 -11.9" fill="#ffffff" fill-opacity="0.29803923" fill-rule="evenodd" stroke="none"/>
    <path d="M-141.6 20.5 L-141.8 4.15 Q-141.8 -11.95 -140.45 -16.75 -138.15 -25.1 -129.65 -25.1 -124.95 -25.1 -121.65 -20.25 -118.15 -15.15 -118.15 -7.3 L-118.3 -6.2 -124.65 -5.7 Q-125.8 -5.7 -127.05 -11.3 -128.3 -16.95 -129.65 -16.95 -132.85 -16.95 -133.5 -10.9 -133.9 -7.25 -133.9 11.8 L-133.8 20.5 -128.2 20.5 -128.2 25.35 -147.1 25.35 -147.1 20.5 -141.6 20.5 -133.8 20.5 M-114.95 11.1 L-101.9 11.1 -100.95 10.75 Q-100.2 10.25 -100.2 8.7 -100.2 7.0 -100.9 6.55 L-101.9 6.25 -120.25 6.25 -121.55 7.85 -121.95 8.7 -121.85 9.6 -121.55 10.25 -121.55 10.75 -121.15 11.15 Q-120.2 11.55 -114.95 11.1 L-114.95 14.55 -114.95 21.9 Q-112.15 22.05 -113.1 24.95 L-123.4 24.95 Q-124.0 21.6 -121.55 21.85 L-121.55 10.75 M-118.05 21.9 L-114.95 21.9 M-153.75 10.2 L-154.45 10.95 -160.4 11.1 -160.4 14.55 -160.4 21.9 -157.3 21.9 -153.75 21.85 -153.75 10.2 Q-152.9 8.4 -153.8 7.25 L-155.1 6.25 -173.45 6.25 -174.75 7.85 -175.15 8.7 -174.75 9.6 -173.45 11.1 -160.4 11.1 M-153.75 21.85 Q-151.45 22.1 -151.9 24.95 L-162.25 24.95 Q-162.95 22.35 -160.4 21.9 M-121.55 21.85 L-118.05 21.9" fill="none" stroke="#000000" stroke-linecap="round" stroke-linejoin="miter-clip" stroke-miterlimit="4.0" stroke-opacity="0.4" stroke-width="1.0"/>
  </g>
</svg>
