<?xml version="1.0" encoding="UTF-8" standalone="no"?>
<svg xmlns:xlink="http://www.w3.org/1999/xlink" height="21.8px" width="413.4px" xmlns="http://www.w3.org/2000/svg">
  <g transform="matrix(1.0, 0.0, 0.0, 1.0, 206.7, 10.9)">
    <path d="M182.1 4.25 L182.1 3.9 Q182.1 2.8 181.05 2.05 180.7 1.8 180.3 1.65 L178.5 1.3 173.0 1.3 173.2 0.0 180.45 0.0 Q182.0 0.0 183.1 -1.05 184.2 -2.15 184.2 -3.65 184.2 -5.15 183.1 -6.2 182.0 -7.3 180.45 -7.3 L175.75 -7.3 Q176.55 -8.8 177.65 -9.7 L178.7 -10.4 205.05 -10.4 186.3 1.55 182.1 4.25 M186.3 1.55 L186.35 1.55 186.3 1.55 M-178.7 -10.4 L-177.7 -9.75 Q-176.6 -8.85 -175.7 -7.3 L-182.25 -7.3 Q-183.8 -7.3 -184.9 -6.2 -186.0 -5.15 -186.0 -3.65 -186.0 -2.15 -184.9 -1.05 -183.8 0.0 -182.25 0.0 L-173.2 0.0 -172.95 1.3 -175.05 1.3 Q-176.55 1.3 -177.6 2.05 -178.7 2.8 -178.7 3.9 -178.7 5.0 -177.6 5.75 -176.55 6.5 -175.05 6.5 L-172.45 6.5 -172.4 10.4 -205.05 -10.4 -178.7 -10.4 M172.4 10.4 L172.5 6.5 178.55 6.5 179.05 6.5 172.4 10.4" fill="#000000" fill-opacity="0.4" fill-rule="evenodd" stroke="none"/>
    <path d="M182.1 4.25 L186.3 1.55 186.35 1.55 186.3 1.55 182.05 4.45 182.1 4.25" fill="#ffffff" fill-rule="evenodd" stroke="none"/>
    <path d="M178.7 -10.4 L177.65 -9.7 Q176.55 -8.8 175.75 -7.3 L180.45 -7.3 Q182.0 -7.3 183.1 -6.2 184.2 -5.15 184.2 -3.65 184.2 -2.15 183.1 -1.05 182.0 0.0 180.45 0.0 L173.2 0.0 173.0 1.3 178.5 1.3 180.3 1.65 Q180.7 1.8 181.05 2.05 182.1 2.8 182.1 3.9 L182.1 4.25 182.05 4.45 181.6 5.25 181.05 5.75 Q180.2 6.35 179.05 6.5 L178.55 6.5 172.5 6.5 172.4 10.4 -172.4 10.4 -172.45 6.5 -175.05 6.5 Q-176.55 6.5 -177.6 5.75 -178.7 5.0 -178.7 3.9 -178.7 2.8 -177.6 2.05 -176.55 1.3 -175.05 1.3 L-172.95 1.3 -173.2 0.0 -182.25 0.0 Q-183.8 0.0 -184.9 -1.05 -186.0 -2.15 -186.0 -3.65 -186.0 -5.15 -184.9 -6.2 -183.8 -7.3 -182.25 -7.3 L-175.7 -7.3 Q-176.6 -8.85 -177.7 -9.75 L-178.7 -10.4 178.7 -10.4 M175.75 -7.3 L-175.7 -7.3 175.75 -7.3 M-173.2 0.0 L173.2 0.0 -173.2 0.0 M-172.45 6.5 L172.5 6.5 -172.45 6.5 M173.0 1.3 L-172.95 1.3 173.0 1.3" fill="#ffffff" fill-opacity="0.0" fill-rule="evenodd" stroke="none"/>
    <path d="M178.7 -10.4 L177.65 -9.7 Q176.55 -8.8 175.75 -7.3 L180.45 -7.3 Q182.0 -7.3 183.1 -6.2 184.2 -5.15 184.2 -3.65 184.2 -2.15 183.1 -1.05 182.0 0.0 180.45 0.0 L173.2 0.0 173.0 1.3 178.5 1.3 180.3 1.65 Q180.7 1.8 181.05 2.05 182.1 2.8 182.1 3.9 L182.1 4.25 182.05 4.45 M-178.7 -10.4 L-177.7 -9.75 Q-176.6 -8.85 -175.7 -7.3 L175.75 -7.3 M179.05 6.5 L178.55 6.5 172.5 6.5 172.4 10.4 M-172.4 10.4 L-172.45 6.5 -175.05 6.5 Q-176.55 6.5 -177.6 5.75 -178.7 5.0 -178.7 3.9 -178.7 2.8 -177.6 2.05 -176.55 1.3 -175.05 1.3 L-172.95 1.3 -173.2 0.0 -182.25 0.0 Q-183.8 0.0 -184.9 -1.05 -186.0 -2.15 -186.0 -3.65 -186.0 -5.15 -184.9 -6.2 -183.8 -7.3 -182.25 -7.3 L-175.7 -7.3 M-172.95 1.3 L173.0 1.3 M172.5 6.5 L-172.45 6.5 M173.2 0.0 L-173.2 0.0" fill="none" stroke="#000000" stroke-linecap="round" stroke-linejoin="miter-clip" stroke-miterlimit="4.0" stroke-opacity="0.6" stroke-width="1.0"/>
    <path d="M182.1 4.25 L186.3 1.55 205.05 -10.4 178.7 -10.4 -178.7 -10.4 -205.05 -10.4 -172.4 10.4 172.4 10.4 179.05 6.5 Q180.2 6.35 181.05 5.75 L181.6 5.25 182.05 4.45" fill="none" stroke="#000000" stroke-linecap="round" stroke-linejoin="miter-clip" stroke-miterlimit="4.0" stroke-width="1.0"/>
  </g>
</svg>
