<?xml version="1.0" encoding="UTF-8" standalone="no"?>
<svg xmlns:xlink="http://www.w3.org/1999/xlink" height="277.8px" width="1015.35px" xmlns="http://www.w3.org/2000/svg">
  <g transform="matrix(1.0, 0.0, 0.0, 1.0, 507.7, 138.85)">
    <path d="M-255.95 -137.4 L-128.85 -137.4 -346.0 104.75 -507.2 125.75 -507.2 39.95 -255.95 -137.4 M70.7 -137.65 L208.7 104.75 -198.8 104.75 -56.4 -137.85 70.7 -137.65 M139.9 -138.35 L267.2 -138.35 507.15 41.3 507.15 138.35 356.85 104.75 139.9 -138.35" fill="#ffffff" fill-opacity="0.0" fill-rule="evenodd" stroke="none"/>
    <path d="M139.9 -138.35 L356.85 104.75 507.15 138.35 507.15 41.3 267.2 -138.35 139.9 -138.35 M70.7 -137.65 L-56.4 -137.85 -198.8 104.75 208.7 104.75 70.7 -137.65 M-255.95 -137.4 L-507.2 39.95 -507.2 125.75 -346.0 104.75 -128.85 -137.4 -255.95 -137.4" fill="none" stroke="#000000" stroke-linecap="round" stroke-linejoin="miter-clip" stroke-miterlimit="4.0" stroke-width="1.0"/>
  </g>
</svg>
