<?xml version="1.0" encoding="UTF-8" standalone="no"?>
<svg xmlns:xlink="http://www.w3.org/1999/xlink" height="102.05px" width="113.2px" xmlns="http://www.w3.org/2000/svg">
  <g transform="matrix(1.0, 0.0, 0.0, 1.0, 0.5, -6.9)">
    <path d="M45.65 47.2 L45.6 43.0 45.55 38.5 34.05 38.5 32.05 28.35 55.95 24.6 82.25 28.35 80.15 38.5 68.65 38.5 68.6 43.0 68.6 47.2 45.65 47.2" fill="#000000" fill-opacity="0.09803922" fill-rule="evenodd" stroke="none"/>
    <path d="M112.2 42.4 L107.65 51.8 100.75 47.8 100.75 47.75 111.8 42.35 111.9 42.35 112.2 42.4 M4.7 51.9 L0.0 42.3 0.0 42.25 11.45 47.75 4.7 51.9" fill="#000000" fill-opacity="0.4" fill-rule="evenodd" stroke="none"/>
    <path d="M102.0 108.45 L85.8 108.45 83.15 108.45 75.55 108.45 73.95 108.45 68.05 108.45 68.6 47.2 68.6 43.0 68.65 38.5 80.15 38.5 82.25 28.35 55.95 24.6 32.05 28.35 34.05 38.5 45.55 38.5 45.6 43.0 45.65 47.2 46.15 108.45 38.65 108.45 31.05 108.45 10.2 108.45 11.45 47.75 0.0 42.25 0.0 42.0 21.1 10.85 56.3 15.7 91.5 10.85 111.65 41.95 111.9 42.3 111.8 42.35 100.75 47.75 100.75 47.8 102.0 108.45" fill="#ffffff" fill-opacity="0.0" fill-rule="evenodd" stroke="none"/>
    <path d="M107.65 51.8 L107.5 51.9 110.05 108.45 104.15 108.45 102.0 108.45 100.75 47.8 107.65 51.8 M68.05 108.45 L46.15 108.45 45.65 47.2 68.6 47.2 68.05 108.45 M10.2 108.45 L8.15 108.45 2.2 108.45 4.75 51.95 4.7 51.9 11.45 47.75 10.2 108.45" fill="#000000" fill-opacity="0.29803923" fill-rule="evenodd" stroke="none"/>
    <path d="M106.65 7.5 L111.65 13.9 111.85 14.15 112.2 42.4 111.9 42.35 111.8 42.35 111.9 42.3 111.65 41.95 91.5 10.85 56.3 15.7 21.1 10.85 0.0 42.0 0.35 14.2 0.4 14.2 6.85 7.4 56.1 7.6 106.65 7.5" fill="#000000" fill-opacity="0.14901961" fill-rule="evenodd" stroke="none"/>
    <path d="M106.65 7.5 L111.65 13.9 M111.85 14.15 L112.2 42.4 107.65 51.8 M107.5 51.9 L110.05 108.45" fill="none" stroke="#000000" stroke-linecap="butt" stroke-linejoin="miter-clip" stroke-miterlimit="4.0" stroke-opacity="0.6" stroke-width="1.0"/>
    <path d="M2.2 108.45 L4.75 51.95 M4.7 51.9 L0.0 42.3 M0.0 42.0 L0.35 14.2 M0.4 14.2 L6.85 7.4" fill="none" stroke="#000000" stroke-linecap="butt" stroke-linejoin="miter-clip" stroke-miterlimit="4.0" stroke-width="1.0"/>
  </g>
</svg>
