<?xml version="1.0" encoding="UTF-8" standalone="no"?>
<svg xmlns:xlink="http://www.w3.org/1999/xlink" height="116.7px" width="69.45px" xmlns="http://www.w3.org/2000/svg">
  <g transform="matrix(1.0, 0.0, 0.0, 1.0, 34.85, 58.35)">
    <path d="M33.15 -57.05 Q33.9 -56.3 33.9 -55.2 L33.9 -14.85 Q33.9 -13.75 33.15 -13.0 32.4 -12.25 31.3 -12.25 30.2 -12.25 29.45 -13.0 28.7 -13.75 28.7 -14.85 L28.7 -55.2 Q28.7 -56.3 29.45 -57.05 30.2 -57.85 31.3 -57.85 32.4 -57.85 33.15 -57.05 M-6.25 46.75 L-6.25 -10.5 Q-6.25 -12.75 -4.4 -14.35 -2.5 -15.95 0.1 -15.95 2.75 -15.95 4.6 -14.35 6.45 -12.75 6.45 -10.5 L6.45 46.75 Q16.0 47.95 24.7 52.35 28.15 54.1 31.05 56.15 L33.25 57.85 -33.05 57.85 Q-30.0 55.15 -24.45 52.35 L-20.3 50.5 -17.95 49.55 -17.75 49.5 -7.7 46.95 -6.25 46.75 -4.95 46.6 -6.25 46.75 M-1.1 46.3 L-4.95 46.6 -1.1 46.3 -0.9 46.3 -0.9 46.25 -0.9 46.3 -1.1 46.3 M1.15 46.25 L0.1 46.3 -0.9 46.25 0.1 46.3 1.15 46.25 1.15 46.3 1.15 46.25 M6.45 46.75 L1.95 46.35 1.15 46.3 1.95 46.35 6.45 46.75 M-29.45 -57.05 Q-28.65 -56.3 -28.65 -55.2 L-28.65 -14.85 Q-28.65 -13.75 -29.45 -13.0 -30.2 -12.25 -31.3 -12.25 -32.4 -12.25 -33.15 -13.0 -33.9 -13.75 -33.9 -14.85 L-33.9 -55.2 Q-33.9 -56.3 -33.15 -57.05 -32.4 -57.85 -31.3 -57.85 -30.2 -57.85 -29.45 -57.05" fill="#000000" fill-opacity="0.14901961" fill-rule="evenodd" stroke="none"/>
    <path d="M33.15 -57.05 Q33.9 -56.3 33.9 -55.2 L33.9 -14.85 Q33.9 -13.75 33.15 -13.0 32.4 -12.25 31.3 -12.25 30.2 -12.25 29.45 -13.0 28.7 -13.75 28.7 -14.85 L28.7 -55.2 Q28.7 -56.3 29.45 -57.05 30.2 -57.85 31.3 -57.85 32.4 -57.85 33.15 -57.05 M-4.95 46.6 L-1.1 46.3 M-0.9 46.25 L0.1 46.3 1.15 46.25 M1.15 46.3 L1.95 46.35 6.45 46.75 M-29.45 -57.05 Q-28.65 -56.3 -28.65 -55.2 L-28.65 -14.85 Q-28.65 -13.75 -29.45 -13.0 -30.2 -12.25 -31.3 -12.25 -32.4 -12.25 -33.15 -13.0 -33.9 -13.75 -33.9 -14.85 L-33.9 -55.2 Q-33.9 -56.3 -33.15 -57.05 -32.4 -57.85 -31.3 -57.85 -30.2 -57.85 -29.45 -57.05" fill="none" stroke="#000000" stroke-linecap="round" stroke-linejoin="miter-clip" stroke-miterlimit="4.0" stroke-opacity="0.6" stroke-width="1.0"/>
    <path d="M-6.25 46.75 L-6.25 -10.5 Q-6.25 -12.75 -4.4 -14.35 -2.5 -15.95 0.1 -15.95 2.75 -15.95 4.6 -14.35 6.45 -12.75 6.45 -10.5 L6.45 46.75 Q16.0 47.95 24.7 52.35 28.15 54.1 31.05 56.15 L33.25 57.85 -33.05 57.85 Q-30.0 55.15 -24.45 52.35 L-20.3 50.5 -17.95 49.55 -17.75 49.5 -7.7 46.95 -6.25 46.75 -4.95 46.6 M-1.1 46.3 L-0.9 46.3 -0.9 46.25 M1.15 46.25 L1.15 46.3" fill="none" stroke="#000000" stroke-linecap="round" stroke-linejoin="miter-clip" stroke-miterlimit="4.0" stroke-width="1.0"/>
  </g>
</svg>
