<?xml version="1.0" encoding="UTF-8" standalone="no"?>
<svg xmlns:xlink="http://www.w3.org/1999/xlink" height="75.7px" width="24.65px" xmlns="http://www.w3.org/2000/svg">
  <g transform="matrix(1.0, 0.0, 0.0, 1.0, 12.35, 38.05)">
    <path d="M8.75 -35.35 L8.45 -35.65 -1.8 -35.65 -2.15 -35.35 Q-2.15 -35.0 -1.8 -35.0 L8.45 -35.0 Q8.75 -35.0 8.75 -35.35 M-4.75 -29.05 L-3.0 -32.1 -3.7 -32.6 Q-4.5 -33.35 -4.5 -34.5 -4.5 -35.6 -3.7 -36.35 -2.9 -37.15 -1.8 -37.15 L8.85 -37.15 Q9.95 -37.15 10.75 -36.35 11.55 -35.6 11.55 -34.5 11.55 -33.35 10.75 -32.6 L10.2 -32.15 11.8 -28.8 Q7.65 -27.75 3.5 -27.75 -0.65 -27.75 -4.75 -29.05 M-3.0 -32.1 L-1.8 -31.8 8.85 -31.8 Q9.6 -31.8 10.2 -32.15 9.6 -31.8 8.85 -31.8 L-1.8 -31.8 -3.0 -32.1" fill="#000000" fill-opacity="0.24705882" fill-rule="evenodd" stroke="none"/>
    <path d="M8.75 -35.35 Q8.75 -35.0 8.45 -35.0 L-1.8 -35.0 Q-2.15 -35.0 -2.15 -35.35 L-1.8 -35.65 8.45 -35.65 8.75 -35.35" fill="#ffffff" fill-opacity="0.8980392" fill-rule="evenodd" stroke="none"/>
    <path d="M-11.85 19.0 L-3.2 20.3 11.3 19.5 11.3 35.7 Q8.8 36.5 4.9 36.9 -2.8 37.7 -9.5 35.8 L-11.85 19.0" fill="#ffffff" fill-opacity="0.0" fill-rule="evenodd" stroke="none"/>
    <path d="M-4.75 -29.05 L-3.0 -32.1 -3.7 -32.6 Q-4.5 -33.35 -4.5 -34.5 -4.5 -35.6 -3.7 -36.35 -2.9 -37.15 -1.8 -37.15 L8.85 -37.15 Q9.95 -37.15 10.75 -36.35 11.55 -35.6 11.55 -34.5 11.55 -33.35 10.75 -32.6 L10.2 -32.15 11.8 -28.8 M-11.85 19.0 L-9.5 35.8" fill="none" stroke="#000000" stroke-linecap="round" stroke-linejoin="miter-clip" stroke-miterlimit="4.0" stroke-width="1.0"/>
    <path d="M11.8 -28.8 Q7.65 -27.75 3.5 -27.75 -0.65 -27.75 -4.75 -29.05 M10.2 -32.15 Q9.6 -31.8 8.85 -31.8 L-1.8 -31.8 -3.0 -32.1 M-9.5 35.8 Q-2.8 37.7 4.9 36.9 8.8 36.5 11.3 35.7 L11.3 19.5 -3.2 20.3 -11.85 19.0" fill="none" stroke="#000000" stroke-linecap="round" stroke-linejoin="miter-clip" stroke-miterlimit="4.0" stroke-opacity="0.6" stroke-width="1.0"/>
  </g>
</svg>
