<?xml version="1.0" encoding="UTF-8" standalone="no"?>
<svg xmlns:xlink="http://www.w3.org/1999/xlink" height="136.0px" width="679.55px" xmlns="http://www.w3.org/2000/svg">
  <g transform="matrix(1.0, 0.0, 0.0, 1.0, 0.5, 0.5)">
    <path d="M553.8 56.95 L553.8 56.9 553.85 56.9 553.8 56.95" fill="#e9eaeb" fill-rule="evenodd" stroke="none"/>
    <path d="M64.7 53.05 L64.7 27.45 514.0 27.45 514.0 28.35 515.55 36.25 515.5 36.25 517.15 44.4 520.3 48.8 520.3 53.05 64.7 53.05 M553.8 96.15 L553.8 56.95 553.85 56.9 573.5 26.7 595.25 58.0 595.25 96.15 553.8 96.15 M581.25 52.55 L573.55 39.75 565.9 52.55 581.25 52.55 M585.85 88.6 L585.85 61.1 561.75 61.1 561.75 88.6 585.85 88.6 M492.85 74.8 L498.0 74.8 498.0 96.15 492.85 96.15 492.85 74.8 M444.4 74.8 L444.4 96.15 439.4 96.15 439.4 74.8 444.4 74.8 M337.5 74.8 L337.5 96.15 332.55 96.15 332.55 74.8 337.5 74.8 M386.0 96.15 L386.0 74.8 390.95 74.8 390.95 96.15 386.0 96.15 M279.1 96.15 L279.1 74.8 284.1 74.8 284.1 96.15 279.1 96.15 M257.4 74.8 L257.4 96.15 252.4 96.15 252.4 74.8 257.4 74.8 M310.8 74.8 L310.8 96.15 305.85 96.15 305.85 74.8 310.8 74.8 M199.0 96.15 L199.0 74.8 203.95 74.8 203.95 96.15 199.0 96.15 M177.25 74.8 L177.25 96.15 172.25 96.15 172.25 74.8 177.25 74.8 M225.7 96.15 L225.7 74.8 230.65 74.8 230.65 96.15 225.7 96.15 M85.7 74.8 L90.65 74.8 90.65 96.15 85.7 96.15 85.7 74.8 M115.55 74.8 L120.5 74.8 120.5 96.15 115.55 96.15 115.55 74.8 M145.55 74.8 L150.55 74.8 150.55 96.15 145.55 96.15 145.55 74.8" fill="#000000" fill-opacity="0.2" fill-rule="evenodd" stroke="none"/>
    <path d="M0.0 105.75 L0.0 97.25 64.7 97.25 64.7 96.15 65.05 96.15 85.7 96.15 90.65 96.15 115.55 96.15 120.5 96.15 145.55 96.15 150.55 96.15 172.25 96.15 177.25 96.15 199.0 96.15 203.95 96.15 225.7 96.15 230.65 96.15 252.4 96.15 257.4 96.15 279.1 96.15 284.1 96.15 305.85 96.15 310.8 96.15 332.55 96.15 337.5 96.15 386.0 96.15 390.95 96.15 439.4 96.15 444.4 96.15 492.85 96.15 498.0 96.15 520.3 96.15 525.4 96.15 553.8 96.15 595.25 96.15 605.0 96.15 638.0 96.15 644.8 96.15 650.35 96.15 650.35 104.6 222.55 104.6 0.0 105.75" fill="#000000" fill-opacity="0.14901961" fill-rule="evenodd" stroke="none"/>
    <path d="M65.05 74.8 L64.7 74.8 64.7 59.85 520.3 59.85 520.3 74.8 498.0 74.8 492.85 74.8 444.4 74.8 439.4 74.8 390.95 74.8 386.0 74.8 337.5 74.8 332.55 74.8 310.8 74.8 305.85 74.8 284.1 74.8 279.1 74.8 257.4 74.8 252.4 74.8 230.65 74.8 225.7 74.8 203.95 74.8 199.0 74.8 177.25 74.8 172.25 74.8 150.55 74.8 145.55 74.8 120.5 74.8 115.55 74.8 90.65 74.8 85.7 74.8 65.05 74.8 M525.4 0.2 L526.0 0.0 555.65 0.0 533.55 11.4 533.55 22.65 525.6 22.65 525.6 24.5 525.4 24.5 525.4 0.2 M567.05 0.0 L603.0 0.0 603.0 5.9 609.45 7.7 609.45 16.95 617.2 16.95 617.2 21.35 614.95 22.65 Q612.75 24.65 612.6 28.7 L612.6 42.7 617.55 42.7 617.55 51.0 634.15 51.0 634.15 58.0 644.8 58.0 644.8 96.15 638.0 96.15 638.0 62.25 617.55 62.25 617.55 66.1 610.2 66.1 605.0 71.3 605.0 96.15 595.25 96.15 595.25 58.0 573.5 26.7 553.85 56.9 553.8 56.9 553.8 56.95 553.8 96.15 525.4 96.15 525.4 61.95 533.9 56.55 533.9 34.8 553.8 34.8 553.8 20.25 589.2 20.25 577.95 17.3 546.05 17.3 546.05 11.4 567.05 0.0" fill="#000000" fill-opacity="0.29803923" fill-rule="evenodd" stroke="none"/>
    <path d="M650.35 104.6 L655.55 104.6 655.55 109.15 661.4 109.15 661.4 113.65 666.0 113.65 666.0 119.5 671.0 119.5 671.0 125.25 674.4 125.25 674.4 129.75 678.55 129.75 678.55 133.9 250.55 133.9 0.0 135.0 0.0 105.75 222.55 104.6 650.35 104.6" fill="#000000" fill-opacity="0.047058824" fill-rule="evenodd" stroke="none"/>
    <path d="M64.7 59.85 L64.7 53.05 520.3 53.05 520.3 59.85 64.7 59.85 M585.85 88.6 L561.75 88.6 561.75 61.1 585.85 61.1 585.85 88.6 M581.25 52.55 L565.9 52.55 573.55 39.75 581.25 52.55" fill="#000000" fill-opacity="0.24705882" fill-rule="evenodd" stroke="none"/>
    <path d="M65.05 96.15 L65.05 74.8 85.7 74.8 85.7 96.15 65.05 96.15 M514.0 27.45 L514.0 3.5 525.4 0.2 525.4 24.5 525.6 24.5 525.6 22.65 533.55 22.65 533.55 11.4 555.65 0.0 567.05 0.0 546.05 11.4 546.05 17.3 577.95 17.3 589.2 20.25 553.8 20.25 553.8 34.8 533.9 34.8 533.9 56.55 525.4 61.95 525.4 96.15 520.3 96.15 498.0 96.15 498.0 74.8 520.3 74.8 520.3 59.85 520.3 53.05 520.3 48.8 517.15 44.4 515.5 36.25 515.55 36.25 514.0 28.35 514.0 27.45 M492.85 74.8 L492.85 96.15 444.4 96.15 444.4 74.8 492.85 74.8 M520.3 74.8 L520.3 96.15 520.3 74.8 M439.4 74.8 L439.4 96.15 390.95 96.15 390.95 74.8 439.4 74.8 M337.5 96.15 L337.5 74.8 386.0 74.8 386.0 96.15 337.5 96.15 M332.55 74.8 L332.55 96.15 310.8 96.15 310.8 74.8 332.55 74.8 M279.1 74.8 L279.1 96.15 257.4 96.15 257.4 74.8 279.1 74.8 M284.1 96.15 L284.1 74.8 305.85 74.8 305.85 96.15 284.1 96.15 M252.4 74.8 L252.4 96.15 230.65 96.15 230.65 74.8 252.4 74.8 M199.0 74.8 L199.0 96.15 177.25 96.15 177.25 74.8 199.0 74.8 M203.95 96.15 L203.95 74.8 225.7 74.8 225.7 96.15 203.95 96.15 M172.25 74.8 L172.25 96.15 150.55 96.15 150.55 74.8 172.25 74.8 M90.65 74.8 L115.55 74.8 115.55 96.15 90.65 96.15 90.65 74.8 M120.5 74.8 L145.55 74.8 145.55 96.15 120.5 96.15 120.5 74.8" fill="#000000" fill-opacity="0.4" fill-rule="evenodd" stroke="none"/>
    <path d="M0.0 97.25 L64.7 97.25 64.7 96.15 65.05 96.15 65.05 74.8 64.7 74.8 M222.55 104.6 L0.0 105.75 M525.4 96.15 L553.8 96.15 553.8 56.95 553.85 56.9 573.5 26.7 595.25 58.0 595.25 96.15 605.0 96.15 M638.0 96.15 L644.8 96.15 M525.6 24.5 L525.4 24.5 M520.3 53.05 L520.3 48.8 517.15 44.4 515.5 36.25 515.55 36.25 514.0 28.35 514.0 27.45 M520.3 59.85 L520.3 53.05 M492.85 74.8 L498.0 74.8 520.3 74.8 520.3 59.85 M492.85 96.15 L498.0 96.15 520.3 96.15 520.3 74.8 M520.3 96.15 L525.4 96.15 M595.25 96.15 L553.8 96.15 M444.4 74.8 L439.4 74.8 390.95 74.8 386.0 74.8 337.5 74.8 332.55 74.8 310.8 74.8 305.85 74.8 284.1 74.8 279.1 74.8 257.4 74.8 252.4 74.8 230.65 74.8 225.7 74.8 203.95 74.8 199.0 74.8 177.25 74.8 172.25 74.8 150.55 74.8 145.55 74.8 120.5 74.8 115.55 74.8 90.65 74.8 85.7 74.8 65.05 74.8 M439.4 96.15 L444.4 96.15 492.85 96.15 M332.55 96.15 L337.5 96.15 386.0 96.15 390.95 96.15 439.4 96.15 M444.4 74.8 L492.85 74.8 M279.1 96.15 L284.1 96.15 305.85 96.15 310.8 96.15 332.55 96.15 M257.4 96.15 L279.1 96.15 M252.4 96.15 L257.4 96.15 M199.0 96.15 L203.95 96.15 225.7 96.15 230.65 96.15 252.4 96.15 M177.25 96.15 L199.0 96.15 M172.25 96.15 L177.25 96.15 M85.7 96.15 L90.65 96.15 115.55 96.15 120.5 96.15 145.55 96.15 150.55 96.15 172.25 96.15 M85.7 96.15 L65.05 96.15" fill="none" stroke="#000000" stroke-linecap="butt" stroke-linejoin="miter-clip" stroke-miterlimit="4.0" stroke-opacity="0.4" stroke-width="1.0"/>
    <path d="M553.8 56.95 L553.8 56.9 553.85 56.9" fill="none" stroke="#000000" stroke-linecap="round" stroke-linejoin="round" stroke-opacity="0.4" stroke-width="1.0"/>
    <path d="M650.35 104.6 L655.55 104.6 655.55 109.15 661.4 109.15 661.4 113.65 666.0 113.65 666.0 119.5 671.0 119.5 671.0 125.25 674.4 125.25 674.4 129.75 678.55 129.75 678.55 133.9 M250.55 133.9 L0.0 135.0 M64.7 53.05 L64.7 27.45 M525.4 0.2 L526.0 0.0 M603.0 5.9 L609.45 7.7 M609.45 16.95 L617.2 16.95 617.2 21.35 614.95 22.65 Q612.75 24.65 612.6 28.7 M612.6 42.7 L617.55 42.7 M617.55 51.0 L634.15 51.0 M634.15 58.0 L644.8 58.0 M644.8 96.15 L650.35 96.15 M605.0 71.3 L610.2 66.1 617.55 66.1 617.55 62.25 638.0 62.25 638.0 96.15 605.0 96.15" fill="none" stroke="#000000" stroke-linecap="butt" stroke-linejoin="miter-clip" stroke-miterlimit="4.0" stroke-opacity="0.6" stroke-width="1.0"/>
    <path d="M678.55 133.9 L250.55 133.9 M64.7 27.45 L514.0 27.45 514.0 3.5 525.4 0.2 M526.0 0.0 L555.65 0.0 567.05 0.0 603.0 0.0 603.0 5.9 M609.45 7.7 L609.45 16.95 M612.6 28.7 L612.6 42.7 M617.55 42.7 L617.55 51.0 M634.15 51.0 L634.15 58.0 M644.8 58.0 L644.8 96.15 M650.35 96.15 L650.35 104.6 M605.0 96.15 L605.0 71.3" fill="none" stroke="#000000" stroke-linecap="butt" stroke-linejoin="miter-clip" stroke-miterlimit="4.0" stroke-width="1.0"/>
  </g>
</svg>
