<?xml version="1.0" encoding="UTF-8" standalone="no"?>
<svg xmlns:xlink="http://www.w3.org/1999/xlink" height="242.7px" width="462.75px" xmlns="http://www.w3.org/2000/svg">
  <g transform="matrix(1.0, 0.0, 0.0, 1.0, 231.35, 121.35)">
    <path d="M26.15 -40.6 Q14.75 -36.15 0.95 -31.9 L0.75 -31.85 26.1 -21.95 50.65 -25.35 26.15 -40.6 Q45.5 -48.05 68.65 -59.05 88.75 -68.65 110.8 -80.7 149.55 -101.75 177.6 -120.85 M0.75 -31.85 L0.6 -31.8 -6.0 -21.0 -0.3 -18.1 12.8 -19.9 26.1 -21.95 31.6 -2.25 33.9 -1.65 54.65 3.5 56.25 0.5 50.65 -25.35 72.8 -29.05 45.9 -48.3 M-6.0 -21.0 L-12.2 -19.45 -15.65 -9.75 -15.6 -9.8 -12.6 -2.35 -4.9 -0.45 -0.95 -4.15 2.25 -10.2 2.25 -10.35 -0.3 -18.1 M-0.85 -3.7 Q7.6 4.2 20.95 15.45 L31.6 -2.25 2.3 -10.35 2.25 -10.2 M2.25 -10.35 L2.3 -10.35 M219.05 -66.1 Q206.8 -61.9 186.35 -55.95 145.4 -44.05 104.25 -35.25 L104.55 -35.05 114.7 15.4 Q169.9 24.05 230.9 25.7 M72.8 -29.05 Q88.8 -31.9 104.25 -35.25 L68.65 -59.05 M114.7 15.4 L83.45 63.15 Q121.35 88.75 151.0 99.7 M114.7 15.4 Q97.1 12.6 78.35 8.75 L78.45 9.4 55.45 43.05 Q69.5 53.7 83.45 63.15 L-5.75 103.7 -5.9 118.9 M54.65 3.5 L78.35 8.75 72.8 -29.05 M20.95 15.45 L39.75 30.85 54.65 3.5 M39.75 30.85 Q49.15 38.3 55.45 43.05 L-5.5 72.15 -5.75 103.7 -77.1 85.95 Q-96.75 106.4 -112.85 120.85 M-12.2 -19.45 L-20.15 -26.85 -45.15 -19.75 Q-75.7 -11.4 -106.5 -4.45 L-104.85 42.0 Q-91.5 35.4 -82.9 31.0 L-84.35 -8.35 M-5.15 29.7 L-26.6 25.7 -26.85 25.45 Q-33.95 36.1 -43.5 48.1 L-5.35 55.05 -5.15 29.7 -4.9 -0.45 M-62.3 -14.6 L-65.0 21.55 Q-53.05 15.05 -42.45 8.65 L-36.85 -21.5 M-43.5 48.1 L-44.4 47.9 -65.0 21.55 -82.9 31.0 -57.25 64.4 Q-49.25 55.25 -43.5 48.1 M-5.5 72.15 L-57.05 64.65 -57.25 64.4 Q-67.0 75.45 -77.1 85.95 L-104.85 42.0 Q-132.15 55.35 -163.5 69.25 L-189.4 80.45 M-5.5 72.15 L-5.35 55.05 39.75 30.85 M-15.65 -9.75 Q-25.8 -1.45 -42.45 8.65 L-26.85 25.45 Q-16.6 9.55 -12.6 -2.05 M-106.5 -4.45 Q-172.25 10.35 -230.85 16.8 M0.6 -31.8 L-20.15 -26.85 M-5.15 29.7 L20.95 15.45" fill="none" stroke="#000000" stroke-linecap="round" stroke-linejoin="miter-clip" stroke-miterlimit="4.0" stroke-opacity="0.6" stroke-width="1.0"/>
  </g>
</svg>
