<?xml version="1.0" encoding="UTF-8" standalone="no"?>
<svg xmlns:xlink="http://www.w3.org/1999/xlink" height="104.3px" width="595.75px" xmlns="http://www.w3.org/2000/svg">
  <g transform="matrix(1.0, 0.0, 0.0, 1.0, 297.9, 52.15)">
    <path d="M283.95 17.0 L283.95 -33.25 282.1 -33.25 282.1 17.0 277.8 17.0 277.8 -51.65 292.55 -51.65 292.55 17.0 283.95 17.0 M282.35 25.45 L280.75 25.2 276.6 49.1 279.8 49.1 282.35 25.45 M277.8 23.15 L292.55 23.15 297.3 51.65 272.9 51.65 277.8 23.15 M-286.25 17.0 L-286.25 -33.25 -288.1 -33.25 -288.1 17.0 -292.4 17.0 -292.4 -51.65 -277.65 -51.65 -277.65 17.0 -286.25 17.0 M-287.85 25.45 L-289.45 25.2 -293.6 49.1 -290.4 49.1 -287.85 25.45 M-292.4 23.15 L-277.65 23.15 -272.9 51.65 -297.3 51.65 -292.4 23.15" fill="#ffffff" fill-opacity="0.0" fill-rule="evenodd" stroke="none"/>
    <path d="M282.1 17.0 L282.1 -33.25 283.95 -33.25 283.95 17.0 282.1 17.0 M282.35 25.45 L279.8 49.1 276.6 49.1 280.75 25.2 282.35 25.45 M-288.1 17.0 L-288.1 -33.25 -286.25 -33.25 -286.25 17.0 -288.1 17.0 M-287.85 25.45 L-290.4 49.1 -293.6 49.1 -289.45 25.2 -287.85 25.45" fill="#ffffff" fill-opacity="0.29803923" fill-rule="evenodd" stroke="none"/>
    <path d="M283.95 17.0 L292.55 17.0 292.55 23.15 277.8 23.15 277.8 17.0 282.1 17.0 283.95 17.0 M-286.25 17.0 L-277.65 17.0 -277.65 23.15 -292.4 23.15 -292.4 17.0 -288.1 17.0 -286.25 17.0" fill="#000000" fill-opacity="0.29803923" fill-rule="evenodd" stroke="none"/>
    <path d="M292.55 17.0 L292.55 -51.65 277.8 -51.65 277.8 17.0 277.8 23.15 272.9 51.65 297.3 51.65 292.55 23.15 292.55 17.0 M-277.65 17.0 L-277.65 -51.65 -292.4 -51.65 -292.4 17.0 -292.4 23.15 -297.3 51.65 -272.9 51.65 -277.65 23.15 -277.65 17.0" fill="none" stroke="#000000" stroke-linecap="round" stroke-linejoin="miter-clip" stroke-miterlimit="4.0" stroke-width="1.0"/>
    <path d="M283.95 17.0 L292.55 17.0 M277.8 17.0 L282.1 17.0 283.95 17.0 M277.8 23.15 L292.55 23.15 M-286.25 17.0 L-277.65 17.0 M-292.4 17.0 L-288.1 17.0 -286.25 17.0 M-292.4 23.15 L-277.65 23.15" fill="none" stroke="#000000" stroke-linecap="round" stroke-linejoin="miter-clip" stroke-miterlimit="4.0" stroke-opacity="0.6" stroke-width="1.0"/>
  </g>
</svg>
