<?xml version="1.0" encoding="UTF-8" standalone="no"?>
<svg xmlns:xlink="http://www.w3.org/1999/xlink" height="380.8px" width="203.85px" xmlns="http://www.w3.org/2000/svg">
  <g transform="matrix(1.0, 0.0, 0.0, 1.0, 101.9, 190.4)">
    <path d="M51.4 -130.1 L11.05 -130.1 11.05 -26.05 51.4 -26.05 51.4 -130.1 M48.8 -127.5 L48.8 -28.65 13.65 -28.65 13.65 -127.5 48.8 -127.5 M51.4 27.3 L11.05 27.3 11.05 131.35 51.4 131.35 51.4 27.3 M48.8 29.9 L48.8 128.75 13.65 128.75 13.65 29.9 48.8 29.9 M101.45 189.9 L-101.4 189.9 -101.4 -189.9 101.45 -189.9 101.45 189.9 M91.05 179.5 L91.05 -179.5 -91.0 -179.5 -91.0 179.5 91.05 179.5 M88.45 176.9 L-88.45 176.9 -88.45 -176.9 88.45 -176.9 88.45 176.9 M75.45 148.25 L75.45 -148.3 -75.45 -148.3 -75.45 148.25 75.45 148.25 M72.85 145.65 L-72.85 145.65 -72.85 -145.7 72.85 -145.7 72.85 145.65 M49.45 19.5 L49.45 -20.85 -52.0 -20.85 -52.0 19.5 49.45 19.5 M46.85 16.9 L-49.4 16.9 -49.4 -18.2 46.85 -18.2 46.85 16.9 M-13.65 -130.1 L-53.95 -130.1 -53.95 -26.05 -13.65 -26.05 -13.65 -130.1 M-16.25 -127.5 L-16.25 -28.65 -51.35 -28.65 -51.35 -127.5 -16.25 -127.5 M-13.65 27.3 L-53.95 27.3 -53.95 131.35 -13.65 131.35 -13.65 27.3 M-16.25 29.9 L-16.25 128.75 -51.35 128.75 -51.35 29.9 -16.25 29.9" fill="#ffffff" fill-opacity="0.0" fill-rule="evenodd" stroke="none"/>
    <path d="M51.4 -130.1 L51.4 -26.05 11.05 -26.05 11.05 -130.1 51.4 -130.1 M48.8 -127.5 L13.65 -127.5 13.65 -28.65 48.8 -28.65 48.8 -127.5 M51.4 27.3 L51.4 131.35 11.05 131.35 11.05 27.3 51.4 27.3 M48.8 29.9 L13.65 29.9 13.65 128.75 48.8 128.75 48.8 29.9 M91.05 179.5 L-91.0 179.5 -91.0 -179.5 91.05 -179.5 91.05 179.5 M88.45 176.9 L88.45 -176.9 -88.45 -176.9 -88.45 176.9 88.45 176.9 M75.45 148.25 L-75.45 148.25 -75.45 -148.3 75.45 -148.3 75.45 148.25 M72.85 145.65 L72.85 -145.7 -72.85 -145.7 -72.85 145.65 72.85 145.65 M49.45 19.5 L-52.0 19.5 -52.0 -20.85 49.45 -20.85 49.45 19.5 M46.85 16.9 L46.85 -18.2 -49.4 -18.2 -49.4 16.9 46.85 16.9 M-13.65 -130.1 L-13.65 -26.05 -53.95 -26.05 -53.95 -130.1 -13.65 -130.1 M-16.25 -127.5 L-51.35 -127.5 -51.35 -28.65 -16.25 -28.65 -16.25 -127.5 M-13.65 27.3 L-13.65 131.35 -53.95 131.35 -53.95 27.3 -13.65 27.3 M-16.25 29.9 L-51.35 29.9 -51.35 128.75 -16.25 128.75 -16.25 29.9" fill="#000000" fill-opacity="0.24705882" fill-rule="evenodd" stroke="none"/>
    <path d="M48.8 -127.5 L48.8 -28.65 13.65 -28.65 13.65 -127.5 48.8 -127.5 M48.8 29.9 L48.8 128.75 13.65 128.75 13.65 29.9 48.8 29.9 M88.45 176.9 L-88.45 176.9 -88.45 -176.9 88.45 -176.9 88.45 176.9 M72.85 145.65 L-72.85 145.65 -72.85 -145.7 72.85 -145.7 72.85 145.65 M46.85 16.9 L-49.4 16.9 -49.4 -18.2 46.85 -18.2 46.85 16.9 M-16.25 -127.5 L-16.25 -28.65 -51.35 -28.65 -51.35 -127.5 -16.25 -127.5 M-16.25 29.9 L-16.25 128.75 -51.35 128.75 -51.35 29.9 -16.25 29.9" fill="none" stroke="#000000" stroke-linecap="round" stroke-linejoin="miter-clip" stroke-miterlimit="4.0" stroke-opacity="0.6" stroke-width="1.0"/>
    <path d="M101.45 189.9 L-101.4 189.9 -101.4 -189.9 101.45 -189.9 101.45 189.9" fill="none" stroke="#000000" stroke-linecap="round" stroke-linejoin="miter-clip" stroke-miterlimit="4.0" stroke-width="1.0"/>
  </g>
</svg>
