<?xml version="1.0" encoding="UTF-8" standalone="no"?>
<svg xmlns:xlink="http://www.w3.org/1999/xlink" height="57.75px" width="384.0px" xmlns="http://www.w3.org/2000/svg">
  <g transform="matrix(1.0, 0.0, 0.0, 1.0, 1.9, 0.8)">
    <path d="M302.6 41.6 L308.1 41.95 Q314.1 42.3 315.2 42.0 316.35 41.75 322.55 42.05 L329.5 42.45 341.35 43.65 352.1 44.8 371.9 45.25 371.9 51.7 380.2 56.3 0.0 54.45 19.45 43.4 26.75 43.4 30.2 43.1 33.65 41.1 Q35.95 39.65 37.75 40.15 38.85 40.4 41.45 41.55 43.4 42.1 44.75 41.55 L48.4 40.15 51.9 39.95 54.4 42.45 Q55.8 44.15 56.75 44.3 L60.85 44.8 66.3 44.5 Q69.2 43.7 70.05 43.85 L77.4 44.8 80.75 44.45 86.2 43.4 89.95 41.85 Q92.1 40.9 94.0 40.65 L95.5 40.5 Q95.15 40.9 96.3 41.1 97.75 41.4 97.4 44.25 L96.8 47.1 Q99.1 44.8 99.55 43.4 100.15 41.6 106.9 40.65 110.6 40.1 114.3 42.45 115.65 43.4 119.8 43.4 L122.1 42.3 Q124.9 41.25 127.2 41.55 L133.5 41.1 138.7 40.65 Q141.0 41.1 148.85 39.25 L151.6 47.55 Q153.9 43.85 153.45 42.0 153.15 40.7 155.6 39.25 157.85 37.85 159.45 37.85 161.3 37.85 165.9 39.25 L166.35 48.45 Q172.8 47.55 175.1 46.6 176.55 46.05 176.45 42.8 L176.05 39.7 179.1 39.75 183.9 40.15 188.7 40.3 Q191.9 40.3 192.15 41.1 192.65 42.45 193.55 47.1 197.7 46.15 199.1 45.25 L200.3 43.35 Q201.05 42.2 203.25 42.45 L207.9 42.8 Q210.15 43.0 211.55 43.85 212.85 44.65 217.0 45.85 L222.15 47.55 225.45 47.45 Q227.4 46.65 228.1 45.25 228.7 44.05 230.9 43.6 L235.05 42.95 238.85 42.7 Q240.7 42.85 243.35 43.85 245.55 44.7 250.0 45.35 L255.3 46.15 258.25 45.95 260.85 45.7 265.9 47.1 271.9 50.75 Q271.9 50.05 272.25 49.2 272.95 47.5 274.65 46.6 276.65 45.65 280.55 45.55 L287.1 46.15 291.1 46.3 294.0 45.7 Q295.75 45.7 299.9 43.65 303.65 41.75 302.6 41.6" fill="#000000" fill-opacity="0.047058824" fill-rule="evenodd" stroke="none"/>
    <path d="M27.2 33.75 L33.65 33.25 41.0 32.8 46.7 32.3 Q51.5 31.95 52.05 32.8 53.0 34.2 55.75 35.55 L58.5 35.1 59.45 40.15 63.6 37.85 65.45 32.8 66.15 35.2 Q67.05 37.75 68.2 38.3 70.05 39.25 72.8 38.3 L74.2 32.8 78.35 34.2 81.1 39.25 84.8 37.4 89.4 38.8 96.8 34.65 99.35 35.6 Q102.1 36.5 103.25 36.5 L106.7 36.1 110.15 36.0 118.0 35.55 119.55 36.9 Q121.5 38.15 123.5 37.85 L135.95 37.4 144.25 37.85 153.9 37.4 163.15 35.55 168.65 36.5 190.1 37.7 200.0 38.3 212.9 38.8 Q215.05 38.8 220.2 40.2 225.4 41.55 227.2 41.55 L238.25 40.65 Q240.5 40.4 242.8 40.65 244.85 40.85 245.65 40.65 L249.55 40.95 253.45 42.0 258.75 42.35 264.05 42.0 268.2 41.9 272.35 42.45 Q273.45 42.75 275.6 41.9 L278.8 40.65 281.25 40.7 284.35 41.1 288.4 41.9 291.7 42.0 Q292.85 41.45 296.85 41.45 L302.3 41.55 302.6 41.6 Q303.65 41.75 299.9 43.65 295.75 45.7 294.0 45.7 L291.1 46.3 287.1 46.15 280.55 45.55 Q276.65 45.65 274.65 46.6 272.95 47.5 272.25 49.2 271.9 50.05 271.9 50.75 L265.9 47.1 260.85 45.7 258.25 45.95 255.3 46.15 250.0 45.35 Q245.55 44.7 243.35 43.85 240.7 42.85 238.85 42.7 L235.05 42.95 230.9 43.6 Q228.7 44.05 228.1 45.25 227.4 46.65 225.45 47.45 L222.15 47.55 217.0 45.85 Q212.85 44.65 211.55 43.85 210.15 43.0 207.9 42.8 L203.25 42.45 Q201.05 42.2 200.3 43.35 L199.1 45.25 Q197.7 46.15 193.55 47.1 192.65 42.45 192.15 41.1 191.9 40.3 188.7 40.3 L183.9 40.15 179.1 39.75 176.05 39.7 176.45 42.8 Q176.55 46.05 175.1 46.6 172.8 47.55 166.35 48.45 L165.9 39.25 Q161.3 37.85 159.45 37.85 157.85 37.85 155.6 39.25 153.15 40.7 153.45 42.0 153.9 43.85 151.6 47.55 L148.85 39.25 Q141.0 41.1 138.7 40.65 L133.5 41.1 127.2 41.55 Q124.9 41.25 122.1 42.3 L119.8 43.4 Q115.65 43.4 114.3 42.45 110.6 40.1 106.9 40.65 100.15 41.6 99.55 43.4 99.1 44.8 96.8 47.1 L97.4 44.25 Q97.75 41.4 96.3 41.1 95.15 40.9 95.5 40.5 L94.0 40.65 Q92.1 40.9 89.95 41.85 L86.2 43.4 80.75 44.45 77.4 44.8 70.05 43.85 Q69.2 43.7 66.3 44.5 L60.85 44.8 56.75 44.3 Q55.8 44.15 54.4 42.45 L51.9 39.95 48.4 40.15 44.75 41.55 Q43.4 42.1 41.45 41.55 38.85 40.4 37.75 40.15 35.95 39.65 33.65 41.1 L30.2 43.1 26.75 43.4 19.45 43.4 26.75 39.25 27.2 33.75" fill="#000000" fill-opacity="0.2" fill-rule="evenodd" stroke="none"/>
    <path d="M322.65 31.45 L288.95 31.85 263.15 33.25 Q259.7 33.8 246.75 32.9 L234.55 31.85 263.15 30.5 288.95 30.05 314.75 29.1 330.9 31.7 322.65 31.45 M246.55 28.2 L230.9 27.65 218.0 26.8 185.7 23.6 225.35 24.05 162.7 18.95 190.35 19.9 208.3 20.35 220.15 19.95 Q232.4 19.6 234.1 19.9 L248.4 21.75 265.0 23.1 260.4 25.9 Q251.65 28.2 246.55 28.2 M140.1 19.9 L108.3 20.35 91.25 17.6 68.2 16.2 Q68.9 16.0 78.15 16.0 L89.4 15.75 101.05 16.9 113.35 18.05 126.55 18.8 140.1 19.9" fill="#000000" fill-opacity="0.29803923" fill-rule="evenodd" stroke="none"/>
    <path d="M27.2 33.75 L27.2 33.7 32.5 30.3 Q38.25 26.75 40.55 25.9 42.85 25.05 46.1 22.4 L48.85 19.9 60.35 12.05 74.65 7.9 80.65 4.2 82.8 3.45 Q85.2 2.7 86.65 2.4 L93.55 2.85 96.85 1.3 Q100.4 -0.25 101.85 0.05 L111.5 2.4 Q128.6 2.85 130.9 2.4 L141.0 2.85 Q149.75 4.2 151.15 3.75 L166.35 3.3 177.6 3.15 Q187.65 3.0 188.5 3.3 L203.25 4.7 206.35 6.8 Q209.8 8.85 211.55 8.85 L223.95 7.45 241.95 7.0 262.05 7.85 Q280.95 8.85 283.9 9.75 L291.7 12.0 Q296.35 13.1 298.15 12.5 300.95 11.6 306.45 7.45 L309.8 10.05 Q313.75 12.9 316.6 14.35 318.9 15.5 322.9 17.75 326.15 19.45 328.15 19.45 331.35 19.45 340.55 21.25 L352.55 30.95 355.55 34.6 Q358.8 38.4 359.95 39.25 361.75 40.65 371.9 45.25 L352.1 44.8 341.35 43.65 329.5 42.45 322.55 42.05 Q316.35 41.75 315.2 42.0 314.1 42.3 308.1 41.95 L302.6 41.6 302.3 41.55 296.85 41.45 Q292.85 41.45 291.7 42.0 L288.4 41.9 284.35 41.1 281.25 40.7 278.8 40.65 275.6 41.9 Q273.45 42.75 272.35 42.45 L268.2 41.9 264.05 42.0 258.75 42.35 253.45 42.0 249.55 40.95 245.65 40.65 Q244.85 40.85 242.8 40.65 240.5 40.4 238.25 40.65 L227.2 41.55 Q225.4 41.55 220.2 40.2 215.05 38.8 212.9 38.8 L200.0 38.3 190.1 37.7 168.65 36.5 163.15 35.55 153.9 37.4 144.25 37.85 135.95 37.4 123.5 37.85 Q121.5 38.15 119.55 36.9 L118.0 35.55 110.15 36.0 106.7 36.1 103.25 36.5 Q102.1 36.5 99.35 35.6 L96.8 34.65 89.4 38.8 84.8 37.4 81.1 39.25 78.35 34.2 74.2 32.8 72.8 38.3 Q70.05 39.25 68.2 38.3 67.05 37.75 66.15 35.2 L65.45 32.8 63.6 37.85 59.45 40.15 58.5 35.1 55.75 35.55 Q53.0 34.2 52.05 32.8 51.5 31.95 46.7 32.3 L41.0 32.8 33.65 33.25 27.2 33.75 M322.65 31.45 L330.9 31.7 314.75 29.1 288.95 30.05 263.15 30.5 234.55 31.85 246.75 32.9 Q259.7 33.8 263.15 33.25 L288.95 31.85 322.65 31.45 M140.1 19.9 L126.55 18.8 113.35 18.05 101.05 16.9 89.4 15.75 78.15 16.0 Q68.9 16.0 68.2 16.2 L91.25 17.6 108.3 20.35 140.1 19.9 M246.55 28.2 Q251.65 28.2 260.4 25.9 L265.0 23.1 248.4 21.75 234.1 19.9 Q232.4 19.6 220.15 19.95 L208.3 20.35 190.35 19.9 162.7 18.95 225.35 24.05 185.7 23.6 218.0 26.8 230.9 27.65 246.55 28.2" fill="#ffffff" fill-opacity="0.0" fill-rule="evenodd" stroke="none"/>
    <path d="M371.9 45.25 Q361.75 40.65 359.95 39.25 358.8 38.4 355.55 34.6 L352.55 30.95 340.55 21.25 Q331.35 19.45 328.15 19.45 326.15 19.45 322.9 17.75 318.9 15.5 316.6 14.35 313.75 12.9 309.8 10.05 L306.45 7.45 Q300.95 11.6 298.15 12.5 296.35 13.1 291.7 12.0 L283.9 9.75 Q280.95 8.85 262.05 7.85 L241.95 7.0 223.95 7.45 211.55 8.85 Q209.8 8.85 206.35 6.8 L203.25 4.7 188.5 3.3 Q187.65 3.0 177.6 3.15 L166.35 3.3 151.15 3.75 Q149.75 4.2 141.0 2.85 L130.9 2.4 Q128.6 2.85 111.5 2.4 L101.85 0.05 Q100.4 -0.25 96.85 1.3 L93.55 2.85 86.65 2.4 Q85.2 2.7 82.8 3.45 L80.65 4.2 74.65 7.9 60.35 12.05 48.85 19.9 46.1 22.4 Q42.85 25.05 40.55 25.9 38.25 26.75 32.5 30.3 L27.2 33.7 27.2 33.75 26.75 39.25 19.45 43.4 0.0 54.45 380.2 56.3 371.9 51.7 371.9 45.25 Z" fill="none" stroke="#000000" stroke-linecap="round" stroke-linejoin="miter-clip" stroke-miterlimit="4.0" stroke-width="1.0"/>
  </g>
</svg>
