<?xml version="1.0" encoding="UTF-8" standalone="no"?>
<svg xmlns:xlink="http://www.w3.org/1999/xlink" height="39.95px" width="32.75px" xmlns="http://www.w3.org/2000/svg">
  <g transform="matrix(1.0, 0.0, 0.0, 1.0, 0.5, 0.5)">
    <path d="M29.8 17.1 L26.95 12.85 25.8 11.4 Q21.95 6.8 19.55 6.65 16.8 6.5 12.6 9.3 L10.95 10.45 8.9 12.1 8.85 9.6 Q8.45 6.7 6.8 4.55 5.55 2.95 3.4 2.25 L0.0 0.1 2.8 0.15 Q5.95 0.65 7.55 2.75 9.2 4.9 9.6 7.8 L9.65 10.3 11.7 8.65 13.35 7.5 Q17.55 4.7 20.3 4.85 22.7 5.0 26.55 9.6 L27.7 11.05 31.75 17.1 29.8 17.1" fill="#ffffff" fill-opacity="0.14901961" fill-rule="evenodd" stroke="none"/>
    <path d="M29.8 17.1 L25.25 17.1 23.55 13.3 Q21.5 9.5 19.55 9.5 17.6 9.5 16.05 12.15 15.25 13.45 14.85 14.75 18.25 22.8 18.25 25.65 18.25 28.25 16.7 32.15 15.0 36.5 13.05 36.85 L9.5 37.05 9.2 37.35 Q7.65 38.95 5.5 38.95 3.35 38.95 1.8 37.35 0.25 35.8 0.25 33.6 0.25 31.4 1.8 29.8 3.35 28.25 5.5 28.25 7.65 28.25 9.2 29.8 L9.5 30.1 Q10.9 29.4 12.15 28.2 14.65 25.8 13.85 23.35 13.1 21.05 11.15 17.85 L7.85 12.15 7.85 12.1 Q6.65 9.8 6.55 7.4 6.4 5.2 6.0 4.6 5.4 3.65 3.4 2.25 5.55 2.95 6.8 4.55 8.45 6.7 8.85 9.6 L8.9 12.1 10.95 10.45 12.6 9.3 Q16.8 6.5 19.55 6.65 21.95 6.8 25.8 11.4 L26.95 12.85 29.8 17.1" fill="#ffffff" fill-opacity="0.0" fill-rule="evenodd" stroke="none"/>
    <path d="M3.4 2.25 Q5.4 3.65 6.0 4.6 6.4 5.2 6.55 7.4 6.65 9.8 7.85 12.1 L7.85 12.15 11.15 17.85 Q13.1 21.05 13.85 23.35 14.65 25.8 12.15 28.2 10.9 29.4 9.5 30.1 L9.2 29.8 Q7.65 28.25 5.5 28.25 3.35 28.25 1.8 29.8 0.25 31.4 0.25 33.6 0.25 35.8 1.8 37.35 3.35 38.95 5.5 38.95 7.65 38.95 9.2 37.35 L9.5 37.05 13.05 36.85 Q15.0 36.5 16.7 32.15 18.25 28.25 18.25 25.65 18.25 22.8 14.85 14.75 15.25 13.45 16.05 12.15 17.6 9.5 19.55 9.5 21.5 9.5 23.55 13.3 L25.25 17.1 29.8 17.1 31.75 17.1 27.7 11.05 26.55 9.6 Q22.7 5.0 20.3 4.85 17.55 4.7 13.35 7.5 L11.7 8.65 9.65 10.3 9.6 7.8 Q9.2 4.9 7.55 2.75 5.95 0.65 2.8 0.15 L0.0 0.1 3.4 2.25 Z" fill="none" stroke="#000000" stroke-linecap="round" stroke-linejoin="round" stroke-opacity="0.6" stroke-width="1.0"/>
  </g>
</svg>
