<?xml version="1.0" encoding="UTF-8" standalone="no"?>
<svg xmlns:xlink="http://www.w3.org/1999/xlink" height="39.4px" width="498.6px" xmlns="http://www.w3.org/2000/svg">
  <g transform="matrix(1.0, 0.0, 0.0, 1.0, 249.3, 19.7)">
    <path d="M-248.8 -6.3 L-248.8 -6.35 Q-248.8 -11.65 -175.95 -15.5 -103.0 -19.2 -0.05 -19.2 102.9 -19.2 175.85 -15.5 248.8 -11.65 248.8 -6.35 L248.8 -6.3 Q248.65 -1.1 175.85 2.75 102.9 6.5 -0.05 6.5 -103.0 6.5 -175.95 2.75 -248.65 -1.1 -248.8 -6.3" fill="#ffffff" fill-opacity="0.0" fill-rule="evenodd" stroke="none"/>
    <path d="M248.8 -6.3 L248.8 6.5 Q248.8 11.75 175.85 15.5 102.8 19.2 -0.05 19.2 -102.9 19.2 -175.95 15.5 -248.8 11.75 -248.8 6.5 L-248.8 -6.3 Q-248.65 -1.1 -175.95 2.75 -103.0 6.5 -0.05 6.5 102.9 6.5 175.85 2.75 248.65 -1.1 248.8 -6.3" fill="#000000" fill-opacity="0.4509804" fill-rule="evenodd" stroke="none"/>
    <path d="M-248.8 -6.3 L-248.8 -6.35 Q-248.8 -11.65 -175.95 -15.5 -103.0 -19.2 -0.05 -19.2 102.9 -19.2 175.85 -15.5 248.8 -11.65 248.8 -6.35 L248.8 -6.3 248.8 6.5 Q248.8 11.75 175.85 15.5 102.8 19.2 -0.05 19.2 -102.9 19.2 -175.95 15.5 -248.8 11.75 -248.8 6.5 L-248.8 -6.3" fill="none" stroke="#000000" stroke-linecap="round" stroke-linejoin="miter-clip" stroke-miterlimit="10.0" stroke-width="1.0"/>
    <path d="M-248.8 -6.3 Q-248.65 -1.1 -175.95 2.75 -103.0 6.5 -0.05 6.5 102.9 6.5 175.85 2.75 248.65 -1.1 248.8 -6.3" fill="none" stroke="#000000" stroke-linecap="round" stroke-linejoin="miter-clip" stroke-miterlimit="10.0" stroke-opacity="0.6" stroke-width="1.0"/>
  </g>
</svg>
