<?xml version="1.0" encoding="UTF-8" standalone="no"?>
<svg xmlns:xlink="http://www.w3.org/1999/xlink" height="203.55px" width="364.1px" xmlns="http://www.w3.org/2000/svg">
  <g transform="matrix(1.0, 0.0, 0.0, 1.0, 182.05, 14.1)">
    <path d="M-131.15 66.8 L-131.3 67.5 -138.05 57.05 Q-154.55 79.75 -153.55 105.9 -153.0 119.15 -147.75 129.95 -142.65 140.4 -134.8 145.1 -122.1 152.75 -93.85 149.75 L-84.55 148.5 Q-75.8 148.8 -67.35 148.15 -97.25 158.6 -119.95 156.35 -127.05 155.7 -132.55 153.8 L-136.7 152.1 Q-168.05 132.45 -160.3 86.0 -159.3 79.9 -157.65 73.7 -155.35 64.95 -151.9 56.0 L-146.15 42.1 Q-140.0 53.5 -131.15 66.8 M156.75 42.45 L163.8 56.0 166.1 62.05 Q170.4 74.3 172.35 86.0 180.1 132.45 148.75 152.1 143.35 155.35 132.0 156.35 109.3 158.6 79.4 148.15 L88.6 148.5 90.1 148.5 104.45 150.6 Q132.0 153.9 144.5 146.3 152.35 141.6 157.4 131.15 162.7 120.35 163.25 107.1 164.25 81.55 148.55 59.35 153.55 50.0 156.75 42.45" fill="#000000" fill-opacity="0.4" fill-rule="evenodd" stroke="none"/>
    <path d="M-127.15 -0.9 Q-117.7 38.75 -113.25 52.1 -102.85 83.05 -90.65 107.85 -79.2 131.2 -68.25 145.0 -78.8 134.05 -90.1 120.85 -101.9 107.1 -114.3 90.55 -123.7 78.0 -131.15 66.8 -140.0 53.5 -146.15 42.1 -151.6 31.95 -154.9 23.25 -150.3 18.4 -144.6 13.15 L-139.85 8.8 Q-135.55 4.85 -132.25 2.4 -129.25 0.15 -127.15 -0.9 M142.45 4.1 L143.0 4.25 151.2 12.9 Q159.85 22.25 162.0 25.75 160.9 32.55 156.75 42.45 153.55 50.0 148.55 59.35 L146.2 56.2 Q134.15 75.45 114.8 101.35 L109.55 108.35 93.7 128.85 85.0 137.85 Q84.0 139.05 98.9 111.6 117.65 77.0 124.7 59.85 132.25 41.45 138.15 20.7 141.0 10.65 142.45 4.1" fill="#000000" fill-opacity="0.54901963" fill-rule="evenodd" stroke="none"/>
    <path d="M-50.5 48.55 Q-51.5 55.65 -49.8 75.85 L-47.9 94.75 Q-47.45 92.65 -40.8 84.75 L-34.4 77.35 Q-39.1 94.2 -33.85 120.95 -31.25 134.35 -27.65 144.35 -35.65 136.25 -40.8 122.1 L-44.5 109.5 Q-46.65 110.6 -50.8 118.5 L-54.65 126.0 Q-57.9 115.65 -60.8 94.1 L-63.2 74.65 Q-66.35 75.2 -73.85 83.75 -77.7 87.9 -80.85 92.05 -82.95 79.6 -77.9 51.05 L-72.4 25.05 Q-73.3 38.1 -69.05 64.3 L-50.5 48.55 M63.2 74.65 L60.85 94.1 Q57.9 115.65 54.75 126.0 48.0 111.3 44.65 109.5 L40.95 122.1 Q35.65 136.25 27.75 144.35 31.35 134.35 33.95 120.95 39.25 94.2 34.5 77.35 L40.95 84.75 Q47.55 92.65 48.0 94.75 52.3 59.9 50.6 48.55 L69.15 64.3 Q73.3 38.1 72.5 25.05 L78.05 51.05 Q83.1 79.6 80.95 92.05 L74.0 83.75 Q66.35 75.2 63.2 74.65" fill="#000000" fill-opacity="0.34901962" fill-rule="evenodd" stroke="none"/>
    <path d="M107.85 -4.85 L119.65 -2.45 129.4 -0.1 134.4 1.25 142.55 3.6 150.9 12.15 Q159.55 21.35 161.65 24.85 L162.0 25.75 Q159.85 22.25 151.2 12.9 L143.0 4.25 142.45 4.1 134.05 1.6 129.2 0.25 119.65 -2.2 107.85 -4.85 M166.15 36.3 L166.5 37.2 166.85 38.15 166.15 36.3 M172.6 56.2 L175.05 65.4 Q186.65 112.55 177.55 144.8 L177.4 144.95 Q186.35 113.0 175.15 66.45 L172.6 56.2 M-122.85 175.75 Q-140.3 172.1 -157.6 167.15 -162.1 164.35 -167.3 159.05 -177.4 148.85 -181.0 136.65 -177.35 148.3 -167.75 158.15 -162.55 163.55 -158.05 166.4 -140.5 171.55 -122.85 175.75 M-169.6 61.45 Q-163.7 41.65 -155.05 22.9 -150.2 17.85 -144.25 12.35 L-140.9 9.25 -139.85 8.8 -144.6 13.15 Q-150.3 18.4 -154.9 23.25 L-155.35 23.7 Q-164.15 43.05 -170.0 63.5 L-169.6 61.45" fill="#575757" fill-rule="evenodd" stroke="none"/>
    <path d="M-111.2 -4.05 L-100.75 -5.75 -100.2 -5.8 -100.2 -5.45 -101.4 -5.3 -111.2 -3.6 -111.2 -4.05" fill="#666666" fill-rule="evenodd" stroke="none"/>
    <path d="M-132.25 2.05 Q-129.5 -0.05 -127.45 -1.15 L-126.6 -1.6 -111.2 -4.05 -111.2 -3.6 -127.15 -0.9 Q-129.25 0.15 -132.25 2.4 L-132.25 2.05" fill="#000000" fill-rule="evenodd" stroke="none"/>
    <path d="M-100.2 -5.8 Q-68.05 -10.35 -35.3 -12.25 L-30.6 -12.45 -35.85 -12.15 Q-68.45 -10.05 -100.2 -5.45 L-100.2 -5.8" fill="#949494" fill-rule="evenodd" stroke="none"/>
    <path d="M-140.9 9.25 L-132.25 2.05 -132.25 2.4 Q-135.55 4.85 -139.85 8.8 L-140.9 9.25" fill="#999999" fill-rule="evenodd" stroke="none"/>
    <path d="M-30.6 -12.45 L-16.75 -13.1 -10.7 -13.3 Q4.55 -13.75 19.1 -13.55 L30.6 -13.25 Q72.25 -11.9 107.5 -4.95 L107.85 -4.85 119.65 -2.2 129.2 0.25 134.05 1.6 142.45 4.1 Q141.0 10.65 138.15 20.7 132.25 41.45 124.7 59.85 117.65 77.0 98.9 111.6 84.0 139.05 85.0 137.85 L93.7 128.85 85.35 139.15 79.4 146.3 90.1 148.5 88.6 148.5 79.4 148.15 Q109.3 158.6 132.0 156.35 143.35 155.35 148.75 152.1 180.1 132.45 172.35 86.0 170.4 74.3 166.1 62.05 L163.8 56.0 156.75 42.45 Q160.9 32.55 162.0 25.75 L166.15 36.3 166.85 38.15 172.6 56.2 175.15 66.45 Q186.35 113.0 177.4 144.95 L170.2 153.25 159.4 164.9 Q124.25 178.05 66.9 184.95 L45.25 187.3 -17.55 188.95 Q-70.7 187.35 -122.85 175.75 -140.5 171.55 -158.05 166.4 -162.55 163.55 -167.75 158.15 -177.35 148.3 -181.0 136.65 L-181.1 136.2 -181.25 135.8 Q-181.45 122.65 -178.4 102.05 -175.45 82.3 -170.0 63.5 -164.15 43.05 -155.35 23.7 L-154.9 23.25 Q-151.6 31.95 -146.15 42.1 L-151.9 56.0 Q-155.35 64.95 -157.65 73.7 -159.3 79.9 -160.3 86.0 -168.05 132.45 -136.7 152.1 L-132.55 153.8 Q-127.05 155.7 -119.95 156.35 -97.25 158.6 -67.35 148.15 -75.8 148.8 -84.55 148.5 -75.85 147.1 -68.25 145.1 -78.8 134.15 -90.1 120.95 -97.75 112.0 -105.7 102.05 -120.5 83.55 -131.3 67.5 L-131.15 66.8 Q-123.7 78.0 -114.3 90.55 -101.9 107.1 -90.1 120.85 -78.8 134.05 -68.25 145.0 -79.2 131.2 -90.65 107.85 -102.85 83.05 -113.25 52.1 -117.7 38.75 -127.15 -0.9 L-111.2 -3.6 -101.4 -5.3 -100.2 -5.45 Q-68.45 -10.05 -35.85 -12.15 L-30.6 -12.45 M-50.5 48.55 L-69.05 64.3 Q-73.3 38.1 -72.4 25.05 L-77.9 51.05 Q-82.95 79.6 -80.85 92.05 -77.7 87.9 -73.85 83.75 -66.35 75.2 -63.2 74.65 L-60.8 94.1 Q-57.9 115.65 -54.65 126.0 L-50.8 118.5 Q-46.65 110.6 -44.5 109.5 L-40.8 122.1 Q-35.65 136.25 -27.65 144.35 -31.25 134.35 -33.85 120.95 -39.1 94.2 -34.4 77.35 L-40.8 84.75 Q-47.45 92.65 -47.9 94.75 L-49.8 75.85 Q-51.5 55.65 -50.5 48.55 M63.2 74.65 Q66.35 75.2 74.0 83.75 L80.95 92.05 Q83.1 79.6 78.05 51.05 L72.5 25.05 Q73.3 38.1 69.15 64.3 L50.6 48.55 Q52.3 59.9 48.0 94.75 47.55 92.65 40.95 84.75 L34.5 77.35 Q39.25 94.2 33.95 120.95 31.35 134.35 27.75 144.35 35.65 136.25 40.95 122.1 L44.65 109.5 Q48.0 111.3 54.75 126.0 57.9 115.65 60.85 94.1 L63.2 74.65" fill="#ffffff" fill-opacity="0.0" fill-rule="evenodd" stroke="none"/>
    <path d="M-139.85 82.25 Q-140.55 95.55 -137.5 106.8 -136.55 110.4 -135.25 113.7 -123.9 142.95 -86.8 144.55 -98.45 146.75 -108.9 145.55 -117.35 144.55 -125.0 141.3 -159.2 126.8 -138.75 71.15 L-139.85 82.25 M152.6 82.35 L151.35 71.2 Q171.8 126.85 137.75 141.35 129.25 144.9 119.8 145.75 110.15 146.6 99.5 144.65 135.35 143.1 147.2 115.75 148.95 111.6 150.2 106.85 153.15 95.6 152.6 82.35" fill="#ffffff" fill-opacity="0.7019608" fill-rule="evenodd" stroke="none"/>
    <path d="M-131.3 67.5 Q-120.5 83.55 -105.7 102.05 -97.75 112.0 -90.1 120.95 -78.8 134.15 -68.25 145.1 -75.85 147.1 -84.55 148.5 L-93.85 149.75 Q-122.1 152.75 -134.8 145.1 -142.65 140.4 -147.75 129.95 -153.0 119.15 -153.55 105.9 -154.55 79.75 -138.05 57.05 L-131.3 67.5 M90.1 148.5 L79.4 146.3 85.35 139.15 93.7 128.85 109.55 108.35 114.8 101.35 Q134.15 75.45 146.2 56.2 L148.55 59.35 Q164.25 81.55 163.25 107.1 162.7 120.35 157.4 131.15 152.35 141.6 144.5 146.3 132.0 153.9 104.45 150.6 L90.1 148.5 M-139.85 82.25 L-138.75 71.15 Q-159.2 126.8 -125.0 141.3 -117.35 144.55 -108.9 145.55 -98.45 146.75 -86.8 144.55 -123.9 142.95 -135.25 113.7 -136.55 110.4 -137.5 106.8 -140.55 95.55 -139.85 82.25 M152.6 82.35 Q153.15 95.6 150.2 106.85 148.95 111.6 147.2 115.75 135.35 143.1 99.5 144.65 110.15 146.6 119.8 145.75 129.25 144.9 137.75 141.35 171.8 126.85 151.35 71.2 L152.6 82.35" fill="#ffffff" fill-opacity="0.4" fill-rule="evenodd" stroke="none"/>
    <path d="M-30.6 -12.45 L-16.75 -13.1 -10.7 -13.3 Q4.55 -13.75 19.1 -13.55 L30.6 -13.25 Q72.25 -11.9 107.5 -4.95 L107.85 -4.85 119.65 -2.45 129.4 -0.1 134.4 1.25 142.55 3.6 150.9 12.15 Q159.55 21.35 161.65 24.85 L162.0 25.75 166.15 36.3 166.5 37.2 166.85 38.15 172.6 56.2 175.05 65.4 Q186.65 112.55 177.55 144.8 L177.4 144.95 177.2 145.7 169.75 154.15 159.0 165.8 Q123.65 178.85 66.35 185.4 L45.25 187.3 -17.55 188.95 Q-70.7 187.35 -122.85 175.75 -140.3 172.1 -157.6 167.15 -162.1 164.35 -167.3 159.05 -177.4 148.85 -181.0 136.65 L-181.1 136.2 -181.25 135.8 -181.55 134.8 Q-181.8 121.65 -178.55 101.05 -175.35 80.75 -169.6 61.45 -163.7 41.65 -155.05 22.9 -150.2 17.85 -144.25 12.35 L-140.9 9.25 -132.25 2.05 Q-129.5 -0.05 -127.45 -1.15 L-126.6 -1.6 -111.2 -4.05 -100.75 -5.75 -100.2 -5.8 Q-68.05 -10.35 -35.3 -12.25 L-30.6 -12.45 -35.85 -12.15 Q-68.45 -10.05 -100.2 -5.45 L-101.4 -5.3 -111.2 -3.6 -127.15 -0.9 Q-129.25 0.15 -132.25 2.4 L-132.25 2.05 M-154.9 23.25 L-155.35 23.7 Q-164.15 43.05 -170.0 63.5 -175.45 82.3 -178.4 102.05 -181.45 122.65 -181.25 135.8 M107.85 -4.85 L119.65 -2.2 129.2 0.25 134.05 1.6 142.45 4.1 143.0 4.25 151.2 12.9 Q159.85 22.25 162.0 25.75 M-111.2 -4.05 L-111.2 -3.6 M-139.85 8.8 Q-135.55 4.85 -132.25 2.4 M-154.9 23.25 Q-150.3 18.4 -144.6 13.15 L-139.85 8.8 M-122.85 175.75 Q-140.5 171.55 -158.05 166.4 -162.55 163.55 -167.75 158.15 -177.35 148.3 -181.0 136.65 M-169.6 61.45 L-170.0 63.5 M166.15 36.3 L166.85 38.15 M172.6 56.2 L175.15 66.45 Q186.35 113.0 177.4 144.95 L170.2 153.25 159.4 164.9 Q124.25 178.05 66.9 184.95 L45.25 187.3" fill="none" stroke="#000000" stroke-linecap="round" stroke-linejoin="miter-clip" stroke-miterlimit="4.0" stroke-width="1.0"/>
  </g>
</svg>
