<?xml version="1.0" encoding="UTF-8" standalone="no"?>
<svg xmlns:xlink="http://www.w3.org/1999/xlink" height="80.75px" width="61.05px" xmlns="http://www.w3.org/2000/svg">
  <g transform="matrix(1.0, 0.0, 0.0, 1.0, 30.55, 40.4)">
    <path d="M19.5 -35.95 Q19.45 -37.45 17.45 -38.7 L16.1 -39.35 Q19.3 -38.25 19.5 -36.15 L19.5 -35.95" fill="#424242" fill-rule="evenodd" stroke="none"/>
    <path d="M15.4 -39.55 Q16.35 -36.0 15.1 -35.6 13.7 -35.15 -3.95 -35.9 -3.95 -37.45 -1.9 -38.7 0.15 -39.9 3.05 -39.9 L12.5 -39.9 15.4 -39.55 M16.9 39.2 Q17.2 32.25 17.75 30.4 19.15 25.05 23.55 26.2 27.85 27.2 29.25 31.6 30.15 34.5 30.0 39.85 L16.9 39.2 M-30.05 39.2 Q-29.75 32.2 -29.3 30.4 -27.9 25.05 -23.4 26.2 -19.1 27.2 -17.7 31.6 -16.75 34.5 -16.95 39.85 L-30.05 39.2" fill="#ffffff" fill-opacity="0.0" fill-rule="evenodd" stroke="none"/>
    <path d="M15.85 -39.4 L16.1 -39.35 17.45 -38.7 Q19.45 -37.45 19.5 -35.95 L19.5 -35.9 Q19.5 -34.2 17.45 -33.0 15.4 -31.85 12.5 -31.85 L3.05 -31.85 Q0.15 -31.85 -1.9 -33.0 -3.95 -34.2 -3.95 -35.9 13.7 -35.15 15.1 -35.6 16.35 -36.0 15.4 -39.55 L15.55 -39.5 15.85 -39.4" fill="#000000" fill-opacity="0.3019608" fill-rule="evenodd" stroke="none"/>
    <path d="M15.85 -39.4 L15.55 -39.5 15.4 -39.55 12.5 -39.9 3.05 -39.9 Q0.15 -39.9 -1.9 -38.7 -3.95 -37.45 -3.95 -35.9 -3.95 -34.2 -1.9 -33.0 0.15 -31.85 3.05 -31.85 L12.5 -31.85 Q15.4 -31.85 17.45 -33.0 19.5 -34.2 19.5 -35.9 L19.5 -35.95 Q19.45 -37.45 17.45 -38.7 L16.1 -39.35 M16.9 39.2 Q17.2 32.25 17.75 30.4 19.15 25.05 23.55 26.2 27.85 27.2 29.25 31.6 30.15 34.5 30.0 39.85 M-30.05 39.2 Q-29.75 32.2 -29.3 30.4 -27.9 25.05 -23.4 26.2 -19.1 27.2 -17.7 31.6 -16.75 34.5 -16.95 39.85" fill="none" stroke="#000000" stroke-linecap="round" stroke-linejoin="miter-clip" stroke-miterlimit="4.0" stroke-width="1.0"/>
  </g>
</svg>
