<?xml version="1.0" encoding="UTF-8" standalone="no"?>
<svg xmlns:xlink="http://www.w3.org/1999/xlink" height="170.2px" width="1147.05px" xmlns="http://www.w3.org/2000/svg">
  <g transform="matrix(1.0, 0.0, 0.0, 1.0, 573.55, 85.1)">
    <path d="M552.25 -85.1 Q561.6 -85.1 567.7 -78.15 572.2 -72.9 573.4 -66.25 L573.5 -65.65 573.5 15.0 Q573.5 17.65 571.65 19.6 569.7 21.45 567.05 21.45 564.35 21.45 562.5 19.6 560.55 17.65 560.55 15.0 L560.55 -64.4 Q560.1 -66.6 558.8 -68.55 556.85 -71.5 553.75 -72.05 L339.1 45.0 Q336.6 47.25 334.75 49.9 331.6 54.55 331.95 58.6 L332.05 84.75 319.1 85.1 319.1 59.6 Q318.3 50.65 324.6 41.9 327.7 37.45 331.5 34.5 L331.9 34.2 550.6 -85.1 552.25 -85.1 M552.9 -82.6 L552.25 -83.15 551.4 -83.15 335.0 36.25 Q334.0 36.9 334.65 37.8 335.1 38.75 336.15 38.3 L552.55 -81.1 Q553.35 -81.65 552.9 -82.6 M554.45 -72.9 Q557.6 -72.3 559.65 -69.35 560.95 -67.45 561.4 -65.2 L561.4 14.15 Q561.4 16.85 563.25 18.8 565.2 20.65 567.85 20.65 L567.85 -68.35 Q566.75 -70.85 564.8 -73.25 561.05 -78.25 556.8 -78.25 L336.2 41.9 Q333.9 43.55 331.6 46.2 327.0 51.7 327.0 56.65 L327.0 84.1 331.05 83.9 330.95 57.75 Q330.6 53.8 334.65 49.1 335.75 47.8 339.9 44.2 L554.45 -72.9 M570.75 -64.45 Q569.55 -64.45 569.55 -63.25 L569.55 16.85 Q569.55 18.05 570.75 18.05 572.0 18.05 572.0 16.85 L572.0 -63.25 Q572.0 -64.45 570.75 -64.45 M324.3 83.0 L324.3 55.75 Q324.3 54.55 323.1 54.55 322.0 54.55 322.0 55.75 L322.0 83.0 Q322.0 84.1 323.1 84.1 324.3 84.1 324.3 83.0 M-573.55 -65.65 L-573.45 -66.25 Q-572.25 -72.9 -567.75 -78.15 -561.65 -85.1 -552.3 -85.1 L-550.65 -85.1 -331.45 34.5 -324.6 41.9 Q-318.35 50.65 -319.15 59.6 L-319.15 84.6 -332.1 84.6 -332.0 58.6 Q-331.55 54.55 -334.8 49.9 -336.65 47.25 -339.15 45.0 L-553.8 -72.05 Q-556.9 -71.5 -558.85 -68.55 -560.15 -66.6 -560.6 -64.4 L-560.6 15.0 Q-560.6 17.65 -562.45 19.6 -564.4 21.45 -567.1 21.45 -569.75 21.45 -571.7 19.6 -573.55 17.65 -573.55 15.0 L-573.55 -65.65 M-552.95 -82.6 Q-553.4 -81.65 -552.55 -81.1 L-336.15 38.3 Q-335.15 38.75 -334.7 37.8 -334.05 36.9 -335.05 36.25 L-551.45 -83.15 -552.3 -83.15 -552.95 -82.6 M-570.8 -64.45 Q-572.0 -64.45 -572.0 -63.25 L-572.0 16.85 Q-572.0 18.05 -570.8 18.05 -569.6 18.05 -569.6 16.85 L-569.6 -63.25 Q-569.6 -64.45 -570.8 -64.45 M-554.5 -72.9 L-339.95 44.2 -334.6 49.1 Q-330.55 53.8 -331.0 57.75 L-331.0 83.9 -327.05 84.1 -327.05 56.65 Q-327.05 51.7 -331.65 46.2 L-336.25 41.9 -556.8 -78.25 Q-561.05 -78.25 -564.85 -73.25 L-567.9 -68.35 -567.9 20.65 Q-565.25 20.65 -563.3 18.8 -561.45 16.85 -561.45 14.15 L-561.45 -65.2 Q-561.0 -67.45 -559.7 -69.35 -557.65 -72.3 -554.5 -72.9 M-323.15 54.55 Q-324.35 54.55 -324.35 55.75 L-324.35 83.0 Q-324.35 84.1 -323.15 84.1 -322.05 84.1 -322.05 83.0 L-322.05 55.75 Q-322.05 54.55 -323.15 54.55" fill="#ffffff" fill-opacity="0.0" fill-rule="evenodd" stroke="none"/>
    <path d="M552.9 -82.6 Q553.35 -81.65 552.55 -81.1 L336.15 38.3 Q335.1 38.75 334.65 37.8 334.0 36.9 335.0 36.25 L551.4 -83.15 552.25 -83.15 552.9 -82.6 M570.75 -64.45 Q572.0 -64.45 572.0 -63.25 L572.0 16.85 Q572.0 18.05 570.75 18.05 569.55 18.05 569.55 16.85 L569.55 -63.25 Q569.55 -64.45 570.75 -64.45 M324.3 83.0 Q324.3 84.1 323.1 84.1 322.0 84.1 322.0 83.0 L322.0 55.75 Q322.0 54.55 323.1 54.55 324.3 54.55 324.3 55.75 L324.3 83.0 M-570.8 -64.45 Q-569.6 -64.45 -569.6 -63.25 L-569.6 16.85 Q-569.6 18.05 -570.8 18.05 -572.0 18.05 -572.0 16.85 L-572.0 -63.25 Q-572.0 -64.45 -570.8 -64.45 M-552.95 -82.6 L-552.3 -83.15 -551.45 -83.15 -335.05 36.25 Q-334.05 36.9 -334.7 37.8 -335.15 38.75 -336.15 38.3 L-552.55 -81.1 Q-553.4 -81.65 -552.95 -82.6 M-323.15 54.55 Q-322.05 54.55 -322.05 55.75 L-322.05 83.0 Q-322.05 84.1 -323.15 84.1 -324.35 84.1 -324.35 83.0 L-324.35 55.75 Q-324.35 54.55 -323.15 54.55" fill="#ffffff" fill-opacity="0.34901962" fill-rule="evenodd" stroke="none"/>
    <path d="M554.45 -72.9 L339.9 44.2 Q335.75 47.8 334.65 49.1 330.6 53.8 330.95 57.75 L331.05 83.9 327.0 84.1 327.0 56.65 Q327.0 51.7 331.6 46.2 333.9 43.55 336.2 41.9 L556.8 -78.25 Q561.05 -78.25 564.8 -73.25 566.75 -70.85 567.85 -68.35 L567.85 20.65 Q565.2 20.65 563.25 18.8 561.4 16.85 561.4 14.15 L561.4 -65.2 Q560.95 -67.45 559.65 -69.35 557.6 -72.3 554.45 -72.9 M-554.5 -72.9 Q-557.65 -72.3 -559.7 -69.35 -561.0 -67.45 -561.45 -65.2 L-561.45 14.15 Q-561.45 16.85 -563.3 18.8 -565.25 20.65 -567.9 20.65 L-567.9 -68.35 -564.85 -73.25 Q-561.05 -78.25 -556.8 -78.25 L-336.25 41.9 -331.65 46.2 Q-327.05 51.7 -327.05 56.65 L-327.05 84.1 -331.0 83.9 -331.0 57.75 Q-330.55 53.8 -334.6 49.1 L-339.95 44.2 -554.5 -72.9" fill="#000000" fill-opacity="0.3019608" fill-rule="evenodd" stroke="none"/>
  </g>
</svg>
