<?xml version="1.0" encoding="UTF-8" standalone="no"?>
<svg xmlns:xlink="http://www.w3.org/1999/xlink" height="128.0px" width="107.0px" xmlns="http://www.w3.org/2000/svg">
  <g transform="matrix(1.0, 0.0, 0.0, 1.0, 53.5, 64.0)">
    <path d="M-31.55 40.25 L-34.2 40.25 -32.0 38.0 Q-30.7 37.4 -28.45 37.2 L-26.45 37.05 Q-28.2 37.65 -31.55 40.25 M-18.8 -53.55 Q-18.05 -55.4 -16.85 -56.1 -16.2 -56.45 -15.75 -56.45 -17.85 -52.85 -24.0 -21.2 L-29.75 9.75 Q-30.05 8.0 -18.8 -53.55 M-41.7 48.1 L-41.25 48.9 Q-46.8 54.1 -51.5 59.05 -51.35 58.15 -41.7 48.1" fill="#ffffff" fill-opacity="0.2509804" fill-rule="evenodd" stroke="none"/>
    <path d="M-34.2 40.25 L-36.3 40.25 -37.05 40.3 -35.25 38.35 Q-33.9 37.0 -30.2 36.0 L-30.6 35.0 -31.65 31.55 Q-34.35 21.2 -31.95 7.55 L-21.75 -51.4 Q-20.85 -56.8 -17.85 -60.45 -14.95 -64.0 -11.65 -64.0 L12.6 -63.95 Q15.9 -63.85 18.7 -60.35 21.55 -56.8 22.45 -51.45 L32.05 6.15 Q34.25 19.3 31.65 29.6 L29.8 35.0 29.55 35.5 27.65 35.15 Q31.45 37.65 34.55 40.25 L-31.55 40.25 Q-28.2 37.65 -26.45 37.05 L-28.45 37.2 Q-30.7 37.4 -32.0 38.0 L-34.2 40.25 M37.3 61.6 L14.75 61.6 14.75 53.9 14.45 51.45 35.15 51.45 Q37.6 51.45 39.35 49.8 40.75 48.45 41.05 46.7 45.7 52.45 45.3 57.4 45.15 60.15 37.3 61.6 M-18.8 -53.55 Q-30.05 8.0 -29.75 9.75 L-24.0 -21.2 Q-17.85 -52.85 -15.75 -56.45 -16.2 -56.45 -16.85 -56.1 -18.05 -55.4 -18.8 -53.55 M-52.15 62.65 Q-55.05 59.85 -51.75 56.2 L-42.2 45.9 Q-42.2 47.05 -41.7 48.1 -51.35 58.15 -51.5 59.05 -46.8 54.1 -41.25 48.9 L-40.5 49.8 Q-38.75 51.45 -36.3 51.45 L-13.85 51.45 Q-14.2 52.6 -14.2 53.9 L-14.2 61.6 -34.45 61.6 -53.35 60.25 Q-53.2 61.55 -52.15 62.65" fill="#ffffff" fill-opacity="0.0" fill-rule="evenodd" stroke="none"/>
    <path d="M29.55 35.5 L29.75 35.55 Q32.45 36.05 34.15 36.85 L36.35 38.35 51.85 55.8 Q55.45 59.8 51.3 62.85 L49.35 64.0 48.5 62.7 Q47.35 61.6 45.75 61.6 L37.3 61.6 Q45.15 60.15 45.3 57.4 45.7 52.45 41.05 46.7 L41.1 45.8 Q41.1 43.55 39.35 41.9 37.6 40.25 35.15 40.25 L34.55 40.25 Q31.45 37.65 27.65 35.15 L29.55 35.5 M-34.45 61.6 L-47.75 61.6 Q-49.35 61.6 -50.45 62.7 L-51.1 63.55 -52.15 62.65 Q-53.2 61.55 -53.35 60.25 L-34.45 61.6" fill="#000000" fill-opacity="0.3019608" fill-rule="evenodd" stroke="none"/>
  </g>
</svg>
