<?xml version="1.0" encoding="UTF-8" standalone="no"?>
<svg xmlns:xlink="http://www.w3.org/1999/xlink" height="327.05px" width="266.45px" xmlns="http://www.w3.org/2000/svg">
  <g transform="matrix(1.0, 0.0, 0.0, 1.0, 133.2, 163.5)">
    <path d="M105.55 -88.2 L105.55 -155.05 Q105.55 -158.35 107.6 -160.7 109.55 -163.0 112.35 -163.0 115.25 -163.0 117.2 -160.7 119.15 -158.35 119.15 -155.05 L119.15 -150.85 Q114.9 -145.25 114.9 -137.9 L114.9 -91.5 113.2 -91.65 Q111.15 -91.65 109.4 -90.95 L109.4 -145.95 109.1 -146.85 108.35 -147.2 Q107.25 -147.2 107.25 -145.95 L107.25 -89.75 105.9 -88.6 105.55 -88.2 M105.65 134.95 L105.55 133.85 105.55 34.4 105.55 27.6 105.55 19.1 105.55 27.6 39.7 27.6 35.1 22.45 32.9 20.95 Q31.2 20.15 28.5 19.65 L28.3 19.6 28.55 19.1 85.2 19.1 96.9 19.1 105.55 19.1 105.55 13.05 105.55 2.4 105.55 -2.35 105.9 -2.0 107.25 -0.85 107.25 131.65 Q107.25 132.15 107.6 132.5 107.85 132.85 108.35 132.85 L109.1 132.5 109.4 131.65 109.4 0.35 113.2 1.0 114.9 0.9 114.9 134.95 105.65 134.95 M25.1 -44.05 L105.55 -44.05 105.55 -40.2 25.75 -40.2 25.1 -44.05 M109.4 -18.85 L109.4 -71.75 Q111.15 -71.05 113.2 -71.05 L114.9 -71.15 114.9 -19.4 113.2 -19.55 Q111.15 -19.55 109.4 -18.85 M-120.0 -89.85 L-120.0 -155.05 Q-120.0 -158.35 -117.95 -160.7 -116.0 -163.0 -113.2 -163.0 -110.3 -163.0 -108.35 -160.7 -106.4 -158.35 -106.4 -155.05 L-106.4 -150.85 Q-110.6 -145.15 -110.6 -137.9 L-110.6 -91.0 Q-112.25 -91.65 -114.15 -91.65 L-116.15 -91.45 -116.15 -145.95 Q-116.15 -146.45 -116.4 -146.85 L-117.2 -147.2 Q-118.25 -147.2 -118.25 -145.95 L-118.25 -90.8 -120.0 -89.85 M-106.4 -44.05 L-27.0 -44.05 -27.7 -40.2 -106.4 -40.2 -106.4 -44.05 M-31.85 19.1 L-31.45 20.1 Q-35.15 21.1 -36.5 22.45 L-38.3 24.4 Q-40.25 24.6 -41.75 26.0 L-42.9 27.6 -106.4 27.6 -106.4 19.1 -98.25 19.1 -86.4 19.1 -31.85 19.1 M-116.15 -19.35 L-116.15 -71.2 -114.15 -71.05 Q-112.25 -71.05 -110.6 -71.65 L-110.6 -18.95 Q-112.25 -19.55 -114.15 -19.55 L-116.15 -19.35 M-110.6 0.4 L-110.6 134.95 -119.9 134.95 -120.0 133.85 -120.0 -0.75 -118.25 0.2 -118.25 131.65 Q-118.25 132.85 -117.2 132.85 -116.75 132.85 -116.4 132.5 -116.15 132.15 -116.15 131.65 L-116.15 0.85 -114.15 1.0 Q-112.25 1.0 -110.6 0.4" fill="#ffffff" fill-opacity="0.0" fill-rule="evenodd" stroke="none"/>
    <path d="M107.25 -89.75 L107.25 -145.95 Q107.25 -147.2 108.35 -147.2 L109.1 -146.85 109.4 -145.95 109.4 -90.95 Q108.25 -90.5 107.25 -89.75 M107.25 -72.9 L109.4 -71.75 109.4 -18.85 107.25 -17.7 107.25 -72.9 M109.4 0.35 L109.4 131.65 109.1 132.5 108.35 132.85 Q107.85 132.85 107.6 132.5 107.25 132.15 107.25 131.65 L107.25 -0.85 Q108.25 -0.1 109.4 0.35 M13.5 46.8 L44.35 46.8 Q44.9 46.8 44.9 47.4 44.9 47.95 44.35 47.95 L13.5 47.95 13.5 46.8 M36.4 26.75 L36.35 27.1 Q36.2 27.55 35.6 27.55 L-38.8 27.55 Q-39.65 27.55 -39.65 26.75 -39.65 26.0 -38.8 26.0 L35.6 26.0 Q36.4 26.0 36.4 26.75 M28.75 147.05 Q29.6 147.05 29.6 147.85 29.6 148.65 28.75 148.65 L-31.3 148.65 Q-32.15 148.65 -32.15 147.85 -32.15 147.05 -31.3 147.05 L28.75 147.05 M-118.25 -90.8 L-118.25 -145.95 Q-118.25 -147.2 -117.2 -147.2 L-116.4 -146.85 Q-116.15 -146.45 -116.15 -145.95 L-116.15 -91.45 -118.25 -90.8 M-120.0 -72.85 L-118.25 -71.85 -116.15 -71.2 -116.15 -19.35 -118.25 -18.75 -120.0 -17.75 -120.0 -72.85 M-15.45 46.8 L-15.45 47.95 -48.3 47.95 Q-48.85 47.95 -48.85 47.4 -48.85 46.8 -48.3 46.8 L-15.45 46.8 M-116.15 0.85 L-116.15 131.65 Q-116.15 132.15 -116.4 132.5 -116.75 132.85 -117.2 132.85 -118.25 132.85 -118.25 131.65 L-118.25 0.2 -116.15 0.85" fill="#ffffff" fill-opacity="0.4" fill-rule="evenodd" stroke="none"/>
    <path d="M119.15 -150.85 L119.15 -89.7 Q117.25 -91.15 114.9 -91.5 L114.9 -137.9 Q114.9 -145.25 119.15 -150.85 M119.15 -73.0 L119.15 -17.65 Q117.25 -19.05 114.9 -19.4 L114.9 -71.15 Q117.25 -71.55 119.15 -73.0 M119.15 -0.9 L119.15 133.85 119.15 134.05 119.1 134.95 128.5 134.95 Q129.05 138.55 126.45 139.15 L92.85 139.15 Q92.85 137.4 94.1 136.25 95.3 134.95 97.05 134.95 L105.65 134.95 114.9 134.95 114.9 0.9 Q117.25 0.5 119.15 -0.9 M48.1 48.1 L48.35 49.55 Q48.35 50.85 47.6 51.9 L48.0 51.1 13.5 51.1 13.5 47.95 44.35 47.95 Q44.9 47.95 44.9 47.4 44.9 46.8 44.35 46.8 L13.5 46.8 13.5 45.7 44.5 45.7 Q46.1 45.7 47.25 46.8 L48.1 48.1 M-52.5 51.1 L-52.8 50.05 -52.85 49.7 -52.85 49.55 Q-52.85 48.5 -52.35 47.65 L-51.7 46.8 Q-50.6 45.7 -49.0 45.7 L-15.45 45.7 -15.45 46.8 -48.3 46.8 Q-48.85 46.8 -48.85 47.4 -48.85 47.95 -48.3 47.95 L-15.45 47.95 -15.45 51.1 -52.5 51.1 M-15.1 35.55 L-37.55 35.55 Q-40.0 35.55 -41.75 33.9 L-42.5 33.0 -42.95 32.2 Q-43.45 31.15 -43.45 30.0 L-43.45 29.9 Q-43.45 28.65 -42.9 27.6 L-41.75 26.0 Q-40.25 24.6 -38.3 24.4 L-37.55 24.35 33.9 24.35 Q36.35 24.35 38.1 26.0 39.85 27.65 39.85 29.9 L39.8 30.8 Q39.5 32.55 38.1 33.9 36.35 35.55 33.9 35.55 L13.2 35.55 6.65 35.55 Q4.2 35.55 2.45 33.9 0.7 32.25 0.7 29.9 L-4.35 29.9 Q-4.35 32.25 -6.1 33.9 -7.85 35.55 -10.3 35.55 L-15.1 35.55 M105.55 -44.05 L105.55 -74.45 105.9 -74.1 107.25 -72.9 107.25 -17.7 105.9 -16.55 105.55 -16.2 105.55 -37.1 105.55 -40.2 105.55 -44.05 M36.4 26.75 Q36.4 26.0 35.6 26.0 L-38.8 26.0 Q-39.65 26.0 -39.65 26.75 -39.65 27.55 -38.8 27.55 L35.6 27.55 Q36.2 27.55 36.35 27.1 L36.4 26.75 M119.1 134.95 L114.9 134.95 119.1 134.95 M-106.4 -150.85 L-106.4 -88.0 -106.95 -88.6 Q-108.6 -90.3 -110.6 -91.0 L-110.6 -137.9 Q-110.6 -145.15 -106.4 -150.85 M-106.4 -74.65 L-106.4 -44.05 -106.4 -40.2 -106.4 -37.1 -106.4 -15.95 -106.95 -16.55 Q-108.6 -18.2 -110.6 -18.95 L-110.6 -71.65 Q-108.6 -72.4 -106.95 -74.1 L-106.4 -74.65 M-110.6 0.4 Q-108.6 -0.35 -106.95 -2.0 L-106.4 -2.6 -106.4 2.75 -106.4 13.4 -106.4 19.1 -106.4 27.6 -106.4 34.4 -106.4 133.85 -106.4 134.05 -106.5 134.95 -110.6 134.95 -106.5 134.95 -97.05 134.95 Q-96.5 138.55 -99.1 139.15 L-132.7 139.15 Q-132.7 137.4 -131.45 136.25 -130.25 134.95 -128.5 134.95 L-119.9 134.95 -110.6 134.95 -110.6 0.4" fill="#000000" fill-opacity="0.3019608" fill-rule="evenodd" stroke="none"/>
    <path d="M128.5 134.95 Q130.25 134.95 131.5 136.25 132.75 137.4 132.75 139.15 132.75 141.0 131.5 142.2 130.3 143.45 128.5 143.45 L97.05 143.45 Q95.3 143.45 94.1 142.2 92.85 140.95 92.85 139.15 L126.45 139.15 Q129.05 138.55 128.5 134.95 M105.55 34.4 L45.75 34.4 39.7 27.6 105.55 27.6 105.55 34.4 M-15.45 145.5 L-15.45 57.9 -15.45 55.3 -15.45 53.35 -15.45 51.1 -15.45 47.95 -15.45 46.8 -15.45 45.7 -15.45 40.5 2.45 39.95 2.45 145.5 -15.45 145.5 M-43.45 30.0 L-47.55 34.4 -106.4 34.4 -106.4 27.6 -42.9 27.6 Q-43.45 28.65 -43.45 29.9 L-43.45 30.0 M26.25 -37.1 L25.75 -40.2 105.55 -40.2 105.55 -37.1 26.25 -37.1 M-27.7 -40.2 L-28.2 -37.1 -106.4 -37.1 -106.4 -40.2 -27.7 -40.2 M-132.7 139.15 L-99.1 139.15 Q-96.5 138.55 -97.05 134.95 -95.3 134.95 -94.05 136.25 -92.75 137.4 -92.75 139.15 -92.75 141.0 -94.05 142.2 -95.25 143.45 -97.05 143.45 L-128.5 143.45 Q-130.25 143.45 -131.45 142.2 -132.7 140.95 -132.7 139.15" fill="#000000" fill-opacity="0.34901962" fill-rule="evenodd" stroke="none"/>
    <path d="M119.15 -89.7 L120.4 -88.6 Q123.45 -85.6 123.45 -81.3 123.45 -77.05 120.4 -74.1 L119.15 -73.0 Q117.25 -71.55 114.9 -71.15 L113.2 -71.05 Q111.15 -71.05 109.4 -71.75 L107.25 -72.9 105.9 -74.1 105.55 -74.45 Q102.9 -77.3 102.9 -81.3 102.9 -85.35 105.55 -88.2 L105.9 -88.6 107.25 -89.75 Q108.25 -90.5 109.4 -90.95 111.15 -91.65 113.2 -91.65 L114.9 -91.5 Q117.25 -91.15 119.15 -89.7 M119.15 -17.65 L120.4 -16.55 Q123.45 -13.6 123.45 -9.3 123.45 -5.05 120.4 -2.0 L119.15 -0.9 Q117.25 0.5 114.9 0.9 L113.2 1.0 109.4 0.35 Q108.25 -0.1 107.25 -0.85 L105.9 -2.0 105.55 -2.35 Q102.9 -5.3 102.9 -9.3 102.9 -13.35 105.55 -16.2 L105.9 -16.55 107.25 -17.7 109.4 -18.85 Q111.15 -19.55 113.2 -19.55 L114.9 -19.4 Q117.25 -19.05 119.15 -17.65 M114.9 -88.15 L113.1 -88.35 Q111.05 -88.35 109.4 -87.25 L108.2 -86.3 107.25 -85.15 Q106.15 -83.45 106.2 -81.3 106.2 -79.25 107.25 -77.55 L108.2 -76.35 Q108.75 -75.8 109.4 -75.4 111.1 -74.3 113.2 -74.3 L114.9 -74.5 Q116.7 -75.0 118.2 -76.4 L119.15 -77.6 Q120.2 -79.3 120.2 -81.4 120.15 -83.4 119.15 -85.0 L118.1 -86.3 Q116.7 -87.7 114.9 -88.15 M119.15 -13.0 L118.1 -14.3 Q116.7 -15.7 114.9 -16.1 L113.1 -16.35 Q111.05 -16.3 109.4 -15.2 L108.2 -14.25 107.25 -13.05 Q106.15 -11.35 106.2 -9.25 106.2 -7.15 107.25 -5.45 L108.2 -4.25 Q108.75 -3.7 109.4 -3.3 111.1 -2.25 113.2 -2.3 L114.9 -2.5 Q116.7 -2.95 118.2 -4.35 L119.15 -5.55 Q120.2 -7.25 120.2 -9.3 120.15 -11.35 119.15 -13.0 M-106.4 -88.0 Q-103.95 -85.2 -103.95 -81.3 -103.95 -77.45 -106.4 -74.65 L-106.95 -74.1 Q-108.6 -72.4 -110.6 -71.65 -112.25 -71.05 -114.15 -71.05 L-116.15 -71.2 -118.25 -71.85 -120.0 -72.85 -121.45 -74.1 Q-124.5 -77.05 -124.5 -81.3 -124.5 -85.6 -121.45 -88.6 L-120.0 -89.85 -118.25 -90.8 -116.15 -91.45 -114.15 -91.65 Q-112.25 -91.65 -110.6 -91.0 -108.6 -90.3 -106.95 -88.6 L-106.4 -88.0 M-114.25 -88.35 L-116.15 -88.1 Q-117.3 -87.8 -118.25 -87.05 L-119.15 -86.3 -120.0 -85.3 Q-121.25 -83.55 -121.2 -81.3 -121.2 -79.1 -120.0 -77.35 L-119.15 -76.35 -118.25 -75.6 Q-117.25 -74.9 -116.15 -74.55 L-114.15 -74.3 Q-112.2 -74.35 -110.6 -75.3 L-109.2 -76.4 Q-107.15 -78.5 -107.15 -81.4 -107.2 -84.25 -109.25 -86.3 L-110.6 -87.35 Q-112.25 -88.4 -114.25 -88.35 M-120.0 -17.75 L-118.25 -18.75 -116.15 -19.35 -114.15 -19.55 Q-112.25 -19.55 -110.6 -18.95 -108.6 -18.2 -106.95 -16.55 L-106.4 -15.95 Q-103.95 -13.2 -103.95 -9.3 -103.95 -5.45 -106.4 -2.6 L-106.95 -2.0 Q-108.6 -0.35 -110.6 0.4 -112.25 1.0 -114.15 1.0 L-116.15 0.85 -118.25 0.2 -120.0 -0.75 -121.45 -2.0 Q-124.5 -5.05 -124.5 -9.3 -124.5 -13.6 -121.45 -16.55 L-120.0 -17.75 M-109.25 -14.3 L-110.6 -15.35 Q-112.25 -16.35 -114.25 -16.35 L-116.15 -16.05 Q-117.3 -15.7 -118.25 -15.0 L-119.15 -14.25 -120.0 -13.2 Q-121.25 -11.45 -121.2 -9.25 -121.2 -7.05 -120.0 -5.25 L-119.15 -4.25 -118.25 -3.5 Q-117.25 -2.85 -116.15 -2.5 L-114.15 -2.3 Q-112.2 -2.3 -110.6 -3.25 L-109.2 -4.35 Q-107.15 -6.45 -107.15 -9.3 -107.2 -12.25 -109.25 -14.3" fill="#ffffff" fill-opacity="0.101960786" fill-rule="evenodd" stroke="none"/>
    <path d="M47.6 51.9 L47.5 52.0 47.25 52.25 47.2 52.35 Q46.05 53.35 44.5 53.35 L35.85 53.35 31.6 53.35 13.5 53.35 13.5 51.1 48.0 51.1 47.6 51.9 M-40.9 53.35 L-49.0 53.35 -49.1 53.35 -49.8 53.3 Q-50.9 53.05 -51.7 52.25 L-52.05 51.85 -52.1 51.75 -52.2 51.65 -52.5 51.1 -15.45 51.1 -15.45 53.35 -36.7 53.35 -40.9 53.35 M114.9 -88.15 Q116.7 -87.7 118.1 -86.3 L119.15 -85.0 Q120.15 -83.4 120.2 -81.4 120.2 -79.3 119.15 -77.6 L118.2 -76.4 Q116.7 -75.0 114.9 -74.5 L113.2 -74.3 Q111.1 -74.3 109.4 -75.4 108.75 -75.8 108.2 -76.35 L107.25 -77.55 Q106.2 -79.25 106.2 -81.3 106.15 -83.45 107.25 -85.15 L108.2 -86.3 109.4 -87.25 Q111.05 -88.35 113.1 -88.35 L114.9 -88.15 M119.15 -13.0 Q120.15 -11.35 120.2 -9.3 120.2 -7.25 119.15 -5.55 L118.2 -4.35 Q116.7 -2.95 114.9 -2.5 L113.2 -2.3 Q111.1 -2.25 109.4 -3.3 108.75 -3.7 108.2 -4.25 L107.25 -5.45 Q106.2 -7.15 106.2 -9.25 106.15 -11.35 107.25 -13.05 L108.2 -14.25 109.4 -15.2 Q111.05 -16.3 113.1 -16.35 L114.9 -16.1 Q116.7 -15.7 118.1 -14.3 L119.15 -13.0 M-114.25 -88.35 Q-112.25 -88.4 -110.6 -87.35 L-109.25 -86.3 Q-107.2 -84.25 -107.15 -81.4 -107.15 -78.5 -109.2 -76.4 L-110.6 -75.3 Q-112.2 -74.35 -114.15 -74.3 L-116.15 -74.55 Q-117.25 -74.9 -118.25 -75.6 L-119.15 -76.35 -120.0 -77.35 Q-121.2 -79.1 -121.2 -81.3 -121.25 -83.55 -120.0 -85.3 L-119.15 -86.3 -118.25 -87.05 Q-117.3 -87.8 -116.15 -88.1 L-114.25 -88.35 M-109.25 -14.3 Q-107.2 -12.25 -107.15 -9.3 -107.15 -6.45 -109.2 -4.35 L-110.6 -3.25 Q-112.2 -2.3 -114.15 -2.3 L-116.15 -2.5 Q-117.25 -2.85 -118.25 -3.5 L-119.15 -4.25 -120.0 -5.25 Q-121.2 -7.05 -121.2 -9.25 -121.25 -11.45 -120.0 -13.2 L-119.15 -14.25 -118.25 -15.0 Q-117.3 -15.7 -116.15 -16.05 L-114.25 -16.35 Q-112.25 -16.35 -110.6 -15.35 L-109.25 -14.3" fill="#000000" fill-opacity="0.4" fill-rule="evenodd" stroke="none"/>
    <path d="M35.85 53.35 L35.85 55.3 31.6 55.3 31.6 53.35 35.85 53.35 M35.85 57.9 L35.85 62.25 Q35.85 63.15 35.25 63.8 34.6 64.45 33.75 64.45 32.85 64.45 32.2 63.8 31.6 63.15 31.6 62.25 L31.6 57.9 35.85 57.9 M13.5 145.5 L31.3 145.5 40.7 163.05 -41.75 163.05 -34.1 145.5 -15.45 145.5 2.45 145.5 13.5 145.5 M-36.7 57.9 L-36.7 62.25 Q-36.7 63.15 -37.35 63.8 -37.9 64.45 -38.8 64.45 -39.7 64.45 -40.3 63.8 -40.9 63.15 -40.9 62.25 L-40.9 57.9 -36.7 57.9 M-40.9 55.3 L-40.9 53.35 -36.7 53.35 -36.7 55.3 -40.9 55.3 M105.55 2.4 L105.55 13.05 96.9 19.1 85.2 19.1 105.55 2.4 M28.75 147.05 L-31.3 147.05 Q-32.15 147.05 -32.15 147.85 -32.15 148.65 -31.3 148.65 L28.75 148.65 Q29.6 148.65 29.6 147.85 29.6 147.05 28.75 147.05 M-106.4 13.4 L-106.4 2.75 -86.4 19.1 -98.25 19.1 -106.4 13.4" fill="#000000" fill-opacity="0.6509804" fill-rule="evenodd" stroke="none"/>
    <path d="M35.85 55.3 L40.3 55.3 Q40.85 55.3 41.2 55.65 L41.55 56.6 Q41.55 57.9 40.3 57.9 L35.85 57.9 31.6 57.9 13.5 57.9 13.5 145.5 2.45 145.5 2.45 39.95 -15.45 40.5 -15.45 38.0 Q-15.45 36.7 -15.1 35.55 L-10.3 35.55 Q-7.85 35.55 -6.1 33.9 -4.35 32.25 -4.35 29.9 L0.7 29.9 Q0.7 32.25 2.45 33.9 4.2 35.55 6.65 35.55 L13.2 35.55 13.5 38.0 13.5 45.7 13.5 46.8 13.5 47.95 13.5 51.1 13.5 53.35 13.5 55.3 31.6 55.3 35.85 55.3 M-15.45 57.9 L-36.7 57.9 -40.9 57.9 -44.5 57.9 Q-45.05 57.9 -45.4 57.55 L-45.75 56.6 -45.4 55.65 Q-45.0 55.3 -44.5 55.3 L-40.9 55.3 -36.7 55.3 -15.45 55.3 -15.45 57.9 M13.5 57.9 L13.5 55.3 13.5 57.9" fill="#000000" fill-opacity="0.54901963" fill-rule="evenodd" stroke="none"/>
    <path d="M-49.8 53.3 Q-51.25 53.0 -52.05 51.85 L-51.7 52.25 Q-50.9 53.05 -49.8 53.3 M-52.1 51.75 L-52.15 51.7 -52.2 51.65 -52.1 51.75" fill="#575757" fill-rule="evenodd" stroke="none"/>
    <path d="M105.55 -88.2 L105.55 -155.05 Q105.55 -158.35 107.6 -160.7 109.55 -163.0 112.35 -163.0 115.25 -163.0 117.2 -160.7 119.15 -158.35 119.15 -155.05 L119.15 -150.85 119.15 -89.7 120.4 -88.6 Q123.45 -85.6 123.45 -81.3 123.45 -77.05 120.4 -74.1 L119.15 -73.0 119.15 -17.65 120.4 -16.55 Q123.45 -13.6 123.45 -9.3 123.45 -5.05 120.4 -2.0 L119.15 -0.9 119.15 133.85 119.15 134.05 119.1 134.95 128.5 134.95 Q130.25 134.95 131.5 136.25 132.75 137.4 132.75 139.15 132.75 141.0 131.5 142.2 130.3 143.45 128.5 143.45 L97.05 143.45 Q95.3 143.45 94.1 142.2 92.85 140.95 92.85 139.15 92.85 137.4 94.1 136.25 95.3 134.95 97.05 134.95 L105.65 134.95 105.55 133.85 105.55 34.4 45.75 34.4 50.6 39.9 Q54.2 43.9 50.05 46.95 49.2 47.6 48.1 48.1 L48.35 49.55 Q48.35 50.85 47.6 51.9 L47.5 52.0 47.25 52.25 47.2 52.35 Q46.05 53.35 44.5 53.35 L35.85 53.35 35.85 55.3 40.3 55.3 Q40.85 55.3 41.2 55.65 L41.55 56.6 Q41.55 57.9 40.3 57.9 L35.85 57.9 35.85 62.25 Q35.85 63.15 35.25 63.8 34.6 64.45 33.75 64.45 32.85 64.45 32.2 63.8 31.6 63.15 31.6 62.25 L31.6 57.9 13.5 57.9 13.5 145.5 31.3 145.5 40.7 163.05 -41.75 163.05 -34.1 145.5 -15.45 145.5 -15.45 57.9 -36.7 57.9 -36.7 62.25 Q-36.7 63.15 -37.35 63.8 -37.9 64.45 -38.8 64.45 -39.7 64.45 -40.3 63.8 -40.9 63.15 -40.9 62.25 L-40.9 57.9 -44.5 57.9 Q-45.05 57.9 -45.4 57.55 L-45.75 56.6 -45.4 55.65 Q-45.0 55.3 -44.5 55.3 L-40.9 55.3 -40.9 53.35 -49.0 53.35 -49.1 53.35 -49.8 53.3 Q-50.9 53.05 -51.7 52.25 L-52.05 51.85 -52.1 51.75 -52.2 51.65 -52.5 51.1 -52.8 50.05 M-52.15 51.7 L-52.2 51.65 M-15.1 35.55 L-37.55 35.55 Q-40.0 35.55 -41.75 33.9 L-42.5 33.0 -42.95 32.2 Q-43.45 31.15 -43.45 30.0 L-43.45 29.9 Q-43.45 28.65 -42.9 27.6 L-41.75 26.0 Q-40.25 24.6 -38.3 24.4 L-37.55 24.35 33.9 24.35 Q36.35 24.35 38.1 26.0 39.85 27.65 39.85 29.9 L39.8 30.8 Q39.5 32.55 38.1 33.9 36.35 35.55 33.9 35.55 L13.2 35.55 6.65 35.55 Q4.2 35.55 2.45 33.9 0.7 32.25 0.7 29.9 L-4.35 29.9 Q-4.35 32.25 -6.1 33.9 -7.85 35.55 -10.3 35.55 L-15.1 35.55 M-47.55 34.4 L-53.0 40.3 Q-56.3 43.95 -53.4 46.75 M109.4 -90.95 Q111.15 -91.65 113.2 -91.65 L114.9 -91.5 Q117.25 -91.15 119.15 -89.7 M-27.0 -44.05 L-23.0 -67.3 Q-22.1 -72.7 -19.1 -76.35 -16.2 -79.9 -12.9 -79.9 L11.35 -79.85 Q14.65 -79.75 17.45 -76.25 20.3 -72.7 21.2 -67.35 L25.1 -44.05 105.55 -44.05 105.55 -74.45 Q102.9 -77.3 102.9 -81.3 102.9 -85.35 105.55 -88.2 L105.9 -88.6 107.25 -89.75 Q108.25 -90.5 109.4 -90.95 M28.55 19.1 Q29.6 16.85 30.4 13.7 33.0 3.4 30.8 -9.75 L26.25 -37.1 105.55 -37.1 105.55 -16.2 105.9 -16.55 107.25 -17.7 109.4 -18.85 Q111.15 -19.55 113.2 -19.55 L114.9 -19.4 Q117.25 -19.05 119.15 -17.65 M107.25 -72.9 L105.9 -74.1 105.55 -74.45 M109.4 -71.75 L107.25 -72.9 M109.4 -71.75 Q111.15 -71.05 113.2 -71.05 L114.9 -71.15 Q117.25 -71.55 119.15 -73.0 M107.25 -0.85 L105.9 -2.0 105.55 -2.35 105.55 2.4 85.2 19.1 28.55 19.1 28.3 19.6 28.5 19.65 M105.55 13.05 L105.55 19.1 96.9 19.1 105.55 13.05 M105.55 -2.35 Q102.9 -5.3 102.9 -9.3 102.9 -13.35 105.55 -16.2 M114.9 0.9 L113.2 1.0 109.4 0.35 Q108.25 -0.1 107.25 -0.85 M13.5 45.7 L13.5 46.8 M31.6 53.35 L31.6 55.3 13.5 55.3 13.5 57.9 M31.6 53.35 L13.5 53.35 13.5 55.3 M114.9 0.9 Q117.25 0.5 119.15 -0.9 M-120.0 -89.85 L-120.0 -155.05 Q-120.0 -158.35 -117.95 -160.7 -116.0 -163.0 -113.2 -163.0 -110.3 -163.0 -108.35 -160.7 -106.4 -158.35 -106.4 -155.05 L-106.4 -150.85 -106.4 -88.0 Q-103.95 -85.2 -103.95 -81.3 -103.95 -77.45 -106.4 -74.65 L-106.4 -44.05 -27.0 -44.05 M-28.2 -37.1 L-33.2 -8.35 Q-35.6 5.3 -32.9 15.65 L-31.85 19.1 -31.45 20.1 M-116.15 -91.45 L-114.15 -91.65 Q-112.25 -91.65 -110.6 -91.0 -108.6 -90.3 -106.95 -88.6 L-106.4 -88.0 M-120.0 -72.85 L-121.45 -74.1 Q-124.5 -77.05 -124.5 -81.3 -124.5 -85.6 -121.45 -88.6 L-120.0 -89.85 -118.25 -90.8 -116.15 -91.45 M-116.15 -71.2 L-118.25 -71.85 -120.0 -72.85 -120.0 -17.75 -118.25 -18.75 -116.15 -19.35 -114.15 -19.55 Q-112.25 -19.55 -110.6 -18.95 -108.6 -18.2 -106.95 -16.55 L-106.4 -15.95 -106.4 -37.1 -28.2 -37.1 M-116.15 -71.2 L-114.15 -71.05 Q-112.25 -71.05 -110.6 -71.65 -108.6 -72.4 -106.95 -74.1 L-106.4 -74.65 M-120.0 -0.75 L-121.45 -2.0 Q-124.5 -5.05 -124.5 -9.3 -124.5 -13.6 -121.45 -16.55 L-120.0 -17.75 M-106.4 -2.6 L-106.95 -2.0 Q-108.6 -0.35 -110.6 0.4 -112.25 1.0 -114.15 1.0 L-116.15 0.85 -118.25 0.2 -120.0 -0.75 -120.0 133.85 -119.9 134.95 -128.5 134.95 Q-130.25 134.95 -131.45 136.25 -132.7 137.4 -132.7 139.15 -132.7 140.95 -131.45 142.2 -130.25 143.45 -128.5 143.45 L-97.05 143.45 Q-95.25 143.45 -94.05 142.2 -92.75 141.0 -92.75 139.15 -92.75 137.4 -94.05 136.25 -95.3 134.95 -97.05 134.95 L-106.5 134.95 -106.4 134.05 -106.4 133.85 -106.4 34.4 -47.55 34.4 M-106.4 19.1 L-106.4 13.4 -98.25 19.1 -106.4 19.1 M-106.4 2.75 L-106.4 -2.6 Q-103.95 -5.45 -103.95 -9.3 -103.95 -13.2 -106.4 -15.95 M-15.45 47.95 L-15.45 46.8 M-15.45 53.35 L-15.45 55.3 -15.45 57.9 M-36.7 55.3 L-36.7 53.35 -15.45 53.35 M-15.45 55.3 L-36.7 55.3 M-106.4 2.75 L-86.4 19.1 -31.85 19.1" fill="none" stroke="#000000" stroke-linecap="round" stroke-linejoin="miter-clip" stroke-miterlimit="4.0" stroke-width="1.0"/>
    <path d="M-52.8 50.05 L-52.85 49.7 -52.85 49.55 Q-52.85 48.5 -52.35 47.65 L-51.7 46.8 Q-50.6 45.7 -49.0 45.7 L-15.45 45.7 -15.45 40.5 -15.45 38.0 Q-15.45 36.7 -15.1 35.55 M-43.45 30.0 L-47.55 34.4 M25.75 -40.2 L25.1 -44.05 M26.25 -37.1 L25.75 -40.2 M105.55 -40.2 L105.55 -44.05 M105.55 -37.1 L105.55 -40.2 M105.55 2.4 L105.55 13.05 M105.55 19.1 L105.55 27.6 105.55 34.4 M85.2 19.1 L96.9 19.1 M35.1 22.45 L39.7 27.6 45.75 34.4 M13.5 46.8 L13.5 47.95 13.5 51.1 13.5 53.35 M13.5 45.7 L44.5 45.7 Q46.1 45.7 47.25 46.8 L48.1 48.1 M-31.45 20.1 L-30.15 19.75 Q-25.45 18.7 -20.15 18.7 L19.25 18.7 26.4 19.25 28.3 19.6 M13.2 35.55 L13.5 38.0 13.5 45.7 M31.6 55.3 L35.85 55.3 M35.85 53.35 L31.6 53.35 M35.85 57.9 L31.6 57.9 M2.45 145.5 L13.5 145.5 M114.9 134.95 L119.1 134.95 M105.65 134.95 L114.9 134.95 M2.45 145.5 L-15.45 145.5 M-27.0 -44.05 L-27.7 -40.2 -28.2 -37.1 M-31.45 20.1 Q-35.15 21.1 -36.5 22.45 L-38.3 24.4 M-106.4 -37.1 L-106.4 -40.2 -106.4 -44.05 M-110.6 134.95 L-106.5 134.95 M-106.4 34.4 L-106.4 27.6 -106.4 19.1 M-106.4 13.4 L-106.4 2.75 M-15.45 46.8 L-15.45 45.7 M-15.45 47.95 L-15.45 51.1 -15.45 53.35 M-36.7 53.35 L-40.9 53.35 M-36.7 55.3 L-40.9 55.3 M-36.7 57.9 L-40.9 57.9 M-86.4 19.1 L-98.25 19.1 M-119.9 134.95 L-110.6 134.95" fill="none" stroke="#000000" stroke-linecap="round" stroke-linejoin="miter-clip" stroke-miterlimit="4.0" stroke-opacity="0.6" stroke-width="1.0"/>
    <path d="M114.9 -88.15 Q116.7 -87.7 118.1 -86.3 L119.15 -85.0 Q120.15 -83.4 120.2 -81.4 120.2 -79.3 119.15 -77.6 L118.2 -76.4 Q116.7 -75.0 114.9 -74.5 L113.2 -74.3 Q111.1 -74.3 109.4 -75.4 108.75 -75.8 108.2 -76.35 L107.25 -77.55 Q106.2 -79.25 106.2 -81.3 106.15 -83.45 107.25 -85.15 L108.2 -86.3 109.4 -87.25 Q111.05 -88.35 113.1 -88.35 L114.9 -88.15 M119.15 -13.0 Q120.15 -11.35 120.2 -9.3 120.2 -7.25 119.15 -5.55 L118.2 -4.35 Q116.7 -2.95 114.9 -2.5 L113.2 -2.3 Q111.1 -2.25 109.4 -3.3 108.75 -3.7 108.2 -4.25 L107.25 -5.45 Q106.2 -7.15 106.2 -9.25 106.15 -11.35 107.25 -13.05 L108.2 -14.25 109.4 -15.2 Q111.05 -16.3 113.1 -16.35 L114.9 -16.1 Q116.7 -15.7 118.1 -14.3 L119.15 -13.0 M-114.25 -88.35 Q-112.25 -88.4 -110.6 -87.35 L-109.25 -86.3 Q-107.2 -84.25 -107.15 -81.4 -107.15 -78.5 -109.2 -76.4 L-110.6 -75.3 Q-112.2 -74.35 -114.15 -74.3 L-116.15 -74.55 Q-117.25 -74.9 -118.25 -75.6 L-119.15 -76.35 -120.0 -77.35 Q-121.2 -79.1 -121.2 -81.3 -121.25 -83.55 -120.0 -85.3 L-119.15 -86.3 -118.25 -87.05 Q-117.3 -87.8 -116.15 -88.1 L-114.25 -88.35 M-109.25 -14.3 Q-107.2 -12.25 -107.15 -9.3 -107.15 -6.45 -109.2 -4.35 L-110.6 -3.25 Q-112.2 -2.3 -114.15 -2.3 L-116.15 -2.5 Q-117.25 -2.85 -118.25 -3.5 L-119.15 -4.25 -120.0 -5.25 Q-121.2 -7.05 -121.2 -9.25 -121.25 -11.45 -120.0 -13.2 L-119.15 -14.25 -118.25 -15.0 Q-117.3 -15.7 -116.15 -16.05 L-114.25 -16.35 Q-112.25 -16.35 -110.6 -15.35 L-109.25 -14.3" fill="none" stroke="#000000" stroke-linecap="round" stroke-linejoin="miter-clip" stroke-miterlimit="4.0" stroke-opacity="0.4" stroke-width="1.0"/>
  </g>
</svg>
