<?xml version="1.0" encoding="UTF-8" standalone="no"?>
<svg xmlns:xlink="http://www.w3.org/1999/xlink" height="28.9px" width="94.35px" xmlns="http://www.w3.org/2000/svg">
  <g transform="matrix(1.0, 0.0, 0.0, 1.0, 44.75, 16.55)">
    <path d="M47.1 -6.9 L47.0 -6.6 46.9 -6.2 46.8 -6.05 47.1 -6.9 M41.15 4.95 L41.0 5.2 40.5 5.85 41.15 4.95 M-44.25 -14.45 L-44.25 -15.35 -43.9 -14.7 -44.25 -14.45" fill="#969696" fill-rule="evenodd" stroke="none"/>
    <path d="M41.3 4.6 L41.35 4.6 41.15 4.95 41.3 4.6" fill="#828282" fill-rule="evenodd" stroke="none"/>
    <path d="M49.1 -15.9 L48.1 -10.6 47.1 -7.0 49.1 -15.9" fill="#dbdbdb" fill-rule="evenodd" stroke="none"/>
    <path d="M42.6 2.15 L41.3 4.6 Q-19.15 5.8 -30.65 5.4 -38.2 5.15 -41.85 -4.8 L-43.9 -14.7 -41.9 -13.1 45.8 -13.1 44.9 -8.35 Q43.45 -2.55 40.95 3.0 L42.6 2.15" fill="#ffffff" fill-opacity="0.0" fill-rule="evenodd" stroke="none"/>
    <path d="M-9.45 -16.05 L49.1 -16.05 49.1 -15.9 47.1 -7.0 47.1 -6.9 46.8 -6.05 Q45.3 -1.9 43.1 1.85 L42.6 2.15 46.8 -6.05 42.6 2.15 40.95 3.0 Q43.45 -2.55 44.9 -8.35 L45.8 -13.1 -41.9 -13.1 -43.9 -14.7 -44.25 -15.35 -44.25 -16.05 -28.25 -16.05 -9.45 -16.05" fill="#ffffff" fill-opacity="0.34901962" fill-rule="evenodd" stroke="none"/>
    <path d="M37.0 10.05 L35.15 11.85 9.45 11.85 3.0 11.85 -17.35 11.85 -44.25 11.85 -44.25 -14.45 -43.9 -14.7 -41.85 -4.8 Q-38.2 5.15 -30.65 5.4 -19.15 5.8 41.3 4.6 L41.15 4.95 40.5 5.85 37.0 10.05" fill="#000000" fill-opacity="0.3019608" fill-rule="evenodd" stroke="none"/>
    <path d="M-9.45 -16.05 L49.1 -16.05 49.1 -15.9 47.1 -7.0 47.1 -6.9 47.0 -6.6 46.9 -6.2 46.8 -6.05 42.6 2.15 41.3 4.6 41.15 4.95 41.0 5.2 Q39.2 7.75 37.0 10.05 L35.15 11.85 9.45 11.85 3.0 11.85 M-17.35 11.85 L-44.25 11.85 -44.25 -14.45 -44.25 -15.35 -44.25 -16.05 -28.25 -16.05 M40.5 5.85 L41.0 5.2" fill="none" stroke="#000000" stroke-linecap="round" stroke-linejoin="miter-clip" stroke-miterlimit="4.0" stroke-width="1.0"/>
    <path d="M3.0 11.85 L-17.35 11.85 M-28.25 -16.05 L-9.45 -16.05 Z" fill="none" stroke="#000000" stroke-linecap="round" stroke-linejoin="miter-clip" stroke-miterlimit="4.0" stroke-opacity="0.6" stroke-width="1.0"/>
  </g>
</svg>
