<?xml version="1.0" encoding="UTF-8" standalone="no"?>
<svg xmlns:xlink="http://www.w3.org/1999/xlink" height="46.95px" width="90.65px" xmlns="http://www.w3.org/2000/svg">
  <g transform="matrix(1.0, 0.0, 0.0, 1.0, 45.3, 24.35)">
    <path d="M44.65 -11.85 L44.8 -14.05 44.5 -14.65 Q43.5 -16.6 42.3 -17.05 41.1 -17.5 40.5 -16.3 24.65 21.95 -9.4 14.65 -26.45 10.95 -40.65 -0.6 -41.85 -1.65 -42.75 -0.75 -43.6 -0.05 -43.5 1.95 L-43.8 1.35 Q-44.65 -0.9 -44.8 -2.95 -44.95 -5.05 -44.1 -5.75 L-42.0 -5.65 Q-27.8 6.1 -10.75 9.65 23.2 16.9 39.2 -21.2 39.6 -22.5 40.8 -22.05 42.15 -21.65 43.2 -19.7 44.2 -17.75 44.65 -15.4 45.1 -13.05 44.65 -11.85" fill="#ffffff" fill-opacity="0.0" fill-rule="evenodd" stroke="none"/>
    <path d="M-43.5 1.95 Q-43.6 -0.05 -42.75 -0.75 -41.85 -1.65 -40.65 -0.6 -26.45 10.95 -9.4 14.65 24.65 21.95 40.5 -16.3 41.1 -17.5 42.3 -17.05 43.5 -16.6 44.5 -14.65 L44.8 -14.05 44.65 -11.85 Q34.0 13.65 15.35 20.0 -1.45 25.75 -23.0 15.9 -33.8 10.95 -41.55 4.6 -42.7 3.7 -43.5 1.95" fill="#000000" fill-opacity="0.4" fill-rule="evenodd" stroke="none"/>
    <path d="M-41.55 4.6 Q-33.8 10.95 -23.0 15.9 -1.45 25.75 15.35 20.0 34.0 13.65 44.65 -11.85 45.1 -13.05 44.65 -15.4 44.2 -17.75 43.2 -19.7 42.15 -21.65 40.8 -22.05 39.6 -22.5 39.2 -21.2 23.2 16.9 -10.75 9.65 -27.8 6.1 -42.0 -5.65 L-44.1 -5.75 Q-44.95 -5.05 -44.8 -2.95 -44.65 -0.9 -43.8 1.35 L-43.5 1.95" fill="none" stroke="#000000" stroke-linecap="round" stroke-linejoin="miter-clip" stroke-miterlimit="10.0" stroke-width="1.0"/>
    <path d="M-43.5 1.95 Q-42.7 3.7 -41.55 4.6 Z" fill="none" stroke="#000000" stroke-linecap="round" stroke-linejoin="round" stroke-width="1.0"/>
  </g>
</svg>
