<?xml version="1.0" encoding="UTF-8" standalone="no"?>
<svg xmlns:xlink="http://www.w3.org/1999/xlink" height="27.5px" width="26.25px" xmlns="http://www.w3.org/2000/svg">
  <g transform="matrix(1.0, 0.0, 0.0, 1.0, 13.1, 13.7)">
    <path d="M-12.4 -13.2 L-5.45 -12.15 Q1.5 -10.7 1.7 -8.6 2.1 -5.15 -0.2 9.8 L3.9 9.5 4.1 9.0 2.5 13.25 -1.35 12.9 -12.4 -13.2" fill="#ffffff" fill-opacity="0.0" fill-rule="evenodd" stroke="none"/>
    <path d="M4.1 9.0 L3.9 9.5 -0.2 9.8 Q2.1 -5.15 1.7 -8.6 1.5 -10.7 -5.45 -12.15 L-12.4 -13.2 12.45 -13.2 4.1 9.0" fill="#000000" fill-opacity="0.34901962" fill-rule="evenodd" stroke="none"/>
    <path d="M4.1 9.0 L12.45 -13.2 -12.4 -13.2 -1.35 12.9 2.5 13.25 4.1 9.0 Z" fill="none" stroke="#000000" stroke-linecap="round" stroke-linejoin="miter-clip" stroke-miterlimit="4.0" stroke-width="1.0"/>
  </g>
</svg>
