<?xml version="1.0" encoding="UTF-8" standalone="no"?>
<svg xmlns:xlink="http://www.w3.org/1999/xlink" height="60.1px" width="60.2px" xmlns="http://www.w3.org/2000/svg">
  <g transform="matrix(1.0, 0.0, 0.0, 1.0, 30.1, 30.05)">
    <path d="M17.65 -17.7 Q10.3 -25.05 0.0 -25.05 -10.3 -25.05 -17.65 -17.7 -25.0 -10.35 -25.0 0.05 -25.0 10.45 -17.65 17.7 -10.3 25.05 0.0 25.05 10.4 25.05 17.65 17.7 25.0 10.45 25.0 0.05 25.0 -10.35 17.65 -17.7 M20.9 -20.85 Q29.6 -12.25 29.6 0.05 29.6 12.25 20.9 20.95 12.2 29.55 0.0 29.55 -12.3 29.55 -20.9 20.95 -29.6 12.25 -29.6 0.05 -29.6 -12.25 -20.9 -20.85 -12.3 -29.55 0.0 -29.55 12.2 -29.55 20.9 -20.85" fill="#ffffff" fill-opacity="0.0" fill-rule="evenodd" stroke="none"/>
    <path d="M20.9 -20.85 Q29.6 -12.25 29.6 0.05 29.6 12.25 20.9 20.95 12.2 29.55 0.0 29.55 -12.3 29.55 -20.9 20.95 -29.6 12.25 -29.6 0.05 -29.6 -12.25 -20.9 -20.85 -12.3 -29.55 0.0 -29.55 12.2 -29.55 20.9 -20.85 Z" fill="none" stroke="#000000" stroke-linecap="round" stroke-linejoin="miter-clip" stroke-miterlimit="10.0" stroke-width="1.0"/>
  </g>
</svg>
