<?xml version="1.0" encoding="UTF-8" standalone="no"?>
<svg xmlns:xlink="http://www.w3.org/1999/xlink" height="106.9px" width="943.75px" xmlns="http://www.w3.org/2000/svg">
  <g transform="matrix(1.0, 0.0, 0.0, 1.0, 471.85, 53.35)">
    <path d="M470.8 -44.0 L-467.05 -44.0 -467.05 -48.9 470.8 -48.9 470.8 -44.0" fill="#ffffff" fill-opacity="0.3019608" fill-rule="evenodd" stroke="none"/>
    <path d="M148.95 -31.25 L160.45 -31.25 148.95 -31.25 -114.35 -31.25 -125.85 -31.25 -114.35 -31.25 -114.35 39.45 -89.2 52.9 -149.65 52.9 -125.85 38.35 -125.85 -31.25 -413.75 -31.25 -425.35 -31.25 -413.75 -31.25 -413.75 39.45 -388.7 52.9 -449.15 52.9 -425.35 38.35 -425.35 -31.25 -471.35 -31.25 -471.35 -52.85 471.4 -52.85 471.4 -31.25 422.05 -31.25 410.55 -31.25 422.05 -31.25 422.05 39.45 447.1 52.9 386.65 52.9 410.55 38.35 410.55 -31.25 160.45 -31.25 160.45 39.45 185.5 52.9 125.0 52.9 148.95 38.35 148.95 -31.25 M470.8 -44.0 L470.8 -48.9 -467.05 -48.9 -467.05 -44.0 470.8 -44.0" fill="#ffffff" fill-opacity="0.0" fill-rule="evenodd" stroke="none"/>
    <path d="M160.45 -31.25 L148.95 -31.25 M410.55 -31.25 L422.05 -31.25 M-425.35 -31.25 L-413.75 -31.25 M-125.85 -31.25 L-114.35 -31.25" fill="none" stroke="#000000" stroke-linecap="butt" stroke-linejoin="miter-clip" stroke-miterlimit="4.0" stroke-opacity="0.6" stroke-width="1.0"/>
    <path d="M148.95 -31.25 L148.95 38.35 125.0 52.9 185.5 52.9 160.45 39.45 160.45 -31.25 410.55 -31.25 410.55 38.35 386.65 52.9 447.1 52.9 422.05 39.45 422.05 -31.25 471.4 -31.25 471.4 -52.85 -471.35 -52.85 -471.35 -31.25 -425.35 -31.25 -425.35 38.35 -449.15 52.9 -388.7 52.9 -413.75 39.45 -413.75 -31.25 -125.85 -31.25 -125.85 38.35 -149.65 52.9 -89.2 52.9 -114.35 39.45 -114.35 -31.25 148.95 -31.25" fill="none" stroke="#000000" stroke-linecap="butt" stroke-linejoin="miter-clip" stroke-miterlimit="4.0" stroke-width="1.0"/>
  </g>
</svg>
