<?xml version="1.0" encoding="UTF-8" standalone="no"?>
<svg xmlns:xlink="http://www.w3.org/1999/xlink" height="295.2px" width="42.55px" xmlns="http://www.w3.org/2000/svg">
  <g transform="matrix(1.0, 0.0, 0.0, 1.0, 21.3, 147.45)">
    <path d="M-20.8 -146.95 L-8.85 -146.95 Q2.95 -59.0 8.55 -5.6 11.75 25.9 15.45 75.65 19.75 133.65 20.75 145.15 18.1 147.55 14.15 146.85 12.15 146.5 10.7 145.65 10.2 134.6 5.95 85.7 1.2 30.7 -2.5 -3.05 -8.05 -53.0 -20.8 -146.95" fill="#ffffff" fill-opacity="0.0" fill-rule="evenodd" stroke="none"/>
    <path d="M-20.8 -146.95 Q-8.05 -53.0 -2.5 -3.05 1.2 30.7 5.95 85.7 10.2 134.6 10.7 145.65" fill="none" stroke="#302e2f" stroke-linecap="butt" stroke-linejoin="miter-clip" stroke-miterlimit="4.0" stroke-opacity="0.6" stroke-width="1.0"/>
    <path d="M10.7 145.65 Q12.15 146.5 14.15 146.85 18.1 147.55 20.75 145.15 19.75 133.65 15.45 75.65 11.75 25.9 8.55 -5.6 2.95 -59.0 -8.85 -146.95" fill="none" stroke="#302e2f" stroke-linecap="butt" stroke-linejoin="miter-clip" stroke-miterlimit="4.0" stroke-opacity="0.4" stroke-width="1.0"/>
  </g>
</svg>
