<?xml version="1.0" encoding="UTF-8" standalone="no"?>
<svg xmlns:xlink="http://www.w3.org/1999/xlink" height="43.8px" width="51.8px" xmlns="http://www.w3.org/2000/svg">
  <g transform="matrix(1.0, 0.0, 0.0, 1.0, 9.95, -12.85)">
    <path d="M25.1 31.25 Q27.5 27.6 31.55 24.4 35.0 21.6 37.9 20.35 39.85 23.8 40.75 28.4 41.35 31.55 41.35 34.25 L40.95 36.9 Q40.15 40.05 38.45 42.95 33.0 52.25 20.1 55.85 L19.25 48.55 20.1 55.85 17.45 56.05 14.5 56.15 Q3.05 56.15 -4.4 48.6 -10.9 42.05 -9.05 27.85 -6.55 28.35 -0.35 30.3 5.6 32.2 7.4 33.0 6.95 29.75 8.2 24.5 9.7 18.15 13.0 13.4 18.15 16.6 21.9 23.0 25.0 28.25 25.1 31.25 23.25 33.15 21.2 39.1 19.3 44.55 19.25 48.55 19.3 44.55 21.2 39.1 23.25 33.15 25.1 31.25 M7.4 33.0 Q10.35 34.35 12.05 35.5 14.4 37.1 15.95 39.3 18.75 43.25 19.25 48.55 18.75 43.25 15.95 39.3 14.4 37.1 12.05 35.5 10.35 34.35 7.4 33.0" fill="#ffffff" fill-opacity="0.0" fill-rule="evenodd" stroke="none"/>
    <path d="M20.1 55.85 Q33.0 52.25 38.45 42.95 40.15 40.05 40.95 36.9 L41.35 34.25 Q41.35 31.55 40.75 28.4 39.85 23.8 37.9 20.35 35.0 21.6 31.55 24.4 27.5 27.6 25.1 31.25" fill="none" stroke="#302e2f" stroke-linecap="round" stroke-linejoin="miter-clip" stroke-miterlimit="4.0" stroke-opacity="0.4" stroke-width="1.0"/>
    <path d="M25.1 31.25 Q23.25 33.15 21.2 39.1 19.3 44.55 19.25 48.55 L20.1 55.85 M7.4 33.0 Q6.95 29.75 8.2 24.5 9.7 18.15 13.0 13.4 18.15 16.6 21.9 23.0 25.0 28.25 25.1 31.25 M19.25 48.55 Q18.75 43.25 15.95 39.3 14.4 37.1 12.05 35.5 10.35 34.35 7.4 33.0" fill="none" stroke="#302e2f" stroke-linecap="round" stroke-linejoin="miter-clip" stroke-miterlimit="4.0" stroke-opacity="0.2" stroke-width="1.0"/>
    <path d="M20.1 55.85 L17.45 56.05 14.5 56.15 Q3.05 56.15 -4.4 48.6 -10.9 42.05 -9.05 27.85" fill="none" stroke="#302e2f" stroke-linecap="round" stroke-linejoin="miter-clip" stroke-miterlimit="4.0" stroke-opacity="0.6" stroke-width="1.0"/>
    <path d="M-9.05 27.85 Q-6.55 28.35 -0.35 30.3 5.6 32.2 7.4 33.0" fill="none" stroke="#302e2f" stroke-linecap="butt" stroke-linejoin="miter-clip" stroke-miterlimit="4.0" stroke-opacity="0.2" stroke-width="1.0"/>
  </g>
</svg>
