<?xml version="1.0" encoding="UTF-8" standalone="no"?>
<svg xmlns:xlink="http://www.w3.org/1999/xlink" height="114.75px" width="65.1px" xmlns="http://www.w3.org/2000/svg">
  <g transform="matrix(1.0, 0.0, 0.0, 1.0, 32.55, 321.05)">
    <path d="M0.8 -318.95 L0.55 -319.3 Q3.9 -314.0 7.25 -305.95 12.4 -293.6 17.6 -274.8 22.0 -258.8 24.65 -245.5 9.2 -237.15 3.45 -221.15 2.0 -217.1 1.35 -213.5 0.75 -210.35 0.8 -207.5 -0.9 -207.5 -2.35 -206.8 L-8.7 -214.1 Q-9.35 -219.45 -12.6 -225.9 -19.1 -238.9 -32.0 -244.6 -29.35 -255.65 -24.0 -270.65 -16.9 -290.6 -8.6 -305.95 -4.45 -313.65 0.0 -320.15 L0.8 -318.95" fill="#ffffff" fill-opacity="0.0" fill-rule="evenodd" stroke="none"/>
    <path d="M0.8 -207.5 Q0.75 -210.35 1.35 -213.5 2.0 -217.1 3.45 -221.15 9.2 -237.15 24.65 -245.5 22.0 -258.8 17.6 -274.8 12.4 -293.6 7.25 -305.95 3.9 -314.0 0.55 -319.3 L0.8 -318.95 1.05 -318.55 1.2 -318.3 1.5 -317.85 10.5 -302.35 10.65 -302.05 Q17.75 -288.15 24.0 -270.65 29.35 -255.65 32.0 -244.6 19.05 -238.9 12.55 -225.9 9.3 -219.45 8.65 -214.1 L2.75 -207.3 2.55 -207.3 2.35 -207.35 1.55 -207.45 1.0 -207.5 0.9 -207.5 0.8 -207.5" fill="#ffffff" fill-opacity="0.2509804" fill-rule="evenodd" stroke="none"/>
    <path d="M2.55 -207.3 L2.75 -207.3 3.2 -207.15 2.55 -207.3" fill="#8d8f93" fill-rule="evenodd" stroke="none"/>
    <path d="M1.55 -207.45 L2.35 -207.35 2.1 -207.4 1.55 -207.45" fill="#b5b7ba" fill-rule="evenodd" stroke="none"/>
    <path d="M1.55 -207.45 L2.35 -207.35 M2.55 -207.3 L2.75 -207.3 8.65 -214.1 Q9.3 -219.45 12.55 -225.9 19.05 -238.9 32.0 -244.6 29.35 -255.65 24.0 -270.65 17.75 -288.15 10.65 -302.05 L10.5 -302.35 1.5 -317.85 1.2 -318.3 M1.05 -318.55 L0.8 -318.95 0.0 -320.15 Q-4.45 -313.65 -8.6 -305.95 -16.9 -290.6 -24.0 -270.65 -29.35 -255.65 -32.0 -244.6 -19.1 -238.9 -12.6 -225.9 -9.35 -219.45 -8.7 -214.1 L-2.35 -206.8 M3.2 -207.15 L2.75 -207.3" fill="none" stroke="#000000" stroke-linecap="round" stroke-linejoin="miter-clip" stroke-miterlimit="4.0" stroke-width="1.0"/>
  </g>
</svg>
