<?xml version="1.0" encoding="UTF-8" standalone="no"?>
<svg xmlns:xlink="http://www.w3.org/1999/xlink" height="212.5px" width="115.05px" xmlns="http://www.w3.org/2000/svg">
  <g transform="matrix(1.0, 0.0, 0.0, 1.0, 0.5, 0.5)">
    <path d="M55.9 31.2 Q48.15 31.2 42.65 26.9 37.15 22.6 37.15 16.55 37.15 10.5 42.65 6.2 48.15 1.9 55.9 1.9 63.65 1.9 69.15 6.2 74.65 10.5 74.65 16.55 74.65 22.6 69.15 26.9 63.65 31.2 55.9 31.2 M28.8 65.75 Q33.75 64.65 40.7 64.65 L42.35 64.7 42.35 64.65 58.75 64.85 58.9 64.85 Q61.2 64.85 62.85 65.9 64.5 66.95 64.5 68.4 64.5 69.85 62.85 70.9 61.2 71.95 58.9 71.95 L40.7 72.35 Q33.75 72.35 28.8 71.2 23.9 70.1 23.9 68.5 23.9 66.9 28.8 65.75 M38.4 74.7 L45.75 74.9 45.8 93.6 Q45.85 114.75 46.05 127.0 46.25 139.25 48.5 152.6 49.65 159.25 50.75 163.45 L43.65 163.45 Q35.55 163.45 30.7 163.6 L15.55 164.45 Q15.3 162.45 15.35 161.75 15.4 160.25 16.2 159.2 L17.85 157.25 20.25 155.35 26.7 142.6 Q33.35 129.15 34.4 125.2 L38.2 111.0 Q40.75 100.6 40.75 95.6 40.75 90.7 39.6 82.2 L38.4 74.7 M5.1 180.55 Q5.55 176.8 7.85 174.05 9.95 171.45 12.8 170.6 L40.1 169.55 Q64.5 169.3 67.35 169.85 69.9 170.35 71.7 183.25 73.45 196.15 71.3 196.35 68.45 196.6 38.85 196.75 8.25 196.85 6.35 196.35 4.55 195.85 4.55 189.0 4.6 185.05 5.1 180.55" fill="#ffffff" fill-opacity="0.2" fill-rule="evenodd" stroke="none"/>
    <path d="M74.6 57.1 L74.7 57.1 75.05 57.1 76.15 57.25 80.85 57.85 Q90.1 59.25 90.1 60.3 90.1 61.55 87.65 62.3 L84.35 63.15 84.45 63.15 Q94.55 65.65 94.55 69.2 94.55 70.8 91.75 71.7 L87.0 72.9 83.55 73.75 78.05 74.65 78.05 74.75 76.75 81.55 75.9 87.75 75.8 88.75 75.95 90.2 75.95 90.6 Q78.85 115.0 87.65 135.5 L91.45 143.65 Q94.4 149.3 97.05 152.9 L99.75 155.1 Q102.55 157.6 102.55 159.8 L102.55 166.45 103.1 166.85 Q114.05 173.4 114.05 182.25 114.05 185.35 113.45 190.4 112.7 196.6 111.7 197.95 L111.6 198.1 111.6 211.5 2.35 211.5 2.35 198.1 2.25 197.95 Q1.35 196.6 0.6 190.4 0.0 185.25 0.0 182.25 0.0 173.4 10.9 166.75 L11.4 166.45 11.4 159.8 Q11.5 157.6 14.2 155.1 L16.9 152.9 Q21.4 147.0 26.3 135.5 L28.0 131.45 31.5 121.55 35.7 108.95 38.5 99.1 38.65 98.25 Q38.65 93.65 38.25 88.85 L37.2 81.55 35.9 74.75 35.9 74.65 30.4 73.75 26.45 72.8 22.2 71.7 Q19.4 70.8 19.4 69.2 19.4 65.65 29.5 63.2 L29.65 63.15 26.3 62.3 Q23.95 61.55 23.95 60.3 L24.1 60.05 Q24.35 59.7 25.2 59.45 30.6 56.9 37.75 56.9 L38.05 56.9 39.65 57.0 39.75 57.0 40.5 57.0 40.4 56.9 40.25 56.85 Q37.8 55.15 35.6 52.95 L35.45 52.8 Q27.55 44.75 26.7 33.8 L26.55 31.05 Q26.55 18.15 35.6 9.1 44.7 0.0 57.55 0.0 70.4 0.0 79.5 9.1 88.6 18.15 88.6 31.05 L88.5 33.8 Q87.55 44.9 79.5 52.95 L78.05 54.3 74.6 57.1 M47.75 56.45 L55.8 56.25 69.1 56.65 69.2 56.6 Q75.75 53.7 79.95 47.25 85.7 38.4 83.5 28.1 L82.35 24.15 Q82.95 33.25 77.7 41.35 73.05 48.5 65.75 51.85 62.8 53.15 59.45 53.85 L59.2 53.9 Q52.95 55.2 47.15 53.9 43.8 53.15 40.65 51.55 L43.5 53.9 44.75 54.75 47.75 56.45 M28.8 65.75 Q23.9 66.9 23.9 68.5 23.9 70.1 28.8 71.2 33.75 72.35 40.7 72.35 L58.9 71.95 Q61.2 71.95 62.85 70.9 64.5 69.85 64.5 68.4 64.5 66.95 62.85 65.9 61.2 64.85 58.9 64.85 L58.75 64.85 42.35 64.65 42.35 64.7 40.7 64.65 Q33.75 64.65 28.8 65.75 M55.9 31.2 Q63.65 31.2 69.15 26.9 74.65 22.6 74.65 16.55 74.65 10.5 69.15 6.2 63.65 1.9 55.9 1.9 48.15 1.9 42.65 6.2 37.15 10.5 37.15 16.55 37.15 22.6 42.65 26.9 48.15 31.2 55.9 31.2 M27.85 60.65 Q27.85 61.65 33.85 62.35 L45.85 63.1 57.2 63.1 57.2 62.9 57.3 62.9 Q59.1 62.9 60.35 62.15 61.65 61.45 61.65 60.45 61.65 59.45 60.35 58.7 59.1 58.0 57.3 58.0 L57.2 58.0 45.85 58.25 33.85 58.9 Q27.85 59.65 27.85 60.65 M38.4 74.7 L39.6 82.2 Q40.75 90.7 40.75 95.6 40.75 100.6 38.2 111.0 L34.4 125.2 Q33.35 129.15 26.7 142.6 L20.25 155.35 17.85 157.25 16.2 159.2 Q15.4 160.25 15.35 161.75 15.3 162.45 15.55 164.45 L30.7 163.6 Q35.55 163.45 43.65 163.45 L50.75 163.45 Q49.65 159.25 48.5 152.6 46.25 139.25 46.05 127.0 45.85 114.75 45.8 93.6 L45.75 74.9 38.4 74.7 M5.1 180.55 Q4.6 185.05 4.55 189.0 4.55 195.85 6.35 196.35 8.25 196.85 38.85 196.75 68.45 196.6 71.3 196.35 73.45 196.15 71.7 183.25 69.9 170.35 67.35 169.85 64.5 169.3 40.1 169.55 L12.8 170.6 Q9.95 171.45 7.85 174.05 5.55 176.8 5.1 180.55 M80.75 203.75 Q81.0 201.15 80.35 200.1 L6.75 200.1 6.65 203.85 Q6.85 208.1 8.25 208.15 L79.85 208.15 Q80.5 206.0 80.75 203.75" fill="#000000" fill-opacity="0.2" fill-rule="evenodd" stroke="none"/>
    <path d="M47.75 56.45 L44.75 54.75 43.5 53.9 40.65 51.55 Q43.8 53.15 47.15 53.9 52.95 55.2 59.2 53.9 L59.45 53.85 Q62.8 53.15 65.75 51.85 73.05 48.5 77.7 41.35 82.95 33.25 82.35 24.15 L83.5 28.1 Q85.7 38.4 79.95 47.25 75.75 53.7 69.2 56.6 L69.1 56.65 55.8 56.25 47.75 56.45 M27.85 60.65 Q27.85 59.65 33.85 58.9 L45.85 58.25 57.2 58.0 57.3 58.0 Q59.1 58.0 60.35 58.7 61.65 59.45 61.65 60.45 61.65 61.45 60.35 62.15 59.1 62.9 57.3 62.9 L57.2 62.9 57.2 63.1 45.85 63.1 33.85 62.35 Q27.85 61.65 27.85 60.65 M80.75 203.75 Q80.5 206.0 79.85 208.15 L8.25 208.15 Q6.85 208.1 6.65 203.85 L6.75 200.1 80.35 200.1 Q81.0 201.15 80.75 203.75" fill="#ffffff" fill-opacity="0.09803922" fill-rule="evenodd" stroke="none"/>
    <path d="M74.6 57.1 L78.05 54.3 79.5 52.95 Q87.55 44.9 88.5 33.8 L88.6 31.05 Q88.6 18.15 79.5 9.1 70.4 0.0 57.55 0.0 44.7 0.0 35.6 9.1 26.55 18.15 26.55 31.05 L26.7 33.8 Q27.55 44.75 35.45 52.8 L35.6 52.95 Q37.8 55.15 40.25 56.85 L40.4 56.9 40.5 57.0 39.75 57.0 39.65 57.0 38.05 56.9 37.75 56.9 Q30.6 56.9 25.2 59.45 24.35 59.7 24.1 60.05 L23.95 60.3 Q23.95 61.55 26.3 62.3 L29.65 63.15 29.5 63.2 Q19.4 65.65 19.4 69.2 19.4 70.8 22.2 71.7 L26.45 72.8 30.4 73.75 35.9 74.65 35.9 74.75 37.2 81.55 38.25 88.85 Q38.65 93.65 38.65 98.25 L38.5 99.1 35.7 108.95 31.5 121.55 28.0 131.45 26.3 135.5 Q21.4 147.0 16.9 152.9 L14.2 155.1 Q11.5 157.6 11.4 159.8 L11.4 166.45 10.9 166.75 Q0.0 173.4 0.0 182.25 0.0 185.25 0.6 190.4 1.35 196.6 2.25 197.95 L2.35 198.1 2.35 211.5 111.6 211.5 111.6 198.1 111.7 197.95 Q112.7 196.6 113.45 190.4 114.05 185.35 114.05 182.25 114.05 173.4 103.1 166.85 L102.55 166.45 102.55 159.8 Q102.55 157.6 99.75 155.1 L97.05 152.9 Q94.4 149.3 91.45 143.65 L87.65 135.5 Q78.85 115.0 75.95 90.6 L75.95 90.2 75.8 88.75 75.9 87.75 76.75 81.55 78.05 74.75 78.05 74.65 83.55 73.75 87.0 72.9 91.75 71.7 Q94.55 70.8 94.55 69.2 94.55 65.65 84.45 63.15 L84.35 63.15 87.65 62.3 Q90.1 61.55 90.1 60.3 90.1 59.25 80.85 57.85 L76.15 57.25 75.05 57.1 74.7 57.1 74.6 57.1 Z" fill="none" stroke="#000000" stroke-linecap="round" stroke-linejoin="round" stroke-width="1.0"/>
  </g>
</svg>
