<?xml version="1.0" encoding="UTF-8" standalone="no"?>
<svg xmlns:xlink="http://www.w3.org/1999/xlink" height="241.4px" width="81.65px" xmlns="http://www.w3.org/2000/svg">
  <g transform="matrix(1.0, 0.0, 0.0, 1.0, 42.35, 116.1)">
    <path d="M1.15 -79.45 L0.95 -79.45 Q-4.95 -79.5 -7.55 -80.5 -9.2 -81.1 -9.85 -86.55 L-10.15 -90.95 -11.6 -91.65 Q-15.25 -93.75 -14.45 -97.1 -13.45 -104.05 -12.05 -107.85 -9.55 -114.75 -3.45 -115.4 4.1 -116.2 7.75 -113.9 11.75 -111.45 13.05 -104.4 15.4 -93.9 12.75 -91.9 L12.4 -91.6 11.35 -91.0 10.3 -90.5 9.15 -90.05 9.3 -87.0 Q9.3 -82.85 8.45 -81.2 7.55 -79.45 1.25 -79.45 L1.4 -76.0 Q-0.9 -73.9 -4.05 -76.1 L-3.95 -79.65 1.15 -79.45 1.25 -79.45 1.15 -79.45 M6.8 -102.1 Q5.25 -102.1 4.15 -101.05 3.05 -100.05 3.05 -98.6 3.05 -97.15 4.15 -96.1 5.25 -95.1 6.8 -95.1 8.35 -95.1 9.45 -96.1 10.55 -97.15 10.55 -98.6 10.55 -100.05 9.45 -101.05 8.35 -102.1 6.8 -102.1 M-10.15 -90.95 Q-9.0 -90.45 -7.75 -90.25 -5.85 -84.6 -4.0 -82.95 L-3.75 -82.75 -1.95 -82.75 0.25 -82.75 0.55 -82.75 1.3 -82.85 2.0 -83.1 Q4.6 -84.25 5.75 -89.25 L9.15 -90.05 5.75 -89.25 Q4.6 -84.25 2.0 -83.1 L1.3 -82.85 0.55 -82.75 0.25 -82.75 -1.95 -82.75 -3.75 -82.75 -4.0 -82.95 Q-5.85 -84.6 -7.75 -90.25 -9.0 -90.45 -10.15 -90.95 M0.55 -82.75 L0.4 -86.6 0.55 -82.75 M0.75 -70.5 Q1.7 -70.3 2.35 -69.75 L2.75 -70.35 6.75 -70.4 8.6 -70.5 10.9 -70.7 11.65 -70.8 13.55 -71.25 Q18.1 -72.6 21.75 -72.25 L22.0 -72.2 Q25.0 -71.85 27.4 -70.3 L27.4 -69.85 29.2 -68.95 31.4 -67.35 Q32.55 -66.25 32.35 -65.35 31.9 -63.55 31.4 -62.9 L31.0 -62.6 31.95 -55.65 Q32.9 -47.95 32.95 -43.9 33.15 -30.7 36.1 -26.0 37.75 -23.45 36.9 -23.15 L35.95 -23.15 35.2 -21.45 Q33.95 -19.15 33.85 -15.0 33.75 -12.75 33.8 -8.75 L33.8 -8.55 33.8 -8.45 33.8 -8.3 33.8 -7.85 33.8 -7.75 33.8 -7.65 33.75 -7.0 33.7 -6.65 33.7 -6.55 33.1 8.85 32.85 10.8 32.45 12.95 32.3 13.3 31.9 13.65 31.1 15.75 30.95 16.55 Q30.95 18.75 29.05 24.0 L28.65 25.1 23.4 33.1 Q22.75 33.95 21.45 34.6 20.1 35.25 20.6 34.05 L23.35 27.1 24.35 24.65 Q26.9 18.7 26.3 17.15 26.05 16.4 25.3 17.8 L24.6 19.3 24.45 19.9 Q22.65 26.05 21.9 26.2 21.4 26.35 22.7 19.05 L22.85 18.25 Q23.3 15.95 24.9 13.6 L25.5 12.85 Q25.1 12.25 26.55 9.6 28.15 6.7 28.4 2.2 28.4 -3.0 28.55 -5.55 29.05 -12.6 29.7 -18.15 29.75 -18.75 28.5 -22.35 L28.3 -22.95 Q28.0 -23.35 27.9 -24.0 27.7 -25.55 28.85 -27.45 29.8 -28.95 28.85 -33.65 27.45 -40.5 27.3 -43.1 L27.2 -55.6 27.0 -59.15 26.7 -61.2 25.45 -59.15 24.4 -57.75 21.25 -54.0 Q20.2 -52.6 19.85 -51.5 L19.6 -49.4 19.5 -49.3 19.4 -49.2 Q19.55 -47.75 18.2 -45.75 L17.95 -45.4 Q20.4 -43.5 19.0 -41.15 L18.9 -41.0 19.65 -39.75 19.75 -38.3 Q19.6 -36.6 18.45 -35.25 15.8 -27.7 11.15 -28.7 6.2 -29.75 6.2 -34.2 4.65 -35.85 3.55 -38.55 L2.4 -40.45 2.0 -41.15 2.15 -40.0 -0.55 -39.6 -1.0 -39.65 -2.4 -39.95 -2.45 -41.6 -2.05 -41.45 -1.95 -43.4 -5.05 -38.55 Q-6.25 -35.75 -7.7 -34.2 -7.7 -29.75 -12.65 -28.7 -17.3 -27.7 -19.95 -35.25 -21.15 -36.6 -21.25 -38.3 L-21.15 -39.75 -20.45 -41.0 -20.5 -41.15 Q-21.95 -43.4 -19.5 -45.4 L-19.7 -45.75 -20.6 -47.4 -20.9 -49.15 -20.8 -49.65 Q-21.55 -52.65 -24.45 -54.6 -28.6 -57.35 -29.45 -58.45 L-29.85 -59.05 -30.15 -56.45 -30.95 -44.65 Q-31.25 -42.3 -33.05 -35.8 -34.25 -31.45 -33.4 -29.95 -32.35 -28.1 -32.65 -26.65 L-32.95 -25.85 -33.85 -23.05 Q-36.9 -1.15 -31.45 8.85 L-30.85 10.0 Q-30.25 11.4 -30.3 12.0 L-29.7 12.75 -28.8 13.9 Q-27.2 16.25 -26.75 18.55 L-26.6 19.35 Q-25.35 26.6 -25.8 26.5 -26.55 26.3 -28.3 20.25 L-28.5 19.6 -29.2 18.05 Q-29.95 16.65 -30.2 17.45 -30.8 19.0 -28.25 24.95 L-27.2 27.45 -24.55 34.35 Q-24.0 35.55 -25.35 34.9 -26.65 34.25 -27.3 33.4 -31.85 27.25 -32.55 25.35 L-32.95 24.3 Q-34.9 18.9 -34.9 16.8 L-35.0 16.1 Q-35.25 15.05 -36.1 13.3 L-36.1 13.25 Q-37.15 13.35 -37.55 12.7 L-37.6 12.6 -38.3 9.55 -39.15 -10.55 -39.15 -17.2 Q-39.3 -21.55 -40.6 -24.0 -41.3 -25.25 -41.5 -26.35 L-41.65 -26.35 Q-42.45 -28.2 -39.85 -30.55 -37.2 -36.7 -36.55 -45.75 -36.25 -49.55 -34.85 -56.8 L-33.55 -63.3 Q-34.3 -63.65 -34.7 -66.0 -35.0 -67.45 -31.4 -69.2 L-28.85 -70.2 -28.9 -70.3 Q-23.5 -73.75 -15.05 -71.25 -11.45 -70.15 -4.35 -70.35 L-3.2 -70.6 -4.05 -71.15 -3.95 -74.7 1.25 -74.55 1.4 -71.05 0.75 -70.5 -0.5 -70.7 -3.2 -70.6 -0.5 -70.7 0.75 -70.5 M12.95 -68.65 L11.95 -68.4 11.6 -68.3 10.9 -68.1 8.6 -67.5 3.85 -66.8 Q3.9 -65.65 3.2 -64.7 L1.7 -63.7 Q0.6 -63.0 0.95 -62.6 L4.85 -62.4 Q6.55 -62.5 8.45 -63.4 L8.6 -63.45 8.95 -63.65 9.55 -64.2 12.1 -66.7 12.8 -68.15 12.8 -68.2 12.9 -68.4 12.95 -68.65 13.1 -69.3 13.55 -69.8 Q14.05 -70.2 14.3 -69.65 L14.35 -69.05 14.95 -69.25 14.35 -69.05 14.3 -69.65 Q14.05 -70.2 13.55 -69.8 L13.1 -69.3 12.95 -68.65 M21.15 -70.25 L19.35 -70.3 14.95 -69.25 Q16.55 -68.7 18.6 -69.3 L21.15 -70.25 21.75 -70.1 22.0 -70.0 23.45 -69.4 23.5 -69.35 23.85 -69.7 Q24.55 -70.3 25.65 -70.7 L27.4 -69.85 25.65 -70.7 Q24.55 -70.3 23.85 -69.7 L23.5 -69.35 23.45 -69.4 22.0 -70.0 21.75 -70.1 21.15 -70.25 M14.35 -69.05 L14.35 -68.6 14.35 -68.4 Q14.25 -67.25 13.65 -66.15 L14.3 -64.9 14.1 -62.55 14.4 -62.3 Q17.3 -61.7 17.3 -59.15 L17.05 -57.6 16.9 -57.2 17.0 -57.15 17.1 -57.15 Q18.4 -56.7 18.8 -54.65 19.15 -53.05 18.0 -51.3 L18.05 -51.25 18.6 -50.8 Q19.3 -50.1 19.4 -49.2 19.3 -50.1 18.6 -50.8 L18.05 -51.25 18.0 -51.3 Q19.15 -53.05 18.8 -54.65 18.4 -56.7 17.1 -57.15 L17.0 -57.15 16.9 -57.2 17.05 -57.6 17.3 -59.15 Q17.3 -61.7 14.4 -62.3 L14.1 -62.55 14.3 -64.9 13.65 -66.15 Q14.25 -67.25 14.35 -68.4 L14.35 -68.6 14.35 -69.05 M2.35 -69.75 L3.25 -68.65 3.55 -68.0 3.85 -66.8 3.55 -68.0 3.25 -68.65 2.35 -69.75 M17.1 -50.2 L16.8 -49.85 Q14.05 -47.05 10.85 -45.75 6.9 -44.2 3.9 -45.8 L2.7 -46.3 Q1.7 -46.65 1.85 -46.05 2.5 -43.75 5.6 -42.45 8.65 -41.15 10.85 -42.15 18.6 -45.75 17.1 -50.2 M8.25 -50.65 Q7.1 -50.3 4.6 -51.05 L1.6 -51.15 Q1.0 -47.35 6.5 -47.15 8.6 -47.05 10.1 -47.75 18.0 -51.25 16.2 -55.75 16.55 -54.95 12.5 -52.4 10.3 -51.15 8.25 -50.65 M3.15 -56.05 Q0.55 -55.75 0.85 -54.8 1.45 -52.8 5.7 -52.35 7.65 -52.15 10.55 -53.9 13.85 -55.9 14.6 -57.3 15.15 -58.35 14.95 -59.15 L14.15 -60.25 13.35 -60.9 Q12.75 -59.95 11.8 -59.15 9.85 -57.5 6.45 -56.4 L3.15 -56.05 M23.5 -69.35 Q22.45 -68.3 22.7 -66.65 23.05 -64.45 24.7 -63.65 L25.45 -63.4 Q26.25 -63.15 26.7 -61.2 26.25 -63.15 25.45 -63.4 L24.7 -63.65 Q23.05 -64.45 22.7 -66.65 22.45 -68.3 23.5 -69.35 M14.15 -38.9 Q18.9 -41.65 17.05 -44.25 17.55 -43.5 9.55 -39.75 6.4 -39.0 2.4 -42.75 L1.65 -43.5 2.4 -42.55 3.85 -40.35 Q5.3 -38.8 7.1 -38.0 10.25 -36.55 14.15 -38.9 M1.9 -41.75 L2.0 -41.15 1.9 -41.75 1.7 -41.6 0.7 -41.25 1.7 -41.6 1.9 -41.75 M-2.05 -41.45 L-0.55 -41.15 0.6 -41.25 0.7 -41.25 0.6 -41.25 -0.55 -41.15 -2.05 -41.45 M1.7 -41.6 L0.45 -43.4 0.7 -41.25 0.45 -43.4 1.7 -41.6 M6.5 -36.05 L7.8 -34.15 Q8.85 -32.3 9.65 -32.0 9.9 -31.85 10.2 -31.85 12.45 -31.3 14.15 -32.65 16.9 -35.1 16.3 -37.6 16.5 -36.6 12.25 -35.05 10.6 -34.55 6.5 -36.05 M3.6 -16.0 Q5.75 -15.7 10.35 -17.9 14.95 -20.1 16.95 -19.85 18.2 -19.7 19.2 -18.85 22.3 -16.2 22.35 -11.2 22.4 -6.3 19.6 -3.4 L16.6 -1.15 14.15 -1.05 Q11.3 -0.45 10.2 1.35 L9.5 5.95 10.15 5.9 9.5 5.95 10.2 1.35 Q11.3 -0.45 14.15 -1.05 L16.6 -1.15 17.5 -0.95 Q21.45 0.55 24.65 4.7 26.7 7.5 25.4 8.65 L22.45 10.9 Q21.55 12.2 20.75 23.1 L19.3 39.3 Q17.0 54.05 18.9 59.05 L20.35 63.5 Q20.45 64.5 19.1 65.8 L19.0 65.9 19.35 66.2 19.4 66.25 19.35 72.9 18.45 75.3 Q17.75 76.85 17.85 77.95 L16.25 92.3 Q14.6 105.85 14.85 107.85 L15.6 113.0 Q15.8 114.85 15.55 115.55 L20.7 117.35 Q27.6 119.9 30.85 120.1 L30.95 120.1 31.0 120.1 32.5 119.95 32.75 119.95 33.9 119.85 34.2 119.9 Q35.25 120.15 36.0 120.65 L38.0 122.65 Q38.8 123.7 37.5 123.75 L36.8 123.75 36.15 123.7 36.1 123.7 29.75 123.5 21.5 123.2 16.8 123.0 13.0 123.2 10.3 123.05 Q5.05 122.7 5.6 121.15 L7.15 117.6 Q6.95 117.2 7.0 116.55 7.1 115.25 8.85 111.25 10.45 107.6 10.3 105.25 10.2 104.1 10.75 89.4 11.2 76.1 10.55 74.05 L9.2 70.2 Q8.8 68.95 9.45 68.55 L10.65 67.95 Q9.25 67.85 8.45 66.2 7.25 63.75 8.9 60.85 10.85 57.3 11.15 55.5 L14.3 32.45 Q18.55 14.0 15.7 9.15 13.95 6.15 11.55 5.75 L11.5 5.75 10.75 5.85 10.15 5.9 10.05 6.55 Q9.55 8.55 7.8 8.3 5.55 7.95 3.75 6.25 1.75 4.35 1.15 4.2 0.5 4.4 -1.45 6.25 -3.25 7.95 -5.5 8.3 -7.1 8.55 -7.5 7.25 L-7.75 5.8 -8.1 4.7 Q-8.9 2.7 -10.6 1.5 L-14.0 -0.85 -14.6 -1.4 -14.0 -0.85 -10.6 1.5 Q-8.9 2.7 -8.1 4.7 L-7.75 5.8 -9.3 5.75 Q-11.7 6.1 -13.45 9.15 -16.25 14.0 -12.0 32.45 L-8.9 55.5 Q-8.55 57.25 -6.6 60.85 -4.95 63.75 -5.3 65.25 -5.85 68.15 -9.5 67.15 L-11.4 66.45 -12.4 66.1 -12.85 66.0 -16.4 66.2 -12.85 66.0 -12.4 66.1 -11.4 66.45 -9.5 67.15 Q-7.75 67.8 -6.5 68.55 -5.85 68.95 -6.2 70.2 L-7.6 74.05 Q-8.25 76.1 -7.8 89.4 -7.25 104.1 -7.35 105.25 -7.5 107.55 -5.9 111.25 -4.15 115.2 -4.1 116.55 L-4.1 117.0 Q-4.1 117.4 -4.25 117.7 L-4.65 118.1 Q-5.1 118.3 -5.8 118.1 L-8.2 117.0 Q-10.1 116.05 -11.05 116.05 L-12.25 115.95 -12.65 115.35 -12.25 115.95 -11.05 116.05 Q-10.1 116.05 -8.2 117.0 L-5.8 118.1 Q-5.1 118.3 -4.65 118.1 L-3.35 121.15 Q-2.75 122.7 -8.0 123.05 L-10.75 123.2 -14.55 123.0 -19.25 123.2 -19.4 122.25 -19.75 121.55 -20.35 120.95 -19.75 121.55 -19.4 122.25 -19.25 123.2 -27.5 123.5 Q-27.3 122.9 -28.2 122.4 L-29.1 121.9 -28.2 122.4 Q-27.3 122.9 -27.5 123.5 L-31.05 123.6 -33.9 123.75 -35.25 123.75 Q-36.75 123.7 -35.7 122.65 L-33.7 120.65 Q-33.0 120.15 -31.85 119.9 L-31.55 119.85 -30.25 119.95 -29.6 120.3 Q-29.0 120.8 -29.3 121.9 -29.0 120.8 -29.6 120.3 L-30.25 119.95 -28.65 120.05 Q-17.9 117.65 -12.65 115.35 -12.85 114.6 -12.65 113.0 L-11.9 107.85 Q-11.65 105.85 -13.3 92.3 L-14.9 77.95 Q-14.8 76.85 -15.5 75.3 L-16.4 72.9 -16.45 66.25 -16.4 66.2 -16.85 65.8 Q-18.2 64.5 -18.1 63.5 -18.05 62.9 -16.6 59.05 -14.7 53.95 -17.0 39.3 L-18.45 23.1 Q-19.25 12.2 -20.15 10.9 -20.55 10.3 -22.35 9.1 -23.55 8.25 -23.55 6.8 -23.55 4.6 -20.75 2.65 -17.35 0.7 -16.3 -0.15 L-14.6 -1.4 Q-17.6 -4.15 -19.1 -7.85 -20.95 -12.5 -19.3 -16.3 -16.0 -23.9 -7.95 -17.9 -5.1 -15.75 -2.75 -15.75 L-2.8 -16.1 Q-3.25 -18.75 -2.85 -18.8 L-1.4 -17.95 2.95 -18.15 3.3 -18.2 3.7 -17.75 3.6 -16.0 1.15 -15.85 -1.3 -16.0 -2.75 -15.75 -1.3 -16.0 1.15 -15.85 3.6 -16.0 M2.5 -38.45 L2.45 -32.35 Q0.9 -32.0 -0.9 -32.3 L-2.4 -32.7 -2.6 -38.6 2.5 -38.45 M28.3 -22.95 Q28.65 -22.5 29.3 -22.35 30.0 -22.2 31.4 -22.8 L34.1 -23.3 35.95 -23.15 34.1 -23.3 31.4 -22.8 Q30.0 -22.2 29.3 -22.35 28.65 -22.5 28.3 -22.95 M2.15 -28.65 L2.15 -20.6 -1.1 -20.35 -2.55 -20.65 -2.9 -28.8 Q0.1 -26.65 2.15 -28.65 M25.5 12.85 L25.75 13.0 26.4 12.9 26.55 12.85 28.05 12.9 28.55 13.1 28.05 12.9 26.55 12.85 Q26.95 13.25 26.95 14.0 L26.95 14.05 Q27.85 14.45 28.55 13.1 L30.4 13.7 30.95 13.8 31.9 13.65 30.95 13.8 30.4 13.7 28.55 13.1 Q27.85 14.45 26.95 14.05 L26.95 14.0 Q26.95 13.25 26.55 12.85 L26.4 12.9 25.75 13.0 25.5 12.85 M26.95 14.05 L26.85 14.65 27.85 14.3 Q29.55 14.2 30.6 15.2 L31.1 15.75 30.6 15.2 Q29.55 14.2 27.85 14.3 L26.85 14.65 26.95 14.05 M27.1 23.35 Q28.4 23.1 29.05 24.0 28.4 23.1 27.1 23.35 L28.55 17.6 27.1 23.35 26.65 25.15 25.85 27.0 23.4 33.1 25.85 27.0 26.65 25.15 27.1 23.35 M22.7 19.05 Q23.0 20.1 24.45 19.9 23.0 20.1 22.7 19.05 M23.35 27.1 Q24.3 26.35 25.1 26.55 L25.85 27.0 25.1 26.55 Q24.3 26.35 23.35 27.1 M19.0 65.9 L15.7 66.05 14.8 66.3 Q12.75 67.1 12.0 67.55 11.25 67.95 10.65 67.95 11.25 67.95 12.0 67.55 12.75 67.1 14.8 66.3 L15.7 66.05 19.0 65.9 M21.5 123.2 Q21.6 122.05 22.0 121.55 L22.6 120.95 22.0 121.55 Q21.6 122.05 21.5 123.2 M19.15 117.85 L22.4 119.0 Q23.5 119.5 25.05 119.8 23.5 119.5 22.4 119.0 L19.15 117.85 17.85 117.95 Q16.6 118.45 17.05 120.2 16.6 118.45 17.85 117.95 L19.15 117.85 18.15 117.55 14.35 116.65 18.15 117.55 19.15 117.85 M24.3 121.15 L24.0 121.1 22.6 120.95 17.05 120.2 22.6 120.95 24.0 121.1 24.3 121.15 Q23.95 120.4 24.5 120.0 L25.05 119.8 24.5 120.0 Q23.95 120.4 24.3 121.15 L29.1 121.8 29.7 121.85 30.95 121.9 31.35 121.9 30.45 122.4 29.75 123.05 29.75 123.5 29.75 123.05 30.45 122.4 31.35 121.9 30.95 121.9 29.7 121.85 29.1 121.8 24.3 121.15 M30.85 120.1 L29.45 120.15 25.05 119.8 29.45 120.15 30.85 120.1 M31.65 121.9 L31.35 121.9 31.65 121.9 31.55 121.65 31.5 121.15 31.5 120.9 Q31.55 120.55 31.85 120.3 L32.5 119.95 31.85 120.3 Q31.55 120.55 31.5 120.9 L31.5 121.15 31.55 121.65 31.65 121.9 31.95 121.9 32.05 121.85 32.35 121.85 32.75 121.8 Q34.65 121.85 36.1 123.7 34.65 121.85 32.75 121.8 L32.35 121.85 32.05 121.85 31.95 121.9 31.65 121.9 M36.1 123.7 L36.8 123.75 36.1 123.7 M7.15 117.6 Q7.5 118.45 8.75 118.1 L12.15 116.4 Q13.3 115.8 14.1 116.0 L15.25 115.9 15.55 115.55 15.25 115.9 14.1 116.0 Q13.3 115.8 12.15 116.4 L8.75 118.1 Q7.5 118.45 7.15 117.6 M13.0 123.2 Q12.9 121.35 14.35 120.45 L15.7 119.9 14.35 120.45 Q12.9 121.35 13.0 123.2 M17.05 120.2 L15.7 119.9 Q11.65 119.0 11.15 117.8 11.65 119.0 15.7 119.9 L17.05 120.2 M-5.55 -101.4 Q-6.65 -102.4 -8.2 -102.4 -9.75 -102.4 -10.85 -101.4 -11.95 -100.35 -11.95 -98.9 -11.95 -97.45 -10.85 -96.45 -9.75 -95.4 -8.2 -95.4 -6.65 -95.4 -5.55 -96.45 -4.45 -97.45 -4.45 -98.9 -4.45 -100.35 -5.55 -101.4 M-2.55 -94.35 Q-4.0 -92.0 -2.95 -91.4 L-1.35 -91.35 Q-0.65 -91.85 -0.25 -91.6 2.75 -91.4 1.75 -93.4 1.1 -94.6 -0.95 -96.6 L-2.55 -94.35 M-3.75 -82.75 L-3.75 -82.9 -3.75 -82.75 M-1.95 -82.75 L-2.1 -86.6 -1.95 -82.75 M-3.75 -82.9 L-3.95 -86.6 -3.75 -82.9 M-14.45 -68.65 L-14.6 -69.3 -15.05 -69.8 Q-15.55 -70.2 -15.8 -69.65 L-15.8 -69.05 -20.85 -70.3 -23.2 -70.1 -23.3 -70.1 -25.0 -69.4 -25.55 -69.1 -25.9 -69.5 -26.65 -70.05 -27.75 -70.65 -28.85 -70.2 -27.75 -70.65 -26.65 -70.05 -25.9 -69.5 -25.55 -69.1 -25.0 -69.4 -23.3 -70.1 -23.2 -70.1 -20.85 -70.3 -15.8 -69.05 -15.8 -69.65 Q-15.55 -70.2 -15.05 -69.8 L-14.6 -69.3 -14.45 -68.65 Q-13.4 -65.1 -9.95 -63.4 -8.05 -62.5 -6.35 -62.4 -3.2 -61.65 -2.45 -62.6 -2.1 -63.0 -2.85 -63.6 L-3.9 -64.4 Q-4.55 -65.05 -5.15 -66.8 L-5.2 -66.8 Q-7.35 -66.7 -13.1 -68.3 L-14.45 -68.65 M-20.8 -49.65 L-20.6 -50.15 -19.5 -51.3 Q-20.65 -53.1 -20.35 -54.65 -19.85 -56.7 -18.6 -57.15 L-18.55 -57.15 -18.45 -57.2 -18.55 -57.6 Q-19.65 -61.7 -15.55 -62.35 L-15.8 -64.9 -15.15 -66.15 Q-15.75 -67.35 -15.85 -68.55 L-15.8 -69.05 -15.85 -68.55 Q-15.75 -67.35 -15.15 -66.15 L-15.8 -64.9 -15.55 -62.35 Q-19.65 -61.7 -18.55 -57.6 L-18.45 -57.2 -18.55 -57.15 -18.6 -57.15 Q-19.85 -56.7 -20.35 -54.65 -20.65 -53.1 -19.5 -51.3 L-20.6 -50.15 -20.8 -49.65 M-25.55 -69.1 Q-24.65 -68.0 -25.0 -66.55 -25.4 -65.0 -26.45 -64.25 -27.1 -63.85 -27.95 -63.7 -29.2 -63.45 -29.85 -59.05 -29.2 -63.45 -27.95 -63.7 -27.1 -63.85 -26.45 -64.25 -25.4 -65.0 -25.0 -66.55 -24.65 -68.0 -25.55 -69.1 M-4.35 -70.35 Q-5.5 -69.9 -5.6 -68.95 L-5.5 -67.85 -5.15 -66.8 -5.5 -67.85 -5.6 -68.95 Q-5.5 -69.9 -4.35 -70.35 M-15.85 -68.55 L-19.5 -68.7 -23.2 -70.1 -19.5 -68.7 -15.85 -68.55 M-16.75 -35.0 Q-15.45 -33.75 -13.7 -33.4 -12.0 -33.15 -10.7 -34.3 L-9.45 -35.8 Q-10.25 -35.15 -12.3 -35.3 -15.05 -35.4 -17.8 -38.05 -18.2 -36.4 -16.75 -35.0 M-4.0 -43.3 Q-4.25 -42.9 -7.35 -40.8 -8.9 -39.8 -10.5 -40.0 -14.75 -40.7 -17.6 -43.8 -19.0 -41.9 -16.2 -39.85 -15.2 -39.1 -13.7 -38.4 -12.65 -37.9 -11.45 -37.9 -6.55 -37.75 -4.0 -43.3 M-5.6 -46.1 L-7.0 -45.4 Q-8.25 -44.65 -10.2 -45.15 -14.2 -46.2 -17.3 -49.3 L-17.55 -49.55 Q-18.4 -46.95 -14.65 -44.25 -11.25 -41.75 -8.85 -42.45 -5.2 -43.6 -4.5 -46.05 L-5.6 -46.1 M-16.5 -55.0 Q-17.65 -52.15 -13.75 -49.55 -12.4 -48.75 -10.6 -48.0 -8.65 -47.2 -6.45 -48.0 -4.0 -48.9 -4.35 -51.15 L-6.45 -51.2 -8.4 -50.5 Q-9.5 -50.4 -12.05 -51.5 -15.15 -52.9 -16.5 -55.0 M-13.9 -60.15 Q-16.85 -58.4 -13.35 -55.5 -10.7 -53.45 -8.2 -53.0 -6.95 -52.8 -5.5 -53.35 -3.9 -53.95 -3.55 -55.1 -3.3 -55.95 -4.55 -56.0 L-6.3 -55.9 Q-7.55 -55.9 -10.35 -57.3 L-13.9 -60.15 M-32.95 -25.85 Q-33.35 -25.25 -34.15 -25.15 -34.85 -25.05 -36.2 -25.7 -37.6 -26.4 -38.85 -26.4 L-41.5 -26.35 -38.85 -26.4 Q-37.6 -26.4 -36.2 -25.7 -34.85 -25.05 -34.15 -25.15 -33.35 -25.25 -32.95 -25.85 M-29.7 12.75 L-30.15 12.95 Q-30.7 13.25 -30.8 13.95 L-30.8 14.3 -30.75 14.9 -31.75 14.6 Q-32.85 14.55 -33.75 15.1 L-34.15 15.3 -35.0 16.1 -34.15 15.3 -33.75 15.1 Q-32.85 14.55 -31.75 14.6 L-30.75 14.9 -30.8 14.3 Q-31.95 14.85 -32.8 12.65 L-32.85 12.55 -33.0 12.5 -33.3 12.4 -33.0 12.5 -32.85 12.55 -32.8 12.65 Q-31.95 14.85 -30.8 14.3 L-30.8 13.95 Q-30.7 13.25 -30.15 12.95 L-29.7 12.75 M-30.3 12.0 L-30.45 12.3 Q-30.7 12.5 -31.3 12.3 -32.15 12.0 -33.05 12.3 L-33.3 12.4 -34.8 12.95 -35.5 13.15 -36.1 13.25 -35.5 13.15 -34.8 12.95 -33.3 12.4 -33.05 12.3 Q-32.15 12.0 -31.3 12.3 -30.7 12.5 -30.45 12.3 L-30.3 12.0 M-31.0 23.65 L-32.4 23.85 -32.95 24.3 -32.4 23.85 -31.0 23.65 -32.45 17.85 -31.0 23.65 -30.55 25.45 -29.75 27.25 -27.3 33.4 -29.75 27.25 -30.55 25.45 -31.0 23.65 M-26.6 19.35 Q-26.9 20.35 -28.3 20.25 -26.9 20.35 -26.6 19.35 M-27.2 27.45 Q-28.15 26.65 -29.0 26.8 L-29.75 27.25 -29.0 26.8 Q-28.15 26.65 -27.2 27.45 M-14.7 120.05 Q-14.4 118.45 -15.6 117.95 L-16.8 117.85 -15.6 117.95 Q-14.4 118.45 -14.7 120.05 L-13.5 119.8 Q-9.35 118.85 -8.9 117.8 -9.35 118.85 -13.5 119.8 L-14.7 120.05 -14.8 120.1 -19.4 120.8 -20.35 120.95 -20.8 121.0 -21.75 121.1 -22.0 121.15 -21.75 121.1 -20.8 121.0 -20.35 120.95 -19.4 120.8 -14.8 120.1 -14.7 120.05 M-13.5 119.8 L-12.05 120.45 Q-10.6 121.35 -10.75 123.2 -10.6 121.35 -12.05 120.45 L-13.5 119.8 M-12.05 116.65 L-15.85 117.55 -16.8 117.85 -16.85 117.9 Q-19.35 118.6 -20.1 119.0 L-21.75 119.6 -22.8 119.8 -21.75 119.6 -20.1 119.0 Q-19.35 118.6 -16.85 117.9 L-16.8 117.85 -15.85 117.55 -12.05 116.65 M-29.3 121.9 L-29.8 121.85 Q-31.35 121.65 -32.8 122.7 L-33.9 123.75 -32.8 122.7 Q-31.35 121.65 -29.8 121.85 L-29.3 121.9 -29.1 121.9 -29.3 121.9 M-28.65 120.05 L-27.2 120.15 -23.9 119.95 -22.85 119.8 -23.9 119.95 -27.2 120.15 -28.65 120.05 M-22.0 121.15 L-29.1 121.9 -22.0 121.15 Q-21.8 120.75 -21.9 120.45 L-22.25 120.0 -22.8 119.8 -22.85 119.8 -22.8 119.8 -22.25 120.0 -21.9 120.45 Q-21.8 120.75 -22.0 121.15" fill="#ffffff" fill-opacity="0.0" fill-rule="evenodd" stroke="none"/>
    <path d="M1.15 -79.45 L0.95 -79.45 Q-4.95 -79.5 -7.55 -80.5 -9.2 -81.1 -9.85 -86.55 L-10.15 -90.95 -11.6 -91.65 Q-15.25 -93.75 -14.45 -97.1 -13.45 -104.05 -12.05 -107.85 -9.55 -114.75 -3.45 -115.4 4.1 -116.2 7.75 -113.9 11.75 -111.45 13.05 -104.4 15.4 -93.9 12.75 -91.9 L12.4 -91.6 11.35 -91.0 10.3 -90.5 9.15 -90.05 9.3 -87.0 Q9.3 -82.85 8.45 -81.2 7.55 -79.45 1.25 -79.45 L1.4 -76.0 Q-0.9 -73.9 -4.05 -76.1 L-3.95 -79.65 M1.15 -79.45 L1.25 -79.45 M0.75 -70.5 Q1.7 -70.3 2.35 -69.75 L2.75 -70.35 6.75 -70.4 8.6 -70.5 10.9 -70.7 11.65 -70.8 13.55 -71.25 Q18.1 -72.6 21.75 -72.25 L22.0 -72.2 Q25.0 -71.85 27.4 -70.3 L27.4 -69.85 29.2 -68.95 31.4 -67.35 Q32.55 -66.25 32.35 -65.35 31.9 -63.55 31.4 -62.9 L31.0 -62.6 31.95 -55.65 Q32.9 -47.95 32.95 -43.9 33.15 -30.7 36.1 -26.0 37.75 -23.45 36.9 -23.15 L35.95 -23.15 35.2 -21.45 Q33.95 -19.15 33.85 -15.0 33.75 -12.75 33.8 -8.75 L33.8 -8.55 33.8 -8.45 33.8 -8.3 33.8 -7.85 33.8 -7.75 33.8 -7.65 33.75 -7.0 33.7 -6.65 33.7 -6.55 33.1 8.85 32.85 10.8 32.45 12.95 32.3 13.3 31.9 13.65 31.1 15.75 30.95 16.55 Q30.95 18.75 29.05 24.0 L28.65 25.1 23.4 33.1 Q22.75 33.95 21.45 34.6 20.1 35.25 20.6 34.05 L23.35 27.1 24.35 24.65 Q26.9 18.7 26.3 17.15 26.05 16.4 25.3 17.8 L24.6 19.3 24.45 19.9 Q22.65 26.05 21.9 26.2 21.4 26.35 22.7 19.05 L22.85 18.25 Q23.3 15.95 24.9 13.6 L25.5 12.85 Q25.1 12.25 26.55 9.6 28.15 6.7 28.4 2.2 28.4 -3.0 28.55 -5.55 29.05 -12.6 29.7 -18.15 29.75 -18.75 28.5 -22.35 L28.3 -22.95 Q28.0 -23.35 27.9 -24.0 27.7 -25.55 28.85 -27.45 29.8 -28.95 28.85 -33.65 27.45 -40.5 27.3 -43.1 L27.2 -55.6 27.0 -59.15 26.7 -61.2 25.45 -59.15 24.4 -57.75 21.25 -54.0 Q20.2 -52.6 19.85 -51.5 L19.6 -49.4 19.5 -49.3 19.4 -49.2 Q19.55 -47.75 18.2 -45.75 L17.95 -45.4 Q20.4 -43.5 19.0 -41.15 L18.9 -41.0 19.65 -39.75 19.75 -38.3 Q19.6 -36.6 18.45 -35.25 15.8 -27.7 11.15 -28.7 6.2 -29.75 6.2 -34.2 4.65 -35.85 3.55 -38.55 L2.4 -40.45 2.0 -41.15 2.15 -40.0 -0.55 -39.6 -1.0 -39.65 -2.4 -39.95 -2.45 -41.6 -2.05 -41.45 -1.95 -43.4 -5.05 -38.55 Q-6.25 -35.75 -7.7 -34.2 -7.7 -29.75 -12.65 -28.7 -17.3 -27.7 -19.95 -35.25 -21.15 -36.6 -21.25 -38.3 L-21.15 -39.75 -20.45 -41.0 -20.5 -41.15 Q-21.95 -43.4 -19.5 -45.4 L-19.7 -45.75 -20.6 -47.4 -20.9 -49.15 -20.8 -49.65 Q-21.55 -52.65 -24.45 -54.6 -28.6 -57.35 -29.45 -58.45 L-29.85 -59.05 -30.15 -56.45 -30.95 -44.65 Q-31.25 -42.3 -33.05 -35.8 -34.25 -31.45 -33.4 -29.95 -32.35 -28.1 -32.65 -26.65 L-32.95 -25.85 -33.85 -23.05 Q-36.9 -1.15 -31.45 8.85 L-30.85 10.0 Q-30.25 11.4 -30.3 12.0 L-29.7 12.75 -28.8 13.9 Q-27.2 16.25 -26.75 18.55 L-26.6 19.35 Q-25.35 26.6 -25.8 26.5 -26.55 26.3 -28.3 20.25 L-28.5 19.6 -29.2 18.05 Q-29.95 16.65 -30.2 17.45 -30.8 19.0 -28.25 24.95 L-27.2 27.45 -24.55 34.35 Q-24.0 35.55 -25.35 34.9 -26.65 34.25 -27.3 33.4 -31.85 27.25 -32.55 25.35 L-32.95 24.3 Q-34.9 18.9 -34.9 16.8 L-35.0 16.1 Q-35.25 15.05 -36.1 13.3 L-36.1 13.25 Q-37.15 13.35 -37.55 12.7 L-37.6 12.6 -38.3 9.55 -39.15 -10.55 -39.15 -17.2 Q-39.3 -21.55 -40.6 -24.0 -41.3 -25.25 -41.5 -26.35 L-41.65 -26.35 Q-42.45 -28.2 -39.85 -30.55 -37.2 -36.7 -36.55 -45.75 -36.25 -49.55 -34.85 -56.8 L-33.55 -63.3 Q-34.3 -63.65 -34.7 -66.0 -35.0 -67.45 -31.4 -69.2 L-28.85 -70.2 -28.9 -70.3 Q-23.5 -73.75 -15.05 -71.25 -11.45 -70.15 -4.35 -70.35 L-3.2 -70.6 -4.05 -71.15 -3.95 -74.7 1.25 -74.55 1.4 -71.05 0.75 -70.5 -0.5 -70.7 -3.2 -70.6 M1.9 -41.75 L1.7 -41.6 0.7 -41.25 0.45 -43.4 1.7 -41.6 M2.5 -38.45 L-2.6 -38.6 -2.4 -32.7 -0.9 -32.3 Q0.9 -32.0 2.45 -32.35 L2.5 -38.45 M16.6 -1.15 L19.6 -3.4 Q22.4 -6.3 22.35 -11.2 22.3 -16.2 19.2 -18.85 18.2 -19.7 16.95 -19.85 14.95 -20.1 10.35 -17.9 5.75 -15.7 3.6 -16.0 L3.7 -17.75 3.3 -18.2 2.95 -18.15 -1.4 -17.95 -2.85 -18.8 Q-3.25 -18.75 -2.8 -16.1 L-2.75 -15.75 Q-5.1 -15.75 -7.95 -17.9 -16.0 -23.9 -19.3 -16.3 -20.95 -12.5 -19.1 -7.85 -17.6 -4.15 -14.6 -1.4 L-16.3 -0.15 Q-17.35 0.7 -20.75 2.65 -23.55 4.6 -23.55 6.8 -23.55 8.25 -22.35 9.1 -20.55 10.3 -20.15 10.9 -19.25 12.2 -18.45 23.1 L-17.0 39.3 Q-14.7 53.95 -16.6 59.05 -18.05 62.9 -18.1 63.5 -18.2 64.5 -16.85 65.8 L-16.4 66.2 -16.45 66.25 -16.4 72.9 -15.5 75.3 Q-14.8 76.85 -14.9 77.95 L-13.3 92.3 Q-11.65 105.85 -11.9 107.85 L-12.65 113.0 Q-12.85 114.6 -12.65 115.35 -17.9 117.65 -28.65 120.05 L-30.25 119.95 -31.55 119.85 -31.85 119.9 Q-33.0 120.15 -33.7 120.65 L-35.7 122.65 Q-36.75 123.7 -35.25 123.75 L-33.9 123.75 -31.05 123.6 -27.5 123.5 -19.25 123.2 -14.55 123.0 -10.75 123.2 -8.0 123.05 Q-2.75 122.7 -3.35 121.15 L-4.65 118.1 -4.25 117.7 Q-4.1 117.4 -4.1 117.0 L-4.1 116.55 Q-4.15 115.2 -5.9 111.25 -7.5 107.55 -7.35 105.25 -7.25 104.1 -7.8 89.4 -8.25 76.1 -7.6 74.05 L-6.2 70.2 Q-5.85 68.95 -6.5 68.55 -7.75 67.8 -9.5 67.15 -5.85 68.15 -5.3 65.25 -4.95 63.75 -6.6 60.85 -8.55 57.25 -8.9 55.5 L-12.0 32.45 Q-16.25 14.0 -13.45 9.15 -11.7 6.1 -9.3 5.75 L-7.75 5.8 -7.5 7.25 Q-7.1 8.55 -5.5 8.3 -3.25 7.95 -1.45 6.25 0.5 4.4 1.15 4.2 1.75 4.35 3.75 6.25 5.55 7.95 7.8 8.3 9.55 8.55 10.05 6.55 L10.15 5.9 10.75 5.85 11.5 5.75 11.55 5.75 Q13.95 6.15 15.7 9.15 18.55 14.0 14.3 32.45 L11.15 55.5 Q10.85 57.3 8.9 60.85 7.25 63.75 8.45 66.2 9.25 67.85 10.65 67.95 L9.45 68.55 Q8.8 68.95 9.2 70.2 L10.55 74.05 Q11.2 76.1 10.75 89.4 10.2 104.1 10.3 105.25 10.45 107.6 8.85 111.25 7.1 115.25 7.0 116.55 6.95 117.2 7.15 117.6 L5.6 121.15 Q5.05 122.7 10.3 123.05 L13.0 123.2 16.8 123.0 21.5 123.2 29.75 123.5 36.1 123.7 36.15 123.7 36.8 123.75 36.1 123.7 M16.6 -1.15 L17.5 -0.95 Q21.45 0.55 24.65 4.7 26.7 7.5 25.4 8.65 L22.45 10.9 Q21.55 12.2 20.75 23.1 L19.3 39.3 Q17.0 54.05 18.9 59.05 L20.35 63.5 Q20.45 64.5 19.1 65.8 L19.0 65.9 19.35 66.2 19.4 66.25 19.35 72.9 18.45 75.3 Q17.75 76.85 17.85 77.95 L16.25 92.3 Q14.6 105.85 14.85 107.85 L15.6 113.0 Q15.8 114.85 15.55 115.55 L20.7 117.35 Q27.6 119.9 30.85 120.1 L30.95 120.1 31.0 120.1 32.5 119.95 32.75 119.95 33.9 119.85 34.2 119.9 Q35.25 120.15 36.0 120.65 L38.0 122.65 Q38.8 123.7 37.5 123.75 L36.8 123.75 M2.15 -28.65 Q0.1 -26.65 -2.9 -28.8 L-2.55 -20.65 -1.1 -20.35 2.15 -20.6 2.15 -28.65 M31.35 121.9 L31.65 121.9 M-3.75 -82.9 L-3.75 -82.75 M-29.3 121.9 L-29.1 121.9" fill="none" stroke="#000000" stroke-linecap="round" stroke-linejoin="miter-clip" stroke-miterlimit="3.0" stroke-width="1.0"/>
    <path d="M-3.95 -79.65 L1.15 -79.45 M6.8 -102.1 Q8.35 -102.1 9.45 -101.05 10.55 -100.05 10.55 -98.6 10.55 -97.15 9.45 -96.1 8.35 -95.1 6.8 -95.1 5.25 -95.1 4.15 -96.1 3.05 -97.15 3.05 -98.6 3.05 -100.05 4.15 -101.05 5.25 -102.1 6.8 -102.1 M9.15 -90.05 L5.75 -89.25 Q4.6 -84.25 2.0 -83.1 L1.3 -82.85 0.55 -82.75 0.25 -82.75 -1.95 -82.75 -3.75 -82.75 -4.0 -82.95 Q-5.85 -84.6 -7.75 -90.25 -9.0 -90.45 -10.15 -90.95 M12.95 -68.65 L11.95 -68.4 11.6 -68.3 10.9 -68.1 8.6 -67.5 3.85 -66.8 Q3.9 -65.65 3.2 -64.7 L1.7 -63.7 Q0.6 -63.0 0.95 -62.6 L4.85 -62.4 Q6.55 -62.5 8.45 -63.4 L8.6 -63.45 8.95 -63.65 9.55 -64.2 12.1 -66.7 12.8 -68.15 12.8 -68.2 12.9 -68.4 12.95 -68.65 13.1 -69.3 13.55 -69.8 Q14.05 -70.2 14.3 -69.65 L14.35 -69.05 14.95 -69.25 19.35 -70.3 21.15 -70.25 21.75 -70.1 22.0 -70.0 23.45 -69.4 23.5 -69.35 23.85 -69.7 Q24.55 -70.3 25.65 -70.7 L27.4 -69.85 M19.4 -49.2 Q19.3 -50.1 18.6 -50.8 L18.05 -51.25 18.0 -51.3 Q19.15 -53.05 18.8 -54.65 18.4 -56.7 17.1 -57.15 L17.0 -57.15 16.9 -57.2 17.05 -57.6 17.3 -59.15 Q17.3 -61.7 14.4 -62.3 L14.1 -62.55 14.3 -64.9 13.65 -66.15 Q14.25 -67.25 14.35 -68.4 L14.35 -68.6 14.35 -69.05 M14.95 -69.25 Q16.55 -68.7 18.6 -69.3 L21.15 -70.25 M3.85 -66.8 L3.55 -68.0 3.25 -68.65 2.35 -69.75 M26.7 -61.2 Q26.25 -63.15 25.45 -63.4 L24.7 -63.65 Q23.05 -64.45 22.7 -66.65 22.45 -68.3 23.5 -69.35 M2.0 -41.15 L1.9 -41.75 M0.7 -41.25 L0.6 -41.25 -0.55 -41.15 -2.05 -41.45 M3.6 -16.0 L1.15 -15.85 -1.3 -16.0 -2.75 -15.75 M-14.6 -1.4 L-14.0 -0.85 -10.6 1.5 Q-8.9 2.7 -8.1 4.7 L-7.75 5.8 M10.15 5.9 L9.5 5.95 10.2 1.35 Q11.3 -0.45 14.15 -1.05 L16.6 -1.15 M35.95 -23.15 L34.1 -23.3 31.4 -22.8 Q30.0 -22.2 29.3 -22.35 28.65 -22.5 28.3 -22.95 M28.55 13.1 L28.05 12.9 26.55 12.85 Q26.95 13.25 26.95 14.0 L26.95 14.05 Q27.85 14.45 28.55 13.1 L30.4 13.7 30.95 13.8 31.9 13.65 M31.1 15.75 L30.6 15.2 Q29.55 14.2 27.85 14.3 L26.85 14.65 26.95 14.05 M26.55 12.85 L26.4 12.9 25.75 13.0 25.5 12.85 M27.1 23.35 L26.65 25.15 25.85 27.0 23.4 33.1 M28.55 17.6 L27.1 23.35 M10.65 67.95 Q11.25 67.95 12.0 67.55 12.75 67.1 14.8 66.3 L15.7 66.05 19.0 65.9 M25.05 119.8 Q23.5 119.5 22.4 119.0 L19.15 117.85 18.15 117.55 14.35 116.65 M17.05 120.2 L22.6 120.95 24.0 121.1 24.3 121.15 29.1 121.8 29.7 121.85 30.95 121.9 31.35 121.9 M25.05 119.8 L29.45 120.15 30.85 120.1 M36.1 123.7 Q34.65 121.85 32.75 121.8 L32.35 121.85 32.05 121.85 31.95 121.9 31.65 121.9 M15.55 115.55 L15.25 115.9 14.1 116.0 Q13.3 115.8 12.15 116.4 L8.75 118.1 Q7.5 118.45 7.15 117.6 M11.15 117.8 Q11.65 119.0 15.7 119.9 L17.05 120.2 M-5.55 -101.4 Q-4.45 -100.35 -4.45 -98.9 -4.45 -97.45 -5.55 -96.45 -6.65 -95.4 -8.2 -95.4 -9.75 -95.4 -10.85 -96.45 -11.95 -97.45 -11.95 -98.9 -11.95 -100.35 -10.85 -101.4 -9.75 -102.4 -8.2 -102.4 -6.65 -102.4 -5.55 -101.4 M-2.55 -94.35 Q-4.0 -92.0 -2.95 -91.4 L-1.35 -91.35 Q-0.65 -91.85 -0.25 -91.6 2.75 -91.4 1.75 -93.4 1.1 -94.6 -0.95 -96.6 L-2.55 -94.35 M-28.85 -70.2 L-27.75 -70.65 -26.65 -70.05 -25.9 -69.5 -25.55 -69.1 -25.0 -69.4 -23.3 -70.1 -23.2 -70.1 -20.85 -70.3 -15.8 -69.05 -15.8 -69.65 Q-15.55 -70.2 -15.05 -69.8 L-14.6 -69.3 -14.45 -68.65 -13.1 -68.3 Q-7.35 -66.7 -5.2 -66.8 L-5.15 -66.8 -5.5 -67.85 -5.6 -68.95 Q-5.5 -69.9 -4.35 -70.35 M-29.85 -59.05 Q-29.2 -63.45 -27.95 -63.7 -27.1 -63.85 -26.45 -64.25 -25.4 -65.0 -25.0 -66.55 -24.65 -68.0 -25.55 -69.1 M-15.8 -69.05 L-15.85 -68.55 Q-15.75 -67.35 -15.15 -66.15 L-15.8 -64.9 -15.55 -62.35 Q-19.65 -61.7 -18.55 -57.6 L-18.45 -57.2 -18.55 -57.15 -18.6 -57.15 Q-19.85 -56.7 -20.35 -54.65 -20.65 -53.1 -19.5 -51.3 L-20.6 -50.15 -20.8 -49.65 M-5.15 -66.8 Q-4.55 -65.05 -3.9 -64.4 L-2.85 -63.6 Q-2.1 -63.0 -2.45 -62.6 -3.2 -61.65 -6.35 -62.4 -8.05 -62.5 -9.95 -63.4 -13.4 -65.1 -14.45 -68.65 M-23.2 -70.1 L-19.5 -68.7 -15.85 -68.55 M-41.5 -26.35 L-38.85 -26.4 Q-37.6 -26.4 -36.2 -25.7 -34.85 -25.05 -34.15 -25.15 -33.35 -25.25 -32.95 -25.85 M-16.4 66.2 L-12.85 66.0 -12.4 66.1 -11.4 66.45 -9.5 67.15 M-36.1 13.25 L-35.5 13.15 -34.8 12.95 -33.3 12.4 -33.05 12.3 Q-32.15 12.0 -31.3 12.3 -30.7 12.5 -30.45 12.3 L-30.3 12.0 M-35.0 16.1 L-34.15 15.3 -33.75 15.1 Q-32.85 14.55 -31.75 14.6 L-30.75 14.9 -30.8 14.3 Q-31.95 14.85 -32.8 12.65 L-32.85 12.55 -33.0 12.5 -33.3 12.4 M-30.8 14.3 L-30.8 13.95 Q-30.7 13.25 -30.15 12.95 L-29.7 12.75 M-31.0 23.65 L-32.45 17.85 M-27.3 33.4 L-29.75 27.25 -30.55 25.45 -31.0 23.65 M-12.65 115.35 L-12.25 115.95 -11.05 116.05 Q-10.1 116.05 -8.2 117.0 L-5.8 118.1 Q-5.1 118.3 -4.65 118.1 M-14.7 120.05 L-13.5 119.8 Q-9.35 118.85 -8.9 117.8 M-22.8 119.8 L-21.75 119.6 -20.1 119.0 Q-19.35 118.6 -16.85 117.9 L-16.8 117.85 -15.85 117.55 -12.05 116.65 M-22.0 121.15 L-21.75 121.1 -20.8 121.0 -20.35 120.95 -19.4 120.8 -14.8 120.1 -14.7 120.05 M-33.9 123.75 L-32.8 122.7 Q-31.35 121.65 -29.8 121.85 L-29.3 121.9 M-22.85 119.8 L-23.9 119.95 -27.2 120.15 -28.65 120.05 M-29.1 121.9 L-22.0 121.15" fill="none" stroke="#000000" stroke-linecap="round" stroke-linejoin="miter-clip" stroke-miterlimit="3.0" stroke-opacity="0.6" stroke-width="1.0"/>
    <path d="M0.4 -86.6 L0.55 -82.75 M3.15 -56.05 L6.45 -56.4 Q9.85 -57.5 11.8 -59.15 12.75 -59.95 13.35 -60.9 L14.15 -60.25 14.95 -59.15 Q15.15 -58.35 14.6 -57.3 13.85 -55.9 10.55 -53.9 7.65 -52.15 5.7 -52.35 1.45 -52.8 0.85 -54.8 0.55 -55.75 3.15 -56.05 M8.25 -50.65 Q10.3 -51.15 12.5 -52.4 16.55 -54.95 16.2 -55.75 18.0 -51.25 10.1 -47.75 8.6 -47.05 6.5 -47.15 1.0 -47.35 1.6 -51.15 L4.6 -51.05 Q7.1 -50.3 8.25 -50.65 M17.1 -50.2 Q18.6 -45.75 10.85 -42.15 8.65 -41.15 5.6 -42.45 2.5 -43.75 1.85 -46.05 1.7 -46.65 2.7 -46.3 L3.9 -45.8 Q6.9 -44.2 10.85 -45.75 14.05 -47.05 16.8 -49.85 L17.1 -50.2 M14.15 -38.9 Q10.25 -36.55 7.1 -38.0 5.3 -38.8 3.85 -40.35 L2.4 -42.55 1.65 -43.5 2.4 -42.75 Q6.4 -39.0 9.55 -39.75 17.55 -43.5 17.05 -44.25 18.9 -41.65 14.15 -38.9 M6.5 -36.05 Q10.6 -34.55 12.25 -35.05 16.5 -36.6 16.3 -37.6 16.9 -35.1 14.15 -32.65 12.45 -31.3 10.2 -31.85 9.9 -31.85 9.65 -32.0 8.85 -32.3 7.8 -34.15 L6.5 -36.05 M24.45 19.9 Q23.0 20.1 22.7 19.05 M29.05 24.0 Q28.4 23.1 27.1 23.35 M25.85 27.0 L25.1 26.55 Q24.3 26.35 23.35 27.1 M22.6 120.95 L22.0 121.55 Q21.6 122.05 21.5 123.2 M19.15 117.85 L17.85 117.95 Q16.6 118.45 17.05 120.2 M24.3 121.15 Q23.95 120.4 24.5 120.0 L25.05 119.8 M31.35 121.9 L30.45 122.4 29.75 123.05 29.75 123.5 M31.65 121.9 L31.55 121.65 31.5 121.15 31.5 120.9 Q31.55 120.55 31.85 120.3 L32.5 119.95 M15.7 119.9 L14.35 120.45 Q12.9 121.35 13.0 123.2 M-3.95 -86.6 L-3.75 -82.9 M-2.1 -86.6 L-1.95 -82.75 M-13.9 -60.15 L-10.35 -57.3 Q-7.55 -55.9 -6.3 -55.9 L-4.55 -56.0 Q-3.3 -55.95 -3.55 -55.1 -3.9 -53.95 -5.5 -53.35 -6.95 -52.8 -8.2 -53.0 -10.7 -53.45 -13.35 -55.5 -16.85 -58.4 -13.9 -60.15 M-16.5 -55.0 Q-15.15 -52.9 -12.05 -51.5 -9.5 -50.4 -8.4 -50.5 L-6.45 -51.2 -4.35 -51.15 Q-4.0 -48.9 -6.45 -48.0 -8.65 -47.2 -10.6 -48.0 -12.4 -48.75 -13.75 -49.55 -17.65 -52.15 -16.5 -55.0 M-5.6 -46.1 L-4.5 -46.05 Q-5.2 -43.6 -8.85 -42.45 -11.25 -41.75 -14.65 -44.25 -18.4 -46.95 -17.55 -49.55 L-17.3 -49.3 Q-14.2 -46.2 -10.2 -45.15 -8.25 -44.65 -7.0 -45.4 L-5.6 -46.1 M-4.0 -43.3 Q-6.55 -37.75 -11.45 -37.9 -12.65 -37.9 -13.7 -38.4 -15.2 -39.1 -16.2 -39.85 -19.0 -41.9 -17.6 -43.8 -14.75 -40.7 -10.5 -40.0 -8.9 -39.8 -7.35 -40.8 -4.25 -42.9 -4.0 -43.3 M-16.75 -35.0 Q-18.2 -36.4 -17.8 -38.05 -15.05 -35.4 -12.3 -35.3 -10.25 -35.15 -9.45 -35.8 L-10.7 -34.3 Q-12.0 -33.15 -13.7 -33.4 -15.45 -33.75 -16.75 -35.0 M-32.95 24.3 L-32.4 23.85 -31.0 23.65 M-28.3 20.25 Q-26.9 20.35 -26.6 19.35 M-29.75 27.25 L-29.0 26.8 Q-28.15 26.65 -27.2 27.45 M-16.8 117.85 L-15.6 117.95 Q-14.4 118.45 -14.7 120.05 M-20.35 120.95 L-19.75 121.55 -19.4 122.25 -19.25 123.2 M-10.75 123.2 Q-10.6 121.35 -12.05 120.45 L-13.5 119.8 M-29.3 121.9 Q-29.0 120.8 -29.6 120.3 L-30.25 119.95 M-29.1 121.9 L-28.2 122.4 Q-27.3 122.9 -27.5 123.5 M-22.0 121.15 Q-21.8 120.75 -21.9 120.45 L-22.25 120.0 -22.8 119.8 -22.85 119.8" fill="none" stroke="#000000" stroke-linecap="round" stroke-linejoin="miter-clip" stroke-miterlimit="3.0" stroke-opacity="0.4" stroke-width="1.0"/>
  </g>
</svg>
