<?xml version="1.0" encoding="UTF-8" standalone="no"?>
<svg xmlns:xlink="http://www.w3.org/1999/xlink" height="176.05px" width="190.25px" xmlns="http://www.w3.org/2000/svg">
  <g transform="matrix(1.0, 0.0, 0.0, 1.0, 95.15, 133.05)">
    <path d="M68.2 -57.45 L71.9 -58.25 68.1 -56.05 67.7 -55.85 Q53.95 -47.65 42.05 -34.4 44.1 -35.85 46.3 -37.1 53.8 -41.4 62.25 -43.7 L62.85 -43.85 63.45 -44.0 Q75.5 -47.05 84.25 -45.55 L78.35 -44.45 78.1 -44.4 76.55 -44.05 47.95 -32.05 46.95 -31.45 Q52.05 -33.6 57.65 -34.95 62.85 -36.25 68.45 -36.8 L68.85 -36.85 Q82.3 -38.15 92.1 -35.8 77.35 -38.85 49.05 -27.6 L44.45 -25.7 46.65 -26.35 Q74.4 -33.75 93.75 -16.4 84.65 -20.1 71.2 -21.85 57.4 -23.65 45.0 -21.9 L45.9 -21.9 Q61.0 -21.55 71.65 -12.55 L71.9 -12.35 73.8 -10.7 75.15 -9.4 Q78.7 -5.9 81.95 -1.4 75.6 -6.55 65.0 -10.9 54.95 -15.05 44.9 -16.25 L44.75 -16.15 Q51.8 -13.65 56.6 -6.85 L58.5 -3.85 62.65 -3.0 59.25 -2.55 Q62.35 3.4 63.0 10.1 58.95 3.45 53.95 -1.5 47.55 -0.05 40.15 2.7 26.75 7.7 16.45 15.25 L17.25 14.8 Q33.4 7.6 44.35 10.65 L45.95 10.95 46.55 11.1 47.7 11.4 49.2 11.8 52.05 12.75 Q55.6 14.0 59.25 15.8 51.2 14.2 39.8 15.3 28.55 16.4 18.85 20.2 26.55 18.85 34.25 22.8 42.75 27.15 47.8 34.8 31.25 24.9 14.15 26.95 L9.8 27.65 8.1 28.05 Q6.0 28.6 4.05 29.3 L0.15 31.25 Q5.95 16.65 11.55 9.0 L14.15 5.65 14.4 5.3 14.15 5.65 11.55 9.0 Q5.95 16.65 0.15 31.25 L0.55 29.25 0.45 28.0 0.15 22.55 0.05 20.9 -0.05 17.7 0.25 14.55 1.4 13.05 Q4.3 9.55 7.85 6.55 3.45 15.25 0.55 29.25 3.45 15.25 7.85 6.55 4.3 9.55 1.4 13.05 L0.25 14.55 -0.05 17.7 0.05 20.9 0.15 22.55 0.45 28.0 Q-1.0 21.7 -2.3 18.2 -4.05 21.0 -5.95 25.3 -7.9 29.6 -9.1 37.45 L-9.6 37.25 -13.9 35.65 Q-18.4 34.05 -20.7 33.7 L-23.2 33.25 -24.35 33.1 -25.05 33.0 -25.2 32.95 -25.4 32.95 -26.45 32.8 Q-44.65 30.8 -50.2 41.5 -50.4 39.85 -50.05 37.7 -49.3 33.45 -46.4 31.05 -41.45 26.9 -31.25 28.9 -41.75 22.9 -47.7 13.95 -49.85 10.75 -51.2 7.4 L-52.65 3.0 -53.05 0.7 -53.45 -1.65 -52.55 0.35 Q-51.15 3.3 -49.25 6.2 -41.95 17.35 -27.5 27.05 -24.25 29.25 -21.1 31.05 -35.15 22.15 -43.0 5.9 L-44.1 3.5 -46.45 -2.7 -46.5 -2.9 -46.6 -3.2 -47.85 -7.6 -48.25 -9.7 -49.0 -13.65 -46.9 -9.45 -46.3 -8.25 -45.85 -7.45 -43.45 -3.3 -40.05 1.9 Q-34.4 10.0 -26.95 17.55 -22.4 25.2 -10.15 36.5 L-9.9 36.85 Q-16.1 34.05 -19.15 32.3 L-21.1 31.05 -19.15 32.3 Q-16.1 34.05 -9.9 36.85 L-10.15 36.5 Q-22.4 25.2 -26.95 17.55 -31.8 9.4 -34.2 0.3 L-34.95 -2.85 -35.25 -4.35 -35.6 -6.45 -35.65 -6.9 -35.85 -8.25 -36.25 -12.6 -36.35 -17.3 -36.25 -19.35 -35.55 -25.2 Q-35.2 -20.25 -33.95 -14.85 L-32.6 -9.65 -32.15 -8.05 -31.35 -5.55 -31.25 -5.25 -31.35 -5.55 -29.8 -4.6 -31.25 -5.25 -30.15 -2.1 -29.75 -1.1 -29.5 -0.45 Q-27.1 5.9 -23.75 12.75 L-24.2 11.25 -26.8 0.35 -26.85 -0.05 -26.95 -0.6 -27.0 -1.15 -27.05 -1.45 -27.25 -2.95 -27.4 -4.55 -27.4 -4.65 -27.45 -4.8 -27.5 -5.35 -27.65 -7.2 -27.75 -9.35 -27.8 -12.2 -27.8 -12.6 -27.75 -15.3 Q-28.6 -19.85 -28.75 -23.6 -28.95 -28.1 -28.15 -31.45 L-32.7 -31.85 -37.55 -31.85 -38.95 -31.8 -41.0 -31.65 -45.55 -31.05 -42.3 -32.85 -40.6 -33.8 -39.25 -34.4 -35.35 -35.85 Q-31.9 -36.95 -28.55 -37.25 L-28.25 -37.25 -25.25 -37.4 -24.75 -37.9 -24.4 -38.25 -24.35 -38.3 Q-22.85 -39.65 -21.1 -40.35 -24.1 -42.45 -27.4 -44.3 L-28.05 -44.7 -28.25 -44.8 -28.5 -44.95 -29.05 -45.25 -29.95 -45.7 Q-30.45 -46.0 -30.95 -46.25 L-35.3 -48.3 -30.95 -46.25 Q-30.45 -46.0 -29.95 -45.7 L-29.05 -45.25 -28.5 -44.95 -28.25 -44.8 -28.05 -44.7 -28.25 -43.85 -28.3 -43.9 -29.05 -44.4 Q-32.65 -46.75 -35.3 -48.3 -39.6 -50.2 -43.95 -51.5 L-49.25 -52.9 -45.95 -53.4 -45.1 -53.5 -43.0 -53.55 -41.8 -53.45 -40.65 -53.35 -37.65 -52.95 -37.3 -52.95 -35.9 -52.65 -34.95 -52.4 -33.75 -52.1 -33.55 -52.05 -31.75 -51.45 -29.85 -50.8 -28.55 -50.3 -28.25 -50.15 -27.55 -49.85 Q-18.65 -46.0 -9.55 -38.35 -16.05 -48.35 -25.7 -57.2 L-26.7 -58.1 -27.35 -58.7 -28.35 -59.55 -28.6 -59.8 -28.35 -59.55 -27.35 -58.7 Q-28.0 -57.1 -28.3 -54.55 L-28.55 -51.15 -28.5 -54.55 -28.6 -59.8 -35.0 -64.9 -39.9 -68.3 -44.7 -71.15 -45.55 -71.65 -45.0 -71.55 -37.8 -70.05 -37.75 -70.05 -37.4 -69.95 Q-33.35 -68.75 -29.65 -66.8 L-28.75 -66.35 -26.0 -64.7 -23.35 -62.85 Q-13.6 -55.55 -7.3 -42.45 L-6.3 -40.3 Q-3.65 -32.2 -1.8 -24.7 -4.0 -30.7 -8.2 -36.5 L-9.35 -38.05 -9.55 -38.35 -9.35 -38.05 -8.2 -36.5 Q-4.0 -30.7 -1.8 -24.7 -3.65 -32.2 -6.3 -40.3 L-7.9 -45.05 Q-13.2 -60.4 -19.05 -70.15 L-21.2 -73.5 -21.9 -74.5 Q-24.1 -77.55 -26.35 -79.9 L-24.75 -78.7 -21.3 -75.25 -20.6 -74.45 -17.95 -71.5 -13.85 -66.1 -13.6 -65.75 -13.15 -65.1 Q-7.8 -57.65 -3.9 -46.95 L-3.55 -46.05 Q-7.05 -63.6 -12.9 -75.65 L-15.0 -79.75 -15.15 -80.0 -17.25 -83.45 -13.9 -80.0 -13.15 -79.25 -11.0 -76.55 Q-7.55 -72.05 -4.85 -66.7 0.5 -56.0 1.85 -44.15 4.4 -64.55 0.4 -82.4 L3.05 -77.15 Q6.0 -70.45 7.5 -63.2 10.6 -48.25 6.4 -32.6 L8.05 -37.05 Q15.55 -59.2 11.25 -75.55 L13.45 -71.4 Q15.75 -65.95 16.15 -59.65 L16.2 -59.35 16.2 -59.05 16.25 -58.75 16.25 -58.45 16.25 -56.95 16.25 -56.65 16.25 -56.35 16.25 -56.1 16.25 -55.8 16.25 -55.55 Q16.75 -46.95 11.05 -36.55 L11.15 -36.7 11.3 -36.85 Q16.5 -43.05 21.45 -44.65 L22.0 -44.85 22.15 -44.9 22.3 -44.95 22.45 -45.0 22.6 -45.05 22.95 -45.1 23.1 -45.15 23.25 -45.15 23.4 -45.2 23.55 -45.2 23.7 -45.25 23.9 -45.25 24.1 -45.3 24.3 -45.3 25.5 -45.35 25.75 -45.3 Q24.85 -48.45 23.3 -50.8 20.85 -54.45 16.75 -56.3 L20.55 -56.35 Q22.9 -56.1 24.75 -55.15 L24.9 -55.05 Q26.35 -54.3 27.45 -53.1 L27.7 -52.85 27.75 -52.75 27.85 -52.65 27.9 -52.55 Q30.35 -49.6 30.75 -44.6 L30.8 -43.75 32.75 -42.2 Q37.55 -50.2 44.45 -55.4 52.5 -61.45 59.65 -62.05 44.45 -54.65 37.7 -43.4 30.9 -32.15 27.5 -21.85 L26.5 -19.95 30.5 -38.05 31.75 -40.4 32.75 -42.2 31.75 -40.4 30.5 -38.05 26.5 -19.95 27.5 -21.85 Q38.35 -41.7 48.65 -48.1 60.25 -55.25 66.95 -57.15 L67.6 -57.3 68.2 -57.45 M30.75 -40.6 L30.5 -38.05 30.75 -40.6 30.8 -43.75 30.75 -40.6 31.75 -40.4 30.75 -40.6 M25.75 -45.3 L26.65 -40.7 25.75 -45.3 M24.6 -16.25 L24.6 -16.35 24.9 -17.9 26.25 -27.35 26.9 -34.7 Q27.05 -37.25 26.65 -40.7 23.35 -40.3 19.85 -38.5 15.4 -36.3 10.7 -31.8 6.2 -27.55 0.45 -18.4 L0.15 -17.9 -0.05 -17.6 -0.25 -17.75 -8.65 -24.5 -9.1 -24.75 -8.4 -26.9 -7.8 -28.35 Q-3.8 -24.65 -0.25 -17.95 L-0.05 -17.6 0.15 -18.55 Q3.05 -33.65 1.85 -44.15 3.05 -33.65 0.15 -18.55 L-0.05 -17.6 -0.25 -17.95 Q-3.8 -24.65 -7.8 -28.35 L-8.4 -26.9 -9.1 -24.75 Q-11.35 -18.0 -12.7 -10.8 L-13.7 -4.6 -14.25 0.4 -13.7 -4.6 -13.1 -4.45 -12.95 -4.4 Q-11.1 -3.75 -9.5 -2.35 L-8.5 -4.1 Q-5.25 -9.35 -0.15 -13.95 L1.2 -15.1 Q3.8 -20.35 7.65 -24.35 L11.2 -27.4 Q8.4 -23.6 6.3 -19.0 L8.35 -20.35 Q7.0 -18.9 5.15 -16.25 1.9 -8.1 0.7 2.2 L0.4 5.35 0.8 5.1 1.45 4.65 1.75 4.45 Q4.2 -5.3 10.2 -14.5 13.2 -19.1 16.4 -22.75 20.0 -26.9 23.8 -29.8 18.55 -22.0 14.65 -12.9 11.8 -6.4 9.75 0.85 L12.4 0.1 18.5 -0.9 12.4 0.1 12.75 -0.3 20.05 -9.6 22.15 -12.1 22.7 -12.7 22.9 -12.9 23.05 -13.05 23.25 -13.3 23.7 -13.75 25.05 -15.05 25.4 -15.3 25.65 -15.5 26.35 -16.1 24.5 -15.7 24.55 -16.1 24.65 -16.25 24.6 -16.25 M26.5 -19.95 L25.5 -17.9 24.85 -16.45 24.75 -16.35 24.65 -16.25 24.75 -16.35 24.85 -16.45 25.5 -17.9 26.5 -19.95 M-0.65 -6.85 Q1.85 -11.7 4.95 -16.0 L5.15 -16.25 4.95 -16.0 Q1.85 -11.7 -0.65 -6.85 L-2.1 -3.95 -2.7 -2.65 -5.15 3.3 Q-4.05 5.45 -3.1 8.15 L-2.05 7.2 Q-2.55 -0.75 -0.65 -6.85 M6.3 -19.0 Q3.55 -17.15 1.2 -15.1 3.55 -17.15 6.3 -19.0 M3.75 -26.1 L6.4 -32.6 3.75 -26.1 Q5.35 -29.25 7.2 -31.55 L11.05 -36.55 7.2 -31.55 Q5.35 -29.25 3.75 -26.1 L3.6 -25.75 Q1.9 -22.5 0.45 -18.4 1.9 -22.5 3.6 -25.75 L3.75 -26.1 M0.4 5.35 L-0.35 5.85 -2.05 7.2 -0.35 5.85 0.4 5.35 M18.5 -0.9 L19.25 -1.0 18.35 -0.45 Q11.7 3.3 7.85 6.55 11.7 3.3 18.35 -0.45 L14.4 5.3 14.85 4.8 30.15 -8.8 30.45 -9.0 31.1 -9.45 36.5 -12.75 29.75 -14.7 29.3 -14.2 29.05 -13.95 28.35 -13.2 28.05 -12.85 27.9 -12.7 25.85 -10.35 24.95 -9.25 18.5 -0.9 M39.9 -23.75 L38.35 -22.6 36.1 -20.75 31.7 -16.65 29.75 -14.7 31.7 -16.65 36.1 -20.75 38.35 -22.6 39.9 -23.75 41.5 -25.0 38.35 -23.6 Q34.8 -21.95 31.5 -19.8 L31.05 -19.6 24.5 -15.7 25.05 -16.25 25.15 -16.35 26.8 -17.9 Q35.95 -26.35 46.95 -31.45 35.95 -26.35 26.8 -17.9 L25.15 -16.35 25.05 -16.25 24.5 -15.7 31.05 -19.6 31.5 -19.8 Q34.8 -21.95 38.35 -23.6 L41.5 -25.0 39.9 -23.75 42.05 -24.7 44.45 -25.7 42.05 -24.7 39.9 -23.75 M1.75 4.45 Q5.6 2.1 9.75 0.85 5.6 2.1 1.75 4.45 M26.35 -16.1 L26.55 -16.25 26.7 -16.35 28.05 -17.4 30.3 -19.0 31.5 -19.8 30.3 -19.0 28.05 -17.4 26.7 -16.35 26.55 -16.25 26.35 -16.1 M24.85 -16.45 L25.9 -17.9 29.95 -23.3 Q34.15 -29.05 42.05 -34.4 34.15 -29.05 29.95 -23.3 L25.9 -17.9 24.85 -16.45 M31.7 -16.65 Q37.7 -17.05 43.75 -16.4 40.2 -14.85 36.5 -12.75 40.2 -14.85 43.75 -16.4 37.7 -17.05 31.7 -16.65 M44.75 -16.15 Q41.65 -14.45 38.4 -12.0 41.65 -14.45 44.75 -16.15 M43.75 -16.4 L50.75 -19.05 44.9 -16.25 50.75 -19.05 43.75 -16.4 M58.5 -3.85 L50.6 -4.55 58.5 -3.85 M53.95 -1.5 L59.25 -2.55 53.95 -1.5 M45.0 -21.9 L42.75 -21.8 36.1 -20.75 42.75 -21.8 45.0 -21.9 M14.9 11.6 L16.35 10.2 Q32.3 -4.55 50.6 -4.55 45.05 -9.2 38.4 -12.0 28.95 -4.95 17.9 8.0 L17.5 8.5 16.8 9.3 15.2 11.25 14.9 11.6 10.7 16.9 10.6 17.0 8.65 19.6 5.75 23.5 4.4 25.45 Q6.95 22.4 9.85 19.95 L10.2 19.7 10.45 19.45 Q12.65 17.6 15.05 16.1 L16.45 15.25 15.05 16.1 Q12.65 17.6 10.45 19.45 L10.2 19.7 9.85 19.95 Q6.95 22.4 4.4 25.45 L5.75 23.5 8.65 19.6 10.6 17.0 10.7 16.9 14.9 11.6 M4.4 25.45 L1.05 30.6 Q5.75 26.9 8.65 25.2 L10.05 24.4 Q14.25 22.0 18.85 20.2 14.25 22.0 10.05 24.4 L8.65 25.2 Q5.75 26.9 1.05 30.6 L4.4 25.45 M0.15 -18.55 Q-0.05 -27.75 -0.45 -31.85 -1.2 -38.5 -3.2 -44.85 L-3.55 -46.05 -3.2 -44.85 Q-1.2 -38.5 -0.45 -31.85 -0.05 -27.75 0.15 -18.55 M-17.95 -38.05 L-21.1 -40.35 -17.95 -38.05 -19.5 -36.65 Q-16.15 -35.8 -13.2 -34.0 L-17.95 -38.05 M-7.8 -28.35 L-5.95 -33.0 -9.0 -29.7 -13.2 -34.0 -9.0 -29.7 -5.95 -33.0 -7.8 -28.35 M-16.9 -16.6 Q-14.9 -21.7 -11.7 -26.25 L-11.75 -26.25 -12.0 -26.4 -12.2 -26.5 -12.4 -26.6 -15.9 -28.2 -21.25 -29.95 -22.65 -30.4 -23.3 -30.55 -25.65 -31.05 -28.15 -31.45 -25.65 -31.05 -23.3 -30.55 Q-25.3 -25.6 -25.6 -18.3 L-25.6 -18.1 -25.65 -15.15 -25.6 -12.75 -25.55 -12.35 -25.55 -12.1 Q-26.65 -19.0 -26.45 -24.55 L-25.95 -29.6 -26.75 -25.95 -27.05 -23.95 Q-27.65 -19.65 -27.75 -15.3 -27.65 -19.65 -27.05 -23.95 L-26.75 -25.95 -25.95 -29.6 -26.45 -24.55 Q-26.65 -19.0 -25.55 -12.1 L-24.7 -7.3 -23.6 -2.5 -20.75 -4.15 -19.75 -4.5 Q-19.15 -10.9 -16.9 -16.6 M-19.9 -2.05 L-19.75 -4.5 -19.9 -2.05 -23.55 -2.3 Q-22.05 3.9 -19.7 11.0 L-19.4 11.9 -18.1 15.7 -18.6 13.45 Q-20.3 5.3 -19.9 -2.05 M-14.25 15.8 L-14.25 17.6 Q-14.1 24.7 -12.25 30.7 -15.3 23.7 -18.1 15.7 -15.3 23.7 -12.25 30.7 -14.1 24.7 -14.25 17.6 L-14.25 15.8 Q-14.2 11.85 -13.4 8.15 L-12.4 4.4 -11.75 2.45 -12.9 1.4 -14.15 0.5 -14.25 0.4 Q-14.9 8.3 -14.25 15.8 M-9.0 -29.7 L-11.7 -26.25 -9.0 -29.7 M-28.3 -43.9 L-28.5 -44.95 -28.3 -43.9 -29.05 -44.7 -29.95 -45.7 -29.05 -44.7 -28.3 -43.9 M-19.5 -36.65 L-24.5 -37.35 -25.25 -37.4 -24.5 -37.35 -19.5 -36.65 M-10.15 36.5 Q-15.6 29.15 -17.3 26.45 -21.25 19.95 -23.75 12.75 -21.25 19.95 -17.3 26.45 -15.6 29.15 -10.15 36.5 M-23.6 -2.5 L-23.55 -2.3 -23.6 -2.5 M-1.8 -24.7 L-0.25 -17.95 -1.8 -24.7 M-6.9 8.6 L-6.9 8.65 Q-8.05 12.55 -8.75 16.55 -7.55 13.5 -5.6 10.95 L-6.9 8.6 -6.8 8.3 -6.75 8.0 -5.15 3.3 -6.75 8.0 -6.8 8.3 -6.9 8.6 M-5.6 10.95 L-3.1 8.15 -5.6 10.95 M0.25 14.55 L-0.05 14.9 -0.1 15.0 -0.95 16.15 -1.5 16.95 -2.3 18.2 -1.5 16.95 -0.95 16.15 -0.1 15.0 -0.05 14.9 0.25 14.55 M-19.15 32.3 Q-26.75 29.75 -31.25 28.9 -26.75 29.75 -19.15 32.3 M-9.6 37.25 L-9.9 36.85 -9.6 37.25 M-12.25 30.7 L-9.1 37.45 Q-9.85 29.35 -9.75 26.65 -9.6 21.55 -8.75 16.55 -9.6 21.55 -9.75 26.65 -9.85 29.35 -9.1 37.45 L-12.25 30.7 M0.05 20.9 L-0.95 16.15 0.05 20.9 M-9.5 -2.35 Q-10.8 -0.05 -11.75 2.45 -10.8 -0.05 -9.5 -2.35" fill="#ffffff" fill-opacity="0.0" fill-rule="evenodd" stroke="none"/>
    <path d="M27.1 -60.25 Q26.65 -66.7 25.5 -70.3 L24.0 -74.8 Q17.6 -90.75 0.95 -100.55 L6.5 -99.5 Q13.1 -97.75 18.0 -94.4 25.1 -89.55 27.65 -82.15 26.3 -92.5 21.9 -102.85 19.1 -109.45 15.4 -115.25 L12.2 -119.7 Q28.6 -108.2 32.2 -92.7 32.85 -112.75 29.65 -123.15 L29.15 -125.5 27.0 -131.7 Q44.65 -112.6 37.65 -84.75 L37.1 -82.65 38.85 -87.15 Q49.65 -115.6 46.4 -130.3 49.7 -123.9 48.35 -110.65 47.0 -97.4 44.1 -88.75 L56.3 -122.6 Q57.9 -113.9 55.05 -101.8 L55.0 -101.5 Q52.25 -90.05 45.8 -80.25 60.8 -94.2 69.15 -110.45 67.85 -101.55 62.3 -91.2 55.45 -78.4 47.2 -72.5 L41.6 -68.7 44.7 -70.0 45.95 -70.75 Q65.9 -82.95 73.1 -98.25 72.6 -91.1 66.65 -82.95 60.35 -74.25 49.65 -68.8 59.85 -70.3 64.65 -65.95 68.35 -62.55 68.2 -57.45 L67.6 -57.3 Q60.35 -66.05 44.7 -65.05 L41.75 -64.65 Q38.95 -64.35 29.15 -61.5 L28.15 -60.95 27.75 -60.75 27.4 -60.6 27.35 -60.8 27.6 -61.3 27.35 -61.15 Q28.35 -68.35 28.3 -72.55 28.25 -77.6 27.65 -82.15 28.25 -77.6 28.3 -72.55 28.35 -68.35 27.35 -61.15 L27.6 -61.3 27.35 -60.8 27.4 -60.6 27.2 -60.5 27.1 -60.25 M45.8 -80.25 Q43.3 -76.5 39.65 -72.05 36.05 -67.65 27.6 -61.3 L27.7 -61.55 Q33.6 -68.45 36.55 -73.0 40.3 -78.8 42.85 -85.25 L42.85 -85.3 42.95 -85.55 44.1 -88.75 42.95 -85.55 42.85 -85.3 42.85 -85.25 Q40.3 -78.8 36.55 -73.0 33.6 -68.45 27.7 -61.55 L27.6 -61.3 Q36.05 -67.65 39.65 -72.05 43.3 -76.5 45.8 -80.25 M29.15 -61.5 L35.75 -65.2 Q41.85 -67.1 44.7 -67.8 L49.65 -68.8 44.7 -67.8 Q41.85 -67.1 35.75 -65.2 L29.15 -61.5 M37.1 -82.65 L33.0 -73.0 30.4 -67.5 32.0 -73.0 Q32.85 -76.7 33.1 -80.8 33.5 -87.05 32.2 -92.7 33.5 -87.05 33.1 -80.8 32.85 -76.7 32.0 -73.0 L30.4 -67.5 33.0 -73.0 37.1 -82.65 M27.2 -60.5 L27.35 -60.8 27.2 -60.5 M30.4 -67.5 L27.7 -61.55 30.4 -67.5 M27.35 -61.15 L27.35 -60.8 27.35 -61.15 M35.75 -65.2 L41.6 -68.7 35.75 -65.2 M-37.4 -69.95 Q-43.1 -89.1 -53.55 -103.6 L-49.05 -99.8 Q-43.7 -94.8 -39.5 -88.75 -32.15 -78.25 -29.65 -66.8 -33.35 -68.75 -37.4 -69.95 M-28.75 -66.35 Q-30.85 -88.65 -40.9 -101.6 L-37.25 -98.65 Q-33.0 -94.55 -30.35 -89.35 -27.75 -84.15 -27.1 -81.4 L-25.85 -76.0 Q-25.25 -73.3 -25.25 -67.3 L-25.15 -67.55 Q-23.25 -72.25 -21.9 -74.5 L-21.2 -73.5 -19.05 -70.15 Q-21.4 -67.15 -23.35 -62.85 L-26.0 -64.7 -28.75 -66.35 M-21.3 -75.25 L-20.0 -76.8 Q-17.45 -79.75 -15.15 -80.0 L-15.0 -79.75 -12.9 -75.65 Q-15.6 -74.2 -17.95 -71.5 L-20.6 -74.45 -21.3 -75.25 M-13.9 -80.0 Q-9.3 -80.9 -4.9 -77.6 -8.15 -77.7 -11.0 -76.55 L-13.15 -79.25 -13.9 -80.0 M-48.45 -54.35 Q-60.7 -57.5 -68.15 -58.0 -75.3 -58.5 -82.1 -57.75 L-87.55 -56.95 Q-64.35 -69.35 -44.95 -58.85 L-43.4 -58.0 Q-39.65 -55.8 -36.55 -53.2 L-35.9 -52.65 -36.55 -53.2 Q-39.65 -55.8 -43.4 -58.0 L-44.95 -58.85 Q-55.45 -66.05 -68.9 -70.6 -76.95 -73.3 -85.05 -74.75 L-91.55 -75.6 Q-66.55 -82.7 -44.9 -63.85 L-43.35 -62.45 -46.5 -66.0 Q-65.25 -86.6 -79.0 -91.45 L-75.2 -90.3 Q-67.4 -87.45 -60.25 -83.0 -50.2 -76.85 -42.95 -68.65 L-44.7 -71.15 -39.9 -68.3 -35.0 -64.9 -28.6 -59.8 -28.5 -54.55 -28.55 -51.15 -28.3 -54.55 Q-28.0 -57.1 -27.35 -58.7 L-26.7 -58.1 -25.7 -57.2 -25.85 -56.75 -26.7 -53.9 -27.55 -49.85 -28.25 -50.15 -28.55 -50.3 -28.55 -50.5 -28.55 -51.15 -28.55 -50.5 -28.55 -50.3 -29.85 -50.8 -31.75 -51.45 -33.25 -54.55 Q-37.25 -62.25 -42.95 -68.65 -37.25 -62.25 -33.25 -54.55 L-31.75 -51.45 -33.55 -52.05 -33.75 -52.1 -34.95 -52.4 -35.55 -53.2 -43.35 -62.45 -35.55 -53.2 -34.95 -52.4 -35.9 -52.65 -37.3 -52.95 -37.65 -52.95 -40.65 -53.35 -41.8 -53.45 -43.0 -53.55 -45.1 -53.5 -48.45 -54.35 -45.1 -53.5 -45.95 -53.4 -49.25 -52.9 -43.95 -51.5 Q-39.6 -50.2 -35.3 -48.3 -32.65 -46.75 -29.05 -44.4 L-28.3 -43.9 -28.25 -43.85 -29.05 -44.15 Q-35.2 -46.6 -42.15 -47.2 L-48.3 -47.35 -49.85 -48.15 -51.1 -48.7 -55.55 -50.2 -52.45 -48.15 -51.15 -47.15 -52.45 -48.15 -55.55 -50.2 -51.1 -48.7 -49.85 -48.15 -48.3 -47.35 Q-44.45 -45.3 -41.0 -42.15 -37.9 -39.3 -35.35 -35.85 L-39.25 -34.4 Q-44.7 -42.15 -51.15 -47.15 -56.25 -46.65 -61.2 -45.05 -55.15 -42.45 -49.7 -38.7 -45.7 -35.95 -42.3 -32.85 L-45.55 -31.05 -41.0 -31.65 Q-32.3 -23.25 -27.8 -12.2 L-27.75 -9.35 -27.65 -7.2 -27.5 -5.35 -27.45 -4.8 -27.4 -4.65 -30.45 -7.7 -32.6 -9.65 -30.45 -7.7 -27.4 -4.65 -27.4 -4.55 -27.25 -2.95 -29.8 -4.6 -27.25 -2.95 -27.05 -1.45 -27.0 -1.15 -26.95 -0.6 -29.5 -0.45 -29.75 -1.1 -30.15 -2.1 -31.25 -5.25 -29.8 -4.6 -31.35 -5.55 -32.15 -8.05 -32.6 -9.65 -33.95 -14.85 Q-35.2 -20.25 -35.55 -25.2 L-36.25 -19.35 -36.35 -17.3 -36.25 -12.6 -35.85 -8.25 -35.65 -6.9 Q-38.9 -7.9 -42.5 -8.55 L-44.0 -8.8 -44.85 -9.0 -46.9 -9.45 -49.0 -13.65 -48.25 -9.7 Q-58.85 -11.75 -70.75 -11.35 -79.25 -11.05 -87.35 -9.5 L-93.75 -8.0 Q-72.85 -23.45 -45.95 -13.5 L-43.8 -12.65 -48.2 -14.95 Q-73.0 -27.55 -87.6 -27.3 L-83.65 -27.55 Q-75.35 -27.6 -67.05 -26.0 L-65.0 -25.55 -64.2 -25.4 Q-54.25 -23.15 -45.8 -18.65 -65.6 -32.4 -81.55 -36.1 L-75.65 -35.9 Q-68.3 -35.2 -61.0 -32.65 -49.75 -28.7 -40.6 -21.15 -50.95 -35.0 -63.45 -44.3 -69.55 -42.1 -75.55 -38.25 L-72.1 -42.75 Q-69.9 -45.25 -67.5 -47.2 L-68.1 -47.6 -67.3 -47.3 Q-64.95 -49.25 -59.9 -51.95 -55.35 -54.35 -48.45 -54.35 M-26.0 -64.7 L-25.25 -67.3 -26.0 -64.7 M-45.0 -71.55 Q-57.65 -89.2 -70.25 -97.6 L-64.8 -95.35 Q-58.2 -92.1 -52.25 -87.1 L-50.0 -85.1 -49.75 -84.9 -38.1 -70.6 -37.75 -70.05 -37.8 -70.05 -45.0 -71.55 M-35.0 -64.9 Q-32.65 -60.0 -30.9 -54.55 L-29.85 -50.8 -30.9 -54.55 Q-32.65 -60.0 -35.0 -64.9 M-67.3 -47.3 L-62.55 -45.65 -61.2 -45.05 -62.55 -45.65 -67.3 -47.3 M-67.5 -47.2 L-63.45 -44.3 -67.5 -47.2 M-43.8 -12.65 L-35.85 -8.25 -43.8 -12.65 M-47.85 -7.6 L-46.6 -3.2 -57.1 -1.7 Q-61.3 -0.9 -84.25 6.2 -73.4 -8.3 -47.85 -7.6 M-46.45 -2.7 L-44.1 3.5 Q-46.75 4.7 -49.25 6.2 -51.15 3.3 -52.55 0.35 -49.7 -1.65 -46.45 -2.7 M-40.05 1.9 L-43.45 -3.3 -45.85 -7.45 -35.6 -6.45 -35.25 -4.35 -34.95 -2.85 -34.2 0.3 -37.5 1.1 -40.05 1.9 M-27.8 -12.6 L-31.1 -20.25 Q-34.1 -26.65 -37.55 -31.85 L-32.7 -31.85 Q-30.45 -28.05 -28.75 -23.6 -28.6 -19.85 -27.75 -15.3 L-27.8 -12.6 M-33.95 -14.85 Q-30.65 -11.3 -27.65 -7.2 -30.65 -11.3 -33.95 -14.85 M-27.05 -1.45 L-30.15 -2.1 -27.05 -1.45 M-36.25 -12.6 Q-40.8 -16.05 -45.8 -18.65 -40.8 -16.05 -36.25 -12.6 M-36.35 -17.3 L-40.6 -21.15 -36.35 -17.3 M-34.95 -2.85 L-43.45 -3.3 -34.95 -2.85 M-51.2 7.4 Q-59.2 12.65 -65.6 21.25 -65.15 19.0 -63.95 15.85 -61.55 9.5 -57.65 5.0 -55.5 2.5 -53.05 0.7 L-52.65 3.0 -51.2 7.4" fill="#000000" fill-opacity="0.101960786" fill-rule="evenodd" stroke="none"/>
    <path d="M9.8 27.65 L9.05 41.1 M27.1 -60.25 Q26.25 -58.65 24.9 -55.05 M21.45 -44.65 L23.3 -50.8 M19.85 -38.5 Q18.0 -31.15 16.4 -22.75 M14.65 -12.9 L12.75 -0.3 M0.15 31.25 Q-0.45 36.9 -1.25 41.1 M6.3 41.1 Q6.85 34.65 8.1 28.05 M-24.75 -37.9 Q-26.3 -41.0 -28.15 -43.7 L-28.25 -43.85 M-21.25 -29.95 Q-18.85 -23.8 -16.9 -16.6 M-12.9 1.4 L-12.4 4.4 M-9.15 41.1 L-9.1 37.45 M-13.9 35.65 L-13.55 41.1" fill="none" stroke="#000000" stroke-linecap="round" stroke-linejoin="miter-clip" stroke-miterlimit="3.0" stroke-opacity="0.6" stroke-width="1.0"/>
    <path d="M27.1 -60.25 Q26.65 -66.7 25.5 -70.3 L24.0 -74.8 Q17.6 -90.75 0.95 -100.55 L6.5 -99.5 Q13.1 -97.75 18.0 -94.4 25.1 -89.55 27.65 -82.15 26.3 -92.5 21.9 -102.85 19.1 -109.45 15.4 -115.25 L12.2 -119.7 Q28.6 -108.2 32.2 -92.7 32.85 -112.75 29.65 -123.15 L29.15 -125.5 27.0 -131.7 Q44.65 -112.6 37.65 -84.75 L37.1 -82.65 38.85 -87.15 Q49.65 -115.6 46.4 -130.3 49.7 -123.9 48.35 -110.65 47.0 -97.4 44.1 -88.75 L56.3 -122.6 Q57.9 -113.9 55.05 -101.8 L55.0 -101.5 Q52.25 -90.05 45.8 -80.25 60.8 -94.2 69.15 -110.45 67.85 -101.55 62.3 -91.2 55.45 -78.4 47.2 -72.5 L41.6 -68.7 44.7 -70.0 45.95 -70.75 Q65.9 -82.95 73.1 -98.25 72.6 -91.1 66.65 -82.95 60.35 -74.25 49.65 -68.8 59.85 -70.3 64.65 -65.95 68.35 -62.55 68.2 -57.45 L71.9 -58.25 68.1 -56.05 67.7 -55.85 Q53.95 -47.65 42.05 -34.4 44.1 -35.85 46.3 -37.1 53.8 -41.4 62.25 -43.7 L62.85 -43.85 63.45 -44.0 Q75.5 -47.05 84.25 -45.55 L78.35 -44.45 78.1 -44.4 76.55 -44.05 47.95 -32.05 46.95 -31.45 Q52.05 -33.6 57.65 -34.95 62.85 -36.25 68.45 -36.8 L68.85 -36.85 Q82.3 -38.15 92.1 -35.8 77.35 -38.85 49.05 -27.6 L44.45 -25.7 46.65 -26.35 Q74.4 -33.75 93.75 -16.4 84.65 -20.1 71.2 -21.85 57.4 -23.65 45.0 -21.9 L45.9 -21.9 Q61.0 -21.55 71.65 -12.55 L71.9 -12.35 73.8 -10.7 75.15 -9.4 Q78.7 -5.9 81.95 -1.4 75.6 -6.55 65.0 -10.9 54.95 -15.05 44.9 -16.25 L44.75 -16.15 Q51.8 -13.65 56.6 -6.85 L58.5 -3.85 62.65 -3.0 59.25 -2.55 Q62.35 3.4 63.0 10.1 58.95 3.45 53.95 -1.5 47.55 -0.05 40.15 2.7 26.75 7.7 16.45 15.25 L17.25 14.8 Q33.4 7.6 44.35 10.65 L45.95 10.95 46.55 11.1 47.7 11.4 49.2 11.8 52.05 12.75 Q55.6 14.0 59.25 15.8 51.2 14.2 39.8 15.3 28.55 16.4 18.85 20.2 26.55 18.85 34.25 22.8 42.75 27.15 47.8 34.8 31.25 24.9 14.15 26.95 L9.8 27.65 8.1 28.05 Q6.0 28.6 4.05 29.3 L0.15 31.25 Q5.95 16.65 11.55 9.0 L14.15 5.65 14.4 5.3 18.35 -0.45 19.25 -1.0 18.5 -0.9 12.4 0.1 9.75 0.85 Q5.6 2.1 1.75 4.45 4.2 -5.3 10.2 -14.5 13.2 -19.1 16.4 -22.75 20.0 -26.9 23.8 -29.8 18.55 -22.0 14.65 -12.9 11.8 -6.4 9.75 0.85 M44.1 -88.75 L42.95 -85.55 42.85 -85.3 42.85 -85.25 Q40.3 -78.8 36.55 -73.0 33.6 -68.45 27.7 -61.55 L27.6 -61.3 Q36.05 -67.65 39.65 -72.05 43.3 -76.5 45.8 -80.25 M27.5 -21.85 Q30.9 -32.15 37.7 -43.4 44.45 -54.65 59.65 -62.05 52.5 -61.45 44.45 -55.4 37.55 -50.2 32.75 -42.2 L31.75 -40.4 30.5 -38.05 26.5 -19.95 27.5 -21.85 Q38.35 -41.7 48.65 -48.1 60.25 -55.25 66.95 -57.15 L67.6 -57.3 Q60.35 -66.05 44.7 -65.05 L41.75 -64.65 Q38.95 -64.35 29.15 -61.5 L28.15 -60.95 27.75 -60.75 27.2 -60.5 27.1 -60.25 M24.9 -55.05 Q26.35 -54.3 27.45 -53.1 L27.7 -52.85 27.75 -52.75 27.85 -52.65 27.9 -52.55 Q30.35 -49.6 30.75 -44.6 L30.8 -43.75 32.75 -42.2 M49.65 -68.8 L44.7 -67.8 Q41.85 -67.1 35.75 -65.2 L29.15 -61.5 M67.6 -57.3 L68.2 -57.45 M32.2 -92.7 Q33.5 -87.05 33.1 -80.8 32.85 -76.7 32.0 -73.0 L30.4 -67.5 33.0 -73.0 37.1 -82.65 M-11.0 -76.55 Q-7.55 -72.05 -4.85 -66.7 0.5 -56.0 1.85 -44.15 4.4 -64.55 0.4 -82.4 L3.05 -77.15 Q6.0 -70.45 7.5 -63.2 10.6 -48.25 6.4 -32.6 L8.05 -37.05 Q15.55 -59.2 11.25 -75.55 L13.45 -71.4 Q15.75 -65.95 16.15 -59.65 L16.2 -59.35 16.2 -59.05 16.25 -58.75 16.25 -58.45 16.25 -56.95 16.25 -56.65 16.25 -56.35 16.25 -56.1 16.25 -55.8 16.25 -55.55 Q16.75 -46.95 11.05 -36.55 L11.15 -36.7 11.3 -36.85 Q16.5 -43.05 21.45 -44.65 L22.0 -44.85 22.15 -44.9 22.3 -44.95 22.45 -45.0 22.6 -45.05 22.95 -45.1 23.1 -45.15 23.25 -45.15 23.4 -45.2 23.55 -45.2 23.7 -45.25 23.9 -45.25 24.1 -45.3 24.3 -45.3 25.5 -45.35 25.75 -45.3 Q24.85 -48.45 23.3 -50.8 20.85 -54.45 16.75 -56.3 L20.55 -56.35 Q22.9 -56.1 24.75 -55.15 L24.9 -55.05 M27.65 -82.15 Q28.25 -77.6 28.3 -72.55 28.35 -68.35 27.35 -61.15 L27.6 -61.3 27.35 -60.8 27.4 -60.6 M27.35 -60.8 L27.2 -60.5 M27.35 -60.8 L27.35 -61.15 M27.7 -61.55 L30.4 -67.5 M30.8 -43.75 L30.75 -40.6 31.75 -40.4 M30.5 -38.05 L30.75 -40.6 M26.65 -40.7 L25.75 -45.3 M24.6 -16.25 L24.6 -16.35 24.9 -17.9 26.25 -27.35 26.9 -34.7 Q27.05 -37.25 26.65 -40.7 23.35 -40.3 19.85 -38.5 15.4 -36.3 10.7 -31.8 6.2 -27.55 0.45 -18.4 L0.15 -17.9 -0.05 -17.6 -0.25 -17.75 -0.15 -13.95 1.2 -15.1 Q3.8 -20.35 7.65 -24.35 L11.2 -27.4 Q8.4 -23.6 6.3 -19.0 L8.35 -20.35 Q7.0 -18.9 5.15 -16.25 1.9 -8.1 0.7 2.2 L0.4 5.35 0.8 5.1 1.45 4.65 1.75 4.45 M12.75 -0.3 L20.05 -9.6 22.15 -12.1 22.7 -12.7 22.9 -12.9 23.05 -13.05 23.25 -13.3 23.7 -13.75 24.45 -15.5 24.45 -15.55 24.5 -15.7 24.55 -16.1 24.6 -16.25 M24.65 -16.25 L24.75 -16.35 24.85 -16.45 25.5 -17.9 26.5 -19.95 M11.05 -36.55 L7.2 -31.55 Q5.35 -29.25 3.75 -26.1 L3.6 -25.75 Q1.9 -22.5 0.45 -18.4 M6.4 -32.6 L3.75 -26.1 M1.2 -15.1 Q3.55 -17.15 6.3 -19.0 M5.15 -16.25 L4.95 -16.0 Q1.85 -11.7 -0.65 -6.85 -2.55 -0.75 -2.05 7.2 L-0.35 5.85 0.4 5.35 M46.95 -31.45 Q35.95 -26.35 26.8 -17.9 L25.15 -16.35 25.05 -16.25 24.5 -15.7 31.05 -19.6 31.5 -19.8 Q34.8 -21.95 38.35 -23.6 L41.5 -25.0 39.9 -23.75 42.05 -24.7 44.45 -25.7 M29.75 -14.7 L31.7 -16.65 36.1 -20.75 38.35 -22.6 39.9 -23.75 M23.7 -13.75 L25.05 -15.05 25.4 -15.3 25.65 -15.5 26.35 -16.1 24.5 -15.7 M24.65 -16.25 L24.55 -16.1 M31.5 -19.8 L30.3 -19.0 28.05 -17.4 26.7 -16.35 26.55 -16.25 26.35 -16.1 M18.5 -0.9 L24.95 -9.25 25.85 -10.35 27.9 -12.7 28.05 -12.85 28.35 -13.2 29.05 -13.95 29.3 -14.2 29.75 -14.7 36.5 -12.75 Q40.2 -14.85 43.75 -16.4 37.7 -17.05 31.7 -16.65 M42.05 -34.4 Q34.15 -29.05 29.95 -23.3 L25.9 -17.9 24.85 -16.45 M36.5 -12.75 L31.1 -9.45 30.45 -9.0 30.15 -8.8 14.85 4.8 14.4 5.3 M1.85 -44.15 Q3.05 -33.65 0.15 -18.55 L-0.05 -17.6 -0.25 -17.95 Q-3.8 -24.65 -7.8 -28.35 L-8.4 -26.9 -9.1 -24.75 -8.65 -24.5 -0.25 -17.75 M36.1 -20.75 L42.75 -21.8 45.0 -21.9 M59.25 -2.55 L53.95 -1.5 M50.6 -4.55 L58.5 -3.85 M44.9 -16.25 L50.75 -19.05 43.75 -16.4 M38.4 -12.0 Q41.65 -14.45 44.75 -16.15 M38.4 -12.0 Q45.05 -9.2 50.6 -4.55 32.3 -4.55 16.35 10.2 L14.9 11.6 10.7 16.9 10.6 17.0 8.65 19.6 5.75 23.5 4.4 25.45 Q6.95 22.4 9.85 19.95 L10.2 19.7 10.45 19.45 Q12.65 17.6 15.05 16.1 L16.45 15.25 M41.6 -68.7 L35.75 -65.2 M38.4 -12.0 Q28.95 -4.95 17.9 8.0 L17.5 8.5 16.8 9.3 15.2 11.25 14.9 11.6 M0.55 29.25 Q3.45 15.25 7.85 6.55 4.3 9.55 1.4 13.05 L0.25 14.55 -0.05 17.7 0.05 20.9 0.15 22.55 0.45 28.0 0.55 29.25 0.15 31.25 M18.85 20.2 Q14.25 22.0 10.05 24.4 L8.65 25.2 Q5.75 26.9 1.05 30.6 L4.4 25.45 M18.35 -0.45 Q11.7 3.3 7.85 6.55 M12.4 0.1 L12.75 -0.3 M-37.4 -69.95 Q-43.1 -89.1 -53.55 -103.6 L-49.05 -99.8 Q-43.7 -94.8 -39.5 -88.75 -32.15 -78.25 -29.65 -66.8 L-28.75 -66.35 Q-30.85 -88.65 -40.9 -101.6 L-37.25 -98.65 Q-33.0 -94.55 -30.35 -89.35 -27.75 -84.15 -27.1 -81.4 L-25.85 -76.0 Q-25.25 -73.3 -25.25 -67.3 L-25.15 -67.55 Q-23.25 -72.25 -21.9 -74.5 -24.1 -77.55 -26.35 -79.9 L-24.75 -78.7 -21.3 -75.25 -20.0 -76.8 Q-17.45 -79.75 -15.15 -80.0 L-17.25 -83.45 -13.9 -80.0 Q-9.3 -80.9 -4.9 -77.6 -8.15 -77.7 -11.0 -76.55 L-13.15 -79.25 -13.9 -80.0 M-44.95 -58.85 Q-64.35 -69.35 -87.55 -56.95 L-82.1 -57.75 Q-75.3 -58.5 -68.15 -58.0 -60.7 -57.5 -48.45 -54.35 L-45.1 -53.5 -43.0 -53.55 -41.8 -53.45 -40.65 -53.35 -37.65 -52.95 -37.3 -52.95 -35.9 -52.65 -36.55 -53.2 Q-39.65 -55.8 -43.4 -58.0 L-44.95 -58.85 Q-55.45 -66.05 -68.9 -70.6 -76.95 -73.3 -85.05 -74.75 L-91.55 -75.6 Q-66.55 -82.7 -44.9 -63.85 L-43.35 -62.45 -46.5 -66.0 Q-65.25 -86.6 -79.0 -91.45 L-81.55 -92.25 M-48.25 -9.7 Q-58.85 -11.75 -70.75 -11.35 -79.25 -11.05 -87.35 -9.5 L-93.75 -8.0 Q-72.85 -23.45 -45.95 -13.5 L-43.8 -12.65 -48.2 -14.95 Q-73.0 -27.55 -87.6 -27.3 L-90.3 -27.15 M-87.6 -27.3 L-83.65 -27.55 Q-75.35 -27.6 -67.05 -26.0 L-65.0 -25.55 -64.2 -25.4 Q-54.25 -23.15 -45.8 -18.65 -65.6 -32.4 -81.55 -36.1 L-75.65 -35.9 Q-68.3 -35.2 -61.0 -32.65 -49.75 -28.7 -40.6 -21.15 -50.95 -35.0 -63.45 -44.3 -69.55 -42.1 -75.55 -38.25 L-72.1 -42.75 Q-69.9 -45.25 -67.5 -47.2 L-68.1 -47.6 -67.3 -47.3 Q-64.95 -49.25 -59.9 -51.95 -55.35 -54.35 -48.45 -54.35 M-12.9 -75.65 L-15.0 -79.75 -15.15 -80.0 M-21.3 -75.25 L-20.6 -74.45 -17.95 -71.5 Q-15.6 -74.2 -12.9 -75.65 -7.05 -63.6 -3.55 -46.05 L-3.2 -44.85 Q-1.2 -38.5 -0.45 -31.85 -0.05 -27.75 0.15 -18.55 M-25.25 -67.3 L-26.0 -64.7 -23.35 -62.85 Q-21.4 -67.15 -19.05 -70.15 L-21.2 -73.5 -21.9 -74.5 M-26.0 -64.7 L-28.75 -66.35 M-45.0 -71.55 Q-57.65 -89.2 -70.25 -97.6 L-64.8 -95.35 Q-58.2 -92.1 -52.25 -87.1 L-50.0 -85.1 -49.75 -84.9 -38.1 -70.6 -37.75 -70.05 -37.4 -69.95 Q-33.35 -68.75 -29.65 -66.8 M-37.8 -70.05 L-45.0 -71.55 -45.55 -71.65 -44.7 -71.15 -39.9 -68.3 -35.0 -64.9 -28.6 -59.8 -28.35 -59.55 -27.35 -58.7 -26.7 -58.1 -25.7 -57.2 Q-16.05 -48.35 -9.55 -38.35 L-9.35 -38.05 -8.2 -36.5 Q-4.0 -30.7 -1.8 -24.7 -3.65 -32.2 -6.3 -40.3 L-7.3 -42.45 Q-13.6 -55.55 -23.35 -62.85 M-42.95 -68.65 Q-37.25 -62.25 -33.25 -54.55 L-31.75 -51.45 -29.85 -50.8 -30.9 -54.55 Q-32.65 -60.0 -35.0 -64.9 M-34.95 -52.4 L-33.75 -52.1 -33.55 -52.05 -31.75 -51.45 M-34.95 -52.4 L-35.55 -53.2 -43.35 -62.45 M-35.9 -52.65 L-34.95 -52.4 M-25.7 -57.2 L-25.85 -56.75 -26.7 -53.9 -27.55 -49.85 Q-18.65 -46.0 -9.55 -38.35 M-28.55 -50.3 L-28.25 -50.15 -27.55 -49.85 M-28.55 -50.3 L-28.55 -50.5 -28.55 -51.15 -28.5 -54.55 -28.6 -59.8 M-29.85 -50.8 L-28.55 -50.3 M-28.55 -51.15 L-28.3 -54.55 Q-28.0 -57.1 -27.35 -58.7 M-17.95 -71.5 L-13.85 -66.1 -13.6 -65.75 -13.15 -65.1 Q-7.8 -57.65 -3.9 -46.95 L-3.55 -46.05 M-79.0 -91.45 L-75.2 -90.3 Q-67.4 -87.45 -60.25 -83.0 -50.2 -76.85 -42.95 -68.65 L-44.7 -71.15 M-45.1 -53.5 L-45.95 -53.4 -49.25 -52.9 -43.95 -51.5 Q-39.6 -50.2 -35.3 -48.3 L-30.95 -46.25 Q-30.45 -46.0 -29.95 -45.7 L-29.05 -45.25 -28.5 -44.95 -28.25 -44.8 -28.05 -44.7 -27.4 -44.3 Q-24.1 -42.45 -21.1 -40.35 L-17.95 -38.05 -13.2 -34.0 -9.0 -29.7 -5.95 -33.0 -7.8 -28.35 M-48.3 -47.35 L-42.15 -47.2 Q-35.2 -46.6 -29.05 -44.15 L-28.25 -43.85 -28.3 -43.9 -29.05 -44.4 Q-32.65 -46.75 -35.3 -48.3 M-51.15 -47.15 L-52.45 -48.15 -55.55 -50.2 -51.1 -48.7 -49.85 -48.15 -48.3 -47.35 Q-44.45 -45.3 -41.0 -42.15 -37.9 -39.3 -35.35 -35.85 -31.9 -36.95 -28.55 -37.25 L-28.25 -37.25 -25.25 -37.4 -24.75 -37.9 -24.4 -38.25 -24.35 -38.3 Q-22.85 -39.65 -21.1 -40.35 M-41.0 -31.65 L-45.55 -31.05 -42.3 -32.85 Q-45.7 -35.95 -49.7 -38.7 -55.15 -42.45 -61.2 -45.05 L-62.55 -45.65 -67.3 -47.3 M-42.3 -32.85 L-40.6 -33.8 -39.25 -34.4 Q-44.7 -42.15 -51.15 -47.15 -56.25 -46.65 -61.2 -45.05 M-63.45 -44.3 L-67.5 -47.2 M-46.9 -9.45 L-44.85 -9.0 -44.0 -8.8 -42.5 -8.55 Q-38.9 -7.9 -35.65 -6.9 L-35.85 -8.25 -43.8 -12.65 M-48.25 -9.7 L-47.85 -7.6 -46.6 -3.2 -46.5 -2.9 -46.45 -2.7 -44.1 3.5 -43.0 5.9 Q-35.15 22.15 -21.1 31.05 L-19.15 32.3 Q-16.1 34.05 -9.9 36.85 L-10.15 36.5 Q-22.4 25.2 -26.95 17.55 -34.4 10.0 -40.05 1.9 L-43.45 -3.3 -45.85 -7.45 -46.3 -8.25 -46.9 -9.45 -49.0 -13.65 -48.25 -9.7 M-46.6 -3.2 L-57.1 -1.7 Q-61.3 -0.9 -84.25 6.2 -73.4 -8.3 -47.85 -7.6 M-6.3 -40.3 L-7.9 -45.05 Q-13.2 -60.4 -19.05 -70.15 M-16.9 -16.6 Q-14.9 -21.7 -11.7 -26.25 L-11.75 -26.25 -12.0 -26.4 -12.2 -26.5 -12.4 -26.6 -15.9 -28.2 -21.25 -29.95 -22.65 -30.4 -23.3 -30.55 -25.65 -31.05 -28.15 -31.45 Q-28.95 -28.1 -28.75 -23.6 -30.45 -28.05 -32.7 -31.85 L-28.15 -31.45 M-16.9 -16.6 Q-19.15 -10.9 -19.75 -4.5 L-19.9 -2.05 Q-20.3 5.3 -18.6 13.45 L-18.1 15.7 Q-15.3 23.7 -12.25 30.7 -14.1 24.7 -14.25 17.6 L-14.25 15.8 Q-14.9 8.3 -14.25 0.4 L-13.7 -4.6 -12.7 -10.8 Q-11.35 -18.0 -9.1 -24.75 M-17.95 -38.05 L-19.5 -36.65 Q-16.15 -35.8 -13.2 -34.0 M-11.7 -26.25 L-9.0 -29.7 M-28.05 -44.7 L-28.25 -43.85 M-28.3 -43.9 L-29.05 -44.7 -29.95 -45.7 M-28.5 -44.95 L-28.3 -43.9 M-25.25 -37.4 L-24.5 -37.35 -19.5 -36.65 M-37.55 -31.85 L-38.95 -31.8 -41.0 -31.65 Q-32.3 -23.25 -27.8 -12.2 L-27.8 -12.6 -31.1 -20.25 Q-34.1 -26.65 -37.55 -31.85 L-32.7 -31.85 M-39.25 -34.4 L-35.35 -35.85 M-27.75 -15.3 Q-27.65 -19.65 -27.05 -23.95 L-26.75 -25.95 -25.95 -29.6 -26.45 -24.55 Q-26.65 -19.0 -25.55 -12.1 L-25.55 -12.35 -25.6 -12.75 -25.65 -15.15 -25.6 -18.1 -25.6 -18.3 Q-25.3 -25.6 -23.3 -30.55 M-27.8 -12.6 L-27.75 -15.3 Q-28.6 -19.85 -28.75 -23.6 M-31.35 -5.55 L-32.15 -8.05 -32.6 -9.65 -33.95 -14.85 Q-35.2 -20.25 -35.55 -25.2 L-36.25 -19.35 -36.35 -17.3 -36.25 -12.6 -35.85 -8.25 M-32.6 -9.65 L-30.45 -7.7 -27.4 -4.65 -27.45 -4.8 -27.5 -5.35 -27.65 -7.2 Q-30.65 -11.3 -33.95 -14.85 M-35.65 -6.9 L-35.6 -6.45 -35.25 -4.35 -34.95 -2.85 -34.2 0.3 Q-31.8 9.4 -26.95 17.55 M-31.25 -5.25 L-31.35 -5.55 -29.8 -4.6 -27.25 -2.95 -27.4 -4.55 -27.4 -4.65 M-27.8 -12.2 L-27.75 -9.35 -27.65 -7.2 M-29.5 -0.45 L-29.75 -1.1 -30.15 -2.1 -31.25 -5.25 -29.8 -4.6 M-26.95 -0.6 L-26.85 -0.05 -26.8 0.35 -24.2 11.25 -23.75 12.75 Q-21.25 19.95 -17.3 26.45 -15.6 29.15 -10.15 36.5 M-27.25 -2.95 L-27.05 -1.45 -27.0 -1.15 -26.95 -0.6 -29.5 -0.45 Q-27.1 5.9 -23.75 12.75 M-30.15 -2.1 L-27.05 -1.45 M-23.55 -2.3 L-23.6 -2.5 -24.7 -7.3 -25.55 -12.1 M-23.6 -2.5 L-20.75 -4.15 -19.75 -4.5 M-0.25 -17.95 L-1.8 -24.7 M-13.7 -4.6 L-13.1 -4.45 -12.95 -4.4 Q-11.1 -3.75 -9.5 -2.35 L-8.5 -4.1 Q-5.25 -9.35 -0.15 -13.95 M-0.65 -6.85 L-2.1 -3.95 -2.7 -2.65 -5.15 3.3 Q-4.05 5.45 -3.1 8.15 L-2.05 7.2 M-19.9 -2.05 L-23.55 -2.3 Q-22.05 3.9 -19.7 11.0 L-19.4 11.9 -18.1 15.7 M-45.85 -7.45 L-35.6 -6.45 M-43.45 -3.3 L-34.95 -2.85 M-40.6 -21.15 L-36.35 -17.3 M-45.8 -18.65 Q-40.8 -16.05 -36.25 -12.6 M-6.9 8.6 L-6.9 8.65 Q-8.05 12.55 -8.75 16.55 -7.55 13.5 -5.6 10.95 L-6.9 8.6 -6.8 8.3 -6.75 8.0 -5.15 3.3 M-3.1 8.15 L-5.6 10.95 M-12.4 4.4 L-11.75 2.45 -12.9 1.4 -14.15 0.5 -14.25 0.4 M-14.25 15.8 Q-14.2 11.85 -13.4 8.15 L-12.4 4.4 M-2.3 18.2 L-1.5 16.95 -0.95 16.15 -0.1 15.0 -0.05 14.9 0.25 14.55 M-34.2 0.3 L-37.5 1.1 -40.05 1.9 M-13.9 35.65 Q-18.4 34.05 -20.7 33.7 L-23.2 33.25 -24.35 33.1 -25.05 33.0 -25.2 32.95 -25.4 32.95 -26.45 32.8 Q-44.65 30.8 -50.2 41.5 -50.4 39.85 -50.05 37.7 -49.3 33.45 -46.4 31.05 -41.45 26.9 -31.25 28.9 -41.75 22.9 -47.7 13.95 -49.85 10.75 -51.2 7.4 -59.2 12.65 -65.6 21.25 -65.15 19.0 -63.95 15.85 -61.55 9.5 -57.65 5.0 -55.5 2.5 -53.05 0.7 L-53.45 -1.65 -52.55 0.35 Q-49.7 -1.65 -46.45 -2.7 M-21.1 31.05 Q-24.25 29.25 -27.5 27.05 -41.95 17.35 -49.25 6.2 -51.15 3.3 -52.55 0.35 M-9.1 37.45 L-9.6 37.25 -13.9 35.65 M-9.1 37.45 Q-7.9 29.6 -5.95 25.3 -4.05 21.0 -2.3 18.2 -1.0 21.7 0.45 28.0 M-8.75 16.55 Q-9.6 21.55 -9.75 26.65 -9.85 29.35 -9.1 37.45 L-12.25 30.7 M-9.9 36.85 L-9.6 37.25 M-31.25 28.9 Q-26.75 29.75 -19.15 32.3 M-44.1 3.5 Q-46.75 4.7 -49.25 6.2 M-53.05 0.7 L-52.65 3.0 -51.2 7.4 M-11.75 2.45 Q-10.8 -0.05 -9.5 -2.35 M-0.95 16.15 L0.05 20.9" fill="none" stroke="#000000" stroke-linecap="round" stroke-linejoin="miter-clip" stroke-miterlimit="3.0" stroke-opacity="0.4" stroke-width="1.0"/>
  </g>
</svg>
