<?xml version="1.0" encoding="UTF-8" standalone="no"?>
<svg xmlns:xlink="http://www.w3.org/1999/xlink" height="26.65px" width="37.15px" xmlns="http://www.w3.org/2000/svg">
  <g transform="matrix(1.0, 0.0, 0.0, 1.0, 19.65, 7.2)">
    <path d="M17.0 -6.7 L17.0 18.95 -19.15 18.95 -19.15 -6.7 17.0 -6.7" fill="#ffffff" fill-opacity="0.0" fill-rule="evenodd" stroke="none"/>
    <path d="M17.0 -6.7 L17.0 18.95 -19.15 18.95 -19.15 -6.7 17.0 -6.7 Z" fill="none" stroke="#000000" stroke-linecap="round" stroke-linejoin="miter-clip" stroke-miterlimit="3.0" stroke-opacity="0.6" stroke-width="1.0"/>
    <path d="M8.15 -1.6 L-11.0 -1.6 -11.0 -3.95 8.15 -3.95 8.15 -1.6 M11.9 3.3 L-15.1 3.3 -15.1 1.8 11.9 1.8 11.9 3.3 M9.4 9.4 L-15.1 9.4 -15.1 7.9 9.4 7.9 9.4 9.4 M8.9 6.4 L-15.1 6.4 -15.1 4.9 8.9 4.9 8.9 6.4 M6.65 16.2 L14.25 16.2 14.25 17.0 6.65 17.0 6.65 16.2 M4.6 13.4 Q5.2 14.0 5.2 14.8 5.2 15.6 4.6 16.15 4.05 16.75 3.25 16.75 2.45 16.75 1.85 16.15 1.3 15.6 1.3 14.8 1.3 14.0 1.85 13.4 2.45 12.85 3.25 12.85 4.05 12.85 4.6 13.4 M-15.35 12.65 L-15.35 11.15 -6.5 11.15 -6.5 12.65 -15.35 12.65" fill="#000000" fill-opacity="0.3019608" fill-rule="evenodd" stroke="none"/>
  </g>
</svg>
