<?xml version="1.0" encoding="UTF-8" standalone="no"?>
<svg xmlns:xlink="http://www.w3.org/1999/xlink" height="179.4px" width="711.2px" xmlns="http://www.w3.org/2000/svg">
  <g transform="matrix(1.0, 0.0, 0.0, 1.0, 1.85, 0.5)">
    <path d="M583.95 87.1 L583.95 97.55 587.2 99.6 Q463.45 98.3 358.5 100.6 167.3 104.6 153.85 119.2 131.1 144.15 104.0 177.7 L101.2 178.45 0.0 178.45 136.5 97.55 136.5 65.05 150.05 65.05 149.8 65.3 Q146.1 69.05 146.1 74.35 146.1 79.65 149.8 83.35 153.55 87.1 158.85 87.1 L160.35 87.05 160.35 87.1 583.95 87.1 M511.6 32.5 L210.2 32.5 210.2 0.0 223.75 0.0 223.5 0.25 Q219.8 4.0 219.8 9.3 219.8 14.6 223.5 18.3 227.25 22.05 232.55 22.05 L234.05 22.0 234.05 22.05 511.6 22.05 511.6 32.5 M541.15 54.6 L547.1 54.6 547.1 65.0 172.25 65.0 172.25 32.5 185.8 32.5 185.55 32.75 Q181.85 36.5 181.85 41.8 181.85 47.1 185.55 50.8 189.3 54.55 194.6 54.55 L196.1 54.5 196.1 54.55 541.15 54.55 541.15 54.6" fill="#000000" fill-opacity="0.4" fill-rule="evenodd" stroke="none"/>
    <path d="M583.95 97.5 L707.75 178.4 0.0 178.4 136.5 97.5 136.5 65.0 172.25 65.0 172.25 32.5 210.2 32.5 210.2 0.0 511.35 0.0 511.35 32.5 547.1 32.5 547.1 65.0 583.95 65.0 583.95 97.5 136.5 97.5 583.95 97.5 M210.2 32.5 L511.35 32.5 210.2 32.5 M172.25 65.0 L547.1 65.0 172.25 65.0" fill="#ffffff" fill-opacity="0.0" fill-rule="evenodd" stroke="none"/>
    <path d="M583.95 97.5 L707.75 178.4 0.0 178.4 136.5 97.5 136.5 65.0 172.25 65.0 172.25 32.5 210.2 32.5 210.2 0.0 511.35 0.0 511.35 32.5 547.1 32.5 547.1 65.0 583.95 65.0 583.95 97.5" fill="none" stroke="#000000" stroke-linecap="round" stroke-linejoin="miter-clip" stroke-miterlimit="4.0" stroke-width="1.0"/>
    <path d="M583.95 97.5 L136.5 97.5 M547.1 65.0 L172.25 65.0 M511.35 32.5 L210.2 32.5" fill="none" stroke="#000000" stroke-linecap="round" stroke-linejoin="miter-clip" stroke-miterlimit="4.0" stroke-opacity="0.4" stroke-width="1.0"/>
  </g>
</svg>
