<?xml version="1.0" encoding="UTF-8" standalone="no"?>
<svg xmlns:xlink="http://www.w3.org/1999/xlink" height="45.4px" width="732.4px" xmlns="http://www.w3.org/2000/svg">
  <g transform="matrix(1.0, 0.0, 0.0, 1.0, 0.5, 0.5)">
    <path d="M0.0 0.0 L731.4 0.0 731.4 34.45 720.95 29.2 706.75 29.2 707.2 28.75 Q710.85 25.15 710.85 19.95 710.85 14.75 707.2 11.05 703.55 7.45 698.35 7.45 693.15 7.45 689.5 11.05 685.85 14.75 685.85 19.95 685.85 25.15 689.5 28.75 L690.0 29.2 651.25 29.2 651.7 28.75 Q655.35 25.15 655.35 19.95 655.35 14.75 651.7 11.05 648.05 7.45 642.85 7.45 637.65 7.45 634.0 11.05 630.35 14.75 630.35 19.95 630.35 25.15 634.0 28.75 L634.5 29.2 595.75 29.2 596.2 28.75 Q599.85 25.15 599.85 19.95 599.85 14.75 596.2 11.05 592.55 7.45 587.35 7.45 582.15 7.45 578.5 11.05 574.85 14.75 574.85 19.95 574.85 25.15 578.5 28.75 L579.0 29.2 540.25 29.2 540.7 28.75 Q544.35 25.15 544.35 19.95 544.35 14.75 540.7 11.05 537.05 7.45 531.85 7.45 526.65 7.45 523.0 11.05 519.35 14.75 519.35 19.95 519.35 25.15 523.0 28.75 L523.5 29.2 484.75 29.2 485.2 28.75 Q488.85 25.15 488.85 19.95 488.85 14.75 485.2 11.05 481.55 7.45 476.35 7.45 471.15 7.45 467.5 11.05 463.85 14.75 463.85 19.95 463.85 25.15 467.5 28.75 L467.95 29.2 429.25 29.2 429.7 28.75 Q433.35 25.15 433.35 19.95 433.35 14.75 429.7 11.05 426.05 7.45 420.85 7.45 415.65 7.45 412.0 11.05 408.35 14.75 408.35 19.95 408.35 25.15 412.0 28.75 L412.45 29.2 373.75 29.2 374.2 28.75 Q377.85 25.15 377.85 19.95 377.85 14.75 374.2 11.05 370.55 7.45 365.35 7.45 360.15 7.45 356.5 11.05 352.85 14.75 352.85 19.95 352.85 25.15 356.5 28.75 L357.0 29.2 318.25 29.2 318.7 28.75 Q322.35 25.15 322.35 19.95 322.35 14.75 318.7 11.05 315.05 7.45 309.85 7.45 304.65 7.45 301.0 11.05 297.35 14.75 297.35 19.95 297.35 25.15 301.0 28.75 L301.5 29.2 262.75 29.2 263.2 28.75 Q266.85 25.15 266.85 19.95 266.85 14.75 263.2 11.05 259.55 7.45 254.35 7.45 249.15 7.45 245.5 11.05 241.85 14.75 241.85 19.95 241.85 25.15 245.5 28.75 L246.0 29.2 207.25 29.2 207.7 28.75 Q211.35 25.15 211.35 19.95 211.35 14.75 207.7 11.05 204.05 7.45 198.85 7.45 193.65 7.45 190.0 11.05 186.35 14.75 186.35 19.95 186.35 25.15 190.0 28.75 L190.5 29.2 151.75 29.2 152.2 28.75 Q155.85 25.15 155.85 19.95 155.85 14.75 152.2 11.05 148.55 7.45 143.35 7.45 138.15 7.45 134.5 11.05 130.85 14.75 130.85 19.95 130.85 25.15 134.5 28.75 L135.0 29.2 96.25 29.2 96.7 28.75 Q100.35 25.15 100.35 19.95 100.35 14.75 96.7 11.05 93.05 7.45 87.85 7.45 82.65 7.45 79.0 11.05 75.35 14.75 75.35 19.95 75.35 25.15 79.0 28.75 L79.5 29.2 40.75 29.2 41.2 28.75 Q44.85 25.15 44.85 19.95 44.85 14.75 41.2 11.05 37.55 7.45 32.35 7.45 27.15 7.45 23.5 11.05 19.85 14.75 19.85 19.95 19.85 25.15 23.5 28.75 L24.0 29.2 6.7 29.2 6.7 7.5 0.0 0.0 M6.7 7.5 L726.4 5.1 726.4 0.6 11.95 0.6 6.7 7.5" fill="#ffffff" fill-opacity="0.0" fill-rule="evenodd" stroke="none"/>
    <path d="M6.7 7.5 L11.95 0.6 726.4 0.6 726.4 5.1 6.7 7.5" fill="#ffffff" fill-opacity="0.7019608" fill-rule="evenodd" stroke="none"/>
    <path d="M0.0 0.0 L6.7 7.5 6.7 29.2 24.0 29.2 23.5 28.75 Q19.85 25.15 19.85 19.95 19.85 14.75 23.5 11.05 27.15 7.45 32.35 7.45 37.55 7.45 41.2 11.05 44.85 14.75 44.85 19.95 44.85 25.15 41.2 28.75 L40.75 29.2 79.5 29.2 79.0 28.75 Q75.35 25.15 75.35 19.95 75.35 14.75 79.0 11.05 82.65 7.45 87.85 7.45 93.05 7.45 96.7 11.05 100.35 14.75 100.35 19.95 100.35 25.15 96.7 28.75 L96.25 29.2 135.0 29.2 134.5 28.75 Q130.85 25.15 130.85 19.95 130.85 14.75 134.5 11.05 138.15 7.45 143.35 7.45 148.55 7.45 152.2 11.05 155.85 14.75 155.85 19.95 155.85 25.15 152.2 28.75 L151.75 29.2 190.5 29.2 190.0 28.75 Q186.35 25.15 186.35 19.95 186.35 14.75 190.0 11.05 193.65 7.45 198.85 7.45 204.05 7.45 207.7 11.05 211.35 14.75 211.35 19.95 211.35 25.15 207.7 28.75 L207.25 29.2 246.0 29.2 245.5 28.75 Q241.85 25.15 241.85 19.95 241.85 14.75 245.5 11.05 249.15 7.45 254.35 7.45 259.55 7.45 263.2 11.05 266.85 14.75 266.85 19.95 266.85 25.15 263.2 28.75 L262.75 29.2 301.5 29.2 301.0 28.75 Q297.35 25.15 297.35 19.95 297.35 14.75 301.0 11.05 304.65 7.45 309.85 7.45 315.05 7.45 318.7 11.05 322.35 14.75 322.35 19.95 322.35 25.15 318.7 28.75 L318.25 29.2 357.0 29.2 356.5 28.75 Q352.85 25.15 352.85 19.95 352.85 14.75 356.5 11.05 360.15 7.45 365.35 7.45 370.55 7.45 374.2 11.05 377.85 14.75 377.85 19.95 377.85 25.15 374.2 28.75 L373.75 29.2 412.45 29.2 412.0 28.75 Q408.35 25.15 408.35 19.95 408.35 14.75 412.0 11.05 415.65 7.45 420.85 7.45 426.05 7.45 429.7 11.05 433.35 14.75 433.35 19.95 433.35 25.15 429.7 28.75 L429.25 29.2 467.95 29.2 467.5 28.75 Q463.85 25.15 463.85 19.95 463.85 14.75 467.5 11.05 471.15 7.45 476.35 7.45 481.55 7.45 485.2 11.05 488.85 14.75 488.85 19.95 488.85 25.15 485.2 28.75 L484.75 29.2 523.5 29.2 523.0 28.75 Q519.35 25.15 519.35 19.95 519.35 14.75 523.0 11.05 526.65 7.45 531.85 7.45 537.05 7.45 540.7 11.05 544.35 14.75 544.35 19.95 544.35 25.15 540.7 28.75 L540.25 29.2 579.0 29.2 578.5 28.75 Q574.85 25.15 574.85 19.95 574.85 14.75 578.5 11.05 582.15 7.45 587.35 7.45 592.55 7.45 596.2 11.05 599.85 14.75 599.85 19.95 599.85 25.15 596.2 28.75 L595.75 29.2 634.5 29.2 634.0 28.75 Q630.35 25.15 630.35 19.95 630.35 14.75 634.0 11.05 637.65 7.45 642.85 7.45 648.05 7.45 651.7 11.05 655.35 14.75 655.35 19.95 655.35 25.15 651.7 28.75 L651.25 29.2 690.0 29.2 689.5 28.75 Q685.85 25.15 685.85 19.95 685.85 14.75 689.5 11.05 693.15 7.45 698.35 7.45 703.55 7.45 707.2 11.05 710.85 14.75 710.85 19.95 710.85 25.15 707.2 28.75 L706.75 29.2 720.95 29.2 731.4 34.45 719.4 44.4 6.8 44.4 0.0 34.45 0.0 0.0 M0.0 34.45 L731.4 34.45 0.0 34.45" fill="#000000" fill-opacity="0.4" fill-rule="evenodd" stroke="none"/>
    <path d="M731.4 34.45 L731.4 0.0 0.0 0.0 0.0 34.45 6.8 44.4 719.4 44.4 731.4 34.45" fill="none" stroke="#000000" stroke-linecap="round" stroke-linejoin="miter-clip" stroke-miterlimit="4.0" stroke-width="1.0"/>
    <path d="M731.4 34.45 L0.0 34.45" fill="none" stroke="#000000" stroke-linecap="round" stroke-linejoin="miter-clip" stroke-miterlimit="4.0" stroke-opacity="0.4" stroke-width="1.0"/>
  </g>
</svg>
