<?xml version="1.0" encoding="UTF-8" standalone="no"?>
<svg xmlns:xlink="http://www.w3.org/1999/xlink" height="175.8px" width="119.15px" xmlns="http://www.w3.org/2000/svg">
  <g transform="matrix(1.0, 0.0, 0.0, 1.0, 59.8, 110.2)">
    <path d="M-0.15 -73.0 L-0.4 -72.8 -0.5 -72.7 -1.7 -74.5 Q-2.2 -72.7 -3.4 -71.25 -4.85 -69.4 -5.55 -71.6 -6.75 -68.3 -8.9 -66.9 -11.2 -65.4 -10.3 -70.0 L-13.15 -67.15 Q-14.85 -65.55 -16.5 -65.1 -16.5 -66.45 -15.65 -68.45 -23.25 -62.75 -21.3 -67.2 L-25.25 -67.0 Q-24.3 -68.9 -22.0 -70.45 -27.1 -69.85 -26.9 -72.25 -19.25 -72.8 -12.65 -74.65 -6.2 -76.65 -2.8 -78.9 0.55 -81.15 0.6 -85.15 L0.6 -86.0 0.55 -86.35 0.45 -86.65 -2.75 -83.6 Q-5.05 -81.85 -5.55 -84.15 -6.35 -82.3 -7.9 -81.35 -9.55 -80.35 -9.0 -83.2 -10.95 -80.6 -12.1 -80.55 L-12.15 -82.6 Q-13.85 -79.35 -15.55 -78.95 L-15.55 -81.65 -15.5 -81.7 -15.55 -81.7 -15.55 -81.65 Q-16.9 -80.15 -18.7 -80.55 L-18.6 -81.7 Q-19.6 -81.15 -22.5 -80.95 -21.5 -82.0 -20.15 -82.7 -22.3 -81.75 -25.15 -82.75 -28.25 -83.9 -28.15 -86.4 L-23.55 -86.25 -19.1 -86.5 -9.1 -89.3 -11.2 -90.8 Q-7.6 -91.7 -6.5 -92.35 L-8.9 -93.1 Q-3.95 -94.15 -1.9 -96.55 -3.4 -95.75 -5.45 -95.75 -6.5 -95.75 -8.15 -96.7 -3.4 -97.95 -0.1 -104.0 1.45 -107.9 2.75 -109.15 3.75 -105.2 6.55 -101.5 7.8 -99.85 9.45 -98.8 11.8 -97.35 14.5 -97.5 L9.6 -97.1 Q10.25 -93.6 18.75 -90.45 26.15 -87.7 30.6 -87.8 L28.75 -87.35 29.65 -86.25 Q28.15 -85.05 26.9 -85.8 27.75 -83.95 25.15 -83.75 22.95 -83.55 21.3 -84.25 L21.8 -82.75 Q19.55 -82.7 17.2 -83.65 L18.0 -82.1 13.0 -84.15 12.95 -82.75 Q11.55 -82.7 9.55 -84.8 L9.5 -82.75 Q7.35 -82.5 6.15 -85.4 7.9 -78.0 17.9 -75.65 25.5 -73.9 34.05 -75.4 34.7 -72.75 32.35 -71.55 30.35 -70.45 27.85 -71.0 27.35 -69.15 23.9 -69.7 L19.0 -70.95 19.25 -69.55 Q16.85 -69.7 14.8 -71.3 L15.2 -69.85 Q12.0 -70.35 9.85 -72.85 L9.9 -71.15 Q8.4 -71.75 7.65 -72.65 L8.2 -70.15 7.65 -70.3 Q6.2 -70.85 4.55 -72.6 2.6 -74.65 2.35 -76.3 L-0.15 -73.0 2.35 -76.3 Q2.6 -74.65 4.55 -72.6 6.2 -70.85 7.65 -70.3 L10.1 -68.15 Q13.55 -65.85 20.2 -66.9 L24.4 -67.85 Q22.15 -65.05 21.15 -65.45 L21.15 -65.3 Q20.95 -64.45 20.2 -64.15 L18.95 -64.05 Q18.7 -62.55 16.1 -62.35 13.55 -62.1 12.6 -63.0 14.5 -61.0 18.4 -60.15 L25.05 -59.15 Q36.4 -57.55 40.65 -60.25 39.6 -57.9 37.65 -57.2 L39.4 -57.2 Q38.25 -55.9 35.45 -55.3 37.25 -55.2 37.85 -53.4 L33.25 -53.1 Q34.25 -53.05 34.9 -52.25 35.6 -51.35 35.05 -50.5 34.6 -49.8 32.4 -49.65 L31.1 -49.65 30.4 -49.65 29.8 -49.0 Q29.3 -48.65 28.65 -48.55 28.15 -48.45 26.0 -50.05 25.95 -49.5 26.2 -49.1 24.6 -49.0 22.2 -50.25 L22.95 -48.4 Q20.9 -48.6 18.95 -49.85 19.2 -49.3 19.25 -47.8 18.1 -47.8 14.95 -49.9 15.1 -49.15 14.85 -47.5 13.0 -47.9 11.35 -50.6 L10.75 -48.1 Q9.05 -49.2 7.35 -51.45 L6.1 -47.9 Q5.05 -49.25 4.3 -51.15 L4.05 -50.9 Q4.0 -48.45 4.45 -47.45 5.75 -44.2 10.5 -42.45 14.35 -41.0 18.65 -41.1 18.05 -39.1 15.8 -38.9 13.75 -38.65 12.1 -39.85 12.7 -38.55 11.0 -38.65 9.4 -38.75 8.4 -39.6 13.0 -34.3 22.95 -34.95 L38.55 -37.85 Q37.85 -35.4 35.15 -33.9 38.2 -34.2 39.7 -32.75 38.25 -31.55 36.7 -31.85 35.2 -30.45 32.9 -31.5 31.55 -32.05 30.45 -33.35 L31.55 -30.85 Q29.45 -29.75 25.95 -31.65 27.35 -28.85 24.7 -28.7 22.15 -28.55 20.6 -30.35 21.75 -27.7 20.1 -27.35 18.6 -27.05 16.75 -28.8 17.15 -28.0 17.05 -26.4 14.05 -26.4 12.7 -29.4 L12.65 -26.4 Q10.95 -26.35 9.2 -28.95 L9.15 -26.95 Q8.1 -27.3 7.9 -27.55 L4.9 -27.1 Q7.4 -27.25 13.0 -24.85 11.8 -23.75 10.3 -23.5 L11.3 -23.25 Q14.8 -22.35 17.0 -22.4 15.75 -21.4 12.8 -20.8 14.8 -21.15 16.75 -19.95 L14.95 -18.95 21.15 -19.2 20.35 -18.25 28.0 -17.9 Q25.75 -17.0 24.05 -16.65 L28.6 -16.5 34.65 -16.1 30.95 -14.6 Q40.25 -13.45 39.8 -12.95 34.9 -7.65 26.95 -13.05 L27.45 -10.8 Q25.6 -10.6 24.0 -12.2 L24.95 -8.9 Q23.95 -8.95 20.9 -10.75 21.3 -10.05 21.45 -8.25 20.45 -8.35 17.7 -10.65 L18.3 -7.95 Q17.15 -8.65 14.9 -10.65 L14.95 -10.45 14.85 -7.65 14.35 -7.7 Q12.3 -8.25 10.8 -11.75 11.3 -9.5 11.1 -7.65 9.35 -7.75 7.35 -10.65 L7.3 -7.0 Q6.05 -7.3 3.3 -8.85 L2.9 -5.75 Q1.6 -7.6 1.05 -9.4 -0.45 -5.95 -1.8 -4.75 -2.95 -6.35 -2.7 -9.1 -4.85 -5.15 -8.0 -3.55 -8.05 -4.6 -7.25 -6.35 -6.35 -8.3 -6.25 -9.1 -7.7 -6.7 -9.2 -5.45 L-10.6 -4.55 Q-11.5 -4.2 -12.45 -4.2 L-12.4 -4.5 -12.35 -4.8 -12.3 -5.0 -12.05 -5.85 -11.55 -6.9 -10.9 -8.0 -10.85 -8.1 Q-13.75 -5.35 -16.05 -3.75 -17.5 -2.75 -18.7 -2.25 L-18.65 -2.65 Q-18.4 -4.05 -17.3 -5.15 -22.9 -0.65 -25.05 -0.75 -24.75 -2.15 -22.05 -5.45 -25.75 -3.05 -28.45 -2.3 L-26.1 -5.1 Q-30.9 -3.2 -32.8 -2.9 -31.6 -4.35 -28.35 -6.05 L-34.2 -5.2 Q-38.15 -5.1 -38.85 -7.55 -37.5 -8.6 -34.2 -8.6 L-36.65 -9.9 Q-35.55 -10.6 -32.6 -10.5 -35.6 -11.9 -36.25 -13.2 L-27.05 -11.5 Q-20.6 -10.75 -18.8 -13.85 -23.6 -13.9 -26.2 -17.05 -14.7 -16.75 -12.2 -21.1 L-14.6 -22.0 Q-10.6 -21.9 -8.7 -24.6 L-10.15 -24.9 Q-7.85 -25.8 -7.15 -27.05 L-10.55 -27.4 Q-11.9 -26.15 -13.05 -26.1 -12.95 -26.65 -13.35 -27.2 L-16.6 -25.6 Q-19.35 -24.5 -18.3 -26.3 -19.75 -23.95 -20.75 -24.85 -21.8 -25.8 -20.95 -28.15 L-23.6 -25.35 Q-25.35 -23.75 -26.9 -23.9 -26.75 -24.9 -25.1 -27.25 L-30.35 -26.4 Q-30.45 -27.5 -29.2 -28.65 L-27.1 -30.25 Q-37.75 -29.35 -38.55 -34.15 L-32.0 -34.25 Q-28.2 -34.25 -25.5 -34.95 -15.15 -37.5 -11.55 -39.35 -8.8 -40.75 -6.7 -42.15 L-6.55 -42.25 Q-3.9 -43.9 -1.2 -47.55 L-0.75 -48.35 -0.7 -48.5 -0.6 -48.95 Q-0.45 -47.95 0.45 -47.1 2.95 -49.75 3.25 -53.3 3.2 -52.6 3.65 -50.6 3.2 -52.6 3.25 -53.3 2.95 -49.75 0.45 -47.1 -0.45 -47.95 -0.6 -48.95 L-0.75 -48.5 -1.0 -48.0 -1.85 -46.95 -1.95 -46.9 -2.0 -46.85 -2.1 -46.8 Q-3.2 -46.2 -3.65 -48.0 -4.05 -46.9 -5.25 -45.4 -5.7 -47.15 -5.6 -48.05 -6.35 -47.5 -7.75 -45.45 -9.05 -43.6 -10.25 -43.05 L-9.05 -48.7 -12.4 -45.3 Q-14.8 -43.25 -14.9 -46.2 -15.3 -44.45 -17.2 -42.7 -18.1 -43.55 -18.2 -44.5 -19.55 -42.55 -20.9 -42.45 L-21.05 -44.6 Q-22.1 -42.75 -23.1 -42.15 L-22.9 -44.3 Q-24.5 -42.5 -26.2 -41.85 -28.15 -41.05 -26.65 -44.2 -28.6 -42.5 -29.75 -42.05 -31.35 -41.5 -29.75 -44.5 L-32.85 -42.15 -31.75 -44.65 -35.4 -44.65 Q-35.3 -46.05 -33.25 -47.4 -35.2 -47.35 -36.8 -48.65 L-39.5 -51.2 Q-33.95 -47.7 -22.55 -50.9 -10.1 -54.5 -8.4 -58.05 -10.6 -55.95 -11.5 -58.35 -12.1 -57.55 -13.7 -56.95 L-13.45 -58.1 -15.9 -57.25 -16.0 -58.1 -18.4 -57.25 -18.15 -58.95 -20.75 -59.05 -23.05 -60.0 -16.25 -60.9 Q-11.9 -61.3 -9.4 -62.15 -3.55 -64.2 -0.9 -70.55 -0.45 -71.65 -0.15 -73.0 M20.85 8.3 L21.05 8.45 Q27.85 13.15 39.15 12.9 35.45 17.6 29.35 14.45 33.45 17.65 40.55 17.65 38.75 18.95 34.75 18.9 L43.8 20.05 Q50.0 20.75 53.25 18.95 53.65 21.3 51.25 22.7 48.85 24.05 46.55 22.9 L49.45 25.35 Q47.85 26.2 45.5 24.85 L47.75 28.2 Q45.85 28.4 43.7 27.45 43.85 28.0 43.6 29.5 39.7 30.15 38.85 27.75 39.2 28.85 39.0 29.75 38.05 29.7 34.9 27.85 L35.35 30.4 Q34.2 30.45 32.6 29.75 30.85 28.9 29.95 28.6 L30.85 31.05 Q29.45 30.85 27.7 29.8 25.8 28.55 24.8 28.05 25.35 29.65 24.65 31.05 23.6 30.7 21.65 29.35 19.8 28.1 18.6 27.8 18.9 28.5 18.85 30.35 17.65 30.05 15.95 28.65 L13.8 27.1 13.6 27.0 13.8 27.15 13.9 27.25 14.05 27.4 14.95 28.4 15.75 29.4 16.7 30.6 20.7 35.65 21.55 36.75 Q23.95 39.8 27.15 41.85 L29.35 43.1 Q31.05 43.95 35.15 44.3 39.05 44.7 40.45 45.5 39.3 46.3 36.55 46.85 L45.1 47.5 40.95 49.05 46.0 49.65 Q49.3 49.85 50.85 50.55 L46.65 52.2 Q48.65 53.2 52.5 53.65 56.7 54.15 58.3 54.75 55.2 56.9 49.0 56.9 53.05 58.7 53.65 59.4 54.75 60.6 44.75 59.6 42.7 60.45 40.85 60.35 39.9 60.3 38.0 59.45 36.15 58.6 35.15 58.5 L36.1 60.3 Q31.3 57.85 28.75 57.55 L29.95 60.1 Q26.7 60.1 25.0 57.9 26.75 60.75 24.35 60.05 L19.4 57.9 Q20.0 59.15 20.25 60.95 18.55 61.25 16.15 59.1 L14.95 57.9 Q15.75 59.75 15.55 61.25 13.05 61.0 11.05 58.75 11.35 59.55 11.15 61.3 9.7 60.3 9.2 59.5 L9.35 60.55 9.4 61.05 9.55 62.4 9.25 62.15 8.65 61.75 Q7.55 61.0 6.8 60.2 5.95 59.3 5.5 58.25 5.5 60.35 4.75 61.85 L2.2 56.3 1.05 62.75 0.35 61.55 -0.6 58.55 -0.6 58.6 -1.5 61.15 Q-2.1 62.6 -3.15 63.15 L-4.3 60.7 Q-5.2 62.8 -6.55 63.45 -8.1 64.2 -8.35 61.0 -10.65 63.3 -11.95 63.8 L-11.35 61.8 -13.45 63.95 Q-14.7 65.25 -16.0 65.05 -16.2 63.3 -15.35 61.3 L-13.7 57.9 -16.35 60.95 Q-18.1 62.85 -19.65 63.15 -18.4 59.2 -18.1 57.3 -22.3 62.7 -24.7 62.2 L-24.75 60.45 Q-25.65 61.9 -27.75 62.55 L-27.35 60.35 Q-28.6 62.1 -30.8 64.05 -29.1 59.7 -27.1 57.0 L-32.2 61.0 Q-35.3 63.6 -37.5 64.4 -37.05 62.6 -35.9 61.1 L-38.65 63.2 Q-40.35 64.3 -41.9 64.1 -42.1 62.1 -40.0 60.45 -42.6 62.35 -44.6 62.85 -44.15 61.1 -42.95 60.25 -44.0 60.35 -46.65 62.45 -49.0 64.4 -50.95 64.1 -50.55 62.5 -47.4 59.75 -55.9 63.8 -57.0 61.85 -57.75 60.5 -51.8 57.85 -53.95 58.1 -58.3 56.3 L-44.05 53.95 Q-35.3 52.55 -29.8 51.15 -20.4 48.75 -15.7 45.2 L-15.25 44.9 -14.85 44.55 -14.05 43.9 Q-10.15 40.85 -7.3 37.5 L-4.9 34.2 Q-2.7 30.9 -2.45 30.1 -1.4 31.3 -0.15 31.2 L0.45 31.0 Q1.4 30.45 1.0 28.35 3.5 30.55 5.1 31.05 5.3 30.75 5.5 27.55 L5.55 27.0 6.1 27.55 8.85 30.1 8.9 27.1 Q12.0 30.1 13.0 30.45 13.85 28.35 13.1 26.75 L13.6 27.0 13.1 26.75 Q13.85 28.35 13.0 30.45 12.0 30.1 8.9 27.1 L8.85 30.1 6.1 27.55 5.55 27.0 5.5 27.55 Q5.3 30.75 5.1 31.05 3.5 30.55 1.0 28.35 1.4 30.45 0.45 31.0 L-0.15 31.2 Q-1.4 31.3 -2.45 30.1 L-2.5 30.05 -2.75 29.8 -3.0 29.4 -3.1 29.3 Q-3.4 31.0 -4.2 32.35 -5.25 31.25 -5.9 29.6 -7.95 32.2 -9.55 32.65 L-9.7 29.55 -14.95 33.55 -15.05 33.6 -14.95 32.9 Q-14.6 31.5 -13.1 29.3 L-13.3 29.55 -13.35 29.6 -14.55 30.75 -14.8 30.95 -14.95 31.05 -15.6 31.55 -15.65 31.6 Q-17.25 32.8 -18.8 32.65 L-17.85 30.25 Q-20.85 33.15 -22.4 33.6 -22.8 32.3 -21.7 30.25 -23.8 32.65 -25.4 32.65 -25.4 31.15 -24.25 29.95 L-27.7 33.05 Q-30.2 34.95 -32.3 34.5 -31.9 32.95 -30.5 30.75 L-28.25 27.1 Q-33.5 32.2 -36.05 31.95 -34.75 29.4 -33.45 27.95 L-37.15 30.7 Q-39.5 32.1 -41.55 31.7 -41.45 30.35 -39.3 28.2 -43.25 31.2 -47.0 31.05 -46.05 29.35 -43.45 26.35 -48.75 29.25 -49.2 27.2 -49.3 26.65 -48.05 25.45 -46.8 24.25 -46.2 24.15 L-51.35 23.95 Q-53.25 23.05 -54.2 20.15 -44.75 21.55 -35.7 19.4 -28.0 17.6 -18.5 12.6 L-12.75 9.05 -12.5 9.5 Q-11.45 10.35 -9.8 7.9 L-9.45 7.4 -8.7 6.05 -8.05 4.45 -8.05 5.6 -8.0 7.4 -8.0 8.4 Q-7.55 8.25 -7.15 7.75 -6.45 6.9 -5.85 5.05 -5.75 5.9 -4.95 6.85 -3.6 6.15 -3.35 4.15 -3.15 4.75 -1.5 5.9 -1.3 4.05 -1.45 3.2 L1.15 6.3 Q2.8 8.1 4.45 8.1 4.65 6.95 4.2 4.15 4.6 5.3 8.25 7.7 L7.45 4.45 Q9.85 6.75 12.35 7.45 12.4 5.9 12.05 5.1 13.15 6.3 16.4 7.8 16.45 6.2 16.15 5.4 17.8 7.2 19.15 8.05 L20.85 8.7 20.85 8.3 M12.0 -56.5 Q10.5 -56.95 7.45 -58.55 L7.3 -56.55 Q5.5 -57.6 4.1 -59.0 L3.5 -56.6 Q2.25 -58.45 1.95 -59.7 L-0.55 -56.95 -0.05 -60.2 Q-3.15 -57.0 -6.45 -57.0 L-0.6 -64.05 -6.45 -57.0 Q-3.15 -57.0 -0.05 -60.2 L-0.55 -56.95 1.95 -59.7 Q2.25 -58.45 3.5 -56.6 L4.1 -59.0 Q5.5 -57.6 7.3 -56.55 L7.45 -58.55 Q10.5 -56.95 12.0 -56.5 M36.2 -32.0 L36.7 -31.85 36.2 -32.0 M4.05 -50.9 L3.65 -50.6 4.05 -50.9 M5.9 -31.2 L5.8 -31.6 5.8 -31.3 5.9 -31.2 6.7 -29.25 7.9 -27.55 6.7 -29.25 5.9 -31.2 M-8.25 -28.65 L-8.35 -27.95 Q-7.65 -28.2 -6.9 -28.8 L-5.55 -30.0 -4.35 -31.35 Q-6.1 -27.5 -3.65 -29.25 L-3.5 -29.35 -0.65 -31.8 0.45 -32.85 Q0.25 -31.85 0.65 -29.95 L3.15 -32.7 Q3.1 -30.95 4.35 -30.15 5.5 -29.4 5.8 -31.3 5.5 -29.4 4.35 -30.15 3.1 -30.95 3.15 -32.7 L0.65 -29.95 Q0.25 -31.85 0.45 -32.85 L-0.65 -31.8 -3.5 -29.35 -3.65 -29.25 Q-6.1 -27.5 -4.35 -31.35 L-5.55 -30.0 -6.9 -28.8 Q-7.65 -28.2 -8.35 -27.95 L-8.25 -28.65 -8.0 -30.0 -7.75 -31.0 -9.9 -28.05 -8.25 -28.65 M-10.25 -27.7 L-9.9 -28.05 -10.25 -27.7 -10.55 -27.4 -10.25 -27.7 M22.8 -16.45 L24.05 -16.65 22.8 -16.45 M34.15 18.85 L34.75 18.9 34.15 18.85 M2.75 22.8 Q2.6 21.55 1.4 19.5 L-1.35 22.35 Q-1.6 19.75 -0.45 14.45 -2.45 20.45 -5.15 21.5 L-4.55 17.8 Q-7.9 22.15 -10.5 21.9 -10.05 21.0 -9.55 19.15 -11.75 21.05 -14.0 21.5 -13.2 19.65 -11.65 17.8 -15.95 19.8 -18.5 19.45 L-8.15 12.3 -18.5 19.45 Q-15.95 19.8 -11.65 17.8 -13.2 19.65 -14.0 21.5 -11.75 21.05 -9.55 19.15 -10.05 21.0 -10.5 21.9 -7.9 22.15 -4.55 17.8 L-5.15 21.5 Q-2.45 20.45 -0.45 14.45 -1.6 19.75 -1.35 22.35 L1.4 19.5 Q2.6 21.55 2.75 22.8 M22.9 51.75 L17.5 47.65 17.35 49.6 Q15.4 48.35 14.05 46.4 L14.0 50.05 Q12.5 48.8 11.3 46.25 L9.25 42.0 Q9.75 44.4 9.4 50.8 L7.25 46.3 6.05 48.75 Q5.3 47.95 5.2 44.2 4.25 44.7 2.9 46.45 1.6 48.1 0.6 48.55 0.15 46.4 1.45 43.45 L4.0 38.75 1.45 43.45 Q0.15 46.4 0.6 48.55 1.6 48.1 2.9 46.45 4.25 44.7 5.2 44.2 5.3 47.95 6.05 48.75 L7.25 46.3 9.4 50.8 Q9.75 44.4 9.25 42.0 L11.3 46.25 Q12.5 48.8 14.0 50.05 L14.05 46.4 Q15.4 48.35 17.35 49.6 L17.5 47.65 22.9 51.75 M25.0 57.9 L24.4 57.0 25.0 57.9 M-28.35 -6.05 L-28.25 -6.1 -28.25 -6.15 -28.35 -6.05 M-1.75 -16.0 Q-3.45 -13.7 -4.0 -15.95 -4.45 -17.75 -4.1 -19.75 L-7.45 -16.45 Q-7.65 -18.9 -6.15 -21.25 L-11.8 -14.1 -6.15 -21.25 Q-7.65 -18.9 -7.45 -16.45 L-4.1 -19.75 Q-4.45 -17.75 -4.0 -15.95 -3.45 -13.7 -1.75 -16.0 M-24.0 29.65 L-24.25 29.95 -24.0 29.65 M-4.3 60.7 L-4.35 60.4 -4.3 60.7" fill="#ffffff" fill-opacity="0.0" fill-rule="evenodd" stroke="none"/>
    <path d="M14.95 -10.45 L15.2 -10.25 Q22.8 -4.05 28.1 -2.5 41.3 1.5 43.95 -0.95 43.8 2.2 41.25 2.85 L38.6 2.65 Q39.0 3.45 38.8 4.6 35.0 4.7 32.0 2.75 33.5 3.8 34.05 5.25 32.7 5.45 28.4 3.15 30.45 4.3 29.95 6.5 26.4 7.05 24.0 4.7 25.35 6.3 25.55 8.7 23.3 8.9 20.55 6.65 L20.85 8.3 20.85 8.7 19.15 8.05 Q17.8 7.2 16.15 5.4 16.45 6.2 16.4 7.8 13.15 6.3 12.05 5.1 12.4 5.9 12.35 7.45 9.85 6.75 7.45 4.45 L8.25 7.7 Q4.6 5.3 4.2 4.15 4.65 6.95 4.45 8.1 2.8 8.1 1.15 6.3 L-1.45 3.2 Q-1.3 4.05 -1.5 5.9 -3.15 4.75 -3.35 4.15 -3.6 6.15 -4.95 6.85 -5.75 5.9 -5.85 5.05 -6.45 6.9 -7.15 7.75 -7.55 8.25 -8.0 8.4 L-8.0 7.4 -8.05 5.6 -8.05 4.45 -8.7 6.05 -9.45 7.4 -9.8 7.9 Q-11.45 10.35 -12.5 9.5 L-12.75 9.05 Q-12.9 8.4 -12.55 7.1 L-11.85 4.45 Q-13.2 7.75 -15.25 8.1 -14.6 6.2 -14.9 5.0 -17.0 9.6 -18.7 10.0 L-18.2 7.85 Q-19.15 9.5 -20.8 11.15 -23.9 14.2 -25.95 12.55 -25.75 11.1 -24.45 8.85 -26.95 11.8 -28.8 12.2 -28.5 10.25 -27.95 9.6 -31.0 13.1 -33.2 13.75 L-29.6 8.1 Q-35.2 13.6 -38.25 13.45 -37.65 11.6 -35.25 9.1 -36.75 10.6 -39.2 10.95 L-38.4 8.8 -41.65 8.8 -38.05 5.9 Q-43.55 7.55 -43.0 1.35 -38.15 3.1 -31.35 1.6 -27.85 0.85 -20.05 -2.1 L-18.65 -2.65 -18.7 -2.25 Q-17.5 -2.75 -16.05 -3.75 -13.85 -4.75 -12.05 -5.85 L-12.3 -5.0 -12.35 -4.8 -12.4 -4.5 -12.45 -4.2 Q-11.5 -4.2 -10.6 -4.55 L-9.2 -5.45 Q-7.7 -6.7 -6.25 -9.1 -6.35 -8.3 -7.25 -6.35 -8.05 -4.6 -8.0 -3.55 -4.85 -5.15 -2.7 -9.1 -2.95 -6.35 -1.8 -4.75 -0.45 -5.95 1.05 -9.4 1.6 -7.6 2.9 -5.75 L3.3 -8.85 Q6.05 -7.3 7.3 -7.0 L7.35 -10.65 Q9.35 -7.75 11.1 -7.65 11.3 -9.5 10.8 -11.75 12.3 -8.25 14.35 -7.7 L14.85 -7.65 14.95 -10.45 M15.75 29.4 L17.7 30.15 Q23.35 32.35 28.05 33.0 L36.9 34.05 Q42.1 34.15 45.3 32.0 44.75 33.6 42.4 34.45 39.65 35.25 38.6 35.8 40.2 36.75 39.7 38.6 L35.25 38.7 Q35.85 40.2 35.95 41.75 32.9 42.35 30.35 39.05 31.05 41.6 30.9 42.7 28.8 42.0 26.7 39.0 L27.15 41.85 Q23.95 39.8 21.55 36.75 L20.7 35.65 16.7 30.6 15.75 29.4 M-14.85 44.55 Q-14.9 43.8 -14.35 42.85 -16.05 45.85 -18.7 46.35 L-17.95 44.3 Q-19.85 45.85 -21.25 46.15 -21.3 44.45 -21.0 43.7 L-23.15 45.6 Q-24.4 44.65 -23.45 42.85 -26.35 46.1 -28.15 47.1 L-27.55 43.15 Q-29.8 46.75 -31.6 47.1 -31.6 45.45 -30.7 44.1 -33.15 47.2 -34.75 47.75 -34.1 46.0 -33.65 45.55 -35.35 46.95 -38.55 48.05 -37.2 46.1 -34.6 43.95 L-43.9 46.55 -53.25 46.85 Q-51.95 46.0 -49.2 45.45 L-45.2 44.4 Q-49.05 44.2 -50.1 43.35 L-44.45 42.8 Q-46.4 42.55 -47.9 39.9 -40.7 42.0 -32.05 40.45 -26.8 39.6 -23.2 37.8 -18.2 35.25 -14.95 31.1 L-14.8 30.95 -14.55 30.75 -13.35 29.6 -13.3 29.55 -13.1 29.3 Q-14.6 31.5 -14.95 32.9 L-15.05 33.6 -14.95 33.55 -9.7 29.55 -9.55 32.65 Q-7.95 32.2 -5.9 29.6 -5.25 31.25 -4.2 32.35 -3.4 31.0 -3.1 29.3 L-3.0 29.4 -2.75 29.8 -2.5 30.05 -2.45 30.1 Q-2.7 30.9 -4.9 34.2 L-7.3 37.5 Q-10.15 40.85 -14.05 43.9 L-14.85 44.55 M23.45 4.15 L24.0 4.7 23.45 4.15 M-17.45 6.0 L-18.2 7.85 -17.45 6.0 M-43.7 42.75 L-44.45 42.8 -43.7 42.75" fill="#000000" fill-opacity="0.101960786" fill-rule="evenodd" stroke="none"/>
    <path d="M7.65 -70.3 L8.2 -70.15 7.65 -72.65 Q8.4 -71.75 9.9 -71.15 L9.85 -72.85 Q12.0 -70.35 15.2 -69.85 L14.8 -71.3 Q16.85 -69.7 19.25 -69.55 L19.0 -70.95 23.9 -69.7 Q27.35 -69.15 27.85 -71.0 30.35 -70.45 32.35 -71.55 34.7 -72.75 34.05 -75.4 25.5 -73.9 17.9 -75.65 7.9 -78.0 6.15 -85.4 7.35 -82.5 9.5 -82.75 L9.55 -84.8 Q11.55 -82.7 12.95 -82.75 L13.0 -84.15 18.0 -82.1 17.2 -83.65 Q19.55 -82.7 21.8 -82.75 L21.3 -84.25 Q22.95 -83.55 25.15 -83.75 27.75 -83.95 26.9 -85.8 28.15 -85.05 29.65 -86.25 L28.75 -87.35 30.6 -87.8 Q26.15 -87.7 18.75 -90.45 10.25 -93.6 9.6 -97.1 L14.5 -97.5 Q11.8 -97.35 9.45 -98.8 7.8 -99.85 6.55 -101.5 3.75 -105.2 2.75 -109.15 1.45 -107.9 -0.1 -104.0 -3.4 -97.95 -8.15 -96.7 -6.5 -95.75 -5.45 -95.75 -3.4 -95.75 -1.9 -96.55 -3.95 -94.15 -8.9 -93.1 L-6.5 -92.35 Q-7.6 -91.7 -11.2 -90.8 L-9.1 -89.3 -19.1 -86.5 -23.55 -86.25 -28.15 -86.4 Q-28.25 -83.9 -25.15 -82.75 -22.3 -81.75 -20.15 -82.7 -21.5 -82.0 -22.5 -80.95 -19.6 -81.15 -18.6 -81.7 L-18.7 -80.55 Q-16.9 -80.15 -15.55 -81.65 L-15.55 -81.7 -15.5 -81.7 -15.55 -81.65 -15.55 -78.95 Q-13.85 -79.35 -12.15 -82.6 L-12.1 -80.55 Q-10.95 -80.6 -9.0 -83.2 -9.55 -80.35 -7.9 -81.35 -6.35 -82.3 -5.55 -84.15 -5.05 -81.85 -2.75 -83.6 L0.45 -86.65 0.55 -86.35 0.6 -86.0 0.6 -85.15 Q0.55 -81.15 -2.8 -78.9 -6.2 -76.65 -12.65 -74.65 -19.25 -72.8 -26.9 -72.25 -27.1 -69.85 -22.0 -70.45 -24.3 -68.9 -25.25 -67.0 L-21.3 -67.2 Q-23.25 -62.75 -15.65 -68.45 -16.5 -66.45 -16.5 -65.1 -14.85 -65.55 -13.15 -67.15 L-10.3 -70.0 Q-11.2 -65.4 -8.9 -66.9 -6.75 -68.3 -5.55 -71.6 -4.85 -69.4 -3.4 -71.25 -2.2 -72.7 -1.7 -74.5 L-0.5 -72.7 -0.4 -72.8 -0.15 -73.0 Q-0.45 -71.65 -0.9 -70.55 -3.55 -64.2 -9.4 -62.15 -11.9 -61.3 -16.25 -60.9 L-23.05 -60.0 -20.75 -59.05 -18.15 -58.95 -18.4 -57.25 -16.0 -58.1 -15.9 -57.25 -13.45 -58.1 -13.7 -56.95 Q-12.1 -57.55 -11.5 -58.35 -10.6 -55.95 -8.4 -58.05 -10.1 -54.5 -22.55 -50.9 -33.95 -47.7 -39.5 -51.2 L-36.8 -48.65 Q-35.2 -47.35 -33.25 -47.4 -35.3 -46.05 -35.4 -44.65 L-31.75 -44.65 -32.85 -42.15 -29.75 -44.5 Q-31.35 -41.5 -29.75 -42.05 -28.6 -42.5 -26.65 -44.2 -28.15 -41.05 -26.2 -41.85 -24.5 -42.5 -22.9 -44.3 L-23.1 -42.15 Q-22.1 -42.75 -21.05 -44.6 L-20.9 -42.45 Q-19.55 -42.55 -18.2 -44.5 -18.1 -43.55 -17.2 -42.7 -15.3 -44.45 -14.9 -46.2 -14.8 -43.25 -12.4 -45.3 L-9.05 -48.7 -10.25 -43.05 Q-9.05 -43.6 -7.75 -45.45 -6.35 -47.5 -5.6 -48.05 -5.7 -47.15 -5.25 -45.4 -4.05 -46.9 -3.65 -48.0 -3.2 -46.2 -2.1 -46.8 L-2.0 -46.85 -1.95 -46.9 -1.85 -46.95 -1.0 -48.0 -0.75 -48.5 -0.6 -48.95 -0.7 -48.5 -0.75 -48.35 -0.75 -48.5 M7.65 -70.3 L10.1 -68.15 Q13.55 -65.85 20.2 -66.9 L24.4 -67.85 M21.15 -65.3 Q20.95 -64.45 20.2 -64.15 L18.95 -64.05 Q18.7 -62.55 16.1 -62.35 13.55 -62.1 12.6 -63.0 14.5 -61.0 18.4 -60.15 L25.05 -59.15 Q36.4 -57.55 40.65 -60.25 39.6 -57.9 37.65 -57.2 L39.4 -57.2 Q38.25 -55.9 35.45 -55.3 37.25 -55.2 37.85 -53.4 L33.25 -53.1 Q34.25 -53.05 34.9 -52.25 35.6 -51.35 35.05 -50.5 34.6 -49.8 32.4 -49.65 L31.1 -49.65 30.4 -49.65 29.8 -49.0 Q29.3 -48.65 28.65 -48.55 28.15 -48.45 26.0 -50.05 25.95 -49.5 26.2 -49.1 24.6 -49.0 22.2 -50.25 L22.95 -48.4 Q20.9 -48.6 18.95 -49.85 19.2 -49.3 19.25 -47.8 18.1 -47.8 14.95 -49.9 15.1 -49.15 14.85 -47.5 13.0 -47.9 11.35 -50.6 L10.75 -48.1 Q9.05 -49.2 7.35 -51.45 L6.1 -47.9 Q5.05 -49.25 4.3 -51.15 M4.05 -50.9 Q4.0 -48.45 4.45 -47.45 5.75 -44.2 10.5 -42.45 14.35 -41.0 18.65 -41.1 18.05 -39.1 15.8 -38.9 13.75 -38.65 12.1 -39.85 12.7 -38.55 11.0 -38.65 9.4 -38.75 8.4 -39.6 13.0 -34.3 22.95 -34.95 L38.55 -37.85 Q37.85 -35.4 35.15 -33.9 38.2 -34.2 39.7 -32.75 38.25 -31.55 36.7 -31.85 35.2 -30.45 32.9 -31.5 31.55 -32.05 30.45 -33.35 L31.55 -30.85 Q29.45 -29.75 25.95 -31.65 27.35 -28.85 24.7 -28.7 22.15 -28.55 20.6 -30.35 21.75 -27.7 20.1 -27.35 18.6 -27.05 16.75 -28.8 17.15 -28.0 17.05 -26.4 14.05 -26.4 12.7 -29.4 L12.65 -26.4 Q10.95 -26.35 9.2 -28.95 L9.15 -26.95 Q8.1 -27.3 7.9 -27.55 L4.9 -27.1 Q7.4 -27.25 13.0 -24.85 11.8 -23.75 10.3 -23.5 L11.3 -23.25 Q14.8 -22.35 17.0 -22.4 15.75 -21.4 12.8 -20.8 14.8 -21.15 16.75 -19.95 L14.95 -18.95 21.15 -19.2 20.35 -18.25 28.0 -17.9 Q25.75 -17.0 24.05 -16.65 L28.6 -16.5 34.65 -16.1 30.95 -14.6 Q40.25 -13.45 39.8 -12.95 34.9 -7.65 26.95 -13.05 L27.45 -10.8 Q25.6 -10.6 24.0 -12.2 L24.95 -8.9 Q23.95 -8.95 20.9 -10.75 21.3 -10.05 21.45 -8.25 20.45 -8.35 17.7 -10.65 L18.3 -7.95 M14.95 -10.45 L15.2 -10.25 Q22.8 -4.05 28.1 -2.5 41.3 1.5 43.95 -0.95 43.8 2.2 41.25 2.85 L38.6 2.65 Q39.0 3.45 38.8 4.6 35.0 4.7 32.0 2.75 33.5 3.8 34.05 5.25 32.7 5.45 28.4 3.15 30.45 4.3 29.95 6.5 26.4 7.05 24.0 4.7 25.35 6.3 25.55 8.7 23.3 8.9 20.55 6.65 L20.85 8.3 21.05 8.45 Q27.85 13.15 39.15 12.9 35.45 17.6 29.35 14.45 33.45 17.65 40.55 17.65 38.75 18.95 34.75 18.9 L43.8 20.05 Q50.0 20.75 53.25 18.95 53.65 21.3 51.25 22.7 48.85 24.05 46.55 22.9 L49.45 25.35 Q47.85 26.2 45.5 24.85 L47.75 28.2 Q45.85 28.4 43.7 27.45 43.85 28.0 43.6 29.5 39.7 30.15 38.85 27.75 39.2 28.85 39.0 29.75 38.05 29.7 34.9 27.85 L35.35 30.4 Q34.2 30.45 32.6 29.75 30.85 28.9 29.95 28.6 L30.85 31.05 Q29.45 30.85 27.7 29.8 25.8 28.55 24.8 28.05 25.35 29.65 24.65 31.05 23.6 30.7 21.65 29.35 19.8 28.1 18.6 27.8 18.9 28.5 18.85 30.35 17.65 30.05 15.95 28.65 L13.8 27.1 M14.05 27.4 L14.95 28.4 15.75 29.4 17.7 30.15 Q23.35 32.35 28.05 33.0 L36.9 34.05 Q42.1 34.15 45.3 32.0 44.75 33.6 42.4 34.45 39.65 35.25 38.6 35.8 40.2 36.75 39.7 38.6 L35.25 38.7 Q35.85 40.2 35.95 41.75 32.9 42.35 30.35 39.05 31.05 41.6 30.9 42.7 28.8 42.0 26.7 39.0 L27.15 41.85 29.35 43.1 Q31.05 43.95 35.15 44.3 39.05 44.7 40.45 45.5 39.3 46.3 36.55 46.85 L45.1 47.5 40.95 49.05 46.0 49.65 Q49.3 49.85 50.85 50.55 L46.65 52.2 Q48.65 53.2 52.5 53.65 56.7 54.15 58.3 54.75 55.2 56.9 49.0 56.9 53.05 58.7 53.65 59.4 54.75 60.6 44.75 59.6 42.7 60.45 40.85 60.35 39.9 60.3 38.0 59.45 36.15 58.6 35.15 58.5 L36.1 60.3 Q31.3 57.85 28.75 57.55 L29.95 60.1 Q26.7 60.1 25.0 57.9 26.75 60.75 24.35 60.05 L19.4 57.9 Q20.0 59.15 20.25 60.95 18.55 61.25 16.15 59.1 L14.95 57.9 Q15.75 59.75 15.55 61.25 13.05 61.0 11.05 58.75 11.35 59.55 11.15 61.3 9.7 60.3 9.2 59.5 L9.35 60.55 9.4 61.05 9.55 62.4 9.25 62.15 M-0.6 58.55 L-0.6 58.6 -1.5 61.15 Q-2.1 62.6 -3.15 63.15 L-4.3 60.7 Q-5.2 62.8 -6.55 63.45 -8.1 64.2 -8.35 61.0 -10.65 63.3 -11.95 63.8 L-11.35 61.8 -13.45 63.95 Q-14.7 65.25 -16.0 65.05 -16.2 63.3 -15.35 61.3 L-13.7 57.9 -16.35 60.95 Q-18.1 62.85 -19.65 63.15 -18.4 59.2 -18.1 57.3 -22.3 62.7 -24.7 62.2 L-24.75 60.45 Q-25.65 61.9 -27.75 62.55 L-27.35 60.35 Q-28.6 62.1 -30.8 64.05 -29.1 59.7 -27.1 57.0 L-32.2 61.0 Q-35.3 63.6 -37.5 64.4 -37.05 62.6 -35.9 61.1 L-38.65 63.2 Q-40.35 64.3 -41.9 64.1 -42.1 62.1 -40.0 60.45 -42.6 62.35 -44.6 62.85 -44.15 61.1 -42.95 60.25 -44.0 60.35 -46.65 62.45 -49.0 64.4 -50.95 64.1 -50.55 62.5 -47.4 59.75 -55.9 63.8 -57.0 61.85 -57.75 60.5 -51.8 57.85 -53.95 58.1 -58.3 56.3 L-44.05 53.95 Q-35.3 52.55 -29.8 51.15 -20.4 48.75 -15.7 45.2 L-15.25 44.9 -14.85 44.55 Q-14.9 43.8 -14.35 42.85 -16.05 45.85 -18.7 46.35 L-17.95 44.3 Q-19.85 45.85 -21.25 46.15 -21.3 44.45 -21.0 43.7 L-23.15 45.6 Q-24.4 44.65 -23.45 42.85 -26.35 46.1 -28.15 47.1 L-27.55 43.15 Q-29.8 46.75 -31.6 47.1 -31.6 45.45 -30.7 44.1 -33.15 47.2 -34.75 47.75 -34.1 46.0 -33.65 45.55 -35.35 46.95 -38.55 48.05 -37.2 46.1 -34.6 43.95 L-43.9 46.55 -53.25 46.85 Q-51.95 46.0 -49.2 45.45 L-45.2 44.4 Q-49.05 44.2 -50.1 43.35 L-44.45 42.8 Q-46.4 42.55 -47.9 39.9 -40.7 42.0 -32.05 40.45 -26.8 39.6 -23.2 37.8 -18.2 35.25 -14.95 31.1 M-14.95 31.05 L-15.6 31.55 -15.65 31.6 Q-17.25 32.8 -18.8 32.65 L-17.85 30.25 Q-20.85 33.15 -22.4 33.6 -22.8 32.3 -21.7 30.25 -23.8 32.65 -25.4 32.65 -25.4 31.15 -24.25 29.95 L-27.7 33.05 Q-30.2 34.95 -32.3 34.5 -31.9 32.95 -30.5 30.75 L-28.25 27.1 Q-33.5 32.2 -36.05 31.95 -34.75 29.4 -33.45 27.95 L-37.15 30.7 Q-39.5 32.1 -41.55 31.7 -41.45 30.35 -39.3 28.2 -43.25 31.2 -47.0 31.05 -46.05 29.35 -43.45 26.35 -48.75 29.25 -49.2 27.2 -49.3 26.65 -48.05 25.45 -46.8 24.25 -46.2 24.15 L-51.35 23.95 Q-53.25 23.05 -54.2 20.15 -44.75 21.55 -35.7 19.4 -28.0 17.6 -18.5 12.6 L-12.75 9.05 Q-12.9 8.4 -12.55 7.1 L-11.85 4.45 Q-13.2 7.75 -15.25 8.1 -14.6 6.2 -14.9 5.0 -17.0 9.6 -18.7 10.0 L-18.2 7.85 Q-19.15 9.5 -20.8 11.15 -23.9 14.2 -25.95 12.55 -25.75 11.1 -24.45 8.85 -26.95 11.8 -28.8 12.2 -28.5 10.25 -27.95 9.6 -31.0 13.1 -33.2 13.75 L-29.6 8.1 Q-35.2 13.6 -38.25 13.45 -37.65 11.6 -35.25 9.1 -36.75 10.6 -39.2 10.95 L-38.4 8.8 -41.65 8.8 -38.05 5.9 Q-43.55 7.55 -43.0 1.35 -38.15 3.1 -31.35 1.6 -27.85 0.85 -20.05 -2.1 L-18.65 -2.65 Q-18.4 -4.05 -17.3 -5.15 -22.9 -0.65 -25.05 -0.75 -24.75 -2.15 -22.05 -5.45 -25.75 -3.05 -28.45 -2.3 L-26.1 -5.1 Q-30.9 -3.2 -32.8 -2.9 -31.6 -4.35 -28.35 -6.05 L-34.2 -5.2 Q-38.15 -5.1 -38.85 -7.55 -37.5 -8.6 -34.2 -8.6 L-36.65 -9.9 Q-35.55 -10.6 -32.6 -10.5 -35.6 -11.9 -36.25 -13.2 L-27.05 -11.5 Q-20.6 -10.75 -18.8 -13.85 -23.6 -13.9 -26.2 -17.05 -14.7 -16.75 -12.2 -21.1 L-14.6 -22.0 Q-10.6 -21.9 -8.7 -24.6 L-10.15 -24.9 Q-7.85 -25.8 -7.15 -27.05 L-10.55 -27.4 Q-11.9 -26.15 -13.05 -26.1 -12.95 -26.65 -13.35 -27.2 L-16.6 -25.6 Q-19.35 -24.5 -18.3 -26.3 -19.75 -23.95 -20.75 -24.85 -21.8 -25.8 -20.95 -28.15 L-23.6 -25.35 Q-25.35 -23.75 -26.9 -23.9 -26.75 -24.9 -25.1 -27.25 L-30.35 -26.4 Q-30.45 -27.5 -29.2 -28.65 L-27.1 -30.25 Q-37.75 -29.35 -38.55 -34.15 L-32.0 -34.25 Q-28.2 -34.25 -25.5 -34.95 -15.15 -37.5 -11.55 -39.35 -8.8 -40.75 -6.7 -42.15 L-6.55 -42.25 Q-3.9 -43.9 -1.2 -47.55 L-0.75 -48.35 M3.65 -50.6 L4.05 -50.9 M36.7 -31.85 L36.2 -32.0 M-10.25 -27.7 L-10.55 -27.4 M14.35 -7.7 L14.85 -7.65 M24.05 -16.65 L22.8 -16.45 M24.0 4.7 L23.45 4.15 M20.85 8.3 L20.85 8.7 M34.75 18.9 L34.15 18.85 M24.4 57.0 L25.0 57.9 M-28.35 -6.05 L-28.25 -6.15 -28.25 -6.1 -28.35 -6.05 M-16.05 -3.75 Q-13.75 -5.35 -10.85 -8.1 L-10.9 -8.0 -11.55 -6.9 -12.05 -5.85 Q-13.85 -4.75 -16.05 -3.75 -17.5 -2.75 -18.7 -2.25 L-18.65 -2.65 M-18.2 7.85 L-17.45 6.0 M-24.25 29.95 L-24.0 29.65 M-15.05 33.6 L-14.95 33.55 M-44.45 42.8 L-43.7 42.75 M-4.35 60.4 L-4.3 60.7" fill="none" stroke="#000000" stroke-linecap="round" stroke-linejoin="miter-clip" stroke-miterlimit="3.0" stroke-width="1.0"/>
    <path d="M4.3 -51.15 L4.05 -50.9 M18.3 -7.95 Q17.15 -8.65 14.9 -10.65 L14.95 -10.45 14.85 -7.65 M9.25 62.15 L8.65 61.75 Q7.55 61.0 6.8 60.2 5.95 59.3 5.5 58.25 5.5 60.35 4.75 61.85 L2.2 56.3 1.05 62.75 0.35 61.55 -0.6 58.55 M-14.95 31.1 L-14.8 30.95 -14.95 31.05 M27.15 41.85 Q23.95 39.8 21.55 36.75 L20.7 35.65 16.7 30.6 15.75 29.4 M-14.8 30.95 L-14.55 30.75 -13.35 29.6 -13.3 29.55 -13.1 29.3 Q-14.6 31.5 -14.95 32.9 L-15.05 33.6" fill="none" stroke="#000000" stroke-linecap="round" stroke-linejoin="miter-clip" stroke-miterlimit="3.0" stroke-opacity="0.6" stroke-width="1.0"/>
    <path d="M-0.15 -73.0 L2.35 -76.3 Q2.6 -74.65 4.55 -72.6 6.2 -70.85 7.65 -70.3 M13.8 27.1 L13.6 27.0 13.8 27.15 13.9 27.25 14.05 27.4 M-0.6 -64.05 L-6.45 -57.0 Q-3.15 -57.0 -0.05 -60.2 L-0.55 -56.95 1.95 -59.7 Q2.25 -58.45 3.5 -56.6 L4.1 -59.0 Q5.5 -57.6 7.3 -56.55 L7.45 -58.55 Q10.5 -56.95 12.0 -56.5 M-0.6 -48.95 Q-0.45 -47.95 0.45 -47.1 2.95 -49.75 3.25 -53.3 3.2 -52.6 3.65 -50.6 M5.8 -31.3 L5.8 -31.6 5.9 -31.2 6.7 -29.25 7.9 -27.55 M5.9 -31.2 L5.8 -31.3 Q5.5 -29.4 4.35 -30.15 3.1 -30.95 3.15 -32.7 L0.65 -29.95 Q0.25 -31.85 0.45 -32.85 L-0.65 -31.8 -3.5 -29.35 -3.65 -29.25 Q-6.1 -27.5 -4.35 -31.35 L-5.55 -30.0 -6.9 -28.8 Q-7.65 -28.2 -8.35 -27.95 L-8.25 -28.65 -9.9 -28.05 -10.25 -27.7 M-12.05 -5.85 L-12.3 -5.0 -12.35 -4.8 -12.4 -4.5 -12.45 -4.2 Q-11.5 -4.2 -10.6 -4.55 L-9.2 -5.45 Q-7.7 -6.7 -6.25 -9.1 -6.35 -8.3 -7.25 -6.35 -8.05 -4.6 -8.0 -3.55 -4.85 -5.15 -2.7 -9.1 -2.95 -6.35 -1.8 -4.75 -0.45 -5.95 1.05 -9.4 1.6 -7.6 2.9 -5.75 L3.3 -8.85 Q6.05 -7.3 7.3 -7.0 L7.35 -10.65 Q9.35 -7.75 11.1 -7.65 11.3 -9.5 10.8 -11.75 12.3 -8.25 14.35 -7.7 M20.85 8.7 L19.15 8.05 Q17.8 7.2 16.15 5.4 16.45 6.2 16.4 7.8 13.15 6.3 12.05 5.1 12.4 5.9 12.35 7.45 9.85 6.75 7.45 4.45 L8.25 7.7 Q4.6 5.3 4.2 4.15 4.65 6.95 4.45 8.1 2.8 8.1 1.15 6.3 L-1.45 3.2 Q-1.3 4.05 -1.5 5.9 -3.15 4.75 -3.35 4.15 -3.6 6.15 -4.95 6.85 -5.75 5.9 -5.85 5.05 -6.45 6.9 -7.15 7.75 -7.55 8.25 -8.0 8.4 L-8.0 7.4 -8.05 5.6 -8.05 4.45 -8.7 6.05 -9.45 7.4 -9.8 7.9 Q-11.45 10.35 -12.5 9.5 L-12.75 9.05 M-8.15 12.3 L-18.5 19.45 Q-15.95 19.8 -11.65 17.8 -13.2 19.65 -14.0 21.5 -11.75 21.05 -9.55 19.15 -10.05 21.0 -10.5 21.9 -7.9 22.15 -4.55 17.8 L-5.15 21.5 Q-2.45 20.45 -0.45 14.45 -1.6 19.75 -1.35 22.35 L1.4 19.5 Q2.6 21.55 2.75 22.8 M13.6 27.0 L13.1 26.75 Q13.85 28.35 13.0 30.45 12.0 30.1 8.9 27.1 L8.85 30.1 6.1 27.55 5.55 27.0 5.5 27.55 Q5.3 30.75 5.1 31.05 3.5 30.55 1.0 28.35 1.4 30.45 0.45 31.0 L-0.15 31.2 Q-1.4 31.3 -2.45 30.1 -2.7 30.9 -4.9 34.2 L-7.3 37.5 Q-10.15 40.85 -14.05 43.9 L-14.85 44.55 M4.0 38.75 L1.45 43.45 Q0.15 46.4 0.6 48.55 1.6 48.1 2.9 46.45 4.25 44.7 5.2 44.2 5.3 47.95 6.05 48.75 L7.25 46.3 9.4 50.8 Q9.75 44.4 9.25 42.0 L11.3 46.25 Q12.5 48.8 14.0 50.05 L14.05 46.4 Q15.4 48.35 17.35 49.6 L17.5 47.65 22.9 51.75 M-9.9 -28.05 L-7.75 -31.0 -8.0 -30.0 -8.25 -28.65 M-11.8 -14.1 L-6.15 -21.25 Q-7.65 -18.9 -7.45 -16.45 L-4.1 -19.75 Q-4.45 -17.75 -4.0 -15.95 -3.45 -13.7 -1.75 -16.0 M-14.95 33.55 L-9.7 29.55 -9.55 32.65 Q-7.95 32.2 -5.9 29.6 -5.25 31.25 -4.2 32.35 -3.4 31.0 -3.1 29.3 L-3.0 29.4 -2.75 29.8 -2.5 30.05 -2.45 30.1" fill="none" stroke="#000000" stroke-linecap="round" stroke-linejoin="miter-clip" stroke-miterlimit="3.0" stroke-opacity="0.4" stroke-width="1.0"/>
    <path d="M24.4 -67.85 Q22.15 -65.05 21.15 -65.45 L21.15 -65.3" fill="none" stroke="#000000" stroke-linecap="round" stroke-linejoin="round" stroke-width="1.0"/>
  </g>
</svg>
