<?xml version="1.0" encoding="UTF-8" standalone="no"?>
<svg xmlns:xlink="http://www.w3.org/1999/xlink" height="56.35px" width="32.45px" xmlns="http://www.w3.org/2000/svg">
  <g transform="matrix(1.0, 0.0, 0.0, 1.0, 14.35, -58.05)">
    <path d="M7.25 60.05 L8.0 85.25 9.3 95.85 Q10.85 106.85 12.35 108.95 14.8 112.35 16.7 113.8 L-12.85 113.8 -4.6 110.4 Q-1.65 104.5 -4.2 62.7 L-3.75 63.2 -3.55 62.1 -3.3 60.15 Q-2.45 60.2 -1.0 60.95 0.45 61.75 1.35 61.8 0.5 59.75 0.55 58.65 L4.15 58.95 5.85 59.5 7.25 60.05" fill="#ffffff" fill-opacity="0.0" fill-rule="evenodd" stroke="none"/>
    <path d="M7.25 60.05 L8.0 85.25 9.3 95.85 Q10.85 106.85 12.35 108.95 14.8 112.35 16.7 113.8 L-12.85 113.8 -4.6 110.4 Q-1.65 104.5 -4.2 62.7" fill="none" stroke="#000000" stroke-linecap="round" stroke-linejoin="miter-clip" stroke-miterlimit="3.0" stroke-width="1.0"/>
    <path d="M-4.2 62.7 L-3.75 63.2 -3.55 62.1 -3.3 60.15 Q-2.45 60.2 -1.0 60.95 0.45 61.75 1.35 61.8 0.5 59.75 0.55 58.65 L4.15 58.95 5.85 59.5 7.25 60.05 Z" fill="none" stroke="#000000" stroke-linecap="round" stroke-linejoin="miter-clip" stroke-miterlimit="3.0" stroke-opacity="0.6" stroke-width="1.0"/>
  </g>
</svg>
