<?xml version="1.0" encoding="UTF-8" standalone="no"?>
<svg xmlns:xlink="http://www.w3.org/1999/xlink" height="20.1px" width="58.75px" xmlns="http://www.w3.org/2000/svg">
  <g transform="matrix(1.0, 0.0, 0.0, 1.0, 29.4, 10.05)">
    <path d="M-24.55 -7.0 Q-24.7 -7.5 -24.25 -7.6 -23.8 -7.8 -23.65 -7.25 -23.45 -6.7 -23.0 -6.85 -22.5 -6.95 -22.7 -7.45 -22.85 -8.05 -22.35 -8.1 -21.9 -8.2 -21.75 -7.6 -21.55 -7.1 -21.15 -7.2 -20.7 -7.25 -20.9 -7.8 -21.0 -8.35 -20.5 -8.45 -20.0 -8.55 -19.85 -8.0 -19.7 -7.4 -19.25 -7.45 -18.75 -7.55 -18.9 -8.15 -19.0 -8.7 -18.55 -8.7 -18.1 -8.8 -18.0 -8.3 -17.85 -7.75 -17.35 -7.8 -16.9 -7.85 -17.05 -8.4 -17.1 -8.9 -16.65 -8.95 -16.25 -9.05 -16.1 -8.55 -16.0 -8.05 -15.5 -8.1 -14.95 -8.15 -15.15 -8.65 -15.2 -9.15 -14.65 -9.2 -14.15 -9.25 -14.15 -8.7 L-13.65 -8.7 Q-13.75 -8.2 -13.3 -8.15 -12.75 -8.15 -12.75 -8.65 -12.45 -9.1 -12.0 -8.95 -11.6 -8.8 -11.85 -8.35 -12.45 -8.05 -12.15 -7.65 -11.9 -7.3 -11.35 -7.65 -10.65 -7.85 -10.6 -7.4 -10.5 -7.05 -11.15 -6.95 L-11.15 -6.9 Q-11.85 -6.9 -11.95 -6.55 -12.0 -6.15 -11.3 -6.1 -10.65 -6.0 -10.8 -5.6 -10.9 -5.3 -11.55 -5.4 -12.25 -5.6 -12.35 -5.25 -12.5 -4.9 -11.85 -4.75 -11.25 -4.45 -11.5 -4.15 L-12.3 -4.05 -13.15 -4.0 Q-13.4 -3.65 -12.75 -3.45 -12.25 -3.15 -12.45 -2.85 -12.7 -2.45 -13.3 -2.85 -13.85 -3.15 -14.15 -2.85 -14.4 -2.5 -13.85 -2.15 -13.35 -1.85 -13.6 -1.55 L-14.5 -1.6 -15.35 -1.65 Q-15.75 -1.4 -15.15 -1.05 -14.6 -0.65 -14.9 -0.4 L-15.8 -0.45 -16.6 -0.55 Q-16.95 -0.35 -16.45 0.05 -15.9 0.4 -16.25 0.65 L-17.1 0.6 -17.25 0.65 -18.05 0.55 Q-18.35 0.8 -17.95 1.2 -17.5 1.55 -17.8 1.85 L-18.65 1.7 -19.5 1.6 Q-19.85 1.85 -19.3 2.25 L-19.35 2.3 -19.6 2.65 -19.65 2.7 -19.8 2.85 -19.85 3.0 -20.05 3.0 -20.2 3.1 Q-19.6 3.45 -19.95 3.7 L-20.9 3.65 -21.7 3.6 Q-22.0 3.85 -21.45 4.25 -20.95 4.55 -21.2 4.85 L-22.05 4.8 Q-22.65 4.45 -22.9 4.8 -23.1 5.1 -22.55 5.4 -21.95 5.6 -22.15 6.0 L-23.0 6.1 -23.0 6.15 -23.05 6.2 -22.85 6.2 Q-22.8 6.75 -22.25 6.7 -21.8 6.65 -21.9 6.1 -22.05 5.55 -21.55 5.5 -21.1 5.45 -20.95 6.0 -20.8 6.5 -20.35 6.4 -19.8 6.35 -19.95 5.8 L-19.75 5.75 -19.55 5.7 -19.35 5.7 -18.9 5.65 Q-19.0 5.15 -18.55 5.05 -18.1 5.0 -17.95 5.5 L-17.35 6.0 Q-16.85 5.85 -17.0 5.35 -17.1 4.85 -16.6 4.8 -16.1 4.75 -16.1 5.25 -16.05 5.8 -15.5 5.75 -15.0 5.75 -15.05 5.2 L-12.85 5.2 -12.55 5.35 Q-12.05 4.9 -11.7 5.15 -11.3 5.4 -11.75 5.75 -12.35 6.1 -12.1 6.4 -11.85 6.7 -11.25 6.4 L-11.2 6.8 -11.25 6.85 Q-10.6 7.05 -10.75 7.35 -10.9 7.8 -11.55 7.55 -11.85 7.05 -12.3 7.25 -12.65 7.5 -12.35 8.0 L-12.4 8.0 -12.6 8.0 -12.9 8.0 -13.0 8.0 -13.2 8.05 -13.45 8.05 -14.1 8.05 -14.25 8.1 -14.35 8.1 -14.5 8.1 -14.9 8.1 -15.45 8.15 Q-15.4 8.7 -15.9 8.7 -16.4 8.75 -16.45 8.2 -16.55 7.65 -17.0 7.75 -17.45 7.8 -17.35 8.3 -17.25 8.85 -17.75 8.9 -18.2 8.95 -18.35 8.45 L-18.45 8.45 Q-18.6 7.9 -19.15 8.05 -19.55 8.1 -19.45 8.6 -19.3 9.1 -19.7 9.2 -20.2 9.3 -20.4 8.8 L-20.9 8.9 -21.25 8.9 -21.6 9.0 Q-21.8 8.5 -22.25 8.6 -22.75 8.7 -22.5 9.2 -22.35 9.75 -22.85 9.85 -23.3 9.9 -23.45 9.35 -23.55 8.85 -24.0 8.9 -24.55 8.95 -24.4 9.5 -24.35 10.0 -24.8 10.05 -25.3 10.05 -25.4 9.55 L-25.55 9.55 -25.75 9.6 -26.4 9.6 -26.6 9.55 -27.45 9.55 -27.65 9.35 -27.75 9.3 Q-27.35 8.9 -27.7 8.65 -28.05 8.4 -28.5 8.85 L-29.35 8.7 Q-29.55 8.35 -28.85 8.15 L-28.85 8.05 -28.8 7.9 -28.8 7.75 -28.75 7.5 Q-29.4 7.3 -29.25 6.95 -29.1 6.65 -28.5 6.75 L-27.65 6.65 Q-27.45 6.3 -28.15 6.1 -28.7 5.8 -28.5 5.5 L-27.65 5.4 Q-27.05 5.7 -26.8 5.4 -26.6 5.1 -27.15 4.8 -27.65 4.45 -27.35 4.15 -27.1 3.85 -26.6 4.25 L-25.7 4.3 Q-25.45 3.95 -25.95 3.65 -26.55 3.3 -26.2 3.05 L-25.35 3.1 -25.15 2.95 -25.0 2.8 -24.9 2.45 -24.65 2.45 -24.65 2.35 -24.6 2.3 -24.45 2.1 -24.0 1.7 -23.15 1.75 Q-22.85 1.45 -23.4 1.15 -23.95 0.8 -23.55 0.5 L-22.75 0.55 -21.9 0.6 Q-21.55 0.3 -22.1 0.0 -22.7 -0.35 -22.35 -0.65 L-21.5 -0.55 -20.65 -0.5 Q-20.35 -0.8 -20.9 -1.2 -21.4 -1.5 -21.1 -1.8 L-20.25 -1.75 -19.35 -1.7 Q-19.0 -1.95 -19.55 -2.3 -20.2 -2.7 -19.75 -3.0 L-18.9 -2.95 -18.1 -2.9 Q-17.75 -3.15 -18.3 -3.5 L-18.2 -3.65 -17.85 -3.9 -17.8 -3.95 -17.7 -4.05 -17.5 -4.2 Q-18.05 -4.6 -17.75 -4.85 L-17.05 -4.9 Q-17.1 -5.45 -17.6 -5.4 -18.05 -5.35 -18.0 -4.85 -17.9 -4.25 -18.35 -4.2 -18.9 -4.2 -18.9 -4.75 L-19.15 -4.75 -19.7 -4.65 -19.75 -4.65 -19.7 -4.7 -20.2 -4.55 -20.6 -4.55 Q-20.7 -5.05 -21.2 -5.0 -21.7 -4.95 -21.55 -4.35 -21.5 -3.8 -21.95 -3.8 -22.45 -3.75 -22.45 -4.25 -22.5 -4.85 -23.05 -4.8 -23.45 -4.8 -23.45 -4.2 -23.45 -3.7 -23.95 -3.65 -24.4 -3.65 -24.45 -4.2 L-24.9 -4.2 -25.05 -4.2 -25.6 -4.2 -25.85 -4.3 Q-25.55 -4.8 -25.95 -5.0 -26.4 -5.15 -26.7 -4.7 L-27.55 -4.75 Q-27.75 -5.05 -27.15 -5.3 L-27.15 -5.7 -27.05 -5.95 Q-26.6 -5.55 -26.3 -5.75 -25.9 -6.0 -26.35 -6.45 -26.65 -6.9 -26.25 -7.05 -25.75 -7.25 -25.5 -6.75 -25.15 -6.3 -24.75 -6.4 -24.25 -6.5 -24.55 -7.0 M19.7 -5.95 Q19.25 -5.9 19.35 -5.4 19.5 -4.9 19.05 -4.8 18.6 -4.7 18.4 -5.2 18.1 -5.6 17.65 -5.45 17.25 -5.25 17.6 -4.85 18.15 -4.55 17.9 -4.2 17.7 -3.9 17.05 -4.2 L17.0 -4.05 17.05 -4.05 17.0 -3.95 Q16.4 -4.05 16.25 -3.7 16.1 -3.35 16.75 -3.25 L16.75 -3.1 16.7 -2.8 Q17.4 -2.55 17.25 -2.2 17.15 -1.85 16.45 -1.95 15.8 -2.1 15.7 -1.75 15.55 -1.4 16.25 -1.3 L16.2 -0.9 16.2 -0.65 16.1 0.0 16.1 1.0 16.2 1.0 Q16.1 0.45 16.55 0.35 17.0 0.3 17.15 0.85 17.45 1.35 17.85 1.25 18.3 1.1 18.1 0.6 17.75 0.1 18.15 -0.05 18.6 -0.2 18.9 0.25 19.25 0.75 19.7 0.5 20.1 0.35 19.75 -0.1 19.35 -0.5 19.7 -0.7 20.05 -0.9 20.55 -0.5 21.0 -0.1 21.35 -0.35 21.75 -0.55 21.3 -1.05 20.85 -1.4 21.15 -1.65 L22.0 -1.5 22.85 -1.45 Q23.15 -1.75 22.65 -2.05 22.1 -2.4 22.3 -2.7 22.65 -3.05 23.15 -2.7 23.8 -2.4 24.0 -2.8 24.25 -3.15 23.6 -3.4 23.0 -3.5 23.05 -3.85 23.2 -4.2 23.85 -4.05 L23.85 -4.55 Q24.5 -4.8 24.35 -5.1 L23.5 -5.2 Q23.25 -4.7 22.8 -4.85 22.3 -5.0 22.6 -5.45 22.65 -6.0 22.15 -6.0 21.7 -6.05 21.65 -5.5 L21.25 -5.5 Q21.35 -5.0 20.85 -5.0 20.35 -5.0 20.25 -5.5 20.15 -6.0 19.7 -5.95 M17.0 -8.4 Q17.15 -7.85 17.65 -8.0 18.1 -8.05 18.0 -8.55 17.85 -9.1 18.3 -9.15 L18.9 -8.7 Q18.95 -8.15 19.5 -8.2 20.0 -8.25 19.85 -8.8 19.8 -9.3 20.25 -9.3 20.85 -9.35 20.85 -8.85 L21.15 -8.85 Q21.15 -8.35 21.6 -8.3 22.05 -8.3 22.1 -8.85 22.1 -9.35 22.65 -9.3 23.1 -9.25 23.05 -8.75 22.95 -8.25 23.4 -8.15 23.85 -8.15 24.0 -8.65 24.25 -9.15 24.65 -9.05 25.15 -8.9 24.9 -8.45 24.7 -7.9 25.1 -7.75 25.55 -7.55 25.85 -8.15 26.2 -8.6 26.6 -8.4 27.05 -8.2 26.7 -7.75 26.3 -7.3 26.6 -7.05 26.9 -6.8 27.4 -7.25 27.95 -7.55 28.25 -7.25 28.6 -7.0 28.05 -6.65 27.4 -6.45 27.55 -6.05 L28.45 -6.0 29.2 -5.75 Q29.35 -5.45 28.65 -5.3 28.0 -5.25 28.05 -4.9 28.1 -4.55 28.75 -4.55 L28.75 -4.15 Q29.45 -4.05 29.35 -3.65 29.3 -3.35 28.6 -3.4 28.0 -3.55 27.85 -3.2 27.65 -2.9 28.35 -2.7 28.95 -2.4 28.75 -2.1 28.6 -1.8 28.0 -1.95 L27.15 -1.9 Q26.9 -1.6 27.45 -1.35 28.05 -1.05 27.8 -0.7 27.5 -0.45 26.95 -0.7 L26.15 -0.75 Q25.75 -0.5 26.35 -0.15 26.85 0.15 26.5 0.45 L25.65 0.35 Q25.15 -0.05 24.8 0.2 24.5 0.45 24.9 0.9 25.4 1.25 25.0 1.5 24.65 1.75 24.25 1.35 23.75 0.95 23.4 1.15 23.0 1.35 23.4 1.8 23.85 2.2 23.4 2.45 23.05 2.7 22.65 2.2 22.25 1.75 21.85 1.9 21.45 2.1 21.8 2.7 22.2 3.15 21.75 3.3 21.3 3.45 21.0 3.0 L20.95 3.05 20.7 3.1 Q20.4 2.65 19.9 2.75 19.5 2.9 19.8 3.35 20.0 3.85 19.6 4.0 19.15 4.1 18.85 3.65 L18.7 3.7 18.45 3.8 Q18.2 3.3 17.75 3.4 17.25 3.55 17.55 4.05 17.8 4.6 17.35 4.7 16.9 4.8 16.65 4.35 16.4 3.8 16.0 3.9 15.5 4.0 15.75 4.55 L15.55 4.55 15.5 4.55 15.45 4.6 Q16.15 4.6 16.15 5.05 16.1 5.45 15.4 5.45 14.7 5.4 14.65 5.85 14.6 6.3 15.3 6.35 16.05 6.35 16.05 6.8 15.95 7.25 15.2 7.2 14.6 7.2 14.5 7.65 14.45 8.1 15.15 8.15 L15.1 8.3 Q15.75 8.55 15.5 8.9 15.2 9.15 14.65 8.9 14.2 8.45 13.85 8.7 13.45 8.9 13.9 9.3 14.1 9.9 13.6 10.0 13.15 10.05 12.95 9.55 L12.85 9.6 12.7 9.55 Q12.85 9.0 12.4 8.95 11.95 8.9 11.8 9.45 L11.0 9.5 Q10.7 9.15 11.25 8.85 L11.2 8.8 11.15 8.6 11.1 8.25 11.1 8.0 Q10.45 8.05 10.35 7.6 10.3 7.2 11.05 7.2 L11.05 6.3 11.1 6.0 Q11.7 6.0 11.8 5.65 11.8 5.25 11.1 5.25 10.45 5.2 10.5 4.85 10.55 4.5 11.2 4.5 11.85 4.55 11.9 4.15 11.95 3.8 11.3 3.75 10.6 3.7 10.65 3.35 10.7 3.0 11.35 3.05 12.0 3.1 12.05 2.75 12.15 2.3 11.45 2.25 10.75 2.2 10.85 1.85 10.85 1.45 11.55 1.5 L11.6 1.25 11.6 1.1 Q12.35 1.15 12.4 0.8 12.45 0.35 11.7 0.35 11.05 0.3 11.1 -0.05 11.1 -0.45 11.8 -0.4 12.55 -0.35 12.6 -0.65 12.65 -1.1 11.9 -1.1 11.25 -1.2 11.3 -1.55 11.35 -1.9 12.0 -1.85 12.7 -1.85 12.75 -2.15 12.8 -2.55 12.15 -2.55 L12.15 -2.8 12.15 -3.1 12.2 -3.4 12.25 -3.95 12.0 -4.1 11.9 -4.2 Q11.3 -3.95 11.1 -4.2 10.85 -4.55 11.4 -4.85 12.15 -5.0 11.95 -5.3 11.85 -5.6 11.2 -5.55 L11.2 -5.85 11.2 -6.05 Q10.7 -6.35 10.9 -6.65 L11.7 -6.7 Q12.15 -6.25 12.55 -6.45 12.95 -6.7 12.5 -7.1 12.2 -7.55 12.55 -7.8 13.0 -8.0 13.3 -7.45 13.6 -6.95 14.05 -7.1 14.45 -7.25 14.25 -7.75 14.0 -8.3 14.45 -8.4 14.9 -8.55 15.1 -8.05 15.35 -7.45 15.85 -7.55 16.3 -7.65 16.1 -8.25 15.95 -8.7 16.4 -8.8 16.85 -8.95 17.0 -8.4 M3.8 -3.35 Q3.75 -3.65 3.05 -3.55 L2.2 -3.65 Q2.0 -3.95 2.55 -4.15 L1.65 -4.25 Q1.35 -4.0 1.9 -3.6 2.5 -3.35 2.2 -3.05 1.9 -2.7 1.35 -3.05 0.75 -3.35 0.5 -3.05 0.3 -2.7 0.8 -2.35 1.4 -2.1 1.2 -1.8 L0.35 -1.7 -0.55 -1.65 Q-0.7 -1.3 -0.1 -1.1 0.65 -0.85 0.4 -0.5 0.25 -0.15 -0.5 -0.35 -1.15 -0.55 -1.25 -0.2 -1.4 0.1 -0.8 0.3 -0.2 0.5 -0.35 0.85 -0.5 1.2 -1.1 1.05 -1.7 0.9 -1.95 1.25 L-1.3 1.7 -1.3 1.8 -0.95 1.75 Q-1.0 1.25 -0.55 1.25 0.0 1.2 0.0 1.7 0.05 2.25 0.6 2.2 1.05 2.15 1.0 1.65 0.9 1.15 1.35 1.1 1.9 1.05 2.0 1.55 2.1 2.05 2.55 2.0 3.0 1.85 2.85 1.35 L3.15 1.25 3.2 0.9 3.25 0.8 3.25 0.55 3.25 0.35 Q2.6 0.3 2.65 -0.05 2.7 -0.4 3.35 -0.4 4.05 -0.35 4.05 -0.7 4.1 -1.1 3.35 -1.1 L3.35 -1.3 3.35 -1.35 Q4.1 -1.4 4.05 -1.7 4.05 -2.05 3.35 -2.05 2.6 -2.05 2.6 -2.4 2.55 -2.85 3.25 -2.9 3.95 -3.0 3.8 -3.35 M6.2 -8.25 Q6.85 -8.45 7.05 -8.1 7.2 -7.65 6.5 -7.5 5.9 -7.35 6.0 -7.0 6.15 -6.65 6.75 -6.8 7.45 -6.9 7.6 -6.55 7.65 -6.15 7.0 -6.05 6.3 -6.0 6.3 -5.6 6.4 -5.25 7.1 -5.35 7.8 -5.4 7.85 -5.05 7.9 -4.65 7.2 -4.65 6.5 -4.6 6.55 -4.2 6.6 -3.8 7.3 -3.85 8.0 -3.9 8.05 -3.55 8.1 -3.15 7.4 -3.15 6.7 -3.1 6.75 -2.7 6.8 -2.3 7.45 -2.35 8.15 -2.35 8.2 -2.0 8.2 -1.7 7.6 -1.65 L7.6 -1.45 Q6.85 -1.4 6.95 -1.05 7.0 -0.65 7.65 -0.65 8.3 -0.7 8.3 -0.35 8.35 0.0 7.7 0.05 7.05 0.1 7.05 0.45 7.1 0.85 7.8 0.8 8.5 0.65 8.55 1.05 8.7 1.35 8.0 1.5 L8.0 1.6 8.05 1.7 8.0 1.7 Q7.4 1.7 7.3 2.05 7.3 2.45 7.95 2.55 8.7 2.6 8.65 2.95 8.55 3.3 7.9 3.3 7.3 3.25 7.2 3.65 7.2 4.0 7.85 4.05 8.55 4.05 8.5 4.5 8.5 4.85 7.8 4.85 7.1 4.85 7.1 5.2 7.05 5.55 7.75 5.6 8.45 5.65 8.4 6.05 8.35 6.4 7.7 6.4 7.05 6.35 7.0 6.75 6.95 7.1 7.65 7.15 8.3 7.15 8.3 7.6 8.3 8.0 7.65 8.0 L7.6 8.05 Q7.0 7.95 6.8 8.3 6.65 8.6 7.4 8.7 7.9 9.05 7.6 9.35 L6.75 9.3 Q6.5 8.85 6.1 8.9 5.7 9.0 5.9 9.55 L5.8 9.55 5.65 9.55 Q5.4 10.0 4.9 9.9 4.45 9.75 4.75 9.25 5.35 8.95 5.05 8.7 L4.2 8.65 4.15 8.55 4.15 8.5 Q4.85 8.5 4.85 8.15 4.85 7.8 4.15 7.8 3.5 7.8 3.5 7.35 3.5 7.0 4.15 7.0 L4.15 6.9 Q3.5 6.9 3.45 6.55 3.45 6.2 4.15 6.2 L4.15 6.1 4.1 5.75 4.1 5.55 4.1 5.5 4.05 5.35 Q4.65 5.15 4.45 4.85 L3.65 4.75 3.55 4.7 1.8 4.7 Q1.8 5.25 1.3 5.25 0.8 5.25 0.8 4.75 0.75 4.25 0.3 4.25 -0.25 4.3 -0.2 4.8 -0.1 5.3 -0.6 5.35 L-1.15 4.9 Q-1.3 4.35 -1.75 4.45 -2.25 4.55 -2.05 5.05 -1.85 5.55 -2.25 5.7 -2.7 5.8 -2.95 5.35 L-3.05 5.35 -3.15 5.45 -3.25 5.45 -4.1 5.55 Q-4.3 5.95 -3.7 6.15 -3.0 6.25 -3.05 6.6 -3.1 6.9 -3.85 6.9 L-3.85 7.15 Q-4.55 7.1 -4.6 7.5 -4.65 7.9 -3.95 8.0 -3.3 8.15 -3.45 8.5 -3.65 8.85 -4.25 8.65 L-5.15 8.55 Q-5.5 8.85 -4.85 9.15 -4.65 9.7 -5.15 9.85 -5.65 9.95 -5.85 9.45 L-6.2 9.45 Q-5.95 8.9 -6.4 8.8 -6.8 8.7 -7.1 9.15 L-7.9 9.2 Q-8.2 8.9 -7.65 8.6 -6.95 8.45 -7.15 8.1 -7.3 7.75 -7.9 7.9 -8.55 8.0 -8.75 7.6 -8.75 7.2 -8.05 7.1 -7.35 7.05 -7.4 6.7 -7.45 6.35 -8.15 6.4 -8.85 6.4 -8.85 6.05 -8.85 5.65 -8.15 5.65 L-8.15 4.15 Q-7.5 4.35 -7.35 3.95 -7.2 3.65 -7.85 3.45 -8.25 3.1 -7.95 2.85 -7.6 2.6 -7.15 3.0 L-6.9 2.9 -6.75 2.8 -6.75 2.75 -6.7 2.65 Q-6.05 2.85 -5.85 2.45 -5.65 2.05 -6.3 1.85 -6.9 1.7 -6.8 1.35 L-5.95 1.25 -5.15 1.1 Q-4.85 0.75 -5.65 0.5 L-5.5 0.35 -5.5 0.3 Q-6.15 0.1 -5.95 -0.2 L-5.15 -0.35 Q-4.45 -0.15 -4.25 -0.5 -4.1 -0.85 -4.7 -1.1 -5.4 -1.25 -5.3 -1.6 L-4.35 -1.75 -3.55 -1.85 Q-3.3 -2.2 -4.0 -2.4 L-3.95 -2.4 -3.95 -2.5 Q-4.55 -2.85 -4.3 -3.15 L-3.55 -3.25 -2.7 -3.35 Q-2.5 -3.7 -3.1 -3.9 -3.75 -4.15 -3.55 -4.45 L-2.65 -4.6 -1.85 -4.65 Q-1.6 -5.0 -2.25 -5.25 -2.8 -5.5 -2.55 -5.8 L-1.7 -5.85 Q-1.15 -5.55 -0.9 -5.85 -0.6 -6.25 -1.15 -6.5 -1.75 -6.8 -1.5 -7.1 -1.2 -7.4 -0.65 -7.1 L0.25 -7.05 Q0.55 -7.3 -0.1 -7.65 -0.6 -8.1 -0.25 -8.35 L0.65 -8.25 Q1.1 -7.8 1.45 -8.1 1.85 -8.35 1.35 -8.75 0.95 -9.2 1.35 -9.35 1.8 -9.55 2.15 -9.15 2.4 -8.7 2.85 -8.8 3.25 -8.95 3.0 -9.45 2.9 -10.0 3.35 -10.05 3.85 -10.15 4.0 -9.55 L4.1 -9.55 Q3.95 -9.1 4.35 -9.0 4.8 -8.85 5.0 -9.35 5.55 -9.8 5.9 -9.5 6.25 -9.25 5.75 -8.9 5.05 -8.65 5.4 -8.3 L6.2 -8.25" fill="#000000" fill-rule="evenodd" stroke="none"/>
  </g>
</svg>
