<?xml version="1.0" encoding="UTF-8" standalone="no"?>
<svg xmlns:xlink="http://www.w3.org/1999/xlink" height="195.05px" width="274.8px" xmlns="http://www.w3.org/2000/svg">
  <g transform="matrix(1.0, 0.0, 0.0, 1.0, 137.4, 97.5)">
    <path d="M77.7 -26.15 Q78.5 -27.35 77.5 -32.95 81.9 -28.35 82.3 -23.55 82.5 -22.35 81.7 -10.35 80.5 17.05 94.9 34.85 109.3 53.05 136.9 57.45 116.1 63.85 106.1 73.25 96.1 82.65 94.3 97.05 74.1 85.65 58.1 85.25 42.3 84.85 28.7 95.05 6.9 58.45 -16.1 44.25 -39.3 30.05 -68.3 33.85 -64.5 -16.15 -80.7 -45.75 -96.9 -75.35 -136.9 -96.35 -102.5 -98.55 -74.7 -93.35 -48.9 -88.55 -25.3 -76.75 -5.3 -66.75 25.1 -47.75 47.7 -33.75 65.1 -21.35 L74.3 -21.75 Q75.9 -24.55 77.7 -26.15" fill="#ffffff" fill-opacity="0.0" fill-rule="evenodd" stroke="none"/>
    <path d="M77.7 -26.15 Q75.9 -24.55 74.3 -21.75 L65.1 -21.35 Q47.7 -33.75 25.1 -47.75 -5.3 -66.75 -25.3 -76.75 -48.9 -88.55 -74.7 -93.35 -102.5 -98.55 -136.9 -96.35 -96.9 -75.35 -80.7 -45.75 -64.5 -16.15 -68.3 33.85 -39.3 30.05 -16.1 44.25 6.9 58.45 28.7 95.05 42.3 84.85 58.1 85.25 74.1 85.65 94.3 97.05 96.1 82.65 106.1 73.25 116.1 63.85 136.9 57.45 109.3 53.05 94.9 34.85 80.5 17.05 81.7 -10.35 82.5 -22.35 82.3 -23.55 81.9 -28.35 77.5 -32.95 78.5 -27.35 77.7 -26.15 Z" fill="none" stroke="#000000" stroke-linecap="round" stroke-linejoin="round" stroke-width="1.0"/>
    <path d="M74.3 -21.75 Q52.5 10.05 44.3 27.65 29.3 59.85 28.7 95.05 M65.1 -21.35 Q26.3 -19.15 -5.5 -6.35 -38.3 7.05 -68.3 33.85" fill="none" stroke="#000000" stroke-linecap="round" stroke-linejoin="round" stroke-opacity="0.4" stroke-width="1.0"/>
  </g>
</svg>
