<?xml version="1.0" encoding="UTF-8" standalone="no"?>
<svg xmlns:xlink="http://www.w3.org/1999/xlink" height="102.55px" width="281.05px" xmlns="http://www.w3.org/2000/svg">
  <g transform="matrix(1.0, 0.0, 0.0, 1.0, 140.5, 69.35)">
    <path d="M7.4 -46.65 L6.15 -43.6 1.45 -33.3 Q-1.4 -27.25 -1.4 -12.75 -1.4 -4.15 -0.55 15.7 -1.4 -4.15 -1.4 -12.75 -1.4 -27.25 1.45 -33.3 L6.15 -43.6 7.4 -46.65 Q28.65 -43.65 40.95 -47.8 62.4 -40.75 123.4 -67.3 125.95 -68.6 129.45 -68.8 L132.15 -68.75 Q136.05 -68.3 137.9 -65.6 L138.85 -63.7 Q139.6 -61.65 139.95 -58.3 140.3 -54.75 139.5 -47.3 L131.95 -38.8 139.5 -47.3 139.4 -46.6 Q138.75 -41.35 137.9 -36.75 L136.95 -32.3 Q134.1 -20.1 125.45 3.2 L118.4 4.55 Q121.45 -3.35 123.45 -10.3 125.5 -17.55 125.7 -24.75 125.95 -33.95 121.95 -34.3 L132.15 -68.75 121.95 -34.3 Q117.8 -34.65 113.4 -24.8 109.55 -16.2 107.45 -4.8 105.9 3.65 106.35 5.95 106.45 6.55 106.7 6.7 L95.95 8.7 Q102.7 -22.2 107.1 -34.85 L111.0 -45.8 107.1 -34.85 Q102.7 -22.2 95.95 8.7 L88.85 11.7 85.05 13.2 Q73.05 17.95 63.0 20.9 L59.6 21.85 Q48.85 24.8 40.5 25.55 L28.2 26.8 24.55 27.2 2.15 30.1 -0.35 30.45 -3.65 30.95 -16.4 32.3 -19.7 32.5 Q-32.95 33.1 -47.1 31.75 L-50.1 31.45 -54.3 30.95 -83.65 27.2 -86.5 26.85 -122.05 22.3 -122.55 22.2 Q-134.6 -2.9 -137.5 -13.0 -141.9 -28.3 -138.55 -36.3 -135.3 -44.05 -131.15 -45.5 L-124.55 -45.3 Q-123.05 -45.1 -115.05 -42.25 -107.05 -39.35 -102.55 -38.8 L-79.05 -37.8 Q-66.85 -32.85 -48.05 -37.8 -35.35 -35.0 -18.6 -44.6 -8.85 -41.1 7.4 -46.65 M40.45 -47.3 L37.35 -44.5 Q33.6 -40.6 30.45 -35.3 27.3 -29.9 26.75 -16.75 26.45 -8.8 26.45 11.2 26.45 -8.8 26.75 -16.75 27.3 -29.9 30.45 -35.3 33.6 -40.6 37.35 -44.5 L40.45 -47.3 M-22.05 17.2 Q-25.3 -2.65 -26.25 -12.15 -27.85 -28.75 -24.05 -34.8 -20.3 -40.75 -19.05 -43.35 L-18.6 -44.6 -19.05 -43.35 Q-20.3 -40.75 -24.05 -34.8 -27.85 -28.75 -26.25 -12.15 -25.3 -2.65 -22.05 17.2 M120.5 -65.15 Q121.7 -66.45 123.4 -67.3 121.7 -66.45 120.5 -65.15 L122.95 -49.8 120.5 -65.15 120.1 -64.75 Q118.15 -62.6 114.85 -55.2 L114.45 -54.3 Q112.9 -50.85 111.0 -45.8 112.9 -50.85 114.45 -54.3 L114.85 -55.2 Q118.15 -62.6 120.1 -64.75 L120.5 -65.15 M131.45 -31.8 L137.9 -36.75 131.45 -31.8 M131.45 -47.3 L138.85 -63.7 131.45 -47.3 M115.45 -37.8 L111.0 -45.8 115.45 -37.8 M119.95 -43.8 L114.85 -55.2 119.95 -43.8 M-48.05 -37.3 L-52.25 -32.35 Q-52.95 -31.2 -56.05 -23.3 -58.85 -16.15 -56.5 -5.05 L-50.55 19.2 -56.5 -5.05 Q-58.85 -16.15 -56.05 -23.3 -52.95 -31.2 -52.25 -32.35 L-48.05 -37.3 M-79.05 -37.3 Q-84.55 -34.7 -86.6 -31.75 -88.05 -29.65 -91.55 -22.8 -94.8 -17.25 -93.3 -8.1 -92.3 -2.05 -87.55 16.7 -92.3 -2.05 -93.3 -8.1 -94.8 -17.25 -91.55 -22.8 -88.05 -29.65 -86.6 -31.75 -84.55 -34.7 -79.05 -37.3" fill="#ffffff" fill-opacity="0.0" fill-rule="evenodd" stroke="none"/>
    <path d="M121.95 -34.3 Q125.95 -33.95 125.7 -24.75 125.5 -17.55 123.45 -10.3 121.45 -3.35 118.4 4.55 L125.45 3.2 119.2 10.9 100.1 13.75 95.95 8.7 106.7 6.7 Q106.45 6.55 106.35 5.95 105.9 3.65 107.45 -4.8 109.55 -16.2 113.4 -24.8 117.8 -34.65 121.95 -34.3" fill="#000000" fill-opacity="0.14901961" fill-rule="evenodd" stroke="none"/>
    <path d="M26.45 11.2 Q26.45 -8.8 26.75 -16.75 27.3 -29.9 30.45 -35.3 33.6 -40.6 37.35 -44.5 L40.45 -47.3 M-0.55 15.7 Q-1.4 -4.15 -1.4 -12.75 -1.4 -27.25 1.45 -33.3 L6.15 -43.6 7.4 -46.65 M-18.6 -44.6 L-19.05 -43.35 Q-20.3 -40.75 -24.05 -34.8 -27.85 -28.75 -26.25 -12.15 -25.3 -2.65 -22.05 17.2 M95.95 8.7 L100.1 13.75 119.2 10.9 125.45 3.2 M-87.55 16.7 Q-92.3 -2.05 -93.3 -8.1 -94.8 -17.25 -91.55 -22.8 -88.05 -29.65 -86.6 -31.75 -84.55 -34.7 -79.05 -37.3 M-50.55 19.2 L-56.5 -5.05 Q-58.85 -16.15 -56.05 -23.3 -52.95 -31.2 -52.25 -32.35 L-48.05 -37.3" fill="none" stroke="#000000" stroke-linecap="round" stroke-linejoin="round" stroke-opacity="0.4" stroke-width="1.0"/>
    <path d="M7.4 -46.65 Q-8.85 -41.1 -18.6 -44.6 -35.35 -35.0 -48.05 -37.8 -66.85 -32.85 -79.05 -37.8 L-102.55 -38.8 Q-107.05 -39.35 -115.05 -42.25 -123.05 -45.1 -124.55 -45.3 L-131.15 -45.5 Q-135.3 -44.05 -138.55 -36.3 -141.9 -28.3 -137.5 -13.0 -134.6 -2.9 -122.55 22.2 L-122.05 22.3 -86.5 26.85 -83.65 27.2 -54.3 30.95 -50.1 31.45 -47.1 31.75 Q-32.95 33.1 -19.7 32.5 L-16.4 32.3 -3.65 30.95 -0.35 30.45 2.15 30.1 24.55 27.2 28.2 26.8 40.5 25.55 Q48.85 24.8 59.6 21.85 L63.0 20.9 Q73.05 17.95 85.05 13.2 L88.85 11.7 95.95 8.7 M123.4 -67.3 Q62.4 -40.75 40.95 -47.8 28.65 -43.65 7.4 -46.65 M132.15 -68.75 L129.45 -68.8 Q125.95 -68.6 123.4 -67.3 M138.85 -63.7 L137.9 -65.6 Q136.05 -68.3 132.15 -68.75 M118.4 4.55 L125.45 3.2 Q134.1 -20.1 136.95 -32.3 L137.9 -36.75 Q138.75 -41.35 139.4 -46.6 L139.5 -47.3 Q140.3 -54.75 139.95 -58.3 139.6 -61.65 138.85 -63.7" fill="none" stroke="#000000" stroke-linecap="round" stroke-linejoin="round" stroke-width="1.0"/>
    <path d="M123.4 -67.3 Q121.7 -66.45 120.5 -65.15 L120.1 -64.75 Q118.15 -62.6 114.85 -55.2 L114.45 -54.3 Q112.9 -50.85 111.0 -45.8 L107.1 -34.85 Q102.7 -22.2 95.95 8.7 L106.7 6.7 Q106.45 6.55 106.35 5.95 105.9 3.65 107.45 -4.8 109.55 -16.2 113.4 -24.8 117.8 -34.65 121.95 -34.3 125.95 -33.95 125.7 -24.75 125.5 -17.55 123.45 -10.3 121.45 -3.35 118.4 4.55 M132.15 -68.75 L121.95 -34.3" fill="none" stroke="#000000" stroke-linecap="round" stroke-linejoin="round" stroke-opacity="0.6" stroke-width="1.0"/>
    <path d="M120.5 -65.15 L122.95 -49.8 M137.9 -36.75 L131.45 -31.8 M138.85 -63.7 L131.45 -47.3 M111.0 -45.8 L115.45 -37.8 M114.85 -55.2 L119.95 -43.8 M139.5 -47.3 L131.95 -38.8" fill="none" stroke="#000000" stroke-linecap="round" stroke-linejoin="round" stroke-opacity="0.29803923" stroke-width="1.0"/>
  </g>
</svg>
