<?xml version="1.0" encoding="UTF-8" standalone="no"?>
<svg xmlns:xlink="http://www.w3.org/1999/xlink" height="26.0px" width="227.2px" xmlns="http://www.w3.org/2000/svg">
  <g transform="matrix(1.0, 0.0, 0.0, 1.0, 113.6, 9.5)">
    <path d="M106.95 8.8 L107.3 8.8 106.95 8.8" fill="#b3b3b3" fill-rule="evenodd" stroke="none"/>
    <path d="M58.45 8.95 L59.45 9.0 60.45 9.05 58.8 9.0 58.45 8.95 M64.8 9.15 L65.6 9.15 65.8 9.15 67.8 9.15 68.8 9.2 64.8 9.15 M81.3 9.2 L82.3 9.15 82.45 9.15 84.45 9.15 86.45 9.1 86.6 9.1 88.6 9.1 90.6 9.05 90.8 9.05 92.8 9.05 94.8 9.0 94.95 9.0 95.95 9.0 81.3 9.2 M96.4 9.0 L96.95 9.0 97.45 9.0 96.4 9.0 M104.55 8.85 L105.3 8.85 105.95 8.85 104.55 8.85 M108.9 8.75 L109.35 8.75 108.3 8.8 108.9 8.75" fill="#e1e1e1" fill-rule="evenodd" stroke="none"/>
    <path d="M2.0 -5.45 Q7.0 -4.65 9.55 -3.65 23.95 2.05 35.45 5.15 L36.65 5.5 37.85 5.8 38.75 6.0 49.1 8.1 49.85 8.2 51.1 8.4 53.1 8.6 53.3 8.65 54.2 8.7 55.3 8.8 55.45 8.8 56.3 8.85 57.3 8.9 57.45 8.9 58.45 8.95 58.8 9.0 60.45 9.05 61.45 9.05 61.6 9.05 63.6 9.1 64.6 9.15 64.8 9.15 68.8 9.2 69.8 9.2 69.95 9.2 73.95 9.2 76.1 9.2 78.1 9.2 80.05 9.2 80.3 9.2 81.3 9.2 95.95 9.0 96.4 9.0 97.45 9.0 97.9 8.95 98.25 8.95 98.45 8.95 98.95 8.95 99.1 8.95 101.1 8.95 103.1 8.9 103.3 8.9 104.55 8.85 105.95 8.85 106.65 8.8 106.8 8.8 106.95 8.8 107.3 8.8 108.3 8.8 109.35 8.75 111.55 8.7 112.9 10.5 112.95 10.6 Q113.35 12.0 112.65 13.7 L57.2 13.7 Q48.8 12.85 38.75 10.5 L37.85 10.25 36.65 9.95 35.45 9.65 22.65 5.95 5.85 0.0 Q-100.85 5.5 -103.8 0.7 -105.45 -2.0 -108.45 -3.95 L-111.15 -5.3 -102.3 -8.0 -97.7 -9.0 -93.1 -8.85 Q-87.8 -8.05 -84.2 -4.75 -80.85 -1.65 -41.5 -2.45 1.9 -3.35 4.05 -3.0 L2.0 -5.45 M-102.05 -1.8 L-103.15 -2.8 Q-106.7 0.85 -86.15 0.4 L-64.95 -0.8 -97.3 -1.0 Q-100.35 -0.85 -102.05 -1.8 M111.35 10.85 L59.85 10.85 79.7 11.85 Q92.1 12.2 100.65 11.85 L111.35 10.85" fill="#ffffff" fill-opacity="0.0" fill-rule="evenodd" stroke="none"/>
    <path d="M112.65 13.7 L111.2 16.0 57.85 16.0 Q53.55 15.95 45.1 14.25 L38.75 12.9 37.85 12.65 36.65 12.35 35.45 12.05 Q22.5 8.75 7.55 3.0 -58.45 6.35 -80.8 9.0 -86.4 9.35 -93.2 8.75 -106.75 7.6 -112.8 3.0 -113.15 1.2 -113.1 -0.75 -113.0 -4.65 -111.15 -5.3 L-108.45 -3.95 Q-105.45 -2.0 -103.8 0.7 -100.85 5.5 5.85 0.0 L22.65 5.95 35.45 9.65 36.65 9.95 37.85 10.25 38.75 10.5 Q48.8 12.85 57.2 13.7 L112.65 13.7" fill="#000000" fill-opacity="0.2" fill-rule="evenodd" stroke="none"/>
    <path d="M-102.05 -1.8 Q-100.35 -0.85 -97.3 -1.0 L-64.95 -0.8 -86.15 0.4 Q-106.7 0.85 -103.15 -2.8 L-102.05 -1.8 M111.35 10.85 L100.65 11.85 Q92.1 12.2 79.7 11.85 L59.85 10.85 111.35 10.85" fill="#ffffff" fill-opacity="0.3019608" fill-rule="evenodd" stroke="none"/>
    <path d="M2.0 -5.45 Q7.0 -4.65 9.55 -3.65 23.95 2.05 35.45 5.15 L36.65 5.5 37.85 5.8 38.75 6.0 49.1 8.1 M106.8 8.8 L106.95 8.8 107.3 8.8 108.9 8.75 109.35 8.75 111.55 8.7 112.9 10.5 112.95 10.6 Q113.35 12.0 112.65 13.7 L111.2 16.0 57.85 16.0 Q53.55 15.95 45.1 14.25 L38.75 12.9 37.85 12.65 36.65 12.35 35.45 12.05 Q22.5 8.75 7.55 3.0 -58.45 6.35 -80.8 9.0 -86.4 9.35 -93.2 8.75 -106.75 7.6 -112.8 3.0 -113.15 1.2 -113.1 -0.75 -113.0 -4.65 -111.15 -5.3 L-102.3 -8.0 -97.7 -9.0 M108.3 8.8 L107.3 8.8 M109.35 8.75 L108.3 8.8" fill="none" stroke="#000000" stroke-linecap="round" stroke-linejoin="round" stroke-width="1.0"/>
    <path d="M49.1 8.1 L49.85 8.2 51.1 8.4 53.1 8.6 53.3 8.65 54.2 8.7 55.3 8.8 55.45 8.8 56.3 8.85 57.3 8.9 57.45 8.9 58.45 8.95 58.8 9.0 60.45 9.05 61.45 9.05 61.6 9.05 63.6 9.1 64.6 9.15 64.8 9.15 68.8 9.2 69.8 9.2 69.95 9.2 73.95 9.2 76.1 9.2 78.1 9.2 80.05 9.2 80.3 9.2 81.3 9.2 95.95 9.0 96.4 9.0 96.95 9.0 97.45 9.0 97.9 8.95 98.25 8.95 98.45 8.95 98.95 8.95 99.1 8.95 101.1 8.95 103.1 8.9 103.3 8.9 104.55 8.85 105.95 8.85 106.65 8.8 106.8 8.8 M106.95 8.8 L107.3 8.8 M96.4 9.0 L97.45 9.0" fill="none" stroke="#000000" stroke-linecap="round" stroke-linejoin="round" stroke-opacity="0.6" stroke-width="1.0"/>
    <path d="M-97.7 -9.0 L-93.1 -8.85 Q-87.8 -8.05 -84.2 -4.75 -80.85 -1.65 -41.5 -2.45 1.9 -3.35 4.05 -3.0 L2.0 -5.45 Z" fill="none" stroke="#000000" stroke-linecap="round" stroke-linejoin="round" stroke-opacity="0.4" stroke-width="1.0"/>
  </g>
</svg>
