<?xml version="1.0" encoding="UTF-8" standalone="no"?>
<svg xmlns:xlink="http://www.w3.org/1999/xlink" height="57.9px" width="37.0px" xmlns="http://www.w3.org/2000/svg">
  <g transform="matrix(1.0, 0.0, 0.0, 1.0, 18.55, 37.15)">
    <path d="M14.2 1.95 L14.2 2.05 14.5 3.15 14.1 1.95 14.2 1.95 M-14.8 4.3 L-14.6 3.15 -14.25 2.05 -14.15 2.05 -14.55 3.15 -14.8 4.3" fill="#eeefef" fill-rule="evenodd" stroke="none"/>
    <path d="M-14.25 2.05 L-12.2 -3.0 -12.15 -3.15 Q-8.45 -10.85 -4.1 -12.0 L-2.3 -12.45 -2.3 -34.25 2.2 -34.25 2.2 -12.45 4.0 -12.0 Q8.4 -10.85 12.1 -3.15 L12.1 -3.05 Q13.35 -0.5 14.2 1.95 L14.1 1.95 6.0 2.35 1.5 3.15 -2.9 4.0 -10.1 3.55 -11.3 3.15 -14.15 2.05 -14.25 2.05" fill="#ffffff" fill-opacity="0.2" fill-rule="evenodd" stroke="none"/>
    <path d="M14.2 1.95 Q13.35 -0.5 12.1 -3.05 L12.1 -3.15 Q8.4 -10.85 4.0 -12.0 L2.2 -12.45 2.2 -34.25 -2.3 -34.25 -2.3 -12.45 -4.1 -12.0 Q-8.45 -10.85 -12.15 -3.15 L-12.2 -3.0 -14.25 2.05 -14.6 3.15 -14.8 4.3 -15.65 10.05 -15.65 10.2 -15.65 10.35 Q-15.65 15.15 -12.0 16.65 L-11.85 16.75 Q-8.85 17.85 -0.05 17.85 7.9 17.85 11.35 16.75 L12.1 16.45 Q15.55 14.85 15.55 10.05 L15.55 9.9 15.15 6.25 14.5 3.15 14.2 2.05 14.2 1.95 M14.2 -4.4 L14.8 -3.15 Q16.3 0.1 17.05 3.15 L17.35 4.5 Q17.95 7.35 17.95 10.05 17.95 12.25 17.35 14.05 16.8 15.55 15.75 16.75 14.5 18.0 12.7 18.85 9.1 20.25 -0.05 20.25 -9.45 20.25 -12.8 18.9 -14.85 18.15 -16.05 16.75 -18.05 14.35 -18.05 10.35 -18.05 6.85 -17.0 3.15 -16.2 0.1 -14.7 -3.15 L-14.25 -4.25 Q-10.05 -12.9 -4.7 -14.25 L-4.7 -36.65 4.6 -36.65 4.6 -14.25 Q10.0 -12.9 14.2 -4.4" fill="#ffffff" fill-opacity="0.4" fill-rule="evenodd" stroke="none"/>
    <path d="M-14.15 2.05 L-11.3 3.15 -10.1 3.55 -2.9 4.0 1.5 3.15 6.0 2.35 14.1 1.95" fill="none" stroke="#000000" stroke-linecap="round" stroke-linejoin="round" stroke-opacity="0.4" stroke-width="1.0"/>
    <path d="M-14.25 2.05 L-12.2 -3.0 -12.15 -3.15 Q-8.45 -10.85 -4.1 -12.0 L-2.3 -12.45 -2.3 -34.25 2.2 -34.25 2.2 -12.45 4.0 -12.0 Q8.4 -10.85 12.1 -3.15 L12.1 -3.05 Q13.35 -0.5 14.2 1.95 L14.2 2.05 14.5 3.15 15.15 6.25 15.55 9.9 15.55 10.05 Q15.55 14.85 12.1 16.45 L11.35 16.75 Q7.9 17.85 -0.05 17.85 -8.85 17.85 -11.85 16.75 M-12.0 16.65 Q-15.65 15.15 -15.65 10.35 L-15.65 10.2 -15.65 10.05 -14.8 4.3 -14.6 3.15 -14.25 2.05 M14.5 3.15 L14.1 1.95 M-14.15 2.05 L-14.55 3.15 -14.8 4.3" fill="none" stroke="#000000" stroke-linecap="round" stroke-linejoin="round" stroke-opacity="0.09803922" stroke-width="1.0"/>
    <path d="M14.2 -4.4 Q10.0 -12.9 4.6 -14.25 L4.6 -36.65 -4.7 -36.65 -4.7 -14.25 Q-10.05 -12.9 -14.25 -4.25 L-14.7 -3.15 Q-16.2 0.1 -17.0 3.15 -18.05 6.85 -18.05 10.35 -18.05 14.35 -16.05 16.75 -14.85 18.15 -12.8 18.9 -9.45 20.25 -0.05 20.25 9.1 20.25 12.7 18.85 14.5 18.0 15.75 16.75 16.8 15.55 17.35 14.05 17.95 12.25 17.95 10.05 17.95 7.35 17.35 4.5 L17.05 3.15 Q16.3 0.1 14.8 -3.15 L14.2 -4.4" fill="none" stroke="#000000" stroke-linecap="round" stroke-linejoin="round" stroke-opacity="0.6" stroke-width="1.0"/>
  </g>
</svg>
