<?xml version="1.0" encoding="UTF-8" standalone="no"?>
<svg xmlns:xlink="http://www.w3.org/1999/xlink" height="119.1px" width="108.9px" xmlns="http://www.w3.org/2000/svg">
  <g transform="matrix(1.0, 0.0, 0.0, 1.0, 54.45, 37.8)">
    <path d="M-3.95 -29.3 Q-2.65 -31.8 -1.85 -34.75 L-0.05 -33.6 Q2.25 -32.25 4.95 -31.25 13.6 -28.0 22.65 -29.25 21.3 -30.1 19.65 -31.7 16.85 -34.4 15.55 -37.3 25.3 -35.8 32.95 -32.3 63.5 -18.35 49.65 21.25 34.95 63.4 19.8 75.35 14.6 79.45 8.85 80.3 L1.15 80.75 0.45 80.8 -1.2 80.8 Q-3.8 80.5 -6.65 79.05 7.1 79.7 13.75 72.65 15.85 70.45 16.95 67.75 L17.65 65.5 Q18.6 65.5 19.25 64.25 19.9 63.0 19.9 61.25 L19.85 60.1 19.6 59.05 19.25 58.25 Q18.6 57.0 17.65 57.0 L17.65 56.9 Q17.0 56.85 16.3 57.3 15.5 57.85 15.0 58.75 15.4 55.0 18.05 54.15 L20.65 54.05 Q24.85 52.2 26.9 43.65 L28.15 35.5 Q29.1 35.5 29.75 34.25 L30.0 33.75 Q30.4 32.65 30.4 31.25 L30.25 29.65 29.75 28.25 Q29.1 27.0 28.15 27.0 L28.1 26.7 Q26.8 26.8 25.8 28.65 25.0 30.1 24.65 31.75 22.8 28.65 24.55 25.4 L26.65 22.75 Q29.05 20.55 29.0 15.05 29.0 11.75 28.15 8.05 L27.9 6.25 Q27.9 4.5 27.25 3.25 26.6 2.0 25.65 2.0 L25.25 2.1 24.55 2.25 24.5 2.3 22.0 4.4 Q21.8 1.05 24.05 -0.3 25.2 -0.95 26.35 -0.95 25.9 -3.85 24.25 -10.45 L22.65 -16.5 Q23.6 -16.5 24.25 -17.75 24.9 -19.0 24.9 -20.75 24.9 -22.5 24.25 -23.75 23.6 -25.0 22.65 -25.0 21.75 -25.0 21.1 -23.75 20.4 -22.5 20.4 -20.75 20.4 -19.0 21.1 -17.75 21.6 -16.8 22.25 -16.55 18.65 -17.25 17.45 -20.25 L17.0 -23.25 Q11.15 -23.7 -1.0 -28.2 L-3.95 -29.3" fill="#000000" fill-opacity="0.101960786" fill-rule="evenodd" stroke="none"/>
    <path d="M-1.2 80.8 Q-3.9 80.55 -6.7 79.1 L-6.65 79.05 Q-3.8 80.5 -1.2 80.8" fill="#cccccc" fill-rule="evenodd" stroke="none"/>
    <path d="M-31.4 -32.1 L-31.0 -32.25 -25.95 -31.6 -26.45 -31.4 -31.4 -32.1" fill="#bbbbbb" fill-rule="evenodd" stroke="none"/>
    <path d="M22.25 -16.55 Q21.6 -16.8 21.1 -17.75 20.4 -19.0 20.4 -20.75 20.4 -22.5 21.1 -23.75 21.75 -25.0 22.65 -25.0 23.6 -25.0 24.25 -23.75 24.9 -22.5 24.9 -20.75 24.9 -19.0 24.25 -17.75 23.6 -16.5 22.65 -16.5 L22.25 -16.55 M25.25 2.1 L25.65 2.0 Q26.6 2.0 27.25 3.25 27.9 4.5 27.9 6.25 27.9 8.0 27.25 9.25 26.6 10.5 25.65 10.5 24.75 10.5 24.1 9.25 23.4 8.0 23.4 6.25 23.4 4.5 24.1 3.25 L24.65 2.5 25.25 2.1 M28.15 27.0 Q29.1 27.0 29.75 28.25 L30.25 29.65 30.4 31.25 Q30.4 32.65 30.0 33.75 L29.75 34.25 Q29.1 35.5 28.15 35.5 27.25 35.5 26.6 34.25 25.9 33.0 25.9 31.25 25.9 29.5 26.6 28.25 27.25 27.0 28.15 27.0 M17.65 57.0 Q18.6 57.0 19.25 58.25 L19.6 59.05 19.85 60.1 19.9 61.25 Q19.9 63.0 19.25 64.25 18.6 65.5 17.65 65.5 16.75 65.5 16.1 64.25 15.4 63.0 15.4 61.25 15.4 59.5 16.1 58.25 16.75 57.0 17.65 57.0 M8.25 -12.75 Q8.9 -11.5 8.9 -9.75 8.9 -8.0 8.25 -6.75 7.6 -5.5 6.65 -5.5 5.75 -5.5 5.1 -6.75 4.4 -8.0 4.4 -9.75 4.4 -11.5 5.1 -12.75 5.75 -14.0 6.65 -14.0 7.6 -14.0 8.25 -12.75 M-36.85 -1.75 Q-35.8 -1.75 -35.05 -0.5 -34.35 0.75 -34.35 2.5 -34.35 4.25 -35.05 5.5 -35.8 6.75 -36.85 6.75 -37.85 6.75 -38.6 5.5 -39.35 4.25 -39.35 2.5 -39.35 0.75 -38.6 -0.5 -37.85 -1.75 -36.85 -1.75 M-13.6 -10.75 Q-12.65 -10.75 -12.0 -9.5 -11.35 -8.25 -11.35 -6.5 -11.35 -4.75 -12.0 -3.5 -12.65 -2.25 -13.6 -2.25 -14.5 -2.25 -15.15 -3.5 -15.85 -4.75 -15.85 -6.5 -15.85 -8.25 -15.15 -9.5 -14.5 -10.75 -13.6 -10.75 M-1.75 10.5 Q-1.1 11.75 -1.1 13.5 -1.1 15.25 -1.75 16.5 -2.4 17.75 -3.35 17.75 -4.25 17.75 -4.9 16.5 -5.6 15.25 -5.6 13.5 -5.6 11.75 -4.9 10.5 -4.25 9.25 -3.35 9.25 -2.4 9.25 -1.75 10.5 M-34.6 23.75 Q-34.6 25.5 -35.25 26.75 -35.9 28.0 -36.85 28.0 -37.75 28.0 -38.4 26.75 -39.1 25.5 -39.1 23.75 -39.1 22.0 -38.4 20.75 -37.75 19.5 -36.85 19.5 -35.9 19.5 -35.25 20.75 -34.6 22.0 -34.6 23.75 M-21.1 29.5 Q-21.1 27.75 -20.35 26.5 -19.6 25.25 -18.6 25.25 -17.55 25.25 -16.8 26.5 -16.1 27.75 -16.1 29.5 -16.1 31.25 -16.8 32.5 -17.55 33.75 -18.6 33.75 -19.6 33.75 -20.35 32.5 -21.1 31.25 -21.1 29.5 M-15.35 47.5 Q-14.4 47.5 -13.75 48.75 -13.1 50.0 -13.1 51.75 -13.1 53.5 -13.75 54.75 -14.4 56.0 -15.35 56.0 -16.25 56.0 -16.9 54.75 -17.6 53.5 -17.6 51.75 -17.6 50.0 -16.9 48.75 -16.25 47.5 -15.35 47.5 M-1.1 55.25 Q-1.1 53.5 -0.4 52.25 0.25 51.0 1.15 51.0 2.1 51.0 2.75 52.25 3.4 53.5 3.4 55.25 3.4 57.0 2.75 58.25 2.1 59.5 1.15 59.5 0.25 59.5 -0.4 58.25 -1.1 57.0 -1.1 55.25 M10.4 31.25 Q10.4 33.0 9.75 34.25 9.1 35.5 8.15 35.5 7.25 35.5 6.6 34.25 5.9 33.0 5.9 31.25 5.9 29.5 6.6 28.25 7.25 27.0 8.15 27.0 9.1 27.0 9.75 28.25 10.4 29.5 10.4 31.25" fill="#000000" fill-opacity="0.2" fill-rule="evenodd" stroke="none"/>
    <path d="M-6.65 79.05 Q-9.6 77.55 -12.8 74.8 -20.95 67.85 -38.35 46.75 -53.05 28.95 -53.9 7.3 -54.2 0.55 -53.05 -5.75 L-51.85 -10.75 Q-47.45 -24.95 -31.4 -32.1 L-26.45 -31.4 Q-33.0 -28.7 -38.35 -24.65 -49.5 -16.2 -50.2 -3.2 -49.3 -8.3 -45.45 -13.35 -37.85 -23.3 -23.4 -22.95 -24.0 -19.9 -23.85 -16.75 L-21.1 -17.05 Q-17.75 -17.6 -14.7 -19.0 -7.5 -22.3 -3.95 -29.3 L-1.0 -28.2 Q11.15 -23.7 17.0 -23.25 L17.45 -20.25 Q18.65 -17.25 22.25 -16.55 L22.65 -16.5 24.25 -10.45 Q25.9 -3.85 26.35 -0.95 25.2 -0.95 24.05 -0.3 21.8 1.05 22.0 4.4 L24.5 2.3 24.65 2.5 24.1 3.25 Q23.4 4.5 23.4 6.25 23.4 8.0 24.1 9.25 24.75 10.5 25.65 10.5 26.6 10.5 27.25 9.25 27.9 8.0 27.9 6.25 L28.15 8.05 Q29.0 11.75 29.0 15.05 29.05 20.55 26.65 22.75 L24.55 25.4 Q22.8 28.65 24.65 31.75 25.0 30.1 25.8 28.65 26.8 26.8 28.1 26.7 L28.15 27.0 Q27.25 27.0 26.6 28.25 25.9 29.5 25.9 31.25 25.9 33.0 26.6 34.25 27.25 35.5 28.15 35.5 L26.9 43.65 Q24.85 52.2 20.65 54.05 L18.05 54.15 Q15.4 55.0 15.0 58.75 15.5 57.85 16.3 57.3 17.0 56.85 17.65 56.9 L17.65 57.0 Q16.75 57.0 16.1 58.25 15.4 59.5 15.4 61.25 15.4 63.0 16.1 64.25 16.75 65.5 17.65 65.5 L16.95 67.75 Q15.85 70.45 13.75 72.65 7.1 79.7 -6.65 79.05 M8.25 -12.75 Q7.6 -14.0 6.65 -14.0 5.75 -14.0 5.1 -12.75 4.4 -11.5 4.4 -9.75 4.4 -8.0 5.1 -6.75 5.75 -5.5 6.65 -5.5 7.6 -5.5 8.25 -6.75 8.9 -8.0 8.9 -9.75 8.9 -11.5 8.25 -12.75 M-1.1 55.25 Q-1.1 57.0 -0.4 58.25 0.25 59.5 1.15 59.5 2.1 59.5 2.75 58.25 3.4 57.0 3.4 55.25 3.4 53.5 2.75 52.25 2.1 51.0 1.15 51.0 0.25 51.0 -0.4 52.25 -1.1 53.5 -1.1 55.25 M-15.35 47.5 Q-16.25 47.5 -16.9 48.75 -17.6 50.0 -17.6 51.75 -17.6 53.5 -16.9 54.75 -16.25 56.0 -15.35 56.0 -14.4 56.0 -13.75 54.75 -13.1 53.5 -13.1 51.75 -13.1 50.0 -13.75 48.75 -14.4 47.5 -15.35 47.5 M-21.1 29.5 Q-21.1 31.25 -20.35 32.5 -19.6 33.75 -18.6 33.75 -17.55 33.75 -16.8 32.5 -16.1 31.25 -16.1 29.5 -16.1 27.75 -16.8 26.5 -17.55 25.25 -18.6 25.25 -19.6 25.25 -20.35 26.5 -21.1 27.75 -21.1 29.5 M-34.6 23.75 Q-34.6 22.0 -35.25 20.75 -35.9 19.5 -36.85 19.5 -37.75 19.5 -38.4 20.75 -39.1 22.0 -39.1 23.75 -39.1 25.5 -38.4 26.75 -37.75 28.0 -36.85 28.0 -35.9 28.0 -35.25 26.75 -34.6 25.5 -34.6 23.75 M-1.75 10.5 Q-2.4 9.25 -3.35 9.25 -4.25 9.25 -4.9 10.5 -5.6 11.75 -5.6 13.5 -5.6 15.25 -4.9 16.5 -4.25 17.75 -3.35 17.75 -2.4 17.75 -1.75 16.5 -1.1 15.25 -1.1 13.5 -1.1 11.75 -1.75 10.5 M-13.6 -10.75 Q-14.5 -10.75 -15.15 -9.5 -15.85 -8.25 -15.85 -6.5 -15.85 -4.75 -15.15 -3.5 -14.5 -2.25 -13.6 -2.25 -12.65 -2.25 -12.0 -3.5 -11.35 -4.75 -11.35 -6.5 -11.35 -8.25 -12.0 -9.5 -12.65 -10.75 -13.6 -10.75 M-36.85 -1.75 Q-37.85 -1.75 -38.6 -0.5 -39.35 0.75 -39.35 2.5 -39.35 4.25 -38.6 5.5 -37.85 6.75 -36.85 6.75 -35.8 6.75 -35.05 5.5 -34.35 4.25 -34.35 2.5 -34.35 0.75 -35.05 -0.5 -35.8 -1.75 -36.85 -1.75 M10.4 31.25 Q10.4 29.5 9.75 28.25 9.1 27.0 8.15 27.0 7.25 27.0 6.6 28.25 5.9 29.5 5.9 31.25 5.9 33.0 6.6 34.25 7.25 35.5 8.15 35.5 9.1 35.5 9.75 34.25 10.4 33.0 10.4 31.25" fill="#ffffff" fill-opacity="0.0" fill-rule="evenodd" stroke="none"/>
    <path d="M-25.95 -31.6 L-25.85 -31.6 -19.85 -31.75 -22.05 -27.6 -23.4 -22.95 Q-37.85 -23.3 -45.45 -13.35 -49.3 -8.3 -50.2 -3.2 -49.5 -16.2 -38.35 -24.65 -33.0 -28.7 -26.45 -31.4 L-25.95 -31.6" fill="#ffffff" fill-opacity="0.3019608" fill-rule="evenodd" stroke="none"/>
    <path d="M-3.95 -29.3 Q-2.65 -31.8 -1.85 -34.75 L-0.05 -33.6 Q2.25 -32.25 4.95 -31.25 13.6 -28.0 22.65 -29.25 21.3 -30.1 19.65 -31.7 16.85 -34.4 15.55 -37.3 M-31.0 -32.25 L-25.95 -31.6 -25.85 -31.6 -19.85 -31.75 -22.05 -27.6 -23.4 -22.95 Q-24.0 -19.9 -23.85 -16.75 L-21.1 -17.05 Q-17.75 -17.6 -14.7 -19.0 -7.5 -22.3 -3.95 -29.3" fill="none" stroke="#000000" stroke-linecap="butt" stroke-linejoin="miter-clip" stroke-miterlimit="4.0" stroke-opacity="0.6" stroke-width="1.0"/>
    <path d="M22.25 -16.55 Q21.6 -16.8 21.1 -17.75 20.4 -19.0 20.4 -20.75 20.4 -22.5 21.1 -23.75 21.75 -25.0 22.65 -25.0 23.6 -25.0 24.25 -23.75 24.9 -22.5 24.9 -20.75 24.9 -19.0 24.25 -17.75 23.6 -16.5 22.65 -16.5 L22.25 -16.55 M25.25 2.1 L25.65 2.0 Q26.6 2.0 27.25 3.25 27.9 4.5 27.9 6.25 27.9 8.0 27.25 9.25 26.6 10.5 25.65 10.5 24.75 10.5 24.1 9.25 23.4 8.0 23.4 6.25 23.4 4.5 24.1 3.25 L24.65 2.5 25.25 2.1 M28.15 27.0 Q29.1 27.0 29.75 28.25 L30.25 29.65 30.4 31.25 Q30.4 32.65 30.0 33.75 L29.75 34.25 Q29.1 35.5 28.15 35.5 27.25 35.5 26.6 34.25 25.9 33.0 25.9 31.25 25.9 29.5 26.6 28.25 27.25 27.0 28.15 27.0 M17.65 57.0 Q18.6 57.0 19.25 58.25 L19.6 59.05 19.85 60.1 19.9 61.25 Q19.9 63.0 19.25 64.25 18.6 65.5 17.65 65.5 16.75 65.5 16.1 64.25 15.4 63.0 15.4 61.25 15.4 59.5 16.1 58.25 16.75 57.0 17.65 57.0 M8.25 -12.75 Q8.9 -11.5 8.9 -9.75 8.9 -8.0 8.25 -6.75 7.6 -5.5 6.65 -5.5 5.75 -5.5 5.1 -6.75 4.4 -8.0 4.4 -9.75 4.4 -11.5 5.1 -12.75 5.75 -14.0 6.65 -14.0 7.6 -14.0 8.25 -12.75 M-36.85 -1.75 Q-35.8 -1.75 -35.05 -0.5 -34.35 0.75 -34.35 2.5 -34.35 4.25 -35.05 5.5 -35.8 6.75 -36.85 6.75 -37.85 6.75 -38.6 5.5 -39.35 4.25 -39.35 2.5 -39.35 0.75 -38.6 -0.5 -37.85 -1.75 -36.85 -1.75 M-13.6 -10.75 Q-12.65 -10.75 -12.0 -9.5 -11.35 -8.25 -11.35 -6.5 -11.35 -4.75 -12.0 -3.5 -12.65 -2.25 -13.6 -2.25 -14.5 -2.25 -15.15 -3.5 -15.85 -4.75 -15.85 -6.5 -15.85 -8.25 -15.15 -9.5 -14.5 -10.75 -13.6 -10.75 M-1.75 10.5 Q-1.1 11.75 -1.1 13.5 -1.1 15.25 -1.75 16.5 -2.4 17.75 -3.35 17.75 -4.25 17.75 -4.9 16.5 -5.6 15.25 -5.6 13.5 -5.6 11.75 -4.9 10.5 -4.25 9.25 -3.35 9.25 -2.4 9.25 -1.75 10.5 M-34.6 23.75 Q-34.6 25.5 -35.25 26.75 -35.9 28.0 -36.85 28.0 -37.75 28.0 -38.4 26.75 -39.1 25.5 -39.1 23.75 -39.1 22.0 -38.4 20.75 -37.75 19.5 -36.85 19.5 -35.9 19.5 -35.25 20.75 -34.6 22.0 -34.6 23.75 M-21.1 29.5 Q-21.1 27.75 -20.35 26.5 -19.6 25.25 -18.6 25.25 -17.55 25.25 -16.8 26.5 -16.1 27.75 -16.1 29.5 -16.1 31.25 -16.8 32.5 -17.55 33.75 -18.6 33.75 -19.6 33.75 -20.35 32.5 -21.1 31.25 -21.1 29.5 M-15.35 47.5 Q-14.4 47.5 -13.75 48.75 -13.1 50.0 -13.1 51.75 -13.1 53.5 -13.75 54.75 -14.4 56.0 -15.35 56.0 -16.25 56.0 -16.9 54.75 -17.6 53.5 -17.6 51.75 -17.6 50.0 -16.9 48.75 -16.25 47.5 -15.35 47.5 M-1.1 55.25 Q-1.1 53.5 -0.4 52.25 0.25 51.0 1.15 51.0 2.1 51.0 2.75 52.25 3.4 53.5 3.4 55.25 3.4 57.0 2.75 58.25 2.1 59.5 1.15 59.5 0.25 59.5 -0.4 58.25 -1.1 57.0 -1.1 55.25 M10.4 31.25 Q10.4 33.0 9.75 34.25 9.1 35.5 8.15 35.5 7.25 35.5 6.6 34.25 5.9 33.0 5.9 31.25 5.9 29.5 6.6 28.25 7.25 27.0 8.15 27.0 9.1 27.0 9.75 28.25 10.4 29.5 10.4 31.25" fill="none" stroke="#000000" stroke-linecap="butt" stroke-linejoin="miter-clip" stroke-miterlimit="4.0" stroke-opacity="0.4" stroke-width="1.0"/>
    <path d="M15.55 -37.3 Q25.3 -35.8 32.95 -32.3 63.5 -18.35 49.65 21.25 34.95 63.4 19.8 75.35 14.6 79.45 8.85 80.3 L1.15 80.75 0.45 80.8 -1.2 80.8 Q-3.8 80.5 -6.65 79.05 -9.6 77.55 -12.8 74.8 -20.95 67.85 -38.35 46.75 -53.05 28.95 -53.9 7.3 -54.2 0.55 -53.05 -5.75 L-51.85 -10.75 Q-47.45 -24.95 -31.4 -32.1 L-31.0 -32.25" fill="none" stroke="#000000" stroke-linecap="butt" stroke-linejoin="miter-clip" stroke-miterlimit="4.0" stroke-width="1.0"/>
  </g>
</svg>
