<?xml version="1.0" encoding="UTF-8" standalone="no"?>
<svg xmlns:xlink="http://www.w3.org/1999/xlink" height="9.8px" width="18.85px" xmlns="http://www.w3.org/2000/svg">
  <g transform="matrix(1.0, 0.0, 0.0, 1.0, 9.5, -1.5)">
    <path d="M4.35 10.0 L4.15 3.55 7.25 3.6 7.3 10.05 4.35 10.0 M7.0 9.75 L6.95 3.9 4.5 3.9 4.65 9.7 7.0 9.75" fill="#000000" fill-opacity="0.101960786" fill-rule="evenodd" stroke="none"/>
    <path d="M4.8 6.3 L4.8 7.2 5.2 7.2 5.2 6.3 4.8 6.3 M7.0 9.75 L4.65 9.7 4.5 3.9 6.95 3.9 7.0 9.75 M4.35 10.0 L7.3 10.05 7.25 3.6 4.15 3.55 4.35 10.0 M7.6 3.0 L7.7 10.5 4.0 10.45 3.75 2.95 7.6 3.0" fill="#000000" fill-opacity="0.2" fill-rule="evenodd" stroke="none"/>
    <path d="M3.55 10.8 L3.3 2.8 2.65 2.8 2.65 2.0 8.85 2.0 8.85 2.8 8.1 2.8 8.2 10.8 3.55 10.8 M3.3 2.8 L8.1 2.8 3.3 2.8 M7.6 3.0 L3.75 2.95 4.0 10.45 7.7 10.5 7.6 3.0 M2.25 10.05 L-8.9 9.8 -9.0 3.1 2.5 3.1 2.25 10.05 M2.0 3.55 L-8.55 3.55 -8.45 9.35 1.8 9.55 2.0 3.55" fill="#ffffff" fill-opacity="0.0" fill-rule="evenodd" stroke="none"/>
    <path d="M4.8 6.3 L5.2 6.3 5.2 7.2 4.8 7.2 4.8 6.3" fill="#000000" fill-opacity="0.4" fill-rule="evenodd" stroke="none"/>
    <path d="M2.0 3.55 L1.8 9.55 -8.45 9.35 -8.55 3.55 2.0 3.55" fill="#000000" fill-opacity="0.6" fill-rule="evenodd" stroke="none"/>
    <path d="M3.55 10.8 L3.3 2.8 2.65 2.8 2.65 2.0 8.85 2.0 8.85 2.8 8.1 2.8 8.2 10.8 M2.25 10.05 L-8.9 9.8 -9.0 3.1 2.5 3.1 2.25 10.05" fill="none" stroke="#000000" stroke-linecap="round" stroke-linejoin="round" stroke-opacity="0.6" stroke-width="1.0"/>
    <path d="M8.2 10.8 L3.55 10.8" fill="none" stroke="#000000" stroke-linecap="round" stroke-linejoin="round" stroke-width="1.0"/>
    <path d="M8.1 2.8 L3.3 2.8 M7.6 3.0 L3.75 2.95 4.0 10.45 7.7 10.5 7.6 3.0" fill="none" stroke="#000000" stroke-linecap="round" stroke-linejoin="round" stroke-opacity="0.4" stroke-width="1.0"/>
  </g>
</svg>
