<?xml version="1.0" encoding="UTF-8" standalone="no"?>
<svg xmlns:xlink="http://www.w3.org/1999/xlink" height="111.85px" width="383.85px" xmlns="http://www.w3.org/2000/svg">
  <g transform="matrix(1.0, 0.0, 0.0, 1.0, 200.9, 53.75)">
    <path d="M112.4 21.95 L111.45 22.05 111.95 22.0 112.4 21.95 M90.4 11.7 L90.25 12.15 90.9 11.65 90.2 12.2 90.2 12.25 90.2 12.2 90.4 11.7 M89.85 12.85 L89.85 12.9 Q89.75 13.2 89.8 13.6 89.75 13.25 89.85 12.95 L89.6 13.25 89.85 12.85 M115.15 25.75 L114.8 25.8 115.3 25.75 115.35 25.75 115.2 25.75 115.15 25.75" fill="#ffffff" fill-rule="evenodd" stroke="none"/>
    <path d="M113.0 21.9 L114.2 21.8 113.0 21.9" fill="#d7d7d7" fill-rule="evenodd" stroke="none"/>
    <path d="M-186.7 6.85 L-186.85 6.25 -186.55 7.55 -186.7 6.85 M44.95 8.7 L45.0 8.7 44.95 8.8 44.95 8.7 M113.0 21.9 L112.4 21.95 111.95 22.0 113.0 21.9 M99.7 27.9 L100.05 28.9 100.0 28.9 99.7 27.9" fill="#c7c7c7" fill-rule="evenodd" stroke="none"/>
    <path d="M-134.8 -24.65 L-135.8 -26.2 -135.75 -26.2 -134.8 -24.65" fill="#9c9c9c" fill-rule="evenodd" stroke="none"/>
    <path d="M182.4 17.4 L182.45 17.4 182.45 17.55 182.4 17.4" fill="#7d7d7d" fill-rule="evenodd" stroke="none"/>
    <path d="M-200.4 -52.85 Q-191.7 -54.4 -181.25 -49.65 -178.2 -48.25 -173.15 -45.35 -168.6 -42.75 -166.05 -41.7 -157.95 -38.45 -145.2 -40.45 L-145.05 -40.5 -135.8 -26.2 -135.95 -26.15 -141.5 -25.25 Q-157.05 -23.4 -175.25 -29.0 L-178.15 -29.8 Q-183.9 -31.15 -189.3 -30.9 -193.2 -30.7 -195.15 -30.0 L-195.1 -29.7 -195.2 -30.1 -200.4 -52.85 M-22.05 34.2 L-21.9 27.95 Q-21.9 26.45 -23.5 26.45 -25.05 26.35 -25.15 27.85 L-25.3 34.15 Q-58.35 33.45 -93.05 32.1 -172.15 29.1 -182.6 24.95 L-186.2 9.05 -186.45 8.0 -186.55 7.55 -186.85 6.25 -185.9 5.65 -168.65 11.4 Q-149.15 17.2 -137.95 17.65 L-21.85 12.5 -21.85 26.4 Q-21.85 28.2 -20.6 29.45 -19.35 30.7 -17.55 30.7 L-7.4 30.7 -6.05 30.5 -4.35 29.45 -4.05 29.15 Q-3.1 27.95 -3.1 26.4 L-3.1 11.55 34.65 9.55 38.75 9.25 37.65 27.35 37.55 27.6 37.65 27.8 37.75 28.1 38.8 29.85 Q39.45 30.75 40.2 31.15 L38.8 32.5 0.15 34.05 0.3 27.95 Q0.3 26.45 -1.3 26.45 -2.85 26.35 -2.95 27.85 L-3.1 34.15 -16.05 34.3 -22.05 34.2 M-3.5 50.7 L-0.25 50.45 21.8 48.5 27.75 47.95 29.4 47.85 34.45 47.45 59.6 45.45 99.0 42.7 101.7 42.5 103.6 42.4 104.3 42.35 119.2 41.45 125.8 41.15 176.0 39.05 177.05 39.0 176.0 39.05 Q175.95 40.75 175.05 42.85 L-82.0 57.6 -25.7 52.65 -22.45 52.4 -3.5 50.7 M182.4 17.4 L174.9 19.55 158.0 23.6 157.5 23.7 156.15 24.0 152.2 24.85 150.45 25.25 150.0 25.35 148.45 25.65 119.05 27.65 114.7 13.9 Q114.05 12.1 112.15 12.7 110.2 13.35 110.85 15.15 L113.0 21.9 111.95 22.0 111.45 22.05 98.2 23.2 97.45 20.75 106.15 20.75 Q107.95 20.75 109.25 19.5 110.5 18.2 110.5 16.45 L110.5 5.5 179.25 1.75 Q179.1 4.9 179.65 8.25 180.05 10.45 180.75 12.75 181.4 14.85 182.4 17.4 M92.65 22.85 L94.7 29.25 53.95 31.7 53.35 30.25 52.55 28.3 52.15 28.3 52.55 27.75 53.1 8.6 87.0 6.8 Q87.0 12.3 88.2 13.6 88.6 14.05 89.05 13.8 L89.05 13.9 89.05 29.5 92.65 29.25 92.65 22.85 M100.05 28.9 L99.7 27.9 99.45 27.15 114.25 25.85 114.95 27.95 100.05 28.9" fill="#ffffff" fill-opacity="0.0" fill-rule="evenodd" stroke="none"/>
    <path d="M-195.2 -30.1 L-195.1 -29.7 -195.15 -30.0 Q-193.2 -30.7 -189.3 -30.9 -183.9 -31.15 -178.15 -29.8 L-175.25 -29.0 Q-157.05 -23.4 -141.5 -25.25 L-135.95 -26.15 -135.8 -26.2 -134.8 -24.65 -133.85 -23.15 -134.0 -23.1 -141.0 -22.1 Q-158.25 -20.25 -173.25 -25.0 -178.55 -26.65 -184.9 -26.85 L-194.3 -26.35 -194.35 -26.35 -195.2 -30.1 M38.75 9.25 L44.95 8.7 44.95 8.8 43.9 26.9 44.25 27.7 43.9 27.65 40.2 31.15 Q39.45 30.75 38.8 29.85 L37.75 28.1 37.65 27.8 37.55 27.6 37.65 27.35 38.75 9.25 M90.4 11.7 L90.6 10.7 90.9 6.6 91.7 6.55 91.7 11.3 91.2 11.5 90.9 11.65 90.25 12.15 90.4 11.7 M89.8 13.6 L89.95 14.4 92.65 22.85 92.65 29.25 89.05 29.5 89.05 13.9 89.05 13.8 89.55 13.3 89.6 13.25 89.85 12.95 Q89.75 13.25 89.8 13.6" fill="#000000" fill-opacity="0.101960786" fill-rule="evenodd" stroke="none"/>
    <path d="M-200.4 -52.85 L-195.2 -30.1 -194.35 -26.35 -194.3 -26.35 M-135.8 -26.2 L-145.05 -40.5 -145.2 -40.45 M-134.0 -23.1 L-133.85 -23.15 -134.8 -24.65 -135.8 -26.2 M-25.3 34.15 Q-58.35 33.45 -93.05 32.1 -172.15 29.1 -182.6 24.95 L-186.2 9.05 -186.7 6.85 -186.55 7.55 -186.85 6.25 M38.8 32.5 L0.15 34.05 M-3.1 34.15 L-16.05 34.3 -22.05 34.2 M-0.25 50.45 L21.8 48.5 M59.6 45.45 L99.0 42.7 101.7 42.5 103.6 42.4 104.3 42.35 119.2 41.45 125.8 41.15 176.0 39.05 Q175.95 40.75 175.05 42.85 M-82.0 57.6 L-25.7 52.65 M-22.45 52.4 L-3.5 50.7 M-186.2 9.05 L-186.45 8.0 -186.55 7.55 M182.4 17.4 L182.45 17.4 M182.4 17.4 L174.9 19.55 158.0 23.6 157.5 23.7 156.15 24.0 152.2 24.85 150.45 25.25 150.0 25.35 148.45 25.65 119.05 27.65 M94.7 29.25 L53.95 31.7 53.35 30.25 M100.05 28.9 L114.95 27.95 M100.0 28.9 L100.05 28.9" fill="none" stroke="#000000" stroke-linecap="round" stroke-linejoin="round" stroke-width="1.0"/>
    <path d="M-22.05 34.2 L-21.9 27.95 Q-21.9 26.45 -23.5 26.45 -25.05 26.35 -25.15 27.85 L-25.3 34.15 M-21.85 12.5 L-21.85 26.4 Q-21.85 28.2 -20.6 29.45 -19.35 30.7 -17.55 30.7 L-7.4 30.7 -6.05 30.5 -4.35 29.45 -4.05 29.15 Q-3.1 27.95 -3.1 26.4 L-3.1 11.55 M44.95 8.8 L43.9 26.9 44.25 27.7 43.9 27.65 40.2 31.15 38.8 32.5 M0.15 34.05 L0.3 27.95 Q0.3 26.45 -1.3 26.45 -2.85 26.35 -2.95 27.85 L-3.1 34.15 M-3.5 50.7 L-0.25 50.45 M21.8 48.5 L27.75 47.95 29.4 47.85 34.45 47.45 59.6 45.45 M-25.7 52.65 L-22.45 52.4 M119.05 27.65 L114.7 13.9 Q114.05 12.1 112.15 12.7 110.2 13.35 110.85 15.15 L113.0 21.9 112.4 21.95 111.45 22.05 98.2 23.2 97.45 20.75 106.15 20.75 Q107.95 20.75 109.25 19.5 110.5 18.2 110.5 16.45 L110.5 5.5 M179.25 1.75 Q179.1 4.9 179.65 8.25 180.05 10.45 180.75 12.75 181.4 14.85 182.4 17.4 M113.0 21.9 L111.95 22.0 111.45 22.05 M90.9 11.65 L91.2 11.5 91.7 11.3 91.7 6.55 90.9 6.6 90.6 10.7 90.4 11.7 90.2 12.2 90.2 12.25 89.9 12.7 89.85 12.85 89.85 12.9 Q89.75 13.2 89.8 13.6 L89.95 14.4 92.65 22.85 94.7 29.25 M90.25 12.15 L90.9 11.65 90.2 12.2 90.2 12.25 M53.35 30.25 L52.55 28.3 52.15 28.3 M52.55 27.75 L53.1 8.6 M87.0 6.8 Q87.0 12.3 88.2 13.6 88.6 14.05 89.05 13.8 L89.55 13.3 89.6 13.25 89.85 12.85 M89.8 13.6 Q89.75 13.25 89.85 12.95 M99.7 27.9 L100.05 28.9 M114.95 27.95 L114.25 25.85 99.45 27.15 99.7 27.9 M115.2 25.75 L115.15 25.75 M44.95 8.7 L44.95 8.8" fill="none" stroke="#000000" stroke-linecap="round" stroke-linejoin="round" stroke-opacity="0.6" stroke-width="1.0"/>
    <path d="M-145.2 -40.45 Q-157.95 -38.45 -166.05 -41.7 -168.6 -42.75 -173.15 -45.35 -178.2 -48.25 -181.25 -49.65 -191.7 -54.4 -200.4 -52.85 M-194.3 -26.35 L-184.9 -26.85 Q-178.55 -26.65 -173.25 -25.0 -158.25 -20.25 -141.0 -22.1 L-134.0 -23.1 M-186.85 6.25 L-185.9 5.65 -168.65 11.4 Q-149.15 17.2 -137.95 17.65 L-21.85 12.5 M-3.1 11.55 L34.65 9.55 38.75 9.25 44.95 8.7 45.0 8.7 M110.5 5.5 L179.25 1.75 M53.1 8.6 L87.0 6.8" fill="none" stroke="#000000" stroke-linecap="round" stroke-linejoin="round" stroke-opacity="0.4" stroke-width="1.0"/>
    <path d="M175.05 42.85 L-82.0 57.6" fill="none" stroke="#000000" stroke-linecap="round" stroke-linejoin="round" stroke-opacity="0.4" stroke-width="1.0"/>
  </g>
</svg>
