<?xml version="1.0" encoding="UTF-8" standalone="no"?>
<svg xmlns:xlink="http://www.w3.org/1999/xlink" height="83.0px" width="308.6px" xmlns="http://www.w3.org/2000/svg">
  <g transform="matrix(1.0, 0.0, 0.0, 1.0, 162.9, -42.8)">
    <path d="M99.3 66.95 L98.15 66.9 98.35 66.9 98.9 66.95 99.3 66.95" fill="#ffffff" fill-rule="evenodd" stroke="none"/>
    <path d="M90.15 90.05 L90.05 90.15 90.15 90.05 M89.45 90.55 L89.2 90.7 89.15 90.65 89.35 90.6 89.45 90.5 90.05 90.15 89.45 90.55" fill="#cccccc" fill-rule="evenodd" stroke="none"/>
    <path d="M89.2 90.7 L88.7 91.0 88.55 90.8 89.15 90.65 89.2 90.7 M-109.55 72.6 L-108.75 73.5 -109.6 72.7 -109.55 72.6 M-130.0 83.15 L-129.55 84.0 -130.0 83.15" fill="#f8f8f8" fill-rule="evenodd" stroke="none"/>
    <path d="M-129.55 84.0 L-129.15 84.9 -129.55 84.0" fill="#636363" fill-rule="evenodd" stroke="none"/>
    <path d="M-108.25 70.8 L-108.3 70.9 -108.45 71.1 -108.25 70.8 M-122.8 89.95 L-122.0 90.2 -122.85 89.95 -122.8 89.95 M-112.85 61.5 L-113.35 62.5 -113.35 62.45 -112.85 61.5" fill="#d7d7d7" fill-rule="evenodd" stroke="none"/>
    <path d="M-132.2 59.65 L-131.35 59.3 -130.95 59.2 -132.2 59.65" fill="#979797" fill-rule="evenodd" stroke="none"/>
    <path d="M94.2 65.65 Q99.6 61.95 106.45 62.25 115.0 62.65 120.8 68.95 126.6 75.25 126.2 83.8 125.85 92.35 119.5 98.15 113.2 103.95 104.65 103.55 96.1 103.2 90.3 96.85 L90.15 96.7 Q88.15 94.45 86.9 91.9 L88.7 91.0 89.2 90.7 89.45 90.55 Q90.8 93.7 93.5 96.35 91.1 93.45 90.05 90.15 L90.15 90.05 91.45 89.0 91.75 88.7 Q94.7 85.95 96.15 82.5 L96.25 82.5 Q96.1 86.35 98.7 89.2 101.3 92.0 105.15 92.2 109.0 92.4 111.85 89.8 114.7 87.15 114.85 83.3 115.0 79.45 112.4 76.65 110.9 75.0 109.0 74.25 L109.15 71.05 Q107.95 69.35 104.7 68.0 L101.65 67.05 100.8 67.05 Q104.65 65.1 108.8 65.75 114.1 66.5 116.45 67.9 116.1 66.95 114.15 66.35 109.65 64.1 104.25 64.7 L103.9 64.75 Q100.6 65.15 97.75 66.75 L97.8 66.9 94.95 66.75 94.2 65.65 M-125.3 65.15 L-125.7 66.95 Q-129.0 67.35 -131.85 68.95 L-132.65 67.45 Q-129.3 65.55 -125.35 65.15 L-125.3 65.15 M-126.0 68.55 L-127.65 76.6 -127.7 76.5 -131.0 70.55 Q-128.65 69.15 -126.0 68.55 M-108.3 70.9 L-107.9 71.3 -107.55 71.7 Q-101.75 78.0 -102.15 86.55 -102.5 95.1 -108.8 100.9 -115.1 106.7 -123.7 106.3 -132.25 105.95 -138.05 99.6 -143.8 93.3 -143.45 84.75 L-143.35 83.75 Q-142.75 76.95 -138.3 71.95 L-138.25 71.95 -137.3 70.95 -136.25 72.3 Q-141.25 77.35 -141.6 84.55 -141.95 92.75 -136.1 98.55 -140.7 93.05 -140.4 85.9 -140.1 78.8 -135.2 73.85 -133.1 77.05 -130.95 81.2 -132.0 83.0 -132.1 85.25 -132.25 89.1 -129.65 91.95 -127.05 94.75 -123.2 94.95 -119.35 95.15 -116.5 92.55 -113.65 89.9 -113.5 86.05 -113.35 82.85 -115.15 80.35 L-112.85 75.95 -112.15 76.25 -109.6 72.7 -108.75 73.5 -109.55 72.6 -108.45 71.1 -108.3 70.9 M-117.85 77.75 Q-119.75 76.55 -122.1 76.4 L-118.95 68.35 Q-116.6 68.7 -114.45 69.6 L-116.8 74.05 -115.7 74.6 -117.85 77.75 M-115.2 66.4 L-115.45 66.85 -113.55 67.9 -114.15 69.0 Q-116.2 67.85 -118.55 67.3 L-117.85 65.55 -115.2 66.4" fill="#ffffff" fill-opacity="0.0" fill-rule="evenodd" stroke="none"/>
    <path d="M92.15 63.3 Q95.2 61.15 98.65 60.1 L99.0 60.0 99.65 59.85 100.55 59.65 101.3 59.5 102.35 59.35 102.9 59.25 106.6 59.15 Q116.45 59.6 123.05 66.85 129.7 74.1 129.3 83.95 128.9 93.75 121.65 100.4 114.4 107.05 104.55 106.65 94.7 106.25 88.05 99.0 85.45 96.15 83.95 92.9 L86.9 91.9 Q88.15 94.45 90.15 96.7 L90.3 96.85 Q96.1 103.2 104.65 103.55 113.2 103.95 119.5 98.15 125.85 92.35 126.2 83.8 126.6 75.25 120.8 68.95 115.0 62.65 106.45 62.25 99.6 61.95 94.2 65.65 L92.8 63.95 92.15 63.3 M-124.7 61.95 L-125.3 65.15 -125.35 65.15 Q-129.3 65.55 -132.65 67.45 L-134.1 64.75 -133.9 64.65 Q-131.95 63.55 -129.85 62.9 L-129.75 62.9 -129.65 62.85 -129.05 62.7 -124.7 61.95 M-137.3 70.95 L-138.25 71.95 -138.3 71.95 Q-142.75 76.95 -143.35 83.75 L-143.45 84.75 Q-143.8 93.3 -138.05 99.6 -132.25 105.95 -123.7 106.3 -115.1 106.7 -108.8 100.9 -102.5 95.1 -102.15 86.55 -101.75 78.0 -107.55 71.7 L-107.9 71.3 -108.3 70.9 -108.25 70.8 -106.45 71.75 -104.8 70.1 Q-98.6 77.2 -99.05 86.7 -99.45 96.5 -106.7 103.15 -113.95 109.8 -123.8 109.4 -133.65 109.0 -140.3 101.75 -146.95 94.45 -146.5 84.6 -146.1 75.1 -139.3 68.6 L-139.25 68.55 -137.3 70.95 M-113.85 63.55 L-115.2 66.4 -117.85 65.55 -116.7 62.65 -113.85 63.55" fill="#000000" fill-opacity="0.101960786" fill-rule="evenodd" stroke="none"/>
    <path d="M109.0 74.25 Q110.9 75.0 112.4 76.65 115.0 79.45 114.85 83.3 114.7 87.15 111.85 89.8 109.0 92.4 105.15 92.2 101.3 92.0 98.7 89.2 96.1 86.35 96.25 82.5 L97.95 82.6 Q97.8 85.8 100.2 88.3 98.3 85.9 98.45 83.1 L98.5 82.6 101.95 82.75 Q103.95 82.5 108.75 79.7 L108.8 79.25 108.85 77.8 108.9 76.4 Q110.25 76.95 111.4 78.05 110.3 76.75 108.95 76.1 L109.0 74.25 M-115.15 80.35 Q-113.35 82.85 -113.5 86.05 -113.65 89.9 -116.5 92.55 -119.35 95.15 -123.2 94.95 -127.05 94.75 -129.65 91.95 -132.25 89.1 -132.1 85.25 -132.0 83.0 -130.95 81.2 L-130.0 83.15 -130.4 85.3 Q-130.55 88.55 -128.15 91.05 -129.95 88.85 -129.9 85.85 L-129.55 84.0 -129.15 84.9 -128.7 85.8 -128.65 85.95 -128.6 86.05 Q-127.4 87.35 -125.8 85.7 L-123.0 78.65 -121.95 78.6 Q-120.3 78.7 -118.9 79.35 L-124.1 87.0 -123.95 88.8 -122.8 89.95 -122.85 89.95 -122.0 90.2 -121.65 90.25 -120.25 90.2 -115.15 80.35 M-118.8 79.2 Q-120.4 78.15 -122.45 78.05 L-122.8 78.05 -122.1 76.4 Q-119.75 76.55 -117.85 77.75 L-118.8 79.2" fill="#000000" fill-opacity="0.2" fill-rule="evenodd" stroke="none"/>
    <path d="M83.95 92.9 Q85.45 96.15 88.05 99.0 94.7 106.25 104.55 106.65 114.4 107.05 121.65 100.4 128.9 93.75 129.3 83.95 129.7 74.1 123.05 66.85 116.45 59.6 106.6 59.15 L102.9 59.25 102.35 59.35 101.3 59.5 100.55 59.65 99.65 59.85 99.0 60.0 98.65 60.1 Q95.2 61.15 92.15 63.3 88.35 59.5 83.25 58.6 L80.65 58.3 Q76.85 58.15 73.75 59.3 75.8 56.55 78.45 54.1 L78.8 53.75 Q90.9 42.65 107.3 43.35 123.7 44.05 134.75 56.15 145.85 68.2 145.15 84.6 144.4 101.05 132.3 112.1 120.25 123.2 103.85 122.5 87.45 121.8 76.4 109.7 67.15 99.6 66.1 86.6 68.5 89.75 73.9 91.95 79.3 94.1 83.95 92.9 M-130.95 59.2 Q-126.1 57.65 -123.85 57.75 L-124.7 61.95 -129.05 62.7 -129.65 62.85 -129.75 62.9 -129.85 62.9 Q-131.95 63.55 -133.9 64.65 L-134.1 64.75 -136.0 60.95 -132.2 59.65 -130.95 59.2 M-139.25 68.55 L-139.3 68.6 Q-146.1 75.1 -146.5 84.6 -146.95 94.45 -140.3 101.75 -133.65 109.0 -123.8 109.4 -113.95 109.8 -106.7 103.15 -99.45 96.5 -99.05 86.7 -98.6 77.2 -104.8 70.1 L-101.3 66.45 -100.45 67.7 -100.4 67.7 Q-92.55 78.9 -84.9 85.45 L-83.15 86.85 -83.2 87.4 Q-83.9 103.8 -96.0 114.9 -108.1 125.95 -124.5 125.25 -140.9 124.55 -151.95 112.45 -163.05 100.35 -162.35 83.95 L-162.3 83.3 -162.25 82.7 -162.2 81.75 -162.15 81.2 Q-161.5 74.55 -158.3 67.95 L-157.4 66.2 -154.4 65.4 -149.75 63.95 -148.85 63.65 -147.4 63.5 Q-145.5 63.6 -143.25 65.1 -141.3 66.4 -139.25 68.55 M-116.7 62.65 L-114.0 55.7 -111.25 54.95 -109.5 54.6 -112.85 61.5 -113.35 62.45 -113.35 62.5 -113.85 63.55 -116.7 62.65" fill="#000000" fill-opacity="0.8" fill-rule="evenodd" stroke="none"/>
    <path d="M90.05 90.15 Q91.1 93.45 93.5 96.35 90.8 93.7 89.45 90.55 L90.05 90.15 M97.8 66.9 L97.75 66.75 Q100.6 65.15 103.9 64.75 L104.25 64.7 Q109.65 64.1 114.15 66.35 116.1 66.95 116.45 67.9 114.1 66.5 108.8 65.75 104.65 65.1 100.8 67.05 L99.3 66.95 98.9 66.95 98.35 66.9 98.15 66.9 97.8 66.9 M97.95 82.6 L98.5 82.6 98.45 83.1 Q98.3 85.9 100.2 88.3 97.8 85.8 97.95 82.6 M108.9 76.4 L108.95 76.1 Q110.3 76.75 111.4 78.05 110.25 76.95 108.9 76.4 M-125.7 66.95 L-126.0 68.55 Q-128.65 69.15 -131.0 70.55 L-131.85 68.95 Q-129.0 67.35 -125.7 66.95 M-135.2 73.85 Q-140.1 78.8 -140.4 85.9 -140.7 93.05 -136.1 98.55 -141.95 92.75 -141.6 84.55 -141.25 77.35 -136.25 72.3 L-135.2 73.85 M-122.8 78.05 L-122.45 78.05 Q-120.4 78.15 -118.8 79.2 L-118.9 79.35 Q-120.3 78.7 -121.95 78.6 L-123.0 78.65 -122.8 78.05 M-130.0 83.15 L-129.55 84.0 -129.9 85.85 Q-129.95 88.85 -128.15 91.05 -130.55 88.55 -130.4 85.3 L-130.0 83.15 M-114.15 69.0 L-114.45 69.6 Q-116.6 68.7 -118.95 68.35 L-118.55 67.3 Q-116.2 67.85 -114.15 69.0" fill="#ffffff" fill-opacity="0.3019608" fill-rule="evenodd" stroke="none"/>
    <path d="M66.1 86.6 Q67.15 99.6 76.4 109.7 87.45 121.8 103.85 122.5 120.25 123.2 132.3 112.1 144.4 101.05 145.15 84.6 145.85 68.2 134.75 56.15 123.7 44.05 107.3 43.35 90.9 42.65 78.8 53.75 L78.45 54.1 Q75.8 56.55 73.75 59.3 M-157.4 66.2 L-158.3 67.95 Q-161.5 74.55 -162.15 81.2 L-162.2 81.75 -162.25 82.7 -162.3 83.3 -162.35 83.95 Q-163.05 100.35 -151.95 112.45 -140.9 124.55 -124.5 125.25 -108.1 125.95 -96.0 114.9 -83.9 103.8 -83.2 87.4 L-83.15 86.85" fill="none" stroke="#000000" stroke-linecap="round" stroke-linejoin="round" stroke-width="1.0"/>
    <path d="M92.15 63.3 Q95.2 61.15 98.65 60.1 L99.0 60.0 99.65 59.85 100.55 59.65 101.3 59.5 102.35 59.35 102.9 59.25 106.6 59.15 Q116.45 59.6 123.05 66.85 129.7 74.1 129.3 83.95 128.9 93.75 121.65 100.4 114.4 107.05 104.55 106.65 94.7 106.25 88.05 99.0 85.45 96.15 83.95 92.9 79.3 94.1 73.9 91.95 68.5 89.75 66.1 86.6 M73.75 59.3 Q76.85 58.15 80.65 58.3 L83.25 58.6 Q88.35 59.5 92.15 63.3 L92.8 63.95 94.2 65.65 Q99.6 61.95 106.45 62.25 115.0 62.65 120.8 68.95 126.6 75.25 126.2 83.8 125.85 92.35 119.5 98.15 113.2 103.95 104.65 103.55 96.1 103.2 90.3 96.85 L90.15 96.7 Q88.15 94.45 86.9 91.9 L83.95 92.9 M100.8 67.05 L101.65 67.05 104.7 68.0 Q107.95 69.35 109.15 71.05 L109.0 74.25 Q110.9 75.0 112.4 76.65 115.0 79.45 114.85 83.3 114.7 87.15 111.85 89.8 109.0 92.4 105.15 92.2 101.3 92.0 98.7 89.2 96.1 86.35 96.25 82.5 L96.15 82.5 Q94.7 85.95 91.75 88.7 L91.45 89.0 90.15 90.05 90.05 90.15 89.45 90.55 89.2 90.7 88.7 91.0 86.9 91.9 M100.8 67.05 L99.3 66.95 98.15 66.9 97.8 66.9 94.95 66.75 94.2 65.65 M98.9 66.95 L99.3 66.95 M98.15 66.9 L98.35 66.9 M98.5 82.6 L97.95 82.6 96.25 82.5 M98.5 82.6 L101.95 82.75 Q103.95 82.5 108.75 79.7 L108.8 79.25 M108.85 77.8 L108.9 76.4 108.95 76.1 109.0 74.25 M90.15 90.05 L90.05 90.15 89.45 90.5 89.35 90.6 89.15 90.65 M-130.95 59.2 Q-126.1 57.65 -123.85 57.75 L-124.7 61.95 -125.3 65.15 -125.7 66.95 -126.0 68.55 -127.65 76.6 -127.7 76.5 -131.0 70.55 -131.85 68.95 -132.65 67.45 -134.1 64.75 -136.0 60.95 -132.2 59.65 -131.35 59.3 -130.95 59.2 M-134.1 64.75 L-133.9 64.65 Q-131.95 63.55 -129.85 62.9 L-129.75 62.9 M-129.05 62.7 L-124.7 61.95 M-108.3 70.9 L-107.9 71.3 -107.55 71.7 Q-101.75 78.0 -102.15 86.55 -102.5 95.1 -108.8 100.9 -115.1 106.7 -123.7 106.3 -132.25 105.95 -138.05 99.6 -143.8 93.3 -143.45 84.75 L-143.35 83.75 Q-142.75 76.95 -138.3 71.95 L-138.25 71.95 -137.3 70.95 -139.25 68.55 -139.3 68.6 Q-146.1 75.1 -146.5 84.6 -146.95 94.45 -140.3 101.75 -133.65 109.0 -123.8 109.4 -113.95 109.8 -106.7 103.15 -99.45 96.5 -99.05 86.7 -98.6 77.2 -104.8 70.1 L-106.45 71.75 -108.25 70.8 -108.45 71.1 -109.55 72.6 -109.6 72.7 -112.15 76.25 -112.85 75.95 -115.15 80.35 -120.25 90.2 -121.65 90.25 -122.0 90.2 -122.8 89.95 -123.95 88.8 -124.1 87.0 -118.9 79.35 -118.8 79.2 -117.85 77.75 -115.7 74.6 -116.8 74.05 -114.45 69.6 -114.15 69.0 -113.55 67.9 -115.45 66.85 -115.2 66.4 -113.85 63.55 -113.35 62.5 -112.85 61.5 -109.5 54.6 -111.25 54.95 -114.0 55.7 -116.7 62.65 -113.85 63.55 M-130.95 81.2 Q-133.1 77.05 -135.2 73.85 L-136.25 72.3 -137.3 70.95 M-132.65 67.45 Q-129.3 65.55 -125.35 65.15 L-125.3 65.15 M-83.15 86.85 L-84.9 85.45 Q-92.55 78.9 -100.4 67.7 L-100.45 67.7 -101.3 66.45 -104.8 70.1 M-139.25 68.55 Q-141.3 66.4 -143.25 65.1 -145.5 63.6 -147.4 63.5 L-148.85 63.65 -149.75 63.95 -154.4 65.4 -157.4 66.2 M-122.8 78.05 L-123.0 78.65 -125.8 85.7 Q-127.4 87.35 -128.6 86.05 L-128.65 85.95 -128.7 85.8 -129.15 84.9 -129.55 84.0 -130.0 83.15 -130.95 81.2 M-122.1 76.4 L-122.8 78.05 M-117.85 65.55 L-116.7 62.65 M-118.55 67.3 L-117.85 65.55 -115.2 66.4 M-118.55 67.3 L-118.95 68.35 -122.1 76.4" fill="none" stroke="#000000" stroke-linecap="round" stroke-linejoin="round" stroke-opacity="0.6" stroke-width="1.0"/>
    <path d="M-115.15 80.35 Q-113.35 82.85 -113.5 86.05 -113.65 89.9 -116.5 92.55 -119.35 95.15 -123.2 94.95 -127.05 94.75 -129.65 91.95 -132.25 89.1 -132.1 85.25 -132.0 83.0 -130.95 81.2 M-117.85 77.75 Q-119.75 76.55 -122.1 76.4" fill="none" stroke="#000000" stroke-linecap="round" stroke-linejoin="round" stroke-opacity="0.4" stroke-width="1.0"/>
  </g>
</svg>
