<?xml version="1.0" encoding="UTF-8" standalone="no"?>
<svg xmlns:xlink="http://www.w3.org/1999/xlink" height="94.05px" width="57.8px" xmlns="http://www.w3.org/2000/svg">
  <g transform="matrix(1.0, 0.0, 0.0, 1.0, 28.9, -51.6)">
    <path d="M26.9 97.85 Q24.7 112.4 22.8 119.1 20.55 127.2 16.2 134.15 9.35 145.15 1.0 145.15 -7.35 145.15 -15.7 133.2 -21.95 124.3 -23.3 118.55 -25.45 111.15 -26.7 104.1 -29.15 90.65 -28.1 77.85 -21.3 75.25 -14.8 73.7 L-5.15 71.95 -5.2 52.1 -4.1 52.1 3.55 52.1 5.0 52.1 5.0 72.1 Q10.1 72.85 15.55 74.3 25.55 76.95 27.6 79.0 29.45 80.85 26.9 97.85 M5.0 72.1 L-0.7 71.65 -5.15 71.95 -0.7 71.65 5.0 72.1" fill="#ffffff" fill-opacity="0.0" fill-rule="evenodd" stroke="none"/>
    <path d="M26.9 97.85 Q24.7 112.4 22.8 119.1 20.55 127.2 16.2 134.15 9.35 145.15 1.0 145.15 -7.35 145.15 -15.7 133.2 -21.95 124.3 -23.3 118.55 -25.45 111.15 -26.7 104.1 -29.15 90.65 -28.1 77.85 -21.3 75.25 -14.8 73.7 L-5.15 71.95 -5.2 52.1 -4.1 52.1 3.55 52.1 5.0 52.1 5.0 72.1 Q10.1 72.85 15.55 74.3 25.55 76.95 27.6 79.0 29.45 80.85 26.9 97.85" fill="none" stroke="#000000" stroke-linecap="round" stroke-linejoin="round" stroke-width="1.0"/>
    <path d="M-5.15 71.95 L-0.7 71.65 5.0 72.1" fill="none" stroke="#000000" stroke-linecap="round" stroke-linejoin="round" stroke-opacity="0.6" stroke-width="1.0"/>
    <path d="M1.9 56.0 Q1.9 56.85 1.3 57.4 0.75 58.0 -0.1 58.0 -0.95 58.0 -1.55 57.4 -2.1 56.85 -2.1 56.0 -2.1 55.15 -1.55 54.55 -0.95 54.0 -0.1 54.0 0.75 54.0 1.3 54.55 1.9 55.15 1.9 56.0 Z" fill="none" stroke="#000000" stroke-linecap="round" stroke-linejoin="round" stroke-opacity="0.29803923" stroke-width="1.0"/>
  </g>
</svg>
