<?xml version="1.0" encoding="UTF-8" standalone="no"?>
<svg xmlns:xlink="http://www.w3.org/1999/xlink" height="51.0px" width="26.15px" xmlns="http://www.w3.org/2000/svg">
  <g transform="matrix(1.0, 0.0, 0.0, 1.0, 123.05, -92.45)">
    <path d="M-118.95 94.75 L-117.65 93.45 Q-116.8 92.95 -115.9 92.95 -114.7 92.95 -113.45 93.8 -112.3 94.5 -111.2 95.8 -108.9 98.4 -106.7 102.3 -104.55 106.25 -102.55 110.85 -100.65 115.4 -99.3 119.65 -97.5 125.45 -97.4 129.2 -97.5 131.25 -98.25 133.0 -99.05 134.7 -100.35 136.0 -103.0 138.7 -106.45 140.1 -109.85 141.65 -112.4 142.2 L-115.15 142.85 -115.75 142.95 -116.1 142.5 Q-117.75 140.1 -118.95 136.9 -120.1 133.65 -120.95 129.75 L-122.2 121.75 -122.55 113.5 Q-122.55 107.6 -121.7 102.65 -120.85 97.8 -118.95 94.75" fill="#ffffff" fill-opacity="0.0" fill-rule="evenodd" stroke="none"/>
    <path d="M-118.95 94.75 Q-120.85 97.8 -121.7 102.65 -122.55 107.6 -122.55 113.5 L-122.2 121.75 -120.95 129.75 Q-120.1 133.65 -118.95 136.9 -117.75 140.1 -116.1 142.5 L-115.75 142.95 -115.15 142.85 -112.4 142.2 Q-109.85 141.65 -106.45 140.1 -103.0 138.7 -100.35 136.0 -99.05 134.7 -98.25 133.0 -97.5 131.25 -97.4 129.2 -97.5 125.45 -99.3 119.65 -100.65 115.4 -102.55 110.85 -104.55 106.25 -106.7 102.3 -108.9 98.4 -111.2 95.8 -112.3 94.5 -113.45 93.8 -114.7 92.95 -115.9 92.95 -116.8 92.95 -117.65 93.45 L-118.95 94.75 Z" fill="none" stroke="#000000" stroke-linecap="round" stroke-linejoin="round" stroke-width="1.0"/>
  </g>
</svg>
