<?xml version="1.0" encoding="UTF-8" standalone="no"?>
<svg xmlns:xlink="http://www.w3.org/1999/xlink" height="43.15px" width="51.0px" xmlns="http://www.w3.org/2000/svg">
  <g transform="matrix(1.0, 0.0, 0.0, 1.0, -97.5, -153.4)">
    <path d="M99.45 178.4 Q98.0 173.95 98.0 168.95 98.0 166.25 98.45 163.45 99.35 158.5 101.4 154.3 101.65 153.9 102.15 153.9 L102.3 153.9 146.8 159.95 Q147.35 160.0 147.45 160.55 148.0 163.35 148.0 166.3 148.0 169.0 147.5 171.8 146.25 178.9 142.5 184.3 138.8 189.75 133.4 192.85 128.05 195.95 121.85 196.05 L118.15 195.7 Q113.7 194.9 109.95 192.55 106.3 190.15 103.6 186.55 100.95 182.9 99.45 178.4" fill="#ffffff" fill-opacity="0.0" fill-rule="evenodd" stroke="none"/>
    <path d="M99.45 178.4 Q100.95 182.9 103.6 186.55 106.3 190.15 109.95 192.55 113.7 194.9 118.15 195.7 L121.85 196.05 Q128.05 195.95 133.4 192.85 138.8 189.75 142.5 184.3 146.25 178.9 147.5 171.8 148.0 169.0 148.0 166.3 148.0 163.35 147.45 160.55 147.35 160.0 146.8 159.95 L102.3 153.9 102.15 153.9 Q101.65 153.9 101.4 154.3 99.35 158.5 98.45 163.45 98.0 166.25 98.0 168.95 98.0 173.95 99.45 178.4 Z" fill="none" stroke="#000000" stroke-linecap="round" stroke-linejoin="round" stroke-width="1.0"/>
  </g>
</svg>
