<?xml version="1.0" encoding="UTF-8" standalone="no"?>
<svg xmlns:xlink="http://www.w3.org/1999/xlink" height="18.3px" width="58.35px" xmlns="http://www.w3.org/2000/svg">
  <g transform="matrix(1.0, 0.0, 0.0, 1.0, 52.65, 9.15)">
    <path d="M4.05 -5.6 L5.0 -5.3 5.2 -4.4 5.1 4.7 Q5.05 6.35 4.0 6.4 L-1.15 6.9 Q-1.4 6.6 -3.7 6.1 L-7.65 5.5 -14.15 6.9 -20.75 8.5 -34.7 8.05 Q-44.8 7.15 -47.95 6.1 -50.2 5.3 -51.3 2.9 -52.15 1.15 -52.15 -0.7 -52.15 -2.7 -50.85 -4.6 -49.4 -6.7 -47.15 -7.1 L-33.3 -8.4 Q-23.35 -8.9 -20.35 -8.3 L-14.1 -6.45 Q-10.1 -5.15 -7.55 -4.9 L-2.5 -5.35 Q-1.45 -5.7 -0.95 -6.1 L-0.9 -6.05 4.05 -5.6" fill="#ffffff" fill-opacity="0.0" fill-rule="evenodd" stroke="none"/>
    <path d="M4.05 -5.6 L-0.9 -6.05 -0.95 -6.1 Q-1.45 -5.7 -2.5 -5.35 L-7.55 -4.9 Q-10.1 -5.15 -14.1 -6.45 L-20.35 -8.3 Q-23.35 -8.9 -33.3 -8.4 L-47.15 -7.1 Q-49.4 -6.7 -50.85 -4.6 -52.15 -2.7 -52.15 -0.7 -52.15 1.15 -51.3 2.9 -50.2 5.3 -47.95 6.1 -44.8 7.15 -34.7 8.05 L-20.75 8.5 -14.15 6.9 -7.65 5.5 -3.7 6.1 Q-1.4 6.6 -1.15 6.9 L4.0 6.4 Q5.05 6.35 5.1 4.7 L5.2 -4.4 5.0 -5.3 4.05 -5.6 Z" fill="none" stroke="#000000" stroke-linecap="round" stroke-linejoin="round" stroke-width="1.0"/>
    <path d="M-1.15 6.9 Q-1.7 3.9 -1.7 0.05 -1.7 -2.05 -1.35 -3.95 L-0.9 -6.05" fill="none" stroke="#000000" stroke-linecap="round" stroke-linejoin="round" stroke-opacity="0.29803923" stroke-width="0.9500000000000001"/>
  </g>
</svg>
