<?xml version="1.0" encoding="UTF-8" standalone="no"?>
<svg xmlns:xlink="http://www.w3.org/1999/xlink" height="84.15px" width="217.05px" xmlns="http://www.w3.org/2000/svg">
  <g transform="matrix(1.0, 0.0, 0.0, 1.0, 108.65, 26.8)">
    <path d="M-88.55 -11.7 Q-88.5 -12.0 -88.8 -12.3 -89.2 -12.75 -89.9 -12.6 L-88.85 -13.6 Q-90.8 -13.8 -93.05 -11.95 -95.7 -9.85 -96.95 -9.55 L-98.75 -9.65 -99.3 -10.45 Q-99.5 -10.8 -100.35 -10.75 -102.0 -10.05 -102.95 -10.1 -104.3 -10.1 -105.6 -10.75 L-103.7 -10.85 Q-102.3 -11.3 -100.15 -12.35 L-98.95 -12.85 -98.3 -13.05 -97.25 -13.1 Q-96.8 -12.9 -96.65 -12.6 L-96.85 -12.25 -97.35 -11.15 -97.5 -10.8 Q-96.55 -10.5 -94.9 -12.0 L-94.85 -12.05 -92.7 -14.15 -92.4 -14.35 -90.25 -15.65 Q-88.25 -16.6 -86.85 -16.1 -86.7 -15.7 -86.85 -15.35 -87.2 -15.0 -87.9 -14.55 L-87.85 -14.5 -87.8 -14.5 -87.85 -14.5 Q-86.35 -13.3 -86.45 -12.55 -86.85 -12.15 -87.65 -11.85 L-88.55 -11.7 M-94.85 -12.05 L-92.6 -14.2 -92.4 -14.35 -92.6 -14.2 -94.85 -12.05 M-19.4 16.45 L-17.7 16.5 Q-16.15 17.15 -14.75 19.55 -14.25 18.85 -14.0 17.05 L-13.95 16.7 Q-13.75 15.25 -13.15 14.6 L-12.2 14.7 -11.1 14.75 Q-10.6 14.25 -10.4 12.65 -8.75 10.05 -6.2 8.1 L-5.85 7.85 Q-3.8 6.3 -2.25 6.4 L-1.9 6.45 -0.9 6.9 -0.85 6.95 -0.3 7.5 -0.5 7.65 -4.65 11.05 Q-7.75 13.55 -8.15 14.85 L-8.1 15.7 -7.75 17.25 Q-7.25 19.0 -8.0 20.0 -8.8 21.2 -12.1 22.9 -9.35 24.05 -9.95 25.3 -10.25 25.9 -11.5 26.6 L-11.7 28.9 -11.6 29.15 -10.4 30.15 Q-9.8 30.55 -10.1 31.7 L-10.15 31.9 -10.65 32.85 -11.85 33.8 Q-13.2 34.5 -14.35 34.15 -13.95 34.25 -13.25 33.15 L-13.15 33.0 -12.5 31.8 -12.35 31.3 Q-12.35 30.8 -13.1 29.75 -13.8 28.75 -13.7 27.95 L-13.4 27.45 Q-15.2 28.2 -17.6 28.95 -19.1 30.25 -18.1 31.0 L-16.55 32.3 -16.25 32.65 -16.05 33.35 Q-15.75 34.85 -17.05 35.6 -18.5 36.4 -20.75 35.9 -20.55 37.6 -22.4 37.65 -24.85 37.75 -25.5 38.5 -24.1 40.0 -23.6 41.9 L-23.55 41.35 -23.6 41.9 -23.8 44.7 Q-24.35 45.45 -25.7 45.6 -26.85 45.75 -27.8 45.2 L-27.9 43.45 -28.7 44.45 -29.75 43.05 Q-30.6 41.5 -31.45 40.8 -32.05 40.3 -32.65 40.2 L-33.05 40.15 Q-32.8 41.6 -33.6 42.05 L-33.65 42.05 -33.7 41.95 -34.9 37.25 -36.8 35.25 -36.6 35.4 Q-34.9 36.5 -34.45 34.35 -34.25 33.2 -35.9 30.9 -37.75 28.35 -37.9 27.35 L-38.05 25.75 -36.95 25.95 -34.85 26.2 -34.35 27.6 -32.75 30.45 Q-31.5 32.15 -29.95 31.75 L-29.75 31.25 -29.5 30.25 -29.45 29.95 -29.45 29.9 -27.3 30.05 -27.3 29.95 Q-27.45 28.1 -26.4 27.7 L-25.95 27.55 Q-24.8 27.45 -23.75 28.4 L-23.1 29.05 -22.6 28.8 Q-20.4 27.65 -19.95 26.85 L-19.65 26.15 Q-19.4 24.75 -20.45 22.6 -21.25 21.15 -21.3 20.0 L-21.6 20.0 Q-22.35 20.0 -22.35 19.25 -22.35 18.5 -21.6 18.5 L-21.15 18.6 -21.0 18.2 Q-20.35 16.95 -19.5 16.5 L-19.4 16.45 M-1.0 10.7 L-0.75 10.65 Q0.15 10.65 0.15 11.6 L0.05 12.1 Q-0.15 12.5 -0.75 12.5 -1.6 12.5 -1.65 11.7 L-1.65 11.6 -1.6 11.25 -1.1 10.75 -1.0 10.7 M1.8 18.7 Q1.15 18.25 1.15 17.15 1.15 15.35 3.0 15.35 4.85 15.35 4.85 17.15 4.85 18.3 4.1 18.75 L1.8 18.7 M-14.0 5.8 Q-14.65 6.7 -14.35 7.25 L-15.35 5.8 Q-15.85 4.85 -15.35 4.15 -14.85 3.5 -14.05 3.65 -13.25 3.8 -13.25 4.6 -13.25 4.8 -14.0 5.8 M-13.35 9.35 Q-12.1 9.35 -12.35 10.05 -12.55 10.8 -14.85 11.5 L-14.6 10.45 Q-14.15 9.35 -13.35 9.35 M-2.85 20.45 L-2.7 20.3 -1.1 20.15 Q-0.4 20.55 -0.45 21.35 -0.55 22.2 -1.35 22.25 L-1.85 21.9 Q-3.2 20.9 -4.0 21.4 L-2.85 20.45 M60.6 50.05 L60.35 50.7 60.6 50.05 M-29.95 23.4 L-29.45 23.35 -29.05 23.4 Q-28.05 23.55 -28.05 24.75 -28.05 26.05 -29.2 26.15 L-29.45 26.15 -29.65 26.15 Q-30.9 26.05 -30.9 24.75 -30.9 23.6 -29.95 23.4 M-32.85 21.0 L-33.0 21.0 Q-33.9 21.0 -33.9 20.1 -33.9 19.55 -33.6 19.35 L-33.0 19.15 Q-32.1 19.15 -32.1 20.1 -32.1 20.95 -32.85 21.0 M-24.05 22.5 L-24.5 22.5 Q-25.9 22.5 -25.9 21.1 -25.9 19.65 -24.5 19.65 L-24.4 19.65 Q-23.1 19.7 -23.1 21.1 -23.1 22.3 -24.05 22.5 M-21.3 20.0 Q-21.4 19.2 -21.15 18.6 -21.4 19.2 -21.3 20.0 M59.5 23.75 Q59.5 25.15 58.1 25.15 56.65 25.15 56.65 23.75 L56.65 23.65 Q56.7 22.35 58.1 22.35 59.5 22.35 59.5 23.75 M50.5 22.75 Q50.5 23.65 49.6 23.65 48.65 23.65 48.65 22.75 48.65 21.85 49.6 21.85 50.5 21.85 50.5 22.75 M57.4 29.25 L58.15 28.3 58.25 28.15 59.0 27.6 Q59.25 27.55 59.3 27.8 L59.35 27.9 Q59.65 29.3 58.8 30.2 L60.05 29.2 61.25 28.5 Q62.1 28.0 63.15 27.65 L65.1 27.2 Q66.8 27.0 67.3 28.4 67.05 28.5 66.85 28.65 L66.8 28.7 66.1 29.0 63.8 29.7 Q61.95 30.15 61.15 32.05 61.5 31.25 62.1 31.05 L63.45 31.1 63.85 31.25 Q64.75 31.5 64.5 32.0 L64.4 32.05 64.45 32.15 Q64.25 32.65 62.95 33.0 L63.55 33.15 63.9 33.15 Q64.9 33.4 65.0 33.85 65.15 34.25 64.75 35.45 L63.75 35.5 61.85 35.0 60.35 34.55 Q60.8 33.65 60.55 33.2 L59.25 33.0 Q59.95 32.15 59.75 31.8 L58.3 31.65 Q56.0 31.65 55.1 30.3 L54.6 28.9 52.7 27.25 Q51.3 26.05 52.7 25.45 L54.7 25.35 Q55.55 25.65 56.15 26.7 L56.35 27.35 56.55 28.4 Q56.8 29.25 57.25 29.25 L57.4 29.25 57.3 29.5 57.25 29.25 57.3 29.5 57.4 29.25 M50.9 30.0 Q50.9 29.1 51.85 29.1 52.75 29.1 52.75 30.0 52.75 30.9 51.85 30.9 50.9 30.9 50.9 30.0 M6.4 11.55 Q7.0 10.75 5.9 10.25 L4.95 10.05 Q4.0 10.0 3.25 11.1 L2.45 12.6 2.1 13.05 Q2.25 12.85 2.85 12.7 L2.9 12.65 Q6.1 11.95 6.4 11.55" fill="#ffffff" fill-rule="evenodd" stroke="none"/>
    <path d="M-94.9 -12.0 Q-96.55 -10.5 -97.5 -10.8 L-97.35 -11.15 -97.3 -10.75 Q-96.45 -10.7 -94.9 -12.0 M-97.35 -11.15 L-97.4 -10.8 -97.3 -10.75 -97.4 -10.8 -97.35 -11.15 M107.9 53.65 L107.85 53.85 107.85 53.6 107.9 53.65 M11.95 42.9 L12.0 43.4 11.95 42.9 M28.05 46.7 L28.35 46.7 28.05 46.7 M26.05 38.85 L25.6 37.8 26.05 38.85 M25.4 37.4 L25.2 36.7 25.45 37.4 25.4 37.4 M-65.8 5.6 L-65.45 6.05 -65.8 5.6 M90.6 52.45 L91.05 51.35 90.6 52.45 M1.8 18.7 L4.1 18.75 3.0 19.0 1.8 18.7" fill="#d9d9d9" fill-rule="evenodd" stroke="none"/>
    <path d="M67.3 28.4 L66.85 28.65 66.8 28.7 66.85 28.65 Q67.05 28.5 67.3 28.4 M64.5 32.0 L64.45 32.1 64.45 32.15 64.4 32.05 64.5 32.0" fill="#eeeeee" fill-rule="evenodd" stroke="none"/>
    <path d="M-52.95 -3.35 L-52.7 -3.35 -52.4 -3.4 -52.75 -3.35 -52.8 -3.35 -53.05 -3.3 -54.05 -3.25 -53.6 -3.3 -53.3 -3.3 -52.95 -3.35 -52.8 -3.35 -52.95 -3.35 M-51.95 -3.45 L-52.15 -3.4 -52.25 -3.4 -51.95 -3.45" fill="#858585" fill-rule="evenodd" stroke="none"/>
    <path d="M-0.3 7.5 L-0.3 7.45 -0.05 7.8 -0.3 7.5" fill="#bfbfbf" fill-rule="evenodd" stroke="none"/>
    <path d="M-29.45 29.95 L-29.45 29.9 -29.45 29.95" fill="#999999" fill-rule="evenodd" stroke="none"/>
    <path d="M12.05 49.7 Q12.5 49.35 12.95 49.1 12.5 49.35 12.05 49.7 M25.45 37.4 L25.6 37.8 25.4 37.4 25.45 37.4" fill="#878787" fill-rule="evenodd" stroke="none"/>
    <path d="M47.85 50.45 L47.8 50.45 47.85 50.45" fill="#000000" fill-rule="evenodd" stroke="none"/>
    <path d="M-108.15 -25.85 L-107.7 -25.85 Q-93.2 -26.55 -79.85 -26.1 L-62.65 -24.9 -62.6 -24.9 -62.65 -24.9 Q-47.85 -23.25 -40.35 -19.5 -23.55 -11.15 -19.05 0.75 -17.65 4.3 -17.1 11.9 -16.2 15.15 -13.95 16.7 L-14.0 17.05 Q-14.25 18.85 -14.75 19.55 -16.15 17.15 -17.7 16.5 L-19.4 16.45 Q-20.2 5.95 -22.5 0.85 -23.4 -1.05 -24.35 -1.95 L-25.15 -2.5 -24.35 -1.95 Q-23.4 -1.05 -22.5 0.85 -20.2 5.95 -19.4 16.45 L-19.5 16.5 Q-20.35 16.95 -21.0 18.2 L-21.15 18.6 -21.6 18.5 Q-22.35 18.5 -22.35 19.25 -22.35 20.0 -21.6 20.0 L-21.3 20.0 Q-21.25 21.15 -20.45 22.6 -19.4 24.75 -19.65 26.15 L-19.95 26.85 Q-20.4 27.65 -22.6 28.8 L-23.1 29.05 -23.75 28.4 Q-24.8 27.45 -25.95 27.55 L-26.4 27.7 Q-27.45 28.1 -27.3 29.95 L-30.8 28.9 -29.45 29.95 -29.5 30.25 -29.75 31.25 -29.95 31.75 Q-31.5 32.15 -32.75 30.45 L-34.35 27.6 -34.85 26.2 -33.35 26.1 Q-33.6 25.45 -35.0 23.9 -36.55 22.2 -37.05 22.7 L-34.2 20.6 -35.0 19.9 -36.85 19.8 -36.95 19.8 -40.1 20.15 -37.4 18.05 Q-41.85 17.5 -45.15 19.25 L-39.6 14.7 Q-37.45 16.2 -35.65 18.55 L-34.8 19.7 -34.5 20.1 -34.2 20.6 Q-32.35 23.7 -31.65 26.5 -31.95 23.45 -32.85 21.0 -32.1 20.95 -32.1 20.1 -32.1 19.15 -33.0 19.15 L-33.6 19.35 Q-34.55 17.6 -35.85 16.3 -37.0 15.1 -38.5 14.25 L-38.9 14.05 -38.4 13.5 -38.3 13.35 -38.5 13.4 -39.6 13.65 Q-41.05 13.0 -42.6 12.7 L-44.4 12.5 Q-42.35 13.05 -40.55 14.1 L-41.55 14.7 -41.9 14.9 -41.95 14.95 -42.0 15.0 -42.2 15.1 Q-44.55 16.75 -45.95 16.75 L-45.15 14.05 Q-47.45 14.05 -48.75 15.55 -47.8 13.85 -47.75 12.65 -49.8 14.1 -50.05 14.65 L-49.05 11.9 Q-50.45 12.7 -52.25 15.1 -52.8 11.0 -54.05 8.9 L-44.15 9.5 -44.0 9.5 -44.4 9.4 Q-53.35 7.0 -64.65 6.1 -65.25 5.6 -66.0 5.3 L-65.8 5.6 -65.45 6.05 -72.05 5.65 -69.35 2.5 Q-71.6 3.0 -74.55 5.35 L-74.8 5.55 -78.9 5.5 -78.65 4.0 -78.45 2.65 -78.4 1.8 -78.5 0.4 -79.55 1.25 -79.6 1.3 -81.6 4.25 -82.05 5.5 -83.1 5.5 Q-83.55 3.15 -84.5 2.0 -85.15 5.35 -84.3 10.55 -84.6 9.25 -86.05 7.55 L-88.2 4.9 Q-87.1 6.7 -86.3 12.0 L-87.6 9.45 -91.1 13.15 Q-90.25 11.3 -90.1 9.3 -93.05 11.6 -93.3 14.25 -93.5 4.1 -92.5 2.15 -94.8 3.75 -94.85 7.05 -94.9 8.95 -94.4 12.7 -95.9 12.35 -96.3 10.55 -98.55 11.7 -99.7 13.4 -98.6 10.7 -97.4 8.75 L-102.35 12.05 Q-98.65 7.15 -98.85 4.15 -101.6 5.8 -103.35 8.7 L-104.4 11.1 Q-105.05 12.55 -105.85 13.0 -106.7 8.8 -106.6 8.25 L-108.15 11.55 -108.15 -25.85 M-99.0 -2.15 L-94.75 -3.2 Q-90.25 -3.8 -89.0 -1.5 L-84.1 -2.0 Q-79.25 -1.9 -79.55 1.25 -79.25 -1.9 -84.1 -2.0 L-89.0 -1.5 Q-90.25 -3.8 -94.75 -3.2 L-99.0 -2.15 M-96.65 -12.6 Q-96.8 -12.9 -97.25 -13.1 L-98.3 -13.05 -98.95 -12.85 -100.15 -12.35 Q-102.3 -11.3 -103.7 -10.85 L-105.6 -10.75 Q-104.3 -10.1 -102.95 -10.1 -102.0 -10.05 -100.35 -10.75 -99.5 -10.8 -99.3 -10.45 L-98.75 -9.65 -96.95 -9.55 Q-95.7 -9.85 -93.05 -11.95 -90.8 -13.8 -88.85 -13.6 L-89.9 -12.6 Q-89.2 -12.75 -88.8 -12.3 -88.5 -12.0 -88.55 -11.7 L-87.65 -11.85 Q-86.85 -12.15 -86.45 -12.55 -86.35 -13.3 -87.85 -14.5 L-87.8 -14.5 -87.85 -14.5 -87.9 -14.55 Q-87.2 -15.0 -86.85 -15.35 -86.7 -15.7 -86.85 -16.1 -88.25 -16.6 -90.25 -15.65 L-92.4 -14.35 -92.7 -14.15 -94.85 -12.05 -94.9 -12.0 Q-96.45 -10.7 -97.3 -10.75 L-97.35 -11.15 -96.85 -12.25 -96.65 -12.6 Q-96.35 -13.3 -96.6 -13.6 L-98.3 -13.45 -99.2 -13.15 Q-105.3 -10.8 -106.05 -11.95 -105.3 -10.8 -99.2 -13.15 L-98.3 -13.45 -96.6 -13.6 Q-96.35 -13.3 -96.65 -12.6 M-87.8 -14.5 L-86.2 -13.85 Q-85.85 -13.15 -86.45 -12.55 -85.85 -13.15 -86.2 -13.85 L-87.8 -14.5 M-90.25 -15.65 L-88.7 -16.35 -87.35 -16.7 -86.8 -16.65 -86.5 -16.4 Q-86.3 -15.95 -86.85 -15.35 -86.3 -15.95 -86.5 -16.4 L-86.8 -16.65 -87.35 -16.7 -88.7 -16.35 -90.25 -15.65 M-83.2 -11.0 L-82.35 -10.85 -81.85 -10.55 -81.7 -10.35 -83.4 -9.3 Q-84.5 -8.7 -84.35 -7.85 L-83.95 -7.8 -84.35 -7.85 Q-84.5 -8.7 -83.4 -9.3 L-81.7 -10.35 -81.85 -10.55 -82.35 -10.85 -83.2 -11.0 -84.4 -11.0 -84.5 -10.8 -84.35 -11.0 -83.2 -11.0 M-88.55 -11.7 L-88.9 -11.6 -89.9 -11.4 -92.55 -10.3 -87.55 -10.5 -84.5 -11.0 -84.4 -11.0 -84.5 -11.0 -87.55 -10.5 -92.55 -10.3 -89.9 -11.4 -88.9 -11.6 -88.55 -11.7 M-83.95 -7.8 L-82.6 -7.95 -83.95 -7.8 M-82.6 -7.95 L-81.95 -8.1 -79.8 -8.2 Q-79.45 -7.95 -79.45 -7.65 -79.45 -7.4 -79.75 -7.05 L-80.7 -6.05 -80.75 -6.05 -80.7 -6.05 -80.1 -6.1 -80.35 -5.95 -80.05 -6.1 -79.95 -6.1 -78.8 -6.15 -76.3 -6.35 -75.15 -6.35 Q-73.7 -6.2 -72.55 -5.6 L-72.35 -5.45 -71.4 -4.8 Q-70.3 -4.15 -69.15 -4.0 L-67.45 -3.8 -65.4 -3.25 -64.9 -3.2 -60.6 -2.95 -57.85 -3.0 -57.1 -3.05 -54.45 -3.2 -57.1 -3.05 -57.85 -3.0 -60.6 -2.95 -64.9 -3.2 -65.4 -3.25 -67.45 -3.8 -69.15 -4.0 Q-70.3 -4.15 -71.4 -4.8 L-72.35 -5.45 -72.55 -5.6 Q-73.7 -6.2 -75.15 -6.35 L-76.3 -6.35 -78.8 -6.15 -79.95 -6.1 -80.05 -6.1 -80.35 -5.95 -80.1 -6.1 -80.7 -6.05 -80.75 -6.05 -80.7 -6.05 -79.75 -7.05 Q-79.45 -7.4 -79.45 -7.65 -79.45 -7.95 -79.8 -8.2 L-81.95 -8.1 -82.6 -7.95 M-80.05 -6.1 L-80.1 -6.1 -80.05 -6.1 M-42.9 -13.85 L-47.8 -14.9 Q-40.4 -13.05 -28.65 -4.5 -36.15 -11.35 -42.9 -13.85 M-52.4 -3.4 L-52.7 -3.35 -52.95 -3.35 -53.05 -3.35 -53.3 -3.3 -53.6 -3.3 -54.45 -3.2 -54.05 -3.25 -53.05 -3.3 -52.8 -3.35 -52.75 -3.35 -52.7 -3.35 -52.4 -3.4 -52.7 -3.35 -52.75 -3.35 -52.4 -3.4 M-51.95 -3.45 L-52.25 -3.4 -52.15 -3.4 -51.95 -3.45 -51.7 -3.45 -50.25 -3.6 Q-47.5 -3.7 -45.75 -2.8 -47.5 -3.7 -50.25 -3.6 L-51.7 -3.45 -51.95 -3.45 M-29.45 -2.95 Q-31.7 -5.15 -34.25 -6.55 L-36.4 -7.5 Q-29.05 -3.75 -24.5 7.0 -23.4 9.55 -22.65 11.9 -21.8 14.55 -21.4 17.0 -21.55 15.05 -21.85 13.2 -23.45 3.1 -29.45 -2.95 M-0.3 18.65 L1.8 18.7 3.0 19.0 4.1 18.75 81.95 20.15 107.65 20.15 107.85 20.25 Q107.8 48.8 107.9 50.4 L107.95 52.15 107.9 53.65 107.85 53.6 Q107.05 53.25 104.8 55.2 106.45 52.85 106.25 51.5 104.5 51.0 101.8 55.35 101.8 52.4 101.0 51.0 98.65 54.3 97.6 56.25 98.25 55.0 97.95 53.55 96.05 54.65 95.25 55.95 95.75 54.8 95.4 53.6 94.15 53.7 93.3 54.95 93.75 53.65 93.5 51.5 L93.5 51.3 101.0 50.65 104.5 50.0 93.4 50.45 93.2 47.9 93.0 48.2 92.9 48.3 92.3 49.1 91.9 49.75 91.45 50.5 88.8 50.5 Q88.5 50.15 88.1 50.15 L88.05 50.5 87.9 50.5 85.2 50.5 84.8 49.9 84.45 49.4 84.3 49.25 84.05 49.05 83.95 48.95 84.05 50.5 76.65 50.5 84.1 51.1 84.25 51.9 Q84.6 53.7 84.15 54.8 L82.65 53.3 Q81.75 52.35 80.95 52.25 80.95 54.7 80.25 55.25 79.1 53.3 78.3 53.35 77.5 53.35 76.1 55.3 76.8 53.95 76.5 52.5 75.55 52.75 74.55 54.0 75.75 52.3 75.55 50.95 73.25 51.3 72.1 55.0 71.8 53.25 72.9 51.0 L74.55 47.4 Q71.35 49.15 70.45 50.05 68.85 51.65 69.05 54.45 68.55 49.5 66.25 47.3 66.45 48.55 66.3 54.4 L64.1 51.45 Q63.8 52.2 63.45 54.25 62.05 54.05 62.15 51.8 61.2 51.9 60.05 53.55 L60.0 53.2 60.0 53.1 60.0 52.9 60.0 52.7 60.35 50.7 60.6 50.05 63.0 49.85 57.0 49.65 57.0 45.65 Q56.25 46.8 56.15 49.0 L56.15 49.65 54.65 49.6 54.45 48.0 54.6 49.6 48.25 49.4 48.25 49.3 48.5 48.7 Q49.85 45.45 49.8 43.65 47.45 45.0 46.4 47.75 L46.4 47.85 46.3 48.05 46.05 48.85 Q45.8 48.5 44.65 48.25 L44.65 46.95 44.6 45.3 43.9 46.45 Q43.55 47.15 43.35 48.0 L37.15 47.6 Q41.1 45.95 39.0 45.95 L34.85 46.45 36.65 43.7 33.2 46.55 33.05 46.55 30.75 46.65 Q29.7 42.4 26.85 38.45 L26.45 37.95 Q35.05 39.1 44.15 38.05 L47.85 37.5 26.0 37.4 25.05 36.25 25.1 36.35 25.2 36.7 25.4 37.4 22.85 37.35 25.6 37.8 26.05 38.85 26.55 40.0 28.0 43.95 28.35 46.7 28.05 46.7 26.9 44.25 25.15 41.4 25.25 41.65 25.75 43.15 25.9 43.85 12.0 43.4 11.95 42.9 11.9 42.8 11.8 42.9 11.4 43.25 11.25 43.4 3.85 43.15 6.4 43.7 6.35 45.85 1.25 45.5 Q0.5 45.8 0.5 46.15 -0.75 46.25 -2.05 47.05 -3.75 48.0 -3.9 49.3 -4.35 47.2 -3.15 44.4 -2.05 41.9 -0.35 40.35 -2.95 40.65 -4.25 43.8 L-6.1 48.9 Q-6.2 44.55 -6.6 42.5 -6.85 41.1 -9.35 35.9 -8.3 38.5 -8.25 41.85 L-8.25 47.85 Q-8.6 43.5 -11.2 38.8 -11.4 40.0 -10.35 44.25 -9.5 47.8 -10.6 49.35 L-12.15 47.6 Q-12.25 50.05 -12.6 50.8 -13.9 50.4 -14.85 48.65 L-15.85 49.7 -16.4 49.0 Q-15.55 48.55 -14.8 46.85 L-13.35 44.55 -16.75 46.9 Q-18.8 48.4 -19.55 50.05 -19.45 48.55 -18.25 46.3 -16.85 43.75 -16.6 42.7 L-18.45 44.45 -16.8 42.45 -15.2 40.95 -13.55 40.75 Q-12.65 40.8 -12.1 39.9 L-12.5 36.95 Q-12.45 35.1 -10.05 33.2 L-9.6 32.8 -8.65 31.7 Q-8.2 30.8 -8.5 29.95 -5.3 28.95 -5.65 27.55 L-5.8 26.95 Q-6.3 24.85 -6.05 24.15 -4.1 23.85 -2.45 22.5 L-1.85 21.9 -1.35 22.25 Q-0.55 22.2 -0.45 21.35 -0.4 20.55 -1.1 20.15 L-2.7 20.3 -2.85 20.45 -3.2 20.35 -2.9 20.2 -0.45 18.75 -0.3 18.65 M-25.9 24.25 L-26.15 21.15 Q-27.65 8.6 -34.45 3.0 -36.85 1.05 -39.6 0.2 L-41.9 -0.25 -39.6 0.2 Q-36.85 1.05 -34.45 3.0 -27.65 8.6 -26.15 21.15 L-25.9 24.25 M-29.95 23.4 Q-30.95 16.0 -34.95 12.4 -36.45 11.0 -38.2 10.35 L-39.65 10.0 -38.2 10.35 Q-36.45 11.0 -34.95 12.4 -30.95 16.0 -29.95 23.4 -30.9 23.6 -30.9 24.75 -30.9 26.05 -29.65 26.15 L-29.45 26.15 -29.2 26.15 Q-28.05 26.05 -28.05 24.75 -28.05 23.55 -29.05 23.4 L-29.45 23.35 -29.95 23.4 M-36.65 0.0 L-34.7 0.65 Q-32.4 1.75 -30.45 4.1 -25.9 9.45 -24.4 19.65 -25.9 9.45 -30.45 4.1 -32.4 1.75 -34.7 0.65 L-36.65 0.0 M-29.65 26.75 L-29.65 26.15 -29.65 26.75 M-24.05 22.5 L-23.75 28.4 -24.05 22.5 Q-23.1 22.3 -23.1 21.1 -23.1 19.7 -24.4 19.65 L-24.5 19.65 Q-25.9 19.65 -25.9 21.1 -25.9 22.5 -24.5 22.5 L-24.05 22.5 M-54.7 8.85 L-54.75 10.65 -54.75 10.75 -54.75 10.8 -54.75 10.95 -54.75 11.55 Q-54.7 13.75 -55.15 15.05 -56.5 14.4 -56.9 13.85 -58.0 14.35 -59.5 16.35 -61.05 15.25 -59.8 13.4 -58.1 10.85 -58.1 10.4 -59.75 10.55 -62.5 13.75 -62.75 10.45 -63.1 8.85 L-63.35 8.1 -54.7 8.85 M-64.5 7.95 Q-63.55 10.95 -65.15 14.55 -65.75 14.2 -66.3 12.95 -66.9 11.55 -67.4 11.1 L-69.65 14.65 Q-70.15 13.3 -69.75 11.15 -69.3 9.0 -68.4 8.05 -69.95 8.75 -71.05 10.45 -72.2 12.25 -71.9 13.9 -72.95 13.25 -73.35 11.75 -73.9 12.0 -75.15 13.7 L-75.7 14.4 -75.45 13.65 Q-74.65 9.75 -73.55 7.8 L-73.05 7.0 -64.5 7.95 M-76.0 6.65 Q-78.0 8.55 -78.8 10.45 -80.4 10.6 -81.55 13.1 -80.15 9.6 -79.5 7.5 L-79.1 6.25 -76.0 6.65 M-34.1 9.6 Q-39.15 3.7 -48.4 2.9 L-53.15 2.75 -50.3 3.1 -47.9 3.55 Q-45.7 4.05 -43.65 4.8 -33.5 8.55 -30.4 17.0 -30.95 13.25 -34.1 9.6 M-38.05 25.75 L-37.9 27.35 Q-37.75 28.35 -35.9 30.9 -34.25 33.2 -34.45 34.35 -34.9 36.5 -36.6 35.4 L-36.8 35.25 -40.65 31.25 -41.45 31.15 Q-41.85 30.05 -42.4 29.2 L-42.45 29.15 -42.5 29.0 -42.65 28.8 -43.1 28.25 Q-39.55 29.65 -38.0 29.6 L-37.6 29.55 -38.4 28.55 Q-40.15 26.25 -40.6 24.9 L-39.1 25.5 -38.05 25.75 M-0.55 48.15 L0.95 48.2 -0.55 49.5 -0.65 49.55 -0.7 49.6 -0.9 49.9 -0.9 49.55 -0.55 48.15 M1.9 48.2 L5.4 48.05 Q3.2 48.35 3.05 49.05 3.0 49.4 3.35 49.7 L3.7 49.7 3.2 50.45 Q2.55 51.65 1.95 52.0 1.7 51.65 1.8 49.65 L1.9 48.2 M5.1 49.7 L6.25 49.7 6.25 50.4 Q5.55 50.25 5.1 49.7 M-59.65 1.85 Q-63.95 0.4 -72.8 1.5 L-78.4 1.8 -72.8 1.5 Q-63.95 0.4 -59.65 1.85 M-83.05 5.65 L-82.1 5.8 Q-82.65 7.7 -82.75 10.1 -82.75 7.5 -83.05 5.65 M95.35 30.85 Q108.25 33.15 99.75 35.85 L88.65 38.15 99.75 35.85 Q108.25 33.15 95.35 30.85 M90.0 41.9 L96.55 41.4 88.4 41.7 80.6 41.85 62.0 42.0 71.75 42.75 73.1 42.75 90.0 41.9 M89.2 51.3 L91.05 51.35 90.6 52.45 89.95 54.45 89.75 55.15 89.55 56.1 89.5 56.25 89.35 56.85 89.35 56.3 89.35 53.0 89.2 51.3 M87.9 51.3 L87.0 54.25 86.85 54.5 86.8 54.55 86.75 54.4 86.7 54.3 85.85 51.85 85.55 51.2 87.9 51.3 M50.5 22.75 Q50.5 21.85 49.6 21.85 48.65 21.85 48.65 22.75 48.65 23.65 49.6 23.65 50.5 23.65 50.5 22.75 M59.5 23.75 Q59.5 22.35 58.1 22.35 56.7 22.35 56.65 23.65 L56.65 23.75 Q56.65 25.15 58.1 25.15 59.5 25.15 59.5 23.75 M67.3 28.4 Q66.8 27.0 65.1 27.2 L63.15 27.65 Q62.1 28.0 61.25 28.5 L60.05 29.2 58.8 30.2 Q59.65 29.3 59.35 27.9 L59.3 27.8 Q59.25 27.55 59.0 27.6 L58.25 28.15 58.15 28.3 57.4 29.25 57.25 29.25 Q56.8 29.25 56.55 28.4 L56.35 27.35 56.15 26.7 Q55.55 25.65 54.7 25.35 L52.7 25.45 Q51.3 26.05 52.7 27.25 L54.6 28.9 55.1 30.3 Q56.0 31.65 58.3 31.65 L59.75 31.8 Q59.95 32.15 59.25 33.0 L60.55 33.2 Q60.8 33.65 60.35 34.55 L61.85 35.0 63.75 35.5 64.75 35.45 Q65.15 34.25 65.0 33.85 64.9 33.4 63.9 33.15 L63.55 33.15 62.95 33.0 Q64.25 32.65 64.45 32.15 L64.45 32.1 64.5 32.0 Q64.75 31.5 63.85 31.25 L63.45 31.1 62.1 31.05 Q61.5 31.25 61.15 32.05 61.95 30.15 63.8 29.7 L66.1 29.0 66.8 28.7 66.85 28.65 67.3 28.4 M55.55 33.1 Q54.35 29.55 53.5 28.55 L52.15 27.6 Q51.45 27.1 51.55 26.2 51.7 24.9 53.1 24.75 L54.8 25.0 55.4 25.35 56.35 26.6 56.65 27.3 57.25 29.25 56.65 27.3 56.35 26.6 55.4 25.35 54.8 25.0 53.1 24.75 Q51.7 24.9 51.55 26.2 51.45 27.1 52.15 27.6 L53.5 28.55 Q54.35 29.55 55.55 33.1 L50.15 32.35 Q49.0 32.1 47.65 32.35 L45.0 32.75 27.1 32.75 45.0 32.75 47.65 32.35 Q49.0 32.1 50.15 32.35 L55.55 33.1 M50.9 30.0 Q50.9 30.9 51.85 30.9 52.75 30.9 52.75 30.0 52.75 29.1 51.85 29.1 50.9 29.1 50.9 30.0 M12.55 25.9 L36.25 25.8 45.65 25.75 Q46.65 25.3 42.95 25.05 L37.0 24.85 Q40.9 24.0 38.85 24.0 31.5 24.65 15.55 24.25 L1.1 23.75 Q0.0 23.95 0.5 24.25 L1.25 24.5 -1.1 24.75 Q-3.0 25.15 0.95 25.15 L5.25 25.1 Q3.0 25.25 2.85 25.6 L3.15 25.9 12.55 25.9 41.35 26.85 12.55 25.9 M50.65 40.3 L58.4 41.0 Q69.75 41.55 88.15 40.15 L49.85 40.15 50.65 40.3 M13.15 32.8 L19.35 32.5 -1.35 32.35 0.6 32.6 Q5.6 33.05 13.15 32.8 M0.6 46.4 L0.65 46.45 1.4 46.95 -0.1 47.25 0.6 46.4 M9.35 46.05 L7.4 45.9 6.95 44.7 6.6 44.0 6.55 43.9 6.4 43.7 10.55 44.2 9.35 46.05 M12.0 44.3 L25.9 43.9 26.3 46.7 24.35 46.7 23.8 45.3 23.7 45.05 23.6 44.9 Q23.15 45.45 22.8 46.7 L15.7 46.45 11.6 46.2 12.0 44.3 M10.55 49.7 L12.05 49.7 11.4 50.15 10.8 50.6 10.5 50.85 10.4 50.9 10.4 50.75 10.45 50.45 10.55 49.7 M15.3 49.65 L17.55 49.65 Q16.45 50.9 14.8 51.15 L15.3 49.65 M18.65 49.65 L22.15 49.65 21.85 51.45 20.8 50.15 19.85 52.25 18.65 49.65 M28.05 46.7 L28.35 46.7 28.5 49.55 28.55 51.6 28.45 49.55 28.3 48.25 28.25 47.7 28.15 47.25 28.05 46.7 M33.25 49.5 L35.0 49.5 Q33.85 50.05 33.15 50.55 L33.25 49.5 M37.3 49.45 L37.7 49.45 42.95 50.25 42.6 51.95 Q41.65 50.9 41.45 50.25 L41.25 52.7 Q40.25 52.35 39.95 52.1 39.65 53.85 38.6 53.3 37.55 52.7 38.0 51.1 L37.95 51.15 37.9 51.2 36.35 51.7 35.7 51.9 35.55 51.9 35.65 51.8 36.55 50.55 37.3 49.45 M27.35 36.15 L5.0 35.85 27.35 36.15 M35.35 22.5 L5.65 22.0 Q13.5 23.85 35.35 22.5 M24.85 49.6 L25.95 49.6 25.0 51.85 24.85 49.6 M57.05 50.25 L60.55 50.05 Q59.05 52.2 57.3 53.3 L57.05 50.25 M56.1 50.3 L55.6 52.35 54.85 50.35 56.1 50.3 M54.75 50.35 L54.8 50.6 54.95 53.2 Q53.8 53.1 53.45 51.9 L53.45 52.7 52.8 54.25 Q52.0 54.35 51.3 52.95 50.65 51.7 51.35 51.3 50.1 51.85 49.45 53.35 L49.35 50.45 Q48.55 50.9 47.95 52.1 L47.1 53.4 46.7 53.8 46.65 53.85 46.65 53.75 47.6 51.0 47.85 50.45 49.35 50.45 50.0 50.45 54.75 50.35 M44.65 50.35 L45.5 50.4 44.7 52.55 44.6 52.8 44.6 52.55 44.65 51.15 44.65 50.35 M42.5 30.65 L14.35 30.35 Q24.5 32.15 42.5 30.65 M100.0 44.15 L68.0 44.5 100.0 44.15" fill="#ffffff" fill-opacity="0.0" fill-rule="evenodd" stroke="none"/>
    <path d="M-29.45 -2.95 Q-23.45 3.1 -21.85 13.2 -21.55 15.05 -21.4 17.0 -21.8 14.55 -22.65 11.9 -23.4 9.55 -24.5 7.0 -29.05 -3.75 -36.4 -7.5 L-34.25 -6.55 Q-31.7 -5.15 -29.45 -2.95 M-0.05 7.8 L0.0 7.9 Q0.65 8.95 -1.0 10.7 L-1.1 10.75 -1.6 11.25 -2.0 11.6 -3.55 13.3 Q-4.5 16.75 -6.0 18.35 -1.25 15.0 0.4 16.45 1.45 17.35 -0.3 18.65 L-0.45 18.75 -2.9 20.2 -3.2 20.35 -2.85 20.45 -4.0 21.4 Q-3.2 20.9 -1.85 21.9 L-2.45 22.5 Q-4.1 23.85 -6.05 24.15 -6.3 24.85 -5.8 26.95 L-5.65 27.55 Q-5.3 28.95 -8.5 29.95 -8.2 30.8 -8.65 31.7 L-9.6 32.8 -10.05 33.2 Q-12.45 35.1 -12.5 36.95 L-12.1 39.9 Q-12.65 40.8 -13.55 40.75 L-15.2 40.95 -16.8 42.45 -18.45 44.45 -20.95 48.0 -21.7 50.6 -21.8 51.4 -22.05 49.4 -22.1 45.5 Q-22.1 41.75 -23.45 40.0 L-23.55 41.35 -23.6 41.9 Q-24.1 40.0 -25.5 38.5 -24.85 37.75 -22.4 37.65 -20.55 37.6 -20.75 35.9 -18.5 36.4 -17.05 35.6 -15.75 34.85 -16.05 33.35 L-16.25 32.65 -16.55 32.3 -18.1 31.0 Q-19.1 30.25 -17.6 28.95 -15.2 28.2 -13.4 27.45 L-13.7 27.95 Q-13.8 28.75 -13.1 29.75 -12.35 30.8 -12.35 31.3 L-12.5 31.8 -13.15 33.0 -13.25 33.15 Q-13.95 34.25 -14.35 34.15 -13.2 34.5 -11.85 33.8 L-10.65 32.85 -10.15 31.9 -10.1 31.7 Q-9.8 30.55 -10.4 30.15 L-11.6 29.15 -11.7 28.9 -11.5 26.6 Q-10.25 25.9 -9.95 25.3 -9.35 24.05 -12.1 22.9 -8.8 21.2 -8.0 20.0 -7.25 19.0 -7.75 17.25 L-8.1 15.7 -8.15 14.85 Q-7.75 13.55 -4.65 11.05 L-0.5 7.65 -0.3 7.5 -0.05 7.8 M0.5 46.15 Q0.5 45.8 1.25 45.5 L6.35 45.85 6.25 49.7 5.1 49.7 4.55 48.9 3.7 49.7 3.35 49.7 Q3.0 49.4 3.05 49.05 3.2 48.35 5.4 48.05 L1.9 48.2 Q1.95 47.5 2.1 47.4 L0.95 48.2 -0.55 48.15 -0.1 47.25 1.4 46.95 0.65 46.45 0.6 46.4 0.85 46.1 0.5 46.15 M25.6 37.8 L22.85 37.35 25.4 37.4 25.6 37.8 M26.0 37.4 L47.85 37.5 44.15 38.05 Q35.05 39.1 26.45 37.95 L26.0 37.4 M30.75 46.65 L33.05 46.55 33.2 46.55 Q31.95 48.15 31.55 49.55 31.3 50.3 31.3 51.05 L31.25 49.9 31.15 48.95 31.1 48.4 31.0 47.75 30.9 47.25 30.75 46.65 M34.85 46.45 L39.0 45.95 Q41.1 45.95 37.15 47.6 L43.35 48.0 43.25 48.5 43.25 48.7 43.1 49.4 37.7 49.45 37.3 49.45 37.7 48.85 38.05 48.3 38.2 48.05 Q36.3 48.8 35.0 49.5 L33.25 49.5 Q33.5 48.4 34.45 47.0 L34.85 46.45 M44.65 48.25 Q45.8 48.5 46.05 48.85 L45.85 49.35 44.65 49.4 44.65 48.25 M84.1 51.1 L76.65 50.5 84.05 50.5 84.1 51.1 M85.2 50.5 L87.9 50.5 88.05 50.5 88.05 50.55 87.9 51.3 85.55 51.2 85.2 50.5 M88.8 50.5 L91.45 50.5 91.05 51.35 89.2 51.3 88.8 50.5 M93.4 50.45 L104.5 50.0 101.0 50.65 93.5 51.3 93.4 50.45 M-32.85 21.0 Q-31.95 23.45 -31.65 26.5 -32.35 23.7 -34.2 20.6 L-34.5 20.1 -34.8 19.7 -35.65 18.55 Q-37.45 16.2 -39.6 14.7 L-38.9 14.05 -38.5 14.25 Q-37.0 15.1 -35.85 16.3 -34.55 17.6 -33.6 19.35 -33.9 19.55 -33.9 20.1 -33.9 21.0 -33.0 21.0 L-32.85 21.0 M-29.45 29.95 L-30.8 28.9 -27.3 29.95 -27.3 30.05 -29.45 29.9 -29.45 29.95 M-39.6 13.65 L-40.55 14.1 Q-42.35 13.05 -44.4 12.5 L-42.6 12.7 Q-41.05 13.0 -39.6 13.65 M-33.65 42.05 L-33.6 42.05 Q-32.8 41.6 -33.05 40.15 L-32.65 40.2 Q-32.05 40.3 -31.45 40.8 -30.6 41.5 -29.75 43.05 L-28.7 44.45 Q-29.3 45.3 -29.7 46.5 L-29.75 46.65 -30.1 47.95 Q-32.35 45.25 -33.65 42.05 M-27.8 45.2 Q-26.85 45.75 -25.7 45.6 -24.35 45.45 -23.8 44.7 L-24.25 50.3 -24.45 52.2 -26.2 50.0 -26.5 49.7 -26.6 49.95 -26.65 50.05 -27.1 50.95 -27.55 50.6 -27.85 50.35 -27.85 50.2 -27.85 49.95 -27.8 48.9 -27.8 45.5 -27.8 45.2 M90.0 41.9 L73.1 42.75 71.75 42.75 62.0 42.0 80.6 41.85 88.4 41.7 96.55 41.4 90.0 41.9 M12.55 25.9 L3.15 25.9 2.85 25.6 Q3.0 25.25 5.25 25.1 L0.95 25.15 Q-3.0 25.15 -1.1 24.75 L1.25 24.5 0.5 24.25 Q0.0 23.95 1.1 23.75 L15.55 24.25 Q31.5 24.65 38.85 24.0 40.9 24.0 37.0 24.85 L42.95 25.05 Q46.65 25.3 45.65 25.75 L36.25 25.8 12.55 25.9 M9.35 46.05 L9.3 46.15 8.55 48.3 8.3 49.7 8.55 48.3 8.35 49.7 8.3 49.7 7.4 45.9 9.35 46.05 M11.6 46.2 L15.7 46.45 22.8 46.7 Q22.4 47.85 22.15 49.65 L18.65 49.65 18.1 48.8 17.55 49.65 15.3 49.65 15.6 47.85 15.45 47.9 12.95 49.1 Q12.5 49.35 12.05 49.7 L10.55 49.7 10.85 48.5 11.15 47.5 11.2 47.4 11.3 47.1 11.3 47.0 11.35 46.85 11.6 46.2 M24.35 46.7 L26.3 46.7 26.3 46.9 25.95 49.6 24.85 49.6 24.35 46.7" fill="#000000" fill-opacity="0.101960786" fill-rule="evenodd" stroke="none"/>
    <path d="M-83.1 5.5 L-82.05 5.5 -82.1 5.8 -83.05 5.65 -83.1 5.5 M-42.9 -13.85 Q-36.15 -11.35 -28.65 -4.5 -40.4 -13.05 -47.8 -14.9 L-42.9 -13.85 M6.4 43.7 L3.85 43.15 11.25 43.4 10.55 44.2 6.4 43.7 M12.0 43.4 L25.9 43.85 25.9 43.9 12.0 44.3 12.0 43.4 M48.25 49.4 L54.6 49.6 54.75 50.35 50.0 50.45 49.35 50.45 47.85 50.45 47.8 50.45 48.25 49.4 M54.65 49.6 L56.15 49.65 56.1 50.3 54.85 50.35 54.65 49.6 M57.0 49.65 L63.0 49.85 60.6 50.05 60.7 49.8 60.55 50.05 57.05 50.25 57.0 49.65 M-54.05 8.9 L-54.7 8.0 -54.7 8.85 -63.35 8.1 Q-63.8 6.85 -64.65 6.1 -53.35 7.0 -44.4 9.4 L-44.0 9.5 -44.15 9.5 -54.05 8.9 M-65.45 6.05 Q-64.85 6.95 -64.5 7.95 L-73.05 7.0 -72.05 5.65 -65.45 6.05 M-74.8 5.55 L-76.0 6.65 -79.1 6.25 -78.9 5.5 -74.8 5.55 M-34.1 9.6 Q-30.95 13.25 -30.4 17.0 -33.5 8.55 -43.65 4.8 -45.7 4.05 -47.9 3.55 L-50.3 3.1 -53.15 2.75 -48.4 2.9 Q-39.15 3.7 -34.1 9.6 M44.65 49.4 L45.85 49.35 45.5 50.4 44.65 50.35 44.65 50.3 44.65 49.4 M50.65 40.3 L49.85 40.15 88.15 40.15 Q69.75 41.55 58.4 41.0 L50.65 40.3 M13.15 32.8 Q5.6 33.05 0.6 32.6 L-1.35 32.35 19.35 32.5 13.15 32.8 M37.7 49.45 L43.1 49.4 42.95 50.25 37.7 49.45 M35.35 22.5 Q13.5 23.85 5.65 22.0 L35.35 22.5 M42.5 30.65 Q24.5 32.15 14.35 30.35 L42.5 30.65" fill="#ffffff" fill-opacity="0.4" fill-rule="evenodd" stroke="none"/>
    <path d="M107.9 53.65 L107.85 53.85" fill="none" stroke="#000000" stroke-linecap="round" stroke-linejoin="round" stroke-width="1.0"/>
    <path d="M-62.65 -24.9 L-79.85 -26.1 Q-93.2 -26.55 -107.7 -25.85 L-108.15 -25.85 M-108.15 11.55 L-106.6 8.25 Q-106.7 8.8 -105.85 13.0 -105.05 12.55 -104.4 11.1 L-103.35 8.7 Q-101.6 5.8 -98.85 4.15 -98.65 7.15 -102.35 12.05 L-97.4 8.75 Q-98.6 10.7 -99.7 13.4 -98.55 11.7 -96.3 10.55 -95.9 12.35 -94.4 12.7 -94.9 8.95 -94.85 7.05 -94.8 3.75 -92.5 2.15 -93.5 4.1 -93.3 14.25 -93.05 11.6 -90.1 9.3 -90.25 11.3 -91.1 13.15 L-87.6 9.45 -86.3 12.0 Q-87.1 6.7 -88.2 4.9 L-86.05 7.55 Q-84.6 9.25 -84.3 10.55 -85.15 5.35 -84.5 2.0 -83.55 3.15 -83.1 5.5 L-83.05 5.65 Q-82.75 7.5 -82.75 10.1 -82.65 7.7 -82.1 5.8 L-82.05 5.5 -81.6 4.25 -79.6 1.3 M-88.55 -11.7 L-87.65 -11.85 Q-86.85 -12.15 -86.45 -12.55 -85.85 -13.15 -86.2 -13.85 L-87.8 -14.5 -87.85 -14.5 -87.9 -14.55 Q-87.2 -15.0 -86.85 -15.35 -86.3 -15.95 -86.5 -16.4 L-86.8 -16.65 -87.35 -16.7 -88.7 -16.35 -90.25 -15.65 -92.4 -14.35 -92.6 -14.2 -94.85 -12.05 -94.9 -12.0 Q-96.45 -10.7 -97.3 -10.75 L-97.4 -10.8 -97.35 -11.15 -96.85 -12.25 -96.65 -12.6 Q-96.35 -13.3 -96.6 -13.6 L-98.3 -13.45 -99.2 -13.15 Q-105.3 -10.8 -106.05 -11.95 M-83.95 -7.8 L-84.35 -7.85 Q-84.5 -8.7 -83.4 -9.3 L-81.7 -10.35 -81.85 -10.55 -82.35 -10.85 -83.2 -11.0 -84.4 -11.0 -84.5 -11.0 -87.55 -10.5 -92.55 -10.3 -89.9 -11.4 -88.9 -11.6 -88.55 -11.7 M-82.6 -7.95 L-83.95 -7.8 M-54.45 -3.2 L-57.1 -3.05 -57.85 -3.0 -60.6 -2.95 -64.9 -3.2 -65.4 -3.25 -67.45 -3.8 -69.15 -4.0 Q-70.3 -4.15 -71.4 -4.8 L-72.35 -5.45 -72.55 -5.6 Q-73.7 -6.2 -75.15 -6.35 L-76.3 -6.35 -78.8 -6.15 -79.95 -6.1 -80.05 -6.1 -80.35 -5.95 -80.1 -6.1 -80.7 -6.05 -80.75 -6.05 -80.7 -6.05 -79.75 -7.05 Q-79.45 -7.4 -79.45 -7.65 -79.45 -7.95 -79.8 -8.2 L-81.95 -8.1 -82.6 -7.95 M-80.1 -6.1 L-80.05 -6.1 M-52.4 -3.4 L-52.7 -3.35 -52.75 -3.35 -52.8 -3.35 -52.95 -3.35 -53.05 -3.35 -53.3 -3.3 -53.6 -3.3 -54.45 -3.2 M-51.95 -3.45 L-52.15 -3.4 -52.25 -3.4 -51.95 -3.45 -51.7 -3.45 -50.25 -3.6 Q-47.5 -3.7 -45.75 -2.8 M-19.4 16.45 L-17.7 16.5 Q-16.15 17.15 -14.75 19.55 -14.25 18.85 -14.0 17.05 L-13.95 16.7 Q-16.2 15.15 -17.1 11.9 -17.65 4.3 -19.05 0.75 -23.55 -11.15 -40.35 -19.5 -47.85 -23.25 -62.65 -24.9 M-13.95 16.7 Q-13.75 15.25 -13.15 14.6 L-12.2 14.7 -11.1 14.75 Q-10.6 14.25 -10.4 12.65 -8.75 10.05 -6.2 8.1 L-5.85 7.85 Q-3.8 6.3 -2.25 6.4 L-1.9 6.45 -0.9 6.9 -0.85 6.95 -0.3 7.5 -0.05 7.8 0.0 7.9 Q0.65 8.95 -1.0 10.7 L-0.75 10.65 Q0.15 10.65 0.15 11.6 L0.05 12.1 Q-0.15 12.5 -0.75 12.5 -1.6 12.5 -1.65 11.7 L-1.65 11.6 -1.6 11.25 -2.0 11.6 -3.55 13.3 Q-4.5 16.75 -6.0 18.35 -1.25 15.0 0.4 16.45 1.45 17.35 -0.3 18.65 L1.8 18.7 Q1.15 18.25 1.15 17.15 1.15 15.35 3.0 15.35 4.85 15.35 4.85 17.15 4.85 18.3 4.1 18.75 L81.95 20.15 107.65 20.15 107.85 20.15 107.85 20.25 107.65 20.15 M107.85 53.85 L107.85 53.6 Q107.05 53.25 104.8 55.2 106.45 52.85 106.25 51.5 104.5 51.0 101.8 55.35 101.8 52.4 101.0 51.0 98.65 54.3 97.6 56.25 98.25 55.0 97.95 53.55 96.05 54.65 95.25 55.95 L94.95 56.45 M-1.0 10.7 L-1.1 10.75 -1.6 11.25 M-14.0 5.8 Q-14.65 6.7 -14.35 7.25 L-15.35 5.8 Q-15.85 4.85 -15.35 4.15 -14.85 3.5 -14.05 3.65 -13.25 3.8 -13.25 4.6 -13.25 4.8 -14.0 5.8 M-13.35 9.35 Q-12.1 9.35 -12.35 10.05 -12.55 10.8 -14.85 11.5 L-14.6 10.45 Q-14.15 9.35 -13.35 9.35 M-23.75 28.4 L-23.1 29.05 -22.6 28.8 Q-20.4 27.65 -19.95 26.85 L-19.65 26.15 Q-19.4 24.75 -20.45 22.6 -21.25 21.15 -21.3 20.0 L-21.6 20.0 Q-22.35 20.0 -22.35 19.25 -22.35 18.5 -21.6 18.5 L-21.15 18.6 -21.0 18.2 Q-20.35 16.95 -19.5 16.5 L-19.4 16.45 M-2.85 20.45 L-2.7 20.3 -1.1 20.15 Q-0.4 20.55 -0.45 21.35 -0.55 22.2 -1.35 22.25 L-1.85 21.9 -2.45 22.5 Q-4.1 23.85 -6.05 24.15 M-18.45 44.45 L-16.6 42.7 Q-16.85 43.75 -18.25 46.3 -19.45 48.55 -19.55 50.05 -18.8 48.4 -16.75 46.9 L-13.35 44.55 -14.8 46.85 Q-15.55 48.55 -16.4 49.0 L-15.85 49.7 -14.85 48.65 Q-13.9 50.4 -12.6 50.8 -12.25 50.05 -12.15 47.6 L-10.6 49.35 Q-9.5 47.8 -10.35 44.25 -11.4 40.0 -11.2 38.8 -8.6 43.5 -8.25 47.85 L-8.25 41.85 Q-8.3 38.5 -9.35 35.9 -6.85 41.1 -6.6 42.5 -6.2 44.55 -6.1 48.9 L-4.25 43.8 Q-2.95 40.65 -0.35 40.35 -2.05 41.9 -3.15 44.4 -4.35 47.2 -3.9 49.3 -3.75 48.0 -2.05 47.05 -0.75 46.25 0.5 46.15 L0.85 46.1 0.6 46.4 -0.1 47.25 -0.55 48.15 -0.9 49.55 -0.9 49.9 -0.7 49.6 -0.65 49.55 -0.55 49.5 0.95 48.2 2.1 47.4 Q1.95 47.5 1.9 48.2 L1.8 49.65 Q1.7 51.65 1.95 52.0 2.55 51.65 3.2 50.45 L3.7 49.7 4.55 48.9 5.1 49.7 Q5.55 50.25 6.25 50.4 M6.35 45.85 L6.4 43.7 6.55 43.9 6.6 44.0 6.95 44.7 7.4 45.9 8.3 49.7 8.55 48.3 9.3 46.15 9.35 46.05 10.55 44.2 11.25 43.4 11.4 43.25 11.8 42.9 11.9 42.8 11.95 42.9 12.0 43.4 12.0 44.3 11.6 46.2 11.35 46.85 11.3 47.0 11.3 47.1 11.2 47.4 11.15 47.5 10.85 48.5 10.55 49.7 10.45 50.45 10.4 50.75 10.4 50.9 10.5 50.85 10.8 50.6 11.4 50.15 12.05 49.7 Q12.5 49.35 12.95 49.1 L15.45 47.9 15.6 47.85 15.3 49.65 14.8 51.15 Q16.45 50.9 17.55 49.65 L18.1 48.8 18.65 49.65 19.85 52.25 20.8 50.15 21.85 51.45 22.15 49.65 Q22.4 47.85 22.8 46.7 23.15 45.45 23.6 44.9 L23.7 45.05 23.8 45.3 24.35 46.7 24.85 49.6 25.0 51.85 25.95 49.6 26.3 46.9 26.3 46.7 25.9 43.9 25.9 43.85 25.75 43.15 25.25 41.65 25.15 41.4 26.9 44.25 28.05 46.7 28.15 47.25 28.25 47.7 28.3 48.25 28.45 49.55 28.55 51.6 28.5 49.55 28.35 46.7 28.0 43.95 26.55 40.0 26.05 38.85 25.6 37.8 25.4 37.4 25.2 36.7 25.1 36.35 25.05 36.25 26.0 37.4 26.45 37.95 26.85 38.45 Q29.7 42.4 30.75 46.65 L30.9 47.25 31.0 47.75 31.1 48.4 31.15 48.95 31.25 49.9 31.3 51.05 Q31.3 50.3 31.55 49.55 31.95 48.15 33.2 46.55 L36.65 43.7 34.85 46.45 34.45 47.0 Q33.5 48.4 33.25 49.5 L33.15 50.55 Q33.85 50.05 35.0 49.5 36.3 48.8 38.2 48.05 L38.05 48.3 37.7 48.85 36.55 50.55 35.65 51.8 35.55 51.9 35.7 51.9 36.35 51.7 37.9 51.2 37.95 51.15 38.0 51.1 Q37.55 52.7 38.6 53.3 39.65 53.85 39.95 52.1 40.25 52.35 41.25 52.7 L41.45 50.25 Q41.65 50.9 42.6 51.95 L42.95 50.25 43.1 49.4 43.25 48.7 43.25 48.5 43.35 48.0 Q43.55 47.15 43.9 46.45 L44.6 45.3 44.65 46.95 44.65 48.25 44.65 49.4 44.65 50.3 44.65 50.35 44.65 51.15 44.6 52.55 44.6 52.8 44.7 52.55 45.5 50.4 45.85 49.35 46.05 48.85 46.3 48.05 46.4 47.85 46.4 47.75 Q47.45 45.0 49.8 43.65 49.85 45.45 48.5 48.7 L48.25 49.3 48.25 49.4 47.8 50.45 47.6 51.0 46.65 53.75 46.65 53.85 46.7 53.8 47.1 53.4 47.95 52.1 Q48.55 50.9 49.35 50.45 L49.45 53.35 Q50.1 51.85 51.35 51.3 50.65 51.7 51.3 52.95 52.0 54.35 52.8 54.25 L53.45 52.7 53.45 51.9 Q53.8 53.1 54.95 53.2 L54.8 50.6 54.75 50.35 54.6 49.6 54.45 48.0 54.65 49.6 54.85 50.35 55.6 52.35 56.1 50.3 56.15 49.65 56.15 49.0 Q56.25 46.8 57.0 45.65 L57.0 49.65 57.05 50.25 57.3 53.3 Q59.05 52.2 60.55 50.05 L60.7 49.8 60.6 50.05 60.35 50.7 60.0 52.7 60.0 52.9 60.0 53.1 60.0 53.2 60.05 53.55 Q61.2 51.9 62.15 51.8 62.05 54.05 63.45 54.25 63.8 52.2 64.1 51.45 L66.3 54.4 Q66.45 48.55 66.25 47.3 68.55 49.5 69.05 54.45 68.85 51.65 70.45 50.05 71.35 49.15 74.55 47.4 L72.9 51.0 Q71.8 53.25 72.1 55.0 73.25 51.3 75.55 50.95 75.75 52.3 74.55 54.0 75.55 52.75 76.5 52.5 76.8 53.95 76.1 55.3 77.5 53.35 78.3 53.35 79.1 53.3 80.25 55.25 80.95 54.7 80.95 52.25 81.75 52.35 82.65 53.3 L84.15 54.8 Q84.6 53.7 84.25 51.9 L84.05 50.5 83.95 48.95 84.05 49.05 84.3 49.25 84.45 49.4 84.8 49.9 85.85 51.85 86.7 54.3 86.75 54.4 86.8 54.55 86.85 54.5 87.0 54.25 87.9 51.3 88.05 50.55 88.05 50.5 88.1 50.15 Q88.5 50.15 88.8 50.5 L89.2 51.3 89.35 53.0 89.35 56.3 89.35 56.85 89.5 56.25 89.55 56.1 89.75 55.15 89.95 54.45 90.6 52.45 91.05 51.35 91.45 50.5 91.9 49.75 92.3 49.1 92.9 48.3 93.0 48.2 93.2 47.9 93.4 50.45 93.5 51.3 93.5 51.5 Q93.75 53.65 93.3 54.95 94.15 53.7 95.4 53.6 95.75 54.8 95.25 55.95 M-0.3 18.65 L-0.45 18.75 -2.9 20.2 -3.2 20.35 -2.85 20.45 -4.0 21.4 Q-3.2 20.9 -1.85 21.9 M-38.9 14.05 L-39.6 14.7 -45.15 19.25 Q-41.85 17.5 -37.4 18.05 L-40.1 20.15 -36.95 19.8 -36.85 19.8 -35.0 19.9 -34.2 20.6 -37.05 22.7 Q-36.55 22.2 -35.0 23.9 -33.6 25.45 -33.35 26.1 L-34.85 26.2 -34.35 27.6 -32.75 30.45 Q-31.5 32.15 -29.95 31.75 L-29.75 31.25 -29.5 30.25 -29.45 29.95 -29.45 29.9 -27.3 30.05 -27.3 29.95 Q-27.45 28.1 -26.4 27.7 L-25.95 27.55 Q-24.8 27.45 -23.75 28.4 M-38.9 14.05 L-38.4 13.5 -38.3 13.35 -38.5 13.4 -39.6 13.65 -40.55 14.1 -41.55 14.7 -41.9 14.9 -41.95 14.95 -42.0 15.0 -42.2 15.1 Q-44.55 16.75 -45.95 16.75 L-45.15 14.05 Q-47.45 14.05 -48.75 15.55 -47.8 13.85 -47.75 12.65 -49.8 14.1 -50.05 14.65 L-49.05 11.9 Q-50.45 12.7 -52.25 15.1 -52.8 11.0 -54.05 8.9 L-54.7 8.0 -54.7 8.85 -54.75 10.65 -54.75 10.75 -54.75 10.8 -54.75 10.95 -54.75 11.55 Q-54.7 13.75 -55.15 15.05 -56.5 14.4 -56.9 13.85 -58.0 14.35 -59.5 16.35 -61.05 15.25 -59.8 13.4 -58.1 10.85 -58.1 10.4 -59.75 10.55 -62.5 13.75 -62.75 10.45 -63.1 8.85 L-63.35 8.1 Q-63.8 6.85 -64.65 6.1 -65.25 5.6 -66.0 5.3 L-65.8 5.6 -65.45 6.05 Q-64.85 6.95 -64.5 7.95 -63.55 10.95 -65.15 14.55 -65.75 14.2 -66.3 12.95 -66.9 11.55 -67.4 11.1 L-69.65 14.65 Q-70.15 13.3 -69.75 11.15 -69.3 9.0 -68.4 8.05 -69.95 8.75 -71.05 10.45 -72.2 12.25 -71.9 13.9 -72.95 13.25 -73.35 11.75 -73.9 12.0 -75.15 13.7 L-75.7 14.4 -75.45 13.65 Q-74.65 9.75 -73.55 7.8 L-73.05 7.0 -72.05 5.65 -69.35 2.5 Q-71.6 3.0 -74.55 5.35 L-74.8 5.55 -76.0 6.65 Q-78.0 8.55 -78.8 10.45 -80.4 10.6 -81.55 13.1 L-81.95 14.05 M-21.15 18.6 Q-21.4 19.2 -21.3 20.0 M-38.05 25.75 L-37.9 27.35 Q-37.75 28.35 -35.9 30.9 -34.25 33.2 -34.45 34.35 -34.9 36.5 -36.6 35.4 L-36.8 35.25 -34.9 37.25 -33.7 41.95 -33.65 42.05 Q-32.35 45.25 -30.1 47.95 L-29.75 46.65 -29.7 46.5 Q-29.3 45.3 -28.7 44.45 L-27.9 43.45 -27.8 45.2 -27.8 45.5 -27.8 48.9 -27.85 49.95 -27.85 50.2 -27.85 50.35 -27.55 50.6 -27.1 50.95 -26.65 50.05 -26.6 49.95 -26.5 49.7 -26.2 50.0 -24.45 52.2 -24.25 50.3 -23.8 44.7 -23.6 41.9 -23.55 41.35 -23.45 40.0 Q-22.1 41.75 -22.1 45.5 L-22.05 49.4 -21.8 51.4 -21.7 50.6 -20.95 48.0 -18.45 44.45 M-38.05 25.75 L-39.1 25.5 -40.6 24.9 Q-40.15 26.25 -38.4 28.55 L-37.6 29.55 -38.0 29.6 Q-39.55 29.65 -43.1 28.25 L-42.65 28.8 -42.5 29.0 -42.45 29.15 -42.4 29.2 Q-41.85 30.05 -41.45 31.15 L-40.65 31.25 -36.8 35.25 M-34.85 26.2 L-36.95 25.95 -38.05 25.75 M6.25 49.7 L6.35 45.85 M-78.9 5.5 L-78.65 4.0 -78.45 2.65 -78.4 1.8 -78.5 0.4 -79.55 1.25 M-81.55 13.1 Q-80.15 9.6 -79.5 7.5 L-79.1 6.25 -78.9 5.5 M-41.45 31.15 L-41.4 31.35 -42.4 31.05 -43.45 30.6 M57.4 29.25 L58.15 28.3 58.25 28.15 59.0 27.6 Q59.25 27.55 59.3 27.8 L59.35 27.9 Q59.65 29.3 58.8 30.2 L60.05 29.2 61.25 28.5 Q62.1 28.0 63.15 27.65 L65.1 27.2 Q66.8 27.0 67.3 28.4 L66.85 28.65 66.8 28.7 66.1 29.0 63.8 29.7 Q61.95 30.15 61.15 32.05 61.5 31.25 62.1 31.05 L63.45 31.1 63.85 31.25 Q64.75 31.5 64.5 32.0 L64.45 32.1 64.45 32.15 Q64.25 32.65 62.95 33.0 L63.55 33.15 63.9 33.15 Q64.9 33.4 65.0 33.85 65.15 34.25 64.75 35.45 M57.25 29.25 L56.65 27.3 56.35 26.6 55.4 25.35 54.8 25.0 53.1 24.75 Q51.7 24.9 51.55 26.2 51.45 27.1 52.15 27.6 L53.5 28.55 Q54.35 29.55 55.55 33.1 M57.4 29.25 L57.3 29.5 57.25 29.25 M6.4 11.55 Q6.1 11.95 2.9 12.65 L2.85 12.7 Q2.25 12.85 2.1 13.05 L2.45 12.6 3.25 11.1 Q4.0 10.0 4.95 10.05 L5.9 10.25 Q7.0 10.75 6.4 11.55 M1.8 18.7 L3.0 19.0 4.1 18.75" fill="none" stroke="#000000" stroke-linecap="round" stroke-linejoin="round" stroke-opacity="0.6" stroke-width="1.0"/>
    <path d="M-29.95 23.4 L-29.45 23.35 -29.05 23.4 Q-28.05 23.55 -28.05 24.75 -28.05 26.05 -29.2 26.15 L-29.45 26.15 -29.65 26.15 Q-30.9 26.05 -30.9 24.75 -30.9 23.6 -29.95 23.4 M-32.85 21.0 L-33.0 21.0 Q-33.9 21.0 -33.9 20.1 -33.9 19.55 -33.6 19.35 L-33.0 19.15 Q-32.1 19.15 -32.1 20.1 -32.1 20.95 -32.85 21.0 M-24.05 22.5 L-24.5 22.5 Q-25.9 22.5 -25.9 21.1 -25.9 19.65 -24.5 19.65 L-24.4 19.65 Q-23.1 19.7 -23.1 21.1 -23.1 22.3 -24.05 22.5 M59.5 23.75 Q59.5 25.15 58.1 25.15 56.65 25.15 56.65 23.75 L56.65 23.65 Q56.7 22.35 58.1 22.35 59.5 22.35 59.5 23.75 M50.5 22.75 Q50.5 23.65 49.6 23.65 48.65 23.65 48.65 22.75 48.65 21.85 49.6 21.85 50.5 21.85 50.5 22.75 M50.9 30.0 Q50.9 29.1 51.85 29.1 52.75 29.1 52.75 30.0 52.75 30.9 51.85 30.9 50.9 30.9 50.9 30.0 M12.55 25.9 L41.35 26.85" fill="none" stroke="#000000" stroke-linecap="round" stroke-linejoin="round" stroke-opacity="0.6" stroke-width="1.0"/>
    <path d="M-79.6 1.3 L-79.55 1.25 Q-79.25 -1.9 -84.1 -2.0 L-89.0 -1.5 Q-90.25 -3.8 -94.75 -3.2 L-99.0 -2.15 M-24.4 19.65 Q-25.9 9.45 -30.45 4.1 -32.4 1.75 -34.7 0.65 L-36.65 0.0 M-39.65 10.0 L-38.2 10.35 Q-36.45 11.0 -34.95 12.4 -30.95 16.0 -29.95 23.4 M-29.65 26.15 L-29.65 26.75 M-23.75 28.4 L-24.05 22.5 M-78.4 1.8 L-72.8 1.5 Q-63.95 0.4 -59.65 1.85 M88.65 38.15 L99.75 35.85 Q108.25 33.15 95.35 30.85" fill="none" stroke="#000000" stroke-linecap="round" stroke-linejoin="round" stroke-opacity="0.4" stroke-width="1.0"/>
    <path d="M-25.15 -2.5 L-24.35 -1.95 Q-23.4 -1.05 -22.5 0.85 -20.2 5.95 -19.4 16.45 M-41.9 -0.25 L-39.6 0.2 Q-36.85 1.05 -34.45 3.0 -27.65 8.6 -26.15 21.15 L-25.9 24.25 M55.55 33.1 L50.15 32.35 Q49.0 32.1 47.65 32.35 L45.0 32.75 27.1 32.75 M5.0 35.85 L27.35 36.15 M68.0 44.5 L100.0 44.15" fill="none" stroke="#000000" stroke-linecap="round" stroke-linejoin="round" stroke-opacity="0.4" stroke-width="1.0"/>
  </g>
</svg>
