<?xml version="1.0" encoding="UTF-8" standalone="no"?>
<svg xmlns:xlink="http://www.w3.org/1999/xlink" height="72.85px" width="93.65px" xmlns="http://www.w3.org/2000/svg">
  <g transform="matrix(1.0, 0.0, 0.0, 1.0, 0.0, 0.0)">
    <path d="M84.8 12.25 L87.9 10.15 93.65 18.75 90.55 20.85 84.8 12.25 M86.9 8.6 L83.8 10.7 78.05 2.1 81.15 0.0 86.9 8.6 M85.8 23.95 L80.1 15.4 80.15 15.35 79.1 13.8 79.05 13.8 73.35 5.2 76.45 3.15 89.0 21.85 85.8 23.95 M84.25 25.0 L81.15 27.05 75.45 18.5 78.55 16.4 84.25 25.0 M84.3 47.85 L71.8 66.6 68.65 64.5 81.15 45.75 84.3 47.85 M81.15 72.85 L78.05 70.8 90.55 52.0 93.65 54.1 81.15 72.85 M88.95 50.95 L76.45 69.7 73.35 67.65 85.85 48.9 88.95 50.95 M77.5 14.85 L74.4 16.9 68.65 8.35 71.8 6.25 77.5 14.85 M25.0 8.35 L12.5 27.05 9.4 25.0 21.9 6.25 25.0 8.35 M12.5 0.0 L15.6 2.1 3.15 20.85 0.0 18.75 12.5 0.0 M17.15 3.1 L20.3 5.2 7.8 23.95 4.7 21.85 17.15 3.1 M12.5 45.75 L25.0 64.5 21.9 66.6 9.4 47.85 12.5 45.75 M17.2 69.75 L11.45 61.15 14.6 59.05 20.35 67.65 17.2 69.75 M0.0 54.1 L3.15 52.0 15.65 70.75 12.5 72.85 0.0 54.1 M10.45 59.55 L4.7 50.95 7.8 48.9 13.55 57.5 10.45 59.55" fill="#ffffff" fill-opacity="0.0" fill-rule="evenodd" stroke="none"/>
  </g>
</svg>
