<?xml version="1.0" encoding="UTF-8" standalone="no"?>
<svg xmlns:xlink="http://www.w3.org/1999/xlink" height="135.3px" width="119.8px" xmlns="http://www.w3.org/2000/svg">
  <g transform="matrix(1.0, 0.0, 0.0, 1.0, 69.5, 69.25)">
    <path d="M-68.65 7.1 L-68.45 8.95 -68.6 7.8 -68.65 7.1 M20.55 -35.3 L20.7 -35.4 20.75 -35.45 20.4 -35.2 20.55 -35.3 M49.8 -47.75 L47.65 -49.85 48.15 -49.45 49.8 -47.75 M20.5 -65.85 L19.65 -66.0 19.75 -66.1 20.5 -65.85 M-43.25 -53.75 L-43.55 -53.5 Q-38.7 -57.6 -33.3 -60.5 L-34.1 -60.05 -39.65 -56.45 -40.75 -55.65 -41.4 -55.2 -42.35 -54.45 -43.25 -53.75" fill="#c5c7c9" fill-rule="evenodd" stroke="none"/>
    <path d="M-64.05 -25.75 Q-66.0 -20.85 -67.25 -15.8 L-68.95 -3.05 Q-68.1 -25.4 -54.4 -42.5 L-55.45 -41.1 -60.6 -33.15 -63.05 -28.1 -64.05 -25.75 M-69.0 0.9 L-68.65 7.1 -68.6 7.8 -68.5 8.8 Q-68.95 4.9 -69.0 0.9 M47.65 -49.85 L47.15 -50.3 47.2 -50.35 47.45 -50.1 48.15 -49.45 47.65 -49.85 M36.15 -58.95 L36.15 -58.85 Q31.4 -61.9 26.25 -63.95 L21.65 -65.7 Q29.3 -63.25 36.15 -58.95 M-45.55 -51.85 L-46.2 -51.25 -47.4 -50.15 -45.55 -51.85" fill="#666666" fill-rule="evenodd" stroke="none"/>
    <path d="M36.15 -58.85 L31.7 -61.3 26.25 -63.95 Q31.4 -61.9 36.15 -58.85 M48.25 -49.35 L48.35 -49.25 49.7 -47.9 49.8 -47.8 49.8 -47.75 48.15 -49.45 48.25 -49.35 M49.8 -47.8 L49.8 -47.75 49.8 -47.8 M30.4 62.0 L30.4 62.1 26.25 63.95 30.4 62.0 M-4.55 -66.65 L-4.0 -66.4 -4.5 -66.6 -4.55 -66.65 M-68.45 8.95 L-68.5 8.8 -68.6 7.8 -68.45 8.95 M-21.35 65.8 L-21.35 65.75 -20.5 66.05 -21.35 65.8" fill="#cccecf" fill-rule="evenodd" stroke="none"/>
    <path d="M31.7 -61.3 Q26.4 -64.05 20.5 -65.85 L21.65 -65.7 26.25 -63.95 31.7 -61.3 M-3.8 -68.9 L-4.1 -68.85 -4.15 -68.9 -3.8 -68.9" fill="#adafb1" fill-rule="evenodd" stroke="none"/>
    <path d="M16.95 -27.0 L16.95 -27.15 16.95 -27.05 16.95 -26.9 16.95 -27.05 16.95 -27.0 M19.95 -34.9 L20.55 -35.3 20.4 -35.2 19.95 -34.9 M8.4 28.3 L8.3 28.25 8.4 28.25 8.4 28.3 M27.65 51.25 L27.65 51.2 28.1 52.0 27.7 51.3 27.65 51.25 M-5.45 43.15 L-5.0 42.95 -4.95 42.95 -5.45 43.15 M-11.85 29.8 L-11.85 29.75 -11.85 29.8" fill="#717275" fill-rule="evenodd" stroke="none"/>
    <path d="M-68.0 11.4 L-68.0 11.6 -68.05 11.4 -68.0 11.4 M-68.0 12.3 L-67.9 12.3 -68.0 12.35 -68.0 12.3 M16.95 -27.0 L16.95 -27.05 16.95 -26.9 16.7 -25.6 16.75 -26.0 16.95 -27.0 M-67.45 14.7 L-67.7 13.2 -67.05 16.45 -67.45 14.7" fill="#85878a" fill-rule="evenodd" stroke="none"/>
    <path d="M0.6 24.2 L0.2 24.1 0.55 23.95 0.6 24.2 M-9.3 24.8 L-9.35 24.85 -9.45 24.9 -8.95 24.65 -9.3 24.8 M-21.7 23.2 L-22.2 22.7 -21.65 22.9 -21.55 22.95 -21.7 23.2 M-11.85 29.8 L-11.95 29.55 -11.85 29.75 -11.85 29.8" fill="#8a8c8f" fill-rule="evenodd" stroke="none"/>
    <path d="M-4.65 42.85 L-4.9 42.9 -4.95 42.95 -5.0 42.95 -4.65 42.85" fill="#a0a2a4" fill-rule="evenodd" stroke="none"/>
    <path d="M-3.55 -66.15 L-3.95 -66.15 -4.0 -66.4 -3.55 -66.15 M-47.55 -50.0 L-48.8 -48.8 -50.0 -47.6 -47.9 -49.7 -47.55 -50.0" fill="#989a9d" fill-rule="evenodd" stroke="none"/>
    <path d="M-56.0 -26.55 L-55.45 -26.45 -49.1 -26.3 Q-44.9 -26.25 -43.2 -25.0 -41.95 -24.05 -41.9 -22.35 -41.9 -21.4 -42.25 -19.6 -42.55 -16.6 -37.45 -17.15 -32.7 -17.65 -31.25 -21.75 L-30.1 -25.45 Q-29.25 -27.75 -27.75 -29.2 -24.1 -29.1 -24.1 -25.7 -24.1 -24.45 -25.35 -19.85 L-22.05 -19.4 -18.75 -19.6 Q-16.95 -20.45 -16.55 -22.0 -15.95 -24.15 -15.4 -24.75 -13.75 -26.65 -12.45 -27.3 -10.85 -28.1 -8.4 -27.85 -8.1 -30.2 -11.35 -34.35 -14.4 -38.25 -13.95 -39.6 -12.85 -42.7 -9.8 -41.8 -7.85 -41.2 -3.8 -38.2 0.55 -34.95 2.05 -34.3 4.85 -33.1 5.7 -35.65 7.7 -36.25 10.7 -34.9 12.6 -34.05 14.9 -37.2 17.1 -40.85 18.05 -41.6 19.35 -42.55 23.85 -41.95 23.5 -45.45 26.25 -46.05 L31.8 -45.85 32.95 -44.85 Q33.75 -44.0 34.7 -44.1 36.15 -44.3 37.0 -45.8 38.0 -47.55 38.8 -47.95 L42.2 -49.1 45.5 -49.85 45.7 -49.9 47.15 -50.3 47.65 -49.85 49.8 -47.75 49.55 -43.75 Q47.05 -41.8 44.55 -42.15 39.0 -37.6 35.95 -37.0 35.15 -36.0 33.65 -32.8 32.15 -29.6 30.35 -32.35 L30.15 -32.6 30.5 -33.5 Q31.15 -35.75 31.05 -39.25 29.55 -39.8 27.95 -38.55 L25.45 -36.15 Q23.9 -37.1 20.75 -35.45 L20.7 -35.4 20.55 -35.3 19.95 -34.9 17.95 -33.65 12.95 -28.15 16.95 -27.15 16.95 -27.0 Q15.55 -26.2 14.6 -23.35 13.45 -20.0 12.4 -18.75 10.85 -16.9 6.8 -15.45 2.5 -13.9 2.2 -15.75 1.1 -16.05 -0.95 -15.2 -2.9 -14.45 -3.5 -13.6 -4.3 -12.6 -4.5 -10.65 -4.7 -8.9 -4.4 -7.45 L-2.85 -0.7 Q-2.8 3.15 -7.65 2.35 -7.5 3.95 -8.65 4.65 L-10.55 6.05 Q-11.15 7.0 -11.1 8.85 L-11.1 11.8 -16.3 11.8 Q-17.95 11.6 -16.3 8.0 -19.1 3.4 -24.0 3.55 -28.75 3.7 -31.7 8.0 -31.55 7.65 -31.8 7.25 L-32.65 7.75 -33.65 7.9 -33.6 4.65 Q-33.7 2.7 -34.95 2.15 L-37.15 2.7 -40.15 2.75 Q-40.6 2.5 -40.85 1.75 -41.15 1.0 -41.5 0.8 L-43.05 0.65 -44.55 0.6 -46.15 -0.35 Q-47.2 -1.1 -47.8 -1.25 L-49.25 -1.2 Q-50.4 -1.05 -50.9 -1.2 -51.05 -2.35 -54.1 -4.5 -57.2 -6.65 -58.25 -6.3 -58.0 -4.6 -59.5 -3.15 -61.2 -1.55 -61.35 -0.45 -61.6 1.15 -60.05 2.9 L-57.25 5.5 -58.15 6.15 Q-58.75 6.6 -59.35 6.7 -58.2 6.55 -58.15 8.6 -58.15 10.5 -58.65 11.1 -59.25 11.8 -60.2 12.1 L-61.05 12.2 -63.75 12.05 -67.9 12.3 -68.0 12.3 -68.0 11.6 -68.0 11.4 -68.4 9.1 -68.45 8.95 -68.65 7.1 -69.0 0.9 -69.0 0.65 -69.0 0.45 -69.0 0.4 -69.0 0.0 -68.95 -2.1 -68.95 -3.05 -67.25 -15.8 Q-66.0 -20.85 -64.05 -25.75 -62.25 -24.25 -60.3 -23.9 L-59.3 -23.85 Q-56.35 -23.95 -56.0 -26.55 M0.2 24.1 L-2.05 24.0 Q-2.0 24.6 -2.3 25.45 L-2.7 26.8 -2.8 27.55 -3.05 28.1 Q-3.5 28.55 -4.2 28.55 L-5.85 28.4 -6.75 27.9 -7.3 27.0 -8.25 25.8 -9.3 24.8 -8.95 24.65 -8.9 24.65 -7.75 24.7 -6.45 24.45 -4.35 22.75 Q-3.0 21.5 -2.15 21.4 -0.95 21.25 -0.15 22.4 0.35 23.05 0.55 23.95 L0.2 24.1 M22.5 32.55 L21.05 31.95 Q20.2 31.55 19.95 30.9 L19.15 30.35 18.45 29.65 Q17.45 29.15 16.45 29.3 L15.6 29.75 14.5 29.9 13.7 30.55 Q13.2 30.95 13.05 30.4 11.8 30.15 11.65 29.85 11.45 29.55 11.55 29.15 L11.65 28.55 Q11.5 27.7 10.35 27.7 9.45 27.75 8.65 28.15 L8.4 28.25 8.3 28.25 8.4 28.3 Q7.65 28.15 7.55 27.65 7.45 27.15 8.3 27.25 L8.3 26.45 5.95 26.25 Q4.65 25.95 6.25 25.0 L6.95 24.7 Q8.6 24.35 9.85 25.3 L10.1 25.8 10.5 26.25 11.15 26.3 11.8 26.1 12.95 25.6 14.15 25.4 Q14.65 25.6 15.05 27.25 L17.75 27.35 Q19.1 27.45 19.85 28.5 L20.6 29.9 21.3 30.7 21.45 31.2 21.65 31.65 22.45 32.1 22.55 32.6 22.5 32.55 M-4.65 42.85 L-4.45 42.8 -4.4 42.75 -2.35 42.3 -0.45 41.25 Q0.75 40.45 1.45 40.2 L3.5 39.9 Q4.45 39.7 5.05 38.75 L5.65 37.65 Q5.95 37.2 6.65 36.85 L7.75 36.6 8.9 36.55 Q11.85 36.05 12.45 36.5 13.1 36.95 12.5 38.05 L11.45 39.85 14.15 40.55 Q15.8 40.8 16.75 40.0 17.4 39.45 17.95 37.1 18.15 36.1 18.95 36.2 L19.75 36.5 Q21.55 37.6 21.85 39.1 L21.8 42.25 Q22.9 42.05 23.4 42.6 23.9 43.15 23.25 44.05 23.65 43.5 25.25 46.6 L26.95 50.3 26.95 50.35 27.65 51.25 26.9 52.9 26.1 53.5 25.15 53.95 23.75 55.1 Q23.35 55.4 21.25 56.15 19.85 56.65 19.3 58.0 18.0 58.1 17.2 57.4 L15.85 55.8 Q15.6 55.55 14.95 55.3 L14.1 54.85 13.7 53.8 13.3 52.7 Q12.95 52.35 12.3 52.35 L11.2 52.3 10.1 51.85 8.9 51.65 6.55 51.95 4.15 52.35 1.7 52.5 Q0.2 52.55 -0.7 53.05 L-2.5 53.75 Q-3.3 53.75 -4.1 52.65 -4.5 52.05 -4.5 51.05 L-4.65 49.4 -5.3 48.15 -5.85 46.9 -6.05 45.3 -5.7 43.8 -5.4 43.45 -4.9 42.9 -4.65 42.85 M-11.85 29.8 Q-12.8 30.25 -13.3 30.3 -15.75 30.55 -17.35 28.25 L-18.4 26.2 Q-18.8 25.15 -19.8 24.5 L-21.7 23.2 -21.55 22.95 Q-19.75 23.7 -17.95 25.25 -17.7 25.45 -17.6 25.8 L-16.95 26.25 -15.25 26.65 Q-14.35 26.85 -13.7 27.45 -12.5 28.45 -11.95 29.55 L-11.85 29.8" fill="#ffffff" fill-opacity="0.0" fill-rule="evenodd" stroke="none"/>
    <path d="M47.15 -50.3 L45.7 -49.9 45.5 -49.85 42.2 -49.1 38.8 -47.95 Q38.0 -47.55 37.0 -45.8 36.15 -44.3 34.7 -44.1 33.75 -44.0 32.95 -44.85 L31.8 -45.85 26.25 -46.05 Q23.5 -45.45 23.85 -41.95 19.35 -42.55 18.05 -41.6 17.1 -40.85 14.9 -37.2 12.6 -34.05 10.7 -34.9 7.7 -36.25 5.7 -35.65 4.85 -33.1 2.05 -34.3 0.55 -34.95 -3.8 -38.2 -7.85 -41.2 -9.8 -41.8 -12.85 -42.7 -13.95 -39.6 -14.4 -38.25 -11.35 -34.35 -8.1 -30.2 -8.4 -27.85 -10.85 -28.1 -12.45 -27.3 -13.75 -26.65 -15.4 -24.75 -15.95 -24.15 -16.55 -22.0 -16.95 -20.45 -18.75 -19.6 L-22.05 -19.4 -25.35 -19.85 Q-24.1 -24.45 -24.1 -25.7 -24.1 -29.1 -27.75 -29.2 -29.25 -27.75 -30.1 -25.45 L-31.25 -21.75 Q-32.7 -17.65 -37.45 -17.15 -42.55 -16.6 -42.25 -19.6 -41.9 -21.4 -41.9 -22.35 -41.95 -24.05 -43.2 -25.0 -44.9 -26.25 -49.1 -26.3 L-55.45 -26.45 -56.0 -26.55 -56.0 -27.0 Q-55.8 -31.25 -54.95 -32.25 -53.65 -33.75 -50.1 -33.75 L-44.8 -34.35 Q-44.45 -34.5 -43.8 -35.2 L-42.55 -36.05 -40.85 -36.1 -39.1 -36.05 -35.35 -36.35 Q-33.0 -36.6 -31.6 -37.0 -30.4 -37.35 -29.1 -38.65 L-26.65 -40.4 -22.85 -40.6 Q-20.3 -40.8 -19.95 -42.75 -19.7 -44.15 -22.1 -45.9 L-25.45 -48.8 Q-23.5 -50.55 -20.15 -51.7 -15.95 -53.2 -16.0 -50.15 -15.0 -49.8 -13.9 -50.5 -12.8 -51.1 -12.4 -52.1 -11.85 -53.65 -12.6 -54.2 -13.9 -54.7 -14.65 -55.55 -16.0 -57.0 -15.7 -58.65 L-15.0 -62.35 Q-13.0 -62.6 -9.25 -64.6 -6.3 -66.2 -3.95 -66.15 L-3.55 -66.15 0.45 -64.15 4.45 -64.65 7.95 -59.65 12.45 -60.65 19.65 -66.0 20.5 -65.85 Q26.4 -64.05 31.7 -61.3 L36.15 -58.85 36.15 -58.95 Q41.95 -55.3 47.2 -50.35 L47.15 -50.3 M-67.9 12.3 L-63.75 12.05 -61.05 12.2 -60.2 12.1 Q-59.25 11.8 -58.65 11.1 -58.15 10.5 -58.15 8.6 -58.2 6.55 -59.35 6.7 -58.75 6.6 -58.15 6.15 L-57.25 5.5 -60.05 2.9 Q-61.6 1.15 -61.35 -0.45 -61.2 -1.55 -59.5 -3.15 -58.0 -4.6 -58.25 -6.3 -57.2 -6.65 -54.1 -4.5 -51.05 -2.35 -50.9 -1.2 -50.4 -1.05 -49.25 -1.2 L-47.8 -1.25 Q-47.2 -1.1 -46.15 -0.35 L-44.55 0.6 -43.05 0.65 -41.5 0.8 Q-41.15 1.0 -40.85 1.75 -40.6 2.5 -40.15 2.75 L-37.15 2.7 -34.95 2.15 Q-33.7 2.7 -33.6 4.65 L-33.65 7.9 -32.65 7.75 -31.8 7.25 Q-31.55 7.65 -31.7 8.0 -28.75 3.7 -24.0 3.55 -19.1 3.4 -16.3 8.0 -17.95 11.6 -16.3 11.8 L-11.1 11.8 -11.1 8.85 Q-11.15 7.0 -10.55 6.05 L-8.65 4.65 Q-7.5 3.95 -7.65 2.35 -2.8 3.15 -2.85 -0.7 L-4.4 -7.45 Q-4.7 -8.9 -4.5 -10.65 -4.3 -12.6 -3.5 -13.6 -2.9 -14.45 -0.95 -15.2 1.1 -16.05 2.2 -15.75 2.5 -13.9 6.8 -15.45 10.85 -16.9 12.4 -18.75 13.45 -20.0 14.6 -23.35 15.55 -26.2 16.95 -27.0 L16.75 -26.0 16.7 -25.6 15.6 -19.55 15.45 -17.85 Q15.35 -17.0 14.7 -16.3 14.1 -15.7 12.95 -15.45 11.7 -15.2 11.2 -14.8 10.7 -14.4 10.3 -13.3 9.9 -12.25 9.5 -12.0 L8.0 -11.9 Q7.0 -12.05 6.65 -11.55 6.1 -10.75 7.15 -9.3 8.1 -7.9 7.05 -6.9 L4.6 -6.8 Q3.05 -8.05 2.3 -7.9 L2.1 -10.3 Q1.85 -12.0 1.15 -12.4 0.0 -13.0 -0.9 -11.9 -1.7 -10.9 -1.6 -9.85 L-0.95 -7.3 Q-0.3 -5.55 -0.25 -4.6 L0.0 0.0 Q0.05 0.4 -0.7 1.35 L-1.7 2.65 -2.1 4.2 -2.55 5.65 Q-3.55 7.4 -4.6 7.0 -6.45 6.35 -7.0 6.45 L-6.8 8.85 Q-6.85 10.05 -8.7 10.15 -9.1 11.45 -8.35 13.55 -7.85 15.0 -9.45 16.15 -10.9 17.25 -12.35 17.0 L-15.55 15.85 Q-16.8 16.5 -14.55 19.0 L-12.05 21.35 -12.55 23.85 -14.05 24.85 Q-15.0 25.5 -17.1 22.25 L-19.05 18.85 -20.55 12.35 -23.55 6.35 -26.35 6.65 Q-29.25 7.55 -29.55 10.35 -29.9 13.6 -32.2 16.85 L-32.95 18.05 -34.1 18.8 -35.45 18.5 -36.7 18.0 -36.95 14.55 Q-37.1 12.5 -37.45 11.1 -38.8 7.05 -38.55 6.85 L-41.55 9.35 -45.05 4.35 -49.55 1.85 -54.2 -1.15 Q-56.7 -2.3 -58.55 0.4 L-56.4 1.75 Q-54.9 2.65 -54.55 3.35 L-51.55 8.85 -59.05 17.35 -67.05 16.45 -67.7 13.2 -68.0 12.35 -67.9 12.3 M30.15 -32.6 L30.35 -32.35 Q32.15 -29.6 33.65 -32.8 35.15 -36.0 35.95 -37.0 39.0 -37.6 44.55 -42.15 47.05 -41.8 49.55 -43.75 L49.45 -41.65 43.45 -39.15 41.25 -37.75 39.0 -36.4 Q37.8 -35.55 37.05 -33.6 L35.4 -30.4 33.3 -28.4 32.9 -27.5 32.35 -26.75 Q30.5 -25.6 29.0 -27.95 28.35 -29.0 29.15 -30.75 L30.15 -32.6 M0.2 24.1 L0.6 24.2 0.65 24.5 0.65 24.6 -0.85 24.85 -1.15 26.75 -0.95 27.8 Q-0.75 28.5 -0.9 28.85 -1.1 29.3 -2.55 29.85 L-5.4 30.05 Q-7.0 29.8 -7.7 28.8 L-9.65 25.85 Q-9.8 25.2 -9.45 24.9 L-9.35 24.85 -9.3 24.8 -8.25 25.8 -7.3 27.0 -6.75 27.9 -5.85 28.4 -4.2 28.55 Q-3.5 28.55 -3.05 28.1 L-2.8 27.55 -2.7 26.8 -2.3 25.45 Q-2.0 24.6 -2.05 24.0 L0.2 24.1 M8.65 28.15 Q9.45 27.75 10.35 27.7 11.5 27.7 11.65 28.55 L11.55 29.15 Q11.45 29.55 11.65 29.85 11.8 30.15 13.05 30.4 13.2 30.95 13.7 30.55 L14.5 29.9 15.6 29.75 16.45 29.3 Q17.45 29.15 18.45 29.65 L19.15 30.35 19.95 30.9 Q20.2 31.55 21.05 31.95 L22.5 32.55 22.5 32.85 20.45 32.8 19.95 32.55 19.25 31.75 18.35 31.15 16.8 30.9 15.25 31.25 Q12.6 33.75 12.65 32.75 12.7 32.15 12.2 31.75 L11.25 31.15 Q10.65 30.65 10.6 30.05 L10.35 28.75 Q10.05 28.0 9.55 28.1 L8.65 28.3 8.65 28.15 M-5.4 43.45 L-5.7 43.8 -6.05 45.3 -5.85 46.9 -5.3 48.15 -4.65 49.4 -4.5 51.05 Q-4.5 52.05 -4.1 52.65 -3.3 53.75 -2.5 53.75 L-0.7 53.05 Q0.2 52.55 1.7 52.5 L4.15 52.35 6.55 51.95 8.9 51.65 10.1 51.85 11.2 52.3 12.3 52.35 Q12.95 52.35 13.3 52.7 L13.7 53.8 14.1 54.85 14.95 55.3 Q15.6 55.55 15.85 55.8 L17.2 57.4 Q18.0 58.1 19.3 58.0 19.85 56.65 21.25 56.15 23.35 55.4 23.75 55.1 L25.15 53.95 26.1 53.5 26.9 52.9 27.65 51.25 27.7 51.3 28.1 52.0 28.1 52.1 28.1 52.4 Q27.85 54.0 25.35 56.25 L24.5 56.75 Q23.9 57.0 23.65 57.15 L23.05 58.0 22.4 58.8 Q21.85 59.2 20.25 59.45 L19.95 60.55 19.15 61.15 Q18.45 61.4 17.4 60.9 16.5 60.55 16.15 59.7 15.65 58.6 15.2 58.2 L14.35 57.7 13.55 57.15 13.2 56.5 12.85 55.8 Q11.2 54.1 8.1 54.35 L7.6 54.4 Q5.85 54.65 3.0 55.55 L-0.85 56.65 -2.15 57.4 Q-2.9 57.9 -3.6 57.7 L-4.5 57.25 -5.15 56.5 -5.15 55.75 -5.15 55.0 -5.4 54.7 -5.75 54.4 -6.2 53.6 -6.55 52.8 -6.1 50.3 -5.95 49.25 -6.25 48.25 -6.8 45.65 Q-6.8 44.45 -6.2 43.7 L-6.1 43.6 -5.45 43.15 -5.4 43.45 M-22.2 22.7 L-21.7 23.2 -19.8 24.5 Q-18.8 25.15 -18.4 26.2 L-17.35 28.25 Q-15.75 30.55 -13.3 30.3 -12.8 30.25 -11.85 29.8 -11.3 31.05 -12.4 31.6 L-15.05 31.7 Q-16.7 31.35 -17.45 30.65 L-17.9 29.95 -18.1 29.2 Q-18.45 28.4 -19.45 27.25 -20.7 25.35 -21.45 24.65 L-23.9 23.5 Q-23.75 22.25 -22.2 22.7 M-7.85 32.35 L-3.0 33.3 -1.15 33.4 Q0.25 33.5 0.45 33.95 0.9 35.0 -2.1 34.7 L-5.7 34.1 -8.1 34.3 Q-9.7 34.5 -10.2 33.65 L-10.35 32.85 -10.25 31.9 -9.05 32.0 -7.85 32.35" fill="#000000" fill-opacity="0.101960786" fill-rule="evenodd" stroke="none"/>
    <path d="M-56.0 -26.55 Q-56.35 -23.95 -59.3 -23.85 L-60.3 -23.9 Q-62.25 -24.25 -64.05 -25.75 L-63.05 -28.1 -60.6 -33.15 -55.45 -41.1 -54.4 -42.5 -50.0 -47.6 -48.8 -48.8 -47.55 -50.0 -47.4 -50.15 -46.2 -51.25 -45.55 -51.85 -43.25 -53.75 -42.35 -54.45 -41.4 -55.2 -40.75 -55.65 -39.65 -56.45 -34.1 -60.05 Q-24.1 -65.8 -12.9 -67.85 L-9.3 -68.4 -6.1 -68.75 -6.1 -68.7 -4.55 -66.65 -4.5 -66.6 -4.0 -66.4 -3.95 -66.15 Q-6.3 -66.2 -9.25 -64.6 -13.0 -62.6 -15.0 -62.35 L-15.7 -58.65 Q-16.0 -57.0 -14.65 -55.55 -13.9 -54.7 -12.6 -54.2 -11.85 -53.65 -12.4 -52.1 -12.8 -51.1 -13.9 -50.5 -15.0 -49.8 -16.0 -50.15 -15.95 -53.2 -20.15 -51.7 -23.5 -50.55 -25.45 -48.8 L-22.1 -45.9 Q-19.7 -44.15 -19.95 -42.75 -20.3 -40.8 -22.85 -40.6 L-26.65 -40.4 -29.1 -38.65 Q-30.4 -37.35 -31.6 -37.0 -33.0 -36.6 -35.35 -36.35 L-39.1 -36.05 -40.85 -36.1 -42.55 -36.05 -43.8 -35.2 Q-44.45 -34.5 -44.8 -34.35 L-50.1 -33.75 Q-53.65 -33.75 -54.95 -32.25 -55.8 -31.25 -56.0 -27.0 L-56.0 -26.55 M22.5 32.55 L22.55 32.6 22.5 32.85 22.5 32.55" fill="#000000" fill-opacity="0.15294118" fill-rule="evenodd" stroke="none"/>
    <path d="M8.4 28.25 L8.65 28.15 8.65 28.3 8.4 28.3 8.4 28.25 M22.5 32.85 L22.5 32.55 22.5 32.85 M-4.9 42.9 L-5.4 43.45 -5.45 43.15 -4.95 42.95 -4.9 42.9" fill="#000000" fill-opacity="0.2" fill-rule="evenodd" stroke="none"/>
    <path d="M-68.95 -3.05 L-68.95 -2.1 -69.0 0.0 -69.0 0.4 M-69.0 0.45 L-69.0 0.65 -69.0 0.9 Q-68.95 4.9 -68.5 8.8 L-68.45 8.95 -68.4 9.1 -68.0 12.3 -68.0 12.35 -67.7 13.2 -67.05 16.45 -67.45 14.7 M47.2 -50.35 Q41.95 -55.3 36.15 -58.95 29.3 -63.25 21.65 -65.7 L20.5 -65.85 M47.2 -50.35 L47.45 -50.1 48.0 -49.6 48.25 -49.35 48.35 -49.25 49.7 -47.9 49.8 -47.8 49.8 -47.75 M19.65 -66.0 L19.75 -66.1 M48.15 -49.45 L47.45 -50.1 M-34.1 -60.05 Q-24.1 -65.8 -12.9 -67.85 L-9.3 -68.4 -6.1 -68.75 M-34.1 -60.05 L-39.65 -56.45 -40.75 -55.65 -41.4 -55.2 -42.35 -54.45 -43.25 -53.75 -45.55 -51.85 -47.4 -50.15 -47.55 -50.0 -48.8 -48.8 -50.0 -47.6 -54.4 -42.5 Q-68.1 -25.4 -68.95 -3.05" fill="none" stroke="#231f20" stroke-linecap="round" stroke-linejoin="round" stroke-width="1.0"/>
    <path d="M16.95 -27.0 L16.95 -27.15 12.95 -28.15 17.95 -33.65 19.95 -34.9 20.55 -35.3 20.7 -35.4 20.75 -35.45 Q23.9 -37.1 25.45 -36.15 L27.95 -38.55 Q29.55 -39.8 31.05 -39.25 31.15 -35.75 30.5 -33.5 L30.15 -32.6 29.15 -30.75 Q28.35 -29.0 29.0 -27.95 30.5 -25.6 32.35 -26.75 L32.9 -27.5 33.3 -28.4 35.4 -30.4 37.05 -33.6 Q37.8 -35.55 39.0 -36.4 L41.25 -37.75 43.45 -39.15 49.45 -41.65 49.55 -43.75 49.8 -47.75 49.8 -47.8 M20.5 -65.85 L19.65 -66.0 12.45 -60.65 7.95 -59.65 4.45 -64.65 0.45 -64.15 -3.55 -66.15 -4.0 -66.4 -4.55 -66.65 -6.1 -68.7 M16.95 -27.0 L16.75 -26.0 16.7 -25.6 15.6 -19.55 15.45 -17.85 Q15.35 -17.0 14.7 -16.3 14.1 -15.7 12.95 -15.45 11.7 -15.2 11.2 -14.8 10.7 -14.4 10.3 -13.3 9.9 -12.25 9.5 -12.0 L8.0 -11.9 Q7.0 -12.05 6.65 -11.55 6.1 -10.75 7.15 -9.3 8.1 -7.9 7.05 -6.9 L4.6 -6.8 Q3.05 -8.05 2.3 -7.9 L2.1 -10.3 Q1.85 -12.0 1.15 -12.4 0.0 -13.0 -0.9 -11.9 -1.7 -10.9 -1.6 -9.85 L-0.95 -7.3 Q-0.3 -5.55 -0.25 -4.6 L0.0 0.0 Q0.05 0.4 -0.7 1.35 L-1.7 2.65 -2.1 4.2 -2.55 5.65 Q-3.55 7.4 -4.6 7.0 -6.45 6.35 -7.0 6.45 L-6.8 8.85 Q-6.85 10.05 -8.7 10.15 -9.1 11.45 -8.35 13.55 -7.85 15.0 -9.45 16.15 -10.9 17.25 -12.35 17.0 L-15.55 15.85 Q-16.8 16.5 -14.55 19.0 L-12.05 21.35 -12.55 23.85 -14.05 24.85 Q-15.0 25.5 -17.1 22.25 L-19.05 18.85 -20.55 12.35 -23.55 6.35 -26.35 6.65 Q-29.25 7.55 -29.55 10.35 -29.9 13.6 -32.2 16.85 L-32.95 18.05 -34.1 18.8 -35.45 18.5 -36.7 18.0 -36.95 14.55 Q-37.1 12.5 -37.45 11.1 -38.8 7.05 -38.55 6.85 L-41.55 9.35 -45.05 4.35 -49.55 1.85 -54.2 -1.15 Q-56.7 -2.3 -58.55 0.4 L-56.4 1.75 Q-54.9 2.65 -54.55 3.35 L-51.55 8.85 -59.05 17.35 -67.05 16.45 M-9.3 24.8 L-9.35 24.85 -9.45 24.9 Q-9.8 25.2 -9.65 25.85 L-7.7 28.8 Q-7.0 29.8 -5.4 30.05 L-2.55 29.85 Q-1.1 29.3 -0.9 28.85 -0.75 28.5 -0.95 27.8 L-1.15 26.75 -0.85 24.85 0.65 24.6 0.65 24.5 0.6 24.2 0.55 23.95 Q0.35 23.05 -0.15 22.4 -0.95 21.25 -2.15 21.4 -3.0 21.5 -4.35 22.75 L-6.45 24.45 -7.75 24.7 -8.9 24.65 -8.95 24.65 -9.3 24.8 M22.55 32.6 L22.45 32.1 21.65 31.65 21.45 31.2 21.3 30.7 20.6 29.9 19.85 28.5 Q19.1 27.45 17.75 27.35 L15.05 27.25 Q14.65 25.6 14.15 25.4 L12.95 25.6 11.8 26.1 11.15 26.3 10.5 26.25 10.1 25.8 9.85 25.3 Q8.6 24.35 6.95 24.7 L6.25 25.0 Q4.65 25.95 5.95 26.25 L8.3 26.45 8.3 27.25 Q7.45 27.15 7.55 27.65 7.65 28.15 8.4 28.3 L8.65 28.3 9.55 28.1 Q10.05 28.0 10.35 28.75 L10.6 30.05 Q10.65 30.65 11.25 31.15 L12.2 31.75 Q12.7 32.15 12.65 32.75 12.6 33.75 15.25 31.25 L16.8 30.9 18.35 31.15 19.25 31.75 19.95 32.55 20.45 32.8 22.5 32.85 22.55 32.6 M27.65 51.25 L26.95 50.35 26.95 50.3 25.25 46.6 Q23.65 43.5 23.25 44.05 23.9 43.15 23.4 42.6 22.9 42.05 21.8 42.25 L21.85 39.1 Q21.55 37.6 19.75 36.5 L18.95 36.2 Q18.15 36.1 17.95 37.1 17.4 39.45 16.75 40.0 15.8 40.8 14.15 40.55 L11.45 39.85 12.5 38.05 Q13.1 36.95 12.45 36.5 11.85 36.05 8.9 36.55 L7.75 36.6 6.65 36.85 Q5.95 37.2 5.65 37.65 L5.05 38.75 Q4.45 39.7 3.5 39.9 L1.45 40.2 Q0.75 40.45 -0.45 41.25 L-2.35 42.3 -4.4 42.75 -4.45 42.8 -4.65 42.85 -4.9 42.9 -4.95 42.95 -5.45 43.15 -5.0 42.95 -4.65 42.85 M28.1 52.0 L28.1 52.1 28.1 52.4 Q27.85 54.0 25.35 56.25 L24.5 56.75 Q23.9 57.0 23.65 57.15 L23.05 58.0 22.4 58.8 Q21.85 59.2 20.25 59.45 L19.95 60.55 19.15 61.15 Q18.45 61.4 17.4 60.9 16.5 60.55 16.15 59.7 15.65 58.6 15.2 58.2 L14.35 57.7 13.55 57.15 13.2 56.5 12.85 55.8 Q11.2 54.1 8.1 54.35 L7.6 54.4 Q5.85 54.65 3.0 55.55 L-0.85 56.65 -2.15 57.4 Q-2.9 57.9 -3.6 57.7 L-4.5 57.25 -5.15 56.5 -5.15 55.75 -5.15 55.0 -5.4 54.7 -5.75 54.4 -6.2 53.6 -6.55 52.8 -6.1 50.3 -5.95 49.25 -6.25 48.25 -6.8 45.65 Q-6.8 44.45 -6.2 43.7 L-6.1 43.6 -5.45 43.15 M28.1 52.0 L27.7 51.3 27.65 51.25 M-22.2 22.7 Q-23.75 22.25 -23.9 23.5 L-21.45 24.65 Q-20.7 25.35 -19.45 27.25 -18.45 28.4 -18.1 29.2 L-17.9 29.95 -17.45 30.65 Q-16.7 31.35 -15.05 31.7 L-12.4 31.6 Q-11.3 31.05 -11.85 29.8 L-11.85 29.75 -11.95 29.55 Q-12.5 28.45 -13.7 27.45 -14.35 26.85 -15.25 26.65 L-16.95 26.25 -17.6 25.8 Q-17.7 25.45 -17.95 25.25 -19.75 23.7 -21.55 22.95 L-21.65 22.9 -22.2 22.7 M-7.85 32.35 L-3.0 33.3 -1.15 33.4 Q0.25 33.5 0.45 33.95 0.9 35.0 -2.1 34.7 L-5.7 34.1 -8.1 34.3 Q-9.7 34.5 -10.2 33.65 L-10.35 32.85 -10.25 31.9 -9.05 32.0 -7.85 32.35 M-8.95 24.65 L-9.45 24.9" fill="none" stroke="#000000" stroke-linecap="round" stroke-linejoin="round" stroke-opacity="0.6" stroke-width="1.0"/>
  </g>
</svg>
