<?xml version="1.0" encoding="UTF-8" standalone="no"?>
<svg xmlns:xlink="http://www.w3.org/1999/xlink" height="157.85px" width="26.0px" xmlns="http://www.w3.org/2000/svg">
  <g transform="matrix(1.0, 0.0, 0.0, 1.0, 0.5, 0.5)">
    <path d="M22.5 127.8 Q25.0 140.0 25.0 143.6 25.0 146.45 24.1 150.05 23.3 153.2 22.7 153.9 22.2 154.5 18.25 155.65 14.1 156.85 11.9 156.85 L6.35 156.05 Q3.15 155.25 2.3 154.5 1.45 153.7 0.8 151.15 0.1 148.45 0.15 145.55 0.4 135.95 1.6 131.7 2.15 129.7 3.15 127.7 L3.6 128.55 Q6.4 130.7 10.45 131.8 L16.0 133.05 Q19.7 131.95 22.0 128.6 L22.5 127.8" fill="#ffffff" fill-opacity="0.24705882" fill-rule="evenodd" stroke="none"/>
    <path d="M2.05 20.45 L2.2 19.05 Q2.3 18.0 1.4 14.85 0.35 11.25 0.15 8.75 -0.1 5.2 0.1 2.8 0.25 0.45 0.8 0.2 L22.3 0.0 Q21.2 8.05 21.2 11.0 21.2 12.7 21.7 15.65 L22.3 19.95 Q22.4 21.3 21.8 24.6 L21.4 27.0 Q15.6 26.55 10.45 25.1 5.2 23.65 2.05 20.45 M2.25 38.35 L2.25 38.3 1.55 34.75 Q1.0 31.9 0.95 30.2 0.9 28.5 1.5 24.4 L1.85 21.95 2.95 23.15 Q7.25 26.85 12.2 27.7 L21.2 28.9 22.05 33.3 22.9 37.6 22.05 41.35 21.25 44.65 Q15.5 44.25 10.45 42.8 5.4 41.4 2.25 38.35 M2.05 39.85 L2.95 40.85 Q7.25 44.55 12.2 45.4 L21.45 46.65 22.1 49.4 Q22.9 53.05 22.95 54.9 23.0 56.85 22.5 59.75 L21.95 63.3 Q15.8 62.95 10.45 61.4 4.8 59.85 1.55 56.25 L1.55 56.1 1.3 52.3 0.7 48.2 Q0.5 46.55 1.4 42.75 L2.05 39.85 M22.2 65.3 L22.75 67.45 Q23.7 70.65 23.65 72.2 23.6 73.75 22.55 76.75 21.55 79.7 21.55 80.35 L21.7 81.3 Q15.7 80.9 10.45 79.4 4.75 77.85 1.55 74.2 L1.65 72.3 1.0 69.7 Q0.3 67.5 0.2 66.2 0.1 64.9 0.8 61.2 L1.4 57.8 2.95 59.45 Q7.25 63.15 12.2 64.0 L22.2 65.3 M1.4 75.75 L2.95 77.45 Q7.25 81.15 12.2 82.0 L22.05 83.3 22.35 84.7 Q23.2 88.45 23.3 90.2 23.4 92.15 22.85 94.3 L22.0 97.15 Q21.9 97.5 22.1 99.0 15.9 98.65 10.45 97.1 5.05 95.6 1.85 92.25 L1.9 91.6 1.3 87.4 Q0.65 84.0 0.7 82.55 L1.25 76.85 1.4 75.75 M2.1 112.2 L2.4 109.75 1.55 105.65 Q0.65 102.15 0.75 100.7 L1.35 95.85 1.65 93.75 2.95 95.15 Q7.25 98.85 12.2 99.7 L22.35 101.0 22.55 102.6 Q23.3 107.6 23.2 109.0 23.1 110.4 22.4 112.7 21.7 114.85 21.7 115.7 21.7 116.55 22.35 118.75 16.0 118.4 10.45 116.8 5.25 115.35 2.1 112.2 M3.15 127.7 L2.8 127.05 Q1.8 124.95 1.2 122.45 L0.85 120.35 1.6 115.6 1.9 113.7 2.95 114.85 Q7.25 118.55 12.2 119.4 L23.0 120.8 24.0 123.75 Q23.7 125.75 22.5 127.8 L22.0 128.6 Q19.7 131.95 16.0 133.05 L10.45 131.8 Q6.4 130.7 3.6 128.55 L3.15 127.7" fill="#ffffff" fill-opacity="0.0" fill-rule="evenodd" stroke="none"/>
    <path d="M2.05 20.45 L2.2 19.05 Q2.3 18.0 1.4 14.85 0.35 11.25 0.15 8.75 -0.1 5.2 0.1 2.8 0.25 0.45 0.8 0.2 L22.3 0.0 Q21.2 8.05 21.2 11.0 21.2 12.7 21.7 15.65 L22.3 19.95 Q22.4 21.3 21.8 24.6 L21.4 27.0 M2.25 38.35 L2.25 38.3 1.55 34.75 Q1.0 31.9 0.95 30.2 0.9 28.5 1.5 24.4 L1.85 21.95 M21.2 28.9 L22.05 33.3 22.9 37.6 22.05 41.35 21.25 44.65 M21.45 46.65 L22.1 49.4 Q22.9 53.05 22.95 54.9 23.0 56.85 22.5 59.75 L21.95 63.3 M1.55 56.25 L1.55 56.1 1.3 52.3 0.7 48.2 Q0.5 46.55 1.4 42.75 L2.05 39.85 M22.2 65.3 L22.75 67.45 Q23.7 70.65 23.65 72.2 23.6 73.75 22.55 76.75 21.55 79.7 21.55 80.35 L21.7 81.3 M1.55 74.2 L1.65 72.3 1.0 69.7 Q0.3 67.5 0.2 66.2 0.1 64.9 0.8 61.2 L1.4 57.8 M22.05 83.3 L22.35 84.7 Q23.2 88.45 23.3 90.2 23.4 92.15 22.85 94.3 L22.0 97.15 Q21.9 97.5 22.1 99.0 M1.85 92.25 L1.9 91.6 1.3 87.4 Q0.65 84.0 0.7 82.55 L1.25 76.85 1.4 75.75 M1.65 93.75 L1.35 95.85 0.75 100.7 Q0.65 102.15 1.55 105.65 L2.4 109.75 2.1 112.2 M22.35 118.75 Q21.7 116.55 21.7 115.7 21.7 114.85 22.4 112.7 23.1 110.4 23.2 109.0 23.3 107.6 22.55 102.6 L22.35 101.0 M3.15 127.7 L2.8 127.05 Q1.8 124.95 1.2 122.45 L0.85 120.35 1.6 115.6 1.9 113.7 M23.0 120.8 L24.0 123.75 Q23.7 125.75 22.5 127.8 25.0 140.0 25.0 143.6 25.0 146.45 24.1 150.05 23.3 153.2 22.7 153.9 22.2 154.5 18.25 155.65 14.1 156.85 11.9 156.85 L6.35 156.05 Q3.15 155.25 2.3 154.5 1.45 153.7 0.8 151.15 0.1 148.45 0.15 145.55 0.4 135.95 1.6 131.7 2.15 129.7 3.15 127.7 L3.6 128.55" fill="none" stroke="#000000" stroke-linecap="round" stroke-linejoin="round" stroke-width="1.0"/>
    <path d="M16.0 133.05 Q19.7 131.95 22.0 128.6 L22.5 127.8" fill="none" stroke="#000000" stroke-linecap="round" stroke-linejoin="round" stroke-opacity="0.6" stroke-width="1.0"/>
  </g>
</svg>
