<?xml version="1.0" encoding="UTF-8" standalone="no"?>
<svg xmlns:xlink="http://www.w3.org/1999/xlink" height="90.0px" width="135.0px" xmlns="http://www.w3.org/2000/svg">
  <g transform="matrix(1.0, 0.0, 0.0, 1.0, 0.0, 0.0)">
    <path d="M61.35 0.0 L135.0 0.0 135.0 7.0 61.35 7.0 61.35 0.0 M135.0 13.85 L135.0 20.85 61.35 20.85 61.35 13.85 135.0 13.85 M135.0 41.45 L135.0 48.45 61.35 48.45 61.35 41.45 135.0 41.45 M135.0 27.7 L135.0 34.7 61.35 34.7 61.35 27.7 135.0 27.7 M135.0 55.35 L135.0 62.35 0.0 62.35 0.0 55.35 135.0 55.35 M135.0 69.15 L135.0 76.15 0.0 76.15 0.0 69.15 135.0 69.15 M135.0 83.05 L135.0 90.0 0.0 90.0 0.0 83.05 135.0 83.05" fill="#ffffff" fill-opacity="0.0" fill-rule="evenodd" stroke="none"/>
  </g>
</svg>
