<?xml version="1.0" encoding="UTF-8" standalone="no"?>
<svg xmlns:xlink="http://www.w3.org/1999/xlink" height="14.75px" width="9.0px" xmlns="http://www.w3.org/2000/svg">
  <g transform="matrix(1.0, 0.0, 0.0, 1.0, -1.0, 6.2)">
    <path d="M4.55 -2.35 L4.15 -3.5 Q3.85 -4.5 3.45 -4.7 L2.35 -5.0 Q1.7 -4.95 1.55 -4.25 1.35 -3.55 1.75 -2.5 2.1 -1.5 2.4 -1.5 L2.7 -1.45 3.0 -1.25 M8.6 -4.1 L8.85 -3.3 8.85 -2.55 8.8 -1.8 8.4 -2.15 7.75 -2.9 7.2 -3.45 7.0 -3.7 6.9 -4.65 6.65 -5.4 6.5 -5.65 6.8 -5.7 7.35 -5.4 8.05 -4.9 8.6 -4.1" fill="none" stroke="#000000" stroke-linecap="round" stroke-linejoin="round" stroke-width="1.0"/>
    <path d="M9.75 1.85 L9.55 1.85 9.35 0.1 9.45 0.1 9.7 0.3 9.8 0.9 9.95 1.55 9.75 1.85 M5.5 1.4 Q5.45 1.0 5.7 0.8 L6.35 0.7 7.1 1.15 7.45 1.95 7.2 2.6 6.55 2.7 Q6.15 2.6 5.85 2.2 L5.5 1.4" fill="#ffffff" fill-rule="evenodd" stroke="none"/>
    <path d="M9.55 0.4 L9.8 0.55 10.0 0.9 9.95 1.35 9.75 1.55 9.6 1.55 9.5 0.45 9.55 0.4 M5.85 1.5 Q5.85 1.25 6.0 1.15 L6.4 1.05 6.85 1.35 7.05 1.85 6.95 2.25 6.5 2.3 6.1 2.0 5.85 1.5" fill="#000000" fill-rule="evenodd" stroke="none"/>
    <path d="M9.85 0.7 L9.9 0.85 9.85 0.95 9.75 0.95 9.65 0.95 9.6 0.85 9.65 0.7 9.75 0.7 9.85 0.7 M6.25 1.45 L6.3 1.3 6.4 1.25 6.55 1.3 6.6 1.45 6.55 1.55 6.4 1.6 6.3 1.55 6.25 1.45" fill="#ffffff" fill-rule="evenodd" stroke="none"/>
    <path d="M1.65 6.7 Q5.55 4.7 8.35 4.8 6.0 4.2 3.4 4.9 M8.85 4.85 L8.35 4.8 M9.3 5.5 Q8.85 5.65 8.25 7.2 M9.1 5.25 Q7.35 5.3 4.95 8.05" fill="none" stroke="#000000" stroke-linecap="round" stroke-linejoin="round" stroke-opacity="0.101960786" stroke-width="1.0"/>
  </g>
</svg>
