<?xml version="1.0" encoding="UTF-8" standalone="no"?>
<svg xmlns:xlink="http://www.w3.org/1999/xlink" height="139.0px" width="153.45px" xmlns="http://www.w3.org/2000/svg">
  <g transform="matrix(1.0, 0.0, 0.0, 1.0, 76.7, 69.5)">
    <path d="M5.75 -53.85 L5.9 -53.9 11.15 -53.7 Q13.15 -53.0 14.75 -51.65 L15.75 -50.75 15.95 -50.55 16.45 -47.65 10.25 -45.85 8.35 -44.8 Q0.85 -40.1 4.1 -30.65 L2.7 -30.75 1.5 -30.8 -2.75 -30.65 Q-5.6 -30.85 -6.55 -32.2 -7.9 -34.05 -6.65 -36.15 -5.6 -38.0 -3.5 -38.95 -1.6 -39.5 -0.7 -39.95 L0.75 -40.7 1.1 -42.25 1.7 -45.65 Q2.05 -47.55 2.75 -49.0 L3.9 -51.75 Q4.65 -53.35 5.75 -53.85 M9.25 -57.05 Q11.4 -58.05 14.15 -58.45 L20.1 -58.1 25.4 -56.65 Q28.55 -55.8 30.25 -54.15 31.45 -52.95 32.4 -52.7 L35.3 -52.3 Q38.85 -51.85 40.35 -49.0 41.7 -46.4 42.6 -42.7 43.6 -38.65 43.35 -36.0 42.95 -32.0 40.7 -28.9 38.7 -26.2 35.05 -23.95 L28.75 -20.05 Q25.05 -17.95 21.9 -17.15 L14.35 -15.3 Q9.85 -14.1 7.15 -12.45 L3.5 -9.2 Q1.35 -7.2 -0.35 -6.95 -1.4 -5.0 -2.45 -2.05 -4.4 3.3 -4.05 5.95 L-4.85 4.85 -2.95 7.5 Q-4.55 6.4 -7.55 4.7 L-11.85 2.15 -20.25 -3.35 Q-24.9 -6.7 -27.75 -10.05 -31.95 -15.05 -32.7 -21.9 -33.4 -28.5 -30.8 -34.7 -29.3 -38.35 -24.75 -43.05 -19.7 -48.25 -15.15 -49.9 L-14.4 -48.95 Q-19.45 -46.6 -21.85 -39.85 -22.8 -37.3 -23.3 -34.0 -23.7 -31.5 -23.7 -29.85 L-23.65 -27.6 -9.45 -12.8 -7.7 -12.7 Q-7.2 -12.7 -4.95 -13.65 L-2.2 -14.65 0.2 -13.5 Q2.25 -12.5 5.95 -12.9 17.05 -17.8 22.2 -22.75 27.65 -28.0 27.65 -34.4 27.65 -39.45 22.75 -46.65 17.25 -54.8 10.3 -56.7 L9.95 -56.75 9.25 -57.05 M4.25 34.45 L2.35 31.7 -1.5 27.5 -6.4 22.55 -11.3 17.85 -15.35 13.95 Q-17.85 11.55 -19.6 10.3 -21.65 8.85 -25.65 7.35 -30.15 5.7 -31.7 4.8 L-37.75 0.9 Q-41.05 -1.8 -42.2 -4.8 L-43.05 -7.25 -45.5 -8.2 Q-47.45 -8.9 -50.2 -10.85 L-55.0 -13.2 Q-58.15 -14.65 -59.0 -16.3 -60.35 -18.95 -59.25 -22.9 -58.2 -26.55 -55.65 -29.6 L-54.75 -29.65 -52.9 -29.65 Q-53.8 -21.1 -48.1 -15.6 -44.0 -11.65 -36.6 -9.45 -31.8 -8.0 -24.2 -1.2 -16.7 5.45 -9.3 14.75 -5.45 19.35 -0.9 26.2 2.9 31.85 4.25 34.45 M7.3 42.3 L4.3 39.5 Q2.0 37.55 -0.6 37.3 L-6.05 37.95 Q-9.6 38.1 -9.45 34.95 L-13.7 37.0 Q-16.25 37.85 -18.0 36.4 -18.6 35.9 -19.75 31.55 -20.9 27.35 -20.7 27.3 -24.75 29.0 -26.55 29.35 -29.55 29.95 -32.4 27.75 -34.65 25.95 -35.9 23.35 L-37.7 18.4 Q-37.05 20.45 -42.55 18.4 -44.75 16.8 -46.3 12.1 -47.3 9.1 -47.25 6.0 -46.85 10.25 -45.7 12.35 -44.25 15.0 -41.2 15.0 -39.3 15.0 -36.55 14.0 -35.15 19.25 -31.45 21.55 -28.9 23.1 -25.7 23.1 -23.25 23.1 -21.55 22.15 -18.55 20.55 -16.9 20.0 L-17.3 22.1 -17.7 24.95 Q-17.7 27.25 -16.65 29.15 -15.45 31.35 -13.55 31.35 L-9.7 30.8 -8.2 30.0 Q-6.85 31.55 -4.5 32.45 L-0.3 33.9 Q5.05 35.95 7.3 42.3 M42.5 34.1 Q43.65 30.95 43.55 27.45 43.45 23.2 41.35 21.1 40.1 19.85 39.25 20.3 38.15 21.25 36.95 21.6 L33.55 21.85 Q31.3 21.6 30.3 21.9 29.5 22.1 27.2 23.95 25.4 25.4 23.45 25.0 22.55 24.85 21.2 23.8 L19.0 22.15 Q17.15 21.0 14.9 20.6 L10.5 20.7 Q9.55 21.0 7.2 22.75 L7.2 22.8 5.25 18.85 Q7.25 14.65 10.55 13.2 12.25 12.45 14.85 12.45 L29.4 13.65 Q33.25 13.65 35.4 12.4 37.7 11.05 38.45 8.0 40.25 9.35 43.1 10.55 45.95 11.8 47.3 11.8 51.45 11.8 53.15 7.9 L54.35 5.0 Q55.1 3.55 56.25 3.2 59.65 2.2 63.0 0.7 67.05 -1.1 68.4 -2.55 70.8 7.35 67.35 19.35 64.15 30.7 56.5 41.3 48.8 51.95 38.85 58.9 28.25 66.25 17.6 67.6 L21.15 64.7 Q27.3 59.65 30.9 53.7 L37.2 44.3 Q40.9 38.7 42.5 34.1" fill="#000000" fill-opacity="0.09803922" fill-rule="evenodd" stroke="none"/>
    <path d="M5.6 36.95 L8.15 41.95 6.3 38.45 5.6 36.95" fill="#0e0e0e" fill-rule="evenodd" stroke="none"/>
    <path d="M5.3 -58.0 Q6.8 -64.25 13.05 -67.05 17.4 -69.0 23.1 -69.0 26.45 -69.0 28.85 -64.6 30.5 -61.6 30.65 -59.8 30.55 -59.1 31.85 -59.55 L34.35 -60.6 37.35 -61.35 40.2 -61.85 Q42.1 -61.85 43.95 -60.5 46.5 -58.6 46.8 -55.0 47.05 -52.2 48.5 -51.7 L50.55 -51.1 Q51.6 -50.0 52.05 -49.0 52.9 -47.1 53.0 -43.95 52.3 -31.05 46.85 -23.7 40.95 -15.75 28.3 -12.8 20.9 -10.45 13.7 -6.75 -0.6 0.6 -2.45 8.15 L-4.05 5.95 Q-4.4 3.3 -2.45 -2.05 -1.4 -5.0 -0.35 -6.95 L0.75 -8.8 5.95 -12.9 Q17.05 -17.8 22.2 -22.75 27.65 -28.0 27.65 -34.4 27.65 -39.45 22.75 -46.65 17.25 -54.8 10.3 -56.7 L9.95 -56.75 9.25 -57.05 5.3 -58.0 9.25 -57.05 9.95 -56.75 10.3 -56.7 Q17.25 -54.8 22.75 -46.65 27.65 -39.45 27.65 -34.4 27.65 -28.0 22.2 -22.75 17.05 -17.8 5.95 -12.9 L0.75 -8.8 -0.35 -6.95 Q-1.4 -5.0 -2.45 -2.05 -4.4 3.3 -4.05 5.95 L-2.45 8.15 Q-0.6 0.6 13.7 -6.75 20.9 -10.45 28.3 -12.8 40.95 -15.75 46.85 -23.7 52.3 -31.05 53.0 -43.95 L54.2 -43.3 57.75 -44.7 59.2 -44.95 Q61.35 -44.95 62.7 -43.7 L65.45 -41.0 Q66.1 -40.55 69.6 -39.65 72.8 -38.35 72.8 -35.65 72.8 -35.1 71.9 -33.15 70.85 -30.9 69.8 -29.65 74.0 -28.1 75.55 -24.55 L76.25 -21.2 Q76.25 -16.55 68.45 -12.35 70.05 -11.45 70.2 -7.65 70.2 -6.45 69.5 -4.7 L68.4 -2.55 Q70.8 7.35 67.35 19.35 64.15 30.7 56.5 41.3 48.8 51.95 38.85 58.9 28.25 66.25 17.6 67.6 L10.7 68.4 4.8 69.0 Q-20.9 69.0 -39.05 50.85 -57.2 32.75 -57.2 7.0 -57.2 2.8 -56.1 -4.6 L-57.9 -6.2 Q-59.35 -7.65 -59.9 -7.65 -60.4 -7.65 -61.7 -7.05 -63.05 -6.5 -63.55 -6.5 -66.05 -6.5 -67.35 -7.8 -68.8 -9.2 -68.55 -12.0 -70.85 -10.9 -72.15 -10.9 L-74.25 -11.3 Q-76.2 -12.3 -76.2 -15.35 -76.2 -20.45 -70.75 -24.65 -64.6 -29.4 -54.75 -29.65 L-52.9 -29.65 Q-51.05 -41.35 -42.35 -41.35 L-39.2 -41.0 Q-40.55 -45.15 -38.4 -47.3 -36.5 -49.25 -32.25 -49.25 L-30.1 -49.4 Q-28.55 -49.75 -27.95 -51.05 -26.95 -53.05 -25.3 -54.25 -23.9 -55.25 -22.85 -55.25 -22.25 -55.25 -19.75 -53.75 -17.0 -52.05 -15.15 -49.9 L-14.4 -48.95 Q-11.3 -50.55 -6.75 -52.2 L-3.25 -56.2 Q-0.95 -57.75 5.3 -58.0 M10.3 -56.7 Q12.45 -56.05 14.55 -53.3 16.9 -50.2 16.45 -47.65 16.9 -50.2 14.55 -53.3 12.45 -56.05 10.3 -56.7 M-6.75 -52.2 Q-7.35 -49.8 -7.35 -47.85 L-6.85 -45.65 -6.2 -43.0 -8.6 -43.3 Q-11.6 -43.35 -13.25 -40.95 -14.55 -39.1 -14.55 -37.0 -14.55 -32.25 -7.2 -30.05 -0.5 -28.1 4.45 -29.65 11.9 -29.65 17.2 -32.95 22.45 -36.3 22.45 -41.0 22.45 -36.3 17.2 -32.95 11.9 -29.65 4.45 -29.65 -0.5 -28.1 -7.2 -30.05 -14.55 -32.25 -14.55 -37.0 -14.55 -39.1 -13.25 -40.95 -11.6 -43.35 -8.6 -43.3 L-6.2 -43.0 -6.85 -45.65 -7.35 -47.85 Q-7.35 -49.8 -6.75 -52.2 M5.25 18.85 L7.2 22.8 Q8.65 26.1 11.15 38.15 14.0 51.6 13.65 57.55 L13.45 56.55 13.45 57.0 11.3 50.3 9.15 44.4 8.15 41.95 9.15 44.4 11.3 50.3 13.45 57.0 13.45 56.55 13.65 57.55 Q14.0 51.6 11.15 38.15 8.65 26.1 7.2 22.8 L5.25 18.85 4.95 18.35 Q7.0 13.6 9.65 11.5 11.9 9.7 16.4 8.5 L27.0 5.9 Q35.05 3.7 43.35 0.15 54.55 -4.6 59.55 -14.75 62.85 -21.4 62.85 -28.25 62.85 -33.4 60.8 -37.05 58.7 -40.85 54.2 -43.3 58.7 -40.85 60.8 -37.05 62.85 -33.4 62.85 -28.25 62.85 -21.4 59.55 -14.75 54.55 -4.6 43.35 0.15 35.05 3.7 27.0 5.9 L16.4 8.5 Q11.9 9.7 9.65 11.5 7.0 13.6 4.95 18.35 L5.25 18.85 Q7.25 14.65 10.55 13.2 12.25 12.45 14.85 12.45 L29.4 13.65 Q33.25 13.65 35.4 12.4 37.7 11.05 38.45 8.0 40.25 9.35 43.1 10.55 45.95 11.8 47.3 11.8 51.45 11.8 53.15 7.9 L54.35 5.0 Q55.1 3.55 56.25 3.2 59.65 2.2 63.0 0.7 67.05 -1.1 68.4 -2.55 67.05 -1.1 63.0 0.7 59.65 2.2 56.25 3.2 55.1 3.55 54.35 5.0 L53.15 7.9 Q51.45 11.8 47.3 11.8 45.95 11.8 43.1 10.55 40.25 9.35 38.45 8.0 37.7 11.05 35.4 12.4 33.25 13.65 29.4 13.65 L14.85 12.45 Q12.25 12.45 10.55 13.2 7.25 14.65 5.25 18.85 M5.95 -12.9 Q2.25 -12.5 0.2 -13.5 L-2.2 -14.65 -4.95 -13.65 Q-7.2 -12.7 -7.7 -12.7 L-9.45 -12.8 -23.65 -27.6 -23.7 -29.85 Q-23.7 -31.5 -23.3 -34.0 -22.8 -37.3 -21.85 -39.85 -19.45 -46.6 -14.4 -48.95 -19.45 -46.6 -21.85 -39.85 -22.8 -37.3 -23.3 -34.0 -23.7 -31.5 -23.7 -29.85 L-23.65 -27.6 -9.45 -12.8 -7.7 -12.7 Q-7.2 -12.7 -4.95 -13.65 L-2.2 -14.65 0.2 -13.5 Q2.25 -12.5 5.95 -12.9 M8.15 41.95 L5.6 36.95 6.3 38.45 8.15 41.95 M-2.45 8.15 L4.95 18.35 -2.45 8.15 M-23.65 -27.6 L-4.85 4.85 -4.05 5.95 -4.85 4.85 -23.65 -27.6 M11.3 50.3 L7.3 42.3 Q5.05 35.95 -0.3 33.9 L-4.5 32.45 Q-6.85 31.55 -8.2 30.0 L-9.7 30.8 -13.55 31.35 Q-15.45 31.35 -16.65 29.15 -17.7 27.25 -17.7 24.95 L-17.3 22.1 -16.9 20.0 Q-18.55 20.55 -21.55 22.15 -23.25 23.1 -25.7 23.1 -28.9 23.1 -31.45 21.55 -35.15 19.25 -36.55 14.0 -39.3 15.0 -41.2 15.0 -44.25 15.0 -45.7 12.35 -46.85 10.25 -47.25 6.0 -49.8 4.95 -51.1 3.1 -52.0 1.85 -52.0 1.0 -51.25 -2.7 -50.0 -5.0 L-49.55 -5.65 -52.7 -4.95 -56.1 -4.6 -52.7 -4.95 -49.55 -5.65 -50.0 -5.0 Q-51.25 -2.7 -52.0 1.0 -52.0 1.85 -51.1 3.1 -49.8 4.95 -47.25 6.0 -46.85 10.25 -45.7 12.35 -44.25 15.0 -41.2 15.0 -39.3 15.0 -36.55 14.0 -35.15 19.25 -31.45 21.55 -28.9 23.1 -25.7 23.1 -23.25 23.1 -21.55 22.15 -18.55 20.55 -16.9 20.0 L-17.3 22.1 -17.7 24.95 Q-17.7 27.25 -16.65 29.15 -15.45 31.35 -13.55 31.35 L-9.7 30.8 -8.2 30.0 Q-6.85 31.55 -4.5 32.45 L-0.3 33.9 Q5.05 35.95 7.3 42.3 L11.3 50.3 M-52.9 -29.65 Q-53.8 -21.1 -48.1 -15.6 -44.0 -11.65 -36.6 -9.45 -31.8 -8.0 -24.2 -1.2 -16.7 5.45 -9.3 14.75 -5.45 19.35 -0.9 26.2 2.9 31.85 4.25 34.45 L5.6 36.95 4.25 34.45 Q2.9 31.85 -0.9 26.2 -5.45 19.35 -9.3 14.75 -16.7 5.45 -24.2 -1.2 -31.8 -8.0 -36.6 -9.45 -44.0 -11.65 -48.1 -15.6 -53.8 -21.1 -52.9 -29.65" fill="#ffffff" fill-opacity="0.0" fill-rule="evenodd" stroke="none"/>
    <path d="M22.45 -41.0 Q22.45 -36.3 17.2 -32.95 11.9 -29.65 4.45 -29.65 -0.5 -28.1 -7.2 -30.05 -14.55 -32.25 -14.55 -37.0 -14.55 -39.1 -13.25 -40.95 -11.6 -43.35 -8.6 -43.3 L-6.2 -43.0 -6.85 -45.65 -7.35 -47.85 Q-7.35 -49.8 -6.75 -52.2" fill="none" stroke="#000000" stroke-linecap="round" stroke-linejoin="miter-clip" stroke-miterlimit="4.0" stroke-opacity="0.4" stroke-width="1.0"/>
    <path d="M53.0 -43.95 Q52.9 -47.1 52.05 -49.0 51.6 -50.0 50.55 -51.1 L48.5 -51.7 Q47.05 -52.2 46.8 -55.0 46.5 -58.6 43.95 -60.5 42.1 -61.85 40.2 -61.85 L37.35 -61.35 34.35 -60.6 31.85 -59.55 Q30.55 -59.1 30.65 -59.8 30.5 -61.6 28.85 -64.6 26.45 -69.0 23.1 -69.0 17.4 -69.0 13.05 -67.05 6.8 -64.25 5.3 -58.0 -0.95 -57.75 -3.25 -56.2 L-6.75 -52.2 Q-11.3 -50.55 -14.4 -48.95 L-15.15 -49.9 Q-17.0 -52.05 -19.75 -53.75 -22.25 -55.25 -22.85 -55.25 -23.9 -55.25 -25.3 -54.25 -26.95 -53.05 -27.95 -51.05 -28.55 -49.75 -30.1 -49.4 L-32.25 -49.25 Q-36.5 -49.25 -38.4 -47.3 -40.55 -45.15 -39.2 -41.0 L-42.35 -41.35 Q-51.05 -41.35 -52.9 -29.65 L-54.75 -29.65 Q-64.6 -29.4 -70.75 -24.65 -76.2 -20.45 -76.2 -15.35 -76.2 -12.3 -74.25 -11.3 L-72.15 -10.9 Q-70.85 -10.9 -68.55 -12.0 -68.8 -9.2 -67.35 -7.8 -66.05 -6.5 -63.55 -6.5 -63.05 -6.5 -61.7 -7.05 -60.4 -7.65 -59.9 -7.65 -59.35 -7.65 -57.9 -6.2 L-56.1 -4.6 Q-57.2 2.8 -57.2 7.0 -57.2 32.75 -39.05 50.85 -20.9 69.0 4.8 69.0 L10.7 68.4 17.6 67.6 Q28.25 66.25 38.85 58.9 48.8 51.95 56.5 41.3 64.15 30.7 67.35 19.35 70.8 7.35 68.4 -2.55 L69.5 -4.7 Q70.2 -6.45 70.2 -7.65 70.05 -11.45 68.45 -12.35 76.25 -16.55 76.25 -21.2 L75.55 -24.55 Q74.0 -28.1 69.8 -29.65 70.85 -30.9 71.9 -33.15 72.8 -35.1 72.8 -35.65 72.8 -38.35 69.6 -39.65 66.1 -40.55 65.45 -41.0 L62.7 -43.7 Q61.35 -44.95 59.2 -44.95 L57.75 -44.7 54.2 -43.3 53.0 -43.95" fill="none" stroke="#000000" stroke-linecap="round" stroke-linejoin="miter-clip" stroke-miterlimit="4.0" stroke-opacity="0.6" stroke-width="1.0"/>
    <path d="M5.3 -58.0 L9.25 -57.05 9.95 -56.75 10.3 -56.7 Q17.25 -54.8 22.75 -46.65 27.65 -39.45 27.65 -34.4 27.65 -28.0 22.2 -22.75 17.05 -17.8 5.95 -12.9 L0.75 -8.8 -0.35 -6.95 Q-1.4 -5.0 -2.45 -2.05 -4.4 3.3 -4.05 5.95 L-2.45 8.15 Q-0.6 0.6 13.7 -6.75 20.9 -10.45 28.3 -12.8 40.95 -15.75 46.85 -23.7 52.3 -31.05 53.0 -43.95 M16.45 -47.65 Q16.9 -50.2 14.55 -53.3 12.45 -56.05 10.3 -56.7 M-14.4 -48.95 Q-19.45 -46.6 -21.85 -39.85 -22.8 -37.3 -23.3 -34.0 -23.7 -31.5 -23.7 -29.85 L-23.65 -27.6 -9.45 -12.8 -7.7 -12.7 Q-7.2 -12.7 -4.95 -13.65 L-2.2 -14.65 0.2 -13.5 Q2.25 -12.5 5.95 -12.9 M54.2 -43.3 Q58.7 -40.85 60.8 -37.05 62.85 -33.4 62.85 -28.25 62.85 -21.4 59.55 -14.75 54.55 -4.6 43.35 0.15 35.05 3.7 27.0 5.9 L16.4 8.5 Q11.9 9.7 9.65 11.5 7.0 13.6 4.95 18.35 L5.25 18.85 Q7.25 14.65 10.55 13.2 12.25 12.45 14.85 12.45 L29.4 13.65 Q33.25 13.65 35.4 12.4 37.7 11.05 38.45 8.0 40.25 9.35 43.1 10.55 45.95 11.8 47.3 11.8 51.45 11.8 53.15 7.9 L54.35 5.0 Q55.1 3.55 56.25 3.2 59.65 2.2 63.0 0.7 67.05 -1.1 68.4 -2.55 M8.15 41.95 L9.15 44.4 11.3 50.3 13.45 57.0 13.45 56.55 13.65 57.55 Q14.0 51.6 11.15 38.15 8.65 26.1 7.2 22.8 L5.25 18.85 M5.6 36.95 L8.15 41.95 M5.6 36.95 L4.25 34.45 Q2.9 31.85 -0.9 26.2 -5.45 19.35 -9.3 14.75 -16.7 5.45 -24.2 -1.2 -31.8 -8.0 -36.6 -9.45 -44.0 -11.65 -48.1 -15.6 -53.8 -21.1 -52.9 -29.65 M-56.1 -4.6 L-52.7 -4.95 -49.55 -5.65 -50.0 -5.0 Q-51.25 -2.7 -52.0 1.0 -52.0 1.85 -51.1 3.1 -49.8 4.95 -47.25 6.0 -46.85 10.25 -45.7 12.35 -44.25 15.0 -41.2 15.0 -39.3 15.0 -36.55 14.0 -35.15 19.25 -31.45 21.55 -28.9 23.1 -25.7 23.1 -23.25 23.1 -21.55 22.15 -18.55 20.55 -16.9 20.0 L-17.3 22.1 -17.7 24.95 Q-17.7 27.25 -16.65 29.15 -15.45 31.35 -13.55 31.35 L-9.7 30.8 -8.2 30.0 Q-6.85 31.55 -4.5 32.45 L-0.3 33.9 Q5.05 35.95 7.3 42.3 L11.3 50.3 M-4.05 5.95 L-4.85 4.85 -23.65 -27.6 M4.95 18.35 L-2.45 8.15" fill="none" stroke="#000000" stroke-linecap="round" stroke-linejoin="miter-clip" stroke-miterlimit="4.0" stroke-opacity="0.2" stroke-width="1.0"/>
    <path d="M58.85 10.7 Q59.0 19.95 57.4 28.1 59.5 25.3 61.4 20.75 65.55 11.05 64.6 1.2 M49.1 26.7 Q47.7 34.2 49.9 39.6 50.95 42.2 52.3 43.4 L52.3 43.35 Q55.65 36.45 57.3 28.5 L57.4 28.1 M37.35 34.45 L38.9 33.1 Q40.85 31.35 42.45 29.15 47.65 22.25 48.1 13.95 M28.85 26.2 Q29.45 38.55 25.95 49.5 L23.5 55.9 Q27.85 52.2 31.85 45.5 39.85 32.05 38.6 17.2 M25.95 49.5 Q24.4 46.95 22.5 42.45 18.7 33.45 16.35 23.45 M-8.65 35.7 Q-5.5 41.5 -5.4 49.4 -5.35 53.4 -5.9 56.2 2.55 62.9 3.4 66.6 3.85 68.45 2.6 68.95 M16.1 67.7 Q19.6 64.0 22.95 57.0 L23.5 55.9 M45.35 53.7 Q48.85 50.4 52.3 43.4 M-34.15 50.95 Q-33.0 49.1 -31.8 45.9 -29.35 39.6 -28.9 33.2 M-39.15 22.2 Q-39.85 27.7 -39.05 34.9 -37.5 49.35 -30.15 57.95 M-22.9 22.7 L-22.15 26.4 Q-21.05 31.05 -19.45 35.4 -14.35 49.5 -5.9 56.2 M-50.65 11.95 Q-50.7 15.95 -49.35 21.25 -46.6 31.8 -39.4 38.2 M-2.4 59.7 L-10.8 60.0 Q-20.25 59.05 -25.4 52.95" fill="none" stroke="#000000" stroke-linecap="round" stroke-linejoin="miter-clip" stroke-miterlimit="4.0" stroke-opacity="0.14901961" stroke-width="1.0"/>
  </g>
</svg>
