<?xml version="1.0" encoding="UTF-8" standalone="no"?>
<svg xmlns:xlink="http://www.w3.org/1999/xlink" height="98.95px" width="27.65px" xmlns="http://www.w3.org/2000/svg">
  <g transform="matrix(1.0, 0.0, 0.0, 1.0, 13.8, 49.2)">
    <path d="M1.45 -45.25 Q-2.25 -41.6 -5.55 -40.4 -7.6 -39.65 -8.35 -39.55 -4.8 -43.45 -2.25 -45.3 L2.65 -48.35 Q4.55 -49.4 4.7 -49.15 4.5 -48.25 1.45 -45.25 M-8.35 -29.75 L-7.1 -29.65 0.1 -29.3 7.3 -29.65 8.95 -29.85 9.0 -30.55 9.0 -30.8 10.3 -30.35 10.25 -30.25 10.25 -30.1 10.25 1.35 Q12.35 1.75 12.55 2.3 L12.5 2.55 12.55 2.4 12.45 9.05 12.4 9.15 12.95 9.6 Q13.35 10.15 13.35 10.9 13.35 11.65 12.95 12.15 L12.45 12.6 12.45 46.55 Q7.5 49.25 0.2 49.25 -7.2 49.25 -12.35 46.4 L-12.35 12.7 -12.95 12.2 -13.3 10.95 Q-13.3 10.2 -12.95 9.65 L-12.4 9.2 -12.35 2.35 Q-12.35 1.8 -10.15 1.35 L-10.05 -30.3 Q-10.05 -30.6 -8.9 -30.8 L-8.85 -30.8 -8.45 -30.95 -8.45 -30.85 -8.35 -29.75 Q-10.05 -30.0 -10.05 -30.3 -10.05 -30.0 -8.35 -29.75 M10.25 -30.1 L8.95 -29.85 10.25 -30.1 M-10.15 1.35 L-10.15 1.5 -10.15 1.35 M-8.45 -30.85 L-8.85 -30.8 -8.45 -30.85 M-10.15 3.35 Q-12.35 2.95 -12.35 2.35 -12.35 2.95 -10.15 3.35 L-10.15 1.5 -10.15 3.35 -8.7 3.6 0.1 4.1 8.85 3.6 10.25 3.35 8.85 3.6 0.1 4.1 -8.7 3.6 -10.15 3.35 M12.45 12.6 L11.55 13.15 10.35 13.75 Q5.95 15.7 0.0 15.7 -6.1 15.7 -10.15 13.85 L-12.35 12.7 -10.15 13.85 Q-6.1 15.7 0.0 15.7 5.95 15.7 10.35 13.75 L11.55 13.15 12.45 12.6 M-12.4 9.2 L-10.15 10.35 Q-5.6 12.2 0.0 12.2 5.95 12.2 10.35 10.25 L11.75 9.6 10.35 10.25 Q5.95 12.2 0.0 12.2 -5.6 12.2 -10.15 10.35 L-12.4 9.2 M10.25 1.35 L10.25 3.35 10.25 1.35 M12.5 2.55 Q12.2 3.0 10.25 3.35 12.2 3.0 12.5 2.55 M11.75 9.6 L12.4 9.15 11.75 9.6" fill="#ffffff" fill-opacity="0.0" fill-rule="evenodd" stroke="none"/>
    <path d="M9.0 -30.8 L10.3 -30.35 10.3 -30.3 10.25 -30.25 10.25 -30.1 10.25 1.35 Q12.35 1.75 12.55 2.3 L12.55 2.4 12.45 9.05 12.4 9.15 12.95 9.6 Q13.35 10.15 13.35 10.9 13.35 11.65 12.95 12.15 L12.45 12.6 12.45 46.55 Q7.5 49.25 0.2 49.25 -7.2 49.25 -12.35 46.4 L-12.35 12.7 -12.95 12.2 -13.3 10.95 Q-13.3 10.2 -12.95 9.65 L-12.4 9.2 -12.35 2.35 Q-12.35 1.8 -10.15 1.35 L-10.05 -30.3 Q-10.05 -30.6 -8.9 -30.8 L-8.85 -30.8 -8.45 -30.85 -8.45 -30.95 M10.25 -30.25 L10.3 -30.35 M-10.15 1.5 L-10.15 1.35 M12.5 2.55 L12.55 2.3 M12.5 2.55 L12.55 2.4 M12.4 9.15 L11.75 9.6" fill="none" stroke="#000000" stroke-linecap="round" stroke-linejoin="round" stroke-width="1.0"/>
    <path d="M8.95 -29.85 L9.0 -30.55 9.0 -30.8 M-8.45 -30.85 L-8.35 -29.75 M-10.15 3.35 L-10.15 1.5 M11.75 9.6 L10.35 10.25 Q5.95 12.2 0.0 12.2 -5.6 12.2 -10.15 10.35 L-12.4 9.2 M-12.35 12.7 L-10.15 13.85 Q-6.1 15.7 0.0 15.7 5.95 15.7 10.35 13.75 L11.55 13.15 12.45 12.6 M10.25 3.35 L10.25 1.35" fill="none" stroke="#000000" stroke-linecap="round" stroke-linejoin="round" stroke-opacity="0.4" stroke-width="1.0"/>
    <path d="M-8.35 -29.75 L-7.1 -29.65 0.1 -29.3 7.3 -29.65 8.95 -29.85 10.25 -30.1 M-8.35 -29.75 Q-10.05 -30.0 -10.05 -30.3 M-12.35 2.35 Q-12.35 2.95 -10.15 3.35 L-8.7 3.6 0.1 4.1 8.85 3.6 10.25 3.35 Q12.2 3.0 12.5 2.55" fill="none" stroke="#000000" stroke-linecap="round" stroke-linejoin="round" stroke-opacity="0.6" stroke-width="1.0"/>
  </g>
</svg>
