<?xml version="1.0" encoding="UTF-8" standalone="no"?>
<svg xmlns:xlink="http://www.w3.org/1999/xlink" height="21.2px" width="40.85px" xmlns="http://www.w3.org/2000/svg">
  <g transform="matrix(1.0, 0.0, 0.0, 1.0, 19.65, 3.65)">
    <path d="M-18.85 -1.55 L-18.6 -2.25 -18.8 -2.65 Q-18.8 -3.1 -18.4 -3.1 L-16.0 -3.15 -15.95 -2.2 -16.2 -2.2 Q-16.5 -0.95 -16.2 0.15 L-16.2 0.2 -15.95 0.2 -15.9 0.2 -15.9 0.3 -15.85 1.05 -18.75 1.05 Q-19.2 1.05 -19.15 0.7 -19.2 0.25 -18.75 0.25 L-18.65 0.25 Q-19.0 -0.7 -18.85 -1.55 M-17.85 -2.2 L-18.0 -2.2 -18.2 -2.2 -18.0 -2.2 Q-18.45 -0.85 -18.15 0.25 L-17.5 0.25 Q-17.95 -0.9 -17.6 -1.7 L-17.4 -2.2 -17.85 -2.2 M-16.95 -2.2 L-17.4 -2.2 -16.95 -2.2 -16.9 -2.2 -16.95 -2.2 M-16.65 -2.2 L-16.9 -2.2 Q-17.15 -1.1 -17.05 0.2 L-17.0 0.2 -16.95 0.2 -16.7 0.2 -16.2 0.2 -16.7 0.2 -16.65 -2.2 -16.2 -2.2 -16.65 -2.2 M-18.2 -2.2 L-18.4 -2.2 -18.55 -2.25 -18.4 -2.2 -18.2 -2.2 M-18.6 -2.25 L-18.55 -2.25 -18.6 -2.25 M-17.5 0.25 L-17.05 0.2 -17.5 0.25 M-18.25 0.25 L-18.65 0.25 -18.25 0.25 -18.15 0.25 -18.25 0.25 M13.6 13.6 L20.4 13.6 Q20.7 13.6 20.7 13.8 L20.4 14.0 19.55 14.0 19.55 16.65 20.4 16.65 Q20.7 16.65 20.7 16.85 L20.4 17.05 7.9 17.05 7.6 16.85 7.6 16.8 7.65 16.75 7.9 16.65 8.65 16.65 8.65 14.0 7.9 14.0 7.6 13.8 Q7.6 13.6 7.9 13.6 L13.6 13.6 M12.05 14.0 L11.05 14.0 11.05 16.65 12.05 16.65 12.05 14.0 M13.75 14.0 L12.7 14.0 12.7 16.65 13.75 16.65 13.75 14.0 M15.5 16.65 L15.5 14.0 14.4 14.0 14.4 16.65 15.5 16.65 M17.15 14.0 L16.1 14.0 16.1 16.65 17.15 16.65 17.15 14.0 M18.9 14.0 L17.8 14.0 17.8 16.65 18.9 16.65 18.9 14.0 M9.3 14.0 L9.3 16.65 10.4 16.65 10.4 14.0 9.3 14.0" fill="#ffffff" fill-opacity="0.0" fill-rule="evenodd" stroke="none"/>
    <path d="M-18.85 -1.55 L-18.6 -2.25 M-16.2 0.2 L-15.95 0.2 M-15.9 0.3 L-15.85 1.05 -18.75 1.05 Q-19.2 1.05 -19.15 0.7 -19.2 0.25 -18.75 0.25 L-18.65 0.25 M-18.15 0.25 L-17.5 0.25 M-16.2 0.2 L-16.7 0.2 M-18.25 0.25 L-18.15 0.25 M7.65 16.75 L7.6 16.8 7.6 16.85 7.9 17.05 20.4 17.05 20.7 16.85 Q20.7 16.65 20.4 16.65 L19.55 16.65 19.55 14.0 20.4 14.0 20.7 13.8 Q20.7 13.6 20.4 13.6 L13.6 13.6" fill="none" stroke="#000000" stroke-linecap="round" stroke-linejoin="round" stroke-width="1.0"/>
    <path d="M-15.95 -2.2 L-16.2 -2.2 Q-16.5 -0.95 -16.2 0.15 L-16.2 0.2 M-17.85 -2.2 L-17.4 -2.2 M-16.95 -2.2 L-16.9 -2.2 -16.65 -2.2 -16.2 -2.2 M-18.0 -2.2 Q-18.45 -0.85 -18.15 0.25 M-18.55 -2.25 L-18.4 -2.2 -18.2 -2.2 M-16.7 0.2 L-16.95 0.2 M-17.0 0.2 L-17.05 0.2 Q-17.15 -1.1 -16.9 -2.2" fill="none" stroke="#000000" stroke-linecap="round" stroke-linejoin="round" stroke-opacity="0.6" stroke-width="1.0"/>
    <path d="M-18.6 -2.25 L-18.8 -2.65 Q-18.8 -3.1 -18.4 -3.1 L-16.0 -3.15 -15.95 -2.2 M-18.65 0.25 Q-19.0 -0.7 -18.85 -1.55 M-18.55 -2.25 L-18.6 -2.25" fill="none" stroke="#000000" stroke-linecap="round" stroke-linejoin="round" stroke-width="1.0"/>
    <path d="M-15.95 0.2 L-15.9 0.2 -15.9 0.3 M-18.0 -2.2 L-17.85 -2.2 M-17.4 -2.2 L-16.95 -2.2 M-18.2 -2.2 L-18.0 -2.2 M-17.5 0.25 Q-17.95 -0.9 -17.6 -1.7 L-17.4 -2.2 M-16.95 0.2 L-17.0 0.2 M-17.05 0.2 L-17.5 0.25 M-16.65 -2.2 L-16.7 0.2 M-18.65 0.25 L-18.25 0.25 M13.6 13.6 L7.9 13.6 Q7.6 13.6 7.6 13.8 L7.9 14.0 8.65 14.0 8.65 16.65 7.9 16.65 7.65 16.75" fill="none" stroke="#000000" stroke-linecap="round" stroke-linejoin="round" stroke-opacity="0.6" stroke-width="1.0"/>
    <path d="M9.3 14.0 L10.4 14.0 10.4 16.65 9.3 16.65 9.3 14.0 M18.9 14.0 L18.9 16.65 17.8 16.65 17.8 14.0 18.9 14.0 M17.15 14.0 L17.15 16.65 16.1 16.65 16.1 14.0 17.15 14.0 M15.5 16.65 L14.4 16.65 14.4 14.0 15.5 14.0 15.5 16.65 M13.75 14.0 L13.75 16.65 12.7 16.65 12.7 14.0 13.75 14.0 M12.05 14.0 L12.05 16.65 11.05 16.65 11.05 14.0 12.05 14.0" fill="none" stroke="#000000" stroke-linecap="round" stroke-linejoin="round" stroke-opacity="0.4" stroke-width="1.0"/>
  </g>
</svg>
