<?xml version="1.0" encoding="UTF-8" standalone="no"?>
<svg xmlns:xlink="http://www.w3.org/1999/xlink" height="911.85px" width="1531.25px" xmlns="http://www.w3.org/2000/svg">
  <g transform="matrix(1.0, 0.0, 0.0, 1.0, 765.6, 455.9)">
    <path d="M162.35 -450.25 L201.25 -451.7 Q220.4 -451.45 239.6 -451.35 258.95 -451.25 278.05 -448.3 295.9 -445.65 314.0 -444.25 319.4 -443.85 324.85 -444.5 L327.6 -444.9 328.35 -445.0 343.45 -446.55 345.6 -446.65 347.2 -446.65 358.5 -446.25 359.3 -446.2 360.1 -446.15 406.8 -443.75 Q422.8 -443.1 438.65 -440.95 L474.4 -437.35 489.6 -436.3 514.95 -435.3 521.4 -434.75 564.1 -432.15 565.0 -432.1 573.65 -431.85 598.8 -431.35 600.45 -431.35 627.65 -430.15 Q642.35 -428.05 650.7 -424.95 L664.45 -419.7 Q669.9 -417.55 674.25 -416.4 690.6 -411.7 701.65 -404.3 708.75 -399.5 713.6 -393.65 L723.25 -382.2 Q728.15 -376.6 731.3 -373.55 L735.85 -369.3 Q744.75 -361.7 746.65 -351.4 747.15 -348.55 748.0 -345.8 751.65 -334.65 755.75 -323.45 L757.8 -318.05 758.5 -316.25 758.65 -315.7 760.65 -306.9 Q761.85 -299.8 761.25 -294.2 L762.1 -282.55 762.15 -282.0 764.8 -244.25 Q766.05 -225.95 765.5 -207.65 764.15 -188.75 760.8 -170.1 L753.6 -132.0 Q749.85 -112.4 750.95 -92.65 751.2 -84.75 751.75 -76.9 756.95 -28.8 752.4 19.35 752.3 23.5 752.7 27.7 L756.5 60.1 756.9 65.05 757.25 69.05 760.0 102.85 Q761.75 122.3 761.45 141.75 761.2 160.9 761.1 180.1 761.0 199.45 758.05 218.55 755.4 236.4 754.0 254.5 753.6 259.9 754.25 265.35 755.9 275.7 756.4 286.1 756.45 293.35 755.9 300.6 754.6 322.85 753.6 345.1 753.5 346.2 743.5 368.6 733.5 390.95 721.25 397.75 710.7 403.6 659.65 429.25 L642.0 438.1 Q639.6 439.15 633.6 440.05 L607.2 443.95 Q586.8 446.95 560.2 449.1 L544.1 450.25 Q538.55 450.5 544.9 449.55 487.0 453.95 452.5 453.95 L396.9 451.95 334.5 449.95 297.7 452.95 257.5 455.95 Q237.65 455.95 216.1 449.95 L200.45 445.85 Q191.7 443.95 183.5 443.95 166.5 443.95 143.45 439.9 127.8 437.15 101.9 430.95 71.9 423.8 63.15 422.0 43.2 417.95 31.5 417.95 L20.9 418.95 Q12.65 419.95 10.05 420.9 L3.5 420.55 0.55 420.35 -42.0 416.9 -48.5 416.15 -73.8 414.7 -88.9 413.25 -124.5 408.95 Q-140.3 406.5 -156.25 405.5 L-166.55 404.85 -182.55 402.3 -202.5 399.0 -216.8 396.9 Q-227.2 396.25 -237.65 396.8 L-248.5 395.85 Q-266.35 392.45 -283.75 387.95 -302.4 382.9 -321.55 380.65 L-336.55 378.95 -359.2 373.75 Q-378.15 369.3 -397.55 366.95 L-435.1 361.9 -440.0 361.25 -472.45 358.05 -480.7 356.6 Q-526.7 341.9 -574.8 336.8 L-590.35 334.2 -612.25 330.15 Q-621.25 328.15 -629.6 327.8 -638.0 327.45 -663.1 310.2 -673.65 238.6 -677.65 120.3 L-681.6 80.75 Q-683.3 61.0 -686.7 41.55 -688.9 28.7 -693.2 16.6 -699.4 -1.0 -704.85 -19.05 -708.3 -31.35 -709.85 -44.05 L-710.9 -48.85 -711.25 -50.2 -711.45 -51.5 -711.95 -54.45 -717.5 -98.1 Q-719.6 -116.6 -729.5 -132.8 -725.95 -143.6 -728.6 -152.25 -738.4 -181.55 -743.85 -212.05 L-747.65 -233.0 Q-750.5 -248.55 -751.1 -266.15 -751.7 -283.75 -750.25 -289.5 -748.85 -295.3 -752.25 -303.2 -755.7 -311.15 -759.7 -318.2 -763.75 -325.25 -762.3 -327.45 -760.85 -329.65 -765.6 -357.75 L-732.8 -365.85 -730.1 -366.75 -728.3 -367.4 -718.05 -371.6 -715.65 -372.75 -715.5 -372.8 -715.35 -372.9 Q-712.1 -374.55 -708.45 -374.85 L-702.55 -375.6 -692.65 -376.4 -633.1 -379.0 -622.15 -380.25 Q-591.65 -385.7 -562.35 -395.5 L-544.9 -400.6 Q-526.7 -404.5 -508.2 -406.6 L-464.55 -412.15 -461.6 -412.65 -461.65 -412.55 -458.95 -413.2 -454.15 -414.25 Q-441.45 -415.8 -429.15 -419.25 -411.1 -424.7 -393.5 -430.9 -381.4 -435.2 -368.55 -437.4 -349.1 -440.8 -329.35 -442.5 L-289.8 -446.45 -284.4 -447.15 -281.25 -447.6 -277.2 -448.15 -270.55 -449.15 -250.55 -450.75 -250.4 -450.75 -248.7 -450.8 -223.05 -452.35 -222.5 -452.4 -184.75 -455.05 Q-166.45 -456.3 -148.15 -455.75 -129.25 -454.4 -110.6 -451.05 L-100.5 -449.15 -72.5 -443.85 Q-52.9 -440.1 -33.15 -441.2 L-17.4 -442.0 Q30.7 -447.2 78.85 -442.65 L87.2 -442.95 119.6 -446.75 124.55 -447.15 162.35 -450.25" fill="#cccccc" fill-rule="evenodd" stroke="none"/>
  </g>
</svg>
