<?xml version="1.0" encoding="UTF-8" standalone="no"?>
<svg xmlns:xlink="http://www.w3.org/1999/xlink" height="1107.3px" width="1659.95px" xmlns="http://www.w3.org/2000/svg">
  <g transform="matrix(1.0, 0.0, 0.0, 1.0, 829.95, 553.65)">
    <path d="M614.75 -548.05 Q633.35 -550.45 652.0 -549.75 662.75 -549.2 679.9 -543.65 701.9 -536.6 716.05 -526.0 743.65 -505.35 748.95 -468.5 750.95 -454.35 750.45 -433.3 750.15 -420.95 748.85 -394.95 747.95 -371.25 749.2 -354.3 750.9 -331.6 756.7 -312.25 770.9 -264.9 813.4 -227.3 829.95 -212.7 830.0 -194.8 830.0 -178.35 815.95 -158.2 803.5 -140.3 778.65 -117.9 758.5 -99.7 725.35 -74.35 L663.35 -28.05 Q624.1 1.15 600.0 20.6 528.25 78.45 498.4 123.15 485.95 141.8 476.75 171.8 465.0 210.0 464.05 251.95 462.9 295.95 471.9 344.6 L479.35 384.2 Q483.45 407.75 485.05 428.6 492.7 526.75 346.3 546.15 305.7 551.55 283.35 552.95 255.5 554.7 234.7 552.1 212.7 549.3 191.0 540.85 170.0 532.65 142.95 516.5 113.3 498.85 93.6 488.5 70.15 476.3 48.05 467.6 4.7 450.65 -70.6 435.05 -227.2 402.65 -456.0 468.5 -391.85 213.75 -604.05 151.15 -829.95 67.95 -829.95 -223.1 -829.95 -288.3 -813.75 -372.4 -806.55 -409.75 -798.2 -438.2 -789.55 -467.55 -781.85 -480.0 -760.1 -514.95 -716.6 -531.15 -700.15 -537.3 -683.15 -539.65 L-658.85 -540.5 -658.45 -540.5 Q-627.5 -540.7 -596.95 -545.3 L-578.85 -547.4 Q-560.25 -548.15 -541.65 -547.05 L-493.25 -545.0 -494.75 -546.0 -493.15 -545.85 Q-477.3 -544.45 -461.55 -546.05 -442.85 -548.35 -424.45 -551.45 -411.8 -553.65 -398.75 -553.65 L-359.2 -551.95 -319.55 -549.1 -286.6 -548.1 -251.9 -549.35 -214.15 -552.0 Q-195.85 -553.25 -177.55 -552.7 -158.65 -551.35 -140.0 -548.0 L-101.9 -540.8 Q-82.3 -537.05 -62.55 -538.15 L-46.8 -538.95 Q1.3 -544.15 49.45 -539.6 L57.8 -539.9 90.2 -543.7 95.15 -544.1 132.95 -547.2 171.85 -548.65 Q191.0 -548.4 210.2 -548.3 229.55 -548.2 248.65 -545.25 266.5 -542.6 284.6 -541.2 290.0 -540.8 295.45 -541.45 313.05 -544.25 330.75 -543.8 349.75 -543.35 368.85 -543.25 L394.95 -541.7 424.2 -539.5 Q443.45 -538.65 462.8 -539.25 L497.65 -541.25 533.35 -545.15 Q552.95 -547.75 572.5 -546.2 L582.85 -545.65 Q598.8 -545.75 614.75 -548.05" fill="#cccccc" fill-rule="evenodd" stroke="none"/>
  </g>
</svg>
