<?xml version="1.0" encoding="UTF-8" standalone="no"?>
<svg xmlns:xlink="http://www.w3.org/1999/xlink" height="388.8px" width="374.45px" xmlns="http://www.w3.org/2000/svg">
  <g transform="matrix(1.0, 0.0, 0.0, 1.0, 187.25, 194.4)">
    <path d="M75.9 74.9 L18.45 74.9 18.45 175.45 75.9 175.45 75.9 74.9 M158.0 74.9 L102.6 74.9 102.6 175.45 160.05 175.45 158.0 74.9 M155.95 -46.2 L102.6 -46.2 102.6 54.35 158.0 54.35 155.95 -46.2 M75.9 -46.2 L18.45 -46.2 18.45 54.35 75.9 54.35 75.9 -46.2 M75.9 -171.35 L18.45 -173.4 18.45 -66.7 75.9 -66.7 75.9 -171.35 M155.95 -169.3 L102.6 -171.35 102.6 -66.7 155.95 -66.7 155.95 -169.3 M182.6 -189.8 L186.7 193.9 -8.25 193.9 -8.25 191.85 -186.75 191.85 -186.75 -193.9 -8.25 -190.05 -8.25 -191.85 182.6 -189.8 M-102.6 72.85 L-160.05 72.85 -160.05 173.4 -102.6 173.4 -102.6 72.85 M-20.55 72.85 L-75.95 72.85 -75.95 173.4 -18.5 173.4 -20.55 72.85 M-22.6 -48.25 L-75.95 -48.25 -75.95 54.35 -20.55 54.35 -22.6 -48.25 M-102.6 -48.25 L-160.05 -48.25 -160.05 54.35 -102.6 54.35 -102.6 -48.25 M-102.6 -173.4 L-160.05 -175.45 -160.05 -68.75 -102.6 -68.75 -102.6 -173.4 M-22.6 -171.35 L-75.95 -173.4 -75.95 -68.75 -22.6 -68.75 -22.6 -171.35" fill="#ffffff" fill-opacity="0.0" fill-rule="evenodd" stroke="none"/>
    <path d="M182.6 -189.8 L-8.25 -191.85 -8.25 -190.05 -186.75 -193.9 -186.75 191.85 -8.25 191.85 -8.25 193.9 186.7 193.9 182.6 -189.8 Z" fill="none" stroke="#5b5b5b" stroke-linecap="round" stroke-linejoin="round" stroke-opacity="0.4" stroke-width="1.0"/>
  </g>
</svg>
