<?xml version="1.0" encoding="UTF-8" standalone="no"?>
<svg xmlns:xlink="http://www.w3.org/1999/xlink" height="213.5px" width="154.6px" xmlns="http://www.w3.org/2000/svg">
  <g transform="matrix(1.0, 0.0, 0.0, 1.0, 79.85, 138.75)">
    <path d="M71.7 -102.4 L74.25 -99.85 71.7 74.25 -79.35 74.25 -79.35 -89.6 -76.8 -92.15 Q-76.8 -97.25 -56.3 -115.2 -28.15 -135.65 0.0 -138.25 35.85 -138.25 71.7 -102.4 M-12.8 -7.65 L-58.9 -5.1 -56.3 53.75 -12.8 53.75 -12.8 -7.65 M-58.9 -28.15 L-12.8 -28.15 -15.35 -115.2 Q-35.85 -107.5 -58.9 -84.45 L-58.9 -28.15 M53.75 -10.25 L7.7 -7.65 7.7 53.75 51.2 53.75 53.75 -10.25 M53.75 -30.7 L53.75 -89.6 Q33.3 -110.05 5.1 -115.2 L7.7 -30.7 53.75 -30.7" fill="#ffffff" fill-opacity="0.0" fill-rule="evenodd" stroke="none"/>
    <path d="M71.7 -102.4 Q35.85 -138.25 0.0 -138.25 -28.15 -135.65 -56.3 -115.2 -76.8 -97.25 -76.8 -92.15 L-79.35 -89.6 -79.35 74.25 71.7 74.25 74.25 -99.85 71.7 -102.4 Z" fill="none" stroke="#000000" stroke-linecap="round" stroke-linejoin="round" stroke-opacity="0.4" stroke-width="1.0"/>
  </g>
</svg>
