<?xml version="1.0" encoding="UTF-8" standalone="no"?>
<svg xmlns:xlink="http://www.w3.org/1999/xlink" height="79.15px" width="200.65px" xmlns="http://www.w3.org/2000/svg">
  <g transform="matrix(1.0, 0.0, 0.0, 1.0, 80.3, 40.55)">
    <path d="M20.65 -5.5 L87.1 -4.45 88.7 -4.85 90.4 -5.6 92.05 -6.8 119.7 -13.15 113.05 -7.45 112.9 -7.05 Q112.8 -6.65 113.35 -6.55 L107.75 -1.55 107.35 -1.1 107.3 -0.95 107.35 -0.8 107.75 -0.4 113.35 4.6 Q112.8 4.7 112.9 5.1 L113.05 5.5 119.7 11.25 92.05 4.85 90.4 3.7 88.7 2.9 86.9 2.45 17.75 3.65 10.3 3.7 10.4 -5.65 20.65 -5.5" fill="#000000" fill-opacity="0.4" fill-rule="evenodd" stroke="none"/>
    <path d="M17.75 3.65 Q15.35 4.3 14.05 5.25 12.3 6.5 12.15 8.3 12.1 9.95 12.55 11.35 L13.1 12.4 19.75 18.75 18.4 18.8 Q17.05 18.9 16.9 19.4 16.7 19.85 17.05 20.1 L17.5 20.3 29.9 31.05 -13.7 15.15 -79.65 37.95 -65.95 26.05 Q-64.85 24.95 -65.0 24.5 -65.1 24.25 -65.7 24.2 L-66.2 24.2 -68.95 24.5 -43.55 1.95 -42.95 0.9 Q-42.3 -0.35 -42.3 -1.2 -42.3 -2.05 -42.95 -3.0 L-43.55 -3.8 -66.55 -24.55 -63.85 -24.2 Q-62.75 -23.9 -62.5 -24.2 -62.3 -24.45 -62.55 -24.95 L-62.95 -25.45 -79.65 -39.9 -6.45 -14.1 Q-4.65 -13.35 -4.5 -13.9 -4.4 -14.3 -4.75 -15.0 L-5.1 -15.6 -11.45 -21.8 13.05 -13.8 15.55 -9.9 Q18.45 -6.0 20.65 -5.6 L20.65 -5.5 87.1 -4.45 88.7 -4.85 90.4 -5.6 92.05 -6.8 119.7 -13.15 113.05 -7.45 112.9 -7.05 Q112.8 -6.65 113.35 -6.55 L107.75 -1.55 107.35 -1.1 107.3 -0.95 107.35 -0.8 107.75 -0.4 113.35 4.6 Q112.8 4.7 112.9 5.1 L113.05 5.5 119.7 11.25 92.05 4.85 90.4 3.7 88.7 2.9 86.9 2.45 17.75 3.65" fill="none" stroke="#000000" stroke-linecap="round" stroke-linejoin="round" stroke-width="1.0"/>
    <path d="M17.75 3.65 L10.3 3.7 10.4 -5.65 20.65 -5.5" fill="none" stroke="#000000" stroke-linecap="round" stroke-linejoin="round" stroke-opacity="0.4" stroke-width="1.0"/>
  </g>
</svg>
