<?xml version="1.0" encoding="UTF-8" standalone="no"?>
<svg xmlns:xlink="http://www.w3.org/1999/xlink" height="170.9px" width="211.8px" xmlns="http://www.w3.org/2000/svg">
  <g transform="matrix(1.0, 0.0, 0.0, 1.0, 107.8, 94.9)">
    <path d="M-89.35 -35.1 L-88.3 -35.3 -88.2 -35.3 -88.05 -35.3 -87.8 -35.3 -87.55 -35.3 -87.45 -35.25 -88.0 -35.25 -89.35 -35.1 M-97.05 -80.8 L-98.0 -82.4 -98.25 -82.85 -98.35 -83.05 Q-99.35 -85.0 -99.65 -86.45 -99.25 -84.55 -97.65 -81.85 L-96.75 -80.3 -97.05 -80.8 M-12.85 5.05 L-12.6 4.75 -12.45 4.65 -12.85 5.05" fill="#ffffff" fill-rule="evenodd" stroke="none"/>
    <path d="M-93.1 -29.55 Q-93.35 -34.3 -89.5 -35.1 L-89.35 -35.1 -90.95 -34.5 Q-93.25 -33.05 -93.1 -29.55 M-99.0 -65.6 L-98.0 -66.05 -98.05 -65.9 -98.55 -65.75 -99.0 -65.6" fill="#bfbfbf" fill-rule="evenodd" stroke="none"/>
    <path d="M-42.35 -57.25 Q-15.0 -45.8 4.4 -44.7 L8.15 -44.6 18.05 -45.4 Q29.35 -47.4 33.0 -52.55 46.65 -79.85 62.2 -89.55 L63.25 -90.15 66.25 -91.75 Q71.8 -94.35 76.95 -94.4 L78.1 -94.35 81.0 -93.9 Q98.05 -95.25 99.1 -85.2 L99.15 -84.6 Q98.95 -78.7 95.7 -70.5 L95.35 -69.6 95.0 -68.4 Q92.85 -61.05 95.75 -52.25 99.1 -42.25 99.75 -41.3 L100.45 -40.15 Q107.85 -19.95 97.15 1.05 93.5 8.2 87.4 15.95 L79.0 26.1 Q74.0 32.35 59.35 38.85 L45.65 44.1 Q44.0 55.35 37.35 63.85 L36.05 65.45 32.0 69.4 31.0 70.1 24.55 65.45 21.75 63.25 18.5 60.45 Q9.75 62.0 9.75 58.15 9.75 56.95 10.65 55.35 L10.65 55.3 11.5 53.95 Q2.75 56.15 -1.5 55.25 -2.85 55.0 -3.55 54.45 L-4.0 53.95 Q-13.35 52.7 -13.35 46.95 -13.35 45.15 -12.45 43.1 L-11.5 41.45 Q-17.1 38.0 -14.85 35.9 L-12.75 34.75 -11.5 34.45 Q-1.55 32.8 4.3 30.8 L5.4 30.4 6.5 29.95 12.1 28.7 12.75 28.5 Q29.0 23.75 42.25 9.15 L46.25 4.45 50.3 0.0 Q52.25 -2.55 53.55 -5.15 L54.65 -7.9 55.15 -9.7 Q33.8 13.3 16.75 16.4 10.45 17.55 2.8 16.55 L-10.0 14.45 Q-20.4 12.95 -12.85 5.05 L-12.45 4.65 Q-10.05 2.2 -6.05 -0.65 L-2.5 -3.05 Q-20.0 7.6 -23.5 5.1 -24.6 4.3 -24.15 2.3 L-23.5 0.45 Q-34.75 2.0 -36.35 -2.45 -36.85 -3.85 -36.3 -5.7 L-35.7 -7.25 Q-41.55 -6.8 -45.35 -7.85 L-47.1 -8.5 Q-48.4 -9.05 -49.4 -9.85 -51.25 -11.55 -51.2 -14.25 L-51.2 -14.4 -50.85 -16.55 -52.8 -16.55 -54.85 -16.55 -56.5 -16.6 Q-73.75 -17.25 -80.3 -25.1 -82.6 -27.9 -83.3 -31.25 L-83.45 -33.45 -83.45 -33.7 -81.65 -33.05 -83.5 -33.9 -83.5 -34.05 -84.2 -34.25 Q-88.8 -36.5 -92.6 -39.3 -102.2 -46.4 -95.5 -50.8 L-97.9 -49.65 -98.15 -49.45 -96.3 -50.7 -93.7 -51.9 Q-107.85 -58.55 -103.2 -63.2 L-102.75 -63.6 -100.15 -65.15 -99.05 -65.55 Q-112.5 -59.2 -90.7 -51.6 -79.9 -47.85 -66.45 -45.3 L-65.85 -45.2 -65.0 -45.05 -65.85 -45.3 -66.4 -45.45 Q-91.1 -52.75 -97.05 -60.05 -98.95 -62.4 -98.7 -64.45 L-98.05 -65.9 -95.7 -66.55 -103.95 -71.6 Q-106.85 -73.6 -107.25 -75.35 -91.55 -74.0 -71.05 -60.5 -89.95 -74.6 -99.3 -89.25 -98.8 -90.05 -97.7 -90.55 -93.95 -92.25 -89.75 -88.9 -87.7 -87.25 -86.35 -85.25 -84.25 -103.15 -63.1 -82.0 L-61.25 -80.1 -60.9 -79.7 -62.1 -80.95 Q-82.5 -101.85 -85.9 -87.7 -81.4 -91.15 -61.4 -74.55 -51.45 -66.25 -42.35 -57.25 M19.65 -13.25 Q8.8 -7.4 3.65 -9.9 2.05 -10.65 1.2 -12.2 L0.65 -13.55 Q-0.6 -4.0 9.4 -7.65 14.4 -9.5 19.65 -13.25 M52.3 -29.25 Q58.05 -17.8 54.65 -7.9 58.05 -17.8 52.3 -29.25 M-69.7 -49.25 Q-77.75 -51.45 -87.4 -59.15 L-95.7 -66.55 -87.4 -59.15 Q-77.75 -51.45 -69.7 -49.25 M-63.7 -28.55 Q-72.9 -29.0 -80.85 -32.15 L-83.45 -33.45 -80.85 -32.15 Q-72.9 -29.0 -63.7 -28.55 M-48.6 -47.25 L-52.3 -47.0 Q-56.45 -46.55 -58.8 -45.4 -66.35 -41.75 -53.0 -32.55 L-54.25 -31.25 Q-55.55 -29.7 -55.85 -28.3 -56.85 -23.8 -47.7 -22.55 L-49.4 -19.95 Q-50.4 -18.15 -50.85 -16.55 -50.4 -18.15 -49.4 -19.95 L-47.7 -22.55 Q-56.85 -23.8 -55.85 -28.3 -55.55 -29.7 -54.25 -31.25 L-53.0 -32.55 Q-66.35 -41.75 -58.8 -45.4 -56.45 -46.55 -52.3 -47.0 L-48.6 -47.25 M-64.35 -61.9 Q-66.1 -65.35 -76.85 -76.05 L-86.35 -85.25 -76.85 -76.05 Q-66.1 -65.35 -64.35 -61.9 M-30.45 -27.95 L-31.0 -29.9 Q-34.1 -15.5 -14.85 -21.25 -5.25 -24.15 5.0 -29.9 -17.5 -21.15 -26.5 -24.65 -29.3 -25.75 -30.45 -27.95 M22.3 42.75 Q16.05 44.85 15.9 41.7 15.85 40.7 16.4 39.3 L17.0 38.1 Q10.3 40.2 8.65 37.35 8.1 36.45 8.15 35.2 L8.3 34.1 8.15 35.2 Q8.1 36.45 8.65 37.35 10.3 40.2 17.0 38.1 L16.4 39.3 Q15.85 40.7 15.9 41.7 16.05 44.85 22.3 42.75" fill="#ffffff" fill-opacity="0.0" fill-rule="evenodd" stroke="none"/>
    <path d="M-87.0 -35.25 Q-103.25 -41.5 -100.1 -47.3 -99.5 -48.45 -98.15 -49.45 L-97.9 -49.65 -95.5 -50.8 Q-102.2 -46.4 -92.6 -39.3 -88.8 -36.5 -84.2 -34.25 L-83.5 -34.05 -83.5 -33.9 -81.65 -33.05 -83.45 -33.7 -83.45 -33.45 -87.0 -35.25 M-107.25 -75.35 L-107.3 -75.35 -107.25 -75.4 Q-107.55 -76.7 -106.4 -77.9 -104.15 -79.85 -98.75 -77.65 -95.65 -76.4 -93.0 -74.55 L-96.75 -80.3 -97.65 -81.85 Q-99.25 -84.55 -99.65 -86.45 L-99.45 -88.9 -99.3 -89.25 Q-89.95 -74.6 -71.05 -60.5 -91.55 -74.0 -107.25 -75.35 L-107.25 -75.4 -107.25 -75.35 M-61.25 -80.1 Q-52.25 -70.8 -43.6 -58.95 L-42.35 -57.25 Q-51.45 -66.25 -61.4 -74.55 -81.4 -91.15 -85.9 -87.7 -82.5 -101.85 -62.1 -80.95 L-60.9 -79.7 -61.25 -80.1 M19.65 -13.25 Q14.4 -9.5 9.4 -7.65 -0.6 -4.0 0.65 -13.55 L1.2 -12.2 Q2.05 -10.65 3.65 -9.9 8.8 -7.4 19.65 -13.25 M-12.85 5.05 Q-20.4 12.95 -10.0 14.45 L2.8 16.55 Q10.45 17.55 16.75 16.4 33.8 13.3 55.15 -9.7 L54.65 -7.9 53.55 -5.15 Q52.25 -2.55 50.3 0.0 L46.25 4.45 Q38.6 11.6 24.3 18.75 11.5 25.15 -2.75 22.75 -7.65 21.95 -13.65 19.9 L-22.35 16.75 Q-28.6 14.7 -21.1 9.5 L-15.15 6.25 Q-28.15 13.0 -32.25 10.1 -33.65 9.1 -33.8 7.1 -33.65 5.35 -31.55 4.45 -39.1 4.7 -38.55 -0.6 -38.3 -2.55 -37.0 -5.1 L-35.7 -7.25 -36.3 -5.7 Q-36.85 -3.85 -36.35 -2.45 -34.75 2.0 -23.5 0.45 L-24.15 2.3 Q-24.6 4.3 -23.5 5.1 -20.0 7.6 -2.5 -3.05 L-6.05 -0.65 Q-10.05 2.2 -12.45 4.65 L-12.6 4.75 -12.85 5.05 M-28.35 4.1 L-31.55 4.45 -28.35 4.1 M-98.05 -65.9 L-98.7 -64.45 Q-98.95 -62.4 -97.05 -60.05 -91.1 -52.75 -66.4 -45.45 L-65.85 -45.3 -65.0 -45.05 -65.85 -45.2 -66.45 -45.3 Q-79.9 -47.85 -90.7 -51.6 -112.5 -59.2 -99.05 -65.55 L-99.0 -65.6 -98.55 -65.75 -98.05 -65.9 M-30.45 -27.95 Q-29.3 -25.75 -26.5 -24.65 -17.5 -21.15 5.0 -29.9 -5.25 -24.15 -14.85 -21.25 -34.1 -15.5 -31.0 -29.9 L-30.45 -27.95" fill="#000000" fill-opacity="0.101960786" fill-rule="evenodd" stroke="none"/>
    <path d="M31.0 70.1 L27.2 70.8 27.1 70.8 19.8 70.55 19.45 70.5 13.65 69.45 Q13.65 71.1 8.5 72.8 L8.25 72.9 6.3 73.45 Q3.4 75.05 0.65 75.4 -2.25 75.8 -5.0 74.75 -8.9 73.85 -13.3 71.15 L-16.95 68.7 -22.35 64.1 Q-34.45 58.7 -42.3 45.2 -44.75 40.95 -46.45 36.45 L-47.7 32.75 Q-51.0 34.1 -54.35 30.75 L-51.7 25.45 -55.7 24.1 Q-57.35 21.2 -56.35 20.05 L-55.0 19.45 Q-65.45 18.2 -65.25 11.35 -65.2 9.2 -64.1 6.75 L-63.0 4.75 Q-75.1 6.85 -77.95 1.35 -78.8 -0.35 -78.65 -2.65 L-78.35 -4.55 Q-84.2 -7.05 -83.55 -10.7 -83.3 -11.85 -82.5 -13.0 L-81.7 -13.9 Q-87.95 -18.05 -90.75 -22.05 L-92.35 -25.25 -92.55 -26.0 -93.05 -28.5 -93.1 -29.55 Q-93.25 -33.05 -90.95 -34.5 L-89.35 -35.1 -88.0 -35.25 -87.45 -35.25 -87.55 -35.3 -87.0 -35.25 -83.45 -33.45 -83.3 -31.25 Q-82.6 -27.9 -80.3 -25.1 -73.75 -17.25 -56.5 -16.6 L-54.85 -16.55 -52.8 -16.55 -50.85 -16.55 -51.2 -14.4 -51.2 -14.25 Q-51.25 -11.55 -49.4 -9.85 -48.4 -9.05 -47.1 -8.5 L-45.35 -7.85 Q-41.55 -6.8 -35.7 -7.25 L-37.0 -5.1 Q-38.3 -2.55 -38.55 -0.6 -39.1 4.7 -31.55 4.45 -33.65 5.35 -33.8 7.1 -33.65 9.1 -32.25 10.1 -28.15 13.0 -15.15 6.25 L-21.1 9.5 Q-28.6 14.7 -22.35 16.75 L-13.65 19.9 Q-7.65 21.95 -2.75 22.75 11.5 25.15 24.3 18.75 38.6 11.6 46.25 4.45 L42.25 9.15 Q29.0 23.75 12.75 28.5 L12.1 28.7 6.5 29.95 5.4 30.4 4.3 30.8 Q-1.55 32.8 -11.5 34.45 L-12.75 34.75 -14.85 35.9 Q-17.1 38.0 -11.5 41.45 L-12.45 43.1 Q-13.35 45.15 -13.35 46.95 -13.35 52.7 -4.0 53.95 L-3.55 54.45 Q-2.85 55.0 -1.5 55.25 2.75 56.15 11.5 53.95 L10.65 55.3 10.65 55.35 Q9.75 56.95 9.75 58.15 9.75 62.0 18.5 60.45 L21.75 63.25 24.55 65.45 31.0 70.1 M-61.7 -11.9 Q-70.35 -10.6 -76.95 -12.15 L-81.7 -13.9 -76.95 -12.15 Q-70.35 -10.6 -61.7 -11.9 M-15.7 46.1 Q-20.7 46.1 -21.7 42.45 L-21.7 38.75 Q-29.2 37.5 -27.85 32.7 -27.45 31.15 -26.15 29.5 L-25.0 28.1 -26.15 29.5 Q-27.45 31.15 -27.85 32.7 -29.2 37.5 -21.7 38.75 L-21.7 42.45 Q-20.7 46.1 -15.7 46.1" fill="#000000" fill-opacity="0.2" fill-rule="evenodd" stroke="none"/>
    <path d="M-42.35 -57.25 Q-15.0 -45.8 4.4 -44.7 L8.15 -44.6 18.05 -45.4 Q29.35 -47.4 33.0 -52.55 46.65 -79.85 62.2 -89.55 L63.25 -90.15 66.25 -91.75 Q71.8 -94.35 76.95 -94.4 L78.1 -94.35 M99.15 -84.6 Q98.95 -78.7 95.7 -70.5 L95.35 -69.6 95.0 -68.4 Q92.85 -61.05 95.75 -52.25 99.1 -42.25 99.75 -41.3 L100.45 -40.15 Q107.85 -19.95 97.15 1.05 93.5 8.2 87.4 15.95 L79.0 26.1 Q74.0 32.35 59.35 38.85 L45.65 44.1 Q44.0 55.35 37.35 63.85 L36.05 65.45 32.0 69.4 31.0 70.1 27.2 70.8 27.1 70.8 M19.45 70.5 L13.65 69.45 Q13.65 71.1 8.5 72.8 L8.25 72.9 M0.65 75.4 Q-2.25 75.8 -5.0 74.75 -8.9 73.85 -13.3 71.15 L-16.95 68.7 -22.35 64.1 Q-34.45 58.7 -42.3 45.2 -44.75 40.95 -46.45 36.45 L-47.7 32.75 Q-51.0 34.1 -54.35 30.75 L-51.7 25.45 -55.7 24.1 Q-57.35 21.2 -56.35 20.05 L-55.0 19.45 Q-65.45 18.2 -65.25 11.35 -65.2 9.2 -64.1 6.75 L-63.0 4.75 Q-75.1 6.85 -77.95 1.35 -78.8 -0.35 -78.65 -2.65 L-78.35 -4.55 Q-84.2 -7.05 -83.55 -10.7 -83.3 -11.85 -82.5 -13.0 L-81.7 -13.9 Q-87.95 -18.05 -90.75 -22.05 L-92.35 -25.25 -92.55 -26.0 -93.05 -28.5 -93.1 -29.55 Q-93.25 -33.05 -90.95 -34.5 L-89.35 -35.1 -88.3 -35.3 -88.2 -35.3 -88.05 -35.3 -87.8 -35.3 -87.55 -35.3 -87.0 -35.25 Q-103.25 -41.5 -100.1 -47.3 -99.5 -48.45 -98.15 -49.45 L-96.3 -50.7 -93.7 -51.9 Q-107.85 -58.55 -103.2 -63.2 L-102.75 -63.6 -100.15 -65.15 -99.0 -65.6 -98.55 -65.75 -98.05 -65.9 -95.7 -66.55 -103.95 -71.6 Q-106.85 -73.6 -107.25 -75.35 L-107.25 -75.4 Q-107.55 -76.7 -106.4 -77.9 -104.15 -79.85 -98.75 -77.65 -95.65 -76.4 -93.0 -74.55 L-97.05 -80.8 -98.0 -82.4 -98.25 -82.85 -98.35 -83.05 Q-99.35 -85.0 -99.65 -86.45 L-99.45 -88.9 -99.3 -89.25 Q-98.8 -90.05 -97.7 -90.55 -93.95 -92.25 -89.75 -88.9 -87.7 -87.25 -86.35 -85.25 -84.25 -103.15 -63.1 -82.0 L-61.25 -80.1 Q-52.25 -70.8 -43.6 -58.95 L-42.35 -57.25 M-89.5 -35.1 L-89.35 -35.1 M-60.9 -79.7 L-61.25 -80.1 M-93.0 -74.55 L-96.75 -80.3 -97.05 -80.8 M-99.05 -65.55 L-100.15 -65.15" fill="none" stroke="#000000" stroke-linecap="round" stroke-linejoin="round" stroke-width="1.0"/>
    <path d="M78.1 -94.35 L81.0 -93.9 Q98.05 -95.25 99.1 -85.2 L99.15 -84.6 M27.1 70.8 L19.8 70.55 19.45 70.5 M8.25 72.9 L6.3 73.45 Q3.4 75.05 0.65 75.4 M-35.7 -7.25 L-37.0 -5.1 Q-38.3 -2.55 -38.55 -0.6 -39.1 4.7 -31.55 4.45 L-28.35 4.1 M54.65 -7.9 Q58.05 -17.8 52.3 -29.25 M46.25 4.45 L50.3 0.0 Q52.25 -2.55 53.55 -5.15 L54.65 -7.9 M-83.45 -33.45 L-80.85 -32.15 Q-72.9 -29.0 -63.7 -28.55 M-95.7 -66.55 L-87.4 -59.15 Q-77.75 -51.45 -69.7 -49.25 M-50.85 -16.55 Q-50.4 -18.15 -49.4 -19.95 L-47.7 -22.55 Q-56.85 -23.8 -55.85 -28.3 -55.55 -29.7 -54.25 -31.25 L-53.0 -32.55 Q-66.35 -41.75 -58.8 -45.4 -56.45 -46.55 -52.3 -47.0 L-48.6 -47.25 M-87.0 -35.25 L-83.45 -33.45 M-86.35 -85.25 L-76.85 -76.05 Q-66.1 -65.35 -64.35 -61.9 M-81.7 -13.9 L-76.95 -12.15 Q-70.35 -10.6 -61.7 -11.9 M-50.85 -16.55 L-51.2 -14.4 -51.2 -14.25 Q-51.25 -11.55 -49.4 -9.85 -48.4 -9.05 -47.1 -8.5 L-45.35 -7.85 Q-41.55 -6.8 -35.7 -7.25 M-31.55 4.45 Q-33.65 5.35 -33.8 7.1 -33.65 9.1 -32.25 10.1 -28.15 13.0 -15.15 6.25 L-21.1 9.5 Q-28.6 14.7 -22.35 16.75 L-13.65 19.9 Q-7.65 21.95 -2.75 22.75 11.5 25.15 24.3 18.75 38.6 11.6 46.25 4.45" fill="none" stroke="#000000" stroke-linecap="round" stroke-linejoin="round" stroke-opacity="0.6" stroke-width="1.0"/>
    <path d="M-25.0 28.1 L-26.15 29.5 Q-27.45 31.15 -27.85 32.7 -29.2 37.5 -21.7 38.75 L-21.7 42.45 Q-20.7 46.1 -15.7 46.1 M8.3 34.1 L8.15 35.2 Q8.1 36.45 8.65 37.35 10.3 40.2 17.0 38.1 L16.4 39.3 Q15.85 40.7 15.9 41.7 16.05 44.85 22.3 42.75" fill="none" stroke="#000000" stroke-linecap="round" stroke-linejoin="round" stroke-opacity="0.4" stroke-width="1.0"/>
  </g>
</svg>
