<?xml version="1.0" encoding="UTF-8" standalone="no"?>
<svg xmlns:xlink="http://www.w3.org/1999/xlink" height="26.35px" width="28.55px" xmlns="http://www.w3.org/2000/svg">
  <g transform="matrix(1.0, 0.0, 0.0, 1.0, 0.6, 0.5)">
    <path d="M13.65 0.0 L13.75 0.0 Q19.4 0.0 23.45 3.7 27.45 7.4 27.45 12.65 27.45 17.9 23.45 21.65 19.4 25.35 13.75 25.35 8.05 25.35 4.05 21.65 0.45 18.3 0.05 13.75 2.25 15.0 4.95 15.0 9.1 15.0 12.05 12.05 15.0 9.15 15.0 5.05 15.0 2.25 13.65 0.0" fill="#ffffff" fill-opacity="0.0" fill-rule="evenodd" stroke="none"/>
    <path d="M0.05 13.75 L0.0 12.65 Q0.0 7.4 4.05 3.7 8.0 0.05 13.65 0.0 15.0 2.25 15.0 5.05 15.0 9.15 12.05 12.05 9.1 15.0 4.95 15.0 2.25 15.0 0.05 13.75" fill="#ffffff" fill-opacity="0.34901962" fill-rule="evenodd" stroke="none"/>
    <path d="M13.65 0.0 L13.75 0.0 Q19.4 0.0 23.45 3.7 27.45 7.4 27.45 12.65 27.45 17.9 23.45 21.65 19.4 25.35 13.75 25.35 8.05 25.35 4.05 21.65 0.45 18.3 0.05 13.75 L0.0 12.65 Q0.0 7.4 4.05 3.7 8.0 0.05 13.65 0.0 Z" fill="none" stroke="#000000" stroke-linecap="round" stroke-linejoin="miter-clip" stroke-miterlimit="4.0" stroke-width="1.0"/>
  </g>
</svg>
