<?xml version="1.0" encoding="UTF-8" standalone="no"?>
<svg xmlns:xlink="http://www.w3.org/1999/xlink" height="20.25px" width="71.1px" xmlns="http://www.w3.org/2000/svg">
  <g transform="matrix(1.0, 0.0, 0.0, 1.0, 35.55, 10.1)">
    <path d="M18.0 -5.4 Q15.7 -4.4 13.9 -2.9 11.45 -0.9 11.45 1.0 11.45 3.5 15.1 4.55 L20.55 5.1 21.4 8.75 Q16.55 8.75 13.2 7.7 8.25 6.1 7.25 2.45 L7.15 1.6 Q7.15 -1.6 10.85 -5.05 13.6 -7.7 17.1 -9.55 L18.0 -5.4 M29.7 -10.1 L33.55 -9.7 28.0 -0.2 35.55 6.1 32.15 8.65 25.1 1.7 25.75 9.4 22.5 9.75 20.7 -8.85 24.0 -9.45 24.75 -1.65 29.7 -10.1 M3.5 9.05 L2.3 5.3 -2.35 6.25 -2.7 9.5 -6.85 9.4 -3.45 -9.45 0.25 -9.55 7.65 8.45 3.5 9.05 M-7.4 -2.45 Q-7.4 1.15 -12.7 3.25 -12.2 5.4 -11.0 6.15 -10.0 6.9 -7.9 6.9 L-7.35 6.85 -6.85 6.8 -7.35 10.15 Q-13.1 9.85 -14.8 7.95 -15.7 7.0 -16.45 4.55 L-18.1 4.9 -18.3 9.4 -21.95 9.3 -21.9 8.75 Q-26.3 8.7 -29.5 7.7 -34.4 6.1 -35.45 2.45 L-35.55 1.6 Q-35.55 -1.6 -31.8 -5.05 -29.05 -7.7 -25.55 -9.55 L-24.7 -5.4 Q-27.0 -4.4 -28.75 -2.9 -31.15 -0.9 -31.15 1.0 -31.15 3.5 -27.6 4.55 L-22.15 5.1 -21.8 6.45 -21.05 -9.6 Q-16.3 -9.35 -12.8 -8.1 -7.4 -6.15 -7.4 -2.45 M-18.2 -6.15 L-18.5 1.15 Q-16.2 0.95 -14.65 0.3 -12.2 -0.65 -12.2 -2.55 -12.2 -4.55 -14.5 -5.45 -16.05 -6.05 -18.2 -6.15 M-1.95 2.9 L1.45 2.3 -1.0 -4.6 -1.95 2.9" fill="#000000" fill-rule="evenodd" stroke="none"/>
  </g>
</svg>
