<?xml version="1.0" encoding="UTF-8" standalone="no"?>
<svg xmlns:xlink="http://www.w3.org/1999/xlink" height="110.9px" width="111.6px" xmlns="http://www.w3.org/2000/svg">
  <g transform="matrix(1.0, 0.0, 0.0, 1.0, 55.8, 55.45)">
    <path d="M7.8 -4.0 L18.95 -19.2 Q24.6 -15.75 27.7 -6.15 L7.8 -4.0 M-18.35 21.0 L-3.45 7.6 -3.55 26.4 Q-10.2 26.95 -18.35 21.0 M-25.6 -11.25 L-8.2 -1.3 -26.15 4.4 Q-28.7 -1.75 -25.6 -11.25 M-1.15 -8.45 L-12.15 -23.75 Q-7.1 -28.1 2.95 -28.05 L-1.15 -8.45 M14.55 24.15 L6.35 5.85 24.25 11.75 Q22.7 18.3 14.55 24.15" fill="#ffffff" fill-opacity="0.0" fill-rule="evenodd" stroke="none"/>
    <path d="M25.5 -25.15 Q16.85 -33.6 5.35 -35.05 L0.4 -35.35 Q-11.7 -35.35 -20.85 -28.4 L-23.05 -26.65 -24.7 -25.15 -25.1 -24.8 Q-27.7 -22.15 -29.65 -19.3 L-31.05 -17.05 Q-33.4 -13.0 -34.55 -8.4 L-34.9 -6.8 Q-35.65 -3.25 -35.65 0.7 -35.65 4.65 -34.9 8.25 -33.8 13.75 -31.05 18.45 -29.3 21.5 -26.9 24.3 L-25.1 26.2 -23.05 28.05 -19.4 30.9 Q-16.85 32.6 -14.1 33.8 L-12.5 34.5 -10.65 35.15 Q-5.5 36.75 0.4 36.75 8.25 36.75 14.8 33.8 L17.65 32.45 20.1 30.9 21.15 30.25 Q23.6 28.45 25.85 26.2 L26.95 25.0 29.9 21.5 30.25 20.95 31.35 19.35 31.7 18.75 32.2 17.8 Q33.35 15.6 34.25 12.7 L35.1 9.75 35.25 9.0 35.65 7.45 Q36.5 3.75 36.7 0.25 L36.7 -0.25 36.65 -1.4 Q36.0 -10.15 31.7 -17.35 L29.9 -20.1 28.55 -21.8 27.9 -22.6 26.15 -24.5 25.85 -24.8 25.5 -25.15 M55.3 0.4 L55.3 0.9 55.25 3.55 55.05 6.15 Q53.0 24.9 39.2 38.7 22.95 54.95 0.05 54.95 -22.9 54.95 -39.05 38.7 -55.3 22.55 -55.3 -0.4 L-55.3 -0.9 -55.25 -3.5 -55.0 -6.15 Q-53.0 -24.9 -39.2 -38.7 -22.95 -54.95 -0.05 -54.95 22.9 -54.95 39.05 -38.7 55.3 -22.55 55.3 0.4" fill="#000000" fill-rule="evenodd" stroke="none"/>
    <path d="M25.5 -25.15 L25.85 -24.8 26.15 -24.5 27.9 -22.6 28.55 -21.8 29.9 -20.1 31.7 -17.35 Q36.0 -10.15 36.65 -1.4 L36.7 -0.25 36.7 0.25 Q36.5 3.75 35.65 7.45 L35.25 9.0 35.1 9.75 34.25 12.7 Q33.35 15.6 32.2 17.8 L31.7 18.75 31.35 19.35 30.25 20.95 29.9 21.5 26.95 25.0 25.85 26.2 Q23.6 28.45 21.15 30.25 L20.1 30.9 17.65 32.45 14.8 33.8 Q8.25 36.75 0.4 36.75 -5.5 36.75 -10.65 35.15 L-12.5 34.5 -14.1 33.8 Q-16.85 32.6 -19.4 30.9 L-23.05 28.05 -25.1 26.2 -26.9 24.3 Q-29.3 21.5 -31.05 18.45 -33.8 13.75 -34.9 8.25 -35.65 4.65 -35.65 0.7 -35.65 -3.25 -34.9 -6.8 L-34.55 -8.4 Q-33.4 -13.0 -31.05 -17.05 L-29.65 -19.3 Q-27.7 -22.15 -25.1 -24.8 L-24.7 -25.15 -23.05 -26.65 -20.85 -28.4 Q-11.7 -35.35 0.4 -35.35 L5.35 -35.05 Q16.85 -33.6 25.5 -25.15 M7.8 -4.0 L27.7 -6.15 Q24.6 -15.75 18.95 -19.2 L7.8 -4.0 M14.55 24.15 Q22.7 18.3 24.25 11.75 L6.35 5.85 14.55 24.15 M-1.15 -8.45 L2.95 -28.05 Q-7.1 -28.1 -12.15 -23.75 L-1.15 -8.45 M-25.6 -11.25 Q-28.7 -1.75 -26.15 4.4 L-8.2 -1.3 -25.6 -11.25 M-18.35 21.0 Q-10.2 26.95 -3.55 26.4 L-3.45 7.6 -18.35 21.0" fill="#000000" fill-opacity="0.2" fill-rule="evenodd" stroke="none"/>
    <path d="M55.3 0.4 Q55.3 -22.55 39.05 -38.7 22.9 -54.95 -0.05 -54.95 -22.95 -54.95 -39.2 -38.7 -53.0 -24.9 -55.0 -6.15 L-55.25 -3.5 -55.3 -0.9 -55.3 -0.4 Q-55.3 22.55 -39.05 38.7 -22.9 54.95 0.05 54.95 22.95 54.95 39.2 38.7 53.0 24.9 55.05 6.15 L55.25 3.55 55.3 0.9 55.3 0.4" fill="none" stroke="#000000" stroke-linecap="round" stroke-linejoin="round" stroke-width="1.0"/>
    <path d="M25.5 -25.15 Q16.85 -33.6 5.35 -35.05 L0.4 -35.35 Q-11.7 -35.35 -20.85 -28.4 L-23.05 -26.65 -24.7 -25.15 -25.1 -24.8 Q-27.7 -22.15 -29.65 -19.3 L-31.05 -17.05 Q-33.4 -13.0 -34.55 -8.4 L-34.9 -6.8 Q-35.65 -3.25 -35.65 0.7 -35.65 4.65 -34.9 8.25 -33.8 13.75 -31.05 18.45 -29.3 21.5 -26.9 24.3 L-25.1 26.2 -23.05 28.05 -19.4 30.9 Q-16.85 32.6 -14.1 33.8 L-12.5 34.5 -10.65 35.15 Q-5.5 36.75 0.4 36.75 8.25 36.75 14.8 33.8 L17.65 32.45 20.1 30.9 21.15 30.25 Q23.6 28.45 25.85 26.2 L26.95 25.0 29.9 21.5 30.25 20.95 31.35 19.35 31.7 18.75 32.2 17.8 Q33.35 15.6 34.25 12.7 L35.1 9.75 35.25 9.0 35.65 7.45 Q36.5 3.75 36.7 0.25 L36.7 -0.25 36.65 -1.4 Q36.0 -10.15 31.7 -17.35 L29.9 -20.1 28.55 -21.8 27.9 -22.6 26.15 -24.5 25.85 -24.8 25.5 -25.15 M7.8 -4.0 L27.7 -6.15 Q24.6 -15.75 18.95 -19.2 L7.8 -4.0 M14.55 24.15 Q22.7 18.3 24.25 11.75 L6.35 5.85 14.55 24.15 M-1.15 -8.45 L2.95 -28.05 Q-7.1 -28.1 -12.15 -23.75 L-1.15 -8.45 M-25.6 -11.25 Q-28.7 -1.75 -26.15 4.4 L-8.2 -1.3 -25.6 -11.25 M-18.35 21.0 Q-10.2 26.95 -3.55 26.4 L-3.45 7.6 -18.35 21.0" fill="none" stroke="#000000" stroke-linecap="round" stroke-linejoin="round" stroke-opacity="0.6" stroke-width="1.0"/>
  </g>
</svg>
