<?xml version="1.0" encoding="UTF-8" standalone="no"?>
<svg xmlns:xlink="http://www.w3.org/1999/xlink" height="282.5px" width="716.8px" xmlns="http://www.w3.org/2000/svg">
  <g transform="matrix(1.0, 0.0, 0.0, 1.0, 355.1, 161.75)">
    <path d="M83.15 -118.95 L103.95 -119.3 Q330.1 -123.0 333.45 -123.3 334.1 -121.85 340.25 -74.9 347.3 -20.55 349.8 13.0 L350.3 20.9 330.85 20.9 Q328.65 20.9 327.1 22.45 325.6 24.0 325.6 26.15 L325.6 29.15 Q325.6 31.35 327.1 32.85 328.65 34.4 330.85 34.4 L350.85 34.4 351.0 39.9 339.85 39.9 Q337.65 39.9 336.1 41.45 334.6 43.0 334.6 45.15 L334.6 48.15 Q334.6 50.35 336.1 51.85 337.65 53.4 339.85 53.4 L351.2 53.4 351.15 68.0 167.15 71.85 Q157.25 66.55 144.0 67.2 133.0 67.8 124.75 71.85 L86.35 72.15 85.55 17.15 85.0 -20.65 85.05 -21.05 Q83.95 -109.4 83.15 -118.95 83.95 -109.4 85.05 -21.05 L85.0 -20.65 85.55 17.15 86.35 72.15 -121.6 73.7 -239.0 74.55 Q-240.4 72.75 -244.75 69.15 -249.1 65.55 -251.25 64.45 -262.15 58.7 -278.85 60.9 -287.15 62.05 -295.25 66.75 -302.15 70.75 -305.9 75.55 -309.55 80.15 -313.9 89.35 L-322.55 89.75 -323.65 89.85 -332.5 89.25 -341.35 88.9 -349.2 88.1 -349.5 71.25 Q-347.9 72.05 -344.05 72.65 L-337.7 73.05 Q-335.35 71.65 -335.4 58.1 -335.45 52.2 -336.05 43.1 -336.15 41.25 -342.0 41.15 L-347.25 41.4 Q-344.9 31.3 -340.25 26.6 -294.75 -18.9 -243.25 -66.9 L-197.45 -109.3 -197.35 -109.4 Q-193.6 -111.65 -124.0 -115.5 L83.15 -118.95 M64.25 -100.55 L64.2 -100.6 Q57.45 -107.55 44.1 -107.35 L-59.5 -105.8 Q-73.0 -105.65 -79.5 -98.55 L-79.55 -98.5 Q-86.5 -91.8 -86.3 -78.35 L-85.9 -41.7 Q-85.55 -14.65 -58.45 -14.85 L45.15 -16.4 Q56.65 -16.6 63.05 -21.75 72.1 -28.55 71.9 -43.85 L71.45 -80.55 Q71.25 -94.0 64.25 -100.55 M-168.2 -103.3 Q-182.5 -103.8 -215.75 -73.1 L-215.75 -73.05 -215.8 -73.05 Q-231.4 -58.95 -244.5 -44.7 L-244.55 -44.65 -244.65 -44.55 -244.6 -44.6 -244.7 -44.5 -244.8 -44.4 Q-251.0 -38.6 -252.1 -33.6 L-252.1 -33.65 Q-254.1 -26.9 -248.9 -21.55 -241.15 -12.7 -210.2 -13.95 L-210.1 -13.95 -209.95 -13.95 -166.8 -14.6 Q-139.8 -15.1 -140.1 -42.15 L-140.6 -76.75 Q-140.9 -91.45 -145.3 -96.2 -150.55 -103.65 -168.15 -103.3 L-168.2 -103.3 M-124.0 -115.5 L-122.95 -21.05 -123.0 -20.65 -122.45 17.15 -121.6 73.7 -122.45 17.15 -123.0 -20.65 -122.95 -21.05 -124.0 -115.5 M-102.55 -10.55 L-110.1 -10.45 -109.9 9.55 -102.35 9.4 -102.55 -10.55 -102.35 9.4 -109.9 9.55 -110.1 -10.45 -102.55 -10.55 M-130.6 -10.2 L-138.15 -10.1 -138.0 9.9 -130.4 9.85 -130.6 -10.2 -130.4 9.85 -138.0 9.9 -138.15 -10.1 -130.6 -10.2" fill="#ffffff" fill-opacity="0.0" fill-rule="evenodd" stroke="none"/>
    <path d="M64.25 -100.55 Q71.25 -94.0 71.45 -80.55 L71.9 -43.85 Q72.1 -28.55 63.05 -21.75 56.65 -16.6 45.15 -16.4 L-58.45 -14.85 Q-85.55 -14.65 -85.9 -41.7 L-86.3 -78.35 Q-86.5 -91.8 -79.55 -98.5 L-79.5 -98.55 Q-73.0 -105.65 -59.5 -105.8 L44.1 -107.35 Q57.45 -107.55 64.2 -100.6 L64.25 -100.55 M65.95 -80.5 Q65.65 -102.15 44.15 -101.85 L-59.45 -100.3 Q-81.1 -100.05 -80.8 -78.45 L-80.4 -41.8 Q-80.1 -20.2 -58.5 -20.35 L45.05 -21.9 Q54.4 -22.05 59.65 -26.1 66.55 -31.6 66.4 -43.8 L66.25 -55.35 65.95 -80.5 M-168.2 -103.3 L-168.15 -103.3 Q-150.55 -103.65 -145.3 -96.2 -140.9 -91.45 -140.6 -76.75 L-140.1 -42.15 Q-139.8 -15.1 -166.8 -14.6 L-209.95 -13.95 -210.1 -13.95 -210.2 -13.95 Q-241.15 -12.7 -248.9 -21.55 -254.1 -26.9 -252.1 -33.65 L-252.1 -33.6 Q-251.0 -38.6 -244.8 -44.4 L-244.7 -44.5 -244.6 -44.6 -244.65 -44.55 -244.55 -44.65 -244.5 -44.7 Q-231.4 -58.95 -215.8 -73.05 L-215.75 -73.05 -215.75 -73.1 Q-182.5 -103.8 -168.2 -103.3 M-240.75 -40.7 Q-250.8 -31.4 -244.95 -25.4 -237.9 -18.3 -210.2 -19.45 L-166.9 -20.1 Q-145.35 -20.5 -145.6 -42.1 L-146.1 -76.65 Q-146.35 -88.75 -149.6 -92.75 -153.95 -98.1 -168.15 -97.8 -181.0 -97.7 -212.05 -69.05 -227.65 -54.9 -240.75 -40.7" fill="#000000" fill-opacity="0.29803923" fill-rule="evenodd" stroke="none"/>
    <path d="M351.2 53.4 L339.85 53.4 Q337.65 53.4 336.1 51.85 334.6 50.35 334.6 48.15 L334.6 45.15 Q334.6 43.0 336.1 41.45 337.65 39.9 339.85 39.9 L351.0 39.9 354.1 39.9 356.5 44.5 Q358.1 47.75 353.8 53.4 L351.2 53.4 M350.85 34.4 L330.85 34.4 Q328.65 34.4 327.1 32.85 325.6 31.35 325.6 29.15 L325.6 26.15 Q325.6 24.0 327.1 22.45 328.65 20.9 330.85 20.9 L350.3 20.9 353.7 20.9 Q359.2 27.25 354.15 34.4 L350.85 34.4 M-347.25 41.4 L-342.0 41.15 Q-336.15 41.25 -336.05 43.1 -335.45 52.2 -335.4 58.1 -335.35 71.65 -337.7 73.05 L-344.05 72.65 Q-347.9 72.05 -349.5 71.25 L-350.6 70.3 Q-357.55 55.65 -347.85 41.45 L-347.25 41.4" fill="#ffffff" fill-rule="evenodd" stroke="none"/>
    <path d="M124.75 71.85 Q133.0 67.8 144.0 67.2 157.25 66.55 167.15 71.85 174.3 76.7 175.8 77.9 183.4 85.2 187.4 93.15 191.4 101.1 193.0 112.45 L193.2 114.3 200.85 114.25 Q340.25 113.2 345.75 112.4 348.4 111.95 349.75 99.75 L354.2 99.75 Q361.2 99.75 361.2 92.75 L361.2 85.05 Q361.2 78.05 354.2 78.05 L351.0 78.05 351.1 70.7 351.15 68.0 351.2 53.4 M351.0 39.9 L350.85 34.4 M350.3 20.9 L349.8 13.0 Q347.3 -20.55 340.25 -74.9 334.1 -121.85 333.45 -123.3 334.85 -123.4 334.0 -129.35 333.05 -136.15 329.25 -142.6 318.25 -161.65 292.2 -161.25 -132.1 -153.35 -149.3 -146.75 -154.05 -144.8 -174.1 -128.9 -192.05 -114.55 -197.35 -109.4 L-197.45 -109.3 -243.25 -66.9 Q-294.75 -18.9 -340.25 26.6 -344.9 31.3 -347.25 41.4 M65.95 -80.5 Q65.65 -102.15 44.15 -101.85 L-59.45 -100.3 Q-81.1 -100.05 -80.8 -78.45 L-80.4 -41.8 Q-80.1 -20.2 -58.5 -20.35 L45.05 -21.9 Q54.4 -22.05 59.65 -26.1 66.55 -31.6 66.4 -43.8 L66.25 -55.35 65.95 -80.5 M353.7 20.9 Q359.2 27.25 354.15 34.4 M354.1 39.9 L356.5 44.5 Q358.1 47.75 353.8 53.4 M-239.0 74.55 Q-229.4 86.95 -226.8 104.85 -225.95 112.3 -226.4 119.1 L87.55 114.7 93.95 114.85 102.15 115.05 Q102.1 106.1 103.5 100.3 105.0 93.4 109.1 86.7 111.8 82.65 116.3 78.15 121.05 73.75 124.75 71.85 M-349.5 71.25 L-349.2 88.1 Q-354.55 86.7 -354.6 89.5 -354.35 104.0 -341.75 112.65 -334.05 117.85 -324.7 119.55 L-315.2 120.25 Q-316.5 115.35 -316.95 109.5 -317.85 97.95 -313.9 89.35 -309.55 80.15 -305.9 75.55 -302.15 70.75 -295.25 66.75 -287.15 62.05 -278.85 60.9 -262.15 58.7 -251.25 64.45 -249.1 65.55 -244.75 69.15 -240.4 72.75 -239.0 74.55 M-240.75 -40.7 Q-250.8 -31.4 -244.95 -25.4 -237.9 -18.3 -210.2 -19.45 L-166.9 -20.1 Q-145.35 -20.5 -145.6 -42.1 L-146.1 -76.65 Q-146.35 -88.75 -149.6 -92.75 -153.95 -98.1 -168.15 -97.8 -181.0 -97.7 -212.05 -69.05 -227.65 -54.9 -240.75 -40.7 M-350.6 70.3 Q-357.55 55.65 -347.85 41.45" fill="none" stroke="#000000" stroke-linecap="round" stroke-linejoin="round" stroke-width="1.0"/>
    <path d="M64.25 -100.55 Q71.25 -94.0 71.45 -80.55 L71.9 -43.85 Q72.1 -28.55 63.05 -21.75 56.65 -16.6 45.15 -16.4 L-58.45 -14.85 Q-85.55 -14.65 -85.9 -41.7 L-86.3 -78.35 Q-86.5 -91.8 -79.55 -98.5 L-79.5 -98.55 Q-73.0 -105.65 -59.5 -105.8 L44.1 -107.35 Q57.45 -107.55 64.2 -100.6 L64.25 -100.55 M-168.2 -103.3 Q-182.5 -103.8 -215.75 -73.1 L-215.75 -73.05 -215.8 -73.05 Q-231.4 -58.95 -244.5 -44.7 L-244.55 -44.65 -244.65 -44.55 -244.6 -44.6 -244.7 -44.5 -244.8 -44.4 Q-251.0 -38.6 -252.1 -33.6 L-252.1 -33.65 Q-254.1 -26.9 -248.9 -21.55 -241.15 -12.7 -210.2 -13.95 L-210.1 -13.95 -209.95 -13.95 -166.8 -14.6 Q-139.8 -15.1 -140.1 -42.15 L-140.6 -76.75 Q-140.9 -91.45 -145.3 -96.2 -150.55 -103.65 -168.15 -103.3 L-168.2 -103.3 M-130.6 -10.2 L-130.4 9.85 -138.0 9.9 -138.15 -10.1 -130.6 -10.2 M-102.55 -10.55 L-102.35 9.4 -109.9 9.55 -110.1 -10.45 -102.55 -10.55" fill="none" stroke="#000000" stroke-linecap="round" stroke-linejoin="round" stroke-opacity="0.4" stroke-width="1.0"/>
    <path d="M333.45 -123.3 Q330.1 -123.0 103.95 -119.3 L83.15 -118.95 Q83.95 -109.4 85.05 -21.05 L85.0 -20.65 85.55 17.15 86.35 72.15 124.75 71.85 M167.15 71.85 L351.15 68.0 M351.2 53.4 L339.85 53.4 Q337.65 53.4 336.1 51.85 334.6 50.35 334.6 48.15 L334.6 45.15 Q334.6 43.0 336.1 41.45 337.65 39.9 339.85 39.9 L351.0 39.9 354.1 39.9 M350.85 34.4 L330.85 34.4 Q328.65 34.4 327.1 32.85 325.6 31.35 325.6 29.15 L325.6 26.15 Q325.6 24.0 327.1 22.45 328.65 20.9 330.85 20.9 L350.3 20.9 353.7 20.9 M-197.35 -109.4 Q-193.6 -111.65 -124.0 -115.5 L83.15 -118.95 M354.15 34.4 L350.85 34.4 M353.8 53.4 L351.2 53.4 M351.0 78.05 L324.85 78.05 Q317.85 78.05 317.85 85.05 L317.85 92.75 Q317.85 99.75 324.85 99.75 L349.75 99.75 M-347.25 41.4 L-342.0 41.15 Q-336.15 41.25 -336.05 43.1 -335.45 52.2 -335.4 58.1 -335.35 71.65 -337.7 73.05 L-344.05 72.65 Q-347.9 72.05 -349.5 71.25 L-350.6 70.3 M-349.2 88.1 L-341.35 88.9 -332.5 89.25 -323.65 89.85 -322.55 89.75 -313.9 89.35 M-239.0 74.55 L-121.6 73.7 -122.45 17.15 -123.0 -20.65 -122.95 -21.05 -124.0 -115.5 M-347.85 41.45 L-347.25 41.4 M86.35 72.15 L-121.6 73.7" fill="none" stroke="#000000" stroke-linecap="round" stroke-linejoin="round" stroke-opacity="0.6" stroke-width="1.0"/>
  </g>
</svg>
