<?xml version="1.0" encoding="UTF-8" standalone="no"?>
<svg xmlns:xlink="http://www.w3.org/1999/xlink" height="28.2px" width="27.2px" xmlns="http://www.w3.org/2000/svg">
  <g transform="matrix(1.0, 0.0, 0.0, 1.0, 13.6, 14.55)">
    <path d="M-11.3 -7.05 Q-12.3 -7.6 -12.4 -8.2 L-12.55 -8.5 -12.95 -13.0 Q-12.85 -12.35 -11.9 -11.8 -11.0 -11.25 -9.25 -10.85 L-8.9 -10.7 Q-5.15 -9.8 -0.05 -9.8 4.95 -9.8 8.65 -10.7 L9.15 -10.85 Q10.9 -11.25 11.85 -11.8 12.65 -12.25 12.9 -12.9 L12.15 -8.45 12.1 -8.15 Q11.95 -7.55 10.9 -7.0 L8.55 -6.15 Q4.9 -5.2 -0.15 -5.2 -5.25 -5.2 -8.9 -6.15 L-11.3 -7.05 -8.9 -6.15 Q-5.25 -5.2 -0.15 -5.2 4.9 -5.2 8.55 -6.15 L10.9 -7.0 8.7 10.7 8.65 10.9 Q8.4 11.75 6.1 12.35 L-0.15 13.0 -6.5 12.35 Q-8.8 11.75 -9.0 10.9 L-11.3 -7.05" fill="#ffffff" fill-opacity="0.0" fill-rule="evenodd" stroke="none"/>
    <path d="M10.9 -7.0 Q11.95 -7.55 12.1 -8.15 L12.15 -8.45 12.9 -12.9 Q12.65 -12.25 11.85 -11.8 10.9 -11.25 9.15 -10.85 L8.65 -10.7 Q4.95 -9.8 -0.05 -9.8 -5.15 -9.8 -8.9 -10.7 L-9.25 -10.85 Q-11.0 -11.25 -11.9 -11.8 -12.85 -12.35 -12.95 -13.0 L-12.55 -8.5 -12.4 -8.2 Q-12.3 -7.6 -11.3 -7.05 L-9.0 10.9 Q-8.8 11.75 -6.5 12.35 L-0.15 13.0 6.1 12.35 Q8.4 11.75 8.65 10.9 L8.7 10.7 10.9 -7.0" fill="none" stroke="#000000" stroke-linecap="round" stroke-linejoin="miter-clip" stroke-miterlimit="3.0" stroke-width="1.0"/>
    <path d="M-11.3 -7.05 L-8.9 -6.15 Q-5.25 -5.2 -0.15 -5.2 4.9 -5.2 8.55 -6.15 L10.9 -7.0" fill="none" stroke="#000000" stroke-linecap="round" stroke-linejoin="miter-clip" stroke-miterlimit="3.0" stroke-opacity="0.4" stroke-width="1.0"/>
  </g>
</svg>
