<?xml version="1.0" encoding="UTF-8" standalone="no"?>
<svg xmlns:xlink="http://www.w3.org/1999/xlink" height="127.7px" width="129.2px" xmlns="http://www.w3.org/2000/svg">
  <g transform="matrix(1.0, 0.0, 0.0, 1.0, 68.75, 115.3)">
    <path d="M-5.7 -16.35 L-5.7 -16.0 -5.8 -16.0 -5.7 -16.35 M-5.2 -22.55 L-5.75 -22.4 -5.6 -22.75 -5.2 -22.55 M-46.75 -22.4 L-46.6 -22.75 -46.2 -22.55 -46.75 -22.4 M-46.7 -16.0 L-46.8 -16.0 -46.7 -16.35 -46.7 -16.0" fill="#c8cacb" fill-rule="evenodd" stroke="none"/>
    <path d="M12.0 -101.95 L12.2 -85.35 11.9 -85.25 12.2 -85.35 12.2 -85.15 12.2 -85.1 12.25 -79.75 11.9 -79.75 11.9 -85.25 12.0 -101.95 M22.55 -85.3 L22.55 -106.85 22.6 -111.05 22.85 -85.25 22.55 -85.3 M3.5 -31.25 L3.5 -31.3 60.45 -31.3 60.45 -31.25 3.5 -31.25 M-63.55 -31.25 L-63.55 -31.3 -23.15 -31.3 -23.15 -31.25 -63.55 -31.25" fill="#caccce" fill-rule="evenodd" stroke="none"/>
    <path d="M-25.65 -38.85 L-25.65 -39.2 -25.55 -38.85 -25.65 -38.85" fill="#ffffff" fill-rule="evenodd" stroke="none"/>
    <path d="M-36.0 -12.05 L-35.9 -12.0 -36.0 -12.0 -36.0 -12.05" fill="#dfe0e1" fill-rule="evenodd" stroke="none"/>
    <path d="M11.95 -107.5 Q17.45 -109.1 22.55 -106.85 L22.55 -85.3 Q16.75 -86.7 12.2 -85.35 L12.0 -101.95 11.95 -107.5 M5.8 -61.35 Q11.25 -62.95 16.4 -60.7 L16.4 -38.75 16.4 -38.6 Q10.85 -40.2 6.1 -38.55 L6.0 -39.0 5.8 -61.35 M4.9 -15.7 L4.9 -12.1 Q1.85 -13.45 -1.55 -13.3 L-4.95 -12.65 -5.65 -12.4 -5.7 -16.0 -5.7 -16.35 -4.95 -16.55 Q0.1 -17.8 4.9 -15.7 M5.15 2.55 L5.2 2.55 5.2 5.1 5.2 5.95 4.9 5.95 Q-0.75 4.6 -4.95 5.95 L-5.5 6.15 -5.55 2.25 -5.5 2.25 -5.5 2.65 -4.95 2.35 Q-1.6 0.65 1.8 1.45 L5.0 2.5 5.15 2.55 5.2 5.1 5.15 2.55 M-25.95 -60.7 L-25.85 -60.7 -25.65 -39.2 Q-31.45 -40.5 -36.3 -38.75 L-36.55 -61.35 Q-31.05 -62.95 -25.95 -60.7 M-57.55 -60.7 L-57.3 -39.2 -63.55 -39.75 Q-65.85 -39.65 -68.0 -38.85 L-68.2 -61.35 -63.55 -62.0 Q-60.55 -62.0 -57.6 -60.7 L-57.55 -60.7 M-35.85 2.8 L-35.8 6.0 -35.8 6.05 Q-41.6 4.35 -46.4 6.15 L-46.5 5.85 -46.55 2.65 -46.5 2.65 Q-42.9 0.6 -39.2 1.45 L-36.0 2.55 -35.85 2.8 M-46.65 -12.4 L-46.7 -16.0 -46.7 -16.35 Q-41.25 -17.95 -36.1 -15.7 L-36.1 -12.1 Q-39.15 -13.45 -42.55 -13.3 -44.8 -13.15 -46.65 -12.4" fill="#ffffff" fill-opacity="0.0" fill-rule="evenodd" stroke="none"/>
    <path d="M22.55 -106.85 Q17.45 -109.1 11.95 -107.5 L11.9 -113.6 15.6 -114.6 Q19.85 -115.25 22.55 -113.6 L22.6 -111.05 22.55 -106.85 M12.2 -85.35 Q16.75 -86.7 22.55 -85.3 L22.55 -79.25 12.25 -79.25 12.25 -79.75 12.2 -85.1 12.2 -85.15 12.2 -85.35 M16.4 -60.7 Q11.25 -62.95 5.8 -61.35 L5.75 -67.4 9.45 -68.4 Q13.7 -69.1 16.4 -67.4 L16.4 -60.7 M4.9 -12.1 L5.0 -12.05 4.9 -12.1 5.15 2.55 5.0 2.5 1.8 1.45 Q-1.6 0.65 -4.95 2.35 L-5.5 2.65 -5.5 2.25 -5.65 -12.4 -4.95 -12.65 -1.55 -13.3 Q1.85 -13.45 4.9 -12.1 M4.95 -18.35 L4.9 -15.7 Q0.1 -17.8 -4.95 -16.55 L-5.7 -16.35 -5.75 -22.4 -5.2 -22.55 -2.05 -23.4 Q2.2 -24.1 4.9 -22.4 L4.95 -18.35 M-25.95 -60.7 Q-31.05 -62.95 -36.55 -61.35 L-36.6 -67.4 -32.9 -68.4 Q-28.65 -69.1 -25.95 -67.4 L-25.9 -64.05 -25.95 -60.7 M-68.2 -61.35 L-68.25 -67.4 -64.55 -68.4 -63.55 -68.5 Q-60.0 -68.9 -57.6 -67.4 L-57.55 -63.0 -57.6 -60.7 Q-60.55 -62.0 -63.55 -62.0 L-68.2 -61.35 M-46.75 -22.4 L-46.2 -22.55 -43.05 -23.4 Q-38.8 -24.1 -36.1 -22.4 L-36.05 -18.35 -36.1 -15.7 Q-41.25 -17.95 -46.7 -16.35 L-46.75 -22.4 M-36.0 -12.0 L-35.85 2.55 -35.85 2.6 -36.0 2.55 -39.2 1.45 Q-42.9 0.6 -46.5 2.65 L-46.55 0.45 -46.65 -12.4 Q-44.8 -13.15 -42.55 -13.3 -39.15 -13.45 -36.1 -12.1 L-36.0 -12.05 -36.0 -12.0" fill="#000000" fill-opacity="0.101960786" fill-rule="evenodd" stroke="none"/>
    <path d="M6.1 -38.55 Q10.85 -40.2 16.4 -38.6 L16.4 -33.1 6.05 -33.1 6.0 -38.55 6.1 -38.55 M5.2 6.0 L5.2 11.9 -5.45 11.9 -5.5 6.15 -4.95 5.95 Q-0.75 4.6 4.9 5.95 L5.2 6.0 M-24.2 -79.9 L-34.5 -80.25 -47.35 -96.4 -47.35 -110.2 Q-41.95 -102.15 -37.65 -96.8 L-34.8 -93.25 -24.2 -79.9 M-36.3 -38.75 Q-31.45 -40.5 -25.65 -39.2 L-25.65 -38.85 -25.6 -33.1 -36.25 -33.1 -36.3 -38.75 M-57.3 -39.2 L-57.25 -33.1 -67.95 -33.1 -68.0 -38.85 Q-65.85 -39.65 -63.55 -39.75 L-57.3 -39.2 M-35.8 6.05 L-35.75 11.9 -46.45 11.9 -46.5 6.15 -46.4 6.15 Q-41.6 4.35 -35.8 6.05" fill="#000000" fill-opacity="0.2" fill-rule="evenodd" stroke="none"/>
    <path d="M11.95 -107.5 L12.0 -101.95 12.2 -85.35 12.2 -85.15 M22.55 -85.3 L22.55 -106.85 22.6 -111.05 22.55 -113.6 Q19.85 -115.25 15.6 -114.6 L11.9 -113.6 11.95 -107.5 M12.25 -79.75 L12.25 -79.25 22.55 -79.25 22.55 -85.3 M12.2 -85.1 L12.25 -79.75 M16.4 -60.7 L16.4 -67.4 Q13.7 -69.1 9.45 -68.4 L5.75 -67.4 5.8 -61.35 6.0 -39.0 6.0 -38.55 6.05 -33.1 16.4 -33.1 16.4 -38.6 16.4 -38.75 16.4 -60.7 M4.9 -15.7 L4.9 -12.1 5.0 -12.05 4.95 -18.35 4.9 -22.4 Q2.2 -24.1 -2.05 -23.4 L-5.2 -22.55 -5.75 -22.4 -5.7 -16.35 -5.7 -16.0 -5.65 -12.4 -5.5 2.25 -5.5 2.65 M5.2 5.1 L5.2 5.95 5.2 6.0 5.2 11.9 -5.45 11.9 -5.5 6.15 -5.55 2.25 M5.15 2.55 L5.2 5.1 M5.15 2.55 L5.0 2.5 M4.9 -12.1 L5.15 2.55 M-24.2 -79.9 L-34.5 -80.25 -47.35 -96.4 -47.35 -110.2 M-36.55 -61.35 L-36.3 -38.75 -36.25 -33.1 -25.6 -33.1 -25.65 -38.85 -25.65 -39.2 -25.85 -60.7 -25.9 -64.05 -25.95 -60.7 M-25.9 -64.05 L-25.95 -67.4 Q-28.65 -69.1 -32.9 -68.4 L-36.6 -67.4 -36.55 -61.35 M-68.2 -61.35 L-68.25 -67.4 -64.55 -68.4 -63.55 -68.5 Q-60.0 -68.9 -57.6 -67.4 L-57.55 -63.0 -57.55 -60.7 -57.3 -39.2 -57.25 -33.1 -67.95 -33.1 -68.0 -38.85 -68.2 -61.35 M-63.55 -31.3 L-63.55 -31.25 M-46.75 -22.4 L-46.2 -22.55 -43.05 -23.4 Q-38.8 -24.1 -36.1 -22.4 L-36.05 -18.35 -36.0 -12.05 -35.9 -12.0 M-36.0 -12.0 L-35.85 2.55 -35.85 2.6 -35.85 2.8 -35.8 6.0 M-35.8 6.05 L-35.75 11.9 -46.45 11.9 -46.5 6.15 -46.5 5.85 -46.55 2.65 -46.55 0.45 -46.65 -12.4 -46.7 -16.0 -46.7 -16.35 -46.75 -22.4 M-36.1 -12.1 L-36.1 -15.7 M-36.0 -12.05 L-36.0 -12.0 M-5.6 -22.75 L-5.2 -22.55 M-35.85 2.8 L-36.0 2.55 M-46.55 0.45 L-46.5 2.65" fill="none" stroke="#000000" stroke-linecap="round" stroke-linejoin="round" stroke-opacity="0.6" stroke-width="1.0"/>
    <path d="M22.55 -106.85 Q17.45 -109.1 11.95 -107.5 M12.2 -85.35 Q16.75 -86.7 22.55 -85.3 M11.9 -85.25 L12.2 -85.35 M5.8 -61.35 Q11.25 -62.95 16.4 -60.7 M6.1 -38.55 Q10.85 -40.2 16.4 -38.6 M6.0 -38.55 L6.1 -38.55 M4.9 -15.7 Q0.1 -17.8 -4.95 -16.55 L-5.7 -16.35 M-5.65 -12.4 L-4.95 -12.65 -1.55 -13.3 Q1.85 -13.45 4.9 -12.1 M-5.8 -16.0 L-5.7 -16.0 M5.15 2.55 L5.2 2.55 M5.0 2.5 L1.8 1.45 Q-1.6 0.65 -4.95 2.35 L-5.5 2.65 M4.9 5.95 L5.2 6.0 M-47.35 -110.2 Q-41.95 -102.15 -37.65 -96.8 L-34.8 -93.25 -24.2 -79.9 M-25.95 -60.7 Q-31.05 -62.95 -36.55 -61.35 M-36.3 -38.75 Q-31.45 -40.5 -25.65 -39.2 M-68.2 -61.35 L-63.55 -62.0 Q-60.55 -62.0 -57.6 -60.7 M-57.3 -39.2 L-63.55 -39.75 Q-65.85 -39.65 -68.0 -38.85 M-46.7 -16.0 L-46.8 -16.0 M-46.7 -16.35 Q-41.25 -17.95 -36.1 -15.7 M-46.65 -12.4 Q-44.8 -13.15 -42.55 -13.3 -39.15 -13.45 -36.1 -12.1 M-25.55 -38.85 L-25.65 -38.85 M-5.5 6.15 L-4.95 5.95 Q-0.75 4.6 4.9 5.95 M-36.0 2.55 L-39.2 1.45 Q-42.9 0.6 -46.5 2.65 M-35.85 2.6 L-36.0 2.55 M-46.5 6.15 L-46.4 6.15 Q-41.6 4.35 -35.8 6.05" fill="none" stroke="#000000" stroke-linecap="round" stroke-linejoin="round" stroke-opacity="0.4" stroke-width="1.0"/>
  </g>
</svg>
