<?xml version="1.0" encoding="UTF-8" standalone="no"?>
<svg xmlns:xlink="http://www.w3.org/1999/xlink" height="73.35px" width="315.7px" xmlns="http://www.w3.org/2000/svg">
  <g transform="matrix(1.0, 0.0, 0.0, 1.0, 157.85, 41.9)">
    <path d="M55.55 -15.25 L28.75 6.4 -1.6 30.9 -4.2 30.95 -6.8 28.95 Q-9.75 26.95 -13.1 25.8 L-15.9 25.1 -24.2 30.85 -39.6 30.2 Q-61.55 28.9 -80.65 25.6 L-95.3 22.6 Q-115.65 13.85 -138.55 -10.65 -145.7 -18.3 -152.25 -26.6 L-157.35 -33.4 -142.15 -32.4 -142.15 -32.35 Q-62.95 -27.75 50.0 -33.65 L74.35 -35.0 Q74.9 -34.4 75.7 -34.3 76.75 -34.1 77.6 -34.7 L78.5 -35.25 80.45 -35.35 55.55 -15.25 Q7.2 -12.65 -46.5 -12.9 -96.95 -13.15 -131.15 -15.35 -96.95 -13.15 -46.5 -12.9 7.2 -12.65 55.55 -15.25 M-114.65 5.3 Q-120.05 -0.55 -125.45 -7.6 L-131.15 -15.35 -125.45 -7.6 Q-120.05 -0.55 -114.65 5.3 L-40.6 7.6 Q-4.6 7.8 28.75 6.4 -4.6 7.8 -40.6 7.6 L-114.65 5.3 Q-104.9 15.9 -95.3 22.6 -104.9 15.9 -114.65 5.3 M64.3 -15.75 L84.05 -31.7 84.25 -31.55 Q84.95 -31.0 85.8 -31.0 L86.3 -31.05 Q87.3 -31.25 87.9 -32.1 88.45 -32.95 88.25 -33.95 L88.05 -34.95 89.25 -35.9 145.35 -40.25 Q142.8 -31.45 137.9 -22.35 142.8 -31.45 145.35 -40.25 L145.35 -40.3 157.35 -41.4 Q146.7 -13.05 124.2 4.95 112.95 13.95 103.85 17.25 L101.9 17.75 101.8 17.75 101.85 17.75 Q53.75 28.8 6.9 30.65 L37.4 6.0 64.3 -15.75 Q102.8 -18.15 137.9 -22.35 L134.5 -16.5 Q129.6 -8.6 123.55 -1.6 129.6 -8.6 134.5 -16.5 L137.9 -22.35 Q102.8 -18.15 64.3 -15.75 M123.55 -1.6 Q114.1 9.2 101.9 17.75 114.1 9.2 123.55 -1.6 83.0 3.7 37.4 6.0 83.0 3.7 123.55 -1.6 M-131.15 -15.35 Q-137.1 -23.7 -142.15 -32.35 -137.1 -23.7 -131.15 -15.35" fill="#d6d6d6" fill-opacity="0.0" fill-rule="evenodd" stroke="none"/>
    <path d="M55.55 -15.25 L28.75 6.4 -1.6 30.9 -4.2 30.95 -6.8 28.95 Q-9.75 26.95 -13.1 25.8 L-15.9 25.1 -24.2 30.85 -39.6 30.2 Q-61.55 28.9 -80.65 25.6 L-95.3 22.6 Q-115.65 13.85 -138.55 -10.65 -145.7 -18.3 -152.25 -26.6 L-157.35 -33.4 -142.15 -32.4 -142.15 -32.35 Q-62.95 -27.75 50.0 -33.65 L74.35 -35.0 Q74.9 -34.4 75.7 -34.3 76.75 -34.1 77.6 -34.7 L78.5 -35.25 80.45 -35.35 55.55 -15.25 M145.35 -40.25 L89.25 -35.9 88.05 -34.95 88.25 -33.95 Q88.45 -32.95 87.9 -32.1 87.3 -31.25 86.3 -31.05 L85.8 -31.0 Q84.95 -31.0 84.25 -31.55 L84.05 -31.7 64.3 -15.75 37.4 6.0 6.9 30.65 Q53.75 28.8 101.85 17.75 L101.8 17.75 101.9 17.75 101.85 17.75 M145.35 -40.25 L145.35 -40.3 157.35 -41.4 Q146.7 -13.05 124.2 4.95 112.95 13.95 103.85 17.25 L101.9 17.75" fill="none" stroke="#231f20" stroke-linecap="round" stroke-linejoin="round" stroke-width="1.0"/>
    <path d="M55.55 -15.25 Q7.2 -12.65 -46.5 -12.9 -96.95 -13.15 -131.15 -15.35 M64.3 -15.75 Q102.8 -18.15 137.9 -22.35 M123.55 -1.6 Q83.0 3.7 37.4 6.0" fill="none" stroke="#716f6f" stroke-linecap="round" stroke-linejoin="round" stroke-opacity="0.6" stroke-width="1.0"/>
    <path d="M-131.15 -15.35 L-125.45 -7.6 Q-120.05 -0.55 -114.65 5.3 -104.9 15.9 -95.3 22.6 M-142.15 -32.35 Q-137.1 -23.7 -131.15 -15.35" fill="none" stroke="#656565" stroke-linecap="round" stroke-linejoin="round" stroke-opacity="0.8" stroke-width="1.0"/>
    <path d="M-114.65 5.3 L-40.6 7.6 Q-4.6 7.8 28.75 6.4" fill="none" stroke="#908f8f" stroke-linecap="round" stroke-linejoin="round" stroke-opacity="0.6" stroke-width="1.0"/>
    <path d="M137.9 -22.35 Q142.8 -31.45 145.35 -40.25 M123.55 -1.6 Q129.6 -8.6 134.5 -16.5 L137.9 -22.35 M101.9 17.75 Q114.1 9.2 123.55 -1.6" fill="none" stroke="#606060" stroke-linecap="round" stroke-linejoin="round" stroke-opacity="0.8" stroke-width="1.0"/>
  </g>
</svg>
