<?xml version="1.0" encoding="UTF-8" standalone="no"?>
<svg xmlns:xlink="http://www.w3.org/1999/xlink" height="117.0px" width="375.45px" xmlns="http://www.w3.org/2000/svg">
  <g transform="matrix(1.0, 0.0, 0.0, 1.0, 320.45, 60.2)">
    <path d="M-70.0 -12.9 L-28.9 -12.9 -28.9 10.9 -28.9 34.35 13.35 34.35 13.35 10.9 54.5 10.9 54.5 34.35 13.35 34.35 13.35 56.8 -28.9 56.55 -28.9 34.35 -70.0 34.35 -70.0 56.3 -111.4 56.1 -153.65 55.85 -153.65 33.6 -111.4 33.6 -111.4 34.35 -70.0 34.35 -70.0 10.9 -70.0 10.5 -70.0 -12.9 M-154.05 55.85 L-196.35 55.6 -196.35 32.85 -195.95 32.85 -154.05 32.85 -154.05 55.85 M-111.4 56.1 L-111.4 34.35 -111.4 56.1 M-70.0 10.9 L-28.9 10.9 -70.0 10.9 M-237.05 32.85 L-279.35 32.85 -279.35 41.35 Q-293.6 39.65 -306.7 34.75 L-311.5 32.85 Q-316.15 30.9 -320.45 28.55 L-320.45 9.4 -279.35 9.4 -237.05 9.4 -237.05 32.85 M-279.35 9.4 L-279.35 32.85 -311.5 32.85 -279.35 32.85 -279.35 9.4" fill="#ffffff" fill-opacity="0.0" fill-rule="evenodd" stroke="none"/>
    <path d="M13.35 10.9 L54.5 10.9 54.5 34.35 M-195.95 32.85 L-154.05 32.85 M-70.0 10.5 L-70.0 -12.9" fill="none" stroke="#231f20" stroke-linecap="round" stroke-linejoin="round" stroke-width="1.0"/>
    <path d="M-70.0 -12.9 L-28.9 -12.9 M-153.65 55.85 L-154.05 55.85 -154.05 32.85 M-28.9 10.9 L-70.0 10.9 M-111.4 34.35 L-111.4 56.1 M-153.65 33.6 L-153.65 55.85 M-311.5 32.85 L-279.35 32.85 -279.35 9.4" fill="none" stroke="#000000" stroke-linecap="round" stroke-linejoin="round" stroke-opacity="0.4" stroke-width="1.0"/>
    <path d="M-29.25 -35.9 L-29.25 -59.7 13.05 -59.7 13.05 -35.9 -29.25 -35.9" fill="#ffffff" fill-opacity="0.0" fill-rule="evenodd" stroke="none"/>
    <path d="M-29.25 -35.9 L-29.25 -59.7 13.05 -59.7 13.05 -35.9" fill="none" stroke="#231f20" stroke-linecap="round" stroke-linejoin="round" stroke-width="1.0"/>
  </g>
</svg>
