<?xml version="1.0" encoding="UTF-8" standalone="no"?>
<svg xmlns:xlink="http://www.w3.org/1999/xlink" height="125.7px" width="365.5px" xmlns="http://www.w3.org/2000/svg">
  <g transform="matrix(1.0, 0.0, 0.0, 1.0, 182.75, 0.9)">
    <path d="M-64.05 104.9 L-65.25 104.6 -65.85 104.4 -64.05 104.9 M-146.6 88.95 Q-149.6 88.15 -152.75 86.8 L-152.8 86.8 -152.9 86.75 -153.35 86.55 -154.15 86.15 -152.9 86.7 -151.65 87.2 -150.9 87.5 -150.75 87.55 -146.6 88.95" fill="#ffffff" fill-rule="evenodd" stroke="none"/>
    <path d="M16.6 7.2 L17.6 7.05 19.55 6.75 16.6 7.3 16.6 7.2" fill="#828487" fill-rule="evenodd" stroke="none"/>
    <path d="M176.95 8.25 L178.15 18.5 Q179.5 31.15 179.95 43.15 180.85 66.35 178.45 81.7 L178.45 81.6 -162.25 81.6 Q-173.7 73.85 -177.0 62.25 L-175.5 32.25 -153.0 27.75 -108.2 26.65 -95.4 26.2 -79.05 25.5 -51.05 23.25 -36.1 20.6 -17.9 17.65 2.0 14.65 19.3 12.3 43.15 9.6 67.45 8.25 176.95 8.25 M-137.25 97.95 L-138.05 97.95 Q-138.9 97.95 -138.9 96.95 -138.9 95.95 -138.05 95.95 L-137.25 95.95 -137.25 97.95 M-138.55 106.6 L-137.25 106.6 -137.25 108.6 -138.55 108.6 Q-139.4 108.6 -139.4 107.6 -139.4 106.6 -138.55 106.6" fill="#ffffff" fill-opacity="0.0" fill-rule="evenodd" stroke="none"/>
    <path d="M178.15 83.7 L174.95 95.8 173.95 98.25 Q169.7 107.8 148.45 114.2 129.8 119.85 100.45 122.45 L45.7 124.2 Q18.55 123.65 -0.05 120.75 -15.4 118.35 -35.85 112.9 L-41.55 111.3 -64.05 104.9 -65.85 104.4 -71.1 102.9 -71.65 102.75 -72.05 102.65 -111.35 93.3 -121.65 91.55 -130.0 90.4 -130.75 90.35 -131.0 90.3 -137.25 89.7 -143.35 89.35 -145.5 89.25 -146.6 88.95 -150.75 87.55 -150.9 87.5 -151.65 87.2 -152.9 86.7 -154.15 86.15 -155.05 85.7 -155.35 85.6 -158.0 84.2 -159.0 83.65 -161.85 81.9 -162.25 81.6 178.45 81.6 178.15 83.7" fill="#000000" fill-opacity="0.09803922" fill-rule="evenodd" stroke="none"/>
    <path d="M-175.5 32.25 Q-178.0 32.2 -180.0 31.35 -183.9 29.65 -181.1 25.6 L-171.8 23.35 -154.6 19.6 -153.0 19.6 -152.7 20.65 -153.0 19.6 -130.85 19.6 -131.1 20.7 -130.85 19.6 -65.6 19.6 -37.6 15.35 -36.1 20.6 -37.6 15.35 -18.7 12.5 -17.65 12.35 -16.6 12.2 -14.5 11.85 16.6 7.2 16.6 7.3 19.55 6.75 40.1 3.65 43.9 3.1 49.4 3.0 50.7 2.95 76.25 2.3 102.85 1.6 102.8 1.65 160.45 0.1 178.4 -0.4 179.75 0.4 Q181.2 1.45 181.8 2.5 183.85 5.9 176.95 8.25 L67.45 8.25 43.15 9.6 19.3 12.3 2.0 14.65 -17.9 17.65 -36.1 20.6 -51.05 23.25 -79.05 25.5 -78.75 24.4 -79.05 25.5 -95.4 26.2 -108.2 26.65 -153.0 27.75 -175.5 32.25 M19.3 12.3 L19.35 10.9 19.3 12.3" fill="#000000" fill-opacity="0.29803923" fill-rule="evenodd" stroke="none"/>
    <path d="M176.95 8.25 L178.15 18.5 Q179.5 31.15 179.95 43.15 180.85 66.35 178.45 81.7 L178.15 83.7 174.95 95.8 173.95 98.25 Q169.7 107.8 148.45 114.2 129.8 119.85 100.45 122.45 L45.7 124.2 Q18.55 123.65 -0.05 120.75 -15.4 118.35 -35.85 112.9 L-41.55 111.3 -64.05 104.9 -65.25 104.6 M-65.85 104.4 L-71.1 102.9 -71.65 102.75 -72.05 102.65 -111.35 93.3 -121.65 91.55 -130.0 90.4 -130.75 90.35 -131.0 90.3 -137.25 89.7 -143.35 89.35 -145.5 89.25 -146.6 88.95 M-154.15 86.15 L-155.05 85.7 -155.35 85.6 -158.0 84.2 -159.0 83.65 -161.85 81.9 -162.25 81.6 Q-173.7 73.85 -177.0 62.25 L-175.5 32.25 Q-178.0 32.2 -180.0 31.35 -183.9 29.65 -181.1 25.6 L-171.8 23.35 -154.6 19.6 -153.0 19.6 -130.85 19.6 -65.6 19.6 -37.6 15.35 -18.7 12.5 -17.65 12.35 -16.6 12.2 -14.5 11.85 16.6 7.2 M19.55 6.75 L40.1 3.65 43.9 3.1 49.4 3.0 M50.7 2.95 L76.25 2.3 102.85 1.6 102.8 1.65 160.45 0.1 178.4 -0.4 179.75 0.4 Q181.2 1.45 181.8 2.5 183.85 5.9 176.95 8.25 M178.45 81.6 L178.15 83.7 M-152.9 86.7 L-154.15 86.15 M-64.05 104.9 L-65.85 104.4" fill="none" stroke="#231f20" stroke-linecap="round" stroke-linejoin="round" stroke-width="1.0"/>
    <path d="M49.4 3.0 L50.7 2.95 M176.95 8.25 L67.45 8.25 43.15 9.6 19.3 12.3 2.0 14.65 -17.9 17.65 -36.1 20.6 -51.05 23.25 -79.05 25.5 -95.4 26.2 -108.2 26.65 -153.0 27.75 -175.5 32.25 M178.45 81.6 L-162.25 81.6 M16.6 7.2 L16.6 7.3 19.55 6.75" fill="none" stroke="#000000" stroke-linecap="round" stroke-linejoin="round" stroke-opacity="0.4" stroke-width="1.0"/>
    <path d="M-146.6 88.95 L-150.75 87.55 -150.9 87.5 -151.65 87.2 -152.9 86.7" fill="none" stroke="#000000" stroke-linecap="round" stroke-linejoin="round" stroke-opacity="0.6" stroke-width="1.0"/>
  </g>
</svg>
