<?xml version="1.0" encoding="UTF-8" standalone="no"?>
<svg xmlns:xlink="http://www.w3.org/1999/xlink" height="128.2px" width="510.85px" xmlns="http://www.w3.org/2000/svg">
  <g transform="matrix(1.0, 0.0, 0.0, 1.0, 266.85, 38.25)">
    <path d="M24.35 -37.75 L24.35 -19.75 24.35 -37.75 59.35 -37.75 59.35 -19.75 59.35 -37.75 94.35 -37.75 129.3 -37.75 146.8 -31.15 Q164.4 -24.2 172.15 -19.75 L94.35 -19.75 94.35 -37.75 94.35 -19.75 59.35 -19.75 24.35 -19.75 -10.65 -19.75 -10.65 -37.75 -10.65 -19.75 -56.7 -19.75 -56.7 -37.75 -48.75 -37.75 -10.65 -37.75 24.35 -37.75 M-12.65 -9.3 L39.35 -10.8 65.35 -11.55 91.35 -12.3 117.35 -13.0 143.35 -13.75 143.35 3.0 143.35 -13.75 169.35 -14.5 183.35 -14.9 188.65 -15.05 209.5 -1.8 209.65 -1.8 210.55 -1.1 210.65 -1.05 209.85 -0.95 169.35 1.8 143.35 3.0 117.35 4.0 117.35 -13.0 117.35 4.0 91.35 4.95 91.35 -12.3 91.35 4.95 65.35 5.85 39.35 6.7 13.35 7.5 -12.65 8.3 -38.65 9.05 -44.35 9.2 -64.65 9.75 -90.65 10.4 -117.65 11.1 -142.65 11.75 -167.65 12.4 -192.65 13.05 -217.65 13.7 -242.65 14.35 -266.35 14.95 -266.35 -2.05 -262.45 -2.15 -242.65 -2.7 -242.65 14.35 -242.65 -2.7 -217.65 -3.45 -192.65 -4.15 -167.65 -4.9 -117.65 -6.3 -64.65 -7.85 -38.65 -8.55 -12.65 -9.3 -12.65 8.3 -12.65 -9.3 M210.55 -1.1 L209.5 -1.8 210.55 -1.1 M244.0 62.75 L244.0 69.1 243.75 69.7 243.2 69.95 236.8 69.95 Q236.45 69.95 236.25 69.7 L236.0 69.1 236.0 62.75 Q236.0 62.4 236.25 62.15 236.45 61.9 236.8 61.9 L243.2 61.9 243.75 62.15 244.0 62.75 M225.3 36.95 L208.0 38.4 208.0 27.2 208.0 38.4 186.65 40.1 165.05 41.7 Q166.7 38.05 170.1 33.2 L174.65 27.2 186.65 27.2 208.0 27.2 225.3 27.2 225.3 36.95 M186.65 40.1 L186.65 27.2 186.65 40.1 M182.75 69.7 L182.2 69.95 175.8 69.95 175.25 69.7 175.0 69.1 175.0 62.75 Q175.0 62.4 175.25 62.15 175.45 61.9 175.8 61.9 L182.2 61.9 Q182.55 61.9 182.75 62.15 L183.0 62.75 183.0 69.1 182.75 69.7 M195.55 62.15 Q195.8 61.9 196.15 61.9 L202.5 61.9 Q202.85 61.9 203.05 62.15 L203.3 62.75 203.3 69.1 203.05 69.7 202.5 69.95 196.15 69.95 195.55 69.7 195.3 69.1 195.3 62.75 Q195.3 62.4 195.55 62.15 M162.65 69.1 L162.4 69.7 161.85 69.95 155.45 69.95 154.9 69.7 154.65 69.1 154.65 62.75 Q154.65 62.4 154.9 62.15 155.1 61.9 155.45 61.9 L161.85 61.9 Q162.2 61.9 162.4 62.15 L162.65 62.75 162.65 69.1 M223.4 62.15 L223.65 62.75 223.65 69.1 223.4 69.7 222.85 69.95 216.45 69.95 215.9 69.7 215.65 69.1 215.65 62.75 Q215.65 62.4 215.9 62.15 216.1 61.9 216.45 61.9 L222.85 61.9 223.4 62.15 M130.4 30.4 L130.65 31.0 130.65 37.35 130.4 37.95 129.85 38.2 123.45 38.2 122.9 37.95 122.65 37.35 122.65 31.0 Q122.65 30.65 122.9 30.4 123.1 30.15 123.45 30.15 L129.85 30.15 Q130.2 30.15 130.4 30.4 M151.65 30.0 L151.65 36.35 151.4 36.95 150.85 37.2 144.45 37.2 143.9 36.95 143.65 36.35 143.65 30.0 Q143.65 29.65 143.9 29.4 144.1 29.15 144.45 29.15 L150.85 29.15 Q151.2 29.15 151.4 29.4 L151.65 30.0 M88.65 39.35 L88.4 39.95 87.85 40.2 81.45 40.2 80.9 39.95 80.65 39.35 80.65 33.0 Q80.65 32.65 80.9 32.4 81.1 32.15 81.45 32.15 L87.85 32.15 88.4 32.4 88.65 33.0 88.65 39.35 M102.45 31.15 L108.85 31.15 109.4 31.4 109.65 32.0 109.65 38.35 109.4 38.95 108.85 39.2 102.45 39.2 101.9 38.95 101.65 38.35 101.65 32.0 Q101.65 31.65 101.9 31.4 102.1 31.15 102.45 31.15 M101.65 62.75 L101.65 69.1 101.4 69.7 100.85 69.95 94.45 69.95 93.9 69.7 93.65 69.1 93.65 62.75 Q93.65 62.4 93.9 62.15 94.1 61.9 94.45 61.9 L100.85 61.9 101.4 62.15 101.65 62.75 M114.25 62.15 Q114.45 61.9 114.8 61.9 L121.2 61.9 Q121.55 61.9 121.75 62.15 L122.0 62.75 122.0 69.1 121.75 69.7 121.2 69.95 114.8 69.95 Q114.45 69.95 114.25 69.7 L114.0 69.1 114.0 62.75 114.25 62.15 M81.05 69.7 L80.5 69.95 74.15 69.95 73.55 69.7 73.3 69.1 73.3 62.75 73.55 62.15 Q73.8 61.9 74.15 61.9 L80.5 61.9 Q80.85 61.9 81.05 62.15 L81.3 62.75 81.3 69.1 81.05 69.7 M142.05 69.7 L141.5 69.95 135.15 69.95 134.55 69.7 134.3 69.1 134.3 62.75 Q134.3 62.4 134.55 62.15 L135.15 61.9 141.5 61.9 Q141.85 61.9 142.05 62.15 L142.3 62.75 142.3 69.1 142.05 69.7 M59.9 33.4 Q60.1 33.15 60.45 33.15 L66.85 33.15 67.4 33.4 67.65 34.0 67.65 40.35 67.4 40.95 66.85 41.2 60.45 41.2 59.9 40.95 59.65 40.35 59.65 34.0 Q59.65 33.65 59.9 33.4 M46.4 34.4 L46.65 35.0 46.65 41.35 46.4 41.95 45.85 42.2 39.45 42.2 38.9 41.95 38.65 41.35 38.65 35.0 Q38.65 34.65 38.9 34.4 39.1 34.15 39.45 34.15 L45.85 34.15 46.4 34.4 M17.65 42.35 L17.65 36.0 Q17.65 35.65 17.9 35.4 18.1 35.15 18.45 35.15 L24.85 35.15 25.4 35.4 25.65 36.0 25.65 42.35 25.65 42.55 25.4 42.95 24.85 43.2 18.45 43.2 17.9 42.95 17.7 42.55 17.65 42.35 M61.0 69.1 L60.75 69.7 60.2 69.95 53.8 69.95 53.25 69.7 53.0 69.1 53.0 62.75 Q53.0 62.4 53.25 62.15 53.45 61.9 53.8 61.9 L60.2 61.9 Q60.55 61.9 60.75 62.15 L61.0 62.75 61.0 69.1 M39.35 -10.8 L39.35 6.7 39.35 -10.8 M169.35 -14.5 L169.35 1.8 169.35 -14.5 M13.35 -9.8 L13.35 7.5 13.35 -9.8 M65.35 -11.55 L65.35 5.85 65.35 -11.55 M-244.05 -22.7 L-243.4 -23.45 -231.9 -23.45 Q-231.5 -23.45 -231.25 -22.7 -231.0 -22.0 -231.0 -20.95 -231.0 -19.95 -231.25 -19.2 -231.55 -18.45 -231.9 -18.45 L-243.4 -18.45 Q-243.75 -18.45 -244.05 -19.2 L-244.3 -20.95 -244.05 -22.7 M-224.3 -19.2 L-224.55 -20.95 -224.3 -22.7 -223.65 -23.45 -212.15 -23.45 Q-211.75 -23.45 -211.5 -22.7 -211.25 -22.0 -211.25 -20.95 -211.25 -19.95 -211.5 -19.2 -211.8 -18.45 -212.15 -18.45 L-223.65 -18.45 Q-224.0 -18.45 -224.3 -19.2 M-204.8 -20.95 L-204.55 -22.7 Q-204.25 -23.45 -203.9 -23.45 L-192.4 -23.45 Q-192.0 -23.45 -191.75 -22.7 -191.5 -22.0 -191.5 -20.95 -191.5 -19.95 -191.75 -19.2 -192.05 -18.45 -192.4 -18.45 L-203.9 -18.45 Q-204.25 -18.45 -204.55 -19.2 L-204.8 -20.95 M-184.8 -22.7 L-184.15 -23.45 -172.65 -23.45 Q-172.25 -23.45 -172.0 -22.7 -171.75 -22.0 -171.75 -20.95 -171.75 -19.95 -172.0 -19.2 -172.3 -18.45 -172.65 -18.45 L-184.15 -18.45 Q-184.5 -18.45 -184.8 -19.2 L-185.05 -20.95 -184.8 -22.7 M-165.05 -22.7 L-164.4 -23.45 -152.9 -23.45 Q-152.5 -23.45 -152.25 -22.7 -152.0 -22.0 -152.0 -20.95 -152.0 -19.95 -152.25 -19.2 -152.55 -18.45 -152.9 -18.45 L-164.4 -18.45 Q-164.75 -18.45 -165.05 -19.2 L-165.3 -20.95 -165.05 -22.7 M-144.65 -23.45 L-133.15 -23.45 Q-132.75 -23.45 -132.5 -22.7 -132.25 -22.0 -132.25 -20.95 -132.25 -19.95 -132.5 -19.2 -132.8 -18.45 -133.15 -18.45 L-144.65 -18.45 Q-145.0 -18.45 -145.3 -19.2 L-145.55 -20.95 -145.3 -22.7 Q-145.0 -23.45 -144.65 -23.45 M-5.05 36.6 Q-2.35 39.6 -2.35 43.85 L-2.35 50.65 Q-47.35 52.2 -92.35 52.9 L-92.35 43.85 Q-92.35 39.6 -89.65 36.6 -86.95 33.6 -83.15 33.6 L-11.55 33.6 Q-7.75 33.6 -5.05 36.6 M-40.7 64.05 L-40.7 70.45 Q-40.7 71.25 -41.5 71.25 L-47.85 71.25 -48.45 71.0 -48.7 70.45 -48.7 64.05 -48.45 63.5 Q-48.2 63.25 -47.85 63.25 L-41.5 63.25 Q-40.7 63.25 -40.7 64.05 M-61.0 64.05 L-61.0 70.45 Q-61.0 71.25 -61.8 71.25 L-68.2 71.25 Q-69.0 71.25 -69.0 70.45 L-69.0 64.05 Q-69.0 63.25 -68.2 63.25 L-61.8 63.25 Q-61.0 63.25 -61.0 64.05 M-68.75 82.15 Q-68.55 81.9 -68.2 81.9 L-61.8 81.9 Q-61.45 81.9 -61.25 82.15 -61.0 82.4 -61.0 82.75 L-61.0 89.1 -61.25 89.7 Q-61.45 89.95 -61.8 89.95 L-68.2 89.95 -68.75 89.7 -69.0 89.1 -69.0 82.75 -68.75 82.15 M-48.45 82.15 Q-48.2 81.9 -47.85 81.9 L-41.5 81.9 Q-41.15 81.9 -40.95 82.15 -40.7 82.4 -40.7 82.75 L-40.7 89.1 Q-40.7 89.45 -40.95 89.7 L-41.5 89.95 -47.85 89.95 -48.45 89.7 -48.7 89.1 -48.7 82.75 -48.45 82.15 M-90.65 -6.8 L-90.65 10.4 -90.65 -6.8 M-111.35 43.85 L-111.35 53.15 Q-156.35 53.65 -201.35 53.3 L-201.35 43.85 Q-201.35 39.6 -198.65 36.6 -195.95 33.6 -192.15 33.6 L-120.55 33.6 Q-116.75 33.6 -114.05 36.6 -111.35 39.6 -111.35 43.85 M-122.0 64.05 L-122.0 70.45 Q-122.0 71.25 -122.8 71.25 L-129.2 71.25 Q-130.0 71.25 -130.0 70.45 L-130.0 64.05 Q-130.0 63.25 -129.2 63.25 L-122.8 63.25 Q-122.0 63.25 -122.0 64.05 M-142.35 64.05 L-142.35 70.45 Q-142.35 71.25 -143.15 71.25 L-149.55 71.25 Q-150.35 71.25 -150.35 70.45 L-150.35 64.05 Q-150.35 63.25 -149.55 63.25 L-143.15 63.25 Q-142.35 63.25 -142.35 64.05 M-150.1 82.15 Q-149.9 81.9 -149.55 81.9 L-143.15 81.9 Q-142.8 81.9 -142.6 82.15 -142.35 82.4 -142.35 82.75 L-142.35 89.1 -142.6 89.7 -143.15 89.95 -149.55 89.95 -150.1 89.7 -150.35 89.1 -150.35 82.75 -150.1 82.15 M-129.75 82.15 L-129.2 81.9 -122.8 81.9 Q-122.45 81.9 -122.25 82.15 -122.0 82.4 -122.0 82.75 L-122.0 89.1 -122.25 89.7 -122.8 89.95 -129.2 89.95 -129.75 89.7 -130.0 89.1 -130.0 82.75 -129.75 82.15 M-82.15 63.25 Q-81.35 63.25 -81.35 64.05 L-81.35 70.45 Q-81.35 71.25 -82.15 71.25 L-88.55 71.25 Q-89.35 71.25 -89.35 70.45 L-89.35 64.05 Q-89.35 63.25 -88.55 63.25 L-82.15 63.25 M-101.7 64.05 L-101.7 70.45 Q-101.7 71.25 -102.5 71.25 L-108.85 71.25 -109.45 71.0 -109.7 70.45 -109.7 64.05 -109.45 63.5 Q-109.2 63.25 -108.85 63.25 L-102.5 63.25 Q-101.7 63.25 -101.7 64.05 M-109.45 82.15 Q-109.2 81.9 -108.85 81.9 L-102.5 81.9 Q-102.15 81.9 -101.95 82.15 -101.7 82.4 -101.7 82.75 L-101.7 89.1 -101.95 89.7 Q-102.15 89.95 -102.5 89.95 L-108.85 89.95 -109.45 89.7 -109.7 89.1 -109.7 82.75 -109.45 82.15 M-89.1 82.15 Q-88.9 81.9 -88.55 81.9 L-82.15 81.9 Q-81.8 81.9 -81.6 82.15 -81.35 82.4 -81.35 82.75 L-81.35 89.1 -81.6 89.7 -82.15 89.95 -88.55 89.95 -89.1 89.7 -89.35 89.1 -89.35 82.75 -89.1 82.15 M-117.65 -6.3 L-117.65 11.1 -117.65 -6.3 M-64.65 -7.85 L-64.65 9.75 -64.65 -7.85 M-167.65 -4.9 L-167.65 12.4 -167.65 -4.9 M-230.55 37.95 Q-229.9 38.65 -229.9 39.7 -229.9 40.75 -230.55 41.45 -231.25 42.2 -232.2 42.2 L-261.15 42.2 Q-262.1 42.2 -262.75 41.45 -263.45 40.7 -263.45 39.7 -263.45 38.65 -262.75 37.95 -262.1 37.2 -261.15 37.2 L-232.2 37.2 Q-231.25 37.2 -230.55 37.95 M-217.65 -3.45 L-217.65 13.7 -217.65 -3.45 M-203.35 64.05 L-203.35 70.45 Q-203.35 71.25 -204.15 71.25 L-210.55 71.25 Q-211.35 71.25 -211.35 70.45 L-211.35 64.05 Q-211.35 63.25 -210.55 63.25 L-204.15 63.25 Q-203.35 63.25 -203.35 64.05 M-223.7 64.05 L-223.7 70.45 Q-223.7 71.25 -224.5 71.25 L-230.85 71.25 -231.45 71.0 -231.7 70.45 -231.7 64.05 -231.45 63.5 Q-231.2 63.25 -230.85 63.25 L-224.5 63.25 Q-223.7 63.25 -223.7 64.05 M-231.45 82.15 Q-231.2 81.9 -230.85 81.9 L-224.5 81.9 Q-224.15 81.9 -223.95 82.15 -223.7 82.4 -223.7 82.75 L-223.7 89.1 Q-223.7 89.45 -223.95 89.7 -224.15 89.95 -224.5 89.95 L-230.85 89.95 -231.45 89.7 -231.7 89.1 -231.7 82.75 -231.45 82.15 M-211.1 82.15 Q-210.9 81.9 -210.55 81.9 L-204.15 81.9 Q-203.8 81.9 -203.6 82.15 -203.35 82.4 -203.35 82.75 L-203.35 89.1 -203.6 89.7 -204.15 89.95 -210.55 89.95 -211.1 89.7 -211.35 89.1 -211.35 82.75 -211.1 82.15 M-162.7 64.05 L-162.7 70.45 Q-162.7 71.25 -163.5 71.25 L-169.85 71.25 -170.45 71.0 -170.7 70.45 -170.7 64.05 -170.45 63.5 Q-170.2 63.25 -169.85 63.25 L-163.5 63.25 Q-162.7 63.25 -162.7 64.05 M-183.0 64.05 L-183.0 70.45 Q-183.0 71.25 -183.8 71.25 L-190.2 71.25 Q-191.0 71.25 -191.0 70.45 L-191.0 64.05 Q-191.0 63.25 -190.2 63.25 L-183.8 63.25 Q-183.0 63.25 -183.0 64.05 M-190.75 82.15 Q-190.55 81.9 -190.2 81.9 L-183.8 81.9 Q-183.45 81.9 -183.25 82.15 L-183.0 82.75 -183.0 89.1 -183.25 89.7 Q-183.45 89.95 -183.8 89.95 L-190.2 89.95 -190.75 89.7 -191.0 89.1 -191.0 82.75 -190.75 82.15 M-170.45 82.15 Q-170.2 81.9 -169.85 81.9 L-163.5 81.9 Q-163.15 81.9 -162.95 82.15 -162.7 82.4 -162.7 82.75 L-162.7 89.1 -162.95 89.7 -163.5 89.95 -169.85 89.95 -170.45 89.7 -170.7 89.1 -170.7 82.75 -170.45 82.15 M-192.65 -4.15 L-192.65 13.05 -192.65 -4.15 M-38.65 -8.55 L-38.65 9.05 -38.65 -8.55 M-142.65 -5.3 L-142.65 11.75 -142.65 -5.3" fill="#ffffff" fill-opacity="0.0" fill-rule="evenodd" stroke="none"/>
    <path d="M172.15 -19.75 Q164.4 -24.2 146.8 -31.15 M183.35 -14.9 L188.65 -15.05 209.5 -1.8 209.65 -1.8 210.55 -1.1 210.65 -1.05 209.85 -0.95 M209.5 -1.8 L210.55 -1.1 M225.3 36.95 L225.3 27.2 M-262.45 -2.15 L-266.35 -2.05 -266.35 14.95 M-56.7 -19.75 L-56.7 -37.75 -48.75 -37.75" fill="none" stroke="#000000" stroke-linecap="round" stroke-linejoin="round" stroke-width="1.0"/>
    <path d="M24.35 -19.75 L24.35 -37.75 -10.65 -37.75 -10.65 -19.75 24.35 -19.75 59.35 -19.75 59.35 -37.75 24.35 -37.75 M24.35 -19.75 L24.35 -19.3 M59.35 -19.75 L59.35 -19.3 M65.35 -11.55 L65.35 -11.8 M-12.65 -9.3 L39.35 -10.8 65.35 -11.55 91.35 -12.3 91.35 -12.8 M94.35 -19.75 L94.35 -19.3 M91.35 -12.3 L117.35 -13.0 117.35 -13.3 M94.35 -37.75 L94.35 -19.75 172.15 -19.75 173.3 -19.75 M146.8 -31.15 L129.3 -37.75 94.35 -37.75 59.35 -37.75 M143.35 -13.75 L117.35 -13.0 117.35 4.0 143.35 3.0 143.35 -13.75 169.35 -14.5 169.35 -14.8 M94.35 -19.75 L59.35 -19.75 M169.35 -14.5 L183.35 -14.9 M209.85 -0.95 L169.35 1.8 143.35 3.0 M225.3 27.2 L208.0 27.2 208.0 38.4 M165.05 41.7 Q166.7 38.05 170.1 33.2 L174.65 27.2 186.65 27.2 208.0 27.2 M186.65 27.2 L186.65 40.1 M91.35 4.95 L91.35 5.2 M117.35 4.0 L91.35 4.95 91.35 -12.3 M65.35 5.85 L65.35 6.2 M39.35 6.7 L39.35 7.2 M39.35 6.7 L13.35 7.5 -12.65 8.3 -38.65 9.05 -44.35 9.2 -64.65 9.75 -64.65 10.2 M65.35 5.85 L39.35 6.7 39.35 -10.8 M91.35 4.95 L65.35 5.85 65.35 -11.55 M13.35 7.5 L13.35 -9.8 M169.35 1.8 L169.35 -14.5 M-266.35 14.95 L-242.65 14.35 -242.65 -2.7 -262.45 -2.15 M-242.65 -3.3 L-242.65 -2.7 -217.65 -3.45 -192.65 -4.15 -167.65 -4.9 -167.65 -5.3 M-48.75 -37.75 L-10.65 -37.75 M-10.65 -19.75 L-10.65 -19.3 M-167.65 -4.9 L-117.65 -6.3 -64.65 -7.85 -38.65 -8.55 -12.65 -9.3 -12.65 -9.8 M-10.65 -19.75 L-56.7 -19.75 M-117.65 11.1 L-90.65 10.4 -90.65 -6.8 M-90.65 10.4 L-90.65 10.7 M-142.65 11.75 L-142.65 12.2 M-142.65 11.75 L-117.65 11.1 -117.65 -6.3 M-90.65 10.4 L-64.65 9.75 -64.65 -7.85 M-192.65 13.05 L-167.65 12.4 -167.65 -4.9 M-217.65 13.7 L-217.65 14.2 M-242.65 14.35 L-217.65 13.7 -217.65 -3.45 M-217.65 13.7 L-192.65 13.05 -192.65 -4.15 M-167.65 12.4 L-142.65 11.75 -142.65 -5.3 M-12.65 -9.3 L-12.65 8.3 M-38.65 9.05 L-38.65 -8.55" fill="none" stroke="#000000" stroke-linecap="round" stroke-linejoin="round" stroke-opacity="0.4" stroke-width="1.0"/>
  </g>
</svg>
