<?xml version="1.0" encoding="UTF-8" standalone="no"?>
<svg xmlns:xlink="http://www.w3.org/1999/xlink" height="29.25px" width="419.95px" xmlns="http://www.w3.org/2000/svg">
  <g transform="matrix(1.0, 0.0, 0.0, 1.0, 199.75, 11.7)">
    <path d="M96.5 0.4 L96.05 0.1 81.45 -8.95 77.1 -11.7 83.85 -7.6 95.95 0.05 96.55 0.4 Q109.65 -1.95 117.1 -2.75 131.3 -4.3 173.9 -3.75 195.45 -3.45 216.1 -2.8 L219.05 -2.7 219.7 17.05 213.4 16.9 212.9 2.1 183.15 1.4 183.15 16.3 179.8 16.25 179.8 1.35 Q148.1 0.85 131.75 1.4 L131.75 15.4 128.4 15.35 128.4 1.5 117.95 2.2 103.35 4.4 102.9 4.45 102.85 4.45 79.1 8.85 79.1 14.6 75.75 14.55 75.75 9.7 74.75 9.7 52.7 14.25 40.05 14.1 33.3 14.0 Q33.95 13.05 35.2 12.8 L40.05 11.75 49.45 9.7 68.6 5.75 96.35 0.45 96.5 0.4 96.55 0.4 96.5 0.4 M75.75 9.7 L75.75 9.5 74.75 9.7 75.75 9.5 75.75 9.7 M-115.05 7.2 L-111.1 7.2 -56.75 13.1 -115.05 12.95 -127.7 13.0 Q-180.65 13.2 -199.25 14.65 L-199.25 7.2 -115.05 7.2" fill="#ffffff" fill-opacity="0.0" fill-rule="evenodd" stroke="none"/>
    <path d="M96.55 0.4 Q109.65 -1.95 117.1 -2.75 131.3 -4.3 173.9 -3.75 195.45 -3.45 216.1 -2.8 L219.05 -2.7 219.7 17.05 213.4 16.9 212.9 2.1 183.15 1.4 183.15 16.3 179.8 16.25 179.8 1.35 Q148.1 0.85 131.75 1.4 L131.75 15.4 128.4 15.35 128.4 1.5 117.95 2.2 103.35 4.4 M96.35 0.45 L96.5 0.4 96.55 0.4 M-115.05 12.95 L-127.7 13.0 Q-180.65 13.2 -199.25 14.65 L-199.25 7.2 -115.05 7.2" fill="none" stroke="#000000" stroke-linecap="round" stroke-linejoin="round" stroke-width="1.0"/>
    <path d="M103.35 4.4 L102.9 4.45 102.85 4.45 79.1 8.85 79.1 14.6 75.75 14.55 75.75 9.7 74.75 9.7 52.7 14.25 40.05 14.1 33.3 14.0 Q33.95 13.05 35.2 12.8 L40.05 11.75 49.45 9.7 68.6 5.75 96.35 0.45 M74.75 9.7 L75.75 9.5 75.75 9.7 M-115.05 7.2 L-111.1 7.2 -56.75 13.1 -115.05 12.95" fill="none" stroke="#000000" stroke-linecap="round" stroke-linejoin="round" stroke-opacity="0.6" stroke-width="1.0"/>
  </g>
</svg>
