<?xml version="1.0" encoding="UTF-8" standalone="no"?>
<svg xmlns:xlink="http://www.w3.org/1999/xlink" height="83.5px" width="102.25px" xmlns="http://www.w3.org/2000/svg">
  <g transform="matrix(1.0, 0.0, 0.0, 1.0, 39.45, 61.2)">
    <path d="M-7.35 -40.5 L-3.6 -41.55 -3.6 -41.5 -6.45 -40.75 -7.35 -40.5 M35.95 -41.45 L36.0 -41.55 36.0 -41.45 35.95 -41.45 M46.0 -39.15 L44.1 -37.15 44.05 -37.15 46.0 -39.15 M46.0 -20.25 L44.15 -20.35 44.15 -20.4 46.0 -20.3 46.0 -20.25 M56.2 -37.6 L56.5 -38.7 56.45 -39.25 56.65 -39.6 56.2 -37.6" fill="#b9bbbd" fill-rule="evenodd" stroke="none"/>
    <path d="M10.65 -50.5 L10.95 -50.55 11.65 -50.55 10.65 -50.5 M-1.0 -49.3 L0.15 -49.45 -1.0 -49.3 M32.4 -42.15 L33.65 -41.95 33.0 -42.05 32.4 -42.15 M36.0 -41.55 L36.35 -41.45 36.5 -41.45 42.3 -40.2 42.5 -40.15 43.9 -39.75 43.3 -39.9 36.0 -41.45 36.0 -41.55" fill="#ffffff" fill-rule="evenodd" stroke="none"/>
    <path d="M38.5 -16.2 L39.7 -16.25 39.75 -16.2 38.5 -16.2 M-33.35 -2.55 L-33.45 -1.55 -33.5 -1.7 -33.5 -2.6 -33.45 -2.6 -33.35 -2.55" fill="#b2b4b7" fill-rule="evenodd" stroke="none"/>
    <path d="M-32.9 -6.25 L-33.35 -2.55 -33.45 -2.6 -32.9 -6.25 M-24.8 -8.35 L-25.45 -7.8 -26.75 -6.6 -24.85 -8.4 -24.8 -8.35" fill="#e6e7e8" fill-rule="evenodd" stroke="none"/>
    <path d="M-39.1 20.2 L-39.2 20.9 -39.35 21.75 -39.3 21.45 -39.1 20.2 M-36.05 -18.65 L-35.6 -18.7 -34.55 -18.8 -36.05 -18.65" fill="#dddfe0" fill-rule="evenodd" stroke="none"/>
    <path d="M-39.35 21.75 L-39.45 22.25 -39.3 21.45 -39.35 21.75" fill="#b1b3b5" fill-rule="evenodd" stroke="none"/>
    <path d="M34.95 -49.9 L33.75 -53.2 Q27.05 -59.45 15.45 -55.8 11.85 -54.7 8.2 -52.7 L5.25 -50.95 3.9 -49.9 7.9 -50.3 10.65 -50.5 11.65 -50.55 16.55 -50.75 17.15 -50.8 31.05 -50.35 34.95 -49.9 41.9 -48.6 34.95 -49.9 M42.55 -48.45 L41.9 -48.6 42.55 -48.45 Q49.5 -46.6 53.85 -43.3 L56.3 -41.15 56.45 -39.4 56.45 -39.25 Q54.45 -35.5 50.5 -32.45 45.5 -28.55 44.4 -23.85 43.9 -21.85 44.15 -20.4 L38.6 -20.65 Q37.8 -29.6 43.45 -36.4 37.8 -29.6 38.6 -20.65 L44.15 -20.4 44.15 -20.35 46.0 -20.25 50.65 -19.9 52.5 -15.7 52.6 -15.7 52.7 -15.5 49.65 -16.1 47.55 -16.25 47.15 -16.25 46.9 -16.25 45.75 -16.3 45.25 -16.3 39.75 -16.2 39.7 -16.25 38.5 -16.2 38.05 -16.2 Q37.45 -12.75 38.2 -6.25 38.55 -3.0 39.05 -0.45 L49.2 -0.05 Q55.6 -0.55 55.8 -1.7 L55.8 -2.65 Q55.6 -5.1 54.05 -12.55 L57.15 -5.8 Q61.45 5.35 62.8 14.7 56.0 18.0 47.85 22.25 29.35 22.45 4.4 22.0 L-39.2 20.9 -39.1 20.2 -34.65 -12.95 -34.45 -14.55 -34.35 -15.25 -33.95 -18.5 -33.9 -18.9 -34.55 -18.8 -35.6 -18.7 -36.05 -18.65 -36.25 -18.6 -36.25 -18.8 -33.8 -19.05 -30.05 -19.4 -30.0 -19.5 Q-28.75 -24.65 -26.5 -30.45 -24.4 -35.85 -22.2 -39.4 -19.65 -43.45 -17.0 -45.15 -13.85 -47.1 -4.25 -48.8 L-4.0 -48.85 -2.5 -49.1 -1.0 -49.3 Q3.2 -54.7 7.65 -56.85 17.75 -61.65 28.1 -60.5 37.85 -59.45 41.0 -54.15 41.95 -52.6 42.55 -48.45 M0.15 -49.45 L-1.0 -49.3 0.15 -49.45 2.0 -49.7 3.9 -49.9 2.0 -49.7 0.15 -49.45 M44.1 -37.15 L48.3 -40.5 Q44.3 -42.3 40.05 -43.55 L37.25 -44.3 Q22.6 -48.0 4.9 -45.85 -2.8 -44.9 -10.15 -42.95 L-16.0 -41.2 -17.7 -39.4 Q-20.05 -36.3 -22.95 -29.3 -24.95 -24.5 -26.35 -20.2 L-25.55 -19.7 -23.85 -19.8 -14.85 -20.25 -12.9 -20.35 -14.85 -20.25 Q-12.75 -27.65 -8.9 -35.85 L-7.15 -39.4 -6.45 -40.75 -3.6 -41.5 -4.95 -39.4 Q-7.0 -35.95 -8.85 -31.65 -11.5 -25.6 -12.9 -20.35 L-11.35 -20.4 2.8 -20.8 Q21.05 -21.15 34.55 -20.75 L38.6 -20.65 38.55 -21.35 38.3 -22.15 Q35.9 -30.55 36.0 -37.6 L36.0 -37.95 36.05 -39.4 36.0 -41.45 43.3 -39.9 43.3 -39.4 43.45 -36.4 44.1 -37.15 M-25.55 -19.7 L-30.05 -19.4 -25.55 -19.7 M-33.45 -1.55 Q-32.9 -0.5 -26.9 -0.05 L-16.75 -0.45 Q-16.25 -3.0 -15.85 -6.25 L-15.75 -6.8 -15.55 -14.8 -15.65 -15.65 -15.7 -16.05 -15.75 -16.2 -22.95 -16.3 Q-29.8 -16.2 -31.1 -15.1 L-31.25 -14.95 -32.9 -6.25 -33.45 -2.6 -33.5 -2.6 -33.5 -1.7 -33.45 -1.55" fill="#ffffff" fill-opacity="0.0" fill-rule="evenodd" stroke="none"/>
    <path d="M3.9 -49.9 L5.25 -50.95 8.2 -52.7 Q11.85 -54.7 15.45 -55.8 27.05 -59.45 33.75 -53.2 L34.95 -49.9 31.05 -50.35 Q27.7 -54.85 18.0 -52.85 14.25 -52.05 10.95 -50.55 L10.65 -50.5 7.9 -50.3 3.9 -49.9 M-25.55 -19.7 L-26.35 -20.2 Q-24.95 -24.5 -22.95 -29.3 -20.05 -36.3 -17.7 -39.4 L-16.0 -41.2 -10.15 -42.95 Q-2.8 -44.9 4.9 -45.85 22.6 -48.0 37.25 -44.3 L40.05 -43.55 Q44.3 -42.3 48.3 -40.5 L44.1 -37.15 46.0 -39.15 45.2 -39.4 44.85 -39.5 44.4 -39.6 44.1 -39.7 43.9 -39.75 42.5 -40.15 42.3 -40.2 36.5 -41.45 36.35 -41.45 36.0 -41.55 35.95 -41.45 33.65 -41.95 35.95 -41.45 36.0 -41.45 36.05 -39.4 36.0 -37.95 36.0 -37.6 Q35.9 -30.55 38.3 -22.15 L38.55 -21.35 38.6 -20.65 34.55 -20.75 34.2 -22.4 Q33.15 -28.1 33.0 -33.5 L33.05 -39.4 33.0 -41.55 33.0 -42.05 33.65 -41.95 32.4 -42.15 26.75 -42.85 26.2 -42.95 25.95 -42.95 25.8 -42.95 25.7 -43.0 25.6 -43.0 Q11.65 -44.4 0.3 -42.35 L-2.15 -41.85 -2.5 -41.8 -3.6 -41.55 -2.5 -41.8 -2.15 -41.85 0.3 -42.35 -1.25 -40.45 -2.0 -39.4 Q-6.2 -33.3 -11.35 -20.4 L-12.9 -20.35 Q-11.5 -25.6 -8.85 -31.65 -7.0 -35.95 -4.95 -39.4 L-3.6 -41.5 -3.6 -41.55 -7.35 -40.5 -7.9 -40.35 -8.05 -40.3 -13.2 -38.35 Q-13.65 -38.2 -14.05 -38.0 L-14.1 -37.95 -14.35 -37.85 Q-16.1 -35.9 -18.05 -32.8 L-19.1 -31.05 -21.8 -25.6 -23.75 -20.15 -23.85 -19.8 -25.55 -19.7 M44.15 -20.4 Q43.9 -21.85 44.4 -23.85 45.5 -28.55 50.5 -32.45 54.45 -35.5 56.45 -39.25 L56.5 -38.7 56.2 -37.6 55.7 -36.5 52.35 -31.85 51.65 -31.15 51.35 -30.8 51.0 -30.5 Q46.45 -25.95 46.0 -20.3 L44.15 -20.4" fill="#000000" fill-opacity="0.101960786" fill-rule="evenodd" stroke="none"/>
    <path d="M50.65 -19.9 L46.0 -20.25 M34.55 -20.75 Q21.05 -21.15 2.8 -20.8 L-11.35 -20.4 M-14.85 -20.25 L-23.85 -19.8 M-33.8 -19.05 L-30.05 -19.4" fill="none" stroke="#000000" stroke-linecap="round" stroke-linejoin="round" stroke-width="1.0"/>
    <path d="M10.65 -50.5 L10.95 -50.55 Q14.25 -52.05 18.0 -52.85 27.7 -54.85 31.05 -50.35 L17.15 -50.8 16.55 -50.75 11.65 -50.55 10.65 -50.5 M41.9 -48.6 L42.55 -48.45 Q41.95 -52.6 41.0 -54.15 37.85 -59.45 28.1 -60.5 17.75 -61.65 7.65 -56.85 3.2 -54.7 -1.0 -49.3 L0.15 -49.45 -1.0 -49.3 -2.5 -49.1 -4.0 -48.85 -4.25 -48.8 Q-13.85 -47.1 -17.0 -45.15 -19.65 -43.45 -22.2 -39.4 -24.4 -35.85 -26.5 -30.45 -28.75 -24.65 -30.0 -19.5 L-30.05 -19.4 M11.65 -50.55 L10.95 -50.55 M-23.85 -19.8 L-23.75 -20.15 -21.8 -25.6 -19.1 -31.05 -18.05 -32.8 Q-16.1 -35.9 -14.35 -37.85 L-14.1 -37.95 -14.05 -38.0 Q-13.65 -38.2 -13.2 -38.35 L-8.05 -40.3 -7.9 -40.35 -7.35 -40.5 M0.3 -42.35 Q11.65 -44.4 25.6 -43.0 L25.7 -43.0 25.8 -42.95 26.75 -42.85 32.4 -42.15 33.65 -41.95 33.0 -42.05 32.4 -42.15 M25.95 -42.95 L26.2 -42.95 26.75 -42.85 M44.4 -39.6 L44.85 -39.5 45.2 -39.4 46.0 -39.15 44.1 -37.15 43.45 -36.4 43.3 -39.4 43.3 -39.9 43.9 -39.75 44.4 -39.6 M56.45 -39.25 L56.45 -39.4 56.3 -41.15 53.85 -43.3 Q49.5 -46.6 42.55 -48.45 M33.0 -42.05 L33.0 -41.55 33.05 -39.4 33.0 -33.5 Q33.15 -28.1 34.2 -22.4 L34.55 -20.75 M46.0 -20.3 Q46.45 -25.95 51.0 -30.5 L51.35 -30.8 51.65 -31.15 52.35 -31.85 55.7 -36.5 56.2 -37.6 56.5 -38.7 56.45 -39.25 M52.35 -31.85 L51.35 -30.8 M46.0 -20.3 L46.0 -20.25 M-2.5 -49.1 L-1.0 -49.3 M-14.85 -20.25 Q-12.75 -27.65 -8.9 -35.85 L-7.15 -39.4 -6.45 -40.75 M-11.35 -20.4 Q-6.2 -33.3 -2.0 -39.4 L-1.25 -40.45 0.3 -42.35 M-13.2 -38.35 L-14.1 -37.95" fill="none" stroke="#231f20" stroke-linecap="round" stroke-linejoin="round" stroke-width="1.0"/>
    <path d="M3.9 -49.9 L7.9 -50.3 10.65 -50.5 M31.05 -50.35 L34.95 -49.9 41.9 -48.6 M0.15 -49.45 L2.0 -49.7 3.9 -49.9 M-25.55 -19.7 L-23.85 -19.8 M-7.35 -40.5 L-3.6 -41.55 -2.5 -41.8 -2.15 -41.85 0.3 -42.35 M33.65 -41.95 L35.95 -41.45 36.0 -41.45 43.3 -39.9 M43.45 -36.4 Q37.8 -29.6 38.6 -20.65 L44.15 -20.4 46.0 -20.3 M34.55 -20.75 L38.6 -20.65 M-11.35 -20.4 L-12.9 -20.35 -14.85 -20.25 M-30.05 -19.4 L-25.55 -19.7 M-24.85 -8.4 L-24.8 -8.35" fill="none" stroke="#000000" stroke-linecap="round" stroke-linejoin="round" stroke-opacity="0.6" stroke-width="1.0"/>
  </g>
</svg>
