<?xml version="1.0" encoding="UTF-8" standalone="no"?>
<svg xmlns:xlink="http://www.w3.org/1999/xlink" height="16.95px" width="16.2px" xmlns="http://www.w3.org/2000/svg">
  <g transform="matrix(1.0, 0.0, 0.0, 1.0, 8.5, 8.4)">
    <path d="M-0.05 -2.45 Q0.85 -2.45 1.6 -1.7 2.35 -0.95 2.45 0.05 2.5 1.0 1.75 1.75 1.0 2.5 0.0 2.4 -1.0 2.3 -1.75 1.65 -2.5 1.0 -2.5 0.0 -2.5 -1.0 -1.75 -1.75 -1.0 -2.5 -0.05 -2.45" fill="#000000" fill-rule="evenodd" stroke="none"/>
    <path d="M6.0 -3.35 Q3.35 -0.05 6.4 2.7 0.9 2.65 -0.95 7.05 -1.75 3.05 -6.05 4.95 -2.95 1.0 -7.0 -0.2 -2.45 -1.6 -4.3 -5.35 -1.4 -2.95 0.75 -6.95 1.75 -3.0 6.0 -3.35" fill="#ffffff" fill-opacity="0.0" fill-rule="evenodd" stroke="none"/>
    <path d="M6.0 -3.35 Q3.35 -0.05 6.4 2.7 0.9 2.65 -0.95 7.05 -1.75 3.05 -6.05 4.95 -2.95 1.0 -7.0 -0.2 -2.45 -1.6 -4.3 -5.35 -1.4 -2.95 0.75 -6.95 1.75 -3.0 6.0 -3.35 Z" fill="none" stroke="#000000" stroke-linecap="square" stroke-linejoin="miter-clip" stroke-miterlimit="3.0" stroke-opacity="0.4" stroke-width="1.0"/>
  </g>
</svg>
