<?xml version="1.0" encoding="UTF-8" standalone="no"?>
<svg xmlns:xlink="http://www.w3.org/1999/xlink" height="53.45px" width="103.2px" xmlns="http://www.w3.org/2000/svg">
  <g transform="matrix(1.0, 0.0, 0.0, 1.0, 50.25, 27.85)">
    <path d="M-19.4 17.8 Q-18.1 17.45 -15.7 16.2 -13.4 15.0 -11.95 14.65 -8.2 13.75 -4.15 15.25 -1.0 16.4 -0.5 18.55 0.05 21.25 -3.4 22.7 L-8.9 24.1 Q-13.45 25.25 -17.25 25.1 L-28.7 24.0 -35.0 22.85 -41.3 22.3 -45.55 22.65 -49.7 22.4 Q-49.55 21.35 -47.95 20.3 L-45.4 18.95 Q-42.0 17.05 -37.5 17.05 L-33.15 17.5 -28.9 18.4 Q-24.35 19.25 -19.4 17.8" fill="#ffffff" fill-opacity="0.0" fill-rule="evenodd" stroke="none"/>
    <path d="M-18.05 17.3 L-15.1 15.85 Q-13.35 15.0 -11.95 14.65 L-10.7 14.45 Q-8.0 14.65 -5.8 16.3 -3.7 17.95 -2.55 20.55 L-2.05 21.95 Q-3.25 22.8 -5.6 23.4 L-8.9 24.1 Q-13.45 25.25 -17.25 25.1 L-28.7 24.0 -35.0 22.85 -41.3 22.3 -45.55 22.65 -49.7 22.4 -49.55 21.95 Q-45.15 19.95 -38.25 19.95 L-31.15 20.85 Q-26.9 21.55 -24.05 20.95 L-25.0 20.65 Q-23.05 20.5 -21.15 19.6 -19.3 18.65 -18.05 17.3" fill="#000000" fill-opacity="0.2" fill-rule="evenodd" stroke="none"/>
    <path d="M-19.4 17.8 Q-24.35 19.25 -28.9 18.4 L-33.15 17.5 -37.5 17.05 Q-42.0 17.05 -45.4 18.95 L-47.95 20.3 Q-49.55 21.35 -49.7 22.4 L-45.55 22.65 -41.3 22.3 -35.0 22.85 -28.7 24.0 -17.25 25.1 Q-13.45 25.25 -8.9 24.1 L-3.4 22.7 Q0.05 21.25 -0.5 18.55 -1.0 16.4 -4.15 15.25 -8.2 13.75 -11.95 14.65 -13.4 15.0 -15.7 16.2 -18.1 17.45 -19.4 17.8 Z" fill="none" stroke="#000000" stroke-linecap="butt" stroke-linejoin="miter-clip" stroke-miterlimit="10.0" stroke-opacity="0.6" stroke-width="1.0"/>
    <path d="M39.8 -19.85 Q39.8 -17.9 40.85 -16.75 41.55 -16.0 42.8 -15.55 L45.0 -14.85 Q47.1 -13.95 48.35 -11.95 49.5 -10.1 49.7 -7.7 L49.6 -5.9 Q49.25 -5.2 48.15 -5.65 47.65 -5.85 47.05 -6.75 L45.95 -7.8 44.15 -7.95 42.35 -7.9 38.05 -8.6 Q35.8 -9.35 34.0 -11.1 32.0 -13.0 31.55 -15.2 31.15 -17.25 32.6 -20.05 33.8 -22.45 35.6 -24.1 36.8 -25.25 38.25 -25.05 39.8 -24.9 39.9 -23.15 L39.8 -19.85" fill="#ffffff" fill-opacity="0.0" fill-rule="evenodd" stroke="none"/>
    <path d="M39.8 -19.85 Q39.8 -17.9 40.85 -16.75 41.55 -16.0 42.8 -15.55 L45.0 -14.85 Q47.1 -13.95 48.35 -11.95 49.5 -10.1 49.7 -7.7 L49.6 -5.9 Q49.25 -5.2 48.15 -5.65 47.65 -5.85 47.05 -6.75 L45.95 -7.8 44.15 -7.95 42.35 -7.9 38.05 -8.6 Q35.8 -9.35 34.0 -11.1 32.0 -13.0 31.55 -15.2 31.15 -17.25 32.6 -20.05 33.8 -22.45 35.6 -24.1 36.8 -25.25 38.25 -25.05 39.8 -24.9 39.9 -23.15 L39.8 -19.85 Z" fill="none" stroke="#000000" stroke-linecap="butt" stroke-linejoin="miter-clip" stroke-miterlimit="10.0" stroke-opacity="0.6" stroke-width="1.0"/>
  </g>
</svg>
