<?xml version="1.0" encoding="UTF-8" standalone="no"?>
<svg xmlns:xlink="http://www.w3.org/1999/xlink" height="26.95px" width="43.3px" xmlns="http://www.w3.org/2000/svg">
  <g transform="matrix(1.0, 0.0, 0.0, 1.0, 21.65, 13.3)">
    <path d="M-17.9 -11.3 L-16.45 -12.15 Q-14.05 -13.0 -9.45 -12.7 L2.65 -11.3 2.65 -11.25 11.75 -10.3 Q16.3 -9.6 18.45 -8.25 19.55 -7.6 19.7 -7.1 21.35 -4.5 21.1 -0.05 21.0 2.15 20.55 3.85 L18.75 7.2 17.6 12.85 14.95 12.1 14.15 0.9 Q13.7 -1.9 11.05 -3.05 L8.5 -3.7 -7.7 -5.55 -10.3 -5.5 Q-13.15 -4.9 -14.2 -2.3 L-17.45 8.45 -20.2 8.65 -20.1 2.9 -21.15 -0.8 Q-21.2 -2.55 -20.85 -4.75 -20.1 -9.1 -17.9 -11.3" fill="#000000" fill-opacity="0.4" fill-rule="evenodd" stroke="none"/>
    <path d="M-17.9 -11.3 Q-20.1 -9.1 -20.85 -4.75 -21.2 -2.55 -21.15 -0.8 L-20.1 2.9 -20.2 8.65 -17.45 8.45 -14.2 -2.3 Q-13.15 -4.9 -10.3 -5.5 L-7.7 -5.55 8.5 -3.7 11.05 -3.05 Q13.7 -1.9 14.15 0.9 L14.95 12.1 17.6 12.85 18.75 7.2 20.55 3.85 Q21.0 2.15 21.1 -0.05 21.35 -4.5 19.7 -7.1 19.55 -7.6 18.45 -8.25 16.3 -9.6 11.75 -10.3 L2.65 -11.25 2.65 -11.3 -9.45 -12.7 Q-14.05 -13.0 -16.45 -12.15 L-17.9 -11.3 Z" fill="none" stroke="#000000" stroke-linecap="butt" stroke-linejoin="miter-clip" stroke-miterlimit="10.0" stroke-width="1.0"/>
    <path d="M-16.25 -10.95 Q-12.5 -12.4 -0.4 -10.55 L10.9 -8.45 -1.15 -9.15 -14.9 -9.75 Q-16.35 -9.65 -16.45 -10.3 L-16.25 -10.95" fill="#ffffff" fill-opacity="0.4" fill-rule="evenodd" stroke="none"/>
  </g>
</svg>
