<?xml version="1.0" encoding="UTF-8" standalone="no"?>
<svg xmlns:xlink="http://www.w3.org/1999/xlink" height="185.55px" width="58.9px" xmlns="http://www.w3.org/2000/svg">
  <g transform="matrix(1.0, 0.0, 0.0, 1.0, 29.45, 92.75)">
    <path d="M15.25 71.55 Q12.05 68.8 7.7 68.8 2.85 68.8 -0.6 72.25 -4.05 75.7 -4.05 80.55 -4.05 84.7 -1.5 87.85 -4.05 84.7 -4.05 80.55 -4.05 75.7 -0.6 72.25 2.85 68.8 7.7 68.8 12.05 68.8 15.25 71.55 L16.0 72.25 Q19.45 75.7 19.45 80.55 19.45 85.4 16.0 88.85 12.55 92.3 7.7 92.3 2.85 92.3 -0.6 88.85 L-1.5 87.85 -2.25 87.15 Q-5.7 83.75 -5.7 78.85 -5.7 74.0 -2.25 70.55 1.2 67.1 6.05 67.1 10.9 67.1 14.35 70.55 L15.25 71.55" fill="#ffffff" fill-opacity="0.0" fill-rule="evenodd" stroke="none"/>
    <path d="M-1.5 87.85 Q-4.05 84.7 -4.05 80.55 -4.05 75.7 -0.6 72.25 2.85 68.8 7.7 68.8 12.05 68.8 15.25 71.55" fill="none" stroke="#000000" stroke-linecap="round" stroke-linejoin="miter-clip" stroke-miterlimit="10.0" stroke-opacity="0.6" stroke-width="1.0"/>
    <path d="M15.25 71.55 L14.35 70.55 Q10.9 67.1 6.05 67.1 1.2 67.1 -2.25 70.55 -5.7 74.0 -5.7 78.85 -5.7 83.75 -2.25 87.15 L-1.5 87.85 -0.6 88.85 Q2.85 92.3 7.7 92.3 12.55 92.3 16.0 88.85 19.45 85.4 19.45 80.55 19.45 75.7 16.0 72.25 L15.25 71.55" fill="none" stroke="#000000" stroke-linecap="round" stroke-linejoin="miter-clip" stroke-miterlimit="10.0" stroke-width="1.0"/>
    <path d="M-23.55 83.35 L-23.55 87.3 Q-24.85 88.05 -27.0 87.9 L-28.95 87.6 -28.95 83.35 -23.55 83.35" fill="#ffffff" fill-opacity="0.0" fill-rule="evenodd" stroke="none"/>
    <path d="M-28.95 83.35 L-28.95 87.6 -27.0 87.9 Q-24.85 88.05 -23.55 87.3 L-23.55 83.35" fill="none" stroke="#000000" stroke-linecap="butt" stroke-linejoin="miter-clip" stroke-miterlimit="10.0" stroke-width="1.0"/>
    <path d="M-23.55 83.35 L-28.95 83.35 Z" fill="none" stroke="#000000" stroke-linecap="butt" stroke-linejoin="miter-clip" stroke-miterlimit="10.0" stroke-opacity="0.6" stroke-width="1.0"/>
    <path d="M-15.55 84.85 L-15.55 89.35 Q-17.0 90.2 -19.5 90.05 L-21.7 89.7 -21.7 84.85 -15.55 84.85" fill="#ffffff" fill-opacity="0.0" fill-rule="evenodd" stroke="none"/>
    <path d="M-21.7 84.85 L-21.7 89.7 -19.5 90.05 Q-17.0 90.2 -15.55 89.35 L-15.55 84.85" fill="none" stroke="#000000" stroke-linecap="butt" stroke-linejoin="miter-clip" stroke-miterlimit="10.0" stroke-width="1.0"/>
    <path d="M-15.55 84.85 L-21.7 84.85 Z" fill="none" stroke="#000000" stroke-linecap="butt" stroke-linejoin="miter-clip" stroke-miterlimit="10.0" stroke-opacity="0.6" stroke-width="1.0"/>
    <path d="M21.8 -92.15 Q23.35 -92.6 25.1 -90.6 L28.35 -86.1 Q29.85 -84.1 27.5 -84.1 L23.35 -84.4 Q22.1 -84.3 17.95 -80.0 L13.75 -75.65 Q13.2 -75.45 9.45 -79.75 L21.8 -92.15" fill="#ffffff" fill-opacity="0.0" fill-rule="evenodd" stroke="none"/>
    <path d="M21.8 -92.15 L9.45 -79.75 Q13.2 -75.45 13.75 -75.65 L17.95 -80.0 Q22.1 -84.3 23.35 -84.4 L27.5 -84.1 Q29.85 -84.1 28.35 -86.1 L25.1 -90.6 Q23.35 -92.6 21.8 -92.15 Z" fill="none" stroke="#000000" stroke-linecap="butt" stroke-linejoin="miter-clip" stroke-miterlimit="10.0" stroke-width="1.0"/>
    <path d="M23.8 -90.15 L12.1 -78.45 11.1 -79.45 22.45 -90.8 22.95 -90.75 23.8 -90.15" fill="#ffffff" fill-opacity="0.6" fill-rule="evenodd" stroke="none"/>
  </g>
</svg>
