<?xml version="1.0" encoding="UTF-8" standalone="no"?>
<svg xmlns:xlink="http://www.w3.org/1999/xlink" height="15.75px" width="19.9px" xmlns="http://www.w3.org/2000/svg">
  <g transform="matrix(1.0, 0.0, 0.0, 1.0, 9.4, 7.85)">
    <path d="M1.85 -7.35 L3.85 -7.35 3.85 -4.35 Q7.5 -2.45 8.55 0.8 9.05 2.4 8.85 3.65 L8.85 6.3 Q-0.45 8.4 -8.85 6.45 L-8.85 3.65 Q-9.05 2.4 -8.5 0.8 -7.45 -2.45 -3.85 -4.35 L-3.85 -7.35 -2.15 -7.35 1.85 -7.35" fill="#ffffff" fill-opacity="0.0" fill-rule="evenodd" stroke="none"/>
    <path d="M8.85 6.3 L8.85 3.65 Q9.05 2.4 8.55 0.8 7.5 -2.45 3.85 -4.35 L3.85 -7.35 1.85 -7.35 M-2.15 -7.35 L-3.85 -7.35 -3.85 -4.35 Q-7.45 -2.45 -8.5 0.8 -9.05 2.4 -8.85 3.65 L-8.85 6.45" fill="none" stroke="#000000" stroke-linecap="butt" stroke-linejoin="miter-clip" stroke-miterlimit="10.0" stroke-width="1.0"/>
    <path d="M1.85 -7.35 L-2.15 -7.35 M-8.85 6.45 Q-0.45 8.4 8.85 6.3 Z" fill="none" stroke="#000000" stroke-linecap="butt" stroke-linejoin="miter-clip" stroke-miterlimit="10.0" stroke-opacity="0.6" stroke-width="1.0"/>
    <path d="M-3.2 -1.05 Q-4.9 1.8 -5.05 5.95 L-7.2 4.95 Q-7.4 3.65 -6.95 1.95 -6.1 -1.35 -2.85 -3.05 L-1.55 -3.05 -3.2 -1.05" fill="#ffffff" fill-opacity="0.6" fill-rule="evenodd" stroke="none"/>
  </g>
</svg>
