<?xml version="1.0" encoding="UTF-8" standalone="no"?>
<svg xmlns:xlink="http://www.w3.org/1999/xlink" height="70.75px" width="64.5px" xmlns="http://www.w3.org/2000/svg">
  <g transform="matrix(1.0, 0.0, 0.0, 1.0, 32.25, 35.05)">
    <path d="M2.85 -32.8 L3.85 -33.6 Q5.9 -35.0 7.0 -35.05 8.4 -35.1 10.0 -34.15 11.7 -33.15 12.55 -31.6 13.3 -30.25 13.8 -27.4 L14.15 -24.8 14.15 -22.85 15.0 -23.3 14.2 -21.45 14.5 -21.7 14.8 -21.85 14.5 -20.1 14.6 -18.15 14.65 -17.75 15.1 -18.65 Q15.7 -19.6 16.35 -19.85 17.1 -20.05 17.95 -18.65 L19.05 -16.0 Q19.35 -14.95 19.05 -13.5 18.8 -12.35 18.35 -11.6 17.8 -10.55 15.6 -8.4 15.1 -7.9 14.25 -8.0 L13.55 -8.25 13.9 -10.3 Q14.25 -12.45 14.55 -12.9 L14.6 -12.95 14.65 -14.2 13.55 -12.65 10.25 -8.15 9.8 -9.15 Q9.65 -8.85 9.65 -6.55 L9.55 -2.9 Q9.35 -1.65 7.3 -0.2 L5.0 1.15 4.25 1.05 3.8 0.8 Q3.85 1.75 3.35 1.65 3.05 1.65 2.7 -0.1 L2.4 -1.85 1.15 -1.7 1.1 -0.35 1.0 1.55 0.5 1.6 0.05 1.3 -0.75 1.4 -2.7 0.75 -2.8 0.7 -3.55 -0.9 Q-4.05 -2.25 -3.75 -3.4 -5.55 -3.9 -5.45 -7.3 -4.95 -11.1 -5.1 -12.05 L-6.85 -12.3 Q-7.7 -12.55 -8.1 -13.4 L-8.45 -15.0 -8.4 -16.75 -7.7 -19.85 Q-7.05 -21.45 -5.95 -22.4 L-6.25 -23.55 -7.0 -23.7 -7.7 -23.9 -7.2 -26.1 Q-6.85 -26.9 -5.4 -27.25 -6.4 -27.2 -6.4 -27.9 L-5.9 -29.55 Q-4.45 -29.5 -2.95 -30.1 L-4.0 -30.35 -5.05 -30.6 -3.3 -31.4 -1.1 -32.2 0.95 -32.15 1.9 -32.3 2.05 -32.2 2.7 -32.7 2.85 -32.8 M-10.0 -9.1 L-10.55 -8.9 Q-10.9 -8.75 -12.25 -9.85 L-14.05 -11.75 Q-14.5 -12.4 -14.45 -13.4 L-14.3 -14.25 Q-14.45 -17.1 -12.5 -18.4 L-11.45 -18.8 -11.2 -18.8 Q-10.65 -18.7 -10.8 -18.0 L-10.85 -17.05 -10.85 -16.7 -11.15 -16.95 -11.85 -16.65 -12.8 -15.9 -13.1 -14.35 -13.05 -13.3 -12.85 -14.3 Q-12.6 -15.3 -12.3 -15.3 -11.9 -15.3 -11.5 -14.45 L-11.95 -13.85 -12.25 -12.95 -11.4 -11.4 -10.95 -12.1 -10.4 -13.45 -10.3 -12.95 -9.5 -9.25 -10.0 -9.1 M6.0 -29.85 L2.15 -29.8 -1.05 -29.6 6.0 -29.85 M0.85 -26.15 L-3.35 -25.3 0.2 -25.6 8.6 -25.65 0.85 -26.15 M2.7 -28.1 Q-2.55 -28.15 -4.65 -27.35 L-2.85 -27.4 1.0 -27.9 Q2.45 -28.1 7.6 -27.9 L2.7 -28.1 M11.1 -19.05 Q10.55 -19.65 9.05 -19.95 L7.35 -20.1 10.35 -19.85 Q9.55 -20.5 8.65 -20.55 L6.65 -20.35 5.8 -20.05 6.75 -20.7 Q7.85 -21.35 8.45 -21.4 L11.55 -21.7 8.05 -22.2 5.65 -21.0 4.05 -19.8 4.05 -18.25 4.25 -16.05 4.4 -16.85 4.7 -17.5 5.75 -16.1 Q6.8 -14.8 7.5 -14.5 6.2 -16.15 6.05 -17.25 L5.5 -18.15 6.85 -17.85 9.1 -17.5 Q9.85 -17.5 10.6 -18.2 L11.2 -18.9 11.1 -19.05 M14.65 -17.75 L14.6 -17.75 14.65 -17.15 14.6 -17.75 14.65 -17.75 M14.65 -17.15 L14.65 -15.65 14.6 -14.15 14.75 -14.4 14.65 -17.15 M14.75 -14.4 L14.6 -12.95 14.75 -14.4 M16.45 -16.75 Q15.8 -16.55 16.15 -15.45 16.6 -14.1 16.15 -13.7 L15.45 -12.9 14.95 -11.85 Q14.9 -11.2 15.2 -10.55 15.1 -10.75 15.15 -11.05 15.2 -11.65 15.75 -11.95 L17.25 -12.45 Q17.65 -13.85 17.15 -14.4 16.65 -14.95 16.65 -15.6 16.6 -16.25 17.5 -15.4 17.0 -16.95 16.45 -16.75 M7.2 -19.5 L6.8 -18.9 Q6.7 -18.6 6.95 -18.25 L7.2 -17.95 6.4 -18.1 Q5.6 -18.3 5.7 -18.5 L6.0 -19.1 Q6.35 -19.5 7.2 -19.5 M9.6 -18.75 L9.2 -19.25 Q10.3 -19.1 10.45 -18.7 L9.55 -18.05 Q9.8 -18.35 9.6 -18.75 M0.2 -17.65 Q-0.15 -19.95 -0.4 -20.45 L-1.3 -21.35 Q-2.25 -21.85 -3.55 -21.95 -4.8 -22.0 -6.15 -21.3 L-7.2 -20.6 Q-5.4 -21.75 -3.45 -21.25 L-1.8 -20.5 -4.3 -20.35 -5.5 -19.95 -3.4 -20.3 -5.05 -19.9 Q-6.05 -19.55 -6.55 -19.05 L-6.85 -18.5 -7.1 -17.85 -5.9 -17.45 -3.9 -17.15 -1.7 -17.55 -2.2 -16.9 -2.95 -15.75 Q-3.2 -15.15 -4.5 -13.55 L-3.85 -14.2 -2.55 -15.25 Q-1.75 -15.9 -0.95 -17.2 L-1.0 -14.0 Q-1.0 -13.8 -2.3 -11.75 -3.85 -10.45 -4.65 -8.7 L-5.15 -7.2 -2.2 -10.75 -2.25 -10.6 -2.05 -10.2 Q-1.75 -9.9 0.5 -9.3 L0.75 -6.5 -1.0 -6.15 -2.8 -5.6 -3.9 -5.2 2.2 -5.4 7.05 -5.65 4.9 -5.95 2.55 -6.45 2.35 -8.0 2.3 -9.45 Q4.55 -9.9 4.8 -10.15 5.05 -10.4 4.2 -11.0 L1.45 -10.7 -0.05 -10.85 Q-1.0 -11.05 -1.05 -11.3 L-0.6 -12.5 0.1 -13.7 0.2 -17.65 M4.8 -2.95 L1.1 -2.8 -0.55 -3.15 -1.25 -3.55 Q-1.7 -3.2 -0.6 -2.55 0.45 -1.95 1.45 -1.95 2.7 -1.95 4.8 -2.95 M1.9 4.35 Q4.2 3.9 12.35 0.0 L12.35 -0.1 12.4 -0.05 12.45 -0.1 16.0 3.0 16.9 3.7 17.7 4.35 18.65 5.05 21.15 6.65 23.95 7.9 31.7 10.65 31.5 11.85 Q31.2 14.0 29.55 16.2 L25.7 20.85 Q23.8 23.3 22.35 29.4 L21.55 33.1 21.25 35.0 17.65 35.0 17.8 28.6 16.55 14.6 Q16.35 12.5 15.35 9.4 L15.0 8.35 15.0 6.4 14.2 4.05 15.0 6.4 15.0 8.35 15.0 9.35 14.85 15.0 14.75 15.8 13.85 20.15 13.1 22.6 12.6 19.5 Q12.3 18.15 10.2 15.9 8.3 13.85 7.3 13.5 8.3 13.85 10.2 15.9 12.3 18.15 12.6 19.5 L13.1 22.6 13.85 20.15 14.75 15.8 15.05 21.0 Q15.4 26.85 15.8 28.4 16.3 30.25 15.6 35.0 L5.55 35.0 5.6 24.65 7.25 24.75 9.1 24.9 10.75 24.65 11.6 23.65 11.55 20.85 Q11.45 18.0 11.0 17.9 L9.45 17.5 7.35 17.6 5.3 18.25 4.7 18.4 Q4.6 17.85 4.25 17.85 L0.25 17.9 -0.05 18.05 -0.25 18.3 -2.95 17.9 Q-6.15 17.55 -6.9 17.85 -7.7 18.15 -7.6 20.15 L-7.3 22.65 -7.5 24.2 Q-7.6 25.05 -7.3 24.9 L-4.5 24.65 -1.75 24.5 -1.1 24.35 -1.25 25.8 -1.55 28.75 -1.25 35.0 -12.55 35.0 -12.55 25.0 Q-12.8 22.6 -11.9 18.25 L-11.65 17.1 -10.9 19.5 -9.75 22.75 -8.65 19.15 Q-7.4 15.7 -6.55 15.0 -4.25 13.1 -3.55 13.35 L-0.55 14.85 2.1 16.25 Q-2.25 12.85 -4.15 11.9 -5.5 11.25 -7.0 7.05 -8.45 3.1 -8.55 0.35 L-11.5 6.4 -11.65 6.85 -11.5 6.4 -8.55 0.35 Q-8.45 3.1 -7.0 7.05 -5.5 11.25 -4.15 11.9 -2.25 12.85 2.1 16.25 L-0.55 14.85 -3.55 13.35 Q-4.25 13.1 -6.55 15.0 -7.4 15.7 -8.65 19.15 L-9.75 22.75 -10.9 19.5 -11.65 17.1 -12.25 14.85 Q-12.5 13.5 -12.3 10.65 -12.1 8.1 -11.65 6.85 -12.75 9.05 -13.25 11.35 -13.8 13.85 -14.35 19.3 L-14.9 25.15 -14.15 35.0 -17.3 35.0 -17.25 33.9 -17.3 33.75 -17.45 33.4 -17.6 33.1 -20.1 29.5 -20.4 29.15 Q-23.55 24.95 -25.4 23.15 L-29.5 18.7 -31.65 16.1 -30.05 13.25 Q-28.05 10.6 -21.15 8.75 -15.85 7.3 -14.3 6.4 -13.2 5.75 -9.5 1.85 L-8.55 0.35 -4.25 2.45 Q0.0 4.45 1.4 4.45 -0.3 4.5 -6.55 2.5 -5.85 5.5 -4.75 6.6 -3.05 8.25 0.25 14.1 L-0.85 11.35 Q-1.85 8.55 -1.25 8.25 -0.25 7.75 4.6 7.4 L5.7 7.95 Q6.75 8.7 6.45 9.4 L3.2 14.6 Q4.45 12.9 5.2 12.6 L7.9 10.65 Q9.85 8.95 10.7 7.4 11.45 6.0 12.0 2.8 L12.2 1.15 Q4.15 4.0 1.9 4.35 M4.9 35.0 L-0.3 35.0 -0.55 28.65 -0.2 24.3 -0.05 24.9 4.6 25.0 4.6 24.55 4.7 24.55 4.85 24.55 4.8 26.1 4.85 28.6 4.85 31.95 4.9 35.0 M12.35 0.0 L12.2 1.15 12.35 0.0 12.4 -0.05 12.35 0.0 M12.95 0.85 L12.4 -0.05 12.95 0.85 13.85 3.15 14.2 4.05 14.75 2.05 13.3 0.75 12.95 0.85 M21.6 9.75 L26.6 12.4 21.8 7.5 Q19.0 6.2 16.1 3.9 L18.95 13.75 Q19.6 16.75 20.2 24.9 L21.2 21.95 Q22.15 18.55 21.85 16.15 21.55 13.75 21.55 11.5 L21.6 9.75 M2.1 16.25 L3.2 14.6 2.1 16.25 7.3 13.5 7.2 13.5 Q6.4 13.3 4.15 14.75 L2.1 16.25 M-2.5 -19.0 Q-2.45 -19.3 -2.85 -19.5 L-3.25 -19.65 Q-2.4 -19.65 -2.0 -19.15 L-1.6 -18.4 Q-1.5 -18.05 -2.95 -17.9 -2.55 -18.55 -2.5 -19.0 M-5.0 -19.2 L-5.25 -18.65 Q-5.45 -18.05 -4.8 -17.9 L-6.2 -18.15 -6.0 -18.6 Q-5.65 -19.1 -5.0 -19.2 M-8.8 5.9 Q-8.9 8.6 -8.55 9.35 -7.95 10.85 -6.55 12.75 L-4.3 12.05 Q-5.4 11.5 -6.65 8.65 -7.8 6.0 -8.4 3.05 L-8.7 2.1 -8.8 5.9 M-17.8 10.6 Q-20.15 12.75 -20.55 13.65 -21.0 14.55 -20.7 17.65 L-20.3 20.75 -18.8 24.9 -17.3 28.9 -17.1 24.6 Q-16.8 19.75 -16.25 17.0 -15.45 13.25 -12.9 5.7 L-14.25 6.75 -17.4 8.0 -21.05 9.1 -21.55 9.2 Q-24.25 10.65 -25.25 11.6 -27.05 13.35 -28.4 15.95 L-25.35 13.7 Q-22.5 11.7 -20.9 10.75 -18.65 9.4 -15.55 8.6 L-17.8 10.6" fill="#ffffff" fill-opacity="0.0" fill-rule="evenodd" stroke="none"/>
    <path d="M-2.8 0.7 L-2.45 1.4 Q-4.2 1.65 -6.7 -0.1 L-7.55 -0.8 -8.4 -1.5 -8.5 -2.9 -8.9 -6.2 -9.25 -8.25 -10.0 -9.1 -9.5 -9.25 -10.3 -12.95 -10.4 -13.45 -10.95 -12.1 -11.4 -11.4 -12.25 -12.95 -11.95 -13.85 -11.5 -14.45 Q-11.9 -15.3 -12.3 -15.3 -12.6 -15.3 -12.85 -14.3 L-13.05 -13.3 -13.1 -14.35 -12.8 -15.9 -11.85 -16.65 -11.15 -16.95 -10.85 -16.7 -10.8 -16.65 -10.8 -16.85 -10.85 -17.05 -10.8 -18.0 Q-10.65 -18.7 -11.2 -18.8 L-11.45 -18.8 -12.0 -20.4 Q-13.0 -21.65 -13.55 -23.25 -13.95 -24.25 -12.65 -27.2 L-11.3 -29.9 Q-9.1 -33.55 -4.4 -34.6 L-0.15 -34.9 1.25 -34.95 2.85 -32.8 2.7 -32.7 1.9 -32.3 0.95 -32.15 -1.1 -32.2 -3.3 -31.4 -5.05 -30.6 -4.0 -30.35 -2.95 -30.1 Q-4.45 -29.5 -5.9 -29.55 L-6.4 -27.9 Q-6.4 -27.2 -5.4 -27.25 -6.85 -26.9 -7.2 -26.1 L-7.7 -23.9 -7.0 -23.7 -6.25 -23.55 -5.95 -22.4 Q-7.05 -21.45 -7.7 -19.85 L-8.4 -16.75 -8.45 -15.0 -8.1 -13.4 Q-7.7 -12.55 -6.85 -12.3 L-5.1 -12.05 Q-4.95 -11.1 -5.45 -7.3 -5.55 -3.9 -3.75 -3.4 -4.05 -2.25 -3.55 -0.9 L-2.8 0.7 M6.0 -29.85 L-1.05 -29.6 2.15 -29.8 6.0 -29.85 M11.1 -19.05 L11.2 -18.9 10.6 -18.2 Q9.85 -17.5 9.1 -17.5 L6.85 -17.85 5.5 -18.15 6.05 -17.25 Q6.2 -16.15 7.5 -14.5 6.8 -14.8 5.75 -16.1 L4.7 -17.5 4.4 -16.85 4.25 -16.05 4.05 -18.25 4.05 -19.8 5.65 -21.0 8.05 -22.2 11.55 -21.7 8.45 -21.4 Q7.85 -21.35 6.75 -20.7 L5.8 -20.05 6.65 -20.35 8.65 -20.55 Q9.55 -20.5 10.35 -19.85 L7.35 -20.1 9.05 -19.95 Q10.55 -19.65 11.1 -19.05 M2.7 -28.1 L7.6 -27.9 Q2.45 -28.1 1.0 -27.9 L-2.85 -27.4 -4.65 -27.35 Q-2.55 -28.15 2.7 -28.1 M0.85 -26.15 L8.6 -25.65 0.2 -25.6 -3.35 -25.3 0.85 -26.15 M7.2 -19.5 Q6.35 -19.5 6.0 -19.1 L5.7 -18.5 Q5.6 -18.3 6.4 -18.1 L7.2 -17.95 6.95 -18.25 Q6.7 -18.6 6.8 -18.9 L7.2 -19.5 M16.45 -16.75 Q17.0 -16.95 17.5 -15.4 16.6 -16.25 16.65 -15.6 16.65 -14.95 17.15 -14.4 17.65 -13.85 17.25 -12.45 L15.75 -11.95 Q15.2 -11.65 15.15 -11.05 15.1 -10.75 15.2 -10.55 14.9 -11.2 14.95 -11.85 L15.45 -12.9 16.15 -13.7 Q16.6 -14.1 16.15 -15.45 15.8 -16.55 16.45 -16.75 M9.6 -18.75 Q9.8 -18.35 9.55 -18.05 L10.45 -18.7 Q10.3 -19.1 9.2 -19.25 L9.6 -18.75 M0.2 -17.65 L0.1 -13.7 -0.6 -12.5 -1.05 -11.3 Q-1.0 -11.05 -0.05 -10.85 L1.45 -10.7 4.2 -11.0 Q5.05 -10.4 4.8 -10.15 4.55 -9.9 2.3 -9.45 L2.35 -8.0 2.55 -6.45 4.9 -5.95 7.05 -5.65 2.2 -5.4 -3.9 -5.2 -2.8 -5.6 -1.0 -6.15 0.75 -6.5 0.5 -9.3 Q-1.75 -9.9 -2.05 -10.2 L-2.25 -10.6 -2.2 -10.75 -5.15 -7.2 -4.65 -8.7 Q-3.85 -10.45 -2.3 -11.75 -1.0 -13.8 -1.0 -14.0 L-0.95 -17.2 Q-1.75 -15.9 -2.55 -15.25 L-3.85 -14.2 -4.5 -13.55 Q-3.2 -15.15 -2.95 -15.75 L-2.2 -16.9 -1.7 -17.55 -3.9 -17.15 -5.9 -17.45 -7.1 -17.85 -6.85 -18.5 -6.55 -19.05 Q-6.05 -19.55 -5.05 -19.9 L-3.4 -20.3 -5.5 -19.95 -4.3 -20.35 -1.8 -20.5 -3.45 -21.25 Q-5.4 -21.75 -7.2 -20.6 L-6.15 -21.3 Q-4.8 -22.0 -3.55 -21.95 -2.25 -21.85 -1.3 -21.35 L-0.4 -20.45 Q-0.15 -19.95 0.2 -17.65 M4.8 -2.95 Q2.7 -1.95 1.45 -1.95 0.45 -1.95 -0.6 -2.55 -1.7 -3.2 -1.25 -3.55 L-0.55 -3.15 1.1 -2.8 4.8 -2.95 M17.65 35.0 L15.6 35.0 Q16.3 30.25 15.8 28.4 15.4 26.85 15.05 21.0 L14.75 15.8 14.85 15.0 15.0 9.35 15.0 8.35 15.35 9.4 Q16.35 12.5 16.55 14.6 L17.8 28.6 17.65 35.0 M5.55 35.0 L4.9 35.0 4.85 31.95 4.85 28.6 4.8 26.1 4.85 24.55 5.6 24.65 5.55 35.0 M-0.3 35.0 L-1.25 35.0 -1.55 28.75 -1.25 25.8 -1.1 24.35 -0.3 24.25 -0.25 24.25 -0.2 24.3 -0.55 28.65 -0.3 35.0 M-12.55 35.0 L-14.15 35.0 -14.9 25.15 -14.35 19.3 Q-13.8 13.85 -13.25 11.35 -12.75 9.05 -11.65 6.85 -12.1 8.1 -12.3 10.65 -12.5 13.5 -12.25 14.85 L-11.65 17.1 -11.9 18.25 Q-12.8 22.6 -12.55 25.0 L-12.55 35.0 M21.6 9.75 L21.55 11.5 Q21.55 13.75 21.85 16.15 22.15 18.55 21.2 21.95 L20.2 24.9 Q19.6 16.75 18.95 13.75 L16.1 3.9 Q19.0 6.2 21.8 7.5 L26.6 12.4 21.6 9.75 M-2.5 -19.0 Q-2.55 -18.55 -2.95 -17.9 -1.5 -18.05 -1.6 -18.4 L-2.0 -19.15 Q-2.4 -19.65 -3.25 -19.65 L-2.85 -19.5 Q-2.45 -19.3 -2.5 -19.0 M-5.0 -19.2 Q-5.65 -19.1 -6.0 -18.6 L-6.2 -18.15 -4.8 -17.9 Q-5.45 -18.05 -5.25 -18.65 L-5.0 -19.2 M-8.8 5.9 L-8.7 2.1 -8.4 3.05 Q-7.8 6.0 -6.65 8.65 -5.4 11.5 -4.3 12.05 L-6.55 12.75 Q-7.95 10.85 -8.55 9.35 -8.9 8.6 -8.8 5.9 M-17.8 10.6 L-15.55 8.6 Q-18.65 9.4 -20.9 10.75 -22.5 11.7 -25.35 13.7 L-28.4 15.95 Q-27.05 13.35 -25.25 11.6 -24.25 10.65 -21.55 9.2 L-21.05 9.1 -17.4 8.0 -14.25 6.75 -12.9 5.7 Q-15.45 13.25 -16.25 17.0 -16.8 19.75 -17.1 24.6 L-17.3 28.9 -18.8 24.9 -20.3 20.75 -20.7 17.65 Q-21.0 14.55 -20.55 13.65 -20.15 12.75 -17.8 10.6" fill="#000000" fill-opacity="0.4" fill-rule="evenodd" stroke="none"/>
    <path d="M1.4 4.45 L1.45 4.45 1.9 4.35 Q4.15 4.0 12.2 1.15 L12.0 2.8 Q11.45 6.0 10.7 7.4 9.85 8.95 7.9 10.65 L5.2 12.6 Q4.45 12.9 3.2 14.6 L6.45 9.4 Q6.75 8.7 5.7 7.95 L4.6 7.4 Q-0.25 7.75 -1.25 8.25 -1.85 8.55 -0.85 11.35 L0.25 14.1 Q-3.05 8.25 -4.75 6.6 -5.85 5.5 -6.55 2.5 -0.3 4.5 1.4 4.45 M12.95 0.85 L13.3 0.75 14.75 2.05 14.2 4.05 13.85 3.15 12.95 0.85 M2.1 16.25 L4.15 14.75 Q6.4 13.3 7.2 13.5 L7.3 13.5 2.1 16.25 M4.7 19.65 L9.85 19.0 Q9.2 19.85 8.2 20.25 7.55 20.45 6.75 21.0 L6.05 21.5 7.45 22.1 Q8.75 22.8 8.45 23.1 L4.65 23.0 4.7 19.65 M-0.4 19.5 L-0.4 20.1 -0.5 21.85 -0.5 22.3 -4.8 22.5 Q-5.45 22.4 -3.7 21.9 L-1.8 21.35 Q-1.3 20.75 -1.45 20.1 -1.55 19.5 -5.55 19.1 L-0.45 19.5 -0.4 19.5" fill="#000000" fill-opacity="0.2" fill-rule="evenodd" stroke="none"/>
    <path d="M4.7 18.4 L5.3 18.25 7.35 17.6 9.45 17.5 11.0 17.9 Q11.45 18.0 11.55 20.85 L11.6 23.65 10.75 24.65 9.1 24.9 7.25 24.75 5.6 24.65 4.85 24.55 4.7 24.55 4.6 24.55 4.65 23.0 4.6 24.55 4.6 25.0 -0.05 24.9 -0.2 24.3 -0.25 24.25 -0.5 22.3 -0.25 24.25 -0.3 24.25 -1.1 24.35 -1.75 24.5 -4.5 24.65 -7.3 24.9 Q-7.6 25.05 -7.5 24.2 L-7.3 22.65 -7.6 20.15 Q-7.7 18.15 -6.9 17.85 -6.15 17.55 -2.95 17.9 L-0.25 18.3 -0.05 18.05 0.25 17.9 4.25 17.85 Q4.6 17.85 4.7 18.4 L4.7 18.65 4.7 18.4 M4.7 19.65 L4.7 18.65 4.7 19.65 4.65 23.0 8.45 23.1 Q8.75 22.8 7.45 22.1 L6.05 21.5 6.75 21.0 Q7.55 20.45 8.2 20.25 9.2 19.85 9.85 19.0 L4.7 19.65 M-0.4 19.5 L-0.4 19.1 -0.25 18.3 -0.4 19.1 -0.4 19.5 -0.45 19.5 -5.55 19.1 Q-1.55 19.5 -1.45 20.1 -1.3 20.75 -1.8 21.35 L-3.7 21.9 Q-5.45 22.4 -4.8 22.5 L-0.5 22.3 -0.5 21.85 -0.4 20.1 -0.4 19.5" fill="#ffffff" fill-opacity="0.2" fill-rule="evenodd" stroke="none"/>
    <path d="M14.65 -17.75 L15.1 -18.65 Q15.7 -19.6 16.35 -19.85 17.1 -20.05 17.95 -18.65 L19.05 -16.0 Q19.35 -14.95 19.05 -13.5 18.8 -12.35 18.35 -11.6 17.8 -10.55 15.6 -8.4 15.1 -7.9 14.25 -8.0 L13.55 -8.25 13.9 -10.3 Q14.25 -12.45 14.55 -12.9 L14.6 -12.95 14.75 -14.4 14.65 -17.15 14.6 -17.75 14.65 -17.75 M-10.0 -9.1 L-10.55 -8.9 Q-10.9 -8.75 -12.25 -9.85 L-14.05 -11.75 Q-14.5 -12.4 -14.45 -13.4 L-14.3 -14.25 Q-14.45 -17.1 -12.5 -18.4 L-11.45 -18.8 -11.2 -18.8 Q-10.65 -18.7 -10.8 -18.0 L-10.85 -17.05 -10.85 -16.7 M1.9 4.35 Q4.2 3.9 12.35 0.0 L12.35 -0.1 12.4 -0.05 12.45 -0.1 16.0 3.0 16.9 3.7 18.65 5.05 21.15 6.65 23.95 7.9 31.7 10.65 31.5 11.85 Q31.2 14.0 29.55 16.2 L25.7 20.85 Q23.8 23.3 22.35 29.4 L21.55 33.1 M-17.3 33.75 L-17.45 33.4 -17.6 33.1 -20.1 29.5 -20.4 29.15 Q-23.55 24.95 -25.4 23.15 L-29.5 18.7 -31.65 16.1 -30.05 13.25 Q-28.05 10.6 -21.15 8.75 -15.85 7.3 -14.3 6.4 -13.2 5.75 -9.5 1.85 L-8.55 0.35 -4.25 2.45 Q0.0 4.45 1.4 4.45 L1.45 4.45 1.9 4.35 M12.35 0.0 L12.4 -0.05 M-10.4 -13.45 L-10.3 -12.95 -9.5 -9.25 -10.0 -9.1" fill="none" stroke="#000000" stroke-linecap="butt" stroke-linejoin="miter-clip" stroke-miterlimit="10.0" stroke-width="1.0"/>
    <path d="M21.55 33.1 L21.25 35.0 17.65 35.0 15.6 35.0 5.55 35.0 4.9 35.0 -0.3 35.0 -1.25 35.0 -12.55 35.0 -14.15 35.0 -17.3 35.0 -17.25 33.9 -17.3 33.75 M12.2 1.15 L12.35 0.0 M12.4 -0.05 L12.95 0.85 13.85 3.15 14.2 4.05 15.0 6.4 15.0 8.35 15.0 9.35 14.85 15.0 14.75 15.8 13.85 20.15 13.1 22.6 12.6 19.5 Q12.3 18.15 10.2 15.9 8.3 13.85 7.3 13.5 L7.2 13.5 Q6.4 13.3 4.15 14.75 L2.1 16.25 Q-2.25 12.85 -4.15 11.9 -5.5 11.25 -7.0 7.05 -8.45 3.1 -8.55 0.35 L-11.5 6.4 -11.65 6.85 Q-12.1 8.1 -12.3 10.65 -12.5 13.5 -12.25 14.85 L-11.65 17.1 -10.9 19.5 -9.75 22.75 -8.65 19.15 Q-7.4 15.7 -6.55 15.0 -4.25 13.1 -3.55 13.35 L-0.55 14.85 2.1 16.25 3.2 14.6 Q4.45 12.9 5.2 12.6 L7.9 10.65 Q9.85 8.95 10.7 7.4 11.45 6.0 12.0 2.8 L12.2 1.15 M4.7 18.65 L4.7 19.65 4.65 23.0 4.6 24.55 M-0.25 18.3 L-0.4 19.1 -0.4 19.5 -0.4 20.1 -0.5 21.85 -0.5 22.3 -0.25 24.25" fill="none" stroke="#000000" stroke-linecap="butt" stroke-linejoin="miter-clip" stroke-miterlimit="10.0" stroke-opacity="0.6" stroke-width="1.0"/>
    <path d="M5.6 24.65 L7.25 24.75 9.1 24.9 10.75 24.65 11.6 23.65 11.55 20.85 Q11.45 18.0 11.0 17.9 L9.45 17.5 7.35 17.6 5.3 18.25 4.7 18.4 4.7 18.65 M4.6 24.55 L4.7 24.55 4.85 24.55 5.6 24.65 M4.7 18.4 Q4.6 17.85 4.25 17.85 L0.25 17.9 -0.05 18.05 -0.25 18.3 -2.95 17.9 Q-6.15 17.55 -6.9 17.85 -7.7 18.15 -7.6 20.15 L-7.3 22.65 -7.5 24.2 Q-7.6 25.05 -7.3 24.9 L-4.5 24.65 -1.75 24.5 -1.1 24.35 -0.3 24.25 -0.25 24.25 -0.2 24.3 -0.05 24.9 4.6 25.0 4.6 24.55" fill="none" stroke="#000000" stroke-linecap="butt" stroke-linejoin="miter-clip" stroke-miterlimit="10.0" stroke-opacity="0.8" stroke-width="1.0"/>
  </g>
</svg>
