<?xml version="1.0" encoding="UTF-8" standalone="no"?>
<svg xmlns:xlink="http://www.w3.org/1999/xlink" height="211.25px" width="1007.5px" xmlns="http://www.w3.org/2000/svg">
  <g transform="matrix(1.0, 0.0, 0.0, 1.0, 503.75, 105.6)">
    <path d="M503.25 -105.1 L499.5 -47.6 Q504.25 -30.85 490.0 -8.1 461.25 37.15 365.75 67.15 L184.0 105.15 -503.25 105.15 -503.25 -105.1 503.25 -105.1" fill="#ffffff" fill-opacity="0.0" fill-rule="evenodd" stroke="none"/>
    <path d="M-503.25 105.15 L184.0 105.15 365.75 67.15 Q461.25 37.15 490.0 -8.1 504.25 -30.85 499.5 -47.6 L503.25 -105.1" fill="none" stroke="#000000" stroke-linecap="butt" stroke-linejoin="miter-clip" stroke-miterlimit="10.0" stroke-width="1.0"/>
    <path d="M503.25 -105.1 L-503.25 -105.1" fill="none" stroke="#000000" stroke-linecap="butt" stroke-linejoin="miter-clip" stroke-miterlimit="10.0" stroke-opacity="0.6" stroke-width="1.0"/>
    <path d="M-464.0 -95.6 L481.0 -97.1 Q251.0 -91.35 18.0 -88.1 -448.25 -82.1 -464.0 -95.6" fill="#ffffff" fill-opacity="0.6" fill-rule="evenodd" stroke="none"/>
  </g>
</svg>
