<?xml version="1.0" encoding="UTF-8" standalone="no"?>
<svg xmlns:xlink="http://www.w3.org/1999/xlink" height="4.8px" width="28.8px" xmlns="http://www.w3.org/2000/svg">
  <g transform="matrix(1.0, 0.0, 0.0, 1.0, 0.55, 0.55)">
    <path d="M27.45 3.45 Q16.4 3.95 2.0 3.55 L0.45 3.55 0.0 0.6 0.65 0.05 10.5 0.3 Q21.5 0.45 27.05 0.0 L27.75 0.65 27.45 3.45 M11.8 1.05 L1.05 0.75 Q3.85 1.9 15.45 1.6 L25.25 1.15 Q21.35 1.3 11.8 1.05" fill="#000000" fill-opacity="0.69803923" fill-rule="evenodd" stroke="none"/>
    <path d="M11.8 1.05 Q21.35 1.3 25.25 1.15 L15.45 1.6 Q3.85 1.9 1.05 0.75 L11.8 1.05" fill="#000000" fill-opacity="0.49803922" fill-rule="evenodd" stroke="none"/>
    <path d="M27.45 3.45 Q16.4 3.95 2.0 3.55 L0.45 3.55 0.0 0.6 0.65 0.05 10.5 0.3 Q21.5 0.45 27.05 0.0 L27.75 0.65 27.45 3.45 Z" fill="none" stroke="#373535" stroke-linecap="round" stroke-linejoin="miter-clip" stroke-miterlimit="10.0" stroke-width="1.0"/>
  </g>
</svg>
