<?xml version="1.0" encoding="UTF-8" standalone="no"?>
<svg xmlns:xlink="http://www.w3.org/1999/xlink" height="69.0px" width="49.7px" xmlns="http://www.w3.org/2000/svg">
  <g transform="matrix(1.0, 0.0, 0.0, 1.0, 27.2, 13.25)">
    <path d="M21.55 6.7 Q20.9 -0.35 13.3 -3.35 10.9 -4.3 8.0 -4.7 L5.6 -4.95 Q7.5 -4.35 8.8 -2.85 L9.6 -1.8 9.5 -1.85 Q11.45 1.45 15.75 3.8 L19.65 5.45 19.5 5.45 18.35 5.1 Q10.2 4.2 3.45 -0.75 1.3 -2.3 -0.4 -4.1 L-1.7 -5.55 -0.9 -2.15 -1.35 -2.7 Q-4.25 2.3 -4.55 6.95 -4.95 13.75 0.35 18.8 L-1.9 17.1 Q-4.5 14.85 -6.45 11.95 L-6.5 12.35 -6.5 12.2 Q-8.8 8.35 -9.05 6.05 -9.75 8.8 -9.6 12.75 -9.5 16.7 -8.55 20.9 -6.5 30.6 -2.0 35.5 1.95 39.85 1.7 44.1 1.6 46.2 0.75 47.45 0.95 46.3 0.8 44.7 0.4 41.55 -1.8 39.4 L-6.25 35.1 Q-8.2 33.05 -9.2 30.7 L-9.35 33.75 -9.5 35.4 -9.4 33.2 -9.35 32.15 -13.15 22.0 -14.7 17.85 Q-11.85 26.1 -12.4 33.5 -12.65 37.7 -13.7 40.0 -13.55 36.4 -14.55 32.3 L-15.55 28.9 Q-13.45 38.55 -17.75 46.35 -20.45 51.25 -24.95 54.5 L-24.6 54.4 -25.45 54.7 -26.55 55.1 -25.35 54.15 -24.2 52.85 -22.2 50.25 Q-19.4 45.6 -20.05 39.15 -20.3 36.85 -21.1 33.5 L-22.45 27.8 -23.4 22.95 -24.35 18.1 -25.0 13.05 Q-25.2 10.15 -24.85 7.25 -24.15 1.6 -21.05 -2.75 -18.4 -6.55 -14.25 -9.05 -10.6 -11.2 -6.55 -12.0 -2.85 -12.7 -0.3 -12.05 3.25 -13.65 10.1 -10.5 19.1 -6.35 21.25 0.9 21.95 3.15 21.85 5.45 L21.6 7.25 21.55 6.7 M8.0 -9.7 Q15.95 -6.65 19.7 1.1 L19.05 -0.85 Q18.05 -3.25 16.4 -5.2 11.05 -11.5 0.75 -11.15 L2.9 -11.0 8.0 -9.7 M-8.0 -9.1 Q-11.2 -8.85 -13.9 -7.55 -22.55 -3.5 -23.25 9.35 L-22.7 6.45 Q-21.8 3.0 -20.25 0.15 -15.25 -9.05 -5.35 -9.05 L-8.0 -9.1" fill="#ffffff" fill-opacity="0.0" fill-rule="evenodd" stroke="none"/>
    <path d="M8.0 -9.7 L2.9 -11.0 0.75 -11.15 Q11.05 -11.5 16.4 -5.2 18.05 -3.25 19.05 -0.85 L19.7 1.1 Q15.95 -6.65 8.0 -9.7 M-8.0 -9.1 L-5.35 -9.05 Q-15.25 -9.05 -20.25 0.15 -21.8 3.0 -22.7 6.45 L-23.25 9.35 Q-22.55 -3.5 -13.9 -7.55 -11.2 -8.85 -8.0 -9.1" fill="#ffffff" fill-opacity="0.2" fill-rule="evenodd" stroke="none"/>
    <path d="M9.6 -1.8 L8.8 -2.85 Q7.5 -4.35 5.6 -4.95 L8.0 -4.7 Q10.9 -4.3 13.3 -3.35 20.9 -0.35 21.55 6.7 L21.55 7.05 Q20.9 4.45 18.3 2.4 16.95 1.3 15.05 0.4 L14.5 0.15 Q13.0 -0.55 11.35 -1.05 L9.75 -1.5 9.6 -1.8 M-24.6 54.4 L-24.95 54.5 Q-20.45 51.25 -17.75 46.35 -13.45 38.55 -15.55 28.9 L-14.55 32.3 Q-13.55 36.4 -13.7 40.0 -12.65 37.7 -12.4 33.5 -11.85 26.1 -14.7 17.85 L-13.15 22.0 -9.35 32.15 -9.4 33.2 -9.5 35.4 -9.55 35.95 -9.6 36.3 Q-9.9 38.65 -10.45 40.85 L-11.25 43.65 -12.1 45.8 -17.0 52.8 -18.6 54.0 -19.15 54.3 -17.15 51.95 Q-15.95 50.15 -15.5 48.15 L-15.8 48.55 -15.85 48.6 -15.7 48.25 -15.65 48.1 -15.55 47.6 Q-16.75 49.25 -18.4 50.65 L-19.35 51.4 -20.35 52.05 -20.7 52.35 -20.9 52.45 -21.85 53.0 -23.0 53.65 -23.2 53.75 -24.6 54.4 M0.75 47.45 Q1.6 46.2 1.7 44.1 1.95 39.85 -2.0 35.5 -6.5 30.6 -8.55 20.9 -9.5 16.7 -9.6 12.75 -9.75 8.8 -9.05 6.05 -8.8 8.35 -6.5 12.2 L-6.5 12.35 -6.1 20.4 Q-5.5 24.15 -4.4 26.95 -3.0 30.55 -0.65 33.35 4.0 38.75 2.85 43.65 2.25 46.1 0.75 47.45 M-0.9 -2.15 L-1.7 -5.55 -0.4 -4.1 Q1.3 -2.3 3.45 -0.75 10.2 4.2 18.35 5.1 L19.5 5.45 19.6 5.5 15.65 5.45 12.1 5.0 7.8 3.8 Q5.75 3.0 3.9 1.9 1.8 0.65 0.25 -0.85 L-0.55 -1.75 -0.9 -2.1 -0.9 -2.15" fill="#000000" fill-opacity="0.2" fill-rule="evenodd" stroke="none"/>
    <path d="M14.5 0.15 L15.05 0.4 Q16.95 1.3 18.3 2.4 L15.4 0.6 14.5 0.15 M-0.55 -1.75 L0.25 -0.85 Q1.8 0.65 3.9 1.9 5.75 3.0 7.8 3.8 5.5 3.0 3.5 1.75 1.45 0.45 -0.05 -1.1 L-0.55 -1.75 M-15.8 48.55 L-15.5 48.15 Q-15.95 50.15 -17.15 51.95 L-19.15 54.3 -18.6 54.0 -20.35 54.95 -19.75 54.45 -18.35 53.05 Q-16.6 50.95 -15.8 48.55 M-19.35 51.4 L-20.7 52.35 -20.35 52.05 -19.35 51.4" fill="#89513e" fill-rule="evenodd" stroke="none"/>
    <path d="M21.55 6.7 L21.6 7.25 21.85 5.45 Q21.95 3.15 21.25 0.9 19.1 -6.35 10.1 -10.5 3.25 -13.65 -0.3 -12.05 -2.85 -12.7 -6.55 -12.0 -10.6 -11.2 -14.25 -9.05 -18.4 -6.55 -21.05 -2.75 -24.15 1.6 -24.85 7.25 -25.2 10.15 -25.0 13.05 L-24.35 18.1 -23.4 22.95 -22.45 27.8 -21.1 33.5 Q-20.3 36.85 -20.05 39.15 -19.4 45.6 -22.2 50.25 L-24.2 52.85 -25.35 54.15 -26.55 55.1 -25.45 54.7 -24.6 54.4 -23.2 53.75 -23.0 53.65 -21.85 53.0 -20.9 52.45 -20.7 52.35 -19.35 51.4 -18.4 50.65 Q-16.75 49.25 -15.55 47.6 L-15.65 48.1 -15.7 48.25 -15.85 48.6 -15.8 48.55 Q-16.6 50.95 -18.35 53.05 L-19.75 54.45 -20.35 54.95 -18.6 54.0 -17.0 52.8 -12.1 45.8 -11.25 43.65 -10.45 40.85 Q-9.9 38.65 -9.6 36.3 L-9.55 35.95 -9.5 35.4 -9.35 33.75 -9.2 30.7 Q-8.2 33.05 -6.25 35.1 L-1.8 39.4 Q0.4 41.55 0.8 44.7 0.95 46.3 0.75 47.45 2.25 46.1 2.85 43.65 4.0 38.75 -0.65 33.35 -3.0 30.55 -4.4 26.95 -5.5 24.15 -6.1 20.4 L-6.5 12.35 -6.45 11.95 Q-4.5 14.85 -1.9 17.1 L0.35 18.8 Q-4.95 13.75 -4.55 6.95 -4.25 2.3 -1.35 -2.7 L-0.9 -2.15 -0.9 -2.1 -0.05 -1.1 Q1.45 0.45 3.5 1.75 5.5 3.0 7.8 3.8 L12.1 5.0 15.65 5.45 19.6 5.5 19.5 5.45 19.65 5.45 15.75 3.8 Q11.45 1.45 9.5 -1.85 L9.6 -1.8 9.75 -1.5 11.35 -1.05 Q13.0 -0.55 14.5 0.15 L15.4 0.6 18.3 2.4 Q20.9 4.45 21.55 7.05 L21.55 6.7 Z" fill="none" stroke="#000000" stroke-linecap="square" stroke-linejoin="round" stroke-opacity="0.6" stroke-width="1.0"/>
  </g>
</svg>
