<?xml version="1.0" encoding="UTF-8" standalone="no"?>
<svg xmlns:xlink="http://www.w3.org/1999/xlink" height="9.85px" width="40.7px" xmlns="http://www.w3.org/2000/svg">
  <g transform="matrix(1.0, 0.0, 0.0, 1.0, 20.3, 1.4)">
    <path d="M6.1 5.85 L5.8 5.5 Q5.1 4.7 4.7 3.7 L4.4 2.5 Q4.4 1.9 4.9 1.4 5.3 0.7 6.3 -0.1 L8.3 -1.0 11.6 -1.4 12.0 -1.4 13.4 -1.4 15.15 -1.2 17.8 -0.55 19.05 0.15 19.4 0.4 Q20.4 1.4 20.4 2.2 20.5 3.2 19.9 4.4 L19.9 4.5 18.8 5.8 18.1 6.4 16.4 7.6 Q14.4 8.6 11.95 8.4 L11.4 8.3 11.3 8.3 8.45 7.55 Q7.1 6.9 6.1 5.85 M-12.7 -1.4 L-11.9 -1.4 -8.4 -1.05 -8.2 -1.0 -6.2 -0.1 Q-5.2 0.7 -4.8 1.4 -4.3 1.9 -4.3 2.5 L-4.6 3.7 Q-5.0 4.7 -5.7 5.5 -7.7 7.9 -11.3 8.3 -14.1 8.7 -16.3 7.6 L-16.45 7.5 -18.0 6.4 -18.7 5.8 -19.05 5.45 -19.8 4.5 -19.8 4.4 Q-20.4 3.2 -20.3 2.2 -20.3 1.4 -19.3 0.4 -17.6 -1.1 -13.3 -1.4 L-12.7 -1.4" fill="#000000" fill-opacity="0.84705883" fill-rule="evenodd" stroke="none"/>
    <path d="M11.6 -1.4 L12.0 -1.4 13.4 -1.4 15.15 -1.2 8.45 7.55 Q7.1 6.9 6.1 5.85 L11.6 -1.4 M11.95 8.4 L11.4 8.3 11.3 8.3 17.8 -0.55 19.05 0.15 11.95 8.4 M-8.4 -1.05 L-16.45 7.5 -18.0 6.4 -18.7 5.8 -19.05 5.45 -12.7 -1.4 -11.9 -1.4 -8.4 -1.05" fill="#ffffff" fill-opacity="0.84705883" fill-rule="evenodd" stroke="none"/>
  </g>
</svg>
