<?xml version="1.0" encoding="UTF-8" standalone="no"?>
<svg xmlns:xlink="http://www.w3.org/1999/xlink" height="37.9px" width="42.7px" xmlns="http://www.w3.org/2000/svg">
  <g transform="matrix(1.0, 0.0, 0.0, 1.0, 19.25, 15.15)">
    <path d="M4.5 -4.7 Q2.4 -2.75 1.25 -0.35 L0.6 1.3 Q-0.3 4.0 -0.15 8.1 L-1.4 6.1 -2.0 3.15 Q-3.85 6.1 -4.2 9.2 -4.6 12.3 -3.35 15.95 L-5.4 14.3 -6.65 12.6 Q-7.1 15.2 -8.15 16.65 L-10.75 19.6 Q-12.25 21.15 -15.25 22.25 -15.35 20.25 -15.85 17.9 L-16.9 13.2 Q-17.45 13.8 -18.75 14.2 -18.25 12.85 -17.9 10.35 L-17.2 5.65 Q-15.3 -4.95 -10.6 -8.15 L-13.0 -7.95 Q-14.05 -7.65 -15.2 -6.25 -13.55 -9.5 -9.7 -8.85 -9.6 -10.9 -9.05 -12.15 -8.25 -13.9 -6.35 -14.65 -7.45 -13.75 -7.8 -12.9 -8.15 -12.0 -7.8 -10.7 -6.0 -12.1 -4.45 -12.75 L-0.9 -13.5 Q3.7 -13.8 6.4 -13.4 10.45 -12.8 14.4 -10.45 17.75 -8.45 20.4 -4.4 22.9 -0.5 22.95 2.2 22.95 7.4 20.2 10.5 20.95 8.35 20.7 6.9 20.5 5.15 18.95 3.45 19.35 5.5 18.45 6.8 17.8 7.65 15.7 8.95 16.75 6.8 16.45 5.1 16.25 3.75 14.9 1.85 15.3 6.1 11.3 9.4 12.6 4.9 11.55 1.05 L10.6 -1.4 8.6 -5.0 Q7.3 -3.45 6.2 -0.8 6.15 -2.3 4.5 -4.7" fill="#ffffff" fill-opacity="0.0" fill-rule="evenodd" stroke="none"/>
    <path d="M1.25 -0.35 Q2.4 -2.75 4.5 -4.7 6.15 -2.3 6.2 -0.8 7.3 -3.45 8.6 -5.0 L10.6 -1.4 Q8.4 -2.5 6.2 -0.8 4.05 -1.55 1.25 -0.35" fill="#000000" fill-opacity="0.14901961" fill-rule="evenodd" stroke="none"/>
    <path d="M20.2 10.5 Q22.95 7.4 22.95 2.2 22.9 -0.5 20.4 -4.4 17.75 -8.45 14.4 -10.45 10.45 -12.8 6.4 -13.4 3.7 -13.8 -0.9 -13.5 L-4.45 -12.75 Q-6.0 -12.1 -7.8 -10.7 M-6.35 -14.65 Q-8.25 -13.9 -9.05 -12.15 -9.6 -10.9 -9.7 -8.85 -13.55 -9.5 -15.2 -6.25 M-10.6 -8.15 Q-15.3 -4.95 -17.2 5.65 L-17.9 10.35 Q-18.25 12.85 -18.75 14.2 -17.45 13.8 -16.9 13.2 L-15.85 17.9 Q-15.35 20.25 -15.25 22.25" fill="none" stroke="#000000" stroke-linecap="round" stroke-linejoin="round" stroke-opacity="0.6" stroke-width="1.0"/>
    <path d="M-7.8 -10.7 Q-8.15 -12.0 -7.8 -12.9 -7.45 -13.75 -6.35 -14.65 M-15.2 -6.25 Q-14.05 -7.65 -13.0 -7.95 L-10.6 -8.15 M-15.25 22.25 Q-12.25 21.15 -10.75 19.6 L-8.15 16.65 Q-7.1 15.2 -6.65 12.6" fill="none" stroke="#000000" stroke-linecap="round" stroke-linejoin="round" stroke-opacity="0.6" stroke-width="1.0"/>
    <path d="M1.25 -0.35 Q4.05 -1.55 6.2 -0.8 6.15 -2.3 4.5 -4.7 M11.3 9.4 Q15.3 6.1 14.9 1.85 M15.7 8.95 Q17.8 7.65 18.45 6.8 19.35 5.5 18.95 3.45 M-6.65 12.6 L-5.4 14.3 -3.35 15.95 M-2.0 3.15 L-1.4 6.1 -0.15 8.1 M10.6 -1.4 Q8.4 -2.5 6.2 -0.8" fill="none" stroke="#000000" stroke-linecap="round" stroke-linejoin="round" stroke-opacity="0.6" stroke-width="1.0"/>
    <path d="M4.5 -4.7 Q2.4 -2.75 1.25 -0.35 L0.6 1.3 Q-0.3 4.0 -0.15 8.1 M6.2 -0.8 Q7.3 -3.45 8.6 -5.0 L10.6 -1.4 11.55 1.05 Q12.6 4.9 11.3 9.4 M14.9 1.85 Q16.25 3.75 16.45 5.1 16.75 6.8 15.7 8.95 M18.95 3.45 Q20.5 5.15 20.7 6.9 20.95 8.35 20.2 10.5 M-3.35 15.95 Q-4.6 12.3 -4.2 9.2 -3.85 6.1 -2.0 3.15" fill="none" stroke="#000000" stroke-linecap="round" stroke-linejoin="round" stroke-opacity="0.6" stroke-width="1.0"/>
  </g>
</svg>
