<?xml version="1.0" encoding="UTF-8" standalone="no"?>
<svg xmlns:xlink="http://www.w3.org/1999/xlink" height="40.7px" width="38.3px" xmlns="http://www.w3.org/2000/svg">
  <g transform="matrix(1.0, 0.0, 0.0, 1.0, 19.4, 15.1)">
    <path d="M-18.8 6.35 L-18.85 6.25 Q-19.05 5.05 -18.0 0.75 L-17.05 -2.65 -16.55 -4.6 -16.35 -5.4 Q-15.9 -7.45 -13.95 -9.25 -12.05 -11.0 -7.95 -12.0 L-5.5 -13.65 Q-4.55 -14.25 -3.75 -14.45 L-2.35 -14.6 2.45 -13.65 6.9 -12.8 Q8.0 -12.8 10.95 -11.7 L11.35 -11.5 Q15.65 -9.15 17.35 -6.45 18.8 -3.95 18.25 0.55 17.1 0.2 16.85 -0.7 L15.85 -2.5 14.05 -4.45 11.4 -7.1 Q9.7 -8.75 7.5 -8.35 5.35 -3.7 2.25 0.45 -1.1 4.95 -4.35 7.1 L-4.2 10.95 Q-4.15 12.25 -5.65 12.8 -9.75 17.45 -5.25 24.35 -5.65 25.35 -6.75 25.0 L-7.85 24.35 -10.0 22.3 -10.05 22.2 Q-15.7 16.7 -16.65 14.25 L-17.55 11.95 -18.3 9.5 -18.2 8.2 -18.6 7.1 -18.8 6.35" fill="#ffffff" fill-opacity="0.0" fill-rule="evenodd" stroke="none"/>
    <path d="M-18.8 6.35 L-18.85 6.25 Q-19.05 5.05 -18.0 0.75 L-17.05 -2.65 -16.55 -4.6 -16.35 -5.4 Q-15.9 -7.45 -13.95 -9.25 -12.05 -11.0 -7.95 -12.0 L-5.5 -13.65 Q-4.55 -14.25 -3.75 -14.45 L-2.35 -14.6 2.45 -13.65 6.9 -12.8 Q8.0 -12.8 10.95 -11.7 L11.35 -11.5 Q15.65 -9.15 17.35 -6.45 18.8 -3.95 18.25 0.55 M-5.65 12.8 Q-9.75 17.45 -5.25 24.35 -5.65 25.35 -6.75 25.0" fill="none" stroke="#000000" stroke-linecap="round" stroke-linejoin="round" stroke-opacity="0.6" stroke-width="1.0"/>
    <path d="M18.25 0.55 Q17.1 0.2 16.85 -0.7 L15.85 -2.5 14.05 -4.45 11.4 -7.1 Q9.7 -8.75 7.5 -8.35 5.35 -3.7 2.25 0.45 -1.1 4.95 -4.35 7.1 L-4.2 10.95 Q-4.15 12.25 -5.65 12.8" fill="none" stroke="#000000" stroke-linecap="round" stroke-linejoin="round" stroke-opacity="0.6" stroke-width="1.0"/>
  </g>
</svg>
