<?xml version="1.0" encoding="UTF-8" standalone="no"?>
<svg xmlns:xlink="http://www.w3.org/1999/xlink" height="36.8px" width="27.15px" xmlns="http://www.w3.org/2000/svg">
  <g transform="matrix(1.0, 0.0, 0.0, 1.0, 16.5, 13.85)">
    <path d="M-7.8 17.85 L-7.25 21.35 Q-7.05 22.75 -8.8 22.35 L-11.65 18.6 Q-14.25 14.85 -15.15 10.4 -16.05 5.9 -16.0 0.9 -16.2 -1.9 -13.15 -5.4 -10.15 -8.95 -6.2 -11.15 -2.3 -13.4 3.4 -13.35 9.1 -13.3 10.15 -9.9 6.95 -8.2 5.9 -8.65 L2.15 -9.5 Q-0.55 -9.9 -4.15 -9.4 -7.4 -8.5 -6.75 -6.4 -6.1 -4.35 -7.15 -1.9 L-7.15 -1.85 Q-7.5 -0.4 -7.35 0.65 -7.2 1.85 -5.05 3.15 -3.75 4.0 -3.2 4.6 L-2.9 4.9 -2.85 5.65 Q-2.85 7.5 -3.15 8.6 -3.55 10.15 -4.8 11.8 -5.4 12.2 -6.35 12.6 -8.1 15.75 -7.8 17.85" fill="#ffffff" fill-opacity="0.0" fill-rule="evenodd" stroke="none"/>
    <path d="M10.15 -9.9 Q9.1 -13.3 3.4 -13.35 -2.3 -13.4 -6.2 -11.15 -10.15 -8.95 -13.15 -5.4 -16.2 -1.9 -16.0 0.9 -16.05 5.9 -15.15 10.4 -14.25 14.85 -11.65 18.6 L-8.8 22.35 Q-7.05 22.75 -7.25 21.35 L-7.8 17.85" fill="none" stroke="#000000" stroke-linecap="round" stroke-linejoin="round" stroke-opacity="0.6" stroke-width="1.0"/>
    <path d="M-7.8 17.85 Q-8.1 15.75 -6.35 12.6 -5.4 12.2 -4.8 11.8 -3.55 10.15 -3.15 8.6 -2.85 7.5 -2.85 5.65 L-2.9 4.9 -3.2 4.6 Q-3.75 4.0 -5.05 3.15 -7.2 1.85 -7.35 0.65 -7.5 -0.4 -7.15 -1.85 L-7.15 -1.9 Q-6.1 -4.35 -6.75 -6.4 -7.4 -8.5 -4.15 -9.4 -0.55 -9.9 2.15 -9.5 L5.9 -8.65 Q6.95 -8.2 10.15 -9.9 Z" fill="none" stroke="#000000" stroke-linecap="round" stroke-linejoin="round" stroke-opacity="0.6" stroke-width="1.0"/>
  </g>
</svg>
