<?xml version="1.0" encoding="UTF-8" standalone="no"?>
<svg xmlns:xlink="http://www.w3.org/1999/xlink" height="38.25px" width="33.4px" xmlns="http://www.w3.org/2000/svg">
  <g transform="matrix(1.0, 0.0, 0.0, 1.0, 18.15, 15.25)">
    <path d="M14.75 -6.65 L12.05 -6.6 6.65 -6.95 Q0.85 -7.6 -1.3 -6.8 L-2.75 -6.35 -3.85 -5.9 -4.95 -4.65 Q-5.6 -3.8 -4.85 0.25 L-3.5 7.5 Q-2.95 10.7 -4.05 11.35 -5.15 12.0 -6.35 11.8 -8.35 16.45 -7.05 21.7 -7.7 23.45 -9.25 21.35 L-10.35 20.0 -15.15 12.5 Q-16.2 10.55 -17.1 7.2 -18.05 3.8 -17.35 -1.2 -16.25 -4.9 -14.45 -7.55 -12.65 -10.1 -9.1 -12.15 -5.6 -14.25 -1.75 -14.6 L0.6 -14.75 5.65 -14.35 Q8.6 -13.7 12.8 -11.0 14.55 -9.85 14.75 -6.65" fill="#ffffff" fill-opacity="0.0" fill-rule="evenodd" stroke="none"/>
    <path d="M14.75 -6.65 L12.05 -6.6 6.65 -6.95 Q0.85 -7.6 -1.3 -6.8 L-2.75 -6.35 -3.85 -5.9 -4.95 -4.65 Q-5.6 -3.8 -4.85 0.25 L-3.5 7.5 Q-2.95 10.7 -4.05 11.35 -5.15 12.0 -6.35 11.8" fill="none" stroke="#000000" stroke-linecap="round" stroke-linejoin="round" stroke-opacity="0.6" stroke-width="1.0"/>
    <path d="M-6.35 11.8 Q-8.35 16.45 -7.05 21.7 -7.7 23.45 -9.25 21.35 L-10.35 20.0 -15.15 12.5 Q-16.2 10.55 -17.1 7.2 -18.05 3.8 -17.35 -1.2 -16.25 -4.9 -14.45 -7.55 -12.65 -10.1 -9.1 -12.15 -5.6 -14.25 -1.75 -14.6 L0.6 -14.75 5.65 -14.35 Q8.6 -13.7 12.8 -11.0 14.55 -9.85 14.75 -6.65 Z" fill="none" stroke="#000000" stroke-linecap="round" stroke-linejoin="round" stroke-opacity="0.6" stroke-width="1.0"/>
  </g>
</svg>
