<?xml version="1.0" encoding="UTF-8" standalone="no"?>
<svg xmlns:xlink="http://www.w3.org/1999/xlink" height="42.75px" width="30.6px" xmlns="http://www.w3.org/2000/svg">
  <g transform="matrix(1.0, 0.0, 0.0, 1.0, 19.4, 12.8)">
    <path d="M-6.35 17.3 L-7.95 20.6 Q-8.25 25.15 -6.15 28.7 -6.95 30.4 -8.65 28.15 -10.85 27.2 -10.8 24.5 -11.85 24.5 -13.3 22.7 -14.8 20.85 -14.2 19.2 L-14.95 18.05 Q-15.55 16.85 -15.3 16.4 -15.0 15.9 -15.2 15.9 -19.65 12.9 -17.65 10.0 -19.9 7.2 -18.1 3.75 -18.9 2.6 -17.6 1.45 -17.1 -4.1 -15.2 -5.0 -14.15 -7.55 -10.85 -8.05 -10.65 -9.1 -8.65 -10.5 -8.5 -11.3 -7.4 -11.1 -5.9 -12.35 -4.5 -11.7 -2.6 -13.0 0.2 -11.5 2.4 -11.95 4.3 -9.65 6.95 -9.7 8.45 -7.5 9.8 -7.2 10.5 -6.2 11.15 -5.3 9.8 -3.85 8.4 -2.45 -0.15 -5.1 -4.15 -4.05 -5.75 1.15 L-5.85 1.55 Q-3.6 9.4 -3.6 13.55 -3.6 17.7 -6.35 17.3" fill="#ffffff" fill-opacity="0.0" fill-rule="evenodd" stroke="none"/>
    <path d="M-6.35 17.3 L-7.95 20.6 Q-8.25 25.15 -6.15 28.7 -6.95 30.4 -8.65 28.15 -10.85 27.2 -10.8 24.5 -11.85 24.5 -13.3 22.7 -14.8 20.85 -14.2 19.2 L-14.95 18.05 Q-15.55 16.85 -15.3 16.4 -15.0 15.9 -15.2 15.9 -19.65 12.9 -17.65 10.0 -19.9 7.2 -18.1 3.75 -18.9 2.6 -17.6 1.45 -17.1 -4.1 -15.2 -5.0 -14.15 -7.55 -10.85 -8.05 -10.65 -9.1 -8.65 -10.5 -8.5 -11.3 -7.4 -11.1 -5.9 -12.35 -4.5 -11.7 -2.6 -13.0 0.2 -11.5 2.4 -11.95 4.3 -9.65 6.95 -9.7 8.45 -7.5 9.8 -7.2 10.5 -6.2 11.15 -5.3 9.8 -3.85" fill="none" stroke="#000000" stroke-linecap="round" stroke-linejoin="round" stroke-opacity="0.6" stroke-width="1.0"/>
    <path d="M9.8 -3.85 Q8.4 -2.45 -0.15 -5.1 -4.15 -4.05 -5.75 1.15 L-5.85 1.55 Q-3.6 9.4 -3.6 13.55 -3.6 17.7 -6.35 17.3 Z" fill="none" stroke="#000000" stroke-linecap="round" stroke-linejoin="round" stroke-opacity="0.6" stroke-width="1.0"/>
  </g>
</svg>
