<?xml version="1.0" encoding="UTF-8" standalone="no"?>
<svg xmlns:xlink="http://www.w3.org/1999/xlink" height="38.4px" width="33.3px" xmlns="http://www.w3.org/2000/svg">
  <g transform="matrix(1.0, 0.0, 0.0, 1.0, 16.25, 12.8)">
    <path d="M-5.95 13.25 Q-7.45 14.6 -7.9 17.7 -8.4 20.8 -5.95 24.85 -6.85 25.9 -9.75 22.1 -12.65 18.3 -15.1 10.6 L-15.65 5.35 Q-15.9 1.85 -15.45 -0.5 -15.05 -2.9 -13.1 -5.95 -11.2 -9.05 -8.25 -10.25 -4.55 -11.8 -1.05 -12.2 L0.05 -12.3 Q4.9 -12.5 9.8 -10.95 14.65 -9.4 16.55 -2.65 16.8 -2.2 12.75 -2.05 L7.15 -1.45 1.6 -1.6 Q-2.9 -2.1 -3.85 -0.6 -4.85 0.85 -5.45 2.4 L-6.15 5.0 Q-6.25 6.05 -5.45 8.3 -4.65 10.5 -4.55 11.2 -4.5 11.85 -5.95 13.25" fill="#ffffff" fill-opacity="0.0" fill-rule="evenodd" stroke="none"/>
    <path d="M-5.95 13.25 Q-7.45 14.6 -7.9 17.7 -8.4 20.8 -5.95 24.85 -6.85 25.9 -9.75 22.1 -12.65 18.3 -15.1 10.6 L-15.65 5.35 Q-15.9 1.85 -15.45 -0.5 -15.05 -2.9 -13.1 -5.95 -11.2 -9.05 -8.25 -10.25 -4.55 -11.8 -1.05 -12.2 L0.05 -12.3 Q4.9 -12.5 9.8 -10.95 14.65 -9.4 16.55 -2.65" fill="none" stroke="#000000" stroke-linecap="round" stroke-linejoin="round" stroke-opacity="0.6" stroke-width="1.0"/>
    <path d="M16.55 -2.65 Q16.8 -2.2 12.75 -2.05 L7.15 -1.45 1.6 -1.6 Q-2.9 -2.1 -3.85 -0.6 -4.85 0.85 -5.45 2.4 L-6.15 5.0 Q-6.25 6.05 -5.45 8.3 -4.65 10.5 -4.55 11.2 -4.5 11.85 -5.95 13.25 Z" fill="none" stroke="#000000" stroke-linecap="round" stroke-linejoin="round" stroke-opacity="0.6" stroke-width="1.0"/>
  </g>
</svg>
