<?xml version="1.0" encoding="UTF-8" standalone="no"?>
<svg xmlns:xlink="http://www.w3.org/1999/xlink" height="43.55px" width="39.85px" xmlns="http://www.w3.org/2000/svg">
  <g transform="matrix(1.0, 0.0, 0.0, 1.0, 23.1, 18.65)">
    <path d="M1.45 -13.7 L3.95 -13.6 2.2 -13.6 1.85 -13.6 -0.3 -13.65 1.45 -13.7 M12.25 -8.1 L11.45 -9.2 Q10.05 -11.0 8.25 -12.1 L6.65 -12.9 3.95 -13.6 4.7 -13.55 6.9 -13.3 Q8.55 -12.9 9.95 -12.1 11.8 -11.05 13.15 -9.4 14.35 -7.95 15.4 -5.7 L16.1 -3.6 15.9 -3.25 Q14.55 -1.65 12.35 -1.65 10.65 -1.65 8.6 -2.55 L8.2 -1.5 7.95 -0.8 7.75 -0.05 Q7.25 1.95 7.2 4.0 L7.2 4.3 7.3 6.15 Q9.55 10.5 12.2 12.3 12.1 12.2 10.65 12.8 L8.6 12.95 Q8.05 12.55 6.95 14.1 L6.9 14.1 6.15 15.0 Q4.45 17.4 4.15 18.85 4.0 19.85 0.65 22.05 -2.85 24.4 -4.75 24.25 -6.65 24.15 -8.95 22.65 L-12.3 19.7 -13.3 18.45 Q-14.9 16.3 -15.75 14.1 L-15.8 14.1 Q-17.2 10.3 -17.15 6.2 -16.8 9.0 -16.2 10.6 L-14.55 14.05 -14.5 14.05 -14.45 14.1 -12.4 16.8 Q-8.8 21.05 -3.5 23.0 -5.65 22.0 -7.55 19.4 -9.5 16.25 -10.6 14.85 -6.95 18.5 -2.3 20.2 L-4.4 18.1 -6.6 16.15 -8.25 14.1 -8.3 14.05 -8.5 13.8 -10.1 10.95 Q-9.0 12.65 -6.85 14.05 L-6.75 14.05 -6.65 14.1 -6.2 14.35 -1.45 16.5 Q-2.9 15.6 -4.5 14.1 L-4.55 14.05 -4.6 14.05 -5.2 13.35 -8.45 9.2 Q-7.1 10.75 -4.95 11.6 L-1.0 12.85 -4.05 11.35 Q-5.7 10.4 -6.55 9.3 L-3.9 10.1 -1.1 10.4 -4.0 9.65 Q-5.65 9.0 -6.65 8.2 L-2.55 8.5 1.65 8.95 -0.1 8.2 -2.15 7.3 -4.2 6.4 Q-3.25 5.7 -0.75 5.45 L2.85 5.0 3.55 4.85 -3.05 5.15 -9.65 5.5 Q-8.5 4.95 -6.45 4.65 L-3.1 4.2 5.05 3.65 -0.85 3.45 -5.35 2.65 -9.75 1.45 -5.55 2.3 -1.35 2.65 3.75 2.2 1.3 2.0 -1.1 1.65 -4.55 1.05 Q-6.65 0.6 -7.85 -0.05 -6.6 0.55 -4.15 0.45 L-0.35 0.1 3.05 -0.1 6.45 -0.15 Q3.95 -1.0 -0.2 -1.5 L-6.9 -2.35 0.2 -2.25 7.25 -1.6 Q3.95 -3.2 -1.1 -3.8 L-8.7 -4.15 -5.6 -4.4 -1.2 -4.65 Q4.15 -4.75 7.15 -3.1 L4.0 -4.75 0.6 -5.55 -2.95 -6.4 -6.5 -7.5 -2.75 -7.0 0.95 -6.7 Q2.8 -6.45 5.0 -5.45 L6.2 -4.85 7.35 -4.2 8.75 -3.4 5.65 -6.2 3.85 -7.4 2.05 -8.25 0.3 -8.9 Q-2.55 -9.8 -6.1 -9.8 L-3.95 -10.15 -1.6 -10.45 3.25 -9.85 Q5.6 -9.3 7.75 -8.2 10.2 -6.85 11.45 -5.0 9.25 -9.1 5.55 -10.9 2.2 -12.6 -2.5 -12.5 L2.2 -12.7 Q4.75 -12.35 6.8 -11.45 8.9 -10.55 10.95 -8.7 12.9 -6.9 13.85 -5.05 L12.25 -8.1 M-9.2 -10.95 L-9.1 -9.95 Q-8.95 -8.7 -9.45 -7.3 -9.8 -6.0 -10.55 -4.75 L-11.75 -3.05 Q-12.5 -2.15 -13.35 -1.95 -14.3 -1.95 -14.9 -2.5 L-14.95 -2.55 -15.0 -2.6 -15.45 -3.1 -15.85 -3.9 -16.05 -4.55 -16.25 -5.2 -16.3 -5.55 Q-16.6 -7.35 -17.15 -8.4 -17.9 -9.7 -19.3 -10.35 L-22.15 -11.25 -19.15 -11.4 Q-17.55 -11.0 -16.4 -9.75 -17.1 -11.2 -18.65 -12.2 -20.15 -13.1 -21.85 -13.15 L-21.75 -13.2 Q-20.05 -13.25 -17.95 -12.45 L-14.55 -10.7 Q-15.65 -12.0 -17.45 -13.1 -19.25 -14.25 -20.8 -14.6 -19.0 -14.4 -16.95 -13.25 L-15.15 -12.35 -13.35 -11.4 Q-15.75 -14.5 -17.75 -15.5 L-19.5 -16.05 -18.95 -16.55 -16.45 -15.8 -14.45 -14.6 Q-15.4 -16.15 -17.35 -17.5 -16.95 -17.95 -15.75 -18.0 L-14.05 -17.55 Q-12.9 -17.1 -11.85 -15.9 L-10.75 -14.6 -10.0 -13.3 -9.4 -11.8 -9.35 -11.55 -9.2 -10.95" fill="#000000" fill-opacity="0.2" fill-rule="evenodd" stroke="none"/>
    <path d="M2.2 -13.6 L3.95 -13.6 1.45 -13.7 0.05 -13.95 -1.4 -14.0 4.7 -13.55 3.95 -13.6 6.65 -12.9 8.25 -12.1 Q10.05 -11.0 11.45 -9.2 L12.25 -8.1 Q8.7 -11.85 3.6 -13.3 L2.2 -13.6 M0.3 -8.9 L2.05 -8.25 3.85 -7.4 4.85 -6.75 Q6.6 -5.45 7.35 -4.2 L6.2 -4.85 Q3.4 -6.8 -0.85 -8.25 L-4.3 -9.25 -5.7 -9.55 0.3 -8.9" fill="#ffffff" fill-opacity="0.2" fill-rule="evenodd" stroke="none"/>
    <path d="M1.45 -13.7 L-0.3 -13.65 1.85 -13.6 2.2 -13.6 3.6 -13.3 Q8.7 -11.85 12.25 -8.1 L13.85 -5.05 Q12.9 -6.9 10.95 -8.7 8.9 -10.55 6.8 -11.45 4.75 -12.35 2.2 -12.7 L-2.5 -12.5 Q2.2 -12.6 5.55 -10.9 9.25 -9.1 11.45 -5.0 10.2 -6.85 7.75 -8.2 5.6 -9.3 3.25 -9.85 L-1.6 -10.45 -3.95 -10.15 -6.1 -9.8 Q-2.55 -9.8 0.3 -8.9 L-5.7 -9.55 -4.3 -9.25 -0.85 -8.25 Q3.4 -6.8 6.2 -4.85 L5.0 -5.45 Q2.8 -6.45 0.95 -6.7 L-2.75 -7.0 -6.5 -7.5 -2.95 -6.4 0.6 -5.55 4.0 -4.75 7.15 -3.1 Q4.15 -4.75 -1.2 -4.65 L-5.6 -4.4 -8.7 -4.15 -1.1 -3.8 Q3.95 -3.2 7.25 -1.6 L0.2 -2.25 -6.9 -2.35 -0.2 -1.5 Q3.95 -1.0 6.45 -0.15 L3.05 -0.1 -0.35 0.1 -4.15 0.45 Q-6.6 0.55 -7.85 -0.05 -6.65 0.6 -4.55 1.05 L-1.1 1.65 1.3 2.0 3.75 2.2 -1.35 2.65 -5.55 2.3 -9.75 1.45 -5.35 2.65 -0.85 3.45 5.05 3.65 -3.1 4.2 -6.45 4.65 Q-8.5 4.95 -9.65 5.5 L-3.05 5.15 3.55 4.85 2.85 5.0 -0.75 5.45 Q-3.25 5.7 -4.2 6.4 L-2.15 7.3 -0.1 8.2 1.65 8.95 -2.55 8.5 -6.65 8.2 Q-5.65 9.0 -4.0 9.65 L-1.1 10.4 -3.9 10.1 -6.55 9.3 Q-5.7 10.4 -4.05 11.35 L-1.0 12.85 -4.95 11.6 Q-7.1 10.75 -8.45 9.2 L-5.2 13.35 -4.6 14.05 -4.55 14.05 -4.5 14.1 Q-2.9 15.6 -1.45 16.5 L-6.2 14.35 -6.65 14.1 -6.75 14.05 -6.85 14.05 Q-9.0 12.65 -10.1 10.95 L-8.5 13.8 -8.3 14.05 -8.25 14.1 -6.6 16.15 -4.4 18.1 -2.3 20.2 Q-6.95 18.5 -10.6 14.85 -9.5 16.25 -7.55 19.4 -5.65 22.0 -3.5 23.0 -8.8 21.05 -12.4 16.8 L-14.45 14.1 -14.5 14.05 -14.55 14.05 -16.2 10.6 Q-16.8 9.0 -17.15 6.2 -17.15 3.75 -16.6 1.1 L-15.6 -2.6 -15.55 -2.75 -15.85 -3.1 -16.85 -4.55 -16.9 -4.6 -17.3 -5.0 Q-18.35 -5.95 -19.45 -6.05 L-22.4 -5.85 -22.35 -9.1 -22.15 -11.25 -19.3 -10.35 Q-17.9 -9.7 -17.15 -8.4 -16.6 -7.35 -16.3 -5.55 L-16.25 -5.2 -16.05 -4.55 -15.85 -3.9 -15.45 -3.1 -15.0 -2.6 -14.95 -2.55 -14.9 -2.5 Q-14.3 -1.95 -13.35 -1.95 -12.5 -2.15 -11.75 -3.05 L-10.55 -4.75 Q-9.8 -6.0 -9.45 -7.3 -8.95 -8.7 -9.1 -9.95 L-9.2 -10.95 Q-5.6 -13.35 -2.75 -14.15 1.75 -15.45 5.55 -14.6 9.3 -13.8 12.25 -11.2 15.2 -8.65 15.7 -6.5 16.2 -4.4 16.1 -3.6 L15.4 -5.7 Q14.35 -7.95 13.15 -9.4 11.8 -11.05 9.95 -12.1 8.55 -12.9 6.9 -13.3 L4.7 -13.55 -1.4 -14.0 0.05 -13.95 1.45 -13.7 M3.85 -7.4 L5.65 -6.2 8.75 -3.4 7.35 -4.2 Q6.6 -5.45 4.85 -6.75 L3.85 -7.4 M-17.35 -17.5 Q-15.4 -16.15 -14.45 -14.6 L-16.45 -15.8 -18.95 -16.55 -19.5 -16.05 -17.75 -15.5 Q-15.75 -14.5 -13.35 -11.4 L-15.15 -12.35 -16.95 -13.25 Q-19.0 -14.4 -20.8 -14.6 -19.25 -14.25 -17.45 -13.1 -15.65 -12.0 -14.55 -10.7 L-17.95 -12.45 Q-20.05 -13.25 -21.75 -13.2 L-21.85 -13.15 Q-20.15 -13.1 -18.65 -12.2 -17.1 -11.2 -16.4 -9.75 -17.55 -11.0 -19.15 -11.4 L-22.15 -11.25 -21.95 -12.85 -21.85 -13.15 Q-21.2 -14.8 -19.05 -16.5 L-17.35 -17.5" fill="#ffffff" fill-opacity="0.0" fill-rule="evenodd" stroke="none"/>
    <path d="M-17.15 6.2 Q-17.2 10.3 -15.8 14.1 M-15.75 14.1 Q-14.9 16.3 -13.3 18.45 L-12.3 19.7 -8.95 22.65 Q-6.65 24.15 -4.75 24.25 -2.85 24.4 0.65 22.05 4.0 19.85 4.15 18.85 4.45 17.4 6.15 15.0 L6.9 14.1 M6.95 14.1 Q8.05 12.55 8.6 12.95 L10.65 12.8 Q12.1 12.2 12.2 12.3 9.55 10.5 7.3 6.15 L7.2 4.3 7.2 4.0 Q7.25 1.95 7.75 -0.05 L7.95 -0.8 8.2 -1.5 8.6 -2.55 Q10.65 -1.65 12.35 -1.65 14.55 -1.65 15.9 -3.25 L16.1 -3.6 Q16.2 -4.4 15.7 -6.5 15.2 -8.65 12.25 -11.2 9.3 -13.8 5.55 -14.6 1.75 -15.45 -2.75 -14.15 -5.6 -13.35 -9.2 -10.95 L-9.35 -11.55 -9.4 -11.8 -10.0 -13.3 -10.75 -14.6 -11.85 -15.9 Q-12.9 -17.1 -14.05 -17.55 L-15.75 -18.0 Q-16.95 -17.95 -17.35 -17.5 L-19.05 -16.5 Q-21.2 -14.8 -21.85 -13.15 L-21.95 -12.85 -22.15 -11.25 -22.35 -9.1 -22.4 -5.85 -19.45 -6.05 Q-18.35 -5.95 -17.3 -5.0 L-16.9 -4.6 -16.85 -4.55 -15.85 -3.1 -15.55 -2.75 -15.6 -2.6 -16.6 1.1 Q-17.15 3.75 -17.15 6.2 Z" fill="none" stroke="#000000" stroke-linecap="square" stroke-linejoin="round" stroke-opacity="0.6" stroke-width="1.0"/>
  </g>
</svg>
