<?xml version="1.0" encoding="UTF-8" standalone="no"?>
<svg xmlns:xlink="http://www.w3.org/1999/xlink" height="42.6px" width="38.5px" xmlns="http://www.w3.org/2000/svg">
  <g transform="matrix(1.0, 0.0, 0.0, 1.0, 20.35, 18.05)">
    <path d="M16.95 -2.6 Q17.15 -3.6 16.3 -4.1 L15.15 -4.55 Q13.35 -0.55 12.8 2.85 11.15 13.8 13.15 18.65 L11.45 16.75 11.45 17.65 11.65 19.85 Q12.15 22.9 13.2 23.45 9.0 22.0 6.9 15.4 6.25 13.25 5.9 10.95 L5.7 9.15 Q5.25 10.9 5.25 13.85 L5.35 16.4 Q4.15 13.9 4.45 9.45 L4.75 6.65 4.95 5.5 Q3.3 8.0 2.6 13.9 2.3 16.8 2.3 19.25 L0.55 11.05 Q-0.65 13.65 -0.7 17.7 L-0.6 21.15 Q-1.55 20.65 -2.25 19.05 -2.75 17.9 -3.05 16.25 L-2.5 20.4 Q-5.25 18.95 -7.2 15.45 L-8.25 13.15 -8.6 12.2 Q-8.35 14.0 -7.4 16.6 L-6.5 18.85 Q-9.25 18.4 -11.6 15.8 L-12.9 14.1 -13.35 13.35 -11.85 18.1 Q-13.85 17.8 -16.2 14.55 -17.65 12.55 -18.95 9.85 L-18.75 10.65 -19.55 6.8 Q-20.1 2.1 -18.7 -2.3 -17.8 -5.2 -15.75 -7.8 L-11.7 -12.7 Q-9.7 -14.95 -5.5 -16.55 -1.35 -18.2 4.65 -16.6 10.6 -15.05 14.8 -11.5 18.75 -8.2 16.95 -2.6 M10.05 -2.85 Q9.55 0.65 9.45 3.85 9.05 14.1 12.4 17.35 11.4 15.05 10.65 11.0 9.25 3.3 10.4 -5.05 L10.05 -2.85 M-6.15 -10.95 L-7.15 -10.0 -8.05 -8.95 -6.85 -10.85 -5.65 -12.75 Q-8.6 -11.5 -9.25 -11.2 L-12.5 -9.15 Q-13.9 -7.95 -14.7 -5.35 L-15.35 -3.3 -16.1 -1.75 -15.0 -3.55 -13.35 -6.15 Q-11.25 -9.2 -9.2 -9.45 -13.85 -3.35 -12.9 1.4 -11.9 -2.65 -9.95 -5.8 -10.6 -4.65 -10.75 -3.15 -10.95 -1.5 -10.4 -0.55 -10.45 -1.6 -9.8 -3.05 L-8.55 -5.3 Q-8.9 -4.3 -8.7 -2.85 L-8.2 -0.45 Q-8.6 -2.25 -6.8 -6.1 L-3.95 -11.35 -5.75 -9.35 -7.65 -7.45 -7.0 -9.2 -6.15 -10.95" fill="#ffffff" fill-opacity="0.0" fill-rule="evenodd" stroke="none"/>
    <path d="M15.15 -4.55 L16.3 -4.1 Q17.15 -3.6 16.95 -2.6 L16.7 -1.95 16.35 -2.5 15.15 -4.55 M-18.75 10.65 L-18.95 9.85 Q-17.65 12.55 -16.2 14.55 -13.85 17.8 -11.85 18.1 L-13.35 13.35 -12.9 14.1 -11.6 15.8 Q-9.25 18.4 -6.5 18.85 L-7.4 16.6 Q-8.35 14.0 -8.6 12.2 L-8.25 13.15 -7.2 15.45 Q-5.25 18.95 -2.5 20.4 L-3.05 16.25 Q-2.75 17.9 -2.25 19.05 -1.55 20.65 -0.6 21.15 L-0.7 17.7 Q-0.65 13.65 0.55 11.05 L2.3 19.25 Q2.3 16.8 2.6 13.9 3.3 8.0 4.95 5.5 L4.75 6.65 4.45 9.45 Q4.15 13.9 5.35 16.4 L5.25 13.85 Q5.25 10.9 5.7 9.15 L5.9 10.95 Q6.25 13.25 6.9 15.4 9.0 22.0 13.2 23.45 L13.5 23.55 Q12.8 23.7 10.35 22.45 7.9 21.15 6.1 17.7 L5.2 20.45 Q4.2 23.3 3.6 23.5 2.2 23.7 0.3 23.55 L-6.05 23.9 Q-7.65 23.9 -9.8 22.8 -14.05 20.7 -16.8 15.45 L-18.0 12.75 -18.75 10.65 M10.05 -2.85 L10.4 -5.05 Q9.25 3.3 10.65 11.0 11.4 15.05 12.4 17.35 9.05 14.1 9.45 3.85 9.55 0.65 10.05 -2.85" fill="#000000" fill-opacity="0.2" fill-rule="evenodd" stroke="none"/>
    <path d="M-6.15 -10.95 L-7.0 -9.2 -7.65 -7.45 -5.75 -9.35 -3.95 -11.35 -6.8 -6.1 Q-8.6 -2.25 -8.2 -0.45 L-8.7 -2.85 Q-8.9 -4.3 -8.55 -5.3 L-9.8 -3.05 Q-10.45 -1.6 -10.4 -0.55 -10.95 -1.5 -10.75 -3.15 -10.6 -4.65 -9.95 -5.8 -11.9 -2.65 -12.9 1.4 -13.85 -3.35 -9.2 -9.45 -11.25 -9.2 -13.35 -6.15 L-15.0 -3.55 -16.1 -1.75 -15.35 -3.3 -14.7 -5.35 Q-13.9 -7.95 -12.5 -9.15 L-9.25 -11.2 Q-8.6 -11.5 -5.65 -12.75 L-6.85 -10.85 -8.05 -8.95 -7.15 -10.0 -6.15 -10.95" fill="#ffffff" fill-opacity="0.2" fill-rule="evenodd" stroke="none"/>
    <path d="M15.15 -4.55 L16.35 -2.5 16.7 -1.95 16.95 -2.6 Q18.75 -8.2 14.8 -11.5 10.6 -15.05 4.65 -16.6 -1.35 -18.2 -5.5 -16.55 -9.7 -14.95 -11.7 -12.7 L-15.75 -7.8 Q-17.8 -5.2 -18.7 -2.3 -20.1 2.1 -19.55 6.8 L-18.75 10.65 -18.0 12.75 -16.8 15.45 Q-14.05 20.7 -9.8 22.8 -7.65 23.9 -6.05 23.9 L0.3 23.55 Q2.2 23.7 3.6 23.5 4.2 23.3 5.2 20.45 L6.1 17.7 Q7.9 21.15 10.35 22.45 12.8 23.7 13.5 23.55 L13.2 23.45 Q12.15 22.9 11.65 19.85 L11.45 17.65 11.45 16.75 13.15 18.65 Q11.15 13.8 12.8 2.85 13.35 -0.55 15.15 -4.55 Z" fill="none" stroke="#000000" stroke-linecap="square" stroke-linejoin="round" stroke-opacity="0.6" stroke-width="1.0"/>
  </g>
</svg>
