<?xml version="1.0" encoding="UTF-8" standalone="no"?>
<svg xmlns:xlink="http://www.w3.org/1999/xlink" height="68.4px" width="41.55px" xmlns="http://www.w3.org/2000/svg">
  <g transform="matrix(1.0, 0.0, 0.0, 1.0, 18.3, 14.55)">
    <path d="M-17.6 9.15 Q-17.65 5.55 -17.05 0.6 -16.6 -3.55 -13.55 -6.4 L-10.65 -8.45 -7.55 -10.85 -7.4 -11.0 Q-4.55 -14.0 1.7 -13.9 L6.15 -13.45 Q12.75 -12.45 17.1 -8.7 22.05 -4.45 22.6 2.25 L20.35 -0.55 Q20.65 2.05 19.8 4.5 L19.4 5.5 Q19.4 1.95 18.2 -1.1 16.9 -4.4 14.7 -5.75 15.55 -5.15 16.0 -3.5 L16.5 -0.2 16.55 -0.1 16.6 0.4 16.65 1.15 16.75 2.25 16.9 3.85 16.55 2.9 16.25 2.45 15.7 1.8 14.5 0.45 Q14.4 1.95 13.7 4.55 12.8 7.7 12.65 8.65 11.75 13.5 11.4 17.75 10.9 23.05 10.95 26.05 11.1 30.45 12.25 33.55 11.1 30.8 10.65 29.05 9.55 25.25 9.05 21.9 9.1 19.8 9.65 16.7 L10.6 11.65 11.6 5.2 Q12.2 1.55 13.05 -1.05 9.3 9.55 8.05 14.7 L8.15 9.3 Q8.35 6.25 9.0 3.95 L7.0 11.0 5.4 18.0 Q5.2 14.7 5.6 10.3 L6.35 2.7 Q4.45 6.35 3.55 14.2 2.6 22.3 0.9 25.9 1.75 22.3 1.5 17.1 1.3 12.45 0.4 8.25 0.75 13.2 -0.45 19.45 -1.6 25.2 -3.7 30.15 L-5.75 17.8 Q-5.65 27.95 -6.5 33.85 L-7.25 29.45 -7.7 24.95 Q-7.95 23.3 -8.95 20.55 L-10.4 16.2 -9.7 20.85 Q-9.1 23.65 -9.2 25.35 -9.2 23.9 -11.95 20.1 L-14.1 17.2 -15.6 14.85 Q-16.85 12.1 -17.6 9.15 M12.4 -10.05 L11.35 -10.4 Q13.15 -9.7 17.05 -5.25 L20.65 -1.0 Q18.85 -6.1 14.95 -8.75 L12.4 -10.05 M-11.4 -5.9 L-10.9 -6.75 Q-12.25 -6.15 -13.55 -4.5 -16.2 -1.2 -16.1 4.0 -15.95 9.3 -13.8 14.55 -12.75 17.15 -11.7 18.7 L-13.6 13.35 Q-15.4 7.3 -14.9 3.8 -14.4 0.3 -12.6 -3.6 L-11.4 -5.9" fill="#ffffff" fill-opacity="0.0" fill-rule="evenodd" stroke="none"/>
    <path d="M12.4 -10.05 L14.95 -8.75 Q18.85 -6.1 20.65 -1.0 L17.05 -5.25 Q13.15 -9.7 11.35 -10.4 L12.4 -10.05 M-11.4 -5.9 L-12.6 -3.6 Q-14.4 0.3 -14.9 3.8 -15.4 7.3 -13.6 13.35 L-11.7 18.7 Q-12.75 17.15 -13.8 14.55 -15.95 9.3 -16.1 4.0 -16.2 -1.2 -13.55 -4.5 -12.25 -6.15 -10.9 -6.75 L-11.4 -5.9" fill="#ffffff" fill-opacity="0.2" fill-rule="evenodd" stroke="none"/>
    <path d="M-17.6 9.15 Q-16.85 12.1 -15.6 14.85 L-14.1 17.2 -11.95 20.1 Q-9.2 23.9 -9.2 25.35 -9.1 23.65 -9.7 20.85 L-10.4 16.2 -8.95 20.55 Q-7.95 23.3 -7.7 24.95 L-7.25 29.45 -6.5 33.85 Q-5.65 27.95 -5.75 17.8 L-3.7 30.15 Q-1.6 25.2 -0.45 19.45 0.75 13.2 0.4 8.25 1.3 12.45 1.5 17.1 1.75 22.3 0.9 25.9 2.6 22.3 3.55 14.2 4.45 6.35 6.35 2.7 L5.6 10.3 Q5.2 14.7 5.4 18.0 L7.0 11.0 9.0 3.95 Q8.35 6.25 8.15 9.3 L8.05 14.7 Q9.3 9.55 13.05 -1.05 12.2 1.55 11.6 5.2 L10.6 11.65 9.65 16.7 Q9.1 19.8 9.05 21.9 L8.8 20.05 Q9.2 31.45 11.25 36.55 9.85 34.75 8.4 31.4 5.5 24.75 5.35 17.45 4.8 23.5 3.45 28.6 1.15 37.05 -4.65 38.3 L-4.0 41.25 Q-3.9 42.45 -4.2 44.35 -4.6 46.8 -4.5 48.4 -4.4 50.5 -3.5 52.2 L-3.6 52.15 -3.0 53.2 Q-5.2 53.0 -6.4 50.6 -7.15 49.05 -7.4 46.85 L-7.5 46.6 Q-7.85 48.8 -7.3 50.8 L-6.7 52.35 Q-9.95 51.35 -9.75 44.7 L-8.9 38.3 Q-11.2 36.15 -11.9 31.7 L-12.1 27.65 -13.6 25.0 -17.35 14.85 -17.65 9.05 -17.6 9.15 M16.55 -0.1 L16.5 -0.2 16.0 -3.5 Q15.55 -5.15 14.7 -5.75 16.9 -4.4 18.2 -1.1 19.4 1.95 19.4 5.5 L18.85 6.45 Q18.2 2.7 16.55 -0.1" fill="#000000" fill-opacity="0.2" fill-rule="evenodd" stroke="none"/>
    <path d="M22.6 2.25 Q22.05 -4.45 17.1 -8.7 12.75 -12.45 6.15 -13.45 L1.7 -13.9 Q-4.55 -14.0 -7.4 -11.0 L-7.55 -10.85 -10.65 -8.45 -13.55 -6.4 Q-16.6 -3.55 -17.05 0.6 -17.65 5.55 -17.6 9.15 L-17.65 9.05 -17.35 14.85 -13.6 25.0 -12.1 27.65 -11.9 31.7 Q-11.2 36.15 -8.9 38.3 L-9.75 44.7 Q-9.95 51.35 -6.7 52.35 L-7.3 50.8 Q-7.85 48.8 -7.5 46.6 L-7.4 46.85 Q-7.15 49.05 -6.4 50.6 -5.2 53.0 -3.0 53.2 L-3.6 52.15 -3.5 52.2 Q-4.4 50.5 -4.5 48.4 -4.6 46.8 -4.2 44.35 -3.9 42.45 -4.0 41.25 L-4.65 38.3 Q1.15 37.05 3.45 28.6 4.8 23.5 5.35 17.45 5.5 24.75 8.4 31.4 9.85 34.75 11.25 36.55 9.2 31.45 8.8 20.05 L9.05 21.9 Q9.55 25.25 10.65 29.05 11.1 30.8 12.25 33.55 11.1 30.45 10.95 26.05 10.9 23.05 11.4 17.75 11.75 13.5 12.65 8.65 12.8 7.7 13.7 4.55 14.4 1.95 14.5 0.45 M16.6 0.4 L16.55 -0.1 16.5 -0.2 M19.4 5.5 L19.8 4.5 Q20.65 2.05 20.35 -0.55 M16.55 -0.1 Q18.2 2.7 18.85 6.45 L19.4 5.5 M12.35 33.85 L12.25 33.55" fill="none" stroke="#000000" stroke-linecap="square" stroke-linejoin="round" stroke-opacity="0.6" stroke-width="1.0"/>
    <path d="M14.5 0.45 L15.7 1.8 16.25 2.45 16.55 2.9 16.9 3.85 16.75 2.25 16.65 1.15 16.6 0.4 M20.35 -0.55 L22.6 2.25 Z" fill="none" stroke="#000000" stroke-linecap="square" stroke-linejoin="round" stroke-opacity="0.4" stroke-width="1.0"/>
  </g>
</svg>
