<?xml version="1.0" encoding="UTF-8" standalone="no"?>
<svg xmlns:xlink="http://www.w3.org/1999/xlink" height="45.1px" width="45.45px" xmlns="http://www.w3.org/2000/svg">
  <g transform="matrix(1.0, 0.0, 0.0, 1.0, 22.9, 15.95)">
    <path d="M21.05 1.65 Q19.35 -0.75 16.9 -2.6 L11.6 -6.05 15.75 -2.4 19.6 1.45 16.0 -0.35 12.35 -2.1 Q11.55 -2.4 10.1 -3.2 L7.85 -4.3 5.75 -4.95 Q5.2 -5.1 4.55 -5.5 L4.0 -5.85 5.0 -5.0 6.95 -3.3 Q8.75 -1.95 10.1 -1.35 L5.3 -2.85 6.3 -2.1 7.3 -1.15 10.25 0.6 12.6 2.0 11.4 1.55 10.8 1.2 10.6 3.35 10.65 1.05 9.65 0.65 Q8.35 3.35 8.1 4.55 7.45 7.65 7.35 9.0 7.25 10.5 7.6 11.8 6.7 9.05 6.35 7.1 5.95 4.75 6.0 1.75 4.9 5.1 4.8 8.75 L4.85 15.85 3.45 14.05 Q2.7 12.95 2.5 12.0 2.5 12.9 2.9 14.3 L3.5 16.5 Q2.45 15.5 1.5 13.75 0.75 12.35 0.15 10.7 -0.25 9.6 -0.25 8.15 L-0.15 5.7 -0.65 8.6 -1.2 11.6 Q-1.25 13.0 -0.7 15.15 L0.1 18.55 -1.9 16.6 Q-3.05 15.2 -3.2 14.2 -3.0 17.45 -1.7 19.0 -4.9 16.45 -6.15 13.15 -7.05 10.7 -7.45 6.05 L-8.6 9.8 -9.45 13.7 -9.5 16.45 -9.4 19.15 Q-11.65 15.8 -12.0 12.15 -12.5 13.9 -12.4 15.85 -12.3 17.7 -11.65 19.45 -12.75 18.7 -13.5 16.7 L-14.05 15.1 -14.75 13.6 Q-14.75 17.05 -15.8 20.15 -17.05 23.9 -19.5 25.6 L-17.5 24.25 Q-19.05 25.85 -20.75 25.9 -18.8 25.55 -17.45 23.15 -16.3 21.05 -16.3 19.0 -16.3 17.25 -16.85 14.6 -17.4 12.05 -18.1 10.3 -18.4 11.35 -19.3 12.5 L-20.5 14.25 Q-19.65 12.65 -19.3 11.4 -18.8 9.85 -18.8 8.0 L-20.15 10.65 Q-21.1 12.2 -22.25 12.85 -20.6 11.45 -20.2 9.25 -19.9 7.85 -20.2 5.2 L-20.25 4.5 -20.5 0.2 Q-20.45 -1.95 -19.9 -3.35 -18.65 -6.75 -13.8 -7.65 -13.45 -10.6 -10.35 -12.7 -7.65 -14.5 -4.25 -15.05 2.0 -16.0 7.9 -13.45 13.4 -11.05 17.75 -6.15 19.6 -4.0 20.4 -1.4 L21.05 1.65 M-14.85 -2.85 Q-14.9 -1.25 -14.5 -0.35 -14.75 -0.95 -14.15 -1.95 -13.55 -3.0 -12.35 -4.05 -9.45 -6.7 -6.05 -7.15 L-10.0 -6.6 Q-11.65 -6.05 -13.5 -4.85 L-13.55 -5.5 -13.6 -6.2 Q-15.85 -5.35 -16.9 -2.3 -17.8 0.5 -17.15 2.9 L-16.25 -0.05 Q-15.75 -1.9 -14.85 -2.85" fill="#ffffff" fill-opacity="0.0" fill-rule="evenodd" stroke="none"/>
    <path d="M12.6 2.0 L10.25 0.6 7.3 -1.15 6.3 -2.1 5.3 -2.85 10.1 -1.35 Q8.75 -1.95 6.95 -3.3 L5.0 -5.0 4.0 -5.85 4.55 -5.5 Q5.2 -5.1 5.75 -4.95 L7.85 -4.3 10.1 -3.2 Q11.55 -2.4 12.35 -2.1 L16.0 -0.35 19.6 1.45 15.75 -2.4 11.6 -6.05 16.9 -2.6 Q19.35 -0.75 21.05 1.65 L21.1 5.5 Q20.45 3.05 16.95 1.85 12.75 0.4 11.8 -0.8 L12.95 1.0 Q13.7 2.05 14.55 2.45 L13.15 2.2 12.6 2.0 M-17.5 24.25 L-19.5 25.6 Q-17.05 23.9 -15.8 20.15 -14.75 17.05 -14.75 13.6 L-14.05 15.1 -13.5 16.7 Q-12.75 18.7 -11.65 19.45 -12.3 17.7 -12.4 15.85 -12.5 13.9 -12.0 12.15 -11.65 15.8 -9.4 19.15 L-9.5 16.45 -9.45 13.7 -8.6 9.8 -7.45 6.05 Q-7.05 10.7 -6.15 13.15 -4.9 16.45 -1.7 19.0 -3.0 17.45 -3.2 14.2 -3.05 15.2 -1.9 16.6 L0.1 18.55 -0.7 15.15 Q-1.25 13.0 -1.2 11.6 L-0.65 8.6 -0.15 5.7 -0.25 8.15 Q-0.25 9.6 0.15 10.7 0.75 12.35 1.5 13.75 2.45 15.5 3.5 16.5 L2.9 14.3 Q2.5 12.9 2.5 12.0 2.7 12.95 3.45 14.05 L4.85 15.85 4.8 8.75 Q4.9 5.1 6.0 1.75 5.95 4.75 6.35 7.1 6.7 9.05 7.6 11.8 7.25 10.5 7.35 9.0 7.45 7.65 8.1 4.55 8.35 3.35 9.65 0.65 L10.65 1.05 10.6 3.35 10.6 4.1 10.6 4.25 10.55 6.35 Q10.6 10.8 11.4 14.45 L11.45 14.7 Q12.4 18.75 15.0 21.5 17.75 24.4 21.9 25.35 19.5 25.5 17.1 24.4 L12.95 21.9 15.25 24.2 17.75 26.1 Q14.85 26.45 11.4 24.0 8.4 21.85 6.85 19.15 L6.65 18.8 Q6.75 22.65 8.45 25.35 L6.25 22.5 Q5.15 20.85 4.55 19.35 5.7 22.7 6.8 24.45 8.4 27.2 10.65 28.5 9.45 28.0 8.2 26.6 L6.15 24.2 4.2 22.3 Q3.35 21.3 3.15 20.0 2.75 21.3 4.1 23.85 L6.35 27.5 4.0 25.7 1.8 23.65 Q2.0 25.25 3.65 27.65 0.3 25.85 -1.95 23.8 -5.35 20.7 -4.55 18.4 -5.2 20.1 -5.45 23.3 -5.7 26.45 -5.15 27.9 L-5.9 26.2 Q-6.55 24.75 -7.1 24.3 -7.6 23.85 -8.75 23.55 L-10.55 22.85 Q-12.0 22.05 -13.15 20.2 -14.3 18.35 -14.3 16.8 -14.35 17.9 -14.8 19.4 L-15.0 19.95 -15.8 21.7 -16.2 22.4 -17.5 24.25" fill="#000000" fill-opacity="0.2" fill-rule="evenodd" stroke="none"/>
    <path d="M-14.85 -2.85 Q-15.75 -1.9 -16.25 -0.05 L-17.15 2.9 Q-17.8 0.5 -16.9 -2.3 -15.85 -5.35 -13.6 -6.2 L-13.55 -5.5 -13.5 -4.85 Q-11.65 -6.05 -10.0 -6.6 L-6.05 -7.15 Q-9.45 -6.7 -12.35 -4.05 -13.55 -3.0 -14.15 -1.95 -14.75 -0.95 -14.5 -0.35 -14.9 -1.25 -14.85 -2.85" fill="#ffffff" fill-opacity="0.2" fill-rule="evenodd" stroke="none"/>
    <path d="M12.6 2.0 L13.15 2.2 14.55 2.45 Q13.7 2.05 12.95 1.0 L11.8 -0.8 Q12.75 0.4 16.95 1.85 20.45 3.05 21.1 5.5 L21.05 1.65 M-20.25 4.5 L-20.2 5.2 M-22.25 12.85 Q-21.1 12.2 -20.15 10.65 L-18.8 8.0 Q-18.8 9.85 -19.3 11.4 -19.65 12.65 -20.5 14.25 L-19.3 12.5 Q-18.4 11.35 -18.1 10.3 M-20.75 25.9 Q-19.05 25.85 -17.5 24.25 L-16.2 22.4 -15.8 21.7 -15.0 19.95 -14.8 19.4 Q-14.35 17.9 -14.3 16.8 -14.3 18.35 -13.15 20.2 -12.0 22.05 -10.55 22.85 L-8.75 23.55 Q-7.6 23.85 -7.1 24.3 -6.55 24.75 -5.9 26.2 L-5.15 27.9 Q-5.7 26.45 -5.45 23.3 -5.2 20.1 -4.55 18.4 -5.35 20.7 -1.95 23.8 0.3 25.85 3.65 27.65 2.0 25.25 1.8 23.65 L4.0 25.7 6.35 27.5 4.1 23.85 Q2.75 21.3 3.15 20.0 3.35 21.3 4.2 22.3 L6.15 24.2 8.2 26.6 Q9.45 28.0 10.65 28.5 8.4 27.2 6.8 24.45 5.7 22.7 4.55 19.35 5.15 20.85 6.25 22.5 L8.45 25.35 Q6.75 22.65 6.65 18.8 L6.85 19.15 Q8.4 21.85 11.4 24.0 14.85 26.45 17.75 26.1 L15.25 24.2 12.95 21.9 17.1 24.4 Q19.5 25.5 21.9 25.35 M10.6 3.35 L10.8 1.2 11.4 1.55 12.6 2.0 M10.6 4.1 L10.6 3.35" fill="none" stroke="#000000" stroke-linecap="square" stroke-linejoin="round" stroke-opacity="0.4" stroke-width="1.0"/>
    <path d="M21.05 1.65 L20.4 -1.4 Q19.6 -4.0 17.75 -6.15 13.4 -11.05 7.9 -13.45 2.0 -16.0 -4.25 -15.05 -7.65 -14.5 -10.35 -12.7 -13.45 -10.6 -13.8 -7.65 -18.65 -6.75 -19.9 -3.35 -20.45 -1.95 -20.5 0.2 L-20.25 4.5 M-20.2 5.2 Q-19.9 7.85 -20.2 9.25 -20.6 11.45 -22.25 12.85 M-18.1 10.3 Q-17.4 12.05 -16.85 14.6 -16.3 17.25 -16.3 19.0 -16.3 21.05 -17.45 23.15 -18.8 25.55 -20.75 25.9 M21.9 25.35 Q17.75 24.4 15.0 21.5 12.4 18.75 11.45 14.7 L11.4 14.45 Q10.6 10.8 10.55 6.35 L10.6 4.25 10.6 4.1" fill="none" stroke="#000000" stroke-linecap="square" stroke-linejoin="round" stroke-opacity="0.6" stroke-width="1.0"/>
  </g>
</svg>
