<?xml version="1.0" encoding="UTF-8" standalone="no"?>
<svg xmlns:xlink="http://www.w3.org/1999/xlink" height="44.85px" width="40.25px" xmlns="http://www.w3.org/2000/svg">
  <g transform="matrix(1.0, 0.0, 0.0, 1.0, 17.45, 14.75)">
    <path d="M-16.2 7.8 Q-17.3 1.95 -16.4 -2.6 -16.1 -4.2 -13.3 -7.95 -10.75 -10.85 -6.3 -12.45 L-4.4 -13.15 Q0.8 -14.75 5.0 -13.7 9.15 -12.65 9.25 -12.7 L10.9 -13.3 13.85 -13.8 14.2 -13.85 13.95 -13.65 13.45 -13.1 13.15 -12.75 Q13.75 -12.8 15.95 -11.45 18.45 -9.8 19.65 -8.05 23.0 -3.1 21.9 -0.15 L21.25 1.7 20.25 -0.8 19.9 -1.6 19.05 -3.4 17.9 -5.3 17.15 -6.3 15.4 -8.05 16.0 -6.2 16.25 -5.45 16.4 -4.9 16.8 -3.4 16.9 -2.8 16.55 -3.4 16.15 -4.05 15.7 -4.75 15.0 -5.8 14.1 -7.05 14.7 -5.6 15.0 -4.6 15.15 -3.9 15.25 -3.4 Q15.7 -1.45 16.05 -0.65 L14.05 -2.85 13.5 -3.4 12.95 -4.0 12.7 -4.25 Q10.65 -6.4 9.9 -8.2 L10.1 -5.3 10.55 -3.0 Q11.0 -0.95 11.25 -0.75 L9.95 3.3 9.95 0.4 7.3 5.25 Q5.8 8.05 5.8 10.3 L5.65 6.2 5.6 1.9 4.3 5.85 3.0 9.8 Q2.3 11.75 2.0 13.75 L1.6 17.85 Q1.05 16.8 0.5 14.8 L-0.5 11.7 Q-0.95 12.8 -0.8 14.8 L-0.55 17.95 Q-0.8 16.55 -1.4 14.4 L-2.4 10.8 Q-3.55 6.4 -3.35 3.65 -4.8 7.25 -4.1 12.05 L-2.25 20.35 Q-3.15 18.85 -5.4 16.15 L-6.35 15.05 -8.9 11.9 -7.7 15.25 Q-7.1 17.3 -6.85 18.65 -9.4 17.1 -11.55 14.5 L-15.1 9.55 -16.2 7.8 M11.55 -1.7 L11.6 -1.65 11.55 -1.7" fill="#ffffff" fill-opacity="0.0" fill-rule="evenodd" stroke="none"/>
    <path d="M-16.2 7.8 L-15.1 9.55 -11.55 14.5 Q-9.4 17.1 -6.85 18.65 -7.1 17.3 -7.7 15.25 L-8.9 11.9 -6.35 15.05 -5.4 16.15 Q-3.15 18.85 -2.25 20.35 L-4.1 12.05 Q-4.8 7.25 -3.35 3.65 -3.55 6.4 -2.4 10.8 L-1.4 14.4 Q-0.8 16.55 -0.55 17.95 L-0.8 14.8 Q-0.95 12.8 -0.5 11.7 L0.5 14.8 Q1.05 16.8 1.6 17.85 L2.0 13.75 Q2.3 11.75 3.0 9.8 L4.3 5.85 5.6 1.9 5.65 6.2 5.8 10.3 Q5.8 8.05 7.3 5.25 L9.95 0.4 9.95 3.3 11.25 -0.75 Q11.0 -0.95 10.55 -3.0 L10.1 -5.3 9.9 -8.2 Q10.65 -6.4 12.7 -4.25 L12.95 -4.0 13.5 -3.4 14.05 -2.85 16.05 -0.65 Q15.7 -1.45 15.25 -3.4 L15.15 -3.9 15.0 -4.6 14.7 -5.6 14.1 -7.05 15.0 -5.8 15.7 -4.75 16.15 -4.05 16.55 -3.4 16.9 -2.8 16.8 -3.4 16.4 -4.9 16.25 -5.45 16.0 -6.2 15.4 -8.05 17.15 -6.3 17.9 -5.3 19.05 -3.4 19.9 -1.6 20.25 -0.8 21.25 1.7 Q20.6 3.55 20.5 4.55 L20.5 4.6 20.45 5.0 20.3 4.65 20.25 4.55 Q19.2 1.85 18.0 0.05 17.95 0.8 18.3 1.9 L18.8 4.05 18.6 4.1 16.7 2.5 14.85 1.15 13.2 -0.45 12.9 0.45 Q11.0 6.45 11.75 11.9 L9.55 12.9 Q7.05 17.45 6.65 19.5 6.25 21.55 4.85 23.1 L2.65 25.35 0.8 27.35 -0.9 29.3 -1.05 29.45 -1.1 29.25 -1.45 27.35 -1.5 27.3 -1.45 28.45 -1.4 28.9 -1.65 28.5 -3.25 24.5 -3.15 25.3 -3.0 26.9 -3.0 27.25 -3.15 26.95 Q-4.45 25.1 -5.4 25.1 -6.4 25.1 -7.85 23.65 -9.3 22.1 -10.55 20.05 L-10.75 19.7 Q-12.8 17.7 -13.95 14.95 -15.2 11.95 -15.9 9.05 L-16.0 8.6 -16.2 7.8 M11.55 -1.7 L11.6 -1.65 11.55 -1.7" fill="#000000" fill-opacity="0.2" fill-rule="evenodd" stroke="none"/>
    <path d="M13.85 -13.8 L10.9 -13.3 9.25 -12.7 Q9.15 -12.65 5.0 -13.7 0.8 -14.75 -4.4 -13.15 L-6.3 -12.45 Q-10.75 -10.85 -13.3 -7.95 -16.1 -4.2 -16.4 -2.6 -17.3 1.95 -16.2 7.8 L-16.0 8.6 -15.9 9.05 Q-15.2 11.95 -13.95 14.95 -12.8 17.7 -10.75 19.7 L-10.55 20.05 Q-9.3 22.1 -7.85 23.65 -6.4 25.1 -5.4 25.1 -4.45 25.1 -3.15 26.95 L-3.0 27.25 -3.0 26.9 M21.25 1.7 L21.9 -0.15 Q23.0 -3.1 19.65 -8.05 18.45 -9.8 15.95 -11.45 13.75 -12.8 13.15 -12.75 M-1.5 27.3 L-1.45 27.35 -1.1 29.25 -1.05 29.45 -0.9 29.3 0.8 27.35 2.65 25.35 4.85 23.1 Q6.25 21.55 6.65 19.5 7.05 17.45 9.55 12.9 L11.75 11.9 Q11.0 6.45 12.9 0.45 L13.2 -0.45 14.85 1.15 16.7 2.5 18.6 4.1 18.8 4.05 18.3 1.9 Q17.95 0.8 18.0 0.05 19.2 1.85 20.25 4.55 L20.3 4.65 20.45 5.0 20.5 4.6 20.5 4.55 Q20.6 3.55 21.25 1.7 M-3.25 24.5 L-1.65 28.5 -1.4 28.9 -1.45 28.45" fill="none" stroke="#000000" stroke-linecap="square" stroke-linejoin="round" stroke-opacity="0.6" stroke-width="1.0"/>
    <path d="M13.15 -12.75 L13.45 -13.1 13.95 -13.65 14.2 -13.85 13.85 -13.8 M-3.0 26.9 L-3.15 25.3 -3.25 24.5 M-1.45 28.45 L-1.5 27.3" fill="none" stroke="#000000" stroke-linecap="square" stroke-linejoin="round" stroke-opacity="0.4" stroke-width="1.0"/>
  </g>
</svg>
