<?xml version="1.0" encoding="UTF-8" standalone="no"?>
<svg xmlns:xlink="http://www.w3.org/1999/xlink" height="38.35px" width="37.3px" xmlns="http://www.w3.org/2000/svg">
  <g transform="matrix(1.0, 0.0, 0.0, 1.0, 17.05, 13.25)">
    <path d="M8.75 -9.05 L6.95 -8.65 5.15 -8.45 5.9 -9.5 3.7 -9.05 1.5 -8.6 2.3 -9.45 3.4 -10.1 1.3 -9.65 -0.75 -9.05 -2.25 -8.35 Q-3.25 -7.9 -3.8 -7.85 L-2.95 -9.15 -1.8 -10.2 -4.9 -8.9 Q-7.3 -7.85 -8.0 -7.9 -9.0 -7.45 -7.0 -8.65 L-4.7 -10.05 -3.45 -10.75 -1.45 -11.35 0.65 -11.35 0.3 -10.8 0.0 -10.3 2.65 -10.75 5.3 -11.4 5.1 -10.75 4.8 -10.2 7.4 -10.6 Q6.9 -10.15 6.9 -9.65 L9.5 -9.7 12.1 -9.3 10.4 -9.25 8.75 -9.05" fill="#ffffff" fill-opacity="0.2" fill-rule="evenodd" stroke="none"/>
    <path d="M8.75 -9.05 L10.4 -9.25 12.1 -9.3 9.5 -9.7 6.9 -9.65 Q6.9 -10.15 7.4 -10.6 L4.8 -10.2 5.1 -10.75 5.3 -11.4 2.65 -10.75 0.0 -10.3 0.3 -10.8 0.65 -11.35 -1.45 -11.35 -3.45 -10.75 -4.7 -10.05 -7.0 -8.65 Q-9.0 -7.45 -8.0 -7.9 -7.3 -7.85 -4.9 -8.9 L-1.8 -10.2 -2.95 -9.15 -3.8 -7.85 Q-3.25 -7.9 -2.25 -8.35 L-0.75 -9.05 1.3 -9.65 3.4 -10.1 2.3 -9.45 1.5 -8.6 3.7 -9.05 5.9 -9.5 5.15 -8.45 6.95 -8.65 8.75 -9.05 M15.0 -3.8 L15.3 -3.75 Q14.3 -4.6 12.95 -4.6 L12.5 -4.6 12.3 -4.6 10.9 -4.5 9.45 -4.0 8.1 -3.2 8.75 -4.2 9.5 -5.1 7.35 -4.3 5.35 -3.15 6.3 -4.25 7.4 -5.2 4.45 -4.2 1.65 -2.8 Q2.75 -4.6 4.0 -5.9 2.95 -5.75 1.6 -4.75 L-0.6 -3.15 -0.5 -3.45 -0.45 -3.8 -1.65 -2.9 -2.75 -2.0 -2.65 -2.75 -2.55 -3.45 Q-3.1 -3.45 -3.75 -2.85 L-4.7 -1.75 Q-3.8 -4.1 -0.95 -6.45 -2.7 -6.05 -4.5 -4.8 L-7.55 -2.35 Q-7.65 -2.95 -7.05 -3.95 L-6.1 -5.4 Q-11.0 -3.1 -12.3 -0.95 -12.35 -2.4 -11.25 -3.8 L-12.6 -2.75 -13.95 -1.75 -16.35 0.55 -15.8 -1.3 -14.9 -3.7 Q-12.75 -8.2 -7.2 -10.65 -2.15 -12.9 3.2 -12.55 L11.35 -11.4 12.5 -10.95 Q14.85 -9.7 15.3 -7.5 16.05 -9.05 17.3 -7.85 18.2 -7.0 19.1 -5.15 L18.45 -5.35 17.75 -5.6 18.8 -4.55 19.6 -3.0 18.65 -3.55 17.75 -4.05 Q16.85 -4.35 16.4 -2.75 15.7 -3.45 15.0 -3.8 M-14.55 0.0 L-13.55 -0.65 Q-13.75 0.35 -13.0 1.7 -9.65 -0.9 -7.85 -1.15 L-9.25 0.65 Q-10.2 1.8 -10.15 2.65 -9.05 0.6 -5.75 -1.7 L-5.9 -0.45 -5.95 0.8 Q-4.8 -1.25 -3.25 -1.5 L-3.85 0.15 -4.45 1.85 Q-3.8 0.5 -2.4 -0.6 -0.95 -1.7 0.45 -1.95 -0.4 -0.25 -0.8 1.6 0.05 0.35 1.15 -0.65 L3.55 -2.2 Q2.5 -0.55 2.15 0.6 2.95 -0.55 4.25 -1.5 5.65 -2.45 7.05 -2.7 6.2 -2.25 5.65 -1.35 5.1 -0.45 5.0 0.6 7.85 -1.95 10.45 -3.15 L9.45 -1.35 8.35 1.45 7.6 3.65 6.8 5.8 6.6 4.25 6.6 2.65 Q5.65 3.95 4.95 5.4 4.15 7.0 3.85 8.45 L3.55 11.9 3.5 13.4 3.5 13.5 3.25 14.85 3.1 13.5 3.05 13.4 3.0 13.4 2.95 13.15 2.55 11.0 Q2.45 9.75 2.5 8.05 L2.55 5.1 2.0 8.1 1.5 11.15 Q1.4 11.9 1.45 13.4 L1.45 13.5 1.5 14.7 Q1.6 16.75 1.3 17.9 L0.85 15.4 0.35 13.5 0.3 13.4 0.25 13.4 0.2 12.9 Q0.0 11.6 -0.05 9.8 L-0.15 6.65 -0.1 5.3 Q-0.1 4.5 -0.25 4.0 -0.3 5.4 -0.7 7.95 L-1.2 11.85 -1.2 13.4 -1.2 13.5 -1.15 14.8 -1.15 17.5 Q-2.2 16.7 -2.65 15.05 L-3.0 13.5 -3.0 13.4 -3.05 12.7 -3.05 13.4 -3.05 13.5 -3.15 14.25 -3.0 16.35 -2.65 17.8 Q-2.5 18.65 -2.7 19.25 L-3.3 18.65 -3.65 17.85 -4.95 14.65 -5.25 13.5 -5.3 13.4 Q-5.7 11.1 -5.75 8.15 L-5.85 8.7 -6.1 9.5 Q-6.6 11.35 -6.55 13.4 L-6.55 13.5 -6.15 16.0 Q-5.85 17.65 -5.95 18.6 -6.8 18.3 -7.6 16.65 L-8.6 14.25 Q-8.65 15.1 -8.1 17.2 -7.6 19.1 -7.75 20.1 L-10.0 17.85 -11.55 15.3 -12.3 13.5 -12.35 13.4 -12.65 12.55 -13.5 10.9 Q-14.15 9.8 -14.65 9.45 L-14.8 9.7 Q-15.35 5.35 -15.0 3.05 L-14.55 0.0" fill="#ffffff" fill-opacity="0.0" fill-rule="evenodd" stroke="none"/>
    <path d="M-16.35 0.55 L-13.95 -1.75 -12.6 -2.75 -11.25 -3.8 Q-12.35 -2.4 -12.3 -0.95 -11.0 -3.1 -6.1 -5.4 L-7.05 -3.95 Q-7.65 -2.95 -7.55 -2.35 L-4.5 -4.8 Q-2.7 -6.05 -0.95 -6.45 -3.8 -4.1 -4.7 -1.75 L-3.75 -2.85 Q-3.1 -3.45 -2.55 -3.45 L-2.65 -2.75 -2.75 -2.0 -1.65 -2.9 -0.45 -3.8 -0.5 -3.45 -0.6 -3.15 1.6 -4.75 Q2.95 -5.75 4.0 -5.9 2.75 -4.6 1.65 -2.8 L4.45 -4.2 7.4 -5.2 6.3 -4.25 5.35 -3.15 7.35 -4.3 9.5 -5.1 8.75 -4.2 8.1 -3.2 9.45 -4.0 10.9 -4.5 12.3 -4.6 12.5 -4.6 12.95 -4.6 Q14.3 -4.6 15.3 -3.75 L15.0 -3.8 13.3 -3.85 12.5 -3.75 12.3 -3.75 12.2 -3.75 12.4 -3.7 12.0 -2.7 11.1 0.0 Q9.9 4.45 10.2 9.75 11.3 12.1 9.5 12.9 L9.2 13.5 9.15 13.5 Q6.65 17.35 6.95 20.5 7.3 23.8 6.4 24.1 L4.85 24.35 4.45 21.65 4.5 22.8 Q4.45 24.0 4.05 24.2 L1.6 24.35 -4.5 24.05 -6.0 24.45 -7.05 23.5 -7.1 24.0 Q-7.25 24.55 -7.55 24.45 -8.35 24.3 -10.15 22.3 -12.4 19.85 -12.85 17.3 -12.95 16.75 -13.8 14.3 L-14.05 13.5 -14.1 13.5 -14.8 9.7 -14.65 9.45 Q-14.15 9.8 -13.5 10.9 L-12.65 12.55 -12.35 13.4 -12.3 13.5 -11.55 15.3 -10.0 17.85 -7.75 20.1 Q-7.6 19.1 -8.1 17.2 -8.65 15.1 -8.6 14.25 L-7.6 16.65 Q-6.8 18.3 -5.95 18.6 -5.85 17.65 -6.15 16.0 L-6.55 13.5 -6.55 13.4 Q-6.6 11.35 -6.1 9.5 L-5.85 8.7 -5.75 8.15 Q-5.7 11.1 -5.3 13.4 L-5.25 13.5 -4.95 14.65 -3.65 17.85 -3.3 18.65 -2.7 19.25 Q-2.5 18.65 -2.65 17.8 L-3.0 16.35 -3.15 14.25 -3.05 13.5 -3.05 13.4 -3.05 12.7 -3.0 13.4 -3.0 13.5 -2.65 15.05 Q-2.2 16.7 -1.15 17.5 L-1.15 14.8 -1.2 13.5 -1.2 13.4 -1.2 11.85 -0.7 7.95 Q-0.3 5.4 -0.25 4.0 -0.1 4.5 -0.1 5.3 L-0.15 6.65 -0.05 9.8 Q0.0 11.6 0.2 12.9 L0.25 13.4 0.3 13.4 0.35 13.5 0.85 15.4 1.3 17.9 Q1.6 16.75 1.5 14.7 L1.45 13.5 1.45 13.4 Q1.4 11.9 1.5 11.15 L2.0 8.1 2.55 5.1 2.5 8.05 Q2.45 9.75 2.55 11.0 L2.95 13.15 3.0 13.4 3.05 13.4 3.1 13.5 3.25 14.85 3.5 13.5 3.5 13.4 3.55 11.9 3.85 8.45 Q4.15 7.0 4.95 5.4 5.65 3.95 6.6 2.65 L6.6 4.25 6.8 5.8 7.6 3.65 8.35 1.45 9.45 -1.35 10.45 -3.15 Q7.85 -1.95 5.0 0.6 5.1 -0.45 5.65 -1.35 6.2 -2.25 7.05 -2.7 5.65 -2.45 4.25 -1.5 2.95 -0.55 2.15 0.6 2.5 -0.55 3.55 -2.2 L1.15 -0.65 Q0.05 0.35 -0.8 1.6 -0.4 -0.25 0.45 -1.95 -0.95 -1.7 -2.4 -0.6 -3.8 0.5 -4.45 1.85 L-3.85 0.15 -3.25 -1.5 Q-4.8 -1.25 -5.95 0.8 L-5.9 -0.45 -5.75 -1.7 Q-9.05 0.6 -10.15 2.65 -10.2 1.8 -9.25 0.65 L-7.85 -1.15 Q-9.65 -0.9 -13.0 1.7 -13.75 0.35 -13.55 -0.65 L-14.55 0.0 -14.95 0.3 -15.3 0.55 -16.35 0.85 -16.35 0.55" fill="#000000" fill-opacity="0.2" fill-rule="evenodd" stroke="none"/>
    <path d="M-16.35 0.55 L-16.35 0.85 -15.3 0.55 -14.95 0.3 -14.55 0.0 M-7.1 24.0 L-7.05 23.5 -6.0 24.45 -4.5 24.05 1.6 24.35 M4.5 22.8 L4.45 21.65 4.85 24.35 6.4 24.1 M9.5 12.9 Q11.3 12.1 10.2 9.75 M12.0 -2.7 L12.4 -3.7 12.2 -3.75 12.3 -3.75 12.5 -3.75 13.3 -3.85 15.0 -3.8 Q15.7 -3.45 16.4 -2.75 16.85 -4.35 17.75 -4.05 L18.65 -3.55 19.6 -3.0 18.8 -4.55 17.75 -5.6 18.45 -5.35 19.1 -5.15" fill="none" stroke="#000000" stroke-linecap="square" stroke-linejoin="round" stroke-opacity="0.4" stroke-width="1.0"/>
    <path d="M-14.8 9.7 L-14.1 13.5 M-14.05 13.5 L-13.8 14.3 Q-12.95 16.75 -12.85 17.3 -12.4 19.85 -10.15 22.3 -8.35 24.3 -7.55 24.45 -7.25 24.55 -7.1 24.0 M1.6 24.35 L4.05 24.2 Q4.45 24.0 4.5 22.8 M6.4 24.1 Q7.3 23.8 6.95 20.5 6.65 17.35 9.15 13.5 M9.2 13.5 L9.5 12.9 M10.2 9.75 Q9.9 4.45 11.1 0.0 L12.0 -2.7 M19.1 -5.15 Q18.2 -7.0 17.3 -7.85 16.05 -9.05 15.3 -7.5 14.85 -9.7 12.5 -10.95 L11.35 -11.4 3.2 -12.55 Q-2.15 -12.9 -7.2 -10.65 -12.75 -8.2 -14.9 -3.7 L-15.8 -1.3 -16.35 0.55 M-14.55 0.0 L-15.0 3.05 Q-15.35 5.35 -14.8 9.7" fill="none" stroke="#000000" stroke-linecap="square" stroke-linejoin="round" stroke-opacity="0.6" stroke-width="1.0"/>
  </g>
</svg>
