<?xml version="1.0" encoding="UTF-8" standalone="no"?>
<svg xmlns:xlink="http://www.w3.org/1999/xlink" height="19.65px" width="49.5px" xmlns="http://www.w3.org/2000/svg">
  <g transform="matrix(1.0, 0.0, 0.0, 1.0, 12.35, 4.9)">
    <path d="M3.15 -3.7 Q5.95 -2.8 7.25 -1.3 9.65 1.1 8.15 6.2 6.85 10.8 3.95 13.2 1.25 15.4 -4.05 14.5 -9.55 13.5 -10.95 9.9 -12.55 6.0 -12.35 2.6 -12.15 -1.2 -9.95 -3.2 -8.05 -5.1 -3.45 -4.9 L0.65 -4.4 3.15 -3.7 M37.15 2.7 Q37.35 6.1 35.75 10.0 34.35 13.5 28.85 14.5 23.55 15.4 20.85 13.2 17.95 10.9 16.65 6.3 15.15 1.2 17.55 -1.3 18.85 -2.7 21.65 -3.7 L24.15 -4.3 28.25 -4.9 Q32.85 -5.0 34.75 -3.2 36.95 -1.1 37.15 2.7" fill="#000000" fill-opacity="0.84705883" fill-rule="evenodd" stroke="none"/>
    <path d="M25.65 -3.5 L21.85 -1.6 Q18.05 1.4 17.85 6.9 17.35 5.4 17.35 3.6 17.25 -0.2 19.75 -2.0 L21.45 -2.8 Q23.75 -3.6 25.65 -3.5 M-5.55 -3.9 L-1.35 -3.5 Q-3.25 -3.6 -5.45 -2.6 -9.85 -0.7 -11.25 4.5 -11.45 3.0 -11.05 1.2 -10.25 -2.3 -7.45 -3.5 L-5.55 -3.9" fill="#ffffff" fill-opacity="0.84705883" fill-rule="evenodd" stroke="none"/>
  </g>
</svg>
