<?xml version="1.0" encoding="UTF-8" standalone="no"?>
<svg xmlns:xlink="http://www.w3.org/1999/xlink" height="41.75px" width="37.85px" xmlns="http://www.w3.org/2000/svg">
  <g transform="matrix(1.0, 0.0, 0.0, 1.0, 19.0, 15.1)">
    <path d="M16.0 -2.7 L14.55 -1.25 Q13.15 0.05 12.0 0.15 L12.7 -1.9 13.15 -4.0 10.65 -2.3 Q9.1 -1.15 8.65 -0.1 L9.9 -0.4 10.95 -0.85 Q10.85 0.65 8.55 2.5 6.95 3.55 6.05 4.3 L5.9 4.4 5.75 4.4 5.05 4.95 7.55 4.4 7.85 4.4 8.1 4.3 Q10.25 3.45 12.4 1.7 L14.6 -0.9 16.0 -2.7 M17.8 -3.6 Q17.1 -1.05 15.45 2.25 13.6 6.05 12.55 6.45 L8.3 8.25 10.05 6.75 11.8 5.3 5.0 8.0 Q1.4 9.6 -1.35 11.5 -0.7 11.15 0.45 10.8 L2.3 10.2 Q1.95 10.8 1.75 11.65 L-0.7 13.45 Q-2.75 15.05 -2.9 15.75 L-2.95 15.75 Q-3.15 13.2 -1.05 10.55 L0.95 8.35 2.0 7.2 0.6 8.55 -1.9 10.7 Q-4.95 13.4 -6.1 15.65 -5.0 11.6 -1.8 7.15 L0.35 4.4 0.4 4.4 0.5 4.3 4.3 -0.6 -2.1 4.3 -2.25 4.4 -2.35 4.4 -3.8 5.65 Q-7.9 9.6 -9.1 14.05 -10.3 10.4 -8.0 4.4 L-7.95 4.4 -7.9 4.3 -6.2 0.25 -8.25 3.25 -8.9 4.3 -8.95 4.4 -9.05 4.4 -10.0 6.0 Q-11.6 9.05 -11.55 12.5 L-13.0 9.75 -14.4 6.5 -14.15 10.95 Q-13.8 13.3 -12.9 15.2 L-14.85 12.5 Q-16.25 10.8 -16.7 9.45 L-17.4 5.85 -17.5 4.4 -17.5 4.3 -17.65 2.15 Q-17.75 -0.15 -17.2 -2.7 -16.4 -5.15 -15.05 -7.1 L-13.25 -9.2 -11.05 -10.8 -10.1 -11.45 -8.95 -12.3 Q-6.1 -13.9 -2.2 -14.3 3.3 -14.9 10.15 -13.05 16.5 -10.25 17.8 -3.6 M-9.4 -9.85 Q-11.2 -9.0 -12.65 -7.55 -16.75 -3.45 -16.4 4.3 L-16.4 4.4 -16.25 5.9 -16.05 4.4 -16.0 4.4 -15.95 4.3 Q-15.65 2.15 -14.8 -0.25 -12.45 -7.2 -7.85 -10.35 L-9.4 -9.85" fill="#ffffff" fill-opacity="0.0" fill-rule="evenodd" stroke="none"/>
    <path d="M16.0 -2.7 L14.6 -0.9 12.4 1.7 Q10.25 3.45 8.1 4.3 L7.85 4.4 7.55 4.4 5.05 4.95 5.75 4.4 5.9 4.4 6.05 4.3 Q6.95 3.55 8.55 2.5 10.85 0.65 10.95 -0.85 L9.9 -0.4 8.65 -0.1 Q9.1 -1.15 10.65 -2.3 L13.15 -4.0 12.7 -1.9 12.0 0.15 Q13.15 0.05 14.55 -1.25 L16.0 -2.7 M-9.4 -9.85 L-7.85 -10.35 Q-12.45 -7.2 -14.8 -0.25 -15.65 2.15 -15.95 4.3 L-16.0 4.4 -16.05 4.4 -16.25 5.9 -16.4 4.4 -16.4 4.3 Q-16.75 -3.45 -12.65 -7.55 -11.2 -9.0 -9.4 -9.85" fill="#ffffff" fill-opacity="0.2" fill-rule="evenodd" stroke="none"/>
    <path d="M17.8 -3.6 L18.0 -2.95 Q18.35 -1.3 18.05 2.75 17.7 6.95 17.0 7.5 L14.4 9.85 11.5 12.45 Q10.4 13.35 9.95 13.1 9.45 12.85 7.95 15.05 L7.4 15.85 7.35 15.85 Q6.25 17.3 5.9 18.25 L5.9 18.35 Q5.5 19.55 4.3 20.95 L3.3 22.05 1.05 23.95 -1.2 25.25 0.45 23.5 -2.25 25.15 -4.25 25.9 -4.65 26.0 Q-5.1 26.05 -5.95 25.5 -7.5 24.45 -10.25 21.15 L-14.4 15.85 -14.9 15.3 -15.3 14.8 -16.5 12.9 -17.0 11.8 -17.8 9.4 -18.3 6.15 -18.35 5.8 -18.35 4.8 -18.35 4.4 -18.35 3.25 -18.1 0.95 -17.95 0.2 -17.55 -1.45 -17.5 -1.75 -17.4 -2.1 -17.4 -2.15 -17.3 -2.35 -17.2 -2.7 Q-17.75 -0.15 -17.65 2.15 L-17.5 4.3 -17.5 4.4 -17.4 5.85 -16.7 9.45 Q-16.25 10.8 -14.85 12.5 L-12.9 15.2 Q-13.8 13.3 -14.15 10.95 L-14.4 6.5 -13.0 9.75 -11.55 12.5 Q-11.6 9.05 -10.0 6.0 L-9.05 4.4 -8.95 4.4 -8.9 4.3 -8.25 3.25 -6.2 0.25 -7.9 4.3 -7.95 4.4 -8.0 4.4 Q-10.3 10.4 -9.1 14.05 -7.9 9.6 -3.8 5.65 L-2.35 4.4 -2.25 4.4 -2.1 4.3 4.3 -0.6 0.5 4.3 0.4 4.4 0.35 4.4 -1.8 7.15 Q-5.0 11.6 -6.1 15.65 -4.95 13.4 -1.9 10.7 L0.6 8.55 2.0 7.2 0.95 8.35 -1.05 10.55 Q-3.15 13.2 -2.95 15.75 L-2.9 15.75 Q-2.75 15.05 -0.7 13.45 L1.75 11.65 Q1.95 10.8 2.3 10.2 L0.45 10.8 Q-0.7 11.15 -1.35 11.5 1.4 9.6 5.0 8.0 L11.8 5.3 10.05 6.75 8.3 8.25 12.55 6.45 Q13.6 6.05 15.45 2.25 17.1 -1.05 17.8 -3.6" fill="#000000" fill-opacity="0.2" fill-rule="evenodd" stroke="none"/>
    <path d="M-18.3 6.15 L-17.8 9.4 -17.0 11.8 -16.5 12.9 Q-18.05 9.95 -18.3 6.15" fill="#945c47" fill-rule="evenodd" stroke="none"/>
    <path d="M7.4 15.85 L7.95 15.05 Q9.45 12.85 9.95 13.1 10.4 13.35 11.5 12.45 L14.4 9.85 17.0 7.5 Q17.7 6.95 18.05 2.75 18.35 -1.3 18.0 -2.95 L17.8 -3.6 Q16.5 -10.25 10.15 -13.05 3.3 -14.9 -2.2 -14.3 -6.1 -13.9 -8.95 -12.3 L-10.1 -11.45 -11.05 -10.8 -13.25 -9.2 -15.05 -7.1 Q-16.4 -5.15 -17.2 -2.7 L-17.3 -2.35 -17.4 -2.15 -17.4 -2.1 -17.5 -1.75 -17.55 -1.45 -17.95 0.2 -18.1 0.95 -18.35 3.25 -18.35 4.4 -18.35 4.8 -18.35 5.8 -18.3 6.15 Q-18.05 9.95 -16.5 12.9 L-15.3 14.8 -14.9 15.3 -14.4 15.85 -10.25 21.15 Q-7.5 24.45 -5.95 25.5 -5.1 26.05 -4.65 26.0 M-4.25 25.9 L-2.25 25.15 0.45 23.5 M-1.2 25.25 L1.05 23.95 3.3 22.05 4.3 20.95 Q5.5 19.55 5.9 18.35 L5.9 18.25 Q6.25 17.3 7.35 15.85" fill="none" stroke="#000000" stroke-linecap="square" stroke-linejoin="round" stroke-opacity="0.6" stroke-width="1.0"/>
    <path d="M-4.65 26.0 L-4.25 25.9 M0.45 23.5 L-1.2 25.25" fill="none" stroke="#000000" stroke-linecap="square" stroke-linejoin="round" stroke-opacity="0.4" stroke-width="1.0"/>
  </g>
</svg>
