<?xml version="1.0" encoding="UTF-8" standalone="no"?>
<svg xmlns:xlink="http://www.w3.org/1999/xlink" height="47.35px" width="50.65px" xmlns="http://www.w3.org/2000/svg">
  <g transform="matrix(1.0, 0.0, 0.0, 1.0, 26.1, 19.4)">
    <path d="M-2.75 -15.65 L2.1 -16.7 Q4.75 -16.9 6.85 -15.8 L9.35 -14.15 Q11.15 -12.9 12.25 -12.4 15.8 -10.7 17.9 -13.35 17.7 -12.6 17.1 -11.95 L15.8 -10.85 19.2 -10.45 Q20.1 -10.05 20.7 -9.3 L21.5 -7.95 21.65 -7.45 21.45 -5.45 20.8 -3.9 20.5 -3.5 18.8 -1.75 Q17.5 -0.65 16.75 -0.6 L19.55 -0.75 16.4 1.1 12.8 2.25 7.9 2.5 3.05 2.2 Q6.15 3.45 9.7 3.5 L4.7 4.25 -0.35 4.15 Q1.05 4.95 3.5 5.4 L7.55 5.95 5.1 8.75 Q3.85 10.5 4.0 12.3 L5.05 10.75 6.3 9.45 Q5.7 10.5 5.75 12.15 L4.85 13.7 3.55 16.4 2.4 14.35 Q1.75 15.05 1.6 16.95 1.45 19.05 1.05 19.8 1.0 17.55 -0.1 15.65 -1.0 14.15 -2.95 12.3 L-2.9 13.85 -2.95 15.55 -2.55 18.2 Q-2.25 19.9 -2.4 20.85 -2.8 20.3 -4.55 18.9 -5.95 17.8 -6.35 16.7 L-6.7 14.95 Q-6.85 13.85 -7.15 13.25 L-8.05 16.55 Q-8.75 18.4 -10.1 19.15 L-9.2 17.05 Q-8.75 15.75 -8.75 14.75 -8.75 13.5 -9.75 12.3 L-11.35 10.1 -10.45 12.35 -9.05 14.35 Q-11.15 13.75 -13.3 12.1 -14.75 11.0 -15.4 9.9 -15.9 9.05 -15.9 8.25 L-15.85 10.2 -15.85 10.3 Q-15.7 11.45 -15.25 12.15 -16.5 11.5 -17.15 10.2 L-17.7 8.7 Q-18.1 7.2 -18.0 4.25 -18.05 4.6 -20.25 6.4 L-22.9 8.6 -23.85 9.3 Q-23.25 8.65 -22.8 7.6 -22.15 6.15 -21.45 2.35 L-21.05 0.35 -18.45 -1.3 -16.75 -2.25 -12.5 -4.1 Q-9.7 -5.35 -8.75 -6.6 -10.85 -6.75 -13.45 -5.9 -16.2 -4.95 -17.5 -3.5 L-15.55 -6.1 -13.5 -8.65 -17.0 -7.5 -20.4 -6.35 -21.5 -5.85 -21.25 -5.8 -21.9 -5.85 -18.35 -8.5 -14.9 -11.35 Q-12.9 -12.85 -11.1 -13.4 L-6.65 -13.55 Q-7.2 -14.75 -5.05 -16.45 L-1.85 -18.75 -2.35 -17.2 -2.75 -15.65 M-12.35 -6.75 Q-11.55 -7.95 -9.9 -8.7 L-6.9 -9.8 -4.5 -10.75 -1.95 -11.1 -9.75 -11.4 Q-14.0 -10.85 -16.4 -8.2 -15.5 -9.15 -13.4 -9.6 L-9.85 -10.15 Q-10.65 -9.95 -11.15 -9.15 L-11.9 -7.6 -12.35 -6.75" fill="#ffffff" fill-opacity="0.0" fill-rule="evenodd" stroke="none"/>
    <path d="M-21.25 -5.8 L-21.5 -5.85 -20.4 -6.35 -17.0 -7.5 -13.5 -8.65 -15.55 -6.1 -17.5 -3.5 Q-16.2 -4.95 -13.45 -5.9 -10.85 -6.75 -8.75 -6.6 -9.7 -5.35 -12.5 -4.1 L-16.75 -2.25 -18.45 -1.3 -21.05 0.35 -21.1 0.35 -20.7 -1.2 -20.65 -1.3 -20.15 -3.0 -20.05 -3.25 -19.7 -3.95 -19.65 -4.0 Q-18.65 -5.9 -16.95 -6.5 L-17.3 -6.4 -19.4 -5.95 -21.25 -5.8 M-23.85 9.3 L-22.9 8.6 -20.25 6.4 Q-18.05 4.6 -18.0 4.25 -18.1 7.2 -17.7 8.7 L-17.15 10.2 Q-16.5 11.5 -15.25 12.15 -15.7 11.45 -15.85 10.3 L-15.85 10.2 -15.9 8.25 Q-15.9 9.05 -15.4 9.9 -14.75 11.0 -13.3 12.1 -11.15 13.75 -9.05 14.35 L-10.45 12.35 -11.35 10.1 -9.75 12.3 Q-8.75 13.5 -8.75 14.75 -8.75 15.75 -9.2 17.05 L-10.1 19.15 Q-8.75 18.4 -8.05 16.55 L-7.15 13.25 Q-6.85 13.85 -6.7 14.95 L-6.35 16.7 Q-5.95 17.8 -4.55 18.9 -2.8 20.3 -2.4 20.85 -2.25 19.9 -2.55 18.2 L-2.95 15.55 -2.9 13.85 -2.95 12.3 Q-1.0 14.15 -0.1 15.65 1.0 17.55 1.05 19.8 1.45 19.05 1.6 16.95 1.75 15.05 2.4 14.35 L3.55 16.4 4.85 13.7 5.75 12.15 Q5.7 10.5 6.3 9.45 L5.05 10.75 4.0 12.3 Q3.85 10.5 5.1 8.75 L7.55 5.95 3.5 5.4 Q1.05 4.95 -0.35 4.15 L4.7 4.25 9.7 3.5 Q6.15 3.45 3.05 2.2 L7.9 2.5 12.8 2.25 16.4 1.1 19.55 -0.75 16.75 -0.6 Q17.5 -0.65 18.8 -1.75 L20.5 -3.5 20.8 -3.9 21.45 -5.45 21.65 -7.45 21.65 -7.5 21.8 -7.0 22.0 -6.35 22.05 -6.05 22.25 -5.5 22.45 -4.95 22.65 -4.55 23.0 -3.9 23.4 -3.05 23.9 -1.5 Q24.0 -0.2 21.6 1.7 19.85 3.1 17.85 4.15 L14.85 6.35 Q13.15 7.25 11.4 7.5 12.3 7.2 13.0 6.2 L12.1 6.45 10.6 7.35 Q10.1 8.95 10.35 10.3 10.7 11.8 11.95 12.75 10.65 12.35 9.05 10.0 8.95 11.5 9.45 13.3 L10.25 16.05 Q10.55 17.55 10.2 18.7 9.9 19.65 9.05 20.6 L8.8 20.8 8.05 21.45 8.75 20.3 8.85 20.0 8.9 19.65 Q9.05 18.65 8.7 17.65 L8.6 18.15 8.6 18.2 8.4 18.6 8.1 19.15 7.9 19.5 7.7 19.75 7.55 20.0 7.5 20.05 7.4 20.2 5.95 22.25 5.85 22.45 5.65 22.75 5.6 22.8 5.6 22.85 5.55 22.95 5.5 23.0 5.45 23.1 5.15 23.75 4.85 25.3 4.9 25.45 4.95 25.55 5.0 25.65 5.6 26.3 6.05 26.5 7.05 26.8 7.2 26.85 5.6 27.0 Q4.5 27.2 3.8 27.0 L2.2 26.05 Q1.45 25.35 1.3 24.45 1.25 25.65 1.95 27.2 0.7 27.1 -0.65 26.0 L-2.8 24.0 -3.75 25.65 -4.4 27.3 Q-4.35 25.5 -6.0 24.35 -6.6 23.95 -7.65 23.5 L-9.3 22.7 Q-9.3 23.45 -8.8 24.15 L-7.6 25.0 Q-10.85 24.15 -12.7 23.1 -15.3 21.6 -16.4 19.1 L-16.05 20.4 -15.75 21.7 Q-16.25 20.9 -17.85 20.1 -19.5 19.2 -20.0 18.55 -20.6 17.8 -20.7 16.85 L-20.75 14.9 Q-21.8 15.55 -23.45 15.25 L-21.6 13.1 -20.1 10.5 Q-21.3 11.2 -22.7 10.95 L-22.9 10.9 -24.35 10.4 -25.45 10.2 -25.2 10.1 -24.8 9.95 -24.6 9.85 -23.85 9.3" fill="#000000" fill-opacity="0.2" fill-rule="evenodd" stroke="none"/>
    <path d="M-12.35 -6.75 L-11.9 -7.6 -11.15 -9.15 Q-10.65 -9.95 -9.85 -10.15 L-13.4 -9.6 Q-15.5 -9.15 -16.4 -8.2 -14.0 -10.85 -9.75 -11.4 L-1.95 -11.1 -4.5 -10.75 -6.9 -9.8 -9.9 -8.7 Q-11.55 -7.95 -12.35 -6.75" fill="#ffffff" fill-opacity="0.2" fill-rule="evenodd" stroke="none"/>
    <path d="M-2.75 -15.65 L-2.35 -17.2 -1.85 -18.75 -5.05 -16.45 Q-7.2 -14.75 -6.65 -13.55 M-21.9 -5.85 L-21.25 -5.8 -19.4 -5.95 -17.3 -6.4 -16.95 -6.5 Q-18.65 -5.9 -19.65 -4.0 L-19.7 -3.95 -20.05 -3.25 M15.8 -10.85 L17.1 -11.95 Q17.7 -12.6 17.9 -13.35 M-25.45 10.2 L-24.35 10.4 -22.9 10.9 -22.7 10.95 Q-21.3 11.2 -20.1 10.5 L-21.6 13.1 -23.45 15.25 Q-21.8 15.55 -20.75 14.9 L-20.7 16.85 Q-20.6 17.8 -20.0 18.55 -19.5 19.2 -17.85 20.1 -16.25 20.9 -15.75 21.7 L-16.05 20.4 -16.4 19.1 Q-15.3 21.6 -12.7 23.1 -10.85 24.15 -7.6 25.0 L-8.8 24.15 Q-9.3 23.45 -9.3 22.7 L-7.65 23.5 Q-6.6 23.95 -6.0 24.35 -4.35 25.5 -4.4 27.3 L-3.75 25.65 -2.8 24.0 -0.65 26.0 Q0.7 27.1 1.95 27.2 1.25 25.65 1.3 24.45 1.45 25.35 2.2 26.05 L3.8 27.0 Q4.5 27.2 5.6 27.0 L7.2 26.85 7.05 26.8 6.05 26.5 5.6 26.3 5.0 25.65 4.95 25.55 4.9 25.45 4.85 25.3 5.15 23.75 5.45 23.1 5.5 23.0 5.55 22.95 5.6 22.85 5.6 22.8 5.65 22.75 5.85 22.45 5.95 22.25 7.4 20.2 7.5 20.05 7.55 20.0 7.7 19.75 7.9 19.5 8.1 19.15 8.4 18.6 8.6 18.2 8.6 18.15 8.7 17.65 Q9.05 18.65 8.9 19.65 L8.85 20.0 8.75 20.3 8.05 21.45 8.8 20.8 9.05 20.6 Q9.9 19.65 10.2 18.7 10.55 17.55 10.25 16.05 L9.45 13.3 Q8.95 11.5 9.05 10.0 10.65 12.35 11.95 12.75 10.7 11.8 10.35 10.3 10.1 8.95 10.6 7.35 L12.1 6.45 13.0 6.2 Q12.3 7.2 11.4 7.5 M-20.15 -3.0 L-20.65 -1.3" fill="none" stroke="#000000" stroke-linecap="square" stroke-linejoin="round" stroke-opacity="0.4" stroke-width="1.0"/>
    <path d="M17.9 -13.35 Q15.8 -10.7 12.25 -12.4 11.15 -12.9 9.35 -14.15 L6.85 -15.8 Q4.75 -16.9 2.1 -16.7 L-2.75 -15.65 M-6.65 -13.55 L-11.1 -13.4 Q-12.9 -12.85 -14.9 -11.35 L-18.35 -8.5 -21.9 -5.85 M-21.05 0.35 L-21.45 2.35 Q-22.15 6.15 -22.8 7.6 -23.25 8.65 -23.85 9.3 L-24.6 9.85 -24.8 9.95 -25.2 10.1 -25.45 10.2 M21.65 -7.45 L21.5 -7.95 20.7 -9.3 Q20.1 -10.05 19.2 -10.45 L15.8 -10.85 M11.4 7.5 Q13.15 7.25 14.85 6.35 L17.85 4.15 Q19.85 3.1 21.6 1.7 24.0 -0.2 23.9 -1.5 L23.4 -3.05 23.0 -3.9 22.65 -4.55 22.45 -4.95 22.25 -5.5 22.05 -6.05 22.0 -6.35 21.8 -7.0 21.65 -7.5 21.65 -7.45 M-20.65 -1.3 L-20.7 -1.2 -21.1 0.35 -21.05 0.35 M-20.05 -3.25 L-20.15 -3.0" fill="none" stroke="#000000" stroke-linecap="square" stroke-linejoin="round" stroke-opacity="0.6" stroke-width="1.0"/>
  </g>
</svg>
