<?xml version="1.0" encoding="UTF-8" standalone="no"?>
<svg xmlns:xlink="http://www.w3.org/1999/xlink" height="40.3px" width="36.05px" xmlns="http://www.w3.org/2000/svg">
  <g transform="matrix(1.0, 0.0, 0.0, 1.0, 16.2, 15.9)">
    <path d="M12.5 -13.3 Q12.85 -13.1 13.3 -12.85 14.95 -11.85 15.65 -11.65 L16.8 -11.55 17.9 -11.2 17.45 -10.85 17.7 -10.85 17.4 -10.3 17.15 -9.65 17.5 -9.5 17.8 -9.4 17.6 -9.3 17.9 -9.0 17.55 -8.55 17.75 -8.85 Q17.1 -9.3 15.9 -9.45 L14.0 -9.95 14.8 -8.7 15.6 -7.65 14.1 -8.55 12.55 -8.95 14.4 -7.15 12.5 -8.1 12.3 -8.2 12.3 -8.3 9.15 -9.5 10.5 -8.0 11.85 -6.55 8.7 -7.45 5.55 -8.05 Q5.95 -7.45 6.85 -6.75 L8.25 -5.6 6.35 -6.4 4.35 -6.9 4.8 -6.2 5.25 -5.6 3.55 -5.85 1.95 -6.45 3.1 -5.25 Q2.25 -5.9 0.7 -6.2 L-0.05 -4.8 -0.85 -3.35 Q-0.4 -4.8 -0.5 -6.6 L-1.55 -4.0 -1.7 -4.2 -2.35 -6.45 -4.2 -4.7 -5.95 -2.55 -5.35 -4.65 Q-5.05 -5.9 -5.3 -6.7 -6.9 -6.25 -8.6 -5.35 L-11.55 -3.25 -10.4 -4.75 -9.35 -6.15 -14.1 -5.5 -13.85 -5.75 -14.8 -6.05 -12.9 -6.95 Q-11.6 -8.05 -9.25 -8.5 -9.1 -10.5 -8.6 -12.1 -7.9 -14.4 -6.7 -15.25 L-6.5 -11.15 -5.65 -11.45 Q-4.85 -12.95 -3.8 -13.65 -2.4 -14.5 -2.8 -12.35 L-1.7 -12.65 3.65 -14.0 Q7.35 -14.7 9.45 -14.1 L10.1 -13.95 12.5 -13.4 12.5 -13.3" fill="#ffffff" fill-opacity="0.0" fill-rule="evenodd" stroke="none"/>
    <path d="M-14.1 -5.5 L-9.35 -6.15 -10.4 -4.75 -11.55 -3.25 -8.6 -5.35 Q-6.9 -6.25 -5.3 -6.7 -5.05 -5.9 -5.35 -4.65 L-5.95 -2.55 -4.2 -4.7 -2.35 -6.45 -1.7 -4.2 -1.55 -4.0 -0.5 -6.6 Q-0.4 -4.8 -0.85 -3.35 L-0.05 -4.8 0.7 -6.2 Q2.25 -5.9 3.1 -5.25 L1.95 -6.45 3.55 -5.85 5.25 -5.6 4.8 -6.2 4.35 -6.9 6.35 -6.4 8.25 -5.6 6.85 -6.75 Q5.95 -7.45 5.55 -8.05 L8.7 -7.45 11.85 -6.55 10.5 -8.0 9.15 -9.5 12.3 -8.3 12.3 -8.2 12.5 -8.1 14.4 -7.15 12.55 -8.95 14.1 -8.55 15.6 -7.65 14.8 -8.7 14.0 -9.95 15.9 -9.45 Q17.1 -9.3 17.75 -8.85 L17.55 -8.55 19.0 -7.5 19.1 -7.4 18.7 -7.2 16.8 -6.7 18.35 -4.8 15.75 -6.15 15.4 -5.65 16.55 -4.15 12.4 -6.5 11.5 -5.85 Q10.8 -5.1 10.5 -3.9 9.55 -0.6 11.65 4.05 L11.5 5.3 11.3 6.45 11.15 7.4 11.05 8.0 10.45 12.2 9.5 12.8 3.85 16.25 Q0.4 18.7 -0.55 22.55 -0.45 22.8 -1.2 23.0 L-2.45 23.35 -4.5 23.7 -7.5 23.5 -8.0 23.4 Q-11.75 18.35 -13.85 13.7 -15.3 10.55 -15.55 4.4 -15.65 2.65 -15.0 -0.05 L-15.0 -2.2 -14.95 -2.4 -14.05 -4.65 -15.45 -4.35 -14.8 -4.95 -14.15 -5.5 -14.1 -5.5" fill="#000000" fill-opacity="0.2" fill-rule="evenodd" stroke="none"/>
    <path d="M18.7 -7.2 L19.1 -7.4 19.0 -7.5 19.2 -7.4 18.7 -7.2" fill="#945c47" fill-rule="evenodd" stroke="none"/>
    <path d="M17.9 -11.2 L16.8 -11.55 15.65 -11.65 Q14.95 -11.85 13.3 -12.85 12.85 -13.1 12.5 -13.3 M12.5 -13.4 L10.1 -13.95 9.45 -14.1 Q7.35 -14.7 3.65 -14.0 L-1.7 -12.65 -2.8 -12.35 M-2.45 23.35 L-1.2 23.0 Q-0.45 22.8 -0.55 22.55 0.4 18.7 3.85 16.25 L9.5 12.8 M-14.95 -2.4 L-15.0 -2.2 -15.0 -0.05 Q-15.65 2.65 -15.55 4.4 -15.3 10.55 -13.85 13.7 -11.75 18.35 -8.0 23.4 L-7.5 23.5" fill="none" stroke="#000000" stroke-linecap="square" stroke-linejoin="round" stroke-opacity="0.6" stroke-width="1.0"/>
    <path d="M-2.8 -12.35 Q-2.4 -14.5 -3.8 -13.65 -4.85 -12.95 -5.65 -11.45 L-6.5 -11.15 -6.7 -15.25 Q-7.9 -14.4 -8.6 -12.1 -9.1 -10.5 -9.25 -8.5 -11.6 -8.05 -12.9 -6.95 L-14.8 -6.05 -13.85 -5.75 -14.1 -5.5 -14.15 -5.5 -14.8 -4.95 -15.45 -4.35 -14.05 -4.65 -14.95 -2.4 M17.55 -8.55 L17.9 -9.0 17.6 -9.3 17.8 -9.4 17.5 -9.5 17.15 -9.65 17.4 -10.3 17.7 -10.85 17.45 -10.85 17.9 -11.2 M19.0 -7.5 L17.55 -8.55 M18.7 -7.2 L19.2 -7.4 19.0 -7.5 M11.15 7.4 L11.3 6.45 11.5 5.3 11.65 4.05 Q9.55 -0.6 10.5 -3.9 10.8 -5.1 11.5 -5.85 L12.4 -6.5 16.55 -4.15 15.4 -5.65 15.75 -6.15 18.35 -4.8 16.8 -6.7 18.7 -7.2 M9.5 12.8 L10.45 12.2 11.05 8.0 11.15 7.4 M-7.5 23.5 L-4.5 23.7 -2.45 23.35" fill="none" stroke="#000000" stroke-linecap="square" stroke-linejoin="round" stroke-opacity="0.4" stroke-width="1.0"/>
  </g>
</svg>
