<?xml version="1.0" encoding="UTF-8" standalone="no"?>
<svg xmlns:xlink="http://www.w3.org/1999/xlink" height="39.85px" width="45.25px" xmlns="http://www.w3.org/2000/svg">
  <g transform="matrix(1.0, 0.0, 0.0, 1.0, 23.0, 15.5)">
    <path d="M-21.0 14.05 Q-21.75 11.75 -22.1 9.2 -22.6 5.7 -22.15 2.35 -21.1 -5.5 -15.6 -10.0 -10.2 -14.4 -3.2 -14.8 L-1.5 -14.8 Q1.9 -14.75 5.05 -13.9 L8.05 -13.6 10.15 -13.15 Q12.7 -12.35 14.8 -10.95 21.55 -6.35 21.6 3.2 L21.4 3.2 Q21.05 -2.65 17.55 -7.2 L15.2 -9.7 14.15 -10.55 Q17.05 -7.95 18.55 -3.5 19.65 -0.4 19.95 3.2 L19.9 3.2 Q19.5 -2.45 16.45 -7.25 L14.45 -9.9 13.7 -10.65 Q16.0 -8.2 17.85 -3.3 19.0 -0.2 19.75 3.2 L16.35 3.25 Q16.3 -0.05 15.55 -3.25 16.1 -0.6 15.85 3.3 L11.55 3.5 10.9 5.3 Q10.25 7.55 10.0 9.85 9.55 14.3 10.85 17.8 L10.3 16.4 Q8.35 13.35 8.05 10.6 L8.15 11.85 Q8.35 13.95 8.9 15.8 7.2 10.65 7.05 2.9 7.0 0.45 7.1 -1.95 L7.25 -3.85 Q4.25 5.8 5.45 12.25 5.3 14.7 6.05 16.7 L4.75 13.8 Q3.45 10.4 3.45 8.05 L3.05 8.65 2.35 10.35 Q1.4 13.35 2.05 16.7 L0.55 14.65 Q-0.9 12.35 -0.95 10.2 L-0.95 12.45 Q-0.8 15.2 -0.15 16.7 L-1.3 15.45 -1.45 15.3 -1.45 15.2 -1.5 15.15 -3.25 11.95 -2.65 15.8 Q-4.9 13.1 -6.1 8.25 L-6.8 4.1 -6.9 2.4 Q-7.4 4.7 -7.1 6.85 L-7.5 4.8 -7.85 0.5 -7.75 -1.2 Q-9.2 6.7 -6.35 12.35 -4.75 15.6 -2.2 17.35 L-1.5 19.45 -1.45 19.55 -1.45 19.65 -1.35 19.9 -1.45 19.85 -1.45 19.8 -1.5 19.75 Q-3.6 17.95 -5.9 15.3 -7.25 13.3 -8.0 11.1 L-8.75 7.9 Q-8.45 12.6 -6.9 15.65 L-6.85 16.05 Q-8.4 14.2 -10.05 10.25 L-11.4 6.65 Q-11.85 8.3 -11.5 11.65 L-11.05 14.65 Q-11.9 13.15 -13.05 8.75 L-14.05 4.6 Q-14.6 7.25 -14.0 12.0 L-13.35 16.2 -15.1 12.75 -16.35 10.25 Q-16.35 11.9 -15.8 14.0 L-15.3 15.75 Q-16.6 13.8 -17.9 10.0 L-18.95 6.65 Q-19.6 8.1 -19.5 11.0 L-19.15 15.2 -20.25 12.55 -20.75 9.9 -20.95 8.7 -20.95 9.75 Q-21.15 11.8 -21.0 14.05 M3.2 -10.15 L2.05 -9.2 2.35 -10.45 2.65 -11.75 Q1.0 -10.95 -0.4 -9.1 L-1.45 -7.5 -1.45 -7.4 -1.5 -7.3 -2.25 -5.45 -1.5 -5.85 -1.45 -5.9 -1.45 -5.95 -0.65 -6.7 0.9 -8.4 Q1.1 -7.55 0.55 -5.6 0.0 -3.45 0.05 -2.6 L0.75 -4.1 1.4 -5.4 2.6 -7.0 3.6 -8.35 3.15 -5.9 3.05 -3.4 Q4.0 -4.15 4.45 -6.25 L4.9 -9.45 Q5.1 -11.0 4.9 -11.4 4.7 -11.7 4.2 -11.25 L3.2 -10.15 M11.75 -9.05 L13.0 -6.35 Q14.8 -1.65 14.6 3.3 L14.8 3.3 Q15.25 0.65 14.8 -2.2 14.05 -6.5 11.15 -10.0 L11.75 -9.05 M-7.75 -10.6 Q-7.4 -11.05 -7.4 -11.35 -7.4 -11.05 -9.35 -10.3 -11.25 -9.55 -11.75 -9.6 -11.8 -9.95 -11.3 -10.55 L-10.8 -11.5 Q-12.55 -11.35 -14.05 -9.95 -15.2 -8.85 -16.15 -7.1 L-16.55 -6.1 -16.7 -5.1 Q-16.7 -4.9 -15.1 -6.45 L-14.25 -7.25 -13.1 -7.65 -14.75 -3.8 -13.15 -6.2 Q-11.95 -7.8 -11.0 -8.0 L-10.95 -7.2 -10.95 -6.45 -10.15 -7.2 -9.2 -7.85 -9.7 -6.35 -9.85 -4.9 Q-9.9 -5.25 -8.95 -5.95 L-7.55 -6.7 Q-8.05 -6.25 -8.25 -5.35 L-8.5 -3.8 -8.55 -2.35 Q-8.55 -1.5 -8.7 -1.1 -6.6 -5.35 -5.55 -6.9 -3.65 -9.55 -1.5 -10.8 L-1.45 -10.85 -1.45 -10.9 -0.6 -11.3 -1.45 -11.0 -1.5 -10.95 -2.95 -10.5 -5.3 -9.55 -5.25 -10.15 -5.0 -10.75 -6.55 -10.3 -8.1 -9.8 -7.75 -10.6 M-2.55 16.1 L-2.3 17.1 -4.7 13.45 -2.55 16.1" fill="#ffffff" fill-opacity="0.0" fill-rule="evenodd" stroke="none"/>
    <path d="M-7.1 6.85 Q-7.4 4.7 -6.9 2.4 L-6.8 4.1 -6.1 8.25 Q-4.9 13.1 -2.65 15.8 L-1.5 17.0 -1.45 17.05 -1.45 17.1 -1.5 17.05 -2.55 16.1 -4.7 13.45 -4.75 13.35 Q-6.8 10.25 -7.1 6.85 M19.75 3.2 Q19.0 -0.2 17.85 -3.3 16.0 -8.2 13.7 -10.65 L14.45 -9.9 16.45 -7.25 Q19.5 -2.45 19.9 3.2 L19.75 3.2 M3.2 -10.15 L4.2 -11.25 Q4.7 -11.7 4.9 -11.4 5.1 -11.0 4.9 -9.45 L4.45 -6.25 Q4.0 -4.15 3.05 -3.4 L3.15 -5.9 3.6 -8.35 2.6 -7.0 1.4 -5.4 0.75 -4.1 0.05 -2.6 Q0.0 -3.45 0.55 -5.6 1.1 -7.55 0.9 -8.4 L-0.65 -6.7 -1.45 -5.95 -1.45 -5.9 -1.5 -5.85 -2.25 -5.45 -1.5 -7.3 -1.45 -7.4 -1.45 -7.5 -0.4 -9.1 Q1.0 -10.95 2.65 -11.75 L2.35 -10.45 2.05 -9.2 3.2 -10.15 M-7.75 -10.6 L-8.1 -9.8 -6.55 -10.3 -5.0 -10.75 -5.25 -10.15 -5.3 -9.55 -2.95 -10.5 -1.5 -10.95 -1.45 -11.0 -0.6 -11.3 -1.45 -10.9 -1.45 -10.85 -1.5 -10.8 Q-3.65 -9.55 -5.55 -6.9 -6.6 -5.35 -8.7 -1.1 -8.55 -1.5 -8.55 -2.35 L-8.5 -3.8 -8.25 -5.35 Q-8.05 -6.25 -7.55 -6.7 L-8.95 -5.95 Q-9.9 -5.25 -9.85 -4.9 L-9.7 -6.35 -9.2 -7.85 -10.15 -7.2 -10.95 -6.45 -10.95 -7.2 -11.0 -8.0 Q-11.95 -7.8 -13.15 -6.2 L-14.75 -3.8 -13.1 -7.65 -14.25 -7.25 -15.1 -6.45 Q-16.7 -4.9 -16.7 -5.1 L-16.55 -6.1 -16.15 -7.1 Q-15.2 -8.85 -14.05 -9.95 -12.55 -11.35 -10.8 -11.5 L-11.3 -10.55 Q-11.8 -9.95 -11.75 -9.6 -11.25 -9.55 -9.35 -10.3 -7.4 -11.05 -7.4 -11.35 -7.4 -11.05 -7.75 -10.6" fill="#ffffff" fill-opacity="0.2" fill-rule="evenodd" stroke="none"/>
    <path d="M-21.0 14.05 Q-21.15 11.8 -20.95 9.75 L-20.95 8.7 -20.75 9.9 -20.25 12.55 -19.15 15.2 -19.5 11.0 Q-19.6 8.1 -18.95 6.65 L-17.9 10.0 Q-16.6 13.8 -15.3 15.75 L-15.8 14.0 Q-16.35 11.9 -16.35 10.25 L-15.1 12.75 -13.35 16.2 -14.0 12.0 Q-14.6 7.25 -14.05 4.6 L-13.05 8.75 Q-11.9 13.15 -11.05 14.65 L-11.5 11.65 Q-11.85 8.3 -11.4 6.65 L-10.05 10.25 Q-8.4 14.2 -6.85 16.05 L-6.9 15.65 Q-8.45 12.6 -8.75 7.9 L-8.0 11.1 Q-7.25 13.3 -5.9 15.3 -3.6 17.95 -1.5 19.75 L-1.45 19.8 -1.45 19.85 -1.35 19.9 -1.45 19.65 -1.45 19.55 -1.5 19.45 -2.2 17.35 Q-4.75 15.6 -6.35 12.35 -9.2 6.7 -7.75 -1.2 L-7.85 0.5 -7.5 4.8 -7.1 6.85 Q-6.8 10.25 -4.75 13.35 L-4.7 13.45 -2.3 17.1 -2.55 16.1 -1.5 17.05 -1.45 17.1 -1.45 17.05 -1.5 17.0 -2.65 15.8 -3.25 11.95 -1.5 15.15 -1.45 15.2 -1.45 15.3 -1.3 15.45 -0.15 16.7 Q-0.8 15.2 -0.95 12.45 L-0.95 10.2 Q-0.9 12.35 0.55 14.65 L2.05 16.7 Q1.4 13.35 2.35 10.35 L3.05 8.65 3.45 8.05 Q3.45 10.4 4.75 13.8 L6.05 16.7 Q5.3 14.7 5.45 12.25 4.25 5.8 7.25 -3.85 L7.1 -1.95 Q7.0 0.45 7.05 2.9 7.2 10.65 8.9 15.8 8.35 13.95 8.15 11.85 L8.05 10.6 Q8.35 13.35 10.3 16.4 L10.85 17.8 11.75 19.45 12.7 21.15 13.2 21.95 13.5 22.3 12.05 22.5 7.5 23.05 3.05 23.45 1.1 23.6 0.95 23.6 0.45 23.65 -1.45 23.7 -6.05 23.7 -6.5 23.65 -6.7 23.65 -7.1 23.65 -7.4 23.6 -7.95 23.55 -8.0 23.6 -8.55 23.55 -8.6 23.5 -11.7 23.05 Q-13.1 23.15 -14.8 22.35 L-16.2 21.55 -18.35 19.3 -20.2 16.1 -20.5 15.4 -21.0 14.1 -21.0 14.05 M19.95 3.2 Q19.65 -0.4 18.55 -3.5 17.05 -7.95 14.15 -10.55 L15.2 -9.7 17.55 -7.2 Q21.05 -2.65 21.4 3.2 L19.95 3.2 M11.75 -9.05 L11.15 -10.0 Q14.05 -6.5 14.8 -2.2 15.25 0.65 14.8 3.3 L14.6 3.3 Q14.8 -1.65 13.0 -6.35 L11.75 -9.05" fill="#000000" fill-opacity="0.2" fill-rule="evenodd" stroke="none"/>
    <path d="M3.05 23.45 L7.5 23.05 12.05 22.5 13.5 22.3 5.0 23.3 3.05 23.45" fill="#945c47" fill-rule="evenodd" stroke="none"/>
    <path d="M21.4 3.2 L21.6 3.2 Q21.55 -6.35 14.8 -10.95 12.7 -12.35 10.15 -13.15 L8.05 -13.6 5.05 -13.9 Q1.9 -14.75 -1.5 -14.8 L-3.2 -14.8 Q-10.2 -14.4 -15.6 -10.0 -21.1 -5.5 -22.15 2.35 -22.6 5.7 -22.1 9.2 -21.75 11.75 -21.0 14.05 L-21.0 14.1 -20.5 15.4 -20.2 16.1 -18.35 19.3 -16.2 21.55 -14.8 22.35 Q-13.1 23.15 -11.7 23.05 L-8.6 23.5 -8.55 23.55 -8.0 23.6 -7.95 23.55 -7.4 23.6 -7.1 23.65 -6.7 23.65 -6.5 23.65 -6.05 23.7 -1.45 23.7 0.45 23.65 0.95 23.6 1.1 23.6 3.05 23.45 7.5 23.05 12.05 22.5 13.5 22.3 13.2 21.95 12.7 21.15 11.75 19.45 10.85 17.8 Q9.55 14.3 10.0 9.85 10.25 7.55 10.9 5.3 L11.55 3.5 15.85 3.3 Q16.1 -0.6 15.55 -3.25 16.3 -0.05 16.35 3.25 L19.75 3.2 19.9 3.2 19.95 3.2 21.4 3.2 Z" fill="none" stroke="#000000" stroke-linecap="square" stroke-linejoin="round" stroke-opacity="0.6" stroke-width="1.0"/>
  </g>
</svg>
