<?xml version="1.0" encoding="UTF-8" standalone="no"?>
<svg xmlns:xlink="http://www.w3.org/1999/xlink" height="39.55px" width="38.75px" xmlns="http://www.w3.org/2000/svg">
  <g transform="matrix(1.0, 0.0, 0.0, 1.0, 22.0, 15.45)">
    <path d="M-19.55 6.2 L-19.85 2.75 Q-19.9 0.9 -19.15 -1.0 L-18.05 -3.05 Q-16.35 -6.9 -13.45 -9.8 -11.3 -11.9 -7.4 -13.25 -3.95 -14.5 -0.35 -14.75 L5.25 -14.25 Q7.95 -13.6 10.55 -12.3 11.55 -11.8 12.75 -10.5 L14.45 -8.4 16.1 -4.3 13.4 -2.85 12.3 -2.0 Q11.85 -1.4 11.55 0.1 11.25 1.5 10.7 2.1 L10.5 0.25 10.4 -1.6 Q9.95 1.6 8.35 2.5 8.65 1.2 8.25 -0.45 L7.4 -2.85 7.3 -3.05 7.25 -3.05 7.25 -2.85 7.4 -0.55 Q7.6 1.05 7.25 2.0 L7.0 2.6 6.8 2.55 5.65 2.5 5.85 0.8 5.85 0.75 Q5.75 -0.55 5.0 -2.45 L4.9 -2.85 4.8 -3.05 4.75 -3.05 4.0 -6.15 Q4.15 -4.95 3.9 -3.2 L3.9 -3.05 3.85 -3.05 3.8 -2.85 3.15 -0.85 2.3 1.05 1.3 2.15 2.75 2.2 4.45 2.35 5.2 2.75 5.75 3.45 5.65 3.4 Q4.35 2.65 2.35 3.05 1.4 3.3 -0.45 4.1 L2.0 3.9 Q3.4 4.2 4.7 5.25 L0.9 4.95 Q-1.5 5.4 -2.35 6.75 L-2.15 6.7 Q1.3 5.8 3.85 6.8 2.3 6.45 0.65 7.25 -1.05 8.1 -1.45 9.65 -1.3 9.0 0.25 8.55 L2.45 8.25 Q3.2 8.3 3.95 8.75 L3.15 8.75 Q1.95 8.85 1.05 9.25 L2.55 9.45 4.05 9.95 2.65 10.15 1.25 10.35 Q1.7 12.15 2.15 12.8 L2.35 13.05 0.85 12.1 Q-0.4 10.75 0.2 9.65 -0.55 10.5 -0.05 12.05 0.35 13.3 1.2 14.3 L-0.4 12.55 -1.7 10.6 Q-2.6 11.5 -1.8 13.55 -1.25 15.05 -0.15 16.4 0.85 17.7 2.15 17.75 3.25 17.8 4.45 16.9 L6.4 14.8 6.7 14.35 Q8.2 13.8 9.5 12.95 11.7 11.5 11.8 9.8 11.85 11.7 10.1 13.35 8.55 14.85 6.6 15.35 8.45 15.5 10.1 14.35 11.6 13.3 12.5 11.45 L12.5 12.95 12.4 14.9 11.6 17.2 11.05 18.15 8.95 19.45 Q8.45 19.7 7.95 19.9 L7.9 19.95 7.25 20.15 4.7 20.05 Q2.65 19.65 1.35 18.9 0.35 18.3 -0.5 17.2 -1.4 16.05 -1.65 14.9 -1.65 16.65 -0.55 18.15 L1.15 19.75 1.8 20.3 3.7 21.5 1.2 20.45 -1.05 18.9 Q-2.0 17.85 -2.35 16.0 L-2.95 12.85 Q-4.35 17.3 -0.35 20.95 -2.35 20.15 -3.8 17.3 -5.1 14.75 -4.7 12.95 L-3.7 12.1 -3.7 11.95 -4.7 12.95 -4.5 12.35 Q-5.5 13.8 -5.55 15.65 -5.6 17.55 -4.6 19.05 -5.55 17.9 -5.9 15.9 -6.3 13.95 -5.85 12.5 L-4.75 10.85 -3.35 9.55 Q-5.1 9.05 -6.35 10.9 L-7.25 12.5 -8.05 13.95 -7.8 13.1 -6.95 11.15 Q-5.4 8.2 -3.5 7.45 L-6.4 7.7 -6.0 7.0 Q-5.25 5.45 -4.0 4.2 L-2.1 2.75 -1.25 2.45 0.55 2.2 Q0.75 0.0 0.35 -1.95 L0.15 -2.85 0.05 -3.05 0.0 -3.05 Q-0.5 -5.65 -1.45 -8.25 L-1.25 -6.1 -1.15 -3.45 -1.1 -3.05 -1.05 -2.85 -0.9 -2.0 Q-0.8 -1.1 -1.05 -0.5 L-2.7 -2.85 -2.8 -3.0 -2.8 -3.05 -2.9 -3.05 Q-3.85 -5.4 -4.7 -6.8 -5.5 -5.6 -4.7 -3.05 L-4.65 -3.05 -4.55 -2.85 -4.5 -2.7 -3.55 -1.2 -2.95 0.1 -5.15 -1.45 -6.65 -2.85 -6.9 -3.05 -7.1 -3.05 -9.1 -5.5 Q-10.15 -7.0 -10.3 -8.5 L-10.15 -5.2 -9.8 -3.05 -9.75 -3.05 -9.7 -2.85 -9.6 -2.55 Q-9.1 -1.5 -8.3 -0.8 L-6.85 0.9 -9.25 0.1 -10.6 -0.8 -8.9 0.75 -6.55 2.6 -8.45 2.25 -10.7 1.9 Q-12.25 1.3 -13.7 0.2 -15.2 -1.0 -15.65 -2.05 L-15.2 -0.4 Q-15.0 0.55 -14.2 1.2 L-11.95 2.75 -10.75 3.65 -11.85 3.5 -13.85 2.75 -15.75 2.25 -15.35 2.75 Q-14.65 3.7 -13.0 4.45 -11.2 5.25 -9.2 5.55 L-10.4 5.95 -11.7 6.4 -13.6 6.55 -15.45 6.65 Q-14.15 7.75 -12.15 8.05 L-8.5 7.85 -9.85 8.5 -11.2 9.0 -12.9 9.3 -14.65 9.3 -11.75 10.0 -8.9 9.8 Q-10.55 10.6 -11.95 11.0 L-15.25 11.5 Q-13.45 12.35 -11.2 12.55 L-8.6 12.4 -8.75 13.4 -9.85 13.95 Q-11.6 14.7 -13.5 14.8 L-11.5 14.95 -9.45 15.1 -8.8 15.1 -8.8 16.0 -9.65 16.15 -14.85 16.0 Q-13.15 18.1 -11.35 19.45 L-8.75 21.0 -9.25 20.8 Q-11.9 19.55 -14.75 16.15 L-15.05 15.8 Q-14.3 17.2 -12.85 18.55 -14.85 17.75 -16.35 14.9 L-17.1 12.85 -17.8 11.65 -18.05 13.25 Q-18.1 15.15 -17.1 16.65 -18.05 15.5 -18.45 13.5 -18.75 11.7 -18.4 10.35 L-19.0 8.7 -19.8 10.1 -20.55 11.55 -20.3 10.7 -19.45 8.75 -19.1 8.2 -19.3 7.35 -19.55 6.2 M7.95 19.9 L8.05 19.85 7.95 19.9 M6.35 11.2 L6.35 10.9 7.3 9.65 Q8.45 8.0 8.8 6.6 8.7 8.25 7.35 10.25 L6.35 11.55 6.35 11.2 M7.75 11.3 L6.45 13.05 5.7 13.45 6.2 12.4 Q8.05 10.9 8.9 9.4 L7.75 11.3 M9.05 11.45 Q10.5 10.25 10.95 8.9 10.45 10.65 8.95 12.35 L6.75 14.2 7.4 12.65 9.05 11.45" fill="#ffffff" fill-opacity="0.0" fill-rule="evenodd" stroke="none"/>
    <path d="M-19.55 6.2 L-19.3 7.35 Q-20.6 8.95 -20.55 11.25 L-20.55 11.55 -19.8 10.1 -19.0 8.7 -18.4 10.35 Q-18.75 11.7 -18.45 13.5 -18.05 15.5 -17.1 16.65 -18.1 15.15 -18.05 13.25 L-17.8 11.65 -17.1 12.85 -16.35 14.9 Q-14.85 17.75 -12.85 18.55 -14.3 17.2 -15.05 15.8 L-14.75 16.15 Q-11.9 19.55 -9.25 20.8 L-9.5 20.85 Q-11.4 21.25 -13.45 20.85 -15.4 20.55 -17.3 19.55 -19.6 18.35 -20.55 16.45 -21.45 14.65 -21.35 11.85 L-21.05 9.7 -20.5 7.65 -20.35 7.35 -19.75 6.4 -19.55 6.2 M-8.75 21.0 L-11.35 19.45 Q-13.15 18.1 -14.85 16.0 L-9.65 16.15 -8.8 16.0 -8.8 15.1 -9.45 15.1 -11.5 14.95 -13.5 14.8 Q-11.6 14.7 -9.85 13.95 L-8.75 13.4 -8.6 12.4 -11.2 12.55 Q-13.45 12.35 -15.25 11.5 L-11.95 11.0 Q-10.55 10.6 -8.9 9.8 L-11.75 10.0 -14.65 9.3 -12.9 9.3 -11.2 9.0 -9.85 8.5 -8.5 7.85 -12.15 8.05 Q-14.15 7.75 -15.45 6.65 L-13.6 6.55 -11.7 6.4 -10.4 5.95 -9.2 5.55 Q-11.2 5.25 -13.0 4.45 -14.65 3.7 -15.35 2.75 L-15.75 2.25 -13.85 2.75 -11.85 3.5 -10.75 3.65 -11.95 2.75 -14.2 1.2 Q-15.0 0.55 -15.2 -0.4 L-15.65 -2.05 Q-15.2 -1.0 -13.7 0.2 -12.25 1.3 -10.7 1.9 L-8.45 2.25 -6.55 2.6 -8.9 0.75 -10.6 -0.8 -9.25 0.1 -6.85 0.9 -8.3 -0.8 Q-9.1 -1.5 -9.6 -2.55 L-9.7 -2.85 -9.75 -3.05 -9.8 -3.05 -10.15 -5.2 -10.3 -8.5 Q-10.15 -7.0 -9.1 -5.5 L-7.1 -3.05 -6.9 -3.05 -6.65 -2.85 -5.15 -1.45 -2.95 0.1 -3.55 -1.2 -4.5 -2.7 -4.55 -2.85 -4.65 -3.05 -4.7 -3.05 Q-5.5 -5.6 -4.7 -6.8 -3.85 -5.4 -2.9 -3.05 L-2.8 -3.05 -2.8 -3.0 -2.7 -2.85 -1.05 -0.5 Q-0.8 -1.1 -0.9 -2.0 L-1.05 -2.85 -1.1 -3.05 -1.15 -3.45 -1.25 -6.1 -1.45 -8.25 Q-0.5 -5.65 0.0 -3.05 L0.05 -3.05 0.15 -2.85 0.35 -1.95 Q0.75 0.0 0.55 2.2 L-1.25 2.45 -2.1 2.75 -4.0 4.2 Q-5.25 5.45 -6.0 7.0 L-6.4 7.7 -3.5 7.45 Q-4.3 7.65 -5.0 8.15 L-5.9 8.75 Q-8.15 10.6 -8.05 13.6 L-8.05 13.95 -7.25 12.5 -6.35 10.9 Q-5.1 9.05 -3.35 9.55 L-4.75 10.85 -5.85 12.5 Q-6.3 13.95 -5.9 15.9 -5.55 17.9 -4.6 19.05 -5.6 17.55 -5.55 15.65 -5.5 13.8 -4.5 12.35 L-4.7 12.95 -3.7 11.95 -3.7 12.1 -4.7 12.95 Q-5.1 14.75 -3.8 17.3 -2.35 20.15 -0.35 20.95 -4.35 17.3 -2.95 12.85 L-2.35 16.0 Q-2.0 17.85 -1.05 18.9 L1.2 20.45 3.7 21.5 1.8 20.3 1.15 19.75 2.05 20.25 Q3.8 21.05 5.5 20.85 L6.9 20.5 7.9 19.95 7.95 19.9 Q8.45 19.7 8.95 19.45 L11.05 18.15 10.4 19.05 8.15 21.1 7.95 21.2 7.5 21.5 7.0 21.8 3.0 23.25 Q1.1 23.65 -0.95 23.25 -2.75 22.9 -4.55 22.05 L-4.75 21.95 -4.9 21.9 -5.05 21.8 -5.55 21.5 -5.65 21.45 -6.05 21.15 -7.1 21.35 -7.6 21.3 -8.45 21.1 -8.65 21.05 -8.75 21.0 M12.5 11.45 Q11.6 13.3 10.1 14.35 8.45 15.5 6.6 15.35 8.55 14.85 10.1 13.35 11.85 11.7 11.8 9.8 11.7 11.5 9.5 12.95 8.2 13.8 6.7 14.35 L6.4 14.8 4.45 16.9 Q3.25 17.8 2.15 17.75 0.85 17.7 -0.15 16.4 -1.25 15.05 -1.8 13.55 -2.6 11.5 -1.7 10.6 L-0.4 12.55 1.2 14.3 Q0.35 13.3 -0.05 12.05 -0.55 10.5 0.2 9.65 -0.4 10.75 0.85 12.1 L2.35 13.05 2.15 12.8 Q1.7 12.15 1.25 10.35 L2.65 10.15 4.05 9.95 2.55 9.45 1.05 9.25 Q1.95 8.85 3.15 8.75 L3.95 8.75 Q3.2 8.3 2.45 8.25 L0.25 8.55 Q-1.3 9.0 -1.45 9.65 -1.05 8.1 0.65 7.25 2.3 6.45 3.85 6.8 1.3 5.8 -2.15 6.7 L-2.35 6.75 Q-1.5 5.4 0.9 4.95 L4.7 5.25 Q3.4 4.2 2.0 3.9 L-0.45 4.1 Q1.4 3.3 2.35 3.05 4.35 2.65 5.65 3.4 L5.75 3.45 5.2 2.75 4.45 2.35 2.75 2.2 1.3 2.15 2.3 1.05 3.15 -0.85 3.8 -2.85 3.85 -3.05 3.9 -3.05 3.9 -3.2 Q4.15 -4.95 4.0 -6.15 L4.75 -3.05 4.8 -3.05 4.9 -2.85 5.0 -2.45 Q5.75 -0.55 5.85 0.75 L5.85 0.8 5.65 2.5 6.8 2.55 7.0 2.6 7.25 2.0 Q7.6 1.05 7.4 -0.55 L7.25 -2.85 7.25 -3.05 7.3 -3.05 7.4 -2.85 8.25 -0.45 Q8.65 1.2 8.35 2.5 9.95 1.6 10.4 -1.6 L10.5 0.25 10.7 2.1 Q11.25 1.5 11.55 0.1 11.85 -1.4 12.3 -2.0 L13.4 -2.85 16.1 -4.3 16.1 -3.75 15.2 -2.95 Q13.5 -1.7 13.15 -0.95 12.65 0.1 12.05 2.4 L11.95 2.75 11.05 4.8 11.85 6.3 11.9 6.4 11.9 6.5 11.95 6.55 11.95 6.65 Q12.65 8.95 12.5 11.0 L12.5 11.45 M9.05 11.45 L7.4 12.65 6.75 14.2 8.95 12.35 Q10.45 10.65 10.95 8.9 10.5 10.25 9.05 11.45 M7.75 11.3 L8.9 9.4 Q8.05 10.9 6.2 12.4 L5.7 13.45 6.45 13.05 7.75 11.3 M6.35 11.2 L6.35 11.55 7.35 10.25 Q8.7 8.25 8.8 6.6 8.45 8.0 7.3 9.65 L6.35 10.9 6.35 11.2 M-6.85 8.35 L-7.0 8.5 -7.95 10.05 -7.2 8.8 -6.85 8.35" fill="#000000" fill-opacity="0.2" fill-rule="evenodd" stroke="none"/>
    <path d="M-19.3 7.35 L-19.1 8.2 -19.45 8.75 -20.3 10.7 -20.55 11.55 -20.55 11.25 Q-20.6 8.95 -19.3 7.35 M-3.5 7.45 Q-5.4 8.2 -6.95 11.15 L-7.8 13.1 -8.05 13.95 -8.05 13.6 Q-8.15 10.6 -5.9 8.75 L-5.0 8.15 Q-4.3 7.65 -3.5 7.45 M1.15 19.75 L-0.55 18.15 Q-1.65 16.65 -1.65 14.9 -1.4 16.05 -0.5 17.2 0.35 18.3 1.35 18.9 2.65 19.65 4.7 20.05 L7.25 20.15 7.9 19.95 6.9 20.5 5.5 20.85 Q3.8 21.05 2.05 20.25 L1.15 19.75 M7.95 19.9 L8.05 19.85 7.95 19.9" fill="#ffffff" fill-opacity="0.2" fill-rule="evenodd" stroke="none"/>
    <path d="M-6.85 8.35 L-7.2 8.8 -7.95 10.05 -7.0 8.5 -6.85 8.35" fill="#945c47" fill-rule="evenodd" stroke="none"/>
    <path d="M16.1 -4.3 L14.45 -8.4 12.75 -10.5 Q11.55 -11.8 10.55 -12.3 7.95 -13.6 5.25 -14.25 L-0.35 -14.75 Q-3.95 -14.5 -7.4 -13.25 -11.3 -11.9 -13.45 -9.8 -16.35 -6.9 -18.05 -3.05 L-19.15 -1.0 Q-19.9 0.9 -19.85 2.75 L-19.55 6.2 -19.75 6.4 -20.35 7.35 -20.5 7.65 -21.05 9.7 -21.35 11.85 Q-21.45 14.65 -20.55 16.45 -19.6 18.35 -17.3 19.55 -15.4 20.55 -13.45 20.85 -11.4 21.25 -9.5 20.85 L-9.25 20.8 -8.75 21.0 -8.65 21.05 -8.45 21.1 -7.6 21.3 -7.1 21.35 -6.05 21.15 -5.65 21.45 -5.55 21.5 -5.05 21.8 -4.9 21.9 -4.75 21.95 -4.55 22.05 Q-2.75 22.9 -0.95 23.25 1.1 23.65 3.0 23.25 L7.0 21.8 7.5 21.5 7.95 21.2 8.15 21.1 10.4 19.05 11.05 18.15 11.6 17.2 12.4 14.9 12.5 12.95 12.5 11.45 12.5 11.0 Q12.65 8.95 11.95 6.65 L11.95 6.55 11.9 6.5 11.9 6.4 11.85 6.3 11.05 4.8 11.95 2.75 12.05 2.4 Q12.65 0.1 13.15 -0.95 13.5 -1.7 15.2 -2.95 L16.1 -3.75 16.1 -4.3 Z" fill="none" stroke="#000000" stroke-linecap="square" stroke-linejoin="round" stroke-opacity="0.6" stroke-width="1.0"/>
  </g>
</svg>
