<?xml version="1.0" encoding="UTF-8" standalone="no"?>
<svg xmlns:xlink="http://www.w3.org/1999/xlink" height="49.85px" width="49.6px" xmlns="http://www.w3.org/2000/svg">
  <g transform="matrix(1.0, 0.0, 0.0, 1.0, 26.8, 14.75)">
    <path d="M-26.15 14.05 Q-26.1 11.7 -24.45 9.9 L-22.8 8.4 -21.1 6.75 Q-20.3 5.9 -19.8 4.4 L-19.15 1.8 -18.35 -1.2 -17.4 -4.1 Q-16.2 -7.25 -13.95 -9.0 -11.65 -10.75 -8.35 -11.95 L-2.25 -13.55 3.45 -14.1 Q6.7 -14.0 9.1 -12.9 13.8 -12.8 16.7 -11.05 18.0 -10.25 18.75 -9.15 L19.6 -8.45 20.45 -7.4 20.65 -5.3 Q20.6 -3.45 20.1 -1.95 19.6 -0.4 18.5 1.25 L16.15 3.95 12.7 6.3 Q10.85 7.25 8.8 7.85 L6.9 8.55 5.2 9.65 Q4.0 10.65 3.5 11.85 3.2 12.7 3.05 14.55 2.7 13.95 2.75 12.8 2.75 11.8 3.05 11.0 1.5 12.55 1.15 13.8 0.75 15.3 1.75 17.25 L2.9 18.65 3.95 20.15 Q4.3 21.15 3.8 21.75 L3.7 21.85 3.75 20.75 Q3.5 22.85 1.2 21.55 L-0.45 20.45 -1.45 19.25 -1.35 19.55 -1.65 19.25 -2.35 18.35 Q-3.55 18.15 -4.45 16.55 -5.15 15.35 -5.45 13.65 L-5.4 12.5 -6.15 12.65 Q-8.55 13.3 -8.65 15.5 -8.75 16.75 -7.6 19.0 -6.45 21.35 -6.45 22.55 L-9.15 22.35 Q-10.5 21.9 -10.95 20.5 L-10.15 23.1 Q-9.45 24.75 -9.65 25.75 L-10.1 24.95 -10.5 24.0 Q-11.35 22.4 -13.05 21.25 L-15.8 19.5 Q-16.95 18.5 -17.25 16.75 -18.05 17.25 -17.85 18.95 -17.65 20.4 -16.95 21.65 L-18.75 19.9 -20.3 17.95 Q-20.9 16.55 -20.95 14.7 -21.0 12.75 -20.3 11.5 -21.15 11.85 -21.5 12.7 -21.75 13.25 -21.8 14.35 L-22.0 15.95 Q-22.2 16.65 -22.85 16.85 -24.5 17.3 -25.3 16.1 -25.95 15.15 -26.05 13.2 L-26.15 14.05 M18.25 -7.0 Q17.2 -4.15 15.75 -1.95 14.05 0.65 11.95 2.15 L10.1 3.3 8.15 4.2 Q6.05 5.2 5.0 5.7 L1.75 6.85 4.1 6.7 6.5 5.95 11.95 4.25 Q15.2 2.95 16.4 1.1 17.4 -0.45 17.9 -2.8 18.35 -4.9 18.25 -7.0 M7.15 -4.2 Q6.3 -3.2 4.65 -2.45 L1.7 -1.3 Q-1.25 -0.1 -3.25 0.55 L-8.3 2.15 Q-10.9 2.8 -12.45 3.8 -14.15 4.9 -15.65 7.0 -16.85 8.7 -17.6 10.55 -15.85 8.35 -13.5 6.6 -11.8 5.3 -9.35 3.95 L-10.7 5.0 -12.4 6.85 -13.7 9.15 -14.2 10.2 Q-12.95 8.35 -11.25 6.8 -9.15 4.95 -6.25 3.55 -5.05 2.95 -2.65 2.05 L1.1 0.6 Q5.5 -1.35 7.15 -4.2 M-10.75 -5.9 Q-12.2 -5.35 -13.7 -4.25 L-16.15 -1.95 Q-17.0 -0.95 -17.65 0.85 L-18.85 3.85 -17.0 1.85 -14.85 0.25 -12.15 -2.05 -9.55 -3.75 Q-10.9 -3.4 -12.5 -2.45 L-15.4 -0.35 -12.9 -3.0 -10.75 -5.9 M-3.05 7.15 L-5.4 7.8 -8.3 8.6 Q-11.8 9.8 -12.3 11.9 -12.75 13.9 -11.65 15.9 -10.6 17.8 -8.75 18.85 L-10.0 15.55 Q-10.55 13.35 -10.0 12.05 -9.3 10.55 -6.9 9.05 L-3.05 7.15" fill="#ffffff" fill-opacity="0.0" fill-rule="evenodd" stroke="none"/>
    <path d="M-26.15 14.05 L-26.05 13.2 Q-25.95 15.15 -25.3 16.1 -24.5 17.3 -22.85 16.85 -22.2 16.65 -22.0 15.95 L-21.8 14.35 Q-21.75 13.25 -21.5 12.7 -21.15 11.85 -20.3 11.5 -21.0 12.75 -20.95 14.7 -20.9 16.55 -20.3 17.95 L-18.75 19.9 -16.95 21.65 Q-17.65 20.4 -17.85 18.95 -18.05 17.25 -17.25 16.75 -16.95 18.5 -15.8 19.5 L-13.05 21.25 Q-11.35 22.4 -10.5 24.0 L-10.1 24.95 -9.65 25.75 Q-9.45 24.75 -10.15 23.1 L-10.95 20.5 Q-10.5 21.9 -9.15 22.35 L-6.45 22.55 Q-6.45 21.35 -7.6 19.0 -8.75 16.75 -8.65 15.5 -8.55 13.3 -6.15 12.65 L-5.4 12.5 -5.45 13.65 Q-5.15 15.35 -4.45 16.55 -3.55 18.15 -2.35 18.35 L-1.65 19.25 -1.35 19.55 -1.45 19.25 -0.45 20.45 1.2 21.55 Q3.5 22.85 3.75 20.75 L3.7 21.85 3.8 21.75 Q4.3 21.15 3.95 20.15 L2.9 18.65 1.75 17.25 Q0.75 15.3 1.15 13.8 1.5 12.55 3.05 11.0 2.75 11.8 2.75 12.8 2.7 13.95 3.05 14.55 3.2 12.7 3.5 11.85 4.0 10.65 5.2 9.65 L6.9 8.55 8.8 7.85 Q10.85 7.25 12.7 6.3 L16.15 3.95 18.5 1.25 Q19.6 -0.4 20.1 -1.95 20.6 -3.45 20.65 -5.3 L20.45 -7.4 20.45 -7.45 20.9 -6.75 21.0 -6.5 21.75 -4.75 Q22.9 -1.15 20.7 2.35 18.95 5.15 15.4 7.6 14.85 7.95 12.6 10.55 10.75 12.65 9.5 12.75 8.65 12.85 7.9 14.25 7.1 15.7 7.3 17.05 8.0 22.1 10.9 21.75 L8.55 22.15 Q7.45 22.0 6.3 21.3 L7.45 22.85 8.45 24.55 Q9.4 26.55 8.0 28.1 L7.5 26.5 Q7.1 25.7 6.4 25.3 7.0 26.5 6.8 27.35 L6.1 29.35 Q5.8 30.25 6.2 31.4 6.65 32.7 7.55 32.75 5.9 33.0 3.8 32.2 L3.35 32.5 2.3 32.6 1.95 32.55 1.4 32.3 0.8 32.0 Q0.0 31.45 -0.65 30.55 -0.7 32.2 -0.9 32.8 -1.25 33.85 -2.45 34.25 L-4.15 34.35 -5.35 33.45 -5.3 33.65 Q-6.6 32.85 -6.55 31.65 L-6.5 30.8 Q-6.65 31.8 -7.15 32.35 -7.8 33.15 -8.95 33.1 L-8.2 31.95 Q-7.7 30.6 -8.85 29.6 -11.0 29.7 -13.35 28.35 L-15.5 26.85 Q-13.75 28.5 -13.45 29.7 -13.2 30.5 -13.65 31.0 -13.3 30.5 -14.7 29.55 -15.8 28.7 -16.25 28.6 L-17.5 28.35 -18.6 28.15 Q-19.8 27.9 -20.4 26.7 L-20.95 25.05 -21.2 23.4 Q-21.5 21.5 -22.65 20.4 L-25.15 17.65 Q-26.2 16.1 -26.15 14.05 M7.15 -4.2 Q5.5 -1.35 1.1 0.6 L-2.65 2.05 Q-5.05 2.95 -6.25 3.55 -9.15 4.95 -11.25 6.8 -12.95 8.35 -14.2 10.2 L-13.7 9.15 -12.4 6.85 -10.7 5.0 -9.35 3.95 Q-11.8 5.3 -13.5 6.6 -15.85 8.35 -17.6 10.55 -16.85 8.7 -15.65 7.0 -14.15 4.9 -12.45 3.8 -10.9 2.8 -8.3 2.15 L-3.25 0.55 Q-1.25 -0.1 1.7 -1.3 L4.65 -2.45 Q6.3 -3.2 7.15 -4.2 M-10.75 -5.9 L-12.9 -3.0 -15.4 -0.35 -12.5 -2.45 Q-10.9 -3.4 -9.55 -3.75 L-12.15 -2.05 -14.85 0.25 -17.0 1.85 -18.85 3.85 -17.65 0.85 Q-17.0 -0.95 -16.15 -1.95 L-13.7 -4.25 Q-12.2 -5.35 -10.75 -5.9 M-3.05 7.15 L-6.9 9.05 Q-9.3 10.55 -10.0 12.05 -10.55 13.35 -10.0 15.55 L-8.75 18.85 Q-10.6 17.8 -11.65 15.9 -12.75 13.9 -12.3 11.9 -11.8 9.8 -8.3 8.6 L-5.4 7.8 -3.05 7.15" fill="#000000" fill-opacity="0.2" fill-rule="evenodd" stroke="none"/>
    <path d="M18.25 -7.0 Q18.35 -4.9 17.9 -2.8 17.4 -0.45 16.4 1.1 15.2 2.95 11.95 4.25 L6.5 5.95 4.1 6.7 1.75 6.85 5.0 5.7 Q6.05 5.2 8.15 4.2 L10.1 3.3 11.95 2.15 Q14.05 0.65 15.75 -1.95 17.2 -4.15 18.25 -7.0" fill="#ffffff" fill-opacity="0.2" fill-rule="evenodd" stroke="none"/>
    <path d="M1.95 32.55 L1.35 32.3 0.8 32.0 1.4 32.3 1.95 32.55" fill="#945c47" fill-rule="evenodd" stroke="none"/>
    <path d="M20.45 -7.4 L19.6 -8.45 18.75 -9.15 Q18.0 -10.25 16.7 -11.05 13.8 -12.8 9.1 -12.9 6.7 -14.0 3.45 -14.1 L-2.25 -13.55 -8.35 -11.95 Q-11.65 -10.75 -13.95 -9.0 -16.2 -7.25 -17.4 -4.1 L-18.35 -1.2 -19.15 1.8 -19.8 4.4 Q-20.3 5.9 -21.1 6.75 L-22.8 8.4 -24.45 9.9 Q-26.1 11.7 -26.15 14.05 -26.2 16.1 -25.15 17.65 L-22.65 20.4 Q-21.5 21.5 -21.2 23.4 L-20.95 25.05 -20.4 26.7 Q-19.8 27.9 -18.6 28.15 L-17.5 28.35 -16.25 28.6 Q-15.8 28.7 -14.7 29.55 -13.3 30.5 -13.65 31.0 M20.45 -7.4 L20.45 -7.45 20.9 -6.75 21.0 -6.5 21.75 -4.75 Q22.9 -1.15 20.7 2.35 18.95 5.15 15.4 7.6 14.85 7.95 12.6 10.55 10.75 12.65 9.5 12.75 8.65 12.85 7.9 14.25 7.1 15.7 7.3 17.05 M6.3 21.3 L7.45 22.85 8.45 24.55 Q9.4 26.55 8.0 28.1 M6.4 25.3 Q7.0 26.5 6.8 27.35 L6.1 29.35 Q5.8 30.25 6.2 31.4 6.65 32.7 7.55 32.75 5.9 33.0 3.8 32.2 L3.35 32.5 2.3 32.6 1.95 32.55 1.4 32.3 0.8 32.0 Q0.0 31.45 -0.65 30.55 -0.7 32.2 -0.9 32.8 -1.25 33.85 -2.45 34.25 L-4.15 34.35 -5.35 33.45 -5.3 33.65 Q-6.6 32.85 -6.55 31.65 L-6.5 30.8 M-8.85 29.6 Q-11.0 29.7 -13.35 28.35 L-15.5 26.85" fill="none" stroke="#000000" stroke-linecap="square" stroke-linejoin="round" stroke-opacity="0.6" stroke-width="1.0"/>
    <path d="M7.3 17.05 Q8.0 22.1 10.9 21.75 L8.55 22.15 Q7.45 22.0 6.3 21.3 M8.0 28.1 L7.5 26.5 Q7.1 25.7 6.4 25.3 M-6.5 30.8 Q-6.65 31.8 -7.15 32.35 -7.8 33.15 -8.95 33.1 L-8.2 31.95 Q-7.7 30.6 -8.85 29.6 M-15.5 26.85 Q-13.75 28.5 -13.45 29.7 -13.2 30.5 -13.65 31.0" fill="none" stroke="#000000" stroke-linecap="square" stroke-linejoin="round" stroke-opacity="0.4" stroke-width="1.0"/>
    <path d="M8.35 32.55 L7.55 32.75 8.35 32.55" fill="#945c47" fill-rule="evenodd" stroke="none"/>
    <path d="M3.7 20.95 L3.75 20.75 3.75 20.95 3.7 20.95" fill="#7a4a38" fill-rule="evenodd" stroke="none"/>
  </g>
</svg>
