<?xml version="1.0" encoding="UTF-8" standalone="no"?>
<svg xmlns:xlink="http://www.w3.org/1999/xlink" height="52.8px" width="46.25px" xmlns="http://www.w3.org/2000/svg">
  <g transform="matrix(1.0, 0.0, 0.0, 1.0, 23.9, 18.25)">
    <path d="M-22.4 16.1 Q-23.0 12.9 -23.2 9.5 -23.5 3.15 -22.05 -2.05 -20.45 -7.95 -16.75 -11.5 -10.9 -17.1 -3.3 -17.55 1.2 -17.85 5.15 -16.4 L8.2 -16.05 8.8 -15.95 10.3 -15.45 Q12.8 -14.5 14.95 -12.65 21.65 -6.85 21.7 5.4 L21.5 5.4 Q21.2 -2.1 17.7 -7.85 16.6 -9.7 15.3 -11.1 L14.25 -12.15 Q17.15 -8.85 18.7 -3.15 19.75 0.8 20.1 5.4 L20.0 5.4 Q19.65 -1.85 16.6 -7.95 L14.6 -11.3 13.8 -12.3 Q16.15 -9.15 17.95 -2.9 19.1 1.0 19.85 5.4 L16.45 5.45 Q16.45 1.25 15.65 -2.85 16.2 0.55 15.95 5.5 L14.9 5.55 Q15.4 2.1 14.9 -1.5 14.2 -7.05 11.3 -11.5 L11.9 -10.25 13.15 -6.8 Q14.95 -0.85 14.75 5.55 L11.65 5.75 Q10.5 12.45 11.05 18.05 11.55 23.55 13.75 27.5 11.65 24.8 10.3 21.9 L10.15 21.6 Q8.55 18.2 8.25 15.1 L8.4 17.6 9.1 21.75 Q8.1 18.05 7.65 13.1 7.4 10.95 7.3 8.55 7.1 4.4 7.2 -0.05 L7.35 -3.6 Q5.05 6.05 5.25 13.1 L5.6 17.05 Q5.45 20.1 6.15 22.6 L4.85 18.9 Q3.85 15.6 3.65 13.1 L3.55 11.6 3.2 12.35 2.95 13.1 2.5 14.55 Q1.55 18.35 2.15 22.6 L0.65 20.0 Q-0.75 17.1 -0.85 14.4 L-0.8 17.15 Q-0.65 20.7 -0.05 22.6 L-1.2 21.0 Q-2.5 18.95 -3.35 16.6 L-2.65 21.5 -2.65 21.55 Q-4.9 18.4 -6.1 13.1 L-6.4 11.8 -7.2 6.55 -7.35 4.35 Q-7.8 7.3 -7.55 10.05 L-7.95 7.65 -8.3 2.0 -8.2 -0.2 Q-9.4 7.25 -8.05 13.1 -7.4 15.95 -6.1 18.4 -4.9 20.75 -3.25 22.45 L-2.15 23.45 -1.25 26.6 -4.6 22.9 -6.35 20.55 Q-7.8 18.0 -8.6 15.15 L-9.05 13.1 -9.35 11.35 -9.2 13.1 Q-8.75 18.05 -7.2 21.4 L-7.2 21.8 Q-8.9 19.4 -10.75 14.35 L-12.2 9.8 Q-12.5 11.05 -12.45 13.1 L-12.3 16.15 -11.85 20.0 -12.6 18.05 -14.05 12.45 -15.1 7.2 Q-15.7 10.55 -15.1 16.6 L-14.35 22.0 -16.25 17.6 -17.6 14.4 Q-17.6 16.5 -17.05 19.15 L-16.45 21.4 Q-17.9 18.9 -19.35 14.1 L-20.5 9.8 Q-21.35 12.15 -21.0 17.4 L-20.5 22.2 Q-21.35 20.7 -22.05 16.4 L-22.6 12.4 -22.6 14.85 -22.4 16.1 M2.75 -13.65 Q1.1 -12.65 -0.25 -10.35 -1.55 -8.2 -2.2 -5.65 -1.55 -5.85 -0.5 -7.25 L1.0 -9.4 Q1.2 -8.3 0.7 -5.85 0.15 -3.1 0.2 -2.05 L0.85 -3.9 1.55 -5.6 2.7 -7.6 3.75 -9.4 3.3 -6.25 Q3.1 -4.45 3.2 -3.0 4.1 -3.95 4.6 -6.65 L5.0 -10.75 Q5.2 -12.75 5.0 -13.25 4.85 -13.65 4.35 -13.1 L3.3 -11.65 2.2 -10.4 2.5 -12.05 2.75 -13.65 M-8.2 -12.2 Q-7.8 -12.8 -7.8 -13.15 -7.85 -12.8 -9.95 -11.8 -12.1 -10.85 -12.6 -10.9 L-12.15 -12.15 Q-11.6 -13.0 -11.55 -13.4 -13.5 -13.2 -15.1 -11.4 -16.4 -10.0 -17.4 -7.75 L-17.8 -6.5 -18.0 -5.2 Q-17.95 -5.0 -16.25 -6.95 L-15.3 -7.95 Q-14.75 -8.45 -14.05 -8.5 -14.7 -6.35 -15.9 -3.5 L-14.1 -6.6 Q-12.8 -8.65 -11.75 -8.9 L-11.75 -7.9 -11.7 -6.95 -10.8 -7.85 -9.85 -8.7 -10.4 -6.85 -10.55 -4.95 Q-10.6 -5.35 -9.5 -6.3 -8.45 -7.3 -8.0 -7.25 -8.55 -6.7 -8.8 -5.5 L-9.05 -3.55 -9.1 -1.7 -9.3 -0.1 Q-6.95 -5.55 -5.8 -7.5 -3.4 -11.6 -0.45 -13.15 -1.25 -12.75 -2.95 -12.1 L-5.55 -10.9 -5.45 -11.65 -5.2 -12.4 -6.95 -11.85 -8.65 -11.2 -8.2 -12.2 M-15.4 26.75 Q-14.15 28.85 -13.1 29.95 L-12.6 30.55 -12.45 30.75 -12.6 30.8 -14.2 30.45 -13.95 30.4 -16.25 26.55 Q-18.35 22.7 -19.0 20.1 -18.25 22.7 -15.5 26.7 L-15.2 27.15 -15.4 26.75 M-4.65 18.9 L-2.55 21.9 -2.25 23.1 -4.65 18.9" fill="#ffffff" fill-opacity="0.0" fill-rule="evenodd" stroke="none"/>
    <path d="M-7.55 10.05 Q-7.8 7.3 -7.35 4.35 L-7.2 6.55 -6.4 11.8 -6.1 13.1 Q-4.9 18.4 -2.65 21.55 L-2.6 21.6 -2.55 21.9 -4.65 18.9 -4.9 18.5 Q-6.35 15.85 -7.05 13.1 L-7.55 10.05 M19.85 5.4 Q19.1 1.0 17.95 -2.9 16.15 -9.15 13.8 -12.3 L14.6 -11.3 16.6 -7.95 Q19.65 -1.85 20.0 5.4 L19.85 5.4 M2.75 -13.65 L2.5 -12.05 2.2 -10.4 3.3 -11.65 4.35 -13.1 Q4.85 -13.65 5.0 -13.25 5.2 -12.75 5.0 -10.75 L4.6 -6.65 Q4.1 -3.95 3.2 -3.0 3.1 -4.45 3.3 -6.25 L3.75 -9.4 2.7 -7.6 1.55 -5.6 0.85 -3.9 0.2 -2.05 Q0.15 -3.1 0.7 -5.85 1.2 -8.3 1.0 -9.4 L-0.5 -7.25 Q-1.55 -5.85 -2.2 -5.65 -1.55 -8.2 -0.25 -10.35 1.1 -12.65 2.75 -13.65 M-8.2 -12.2 L-8.65 -11.2 -6.95 -11.85 -5.2 -12.4 -5.45 -11.65 -5.55 -10.9 -2.95 -12.1 Q-1.25 -12.75 -0.45 -13.15 -3.4 -11.6 -5.8 -7.5 -6.95 -5.55 -9.3 -0.1 L-9.1 -1.7 -9.05 -3.55 -8.8 -5.5 Q-8.55 -6.7 -8.0 -7.25 -8.45 -7.3 -9.5 -6.3 -10.6 -5.35 -10.55 -4.95 L-10.4 -6.85 -9.85 -8.7 -10.8 -7.85 -11.7 -6.95 -11.75 -7.9 -11.75 -8.9 Q-12.8 -8.65 -14.1 -6.6 L-15.9 -3.5 Q-14.7 -6.35 -14.05 -8.5 -14.75 -8.45 -15.3 -7.95 L-16.25 -6.95 Q-17.95 -5.0 -18.0 -5.2 L-17.8 -6.5 -17.4 -7.75 Q-16.4 -10.0 -15.1 -11.4 -13.5 -13.2 -11.55 -13.4 -11.6 -13.0 -12.15 -12.15 L-12.6 -10.9 Q-12.1 -10.85 -9.95 -11.8 -7.85 -12.8 -7.8 -13.15 -7.8 -12.8 -8.2 -12.2" fill="#ffffff" fill-opacity="0.2" fill-rule="evenodd" stroke="none"/>
    <path d="M-22.4 16.1 L-22.6 14.85 -22.6 12.4 -22.05 16.4 Q-21.35 20.7 -20.5 22.2 L-21.0 17.4 Q-21.35 12.15 -20.5 9.8 L-19.35 14.1 Q-17.9 18.9 -16.45 21.4 L-17.05 19.15 Q-17.6 16.5 -17.6 14.4 L-16.25 17.6 -14.35 22.0 -15.1 16.6 Q-15.7 10.55 -15.1 7.2 L-14.05 12.45 -12.6 18.05 -11.85 20.0 -12.3 16.15 -12.45 13.1 Q-12.5 11.05 -12.2 9.8 L-10.75 14.35 Q-8.9 19.4 -7.2 21.8 L-7.2 21.4 Q-8.75 18.05 -9.2 13.1 L-9.35 11.35 -9.05 13.1 -8.6 15.15 Q-7.8 18.0 -6.35 20.55 L-4.6 22.9 -1.25 26.6 -2.15 23.45 -3.25 22.45 Q-4.9 20.75 -6.1 18.4 -7.4 15.95 -8.05 13.1 -9.4 7.25 -8.2 -0.2 L-8.3 2.0 -7.95 7.65 -7.55 10.05 -7.05 13.1 Q-6.35 15.85 -4.9 18.5 L-4.65 18.9 -2.25 23.1 -2.55 21.9 -2.6 21.6 -2.65 21.55 -2.65 21.5 -3.35 16.6 Q-2.5 18.95 -1.2 21.0 L-0.05 22.6 Q-0.65 20.7 -0.8 17.15 L-0.85 14.4 Q-0.75 17.1 0.65 20.0 L2.15 22.6 Q1.55 18.35 2.5 14.55 L2.95 13.1 3.2 12.35 3.55 11.6 3.65 13.1 Q3.85 15.6 4.85 18.9 L6.15 22.6 Q5.45 20.1 5.6 17.05 L5.25 13.1 Q5.05 6.05 7.35 -3.6 L7.2 -0.05 Q7.1 4.4 7.3 8.55 7.4 10.95 7.65 13.1 8.1 18.05 9.1 21.75 L8.4 17.6 8.25 15.1 Q8.55 18.2 10.15 21.6 L10.3 21.9 Q11.65 24.8 13.75 27.5 L14.0 27.95 14.45 28.65 15.25 29.75 14.0 28.2 13.65 27.75 12.7 26.45 11.1 23.85 12.2 26.8 Q13.65 30.25 14.75 31.4 L12.4 31.8 10.15 32.0 9.15 31.8 Q8.45 31.45 7.25 28.6 L5.15 23.6 5.8 26.4 Q6.7 29.55 7.95 31.2 L6.45 31.5 6.0 31.55 5.05 31.5 3.8 31.3 3.6 31.25 3.15 31.1 3.05 31.05 3.15 31.2 3.6 31.8 3.95 32.25 4.5 32.9 4.8 33.25 3.6 32.35 3.15 31.8 2.9 31.55 2.85 31.5 2.25 30.65 2.2 30.65 1.8 30.4 1.75 30.4 3.05 33.25 2.85 33.2 2.2 32.9 1.55 32.55 1.25 32.35 0.05 31.45 -0.45 30.95 -2.65 28.15 -2.1 29.45 -0.05 32.5 0.05 32.65 1.0 33.9 0.05 33.0 -1.35 31.6 -6.25 31.2 Q-7.35 30.95 -9.0 25.65 L-10.5 20.4 Q-10.5 23.0 -8.75 27.35 L-7.0 31.2 -8.85 31.45 Q-10.25 31.0 -12.25 24.65 L-12.6 23.45 -13.45 20.35 -13.95 18.4 Q-13.85 21.05 -12.6 25.0 L-12.15 26.35 -10.5 30.6 -12.05 30.8 -12.6 30.4 -13.1 29.95 Q-14.15 28.85 -15.4 26.75 L-16.75 24.4 -18.45 20.9 -19.15 19.4 -19.0 20.1 Q-18.35 22.7 -16.25 26.55 L-13.95 30.4 -14.2 30.45 -15.35 29.85 -15.65 29.65 -16.3 29.15 -16.65 28.9 -16.7 28.85 -17.8 27.8 Q-18.85 26.55 -19.7 24.7 L-19.8 24.55 -20.0 24.1 -20.4 23.15 -20.65 22.5 -21.55 19.6 -22.4 16.1 M14.75 5.55 Q14.95 -0.85 13.15 -6.8 L11.9 -10.25 11.3 -11.5 Q14.2 -7.05 14.9 -1.5 15.4 2.1 14.9 5.55 L14.75 5.55 M20.1 5.4 Q19.75 0.8 18.7 -3.15 17.15 -8.85 14.25 -12.15 L15.3 -11.1 Q16.6 -9.7 17.7 -7.85 21.2 -2.1 21.5 5.4 L20.1 5.4" fill="#000000" fill-opacity="0.2" fill-rule="evenodd" stroke="none"/>
    <path d="M-16.7 28.85 L-17.3 28.3 -17.8 27.8 -16.7 28.85" fill="#945c47" fill-rule="evenodd" stroke="none"/>
    <path d="M21.5 5.4 L21.7 5.4 Q21.65 -6.85 14.95 -12.65 12.8 -14.5 10.3 -15.45 L8.8 -15.95 8.2 -16.05 5.15 -16.4 Q1.2 -17.85 -3.3 -17.55 -10.9 -17.1 -16.75 -11.5 -20.45 -7.95 -22.05 -2.05 -23.5 3.15 -23.2 9.5 -23.0 12.9 -22.4 16.1 M13.75 27.5 Q11.55 23.55 11.05 18.05 10.5 12.45 11.65 5.75 L14.75 5.55 M-13.1 29.95 L-12.6 30.55 -12.45 30.75 -12.6 30.8 -14.2 30.45 M-17.8 27.8 L-16.7 28.85" fill="none" stroke="#000000" stroke-linecap="square" stroke-linejoin="round" stroke-opacity="0.6" stroke-width="1.0"/>
    <path d="M14.9 5.55 L15.95 5.5 Q16.2 0.55 15.65 -2.85 16.45 1.25 16.45 5.45 L19.85 5.4 20.0 5.4 20.1 5.4 21.5 5.4 M-13.1 29.95 L-12.6 30.4 -12.05 30.8 -10.5 30.6 -12.15 26.35 -12.6 25.0 Q-13.85 21.05 -13.95 18.4 L-13.45 20.35 -12.6 23.45 -12.25 24.65 Q-10.25 31.0 -8.85 31.45 L-7.0 31.2 -8.75 27.35 Q-10.5 23.0 -10.5 20.4 L-9.0 25.65 Q-7.35 30.95 -6.25 31.2 L-1.35 31.6 0.05 33.0 1.0 33.9 0.05 32.65 -0.05 32.5 -2.1 29.45 -2.65 28.15 -0.45 30.95 0.05 31.45 1.25 32.35 1.55 32.55 2.2 32.9 2.85 33.2 3.05 33.25 1.75 30.4 1.8 30.4 2.2 30.65 2.25 30.65 2.85 31.5 2.9 31.55 3.15 31.8 3.6 32.35 4.8 33.25 4.5 32.9 3.95 32.25 3.6 31.8 3.15 31.2 3.05 31.05 3.15 31.1 3.6 31.25 3.8 31.3 5.05 31.5 6.0 31.55 6.45 31.5 7.95 31.2 Q6.7 29.55 5.8 26.4 L5.15 23.6 7.25 28.6 Q8.45 31.45 9.15 31.8 L10.15 32.0 12.4 31.8 14.75 31.4 Q13.65 30.25 12.2 26.8 L11.1 23.85 12.7 26.45 13.65 27.75 14.0 28.2 15.25 29.75 14.45 28.65 14.0 27.95 13.75 27.5 M-19.0 20.1 L-19.15 19.4 -18.45 20.9 -16.75 24.4 -15.4 26.75 -15.2 27.15 -15.5 26.7 Q-18.25 22.7 -19.0 20.1 M-14.2 30.45 L-15.35 29.85 -15.65 29.65 -16.3 29.15 -16.65 28.9 -16.7 28.85 M-17.8 27.8 Q-18.85 26.55 -19.7 24.7 L-19.8 24.55 -20.0 24.1 -20.4 23.15 -20.65 22.5 -21.55 19.6 -22.4 16.1" fill="none" stroke="#000000" stroke-linecap="square" stroke-linejoin="round" stroke-opacity="0.4" stroke-width="1.0"/>
  </g>
</svg>
