<?xml version="1.0" encoding="UTF-8" standalone="no"?>
<svg xmlns:xlink="http://www.w3.org/1999/xlink" height="43.7px" width="44.85px" xmlns="http://www.w3.org/2000/svg">
  <g transform="matrix(1.0, 0.0, 0.0, 1.0, 24.3, 14.15)">
    <path d="M1.75 -5.1 Q-2.95 -3.45 -4.95 3.45 -4.0 1.5 -2.15 -0.6 1.55 -4.75 6.05 -5.35 L1.75 -5.1 M11.75 -0.85 L10.15 1.25 9.55 2.2 9.4 2.4 9.4 2.55 8.55 3.4 Q7.35 4.55 6.05 5.1 L4.05 5.7 Q2.8 6.05 2.2 6.45 1.6 6.85 0.75 7.95 L-0.5 9.6 Q0.5 8.5 3.3 7.7 L7.55 6.6 Q8.6 6.25 9.4 5.7 L9.4 5.6 9.55 5.45 9.95 4.9 11.1 2.5 12.15 0.0 Q12.85 -1.4 13.85 -2.15 12.7 -1.85 11.75 -0.85 M18.15 -0.15 Q17.85 1.25 17.05 2.45 14.9 5.75 9.55 6.6 L9.4 6.6 9.4 6.65 8.55 6.7 9.4 6.65 9.55 6.65 9.95 6.6 13.6 5.8 Q18.85 3.85 18.3 -1.25 L18.15 -0.15 M-23.6 15.6 L-23.6 15.5 -23.4 14.95 -23.0 14.2 -22.4 13.4 -22.2 13.2 -19.75 10.85 Q-18.75 9.7 -18.1 7.95 L-17.2 4.65 Q-18.35 5.4 -19.25 6.8 L-19.95 8.05 -17.3 1.6 -15.95 -0.95 Q-15.4 -1.8 -14.8 -3.95 -14.2 -6.1 -11.15 -9.25 -8.15 -12.45 -3.3 -13.05 L4.6 -13.45 Q7.65 -13.2 11.4 -11.05 15.15 -8.95 16.45 -6.75 L18.1 -4.15 18.9 -3.3 19.6 -2.35 Q20.6 0.9 18.05 4.45 L18.6 3.6 Q17.6 5.0 15.9 5.75 L12.65 6.6 9.55 7.0 9.4 7.0 9.3 7.0 Q6.7 7.3 5.1 7.85 L9.4 7.85 9.55 7.85 10.9 7.85 9.55 8.15 9.4 8.2 9.4 8.25 Q5.25 9.15 1.85 11.35 L5.2 10.5 8.55 9.9 3.65 12.15 Q1.5 12.9 -0.75 13.05 L2.45 12.8 6.45 12.1 Q7.25 11.6 8.0 11.8 L4.8 13.4 Q2.35 14.4 1.1 15.0 L7.75 14.35 7.45 15.0 6.1 17.25 4.95 18.95 3.8 20.55 2.55 21.5 1.1 22.45 Q-0.6 23.65 -0.55 24.8 -0.65 23.4 0.0 22.4 L1.85 20.45 Q2.7 19.5 2.5 18.6 2.0 17.5 1.85 16.7 L1.6 18.55 0.25 20.05 -1.6 22.0 -2.85 24.25 -3.15 23.15 -3.2 22.05 -3.8 23.9 -4.4 25.75 -4.8 23.0 Q-4.95 21.4 -4.75 20.2 -4.55 19.25 -3.45 17.75 L-2.5 16.3 -2.45 16.15 -2.4 16.15 -2.05 15.05 -2.8 16.15 -2.9 16.15 -3.05 16.3 -4.95 17.95 Q-5.7 18.6 -6.0 19.45 L-6.65 21.1 Q-7.0 20.6 -6.85 19.6 -6.7 18.6 -6.9 18.2 -8.0 20.15 -8.4 21.85 -9.0 19.45 -8.4 17.65 L-7.8 16.3 -7.7 16.15 -7.6 16.15 Q-6.9 14.65 -5.7 13.4 L-5.6 13.3 -5.75 13.4 Q-8.2 14.8 -9.9 16.15 L-10.05 16.15 -10.3 16.3 -11.1 16.8 -11.8 18.05 -10.5 16.75 -9.8 16.3 -9.6 16.15 -9.45 16.15 -9.6 16.3 Q-10.3 17.0 -10.6 18.05 -11.45 18.8 -11.6 20.1 L-11.75 22.55 Q-12.5 22.1 -12.65 20.9 L-12.9 19.1 -13.2 20.85 -13.1 22.7 Q-15.2 19.65 -14.2 16.3 L-14.15 16.15 -14.1 16.15 -13.4 13.4 -12.95 11.3 Q-12.4 8.25 -13.1 6.3 -13.25 8.5 -13.8 10.45 -14.3 12.1 -14.95 13.4 L-15.5 14.25 -16.55 15.5 -17.0 16.15 -17.05 16.15 -17.15 16.3 -17.35 16.65 -17.3 18.05 Q-17.05 19.05 -17.15 19.5 L-17.8 18.35 -18.15 17.1 Q-18.6 17.6 -18.8 18.65 L-19.05 20.2 Q-19.3 18.05 -19.0 16.3 L-19.0 16.15 -18.95 16.15 -18.75 14.8 -18.4 13.4 Q-17.55 10.65 -15.85 8.35 -16.75 9.5 -18.7 10.9 L-21.9 13.3 -22.0 13.4 -22.85 14.35 -23.35 15.05 -23.35 15.25 -23.6 15.75 -23.6 15.6 -23.6 15.75 -23.65 15.8 -23.6 15.6 M9.25 14.45 L8.8 17.5 8.0 18.85 8.0 17.9 7.5 19.2 6.35 20.65 Q5.45 21.55 5.4 22.2 5.45 19.8 6.55 17.7 L9.25 14.45 M4.0 0.05 L6.05 -2.1 1.9 1.2 -2.0 4.65 Q-5.95 8.7 -7.35 13.4 L-7.4 13.6 -7.25 13.4 Q-6.1 11.7 -4.2 10.0 -2.7 8.65 -0.4 7.05 L2.95 3.85 Q4.9 1.75 6.2 1.0 L2.15 3.85 Q-0.45 5.9 -2.1 6.65 -1.2 4.6 1.7 2.1 L4.0 0.05 M-9.2 16.0 L-9.3 16.15 -9.4 16.15 -8.95 15.75 -9.2 16.0" fill="#ffffff" fill-opacity="0.0" fill-rule="evenodd" stroke="none"/>
    <path d="M11.75 -0.85 Q12.7 -1.85 13.85 -2.15 12.85 -1.4 12.15 0.0 L11.1 2.5 9.95 4.9 9.55 5.45 9.4 5.6 9.4 5.7 Q8.6 6.25 7.55 6.6 L3.3 7.7 Q0.5 8.5 -0.5 9.6 L0.75 7.95 Q1.6 6.85 2.2 6.45 2.8 6.05 4.05 5.7 L6.05 5.1 Q7.35 4.55 8.55 3.4 L9.4 2.55 9.4 2.4 9.55 2.2 10.15 1.25 11.75 -0.85 M-23.35 15.25 L-23.35 15.05 -22.85 14.35 -22.0 13.4 -21.9 13.3 -18.7 10.9 Q-16.75 9.5 -15.85 8.35 -17.55 10.65 -18.4 13.4 L-18.75 14.8 -18.95 16.15 -19.0 16.15 -19.0 16.3 Q-19.3 18.05 -19.05 20.2 L-18.8 18.65 Q-18.6 17.6 -18.15 17.1 L-17.8 18.35 -17.15 19.5 Q-17.05 19.05 -17.3 18.05 L-17.35 16.65 -17.15 16.3 -17.05 16.15 -17.0 16.15 -16.55 15.5 -15.5 14.25 -14.95 13.4 Q-14.3 12.1 -13.8 10.45 -13.25 8.5 -13.1 6.3 -12.4 8.25 -12.95 11.3 L-13.4 13.4 -14.1 16.15 -14.15 16.15 -14.2 16.3 Q-15.2 19.65 -13.1 22.7 L-13.2 20.85 -12.9 19.1 -12.65 20.9 Q-12.5 22.1 -11.75 22.55 L-11.6 20.1 Q-11.45 18.8 -10.6 18.05 -10.3 17.0 -9.6 16.3 L-9.45 16.15 -9.6 16.15 -9.8 16.3 -10.5 16.75 -11.8 18.05 -11.1 16.8 -10.3 16.3 -10.05 16.15 -9.9 16.15 Q-8.2 14.8 -5.75 13.4 L-5.6 13.3 -5.7 13.4 Q-6.9 14.65 -7.6 16.15 L-7.7 16.15 -7.8 16.3 -8.4 17.65 Q-9.0 19.45 -8.4 21.85 -8.0 20.15 -6.9 18.2 -6.7 18.6 -6.85 19.6 -7.0 20.6 -6.65 21.1 L-6.0 19.45 Q-5.7 18.6 -4.95 17.95 L-3.05 16.3 -2.9 16.15 -2.8 16.15 -2.05 15.05 -2.4 16.15 -2.45 16.15 -2.5 16.3 -3.45 17.75 Q-4.55 19.25 -4.75 20.2 -4.95 21.4 -4.8 23.0 L-4.4 25.75 -3.8 23.9 -3.2 22.05 -3.15 23.15 -2.85 24.25 -1.6 22.0 0.25 20.05 1.6 18.55 1.85 16.7 Q2.0 17.5 2.5 18.6 2.7 19.5 1.85 20.45 L0.0 22.4 Q-0.65 23.4 -0.55 24.8 -0.6 23.65 1.1 22.45 L2.55 21.5 3.8 20.55 4.95 18.95 6.1 17.25 7.45 15.0 7.75 14.35 1.1 15.0 Q2.35 14.4 4.8 13.4 L8.0 11.8 Q7.25 11.6 6.45 12.1 L2.45 12.8 -0.75 13.05 Q1.5 12.9 3.65 12.15 L8.55 9.9 5.2 10.5 1.85 11.35 Q5.25 9.15 9.4 8.25 L9.4 8.2 9.55 8.15 10.9 7.85 9.55 7.85 9.4 7.85 5.1 7.85 Q6.7 7.3 9.3 7.0 L9.4 7.0 9.55 7.0 12.65 6.6 15.9 5.75 Q17.6 5.0 18.6 3.6 L18.05 4.45 17.85 4.7 16.75 6.0 15.65 7.25 14.55 8.75 14.45 8.9 13.75 9.8 13.4 10.15 13.35 10.25 11.65 11.65 Q11.05 12.65 9.5 12.85 L9.25 14.45 6.55 17.7 Q5.45 19.8 5.4 22.2 5.45 21.55 6.35 20.65 L7.5 19.2 8.0 17.9 8.0 18.85 8.8 17.5 7.85 23.6 6.9 25.8 5.7 27.9 5.6 26.25 5.25 24.6 3.5 26.25 Q2.2 27.2 1.85 27.9 L2.0 26.7 2.0 25.55 Q1.15 25.95 0.3 26.85 L-0.95 28.35 -1.4 27.4 -1.75 26.4 -2.7 27.6 -3.4 28.9 -4.25 28.0 -5.15 26.95 -5.15 27.65 -5.15 28.3 Q-5.5 27.75 -6.3 27.3 L-7.75 26.55 Q-9.7 25.65 -9.95 24.6 L-9.8 25.85 -9.4 27.05 -10.85 26.05 -12.2 24.85 -13.6 23.95 -14.9 23.0 -14.5 24.1 -13.55 25.1 Q-15.6 25.05 -17.45 23.4 -19.05 22.0 -19.55 20.35 L-19.9 21.6 -19.8 22.85 Q-21.1 22.2 -21.6 20.75 -21.95 19.75 -21.95 18.2 L-21.8 17.05 -21.5 16.15 -21.45 16.15 -21.35 15.85 -20.55 14.7 Q-20.1 14.1 -20.1 13.4 L-20.1 13.3 -21.1 13.4 Q-21.75 13.6 -22.4 14.1 L-22.6 14.3 -22.85 14.55 -23.0 14.7 -23.2 15.0 -23.35 15.25 M4.0 0.05 L1.7 2.1 Q-1.2 4.6 -2.1 6.65 -0.45 5.9 2.15 3.85 L6.2 1.0 Q4.9 1.75 2.95 3.85 L-0.4 7.05 Q-2.7 8.65 -4.2 10.0 -6.1 11.7 -7.25 13.4 L-7.4 13.6 -7.35 13.4 Q-5.95 8.7 -2.0 4.65 L1.9 1.2 6.05 -2.1 4.0 0.05 M8.1 11.8 L8.0 11.8 8.2 11.85 8.1 11.8 8.15 11.8 8.2 11.75 8.1 11.8 M-9.2 16.0 L-8.95 15.75 -9.4 16.15 -9.3 16.15 -9.2 16.0" fill="#000000" fill-opacity="0.2" fill-rule="evenodd" stroke="none"/>
    <path d="M1.75 -5.1 L6.05 -5.35 Q1.55 -4.75 -2.15 -0.6 -4.0 1.5 -4.95 3.45 -2.95 -3.45 1.75 -5.1 M18.15 -0.15 L18.3 -1.25 Q18.85 3.85 13.6 5.8 L9.95 6.6 9.55 6.65 9.4 6.65 8.55 6.7 9.4 6.65 9.4 6.6 9.55 6.6 Q14.9 5.75 17.05 2.45 17.85 1.25 18.15 -0.15" fill="#ffffff" fill-opacity="0.2" fill-rule="evenodd" stroke="none"/>
    <path d="M8.1 11.8 L8.2 11.75 8.15 11.8 8.1 11.8" fill="#945c47" fill-rule="evenodd" stroke="none"/>
    <path d="M-23.6 15.6 L-23.6 15.75 -23.35 15.25 -23.2 15.0 -23.0 14.7 -22.85 14.55 -22.6 14.3 -22.4 14.1 Q-21.75 13.6 -21.1 13.4 L-20.1 13.3 -20.1 13.4 Q-20.1 14.1 -20.55 14.7 L-21.35 15.85 -21.45 16.15 M18.6 3.6 L18.05 4.45 17.85 4.7 16.75 6.0 15.65 7.25 14.55 8.75 14.45 8.9 13.75 9.8 13.4 10.15 13.35 10.25 11.65 11.65 Q11.05 12.65 9.5 12.85 L9.25 14.45 8.8 17.5 7.85 23.6 6.9 25.8 5.7 27.9 5.6 26.25 5.25 24.6 3.5 26.25 Q2.2 27.2 1.85 27.9 L2.0 26.7 2.0 25.55 Q1.15 25.95 0.3 26.85 L-0.95 28.35 -1.4 27.4 -1.75 26.4 -2.7 27.6 -3.4 28.9 -4.25 28.0 -5.15 26.95 -5.15 27.65 -5.15 28.3 Q-5.5 27.75 -6.3 27.3 L-7.75 26.55 Q-9.7 25.65 -9.95 24.6 L-9.8 25.85 -9.4 27.05 -10.85 26.05 -12.2 24.85 -13.6 23.95 -14.9 23.0 -14.5 24.1 -13.55 25.1 Q-15.6 25.05 -17.45 23.4 -19.05 22.0 -19.55 20.35 L-19.9 21.6 -19.8 22.85 Q-21.1 22.2 -21.6 20.75 -21.95 19.75 -21.95 18.2 L-21.8 17.05 -21.5 16.15 M-23.65 15.8 L-23.6 15.75" fill="none" stroke="#000000" stroke-linecap="square" stroke-linejoin="round" stroke-opacity="0.4" stroke-width="1.0"/>
    <path d="M18.05 4.45 Q20.6 0.9 19.6 -2.35 L18.9 -3.3 18.1 -4.15 16.45 -6.75 Q15.15 -8.95 11.4 -11.05 7.65 -13.2 4.6 -13.45 L-3.3 -13.05 Q-8.15 -12.45 -11.15 -9.25 -14.2 -6.1 -14.8 -3.95 -15.4 -1.8 -15.95 -0.95 L-17.3 1.6 -19.95 8.05 -19.25 6.8 Q-18.35 5.4 -17.2 4.65 L-18.1 7.95 Q-18.75 9.7 -19.75 10.85 L-22.2 13.2 -22.4 13.4 -23.0 14.2 -23.4 14.95 -23.6 15.5 -23.6 15.6 Z" fill="none" stroke="#000000" stroke-linecap="square" stroke-linejoin="round" stroke-opacity="0.6" stroke-width="1.0"/>
  </g>
</svg>
