<?xml version="1.0" encoding="UTF-8" standalone="no"?>
<svg xmlns:xlink="http://www.w3.org/1999/xlink" height="39.15px" width="32.75px" xmlns="http://www.w3.org/2000/svg">
  <g transform="matrix(1.0, 0.0, 0.0, 1.0, 17.4, 13.1)">
    <path d="M-15.5 13.2 Q-16.15 11.45 -16.45 9.15 -16.75 7.2 -16.65 5.35 L-16.65 5.3 Q-17.1 1.15 -15.0 -3.55 -12.95 -8.25 -8.3 -10.1 -3.75 -11.95 -2.6 -12.1 L1.25 -12.4 1.3 -12.4 4.3 -12.45 8.25 -11.7 11.0 -10.85 11.3 -10.6 8.5 -11.25 4.7 -11.8 1.3 -11.3 1.3 -11.25 1.25 -11.2 Q-0.75 -10.75 -2.5 -9.75 L-2.5 -9.7 -2.6 -9.65 Q-7.05 -7.6 -9.75 -3.45 -12.55 0.85 -12.85 5.3 L-12.85 5.35 Q-13.1 8.95 -11.4 12.8 L-10.65 14.2 -10.6 14.2 -10.55 14.3 -7.85 17.65 -5.4 20.1 Q-7.8 17.6 -9.45 14.3 L-9.5 14.2 -9.55 14.2 -9.6 14.05 Q-11.6 9.35 -11.05 5.35 L-11.05 5.3 Q-10.65 1.25 -8.15 -2.25 -5.9 -5.35 -2.6 -7.45 L-2.5 -7.5 -2.5 -7.55 Q-0.75 -8.8 1.25 -9.55 L1.3 -9.6 1.3 -9.65 Q3.15 -10.45 5.3 -10.8 L8.75 -10.8 11.35 -10.5 11.4 -10.5 Q13.65 -8.45 14.7 -5.5 14.5 -4.8 13.8 -4.1 13.25 -3.55 11.55 -3.25 L9.9 -3.0 9.7 -2.45 9.05 -1.0 Q8.55 0.7 8.95 2.8 L6.7 4.35 5.9 5.3 5.85 5.35 5.8 5.35 5.75 5.4 Q4.65 6.75 3.75 8.85 2.75 11.2 2.2 14.2 L2.15 14.2 2.15 14.3 Q1.25 18.25 1.4 23.5 L1.3 23.2 1.3 23.0 1.25 22.85 0.25 18.35 -0.5 14.35 Q-0.9 18.15 -0.1 22.1 L0.75 25.3 0.2 25.35 Q-1.55 22.65 -2.15 18.85 -2.5 16.6 -2.35 14.3 L-2.35 14.2 Q-2.0 9.8 -0.3 5.35 L-0.25 5.35 -0.2 5.3 0.55 2.95 0.1 4.2 -0.15 5.3 -0.15 5.35 -0.7 7.25 Q-1.6 11.05 -1.5 14.2 L-1.5 14.3 -1.4 15.65 -1.4 14.3 -1.4 14.2 -1.25 12.35 Q-0.95 8.55 0.2 5.35 L0.25 5.35 0.3 5.3 0.45 4.55 1.25 2.55 1.3 2.45 1.3 2.3 Q2.35 -0.3 3.85 -2.2 2.65 -0.45 1.8 1.85 3.1 -0.65 5.55 -2.9 7.75 -4.95 9.85 -5.85 12.4 -6.95 13.9 -6.55 L10.2 -6.75 10.15 -6.75 13.65 -7.1 11.9 -8.85 9.85 -10.0 Q8.45 -10.5 5.95 -10.05 3.05 -9.6 1.3 -8.2 L1.3 -8.15 1.25 -8.1 Q-0.65 -6.7 -2.2 -4.6 -0.85 -6.4 1.25 -7.3 L1.3 -7.35 Q2.2 -7.9 3.1 -8.1 L3.9 -8.2 Q2.5 -7.65 1.3 -6.6 L1.3 -6.55 1.25 -6.5 Q-1.0 -4.65 -2.5 -1.25 L-2.5 -1.05 -2.6 -0.8 -3.0 -0.05 Q-4.35 2.75 -4.75 5.3 L-4.75 5.35 -4.85 5.85 -4.6 5.35 -4.55 5.3 -2.6 0.95 -2.5 0.7 -2.5 0.5 Q-0.9 -2.9 1.25 -5.05 L1.3 -5.1 1.3 -5.15 Q4.1 -8.25 7.95 -8.75 L9.85 -8.8 12.1 -8.1 13.65 -7.1 12.4 -7.55 9.35 -7.35 Q4.25 -5.85 1.3 -0.8 L1.3 -0.7 1.25 -0.6 Q0.0 1.35 -0.95 3.85 L-1.4 5.3 -1.45 5.35 -2.5 8.75 -2.5 9.2 -2.6 9.6 Q-3.25 11.9 -3.4 14.2 L-3.4 14.3 Q-3.6 17.0 -2.95 19.65 L-2.6 20.75 -2.5 21.1 -2.5 21.45 -1.9 23.35 -2.5 22.0 -2.5 21.7 -2.6 21.45 Q-3.8 19.05 -4.6 16.45 L-5.15 14.3 -5.2 14.2 -5.25 14.2 Q-6.1 9.7 -5.85 5.35 L-5.85 5.3 Q-5.75 2.0 -5.05 -1.35 L-6.15 0.7 Q-6.9 2.9 -7.25 5.3 L-7.25 5.35 -7.45 6.65 Q-7.85 10.3 -7.2 14.2 L-7.15 14.3 Q-6.1 19.3 -2.6 24.75 L-2.5 24.95 -2.5 25.1 -2.4 25.3 -2.6 25.3 Q-8.55 19.7 -11.7 14.3 L-11.75 14.2 -11.85 14.2 -13.45 10.45 Q-14.4 7.9 -14.75 5.75 L-14.8 5.35 -14.8 5.3 -14.9 3.9 -15.35 5.3 -15.4 5.35 Q-16.4 8.25 -15.85 12.0 L-15.5 13.2 M-0.2 -11.6 L1.25 -12.0 1.3 -12.0 1.55 -12.05 1.3 -12.05 1.25 -12.05 -2.5 -11.55 -2.5 -11.45 -2.6 -11.4 Q-9.55 -9.95 -12.65 -4.3 -14.0 -1.9 -14.4 0.9 -14.7 2.3 -14.6 3.25 -12.6 -5.35 -4.85 -9.6 L-2.6 -10.55 -2.5 -10.6 -2.5 -10.65 -0.2 -11.6 M2.8 -6.35 L1.3 -4.85 1.3 -4.8 1.25 -4.75 -0.4 -2.85 -2.5 0.8 -2.5 1.05 -2.6 1.3 Q-3.55 3.2 -4.1 5.3 L-4.1 5.35 Q-5.15 8.9 -4.7 13.25 -4.55 9.75 -3.05 5.6 L-2.95 5.35 -2.9 5.3 -2.6 4.35 -2.5 4.05 -2.5 3.7 Q-1.05 -1.1 1.25 -4.05 L1.3 -4.15 1.3 -4.25 Q2.6 -6.1 4.2 -7.3 L2.8 -6.35 M2.8 5.35 L2.85 5.35 2.9 5.3 Q3.95 2.5 6.2 -0.3 7.35 -1.75 9.85 -3.85 L11.45 -4.8 Q13.2 -5.7 14.1 -5.6 L13.1 -5.9 Q11.9 -6.0 10.75 -5.35 L9.15 -4.2 Q7.0 -2.45 5.65 -0.5 4.05 1.8 2.85 5.3 L2.8 5.35 2.75 5.45 2.8 5.35 M3.5 24.35 L3.05 24.9 3.0 24.8 Q2.65 23.3 3.1 19.55 L3.55 16.05 Q2.95 17.15 2.1 20.5 L1.55 22.9 Q1.75 20.55 2.4 17.95 2.9 16.0 3.55 14.3 L3.6 14.2 3.65 14.2 Q5.55 8.7 9.0 5.7 L7.9 7.45 Q7.4 8.3 6.15 11.65 4.85 15.05 4.95 15.35 3.85 19.35 3.5 24.35" fill="#ffffff" fill-opacity="0.0" fill-rule="evenodd" stroke="none"/>
    <path d="M10.2 -6.75 L13.9 -6.55 Q12.4 -6.95 9.85 -5.85 7.75 -4.95 5.55 -2.9 3.1 -0.65 1.8 1.85 2.65 -0.45 3.85 -2.2 4.8 -3.6 7.6 -5.3 L10.2 -6.75 M-0.2 -11.6 L-2.5 -10.65 -2.5 -10.6 -2.6 -10.55 -4.85 -9.6 Q-12.6 -5.35 -14.6 3.25 -14.7 2.3 -14.4 0.9 -14.0 -1.9 -12.65 -4.3 -9.55 -9.95 -2.6 -11.4 L-2.5 -11.45 -2.5 -11.55 1.25 -12.05 1.3 -12.05 1.55 -12.05 1.3 -12.0 1.25 -12.0 -0.2 -11.6 M2.8 -6.35 L4.2 -7.3 Q2.6 -6.1 1.3 -4.25 L1.3 -4.15 1.25 -4.05 Q-1.05 -1.1 -2.5 3.7 L-2.5 4.05 -2.6 4.35 -2.9 5.3 -2.95 5.35 -3.05 5.6 Q-4.55 9.75 -4.7 13.25 -5.15 8.9 -4.1 5.35 L-4.1 5.3 Q-3.55 3.2 -2.6 1.3 L-2.5 1.05 -2.5 0.8 -0.4 -2.85 1.25 -4.75 1.3 -4.8 1.3 -4.85 2.8 -6.35" fill="#ffffff" fill-opacity="0.2" fill-rule="evenodd" stroke="none"/>
    <path d="M-15.5 13.2 L-15.85 12.0 Q-16.4 8.25 -15.4 5.35 L-15.35 5.3 -14.9 3.9 -14.8 5.3 -14.8 5.35 -14.75 5.75 Q-14.4 7.9 -13.45 10.45 L-11.85 14.2 -11.75 14.2 -11.7 14.3 Q-8.55 19.7 -2.6 25.3 L-6.25 25.3 -12.65 18.65 -14.35 15.7 -15.5 13.2 M-2.4 25.3 L-2.5 25.1 -2.5 24.95 -2.6 24.75 Q-6.1 19.3 -7.15 14.3 L-7.2 14.2 Q-7.85 10.3 -7.45 6.65 L-7.25 5.35 -7.25 5.3 Q-6.9 2.9 -6.15 0.7 L-5.05 -1.35 Q-5.75 2.0 -5.85 5.3 L-5.85 5.35 Q-6.1 9.7 -5.25 14.2 L-5.2 14.2 -5.15 14.3 -4.6 16.45 Q-3.8 19.05 -2.6 21.45 L-2.5 21.7 -2.5 22.0 -1.9 23.35 -2.5 21.45 -2.5 21.1 -2.6 20.75 -2.95 19.65 Q-3.6 17.0 -3.4 14.3 L-3.4 14.2 Q-3.25 11.9 -2.6 9.6 L-2.5 9.2 -2.5 8.75 -1.45 5.35 -1.4 5.3 -0.95 3.85 Q0.0 1.35 1.25 -0.6 L1.3 -0.7 1.3 -0.8 Q4.25 -5.85 9.35 -7.35 L12.4 -7.55 13.65 -7.1 12.1 -8.1 9.85 -8.8 7.95 -8.75 Q4.1 -8.25 1.3 -5.15 L1.3 -5.1 1.25 -5.05 Q-0.9 -2.9 -2.5 0.5 L-2.5 0.7 -2.6 0.95 -4.55 5.3 -4.6 5.35 -4.85 5.85 -4.75 5.35 -4.75 5.3 Q-4.35 2.75 -3.0 -0.05 L-2.6 -0.8 -2.5 -1.05 -2.5 -1.25 Q-1.0 -4.65 1.25 -6.5 L1.3 -6.55 1.3 -6.6 Q2.5 -7.65 3.9 -8.2 L3.1 -8.1 Q2.2 -7.9 1.3 -7.35 L1.25 -7.3 Q-0.85 -6.4 -2.2 -4.6 -0.65 -6.7 1.25 -8.1 L1.3 -8.15 1.3 -8.2 Q3.05 -9.6 5.95 -10.05 8.45 -10.5 9.85 -10.0 L11.9 -8.85 13.65 -7.1 10.15 -6.75 10.2 -6.75 7.6 -5.3 Q4.8 -3.6 3.85 -2.2 2.35 -0.3 1.3 2.3 L1.3 2.45 1.25 2.55 0.45 4.55 0.3 5.3 0.25 5.35 0.2 5.35 Q-0.95 8.55 -1.25 12.35 L-1.4 14.2 -1.4 14.3 -1.4 15.65 -1.5 14.3 -1.5 14.2 Q-1.6 11.05 -0.7 7.25 L-0.15 5.35 -0.15 5.3 0.1 4.2 0.55 2.95 -0.2 5.3 -0.25 5.35 -0.3 5.35 Q-2.0 9.8 -2.35 14.2 L-2.35 14.3 Q-2.5 16.6 -2.15 18.85 -1.55 22.65 0.2 25.35 L-2.4 25.3 M0.75 25.3 L-0.1 22.1 Q-0.9 18.15 -0.5 14.35 L0.25 18.35 1.25 22.85 1.3 23.0 1.3 23.2 1.4 23.5 Q1.25 18.25 2.15 14.3 L2.15 14.2 2.2 14.2 Q2.75 11.2 3.75 8.85 4.65 6.75 5.75 5.4 L5.8 5.35 5.85 5.35 5.9 5.3 6.7 4.35 8.95 2.8 9.25 3.95 9.65 5.15 9.65 5.25 9.7 5.3 9.75 5.45 9.6 5.7 9.55 5.8 9.45 6.2 9.45 6.25 9.35 7.5 9.5 8.25 9.7 9.05 9.7 9.1 10.55 12.15 Q7.6 14.2 6.0 16.85 4.2 19.85 3.5 24.4 L3.5 24.35 Q3.85 19.35 4.95 15.35 4.85 15.05 6.15 11.65 7.4 8.3 7.9 7.45 L9.0 5.7 Q5.55 8.7 3.65 14.2 L3.6 14.2 3.55 14.3 Q2.9 16.0 2.4 17.95 1.75 20.55 1.55 22.9 L2.1 20.5 Q2.95 17.15 3.55 16.05 L3.1 19.55 Q2.65 23.3 3.0 24.8 L3.05 24.9 3.05 24.95 2.6 25.4 0.75 25.3 M11.35 -10.5 L8.75 -10.8 5.3 -10.8 Q3.15 -10.45 1.3 -9.65 L1.3 -9.6 1.25 -9.55 Q-0.75 -8.8 -2.5 -7.55 L-2.5 -7.5 -2.6 -7.45 Q-5.9 -5.35 -8.15 -2.25 -10.65 1.25 -11.05 5.3 L-11.05 5.35 Q-11.6 9.35 -9.6 14.05 L-9.55 14.2 -9.5 14.2 -9.45 14.3 Q-7.8 17.6 -5.4 20.1 L-7.85 17.65 -10.55 14.3 -10.6 14.2 -10.65 14.2 -11.4 12.8 Q-13.1 8.95 -12.85 5.35 L-12.85 5.3 Q-12.55 0.85 -9.75 -3.45 -7.05 -7.6 -2.6 -9.65 L-2.5 -9.7 -2.5 -9.75 Q-0.75 -10.75 1.25 -11.2 L1.3 -11.25 1.3 -11.3 4.7 -11.8 8.5 -11.25 11.3 -10.6 11.3 -10.55 11.35 -10.5 M2.8 5.35 L2.85 5.3 Q4.05 1.8 5.65 -0.5 7.0 -2.45 9.15 -4.2 L10.75 -5.35 Q11.9 -6.0 13.1 -5.9 L14.1 -5.6 Q13.2 -5.7 11.45 -4.8 L9.85 -3.85 Q7.35 -1.75 6.2 -0.3 3.95 2.5 2.9 5.3 L2.85 5.35 2.8 5.35 2.75 5.45 2.8 5.35" fill="#000000" fill-opacity="0.2" fill-rule="evenodd" stroke="none"/>
    <path d="M9.45 6.25 L9.4 6.65 9.5 8.25 9.35 7.5 9.45 6.25" fill="#945c47" fill-rule="evenodd" stroke="none"/>
    <path d="M11.3 -10.6 L11.0 -10.85 8.25 -11.7 4.3 -12.45 1.3 -12.4 1.25 -12.4 -2.6 -12.1 Q-3.75 -11.95 -8.3 -10.1 -12.95 -8.25 -15.0 -3.55 -17.1 1.15 -16.65 5.3 L-16.65 5.35 Q-16.75 7.2 -16.45 9.15 -16.15 11.45 -15.5 13.2 L-14.35 15.7 -12.65 18.65 -6.25 25.3 -2.6 25.3 M8.95 2.8 Q8.55 0.7 9.05 -1.0 L9.7 -2.45 9.9 -3.0 11.55 -3.25 Q13.25 -3.55 13.8 -4.1 14.5 -4.8 14.7 -5.5 13.65 -8.45 11.4 -10.5 M11.3 -10.6 L11.3 -10.55 M9.7 5.3 L9.65 5.25 9.65 5.15 9.25 3.95 8.95 2.8 M9.45 6.25 L9.45 6.2 9.55 5.8 9.6 5.7 9.75 5.45 9.7 5.3 M9.45 6.25 L9.4 6.65 9.5 8.25 9.7 9.05 9.7 9.1 10.55 12.15 Q7.6 14.2 6.0 16.85 4.2 19.85 3.5 24.4 L3.5 24.35 M3.05 24.9 L3.05 24.95 2.6 25.4 0.75 25.3 0.75 25.35 M0.2 25.35 L-2.4 25.3 M9.5 8.25 L9.35 7.5 9.45 6.25 M3.0 24.8 L3.05 24.9" fill="none" stroke="#000000" stroke-linecap="square" stroke-linejoin="round" stroke-opacity="0.6" stroke-width="1.0"/>
    <path d="M-2.6 25.3 L-2.4 25.3 M3.5 24.35 L3.05 24.9 M0.75 25.35 L0.2 25.35" fill="none" stroke="#000000" stroke-linecap="round" stroke-linejoin="round" stroke-opacity="0.6" stroke-width="1.0"/>
  </g>
</svg>
