<?xml version="1.0" encoding="UTF-8" standalone="no"?>
<svg xmlns:xlink="http://www.w3.org/1999/xlink" height="49.15px" width="49.4px" xmlns="http://www.w3.org/2000/svg">
  <g transform="matrix(1.0, 0.0, 0.0, 1.0, 24.2, 17.75)">
    <path d="M12.85 -15.9 L12.85 -15.85 14.05 -15.4 Q16.35 -14.35 16.75 -12.75 L19.85 -12.35 Q21.6 -11.7 22.9 -10.4 24.3 -8.9 24.55 -6.85 L24.55 -6.35 Q24.45 -5.6 23.55 -4.5 22.7 -3.35 22.6 -2.6 22.5 -2.05 22.85 -1.1 L23.1 0.3 22.7 1.55 21.95 2.5 19.9 3.6 Q18.5 4.3 18.25 5.0 18.1 5.4 18.3 5.85 L18.75 6.45 19.15 7.1 19.0 7.9 Q18.65 8.5 17.15 8.85 15.65 9.15 15.15 9.85 14.5 10.75 14.55 12.0 14.65 13.2 15.4 13.95 L14.55 13.4 13.7 12.55 13.35 11.55 Q13.3 10.5 13.6 9.55 13.9 8.5 14.6 7.7 L15.45 6.85 16.35 6.2 Q17.25 5.35 17.15 3.95 L16.95 2.75 Q16.85 2.0 17.0 1.55 17.35 0.65 18.4 0.35 L19.25 0.05 20.0 -0.5 Q20.6 -1.2 19.95 -2.25 L19.45 -3.1 Q19.2 -3.65 19.25 -4.1 19.35 -5.05 20.0 -6.0 L21.25 -7.45 20.2 -6.65 18.85 -6.1 Q17.15 -5.4 17.05 -4.2 17.0 -3.75 17.3 -2.75 17.55 -1.9 17.25 -1.3 L16.3 -0.5 Q15.5 -0.25 15.3 0.0 15.0 0.4 15.2 1.3 15.4 2.2 15.05 2.65 L14.85 2.8 14.6 2.85 14.35 2.2 Q13.95 1.0 13.95 -1.55 13.95 -4.45 14.85 -4.75 13.6 -4.35 12.85 -3.2 L12.8 -3.15 12.75 -3.0 12.75 -2.85 Q12.05 -1.8 11.9 -0.2 11.85 0.55 12.15 1.4 L12.75 2.7 12.75 3.0 Q13.05 4.1 12.75 5.0 L12.75 5.2 12.6 5.45 11.55 6.85 10.6 8.1 Q9.8 9.45 10.25 11.4 L11.0 13.55 Q11.7 15.05 12.4 15.45 L12.65 15.75 11.4 14.65 10.0 13.1 9.7 14.3 9.7 14.15 9.75 13.8 9.2 11.6 9.25 13.7 Q9.2 14.95 8.75 15.7 L7.5 17.25 Q7.0 17.85 7.2 19.1 L6.0 18.0 Q5.55 17.25 5.65 16.45 5.75 15.95 6.7 15.2 7.5 14.45 7.5 13.95 7.45 13.55 6.5 12.5 5.55 11.45 5.5 10.75 5.4 9.9 5.8 9.0 L6.6 7.45 4.9 8.55 Q4.05 9.25 3.9 10.15 3.85 10.75 4.4 11.95 4.85 13.05 4.5 13.8 4.2 14.45 3.05 14.8 1.85 15.1 1.55 15.5 0.85 16.45 2.15 19.2 L0.15 17.25 Q-1.05 16.05 -1.3 14.9 L-1.0 12.85 Q-0.65 11.5 -0.95 10.75 -1.25 10.1 -2.1 9.2 L-3.4 7.65 Q-4.7 5.85 -2.75 4.2 -3.85 4.9 -4.5 6.2 -5.2 7.45 -5.0 8.75 -4.9 9.4 -4.0 10.85 -3.2 12.15 -3.3 13.05 L-3.95 15.05 Q-4.45 16.25 -4.4 17.25 L-4.3 19.55 Q-4.1 21.5 -3.85 21.65 -5.5 20.8 -5.6 18.7 L-5.55 16.9 Q-5.55 15.85 -5.8 15.2 L-6.75 14.15 -8.2 13.15 -9.05 12.05 Q-9.1 11.45 -8.15 10.85 -9.65 11.2 -9.8 11.85 -9.95 12.4 -9.3 13.35 L-8.15 15.0 Q-7.55 16.0 -7.75 16.65 -8.0 17.4 -9.0 17.8 -10.0 18.1 -10.25 18.8 -10.55 19.75 -9.8 20.65 -9.25 21.35 -8.15 21.9 L-9.8 21.5 Q-10.8 21.25 -11.4 20.65 -12.25 19.8 -12.3 18.9 L-12.05 17.0 Q-11.8 15.75 -12.05 15.4 L-13.15 14.2 Q-13.7 13.35 -13.6 12.8 -13.45 12.15 -12.45 11.6 -13.65 11.4 -14.55 12.05 -15.3 12.6 -15.6 13.6 -15.85 14.6 -15.55 15.55 -15.25 16.6 -14.35 17.2 -16.7 16.1 -17.05 14.15 L-17.15 12.15 -17.0 9.85 Q-17.8 10.6 -18.05 11.65 L-18.2 13.75 -18.35 12.15 -18.55 10.55 Q-18.75 9.95 -19.05 9.7 L-19.65 8.95 Q-20.0 8.35 -19.75 6.45 -19.5 4.45 -18.65 4.1 -19.7 4.5 -20.6 6.35 -21.25 7.65 -21.55 9.15 L-21.45 10.05 -21.35 10.85 Q-20.8 12.55 -21.5 14.15 -23.15 12.95 -23.3 11.45 -23.35 10.8 -22.9 9.8 -22.4 8.75 -22.4 8.2 -22.4 7.55 -22.95 6.75 L-23.55 5.45 Q-23.75 3.6 -22.2 1.8 L-20.7 0.3 -19.25 -1.1 Q-19.85 -0.55 -20.45 -1.1 L-20.85 -1.6 -21.3 -1.9 Q-19.5 -1.9 -18.05 -4.55 L-17.05 -6.7 -16.15 -8.4 Q-15.2 -9.75 -12.65 -10.6 L-10.75 -11.35 Q-9.75 -11.75 -9.2 -12.3 L-8.6 -13.05 -7.95 -13.75 Q-4.95 -16.05 0.6 -16.8 5.65 -17.5 9.85 -16.6 L12.85 -15.9 M13.25 -13.65 Q14.85 -13.55 16.0 -13.05 14.45 -14.25 12.85 -14.45 L12.75 -14.45 9.45 -13.95 Q8.25 -13.55 7.15 -12.8 L6.3 -12.15 Q9.15 -13.75 12.75 -13.65 L12.85 -13.65 13.25 -13.65 M10.95 -6.35 Q8.9 -5.6 8.15 -4.1 7.35 -2.45 8.4 -0.55 L9.05 0.5 9.4 1.65 8.0 3.0 Q7.5 3.85 7.6 4.6 7.7 5.4 8.4 5.85 9.15 6.3 10.45 6.15 9.4 6.25 9.2 5.25 9.0 4.4 9.5 3.4 L10.65 1.9 Q10.95 1.45 10.6 0.9 L9.85 -0.2 Q8.95 -1.5 9.2 -3.6 9.5 -5.75 10.95 -6.35 M1.7 0.4 L0.45 1.3 -0.45 2.5 Q-0.95 3.65 0.0 4.4 L0.85 5.0 1.5 5.85 Q1.8 6.5 1.05 7.65 0.2 8.9 0.25 9.65 0.25 10.9 1.05 12.15 2.0 13.5 3.15 13.35 2.5 12.8 2.0 11.8 1.55 10.85 1.55 9.95 1.55 8.75 2.4 8.2 L3.15 7.8 3.9 7.1 Q4.35 6.45 4.05 6.05 L3.15 5.4 1.9 4.75 Q1.3 4.25 1.25 3.6 1.2 2.75 1.7 2.3 L2.25 1.9 2.75 1.4 Q3.35 0.6 3.4 -0.4 L3.4 -2.1 Q3.15 -0.75 1.7 0.4 M-15.05 -1.0 Q-15.5 0.0 -14.65 0.7 L-13.85 1.25 -13.2 1.95 Q-12.95 2.55 -13.65 3.55 -14.4 4.7 -14.4 5.35 -14.4 6.4 -13.65 7.5 -12.75 8.7 -11.65 8.55 L-12.75 7.2 Q-13.15 6.35 -13.15 5.6 -13.15 4.5 -12.4 4.05 -11.9 3.85 -11.7 3.65 L-10.95 3.05 Q-10.55 2.5 -10.8 2.15 -11.0 1.9 -11.7 1.6 L-12.85 1.0 Q-13.4 0.55 -13.45 -0.05 -13.5 -0.75 -13.0 -1.15 L-12.05 -1.95 Q-11.45 -2.6 -11.45 -3.5 L-11.45 -5.05 Q-11.7 -3.8 -13.05 -2.85 -14.1 -2.1 -14.2 -2.05 L-15.05 -1.0 M-6.8 6.4 L-6.95 5.65 Q-7.25 3.8 -6.5 2.7 L-5.3 1.55 -4.05 0.55 Q-2.65 -0.7 -3.1 -2.45 L-2.95 -2.35 -3.35 -3.1 Q-3.85 -4.15 -3.8 -6.45 -3.8 -9.0 -2.8 -9.25 -4.3 -8.9 -5.15 -7.85 -6.05 -6.8 -6.15 -5.2 L-5.9 -3.85 -5.35 -2.65 Q-4.75 -1.3 -5.5 -0.25 L-6.5 1.0 -7.35 2.05 Q-8.15 3.3 -7.7 5.0 L-7.0 6.85 -6.5 7.7 -5.75 9.4 -5.85 8.4 -5.7 8.55 -5.85 8.35 -5.85 5.85 Q-5.45 2.0 -2.95 0.2 L-3.9 0.8 -5.65 2.5 Q-7.0 4.35 -6.8 6.4 M-8.5 -3.6 L-9.85 -2.4 Q-10.3 -1.65 -10.2 -1.05 -10.15 -0.3 -9.45 0.05 L-7.5 0.35 Q-8.5 0.4 -8.7 -0.45 -8.85 -1.2 -8.4 -2.1 L-7.35 -3.45 Q-7.05 -3.75 -7.4 -4.25 L-8.1 -5.25 Q-8.95 -6.35 -8.7 -8.2 -8.45 -10.1 -7.05 -10.6 -9.0 -10.0 -9.65 -8.65 -10.4 -7.2 -9.4 -5.55 L-8.85 -4.6 -8.5 -3.6 M-12.2 4.75 Q-13.7 6.4 -11.05 8.8 -11.65 8.2 -11.9 7.35 -12.5 5.25 -10.05 3.45 L-10.8 3.8 Q-11.7 4.2 -12.2 4.75" fill="#ffffff" fill-opacity="0.0" fill-rule="evenodd" stroke="none"/>
    <path d="M13.25 -13.65 L12.85 -13.65 12.75 -13.65 Q9.15 -13.75 6.3 -12.15 L7.15 -12.8 Q8.25 -13.55 9.45 -13.95 L12.75 -14.45 12.85 -14.45 Q14.45 -14.25 16.0 -13.05 14.85 -13.55 13.25 -13.65 M-6.5 7.7 L-6.8 6.4 Q-7.0 4.35 -5.65 2.5 L-3.9 0.8 -2.95 0.2 Q-5.45 2.0 -5.85 5.85 L-5.85 8.35 -5.85 8.4 -5.75 9.4 -6.5 7.7 M-12.2 4.75 Q-11.7 4.2 -10.8 3.8 L-10.05 3.45 Q-12.5 5.25 -11.9 7.35 -11.65 8.2 -11.05 8.8 -13.7 6.4 -12.2 4.75" fill="#ffffff" fill-opacity="0.2" fill-rule="evenodd" stroke="none"/>
    <path d="M-21.5 14.15 Q-20.8 12.55 -21.35 10.85 L-21.45 10.05 -21.55 9.15 Q-21.25 7.65 -20.6 6.35 -19.7 4.5 -18.65 4.1 -19.5 4.45 -19.75 6.45 -20.0 8.35 -19.65 8.95 L-19.05 9.7 Q-18.75 9.95 -18.55 10.55 L-18.35 12.15 -18.2 13.75 -18.05 11.65 Q-17.8 10.6 -17.0 9.85 L-17.15 12.15 -17.05 14.15 Q-16.7 16.1 -14.35 17.2 -15.25 16.6 -15.55 15.55 -15.85 14.6 -15.6 13.6 -15.3 12.6 -14.55 12.05 -13.65 11.4 -12.45 11.6 -13.45 12.15 -13.6 12.8 -13.7 13.35 -13.15 14.2 L-12.05 15.4 Q-11.8 15.75 -12.05 17.0 L-12.3 18.9 Q-12.25 19.8 -11.4 20.65 -10.8 21.25 -9.8 21.5 L-8.15 21.9 Q-9.25 21.35 -9.8 20.65 -10.55 19.75 -10.25 18.8 -10.0 18.1 -9.0 17.8 -8.0 17.4 -7.75 16.65 -7.55 16.0 -8.15 15.0 L-9.3 13.35 Q-9.95 12.4 -9.8 11.85 -9.65 11.2 -8.15 10.85 -9.1 11.45 -9.05 12.05 L-8.2 13.15 -6.75 14.15 -5.8 15.2 Q-5.55 15.85 -5.55 16.9 L-5.6 18.7 Q-5.5 20.8 -3.85 21.65 -4.1 21.5 -4.3 19.55 L-4.4 17.25 Q-4.45 16.25 -3.95 15.05 L-3.3 13.05 Q-3.2 12.15 -4.0 10.85 -4.9 9.4 -5.0 8.75 -5.2 7.45 -4.5 6.2 -3.85 4.9 -2.75 4.2 -4.7 5.85 -3.4 7.65 L-2.1 9.2 Q-1.25 10.1 -0.95 10.75 -0.65 11.5 -1.0 12.85 L-1.3 14.9 Q-1.05 16.05 0.15 17.25 L2.15 19.2 Q0.85 16.45 1.55 15.5 1.85 15.1 3.05 14.8 4.2 14.45 4.5 13.8 4.85 13.05 4.4 11.95 3.85 10.75 3.9 10.15 4.05 9.25 4.9 8.55 L6.6 7.45 5.8 9.0 Q5.4 9.9 5.5 10.75 5.55 11.45 6.5 12.5 7.45 13.55 7.5 13.95 7.5 14.45 6.7 15.2 5.75 15.95 5.65 16.45 5.55 17.25 6.0 18.0 L7.2 19.1 Q7.0 17.85 7.5 17.25 L8.75 15.7 Q9.2 14.95 9.25 13.7 L9.2 11.6 9.75 13.8 9.7 14.15 9.7 14.3 9.75 15.4 9.7 15.55 9.7 15.85 9.65 16.05 8.9 17.25 Q8.25 18.55 8.8 19.7 L9.3 20.15 9.75 20.6 9.6 21.4 Q9.3 21.85 9.35 22.05 9.6 23.05 10.3 23.45 L12.2 23.9 Q10.3 24.75 8.55 24.4 6.5 24.1 5.85 22.3 L6.05 23.65 6.5 25.75 Q7.25 28.5 8.8 28.05 L6.7 28.0 5.1 26.65 Q5.3 28.25 4.25 29.1 L3.1 29.8 1.85 30.75 Q2.55 29.4 2.35 28.3 2.45 29.1 -0.2 30.0 L-3.6 30.75 -5.35 30.45 -6.4 29.55 -7.7 28.75 -8.5 27.8 -8.15 29.2 -7.5 30.5 -8.35 30.25 -9.7 29.8 -9.75 29.8 -11.15 28.25 -11.95 26.8 Q-12.35 26.15 -13.3 25.3 L-14.7 23.95 -14.3 24.75 -14.2 24.85 -13.9 25.25 -14.65 24.9 -16.65 23.75 -18.35 22.35 Q-18.85 21.45 -18.5 19.55 -18.15 17.6 -18.55 16.7 -18.85 16.0 -19.7 15.4 L-20.25 15.0 -19.7 15.4 -19.85 15.3 -20.25 15.0 -21.55 14.2 -21.5 14.15 M12.4 15.45 Q11.7 15.05 11.0 13.55 L10.25 11.4 Q9.8 9.45 10.6 8.1 L11.55 6.85 12.6 5.45 12.75 5.2 12.75 5.0 Q13.05 4.1 12.75 3.0 L12.75 2.7 12.15 1.4 Q11.85 0.55 11.9 -0.2 12.05 -1.8 12.75 -2.85 L12.75 -3.0 12.8 -3.15 12.85 -3.2 Q13.6 -4.35 14.85 -4.75 13.95 -4.45 13.95 -1.55 13.95 1.0 14.35 2.2 L14.6 2.85 14.85 2.8 15.05 2.65 Q15.4 2.2 15.2 1.3 15.0 0.4 15.3 0.0 15.5 -0.25 16.3 -0.5 L17.25 -1.3 Q17.55 -1.9 17.3 -2.75 17.0 -3.75 17.05 -4.2 17.15 -5.4 18.85 -6.1 L20.2 -6.65 21.25 -7.45 20.0 -6.0 Q19.35 -5.05 19.25 -4.1 19.2 -3.65 19.45 -3.1 L19.95 -2.25 Q20.6 -1.2 20.0 -0.5 L19.25 0.05 18.4 0.35 Q17.35 0.65 17.0 1.55 16.85 2.0 16.95 2.75 L17.15 3.95 Q17.25 5.35 16.35 6.2 L15.45 6.85 14.6 7.7 Q13.9 8.5 13.6 9.55 13.3 10.5 13.35 11.55 13.2 10.75 13.3 9.75 13.45 8.1 14.2 7.1 L15.25 6.0 Q15.8 5.2 15.05 4.65 L14.9 5.05 14.1 6.3 12.85 7.45 11.6 8.8 11.55 8.85 Q10.7 10.1 11.05 12.2 L11.15 12.7 11.4 13.6 11.7 14.35 12.4 15.45 M1.7 0.4 Q3.15 -0.75 3.4 -2.1 L3.4 -0.4 Q3.35 0.6 2.75 1.4 L2.25 1.9 1.7 2.3 Q1.2 2.75 1.25 3.6 1.3 4.25 1.9 4.75 L3.15 5.4 4.05 6.05 Q4.35 6.45 3.9 7.1 L3.15 7.8 2.4 8.2 Q1.55 8.75 1.55 9.95 1.55 10.85 2.0 11.8 2.5 12.8 3.15 13.35 2.0 13.5 1.05 12.15 0.25 10.9 0.25 9.65 0.2 8.9 1.05 7.65 1.8 6.5 1.5 5.85 L0.85 5.0 0.0 4.4 Q-0.95 3.65 -0.45 2.5 L0.45 1.3 1.7 0.4 M10.95 -6.35 Q9.5 -5.75 9.2 -3.6 8.95 -1.5 9.85 -0.2 L10.6 0.9 Q10.95 1.45 10.65 1.9 L9.5 3.4 Q9.0 4.4 9.2 5.25 9.4 6.25 10.45 6.15 9.15 6.3 8.4 5.85 7.7 5.4 7.6 4.6 7.5 3.85 8.0 3.0 L9.4 1.65 9.05 0.5 8.4 -0.55 Q7.35 -2.45 8.15 -4.1 8.9 -5.6 10.95 -6.35 M-6.5 7.7 L-7.0 6.85 -7.7 5.0 Q-8.15 3.3 -7.35 2.05 L-6.5 1.0 -5.5 -0.25 Q-4.75 -1.3 -5.35 -2.65 L-5.9 -3.85 -6.15 -5.2 Q-6.05 -6.8 -5.15 -7.85 -4.3 -8.9 -2.8 -9.25 -3.8 -9.0 -3.8 -6.45 -3.85 -4.15 -3.35 -3.1 L-2.95 -2.35 -3.1 -2.45 Q-2.65 -0.7 -4.05 0.55 L-5.3 1.55 -6.5 2.7 Q-7.25 3.8 -6.95 5.65 L-6.8 6.4 -6.5 7.7 M-15.05 -1.0 L-14.2 -2.05 Q-14.1 -2.1 -13.05 -2.85 -11.7 -3.8 -11.45 -5.05 L-11.45 -3.5 Q-11.45 -2.6 -12.05 -1.95 L-13.0 -1.15 Q-13.5 -0.75 -13.45 -0.05 -13.4 0.55 -12.85 1.0 L-11.7 1.6 Q-11.0 1.9 -10.8 2.15 -10.55 2.5 -10.95 3.05 L-11.7 3.65 Q-11.9 3.85 -12.4 4.05 -13.15 4.5 -13.15 5.6 -13.15 6.35 -12.75 7.2 L-11.65 8.55 Q-12.75 8.7 -13.65 7.5 -14.4 6.4 -14.4 5.35 -14.4 4.7 -13.65 3.55 -12.95 2.55 -13.2 1.95 L-13.85 1.25 -14.65 0.7 Q-15.5 0.0 -15.05 -1.0 M-8.5 -3.6 L-8.85 -4.6 -9.4 -5.55 Q-10.4 -7.2 -9.65 -8.65 -9.0 -10.0 -7.05 -10.6 -8.45 -10.1 -8.7 -8.2 -8.95 -6.35 -8.1 -5.25 L-7.4 -4.25 Q-7.05 -3.75 -7.35 -3.45 L-8.4 -2.1 Q-8.85 -1.2 -8.7 -0.45 -8.5 0.4 -7.5 0.35 L-9.45 0.05 Q-10.15 -0.3 -10.2 -1.05 -10.3 -1.65 -9.85 -2.4 L-8.5 -3.6" fill="#000000" fill-opacity="0.2" fill-rule="evenodd" stroke="none"/>
    <path d="M-5.85 8.35 L-5.7 8.55 -5.85 8.4 -5.85 8.35" fill="#7a4a38" fill-rule="evenodd" stroke="none"/>
    <path d="M-9.7 29.8 L-8.35 30.25 -9.3 29.95 -9.7 29.8" fill="#945c47" fill-rule="evenodd" stroke="none"/>
    <path d="M12.85 -15.9 L9.85 -16.6 Q5.65 -17.5 0.6 -16.8 -4.95 -16.05 -7.95 -13.75 L-8.6 -13.05 -9.2 -12.3 Q-9.75 -11.75 -10.75 -11.35 L-12.65 -10.6 Q-15.2 -9.75 -16.15 -8.4 L-17.05 -6.7 -18.05 -4.55 Q-19.5 -1.9 -21.3 -1.9 M-19.25 -1.1 L-20.7 0.3 -22.2 1.8 Q-23.75 3.6 -23.55 5.45 L-22.95 6.75 Q-22.4 7.55 -22.4 8.2 -22.4 8.75 -22.9 9.8 -23.35 10.8 -23.3 11.45 -23.15 12.95 -21.5 14.15 L-21.55 14.2 -20.25 15.0 -19.7 15.4 Q-18.85 16.0 -18.55 16.7 -18.15 17.6 -18.5 19.55 -18.85 21.45 -18.35 22.35 L-16.65 23.75 -14.65 24.9 -13.9 25.25 M9.7 14.3 L10.0 13.1 11.4 14.65 12.65 15.75 12.4 15.45 11.7 14.35 11.4 13.6 11.15 12.7 11.05 12.2 Q10.7 10.1 11.55 8.85 L11.6 8.8 12.85 7.45 14.1 6.3 14.9 5.05 15.05 4.65 Q15.8 5.2 15.25 6.0 L14.2 7.1 Q13.45 8.1 13.3 9.75 13.2 10.75 13.35 11.55 L13.7 12.55 14.55 13.4 15.4 13.95 Q14.65 13.2 14.55 12.0 14.5 10.75 15.15 9.85 15.65 9.15 17.15 8.85 18.65 8.5 19.0 7.9 L19.15 7.1 18.75 6.45 18.3 5.85 Q18.1 5.4 18.25 5.0 18.5 4.3 19.9 3.6 L21.95 2.5 22.7 1.55 23.1 0.3 22.85 -1.1 Q22.5 -2.05 22.6 -2.6 22.7 -3.35 23.55 -4.5 24.45 -5.6 24.55 -6.35 L24.55 -6.85 Q24.3 -8.9 22.9 -10.4 21.6 -11.7 19.85 -12.35 L16.75 -12.75 Q16.35 -14.35 14.05 -15.4 L12.85 -15.85 M8.8 28.05 Q7.25 28.5 6.5 25.75 L6.05 23.65 5.85 22.3 Q6.5 24.1 8.55 24.4 10.3 24.75 12.2 23.9 L10.3 23.45 Q9.6 23.05 9.35 22.05 9.3 21.85 9.6 21.4 L9.75 20.6 9.3 20.15 8.8 19.7 Q8.25 18.55 8.9 17.25 L9.65 16.05 9.7 15.85 9.7 15.55 9.75 15.4 9.7 14.3 M-8.5 27.8 L-7.7 28.75 -6.4 29.55 -5.35 30.45 -3.6 30.75 -0.2 30.0 Q2.45 29.1 2.35 28.3 2.55 29.4 1.85 30.75 L3.1 29.8 4.25 29.1 Q5.3 28.25 5.1 26.65 M-14.7 23.95 L-13.3 25.3 Q-12.35 26.15 -11.95 26.8 L-11.15 28.25 -9.75 29.8 -9.7 29.8 -9.3 29.95 -8.35 30.25 -7.5 30.5" fill="none" stroke="#000000" stroke-linecap="square" stroke-linejoin="round" stroke-opacity="0.6" stroke-width="1.0"/>
    <path d="M-21.3 -1.9 L-20.85 -1.6 -20.45 -1.1 Q-19.85 -0.55 -19.25 -1.1 M5.1 26.65 L6.7 28.0 8.8 28.05 M-13.9 25.25 L-14.2 24.85 -14.3 24.75 -14.7 23.95 M-7.5 30.5 L-8.15 29.2 -8.5 27.8" fill="none" stroke="#000000" stroke-linecap="square" stroke-linejoin="round" stroke-opacity="0.4" stroke-width="1.0"/>
  </g>
</svg>
