<?xml version="1.0" encoding="UTF-8" standalone="no"?>
<svg xmlns:xlink="http://www.w3.org/1999/xlink" height="57.0px" width="36.1px" xmlns="http://www.w3.org/2000/svg">
  <g transform="matrix(1.0, 0.0, 0.0, 1.0, 17.15, 14.7)">
    <path d="M-1.65 -13.6 L3.55 -14.05 6.65 -13.8 10.95 -12.9 11.5 -12.7 Q14.85 -11.55 17.05 -9.6 L17.4 -9.2 Q18.0 -8.5 18.2 -7.55 L18.3 -7.1 18.3 -6.25 Q18.2 -4.55 17.1 -2.05 L16.9 -1.55 15.85 0.5 14.85 2.35 14.3 3.5 14.05 4.0 13.15 6.2 11.8 10.9 Q11.1 13.65 11.0 15.75 10.7 21.15 14.05 24.65 L14.15 24.75 13.45 24.65 10.4 24.05 10.75 24.65 Q11.95 26.6 13.5 28.1 L9.6 25.35 10.35 26.15 12.05 28.15 Q14.55 31.5 14.75 34.25 L14.65 33.65 12.6 30.85 9.65 27.3 7.95 24.65 5.75 19.9 Q6.35 22.25 6.35 24.65 L6.25 26.95 5.75 29.85 Q5.9 28.5 4.9 24.65 L4.5 23.25 3.05 18.6 Q3.7 21.45 3.6 24.65 3.5 26.9 3.0 29.25 L2.85 30.0 Q2.3 32.4 1.55 34.1 1.75 31.8 1.05 28.45 L0.35 25.65 Q0.05 28.35 -1.1 30.1 L-1.85 31.0 -2.4 31.5 -3.0 31.9 -3.55 32.1 Q-2.9 31.05 -2.5 29.65 -1.9 27.55 -1.85 24.7 -1.8 23.2 -1.9 21.75 L-2.05 20.55 -4.15 27.9 Q-3.75 25.2 -5.25 21.8 L-5.95 20.4 -6.35 19.7 -6.85 18.9 -6.75 20.4 Q-6.8 22.05 -7.4 24.0 L-7.8 25.1 -7.9 25.4 -9.25 28.15 Q-8.9 26.95 -8.9 25.4 -8.9 23.45 -9.5 21.05 L-9.65 20.4 -9.9 19.55 -11.05 16.25 -11.65 14.95 Q-10.8 17.85 -11.25 20.4 L-11.35 21.05 -12.05 22.95 Q-12.8 24.5 -13.7 25.4 L-14.0 25.65 -13.75 25.4 Q-12.05 23.45 -11.75 21.05 L-11.7 20.4 -13.4 16.1 -15.1 11.95 Q-17.2 6.15 -16.15 0.15 -14.95 -6.55 -10.15 -10.25 -7.65 -12.15 -3.95 -13.15 L-1.65 -13.6 M4.9 -0.65 Q3.75 1.2 3.1 3.5 1.1 10.75 5.1 19.15 4.0 16.3 3.55 12.25 2.65 4.05 5.9 -2.1 L4.9 -0.65 M6.65 -0.45 L6.3 1.3 Q5.1 9.75 10.45 19.15 9.1 15.6 8.15 10.8 7.5 7.15 7.4 4.0 7.2 -1.25 8.6 -5.25 L7.7 -3.55 Q7.05 -2.1 6.65 -0.45 M-8.0 -9.55 Q-9.8 -8.3 -11.15 -6.4 -15.35 -0.4 -13.3 9.3 -13.35 5.75 -12.55 1.55 -10.9 -6.95 -6.5 -10.45 L-8.0 -9.55" fill="#ffffff" fill-opacity="0.0" fill-rule="evenodd" stroke="none"/>
    <path d="M-14.0 25.65 L-13.7 25.4 Q-12.8 24.5 -12.05 22.95 L-11.35 21.05 -11.25 20.4 Q-10.8 17.85 -11.65 14.95 L-11.05 16.25 -9.9 19.55 -9.65 20.4 -9.5 21.05 Q-8.9 23.45 -8.9 25.4 -8.9 26.95 -9.25 28.15 L-7.9 25.4 -7.8 25.1 -7.4 24.0 Q-6.8 22.05 -6.75 20.4 L-6.85 18.9 -6.35 19.7 -5.95 20.4 -5.25 21.8 Q-3.75 25.2 -4.15 27.9 L-2.05 20.55 -1.9 21.75 Q-1.8 23.2 -1.85 24.7 -1.9 27.55 -2.5 29.65 -2.9 31.05 -3.55 32.1 L-3.0 31.9 -2.4 31.5 -1.85 31.0 -1.1 30.1 Q0.05 28.35 0.35 25.65 L1.05 28.45 Q1.75 31.8 1.55 34.1 2.3 32.4 2.85 30.0 L3.0 29.25 Q3.5 26.9 3.6 24.65 3.7 21.45 3.05 18.6 L4.5 23.25 4.9 24.65 Q5.9 28.5 5.75 29.85 L6.25 26.95 6.35 24.65 Q6.35 22.25 5.75 19.9 L7.95 24.65 9.65 27.3 12.6 30.85 14.65 33.65 14.75 34.25 13.3 32.45 Q11.6 30.5 10.5 29.8 L10.8 30.35 11.25 31.95 Q11.7 34.55 10.2 37.0 L9.65 34.15 Q8.9 31.05 7.75 29.8 L7.9 30.75 7.75 33.15 Q7.15 36.95 4.15 39.2 L5.35 34.25 3.7 37.35 2.85 38.6 1.95 39.65 -0.2 41.4 -0.7 41.65 -0.65 41.4 -0.35 39.65 0.2 35.3 -4.35 38.65 -2.55 35.1 -6.45 37.25 -6.1 36.45 -8.55 36.95 -6.55 34.2 Q-5.45 32.45 -5.3 31.05 -7.05 32.8 -9.2 33.8 -11.6 35.0 -13.95 34.9 -11.55 32.5 -10.8 29.65 L-10.65 28.95 -11.3 29.65 Q-12.5 30.85 -14.15 31.65 L-15.15 32.1 -15.55 32.2 -16.05 32.4 -15.15 31.75 -13.05 29.65 Q-11.55 27.75 -10.8 25.4 L-10.6 24.7 -11.0 22.75 Q-11.6 24.0 -12.85 24.95 L-14.0 25.65 M6.65 -0.45 Q7.05 -2.1 7.7 -3.55 L8.6 -5.25 Q7.2 -1.25 7.4 4.0 7.5 7.15 8.15 10.8 9.1 15.6 10.45 19.15 5.1 9.75 6.3 1.3 L6.65 -0.45 M4.9 -0.65 L5.9 -2.1 Q2.65 4.05 3.55 12.25 4.0 16.3 5.1 19.15 1.1 10.75 3.1 3.5 3.75 1.2 4.9 -0.65" fill="#000000" fill-opacity="0.2" fill-rule="evenodd" stroke="none"/>
    <path d="M-8.0 -9.55 L-6.5 -10.45 Q-10.9 -6.95 -12.55 1.55 -13.35 5.75 -13.3 9.3 -15.35 -0.4 -11.15 -6.4 -9.8 -8.3 -8.0 -9.55" fill="#ffffff" fill-opacity="0.2" fill-rule="evenodd" stroke="none"/>
    <path d="M-1.65 -13.6 L-3.95 -13.15 Q-7.65 -12.15 -10.15 -10.25 -14.95 -6.55 -16.15 0.15 -17.2 6.15 -15.1 11.95 L-13.4 16.1 -11.7 20.4 M10.75 24.65 L10.4 24.05 13.45 24.65 M14.05 24.65 Q10.7 21.15 11.0 15.75 11.1 13.65 11.8 10.9 L13.15 6.2 14.05 4.0 M-0.65 41.4 L-0.7 41.65 -0.2 41.4" fill="none" stroke="#000000" stroke-linecap="square" stroke-linejoin="round" stroke-opacity="0.6" stroke-width="1.0"/>
    <path d="M14.05 4.0 L14.3 3.5 14.85 2.35 15.85 0.5 16.9 -1.55 17.1 -2.05 Q18.2 -4.55 18.3 -6.25 L18.3 -7.1 18.2 -7.55 Q18.0 -8.5 17.4 -9.2 L17.05 -9.6 Q14.85 -11.55 11.5 -12.7 L10.95 -12.9 6.65 -13.8 3.55 -14.05 -1.65 -13.6 M-11.7 20.4 L-11.75 21.05 Q-12.05 23.45 -13.75 25.4 L-14.0 25.65 -12.85 24.95 Q-11.6 24.0 -11.0 22.75 L-10.6 24.7 -10.8 25.4 Q-11.55 27.75 -13.05 29.65 L-15.15 31.75 -16.05 32.4 -15.55 32.2 -15.15 32.1 -14.15 31.65 Q-12.5 30.85 -11.3 29.65 L-10.65 28.95 -10.8 29.65 Q-11.55 32.5 -13.95 34.9 -11.6 35.0 -9.2 33.8 -7.05 32.8 -5.3 31.05 -5.45 32.45 -6.55 34.2 L-8.55 36.95 -6.1 36.45 -6.45 37.25 -2.55 35.1 -4.35 38.65 0.2 35.3 -0.35 39.65 -0.65 41.4 M14.75 34.25 Q14.55 31.5 12.05 28.15 L10.35 26.15 9.6 25.35 13.5 28.1 Q11.95 26.6 10.75 24.65 M13.45 24.65 L14.15 24.75 14.05 24.65 M-0.2 41.4 L1.95 39.65 2.85 38.6 3.7 37.35 5.35 34.25 4.15 39.2 Q7.15 36.95 7.75 33.15 L7.9 30.75 7.75 29.8 Q8.9 31.05 9.65 34.15 L10.2 37.0 Q11.7 34.55 11.25 31.95 L10.8 30.35 10.5 29.8 Q11.6 30.5 13.3 32.45 L14.75 34.25" fill="none" stroke="#000000" stroke-linecap="square" stroke-linejoin="round" stroke-opacity="0.4" stroke-width="1.0"/>
  </g>
</svg>
