<?xml version="1.0" encoding="UTF-8" standalone="no"?>
<svg xmlns:xlink="http://www.w3.org/1999/xlink" height="70.85px" width="46.85px" xmlns="http://www.w3.org/2000/svg">
  <g transform="matrix(1.0, 0.0, 0.0, 1.0, 26.65, 13.45)">
    <path d="M5.55 -0.4 Q2.6 7.0 7.1 14.65 5.8 11.9 5.4 7.95 4.65 0.0 9.35 -6.3 L8.0 -4.75 Q6.45 -2.75 5.55 -0.4 M-24.2 55.45 L-24.35 55.4 -25.85 55.1 -23.4 54.8 Q-22.1 54.35 -21.75 53.05 -21.45 52.05 -22.15 51.1 L-23.55 49.6 Q-25.15 47.8 -25.15 45.1 -25.15 43.15 -24.25 40.25 -23.6 38.3 -23.95 36.7 -24.15 35.85 -25.3 33.45 -26.35 31.2 -26.1 28.7 -25.95 26.95 -24.95 24.3 L-23.45 19.95 Q-22.8 17.4 -23.2 15.25 L-24.05 10.5 -24.6 5.75 Q-24.8 0.45 -22.45 -3.5 -21.2 -5.6 -19.4 -6.85 -17.75 -7.9 -15.05 -8.7 L-13.45 -10.1 Q-12.15 -11.1 -10.45 -11.7 L-5.45 -12.7 Q-1.5 -13.15 2.25 -12.8 12.65 -11.95 16.55 -5.7 L17.0 -5.35 Q17.3 -5.15 19.0 0.4 20.6 5.85 18.55 12.9 16.45 19.9 11.2 23.5 11.75 22.25 11.7 19.6 11.6 16.9 9.65 14.55 L9.65 15.45 9.45 19.05 Q9.1 21.7 8.1 23.95 L8.6 24.95 Q10.1 28.0 9.95 30.55 L9.2 35.15 Q8.85 38.0 10.1 39.6 L11.7 40.95 13.45 42.05 10.15 41.25 6.75 40.1 Q4.0 38.85 2.2 34.55 L1.3 31.9 1.25 31.7 0.95 30.5 1.05 32.2 Q1.0 37.25 -1.65 41.15 -3.2 43.45 -4.85 44.5 -3.45 41.4 -3.3 38.15 -3.25 36.45 -3.55 34.7 L-4.35 31.65 -4.85 30.5 Q-5.2 35.35 -7.55 38.6 -8.75 40.25 -9.85 40.9 -9.5 35.65 -13.1 30.55 L-15.65 27.55 -16.85 26.5 Q-14.35 31.6 -15.95 36.55 -16.75 39.05 -18.05 40.5 -19.05 39.1 -19.15 36.55 L-19.05 34.3 Q-21.4 40.65 -20.4 44.75 L-19.4 47.75 Q-18.75 49.45 -18.65 50.7 -18.45 53.1 -20.85 54.45 -22.3 55.2 -24.2 55.45 M4.15 21.85 L2.95 20.9 Q5.15 23.45 6.45 26.65 7.35 28.8 7.8 31.3 8.35 34.35 8.15 36.5 9.75 30.45 7.15 25.65 L6.6 24.7 Q5.55 23.1 4.15 21.85 M5.35 29.1 L5.25 28.05 3.95 25.15 2.35 22.7 Q-4.15 15.2 -4.25 8.0 -4.3 5.75 -3.65 3.8 L-3.05 2.3 Q-7.45 8.6 -5.0 15.25 -3.45 19.35 0.15 22.7 1.8 24.2 3.7 26.8 L4.9 28.4 5.35 29.1 M-20.3 -2.6 Q-24.8 4.5 -20.05 16.5 -21.1 12.35 -20.95 7.3 -20.7 -2.8 -14.85 -7.3 L-15.4 -7.05 -16.75 -6.3 Q-18.9 -4.85 -20.3 -2.6 M-23.95 44.1 Q-24.1 48.4 -20.25 51.9 L-21.8 48.65 Q-23.3 44.6 -23.05 40.5 L-23.5 41.5 Q-23.9 42.75 -23.95 44.1" fill="#ffffff" fill-opacity="0.0" fill-rule="evenodd" stroke="none"/>
    <path d="M-24.2 55.45 Q-22.3 55.2 -20.85 54.45 -18.45 53.1 -18.65 50.7 -18.75 49.45 -19.4 47.75 L-20.4 44.75 Q-21.4 40.65 -19.05 34.3 L-19.15 36.55 Q-19.05 39.1 -18.05 40.5 -16.75 39.05 -15.95 36.55 -14.35 31.6 -16.85 26.5 L-15.65 27.55 -13.1 30.55 Q-9.5 35.65 -9.85 40.9 -8.75 40.25 -7.55 38.6 -5.2 35.35 -4.85 30.5 L-4.35 31.65 -3.55 34.7 Q-3.25 36.45 -3.3 38.15 -3.45 41.4 -4.85 44.5 -3.2 43.45 -1.65 41.15 1.0 37.25 1.05 32.2 L0.95 30.5 1.25 31.7 1.3 31.9 2.2 34.55 Q4.0 38.85 6.75 40.1 L10.15 41.25 13.45 42.05 Q14.65 42.9 15.45 44.25 16.55 45.95 15.65 46.9 14.95 45.75 13.7 45.2 L11.2 44.7 8.55 44.4 Q7.1 44.1 6.25 43.4 4.9 42.3 3.85 40.25 3.0 38.6 2.5 36.65 3.15 39.45 0.5 43.65 -1.75 47.25 -4.5 49.3 -6.65 50.9 -7.55 52.55 -8.3 54.0 -8.75 56.85 -8.8 57.15 -10.15 55.8 L-11.7 53.95 -12.2 51.05 -12.65 47.6 Q-13.4 43.35 -15.85 42.3 -14.9 43.15 -14.6 44.65 -14.3 45.9 -14.45 47.35 -14.9 51.0 -15.6 52.65 -16.8 55.25 -19.5 56.2 L-22.05 56.25 -24.0 55.55 -24.25 55.45 -24.2 55.45 M5.35 29.1 L4.9 28.4 3.7 26.8 Q1.8 24.2 0.15 22.7 -3.45 19.35 -5.0 15.25 -7.45 8.6 -3.05 2.3 L-3.65 3.8 Q-4.3 5.75 -4.25 8.0 -4.15 15.2 2.35 22.7 L3.95 25.15 5.25 28.05 5.35 29.1" fill="#000000" fill-opacity="0.2" fill-rule="evenodd" stroke="none"/>
    <path d="M-24.0 55.55 L-22.05 56.25 -22.85 56.0 Q-23.55 55.7 -24.0 55.55" fill="#89513e" fill-rule="evenodd" stroke="none"/>
    <path d="M5.55 -0.4 Q6.45 -2.75 8.0 -4.75 L9.35 -6.3 Q4.65 0.0 5.4 7.95 5.8 11.9 7.1 14.65 2.6 7.0 5.55 -0.4 M4.15 21.85 Q5.55 23.1 6.6 24.7 L7.15 25.65 Q9.75 30.45 8.15 36.5 8.35 34.35 7.8 31.3 7.35 28.8 6.45 26.65 5.15 23.45 2.95 20.9 L4.15 21.85 M-23.95 44.1 Q-23.9 42.75 -23.5 41.5 L-23.05 40.5 Q-23.3 44.6 -21.8 48.65 L-20.25 51.9 Q-24.1 48.4 -23.95 44.1 M-20.3 -2.6 Q-18.9 -4.85 -16.75 -6.3 L-15.4 -7.05 -14.85 -7.3 Q-20.7 -2.8 -20.95 7.3 -21.1 12.35 -20.05 16.5 -24.8 4.5 -20.3 -2.6" fill="#ffffff" fill-opacity="0.2" fill-rule="evenodd" stroke="none"/>
    <path d="M9.65 15.45 L9.65 14.55 Q11.6 16.9 11.7 19.6 11.75 22.25 11.2 23.5 16.45 19.9 18.55 12.9 20.6 5.85 19.0 0.4 17.3 -5.15 17.0 -5.35 L16.55 -5.7 Q12.65 -11.95 2.25 -12.8 -1.5 -13.15 -5.45 -12.7 L-10.45 -11.7 Q-12.15 -11.1 -13.45 -10.1 L-15.05 -8.7 Q-17.75 -7.9 -19.4 -6.85 -21.2 -5.6 -22.45 -3.5 -24.8 0.45 -24.6 5.75 L-24.05 10.5 -23.2 15.25 Q-22.8 17.4 -23.45 19.95 L-24.95 24.3 Q-25.95 26.95 -26.1 28.7 -26.35 31.2 -25.3 33.45 -24.15 35.85 -23.95 36.7 -23.6 38.3 -24.25 40.25 -25.15 43.15 -25.15 45.1 -25.15 47.8 -23.55 49.6 L-22.15 51.1 Q-21.45 52.05 -21.75 53.05 -22.1 54.35 -23.4 54.8 L-25.85 55.1 -24.35 55.4 -24.2 55.45 -24.25 55.45 -24.0 55.55 Q-23.55 55.7 -22.85 56.0 L-22.05 56.25 -19.5 56.2 Q-16.8 55.25 -15.6 52.65 -14.9 51.0 -14.45 47.35 -14.3 45.9 -14.6 44.65 -14.9 43.15 -15.85 42.3 -13.4 43.35 -12.65 47.6 L-12.2 51.05 -11.7 53.95 -10.15 55.8 Q-8.8 57.15 -8.75 56.85 -8.3 54.0 -7.55 52.55 -6.65 50.9 -4.5 49.3 -1.75 47.25 0.5 43.65 3.15 39.45 2.5 36.65 3.0 38.6 3.85 40.25 4.9 42.3 6.25 43.4 7.1 44.1 8.55 44.4 L11.2 44.7 13.7 45.2 Q14.95 45.75 15.65 46.9 16.55 45.95 15.45 44.25 14.65 42.9 13.45 42.05 L11.7 40.95 10.1 39.6 Q8.85 38.0 9.2 35.15 L9.95 30.55 Q10.1 28.0 8.6 24.95 L8.1 23.95 Q9.1 21.7 9.45 19.05 L9.65 15.45 Z" fill="none" stroke="#000000" stroke-linecap="round" stroke-linejoin="round" stroke-opacity="0.6" stroke-width="1.0"/>
  </g>
</svg>
