<?xml version="1.0" encoding="UTF-8" standalone="no"?>
<svg xmlns:xlink="http://www.w3.org/1999/xlink" height="46.15px" width="46.5px" xmlns="http://www.w3.org/2000/svg">
  <g transform="matrix(1.0, 0.0, 0.0, 1.0, 19.35, 14.2)">
    <path d="M6.8 -10.2 L5.75 -9.75 8.85 -10.15 Q12.3 -10.0 14.95 -9.15 L17.65 -8.2 Q12.75 -10.8 9.7 -10.6 L6.8 -10.2 M26.5 1.85 L21.0 -3.05 Q19.75 -3.8 17.5 -4.1 L13.05 -4.35 9.6 -4.25 8.15 -4.15 Q14.75 -2.45 17.9 -0.85 L20.5 3.1 17.75 2.1 Q15.2 1.15 12.45 1.0 L11.25 1.15 10.0 0.3 Q8.85 -0.55 7.75 -2.15 L10.65 7.55 12.25 13.9 10.65 12.45 Q10.0 14.65 9.45 17.8 9.05 17.9 7.0 16.8 5.75 16.1 4.5 14.5 3.0 12.6 3.15 11.15 L3.05 11.1 1.8 17.3 -0.35 15.1 -3.3 9.2 -3.6 13.0 -2.0 20.5 -6.9 13.8 -6.85 13.65 -8.1 3.2 Q-9.35 6.85 -9.25 10.3 -9.2 13.75 -8.75 15.8 L-15.5 12.4 -15.2 16.0 -15.3 15.7 Q-15.8 14.45 -17.15 12.55 L-18.7 10.55 Q-18.2 6.7 -17.0 3.15 -15.75 -0.3 -14.5 -2.45 L-13.7 -3.8 Q-11.6 -5.6 -10.4 -6.0 L-9.3 -6.35 -15.6 -9.95 -9.45 -9.25 -2.55 -13.55 -2.25 -13.55 1.85 -13.2 Q4.8 -12.85 7.6 -11.2 L9.9 -11.65 Q11.5 -11.7 14.4 -10.65 17.25 -9.65 21.35 -6.6 18.55 -8.05 16.1 -7.95 L13.05 -7.55 18.35 -6.4 18.6 -6.35 20.4 -5.45 Q22.8 -4.25 24.1 -1.75 L26.5 1.85 M21.55 -6.5 L21.6 -6.45 21.45 -6.5 21.55 -6.5 M6.55 6.8 L11.15 12.05 2.15 -1.75 Q2.05 -1.6 3.45 2.1 4.05 3.7 6.55 6.8 M-11.2 28.0 L-9.75 25.0 -9.05 23.85 -9.75 25.05 -11.15 28.0 -11.2 28.0 M-4.35 -7.95 L-12.9 -9.25 -5.45 -7.25 -4.35 -7.95 M-16.8 10.15 L-16.1 7.5 -14.2 1.75 Q-13.05 -1.45 -11.4 -3.55 -12.95 -2.1 -14.6 1.25 -16.3 4.6 -16.8 10.15" fill="#ffffff" fill-opacity="0.0" fill-rule="evenodd" stroke="none"/>
    <path d="M6.8 -10.2 L9.7 -10.6 Q12.75 -10.8 17.65 -8.2 L14.95 -9.15 Q12.3 -10.0 8.85 -10.15 L5.75 -9.75 6.8 -10.2 M6.55 6.8 Q4.05 3.7 3.45 2.1 2.05 -1.6 2.15 -1.75 L11.15 12.05 6.55 6.8 M-16.8 10.15 Q-16.3 4.6 -14.6 1.25 -12.95 -2.1 -11.4 -3.55 -13.05 -1.45 -14.2 1.75 L-16.1 7.5 -16.8 10.15 M-4.35 -7.95 L-5.45 -7.25 -12.9 -9.25 -4.35 -7.95" fill="#ffffff" fill-opacity="0.2" fill-rule="evenodd" stroke="none"/>
    <path d="M17.9 -0.85 Q14.75 -2.45 8.15 -4.15 L9.6 -4.25 13.05 -4.35 17.5 -4.1 Q19.75 -3.8 21.0 -3.05 L26.5 1.85 Q26.2 1.65 23.3 0.35 20.4 -0.9 18.15 -1.1 L17.75 -1.05 17.9 -0.85 M18.35 -6.4 L13.05 -7.55 16.1 -7.95 Q18.55 -8.05 21.35 -6.6 L21.6 -6.5 21.55 -6.5 21.45 -6.5 21.35 -6.5 20.9 -6.55 20.6 -6.6 20.55 -6.6 20.45 -6.6 18.45 -6.7 17.75 -6.65 18.35 -6.4 M-15.6 -9.95 L-9.3 -6.35 -10.4 -6.0 Q-11.6 -5.6 -13.7 -3.8 L-13.1 -4.65 -15.6 -9.95 M-15.2 16.0 L-15.5 12.4 -8.75 15.8 Q-9.2 13.75 -9.25 10.3 -9.35 6.85 -8.1 3.2 L-6.85 13.65 -6.9 13.8 -2.0 20.5 -3.6 13.0 -3.3 9.2 -0.35 15.1 1.8 17.3 3.05 11.1 3.15 11.15 Q3.0 12.6 4.5 14.5 5.75 16.1 7.0 16.8 9.05 17.9 9.45 17.8 8.65 19.1 7.8 23.95 L7.65 25.1 Q7.5 26.05 6.3 27.05 5.15 28.0 5.15 28.7 L5.15 31.3 Q2.9 29.75 1.65 28.35 L0.25 26.75 Q-0.3 28.1 -1.8 29.4 L-3.35 30.75 -2.85 27.5 Q-3.55 28.55 -5.8 29.5 L-8.45 30.55 -7.7 27.1 -11.2 28.05 -11.2 28.0 -11.15 28.0 -9.75 25.05 -9.05 23.85 -10.7 21.0 Q-11.8 18.9 -12.65 18.1 L-15.2 16.0 M12.25 13.9 L10.65 7.55 7.75 -2.15 Q8.85 -0.55 10.0 0.3 L11.25 1.15 11.7 8.8 12.25 13.9" fill="#000000" fill-opacity="0.2" fill-rule="evenodd" stroke="none"/>
    <path d="M26.5 1.85 L24.1 -1.75 Q22.8 -4.25 20.4 -5.45 L18.6 -6.35 18.35 -6.4 17.75 -6.65 18.45 -6.7 20.45 -6.6 20.55 -6.6 20.6 -6.6 20.9 -6.55 21.35 -6.5 21.45 -6.5 21.6 -6.45 21.55 -6.5 21.6 -6.5 21.35 -6.6 Q17.25 -9.65 14.4 -10.65 11.5 -11.7 9.9 -11.65 L7.6 -11.2 Q4.8 -12.85 1.85 -13.2 L-2.25 -13.55 -2.55 -13.55 -9.45 -9.25 -15.6 -9.95 -13.1 -4.65 -13.7 -3.8 -14.5 -2.45 Q-15.75 -0.3 -17.0 3.15 -18.2 6.7 -18.7 10.55 L-17.15 12.55 Q-15.8 14.45 -15.3 15.7 L-15.2 16.0 -12.65 18.1 Q-11.8 18.9 -10.7 21.0 L-9.05 23.85 -9.75 25.0 -11.2 28.0 -11.2 28.05 -7.7 27.1 -8.45 30.55 -5.8 29.5 Q-3.55 28.55 -2.85 27.5 L-3.35 30.75 -1.8 29.4 Q-0.3 28.1 0.25 26.75 L1.65 28.35 Q2.9 29.75 5.15 31.3 L5.15 28.7 Q5.15 28.0 6.3 27.05 7.5 26.05 7.65 25.1 L7.8 23.95 Q8.65 19.1 9.45 17.8 10.0 14.65 10.65 12.45 L12.25 13.9 11.7 8.8 11.25 1.15 12.45 1.0 Q15.2 1.15 17.75 2.1 L20.5 3.1 17.9 -0.85 M17.75 -1.05 L18.15 -1.1 Q20.4 -0.9 23.3 0.35 26.2 1.65 26.5 1.85 Z" fill="none" stroke="#000000" stroke-linecap="square" stroke-linejoin="round" stroke-opacity="0.6" stroke-width="1.0"/>
  </g>
</svg>
