<?xml version="1.0" encoding="UTF-8" standalone="no"?>
<svg xmlns:xlink="http://www.w3.org/1999/xlink" height="40.55px" width="36.0px" xmlns="http://www.w3.org/2000/svg">
  <g transform="matrix(1.0, 0.0, 0.0, 1.0, 18.85, 14.4)">
    <path d="M7.6 21.95 Q6.55 26.8 -7.55 25.3 -11.3 23.05 -13.65 19.4 -14.65 18.0 -15.45 15.9 L-17.05 11.2 Q-17.6 9.3 -17.8 6.7 L-18.0 5.8 Q-18.45 3.7 -18.3 1.05 -18.1 -2.05 -16.85 -4.5 -16.15 -5.95 -14.7 -7.55 -13.65 -8.8 -10.85 -10.65 -7.95 -12.5 -6.1 -13.15 L-2.7 -13.75 0.3 -13.85 7.3 -13.55 Q9.55 -13.05 12.45 -10.95 15.35 -8.9 15.85 -8.05 L16.6 -6.65 Q16.9 -6.05 15.75 -3.2 L14.25 -2.3 Q12.5 -1.1 12.15 -0.2 11.95 0.15 12.95 2.8 14.05 5.55 14.0 6.1 14.05 7.9 13.65 9.05 13.2 10.1 10.55 12.35 7.9 14.55 7.6 21.95" fill="#ffffff" fill-opacity="0.0" fill-rule="evenodd" stroke="none"/>
    <path d="M15.75 -3.2 L14.25 -2.3 Q12.5 -1.1 12.15 -0.2 11.95 0.15 12.95 2.8 14.05 5.55 14.0 6.1 14.05 7.9 13.65 9.05 13.2 10.1 10.55 12.35 7.9 14.55 7.6 21.95" fill="none" stroke="#000000" stroke-linecap="round" stroke-linejoin="round" stroke-opacity="0.6" stroke-width="1.0"/>
    <path d="M7.6 21.95 Q6.55 26.8 -7.55 25.3 -11.3 23.05 -13.65 19.4 -14.65 18.0 -15.45 15.9 L-17.05 11.2 Q-17.6 9.3 -17.8 6.7 L-18.0 5.8 Q-18.45 3.7 -18.3 1.05 -18.1 -2.05 -16.85 -4.5 -16.15 -5.95 -14.7 -7.55 -13.65 -8.8 -10.85 -10.65 -7.95 -12.5 -6.1 -13.15 L-2.7 -13.75 0.3 -13.85 7.3 -13.55 Q9.55 -13.05 12.45 -10.95 15.35 -8.9 15.85 -8.05 L16.6 -6.65 Q16.9 -6.05 15.75 -3.2 Z" fill="none" stroke="#000000" stroke-linecap="round" stroke-linejoin="round" stroke-opacity="0.6" stroke-width="1.0"/>
  </g>
</svg>
