<?xml version="1.0" encoding="UTF-8" standalone="no"?>
<svg xmlns:xlink="http://www.w3.org/1999/xlink" height="10.2px" width="21.8px" xmlns="http://www.w3.org/2000/svg">
  <g transform="matrix(1.0, 0.0, 0.0, 1.0, 10.9, 0.5)">
    <path d="M1.25 3.6 L0.45 3.1 Q-0.15 2.9 -0.45 3.1 L-1.25 3.6 -1.5 2.95 -0.5 2.4 0.5 2.4 1.5 2.95 1.25 3.6" fill="#ffffff" fill-opacity="0.0" fill-rule="evenodd" stroke="none"/>
    <path d="M1.5 2.95 Q1.85 2.05 2.55 1.35 3.9 0.0 5.8 0.0 7.7 0.0 9.05 1.35 10.4 2.7 10.4 4.6 10.4 6.5 9.05 7.85 7.7 9.2 5.8 9.2 3.9 9.2 2.55 7.85 1.2 6.5 1.2 4.6 L1.25 3.6 1.5 2.95 M-1.25 3.6 L-1.2 4.6 Q-1.2 6.5 -2.55 7.85 -3.9 9.2 -5.8 9.2 -7.7 9.2 -9.05 7.85 -10.4 6.5 -10.4 4.6 -10.4 2.7 -9.05 1.35 -7.7 0.0 -5.8 0.0 -3.9 0.0 -2.55 1.35 -1.85 2.05 -1.5 2.95 L-1.25 3.6 M6.75 0.6 L5.85 0.45 Q4.95 0.45 4.15 0.8 L3.7 1.05 1.75 5.3 1.9 5.85 Q2.15 6.8 2.9 7.55 L3.45 7.95 6.75 0.6 M-7.05 0.7 L-9.75 5.5 -8.7 7.55 -8.15 8.0 -4.1 0.8 -5.7 0.45 -6.6 0.55 -7.05 0.7" fill="#ffffff" fill-opacity="0.4" fill-rule="evenodd" stroke="none"/>
    <path d="M6.75 0.6 L3.45 7.95 2.9 7.55 Q2.15 6.8 1.9 5.85 L1.75 5.3 3.7 1.05 4.15 0.8 Q4.95 0.45 5.85 0.45 L6.75 0.6 M-7.05 0.7 L-6.6 0.55 -5.7 0.45 -4.1 0.8 -8.15 8.0 -8.7 7.55 -9.75 5.5 -7.05 0.7" fill="#ffffff" fill-opacity="0.54901963" fill-rule="evenodd" stroke="none"/>
    <path d="M1.5 2.95 Q1.85 2.05 2.55 1.35 3.9 0.0 5.8 0.0 7.7 0.0 9.05 1.35 10.4 2.7 10.4 4.6 10.4 6.5 9.05 7.85 7.7 9.2 5.8 9.2 3.9 9.2 2.55 7.85 1.2 6.5 1.2 4.6 M1.25 3.6 L0.45 3.1 Q-0.15 2.9 -0.45 3.1 L-1.25 3.6 -1.5 2.95 -0.5 2.4 0.5 2.4 1.5 2.95 1.25 3.6 M-1.2 4.6 Q-1.2 6.5 -2.55 7.85 -3.9 9.2 -5.8 9.2 -7.7 9.2 -9.05 7.85 -10.4 6.5 -10.4 4.6 -10.4 2.7 -9.05 1.35 -7.7 0.0 -5.8 0.0 -3.9 0.0 -2.55 1.35 -1.85 2.05 -1.5 2.95" fill="none" stroke="#000000" stroke-linecap="butt" stroke-linejoin="miter-clip" stroke-miterlimit="10.0" stroke-opacity="0.6" stroke-width="1.0"/>
    <path d="M1.2 4.6 L1.25 3.6 M-1.25 3.6 L-1.2 4.6" fill="none" stroke="#000000" stroke-linecap="butt" stroke-linejoin="miter-clip" stroke-miterlimit="10.0" stroke-opacity="0.4" stroke-width="1.0"/>
  </g>
</svg>
