<?xml version="1.0" encoding="UTF-8" standalone="no"?>
<svg xmlns:xlink="http://www.w3.org/1999/xlink" height="39.35px" width="32.2px" xmlns="http://www.w3.org/2000/svg">
  <g transform="matrix(1.0, 0.0, 0.0, 1.0, 17.95, 14.6)">
    <path d="M10.35 12.85 L9.4 15.75 Q8.25 21.6 7.9 22.3 7.55 23.0 4.3 23.95 L-0.9 24.25 -5.75 23.4 -8.95 21.6 -10.8 20.2 Q-11.6 18.6 -11.6 17.75 L-15.05 11.55 -16.75 5.6 Q-17.15 5.1 -17.45 3.4 L-17.1 1.9 -16.75 0.9 Q-16.1 -3.55 -15.7 -4.55 -15.35 -5.4 -13.0 -8.0 -11.9 -9.55 -10.1 -10.5 L-7.7 -11.75 -5.8 -13.1 -3.45 -13.25 -1.9 -13.9 0.45 -13.85 2.2 -14.1 4.5 -13.55 5.3 -13.65 6.55 -13.55 7.8 -13.1 8.45 -12.85 Q8.85 -12.6 9.15 -11.1 L9.55 -9.1 9.15 -8.85 8.45 -8.6 8.75 -8.2 7.75 -7.2 8.0 -7.05 7.9 -6.7 7.0 -5.5 7.25 -5.45 7.4 -5.4 Q7.45 -4.5 7.0 -3.7 L8.05 -3.15 Q7.8 -2.35 10.0 0.45 L11.1 1.25 13.75 2.3 Q13.15 6.85 12.0 11.3 11.1 11.9 10.35 12.85" fill="#ffffff" fill-opacity="0.0" fill-rule="evenodd" stroke="none"/>
    <path d="M10.35 12.85 Q11.1 11.9 12.0 11.3 13.15 6.85 13.75 2.3 L11.1 1.25 10.0 0.45 Q7.8 -2.35 8.05 -3.15 L7.0 -3.7 Q7.45 -4.5 7.4 -5.4 L7.25 -5.45 7.0 -5.5 7.9 -6.7 8.0 -7.05 7.75 -7.2 8.75 -8.2 8.45 -8.6 9.15 -8.85 9.55 -9.1" fill="none" stroke="#353535" stroke-linecap="round" stroke-linejoin="round" stroke-opacity="0.69803923" stroke-width="1.0"/>
    <path d="M9.55 -9.1 L9.15 -11.1 Q8.85 -12.6 8.45 -12.85 L7.8 -13.1 6.55 -13.55 5.3 -13.65 4.5 -13.55 2.2 -14.1 0.45 -13.85 -1.9 -13.9 -3.45 -13.25 -5.8 -13.1 -7.7 -11.75 -10.1 -10.5 Q-11.9 -9.55 -13.0 -8.0 -15.35 -5.4 -15.7 -4.55 -16.1 -3.55 -16.75 0.9 L-17.1 1.9 -17.45 3.4 Q-17.15 5.1 -16.75 5.6 L-15.05 11.55 -11.6 17.75 Q-11.6 18.6 -10.8 20.2 L-8.95 21.6 -5.75 23.4 -0.9 24.25 4.3 23.95 Q7.55 23.0 7.9 22.3 8.25 21.6 9.4 15.75 L10.35 12.85 Z" fill="none" stroke="#353535" stroke-linecap="round" stroke-linejoin="round" stroke-width="1.0"/>
  </g>
</svg>
