<?xml version="1.0" encoding="UTF-8" standalone="no"?>
<svg xmlns:xlink="http://www.w3.org/1999/xlink" height="37.5px" width="31.4px" xmlns="http://www.w3.org/2000/svg">
  <g transform="matrix(1.0, 0.0, 0.0, 1.0, 17.3, 14.05)">
    <path d="M9.95 13.05 Q8.05 15.25 7.65 18.4 7.25 21.5 6.15 22.05 -4.15 23.8 -9.85 22.2 -13.1 18.5 -14.3 14.55 -16.15 8.7 -16.6 6.5 -17.05 4.25 -16.55 -3.8 -13.7 -7.15 -10.45 -9.65 L-6.15 -12.65 Q-5.1 -13.15 -1.1 -13.45 L5.35 -13.2 Q7.8 -12.65 8.4 -12.05 8.95 -11.5 10.25 -11.15 11.5 -10.8 12.5 -9.55 13.25 -8.65 13.5 -7.0 L13.6 -5.85 10.8 -5.8 Q9.8 -5.95 7.85 -4.8 5.9 -3.7 5.5 -2.6 5.65 -0.3 7.35 1.05 L12.0 5.1 Q12.45 6.45 12.05 7.15 11.75 7.75 11.75 9.6 11.7 11.4 9.95 13.05" fill="#ffffff" fill-opacity="0.0" fill-rule="evenodd" stroke="none"/>
    <path d="M9.95 13.05 Q8.05 15.25 7.65 18.4 7.25 21.5 6.15 22.05 -4.15 23.8 -9.85 22.2 -13.1 18.5 -14.3 14.55 -16.15 8.7 -16.6 6.5 -17.05 4.25 -16.55 -3.8 -13.7 -7.15 -10.45 -9.65 L-6.15 -12.65 Q-5.1 -13.15 -1.1 -13.45 L5.35 -13.2 Q7.8 -12.65 8.4 -12.05 8.95 -11.5 10.25 -11.15 11.5 -10.8 12.5 -9.55 13.25 -8.65 13.5 -7.0 L13.6 -5.85" fill="none" stroke="#000000" stroke-linecap="round" stroke-linejoin="round" stroke-opacity="0.6" stroke-width="1.0"/>
    <path d="M13.6 -5.85 L10.8 -5.8 Q9.8 -5.95 7.85 -4.8 5.9 -3.7 5.5 -2.6 5.65 -0.3 7.35 1.05 L12.0 5.1 Q12.45 6.45 12.05 7.15 11.75 7.75 11.75 9.6 11.7 11.4 9.95 13.05 Z" fill="none" stroke="#000000" stroke-linecap="round" stroke-linejoin="round" stroke-opacity="0.6" stroke-width="1.0"/>
  </g>
</svg>
