<?xml version="1.0" encoding="UTF-8" standalone="no"?>
<svg xmlns:xlink="http://www.w3.org/1999/xlink" height="29.85px" width="17.25px" xmlns="http://www.w3.org/2000/svg">
  <g transform="matrix(1.0, 0.0, 0.0, 1.0, 8.65, 14.95)">
    <path d="M7.35 -10.5 L7.9 -10.0 Q8.25 -8.8 6.25 -7.65 3.0 -3.5 1.75 -4.4 1.5 -4.5 1.35 -4.65 L1.3 -4.75 1.05 -5.05 0.85 -5.5 Q0.75 -5.9 0.8 -6.25 0.5 -5.15 -0.1 -5.6 -0.65 -6.0 -0.85 -6.9 L-1.1 -6.9 -1.3 -6.95 -1.05 -7.95 Q-0.8 -8.55 -0.85 -8.95 L-1.8 -8.95 Q-2.35 -9.1 -2.35 -9.6 -2.3 -10.15 -1.85 -10.2 -1.55 -9.5 -1.2 -9.35 L-0.6 -9.3 -0.05 -9.3 0.65 -9.35 1.35 -9.35 0.65 -8.55 0.05 -7.75 Q0.0 -7.25 0.35 -7.2 L1.1 -7.2 1.75 -6.8 2.45 -6.7 Q2.8 -6.9 2.75 -7.7 L2.45 -8.8 Q3.2 -8.15 3.25 -9.2 3.35 -10.15 3.05 -10.7 3.95 -10.35 4.05 -9.8 L3.95 -8.35 4.95 -8.65 5.75 -9.15 5.9 -9.55 6.15 -9.95 7.35 -10.5" fill="#000000" fill-opacity="0.09803922" fill-rule="evenodd" stroke="none"/>
    <path d="M-1.85 -10.2 L-1.7 -10.2 -0.7 -10.1 Q0.0 -10.45 0.15 -11.5 L0.2 -12.4 0.35 -13.25 1.05 -13.3 1.9 -13.3 Q1.75 -14.0 2.2 -14.2 L3.2 -14.0 3.65 -13.0 3.85 -11.95 4.25 -12.75 Q4.55 -13.15 4.95 -13.1 L5.1 -12.2 5.15 -11.25 Q5.9 -12.0 7.1 -11.95 L6.95 -11.2 6.65 -10.5 7.35 -10.5 6.15 -9.95 5.9 -9.55 5.75 -9.15 4.95 -8.65 3.95 -8.35 4.05 -9.8 Q3.95 -10.35 3.05 -10.7 3.35 -10.15 3.25 -9.2 3.2 -8.15 2.45 -8.8 L2.75 -7.7 Q2.8 -6.9 2.45 -6.7 L1.75 -6.8 1.1 -7.2 0.35 -7.2 Q0.0 -7.25 0.05 -7.75 L0.65 -8.55 1.35 -9.35 0.65 -9.35 -0.05 -9.3 -0.6 -9.3 -1.2 -9.35 Q-1.55 -9.5 -1.85 -10.2 M1.75 -4.4 Q0.4 0.45 -0.75 7.15 L-1.85 14.25 -3.25 12.7 Q-3.65 7.55 -0.7 0.0 L1.35 -4.65 Q1.5 -4.5 1.75 -4.4 M1.05 -5.05 L0.2 -4.35 Q-1.3 -3.0 -1.85 -1.7 L-3.5 1.9 Q-4.85 4.85 -4.6 5.3 L-5.1 3.75 -5.4 2.05 Q-6.1 2.25 -6.85 3.05 L-8.0 4.35 -6.1 0.35 Q-4.8 -1.75 -3.3 -3.1 -2.25 -4.05 -0.35 -4.95 L0.85 -5.5 1.05 -5.05" fill="#ffffff" fill-opacity="0.0" fill-rule="evenodd" stroke="none"/>
    <path d="M-1.85 -10.2 L-1.7 -10.2 -0.7 -10.1 Q0.0 -10.45 0.15 -11.5 L0.2 -12.4 0.35 -13.25 1.05 -13.3 1.9 -13.3 Q1.75 -14.0 2.2 -14.2 L3.2 -14.0 3.65 -13.0 3.85 -11.95 4.25 -12.75 Q4.55 -13.15 4.95 -13.1 L5.1 -12.2 5.15 -11.25 Q5.9 -12.0 7.1 -11.95 L6.95 -11.2 6.65 -10.5 7.35 -10.5 7.9 -10.0 Q8.25 -8.8 6.25 -7.65 3.0 -3.5 1.75 -4.4 0.4 0.45 -0.75 7.15 L-1.85 14.25 -3.25 12.7 Q-3.65 7.55 -0.7 0.0 L1.35 -4.65 1.3 -4.75 1.05 -5.05 0.2 -4.35 Q-1.3 -3.0 -1.85 -1.7 L-3.5 1.9 Q-4.85 4.85 -4.6 5.3 L-5.1 3.75 -5.4 2.05 Q-6.1 2.25 -6.85 3.05 L-8.0 4.35 -6.1 0.35 Q-4.8 -1.75 -3.3 -3.1 -2.25 -4.05 -0.35 -4.95 L0.85 -5.5 Q0.75 -5.9 0.8 -6.25 0.5 -5.15 -0.1 -5.6 -0.65 -6.0 -0.85 -6.9 L-1.1 -6.9 -1.3 -6.95 -1.05 -7.95 Q-0.8 -8.55 -0.85 -8.95 L-1.8 -8.95 Q-2.35 -9.1 -2.35 -9.6 -2.3 -10.15 -1.85 -10.2 Z" fill="none" stroke="#000000" stroke-linecap="square" stroke-linejoin="round" stroke-opacity="0.4" stroke-width="1.0"/>
  </g>
</svg>
