<?xml version="1.0" encoding="UTF-8" standalone="no"?>
<svg xmlns:xlink="http://www.w3.org/1999/xlink" height="46.55px" width="33.2px" xmlns="http://www.w3.org/2000/svg">
  <g transform="matrix(1.0, 0.0, 0.0, 1.0, 16.7, 21.35)">
    <path d="M1.0 -19.7 L1.9 -18.4 1.9 -18.35 2.8 -16.1 3.0 -14.1 3.1 -14.6 3.15 -14.75 3.15 -16.7 Q3.05 -17.9 2.6 -18.65 L2.1 -20.4 2.2 -20.4 2.9 -19.05 3.4 -17.6 3.65 -15.45 3.9 -13.35 Q5.1 -16.95 4.65 -19.6 L6.3 -18.2 6.65 -17.65 6.95 -17.0 7.0 -16.85 7.2 -15.8 7.2 -15.75 6.9 -14.5 6.35 -13.6 6.15 -13.3 6.1 -13.25 6.0 -13.1 Q4.6 -11.55 2.15 -11.1 L-1.45 -10.9 -1.0 -8.3 -1.4 -10.0 -1.55 -10.9 -2.95 -11.0 Q-2.85 -12.95 -3.2 -14.6 -3.6 -16.4 -4.5 -17.55 L-6.05 -19.1 Q-2.8 -16.95 -2.2 -13.3 -2.1 -15.1 -2.95 -16.9 -3.65 -18.4 -5.1 -19.95 L-5.0 -19.95 -4.85 -20.0 -4.15 -19.4 -4.35 -19.45 -3.85 -19.1 -3.65 -18.95 -2.25 -17.2 -0.85 -14.65 -0.8 -13.95 -0.7 -14.25 -0.55 -13.75 -0.75 -16.55 Q-1.0 -17.9 -1.8 -19.05 L-3.0 -20.45 -2.1 -20.55 -0.7 -19.6 0.5 -18.45 Q1.25 -17.45 1.7 -15.95 L2.35 -13.35 Q2.5 -15.25 1.75 -17.2 1.1 -19.0 -0.2 -20.65 L0.2 -20.6 1.0 -19.7 M15.6 5.15 L15.6 5.3 15.4 6.3 14.5 8.6 14.5 8.65 10.35 15.6 6.8 21.0 Q4.0 24.7 -0.2 24.55 -2.45 24.4 -3.85 23.7 -5.75 22.75 -7.55 20.2 -10.2 16.45 -12.95 11.55 L-13.7 10.2 -13.7 10.1 Q-15.95 7.5 -16.05 2.55 -16.15 -1.8 -14.95 -5.05 L-14.6 -5.55 Q-15.75 -2.95 -15.65 0.4 -15.5 3.25 -14.8 5.35 -14.0 7.6 -12.3 9.8 L-9.35 13.1 -8.65 13.7 -7.95 14.3 Q-10.5 10.6 -11.6 5.85 -12.6 1.3 -12.05 -3.4 L-12.15 -1.65 -12.2 0.15 Q-12.15 1.6 -11.6 3.25 L-10.55 6.3 Q-9.95 7.75 -8.25 10.25 -6.45 12.85 -5.9 14.15 L-7.35 10.0 Q-8.25 7.5 -8.35 5.7 L-8.35 0.85 -8.15 -4.05 -8.05 -0.2 -7.45 3.6 -6.25 6.8 Q-5.3 8.9 -5.05 10.05 L-5.75 5.85 -6.2 1.55 -6.2 -4.0 -5.7 -9.5 -5.4 -0.1 Q-5.05 4.85 -4.2 9.15 -4.15 8.45 -4.4 7.25 L-4.65 5.35 -4.65 1.95 -4.4 -1.45 -4.05 -6.7 -3.9 -11.05 Q-3.85 -8.6 -3.25 -4.7 -2.55 0.45 -2.4 2.55 L-2.4 7.9 -2.4 13.2 Q-2.4 8.0 -1.65 2.2 L-1.05 -2.95 Q-0.85 -5.85 -1.0 -8.1 -0.55 -4.75 -0.45 -0.6 L-0.25 10.2 0.05 5.25 0.5 -0.25 Q0.65 -1.95 0.4 -5.25 0.15 -8.55 0.25 -10.15 L0.65 -8.2 1.2 -6.25 2.45 1.05 2.7 5.95 2.75 9.05 2.9 5.6 3.2 0.3 Q3.35 -5.95 1.95 -10.05 3.45 -7.95 4.55 -4.8 L6.0 0.9 Q6.7 4.25 6.85 6.7 L7.1 4.2 7.3 1.7 7.25 -2.8 Q7.05 -5.35 6.4 -7.25 L5.65 -8.75 5.0 -10.25 Q7.65 -5.9 8.9 -1.4 10.15 3.1 10.05 8.15 10.7 6.35 10.95 4.1 L11.1 -0.1 10.6 -4.45 9.95 -8.75 Q12.45 -6.25 12.9 -0.9 13.05 0.55 12.55 3.1 12.05 5.75 12.1 6.95 13.55 4.75 13.9 1.4 L14.0 -4.55 Q14.7 -2.95 15.1 -0.45 L15.55 3.8 15.6 5.15" fill="#000000" fill-opacity="0.2" fill-rule="evenodd" stroke="none"/>
    <path d="M2.6 -18.65 Q2.0 -19.55 0.95 -19.85 L1.0 -19.7 0.2 -20.6 -0.2 -20.65 Q1.1 -19.0 1.75 -17.2 2.5 -15.25 2.35 -13.35 L1.7 -15.95 Q1.25 -17.45 0.5 -18.45 L-0.7 -19.6 -2.1 -20.55 -3.0 -20.45 -1.8 -19.05 Q-1.0 -17.9 -0.75 -16.55 L-0.55 -13.75 -0.7 -14.25 Q-0.55 -15.3 -0.8 -16.4 -1.35 -18.85 -4.15 -19.4 L-4.85 -20.0 -3.8 -20.3 Q-0.25 -21.1 3.25 -20.2 5.2 -19.7 6.3 -18.2 L4.65 -19.6 Q5.1 -16.95 3.9 -13.35 L3.65 -15.45 3.4 -17.6 2.9 -19.05 2.2 -20.4 2.1 -20.4 2.6 -18.65 M6.0 -13.1 L5.95 -13.05 Q9.55 -11.95 11.9 -9.55 16.05 -5.3 15.85 2.55 L15.6 5.15 15.55 3.8 15.1 -0.45 Q14.7 -2.95 14.0 -4.55 L13.9 1.4 Q13.55 4.75 12.1 6.95 12.05 5.75 12.55 3.1 13.05 0.55 12.9 -0.9 12.45 -6.25 9.95 -8.75 L10.6 -4.45 11.1 -0.1 10.95 4.1 Q10.7 6.35 10.05 8.15 10.15 3.1 8.9 -1.4 7.65 -5.9 5.0 -10.25 L5.65 -8.75 6.4 -7.25 Q7.05 -5.35 7.25 -2.8 L7.3 1.7 7.1 4.2 6.85 6.7 Q6.7 4.25 6.0 0.9 L4.55 -4.8 Q3.45 -7.95 1.95 -10.05 3.35 -5.95 3.2 0.3 L2.9 5.6 2.75 9.05 2.7 5.95 2.45 1.05 1.2 -6.25 0.65 -8.2 0.25 -10.15 Q0.15 -8.55 0.4 -5.25 0.65 -1.95 0.5 -0.25 L0.05 5.25 -0.25 10.2 -0.45 -0.6 Q-0.55 -4.75 -1.0 -8.1 -0.85 -5.85 -1.05 -2.95 L-1.65 2.2 Q-2.4 8.0 -2.4 13.2 L-2.4 7.9 -2.4 2.55 Q-2.55 0.45 -3.25 -4.7 -3.85 -8.6 -3.9 -11.05 L-4.05 -6.7 -4.4 -1.45 -4.65 1.95 -4.65 5.35 -4.4 7.25 Q-4.15 8.45 -4.2 9.15 -5.05 4.85 -5.4 -0.1 L-5.7 -9.5 -6.2 -4.0 -6.2 1.55 -5.75 5.85 -5.05 10.05 Q-5.3 8.9 -6.25 6.8 L-7.45 3.6 -8.05 -0.2 -8.15 -4.05 -8.35 0.85 -8.35 5.7 Q-8.25 7.5 -7.35 10.0 L-5.9 14.15 Q-6.45 12.85 -8.25 10.25 -9.95 7.75 -10.55 6.3 L-11.6 3.25 Q-12.15 1.6 -12.2 0.15 L-12.15 -1.65 -12.05 -3.4 Q-12.6 1.3 -11.6 5.85 -10.5 10.6 -7.95 14.3 L-8.65 13.7 -9.35 13.1 -12.3 9.8 Q-14.0 7.6 -14.8 5.35 -15.5 3.25 -15.65 0.4 -15.75 -2.95 -14.6 -5.55 L-14.95 -5.05 Q-14.0 -7.65 -12.15 -9.55 -9.35 -12.35 -4.75 -13.4 L-5.65 -14.6 Q-7.05 -16.05 -9.05 -16.15 -8.45 -18.25 -6.35 -19.4 L-5.1 -19.95 Q-3.65 -18.4 -2.95 -16.9 -2.1 -15.1 -2.2 -13.3 -2.8 -16.95 -6.05 -19.1 L-4.5 -17.55 Q-3.6 -16.4 -3.2 -14.6 -2.85 -12.95 -2.95 -11.0 L-1.55 -10.9 -1.4 -10.0 -1.0 -8.3 -1.45 -10.9 2.15 -11.1 Q4.6 -11.55 6.0 -13.1 M-0.85 -14.65 L-2.25 -17.2 -3.65 -18.95 -2.65 -18.0 Q-1.2 -16.45 -0.85 -14.65" fill="#ffffff" fill-opacity="0.0" fill-rule="evenodd" stroke="none"/>
    <path d="M1.0 -19.7 L0.95 -19.85 Q2.0 -19.55 2.6 -18.65 3.05 -17.9 3.15 -16.7 L3.15 -14.75 3.1 -14.6 3.0 -14.1 2.8 -16.1 1.9 -18.35 1.9 -18.4 1.0 -19.7 M-4.15 -19.4 Q-1.35 -18.85 -0.8 -16.4 -0.55 -15.3 -0.7 -14.25 L-0.8 -13.95 -0.85 -14.65 Q-1.2 -16.45 -2.65 -18.0 L-3.65 -18.95 -3.85 -19.1 -4.35 -19.45 -4.15 -19.4" fill="#ffffff" fill-opacity="0.2" fill-rule="evenodd" stroke="none"/>
    <path d="M7.0 -16.85 L6.95 -17.0 6.65 -17.65 7.0 -16.85" fill="#945c47" fill-rule="evenodd" stroke="none"/>
    <path d="M6.3 -18.2 Q5.2 -19.7 3.25 -20.2 -0.25 -21.1 -3.8 -20.3 L-4.85 -20.0 -5.0 -19.95 M6.65 -17.65 L6.3 -18.2 M6.65 -17.65 L7.0 -16.85 7.2 -15.8 7.2 -15.75 6.9 -14.5 6.35 -13.6 6.15 -13.3 6.1 -13.25 6.0 -13.1 5.95 -13.05 Q9.55 -11.95 11.9 -9.55 16.05 -5.3 15.85 2.55 L15.6 5.15 15.6 5.3 15.4 6.3 14.5 8.6 14.5 8.65 10.35 15.6 6.8 21.0 Q4.0 24.7 -0.2 24.55 -2.45 24.4 -3.85 23.7 -5.75 22.75 -7.55 20.2 -10.2 16.45 -12.95 11.55 L-13.7 10.2 -13.7 10.1 Q-15.95 7.5 -16.05 2.55 -16.15 -1.8 -14.95 -5.05 -14.0 -7.65 -12.15 -9.55 -9.35 -12.35 -4.75 -13.4 L-5.65 -14.6 Q-7.05 -16.05 -9.05 -16.15 -8.45 -18.25 -6.35 -19.4 L-5.1 -19.95" fill="none" stroke="#000000" stroke-linecap="square" stroke-linejoin="round" stroke-opacity="0.6" stroke-width="1.0"/>
  </g>
</svg>
