<?xml version="1.0" encoding="UTF-8" standalone="no"?>
<svg xmlns:xlink="http://www.w3.org/1999/xlink" height="6.8px" width="23.25px" xmlns="http://www.w3.org/2000/svg">
  <g transform="matrix(1.0, 0.0, 0.0, 1.0, 0.0, 0.0)">
    <path d="M22.5 0.45 Q23.2 0.8 23.25 1.7 L23.2 2.75 22.75 5.05 Q22.45 5.9 21.5 6.35 L22.5 0.45 M19.6 6.75 L19.25 6.8 17.7 6.75 17.45 6.75 17.2 6.7 16.6 6.55 16.45 6.5 15.6 6.05 15.2 5.6 14.95 5.15 Q14.0 3.55 13.8 2.35 13.6 0.7 16.4 0.2 L17.15 0.1 17.35 0.1 18.55 0.0 19.45 0.0 20.0 0.05 20.9 0.1 19.6 6.75 M8.45 0.65 Q9.65 1.25 9.45 2.35 9.25 3.8 8.05 5.6 L7.5 6.15 8.45 0.65 M5.6 6.75 L5.1 6.8 3.15 6.7 2.65 6.6 1.3 6.05 Q0.7 5.65 0.5 5.05 0.15 4.0 0.05 2.75 L0.0 1.7 Q0.05 0.9 0.6 0.5 L2.0 0.1 3.7 0.0 5.8 0.1 6.15 0.1 6.4 0.15 6.85 0.2 5.6 6.75" fill="#ffffff" fill-opacity="0.4" fill-rule="evenodd" stroke="none"/>
    <path d="M20.9 0.1 L21.25 0.1 22.5 0.45 21.5 6.35 20.6 6.6 19.6 6.75 20.9 0.1 M6.85 0.2 L8.45 0.65 7.5 6.15 6.8 6.5 6.05 6.7 5.6 6.75 6.85 0.2" fill="#ffffff" fill-opacity="0.54901963" fill-rule="evenodd" stroke="none"/>
  </g>
</svg>
