<?xml version="1.0" encoding="UTF-8" standalone="no"?>
<svg xmlns:xlink="http://www.w3.org/1999/xlink" height="50.25px" width="54.7px" xmlns="http://www.w3.org/2000/svg">
  <g transform="matrix(1.0, 0.0, 0.0, 1.0, 27.3, 21.15)">
    <path d="M-18.1 4.05 L-18.15 4.05 Q-19.3 4.05 -20.4 2.1 L-21.3 0.55 -22.3 -0.65 Q-23.2 0.5 -24.15 0.45 -25.0 0.4 -25.45 -0.4 -25.85 -1.2 -25.45 -2.05 -25.0 -3.0 -23.65 -3.4 -22.1 -3.8 -21.5 -3.15 L-20.6 -1.4 Q-19.8 -0.15 -18.55 -0.2 L-18.55 -0.1 -18.1 4.05 M-15.55 -7.0 Q-16.1 -7.55 -16.05 -8.55 L-15.7 -10.65 -15.7 -11.35 Q-16.1 -10.95 -16.75 -10.85 L-18.0 -10.85 Q-18.1 -12.85 -17.05 -13.85 -15.9 -14.95 -13.9 -14.25 L-14.2 -11.75 -14.35 -10.65 -14.35 -9.25 -12.1 -9.55 -10.55 -10.15 Q-8.05 -11.2 -6.6 -11.05 -4.35 -10.85 -2.4 -9.7 0.1 -8.25 -0.1 -6.25 L-0.5 -6.1 -0.3 -6.05 0.4 -6.6 Q1.2 -7.8 0.25 -8.85 L-0.7 -9.75 -1.7 -10.6 Q-2.45 -11.35 -2.9 -12.4 L-3.1 -12.95 -3.45 -14.65 -3.45 -14.75 Q-3.6 -16.4 -3.1 -17.55 L-2.75 -18.2 -2.15 -18.95 Q-1.2 -19.8 0.3 -19.9 L2.95 -19.8 5.45 -20.25 7.85 -20.35 8.3 -19.8 8.75 -19.15 9.75 -17.9 Q10.0 -17.45 9.55 -16.35 L15.6 -15.85 16.35 -15.45 17.05 -15.2 17.75 -15.45 18.55 -15.7 Q20.85 -15.55 20.75 -13.6 20.65 -12.25 19.45 -10.3 19.3 -10.0 18.05 -11.05 L16.75 -12.25 Q14.85 -13.8 12.85 -14.1 10.7 -14.4 8.6 -13.25 L7.7 -12.65 6.6 -12.35 Q5.15 -11.7 3.95 -10.35 L3.05 -9.35 4.3 -8.15 4.7 -8.45 Q5.75 -9.0 7.25 -8.9 L9.85 -8.4 Q12.85 -7.65 14.45 -4.8 L14.75 -4.25 14.6 -5.35 14.3 -6.95 13.8 -8.45 Q15.1 -8.4 15.9 -7.75 L17.7 -5.6 Q18.75 -4.05 19.55 -3.75 L21.0 -3.7 Q21.35 -3.95 21.55 -4.7 L21.9 -6.05 Q22.15 -6.85 22.6 -7.15 23.95 -8.1 25.45 -7.4 26.95 -6.7 26.75 -5.05 26.1 -5.05 25.0 -4.45 23.95 -3.9 23.15 -3.9 L22.2 -1.4 Q21.4 -0.1 20.05 -0.1 19.05 -0.15 17.75 -1.35 L16.85 -2.25 17.1 -1.85 Q18.35 0.05 18.6 1.15 L18.9 3.3 18.9 3.35 17.7 4.2 16.5 4.95 16.2 5.05 15.95 3.35 15.25 0.7 15.15 1.0 14.4 3.25 12.95 6.95 12.55 8.35 Q11.85 10.9 11.95 13.2 L11.95 13.25 Q12.45 12.15 13.65 11.0 L15.35 9.05 16.2 8.7 Q18.1 7.75 18.5 5.9 L18.75 5.95 18.3 8.25 17.4 10.35 16.2 12.25 15.3 13.25 14.85 13.8 9.55 13.8 9.5 12.45 Q9.5 11.05 9.8 9.4 L10.95 4.3 11.85 -0.05 Q12.0 -1.7 11.45 -2.85 L10.6 -4.0 Q9.7 -4.85 8.4 -4.75 L8.1 -4.7 6.0 -4.15 4.25 -3.5 Q3.6 -3.15 2.55 -2.9 L5.3 -2.4 Q7.25 -2.05 8.2 -1.5 9.6 -0.75 10.0 0.95 10.6 3.3 8.8 6.65 L6.45 10.3 6.4 10.35 5.4 11.7 4.05 13.6 3.95 13.8 1.1 13.8 Q1.4 12.75 1.95 11.8 L2.0 11.7 2.1 11.25 Q3.3 8.55 5.25 7.35 3.3 8.55 2.1 11.25 L2.45 8.9 2.75 7.4 Q2.9 6.3 2.5 6.0 2.15 5.75 1.4 6.2 L0.3 6.9 -1.05 7.4 Q-1.8 7.55 -2.3 7.0 -2.75 6.45 -2.75 5.7 L-2.3 4.45 Q-1.7 3.55 -0.4 2.6 L1.85 1.05 Q2.15 0.85 2.4 0.7 L1.9 0.75 -0.15 0.35 Q-0.15 1.55 -0.75 2.5 -1.6 3.75 -3.35 4.35 -5.8 5.15 -5.8 6.6 -5.85 7.85 -4.15 9.75 L-3.35 10.6 Q-1.85 12.4 -1.25 13.8 L-3.75 13.8 -4.0 12.3 Q-4.3 11.15 -5.2 10.35 L-7.1 8.9 Q-9.05 7.3 -9.35 5.3 -9.65 3.0 -6.95 2.55 L-5.4 2.45 Q-4.4 2.4 -3.85 2.0 -3.3 1.6 -3.0 0.9 -2.7 0.15 -2.9 -0.5 L-3.35 -1.15 -4.1 -0.6 -7.0 0.6 Q-8.75 1.3 -9.85 2.4 L-11.1 4.1 Q-12.3 6.5 -10.95 9.45 L-10.25 10.55 Q-9.85 11.2 -10.1 11.65 -10.8 13.05 -12.05 12.2 -13.1 11.5 -13.45 10.3 -13.8 9.15 -13.6 7.5 L-13.15 5.35 -13.0 4.75 Q-12.35 2.6 -10.0 0.3 L-7.9 -1.55 -5.85 -3.25 -5.4 -3.7 -6.05 -3.8 Q-8.0 -4.0 -9.75 -2.35 L-12.4 0.9 Q-13.65 2.5 -13.9 4.25 L-13.95 4.75 -13.8 8.9 Q-13.8 10.45 -14.2 12.2 L-14.45 13.25 Q-15.15 15.65 -16.25 17.3 -17.0 18.5 -18.9 19.85 L-21.7 22.2 Q-21.25 23.2 -21.85 24.25 -22.4 25.25 -23.4 25.7 L-25.0 25.75 Q-25.7 25.25 -25.35 23.6 -25.05 21.95 -22.9 20.5 L-21.05 19.35 -19.4 17.95 Q-17.7 16.0 -17.3 13.4 -17.05 11.9 -17.25 9.55 L-17.35 8.55 -17.7 3.7 Q-17.7 0.95 -16.7 -1.05 -15.6 -3.15 -13.4 -4.75 -11.35 -6.25 -8.95 -6.9 -7.15 -7.35 -4.05 -6.95 -2.1 -5.65 -0.5 -6.1 -2.1 -5.65 -4.05 -6.95 L-4.85 -7.55 -6.0 -8.45 -8.85 -8.65 -9.2 -8.7 Q-12.0 -8.85 -14.35 -7.7 L-15.55 -7.0 M-6.1 13.8 L-10.85 13.8 -10.55 12.85 Q-10.05 11.55 -8.9 11.25 -7.85 11.0 -6.9 11.6 L-6.45 12.0 Q-5.95 12.5 -5.95 13.25 L-6.1 13.8 M-0.65 -15.55 L-0.7 -15.55 Q-1.15 -14.7 -0.65 -13.3 L-0.45 -12.8 -0.1 -12.3 Q0.55 -11.4 1.9 -10.3 L2.05 -10.15 Q2.05 -11.2 2.5 -12.25 2.85 -13.05 3.35 -13.65 L4.35 -14.6 Q5.25 -15.25 6.35 -15.65 L5.75 -15.85 4.1 -16.35 1.25 -16.65 Q-0.15 -16.55 -0.65 -15.55 M0.0 -18.85 L-1.55 -18.45 Q-3.6 -17.35 -2.45 -14.15 -2.65 -15.1 -2.35 -16.2 -1.7 -18.3 0.8 -18.9 L0.0 -18.85 M-9.7 -5.35 L-8.6 -5.8 Q-13.8 -5.0 -15.7 -0.75 -16.65 1.35 -16.55 3.3 -16.0 -1.1 -12.25 -3.9 L-9.7 -5.35 M9.55 -16.35 L9.05 -16.55 8.2 -17.05 Q8.15 -17.05 7.4 -17.55 L6.65 -18.0 5.9 -17.55 7.0 -16.6 7.5 -16.05 9.55 -16.35 M7.5 -16.05 L6.35 -15.65 7.5 -16.05 M7.55 -7.85 Q6.4 -7.7 5.25 -7.15 L4.3 -6.6 Q7.55 -7.6 10.7 -5.95 12.25 -5.1 13.15 -4.05 11.25 -8.25 7.55 -7.85 M2.05 -10.15 L3.05 -9.35 2.05 -10.15 M16.85 -2.25 Q15.8 -4.4 14.75 -4.25 15.8 -4.4 16.85 -2.25 M5.45 7.05 Q7.35 4.4 7.55 2.5 7.65 1.0 6.85 0.3 6.05 -0.45 4.7 0.05 L4.35 0.2 Q4.7 0.25 5.05 0.5 6.05 1.15 6.1 2.65 L5.8 5.2 5.25 7.35 5.2 7.4 5.25 7.35 5.45 7.05 M4.45 2.95 L4.75 4.4 Q5.5 1.3 3.9 1.3 L2.75 1.6 2.2 1.9 Q3.85 1.6 4.45 2.95 M8.5 18.05 L8.7 17.85 9.85 16.05 9.6 14.85 9.55 13.9 14.85 13.9 14.45 14.4 14.05 15.7 13.6 16.8 12.65 17.55 Q13.05 18.9 13.7 19.95 15.0 21.95 16.0 22.25 L16.95 22.25 17.75 22.0 Q18.65 21.7 19.3 22.7 19.8 23.45 19.95 25.4 L20.15 28.25 17.85 28.45 Q16.3 28.45 15.7 27.85 15.3 27.4 15.15 26.7 L14.9 25.5 14.55 24.25 13.8 23.35 Q12.0 21.1 11.1 19.5 L10.85 19.05 10.75 19.2 Q9.7 21.4 7.3 21.8 L5.35 21.65 Q6.6 23.3 6.25 24.6 5.85 26.2 4.3 25.75 L3.0 25.15 1.9 24.6 1.6 21.85 1.55 21.6 1.45 21.05 0.95 17.95 Q0.7 15.8 1.1 13.9 L3.95 13.9 3.9 13.95 Q3.9 16.5 5.15 17.75 L5.4 18.0 5.75 18.3 Q7.25 19.25 8.5 18.05 M-9.85 16.1 Q-10.7 16.2 -11.25 15.6 L-10.85 13.9 -6.1 13.9 -6.65 15.25 Q-6.9 16.25 -5.25 16.05 -4.05 15.85 -3.8 14.6 L-3.75 13.9 -1.25 13.9 -1.25 13.95 -1.0 15.4 Q-1.0 16.15 -1.3 16.8 -1.85 17.95 -2.7 18.3 L-5.05 18.15 -5.65 17.85 -7.1 16.85 -7.3 16.7 -8.5 15.2 Q-9.0 15.9 -9.85 16.1 M15.25 0.7 Q15.95 -1.95 14.75 -4.25 15.95 -1.95 15.25 0.7" fill="#ffffff" fill-opacity="0.0" fill-rule="evenodd" stroke="none"/>
    <path d="M0.0 -18.85 L0.8 -18.9 Q-1.7 -18.3 -2.35 -16.2 -2.65 -15.1 -2.45 -14.15 -3.6 -17.35 -1.55 -18.45 L0.0 -18.85 M-9.7 -5.35 L-12.25 -3.9 Q-16.0 -1.1 -16.55 3.3 -16.65 1.35 -15.7 -0.75 -13.8 -5.0 -8.6 -5.8 L-9.7 -5.35 M7.55 -7.85 Q11.25 -8.25 13.15 -4.05 12.25 -5.1 10.7 -5.95 7.55 -7.6 4.3 -6.6 L5.25 -7.15 Q6.4 -7.7 7.55 -7.85 M4.45 2.95 Q3.85 1.6 2.2 1.9 L2.75 1.6 3.9 1.3 Q5.5 1.3 4.75 4.4 L4.45 2.95" fill="#ffffff" fill-opacity="0.2" fill-rule="evenodd" stroke="none"/>
    <path d="M-18.55 -0.2 Q-18.7 -2.6 -17.95 -4.15 -17.15 -5.9 -15.55 -7.0 L-14.35 -7.7 Q-12.0 -8.85 -9.2 -8.7 L-8.85 -8.65 -6.0 -8.45 -4.85 -7.55 -4.05 -6.95 Q-7.15 -7.35 -8.95 -6.9 -11.35 -6.25 -13.4 -4.75 -15.6 -3.15 -16.7 -1.05 -17.7 0.95 -17.7 3.7 L-17.35 8.55 -17.25 9.55 -18.8 10.6 -20.95 11.0 Q-22.35 11.05 -22.95 11.35 L-23.85 11.95 -24.65 12.7 Q-25.65 13.6 -26.6 13.45 -26.85 11.7 -25.55 10.0 -24.15 8.25 -22.35 8.6 -22.4 9.6 -21.75 10.25 -19.3 9.45 -18.5 7.7 -17.85 6.4 -18.1 4.1 L-18.1 4.05 -18.55 -0.1 -18.55 -0.2 M-12.1 -9.55 L-12.65 -10.65 -12.6 -12.75 -12.4 -13.5 Q-11.6 -16.1 -10.1 -17.55 -9.35 -18.25 -8.15 -18.75 L-5.9 -19.25 -3.65 -19.0 -2.8 -18.25 -2.75 -18.2 -3.1 -17.55 -5.9 -16.95 Q-7.6 -16.25 -8.65 -14.35 -9.3 -13.25 -9.2 -12.35 L-9.15 -12.05 -6.75 -12.65 -5.55 -12.7 -4.55 -13.85 -3.45 -14.65 -3.1 -12.95 -3.7 -12.6 -2.9 -12.4 Q-2.45 -11.35 -1.7 -10.6 L-0.7 -9.75 0.25 -8.85 Q1.2 -7.8 0.4 -6.6 L-0.3 -6.05 -0.5 -6.1 -0.1 -6.25 Q0.1 -8.25 -2.4 -9.7 -4.35 -10.85 -6.6 -11.05 -8.05 -11.2 -10.55 -10.15 L-12.1 -9.55 M7.7 -12.65 L9.9 -12.6 Q11.9 -12.05 13.25 -9.7 L13.8 -8.45 14.3 -6.95 14.6 -5.35 14.75 -4.25 14.45 -4.8 Q12.85 -7.65 9.85 -8.4 L7.25 -8.9 Q5.75 -9.0 4.7 -8.45 L4.3 -8.15 3.05 -9.35 3.95 -10.35 Q5.15 -11.7 6.6 -12.35 L7.7 -12.65 M18.9 3.3 L22.3 3.2 Q23.7 4.25 24.25 6.55 22.75 7.5 21.2 6.9 L19.85 6.3 18.75 5.95 18.5 5.9 Q18.1 7.75 16.2 8.7 L15.35 9.05 Q13.9 9.4 12.7 8.5 L12.55 8.35 12.95 6.95 14.4 3.25 14.45 3.55 Q15.1 5.2 16.2 5.05 L16.5 4.95 17.7 4.2 18.9 3.35 18.9 3.3 M8.6 13.8 L4.15 13.8 4.05 13.6 5.4 11.7 6.4 10.35 Q7.9 11.95 8.55 13.7 L8.6 13.8 M-3.75 13.8 L-6.1 13.8 -5.95 13.25 Q-5.95 12.5 -6.45 12.0 L-6.9 11.2 -8.0 9.5 Q-9.0 10.15 -9.9 9.5 -10.65 8.95 -11.05 7.8 -11.5 6.5 -10.95 4.95 L-9.65 2.4 -9.85 2.4 Q-8.75 1.3 -7.0 0.6 L-4.1 -0.6 -3.35 -1.15 -2.9 -0.5 Q-2.7 0.15 -3.0 0.9 -3.3 1.6 -3.85 2.0 -4.4 2.4 -5.4 2.45 L-6.95 2.55 Q-9.65 3.0 -9.35 5.3 -9.05 7.3 -7.1 8.9 L-5.2 10.35 Q-4.3 11.15 -4.0 12.3 L-3.75 13.8 M-0.65 -15.55 L-0.1 -15.6 Q1.85 -15.6 2.75 -14.75 L3.35 -13.65 Q2.85 -13.05 2.5 -12.25 2.05 -11.2 2.05 -10.15 L1.9 -10.3 Q0.55 -11.4 -0.1 -12.3 -0.1 -12.85 -0.35 -13.1 L-0.65 -13.3 Q-1.15 -14.7 -0.7 -15.55 L-0.65 -15.55 M-13.9 4.25 Q-13.65 2.5 -12.4 0.9 L-9.75 -2.35 Q-8.0 -4.0 -6.05 -3.8 L-5.4 -3.7 -5.85 -3.25 -7.9 -1.55 -10.0 0.3 Q-12.35 2.6 -13.0 4.75 L-13.15 5.35 Q-13.8 5.0 -13.9 4.25 M6.45 10.3 L8.8 6.65 Q10.6 3.3 10.0 0.95 9.6 -0.75 8.2 -1.5 7.25 -2.05 5.3 -2.4 L2.55 -2.9 Q3.6 -3.15 4.25 -3.5 L6.0 -4.15 8.1 -4.7 8.65 -4.5 Q10.4 -3.8 11.45 -2.85 12.0 -1.7 11.85 -0.05 L10.95 4.3 9.8 9.4 Q9.5 11.05 9.5 12.45 L9.2 12.25 8.55 11.5 8.1 10.75 Q7.65 10.05 6.45 10.3 M5.25 7.35 L5.8 5.2 6.1 2.65 Q6.05 1.15 5.05 0.5 4.7 0.25 4.35 0.2 L4.7 0.05 Q6.05 -0.45 6.85 0.3 7.65 1.0 7.55 2.5 7.35 4.4 5.45 7.05 L5.25 7.35 5.45 7.05 5.25 7.35 5.2 7.4 5.25 7.35 M-1.25 13.8 Q-1.85 12.4 -3.35 10.6 L-4.15 9.75 Q-5.85 7.85 -5.8 6.6 -5.8 5.15 -3.35 4.35 -1.6 3.75 -0.75 2.5 -0.15 1.55 -0.15 0.35 L1.9 0.75 2.4 0.7 Q2.15 0.85 1.85 1.05 L-0.4 2.6 Q-1.7 3.55 -2.3 4.45 L-2.75 5.7 Q-2.75 6.45 -2.3 7.0 -1.8 7.55 -1.05 7.4 L0.3 6.9 1.4 6.2 Q2.15 5.75 2.5 6.0 2.9 6.3 2.75 7.4 L2.45 8.9 2.1 11.25 Q1.0 10.4 0.05 11.05 -1.4 12.05 -1.25 13.8 M8.5 18.05 Q7.25 19.25 5.75 18.3 L5.4 18.0 5.15 17.75 5.25 17.3 5.1 15.9 4.55 14.65 4.15 13.9 8.6 13.9 Q9.05 15.45 9.0 16.4 L8.5 18.05 M1.55 21.6 L1.6 21.85 Q1.45 22.1 0.75 22.25 L-0.6 22.1 -1.45 21.6 -1.8 21.25 Q-2.55 20.4 -2.7 18.75 L-2.7 18.3 Q-1.85 17.95 -1.3 16.8 -1.0 16.15 -1.0 15.4 L-0.95 15.6 0.1 18.3 1.05 20.55 1.55 21.6 M-3.95 22.75 Q-4.5 23.8 -5.6 23.2 L-7.1 21.65 -7.7 20.3 -7.85 19.45 Q-7.9 18.45 -7.45 17.05 L-7.3 16.7 -7.1 16.85 -5.65 17.85 -5.95 19.25 Q-5.95 20.35 -5.3 21.25 L-3.95 22.75 M-6.1 13.9 L-3.75 13.9 -3.8 14.6 Q-4.05 15.85 -5.25 16.05 -6.9 16.25 -6.65 15.25 L-6.1 13.9" fill="#000000" fill-opacity="0.2" fill-rule="evenodd" stroke="none"/>
    <path d="M9.55 13.8 L8.6 13.8 8.55 13.7 Q7.9 11.95 6.4 10.35 L6.45 10.3 Q7.65 10.05 8.1 10.75 L8.55 11.5 9.2 12.25 9.5 12.45 9.55 13.8 M4.15 13.8 L3.95 13.8 4.05 13.6 4.15 13.8 M1.1 13.8 L-1.25 13.8 Q-1.4 12.05 0.05 11.05 1.0 10.4 2.1 11.25 L2.0 11.7 1.95 11.8 Q1.4 12.75 1.1 13.8 M-10.85 13.8 L-11.85 13.8 Q-12.8 12.05 -14.2 12.2 -13.8 10.45 -13.8 8.9 L-13.95 4.75 -13.9 4.25 Q-13.8 5.0 -13.15 5.35 L-13.6 7.5 Q-13.8 9.15 -13.45 10.3 -13.1 11.5 -12.05 12.2 -10.8 13.05 -10.1 11.65 -9.85 11.2 -10.25 10.55 L-10.95 9.45 Q-12.3 6.5 -11.1 4.1 L-9.85 2.4 -9.65 2.4 -10.95 4.95 Q-11.5 6.5 -11.05 7.8 -10.65 8.95 -9.9 9.5 -9.0 10.15 -8.0 9.5 L-6.9 11.2 -6.45 12.0 -6.9 11.6 Q-7.85 11.0 -8.9 11.25 -10.05 11.55 -10.55 12.85 L-10.85 13.8 M16.2 5.05 Q15.1 5.2 14.45 3.55 L14.4 3.25 15.15 1.0 15.25 0.7 15.95 3.35 16.2 5.05 M12.55 8.35 L12.7 8.5 Q13.9 9.4 15.35 9.05 L13.65 11.0 Q12.45 12.15 11.95 13.25 L11.95 13.2 Q11.85 10.9 12.55 8.35 M9.55 13.9 L9.6 14.85 9.85 16.05 8.7 17.85 8.5 18.05 9.0 16.4 Q9.05 15.45 8.6 13.9 L9.55 13.9 M5.15 17.75 Q3.9 16.5 3.9 13.95 L3.95 13.9 4.15 13.9 4.55 14.65 5.1 15.9 5.25 17.3 5.15 17.75 M1.1 13.9 Q0.7 15.8 0.95 17.95 L1.45 21.05 1.55 21.6 1.05 20.55 0.1 18.3 -0.95 15.6 -1.0 15.4 -1.25 13.95 -1.25 13.9 1.1 13.9 M-1.45 21.6 Q-1.55 23.6 -3.95 22.75 L-5.3 21.25 Q-5.95 20.35 -5.95 19.25 L-5.65 17.85 -5.05 18.15 -2.7 18.3 -2.7 18.75 Q-2.55 20.4 -1.8 21.25 L-1.45 21.6 M-7.7 20.3 Q-10.7 19.8 -9.85 16.1 -9.0 15.9 -8.5 15.2 L-7.3 16.7 -7.45 17.05 Q-7.9 18.45 -7.85 19.45 L-7.7 20.3 M-11.25 15.6 L-11.85 13.9 -10.85 13.9 -11.25 15.6" fill="#000000" fill-opacity="0.4" fill-rule="evenodd" stroke="none"/>
    <path d="M-18.1 4.05 L-18.15 4.05 Q-19.3 4.05 -20.4 2.1 L-21.3 0.55 -22.3 -0.65 Q-23.2 0.5 -24.15 0.45 -25.0 0.4 -25.45 -0.4 -25.85 -1.2 -25.45 -2.05 -25.0 -3.0 -23.65 -3.4 -22.1 -3.8 -21.5 -3.15 L-20.6 -1.4 Q-19.8 -0.15 -18.55 -0.2 -18.7 -2.6 -17.95 -4.15 -17.15 -5.9 -15.55 -7.0 M-12.1 -9.55 L-12.65 -10.65 -12.6 -12.75 -12.4 -13.5 Q-11.6 -16.1 -10.1 -17.55 -9.35 -18.25 -8.15 -18.75 L-5.9 -19.25 -3.65 -19.0 -2.8 -18.25 -2.75 -18.2 M18.9 3.3 L22.3 3.2 Q23.7 4.25 24.25 6.55 22.75 7.5 21.2 6.9 L19.85 6.3 18.75 5.95 M-11.85 13.8 Q-12.8 12.05 -14.2 12.2 M-17.25 9.55 L-18.8 10.6 -20.95 11.0 Q-22.35 11.05 -22.95 11.35 L-23.85 11.95 -24.65 12.7 Q-25.65 13.6 -26.6 13.45 -26.85 11.7 -25.55 10.0 -24.15 8.25 -22.35 8.6 -22.4 9.6 -21.75 10.25 -19.3 9.45 -18.5 7.7 -17.85 6.4 -18.1 4.1 L-18.1 4.05 M1.6 21.85 Q1.45 22.1 0.75 22.25 L-0.6 22.1 -1.45 21.6 Q-1.55 23.6 -3.95 22.75 -4.5 23.8 -5.6 23.2 L-7.1 21.65 -7.7 20.3 Q-10.7 19.8 -9.85 16.1 M-11.25 15.6 L-11.85 13.9 M-2.7 18.3 L-2.7 18.75 Q-2.55 20.4 -1.8 21.25 L-1.45 21.6 M-6.45 12.0 L-6.9 11.2 -8.0 9.5 Q-9.0 10.15 -9.9 9.5 -10.65 8.95 -11.05 7.8 -11.5 6.5 -10.95 4.95 L-9.65 2.4 -9.85 2.4 M-5.65 17.85 L-5.95 19.25 Q-5.95 20.35 -5.3 21.25 L-3.95 22.75 M-7.7 20.3 L-7.85 19.45 Q-7.9 18.45 -7.45 17.05 L-7.3 16.7" fill="none" stroke="#000000" stroke-linecap="square" stroke-linejoin="round" stroke-opacity="0.6" stroke-width="1.0"/>
    <path d="M-15.55 -7.0 Q-16.1 -7.55 -16.05 -8.55 L-15.7 -10.65 -15.7 -11.35 Q-16.1 -10.95 -16.75 -10.85 L-18.0 -10.85 Q-18.1 -12.85 -17.05 -13.85 -15.9 -14.95 -13.9 -14.25 L-14.2 -11.75 -14.35 -10.65 -14.35 -9.25 -12.1 -9.55 -10.55 -10.15 Q-8.05 -11.2 -6.6 -11.05 -4.35 -10.85 -2.4 -9.7 0.1 -8.25 -0.1 -6.25 L-0.5 -6.1 M-2.75 -18.2 L-2.15 -18.95 Q-1.2 -19.8 0.3 -19.9 L2.95 -19.8 5.45 -20.25 7.85 -20.35 8.3 -19.8 8.75 -19.15 9.75 -17.9 Q10.0 -17.45 9.55 -16.35 L15.6 -15.85 16.35 -15.45 17.05 -15.2 17.75 -15.45 18.55 -15.7 Q20.85 -15.55 20.75 -13.6 20.65 -12.25 19.45 -10.3 19.3 -10.0 18.05 -11.05 L16.75 -12.25 Q14.85 -13.8 12.85 -14.1 10.7 -14.4 8.6 -13.25 L7.7 -12.65 9.9 -12.6 Q11.9 -12.05 13.25 -9.7 L13.8 -8.45 Q15.1 -8.4 15.9 -7.75 L17.7 -5.6 Q18.75 -4.05 19.55 -3.75 L21.0 -3.7 Q21.35 -3.95 21.55 -4.7 L21.9 -6.05 Q22.15 -6.85 22.6 -7.15 23.95 -8.1 25.45 -7.4 26.95 -6.7 26.75 -5.05 26.1 -5.05 25.0 -4.45 23.95 -3.9 23.15 -3.9 L22.2 -1.4 Q21.4 -0.1 20.05 -0.1 19.05 -0.15 17.75 -1.35 L16.85 -2.25 17.1 -1.85 Q18.35 0.05 18.6 1.15 L18.9 3.3 18.9 3.35 17.7 4.2 16.5 4.95 16.2 5.05 Q15.1 5.2 14.45 3.55 L14.4 3.25 12.95 6.95 12.55 8.35 12.7 8.5 Q13.9 9.4 15.35 9.05 L13.65 11.0 Q12.45 12.15 11.95 13.25 L11.95 13.2 Q11.85 10.9 12.55 8.35 M18.75 5.95 L18.3 8.25 17.4 10.35 16.2 12.25 15.3 13.25 14.85 13.8 M-14.2 12.2 L-14.45 13.25 Q-15.15 15.65 -16.25 17.3 -17.0 18.5 -18.9 19.85 L-21.7 22.2 Q-21.25 23.2 -21.85 24.25 -22.4 25.25 -23.4 25.7 L-25.0 25.75 Q-25.7 25.25 -25.35 23.6 -25.05 21.95 -22.9 20.5 L-21.05 19.35 -19.4 17.95 Q-17.7 16.0 -17.3 13.4 -17.05 11.9 -17.25 9.55 M3.35 -13.65 L2.75 -14.75 Q1.85 -15.6 -0.1 -15.6 L-0.65 -15.55 -0.7 -15.55 Q-1.15 -14.7 -0.65 -13.3 L-0.35 -13.1 Q-0.1 -12.85 -0.1 -12.3 0.55 -11.4 1.9 -10.3 L2.05 -10.15 Q2.05 -11.2 2.5 -12.25 2.85 -13.05 3.35 -13.65 L4.35 -14.6 Q5.25 -15.25 6.35 -15.65 L5.75 -15.85 4.1 -16.35 1.25 -16.65 Q-0.15 -16.55 -0.65 -15.55 M-0.1 -12.3 L-0.45 -12.8 -0.65 -13.3 M-4.05 -6.95 L-4.85 -7.55 -6.0 -8.45 -8.85 -8.65 -9.2 -8.7 Q-12.0 -8.85 -14.35 -7.7 L-15.55 -7.0 M-13.15 5.35 L-13.0 4.75 Q-12.35 2.6 -10.0 0.3 L-7.9 -1.55 -5.85 -3.25 -5.4 -3.7 -6.05 -3.8 Q-8.0 -4.0 -9.75 -2.35 L-12.4 0.9 Q-13.65 2.5 -13.9 4.25 -13.8 5.0 -13.15 5.35 L-13.6 7.5 Q-13.8 9.15 -13.45 10.3 -13.1 11.5 -12.05 12.2 -10.8 13.05 -10.1 11.65 -9.85 11.2 -10.25 10.55 L-10.95 9.45 Q-12.3 6.5 -11.1 4.1 L-9.85 2.4 Q-8.75 1.3 -7.0 0.6 L-4.1 -0.6 -3.35 -1.15 -2.9 -0.5 Q-2.7 0.15 -3.0 0.9 -3.3 1.6 -3.85 2.0 -4.4 2.4 -5.4 2.45 L-6.95 2.55 Q-9.65 3.0 -9.35 5.3 -9.05 7.3 -7.1 8.9 L-5.2 10.35 Q-4.3 11.15 -4.0 12.3 L-3.75 13.8 M9.55 -16.35 L9.05 -16.55 8.2 -17.05 Q8.15 -17.05 7.4 -17.55 L6.65 -18.0 5.9 -17.55 7.0 -16.6 7.5 -16.05 9.55 -16.35 M6.35 -15.65 L7.5 -16.05 M14.75 -4.25 L14.45 -4.8 Q12.85 -7.65 9.85 -8.4 L7.25 -8.9 Q5.75 -9.0 4.7 -8.45 L4.3 -8.15 3.05 -9.35 2.05 -10.15 M3.05 -9.35 L3.95 -10.35 Q5.15 -11.7 6.6 -12.35 L7.7 -12.65 M8.1 -4.7 L6.0 -4.15 4.25 -3.5 Q3.6 -3.15 2.55 -2.9 L5.3 -2.4 Q7.25 -2.05 8.2 -1.5 9.6 -0.75 10.0 0.95 10.6 3.3 8.8 6.65 L6.45 10.3 Q7.65 10.05 8.1 10.75 L8.55 11.5 9.2 12.25 9.5 12.45 Q9.5 11.05 9.8 9.4 L10.95 4.3 11.85 -0.05 Q12.0 -1.7 11.45 -2.85 10.4 -3.8 8.65 -4.5 L8.1 -4.7 8.4 -4.75 Q9.7 -4.85 10.6 -4.0 L11.45 -2.85 M13.8 -8.45 L14.3 -6.95 14.6 -5.35 14.75 -4.25 Q15.8 -4.4 16.85 -2.25 M15.35 9.05 L16.2 8.7 Q18.1 7.75 18.5 5.9 L18.75 5.95 M16.2 5.05 L15.95 3.35 15.25 0.7 15.15 1.0 14.4 3.25 M5.45 7.05 Q7.35 4.4 7.55 2.5 7.65 1.0 6.85 0.3 6.05 -0.45 4.7 0.05 L4.35 0.2 Q4.7 0.25 5.05 0.5 6.05 1.15 6.1 2.65 L5.8 5.2 5.25 7.35 5.45 7.05 5.25 7.35 5.2 7.4 5.25 7.35 Q3.3 8.55 2.1 11.25 L2.0 11.7 1.95 11.8 Q1.4 12.75 1.1 13.8 M2.1 11.25 L2.45 8.9 2.75 7.4 Q2.9 6.3 2.5 6.0 2.15 5.75 1.4 6.2 L0.3 6.9 -1.05 7.4 Q-1.8 7.55 -2.3 7.0 -2.75 6.45 -2.75 5.7 L-2.3 4.45 Q-1.7 3.55 -0.4 2.6 L1.85 1.05 Q2.15 0.85 2.4 0.7 L1.9 0.75 -0.15 0.35 Q-0.15 1.55 -0.75 2.5 -1.6 3.75 -3.35 4.35 -5.8 5.15 -5.8 6.6 -5.85 7.85 -4.15 9.75 L-3.35 10.6 Q-1.85 12.4 -1.25 13.8 -1.4 12.05 0.05 11.05 1.0 10.4 2.1 11.25 M6.45 10.3 L6.4 10.35 Q7.9 11.95 8.55 13.7 L8.6 13.8 M6.4 10.35 L5.4 11.7 4.05 13.6 4.15 13.8 M9.55 13.9 L9.6 14.85 9.85 16.05 8.7 17.85 8.5 18.05 Q7.25 19.25 5.75 18.3 L5.4 18.0 5.15 17.75 Q3.9 16.5 3.9 13.95 L3.95 13.9 M1.1 13.9 Q0.7 15.8 0.95 17.95 L1.45 21.05 1.55 21.6 1.6 21.85 1.9 24.6 3.0 25.15 4.3 25.75 Q5.85 26.2 6.25 24.6 6.6 23.3 5.35 21.65 L7.3 21.8 Q9.7 21.4 10.75 19.2 L10.85 19.05 11.1 19.5 Q12.0 21.1 13.8 23.35 L14.55 24.25 14.9 25.5 15.15 26.7 Q15.3 27.4 15.7 27.85 16.3 28.45 17.85 28.45 L20.15 28.25 19.95 25.4 Q19.8 23.45 19.3 22.7 18.65 21.7 17.75 22.0 L16.95 22.25 16.0 22.25 Q15.0 21.95 13.7 19.95 13.05 18.9 12.65 17.55 L13.6 16.8 14.05 15.7 14.45 14.4 14.85 13.9 M8.6 13.9 Q9.05 15.45 9.0 16.4 L8.5 18.05 M9.5 12.45 L9.55 13.8 M4.15 13.9 L4.55 14.65 5.1 15.9 5.25 17.3 5.15 17.75 M3.95 13.8 L4.05 13.6 M-9.85 16.1 Q-10.7 16.2 -11.25 15.6 L-10.85 13.9 M1.55 21.6 L1.05 20.55 0.1 18.3 -0.95 15.6 -1.0 15.4 Q-1.0 16.15 -1.3 16.8 -1.85 17.95 -2.7 18.3 L-5.05 18.15 -5.65 17.85 -7.1 16.85 -7.3 16.7 -8.5 15.2 Q-9.0 15.9 -9.85 16.1 M-6.45 12.0 L-6.9 11.6 Q-7.85 11.0 -8.9 11.25 -10.05 11.55 -10.55 12.85 L-10.85 13.8 M-13.9 4.25 L-13.95 4.75 -13.8 8.9 Q-13.8 10.45 -14.2 12.2 M-1.0 15.4 L-1.25 13.95 -1.25 13.9 M-3.75 13.9 L-3.8 14.6 Q-4.05 15.85 -5.25 16.05 -6.9 16.25 -6.65 15.25 L-6.1 13.9 M-6.1 13.8 L-5.95 13.25 Q-5.95 12.5 -6.45 12.0 M14.75 -4.25 Q15.95 -1.95 15.25 0.7" fill="none" stroke="#000000" stroke-linecap="square" stroke-linejoin="round" stroke-opacity="0.4" stroke-width="1.0"/>
    <path d="M-3.1 -17.55 L-5.9 -16.95 Q-7.6 -16.25 -8.65 -14.35 -9.3 -13.25 -9.2 -12.35 L-9.15 -12.05 -6.75 -12.65 -5.55 -12.7 -4.55 -13.85 -3.45 -14.65 M-2.9 -12.4 L-3.7 -12.6 -3.1 -12.95" fill="none" stroke="#000000" stroke-linecap="square" stroke-linejoin="round" stroke-opacity="0.4" stroke-width="1.0"/>
    <path d="M-3.45 -14.65 L-3.45 -14.75 Q-3.6 -16.4 -3.1 -17.55 L-2.75 -18.2 M-3.1 -12.95 L-2.9 -12.4 Q-2.45 -11.35 -1.7 -10.6 L-0.7 -9.75 0.25 -8.85 Q1.2 -7.8 0.4 -6.6 L-0.3 -6.05 -0.5 -6.1 Q-2.1 -5.65 -4.05 -6.95 -7.15 -7.35 -8.95 -6.9 -11.35 -6.25 -13.4 -4.75 -15.6 -3.15 -16.7 -1.05 -17.7 0.95 -17.7 3.7 L-17.35 8.55 -17.25 9.55" fill="none" stroke="#000000" stroke-linecap="round" stroke-linejoin="round" stroke-opacity="0.4" stroke-width="1.0"/>
    <path d="M-3.1 -12.95 L-3.45 -14.65" fill="none" stroke="#000000" stroke-linecap="round" stroke-linejoin="round" stroke-opacity="0.4" stroke-width="1.0"/>
  </g>
</svg>
