<?xml version="1.0" encoding="UTF-8" standalone="no"?>
<svg xmlns:xlink="http://www.w3.org/1999/xlink" height="6.1px" width="11.9px" xmlns="http://www.w3.org/2000/svg">
  <g transform="matrix(1.0, 0.0, 0.0, 1.0, 7.95, 11.25)">
    <path d="M-7.3 -6.45 L-6.65 -7.95 -5.8 -9.0 Q-4.8 -10.1 -3.2 -10.45 L-2.05 -10.6 -0.3 -10.3 0.95 -9.65 2.0 -8.65 2.45 -8.05 3.3 -5.8 2.05 -6.85 0.9 -6.85 Q0.0 -6.7 -2.6 -6.8 L-7.3 -6.45" fill="#ffffff" fill-opacity="0.0" fill-rule="evenodd" stroke="none"/>
    <path d="M3.3 -5.8 L2.45 -8.05 2.0 -8.65 0.95 -9.65 -0.3 -10.3 -2.05 -10.6 -3.2 -10.45 Q-4.8 -10.1 -5.8 -9.0 L-6.65 -7.95 -7.3 -6.45" fill="none" stroke="#000000" stroke-linecap="square" stroke-linejoin="round" stroke-opacity="0.6" stroke-width="1.0"/>
  </g>
</svg>
