<?xml version="1.0" encoding="UTF-8" standalone="no"?>
<svg xmlns:xlink="http://www.w3.org/1999/xlink" height="11.0px" width="29.5px" xmlns="http://www.w3.org/2000/svg">
  <g transform="matrix(1.0, 0.0, 0.0, 1.0, 0.65, 1.8)">
    <path d="M27.65 0.2 L18.55 0.2 16.75 0.6 15.55 0.9 15.45 0.95 15.5 1.1 15.6 1.1 16.75 0.8 18.55 0.4 23.4 0.35 27.65 0.4 27.75 0.4 27.75 0.2 27.65 0.2 M15.15 0.9 L16.1 0.6 18.05 0.15 Q19.35 -0.05 26.9 0.0 L27.45 0.05 28.15 0.25 Q28.3 1.25 27.75 2.05 L27.5 2.15 Q27.25 2.25 27.15 2.5 L26.55 4.8 Q25.65 7.2 24.65 7.6 L21.9 8.05 19.75 8.0 Q17.2 7.65 16.25 5.65 L15.1 3.6 14.95 3.35 15.15 0.9 M13.2 3.45 L13.05 3.6 11.95 5.65 Q10.95 7.65 8.4 8.0 L6.3 8.05 3.5 7.6 Q2.5 7.2 1.65 4.8 L1.0 2.5 0.65 2.15 0.4 2.05 Q0.05 1.55 0.0 0.85 L0.0 0.25 0.7 0.05 1.3 0.0 5.2 0.0 10.1 0.15 Q11.35 0.35 13.0 0.9 L13.2 3.45 M25.65 3.6 L25.7 2.55 Q25.6 1.1 23.7 0.95 21.6 0.75 19.6 0.95 16.0 1.35 16.25 3.2 16.45 4.55 17.65 6.45 18.05 7.05 18.9 7.35 L19.65 7.55 23.05 7.45 Q24.8 7.05 25.2 5.9 L25.65 3.6 M12.55 1.1 L12.65 1.1 12.7 0.95 12.6 0.9 9.6 0.2 4.85 0.15 3.05 0.2 0.5 0.2 0.4 0.2 0.4 0.4 0.5 0.4 3.05 0.4 4.75 0.35 9.6 0.4 12.55 1.1 M10.5 6.45 Q11.7 4.65 11.9 3.2 12.2 1.35 8.6 0.95 6.55 0.75 4.45 0.95 L3.05 1.35 Q2.5 1.75 2.45 2.55 L2.5 3.6 Q2.6 4.85 2.95 5.9 3.35 7.05 5.1 7.45 L8.5 7.55 9.25 7.35 10.5 6.45" fill="#ffffff" fill-opacity="0.0" fill-rule="evenodd" stroke="none"/>
    <path d="M27.65 0.2 L27.75 0.2 27.75 0.4 27.65 0.4 23.4 0.35 18.55 0.4 16.75 0.8 15.6 1.1 15.5 1.1 15.45 0.95 15.55 0.9 16.75 0.6 18.55 0.2 27.65 0.2 M12.55 1.1 L9.6 0.4 4.75 0.35 3.05 0.4 0.5 0.4 0.4 0.4 0.4 0.2 0.5 0.2 3.05 0.2 4.85 0.15 9.6 0.2 12.6 0.9 12.7 0.95 12.65 1.1 12.55 1.1" fill="#ffffff" fill-opacity="0.4" fill-rule="evenodd" stroke="none"/>
    <path d="M15.15 0.9 L14.95 3.35 14.9 3.5 14.25 3.65 13.45 3.6 13.2 3.55 13.2 3.45 13.0 0.9 12.95 0.65 Q14.4 0.5 15.2 0.65 L15.15 0.9" fill="#ffffff" fill-opacity="0.8" fill-rule="evenodd" stroke="none"/>
    <path d="M14.95 3.35 L15.1 3.6 16.25 5.65 Q17.2 7.65 19.75 8.0 L21.9 8.05 24.65 7.6 Q25.65 7.2 26.55 4.8 L27.15 2.5 Q27.25 2.25 27.5 2.15 L27.75 2.05 Q28.3 1.25 28.15 0.25 L27.45 0.05 26.9 0.0 Q19.35 -0.05 18.05 0.15 L16.1 0.6 15.15 0.9 M13.2 3.45 L13.05 3.6 11.95 5.65 Q10.95 7.65 8.4 8.0 L6.3 8.05 3.5 7.6 Q2.5 7.2 1.65 4.8 L1.0 2.5 0.65 2.15 0.4 2.05 Q0.05 1.55 0.0 0.85 L0.0 0.25 0.7 0.05 1.3 0.0 5.2 0.0 10.1 0.15 Q11.35 0.35 13.0 0.9" fill="none" stroke="#000000" stroke-linecap="square" stroke-linejoin="round" stroke-opacity="0.6" stroke-width="1.0"/>
    <path d="M15.15 0.9 L14.95 3.35 14.9 3.5 14.25 3.65 13.45 3.6 13.2 3.55 13.2 3.45 13.0 0.9 12.95 0.65 Q14.4 0.5 15.2 0.65 L15.15 0.9 M25.65 3.6 L25.2 5.9 Q24.8 7.05 23.05 7.45 L19.65 7.55 18.9 7.35 Q18.05 7.05 17.65 6.45 16.45 4.55 16.25 3.2 16.0 1.35 19.6 0.95 21.6 0.75 23.7 0.95 25.6 1.1 25.7 2.55 L25.65 3.6 M10.5 6.45 L9.25 7.35 8.5 7.55 5.1 7.45 Q3.35 7.05 2.95 5.9 2.6 4.85 2.5 3.6 L2.45 2.55 Q2.5 1.75 3.05 1.35 L4.45 0.95 Q6.55 0.75 8.6 0.95 12.2 1.35 11.9 3.2 11.7 4.65 10.5 6.45" fill="none" stroke="#000000" stroke-linecap="round" stroke-linejoin="miter-clip" stroke-miterlimit="10.0" stroke-opacity="0.4" stroke-width="1.0"/>
  </g>
</svg>
