<?xml version="1.0" encoding="UTF-8" standalone="no"?>
<svg xmlns:xlink="http://www.w3.org/1999/xlink" height="43.0px" width="41.6px" xmlns="http://www.w3.org/2000/svg">
  <g transform="matrix(1.0, 0.0, 0.0, 1.0, 21.05, 15.35)">
    <path d="M-19.35 -3.3 L-19.3 -3.7 -18.3 -5.2 -17.9 -5.7 -17.0 -6.7 -16.4 -7.3 -16.25 -7.45 -15.15 -8.4 -12.3 -10.45 -10.5 -11.5 -9.25 -12.15 -6.4 -13.45 -4.45 -14.15 -4.35 -14.15 0.65 -14.7 2.0 -14.6 Q3.9 -14.45 5.65 -13.75 L6.1 -13.55 9.95 -11.4 Q12.8 -9.55 15.35 -7.35 L15.55 -7.2 16.0 -6.8 16.25 -6.3 16.1 -5.95 16.05 -5.9 Q15.9 -5.7 15.65 -5.7 L15.25 -5.85 14.65 -6.3 15.6 -4.95 Q17.2 -3.9 18.25 -2.6 L19.2 -0.85 19.55 0.1 19.65 0.4 19.65 0.5 19.25 -0.15 17.1 -2.9 Q15.5 -4.4 14.05 -4.1 L15.6 -1.85 17.1 0.55 Q18.6 3.4 17.35 6.0 16.9 5.3 16.5 3.3 16.15 1.65 15.15 0.8 L15.6 5.6 Q15.85 8.55 16.2 10.4 L16.75 12.9 17.05 14.55 17.1 15.5 17.1 17.0 Q17.0 17.75 16.6 17.4 L16.4 17.2 Q16.1 16.75 15.95 15.55 L15.8 13.75 15.6 17.45 Q15.25 20.45 14.5 19.75 14.0 19.3 13.95 17.3 L13.9 14.65 13.55 8.75 Q13.0 3.9 11.65 4.15 11.2 5.75 11.7 9.15 12.2 12.6 11.8 14.25 10.7 12.4 10.3 8.5 L9.95 5.5 9.2 2.65 8.75 2.7 Q8.6 4.9 9.15 8.25 L9.9 13.75 9.9 16.1 Q9.7 17.55 9.0 16.25 L8.8 15.25 8.75 13.9 Q8.6 12.15 7.8 12.15 7.75 13.3 8.15 15.3 L8.6 18.4 Q8.55 19.6 8.25 19.8 7.85 20.0 7.3 18.9 6.8 17.95 6.65 16.45 L6.6 13.9 6.5 14.35 6.35 14.75 Q5.95 14.05 5.6 11.7 5.35 9.65 4.6 8.9 4.05 9.2 4.15 10.2 4.2 10.75 4.6 12.15 L5.1 14.2 Q5.25 15.2 4.7 15.6 4.1 16.0 3.85 14.7 L3.6 12.95 3.2 9.05 Q2.75 6.1 1.95 6.0 L1.95 9.05 2.05 12.15 2.35 17.0 Q2.5 21.1 1.9 20.95 1.05 20.7 0.8 17.8 L0.7 14.25 0.7 10.85 Q0.45 8.4 -0.85 8.7 L-0.35 11.3 Q-0.1 13.25 -1.1 13.45 L-1.3 12.45 -1.35 11.35 Q-1.45 10.0 -2.2 9.6 L-2.35 10.6 -2.6 11.6 -2.55 13.5 -2.1 15.35 Q-1.1 19.05 -2.1 19.3 -2.65 19.45 -2.85 18.75 L-3.05 17.7 -3.5 13.95 -3.8 10.15 -4.65 3.35 Q-5.9 3.7 -5.45 7.05 L-5.1 9.65 -5.05 11.35 -5.55 9.2 -5.65 10.1 -5.65 10.6 -5.8 8.45 -6.4 9.7 -6.9 10.9 Q-7.05 11.85 -6.7 13.4 -6.2 15.25 -6.2 15.9 -6.2 16.9 -6.65 17.9 L-7.8 17.85 Q-8.25 16.8 -8.15 14.4 -7.95 11.75 -8.2 10.8 -8.55 11.75 -8.55 13.35 L-8.5 15.95 -8.35 18.9 Q-8.35 21.05 -8.9 21.75 -9.5 22.45 -9.7 21.95 L-9.8 20.65 -9.8 16.85 -10.35 20.55 Q-10.75 23.4 -11.9 23.15 -12.3 22.25 -12.1 20.75 L-11.55 18.35 -10.95 14.25 Q-10.75 12.0 -11.15 10.15 -11.85 11.15 -12.05 12.5 L-12.2 15.05 Q-12.3 16.3 -12.8 17.15 -13.35 18.1 -13.7 16.4 L-13.75 14.45 -13.55 12.55 -13.05 10.6 -12.75 8.65 -13.55 9.8 Q-14.0 10.6 -14.45 10.65 -14.65 9.35 -14.0 7.45 L-12.75 4.4 -12.1 3.05 -11.5 1.5 Q-10.95 -0.4 -11.75 -1.45 L-12.95 1.55 -14.05 4.7 -15.15 7.0 Q-16.05 8.85 -16.45 8.95 -17.55 9.1 -17.35 7.55 -17.2 6.3 -16.7 5.6 L-15.15 3.25 Q-14.3 1.75 -14.25 0.65 L-15.05 1.6 -15.8 2.6 -16.3 3.7 -16.9 4.65 -18.15 4.75 Q-18.5 4.35 -18.25 3.45 -17.8 1.85 -15.95 -0.4 L-14.25 -2.1 Q-13.1 -3.2 -13.05 -4.0 -13.0 -4.15 -14.8 -3.1 L-16.75 -1.85 -18.55 -0.85 -20.4 -0.45 -20.35 -0.9 -20.0 -1.25 Q-19.05 -1.65 -17.9 -2.4 L-18.25 -2.45 -19.05 -2.85 -19.35 -3.2 -19.35 -3.3 M5.35 -9.55 L4.9 -10.35 6.15 -7.2 7.15 -3.1 7.7 0.95 Q8.55 -2.0 6.7 -6.65 L6.5 -7.2 5.35 -9.55 M2.0 -11.8 L2.95 -10.45 4.6 -7.2 Q5.3 -5.6 5.65 -4.0 6.1 -1.65 5.55 0.3 L5.6 0.3 6.05 -0.7 Q6.8 -4.0 5.4 -7.2 L4.4 -9.0 3.35 -10.45 2.55 -11.4 1.65 -12.25 2.0 -11.8 M-13.05 -7.3 L-13.0 -7.4 -13.15 -7.3 Q-14.8 -6.3 -16.25 -4.5 L-17.45 -2.75 Q-15.15 -4.45 -13.05 -7.3 M-9.0 -5.6 L-9.55 -4.5 -10.05 -3.4 -10.15 -2.25 -10.0 -1.1 Q-10.0 0.05 -10.8 2.45 -11.5 4.8 -11.4 6.1 -11.3 7.4 -10.8 7.9 L-9.1 7.95 Q-8.35 7.7 -8.1 6.7 L-7.75 4.8 -8.3 5.3 -8.7 6.15 Q-9.15 7.2 -10.0 6.9 -10.65 6.65 -10.35 5.25 L-9.75 3.15 Q-9.4 2.0 -9.35 0.15 L-9.25 -2.85 -9.0 -4.3 -8.6 -5.75 -8.25 -7.15 -7.75 -8.4 -8.6 -7.15 -9.0 -5.6" fill="#ffffff" fill-opacity="0.0" fill-rule="evenodd" stroke="none"/>
    <path d="M-20.4 -0.45 L-18.55 -0.85 -16.75 -1.85 -14.8 -3.1 Q-13.0 -4.15 -13.05 -4.0 -13.1 -3.2 -14.25 -2.1 L-15.95 -0.4 Q-17.8 1.85 -18.25 3.45 -18.5 4.35 -18.15 4.75 L-16.9 4.65 -16.3 3.7 -15.8 2.6 -15.05 1.6 -14.25 0.65 Q-14.3 1.75 -15.15 3.25 L-16.7 5.6 Q-17.2 6.3 -17.35 7.55 -17.55 9.1 -16.45 8.95 -16.05 8.85 -15.15 7.0 L-14.05 4.7 -12.95 1.55 -11.75 -1.45 Q-10.95 -0.4 -11.5 1.5 L-12.1 3.05 -12.75 4.4 -14.0 7.45 Q-14.65 9.35 -14.45 10.65 -14.0 10.6 -13.55 9.8 L-12.75 8.65 -13.05 10.6 -13.55 12.55 -13.75 14.45 -13.7 16.4 Q-13.35 18.1 -12.8 17.15 -12.3 16.3 -12.2 15.05 L-12.05 12.5 Q-11.85 11.15 -11.15 10.15 -10.75 12.0 -10.95 14.25 L-11.55 18.35 -12.1 20.75 Q-12.3 22.25 -11.9 23.15 -10.75 23.4 -10.35 20.55 L-9.8 16.85 -9.8 20.65 -9.7 21.95 Q-9.5 22.45 -8.9 21.75 -8.35 21.05 -8.35 18.9 L-8.5 15.95 -8.55 13.35 Q-8.55 11.75 -8.2 10.8 -7.95 11.75 -8.15 14.4 -8.25 16.8 -7.8 17.85 L-6.65 17.9 Q-6.2 16.9 -6.2 15.9 -6.2 15.25 -6.7 13.4 -7.05 11.85 -6.9 10.9 L-6.4 9.7 -5.8 8.45 -5.65 10.6 -5.65 10.1 -5.55 9.2 -5.05 11.35 -5.1 9.65 -5.45 7.05 Q-5.9 3.7 -4.65 3.35 L-3.8 10.15 -3.5 13.95 -3.05 17.7 -2.85 18.75 Q-2.65 19.45 -2.1 19.3 -1.1 19.05 -2.1 15.35 L-2.55 13.5 -2.6 11.6 -2.35 10.6 -2.2 9.6 Q-1.45 10.0 -1.35 11.35 L-1.3 12.45 -1.1 13.45 Q-0.1 13.25 -0.35 11.3 L-0.85 8.7 Q0.45 8.4 0.7 10.85 L0.7 14.25 0.8 17.8 Q1.05 20.7 1.9 20.95 2.5 21.1 2.35 17.0 L2.05 12.15 1.95 9.05 1.95 6.0 Q2.75 6.1 3.2 9.05 L3.6 12.95 3.85 14.7 Q4.1 16.0 4.7 15.6 5.25 15.2 5.1 14.2 L4.6 12.15 Q4.2 10.75 4.15 10.2 4.05 9.2 4.6 8.9 5.35 9.65 5.6 11.7 5.95 14.05 6.35 14.75 L6.5 14.35 6.6 13.9 6.65 16.45 Q6.8 17.95 7.3 18.9 7.85 20.0 8.25 19.8 8.55 19.6 8.6 18.4 L8.15 15.3 Q7.75 13.3 7.8 12.15 8.6 12.15 8.75 13.9 L8.8 15.25 9.0 16.25 Q9.7 17.55 9.9 16.1 L9.9 13.75 9.15 8.25 Q8.6 4.9 8.75 2.7 L9.2 2.65 9.95 5.5 10.3 8.5 Q10.7 12.4 11.8 14.25 12.2 12.6 11.7 9.15 11.2 5.75 11.65 4.15 13.0 3.9 13.55 8.75 L13.9 14.65 13.95 17.3 Q14.0 19.3 14.5 19.75 15.25 20.45 15.6 17.45 L15.8 13.75 15.95 15.55 Q16.1 16.75 16.4 17.2 L16.6 17.4 Q17.0 17.75 17.1 17.0 L17.1 15.5 17.05 14.55 16.75 12.9 16.2 10.4 Q15.85 8.55 15.6 5.6 L15.15 0.8 Q16.15 1.65 16.5 3.3 16.9 5.3 17.35 6.0 18.6 3.4 17.1 0.55 L15.6 -1.85 14.05 -4.1 Q15.5 -4.4 17.1 -2.9 L19.25 -0.15 19.65 0.5 19.65 0.7 19.6 0.75 19.5 0.85 19.25 1.0 19.1 1.0 18.9 1.0 19.4 2.35 19.85 4.7 19.85 6.25 19.45 6.75 Q19.85 8.9 19.85 11.6 L19.75 13.95 19.5 14.4 19.05 14.5 18.3 14.4 18.05 14.3 18.1 14.55 Q18.7 17.15 18.65 19.5 18.55 22.65 17.3 25.05 L17.15 25.25 16.6 25.6 16.25 25.75 15.85 25.6 15.65 25.25 15.75 24.85 16.2 23.8 Q15.55 25.05 14.7 25.65 L14.35 25.75 13.6 25.75 13.1 25.45 12.4 25.45 12.0 25.2 Q11.6 25.55 11.05 25.55 L10.55 25.45 10.25 25.2 10.25 25.25 9.35 25.35 8.8 25.15 8.75 25.05 8.7 25.15 Q8.3 25.6 7.8 25.6 L7.25 25.45 6.8 25.45 6.35 25.25 6.2 24.8 Q6.25 24.0 5.15 22.3 5.35 23.95 5.9 24.9 L6.05 25.25 6.05 25.65 5.6 26.05 4.75 25.95 3.9 26.2 3.65 26.2 2.6 25.45 2.1 25.7 1.6 25.7 1.15 25.55 0.8 25.1 0.75 25.4 0.5 25.8 0.0 25.95 -0.95 25.55 -1.1 25.6 -1.4 25.5 -2.0 25.85 Q-2.5 25.85 -3.1 25.2 L-3.35 25.6 Q-3.65 25.95 -4.05 25.8 L-4.25 26.7 -4.6 26.95 -4.8 27.0 -5.4 26.55 -5.65 25.5 -6.15 25.55 Q-6.95 25.4 -7.65 24.2 L-7.65 24.25 -7.55 24.5 -7.5 24.75 -7.7 25.2 -8.1 25.35 -9.1 25.25 -9.1 25.2 -9.4 25.45 -9.95 25.55 Q-10.4 25.55 -10.85 25.2 -11.0 25.4 -11.25 25.45 L-11.95 25.45 Q-12.1 25.75 -12.45 25.75 L-13.2 25.75 -13.55 25.65 Q-14.4 25.05 -15.05 23.8 L-14.6 24.8 -14.5 25.15 -14.7 25.55 Q-14.85 25.75 -15.1 25.75 L-15.4 25.65 -15.45 25.6 -15.95 25.25 -16.15 25.05 Q-17.75 22.05 -17.45 17.75 -17.25 14.95 -16.25 12.05 L-16.25 11.95 -16.7 10.05 -16.65 11.1 -16.65 11.25 -16.8 11.65 -17.25 11.85 -17.85 11.85 -18.25 11.7 -18.45 11.4 Q-18.9 9.4 -18.3 6.25 L-18.9 6.25 -19.3 6.1 -19.5 5.7 Q-19.7 3.3 -16.75 -0.9 -18.8 0.4 -19.3 0.5 -19.9 0.65 -20.25 0.2 L-20.4 -0.45 M5.35 -9.55 L6.5 -7.2 6.7 -6.65 Q8.55 -2.0 7.7 0.95 L7.15 -3.1 6.15 -7.2 4.9 -10.35 5.35 -9.55 M2.0 -11.8 L1.65 -12.25 2.55 -11.4 3.35 -10.45 4.4 -9.0 5.4 -7.2 Q6.8 -4.0 6.05 -0.7 L5.6 0.3 5.55 0.3 Q6.1 -1.65 5.65 -4.0 5.3 -5.6 4.6 -7.2 L2.95 -10.45 2.0 -11.8 M17.45 11.35 L17.35 11.75 17.8 13.25 Q17.8 11.85 17.4 10.5 L17.45 11.35 M-9.0 -5.6 L-8.6 -7.15 -7.75 -8.4 -8.25 -7.15 -8.6 -5.75 -9.0 -4.3 -9.25 -2.85 -9.35 0.15 Q-9.4 2.0 -9.75 3.15 L-10.35 5.25 Q-10.65 6.65 -10.0 6.9 -9.15 7.2 -8.7 6.15 L-8.3 5.3 -7.75 4.8 -8.1 6.7 Q-8.35 7.7 -9.1 7.95 L-10.8 7.9 Q-11.3 7.4 -11.4 6.1 -11.5 4.8 -10.8 2.45 -10.0 0.05 -10.0 -1.1 L-10.15 -2.25 -10.05 -3.4 -9.55 -4.5 -9.0 -5.6" fill="#000000" fill-opacity="0.2" fill-rule="evenodd" stroke="none"/>
    <path d="M16.1 -5.95 L16.25 -6.3 16.0 -6.8 15.55 -7.2 15.35 -7.35 Q12.8 -9.55 9.95 -11.4 L6.1 -13.55 5.65 -13.75 Q3.9 -14.45 2.0 -14.6 L0.65 -14.7 -4.35 -14.15 -4.45 -14.15 -6.4 -13.45 -9.25 -12.15 -10.5 -11.5 -12.3 -10.45 -15.15 -8.4 -16.25 -7.45 -16.4 -7.3 -17.0 -6.7 -17.9 -5.7 -18.3 -5.2 -19.3 -3.7 -19.35 -3.3 M-13.15 -7.3 L-13.0 -7.4 -13.05 -7.3" fill="none" stroke="#000000" stroke-linecap="square" stroke-linejoin="round" stroke-opacity="0.6" stroke-width="1.0"/>
    <path d="M-19.35 -3.3 L-19.35 -3.2 -19.05 -2.85 -18.25 -2.45 -17.9 -2.4 Q-19.05 -1.65 -20.0 -1.25 L-20.35 -0.9 -20.4 -0.45 -20.25 0.2 Q-19.9 0.65 -19.3 0.5 -18.8 0.4 -16.75 -0.9 -19.7 3.3 -19.5 5.7 L-19.3 6.1 -18.9 6.25 -18.3 6.25 Q-18.9 9.4 -18.45 11.4 L-18.25 11.7 -17.85 11.85 -17.25 11.85 -16.8 11.65 -16.65 11.25 -16.65 11.1 -16.7 10.05 -16.25 11.95 -16.25 12.05 Q-17.25 14.95 -17.45 17.75 -17.75 22.05 -16.15 25.05 L-15.95 25.25 -15.45 25.6 -15.4 25.65 -15.1 25.75 Q-14.85 25.75 -14.7 25.55 L-14.5 25.15 -14.6 24.8 -15.05 23.8 Q-14.4 25.05 -13.55 25.65 L-13.2 25.75 -12.45 25.75 Q-12.1 25.75 -11.95 25.45 L-11.25 25.45 Q-11.0 25.4 -10.85 25.2 -10.4 25.55 -9.95 25.55 L-9.4 25.45 -9.1 25.2 -9.1 25.25 -8.1 25.35 -7.7 25.2 -7.5 24.75 -7.55 24.5 -7.65 24.25 -7.65 24.2 Q-6.95 25.4 -6.15 25.55 L-5.65 25.5 -5.4 26.55 -4.8 27.0 -4.6 26.95 -4.25 26.7 -4.05 25.8 Q-3.65 25.95 -3.35 25.6 L-3.1 25.2 Q-2.5 25.85 -2.0 25.85 L-1.4 25.5 -1.1 25.6 -0.95 25.55 0.0 25.95 0.5 25.8 0.75 25.4 0.8 25.1 1.15 25.55 1.6 25.7 2.1 25.7 2.6 25.45 3.65 26.2 3.9 26.2 4.75 25.95 5.6 26.05 6.05 25.65 6.05 25.25 5.9 24.9 Q5.35 23.95 5.15 22.3 6.25 24.0 6.2 24.8 L6.35 25.25 6.8 25.45 7.25 25.45 7.8 25.6 Q8.3 25.6 8.7 25.15 L8.75 25.05 8.8 25.15 9.35 25.35 10.25 25.25 10.25 25.2 10.55 25.45 11.05 25.55 Q11.6 25.55 12.0 25.2 L12.4 25.45 13.1 25.45 13.6 25.75 14.35 25.75 14.7 25.65 Q15.55 25.05 16.2 23.8 L15.75 24.85 15.65 25.25 15.85 25.6 16.25 25.75 16.6 25.6 17.15 25.25 17.3 25.05 Q18.55 22.65 18.65 19.5 18.7 17.15 18.1 14.55 L18.05 14.3 18.3 14.4 19.05 14.5 19.5 14.4 19.75 13.95 19.85 11.6 Q19.85 8.9 19.45 6.75 L19.85 6.25 19.85 4.7 19.4 2.35 18.9 1.0 19.1 1.0 19.25 1.0 19.5 0.85 19.6 0.75 19.65 0.7 19.65 0.5 19.65 0.4 19.55 0.1 19.2 -0.85 18.25 -2.6 Q17.2 -3.9 15.6 -4.95 L14.65 -6.3 15.25 -5.85 15.65 -5.7 Q15.9 -5.7 16.05 -5.9 L16.1 -5.95 M17.45 11.35 L17.4 10.5 Q17.8 11.85 17.8 13.25 L17.35 11.75 17.45 11.35 M-13.05 -7.3 Q-15.15 -4.45 -17.45 -2.75 L-16.25 -4.5 Q-14.8 -6.3 -13.15 -7.3" fill="none" stroke="#000000" stroke-linecap="square" stroke-linejoin="round" stroke-opacity="0.4" stroke-width="1.0"/>
  </g>
</svg>
