<?xml version="1.0" encoding="UTF-8" standalone="no"?>
<svg xmlns:xlink="http://www.w3.org/1999/xlink" height="37.85px" width="44.6px" xmlns="http://www.w3.org/2000/svg">
  <g transform="matrix(1.0, 0.0, 0.0, 1.0, 22.2, 14.25)">
    <path d="M3.55 -12.65 Q0.1 -12.4 -1.2 -10.7 0.4 -13.05 3.15 -13.5 5.75 -13.95 8.55 -12.7 9.4 -12.3 10.35 -11.2 L11.95 -9.45 13.15 -8.65 14.45 -7.8 Q16.05 -6.75 16.5 -5.7 14.6 -5.8 12.35 -8.25 L10.55 -10.2 8.7 -11.75 Q6.8 -12.85 3.55 -12.65 M7.25 -8.6 L5.65 -10.0 5.95 -9.85 Q7.35 -9.2 8.05 -8.55 8.9 -7.8 9.45 -6.4 L10.3 -3.85 Q10.85 -2.05 11.4 -1.2 12.15 0.0 13.35 0.5 11.55 -0.2 10.65 -1.55 10.05 -2.4 9.2 -4.9 8.45 -7.2 7.25 -8.6 M3.05 -6.65 L4.05 -6.0 Q5.55 -4.75 5.65 -2.6 5.8 -0.45 7.2 1.9 L8.55 3.85 6.85 1.95 Q5.1 -0.4 4.7 -2.4 4.35 -4.45 3.45 -5.85 L2.6 -6.8 3.05 -6.65 M13.8 -3.4 L12.5 -5.4 14.1 -3.05 13.8 -3.4 M12.05 -7.5 L14.75 -5.65 17.95 -2.6 Q19.8 -0.9 21.75 -0.3 20.2 -0.2 18.65 -1.05 L16.0 -2.6 17.95 -0.65 19.55 1.6 17.8 0.3 Q16.8 -0.55 16.0 -0.65 L18.15 2.6 Q19.7 4.65 20.95 5.0 19.7 5.15 17.9 4.35 L16.25 3.3 17.25 4.95 Q18.1 6.25 19.75 6.75 L17.5 6.7 15.45 6.05 Q16.0 6.85 17.05 7.45 15.75 7.45 14.05 6.25 L14.25 7.5 14.45 8.8 Q14.3 7.95 13.4 6.7 L12.15 4.7 13.7 5.9 13.55 4.8 13.55 3.7 14.1 4.15 14.6 4.65 Q14.0 2.15 13.9 -0.3 L14.2 1.25 15.05 3.65 15.15 1.6 15.2 -0.15 Q15.0 -1.3 14.2 -2.9 14.75 -2.0 15.25 -1.55 15.1 -4.3 13.35 -6.1 L9.5 -9.05 12.05 -7.5 M7.25 13.45 Q7.95 14.9 7.6 17.4 7.2 19.95 7.85 21.2 L8.2 21.75 7.4 20.85 Q6.35 19.25 6.8 17.25 7.3 15.2 6.9 13.65 L6.6 12.75 6.45 12.45 6.7 12.65 7.25 13.45 M8.8 10.65 L7.05 8.25 6.9 7.95 Q8.3 10.15 11.25 11.65 L14.45 12.85 Q11.7 13.9 8.8 10.65 M4.15 6.5 L4.15 6.15 4.45 6.95 Q5.1 7.95 6.65 9.05 8.2 10.1 9.1 12.15 L9.7 14.0 8.8 12.55 Q7.7 10.85 6.25 9.8 4.8 8.7 4.35 7.35 L4.15 6.5 M2.5 11.8 L2.25 10.75 Q4.25 13.75 4.9 17.3 5.2 19.1 5.1 20.3 L4.75 18.45 3.6 14.75 2.5 11.8 M0.5 13.8 L0.35 13.4 0.65 13.95 1.3 15.25 Q2.1 17.35 1.3 18.75 0.45 20.2 0.1 21.7 L-0.05 22.95 -0.3 22.1 Q-0.4 20.8 0.35 18.75 1.05 16.75 0.75 14.9 L0.5 13.8 M-5.75 14.15 L-5.6 13.4 Q-5.8 15.7 -4.95 18.2 L-4.05 20.3 Q-5.95 18.75 -5.95 15.95 L-5.75 14.15 M-16.75 1.8 L-18.15 2.75 Q-19.0 3.35 -19.6 3.6 L-21.55 3.7 Q-20.7 3.8 -18.5 1.9 -15.65 -0.65 -14.7 -1.2 L-14.9 1.25 Q-15.85 1.3 -16.75 1.8 M-15.5 4.0 Q-15.1 3.55 -15.0 2.9 L-14.85 1.7 -14.85 1.85 -13.5 8.25 -14.15 7.9 Q-15.2 7.7 -16.05 8.55 -16.75 9.25 -17.05 10.3 -17.05 9.5 -16.6 8.6 L-15.55 7.2 Q-17.1 7.8 -17.9 8.65 -18.7 9.45 -19.3 11.05 -19.4 9.7 -18.9 8.6 -18.35 7.45 -17.2 6.8 L-16.3 6.35 -15.5 6.0 Q-14.75 5.6 -14.7 4.3 L-16.6 5.55 -18.9 5.8 -17.05 5.15 -15.5 4.0 M-8.15 2.55 L-9.85 4.75 Q-10.85 6.1 -10.7 7.3 L-10.25 6.95 -9.8 6.55 Q-9.5 7.25 -9.55 8.65 L-9.4 10.7 Q-9.15 9.2 -7.4 7.75 L-4.25 5.85 -6.45 8.15 Q-8.0 10.05 -8.3 10.9 -8.9 12.4 -8.45 14.6 L-7.2 18.2 Q-8.8 16.25 -9.65 14.0 -10.65 11.45 -10.35 9.3 -11.4 10.15 -12.3 11.85 L-13.75 14.7 Q-13.45 13.15 -12.15 9.8 -10.9 6.55 -10.55 4.85 -11.15 5.25 -11.55 6.0 L-12.05 7.45 Q-11.7 5.1 -10.95 4.2 -10.2 3.2 -8.15 2.55 M-1.45 2.15 L-1.25 1.75 Q-1.8 3.05 -1.85 4.75 -1.9 6.75 -1.2 8.65 -0.6 10.3 -1.05 13.1 -1.25 14.45 -1.6 15.5 L-1.6 14.2 Q-1.65 12.25 -2.15 9.4 -2.6 6.55 -1.95 3.8 L-1.45 2.15 M-2.55 -5.25 L-2.25 -5.55 Q-2.95 -4.65 -3.7 -1.6 L-4.45 1.6 Q-4.55 -1.5 -3.35 -3.9 L-2.55 -5.25 M-14.8 -4.0 Q-13.65 -4.65 -12.0 -6.45 L-9.3 -9.1 Q-11.8 -8.9 -14.1 -7.5 -16.55 -6.0 -17.55 -3.8 -17.3 -6.45 -13.75 -8.95 -12.25 -10.0 -10.6 -10.6 -8.9 -11.25 -7.65 -11.2 -8.85 -12.0 -11.6 -10.85 -14.2 -9.8 -15.25 -8.4 -14.35 -9.75 -12.85 -10.9 -11.35 -12.0 -9.8 -12.5 -8.0 -13.15 -6.5 -12.55 L-3.75 -10.75 -6.0 -11.0 Q-7.05 -10.75 -8.15 -10.1 L-6.9 -9.6 -5.65 -9.15 -8.15 -8.2 Q-9.55 -7.5 -10.35 -6.65 L-7.85 -6.6 Q-8.95 -6.35 -10.55 -5.15 L-13.35 -3.3 -16.95 -1.95 Q-19.2 -1.2 -20.45 -0.05 -19.85 -1.3 -18.0 -2.35 L-14.8 -4.0" fill="#ffffff" fill-opacity="0.0" fill-rule="evenodd" stroke="none"/>
    <path d="M3.55 -12.65 Q0.1 -12.4 -1.2 -10.7 0.4 -13.05 3.15 -13.5 5.75 -13.95 8.55 -12.7 9.4 -12.3 10.35 -11.2 L11.95 -9.45 13.15 -8.65 14.45 -7.8 Q16.05 -6.75 16.5 -5.7 14.6 -5.8 12.35 -8.25 L10.55 -10.2 8.7 -11.75 Q6.8 -12.85 3.55 -12.65 M7.25 -8.6 Q8.45 -7.2 9.2 -4.9 10.05 -2.4 10.65 -1.55 11.55 -0.2 13.35 0.5 12.15 0.0 11.4 -1.2 10.85 -2.05 10.3 -3.85 L9.45 -6.4 Q8.9 -7.8 8.05 -8.55 7.35 -9.2 5.95 -9.85 L5.65 -10.0 7.25 -8.6 M3.05 -6.65 L4.05 -6.0 Q5.55 -4.75 5.65 -2.6 5.8 -0.45 7.2 1.9 L8.55 3.85 6.85 1.95 Q5.1 -0.4 4.7 -2.4 4.35 -4.45 3.45 -5.85 L2.6 -6.8 3.05 -6.65 M13.8 -3.4 L14.1 -3.05 12.5 -5.4 13.8 -3.4 M12.05 -7.5 L14.75 -5.65 17.95 -2.6 Q19.8 -0.9 21.75 -0.3 20.2 -0.2 18.65 -1.05 L16.0 -2.6 17.95 -0.65 19.55 1.6 17.8 0.3 Q16.8 -0.55 16.0 -0.65 L18.15 2.6 Q19.7 4.65 20.95 5.0 19.7 5.15 17.9 4.35 L16.25 3.3 17.25 4.95 Q18.1 6.25 19.75 6.75 L17.5 6.7 15.45 6.05 Q16.0 6.85 17.05 7.45 15.75 7.45 14.05 6.25 L14.25 7.5 14.45 8.8 Q14.3 7.95 13.4 6.7 L12.15 4.7 13.7 5.9 13.55 4.8 13.55 3.7 14.1 4.15 14.6 4.65 Q14.0 2.15 13.9 -0.3 L14.2 1.25 15.05 3.65 15.15 1.6 15.2 -0.15 Q15.0 -1.3 14.2 -2.9 14.75 -2.0 15.25 -1.55 15.1 -4.3 13.35 -6.1 L9.5 -9.05 12.05 -7.5 M-14.8 -4.0 L-18.0 -2.35 Q-19.85 -1.3 -20.45 -0.05 -19.2 -1.2 -16.95 -1.95 L-13.35 -3.3 -10.55 -5.15 Q-8.95 -6.35 -7.85 -6.6 L-10.35 -6.65 Q-9.55 -7.5 -8.15 -8.2 L-5.65 -9.15 -6.9 -9.6 -8.15 -10.1 Q-7.05 -10.75 -6.0 -11.0 L-3.75 -10.75 -6.5 -12.55 Q-8.0 -13.15 -9.8 -12.5 -11.35 -12.0 -12.85 -10.9 -14.35 -9.75 -15.25 -8.4 -14.2 -9.8 -11.6 -10.85 -8.85 -12.0 -7.65 -11.2 -8.9 -11.25 -10.6 -10.6 -12.25 -10.0 -13.75 -8.95 -17.3 -6.45 -17.55 -3.8 -16.55 -6.0 -14.1 -7.5 -11.8 -8.9 -9.3 -9.1 L-12.0 -6.45 Q-13.65 -4.65 -14.8 -4.0 M-2.55 -5.25 L-3.35 -3.9 Q-4.55 -1.5 -4.45 1.6 L-3.7 -1.6 Q-2.95 -4.65 -2.25 -5.55 L-2.55 -5.25 M-1.45 2.15 L-1.95 3.8 Q-2.6 6.55 -2.15 9.4 -1.65 12.25 -1.6 14.2 L-1.6 15.5 Q-1.25 14.45 -1.05 13.1 -0.6 10.3 -1.2 8.65 -1.9 6.75 -1.85 4.75 -1.8 3.05 -1.25 1.75 L-1.45 2.15 M-8.15 2.55 Q-10.2 3.2 -10.95 4.2 -11.7 5.1 -12.05 7.45 L-11.55 6.0 Q-11.15 5.25 -10.55 4.85 -10.9 6.55 -12.15 9.8 -13.45 13.15 -13.75 14.7 L-12.3 11.85 Q-11.4 10.15 -10.35 9.3 -10.65 11.45 -9.65 14.0 -8.8 16.25 -7.2 18.2 L-8.45 14.6 Q-8.9 12.4 -8.3 10.9 -8.0 10.05 -6.45 8.15 L-4.25 5.85 -7.4 7.75 Q-9.15 9.2 -9.4 10.7 L-9.55 8.65 Q-9.5 7.25 -9.8 6.55 L-10.25 6.95 -10.7 7.3 Q-10.85 6.1 -9.85 4.75 L-8.15 2.55 M-15.5 4.0 L-17.05 5.15 -18.9 5.8 -16.6 5.55 -14.7 4.3 Q-14.75 5.6 -15.5 6.0 L-16.3 6.35 -17.2 6.8 Q-18.35 7.45 -18.9 8.6 -19.4 9.7 -19.3 11.05 -18.7 9.45 -17.9 8.65 -17.1 7.8 -15.55 7.2 L-16.6 8.6 Q-17.05 9.5 -17.05 10.3 -16.75 9.25 -16.05 8.55 -15.2 7.7 -14.15 7.9 L-13.5 8.25 -14.85 1.85 -14.85 1.7 -15.0 2.9 Q-15.1 3.55 -15.5 4.0 M-16.75 1.8 Q-15.85 1.3 -14.9 1.25 L-14.7 -1.2 Q-15.65 -0.65 -18.5 1.9 -20.7 3.8 -21.55 3.7 L-19.6 3.6 Q-19.0 3.35 -18.15 2.75 L-16.75 1.8 M-5.75 14.15 L-5.95 15.95 Q-5.95 18.75 -4.05 20.3 L-4.95 18.2 Q-5.8 15.7 -5.6 13.4 L-5.75 14.15 M0.5 13.8 L0.75 14.9 Q1.05 16.75 0.35 18.75 -0.4 20.8 -0.3 22.1 L-0.05 22.95 0.1 21.7 Q0.45 20.2 1.3 18.75 2.1 17.35 1.3 15.25 L0.65 13.95 0.35 13.4 0.5 13.8 M2.5 11.8 L3.6 14.75 4.75 18.45 5.1 20.3 Q5.2 19.1 4.9 17.3 4.25 13.75 2.25 10.75 L2.5 11.8 M4.15 6.5 L4.35 7.35 Q4.8 8.7 6.25 9.8 7.7 10.85 8.8 12.55 L9.7 14.0 9.1 12.15 Q8.2 10.1 6.65 9.05 5.1 7.95 4.45 6.95 L4.15 6.15 4.15 6.5 M8.8 10.65 Q11.7 13.9 14.45 12.85 L11.25 11.65 Q8.3 10.15 6.9 7.95 L7.05 8.25 8.8 10.65 M7.25 13.45 L6.7 12.65 6.45 12.45 6.6 12.75 6.9 13.65 Q7.3 15.2 6.8 17.25 6.35 19.25 7.4 20.85 L8.2 21.75 7.85 21.2 Q7.2 19.95 7.6 17.4 7.95 14.9 7.25 13.45" fill="none" stroke="#000000" stroke-linecap="square" stroke-linejoin="round" stroke-opacity="0.4" stroke-width="1.0"/>
  </g>
</svg>
