<?xml version="1.0" encoding="UTF-8" standalone="no"?>
<svg xmlns:xlink="http://www.w3.org/1999/xlink" height="24.05px" width="84.45px" xmlns="http://www.w3.org/2000/svg">
  <g transform="matrix(1.0, 0.0, 0.0, 1.0, 42.05, 11.45)">
    <path d="M13.55 5.05 Q14.5 6.3 16.1 7.25 L26.55 -8.6 22.8 -8.15 20.5 -7.75 12.65 3.4 13.55 5.05 M41.3 -0.55 Q40.65 1.75 39.65 3.65 L37.7 6.6 Q34.85 9.95 30.5 10.95 23.2 12.55 17.0 10.35 L14.7 9.4 Q12.1 8.1 10.7 6.2 9.65 4.8 9.25 3.05 L8.55 -1.05 Q7.6 -7.95 16.5 -9.15 L22.3 -10.25 28.05 -10.9 Q43.15 -11.65 41.3 -0.55 M-41.35 -0.55 Q-43.55 -13.65 -22.15 -10.2 L-16.85 -9.2 -16.55 -9.15 Q-7.65 -7.95 -8.6 -1.05 L-9.3 3.05 Q-10.5 8.15 -17.05 10.35 -23.25 12.55 -30.55 10.95 -33.25 10.35 -35.35 8.8 -36.65 7.9 -37.75 6.6 L-39.5 4.0 -39.7 3.65 Q-40.7 1.75 -41.35 -0.55 M-36.75 3.0 L-36.6 3.3 -35.2 5.35 -33.45 7.0 -18.75 -7.35 -22.75 -8.1 -24.45 -8.35 -37.2 2.1 -36.75 3.0" fill="#000000" fill-opacity="0.84705883" fill-rule="evenodd" stroke="none"/>
    <path d="M13.55 5.05 L12.65 3.4 20.5 -7.75 22.8 -8.15 26.55 -8.6 16.1 7.25 Q14.5 6.3 13.55 5.05 M-36.75 3.0 L-37.2 2.1 -24.45 -8.35 -22.75 -8.1 -18.75 -7.35 -33.45 7.0 -35.2 5.35 -36.6 3.3 -36.75 3.0" fill="#ffffff" fill-opacity="0.84705883" fill-rule="evenodd" stroke="none"/>
    <path d="M41.3 -0.55 Q40.65 1.75 39.65 3.65 L37.7 6.6 Q34.85 9.95 30.5 10.95 23.2 12.55 17.0 10.35 L14.7 9.4 Q12.1 8.1 10.7 6.2 9.65 4.8 9.25 3.05 L8.55 -1.05 Q7.6 -7.95 16.5 -9.15 L22.3 -10.25 28.05 -10.9 Q43.15 -11.65 41.3 -0.55 M-41.35 -0.55 Q-40.7 1.75 -39.7 3.65 L-39.5 4.0 -37.75 6.6 Q-36.65 7.9 -35.35 8.8 -33.25 10.35 -30.55 10.95 -23.25 12.55 -17.05 10.35 -10.5 8.15 -9.3 3.05 L-8.6 -1.05 Q-7.65 -7.95 -16.55 -9.15 L-16.85 -9.2 -22.15 -10.2 Q-43.55 -13.65 -41.35 -0.55" fill="none" stroke="#000000" stroke-linecap="butt" stroke-linejoin="miter-clip" stroke-miterlimit="10.0" stroke-opacity="0.4" stroke-width="1.0"/>
  </g>
</svg>
