<?xml version="1.0" encoding="UTF-8" standalone="no"?>
<svg xmlns:xlink="http://www.w3.org/1999/xlink" height="71.7px" width="37.2px" xmlns="http://www.w3.org/2000/svg">
  <g transform="matrix(1.0, 0.0, 0.0, 1.0, 19.3, 17.45)">
    <path d="M-9.9 -12.7 L-7.7 -13.5 -6.55 -13.6 -5.65 -14.6 Q-3.3 -16.6 -0.1 -16.8 3.1 -16.9 5.6 -15.0 L4.95 -14.95 Q7.55 -13.8 9.9 -11.8 L8.15 -11.95 Q10.7 -9.3 12.35 -5.75 14.05 -2.05 14.4 1.6 L10.5 -3.05 6.3 -7.15 8.55 -4.1 10.7 -0.6 13.4 2.7 15.85 6.15 16.55 7.35 16.55 5.7 Q16.5 7.3 16.95 10.8 17.35 14.1 17.2 15.85 L16.5 19.65 15.45 23.4 15.8 22.15 Q16.1 19.3 15.65 16.35 15.3 13.75 14.25 10.45 14.8 13.1 14.7 15.6 14.6 17.9 13.95 20.55 14.3 18.95 13.4 16.7 L11.85 13.0 Q11.2 11.15 11.25 8.3 L11.4 3.95 10.85 7.2 10.05 10.9 9.95 12.75 10.2 13.55 9.6 15.6 7.3 21.35 Q7.45 19.05 6.15 16.0 L3.85 11.2 4.55 13.95 4.75 17.05 4.7 23.8 4.55 25.75 4.0 24.7 1.25 19.9 Q-0.5 16.9 -0.95 14.9 L0.15 18.8 1.75 22.65 Q3.8 27.65 4.0 30.4 3.45 28.2 1.3 26.1 L-0.65 24.4 -2.65 22.75 -6.75 18.9 Q-8.7 16.8 -9.95 14.5 L-9.4 15.95 -8.8 17.65 -6.9 21.05 -4.55 24.15 -0.4 28.6 Q2.0 31.35 2.65 33.85 1.05 33.2 -1.6 31.05 L-5.85 28.0 -9.8 25.75 Q-12.05 24.4 -13.3 22.8 -15.6 19.95 -16.7 17.1 -17.8 14.2 -18.0 10.5 L-17.65 6.8 Q-16.5 11.45 -14.1 15.15 L-14.1 14.9 Q-14.7 13.2 -14.2 11.2 L-14.25 10.4 Q-14.4 7.7 -13.1 4.6 L-11.9 1.95 -10.8 -0.95 Q-12.2 -0.45 -13.6 1.45 L-15.55 4.6 Q-15.5 3.1 -14.75 1.0 L-13.3 -2.35 -14.95 -0.7 -16.4 1.05 Q-16.1 -3.1 -14.3 -6.75 -12.65 -10.0 -9.9 -12.7 M13.55 21.5 L12.55 24.25 11.7 25.75 11.9 29.65 Q11.8 33.25 10.55 35.9 10.55 33.75 9.6 32.3 10.8 35.75 9.95 40.05 L9.4 42.25 Q8.3 45.15 6.2 46.55 L6.8 44.1 6.9 43.55 6.5 44.8 5.2 47.6 4.6 48.65 2.6 51.45 Q3.75 49.65 4.75 47.3 L5.0 46.55 5.9 43.85 Q6.15 45.55 5.9 46.1 6.75 44.55 7.1 42.25 L7.25 40.75 7.45 35.1 Q7.55 32.6 8.1 30.25 8.6 28.0 9.55 25.65 L8.1 27.2 6.8 28.95 6.4 30.1 6.1 29.3 6.25 28.1 Q6.45 26.35 7.0 25.15 7.6 23.85 9.8 21.15 L12.15 17.8 12.55 18.5 Q13.3 20.0 13.55 21.5 M11.65 -4.0 Q7.35 -13.35 1.85 -14.75 0.1 -15.15 -1.55 -14.75 L-2.85 -14.3 Q1.7 -14.85 7.1 -9.5 9.8 -6.8 11.65 -4.0 M-11.05 10.0 Q-9.25 15.7 -3.4 20.5 L-0.5 23.45 Q2.55 26.8 3.45 28.75 3.25 27.25 2.4 25.3 0.75 21.35 -2.35 19.1 -6.65 15.8 -8.3 13.65 -10.65 10.55 -11.75 5.3 L-11.75 6.6 Q-11.65 8.25 -11.05 10.0 M-16.8 14.85 Q-16.6 16.75 -15.7 18.6 -12.8 24.65 -4.25 28.2 -6.9 26.7 -9.8 24.05 -15.65 18.85 -16.85 13.35 L-16.8 14.85" fill="#ffffff" fill-opacity="0.0" fill-rule="evenodd" stroke="none"/>
    <path d="M11.65 -4.0 Q9.8 -6.8 7.1 -9.5 1.7 -14.85 -2.85 -14.3 L-1.55 -14.75 Q0.1 -15.15 1.85 -14.75 7.35 -13.35 11.65 -4.0 M-11.05 10.0 Q-11.65 8.25 -11.75 6.6 L-11.75 5.3 Q-10.65 10.55 -8.3 13.65 -6.65 15.8 -2.35 19.1 0.75 21.35 2.4 25.3 3.25 27.25 3.45 28.75 2.55 26.8 -0.5 23.45 L-3.4 20.5 Q-9.25 15.7 -11.05 10.0 M-16.8 14.85 L-16.85 13.35 Q-15.65 18.85 -9.8 24.05 -6.9 26.7 -4.25 28.2 -12.8 24.65 -15.7 18.6 -16.6 16.75 -16.8 14.85" fill="#ffffff" fill-opacity="0.2" fill-rule="evenodd" stroke="none"/>
    <path d="M-13.6 -10.8 Q-11.05 -12.55 -9.65 -13.0 L-9.9 -12.7 -11.5 -11.95 -13.6 -10.8 -11.5 -11.95 -9.9 -12.7 Q-12.65 -10.0 -14.3 -6.75 -16.1 -3.1 -16.4 1.05 L-14.95 -0.7 -13.3 -2.35 -14.75 1.0 Q-15.5 3.1 -15.55 4.6 L-13.6 1.45 Q-12.2 -0.45 -10.8 -0.95 L-11.9 1.95 -13.1 4.6 Q-14.4 7.7 -14.25 10.4 L-14.2 11.2 Q-14.7 13.2 -14.1 14.9 L-14.1 15.15 Q-16.5 11.45 -17.65 6.8 L-18.0 10.5 Q-17.8 14.2 -16.7 17.1 -15.6 19.95 -13.3 22.8 -12.05 24.4 -9.8 25.75 L-5.85 28.0 -1.6 31.05 Q1.05 33.2 2.65 33.85 2.0 31.35 -0.4 28.6 L-4.55 24.15 -6.9 21.05 -8.8 17.65 -9.4 15.95 -9.95 14.5 Q-8.7 16.8 -6.75 18.9 L-2.65 22.75 -0.65 24.4 1.3 26.1 Q3.45 28.2 4.0 30.4 3.8 27.65 1.75 22.65 L0.15 18.8 -0.95 14.9 Q-0.5 16.9 1.25 19.9 L4.0 24.7 4.55 25.75 4.7 23.8 4.75 17.05 4.55 13.95 3.85 11.2 6.15 16.0 Q7.45 19.05 7.3 21.35 L9.6 15.6 10.2 13.55 9.95 12.75 10.05 10.9 10.85 7.2 11.4 3.95 11.25 8.3 Q11.2 11.15 11.85 13.0 L13.4 16.7 Q14.3 18.95 13.95 20.55 14.6 17.9 14.7 15.6 14.8 13.1 14.25 10.45 15.3 13.75 15.65 16.35 16.1 19.3 15.8 22.15 L15.45 23.4 Q15.0 24.8 14.15 25.95 L12.2 28.2 Q13.65 26.0 13.7 23.45 L13.55 21.5 Q13.3 20.0 12.55 18.5 L12.15 17.8 9.8 21.15 Q7.6 23.85 7.0 25.15 6.45 26.35 6.25 28.1 L6.1 29.3 6.4 30.1 6.8 28.95 8.1 27.2 9.55 25.65 Q8.6 28.0 8.1 30.25 7.55 32.6 7.45 35.1 L7.25 40.75 7.1 42.25 Q6.75 44.55 5.9 46.1 6.15 45.55 5.9 43.85 L5.0 46.55 4.75 47.3 Q3.75 49.65 2.6 51.45 L2.5 51.55 0.2 53.6 -0.05 53.6 Q2.55 52.05 3.0 47.3 L3.05 45.3 2.8 42.25 Q2.3 39.3 1.4 37.7 0.15 35.45 -1.9 33.65 L-5.95 30.75 -10.1 28.05 -13.85 24.6 Q-15.15 23.1 -16.05 21.3 L-16.9 19.65 -18.1 15.9 -18.45 13.95 -18.65 10.35 -18.4 7.75 -18.15 6.3 -17.95 5.45 -17.95 5.4 -18.2 3.9 Q-18.35 2.75 -17.9 -1.3 -17.4 -5.9 -16.75 -7.2 -15.75 -9.2 -13.6 -10.8 M9.9 -11.8 L10.2 -11.5 Q12.65 -9.4 14.4 -6.7 16.15 -4.0 16.55 -0.75 16.75 1.25 16.55 5.7 L16.55 7.35 15.85 6.15 13.4 2.7 10.7 -0.6 8.55 -4.1 6.3 -7.15 10.5 -3.05 14.4 1.6 Q14.05 -2.05 12.35 -5.75 10.7 -9.3 8.15 -11.95 L9.9 -11.8" fill="#000000" fill-opacity="0.2" fill-rule="evenodd" stroke="none"/>
    <path d="M-18.15 6.3 L-17.95 5.4 -17.95 5.45 -18.15 6.3" fill="#945c47" fill-rule="evenodd" stroke="none"/>
    <path d="M-9.9 -12.7 L-7.7 -13.5 -6.55 -13.6 -5.65 -14.6 Q-3.3 -16.6 -0.1 -16.8 3.1 -16.9 5.6 -15.0 L4.95 -14.95 Q7.55 -13.8 9.9 -11.8 L10.2 -11.5 Q12.65 -9.4 14.4 -6.7 16.15 -4.0 16.55 -0.75 16.75 1.25 16.55 5.7 16.5 7.3 16.95 10.8 17.35 14.1 17.2 15.85 L16.5 19.65 15.45 23.4 Q15.0 24.8 14.15 25.95 L12.2 28.2 M11.7 25.75 L11.9 29.65 Q11.8 33.25 10.55 35.9 M9.6 32.3 Q10.8 35.75 9.95 40.05 L9.4 42.25 Q8.3 45.15 6.2 46.55 M6.9 43.55 L6.5 44.8 5.2 47.6 4.6 48.65 2.6 51.45 2.5 51.55 0.2 53.6 M-0.05 53.6 Q2.55 52.05 3.0 47.3 M2.8 42.25 Q2.3 39.3 1.4 37.7 0.15 35.45 -1.9 33.65 L-5.95 30.75 -10.1 28.05 -13.85 24.6 Q-15.15 23.1 -16.05 21.3 L-16.9 19.65 -18.1 15.9 -18.45 13.95 -18.65 10.35 -18.4 7.75 -18.15 6.3 -17.95 5.45 M-17.95 5.4 L-18.2 3.9 Q-18.35 2.75 -17.9 -1.3 -17.4 -5.9 -16.75 -7.2 -15.75 -9.2 -13.6 -10.8 L-11.5 -11.95 -9.9 -12.7" fill="none" stroke="#000000" stroke-linecap="square" stroke-linejoin="round" stroke-opacity="0.6" stroke-width="1.0"/>
    <path d="M12.2 28.2 Q13.65 26.0 13.7 23.45 L13.55 21.5 12.55 24.25 11.7 25.75 M10.55 35.9 Q10.55 33.75 9.6 32.3 M6.2 46.55 L6.8 44.1 6.9 43.55 M3.0 47.3 L3.05 45.3 2.8 42.25" fill="none" stroke="#000000" stroke-linecap="square" stroke-linejoin="round" stroke-opacity="0.4" stroke-width="1.0"/>
  </g>
</svg>
