<?xml version="1.0" encoding="UTF-8" standalone="no"?>
<svg xmlns:xlink="http://www.w3.org/1999/xlink" height="59.2px" width="41.95px" xmlns="http://www.w3.org/2000/svg">
  <g transform="matrix(1.0, 0.0, 0.0, 1.0, 21.0, 14.6)">
    <path d="M-13.3 41.65 Q-15.6 39.05 -17.45 34.2 -18.95 30.15 -19.75 25.8 -20.7 20.65 -20.2 14.5 -19.85 9.55 -18.45 3.3 L-16.95 -1.8 -15.85 -4.2 -15.75 -4.35 -15.7 -4.4 -15.45 -4.9 -13.65 -7.6 -11.65 -9.7 -10.0 -11.0 -7.15 -12.6 -3.75 -13.65 -2.0 -13.9 -1.8 -13.9 -0.05 -13.95 1.05 -13.95 Q5.35 -13.8 9.15 -11.5 16.1 -7.25 18.4 3.3 19.75 9.6 20.15 14.5 20.6 20.65 19.7 25.8 L18.4 31.15 16.35 36.65 Q14.9 40.4 13.7 41.1 L13.2 41.65 13.2 41.25 13.15 38.9 13.15 36.6 13.1 36.65 Q12.8 38.65 11.95 40.5 10.9 42.7 9.7 43.2 10.45 38.4 11.0 32.4 12.0 20.3 10.9 13.95 L10.55 20.9 Q10.1 28.6 9.25 32.5 L9.2 20.55 Q8.8 7.9 6.95 4.1 L7.3 8.75 7.8 19.8 Q8.25 36.65 6.3 43.05 L5.25 43.95 Q4.6 42.8 4.65 40.15 L4.9 36.4 Q4.65 37.15 4.3 39.75 3.8 42.1 2.8 42.4 2.5 37.7 2.55 35.1 2.45 37.3 1.85 39.35 L0.45 42.6 0.6 25.75 Q0.6 13.7 0.05 10.85 L-1.6 31.65 -2.4 0.5 -3.9 27.9 Q-5.35 11.5 -6.0 6.9 L-6.35 10.55 -6.85 19.45 Q-7.25 33.45 -5.0 40.45 L-6.45 38.1 -8.65 34.6 Q-8.65 36.35 -8.05 38.75 L-7.05 42.75 -8.6 41.8 Q-11.2 37.05 -12.95 28.15 L-13.9 22.5 -14.2 20.2 Q-14.75 23.15 -14.6 27.4 L-14.4 31.0 Q-16.0 27.75 -16.7 20.25 L-16.95 15.45 -17.0 13.45 Q-17.95 24.1 -15.7 33.95 -14.6 38.85 -13.3 41.65 M16.8 19.7 Q16.95 15.55 16.45 11.6 16.0 8.3 15.2 5.55 L14.5 3.45 15.0 7.55 Q16.25 12.95 16.2 19.75 L15.75 18.25 15.1 16.1 Q14.45 17.45 14.25 19.9 L14.05 23.8 13.7 27.2 Q13.45 29.25 13.6 30.6 14.65 26.4 15.4 21.0 15.9 21.5 16.1 22.75 L15.9 25.5 Q15.45 30.65 14.65 34.3 15.75 30.0 16.3 25.95 L16.3 26.1 16.8 24.3 17.2 22.6 17.75 24.6 17.85 26.7 Q18.8 24.7 19.05 22.0 L19.15 17.1 Q18.9 17.75 18.75 19.15 L18.3 21.15 Q17.8 20.65 17.75 19.05 17.7 17.45 17.2 16.9 L17.0 18.7 16.8 19.7 M-16.05 -1.15 L-16.2 0.15 -16.35 1.45 Q-15.8 1.25 -15.2 0.05 L-14.1 -1.65 Q-13.8 -1.05 -14.4 0.6 L-15.2 3.0 -14.7 2.1 -13.9 1.35 Q-14.15 3.95 -14.0 5.85 L-12.9 3.6 Q-12.05 2.25 -11.15 2.0 -11.1 3.45 -11.7 5.45 L-11.15 4.15 Q-10.6 2.95 -9.85 2.45 -10.65 3.85 -10.7 6.6 L-10.6 10.95 Q-10.6 7.9 -9.7 4.9 -8.8 1.9 -7.2 -0.65 L-8.5 0.3 Q-9.35 0.85 -9.95 0.8 L-9.45 -0.7 -8.55 -2.0 -10.45 -0.35 Q-11.75 0.75 -12.55 0.6 -12.9 -1.1 -9.7 -4.4 L-8.85 -5.25 -8.5 -5.6 -8.85 -5.4 -10.35 -4.4 -10.5 -4.3 Q-11.8 -3.4 -12.55 -3.5 L-12.25 -4.4 -12.1 -4.8 -11.5 -5.95 Q-11.8 -5.55 -12.85 -4.9 L-13.75 -4.4 Q-14.25 -4.15 -14.5 -4.15 L-14.5 -4.4 -14.4 -5.1 -14.2 -6.05 -15.1 -4.4 -15.95 -2.95 Q-16.75 -1.4 -17.0 0.25 -16.8 -0.9 -16.05 -1.15" fill="#ffffff" fill-opacity="0.0" fill-rule="evenodd" stroke="none"/>
    <path d="M16.8 19.7 L17.0 18.7 17.2 16.9 Q17.7 17.45 17.75 19.05 17.8 20.65 18.3 21.15 L18.75 19.15 Q18.9 17.75 19.15 17.1 L19.05 22.0 Q18.8 24.7 17.85 26.7 L17.75 24.6 17.2 22.6 16.8 24.3 16.3 26.1 16.3 25.95 16.8 19.7 M16.1 22.75 Q15.9 21.5 15.4 21.0 14.65 26.4 13.6 30.6 13.45 29.25 13.7 27.2 L14.05 23.8 14.25 19.9 Q14.45 17.45 15.1 16.1 L15.75 18.25 16.2 19.75 16.1 22.75 M-16.05 -1.15 Q-16.8 -0.9 -17.0 0.25 -16.75 -1.4 -15.95 -2.95 L-15.1 -4.4 -14.2 -6.05 -14.4 -5.1 -14.5 -4.4 -14.5 -4.15 Q-14.25 -4.15 -13.75 -4.4 L-12.85 -4.9 Q-11.8 -5.55 -11.5 -5.95 L-12.1 -4.8 -12.25 -4.4 -12.55 -3.5 Q-11.8 -3.4 -10.5 -4.3 L-10.35 -4.4 -8.85 -5.4 -8.5 -5.6 -8.85 -5.25 -9.7 -4.4 Q-12.9 -1.1 -12.55 0.6 -11.75 0.75 -10.45 -0.35 L-8.55 -2.0 -9.45 -0.7 -9.95 0.8 Q-9.35 0.85 -8.5 0.3 L-7.2 -0.65 Q-8.8 1.9 -9.7 4.9 -10.6 7.9 -10.6 10.95 L-10.7 6.6 Q-10.65 3.85 -9.85 2.45 -10.6 2.95 -11.15 4.15 L-11.7 5.45 Q-11.1 3.45 -11.15 2.0 -12.05 2.25 -12.9 3.6 L-14.0 5.85 Q-14.15 3.95 -13.9 1.35 L-14.7 2.1 -15.2 3.0 -14.4 0.6 Q-13.8 -1.05 -14.1 -1.65 L-15.2 0.05 Q-15.8 1.25 -16.35 1.45 L-16.2 0.15 -16.05 -1.15" fill="#ffffff" fill-opacity="0.2" fill-rule="evenodd" stroke="none"/>
    <path d="M-13.3 41.65 Q-14.6 38.85 -15.7 33.95 -17.95 24.1 -17.0 13.45 L-16.95 15.45 -16.7 20.25 Q-16.0 27.75 -14.4 31.0 L-14.6 27.4 Q-14.75 23.15 -14.2 20.2 L-13.9 22.5 -12.95 28.15 Q-11.2 37.05 -8.6 41.8 L-10.3 40.5 -10.65 40.15 -11.3 39.4 Q-13.0 37.5 -13.75 35.65 L-13.8 35.6 -13.45 38.55 Q-13.2 40.45 -13.3 41.65 M-5.0 40.45 Q-7.25 33.45 -6.85 19.45 L-6.35 10.55 -6.0 6.9 Q-5.35 11.5 -3.9 27.9 L-2.4 0.5 -1.6 31.65 0.05 10.85 Q0.6 13.7 0.6 25.75 L0.45 42.6 0.35 42.75 -0.15 43.45 Q-1.05 42.25 -2.0 39.45 -2.95 36.5 -3.75 35.35 L-3.7 38.55 Q-3.65 40.6 -4.2 41.6 L-5.0 40.45 M6.3 43.05 Q8.25 36.65 7.8 19.8 L7.3 8.75 6.95 4.1 Q8.8 7.9 9.2 20.55 L9.25 32.5 Q10.1 28.6 10.55 20.9 L10.9 13.95 Q12.0 20.3 11.0 32.4 10.45 38.4 9.7 43.2 L9.2 39.05 Q8.85 36.55 8.95 35.05 8.65 35.65 8.05 38.25 L7.85 39.05 7.65 39.85 6.3 43.05 M16.2 19.75 Q16.25 12.95 15.0 7.55 L14.5 3.45 15.2 5.55 Q16.0 8.3 16.45 11.6 16.95 15.55 16.8 19.7 L16.3 25.95 Q15.75 30.0 14.65 34.3 15.45 30.65 15.9 25.5 L16.1 22.75 16.2 19.75" fill="#000000" fill-opacity="0.2" fill-rule="evenodd" stroke="none"/>
    <path d="M9.7 43.2 Q10.9 42.7 11.95 40.5 12.8 38.65 13.1 36.65 L13.15 36.6 13.15 38.9 13.2 41.25 13.2 41.65 13.7 41.1 Q14.9 40.4 16.35 36.65 L18.4 31.15 19.7 25.8 Q20.6 20.65 20.15 14.5 19.75 9.6 18.4 3.3 16.1 -7.25 9.15 -11.5 5.35 -13.8 1.05 -13.95 L-0.05 -13.95 -1.8 -13.9 -2.0 -13.9 -3.75 -13.65 -7.15 -12.6 -10.0 -11.0 -11.65 -9.7 -13.65 -7.6 -15.45 -4.9 -15.7 -4.4 -15.75 -4.35 -15.85 -4.2 -16.95 -1.8 -18.45 3.3 Q-19.85 9.55 -20.2 14.5 -20.7 20.65 -19.75 25.8 -18.95 30.15 -17.45 34.2 -15.6 39.05 -13.3 41.65 -13.2 40.45 -13.45 38.55 L-13.8 35.6 -13.75 35.65 Q-13.0 37.5 -11.3 39.4 L-10.65 40.15 -10.3 40.5 -8.6 41.8 -7.05 42.75 -8.05 38.75 Q-8.65 36.35 -8.65 34.6 L-6.45 38.1 -5.0 40.45 -4.2 41.6 Q-3.65 40.6 -3.7 38.55 L-3.75 35.35 Q-2.95 36.5 -2.0 39.45 -1.05 42.25 -0.15 43.45 L0.35 42.75 0.45 42.6 1.85 39.35 Q2.45 37.3 2.55 35.1 2.5 37.7 2.8 42.4 3.8 42.1 4.3 39.75 4.65 37.15 4.9 36.4 L4.65 40.15 Q4.6 42.8 5.25 43.95 L6.3 43.05 7.65 39.85 7.85 39.05 8.05 38.25 Q8.65 35.65 8.95 35.05 8.85 36.55 9.2 39.05 L9.7 43.2 Z" fill="none" stroke="#000000" stroke-linecap="square" stroke-linejoin="round" stroke-opacity="0.6" stroke-width="1.0"/>
  </g>
</svg>
