<?xml version="1.0" encoding="UTF-8" standalone="no"?>
<svg xmlns:xlink="http://www.w3.org/1999/xlink" height="56.75px" width="221.6px" xmlns="http://www.w3.org/2000/svg">
  <g transform="matrix(1.0, 0.0, 0.0, 1.0, 111.0, 28.3)">
    <path d="M26.8 23.2 L26.9 23.25 26.8 23.2" fill="#000000" fill-opacity="0.49803922" fill-rule="evenodd" stroke="none"/>
    <path d="M26.8 23.2 Q15.55 17.9 13.0 7.75 L11.4 -2.05 Q-1.0 -5.25 -11.4 -1.85 L-13.0 7.75 Q-15.8 19.75 -31.2 24.95 -45.8 30.15 -63.0 26.35 -81.6 22.15 -88.4 -0.65 L-107.4 -4.05 Q-111.0 -14.45 -110.4 -16.05 -110.0 -17.05 -98.8 -19.85 -99.4 -21.65 -98.8 -23.65 -98.2 -26.05 -79.6 -26.45 -65.2 -26.85 -53.8 -26.25 L-30.0 -24.05 Q-26.0 -23.85 -20.6 -22.45 L-20.8 -22.45 -20.0 -22.05 Q-18.8 -21.85 -15.8 -20.45 L-15.4 -20.25 Q0.8 -14.85 17.2 -21.25 L19.0 -22.05 18.6 -22.05 Q24.2 -23.65 29.4 -24.05 L53.8 -26.25 59.7 -26.5 Q68.8 -26.75 79.6 -26.45 98.4 -26.05 99.0 -23.65 99.6 -22.05 98.8 -19.65 109.6 -17.25 110.0 -16.05 110.4 -14.45 107.0 -4.05 L88.6 -0.85 Q85.6 8.55 81.6 13.95 74.6 23.75 63.0 26.35 46.0 30.15 31.2 24.95 28.9 24.15 26.9 23.25 L26.8 23.2 M82.7 -0.5 Q86.4 -22.75 56.2 -21.2 L44.65 -19.95 33.05 -17.7 Q15.25 -15.35 17.2 -1.5 L18.55 6.65 Q19.35 10.15 21.45 13.0 24.3 16.8 29.45 19.4 L34.1 21.25 Q46.45 25.7 61.1 22.45 69.75 20.5 75.45 13.8 77.65 11.15 79.35 7.85 81.35 4.1 82.7 -0.5 M-82.65 -0.5 Q-81.3 4.1 -79.3 7.85 L-78.9 8.6 Q-77.35 11.45 -75.4 13.8 -73.25 16.35 -70.6 18.2 -66.4 21.25 -61.05 22.45 -46.4 25.7 -34.05 21.25 -20.9 16.9 -18.5 6.65 L-17.15 -1.5 Q-15.2 -15.35 -33.0 -17.7 L-33.65 -17.85 -44.25 -19.85 Q-87.0 -26.7 -82.65 -0.5" fill="#ffffff" fill-opacity="0.0" fill-rule="evenodd" stroke="none"/>
    <path d="M82.7 -0.5 Q81.35 4.1 79.35 7.85 77.65 11.15 75.45 13.8 69.75 20.5 61.1 22.45 46.45 25.7 34.1 21.25 L29.45 19.4 Q24.3 16.8 21.45 13.0 19.35 10.15 18.55 6.65 L17.2 -1.5 Q15.25 -15.35 33.05 -17.7 L44.65 -19.95 56.2 -21.2 Q86.4 -22.75 82.7 -0.5 M-82.65 -0.5 Q-81.3 4.1 -79.3 7.85 L-78.9 8.6 Q-77.35 11.45 -75.4 13.8 -73.25 16.35 -70.6 18.2 -66.4 21.25 -61.05 22.45 -46.4 25.7 -34.05 21.25 -20.9 16.9 -18.5 6.65 L-17.15 -1.5 Q-15.2 -15.35 -33.0 -17.7 L-33.65 -17.85 -44.25 -19.85 Q-87.0 -26.7 -82.65 -0.5" fill="none" stroke="#000000" stroke-linecap="butt" stroke-linejoin="miter-clip" stroke-miterlimit="10.0" stroke-opacity="0.4" stroke-width="1.0"/>
    <path d="M26.9 23.25 Q28.9 24.15 31.2 24.95 46.0 30.15 63.0 26.35 74.6 23.75 81.6 13.95 85.6 8.55 88.6 -0.85 L107.0 -4.05 Q110.4 -14.45 110.0 -16.05 109.6 -17.25 98.8 -19.65 99.6 -22.05 99.0 -23.65 98.4 -26.05 79.6 -26.45 68.8 -26.75 59.7 -26.5 L53.8 -26.25 29.4 -24.05 Q24.2 -23.65 18.6 -22.05 L19.0 -22.05 17.2 -21.25 Q0.8 -14.85 -15.4 -20.25 L-15.8 -20.45 Q-18.8 -21.85 -20.0 -22.05 L-20.8 -22.45 -20.6 -22.45 Q-26.0 -23.85 -30.0 -24.05 L-53.8 -26.25 Q-65.2 -26.85 -79.6 -26.45 -98.2 -26.05 -98.8 -23.65 -99.4 -21.65 -98.8 -19.85 -110.0 -17.05 -110.4 -16.05 -111.0 -14.45 -107.4 -4.05 L-88.4 -0.65 Q-81.6 22.15 -63.0 26.35 -45.8 30.15 -31.2 24.95 -15.8 19.75 -13.0 7.75 L-11.4 -1.85 Q-1.0 -5.25 11.4 -2.05 L13.0 7.75 Q15.55 17.9 26.8 23.2 L26.9 23.25" fill="none" stroke="#000000" stroke-linecap="butt" stroke-linejoin="miter-clip" stroke-miterlimit="10.0" stroke-opacity="0.6" stroke-width="1.0"/>
  </g>
</svg>
