<?xml version="1.0" encoding="UTF-8" standalone="no"?>
<svg xmlns:xlink="http://www.w3.org/1999/xlink" height="43.85px" width="34.75px" xmlns="http://www.w3.org/2000/svg">
  <g transform="matrix(1.0, 0.0, 0.0, 1.0, 16.8, 16.45)">
    <path d="M4.75 -14.05 L7.6 -13.85 Q9.05 -13.5 10.1 -12.8 L8.7 -12.75 7.35 -12.55 7.6 -12.4 10.6 -11.55 12.3 -10.7 12.5 -10.6 12.3 -10.6 9.8 -10.55 7.3 -10.65 9.55 -10.2 11.7 -9.05 10.35 -9.05 9.0 -8.9 Q12.0 -8.15 13.3 -7.0 L10.15 -6.95 6.95 -6.85 10.85 -5.9 Q13.25 -5.3 14.3 -3.95 L12.2 -3.95 14.05 -2.75 15.65 -1.2 Q14.15 -1.15 13.05 -1.6 L14.35 -0.5 15.6 0.7 13.65 0.75 14.3 1.65 14.95 2.55 12.95 2.35 Q13.7 2.6 13.9 4.65 L13.9 4.85 Q14.05 6.65 13.8 7.75 13.45 9.45 12.3 11.7 L10.2 15.4 Q8.2 19.15 5.9 21.5 L3.1 24.1 0.3 26.6 -0.35 26.75 Q-6.5 25.05 -10.4 19.25 L-12.5 15.5 -13.05 13.85 -13.15 13.05 -13.3 12.45 Q-13.65 11.35 -14.45 10.55 L-16.05 2.9 -16.05 0.95 -15.6 -1.7 -15.55 -2.0 Q-14.05 -7.6 -9.35 -11.2 -7.6 -13.15 -4.85 -14.4 -1.85 -15.75 1.1 -15.8 -0.05 -15.7 -1.4 -14.85 L3.5 -15.35 8.3 -14.9 Q6.0 -14.65 4.75 -14.05 M-13.35 -2.25 Q-12.5 -6.35 -10.5 -8.8 -11.85 -7.45 -13.1 -5.3 -14.1 -3.45 -14.55 -1.7 -14.95 -0.4 -14.95 0.95 L-14.75 3.1 -13.15 10.95 -13.05 11.35 -13.9 1.4 -13.85 0.95 -13.45 -1.7 -13.35 -2.25" fill="#ffffff" fill-opacity="0.0" fill-rule="evenodd" stroke="none"/>
    <path d="M0.3 26.6 L3.1 24.1 5.9 21.5 Q8.2 19.15 10.2 15.4 L12.3 11.7 Q13.45 9.45 13.8 7.75 14.05 6.65 13.9 4.85 L13.9 4.65 Q13.7 2.6 12.95 2.35 L14.95 2.55 14.3 1.65 13.65 0.75 15.6 0.7 14.35 -0.5 13.05 -1.6 Q14.15 -1.15 15.65 -1.2 L14.05 -2.75 12.2 -3.95 14.3 -3.95 Q13.25 -5.3 10.85 -5.9 L6.95 -6.85 10.15 -6.95 13.3 -7.0 Q12.0 -8.15 9.0 -8.9 L10.35 -9.05 11.7 -9.05 9.55 -10.2 7.3 -10.65 9.8 -10.55 12.3 -10.6 12.5 -10.6 12.55 -10.6 13.3 -9.9 12.3 -9.85 11.2 -10.0 Q14.5 -7.65 15.5 -6.6 L14.05 -6.85 14.25 -6.55 Q15.85 -5.2 16.6 -3.85 L16.15 -3.85 15.65 -3.9 15.85 -3.3 16.7 -2.0 17.3 -0.55 16.9 -0.5 16.55 -0.5 16.5 3.3 16.3 4.65 14.45 10.8 13.8 11.35 13.3 12.35 13.0 13.85 Q11.45 18.15 8.75 21.2 L6.5 23.3 6.2 23.55 6.15 23.6 5.95 23.75 4.85 24.5 4.45 24.85 Q2.8 25.7 1.15 26.35 L0.3 26.6" fill="#000000" fill-opacity="0.2" fill-rule="evenodd" stroke="none"/>
    <path d="M-13.35 -2.25 L-13.45 -1.7 -13.85 0.95 -13.9 1.4 -13.05 11.35 -13.15 10.95 -14.75 3.1 -14.95 0.95 Q-14.95 -0.4 -14.55 -1.7 -14.1 -3.45 -13.1 -5.3 -11.85 -7.45 -10.5 -8.8 -12.5 -6.35 -13.35 -2.25" fill="#ffffff" fill-opacity="0.2" fill-rule="evenodd" stroke="none"/>
    <path d="M10.1 -12.8 Q9.05 -13.5 7.6 -13.85 L4.75 -14.05 M8.3 -14.9 L3.5 -15.35 -1.4 -14.85 M1.1 -15.8 Q-1.85 -15.75 -4.85 -14.4 -7.6 -13.15 -9.35 -11.2 -14.05 -7.6 -15.55 -2.0 L-15.6 -1.7 -16.05 0.95 -16.05 2.9 -14.45 10.55 Q-13.65 11.35 -13.3 12.45 M-13.15 13.05 L-13.05 13.85 -12.5 15.5 -10.4 19.25 Q-6.5 25.05 -0.35 26.75 L0.3 26.6 1.15 26.35 Q2.8 25.7 4.45 24.85 L4.85 24.5 5.95 23.75 6.15 23.6 6.2 23.55 6.5 23.3 8.75 21.2 Q11.45 18.15 13.0 13.85 L13.3 12.35 13.8 11.35 14.45 10.8 16.3 4.65 16.5 3.3 16.55 -0.5 M12.5 -10.6 L12.3 -10.7 10.6 -11.55 7.6 -12.4 M13.3 -9.9 L12.55 -10.6 12.5 -10.6 M15.5 -6.6 Q14.5 -7.65 11.2 -10.0 M16.6 -3.85 Q15.85 -5.2 14.25 -6.55 M17.3 -0.55 L16.7 -2.0 15.85 -3.3" fill="none" stroke="#000000" stroke-linecap="square" stroke-linejoin="round" stroke-opacity="0.6" stroke-width="1.0"/>
    <path d="M4.75 -14.05 Q6.0 -14.65 8.3 -14.9 M-1.4 -14.85 Q-0.05 -15.7 1.1 -15.8 M-13.3 12.45 L-13.15 13.05 M7.6 -12.4 L7.35 -12.55 8.7 -12.75 10.1 -12.8 M11.2 -10.0 L12.3 -9.85 13.3 -9.9 M14.25 -6.55 L14.05 -6.85 15.5 -6.6 M15.85 -3.3 L15.65 -3.9 16.15 -3.85 16.6 -3.85 M16.55 -0.5 L16.9 -0.5 17.3 -0.55" fill="none" stroke="#000000" stroke-linecap="square" stroke-linejoin="round" stroke-opacity="0.4" stroke-width="1.0"/>
  </g>
</svg>
