<?xml version="1.0" encoding="UTF-8" standalone="no"?>
<svg xmlns:xlink="http://www.w3.org/1999/xlink" height="42.1px" width="33.65px" xmlns="http://www.w3.org/2000/svg">
  <g transform="matrix(1.0, 0.0, 0.0, 1.0, 16.85, 14.8)">
    <path d="M-15.4 -2.85 Q-14.65 -5.8 -13.05 -7.55 L-10.9 -9.85 -8.1 -11.8 Q-6.3 -13.0 -4.0 -13.6 L1.6 -14.05 Q3.25 -14.05 6.7 -12.8 10.0 -11.6 12.2 -8.95 14.15 -6.55 15.3 -2.9 L15.3 -2.95 15.35 -2.6 15.65 -1.5 15.55 1.85 15.2 3.9 14.75 5.25 Q13.6 8.6 12.85 10.05 L12.6 10.6 Q11.3 13.0 9.7 13.8 L10.7 10.6 11.15 8.4 11.55 3.9 11.55 3.15 11.45 3.9 10.8 6.35 9.45 9.75 9.1 10.6 Q7.7 14.0 6.35 15.5 6.95 13.65 6.55 10.85 L6.5 10.6 6.2 8.6 5.95 6.25 Q5.7 7.4 5.35 10.6 L5.25 11.45 Q4.8 14.85 3.7 16.05 L3.55 16.2 1.65 13.3 -0.05 10.6 -0.2 10.4 -0.1 10.6 0.3 12.5 0.75 14.6 0.25 14.0 -0.2 13.35 0.35 17.05 0.9 20.8 -3.55 16.2 Q-6.05 13.5 -7.3 10.85 -6.15 14.9 -4.45 18.9 -7.25 16.65 -9.05 14.5 L-9.55 13.85 -11.6 10.6 -10.2 12.75 -11.1 10.6 -12.0 7.8 -12.8 3.8 Q-13.2 0.25 -12.5 -2.8 L-13.0 -1.55 Q-13.55 0.1 -13.65 1.85 L-13.65 3.8 Q-13.5 6.4 -12.4 8.95 L-12.2 10.6 -12.1 12.3 Q-12.15 11.75 -12.8 10.6 L-13.15 10.0 -14.45 7.6 Q-15.15 5.55 -15.3 3.8 L-15.4 2.5 -15.4 -2.85" fill="#ffffff" fill-opacity="0.0" fill-rule="evenodd" stroke="none"/>
    <path d="M-12.4 8.95 Q-13.5 6.4 -13.65 3.8 L-13.65 1.85 Q-13.55 0.1 -13.0 -1.55 L-12.5 -2.8 Q-13.2 0.25 -12.8 3.8 L-12.0 7.8 -11.1 10.6 -10.2 12.75 -11.6 10.6 -11.65 10.55 -12.4 8.95" fill="#ffffff" fill-opacity="0.2" fill-rule="evenodd" stroke="none"/>
    <path d="M-15.4 -2.85 L-15.4 2.5 -15.3 3.8 Q-15.15 5.55 -14.45 7.6 L-13.15 10.0 -12.8 10.6 Q-12.15 11.75 -12.1 12.3 L-12.2 10.6 -12.4 8.95 -11.65 10.55 -11.6 10.6 -9.55 13.85 -9.05 14.5 Q-7.25 16.65 -4.45 18.9 -6.15 14.9 -7.3 10.85 -6.05 13.5 -3.55 16.2 L0.9 20.8 0.35 17.05 -0.2 13.35 0.25 14.0 0.75 14.6 0.3 12.5 -0.1 10.6 -0.2 10.4 -0.05 10.6 1.65 13.3 3.55 16.2 3.7 16.05 Q4.8 14.85 5.25 11.45 L5.35 10.6 Q5.7 7.4 5.95 6.25 L6.2 8.6 6.5 10.6 6.55 10.85 Q6.95 13.65 6.35 15.5 7.7 14.0 9.1 10.6 L9.45 9.75 10.8 6.35 11.45 3.9 11.55 3.15 11.55 3.9 11.15 8.4 10.7 10.6 9.7 13.8 Q11.3 13.0 12.6 10.6 L12.85 10.05 Q13.6 8.6 14.75 5.25 L15.2 3.9 15.55 1.85 15.65 -1.5 15.65 -1.55 15.8 -0.75 16.05 1.45 16.1 2.7 16.15 3.9 16.15 5.3 15.95 7.95 15.5 9.55 15.25 10.6 14.6 12.7 12.3 16.45 Q9.55 20.65 7.3 22.9 L6.7 23.55 5.05 24.85 3.7 25.85 3.6 25.85 3.65 24.45 2.8 25.55 Q2.25 26.25 1.75 26.2 L1.8 25.55 1.85 24.9 1.45 25.9 0.9 26.65 Q0.7 26.7 0.4 26.4 L-0.2 25.95 Q-0.95 25.35 -1.1 26.2 L-2.1 25.55 -2.95 24.7 -3.7 24.05 -4.2 23.6 -3.8 24.2 -3.4 25.05 Q-5.45 23.85 -6.8 22.4 -8.1 21.05 -9.05 19.25 L-9.3 18.7 -9.2 20.15 -9.95 19.05 -9.95 19.15 -13.2 14.9 -14.75 12.75 -15.35 10.6 -15.8 8.35 Q-16.2 5.95 -16.2 3.8 -16.25 1.25 -15.8 -0.95 L-15.7 -1.35 -15.55 -2.15 -15.4 -2.95 -15.4 -2.85" fill="#000000" fill-opacity="0.2" fill-rule="evenodd" stroke="none"/>
    <path d="M15.65 -1.5 L15.35 -2.6 15.3 -2.95 15.3 -2.9 Q14.15 -6.55 12.2 -8.95 10.0 -11.6 6.7 -12.8 3.25 -14.05 1.6 -14.05 L-4.0 -13.6 Q-6.3 -13.0 -8.1 -11.8 L-10.9 -9.85 -13.05 -7.55 Q-14.65 -5.8 -15.4 -2.85 L-15.4 -2.95 -15.55 -2.15 -15.7 -1.35 -15.8 -0.95 Q-16.25 1.25 -16.2 3.8 -16.2 5.95 -15.8 8.35 L-15.35 10.6 -14.75 12.75 -13.2 14.9 -9.95 19.15 -9.95 19.05 -9.2 20.15 -9.3 18.7 -9.05 19.25 Q-8.1 21.05 -6.8 22.4 -5.45 23.85 -3.4 25.05 M15.65 -1.5 L15.65 -1.55 15.8 -0.75 16.05 1.45 16.1 2.7 16.15 3.9 16.15 5.3 15.95 7.95 15.5 9.55 15.25 10.6 14.6 12.7 12.3 16.45 Q9.55 20.65 7.3 22.9 L6.7 23.55 5.05 24.85 3.7 25.85 M-1.1 26.2 L-2.1 25.55 -2.95 24.7 -3.7 24.05 -4.2 23.6" fill="none" stroke="#000000" stroke-linecap="square" stroke-linejoin="round" stroke-opacity="0.6" stroke-width="1.0"/>
    <path d="M3.7 25.85 L3.6 25.85 3.65 24.45 2.8 25.55 Q2.25 26.25 1.75 26.2 L1.8 25.55 1.85 24.9 1.45 25.9 0.9 26.65 Q0.7 26.7 0.4 26.4 L-0.2 25.95 Q-0.95 25.35 -1.1 26.2 M-4.2 23.6 L-3.8 24.2 -3.4 25.05" fill="none" stroke="#000000" stroke-linecap="square" stroke-linejoin="round" stroke-opacity="0.4" stroke-width="1.0"/>
  </g>
</svg>
