<?xml version="1.0" encoding="UTF-8" standalone="no"?>
<svg xmlns:xlink="http://www.w3.org/1999/xlink" height="43.6px" width="35.45px" xmlns="http://www.w3.org/2000/svg">
  <g transform="matrix(1.0, 0.0, 0.0, 1.0, 17.75, 16.2)">
    <path d="M4.7 -14.8 L4.0 -14.8 2.1 -14.7 4.1 -13.2 5.4 -11.75 Q5.95 -10.65 5.85 -8.95 L5.3 -6.15 Q6.75 -8.25 6.6 -10.2 6.5 -12.2 4.65 -13.65 6.55 -13.55 7.9 -11.9 9.2 -10.35 9.2 -8.35 9.25 -5.2 6.65 -2.15 L4.3 0.3 2.25 2.8 Q2.95 1.8 4.9 0.3 L7.95 -2.2 Q9.45 -3.95 10.0 -5.75 10.55 -7.5 10.35 -9.8 L10.25 -11.25 10.0 -12.5 8.65 -13.4 7.65 -14.15 6.35 -14.7 4.8 -14.8 Q6.85 -15.0 8.95 -14.05 L10.65 -13.0 12.4 -10.95 12.05 -10.95 11.45 -11.1 11.9 -10.8 13.3 -9.0 13.6 -8.35 13.45 -8.6 Q12.75 -10.05 12.05 -10.65 L12.15 -9.0 12.25 -7.1 Q12.15 -5.5 11.35 -3.35 10.55 -1.3 9.6 0.0 L6.8 3.05 Q5.15 4.85 4.5 6.45 L9.3 2.25 Q12.1 -0.1 14.3 -1.65 L12.15 1.8 9.7 5.0 6.1 8.8 2.9 12.9 Q5.45 11.75 7.65 10.05 10.15 8.1 11.55 6.05 10.2 9.4 6.4 12.15 L3.0 14.3 -0.35 16.35 Q2.3 16.25 5.6 15.05 8.8 13.9 11.05 12.35 L8.4 14.6 5.45 16.5 Q1.7 18.95 0.05 21.0 L2.9 19.85 Q4.75 19.0 5.85 18.75 L2.85 21.1 Q1.1 22.6 -0.25 23.25 L-1.15 23.65 -1.75 22.95 -3.0 21.1 -4.35 19.35 -6.75 17.0 -8.95 14.5 -5.75 16.6 Q-3.75 17.95 -2.75 19.05 -4.4 16.7 -6.6 14.6 -8.85 12.5 -11.25 11.05 -8.75 12.15 -7.35 12.95 -5.05 14.3 -4.0 15.8 -4.55 14.4 -6.05 13.0 L-8.9 10.75 -11.7 8.45 Q-13.0 7.0 -13.35 5.45 -12.0 6.95 -8.9 8.95 -5.6 11.15 -4.3 12.3 L-6.15 10.25 -8.0 8.25 -12.0 4.65 Q-14.3 2.25 -14.45 0.05 L-14.5 -5.75 -15.6 -4.05 Q-14.8 -5.55 -13.6 -6.9 L-14.5 -6.45 -14.55 -6.35 -14.85 -5.95 -14.5 -6.65 -13.05 -9.3 Q-11.45 -11.8 -10.05 -12.4 L-8.6 -13.35 -7.55 -14.15 Q-6.15 -14.75 -4.7 -14.8 L-1.8 -14.7 2.2 -15.15 6.15 -15.7 4.7 -14.8 M7.45 -7.85 L7.15 -9.2 6.85 -9.7 Q7.15 -8.5 5.7 -5.75 L4.15 -3.2 Q7.35 -5.45 7.45 -7.85 M-14.5 -6.45 L-14.5 -6.65 -14.7 -6.25 -14.5 -6.45 M-14.15 -3.35 L-14.4 -0.8 Q-14.25 3.15 -10.25 4.8 L-12.3 1.7 Q-14.25 -2.0 -13.8 -4.4 L-14.15 -3.35 M-7.4 -4.0 Q-10.55 -9.1 -7.4 -13.45 -9.35 -11.7 -10.35 -9.4 -11.4 -6.75 -10.35 -4.65 -9.0 -2.05 -5.65 -0.15 L-2.6 1.25 0.1 2.4 -3.9 -0.15 Q-6.1 -1.95 -7.4 -4.0" fill="#ffffff" fill-opacity="0.0" fill-rule="evenodd" stroke="none"/>
    <path d="M7.45 -7.85 Q7.35 -5.45 4.15 -3.2 L5.7 -5.75 Q7.15 -8.5 6.85 -9.7 L7.15 -9.2 7.45 -7.85 M-14.15 -3.35 L-13.8 -4.4 Q-14.25 -2.0 -12.3 1.7 L-10.25 4.8 Q-14.25 3.15 -14.4 -0.8 L-14.15 -3.35" fill="#ffffff" fill-opacity="0.2" fill-rule="evenodd" stroke="none"/>
    <path d="M4.7 -14.8 L4.8 -14.8 6.35 -14.7 7.65 -14.15 8.65 -13.4 10.0 -12.5 10.25 -11.25 10.35 -9.8 Q10.55 -7.5 10.0 -5.75 9.45 -3.95 7.95 -2.2 L4.9 0.3 Q2.95 1.8 2.25 2.8 L4.3 0.3 6.65 -2.15 Q9.25 -5.2 9.2 -8.35 9.2 -10.35 7.9 -11.9 6.55 -13.55 4.65 -13.65 6.5 -12.2 6.6 -10.2 6.75 -8.25 5.3 -6.15 L5.85 -8.95 Q5.95 -10.65 5.4 -11.75 L4.1 -13.2 2.1 -14.7 4.0 -14.8 4.7 -14.8 M13.6 -8.35 L13.85 -7.95 14.6 -6.45 15.8 -3.8 16.7 -0.95 17.2 0.85 16.75 0.5 16.3 0.05 Q16.85 0.65 16.05 2.95 L14.9 6.1 13.7 11.05 Q11.7 16.35 7.5 22.1 L4.8 25.55 3.7 26.8 -1.15 26.9 -3.45 26.8 Q-4.15 26.8 -5.6 25.15 L-7.35 22.9 -10.3 18.35 -11.95 15.45 -13.2 12.3 Q-14.15 9.05 -15.55 5.95 L-16.55 7.2 Q-16.4 6.95 -16.35 3.6 L-16.2 0.35 -16.95 1.15 -17.0 1.25 -17.05 1.35 -17.2 2.3 -17.2 1.05 -15.6 -4.05 -14.5 -5.75 -14.45 0.05 Q-14.3 2.25 -12.0 4.65 L-8.0 8.25 -6.15 10.25 -4.3 12.3 Q-5.6 11.15 -8.9 8.95 -12.0 6.95 -13.35 5.45 -13.0 7.0 -11.7 8.45 L-8.9 10.75 -6.05 13.0 Q-4.55 14.4 -4.0 15.8 -5.05 14.3 -7.35 12.95 -8.75 12.15 -11.25 11.05 -8.85 12.5 -6.6 14.6 -4.4 16.7 -2.75 19.05 -3.75 17.95 -5.75 16.6 L-8.95 14.5 -6.75 17.0 -4.35 19.35 -3.0 21.1 -1.75 22.95 -1.15 23.65 -0.25 23.25 Q1.1 22.6 2.85 21.1 L5.85 18.75 Q4.75 19.0 2.9 19.85 L0.05 21.0 Q1.7 18.95 5.45 16.5 L8.4 14.6 11.05 12.35 Q8.8 13.9 5.6 15.05 2.3 16.25 -0.35 16.35 L3.0 14.3 6.4 12.15 Q10.2 9.4 11.55 6.05 10.15 8.1 7.65 10.05 5.45 11.75 2.9 12.9 L6.1 8.8 9.7 5.0 12.15 1.8 14.3 -1.65 Q12.1 -0.1 9.3 2.25 L4.5 6.45 Q5.15 4.85 6.8 3.05 L9.6 0.0 Q10.55 -1.3 11.35 -3.35 12.15 -5.5 12.25 -7.1 L12.15 -9.0 12.05 -10.65 Q12.75 -10.05 13.45 -8.6 L13.6 -8.35 M-7.4 -4.0 Q-6.1 -1.95 -3.9 -0.15 L0.1 2.4 -2.6 1.25 -5.65 -0.15 Q-9.0 -2.05 -10.35 -4.65 -11.4 -6.75 -10.35 -9.4 -9.35 -11.7 -7.4 -13.45 -10.55 -9.1 -7.4 -4.0" fill="#000000" fill-opacity="0.2" fill-rule="evenodd" stroke="none"/>
    <path d="M-14.5 -6.45 L-14.7 -6.25 -14.5 -6.65 -14.5 -6.45" fill="#7a4a38" fill-rule="evenodd" stroke="none"/>
    <path d="M4.8 -14.8 Q6.85 -15.0 8.95 -14.05 L10.65 -13.0 12.4 -10.95 M12.05 -10.95 L11.45 -11.1 11.9 -10.8 13.3 -9.0 13.6 -8.35 13.85 -7.95 14.6 -6.45 15.8 -3.8 16.7 -0.95 17.2 0.85 M16.3 0.05 Q16.85 0.65 16.05 2.95 L14.9 6.1 13.7 11.05 Q11.7 16.35 7.5 22.1 L4.8 25.55 3.7 26.8 -1.15 26.9 -3.45 26.8 Q-4.15 26.8 -5.6 25.15 L-7.35 22.9 -10.3 18.35 -11.95 15.45 -13.2 12.3 Q-14.15 9.05 -15.55 5.95 M-16.55 7.2 Q-16.4 6.95 -16.35 3.6 L-16.2 0.35 M-17.2 2.3 L-17.2 1.05 -15.6 -4.05 Q-14.8 -5.55 -13.6 -6.9 M-14.5 -6.45 L-14.55 -6.35 -14.85 -5.95 -14.5 -6.65 -13.05 -9.3 Q-11.45 -11.8 -10.05 -12.4 L-8.6 -13.35 -7.55 -14.15 Q-6.15 -14.75 -4.7 -14.8 L-1.8 -14.7 2.2 -15.15 6.15 -15.7" fill="none" stroke="#000000" stroke-linecap="round" stroke-linejoin="round" stroke-opacity="0.6" stroke-width="1.0"/>
    <path d="M12.4 -10.95 L12.05 -10.95 M17.2 0.85 L16.75 0.5 16.3 0.05 M-15.55 5.95 L-16.55 7.2 M-16.2 0.35 L-16.95 1.15 -17.0 1.25 -17.05 1.35 -17.2 2.3 M-13.6 -6.9 L-14.5 -6.45 M6.15 -15.7 L4.7 -14.8" fill="none" stroke="#000000" stroke-linecap="round" stroke-linejoin="round" stroke-opacity="0.6" stroke-width="1.0"/>
  </g>
</svg>
