<?xml version="1.0" encoding="UTF-8" standalone="no"?>
<svg xmlns:xlink="http://www.w3.org/1999/xlink" height="43.05px" width="36.7px" xmlns="http://www.w3.org/2000/svg">
  <g transform="matrix(1.0, 0.0, 0.0, 1.0, 18.6, 15.95)">
    <path d="M-14.35 -7.45 Q-12.55 -10.45 -9.9 -12.4 -4.4 -16.4 2.05 -14.9 4.25 -14.4 6.25 -13.25 L8.4 -11.7 9.55 -10.3 10.3 -10.65 11.1 -10.7 10.95 -10.7 Q12.15 -9.4 12.6 -6.8 12.95 -4.6 12.55 -2.85 12.1 -0.55 11.05 1.9 L8.9 6.3 Q11.4 4.8 12.85 1.65 L12.85 1.4 12.95 1.1 Q13.7 -1.25 14.0 -4.25 13.9 -3.1 14.1 -1.25 L14.15 2.45 Q14.0 3.8 13.1 5.65 L12.95 6.0 12.85 6.25 12.85 6.45 11.65 8.65 12.85 7.9 12.85 7.85 12.95 7.75 14.1 5.7 15.65 2.0 Q15.8 4.25 14.85 6.55 L12.95 9.85 12.85 10.0 12.85 10.1 12.45 10.55 8.85 14.25 8.5 14.65 8.45 14.65 8.4 14.7 Q6.8 16.3 6.1 17.6 L9.55 15.35 10.4 14.7 10.45 14.65 10.5 14.65 12.85 12.7 11.3 14.65 11.25 14.65 11.2 14.7 9.0 17.1 Q7.0 19.5 6.1 21.75 L8.2 20.05 10.4 18.6 7.9 21.65 Q6.25 23.45 4.7 24.05 3.2 24.7 0.3 24.85 L-0.45 24.35 -3.1 22.0 Q-1.6 22.85 -0.15 23.15 L3.05 23.4 -0.2 21.6 -3.45 19.65 -6.85 16.7 -9.0 14.7 -9.05 14.65 -9.1 14.65 -10.1 13.7 Q-9.05 13.9 -7.5 14.65 L-7.4 14.65 -7.3 14.7 -7.0 14.8 Q-4.9 15.75 -4.05 16.6 -4.65 15.6 -5.95 14.7 L-6.05 14.65 -6.15 14.65 -6.5 14.4 -8.0 13.4 -9.45 12.3 -12.3 9.45 Q-14.15 7.3 -14.4 6.0 -12.5 6.85 -10.25 8.65 L-6.45 11.85 Q-7.4 9.85 -9.95 7.25 -12.85 4.3 -13.75 2.85 -16.25 -1.15 -14.35 -7.45 M3.4 -12.85 L1.3 -13.2 0.45 -13.15 Q4.5 -12.5 6.65 -9.65 7.75 -8.25 8.0 -7.0 5.0 -11.7 -0.2 -12.15 L-3.45 -11.95 -4.8 -11.6 Q1.3 -12.3 5.0 -8.35 6.85 -6.4 7.45 -4.3 8.3 -4.45 8.75 -6.5 L9.1 -8.55 Q6.75 -11.9 3.4 -12.85 M9.95 -5.7 Q8.15 -3.7 7.2 -0.05 L6.4 3.0 5.5 5.6 6.75 2.85 8.15 -0.3 Q8.1 3.35 7.1 6.95 L5.8 10.7 6.95 8.35 9.4 3.2 10.5 1.0 11.35 -1.3 11.4 -4.1 Q11.3 -5.95 11.5 -6.8 L10.8 -4.0 Q10.3 -2.3 9.55 -1.2 L9.9 -3.45 9.95 -5.7 M-2.15 -13.55 L-4.6 -13.65 Q-7.1 -13.25 -9.3 -11.55 -10.9 -10.25 -12.65 -7.85 L-10.7 -9.65 -8.65 -11.0 -9.65 -10.0 -11.4 -8.35 -9.0 -9.0 Q-9.35 -8.55 -11.0 -7.5 -12.4 -6.65 -12.7 -5.7 -9.75 -8.0 -6.45 -8.65 L-2.35 -8.9 1.75 -8.9 -2.45 -9.85 -5.2 -9.5 -7.9 -9.05 -6.0 -10.8 Q-6.9 -10.4 -7.8 -10.55 L-6.95 -11.25 -6.0 -12.1 -5.8 -12.25 -5.75 -12.25 -3.1 -12.75 0.2 -12.95 -2.15 -13.55" fill="#ffffff" fill-opacity="0.0" fill-rule="evenodd" stroke="none"/>
    <path d="M9.95 -5.7 L9.9 -3.45 9.55 -1.2 Q10.3 -2.3 10.8 -4.0 L11.5 -6.8 Q11.3 -5.95 11.4 -4.1 L11.35 -1.3 10.5 1.0 9.4 3.2 6.95 8.35 5.8 10.7 7.1 6.95 Q8.1 3.35 8.15 -0.3 L6.75 2.85 5.5 5.6 6.4 3.0 7.2 -0.05 Q8.15 -3.7 9.95 -5.7 M-2.15 -13.55 L0.2 -12.95 -3.1 -12.75 -5.75 -12.25 -5.8 -12.25 -6.0 -12.1 -6.95 -11.25 -7.8 -10.55 Q-6.9 -10.4 -6.0 -10.8 L-7.9 -9.05 -5.2 -9.5 -2.45 -9.85 1.75 -8.9 -2.35 -8.9 -6.45 -8.65 Q-9.75 -8.0 -12.7 -5.7 -12.4 -6.65 -11.0 -7.5 -9.35 -8.55 -9.0 -9.0 L-11.4 -8.35 -9.65 -10.0 -8.65 -11.0 -10.7 -9.65 -12.65 -7.85 Q-10.9 -10.25 -9.3 -11.55 -7.1 -13.25 -4.6 -13.65 L-2.15 -13.55" fill="#ffffff" fill-opacity="0.2" fill-rule="evenodd" stroke="none"/>
    <path d="M-14.35 -7.45 Q-16.25 -1.15 -13.75 2.85 -12.85 4.3 -9.95 7.25 -7.4 9.85 -6.45 11.85 L-10.25 8.65 Q-12.5 6.85 -14.4 6.0 -14.15 7.3 -12.3 9.45 L-9.45 12.3 -8.0 13.4 -6.5 14.4 -6.15 14.65 -6.05 14.65 -5.95 14.7 Q-4.65 15.6 -4.05 16.6 -4.9 15.75 -7.0 14.8 L-7.3 14.7 -7.4 14.65 -7.5 14.65 Q-9.05 13.9 -10.1 13.7 L-9.1 14.65 -9.05 14.65 -9.0 14.7 -6.85 16.7 -3.45 19.65 -0.2 21.6 3.05 23.4 -0.15 23.15 Q-1.6 22.85 -3.1 22.0 L-0.45 24.35 0.3 24.85 Q3.2 24.7 4.7 24.05 6.25 23.45 7.9 21.65 L10.4 18.6 8.2 20.05 6.1 21.75 Q7.0 19.5 9.0 17.1 L11.2 14.7 11.25 14.65 11.3 14.65 12.85 12.7 10.5 14.65 10.45 14.65 10.4 14.7 9.55 15.35 6.1 17.6 Q6.8 16.3 8.4 14.7 L8.45 14.65 8.5 14.65 8.85 14.25 12.45 10.55 12.85 10.1 12.85 10.0 12.95 9.85 14.85 6.55 Q15.8 4.25 15.65 2.0 L14.1 5.7 12.95 7.75 12.85 7.85 12.85 7.9 11.65 8.65 12.85 6.45 12.85 6.25 12.95 6.0 13.1 5.65 Q14.0 3.8 14.15 2.45 L14.1 -1.25 Q13.9 -3.1 14.0 -4.25 13.7 -1.25 12.95 1.1 L12.85 1.4 12.85 1.65 Q11.4 4.8 8.9 6.3 L11.05 1.9 Q12.1 -0.55 12.55 -2.85 12.95 -4.6 12.6 -6.8 12.15 -9.4 10.95 -10.7 L11.1 -10.7 11.45 -10.6 11.55 -10.6 12.1 -10.3 12.4 -10.1 12.75 -9.8 14.85 -6.3 Q16.85 -2.35 17.35 2.2 17.8 6.55 16.3 10.35 15.6 12.25 14.75 13.3 L12.95 14.65 11.45 18.5 9.7 22.35 8.8 24.1 Q8.25 24.9 7.1 25.3 L3.75 26.2 2.8 26.25 1.25 26.35 0.05 26.4 -3.75 26.35 -4.0 26.3 Q-6.55 25.95 -7.5 24.8 L-12.1 18.5 -14.7 14.7 -14.75 14.7 -15.45 13.55 -17.75 8.2 -17.9 7.05 -17.95 6.3 -17.95 5.4 -17.55 1.5 -16.6 -2.5 -15.1 -6.1 -14.55 -7.1 -14.35 -7.45 M3.4 -12.85 Q6.75 -11.9 9.1 -8.55 L8.75 -6.5 Q8.3 -4.45 7.45 -4.3 6.85 -6.4 5.0 -8.35 1.3 -12.3 -4.8 -11.6 L-3.45 -11.95 -0.2 -12.15 Q5.0 -11.7 8.0 -7.0 7.75 -8.25 6.65 -9.65 4.5 -12.5 0.45 -13.15 L1.3 -13.2 3.4 -12.85" fill="#000000" fill-opacity="0.2" fill-rule="evenodd" stroke="none"/>
    <path d="M11.1 -10.7 L10.3 -10.65 9.55 -10.3 8.4 -11.7 6.25 -13.25 Q4.25 -14.4 2.05 -14.9 -4.4 -16.4 -9.9 -12.4 -12.55 -10.45 -14.35 -7.45 L-14.55 -7.1 -15.1 -6.1 -16.6 -2.5 -17.55 1.5 -17.95 5.4 -17.95 6.3 -17.9 7.05 -17.75 8.2 -15.45 13.55 -14.75 14.7 M11.1 -10.7 L11.45 -10.6 11.55 -10.6 12.1 -10.3 12.4 -10.1 12.75 -9.8 14.85 -6.3 Q16.85 -2.35 17.35 2.2 17.8 6.55 16.3 10.35 15.6 12.25 14.75 13.3 L12.95 14.65 11.45 18.5 9.7 22.35 8.8 24.1 Q8.25 24.9 7.1 25.3 L3.75 26.2 2.8 26.25 1.25 26.35 0.05 26.4 -3.75 26.35 -4.0 26.3 Q-6.55 25.95 -7.5 24.8 L-12.1 18.5 -14.7 14.7 M12.75 -9.8 L12.4 -10.1" fill="none" stroke="#000000" stroke-linecap="square" stroke-linejoin="round" stroke-opacity="0.6" stroke-width="1.0"/>
  </g>
</svg>
