<?xml version="1.0" encoding="UTF-8" standalone="no"?>
<svg xmlns:xlink="http://www.w3.org/1999/xlink" height="48.85px" width="39.6px" xmlns="http://www.w3.org/2000/svg">
  <g transform="matrix(1.0, 0.0, 0.0, 1.0, 19.4, 10.3)">
    <path d="M-18.3 33.8 L-18.55 32.2 Q-18.6 30.45 -17.5 28.95 -16.6 27.7 -16.7 26.65 -16.75 25.8 -17.6 24.15 L-18.4 22.6 -18.75 20.95 -18.3 19.6 -17.65 18.3 Q-17.2 17.3 -17.75 16.05 L-18.25 14.95 -18.7 13.85 Q-18.9 12.9 -18.5 11.65 L-17.55 9.6 -16.55 8.0 Q-16.3 7.5 -16.55 6.25 -17.0 4.1 -16.8 1.55 -16.6 -0.85 -15.85 -3.1 -15.15 -5.0 -12.95 -7.2 -10.45 -9.75 -8.5 -9.65 -9.9 -8.6 -8.55 -6.9 -8.15 -6.4 -5.2 -5.8 L-0.2 -5.2 5.8 -5.75 Q8.95 -6.4 9.55 -7.4 10.1 -8.25 9.65 -8.75 L8.7 -9.55 Q10.6 -9.7 13.1 -7.15 15.35 -4.95 16.0 -3.05 16.75 -0.75 16.95 1.65 17.2 4.2 16.75 6.35 16.45 7.75 16.5 8.3 L17.35 10.1 18.4 11.9 Q18.8 12.85 18.8 14.0 L18.45 16.2 Q18.15 17.55 18.15 18.35 L18.35 19.85 18.6 21.3 Q18.65 21.8 19.05 22.6 L19.5 23.95 19.4 25.6 18.95 27.3 18.45 28.6 17.95 29.9 Q17.8 30.5 17.95 31.55 L18.2 33.05 Q17.35 32.55 17.1 30.8 L16.8 28.15 16.6 28.5 16.8 27.55 17.0 25.8 16.95 24.1 16.4 22.65 Q15.95 21.8 16.0 21.2 16.0 20.5 16.55 19.75 L17.25 18.3 Q17.4 16.85 16.25 14.25 L14.45 10.35 Q14.4 11.6 14.9 13.1 L15.7 15.7 Q15.85 16.8 15.15 17.95 14.25 19.3 14.15 19.9 14.05 20.8 14.8 22.25 15.6 23.7 15.4 24.55 L14.95 25.7 14.35 26.65 Q13.6 27.7 13.7 29.0 12.7 28.15 12.45 27.5 12.15 26.8 12.5 25.6 L12.9 23.2 Q12.8 22.2 12.05 20.9 11.25 19.5 11.1 18.25 10.95 17.5 11.1 15.4 L10.75 13.15 10.25 11.15 Q10.35 12.4 9.75 15.4 9.15 18.2 9.55 19.85 L10.05 21.85 Q10.1 22.5 9.55 23.6 9.1 24.6 9.0 26.0 L8.95 28.6 Q7.85 28.1 7.8 26.7 7.75 26.35 8.05 24.25 L8.1 22.35 Q8.0 21.45 7.55 20.55 L6.9 19.2 6.65 17.95 6.25 20.0 5.8 22.1 Q5.55 23.2 5.7 25.2 L5.75 28.3 5.05 26.85 4.55 25.3 4.35 23.5 Q4.25 22.35 3.55 22.1 L3.5 23.5 3.1 24.65 2.4 26.5 1.75 28.4 Q1.35 27.7 1.75 26.5 L2.15 24.65 1.25 22.55 Q0.55 21.3 0.6 20.4 0.6 19.8 1.05 18.65 1.5 17.6 1.4 16.85 1.25 16.1 0.5 14.7 L-0.5 12.45 Q-1.35 14.3 -1.35 17.3 L-0.95 22.2 Q-0.85 23.25 -1.1 24.05 L-1.9 25.65 Q-2.6 26.7 -2.75 27.8 L-2.95 30.2 Q-3.85 29.5 -3.85 28.55 L-3.45 26.55 Q-3.25 25.5 -3.75 24.65 L-4.25 23.9 -4.7 22.95 Q-5.1 22.0 -4.65 21.1 L-4.25 20.4 -3.9 19.5 Q-3.7 18.4 -4.55 17.3 L-5.3 16.35 -5.85 15.35 -5.5 17.3 Q-5.25 18.35 -5.7 19.35 L-6.5 20.95 Q-6.75 21.7 -6.45 22.8 L-5.9 24.55 Q-5.8 25.2 -6.4 26.1 -7.1 27.3 -7.15 28.55 -7.25 29.5 -6.85 31.15 -7.9 30.25 -8.15 29.15 -8.35 28.35 -8.2 26.75 -8.1 25.6 -8.8 24.65 L-9.4 23.9 -10.05 22.95 Q-10.5 22.0 -10.15 20.8 L-9.65 18.8 Q-9.65 17.9 -10.5 16.8 L-11.75 15.45 Q-11.2 16.15 -10.95 16.8 -10.7 17.7 -10.85 18.75 L-11.35 22.5 -11.0 26.25 Q-10.8 27.3 -11.1 28.5 L-11.9 30.6 -12.5 32.65 Q-12.7 33.8 -12.25 34.8 L-11.9 35.5 -11.6 35.8 -11.7 35.7 -13.7 33.8 Q-14.6 32.85 -14.55 31.5 L-14.35 30.25 -14.0 29.0 Q-13.85 28.3 -14.0 27.55 L-14.65 25.95 Q-15.15 24.95 -14.95 24.25 L-14.05 22.9 Q-13.35 22.2 -13.4 21.35 -13.45 20.7 -14.15 19.8 L-15.15 18.35 Q-15.95 16.75 -15.6 14.45 -15.25 12.15 -14.1 10.75 -15.7 12.35 -16.15 14.95 -16.55 17.6 -15.5 19.65 L-15.0 20.7 Q-14.8 21.25 -15.0 21.8 L-15.8 22.9 Q-16.3 23.5 -16.25 24.3 L-15.85 25.8 -15.3 26.9 Q-14.85 27.95 -15.9 29.35 L-17.3 31.4 Q-18.0 32.7 -18.3 33.8 M13.1 9.5 Q12.55 5.9 13.1 3.05 L12.35 5.75 Q11.85 7.45 11.8 8.5 11.75 9.85 12.3 11.15 L13.45 13.55 Q13.95 14.55 13.8 15.95 L13.35 18.45 Q13.05 19.95 13.15 20.9 13.3 22.15 14.3 23.05 13.55 22.25 13.55 21.1 13.5 20.3 13.9 18.95 L14.6 16.7 14.75 14.6 13.9 12.1 Q13.25 10.5 13.1 9.5 M2.4 10.45 L3.35 14.75 Q3.6 15.75 3.45 16.95 L2.95 19.0 Q2.15 21.65 2.6 23.1 2.4 22.4 3.2 20.75 L4.3 18.3 Q4.65 17.0 4.5 15.5 L4.3 13.75 3.65 12.35 3.0 11.0 2.35 8.45 Q2.1 7.15 2.15 6.3 2.0 8.25 2.4 10.45 M-14.45 3.5 Q-14.6 -0.05 -13.9 -1.55 -14.75 0.15 -14.85 3.15 L-14.9 5.7 Q-15.0 7.1 -15.35 8.2 L-16.15 10.25 -16.9 12.35 Q-17.65 14.7 -16.85 16.6 L-16.65 14.0 Q-16.4 12.7 -15.7 11.55 L-14.6 10.1 Q-14.0 9.3 -13.9 8.5 -13.75 7.6 -14.05 6.05 L-14.45 3.5" fill="#ffffff" fill-opacity="0.0" fill-rule="evenodd" stroke="none"/>
    <path d="M13.1 9.5 Q13.25 10.5 13.9 12.1 L14.75 14.6 14.6 16.7 13.9 18.95 Q13.5 20.3 13.55 21.1 13.55 22.25 14.3 23.05 13.3 22.15 13.15 20.9 13.05 19.95 13.35 18.45 L13.8 15.95 Q13.95 14.55 13.45 13.55 L12.3 11.15 Q11.75 9.85 11.8 8.5 11.85 7.45 12.35 5.75 L13.1 3.05 Q12.55 5.9 13.1 9.5 M2.4 10.45 Q2.0 8.25 2.15 6.3 2.1 7.15 2.35 8.45 L3.0 11.0 3.65 12.35 4.3 13.75 4.5 15.5 Q4.65 17.0 4.3 18.3 L3.2 20.75 Q2.4 22.4 2.6 23.1 2.15 21.65 2.95 19.0 L3.45 16.95 Q3.6 15.75 3.35 14.75 L2.4 10.45 M-14.45 3.5 L-14.05 6.05 Q-13.75 7.6 -13.9 8.5 -14.0 9.3 -14.6 10.1 L-15.7 11.55 Q-16.4 12.7 -16.65 14.0 L-16.85 16.6 Q-17.65 14.7 -16.9 12.35 L-16.15 10.25 -15.35 8.2 Q-15.0 7.1 -14.9 5.7 L-14.85 3.15 Q-14.75 0.15 -13.9 -1.55 -14.6 -0.05 -14.45 3.5" fill="#ffffff" fill-opacity="0.2" fill-rule="evenodd" stroke="none"/>
    <path d="M-18.3 33.8 Q-18.0 32.7 -17.3 31.4 L-15.9 29.35 Q-14.85 27.95 -15.3 26.9 L-15.85 25.8 -16.25 24.3 Q-16.3 23.5 -15.8 22.9 L-15.0 21.8 Q-14.8 21.25 -15.0 20.7 L-15.5 19.65 Q-16.55 17.6 -16.15 14.95 -15.7 12.35 -14.1 10.75 -15.25 12.15 -15.6 14.45 -15.95 16.75 -15.15 18.35 L-14.15 19.8 Q-13.45 20.7 -13.4 21.35 -13.35 22.2 -14.05 22.9 L-14.95 24.25 Q-15.15 24.95 -14.65 25.95 L-14.0 27.55 Q-13.85 28.3 -14.0 29.0 L-14.35 30.25 -14.3 29.8 -14.15 29.1 -14.15 28.9 -15.15 30.55 -16.35 32.05 Q-17.1 32.75 -17.45 33.7 L-17.75 35.65 -18.3 33.8 M-11.6 35.8 L-11.9 35.5 -12.25 34.8 Q-12.7 33.8 -12.5 32.65 L-11.9 30.6 -11.1 28.5 Q-10.8 27.3 -11.0 26.25 L-11.35 22.5 -10.85 18.75 Q-10.7 17.7 -10.95 16.8 -11.2 16.15 -11.75 15.45 L-10.5 16.8 Q-9.65 17.9 -9.65 18.8 L-10.15 20.8 Q-10.5 22.0 -10.05 22.95 L-9.4 23.9 -8.8 24.65 Q-8.1 25.6 -8.2 26.75 -8.35 28.35 -8.15 29.15 -7.9 30.25 -6.85 31.15 -7.25 29.5 -7.15 28.55 -7.1 27.3 -6.4 26.1 -5.8 25.2 -5.9 24.55 L-6.45 22.8 Q-6.75 21.7 -6.5 20.95 L-5.7 19.35 Q-5.25 18.35 -5.5 17.3 L-5.85 15.35 -5.3 16.35 -4.55 17.3 Q-3.7 18.4 -3.9 19.5 L-4.25 20.4 -4.65 21.1 Q-5.1 22.0 -4.7 22.95 L-4.25 23.9 -3.75 24.65 Q-3.25 25.5 -3.45 26.55 L-3.85 28.55 Q-3.85 29.5 -2.95 30.2 L-2.75 27.8 Q-2.6 26.7 -1.9 25.65 L-1.1 24.05 Q-0.85 23.25 -0.95 22.2 L-1.35 17.3 Q-1.35 14.3 -0.5 12.45 L0.5 14.7 Q1.25 16.1 1.4 16.85 1.5 17.6 1.05 18.65 0.6 19.8 0.6 20.4 0.55 21.3 1.25 22.55 L2.15 24.65 1.75 26.5 Q1.35 27.7 1.75 28.4 L2.4 26.5 3.1 24.65 3.5 23.5 3.55 22.1 Q4.25 22.35 4.35 23.5 L4.55 25.3 5.05 26.85 5.75 28.3 5.7 25.2 Q5.55 23.2 5.8 22.1 L6.25 20.0 6.65 17.95 6.9 19.2 7.55 20.55 Q8.0 21.45 8.1 22.35 L8.05 24.25 Q7.75 26.35 7.8 26.7 7.85 28.1 8.95 28.6 L9.0 26.0 Q9.1 24.6 9.55 23.6 10.1 22.5 10.05 21.85 L9.55 19.85 Q9.15 18.2 9.75 15.4 10.35 12.4 10.25 11.15 L10.75 13.15 11.1 15.4 Q10.95 17.5 11.1 18.25 11.25 19.5 12.05 20.9 12.8 22.2 12.9 23.2 L12.5 25.6 Q12.15 26.8 12.45 27.5 12.7 28.15 13.7 29.0 13.6 27.7 14.35 26.65 L14.95 25.7 15.4 24.55 Q15.6 23.7 14.8 22.25 14.05 20.8 14.15 19.9 14.25 19.3 15.15 17.95 15.85 16.8 15.7 15.7 L14.9 13.1 Q14.4 11.6 14.45 10.35 L16.25 14.25 Q17.4 16.85 17.25 18.3 L16.55 19.75 Q16.0 20.5 16.0 21.2 15.95 21.8 16.4 22.65 L16.95 24.1 17.0 25.8 16.8 27.55 16.6 28.5 16.3 29.6 16.25 29.9 16.25 30.0 16.2 30.15 15.55 31.75 14.85 32.35 14.1 32.95 13.6 34.25 13.2 35.6 12.5 32.95 Q12.1 31.4 12.05 30.3 L11.4 32.7 Q11.1 33.95 11.1 35.05 L10.8 33.15 10.7 32.65 10.7 32.6 10.6 32.3 10.5 31.95 10.45 31.85 10.35 31.35 10.25 31.1 9.95 29.3 9.7 30.35 9.65 30.4 9.45 30.75 9.25 31.1 9.1 31.4 8.8 31.95 8.7 32.15 Q8.4 32.9 8.45 34.05 L8.55 35.95 6.6 33.5 Q5.7 32.05 5.6 30.4 L5.1 32.35 Q4.8 33.6 4.35 34.25 4.95 33.25 4.6 31.35 L4.1 28.45 Q3.75 29.05 3.55 30.0 L3.25 31.7 Q2.9 33.85 1.85 34.75 L1.15 35.15 0.35 35.5 Q-0.55 36.0 -0.45 36.9 -1.5 36.15 -1.2 33.5 L-0.95 31.3 Q-0.9 30.2 -1.1 29.6 L-1.45 30.85 -1.55 32.35 Q-1.7 34.2 -2.65 34.9 L-3.4 35.1 -4.25 35.2 Q-5.15 35.4 -5.0 36.35 L-5.65 34.4 -5.9 32.5 -6.0 32.6 -6.1 32.7 -6.55 33.85 -6.5 35.4 -8.05 33.05 -8.5 32.1 -8.95 30.5 -9.0 30.4 -9.1 31.5 -9.5 32.2 -9.95 32.8 Q-10.35 33.8 -10.25 35.35 L-10.05 37.9 -10.45 37.15 -11.15 36.25 -11.45 35.95 -11.6 35.8" fill="#000000" fill-opacity="0.2" fill-rule="evenodd" stroke="none"/>
    <path d="M15.55 31.75 L16.2 30.15 16.25 30.0 Q16.05 31.2 15.55 31.75 M10.5 31.95 L10.6 32.3 10.7 32.6 10.55 32.2 10.5 31.95" fill="#945c47" fill-rule="evenodd" stroke="none"/>
    <path d="M18.2 33.05 L17.95 31.55 Q17.8 30.5 17.95 29.9 L18.45 28.6 18.95 27.3 19.4 25.6 19.5 23.95 19.05 22.6 Q18.65 21.8 18.6 21.3 L18.35 19.85 18.15 18.35 Q18.15 17.55 18.45 16.2 L18.8 14.0 Q18.8 12.85 18.4 11.9 L17.35 10.1 16.5 8.3 Q16.45 7.75 16.75 6.35 17.2 4.2 16.95 1.65 16.75 -0.75 16.0 -3.05 15.35 -4.95 13.1 -7.15 10.6 -9.7 8.7 -9.55 L9.65 -8.75 Q10.1 -8.25 9.55 -7.4 8.95 -6.4 5.8 -5.75 L-0.2 -5.2 -5.2 -5.8 Q-8.15 -6.4 -8.55 -6.9 -9.9 -8.6 -8.5 -9.65 -10.45 -9.75 -12.95 -7.2 -15.15 -5.0 -15.85 -3.1 -16.6 -0.85 -16.8 1.55 -17.0 4.1 -16.55 6.25 -16.3 7.5 -16.55 8.0 L-17.55 9.6 -18.5 11.65 Q-18.9 12.9 -18.7 13.85 L-18.25 14.95 -17.75 16.05 Q-17.2 17.3 -17.65 18.3 L-18.3 19.6 -18.75 20.95 -18.4 22.6 -17.6 24.15 Q-16.75 25.8 -16.7 26.65 -16.6 27.7 -17.5 28.95 -18.6 30.45 -18.55 32.2 L-18.3 33.8 -17.75 35.65 -17.45 33.7 Q-17.1 32.75 -16.35 32.05 L-15.15 30.55 -14.15 28.9 -14.15 29.1 -14.3 29.8 -14.35 30.25 -14.55 31.5 Q-14.6 32.85 -13.7 33.8 L-11.7 35.7 -11.6 35.8 -11.45 35.95 -11.15 36.25 -10.45 37.15 -10.05 37.9 -10.25 35.35 Q-10.35 33.8 -9.95 32.8 L-9.5 32.2 -9.1 31.5 -9.0 30.4 -8.95 30.5 -8.5 32.1 -8.05 33.05 -6.5 35.4 M16.6 28.5 L16.8 28.15 M16.25 30.0 L16.25 29.9 16.3 29.6 16.6 28.5 M16.25 30.0 L16.2 30.15 15.55 31.75 Q16.05 31.2 16.25 30.0 M10.7 32.6 L10.7 32.65 10.8 33.15 11.1 35.05 Q11.1 33.95 11.4 32.7 L12.05 30.3 Q12.1 31.4 12.5 32.95 L13.2 35.6 13.6 34.25 14.1 32.95 14.85 32.35 15.55 31.75 M10.5 31.95 L10.6 32.3 10.7 32.6 M10.5 31.95 L10.45 31.85 10.35 31.35 10.25 31.1 9.95 29.3 9.7 30.35 9.65 30.4 9.45 30.75 9.25 31.1 9.1 31.4 8.8 31.95 8.7 32.15 Q8.4 32.9 8.45 34.05 L8.55 35.95 6.6 33.5 Q5.7 32.05 5.6 30.4 M4.35 34.25 Q4.95 33.25 4.6 31.35 L4.1 28.45 Q3.75 29.05 3.55 30.0 L3.25 31.7 Q2.9 33.85 1.85 34.75 L1.15 35.15 0.35 35.5 Q-0.55 36.0 -0.45 36.9 -1.5 36.15 -1.2 33.5 L-0.95 31.3 Q-0.9 30.2 -1.1 29.6 L-1.45 30.85 -1.55 32.35 Q-1.7 34.2 -2.65 34.9 L-3.4 35.1 -4.25 35.2 Q-5.15 35.4 -5.0 36.35" fill="none" stroke="#000000" stroke-linecap="square" stroke-linejoin="round" stroke-opacity="0.6" stroke-width="1.0"/>
    <path d="M16.8 28.15 L17.1 30.8 Q17.35 32.55 18.2 33.05 M5.6 30.4 L5.1 32.35 Q4.8 33.6 4.35 34.25 M-5.0 36.35 L-5.65 34.4 -5.9 32.5 -6.0 32.6 -6.1 32.7 -6.55 33.85 -6.5 35.4" fill="none" stroke="#000000" stroke-linecap="square" stroke-linejoin="round" stroke-opacity="0.4" stroke-width="1.0"/>
  </g>
</svg>
