<?xml version="1.0" encoding="UTF-8" standalone="no"?>
<svg xmlns:xlink="http://www.w3.org/1999/xlink" height="45.9px" width="49.6px" xmlns="http://www.w3.org/2000/svg">
  <g transform="matrix(1.0, 0.0, 0.0, 1.0, 25.2, 17.95)">
    <path d="M3.15 -16.7 Q5.05 -17.45 7.7 -16.25 10.25 -15.1 11.5 -13.2 11.95 -13.65 11.85 -14.75 L11.55 -16.25 Q12.7 -15.15 12.4 -13.2 12.1 -11.25 10.55 -10.65 13.05 -10.65 14.65 -9.85 16.25 -9.1 17.7 -7.0 L19.65 -3.5 20.4 -2.4 19.9 -2.75 18.0 -4.05 16.25 -5.5 Q14.65 -6.7 12.85 -7.1 L9.1 -7.5 12.4 -5.75 Q14.0 -4.65 15.2 -3.2 L16.85 -0.2 Q17.75 1.85 18.6 2.75 L17.2 1.3 15.65 0.1 14.5 -0.25 13.3 -0.5 Q14.3 0.05 16.15 2.35 17.9 4.45 19.2 5.05 19.7 5.95 20.75 6.9 22.2 8.2 23.2 8.45 L19.85 8.4 Q21.9 9.6 22.75 10.8 23.6 11.9 23.75 13.25 L23.45 12.1 23.25 11.9 Q22.45 11.05 21.4 10.8 L19.4 10.75 17.4 10.8 Q16.25 10.7 15.4 10.0 15.65 10.95 16.55 11.8 L18.25 13.0 14.4 12.7 Q12.35 12.15 11.35 10.4 L10.5 12.45 9.15 14.1 Q10.1 12.75 10.15 11.05 10.2 9.65 9.65 7.85 9.1 9.7 6.95 11.15 4.9 12.55 2.95 12.6 3.85 13.25 5.3 13.3 L7.7 13.0 Q6.4 14.8 4.75 15.9 2.9 17.15 0.9 17.1 L1.7 16.35 2.3 15.35 Q0.75 15.7 -0.5 16.8 -1.9 18.05 -2.2 19.55 -3.2 18.45 -2.2 16.75 L-1.2 15.35 -0.4 14.15 Q-1.55 15.25 -3.75 15.7 L-5.45 16.0 Q-6.45 16.25 -7.1 16.65 -6.75 15.55 -4.9 14.8 L-3.4 14.25 -2.15 13.55 Q-0.95 12.65 -0.2 11.15 L0.95 8.15 -0.8 8.45 -2.4 8.6 Q-1.45 8.45 -0.7 7.25 0.0 6.15 0.1 5.05 L-1.85 6.5 -4.0 7.95 Q-6.75 9.4 -8.7 8.25 -8.15 9.6 -7.0 10.4 -5.9 11.2 -4.5 11.45 L-6.35 11.5 -8.2 11.05 -10.55 10.65 -12.7 9.9 -10.9 11.35 Q-9.95 12.1 -8.85 12.3 L-12.2 12.4 Q-14.15 12.1 -15.15 10.95 L-14.2 12.95 -12.9 14.45 -15.55 13.05 -18.1 11.45 Q-20.7 9.4 -20.6 5.95 -20.65 7.0 -21.5 7.95 L-23.4 9.55 -24.15 10.1 -24.25 10.15 -23.05 10.4 -22.6 10.5 -23.2 10.4 -24.55 10.15 Q-23.5 10.1 -23.25 9.1 L-23.1 7.2 Q-22.85 5.2 -21.45 2.85 -22.35 3.15 -23.0 4.05 -23.65 4.95 -23.65 5.9 -23.7 3.95 -22.6 2.5 L-21.55 1.35 -20.35 -0.1 Q-19.9 -0.7 -19.2 -3.0 -18.65 -4.95 -17.75 -5.65 -18.15 -6.35 -18.1 -7.35 L-17.7 -8.95 Q-17.65 -6.0 -15.25 -8.7 L-13.1 -11.45 -12.15 -12.85 -11.7 -13.3 Q-10.25 -14.8 -8.5 -15.4 -6.2 -16.2 -4.25 -15.15 L-3.9 -16.5 Q-3.55 -17.1 -2.9 -17.3 -2.8 -14.7 -0.45 -15.2 0.8 -15.5 3.15 -16.7 M-14.65 -6.1 Q-11.9 -8.85 -9.75 -10.4 -5.85 -13.2 -4.0 -12.1 -5.9 -13.3 -6.5 -13.5 -7.65 -13.75 -9.05 -12.7 -10.7 -11.55 -12.2 -9.7 L-14.65 -6.1 M-14.75 -1.6 Q-14.65 -3.4 -13.8 -4.15 -15.65 -2.6 -16.3 -1.2 -17.3 0.85 -16.2 2.7 -15.2 4.4 -13.6 5.55 -11.95 6.75 -10.25 6.85 -11.45 6.75 -12.55 5.4 -13.6 4.15 -14.2 2.1 -14.8 0.1 -14.75 -1.6 M-17.15 5.6 L-17.0 7.25 Q-17.9 6.4 -18.4 4.85 L-18.95 2.1 Q-19.9 5.25 -19.2 7.5 -18.45 9.7 -15.85 11.65 -16.8 9.6 -16.75 8.85 -16.75 8.25 -15.9 8.4 L-13.9 8.85 Q-12.5 9.1 -11.5 8.85 -13.35 8.45 -15.1 7.2 -17.25 5.7 -17.15 4.15 L-17.15 5.6" fill="#ffffff" fill-opacity="0.0" fill-rule="evenodd" stroke="none"/>
    <path d="M-14.65 -6.1 L-12.2 -9.7 Q-10.7 -11.55 -9.05 -12.7 -7.65 -13.75 -6.5 -13.5 -5.9 -13.3 -4.0 -12.1 -5.85 -13.2 -9.75 -10.4 -11.9 -8.85 -14.65 -6.1 M-17.15 5.6 L-17.15 4.15 Q-17.25 5.7 -15.1 7.2 -13.35 8.45 -11.5 8.85 -12.5 9.1 -13.9 8.85 L-15.9 8.4 Q-16.75 8.25 -16.75 8.85 -16.8 9.6 -15.85 11.65 -18.45 9.7 -19.2 7.5 -19.9 5.25 -18.95 2.1 L-18.4 4.85 Q-17.9 6.4 -17.0 7.25 L-17.15 5.6" fill="#ffffff" fill-opacity="0.2" fill-rule="evenodd" stroke="none"/>
    <path d="M-22.6 10.5 L-23.05 10.4 -24.25 10.15 -24.15 10.1 -23.4 9.55 -21.5 7.95 Q-20.65 7.0 -20.6 5.95 -20.7 9.4 -18.1 11.45 L-15.55 13.05 -12.9 14.45 -14.2 12.95 -15.15 10.95 Q-14.15 12.1 -12.2 12.4 L-8.85 12.3 Q-9.95 12.1 -10.9 11.35 L-12.7 9.9 -10.55 10.65 -8.2 11.05 -6.35 11.5 -4.5 11.45 Q-5.9 11.2 -7.0 10.4 -8.15 9.6 -8.7 8.25 -6.75 9.4 -4.0 7.95 L-1.85 6.5 0.1 5.05 Q0.0 6.15 -0.7 7.25 -1.45 8.45 -2.4 8.6 L-0.8 8.45 0.95 8.15 -0.2 11.15 Q-0.95 12.65 -2.15 13.55 L-3.4 14.25 -4.9 14.8 Q-6.75 15.55 -7.1 16.65 -6.45 16.25 -5.45 16.0 L-3.75 15.7 Q-1.55 15.25 -0.4 14.15 L-1.2 15.35 -2.2 16.75 Q-3.2 18.45 -2.2 19.55 -1.9 18.05 -0.5 16.8 0.75 15.7 2.3 15.35 L1.7 16.35 0.9 17.1 Q2.9 17.15 4.75 15.9 6.4 14.8 7.7 13.0 L5.3 13.3 Q3.85 13.25 2.95 12.6 4.9 12.55 6.95 11.15 9.1 9.7 9.65 7.85 10.2 9.65 10.15 11.05 10.1 12.75 9.15 14.1 L10.5 12.45 11.35 10.4 Q12.35 12.15 14.4 12.7 L18.25 13.0 16.55 11.8 Q15.65 10.95 15.4 10.0 16.25 10.7 17.4 10.8 L19.4 10.75 21.4 10.8 Q22.45 11.05 23.25 11.9 L23.45 12.1 23.75 13.25 23.7 14.5 Q23.65 13.65 22.85 12.7 L21.3 11.45 22.05 13.2 22.4 15.05 22.0 14.55 21.6 14.05 Q21.75 15.5 21.45 16.0 21.1 16.55 20.1 16.65 20.05 17.6 19.4 18.35 18.75 19.3 17.2 19.6 L14.45 19.85 Q14.6 20.5 15.2 21.0 15.75 21.35 16.5 21.35 15.8 21.8 14.45 21.65 13.1 21.5 12.3 20.9 12.5 22.25 12.05 23.15 L10.5 24.85 10.5 23.5 Q10.4 22.7 10.1 22.25 10.3 22.6 9.2 23.4 L7.75 24.15 6.0 24.35 4.3 24.1 5.4 24.7 6.65 25.0 Q5.65 25.95 3.35 25.55 L-0.05 24.7 1.25 25.75 2.75 26.35 0.75 26.6 -1.1 26.45 Q-3.05 26.05 -3.55 23.7 L-4.2 25.5 Q-4.7 26.75 -5.15 27.3 -5.05 25.55 -6.65 24.4 -7.2 24.0 -8.2 23.55 L-9.75 22.75 Q-9.8 23.5 -9.3 24.15 -8.8 24.85 -8.1 25.05 -10.2 25.0 -11.25 24.1 -12.35 23.15 -12.4 21.1 L-14.4 21.55 -16.35 21.6 Q-15.5 21.55 -14.4 20.3 L-16.15 19.9 -16.7 19.95 Q-17.7 19.15 -18.25 17.8 L-19.35 19.1 Q-20.15 19.65 -20.95 19.6 -20.15 19.15 -20.0 18.4 -19.85 17.9 -20.1 16.95 L-20.45 15.4 Q-20.6 14.45 -20.35 13.75 -21.65 14.55 -23.25 14.3 -21.35 14.1 -21.25 13.05 L-21.4 11.9 -21.7 10.4 -22.35 10.5 -22.6 10.5 M19.2 5.05 Q17.9 4.45 16.15 2.35 14.3 0.05 13.3 -0.5 L14.5 -0.25 15.65 0.1 17.2 1.3 18.6 2.75 Q17.75 1.85 16.85 -0.2 L15.2 -3.2 Q14.0 -4.65 12.4 -5.75 L9.1 -7.5 12.85 -7.1 Q14.65 -6.7 16.25 -5.5 L18.0 -4.05 19.9 -2.75 20.4 -2.4 21.0 -1.7 Q21.6 -1.05 22.25 -0.9 21.3 -1.1 20.0 -1.65 L17.7 -2.65 Q18.6 -1.25 19.4 1.5 20.25 4.4 20.95 5.6 L19.85 5.05 18.85 4.3 19.15 5.0 19.2 5.05 M-14.75 -1.6 Q-14.8 0.1 -14.2 2.1 -13.6 4.15 -12.55 5.4 -11.45 6.75 -10.25 6.85 -11.95 6.75 -13.6 5.55 -15.2 4.4 -16.2 2.7 -17.3 0.85 -16.3 -1.2 -15.65 -2.6 -13.8 -4.15 -14.65 -3.4 -14.75 -1.6" fill="#000000" fill-opacity="0.2" fill-rule="evenodd" stroke="none"/>
    <path d="M3.15 -16.7 Q0.8 -15.5 -0.45 -15.2 -2.8 -14.7 -2.9 -17.3 M-4.25 -15.15 Q-6.2 -16.2 -8.5 -15.4 -10.25 -14.8 -11.7 -13.3 L-12.15 -12.85 -13.1 -11.45 -15.25 -8.7 Q-17.65 -6.0 -17.7 -8.95 M-17.75 -5.65 Q-18.65 -4.95 -19.2 -3.0 -19.9 -0.7 -20.35 -0.1 L-21.55 1.35 -22.6 2.5 Q-23.7 3.95 -23.65 5.9 M20.4 -2.4 L19.65 -3.5 17.7 -7.0 Q16.25 -9.1 14.65 -9.85 13.05 -10.65 10.55 -10.65 M22.25 -0.9 Q21.6 -1.05 21.0 -1.7 L20.4 -2.4 M20.95 5.6 Q20.25 4.4 19.4 1.5 18.6 -1.25 17.7 -2.65" fill="none" stroke="#000000" stroke-linecap="square" stroke-linejoin="round" stroke-opacity="0.6" stroke-width="1.0"/>
    <path d="M10.55 -10.65 Q12.1 -11.25 12.4 -13.2 12.7 -15.15 11.55 -16.25 L11.85 -14.75 Q11.95 -13.65 11.5 -13.2 10.25 -15.1 7.7 -16.25 5.05 -17.45 3.15 -16.7 M-2.9 -17.3 Q-3.55 -17.1 -3.9 -16.5 L-4.25 -15.15 M-17.7 -8.95 L-18.1 -7.35 Q-18.15 -6.35 -17.75 -5.65 M-23.65 5.9 Q-23.65 4.95 -23.0 4.05 -22.35 3.15 -21.45 2.85 -22.85 5.2 -23.1 7.2 L-23.25 9.1 Q-23.5 10.1 -24.55 10.15 L-23.2 10.4 -22.6 10.5 -22.35 10.5 -21.7 10.4 -21.4 11.9 -21.25 13.05 Q-21.35 14.1 -23.25 14.3 -21.65 14.55 -20.35 13.75 -20.6 14.45 -20.45 15.4 L-20.1 16.95 Q-19.85 17.9 -20.0 18.4 -20.15 19.15 -20.95 19.6 -20.15 19.65 -19.35 19.1 L-18.25 17.8 Q-17.7 19.15 -16.7 19.95 L-16.15 19.9 -14.4 20.3 Q-15.5 21.55 -16.35 21.6 L-14.4 21.55 -12.4 21.1 Q-12.35 23.15 -11.25 24.1 -10.2 25.0 -8.1 25.05 -8.8 24.85 -9.3 24.15 -9.8 23.5 -9.75 22.75 L-8.2 23.55 Q-7.2 24.0 -6.65 24.4 -5.05 25.55 -5.15 27.3 -4.7 26.75 -4.2 25.5 L-3.55 23.7 Q-3.05 26.05 -1.1 26.45 L0.75 26.6 2.75 26.35 1.25 25.75 -0.05 24.7 3.35 25.55 Q5.65 25.95 6.65 25.0 L5.4 24.7 4.3 24.1 6.0 24.35 7.75 24.15 9.2 23.4 Q10.3 22.6 10.1 22.25 10.4 22.7 10.5 23.5 L10.5 24.85 12.05 23.15 Q12.5 22.25 12.3 20.9 13.1 21.5 14.45 21.65 15.8 21.8 16.5 21.35 15.75 21.35 15.2 21.0 14.6 20.5 14.45 19.85 L17.2 19.6 Q18.75 19.3 19.4 18.35 20.05 17.6 20.1 16.65 21.1 16.55 21.45 16.0 21.75 15.5 21.6 14.05 L22.0 14.55 22.4 15.05 22.05 13.2 21.3 11.45 22.85 12.7 Q23.65 13.65 23.7 14.5 L23.75 13.25 Q23.6 11.9 22.75 10.8 21.9 9.6 19.85 8.4 L23.2 8.45 Q22.2 8.2 20.75 6.9 19.7 5.95 19.2 5.05 L19.15 5.0 18.85 4.3 19.85 5.05 20.95 5.6 M17.7 -2.65 L20.0 -1.65 Q21.3 -1.1 22.25 -0.9" fill="none" stroke="#000000" stroke-linecap="square" stroke-linejoin="round" stroke-opacity="0.4" stroke-width="1.0"/>
  </g>
</svg>
