<?xml version="1.0" encoding="UTF-8" standalone="no"?>
<svg xmlns:xlink="http://www.w3.org/1999/xlink" height="41.4px" width="33.15px" xmlns="http://www.w3.org/2000/svg">
  <g transform="matrix(1.0, 0.0, 0.0, 1.0, 16.65, 15.0)">
    <path d="M-4.0 -13.35 Q-3.9 -11.85 -3.45 -10.5 -2.95 -8.9 -2.2 -7.95 L-0.4 -5.85 1.3 -3.6 Q-0.45 -6.8 -1.05 -8.75 -1.9 -11.85 -0.4 -13.45 -0.3 -11.6 1.25 -8.95 L0.95 -10.25 0.5 -11.45 Q0.2 -12.85 1.4 -13.6 L2.7 -14.05 0.7 -14.45 0.05 -14.45 0.7 -14.5 2.65 -14.1 Q4.7 -13.5 7.05 -12.0 7.25 -10.3 6.7 -8.05 6.3 -6.1 5.55 -4.5 L3.8 -1.2 Q2.8 0.75 2.55 2.15 3.0 0.0 5.75 -2.3 L8.0 -4.15 9.7 -6.05 9.6 -5.1 8.45 -2.2 6.7 0.45 3.25 5.3 Q1.45 8.1 0.9 10.4 1.3 8.85 2.8 6.6 L5.55 2.9 7.8 0.5 10.1 -2.0 Q9.45 0.15 7.65 2.65 L4.45 6.95 7.75 3.95 10.6 0.6 Q9.85 4.05 6.9 8.4 L1.55 15.3 3.85 14.0 5.8 12.25 9.35 8.15 11.2 5.2 Q12.0 3.5 12.15 1.95 12.5 2.95 12.0 5.2 L10.85 8.45 8.15 13.05 6.6 15.2 7.3 12.55 4.85 14.85 2.4 17.1 1.5 17.8 0.85 17.2 Q0.15 16.7 -0.6 15.1 L0.2 17.3 0.7 19.55 -1.3 16.7 -3.35 14.5 -3.4 14.45 -8.7 7.55 Q-11.6 3.25 -12.4 -0.25 L-9.5 3.1 Q-7.95 4.8 -6.25 6.1 L-9.45 1.85 Q-11.25 -0.7 -11.85 -2.8 L-9.6 -0.35 -7.35 2.1 -4.6 5.75 Q-3.1 8.05 -2.7 9.6 -3.2 7.25 -5.05 4.45 L-8.55 -0.4 -10.25 -3.0 Q-11.05 -4.5 -11.45 -5.9 L-11.55 -6.75 -11.6 -8.1 -9.75 -9.9 -7.8 -11.35 -8.65 -10.75 Q-8.95 -9.35 -8.0 -8.4 -7.45 -7.8 -5.9 -6.95 -4.45 -6.15 -3.85 -5.35 -1.9 -2.85 -1.0 1.25 -0.1 5.05 -0.4 8.5 0.65 5.45 0.55 1.8 0.45 -2.1 -1.0 -4.75 -1.65 -6.1 -3.1 -7.4 L-5.65 -9.65 -6.25 -10.7 -6.55 -12.1 -4.0 -13.35 M-13.75 4.35 Q-14.35 2.15 -13.95 1.1 -13.8 2.65 -13.05 4.35 -12.3 5.95 -11.15 7.3 L-7.6 11.45 -5.65 13.2 -3.55 14.4 -2.3 17.1 Q-1.45 18.8 -1.15 20.05 L-4.4 16.2 -6.15 14.3 -7.8 12.3 -7.0 14.55 -6.0 16.45 -9.4 12.8 -9.95 12.3 -10.0 12.2 Q-11.75 9.7 -12.65 7.6 L-13.75 4.35 M13.15 11.55 Q11.7 12.5 9.55 14.2 6.35 16.85 5.3 18.3 L6.2 16.25 7.95 14.65 Q9.7 12.95 11.15 12.2 12.0 11.8 13.15 11.55" fill="#ffffff" fill-opacity="0.0" fill-rule="evenodd" stroke="none"/>
    <path d="M0.05 -14.45 L0.7 -14.45 2.7 -14.05 1.4 -13.6 Q0.2 -12.85 0.5 -11.45 L0.95 -10.25 1.25 -8.95 Q-0.3 -11.6 -0.4 -13.45 -1.9 -11.85 -1.05 -8.75 -0.45 -6.8 1.3 -3.6 L-0.4 -5.85 -2.2 -7.95 Q-2.95 -8.9 -3.45 -10.5 -3.9 -11.85 -4.0 -13.35 L-3.15 -13.65 -2.9 -13.7 0.05 -14.45 M-6.55 -12.1 L-6.25 -10.7 -5.65 -9.65 -3.1 -7.4 Q-1.65 -6.1 -1.0 -4.75 0.45 -2.1 0.55 1.8 0.65 5.45 -0.4 8.5 -0.1 5.05 -1.0 1.25 -1.9 -2.85 -3.85 -5.35 -4.45 -6.15 -5.9 -6.95 -7.45 -7.8 -8.0 -8.4 -8.95 -9.35 -8.65 -10.75 L-7.8 -11.35 -6.55 -12.15 -6.55 -12.1 M-11.6 -8.1 L-11.55 -6.75 -11.45 -5.9 Q-11.05 -4.5 -10.25 -3.0 L-8.55 -0.4 -5.05 4.45 Q-3.2 7.25 -2.7 9.6 -3.1 8.05 -4.6 5.75 L-7.35 2.1 -9.6 -0.35 -11.85 -2.8 Q-11.25 -0.7 -9.45 1.85 L-6.25 6.1 Q-7.95 4.8 -9.5 3.1 L-12.4 -0.25 Q-11.6 3.25 -8.7 7.55 L-3.4 14.45 -3.35 14.5 -1.3 16.7 0.7 19.55 0.2 17.3 -0.6 15.1 Q0.15 16.7 0.85 17.2 L1.5 17.8 2.4 17.1 4.85 14.85 7.3 12.55 6.6 15.2 8.15 13.05 10.85 8.45 12.0 5.2 Q12.5 2.95 12.15 1.95 12.0 3.5 11.2 5.2 L9.35 8.15 5.8 12.25 3.85 14.0 1.55 15.3 6.9 8.4 Q9.85 4.05 10.6 0.6 L7.75 3.95 4.45 6.95 7.65 2.65 Q9.45 0.15 10.1 -2.0 L7.8 0.5 5.55 2.9 2.8 6.6 Q1.3 8.85 0.9 10.4 1.45 8.1 3.25 5.3 L6.7 0.45 8.45 -2.2 9.6 -5.1 9.7 -6.05 8.0 -4.15 5.75 -2.3 Q3.0 0.0 2.55 2.15 2.8 0.75 3.8 -1.2 L5.55 -4.5 Q6.3 -6.1 6.7 -8.05 7.25 -10.3 7.05 -12.0 L7.25 -11.85 7.75 -11.55 8.7 -10.9 8.75 -10.85 10.0 -9.9 10.55 -9.45 10.55 -9.4 11.45 -8.75 Q13.05 -7.2 14.1 -5.15 17.65 1.45 14.55 10.75 12.55 12.8 8.85 19.1 6.95 22.15 6.2 24.45 1.65 27.3 -6.9 24.5 L-10.6 16.4 -14.65 10.95 -14.7 10.8 -14.7 10.75 -15.05 9.8 -15.85 6.55 -15.9 6.4 -15.95 6.05 -16.0 5.7 -16.05 5.45 -16.15 4.65 -15.7 -1.5 -15.6 -1.85 -15.5 -2.15 -15.45 -2.25 -13.8 -5.35 -12.05 -7.6 -11.7 -8.0 -11.6 -8.15 -11.6 -8.1 -11.7 -8.0 -11.6 -8.1 M13.15 11.55 Q12.0 11.8 11.15 12.2 9.7 12.95 7.95 14.65 L6.2 16.25 5.3 18.3 Q6.35 16.85 9.55 14.2 11.7 12.5 13.15 11.55 M-13.75 4.35 L-12.65 7.6 Q-11.75 9.7 -10.0 12.2 L-9.95 12.3 -9.4 12.8 -6.0 16.45 -7.0 14.55 -7.8 12.3 -6.15 14.3 -4.4 16.2 -1.15 20.05 Q-1.45 18.8 -2.3 17.1 L-3.55 14.4 -5.65 13.2 -7.6 11.45 -11.15 7.3 Q-12.3 5.95 -13.05 4.35 -13.8 2.65 -13.95 1.1 -14.35 2.15 -13.75 4.35" fill="#000000" fill-opacity="0.2" fill-rule="evenodd" stroke="none"/>
    <path d="M-16.05 5.45 L-16.0 5.7 -15.95 6.05 -16.05 5.45" fill="#945c47" fill-rule="evenodd" stroke="none"/>
    <path d="M-4.0 -13.35 L-6.55 -12.1 M-7.8 -11.35 L-9.75 -9.9 -11.6 -8.1 -11.7 -8.0 -12.05 -7.6 -13.8 -5.35 -15.45 -2.25 -15.5 -2.15 -15.6 -1.85 -15.7 -1.5 -16.15 4.65 -16.05 5.45 -15.95 6.05 -15.9 6.4 -15.85 6.55 -15.05 9.8 -14.7 10.75 -14.7 10.8 -14.65 10.95 -10.6 16.4 -6.9 24.5 Q1.65 27.3 6.2 24.45 6.95 22.15 8.85 19.1 12.55 12.8 14.55 10.75 17.65 1.45 14.1 -5.15 13.05 -7.2 11.45 -8.75 L10.55 -9.4 10.55 -9.45 10.0 -9.9 8.75 -10.85 8.7 -10.9 7.75 -11.55 7.25 -11.85 7.05 -12.0 Q4.7 -13.5 2.65 -14.1 L0.7 -14.5 0.05 -14.45 -2.9 -13.7 -3.15 -13.65 -4.0 -13.35" fill="none" stroke="#000000" stroke-linecap="round" stroke-linejoin="round" stroke-opacity="0.6" stroke-width="1.0"/>
    <path d="M-6.55 -12.15 L-7.8 -11.35" fill="none" stroke="#000000" stroke-linecap="square" stroke-linejoin="round" stroke-opacity="0.6" stroke-width="1.0"/>
  </g>
</svg>
