<?xml version="1.0" encoding="UTF-8" standalone="no"?>
<svg xmlns:xlink="http://www.w3.org/1999/xlink" height="38.1px" width="46.15px" xmlns="http://www.w3.org/2000/svg">
  <g transform="matrix(1.0, 0.0, 0.0, 1.0, 23.3, 14.55)">
    <path d="M-16.05 -2.8 L-15.15 -2.85 -14.1 -5.5 Q-11.35 -10.65 -6.9 -12.7 -2.5 -14.75 2.55 -13.35 L4.55 -13.3 Q6.75 -13.05 8.15 -12.0 11.85 -9.2 13.8 -5.75 L15.05 -2.8 15.1 -2.6 16.95 -1.7 Q18.35 -0.95 18.9 -0.7 L16.15 -1.05 18.15 -0.15 20.0 1.15 Q19.2 0.5 18.25 0.2 L16.3 -0.1 Q16.9 -0.05 17.85 0.6 19.1 2.15 19.2 9.7 L19.05 17.0 Q18.4 18.95 17.4 20.05 L16.6 20.3 15.6 19.8 14.7 18.95 Q14.0 18.0 13.55 16.55 13.0 15.05 13.1 13.9 13.8 16.3 15.95 18.05 15.1 16.75 14.45 14.4 13.95 12.2 14.05 10.55 14.25 11.8 15.25 13.5 16.1 15.1 17.05 16.1 L15.85 11.9 14.6 7.7 16.2 10.35 17.55 13.1 18.35 15.25 Q18.9 16.65 18.85 17.3 19.0 16.15 18.35 13.55 17.75 10.65 16.25 6.55 15.55 4.55 15.2 2.75 L15.1 3.05 Q15.75 0.25 15.1 -2.5 L14.35 -1.05 13.95 -2.15 Q11.8 -7.5 7.25 -9.5 L5.0 -10.05 2.95 -10.1 Q4.35 -10.05 5.8 -9.05 L8.55 -7.05 Q9.55 -6.2 10.35 -4.85 L11.75 -2.35 Q11.25 -3.05 9.55 -3.7 L7.0 -4.35 0.95 -4.05 Q2.2 -3.5 5.0 -2.95 L9.25 -2.0 12.15 -0.85 13.7 -0.1 13.45 0.2 12.55 1.3 10.65 1.1 7.7 0.7 Q10.15 0.7 13.3 -0.3 L9.4 -0.35 Q4.85 -0.75 1.55 -2.2 L2.05 -1.45 Q2.85 -0.65 3.9 -0.1 L4.2 0.05 0.65 -0.85 1.9 0.1 Q3.45 1.15 5.1 1.85 8.0 3.0 10.55 2.8 9.05 3.55 7.2 3.95 L2.3 4.35 Q3.3 5.35 6.45 5.7 9.75 6.1 11.15 5.15 10.0 6.35 7.75 6.95 L3.85 7.4 8.1 7.7 Q10.6 7.75 12.25 7.05 9.85 8.85 6.35 9.55 2.2 10.3 0.35 8.35 1.8 10.5 5.05 11.2 8.3 11.9 10.5 10.45 6.7 13.15 3.6 13.25 L6.45 13.25 9.2 12.85 5.75 14.45 Q3.85 15.2 1.95 15.35 2.7 16.0 4.65 15.95 L7.6 15.8 Q5.75 16.8 4.7 17.1 L1.55 17.6 Q2.45 18.15 3.9 18.3 L6.4 18.35 Q6.25 18.35 5.6 18.8 L4.7 19.35 2.7 19.55 Q1.7 19.35 1.0 18.65 L-0.05 17.6 0.2 16.55 -1.85 18.15 Q-3.1 18.95 -4.15 18.95 -2.95 18.9 -1.55 17.05 -0.1 15.2 -0.1 13.9 -1.55 15.85 -3.9 16.3 -6.35 16.8 -8.4 15.5 -5.4 15.25 -2.85 13.85 -0.2 12.4 1.3 10.1 -0.5 12.75 -4.35 12.85 -7.7 12.95 -11.0 11.3 -4.95 12.25 -1.45 7.3 -3.35 8.85 -6.45 9.4 -9.6 10.0 -11.3 9.0 -7.65 9.1 -4.8 7.5 -2.35 6.15 -1.25 3.95 L-1.2 3.9 -1.6 4.1 Q-3.5 4.95 -5.85 5.5 -11.2 6.75 -14.4 4.95 L-14.55 3.4 -14.6 2.35 Q-10.7 4.2 -6.05 2.3 -3.4 1.2 -1.6 -0.4 -6.55 1.0 -11.6 1.55 L-14.5 1.8 -14.6 1.8 -14.6 1.75 -14.65 0.4 -13.05 -0.4 -10.2 -1.55 -5.9 -2.5 Q-3.15 -3.05 -1.85 -3.6 L-8.0 -3.9 -10.5 -3.25 -12.15 -2.4 -9.8 -4.4 Q-6.2 -7.15 -2.8 -8.3 L-5.95 -8.25 Q-9.55 -7.25 -12.4 -2.3 L-11.25 -4.4 Q-10.5 -5.8 -9.45 -6.6 L-6.75 -8.6 Q-5.3 -9.6 -3.85 -9.65 L-5.9 -9.6 -8.2 -9.0 Q-12.7 -7.05 -14.85 -1.7 L-15.1 -1.15 -15.25 -2.15 -15.55 -0.2 -15.65 0.6 -15.8 1.1 -15.7 1.05 -15.9 2.0 -16.15 4.3 -16.65 6.55 Q-18.15 10.65 -18.85 13.55 -19.4 16.15 -19.25 17.3 -19.3 16.65 -18.8 15.25 L-17.95 13.1 -16.6 10.35 -15.05 7.7 -16.3 11.9 -17.45 16.1 Q-16.5 15.1 -15.65 13.5 -14.65 11.8 -14.45 10.55 -14.35 12.2 -14.9 14.4 -15.5 16.75 -16.4 18.05 -14.25 16.35 -13.55 13.9 -13.5 15.05 -13.95 16.55 -14.4 18.0 -15.15 18.95 L-16.05 19.8 -17.0 20.3 -17.25 20.2 -17.85 20.05 Q-18.85 18.95 -19.45 17.0 L-19.6 9.7 Q-19.5 2.3 -18.35 0.7 -17.35 -0.05 -16.7 -0.1 L-18.75 0.2 Q-19.6 0.5 -20.5 1.15 -19.7 0.4 -18.6 -0.15 L-16.55 -1.05 -19.35 -0.7 Q-18.8 -0.95 -17.35 -1.7 L-15.3 -2.7 -15.45 -2.85 -16.05 -2.8 M20.95 3.0 L20.95 3.15 21.95 4.25 Q22.35 5.1 22.05 6.05 L21.05 7.8 21.0 8.15 Q22.15 9.55 22.2 11.5 21.55 10.3 20.55 9.6 L20.45 10.7 20.95 10.8 22.2 11.9 22.05 13.2 Q21.4 11.8 20.35 10.9 L20.1 12.0 20.7 12.1 Q21.35 12.45 21.9 13.5 L21.5 14.5 20.85 15.5 Q20.05 16.45 19.05 17.0 L19.55 15.0 20.1 12.0 Q20.7 7.45 19.75 4.1 L18.55 1.4 17.85 0.6 18.2 0.85 19.9 2.2 20.95 3.0 M20.85 15.5 L19.85 14.05 19.55 15.0 19.9 15.1 20.6 15.75 20.85 15.5 M21.5 14.5 L21.6 14.25 Q21.0 13.2 20.05 12.5 L19.95 13.65 20.45 13.7 21.5 14.5 M17.95 3.6 L17.1 1.65 16.7 1.05 Q17.4 3.3 18.3 8.0 L19.15 12.3 Q19.15 7.15 17.95 3.6 M11.5 15.05 L12.2 13.45 11.5 15.2 11.5 15.05 M-21.3 2.7 L-21.35 3.0 -20.35 2.2 -18.65 0.85 -18.35 0.7 -19.0 1.4 -20.15 4.1 Q-21.6 9.2 -19.45 17.0 L-21.05 15.75 -20.35 15.1 -20.0 15.0 -20.3 14.05 -21.25 15.5 -21.95 14.45 -21.9 14.5 -20.85 13.7 -20.4 13.65 -20.5 12.5 Q-21.3 13.1 -22.05 14.35 L-22.45 13.25 -22.65 11.6 Q-22.65 9.6 -21.4 8.15 L-21.45 7.8 Q-22.15 7.1 -22.5 6.05 -23.0 4.35 -21.4 3.15 L-21.3 2.7 M-14.4 4.95 L-13.35 5.7 -11.2 6.65 Q-13.4 6.2 -14.4 4.95 M-18.35 3.6 Q-19.55 7.15 -19.55 12.3 L-18.75 8.0 -17.15 1.05 -17.5 1.65 -18.35 3.6 M-22.65 11.6 L-22.6 11.9 -21.35 10.8 -20.85 10.7 -20.95 9.6 Q-21.95 10.35 -22.6 11.5 L-22.65 11.6 M-22.45 13.25 L-22.35 13.5 Q-21.75 12.45 -21.1 12.1 L-20.55 12.0 -20.75 10.9 Q-21.8 11.8 -22.45 13.25" fill="#ffffff" fill-opacity="0.0" fill-rule="evenodd" stroke="none"/>
    <path d="M-16.05 -2.8 L-15.45 -2.85 -15.3 -2.7 -17.35 -1.7 Q-18.8 -0.95 -19.35 -0.7 L-16.55 -1.05 -18.6 -0.15 Q-19.7 0.4 -20.5 1.15 -19.6 0.5 -18.75 0.2 L-16.7 -0.1 Q-17.35 -0.05 -18.35 0.7 -19.5 2.3 -19.6 9.7 L-19.45 17.0 Q-21.6 9.2 -20.15 4.1 L-19.0 1.4 -18.35 0.7 -18.65 0.85 -20.35 2.2 -21.35 3.0 -21.3 2.7 -21.25 2.55 -21.1 1.85 Q-20.2 -0.9 -18.4 -2.05 L-17.25 -2.55 -16.85 -2.7 -16.6 -2.75 -16.05 -2.8 M-17.0 20.3 L-16.05 19.8 -15.15 18.95 Q-14.4 18.0 -13.95 16.55 -13.5 15.05 -13.55 13.9 -14.25 16.35 -16.4 18.05 -15.5 16.75 -14.9 14.4 -14.35 12.2 -14.45 10.55 -14.65 11.8 -15.65 13.5 -16.5 15.1 -17.45 16.1 L-16.3 11.9 -15.05 7.7 -16.6 10.35 -17.95 13.1 -18.8 15.25 Q-19.3 16.65 -19.25 17.3 -19.4 16.15 -18.85 13.55 -18.15 10.65 -16.65 6.55 L-16.15 4.3 -15.9 2.0 -15.7 1.05 -15.8 1.1 -15.65 0.6 -15.55 -0.2 -15.25 -2.15 -15.1 -1.15 -14.85 -1.7 Q-12.7 -7.05 -8.2 -9.0 L-5.9 -9.6 -3.85 -9.65 Q-5.3 -9.6 -6.75 -8.6 L-9.45 -6.6 Q-10.5 -5.8 -11.25 -4.4 L-12.4 -2.3 -12.6 -1.9 -12.15 -2.4 -10.5 -3.25 -8.0 -3.9 -1.85 -3.6 Q-3.15 -3.05 -5.9 -2.5 L-10.2 -1.55 -13.05 -0.4 -14.65 0.4 -14.6 1.75 -14.6 1.8 -14.5 1.8 -11.6 1.55 Q-6.55 1.0 -1.6 -0.4 -3.4 1.2 -6.05 2.3 -10.7 4.2 -14.6 2.35 L-14.55 3.4 -14.4 4.95 Q-13.4 6.2 -11.2 6.65 L-11.1 6.7 -11.0 6.7 -10.95 6.7 -10.4 6.85 Q-5.55 7.95 -1.25 3.95 -2.35 6.15 -4.8 7.5 -7.65 9.1 -11.3 9.0 -9.6 10.0 -6.45 9.4 -3.35 8.85 -1.45 7.3 -4.95 12.25 -11.0 11.3 -7.7 12.95 -4.35 12.85 -0.5 12.75 1.3 10.1 -0.2 12.4 -2.85 13.85 -5.4 15.25 -8.4 15.5 -6.35 16.8 -3.9 16.3 -1.55 15.85 -0.1 13.9 -0.1 15.2 -1.55 17.05 -2.95 18.9 -4.15 18.95 -3.1 18.95 -1.85 18.15 L0.2 16.55 -0.05 17.6 1.0 18.65 Q1.7 19.35 2.7 19.55 L4.7 19.35 5.6 18.8 Q6.25 18.35 6.4 18.35 L3.9 18.3 Q2.45 18.15 1.55 17.6 L4.7 17.1 Q5.75 16.8 7.6 15.8 L4.65 15.95 Q2.7 16.0 1.95 15.35 3.85 15.2 5.75 14.45 L9.2 12.85 6.45 13.25 3.6 13.25 Q6.7 13.15 10.5 10.45 8.3 11.9 5.05 11.2 1.8 10.5 0.35 8.35 2.2 10.3 6.35 9.55 9.85 8.85 12.25 7.05 10.6 7.75 8.1 7.7 L3.85 7.4 7.75 6.95 Q10.0 6.35 11.15 5.15 9.75 6.1 6.45 5.7 3.3 5.35 2.3 4.35 L7.2 3.95 Q9.05 3.55 10.55 2.8 8.0 3.0 5.1 1.85 3.45 1.15 1.9 0.1 L0.65 -0.85 4.2 0.05 7.7 0.7 10.65 1.1 12.55 1.3 13.45 0.2 13.7 -0.1 12.15 -0.85 9.25 -2.0 5.0 -2.95 Q2.2 -3.5 0.95 -4.05 L7.0 -4.35 9.55 -3.7 Q11.25 -3.05 11.75 -2.35 L10.35 -4.85 Q9.55 -6.2 8.55 -7.05 L5.8 -9.05 Q4.35 -10.05 2.95 -10.1 L5.0 -10.05 7.25 -9.5 Q11.8 -7.5 13.95 -2.15 L14.35 -1.05 15.1 -2.5 Q15.75 0.25 15.1 3.05 L15.2 2.75 Q15.55 4.55 16.25 6.55 17.75 10.65 18.35 13.55 19.0 16.15 18.85 17.3 18.9 16.65 18.35 15.25 L17.55 13.1 16.2 10.35 14.6 7.7 15.85 11.9 17.05 16.1 Q16.1 15.1 15.25 13.5 14.25 11.8 14.05 10.55 13.95 12.2 14.45 14.4 15.1 16.75 15.95 18.05 13.8 16.3 13.1 13.9 13.0 15.05 13.55 16.55 14.0 18.0 14.7 18.95 L15.6 19.8 16.6 20.3 14.2 20.4 Q12.5 20.15 11.2 19.0 L10.4 20.05 8.05 22.0 Q4.0 24.3 0.0 20.75 -1.35 22.0 -3.5 22.4 -7.75 23.2 -11.65 19.0 -12.9 20.15 -14.6 20.4 L-17.05 20.3 -17.0 20.3 M19.05 17.0 L19.2 9.7 Q19.1 2.15 17.85 0.6 16.9 -0.05 16.3 -0.1 L18.25 0.2 Q19.2 0.5 20.0 1.15 L18.15 -0.15 16.15 -1.05 18.9 -0.7 Q18.35 -0.95 16.95 -1.7 L15.1 -2.6 15.05 -2.8 15.05 -2.85 16.4 -2.7 18.0 -2.05 Q19.8 -0.9 20.65 1.85 L20.95 3.0 19.9 2.2 18.2 0.85 17.85 0.6 18.55 1.4 19.75 4.1 Q20.7 7.45 20.1 12.0 L19.55 15.0 19.05 17.0 M22.2 11.5 L22.2 11.9 20.95 10.8 20.45 10.7 20.55 9.6 Q21.55 10.3 22.2 11.5 M22.05 13.2 L22.05 13.25 21.9 13.5 Q21.35 12.45 20.7 12.1 L20.1 12.0 20.35 10.9 Q21.4 11.8 22.05 13.2 M21.5 14.5 L20.45 13.7 19.95 13.65 20.05 12.5 Q21.0 13.2 21.6 14.25 L21.5 14.5 M20.85 15.5 L20.6 15.75 19.9 15.1 19.55 15.0 19.85 14.05 20.85 15.5 M11.5 15.05 L11.5 15.2 12.2 13.45 11.5 15.05 M-21.05 15.75 L-21.25 15.5 -20.3 14.05 -20.0 15.0 -20.35 15.1 -21.05 15.75 M-21.95 14.45 L-22.05 14.35 Q-21.3 13.1 -20.5 12.5 L-20.4 13.65 -20.85 13.7 -21.9 14.5 -21.95 14.45 M-22.45 13.25 Q-21.8 11.8 -20.75 10.9 L-20.55 12.0 -21.1 12.1 Q-21.75 12.45 -22.35 13.5 L-22.45 13.25 M-22.65 11.6 L-22.6 11.5 Q-21.95 10.35 -20.95 9.6 L-20.85 10.7 -21.35 10.8 -22.6 11.9 -22.65 11.6" fill="#000000" fill-opacity="0.2" fill-rule="evenodd" stroke="none"/>
    <path d="M-12.4 -2.3 Q-9.55 -7.25 -5.95 -8.25 L-2.8 -8.3 Q-6.2 -7.15 -9.8 -4.4 L-12.15 -2.4 -12.6 -1.9 -12.4 -2.3 M-14.4 4.95 Q-11.2 6.75 -5.85 5.5 -3.5 4.95 -1.6 4.1 L-1.2 3.9 -1.25 3.95 Q-5.55 7.95 -10.4 6.85 L-10.95 6.7 -11.0 6.7 -11.1 6.7 -11.2 6.65 -13.35 5.7 -14.4 4.95 M4.2 0.05 L3.9 -0.1 Q2.85 -0.65 2.05 -1.45 L1.55 -2.2 Q4.85 -0.75 9.4 -0.35 L13.3 -0.3 Q10.15 0.7 7.7 0.7 L4.2 0.05 M17.95 3.6 Q19.15 7.15 19.15 12.3 L18.3 8.0 Q17.4 3.3 16.7 1.05 L17.1 1.65 17.95 3.6 M-18.35 3.6 L-17.5 1.65 -17.15 1.05 -18.75 8.0 -19.55 12.3 Q-19.55 7.15 -18.35 3.6" fill="#ffffff" fill-opacity="0.2" fill-rule="evenodd" stroke="none"/>
    <path d="M15.05 -2.8 L13.8 -5.75 Q11.85 -9.2 8.15 -12.0 6.75 -13.05 4.55 -13.3 L2.55 -13.35 Q-2.5 -14.75 -6.9 -12.7 -11.35 -10.65 -14.1 -5.5 L-15.15 -2.85 -16.05 -2.8 -16.6 -2.75 -16.85 -2.7 -17.25 -2.55 -18.4 -2.05 Q-20.2 -0.9 -21.1 1.85 L-21.25 2.55 -21.3 2.7 -21.4 3.15 Q-23.0 4.35 -22.5 6.05 -22.15 7.1 -21.45 7.8 L-21.4 8.15 Q-22.65 9.6 -22.65 11.6 L-22.45 13.25 -22.05 14.35 -21.95 14.45 -21.25 15.5 -21.05 15.75 -19.45 17.0 Q-18.85 18.95 -17.85 20.05 L-17.25 20.2 -17.0 20.3 -17.05 20.3 -14.6 20.4 Q-12.9 20.15 -11.65 19.0 -7.75 23.2 -3.5 22.4 -1.35 22.0 0.0 20.75 4.0 24.3 8.05 22.0 L10.4 20.05 11.2 19.0 Q12.5 20.15 14.2 20.4 L16.6 20.3 17.4 20.05 Q18.4 18.95 19.05 17.0 20.05 16.45 20.85 15.5 L21.5 14.5 21.9 13.5 22.05 13.25 M15.05 -2.8 L15.05 -2.85 16.4 -2.7 18.0 -2.05 Q19.8 -0.9 20.65 1.85 L20.95 3.0 20.95 3.15 21.95 4.25 Q22.35 5.1 22.05 6.05 L21.05 7.8 21.0 8.15 Q22.15 9.55 22.2 11.5 L22.2 11.9 22.05 13.2 M-21.9 14.5 L-21.95 14.45" fill="none" stroke="#000000" stroke-linecap="square" stroke-linejoin="round" stroke-opacity="0.6" stroke-width="1.0"/>
  </g>
</svg>
