<?xml version="1.0" encoding="UTF-8" standalone="no"?>
<svg xmlns:xlink="http://www.w3.org/1999/xlink" height="43.4px" width="38.55px" xmlns="http://www.w3.org/2000/svg">
  <g transform="matrix(1.0, 0.0, 0.0, 1.0, 18.65, 17.3)">
    <path d="M-17.35 -5.1 L-10.95 -12.7 -8.5 -14.55 Q-4.25 -17.15 0.8 -16.55 4.8 -16.05 7.7 -13.1 9.6 -11.2 10.85 -8.5 L10.9 -8.4 Q12.65 -10.55 15.25 -10.3 L14.2 -9.8 Q13.05 -9.15 12.4 -8.3 L12.95 -8.5 14.4 -8.75 15.35 -8.6 16.6 -8.0 16.75 -7.9 17.4 -7.3 17.95 -6.55 18.1 -6.3 17.55 -6.45 16.7 -6.55 16.6 -6.6 15.35 -7.0 14.4 -7.15 12.1 -6.9 Q14.35 -7.05 15.7 -5.6 13.85 -6.7 10.55 -5.95 L11.65 -5.8 Q13.0 -5.5 14.05 -4.8 15.35 -3.9 16.15 -2.55 16.2 -1.1 15.5 0.75 14.6 3.1 12.6 5.9 L9.85 10.0 7.25 13.6 8.25 12.55 Q7.25 13.85 6.7 15.05 8.05 14.3 10.1 12.25 L13.25 9.1 10.75 12.2 Q9.25 14.15 8.5 15.55 9.5 15.0 10.75 13.85 L12.8 11.9 Q11.4 14.6 8.0 18.35 L8.05 17.25 6.95 19.05 5.7 20.7 5.85 17.9 5.35 19.55 4.85 21.15 Q5.2 18.85 5.0 15.9 L4.35 10.65 Q4.35 13.9 4.0 16.35 3.55 19.65 2.35 21.65 L2.05 15.65 Q1.85 12.1 1.3 9.9 0.95 11.1 0.7 13.75 0.5 16.3 0.1 17.5 -1.15 15.3 -2.4 12.0 -2.4 13.35 -1.5 16.3 L-1.2 17.35 Q-2.4 14.65 -3.2 11.2 L-4.4 3.9 -5.3 -3.4 Q-5.9 -9.6 -5.15 -10.15 -7.4 -8.65 -7.45 -5.35 -7.5 -3.8 -6.65 0.35 L-4.75 8.15 -5.55 5.65 -7.15 0.4 Q-8.0 -2.85 -8.05 -4.65 -8.05 -1.3 -7.3 2.75 -6.6 6.6 -5.35 10.2 L-2.15 19.15 -2.0 20.4 -1.7 23.1 Q-2.35 21.35 -3.05 20.1 L-3.25 19.55 -4.6 15.55 -4.05 18.5 -6.45 14.8 Q-8.3 11.85 -9.25 9.7 L-7.85 15.75 Q-7.0 19.35 -6.0 21.75 -8.9 18.65 -11.9 13.4 L-10.45 13.5 -9.85 13.1 Q-12.15 11.85 -14.2 9.1 L-14.7 8.2 -13.4 9.3 Q-11.55 10.6 -9.8 10.65 -14.5 6.65 -16.55 3.25 L-17.5 1.3 -17.7 0.6 -17.1 3.85 -17.9 2.5 -17.9 2.7 -18.0 1.3 Q-17.9 -0.6 -16.6 -3.15 L-15.35 -5.25 -17.35 -5.1 M4.65 -13.25 L6.15 -11.35 4.25 -12.7 Q3.1 -13.55 2.2 -13.6 L4.8 -11.4 6.9 -9.1 8.2 -6.7 Q9.05 -5.0 9.0 -4.3 9.35 -8.4 8.1 -10.8 6.8 -13.3 3.15 -15.1 L4.65 -13.25 M-12.9 -6.2 Q-15.55 -3.5 -15.1 -0.25 -14.75 2.4 -12.2 5.75 L-7.4 11.45 Q-4.55 14.75 -3.8 16.55 -4.65 13.55 -6.45 10.75 -7.65 8.85 -10.25 5.75 L-11.5 3.45 -12.8 -0.15 Q-14.15 -4.85 -12.9 -6.2 M-1.15 17.5 Q-0.65 19.5 -0.75 20.65 L-1.5 19.0 -2.1 17.55 -2.8 14.2 -3.2 12.9 -1.15 17.5" fill="#ffffff" fill-opacity="0.0" fill-rule="evenodd" stroke="none"/>
    <path d="M-17.1 3.85 L-17.7 0.6 -17.5 1.3 -16.55 3.25 Q-14.5 6.65 -9.8 10.65 -11.55 10.6 -13.4 9.3 L-14.7 8.2 Q-16.35 6.5 -17.1 3.85 M-4.75 8.15 L-6.65 0.35 Q-7.5 -3.8 -7.45 -5.35 -7.4 -8.65 -5.15 -10.15 -5.9 -9.6 -5.3 -3.4 L-4.4 3.9 -3.2 11.2 Q-2.4 14.65 -1.2 17.35 L-0.8 18.15 -1.15 17.5 -3.2 12.9 -4.75 8.15 M8.25 12.55 L7.25 13.6 9.85 10.0 12.6 5.9 Q14.6 3.1 15.5 0.75 16.2 -1.1 16.15 -2.55 15.35 -3.9 14.05 -4.8 13.0 -5.5 11.65 -5.8 L10.55 -5.95 Q13.85 -6.7 15.7 -5.6 17.3 -4.65 17.75 -2.2 18.2 0.4 17.45 3.3 17.5 1.5 17.2 0.05 L16.65 2.0 16.0 3.35 14.85 5.35 11.1 9.7 8.25 12.55 M4.65 -13.25 L3.15 -15.1 Q6.8 -13.3 8.1 -10.8 9.35 -8.4 9.0 -4.3 9.05 -5.0 8.2 -6.7 L6.9 -9.1 4.8 -11.4 2.2 -13.6 Q3.1 -13.55 4.25 -12.7 L6.15 -11.35 4.65 -13.25 M-12.9 -6.2 Q-14.15 -4.85 -12.8 -0.15 L-11.5 3.45 -10.25 5.75 Q-7.65 8.85 -6.45 10.75 -4.65 13.55 -3.8 16.55 -4.55 14.75 -7.4 11.45 L-12.2 5.75 Q-14.75 2.4 -15.1 -0.25 -15.55 -3.5 -12.9 -6.2" fill="#ffffff" fill-opacity="0.2" fill-rule="evenodd" stroke="none"/>
    <path d="M-17.9 2.7 L-17.9 2.5 -17.1 3.85 Q-16.35 6.5 -14.7 8.2 L-14.2 9.1 Q-12.15 11.85 -9.85 13.1 L-10.45 13.5 -11.9 13.4 Q-8.9 18.65 -6.0 21.75 -7.0 19.35 -7.85 15.75 L-9.25 9.7 Q-8.3 11.85 -6.45 14.8 L-4.05 18.5 -4.6 15.55 -3.25 19.55 -3.05 20.1 Q-2.35 21.35 -1.7 23.1 L-2.0 20.4 -2.15 19.15 -5.35 10.2 Q-6.6 6.6 -7.3 2.75 -8.05 -1.3 -8.05 -4.65 -8.0 -2.85 -7.15 0.4 L-5.55 5.65 -4.75 8.15 -3.2 12.9 -2.8 14.2 -2.1 17.55 -1.5 19.0 -0.75 20.65 Q-0.65 19.5 -1.15 17.5 L-0.8 18.15 -1.2 17.35 -1.5 16.3 Q-2.4 13.35 -2.4 12.0 -1.15 15.3 0.1 17.5 0.5 16.3 0.7 13.75 0.95 11.1 1.3 9.9 1.85 12.1 2.05 15.65 L2.35 21.65 Q3.55 19.65 4.0 16.35 4.35 13.9 4.35 10.65 L5.0 15.9 Q5.2 18.85 4.85 21.15 L5.35 19.55 5.85 17.9 5.7 20.7 6.95 19.05 8.05 17.25 8.0 18.35 Q11.4 14.6 12.8 11.9 L10.75 13.85 Q9.5 15.0 8.5 15.55 9.25 14.15 10.75 12.2 L13.25 9.1 10.1 12.25 Q8.05 14.3 6.7 15.05 7.25 13.85 8.25 12.55 L11.1 9.7 14.85 5.35 16.0 3.35 16.65 2.0 17.2 0.05 Q17.5 1.5 17.45 3.3 18.2 0.4 17.75 -2.2 17.3 -4.65 15.7 -5.6 14.35 -7.05 12.1 -6.9 L14.4 -7.15 15.35 -7.0 16.6 -6.6 16.7 -6.55 16.6 -6.55 16.05 -6.6 15.95 -6.6 16.05 -6.55 17.2 -5.6 Q18.55 -4.25 18.95 -2.6 L19.2 -0.45 Q19.35 2.0 18.8 3.5 L17.3 7.45 Q15.75 11.45 15.75 11.9 11.95 18.2 9.0 21.45 L6.1 24.4 4.9 25.45 -3.8 25.35 -5.1 24.55 -12.5 15.95 -13.2 14.75 -14.6 11.95 -15.55 9.4 -16.35 7.5 -16.65 6.8 -17.9 2.7" fill="#000000" fill-opacity="0.2" fill-rule="evenodd" stroke="none"/>
    <path d="M-16.65 6.8 L-16.35 7.5 -15.55 9.4 -16.65 6.8 M-14.6 11.95 L-13.2 14.75 -12.5 15.95 -12.9 15.3 -14.6 11.95" fill="#945c47" fill-rule="evenodd" stroke="none"/>
    <path d="M10.85 -8.5 Q9.6 -11.2 7.7 -13.1 4.8 -16.05 0.8 -16.55 -4.25 -17.15 -8.5 -14.55 L-10.95 -12.7 -17.35 -5.1 M-15.35 -5.25 L-16.6 -3.15 Q-17.9 -0.6 -18.0 1.3 L-17.9 2.7 -16.65 6.8 -15.55 9.4 -14.6 11.95 -12.9 15.3 -12.5 15.95 -5.1 24.55 -3.8 25.35 4.9 25.45 6.1 24.4 9.0 21.45 Q11.95 18.2 15.75 11.9 15.75 11.45 17.3 7.45 L18.8 3.5 Q19.35 2.0 19.2 -0.45 L18.95 -2.6 Q18.55 -4.25 17.2 -5.6 L16.05 -6.55 15.95 -6.6" fill="none" stroke="#000000" stroke-linecap="square" stroke-linejoin="round" stroke-opacity="0.6" stroke-width="1.0"/>
    <path d="M-17.35 -5.1 L-15.35 -5.25 M16.7 -6.55 L17.55 -6.45 18.1 -6.3 17.95 -6.55 17.4 -7.3 16.75 -7.9 16.6 -8.0 15.35 -8.6 14.4 -8.75 12.95 -8.5 12.4 -8.3 Q13.05 -9.15 14.2 -9.8 L15.25 -10.3 Q12.65 -10.55 10.9 -8.4 L10.85 -8.5 M15.95 -6.6 L16.05 -6.6 16.6 -6.55 16.7 -6.55" fill="none" stroke="#000000" stroke-linecap="square" stroke-linejoin="round" stroke-opacity="0.4" stroke-width="1.0"/>
  </g>
</svg>
