<?xml version="1.0" encoding="UTF-8" standalone="no"?>
<svg xmlns:xlink="http://www.w3.org/1999/xlink" height="50.15px" width="47.2px" xmlns="http://www.w3.org/2000/svg">
  <g transform="matrix(1.0, 0.0, 0.0, 1.0, 23.9, 17.75)">
    <path d="M-21.75 15.8 Q-20.9 15.6 -20.2 14.75 -19.75 13.85 -19.8 12.8 -19.9 11.75 -20.6 11.0 L-22.55 9.15 Q-23.3 8.2 -23.25 6.35 L-23.15 4.05 -22.65 1.8 -21.65 0.1 -20.6 -1.5 -21.2 -2.5 -21.7 -3.4 Q-19.95 -3.35 -18.5 -5.8 L-17.35 -7.95 -16.35 -9.8 Q-14.95 -11.8 -13.3 -13.2 -11.6 -14.65 -9.55 -15.6 -5.8 -17.25 -1.85 -17.1 2.65 -16.95 5.25 -14.45 L7.9 -14.65 Q9.65 -14.45 11.35 -13.35 L14.3 -12.9 Q16.5 -12.15 17.7 -10.45 L18.65 -8.75 19.65 -6.7 18.9 -7.65 19.65 -5.9 18.65 -7.15 18.1 -7.35 18.2 -6.05 18.05 -4.35 17.65 -2.55 Q17.8 -1.45 18.6 -0.95 L20.6 -1.1 20.6 0.15 Q20.65 1.15 20.3 1.95 21.35 2.85 21.7 4.8 L21.9 7.95 21.85 7.85 21.9 9.5 21.95 10.2 Q22.25 11.7 22.0 12.8 L21.15 15.35 Q20.65 16.65 20.9 17.7 21.25 19.0 22.65 19.4 21.9 20.2 20.65 19.9 L20.6 19.9 20.25 19.75 20.0 19.6 19.9 19.55 19.8 19.45 19.75 19.45 18.85 18.6 Q18.95 19.35 18.65 20.4 L17.9 22.15 Q16.9 24.4 17.35 25.6 17.65 26.35 18.25 26.7 L19.45 26.65 19.2 26.95 19.1 27.1 17.9 27.9 Q16.55 27.8 15.35 26.85 14.75 26.4 14.3 25.5 L13.7 23.85 Q12.8 20.95 13.05 18.8 L13.25 17.7 Q11.2 19.55 11.25 21.65 8.7 20.9 8.4 19.2 8.2 17.8 9.4 15.95 10.35 14.5 11.85 13.3 L12.8 12.55 Q12.55 13.35 12.6 14.15 12.85 13.5 13.2 13.15 13.75 12.2 15.6 10.15 17.2 8.25 17.8 6.95 L16.9 7.8 15.85 8.4 Q16.9 7.25 16.85 5.55 16.75 3.85 15.55 2.75 13.8 1.55 13.05 0.8 11.7 -0.5 12.2 -2.0 12.2 -1.55 12.55 -1.1 L13.2 -0.35 Q12.4 -1.3 12.65 -2.95 L13.15 -5.7 Q13.2 -7.35 12.55 -8.15 12.1 -8.7 10.3 -9.65 11.9 -8.05 11.6 -5.75 L11.15 -3.7 10.65 -1.5 10.3 1.25 Q10.3 2.75 10.9 3.85 11.5 5.0 12.25 5.35 13.15 5.9 14.05 5.15 L12.7 4.25 Q12.1 3.75 11.85 2.85 12.35 3.4 13.2 3.55 L14.75 3.65 13.9 3.05 13.2 2.15 Q14.3 2.6 14.95 3.7 15.55 4.8 15.5 6.05 15.45 7.3 14.75 8.15 14.0 9.0 12.65 8.95 L14.0 9.25 15.25 8.8 13.4 11.25 13.0 12.05 11.25 12.15 Q9.9 12.6 9.45 13.8 9.75 11.5 8.3 9.95 6.9 8.5 4.55 8.3 6.25 9.05 7.1 10.4 8.05 11.9 7.55 13.45 L6.85 14.6 6.0 15.65 Q5.15 16.8 5.7 18.2 4.05 18.15 3.9 16.35 3.8 14.7 4.75 13.45 2.5 15.6 2.5 17.65 L3.45 19.7 Q4.4 21.3 4.45 21.1 4.05 22.3 2.9 22.1 1.8 21.95 0.75 20.9 -0.3 19.75 -0.55 18.5 -0.85 17.05 0.15 16.0 -1.6 17.3 -1.5 19.1 L-1.25 20.8 Q-1.1 21.9 -1.25 22.85 -1.6 25.15 -2.75 26.45 -4.2 28.05 -6.4 27.45 L-5.05 26.4 -3.9 25.5 Q-2.75 24.5 -3.15 22.6 L-3.7 20.75 -4.15 18.95 Q-4.45 17.05 -3.0 15.75 -5.35 17.75 -5.85 18.8 -6.65 20.3 -5.85 23.0 -7.15 22.05 -8.0 20.0 -7.75 22.05 -8.65 23.45 L-9.4 24.4 -10.05 25.8 -11.3 27.5 -11.5 27.7 -11.55 27.75 -11.8 28.0 Q-12.75 28.8 -13.95 29.4 L-14.0 29.4 -14.15 29.3 -14.3 29.2 -14.5 29.05 -13.6 28.0 -13.4 27.8 -13.35 27.75 -12.25 26.5 Q-12.8 26.9 -13.75 26.95 L-15.35 27.1 -14.15 25.85 -13.55 24.3 Q-14.1 25.15 -15.15 25.4 L-15.35 25.45 -15.6 25.5 -16.35 25.5 -17.65 25.35 Q-16.65 24.95 -16.35 24.35 L-16.3 24.2 -16.2 23.55 Q-16.2 22.75 -17.05 21.15 L-17.7 19.5 -18.1 18.35 -18.3 17.5 -18.4 16.8 -18.45 16.85 -20.0 18.15 -20.2 18.25 -22.0 18.4 Q-21.1 18.3 -20.45 17.7 L-20.2 17.5 -20.0 17.25 -19.35 16.1 -20.0 16.35 -20.2 16.4 -20.85 16.45 -22.4 16.45 Q-21.7 16.3 -21.15 15.85 L-21.75 15.8 M17.9 27.9 Q17.0 27.3 16.05 26.05 14.1 23.55 13.8 20.3 L13.7 21.35 Q13.7 22.65 13.95 23.75 14.75 27.3 17.9 27.9 M1.8 -10.95 L0.0 -11.6 Q-2.05 -12.2 -3.75 -10.85 -5.5 -9.4 -5.5 -7.45 -5.5 -6.2 -4.6 -3.85 -3.7 -1.4 -3.6 -0.35 -3.45 1.55 -4.95 2.75 L-7.4 4.6 Q-8.65 5.65 -9.0 7.0 L-9.15 8.65 -8.75 10.05 -8.65 10.2 -8.7 8.1 Q-8.6 6.9 -7.95 6.3 -7.5 5.85 -6.35 5.4 L-4.6 4.75 Q-2.95 3.75 -2.35 2.1 -1.7 0.35 -2.55 -1.3 L-4.05 -4.9 Q-4.6 -7.05 -3.35 -8.65 -2.4 -9.95 -0.15 -10.4 1.7 -10.75 3.55 -10.4 L1.8 -10.95 M7.95 -8.4 L7.25 -8.45 Q8.8 -7.8 9.4 -2.85 L9.7 2.0 Q11.1 -5.15 9.3 -7.5 8.75 -8.25 7.95 -8.4 M6.1 -9.05 Q5.7 -14.45 2.2 -14.9 L-0.2 -14.65 -1.25 -14.25 Q2.65 -15.15 4.75 -12.2 5.85 -10.7 6.1 -9.05 M9.15 -11.45 L7.55 -10.2 7.0 -9.5 Q9.15 -11.4 12.0 -11.1 13.45 -11.0 14.45 -10.5 11.9 -12.9 9.15 -11.45 M15.55 -9.15 L15.95 -8.25 Q16.3 -6.55 15.05 -3.6 15.95 -4.4 16.45 -5.55 17.4 -7.8 15.3 -9.4 L15.55 -9.15 M-1.2 5.8 Q-1.65 9.05 1.0 11.2 L0.0 8.55 Q-0.85 5.35 -0.25 2.95 L-0.65 3.75 Q-1.1 4.8 -1.2 5.8 M15.95 17.6 L15.85 17.05 Q15.8 15.75 16.7 14.45 L15.1 16.1 14.6 16.55 14.65 17.2 Q14.85 19.35 15.6 20.45 15.55 19.1 15.95 17.6 M-7.25 -15.45 Q-11.35 -14.3 -13.95 -10.35 L-11.15 -12.65 Q-7.6 -15.05 -3.65 -15.85 L-7.25 -15.45 M-14.6 -3.9 L-14.0 -2.9 -13.65 -1.85 Q-14.55 -1.35 -15.05 -0.5 -15.55 0.2 -15.45 0.95 -15.35 1.7 -14.65 2.1 L-12.7 2.4 Q-13.65 2.45 -13.85 1.55 -14.0 0.75 -13.5 -0.2 L-12.4 -1.65 Q-12.1 -2.0 -12.45 -2.55 L-13.2 -3.6 Q-14.1 -4.8 -13.85 -6.8 -13.55 -8.85 -12.1 -9.35 -14.15 -8.7 -14.9 -7.3 -15.65 -5.7 -14.6 -3.9 M-18.45 0.8 L-17.9 0.45 -17.4 -0.05 Q-16.8 -0.8 -16.75 -1.75 L-16.75 -3.4 Q-17.0 -2.0 -18.45 -1.0 L-19.7 -0.2 -20.6 1.0 Q-21.1 2.05 -20.15 2.8 L-19.3 3.35 Q-18.8 3.75 -18.65 4.2 -18.4 4.8 -19.1 5.85 -19.95 7.05 -19.9 7.75 -19.9 8.95 -19.1 10.1 -18.15 11.4 -17.0 11.25 L-18.15 9.8 -18.6 8.05 Q-18.6 6.9 -17.75 6.4 L-17.0 6.0 -16.25 5.35 Q-15.8 4.75 -16.1 4.35 -16.25 4.1 -17.0 3.75 L-18.25 3.15 Q-18.85 2.65 -18.9 2.0 -18.95 1.25 -18.45 0.8 M-11.8 9.0 L-12.0 8.15 Q-12.3 6.1 -11.5 5.0 L-10.25 3.7 -8.9 2.65 Q-7.4 1.3 -7.9 -0.55 L-7.75 -0.45 -8.15 -1.35 Q-8.65 -2.4 -8.65 -4.9 -8.65 -7.6 -7.55 -7.9 -9.15 -7.5 -10.05 -6.4 -11.0 -5.3 -11.1 -3.6 L-10.85 -2.1 -10.3 -0.85 Q-9.6 0.65 -10.4 1.75 L-11.5 3.15 -12.4 4.3 Q-13.25 5.55 -12.8 7.4 L-12.0 9.4 -11.55 10.3 -10.85 11.0 -10.8 8.4 Q-10.35 4.2 -7.7 2.25 L-8.7 2.9 Q-9.85 3.7 -10.6 4.75 -12.05 6.75 -11.8 9.0 M-5.55 7.85 Q-6.2 8.55 -6.5 9.4 -7.45 12.2 -4.5 15.8 L-5.3 12.55 Q-5.9 8.95 -5.0 7.3 L-5.55 7.85 M-16.1 6.1 L-17.55 7.1 Q-19.0 8.8 -16.8 11.1 L-16.75 11.0 -17.25 9.95 Q-17.85 7.7 -15.25 5.8 L-16.1 6.1 M-15.35 19.9 Q-15.85 18.85 -16.7 17.65 L-17.35 16.9 Q-15.55 19.3 -15.4 22.35 L-15.35 23.45 -15.45 24.2 -15.6 25.0 -14.9 24.2 -14.6 23.45 Q-14.3 22.05 -15.35 19.9 M-12.9 20.65 L-12.75 20.4 -12.95 19.75 -13.0 19.5 Q-13.05 20.85 -13.6 22.05 L-12.9 20.65 M-11.75 18.0 L-12.15 19.75 -12.35 20.75 -12.4 21.0 -12.4 22.9 Q-11.75 22.3 -11.4 21.05 L-10.8 18.9 -10.65 22.3 Q-10.7 24.25 -11.3 25.35 L-11.4 25.5 -11.3 25.4 -10.25 22.85 Q-9.8 21.2 -9.95 19.65 L-10.3 17.2 Q-10.3 16.0 -9.5 14.85 -11.25 16.1 -11.75 18.0" fill="#ffffff" fill-opacity="0.0" fill-rule="evenodd" stroke="none"/>
    <path d="M17.9 27.9 Q14.75 27.3 13.95 23.75 13.7 22.65 13.7 21.35 L13.8 20.3 Q14.1 23.55 16.05 26.05 17.0 27.3 17.9 27.9 M7.95 -8.4 Q8.75 -8.25 9.3 -7.5 11.1 -5.15 9.7 2.0 L9.4 -2.85 Q8.8 -7.8 7.25 -8.45 L7.95 -8.4 M9.15 -11.45 Q11.9 -12.9 14.45 -10.5 13.45 -11.0 12.0 -11.1 9.15 -11.4 7.0 -9.5 L7.55 -10.2 9.15 -11.45 M-7.25 -15.45 L-3.65 -15.85 Q-7.6 -15.05 -11.15 -12.65 L-13.95 -10.35 Q-11.35 -14.3 -7.25 -15.45 M-11.55 10.3 L-11.8 9.0 Q-12.05 6.75 -10.6 4.75 -9.85 3.7 -8.7 2.9 L-7.7 2.25 Q-10.35 4.2 -10.8 8.4 L-10.85 11.0 -11.55 10.3 M-16.1 6.1 L-15.25 5.8 Q-17.85 7.7 -17.25 9.95 L-16.75 11.0 -16.8 11.1 Q-19.0 8.8 -17.55 7.1 L-16.1 6.1 M-15.35 19.9 Q-14.3 22.05 -14.6 23.45 L-14.9 24.2 -15.6 25.0 -15.45 24.2 -15.35 23.45 -15.4 22.35 Q-15.55 19.3 -17.35 16.9 L-16.7 17.65 Q-15.85 18.85 -15.35 19.9" fill="#ffffff" fill-opacity="0.2" fill-rule="evenodd" stroke="none"/>
    <path d="M-13.95 29.4 Q-12.75 28.8 -11.8 28.0 L-11.55 27.75 -11.5 27.7 -11.3 27.5 -10.05 25.8 -9.4 24.4 -8.65 23.45 Q-7.75 22.05 -8.0 20.0 -7.15 22.05 -5.85 23.0 -6.65 20.3 -5.85 18.8 -5.35 17.75 -3.0 15.75 -4.45 17.05 -4.15 18.95 L-3.7 20.75 -3.15 22.6 Q-2.75 24.5 -3.9 25.5 L-5.05 26.4 -6.4 27.45 Q-4.2 28.05 -2.75 26.45 -1.6 25.15 -1.25 22.85 -1.1 21.9 -1.25 20.8 L-1.5 19.1 Q-1.6 17.3 0.15 16.0 -0.85 17.05 -0.55 18.5 -0.3 19.75 0.75 20.9 1.8 21.95 2.9 22.1 4.05 22.3 4.45 21.1 4.4 21.3 3.45 19.7 L2.5 17.65 Q2.5 15.6 4.75 13.45 3.8 14.7 3.9 16.35 4.05 18.15 5.7 18.2 5.15 16.8 6.0 15.65 L6.85 14.6 7.55 13.45 Q8.05 11.9 7.1 10.4 6.25 9.05 4.55 8.3 6.9 8.5 8.3 9.95 9.75 11.5 9.45 13.8 9.9 12.6 11.25 12.15 L13.0 12.05 13.4 11.25 15.25 8.8 14.0 9.25 12.65 8.95 Q14.0 9.0 14.75 8.15 15.45 7.3 15.5 6.05 15.55 4.8 14.95 3.7 14.3 2.6 13.2 2.15 L13.9 3.05 14.75 3.65 13.2 3.55 Q12.35 3.4 11.85 2.85 12.1 3.75 12.7 4.25 L14.05 5.15 Q13.15 5.9 12.25 5.35 11.5 5.0 10.9 3.85 10.3 2.75 10.3 1.25 L10.65 -1.5 11.15 -3.7 11.6 -5.75 Q11.9 -8.05 10.3 -9.65 12.1 -8.7 12.55 -8.15 13.2 -7.35 13.15 -5.7 L12.65 -2.95 Q12.4 -1.3 13.2 -0.35 L12.55 -1.1 Q12.2 -1.55 12.2 -2.0 11.7 -0.5 13.05 0.8 13.8 1.55 15.55 2.75 16.75 3.85 16.85 5.55 16.9 7.25 15.85 8.4 L16.9 7.8 17.8 6.95 Q17.2 8.25 15.6 10.15 13.75 12.2 13.2 13.15 12.85 13.5 12.6 14.15 12.55 13.35 12.8 12.55 L11.85 13.3 Q10.35 14.5 9.4 15.95 8.2 17.8 8.4 19.2 8.7 20.9 11.25 21.65 11.2 19.55 13.25 17.7 L13.05 18.8 Q12.8 20.95 13.7 23.85 L14.3 25.5 Q14.75 26.4 15.35 26.85 16.55 27.8 17.9 27.9 L19.1 27.1 Q17.85 28.35 16.0 28.2 13.85 27.9 13.0 25.85 L13.15 26.9 13.35 27.95 Q13.75 29.0 15.0 29.05 14.0 30.15 12.1 29.45 11.3 29.15 10.7 28.55 10.1 28.0 10.0 27.3 10.0 28.4 10.15 29.05 10.35 29.95 11.0 30.6 10.15 30.65 9.4 29.95 8.75 29.25 8.5 28.35 8.0 29.75 6.75 30.45 5.6 31.2 3.9 31.25 4.8 30.45 4.65 29.55 L3.15 31.15 Q2.15 31.9 1.1 31.7 1.6 30.9 1.5 29.7 0.45 30.85 -0.95 31.2 L-0.7 30.0 -0.45 28.85 Q-1.05 29.75 -2.3 30.25 L-4.75 30.75 -9.35 30.85 -7.5 30.0 -6.05 28.8 Q-7.25 30.0 -10.1 30.1 -12.55 30.2 -13.95 29.4 M1.8 -10.95 L3.55 -10.4 Q1.7 -10.75 -0.15 -10.4 -2.4 -9.95 -3.35 -8.65 -4.6 -7.05 -4.05 -4.9 L-2.55 -1.3 Q-1.7 0.35 -2.35 2.1 -2.95 3.75 -4.6 4.75 L-6.35 5.4 Q-7.5 5.85 -7.95 6.3 -8.6 6.9 -8.7 8.1 L-8.65 10.2 -8.75 10.05 -9.15 8.65 -9.0 7.0 Q-8.65 5.65 -7.4 4.6 L-4.95 2.75 Q-3.45 1.55 -3.6 -0.35 -3.7 -1.4 -4.6 -3.85 -5.5 -6.2 -5.5 -7.45 -5.5 -9.4 -3.75 -10.85 -2.05 -12.2 0.0 -11.6 L1.8 -10.95 M6.1 -9.05 Q5.85 -10.7 4.75 -12.2 2.65 -15.15 -1.25 -14.25 L-0.2 -14.65 2.2 -14.9 Q5.7 -14.45 6.1 -9.05 M15.95 17.6 Q15.55 19.1 15.6 20.45 14.85 19.35 14.65 17.2 L14.6 16.55 15.1 16.1 16.7 14.45 Q15.8 15.75 15.85 17.05 L15.95 17.6 M-1.2 5.8 Q-1.1 4.8 -0.65 3.75 L-0.25 2.95 Q-0.85 5.35 0.0 8.55 L1.0 11.2 Q-1.65 9.05 -1.2 5.8 M15.55 -9.15 L15.3 -9.4 Q17.4 -7.8 16.45 -5.55 15.95 -4.4 15.05 -3.6 16.3 -6.55 15.95 -8.25 L15.55 -9.15 M-11.55 10.3 L-12.0 9.4 -12.8 7.4 Q-13.25 5.55 -12.4 4.3 L-11.5 3.15 -10.4 1.75 Q-9.6 0.65 -10.3 -0.85 L-10.85 -2.1 -11.1 -3.6 Q-11.0 -5.3 -10.05 -6.4 -9.15 -7.5 -7.55 -7.9 -8.65 -7.6 -8.65 -4.9 -8.65 -2.4 -8.15 -1.35 L-7.75 -0.45 -7.9 -0.55 Q-7.4 1.3 -8.9 2.65 L-10.25 3.7 -11.5 5.0 Q-12.3 6.1 -12.0 8.15 L-11.8 9.0 -11.55 10.3 M-18.45 0.8 Q-18.95 1.25 -18.9 2.0 -18.85 2.65 -18.25 3.15 L-17.0 3.75 Q-16.25 4.1 -16.1 4.35 -15.8 4.75 -16.25 5.35 L-17.0 6.0 -17.75 6.4 Q-18.6 6.9 -18.6 8.05 L-18.15 9.8 -17.0 11.25 Q-18.15 11.4 -19.1 10.1 -19.9 8.95 -19.9 7.75 -19.95 7.05 -19.1 5.85 -18.4 4.8 -18.65 4.2 -18.8 3.75 -19.3 3.35 L-20.15 2.8 Q-21.1 2.05 -20.6 1.0 L-19.7 -0.2 -18.45 -1.0 Q-17.0 -2.0 -16.75 -3.4 L-16.75 -1.75 Q-16.8 -0.8 -17.4 -0.05 L-17.9 0.45 -18.45 0.8 M-14.6 -3.9 Q-15.65 -5.7 -14.9 -7.3 -14.15 -8.7 -12.1 -9.35 -13.55 -8.85 -13.85 -6.8 -14.1 -4.8 -13.2 -3.6 L-12.45 -2.55 Q-12.1 -2.0 -12.4 -1.65 L-13.5 -0.2 Q-14.0 0.75 -13.85 1.55 -13.65 2.45 -12.7 2.4 L-14.65 2.1 Q-15.35 1.7 -15.45 0.95 -15.55 0.2 -15.05 -0.5 -14.55 -1.35 -13.65 -1.85 L-14.0 -2.9 -14.6 -3.9 M-5.55 7.85 L-5.0 7.3 Q-5.9 8.95 -5.3 12.55 L-4.5 15.8 Q-7.45 12.2 -6.5 9.4 -6.2 8.55 -5.55 7.85 M-11.75 18.0 Q-11.25 16.1 -9.5 14.85 -10.3 16.0 -10.3 17.2 L-9.95 19.65 Q-9.8 21.2 -10.25 22.85 L-11.3 25.4 -11.4 25.5 -11.3 25.35 Q-10.7 24.25 -10.65 22.3 L-10.8 18.9 -11.4 21.05 Q-11.75 22.3 -12.4 22.9 L-12.4 21.0 -12.35 20.75 -12.15 19.75 -11.75 18.0 M-12.9 20.65 L-13.6 22.05 Q-13.05 20.85 -13.0 19.5 L-12.95 19.75 -12.75 20.4 -12.9 20.65" fill="#000000" fill-opacity="0.2" fill-rule="evenodd" stroke="none"/>
    <path d="M-15.15 25.4 Q-14.1 25.15 -13.55 24.3 -14.0 25.05 -14.85 25.35 L-15.15 25.4" fill="#7a4a38" fill-rule="evenodd" stroke="none"/>
    <path d="M19.65 -6.7 L18.65 -8.75 17.7 -10.45 Q16.5 -12.15 14.3 -12.9 L11.35 -13.35 Q9.65 -14.45 7.9 -14.65 L5.25 -14.45 Q2.65 -16.95 -1.85 -17.1 -5.8 -17.25 -9.55 -15.6 -11.6 -14.65 -13.3 -13.2 -14.95 -11.8 -16.35 -9.8 L-17.35 -7.95 -18.5 -5.8 Q-19.95 -3.35 -21.7 -3.4 L-21.2 -2.5 -20.6 -1.5 -21.65 0.1 -22.65 1.8 -23.15 4.05 -23.25 6.35 Q-23.3 8.2 -22.55 9.15 L-20.6 11.0 Q-19.9 11.75 -19.8 12.8 -19.75 13.85 -20.2 14.75 -20.9 15.6 -21.75 15.8 M-18.4 16.8 L-18.3 17.5 -18.1 18.35 -17.7 19.5 -17.05 21.15 Q-16.2 22.75 -16.2 23.55 L-16.3 24.2 -16.35 24.35 Q-16.65 24.95 -17.65 25.35 M-12.25 26.5 L-13.35 27.75 -13.4 27.8 -13.6 28.0 -14.5 29.05 -14.3 29.2 -14.15 29.3 -14.0 29.4 M19.1 27.1 L19.2 26.95 19.45 26.65 18.25 26.7 Q17.65 26.35 17.35 25.6 16.9 24.4 17.9 22.15 L18.65 20.4 Q18.95 19.35 18.85 18.6 L19.75 19.45 19.8 19.45 19.9 19.55 20.0 19.6 20.25 19.75 20.6 19.9 20.65 19.9 Q21.9 20.2 22.65 19.4 21.25 19.0 20.9 17.7 20.65 16.65 21.15 15.35 L22.0 12.8 Q22.25 11.7 21.95 10.2 L21.9 9.5 21.85 7.85 21.9 7.95 21.7 4.8 Q21.35 2.85 20.3 1.95 20.65 1.15 20.6 0.15 L20.6 -1.1 18.6 -0.95 Q17.8 -1.45 17.65 -2.55 L18.05 -4.35 18.2 -6.05 18.1 -7.35 M13.0 25.85 Q13.85 27.9 16.0 28.2 17.85 28.35 19.1 27.1 M10.0 27.3 Q10.1 28.0 10.7 28.55 11.3 29.15 12.1 29.45 14.0 30.15 15.0 29.05 M-9.35 30.85 L-4.75 30.75 -2.3 30.25 Q-1.05 29.75 -0.45 28.85 L-0.7 30.0 -0.95 31.2 Q0.45 30.85 1.5 29.7 1.6 30.9 1.1 31.7 2.15 31.9 3.15 31.15 L4.65 29.55 Q4.8 30.45 3.9 31.25 5.6 31.2 6.75 30.45 8.0 29.75 8.5 28.35 M-13.95 29.4 Q-12.55 30.2 -10.1 30.1 -7.25 30.0 -6.05 28.8" fill="none" stroke="#000000" stroke-linecap="square" stroke-linejoin="round" stroke-opacity="0.6" stroke-width="1.0"/>
    <path d="M-21.75 15.8 L-21.15 15.85 Q-21.7 16.3 -22.4 16.45 L-20.85 16.45 -20.2 16.4 -20.0 16.35 -19.35 16.1 -20.0 17.25 -20.2 17.5 -20.45 17.7 Q-21.1 18.3 -22.0 18.4 L-20.2 18.25 -20.0 18.15 -18.45 16.85 -18.4 16.8 M-17.65 25.35 L-16.35 25.5 -15.6 25.5 -15.35 25.45 -15.15 25.4 -14.85 25.35 Q-14.0 25.05 -13.55 24.3 L-14.15 25.85 -15.35 27.1 -13.75 26.95 Q-12.8 26.9 -12.25 26.5 M18.1 -7.35 L18.65 -7.15 19.65 -5.9 18.9 -7.65 19.65 -6.7 M15.0 29.05 Q13.75 29.0 13.35 27.95 L13.15 26.9 13.0 25.85 M8.5 28.35 Q8.75 29.25 9.4 29.95 10.15 30.65 11.0 30.6 10.35 29.95 10.15 29.05 10.0 28.4 10.0 27.3 M-22.0 15.8 L-21.75 15.8 M-6.05 28.8 L-7.5 30.0 -9.35 30.85" fill="none" stroke="#000000" stroke-linecap="square" stroke-linejoin="round" stroke-opacity="0.4" stroke-width="1.0"/>
  </g>
</svg>
