<?xml version="1.0" encoding="UTF-8" standalone="no"?>
<svg xmlns:xlink="http://www.w3.org/1999/xlink" height="56.2px" width="39.4px" xmlns="http://www.w3.org/2000/svg">
  <g transform="matrix(1.0, 0.0, 0.0, 1.0, 20.3, 15.55)">
    <path d="M-14.3 -4.45 L-16.25 0.3 Q-18.75 8.15 -16.25 14.95 -16.65 11.55 -16.45 7.25 -16.15 -0.75 -13.75 -5.4 L-14.3 -4.45 M-17.85 18.35 Q-18.6 16.75 -19.15 14.2 -20.2 9.15 -19.05 4.65 -16.9 -3.5 -13.8 -8.05 -8.8 -15.3 -0.85 -14.85 3.75 -14.6 6.0 -13.0 7.15 -12.15 7.35 -11.4 L7.7 -12.0 Q8.15 -12.6 8.85 -12.6 9.3 -12.6 10.85 -10.95 12.6 -9.1 14.2 -6.5 18.7 0.8 18.45 8.3 18.2 15.65 15.0 21.8 13.45 24.9 11.9 26.5 L12.1 27.1 12.65 28.3 Q13.75 30.2 15.25 30.6 14.5 30.5 13.6 30.0 11.8 28.95 10.95 26.95 L11.05 27.7 11.5 29.75 Q12.4 33.05 14.15 35.5 L12.3 32.85 Q10.35 29.8 10.05 27.9 L10.1 28.95 10.4 31.55 Q10.8 33.85 11.5 35.4 L11.1 34.7 Q9.9 32.2 9.6 27.55 9.4 24.55 9.6 20.1 L8.05 24.05 Q7.15 26.5 6.25 27.85 L6.25 25.8 6.2 23.75 4.95 26.3 3.3 28.6 2.95 22.35 Q2.65 18.85 2.05 16.1 2.05 19.2 1.15 23.05 L-0.2 27.6 -1.0 29.75 -1.5 27.6 -1.95 25.1 Q-2.5 21.95 -3.05 20.45 -2.9 22.15 -3.4 24.0 -3.95 26.05 -5.05 27.05 L-5.65 24.0 Q-5.95 22.05 -6.4 20.95 -6.7 21.45 -7.2 23.65 -7.6 25.4 -8.35 26.15 L-8.8 23.55 Q-8.9 21.85 -9.35 21.05 L-9.0 25.35 -10.05 22.25 -10.85 19.5 -10.8 24.85 -12.0 21.7 Q-12.15 19.15 -13.0 16.2 -14.7 10.3 -15.0 7.3 -15.45 3.3 -14.2 -0.3 L-14.6 0.75 -15.4 3.65 Q-16.4 8.35 -15.4 12.2 L-13.75 18.55 -13.75 18.6 -13.25 20.6 -12.95 22.15 -12.85 24.25 Q-12.8 28.8 -13.3 30.35 -13.65 31.45 -15.1 33.3 L-15.2 33.5 -14.55 31.5 Q-13.4 27.3 -13.95 23.95 -14.55 20.6 -15.8 17.4 L-16.9 14.8 -16.6 17.55 Q-16.2 20.3 -15.7 21.65 L-16.85 18.35 Q-18.15 14.25 -18.25 11.45 L-18.3 14.2 Q-18.25 17.15 -17.85 18.35 M1.25 -5.35 L2.05 -6.9 Q-4.1 -0.4 -3.45 9.7 -3.25 12.85 -2.35 15.95 L-1.55 18.5 Q-2.65 7.6 -0.4 -0.7 0.3 -3.35 1.25 -5.35 M14.15 -2.4 Q13.1 -5.2 11.55 -7.55 L10.15 -9.35 Q13.7 -3.6 14.4 7.25 14.75 12.7 14.35 17.0 17.55 6.6 14.15 -2.4 M10.4 -5.5 L9.55 -6.9 Q11.45 -1.55 11.7 6.55 11.85 10.55 11.65 13.5 13.85 5.4 11.95 -1.6 11.35 -3.75 10.4 -5.5" fill="#ffffff" fill-opacity="0.0" fill-rule="evenodd" stroke="none"/>
    <path d="M-14.3 -4.45 L-13.75 -5.4 Q-16.15 -0.75 -16.45 7.25 -16.65 11.55 -16.25 14.95 -18.75 8.15 -16.25 0.3 L-14.3 -4.45 M11.5 35.4 L12.0 36.35 12.6 37.1 12.55 37.1 11.2 35.65 10.55 34.9 Q9.45 33.5 9.0 32.3 L9.0 32.5 Q9.4 34.95 10.35 37.6 L10.5 37.95 Q9.05 36.85 8.35 35.0 L7.15 31.5 6.8 33.3 6.6 35.35 Q6.25 37.8 5.2 38.75 L4.1 35.3 2.75 31.9 Q2.1 32.7 1.2 34.2 L0.35 35.55 -0.3 36.55 Q-2.15 39.2 -4.6 40.0 -4.65 39.2 -4.2 38.2 L-3.45 36.55 Q-3.15 35.65 -3.1 34.1 L-2.9 31.65 Q-3.4 33.3 -5.4 34.9 -7.3 36.45 -9.0 36.7 L-9.0 36.35 -8.9 35.2 -8.6 34.3 -8.45 33.85 -8.4 33.7 -8.3 33.45 -8.2 33.25 -8.15 33.15 -7.9 32.45 -7.7 31.9 -7.5 31.35 -8.15 32.05 -9.05 32.85 -9.05 32.8 -10.25 33.8 -11.15 34.4 -13.4 35.9 Q-12.8 34.45 -12.35 31.9 L-11.55 27.9 -11.9 28.8 -12.75 30.95 Q-14.25 34.2 -15.85 35.1 L-15.2 33.5 -15.1 33.3 Q-13.65 31.45 -13.3 30.35 -12.8 28.8 -12.85 24.25 L-12.95 22.15 Q-12.4 25.15 -12.6 26.75 -12.2 25.85 -12.05 24.05 L-12.0 21.7 -10.8 24.85 -10.85 19.5 -10.05 22.25 -9.0 25.35 -9.35 21.05 Q-8.9 21.85 -8.8 23.55 L-8.35 26.15 Q-7.6 25.4 -7.2 23.65 -6.7 21.45 -6.4 20.95 -5.95 22.05 -5.65 24.0 L-5.05 27.05 Q-3.95 26.05 -3.4 24.0 -2.9 22.15 -3.05 20.45 -2.5 21.95 -1.95 25.1 L-1.5 27.6 -1.0 29.75 -0.2 27.6 1.15 23.05 Q2.05 19.2 2.05 16.1 2.65 18.85 2.95 22.35 L3.3 28.6 4.95 26.3 6.2 23.75 6.25 25.8 6.25 27.85 Q7.15 26.5 8.05 24.05 L9.6 20.1 Q9.4 24.55 9.6 27.55 9.9 32.2 11.1 34.7 L11.5 35.4 M1.25 -5.35 Q0.3 -3.35 -0.4 -0.7 -2.65 7.6 -1.55 18.5 L-2.35 15.95 Q-3.25 12.85 -3.45 9.7 -4.1 -0.4 2.05 -6.9 L1.25 -5.35 M10.4 -5.5 Q11.35 -3.75 11.95 -1.6 13.85 5.4 11.65 13.5 11.85 10.55 11.7 6.55 11.45 -1.55 9.55 -6.9 L10.4 -5.5" fill="#000000" fill-opacity="0.2" fill-rule="evenodd" stroke="none"/>
    <path d="M14.15 -2.4 Q17.55 6.6 14.35 17.0 14.75 12.7 14.4 7.25 13.7 -3.6 10.15 -9.35 L11.55 -7.55 Q13.1 -5.2 14.15 -2.4 M-12.95 22.15 L-13.25 20.6 -13.75 18.6 -13.75 18.55 -15.4 12.2 Q-16.4 8.35 -15.4 3.65 L-14.6 0.75 -14.2 -0.3 Q-15.45 3.3 -15.0 7.3 -14.7 10.3 -13.0 16.2 -12.15 19.15 -12.0 21.7 L-12.05 24.05 Q-12.2 25.85 -12.6 26.75 -12.4 25.15 -12.95 22.15" fill="#ffffff" fill-opacity="0.2" fill-rule="evenodd" stroke="none"/>
    <path d="M-8.2 33.25 L-7.9 32.45 -8.15 33.15 -8.2 33.25" fill="#945c47" fill-rule="evenodd" stroke="none"/>
    <path d="M-17.85 18.35 Q-18.6 16.75 -19.15 14.2 -20.2 9.15 -19.05 4.65 -16.9 -3.5 -13.8 -8.05 -8.8 -15.3 -0.85 -14.85 3.75 -14.6 6.0 -13.0 7.15 -12.15 7.35 -11.4 L7.7 -12.0 Q8.15 -12.6 8.85 -12.6 9.3 -12.6 10.85 -10.95 12.6 -9.1 14.2 -6.5 18.7 0.8 18.45 8.3 18.2 15.65 15.0 21.8 13.45 24.9 11.9 26.5 L12.1 27.1 12.65 28.3 Q13.75 30.2 15.25 30.6 M-15.85 35.1 L-15.2 33.5 -14.55 31.5 Q-13.4 27.3 -13.95 23.95 -14.55 20.6 -15.8 17.4 L-16.9 14.8" fill="none" stroke="#000000" stroke-linecap="square" stroke-linejoin="round" stroke-opacity="0.6" stroke-width="1.0"/>
    <path d="M15.25 30.6 Q14.5 30.5 13.6 30.0 11.8 28.95 10.95 26.95 L11.05 27.7 11.5 29.75 Q12.4 33.05 14.15 35.5 L12.3 32.85 Q10.35 29.8 10.05 27.9 L10.1 28.95 10.4 31.55 Q10.8 33.85 11.5 35.4 L12.0 36.35 12.6 37.1 12.55 37.1 11.2 35.65 10.55 34.9 Q9.45 33.5 9.0 32.3 L9.0 32.5 Q9.4 34.95 10.35 37.6 L10.5 37.95 Q9.05 36.85 8.35 35.0 L7.15 31.5 6.8 33.3 6.6 35.35 Q6.25 37.8 5.2 38.75 L4.1 35.3 2.75 31.9 Q2.1 32.7 1.2 34.2 L0.35 35.55 -0.3 36.55 Q-2.15 39.2 -4.6 40.0 -4.65 39.2 -4.2 38.2 L-3.45 36.55 Q-3.15 35.65 -3.1 34.1 L-2.9 31.65 Q-3.4 33.3 -5.4 34.9 -7.3 36.45 -9.0 36.7 L-9.0 36.35 -8.9 35.2 -8.6 34.3 -8.45 33.85 -8.4 33.7 -8.3 33.45 -8.2 33.25 -7.9 32.45 -7.7 31.9 -7.5 31.35 -8.15 32.05 -9.05 32.85 -9.05 32.8 -10.25 33.8 -11.15 34.4 -13.4 35.9 Q-12.8 34.45 -12.35 31.9 L-11.55 27.9 -11.9 28.8 -12.75 30.95 Q-14.25 34.2 -15.85 35.1 M-16.9 14.8 L-16.6 17.55 Q-16.2 20.3 -15.7 21.65 L-16.85 18.35 Q-18.15 14.25 -18.25 11.45 L-18.3 14.2 Q-18.25 17.15 -17.85 18.35 Z" fill="none" stroke="#000000" stroke-linecap="square" stroke-linejoin="round" stroke-opacity="0.4" stroke-width="1.0"/>
  </g>
</svg>
