<?xml version="1.0" encoding="UTF-8" standalone="no"?>
<svg xmlns:xlink="http://www.w3.org/1999/xlink" height="72.05px" width="51.95px" xmlns="http://www.w3.org/2000/svg">
  <g transform="matrix(1.0, 0.0, 0.0, 1.0, 27.2, 14.05)">
    <path d="M8.85 -1.05 L9.55 -0.3 11.2 1.85 Q13.8 5.55 15.25 9.5 20.0 22.15 11.7 32.5 14.35 30.0 16.6 25.8 21.0 17.4 18.7 8.95 17.95 6.1 15.5 2.6 10.6 -4.3 1.9 -7.15 L8.85 -1.05 M0.8 -12.05 Q8.3 -10.3 14.15 -1.55 17.05 2.85 18.5 6.85 15.55 -5.45 7.9 -10.0 5.5 -11.4 2.9 -11.85 L1.35 -12.05 0.8 -12.05 M11.2 9.9 L12.85 12.4 Q15.3 16.55 15.2 20.05 15.45 18.05 15.05 15.45 14.15 10.2 10.6 7.2 8.75 5.65 3.95 2.15 0.8 -0.2 -1.6 -2.8 L-0.95 -1.9 1.05 0.65 Q4.8 4.9 10.4 8.95 L11.2 9.9 M-23.55 41.15 L-22.85 40.25 Q-22.25 39.1 -22.5 37.0 L-22.8 33.6 Q-22.65 32.25 -21.25 30.2 -19.85 28.05 -19.65 26.85 -19.35 25.2 -20.3 23.1 L-22.0 19.6 Q-23.15 16.5 -22.2 11.3 L-21.05 5.4 Q-20.25 2.05 -19.05 -0.15 -18.05 -5.3 -13.9 -8.8 -9.5 -12.6 -3.6 -12.65 L-2.05 -13.3 -1.35 -13.45 Q7.3 -14.25 12.85 -8.65 18.2 -3.2 19.85 7.6 21.65 13.4 21.95 18.25 22.3 24.25 20.35 28.65 L19.9 29.6 Q19.4 30.75 19.2 31.95 18.5 35.8 20.75 38.5 23.95 42.25 24.25 44.55 24.55 47.45 20.95 49.65 22.95 47.15 23.1 45.45 23.25 43.45 21.8 41.85 20.6 40.5 18.55 39.6 L15.55 38.5 12.7 37.4 Q9.55 36.0 7.95 33.55 L6.65 31.15 5.4 28.7 3.85 26.8 Q2.65 25.4 2.6 25.0 L2.9 29.7 Q2.95 32.4 2.55 34.35 L1.8 36.6 0.85 38.8 Q-0.25 41.5 0.0 43.35 -1.8 41.25 -2.15 38.1 -2.25 34.4 -2.65 32.45 L-3.9 28.6 Q-4.75 26.15 -4.7 24.95 -5.2 30.7 -7.55 35.7 -8.75 38.25 -9.8 39.6 -10.4 35.95 -10.05 32.0 L-9.6 28.85 Q-10.6 29.85 -11.3 32.5 L-11.8 34.95 Q-12.95 31.9 -12.9 28.0 L-12.75 25.65 -12.65 24.75 Q-13.55 25.9 -14.2 29.0 L-14.7 31.9 -14.55 35.75 Q-14.6 37.7 -14.95 39.0 -15.7 42.05 -19.15 44.1 -20.8 45.1 -22.4 44.7 -23.9 44.35 -25.1 42.8 L-26.55 39.75 Q-25.75 41.1 -24.9 41.4 L-23.7 41.25 -24.35 41.7 -23.65 41.7 -22.1 41.45 Q-19.8 40.75 -19.5 38.65 -19.35 37.55 -19.5 36.65 L-19.8 35.25 Q-20.1 33.65 -19.2 31.6 L-19.55 31.85 -20.3 32.7 Q-21.45 34.15 -21.45 36.1 L-21.35 37.85 Q-21.25 38.6 -21.4 39.0 -21.6 39.7 -23.55 41.15 M-14.2 -1.25 Q-15.1 0.35 -15.35 1.5 -16.05 4.5 -15.65 7.45 -15.25 10.55 -13.7 13.1 -15.15 10.5 -14.75 5.2 L-14.0 0.2 -12.95 -3.8 -14.2 -1.25 M-9.9 -1.75 Q-12.25 5.75 -8.55 14.2 -10.7 8.3 -8.75 -0.25 -8.05 -3.35 -6.9 -6.15 -6.0 -8.5 -5.3 -9.4 L-6.8 -7.6 -7.9 -6.1 Q-9.15 -4.1 -9.9 -1.75 M-19.1 7.65 L-19.55 9.25 Q-20.1 11.3 -20.3 13.25 -20.95 19.55 -18.2 22.9 -18.95 21.7 -19.45 19.2 -20.45 14.2 -19.1 7.65" fill="#ffffff" fill-opacity="0.0" fill-rule="evenodd" stroke="none"/>
    <path d="M0.8 -12.05 L1.35 -12.05 2.9 -11.85 Q5.5 -11.4 7.9 -10.0 15.55 -5.45 18.5 6.85 17.05 2.85 14.15 -1.55 8.3 -10.3 0.8 -12.05 M11.2 9.9 L10.4 8.95 Q4.8 4.9 1.05 0.65 L-0.95 -1.9 -1.6 -2.8 Q0.8 -0.2 3.95 2.15 8.75 5.65 10.6 7.2 14.15 10.2 15.05 15.45 15.45 18.05 15.2 20.05 15.3 16.55 12.85 12.4 L11.2 9.9 M-19.1 7.65 Q-20.45 14.2 -19.45 19.2 -18.95 21.7 -18.2 22.9 -20.95 19.55 -20.3 13.25 -20.1 11.3 -19.55 9.25 L-19.1 7.65" fill="#ffffff" fill-opacity="0.2" fill-rule="evenodd" stroke="none"/>
    <path d="M8.85 -1.05 L1.9 -7.15 Q10.6 -4.3 15.5 2.6 17.95 6.1 18.7 8.95 21.0 17.4 16.6 25.8 14.35 30.0 11.7 32.5 20.0 22.15 15.25 9.5 13.8 5.55 11.2 1.85 L9.55 -0.3 8.85 -1.05 M-23.55 41.15 Q-21.6 39.7 -21.4 39.0 -21.25 38.6 -21.35 37.85 L-21.45 36.1 Q-21.45 34.15 -20.3 32.7 L-19.55 31.85 -19.2 31.6 Q-20.1 33.65 -19.8 35.25 L-19.5 36.65 Q-19.35 37.55 -19.5 38.65 -19.8 40.75 -22.1 41.45 L-23.65 41.7 -24.35 41.7 -23.7 41.25 -23.65 41.2 -23.6 41.2 -23.55 41.15 M-26.55 39.75 L-25.1 42.8 Q-23.9 44.35 -22.4 44.7 -20.8 45.1 -19.15 44.1 -15.7 42.05 -14.95 39.0 -14.6 37.7 -14.55 35.75 L-14.7 31.9 -14.2 29.0 Q-13.55 25.9 -12.65 24.75 L-12.75 25.65 -12.9 28.0 Q-12.95 31.9 -11.8 34.95 L-11.3 32.5 Q-10.6 29.85 -9.6 28.85 L-10.05 32.0 Q-10.4 35.95 -9.8 39.6 -8.75 38.25 -7.55 35.7 -5.2 30.7 -4.7 24.95 -4.75 26.15 -3.9 28.6 L-2.65 32.45 Q-2.25 34.4 -2.15 38.1 -1.8 41.25 0.0 43.35 -0.25 41.5 0.85 38.8 L1.8 36.6 2.55 34.35 Q2.95 32.4 2.9 29.7 L2.6 25.0 Q2.65 25.4 3.85 26.8 L5.4 28.7 6.65 31.15 7.95 33.55 Q9.55 36.0 12.7 37.4 L15.55 38.5 18.55 39.6 Q20.6 40.5 21.8 41.85 23.25 43.45 23.1 45.45 22.95 47.15 20.95 49.65 L20.35 50.0 21.4 48.2 Q22.05 46.3 20.35 45.75 L14.75 43.75 Q10.15 41.75 7.45 39.0 L7.5 40.45 Q9.05 47.8 3.55 53.4 0.8 56.2 -2.25 57.5 -1.0 55.35 -1.4 52.65 L-1.8 51.0 -2.05 50.4 Q-5.25 46.35 -5.45 41.25 L-7.55 43.55 Q-8.95 44.9 -9.45 46.05 -9.75 46.7 -9.75 47.95 L-9.45 50.45 Q-8.6 53.55 -6.55 53.0 L-9.75 53.15 Q-11.25 52.3 -11.95 50.6 -12.6 49.0 -12.3 46.65 -11.95 43.8 -12.15 42.8 -12.05 44.95 -15.15 46.65 -16.4 47.35 -17.8 47.65 L-20.05 47.85 Q-21.35 47.55 -22.8 46.65 -24.2 45.75 -25.05 44.65 -25.8 43.7 -26.05 42.0 L-26.55 39.75 M-9.9 -1.75 Q-9.15 -4.1 -7.9 -6.1 L-6.8 -7.6 -5.3 -9.4 Q-6.0 -8.5 -6.9 -6.15 -8.05 -3.35 -8.75 -0.25 -10.7 8.3 -8.55 14.2 -12.25 5.75 -9.9 -1.75 M-14.2 -1.25 L-12.95 -3.8 -14.0 0.2 -14.75 5.2 Q-15.15 10.5 -13.7 13.1 -15.25 10.55 -15.65 7.45 -16.05 4.5 -15.35 1.5 -15.1 0.35 -14.2 -1.25" fill="#000000" fill-opacity="0.2" fill-rule="evenodd" stroke="none"/>
    <path d="M20.95 49.65 Q24.55 47.45 24.25 44.55 23.95 42.25 20.75 38.5 18.5 35.8 19.2 31.95 19.4 30.75 19.9 29.6 L20.35 28.65 Q22.3 24.25 21.95 18.25 21.65 13.4 19.85 7.6 18.2 -3.2 12.85 -8.65 7.3 -14.25 -1.35 -13.45 L-2.05 -13.3 -3.6 -12.65 Q-9.5 -12.6 -13.9 -8.8 -18.05 -5.3 -19.05 -0.15 -20.25 2.05 -21.05 5.4 L-22.2 11.3 Q-23.15 16.5 -22.0 19.6 L-20.3 23.1 Q-19.35 25.2 -19.65 26.85 -19.85 28.05 -21.25 30.2 -22.65 32.25 -22.8 33.6 L-22.5 37.0 Q-22.25 39.1 -22.85 40.25 L-23.55 41.15 -23.6 41.2 -23.65 41.2 -23.7 41.25 -24.9 41.4 Q-25.75 41.1 -26.55 39.75 L-26.6 39.6 -26.7 39.45 -26.65 39.5 -26.6 39.6 M20.95 49.65 L20.35 50.0 21.4 48.2 Q22.05 46.3 20.35 45.75 L14.75 43.75 Q10.15 41.75 7.45 39.0 L7.5 40.45 Q9.05 47.8 3.55 53.4 0.8 56.2 -2.25 57.5 -1.0 55.35 -1.4 52.65 L-1.8 51.0 -2.05 50.4 Q-5.25 46.35 -5.45 41.25 L-7.55 43.55 Q-8.95 44.9 -9.45 46.05 -9.75 46.7 -9.75 47.95 L-9.45 50.45 Q-8.6 53.55 -6.55 53.0 L-9.75 53.15 Q-11.25 52.3 -11.95 50.6 -12.6 49.0 -12.3 46.65 -11.95 43.8 -12.15 42.8 -12.05 44.95 -15.15 46.65 -16.4 47.35 -17.8 47.65 L-20.05 47.85 Q-21.35 47.55 -22.8 46.65 -24.2 45.75 -25.05 44.65 -25.8 43.7 -26.05 42.0 L-26.55 39.75" fill="none" stroke="#000000" stroke-linecap="round" stroke-linejoin="round" stroke-opacity="0.6" stroke-width="1.0"/>
  </g>
</svg>
