<?xml version="1.0" encoding="UTF-8" standalone="no"?>
<svg xmlns:xlink="http://www.w3.org/1999/xlink" height="53.6px" width="52.25px" xmlns="http://www.w3.org/2000/svg">
  <g transform="matrix(1.0, 0.0, 0.0, 1.0, 25.5, 15.0)">
    <path d="M-21.4 11.0 Q-21.05 10.85 -20.8 10.35 -20.25 9.05 -20.7 5.75 -21.2 1.75 -19.1 -2.55 L-17.55 -5.1 -16.85 -6.05 -14.8 -8.25 Q-13.5 -9.35 -12.3 -9.75 L-10.8 -10.15 -9.25 -10.25 Q-6.9 -13.1 -2.25 -14.0 L1.9 -14.3 Q8.1 -13.55 12.1 -10.6 15.5 -8.1 17.1 -4.2 18.45 -1.0 18.4 2.5 18.3 5.55 17.3 7.15 15.75 9.55 17.1 10.45 17.75 10.9 18.7 10.85 16.95 11.95 15.35 12.15 15.95 9.6 15.9 6.7 15.8 1.85 13.8 -1.95 14.7 -0.1 15.05 2.6 15.65 6.85 14.65 12.2 L13.25 17.6 14.2 17.5 Q16.1 17.6 18.8 19.8 20.2 20.9 21.1 22.65 L22.3 25.4 Q22.95 26.8 23.6 27.25 L26.1 27.3 25.0 27.85 24.95 27.75 23.1 27.85 Q21.0 27.25 19.55 23.65 L18.7 22.6 Q17.75 21.5 16.95 21.15 L17.7 22.1 Q18.45 23.2 18.7 24.25 18.9 25.05 19.45 26.0 L20.55 27.65 21.0 28.3 21.1 28.5 Q21.75 29.85 22.05 31.15 22.9 35.35 19.45 37.95 L20.0 36.0 20.0 36.15 19.95 36.6 19.9 36.85 Q20.6 34.75 19.9 33.6 19.05 32.25 15.8 30.85 12.6 29.45 11.4 26.5 L10.85 24.6 10.8 23.8 Q11.4 24.95 13.9 26.4 L16.35 27.6 Q13.45 25.45 12.1 20.65 L11.95 20.05 11.8 19.5 12.2 19.5 12.55 19.6 Q13.25 19.9 14.8 21.25 L16.55 22.9 Q15.7 20.65 13.5 18.95 L12.95 18.55 12.55 18.3 12.05 18.0 11.45 17.7 10.1 18.05 12.7 17.8 Q13.65 14.15 13.3 9.8 L12.7 5.65 12.25 4.0 Q13.2 8.55 11.0 17.65 11.25 15.75 10.4 12.05 L9.55 8.95 Q10.15 11.4 9.45 14.95 L8.55 18.2 Q7.6 13.8 4.8 9.7 L2.95 7.25 2.2 6.4 Q4.9 9.85 5.95 16.2 6.45 19.35 6.45 21.85 4.8 18.3 2.95 16.65 L1.85 15.85 1.45 15.65 Q3.35 17.45 3.85 20.45 L4.0 23.15 0.85 20.0 Q1.2 22.25 2.15 23.7 3.2 25.35 5.2 26.1 L7.2 26.3 Q5.2 26.95 2.9 25.6 L0.85 24.3 -1.35 24.2 -2.1 24.55 Q-0.95 22.85 0.05 20.45 1.3 15.05 1.5 8.7 1.9 -4.0 -3.35 -8.75 L-2.7 -7.65 Q-1.9 -6.05 -1.3 -3.45 0.65 4.95 0.05 20.45 L-4.65 23.9 Q-4.35 22.3 -3.65 20.5 -2.25 16.9 -0.5 15.75 -1.5 16.15 -2.8 17.05 -5.2 18.7 -6.7 20.9 L-6.9 20.3 Q-6.8 18.2 -6.3 15.7 -5.1 9.5 -2.4 6.05 L-5.25 9.9 Q-7.9 14.05 -8.95 18.0 L-8.75 18.1 -10.2 17.7 Q-11.15 18.1 -12.25 18.95 -14.45 20.65 -15.3 22.9 L-13.55 21.25 Q-11.65 19.55 -10.9 19.5 L-10.55 19.5 Q-11.85 25.2 -15.1 27.6 L-12.65 26.4 Q-10.15 24.95 -9.55 23.8 L-9.6 24.6 -10.15 26.5 Q-11.35 29.45 -14.55 30.85 -17.8 32.25 -18.6 33.6 -19.35 34.75 -18.65 36.85 L-18.7 36.6 -18.75 36.15 -18.75 36.0 -18.2 37.95 Q-21.65 35.35 -20.8 31.15 -20.5 29.85 -19.85 28.5 L-19.7 28.3 -19.3 27.65 -18.2 26.0 Q-17.65 25.05 -17.45 24.25 -17.2 23.2 -16.4 22.1 L-15.7 21.15 Q-16.5 21.5 -17.45 22.6 L-18.3 23.65 Q-19.75 27.25 -21.85 27.85 L-23.2 27.95 -23.7 27.75 -23.75 27.85 -24.3 27.6 -24.85 27.3 -22.35 27.25 Q-21.65 26.8 -21.05 25.4 L-19.85 22.65 Q-18.95 20.9 -17.55 19.8 -15.4 18.1 -13.8 17.65 L-14.0 17.0 -14.8 13.0 -15.3 9.8 -15.25 10.0 Q-15.5 8.5 -16.5 5.35 L-16.6 4.75 -16.65 4.95 -16.7 5.45 Q-17.15 8.35 -18.9 9.8 -20.0 10.75 -21.4 11.0 M0.05 -10.5 L1.6 -10.4 Q3.45 -10.15 5.15 -9.25 10.65 -6.45 12.6 1.45 12.25 -1.8 10.5 -4.95 7.0 -11.2 0.05 -10.5 M1.35 -7.65 Q4.85 -6.05 5.5 -0.4 5.85 2.4 5.5 4.9 6.9 -2.95 4.25 -6.05 3.45 -7.05 2.3 -7.45 L1.35 -7.65 M-8.65 -8.15 Q-14.25 -7.95 -15.5 -1.0 -16.15 2.45 -15.65 5.85 -15.8 -1.95 -12.25 -5.8 -10.45 -7.75 -8.65 -8.15 M-12.8 5.95 L-13.35 10.4 Q-13.65 14.35 -13.15 17.55 L-12.95 17.5 -11.8 17.65 -12.25 14.1 Q-13.0 7.25 -12.5 4.4 L-12.8 5.95 M-11.75 17.7 L-11.6 17.8 Q-10.5 17.55 -9.6 17.8 L-10.1 15.7 Q-10.85 12.25 -10.25 9.9 L-11.05 12.8 Q-11.75 15.85 -11.75 17.7" fill="#ffffff" fill-opacity="0.0" fill-rule="evenodd" stroke="none"/>
    <path d="M-19.3 27.65 L-19.7 28.3 -19.35 27.7 -19.3 27.65 M21.0 28.3 L20.55 27.65 20.6 27.7 21.0 28.3 M18.55 33.85 L18.65 33.85 18.75 33.9 18.55 33.85 M19.65 34.6 L19.75 34.7 19.75 34.75 19.85 34.9 20.0 35.4 20.0 35.7 19.75 34.75 19.65 34.6 M-17.05 10.45 L-17.05 10.4 -16.5 9.9 -16.25 9.6 -16.15 9.5 -16.0 9.25 -15.9 9.15 -15.9 9.2 -17.05 10.45 M-6.4 27.5 L-6.2 26.05 -6.35 27.2 -6.4 27.5 M-17.25 33.85 L-17.5 33.9 -17.4 33.85 -17.25 33.85 M-18.4 34.65 L-18.5 34.75 -18.6 35.0 -18.6 34.9 -18.5 34.75 -18.5 34.7 -18.4 34.65 M-18.7 35.25 L-18.75 35.65 -18.75 35.4 -18.7 35.25" fill="#89513e" fill-rule="evenodd" stroke="none"/>
    <path d="M20.45 27.45 L20.6 27.7 20.55 27.65 20.45 27.45 M-19.2 27.45 L-19.3 27.65 -19.35 27.7 -19.2 27.45" fill="#794635" fill-rule="evenodd" stroke="none"/>
    <path d="M0.05 -10.5 Q7.0 -11.2 10.5 -4.95 12.25 -1.8 12.6 1.45 10.65 -6.45 5.15 -9.25 3.45 -10.15 1.6 -10.4 L0.05 -10.5 M1.35 -7.65 L2.3 -7.45 Q3.45 -7.05 4.25 -6.05 6.9 -2.95 5.5 4.9 5.85 2.4 5.5 -0.4 4.85 -6.05 1.35 -7.65 M-8.65 -8.15 Q-10.45 -7.75 -12.25 -5.8 -15.8 -1.95 -15.65 5.85 -16.15 2.45 -15.5 -1.0 -14.25 -7.95 -8.65 -8.15" fill="#ffffff" fill-opacity="0.2" fill-rule="evenodd" stroke="none"/>
    <path d="M-21.4 11.0 Q-20.0 10.75 -18.9 9.8 -17.15 8.35 -16.7 5.45 L-16.65 4.95 -16.6 4.75 -16.5 5.35 Q-15.5 8.5 -15.25 10.0 L-15.3 9.8 Q-15.45 9.4 -15.75 9.25 L-15.9 9.2 -15.9 9.15 -16.0 9.25 -16.15 9.5 -16.25 9.6 -16.5 9.9 -17.05 10.4 -17.05 10.45 -17.7 10.85 -17.9 10.95 -18.95 11.25 -19.15 11.25 -19.85 11.3 -19.95 11.3 -20.7 11.3 -21.85 11.05 -21.4 11.0 M-23.75 27.85 L-23.7 27.75 -23.2 27.95 -21.85 27.85 Q-19.75 27.25 -18.3 23.65 L-17.45 22.6 Q-16.5 21.5 -15.7 21.15 L-16.4 22.1 Q-17.2 23.2 -17.45 24.25 -17.65 25.05 -18.2 26.0 L-19.3 27.65 -19.2 27.45 -20.3 28.1 -21.6 28.3 -22.4 28.2 -22.9 28.1 -23.0 28.1 -23.75 27.85 M-18.75 36.0 L-18.75 36.15 -18.7 36.6 -18.65 36.85 Q-19.35 34.75 -18.6 33.6 -17.8 32.25 -14.55 30.85 -11.35 29.45 -10.15 26.5 L-9.6 24.6 -9.55 23.8 Q-10.15 24.95 -12.65 26.4 L-15.1 27.6 Q-11.85 25.2 -10.55 19.5 L-10.9 19.5 Q-11.65 19.55 -13.55 21.25 L-15.3 22.9 Q-14.45 20.65 -12.25 18.95 -11.15 18.1 -10.2 17.7 L-8.75 18.1 -8.95 18.0 Q-7.9 14.05 -5.25 9.9 L-2.4 6.05 Q-5.1 9.5 -6.3 15.7 -6.8 18.2 -6.9 20.3 L-6.7 20.9 Q-5.2 18.7 -2.8 17.05 -1.5 16.15 -0.5 15.75 -2.25 16.9 -3.65 20.5 -4.35 22.3 -4.65 23.9 L0.05 20.45 Q0.65 4.95 -1.3 -3.45 -1.9 -6.05 -2.7 -7.65 L-3.35 -8.75 Q1.9 -4.0 1.5 8.7 1.3 15.05 0.05 20.45 -0.95 22.85 -2.1 24.55 L-3.5 25.6 -3.8 25.85 Q-4.95 26.8 -5.6 27.0 L-6.35 27.2 -6.2 26.05 -6.4 27.5 -9.15 31.5 -9.45 31.7 Q-10.95 32.6 -13.2 33.1 L-16.55 33.65 -17.25 33.85 -17.4 33.85 -17.5 33.9 -17.65 34.0 -17.9 34.15 -17.95 34.15 -18.4 34.65 -18.5 34.7 -18.5 34.75 -18.6 34.9 -18.6 35.0 -18.65 35.15 -18.7 35.25 -18.75 35.4 -18.75 35.65 -18.75 36.0 M7.2 26.3 L5.2 26.1 Q3.2 25.35 2.15 23.7 1.2 22.25 0.85 20.0 L4.0 23.15 3.85 20.45 Q3.35 17.45 1.45 15.65 L1.85 15.85 2.95 16.65 Q4.8 18.3 6.45 21.85 6.45 19.35 5.95 16.2 4.9 9.85 2.2 6.4 L2.95 7.25 4.8 9.7 Q7.6 13.8 8.55 18.2 L9.45 14.95 Q10.15 11.4 9.55 8.95 L10.4 12.05 Q11.25 15.75 11.0 17.65 13.2 8.55 12.25 4.0 L12.7 5.65 13.3 9.8 Q13.65 14.15 12.7 17.8 L10.1 18.05 11.45 17.7 12.05 18.0 12.55 18.3 12.95 18.55 13.5 18.95 Q15.7 20.65 16.55 22.9 L14.8 21.25 Q13.25 19.9 12.55 19.6 L12.2 19.5 11.8 19.5 11.95 20.05 12.1 20.65 Q13.45 25.45 16.35 27.6 L13.9 26.4 Q11.4 24.95 10.8 23.8 L10.85 24.6 11.4 26.5 Q12.6 29.45 15.8 30.85 19.05 32.25 19.9 33.6 20.6 34.75 19.9 36.85 L19.95 36.6 20.0 36.15 20.0 36.0 20.0 35.7 20.0 35.4 19.85 34.9 19.75 34.75 19.75 34.7 19.65 34.6 19.2 34.15 19.15 34.15 18.75 33.9 18.65 33.85 18.55 33.85 17.8 33.65 14.45 33.1 Q12.2 32.6 10.75 31.7 7.85 29.9 7.5 26.25 L7.2 26.3 M20.55 27.65 L19.45 26.0 Q18.9 25.05 18.7 24.25 18.45 23.2 17.7 22.1 L16.95 21.15 Q17.75 21.5 18.7 22.6 L19.55 23.65 Q21.0 27.25 23.1 27.85 L24.95 27.75 25.0 27.85 24.35 28.05 24.15 28.1 23.65 28.2 22.85 28.3 21.55 28.1 20.45 27.45 20.55 27.65 M14.65 12.2 Q15.65 6.85 15.05 2.6 14.7 -0.1 13.8 -1.95 15.8 1.85 15.9 6.7 15.95 9.6 15.35 12.15 L14.65 12.2 M-12.8 5.95 L-12.5 4.4 Q-13.0 7.25 -12.25 14.1 L-11.8 17.65 -12.95 17.5 -13.15 17.55 Q-13.65 14.35 -13.35 10.4 L-12.8 5.95 M-11.75 17.7 Q-11.75 15.85 -11.05 12.8 L-10.25 9.9 Q-10.85 12.25 -10.1 15.7 L-9.6 17.8 Q-10.5 17.55 -11.6 17.8 L-11.75 17.7" fill="#000000" fill-opacity="0.2" fill-rule="evenodd" stroke="none"/>
    <path d="M15.35 12.15 Q16.95 11.95 18.7 10.85 17.75 10.9 17.1 10.45 15.75 9.55 17.3 7.15 18.3 5.55 18.4 2.5 18.45 -1.0 17.1 -4.2 15.5 -8.1 12.1 -10.6 8.1 -13.55 1.9 -14.3 L-2.25 -14.0 Q-6.9 -13.1 -9.25 -10.25 L-10.8 -10.15 -12.3 -9.75 Q-13.5 -9.35 -14.8 -8.25 L-16.85 -6.05 -17.55 -5.1 -19.1 -2.55 Q-21.2 1.75 -20.7 5.75 -20.25 9.05 -20.8 10.35 -21.05 10.85 -21.4 11.0 L-21.85 11.05 -20.7 11.3 -19.95 11.3 -19.85 11.3 -19.15 11.25 -18.95 11.25 -17.9 10.95 -17.7 10.85 -17.05 10.45 -15.9 9.2 -15.75 9.25 Q-15.45 9.4 -15.3 9.8 L-14.8 13.0 -14.0 17.0 -13.8 17.65 Q-15.4 18.1 -17.55 19.8 -18.95 20.9 -19.85 22.65 L-21.05 25.4 Q-21.65 26.8 -22.35 27.25 L-24.85 27.3 -24.3 27.6 -23.75 27.85 -23.0 28.1 -22.9 28.1 -22.4 28.2 -21.6 28.3 -20.3 28.1 -19.2 27.45 -19.3 27.65 -19.7 28.3 -19.85 28.5 Q-20.5 29.85 -20.8 31.15 -21.65 35.35 -18.2 37.95 L-18.75 36.0 -18.75 35.65 -18.7 35.25 -18.65 35.15 -18.6 35.0 -18.5 34.75 -18.4 34.65 -17.95 34.15 -17.9 34.15 -17.65 34.0 -17.5 33.9 -17.25 33.85 -16.55 33.65 -13.2 33.1 Q-10.95 32.6 -9.45 31.7 L-9.15 31.5 -6.4 27.5 -6.35 27.2 -5.6 27.0 Q-4.95 26.8 -3.8 25.85 L-3.5 25.6 -2.1 24.55 -1.35 24.2 0.85 24.3 2.9 25.6 Q5.2 26.95 7.2 26.3 L7.5 26.25 Q7.85 29.9 10.75 31.7 12.2 32.6 14.45 33.1 L17.8 33.65 18.55 33.85 18.75 33.9 19.15 34.15 19.2 34.15 19.65 34.6 19.75 34.75 20.0 35.7 20.0 36.0 19.45 37.95 Q22.9 35.35 22.05 31.15 21.75 29.85 21.1 28.5 L21.0 28.3 20.55 27.65 20.45 27.45 21.55 28.1 22.85 28.3 23.65 28.2 24.15 28.1 24.35 28.05 25.0 27.85 26.1 27.3 23.6 27.25 Q22.95 26.8 22.3 25.4 L21.1 22.65 Q20.2 20.9 18.8 19.8 16.1 17.6 14.2 17.5 L13.25 17.6 14.65 12.2 15.35 12.15 Z" fill="none" stroke="#000000" stroke-linecap="square" stroke-linejoin="round" stroke-opacity="0.6" stroke-width="1.0"/>
  </g>
</svg>
