<?xml version="1.0" encoding="UTF-8" standalone="no"?>
<svg xmlns:xlink="http://www.w3.org/1999/xlink" height="42.75px" width="41.2px" xmlns="http://www.w3.org/2000/svg">
  <g transform="matrix(1.0, 0.0, 0.0, 1.0, 21.3, 16.65)">
    <path d="M4.1 -12.75 Q4.1 -14.1 3.55 -14.85 3.0 -15.6 1.7 -16.15 3.7 -15.95 4.95 -14.45 5.85 -13.4 6.45 -11.45 9.95 -13.05 12.4 -10.35 10.95 -11.4 9.85 -11.45 L7.5 -10.95 Q11.5 -9.6 14.15 -5.7 16.15 -2.8 17.1 1.05 17.8 6.05 19.4 9.35 18.1 9.1 17.4 8.55 17.15 14.45 15.55 17.4 L15.25 17.9 12.5 21.6 Q12.2 20.1 10.8 18.7 11.25 21.05 9.6 23.6 9.35 22.25 8.0 21.1 7.05 24.1 4.6 25.3 L3.8 23.25 2.5 21.4 Q2.25 23.6 0.2 25.3 -0.1 24.2 -1.2 22.75 L-1.8 22.0 Q-3.05 23.4 -2.8 25.6 -4.9 24.2 -6.5 22.35 L-7.6 20.9 Q-8.6 22.05 -8.0 24.4 -10.05 22.8 -11.1 20.3 -11.9 21.8 -11.3 24.2 L-13.7 22.05 -15.3 20.1 Q-15.95 19.25 -16.55 17.4 L-17.7 12.25 -19.05 13.35 -20.8 13.75 Q-19.05 11.65 -18.15 8.85 -17.6 6.95 -17.1 3.55 L-16.85 1.3 -16.3 -1.85 Q-15.35 -5.6 -11.5 -9.45 -8.65 -12.3 -3.3 -13.65 L0.4 -13.9 Q1.85 -13.7 4.1 -12.75" fill="#ffffff" fill-opacity="0.0" fill-rule="evenodd" stroke="none"/>
    <path d="M4.1 -12.75 Q1.85 -13.7 0.4 -13.9 L-3.3 -13.65 Q-8.65 -12.3 -11.5 -9.45 -15.35 -5.6 -16.3 -1.85 L-16.85 1.3 -17.1 3.55 Q-17.6 6.95 -18.15 8.85 -19.05 11.65 -20.8 13.75 L-19.05 13.35 -17.7 12.25 -16.55 17.4 Q-15.95 19.25 -15.3 20.1 L-13.7 22.05 -11.3 24.2 M-11.1 20.3 Q-10.05 22.8 -8.0 24.4 M-7.6 20.9 L-6.5 22.35 Q-4.9 24.2 -2.8 25.6 M-1.8 22.0 L-1.2 22.75 Q-0.1 24.2 0.2 25.3 2.25 23.6 2.5 21.4 M4.6 25.3 Q7.05 24.1 8.0 21.1 M9.6 23.6 Q11.25 21.05 10.8 18.7 M12.5 21.6 L15.25 17.9 15.55 17.4 Q17.15 14.45 17.4 8.55 18.1 9.1 19.4 9.35 17.8 6.05 17.1 1.05 16.15 -2.8 14.15 -5.7 11.5 -9.6 7.5 -10.95 M12.4 -10.35 Q9.95 -13.05 6.45 -11.45 5.85 -13.4 4.95 -14.45 3.7 -15.95 1.7 -16.15" fill="none" stroke="#000000" stroke-linecap="round" stroke-linejoin="round" stroke-opacity="0.6" stroke-width="1.0"/>
    <path d="M1.7 -16.15 Q3.0 -15.6 3.55 -14.85 4.1 -14.1 4.1 -12.75 M-11.3 24.2 Q-11.9 21.8 -11.1 20.3 M-8.0 24.4 Q-8.6 22.05 -7.6 20.9 M-2.8 25.6 Q-3.05 23.4 -1.8 22.0 M2.5 21.4 L3.8 23.25 4.6 25.3 M8.0 21.1 Q9.35 22.25 9.6 23.6 M10.8 18.7 Q12.2 20.1 12.5 21.6 M7.5 -10.95 L9.85 -11.45 Q10.95 -11.4 12.4 -10.35" fill="none" stroke="#000000" stroke-linecap="round" stroke-linejoin="round" stroke-opacity="0.6" stroke-width="1.0"/>
  </g>
</svg>
