<?xml version="1.0" encoding="UTF-8" standalone="no"?>
<svg xmlns:xlink="http://www.w3.org/1999/xlink" height="37.15px" width="33.65px" xmlns="http://www.w3.org/2000/svg">
  <g transform="matrix(1.0, 0.0, 0.0, 1.0, 16.1, 14.25)">
    <path d="M-6.75 -11.15 Q-5.9 -12.25 -4.45 -12.9 L-1.1 -13.55 1.35 -13.75 3.0 -13.7 5.35 -13.1 Q6.8 -12.45 7.65 -11.35 6.35 -11.6 6.35 -10.25 6.4 -8.95 7.55 -8.0 8.55 -7.2 10.6 -7.3 12.5 -7.35 12.65 -7.85 L15.1 -4.55 15.45 -3.85 Q16.4 -1.9 16.55 -0.25 16.65 1.35 17.0 2.95 17.3 4.5 14.45 10.8 L9.8 19.95 Q8.05 22.8 1.35 22.35 -5.4 21.9 -7.35 20.7 -9.3 19.5 -10.0 18.25 L-13.2 11.15 Q-15.75 5.25 -15.6 3.3 L-15.4 -0.4 Q-15.35 -1.8 -13.35 -5.65 L-11.75 -7.65 Q-11.6 -7.15 -9.7 -7.1 -7.65 -7.0 -6.65 -7.8 -5.5 -8.75 -5.45 -10.05 -5.45 -11.4 -6.75 -11.15" fill="#ffffff" fill-opacity="0.0" fill-rule="evenodd" stroke="none"/>
    <path d="M-6.75 -11.15 Q-5.9 -12.25 -4.45 -12.9 L-1.1 -13.55 1.35 -13.75 3.0 -13.7 5.35 -13.1 Q6.8 -12.45 7.65 -11.35 M12.65 -7.85 L15.1 -4.55 15.45 -3.85 Q16.4 -1.9 16.55 -0.25 16.65 1.35 17.0 2.95 17.3 4.5 14.45 10.8 L9.8 19.95 Q8.05 22.8 1.35 22.35 -5.4 21.9 -7.35 20.7 -9.3 19.5 -10.0 18.25 L-13.2 11.15 Q-15.75 5.25 -15.6 3.3 L-15.4 -0.4 Q-15.35 -1.8 -13.35 -5.65 L-11.75 -7.65" fill="none" stroke="#000000" stroke-linecap="round" stroke-linejoin="round" stroke-opacity="0.6" stroke-width="1.0"/>
    <path d="M7.65 -11.35 Q6.35 -11.6 6.35 -10.25 6.4 -8.95 7.55 -8.0 8.55 -7.2 10.6 -7.3 12.5 -7.35 12.65 -7.85 M-11.75 -7.65 Q-11.6 -7.15 -9.7 -7.1 -7.65 -7.0 -6.65 -7.8 -5.5 -8.75 -5.45 -10.05 -5.45 -11.4 -6.75 -11.15 Z" fill="none" stroke="#000000" stroke-linecap="round" stroke-linejoin="round" stroke-opacity="0.6" stroke-width="1.0"/>
  </g>
</svg>
