<?xml version="1.0" encoding="UTF-8" standalone="no"?>
<svg xmlns:xlink="http://www.w3.org/1999/xlink" height="30.15px" width="20.1px" xmlns="http://www.w3.org/2000/svg">
  <g transform="matrix(1.0, 0.0, 0.0, 1.0, 18.55, -8.95)">
    <path d="M-6.2 18.45 L-6.15 18.55 Q-5.5 25.2 -2.2 32.5 L-1.45 34.15 0.65 38.15 0.9 38.45 Q-1.4 36.1 -4.3 31.4 L-6.8 27.15 -1.6 37.15 -4.05 35.1 -7.45 30.8 -9.8 26.85 Q-12.6 21.85 -14.6 16.45 -16.0 12.75 -15.9 9.6 L-11.0 9.6 -6.2 18.45" fill="#000000" fill-opacity="0.2" fill-rule="evenodd" stroke="none"/>
    <path d="M-6.2 18.45 L-11.0 9.6 -6.3 9.6 -6.3 13.0 Q-6.5 15.65 -6.2 18.45 M-15.9 9.6 Q-16.0 12.75 -14.6 16.45 -12.6 21.85 -9.8 26.85 L-7.45 30.8 -4.05 35.1 Q-15.2 25.4 -17.45 14.0 -17.9 11.8 -17.9 9.6 L-15.9 9.6" fill="#ffffff" fill-opacity="0.0" fill-rule="evenodd" stroke="none"/>
    <path d="M-4.05 35.1 L-1.6 37.15 -6.8 27.15 -4.3 31.4 Q-1.4 36.1 0.9 38.45 L0.65 38.15 -1.45 34.15 -2.2 32.5 Q-5.5 25.2 -6.15 18.55 L-6.2 18.45 Q-6.5 15.65 -6.3 13.0 L-6.3 9.6 M-4.05 35.1 Q-15.2 25.4 -17.45 14.0 -17.9 11.8 -17.9 9.6" fill="none" stroke="#000000" stroke-linecap="square" stroke-linejoin="round" stroke-opacity="0.6" stroke-width="1.0"/>
  </g>
</svg>
