<?xml version="1.0" encoding="UTF-8" standalone="no"?>
<svg xmlns:xlink="http://www.w3.org/1999/xlink" height="13.55px" width="93.5px" xmlns="http://www.w3.org/2000/svg">
  <g transform="matrix(1.0, 0.0, 0.0, 1.0, 46.75, 15.4)">
    <path d="M46.1 -2.35 L45.95 -2.15 Q45.65 -1.85 45.25 -1.85 L44.85 -1.9 44.55 -2.15 44.4 -2.35 Q44.25 -2.55 44.25 -2.85 L43.95 -5.4 43.5 -6.7 42.5 -8.35 42.25 -8.7 41.05 -9.8 40.4 -10.3 40.1 -10.5 38.2 -11.45 37.55 -11.7 Q34.15 -12.9 29.2 -12.9 L26.1 -12.85 22.65 -12.65 15.8 -11.6 15.2 -11.45 Q13.2 -10.9 11.7 -10.15 L11.5 -10.05 11.3 -9.95 10.6 -9.55 10.55 -9.5 8.75 -8.05 8.2 -7.4 7.55 -6.4 Q6.95 -5.35 6.65 -4.05 L6.45 -2.85 6.25 -2.35 6.1 -2.15 5.65 -1.95 5.35 -1.95 Q4.95 -2.0 4.7 -2.3 L4.65 -2.35 Q4.4 -2.65 4.45 -3.05 L4.5 -3.3 Q2.25 -5.65 0.1 -5.7 -1.85 -5.75 -3.7 -3.95 L-4.2 -3.45 -4.2 -3.1 -4.45 -2.4 -4.5 -2.35 Q-4.8 -2.1 -5.15 -2.1 L-5.25 -2.1 Q-5.6 -2.1 -5.85 -2.35 L-5.9 -2.35 -6.2 -3.05 Q-6.25 -4.85 -7.1 -6.3 -8.15 -8.15 -10.5 -9.5 -12.0 -10.35 -13.9 -11.0 -16.75 -11.95 -20.55 -12.4 L-21.8 -12.55 -29.2 -12.9 -36.05 -12.15 -37.2 -11.8 -39.1 -11.05 -40.2 -10.45 -40.95 -9.95 -41.15 -9.75 -41.9 -9.1 -42.55 -8.4 -43.45 -7.05 -44.15 -4.85 -44.25 -3.5 -44.25 -3.1 -44.25 -2.85 -44.55 -2.4 -44.6 -2.35 -45.0 -2.1 -45.25 -2.1 -45.9 -2.35 -45.95 -2.4 -46.25 -3.1 -46.25 -3.5 Q-46.25 -8.25 -42.4 -11.3 -38.05 -14.9 -29.2 -14.9 -15.7 -14.9 -9.5 -11.25 -5.1 -8.7 -4.35 -4.7 -2.15 -6.8 0.1 -6.7 2.4 -6.75 4.7 -4.5 5.7 -8.85 9.55 -11.25 15.25 -14.9 29.2 -14.9 36.85 -14.9 41.15 -12.2 46.25 -9.05 46.25 -2.85 L46.1 -2.35" fill="#ffffff" fill-opacity="0.0" fill-rule="evenodd" stroke="none"/>
    <path d="M46.1 -2.35 L46.25 -2.85 Q46.25 -9.05 41.15 -12.2 36.85 -14.9 29.2 -14.9 15.25 -14.9 9.55 -11.25 5.7 -8.85 4.7 -4.5 2.4 -6.75 0.1 -6.7 -2.15 -6.8 -4.35 -4.7 -5.1 -8.7 -9.5 -11.25 -15.7 -14.9 -29.2 -14.9 -38.05 -14.9 -42.4 -11.3 -46.25 -8.25 -46.25 -3.5 L-46.25 -3.1 -45.95 -2.4" fill="none" stroke="#000000" stroke-linecap="round" stroke-linejoin="round" stroke-opacity="0.49803922" stroke-width="1.0"/>
  </g>
</svg>
