<?xml version="1.0" encoding="UTF-8" standalone="no"?>
<svg xmlns:xlink="http://www.w3.org/1999/xlink" height="62.95px" width="58.85px" xmlns="http://www.w3.org/2000/svg">
  <g transform="matrix(1.0, 0.0, 0.0, 1.0, 28.5, 14.45)">
    <path d="M-25.35 38.2 Q-26.1 37.45 -26.1 36.4 -26.1 35.75 -25.0 33.7 L-25.65 33.1 Q-26.4 32.2 -26.4 30.85 -26.4 29.55 -25.65 28.6 L-25.25 28.25 -26.3 27.55 Q-27.0 26.85 -27.0 25.9 -27.0 24.9 -26.3 24.2 -25.7 23.6 -24.9 23.55 L-24.9 23.3 Q-25.65 23.25 -26.2 22.7 -26.85 22.1 -26.85 21.2 L-26.55 20.25 -27.2 19.6 Q-28.0 18.55 -28.0 17.0 -28.0 15.5 -27.2 14.4 -26.55 13.65 -25.75 13.4 -25.55 12.55 -24.95 11.95 L-25.25 10.2 Q-25.25 8.0 -23.65 6.4 L-23.15 5.95 Q-23.25 5.4 -22.95 3.9 -22.6 2.35 -21.45 1.1 -20.35 -0.15 -19.25 -0.35 L-19.25 -0.65 Q-19.25 -1.7 -18.55 -2.5 L-17.65 -3.0 Q-17.75 -4.4 -16.55 -5.75 -15.4 -7.15 -13.5 -7.4 -12.95 -8.9 -11.5 -10.15 -10.15 -11.35 -8.3 -10.8 -8.4 -11.7 -6.85 -12.65 -5.4 -13.7 -2.5 -13.9 0.35 -14.1 2.15 -12.85 L2.8 -12.4 6.15 -12.9 Q8.45 -12.9 9.95 -11.95 L11.95 -10.4 Q12.9 -10.3 13.5 -9.7 14.2 -9.0 14.25 -8.05 15.15 -7.8 15.75 -7.2 16.65 -6.3 16.8 -5.15 L17.9 -5.05 Q18.85 -4.95 19.7 -3.85 20.55 -2.75 20.75 -1.55 L21.0 0.15 Q21.75 0.5 22.35 1.1 23.55 2.35 23.7 4.1 L24.45 4.7 Q26.25 6.5 26.25 9.05 L26.2 9.65 Q27.1 9.8 27.65 10.65 L28.5 12.8 Q28.8 14.05 27.9 15.0 28.25 15.75 28.25 16.65 L28.2 17.15 28.85 17.9 29.3 19.5 Q29.4 20.5 28.8 21.2 L27.45 21.95 27.65 22.1 Q28.6 23.1 28.6 24.5 L28.5 25.55 29.45 26.45 29.85 27.85 29.6 28.75 29.15 29.15 28.25 29.6 Q29.85 31.5 29.55 32.65 29.25 33.75 28.35 34.55 L26.85 35.55 Q28.75 38.05 27.15 38.7 25.55 39.25 25.15 39.6 L25.2 40.15 Q25.2 40.75 24.75 41.1 L23.6 41.5 Q23.1 41.6 22.75 41.25 22.35 40.9 22.3 40.55 L21.3 40.4 21.25 40.4 21.1 40.65 20.45 41.05 20.05 41.7 Q19.7 42.15 19.15 42.15 L18.55 42.0 Q18.45 42.6 18.0 43.05 17.5 43.6 16.75 43.6 16.0 43.6 15.45 43.05 L15.15 42.6 15.15 42.75 Q15.15 43.85 14.55 44.6 13.95 45.45 13.1 45.45 12.25 45.45 11.7 44.6 L11.5 44.4 10.3 44.6 9.4 44.5 Q9.15 45.35 8.5 46.05 7.3 47.15 5.7 47.15 4.05 47.15 2.95 46.05 L2.75 46.2 Q1.95 47.05 0.8 47.05 -0.05 47.05 -0.75 46.55 L-1.25 47.5 Q-1.75 48.0 -2.55 48.0 -3.3 48.0 -3.85 47.5 -4.4 46.95 -4.4 46.15 L-4.4 46.1 -4.8 46.1 Q-5.7 46.1 -6.25 45.55 L-6.35 45.45 Q-6.45 46.1 -7.0 46.6 -7.7 47.3 -8.7 47.3 -9.65 47.3 -10.35 46.6 L-10.95 45.55 -11.8 45.75 Q-12.65 45.75 -13.35 45.1 -13.8 44.6 -13.9 43.95 L-14.55 44.0 Q-15.95 44.0 -17.0 42.95 L-17.15 43.15 Q-17.6 43.6 -18.25 43.6 -18.95 43.6 -19.35 43.15 L-19.8 42.4 -20.85 42.7 Q-21.75 42.7 -22.35 42.1 -22.9 41.5 -22.9 40.75 L-23.4 41.05 -23.95 41.1 Q-24.55 41.1 -25.0 40.65 -25.45 40.2 -25.5 39.6 -25.6 38.85 -25.25 38.5 -25.2 38.35 -25.3 38.25 L-25.35 38.2" fill="#ffffff" fill-opacity="0.0" fill-rule="evenodd" stroke="none"/>
    <path d="M-25.35 38.2 Q-26.1 37.45 -26.1 36.4 -26.1 35.75 -25.0 33.7 L-25.65 33.1 Q-26.4 32.2 -26.4 30.85 -26.4 29.55 -25.65 28.6 L-25.25 28.25 -26.3 27.55 Q-27.0 26.85 -27.0 25.9 -27.0 24.9 -26.3 24.2 -25.7 23.6 -24.9 23.55 L-24.9 23.3 Q-25.65 23.25 -26.2 22.7 -26.85 22.1 -26.85 21.2 L-26.55 20.25 -27.2 19.6 Q-28.0 18.55 -28.0 17.0 -28.0 15.5 -27.2 14.4 -26.55 13.65 -25.75 13.4 -25.55 12.55 -24.95 11.95 L-25.25 10.2 Q-25.25 8.0 -23.65 6.4 L-23.15 5.95 Q-23.25 5.4 -22.95 3.9 -22.6 2.35 -21.45 1.1 -20.35 -0.15 -19.25 -0.35 L-19.25 -0.65 Q-19.25 -1.7 -18.55 -2.5 L-17.65 -3.0 Q-17.75 -4.4 -16.55 -5.75 -15.4 -7.15 -13.5 -7.4 -12.95 -8.9 -11.5 -10.15 -10.15 -11.35 -8.3 -10.8 -8.4 -11.7 -6.85 -12.65 -5.4 -13.7 -2.5 -13.9 0.35 -14.1 2.15 -12.85 L2.8 -12.4 6.15 -12.9 Q8.45 -12.9 9.95 -11.95 L11.95 -10.4 Q12.9 -10.3 13.5 -9.7 14.2 -9.0 14.25 -8.05 15.15 -7.8 15.75 -7.2 16.65 -6.3 16.8 -5.15 L17.9 -5.05 Q18.85 -4.95 19.7 -3.85 20.55 -2.75 20.75 -1.55 L21.0 0.15 Q21.75 0.5 22.35 1.1 23.55 2.35 23.7 4.1 L24.45 4.7 Q26.25 6.5 26.25 9.05 L26.2 9.65 Q27.1 9.8 27.65 10.65 L28.5 12.8 Q28.8 14.05 27.9 15.0 28.25 15.75 28.25 16.65 L28.2 17.15 28.85 17.9 29.3 19.5 Q29.4 20.5 28.8 21.2 L27.45 21.95 27.65 22.1 Q28.6 23.1 28.6 24.5 L28.5 25.55 29.45 26.45 29.85 27.85 29.6 28.75 29.15 29.15 28.25 29.6 Q29.85 31.5 29.55 32.65 29.25 33.75 28.35 34.55 L26.85 35.55 Q28.75 38.05 27.15 38.7 25.55 39.25 25.15 39.6 L25.2 40.15 Q25.2 40.75 24.75 41.1 L23.6 41.5 Q23.1 41.6 22.75 41.25 22.35 40.9 22.3 40.55 L21.3 40.4 21.25 40.4 21.1 40.65 20.45 41.05 20.05 41.7 Q19.7 42.15 19.15 42.15 L18.55 42.0 Q18.45 42.6 18.0 43.05 17.5 43.6 16.75 43.6 16.0 43.6 15.45 43.05 L15.15 42.6 15.15 42.75 Q15.15 43.85 14.55 44.6 13.95 45.45 13.1 45.45 12.25 45.45 11.7 44.6 L11.5 44.4 10.3 44.6 9.4 44.5 Q9.15 45.35 8.5 46.05 7.3 47.15 5.7 47.15 4.05 47.15 2.95 46.05 L2.75 46.2 Q1.95 47.05 0.8 47.05 -0.05 47.05 -0.75 46.55 L-1.25 47.5 Q-1.75 48.0 -2.55 48.0 -3.3 48.0 -3.85 47.5 -4.4 46.95 -4.4 46.15 L-4.4 46.1 -4.8 46.1 Q-5.7 46.1 -6.25 45.55 L-6.35 45.45 Q-6.45 46.1 -7.0 46.6 -7.7 47.3 -8.7 47.3 -9.65 47.3 -10.35 46.6 L-10.95 45.55 -11.8 45.75 Q-12.65 45.75 -13.35 45.1 -13.8 44.6 -13.9 43.95 L-14.55 44.0 Q-15.95 44.0 -17.0 42.95 L-17.15 43.15 Q-17.6 43.6 -18.25 43.6 -18.95 43.6 -19.35 43.15 L-19.8 42.4 -20.85 42.7 Q-21.75 42.7 -22.35 42.1 -22.9 41.5 -22.9 40.75 L-23.4 41.05 -23.95 41.1 Q-24.55 41.1 -25.0 40.65 -25.45 40.2 -25.5 39.6 -25.6 38.85 -25.25 38.5 L-25.35 38.2 -25.3 38.25 Q-25.2 38.35 -25.25 38.5" fill="none" stroke="#000000" stroke-linecap="round" stroke-linejoin="round" stroke-opacity="0.6" stroke-width="1.0"/>
  </g>
</svg>
