<?xml version="1.0" encoding="UTF-8" standalone="no"?>
<svg xmlns:xlink="http://www.w3.org/1999/xlink" height="37.8px" width="33.1px" xmlns="http://www.w3.org/2000/svg">
  <g transform="matrix(1.0, 0.0, 0.0, 1.0, 16.15, 12.35)">
    <path d="M1.15 -11.75 Q8.7 -11.2 13.0 -6.35 14.5 -4.65 15.55 -2.0 16.6 0.65 16.4 4.15 16.15 7.6 14.9 12.7 L14.85 12.85 Q14.25 15.3 10.65 20.7 7.9 25.35 1.35 24.9 -5.4 24.45 -7.35 23.25 -8.95 22.25 -10.45 19.65 -12.0 17.0 -12.4 15.75 L-13.5 12.65 -14.85 8.95 Q-16.1 5.2 -15.35 0.1 -14.6 -5.0 -10.7 -8.5 -6.25 -12.35 1.15 -11.75" fill="#ffffff" fill-opacity="0.0" fill-rule="evenodd" stroke="none"/>
    <path d="M1.15 -11.75 Q-6.25 -12.35 -10.7 -8.5 -14.6 -5.0 -15.35 0.1 -16.1 5.2 -14.85 8.95 L-13.5 12.65 -12.4 15.75 Q-12.0 17.0 -10.45 19.65 -8.95 22.25 -7.35 23.25 -5.4 24.45 1.35 24.9 7.9 25.35 10.65 20.7 14.25 15.3 14.85 12.85 L14.9 12.7 Q16.15 7.6 16.4 4.15 16.6 0.65 15.55 -2.0 14.5 -4.65 13.0 -6.35 8.7 -11.2 1.15 -11.75 Z" fill="none" stroke="#000000" stroke-linecap="round" stroke-linejoin="round" stroke-opacity="0.6" stroke-width="1.0"/>
  </g>
</svg>
