<?xml version="1.0" encoding="UTF-8" standalone="no"?>
<svg xmlns:xlink="http://www.w3.org/1999/xlink" height="40.05px" width="37.45px" xmlns="http://www.w3.org/2000/svg">
  <g transform="matrix(1.0, 0.0, 0.0, 1.0, 18.35, 11.7)">
    <path d="M-16.0 27.3 L-15.75 26.65 -15.7 26.0 -16.0 24.8 -16.25 23.55 -16.6 20.85 Q-16.7 19.25 -16.45 18.15 -16.05 16.6 -15.75 17.35 L-15.45 19.15 Q-15.4 19.9 -15.05 19.7 L-15.05 18.85 -14.75 15.5 -14.45 14.15 Q-14.0 -4.6 -0.2 -11.05 12.4 -6.0 15.5 15.5 L15.85 18.85 Q15.95 21.85 15.3 24.15 16.05 24.15 16.2 21.8 L16.35 19.85 Q16.45 18.85 16.65 18.65 17.25 19.4 17.2 21.4 L16.85 24.35 16.6 25.65 Q16.45 26.55 16.7 26.85 L17.05 27.05 16.95 27.2 16.45 27.55 16.05 27.7 Q15.85 27.7 15.7 27.55 L15.5 27.2 Q15.45 27.0 15.55 26.8 L16.0 25.75 Q15.35 27.0 14.5 27.6 L14.15 27.7 13.4 27.7 12.9 27.4 12.6 27.45 12.25 27.4 11.85 27.15 Q11.4 27.5 10.9 27.5 L10.4 27.4 10.05 27.15 10.05 27.2 9.25 27.3 9.15 27.3 8.85 27.25 8.25 27.2 8.2 27.15 7.85 27.4 7.25 27.5 6.1 27.15 5.65 27.4 4.85 27.4 Q4.6 27.7 4.25 27.7 L3.3 27.7 2.95 27.6 1.6 26.75 1.75 27.1 1.55 27.5 1.05 27.7 0.6 27.55 0.2 27.3 -1.25 27.2 -1.3 27.15 -1.6 27.4 -2.1 27.5 Q-2.6 27.5 -3.05 27.15 L-3.45 27.4 -4.1 27.4 -4.6 27.7 -5.4 27.7 -5.7 27.6 -6.8 26.75 -6.7 27.1 -6.85 27.5 -7.3 27.7 -7.65 27.55 -8.0 27.25 -8.4 27.3 -9.25 27.2 -9.3 27.15 -9.6 27.4 -10.1 27.5 -11.05 27.15 -11.45 27.4 -12.1 27.4 Q-12.3 27.7 -12.6 27.7 L-13.4 27.7 -13.7 27.6 Q-14.6 27.0 -15.2 25.8 L-14.8 26.75 -14.7 27.1 -14.85 27.5 -15.3 27.7 -15.65 27.55 -16.0 27.3 M15.35 20.9 L15.3 21.15 15.25 22.0 15.35 20.9 M9.25 27.3 L8.85 27.25 9.25 27.3" fill="#000000" fill-opacity="0.2" fill-rule="evenodd" stroke="none"/>
    <path d="M-16.0 27.3 L-16.15 27.2 -16.35 27.0 Q-18.3 23.3 -17.4 17.7 L-16.55 14.15 -16.0 12.6 -14.95 6.45 Q-14.0 0.45 -12.1 -3.5 -10.2 -7.45 -0.2 -11.05 -14.0 -4.6 -14.45 14.15 L-14.75 15.5 -15.05 18.85 -15.05 19.7 Q-15.4 19.9 -15.45 19.15 L-15.75 17.35 Q-16.05 16.6 -16.45 18.15 -16.7 19.25 -16.6 20.85 L-16.25 23.55 -16.0 24.8 -15.7 26.0 -15.75 26.65 -16.0 27.3 M-0.2 -11.05 Q11.7 -7.8 13.65 1.85 15.55 11.5 16.6 12.4 L16.75 12.6 17.3 14.15 18.15 17.7 Q19.1 23.3 17.1 27.0 L16.95 27.2 17.05 27.05 16.7 26.85 Q16.45 26.55 16.6 25.65 L16.85 24.35 17.2 21.4 Q17.25 19.4 16.65 18.65 16.45 18.85 16.35 19.85 L16.2 21.8 Q16.05 24.15 15.3 24.15 15.95 21.85 15.85 18.85 L15.5 15.5 Q12.4 -6.0 -0.2 -11.05" fill="#ffffff" fill-opacity="0.0" fill-rule="evenodd" stroke="none"/>
    <path d="M15.35 20.9 L15.25 22.0 15.3 21.15 15.35 20.9" fill="#945c47" fill-rule="evenodd" stroke="none"/>
    <path d="M-0.2 -11.05 Q-10.2 -7.45 -12.1 -3.5 -14.0 0.45 -14.95 6.45 L-16.0 12.6 -16.55 14.15 -17.4 17.7 Q-18.3 23.3 -16.35 27.0 L-16.15 27.2 -16.0 27.3 M-0.2 -11.05 Q11.7 -7.8 13.65 1.85 15.55 11.5 16.6 12.4 L16.75 12.6 17.3 14.15 18.15 17.7 Q19.1 23.3 17.1 27.0 L16.95 27.2" fill="none" stroke="#000000" stroke-linecap="square" stroke-linejoin="round" stroke-opacity="0.6" stroke-width="1.0"/>
    <path d="M16.95 27.2 L16.45 27.55 16.05 27.7 Q15.85 27.7 15.7 27.55 L15.5 27.2 Q15.45 27.0 15.55 26.8 L16.0 25.75 Q15.35 27.0 14.5 27.6 L14.15 27.7 13.4 27.7 12.9 27.4 12.6 27.45 12.25 27.4 11.85 27.15 Q11.4 27.5 10.9 27.5 L10.4 27.4 10.05 27.15 10.05 27.2 9.25 27.3 9.15 27.3 M8.85 27.25 L8.25 27.2 8.2 27.15 7.85 27.4 7.25 27.5 6.1 27.15 5.65 27.4 4.85 27.4 Q4.6 27.7 4.25 27.7 L3.3 27.7 2.95 27.6 1.6 26.75 1.75 27.1 1.55 27.5 1.05 27.7 0.6 27.55 0.2 27.3 -1.25 27.2 -1.3 27.15 -1.6 27.4 -2.1 27.5 Q-2.6 27.5 -3.05 27.15 L-3.45 27.4 -4.1 27.4 -4.6 27.7 -5.4 27.7 -5.7 27.6 -6.8 26.75 -6.7 27.1 -6.85 27.5 -7.3 27.7 -7.65 27.55 -8.0 27.25 M-8.4 27.3 L-9.25 27.2 -9.3 27.15 -9.6 27.4 -10.1 27.5 -11.05 27.15 -11.45 27.4 -12.1 27.4 Q-12.3 27.7 -12.6 27.7 L-13.4 27.7 -13.7 27.6 Q-14.6 27.0 -15.2 25.8 L-14.8 26.75 -14.7 27.1 -14.85 27.5 -15.3 27.7 -15.65 27.55 -16.0 27.3 M8.85 27.25 L9.25 27.3" fill="none" stroke="#000000" stroke-linecap="square" stroke-linejoin="round" stroke-opacity="0.4" stroke-width="1.0"/>
  </g>
</svg>
