<?xml version="1.0" encoding="UTF-8" standalone="no"?>
<svg xmlns:xlink="http://www.w3.org/1999/xlink" height="41.2px" width="34.45px" xmlns="http://www.w3.org/2000/svg">
  <g transform="matrix(1.0, 0.0, 0.0, 1.0, 11.55, 9.2)">
    <path d="M8.65 -8.25 L9.6 -8.45 11.9 -8.5 Q15.6 -8.1 18.1 -5.0 17.6 -5.55 16.25 -5.65 L14.2 -5.5 16.5 -3.05 Q17.65 -1.6 18.1 -0.1 18.85 2.25 19.4 3.1 20.4 4.7 22.25 4.8 21.05 5.5 19.55 5.5 18.05 5.45 16.85 4.75 L18.25 6.35 Q18.8 7.15 18.85 8.25 L18.8 10.8 18.85 13.35 18.95 14.05 19.3 15.8 Q20.05 18.45 21.5 19.4 L20.05 19.4 Q18.5 19.05 17.55 17.35 L18.0 18.25 18.7 20.85 Q19.3 25.2 16.65 29.45 L17.0 27.55 Q17.25 25.35 16.5 23.65 L16.45 24.55 16.1 26.7 Q15.35 29.95 13.7 31.35 L13.85 30.05 Q13.95 28.45 13.4 27.05 L12.3 24.15 11.9 22.95 11.8 26.05 Q11.85 29.4 12.5 30.3 11.8 30.0 11.05 29.05 9.6 27.15 9.4 23.8 L9.25 22.8 Q-2.45 28.25 -10.15 21.4 -13.3 -2.4 -3.05 -0.65 L-1.35 -0.85 Q0.1 -0.95 3.8 -2.95 4.65 -7.4 8.65 -8.25" fill="#000000" fill-opacity="0.2" fill-rule="evenodd" stroke="none"/>
    <path d="M8.65 -8.25 L9.6 -8.45 11.9 -8.5 Q15.6 -8.1 18.1 -5.0 17.6 -5.55 16.25 -5.65 L14.2 -5.5 16.5 -3.05 Q17.65 -1.6 18.1 -0.1 18.85 2.25 19.4 3.1 20.4 4.7 22.25 4.8 21.05 5.5 19.55 5.5 18.05 5.45 16.85 4.75 L18.25 6.35 Q18.8 7.15 18.85 8.25 L18.8 10.8 18.85 13.35 18.95 14.05 19.3 15.8 Q20.05 18.45 21.5 19.4 L20.05 19.4 Q18.5 19.05 17.55 17.35 L18.0 18.25 18.7 20.85 Q19.3 25.2 16.65 29.45 L17.0 27.55 Q17.25 25.35 16.5 23.65 L16.45 24.55 16.1 26.7 Q15.35 29.95 13.7 31.35 L13.85 30.05 Q13.95 28.45 13.4 27.05 L12.3 24.15 11.9 22.95 11.8 26.05 Q11.85 29.4 12.5 30.3 11.8 30.0 11.05 29.05 9.6 27.15 9.4 23.8 L9.25 22.8 Q-2.45 28.25 -10.15 21.4 -13.3 -2.4 -3.05 -0.65 L-1.35 -0.85 Q0.1 -0.95 3.8 -2.95 4.65 -7.4 8.65 -8.25 Z" fill="none" stroke="#000000" stroke-linecap="square" stroke-linejoin="round" stroke-opacity="0.6" stroke-width="1.0"/>
  </g>
</svg>
