<?xml version="1.0" encoding="UTF-8" standalone="no"?>
<svg xmlns:xlink="http://www.w3.org/1999/xlink" height="41.95px" width="37.1px" xmlns="http://www.w3.org/2000/svg">
  <g transform="matrix(1.0, 0.0, 0.0, 1.0, 18.15, 3.05)">
    <path d="M-17.5 27.9 L-16.65 26.75 -15.75 25.55 Q-15.25 24.65 -15.1 23.4 -14.95 22.5 -14.95 21.1 -14.95 19.95 -15.3 16.4 -15.55 13.45 -15.4 11.7 -15.05 8.6 -13.0 5.95 -11.05 3.45 -8.05 0.65 -5.1 -2.15 -1.75 -2.35 1.6 -2.6 3.85 -0.4 L7.6 3.0 10.25 5.45 13.2 8.75 Q14.4 10.5 14.65 12.95 L14.9 15.9 15.25 18.8 15.4 21.2 Q15.5 22.65 15.75 23.5 L16.8 25.75 Q17.8 27.5 18.3 27.45 L16.3 27.25 Q15.3 26.9 14.65 26.1 15.3 27.45 15.55 28.95 L15.75 31.95 Q15.45 30.75 14.05 29.25 14.4 30.4 14.35 31.8 14.25 33.25 13.7 34.3 L13.5 32.55 12.95 30.85 12.65 34.05 11.8 37.1 Q11.9 35.7 11.65 34.25 11.3 32.5 10.6 31.6 L10.35 34.5 Q9.95 36.15 8.85 36.95 L8.9 34.4 Q8.8 32.75 8.35 31.95 L7.4 34.85 Q6.8 36.6 5.6 37.15 L5.4 34.55 4.8 32.05 4.1 35.35 Q3.55 37.5 2.8 38.25 L1.55 35.9 0.3 33.6 Q0.45 35.9 1.15 37.45 -0.55 36.7 -2.05 35.45 L-4.6 32.7 -3.95 34.9 -3.5 37.15 Q-5.55 36.45 -7.1 35.35 L-10.05 32.65 -9.85 35.15 -9.4 37.5 Q-11.0 36.85 -12.15 34.55 -13.25 32.45 -13.2 30.6 L-13.95 32.35 -14.1 34.3 Q-15.15 32.1 -15.2 30.35 -15.25 28.35 -14.1 26.45 L-15.75 27.4 Q-16.75 27.95 -17.5 27.9" fill="#000000" fill-opacity="0.2" fill-rule="evenodd" stroke="none"/>
    <path d="M18.3 27.45 Q17.8 27.5 16.8 25.75 L15.75 23.5 Q15.5 22.65 15.4 21.2 L15.25 18.8 14.9 15.9 14.65 12.95 Q14.4 10.5 13.2 8.75 L10.25 5.45 7.6 3.0 3.85 -0.4 Q1.6 -2.6 -1.75 -2.35 -5.1 -2.15 -8.05 0.65 -11.05 3.45 -13.0 5.95 -15.05 8.6 -15.4 11.7 -15.55 13.45 -15.3 16.4 -14.95 19.95 -14.95 21.1 -14.95 22.5 -15.1 23.4 -15.25 24.65 -15.75 25.55 L-16.65 26.75 -17.5 27.9" fill="none" stroke="#000000" stroke-linecap="square" stroke-linejoin="round" stroke-opacity="0.6" stroke-width="1.0"/>
    <path d="M-17.5 27.9 Q-16.75 27.95 -15.75 27.4 L-14.1 26.45 Q-15.25 28.35 -15.2 30.35 -15.15 32.1 -14.1 34.3 L-13.95 32.35 -13.2 30.6 Q-13.25 32.45 -12.15 34.55 -11.0 36.85 -9.4 37.5 L-9.85 35.15 -10.05 32.65 -7.1 35.35 Q-5.55 36.45 -3.5 37.15 L-3.95 34.9 -4.6 32.7 -2.05 35.45 Q-0.55 36.7 1.15 37.45 0.45 35.9 0.3 33.6 L1.55 35.9 2.8 38.25 Q3.55 37.5 4.1 35.35 L4.8 32.05 5.4 34.55 5.6 37.15 Q6.8 36.6 7.4 34.85 L8.35 31.95 Q8.8 32.75 8.9 34.4 L8.85 36.95 Q9.95 36.15 10.35 34.5 L10.6 31.6 Q11.3 32.5 11.65 34.25 11.9 35.7 11.8 37.1 L12.65 34.05 12.95 30.85 13.5 32.55 13.7 34.3 Q14.25 33.25 14.35 31.8 14.4 30.4 14.05 29.25 15.45 30.75 15.75 31.95 L15.55 28.95 Q15.3 27.45 14.65 26.1 15.3 26.9 16.3 27.25 L18.3 27.45 Z" fill="none" stroke="#000000" stroke-linecap="square" stroke-linejoin="round" stroke-opacity="0.4" stroke-width="1.0"/>
  </g>
</svg>
