<?xml version="1.0" encoding="UTF-8" standalone="no"?>
<svg xmlns:xlink="http://www.w3.org/1999/xlink" height="62.4px" width="24.45px" xmlns="http://www.w3.org/2000/svg">
  <g transform="matrix(1.0, 0.0, 0.0, 1.0, 10.8, 7.8)">
    <path d="M8.95 22.0 L7.65 22.8 Q-1.15 27.9 -0.45 29.7 L-0.45 29.8 -0.45 30.35 Q-0.65 33.45 -2.45 34.95 -2.2 36.75 -2.3 39.75 L-2.4 41.1 -2.4 41.75 Q-2.6 45.4 -1.55 47.75 L-1.3 48.25 -0.95 48.85 Q0.0 50.2 0.95 50.55 -1.85 50.9 -3.25 47.75 L-3.45 47.3 -4.1 44.75 -4.2 43.6 Q-4.35 45.75 -3.9 47.75 L-3.45 49.45 Q-2.75 51.4 -1.7 53.0 L-1.75 52.95 Q-3.9 51.7 -4.6 47.75 L-4.85 46.25 -5.0 41.85 -5.0 41.75 -4.9 38.1 -5.65 39.8 -6.2 41.6 -6.15 38.3 Q-5.95 36.4 -4.95 35.4 L-6.45 35.3 -6.4 35.1 -6.7 34.8 -6.4 34.3 -5.5 34.1 Q-5.7 33.35 -6.85 30.85 -7.8 28.85 -8.6 24.7 L-9.7 17.4 -9.05 11.05 Q-7.6 -0.05 -3.4 -6.85 6.75 -9.05 11.85 5.15 13.85 10.85 12.3 15.95 11.3 19.1 8.95 22.0" fill="#000000" fill-opacity="0.2" fill-rule="evenodd" stroke="none"/>
    <path d="M-0.45 29.7 Q-1.15 27.9 7.65 22.8 L8.95 22.0 Q5.6 26.1 -0.45 29.7 M-9.7 17.4 L-8.6 24.7 Q-7.8 28.85 -6.85 30.85 -5.7 33.35 -5.5 34.1 L-6.4 34.3 -6.7 34.8 Q-9.75 31.65 -10.1 24.9 L-9.95 20.3 -9.75 18.4 -9.7 17.4 M-6.4 35.1 L-6.45 35.3 -4.95 35.4 Q-5.95 36.4 -6.15 38.3 L-6.2 41.6 -5.65 39.8 -4.9 38.1 -5.0 41.75 -5.0 41.85 -4.85 46.25 -4.6 47.75 Q-3.9 51.7 -1.75 52.95 L-1.7 53.0 -1.0 53.95 Q-6.85 51.8 -7.45 44.5 -7.85 40.15 -6.4 35.1" fill="#ffffff" fill-opacity="0.0" fill-rule="evenodd" stroke="none"/>
    <path d="M-0.45 29.7 Q5.6 26.1 8.95 22.0 11.3 19.1 12.3 15.95 13.85 10.85 11.85 5.15 6.75 -9.05 -3.4 -6.85 -7.6 -0.05 -9.05 11.05 L-9.7 17.4 -9.75 18.4 -9.95 20.3 -10.1 24.9 Q-9.75 31.65 -6.7 34.8 L-6.4 35.1 -6.45 35.3 M-1.75 52.95 L-1.7 53.0 M0.95 50.55 Q0.0 50.2 -0.95 48.85 L-1.3 48.25 -1.55 47.75 Q-2.6 45.4 -2.4 41.75 L-2.4 41.1 -2.3 39.75 Q-2.2 36.75 -2.45 34.95 -0.65 33.45 -0.45 30.35 L-0.45 29.8 -0.45 29.7 M-6.4 35.1 Q-7.85 40.15 -7.45 44.5 -6.85 51.8 -1.0 53.95" fill="none" stroke="#000000" stroke-linecap="square" stroke-linejoin="round" stroke-opacity="0.6" stroke-width="1.0"/>
    <path d="M-1.7 53.0 Q-2.75 51.4 -3.45 49.45 L-3.9 47.75 Q-4.35 45.75 -4.2 43.6 L-4.1 44.75 -3.45 47.3 -3.25 47.75 Q-1.85 50.9 0.95 50.55 M-1.0 53.95 L-1.7 53.0" fill="none" stroke="#000000" stroke-linecap="square" stroke-linejoin="round" stroke-opacity="0.4" stroke-width="1.0"/>
  </g>
</svg>
