<?xml version="1.0" encoding="UTF-8" standalone="no"?>
<svg xmlns:xlink="http://www.w3.org/1999/xlink" height="58.4px" width="39.5px" xmlns="http://www.w3.org/2000/svg">
  <g transform="matrix(1.0, 0.0, 0.0, 1.0, 19.35, 11.45)">
    <path d="M-13.65 0.5 Q-10.95 -5.55 -6.95 -9.0 1.1 -12.95 9.1 -8.35 L11.2 -5.35 Q13.75 1.3 14.15 8.3 L15.0 12.95 15.15 12.9 Q15.6 15.45 15.65 17.15 L16.25 19.15 16.85 21.15 16.9 21.4 17.3 23.85 17.75 26.5 Q18.5 29.75 18.45 33.0 L18.4 34.95 17.8 37.75 17.8 37.85 16.85 39.8 16.3 40.75 15.75 41.8 Q15.75 43.25 15.35 44.4 L15.2 41.65 Q15.05 40.15 14.55 38.95 L13.3 35.55 12.4 32.1 Q11.95 29.4 12.3 25.75 L12.4 22.4 Q12.4 21.1 11.8 19.45 L10.85 17.35 11.45 19.9 11.5 19.8 11.65 20.8 11.65 20.85 11.3 24.05 10.85 27.75 Q10.7 30.15 10.2 31.45 L9.3 33.2 Q8.7 34.25 8.55 35.0 L7.85 38.2 6.8 40.95 6.6 41.05 Q6.25 41.2 6.1 41.45 L6.0 41.5 6.1 41.4 Q6.8 40.15 7.0 38.2 L7.0 34.45 7.2 32.6 7.6 30.8 Q7.75 29.65 6.8 27.55 5.8 25.45 6.05 24.7 -0.2 17.95 -4.45 26.9 L-4.45 34.1 -5.25 32.0 Q-5.85 30.6 -6.4 23.1 L-6.95 31.7 -6.55 33.6 -6.3 35.4 -6.3 39.1 Q-6.2 40.65 -5.65 41.8 L-5.65 41.9 -5.4 42.4 -5.45 42.35 -5.65 42.15 Q-5.8 42.0 -5.85 42.0 -5.8 42.0 -5.65 42.15 L-5.65 42.2 -5.85 42.0 -6.25 41.8 -6.1 41.8 Q-6.75 40.7 -7.2 39.1 L-7.9 35.9 Q-8.05 35.15 -8.65 34.15 L-9.55 32.4 Q-10.05 31.05 -10.2 28.75 L-10.6 24.95 Q-11.05 23.2 -11.0 21.8 L-10.85 20.7 -11.9 20.1 Q-12.25 21.15 -12.25 22.6 L-12.1 25.9 Q-11.8 29.6 -12.25 32.2 L-13.15 35.7 -14.35 39.05 Q-14.85 40.3 -15.0 41.8 L-15.15 44.5 -15.15 44.6 -15.45 43.45 -15.5 43.05 -15.55 41.95 -16.65 39.95 -17.25 38.9 -17.65 37.9 -18.05 36.2 -18.35 33.1 Q-18.35 30.0 -17.6 26.6 L-17.15 23.95 -16.7 21.25 -16.3 20.1 -16.1 19.35 -15.5 17.25 -15.3 14.65 -14.85 12.55 -14.7 12.55 Q-15.25 7.2 -13.65 0.5 M16.35 27.1 L16.0 26.0 Q15.25 23.55 15.05 21.9 L14.5 24.3 14.3 26.8 Q14.25 29.4 15.1 33.2 L15.0 34.15 15.0 34.25 15.0 35.15 15.0 35.25 15.25 37.55 15.55 39.7 15.75 41.65 16.25 40.15 16.55 39.35 17.25 36.95 17.35 36.55 Q17.6 34.9 17.5 32.6 L17.5 31.55 Q17.45 30.25 16.9 28.75 L16.35 27.1 M-14.9 33.3 L-14.3 30.15 -14.1 26.9 -14.3 24.45 -14.85 22.05 -15.4 24.75 -15.8 26.15 -16.8 28.85 Q-17.25 30.45 -17.3 31.7 L-17.3 34.3 -17.05 37.1 -16.95 37.75 -16.4 39.45 -15.55 41.85 -15.55 41.4 -15.4 39.8 -15.3 38.95 -15.05 37.75 -14.95 37.1 -14.85 35.9 -14.8 35.7 -14.8 35.3 -14.8 34.4 -14.8 34.05 -14.9 33.3" fill="#000000" fill-opacity="0.2" fill-rule="evenodd" stroke="none"/>
    <path d="M11.2 -5.35 Q16.2 2.45 18.0 12.55 18.0 14.7 17.6 17.35 L16.9 21.4 16.85 21.15 16.25 19.15 15.65 17.15 Q15.6 15.45 15.15 12.9 L15.0 12.95 14.15 8.3 Q13.75 1.3 11.2 -5.35 M18.4 34.95 L19.0 36.65 Q20.45 41.1 17.65 45.15 18.2 43.8 18.25 42.05 L18.1 38.95 17.8 37.85 17.8 37.75 18.4 34.95 M16.3 40.75 L16.3 43.05 Q16.1 44.85 15.05 46.3 L15.05 44.5 14.65 42.75 13.95 41.65 13.15 40.55 12.7 38.55 12.4 36.45 12.4 34.0 12.2 31.7 11.75 34.65 Q11.55 36.3 11.7 37.7 L11.9 40.5 Q11.8 42.05 11.0 43.1 L11.6 39.55 Q11.65 37.4 10.7 36.3 10.7 37.4 10.25 38.5 9.85 39.7 9.15 40.4 L7.45 41.55 Q6.3 42.15 5.85 42.75 L6.1 41.45 Q6.25 41.2 6.6 41.05 L6.8 40.95 7.85 38.2 8.55 35.0 Q8.7 34.25 9.3 33.2 L10.2 31.45 Q10.7 30.15 10.85 27.75 L11.3 24.05 11.65 20.85 11.65 20.8 11.5 19.8 11.45 19.9 10.85 17.35 11.8 19.45 Q12.4 21.1 12.4 22.4 L12.3 25.75 Q11.95 29.4 12.4 32.1 L13.3 35.55 14.55 38.95 Q15.05 40.15 15.2 41.65 L15.35 44.4 Q15.75 43.25 15.75 41.8 L16.3 40.75 M6.1 41.4 L6.0 40.55 5.8 38.2 Q5.3 38.4 4.85 39.7 L4.0 41.55 4.1 39.05 Q4.15 37.7 0.8 36.1 -5.2 38.3 -5.35 39.7 -5.4 41.05 -5.05 42.75 L-5.4 42.4 -5.65 41.9 -5.65 41.8 Q-6.2 40.65 -6.3 39.1 L-6.3 35.4 -6.55 33.6 -6.95 31.7 -6.4 23.1 Q-5.85 30.6 -5.25 32.0 L-4.45 34.1 -4.45 26.9 Q-0.2 17.95 6.05 24.7 5.8 25.45 6.8 27.55 7.75 29.65 7.6 30.8 L7.2 32.6 7.0 34.45 7.0 38.2 Q6.8 40.15 6.1 41.4 M-5.45 42.35 L-5.65 42.2 -5.65 42.15 -5.45 42.35 M-6.25 41.8 L-6.65 41.55 -8.4 40.4 Q-9.05 39.7 -9.5 38.5 L-9.95 36.3 Q-10.85 37.4 -10.8 39.55 L-10.25 43.1 Q-11.05 42.05 -11.1 40.5 L-10.9 37.7 Q-10.8 36.3 -11.0 34.65 L-11.35 31.7 Q-11.65 32.45 -11.6 34.0 L-11.6 36.45 -11.85 38.55 Q-12.05 39.8 -12.4 40.55 -12.55 41.0 -13.15 41.65 L-13.9 42.75 -14.2 44.5 -14.2 46.3 -15.15 44.5 -15.0 41.8 Q-14.85 40.3 -14.35 39.05 L-13.15 35.7 -12.25 32.2 Q-11.8 29.6 -12.1 25.9 L-12.25 22.6 Q-12.25 21.15 -11.9 20.1 L-10.85 20.7 -11.0 21.8 Q-11.05 23.2 -10.6 24.95 L-10.2 28.75 Q-10.05 31.05 -9.55 32.4 L-8.65 34.15 Q-8.05 35.15 -7.9 35.9 L-7.2 39.1 Q-6.75 40.7 -6.1 41.8 L-6.25 41.8 M-17.25 38.9 L-17.25 38.95 Q-17.6 40.55 -17.45 42.05 -17.35 43.8 -16.9 45.15 -19.65 41.1 -18.2 36.65 L-18.05 36.2 -17.65 37.9 -17.25 38.9 M-16.3 20.1 L-16.85 17.35 -17.25 15.35 Q-17.45 14.25 -17.3 12.55 -15.95 5.6 -13.65 0.5 -15.25 7.2 -14.7 12.55 L-14.85 12.55 -15.3 14.65 -15.5 17.25 -16.1 19.35 -16.3 20.1 M15.0 35.15 L15.0 34.25 15.0 34.15 15.1 33.2 Q14.25 29.4 14.3 26.8 L14.5 24.3 15.05 21.9 Q15.25 23.55 16.0 26.0 L16.35 27.1 16.65 28.9 17.15 31.4 17.5 32.6 Q17.6 34.9 17.35 36.55 L16.95 35.75 Q16.0 33.7 15.85 32.5 15.45 33.9 15.65 35.9 L16.15 39.5 16.25 40.15 15.75 41.65 15.55 39.7 15.25 37.55 15.0 35.25 15.0 35.15 M-15.9 12.55 L-16.05 13.4 -15.65 12.55 -15.9 12.55 M-15.4 24.75 L-14.85 22.05 -14.3 24.45 -14.1 26.9 -14.3 30.15 -14.9 33.3 -15.05 32.5 Q-15.2 33.7 -16.15 35.75 L-16.95 37.75 -17.05 37.1 -17.3 34.3 -17.25 34.05 -16.3 31.4 -15.85 28.9 -15.45 26.45 -15.4 24.75" fill="#ffffff" fill-opacity="0.0" fill-rule="evenodd" stroke="none"/>
    <path d="M-15.9 12.55 L-15.65 12.55 -16.05 13.4 -15.9 12.55" fill="#ffffff" fill-opacity="0.2" fill-rule="evenodd" stroke="none"/>
    <path d="M-13.65 0.5 Q-10.95 -5.55 -6.95 -9.0 1.1 -12.95 9.1 -8.35 L11.2 -5.35 Q16.2 2.45 18.0 12.55 M18.4 34.95 L19.0 36.65 Q20.45 41.1 17.65 45.15 18.2 43.8 18.25 42.05 L18.1 38.95 17.8 37.85 M16.3 40.75 L16.3 43.05 Q16.1 44.85 15.05 46.3 L15.05 44.5 14.65 42.75 13.95 41.65 13.15 40.55 12.7 38.55 12.4 36.45 12.4 34.0 12.2 31.7 11.75 34.65 Q11.55 36.3 11.7 37.7 L11.9 40.5 Q11.8 42.05 11.0 43.1 L11.6 39.55 Q11.65 37.4 10.7 36.3 10.7 37.4 10.25 38.5 9.85 39.7 9.15 40.4 L7.45 41.55 Q6.3 42.15 5.85 42.75 L6.1 41.45 M6.1 41.4 L6.0 40.55 5.8 38.2 Q5.3 38.4 4.85 39.7 L4.0 41.55 4.1 39.05 Q4.15 37.7 0.8 36.1 -5.2 38.3 -5.35 39.7 -5.4 41.05 -5.05 42.75 L-5.4 42.4 -5.45 42.35 -5.65 42.2 -5.85 42.0 -6.25 41.8 -6.65 41.55 -8.4 40.4 Q-9.05 39.7 -9.5 38.5 L-9.95 36.3 Q-10.85 37.4 -10.8 39.55 L-10.25 43.1 Q-11.05 42.05 -11.1 40.5 L-10.9 37.7 Q-10.8 36.3 -11.0 34.65 L-11.35 31.7 Q-11.65 32.45 -11.6 34.0 L-11.6 36.45 -11.85 38.55 Q-12.05 39.8 -12.4 40.55 -12.55 41.0 -13.15 41.65 L-13.9 42.75 -14.2 44.5 -14.2 46.3 -15.15 44.5 -15.15 44.6 -15.45 43.45 -15.5 43.05 -15.55 41.95 -16.65 39.95 -17.25 38.9 -17.25 38.95 Q-17.6 40.55 -17.45 42.05 -17.35 43.8 -16.9 45.15 -19.65 41.1 -18.2 36.65 L-18.05 36.2 -18.35 33.1 Q-18.35 30.0 -17.6 26.6 L-17.15 23.95 -16.7 21.25 -16.3 20.1 -16.85 17.35 -17.25 15.35 Q-17.45 14.25 -17.3 12.55 -15.95 5.6 -13.65 0.5 M17.5 32.6 L17.15 31.4 16.65 28.9 16.35 27.1 M16.25 40.15 L16.15 39.5 15.65 35.9 Q15.45 33.9 15.85 32.5 16.0 33.7 16.95 35.75 L17.35 36.55 M-15.4 24.75 L-15.45 26.45 -15.85 28.9 -16.3 31.4 -17.25 34.05 -17.3 34.3 -17.3 31.7 Q-17.25 30.45 -16.8 28.85 L-15.8 26.15 -15.4 24.75 M-16.95 37.75 L-16.15 35.75 Q-15.2 33.7 -15.05 32.5 L-14.9 33.3 -14.8 34.05 -14.8 34.4 -14.8 35.3 -14.8 35.7 -14.85 35.9 -14.95 37.1 -15.05 37.75 -15.3 38.95 -15.4 39.8 -15.55 41.4 -15.55 41.85 -16.4 39.45 -16.95 37.75 M-5.65 42.15 L-5.45 42.35 M-5.85 42.0 Q-5.8 42.0 -5.65 42.15" fill="none" stroke="#000000" stroke-linecap="square" stroke-linejoin="round" stroke-opacity="0.6" stroke-width="1.0"/>
    <path d="M18.0 12.55 Q18.0 14.7 17.6 17.35 L16.9 21.4 17.3 23.85 17.75 26.5 Q18.5 29.75 18.45 33.0 L18.4 34.95 M17.8 37.85 L16.85 39.8 16.3 40.75 M16.35 27.1 L16.9 28.75 Q17.45 30.25 17.5 31.55 L17.5 32.6 M17.35 36.55 L17.25 36.95 16.55 39.35 16.25 40.15 M15.0 35.25 L15.0 35.15" fill="none" stroke="#000000" stroke-linecap="round" stroke-linejoin="round" stroke-opacity="0.6" stroke-width="1.0"/>
  </g>
</svg>
