<?xml version="1.0" encoding="UTF-8" standalone="no"?>
<svg xmlns:xlink="http://www.w3.org/1999/xlink" height="38.55px" width="50.1px" xmlns="http://www.w3.org/2000/svg">
  <g transform="matrix(1.0, 0.0, 0.0, 1.0, 25.15, 11.9)">
    <path d="M-13.9 10.3 Q-14.85 0.35 -9.0 -9.6 1.2 -15.05 10.05 -7.65 13.9 0.75 12.35 9.15 L13.15 9.3 13.55 10.45 Q15.0 11.0 16.3 11.85 18.4 13.25 19.5 15.0 20.1 13.4 19.75 11.55 L19.6 11.1 20.35 11.55 23.2 13.5 24.05 14.95 24.1 15.25 24.15 15.25 24.25 15.6 Q24.45 16.65 23.4 17.25 21.95 17.85 21.15 18.45 L19.9 19.65 18.6 21.0 Q17.9 21.55 16.55 21.95 L14.25 22.7 12.45 23.85 Q11.45 24.5 10.15 24.75 L10.0 24.8 5.6 25.7 5.55 25.7 3.7 26.0 -7.45 25.35 -7.75 25.3 -7.8 25.3 -9.2 24.95 -9.25 24.95 -10.45 24.7 Q-11.65 24.4 -12.7 23.75 L-14.5 22.65 -16.7 21.9 Q-18.05 21.5 -18.85 20.9 L-20.2 19.55 Q-20.85 18.7 -21.4 18.35 L-23.6 17.15 Q-24.65 16.6 -24.5 15.5 L-24.5 15.25 -24.35 15.25 -24.3 14.95 -23.45 13.4 Q-23.0 12.9 -20.1 11.15 L-19.85 11.0 -19.85 11.15 Q-20.35 13.15 -19.75 14.9 -18.75 13.2 -16.7 11.9 -14.7 10.55 -13.9 10.3" fill="#000000" fill-opacity="0.2" fill-rule="evenodd" stroke="none"/>
    <path d="M-13.9 10.3 Q-14.7 10.55 -16.7 11.9 -18.75 13.2 -19.75 14.9 -20.35 13.15 -19.85 11.15 L-19.85 11.0 -20.1 11.15 Q-23.0 12.9 -23.45 13.4 L-24.3 14.95 Q-23.85 12.9 -22.25 10.7 L-19.85 6.85 Q-19.35 8.35 -18.4 7.75 L-16.5 7.7 Q-15.5 8.25 -14.8 9.25 L-13.9 10.3 M24.05 14.95 L23.2 13.5 20.35 11.55 19.6 11.1 19.75 11.55 Q20.1 13.4 19.5 15.0 18.4 13.25 16.3 11.85 15.0 11.0 13.55 10.45 L13.15 9.3 13.55 9.4 Q14.85 7.95 16.6 8.5 L18.8 9.0 19.3 8.95 18.3 7.05 22.0 10.8 Q23.6 13.0 24.05 14.95" fill="#ffffff" fill-opacity="0.0" fill-rule="evenodd" stroke="none"/>
    <path d="M-24.3 14.95 L-24.35 15.25 M-24.5 15.25 L-24.5 15.5 Q-24.65 16.6 -23.6 17.15 L-21.4 18.35 Q-20.85 18.7 -20.2 19.55 L-18.85 20.9 Q-18.05 21.5 -16.7 21.9 L-14.5 22.65 -12.7 23.75 Q-11.65 24.4 -10.45 24.7 L-9.25 24.95 -9.2 24.95 -7.8 25.3 -7.75 25.3 -7.45 25.35 3.7 26.0 5.55 25.7 5.6 25.7 10.0 24.8 10.15 24.75 Q11.45 24.5 12.45 23.85 L14.25 22.7 16.55 21.95 Q17.9 21.55 18.6 21.0 L19.9 19.65 21.15 18.45 Q21.95 17.85 23.4 17.25 24.45 16.65 24.25 15.6 L24.15 15.25 M24.1 15.25 L24.05 14.95 Q23.6 13.0 22.0 10.8 L18.3 7.05 M-24.3 14.95 Q-23.85 12.9 -22.25 10.7 L-19.85 6.85" fill="none" stroke="#000000" stroke-linecap="square" stroke-linejoin="round" stroke-opacity="0.6" stroke-width="1.0"/>
  </g>
</svg>
