<?xml version="1.0" encoding="UTF-8" standalone="no"?>
<svg xmlns:xlink="http://www.w3.org/1999/xlink" height="40.1px" width="37.7px" xmlns="http://www.w3.org/2000/svg">
  <g transform="matrix(1.0, 0.0, 0.0, 1.0, 18.2, 11.85)">
    <path d="M13.7 -1.2 Q13.6 5.55 14.35 5.9 15.05 6.25 14.8 7.75 14.55 9.2 16.65 11.15 18.3 12.65 18.85 14.2 17.9 14.45 16.85 13.9 16.7 14.7 17.05 15.85 L17.35 17.65 Q16.5 17.65 15.65 16.4 14.75 15.05 14.05 14.9 L15.45 17.15 Q16.25 18.55 15.55 19.6 L14.95 18.1 Q14.6 17.25 13.85 17.3 L14.3 18.95 14.55 20.65 13.05 19.05 11.85 17.3 12.25 20.4 Q12.1 21.7 10.6 23.0 10.9 22.25 10.65 21.15 L9.85 19.5 9.65 21.05 9.25 22.5 8.5 23.1 Q8.05 23.15 7.75 23.45 L6.7 24.4 5.65 24.95 5.15 24.9 4.4 24.75 Q3.5 24.75 3.65 26.05 L3.45 25.5 3.2 24.95 2.2 26.3 1.15 27.6 Q0.85 26.55 -0.75 26.5 L-3.3 26.55 -5.65 25.9 Q-7.6 25.55 -7.35 26.5 L-7.65 25.55 -8.15 24.55 Q-8.3 24.4 -9.0 23.8 -9.8 23.1 -9.75 23.3 L-9.8 23.8 -9.85 24.25 -11.2 22.95 -11.8 21.3 -12.45 19.7 -12.8 17.95 -13.05 19.55 -13.0 21.25 Q-13.2 20.7 -13.9 19.95 L-14.8 18.7 -14.85 17.95 -14.8 17.25 Q-14.75 16.55 -15.55 16.45 -15.7 15.55 -15.45 14.45 L-14.9 12.5 Q-15.8 12.7 -16.35 13.9 L-17.0 15.9 Q-18.1 12.85 -17.0 10.3 L-15.0 5.5 Q-14.3 3.45 -15.15 -0.15 -16.0 -3.8 -9.15 -8.2 -2.3 -12.65 0.15 -10.5 2.55 -8.35 8.15 -8.15 13.75 -7.95 13.7 -1.2" fill="#000000" fill-opacity="0.2" fill-rule="evenodd" stroke="none"/>
    <path d="M13.7 -1.2 Q13.75 -7.95 8.15 -8.15 2.55 -8.35 0.15 -10.5 -2.3 -12.65 -9.15 -8.2 -16.0 -3.8 -15.15 -0.15 -14.3 3.45 -15.0 5.5 L-17.0 10.3 Q-18.1 12.85 -17.0 15.9 L-16.35 13.9 Q-15.8 12.7 -14.9 12.5 L-15.45 14.45 Q-15.7 15.55 -15.55 16.45 -14.75 16.55 -14.8 17.25 L-14.85 17.95 -14.8 18.7 -13.9 19.95 Q-13.2 20.7 -13.0 21.25 L-13.05 19.55 -12.8 17.95 -12.45 19.7 -11.8 21.3 -11.2 22.95 -9.85 24.25 -9.8 23.8 -9.75 23.3 Q-9.8 23.1 -9.0 23.8 -8.3 24.4 -8.15 24.55 L-7.65 25.55 -7.35 26.5 Q-7.6 25.55 -5.65 25.9 L-3.3 26.55 -0.75 26.5 Q0.85 26.55 1.15 27.6 L2.2 26.3 3.2 24.95 3.45 25.5 3.65 26.05 Q3.5 24.75 4.4 24.75 L5.15 24.9 5.65 24.95 6.7 24.4 7.75 23.45 Q8.05 23.15 8.5 23.1 L9.25 22.5 9.65 21.05 9.85 19.5 10.65 21.15 Q10.9 22.25 10.6 23.0 12.1 21.7 12.25 20.4 L11.85 17.3 13.05 19.05 14.55 20.65 14.3 18.95 13.85 17.3 Q14.6 17.25 14.95 18.1 L15.55 19.6 Q16.25 18.55 15.45 17.15 L14.05 14.9 Q14.75 15.05 15.65 16.4 16.5 17.65 17.35 17.65 L17.05 15.85 Q16.7 14.7 16.85 13.9 17.9 14.45 18.85 14.2 18.3 12.65 16.65 11.15 14.55 9.2 14.8 7.75 15.05 6.25 14.35 5.9 13.6 5.55 13.7 -1.2 Z" fill="none" stroke="#000000" stroke-linecap="square" stroke-linejoin="round" stroke-opacity="0.4" stroke-width="1.0"/>
  </g>
</svg>
