<?xml version="1.0" encoding="UTF-8" standalone="no"?>
<svg xmlns:xlink="http://www.w3.org/1999/xlink" height="39.8px" width="43.7px" xmlns="http://www.w3.org/2000/svg">
  <g transform="matrix(1.0, 0.0, 0.0, 1.0, 22.2, 11.9)">
    <path d="M-17.35 3.6 L-14.55 3.55 Q-12.85 3.5 -5.7 -5.65 1.45 -14.8 4.35 -10.6 L10.1 -2.2 14.15 3.4 Q15.25 4.75 16.65 5.7 17.45 7.8 18.4 9.55 L18.1 9.3 Q17.05 8.45 15.7 7.75 14.0 6.85 13.05 6.9 12.8 8.4 13.7 10.3 L15.45 13.35 Q16.2 14.65 16.65 16.65 L17.5 19.95 16.45 17.95 15.0 16.15 Q16.15 17.95 16.55 19.6 17.1 21.9 16.1 23.25 L15.85 21.1 15.2 19.05 Q15.05 21.5 13.5 23.8 12.05 25.9 9.8 27.25 L9.45 27.25 2.3 27.15 -1.8 27.0 -2.65 26.7 -2.9 26.5 -10.1 26.85 -13.05 26.45 -14.3 26.2 -12.85 26.45 -14.75 24.15 -16.5 21.05 Q-17.75 18.2 -16.65 16.45 L-18.35 19.25 -18.25 17.65 -18.15 16.1 -17.65 14.5 Q-17.25 13.5 -17.2 12.9 L-18.2 13.95 -19.15 15.1 Q-18.8 13.3 -17.75 11.4 -16.7 9.35 -15.3 8.35 L-18.2 9.75 Q-19.95 10.6 -20.75 11.65 L-20.55 10.7 Q-20.35 9.75 -19.55 7.95 -18.65 5.8 -17.35 3.6" fill="#000000" fill-opacity="0.2" fill-rule="evenodd" stroke="none"/>
    <path d="M-20.75 11.65 Q-19.95 10.6 -18.2 9.75 L-15.3 8.35 Q-16.7 9.35 -17.75 11.4 -18.8 13.3 -19.15 15.1 L-18.2 13.95 -17.2 12.9 Q-17.25 13.5 -17.65 14.5 L-18.15 16.1 -18.25 17.65 -18.35 19.25 -16.65 16.45 Q-17.75 18.2 -16.5 21.05 L-14.75 24.15 -12.85 26.45 -14.3 26.2 -16.05 26.25 -17.05 25.9 Q-21.05 25.25 -21.5 19.6 L-21.55 17.85 -21.55 17.65 -21.45 15.6 -21.05 12.9 -20.8 11.7 -20.75 11.65 M9.8 27.25 Q12.05 25.9 13.5 23.8 15.05 21.5 15.2 19.05 L15.85 21.1 16.1 23.25 Q17.1 21.9 16.55 19.6 16.15 17.95 15.0 16.15 L16.45 17.95 17.5 19.95 16.65 16.65 Q16.2 14.65 15.45 13.35 L13.7 10.3 Q12.8 8.4 13.05 6.9 14.0 6.85 15.7 7.75 17.05 8.45 18.1 9.3 L18.4 9.55 18.7 10.1 Q22.35 16.25 19.85 21.9 19.05 23.85 17.65 25.4 L15.95 26.85 14.35 26.75 13.5 26.35 Q12.35 27.2 9.8 27.25" fill="#ffffff" fill-opacity="0.0" fill-rule="evenodd" stroke="none"/>
    <path d="M-17.35 3.6 Q-18.65 5.8 -19.55 7.95 -20.35 9.75 -20.55 10.7 L-20.75 11.65 -20.8 11.7 -21.05 12.9 -21.45 15.6 -21.55 17.65 -21.55 17.85 -21.5 19.6 Q-21.05 25.25 -17.05 25.9 L-16.05 26.25 -14.3 26.2 -13.05 26.45 -10.1 26.85 -2.9 26.5 -2.65 26.7 -1.8 27.0 2.3 27.15 9.45 27.25 9.8 27.25 Q12.35 27.2 13.5 26.35 L14.35 26.75 15.95 26.85 17.65 25.4 Q19.05 23.85 19.85 21.9 22.35 16.25 18.7 10.1 L18.4 9.55 Q17.45 7.8 16.65 5.7 M-12.85 26.45 L-14.3 26.2" fill="none" stroke="#000000" stroke-linecap="square" stroke-linejoin="round" stroke-opacity="0.6" stroke-width="1.0"/>
  </g>
</svg>
