<?xml version="1.0" encoding="UTF-8" standalone="no"?>
<svg xmlns:xlink="http://www.w3.org/1999/xlink" height="44.35px" width="47.3px" xmlns="http://www.w3.org/2000/svg">
  <g transform="matrix(1.0, 0.0, 0.0, 1.0, 24.0, 9.25)">
    <path d="M21.9 19.6 L21.45 20.0 21.25 20.15 Q19.05 21.7 17.45 21.55 16.15 21.4 15.85 20.5 L15.65 19.6 15.25 18.65 15.85 19.55 16.55 20.4 15.9 18.65 15.7 16.8 Q15.75 17.7 16.25 18.65 L17.4 20.15 Q16.85 19.2 16.65 18.1 16.45 16.8 17.0 16.0 16.75 17.55 18.2 18.05 L20.85 17.85 21.65 17.0 22.35 15.6 22.35 15.55 22.55 16.4 22.55 16.55 22.6 17.35 22.6 18.05 22.5 18.4 22.25 19.05 22.2 19.1 21.9 19.6 M-18.0 6.85 L-14.9 6.8 -16.6 8.6 -18.2 10.65 Q-19.75 13.15 -18.55 15.45 L-17.6 16.65 -16.5 17.8 Q-15.7 18.65 -15.45 19.5 L-15.3 20.2 -15.35 20.5 -15.35 20.6 -15.3 20.55 -15.15 20.25 -15.0 19.65 -14.85 19.0 -14.65 17.2 -14.05 18.95 -13.1 15.7 Q-12.45 14.25 -11.2 12.95 -11.5 14.95 -11.4 17.9 L-11.15 22.85 Q-11.1 25.15 -10.45 26.7 -9.55 28.95 -7.65 28.85 L-8.15 29.8 -9.5 30.25 -10.2 30.45 Q-11.9 29.7 -12.7 28.45 -13.3 27.5 -13.35 26.3 -13.85 27.6 -15.05 28.45 L-16.15 29.0 Q-14.35 27.2 -13.7 24.2 L-13.45 22.35 -13.4 21.6 Q-13.7 23.2 -15.45 24.25 L-16.6 24.8 -17.1 25.0 Q-18.95 25.4 -20.8 24.35 L-21.85 23.55 -18.75 23.6 Q-17.85 23.0 -17.3 22.1 L-20.2 20.15 -21.7 18.35 -22.95 15.6 Q-24.1 12.05 -22.1 10.95 L-20.35 9.7 -19.95 9.3 Q-18.95 8.35 -18.05 7.0 L-18.0 6.85" fill="#ffffff" fill-opacity="0.0" fill-rule="evenodd" stroke="none"/>
    <path d="M22.35 15.6 L21.65 17.0 20.85 17.85 18.2 18.05 Q16.75 17.55 17.0 16.0 16.45 16.8 16.65 18.1 16.85 19.2 17.4 20.15 L16.25 18.65 Q15.75 17.7 15.7 16.8 L15.9 18.65 16.55 20.4 15.85 19.55 15.25 18.65 15.65 19.6 15.85 20.5 Q16.15 21.4 17.45 21.55 19.05 21.7 21.25 20.15 L21.45 20.0 21.9 19.6 20.3 20.9 17.8 21.95 Q19.2 24.25 17.05 26.05 L14.95 27.4 Q13.3 28.3 12.95 28.55 12.15 29.05 12.0 29.55 L11.55 30.75 Q11.1 30.5 11.1 29.8 11.15 28.45 13.25 26.45 L11.1 27.95 Q8.75 29.3 6.6 29.2 5.45 30.25 5.95 31.55 L6.7 32.7 Q5.55 32.75 4.9 32.0 4.4 31.4 4.2 30.45 L4.3 31.25 Q4.35 32.65 2.6 33.5 1.45 34.05 -0.15 34.25 0.4 34.15 0.7 33.75 L0.85 33.0 Q0.65 32.0 -1.05 31.9 -2.45 31.8 -3.0 30.95 L-5.2 31.35 -6.2 31.4 Q-7.4 31.7 -7.3 33.15 L-7.0 34.45 Q-8.6 33.25 -8.1 31.15 L-7.6 29.85 -7.3 29.3 Q-7.8 29.75 -9.05 30.15 L-10.2 30.45 -9.5 30.25 -8.15 29.8 -7.65 28.85 Q-9.55 28.95 -10.45 26.7 -11.1 25.15 -11.15 22.85 L-11.4 17.9 Q-11.5 14.95 -11.2 12.95 -12.45 14.25 -13.1 15.7 L-14.05 18.95 -14.65 17.2 -14.85 19.0 -15.0 19.65 -15.15 20.25 -15.3 20.55 -15.35 20.5 -15.3 20.2 -15.45 19.5 Q-15.7 18.65 -16.5 17.8 L-17.6 16.65 -18.55 15.45 Q-19.75 13.15 -18.2 10.65 L-16.6 8.6 -14.9 6.8 -18.0 6.85 -17.6 6.15 Q-10.75 0.0 0.4 -6.85 11.55 -13.75 16.5 6.3 17.05 7.4 18.55 8.4 20.2 9.55 20.7 10.3 21.65 11.65 22.0 14.0 L22.35 15.6" fill="#000000" fill-opacity="0.2" fill-rule="evenodd" stroke="none"/>
    <path d="M22.6 18.05 L22.6 17.35 22.55 16.55 22.6 18.05 M-18.05 7.0 Q-18.95 8.35 -19.95 9.3 L-18.8 7.95 -18.05 7.0" fill="#7a4a38" fill-rule="evenodd" stroke="none"/>
    <path d="M-15.35 20.5 L-15.3 20.55 -15.35 20.6 -15.35 20.5" fill="#b27f60" fill-rule="evenodd" stroke="none"/>
    <path d="M21.9 19.6 L22.2 19.1 22.25 19.05 22.5 18.4 22.6 18.05 22.55 16.55 22.55 16.4 22.35 15.55 22.35 15.6 22.0 14.0 Q21.65 11.65 20.7 10.3 20.2 9.55 18.55 8.4 17.05 7.4 16.5 6.3 11.55 -13.75 0.4 -6.85 -10.75 0.0 -17.6 6.15 L-18.0 6.85 M-10.2 30.45 L-9.05 30.15 Q-7.8 29.75 -7.3 29.3 L-7.6 29.85 -8.1 31.15 Q-8.6 33.25 -7.0 34.45 L-7.3 33.15 Q-7.4 31.7 -6.2 31.4 L-5.2 31.35 -3.0 30.95 Q-2.45 31.8 -1.05 31.9 0.65 32.0 0.85 33.0 L0.7 33.75 Q0.4 34.15 -0.15 34.25 1.45 34.05 2.6 33.5 4.35 32.65 4.3 31.25 L4.2 30.45 M6.6 29.2 Q8.75 29.3 11.1 27.95 L13.25 26.45 M11.55 30.75 L12.0 29.55 Q12.15 29.05 12.95 28.55 13.3 28.3 14.95 27.4 L17.05 26.05 Q19.2 24.25 17.8 21.95 L20.3 20.9 21.9 19.6 M-19.95 9.3 Q-18.95 8.35 -18.05 7.0 M-19.95 9.3 L-20.35 9.7 -22.1 10.95 Q-24.1 12.05 -22.95 15.6 L-21.7 18.35 -20.2 20.15 -17.3 22.1 M-21.85 23.55 L-20.8 24.35 Q-18.95 25.4 -17.1 25.0 L-16.6 24.8 -15.45 24.25 Q-13.7 23.2 -13.4 21.6 L-13.45 22.35 -13.7 24.2 Q-14.35 27.2 -16.15 29.0 L-15.05 28.45 M-13.35 26.3 Q-13.3 27.5 -12.7 28.45 -11.9 29.7 -10.2 30.45" fill="none" stroke="#000000" stroke-linecap="square" stroke-linejoin="round" stroke-opacity="0.6" stroke-width="1.0"/>
    <path d="M4.2 30.45 Q4.4 31.4 4.9 32.0 5.55 32.75 6.7 32.7 L5.95 31.55 Q5.45 30.25 6.6 29.2 M13.25 26.45 Q11.15 28.45 11.1 29.8 11.1 30.5 11.55 30.75 M-17.3 22.1 Q-17.85 23.0 -18.75 23.6 L-21.85 23.55 M-15.05 28.45 Q-13.85 27.6 -13.35 26.3" fill="none" stroke="#000000" stroke-linecap="square" stroke-linejoin="round" stroke-opacity="0.4" stroke-width="1.0"/>
  </g>
</svg>
