<?xml version="1.0" encoding="UTF-8" standalone="no"?>
<svg xmlns:xlink="http://www.w3.org/1999/xlink" height="59.75px" width="29.05px" xmlns="http://www.w3.org/2000/svg">
  <g transform="matrix(1.0, 0.0, 0.0, 1.0, 14.95, 9.7)">
    <path d="M3.25 -7.35 Q8.2 -3.35 9.65 0.05 L11.45 4.6 12.0 6.7 12.3 9.05 12.6 11.7 Q13.3 15.7 13.45 20.95 L13.4 30.25 13.35 36.2 13.25 42.05 12.85 44.65 Q12.35 46.25 11.6 44.75 11.1 43.85 11.6 41.0 12.0 38.4 11.05 37.5 L11.05 39.4 10.95 41.3 10.45 42.65 Q10.05 43.55 10.0 44.05 L10.15 45.7 Q10.3 46.65 9.95 47.25 9.45 48.15 8.05 48.5 6.5 48.9 6.05 47.85 5.85 47.45 6.0 46.55 L6.2 45.2 5.95 42.15 Q5.65 39.9 5.05 39.45 L5.0 40.5 4.6 41.45 4.65 42.7 4.75 43.9 4.3 44.95 3.9 46.0 4.05 47.45 4.0 48.75 Q3.5 49.65 2.7 49.05 1.9 48.45 1.9 47.6 L1.85 46.45 1.7 45.3 Q1.6 44.9 1.65 44.1 L1.65 42.9 1.3 39.55 Q1.05 37.6 1.1 36.15 L1.25 32.15 1.15 28.1 Q-0.75 28.85 -0.6 35.15 L-0.35 39.95 -0.1 43.2 -0.1 45.5 -0.3 47.75 Q-0.7 50.35 -1.5 48.65 -1.7 48.2 -1.55 45.75 -1.45 43.65 -2.2 43.35 L-2.15 46.55 Q-2.2 48.95 -2.75 49.3 -3.55 49.8 -4.25 48.0 L-4.75 46.6 -5.15 45.7 Q-5.55 46.15 -5.25 47.15 -4.95 48.35 -5.15 48.8 L-6.2 48.6 -6.95 48.35 Q-7.55 48.05 -7.65 46.9 L-7.55 44.75 -7.4 42.5 -7.75 37.8 -8.4 33.05 -8.45 29.6 Q-8.4 27.2 -8.65 26.1 -9.6 27.9 -9.25 31.6 L-8.85 34.55 -8.6 37.25 -8.5 39.3 -8.2 41.25 Q-7.45 46.45 -9.0 47.9 L-9.55 47.65 -10.15 44.3 -10.65 40.9 Q-11.2 41.2 -11.0 43.5 -10.8 45.7 -12.15 46.05 -12.25 42.5 -12.9 37.1 L-13.85 28.1 Q-14.25 22.85 -13.9 18.7 L-13.95 15.2 -14.3 11.6 Q-14.4 10.3 -14.05 9.15 L-13.2 6.95 -12.6 5.05 -12.55 4.8 Q-12.2 3.8 -12.15 1.75 -12.1 -0.3 -6.9 -5.8 -1.75 -11.35 3.25 -7.35" fill="#000000" fill-opacity="0.2" fill-rule="evenodd" stroke="none"/>
    <path d="M3.25 -7.35 Q-1.75 -11.35 -6.9 -5.8 -12.1 -0.3 -12.15 1.75 -12.2 3.8 -12.55 4.8 L-12.6 5.05 -13.2 6.95 -14.05 9.15 Q-14.4 10.3 -14.3 11.6 L-13.95 15.2 -13.9 18.7 Q-14.25 22.85 -13.85 28.1 L-12.9 37.1 Q-12.25 42.5 -12.15 46.05 -10.8 45.7 -11.0 43.5 -11.2 41.2 -10.65 40.9 L-10.15 44.3 -9.55 47.65 -9.0 47.9 Q-7.45 46.45 -8.2 41.25 L-8.5 39.3 -8.6 37.25 -8.85 34.55 -9.25 31.6 Q-9.6 27.9 -8.65 26.1 -8.4 27.2 -8.45 29.6 L-8.4 33.05 -7.75 37.8 -7.4 42.5 -7.55 44.75 -7.65 46.9 Q-7.55 48.05 -6.95 48.35 L-6.2 48.6 -5.15 48.8 Q-4.95 48.35 -5.25 47.15 -5.55 46.15 -5.15 45.7 L-4.75 46.6 -4.25 48.0 Q-3.55 49.8 -2.75 49.3 -2.2 48.95 -2.15 46.55 L-2.2 43.35 Q-1.45 43.65 -1.55 45.75 -1.7 48.2 -1.5 48.65 -0.7 50.35 -0.3 47.75 L-0.1 45.5 -0.1 43.2 -0.35 39.95 -0.6 35.15 Q-0.75 28.85 1.15 28.1 L1.25 32.15 1.1 36.15 Q1.05 37.6 1.3 39.55 L1.65 42.9 1.65 44.1 Q1.6 44.9 1.7 45.3 L1.85 46.45 1.9 47.6 Q1.9 48.45 2.7 49.05 3.5 49.65 4.0 48.75 L4.05 47.45 3.9 46.0 4.3 44.95 4.75 43.9 4.65 42.7 4.6 41.45 5.0 40.5 5.05 39.45 Q5.65 39.9 5.95 42.15 L6.2 45.2 6.0 46.55 Q5.85 47.45 6.05 47.85 6.5 48.9 8.05 48.5 9.45 48.15 9.95 47.25 10.3 46.65 10.15 45.7 L10.0 44.05 Q10.05 43.55 10.45 42.65 L10.95 41.3 11.05 39.4 11.05 37.5 Q12.0 38.4 11.6 41.0 11.1 43.85 11.6 44.75 12.35 46.25 12.85 44.65 L13.25 42.05 13.35 36.2 13.4 30.25 13.45 20.95 Q13.3 15.7 12.6 11.7 L12.3 9.05 12.0 6.7 11.45 4.6 9.65 0.05 Q8.2 -3.35 3.25 -7.35 Z" fill="none" stroke="#000000" stroke-linecap="square" stroke-linejoin="round" stroke-opacity="0.4" stroke-width="1.0"/>
  </g>
</svg>
