<?xml version="1.0" encoding="UTF-8" standalone="no"?>
<svg xmlns:xlink="http://www.w3.org/1999/xlink" height="55.55px" width="49.55px" xmlns="http://www.w3.org/2000/svg">
  <g transform="matrix(1.0, 0.0, 0.0, 1.0, 25.3, 23.1)">
    <path d="M-0.3 -22.45 Q3.35 -22.5 7.95 -20.9 L12.7 -18.9 Q13.65 -18.45 14.5 -17.5 16.15 -15.65 16.65 -13.3 L17.65 -5.25 17.75 -4.25 Q18.9 4.35 23.6 10.75 21.6 10.9 18.75 8.8 19.0 13.95 23.15 18.65 L19.6 18.5 16.5 18.6 15.55 18.5 Q14.0 17.95 11.25 15.65 11.15 20.05 11.35 20.8 12.05 23.3 13.85 24.6 L7.75 24.25 Q4.05 23.7 3.0 20.15 -2.6 26.25 -0.8 31.8 -5.65 29.45 -6.4 20.4 -7.85 23.9 -9.75 25.05 -11.7 26.15 -13.15 25.6 L-15.8 25.35 Q-13.5 23.3 -14.3 15.05 -15.2 17.95 -17.45 18.9 L-17.75 19.0 -18.8 19.0 -21.15 18.55 Q-22.75 18.2 -24.6 19.75 -25.0 17.75 -19.9 11.0 -22.9 11.5 -24.25 14.05 -22.2 7.75 -19.4 3.75 -21.3 5.05 -23.25 4.85 -19.15 0.7 -18.6 -2.85 L-18.4 -4.25 -17.9 -7.95 -17.25 -12.5 Q-17.0 -14.15 -16.5 -14.7 L-14.15 -17.85 Q-12.9 -19.5 -11.05 -19.35 -9.65 -20.1 -7.75 -20.85 -3.85 -22.4 -0.3 -22.45" fill="#000000" fill-opacity="0.09803922" fill-rule="evenodd" stroke="none"/>
    <path d="M-0.3 -22.45 Q-3.85 -22.4 -7.75 -20.85 -9.65 -20.1 -11.05 -19.35 M-24.6 19.75 Q-22.75 18.2 -21.15 18.55 L-18.8 19.0 -17.75 19.0 -17.45 18.9 Q-15.2 17.95 -14.3 15.05 M11.25 15.65 Q14.0 17.95 15.55 18.5 L16.5 18.6 19.6 18.5 23.15 18.65" fill="none" stroke="#000000" stroke-linecap="round" stroke-linejoin="round" stroke-opacity="0.6" stroke-width="1.0"/>
    <path d="M-23.25 4.85 Q-21.3 5.05 -19.4 3.75 M-24.25 14.05 Q-22.9 11.5 -19.9 11.0 M-14.3 15.05 Q-13.5 23.3 -15.8 25.35 M13.85 24.6 Q12.05 23.3 11.35 20.8 11.15 20.05 11.25 15.65 M18.75 8.8 Q21.6 10.9 23.6 10.75" fill="none" stroke="#000000" stroke-linecap="round" stroke-linejoin="round" stroke-opacity="0.6" stroke-width="1.0"/>
    <path d="M23.6 10.75 Q18.9 4.35 17.75 -4.25 L17.65 -5.25 16.65 -13.3 Q16.15 -15.65 14.5 -17.5 13.65 -18.45 12.7 -18.9 L7.95 -20.9 Q3.35 -22.5 -0.3 -22.45 M-11.05 -19.35 Q-12.9 -19.5 -14.15 -17.85 L-16.5 -14.7 Q-17.0 -14.15 -17.25 -12.5 L-17.9 -7.95 -18.4 -4.25 -18.6 -2.85 Q-19.15 0.7 -23.25 4.85 M-19.4 3.75 Q-22.2 7.75 -24.25 14.05 M-19.9 11.0 Q-25.0 17.75 -24.6 19.75 M-15.8 25.35 L-13.15 25.6 Q-11.7 26.15 -9.75 25.05 -7.85 23.9 -6.4 20.4 -5.65 29.45 -0.8 31.8 -2.6 26.25 3.0 20.15 4.05 23.7 7.75 24.25 L13.85 24.6 M23.15 18.65 Q19.0 13.95 18.75 8.8" fill="none" stroke="#000000" stroke-linecap="square" stroke-linejoin="round" stroke-opacity="0.6" stroke-width="1.0"/>
  </g>
</svg>
