<?xml version="1.0" encoding="UTF-8" standalone="no"?>
<svg xmlns:xlink="http://www.w3.org/1999/xlink" height="42.75px" width="41.65px" xmlns="http://www.w3.org/2000/svg">
  <g transform="matrix(1.0, 0.0, 0.0, 1.0, 20.85, 14.55)">
    <path d="M4.15 -13.8 L1.5 -13.85 1.0 -13.65 11.95 -7.8 13.0 -7.4 15.15 -5.45 Q18.15 -1.4 17.35 7.4 L16.8 9.25 16.75 6.1 Q16.45 2.55 15.2 0.65 L15.6 1.4 Q16.05 2.35 16.05 3.6 16.15 7.35 12.55 11.9 L12.75 12.6 Q14.0 17.55 13.6 19.65 L12.05 17.25 9.7 20.8 Q8.95 22.5 7.5 24.05 L4.35 27.1 -5.05 27.55 Q-6.3 26.8 -8.05 24.4 L-10.55 21.1 Q-11.85 19.2 -12.65 16.7 L-12.7 16.55 -15.7 19.65 Q-18.05 14.55 -17.75 11.6 L-17.3 10.15 -17.0 9.75 -20.2 12.15 -15.25 6.4 Q-16.1 0.4 -14.4 -3.55 -12.05 -9.0 -6.1 -11.9 L-5.55 -12.15 Q-0.85 -14.3 4.15 -13.8" fill="#000000" fill-opacity="0.2" fill-rule="evenodd" stroke="none"/>
    <path d="M7.2 -13.25 L5.5 -13.55 6.8 -13.35 7.2 -13.25 M-15.7 19.65 L-12.7 16.55 -12.65 16.7 -15.7 19.65" fill="#89513e" fill-rule="evenodd" stroke="none"/>
    <path d="M13.45 -10.4 L14.3 -9.7 15.0 -9.0 14.0 -9.95 12.85 -10.85 13.45 -10.4 M8.95 -12.8 L7.2 -13.25 7.5 -13.2 7.2 -13.25 6.8 -13.35 7.5 -13.2 8.95 -12.8" fill="#6f4131" fill-rule="evenodd" stroke="none"/>
    <path d="M13.6 19.65 Q14.0 17.55 12.75 12.6 L12.55 11.9 Q16.15 7.35 16.05 3.6 16.05 2.35 15.6 1.4 L15.2 0.65 Q16.45 2.55 16.75 6.1 L16.8 9.25 17.35 7.4 Q18.15 -1.4 15.15 -5.45 L13.0 -7.4 11.95 -7.8 1.0 -13.65 1.5 -13.85 4.15 -13.8 5.5 -13.55 7.2 -13.25 8.95 -12.8 9.2 -12.75 10.1 -12.4 10.85 -12.05 12.85 -10.85 14.0 -9.95 15.0 -9.0 14.3 -9.7 13.45 -10.4 14.1 -9.95 15.6 -8.65 Q17.35 -6.95 18.45 -4.7 22.0 2.45 18.1 12.15 L14.9 9.75 15.2 10.15 15.65 11.6 Q15.95 14.55 13.6 19.65 M-5.55 -12.15 L-6.1 -11.9 Q-12.05 -9.0 -14.4 -3.55 -16.1 0.4 -15.25 6.4 L-20.2 12.15 Q-18.45 3.45 -16.65 -2.05 -14.9 -7.55 -14.65 -10.05 L-13.05 -11.4 Q-11.6 -12.9 -6.95 -12.35 L-5.55 -12.15" fill="#ffffff" fill-opacity="0.0" fill-rule="evenodd" stroke="none"/>
    <path d="M13.6 19.65 Q15.95 14.55 15.65 11.6 L15.2 10.15 14.9 9.75 18.1 12.15 Q22.0 2.45 18.45 -4.7 17.35 -6.95 15.6 -8.65 L14.1 -9.95 13.45 -10.4 12.85 -10.85 10.85 -12.05 10.1 -12.4 9.2 -12.75 8.95 -12.8 7.5 -13.2 7.2 -13.25 5.5 -13.55 4.15 -13.8 Q-0.85 -14.3 -5.55 -12.15 L-6.95 -12.35 Q-11.6 -12.9 -13.05 -11.4 L-14.65 -10.05 Q-14.9 -7.55 -16.65 -2.05 -18.45 3.45 -20.2 12.15 L-17.0 9.75 -17.3 10.15 -17.75 11.6 Q-18.05 14.55 -15.7 19.65 L-12.65 16.7 Q-11.85 19.2 -10.55 21.1 L-8.05 24.4 Q-6.3 26.8 -5.05 27.55 L4.35 27.1 7.5 24.05 Q8.95 22.5 9.7 20.8 L12.05 17.25 13.6 19.65 Z" fill="none" stroke="#000000" stroke-linecap="square" stroke-linejoin="round" stroke-opacity="0.6" stroke-width="1.0"/>
  </g>
</svg>
