<?xml version="1.0" encoding="UTF-8" standalone="no"?>
<svg xmlns:xlink="http://www.w3.org/1999/xlink" height="42.9px" width="31.5px" xmlns="http://www.w3.org/2000/svg">
  <g transform="matrix(1.0, 0.0, 0.0, 1.0, 16.15, 10.7)">
    <path d="M1.15 -10.05 Q6.2 -10.2 10.1 -9.15 13.25 -7.2 14.3 -1.15 14.8 1.9 14.65 4.55 14.35 8.35 13.45 12.2 12.55 16.05 11.3 18.35 L8.95 22.65 7.2 26.0 Q8.75 26.9 8.7 28.25 L8.3 29.45 Q7.95 28.75 6.05 28.3 L4.25 27.95 Q4.95 28.55 4.45 29.95 L3.85 31.25 0.25 28.9 -2.8 31.55 Q-4.05 31.1 -6.0 28.9 L-9.1 29.75 Q-9.1 28.05 -8.45 26.65 L-7.85 25.6 -8.85 23.8 -11.6 18.6 Q-13.55 14.85 -13.65 11.75 -15.85 6.35 -15.4 0.75 L-14.85 -2.55 -14.45 -3.75 Q-8.85 -9.8 1.15 -10.05" fill="#000000" fill-opacity="0.2" fill-rule="evenodd" stroke="none"/>
    <path d="M1.15 -10.05 Q-8.85 -9.8 -14.45 -3.75 L-14.85 -2.55 -15.4 0.75 Q-15.85 6.35 -13.65 11.75 -13.55 14.85 -11.6 18.6 L-8.85 23.8 -7.85 25.6 -8.45 26.65 Q-9.1 28.05 -9.1 29.75 L-6.0 28.9 Q-4.05 31.1 -2.8 31.55 L0.25 28.9 3.85 31.25 4.45 29.95 Q4.95 28.55 4.25 27.95 L6.05 28.3 Q7.95 28.75 8.3 29.45 L8.7 28.25 Q8.75 26.9 7.2 26.0 L8.95 22.65 11.3 18.35 Q12.55 16.05 13.45 12.2 14.35 8.35 14.65 4.55 14.8 1.9 14.3 -1.15 13.25 -7.2 10.1 -9.15 6.2 -10.2 1.15 -10.05 Z" fill="none" stroke="#000000" stroke-linecap="square" stroke-linejoin="round" stroke-opacity="0.6" stroke-width="1.0"/>
  </g>
</svg>
