<?xml version="1.0" encoding="UTF-8" standalone="no"?>
<svg xmlns:xlink="http://www.w3.org/1999/xlink" height="51.05px" width="41.35px" xmlns="http://www.w3.org/2000/svg">
  <g transform="matrix(1.0, 0.0, 0.0, 1.0, 21.2, 9.55)">
    <path d="M-19.5 38.9 Q-18.1 38.65 -16.55 37.25 -13.45 34.5 -12.45 29.15 -14.15 26.95 -15.45 23.85 -17.4 19.05 -17.5 13.35 L-17.2 14.7 -16.35 17.95 Q-14.7 23.1 -12.1 25.65 L-12.05 24.5 -14.45 10.1 Q-2.1 -25.05 12.05 10.1 L11.65 11.45 Q11.2 13.2 10.9 15.1 9.85 21.05 10.6 25.85 13.6 23.5 15.5 17.95 L16.5 14.4 16.8 12.9 Q16.7 19.0 14.4 24.15 13.15 27.1 11.45 29.1 13.55 35.45 19.65 37.8 L16.5 37.5 Q13.05 36.7 11.5 34.15 L11.5 34.85 11.85 36.45 Q12.55 38.95 14.35 40.25 11.9 39.9 9.1 38.9 3.55 36.9 1.9 33.5 L-0.55 37.65 -0.7 37.35 -1.05 36.65 -3.1 33.5 Q-4.75 36.9 -10.2 39.3 L-13.8 40.65 -15.3 41.0 Q-14.2 39.35 -13.6 37.15 L-13.2 35.3 Q-14.75 37.85 -17.25 38.65 L-18.85 38.9 -19.5 38.9" fill="#000000" fill-opacity="0.2" fill-rule="evenodd" stroke="none"/>
    <path d="M-19.5 38.9 Q-16.0 36.9 -15.3 31.55 -15.1 29.9 -15.15 28.05 L-15.3 26.55 Q-23.0 15.8 -19.75 3.75 -18.75 0.0 -16.75 -3.4 L-15.45 -5.4 -14.95 -6.1 Q-11.05 -8.65 -6.8 -9.0 -3.65 -9.25 -0.65 -8.25 2.45 -9.25 5.6 -9.0 9.8 -8.65 13.7 -6.1 L14.25 -5.4 15.45 -3.4 Q17.45 0.0 18.5 3.75 21.8 15.8 14.1 26.55 L14.2 27.9 Q14.35 29.45 14.8 31.0 16.25 35.8 19.65 37.8 13.55 35.45 11.45 29.1 13.15 27.1 14.4 24.15 16.7 19.0 16.8 12.9 L16.5 14.4 15.5 17.95 Q13.6 23.5 10.6 25.85 9.85 21.05 10.9 15.1 11.2 13.2 11.65 11.45 L12.05 10.1 Q-2.1 -25.05 -14.45 10.1 L-12.05 24.5 -12.1 25.65 Q-14.7 23.1 -16.35 17.95 L-17.2 14.7 -17.5 13.35 Q-17.4 19.05 -15.45 23.85 -14.15 26.95 -12.45 29.15 -13.45 34.5 -16.55 37.25 -18.1 38.65 -19.5 38.9" fill="#ffffff" fill-opacity="0.0" fill-rule="evenodd" stroke="none"/>
    <path d="M19.65 37.8 Q16.25 35.8 14.8 31.0 14.35 29.45 14.2 27.9 L14.1 26.55 Q21.8 15.8 18.5 3.75 17.45 0.0 15.45 -3.4 L14.25 -5.4 13.7 -6.1 Q9.8 -8.65 5.6 -9.0 2.45 -9.25 -0.65 -8.25 -3.65 -9.25 -6.8 -9.0 -11.05 -8.65 -14.95 -6.1 L-15.45 -5.4 -16.75 -3.4 Q-18.75 0.0 -19.75 3.75 -23.0 15.8 -15.3 26.55 L-15.15 28.05 Q-15.1 29.9 -15.3 31.55 -16.0 36.9 -19.5 38.9 L-18.85 38.9 -17.25 38.65 Q-14.75 37.85 -13.2 35.3 L-13.6 37.15 Q-14.2 39.35 -15.3 41.0 L-13.8 40.65 -10.2 39.3 Q-4.75 36.9 -3.1 33.5 L-1.05 36.65 -0.7 37.35 -0.55 37.65 1.9 33.5 Q3.55 36.9 9.1 38.9 11.9 39.9 14.35 40.25 12.55 38.95 11.85 36.45 L11.5 34.85 11.5 34.15 Q13.05 36.7 16.5 37.5 L19.65 37.8 Z" fill="none" stroke="#000000" stroke-linecap="round" stroke-linejoin="round" stroke-opacity="0.6" stroke-width="1.0"/>
  </g>
</svg>
