<?xml version="1.0" encoding="UTF-8" standalone="no"?>
<svg xmlns:xlink="http://www.w3.org/1999/xlink" height="45.85px" width="46.65px" xmlns="http://www.w3.org/2000/svg">
  <g transform="matrix(1.0, 0.0, 0.0, 1.0, 24.55, 13.65)">
    <path d="M-17.85 31.35 L-18.25 31.2 Q-20.35 29.75 -21.45 27.25 -23.0 23.8 -22.35 18.75 L-22.15 20.7 Q-21.75 22.95 -20.85 24.75 -17.95 30.55 -11.0 29.25 L-11.6 29.9 -12.05 30.25 -14.4 31.25 -14.45 31.3 -14.55 31.3 -15.95 31.55 -16.5 31.55 -17.25 31.45 -17.5 31.4 -17.85 31.35 M-13.45 28.05 Q-16.3 26.3 -16.75 22.3 L-16.7 19.7 -16.55 18.65 Q-15.35 7.8 -11.25 2.1 -7.85 -2.6 -2.7 -3.55 1.3 -4.35 5.8 -2.8 9.3 -1.65 11.15 -0.1 13.35 1.75 13.4 9.95 13.45 14.0 13.05 17.75 13.5 22.35 12.3 25.65 11.7 27.25 11.1 28.0 L11.05 28.05 11.0 28.05 11.1 28.0 11.15 27.85 11.15 27.8 Q11.25 27.45 10.85 27.15 L10.55 26.95 10.5 26.9 10.3 26.8 7.55 26.55 1.05 26.3 1.05 26.5 -1.25 26.35 -3.5 26.5 -3.5 26.3 -10.0 26.55 -12.75 26.8 -12.95 26.9 -12.95 26.95 -13.05 26.95 Q-13.9 27.45 -13.45 28.05 M8.7 29.45 Q13.25 29.9 15.85 27.15 18.35 24.8 19.05 20.0 L19.1 19.9 Q19.4 24.45 17.85 27.65 16.65 30.15 14.45 31.5 L14.3 31.55 14.05 31.55 13.2 31.55 12.15 31.35 10.95 31.0 10.6 30.85 9.4 30.15 9.2 30.0 8.65 29.45 8.7 29.45" fill="#000000" fill-opacity="0.2" fill-rule="evenodd" stroke="none"/>
    <path d="M15.85 27.15 Q13.5 29.3 9.6 29.25 L11.15 29.0 Q13.1 28.45 14.6 27.05 19.5 22.45 18.9 10.6 L19.25 13.55 Q19.5 17.0 19.1 19.9 L19.05 20.0 Q18.35 24.8 15.85 27.15" fill="#ffffff" fill-opacity="0.2" fill-rule="evenodd" stroke="none"/>
    <path d="M-17.85 31.35 Q-25.6 29.6 -23.45 15.45 -22.7 10.65 -20.9 5.0 L-19.2 0.3 -19.05 -0.2 -18.9 -0.65 Q-17.9 -3.9 -15.95 -6.35 -13.5 -9.45 -9.75 -11.1 -6.0 -12.8 -1.8 -13.0 2.5 -13.15 6.35 -11.8 10.4 -10.35 13.15 -7.35 16.1 -4.05 17.1 0.6 20.5 9.95 21.25 17.55 22.55 30.65 14.3 31.55 L14.45 31.5 Q16.65 30.15 17.85 27.65 19.4 24.45 19.1 19.9 19.5 17.0 19.25 13.55 L18.9 10.6 Q19.5 22.45 14.6 27.05 13.1 28.45 11.15 29.0 L9.6 29.25 Q13.5 29.3 15.85 27.15 13.25 29.9 8.7 29.45 L8.5 29.25 10.4 28.5 11.0 28.05 11.05 28.05 11.1 28.0 Q11.7 27.25 12.3 25.65 13.5 22.35 13.05 17.75 13.45 14.0 13.4 9.95 13.35 1.75 11.15 -0.1 9.3 -1.65 5.8 -2.8 1.3 -4.35 -2.7 -3.55 -7.85 -2.6 -11.25 2.1 -15.35 7.8 -16.55 18.65 L-16.7 19.7 -16.75 22.3 Q-16.3 26.3 -13.45 28.05 L-12.9 28.5 -10.95 29.25 -11.6 29.9 -11.0 29.25 Q-17.95 30.55 -20.85 24.75 -21.75 22.95 -22.15 20.7 L-22.35 18.75 Q-23.0 23.8 -21.45 27.25 -20.35 29.75 -18.25 31.2 L-17.85 31.35" fill="#ffffff" fill-opacity="0.0" fill-rule="evenodd" stroke="none"/>
    <path d="M14.3 31.55 Q22.55 30.65 21.25 17.55 20.5 9.95 17.1 0.6 16.1 -4.05 13.15 -7.35 10.4 -10.35 6.35 -11.8 2.5 -13.15 -1.8 -13.0 -6.0 -12.8 -9.75 -11.1 -13.5 -9.45 -15.95 -6.35 -17.9 -3.9 -18.9 -0.65 L-19.05 -0.2 -19.2 0.3 -20.9 5.0 Q-22.7 10.65 -23.45 15.45 -25.6 29.6 -17.85 31.35 L-17.5 31.4 -17.25 31.45 -16.5 31.55 -15.95 31.55 -14.55 31.3 -14.45 31.3 -14.4 31.25 -12.05 30.25 -11.6 29.9 -10.95 29.25 -12.9 28.5 -13.45 28.05 Q-13.9 27.45 -13.05 26.95 L-12.95 26.95 -12.95 26.9 -12.75 26.8 -10.0 26.55 -3.5 26.3 -3.5 26.5 -1.25 26.35 1.05 26.5 1.05 26.3 7.55 26.55 10.3 26.8 10.5 26.9 10.55 26.95 10.85 27.15 Q11.25 27.45 11.15 27.8 L11.15 27.85 11.1 28.0 11.0 28.05 10.4 28.5 8.5 29.25 8.7 29.45 8.65 29.45 9.2 30.0 9.4 30.15 10.6 30.85 10.95 31.0 12.15 31.35 13.2 31.55 14.05 31.55 14.3 31.55 Z" fill="none" stroke="#000000" stroke-linecap="square" stroke-linejoin="round" stroke-opacity="0.6" stroke-width="1.0"/>
  </g>
</svg>
