<?xml version="1.0" encoding="UTF-8" standalone="no"?>
<svg xmlns:xlink="http://www.w3.org/1999/xlink" height="6.45px" width="31.05px" xmlns="http://www.w3.org/2000/svg">
  <g transform="matrix(1.0, 0.0, 0.0, 1.0, 2.8, 2.25)">
    <path d="M23.7 0.2 L24.55 0.15 27.05 0.0 27.75 0.65 27.45 3.45 24.65 3.55 24.45 1.7 23.7 0.2 M17.3 0.35 L17.3 3.7 17.15 3.7 -0.25 3.5 -1.8 3.5 -2.25 0.6 -1.6 0.05 17.15 0.35 17.3 0.35" fill="#000000" fill-opacity="0.69803923" fill-rule="evenodd" stroke="none"/>
    <path d="M23.7 0.2 L24.55 0.15 27.05 0.0 27.75 0.65 27.45 3.45 24.65 3.55 M17.3 0.35 L17.15 0.35 -1.6 0.05 -2.25 0.6 -1.8 3.5 -0.25 3.5 17.15 3.7 17.3 3.7" fill="none" stroke="#000000" stroke-linecap="round" stroke-linejoin="miter-clip" stroke-miterlimit="10.0" stroke-width="1.0"/>
  </g>
</svg>
