<?xml version="1.0" encoding="UTF-8" standalone="no"?>
<svg xmlns:xlink="http://www.w3.org/1999/xlink" height="52.1px" width="43.75px" xmlns="http://www.w3.org/2000/svg">
  <g transform="matrix(1.0, 0.0, 0.0, 1.0, 22.0, 8.4)">
    <path d="M16.4 0.55 Q16.6 10.55 18.3 25.95 19.35 36.4 21.25 39.0 9.2 43.2 -1.5 43.2 -12.25 43.2 -21.5 38.85 -19.85 38.1 -18.7 25.95 L-17.45 14.9 Q-16.55 7.0 -16.35 0.55 -8.3 -8.4 -0.5 -8.4 7.35 -8.4 16.4 0.55" fill="#ffffff" fill-opacity="0.0" fill-rule="evenodd" stroke="none"/>
    <path d="M-16.35 0.55 Q-16.55 7.0 -17.45 14.9 L-18.7 25.95 Q-19.85 38.1 -21.5 38.85 -12.25 43.2 -1.5 43.2 9.2 43.2 21.25 39.0 19.35 36.4 18.3 25.95 16.6 10.55 16.4 0.55" fill="none" stroke="#000000" stroke-linecap="round" stroke-linejoin="round" stroke-opacity="0.6" stroke-width="1.0"/>
  </g>
</svg>
