<?xml version="1.0" encoding="UTF-8" standalone="no"?>
<svg xmlns:xlink="http://www.w3.org/1999/xlink" height="11.1px" width="16.95px" xmlns="http://www.w3.org/2000/svg">
  <g transform="matrix(1.0, 0.0, 0.0, 1.0, 7.4, 7.05)">
    <path d="M8.05 -3.7 L8.15 -3.6 8.25 -3.45 8.3 -3.4 8.45 -3.15 6.1 2.55 5.65 1.95 5.5 1.65 7.8 -3.9 8.05 -3.7 M8.7 -2.6 L8.9 -1.9 6.75 2.95 6.7 2.95 8.7 -2.6 M-1.3 -2.2 L-1.3 -2.25 -1.2 -2.1 -1.05 -1.65 -1.0 -1.55 -1.0 -1.5 -4.35 3.5 -4.4 3.5 -1.3 -2.2 M-5.3 3.1 L-5.35 3.1 -6.25 2.15 -2.7 -3.6 -1.7 -2.8 -5.3 3.1" fill="#ffffff" fill-opacity="0.84705883" fill-rule="evenodd" stroke="none"/>
    <path d="M-6.25 2.15 Q-6.9 1.2 -6.9 -0.15 -6.9 -1.7 -6.0 -2.8 -5.1 -3.9 -3.85 -3.9 -2.55 -3.9 -1.7 -2.8 L-1.3 -2.2 -4.4 3.5 Q-4.9 3.4 -5.3 3.1 L-1.7 -2.8 -2.7 -3.6 -6.25 2.15 M-1.0 -1.5 L-0.8 -0.15 Q-0.8 1.4 -1.7 2.45 -2.6 3.55 -3.85 3.55 L-4.35 3.5 -1.0 -1.5" fill="#000000" fill-rule="evenodd" stroke="none"/>
    <path d="M8.05 -3.7 L7.8 -3.9 5.5 1.65 Q5.05 0.7 5.05 -0.6 5.05 -2.1 5.65 -3.15 6.2 -4.2 7.05 -4.2 7.6 -4.2 8.05 -3.7 M5.65 1.95 L6.1 2.55 8.45 -3.15 Q9.05 -2.1 9.05 -0.6 9.05 0.9 8.45 1.95 7.9 3.0 7.05 3.0 L6.7 2.95 Q6.1 2.8 5.65 1.95 M8.9 -1.9 L8.7 -2.6 6.7 2.95 6.75 2.95 8.9 -1.9" fill="#000000" fill-opacity="0.84705883" fill-rule="evenodd" stroke="none"/>
    <path d="M8.45 -3.15 L8.3 -3.4 8.25 -3.45 8.15 -3.6 8.05 -3.7 7.8 -3.9 M5.5 1.65 L5.65 1.95 6.1 2.55 M8.45 -3.15 Q9.05 -2.1 9.05 -0.6 9.05 0.9 8.45 1.95 7.9 3.0 7.05 3.0 L6.7 2.95 Q6.1 2.8 5.65 1.95 M8.05 -3.7 Q7.6 -4.2 7.05 -4.2 6.2 -4.2 5.65 -3.15 5.05 -2.1 5.05 -0.6 5.05 0.7 5.5 1.65 M8.9 -1.9 L8.7 -2.6 M6.7 2.95 L6.75 2.95 M-6.25 2.15 Q-6.9 1.2 -6.9 -0.15 -6.9 -1.7 -6.0 -2.8 -5.1 -3.9 -3.85 -3.9 -2.55 -3.9 -1.7 -2.8 L-1.3 -2.2 -1.3 -2.25 -1.2 -2.1 -1.05 -1.65 -1.0 -1.55 -1.0 -1.5 -0.8 -0.15 Q-0.8 1.4 -1.7 2.45 -2.6 3.55 -3.85 3.55 L-4.35 3.5 -4.4 3.5 Q-4.9 3.4 -5.3 3.1 L-5.35 3.1 -6.25 2.15" fill="none" stroke="#000000" stroke-linecap="round" stroke-linejoin="miter-clip" stroke-miterlimit="10.0" stroke-opacity="0.4" stroke-width="1.0"/>
  </g>
</svg>
