<?xml version="1.0" encoding="UTF-8" standalone="no"?>
<svg xmlns:xlink="http://www.w3.org/1999/xlink" height="58.95px" width="36.7px" xmlns="http://www.w3.org/2000/svg">
  <g transform="matrix(1.0, 0.0, 0.0, 1.0, 13.9, 5.25)">
    <path d="M-12.75 32.35 L-12.2 27.4 Q-12.05 25.6 -12.3 23.7 -12.6 21.75 -13.25 20.35 -12.45 21.15 -10.4 21.3 -8.0 21.45 -6.95 22.0 L-4.3 23.95 Q-3.85 22.45 -5.8 17.5 -7.8 12.55 -4.7 9.7 -1.55 6.9 2.75 6.2 7.05 5.55 8.2 3.65 L9.6 0.75 Q10.65 -1.3 11.45 -2.4 13.9 -5.85 16.6 -3.85 18.1 -2.8 19.15 0.05 L19.95 2.4 21.15 5.45 Q21.85 7.05 22.1 10.2 22.3 13.25 21.45 16.1 20.55 18.95 16.8 23.55 14.05 27.0 9.25 31.0 L2.35 36.45 -0.25 38.3 Q-1.7 39.4 -2.45 40.55 -3.35 41.8 -3.9 43.85 -4.15 47.3 -3.05 49.45 -1.8 51.95 1.45 53.05 L-1.15 52.8 -3.75 52.4 Q-5.2 51.8 -7.05 49.95 L-8.0 48.9 -8.65 47.15 -9.25 45.6 Q-10.65 42.85 -10.5 39.5 -10.45 38.4 -10.0 36.8 L-9.25 34.05 Q-8.7 31.65 -8.8 28.75 -8.9 25.6 -9.7 23.5 L-9.65 25.75 Q-9.65 26.95 -10.15 27.95 L-11.35 30.0 -12.6 32.0 -12.75 32.35" fill="#000000" fill-opacity="0.2" fill-rule="evenodd" stroke="none"/>
    <path d="M-12.75 32.35 L-12.6 32.0 -11.35 30.0 -10.15 27.95 Q-9.65 26.95 -9.65 25.75 L-9.7 23.5 Q-8.9 25.6 -8.8 28.75 -8.7 31.65 -9.25 34.05 L-10.0 36.8 Q-10.45 38.4 -10.5 39.5 -10.65 42.85 -9.25 45.6 L-8.65 47.15 -8.0 48.9 Q-11.7 45.1 -12.6 41.7 -13.15 39.55 -13.05 35.85 L-12.8 32.35 -12.75 32.35" fill="#ffffff" fill-opacity="0.0" fill-rule="evenodd" stroke="none"/>
    <path d="M-8.0 48.9 L-7.05 49.95 Q-5.2 51.8 -3.75 52.4 L-1.15 52.8 1.45 53.05 Q-1.8 51.95 -3.05 49.45 -4.15 47.3 -3.9 43.85 -3.35 41.8 -2.45 40.55 -1.7 39.4 -0.25 38.3 L2.35 36.45 9.25 31.0 Q14.05 27.0 16.8 23.55 20.55 18.95 21.45 16.1 22.3 13.25 22.1 10.2 21.85 7.05 21.15 5.45 L19.95 2.4 19.15 0.05 Q18.1 -2.8 16.6 -3.85 13.9 -5.85 11.45 -2.4 10.65 -1.3 9.6 0.75 L8.2 3.65 Q7.05 5.55 2.75 6.2 -1.55 6.9 -4.7 9.7 -7.8 12.55 -5.8 17.5 -3.85 22.45 -4.3 23.95 L-6.95 22.0 Q-8.0 21.45 -10.4 21.3 -12.45 21.15 -13.25 20.35 -12.6 21.75 -12.3 23.7 -12.05 25.6 -12.2 27.4 L-12.75 32.35 -12.8 32.35 -13.05 35.85 Q-13.15 39.55 -12.6 41.7 -11.7 45.1 -8.0 48.9 Z" fill="none" stroke="#000000" stroke-linecap="square" stroke-linejoin="round" stroke-opacity="0.6" stroke-width="1.0"/>
  </g>
</svg>
