<?xml version="1.0" encoding="UTF-8" standalone="no"?>
<svg xmlns:xlink="http://www.w3.org/1999/xlink" height="32.4px" width="34.5px" xmlns="http://www.w3.org/2000/svg">
  <g transform="matrix(1.0, 0.0, 0.0, 1.0, 10.25, 9.45)">
    <path d="M14.05 -6.35 Q17.6 -2.9 18.1 -0.4 L18.7 2.95 Q18.8 3.75 19.55 5.15 20.1 6.35 20.15 7.95 L21.15 8.05 22.1 8.6 22.1 8.55 22.25 8.7 Q23.1 9.45 23.45 11.45 23.7 12.9 23.55 14.15 L23.3 15.25 23.25 15.4 23.1 15.95 22.9 16.25 Q22.15 17.8 20.15 19.2 L20.05 19.3 18.65 20.1 18.35 20.3 17.8 20.55 10.25 22.3 0.55 21.8 -9.15 20.95 Q-10.35 20.65 -8.35 6.1 -6.35 -8.45 -4.15 -8.35 5.65 -11.25 14.05 -6.35" fill="#000000" fill-opacity="0.2" fill-rule="evenodd" stroke="none"/>
    <path d="M23.1 15.95 Q22.6 17.2 21.5 18.2 L20.15 19.2 Q22.15 17.8 22.9 16.25 L23.1 15.95" fill="#945c47" fill-rule="evenodd" stroke="none"/>
    <path d="M14.05 -6.35 Q17.6 -2.9 18.1 -0.4 L18.7 2.95 Q18.8 3.75 19.55 5.15 20.1 6.35 20.15 7.95 L21.15 8.05 22.1 8.6 22.1 8.55 22.25 8.7 Q23.1 9.45 23.45 11.45 23.7 12.9 23.55 14.15 L23.3 15.25 23.25 15.4 23.1 15.95 22.9 16.25 Q22.15 17.8 20.15 19.2 L20.05 19.3 18.65 20.1 18.35 20.3 17.8 20.55 10.25 22.3 0.55 21.8 -9.15 20.95 Q-10.35 20.65 -8.35 6.1 -6.35 -8.45 -4.15 -8.35" fill="none" stroke="#000000" stroke-linecap="square" stroke-linejoin="round" stroke-opacity="0.6" stroke-width="1.0"/>
  </g>
</svg>
