<?xml version="1.0" encoding="UTF-8" standalone="no"?>
<svg xmlns:xlink="http://www.w3.org/1999/xlink" height="41.75px" width="39.0px" xmlns="http://www.w3.org/2000/svg">
  <g transform="matrix(1.0, 0.0, 0.0, 1.0, 15.4, 12.6)">
    <path d="M-2.95 25.85 Q-14.0 24.85 -14.7 19.3 -15.45 13.7 -5.4 -0.8 4.65 -15.35 9.05 -10.95 12.1 -12.75 15.75 -10.7 18.9 -8.9 20.75 -5.6 22.35 -2.55 22.8 0.55 23.35 4.25 21.8 6.75 L21.75 4.85 Q21.7 3.7 21.35 3.0 21.5 4.5 20.7 5.9 L18.8 8.25 18.8 8.35 18.55 13.35 Q18.5 16.15 19.25 18.3 19.8 20.0 19.95 21.55 20.3 25.15 18.3 26.4 17.65 26.85 15.7 27.2 L12.95 27.7 Q9.75 28.6 7.55 28.5 8.05 26.8 -2.95 25.85" fill="#000000" fill-opacity="0.2" fill-rule="evenodd" stroke="none"/>
    <path d="M-2.95 25.85 Q8.05 26.8 7.55 28.5 9.75 28.6 12.95 27.7 L15.7 27.2 Q17.65 26.85 18.3 26.4 20.3 25.15 19.95 21.55 19.8 20.0 19.25 18.3 18.5 16.15 18.55 13.35 L18.8 8.35 18.8 8.25 20.7 5.9 Q21.5 4.5 21.35 3.0 21.7 3.7 21.75 4.85 L21.8 6.75 Q23.35 4.25 22.8 0.55 22.35 -2.55 20.75 -5.6 18.9 -8.9 15.75 -10.7 12.1 -12.75 9.05 -10.95 4.65 -15.35 -5.4 -0.8 -15.45 13.7 -14.7 19.3 -14.0 24.85 -2.95 25.85 Z" fill="none" stroke="#000000" stroke-linecap="square" stroke-linejoin="round" stroke-opacity="0.6" stroke-width="1.0"/>
  </g>
</svg>
