<?xml version="1.0" encoding="UTF-8" standalone="no"?>
<svg xmlns:xlink="http://www.w3.org/1999/xlink" height="14.2px" width="25.65px" xmlns="http://www.w3.org/2000/svg">
  <g transform="matrix(1.0, 0.0, 0.0, 1.0, 0.55, 2.9)">
    <path d="M21.5 3.5 L19.2 3.2 Q18.6 3.2 17.4 3.85 L16.4 4.45 16.95 5.2 Q17.75 5.95 19.05 6.05 20.3 6.15 21.05 4.85 L21.5 3.5 M22.3 0.0 L23.35 1.0 24.55 2.6 23.6 4.1 22.95 5.3 23.85 8.15 23.85 8.25 21.55 9.3 19.5 7.8 Q17.45 6.1 16.95 5.9 L15.3 5.5 14.1 5.75 13.65 5.9 Q7.25 9.5 6.5 9.5 L0.95 7.8 1.3 5.9 0.6 4.0 0.1 2.75 0.0 2.3 2.4 1.15 Q4.9 0.05 5.75 0.05 6.95 0.05 13.4 2.85 L15.3 2.9 16.2 2.9 17.15 2.85 22.3 0.0 M12.15 5.15 L13.6 4.35 Q9.9 3.2 8.95 3.2 L6.75 3.5 5.2 3.8 6.4 5.0 Q7.8 6.15 9.1 6.05 L12.15 5.15" fill="#ffffff" fill-opacity="0.0" fill-rule="evenodd" stroke="none"/>
    <path d="M22.3 0.0 L17.15 2.85 16.2 2.9 15.3 2.9 13.4 2.85 Q6.95 0.05 5.75 0.05 4.9 0.05 2.4 1.15 L0.0 2.3 0.1 2.75 0.6 4.0 1.3 5.9 0.95 7.8 6.5 9.5 Q7.25 9.5 13.65 5.9 L14.1 5.75 15.3 5.5 16.95 5.9 Q17.45 6.1 19.5 7.8 L21.55 9.3 23.85 8.25 23.85 8.15 22.95 5.3 23.6 4.1 24.55 2.6 23.35 1.0 22.3 0.0" fill="none" stroke="#000000" stroke-linecap="butt" stroke-linejoin="miter-clip" stroke-miterlimit="10.0" stroke-opacity="0.6" stroke-width="1.0"/>
    <path d="M21.5 3.5 L21.05 4.85 Q20.3 6.15 19.05 6.05 17.75 5.95 16.95 5.2 L16.4 4.45 17.4 3.85 Q18.6 3.2 19.2 3.2 L21.5 3.5 M12.15 5.15 L9.1 6.05 Q7.8 6.15 6.4 5.0 L5.2 3.8 6.75 3.5 8.95 3.2 Q9.9 3.2 13.6 4.35 L12.15 5.15" fill="none" stroke="#000000" stroke-linecap="butt" stroke-linejoin="miter-clip" stroke-miterlimit="10.0" stroke-opacity="0.4" stroke-width="1.0"/>
  </g>
</svg>
