<?xml version="1.0" encoding="UTF-8" standalone="no"?>
<svg xmlns:xlink="http://www.w3.org/1999/xlink" height="41.75px" width="33.65px" xmlns="http://www.w3.org/2000/svg">
  <g transform="matrix(1.0, 0.0, 0.0, 1.0, 13.55, 9.9)">
    <path d="M19.0 -0.65 Q20.7 5.15 16.3 13.95 L14.1 14.4 Q11.45 15.05 9.15 16.2 1.8 19.75 0.7 26.5 L-2.85 31.2 Q-6.3 26.5 -5.85 20.7 L-12.9 8.2 -3.65 -6.05 6.85 -9.25 Q12.15 -7.8 15.55 -5.15 18.3 -3.0 19.0 -0.65" fill="#ffffff" fill-opacity="0.0" fill-rule="evenodd" stroke="none"/>
    <path d="M19.0 -0.65 Q20.7 5.15 16.3 13.95 L14.1 14.4 Q11.45 15.05 9.15 16.2 1.8 19.75 0.7 26.5 L-2.85 31.2 Q-6.3 26.5 -5.85 20.7 L-12.9 8.2 -3.65 -6.05 6.85 -9.25 Q12.15 -7.8 15.55 -5.15 18.3 -3.0 19.0 -0.65 Z" fill="none" stroke="#000000" stroke-linecap="square" stroke-linejoin="round" stroke-opacity="0.6" stroke-width="1.0"/>
  </g>
</svg>
