<?xml version="1.0" encoding="UTF-8" standalone="no"?>
<svg xmlns:xlink="http://www.w3.org/1999/xlink" height="52.0px" width="34.9px" xmlns="http://www.w3.org/2000/svg">
  <g transform="matrix(1.0, 0.0, 0.0, 1.0, 10.8, 11.25)">
    <path d="M2.95 -10.65 Q8.3 -9.8 12.85 -7.95 16.95 -6.4 19.2 -4.55 L19.25 -4.55 20.35 -3.7 Q21.6 -2.5 22.4 -0.9 24.95 4.35 22.1 11.95 L21.7 10.0 Q21.1 7.65 19.75 5.65 18.3 9.95 15.8 13.9 L13.0 18.05 11.3 20.7 Q10.7 21.8 10.65 22.85 10.55 23.95 10.95 25.55 L11.2 26.3 12.2 27.95 Q14.05 30.45 16.65 31.0 15.9 31.45 14.8 31.55 12.6 31.7 10.7 29.8 L10.95 30.8 11.05 33.3 Q10.7 37.4 7.3 40.25 7.5 38.25 6.95 35.85 5.85 31.1 1.95 29.1 -3.05 26.65 -5.85 22.75 -9.0 18.45 -10.0 11.6 -10.6 8.0 -9.9 3.9 -9.25 -0.25 -7.55 -3.6 -5.75 -7.25 -3.2 -9.1 -0.35 -11.1 2.95 -10.65" fill="#000000" fill-opacity="0.2" fill-rule="evenodd" stroke="none"/>
    <path d="M2.95 -10.65 Q-0.35 -11.1 -3.2 -9.1 -5.75 -7.25 -7.55 -3.6 -9.25 -0.25 -9.9 3.9 -10.6 8.0 -10.0 11.6 -9.0 18.45 -5.85 22.75 -3.05 26.65 1.95 29.1 5.85 31.1 6.95 35.85 7.5 38.25 7.3 40.25 10.7 37.4 11.05 33.3 L10.95 30.8 10.7 29.8 Q12.6 31.7 14.8 31.55 15.9 31.45 16.65 31.0 14.05 30.45 12.2 27.95 L11.2 26.3 10.95 25.55 Q10.55 23.95 10.65 22.85 10.7 21.8 11.3 20.7 L13.0 18.05 15.8 13.9 Q18.3 9.95 19.75 5.65 21.1 7.65 21.7 10.0 L22.1 11.95 Q24.95 4.35 22.4 -0.9 21.6 -2.5 20.35 -3.7 L19.25 -4.55 19.2 -4.55 Q16.95 -6.4 12.85 -7.95 8.3 -9.8 2.95 -10.65 Z" fill="none" stroke="#000000" stroke-linecap="round" stroke-linejoin="round" stroke-opacity="0.6" stroke-width="1.0"/>
  </g>
</svg>
