<?xml version="1.0" encoding="UTF-8" standalone="no"?>
<svg xmlns:xlink="http://www.w3.org/1999/xlink" height="68.1px" width="41.05px" xmlns="http://www.w3.org/2000/svg">
  <g transform="matrix(1.0, 0.0, 0.0, 1.0, 13.6, 9.3)">
    <path d="M11.55 45.55 L10.65 44.15 10.65 44.9 10.35 46.9 Q9.65 50.2 7.4 52.8 7.75 50.95 7.6 48.6 7.3 43.9 4.7 41.45 2.3 39.25 -0.75 38.25 L-2.65 37.7 Q-3.4 37.4 -3.65 37.0 L-5.65 32.7 -9.25 24.05 Q-14.1 11.3 -12.6 7.15 -11.1 3.05 -3.95 -3.2 L2.9 -8.65 5.8 -8.1 Q9.25 -7.3 12.15 -6.0 20.9 -2.15 21.1 4.5 18.3 1.0 16.05 2.25 L16.45 4.15 17.05 8.95 17.1 14.1 Q16.8 18.55 15.3 21.95 12.4 28.35 11.3 33.3 9.9 39.25 10.75 44.25 L11.3 45.05 11.55 45.55" fill="#000000" fill-opacity="0.4" fill-rule="evenodd" stroke="none"/>
    <path d="M18.35 44.95 L18.4 45.35 Q18.55 46.75 18.3 48.1 L18.25 48.5 18.1 49.0 17.95 49.55 17.35 50.95 Q15.8 54.1 12.25 56.4 L9.05 58.1 8.9 58.15 Q10.8 56.75 12.0 54.3 13.85 49.95 11.55 45.55 L11.3 45.05 10.75 44.25 Q9.9 39.25 11.3 33.3 12.4 28.35 15.3 21.95 16.8 18.55 17.1 14.1 L17.15 12.8 17.75 9.25 18.1 14.05 Q18.3 19.4 17.55 22.4 L16.3 25.25 Q15.0 28.65 14.75 31.15 L15.0 30.4 15.85 28.6 Q17.45 25.8 19.9 24.15 L18.95 25.7 Q17.9 27.65 17.25 29.95 15.15 37.2 18.15 44.65 L18.35 44.95" fill="#000000" fill-opacity="0.29803923" fill-rule="evenodd" stroke="none"/>
    <path d="M21.1 4.5 L21.1 5.1 21.55 8.3 22.25 16.0 Q22.95 27.85 20.5 32.5 19.15 35.15 19.3 38.05 19.45 40.6 20.75 42.7 21.95 44.7 23.6 45.4 25.35 46.15 26.8 45.05 25.45 46.15 23.7 46.55 20.2 47.4 18.15 43.85 L18.35 44.95 18.15 44.65 Q15.15 37.2 17.25 29.95 17.9 27.65 18.95 25.7 L19.9 24.15 Q17.45 25.8 15.85 28.6 L15.0 30.4 14.75 31.15 Q15.0 28.65 16.3 25.25 L17.55 22.4 Q18.3 19.4 18.1 14.05 L17.75 9.25 17.15 12.8 17.1 14.1 17.05 8.95 16.45 4.15 16.05 2.25 Q18.3 1.0 21.1 4.5" fill="#000000" fill-opacity="0.2" fill-rule="evenodd" stroke="none"/>
    <path d="M11.55 45.55 L10.65 44.15 10.65 44.9 10.35 46.9 Q9.65 50.2 7.4 52.8 7.75 50.95 7.6 48.6 7.3 43.9 4.7 41.45 2.3 39.25 -0.75 38.25 L-2.65 37.7 Q-3.4 37.4 -3.65 37.0 L-5.65 32.7 -9.25 24.05 Q-14.1 11.3 -12.6 7.15 -11.1 3.05 -3.95 -3.2 L2.9 -8.65 5.8 -8.1 Q9.25 -7.3 12.15 -6.0 20.9 -2.15 21.1 4.5 L21.1 5.1 21.55 8.3 22.25 16.0 Q22.95 27.85 20.5 32.5 19.15 35.15 19.3 38.05 19.45 40.6 20.75 42.7 21.95 44.7 23.6 45.4 25.35 46.15 26.8 45.05 25.45 46.15 23.7 46.55 20.2 47.4 18.15 43.85 L18.35 44.95 18.4 45.35 Q18.55 46.75 18.3 48.1 L18.25 48.5 18.1 49.0 17.95 49.55 17.35 50.95 Q15.8 54.1 12.25 56.4 L9.05 58.1 8.9 58.15 Q10.8 56.75 12.0 54.3 13.85 49.95 11.55 45.55 Z" fill="none" stroke="#000000" stroke-linecap="square" stroke-linejoin="round" stroke-opacity="0.6" stroke-width="1.0"/>
  </g>
</svg>
