<?xml version="1.0" encoding="UTF-8" standalone="no"?>
<svg xmlns:xlink="http://www.w3.org/1999/xlink" height="15.65px" width="13.6px" xmlns="http://www.w3.org/2000/svg">
  <g transform="matrix(1.0, 0.0, 0.0, 1.0, 6.5, -1.45)">
    <path d="M-0.7 15.45 Q-4.65 9.05 -6.0 2.65 L-3.1 3.95 -1.1 1.95 1.8 3.6 3.85 2.6 5.55 4.6 6.6 7.2 Q6.0 7.55 5.35 7.85 L6.55 9.85 4.9 11.15 5.25 13.4 3.25 13.8 2.45 16.6 -0.7 15.45" fill="#ffffff" fill-opacity="0.0" fill-rule="evenodd" stroke="none"/>
    <path d="M2.45 16.6 L3.25 13.8 5.25 13.4 4.9 11.15 6.55 9.85 5.35 7.85 Q6.0 7.55 6.6 7.2 L5.55 4.6 3.85 2.6 1.8 3.6 -1.1 1.95 -3.1 3.95 -6.0 2.65 Q-4.65 9.05 -0.7 15.45" fill="none" stroke="#000000" stroke-linecap="round" stroke-linejoin="round" stroke-opacity="0.6" stroke-width="1.0"/>
    <path d="M-0.7 15.45 L2.45 16.6 Z" fill="none" stroke="#000000" stroke-linecap="round" stroke-linejoin="round" stroke-opacity="0.6" stroke-width="1.0"/>
  </g>
</svg>
