<?xml version="1.0" encoding="UTF-8" standalone="no"?>
<svg xmlns:xlink="http://www.w3.org/1999/xlink" height="58.1px" width="47.1px" xmlns="http://www.w3.org/2000/svg">
  <g transform="matrix(1.0, 0.0, 0.0, 1.0, 32.35, 9.75)">
    <path d="M-28.4 14.95 Q-28.75 13.9 -28.45 12.6 -28.2 11.25 -27.45 10.35 L-26.9 9.95 Q-0.1 -21.75 12.65 -2.5 L14.75 1.2 Q9.65 5.35 10.0 8.5 L10.45 12.8 10.5 13.25 10.05 14.7 10.15 16.3 10.15 16.75 10.3 16.85 10.7 17.35 11.35 18.65 11.4 20.25 Q11.1 21.05 10.65 21.25 L10.8 21.35 Q11.7 22.05 11.9 23.35 L12.05 24.35 Q12.35 24.35 12.85 24.9 L13.45 26.1 13.4 27.0 13.2 27.4 12.75 27.95 12.8 28.0 13.05 28.9 13.2 30.05 13.45 30.2 13.6 30.45 13.95 32.15 13.9 32.4 13.9 32.85 13.6 34.0 13.2 34.5 13.1 34.6 13.55 35.8 Q13.65 36.4 13.15 37.1 L12.45 37.9 12.65 39.25 12.35 40.55 10.7 41.95 10.65 42.5 Q10.55 43.1 10.1 43.35 L9.1 43.6 Q8.65 43.6 8.35 43.15 L8.2 42.4 7.35 42.1 7.3 42.1 7.15 42.3 Q6.85 42.55 6.55 42.6 L6.1 43.2 Q5.75 43.6 5.25 43.5 L4.9 43.4 Q4.9 45.4 3.85 45.35 L2.4 45.2 1.55 46.65 1.15 47.0 Q0.55 47.4 -0.2 47.6 L-0.95 47.6 -1.2 47.6 Q-2.7 47.35 -3.6 46.3 L-3.85 46.4 Q-4.7 47.2 -5.85 47.15 -6.7 47.1 -7.35 46.55 L-7.9 47.45 Q-8.45 47.9 -9.25 47.85 -10.0 47.8 -10.5 47.25 -11.05 46.65 -11.0 45.85 L-10.95 45.8 -11.35 45.8 Q-12.25 45.75 -12.8 45.15 L-12.9 45.05 Q-13.0 45.7 -13.6 46.15 -14.35 46.8 -15.3 46.7 -16.25 46.65 -16.9 45.9 L-17.45 44.8 -18.3 44.95 Q-19.15 44.9 -19.8 44.2 L-20.25 43.0 -20.95 43.0 Q-22.35 42.9 -23.3 41.8 L-23.45 42.0 Q-23.95 42.4 -24.6 42.35 -25.3 42.3 -25.65 41.85 -26.05 41.45 -26.05 41.05 L-27.15 41.3 Q-28.05 41.2 -28.6 40.55 -29.1 39.95 -29.05 39.2 L-30.1 39.45 Q-30.7 39.4 -31.15 38.95 -31.55 38.45 -31.55 37.85 -31.6 37.1 -31.25 36.75 L-31.45 36.5 Q-31.85 35.75 -31.6 34.75 L-31.2 33.65 -31.65 32.9 Q-32.0 32.45 -31.7 31.4 -31.45 30.45 -30.7 29.4 L-29.75 28.5 -29.25 28.25 -29.35 28.0 -29.55 27.65 Q-30.0 26.7 -29.75 25.5 -29.5 24.35 -28.8 23.55 L-28.4 23.25 -29.1 22.5 Q-29.5 21.7 -29.35 20.9 -29.15 20.0 -28.55 19.45 -27.95 18.95 -27.3 19.0 L-27.25 18.75 -28.2 18.1 Q-28.55 17.4 -28.4 16.65 L-27.95 15.75 -28.35 15.1 -28.4 14.95" fill="#ffffff" fill-opacity="0.0" fill-rule="evenodd" stroke="none"/>
    <path d="M10.5 13.25 L10.05 14.7 10.15 16.3 10.15 16.75 10.3 16.85 10.7 17.35 11.35 18.65 11.4 20.25 Q11.1 21.05 10.65 21.25 L10.8 21.35 Q11.7 22.05 11.9 23.35 L12.05 24.35 Q12.35 24.35 12.85 24.9 L13.45 26.1 13.4 27.0 13.2 27.4 12.75 27.95 12.8 28.0 13.05 28.9 13.2 30.05 13.45 30.2 13.6 30.45 13.95 32.15 13.9 32.4 13.9 32.85 13.6 34.0 13.2 34.5 13.1 34.6 13.55 35.8 Q13.65 36.4 13.15 37.1 L12.45 37.9 12.65 39.25 12.35 40.55 10.7 41.95 10.65 42.5 Q10.55 43.1 10.1 43.35 L9.1 43.6 Q8.65 43.6 8.35 43.15 L8.2 42.4 7.35 42.1 7.3 42.1 7.15 42.3 Q6.85 42.55 6.55 42.6 L6.1 43.2 Q5.75 43.6 5.25 43.5 L4.9 43.4 Q4.9 45.4 3.85 45.35 L2.4 45.2 1.55 46.65 1.15 47.0 Q0.55 47.4 -0.2 47.6 L-0.95 47.6 -1.2 47.6 Q-2.7 47.35 -3.6 46.3 L-3.85 46.4 Q-4.7 47.2 -5.85 47.15 -6.7 47.1 -7.35 46.55 L-7.9 47.45 Q-8.45 47.9 -9.25 47.85 -10.0 47.8 -10.5 47.25 -11.05 46.65 -11.0 45.85 L-10.95 45.8 -11.35 45.8 Q-12.25 45.75 -12.8 45.15 L-12.9 45.05 Q-13.0 45.7 -13.6 46.15 -14.35 46.8 -15.3 46.7 -16.25 46.65 -16.9 45.9 L-17.45 44.8 -18.3 44.95 Q-19.15 44.9 -19.8 44.2 L-20.25 43.0 -20.95 43.0 Q-22.35 42.9 -23.3 41.8 L-23.45 42.0 Q-23.95 42.4 -24.6 42.35 -25.3 42.3 -25.65 41.85 -26.05 41.45 -26.05 41.05 L-27.15 41.3 Q-28.05 41.2 -28.6 40.55 -29.1 39.95 -29.05 39.2 L-30.1 39.45 Q-30.7 39.4 -31.15 38.95 -31.55 38.45 -31.55 37.85 -31.6 37.1 -31.25 36.75 L-31.45 36.5 Q-31.85 35.75 -31.6 34.75 L-31.2 33.65 -31.65 32.9 Q-32.0 32.45 -31.7 31.4 -31.45 30.45 -30.7 29.4 L-29.75 28.5 -29.25 28.25 -29.35 28.0 -29.55 27.65 Q-30.0 26.7 -29.75 25.5 -29.5 24.35 -28.8 23.55 L-28.4 23.25 -29.1 22.5 Q-29.5 21.7 -29.35 20.9 -29.15 20.0 -28.55 19.45 -27.95 18.95 -27.3 19.0 L-27.25 18.75 -28.2 18.1 Q-28.55 17.4 -28.4 16.65 L-27.95 15.75 -28.35 15.1 -28.4 14.95" fill="none" stroke="#000000" stroke-linecap="round" stroke-linejoin="round" stroke-opacity="0.6" stroke-width="1.0"/>
  </g>
</svg>
