<?xml version="1.0" encoding="UTF-8" standalone="no"?>
<svg xmlns:xlink="http://www.w3.org/1999/xlink" height="83.5px" width="48.4px" xmlns="http://www.w3.org/2000/svg">
  <g transform="matrix(1.0, 0.0, 0.0, 1.0, 28.1, 9.55)">
    <path d="M-19.45 13.7 Q-8.95 -10.4 5.5 -9.5 L6.9 -9.35 11.5 -8.35 13.1 -7.9 16.75 -6.8 Q16.9 -4.55 16.6 -2.75 L16.3 -1.5 15.85 -0.45 Q14.65 2.05 16.1 5.15 17.5 8.2 16.3 11.5 15.05 14.75 16.0 17.65 16.5 19.2 16.15 22.0 16.6 29.2 16.2 32.05 L15.55 37.65 Q15.3 40.4 16.55 43.05 17.75 45.6 19.0 49.8 20.3 53.95 19.55 59.1 18.8 64.25 14.3 67.2 L5.95 71.8 Q2.1 73.45 -1.75 73.45 -10.5 73.45 -22.2 68.0 -28.55 64.8 -27.4 57.55 -26.9 54.35 -26.25 52.95 -24.95 50.1 -24.55 47.85 -24.2 45.9 -24.65 43.5 -25.15 40.55 -25.1 38.65 -25.05 36.6 -24.6 34.75 L-24.25 33.35 -22.7 28.5 Q-21.3 23.65 -21.3 21.0 -21.3 17.7 -19.45 13.7" fill="#ffffff" fill-opacity="0.0" fill-rule="evenodd" stroke="none"/>
    <path d="M-19.45 13.7 Q-21.3 17.7 -21.3 21.0 -21.3 23.65 -22.7 28.5 L-24.25 33.35 -24.6 34.75 Q-25.05 36.6 -25.1 38.65 -25.15 40.55 -24.65 43.5 -24.2 45.9 -24.55 47.85 -24.95 50.1 -26.25 52.95 -26.9 54.35 -27.4 57.55 -28.55 64.8 -22.2 68.0 -10.5 73.45 -1.75 73.45 2.1 73.45 5.95 71.8 L14.3 67.2 Q18.8 64.25 19.55 59.1 20.3 53.95 19.0 49.8 17.75 45.6 16.55 43.05 15.3 40.4 15.55 37.65 L16.2 32.05 Q16.6 29.2 16.15 22.0 16.5 19.2 16.0 17.65 15.05 14.75 16.3 11.5 17.5 8.2 16.1 5.15 14.65 2.05 15.85 -0.45 L16.3 -1.5" fill="none" stroke="#000000" stroke-linecap="round" stroke-linejoin="round" stroke-opacity="0.6" stroke-width="1.0"/>
  </g>
</svg>
