<?xml version="1.0" encoding="UTF-8" standalone="no"?>
<svg xmlns:xlink="http://www.w3.org/1999/xlink" height="51.35px" width="42.7px" xmlns="http://www.w3.org/2000/svg">
  <g transform="matrix(1.0, 0.0, 0.0, 1.0, 27.6, 25.35)">
    <path d="M-19.15 -7.7 L-18.0 -11.55 -17.3 -13.8 -16.75 -15.5 Q-16.55 -16.2 -15.4 -17.15 L-13.75 -18.45 -9.8 -21.45 -7.85 -23.0 Q-4.5 -25.6 0.15 -25.3 L0.2 -25.3 Q2.25 -25.1 4.2 -24.0 L6.75 -22.15 12.0 -21.0 Q17.15 -19.9 13.8 -14.95 10.45 -10.05 10.35 -7.8 L10.35 -7.15 Q10.5 -5.1 11.7 -2.35 12.75 0.05 13.6 3.9 L14.15 6.7 Q15.1 12.5 13.45 16.75 L12.2 19.55 Q11.6 21.0 11.55 22.0 8.0 25.8 0.45 25.45 L0.05 25.45 Q-10.0 25.1 -15.9 22.9 -20.9 22.05 -23.3 20.1 L-27.1 16.8 Q-25.75 15.05 -24.05 11.0 L-21.85 5.4 Q-21.4 4.4 -20.95 -0.1 -20.5 -4.55 -19.9 -5.75 L-19.15 -7.7" fill="#ffffff" fill-opacity="0.0" fill-rule="evenodd" stroke="none"/>
    <path d="M10.35 -7.15 Q10.5 -5.1 11.7 -2.35 12.75 0.05 13.6 3.9 L14.15 6.7 Q15.1 12.5 13.45 16.75 L12.2 19.55 Q11.6 21.0 11.55 22.0 8.0 25.8 0.45 25.45 L0.05 25.45 Q-10.0 25.1 -15.9 22.9 -20.9 22.05 -23.3 20.1 L-27.1 16.8 Q-25.75 15.05 -24.05 11.0 L-21.85 5.4 Q-21.4 4.4 -20.95 -0.1 -20.5 -4.55 -19.9 -5.75 L-19.15 -7.7" fill="none" stroke="#000000" stroke-linecap="round" stroke-linejoin="round" stroke-opacity="0.6" stroke-width="1.0"/>
  </g>
</svg>
