<?xml version="1.0" encoding="UTF-8" standalone="no"?>
<svg xmlns:xlink="http://www.w3.org/1999/xlink" height="63.15px" width="49.2px" xmlns="http://www.w3.org/2000/svg">
  <g transform="matrix(1.0, 0.0, 0.0, 1.0, 33.25, 22.75)">
    <path d="M-15.65 -22.25 L12.6 -20.25 12.7 -19.05 Q12.85 -16.75 12.0 -13.1 11.35 -10.6 10.9 -3.95 L10.75 -0.95 10.4 1.75 Q10.45 4.4 11.05 6.05 11.55 7.6 13.7 9.9 L11.75 9.25 10.55 8.3 10.4 11.05 10.45 14.1 10.6 16.35 10.95 17.9 Q12.0 20.85 14.9 22.3 L15.45 22.5 Q13.9 22.45 12.4 21.75 L11.1 20.95 11.35 22.5 11.65 24.8 11.75 25.15 11.9 25.9 Q12.6 30.35 9.85 34.1 7.1 37.85 2.6 38.6 L-1.9 38.5 -1.05 38.35 Q3.65 37.6 6.35 33.75 8.85 30.35 8.45 25.9 L8.45 26.25 Q8.55 30.15 5.85 32.95 3.05 35.8 -0.8 35.95 L-2.55 36.55 -2.95 36.65 Q-5.7 39.15 -9.55 39.75 L-14.65 39.6 -13.7 39.5 Q-8.35 38.65 -5.25 34.35 -2.75 30.9 -2.75 26.9 -2.95 28.05 -3.4 29.2 -4.9 33.2 -8.8 34.95 L-10.25 35.5 Q-12.2 37.45 -15.05 38.5 -17.55 39.4 -20.0 39.35 L-19.05 39.1 Q-14.2 37.2 -11.85 32.7 -9.9 28.85 -10.75 26.0 -10.55 29.35 -12.6 32.15 -14.95 35.4 -18.8 36.0 L-22.7 35.9 -22.0 35.75 Q-17.95 35.1 -15.55 31.8 -13.25 28.6 -13.8 24.6 -14.45 26.9 -16.05 28.95 -19.1 32.7 -23.9 33.2 L-28.65 32.75 -27.75 32.7 Q-22.8 32.2 -19.7 28.4 -16.55 24.5 -17.05 19.6 L-17.25 20.55 Q-18.3 24.4 -21.8 26.4 -25.3 28.45 -29.2 27.4 -31.2 26.85 -32.75 25.7 L-32.05 25.9 Q-28.0 26.95 -24.45 24.9 -21.3 23.05 -20.05 19.7 L-19.8 18.85 -19.55 18.15 Q-21.4 19.25 -23.65 19.65 L-28.15 19.55 -27.3 19.4 Q-22.6 18.65 -19.9 14.8 L-18.4 12.1 -18.25 11.05 -18.05 9.05 -17.95 7.75 Q-19.1 8.8 -20.6 9.3 L-23.7 9.65 -23.15 9.45 Q-20.0 8.4 -18.5 5.0 -17.95 3.75 -17.7 2.45 L-17.7 -0.35 -17.7 -0.95 -17.7 -3.95 -17.75 -4.95 Q-18.05 -18.15 -15.65 -22.25 M8.4 25.3 L8.45 25.9 8.4 25.3" fill="#ffffff" fill-opacity="0.0" fill-rule="evenodd" stroke="none"/>
    <path d="M12.0 -13.1 Q11.35 -10.6 10.9 -3.95 L10.75 -0.95 10.4 1.75 Q10.45 4.4 11.05 6.05 11.55 7.6 13.7 9.9 M10.55 8.3 L10.4 11.05 10.45 14.1 10.6 16.35 10.95 17.9 Q12.0 20.85 14.9 22.3 L15.45 22.5 M11.1 20.95 L11.35 22.5 11.65 24.8 11.75 25.15 11.9 25.9 Q12.6 30.35 9.85 34.1 7.1 37.85 2.6 38.6 L-1.9 38.5 -1.05 38.35 Q3.65 37.6 6.35 33.75 8.85 30.35 8.45 25.9 L8.4 25.3 M-14.65 39.6 L-13.7 39.5 Q-8.35 38.65 -5.25 34.35 -2.75 30.9 -2.75 26.9 M-20.0 39.35 L-19.05 39.1 Q-14.2 37.2 -11.85 32.7 -9.9 28.85 -10.75 26.0 M-22.7 35.9 L-22.0 35.75 Q-17.95 35.1 -15.55 31.8 -13.25 28.6 -13.8 24.6 M-28.65 32.75 L-27.75 32.7 Q-22.8 32.2 -19.7 28.4 -16.55 24.5 -17.05 19.6 M-32.75 25.7 L-32.05 25.9 Q-28.0 26.95 -24.45 24.9 -21.3 23.05 -20.05 19.7 L-19.8 18.85 -19.55 18.15 M-28.15 19.55 L-27.3 19.4 Q-22.6 18.65 -19.9 14.8 L-18.4 12.1 -18.25 11.05 -18.05 9.05 -17.95 7.75 M-23.7 9.65 L-23.15 9.45 Q-20.0 8.4 -18.5 5.0 -17.95 3.75 -17.7 2.45 L-17.7 -0.35 -17.7 -0.95 -17.7 -3.95 -17.75 -4.95 Q-18.05 -18.15 -15.65 -22.25" fill="none" stroke="#000000" stroke-linecap="round" stroke-linejoin="round" stroke-opacity="0.6" stroke-width="1.0"/>
    <path d="M13.7 9.9 L11.75 9.25 10.55 8.3 M15.45 22.5 Q13.9 22.45 12.4 21.75 L11.1 20.95 M8.45 25.9 L8.45 26.25 Q8.55 30.15 5.85 32.95 3.05 35.8 -0.8 35.95 L-2.55 36.55 -2.95 36.65 Q-5.7 39.15 -9.55 39.75 L-14.65 39.6 M-2.75 26.9 Q-2.95 28.05 -3.4 29.2 -4.9 33.2 -8.8 34.95 L-10.25 35.5 Q-12.2 37.45 -15.05 38.5 -17.55 39.4 -20.0 39.35 M-10.75 26.0 Q-10.55 29.35 -12.6 32.15 -14.95 35.4 -18.8 36.0 L-22.7 35.9 M-13.8 24.6 Q-14.45 26.9 -16.05 28.95 -19.1 32.7 -23.9 33.2 L-28.65 32.75 M-17.05 19.6 L-17.25 20.55 Q-18.3 24.4 -21.8 26.4 -25.3 28.45 -29.2 27.4 -31.2 26.85 -32.75 25.7 M-19.55 18.15 Q-21.4 19.25 -23.65 19.65 L-28.15 19.55 M-17.95 7.75 Q-19.1 8.8 -20.6 9.3 L-23.7 9.65" fill="none" stroke="#000000" stroke-linecap="round" stroke-linejoin="round" stroke-opacity="0.6" stroke-width="1.0"/>
  </g>
</svg>
