<?xml version="1.0" encoding="UTF-8" standalone="no"?>
<svg xmlns:xlink="http://www.w3.org/1999/xlink" height="38.5px" width="23.5px" xmlns="http://www.w3.org/2000/svg">
  <g transform="matrix(1.0, 0.0, 0.0, 1.0, 29.0, 7.5)">
    <path d="M-22.65 22.4 L-22.15 19.75 Q-22.0 17.95 -22.25 16.05 -22.5 14.15 -23.05 12.45 L-24.25 9.85 -25.55 7.4 Q-27.1 4.45 -27.2 2.0 -27.2 0.35 -26.6 -1.45 -26.05 -3.1 -25.1 -4.5 -23.3 -6.4 -21.05 -6.75 -18.85 -7.1 -17.15 -6.2 -15.3 -3.6 -15.4 1.05 L-15.6 4.85 -15.7 8.3 Q-16.35 6.8 -16.45 3.8 L-16.75 -0.9 Q-16.65 0.1 -16.9 1.75 L-17.25 4.4 Q-17.5 6.7 -17.35 8.5 -17.2 10.5 -16.55 12.55 -17.75 10.7 -18.55 7.55 -19.35 4.45 -19.25 2.15 -19.75 4.25 -19.55 6.45 L-18.75 10.7 -17.85 14.5 Q-17.45 16.95 -18.2 18.15 L-18.95 15.35 Q-19.25 13.35 -19.9 12.5 -19.4 14.0 -19.35 16.1 L-19.55 19.8 Q-19.9 17.6 -20.3 16.3 -20.85 14.4 -21.75 13.05 L-20.85 18.1 Q-20.5 21.15 -21.35 23.1 -21.8 24.15 -22.35 24.6 -22.8 24.9 -23.55 25.0 L-23.45 24.75 Q-22.85 23.75 -22.65 22.4 M-16.0 -5.4 L-15.8 -5.2 Q-14.3 -3.75 -13.95 -1.6 L-14.55 -3.4 Q-15.1 -4.55 -16.0 -5.4 M-23.65 -4.4 L-24.95 -2.45 Q-26.7 0.95 -25.45 5.0 L-25.45 3.05 Q-25.25 0.85 -24.2 -0.6 L-24.4 0.0 -24.4 1.4 -24.2 0.0 Q-23.65 -2.3 -21.2 -4.7 L-22.0 -4.35 -23.65 -2.65 -23.7 -3.4 Q-23.6 -4.35 -23.0 -5.05 L-23.65 -4.4" fill="#ffffff" fill-opacity="0.0" fill-rule="evenodd" stroke="none"/>
    <path d="M-23.65 -4.4 L-23.0 -5.05 Q-23.6 -4.35 -23.7 -3.4 L-23.65 -2.65 -22.0 -4.35 -21.2 -4.7 Q-23.65 -2.3 -24.2 0.0 L-24.4 1.4 -24.4 0.0 -24.2 -0.6 Q-25.25 0.85 -25.45 3.05 L-25.45 5.0 Q-26.7 0.95 -24.95 -2.45 L-23.65 -4.4" fill="#ffffff" fill-opacity="0.2" fill-rule="evenodd" stroke="none"/>
    <path d="M-22.65 22.4 L-22.6 22.0 Q-22.35 19.15 -23.45 16.4 L-24.6 14.0 -26.0 11.55 Q-27.5 8.7 -28.05 6.55 -28.65 3.85 -28.05 1.1 -27.75 -0.5 -26.95 -2.0 L-25.0 -4.65 -25.1 -4.5 Q-26.05 -3.1 -26.6 -1.45 -27.2 0.35 -27.2 2.0 -27.1 4.45 -25.55 7.4 L-24.25 9.85 -23.05 12.45 Q-22.5 14.15 -22.25 16.05 -22.0 17.95 -22.15 19.75 L-22.65 22.4 M-17.15 -6.2 L-16.2 -5.55 -16.0 -5.4 Q-15.1 -4.55 -14.55 -3.4 L-13.95 -1.6 -13.85 0.4 Q-14.05 3.2 -12.65 5.1 L-11.2 6.8 -9.95 8.2 Q-7.85 11.0 -7.0 13.7 L-6.7 14.85 -6.4 16.2 Q-6.15 17.9 -6.15 19.75 L-7.4 23.75 -9.45 27.05 Q-11.05 29.2 -12.4 29.8 -11.15 26.6 -10.95 24.05 -11.6 27.8 -14.85 29.3 -17.1 30.3 -21.2 30.35 -19.2 29.9 -17.9 28.65 -16.75 27.6 -15.9 25.75 L-17.35 27.15 Q-18.2 27.65 -19.05 27.55 -17.95 26.95 -17.05 25.1 -16.3 23.4 -16.1 21.5 -16.95 23.85 -18.6 25.8 -20.4 27.95 -22.3 28.6 -20.6 27.65 -19.75 26.3 -18.95 25.1 -18.35 22.8 -19.35 25.25 -21.0 26.85 -23.0 28.75 -25.05 28.3 L-23.45 26.7 Q-22.5 25.7 -22.05 24.8 -23.0 26.5 -24.35 27.15 -25.9 27.85 -27.3 26.9 L-26.2 26.85 -25.55 26.55 -24.5 25.95 -24.15 25.65 -23.65 25.0 -23.45 24.75 -23.55 25.0 Q-22.8 24.9 -22.35 24.6 -21.8 24.15 -21.35 23.1 -20.5 21.15 -20.85 18.1 L-21.75 13.05 Q-20.85 14.4 -20.3 16.3 -19.9 17.6 -19.55 19.8 L-19.35 16.1 Q-19.4 14.0 -19.9 12.5 -19.25 13.35 -18.95 15.35 L-18.2 18.15 Q-17.45 16.95 -17.85 14.5 L-18.75 10.7 -19.55 6.45 Q-19.75 4.25 -19.25 2.15 -19.35 4.45 -18.55 7.55 -17.75 10.7 -16.55 12.55 -17.2 10.5 -17.35 8.5 -17.5 6.7 -17.25 4.4 L-16.9 1.75 Q-16.65 0.1 -16.75 -0.9 L-16.45 3.8 Q-16.35 6.8 -15.7 8.3 L-15.6 4.85 -15.4 1.05 Q-15.3 -3.6 -17.15 -6.2" fill="#000000" fill-opacity="0.2" fill-rule="evenodd" stroke="none"/>
    <path d="M-8.35 7.4 L-8.55 7.2 -8.6 7.1 -8.35 7.4" fill="#7a4a38" fill-rule="evenodd" stroke="none"/>
    <path d="M-25.1 -4.5 L-25.0 -4.65 -26.95 -2.0 Q-27.75 -0.5 -28.05 1.1 -28.65 3.85 -28.05 6.55 -27.5 8.7 -26.0 11.55 L-24.6 14.0 -23.45 16.4 Q-22.35 19.15 -22.6 22.0 L-22.65 22.4 Q-22.85 23.75 -23.45 24.75 L-23.65 25.0 -24.15 25.65 -24.5 25.95 -25.55 26.55 -26.2 26.85 -27.3 26.9 M-25.1 -4.5 Q-23.3 -6.4 -21.05 -6.75 -18.85 -7.1 -17.15 -6.2 L-16.2 -5.55 -16.0 -5.4 -15.8 -5.2 Q-14.3 -3.75 -13.95 -1.6 L-13.85 0.4 Q-14.05 3.2 -12.65 5.1 L-11.2 6.8 -9.95 8.2 Q-7.85 11.0 -7.0 13.7 L-6.7 14.85 -6.4 16.2 Q-6.15 17.9 -6.15 19.75 L-7.4 23.75 -9.45 27.05 Q-11.05 29.2 -12.4 29.8" fill="none" stroke="#000000" stroke-linecap="square" stroke-linejoin="round" stroke-opacity="0.6" stroke-width="1.0"/>
    <path d="M-12.4 29.8 Q-11.15 26.6 -10.95 24.05 -11.6 27.8 -14.85 29.3 -17.1 30.3 -21.2 30.35 -19.2 29.9 -17.9 28.65 -16.75 27.6 -15.9 25.75 L-17.35 27.15 Q-18.2 27.65 -19.05 27.55 -17.95 26.95 -17.05 25.1 -16.3 23.4 -16.1 21.5 -16.95 23.85 -18.6 25.8 -20.4 27.95 -22.3 28.6 -20.6 27.65 -19.75 26.3 -18.95 25.1 -18.35 22.8 -19.35 25.25 -21.0 26.85 -23.0 28.75 -25.05 28.3 L-23.45 26.7 Q-22.5 25.7 -22.05 24.8 -23.0 26.5 -24.35 27.15 -25.9 27.85 -27.3 26.9" fill="none" stroke="#000000" stroke-linecap="square" stroke-linejoin="round" stroke-opacity="0.4" stroke-width="1.0"/>
  </g>
</svg>
