<?xml version="1.0" encoding="UTF-8" standalone="no"?>
<svg xmlns:xlink="http://www.w3.org/1999/xlink" height="5.6px" width="19.3px" xmlns="http://www.w3.org/2000/svg">
  <g transform="matrix(1.0, 0.0, 0.0, 1.0, -1.5, 0.0)">
    <path d="M15.0 4.5 L16.25 5.05 17.8 0.45 17.15 0.4 16.0 0.6 14.75 4.3 15.0 4.5 M20.8 2.8 Q20.8 4.0 19.75 4.8 18.7 5.6 17.15 5.6 15.65 5.6 14.6 4.8 13.5 4.0 13.5 2.8 13.5 2.15 13.9 1.55 L14.6 0.8 Q15.65 0.0 17.15 0.0 18.7 0.0 19.75 0.8 20.8 1.65 20.8 2.8 M10.3 0.8 L11.25 1.55 Q11.8 2.1 11.8 2.8 11.8 4.0 10.3 4.8 8.75 5.6 6.65 5.6 4.5 5.6 3.0 4.8 1.5 4.0 1.5 2.8 L1.55 2.4 1.6 2.2 1.75 2.0 1.75 1.95 2.0 1.65 Q2.35 1.2 3.0 0.8 4.5 0.0 6.65 0.0 8.75 0.0 10.3 0.8 M3.5 4.5 L5.2 5.05 7.2 0.45 6.65 0.4 4.95 0.6 3.3 4.4 3.5 4.5" fill="#ffffff" fill-opacity="0.4" fill-rule="evenodd" stroke="none"/>
    <path d="M15.0 4.5 L14.75 4.3 16.0 0.6 17.15 0.4 17.8 0.45 16.25 5.05 15.0 4.5 M3.5 4.5 L3.3 4.4 4.95 0.6 6.65 0.4 7.2 0.45 5.2 5.05 3.5 4.5" fill="#ffffff" fill-opacity="0.54901963" fill-rule="evenodd" stroke="none"/>
  </g>
</svg>
