<?xml version="1.0" encoding="UTF-8" standalone="no"?>
<svg xmlns:xlink="http://www.w3.org/1999/xlink" height="28.5px" width="16.55px" xmlns="http://www.w3.org/2000/svg">
  <g transform="matrix(1.0, 0.0, 0.0, 1.0, 21.7, 16.45)">
    <path d="M-15.15 -11.9 L-15.0 -11.9 -14.5 -11.85 -14.1 -11.85 Q-13.4 -12.15 -13.3 -13.2 L-13.1 -14.85 -12.4 -14.9 -11.6 -14.9 Q-11.75 -15.55 -11.3 -15.75 -10.85 -15.95 -10.35 -15.55 -10.05 -15.3 -9.95 -14.65 L-9.75 -13.6 -9.4 -14.35 Q-9.1 -14.75 -8.7 -14.7 -8.55 -14.35 -8.55 -13.85 L-8.5 -12.95 Q-7.8 -13.65 -6.65 -13.6 L-6.75 -12.9 -7.05 -12.2 -6.4 -12.2 -7.05 -11.95 -7.55 -11.7 -7.8 -11.3 -7.95 -10.95 -8.7 -10.45 -9.65 -10.15 -9.55 -11.55 Q-9.65 -12.05 -10.55 -12.4 -10.25 -11.9 -10.3 -11.0 -10.4 -10.0 -11.1 -10.6 L-10.8 -9.55 Q-10.7 -8.8 -11.1 -8.6 L-11.75 -8.65 -12.35 -9.05 -13.1 -9.1 Q-13.4 -9.1 -13.35 -9.6 L-12.8 -10.35 -12.1 -11.15 -12.8 -11.1 -13.45 -11.1 -14.0 -11.05 -14.55 -11.15 -15.15 -11.9 M-11.55 -6.35 L-12.3 -4.35 -12.75 -2.45 -13.35 0.45 -14.15 4.6 -14.5 6.9 -15.2 11.4 -16.5 9.9 Q-16.85 5.0 -14.05 -2.2 L-13.85 -2.75 -12.1 -6.55 -11.55 -6.35 M-12.45 -6.9 L-13.25 -6.35 Q-14.65 -5.1 -15.15 -3.85 L-16.75 -0.4 Q-18.05 2.4 -17.8 2.85 L-18.25 1.35 Q-18.45 0.1 -18.6 -0.25 L-18.95 -0.1 -19.9 0.7 -21.05 1.95 -19.2 -1.85 Q-18.0 -3.9 -16.55 -5.15 -15.7 -5.9 -12.75 -7.55 L-12.45 -6.9" fill="#ffffff" fill-opacity="0.0" fill-rule="evenodd" stroke="none"/>
    <path d="M-15.15 -11.9 L-14.55 -11.15 -14.0 -11.05 -13.45 -11.1 -12.8 -11.1 -12.1 -11.15 -12.8 -10.35 -13.35 -9.6 Q-13.4 -9.1 -13.1 -9.1 L-12.35 -9.05 -11.75 -8.65 -11.1 -8.6 Q-10.7 -8.8 -10.8 -9.55 L-11.1 -10.6 Q-10.4 -10.0 -10.3 -11.0 -10.25 -11.9 -10.55 -12.4 -9.65 -12.05 -9.55 -11.55 L-9.65 -10.15 -8.7 -10.45 -7.95 -10.95 -7.8 -11.3 -7.55 -11.7 -7.05 -11.95 -6.4 -12.2 -6.0 -11.95 -5.8 -11.35 -5.95 -10.5 -6.0 -10.35 -6.0 -10.3 Q-5.7 -8.95 -7.3 -8.6 L-7.9 -8.5 -8.3 -8.45 Q-8.15 -8.05 -8.5 -7.65 -8.85 -7.3 -9.5 -7.25 -10.15 -7.2 -10.35 -7.5 L-10.45 -8.1 -10.7 -6.95 Q-10.8 -6.35 -11.4 -6.35 L-11.5 -6.35 -11.55 -6.35 -12.1 -6.55 -12.45 -6.9 -12.75 -7.55 -12.75 -7.6 -12.8 -7.65 -12.75 -7.65 -12.8 -7.7 -13.5 -7.55 Q-14.05 -7.95 -14.25 -8.8 L-14.65 -8.85 -14.45 -9.8 Q-14.2 -10.35 -14.25 -10.75 L-15.15 -10.75 Q-15.65 -10.85 -15.65 -11.35 L-15.6 -11.6 -15.2 -11.95 -15.15 -11.9 M-12.75 -7.6 L-12.75 -7.65 -12.75 -7.6" fill="#000000" fill-opacity="0.09803922" fill-rule="evenodd" stroke="none"/>
    <path d="M-5.95 -10.5 L-6.0 -10.3 -6.0 -10.35 -5.95 -10.5 M-11.4 -6.35 L-11.15 -6.35 -11.5 -6.35 -11.4 -6.35" fill="#b27f60" fill-rule="evenodd" stroke="none"/>
    <path d="M-6.4 -12.2 L-7.05 -12.2 -6.75 -12.9 -6.65 -13.6 Q-7.8 -13.65 -8.5 -12.95 L-8.55 -13.85 Q-8.55 -14.35 -8.7 -14.7 -9.1 -14.75 -9.4 -14.35 L-9.75 -13.6 -9.95 -14.65 Q-10.05 -15.3 -10.35 -15.55 -10.85 -15.95 -11.3 -15.75 -11.75 -15.55 -11.6 -14.9 L-12.4 -14.9 -13.1 -14.85 -13.3 -13.2 Q-13.4 -12.15 -14.1 -11.85 L-14.5 -11.85 -15.0 -11.9 -15.15 -11.9 -15.2 -11.95 -15.6 -11.6 -15.65 -11.35 Q-15.65 -10.85 -15.15 -10.75 L-14.25 -10.75 Q-14.2 -10.35 -14.45 -9.8 L-14.65 -8.85 -14.25 -8.8 Q-14.05 -7.95 -13.5 -7.55 L-12.8 -7.7 -12.75 -7.65 -12.75 -7.6 -12.75 -7.55 -12.45 -6.9 -13.25 -6.35 Q-14.65 -5.1 -15.15 -3.85 L-16.75 -0.4 Q-18.05 2.4 -17.8 2.85 L-18.25 1.35 Q-18.45 0.1 -18.6 -0.25 L-18.95 -0.1 -19.9 0.7 -21.05 1.95 -19.2 -1.85 Q-18.0 -3.9 -16.55 -5.15 -15.7 -5.9 -12.75 -7.55 M-6.4 -12.2 L-6.0 -11.95 -5.8 -11.35 -5.95 -10.5 -6.0 -10.35 -6.0 -10.3 Q-5.7 -8.95 -7.3 -8.6 L-7.9 -8.5 -8.3 -8.45 Q-8.15 -8.05 -8.5 -7.65 -8.85 -7.3 -9.5 -7.25 -10.15 -7.2 -10.35 -7.5 L-10.45 -8.1 -10.7 -6.95 Q-10.8 -6.35 -11.4 -6.35 L-11.5 -6.35 -11.55 -6.35 -12.3 -4.35 -12.75 -2.45 -13.35 0.45 -14.15 4.6 -14.5 6.9 -15.2 11.4 -16.5 9.9 Q-16.85 5.0 -14.05 -2.2 L-13.85 -2.75 -12.1 -6.55 -12.45 -6.9 M-12.1 -6.55 L-11.55 -6.35" fill="none" stroke="#000000" stroke-linecap="square" stroke-linejoin="round" stroke-opacity="0.4" stroke-width="1.0"/>
  </g>
</svg>
