<?xml version="1.0" encoding="UTF-8" standalone="no"?>
<svg xmlns:xlink="http://www.w3.org/1999/xlink" height="82.35px" width="43.85px" xmlns="http://www.w3.org/2000/svg">
  <g transform="matrix(1.0, 0.0, 0.0, 1.0, 21.9, 0.7)">
    <path d="M0.0 6.15 L1.9 6.35 Q4.7 6.85 6.8 8.95 10.0 12.15 10.0 16.15 10.0 20.15 6.8 22.95 4.7 25.35 1.9 25.95 L0.15 26.15 0.0 26.15 -0.1 26.15 -1.6 26.05 Q-4.65 25.5 -7.2 22.95 -10.0 20.15 -10.0 16.15 -10.0 12.15 -7.2 8.95 -4.65 6.7 -1.6 6.3 L-0.1 6.15 0.0 6.15 M0.2 33.2 L1.9 33.3 Q10.1 33.95 14.25 41.45 19.5 55.15 21.1 63.3 22.75 71.4 16.2 76.3 9.7 81.1 0.2 81.15 L0.05 81.15 0.0 81.15 Q-9.6 81.15 -16.15 76.3 -22.7 71.4 -21.05 63.3 -19.45 55.15 -14.2 41.45 -10.0 33.85 -1.6 33.25 L-0.1 33.2 0.0 33.2 0.2 33.2" fill="#fefefe" fill-opacity="0.0" fill-rule="evenodd" stroke="none"/>
    <path d="M0.15 26.15 L0.2 33.2 M0.0 6.15 L0.0 -0.2" fill="none" stroke="#000000" stroke-linecap="round" stroke-linejoin="round" stroke-opacity="0.24705882" stroke-width="1.0"/>
    <path d="M0.0 6.15 L1.9 6.35 Q4.7 6.85 6.8 8.95 10.0 12.15 10.0 16.15 10.0 20.15 6.8 22.95 4.7 25.35 1.9 25.95 L0.15 26.15 0.0 26.15 -0.1 26.15 -1.6 26.05 Q-4.65 25.5 -7.2 22.95 -10.0 20.15 -10.0 16.15 -10.0 12.15 -7.2 8.95 -4.65 6.7 -1.6 6.3 L-0.1 6.15 0.0 6.15 M0.2 33.2 L1.9 33.3 Q10.1 33.95 14.25 41.45 19.5 55.15 21.1 63.3 22.75 71.4 16.2 76.3 9.7 81.1 0.2 81.15 L0.05 81.15 0.0 81.15 Q-9.6 81.15 -16.15 76.3 -22.7 71.4 -21.05 63.3 -19.45 55.15 -14.2 41.45 -10.0 33.85 -1.6 33.25 L-0.1 33.2 0.0 33.2 0.2 33.2" fill="none" stroke="#000000" stroke-linecap="round" stroke-linejoin="round" stroke-opacity="0.6" stroke-width="1.0"/>
  </g>
</svg>
