<?xml version="1.0" encoding="UTF-8" standalone="no"?>
<svg xmlns:xlink="http://www.w3.org/1999/xlink" height="30.0px" width="16.6px" xmlns="http://www.w3.org/2000/svg">
  <g transform="matrix(1.0, 0.0, 0.0, 1.0, 8.3, 15.0)">
    <path d="M-0.85 -5.5 L0.3 -5.0 3.1 -3.1 Q4.6 -1.75 5.75 0.35 L7.65 4.35 6.5 3.05 Q5.75 2.3 5.15 2.1 L4.85 3.75 4.35 5.35 Q4.6 4.85 3.3 1.85 L1.7 -1.7 Q1.2 -3.0 -0.3 -4.35 L-1.05 -5.05 -1.05 -5.1 -0.85 -5.5 M-1.35 -4.7 L0.6 0.0 Q3.45 7.6 3.05 12.75 L1.7 14.35 0.65 7.15 -0.1 2.8 -1.4 -3.3 -1.75 -4.4 -1.35 -4.7 M-7.1 -10.55 L-6.5 -10.55 -6.8 -11.3 -6.95 -12.05 Q-5.75 -12.05 -5.0 -11.35 L-5.0 -12.3 -4.85 -13.2 Q-4.45 -13.2 -4.15 -12.8 L-3.75 -12.0 -3.55 -13.1 -3.15 -14.1 Q-2.6 -14.5 -2.2 -14.3 -1.75 -14.1 -1.9 -13.4 L-1.05 -13.35 -0.4 -13.3 -0.2 -12.5 -0.15 -11.6 Q-0.05 -10.5 0.6 -10.2 L1.1 -10.15 1.55 -10.25 1.7 -10.25 Q1.4 -9.55 1.1 -9.4 L0.5 -9.35 0.0 -9.35 -1.35 -9.4 -0.75 -8.6 -0.1 -7.8 Q-0.05 -7.3 -0.4 -7.3 L-1.1 -7.25 -1.75 -6.8 -2.4 -6.7 Q-2.8 -6.95 -2.7 -7.75 L-2.4 -8.85 Q-3.15 -8.2 -3.2 -9.25 -3.3 -10.25 -2.95 -10.75 -3.85 -10.4 -3.95 -9.85 L-3.85 -8.4 -4.85 -8.75 -5.6 -9.2 -5.75 -9.55 -6.0 -10.0 -7.1 -10.55" fill="#ffffff" fill-opacity="0.0" fill-rule="evenodd" stroke="none"/>
    <path d="M-7.65 -9.95 L-7.65 -10.05 -7.4 -10.3 -7.65 -9.95" fill="#b27f60" fill-rule="evenodd" stroke="none"/>
    <path d="M1.7 -10.25 Q2.15 -10.2 2.15 -9.6 2.2 -9.15 1.65 -9.0 L0.75 -9.0 Q0.7 -8.65 0.95 -8.0 L1.25 -6.95 0.75 -6.95 Q0.55 -6.05 0.05 -5.6 -0.6 -5.2 -0.8 -6.25 L-0.8 -5.7 -0.85 -5.5 -1.05 -5.1 -1.05 -5.05 -1.35 -4.7 -1.75 -4.4 Q-1.9 -4.35 -3.65 -5.35 -5.4 -6.35 -7.65 -9.95 L-7.4 -10.3 -7.4 -10.4 -7.15 -10.55 -7.1 -10.55 -6.0 -10.0 -5.75 -9.55 -5.6 -9.2 -4.85 -8.75 -3.85 -8.4 -3.95 -9.85 Q-3.85 -10.4 -2.95 -10.75 -3.3 -10.25 -3.2 -9.25 -3.15 -8.2 -2.4 -8.85 L-2.7 -7.75 Q-2.8 -6.95 -2.4 -6.7 L-1.75 -6.8 -1.1 -7.25 -0.4 -7.3 Q-0.05 -7.3 -0.1 -7.8 L-0.75 -8.6 -1.35 -9.4 0.0 -9.35 0.5 -9.35 1.1 -9.4 Q1.4 -9.55 1.7 -10.25" fill="#000000" fill-opacity="0.09803922" fill-rule="evenodd" stroke="none"/>
    <path d="M1.7 -10.25 Q2.15 -10.2 2.15 -9.6 2.2 -9.15 1.65 -9.0 L0.75 -9.0 Q0.7 -8.65 0.95 -8.0 L1.25 -6.95 0.75 -6.95 Q0.55 -6.05 0.05 -5.6 -0.6 -5.2 -0.8 -6.25 L-0.8 -5.7 -0.85 -5.5 0.3 -5.0 3.1 -3.1 Q4.6 -1.75 5.75 0.35 L7.65 4.35 6.5 3.05 Q5.75 2.3 5.15 2.1 L4.85 3.75 4.35 5.35 Q4.6 4.85 3.3 1.85 L1.7 -1.7 Q1.2 -3.0 -0.3 -4.35 L-1.05 -5.05 -1.35 -4.7 0.6 0.0 Q3.45 7.6 3.05 12.75 L1.7 14.35 0.65 7.15 -0.1 2.8 -1.4 -3.3 -1.75 -4.4 Q-1.9 -4.35 -3.65 -5.35 -5.4 -6.35 -7.65 -9.95 L-7.4 -10.3 -7.4 -10.4 -7.15 -10.55 -7.1 -10.55 -6.5 -10.55 -6.8 -11.3 -6.95 -12.05 Q-5.75 -12.05 -5.0 -11.35 L-5.0 -12.3 -4.85 -13.2 Q-4.45 -13.2 -4.15 -12.8 L-3.75 -12.0 -3.55 -13.1 -3.15 -14.1 Q-2.6 -14.5 -2.2 -14.3 -1.75 -14.1 -1.9 -13.4 L-1.05 -13.35 -0.4 -13.3 -0.2 -12.5 -0.15 -11.6 Q-0.05 -10.5 0.6 -10.2 L1.1 -10.15 1.55 -10.25 1.7 -10.25 M-1.05 -5.1 L-1.05 -5.05" fill="none" stroke="#000000" stroke-linecap="square" stroke-linejoin="round" stroke-opacity="0.4" stroke-width="1.0"/>
  </g>
</svg>
