<?xml version="1.0" encoding="UTF-8" standalone="no"?>
<svg xmlns:xlink="http://www.w3.org/1999/xlink" height="26.6px" width="33.0px" xmlns="http://www.w3.org/2000/svg">
  <g transform="matrix(1.0, 0.0, 0.0, 1.0, 16.25, 13.85)">
    <path d="M-14.6 -3.2 L-13.3 -6.1 Q-11.15 -9.7 -7.25 -11.3 L-3.85 -12.4 -0.3 -13.15 5.15 -12.95 Q6.85 -12.5 8.55 -11.65 12.05 -9.6 14.2 -6.05 L14.25 -5.95 14.8 -5.0 Q16.1 -2.15 16.1 1.1 L16.1 3.9 15.4 1.85 14.75 -0.25 14.9 2.45 14.6 5.15 Q14.55 3.5 14.0 1.5 L13.0 -1.4 13.65 1.15 Q13.95 3.1 13.55 4.4 L12.45 0.9 11.1 -2.55 11.1 -1.7 8.15 -5.9 Q6.5 -8.0 4.4 -9.3 L5.4 -8.0 6.05 -6.5 Q4.35 -7.8 2.5 -8.55 L-1.55 -9.7 Q-0.9 -9.55 0.15 -7.9 L1.4 -5.55 2.4 -3.5 2.85 -1.35 3.25 2.35 3.4 6.0 Q5.05 3.25 3.7 -1.15 L3.6 -1.55 3.75 -1.1 Q5.1 3.35 3.35 6.1 3.2 3.85 2.65 1.35 2.0 -1.9 0.95 -4.2 -1.85 -10.5 -6.55 -6.95 L-7.7 -5.7 -8.85 -3.6 Q-9.25 -2.7 -10.35 -1.8 L-10.3 -1.8 -10.2 -1.85 -8.45 -3.0 -8.3 -3.15 -8.35 -3.0 -9.15 -1.8 -9.3 -1.5 -9.3 -1.45 -9.5 -1.05 -11.05 -0.25 -11.5 0.0 -13.05 0.9 -13.75 1.2 -14.4 1.4 -14.95 1.45 -15.2 1.45 -14.9 1.25 -14.4 0.7 -13.75 0.05 -12.4 -1.2 -12.2 -1.15 -12.55 -1.25 -13.75 -0.8 -13.75 -0.75 -14.4 -0.55 -14.6 -0.5 -14.9 -0.4 -14.5 -0.9 -14.4 -1.05 -14.05 -1.45 -13.75 -1.65 -12.6 -2.55 -13.6 -2.35 -10.8 -4.4 -8.05 -6.4 -11.3 -4.75 -14.6 -3.2 M-9.45 -0.15 L-8.75 -0.5 -9.5 1.1 -9.75 1.75 -9.8 1.85 -9.9 1.9 -10.65 2.2 -13.3 3.2 -11.55 1.35 -11.5 1.35 -9.5 -0.1 -9.45 -0.15" fill="#ffffff" fill-opacity="0.0" fill-rule="evenodd" stroke="none"/>
    <path d="M8.55 -11.65 L8.55 -11.75 8.8 -12.0 8.55 -11.65" fill="#b27f60" fill-rule="evenodd" stroke="none"/>
    <path d="M-14.6 -3.2 L-11.3 -4.75 -8.05 -6.4 -10.8 -4.4 -13.6 -2.35 -12.6 -2.55 -13.75 -1.65 -14.05 -1.45 -14.4 -1.05 -14.5 -0.9 -14.9 -0.4 -14.6 -0.5 -14.4 -0.55 -13.75 -0.75 -13.75 -0.8 -12.55 -1.25 -12.5 -1.25 -12.4 -1.2 -13.75 0.05 -14.4 0.7 -14.9 1.25 -15.2 1.45 -14.95 1.45 -14.4 1.4 -13.75 1.2 -13.05 0.9 -11.5 0.0 -11.05 -0.25 -9.5 -1.05 -9.55 -0.9 -10.2 0.2 -9.75 0.0 -9.45 -0.2 -9.45 -0.15 -9.5 -0.1 -11.5 1.35 -11.55 1.35 -13.3 3.2 -10.65 2.2 -9.9 1.9 -9.8 1.85 -9.8 1.9 -10.2 2.8 -9.4 2.4 -8.65 1.95 -9.45 3.65 -9.75 4.45 -9.95 4.8 -10.2 5.25 -10.25 5.3 -10.1 5.25 -9.75 5.0 -9.45 4.8 -9.6 5.25 -9.9 6.35 -10.3 7.6 -10.5 8.4 -11.2 9.7 Q-11.9 10.65 -12.0 12.1 -13.5 11.7 -14.3 9.75 -15.1 7.75 -15.3 6.35 L-15.5 4.8 -15.55 4.4 -15.55 4.3 Q-15.9 0.5 -14.6 -3.2 M3.6 -1.55 L3.7 -1.15 Q5.05 3.25 3.4 6.0 L3.25 2.35 2.85 -1.35 2.4 -3.5 1.4 -5.55 0.15 -7.9 Q-0.9 -9.55 -1.55 -9.7 L2.5 -8.55 Q4.35 -7.8 6.05 -6.5 L5.4 -8.0 4.4 -9.3 Q6.5 -8.0 8.15 -5.9 L11.1 -1.7 11.1 -2.55 12.45 0.9 13.55 4.4 Q13.95 3.1 13.65 1.15 L13.0 -1.4 14.0 1.5 Q14.55 3.5 14.6 5.15 L14.9 2.45 14.75 -0.25 15.4 1.85 16.1 3.9 16.1 4.4 Q15.75 8.05 14.35 10.95 14.15 11.35 13.35 11.6 L12.1 12.1 12.4 10.45 12.3 8.6 Q12.3 5.5 11.6 2.45 10.95 -0.3 9.7 -3.15 10.4 -1.4 10.4 1.45 10.4 4.8 9.25 6.2 9.55 4.1 9.45 2.45 9.3 0.5 8.65 -1.1 8.25 -1.75 7.65 -3.6 L7.6 -3.7 7.1 -4.95 7.15 -4.75 7.4 -4.1 7.6 -3.15 7.95 -0.1 8.15 1.45 8.15 3.05 7.75 4.3 7.35 5.4 Q7.45 1.25 5.8 -2.35 4.0 -6.5 0.6 -7.8 L2.95 -3.2 3.3 -2.4 3.55 -1.65 3.6 -1.55" fill="#000000" fill-opacity="0.2" fill-rule="evenodd" stroke="none"/>
    <path d="M8.55 -11.65 Q6.85 -12.5 5.15 -12.95 L-0.3 -13.15 -3.85 -12.4 -7.25 -11.3 Q-11.15 -9.7 -13.3 -6.1 L-14.6 -3.2 M-10.35 -1.8 Q-9.25 -2.7 -8.85 -3.6 L-7.7 -5.7 -6.55 -6.95 Q-1.85 -10.5 0.95 -4.2 2.0 -1.9 2.65 1.35 3.2 3.85 3.35 6.1 5.1 3.35 3.75 -1.1 L3.6 -1.55 3.55 -1.65 3.3 -2.4 2.95 -3.2 0.6 -7.8 Q4.0 -6.5 5.8 -2.35 7.45 1.25 7.35 5.4 L7.75 4.3 8.15 3.05 8.15 1.45 7.95 -0.1 7.6 -3.15 7.4 -4.1 M16.1 3.9 L16.1 1.1 Q16.1 -2.15 14.8 -5.0 L14.25 -5.95 14.2 -6.05 Q12.05 -9.6 8.55 -11.65 M12.1 12.1 L12.4 10.45 12.3 8.6 Q12.3 5.5 11.6 2.45 10.95 -0.3 9.7 -3.15 10.4 -1.4 10.4 1.45 10.4 4.8 9.25 6.2 9.55 4.1 9.45 2.45 9.3 0.5 8.65 -1.1 8.25 -1.75 7.65 -3.6 L7.6 -3.7 7.1 -4.95 M16.1 3.9 L16.1 4.4 Q15.75 8.05 14.35 10.95" fill="none" stroke="#000000" stroke-linecap="square" stroke-linejoin="round" stroke-opacity="0.6" stroke-width="1.0"/>
    <path d="M-9.5 -1.05 L-9.3 -1.45 -9.3 -1.5 -9.15 -1.8 -8.35 -3.0 -8.3 -3.15 -8.45 -3.0 -10.2 -1.85 -10.3 -1.8 -10.35 -1.8 M3.6 -1.55 L3.7 -1.15 Q5.05 3.25 3.4 6.0 M14.35 10.95 Q14.15 11.35 13.35 11.6 L12.1 12.1 M-9.8 1.85 L-9.75 1.75 -9.5 1.1 -8.75 -0.5 -9.45 -0.15 -9.5 -0.1 M-9.8 1.85 L-9.8 1.9 -10.2 2.8 -9.4 2.4 -8.65 1.95 -9.45 3.65 -9.75 4.45 -9.95 4.8 -10.2 5.25 -10.25 5.3 -10.1 5.25 -9.75 5.0 -9.45 4.8 -9.6 5.25 -9.9 6.35 -10.3 7.6 -10.5 8.4 -11.2 9.7 Q-11.9 10.65 -12.0 12.1 -13.5 11.7 -14.3 9.75 -15.1 7.75 -15.3 6.35 L-15.5 4.8 -15.55 4.4 -15.55 4.3 Q-15.9 0.5 -14.6 -3.2 M-9.5 -1.05 L-9.55 -0.9 -10.2 0.2 -9.75 0.0 -9.45 -0.2 -9.45 -0.15" fill="none" stroke="#000000" stroke-linecap="square" stroke-linejoin="round" stroke-opacity="0.4" stroke-width="1.0"/>
  </g>
</svg>
