<?xml version="1.0" encoding="UTF-8" standalone="no"?>
<svg xmlns:xlink="http://www.w3.org/1999/xlink" height="56.75px" width="40.05px" xmlns="http://www.w3.org/2000/svg">
  <g transform="matrix(1.0, 0.0, 0.0, 1.0, 15.75, 5.75)">
    <path d="M7.3 -3.8 Q12.55 -1.5 15.45 0.2 19.7 2.65 21.1 4.9 22.65 7.35 23.4 11.65 24.15 15.9 23.5 18.4 23.25 19.25 23.1 21.55 L22.8 25.5 Q22.0 30.5 18.7 32.3 19.45 30.4 19.6 28.0 19.9 23.2 16.9 20.8 L17.0 22.3 17.05 25.9 Q16.75 31.55 14.5 34.0 13.25 35.35 13.25 36.2 13.25 36.85 14.25 37.75 L16.4 39.7 Q17.85 41.25 18.7 43.3 L18.5 44.25 17.7 46.45 Q16.1 49.75 12.9 50.5 13.95 49.0 13.75 47.2 13.4 43.65 7.4 42.35 4.0 41.6 2.45 40.6 1.1 39.7 0.85 38.4 0.7 37.6 1.0 35.75 1.35 33.7 1.3 32.5 1.1 29.5 -1.95 30.85 -2.95 31.25 -4.05 32.05 L-5.0 32.8 Q-7.8 29.65 -10.45 25.75 -15.75 18.05 -15.2 14.5 L-13.35 6.65 Q-11.8 0.9 -7.95 -2.4 -4.1 -5.7 0.65 -5.15 5.4 -4.65 7.3 -3.8" fill="#000000" fill-opacity="0.2" fill-rule="evenodd" stroke="none"/>
    <path d="M7.3 -3.8 Q12.55 -1.5 15.45 0.2 19.7 2.65 21.1 4.9 22.65 7.35 23.4 11.65 24.15 15.9 23.5 18.4 23.25 19.25 23.1 21.55 L22.8 25.5 Q22.0 30.5 18.7 32.3 19.45 30.4 19.6 28.0 19.9 23.2 16.9 20.8 L17.0 22.3 17.05 25.9 Q16.75 31.55 14.5 34.0 13.25 35.35 13.25 36.2 13.25 36.85 14.25 37.75 L16.4 39.7 Q17.85 41.25 18.7 43.3 L18.5 44.25 17.7 46.45 Q16.1 49.75 12.9 50.5 13.95 49.0 13.75 47.2 13.4 43.65 7.4 42.35 4.0 41.6 2.45 40.6 1.1 39.7 0.85 38.4 0.7 37.6 1.0 35.75 1.35 33.7 1.3 32.5 1.1 29.5 -1.95 30.85 -2.95 31.25 -4.05 32.05 L-5.0 32.8 Q-7.8 29.65 -10.45 25.75 -15.75 18.05 -15.2 14.5 L-13.35 6.65 Q-11.8 0.9 -7.95 -2.4 -4.1 -5.7 0.65 -5.15 5.4 -4.65 7.3 -3.8 Z" fill="none" stroke="#000000" stroke-linecap="round" stroke-linejoin="round" stroke-opacity="0.6" stroke-width="1.0"/>
  </g>
</svg>
