<?xml version="1.0" encoding="UTF-8" standalone="no"?>
<svg xmlns:xlink="http://www.w3.org/1999/xlink" height="33.75px" width="50.2px" xmlns="http://www.w3.org/2000/svg">
  <g transform="matrix(1.0, 0.0, 0.0, 1.0, 25.5, 16.3)">
    <path d="M17.2 -15.3 Q17.5 -14.3 17.1 -13.25 L16.75 -12.4 Q16.05 -11.35 14.6 -10.55 L14.3 -10.35 12.8 -11.2 11.15 -11.65 13.55 -9.25 12.5 -10.35 10.25 -11.15 9.55 -11.35 7.95 -11.8 5.15 -12.8 2.7 -13.2 Q4.0 -13.05 5.65 -12.3 L8.9 -10.6 Q9.25 -10.45 9.55 -10.25 L12.8 -8.4 13.0 -8.25 11.95 -8.4 11.1 -8.7 9.55 -9.3 9.25 -9.4 7.35 -10.2 5.2 -10.25 Q6.25 -10.2 7.85 -9.55 L9.55 -8.85 10.4 -8.5 10.7 -8.4 15.1 -6.9 15.5 -6.1 15.15 -6.7 11.75 -7.1 9.55 -7.35 8.3 -7.25 9.55 -7.15 11.15 -6.95 14.15 -6.25 Q12.25 -5.35 11.05 -4.25 L13.2 -5.05 Q14.55 -5.6 15.45 -5.55 14.3 -4.45 13.1 -2.0 L14.65 -3.3 16.1 -4.7 16.2 -4.55 Q15.4 -3.45 14.7 -1.7 L13.75 1.3 Q14.5 0.8 15.1 -0.65 L16.1 -2.95 Q16.4 0.6 15.05 3.85 L16.05 2.5 16.55 0.8 16.65 4.8 17.7 -0.3 18.15 1.35 18.15 1.4 18.35 3.35 18.3 5.4 18.1 8.45 17.85 9.85 16.9 10.95 Q16.5 11.15 16.5 10.0 16.5 6.95 14.55 3.05 14.8 4.7 14.65 6.65 L14.45 8.35 Q14.55 6.4 13.1 3.05 13.7 8.35 11.75 11.9 11.4 12.5 11.85 12.25 10.7 13.85 8.7 15.0 11.5 11.2 11.4 8.4 L10.85 3.9 Q10.45 2.25 9.75 1.2 L8.3 -1.45 Q8.8 1.25 7.85 2.55 L6.8 3.25 Q7.65 1.8 6.6 -1.9 L5.95 -4.1 Q5.4 -6.05 4.25 -8.4 L3.4 -10.1 4.05 -8.4 4.9 -5.05 Q5.9 0.5 3.8 2.9 4.9 0.75 3.35 -5.5 L3.5 -4.3 Q3.2 -6.35 2.3 -8.4 L1.15 -10.55 1.9 -8.4 2.4 -6.35 Q3.4 -1.5 2.25 1.7 3.15 0.65 3.5 -1.45 L3.6 -2.4 Q3.6 -0.2 2.95 1.3 2.45 2.4 1.85 2.65 2.4 1.85 2.3 -1.4 L2.15 -3.6 2.15 -4.25 2.25 -2.85 Q2.5 -5.7 1.5 -8.4 L0.25 -10.9 0.65 -8.4 0.9 -6.05 Q1.4 -0.65 0.5 2.05 L0.15 2.45 Q0.6 0.3 -0.3 -4.2 L-0.25 -4.1 Q-0.1 -6.15 -0.7 -8.4 L-1.05 -9.7 -1.0 -8.4 -1.05 -5.55 Q-1.25 -0.9 -2.25 1.65 -1.65 1.05 -1.15 -0.25 -1.45 0.75 -1.85 1.25 -2.4 2.0 -2.85 2.0 L-2.65 -5.25 -3.45 -4.15 -2.8 -5.1 -1.85 -8.4 -1.75 -8.7 -2.1 -8.4 Q-3.15 -7.55 -4.05 -6.0 -6.2 -2.25 -5.1 2.95 -6.4 1.65 -6.65 -1.4 L-6.75 -3.5 -6.7 -4.3 -4.7 -8.4 -4.5 -8.8 -4.9 -8.4 -6.6 -6.65 -6.35 -8.4 -6.25 -9.7 -7.05 -8.4 -8.15 -5.75 Q-9.7 -0.9 -8.2 3.95 -9.15 2.7 -9.45 0.4 L-9.5 -1.65 -10.85 0.35 Q-12.1 2.1 -12.0 4.95 L-11.9 8.8 -11.55 11.0 Q-11.25 12.2 -10.3 13.6 -9.35 14.95 -8.45 15.55 -9.5 15.5 -10.6 14.5 -11.7 13.5 -12.1 12.35 L-12.9 10.8 -13.7 8.9 -13.9 8.45 -13.9 8.25 -14.05 7.65 -15.55 2.1 Q-16.05 4.4 -16.2 7.1 L-16.1 9.4 -16.3 8.9 -16.5 8.25 -16.7 7.65 -16.75 7.6 -16.75 7.65 -17.1 8.25 -17.35 8.9 Q-18.0 10.75 -17.4 13.35 L-17.85 12.1 -18.3 8.9 -18.5 7.65 -18.8 5.5 -18.9 5.3 -18.95 3.2 -18.5 5.2 -18.45 1.2 -18.2 2.1 -17.9 2.9 -16.9 4.25 Q-18.2 1.1 -17.9 -2.55 L-16.95 -0.25 Q-16.35 1.2 -15.6 1.7 -16.25 -1.45 -17.7 -3.7 L-18.5 -1.15 -18.2 -2.3 -17.6 -4.1 -16.45 -6.35 -17.1 -5.15 -15.0 -4.6 -13.7 -4.15 -12.9 -3.9 -13.7 -4.55 -16.0 -5.95 -13.7 -6.45 -13.0 -6.6 -10.1 -6.9 Q-11.2 -5.2 -11.65 -2.85 -12.15 -0.2 -11.8 2.0 -11.4 -2.45 -9.8 -5.75 L-8.8 -7.45 -8.15 -8.4 -6.45 -10.2 -7.1 -9.85 -9.2 -9.8 -11.05 -9.0 -12.55 -8.4 -13.7 -8.0 -14.25 -7.9 -14.85 -7.85 -14.7 -7.9 -13.95 -8.4 -13.7 -8.5 -10.75 -10.2 -7.5 -11.9 Q-5.8 -12.65 -4.45 -12.8 L-6.95 -12.4 -9.85 -11.4 -13.2 -10.45 -11.85 -11.65 -11.75 -11.7 -13.6 -11.2 -15.1 -10.35 -15.4 -10.55 Q-17.4 -11.6 -17.9 -13.25 -18.3 -14.3 -17.9 -15.35 L-13.7 -15.6 -12.2 -15.15 Q-10.35 -14.35 -9.2 -13.25 -1.65 -16.85 5.2 -14.85 7.35 -14.2 8.7 -13.4 L8.9 -13.65 11.4 -15.15 17.2 -15.3 M-17.6 -4.1 L-16.3 -2.75 Q-15.5 -1.85 -14.9 -1.6 -16.2 -4.1 -17.15 -5.05 L-17.6 -4.1 M15.05 -9.75 L16.55 -10.2 15.7 -9.85 18.7 -10.6 Q20.4 -11.35 20.5 -12.4 20.55 -13.05 20.05 -13.85 L21.65 -12.4 21.75 -12.35 Q21.85 -9.6 20.25 -8.45 L20.2 -8.4 Q19.05 -7.55 16.65 -7.85 L16.3 -8.4 15.05 -9.75 M23.35 -9.7 L23.65 -8.95 23.8 -8.4 24.15 -6.35 Q23.15 -5.35 21.4 -5.0 19.8 -4.65 18.4 -5.0 20.5 -5.0 21.9 -6.4 22.85 -7.35 23.2 -8.4 L23.35 -9.7 M24.2 -5.5 L23.95 -2.9 23.85 -2.5 21.4 -2.75 19.3 -3.0 Q20.55 -3.0 21.9 -3.65 23.25 -4.25 24.2 -5.5 M23.75 -2.0 L23.4 -0.75 Q21.85 -0.8 20.05 -1.45 L22.55 -1.6 23.75 -2.0 M22.85 -10.75 L23.35 -9.75 23.3 -9.8 22.45 -8.4 Q21.4 -6.9 20.05 -6.6 L21.65 -7.8 22.25 -8.4 22.75 -9.45 22.85 -10.75 M-20.85 -13.85 L-20.55 -14.0 Q-20.45 -11.25 -17.35 -10.2 L-17.2 -10.15 Q-18.1 -10.25 -18.8 -10.65 -20.9 -11.65 -20.85 -13.85 L-21.0 -13.2 -20.9 -11.7 Q-20.2 -9.75 -16.9 -10.05 L-15.85 -9.75 -17.1 -8.4 -17.4 -7.9 -17.45 -7.85 -18.2 -7.8 Q-20.0 -7.75 -20.95 -8.4 L-21.05 -8.45 Q-22.6 -9.6 -22.55 -12.35 L-20.85 -13.85 M-24.15 -9.7 L-23.95 -8.4 Q-23.6 -7.35 -22.65 -6.4 -21.25 -5.0 -19.2 -5.0 -20.6 -4.65 -22.2 -5.0 -23.95 -5.35 -24.95 -6.35 L-24.6 -8.4 -24.45 -8.95 -24.15 -9.7 M-25.0 -5.5 Q-24.05 -4.25 -22.7 -3.65 -21.35 -3.0 -20.1 -3.0 L-22.2 -2.75 -24.65 -2.5 -24.55 -2.0 -23.35 -1.6 -20.85 -1.45 -24.15 -0.75 -24.05 -0.45 Q-24.5 -1.45 -24.75 -2.9 L-25.0 -5.5 M-24.1 -9.75 L-23.65 -10.75 -23.55 -9.45 -23.05 -8.4 -22.45 -7.8 -20.85 -6.6 Q-22.25 -6.9 -23.3 -8.4 L-24.1 -9.75 M-16.2 -6.8 L-13.7 -7.6 -12.85 -7.9 -12.25 -8.15 -11.5 -8.4 -9.7 -9.15 Q-8.1 -9.8 -7.1 -9.85 L-8.95 -8.4 -9.8 -7.4 -10.1 -6.9 Q-11.35 -7.15 -13.3 -6.85 L-13.7 -6.7 -16.45 -6.35 -16.2 -6.8" fill="#ffffff" fill-opacity="0.0" fill-rule="evenodd" stroke="none"/>
    <path d="M-15.1 -10.35 L-13.6 -11.2 -11.75 -11.7 -11.85 -11.65 -13.2 -10.45 -13.25 -10.45 -13.7 -9.9 -14.0 -9.65 -15.0 -8.4 -15.45 -7.9 -15.5 -7.85 -16.25 -6.8 -16.2 -6.8 -16.45 -6.35 -17.6 -4.1 -18.2 -2.3 -18.5 -1.15 -18.9 1.4 -19.2 0.7 Q-20.2 -1.95 -18.5 -5.95 L-18.2 -6.55 -17.45 -7.85 -17.4 -7.9 -17.1 -8.4 -15.85 -9.75 -15.1 -10.35 M-7.1 -9.85 L-6.45 -10.2 -8.15 -8.4 -8.8 -7.45 -9.8 -5.75 Q-11.4 -2.45 -11.8 2.0 -12.15 -0.2 -11.65 -2.85 -11.2 -5.2 -10.1 -6.9 L-9.8 -7.4 -8.95 -8.4 -7.1 -9.85 M3.6 -2.4 L3.5 -1.45 Q3.15 0.65 2.25 1.7 3.4 -1.5 2.4 -6.35 L1.9 -8.4 1.15 -10.55 2.3 -8.4 Q3.2 -6.35 3.5 -4.3 L3.6 -2.4 M18.15 1.35 L17.7 -0.3 17.7 -0.6 17.25 -1.85 16.95 -2.85 16.5 -3.9 16.2 -4.6 16.2 -4.55 16.1 -4.7 16.15 -4.75 16.1 -4.9 15.5 -6.1 15.1 -6.9 14.1 -8.4 13.55 -9.25 11.15 -11.65 12.8 -11.2 14.3 -10.35 15.05 -9.75 16.3 -8.4 16.65 -7.85 17.7 -5.95 Q19.4 -1.95 18.4 0.7 L18.15 1.35 M16.55 -10.2 Q18.15 -10.7 18.9 -11.6 L19.0 -11.6 19.4 -12.4 19.75 -14.0 20.05 -13.85 Q20.55 -13.05 20.5 -12.4 20.4 -11.35 18.7 -10.6 L15.7 -9.85 16.55 -10.2 M-20.85 -13.85 Q-20.9 -11.65 -18.8 -10.65 -18.1 -10.25 -17.2 -10.15 L-16.65 -10.1 -16.9 -10.05 Q-20.2 -9.75 -20.9 -11.7 L-21.0 -13.2 -20.85 -13.85" fill="#ffffff" fill-opacity="0.2" fill-rule="evenodd" stroke="none"/>
    <path d="M14.3 -10.35 L14.6 -10.55 Q16.05 -11.35 16.75 -12.4 L17.1 -13.25 Q17.5 -14.3 17.2 -15.3 18.6 -14.8 19.25 -14.35 L19.75 -14.0 19.4 -12.4 19.0 -11.6 18.9 -11.6 Q18.15 -10.7 16.55 -10.2 L15.05 -9.75 14.3 -10.35 M-17.9 -15.35 Q-18.3 -14.3 -17.9 -13.25 -17.4 -11.6 -15.4 -10.55 L-15.1 -10.35 -15.85 -9.75 -16.9 -10.05 -16.65 -10.1 -17.2 -10.15 -17.35 -10.2 Q-20.45 -11.25 -20.55 -14.0 L-19.45 -14.7 -17.9 -15.35 M-13.2 -10.45 L-9.85 -11.4 -6.95 -12.4 -4.45 -12.8 Q-5.8 -12.65 -7.5 -11.9 L-10.75 -10.2 -13.7 -8.5 -13.95 -8.4 -14.7 -7.9 -14.85 -7.85 -14.25 -7.9 -13.7 -8.0 -12.55 -8.4 -11.05 -9.0 -9.2 -9.8 -7.1 -9.85 Q-8.1 -9.8 -9.7 -9.15 L-11.5 -8.4 -12.25 -8.15 -12.85 -7.9 -13.7 -7.6 -16.2 -6.8 -16.25 -6.8 -15.5 -7.85 -15.45 -7.9 -15.0 -8.4 -14.0 -9.65 -13.7 -9.9 -13.25 -10.45 -13.2 -10.45 M-10.1 -6.9 L-13.0 -6.6 -13.7 -6.45 -16.0 -5.95 -13.7 -4.55 -12.9 -3.9 -13.7 -4.15 -15.0 -4.6 -17.1 -5.15 -16.45 -6.35 -13.7 -6.7 -13.3 -6.85 Q-11.35 -7.15 -10.1 -6.9 M-17.6 -4.1 L-17.15 -5.05 Q-16.2 -4.1 -14.9 -1.6 -15.5 -1.85 -16.3 -2.75 L-17.6 -4.1 M-18.5 -1.15 L-17.7 -3.7 Q-16.25 -1.45 -15.6 1.7 -16.35 1.2 -16.95 -0.25 L-17.9 -2.55 Q-18.2 1.1 -16.9 4.25 L-17.9 2.9 -18.2 2.1 -18.45 1.2 -18.5 5.2 -18.95 3.2 -18.9 5.3 -18.8 5.5 Q-20.3 4.8 -21.55 3.5 L-22.3 2.65 -23.65 0.4 -24.05 -0.45 -24.15 -0.75 -20.85 -1.45 -23.35 -1.6 -24.55 -2.0 -24.65 -2.5 -22.2 -2.75 -20.1 -3.0 Q-21.35 -3.0 -22.7 -3.65 -24.05 -4.25 -25.0 -5.5 L-25.0 -5.7 -24.95 -6.35 Q-23.95 -5.35 -22.2 -5.0 -20.6 -4.65 -19.2 -5.0 -21.25 -5.0 -22.65 -6.4 -23.6 -7.35 -23.95 -8.4 L-24.15 -9.7 -24.15 -9.75 -24.1 -9.75 -23.3 -8.4 Q-22.25 -6.9 -20.85 -6.6 L-22.45 -7.8 -23.05 -8.4 -23.55 -9.45 -23.65 -10.75 -22.55 -12.35 Q-22.6 -9.6 -21.05 -8.45 L-20.95 -8.4 Q-20.0 -7.75 -18.2 -7.8 L-17.45 -7.85 -18.2 -6.55 -18.5 -5.95 Q-20.2 -1.95 -19.2 0.7 L-18.9 1.4 -18.5 -1.15 M-17.4 13.35 Q-18.0 10.75 -17.35 8.9 L-17.1 8.25 -16.75 7.65 -16.75 7.6 -16.7 7.65 -16.5 8.25 -16.3 8.9 -16.1 9.4 -16.2 7.1 Q-16.05 4.4 -15.55 2.1 L-14.05 7.65 -13.9 8.25 -13.9 8.45 -13.7 8.9 -12.9 10.8 -12.1 12.35 -12.2 12.15 Q-12.85 13.1 -12.9 14.15 L-12.8 15.85 -12.6 16.9 Q-15.0 16.55 -16.7 14.75 L-17.35 13.55 -17.4 13.35 -16.7 14.75 -17.4 13.35 M-8.2 3.95 Q-9.7 -0.9 -8.15 -5.75 L-7.05 -8.4 -6.25 -9.7 -6.35 -8.4 -6.6 -6.65 -4.9 -8.4 -4.5 -8.8 -4.7 -8.4 -6.7 -4.3 -6.7 -4.4 Q-8.3 -2.4 -8.45 0.95 L-8.2 3.95 M-5.1 2.95 Q-6.2 -2.25 -4.05 -6.0 -3.15 -7.55 -2.1 -8.4 L-1.75 -8.7 -1.85 -8.4 -2.8 -5.1 -3.45 -4.15 -3.95 -3.05 -4.6 -0.8 -5.0 2.65 -5.0 3.05 -5.1 2.95 M-1.15 -0.25 Q-1.65 1.05 -2.25 1.65 -1.25 -0.9 -1.05 -5.55 L-1.0 -8.4 -1.05 -9.7 -0.7 -8.4 Q-0.1 -6.15 -0.25 -4.1 L-0.3 -4.2 -1.15 -0.25 M0.5 2.05 Q1.4 -0.65 0.9 -6.05 L0.65 -8.4 0.25 -10.9 1.5 -8.4 Q2.5 -5.7 2.25 -2.85 L2.15 -4.25 2.15 -3.6 2.0 -1.45 1.4 0.7 1.3 0.9 1.15 1.2 1.3 0.9 1.25 1.05 1.15 1.2 0.85 1.7 0.5 2.05 M3.8 2.9 Q5.9 0.5 4.9 -5.05 L4.05 -8.4 3.4 -10.1 4.25 -8.4 Q5.4 -6.05 5.95 -4.1 L5.5 -5.25 Q6.35 -2.1 6.0 -0.05 L5.5 1.35 5.15 1.85 Q4.6 2.7 3.8 2.9 M11.85 12.25 Q11.4 12.5 11.75 11.9 13.7 8.35 13.1 3.05 14.55 6.4 14.45 8.35 L14.65 6.65 Q14.8 4.7 14.55 3.05 16.5 6.95 16.5 10.0 16.5 11.15 16.9 10.95 L17.85 9.85 Q16.05 13.4 14.8 14.5 L12.05 16.95 12.1 15.65 12.1 12.55 Q12.0 11.65 11.85 12.25 M18.3 5.4 L18.35 3.35 18.15 1.4 18.15 1.35 18.4 0.7 Q19.4 -1.95 17.7 -5.95 L16.65 -7.85 Q19.05 -7.55 20.2 -8.4 L20.25 -8.45 Q21.85 -9.6 21.75 -12.35 L22.85 -10.75 22.75 -9.45 22.25 -8.4 21.65 -7.8 20.05 -6.6 Q21.4 -6.9 22.45 -8.4 L23.3 -9.8 23.35 -9.75 23.35 -9.7 23.2 -8.4 Q22.85 -7.35 21.9 -6.4 20.5 -5.0 18.4 -5.0 19.8 -4.65 21.4 -5.0 23.15 -5.35 24.15 -6.35 L24.2 -5.65 24.2 -5.5 Q23.25 -4.25 21.9 -3.65 20.55 -3.0 19.3 -3.0 L21.4 -2.75 23.85 -2.5 23.8 -2.35 23.75 -2.05 23.75 -2.0 22.55 -1.6 20.05 -1.45 Q21.85 -0.8 23.4 -0.75 L23.4 -0.7 Q22.65 1.4 21.15 3.1 L20.75 3.5 18.3 5.4 M17.7 -0.3 L16.65 4.8 16.55 0.8 16.05 2.5 15.05 3.85 Q16.4 0.6 16.1 -2.95 L15.1 -0.65 Q14.5 0.8 13.75 1.3 L14.7 -1.7 Q15.4 -3.45 16.2 -4.55 L16.2 -4.6 16.5 -3.9 17.25 -1.85 17.7 -0.6 17.7 -0.3 M16.1 -4.7 L14.65 -3.3 13.1 -2.0 Q14.3 -4.45 15.45 -5.55 14.55 -5.6 13.2 -5.05 L11.05 -4.25 Q12.25 -5.35 14.15 -6.25 L11.15 -6.95 9.55 -7.15 8.3 -7.25 9.55 -7.35 11.75 -7.1 15.15 -6.7 15.5 -6.1 16.1 -4.9 16.15 -4.75 16.1 -4.7 M15.1 -6.9 L10.7 -8.4 10.4 -8.5 9.55 -8.85 7.85 -9.55 Q6.25 -10.2 5.2 -10.25 L7.35 -10.2 9.25 -9.4 9.55 -9.3 11.1 -8.7 11.95 -8.4 13.0 -8.25 12.8 -8.4 9.55 -10.25 Q9.25 -10.45 8.9 -10.6 L5.65 -12.3 Q4.0 -13.05 2.7 -13.2 L5.15 -12.8 7.95 -11.8 9.55 -11.35 10.25 -11.15 12.5 -10.35 13.55 -9.25 14.1 -8.4 15.1 -6.9" fill="#000000" fill-opacity="0.2" fill-rule="evenodd" stroke="none"/>
    <path d="M19.75 -14.0 L19.25 -14.35 19.55 -14.2 19.75 -14.0 M23.8 -2.35 L23.8 -2.3 23.75 -2.05 23.8 -2.35 M0.85 1.7 L0.5 2.1 0.5 2.05 0.85 1.7" fill="#7a4a38" fill-rule="evenodd" stroke="none"/>
    <path d="M20.05 -13.85 L19.75 -14.0 19.55 -14.2 20.05 -13.85 M17.25 -1.85 L16.5 -3.9 16.95 -2.85 17.25 -1.85" fill="#945c47" fill-rule="evenodd" stroke="none"/>
    <path d="M17.2 -15.3 L11.4 -15.15 8.9 -13.65 8.7 -13.4 Q7.35 -14.2 5.2 -14.85 -1.65 -16.85 -9.2 -13.25 -10.35 -14.35 -12.2 -15.15 L-13.7 -15.6 -17.9 -15.35 -19.45 -14.7 -20.55 -14.0 -20.85 -13.85 -22.55 -12.35 -23.65 -10.75 -24.1 -9.75 M-18.8 5.5 L-18.5 7.65 -18.3 8.9 -17.85 12.1 -17.4 13.35 -16.7 14.75 Q-15.0 16.55 -12.6 16.9 L-12.8 15.85 -12.9 14.15 Q-12.85 13.1 -12.2 12.15 L-12.1 12.35 Q-11.7 13.5 -10.6 14.5 -9.5 15.5 -8.45 15.55 -9.35 14.95 -10.3 13.6 -11.25 12.2 -11.55 11.0 L-11.9 8.8 -12.0 4.95 Q-12.1 2.1 -10.85 0.35 M8.3 -1.45 L9.75 1.2 Q10.45 2.25 10.85 3.9 L11.4 8.4 Q11.5 11.2 8.7 15.0 10.7 13.85 11.85 12.25 12.0 11.65 12.1 12.55 L12.1 15.65 12.05 16.95 14.8 14.5 Q16.05 13.4 17.85 9.85 L18.1 8.45 18.3 5.4 20.75 3.5 21.15 3.1 Q22.65 1.4 23.4 -0.7 L23.4 -0.75 23.75 -2.0 23.75 -2.05 23.8 -2.3 23.8 -2.35 23.75 -2.05 M19.75 -14.0 L19.25 -14.35 Q18.6 -14.8 17.2 -15.3 M20.05 -13.85 L19.75 -14.0 M21.75 -12.35 L21.65 -12.4 20.05 -13.85 M23.35 -9.7 L23.65 -8.95 23.8 -8.4 24.15 -6.35 24.2 -5.65 M24.2 -5.5 L23.95 -2.9 23.85 -2.5 23.8 -2.35 M23.35 -9.75 L22.85 -10.75 21.75 -12.35 M-24.95 -6.35 L-25.0 -5.7 -25.0 -5.5 -24.75 -2.9 Q-24.5 -1.45 -24.05 -0.45 L-23.65 0.4 -22.3 2.65 -21.55 3.5 Q-20.3 4.8 -18.8 5.5 M-24.15 -9.7 L-24.45 -8.95 -24.6 -8.4 -24.95 -6.35" fill="none" stroke="#000000" stroke-linecap="round" stroke-linejoin="round" stroke-opacity="0.6" stroke-width="1.0"/>
    <path d="M-10.85 0.35 L-9.5 -1.65 -9.45 0.4 Q-9.15 2.7 -8.2 3.95 L-8.45 0.95 Q-8.3 -2.4 -6.7 -4.4 L-6.7 -4.3 -6.75 -3.5 -6.65 -1.4 Q-6.4 1.65 -5.1 2.95 L-5.0 3.05 -5.0 2.65 -4.6 -0.8 -3.95 -3.05 -3.45 -4.15 -2.65 -5.25 -2.85 2.0 Q-2.4 2.0 -1.85 1.25 -1.45 0.75 -1.15 -0.25 L-0.3 -4.2 Q0.6 0.3 0.15 2.45 L0.5 2.05 0.85 1.7 1.15 1.2 1.3 0.9 1.25 1.05 M2.15 -3.6 L2.3 -1.4 Q2.4 1.85 1.85 2.65 2.45 2.4 2.95 1.3 3.6 -0.2 3.6 -2.4 L3.5 -4.3 3.35 -5.5 Q4.9 0.75 3.8 2.9 4.6 2.7 5.15 1.85 L5.5 1.35 6.0 -0.05 Q6.35 -2.1 5.5 -5.25 L5.95 -4.1 6.6 -1.9 Q7.65 1.8 6.8 3.25 L7.85 2.55 Q8.8 1.25 8.3 -1.45 M1.3 0.9 L1.4 0.7 2.0 -1.45 2.15 -3.6" fill="none" stroke="#000000" stroke-linecap="round" stroke-linejoin="round" stroke-opacity="0.6" stroke-width="1.0"/>
  </g>
</svg>
