<?xml version="1.0" encoding="UTF-8" standalone="no"?>
<svg xmlns:xlink="http://www.w3.org/1999/xlink" height="39.7px" width="36.6px" xmlns="http://www.w3.org/2000/svg">
  <g transform="matrix(1.0, 0.0, 0.0, 1.0, 19.6, 14.45)">
    <path d="M-15.9 2.6 L-15.7 2.35 -15.9 1.55 -16.0 -0.4 Q-16.0 -1.45 -15.35 -3.1 L-14.2 -5.65 Q-12.85 -8.2 -11.3 -9.7 -9.55 -11.35 -7.1 -12.2 2.1 -15.3 8.15 -12.45 10.1 -11.55 11.65 -9.4 L14.15 -5.35 Q16.05 -2.15 16.3 1.5 16.5 4.55 15.6 8.65 L14.8 10.05 14.25 10.95 14.35 10.65 14.3 8.55 Q14.3 6.7 12.95 3.65 L11.8 1.3 Q13.6 5.15 12.95 11.45 12.55 15.5 11.25 19.95 11.95 16.05 11.8 12.7 11.6 7.0 8.85 3.5 9.6 5.15 9.6 7.85 9.6 10.8 8.6 12.15 L8.6 8.9 8.35 5.4 Q7.7 1.4 5.3 -0.4 L4.25 0.8 Q4.6 -1.2 5.75 -2.7 4.25 -1.0 1.7 0.55 L-2.85 3.15 -0.2 1.35 Q1.45 0.35 2.15 -0.7 -0.8 1.85 -4.9 3.3 -8.95 4.7 -12.7 4.55 L-12.9 4.5 -12.7 4.45 -11.1 3.6 -9.5 2.3 -12.7 3.3 -13.8 3.55 -17.9 3.75 -17.2 3.55 Q-16.3 3.25 -15.9 2.6 M12.05 19.05 L11.75 19.7 Q10.95 21.4 10.75 22.35 L11.1 20.8 12.05 19.05 M-2.6 -11.55 L-7.3 -10.2 Q-10.0 -9.05 -11.0 -7.05 L-9.55 -7.6 -8.1 -8.1 -8.85 -7.25 -9.55 -6.45 -8.15 -6.5 -6.75 -6.6 -7.25 -5.9 -7.8 -5.25 -5.8 -5.35 Q-6.25 -4.1 -8.3 -2.9 L-11.55 -1.35 -10.1 -1.55 -8.55 -1.6 Q-7.3 -1.75 -5.55 -2.7 -4.7 -3.1 -3.05 -4.7 L-1.0 -6.25 Q-1.8 -5.8 -2.35 -5.6 -3.45 -5.0 -4.2 -5.0 L-3.45 -6.2 Q-2.85 -7.0 -3.0 -7.2 L-4.1 -7.25 -5.5 -6.85 -4.75 -8.1 -6.15 -7.95 -7.7 -7.95 -6.6 -9.0 -5.35 -10.15 -4.0 -11.0 -2.6 -11.55 M-15.15 6.8 L-14.5 6.75 -13.95 6.75 -10.1 7.1 -9.6 7.15 Q-10.05 7.3 -10.25 10.75 L-10.3 15.05 Q-10.2 20.4 -8.15 24.6 L-9.1 24.15 -10.1 23.6 -11.65 21.6 -12.45 19.75 -12.85 17.8 -14.3 12.3 -15.15 6.8" fill="#ffffff" fill-opacity="0.0" fill-rule="evenodd" stroke="none"/>
    <path d="M-17.9 3.75 L-13.8 3.55 -12.7 3.3 -9.5 2.3 -11.1 3.6 -12.7 4.45 -12.9 4.5 -12.7 4.55 Q-8.95 4.7 -4.9 3.3 -0.8 1.85 2.15 -0.7 1.45 0.35 -0.2 1.35 L-2.85 3.15 1.7 0.55 Q4.25 -1.0 5.75 -2.7 4.6 -1.2 4.25 0.8 L4.25 0.85 4.15 0.9 Q3.3 3.65 3.1 6.4 2.95 10.3 4.25 13.8 3.4 12.5 2.65 10.55 1.05 6.55 1.55 3.05 L-1.3 5.05 Q-3.15 6.35 -5.25 6.95 L-7.4 7.25 -8.85 7.25 -9.55 7.15 -9.6 7.15 -10.1 7.1 -13.95 6.75 -14.5 6.75 -15.15 6.8 -15.2 6.8 -15.2 6.75 -15.2 6.65 -16.75 6.6 -18.3 6.55 -16.65 5.95 -15.05 5.05 Q-17.15 4.95 -19.1 4.25 L-18.9 4.1 -18.0 3.75 -17.9 3.75 M11.25 19.95 Q12.55 15.5 12.95 11.45 13.6 5.15 11.8 1.3 L12.95 3.65 Q14.3 6.7 14.3 8.55 L14.35 10.65 14.25 10.95 Q14.05 11.25 14.0 11.5 L13.85 10.95 13.8 10.35 13.35 13.5 12.8 16.75 12.05 19.05 11.1 20.8 11.05 20.8 11.2 20.05 11.25 19.95 11.1 20.8 11.25 19.95" fill="#000000" fill-opacity="0.2" fill-rule="evenodd" stroke="none"/>
    <path d="M-2.6 -11.55 L-4.0 -11.0 -5.35 -10.15 -6.6 -9.0 -7.7 -7.95 -6.15 -7.95 -4.75 -8.1 -5.5 -6.85 -4.1 -7.25 -3.0 -7.2 Q-2.85 -7.0 -3.45 -6.2 L-4.2 -5.0 Q-3.45 -5.0 -2.35 -5.6 -1.8 -5.8 -1.0 -6.25 L-3.05 -4.7 Q-4.7 -3.1 -5.55 -2.7 -7.3 -1.75 -8.55 -1.6 L-10.1 -1.55 -11.55 -1.35 -8.3 -2.9 Q-6.25 -4.1 -5.8 -5.35 L-7.8 -5.25 -7.25 -5.9 -6.75 -6.6 -8.15 -6.5 -9.55 -6.45 -8.85 -7.25 -8.1 -8.1 -9.55 -7.6 -11.0 -7.05 Q-10.0 -9.05 -7.3 -10.2 L-2.6 -11.55" fill="#ffffff" fill-opacity="0.2" fill-rule="evenodd" stroke="none"/>
    <path d="M14.25 10.95 L14.8 10.05 15.6 8.65 Q16.5 4.55 16.3 1.5 16.05 -2.15 14.15 -5.35 L11.65 -9.4 Q10.1 -11.55 8.15 -12.45 2.1 -15.3 -7.1 -12.2 -9.55 -11.35 -11.3 -9.7 -12.85 -8.2 -14.2 -5.65 L-15.35 -3.1 Q-16.0 -1.45 -16.0 -0.4 L-15.9 1.55 -15.7 2.35 -15.9 2.6 M4.25 0.8 L5.3 -0.4 Q7.7 1.4 8.35 5.4 L8.6 8.9 8.6 12.15 Q9.6 10.8 9.6 7.85 9.6 5.15 8.85 3.5 11.6 7.0 11.8 12.7 11.95 16.05 11.25 19.95 L11.1 20.8 10.75 22.35 Q10.95 21.4 11.75 19.7 L12.05 19.05 12.8 16.75 13.35 13.5 13.8 10.35 M14.35 10.65 L14.25 10.95 Q14.05 11.25 14.0 11.5 M-15.15 6.8 L-14.3 12.3 -12.85 17.8 -12.45 19.75 -11.65 21.6 -10.1 23.6 -9.1 24.15 -8.15 24.6 Q-10.2 20.4 -10.3 15.05 L-10.25 10.75 Q-10.05 7.3 -9.6 7.15" fill="none" stroke="#000000" stroke-linecap="square" stroke-linejoin="round" stroke-opacity="0.6" stroke-width="1.0"/>
    <path d="M-9.55 7.15 L-8.85 7.25 -7.4 7.25 -5.25 6.95 Q-3.15 6.35 -1.3 5.05 L1.55 3.05 Q1.05 6.55 2.65 10.55 3.4 12.5 4.25 13.8 2.95 10.3 3.1 6.4 3.3 3.65 4.15 0.9 L4.25 0.85 4.25 0.8 M-15.2 6.75 L-15.2 6.8 -15.15 6.8" fill="none" stroke="#000000" stroke-linecap="round" stroke-linejoin="round" stroke-opacity="0.6" stroke-width="1.0"/>
    <path d="M-17.9 3.75 L-18.0 3.75 -18.9 4.1 -19.1 4.25 Q-17.15 4.95 -15.05 5.05 L-16.65 5.95 -18.3 6.55 -16.75 6.6 -15.2 6.65 -15.2 6.75" fill="none" stroke="#000000" stroke-linecap="round" stroke-linejoin="round" stroke-opacity="0.6" stroke-width="1.0"/>
    <path d="M-15.9 2.6 Q-16.3 3.25 -17.2 3.55 L-17.9 3.75 M14.0 11.5 L13.85 10.95 13.8 10.35" fill="none" stroke="#000000" stroke-linecap="square" stroke-linejoin="round" stroke-opacity="0.4" stroke-width="1.0"/>
  </g>
</svg>
