<?xml version="1.0" encoding="UTF-8" standalone="no"?>
<svg xmlns:xlink="http://www.w3.org/1999/xlink" height="37.15px" width="33.3px" xmlns="http://www.w3.org/2000/svg">
  <g transform="matrix(1.0, 0.0, 0.0, 1.0, 16.8, 14.0)">
    <path d="M-8.85 20.8 L-7.9 22.2 -12.05 17.8 Q-14.95 14.05 -15.7 9.55 -16.35 5.85 -16.05 1.95 -15.75 -2.45 -14.35 -5.8 -12.75 -9.65 -9.9 -11.5 -6.6 -13.65 -1.95 -13.05 L-0.3 -13.25 3.0 -13.25 Q5.4 -13.0 7.45 -12.1 11.0 -10.55 13.15 -7.0 15.05 -3.9 15.6 0.25 16.15 4.05 15.4 7.65 14.4 12.55 12.0 17.0 9.95 20.7 7.95 22.5 8.95 21.5 9.6 20.15 13.1 15.85 12.75 9.05 L12.1 4.85 11.65 3.15 Q11.95 4.9 11.6 7.65 L11.2 10.0 Q10.2 4.15 7.0 0.9 L4.9 -0.8 4.0 -1.25 Q4.2 1.3 5.3 4.35 L6.35 6.9 Q4.5 5.25 2.5 1.85 L0.85 -1.25 1.0 3.45 Q-0.05 2.2 -1.25 -0.8 L-2.25 -3.6 Q-2.35 -1.25 -3.55 0.95 L-4.4 2.2 -4.75 2.65 -5.05 0.8 Q-6.35 4.2 -8.7 6.5 L-10.25 7.75 -10.85 8.15 -11.65 3.6 Q-12.95 9.85 -11.5 15.15 -10.6 18.4 -8.85 20.8 M12.4 -5.6 Q11.45 -7.5 10.1 -8.8 L8.9 -9.65 Q13.15 -5.0 13.8 3.2 14.1 7.3 13.6 10.45 15.5 0.45 12.4 -5.6 M8.25 -5.7 L6.3 -7.6 5.4 -8.05 Q8.25 -6.3 10.1 -0.55 11.05 2.35 11.4 4.85 11.15 -2.0 8.25 -5.7 M-4.9 -11.55 Q-6.9 -11.35 -9.1 -9.65 -13.45 -6.2 -14.45 1.4 L-13.8 -0.25 -11.95 -4.05 Q-8.75 -9.9 -4.9 -11.55" fill="#ffffff" fill-opacity="0.0" fill-rule="evenodd" stroke="none"/>
    <path d="M8.25 -5.7 Q11.15 -2.0 11.4 4.85 11.05 2.35 10.1 -0.55 8.25 -6.3 5.4 -8.05 L6.3 -7.6 8.25 -5.7 M12.4 -5.6 Q15.5 0.45 13.6 10.45 14.1 7.3 13.8 3.2 13.15 -5.0 8.9 -9.65 L10.1 -8.8 Q11.45 -7.5 12.4 -5.6 M-4.9 -11.55 Q-8.75 -9.9 -11.95 -4.05 L-13.8 -0.25 -14.45 1.4 Q-13.45 -6.2 -9.1 -9.65 -6.9 -11.35 -4.9 -11.55" fill="#ffffff" fill-opacity="0.2" fill-rule="evenodd" stroke="none"/>
    <path d="M-8.85 20.8 Q-10.6 18.4 -11.5 15.15 -12.95 9.85 -11.65 3.6 L-10.85 8.15 -10.25 7.75 -8.7 6.5 Q-6.35 4.2 -5.05 0.8 L-4.75 2.65 -4.4 2.2 -3.55 0.95 Q-2.35 -1.25 -2.25 -3.6 L-1.25 -0.8 Q-0.05 2.2 1.0 3.45 L0.85 -1.25 2.5 1.85 Q4.5 5.25 6.35 6.9 L5.3 4.35 Q4.2 1.3 4.0 -1.25 L4.9 -0.8 7.0 0.9 Q10.2 4.15 11.2 10.0 L11.6 7.65 Q11.95 4.9 11.65 3.15 L12.1 4.85 12.75 9.05 Q13.1 15.85 9.6 20.15 L9.85 19.6 10.5 16.95 10.55 16.05 10.55 14.8 10.4 12.8 10.0 10.85 Q9.75 6.9 7.3 3.75 L5.65 2.0 4.9 1.4 Q5.55 4.2 7.75 7.45 L9.85 10.15 Q7.95 9.4 4.8 6.7 L2.05 4.2 Q2.4 5.55 3.55 6.95 L4.65 8.1 Q1.7 6.75 -0.1 4.0 -1.4 2.05 -1.95 -0.45 -2.45 2.05 -3.5 4.0 -5.0 6.75 -7.45 8.1 L-6.55 6.95 Q-5.55 5.55 -5.25 4.2 L-6.45 6.1 Q-7.95 8.1 -9.5 8.9 L-9.75 10.1 -10.0 12.4 -10.05 12.8 -10.05 13.15 Q-10.3 18.0 -8.75 20.9 L-8.85 20.8" fill="#000000" fill-opacity="0.2" fill-rule="evenodd" stroke="none"/>
    <path d="M-9.5 8.9 L-9.75 10.35 -10.0 12.4 -9.75 10.1 -9.5 8.9" fill="#945c47" fill-rule="evenodd" stroke="none"/>
    <path d="M9.6 20.15 Q8.95 21.5 7.95 22.5 9.95 20.7 12.0 17.0 14.4 12.55 15.4 7.65 16.15 4.05 15.6 0.25 15.05 -3.9 13.15 -7.0 11.0 -10.55 7.45 -12.1 5.4 -13.0 3.0 -13.25 L-0.3 -13.25 -1.95 -13.05 Q-6.6 -13.65 -9.9 -11.5 -12.75 -9.65 -14.35 -5.8 -15.75 -2.45 -16.05 1.95 -16.35 5.85 -15.7 9.55 -14.95 14.05 -12.05 17.8 L-7.9 22.2 -8.85 20.8 -8.75 20.9 Q-10.3 18.0 -10.05 13.15 L-10.05 12.8 -10.0 12.4 -9.75 10.35 -9.5 8.9 -9.75 10.1 -10.0 12.4 M9.6 20.15 L9.85 19.6 10.5 16.95 10.55 16.05 10.55 14.8 10.4 12.8 10.0 10.85 Q9.75 6.9 7.3 3.75 L5.65 2.0 4.9 1.4 Q5.55 4.2 7.75 7.45 L9.85 10.15 Q7.95 9.4 4.8 6.7 L2.05 4.2 M4.65 8.1 Q1.7 6.75 -0.1 4.0 -1.4 2.05 -1.95 -0.45 -2.45 2.05 -3.5 4.0 -5.0 6.75 -7.45 8.1 M-5.25 4.2 L-6.45 6.1 Q-7.95 8.1 -9.5 8.9" fill="none" stroke="#000000" stroke-linecap="square" stroke-linejoin="round" stroke-opacity="0.6" stroke-width="1.0"/>
    <path d="M2.05 4.2 Q2.4 5.55 3.55 6.95 L4.65 8.1 M-7.45 8.1 L-6.55 6.95 Q-5.55 5.55 -5.25 4.2" fill="none" stroke="#000000" stroke-linecap="square" stroke-linejoin="round" stroke-opacity="0.4" stroke-width="1.0"/>
  </g>
</svg>
