<?xml version="1.0" encoding="UTF-8" standalone="no"?>
<svg xmlns:xlink="http://www.w3.org/1999/xlink" height="56.45px" width="42.65px" xmlns="http://www.w3.org/2000/svg">
  <g transform="matrix(1.0, 0.0, 0.0, 1.0, 20.85, 15.3)">
    <path d="M15.1 -6.5 Q13.8 -8.8 11.05 -10.8 5.45 -14.75 -2.1 -13.2 L-0.65 -13.3 3.2 -12.95 Q9.6 -11.7 15.1 -6.5 M-14.85 -14.2 Q-15.05 -12.1 -8.45 -13.05 L-0.8 -14.6 Q4.5 -14.9 9.0 -12.9 13.95 -10.7 16.05 -6.4 L16.7 -5.8 Q18.9 -3.4 19.7 -0.35 20.4 2.3 20.1 5.5 L20.05 5.65 21.15 5.7 19.9 6.8 19.9 7.0 18.65 11.95 16.95 16.9 Q16.05 19.45 14.0 22.15 13.5 28.0 11.9 32.15 9.9 37.2 6.0 40.5 8.0 37.75 10.0 33.0 14.05 23.6 14.05 13.9 L12.1 17.95 12.15 17.2 10.8 19.75 8.95 22.05 10.9 17.2 Q11.75 14.4 11.7 12.0 L10.6 14.3 Q9.9 15.3 8.75 15.9 10.3 13.0 10.35 9.1 L10.25 7.95 10.3 8.25 11.9 7.9 13.55 7.6 15.35 6.95 17.15 6.45 12.6 6.5 Q10.35 6.3 8.4 5.1 L6.2 3.95 Q4.6 3.2 3.8 2.8 0.85 1.35 -0.45 0.0 -0.3 1.55 0.55 3.2 1.4 4.9 2.55 5.9 2.05 5.55 1.2 5.2 L1.05 5.15 Q-1.0 4.0 -3.05 2.4 -7.75 -1.4 -7.6 -4.9 L-7.85 -3.85 Q-8.0 -2.5 -7.5 -1.2 -6.9 0.3 -5.5 1.65 L-7.25 -0.15 -6.85 2.65 Q-6.5 4.45 -6.6 5.4 L-9.05 1.4 Q-10.3 -1.05 -10.3 -3.15 -11.35 -1.6 -11.65 0.95 L-11.85 3.1 -12.2 5.25 Q-12.8 3.9 -12.85 1.6 L-12.75 -2.15 -13.3 1.85 -13.55 5.95 -13.2 9.1 -12.9 12.2 -13.9 9.95 -14.35 8.85 -13.7 9.75 -14.65 8.05 -14.75 7.65 -14.75 7.85 -15.8 4.85 Q-17.35 -0.85 -14.5 -4.5 L-15.45 -3.65 Q-16.5 -2.55 -16.95 -1.1 -18.25 3.05 -14.7 8.35 -14.65 11.25 -14.0 14.8 L-12.35 21.85 -10.7 27.6 -8.65 33.25 -8.3 33.95 Q-10.0 27.75 -10.75 23.3 L-10.9 22.1 -10.55 24.35 Q-9.7 28.9 -7.7 36.05 -9.4 33.55 -10.85 29.9 L-13.15 23.15 Q-14.6 21.05 -15.75 18.15 L-17.65 12.45 Q-18.45 9.35 -18.45 6.45 L-18.3 3.85 Q-18.4 -0.75 -16.5 -3.25 L-18.6 -1.7 Q-20.1 -0.45 -20.2 0.25 L-19.4 -2.85 Q-18.7 -4.6 -17.65 -6.05 -15.1 -9.6 -12.05 -9.2 -13.5 -9.95 -14.25 -11.25 -15.05 -12.65 -14.85 -14.2 M14.8 14.9 Q14.25 17.15 14.2 18.65 L14.1 20.9 Q14.75 19.5 14.9 17.9 15.05 16.55 14.8 14.9 M-17.45 9.3 Q-17.0 14.15 -13.6 20.85 L-15.45 15.35 Q-17.25 9.2 -17.2 5.75 L-17.4 6.6 Q-17.6 7.75 -17.45 9.3" fill="#ffffff" fill-opacity="0.0" fill-rule="evenodd" stroke="none"/>
    <path d="M15.1 -6.5 Q9.6 -11.7 3.2 -12.95 L-0.65 -13.3 -2.1 -13.2 Q5.45 -14.75 11.05 -10.8 13.8 -8.8 15.1 -6.5 M-14.7 8.35 Q-18.25 3.05 -16.95 -1.1 -16.5 -2.55 -15.45 -3.65 L-14.5 -4.5 Q-17.35 -0.85 -15.8 4.85 L-14.75 7.85 -14.65 8.05 -13.7 9.75 -14.35 8.85 -14.7 8.35 M-5.5 1.65 Q-6.9 0.3 -7.5 -1.2 -8.0 -2.5 -7.85 -3.85 L-7.6 -4.9 Q-7.75 -1.4 -3.05 2.4 -1.0 4.0 1.05 5.15 L1.2 5.2 1.75 5.5 Q-0.9 4.65 -2.8 3.6 L-2.85 3.55 -2.9 3.55 -2.95 3.5 -3.4 3.25 -5.25 1.9 -5.5 1.65 M-17.45 9.3 Q-17.6 7.75 -17.4 6.6 L-17.2 5.75 Q-17.25 9.2 -15.45 15.35 L-13.6 20.85 Q-17.0 14.15 -17.45 9.3" fill="#ffffff" fill-opacity="0.2" fill-rule="evenodd" stroke="none"/>
    <path d="M-10.9 22.1 L-10.75 23.3 Q-10.0 27.75 -8.3 33.95 L-8.65 33.25 -10.7 27.6 -12.35 21.85 -14.0 14.8 Q-14.65 11.25 -14.7 8.35 L-14.35 8.85 -13.9 9.95 -12.9 12.2 -13.2 9.1 -13.55 5.95 -13.3 1.85 -12.75 -2.15 -12.85 1.6 Q-12.8 3.9 -12.2 5.25 L-11.85 3.1 -11.65 0.95 Q-11.35 -1.6 -10.3 -3.15 -10.3 -1.05 -9.05 1.4 L-6.6 5.4 Q-6.5 4.45 -6.85 2.65 L-7.25 -0.15 -5.5 1.65 -5.25 1.9 -3.4 3.25 -2.95 3.5 -2.9 3.55 -2.85 3.55 -2.8 3.6 Q-0.9 4.65 1.75 5.5 L1.2 5.2 Q2.05 5.55 2.55 5.9 1.4 4.9 0.55 3.2 -0.3 1.55 -0.45 0.0 0.85 1.35 3.8 2.8 4.6 3.2 6.2 3.95 L8.4 5.1 Q10.35 6.3 12.6 6.5 L17.15 6.45 15.35 6.95 13.55 7.6 11.9 7.9 10.3 8.25 10.25 7.95 7.3 6.3 Q5.5 5.25 4.2 5.15 5.45 6.7 8.35 8.05 L1.8 7.05 Q-1.65 6.1 -3.85 4.1 L-2.5 6.25 -0.65 8.05 -3.1 7.5 -5.75 6.75 Q-8.8 5.7 -9.95 3.85 -10.45 6.0 -10.0 8.45 L-8.75 12.95 -10.05 10.95 -11.2 8.9 Q-11.25 11.7 -10.5 14.3 -9.9 16.35 -8.5 19.35 -9.8 17.9 -10.65 16.1 -11.5 14.25 -11.7 12.35 L-11.7 12.8 -11.7 13.5 -11.7 13.85 Q-11.6 17.85 -10.9 22.1 M12.1 17.95 L14.05 13.9 Q14.05 23.6 10.0 33.0 8.0 37.75 6.0 40.5 8.65 35.85 10.25 29.55 L10.35 29.15 Q11.6 23.95 12.1 17.95" fill="#000000" fill-opacity="0.2" fill-rule="evenodd" stroke="none"/>
    <path d="M-14.75 7.85 L-14.75 7.65 -14.65 8.05 -14.75 7.85" fill="#7a4a38" fill-rule="evenodd" stroke="none"/>
    <path d="M20.1 5.5 Q20.4 2.3 19.7 -0.35 18.9 -3.4 16.7 -5.8 L16.05 -6.4 Q13.95 -10.7 9.0 -12.9 4.5 -14.9 -0.8 -14.6 L-8.45 -13.05 Q-15.05 -12.1 -14.85 -14.2 M-12.05 -9.2 Q-15.1 -9.6 -17.65 -6.05 -18.7 -4.6 -19.4 -2.85 L-20.2 0.25 M-16.5 -3.25 Q-18.4 -0.75 -18.3 3.85 L-18.45 6.45 Q-18.45 9.35 -17.65 12.45 L-15.75 18.15 Q-14.6 21.05 -13.15 23.15 L-10.85 29.9 Q-9.4 33.55 -7.7 36.05 -9.7 28.9 -10.55 24.35 L-10.9 22.1 Q-11.6 17.85 -11.7 13.85 L-11.7 13.5 -11.7 12.8 -11.7 12.35 Q-11.5 14.25 -10.65 16.1 -9.8 17.9 -8.5 19.35 -9.9 16.35 -10.5 14.3 -11.25 11.7 -11.2 8.9 L-10.05 10.95 -8.75 12.95 -10.0 8.45 Q-10.45 6.0 -9.95 3.85 -8.8 5.7 -5.75 6.75 L-3.1 7.5 -0.65 8.05 -2.5 6.25 -3.85 4.1 Q-1.65 6.1 1.8 7.05 L8.35 8.05 Q5.45 6.7 4.2 5.15 5.5 5.25 7.3 6.3 L10.25 7.95 10.35 9.1 Q10.3 13.0 8.75 15.9 9.9 15.3 10.6 14.3 L11.7 12.0 Q11.75 14.4 10.9 17.2 L8.95 22.05 10.8 19.75 12.15 17.2 12.1 17.95 Q11.6 23.95 10.35 29.15 L10.25 29.55 Q8.65 35.85 6.0 40.5 9.9 37.2 11.9 32.15 13.5 28.0 14.0 22.15 16.05 19.45 16.95 16.9 L18.65 11.95 19.9 7.0" fill="none" stroke="#000000" stroke-linecap="square" stroke-linejoin="round" stroke-opacity="0.6" stroke-width="1.0"/>
    <path d="M-14.85 -14.2 Q-15.05 -12.65 -14.25 -11.25 -13.5 -9.95 -12.05 -9.2 M-20.2 0.25 Q-20.1 -0.45 -18.6 -1.7 L-16.5 -3.25 M19.9 7.0 L19.9 6.8 21.15 5.7 20.05 5.65 20.1 5.5 M14.8 14.9 Q15.05 16.55 14.9 17.9 14.75 19.5 14.1 20.9 L14.2 18.65 Q14.25 17.15 14.8 14.9" fill="none" stroke="#000000" stroke-linecap="square" stroke-linejoin="round" stroke-opacity="0.4" stroke-width="1.0"/>
  </g>
</svg>
