<?xml version="1.0" encoding="UTF-8" standalone="no"?>
<svg xmlns:xlink="http://www.w3.org/1999/xlink" height="61.7px" width="37.85px" xmlns="http://www.w3.org/2000/svg">
  <g transform="matrix(1.0, 0.0, 0.0, 1.0, 18.5, 14.45)">
    <path d="M-17.5 8.5 L-17.65 7.5 Q-18.6 -0.05 -15.45 -5.55 -12.55 -10.55 -7.9 -11.95 L-3.8 -12.35 Q-2.05 -14.0 1.8 -13.8 L5.3 -13.25 Q13.05 -10.6 16.35 -4.05 18.15 -0.5 18.6 4.4 L18.5 3.75 Q18.3 9.25 16.9 7.7 L16.05 6.3 15.8 5.9 Q16.15 7.05 15.7 13.15 15.7 12.2 14.4 7.95 L13.15 3.9 Q14.6 15.75 13.75 27.3 13.25 33.55 12.3 37.85 L11.45 40.1 Q10.2 43.05 8.7 45.1 L7.45 46.6 Q13.55 39.0 12.25 17.5 11.85 10.8 10.75 3.45 L10.0 -1.05 10.05 -0.55 Q9.15 -3.55 7.8 -4.85 L8.65 -1.35 Q9.6 3.0 10.15 7.4 11.8 21.45 8.35 30.35 L8.6 30.0 6.9 33.95 Q9.95 25.3 8.95 13.15 8.35 6.45 6.7 -0.05 L6.25 -2.65 5.85 -4.55 5.2 -6.3 Q4.9 -6.85 4.0 -7.25 L2.75 -7.95 3.65 -7.15 4.5 -6.1 4.8 -4.45 5.05 -3.1 4.05 -4.15 3.05 -5.2 Q4.7 -2.65 4.6 -0.45 L1.95 -3.55 Q0.05 -5.35 -1.65 -5.0 L-0.15 -1.5 0.95 2.15 Q1.45 4.45 0.9 6.9 0.95 4.35 0.0 1.95 -0.9 -0.25 -2.6 -2.1 L-3.6 0.2 Q-3.15 -2.2 -2.35 -3.9 L-3.65 -1.65 -4.75 0.7 -7.2 5.15 -9.15 9.8 -9.9 13.1 Q-10.35 15.15 -11.0 16.2 L-10.95 14.0 -10.95 11.85 -11.9 14.25 -12.6 16.75 Q-13.35 13.2 -12.75 8.25 -12.3 4.8 -11.0 -0.15 L-12.45 3.25 -13.85 6.75 -14.6 10.05 -15.3 13.35 -16.2 11.45 -17.25 9.3 -17.5 8.65 -17.5 8.5 M9.75 -2.5 L10.0 -1.05 9.75 -2.5 M8.85 -9.9 L7.95 -10.45 Q11.1 -8.4 14.35 -1.95 16.05 1.45 17.1 4.5 16.35 -2.5 11.85 -7.3 10.45 -8.8 8.85 -9.9 M-8.05 -9.9 Q-10.15 -9.0 -11.85 -7.45 -17.3 -2.45 -16.7 7.3 -16.35 4.0 -14.85 0.15 -11.9 -7.6 -6.3 -10.5 L-8.05 -9.9" fill="#ffffff" fill-opacity="0.0" fill-rule="evenodd" stroke="none"/>
    <path d="M8.85 -9.9 Q10.45 -8.8 11.85 -7.3 16.35 -2.5 17.1 4.5 16.05 1.45 14.35 -1.95 11.1 -8.4 7.95 -10.45 L8.85 -9.9 M-8.05 -9.9 L-6.3 -10.5 Q-11.9 -7.6 -14.85 0.15 -16.35 4.0 -16.7 7.3 -17.3 -2.45 -11.85 -7.45 -10.15 -9.0 -8.05 -9.9" fill="#ffffff" fill-opacity="0.2" fill-rule="evenodd" stroke="none"/>
    <path d="M-17.5 8.5 L-17.5 8.65 -17.25 9.3 -16.2 11.45 -15.3 13.35 -14.6 10.05 -13.85 6.75 -12.45 3.25 -11.0 -0.15 Q-12.3 4.8 -12.75 8.25 -13.35 13.2 -12.6 16.75 L-11.9 14.25 -10.95 11.85 -10.95 14.0 -11.0 16.2 Q-10.35 15.15 -9.9 13.1 L-9.15 9.8 -7.2 5.15 -4.75 0.7 -3.65 -1.65 -2.35 -3.9 Q-3.15 -2.2 -3.6 0.2 L-3.65 0.3 -4.35 2.0 -7.1 10.1 -7.2 10.45 -7.9 13.1 -8.05 13.8 -8.45 15.8 Q-10.05 23.7 -9.35 30.55 L-10.1 27.25 -11.45 19.45 Q-12.2 26.9 -10.85 30.0 L-12.1 26.65 Q-13.4 22.3 -13.4 17.95 -14.9 16.45 -15.95 13.95 L-16.1 13.6 -17.25 9.95 -17.55 8.45 -17.5 8.5 M0.9 6.9 Q1.45 4.45 0.95 2.15 L-0.15 -1.5 -1.65 -5.0 Q0.05 -5.35 1.95 -3.55 L4.6 -0.45 Q4.7 -2.65 3.05 -5.2 L4.05 -4.15 5.05 -3.1 4.8 -4.45 4.5 -6.1 3.65 -7.15 2.75 -7.95 4.0 -7.25 Q4.9 -6.85 5.2 -6.3 L5.85 -4.55 6.25 -2.65 6.7 -0.05 6.3 -1.55 Q6.6 0.25 6.15 2.7 L5.65 4.8 Q5.55 2.0 3.35 -0.8 L1.85 -2.45 1.2 -3.05 Q2.85 -0.7 2.0 4.0 1.6 6.35 0.8 8.2 L0.9 6.9 M8.6 30.0 L8.35 30.35 Q11.8 21.45 10.15 7.4 9.6 3.0 8.65 -1.35 L7.8 -4.85 Q9.15 -3.55 10.05 -0.55 L10.05 -0.45 10.1 0.0 10.2 0.75 10.45 2.8 11.15 8.65 11.55 11.95 Q12.0 15.8 11.3 20.3 L10.7 23.2 9.7 26.9 9.4 27.95 8.75 29.7 8.6 30.0 M12.3 37.85 Q13.25 33.55 13.75 27.3 14.6 15.75 13.15 3.9 L14.4 7.95 Q15.7 12.2 15.7 13.15 16.15 7.05 15.8 5.9 L16.05 6.3 16.9 7.7 Q18.3 9.25 18.5 3.75 L18.6 4.4 18.7 7.05 18.7 7.2 18.7 7.3 18.7 7.5 Q18.7 10.4 17.45 12.9 16.55 14.8 15.0 16.35 15.3 29.05 12.3 37.85" fill="#000000" fill-opacity="0.2" fill-rule="evenodd" stroke="none"/>
    <path d="M-8.05 13.8 L-7.9 13.1 -7.2 10.45 -8.05 13.8" fill="#945c47" fill-rule="evenodd" stroke="none"/>
    <path d="M18.6 4.4 Q18.15 -0.5 16.35 -4.05 13.05 -10.6 5.3 -13.25 L1.8 -13.8 Q-2.05 -14.0 -3.8 -12.35 L-7.9 -11.95 Q-12.55 -10.55 -15.45 -5.55 -18.6 -0.05 -17.65 7.5 L-17.5 8.5 -17.5 8.65 M-3.6 0.2 L-2.6 -2.1 Q-0.9 -0.25 0.0 1.95 0.95 4.35 0.9 6.9 L0.8 8.2 M6.7 -0.05 Q8.35 6.45 8.95 13.15 9.95 25.3 6.9 33.95 L8.6 30.0 8.75 29.7 9.4 27.95 9.7 26.9 10.7 23.2 11.3 20.3 Q12.0 15.8 11.55 11.95 L11.15 8.65 10.45 2.8 10.2 0.75 10.1 0.0 10.05 -0.45 10.05 -0.55 10.0 -1.05 9.75 -2.5 M1.2 -3.05 L1.85 -2.45 M6.3 -1.55 L6.7 -0.05 M18.6 4.4 L18.7 7.05 18.7 7.2 18.7 7.3 18.7 7.5 Q18.7 10.4 17.45 12.9 16.55 14.8 15.0 16.35 15.3 29.05 12.3 37.85 L11.45 40.1 Q10.2 43.05 8.7 45.1 L7.45 46.6 Q13.55 39.0 12.25 17.5 11.85 10.8 10.75 3.45 L10.0 -1.05 M-7.2 10.45 L-7.1 10.1 -4.35 2.0 -3.65 0.3 -3.6 0.2 M-17.5 8.5 L-17.55 8.45 -17.25 9.95 -16.1 13.6 -15.95 13.95 Q-14.9 16.45 -13.4 17.95 -13.4 22.3 -12.1 26.65 L-10.85 30.0 M-9.35 30.55 Q-10.05 23.7 -8.45 15.8 L-8.05 13.8 -7.2 10.45" fill="none" stroke="#000000" stroke-linecap="square" stroke-linejoin="round" stroke-opacity="0.6" stroke-width="1.0"/>
    <path d="M1.85 -2.45 L3.35 -0.8 Q5.55 2.0 5.65 4.8 L6.15 2.7 Q6.6 0.25 6.3 -1.55 M0.8 8.2 Q1.6 6.35 2.0 4.0 2.85 -0.7 1.2 -3.05 M-10.85 30.0 Q-12.2 26.9 -11.45 19.45 L-10.1 27.25 -9.35 30.55" fill="none" stroke="#000000" stroke-linecap="square" stroke-linejoin="round" stroke-opacity="0.4" stroke-width="1.0"/>
  </g>
</svg>
