<?xml version="1.0" encoding="UTF-8" standalone="no"?>
<svg xmlns:xlink="http://www.w3.org/1999/xlink" height="27.45px" width="37.5px" xmlns="http://www.w3.org/2000/svg">
  <g transform="matrix(1.0, 0.0, 0.0, 1.0, 18.35, 13.6)">
    <path d="M-16.25 -8.75 L-14.8 -10.05 Q-12.6 -11.7 -10.25 -12.35 L-6.55 -12.95 -3.25 -12.95 0.5 -12.75 3.3 -12.45 5.2 -12.6 8.45 -12.75 Q12.45 -12.75 14.8 -11.35 16.85 -10.25 17.75 -8.75 L17.85 -8.75 18.35 -7.1 Q18.65 -5.45 18.35 -1.7 17.6 -4.45 15.2 -6.15 L15.6 -4.65 15.95 -3.1 Q14.15 -4.95 12.55 -5.75 L13.05 -4.7 13.65 -3.6 Q11.0 -5.65 8.95 -6.75 5.75 -8.5 3.5 -8.15 L4.7 -6.3 2.0 -7.45 2.85 -6.75 3.7 -5.9 4.3 -5.3 4.4 -5.25 1.6 -5.95 0.1 -5.95 Q-2.7 -6.2 -5.65 -4.95 -5.45 -5.85 -4.8 -6.4 L-6.55 -5.95 -8.25 -5.4 Q-7.4 -6.35 -5.75 -7.3 L-8.15 -6.55 -10.5 -5.5 -7.55 -8.05 Q-9.05 -7.75 -11.1 -6.85 L-12.5 -5.9 -13.9 -4.95 Q-13.2 -6.65 -11.35 -8.25 L-13.4 -6.9 Q-14.8 -6.05 -15.65 -6.0 L-14.75 -7.15 -14.0 -8.35 Q-15.95 -8.05 -17.5 -6.35 -17.15 -7.6 -16.4 -8.75 L-16.25 -8.75 M13.45 -10.95 L12.75 -11.5 11.8 -12.1 10.35 -12.3 8.7 -12.25 9.1 -11.7 Q9.5 -11.4 9.8 -11.4 L8.4 -11.35 6.95 -11.15 7.6 -10.55 8.25 -10.05 5.7 -9.85 Q4.05 -9.65 3.4 -9.05 L4.9 -9.15 6.55 -9.4 8.6 -9.4 10.7 -9.4 10.2 -10.05 9.25 -10.55 10.75 -10.45 12.2 -10.25 11.75 -10.85 10.9 -11.35 12.2 -11.3 13.45 -10.95 M15.55 10.85 L14.85 9.65 14.3 8.55 14.15 8.9 14.0 9.3 Q13.7 8.45 13.75 7.25 L14.0 5.15 14.5 1.8 14.65 -0.85 15.65 0.0 15.4 -1.15 14.95 -2.35 15.9 -1.3 16.75 -0.15 Q16.9 1.3 16.25 5.85 L15.55 10.85 M-15.4 -3.7 L-15.35 -3.75 -15.35 -2.75 -15.45 -1.7 Q-14.5 -3.6 -13.15 -4.3 L-13.3 -3.2 -13.25 -2.05 Q-12.45 -3.2 -11.5 -3.65 L-11.65 -2.75 -12.15 -0.55 -12.9 1.9 Q-13.35 3.4 -13.3 4.4 L-13.15 6.65 -13.0 8.95 -13.35 8.0 -13.75 6.95 Q-13.5 7.45 -13.75 8.2 L-14.3 9.2 -14.6 9.15 -14.95 9.25 -15.05 9.45 Q-15.1 8.75 -15.5 7.45 -15.9 6.15 -16.0 2.45 -16.15 -1.3 -15.85 -2.2 L-15.4 -3.7 M-9.2 -12.2 L-10.1 -11.6 -10.85 -11.1 -9.6 -11.35 -8.25 -11.5 -9.15 -11.0 -9.65 -10.35 -8.15 -10.55 -6.6 -10.7 -7.5 -10.2 -8.15 -9.5 -6.0 -9.5 -3.9 -9.55 -2.3 -9.3 -0.8 -9.1 Q-1.4 -9.75 -3.05 -9.95 L-5.65 -10.2 -4.9 -10.7 -4.35 -11.25 -5.75 -11.45 -7.15 -11.5 Q-6.85 -11.5 -6.45 -11.85 -6.05 -12.15 -6.15 -12.35 L-7.7 -12.35 -9.2 -12.2" fill="#ffffff" fill-opacity="0.0" fill-rule="evenodd" stroke="none"/>
    <path d="M13.45 -10.95 L12.2 -11.3 10.9 -11.35 11.75 -10.85 12.2 -10.25 10.75 -10.45 9.25 -10.55 10.2 -10.05 10.7 -9.4 8.6 -9.4 6.55 -9.4 4.9 -9.15 3.4 -9.05 Q4.05 -9.65 5.7 -9.85 L8.25 -10.05 7.6 -10.55 6.95 -11.15 8.4 -11.35 9.8 -11.4 Q9.5 -11.4 9.1 -11.7 L8.7 -12.25 10.35 -12.3 11.8 -12.1 12.75 -11.5 13.45 -10.95 M-9.2 -12.2 L-7.7 -12.35 -6.15 -12.35 Q-6.05 -12.15 -6.45 -11.85 -6.85 -11.5 -7.15 -11.5 L-5.75 -11.45 -4.35 -11.25 -4.9 -10.7 -5.65 -10.2 -3.05 -9.95 Q-1.4 -9.75 -0.8 -9.1 L-2.3 -9.3 -3.9 -9.55 -6.0 -9.5 -8.15 -9.5 -7.5 -10.2 -6.6 -10.7 -8.15 -10.55 -9.65 -10.35 -9.15 -11.0 -8.25 -11.5 -9.6 -11.35 -10.85 -11.1 -10.1 -11.6 -9.2 -12.2" fill="#ffffff" fill-opacity="0.2" fill-rule="evenodd" stroke="none"/>
    <path d="M-17.5 -6.35 Q-15.95 -8.05 -14.0 -8.35 L-14.75 -7.15 -15.65 -6.0 Q-14.8 -6.05 -13.4 -6.9 L-11.35 -8.25 Q-13.2 -6.65 -13.9 -4.95 L-12.5 -5.9 -11.1 -6.85 Q-9.05 -7.75 -7.55 -8.05 L-10.5 -5.5 -8.15 -6.55 -5.75 -7.3 Q-7.4 -6.35 -8.25 -5.4 L-6.55 -5.95 -4.8 -6.4 Q-5.45 -5.85 -5.65 -4.95 -2.7 -6.2 0.1 -5.95 L-1.25 -5.7 -3.0 -5.2 Q-4.1 -4.9 -4.6 -4.55 L-6.1 -3.2 Q-6.95 -2.1 -7.5 -1.8 L-6.9 -3.85 -5.9 -5.85 -8.05 -3.95 -10.05 -2.0 -9.5 -3.85 -8.45 -5.6 -10.9 -4.2 -11.5 -3.8 -11.5 -3.65 Q-12.45 -3.2 -13.25 -2.05 L-13.3 -3.2 -13.15 -4.3 Q-14.5 -3.6 -15.45 -1.7 L-15.35 -2.75 -15.35 -3.75 -15.4 -3.7 -15.45 -3.7 -15.35 -3.85 -15.35 -3.9 -15.3 -4.2 -15.2 -4.35 -15.05 -5.0 -16.25 -3.75 -17.45 -2.4 -17.25 -4.25 -16.75 -6.15 -17.25 -5.75 -17.7 -5.25 -17.55 -6.3 -17.5 -6.35 M4.4 -5.25 L4.3 -5.3 3.7 -5.9 2.85 -6.75 2.0 -7.45 4.7 -6.3 3.5 -8.15 Q5.75 -8.5 8.95 -6.75 11.0 -5.65 13.65 -3.6 L13.05 -4.7 12.55 -5.75 Q14.15 -4.95 15.95 -3.1 L15.6 -4.65 15.2 -6.15 Q17.6 -4.45 18.35 -1.7 L18.35 -1.65 18.25 -0.8 17.5 -1.55 16.85 -2.5 17.0 -1.35 16.95 -0.25 16.7 -0.55 16.75 -0.15 15.9 -1.3 14.95 -2.35 15.4 -1.15 15.65 0.0 14.65 -0.85 14.5 1.8 14.0 5.15 13.75 7.25 Q13.7 8.45 14.0 9.3 L14.15 8.9 14.3 8.55 14.85 9.65 15.55 10.85 15.1 12.2 Q14.55 12.95 13.7 12.9 12.8 12.8 12.3 11.95 L12.0 12.25 12.2 7.1 Q13.1 4.45 13.25 1.75 13.3 0.8 12.95 -0.4 L12.35 -2.3 12.1 -2.6 11.3 -3.45 10.65 -4.05 9.6 -4.8 Q7.7 -5.9 5.65 -6.15 L6.4 -5.5 6.9 -4.8 Q5.2 -5.75 3.7 -6.1 L4.1 -5.7 4.4 -5.25 M-15.4 -3.7 L-15.35 -3.85 -15.4 -3.7 M-15.05 9.45 L-14.95 9.25 -14.6 9.15 -14.3 9.2 -13.75 8.2 Q-13.5 7.45 -13.75 6.95 L-13.35 8.0 -13.0 8.95 -13.15 6.65 -13.3 4.4 Q-13.35 3.4 -12.9 1.9 L-12.15 -0.55 -11.65 -2.75 -11.5 -3.65 -11.5 -2.1 -11.75 -1.15 -12.1 1.35 Q-12.55 5.45 -11.85 8.6 L-11.85 13.2 Q-12.05 12.65 -12.9 12.9 -13.75 13.1 -14.65 11.9 L-15.05 9.45" fill="#000000" fill-opacity="0.2" fill-rule="evenodd" stroke="none"/>
    <path d="M17.75 -8.75 Q16.85 -10.25 14.8 -11.35 12.45 -12.75 8.45 -12.75 L5.2 -12.6 3.3 -12.45 0.5 -12.75 -3.25 -12.95 -6.55 -12.95 -10.25 -12.35 Q-12.6 -11.7 -14.8 -10.05 L-16.25 -8.75 M-16.4 -8.75 Q-17.15 -7.6 -17.5 -6.35 M18.35 -1.7 Q18.65 -5.45 18.35 -7.1 L17.85 -8.75 M12.35 -2.3 L12.95 -0.4 Q13.3 0.8 13.25 1.75 13.1 4.45 12.2 7.1 L12.0 12.25 M18.25 -0.8 L18.35 -1.65 M16.75 -0.15 Q16.9 1.3 16.25 5.85 L15.55 10.85 M-15.35 -3.85 L-15.4 -3.7 -15.85 -2.2 Q-16.15 -1.3 -16.0 2.45 -15.9 6.15 -15.5 7.45 -15.1 8.75 -15.05 9.45 M-11.75 -1.15 L-12.1 1.35 Q-12.55 5.45 -11.85 8.6 L-11.85 13.2" fill="none" stroke="#000000" stroke-linecap="square" stroke-linejoin="round" stroke-opacity="0.6" stroke-width="1.0"/>
    <path d="M0.1 -5.95 L1.6 -5.95 4.4 -5.25 4.1 -5.7 3.7 -6.1 Q5.2 -5.75 6.9 -4.8 L6.4 -5.5 5.65 -6.15 Q7.7 -5.9 9.6 -4.8 L10.65 -4.05 11.3 -3.45 12.1 -2.6 12.35 -2.3 M12.0 12.25 L12.3 11.95 Q12.8 12.8 13.7 12.9 14.55 12.95 15.1 12.2 L15.55 10.85 M16.75 -0.15 L16.7 -0.55 16.95 -0.25 17.0 -1.35 16.85 -2.5 17.5 -1.55 18.25 -0.8 M18.35 -1.65 L18.35 -1.7 M-17.5 -6.35 L-17.55 -6.3 -17.7 -5.25 -17.25 -5.75 -16.75 -6.15 -17.25 -4.25 -17.45 -2.4 -16.25 -3.75 -15.05 -5.0 -15.2 -4.35 -15.3 -4.2 -15.35 -3.9 -15.35 -3.85 -15.45 -3.7 -15.4 -3.7 -15.35 -3.75 M-11.5 -3.65 L-11.5 -3.8 -10.9 -4.2 -8.45 -5.6 -9.5 -3.85 -10.05 -2.0 -8.05 -3.95 -5.9 -5.85 -6.9 -3.85 -7.5 -1.8 Q-6.95 -2.1 -6.1 -3.2 L-4.6 -4.55 Q-4.1 -4.9 -3.0 -5.2 L-1.25 -5.7 0.1 -5.95 M-11.5 -3.65 L-11.5 -2.1 -11.75 -1.15 M-11.85 13.2 Q-12.05 12.65 -12.9 12.9 -13.75 13.1 -14.65 11.9 L-15.05 9.45" fill="none" stroke="#000000" stroke-linecap="square" stroke-linejoin="round" stroke-opacity="0.4" stroke-width="1.0"/>
  </g>
</svg>
