<?xml version="1.0" encoding="UTF-8" standalone="no"?>
<svg xmlns:xlink="http://www.w3.org/1999/xlink" height="40.9px" width="43.1px" xmlns="http://www.w3.org/2000/svg">
  <g transform="matrix(1.0, 0.0, 0.0, 1.0, 21.45, 15.7)">
    <path d="M-13.65 -11.3 L-13.4 -11.15 -9.95 -12.85 Q-6.3 -14.6 -4.85 -14.7 L0.15 -15.05 5.15 -14.7 Q6.55 -14.6 10.25 -12.85 L13.65 -11.15 Q15.1 -11.8 14.25 -13.6 L13.15 -15.2 Q17.05 -14.1 19.55 -9.2 20.6 -7.0 21.05 -5.0 19.6 -3.4 16.65 -2.85 L11.55 -2.5 15.45 -3.45 Q17.7 -4.05 18.95 -5.1 20.2 -6.1 20.25 -7.4 L19.55 -9.15 Q19.4 -7.75 18.65 -7.0 17.85 -6.15 16.0 -5.8 L13.85 -5.5 11.7 -5.35 Q9.15 -5.1 7.6 -4.05 8.65 -5.65 11.6 -6.35 L13.9 -6.9 Q15.2 -7.3 16.0 -7.9 17.3 -8.95 17.0 -10.6 16.75 -11.85 15.55 -13.35 16.55 -11.85 16.1 -10.35 15.65 -8.75 13.7 -8.35 L11.45 -8.15 9.25 -7.8 Q7.5 -7.25 6.15 -6.05 L3.85 -3.35 Q4.25 -4.85 5.45 -6.05 6.35 -7.0 8.0 -7.95 L9.95 -9.25 11.8 -10.65 Q11.0 -10.15 9.45 -9.65 L7.0 -8.75 Q5.25 -7.85 3.95 -5.95 3.35 -5.15 1.9 -2.3 2.25 -5.35 3.05 -7.75 3.5 -9.15 4.75 -10.75 L7.0 -13.35 5.4 -12.55 4.0 -11.6 2.5 -9.5 1.4 -7.2 Q1.85 -9.1 2.5 -10.6 3.15 -12.05 4.3 -13.8 L2.05 -11.15 Q0.95 -9.65 0.6 -8.05 L0.1 -5.25 0.05 -6.5 Q0.05 -8.45 -0.75 -10.3 -1.6 -12.35 -3.0 -13.55 L-1.7 -10.8 Q-1.2 -9.55 -0.95 -7.9 -2.2 -9.4 -3.75 -10.45 -5.25 -11.4 -7.2 -12.05 -5.5 -11.35 -4.0 -10.0 -2.5 -8.6 -1.95 -7.3 -3.95 -8.45 -6.05 -8.9 L-10.5 -9.3 Q-12.1 -9.25 -12.85 -9.85 -13.6 -10.4 -13.65 -11.3 M21.05 -5.0 L21.15 -4.45 20.85 -0.7 Q18.8 -0.05 16.5 -0.25 14.05 -0.5 12.75 -1.45 15.6 -1.6 17.45 -2.3 19.75 -3.15 21.05 -4.9 L21.05 -5.0 M20.75 0.25 L19.1 7.35 19.1 7.4 14.55 9.9 14.7 9.2 14.25 8.6 15.5 7.95 15.2 7.95 17.25 6.6 Q18.7 5.7 19.7 5.15 L19.85 4.55 18.85 4.7 16.25 5.35 13.7 5.65 Q14.25 4.95 15.7 4.3 L18.0 3.3 19.6 2.65 Q15.75 3.3 13.65 4.0 14.65 2.8 16.9 1.85 L18.85 1.05 20.75 0.25 M-0.2 -1.2 L-1.5 -1.25 Q-1.75 -2.45 -2.35 -3.3 -3.05 -4.3 -4.45 -4.9 L-7.05 -5.65 -9.9 -6.05 -12.7 -6.65 Q-15.7 -7.65 -16.2 -10.4 -16.8 -8.4 -15.85 -7.2 -15.15 -6.25 -13.2 -5.65 L-9.6 -4.75 Q-7.55 -4.15 -6.75 -3.35 -7.8 -4.2 -9.6 -4.45 L-12.7 -4.75 Q-14.35 -5.0 -15.65 -5.7 L-18.05 -7.6 Q-17.45 -6.0 -16.1 -4.85 -14.8 -3.8 -12.95 -3.25 L-11.6 -2.8 Q-10.7 -2.5 -10.5 -2.1 L-10.4 -1.95 -11.6 0.5 -13.4 0.5 -15.2 0.25 -16.55 -0.3 -17.8 -1.0 -14.8 -0.55 -11.8 -1.05 Q-14.35 -1.0 -16.2 -1.7 -17.65 -2.3 -19.5 -3.75 -18.5 -3.0 -17.45 -2.8 L-14.85 -2.85 Q-16.1 -2.65 -17.55 -3.8 -18.9 -4.9 -19.35 -6.05 -19.8 -7.35 -19.4 -8.85 L-20.55 -5.8 -20.75 -5.05 Q-20.3 -7.05 -19.25 -9.2 -16.75 -14.1 -12.9 -15.2 L-12.9 -15.15 -12.95 -15.15 -12.95 -15.1 Q-14.55 -14.4 -15.25 -12.75 -15.9 -10.95 -15.1 -9.3 -14.5 -8.15 -12.6 -8.0 L-9.55 -8.0 -8.25 -7.85 -8.7 -7.8 -9.75 -7.55 Q-5.0 -7.3 -2.45 -5.05 -1.3 -4.0 -0.85 -3.05 L-1.45 -4.35 Q-0.5 -3.05 -0.2 -1.2 M-11.65 0.65 L-11.8 1.1 -12.2 2.3 -14.65 1.6 -16.85 0.9 -11.65 0.65 M-12.55 3.65 L-12.8 4.85 Q-15.4 4.5 -17.15 3.65 -15.45 4.15 -12.55 3.65 M-13.0 6.3 L-13.15 7.15 -13.2 7.0 -13.75 7.8 -18.85 7.1 -19.25 5.8 -13.0 6.3" fill="#ffffff" fill-opacity="0.0" fill-rule="evenodd" stroke="none"/>
    <path d="M-13.65 -11.3 Q-13.6 -10.4 -12.85 -9.85 -12.1 -9.25 -10.5 -9.3 L-6.05 -8.9 Q-3.95 -8.45 -1.95 -7.3 -2.5 -8.6 -4.0 -10.0 -5.5 -11.35 -7.2 -12.05 -5.25 -11.4 -3.75 -10.45 -2.2 -9.4 -0.95 -7.9 -1.2 -9.55 -1.7 -10.8 L-3.0 -13.55 Q-1.6 -12.35 -0.75 -10.3 0.05 -8.45 0.05 -6.5 L0.1 -5.25 0.6 -8.05 Q0.95 -9.65 2.05 -11.15 L4.3 -13.8 Q3.15 -12.05 2.5 -10.6 1.85 -9.1 1.4 -7.2 L2.5 -9.5 4.0 -11.6 5.4 -12.55 7.0 -13.35 4.75 -10.75 Q3.5 -9.15 3.05 -7.75 2.25 -5.35 1.9 -2.3 3.35 -5.15 3.95 -5.95 5.25 -7.85 7.0 -8.75 L9.45 -9.65 Q11.0 -10.15 11.8 -10.65 L9.95 -9.25 8.0 -7.95 Q6.35 -7.0 5.45 -6.05 4.25 -4.85 3.85 -3.35 L6.15 -6.05 Q7.5 -7.25 9.25 -7.8 L11.45 -8.15 13.7 -8.35 Q15.65 -8.75 16.1 -10.35 16.55 -11.85 15.55 -13.35 16.75 -11.85 17.0 -10.6 17.3 -8.95 16.0 -7.9 15.2 -7.3 13.9 -6.9 L11.6 -6.35 Q8.65 -5.65 7.6 -4.05 9.15 -5.1 11.7 -5.35 L13.85 -5.5 16.0 -5.8 Q17.85 -6.15 18.65 -7.0 19.4 -7.75 19.55 -9.15 L20.25 -7.4 Q20.2 -6.1 18.95 -5.1 17.7 -4.05 15.45 -3.45 L11.55 -2.5 16.65 -2.85 Q19.6 -3.4 21.05 -5.0 L21.05 -4.9 Q19.75 -3.15 17.45 -2.3 15.6 -1.6 12.75 -1.45 14.05 -0.5 16.5 -0.25 18.8 -0.05 20.85 -0.7 L20.75 0.25 18.85 1.05 16.9 1.85 Q14.65 2.8 13.65 4.0 15.75 3.3 19.6 2.65 L18.0 3.3 15.7 4.3 Q14.25 4.95 13.7 5.65 L16.25 5.35 18.85 4.7 19.85 4.55 19.7 5.15 Q18.7 5.7 17.25 6.6 L15.2 7.95 15.5 7.95 14.25 8.6 14.7 9.2 14.55 9.9 19.1 7.4 19.0 7.55 18.55 9.1 17.3 12.1 17.25 12.15 14.2 17.95 14.1 18.15 14.0 18.35 13.75 18.7 10.95 23.85 10.9 23.95 10.9 23.9 10.5 22.8 9.85 21.6 9.1 20.15 8.8 19.65 9.6 18.85 10.05 17.85 10.45 16.85 10.85 15.8 12.05 11.6 12.9 7.9 12.8 6.6 12.75 6.4 12.1 2.55 12.1 2.5 12.2 2.35 11.8 1.2 11.55 0.6 10.85 -1.4 10.55 -2.15 0.3 -1.2 0.1 -1.2 -0.2 -1.2 Q-0.5 -3.05 -1.45 -4.35 -2.95 -7.4 -6.15 -7.85 L-8.25 -7.85 -9.55 -8.0 -12.6 -8.0 Q-14.5 -8.15 -15.1 -9.3 -15.9 -10.95 -15.25 -12.75 -14.55 -14.4 -12.95 -15.1 L-14.0 -13.55 Q-14.7 -12.0 -13.65 -11.3 M-1.5 -1.25 L-4.65 -1.4 -5.85 -1.5 -7.4 -1.65 -7.85 -1.75 -10.3 -2.15 -10.4 -1.85 -10.4 -1.95 -10.5 -2.1 Q-10.7 -2.5 -11.6 -2.8 L-12.95 -3.25 Q-14.8 -3.8 -16.1 -4.85 -17.45 -6.0 -18.05 -7.6 L-15.65 -5.7 Q-14.35 -5.0 -12.7 -4.75 L-9.6 -4.45 Q-7.8 -4.2 -6.75 -3.35 -7.55 -4.15 -9.6 -4.75 L-13.2 -5.65 Q-15.15 -6.25 -15.85 -7.2 -16.8 -8.4 -16.2 -10.4 -15.7 -7.65 -12.7 -6.65 L-9.9 -6.05 -7.05 -5.65 -4.45 -4.9 Q-3.05 -4.3 -2.35 -3.3 -1.75 -2.45 -1.5 -1.25 M-11.6 0.5 L-11.65 0.65 -16.85 0.9 -14.65 1.6 -12.2 2.3 -12.4 3.1 -12.5 3.35 -12.55 3.65 Q-15.45 4.15 -17.15 3.65 -15.4 4.5 -12.8 4.85 L-13.0 6.3 -19.25 5.8 -19.3 5.8 -19.3 5.75 -19.75 3.75 -19.85 3.45 -20.0 2.9 -20.15 2.1 -20.35 0.9 -20.7 -1.8 -20.95 -4.45 -20.75 -5.05 -20.55 -5.8 -19.4 -8.85 Q-19.8 -7.35 -19.35 -6.05 -18.9 -4.9 -17.55 -3.8 -16.1 -2.65 -14.85 -2.85 L-17.45 -2.8 Q-18.5 -3.0 -19.5 -3.75 -17.65 -2.3 -16.2 -1.7 -14.35 -1.0 -11.8 -1.05 L-14.8 -0.55 -17.8 -1.0 -16.55 -0.3 -15.2 0.25 -13.4 0.5 -11.6 0.5 M-13.15 7.15 L-11.95 12.4 -10.6 16.6 Q-9.55 18.95 -8.05 20.25 L-9.6 22.35 Q-10.5 23.8 -10.65 24.7 L-14.9 16.45 -15.4 15.55 -18.7 7.7 -18.9 7.1 -18.85 7.1 -13.75 7.8 -13.2 7.0 -13.15 7.15" fill="#000000" fill-opacity="0.2" fill-rule="evenodd" stroke="none"/>
    <path d="M12.1 2.5 L12.1 2.45 12.05 2.2 11.8 1.2 12.2 2.35 12.1 2.5 M-7.4 -1.65 L-10.3 -2.15 -7.85 -1.75 -7.4 -1.65" fill="#935c49" fill-rule="evenodd" stroke="none"/>
    <path d="M-8.25 -7.85 L-6.15 -7.85 Q-2.95 -7.4 -1.45 -4.35 L-0.85 -3.05 Q-1.3 -4.0 -2.45 -5.05 -5.0 -7.3 -9.75 -7.55 L-8.7 -7.8 -8.25 -7.85" fill="#ffffff" fill-opacity="0.2" fill-rule="evenodd" stroke="none"/>
    <path d="M21.05 -5.0 Q20.6 -7.0 19.55 -9.2 17.05 -14.1 13.15 -15.2 L14.25 -13.6 Q15.1 -11.8 13.65 -11.15 L10.25 -12.85 Q6.55 -14.6 5.15 -14.7 L0.15 -15.05 -4.85 -14.7 Q-6.3 -14.6 -9.95 -12.85 L-13.4 -11.15 -13.65 -11.3 Q-14.7 -12.0 -14.0 -13.55 L-12.95 -15.1 -12.95 -15.15 -12.9 -15.15 -12.9 -15.2 Q-16.75 -14.1 -19.25 -9.2 -20.3 -7.05 -20.75 -5.05 L-20.95 -4.45 -20.7 -1.8 -20.35 0.9 -20.15 2.1 -20.0 2.9 -19.85 3.45 -19.75 3.75 -19.3 5.75 -19.3 5.8 -19.25 5.8 -18.85 7.1 -18.9 7.1 -18.7 7.7 -15.4 15.55 -14.9 16.45 -10.65 24.7 Q-10.5 23.8 -9.6 22.35 L-8.05 20.25 Q-9.55 18.95 -10.6 16.6 L-11.95 12.4 -13.15 7.15 -13.0 6.3 -12.8 4.85 -12.55 3.65 -12.5 3.35 -12.4 3.1 -12.2 2.3 -11.8 1.1 -11.65 0.65 M21.05 -5.0 L21.15 -4.45 20.85 -0.7 20.75 0.25 19.1 7.35 19.1 7.4 19.0 7.55 18.55 9.1 17.3 12.1 17.25 12.15 14.2 17.95 14.1 18.15 14.0 18.35 13.75 18.7 10.95 23.85 10.9 23.95 10.9 23.9 10.5 22.8 9.85 21.6 9.1 20.15 8.8 19.65 9.6 18.85 10.05 17.85 10.45 16.85 10.85 15.8 12.05 11.6 12.9 7.9 12.8 6.6 12.75 6.4 12.1 2.55 12.1 2.5 M12.1 2.45 L12.05 2.2 11.8 1.2 11.55 0.6 10.85 -1.4 10.55 -2.15 0.3 -1.2 0.1 -1.2 -0.2 -1.2 -1.5 -1.25 -4.65 -1.4 -5.85 -1.5 -7.4 -1.65 -7.85 -1.75 -10.3 -2.15 M-10.4 -1.95 L-11.6 0.5" fill="none" stroke="#000000" stroke-linecap="round" stroke-linejoin="round" stroke-opacity="0.6" stroke-width="1.0"/>
  </g>
</svg>
