<?xml version="1.0" encoding="UTF-8" standalone="no"?>
<svg xmlns:xlink="http://www.w3.org/1999/xlink" height="28.8px" width="37.1px" xmlns="http://www.w3.org/2000/svg">
  <g transform="matrix(1.0, 0.0, 0.0, 1.0, 18.85, 15.75)">
    <path d="M17.45 0.95 L15.25 0.4 Q12.85 -0.6 11.5 -2.8 10.2 -5.0 8.3 -5.25 L7.2 -5.15 7.1 -5.3 7.9 -7.05 8.2 -8.9 Q5.95 -12.0 2.65 -12.85 L0.6 -13.15 -0.25 -13.1 Q3.7 -12.55 5.85 -9.95 6.85 -8.65 7.15 -7.5 4.25 -11.8 -0.85 -12.25 L-4.1 -12.05 -5.3 -11.7 Q0.6 -12.35 4.2 -8.7 5.55 -7.35 6.25 -5.9 L5.75 -6.25 3.45 -7.35 Q0.45 -8.8 -3.0 -9.1 L-9.6 -8.55 -7.05 -8.5 -4.75 -7.8 Q-8.65 -7.9 -11.45 -6.5 -14.25 -5.05 -16.2 -1.95 -17.45 -0.05 -17.9 1.2 L-17.45 -1.25 Q-15.65 -8.75 -10.3 -12.45 -4.9 -16.1 1.3 -14.75 3.55 -14.3 5.45 -13.2 L7.5 -11.8 8.7 -10.55 9.4 -10.8 Q10.3 -11.05 11.2 -10.55 12.7 -9.55 14.45 -6.85 16.85 -3.25 17.45 0.95 17.95 4.2 16.75 7.15 14.85 7.1 13.85 5.75 L13.35 4.9 13.2 4.55 Q14.05 5.45 15.5 4.75 L16.75 3.8 Q14.8 3.7 13.6 2.3 L12.95 1.3 12.75 0.85 Q13.95 2.0 15.85 1.55 L17.45 0.95 M-5.75 -11.65 L-7.75 -11.6 Q-7.7 -11.6 -7.2 -11.9 L-6.65 -12.3 -5.95 -12.5 -5.25 -12.7 -2.35 -13.4 -5.2 -13.2 -8.2 -12.75 -10.7 -11.35 Q-11.85 -10.45 -12.45 -9.25 L-11.35 -10.2 Q-10.7 -10.7 -9.95 -10.75 -10.9 -10.35 -12.05 -9.2 L-13.75 -7.2 -11.2 -8.55 -8.4 -9.4 -5.05 -9.65 -1.75 -9.5 Q-2.65 -10.25 -4.95 -10.15 L-6.85 -10.05 -8.45 -10.3 -6.25 -10.85 -4.05 -11.25 Q-4.4 -11.65 -5.75 -11.65" fill="#ffffff" fill-opacity="0.0" fill-rule="evenodd" stroke="none"/>
    <path d="M-17.9 1.2 Q-17.45 -0.05 -16.2 -1.95 -14.25 -5.05 -11.45 -6.5 -8.65 -7.9 -4.75 -7.8 L-7.05 -8.5 -9.6 -8.55 -3.0 -9.1 Q0.45 -8.8 3.45 -7.35 L5.75 -6.25 6.25 -5.9 Q5.55 -7.35 4.2 -8.7 0.6 -12.35 -5.3 -11.7 L-4.1 -12.05 -0.85 -12.25 Q4.25 -11.8 7.15 -7.5 6.85 -8.65 5.85 -9.95 3.7 -12.55 -0.25 -13.1 L0.6 -13.15 2.65 -12.85 Q5.95 -12.0 8.2 -8.9 L7.9 -7.05 7.1 -5.3 7.2 -5.15 8.3 -5.25 Q10.2 -5.0 11.5 -2.8 12.85 -0.6 15.25 0.4 L17.45 0.95 15.85 1.55 Q13.95 2.0 12.75 0.85 L12.95 1.3 13.6 2.3 Q14.8 3.7 16.75 3.8 L15.5 4.75 Q14.05 5.45 13.2 4.55 L13.35 4.9 13.85 5.75 Q14.85 7.1 16.75 7.15 L16.55 7.8 16.25 8.4 16.25 8.45 15.15 10.1 14.95 10.35 14.25 11.1 12.05 12.4 11.2 1.15 Q11.1 0.15 10.5 -1.1 9.65 -2.9 8.1 -4.1 L8.05 -4.15 Q7.45 -4.65 6.7 -4.95 L6.65 -4.95 6.6 -5.0 -0.7 -5.05 -3.85 -4.95 -3.95 -4.8 Q-4.4 -3.8 -3.65 -2.6 L-2.85 -1.75 -2.1 -0.75 Q-1.65 0.1 -2.05 1.0 -2.6 2.0 -4.25 2.05 L-5.55 1.95 -6.65 1.85 Q-4.7 1.95 -4.35 0.7 -4.05 -0.5 -5.0 -1.95 L-6.35 -4.2 -6.45 -4.8 Q-9.4 -4.65 -10.55 -4.15 L-12.05 -1.9 Q-13.4 0.55 -13.3 1.75 L-12.15 12.15 -13.3 11.8 Q-14.6 11.5 -16.2 10.2 L-18.0 6.4 -18.15 4.75 -18.15 3.85 -17.95 1.3 -17.9 1.2" fill="#000000" fill-opacity="0.2" fill-rule="evenodd" stroke="none"/>
    <path d="M-5.75 -11.65 Q-4.4 -11.65 -4.05 -11.25 L-6.25 -10.85 -8.45 -10.3 -6.85 -10.05 -4.95 -10.15 Q-2.65 -10.25 -1.75 -9.5 L-5.05 -9.65 -8.4 -9.4 -11.2 -8.55 -13.75 -7.2 -12.05 -9.2 Q-10.9 -10.35 -9.95 -10.75 -10.7 -10.7 -11.35 -10.2 L-12.45 -9.25 Q-11.85 -10.45 -10.7 -11.35 L-8.2 -12.75 -5.2 -13.2 -2.35 -13.4 -5.25 -12.7 -5.95 -12.5 -6.65 -12.3 -7.2 -11.9 Q-7.7 -11.6 -7.75 -11.6 L-5.75 -11.65" fill="#ffffff" fill-opacity="0.2" fill-rule="evenodd" stroke="none"/>
    <path d="M-18.15 3.85 L-18.15 4.75 -18.0 6.4 Q-18.25 5.85 -18.15 3.85" fill="#945c47" fill-rule="evenodd" stroke="none"/>
    <path d="M17.45 0.95 Q16.85 -3.25 14.45 -6.85 12.7 -9.55 11.2 -10.55 10.3 -11.05 9.4 -10.8 L8.7 -10.55 7.5 -11.8 5.45 -13.2 Q3.55 -14.3 1.3 -14.75 -4.9 -16.1 -10.3 -12.45 -15.65 -8.75 -17.45 -1.25 L-17.9 1.2 -17.95 1.3 -18.15 3.85 Q-18.25 5.85 -18.0 6.4 L-16.2 10.2 Q-14.6 11.5 -13.3 11.8 L-12.15 12.15 -13.3 1.75 Q-13.4 0.55 -12.05 -1.9 L-10.55 -4.15 Q-9.4 -4.65 -6.45 -4.8 L-6.35 -4.2 -5.0 -1.95 Q-4.05 -0.5 -4.35 0.7 -4.7 1.95 -6.65 1.85 L-5.55 1.95 -4.25 2.05 Q-2.6 2.0 -2.05 1.0 -1.65 0.1 -2.1 -0.75 L-2.85 -1.75 -3.65 -2.6 Q-4.4 -3.8 -3.95 -4.8 L-3.85 -4.95 -0.7 -5.05 6.6 -5.0 6.65 -4.95 6.7 -4.95 Q7.45 -4.65 8.05 -4.15 L8.1 -4.1 Q9.65 -2.9 10.5 -1.1 11.1 0.15 11.2 1.15 L12.05 12.4 14.25 11.1 14.95 10.35 15.15 10.1 16.25 8.45 16.25 8.4 16.55 7.8 16.75 7.15 Q17.95 4.2 17.45 0.95 Z" fill="none" stroke="#000000" stroke-linecap="square" stroke-linejoin="round" stroke-opacity="0.6" stroke-width="1.0"/>
  </g>
</svg>
