<?xml version="1.0" encoding="UTF-8" standalone="no"?>
<svg xmlns:xlink="http://www.w3.org/1999/xlink" height="28.7px" width="37.2px" xmlns="http://www.w3.org/2000/svg">
  <g transform="matrix(1.0, 0.0, 0.0, 1.0, 18.65, 15.8)">
    <path d="M4.9 -13.0 L3.75 -12.85 2.6 -12.7 3.45 -13.2 4.3 -13.75 2.65 -13.4 1.05 -12.9 -0.95 -12.65 -2.9 -12.6 -4.75 -12.05 -6.3 -11.45 -4.25 -11.85 -1.85 -11.95 -3.95 -11.65 Q-5.15 -11.45 -5.85 -10.8 L-2.15 -11.25 1.9 -11.05 5.9 -11.15 7.4 -11.5 9.4 -11.95 9.4 -12.05 9.65 -12.25 9.85 -12.5 9.65 -12.45 9.4 -12.35 7.4 -12.2 4.25 -12.1 Q4.55 -12.75 4.9 -13.0 M9.65 -13.2 L9.65 -13.05 9.45 -13.3 9.65 -13.05 Q10.9 -12.75 12.95 -10.8 14.95 -8.9 15.65 -7.2 L16.95 -3.05 Q17.5 -0.6 17.5 0.85 L15.85 1.7 14.2 2.05 15.5 0.55 16.5 -1.0 14.0 0.7 12.95 1.3 11.7 1.75 13.15 0.55 14.6 -0.8 Q16.3 -2.8 16.15 -4.4 15.85 -3.7 14.85 -2.7 L13.1 -1.2 Q11.45 -0.05 10.6 -0.65 L12.5 -3.25 Q11.2 -2.2 10.15 -2.65 L11.3 -3.55 12.4 -4.6 13.6 -6.05 11.55 -4.9 9.65 -4.7 9.4 -4.75 9.65 -4.9 10.95 -5.9 12.5 -7.5 Q11.85 -6.95 10.5 -6.45 L8.15 -5.15 9.4 -6.45 10.25 -7.4 11.95 -9.35 Q11.1 -8.5 9.65 -8.0 L9.4 -7.9 7.4 -7.65 4.6 -7.4 0.25 -7.25 -3.6 -6.75 Q-2.65 -7.8 -0.7 -8.05 L2.95 -8.1 6.45 -8.35 7.4 -8.7 Q8.8 -9.1 9.4 -10.1 L7.4 -9.75 3.9 -9.2 -1.05 -8.95 -4.55 -8.55 Q-6.6 -7.95 -6.75 -6.5 -6.65 -8.65 -5.1 -9.5 -3.9 -10.15 -1.4 -10.15 L2.85 -10.05 Q5.3 -10.15 6.45 -10.9 L1.3 -10.5 -3.95 -10.6 Q-5.4 -10.4 -6.45 -9.85 -7.55 -9.25 -8.0 -8.35 L-8.1 -8.15 -8.3 -6.7 -8.05 -5.0 -8.1 -5.05 -8.8 -5.5 -8.85 -5.5 -10.5 -6.55 Q-12.05 -7.45 -12.65 -8.35 -12.6 -7.45 -11.85 -5.7 -11.1 -3.95 -11.1 -3.0 L-12.4 -4.95 -14.05 -6.65 -12.75 -3.8 Q-12.15 -2.3 -12.15 -0.85 L-13.15 -1.65 -13.9 -2.55 -12.9 -0.8 Q-12.3 0.4 -12.35 1.1 -13.25 1.15 -14.5 0.25 L-16.35 -1.3 -15.15 0.75 -13.95 2.9 -15.2 1.65 Q-14.75 3.65 -13.75 5.05 L-15.65 3.2 -17.3 1.2 -16.05 4.55 Q-15.3 6.3 -14.0 7.6 L-15.8 6.6 -17.5 5.55 -16.45 7.1 -15.1 8.5 -16.2 7.95 Q-16.95 7.5 -17.3 7.35 L-15.9 8.7 Q-15.0 9.5 -14.65 10.1 L-16.1 9.35 Q-17.1 8.8 -17.55 8.75 L-17.5 9.15 Q-18.25 5.9 -17.9 1.55 -17.25 -7.0 -11.9 -11.95 L-11.5 -11.85 -10.3 -11.1 -10.35 -11.75 Q-10.25 -12.55 -9.4 -13.05 L-8.8 -13.3 -8.2 -13.6 -4.65 -14.65 Q1.15 -15.9 6.5 -14.1 L7.4 -13.75 9.45 -13.3 9.65 -13.2 M17.5 1.85 L17.45 4.1 17.3 6.3 17.65 7.8 15.6 9.2 Q14.4 9.9 13.4 9.9 L15.35 8.2 17.3 6.4 17.3 6.3 17.3 5.7 Q15.75 7.0 13.1 7.65 L17.0 4.05 15.5 4.9 13.95 5.05 Q16.15 3.45 17.5 1.85 M-8.8 -13.3 L-8.15 -13.6 -8.2 -13.6 -8.15 -13.6 -8.8 -13.3 M-14.65 -7.1 L-15.2 -4.8 Q-15.5 -3.05 -15.2 -2.65 L-16.1 -3.55 Q-15.9 -2.5 -15.1 -1.35 L-13.5 0.45 Q-14.05 -0.15 -14.45 -1.85 -14.9 -3.6 -14.7 -4.45 L-13.05 -2.85 Q-14.2 -5.05 -14.65 -7.1" fill="#ffffff" fill-opacity="0.0" fill-rule="evenodd" stroke="none"/>
    <path d="M4.9 -13.0 Q4.55 -12.75 4.25 -12.1 L7.4 -12.2 9.4 -12.35 9.65 -12.45 9.85 -12.5 9.65 -12.25 9.4 -12.05 9.4 -11.95 7.4 -11.5 5.9 -11.15 1.9 -11.05 -2.15 -11.25 -5.85 -10.8 Q-5.15 -11.45 -3.95 -11.65 L-1.85 -11.95 -4.25 -11.85 -6.3 -11.45 -4.75 -12.05 -2.9 -12.6 -0.95 -12.65 1.05 -12.9 2.65 -13.4 4.3 -13.75 3.45 -13.2 2.6 -12.7 3.75 -12.85 4.9 -13.0 M-14.65 -7.1 Q-14.2 -5.05 -13.05 -2.85 L-14.7 -4.45 Q-14.9 -3.6 -14.45 -1.85 -14.05 -0.15 -13.5 0.45 L-15.1 -1.35 Q-15.9 -2.5 -16.1 -3.55 L-15.2 -2.65 Q-15.5 -3.05 -15.2 -4.8 L-14.65 -7.1" fill="#ffffff" fill-opacity="0.2" fill-rule="evenodd" stroke="none"/>
    <path d="M17.5 0.85 L17.5 1.85 Q16.15 3.45 13.95 5.05 L15.5 4.9 17.0 4.05 13.1 7.65 Q15.75 7.0 17.3 5.7 L17.3 6.3 17.3 6.4 15.35 8.2 13.4 9.9 Q14.4 9.9 15.6 9.2 L17.65 7.8 17.9 8.25 Q16.55 10.2 15.15 11.05 L13.15 11.9 12.0 12.25 Q12.9 6.5 11.85 3.9 11.15 2.15 10.3 1.0 10.55 -0.85 10.1 -2.3 9.6 -3.75 8.15 -5.15 L7.65 -5.1 0.35 -4.9 -3.3 -4.85 -4.6 -4.9 -8.0 -5.0 -8.05 -5.0 -8.75 -5.05 -8.8 -5.0 -8.8 -5.05 -9.4 -4.5 Q-10.25 -3.8 -10.2 -1.5 L-9.95 0.65 Q-12.6 4.8 -12.55 7.5 -12.5 10.6 -11.9 12.05 L-11.9 12.15 -17.5 9.15 -17.55 8.75 Q-17.1 8.8 -16.1 9.35 L-14.65 10.1 Q-15.0 9.5 -15.9 8.7 L-17.3 7.35 Q-16.95 7.5 -16.2 7.95 L-15.1 8.5 -16.45 7.1 -17.5 5.55 -15.8 6.6 -14.0 7.6 Q-15.3 6.3 -16.05 4.55 L-17.3 1.2 -15.65 3.2 -13.75 5.05 Q-14.75 3.65 -15.2 1.65 L-13.95 2.9 -15.15 0.75 -16.35 -1.3 -14.5 0.25 Q-13.25 1.15 -12.35 1.1 -12.3 0.4 -12.9 -0.8 L-13.9 -2.55 -13.15 -1.65 -12.15 -0.85 Q-12.15 -2.3 -12.75 -3.8 L-14.05 -6.65 -12.4 -4.95 -11.1 -3.0 Q-11.1 -3.95 -11.85 -5.7 -12.6 -7.45 -12.65 -8.35 -12.05 -7.45 -10.5 -6.55 L-8.85 -5.5 -8.8 -5.5 -8.1 -5.05 -8.05 -5.0 -8.3 -6.7 -8.1 -8.15 -8.0 -8.35 Q-7.55 -9.25 -6.45 -9.85 -5.4 -10.4 -3.95 -10.6 L1.3 -10.5 6.45 -10.9 Q5.3 -10.15 2.85 -10.05 L-1.4 -10.15 Q-3.9 -10.15 -5.1 -9.5 -6.65 -8.65 -6.75 -6.5 -6.6 -7.95 -4.55 -8.55 L-1.05 -8.95 3.9 -9.2 7.4 -9.75 9.4 -10.1 Q8.8 -9.1 7.4 -8.7 L6.45 -8.35 2.95 -8.1 -0.7 -8.05 Q-2.65 -7.8 -3.6 -6.75 L0.25 -7.25 4.6 -7.4 7.4 -7.65 9.4 -7.9 9.65 -8.0 Q11.1 -8.5 11.95 -9.35 L10.25 -7.4 9.4 -6.45 8.15 -5.15 10.5 -6.45 Q11.85 -6.95 12.5 -7.5 L10.95 -5.9 9.65 -4.9 9.4 -4.75 9.65 -4.7 11.55 -4.9 13.6 -6.05 12.4 -4.6 11.3 -3.55 10.15 -2.65 Q11.2 -2.2 12.5 -3.25 L10.6 -0.65 Q11.45 -0.05 13.1 -1.2 L14.85 -2.7 Q15.85 -3.7 16.15 -4.4 16.3 -2.8 14.6 -0.8 L13.15 0.55 11.7 1.75 12.95 1.3 14.0 0.7 16.5 -1.0 15.5 0.55 14.2 2.05 15.85 1.7 17.5 0.85" fill="#000000" fill-opacity="0.2" fill-rule="evenodd" stroke="none"/>
    <path d="M9.65 -13.2 L9.45 -13.3 9.65 -13.05 Q10.9 -12.75 12.95 -10.8 14.95 -8.9 15.65 -7.2 L16.95 -3.05 Q17.5 -0.6 17.5 0.85 L17.5 1.85 17.45 4.1 17.3 6.3 17.65 7.8 17.9 8.25 Q16.55 10.2 15.15 11.05 L13.15 11.9 12.0 12.25 Q12.9 6.5 11.85 3.9 11.15 2.15 10.3 1.0 10.55 -0.85 10.1 -2.3 9.6 -3.75 8.15 -5.15 L7.65 -5.1 0.35 -4.9 -3.3 -4.85 -4.6 -4.9 -8.0 -5.0 -8.05 -5.0 -8.75 -5.05 -8.8 -5.0 M-8.8 -5.05 L-9.4 -4.5 Q-10.25 -3.8 -10.2 -1.5 L-9.95 0.65 Q-12.6 4.8 -12.55 7.5 -12.5 10.6 -11.9 12.05 L-11.9 12.15 -17.5 9.15 Q-18.25 5.9 -17.9 1.55 -17.25 -7.0 -11.9 -11.95 L-11.5 -11.85 -10.3 -11.1 -10.35 -11.75 Q-10.25 -12.55 -9.4 -13.05 L-8.8 -13.3 -8.2 -13.6 -4.65 -14.65 Q1.15 -15.9 6.5 -14.1 L7.4 -13.75 9.45 -13.3 M-8.2 -13.6 L-8.15 -13.6 -8.8 -13.3" fill="none" stroke="#000000" stroke-linecap="square" stroke-linejoin="round" stroke-opacity="0.6" stroke-width="1.0"/>
  </g>
</svg>
