<?xml version="1.0" encoding="UTF-8" standalone="no"?>
<svg xmlns:xlink="http://www.w3.org/1999/xlink" height="38.75px" width="51.4px" xmlns="http://www.w3.org/2000/svg">
  <g transform="matrix(1.0, 0.0, 0.0, 1.0, 24.9, 18.0)">
    <path d="M-12.05 12.1 Q-14.3 10.7 -16.0 14.1 -16.95 16.0 -17.9 19.65 L-17.7 17.7 -17.3 15.85 -18.9 17.8 -20.15 20.1 Q-19.65 18.25 -18.25 15.45 L-16.15 10.9 Q-17.4 11.4 -18.5 13.05 L-20.25 15.95 Q-19.25 13.55 -17.1 9.7 -18.8 9.5 -20.4 10.5 L-23.1 12.6 -22.6 10.45 -22.25 8.3 -22.85 8.7 -22.6 6.85 Q-22.4 5.75 -22.5 5.05 L-23.4 5.55 -24.25 6.1 -23.05 1.8 -21.85 -2.4 Q-20.1 -7.05 -16.2 -8.5 L-17.0 -8.35 -17.85 -8.3 -14.55 -10.4 Q-12.35 -11.55 -10.8 -11.1 -11.35 -11.7 -13.5 -11.4 L-16.55 -10.85 Q-16.0 -12.0 -15.0 -12.3 L-12.9 -12.8 -10.9 -13.45 -8.7 -14.0 Q-9.6 -15.0 -11.0 -15.1 -9.95 -16.4 -6.55 -15.1 L-4.0 -13.75 -2.4 -12.5 Q-2.8 -13.7 -3.9 -14.85 -4.95 -16.05 -6.0 -16.4 -3.45 -15.6 -1.85 -14.6 -3.0 -17.0 -3.55 -16.9 -1.7 -17.3 -0.55 -15.1 L-0.25 -16.45 Q0.0 -17.2 0.55 -17.35 0.95 -16.3 0.85 -14.35 L1.45 -15.2 1.95 -16.1 1.6 -14.75 1.4 -13.4 Q2.2 -13.6 3.65 -14.6 L6.3 -16.25 Q9.55 -18.1 11.45 -15.7 9.4 -16.0 7.7 -15.7 5.25 -15.25 5.1 -13.75 L8.05 -14.05 11.9 -14.15 Q16.75 -14.0 17.85 -11.7 16.8 -12.3 15.05 -12.5 13.15 -12.65 12.4 -12.0 L14.0 -11.75 15.55 -11.55 16.5 -10.7 Q17.0 -10.1 17.5 -9.95 L18.85 -9.9 20.25 -9.85 21.7 -9.0 22.95 -8.0 Q21.65 -8.95 19.5 -9.25 17.05 -9.55 16.05 -8.4 16.9 -8.2 17.65 -7.05 L19.05 -5.35 Q19.55 -5.0 21.45 -4.35 22.9 -3.8 23.65 -2.9 L22.25 -3.3 20.8 -3.85 18.0 -4.05 17.15 -4.65 Q16.05 -5.35 15.1 -5.65 L12.75 -5.95 10.3 -6.0 Q12.35 -7.15 14.2 -6.8 15.8 -6.45 17.95 -4.9 L16.1 -6.45 13.9 -7.3 11.95 -7.25 10.1 -6.7 9.0 -6.45 8.0 -6.1 9.5 -5.7 10.95 -5.3 12.3 -5.3 13.55 -5.4 Q14.75 -5.35 16.4 -4.7 L17.95 -4.05 Q18.25 -3.85 18.55 -3.75 18.3 -3.85 18.05 -4.05 19.95 -4.15 22.2 -2.4 24.1 -0.95 25.4 1.05 L22.15 0.05 Q19.95 -0.45 19.0 0.4 20.6 0.4 22.1 1.8 23.35 3.0 24.1 4.6 L23.65 4.6 23.1 4.65 Q24.4 5.15 25.15 6.35 L24.55 6.4 24.0 6.4 25.05 7.55 25.85 8.8 24.4 8.3 22.45 7.85 Q21.4 7.85 21.35 8.85 21.3 9.45 22.4 10.8 23.6 12.2 23.6 12.9 22.05 11.55 22.05 13.0 L22.2 14.15 22.25 15.0 Q21.9 15.65 20.5 15.85 19.1 16.0 18.6 15.2 19.45 16.75 20.65 17.65 17.3 16.2 16.2 15.45 14.2 14.05 13.2 11.55 L12.45 11.75 Q12.1 11.8 11.85 12.4 L11.8 8.8 Q11.65 6.9 10.8 5.55 L11.7 5.65 12.55 5.65 11.55 4.45 Q10.9 3.95 10.2 3.6 L11.1 3.75 12.05 3.9 10.95 2.55 9.85 1.35 10.6 1.0 11.35 0.65 Q10.55 0.85 9.7 -0.2 L8.75 -2.0 9.8 -1.85 Q9.6 -3.0 7.1 -4.05 L8.05 -4.1 9.05 -4.1 7.85 -4.95 6.4 -5.45 7.25 -5.6 8.05 -5.85 Q7.55 -6.3 6.6 -6.35 L4.95 -6.3 5.65 -6.5 6.1 -6.95 Q4.85 -7.15 3.1 -6.35 L3.75 -6.85 4.4 -7.35 2.8 -7.2 1.3 -6.65 1.5 -7.0 1.75 -7.45 1.2 -7.3 0.7 -7.15 0.95 -8.25 Q-0.05 -7.85 -0.45 -7.8 L-1.8 -7.85 -3.05 -8.1 -4.05 -8.25 Q-3.6 -7.25 -2.65 -6.65 L-5.25 -6.95 -7.9 -6.9 -7.0 -6.45 -6.2 -6.0 -8.4 -5.6 -10.45 -4.8 -9.4 -4.8 Q-10.2 -3.7 -11.55 -2.65 L-10.5 -2.7 -9.45 -2.7 Q-10.2 -2.6 -10.45 -1.45 L-10.55 -0.45 -10.7 0.35 -11.55 1.35 -12.5 2.3 -11.7 2.0 -12.1 2.5 -12.5 3.0 -11.3 2.6 -12.5 4.15 -12.1 4.0 -11.7 3.9 -12.7 5.1 -13.7 6.3 Q-13.15 5.85 -11.5 5.25 -12.2 5.55 -12.35 8.6 -12.5 11.8 -12.05 12.1 M-12.45 -8.05 L-12.1 -8.1 Q-10.75 -8.35 -9.15 -8.1 L-7.75 -7.95 Q-8.2 -8.05 -8.7 -8.35 L-11.25 -9.1 Q-12.9 -9.15 -14.85 -8.1 -16.75 -7.15 -17.7 -5.75 L-15.45 -7.2 -14.45 -7.2 -13.05 -7.15 -15.65 -6.5 Q-17.1 -6.1 -18.0 -5.15 -16.5 -5.75 -14.3 -5.8 L-10.55 -5.85 -11.7 -6.15 -13.0 -6.55 -10.95 -7.0 -8.8 -7.45 Q-10.7 -8.2 -12.35 -8.05 L-12.45 -8.05 M17.1 6.35 L19.35 7.85 18.75 7.3 17.85 6.0 16.35 4.65 15.0 3.9 16.4 4.25 18.3 4.75 20.7 5.7 23.05 6.55 19.95 4.75 16.75 3.15 13.95 2.55 Q12.05 2.35 11.45 1.9 L13.1 3.05 Q14.15 3.85 14.85 4.15 L13.3 4.05 Q12.2 3.9 11.9 3.6 L13.65 6.15 15.45 9.1 Q17.75 12.5 20.5 12.45 19.0 11.55 17.1 8.85 L14.0 4.8 Q15.25 5.0 17.1 6.35 M7.15 -11.9 L9.2 -12.5 11.0 -12.9 6.3 -12.1 Q3.5 -11.25 2.95 -8.85 L4.95 -10.5 Q6.05 -11.4 7.15 -11.9 M-20.6 -1.05 Q-22.25 0.65 -22.4 1.95 -20.6 -1.0 -18.55 -2.5 -16.1 -4.25 -13.2 -4.05 -14.05 -3.9 -15.05 -3.05 L-16.65 -1.55 -19.05 0.55 Q-20.45 1.95 -21.0 3.1 L-18.2 0.85 -15.3 -1.3 -12.95 -3.05 Q-11.3 -4.1 -10.35 -3.9 L-12.55 -4.35 -15.5 -4.8 Q-17.05 -4.8 -18.05 -3.65 L-20.6 -1.05 M-2.8 -11.4 Q-5.1 -13.8 -7.75 -14.55 L-1.0 -9.05 -2.8 -11.4 M-15.35 1.95 L-17.75 4.4 Q-18.35 5.0 -19.4 7.0 -20.35 8.75 -21.05 9.35 L-16.9 5.95 -12.45 2.7 -14.6 3.55 Q-15.85 4.1 -16.7 4.65 L-14.75 2.15 -12.8 -0.2 Q-13.95 0.5 -15.35 1.95" fill="#ffffff" fill-opacity="0.0" fill-rule="evenodd" stroke="none"/>
    <path d="M-12.45 -8.05 L-12.35 -8.05 Q-10.7 -8.2 -8.8 -7.45 L-10.95 -7.0 -13.0 -6.55 -11.7 -6.15 -10.55 -5.85 -14.3 -5.8 Q-16.5 -5.75 -18.0 -5.15 -17.1 -6.1 -15.65 -6.5 L-13.05 -7.15 -14.45 -7.2 -15.45 -7.2 -15.85 -7.2 Q-13.95 -8.0 -12.45 -8.05 M-2.8 -11.4 L-1.0 -9.05 -7.75 -14.55 Q-5.1 -13.8 -2.8 -11.4" fill="#ffffff" fill-opacity="0.2" fill-rule="evenodd" stroke="none"/>
    <path d="M18.05 -4.05 Q18.3 -3.85 18.55 -3.75 18.25 -3.85 17.95 -4.05 L16.4 -4.7 Q14.75 -5.35 13.55 -5.4 L12.3 -5.3 10.95 -5.3 9.5 -5.7 8.0 -6.1 9.0 -6.45 10.1 -6.7 11.95 -7.25 13.9 -7.3 16.1 -6.45 17.95 -4.9 Q15.8 -6.45 14.2 -6.8 12.35 -7.15 10.3 -6.0 L12.75 -5.95 15.1 -5.65 Q16.05 -5.35 17.15 -4.65 L18.0 -4.05 18.05 -4.05 M7.15 -11.9 Q6.05 -11.4 4.95 -10.5 L2.95 -8.85 Q3.5 -11.25 6.3 -12.1 L11.0 -12.9 9.2 -12.5 7.15 -11.9 M17.1 6.35 Q15.25 5.0 14.0 4.8 L17.1 8.85 Q19.0 11.55 20.5 12.45 17.75 12.5 15.45 9.1 L13.65 6.15 11.9 3.6 Q12.2 3.9 13.3 4.05 L14.85 4.15 Q14.15 3.85 13.1 3.05 L11.45 1.9 Q12.05 2.35 13.95 2.55 L16.75 3.15 19.95 4.75 23.05 6.55 20.7 5.7 18.3 4.75 16.4 4.25 15.0 3.9 16.35 4.65 17.85 6.0 18.75 7.3 19.35 7.85 17.1 6.35 M-15.45 -7.2 L-17.7 -5.75 Q-16.75 -7.15 -14.85 -8.1 -12.9 -9.15 -11.25 -9.1 L-8.7 -8.35 Q-8.2 -8.05 -7.75 -7.95 L-9.15 -8.1 Q-10.75 -8.35 -12.1 -8.1 L-12.45 -8.05 Q-13.95 -8.0 -15.85 -7.2 L-15.45 -7.2 M-20.6 -1.05 L-18.05 -3.65 Q-17.05 -4.8 -15.5 -4.8 L-12.55 -4.35 -10.35 -3.9 Q-11.3 -4.1 -12.95 -3.05 L-15.3 -1.3 -18.2 0.85 -21.0 3.1 Q-20.45 1.95 -19.05 0.55 L-16.65 -1.55 -15.05 -3.05 Q-14.05 -3.9 -13.2 -4.05 -16.1 -4.25 -18.55 -2.5 -20.6 -1.0 -22.4 1.95 -22.25 0.65 -20.6 -1.05 M-15.35 1.95 Q-13.95 0.5 -12.8 -0.2 L-14.75 2.15 -16.7 4.65 Q-15.85 4.1 -14.6 3.55 L-12.45 2.7 -16.9 5.95 -21.05 9.35 Q-20.35 8.75 -19.4 7.0 -18.35 5.0 -17.75 4.4 L-15.35 1.95" fill="#000000" fill-opacity="0.2" fill-rule="evenodd" stroke="none"/>
    <path d="M-12.05 12.1 Q-12.5 11.8 -12.35 8.6 -12.2 5.55 -11.5 5.25 -13.15 5.85 -13.7 6.3 L-12.7 5.1 -11.7 3.9 -12.1 4.0 -12.5 4.15 -11.3 2.6 -12.5 3.0 -12.1 2.5 -11.7 2.0 -12.5 2.3 -11.55 1.35 -10.7 0.35 -10.55 -0.45 -10.45 -1.45 Q-10.2 -2.6 -9.45 -2.7 L-10.5 -2.7 -11.55 -2.65 Q-10.2 -3.7 -9.4 -4.8 L-10.45 -4.8 -8.4 -5.6 -6.2 -6.0 -7.0 -6.45 -7.9 -6.9 -5.25 -6.95 -2.65 -6.65 Q-3.6 -7.25 -4.05 -8.25 L-3.05 -8.1 -1.8 -7.85 -0.45 -7.8 Q-0.05 -7.85 0.95 -8.25 L0.7 -7.15 1.2 -7.3 1.75 -7.45 1.5 -7.0 1.3 -6.65 2.8 -7.2 4.4 -7.35 3.75 -6.85 3.1 -6.35 Q4.85 -7.15 6.1 -6.95 L5.65 -6.5 4.95 -6.3 6.6 -6.35 Q7.55 -6.3 8.05 -5.85 L7.25 -5.6 6.4 -5.45 7.85 -4.95 9.05 -4.1 8.05 -4.1 7.1 -4.05 Q9.6 -3.0 9.8 -1.85 L8.75 -2.0 9.7 -0.2 Q10.55 0.85 11.35 0.65 L10.6 1.0 9.85 1.35 10.95 2.55 12.05 3.9 11.1 3.75 10.2 3.6 Q10.9 3.95 11.55 4.45 L12.55 5.65 11.7 5.65 10.8 5.55 Q11.65 6.9 11.8 8.8 L11.85 12.4" fill="none" stroke="#000000" stroke-linecap="square" stroke-linejoin="round" stroke-opacity="0.4" stroke-width="1.0"/>
    <path d="M18.0 -4.05 L20.8 -3.85 22.25 -3.3 23.65 -2.9 Q22.9 -3.8 21.45 -4.35 19.55 -5.0 19.05 -5.35 L17.65 -7.05 Q16.9 -8.2 16.05 -8.4 17.05 -9.55 19.5 -9.25 21.65 -8.95 22.95 -8.0 L21.7 -9.0 20.25 -9.85 18.85 -9.9 17.5 -9.95 Q17.0 -10.1 16.5 -10.7 L15.55 -11.55 14.0 -11.75 12.4 -12.0 Q13.15 -12.65 15.05 -12.5 16.8 -12.3 17.85 -11.7 16.75 -14.0 11.9 -14.15 L8.05 -14.05 5.1 -13.75 Q5.25 -15.25 7.7 -15.7 9.4 -16.0 11.45 -15.7 9.55 -18.1 6.3 -16.25 L3.65 -14.6 Q2.2 -13.6 1.4 -13.4 L1.6 -14.75 1.95 -16.1 1.45 -15.2 0.85 -14.35 Q0.95 -16.3 0.55 -17.35 0.0 -17.2 -0.25 -16.45 L-0.55 -15.1 Q-1.7 -17.3 -3.55 -16.9 -3.0 -17.0 -1.85 -14.6 -3.45 -15.6 -6.0 -16.4 -4.95 -16.05 -3.9 -14.85 -2.8 -13.7 -2.4 -12.5 L-4.0 -13.75 -6.55 -15.1 Q-9.95 -16.4 -11.0 -15.1 -9.6 -15.0 -8.7 -14.0 L-10.9 -13.45 -12.9 -12.8 -15.0 -12.3 Q-16.0 -12.0 -16.55 -10.85 L-13.5 -11.4 Q-11.35 -11.7 -10.8 -11.1 -12.35 -11.55 -14.55 -10.4 L-17.85 -8.3 -17.0 -8.35 -16.2 -8.5 Q-20.1 -7.05 -21.85 -2.4 L-23.05 1.8 -24.25 6.1 -23.4 5.55 -22.5 5.05 Q-22.4 5.75 -22.6 6.85 L-22.85 8.7 -22.25 8.3 -22.6 10.45 -23.1 12.6 -20.4 10.5 Q-18.8 9.5 -17.1 9.7 -19.25 13.55 -20.25 15.95 L-18.5 13.05 Q-17.4 11.4 -16.15 10.9 L-18.25 15.45 Q-19.65 18.25 -20.15 20.1 L-18.9 17.8 -17.3 15.85 -17.7 17.7 -17.9 19.65 Q-16.95 16.0 -16.0 14.1 -14.3 10.7 -12.05 12.1 M11.85 12.4 Q12.1 11.8 12.45 11.75 L13.2 11.55 Q14.2 14.05 16.2 15.45 17.3 16.2 20.65 17.65 19.45 16.75 18.6 15.2 19.1 16.0 20.5 15.85 21.9 15.65 22.25 15.0 L22.2 14.15 22.05 13.0 Q22.05 11.55 23.6 12.9 23.6 12.2 22.4 10.8 21.3 9.45 21.35 8.85 21.4 7.85 22.45 7.85 L24.4 8.3 25.85 8.8 25.05 7.55 24.0 6.4 24.55 6.4 25.15 6.35 Q24.4 5.15 23.1 4.65 L23.65 4.6 24.1 4.6 Q23.35 3.0 22.1 1.8 20.6 0.4 19.0 0.4 19.95 -0.45 22.15 0.05 L25.4 1.05 Q24.1 -0.95 22.2 -2.4 19.95 -4.15 18.05 -4.05" fill="none" stroke="#000000" stroke-linecap="square" stroke-linejoin="round" stroke-opacity="0.6" stroke-width="1.0"/>
  </g>
</svg>
