<?xml version="1.0" encoding="UTF-8" standalone="no"?>
<svg xmlns:xlink="http://www.w3.org/1999/xlink" height="28.4px" width="33.0px" xmlns="http://www.w3.org/2000/svg">
  <g transform="matrix(1.0, 0.0, 0.0, 1.0, 17.0, 15.15)">
    <path d="M-16.35 5.2 Q-16.8 0.9 -15.7 -1.95 -14.5 -4.85 -12.6 -7.25 L-10.05 -9.9 Q-5.85 -13.7 -0.35 -14.6 L0.25 -14.65 2.15 -14.25 Q5.5 -13.25 9.4 -9.9 L10.8 -8.7 Q12.35 -7.1 13.5 -4.95 L13.75 -4.5 11.75 -5.1 9.8 -5.05 9.15 -6.05 8.8 -6.15 Q10.0 -6.9 9.6 -8.2 9.2 -9.4 8.0 -10.2 8.6 -9.25 8.1 -8.05 7.65 -7.05 6.6 -6.2 L4.65 -5.8 Q5.4 -7.45 5.1 -8.85 4.95 -10.2 4.05 -11.85 4.85 -10.0 4.65 -8.2 4.3 -6.15 2.6 -5.45 L3.55 -7.0 3.9 -8.95 Q3.8 -11.45 1.75 -11.6 2.95 -10.75 2.95 -8.95 2.95 -7.35 1.95 -6.1 3.45 -8.85 0.75 -10.6 L-1.8 -11.55 -4.2 -11.7 -1.85 -11.05 Q-0.6 -10.55 0.05 -9.5 0.8 -8.2 0.65 -6.65 L0.2 -4.15 Q-0.3 -6.0 -1.1 -7.5 -1.9 -9.2 -3.15 -9.65 L-6.05 -9.8 Q-7.9 -9.65 -9.55 -8.9 -10.95 -8.4 -12.6 -7.25 L-12.9 -6.85 Q-11.45 -7.55 -9.65 -7.85 L-6.3 -8.15 Q-4.05 -8.15 -2.55 -7.0 -1.45 -6.1 -0.3 -4.0 L-2.85 -5.05 Q-6.0 -6.0 -9.05 -5.0 -11.15 -5.0 -13.15 -3.05 -14.8 -1.45 -16.05 0.85 L-13.55 -1.1 -10.95 -3.3 -12.85 -1.0 -14.7 1.3 Q-14.0 1.2 -13.0 0.5 L-11.45 -0.7 -11.55 -0.3 -13.8 2.65 -16.35 5.2 M14.05 -3.65 L15.05 -1.0 14.9 -1.55 Q13.4 -2.5 10.45 -3.3 L10.0 -4.6 10.35 -3.7 Q11.85 -3.95 14.05 -3.65 M15.35 0.6 L15.5 2.15 Q13.5 0.1 11.3 -0.8 L13.05 -0.3 15.35 0.6 M15.5 3.0 L15.5 3.65 12.25 1.65 13.15 2.05 Q14.65 2.55 15.5 3.0 M15.5 3.95 L15.1 6.15 Q13.25 4.95 11.25 4.25 L11.25 5.65 Q12.8 6.0 14.9 7.15 L14.65 8.45 14.6 8.75 14.5 9.45 12.15 7.8 14.65 8.45 14.7 8.15 Q13.2 7.25 11.4 6.35 L11.2 5.95 11.1 1.05 10.85 -0.85 10.95 -0.85 11.2 2.0 Q13.45 2.5 15.5 3.95 M14.4 9.85 L14.05 10.9 12.85 9.65 14.4 9.85 M-11.85 2.55 L-11.65 5.2 -12.15 5.65 Q-13.8 7.6 -15.2 8.45 L-13.3 7.75 Q-12.15 7.4 -11.45 6.95 L-11.55 7.8 -12.95 9.25 -14.65 10.55 -13.2 10.1 -11.8 9.55 -11.9 10.3 Q-12.85 11.05 -14.3 11.6 L-14.35 11.6 -14.85 11.65 Q-15.65 9.65 -16.1 6.95 L-16.35 5.3 -14.0 4.0 -11.85 2.55" fill="#ffffff" fill-opacity="0.0" fill-rule="evenodd" stroke="none"/>
    <path d="M13.75 -4.5 L14.05 -3.65 Q11.85 -3.95 10.35 -3.7 L10.0 -4.6 9.8 -5.05 11.75 -5.1 13.75 -4.5 M15.05 -1.0 L15.35 0.6 13.05 -0.3 11.3 -0.8 Q13.5 0.1 15.5 2.15 L15.5 3.0 Q14.65 2.55 13.15 2.05 L12.25 1.65 15.5 3.65 15.5 3.95 Q13.45 2.5 11.2 2.0 L10.95 -0.85 10.85 -0.85 10.65 -2.45 10.45 -3.3 Q13.4 -2.5 14.9 -1.55 L15.05 -1.0 M15.1 6.15 L14.9 7.15 Q12.8 6.0 11.25 5.65 L11.25 4.25 Q13.25 4.95 15.1 6.15 M14.5 9.45 L14.4 9.85 12.85 9.65 14.05 10.9 13.85 11.45 12.05 12.55 11.95 10.7 11.9 10.15 11.65 7.7 11.4 6.35 Q13.2 7.25 14.7 8.15 L14.65 8.45 12.15 7.8 14.5 9.45 M8.8 -6.15 L8.75 -6.15 6.6 -6.2 Q7.65 -7.05 8.1 -8.05 8.6 -9.25 8.0 -10.2 9.2 -9.4 9.6 -8.2 10.0 -6.9 8.8 -6.15 M4.65 -5.8 L2.55 -4.9 0.3 -3.75 0.2 -3.7 -0.15 -3.95 -0.3 -4.0 Q-1.45 -6.1 -2.55 -7.0 -4.05 -8.15 -6.3 -8.15 L-9.65 -7.85 Q-11.45 -7.55 -12.9 -6.85 L-12.6 -7.25 Q-10.95 -8.4 -9.55 -8.9 -7.9 -9.65 -6.05 -9.8 L-3.15 -9.65 Q-1.9 -9.2 -1.1 -7.5 -0.3 -6.0 0.2 -4.15 L0.65 -6.65 Q0.8 -8.2 0.05 -9.5 -0.6 -10.55 -1.85 -11.05 L-4.2 -11.7 -1.8 -11.55 0.75 -10.6 Q3.45 -8.85 1.95 -6.1 2.95 -7.35 2.95 -8.95 2.95 -10.75 1.75 -11.6 3.8 -11.45 3.9 -8.95 L3.55 -7.0 2.6 -5.45 Q4.3 -6.15 4.65 -8.2 4.85 -10.0 4.05 -11.85 4.95 -10.2 5.1 -8.85 5.4 -7.45 4.65 -5.8 M-9.05 -5.0 L-9.0 -5.0 -9.35 -4.9 -10.4 -4.55 -10.75 -3.5 -11.45 -0.7 -13.0 0.5 Q-14.0 1.2 -14.7 1.3 L-12.85 -1.0 -10.95 -3.3 -13.55 -1.1 -16.05 0.85 Q-14.8 -1.45 -13.15 -3.05 -11.15 -5.0 -9.05 -5.0 M-11.55 -0.3 L-11.8 1.45 -11.8 1.55 -11.85 2.1 -11.85 2.55 -14.0 4.0 -16.35 5.3 -16.35 5.2 -13.8 2.65 -11.55 -0.3 M-11.65 5.2 L-11.65 5.1 -11.45 6.55 -11.45 6.95 Q-12.15 7.4 -13.3 7.75 L-15.2 8.45 Q-13.8 7.6 -12.15 5.65 L-11.65 5.2 M-11.55 7.8 L-11.65 8.7 -11.8 9.5 -11.8 9.55 -13.2 10.1 -14.65 10.55 -12.95 9.25 -11.55 7.8 M-11.9 10.3 Q-12.05 12.1 -11.85 12.75 L-12.45 12.15 Q-13.4 11.55 -14.3 11.6 -12.85 11.05 -11.9 10.3" fill="#000000" fill-opacity="0.2" fill-rule="evenodd" stroke="none"/>
    <path d="M-16.35 5.2 Q-16.8 0.9 -15.7 -1.95 -14.5 -4.85 -12.6 -7.25 L-10.05 -9.9 Q-5.85 -13.7 -0.35 -14.6 L0.25 -14.65 2.15 -14.25 Q5.5 -13.25 9.4 -9.9 L10.8 -8.7 Q12.35 -7.1 13.5 -4.95 L13.75 -4.5 14.05 -3.65 15.05 -1.0 15.35 0.6 15.5 2.15 15.5 3.0 15.5 3.65 15.5 3.95 15.1 6.15 M14.9 7.15 L14.65 8.45 14.6 8.75 14.5 9.45 14.4 9.85 14.05 10.9 13.85 11.45 12.05 12.55 11.95 10.7 11.9 10.15 11.65 7.7 11.4 6.35 11.2 5.95 11.1 1.05 10.85 -0.85 10.65 -2.45 10.45 -3.3 10.0 -4.6 9.8 -5.05 9.15 -6.05 8.8 -6.15 8.75 -6.15 6.6 -6.2 4.65 -5.8 2.55 -4.9 0.3 -3.75 0.2 -3.7 -0.15 -3.95 -0.3 -4.0 -2.85 -5.05 Q-6.0 -6.0 -9.05 -5.0 L-9.0 -5.0 -9.35 -4.9 -10.4 -4.55 -10.75 -3.5 -11.45 -0.7 -11.55 -0.3 -11.8 1.45 -11.8 1.55 -11.85 2.1 -11.85 2.55 -11.65 5.2 -11.65 5.1 -11.45 6.55 -11.45 6.95 -11.55 7.8 -11.65 8.7 -11.8 9.55 -11.9 10.3 Q-12.05 12.1 -11.85 12.75 L-12.45 12.15 Q-13.4 11.55 -14.3 11.6 L-14.35 11.6 -14.85 11.65 Q-15.65 9.65 -16.1 6.95 L-16.35 5.3 -16.35 5.2 M-12.6 -7.25 L-12.9 -6.85 M10.85 -0.85 L10.95 -0.85 M15.05 -1.0 L14.9 -1.55 M10.0 -4.6 L10.35 -3.7 M-11.8 9.5 L-11.8 9.55 M11.25 4.25 L11.25 5.65 M14.65 8.45 L14.7 8.15" fill="none" stroke="#000000" stroke-linecap="round" stroke-linejoin="round" stroke-opacity="0.6" stroke-width="1.0"/>
  </g>
</svg>
