<?xml version="1.0" encoding="UTF-8" standalone="no"?>
<svg xmlns:xlink="http://www.w3.org/1999/xlink" height="37.9px" width="41.55px" xmlns="http://www.w3.org/2000/svg">
  <g transform="matrix(1.0, 0.0, 0.0, 1.0, 20.7, 16.05)">
    <path d="M-11.7 20.4 Q-14.2 19.35 -16.25 17.5 L-18.0 15.6 -18.55 14.75 Q-19.45 14.0 -19.85 11.55 -20.65 6.7 -18.35 -1.8 -16.05 -10.3 -8.0 -13.7 -5.45 -14.75 -2.65 -15.2 L-0.4 -15.4 0.0 -15.3 0.35 -15.4 2.65 -15.2 Q5.45 -14.75 8.0 -13.7 16.15 -10.3 18.5 -1.8 20.8 6.7 20.0 11.55 19.6 14.0 18.7 14.75 L18.15 15.6 16.4 17.5 Q13.6 20.05 10.1 21.0 L10.95 20.7 11.95 17.25 Q13.3 10.95 12.85 2.1 12.65 -1.95 11.0 -5.6 9.2 -9.55 6.15 -11.85 8.4 -7.4 9.1 -4.85 10.3 -0.5 9.0 2.55 L8.65 -2.1 Q8.3 -4.8 7.15 -6.4 L7.65 -2.55 Q7.8 -0.25 7.35 1.35 L6.8 -1.3 6.2 -3.9 4.9 -6.3 Q3.9 -7.8 3.65 -8.65 L4.5 -2.75 Q4.8 0.55 4.55 3.2 L4.4 4.35 5.55 4.4 2.5 4.35 Q3.2 0.05 2.4 -4.9 L1.8 -7.85 1.45 -8.95 Q1.9 -5.65 0.7 -1.8 0.1 0.15 -0.6 1.4 -0.2 -2.35 -1.15 -6.8 L-1.85 -9.55 -2.2 -10.55 Q-1.8 -7.4 -2.4 -1.4 L-3.15 3.95 -3.15 4.35 -5.05 4.4 -5.15 3.2 Q-5.45 0.55 -5.1 -2.75 L-4.3 -8.65 Q-4.55 -7.8 -5.55 -6.3 L-6.85 -3.9 -7.45 -1.3 -8.0 1.35 Q-8.45 -0.25 -8.3 -2.55 L-7.8 -6.4 Q-8.9 -4.8 -9.3 -2.1 L-9.65 2.55 Q-10.95 -0.5 -9.7 -4.85 -9.0 -7.4 -6.8 -11.85 -9.8 -9.55 -11.65 -5.6 -13.3 -1.95 -13.5 2.1 -13.95 10.95 -12.6 17.25 L-11.7 20.4 M15.25 -0.95 L15.95 3.75 Q16.7 11.65 14.85 18.7 L16.8 17.1 Q17.7 13.05 17.5 8.75 17.25 2.8 14.8 -2.75 L15.25 -0.95 M-13.5 -8.0 L-15.85 -3.45 Q-19.2 4.45 -18.35 12.95 L-16.75 15.25 Q-17.2 11.3 -16.9 6.2 -16.35 -3.45 -12.75 -9.1 L-13.5 -8.0" fill="#ffffff" fill-opacity="0.0" fill-rule="evenodd" stroke="none"/>
    <path d="M-11.7 20.4 L-12.6 17.25 Q-13.95 10.95 -13.5 2.1 -13.3 -1.95 -11.65 -5.6 -9.8 -9.55 -6.8 -11.85 -9.0 -7.4 -9.7 -4.85 -10.95 -0.5 -9.65 2.55 L-9.3 -2.1 Q-8.9 -4.8 -7.8 -6.4 L-8.3 -2.55 Q-8.45 -0.25 -8.0 1.35 L-7.45 -1.3 -6.85 -3.9 -5.55 -6.3 Q-4.55 -7.8 -4.3 -8.65 L-5.1 -2.75 Q-5.45 0.55 -5.15 3.2 L-5.05 4.4 -6.35 4.4 -6.8 4.4 -10.75 4.4 Q-11.05 13.45 -10.1 18.25 -9.65 20.65 -9.15 21.2 L-10.4 20.9 -11.25 20.6 -11.35 20.55 -11.65 20.45 -11.7 20.4 M-3.15 4.35 L-3.15 3.95 -2.4 -1.4 Q-1.8 -7.4 -2.2 -10.55 L-1.85 -9.55 -1.15 -6.8 Q-0.2 -2.35 -0.6 1.4 0.1 0.15 0.7 -1.8 1.9 -5.65 1.45 -8.95 L1.8 -7.85 2.4 -4.9 Q3.2 0.05 2.5 4.35 L0.0 4.3 -3.15 4.35 M5.55 4.4 L4.4 4.35 4.55 3.2 Q4.8 0.55 4.5 -2.75 L3.65 -8.65 Q3.9 -7.8 4.9 -6.3 L6.2 -3.9 6.8 -1.3 7.35 1.35 Q7.8 -0.25 7.65 -2.55 L7.15 -6.4 Q8.3 -4.8 8.65 -2.1 L9.0 2.55 Q10.3 -0.5 9.1 -4.85 8.4 -7.4 6.15 -11.85 9.2 -9.55 11.0 -5.6 12.65 -1.95 12.85 2.1 13.3 10.95 11.95 17.25 L10.95 20.7 10.1 21.0 9.2 21.2 Q9.7 20.65 10.15 18.25 11.1 13.45 10.8 4.4 L10.4 4.4 5.55 4.4 M15.25 -0.95 L14.8 -2.75 Q17.25 2.8 17.5 8.75 17.7 13.05 16.8 17.1 L14.85 18.7 Q16.7 11.65 15.95 3.75 L15.25 -0.95" fill="#000000" fill-opacity="0.2" fill-rule="evenodd" stroke="none"/>
    <path d="M-13.5 -8.0 L-12.75 -9.1 Q-16.35 -3.45 -16.9 6.2 -17.2 11.3 -16.75 15.25 L-18.35 12.95 Q-19.2 4.45 -15.85 -3.45 L-13.5 -8.0" fill="#ffffff" fill-opacity="0.2" fill-rule="evenodd" stroke="none"/>
    <path d="M10.1 21.0 Q13.6 20.05 16.4 17.5 L18.15 15.6 18.7 14.75 Q19.6 14.0 20.0 11.55 20.8 6.7 18.5 -1.8 16.15 -10.3 8.0 -13.7 5.45 -14.75 2.65 -15.2 L0.35 -15.4 0.0 -15.3 -0.4 -15.4 -2.65 -15.2 Q-5.45 -14.75 -8.0 -13.7 -16.05 -10.3 -18.35 -1.8 -20.65 6.7 -19.85 11.55 -19.45 14.0 -18.55 14.75 L-18.0 15.6 -16.25 17.5 Q-14.2 19.35 -11.7 20.4 L-11.65 20.45 -11.35 20.55 -11.25 20.6 -10.4 20.9 -9.15 21.2 Q-9.65 20.65 -10.1 18.25 -11.05 13.45 -10.75 4.4 L-6.8 4.4 -6.35 4.4 -5.05 4.4 -3.15 4.35 0.0 4.3 2.5 4.35 5.55 4.4 10.4 4.4 10.8 4.4 Q11.1 13.45 10.15 18.25 9.7 20.65 9.2 21.2 L10.1 21.0 Z" fill="none" stroke="#000000" stroke-linecap="square" stroke-linejoin="round" stroke-opacity="0.6" stroke-width="1.0"/>
  </g>
</svg>
