<?xml version="1.0" encoding="UTF-8" standalone="no"?>
<svg xmlns:xlink="http://www.w3.org/1999/xlink" height="27.8px" width="33.15px" xmlns="http://www.w3.org/2000/svg">
  <g transform="matrix(1.0, 0.0, 0.0, 1.0, 16.6, 15.2)">
    <path d="M0.2 -8.45 L0.1 -8.55 Q0.95 -9.7 0.75 -11.9 L0.4 -13.4 0.3 -13.95 Q-0.3 -12.45 -0.25 -10.35 L-0.05 -8.7 -0.45 -9.35 -0.9 -10.5 -1.4 -12.35 Q-1.7 -13.7 -1.45 -14.1 -2.1 -13.1 -1.85 -11.5 -1.7 -10.0 -0.95 -8.95 -2.15 -9.55 -2.7 -10.5 -3.2 -11.35 -3.35 -12.85 -3.95 -11.2 -2.65 -8.95 -3.6 -9.5 -4.1 -10.45 -4.7 -11.45 -4.65 -12.5 L-4.95 -10.9 -4.65 -9.3 Q-5.15 -10.45 -5.3 -11.55 -5.8 -11.2 -5.7 -10.35 L-5.4 -8.9 -7.05 -9.4 Q-7.95 -9.8 -8.2 -10.45 -8.05 -9.3 -6.6 -8.4 L-6.95 -8.4 -7.15 -8.3 -8.1 -8.35 -8.95 -8.55 -9.85 -8.85 -9.1 -8.35 Q-8.5 -7.95 -8.05 -7.9 L-9.55 -7.8 -10.95 -7.9 -10.35 -7.45 -9.6 -6.75 Q-10.2 -6.2 -12.2 -6.35 -11.8 -6.0 -11.25 -5.8 L-10.15 -5.6 Q-10.6 -5.15 -11.45 -4.95 L-12.95 -4.85 -10.95 -4.45 Q-11.6 -3.95 -12.4 -3.8 L-14.05 -3.7 -11.0 -3.35 -11.0 -3.3 -13.1 -2.05 -15.4 -0.95 -15.35 -1.05 Q-14.35 -3.55 -12.75 -5.85 -8.05 -12.6 -1.3 -14.5 L-0.9 -14.6 0.0 -14.7 1.2 -14.5 Q7.3 -12.6 11.4 -7.9 L10.0 -7.8 8.55 -7.9 Q9.0 -7.95 9.55 -8.35 L10.35 -8.85 9.45 -8.55 8.6 -8.35 7.25 -8.2 6.95 -8.4 7.1 -8.4 Q8.55 -9.3 8.65 -10.45 8.4 -9.8 7.5 -9.4 L5.9 -8.9 6.15 -10.35 Q6.25 -11.2 5.8 -11.55 L5.2 -9.4 5.45 -10.9 Q5.45 -11.7 5.1 -12.5 5.25 -11.45 4.6 -10.45 4.1 -9.5 3.15 -8.95 4.45 -11.2 3.8 -12.85 3.65 -11.35 3.2 -10.5 2.65 -9.55 1.4 -8.95 2.2 -10.0 2.35 -11.5 2.55 -13.1 2.0 -14.1 L1.95 -12.35 1.35 -10.5 0.95 -9.35 0.3 -8.45 0.5 -8.45 3.65 -8.2 0.0 -8.45 0.2 -8.45 M14.4 8.95 L13.25 7.8 Q12.75 7.1 12.55 6.35 L12.75 6.55 Q13.25 7.9 14.0 7.9 14.4 7.95 14.8 7.55 L14.85 7.25 13.7 6.15 12.9 4.9 14.05 5.45 15.15 6.0 14.8 7.55 14.4 8.95 M15.2 5.8 L13.7 4.5 12.6 3.0 13.6 3.25 14.25 3.55 14.75 3.55 Q15.35 3.45 15.75 2.9 14.6 2.75 13.15 1.95 L13.05 1.9 14.0 2.2 15.95 2.45 16.05 2.2 15.8 3.2 15.55 4.25 15.2 5.8 M16.05 2.05 Q14.7 1.4 13.25 0.0 L13.3 0.0 16.0 1.6 Q16.1 1.15 15.65 0.6 L14.8 0.05 15.65 0.1 Q14.8 -0.05 13.7 -0.7 L12.0 -2.0 Q12.75 -1.6 13.75 -1.35 L15.4 -1.0 15.35 -1.15 13.35 -2.15 Q12.25 -2.7 11.5 -3.35 L14.3 -3.65 15.45 -0.95 Q16.15 0.9 16.05 1.6 L16.05 2.05 M14.25 -3.7 Q12.55 -3.7 11.45 -4.45 L13.45 -4.85 11.9 -4.95 Q11.05 -5.15 10.7 -5.6 L11.7 -5.8 12.65 -6.3 13.1 -5.6 14.25 -3.7 M12.65 -6.35 L12.6 -6.35 Q10.7 -6.3 10.1 -6.75 L10.7 -7.35 11.4 -7.85 12.65 -6.35 M15.5 4.3 L15.55 4.25 14.9 3.85 14.25 3.55 Q14.85 4.1 15.5 4.3 M-15.4 -0.95 L-15.4 -0.9 -13.45 -1.3 Q-12.3 -1.5 -11.55 -2.0 L-13.2 -0.7 Q-14.3 -0.05 -15.2 0.1 -13.35 0.0 -12.25 -0.55 L-12.55 -0.15 -12.95 -0.15 Q-14.3 0.0 -16.1 1.6 -16.2 0.95 -15.4 -0.95 M-14.05 1.15 Q-15.05 1.9 -16.0 2.25 L-15.95 2.45 -13.85 2.3 Q-12.8 2.1 -11.9 1.55 L-11.9 1.6 -11.9 1.65 -13.7 3.5 -14.6 4.0 -15.55 4.4 -15.5 4.45 -15.35 4.65 -14.6 4.9 Q-13.5 4.95 -12.1 3.0 L-13.45 4.75 -15.15 6.05 -15.55 4.4 -16.0 2.25 -16.1 1.6 -14.5 1.35 -14.05 1.15 M-14.8 7.55 L-15.15 6.15 -14.8 6.3 -14.05 6.45 -13.0 6.0 -13.4 6.4 Q-14.1 7.2 -14.8 7.55" fill="#ffffff" fill-opacity="0.0" fill-rule="evenodd" stroke="none"/>
    <path d="M-6.6 -8.4 Q-8.05 -9.3 -8.2 -10.45 -7.95 -9.8 -7.05 -9.4 L-5.4 -8.9 -5.7 -10.35 Q-5.8 -11.2 -5.3 -11.55 -5.15 -10.45 -4.65 -9.3 L-4.95 -10.9 -4.65 -12.5 Q-4.7 -11.45 -4.1 -10.45 -3.6 -9.5 -2.65 -8.95 -3.95 -11.2 -3.35 -12.85 -3.2 -11.35 -2.7 -10.5 -2.15 -9.55 -0.95 -8.95 -1.7 -10.0 -1.85 -11.5 -2.1 -13.1 -1.45 -14.1 -1.7 -13.7 -1.4 -12.35 L-0.9 -10.5 -0.45 -9.35 -0.05 -8.7 -0.25 -10.35 Q-0.3 -12.45 0.3 -13.95 L0.4 -13.4 0.75 -11.9 Q0.95 -9.7 0.1 -8.55 L0.2 -8.45 0.0 -8.45 Q-3.5 -8.0 -5.95 -8.4 L-6.6 -8.4 M3.65 -8.2 L0.5 -8.45 0.3 -8.45 0.95 -9.35 1.35 -10.5 1.95 -12.35 2.0 -14.1 Q2.55 -13.1 2.35 -11.5 2.2 -10.0 1.4 -8.95 2.65 -9.55 3.2 -10.5 3.65 -11.35 3.8 -12.85 4.45 -11.2 3.15 -8.95 4.1 -9.5 4.6 -10.45 5.25 -11.45 5.1 -12.5 5.45 -11.7 5.45 -10.9 L5.2 -9.4 5.8 -11.55 Q6.25 -11.2 6.15 -10.35 L5.9 -8.9 7.5 -9.4 Q8.4 -9.8 8.65 -10.45 8.55 -9.3 7.1 -8.4 L6.95 -8.4 6.45 -8.4 3.65 -8.2 M7.25 -8.2 L8.6 -8.35 9.45 -8.55 10.35 -8.85 9.55 -8.35 Q9.0 -7.95 8.55 -7.9 L10.0 -7.8 11.4 -7.9 11.4 -7.85 10.7 -7.35 10.1 -6.75 Q10.7 -6.3 12.6 -6.35 L12.65 -6.35 12.65 -6.3 11.7 -5.8 10.7 -5.6 Q11.05 -5.15 11.9 -4.95 L13.45 -4.85 11.45 -4.45 Q12.55 -3.7 14.25 -3.7 L14.3 -3.65 11.5 -3.35 Q12.25 -2.7 13.35 -2.15 L15.35 -1.15 15.4 -1.0 13.75 -1.35 Q12.75 -1.6 12.0 -2.0 L13.7 -0.7 Q14.8 -0.05 15.65 0.1 L14.8 0.05 Q13.6 -0.15 12.75 -0.55 L13.25 0.0 Q14.7 1.4 16.05 2.05 L16.05 2.2 15.95 2.45 14.0 2.2 13.05 1.9 12.1 1.35 14.2 3.5 13.6 3.25 12.6 3.0 13.7 4.5 15.2 5.8 15.15 6.0 14.05 5.45 12.9 4.9 13.7 6.15 14.85 7.25 14.8 7.55 Q13.55 7.35 12.75 6.55 L12.55 6.35 Q12.75 7.1 13.25 7.8 L14.4 8.95 14.4 9.1 12.8 8.1 13.15 8.8 13.6 9.55 14.15 10.05 13.9 11.15 11.95 12.1 11.85 0.5 Q11.4 -3.4 9.6 -5.85 L8.35 -7.4 7.6 -8.0 7.2 -8.2 7.25 -8.2 7.6 -8.0 7.25 -8.2 M-15.4 -0.95 L-13.1 -2.05 -11.0 -3.3 -10.95 -3.35 -11.35 -1.9 -11.65 -1.0 -11.9 0.5 -11.9 1.55 Q-12.8 2.1 -13.85 2.3 L-15.95 2.45 -16.0 2.25 Q-15.05 1.9 -14.05 1.15 -12.9 0.65 -11.95 0.0 L-12.55 -0.15 -12.25 -0.55 Q-13.35 0.0 -15.2 0.1 -14.3 -0.05 -13.2 -0.7 L-11.55 -2.0 Q-12.3 -1.5 -13.45 -1.3 L-15.4 -0.9 -15.4 -0.95 M-11.0 -3.35 L-14.05 -3.7 -12.4 -3.8 Q-11.6 -3.95 -10.95 -4.45 L-12.95 -4.85 -11.45 -4.95 Q-10.6 -5.15 -10.15 -5.6 L-11.25 -5.8 Q-11.8 -6.0 -12.2 -6.35 -10.2 -6.2 -9.6 -6.75 L-10.35 -7.45 -10.95 -7.9 -9.55 -7.8 -8.05 -7.9 Q-8.5 -7.95 -9.1 -8.35 L-9.85 -8.85 -8.95 -8.55 -8.1 -8.35 -7.15 -8.3 -7.9 -7.8 -7.15 -8.3 -7.3 -8.15 -7.9 -7.8 -8.8 -6.85 -9.1 -6.6 -9.15 -6.5 -9.2 -6.4 -9.45 -6.2 -9.45 -6.15 -9.55 -6.05 -9.55 -6.0 -9.6 -5.95 -9.7 -5.75 -9.8 -5.6 -10.15 -5.05 -10.95 -3.35 -11.0 -3.35 M15.55 4.25 L15.5 4.3 Q14.85 4.1 14.25 3.55 L14.9 3.85 15.55 4.25 M-11.9 1.65 L-12.05 12.1 -13.95 11.15 -14.05 10.55 -14.15 10.25 -13.1 9.55 -12.7 8.8 -12.65 8.65 -12.25 8.05 -13.25 8.8 -14.4 9.3 -14.4 9.2 -13.5 8.6 -12.95 8.05 -12.9 7.95 -12.45 7.4 -12.05 6.35 -13.35 7.3 -14.75 7.6 -14.8 7.55 Q-14.1 7.2 -13.4 6.4 L-13.0 6.0 -12.35 4.9 -13.25 5.35 -13.75 5.55 -15.15 6.15 -15.2 6.05 -15.15 6.05 -13.45 4.75 -12.1 3.0 -13.2 3.65 Q-14.55 4.4 -15.5 4.45 L-15.55 4.4 -14.6 4.0 -13.7 3.5 -11.9 1.65 M-15.15 6.15 L-15.15 6.05 -15.15 6.15" fill="#000000" fill-opacity="0.2" fill-rule="evenodd" stroke="none"/>
    <path d="M8.35 -7.4 L9.6 -5.85 9.05 -6.6 8.35 -7.4 M-9.55 -6.0 L-9.55 -6.05 -9.45 -6.15 -9.55 -6.0 M-13.95 11.15 L-14.1 10.55 -14.05 10.55 -13.95 11.15 M-14.6 8.45 L-14.8 7.55 -14.75 7.6 -14.6 8.45" fill="#945c47" fill-rule="evenodd" stroke="none"/>
    <path d="M13.9 11.15 L14.15 10.05 13.6 9.55 13.15 8.8 12.8 8.1 14.4 9.1 13.9 11.15 M12.75 6.55 Q13.55 7.35 14.8 7.55 14.4 7.95 14.0 7.9 13.25 7.9 12.75 6.55 M13.6 3.25 L14.2 3.5 12.1 1.35 13.05 1.9 13.15 1.95 Q14.6 2.75 15.75 2.9 15.35 3.45 14.75 3.55 L14.25 3.55 13.6 3.25 M13.25 0.0 L12.75 -0.55 Q13.6 -0.15 14.8 0.05 L15.65 0.6 Q16.1 1.15 16.0 1.6 L13.3 0.0 13.25 0.0 M-16.1 1.6 Q-14.3 0.0 -12.95 -0.15 L-12.55 -0.15 -11.95 0.0 Q-12.9 0.65 -14.05 1.15 L-14.5 1.35 -16.1 1.6 M-14.1 10.55 L-14.1 10.5 -14.4 9.3 -14.6 8.45 -14.75 7.6 -13.35 7.3 -12.05 6.35 -12.45 7.4 -12.9 7.95 -12.95 8.05 -13.5 8.6 -14.4 9.2 -14.4 9.3 -13.25 8.8 -12.25 8.05 -12.65 8.65 -12.7 8.8 -13.1 9.55 -14.15 10.25 -14.05 10.55 -14.1 10.55 M-15.15 6.15 L-13.75 5.55 -13.25 5.35 -12.35 4.9 -13.0 6.0 -14.05 6.45 -14.8 6.3 -15.15 6.15 M-15.5 4.45 Q-14.55 4.4 -13.2 3.65 L-12.1 3.0 Q-13.5 4.95 -14.6 4.9 L-15.35 4.65 -15.5 4.45" fill="#ffffff" fill-opacity="0.4" fill-rule="evenodd" stroke="none"/>
    <path d="M0.2 -8.45 L0.0 -8.45 Q-3.5 -8.0 -5.95 -8.4 L-6.6 -8.4 -6.95 -8.4 -7.15 -8.3 -7.9 -7.8 -8.8 -6.85 -9.1 -6.6 -9.15 -6.5 M3.65 -8.2 L0.5 -8.45 0.3 -8.45 M7.1 -8.4 L6.95 -8.4 7.25 -8.2 7.6 -8.0 8.35 -7.4 9.6 -5.85 Q11.4 -3.4 11.85 0.5 L11.95 12.1 13.9 11.15 14.15 10.05 M11.4 -7.9 Q7.3 -12.6 1.2 -14.5 L0.0 -14.7 -0.9 -14.6 -1.3 -14.5 Q-8.05 -12.6 -12.75 -5.85 -14.35 -3.55 -15.35 -1.05 L-15.4 -0.95 Q-16.2 0.95 -16.1 1.6 L-16.0 2.25 -15.95 2.45 M-11.0 -3.3 L-11.0 -3.35 M6.95 -8.4 L6.45 -8.4 3.65 -8.2 M14.4 9.1 L14.4 8.95 14.8 7.55 14.85 7.25 M15.15 6.0 L15.2 5.8 15.55 4.25 15.8 3.2 16.05 2.2 16.05 2.05 16.05 1.6 Q16.15 0.9 15.45 -0.95 L14.3 -3.65 14.25 -3.7 13.1 -5.6 12.65 -6.3 12.65 -6.35 12.6 -6.35 M15.4 -1.0 L15.35 -1.15 M11.4 -7.85 L11.4 -7.9 M7.6 -8.0 L7.2 -8.2 M12.65 -6.35 L11.4 -7.85 M15.5 4.3 L15.55 4.25 M13.9 11.15 L14.4 9.1 M14.8 7.55 L15.15 6.0 M-11.9 1.55 L-11.9 0.5 -11.65 -1.0 -11.35 -1.9 -10.95 -3.35 -10.15 -5.05 -9.8 -5.6 -9.7 -5.75 -9.6 -5.95 -9.55 -6.0 -9.45 -6.15 -9.45 -6.2 -9.2 -6.4 M-11.9 1.6 L-11.9 1.65 -12.05 12.1 -13.95 11.15 -14.05 10.55 M-14.1 10.5 L-14.4 9.3 -14.6 8.45 -14.75 7.6 M-14.8 7.55 L-15.15 6.15 -15.15 6.05 -15.55 4.4 -16.0 2.25" fill="none" stroke="#000000" stroke-linecap="round" stroke-linejoin="round" stroke-opacity="0.6" stroke-width="1.0"/>
  </g>
</svg>
