<?xml version="1.0" encoding="UTF-8" standalone="no"?>
<svg xmlns:xlink="http://www.w3.org/1999/xlink" height="33.8px" width="40.75px" xmlns="http://www.w3.org/2000/svg">
  <g transform="matrix(1.0, 0.0, 0.0, 1.0, 19.6, 15.4)">
    <path d="M-18.1 8.35 Q-17.35 8.3 -16.55 7.55 L-15.15 5.8 -13.95 4.25 -13.85 4.05 -12.8 2.2 Q-12.55 1.4 -12.55 -0.15 L-12.3 -2.4 -12.25 -2.55 -11.95 -4.4 Q-11.4 -6.9 -10.5 -8.25 -8.95 -10.7 -6.9 -9.55 -5.95 -9.05 -5.3 -8.15 L-4.9 -7.5 -4.45 -6.4 -4.35 -6.1 -6.2 -6.1 -5.65 -5.6 Q-6.3 -5.95 -7.35 -4.9 L-7.85 -4.4 Q-8.95 -3.2 -9.45 -2.05 L-9.6 -1.75 -10.45 1.2 Q-10.75 2.85 -10.65 4.25 L-10.45 6.35 -10.45 6.6 Q-10.5 7.55 -11.15 8.3 -12.2 9.6 -14.85 10.55 -17.55 11.5 -18.5 10.55 L-18.0 10.15 -15.55 9.35 Q-13.75 8.65 -12.95 7.2 -14.2 7.95 -15.4 8.15 -14.6 7.8 -13.9 7.1 -13.05 6.2 -13.1 5.5 L-15.65 7.45 Q-17.05 8.3 -18.1 8.35 M10.15 3.95 L10.15 4.05 9.75 3.6 9.15 2.35 8.3 1.3 7.1 0.8 6.95 0.75 6.0 0.25 Q4.9 -1.0 5.55 -3.0 L6.35 -4.8 6.65 -5.15 7.3 -5.95 7.0 -5.15 6.9 -4.8 6.8 -2.95 Q6.9 -1.15 7.85 -0.2 L7.9 -0.15 Q8.7 0.55 10.65 1.0 L11.55 1.3 Q12.85 1.75 13.45 2.45 L13.8 2.95 Q14.2 3.8 13.8 4.75 L13.35 5.7 Q13.2 6.35 13.45 6.9 L13.8 7.45 15.25 7.5 Q15.85 7.25 17.25 6.2 L16.5 5.4 15.35 5.2 17.25 5.1 17.55 5.3 Q18.35 5.7 18.3 6.7 18.3 7.5 17.55 8.0 17.45 8.1 17.3 8.15 L15.65 8.95 17.2 9.25 17.55 9.25 18.75 8.85 Q18.4 9.7 19.0 9.95 L20.45 9.85 Q20.15 10.85 19.1 11.5 L18.8 11.7 18.35 11.95 18.25 12.0 18.1 12.0 17.55 12.2 16.6 12.2 14.1 11.6 13.8 11.6 Q12.6 11.6 12.25 12.9 11.85 12.3 11.8 11.5 11.7 10.9 11.9 10.15 L12.3 8.75 12.55 7.4 Q12.6 6.05 11.9 5.05 L11.55 4.6 10.05 3.5 10.05 3.7 10.15 3.95 M16.75 1.7 L16.75 1.8 16.8 2.95 Q16.65 4.05 15.8 4.6 L15.65 2.95 Q15.45 1.65 15.05 0.85 L13.95 -0.4 12.25 -1.45 Q11.85 -1.65 11.55 -1.8 L10.65 -2.7 Q10.35 -3.2 10.55 -3.95 L10.85 -4.8 10.95 -5.15 11.05 -5.45 11.2 -7.3 11.0 -8.15 10.7 -8.55 11.2 -8.15 11.5 -7.8 11.55 -7.75 Q12.0 -7.15 12.1 -6.0 L12.2 -5.15 12.25 -4.8 12.45 -4.1 Q12.8 -3.35 13.85 -2.5 L13.95 -2.4 15.45 -1.1 15.85 -0.45 Q16.45 0.45 16.7 1.65 L16.75 1.7 M-16.65 12.8 L-16.85 12.45 -15.2 12.5 -14.2 12.3 -11.8 11.6 Q-10.95 10.95 -10.45 10.3 L-9.95 9.4 Q-9.45 8.2 -9.75 6.55 L-9.95 4.25 -9.95 4.15 -9.45 2.55 -9.25 2.35 -9.45 2.65 -9.65 4.25 -9.55 5.55 -9.45 6.15 -8.8 9.15 Q-8.5 10.85 -8.8 11.9 L-9.25 13.05 -9.45 13.35 -10.2 14.15 -10.45 14.4 Q-11.7 15.45 -13.2 15.7 L-13.25 15.7 -12.45 14.8 -14.6 14.85 Q-13.5 14.65 -12.55 14.15 L-14.0 14.3 -15.2 14.3 -15.55 14.25 -15.75 14.05 -16.25 13.4 -15.2 13.55 -14.2 13.55 Q-13.2 13.5 -12.45 13.05 L-12.2 12.9 -12.75 13.05 -14.45 13.3 -15.2 13.3 -16.05 13.05 -16.65 12.8" fill="#000000" fill-opacity="0.2" fill-rule="evenodd" stroke="none"/>
    <path d="M6.2 -6.05 L6.05 -5.4 Q6.05 -6.7 5.55 -8.15 L5.15 -9.05 Q3.4 -12.8 -0.9 -13.25 L0.5 -13.3 3.45 -12.8 Q5.6 -11.95 6.2 -9.9 L6.45 -8.15 6.2 -6.05 M-13.1 -6.9 Q-12.2 -11.55 -8.3 -10.4 L-8.95 -10.4 Q-9.7 -10.25 -10.35 -9.65 -12.55 -7.65 -13.2 -1.9 -13.55 -4.5 -13.1 -6.9" fill="#ffffff" fill-opacity="0.2" fill-rule="evenodd" stroke="none"/>
    <path d="M6.6 10.65 L6.85 11.5 6.95 11.8 7.55 12.95 7.0 11.95 6.95 11.85 6.6 10.65" fill="#945c47" fill-rule="evenodd" stroke="none"/>
    <path d="M6.2 -6.05 L6.45 -8.15 6.2 -9.9 Q5.6 -11.95 3.45 -12.8 L0.5 -13.3 -0.9 -13.25 Q3.4 -12.8 5.15 -9.05 L5.55 -8.15 Q6.05 -6.7 6.05 -5.4 L6.2 -6.05 M-18.1 8.35 L-18.35 8.35 -18.55 8.35 -17.05 6.45 -15.75 4.3 -17.85 5.4 Q-17.35 5.15 -16.95 4.25 -16.4 2.9 -16.1 0.1 L-15.8 -3.65 Q-15.65 -5.6 -15.35 -6.2 -14.45 -8.4 -12.45 -10.2 L-11.8 -10.7 Q-9.8 -12.15 -8.2 -11.4 -7.9 -12.85 -6.65 -13.5 -5.55 -14.1 -4.05 -13.95 L-4.0 -13.95 -3.5 -13.85 -3.45 -13.9 -2.9 -14.15 Q-1.05 -15.0 1.8 -14.65 L4.35 -14.15 7.05 -13.35 Q9.65 -12.45 11.65 -10.5 L12.15 -10.05 Q13.75 -8.3 14.75 -5.9 L15.0 -5.15 15.1 -4.8 15.35 -3.65 15.5 -2.35 15.85 -0.45 15.45 -1.1 13.95 -2.4 13.85 -2.5 Q12.8 -3.35 12.45 -4.1 L12.25 -4.8 12.2 -5.15 12.1 -6.0 Q12.0 -7.15 11.55 -7.75 L11.5 -7.8 11.2 -8.15 10.7 -8.55 11.0 -8.15 11.2 -7.3 11.05 -5.45 10.95 -5.15 10.85 -4.8 10.55 -3.95 Q10.35 -3.2 10.65 -2.7 L11.55 -1.8 Q11.85 -1.65 12.25 -1.45 L13.95 -0.4 15.05 0.85 Q15.45 1.65 15.65 2.95 L15.8 4.6 Q16.65 4.05 16.8 2.95 L16.75 1.8 16.75 1.7 17.45 2.65 17.55 2.75 17.75 2.95 18.4 4.1 Q20.05 9.1 19.4 9.3 L19.95 9.25 20.5 9.05 Q20.7 10.4 19.2 11.45 L19.15 11.5 18.35 11.95 18.8 11.7 19.1 11.5 Q20.15 10.85 20.45 9.85 L19.0 9.95 Q18.4 9.7 18.75 8.85 L17.55 9.25 17.2 9.25 15.65 8.95 17.3 8.15 Q17.45 8.1 17.55 8.0 18.3 7.5 18.3 6.7 18.35 5.7 17.55 5.3 L17.25 5.1 15.35 5.2 16.5 5.4 17.25 6.2 Q15.85 7.25 15.25 7.5 L13.8 7.45 13.45 6.9 Q13.2 6.35 13.35 5.7 L13.8 4.75 Q14.2 3.8 13.8 2.95 L13.45 2.45 Q12.85 1.75 11.55 1.3 L10.65 1.0 Q8.7 0.55 7.9 -0.15 L7.85 -0.2 Q6.9 -1.15 6.8 -2.95 L6.9 -4.8 7.0 -5.15 7.3 -5.95 6.65 -5.15 6.35 -4.8 5.55 -3.0 Q4.9 -1.0 6.0 0.25 L6.95 0.75 7.1 0.8 8.3 1.3 9.15 2.35 9.75 3.6 10.15 4.05 10.15 3.95 10.85 5.15 11.05 5.45 Q11.55 6.25 11.35 7.05 L11.35 7.1 11.3 7.2 Q11.05 7.95 10.0 8.8 8.85 9.8 8.7 10.65 L8.7 11.5 Q8.8 12.35 9.4 13.05 10.25 14.25 11.45 14.25 10.75 14.95 9.85 14.75 9.05 14.55 8.25 13.8 L7.55 12.95 6.95 11.8 6.85 11.5 6.6 10.65 6.6 10.15 6.95 8.7 7.05 8.35 7.55 6.65 Q7.9 5.0 6.95 4.05 L6.5 3.7 5.1 3.1 3.85 2.8 Q2.6 2.4 2.5 0.55 L2.7 -2.3 Q2.8 -3.6 2.5 -4.5 L2.4 -4.8 2.3 -5.0 Q1.75 -6.0 0.95 -6.1 L-0.7 -6.15 -0.85 -6.15 -1.05 -6.2 -2.0 -5.9 -2.9 -6.0 -2.95 -6.0 -3.6 -6.15 -4.05 -6.25 -4.1 -6.35 -4.45 -6.4 -4.9 -7.5 -5.3 -8.15 Q-5.95 -9.05 -6.9 -9.55 -8.95 -10.7 -10.5 -8.25 -11.4 -6.9 -11.95 -4.4 L-12.25 -2.55 -12.3 -2.4 -12.55 -0.15 Q-12.55 1.4 -12.8 2.2 L-13.85 4.05 -13.95 4.25 -15.15 5.8 -16.55 7.55 Q-17.35 8.3 -18.1 8.35 -17.05 8.3 -15.65 7.45 L-13.1 5.5 Q-13.05 6.2 -13.9 7.1 -14.6 7.8 -15.4 8.15 -14.2 7.95 -12.95 7.2 -13.75 8.65 -15.55 9.35 L-18.0 10.15 -17.45 9.65 -16.15 8.25 -17.3 8.35 -18.1 8.35 M-13.1 -6.9 Q-13.55 -4.5 -13.2 -1.9 -12.55 -7.65 -10.35 -9.65 -9.7 -10.25 -8.95 -10.4 L-8.3 -10.4 Q-12.2 -11.55 -13.1 -6.9 M-18.5 10.55 Q-17.55 11.5 -14.85 10.55 -12.2 9.6 -11.15 8.3 -10.5 7.55 -10.45 6.6 L-10.45 6.35 -10.65 4.25 Q-10.75 2.85 -10.45 1.2 L-9.6 -1.75 -9.45 -2.05 Q-8.95 -3.2 -7.85 -4.4 L-7.35 -4.9 -7.55 -4.5 Q-7.95 -3.4 -8.0 -1.4 L-7.85 0.95 -7.5 3.3 -7.35 4.25 Q-7.15 6.45 -7.6 7.9 -7.25 10.05 -7.45 11.9 L-7.65 13.05 Q-7.95 14.3 -8.55 15.1 L-9.45 16.1 -9.6 16.2 Q-10.7 17.1 -12.15 17.5 -14.4 18.15 -16.25 17.2 L-15.5 16.9 -15.2 16.75 -14.15 16.35 -13.2 15.7 Q-11.7 15.45 -10.45 14.4 L-10.2 14.15 -9.45 13.35 -9.25 13.05 -8.8 11.9 Q-8.5 10.85 -8.8 9.15 L-9.45 6.15 -9.55 5.55 -9.65 4.25 -9.45 2.65 -9.25 2.35 -9.45 2.55 -9.95 4.15 -9.95 4.25 -9.75 6.55 Q-9.45 8.2 -9.95 9.4 L-10.45 10.3 Q-10.95 10.95 -11.8 11.6 L-14.2 12.3 -15.2 12.5 -16.85 12.45 -16.65 12.8 -16.05 13.05 -15.2 13.3 -14.45 13.3 -12.75 13.05 -12.2 12.9 -12.45 13.05 Q-13.2 13.5 -14.2 13.55 L-15.2 13.55 -16.25 13.4 -16.45 13.05 -16.65 12.8 -16.9 12.4 -17.95 11.75 -18.95 10.85 -18.5 10.55 M-15.75 14.05 L-15.55 14.25 -15.2 14.3 -14.0 14.3 -12.55 14.15 Q-13.5 14.65 -14.6 14.85 L-15.1 14.6 -15.2 14.55 -15.75 14.05" fill="#ffffff" fill-opacity="0.0" fill-rule="evenodd" stroke="none"/>
    <path d="M-4.45 -6.4 L-4.1 -6.35 -4.05 -6.25 -3.6 -6.15 -2.95 -6.0 -2.9 -6.0 -2.0 -5.9 -1.05 -6.2 -0.85 -6.15 -0.7 -6.15 0.95 -6.1 Q1.75 -6.0 2.3 -5.0 L2.4 -4.8 2.5 -4.5 Q2.8 -3.6 2.7 -2.3 L2.5 0.55 Q2.6 2.4 3.85 2.8 L5.1 3.1 6.5 3.7 6.95 4.05 Q7.9 5.0 7.55 6.65 L7.05 8.35 6.95 8.7 6.6 10.15 6.6 10.65 6.95 11.85 7.0 11.95 7.55 12.95 8.25 13.8 Q9.05 14.55 9.85 14.75 10.75 14.95 11.45 14.25 10.25 14.25 9.4 13.05 8.8 12.35 8.7 11.5 L8.7 10.65 Q8.85 9.8 10.0 8.8 11.05 7.95 11.3 7.2 L11.35 7.1 11.35 7.05 Q11.55 6.25 11.05 5.45 L10.85 5.15 10.15 3.95 10.05 3.7 10.05 3.5 11.55 4.6 11.9 5.05 Q12.6 6.05 12.55 7.4 L12.3 8.75 11.9 10.15 Q11.7 10.9 11.8 11.5 11.85 12.3 12.25 12.9 12.6 11.6 13.8 11.6 L14.1 11.6 16.6 12.2 17.55 12.2 18.1 12.0 18.25 12.0 18.35 11.95 19.15 11.5 19.2 11.45 M-17.95 11.75 L-16.9 12.4 -16.65 12.8 -16.45 13.05 -16.25 13.4 -15.75 14.05 -15.2 14.55 -15.1 14.6 -14.6 14.85 -12.45 14.8 -13.25 15.7 -13.2 15.7 -14.15 16.35 -15.2 16.75 -15.5 16.9 -16.25 17.2 Q-14.4 18.15 -12.15 17.5 -10.7 17.1 -9.6 16.2 L-9.45 16.1 -8.55 15.1 Q-7.95 14.3 -7.65 13.05 L-7.45 11.9 Q-7.25 10.05 -7.6 7.9 -7.15 6.45 -7.35 4.25 L-7.5 3.3 -7.85 0.95 -8.0 -1.4 Q-7.95 -3.4 -7.55 -4.5 L-7.35 -4.9 Q-6.3 -5.95 -5.65 -5.6 L-6.2 -6.1 -4.35 -6.1 -4.45 -6.4" fill="none" stroke="#000000" stroke-linecap="square" stroke-linejoin="round" stroke-opacity="0.4" stroke-width="1.0"/>
    <path d="M15.85 -0.45 L15.5 -2.35 15.35 -3.65 15.1 -4.8 15.0 -5.15 14.75 -5.9 Q13.75 -8.3 12.15 -10.05 L11.65 -10.5 Q9.65 -12.45 7.05 -13.35 L4.35 -14.15 1.8 -14.65 Q-1.05 -15.0 -2.9 -14.15 L-3.45 -13.9 -3.5 -13.85 -4.0 -13.95 -4.05 -13.95 Q-5.55 -14.1 -6.65 -13.5 -7.9 -12.85 -8.2 -11.4 -9.8 -12.15 -11.8 -10.7 L-12.45 -10.2 Q-14.45 -8.4 -15.35 -6.2 -15.65 -5.6 -15.8 -3.65 L-16.1 0.1 Q-16.4 2.9 -16.95 4.25 -17.35 5.15 -17.85 5.4 L-15.75 4.3 -17.05 6.45 -18.55 8.35 -18.35 8.35 -18.1 8.35 -17.3 8.35 -16.15 8.25 -17.45 9.65 -18.0 10.15 -18.5 10.55 -18.95 10.85 -17.95 11.75 M19.2 11.45 Q20.7 10.4 20.5 9.05 L19.95 9.25 19.4 9.3 Q20.05 9.1 18.4 4.1 L17.75 2.95 17.55 2.75 17.45 2.65 16.75 1.7 16.7 1.65 Q16.45 0.45 15.85 -0.45" fill="none" stroke="#000000" stroke-linecap="square" stroke-linejoin="round" stroke-opacity="0.6" stroke-width="1.0"/>
  </g>
</svg>
