<?xml version="1.0" encoding="UTF-8" standalone="no"?>
<svg xmlns:xlink="http://www.w3.org/1999/xlink" height="59.2px" width="34.55px" xmlns="http://www.w3.org/2000/svg">
  <g transform="matrix(1.0, 0.0, 0.0, 1.0, 17.45, 15.7)">
    <path d="M9.75 4.55 Q9.35 -5.4 5.3 -9.6 4.05 -10.9 2.55 -11.5 L1.3 -11.8 Q5.45 -9.25 6.75 -2.4 7.4 1.05 7.25 3.95 L6.25 3.8 Q5.8 -0.95 4.9 -3.45 L4.3 -4.7 4.05 -5.0 Q4.7 -2.6 5.0 0.3 L5.25 3.95 5.65 4.0 -2.3 3.75 Q-6.5 3.95 -10.1 4.8 L-9.2 28.3 -8.5 42.6 -9.9 42.85 -11.2 19.2 -10.8 42.6 -11.8 42.5 -13.2 23.8 -12.45 42.35 -12.6 42.35 -13.25 26.7 Q-13.8 13.0 -13.25 3.15 L-12.8 -2.3 -12.6 -4.0 Q-14.9 1.2 -14.9 17.65 -14.9 25.9 -14.45 33.1 L-15.95 18.55 -15.25 40.45 -15.5 40.2 -16.3 31.75 Q-17.05 20.55 -16.65 6.65 -16.4 -1.85 -13.3 -7.25 -9.55 -13.7 -2.2 -14.8 L5.0 -14.45 Q7.9 -13.5 10.35 -11.0 15.95 -5.4 16.3 6.65 16.7 20.55 16.15 32.4 L15.5 41.45 14.85 41.7 15.55 21.6 14.2 33.45 Q14.75 26.4 14.65 18.35 14.35 2.3 11.0 -2.5 L11.35 -1.2 12.15 3.05 Q12.7 7.2 12.95 12.45 L12.9 12.6 12.35 13.75 12.3 13.65 12.05 12.55 11.95 11.55 11.35 13.55 11.05 12.8 10.9 12.05 10.9 15.45 Q10.95 17.4 11.25 18.8 11.15 18.3 11.45 17.15 L11.85 15.45 12.0 16.75 12.2 18.05 12.4 16.85 12.7 15.65 12.85 17.9 13.05 19.9 13.0 23.1 13.0 34.45 12.9 42.2 13.9 42.0 12.1 42.35 12.85 23.8 11.45 42.5 10.45 42.6 10.8 19.2 9.9 42.6 8.65 42.25 9.8 29.5 Q10.7 14.75 9.75 4.55 M-10.1 4.8 L-9.35 4.6 -8.95 1.05 Q-8.5 -1.75 -7.85 -3.15 L-8.05 -0.55 Q-8.2 2.3 -8.0 3.45 -8.15 0.8 -7.35 -2.45 -5.75 -8.95 -0.9 -11.8 L-2.4 -11.35 Q-4.2 -10.65 -5.7 -9.25 -10.45 -4.75 -10.1 4.8 M0.4 -6.55 Q0.4 -5.2 0.1 -4.55 L-0.45 -5.95 -0.8 -7.45 -1.05 -6.2 -1.55 -5.05 Q-2.05 -4.8 -2.25 -5.55 L-2.45 -6.7 -3.15 -5.7 Q-3.5 -4.9 -3.95 -4.7 L-4.35 -5.9 -4.8 -7.05 Q-5.5 -6.4 -5.95 -5.2 L-6.5 -3.1 -6.7 -2.0 -6.75 -0.9 -6.55 0.1 -6.45 1.0 -5.9 -0.4 -5.25 -1.75 -4.95 -0.3 -4.55 1.15 Q-4.15 0.85 -3.95 -0.05 L-3.8 -1.5 -3.55 0.15 Q-3.4 1.2 -2.95 1.65 L-2.6 0.35 -2.15 -0.95 -1.9 0.3 -1.4 1.4 -0.95 -0.1 -0.4 -1.5 0.05 0.15 Q0.4 1.25 1.05 1.4 L1.3 0.1 Q1.3 -0.8 1.55 -1.25 L2.15 -0.05 2.6 1.3 Q3.05 0.75 3.15 -0.4 L3.2 -2.0 Q3.2 -1.35 3.65 -0.1 L4.35 2.0 Q5.2 0.0 4.35 -2.9 L3.45 -5.3 2.55 -7.55 2.6 -5.7 2.25 -3.95 1.4 -6.2 0.6 -8.5 0.4 -6.55 M-10.7 10.3 Q-10.9 11.25 -11.35 11.7 L-11.35 11.55 -11.7 10.3 -11.85 9.1 -12.55 11.45 -12.9 10.55 -13.1 9.85 -13.1 13.65 -12.7 17.65 -12.45 15.7 -11.95 13.65 -11.75 15.2 -11.55 16.75 -11.3 15.35 -10.95 13.95 -10.7 16.6 -10.4 19.2 Q-10.0 17.1 -10.25 13.15 L-10.4 8.75 -10.7 10.3 M-6.0 -12.15 L-4.6 -12.8 Q-12.6 -10.5 -14.5 -1.65 -15.1 1.15 -15.0 4.3 L-14.8 6.85 Q-14.55 -3.85 -9.5 -9.4 -7.9 -11.15 -6.0 -12.15" fill="#ffffff" fill-opacity="0.0" fill-rule="evenodd" stroke="none"/>
    <path d="M5.65 4.0 L5.25 3.95 5.0 0.3 Q4.7 -2.6 4.05 -5.0 L4.3 -4.7 4.9 -3.45 Q5.8 -0.95 6.25 3.8 L7.25 3.95 Q7.4 1.05 6.75 -2.4 5.45 -9.25 1.3 -11.8 L2.55 -11.5 Q4.05 -10.9 5.3 -9.6 9.35 -5.4 9.75 4.55 L6.1 4.05 5.85 4.05 5.65 4.0 M13.9 42.0 L12.9 42.2 13.0 34.45 13.0 23.1 13.05 19.9 12.95 12.45 Q12.7 7.2 12.15 3.05 L11.35 -1.2 11.0 -2.5 Q14.35 2.3 14.65 18.35 14.75 26.4 14.2 33.45 L15.55 21.6 14.85 41.7 13.9 42.0 M-15.25 40.45 L-15.95 18.55 -14.45 33.1 Q-14.9 25.9 -14.9 17.65 -14.9 1.2 -12.6 -4.0 L-12.8 -2.3 -13.25 3.15 Q-13.8 13.0 -13.25 26.7 L-12.6 42.35 Q-13.6 42.1 -15.25 40.5 L-15.25 40.45 M-10.1 4.8 Q-10.45 -4.75 -5.7 -9.25 -4.2 -10.65 -2.4 -11.35 L-0.9 -11.8 Q-5.75 -8.95 -7.35 -2.45 -8.15 0.8 -8.0 3.45 -8.2 2.3 -8.05 -0.55 L-7.85 -3.15 Q-8.5 -1.75 -8.95 1.05 L-9.35 4.6 -10.1 4.8" fill="#000000" fill-opacity="0.2" fill-rule="evenodd" stroke="none"/>
    <path d="M13.05 19.9 L12.85 17.9 12.7 15.65 12.4 16.85 12.2 18.05 12.0 16.75 11.85 15.45 11.45 17.15 Q11.15 18.3 11.25 18.8 10.95 17.4 10.9 15.45 L10.9 12.05 11.05 12.8 11.35 13.55 11.95 11.55 12.05 12.55 12.3 13.65 12.35 13.75 12.9 12.6 12.95 12.45 13.05 19.9 M0.4 -6.55 L0.6 -8.5 1.4 -6.2 2.25 -3.95 2.6 -5.7 2.55 -7.55 3.45 -5.3 4.35 -2.9 Q5.2 0.0 4.35 2.0 L3.65 -0.1 Q3.2 -1.35 3.2 -2.0 L3.15 -0.4 Q3.05 0.75 2.6 1.3 L2.15 -0.05 1.55 -1.25 Q1.3 -0.8 1.3 0.1 L1.05 1.4 Q0.4 1.25 0.05 0.15 L-0.4 -1.5 -0.95 -0.1 -1.4 1.4 -1.9 0.3 -2.15 -0.95 -2.6 0.35 -2.95 1.65 Q-3.4 1.2 -3.55 0.15 L-3.8 -1.5 -3.95 -0.05 Q-4.15 0.85 -4.55 1.15 L-4.95 -0.3 -5.25 -1.75 -5.9 -0.4 -6.45 1.0 -6.55 0.1 -6.75 -0.9 -6.7 -2.0 -6.5 -3.1 -5.95 -5.2 Q-5.5 -6.4 -4.8 -7.05 L-4.35 -5.9 -3.95 -4.7 Q-3.5 -4.9 -3.15 -5.7 L-2.45 -6.7 -2.25 -5.55 Q-2.05 -4.8 -1.55 -5.05 L-1.05 -6.2 -0.8 -7.45 -0.45 -5.95 0.1 -4.55 Q0.4 -5.2 0.4 -6.55 M-6.0 -12.15 Q-7.9 -11.15 -9.5 -9.4 -14.55 -3.85 -14.8 6.85 L-15.0 4.3 Q-15.1 1.15 -14.5 -1.65 -12.6 -10.5 -4.6 -12.8 L-6.0 -12.15 M-10.7 10.3 L-10.4 8.75 -10.25 13.15 Q-10.0 17.1 -10.4 19.2 L-10.7 16.6 -10.95 13.95 -11.3 15.35 -11.55 16.75 -11.75 15.2 -11.95 13.65 -12.45 15.7 -12.7 17.65 -13.1 13.65 -13.1 9.85 -12.9 10.55 -12.55 11.45 -11.85 9.1 -11.7 10.3 -11.35 11.55 -11.35 11.7 Q-10.9 11.25 -10.7 10.3" fill="#ffffff" fill-opacity="0.2" fill-rule="evenodd" stroke="none"/>
    <path d="M9.75 4.55 Q10.7 14.75 9.8 29.5 L8.65 42.25 9.9 42.6 10.8 19.2 10.45 42.6 11.45 42.5 12.85 23.8 12.1 42.35 13.9 42.0 14.85 41.7 15.5 41.45 16.15 32.4 Q16.7 20.55 16.3 6.65 15.95 -5.4 10.35 -11.0 7.9 -13.5 5.0 -14.45 L-2.2 -14.8 Q-9.55 -13.7 -13.3 -7.25 -16.4 -1.85 -16.65 6.65 -17.05 20.55 -16.3 31.75 L-15.5 40.2 -15.25 40.45 -15.25 40.5 Q-13.6 42.1 -12.6 42.35 L-12.45 42.35 -13.2 23.8 -11.8 42.5 -10.8 42.6 -11.2 19.2 -9.9 42.85 -8.5 42.6 -9.2 28.3 -10.1 4.8 Q-6.5 3.95 -2.3 3.75 L5.65 4.0 5.85 4.05 6.1 4.05 9.75 4.55 Z" fill="none" stroke="#000000" stroke-linecap="square" stroke-linejoin="round" stroke-opacity="0.6" stroke-width="1.0"/>
  </g>
</svg>
