<?xml version="1.0" encoding="UTF-8" standalone="no"?>
<svg xmlns:xlink="http://www.w3.org/1999/xlink" height="30.45px" width="37.05px" xmlns="http://www.w3.org/2000/svg">
  <g transform="matrix(1.0, 0.0, 0.0, 1.0, 18.8, 17.55)">
    <path d="M4.7 -7.3 Q6.7 -7.75 8.15 -9.0 9.15 -9.95 9.55 -10.85 7.85 -9.5 4.3 -8.85 L-2.8 -7.85 Q-4.85 -7.45 -6.25 -6.25 -7.3 -5.4 -7.95 -4.2 L-7.4 -4.35 -8.25 -4.0 -8.25 -4.2 Q-10.0 -4.15 -11.45 -3.5 -13.95 -2.4 -15.05 0.1 L-14.4 -0.6 -13.25 -1.4 -13.6 -1.0 -14.25 0.25 Q-15.15 2.65 -14.5 6.35 -14.05 9.5 -12.85 11.45 L-12.6 11.7 Q-13.25 11.2 -13.95 11.1 L-14.9 11.2 Q-14.9 10.5 -17.75 2.85 -18.25 1.45 -18.15 -0.95 L-17.95 -3.1 Q-17.55 -4.7 -16.25 -6.0 L-15.05 -7.0 -16.05 -6.95 -16.55 -6.85 -17.1 -6.7 -16.05 -8.1 Q-14.95 -9.1 -13.5 -9.15 -12.45 -9.15 -11.65 -8.65 -12.2 -9.5 -13.35 -10.1 L-14.4 -10.65 Q-11.85 -10.9 -10.2 -8.75 -9.0 -11.45 -7.15 -13.4 -4.3 -16.25 -0.5 -16.8 4.35 -17.35 8.5 -14.8 10.6 -13.5 11.65 -12.1 L16.95 -5.55 15.0 -5.7 16.25 -3.6 Q17.5 -1.1 17.6 0.75 17.65 1.95 17.0 4.2 15.35 5.1 13.65 4.25 L12.6 3.6 12.3 3.2 Q14.25 3.95 15.6 2.6 L16.7 1.15 Q14.3 2.55 12.35 1.55 L11.2 0.7 10.85 0.25 Q13.0 0.55 14.35 -0.8 15.05 -1.45 15.4 -2.25 12.5 -0.65 9.95 -2.05 9.1 -2.45 8.45 -3.15 L7.9 -3.7 Q10.75 -3.3 12.3 -4.9 13.05 -5.7 13.25 -6.5 9.85 -5.1 6.3 -5.7 L8.75 -5.75 Q11.2 -5.9 12.2 -6.65 13.6 -7.6 13.0 -9.85 13.45 -7.85 8.45 -7.4 L4.7 -7.3 M-13.25 -5.2 Q-11.55 -6.35 -9.85 -6.35 -15.8 -7.75 -16.75 -2.65 -17.25 -0.1 -16.45 2.75 -16.6 -2.95 -13.25 -5.2 M-2.7 -15.35 Q-6.2 -13.55 -7.45 -11.1 -8.65 -8.75 -8.35 -4.75 L-7.2 -7.1 -5.7 -9.4 -4.05 -11.75 -1.85 -13.85 Q-2.65 -13.8 -3.8 -13.0 -5.0 -12.0 -5.6 -11.7 L-4.2 -13.5 -2.7 -15.35" fill="#ffffff" fill-opacity="0.0" fill-rule="evenodd" stroke="none"/>
    <path d="M4.7 -7.3 L8.45 -7.4 Q13.45 -7.85 13.0 -9.85 13.6 -7.6 12.2 -6.65 11.2 -5.9 8.75 -5.75 L6.3 -5.7 Q3.75 -5.9 2.15 -7.3 L4.6 -7.3 4.7 -7.3 M-2.7 -15.35 L-4.2 -13.5 -5.6 -11.7 Q-5.0 -12.0 -3.8 -13.0 -2.65 -13.8 -1.85 -13.85 L-4.05 -11.75 -5.7 -9.4 -7.2 -7.1 -8.35 -4.75 Q-8.65 -8.75 -7.45 -11.1 -6.2 -13.55 -2.7 -15.35 M-13.25 -5.2 Q-16.6 -2.95 -16.45 2.75 -17.25 -0.1 -16.75 -2.65 -15.8 -7.75 -9.85 -6.35 -11.55 -6.35 -13.25 -5.2" fill="#ffffff" fill-opacity="0.2" fill-rule="evenodd" stroke="none"/>
    <path d="M-7.4 -4.35 L-7.95 -4.2 Q-7.3 -5.4 -6.25 -6.25 -4.85 -7.45 -2.8 -7.85 L4.3 -8.85 Q7.85 -9.5 9.55 -10.85 9.15 -9.95 8.15 -9.0 6.7 -7.75 4.7 -7.3 L4.6 -7.3 2.15 -7.3 Q3.75 -5.9 6.3 -5.7 9.85 -5.1 13.25 -6.5 13.05 -5.7 12.3 -4.9 10.75 -3.3 7.9 -3.7 L8.45 -3.15 Q9.1 -2.45 9.95 -2.05 12.5 -0.65 15.4 -2.25 15.05 -1.45 14.35 -0.8 13.0 0.55 10.85 0.25 L11.2 0.7 12.35 1.55 Q14.3 2.55 16.7 1.15 L15.6 2.6 Q14.25 3.95 12.3 3.2 L12.6 3.6 13.65 4.25 Q15.35 5.1 17.0 4.2 L16.25 6.3 16.2 6.45 16.05 6.9 16.0 7.0 15.2 8.8 14.9 9.65 14.25 11.0 13.65 10.95 Q13.05 11.05 12.0 12.25 12.45 10.55 12.2 8.7 11.65 4.9 9.55 0.75 L9.55 0.7 9.15 0.0 8.7 -0.8 8.6 -0.95 8.15 -1.55 7.15 -2.65 6.45 -3.3 5.75 -3.9 5.1 -4.35 Q0.4 -7.2 -6.1 -4.9 L-7.05 -4.55 -7.35 -4.4 -7.4 -4.35 M-12.6 11.7 L-12.85 11.45 Q-14.05 9.5 -14.5 6.35 -15.15 2.65 -14.25 0.25 L-13.6 -1.0 -13.25 -1.4 -14.4 -0.6 -15.05 0.1 Q-13.95 -2.4 -11.45 -3.5 -10.0 -4.15 -8.25 -4.2 L-8.25 -4.0 Q-12.4 -0.1 -12.65 6.4 -12.8 9.7 -12.1 12.2 L-12.3 11.95 -12.5 11.75 -12.55 11.7 -12.6 11.7" fill="#000000" fill-opacity="0.2" fill-rule="evenodd" stroke="none"/>
    <path d="M8.6 -0.95 L8.7 -0.8 9.15 0.0 8.65 -0.85 8.6 -0.95 M14.9 9.65 L15.2 8.8 16.0 7.0 16.0 7.05 14.9 9.65" fill="#945c47" fill-rule="evenodd" stroke="none"/>
    <path d="M17.0 4.2 Q17.65 1.95 17.6 0.75 17.5 -1.1 16.25 -3.6 L15.0 -5.7 M16.95 -5.55 L11.65 -12.1 Q10.6 -13.5 8.5 -14.8 4.35 -17.35 -0.5 -16.8 -4.3 -16.25 -7.15 -13.4 -9.0 -11.45 -10.2 -8.75 M-14.4 -10.65 L-13.35 -10.1 M-16.05 -6.95 L-15.05 -7.0 -16.25 -6.0 Q-17.55 -4.7 -17.95 -3.1 L-18.15 -0.95 Q-18.25 1.45 -17.75 2.85 -14.9 10.5 -14.9 11.2 L-13.95 11.1 M-8.25 -4.0 L-7.4 -4.35 -7.35 -4.4 -7.05 -4.55 -6.1 -4.9 Q0.4 -7.2 5.1 -4.35 L5.75 -3.9 6.45 -3.3 7.15 -2.65 8.15 -1.55 8.6 -0.95 8.7 -0.8 9.15 0.0 9.55 0.7 9.55 0.75 Q11.65 4.9 12.2 8.7 12.45 10.55 12.0 12.25 M14.25 11.0 L14.9 9.65 15.2 8.8 16.0 7.0 16.05 6.9 16.2 6.45 16.25 6.3 17.0 4.2 M-12.6 11.7 L-12.55 11.7 -12.5 11.75 -12.3 11.95 -12.1 12.2 Q-12.8 9.7 -12.65 6.4 -12.4 -0.1 -8.25 -4.0" fill="none" stroke="#000000" stroke-linecap="square" stroke-linejoin="round" stroke-opacity="0.6" stroke-width="1.0"/>
    <path d="M15.0 -5.7 L16.95 -5.55 M-10.2 -8.75 Q-11.85 -10.9 -14.4 -10.65 M-13.35 -10.1 Q-12.2 -9.5 -11.65 -8.65 -12.45 -9.15 -13.5 -9.15 -14.95 -9.1 -16.05 -8.1 L-17.1 -6.7 -16.55 -6.85 -16.05 -6.95 M-13.95 11.1 Q-13.25 11.2 -12.6 11.7 M12.0 12.25 Q13.05 11.05 13.65 10.95 L14.25 11.0" fill="none" stroke="#000000" stroke-linecap="square" stroke-linejoin="round" stroke-opacity="0.4" stroke-width="1.0"/>
  </g>
</svg>
