<?xml version="1.0" encoding="UTF-8" standalone="no"?>
<svg xmlns:xlink="http://www.w3.org/1999/xlink" height="41.7px" width="52.55px" xmlns="http://www.w3.org/2000/svg">
  <g transform="matrix(1.0, 0.0, 0.0, 1.0, 26.35, 21.8)">
    <path d="M-24.95 1.1 Q-26.1 0.35 -25.5 -1.05 L-24.5 -2.7 -23.55 -4.4 -22.75 -6.1 -21.45 -7.55 -20.15 -8.35 -18.9 -8.9 -19.3 -9.4 -19.7 -9.95 -20.55 -9.1 Q-21.0 -8.7 -21.55 -8.85 L-23.2 -7.65 Q-24.45 -7.0 -24.85 -7.35 -25.9 -8.55 -23.95 -9.85 L-22.25 -10.65 -20.85 -10.9 Q-20.8 -11.7 -20.05 -12.15 L-18.6 -12.35 Q-17.75 -12.25 -17.25 -11.75 -16.6 -11.2 -16.6 -10.4 -16.1 -11.65 -15.05 -12.05 L-12.8 -11.85 Q-12.6 -12.55 -12.9 -12.8 L-13.65 -13.1 -14.7 -13.2 Q-15.25 -13.35 -15.5 -13.65 -16.25 -12.9 -17.2 -12.8 -18.3 -12.7 -18.3 -13.9 -18.35 -14.95 -17.0 -15.4 L-14.75 -15.75 Q-14.4 -17.15 -13.65 -16.7 L-12.9 -16.2 -12.2 -15.75 -11.05 -15.6 -9.9 -15.65 -10.3 -16.6 -10.7 -17.35 Q-11.1 -16.75 -11.5 -17.0 -11.95 -17.2 -12.1 -17.9 -12.55 -17.3 -12.95 -17.55 -13.35 -17.8 -13.35 -18.45 -13.35 -19.1 -12.85 -19.3 L-11.3 -19.1 Q-11.3 -20.5 -9.75 -20.2 L-7.5 -19.35 Q-7.0 -19.15 -6.65 -18.45 L-6.05 -17.35 -5.5 -17.2 Q-5.6 -18.15 -5.3 -18.65 L-4.35 -19.25 -2.95 -19.65 Q-2.1 -19.9 -1.55 -20.4 L-1.0 -19.8 -0.4 -19.25 Q-0.2 -20.4 1.1 -20.95 2.4 -21.5 3.15 -20.55 3.7 -21.0 4.15 -20.75 L4.85 -20.5 5.7 -20.75 6.6 -21.0 8.45 -20.55 Q9.25 -20.0 8.8 -18.85 10.1 -18.45 9.6 -17.75 9.1 -17.1 8.0 -17.0 L7.6 -17.05 7.55 -16.7 7.45 -16.65 7.9 -16.65 10.65 -16.05 13.4 -15.85 13.45 -15.2 13.5 -14.55 14.2 -14.55 14.45 -14.65 15.85 -14.45 16.25 -14.45 16.4 -14.1 16.95 -13.7 Q17.45 -15.35 18.4 -14.25 19.1 -13.35 19.3 -12.1 L20.65 -11.8 Q21.15 -11.4 20.9 -10.6 21.65 -10.1 21.55 -8.95 22.7 -9.0 23.95 -6.35 L24.65 -4.3 Q24.9 -3.25 24.65 -2.85 L24.5 -2.65 24.5 -1.9 25.0 -0.8 24.95 -0.55 24.9 -0.2 25.15 0.05 25.4 0.3 25.55 1.9 25.55 2.65 24.4 1.4 23.35 0.2 Q22.9 -0.3 22.35 -1.7 L21.4 -3.4 20.45 -3.85 19.55 -4.45 18.65 -4.55 Q18.3 -4.5 17.95 -4.1 L19.5 -2.75 Q19.2 -2.1 19.45 -0.75 L19.6 1.35 19.2 1.3 18.7 1.15 Q18.75 0.25 18.45 -0.7 18.05 -1.95 17.35 -0.9 17.15 -0.55 17.45 0.35 L17.95 1.7 Q18.1 2.65 17.8 3.2 L17.05 4.4 16.65 4.75 16.2 5.25 16.05 6.2 Q16.05 6.85 15.65 7.1 13.85 8.05 14.65 5.45 L15.35 3.45 15.85 2.25 15.75 1.65 15.65 1.0 15.85 0.4 16.05 -0.35 15.85 -1.75 Q15.55 -2.4 14.75 -2.55 14.65 -3.15 15.1 -3.6 L15.7 -4.4 Q15.85 -5.25 15.45 -5.65 L15.0 -5.95 14.55 -6.5 14.0 -7.55 13.6 -8.3 Q13.05 -8.95 11.45 -8.3 12.7 -8.15 12.8 -6.6 L12.75 -5.35 12.7 -4.25 12.6 -3.75 12.5 -3.25 12.7 -2.85 12.95 -2.5 12.9 -1.85 12.7 -1.2 12.75 0.3 12.0 -0.3 Q12.5 0.5 12.6 1.3 12.85 2.4 12.3 2.65 12.3 5.35 11.3 5.45 L11.45 4.3 11.5 2.8 11.4 1.35 10.8 0.25 10.2 -0.85 Q10.05 -1.6 10.75 -3.25 11.4 -5.0 11.2 -6.05 L10.45 -6.35 Q10.6 -5.65 10.25 -5.3 L9.1 -5.15 9.1 -5.9 9.05 -6.6 8.65 -6.65 8.15 -6.65 8.15 -8.35 8.1 -10.1 7.0 -9.75 Q6.45 -9.8 6.05 -10.25 L5.3 -10.15 Q6.55 -9.15 6.35 -8.3 L5.3 -6.35 5.65 -5.75 6.4 -4.55 Q6.4 -4.05 6.05 -3.65 5.5 -2.95 4.65 -3.0 L4.75 -2.25 4.8 -1.45 5.45 -1.05 6.2 -0.15 Q6.45 0.35 6.3 0.75 6.1 1.15 5.45 1.2 5.35 2.3 4.55 2.9 L4.0 3.1 4.3 3.0 Q4.5 2.65 4.3 1.7 L3.6 0.35 Q3.0 -0.55 2.95 -1.05 2.8 -1.6 3.05 -2.45 L3.3 -3.7 Q3.3 -4.1 2.9 -4.5 L2.45 -5.1 2.55 -6.0 2.8 -6.65 2.9 -8.2 Q3.0 -9.15 3.5 -9.7 L1.3 -10.8 Q0.0 -11.5 -0.45 -12.5 -1.05 -12.15 -1.65 -12.15 -2.05 -12.25 -2.65 -12.65 L-3.6 -13.2 -4.7 -13.3 Q-4.15 -12.9 -3.9 -12.35 -3.65 -11.7 -3.95 -11.1 -3.3 -10.4 -2.95 -9.45 -2.65 -8.4 -2.7 -7.65 -2.8 -6.75 -3.4 -6.5 -4.15 -6.2 -5.45 -6.8 L-4.6 -4.6 Q-4.2 -3.15 -5.3 -2.7 -4.6 -1.75 -4.5 -0.25 -4.35 1.45 -5.65 1.4 L-6.05 3.05 -6.5 4.65 -6.35 4.7 Q-7.55 4.5 -7.15 3.7 L-6.5 2.45 -6.65 2.0 -6.9 1.45 -6.5 0.8 -6.15 0.2 -6.6 -0.15 Q-7.05 -0.4 -7.1 -0.7 -7.2 -1.3 -6.15 -1.65 L-6.25 -2.45 Q-6.6 -2.4 -7.2 -2.8 -7.0 -2.65 -7.15 -2.05 L-7.4 -1.35 Q-7.45 -1.25 -7.65 -1.2 L-7.95 -1.15 -8.0 -0.75 -7.9 -0.45 -8.05 0.5 -8.15 1.45 -7.8 2.1 Q-7.6 2.5 -7.75 2.95 L-8.05 3.65 -8.5 4.3 -9.05 4.75 -10.0 4.75 Q-9.25 5.2 -9.3 5.6 L-9.85 6.55 -10.1 7.0 Q-10.25 6.8 -10.8 6.7 L-11.4 6.4 Q-11.75 5.6 -11.25 4.8 -10.75 4.1 -9.9 3.7 -10.6 3.3 -10.1 1.85 L-9.75 0.6 Q-9.55 -0.1 -9.7 -0.55 -10.1 0.55 -10.55 0.0 L-11.4 -1.25 Q-11.7 -1.65 -12.2 -1.6 -12.4 -1.6 -12.45 -2.5 L-12.25 -3.6 Q-12.05 -4.2 -12.15 -4.55 -12.25 -3.3 -13.5 -2.95 -14.75 -2.55 -15.5 -3.6 L-15.35 -1.7 Q-15.45 -0.55 -16.35 -0.8 L-15.95 0.25 -15.85 1.55 Q-16.05 3.2 -17.35 2.5 -17.5 3.2 -18.05 3.35 L-19.25 3.25 Q-19.6 3.8 -19.5 4.35 L-19.1 5.35 -18.75 6.35 Q-18.65 6.9 -19.1 7.45 L-18.7 8.2 Q-18.4 9.1 -18.45 9.35 -18.65 9.9 -19.3 10.05 -19.95 10.25 -20.15 10.5 L-20.6 11.5 -20.95 12.7 -20.65 12.95 -21.05 12.6 -21.0 11.4 -20.5 9.95 Q-20.2 9.1 -20.3 8.6 L-20.75 8.55 -21.2 8.55 -21.0 4.95 -21.85 5.2 -22.7 5.05 Q-21.85 7.4 -23.1 7.85 -22.35 8.35 -22.3 9.15 -22.25 9.9 -23.05 10.3 -24.15 10.8 -24.25 10.05 L-24.3 9.4 -24.5 9.0 Q-25.95 8.5 -25.35 7.4 L-24.7 6.5 Q-24.35 5.95 -24.5 5.65 -25.25 5.5 -25.5 5.2 -25.7 4.85 -25.5 4.5 L-24.8 3.85 -23.7 3.6 Q-24.5 3.05 -23.75 2.25 -23.05 1.5 -22.2 1.5 -22.15 0.8 -21.3 -1.05 L-20.7 -2.1 -19.75 -1.85 Q-19.25 -1.75 -18.85 -2.1 -18.55 -2.45 -18.75 -3.45 -18.9 -4.45 -18.7 -4.8 -18.3 -5.3 -17.4 -5.1 L-16.05 -5.0 Q-15.05 -5.15 -14.95 -5.7 L-14.45 -6.85 Q-13.9 -7.35 -13.2 -7.5 L-11.65 -7.6 -11.65 -8.45 Q-12.5 -8.1 -12.8 -8.65 L-13.0 -9.1 -13.55 -9.45 Q-14.35 -9.55 -14.85 -8.95 L-15.3 -8.45 -15.85 -7.95 Q-16.3 -7.65 -17.25 -7.4 L-18.55 -6.85 -19.0 -6.35 -19.45 -5.85 -20.1 -5.85 -20.65 -5.9 -21.65 -5.35 Q-21.5 -4.9 -21.8 -4.2 L-23.1 -2.5 -24.0 -1.65 -24.65 -0.7 -24.75 0.15 Q-24.75 0.75 -24.9 1.0 L-24.95 1.1" fill="#ffffff" fill-opacity="0.0" fill-rule="evenodd" stroke="none"/>
    <path d="M-24.95 1.1 L-24.9 1.0 Q-24.75 0.75 -24.75 0.15 L-24.65 -0.7 -24.0 -1.65 -23.1 -2.5 -21.8 -4.2 Q-21.5 -4.9 -21.65 -5.35 L-20.65 -5.9 -20.1 -5.85 -19.45 -5.85 -19.0 -6.35 -18.55 -6.85 -17.25 -7.4 Q-16.3 -7.65 -15.85 -7.95 L-15.3 -8.45 -14.85 -8.95 Q-14.35 -9.55 -13.55 -9.45 L-13.0 -9.1 -12.8 -8.65 Q-12.5 -8.1 -11.65 -8.45 L-11.65 -7.6 -13.2 -7.5 Q-13.9 -7.35 -14.45 -6.85 L-14.95 -5.7 Q-15.05 -5.15 -16.05 -5.0 L-17.4 -5.1 Q-18.3 -5.3 -18.7 -4.8 -18.9 -4.45 -18.75 -3.45 -18.55 -2.45 -18.85 -2.1 -19.25 -1.75 -19.75 -1.85 L-20.7 -2.1 -19.9 -2.8 -19.7 -2.75 -19.75 -2.8 -20.5 -3.3 -21.25 -3.85 -21.5 -2.85 -21.85 -1.85 -22.9 -0.95 Q-23.9 -0.25 -23.9 -0.65 L-23.9 0.45 -23.95 1.5 -24.6 1.3 -24.95 1.1 M-20.65 12.95 L-20.95 12.7 -20.6 11.5 -20.15 10.5 Q-19.95 10.25 -19.3 10.05 -18.65 9.9 -18.45 9.35 -18.4 9.1 -18.7 8.2 L-19.1 7.45 Q-18.65 6.9 -18.75 6.35 L-19.1 5.35 -19.5 4.35 Q-19.6 3.8 -19.25 3.25 L-18.05 3.35 Q-17.5 3.2 -17.35 2.5 -16.05 3.2 -15.85 1.55 L-15.95 0.25 -16.35 -0.8 Q-15.45 -0.55 -15.35 -1.7 L-15.5 -3.6 Q-14.75 -2.55 -13.5 -2.95 -12.25 -3.3 -12.15 -4.55 -12.05 -4.2 -12.25 -3.6 L-12.45 -2.5 Q-12.4 -1.6 -12.2 -1.6 -11.7 -1.65 -11.4 -1.25 L-10.55 0.0 Q-10.1 0.55 -9.7 -0.55 -9.55 -0.1 -9.75 0.6 L-10.1 1.85 Q-10.6 3.3 -9.9 3.7 -10.75 4.1 -11.25 4.8 -11.75 5.6 -11.4 6.4 L-10.8 6.7 Q-10.25 6.8 -10.1 7.0 L-10.2 7.2 -10.55 7.95 -10.5 8.45 -10.75 8.8 -11.5 8.7 -12.2 8.35 Q-12.5 7.85 -12.2 7.3 L-11.4 6.45 -12.15 6.15 -12.45 5.95 -12.55 5.6 -12.3 5.05 -11.8 4.55 Q-12.75 4.6 -12.35 3.75 -11.9 2.95 -11.3 2.8 -11.3 2.05 -11.95 1.55 -11.95 2.05 -12.35 2.3 -12.75 2.55 -13.25 2.3 L-13.25 3.45 Q-13.45 4.0 -14.1 4.15 L-13.7 4.8 -13.5 5.45 Q-14.05 5.6 -14.35 6.1 -14.6 6.6 -14.5 7.2 -13.85 7.2 -13.15 8.05 L-13.0 8.25 Q-12.5 8.95 -12.45 9.35 L-12.45 10.25 -12.25 11.0 Q-12.05 11.25 -12.2 11.55 L-12.25 11.8 -11.8 12.45 -11.55 13.25 Q-11.5 14.1 -12.15 14.3 -12.75 14.6 -13.1 13.7 L-13.1 14.1 -13.15 14.4 Q-13.8 14.3 -14.2 13.45 L-14.9 12.2 Q-14.8 12.75 -14.85 13.2 -14.85 13.65 -15.25 14.1 L-14.1 14.9 Q-13.5 15.45 -13.45 16.0 -13.4 16.6 -13.9 17.1 -14.45 17.55 -14.5 16.95 -14.5 17.5 -14.8 18.05 L-15.65 18.8 -16.0 18.45 -16.4 19.15 Q-16.6 19.35 -17.0 19.15 L-17.55 18.2 -17.95 16.75 -18.15 15.4 -18.35 14.05 Q-18.25 14.9 -18.45 15.6 -18.65 16.6 -19.45 16.2 -19.8 15.95 -19.75 14.7 L-19.7 13.05 -19.8 13.05 -20.2 13.05 -20.65 12.95 M-6.35 4.7 L-6.5 4.65 -6.05 3.05 -5.65 1.4 Q-4.35 1.45 -4.5 -0.25 -4.6 -1.75 -5.3 -2.7 -4.2 -3.15 -4.6 -4.6 L-5.45 -6.8 Q-4.15 -6.2 -3.4 -6.5 -2.8 -6.75 -2.7 -7.65 -2.65 -8.4 -2.95 -9.45 -3.3 -10.4 -3.95 -11.1 -3.65 -11.7 -3.9 -12.35 -4.15 -12.9 -4.7 -13.3 L-3.6 -13.2 -2.65 -12.65 Q-2.05 -12.25 -1.65 -12.15 -1.05 -12.15 -0.45 -12.5 0.0 -11.5 1.3 -10.8 L3.5 -9.7 Q3.0 -9.15 2.9 -8.2 L2.8 -6.65 2.55 -6.0 2.45 -5.1 2.9 -4.5 Q3.3 -4.1 3.3 -3.7 L3.05 -2.45 Q2.8 -1.6 2.95 -1.05 3.0 -0.55 3.6 0.35 L4.3 1.7 Q4.5 2.65 4.3 3.0 L4.0 3.1 3.15 2.85 2.8 2.5 2.8 2.05 2.8 1.5 2.45 1.35 2.15 1.2 1.6 0.65 Q1.35 0.35 1.35 -0.3 L1.75 -1.4 Q1.95 -2.1 1.75 -2.55 L1.05 -3.05 Q0.65 -3.15 0.6 -3.8 L0.8 -5.05 0.9 -5.4 0.9 -5.45 0.65 -5.9 0.1 -6.0 0.1 -4.05 Q0.1 -3.8 -0.6 -2.95 -1.35 -2.15 -1.4 -2.3 L-0.95 -1.0 Q-0.8 -0.1 -1.65 -0.75 -2.05 0.1 -2.55 -0.1 -3.15 -0.55 -3.7 -0.65 -2.6 2.1 -3.85 1.3 L-4.15 2.05 Q-4.45 2.35 -4.8 2.05 -4.8 3.05 -5.1 3.8 -5.45 4.85 -6.35 4.7 M6.4 -4.55 L5.65 -5.75 5.3 -6.35 6.35 -8.3 Q6.55 -9.15 5.3 -10.15 L6.05 -10.25 Q6.45 -9.8 7.0 -9.75 L8.1 -10.1 8.15 -8.35 8.15 -6.65 8.65 -6.65 9.05 -6.6 9.1 -5.9 9.1 -5.15 10.25 -5.3 Q10.6 -5.65 10.45 -6.35 L11.2 -6.05 Q11.4 -5.0 10.75 -3.25 10.05 -1.6 10.2 -0.85 L10.8 0.25 11.4 1.35 11.5 2.8 11.45 4.3 11.3 5.45 11.0 5.4 Q10.25 5.25 10.3 4.2 10.3 3.85 10.45 3.55 10.6 3.3 10.85 3.3 9.85 3.1 9.5 2.55 9.2 1.9 9.95 1.2 9.1 1.2 9.0 0.55 8.95 0.05 9.3 -0.65 7.65 -0.5 7.7 -1.85 L7.7 -1.9 7.95 -3.5 7.95 -3.75 7.9 -4.05 6.3 -5.05 6.4 -4.6 6.4 -4.55 M12.75 0.3 L12.7 -1.2 12.9 -1.85 12.95 -2.5 12.7 -2.85 12.5 -3.25 12.6 -3.75 12.7 -4.25 12.75 -5.35 12.8 -6.6 Q12.7 -8.15 11.45 -8.3 13.05 -8.95 13.6 -8.3 L14.0 -7.55 14.55 -6.5 15.0 -5.95 15.45 -5.65 Q15.85 -5.25 15.7 -4.4 L15.1 -3.6 Q14.65 -3.15 14.75 -2.55 15.55 -2.4 15.85 -1.75 L16.05 -0.35 15.85 0.4 15.65 1.0 15.75 1.65 15.85 2.25 15.35 3.45 14.65 5.45 Q13.85 8.05 15.65 7.1 16.05 6.85 16.05 6.2 L16.2 5.25 16.65 4.75 17.05 4.4 17.8 3.2 Q18.1 2.65 17.95 1.7 L17.45 0.35 Q17.15 -0.55 17.35 -0.9 18.05 -1.95 18.45 -0.7 18.75 0.25 18.7 1.15 L19.2 1.3 19.6 1.35 19.45 -0.75 Q19.2 -2.1 19.5 -2.75 L17.95 -4.1 Q18.3 -4.5 18.65 -4.55 L19.55 -4.45 20.45 -3.85 21.4 -3.4 22.35 -1.7 Q22.9 -0.3 23.35 0.2 L24.4 1.4 25.55 2.65 25.45 3.4 Q24.95 4.0 24.45 3.85 L23.75 3.0 23.4 1.85 Q23.35 1.3 23.6 1.35 21.75 0.85 22.35 -0.55 L21.5 -0.55 20.8 -0.95 20.3 -0.65 Q20.85 0.05 21.1 1.25 21.3 2.55 20.8 3.05 21.75 3.15 22.0 3.7 L22.1 5.1 Q22.65 5.2 23.0 5.7 L23.25 6.7 23.0 7.8 Q22.7 8.25 22.2 8.35 21.45 8.5 21.25 7.95 L21.15 7.5 20.95 7.1 20.3 6.8 19.65 6.5 19.5 5.25 Q19.45 4.3 18.9 4.25 L18.75 4.25 Q18.45 4.35 18.3 4.8 L18.15 5.45 Q18.25 5.7 18.9 6.0 19.5 6.35 19.45 6.85 L19.0 7.45 18.4 7.95 Q19.4 8.5 19.7 9.15 L19.8 11.2 Q19.7 12.35 20.1 13.6 L20.55 15.75 Q20.7 17.5 20.0 18.2 19.5 18.8 18.55 18.75 L17.5 18.5 Q17.25 18.25 17.25 17.45 L17.15 16.25 16.55 17.85 Q16.05 18.6 15.45 18.35 14.8 18.05 14.8 16.55 L14.9 14.2 13.65 14.3 Q13.2 14.0 13.3 13.45 13.1 14.3 12.6 14.3 12.15 14.3 11.9 13.55 11.7 12.95 12.0 11.8 L12.4 10.25 Q11.1 10.3 11.15 8.65 L11.15 8.5 Q11.45 7.3 12.6 6.8 L12.4 6.55 Q11.95 6.3 12.1 5.85 L12.45 5.15 13.2 4.25 13.5 2.7 13.3 1.15 12.75 0.3" fill="#000000" fill-opacity="0.2" fill-rule="evenodd" stroke="none"/>
    <path d="M-19.75 -2.8 L-19.7 -2.75 -19.9 -2.8 -19.75 -2.8" fill="#945c47" fill-rule="evenodd" stroke="none"/>
    <path d="M-13.0 8.25 L-13.15 8.05 Q-13.85 7.2 -14.5 7.2 -14.6 6.6 -14.35 6.1 -14.05 5.6 -13.5 5.45 L-13.7 4.8 -14.1 4.15 Q-13.45 4.0 -13.25 3.45 L-13.25 2.3 Q-12.75 2.55 -12.35 2.3 -11.95 2.05 -11.95 1.55 -11.3 2.05 -11.3 2.8 -11.9 2.95 -12.35 3.75 -12.75 4.6 -11.8 4.55 L-12.3 5.05 -12.55 5.6 -12.45 5.95 Q-14.0 6.55 -13.0 8.25" fill="#000000" fill-opacity="0.4" fill-rule="evenodd" stroke="none"/>
    <path d="M25.55 2.65 L25.55 1.9 25.4 0.3 25.15 0.05 24.9 -0.2 24.95 -0.55 25.0 -0.8 24.5 -1.9 24.5 -2.65 24.65 -2.85 Q24.9 -3.25 24.65 -4.3 L23.95 -6.35 Q22.7 -9.0 21.55 -8.95 21.65 -10.1 20.9 -10.6 21.15 -11.4 20.65 -11.8 L19.3 -12.1 Q19.1 -13.35 18.4 -14.25 17.45 -15.35 16.95 -13.7 L16.4 -14.1 16.25 -14.45 15.85 -14.45 14.45 -14.65 14.2 -14.55 13.5 -14.55 13.45 -15.2 13.4 -15.85 10.65 -16.05 7.9 -16.65 7.45 -16.65 7.55 -16.7 7.6 -17.05 8.0 -17.0 Q9.1 -17.1 9.6 -17.75 10.1 -18.45 8.8 -18.85 9.25 -20.0 8.45 -20.55 L6.6 -21.0 5.7 -20.75 4.85 -20.5 4.15 -20.75 Q3.7 -21.0 3.15 -20.55 2.4 -21.5 1.1 -20.95 -0.2 -20.4 -0.4 -19.25 L-1.0 -19.8 -1.55 -20.4 Q-2.1 -19.9 -2.95 -19.65 L-4.35 -19.25 -5.3 -18.65 Q-5.6 -18.15 -5.5 -17.2 L-6.05 -17.35 -6.65 -18.45 Q-7.0 -19.15 -7.5 -19.35 L-9.75 -20.2 Q-11.3 -20.5 -11.3 -19.1 L-12.85 -19.3 Q-13.35 -19.1 -13.35 -18.45 -13.35 -17.8 -12.95 -17.55 -12.55 -17.3 -12.1 -17.9 -11.95 -17.2 -11.5 -17.0 -11.1 -16.75 -10.7 -17.35 L-10.3 -16.6 -9.9 -15.65 -11.05 -15.6 -12.2 -15.75 -12.9 -16.2 -13.65 -16.7 Q-14.4 -17.15 -14.75 -15.75 L-17.0 -15.4 Q-18.35 -14.95 -18.3 -13.9 -18.3 -12.7 -17.2 -12.8 -16.25 -12.9 -15.5 -13.65 -15.25 -13.35 -14.7 -13.2 L-13.65 -13.1 -12.9 -12.8 Q-12.6 -12.55 -12.8 -11.85 L-15.05 -12.05 Q-16.1 -11.65 -16.6 -10.4 -16.6 -11.2 -17.25 -11.75 -17.75 -12.25 -18.6 -12.35 L-20.05 -12.15 Q-20.8 -11.7 -20.85 -10.9 L-22.25 -10.65 -23.95 -9.85 Q-25.9 -8.55 -24.85 -7.35 -24.45 -7.0 -23.2 -7.65 L-21.55 -8.85 Q-21.0 -8.7 -20.55 -9.1 L-19.7 -9.95 -19.3 -9.4 -18.9 -8.9 -20.15 -8.35 -21.45 -7.55 -22.75 -6.1 -23.55 -4.4 -24.5 -2.7 -25.5 -1.05 Q-26.1 0.35 -24.95 1.1 L-24.9 1.0 M-20.7 -2.1 L-21.3 -1.05 Q-22.15 0.8 -22.2 1.5 -23.05 1.5 -23.75 2.25 -24.5 3.05 -23.7 3.6 L-24.8 3.85 -25.5 4.5 Q-25.7 4.85 -25.5 5.2 -25.25 5.5 -24.5 5.65 -24.35 5.95 -24.7 6.5 L-25.35 7.4 Q-25.95 8.5 -24.5 9.0 L-24.3 9.4 -24.25 10.05 Q-24.15 10.8 -23.05 10.3 -22.25 9.9 -22.3 9.15 -22.35 8.35 -23.1 7.85 -21.85 7.4 -22.7 5.05 L-21.85 5.2 -21.0 4.95 -21.2 8.55 -20.75 8.55 -20.3 8.6 Q-20.2 9.1 -20.5 9.95 L-21.0 11.4 -21.05 12.6 -20.65 12.95 -20.2 13.05 -19.8 13.05 -19.7 13.05 -19.75 14.7 Q-19.8 15.95 -19.45 16.2 -18.65 16.6 -18.45 15.6 -18.25 14.9 -18.35 14.05 L-18.15 15.4 -17.95 16.75 -17.55 18.2 -17.0 19.15 Q-16.6 19.35 -16.4 19.15 L-16.0 18.45 -15.65 18.8 -14.8 18.05 Q-14.5 17.5 -14.5 16.95 -14.45 17.55 -13.9 17.1 -13.4 16.6 -13.45 16.0 -13.5 15.45 -14.1 14.9 L-15.25 14.1 Q-14.85 13.65 -14.85 13.2 -14.8 12.75 -14.9 12.2 L-14.2 13.45 Q-13.8 14.3 -13.15 14.4 L-13.1 14.1 -13.1 13.7 Q-12.75 14.6 -12.15 14.3 -11.5 14.1 -11.55 13.25 L-11.8 12.45 -12.25 11.8 -12.2 11.55 Q-12.05 11.25 -12.25 11.0 L-12.45 10.25 -12.45 9.35 Q-12.5 8.95 -13.0 8.25 L-13.15 8.05 Q-13.85 7.2 -14.5 7.2 -14.6 6.6 -14.35 6.1 -14.05 5.6 -13.5 5.45 L-13.7 4.8 -14.1 4.15 Q-13.45 4.0 -13.25 3.45 L-13.25 2.3 Q-12.75 2.55 -12.35 2.3 -11.95 2.05 -11.95 1.55 -11.3 2.05 -11.3 2.8 -11.9 2.95 -12.35 3.75 -12.75 4.6 -11.8 4.55 L-12.3 5.05 -12.55 5.6 -12.45 5.95 -12.15 6.15 -11.4 6.45 -12.2 7.3 Q-12.5 7.85 -12.2 8.35 L-11.5 8.7 -10.75 8.8 -10.5 8.45 -10.55 7.95 -10.2 7.2 -10.1 7.0 -9.85 6.55 -9.3 5.6 Q-9.25 5.2 -10.0 4.75 L-9.05 4.75 -8.5 4.3 -8.05 3.65 -7.75 2.95 Q-7.6 2.5 -7.8 2.1 L-8.15 1.45 -8.05 0.5 -7.9 -0.45 -8.0 -0.75 -7.95 -1.15 -7.65 -1.2 Q-7.45 -1.25 -7.4 -1.35 L-7.15 -2.05 Q-7.0 -2.65 -7.2 -2.8 -6.6 -2.4 -6.25 -2.45 L-6.15 -1.65 Q-7.2 -1.3 -7.1 -0.7 -7.05 -0.4 -6.6 -0.15 L-6.15 0.2 -6.5 0.8 -6.9 1.45 -6.65 2.0 -6.5 2.45 -7.15 3.7 Q-7.55 4.5 -6.35 4.7 -5.45 4.85 -5.1 3.8 -4.8 3.05 -4.8 2.05 -4.45 2.35 -4.15 2.05 L-3.85 1.3 Q-2.6 2.1 -3.7 -0.65 -3.15 -0.55 -2.55 -0.1 -2.05 0.1 -1.65 -0.75 -0.8 -0.1 -0.95 -1.0 L-1.4 -2.3 Q-1.35 -2.15 -0.6 -2.95 0.1 -3.8 0.1 -4.05 L0.1 -6.0 0.65 -5.9 0.9 -5.45 0.9 -5.4 0.8 -5.05 0.6 -3.8 Q0.65 -3.15 1.05 -3.05 L1.75 -2.55 Q1.95 -2.1 1.75 -1.4 L1.35 -0.3 Q1.35 0.35 1.6 0.65 L2.15 1.2 2.45 1.35 2.8 1.5 2.8 2.05 2.8 2.5 3.15 2.85 4.0 3.1 4.55 2.9 Q5.35 2.3 5.45 1.2 6.1 1.15 6.3 0.75 6.45 0.35 6.2 -0.15 L5.45 -1.05 4.8 -1.45 4.75 -2.25 4.65 -3.0 Q5.5 -2.95 6.05 -3.65 6.4 -4.05 6.4 -4.55 L6.4 -4.6 6.3 -5.05 7.9 -4.05 7.95 -3.75 7.95 -3.5 7.7 -1.9 7.7 -1.85 Q7.65 -0.5 9.3 -0.65 8.95 0.05 9.0 0.55 9.1 1.2 9.95 1.2 9.2 1.9 9.5 2.55 9.85 3.1 10.85 3.3 10.6 3.3 10.45 3.55 10.3 3.85 10.3 4.2 10.25 5.25 11.0 5.4 L11.3 5.45 Q12.3 5.35 12.3 2.65 12.85 2.4 12.6 1.3 12.5 0.5 12.0 -0.3 L12.75 0.3 13.3 1.15 13.5 2.7 13.2 4.25 12.45 5.15 12.1 5.85 Q11.95 6.3 12.4 6.55 L12.6 6.8 Q11.45 7.3 11.15 8.5 L11.15 8.65 Q11.1 10.3 12.4 10.25 L12.0 11.8 Q11.7 12.95 11.9 13.55 12.15 14.3 12.6 14.3 13.1 14.3 13.3 13.45 13.2 14.0 13.65 14.3 L14.9 14.2 14.8 16.55 Q14.8 18.05 15.45 18.35 16.05 18.6 16.55 17.85 L17.15 16.25 17.25 17.45 Q17.25 18.25 17.5 18.5 L18.55 18.75 Q19.5 18.8 20.0 18.2 20.7 17.5 20.55 15.75 L20.1 13.6 Q19.7 12.35 19.8 11.2 L19.7 9.15 Q19.4 8.5 18.4 7.95 L19.0 7.45 19.45 6.85 Q19.5 6.35 18.9 6.0 18.25 5.7 18.15 5.45 L18.3 4.8 Q18.45 4.35 18.75 4.25 L18.9 4.25 Q19.45 4.3 19.5 5.25 L19.65 6.5 20.3 6.8 20.95 7.1 21.15 7.5 21.25 7.95 Q21.45 8.5 22.2 8.35 22.7 8.25 23.0 7.8 L23.25 6.7 23.0 5.7 Q22.65 5.2 22.1 5.1 L22.0 3.7 Q21.75 3.15 20.8 3.05 21.3 2.55 21.1 1.25 20.85 0.05 20.3 -0.65 L20.8 -0.95 21.5 -0.55 22.35 -0.55 Q21.75 0.85 23.6 1.35 23.35 1.3 23.4 1.85 L23.75 3.0 24.45 3.85 Q24.95 4.0 25.45 3.4 L25.55 2.65 M-24.95 1.1 L-24.6 1.3 -23.95 1.5 -23.9 0.45 -23.9 -0.65 Q-23.9 -0.25 -22.9 -0.95 L-21.85 -1.85 -21.5 -2.85 -21.25 -3.85 -20.5 -3.3 -19.75 -2.8 -19.7 -2.75 -19.9 -2.8 -20.7 -2.1" fill="none" stroke="#000000" stroke-linecap="square" stroke-linejoin="round" stroke-opacity="0.4" stroke-width="1.0"/>
    <path d="M-13.0 8.25 Q-14.0 6.55 -12.45 5.95" fill="none" stroke="#000000" stroke-linecap="square" stroke-linejoin="round" stroke-opacity="0.6" stroke-width="1.0"/>
  </g>
</svg>
