<?xml version="1.0" encoding="UTF-8" standalone="no"?>
<svg xmlns:xlink="http://www.w3.org/1999/xlink" height="52.55px" width="39.7px" xmlns="http://www.w3.org/2000/svg">
  <g transform="matrix(1.0, 0.0, 0.0, 1.0, 17.85, 16.75)">
    <path d="M-15.15 11.45 L-16.6 5.75 Q-17.75 -0.6 -16.65 -3.85 -15.5 -7.1 -12.35 -8.4 L-11.6 -8.65 -10.25 -9.0 -10.1 -9.9 -10.05 -10.1 Q-9.15 -12.75 -7.6 -14.2 -6.25 -15.5 -4.25 -15.9 L-1.05 -16.05 2.55 -15.5 Q7.95 -14.45 10.5 -13.3 L10.85 -13.15 12.05 -12.5 14.3 -10.85 15.35 -9.9 17.2 -7.55 17.9 -6.45 Q19.25 -4.1 20.0 -1.05 20.75 1.75 21.15 5.95 L21.2 7.8 Q21.05 10.3 20.3 14.3 L19.15 19.55 19.5 13.95 Q19.15 16.9 17.15 23.3 L14.75 30.35 14.75 23.35 Q14.7 25.85 13.05 30.65 L11.35 35.15 11.55 34.6 Q13.3 25.7 12.55 16.95 L11.85 11.8 11.4 9.95 Q10.65 6.7 9.05 3.9 L8.0 2.35 7.55 1.8 9.05 7.05 Q7.8 3.9 4.7 0.65 L2.65 -1.25 1.8 -1.95 6.1 4.6 Q4.85 3.1 2.75 1.55 L0.9 0.35 Q-2.55 -1.65 -5.4 -4.25 L-7.95 -6.85 Q-7.25 -5.95 -6.2 -2.85 L-6.65 -3.25 -6.5 -2.85 -6.25 -1.85 Q-6.5 -2.95 -7.0 -4.05 -7.0 -2.75 -7.35 -1.35 -7.95 1.1 -9.4 2.85 L-10.55 5.5 -12.2 9.15 -10.3 6.3 -10.7 7.15 Q-11.55 9.0 -11.15 14.5 -12.25 12.5 -13.5 11.95 L-15.15 11.45 M4.65 -8.85 L2.7 -9.9 4.8 -8.25 Q9.05 -4.65 12.05 0.45 L14.05 4.35 15.45 7.8 Q16.3 10.3 16.65 12.4 16.65 10.0 16.25 7.8 15.25 2.35 12.05 -2.0 L9.5 -5.0 Q7.7 -6.85 5.6 -8.25 L4.65 -8.85 M15.4 -1.3 Q17.85 2.7 18.55 7.8 19.0 11.1 18.75 14.85 19.5 11.65 19.15 7.8 L19.05 6.75 Q18.1 -1.6 12.05 -5.5 L11.3 -5.95 12.6 -4.85 Q14.15 -3.35 15.4 -1.3 M-12.25 -6.1 Q-15.0 -3.65 -15.65 0.75 L-13.7 -2.8 Q-11.4 -6.55 -9.65 -7.65 L-10.45 -7.35 -12.25 -6.1 M-12.9 0.95 L-11.55 -1.85 -11.0 -2.85 Q-14.75 -0.05 -15.25 5.75 -15.5 8.65 -15.0 11.0 -14.8 5.85 -12.9 0.95 M-11.15 1.45 L-12.1 3.5 Q-13.65 7.1 -14.3 11.0 L-12.8 7.35 Q-11.2 3.25 -10.7 0.75 L-11.15 1.45" fill="#ffffff" fill-opacity="0.0" fill-rule="evenodd" stroke="none"/>
    <path d="M-11.15 14.5 Q-11.55 9.0 -10.7 7.15 L-10.3 6.3 -12.2 9.15 -10.55 5.5 -9.4 2.85 Q-7.95 1.1 -7.35 -1.35 -7.0 -2.75 -7.0 -4.05 -6.5 -2.95 -6.25 -1.85 L-6.1 -0.9 -6.05 0.1 Q-6.1 1.55 -6.8 2.85 L-6.85 2.95 -9.15 8.2 -10.7 12.6 -11.15 14.6 -11.15 14.5 M-6.2 -2.85 Q-7.25 -5.95 -7.95 -6.85 L-5.4 -4.25 Q-2.55 -1.65 0.9 0.35 L2.75 1.55 Q4.85 3.1 6.1 4.6 L1.8 -1.95 2.65 -1.25 4.7 0.65 Q7.8 3.9 9.05 7.05 L7.55 1.8 8.0 2.35 9.05 3.9 Q10.65 6.7 11.4 9.95 L11.85 11.8 12.55 16.95 Q13.3 25.7 11.55 34.6 L11.35 35.15 Q12.25 30.75 11.7 21.5 L11.25 15.6 11.0 13.15 9.75 19.55 Q10.05 17.85 9.45 15.4 8.9 13.05 7.7 10.6 4.95 5.05 1.55 3.15 L-1.35 1.25 -1.6 1.1 -2.35 0.55 -6.2 -2.8 -6.2 -2.85 M15.4 -1.3 Q14.15 -3.35 12.6 -4.85 L11.3 -5.95 12.05 -5.5 Q18.1 -1.6 19.05 6.75 L19.15 7.8 Q19.5 11.65 18.75 14.85 19.0 11.1 18.55 7.8 17.85 2.7 15.4 -1.3 M-12.9 0.95 Q-14.8 5.85 -15.0 11.0 -15.5 8.65 -15.25 5.75 -14.75 -0.05 -11.0 -2.85 L-11.55 -1.85 -12.9 0.95 M-11.15 1.45 L-10.7 0.75 Q-11.2 3.25 -12.8 7.35 L-14.3 11.0 Q-13.65 7.1 -12.1 3.5 L-11.15 1.45" fill="#000000" fill-opacity="0.2" fill-rule="evenodd" stroke="none"/>
    <path d="M4.65 -8.85 L5.6 -8.25 Q7.7 -6.85 9.5 -5.0 L12.05 -2.0 Q15.25 2.35 16.25 7.8 16.65 10.0 16.65 12.4 16.3 10.3 15.45 7.8 L14.05 4.35 12.05 0.45 Q9.05 -4.65 4.8 -8.25 L2.7 -9.9 4.65 -8.85 M-12.25 -6.1 L-10.45 -7.35 -9.65 -7.65 Q-11.4 -6.55 -13.7 -2.8 L-15.65 0.75 Q-15.0 -3.65 -12.25 -6.1" fill="#ffffff" fill-opacity="0.2" fill-rule="evenodd" stroke="none"/>
    <path d="M19.15 19.55 L20.3 14.3 Q21.05 10.3 21.2 7.8 L21.15 5.95 Q20.75 1.75 20.0 -1.05 19.25 -4.1 17.9 -6.45 L17.2 -7.55 15.35 -9.9 14.3 -10.85 12.05 -12.5 10.85 -13.15 10.5 -13.3 Q7.95 -14.45 2.55 -15.5 L-1.05 -16.05 -4.25 -15.9 Q-6.25 -15.5 -7.6 -14.2 -9.15 -12.75 -10.05 -10.1 L-10.1 -9.9 -10.25 -9.0 -11.6 -8.65 -12.35 -8.4 Q-15.5 -7.1 -16.65 -3.85 -17.75 -0.6 -16.6 5.75 L-15.15 11.45 M-6.25 -1.85 L-6.5 -2.85 -6.65 -3.25 -6.2 -2.85 -6.2 -2.8 -2.35 0.55 -1.6 1.1 -1.35 1.25 1.55 3.15 Q4.95 5.05 7.7 10.6 8.9 13.05 9.45 15.4 10.05 17.85 9.75 19.55 M11.55 34.6 L11.35 35.15 13.05 30.65 Q14.7 25.85 14.75 23.35 M14.75 30.35 L17.15 23.3 Q19.15 16.9 19.5 13.95 M11.35 35.15 Q12.25 30.75 11.7 21.5 L11.25 15.6 11.0 13.15 M-6.25 -1.85 L-6.1 -0.9 -6.05 0.1 Q-6.1 1.55 -6.8 2.85 L-6.85 2.95 -9.15 8.2 -10.7 12.6 -11.15 14.6 -11.15 14.5" fill="none" stroke="#000000" stroke-linecap="square" stroke-linejoin="round" stroke-opacity="0.6" stroke-width="1.0"/>
    <path d="M-15.15 11.45 L-13.5 11.95 Q-12.25 12.5 -11.15 14.5 M14.75 23.35 L14.75 30.35 M19.5 13.95 L19.15 19.55 M11.0 13.15 L9.75 19.55" fill="none" stroke="#000000" stroke-linecap="square" stroke-linejoin="round" stroke-opacity="0.4" stroke-width="1.0"/>
  </g>
</svg>
