<?xml version="1.0" encoding="UTF-8" standalone="no"?>
<svg xmlns:xlink="http://www.w3.org/1999/xlink" height="25.7px" width="41.4px" xmlns="http://www.w3.org/2000/svg">
  <g transform="matrix(1.0, 0.0, 0.0, 1.0, 21.8, 12.8)">
    <path d="M-18.35 7.65 Q-15.5 5.9 -15.15 2.15 L-15.05 -0.2 Q-14.65 -2.95 -13.35 -5.05 L-14.5 -3.4 Q-15.75 -1.1 -16.25 1.85 L-16.65 3.65 -16.15 0.25 Q-14.95 -5.4 -12.15 -6.95 L-13.05 -6.6 Q-14.05 -6.0 -14.85 -4.95 -17.15 -1.85 -16.85 4.2 L-18.0 6.6 Q-17.9 5.85 -17.95 4.7 L-17.95 0.0 Q-17.3 -6.6 -11.3 -9.6 -9.95 -11.25 -6.15 -11.75 -2.9 -13.1 -1.45 -12.7 2.5 -12.8 4.9 -11.75 7.3 -10.75 8.35 -9.9 15.15 -6.6 15.85 0.0 L15.85 4.7 Q15.8 5.9 15.9 6.7 14.65 4.85 14.1 1.85 13.6 -1.1 12.35 -3.4 L11.2 -5.05 Q12.5 -2.95 12.9 -0.2 L13.0 2.15 Q13.35 5.9 16.15 7.65 L16.35 7.8 Q17.15 8.7 17.85 8.8 15.15 9.5 11.25 6.1 L8.85 3.7 7.95 2.55 Q9.0 5.8 11.5 7.6 12.7 8.5 13.75 8.75 7.65 8.05 2.85 2.05 1.35 0.2 0.15 -2.0 L-0.75 -3.8 Q-4.1 2.9 -9.9 6.6 -12.8 8.45 -15.05 8.95 -14.35 8.2 -13.95 6.85 L-13.65 5.65 Q-15.55 8.2 -17.55 8.85 L-20.2 8.8 Q-19.35 8.9 -18.35 7.65 M-10.1 -0.85 Q-11.25 1.9 -12.4 3.5 L-11.1 1.65 Q-9.0 -1.4 -7.7 -4.15 -6.3 -7.1 -4.15 -8.15 -2.6 -8.9 -1.55 -8.45 L-3.85 -8.65 Q-6.75 -8.1 -8.9 -3.85 L-10.1 -0.85 M6.9 -3.85 Q4.75 -8.1 1.85 -8.65 L0.15 -8.6 2.15 -8.15 Q4.3 -7.1 5.7 -4.15 7.0 -1.4 9.1 1.65 L10.4 3.5 Q9.25 1.9 8.1 -0.85 L6.9 -3.85 M11.5 -6.8 L10.65 -7.15 Q13.45 -5.6 14.65 0.0 15.2 2.85 15.25 5.35 15.85 -1.75 13.3 -5.15 L11.5 -6.8" fill="#ffffff" fill-opacity="0.0" fill-rule="evenodd" stroke="none"/>
    <path d="M-16.65 3.65 L-16.85 4.2 Q-17.15 -1.85 -14.85 -4.95 -14.05 -6.0 -13.05 -6.6 L-12.15 -6.95 Q-14.95 -5.4 -16.15 0.25 L-16.65 3.65 M11.5 -6.8 L13.3 -5.15 Q15.85 -1.75 15.25 5.35 15.2 2.85 14.65 0.0 13.45 -5.6 10.65 -7.15 L11.5 -6.8" fill="#ffffff" fill-opacity="0.2" fill-rule="evenodd" stroke="none"/>
    <path d="M-16.65 3.65 L-16.25 1.85 Q-15.75 -1.1 -14.5 -3.4 L-13.35 -5.05 Q-14.65 -2.95 -15.05 -0.2 L-15.15 2.15 Q-15.5 5.9 -18.35 7.65 L-20.15 8.5 Q-19.2 8.15 -18.3 7.0 L-18.0 6.6 -16.85 4.2 -16.65 3.65 M-20.2 8.8 L-17.55 8.85 Q-15.55 8.2 -13.65 5.65 L-13.95 6.85 Q-14.35 8.2 -15.05 8.95 -12.8 8.45 -9.9 6.6 -4.1 2.9 -0.75 -3.8 L0.15 -2.0 Q1.35 0.2 2.85 2.05 7.65 8.05 13.75 8.75 12.7 8.5 11.5 7.6 9.0 5.8 7.95 2.55 L8.85 3.7 11.25 6.1 Q15.15 9.5 17.85 8.8 L18.2 8.8 18.35 8.8 18.95 8.35 Q17.35 10.9 14.5 11.15 L11.9 10.85 10.75 10.55 Q6.15 9.1 2.9 4.25 0.55 0.75 -0.75 -3.8 -2.4 0.9 -4.95 4.4 -7.6 8.05 -10.9 9.75 L-13.8 10.8 -14.05 10.85 -16.6 11.15 Q-19.5 10.9 -21.15 8.3 L-20.3 8.8 -20.2 8.8 M16.35 7.8 L16.15 7.65 Q13.35 5.9 13.0 2.15 L12.9 -0.2 Q12.5 -2.95 11.2 -5.05 L12.35 -3.4 Q13.6 -1.1 14.1 1.85 14.65 4.85 15.9 6.7 L16.15 7.0 Q17.0 8.15 18.0 8.5 17.2 8.3 16.35 7.8 M-10.1 -0.85 L-8.9 -3.85 Q-6.75 -8.1 -3.85 -8.65 L-1.55 -8.45 Q-2.6 -8.9 -4.15 -8.15 -6.3 -7.1 -7.7 -4.15 -9.0 -1.4 -11.1 1.65 L-12.4 3.5 Q-11.25 1.9 -10.1 -0.85 M6.9 -3.85 L8.1 -0.85 Q9.25 1.9 10.4 3.5 L9.1 1.65 Q7.0 -1.4 5.7 -4.15 4.3 -7.1 2.15 -8.15 L0.15 -8.6 1.85 -8.65 Q4.75 -8.1 6.9 -3.85" fill="#000000" fill-opacity="0.2" fill-rule="evenodd" stroke="none"/>
    <path d="M14.5 11.15 Q12.8 11.35 12.1 12.25 11.8 11.1 10.75 10.55 L11.9 10.85 14.5 11.15 M-10.9 9.75 Q-11.85 10.55 -12.05 12.1 -12.85 11.0 -13.8 10.8 L-10.9 9.75" fill="#000000" fill-opacity="0.4" fill-rule="evenodd" stroke="none"/>
    <path d="M-18.0 6.6 L-18.3 7.0 Q-19.2 8.15 -20.15 8.5 L-18.35 7.65 Q-19.35 8.9 -20.2 8.8 L-20.3 8.8 -21.15 8.3 Q-19.5 10.9 -16.6 11.15 L-14.05 10.85 -13.8 10.8 -10.9 9.75 Q-11.85 10.55 -12.05 12.1 -12.85 11.0 -13.8 10.8 M17.85 8.8 Q17.15 8.7 16.35 7.8 17.2 8.3 18.0 8.5 17.0 8.15 16.15 7.0 L15.9 6.7 M14.5 11.15 Q12.8 11.35 12.1 12.25 11.8 11.1 10.75 10.55 6.15 9.1 2.9 4.25 0.55 0.75 -0.75 -3.8 -2.4 0.9 -4.95 4.4 -7.6 8.05 -10.9 9.75 M10.75 10.55 L11.9 10.85 14.5 11.15 Q17.35 10.9 18.95 8.35 L18.35 8.8 18.2 8.8 17.85 8.8" fill="none" stroke="#000000" stroke-linecap="square" stroke-linejoin="round" stroke-opacity="0.6" stroke-width="1.0"/>
  </g>
</svg>
