<?xml version="1.0" encoding="UTF-8" standalone="no"?>
<svg xmlns:xlink="http://www.w3.org/1999/xlink" height="54.6px" width="44.1px" xmlns="http://www.w3.org/2000/svg">
  <g transform="matrix(1.0, 0.0, 0.0, 1.0, 22.35, 16.15)">
    <path d="M20.2 21.05 Q19.5 23.8 18.1 26.65 L20.15 21.1 20.2 21.05" fill="#945c47" fill-rule="evenodd" stroke="none"/>
    <path d="M-20.4 5.3 Q-21.3 1.75 -19.7 -3.7 L-18.0 -5.5 -13.5 -9.9 Q-11.5 -11.75 -8.25 -13.55 -4.95 -15.35 -1.3 -15.5 2.2 -15.6 5.2 -12.75 L8.15 -13.15 Q9.65 -13.2 10.9 -12.45 12.85 -11.45 16.0 -7.8 19.15 -4.1 20.0 4.25 L20.1 4.55 Q21.5 9.1 20.95 15.6 20.95 13.05 20.3 10.3 L20.55 8.45 20.6 8.1 19.45 4.1 18.2 3.5 18.1 3.45 Q17.7 6.7 14.9 11.05 L15.25 6.85 Q15.4 4.35 14.95 2.45 L14.2 2.75 14.15 3.55 Q13.9 5.85 13.15 8.55 L13.15 9.5 Q15.3 18.2 15.2 23.05 L15.0 27.8 Q16.2 24.8 16.75 19.95 L17.5 11.05 17.65 6.9 18.4 18.65 Q19.4 16.1 19.9 12.9 19.9 16.65 18.6 22.1 17.15 28.2 12.55 34.7 L15.55 30.85 15.7 30.7 Q13.35 34.15 9.95 37.65 11.2 36.3 11.95 34.3 L13.25 30.5 Q14.6 24.45 13.05 18.4 11.5 12.4 11.75 6.25 L12.35 3.45 Q11.85 0.25 10.7 -3.0 L10.05 -1.3 8.55 1.9 7.65 -1.65 Q6.75 -4.95 4.7 -8.05 L3.5 -5.15 Q2.25 -2.35 -1.65 1.5 -5.3 5.15 -12.3 8.3 -11.5 13.5 -13.35 19.1 -15.2 24.65 -13.85 30.7 L-12.55 34.55 Q-11.75 36.5 -10.55 37.8 -18.6 29.65 -20.45 22.15 -18.7 27.6 -16.15 31.05 L-13.1 34.85 Q-17.75 28.35 -19.15 22.25 -20.45 16.85 -20.5 13.1 -19.95 16.3 -18.95 18.85 L-18.4 9.95 Q-19.55 8.3 -20.35 5.65 L-20.4 5.3 M3.6 -11.2 Q2.15 -6.3 -1.15 -2.15 -4.45 2.05 -7.35 4.55 L-10.35 7.2 Q-4.05 3.5 -1.05 -0.7 2.0 -4.95 2.85 -8.0 L3.6 -11.2 M12.1 -8.15 Q14.2 -4.7 13.6 5.2 L14.3 1.55 Q14.9 -1.85 14.15 -5.75 13.4 -9.5 9.95 -11.2 L12.1 -8.15 M-18.8 -3.2 Q-19.7 -2.1 -19.95 1.45 -20.15 4.9 -16.85 10.6 L-17.9 7.95 Q-19.0 4.95 -18.55 0.6 -18.1 -3.75 -13.65 -8.0 L-16.6 -5.45 -18.8 -3.2 M-8.95 1.85 L-9.4 2.25 Q-11.0 3.6 -12.5 5.5 L-12.3 6.45 -12.3 7.5 -7.1 0.3 -3.15 -5.9 Q-10.05 -2.8 -12.3 0.25 -14.25 2.85 -14.4 3.45 L-14.4 0.45 Q-16.75 4.7 -16.35 8.55 L-15.7 12.65 -17.55 10.95 -18.1 10.35 -18.1 11.25 -17.35 20.15 Q-16.75 25.0 -15.55 28.0 L-15.8 23.25 Q-15.9 18.4 -13.7 9.65 L-13.7 7.05 -13.75 7.15 -13.65 6.95 Q-11.55 4.1 -9.45 2.25 L-8.95 1.85" fill="#ffffff" fill-opacity="0.0" fill-rule="evenodd" stroke="none"/>
    <path d="M-20.5 13.1 Q-20.45 16.85 -19.15 22.25 -17.75 28.35 -13.1 34.85 L-16.15 31.05 Q-18.7 27.6 -20.45 22.15 L-20.75 21.3 Q-21.5 18.75 -21.55 16.05 -21.6 13.35 -20.9 10.5 L-20.25 8.2 -20.5 12.2 -20.5 13.1 M15.7 30.7 L15.55 30.85 12.55 34.7 Q17.15 28.2 18.6 22.1 19.9 16.65 19.9 12.9 L19.9 12.05 19.7 8.05 20.3 10.3 Q20.95 13.05 20.95 15.6 20.95 18.4 20.2 21.05 L20.15 21.1 18.1 26.65 17.25 28.2 15.8 30.55 15.7 30.7 M12.1 -8.15 L9.95 -11.2 Q13.4 -9.5 14.15 -5.75 14.9 -1.85 14.3 1.55 L13.6 5.2 Q14.2 -4.7 12.1 -8.15 M3.6 -11.2 L2.85 -8.0 Q2.0 -4.95 -1.05 -0.7 -4.05 3.5 -10.35 7.2 L-7.35 4.55 Q-4.45 2.05 -1.15 -2.15 2.15 -6.3 3.6 -11.2 M-18.8 -3.2 L-16.6 -5.45 -13.65 -8.0 Q-18.1 -3.75 -18.55 0.6 -19.0 4.95 -17.9 7.95 L-16.85 10.6 Q-20.15 4.9 -19.95 1.45 -19.7 -2.1 -18.8 -3.2" fill="#ffffff" fill-opacity="0.2" fill-rule="evenodd" stroke="none"/>
    <path d="M-20.4 5.3 L-20.35 5.65 Q-19.55 8.3 -18.4 9.95 L-18.95 18.85 Q-19.95 16.3 -20.5 13.1 L-20.5 12.2 -20.25 8.2 -20.9 10.5 Q-21.6 13.35 -21.55 16.05 -21.95 12.25 -21.35 9.4 L-21.15 8.45 -21.15 8.3 -20.7 6.35 -20.4 5.3 M19.9 12.9 Q19.4 16.1 18.4 18.65 L17.65 6.9 17.5 11.05 16.75 19.95 Q16.2 24.8 15.0 27.8 L15.2 23.05 Q15.3 18.2 13.15 9.5 L13.15 8.55 Q13.9 5.85 14.15 3.55 L14.2 2.75 14.95 2.45 Q15.4 4.35 15.25 6.85 L14.9 11.05 Q17.7 6.7 18.1 3.45 L18.2 3.5 19.45 4.1 20.6 8.1 20.55 8.45 20.3 10.3 19.7 8.05 19.9 12.05 19.9 12.9 M-7.1 0.3 L-7.15 0.3 -8.95 1.85 -9.45 2.25 Q-11.55 4.1 -13.65 6.95 L-13.75 7.15 -13.7 7.05 -13.7 9.65 Q-15.9 18.4 -15.8 23.25 L-15.55 28.0 Q-16.75 25.0 -17.35 20.15 L-18.1 11.25 -18.1 10.35 -17.55 10.95 -15.7 12.65 -16.35 8.55 Q-16.75 4.7 -14.4 0.45 L-14.4 3.45 Q-14.25 2.85 -12.3 0.25 -10.05 -2.8 -3.15 -5.9 L-7.1 0.3" fill="#000000" fill-opacity="0.2" fill-rule="evenodd" stroke="none"/>
    <path d="M20.95 15.6 Q21.5 9.1 20.1 4.55 L20.0 4.25 Q19.15 -4.1 16.0 -7.8 12.85 -11.45 10.9 -12.45 9.65 -13.2 8.15 -13.15 L5.2 -12.75 Q2.2 -15.6 -1.3 -15.5 -4.95 -15.35 -8.25 -13.55 -11.5 -11.75 -13.5 -9.9 L-18.0 -5.5 -19.7 -3.7 Q-21.3 1.75 -20.4 5.3 L-20.7 6.35 -21.15 8.3 -21.15 8.45 -21.35 9.4 Q-21.95 12.25 -21.55 16.05 -21.5 18.75 -20.75 21.3 L-20.45 22.15 Q-18.6 29.65 -10.55 37.8 -11.75 36.5 -12.55 34.55 L-13.85 30.7 Q-15.2 24.65 -13.35 19.1 -11.5 13.5 -12.3 8.3 -5.3 5.15 -1.65 1.5 2.25 -2.35 3.5 -5.15 L4.7 -8.05 Q6.75 -4.95 7.65 -1.65 L8.55 1.9 10.05 -1.3 10.7 -3.0 Q11.85 0.25 12.35 3.45 L11.75 6.25 Q11.5 12.4 13.05 18.4 14.6 24.45 13.25 30.5 L11.95 34.3 Q11.2 36.3 9.95 37.65 13.35 34.15 15.7 30.7 L15.8 30.55 17.25 28.2 18.1 26.65 Q19.5 23.8 20.2 21.05 20.95 18.4 20.95 15.6" fill="none" stroke="#000000" stroke-linecap="square" stroke-linejoin="round" stroke-opacity="0.6" stroke-width="1.0"/>
    <path d="M-7.1 0.3 L-7.15 0.3 -8.95 1.85 -9.4 2.25 Q-11.0 3.6 -12.5 5.5 L-12.3 6.45 -12.3 7.5 -7.1 0.3" fill="none" stroke="#000000" stroke-linecap="square" stroke-linejoin="round" stroke-opacity="0.4" stroke-width="1.0"/>
  </g>
</svg>
