<?xml version="1.0" encoding="UTF-8" standalone="no"?>
<svg xmlns:xlink="http://www.w3.org/1999/xlink" height="34.15px" width="45.2px" xmlns="http://www.w3.org/2000/svg">
  <g transform="matrix(1.0, 0.0, 0.0, 1.0, 21.95, 18.95)">
    <path d="M22.75 -8.3 Q17.85 -9.0 13.1 -5.6 18.9 -5.25 20.95 2.2 18.9 0.6 16.1 0.55 18.9 2.6 17.35 8.05 17.05 6.5 15.9 5.3 16.4 10.8 12.75 14.7 11.85 11.9 12.5 10.7 12.95 7.8 11.1 7.5 7.95 6.75 5.6 5.15 7.1 7.7 10.05 9.45 -4.6 8.35 -6.75 1.8 -9.05 5.25 -9.15 7.3 -10.5 8.85 -11.15 11.55 -11.8 14.2 -12.6 14.5 -16.0 11.0 -15.1 6.15 -16.05 7.4 -16.25 8.8 -17.5 3.4 -15.65 1.35 -18.05 1.7 -19.6 3.1 -18.95 -3.25 -14.65 -4.45 -18.3 -6.05 -21.45 -5.2 -16.7 -11.1 -10.4 -9.2 -9.0 -16.2 -2.0 -18.45 -4.05 -15.35 -3.5 -11.35 2.15 -17.8 11.5 -17.9 7.3 -15.95 5.45 -11.45 12.4 -14.9 22.75 -8.3" fill="#ffffff" fill-opacity="0.0" fill-rule="evenodd" stroke="none"/>
    <path d="M13.1 -5.6 Q18.9 -5.25 20.95 2.2 M16.1 0.55 Q18.9 2.6 17.35 8.05 M15.9 5.3 Q16.4 10.8 12.75 14.7 11.85 11.9 12.5 10.7 12.95 7.8 11.1 7.5 7.95 6.75 5.6 5.15 M10.05 9.45 Q-4.6 8.35 -6.75 1.8 -9.05 5.25 -9.15 7.3 -10.5 8.85 -11.15 11.55 -11.8 14.2 -12.6 14.5 -16.0 11.0 -15.1 6.15 M-16.25 8.8 Q-17.5 3.4 -15.65 1.35 M-19.6 3.1 Q-18.95 -3.25 -14.65 -4.45 M-21.45 -5.2 Q-16.7 -11.1 -10.4 -9.2 -9.0 -16.2 -2.0 -18.45 M-3.5 -11.35 Q2.15 -17.8 11.5 -17.9 M5.45 -11.45 Q12.4 -14.9 22.75 -8.3" fill="none" stroke="#000000" stroke-linecap="round" stroke-linejoin="round" stroke-opacity="0.6" stroke-width="1.0"/>
    <path d="M22.75 -8.3 Q17.85 -9.0 13.1 -5.6 M20.95 2.2 Q18.9 0.6 16.1 0.55 M17.35 8.05 Q17.05 6.5 15.9 5.3 M5.6 5.15 Q7.1 7.7 10.05 9.45 M-15.1 6.15 Q-16.05 7.4 -16.25 8.8 M-15.65 1.35 Q-18.05 1.7 -19.6 3.1 M-14.65 -4.45 Q-18.3 -6.05 -21.45 -5.2 M-2.0 -18.45 Q-4.05 -15.35 -3.5 -11.35 M11.5 -17.9 Q7.3 -15.95 5.45 -11.45" fill="none" stroke="#000000" stroke-linecap="round" stroke-linejoin="round" stroke-opacity="0.6" stroke-width="1.0"/>
  </g>
</svg>
