<?xml version="1.0" encoding="UTF-8" standalone="no"?>
<svg xmlns:xlink="http://www.w3.org/1999/xlink" height="27.5px" width="36.3px" xmlns="http://www.w3.org/2000/svg">
  <g transform="matrix(1.0, 0.0, 0.0, 1.0, 18.85, 11.7)">
    <path d="M-12.25 15.2 L-13.95 15.3 Q-15.25 15.0 -16.1 14.15 L-18.0 12.2 Q-18.3 11.95 -18.2 10.7 -18.1 9.35 -17.65 9.05 L-17.3 8.7 Q-19.7 3.85 -16.5 2.35 -17.05 -1.2 -13.75 -3.3 -13.9 -4.65 -12.2 -5.05 -8.95 -9.6 -6.85 -9.4 -4.65 -11.1 -1.6 -9.85 -0.85 -10.7 1.55 -10.9 2.05 -11.55 2.95 -10.8 4.85 -11.15 5.75 -9.9 8.05 -10.05 9.7 -7.35 11.85 -6.65 12.35 -3.7 14.65 -2.4 14.85 0.25 16.3 1.25 16.9 3.2 17.1 4.9 16.45 5.75 17.05 7.55 15.6 8.95 L15.75 9.5 Q15.9 10.2 16.2 10.35 16.45 10.6 15.45 12.9 14.6 14.8 11.85 15.3 11.75 13.25 12.15 10.9 L13.15 6.1 12.5 5.5 Q12.55 2.6 10.9 0.0 10.4 -1.7 9.3 -3.0 L7.1 -4.7 Q3.1 -2.2 -5.2 -5.55 -9.35 -4.85 -11.35 0.15 L-11.5 0.55 Q-11.6 5.05 -13.2 8.8 L-12.65 13.6 -12.25 15.2" fill="#ffffff" fill-opacity="0.0" fill-rule="evenodd" stroke="none"/>
    <path d="M10.9 0.0 Q10.4 -1.7 9.3 -3.0 L7.1 -4.7" fill="none" stroke="#363636" stroke-linecap="round" stroke-linejoin="round" stroke-width="1.0"/>
    <path d="M11.85 15.3 Q11.75 13.25 12.15 10.9 L13.15 6.1 12.5 5.5 Q12.55 2.6 10.9 0.0" fill="none" stroke="#000000" stroke-linecap="round" stroke-linejoin="round" stroke-opacity="0.6" stroke-width="1.0"/>
    <path d="M7.1 -4.7 Q3.1 -2.2 -5.2 -5.55 -9.35 -4.85 -11.35 0.15 L-11.5 0.55 Q-11.6 5.05 -13.2 8.8 L-12.65 13.6 -12.25 15.2" fill="none" stroke="#000000" stroke-linecap="round" stroke-linejoin="round" stroke-opacity="0.6" stroke-width="1.0"/>
    <path d="M-12.25 15.2 L-13.95 15.3 Q-15.25 15.0 -16.1 14.15 L-18.0 12.2 Q-18.3 11.95 -18.2 10.7 -18.1 9.35 -17.65 9.05 L-17.3 8.7 Q-19.7 3.85 -16.5 2.35 -17.05 -1.2 -13.75 -3.3 -13.9 -4.65 -12.2 -5.05 -8.95 -9.6 -6.85 -9.4 -4.65 -11.1 -1.6 -9.85 -0.85 -10.7 1.55 -10.9 2.05 -11.55 2.95 -10.8 4.85 -11.15 5.75 -9.9 8.05 -10.05 9.7 -7.35 11.85 -6.65 12.35 -3.7 14.65 -2.4 14.85 0.25 16.3 1.25 16.9 3.2 17.1 4.9 16.45 5.75 17.05 7.55 15.6 8.95 L15.75 9.5 Q15.9 10.2 16.2 10.35 16.45 10.6 15.45 12.9 14.6 14.8 11.85 15.3" fill="none" stroke="#000000" stroke-linecap="round" stroke-linejoin="round" stroke-opacity="0.6" stroke-width="1.0"/>
  </g>
</svg>
