<?xml version="1.0" encoding="UTF-8" standalone="no"?>
<svg xmlns:xlink="http://www.w3.org/1999/xlink" height="30.15px" width="36.7px" xmlns="http://www.w3.org/2000/svg">
  <g transform="matrix(1.0, 0.0, 0.0, 1.0, 18.35, 15.4)">
    <path d="M-11.4 13.5 Q-14.2 13.8 -15.75 10.75 -17.6 7.2 -17.75 5.5 -17.95 3.75 -17.8 0.45 -17.65 -2.85 -17.05 -4.25 -16.2 -6.35 -12.8 -10.1 -8.85 -14.6 -6.5 -14.85 -4.15 -15.15 -1.6 -14.2 0.05 -13.55 1.2 -12.8 L1.75 -12.35 Q6.05 -15.4 9.15 -13.6 L13.55 -10.55 Q16.15 -8.05 16.95 -4.35 17.8 -0.45 17.85 1.85 17.9 3.45 17.55 5.65 17.15 7.8 16.15 10.75 15.15 13.65 12.8 14.25 L12.75 10.15 12.3 8.1 11.6 5.9 Q11.1 4.25 11.15 2.4 11.2 0.6 9.15 -1.9 7.15 -4.4 4.3 -5.55 -1.4 -5.2 -5.05 -2.95 -7.4 -1.5 -8.75 0.6 -10.45 3.3 -11.3 5.65 -12.05 7.75 -12.0 9.75 L-11.4 13.5" fill="#ffffff" fill-opacity="0.0" fill-rule="evenodd" stroke="none"/>
    <path d="M-11.4 13.5 L-12.0 9.75 Q-12.05 7.75 -11.3 5.65 -10.45 3.3 -8.75 0.6 -7.4 -1.5 -5.05 -2.95 -1.4 -5.2 4.3 -5.55 7.15 -4.4 9.15 -1.9 11.2 0.6 11.15 2.4 11.1 4.25 11.6 5.9 L12.3 8.1 12.75 10.15 12.8 14.25" fill="none" stroke="#000000" stroke-linecap="round" stroke-linejoin="round" stroke-opacity="0.6" stroke-width="1.0"/>
    <path d="M12.8 14.25 Q15.15 13.65 16.15 10.75 17.15 7.8 17.55 5.65 17.9 3.45 17.85 1.85 17.8 -0.45 16.95 -4.35 16.15 -8.05 13.55 -10.55 L9.15 -13.6 Q6.05 -15.4 1.75 -12.35 L1.2 -12.8 Q0.05 -13.55 -1.6 -14.2 -4.15 -15.15 -6.5 -14.85 -8.85 -14.6 -12.8 -10.1 -16.2 -6.35 -17.05 -4.25 -17.65 -2.85 -17.8 0.45 -17.95 3.75 -17.75 5.5 -17.6 7.2 -15.75 10.75 -14.2 13.8 -11.4 13.5 Z" fill="none" stroke="#000000" stroke-linecap="round" stroke-linejoin="round" stroke-opacity="0.6" stroke-width="1.0"/>
    <path d="M4.35 -5.55 Q4.45 -8.5 3.45 -10.05 L1.8 -12.35" fill="none" stroke="#000000" stroke-linecap="round" stroke-linejoin="round" stroke-opacity="0.6" stroke-width="1.0"/>
  </g>
</svg>
