<?xml version="1.0" encoding="UTF-8" standalone="no"?>
<svg xmlns:xlink="http://www.w3.org/1999/xlink" height="26.6px" width="34.4px" xmlns="http://www.w3.org/2000/svg">
  <g transform="matrix(1.0, 0.0, 0.0, 1.0, 17.2, 12.1)">
    <path d="M-16.45 7.65 Q-16.75 5.6 -16.65 3.05 L-16.55 1.15 Q-15.95 -5.55 -9.55 -9.15 -5.2 -11.6 0.0 -11.6 5.2 -11.6 9.55 -9.15 15.95 -5.55 16.55 1.0 L16.7 3.35 16.65 4.75 16.25 7.65 15.25 11.0 14.25 13.2 13.65 13.45 13.2 13.35 Q12.65 13.05 11.85 13.0 L11.85 10.95 7.7 10.0 4.05 9.5 1.1 0.65 1.65 9.35 0.0 9.45 -7.15 10.15 -6.65 1.35 -9.0 10.15 -12.1 10.9 -11.55 13.15 -14.2 14.0 -15.25 11.65 Q-16.1 9.95 -16.45 7.65" fill="#ffffff" fill-opacity="0.0" fill-rule="evenodd" stroke="none"/>
    <path d="M-14.2 14.0 L-11.55 13.15 -12.1 10.9 -9.0 10.15 -6.65 1.35 -7.15 10.15 0.0 9.45 1.65 9.35 1.1 0.65 4.05 9.5 7.7 10.0 11.85 10.95 11.85 13.0 Q12.65 13.05 13.2 13.35 L13.65 13.45" fill="none" stroke="#000000" stroke-linecap="round" stroke-linejoin="round" stroke-opacity="0.6" stroke-width="1.0"/>
    <path d="M16.65 4.75 L16.7 3.35 16.55 1.0 Q15.95 -5.55 9.55 -9.15 5.2 -11.6 0.0 -11.6 -5.2 -11.6 -9.55 -9.15 -15.95 -5.55 -16.55 1.15 L-16.65 3.05 Q-16.75 5.6 -16.45 7.65" fill="none" stroke="#000000" stroke-linecap="round" stroke-linejoin="round" stroke-opacity="0.6" stroke-width="1.0"/>
  </g>
</svg>
