<?xml version="1.0" encoding="UTF-8" standalone="no"?>
<svg xmlns:xlink="http://www.w3.org/1999/xlink" height="29.75px" width="34.45px" xmlns="http://www.w3.org/2000/svg">
  <g transform="matrix(1.0, 0.0, 0.0, 1.0, 17.3, 14.5)">
    <path d="M-15.0 12.85 L-16.2 6.85 -16.8 1.6 Q-17.0 -2.55 -15.2 -5.9 -14.75 -7.7 -13.65 -8.9 -12.6 -10.15 -9.2 -12.05 -5.8 -13.95 -0.15 -14.0 5.45 -14.1 8.7 -12.3 11.9 -10.5 12.6 -9.05 L13.6 -8.25 Q15.05 -6.55 15.2 -5.75 16.85 -3.4 16.6 1.6 L16.1 6.7 14.85 13.3 Q13.5 14.75 12.45 14.75 11.75 11.7 11.8 8.2 10.75 3.8 9.65 3.2 L7.7 3.35 Q7.25 3.35 3.85 1.95 0.35 0.5 -0.15 0.0 -2.4 -2.05 -5.05 -5.9 -4.75 -3.45 -9.15 1.75 -12.8 4.55 -12.65 5.95 L-12.2 10.25 Q-11.8 14.35 -12.55 14.5 L-14.0 14.15 Q-14.75 13.6 -15.0 12.85" fill="#ffffff" fill-opacity="0.0" fill-rule="evenodd" stroke="none"/>
    <path d="M14.85 13.3 L16.1 6.7 16.6 1.6 Q16.85 -3.4 15.2 -5.75 15.05 -6.55 13.6 -8.25 L12.6 -9.05 Q11.9 -10.5 8.7 -12.3 5.45 -14.1 -0.15 -14.0 -5.8 -13.95 -9.2 -12.05 -12.6 -10.15 -13.65 -8.9 -14.75 -7.7 -15.2 -5.9 -17.0 -2.55 -16.8 1.6 L-16.2 6.85 -15.0 12.85" fill="none" stroke="#000000" stroke-linecap="round" stroke-linejoin="round" stroke-opacity="0.6" stroke-width="1.0"/>
    <path d="M-15.0 12.85 Q-14.75 13.6 -14.0 14.15 L-12.55 14.5 Q-11.8 14.35 -12.2 10.25 L-12.65 5.95 Q-12.8 4.55 -9.15 1.75 -4.75 -3.45 -5.05 -5.9 -2.4 -2.05 -0.15 0.0 0.35 0.5 3.85 1.95 7.25 3.35 7.7 3.35 L9.65 3.2 Q10.75 3.8 11.8 8.2 11.75 11.7 12.45 14.75 13.5 14.75 14.85 13.3 Z" fill="none" stroke="#000000" stroke-linecap="round" stroke-linejoin="round" stroke-opacity="0.6" stroke-width="1.0"/>
  </g>
</svg>
