<?xml version="1.0" encoding="UTF-8" standalone="no"?>
<svg xmlns:xlink="http://www.w3.org/1999/xlink" height="46.3px" width="51.65px" xmlns="http://www.w3.org/2000/svg">
  <g transform="matrix(1.0, 0.0, 0.0, 1.0, 25.0, 27.85)">
    <path d="M-16.55 13.25 L-16.55 13.2 -16.4 12.4 -16.65 12.45 -18.15 12.5 Q-18.95 12.15 -19.25 11.4 -19.55 10.65 -19.15 9.9 L-19.85 9.1 -20.4 8.95 -21.45 7.95 Q-21.8 7.1 -21.45 6.35 L-21.15 5.95 -22.0 5.8 -23.05 4.7 -23.2 3.75 -23.05 3.25 -22.65 2.6 -23.05 2.5 Q-23.85 2.2 -24.15 1.45 -24.45 0.65 -24.1 -0.05 L-23.9 -0.45 -23.75 -0.6 -23.45 -0.9 -23.4 -1.95 -23.95 -2.4 -24.35 -3.0 Q-24.65 -3.75 -24.35 -4.45 -24.05 -5.15 -23.4 -5.5 L-23.6 -5.75 Q-24.1 -6.45 -23.85 -7.25 L-23.5 -8.15 -23.05 -8.55 -22.15 -8.9 Q-22.6 -9.55 -22.55 -10.3 L-22.5 -10.4 Q-22.4 -11.1 -21.65 -11.6 L-21.05 -11.9 -21.15 -12.0 Q-21.6 -12.65 -21.35 -13.45 L-21.25 -13.9 -20.6 -14.7 -19.9 -15.05 Q-20.4 -15.6 -20.15 -16.45 -20.05 -17.25 -19.35 -17.75 L-17.85 -18.0 -17.75 -17.95 Q-18.1 -18.55 -18.0 -19.25 -17.8 -20.1 -17.05 -20.5 -16.4 -21.0 -15.6 -20.85 L-14.95 -20.55 -14.9 -20.85 -14.5 -21.7 -14.05 -22.1 Q-13.35 -22.55 -12.55 -22.4 L-12.25 -22.25 -12.15 -22.8 Q-12.2 -23.6 -11.6 -24.2 -11.0 -24.8 -10.2 -24.7 L-9.75 -24.65 -9.15 -24.45 -8.25 -24.85 Q-8.1 -25.55 -7.6 -26.1 -7.0 -26.6 -6.25 -26.65 -5.5 -26.6 -4.9 -26.15 L-4.75 -26.45 Q-4.3 -27.15 -3.45 -27.2 L-2.45 -27.25 -1.95 -27.0 -1.3 -26.25 Q-0.9 -26.9 -0.15 -27.15 L-0.05 -27.2 1.4 -26.85 1.9 -26.4 1.95 -26.55 Q2.4 -27.2 3.25 -27.25 L3.7 -27.3 4.7 -27.0 5.25 -26.5 Q5.55 -27.2 6.45 -27.3 7.25 -27.5 7.95 -27.0 L8.75 -25.75 8.75 -25.65 Q9.15 -26.15 9.85 -26.35 10.7 -26.5 11.35 -25.95 12.05 -25.55 12.2 -24.75 L12.2 -24.05 12.5 -24.1 13.45 -24.05 13.95 -23.75 Q14.65 -23.3 14.8 -22.55 L14.8 -22.15 15.95 -21.4 16.65 -21.65 17.35 -21.7 Q18.15 -21.55 18.6 -20.95 19.0 -20.4 19.0 -19.75 L19.2 -19.75 Q20.0 -19.8 20.6 -19.3 21.25 -18.75 21.3 -17.95 21.4 -17.2 20.85 -16.55 L20.7 -16.4 21.15 -16.5 Q22.0 -16.55 22.6 -16.05 23.25 -15.5 23.3 -14.7 L23.25 -14.0 24.1 -13.55 Q24.7 -13.05 24.75 -12.25 24.75 -11.5 24.4 -10.85 L24.85 -10.55 25.15 -10.25 25.45 -9.3 Q25.55 -8.4 25.1 -7.9 L24.8 -7.55 25.65 -6.55 Q25.95 -5.75 25.6 -4.9 L25.2 -4.45 25.85 -3.5 Q26.15 -2.8 25.8 -2.0 L25.4 -1.45 26.05 -0.6 26.0 0.8 25.95 0.9 25.15 1.8 24.9 1.9 24.5 2.0 24.9 2.7 Q25.2 3.45 24.85 4.2 24.5 4.95 23.7 5.2 L23.6 5.25 23.55 6.75 22.9 7.45 22.4 7.7 21.85 7.85 21.75 8.95 Q21.35 9.7 20.55 9.95 L20.05 10.1 19.85 10.95 Q19.55 11.65 18.75 11.9 L17.75 12.0 17.65 12.5 16.55 13.45 16.3 13.55 16.3 13.65 16.35 13.9 16.15 14.55 16.0 14.9 15.85 15.15 15.1 16.25 13.35 17.6 Q12.2 18.3 12.2 17.6 L12.05 15.75 Q11.9 14.6 12.35 14.2 12.75 13.75 12.55 13.6 L12.3 13.4 12.15 13.25 Q11.7 12.75 11.7 12.05 11.7 11.2 12.3 10.6 L12.5 10.45 11.9 10.05 Q11.35 9.45 11.35 8.7 11.35 7.85 11.85 7.35 L11.5 7.35 Q10.7 7.35 10.1 6.75 9.55 6.2 9.55 5.4 9.55 4.95 9.7 4.6 L9.5 4.35 9.25 4.15 8.35 4.4 Q7.5 4.4 6.9 3.85 L6.75 3.7 6.35 4.25 Q5.75 4.85 4.95 4.85 4.15 4.85 3.55 4.25 L3.45 4.1 2.3 4.45 Q1.45 4.45 0.85 3.9 L0.65 3.6 Q0.15 4.0 -0.55 4.1 -1.4 4.1 -2.0 3.5 L-2.25 3.2 -2.7 3.95 Q-3.25 4.55 -4.05 4.55 -4.9 4.55 -5.5 3.95 L-5.95 3.2 -6.05 3.3 Q-6.65 3.9 -7.45 3.95 L-8.25 3.75 -8.75 4.55 Q-9.35 5.1 -10.15 5.1 L-10.95 4.95 Q-10.5 5.45 -10.4 6.2 -10.5 7.0 -11.05 7.55 L-11.7 8.05 Q-11.25 8.55 -11.2 9.3 -11.25 10.1 -11.8 10.7 L-12.35 11.0 Q-12.35 11.75 -12.85 12.35 L-12.65 13.2 -12.65 13.25 -12.6 13.25 -12.1 15.8 Q-11.65 17.9 -12.6 17.65 L-13.85 17.2 -14.85 16.65 Q-15.55 16.25 -16.1 15.0 -16.7 13.75 -16.6 13.25 L-16.55 13.25" fill="#ffffff" fill-opacity="0.0" fill-rule="evenodd" stroke="none"/>
    <path d="M-13.85 17.2 L-14.85 16.65 Q-15.55 16.25 -16.1 15.0 -16.7 13.75 -16.6 13.25" fill="none" stroke="#000000" stroke-linecap="round" stroke-linejoin="round" stroke-opacity="0.6" stroke-width="1.0"/>
    <path d="M-12.6 13.25 L-12.1 15.8 Q-11.65 17.9 -12.6 17.65 L-13.85 17.2" fill="none" stroke="#000000" stroke-linecap="round" stroke-linejoin="round" stroke-opacity="0.6" stroke-width="1.0"/>
    <path d="M13.35 17.6 Q12.2 18.3 12.2 17.6 L12.05 15.75 Q11.9 14.6 12.35 14.2 12.75 13.75 12.55 13.6 L12.3 13.4 12.15 13.25 Q11.7 12.75 11.7 12.05 11.7 11.2 12.3 10.6 L12.5 10.45 11.9 10.05 Q11.35 9.45 11.35 8.7 11.35 7.85 11.85 7.35 L11.5 7.35 Q10.7 7.35 10.1 6.75 9.55 6.2 9.55 5.4 9.55 4.95 9.7 4.6 L9.5 4.35 9.25 4.15 8.35 4.4 Q7.5 4.4 6.9 3.85 L6.75 3.7 6.35 4.25 Q5.75 4.85 4.95 4.85 4.15 4.85 3.55 4.25 L3.45 4.1 2.3 4.45 Q1.45 4.45 0.85 3.9 L0.65 3.6 Q0.15 4.0 -0.55 4.1 -1.4 4.1 -2.0 3.5 L-2.25 3.2 -2.7 3.95 Q-3.25 4.55 -4.05 4.55 -4.9 4.55 -5.5 3.95 L-5.95 3.2 -6.05 3.3 Q-6.65 3.9 -7.45 3.95 L-8.25 3.75 -8.75 4.55 Q-9.35 5.1 -10.15 5.1 L-10.95 4.95 Q-10.5 5.45 -10.4 6.2 -10.5 7.0 -11.05 7.55 L-11.7 8.05 Q-11.25 8.55 -11.2 9.3 -11.25 10.1 -11.8 10.7 L-12.35 11.0 Q-12.35 11.75 -12.85 12.35 L-12.65 13.2 -12.65 13.25" fill="none" stroke="#000000" stroke-linecap="round" stroke-linejoin="round" stroke-opacity="0.6" stroke-width="1.0"/>
    <path d="M-16.55 13.25 L-16.55 13.2 -16.4 12.4 -16.65 12.45 -18.15 12.5 Q-18.95 12.15 -19.25 11.4 -19.55 10.65 -19.15 9.9 L-19.85 9.1 -20.4 8.95 -21.45 7.95 Q-21.8 7.1 -21.45 6.35 L-21.15 5.95 -22.0 5.8 -23.05 4.7 -23.2 3.75 -23.05 3.25 -22.65 2.6 -23.05 2.5 Q-23.85 2.2 -24.15 1.45 -24.45 0.65 -24.1 -0.05 L-23.9 -0.45 -23.75 -0.6 -23.45 -0.9 -23.4 -1.95 -23.95 -2.4 -24.35 -3.0 Q-24.65 -3.75 -24.35 -4.45 -24.05 -5.15 -23.4 -5.5 L-23.6 -5.75 Q-24.1 -6.45 -23.85 -7.25 L-23.5 -8.15 -23.05 -8.55 -22.15 -8.9 Q-22.6 -9.55 -22.55 -10.3 L-22.5 -10.4 Q-22.4 -11.1 -21.65 -11.6 L-21.05 -11.9 -21.15 -12.0 Q-21.6 -12.65 -21.35 -13.45 L-21.25 -13.9 -20.6 -14.7 -19.9 -15.05 Q-20.4 -15.6 -20.15 -16.45 -20.05 -17.25 -19.35 -17.75 L-17.85 -18.0 -17.75 -17.95 Q-18.1 -18.55 -18.0 -19.25 -17.8 -20.1 -17.05 -20.5 -16.4 -21.0 -15.6 -20.85 L-14.95 -20.55 -14.9 -20.85 -14.5 -21.7 -14.05 -22.1 Q-13.35 -22.55 -12.55 -22.4 L-12.25 -22.25 -12.15 -22.8 Q-12.2 -23.6 -11.6 -24.2 -11.0 -24.8 -10.2 -24.7 L-9.75 -24.65 -9.15 -24.45 -8.25 -24.85 Q-8.1 -25.55 -7.6 -26.1 -7.0 -26.6 -6.25 -26.65 -5.5 -26.6 -4.9 -26.15 L-4.75 -26.45 Q-4.3 -27.15 -3.45 -27.2 L-2.45 -27.25 -1.95 -27.0 -1.3 -26.25 Q-0.9 -26.9 -0.15 -27.15 L-0.05 -27.2 1.4 -26.85 1.9 -26.4 1.95 -26.55 Q2.4 -27.2 3.25 -27.25 L3.7 -27.3 4.7 -27.0 5.25 -26.5 Q5.55 -27.2 6.45 -27.3 7.25 -27.5 7.95 -27.0 L8.75 -25.75 8.75 -25.65 Q9.15 -26.15 9.85 -26.35 10.7 -26.5 11.35 -25.95 12.05 -25.55 12.2 -24.75 L12.2 -24.05 12.5 -24.1 13.45 -24.05 13.95 -23.75 Q14.65 -23.3 14.8 -22.55 L14.8 -22.15 15.95 -21.4 16.65 -21.65 17.35 -21.7 Q18.15 -21.55 18.6 -20.95 19.0 -20.4 19.0 -19.75 L19.2 -19.75 Q20.0 -19.8 20.6 -19.3 21.25 -18.75 21.3 -17.95 21.4 -17.2 20.85 -16.55 L20.7 -16.4 21.15 -16.5 Q22.0 -16.55 22.6 -16.05 23.25 -15.5 23.3 -14.7 L23.25 -14.0 24.1 -13.55 Q24.7 -13.05 24.75 -12.25 24.75 -11.5 24.4 -10.85 L24.85 -10.55 25.15 -10.25 25.45 -9.3 Q25.55 -8.4 25.1 -7.9 L24.8 -7.55 25.65 -6.55 Q25.95 -5.75 25.6 -4.9 L25.2 -4.45 25.85 -3.5 Q26.15 -2.8 25.8 -2.0 L25.4 -1.45 26.05 -0.6 26.0 0.8 25.95 0.9 25.15 1.8 24.9 1.9 24.5 2.0 24.9 2.7 Q25.2 3.45 24.85 4.2 24.5 4.95 23.7 5.2 L23.6 5.25 23.55 6.75 22.9 7.45 22.4 7.7 21.85 7.85 21.75 8.95 Q21.35 9.7 20.55 9.95 L20.05 10.1 19.85 10.95 Q19.55 11.65 18.75 11.9 L17.75 12.0 17.65 12.5 16.55 13.45 16.3 13.55 16.3 13.65 16.35 13.9 16.15 14.55 16.0 14.9 15.85 15.15 15.1 16.25 13.35 17.6" fill="none" stroke="#000000" stroke-linecap="round" stroke-linejoin="round" stroke-opacity="0.6" stroke-width="1.0"/>
  </g>
</svg>
