<?xml version="1.0" encoding="UTF-8" standalone="no"?>
<svg xmlns:xlink="http://www.w3.org/1999/xlink" height="18.35px" width="9.8px" xmlns="http://www.w3.org/2000/svg">
  <g transform="matrix(1.0, 0.0, 0.0, 1.0, 24.8, 9.75)">
    <path d="M-21.9 6.95 L-22.95 5.45 -23.85 3.2 Q-24.65 0.15 -23.35 -3.4 -22.55 -5.75 -21.2 -7.15 L-19.35 -8.55 Q-17.35 -9.55 -15.65 -8.8 -16.55 -8.7 -18.95 -1.1 -21.4 6.5 -20.7 7.95 L-20.75 7.95 -20.85 7.85 -21.9 6.95" fill="#ffffff" fill-opacity="0.0" fill-rule="evenodd" stroke="none"/>
    <path d="M-21.9 6.95 L-22.95 5.45 -23.85 3.2 Q-24.65 0.15 -23.35 -3.4 -22.55 -5.75 -21.2 -7.15 L-19.35 -8.55 Q-17.35 -9.55 -15.65 -8.8 -16.55 -8.7 -18.95 -1.1 -21.4 6.5 -20.7 7.95 L-20.75 7.95 -20.85 7.85 -21.9 6.95 Z" fill="none" stroke="#000000" stroke-linecap="square" stroke-linejoin="round" stroke-opacity="0.6" stroke-width="1.0"/>
  </g>
</svg>
