<?xml version="1.0" encoding="UTF-8" standalone="no"?>
<svg xmlns:xlink="http://www.w3.org/1999/xlink" height="38.55px" width="48.15px" xmlns="http://www.w3.org/2000/svg">
  <g transform="matrix(1.0, 0.0, 0.0, 1.0, 26.15, 16.25)">
    <path d="M11.1 -13.35 L12.0 -13.6 13.9 -13.95 14.8 -13.3 15.6 -12.45 Q17.1 -10.85 17.55 -8.65 L17.6 -8.4 16.7 -8.85 15.8 -10.05 16.0 -9.95 15.7 -10.15 14.3 -11.45 15.05 -11.2 13.85 -11.75 11.6 -13.1 11.1 -13.35 M-9.6 -14.3 L-8.55 -13.7 -10.5 -13.95 -12.1 -13.85 -13.95 -13.1 -15.45 -11.7 Q-16.6 -10.4 -16.85 -8.75 L-16.85 -7.0 Q-15.9 -8.1 -14.4 -8.85 L-15.0 -8.2 Q-14.4 -8.8 -13.6 -9.2 -10.65 -10.5 -8.1 -9.5 L-6.2 -8.3 -7.0 -9.15 -5.9 -8.65 Q-4.9 -8.0 -4.25 -6.85 -3.45 -5.35 -3.35 -3.2 L-3.3 -3.3 -3.2 -3.25 -1.6 -2.1 -1.3 -1.65 -1.6 -1.7 -3.65 -2.35 -4.05 -1.3 -4.0 -1.35 -3.0 -0.05 -4.3 -0.6 -5.9 2.05 -6.55 2.8 Q-7.7 4.05 -9.15 4.85 L-9.25 4.9 -9.55 5.05 -10.05 5.25 -8.65 7.6 -8.15 8.5 -6.5 12.75 Q-7.05 12.8 -7.55 13.4 -8.1 14.05 -8.35 15.1 -10.25 17.85 -8.7 21.8 -13.05 20.2 -15.6 17.6 -18.2 15.0 -19.4 13.05 -20.6 11.05 -20.9 8.5 L-20.95 8.3 -20.85 8.5 -20.55 9.15 -19.45 11.45 Q-18.55 13.2 -17.3 14.75 L-14.9 17.55 Q-13.75 18.75 -11.05 19.8 -14.8 16.85 -15.35 15.2 -16.25 11.95 -16.05 8.95 -15.75 10.75 -14.6 13.25 L-12.7 17.45 Q-12.45 15.8 -13.35 12.4 L-14.2 8.5 -14.35 7.15 -13.95 8.5 -12.95 11.15 Q-12.05 13.2 -10.75 14.65 L-10.85 14.4 Q-11.85 12.8 -12.6 10.4 L-13.15 8.5 -13.75 6.0 -12.35 8.5 -12.25 8.65 -10.25 10.95 -10.1 10.75 -10.95 8.5 -11.1 8.1 -11.85 5.8 -14.1 5.95 -17.9 5.35 -17.35 5.0 -17.2 4.9 Q-15.45 3.5 -14.7 1.3 -13.9 -1.1 -14.8 -3.05 L-14.9 -3.25 -13.7 -1.05 Q-12.85 1.45 -13.9 3.8 -11.45 2.3 -12.4 -1.05 -12.85 -2.35 -13.65 -3.6 L-15.45 -5.45 Q-13.45 -4.7 -12.45 -3.7 -11.5 -2.6 -11.05 -0.55 -10.75 1.0 -10.9 2.05 -11.1 3.4 -12.1 4.35 -9.3 3.45 -9.75 0.1 -9.95 -1.25 -10.65 -2.65 -11.3 -3.95 -12.1 -4.85 -10.3 -3.0 -9.45 -0.4 -9.05 0.95 -8.95 2.25 -7.85 0.1 -8.65 -2.3 L-8.05 -0.75 Q-7.7 0.15 -7.65 0.9 -6.7 -0.75 -7.1 -3.25 -7.5 -5.6 -8.8 -7.2 -7.4 -6.6 -6.9 -4.7 L-6.6 -3.1 -6.3 -1.65 Q-6.15 -3.65 -6.5 -5.1 -6.7 -6.15 -7.25 -7.05 -8.8 -7.95 -10.45 -8.05 L-14.9 -7.55 Q-16.0 -7.15 -16.75 -6.6 L-17.2 -6.2 Q-16.35 -5.55 -15.9 -4.55 L-15.25 -3.7 -15.6 -4.15 -15.8 -4.4 Q-15.4 -3.25 -15.5 -1.65 -15.65 -0.25 -16.2 1.0 -16.8 2.3 -17.75 3.05 -18.95 4.1 -20.4 4.4 L-21.1 4.0 -21.2 3.95 -22.0 3.45 -22.2 3.25 -22.95 2.65 -22.85 2.65 -20.05 1.9 Q-18.7 1.2 -17.85 -0.1 -16.85 -1.55 -16.7 -3.15 -16.55 -4.85 -17.25 -6.15 L-18.0 -5.0 -17.55 -6.0 -17.35 -6.3 -17.0 -6.8 Q-17.9 -8.65 -17.5 -10.6 -17.0 -13.4 -14.2 -14.45 -16.15 -14.6 -17.35 -13.65 -18.5 -12.7 -18.85 -10.65 -19.15 -9.2 -18.75 -8.15 -18.55 -7.35 -17.55 -6.0 -18.5 -6.4 -18.9 -7.5 L-19.45 -9.55 Q-19.7 -10.75 -19.4 -11.65 L-18.35 -13.5 Q-19.35 -12.35 -19.8 -10.7 -20.35 -8.95 -19.95 -7.45 -20.4 -8.65 -20.4 -9.9 -20.4 -11.2 -19.95 -12.3 -21.45 -10.15 -20.6 -7.7 -19.75 -5.4 -17.45 -4.15 -19.8 -4.2 -21.1 -5.2 -22.5 -6.3 -23.05 -8.5 L-23.4 -10.9 -22.3 -12.3 -21.55 -13.05 Q-19.55 -14.85 -16.85 -15.4 L-16.3 -15.45 -15.7 -15.5 -15.25 -15.55 Q-13.15 -15.6 -11.1 -14.85 L-9.6 -14.3 M4.55 3.4 Q4.9 2.15 4.8 0.2 4.55 -3.65 2.15 -6.8 L2.05 -7.2 -0.15 -7.25 -0.3 -7.25 -1.15 -7.3 -1.6 -7.3 -3.15 -7.3 -3.65 -8.4 -3.95 -9.05 -1.6 -9.0 -0.95 -8.95 -0.3 -8.9 0.2 -8.85 1.25 -8.65 1.5 -8.6 1.8 -8.55 Q3.7 -8.1 4.7 -7.2 L2.9 -7.2 3.85 -6.0 3.9 -5.95 3.75 -6.05 3.55 -6.25 3.5 -6.3 3.2 -6.5 2.9 -6.65 Q5.75 -3.85 5.4 0.05 5.25 2.05 4.55 3.4 M9.0 3.15 L8.85 -0.55 Q8.2 -4.7 6.0 -7.05 L6.45 -6.95 7.55 -6.5 Q9.55 -3.35 9.5 0.15 9.45 2.0 9.0 3.15 M13.15 3.15 Q13.4 1.8 13.2 0.05 12.75 -4.2 9.4 -7.15 L10.45 -6.6 Q11.7 -5.75 12.55 -4.7 L13.15 -3.65 13.3 -3.25 13.75 -1.2 13.75 -0.3 13.65 0.8 13.6 1.45 13.55 1.85 13.1 3.4 13.05 3.5 13.1 3.35 13.15 3.15 M15.1 2.6 L15.6 0.15 Q15.9 -2.75 14.95 -5.0 L13.35 -7.15 14.75 -5.9 Q16.25 -4.3 16.6 -2.55 L15.2 -4.7 15.3 -4.5 15.45 -4.3 16.4 -2.1 16.45 -1.65 16.5 -1.2 16.45 -0.55 Q16.3 0.95 15.4 2.25 L15.2 2.5 15.1 2.6 M6.05 -10.35 L4.25 -10.35 2.1 -10.3 1.25 -10.3 -0.3 -10.2 -0.6 -10.2 -1.6 -10.1 -4.3 -9.65 -4.8 -10.35 -1.6 -10.7 -1.1 -10.75 -0.3 -10.75 1.25 -10.85 1.85 -10.9 2.55 -10.95 3.85 -10.9 6.05 -10.35 M13.1 3.4 L13.1 3.35 13.1 3.4 M-2.65 -11.8 L-5.55 -11.25 -5.85 -11.6 -2.05 -11.85 -2.65 -11.8 M-5.1 -4.2 Q-5.0 -4.75 -5.05 -5.35 L-5.9 -6.1 -6.05 -6.25 -5.9 -5.95 -5.1 -4.2 M0.55 -2.8 L-0.15 -3.0 -0.3 -3.05 -1.6 -3.55 -2.6 -3.9 -3.1 -4.05 -3.0 -4.4 -2.9 -5.35 -1.6 -4.4 -0.3 -3.4 -0.15 -3.3 0.55 -2.8 M-10.5 5.4 L-10.55 5.4 -11.8 5.8 -10.65 6.95 -9.5 8.05 -10.1 6.35 -10.4 5.35 -10.5 5.4 M-8.7 9.95 L-8.85 10.0 -8.1 10.0 -8.7 9.95" fill="#000000" fill-opacity="0.2" fill-rule="evenodd" stroke="none"/>
    <path d="M9.65 -13.9 Q10.3 -14.5 11.15 -14.8 L10.25 -14.85 9.25 -14.9 8.35 -14.35 5.1 -15.0 8.35 -14.35 9.65 -13.9 11.1 -13.35 9.65 -13.9 M14.8 -13.3 L13.9 -13.95 12.0 -13.6 11.1 -13.35 11.6 -13.1 13.85 -11.75 14.3 -11.45 13.85 -11.75 15.05 -11.2 14.3 -11.45 15.7 -10.15 15.8 -10.05 15.7 -10.15 16.0 -9.95 15.8 -10.05 16.7 -8.85 17.6 -8.4 Q19.4 -7.4 20.4 -5.75 22.1 -3.05 21.2 1.05 L20.35 -1.8 Q19.15 -5.05 17.45 -7.05 18.9 -2.9 18.3 0.45 18.05 2.1 17.5 2.85 18.3 0.75 16.65 -2.4 L15.45 -4.3 15.3 -4.5 15.2 -4.7 16.6 -2.55 Q16.25 -4.3 14.75 -5.9 L13.35 -7.15 14.95 -5.0 Q15.9 -2.75 15.6 0.15 L15.1 2.6 Q15.6 0.15 14.4 -2.3 13.55 -3.95 12.0 -5.45 L13.15 -3.65 12.55 -4.7 Q11.7 -5.75 10.45 -6.6 L9.4 -7.15 Q12.75 -4.2 13.2 0.05 13.4 1.8 13.15 3.15 13.35 0.25 10.6 -3.25 L8.45 -5.7 7.45 -6.65 7.55 -6.5 6.45 -6.95 6.0 -7.05 Q8.2 -4.7 8.85 -0.55 L9.0 3.15 Q8.85 -0.8 5.9 -4.15 L3.9 -5.95 3.85 -6.0 2.9 -7.2 4.7 -7.2 Q3.7 -8.1 1.8 -8.55 L1.5 -8.6 1.25 -8.65 0.2 -8.85 -0.3 -8.9 -0.95 -8.95 -1.6 -9.0 -3.95 -9.05 -3.65 -8.4 -3.15 -7.3 -1.6 -7.3 -1.15 -7.3 -0.3 -7.25 -0.15 -7.25 2.05 -7.2 2.15 -6.8 Q4.55 -3.65 4.8 0.2 4.9 2.15 4.55 3.4 5.05 0.8 3.15 -2.45 L1.7 -4.3 1.1 -5.05 Q2.1 -1.4 1.3 1.9 0.9 3.55 0.25 4.5 L-0.15 2.15 -0.15 1.4 0.0 -0.3 -0.15 -0.1 -0.3 0.1 Q-1.05 1.0 -1.6 2.05 -3.3 4.95 -3.8 8.5 L-4.05 11.95 Q-4.0 14.35 -2.55 15.55 -4.15 15.7 -6.5 12.75 L-8.15 8.5 -8.65 7.6 -10.05 5.25 -9.55 5.05 -9.25 4.9 -9.15 4.85 Q-7.7 4.05 -6.55 2.8 L-5.9 2.05 -4.3 -0.6 -3.0 -0.05 -4.0 -1.35 -4.05 -1.3 -3.65 -2.35 -1.6 -1.7 -1.3 -1.65 -1.6 -2.1 -3.2 -3.25 -3.3 -3.3 -3.35 -3.2 Q-3.45 -5.35 -4.25 -6.85 -4.9 -8.0 -5.9 -8.65 L-7.0 -9.15 -6.2 -8.3 -8.1 -9.5 Q-10.65 -10.5 -13.6 -9.2 L-11.85 -9.9 -8.2 -10.15 -5.9 -9.35 -5.0 -8.85 Q-3.6 -7.8 -2.95 -6.25 -3.75 -8.3 -5.15 -9.6 L-5.9 -10.2 Q-7.25 -11.2 -8.95 -11.45 -10.9 -11.65 -12.3 -10.7 L-14.4 -8.85 Q-15.9 -8.1 -16.85 -7.0 L-16.85 -8.75 Q-16.6 -10.4 -15.45 -11.7 L-13.95 -13.1 -12.1 -13.85 -10.5 -13.95 -8.55 -13.7 -9.6 -14.3 Q-8.55 -13.8 -7.65 -13.15 L-6.15 -13.75 -5.9 -13.85 Q-3.75 -14.6 -1.6 -14.95 L-0.3 -15.1 Q1.5 -15.3 3.45 -15.15 L5.1 -15.0 Q7.3 -16.15 10.3 -15.5 12.8 -14.95 14.8 -13.3 M6.05 -10.35 L3.85 -10.9 2.55 -10.95 1.85 -10.9 1.25 -10.85 -0.3 -10.75 -1.1 -10.75 -1.6 -10.7 -4.8 -10.35 -4.3 -9.65 -1.6 -10.1 -0.6 -10.2 -0.3 -10.2 1.25 -10.3 2.1 -10.3 4.25 -10.35 6.05 -10.35 M13.75 -0.3 L13.7 0.45 13.6 1.45 13.65 0.8 13.75 -0.3 M-22.3 -12.3 L-23.4 -10.9 -23.05 -8.5 Q-22.5 -6.3 -21.1 -5.2 -19.8 -4.2 -17.45 -4.15 -19.75 -5.4 -20.6 -7.7 -21.45 -10.15 -19.95 -12.3 -20.4 -11.2 -20.4 -9.9 -20.4 -8.65 -19.95 -7.45 -20.35 -8.95 -19.8 -10.7 -19.35 -12.35 -18.35 -13.5 L-19.4 -11.65 Q-19.7 -10.75 -19.45 -9.55 L-18.9 -7.5 Q-18.5 -6.4 -17.55 -6.0 -18.55 -7.35 -18.75 -8.15 -19.15 -9.2 -18.85 -10.65 -18.5 -12.7 -17.35 -13.65 -16.15 -14.6 -14.2 -14.45 -17.0 -13.4 -17.5 -10.6 -17.9 -8.65 -17.0 -6.8 L-17.35 -6.3 -17.55 -6.0 -18.0 -5.0 -17.25 -6.15 Q-16.55 -4.85 -16.7 -3.15 -16.85 -1.55 -17.85 -0.1 -18.7 1.2 -20.05 1.9 L-22.85 2.65 -24.15 1.15 Q-26.35 -2.0 -25.35 -6.35 -24.65 -9.75 -22.3 -12.3 M-21.1 4.0 L-20.4 4.4 Q-18.95 4.1 -17.75 3.05 -16.8 2.3 -16.2 1.0 -15.65 -0.25 -15.5 -1.65 -15.4 -3.25 -15.8 -4.4 L-15.6 -4.15 -15.25 -3.7 -15.9 -4.55 Q-16.35 -5.55 -17.2 -6.2 L-16.75 -6.6 Q-16.0 -7.15 -14.9 -7.55 L-10.45 -8.05 Q-8.8 -7.95 -7.25 -7.05 -6.7 -6.15 -6.5 -5.1 -6.15 -3.65 -6.3 -1.65 L-6.6 -3.1 -6.9 -4.7 Q-7.4 -6.6 -8.8 -7.2 -7.5 -5.6 -7.1 -3.25 -6.7 -0.75 -7.65 0.9 -7.7 0.15 -8.05 -0.75 L-8.65 -2.3 Q-7.85 0.1 -8.95 2.25 -9.05 0.95 -9.45 -0.4 -10.3 -3.0 -12.1 -4.85 -11.3 -3.95 -10.65 -2.65 -9.95 -1.25 -9.75 0.1 -9.3 3.45 -12.1 4.35 -11.1 3.4 -10.9 2.05 -10.75 1.0 -11.05 -0.55 -11.5 -2.6 -12.45 -3.7 -13.45 -4.7 -15.45 -5.45 L-13.65 -3.6 Q-12.85 -2.35 -12.4 -1.05 -11.45 2.3 -13.9 3.8 -12.85 1.45 -13.7 -1.05 L-14.9 -3.25 -14.8 -3.05 Q-13.9 -1.1 -14.7 1.3 -15.45 3.5 -17.2 4.9 L-17.35 5.0 -17.9 5.35 -14.1 5.95 -11.85 5.8 -11.1 8.1 -10.95 8.5 -10.1 10.75 -10.25 10.95 -12.25 8.65 -12.35 8.5 -13.75 6.0 -13.15 8.5 -12.6 10.4 Q-11.85 12.8 -10.85 14.4 L-10.75 14.65 Q-12.05 13.2 -12.95 11.15 L-13.95 8.5 -14.35 7.15 -14.2 8.5 -13.35 12.4 Q-12.45 15.8 -12.7 17.45 L-14.6 13.25 Q-15.75 10.75 -16.05 8.95 -16.25 11.95 -15.35 15.2 -14.8 16.85 -11.05 19.8 -13.75 18.75 -14.9 17.55 L-17.3 14.75 Q-18.55 13.2 -19.45 11.45 L-20.55 9.15 -20.85 8.5 -20.95 8.3 -21.05 7.3 -21.15 4.9 -21.1 4.0 M-24.5 -6.35 L-24.5 -5.05 -23.9 -3.95 Q-23.6 -3.55 -23.0 -3.3 L-22.65 -3.25 Q-21.4 -2.95 -19.6 -3.25 L-18.4 -3.45 Q-19.8 -3.3 -21.35 -4.05 -23.7 -5.25 -24.45 -7.45 L-24.5 -6.35 M-2.65 -11.8 L-2.05 -11.85 -5.85 -11.6 -5.55 -11.25 -2.65 -11.8 M-5.1 -4.2 L-5.9 -5.95 -6.05 -6.25 -5.9 -6.1 -5.05 -5.35 Q-5.0 -4.75 -5.1 -4.2 M0.55 -2.8 L-0.15 -3.3 -0.3 -3.4 -1.6 -4.4 -2.9 -5.35 -3.0 -4.4 -3.1 -4.05 -2.6 -3.9 -1.6 -3.55 -0.3 -3.05 -0.15 -3.0 0.55 -2.8 M-10.5 5.4 L-10.4 5.35 -10.1 6.35 -9.5 8.05 -10.65 6.95 -11.8 5.8 -10.55 5.4 -10.5 5.4" fill="#ffffff" fill-opacity="0.0" fill-rule="evenodd" stroke="none"/>
    <path d="M8.35 -14.35 L9.25 -14.9 10.25 -14.85 11.15 -14.8 Q10.3 -14.5 9.65 -13.9 L8.35 -14.35 M-14.4 -8.85 L-12.3 -10.7 Q-10.9 -11.65 -8.95 -11.45 -7.25 -11.2 -5.9 -10.2 L-5.15 -9.6 Q-3.75 -8.3 -2.95 -6.25 -3.6 -7.8 -5.0 -8.85 L-5.9 -9.35 -8.2 -10.15 -11.85 -9.9 -13.6 -9.2 Q-14.4 -8.8 -15.0 -8.2 L-14.4 -8.85 M-24.5 -6.35 L-24.45 -7.45 Q-23.7 -5.25 -21.35 -4.05 -19.8 -3.3 -18.4 -3.45 L-19.6 -3.25 Q-21.4 -2.95 -22.65 -3.25 L-23.0 -3.3 Q-23.6 -3.55 -23.9 -3.95 L-24.5 -5.05 -24.5 -6.35" fill="#ffffff" fill-opacity="0.2" fill-rule="evenodd" stroke="none"/>
    <path d="M2.9 -6.65 L3.2 -6.5 3.5 -6.3 3.25 -6.45 2.9 -6.65 M-8.7 9.95 L-8.1 10.0 -8.85 10.0 -8.7 9.95" fill="#945c47" fill-rule="evenodd" stroke="none"/>
    <path d="M9.65 -13.9 L11.1 -13.35 11.6 -13.1 13.85 -11.75 14.3 -11.45 15.7 -10.15 15.8 -10.05 16.7 -8.85 M14.8 -13.3 Q12.8 -14.95 10.3 -15.5 7.3 -16.15 5.1 -15.0 L8.35 -14.35 9.65 -13.9 M17.6 -8.4 L17.55 -8.65 Q17.1 -10.85 15.6 -12.45 L14.8 -13.3 M5.1 -15.0 L3.45 -15.15 Q1.5 -15.3 -0.3 -15.1 L-1.6 -14.95 Q-3.75 -14.6 -5.9 -13.85 L-6.15 -13.75 -7.65 -13.15 Q-8.55 -13.8 -9.6 -14.3 L-11.1 -14.85 Q-13.15 -15.6 -15.25 -15.55 L-15.7 -15.5 -16.3 -15.45 -16.85 -15.4 Q-19.55 -14.85 -21.55 -13.05 L-22.3 -12.3 Q-24.65 -9.75 -25.35 -6.35 -26.35 -2.0 -24.15 1.15 L-22.85 2.65 -22.95 2.65 -22.2 3.25 -22.0 3.45 -21.2 3.95 -21.1 4.0 -21.15 4.9 -21.05 7.3 -20.95 8.3 -20.9 8.5 Q-20.6 11.05 -19.4 13.05 -18.2 15.0 -15.6 17.6 -13.05 20.2 -8.7 21.8 -10.25 17.85 -8.35 15.1 -8.1 14.05 -7.55 13.4 -7.05 12.8 -6.5 12.75 -4.15 15.7 -2.55 15.55 -4.0 14.35 -4.05 11.95 L-3.8 8.5 Q-3.3 4.95 -1.6 2.05 -1.05 1.0 -0.3 0.1 L-0.15 -0.1 M-0.15 1.4 L-0.15 2.15" fill="none" stroke="#000000" stroke-linecap="round" stroke-linejoin="round" stroke-opacity="0.6" stroke-width="1.0"/>
    <path d="M-0.15 -0.1 L0.0 -0.3 -0.15 1.4 M-0.15 2.15 L0.25 4.5 Q0.9 3.55 1.3 1.9 2.1 -1.4 1.1 -5.05 L1.7 -4.3 3.15 -2.45 Q5.05 0.8 4.55 3.4 5.25 2.05 5.4 0.05 5.75 -3.85 2.9 -6.65 L3.25 -6.45 M3.9 -5.95 L5.9 -4.15 Q8.85 -0.8 9.0 3.15 9.45 2.0 9.5 0.15 9.55 -3.35 7.55 -6.5 L7.45 -6.65 8.45 -5.7 10.6 -3.25 Q13.35 0.25 13.15 3.15 L13.1 3.35 13.1 3.4 13.05 3.5 M13.15 -3.65 L12.0 -5.45 Q13.55 -3.95 14.4 -2.3 15.6 0.15 15.1 2.6 L15.2 2.5 15.4 2.25 Q16.3 0.95 16.45 -0.55 L16.5 -1.2 16.45 -1.65 16.4 -2.1 15.45 -4.3 16.65 -2.4 Q18.3 0.75 17.5 2.85 18.05 2.1 18.3 0.45 18.9 -2.9 17.45 -7.05 19.15 -5.05 20.35 -1.8 L21.2 1.05 Q22.1 -3.05 20.4 -5.75 19.4 -7.4 17.6 -8.4 L16.7 -8.85 M15.3 -4.5 L15.45 -4.3 M3.5 -6.3 L3.2 -6.5 M3.5 -6.3 L3.55 -6.25 3.75 -6.05 3.9 -5.95 M13.75 -0.3 L13.75 -1.2 13.3 -3.25 13.15 -3.65 M13.6 1.45 L13.7 0.45 13.75 -0.3 M13.6 1.45 L13.55 1.85 13.1 3.4" fill="none" stroke="#000000" stroke-linecap="round" stroke-linejoin="round" stroke-opacity="0.6" stroke-width="1.0"/>
  </g>
</svg>
