<?xml version="1.0" encoding="UTF-8" standalone="no"?>
<svg xmlns:xlink="http://www.w3.org/1999/xlink" height="43.35px" width="46.65px" xmlns="http://www.w3.org/2000/svg">
  <g transform="matrix(1.0, 0.0, 0.0, 1.0, 25.6, 15.25)">
    <path d="M-24.9 0.35 L-24.85 -0.3 -24.55 -0.65 Q-23.45 -1.1 -22.35 -1.85 L-22.7 -1.9 -23.5 -2.3 Q-23.75 -2.4 -23.8 -2.65 L-23.75 -3.15 Q-21.15 -7.7 -14.65 -11.25 L-10.35 -13.3 -8.3 -14.0 -8.25 -14.05 -3.05 -14.6 0.45 -14.15 Q1.9 -13.85 3.4 -13.05 L5.5 -13.45 7.0 -13.55 8.05 -13.6 Q11.65 -13.6 13.9 -12.25 18.3 -9.5 19.75 -5.3 21.25 -1.15 19.3 3.05 L19.0 3.4 18.35 3.45 17.7 3.3 18.3 3.4 Q18.85 2.05 18.65 -0.05 L18.05 -3.5 16.95 -7.5 Q15.85 -10.05 13.85 -10.45 L14.85 -7.95 16.2 -4.85 Q17.5 -0.9 15.75 0.65 15.0 0.1 14.85 -1.0 L14.8 -3.2 14.6 -5.3 Q14.3 -6.4 13.25 -7.0 13.25 -6.0 13.7 -3.65 13.95 -1.45 13.05 -0.5 12.75 -1.3 12.7 -2.65 L12.6 -5.05 Q12.5 -8.0 11.15 -9.45 L11.35 -5.85 Q11.2 -3.55 10.1 -2.55 9.75 -3.1 9.7 -4.45 L9.55 -6.85 Q9.3 -9.7 7.0 -9.95 L6.8 -10.0 5.1 -5.9 Q3.75 -3.45 2.2 -2.15 L0.65 -1.25 -0.85 -0.3 -0.7 -0.05 -0.9 -0.35 -1.05 -1.0 -1.0 -1.35 -0.75 -1.65 1.0 -3.0 Q1.15 -4.65 1.6 -6.3 -1.35 -3.15 -1.65 -0.4 -1.8 0.95 -1.35 1.7 -1.2 2.0 -1.3 2.25 L-1.75 2.7 -2.0 2.75 -2.1 2.5 Q-3.05 0.15 -2.65 -2.7 -2.35 -4.9 -1.2 -7.85 -3.15 -5.35 -3.75 -2.6 L-4.0 0.45 Q-4.25 2.5 -5.0 3.1 -5.1 1.55 -4.65 -1.2 L-4.15 -5.6 -5.3 -2.4 -5.95 0.9 Q-6.4 3.15 -6.25 4.6 L-5.8 6.35 Q-5.45 7.45 -5.7 8.0 -6.3 9.25 -6.65 6.85 L-6.95 3.75 -6.75 0.65 Q-6.55 -1.25 -6.65 -2.35 L-7.65 1.3 Q-8.05 3.45 -7.8 5.1 L-7.15 8.1 Q-6.85 9.85 -7.1 11.15 -8.55 9.95 -8.45 6.0 -8.8 6.95 -8.95 8.35 L-9.05 10.95 -8.95 10.9 -9.8 14.45 -10.05 15.65 -10.3 16.6 -10.6 17.0 Q-10.9 17.25 -11.1 16.3 -11.2 15.65 -10.9 14.1 L-10.6 12.3 -10.55 11.7 -11.45 14.65 Q-12.1 17.25 -12.35 17.15 -13.0 16.95 -12.7 14.35 L-12.1 11.15 -11.2 5.9 -10.6 2.95 Q-10.3 1.1 -10.45 0.0 -11.2 0.35 -11.65 1.75 L-12.1 4.0 Q-12.3 5.2 -12.6 5.65 -13.05 6.2 -13.3 4.9 -13.65 3.25 -13.2 0.9 -12.85 -1.15 -12.0 -2.9 -14.3 -2.0 -14.5 2.15 L-14.5 5.6 Q-14.55 7.5 -14.85 8.5 L-15.35 8.55 -15.8 8.5 Q-16.3 7.15 -15.8 3.85 -15.3 0.5 -15.8 -0.8 -16.45 -0.05 -16.65 1.55 L-16.8 4.15 -17.2 7.75 -17.35 11.25 Q-19.35 11.7 -19.05 10.1 -18.35 8.1 -18.45 7.3 -18.8 7.5 -19.8 9.05 -20.7 10.05 -21.1 8.65 -21.3 7.95 -20.9 7.05 L-20.0 5.55 -19.05 4.05 Q-18.7 3.2 -18.9 2.55 L-20.15 4.0 -21.25 5.6 Q-23.95 5.2 -20.0 0.35 L-16.9 -3.15 Q-15.4 -4.9 -15.45 -5.3 -16.25 -5.1 -17.7 -3.8 L-19.95 -1.9 -21.45 -0.9 -23.0 -0.1 -23.95 0.2 -24.9 0.35 M-20.65 -4.0 L-21.9 -2.15 Q-19.4 -3.95 -17.2 -7.0 -19.05 -5.95 -20.65 -4.0 M-9.15 -0.55 L-8.35 -0.4 Q-8.3 -1.5 -7.85 -3.2 -6.85 -6.55 -4.9 -9.15 L-5.5 -8.6 -6.85 -6.9 Q-8.85 -3.9 -9.15 -0.55 M-9.7 0.7 L-9.95 1.5 -10.4 3.4 Q-10.95 6.7 -10.4 9.6 L-9.7 9.6 -10.15 6.7 Q-10.4 3.3 -9.7 0.7 M-15.65 11.85 Q-15.4 10.4 -14.6 10.25 -14.55 11.3 -15.1 13.65 -15.7 15.9 -15.7 17.15 L-14.9 20.85 Q-14.2 23.2 -14.3 24.5 -15.2 24.45 -16.0 20.85 L-16.7 16.15 -17.15 16.15 Q-18.05 17.7 -17.5 20.3 -16.75 23.5 -16.95 24.6 -18.2 24.55 -18.65 22.15 -19.05 20.3 -18.85 18.95 L-18.7 17.25 Q-18.6 16.1 -18.3 15.6 L-17.3 14.75 -16.25 13.9 Q-16.0 13.65 -15.65 11.85" fill="#ffffff" fill-opacity="0.0" fill-rule="evenodd" stroke="none"/>
    <path d="M-24.9 0.35 L-23.95 0.2 -23.0 -0.1 -21.45 -0.9 -19.95 -1.9 -17.7 -3.8 Q-16.25 -5.1 -15.45 -5.3 -15.4 -4.9 -16.9 -3.15 L-20.0 0.35 Q-23.95 5.2 -21.25 5.6 L-20.15 4.0 -18.9 2.55 Q-18.7 3.2 -19.05 4.05 L-20.0 5.55 -20.9 7.05 Q-21.3 7.95 -21.1 8.65 -20.7 10.05 -19.8 9.05 -18.8 7.5 -18.45 7.3 -18.35 8.1 -19.05 10.1 -19.35 11.7 -17.35 11.25 L-17.2 7.75 -16.8 4.15 -16.65 1.55 Q-16.45 -0.05 -15.8 -0.8 -15.3 0.5 -15.8 3.85 -16.3 7.15 -15.8 8.5 L-15.35 8.55 -14.85 8.5 Q-14.55 7.5 -14.5 5.6 L-14.5 2.15 Q-14.3 -2.0 -12.0 -2.9 -12.85 -1.15 -13.2 0.9 -13.65 3.25 -13.3 4.9 -13.05 6.2 -12.6 5.65 -12.3 5.2 -12.1 4.0 L-11.65 1.75 Q-11.2 0.35 -10.45 0.0 -10.3 1.1 -10.6 2.95 L-11.2 5.9 -12.1 11.15 -12.7 14.35 Q-13.0 16.95 -12.35 17.15 -12.1 17.25 -11.45 14.65 L-10.55 11.7 -10.6 12.3 -10.9 14.1 Q-11.2 15.65 -11.1 16.3 -10.9 17.25 -10.6 17.0 L-10.3 16.6 -10.05 15.65 -9.4 18.3 Q-9.55 18.4 -9.1 20.55 -8.7 22.65 -8.85 25.1 -9.0 27.5 -10.65 25.85 L-10.65 25.9 -10.6 26.15 -10.5 26.45 -10.7 26.9 -11.1 27.1 -11.15 27.1 -12.15 26.9 -12.5 27.15 -13.05 27.25 Q-13.6 27.25 -14.0 26.85 L-14.45 27.2 -15.1 27.2 -15.65 27.45 -16.4 27.45 -16.75 27.35 Q-17.7 26.75 -18.3 25.5 L-17.85 26.5 -17.75 26.8 Q-17.75 27.45 -18.4 27.45 L-18.6 27.45 -18.8 27.35 -19.5 26.7 Q-20.65 24.45 -20.85 21.6 -21.3 15.15 -20.65 13.15 L-20.65 13.1 -21.1 11.1 -21.0 12.25 -21.0 12.35 -21.2 12.85 -21.6 13.0 -22.3 13.0 -22.65 12.9 -22.9 12.5 Q-23.4 10.5 -22.75 7.15 L-23.35 7.15 -23.75 7.0 -23.95 6.6 Q-24.05 5.65 -23.65 4.45 L-23.15 3.1 -21.15 -0.2 -23.15 0.95 -23.75 1.25 Q-24.45 1.35 -24.8 0.85 L-24.9 0.55 -24.95 0.35 -24.9 0.35 -24.9 0.55 -24.9 0.35 M-9.8 14.45 L-8.95 10.9 -9.05 10.95 -8.95 8.35 Q-8.8 6.95 -8.45 6.0 -8.55 9.95 -7.1 11.15 -6.85 9.85 -7.15 8.1 L-7.8 5.1 Q-8.05 3.45 -7.65 1.3 L-6.65 -2.35 Q-6.55 -1.25 -6.75 0.65 L-6.95 3.75 -6.65 6.85 Q-6.3 9.25 -5.7 8.0 -5.45 7.45 -5.8 6.35 L-6.25 4.6 Q-6.4 3.15 -5.95 0.9 L-5.3 -2.4 -4.15 -5.6 -4.65 -1.2 Q-5.1 1.55 -5.0 3.1 -4.25 2.5 -4.0 0.45 L-3.75 -2.6 Q-3.15 -5.35 -1.2 -7.85 -2.35 -4.9 -2.65 -2.7 -3.05 0.15 -2.1 2.5 L-2.0 2.75 -2.3 2.8 -2.75 2.75 -3.0 2.4 -3.35 0.4 Q-4.25 3.95 -3.65 6.75 L-2.85 8.8 Q-2.65 9.1 -2.75 9.4 L-3.2 9.8 -3.75 9.9 -4.3 9.8 -4.75 9.25 -4.8 9.95 -5.25 10.35 -5.35 10.35 -4.75 12.45 -4.7 12.7 -4.9 13.2 -5.3 13.35 Q-5.6 13.35 -6.75 12.55 -7.9 11.75 -9.35 13.75 L-9.8 14.45 M-0.7 -0.05 L-0.85 -0.3 0.65 -1.25 2.2 -2.15 Q3.75 -3.45 5.1 -5.9 L6.8 -10.0 7.0 -9.95 Q9.3 -9.7 9.55 -6.85 L9.7 -4.45 Q9.75 -3.1 10.1 -2.55 11.2 -3.55 11.35 -5.85 L11.15 -9.45 Q12.5 -8.0 12.6 -5.05 L12.7 -2.65 Q12.75 -1.3 13.05 -0.5 13.95 -1.45 13.7 -3.65 13.25 -6.0 13.25 -7.0 14.3 -6.4 14.6 -5.3 L14.8 -3.2 14.85 -1.0 Q15.0 0.1 15.75 0.65 17.5 -0.9 16.2 -4.85 L14.85 -7.95 13.85 -10.45 Q15.85 -10.05 16.95 -7.5 L18.05 -3.5 18.65 -0.05 Q18.85 2.05 18.3 3.4 L17.7 3.3 17.25 3.1 17.15 2.7 17.15 0.8 Q16.95 1.75 16.55 2.3 16.35 2.7 15.85 2.7 L15.05 2.7 Q14.65 2.7 14.4 2.45 14.15 2.15 14.3 1.9 14.8 0.4 14.6 -1.3 L13.95 -1.4 13.85 0.7 13.5 1.1 13.0 1.25 12.35 1.25 Q12.0 1.25 11.75 0.95 11.5 0.75 11.55 0.45 12.0 -1.15 11.5 -3.2 11.35 -1.6 10.8 -0.3 L10.15 0.8 Q9.8 1.15 9.4 1.1 L8.3 0.95 7.75 0.6 Q7.6 0.3 7.8 0.0 9.2 -1.75 9.0 -4.1 8.85 -5.8 8.0 -7.65 L7.0 -6.25 Q5.6 -3.75 2.75 -1.65 L2.55 1.4 2.4 1.8 2.05 2.0 1.55 1.9 1.35 1.55 1.0 -0.45 -0.05 0.1 -0.55 0.1 -0.7 0.0 -0.7 -0.05 M-9.15 -0.55 Q-8.85 -3.9 -6.85 -6.9 L-5.5 -8.6 -4.9 -9.15 Q-6.85 -6.55 -7.85 -3.2 -8.3 -1.5 -8.35 -0.4 L-9.15 -0.55 M-9.7 0.7 Q-10.4 3.3 -10.15 6.7 L-9.7 9.6 -10.4 9.6 Q-10.95 6.7 -10.4 3.4 L-9.95 1.5 -9.7 0.7 M-15.65 11.85 Q-16.0 13.65 -16.25 13.9 L-17.3 14.75 -18.3 15.6 Q-18.6 16.1 -18.7 17.25 L-18.85 18.95 Q-19.05 20.3 -18.65 22.15 -18.2 24.55 -16.95 24.6 -16.75 23.5 -17.5 20.3 -18.05 17.7 -17.15 16.15 L-16.7 16.15 -16.0 20.85 Q-15.2 24.45 -14.3 24.5 -14.2 23.2 -14.9 20.85 L-15.7 17.15 Q-15.7 15.9 -15.1 13.65 -14.55 11.3 -14.6 10.25 -15.4 10.4 -15.65 11.85" fill="#000000" fill-opacity="0.2" fill-rule="evenodd" stroke="none"/>
    <path d="M-2.0 2.75 L-1.75 2.7 -1.3 2.25 Q-1.2 2.0 -1.35 1.7 -1.8 0.95 -1.65 -0.4 -1.35 -3.15 1.6 -6.3 1.15 -4.65 1.0 -3.0 L-0.75 -1.65 -1.0 -1.35 -1.05 -1.0 -0.9 -0.35 -0.7 -0.05 M17.7 3.3 L17.25 3.1 17.15 2.7 17.15 0.8 Q16.95 1.75 16.55 2.3 16.35 2.7 15.85 2.7 L15.05 2.7 Q14.65 2.7 14.4 2.45 14.15 2.15 14.3 1.9 14.8 0.4 14.6 -1.3 L13.95 -1.4 13.85 0.7 13.5 1.1 13.0 1.25 12.35 1.25 Q12.0 1.25 11.75 0.95 11.5 0.75 11.55 0.45 12.0 -1.15 11.5 -3.2 11.35 -1.6 10.8 -0.3 L10.15 0.8 Q9.8 1.15 9.4 1.1 L8.3 0.95 7.75 0.6 Q7.6 0.3 7.8 0.0 9.2 -1.75 9.0 -4.1 8.85 -5.8 8.0 -7.65 L7.0 -6.25 Q5.6 -3.75 2.75 -1.65 L2.55 1.4 2.4 1.8 2.05 2.0 1.55 1.9 1.35 1.55 1.0 -0.45 -0.05 0.1 -0.55 0.1 -0.7 0.0 M-20.65 -4.0 Q-19.05 -5.95 -17.2 -7.0 -19.4 -3.95 -21.9 -2.15 L-20.65 -4.0 M-6.75 12.55 Q-5.6 13.35 -5.3 13.35 L-4.9 13.2 -4.7 12.7 -4.75 12.45 -5.35 10.35 -5.25 10.35 -4.8 9.95 -4.75 9.25 -4.3 9.8 -3.75 9.9 -3.2 9.8 -2.75 9.4 Q-2.65 9.1 -2.85 8.8 L-3.65 6.75 Q-4.25 3.95 -3.35 0.4 L-3.0 2.4 -2.75 2.75 -2.3 2.8 -2.0 2.75 M-24.8 0.85 Q-24.45 1.35 -23.75 1.25 L-23.15 0.95 -21.15 -0.2 -23.15 3.1 -23.65 4.45 Q-24.05 5.65 -23.95 6.6 L-23.75 7.0 -23.35 7.15 -22.75 7.15 Q-23.4 10.5 -22.9 12.5 L-22.65 12.9 -22.3 13.0 -21.6 13.0 -21.2 12.85 -21.0 12.35 -21.0 12.25 -21.1 11.1 -20.65 13.1 M-18.6 27.45 L-18.4 27.45 Q-17.75 27.45 -17.75 26.8 L-17.85 26.5 -18.3 25.5 Q-17.7 26.75 -16.75 27.35 L-16.4 27.45 -15.65 27.45 -15.1 27.2 -14.45 27.2 -14.0 26.85 Q-13.6 27.25 -13.05 27.25 L-12.5 27.15 -12.15 26.9 -11.15 27.1 -11.1 27.1 -10.7 26.9 -10.5 26.45 -10.6 26.15 -10.65 25.9 -10.65 25.85" fill="none" stroke="#000000" stroke-linecap="square" stroke-linejoin="round" stroke-opacity="0.4" stroke-width="1.0"/>
    <path d="M17.7 3.3 L18.35 3.45 19.0 3.4 19.3 3.05 Q21.25 -1.15 19.75 -5.3 18.3 -9.5 13.9 -12.25 11.65 -13.6 8.05 -13.6 L7.0 -13.55 5.5 -13.45 3.4 -13.05 Q1.9 -13.85 0.45 -14.15 L-3.05 -14.6 -8.25 -14.05 -8.3 -14.0 -10.35 -13.3 -14.65 -11.25 Q-21.15 -7.7 -23.75 -3.15 L-23.8 -2.65 Q-23.75 -2.4 -23.5 -2.3 L-22.7 -1.9 -22.35 -1.85 Q-23.45 -1.1 -24.55 -0.65 L-24.85 -0.3 -24.9 0.35 -24.9 0.55 -24.8 0.85 M-10.05 15.65 L-9.8 14.45 -9.35 13.75 Q-7.9 11.75 -6.75 12.55 M-10.65 25.85 Q-9.0 27.5 -8.85 25.1 -8.7 22.65 -9.1 20.55 -9.55 18.4 -9.4 18.3 L-10.05 15.65 M-20.65 13.1 L-20.65 13.15 Q-21.3 15.15 -20.85 21.6 -20.65 24.45 -19.5 26.7 L-18.8 27.35 -18.6 27.45" fill="none" stroke="#000000" stroke-linecap="square" stroke-linejoin="round" stroke-opacity="0.6" stroke-width="1.0"/>
  </g>
</svg>
