<?xml version="1.0" encoding="UTF-8" standalone="no"?>
<svg xmlns:xlink="http://www.w3.org/1999/xlink" height="40.7px" width="45.7px" xmlns="http://www.w3.org/2000/svg">
  <g transform="matrix(1.0, 0.0, 0.0, 1.0, 22.95, 14.55)">
    <path d="M4.8 -6.4 L6.0 -5.05 Q7.45 -3.1 8.8 0.0 10.15 3.1 11.55 4.6 L12.0 5.05 10.75 4.0 Q8.55 2.05 7.75 -0.15 L5.75 -4.55 4.8 -6.4 M3.95 -12.7 L6.55 -12.0 Q-3.4 -14.65 -10.55 -8.35 -12.8 -6.35 -14.5 -3.7 L-15.75 -1.45 Q-11.75 -11.95 -2.2 -13.05 L3.95 -12.7 M-12.0 -1.1 Q-10.25 -3.25 -8.55 -4.0 -12.1 -1.75 -14.4 4.5 -15.55 7.6 -16.0 10.25 -15.6 3.2 -12.0 -1.1" fill="#ffffff" fill-opacity="0.2" fill-rule="evenodd" stroke="none"/>
    <path d="M13.2 6.0 L12.6 5.95 Q8.9 5.95 4.35 0.6 L1.75 -2.55 Q0.7 -3.65 0.45 -2.8 0.05 -1.2 0.05 1.65 L0.15 4.15 -0.85 2.2 Q-1.35 5.75 -1.35 8.95 L-1.3 11.45 -2.45 8.5 Q-3.05 16.6 -1.05 21.55 0.0 24.0 2.15 25.65 -1.3 24.4 -2.95 21.6 -4.25 19.4 -4.75 16.65 L-4.95 17.55 -4.25 13.5 Q-4.5 14.35 -5.1 15.45 L-6.15 17.25 Q-6.25 16.1 -5.8 14.05 L-5.3 10.9 -6.65 12.8 -8.05 14.5 -7.65 12.3 -7.0 10.1 -8.4 11.65 -9.65 13.3 -11.05 14.65 -12.5 15.9 Q-11.45 14.75 -10.65 12.75 L-9.35 9.25 Q-9.9 10.2 -11.0 11.35 L-12.85 13.25 Q-12.2 12.35 -11.85 10.75 L-11.4 8.1 -10.75 5.6 -9.95 3.15 -13.75 7.3 Q-15.9 10.1 -16.15 12.4 L-16.1 7.25 -15.75 5.7 Q-13.9 -1.05 -8.9 -5.1 L-10.55 -4.35 -13.9 -1.75 Q-15.4 -0.15 -16.2 1.85 -17.7 4.5 -18.35 8.0 L-18.35 8.1 Q-18.15 10.9 -17.1 13.55 -18.2 11.0 -18.4 8.2 -18.55 5.75 -18.3 3.4 L-17.65 -0.4 Q-17.05 -2.7 -16.05 -4.7 -16.95 -5.1 -17.65 -6.2 -18.25 -7.15 -19.25 -9.95 L-19.55 -9.65 -19.05 -6.7 Q-18.55 -5.05 -17.6 -4.25 -18.9 -5.1 -19.55 -6.2 -20.25 -7.35 -20.25 -8.8 -18.95 -10.7 -17.05 -11.65 L-14.85 -9.25 -16.05 -10.45 Q-16.8 -11.0 -17.55 -11.35 L-18.15 -10.95 Q-16.55 -9.65 -15.55 -8.0 L-14.9 -6.7 -14.05 -7.9 -12.95 -9.15 -13.25 -9.55 Q-14.4 -11.15 -16.3 -12.0 L-12.85 -12.2 Q-11.8 -11.8 -11.05 -10.8 -9.35 -12.1 -7.25 -12.85 -2.8 -14.55 3.05 -13.8 8.45 -13.1 12.45 -10.65 16.45 -8.25 18.95 -4.25 21.1 -0.75 22.1 3.9 L22.05 3.9 22.05 3.85 21.8 2.75 Q20.7 -1.8 17.85 -3.8 15.55 -5.45 10.4 -6.2 L13.05 -1.7 Q14.65 1.3 15.85 2.7 L16.9 3.8 16.2 3.45 Q11.65 1.25 8.4 -2.95 L8.75 -1.6 Q9.25 0.05 10.05 1.4 L11.6 2.7 Q10.35 1.95 9.75 1.05 L10.95 3.45 Q11.8 4.9 13.2 6.0 M4.8 -6.4 L5.75 -4.55 7.75 -0.15 Q8.55 2.05 10.75 4.0 L12.0 5.05 11.55 4.6 Q10.15 3.1 8.8 0.0 7.45 -3.1 6.0 -5.05 L4.8 -6.4 M3.95 -12.7 L-2.2 -13.05 Q-11.75 -11.95 -15.75 -1.45 L-14.5 -3.7 Q-12.8 -6.35 -10.55 -8.35 -3.4 -14.65 6.55 -12.0 L3.95 -12.7 M-21.8 -6.1 L-20.6 -8.35 -20.45 -8.55 Q-20.65 -6.95 -19.7 -5.0 L-18.0 -1.75 Q-19.55 -2.1 -20.55 -3.45 -21.45 -4.65 -21.7 -6.3 L-21.8 -6.1 M-22.35 -1.55 L-22.35 -3.75 -22.0 -5.5 Q-21.4 -2.55 -18.2 0.95 L-20.15 0.05 -22.35 -1.55 M-12.0 -1.1 Q-15.6 3.2 -16.0 10.25 -15.55 7.6 -14.4 4.5 -12.1 -1.75 -8.55 -4.0 -10.25 -3.25 -12.0 -1.1" fill="#ffffff" fill-opacity="0.0" fill-rule="evenodd" stroke="none"/>
    <path d="M2.15 25.65 Q0.0 24.0 -1.05 21.55 -3.05 16.6 -2.45 8.5 L-1.3 11.45 -1.35 8.95 Q-1.35 5.75 -0.85 2.2 L0.15 4.15 0.05 1.65 Q0.05 -1.2 0.45 -2.8 0.7 -3.65 1.75 -2.55 L4.35 0.6 Q8.9 5.95 12.6 5.95 L13.2 6.0 13.25 6.0 13.35 6.1 10.75 6.1 8.25 5.45 Q7.5 5.0 6.5 4.2 L4.85 2.85 3.05 1.4 1.6 -0.1 Q1.6 3.95 1.75 5.9 1.95 9.05 2.75 11.7 1.7 10.55 1.05 8.8 0.5 7.3 0.3 5.5 L0.35 11.4 Q0.45 15.9 1.15 16.75 -0.45 14.9 -1.0 13.05 -0.8 13.9 -0.75 15.65 L-0.5 18.35 0.15 21.55 Q0.5 23.4 2.15 25.65 M11.6 2.7 L10.05 1.4 Q9.25 0.05 8.75 -1.6 L8.4 -2.95 Q11.65 1.25 16.2 3.45 L16.9 3.8 15.85 2.7 Q14.65 1.3 13.05 -1.7 L10.4 -6.2 Q15.55 -5.45 17.85 -3.8 20.7 -1.8 21.8 2.75 L22.05 3.85 22.05 3.9 Q22.6 7.25 21.8 10.95 L20.75 14.65 19.9 18.3 20.5 13.5 Q20.7 10.6 20.2 8.3 19.8 6.4 18.45 5.1 L18.0 4.75 15.35 4.25 14.9 4.1 13.65 3.7 12.25 3.1 11.6 2.7 M-16.3 -12.0 Q-14.4 -11.15 -13.25 -9.55 L-12.95 -9.15 -14.05 -7.9 -14.9 -6.7 -15.55 -8.0 Q-16.55 -9.65 -18.15 -10.95 L-17.55 -11.35 Q-16.8 -11.0 -16.05 -10.45 L-14.85 -9.25 -17.05 -11.65 -16.95 -11.7 -16.3 -12.0 M-20.25 -8.8 Q-20.25 -7.35 -19.55 -6.2 -18.9 -5.1 -17.6 -4.25 -18.55 -5.05 -19.05 -6.7 L-19.55 -9.65 -19.25 -9.95 Q-18.25 -7.15 -17.65 -6.2 -16.95 -5.1 -16.05 -4.7 -17.05 -2.7 -17.65 -0.4 L-18.3 3.4 -19.0 3.2 -19.7 2.9 Q-20.65 2.35 -21.35 1.35 -22.05 0.25 -22.3 -1.15 L-22.4 -1.6 -22.35 -1.55 -20.15 0.05 -18.2 0.95 Q-21.4 -2.55 -22.0 -5.5 L-22.0 -5.55 -21.85 -5.95 -21.8 -6.1 -21.7 -6.3 Q-21.45 -4.65 -20.55 -3.45 -19.55 -2.1 -18.0 -1.75 L-19.7 -5.0 Q-20.65 -6.95 -20.45 -8.55 L-20.45 -8.6 -20.35 -8.65 -20.25 -8.8 M-17.1 13.55 Q-18.15 10.9 -18.35 8.1 L-18.35 8.0 Q-17.7 4.5 -16.2 1.85 -15.4 -0.15 -13.9 -1.75 L-10.55 -4.35 -8.9 -5.1 Q-13.9 -1.05 -15.75 5.7 L-16.1 7.25 -16.15 12.4 Q-15.9 10.1 -13.75 7.3 L-9.95 3.15 -10.75 5.6 -11.4 8.1 -11.85 10.75 Q-12.2 12.35 -12.85 13.25 L-11.0 11.35 Q-9.9 10.2 -9.35 9.25 L-10.65 12.75 Q-11.45 14.75 -12.5 15.9 L-11.05 14.65 -9.65 13.3 -8.4 11.65 -7.0 10.1 -7.65 12.3 -8.05 14.5 -6.65 12.8 -5.3 10.9 -5.8 14.05 Q-6.25 16.1 -6.15 17.25 L-5.1 15.45 Q-4.5 14.35 -4.25 13.5 L-4.95 17.55 -5.35 19.55 -5.55 21.2 -5.65 21.8 Q-5.95 24.55 -6.15 24.65 L-6.85 24.55 -8.5 23.55 -11.65 21.0 -13.2 19.45 -14.1 18.45 Q-16.05 16.1 -17.1 13.55" fill="#000000" fill-opacity="0.2" fill-rule="evenodd" stroke="none"/>
    <path d="M-22.3 -1.15 Q-22.05 0.25 -21.35 1.35 -20.65 2.35 -19.7 2.9 -21.1 2.15 -21.85 0.5 L-22.3 -1.15" fill="#945c47" fill-rule="evenodd" stroke="none"/>
    <path d="M13.2 6.0 Q11.8 4.9 10.95 3.45 L9.75 1.05 Q10.35 1.95 11.6 2.7 L12.25 3.1 13.65 3.7 14.9 4.1 15.35 4.25 18.0 4.75 18.45 5.1 Q19.8 6.4 20.2 8.3 20.7 10.6 20.5 13.5 L19.9 18.3 20.75 14.65 21.8 10.95 Q22.6 7.25 22.05 3.9 L22.1 3.9 Q21.1 -0.75 18.95 -4.25 16.45 -8.25 12.45 -10.65 8.45 -13.1 3.05 -13.8 -2.8 -14.55 -7.25 -12.85 -9.35 -12.1 -11.05 -10.8 -11.8 -11.8 -12.85 -12.2 L-16.3 -12.0 -16.95 -11.7 -17.05 -11.65 Q-18.95 -10.7 -20.25 -8.8 L-20.35 -8.65 -20.45 -8.6 -20.45 -8.55 -20.6 -8.35 -21.8 -6.1 -21.7 -6.3 M22.05 3.85 L22.05 3.9 M-18.15 -10.95 L-17.55 -11.35 M-19.55 -9.65 L-19.25 -9.95 M-4.95 17.55 L-4.75 16.65 Q-4.25 19.4 -2.95 21.6 -1.3 24.4 2.15 25.65 0.5 23.4 0.15 21.55 L-0.5 18.35 -0.75 15.65 Q-0.8 13.9 -1.0 13.05 M1.15 16.75 Q0.45 15.9 0.35 11.4 L0.3 5.5 M2.75 11.7 Q1.95 9.05 1.75 5.9 1.6 3.95 1.6 -0.1 L3.05 1.4 4.85 2.85 6.5 4.2 Q7.5 5.0 8.25 5.45 L10.75 6.1 13.35 6.1 13.25 6.0 13.2 6.0 M-22.35 -1.55 L-22.4 -1.6 -22.3 -1.15 Q-22.05 0.25 -21.35 1.35 -20.65 2.35 -19.7 2.9 L-19.0 3.2 -18.3 3.4 M-22.0 -5.5 L-22.35 -3.75 -22.35 -1.55 M-22.0 -5.5 L-22.0 -5.55 -21.85 -5.95 -21.8 -6.1 M-17.1 13.55 Q-16.05 16.1 -14.1 18.45 L-13.2 19.45 -11.65 21.0 -8.5 23.55 -6.85 24.55 -6.15 24.65 Q-5.95 24.55 -5.65 21.8 L-5.55 21.2 -5.35 19.55 -4.95 17.55" fill="none" stroke="#000000" stroke-linecap="round" stroke-linejoin="round" stroke-opacity="0.6" stroke-width="1.0"/>
    <path d="M-18.3 3.4 Q-18.55 5.75 -18.4 8.2 -18.2 11.0 -17.1 13.55" fill="none" stroke="#000000" stroke-linecap="square" stroke-linejoin="round" stroke-opacity="0.6" stroke-width="1.0"/>
    <path d="M-1.0 13.05 Q-0.45 14.9 1.15 16.75 M0.3 5.5 Q0.5 7.3 1.05 8.8 1.7 10.55 2.75 11.7" fill="none" stroke="#000000" stroke-linecap="round" stroke-linejoin="round" stroke-opacity="0.6" stroke-width="1.0"/>
  </g>
</svg>
