<?xml version="1.0" encoding="UTF-8" standalone="no"?>
<svg xmlns:xlink="http://www.w3.org/1999/xlink" height="41.25px" width="47.8px" xmlns="http://www.w3.org/2000/svg">
  <g transform="matrix(1.0, 0.0, 0.0, 1.0, 25.25, 15.75)">
    <path d="M-19.2 -8.0 Q-17.85 -10.0 -16.45 -10.75 L-14.75 -11.15 -13.0 -11.35 -11.85 -11.6 -10.9 -12.45 Q-9.55 -13.55 -7.95 -14.05 L-4.65 -14.65 -0.7 -15.0 Q1.9 -15.2 2.8 -15.0 4.4 -14.65 5.8 -13.8 6.0 -13.65 7.75 -13.15 9.55 -12.6 10.15 -12.2 L10.65 -11.85 11.9 -10.95 Q12.7 -10.35 13.25 -10.15 14.1 -9.8 15.7 -9.6 L18.1 -9.15 Q17.3 -8.7 16.55 -8.4 L15.5 -7.95 15.45 -7.95 15.3 -7.85 15.7 -7.85 16.75 -6.7 17.4 -5.3 18.5 -1.95 18.9 0.8 18.95 3.3 18.9 4.0 Q18.75 5.05 18.75 6.6 L18.8 7.2 16.45 5.7 Q14.65 4.45 14.05 3.4 L12.7 0.8 11.75 -1.1 Q11.15 -0.55 10.95 0.8 L10.9 1.05 10.8 3.3 9.9 0.8 8.8 -1.6 7.9 -3.1 Q6.65 -4.85 5.15 -5.6 6.15 -4.4 6.7 -1.2 L6.8 -0.55 Q6.05 -4.3 4.3 -6.5 L3.0 -7.95 2.95 -8.0 2.9 -8.0 2.5 -8.25 1.85 -8.55 2.5 -8.0 2.55 -8.0 2.6 -7.95 Q3.8 -6.4 5.4 -2.1 L6.45 0.8 7.3 3.25 5.55 1.3 5.2 0.8 3.75 -0.85 4.1 0.8 4.25 1.6 4.5 3.95 Q3.75 2.3 2.65 0.8 L2.4 0.5 Q1.15 -1.3 -0.4 -2.7 -0.05 -0.95 0.0 0.8 L0.0 1.05 Q0.1 2.85 -0.25 4.3 L-1.45 1.9 -1.95 4.25 -2.3 6.6 Q-3.1 5.65 -3.45 3.85 L-3.8 0.8 -3.85 0.65 -3.9 0.8 -4.65 3.0 -5.3 5.3 -5.4 7.3 -5.55 9.35 -6.5 6.55 -6.85 3.55 Q-7.25 4.9 -7.25 7.8 -7.25 10.7 -7.6 12.0 L-8.45 9.55 -9.05 7.2 Q-9.05 8.85 -9.4 10.7 L-9.8 12.45 -9.85 12.45 -9.9 12.6 -10.2 13.35 -10.8 14.0 Q-11.2 14.65 -11.05 15.2 L-10.95 15.5 -11.2 16.3 Q-11.7 14.55 -11.8 12.6 L-11.8 12.45 -11.85 10.5 -12.5 12.45 -12.55 12.45 -12.6 12.5 -12.65 12.6 -13.3 13.95 -13.25 15.55 -13.0 17.05 Q-13.7 16.7 -14.3 15.9 L-15.35 14.5 -15.6 15.55 -15.65 16.7 Q-16.65 15.65 -17.1 14.45 L-17.5 12.6 -17.5 12.45 -17.55 11.9 -18.0 12.45 -18.05 12.45 -18.15 12.6 -18.55 13.35 -19.25 14.8 Q-19.7 13.95 -19.8 12.8 L-19.85 12.6 -19.85 12.45 -19.9 11.5 -19.9 6.75 -22.1 8.8 Q-23.15 9.45 -24.45 9.9 -23.45 8.55 -22.5 6.45 L-22.3 6.0 Q-20.95 2.8 -21.65 1.7 L-24.3 3.25 -22.95 0.8 -20.95 -4.45 -19.25 -8.0 -19.2 -8.0 M1.35 -3.55 Q1.55 -5.6 0.25 -7.95 L0.2 -8.0 0.15 -8.0 -0.35 -8.7 Q-2.25 -11.15 -4.0 -11.45 -2.65 -9.95 -1.7 -8.0 L-1.65 -7.95 -1.5 -7.45 -1.9 -7.95 -1.95 -8.0 -2.0 -8.0 -2.7 -8.55 Q-3.5 -9.1 -4.15 -9.1 L-3.9 -8.0 -3.9 -7.95 -3.55 -5.95 Q-3.2 -3.9 -3.35 -2.45 L-4.3 -4.45 -5.4 -6.35 -6.2 -7.75 -6.25 -7.95 -6.3 -8.0 -6.35 -8.0 -6.85 -8.7 -7.0 -8.0 -7.0 -7.95 -7.3 -6.95 -7.7 -5.1 Q-8.05 -6.2 -8.2 -7.95 L-8.2 -8.0 -8.3 -11.15 Q-8.85 -9.55 -8.9 -8.0 L-8.9 -7.95 -8.9 -6.3 Q-8.7 -3.1 -7.0 -1.5 L-7.0 -3.25 -6.85 -4.9 -4.6 -2.0 Q-3.15 -0.2 -2.05 0.35 -1.8 -1.5 -1.8 -3.55 -1.85 -5.7 -2.15 -7.35 L-0.35 -5.55 1.35 -3.55 M11.75 -8.75 L10.6 -9.05 Q11.45 -8.8 12.3 -8.0 L12.35 -8.0 12.4 -7.95 12.45 -7.85 14.05 -5.3 15.6 -1.2 16.2 0.8 17.25 4.9 Q17.45 2.7 17.25 0.8 16.9 -2.8 15.5 -5.3 L14.3 -6.95 13.45 -7.85 13.4 -7.95 13.3 -8.0 13.25 -8.0 11.75 -8.75 M-14.15 -9.7 L-13.4 -10.45 Q-15.0 -9.35 -15.65 -8.35 L-15.8 -8.0 -15.85 -8.0 -15.85 -7.95 Q-16.35 -6.75 -16.55 -4.85 L-16.75 0.8 -16.75 1.45 -16.3 0.8 -15.05 -0.5 -13.1 -2.15 Q-12.4 -3.0 -12.1 -4.6 L-11.5 -7.15 Q-12.0 -6.1 -13.7 -4.45 -15.4 -2.8 -15.75 -1.55 L-15.7 -2.45 Q-15.5 -5.2 -13.8 -7.95 L-13.8 -8.0 -13.75 -8.0 -13.7 -8.1 -11.9 -10.15 Q-13.25 -10.35 -14.15 -9.7 M-15.1 5.15 Q-16.0 6.45 -16.5 8.0 -17.3 10.2 -17.2 12.45 L-17.2 12.6 Q-17.05 14.35 -15.75 16.1 L-15.8 12.75 -15.8 12.6 -15.75 12.55 -15.75 12.45 Q-15.55 7.2 -14.3 4.1 L-15.1 5.15" fill="#ffffff" fill-opacity="0.0" fill-rule="evenodd" stroke="none"/>
    <path d="M7.3 3.25 L6.45 0.8 5.4 -2.1 Q3.8 -6.4 2.6 -7.95 L2.55 -8.0 2.5 -8.0 1.85 -8.55 2.5 -8.25 2.9 -8.0 2.95 -8.0 3.0 -7.95 4.3 -6.5 Q6.05 -4.3 6.8 -0.55 L7.0 0.8 7.3 3.25 M11.75 -8.75 L13.25 -8.0 13.3 -8.0 13.4 -7.95 13.45 -7.85 14.3 -6.95 15.5 -5.3 Q16.9 -2.8 17.25 0.8 17.45 2.7 17.25 4.9 L16.2 0.8 15.6 -1.2 14.05 -5.3 12.45 -7.85 12.4 -7.95 12.35 -8.0 12.3 -8.0 Q11.45 -8.8 10.6 -9.05 L11.75 -8.75 M-15.7 -2.45 L-15.75 -2.2 Q-16.05 -4.45 -15.75 -6.55 L-15.4 -7.95 -15.4 -8.0 Q-14.95 -9.15 -14.15 -9.7 -13.25 -10.35 -11.9 -10.15 L-13.7 -8.1 -13.75 -8.0 -13.8 -8.0 -13.8 -7.95 Q-15.5 -5.2 -15.7 -2.45 M-15.1 5.15 L-14.3 4.1 Q-15.55 7.2 -15.75 12.45 L-15.75 12.55 -15.8 12.6 -15.8 12.75 -15.75 16.1 Q-17.05 14.35 -17.2 12.6 L-17.2 12.45 Q-17.3 10.2 -16.5 8.0 -16.0 6.45 -15.1 5.15" fill="#ffffff" fill-opacity="0.2" fill-rule="evenodd" stroke="none"/>
    <path d="M-24.45 9.9 Q-23.15 9.45 -22.1 8.8 L-19.9 6.75 -19.9 11.5 -19.85 12.45 -19.85 12.6 -19.8 12.8 Q-19.7 13.95 -19.25 14.8 L-18.55 13.35 -18.15 12.6 -18.05 12.45 -18.0 12.45 -17.55 11.9 -17.5 12.45 -17.5 12.6 -17.1 14.45 Q-16.65 15.65 -15.65 16.7 L-15.6 15.55 -15.35 14.5 -14.3 15.9 Q-13.7 16.7 -13.0 17.05 L-13.25 15.55 -13.3 13.95 -12.65 12.6 -12.6 12.5 -12.55 12.45 -12.5 12.45 -11.85 10.5 -11.8 12.45 -11.8 12.6 Q-11.7 14.55 -11.2 16.3 L-10.95 15.5 -11.05 15.2 Q-11.2 14.65 -10.8 14.0 L-10.2 13.35 -9.9 12.6 -9.85 12.45 -9.8 12.45 -9.4 10.7 Q-9.05 8.85 -9.05 7.2 L-8.45 9.55 -7.6 12.0 Q-7.25 10.7 -7.25 7.8 -7.25 4.9 -6.85 3.55 L-6.5 6.55 -5.55 9.35 -5.4 7.3 -5.3 5.3 -4.65 3.0 -3.9 0.8 -3.85 0.65 -3.8 0.8 -3.45 3.85 Q-3.1 5.65 -2.3 6.6 L-1.95 4.25 -1.45 1.9 -0.25 4.3 Q0.1 2.85 0.0 1.05 L0.0 0.8 Q-0.05 -0.95 -0.4 -2.7 1.15 -1.3 2.4 0.5 L2.65 0.8 Q3.75 2.3 4.5 3.95 L4.25 1.6 4.1 0.8 3.75 -0.85 5.2 0.8 5.55 1.3 7.3 3.25 7.0 0.8 6.8 -0.55 6.7 -1.2 Q6.15 -4.4 5.15 -5.6 6.65 -4.85 7.9 -3.1 L8.8 -1.6 9.9 0.8 10.8 3.3 10.9 1.05 10.95 0.8 Q11.15 -0.55 11.75 -1.1 L12.7 0.8 14.05 3.4 Q14.65 4.45 16.45 5.7 L18.8 7.2 19.0 8.05 Q19.25 8.7 19.65 8.85 18.7 8.65 17.5 8.05 L14.85 6.9 Q12.85 6.0 12.15 5.25 L12.75 7.05 13.0 8.05 13.0 8.95 11.95 8.05 11.1 7.3 Q10.0 6.35 9.55 5.3 9.5 5.95 9.8 6.9 L10.1 8.05 10.15 8.45 9.05 8.05 7.9 7.45 7.1 6.9 Q5.5 5.65 5.15 4.05 L4.85 5.8 4.35 7.55 Q4.1 5.75 3.45 4.3 2.6 2.6 1.4 1.9 2.05 5.15 2.3 8.8 L0.4 7.2 -1.3 5.3 -1.0 7.55 -0.45 9.75 Q-1.55 9.45 -2.9 7.8 -4.2 6.3 -4.65 4.95 L-4.45 8.55 Q-4.15 10.35 -3.1 11.75 -4.1 11.45 -5.0 10.65 L-6.55 8.9 Q-5.5 10.55 -5.25 12.45 L-5.2 12.45 Q-5.1 13.65 -7.15 14.85 -9.35 16.05 -7.1 18.4 L-6.7 19.45 -6.45 20.55 -6.5 21.6 Q-6.6 22.3 -7.2 23.25 -7.9 24.2 -8.05 24.85 -8.05 24.7 -8.6 24.45 L-9.95 23.5 -12.75 22.1 -14.95 20.75 Q-16.5 19.65 -15.95 19.05 L-16.35 19.35 -16.7 19.75 -17.2 17.55 Q-17.55 16.2 -18.15 15.55 -18.6 16.15 -18.5 17.3 L-19.75 15.85 -20.85 14.35 Q-21.1 13.75 -21.0 12.8 L-20.95 12.45 -20.85 10.7 -23.0 10.55 -24.6 10.1 -24.45 9.9 M18.95 3.3 L18.9 0.8 18.5 -1.95 17.4 -5.3 16.75 -6.7 16.9 -6.5 17.85 -5.3 18.8 -3.2 20.25 0.95 Q21.15 3.25 21.9 4.35 20.6 4.7 18.95 3.3 M1.35 -3.55 L-0.35 -5.55 -2.15 -7.35 Q-1.85 -5.7 -1.8 -3.55 -1.8 -1.5 -2.05 0.35 -3.15 -0.2 -4.6 -2.0 L-6.85 -4.9 -7.0 -3.25 -7.0 -1.5 Q-8.7 -3.1 -8.9 -6.3 L-8.9 -7.95 -8.9 -8.0 Q-8.85 -9.55 -8.3 -11.15 L-8.2 -8.0 -8.2 -7.95 Q-8.05 -6.2 -7.7 -5.1 L-7.3 -6.95 -7.0 -7.95 -7.0 -8.0 -6.85 -8.7 -6.35 -8.0 -6.3 -8.0 -6.25 -7.95 -6.2 -7.75 -5.4 -6.35 -4.3 -4.45 -3.35 -2.45 Q-3.2 -3.9 -3.55 -5.95 L-3.9 -7.95 -3.9 -8.0 -4.15 -9.1 Q-3.5 -9.1 -2.7 -8.55 L-2.0 -8.0 -1.95 -8.0 -1.9 -7.95 -1.5 -7.45 -1.65 -7.95 -1.7 -8.0 Q-2.65 -9.95 -4.0 -11.45 -2.25 -11.15 -0.35 -8.7 L0.15 -8.0 0.2 -8.0 0.25 -7.95 Q1.55 -5.6 1.35 -3.55 M-15.7 -2.45 L-15.75 -1.55 Q-15.4 -2.8 -13.7 -4.45 -12.0 -6.1 -11.5 -7.15 L-12.1 -4.6 Q-12.4 -3.0 -13.1 -2.15 L-15.05 -0.5 -16.3 0.8 -16.75 1.45 -16.75 0.8 -16.55 -4.85 Q-16.35 -6.75 -15.85 -7.95 L-15.85 -8.0 -15.8 -8.0 -15.65 -8.35 Q-15.0 -9.35 -13.4 -10.45 L-14.15 -9.7 Q-14.95 -9.15 -15.4 -8.0 L-15.4 -7.95 -15.75 -6.55 Q-16.05 -4.45 -15.75 -2.2 L-15.7 -2.45 M-10.2 13.35 L-9.8 13.15 -9.2 12.95 Q-9.7 13.0 -10.2 13.35 M-9.75 17.65 L-9.8 17.55 -10.0 17.3 -9.75 17.65" fill="#000000" fill-opacity="0.2" fill-rule="evenodd" stroke="none"/>
    <path d="M-10.2 13.35 Q-9.7 13.0 -9.2 12.95 L-9.8 13.15 -10.2 13.35 M-9.75 17.65 L-10.0 17.3 -9.8 17.55 -9.75 17.65" fill="#945c47" fill-rule="evenodd" stroke="none"/>
    <path d="M-21.65 1.7 Q-20.95 2.8 -22.3 6.0 L-22.5 6.45 Q-23.45 8.55 -24.45 9.9 L-24.6 10.1 -23.0 10.55 -20.85 10.7 -20.95 12.45 -21.0 12.8 Q-21.1 13.75 -20.85 14.35 L-19.75 15.85 -18.5 17.3 Q-18.6 16.15 -18.15 15.55 -17.55 16.2 -17.2 17.55 L-16.7 19.75 -16.35 19.35 -15.95 19.05 Q-16.5 19.65 -14.95 20.75 L-12.75 22.1 -9.95 23.5 -8.6 24.45 Q-8.05 24.7 -8.05 24.85 -7.9 24.2 -7.2 23.25 -6.6 22.3 -6.5 21.6 L-6.45 20.55 -6.7 19.45 -7.1 18.4 Q-9.35 16.05 -7.15 14.85 -5.1 13.65 -5.2 12.45 M18.8 7.2 L18.75 6.6 Q18.75 5.05 18.9 4.0 L18.95 3.3 Q20.6 4.7 21.9 4.35 21.15 3.25 20.25 0.95 L18.8 -3.2 17.85 -5.3 16.9 -6.5 16.75 -6.7 15.7 -7.85 M-5.25 12.45 Q-5.5 10.55 -6.55 8.9 L-5.0 10.65 Q-4.1 11.45 -3.1 11.75 -4.15 10.35 -4.45 8.55 L-4.65 4.95 Q-4.2 6.3 -2.9 7.8 -1.55 9.45 -0.45 9.75 L-1.0 7.55 -1.3 5.3 0.4 7.2 2.3 8.8 Q2.05 5.15 1.4 1.9 2.6 2.6 3.45 4.3 4.1 5.75 4.35 7.55 L4.85 5.8 5.15 4.05 Q5.5 5.65 7.1 6.9 L7.9 7.45 9.05 8.05 10.15 8.45 10.1 8.05 9.8 6.9 Q9.5 5.95 9.55 5.3 10.0 6.35 11.1 7.3 L11.95 8.05 13.0 8.95 13.0 8.05 12.75 7.05 12.15 5.25 Q12.85 6.0 14.85 6.9 L17.5 8.05 Q18.7 8.65 19.65 8.85 19.25 8.7 19.0 8.05 L18.8 7.2" fill="none" stroke="#000000" stroke-linecap="square" stroke-linejoin="round" stroke-opacity="0.4" stroke-width="1.0"/>
    <path d="M15.5 -7.95 L16.55 -8.4 Q17.3 -8.7 18.1 -9.15 L15.7 -9.6 Q14.1 -9.8 13.25 -10.15 12.7 -10.35 11.9 -10.95 L10.65 -11.85 10.15 -12.2 Q9.55 -12.6 7.75 -13.15 6.0 -13.65 5.8 -13.8 4.4 -14.65 2.8 -15.0 1.9 -15.2 -0.7 -15.0 L-4.65 -14.65 -7.95 -14.05 Q-9.55 -13.55 -10.9 -12.45 L-11.85 -11.6 -13.0 -11.35 -14.75 -11.15 -16.45 -10.75 Q-17.85 -10.0 -19.2 -8.0 M-19.25 -8.0 L-20.95 -4.45 -22.95 0.8 -24.3 3.25 -21.65 1.7 M15.7 -7.85 L15.3 -7.85 15.45 -7.95" fill="none" stroke="#000000" stroke-linecap="square" stroke-linejoin="round" stroke-opacity="0.6" stroke-width="1.0"/>
  </g>
</svg>
