<?xml version="1.0" encoding="UTF-8" standalone="no"?>
<svg xmlns:xlink="http://www.w3.org/1999/xlink" height="55.35px" width="42.1px" xmlns="http://www.w3.org/2000/svg">
  <g transform="matrix(1.0, 0.0, 0.0, 1.0, 20.9, 14.95)">
    <path d="M-15.3 -5.0 L-15.15 -5.4 Q-14.05 -8.15 -12.45 -9.75 -10.2 -12.05 -7.5 -13.15 -4.55 -14.35 -1.25 -14.05 L0.4 -13.7 1.95 -13.55 4.5 -14.1 7.2 -14.25 Q9.75 -13.95 12.8 -12.4 L14.65 -11.3 Q15.8 -10.5 16.05 -9.95 15.45 -10.5 14.85 -10.65 13.45 -11.1 11.6 -7.95 L10.05 -5.0 10.0 -4.9 9.95 -4.9 9.25 -3.45 8.1 -4.9 8.05 -4.9 7.95 -5.0 6.65 -6.35 Q5.0 -8.1 3.55 -7.95 1.9 -7.85 0.25 -6.35 L-1.0 -5.0 -1.1 -4.9 -1.15 -4.9 -2.0 -3.35 Q-3.2 -0.65 -3.35 2.15 -3.55 4.8 -2.85 7.85 -2.55 9.0 -2.65 10.1 L-2.95 12.3 Q-3.4 15.6 -1.4 18.9 L0.45 21.6 2.05 24.25 2.1 24.35 2.25 25.7 Q2.8 30.0 1.75 32.95 L0.95 35.85 1.2 34.75 0.9 32.1 Q0.55 30.4 0.55 28.0 0.55 27.05 0.15 25.6 L-0.45 23.3 Q-0.25 26.45 -2.6 30.85 L-2.45 28.65 -2.15 26.6 Q-2.05 24.3 -3.5 21.2 L-5.55 15.7 Q-6.4 12.75 -6.2 9.95 -5.7 4.2 -7.45 -0.35 -7.05 0.95 -7.0 2.8 L-7.1 6.0 -7.6 8.35 -8.2 10.75 -8.1 13.8 -7.55 16.8 Q-6.95 20.45 -7.85 22.75 -8.0 20.55 -8.3 19.2 -8.65 17.45 -9.35 15.85 L-10.2 13.55 -10.45 11.15 Q-10.95 13.05 -10.95 14.7 L-10.6 18.35 Q-10.1 20.5 -10.45 22.6 -10.7 24.95 -11.85 26.7 L-11.95 23.65 Q-12.1 22.05 -12.7 20.7 L-14.05 17.65 Q-14.55 16.1 -14.15 14.35 L-13.3 11.6 Q-12.75 9.9 -12.7 8.8 -12.4 5.95 -13.3 3.1 L-13.4 6.3 -13.55 8.75 Q-13.65 10.25 -14.05 11.15 -14.15 11.65 -15.0 13.05 -15.55 14.2 -15.7 15.05 -16.0 16.75 -15.1 19.05 -14.05 21.6 -14.05 22.8 -14.05 24.15 -15.0 27.0 -15.85 29.8 -15.85 31.35 -15.8 35.55 -14.25 38.15 L-12.35 39.0 Q-16.3 37.7 -17.55 34.4 -18.3 32.45 -17.85 30.15 L-16.75 25.95 Q-16.45 24.45 -17.35 23.25 L-19.3 21.0 Q-21.0 18.55 -19.65 15.2 L-18.15 12.4 -16.65 9.8 Q-15.8 8.2 -16.45 4.95 L-16.95 2.5 Q-17.1 1.05 -16.75 0.0 L-15.35 -5.0 -15.3 -5.0 M-1.4 -10.6 L-2.45 -10.3 -2.15 -10.8 -2.0 -11.3 -2.65 -11.4 -3.3 -11.4 -3.25 -11.6 -3.2 -11.9 -4.55 -11.95 Q-5.45 -12.05 -5.85 -12.3 L-4.75 -12.75 -3.65 -13.25 -5.55 -12.85 -7.4 -12.35 Q-10.2 -10.95 -10.1 -9.65 -9.65 -9.65 -9.1 -9.95 L-8.3 -10.5 -7.35 -10.95 -6.3 -11.35 -7.05 -10.45 -6.3 -10.55 -5.55 -10.65 -5.8 -10.3 -5.95 -9.9 -5.05 -10.0 -4.15 -10.2 Q-4.2 -10.1 -5.3 -9.15 L-6.2 -8.05 -4.65 -8.7 -3.2 -9.5 -4.5 -8.3 Q-5.2 -7.35 -5.1 -6.65 L-4.05 -6.95 -3.0 -7.5 -3.3 -6.95 -3.55 -6.35 Q-3.05 -6.25 -2.0 -7.25 L-0.55 -8.6 0.9 -9.4 2.45 -10.1 0.15 -9.9 -2.05 -8.9 -1.05 -9.85 Q-0.35 -10.45 -0.3 -10.8 L-1.4 -10.6" fill="#ffffff" fill-opacity="0.0" fill-rule="evenodd" stroke="none"/>
    <path d="M2.1 24.35 L2.05 24.25 0.45 21.6 -1.4 18.9 Q-3.4 15.6 -2.95 12.3 L-2.65 10.1 Q-2.55 9.0 -2.85 7.85 -3.55 4.8 -3.35 2.15 -3.2 -0.65 -2.0 -3.35 L-1.15 -4.9 -1.1 -4.9 -1.0 -5.0 0.25 -6.35 Q1.9 -7.85 3.55 -7.95 5.0 -8.1 6.65 -6.35 L7.95 -5.0 8.05 -4.9 8.1 -4.9 9.25 -3.45 9.95 -4.9 10.0 -4.9 10.05 -5.0 11.6 -7.95 Q13.45 -11.1 14.85 -10.65 15.45 -10.5 16.05 -9.95 L17.3 -8.7 18.95 -6.2 19.65 -5.0 19.7 -5.0 20.35 -2.4 Q20.65 -0.45 20.55 2.05 L20.1 4.6 Q19.7 6.3 19.75 7.2 L20.0 9.2 20.2 11.35 Q20.2 13.75 19.5 17.0 L18.05 22.45 18.15 21.1 18.15 19.8 17.9 15.45 17.7 11.05 17.7 7.25 17.5 3.6 17.05 2.25 Q16.45 1.45 15.9 0.1 15.4 -1.1 14.6 -1.65 L14.1 -1.9 11.7 -1.2 11.45 -1.05 11.25 -0.8 10.55 -1.5 8.6 -1.9 7.0 -1.7 Q6.2 -1.35 5.5 0.35 L4.0 2.45 Q2.5 4.95 2.45 6.75 L1.6 15.6 Q1.2 20.2 1.8 23.2 L2.0 23.95 2.1 24.4 2.1 24.35 M-1.4 -10.6 L-0.3 -10.8 Q-0.35 -10.45 -1.05 -9.85 L-2.05 -8.9 0.15 -9.9 2.45 -10.1 0.9 -9.4 -0.55 -8.6 -2.0 -7.25 Q-3.05 -6.25 -3.55 -6.35 L-3.3 -6.95 -3.0 -7.5 -4.05 -6.95 -5.1 -6.65 Q-5.2 -7.35 -4.5 -8.3 L-3.2 -9.5 -4.65 -8.7 -6.2 -8.05 -5.3 -9.15 Q-4.2 -10.1 -4.15 -10.2 L-5.05 -10.0 -5.95 -9.9 -5.8 -10.3 -5.55 -10.65 -6.3 -10.55 -7.05 -10.45 -6.3 -11.35 -7.35 -10.95 -8.3 -10.5 -9.1 -9.95 Q-9.65 -9.65 -10.1 -9.65 -10.2 -10.95 -7.4 -12.35 L-5.55 -12.85 -3.65 -13.25 -4.75 -12.75 -5.85 -12.3 Q-5.45 -12.05 -4.55 -11.95 L-3.2 -11.9 -3.25 -11.6 -3.3 -11.4 -2.65 -11.4 -2.0 -11.3 -2.15 -10.8 -2.45 -10.3 -1.4 -10.6" fill="#ffffff" fill-opacity="0.2" fill-rule="evenodd" stroke="none"/>
    <path d="M15.9 0.1 L15.9 0.2 Q15.35 -1.1 14.6 -1.65 15.4 -1.1 15.9 0.1 M11.25 -0.8 L10.8 -1.2 10.55 -1.5 11.25 -0.8" fill="#945c47" fill-rule="evenodd" stroke="none"/>
    <path d="M-12.35 39.0 L-14.25 38.15 Q-15.8 35.55 -15.85 31.35 -15.85 29.8 -15.0 27.0 -14.05 24.15 -14.05 22.8 -14.05 21.6 -15.1 19.05 -16.0 16.75 -15.7 15.05 -15.55 14.2 -15.0 13.05 -14.15 11.65 -14.05 11.15 -13.65 10.25 -13.55 8.75 L-13.4 6.3 -13.3 3.1 Q-12.4 5.95 -12.7 8.8 -12.75 9.9 -13.3 11.6 L-14.15 14.35 Q-14.55 16.1 -14.05 17.65 L-12.7 20.7 Q-12.1 22.05 -11.95 23.65 L-11.85 26.7 Q-10.7 24.95 -10.45 22.6 -10.1 20.5 -10.6 18.35 L-10.95 14.7 Q-10.95 13.05 -10.45 11.15 L-10.2 13.55 -9.35 15.85 Q-8.65 17.45 -8.3 19.2 -8.0 20.55 -7.85 22.75 -6.95 20.45 -7.55 16.8 L-8.1 13.8 -8.2 10.75 -7.6 8.35 -7.1 6.0 -7.0 2.8 Q-7.05 0.95 -7.45 -0.35 -5.7 4.2 -6.2 9.95 -6.4 12.75 -5.55 15.7 L-3.5 21.2 Q-2.05 24.3 -2.15 26.6 L-2.45 28.65 -2.6 30.85 Q-0.25 26.45 -0.45 23.3 L0.15 25.6 Q0.55 27.05 0.55 28.0 0.55 30.4 0.9 32.1 L1.2 34.75 0.95 35.85 0.85 36.7 0.85 38.85 Q-1.7 37.5 -0.75 33.3 L-2.35 34.85 -4.0 36.05 Q-5.85 37.5 -5.65 39.75 -6.45 37.95 -6.3 35.95 -6.2 34.65 -5.5 32.4 L-4.5 28.7 Q-4.2 26.65 -4.7 24.9 L-5.55 28.15 Q-5.9 30.25 -6.45 31.4 -7.5 33.6 -7.8 35.45 -8.15 37.55 -7.45 39.65 -8.1 38.7 -9.3 37.45 L-11.0 35.5 Q-12.75 33.2 -12.15 30.3 -13.25 32.6 -13.25 34.65 -13.3 36.65 -12.35 39.0" fill="#000000" fill-opacity="0.2" fill-rule="evenodd" stroke="none"/>
    <path d="M16.05 -9.95 Q15.8 -10.5 14.65 -11.3 L12.8 -12.4 Q9.75 -13.95 7.2 -14.25 L4.5 -14.1 1.95 -13.55 0.4 -13.7 -1.25 -14.05 Q-4.55 -14.35 -7.5 -13.15 -10.2 -12.05 -12.45 -9.75 -14.05 -8.15 -15.15 -5.4 L-15.3 -5.0 M-15.35 -5.0 L-16.75 0.0 Q-17.1 1.05 -16.95 2.5 L-16.45 4.95 Q-15.8 8.2 -16.65 9.8 L-18.15 12.4 -19.65 15.2 Q-21.0 18.55 -19.3 21.0 L-17.35 23.25 Q-16.45 24.45 -16.75 25.95 L-17.85 30.15 Q-18.3 32.45 -17.55 34.4 -16.3 37.7 -12.35 39.0 -13.3 36.65 -13.25 34.65 -13.25 32.6 -12.15 30.3 -12.75 33.2 -11.0 35.5 L-9.3 37.45 Q-8.1 38.7 -7.45 39.65 -8.15 37.55 -7.8 35.45 -7.5 33.6 -6.45 31.4 -5.9 30.25 -5.55 28.15 L-4.7 24.9 Q-4.2 26.65 -4.5 28.7 L-5.5 32.4 Q-6.2 34.65 -6.3 35.95 -6.45 37.95 -5.65 39.75 -5.85 37.5 -4.0 36.05 L-2.35 34.85 -0.75 33.3 Q-1.7 37.5 0.85 38.85 L0.85 36.7 0.95 35.85 1.75 32.95 Q2.8 30.0 2.25 25.7 L2.1 24.35 2.05 24.25 M16.05 -9.95 L17.3 -8.7 18.95 -6.2 19.65 -5.0 M19.7 -5.0 L20.35 -2.4 Q20.65 -0.45 20.55 2.05 L20.1 4.6 Q19.7 6.3 19.75 7.2 L20.0 9.2 20.2 11.35 Q20.2 13.75 19.5 17.0 L18.05 22.45 18.15 21.1 18.15 19.8 17.9 15.45 17.7 11.05 17.7 7.25 17.5 3.6 17.05 2.25 Q16.45 1.45 15.9 0.1 15.4 -1.1 14.6 -1.65 L14.1 -1.9 11.7 -1.2 11.45 -1.05 11.25 -0.8 10.55 -1.5 8.6 -1.9 7.0 -1.7 Q6.2 -1.35 5.5 0.35 L4.0 2.45 Q2.5 4.95 2.45 6.75 L1.6 15.6 Q1.2 20.2 1.8 23.2 L2.0 23.95 2.1 24.4 2.1 24.35" fill="none" stroke="#000000" stroke-linecap="square" stroke-linejoin="round" stroke-opacity="0.6" stroke-width="1.0"/>
  </g>
</svg>
