<?xml version="1.0" encoding="UTF-8" standalone="no"?>
<svg xmlns:xlink="http://www.w3.org/1999/xlink" height="65.55px" width="41.6px" xmlns="http://www.w3.org/2000/svg">
  <g transform="matrix(1.0, 0.0, 0.0, 1.0, 21.4, 17.1)">
    <path d="M-17.05 39.05 L-16.95 38.85 Q-16.6 38.45 -16.5 37.9 -16.4 37.25 -16.7 36.75 L-17.1 36.0 -16.8 35.0 -16.35 34.15 Q-16.25 33.6 -16.75 32.3 L-17.2 30.4 Q-17.2 29.9 -16.6 29.35 -16.05 28.75 -16.05 28.25 -16.0 27.6 -16.45 26.5 L-16.8 24.7 -16.3 23.15 Q-16.0 22.3 -16.15 21.4 L-16.45 20.7 -16.7 20.05 -16.45 19.25 -16.15 18.5 Q-15.95 17.5 -16.15 16.8 L-16.75 15.35 Q-16.05 14.2 -16.05 13.5 -16.0 13.05 -16.25 12.55 L-16.55 11.65 -16.3 10.0 Q-16.0 9.05 -16.15 8.35 L-16.15 8.3 -16.2 8.25 -16.75 7.25 Q-17.1 6.65 -17.05 6.1 L-16.95 5.3 -16.95 5.15 Q-16.65 4.3 -15.9 3.6 -15.45 3.15 -15.5 2.45 L-15.85 1.2 -16.2 -0.1 Q-16.2 -0.8 -15.7 -1.3 L-14.6 -2.25 Q-14.05 -2.8 -14.15 -3.6 -14.3 -5.15 -14.1 -6.0 -13.8 -7.2 -12.7 -7.95 L-13.85 -7.2 -14.8 -6.3 Q-15.05 -5.75 -14.8 -4.95 L-14.55 -3.65 Q-14.6 -2.95 -15.5 -2.25 -16.45 -1.5 -16.6 -0.8 L-16.35 1.15 Q-16.1 2.35 -16.45 3.05 L-16.85 3.65 -17.25 4.25 Q-17.7 5.0 -17.65 5.85 L-17.5 6.55 -17.45 6.8 -17.05 7.5 -16.7 8.3 -16.7 8.35 Q-16.55 9.1 -17.0 10.05 L-17.4 11.65 -17.1 12.55 -16.9 13.5 Q-16.9 14.2 -17.6 15.35 L-17.0 16.8 Q-16.8 17.5 -17.0 18.5 L-17.3 19.25 -17.55 20.05 -17.3 20.7 -17.0 21.4 Q-16.85 22.3 -17.15 23.15 L-17.65 24.7 -17.3 26.5 Q-16.85 27.6 -16.9 28.25 -16.9 28.75 -17.4 29.25 L-17.95 30.35 -17.5 32.25 Q-17.1 33.6 -17.2 34.15 L-17.6 34.95 -17.95 35.85 -17.9 36.25 -17.5 36.85 Q-17.3 37.35 -17.35 37.9 L-17.6 38.55 -19.15 38.65 -19.15 38.7 -19.2 38.65 -19.7 37.85 Q-19.85 37.25 -19.45 36.8 L-18.9 36.15 -18.95 35.35 -19.5 34.75 -19.95 34.05 Q-20.1 33.55 -19.65 32.35 -19.15 31.05 -19.2 30.55 -19.25 30.1 -19.8 29.4 L-20.4 28.2 Q-20.45 27.55 -19.95 26.65 L-19.3 25.25 -19.3 24.5 -20.05 23.05 Q-20.5 22.15 -20.25 21.35 L-19.75 20.65 -19.45 19.95 -19.75 19.15 -20.25 18.4 Q-20.5 17.45 -20.25 16.75 L-19.4 15.3 -20.05 14.4 -20.4 13.45 Q-20.45 12.95 -20.1 12.45 L-19.65 11.6 Q-19.55 11.0 -20.25 9.95 -20.85 9.1 -20.75 8.35 L-20.75 8.2 -20.15 7.45 -19.6 6.75 Q-19.5 6.35 -19.75 6.0 L-20.1 5.3 Q-20.1 2.85 -19.4 -0.55 -18.9 -2.95 -18.3 -3.65 L-17.15 -6.05 Q-15.35 -9.15 -11.85 -11.95 -6.35 -16.35 0.15 -16.45 3.8 -16.55 7.4 -15.25 L9.1 -14.8 10.65 -14.05 Q13.2 -13.05 15.55 -10.25 20.25 -4.75 19.45 4.05 L17.9 4.05 Q17.85 1.25 17.15 -2.65 17.6 0.45 17.45 4.05 L16.45 4.1 Q17.6 -3.6 13.2 -10.45 14.0 -9.15 14.8 -6.8 16.45 -1.8 16.3 4.1 L12.35 4.4 Q12.3 2.35 11.4 -2.1 L11.4 4.5 9.85 4.7 5.25 5.05 5.8 4.9 Q5.95 -3.4 6.55 -7.1 3.95 -1.05 3.95 2.45 3.55 0.65 3.75 -2.05 4.2 -7.4 7.3 -11.95 5.8 -11.15 4.2 -8.35 1.6 -3.8 0.55 3.6 L0.9 5.8 0.75 6.5 0.6 7.25 1.1 8.3 1.15 8.35 1.2 8.7 0.95 10.45 Q0.6 11.55 0.65 12.15 L0.85 13.0 1.05 14.0 Q1.05 14.7 0.5 15.85 L0.95 17.3 0.95 18.9 0.7 19.7 0.55 20.5 0.7 21.2 0.95 21.9 Q1.1 22.75 0.85 23.65 L0.45 25.2 Q0.4 25.9 0.75 27.0 L1.05 28.75 0.65 29.75 Q0.25 30.3 0.25 30.8 L0.55 32.75 0.8 34.65 0.5 35.45 Q0.25 35.9 0.25 36.3 L0.3 36.7 0.55 37.35 0.7 38.4 0.55 39.05 -0.7 39.15 -0.7 39.2 -0.8 39.1 -0.8 39.25 -0.85 39.3 -1.0 38.9 -1.35 38.15 Q-1.4 37.6 -1.05 37.2 L-0.8 36.8 -0.8 37.1 -0.5 36.65 -0.55 35.85 -0.65 35.65 -1.0 34.5 Q-1.55 33.05 -1.5 32.6 -1.45 32.05 -0.9 31.5 L-0.85 31.45 -0.85 31.95 -0.75 31.35 Q-0.35 30.85 -0.3 30.4 -0.3 29.75 -0.75 28.7 L-1.1 26.9 -0.6 25.3 Q-0.25 24.45 -0.45 23.6 L-0.75 22.9 -1.0 22.15 -0.75 21.35 -0.45 20.6 Q-0.25 19.7 -0.45 19.0 L-1.0 17.5 -0.6 16.65 -0.3 15.65 Q-0.3 15.2 -0.55 14.7 L-0.85 13.85 -0.55 12.15 Q-0.3 11.05 -0.5 10.35 L-1.05 9.2 -1.2 8.95 -1.25 8.35 -1.25 8.3 -1.25 7.5 Q-1.1 6.5 -0.3 5.5 0.15 4.9 0.0 4.15 L-0.55 2.75 -1.05 1.3 Q-1.15 0.5 -0.7 -0.1 L0.4 -1.35 Q0.9 -2.05 0.75 -2.9 0.4 -4.65 0.5 -5.65 0.65 -7.1 1.7 -8.05 L0.6 -7.1 -0.3 -5.9 Q-0.5 -5.3 -0.15 -4.4 L0.25 -2.95 Q0.3 -2.15 -0.6 -1.25 -1.5 -0.25 -1.55 0.55 L-1.1 2.7 Q-0.65 4.05 -0.95 4.95 L-1.3 5.65 -1.65 6.35 Q-2.05 7.25 -1.85 8.25 L-1.8 8.3 -1.8 8.35 -1.75 8.55 -1.75 8.8 -1.35 9.55 -0.95 10.35 Q-0.85 11.15 -1.3 12.15 L-1.7 13.85 -1.4 14.7 Q-1.15 15.2 -1.2 15.65 L-1.45 16.65 -1.85 17.5 -1.3 19.0 Q-1.1 19.7 -1.3 20.6 L-1.6 21.35 -1.85 22.15 -1.6 22.9 -1.3 23.6 Q-1.15 24.45 -1.45 25.3 L-1.95 26.9 -1.6 28.7 Q-1.15 29.75 -1.2 30.4 -1.2 30.9 -1.7 31.45 L-2.2 32.45 -1.8 34.4 Q-1.4 35.8 -1.5 36.3 L-1.9 37.15 -2.2 38.0 -2.2 38.4 -1.8 39.05 Q-1.55 39.45 -1.65 40.05 L-1.85 40.7 -3.45 40.8 -3.5 40.75 -3.55 40.7 -4.0 40.0 Q-4.1 39.4 -3.75 38.9 L-3.5 38.65 -3.2 38.25 -3.25 37.5 -3.45 37.25 -3.6 37.15 -3.8 36.65 -4.15 35.9 Q-4.2 35.4 -3.85 34.9 L-3.45 34.05 -3.5 33.1 -3.5 32.7 -4.0 31.6 -4.3 30.3 -3.7 29.2 Q-3.15 28.6 -3.1 28.15 -3.1 27.5 -3.55 26.4 L-3.9 24.6 -3.4 23.05 Q-3.05 22.15 -3.25 21.3 L-3.55 20.6 -3.8 19.95 -3.55 19.15 -3.25 18.4 Q-3.05 17.4 -3.25 16.7 L-3.8 15.25 Q-3.15 14.1 -3.1 13.4 L-3.35 12.4 -3.65 11.55 -3.35 9.85 Q-3.15 9.0 -3.25 8.35 L-3.25 8.3 -3.3 8.15 -3.65 7.45 Q-3.9 6.65 -3.75 5.85 -3.6 4.85 -2.8 3.85 -2.35 3.25 -2.5 2.5 L-3.05 1.1 -3.55 -0.35 Q-3.65 -1.15 -3.2 -1.75 L-2.1 -3.0 Q-1.6 -3.7 -1.8 -4.55 -2.1 -6.3 -2.0 -7.3 -1.85 -8.7 -0.8 -9.65 L-1.9 -8.75 -2.8 -7.55 Q-3.0 -6.95 -2.7 -6.05 L-2.25 -4.6 Q-2.2 -3.8 -3.1 -2.9 -4.0 -1.9 -4.05 -1.1 L-3.6 1.05 Q-3.2 2.4 -3.45 3.3 L-3.8 4.0 -4.2 4.7 -4.4 5.8 -4.5 5.95 -4.55 6.7 -4.15 7.4 -3.75 8.2 -3.7 8.3 -3.7 8.35 Q-3.7 9.05 -4.1 9.95 L-4.5 11.55 -4.2 12.4 Q-3.95 12.95 -4.0 13.4 -4.0 14.1 -4.65 15.25 L-4.1 16.7 Q-3.9 17.4 -4.1 18.4 L-4.4 19.15 -4.65 19.95 -4.4 20.6 -4.1 21.3 Q-3.95 22.15 -4.25 23.05 L-4.75 24.6 -4.4 26.4 Q-3.95 27.5 -4.0 28.15 -4.0 28.6 -4.5 29.15 -5.0 29.7 -5.0 30.25 L-4.6 32.15 Q-4.2 33.5 -4.3 34.05 L-4.7 34.85 -5.0 35.7 -5.0 36.15 -4.6 36.75 Q-4.35 37.25 -4.45 37.8 L-4.65 38.45 -6.25 38.55 -6.5 38.8 Q-6.7 39.1 -6.4 39.4 L-6.3 39.45 -6.45 41.8 -6.5 41.8 -6.5 42.3 -6.6 43.55 -6.6 42.25 -6.6 41.9 Q-6.55 41.75 -6.65 41.65 L-6.7 39.35 -6.6 38.9 -6.45 38.7 -6.05 37.8 Q-5.95 37.15 -6.25 36.6 L-6.6 35.9 Q-6.65 35.35 -6.3 34.85 L-5.9 34.0 Q-5.8 33.5 -6.25 32.15 -6.8 30.75 -6.75 30.25 -6.7 29.75 -6.15 29.15 -5.6 28.6 -5.55 28.15 L-5.95 26.35 Q-6.4 25.3 -6.3 24.55 L-5.85 23.05 Q-5.5 22.1 -5.7 21.3 L-6.0 20.6 -6.25 19.9 -6.0 19.1 -5.7 18.35 Q-5.5 17.35 -5.65 16.65 L-6.25 15.25 -5.85 14.35 -5.55 13.35 -5.8 12.35 -6.1 11.55 -5.8 9.8 Q-5.6 9.0 -5.7 8.35 L-5.7 8.3 -5.75 8.15 -6.3 7.1 Q-6.65 6.5 -6.6 5.95 L-6.5 5.3 -5.65 3.8 Q-5.25 3.3 -5.4 2.65 -5.45 2.25 -5.85 1.4 L-6.35 0.15 Q-6.45 -0.55 -6.0 -1.1 L-5.0 -2.15 Q-4.5 -2.75 -4.65 -3.55 -4.95 -5.05 -4.85 -5.9 -4.7 -7.15 -3.7 -8.0 L-4.75 -7.15 -5.6 -6.15 Q-5.8 -5.6 -5.5 -4.85 L-5.1 -3.55 Q-5.1 -2.9 -5.9 -2.05 -6.75 -1.2 -6.8 -0.5 L-6.4 1.4 Q-6.0 2.55 -6.25 3.35 L-6.6 3.95 -6.95 4.6 Q-7.3 5.35 -7.15 6.25 L-6.7 7.2 -6.6 7.35 Q-6.25 7.8 -6.2 8.15 L-6.15 8.3 -6.15 8.35 -6.55 9.85 -6.95 11.55 -6.65 12.35 Q-6.4 12.9 -6.45 13.35 -6.45 13.85 -6.7 14.35 L-7.1 15.25 -6.55 16.65 Q-6.35 17.35 -6.55 18.35 L-6.85 19.1 -7.1 19.9 -6.85 20.6 -6.55 21.3 Q-6.4 22.1 -6.7 23.05 L-7.2 24.55 -6.85 26.35 Q-6.4 27.45 -6.45 28.15 -6.45 28.6 -6.95 29.15 -7.45 29.7 -7.45 30.2 L-7.05 32.1 Q-6.65 33.5 -6.75 34.0 L-7.15 34.8 -7.45 35.65 -7.4 36.1 -7.05 36.75 Q-6.8 37.2 -6.9 37.8 L-7.1 38.45 -8.7 38.5 -8.7 38.55 -8.75 38.5 -9.1 38.0 -9.25 37.45 Q-9.3 37.0 -9.0 36.65 L-8.5 36.1 -8.45 36.0 -8.5 35.25 -9.0 34.6 -9.3 32.9 -9.35 32.75 -9.2 32.2 Q-8.7 30.9 -8.75 30.4 L-9.0 29.7 -8.75 28.9 Q-8.75 28.2 -9.05 27.1 L-9.3 26.2 -8.85 25.15 -8.85 24.85 -8.85 24.25 -9.0 23.95 -8.95 23.8 Q-8.7 22.95 -8.85 22.05 L-9.1 21.35 -9.25 20.65 -9.1 19.85 -8.85 19.1 Q-8.7 18.15 -8.85 17.4 L-9.3 16.0 -8.75 14.15 -8.95 13.2 -9.15 12.3 -9.0 10.85 -8.8 9.45 -9.05 8.35 -9.1 8.3 -9.15 8.25 -9.75 7.2 -9.8 6.95 -9.85 7.4 -9.55 8.05 -9.4 8.3 -9.35 8.35 -9.25 8.85 Q-9.15 9.6 -9.5 10.65 -9.85 11.7 -9.8 12.3 L-9.6 13.2 -9.4 14.15 Q-9.45 14.85 -9.95 16.0 L-9.5 17.4 Q-9.35 18.15 -9.5 19.1 L-9.75 19.85 -9.95 20.65 -9.75 21.35 -9.5 22.05 Q-9.4 22.95 -9.65 23.8 L-10.0 25.35 -9.75 27.1 Q-9.4 28.2 -9.4 28.9 -9.45 29.4 -9.8 29.9 -10.2 30.45 -10.2 30.95 L-9.9 32.9 Q-9.6 34.25 -9.65 34.75 L-9.95 35.55 -10.25 36.45 -10.2 36.85 -9.9 37.5 Q-9.7 37.95 -9.8 38.55 L-9.95 39.2 -11.15 39.25 -11.15 39.3 -11.2 39.25 -11.45 38.85 -11.6 38.45 -11.5 37.6 -11.55 37.3 -11.35 37.0 -11.35 37.35 -11.0 36.75 -11.05 36.0 -11.1 35.85 -11.5 34.6 -11.75 33.9 -11.7 33.6 -11.75 32.1 -11.4 31.6 Q-10.8 31.05 -10.8 30.55 -10.75 29.85 -11.2 28.8 L-11.55 27.05 -11.05 25.5 Q-10.75 24.6 -10.9 23.75 L-11.2 23.05 -11.45 22.35 -11.2 21.5 -10.9 20.75 Q-10.7 19.85 -10.9 19.1 L-11.5 17.7 Q-10.8 16.5 -10.8 15.85 -10.75 15.35 -11.0 14.85 L-11.3 14.0 -11.05 12.25 Q-10.75 11.25 -10.95 10.5 L-11.5 9.4 -11.8 8.35 -11.8 8.3 -11.8 8.25 -11.7 7.45 -11.7 7.25 -11.25 7.55 Q-11.8 6.6 -11.6 5.6 -11.45 4.7 -10.7 3.8 -10.25 3.3 -10.4 2.65 L-10.9 1.4 -11.35 0.15 Q-11.45 -0.55 -11.0 -1.1 L-10.0 -2.15 Q-9.5 -2.75 -9.7 -3.55 -10.0 -5.05 -9.9 -5.9 -9.75 -7.15 -8.75 -8.0 L-9.8 -7.15 -10.6 -6.15 Q-10.8 -5.6 -10.5 -4.85 L-10.1 -3.55 Q-10.1 -2.9 -10.9 -2.05 -11.75 -1.2 -11.8 -0.5 L-11.4 1.4 Q-11.05 2.55 -11.3 3.35 L-11.6 3.95 -11.95 4.6 Q-12.3 5.35 -12.15 6.25 L-11.75 7.15 -11.85 7.5 -12.15 8.2 -12.2 8.3 -12.2 8.35 -12.2 8.95 -11.8 9.65 -11.45 10.5 Q-11.35 11.3 -11.75 12.3 L-12.15 14.0 -11.85 14.85 -11.65 15.85 Q-11.7 16.5 -12.35 17.7 L-11.75 19.1 Q-11.6 19.85 -11.75 20.75 L-12.1 21.5 -12.3 22.35 -12.1 23.05 -11.75 23.75 Q-11.6 24.6 -11.9 25.5 L-12.4 27.05 Q-12.5 27.75 -12.05 28.8 -11.6 29.85 -11.65 30.55 -11.65 31.05 -12.15 31.6 L-12.7 32.65 -12.3 34.6 Q-11.85 35.95 -11.95 36.45 L-12.35 37.25 -12.7 38.1 -12.65 38.55 -12.25 39.2 Q-12.05 39.65 -12.15 40.2 L-12.3 40.85 -13.9 40.95 -13.95 41.0 -14.0 40.95 -14.1 40.8 -14.45 40.1 Q-14.6 39.5 -14.25 39.1 L-13.7 38.5 -13.65 38.45 -13.75 37.65 -14.05 37.25 -14.25 36.8 -14.65 36.05 -14.35 35.05 -13.9 34.2 -14.0 33.25 -14.0 32.85 -14.25 32.15 -14.25 32.4 -14.3 32.35 -14.75 30.45 Q-14.75 30.0 -14.2 29.4 -13.6 28.8 -13.6 28.3 -13.55 27.65 -14.0 26.55 L-14.35 24.8 -13.85 23.2 Q-13.55 22.35 -13.7 21.45 L-14.0 20.75 -14.25 20.05 -14.0 19.25 -13.7 18.55 Q-13.5 17.55 -13.7 16.85 L-14.3 15.4 Q-13.6 14.2 -13.6 13.55 -13.55 13.1 -13.8 12.6 L-14.1 11.7 -13.85 10.05 Q-13.55 9.05 -13.7 8.35 L-13.7 8.3 -13.75 8.3 -14.3 7.3 -14.35 7.2 -14.2 7.3 Q-14.65 6.25 -14.35 5.3 -14.1 4.4 -13.25 3.6 -12.8 3.15 -12.85 2.45 L-13.2 1.2 -13.55 -0.1 Q-13.55 -0.8 -13.05 -1.3 L-11.95 -2.25 Q-11.4 -2.8 -11.5 -3.6 -11.65 -5.1 -11.45 -6.0 -11.15 -7.2 -10.05 -7.95 L-11.2 -7.2 -12.1 -6.3 Q-12.4 -5.75 -12.15 -4.95 L-11.9 -3.65 Q-11.95 -3.0 -12.85 -2.25 -13.8 -1.5 -13.9 -0.8 -14.0 -0.25 -13.7 1.15 -13.45 2.35 -13.8 3.05 L-14.2 3.65 -14.6 4.25 Q-15.05 5.0 -14.95 5.85 L-14.9 6.05 -14.95 6.1 -15.0 6.85 -14.6 7.55 -14.25 8.3 -14.25 8.35 Q-14.15 9.15 -14.55 10.1 L-14.95 11.7 -14.65 12.6 -14.45 13.55 Q-14.5 14.2 -15.15 15.4 L-14.55 16.85 Q-14.4 17.55 -14.55 18.55 L-14.9 19.25 -15.1 20.05 -14.9 20.75 -14.55 21.45 Q-14.4 22.35 -14.7 23.2 L-15.2 24.8 Q-15.3 25.55 -14.85 26.55 -14.4 27.65 -14.45 28.3 -14.45 28.8 -14.95 29.35 L-15.5 30.35 -15.1 32.3 Q-14.65 33.65 -14.75 34.2 L-15.15 35.0 -15.5 35.9 -15.45 36.3 -15.05 36.9 Q-14.85 37.35 -14.95 37.95 L-15.1 38.6 -16.7 38.7 -16.95 38.9 Q-17.15 39.25 -16.85 39.5 L-16.5 39.8 -16.5 41.7 -16.7 41.75 -16.95 41.95 Q-17.15 42.3 -16.85 42.55 -16.4 43.0 -15.55 42.95 L-15.2 42.9 Q-14.9 44.4 -15.2 45.1 -15.5 45.75 -16.15 45.65 -16.5 45.6 -16.55 44.85 L-16.7 46.5 -16.75 46.35 -17.1 42.5 -17.05 42.05 Q-17.0 41.85 -17.2 41.7 L-17.35 39.75 Q-17.05 39.5 -17.05 39.05 M8.95 -11.95 L9.7 -7.1 Q10.25 -1.1 9.35 4.35 10.0 2.2 10.3 -0.95 10.85 -7.2 8.95 -11.95 M0.5 43.3 Q0.65 44.85 0.45 45.55 0.25 46.2 -0.3 46.05 L-0.4 46.0 -1.75 46.0 -1.75 44.95 Q-1.35 44.7 -1.35 44.25 -1.3 44.0 -1.5 43.85 L-1.75 43.75 -1.75 42.65 -1.7 41.85 Q-1.35 41.7 -1.35 41.2 L-1.2 41.05 -0.8 40.05 -0.8 39.95 -0.75 40.0 -0.7 42.15 -0.7 42.25 -0.9 42.4 Q-1.05 42.7 -0.8 43.0 L-0.65 43.15 -0.6 44.25 -0.5 43.25 0.2 43.35 0.5 43.3 M-1.8 46.0 Q-1.75 46.8 -1.95 47.2 -2.2 47.85 -2.9 47.75 -3.35 47.7 -3.3 46.0 L-3.2 44.95 -2.3 45.05 -1.95 45.0 -1.8 46.0 M-3.7 46.35 L-5.1 46.35 -5.15 45.5 -5.7 45.55 Q-6.15 45.4 -6.1 43.75 L-6.0 42.7 -5.1 42.8 Q-4.35 42.75 -4.2 42.3 L-3.7 46.35 M-6.1 36.2 L-6.0 36.05 -6.05 35.25 -6.1 36.2 M-13.7 45.1 L-12.75 45.2 -12.4 45.15 -12.25 46.5 -12.4 47.35 Q-12.7 48.05 -13.35 47.9 -13.85 47.85 -13.8 46.15 L-13.7 45.1 M-18.95 42.8 L-18.0 42.95 -17.65 42.9 Q-17.35 44.35 -17.65 45.05 -17.95 45.75 -18.6 45.65 -19.1 45.55 -19.05 43.85 L-18.95 42.8 M-10.95 43.4 L-10.25 43.55 -10.0 43.45 Q-9.8 45.0 -10.0 45.7 -10.25 46.35 -10.75 46.25 -11.1 46.2 -11.05 44.5 L-10.95 43.4 M-4.3 39.5 L-4.2 41.65 -4.3 41.6 Q-4.45 41.45 -4.65 41.45 L-4.5 39.65 -4.3 39.5 M-8.45 42.65 L-7.5 42.75 -7.2 42.7 Q-6.9 44.2 -7.2 44.95 -7.45 45.6 -8.15 45.5 -8.6 45.35 -8.55 43.7 L-8.45 42.65" fill="#ffffff" fill-opacity="0.0" fill-rule="evenodd" stroke="none"/>
    <path d="M-17.6 38.55 L-17.35 37.9 Q-17.3 37.35 -17.5 36.85 L-17.9 36.25 -17.95 35.85 -17.6 34.95 -17.2 34.15 Q-17.1 33.6 -17.5 32.25 L-17.95 30.35 -17.4 29.25 Q-16.9 28.75 -16.9 28.25 -16.85 27.6 -17.3 26.5 L-17.65 24.7 -17.15 23.15 Q-16.85 22.3 -17.0 21.4 L-17.3 20.7 -17.55 20.05 -17.3 19.25 -17.0 18.5 Q-16.8 17.5 -17.0 16.8 L-17.6 15.35 Q-16.9 14.2 -16.9 13.5 L-17.1 12.55 -17.4 11.65 -17.0 10.05 Q-16.55 9.1 -16.7 8.35 L-16.7 8.3 -17.05 7.5 -17.45 6.8 -17.5 6.55 -17.65 5.85 Q-17.7 5.0 -17.25 4.25 L-16.85 3.65 -16.45 3.05 Q-16.1 2.35 -16.35 1.15 L-16.6 -0.8 Q-16.45 -1.5 -15.5 -2.25 -14.6 -2.95 -14.55 -3.65 L-14.8 -4.95 Q-15.05 -5.75 -14.8 -6.3 L-13.85 -7.2 -12.7 -7.95 Q-13.8 -7.2 -14.1 -6.0 -14.3 -5.15 -14.15 -3.6 -14.05 -2.8 -14.6 -2.25 L-15.7 -1.3 Q-16.2 -0.8 -16.2 -0.1 L-15.85 1.2 -15.5 2.45 Q-15.45 3.15 -15.9 3.6 -16.65 4.3 -16.95 5.15 L-16.95 5.3 -17.05 6.1 Q-17.1 6.65 -16.75 7.25 L-16.2 8.25 -16.15 8.3 -16.15 8.35 Q-16.0 9.05 -16.3 10.0 L-16.55 11.65 -16.25 12.55 Q-16.0 13.05 -16.05 13.5 -16.05 14.2 -16.75 15.35 L-16.15 16.8 Q-15.95 17.5 -16.15 18.5 L-16.45 19.25 -16.7 20.05 -16.45 20.7 -16.15 21.4 Q-16.0 22.3 -16.3 23.15 L-16.8 24.7 -16.45 26.5 Q-16.0 27.6 -16.05 28.25 -16.05 28.75 -16.6 29.35 -17.2 29.9 -17.2 30.4 L-16.75 32.3 Q-16.25 33.6 -16.35 34.15 L-16.8 35.0 -17.1 36.0 -16.7 36.75 Q-16.4 37.25 -16.5 37.9 -16.6 38.45 -16.95 38.85 L-17.05 39.05 Q-17.0 38.8 -17.2 38.65 L-17.6 38.55 M-16.7 46.5 L-16.55 44.85 Q-16.5 45.6 -16.15 45.65 -15.5 45.75 -15.2 45.1 -14.9 44.4 -15.2 42.9 -14.6 42.7 -14.6 42.1 L-14.75 41.75 -15.1 41.65 -14.95 39.8 Q-14.6 39.55 -14.6 39.1 -14.55 38.85 -14.75 38.7 L-15.1 38.6 -14.95 37.95 Q-14.85 37.35 -15.05 36.9 L-15.45 36.3 -15.5 35.9 -15.15 35.0 -14.75 34.2 Q-14.65 33.65 -15.1 32.3 L-15.5 30.35 -14.95 29.35 Q-14.45 28.8 -14.45 28.3 -14.4 27.65 -14.85 26.55 -15.3 25.55 -15.2 24.8 L-14.7 23.2 Q-14.4 22.35 -14.55 21.45 L-14.9 20.75 -15.1 20.05 -14.9 19.25 -14.55 18.55 Q-14.4 17.55 -14.55 16.85 L-15.15 15.4 Q-14.5 14.2 -14.45 13.55 L-14.65 12.6 -14.95 11.7 -14.55 10.1 Q-14.15 9.15 -14.25 8.35 L-14.25 8.3 -14.6 7.55 -15.0 6.85 -14.95 6.1 -14.9 6.05 -14.95 5.85 Q-15.05 5.0 -14.6 4.25 L-14.2 3.65 -13.8 3.05 Q-13.45 2.35 -13.7 1.15 -14.0 -0.25 -13.9 -0.8 -13.8 -1.5 -12.85 -2.25 -11.95 -3.0 -11.9 -3.65 L-12.15 -4.95 Q-12.4 -5.75 -12.1 -6.3 L-11.2 -7.2 -10.05 -7.95 Q-11.15 -7.2 -11.45 -6.0 -11.65 -5.1 -11.5 -3.6 -11.4 -2.8 -11.95 -2.25 L-13.05 -1.3 Q-13.55 -0.8 -13.55 -0.1 L-13.2 1.2 -12.85 2.45 Q-12.8 3.15 -13.25 3.6 -14.1 4.4 -14.35 5.3 -14.65 6.25 -14.2 7.3 L-14.35 7.2 -14.3 7.3 -13.75 8.3 -13.7 8.3 -13.7 8.35 Q-13.55 9.05 -13.85 10.05 L-14.1 11.7 -13.8 12.6 Q-13.55 13.1 -13.6 13.55 -13.6 14.2 -14.3 15.4 L-13.7 16.85 Q-13.5 17.55 -13.7 18.55 L-14.0 19.25 -14.25 20.05 -14.0 20.75 -13.7 21.45 Q-13.55 22.35 -13.85 23.2 L-14.35 24.8 -14.0 26.55 Q-13.55 27.65 -13.6 28.3 -13.6 28.8 -14.2 29.4 -14.75 30.0 -14.75 30.45 L-14.3 32.35 -14.25 32.4 -14.25 32.15 -14.0 32.85 -14.0 33.25 -13.9 34.2 -14.35 35.05 -14.65 36.05 -14.25 36.8 -14.05 37.25 -13.75 37.65 -13.65 38.45 -13.7 38.5 -14.25 39.1 Q-14.6 39.5 -14.45 40.1 L-14.1 40.8 -14.15 41.2 -14.15 41.25 -14.2 41.5 -15.1 46.0 -15.25 46.2 -15.75 46.55 -16.7 46.5 M-12.3 40.85 L-12.15 40.2 Q-12.05 39.65 -12.25 39.2 L-12.65 38.55 -12.7 38.1 -12.35 37.25 -11.95 36.45 Q-11.85 35.95 -12.3 34.6 L-12.7 32.65 -12.15 31.6 Q-11.65 31.05 -11.65 30.55 -11.6 29.85 -12.05 28.8 -12.5 27.75 -12.4 27.05 L-11.9 25.5 Q-11.6 24.6 -11.75 23.75 L-12.1 23.05 -12.3 22.35 -12.1 21.5 -11.75 20.75 Q-11.6 19.85 -11.75 19.1 L-12.35 17.7 Q-11.7 16.5 -11.65 15.85 L-11.85 14.85 -12.15 14.0 -11.75 12.3 Q-11.35 11.3 -11.45 10.5 L-11.8 9.65 -12.2 8.95 -12.2 8.35 -12.2 8.3 -12.15 8.2 -11.85 7.5 -11.75 7.15 -12.15 6.25 Q-12.3 5.35 -11.95 4.6 L-11.6 3.95 -11.3 3.35 Q-11.05 2.55 -11.4 1.4 L-11.8 -0.5 Q-11.75 -1.2 -10.9 -2.05 -10.1 -2.9 -10.1 -3.55 L-10.5 -4.85 Q-10.8 -5.6 -10.6 -6.15 L-9.8 -7.15 -8.75 -8.0 Q-9.75 -7.15 -9.9 -5.9 -10.0 -5.05 -9.7 -3.55 -9.5 -2.75 -10.0 -2.15 L-11.0 -1.1 Q-11.45 -0.55 -11.35 0.15 L-10.9 1.4 -10.4 2.65 Q-10.25 3.3 -10.7 3.8 -11.45 4.7 -11.6 5.6 -11.8 6.6 -11.25 7.55 L-11.7 7.25 -11.7 7.45 -11.8 8.25 -11.8 8.3 -11.8 8.35 -11.5 9.4 -10.95 10.5 Q-10.75 11.25 -11.05 12.25 L-11.3 14.0 -11.0 14.85 Q-10.75 15.35 -10.8 15.85 -10.8 16.5 -11.5 17.7 L-10.9 19.1 Q-10.7 19.85 -10.9 20.75 L-11.2 21.5 -11.45 22.35 -11.2 23.05 -10.9 23.75 Q-10.75 24.6 -11.05 25.5 L-11.55 27.05 -11.2 28.8 Q-10.75 29.85 -10.8 30.55 -10.8 31.05 -11.4 31.6 L-11.75 32.1 -11.7 33.6 -11.75 33.9 -11.5 34.6 -11.1 35.85 -11.05 36.0 -11.0 36.75 -11.35 37.35 -11.35 37.0 -11.55 37.3 -11.5 37.6 -11.6 38.45 -11.45 38.85 -11.2 39.25 -11.15 39.3 -11.3 39.45 Q-11.2 39.75 -11.25 40.1 L-11.25 40.15 -11.0 40.35 -11.0 42.3 -11.15 42.3 -11.35 42.55 Q-11.5 42.9 -11.25 43.15 L-10.95 43.4 -11.05 44.5 Q-11.1 46.2 -10.75 46.25 -10.25 46.35 -10.0 45.7 -9.8 45.0 -10.0 43.45 -9.55 43.3 -9.55 42.65 L-9.65 42.35 -9.95 42.25 -9.85 40.4 Q-9.55 40.15 -9.55 39.7 L-9.65 39.3 -9.95 39.2 -9.8 38.55 Q-9.7 37.95 -9.9 37.5 L-10.2 36.85 -10.25 36.45 -9.95 35.55 -9.65 34.75 Q-9.6 34.25 -9.9 32.9 L-10.2 30.95 Q-10.2 30.45 -9.8 29.9 -9.45 29.4 -9.4 28.9 -9.4 28.2 -9.75 27.1 L-10.0 25.35 -9.65 23.8 Q-9.4 22.95 -9.5 22.05 L-9.75 21.35 -9.95 20.65 -9.75 19.85 -9.5 19.1 Q-9.35 18.15 -9.5 17.4 L-9.95 16.0 Q-9.45 14.85 -9.4 14.15 L-9.6 13.2 -9.8 12.3 Q-9.85 11.7 -9.5 10.65 -9.15 9.6 -9.25 8.85 L-9.35 8.35 -9.4 8.3 -9.55 8.05 -9.85 7.4 -9.8 6.95 -9.75 7.2 -9.15 8.25 -9.1 8.3 -9.05 8.35 -8.8 9.45 -9.0 10.85 -9.15 12.3 -8.95 13.2 -8.75 14.15 -9.3 16.0 -8.85 17.4 Q-8.7 18.15 -8.85 19.1 L-9.1 19.85 -9.25 20.65 -9.1 21.35 -8.85 22.05 Q-8.7 22.95 -8.95 23.8 L-9.0 23.95 -8.85 24.25 -8.85 24.85 -8.85 25.15 -9.3 26.2 -9.05 27.1 Q-8.75 28.2 -8.75 28.9 L-9.0 29.7 -8.75 30.4 Q-8.7 30.9 -9.2 32.2 L-9.35 32.75 -9.3 32.9 -9.0 34.6 -8.5 35.25 -8.5 36.1 -9.0 36.65 Q-9.3 37.0 -9.25 37.45 L-9.1 38.0 -8.75 38.5 -8.7 38.55 -8.95 38.75 Q-9.15 39.1 -8.8 39.35 L-8.65 39.45 -8.75 41.6 -8.95 41.8 Q-9.15 42.05 -8.8 42.4 L-8.75 42.45 -8.95 46.6 -10.25 46.7 -12.25 46.5 -12.4 45.15 Q-11.8 45.0 -11.8 44.35 -11.75 44.1 -11.95 44.0 L-12.35 43.9 -12.15 42.05 Q-11.8 41.85 -11.8 41.35 -11.75 41.15 -11.95 41.0 -12.1 40.85 -12.3 40.85 M-7.1 38.45 L-6.9 37.8 Q-6.8 37.2 -7.05 36.75 L-7.4 36.1 -7.45 35.65 -7.15 34.8 -6.75 34.0 Q-6.65 33.5 -7.05 32.1 L-7.45 30.2 Q-7.45 29.7 -6.95 29.15 -6.45 28.6 -6.45 28.15 -6.4 27.45 -6.85 26.35 L-7.2 24.55 -6.7 23.05 Q-6.4 22.1 -6.55 21.3 L-6.85 20.6 -7.1 19.9 -6.85 19.1 -6.55 18.35 Q-6.35 17.35 -6.55 16.65 L-7.1 15.25 -6.7 14.35 Q-6.45 13.85 -6.45 13.35 -6.4 12.9 -6.65 12.35 L-6.95 11.55 -6.55 9.85 -6.15 8.35 -6.15 8.3 -6.2 8.15 Q-6.25 7.8 -6.6 7.35 L-6.7 7.2 -7.15 6.25 Q-7.3 5.35 -6.95 4.6 L-6.6 3.95 -6.25 3.35 Q-6.0 2.55 -6.4 1.4 L-6.8 -0.5 Q-6.75 -1.2 -5.9 -2.05 -5.1 -2.9 -5.1 -3.55 L-5.5 -4.85 Q-5.8 -5.6 -5.6 -6.15 L-4.75 -7.15 -3.7 -8.0 Q-4.7 -7.15 -4.85 -5.9 -4.95 -5.05 -4.65 -3.55 -4.5 -2.75 -5.0 -2.15 L-6.0 -1.1 Q-6.45 -0.55 -6.35 0.15 L-5.85 1.4 Q-5.45 2.25 -5.4 2.65 -5.25 3.3 -5.65 3.8 L-6.5 5.3 -6.6 5.95 Q-6.65 6.5 -6.3 7.1 L-5.75 8.15 -5.7 8.3 -5.7 8.35 Q-5.6 9.0 -5.8 9.8 L-6.1 11.55 -5.8 12.35 -5.55 13.35 -5.85 14.35 -6.25 15.25 -5.65 16.65 Q-5.5 17.35 -5.7 18.35 L-6.0 19.1 -6.25 19.9 -6.0 20.6 -5.7 21.3 Q-5.5 22.1 -5.85 23.05 L-6.3 24.55 Q-6.4 25.3 -5.95 26.35 L-5.55 28.15 Q-5.6 28.6 -6.15 29.15 -6.7 29.75 -6.75 30.25 -6.8 30.75 -6.25 32.15 -5.8 33.5 -5.9 34.0 L-6.3 34.85 Q-6.65 35.35 -6.6 35.9 L-6.25 36.6 Q-5.95 37.15 -6.05 37.8 L-6.45 38.7 -6.6 38.9 -6.6 38.85 Q-6.55 38.65 -6.75 38.55 L-7.1 38.45 M-6.7 39.35 L-6.65 41.65 -6.75 41.5 -7.1 41.4 -6.95 39.65 -6.7 39.35 M-6.6 42.25 L-6.6 43.55 -6.75 46.0 -7.2 44.95 Q-6.9 44.2 -7.2 42.7 -6.75 42.6 -6.6 42.25 M-4.65 38.45 L-4.45 37.8 Q-4.35 37.25 -4.6 36.75 L-5.0 36.15 -5.0 35.7 -4.7 34.85 -4.3 34.05 Q-4.2 33.5 -4.6 32.15 L-5.0 30.25 Q-5.0 29.7 -4.5 29.15 -4.0 28.6 -4.0 28.15 -3.95 27.5 -4.4 26.4 L-4.75 24.6 -4.25 23.05 Q-3.95 22.15 -4.1 21.3 L-4.4 20.6 -4.65 19.95 -4.4 19.15 -4.1 18.4 Q-3.9 17.4 -4.1 16.7 L-4.65 15.25 Q-4.0 14.1 -4.0 13.4 -3.95 12.95 -4.2 12.4 L-4.5 11.55 -4.1 9.95 Q-3.7 9.05 -3.7 8.35 L-3.7 8.3 -3.75 8.2 -4.15 7.4 -4.55 6.7 -4.5 5.95 -4.4 5.8 -4.2 4.7 -3.8 4.0 -3.45 3.3 Q-3.2 2.4 -3.6 1.05 L-4.05 -1.1 Q-4.0 -1.9 -3.1 -2.9 -2.2 -3.8 -2.25 -4.6 L-2.7 -6.05 Q-3.0 -6.95 -2.8 -7.55 L-1.9 -8.75 -0.8 -9.65 Q-1.85 -8.7 -2.0 -7.3 -2.1 -6.3 -1.8 -4.55 -1.6 -3.7 -2.1 -3.0 L-3.2 -1.75 Q-3.65 -1.15 -3.55 -0.35 L-3.05 1.1 -2.5 2.5 Q-2.35 3.25 -2.8 3.85 -3.6 4.85 -3.75 5.85 -3.9 6.65 -3.65 7.45 L-3.3 8.15 -3.25 8.3 -3.25 8.35 Q-3.15 9.0 -3.35 9.85 L-3.65 11.55 -3.35 12.4 -3.1 13.4 Q-3.15 14.1 -3.8 15.25 L-3.25 16.7 Q-3.05 17.4 -3.25 18.4 L-3.55 19.15 -3.8 19.95 -3.55 20.6 -3.25 21.3 Q-3.05 22.15 -3.4 23.05 L-3.9 24.6 -3.55 26.4 Q-3.1 27.5 -3.1 28.15 -3.15 28.6 -3.7 29.2 L-4.3 30.3 -4.0 31.6 -3.5 32.7 -3.5 33.1 -3.45 34.05 -3.85 34.9 Q-4.2 35.4 -4.15 35.9 L-3.8 36.65 -3.6 37.15 -3.45 37.25 -3.5 38.65 -3.75 38.9 Q-4.1 39.4 -4.0 40.0 L-3.55 40.7 -3.55 40.85 -3.7 41.05 Q-3.9 41.35 -3.6 41.65 L-3.55 41.7 -3.6 44.0 -3.7 44.05 Q-3.9 44.4 -3.65 44.6 L-3.7 46.35 -4.2 42.3 -4.15 41.95 Q-4.1 41.8 -4.2 41.65 L-4.3 39.5 Q-4.15 39.3 -4.15 38.9 -4.1 38.7 -4.3 38.55 L-4.65 38.45 M-1.85 40.7 L-1.65 40.05 Q-1.55 39.45 -1.8 39.05 L-2.2 38.4 -2.2 38.0 -1.9 37.15 -1.5 36.3 Q-1.4 35.8 -1.8 34.4 L-2.2 32.45 -1.7 31.45 Q-1.2 30.9 -1.2 30.4 -1.15 29.75 -1.6 28.7 L-1.95 26.9 -1.45 25.3 Q-1.15 24.45 -1.3 23.6 L-1.6 22.9 -1.85 22.15 -1.6 21.35 -1.3 20.6 Q-1.1 19.7 -1.3 19.0 L-1.85 17.5 -1.45 16.65 -1.2 15.65 Q-1.15 15.2 -1.4 14.7 L-1.7 13.85 -1.3 12.15 Q-0.85 11.15 -0.95 10.35 L-1.35 9.55 -1.75 8.8 -1.75 8.55 -1.8 8.35 -1.8 8.3 -1.85 8.25 Q-2.05 7.25 -1.65 6.35 L-1.3 5.65 -0.95 4.95 Q-0.65 4.05 -1.1 2.7 L-1.55 0.55 Q-1.5 -0.25 -0.6 -1.25 0.3 -2.15 0.25 -2.95 L-0.15 -4.4 Q-0.5 -5.3 -0.3 -5.9 L0.6 -7.1 1.7 -8.05 Q0.65 -7.1 0.5 -5.65 0.4 -4.65 0.75 -2.9 0.9 -2.05 0.4 -1.35 L-0.7 -0.1 Q-1.15 0.5 -1.05 1.3 L-0.55 2.75 0.0 4.15 Q0.15 4.9 -0.3 5.5 -1.1 6.5 -1.25 7.5 L-1.25 8.3 -1.25 8.35 -1.2 8.95 -1.05 9.2 -0.5 10.35 Q-0.3 11.05 -0.55 12.15 L-0.85 13.85 -0.55 14.7 Q-0.3 15.2 -0.3 15.65 L-0.6 16.65 -1.0 17.5 -0.45 19.0 Q-0.25 19.7 -0.45 20.6 L-0.75 21.35 -1.0 22.15 -0.75 22.9 -0.45 23.6 Q-0.25 24.45 -0.6 25.3 L-1.1 26.9 -0.75 28.7 Q-0.3 29.75 -0.3 30.4 -0.35 30.85 -0.75 31.35 L-0.85 31.45 -0.9 31.5 Q-1.45 32.05 -1.5 32.6 -1.55 33.05 -1.0 34.5 L-0.65 35.65 -0.65 36.3 -0.8 36.8 -1.05 37.2 Q-1.4 37.6 -1.35 38.15 L-1.0 38.9 -0.85 39.3 Q-0.75 39.65 -0.8 39.95 L-0.8 40.05 -1.2 41.05 -1.35 41.2 -1.5 40.8 -1.85 40.7 M0.55 39.05 L0.7 38.4 0.55 37.35 0.3 36.7 0.25 36.3 Q0.25 35.9 0.5 35.45 L0.8 34.65 0.55 32.75 0.25 30.8 Q0.25 30.3 0.65 29.75 L1.05 28.75 0.75 27.0 Q0.4 25.9 0.45 25.2 L0.85 23.65 Q1.1 22.75 0.95 21.9 L0.7 21.2 0.55 20.5 0.7 19.7 0.95 18.9 0.95 17.3 0.5 15.85 Q1.05 14.7 1.05 14.0 L0.85 13.0 0.65 12.15 Q0.6 11.55 0.95 10.45 L1.2 8.7 1.15 8.35 1.1 8.3 0.6 7.25 0.75 6.5 0.9 5.8 0.55 3.6 Q1.6 -3.8 4.2 -8.35 5.8 -11.15 7.3 -11.95 4.2 -7.4 3.75 -2.05 3.55 0.65 3.95 2.45 3.95 -1.05 6.55 -7.1 5.95 -3.4 5.8 4.9 L5.25 5.05 4.25 5.25 2.7 5.65 Q1.85 2.05 2.5 -1.15 2.9 -3.2 4.15 -5.8 L3.25 -4.5 Q1.9 -1.55 1.5 3.65 1.15 8.05 1.4 8.3 L1.65 9.3 1.45 10.75 1.3 12.15 1.55 13.0 1.7 14.0 1.2 15.85 1.65 17.3 1.6 18.9 1.4 19.7 1.2 20.5 1.4 21.2 1.6 21.9 Q1.75 22.75 1.5 23.65 1.15 24.8 1.15 25.2 1.05 25.9 1.4 27.0 1.75 28.1 1.7 28.75 L1.25 29.8 Q0.85 30.35 0.8 30.9 0.8 31.4 1.15 32.8 L1.45 34.65 1.15 35.5 Q0.9 35.95 0.9 36.5 L1.2 37.25 1.35 38.4 1.0 39.35 0.9 39.5 0.8 39.15 0.55 39.05 M16.3 4.1 Q16.45 -1.8 14.8 -6.8 14.0 -9.15 13.2 -10.45 17.6 -3.6 16.45 4.1 L16.3 4.1 M8.95 -11.95 Q10.85 -7.2 10.3 -0.95 10.0 2.2 9.35 4.35 10.25 -1.1 9.7 -7.1 L8.95 -11.95" fill="#000000" fill-opacity="0.2" fill-rule="evenodd" stroke="none"/>
    <path d="M-17.6 38.55 L-17.2 38.65 Q-17.0 38.8 -17.05 39.05 -17.05 39.5 -17.35 39.75 L-17.4 39.75 -17.55 41.6 -17.2 41.7 Q-17.0 41.85 -17.05 42.05 L-17.1 42.5 -17.65 42.9 -18.0 42.95 -18.95 42.8 -19.3 42.55 Q-19.6 42.25 -19.4 41.9 L-19.15 41.7 -18.95 41.65 -18.95 39.8 -19.3 39.5 Q-19.6 39.2 -19.4 38.9 L-19.15 38.7 -19.15 38.65 -17.6 38.55 M-15.2 42.9 L-15.55 42.95 Q-16.4 43.0 -16.85 42.55 -17.15 42.3 -16.95 41.95 L-16.7 41.75 -16.5 41.7 -16.5 39.8 -16.85 39.5 Q-17.15 39.25 -16.95 38.9 L-16.7 38.7 -15.1 38.6 -14.75 38.7 Q-14.55 38.85 -14.6 39.1 -14.6 39.55 -14.95 39.8 L-15.1 41.65 -14.75 41.75 -14.6 42.1 Q-14.6 42.7 -15.2 42.9 M-13.95 41.0 L-13.9 40.95 -12.3 40.85 Q-12.1 40.85 -11.95 41.0 -11.75 41.15 -11.8 41.35 -11.8 41.85 -12.15 42.05 L-12.35 43.9 -11.95 44.0 Q-11.75 44.1 -11.8 44.35 -11.8 45.0 -12.4 45.15 L-12.75 45.2 -13.7 45.1 -14.05 44.85 Q-14.35 44.55 -14.15 44.25 L-13.9 43.95 -13.7 43.95 -13.7 42.05 -14.05 41.8 -14.2 41.5 -14.15 41.25 -14.15 41.2 -13.95 41.0 M-11.15 39.3 L-11.15 39.25 -9.95 39.2 -9.65 39.3 -9.55 39.7 Q-9.55 40.15 -9.85 40.4 L-9.95 42.25 -9.65 42.35 -9.55 42.65 Q-9.55 43.3 -10.0 43.45 L-10.25 43.55 -10.95 43.4 -11.25 43.15 Q-11.5 42.9 -11.35 42.55 L-11.15 42.3 -11.0 42.3 -11.0 40.35 -11.25 40.15 -11.25 40.1 Q-11.2 39.75 -11.3 39.45 L-11.15 39.3 M-8.7 38.55 L-8.7 38.5 -7.1 38.45 -6.75 38.55 Q-6.55 38.65 -6.6 38.85 L-6.6 38.9 -6.7 39.35 -6.95 39.65 -7.1 41.4 -6.75 41.5 -6.65 41.65 Q-6.55 41.75 -6.6 41.9 L-6.6 42.25 Q-6.75 42.6 -7.2 42.7 L-7.5 42.75 -8.45 42.65 -8.75 42.45 -8.8 42.4 Q-9.15 42.05 -8.95 41.8 L-8.75 41.6 -8.7 41.5 -8.45 41.45 -8.45 39.65 -8.65 39.45 -8.8 39.35 Q-9.15 39.1 -8.95 38.75 L-8.7 38.55 M-6.5 42.3 L-6.5 41.8 -6.45 41.8 -6.25 41.6 -6.0 41.5 -6.0 39.7 -6.3 39.45 -6.4 39.4 Q-6.7 39.1 -6.5 38.8 L-6.25 38.55 -4.65 38.45 -4.3 38.55 Q-4.1 38.7 -4.15 38.9 -4.15 39.3 -4.3 39.5 L-4.5 39.65 -4.65 41.45 Q-4.45 41.45 -4.3 41.6 L-4.2 41.65 Q-4.1 41.8 -4.15 41.95 L-4.2 42.3 Q-4.35 42.75 -5.1 42.8 L-6.0 42.7 -6.4 42.45 -6.5 42.3 M-3.45 40.8 L-1.85 40.7 -1.5 40.8 -1.35 41.2 Q-1.35 41.7 -1.7 41.85 L-1.75 42.65 -1.85 43.75 -1.75 43.75 -1.5 43.85 Q-1.3 44.0 -1.35 44.25 -1.35 44.7 -1.75 44.95 L-1.95 45.0 -2.3 45.05 -3.2 44.95 -3.6 44.65 -3.65 44.6 Q-3.9 44.4 -3.7 44.05 L-3.6 44.0 -3.45 43.8 -3.2 43.75 -3.2 41.9 -3.55 41.7 -3.6 41.65 Q-3.9 41.35 -3.7 41.05 L-3.55 40.85 -3.45 40.8 M-0.85 39.3 L-0.8 39.25 -0.7 39.2 -0.7 39.15 0.55 39.05 0.8 39.15 0.9 39.5 0.65 40.15 0.5 42.05 0.8 42.15 0.9 42.55 Q0.9 43.15 0.5 43.3 L0.2 43.35 -0.5 43.25 -0.65 43.15 -0.8 43.0 Q-1.05 42.7 -0.9 42.4 L-0.7 42.25 -0.7 42.15 -0.55 42.15 -0.55 40.15 -0.75 40.0 -0.8 39.95 Q-0.75 39.65 -0.85 39.3" fill="#ffffff" fill-opacity="0.4" fill-rule="evenodd" stroke="none"/>
    <path d="M-1.75 46.0 L-1.8 46.0 -1.95 45.0 -1.75 44.95 -1.75 46.0 M-1.75 42.65 L-1.75 43.75 -1.85 43.75 -1.75 42.65" fill="#7a4a38" fill-rule="evenodd" stroke="none"/>
    <path d="M-15.25 46.2 L-15.8 46.6 Q-16.5 47.05 -16.7 46.5 L-15.75 46.55 -15.25 46.2" fill="#945c47" fill-rule="evenodd" stroke="none"/>
    <path d="M-17.2 41.7 Q-17.0 41.85 -17.05 42.05 L-17.1 42.5 -16.75 46.35 -16.7 46.5 -15.75 46.55 -15.25 46.2 -15.1 46.0 -14.2 41.5 -14.05 41.8 -13.7 42.05 -13.7 43.95 -13.9 43.95 -14.15 44.25 Q-14.35 44.55 -14.05 44.85 L-13.7 45.1 -13.8 46.15 Q-13.85 47.85 -13.35 47.9 -12.7 48.05 -12.4 47.35 L-12.25 46.5 -10.25 46.7 -8.95 46.6 -8.75 42.45 M-14.1 40.8 L-14.0 40.95 -13.95 41.0 -14.15 41.2 -14.15 41.25 -14.2 41.5 M-6.5 42.3 L-6.5 41.8 -6.45 41.8 -6.3 39.45 -6.0 39.7 -6.0 41.5 -6.25 41.6 -6.45 41.8 M-3.45 37.25 L-3.25 37.5 -3.2 38.25 -3.5 38.65 M-0.75 31.35 L-0.85 31.95 -0.85 31.45 M-0.65 35.65 L-0.55 35.85 -0.5 36.65 -0.8 37.1 -0.8 36.8 M-19.15 38.7 L-19.15 38.65 M1.4 8.3 Q1.15 8.05 1.5 3.65 1.9 -1.55 3.25 -4.5 L4.15 -5.8 Q2.9 -3.2 2.5 -1.15 1.85 2.05 2.7 5.65 L4.25 5.25 M1.4 8.3 L1.65 9.3 1.45 10.75 1.3 12.15 1.55 13.0 1.7 14.0 1.2 15.85 1.65 17.3 1.6 18.9 1.4 19.7 1.2 20.5 1.4 21.2 1.6 21.9 Q1.75 22.75 1.5 23.65 1.15 24.8 1.15 25.2 1.05 25.9 1.4 27.0 1.75 28.1 1.7 28.75 L1.25 29.8 Q0.85 30.35 0.8 30.9 0.8 31.4 1.15 32.8 L1.45 34.65 1.15 35.5 Q0.9 35.95 0.9 36.5 L1.2 37.25 1.35 38.4 1.0 39.35 0.9 39.5 0.65 40.15 0.5 42.05 0.8 42.15 0.9 42.55 Q0.9 43.15 0.5 43.3 0.65 44.85 0.45 45.55 0.25 46.2 -0.3 46.05 L-0.4 46.0 -1.75 46.0 M-1.8 46.0 Q-1.75 46.8 -1.95 47.2 -2.2 47.85 -2.9 47.75 -3.35 47.7 -3.3 46.0 L-3.2 44.95 -3.6 44.65 -3.65 44.6 Q-3.9 44.4 -3.7 44.05 L-3.6 44.0 -3.55 41.7 -3.6 41.65 Q-3.9 41.35 -3.7 41.05 L-3.55 40.85 -3.45 40.8 M-3.7 46.35 L-5.1 46.35 -5.15 45.5 -5.7 45.55 Q-6.15 45.4 -6.1 43.75 L-6.0 42.7 -6.4 42.45 -6.5 42.3 M-8.5 36.1 L-8.5 35.25 M-6.1 36.2 L-6.05 35.25 -6.0 36.05 -6.1 36.2 M-14.15 41.2 L-14.1 40.8 M-18.95 42.8 L-19.3 42.55 Q-19.6 42.25 -19.4 41.9 L-19.15 41.7 -18.95 41.65 -18.95 39.8 -19.3 39.5 Q-19.6 39.2 -19.4 38.9 L-19.15 38.7 M-17.65 42.9 L-17.1 42.5 M-17.2 41.7 L-17.55 41.6 -17.4 39.75 M-17.65 42.9 Q-17.35 44.35 -17.65 45.05 -17.95 45.75 -18.6 45.65 -19.1 45.55 -19.05 43.85 L-18.95 42.8 M-0.75 40.0 L-0.55 40.15 -0.55 42.15 -0.7 42.15 M-0.5 43.25 L-0.6 44.25 -0.65 43.15 M-3.55 41.7 L-3.2 41.9 -3.2 43.75 -3.45 43.8 -3.6 44.0 M-8.65 39.45 L-8.45 39.65 -8.45 41.45 -8.7 41.5 -8.75 41.6 M-7.2 44.95 Q-7.45 45.6 -8.15 45.5 -8.6 45.35 -8.55 43.7 L-8.45 42.65 M-6.6 43.55 L-6.75 46.0 -7.2 44.95" fill="none" stroke="#000000" stroke-linecap="round" stroke-linejoin="round" stroke-opacity="0.6" stroke-width="1.0"/>
    <path d="M5.25 5.05 L9.85 4.7 11.4 4.5 11.4 -2.1 Q12.3 2.35 12.35 4.4 L16.3 4.1 M16.45 4.1 L17.45 4.05 Q17.6 0.45 17.15 -2.65 17.85 1.25 17.9 4.05 L19.45 4.05 Q20.25 -4.75 15.55 -10.25 13.2 -13.05 10.65 -14.05 L9.1 -14.8 7.4 -15.25 Q3.8 -16.55 0.15 -16.45 -6.35 -16.35 -11.85 -11.95 -15.35 -9.15 -17.15 -6.05 L-18.3 -3.65 Q-18.9 -2.95 -19.4 -0.55 -20.1 2.85 -20.1 5.3 L-19.75 6.0 Q-19.5 6.35 -19.6 6.75 L-20.15 7.45 -20.75 8.2 -20.75 8.35 Q-20.85 9.1 -20.25 9.95 -19.55 11.0 -19.65 11.6 L-20.1 12.45 Q-20.45 12.95 -20.4 13.45 L-20.05 14.4 -19.4 15.3 -20.25 16.75 Q-20.5 17.45 -20.25 18.4 L-19.75 19.15 -19.45 19.95 -19.75 20.65 -20.25 21.35 Q-20.5 22.15 -20.05 23.05 L-19.3 24.5 -19.3 25.25 -19.95 26.65 Q-20.45 27.55 -20.4 28.2 L-19.8 29.4 Q-19.25 30.1 -19.2 30.55 -19.15 31.05 -19.65 32.35 -20.1 33.55 -19.95 34.05 L-19.5 34.75 -18.95 35.35 -18.9 36.15 -19.45 36.8 Q-19.85 37.25 -19.7 37.85 L-19.2 38.65 -19.15 38.7 M4.25 5.25 L5.25 5.05" fill="none" stroke="#000000" stroke-linecap="square" stroke-linejoin="round" stroke-opacity="0.6" stroke-width="1.0"/>
  </g>
</svg>
