<?xml version="1.0" encoding="UTF-8" standalone="no"?>
<svg xmlns:xlink="http://www.w3.org/1999/xlink" height="49.3px" width="43.4px" xmlns="http://www.w3.org/2000/svg">
  <g transform="matrix(1.0, 0.0, 0.0, 1.0, 29.35, 19.65)">
    <path d="M-24.05 -5.05 L-23.75 -5.5 Q-23.25 -6.05 -22.4 -6.4 L-20.75 -7.15 Q-18.75 -7.95 -18.2 -9.3 -21.2 -9.45 -23.5 -8.45 -23.15 -8.6 -22.5 -9.3 L-21.4 -10.1 -19.0 -10.75 -16.5 -11.0 -14.05 -11.45 -14.8 -11.7 -15.45 -12.25 Q-15.8 -12.6 -16.3 -12.8 L-17.25 -13.25 -15.65 -13.45 -13.95 -12.95 -12.15 -12.3 -10.45 -12.2 Q-10.0 -12.55 -10.2 -13.65 -10.4 -14.65 -10.85 -15.0 L-12.55 -15.35 -14.3 -15.5 Q-13.9 -15.95 -12.45 -15.95 L-10.35 -16.05 -8.2 -16.0 -6.1 -15.75 Q-6.75 -16.4 -6.85 -17.2 L-6.0 -16.4 -5.15 -15.6 Q-4.85 -15.45 -4.35 -15.25 L-4.15 -15.2 -2.95 -14.95 -0.35 -14.45 1.0 -14.45 2.35 -14.35 Q1.6 -14.75 0.85 -15.6 L-0.5 -17.25 Q-1.85 -19.05 -2.95 -19.0 L-1.45 -18.75 0.05 -17.6 1.55 -16.3 Q2.45 -15.6 3.35 -15.45 L5.1 -15.4 6.7 -15.15 Q7.45 -14.8 8.55 -13.2 9.8 -11.2 10.15 -10.9 L12.35 -8.3 13.35 -6.75 12.95 -6.9 12.45 -7.05 12.4 -7.1 11.9 -7.25 9.95 -7.7 11.25 -6.8 8.65 -7.55 9.4 -6.8 8.45 -6.8 5.7 -7.2 1.85 -7.7 5.3 -6.5 1.45 -6.95 2.45 -6.6 -1.05 -6.55 0.05 -5.95 Q-0.95 -6.0 -2.0 -5.25 L-3.5 -4.45 -4.35 -4.2 -6.3 -2.75 -5.6 -2.85 -6.55 -1.4 -6.15 -1.55 -5.75 -1.6 -6.2 -0.65 -6.55 0.25 -6.1 0.05 -5.6 -0.15 Q-5.6 0.55 -6.1 1.95 L-6.7 4.1 -5.45 3.25 -6.3 4.85 -7.1 6.45 -5.8 5.5 -7.3 8.25 -6.05 7.4 -5.9 8.55 -6.0 8.3 -6.95 9.15 -7.75 10.25 -8.8 11.3 -9.85 12.25 Q-10.1 11.6 -9.7 10.5 L-9.05 8.85 -11.25 11.55 -12.0 12.8 -12.05 12.85 -12.8 14.45 -13.1 13.45 -13.05 12.85 -13.05 12.8 -13.05 12.4 -13.5 12.8 -13.55 12.85 -13.6 12.85 -14.05 13.45 -14.85 14.65 -14.2 12.85 -14.15 12.8 -13.7 11.55 Q-12.75 9.4 -12.55 8.3 -13.5 9.1 -14.9 11.05 L-16.2 12.8 -16.25 12.85 -16.3 12.85 -17.2 13.7 -18.35 14.35 -19.55 14.95 Q-21.05 15.75 -21.35 16.85 L-20.85 14.8 Q-20.45 13.65 -19.85 12.95 L-19.75 12.85 -19.7 12.85 -19.65 12.8 -17.6 11.0 -15.35 9.1 Q-16.15 9.85 -17.55 10.45 L-19.95 11.45 Q-21.0 11.95 -21.75 12.8 L-21.8 12.85 -21.85 12.85 -21.9 12.9 -22.9 13.85 -23.65 14.75 -23.15 12.85 -23.1 12.85 -23.1 12.8 -23.1 12.7 -22.6 10.45 -24.1 12.6 -23.7 11.3 -24.3 12.05 -23.95 11.05 -23.5 10.1 Q-22.8 8.95 -21.2 8.0 -20.3 7.5 -18.25 6.8 L-16.85 6.1 -15.55 5.75 -17.35 5.9 -19.15 6.5 -20.8 6.9 Q-21.55 7.1 -22.15 7.85 L-21.1 6.25 -19.85 5.1 -21.0 5.65 -22.25 6.35 -23.45 7.55 -24.65 8.8 Q-26.8 10.5 -27.9 12.4 L-27.65 11.85 -25.6 9.0 -26.85 9.25 -28.1 9.6 Q-28.35 8.25 -27.6 7.15 L-27.25 6.8 -24.25 5.2 -21.15 3.75 -15.3 1.1 Q-11.9 -0.15 -9.35 -0.25 L-16.6 0.45 Q-20.35 1.3 -23.6 3.15 -20.5 0.55 -17.65 -0.7 L-22.15 0.95 Q-24.7 2.0 -26.45 2.95 L-26.55 3.0 Q-27.15 4.05 -27.1 5.3 -27.2 4.05 -26.5 2.8 -25.75 1.65 -24.6 1.25 L-24.65 -2.35 Q-24.65 -4.1 -24.05 -5.0 L-22.15 -5.8 -20.0 -6.1 Q-20.8 -5.4 -22.5 -4.5 L-16.0 -6.05 -9.6 -7.85 -14.2 -7.5 -19.0 -7.15 -23.3 -5.85 -24.05 -5.05 M-6.1 -11.0 L4.05 -8.8 0.95 -10.0 Q-1.75 -10.8 -4.35 -10.95 L-6.1 -11.0 M5.85 -9.15 L4.55 -10.0 2.95 -11.15 1.1 -11.6 -0.85 -11.7 -2.65 -12.4 -4.35 -13.3 -4.55 -13.45 Q-6.55 -14.75 -7.8 -14.2 L-5.4 -13.15 -4.45 -12.3 -4.35 -12.2 -3.2 -11.65 -0.55 -11.2 2.05 -10.8 4.25 -9.95 5.85 -9.15 M-10.75 -9.3 L-7.25 -9.5 -4.35 -9.05 -3.0 -8.75 Q0.3 -7.75 1.8 -7.7 L-0.5 -8.45 -2.75 -9.15 -4.35 -9.8 -5.7 -10.2 -7.1 -10.25 -8.5 -10.15 -11.45 -10.05 Q-13.3 -9.9 -14.25 -9.25 L-10.75 -9.3 M-11.55 -3.8 L-12.85 -3.2 -12.0 -3.05 -11.3 -2.8 Q-12.2 -1.95 -14.75 -1.35 -17.3 -0.8 -18.3 0.2 L-13.05 -0.75 Q-9.9 -1.3 -7.95 -2.1 -8.25 -2.45 -9.05 -2.7 L-10.35 -2.95 -9.2 -3.5 Q-8.4 -3.85 -8.05 -4.1 L-8.8 -4.6 -9.6 -4.95 -7.7 -5.5 -5.95 -5.6 -6.8 -6.25 -7.8 -6.85 -5.65 -7.2 -4.35 -7.35 -6.95 -7.65 -10.4 -7.35 Q-14.25 -6.3 -16.7 -5.0 L-13.1 -5.6 -10.8 -5.8 Q-13.6 -5.6 -14.85 -4.3 L-12.65 -4.35 -10.35 -4.5 Q-10.7 -4.05 -11.55 -3.8 M-18.5 4.85 L-14.65 4.05 Q-10.6 3.05 -9.4 1.95 L-12.95 2.7 Q-16.8 3.75 -18.5 4.85" fill="#ffffff" fill-opacity="0.0" fill-rule="evenodd" stroke="none"/>
    <path d="M-24.05 -5.05 L-23.3 -5.85 -19.0 -7.15 -14.2 -7.5 -9.6 -7.85 -16.0 -6.05 -22.5 -4.5 Q-20.8 -5.4 -20.0 -6.1 L-22.15 -5.8 -24.05 -5.0 -24.15 -5.0 -24.05 -5.05 M-27.1 5.3 Q-27.15 4.05 -26.55 3.0 L-26.45 2.95 Q-24.7 2.0 -22.15 0.95 L-17.65 -0.7 Q-20.5 0.55 -23.6 3.15 -20.35 1.3 -16.6 0.45 L-9.35 -0.25 Q-11.9 -0.15 -15.3 1.1 L-21.15 3.75 -24.25 5.2 -27.25 6.8 -27.3 6.8 -26.65 6.05 -26.05 5.5 -25.95 5.4 -24.75 3.65 Q-24.0 2.45 -23.4 2.1 L-24.4 2.55 -25.4 3.3 -26.05 4.05 -27.0 5.2 -27.1 5.3 M-27.9 12.4 Q-26.8 10.5 -24.65 8.8 L-23.45 7.55 -22.25 6.35 -21.0 5.65 -19.85 5.1 -21.1 6.25 -22.15 7.85 Q-21.55 7.1 -20.8 6.9 L-19.15 6.5 -17.35 5.9 -15.55 5.75 -16.85 6.1 -18.25 6.8 Q-20.3 7.5 -21.2 8.0 -22.8 8.95 -23.5 10.1 L-23.95 11.05 -24.3 12.05 -23.7 11.3 -24.1 12.6 -22.6 10.45 -23.1 12.7 -23.1 12.8 -23.1 12.85 -23.15 12.85 -23.65 14.75 -22.9 13.85 -21.9 12.9 -21.85 12.85 -21.8 12.85 -21.75 12.8 Q-21.0 11.95 -19.95 11.45 L-17.55 10.45 Q-16.15 9.85 -15.35 9.1 L-17.6 11.0 -19.65 12.8 -19.7 12.85 -19.75 12.85 -19.85 12.95 Q-20.45 13.65 -20.85 14.8 L-21.35 16.85 Q-21.05 15.75 -19.55 14.95 L-18.35 14.35 -17.2 13.7 -16.3 12.85 -16.25 12.85 -16.2 12.8 -14.9 11.05 Q-13.5 9.1 -12.55 8.3 -12.75 9.4 -13.7 11.55 L-14.15 12.8 -14.2 12.85 -14.85 14.65 -14.05 13.45 -13.6 12.85 -13.55 12.85 -13.5 12.8 -13.05 12.4 -13.05 12.8 -13.05 12.85 -13.1 13.45 -12.8 14.45 -12.05 12.85 -12.0 12.8 -11.25 11.55 -9.05 8.85 -9.7 10.5 Q-10.1 11.6 -9.85 12.25 L-8.8 11.3 -7.75 10.25 -6.95 9.15 -6.0 8.3 -5.9 8.55 -5.9 8.6 -5.75 9.85 -5.7 10.6 -5.75 10.85 -6.2 11.9 -6.55 12.65 -6.65 12.75 -7.35 13.85 Q-8.05 14.9 -8.1 16.6 -8.15 18.2 -7.7 20.25 -6.65 26.4 -6.8 27.7 L-6.85 27.8 -7.1 28.8 -7.2 28.85 -7.25 28.85 -7.7 28.55 -8.2 27.95 -8.3 27.8 Q-8.2 28.25 -8.35 28.5 L-8.6 28.65 Q-9.0 28.85 -9.65 28.4 L-9.75 28.3 -10.95 26.4 -11.8 24.35 Q-11.5 25.15 -11.5 26.6 L-11.55 29.0 -13.0 27.3 -14.35 25.55 Q-14.3 26.5 -13.75 27.65 L-16.05 27.1 Q-17.5 26.75 -18.2 26.3 -19.0 25.7 -19.55 24.35 L-20.3 22.1 -20.35 23.55 -20.55 24.9 Q-21.2 24.05 -21.4 22.5 L-21.75 23.45 -21.8 24.65 -23.2 22.65 Q-23.75 21.65 -23.75 20.5 L-23.5 18.3 Q-23.3 16.95 -23.4 16.1 -24.5 15.3 -24.8 15.95 -25.0 17.05 -25.4 17.45 -25.8 17.85 -27.0 18.25 L-28.7 18.65 -27.6 17.1 -27.2 16.7 -26.05 15.5 -25.95 15.4 -24.75 13.95 -24.55 13.65 -24.25 12.8 Q-24.15 12.4 -24.3 12.05 L-24.55 11.6 -25.9 12.05 -27.15 12.65 -27.3 12.85 -27.35 12.85 -27.85 13.85 -28.55 15.0 -28.55 14.4 -28.15 12.8 -28.1 12.8 -28.05 12.55 -27.9 12.4 M5.85 -9.15 L4.25 -9.95 2.05 -10.8 -0.55 -11.2 -3.2 -11.65 -4.35 -12.2 -4.45 -12.3 -5.4 -13.15 -7.8 -14.2 Q-6.55 -14.75 -4.55 -13.45 L-4.35 -13.3 -2.65 -12.4 -0.85 -11.7 1.1 -11.6 2.95 -11.15 4.55 -10.0 5.85 -9.15 M-10.75 -9.3 L-14.25 -9.25 Q-13.3 -9.9 -11.45 -10.05 L-8.5 -10.15 -7.1 -10.25 -5.7 -10.2 -4.35 -9.8 -2.75 -9.15 -0.5 -8.45 1.8 -7.7 Q0.3 -7.75 -3.0 -8.75 L-4.35 -9.05 -7.25 -9.5 -10.75 -9.3 M-8.55 18.75 L-8.65 18.6 -8.65 18.65 -8.55 18.75 M-24.25 12.85 L-24.25 12.8 -24.25 12.85" fill="#000000" fill-opacity="0.2" fill-rule="evenodd" stroke="none"/>
    <path d="M-6.1 -11.0 L-4.35 -10.95 Q-1.75 -10.8 0.95 -10.0 L4.05 -8.8 -6.1 -11.0 M-11.55 -3.8 Q-10.7 -4.05 -10.35 -4.5 L-12.65 -4.35 -14.85 -4.3 Q-13.6 -5.6 -10.8 -5.8 L-13.1 -5.6 -16.7 -5.0 Q-14.25 -6.3 -10.4 -7.35 L-6.95 -7.65 -4.35 -7.35 -5.65 -7.2 -7.8 -6.85 -6.8 -6.25 -5.95 -5.6 -7.7 -5.5 -9.6 -4.95 -8.8 -4.6 -8.05 -4.1 Q-8.4 -3.85 -9.2 -3.5 L-10.35 -2.95 -9.05 -2.7 Q-8.25 -2.45 -7.95 -2.1 -9.9 -1.3 -13.05 -0.75 L-18.3 0.2 Q-17.3 -0.8 -14.75 -1.35 -12.2 -1.95 -11.3 -2.8 L-12.0 -3.05 -12.85 -3.2 -11.55 -3.8 M-18.5 4.85 Q-16.8 3.75 -12.95 2.7 L-9.4 1.95 Q-10.6 3.05 -14.65 4.05 L-18.5 4.85" fill="#ffffff" fill-opacity="0.2" fill-rule="evenodd" stroke="none"/>
    <path d="M-8.55 18.75 L-8.65 18.65 -8.65 18.6 -8.55 18.75 M-26.05 4.05 L-27.1 5.35 -27.1 5.3 -27.0 5.2 -26.05 4.05 M-24.55 11.6 L-24.3 12.05 Q-24.15 12.4 -24.25 12.8 L-24.25 12.85 -24.25 12.8 -24.55 13.65 -24.25 12.8 Q-24.2 12.1 -24.55 11.6 M-8.35 28.5 Q-8.2 28.25 -8.3 27.8 L-8.2 27.95 -8.25 27.9 Q-8.15 28.25 -8.35 28.5" fill="#945c47" fill-rule="evenodd" stroke="none"/>
    <path d="M-6.0 8.3 L-5.9 8.55 -6.05 7.4 -7.3 8.25 -5.8 5.5 -7.1 6.45 -6.3 4.85 -5.45 3.25 -6.7 4.1 -6.1 1.95 Q-5.6 0.55 -5.6 -0.15 L-6.1 0.05 -6.55 0.25 -6.2 -0.65 -5.75 -1.6 -6.15 -1.55 -6.55 -1.4 -5.6 -2.85 -6.3 -2.75 -4.35 -4.2 -3.5 -4.45 -2.0 -5.25 Q-0.95 -6.0 0.05 -5.95 L-1.05 -6.55 2.45 -6.6 1.45 -6.95 5.3 -6.5 1.85 -7.7 5.7 -7.2 8.45 -6.8 9.4 -6.8 8.65 -7.55 11.25 -6.8 9.95 -7.7 11.9 -7.25 12.4 -7.1 12.45 -7.05 12.95 -6.9 M-6.65 12.75 L-6.55 12.65 -6.2 11.9 -5.75 10.85 -5.7 10.6 -5.75 9.85 -5.9 8.6 -5.9 8.55 M-27.35 12.85 L-27.85 13.85 -28.55 15.0 -28.55 14.4 -28.15 12.8" fill="none" stroke="#000000" stroke-linecap="square" stroke-linejoin="round" stroke-opacity="0.4" stroke-width="1.0"/>
    <path d="M12.95 -6.9 L13.35 -6.75 12.35 -8.3 10.15 -10.9 Q9.8 -11.2 8.55 -13.2 7.45 -14.8 6.7 -15.15 L5.1 -15.4 3.35 -15.45 Q2.45 -15.6 1.55 -16.3 L0.05 -17.6 -1.45 -18.75 -2.95 -19.0 Q-1.85 -19.05 -0.5 -17.25 L0.85 -15.6 Q1.6 -14.75 2.35 -14.35 L1.0 -14.45 -0.35 -14.45 -2.95 -14.95 -4.15 -15.2 -4.35 -15.25 Q-4.85 -15.45 -5.15 -15.6 L-6.0 -16.4 -6.85 -17.2 Q-6.75 -16.4 -6.1 -15.75 L-8.2 -16.0 -10.35 -16.05 -12.45 -15.95 Q-13.9 -15.95 -14.3 -15.5 L-12.55 -15.35 -10.85 -15.0 Q-10.4 -14.65 -10.2 -13.65 -10.0 -12.55 -10.45 -12.2 L-12.15 -12.3 -13.95 -12.95 -15.65 -13.45 -17.25 -13.25 -16.3 -12.8 Q-15.8 -12.6 -15.45 -12.25 L-14.8 -11.7 -14.05 -11.45 -16.5 -11.0 -19.0 -10.75 -21.4 -10.1 -22.5 -9.3 Q-23.15 -8.6 -23.5 -8.45 -21.2 -9.45 -18.2 -9.3 -18.75 -7.95 -20.75 -7.15 L-22.4 -6.4 Q-23.25 -6.05 -23.75 -5.5 L-24.05 -5.05 -23.3 -5.85 M-24.05 -5.0 Q-24.65 -4.1 -24.65 -2.35 L-24.6 1.25 Q-25.75 1.65 -26.5 2.8 -27.2 4.05 -27.1 5.3 -27.15 4.05 -26.55 3.0 L-26.45 2.95 M-27.25 6.8 L-27.6 7.15 Q-28.35 8.25 -28.1 9.6 L-26.85 9.25 -25.6 9.0 -27.65 11.85 -27.9 12.4 -28.05 12.55 -28.1 12.8 M-8.2 27.95 L-7.7 28.55 -7.25 28.85 -7.2 28.85 -7.1 28.8 -6.85 27.8 -6.8 27.7 Q-6.65 26.4 -7.7 20.25 -8.15 18.2 -8.1 16.6 -8.05 14.9 -7.35 13.85 L-6.65 12.75 M-26.05 4.05 L-25.4 3.3 -24.4 2.55 -23.4 2.1 Q-24.0 2.45 -24.75 3.65 L-25.95 5.4 -26.05 5.5 -26.65 6.05 -27.3 6.8 -27.25 6.8 M-26.05 4.05 L-27.0 5.2 -27.1 5.3 M-24.55 11.6 L-24.3 12.05 Q-24.15 12.4 -24.25 12.8 L-24.25 12.85 M-24.25 12.8 L-24.55 13.65 -24.75 13.95 -25.95 15.4 -26.05 15.5 -27.2 16.7 -27.6 17.1 -28.7 18.65 -27.0 18.25 Q-25.8 17.85 -25.4 17.45 -25.0 17.05 -24.8 15.95 -24.5 15.3 -23.4 16.1 -23.3 16.95 -23.5 18.3 L-23.75 20.5 Q-23.75 21.65 -23.2 22.65 L-21.8 24.65 -21.75 23.45 -21.4 22.5 Q-21.2 24.05 -20.55 24.9 L-20.35 23.55 -20.3 22.1 -19.55 24.35 Q-19.0 25.7 -18.2 26.3 -17.5 26.75 -16.05 27.1 L-13.75 27.65 Q-14.3 26.5 -14.35 25.55 L-13.0 27.3 -11.55 29.0 -11.5 26.6 Q-11.5 25.15 -11.8 24.35 L-10.95 26.4 -9.75 28.3 -9.65 28.4 Q-9.0 28.85 -8.6 28.65 L-8.35 28.5 M-27.3 12.85 L-27.15 12.65 -25.9 12.05 -24.55 11.6" fill="none" stroke="#000000" stroke-linecap="square" stroke-linejoin="round" stroke-opacity="0.6" stroke-width="1.0"/>
  </g>
</svg>
