<?xml version="1.0" encoding="UTF-8" standalone="no"?>
<svg xmlns:xlink="http://www.w3.org/1999/xlink" height="45.85px" width="48.15px" xmlns="http://www.w3.org/2000/svg">
  <g transform="matrix(1.0, 0.0, 0.0, 1.0, 25.9, 18.8)">
    <path d="M14.25 -13.5 Q15.7 -13.25 16.55 -12.5 L16.65 -12.05 Q16.7 -11.7 16.9 -11.5 L17.55 -11.35 18.25 -11.2 Q19.15 -10.8 19.45 -10.4 L20.15 -9.3 21.05 -7.4 21.6 -5.35 Q21.7 -4.75 21.3 -3.85 L20.95 -3.2 19.45 -1.15 17.6 0.6 14.9 2.3 14.25 2.65 14.8 1.95 Q16.25 0.1 16.9 -1.95 L17.45 -4.15 17.45 -5.15 17.65 -6.05 16.05 -4.1 14.25 -2.25 11.75 -0.05 Q9.95 1.2 8.65 1.25 L9.8 -0.75 Q10.7 -2.05 10.9 -2.95 L8.5 -1.15 6.05 0.55 Q5.0 1.2 3.55 1.6 L0.85 2.3 3.95 -0.5 Q5.65 -2.15 6.25 -3.8 L4.4 -2.1 2.05 -0.85 Q0.15 0.1 -1.2 0.6 L-4.7 1.25 -8.2 0.85 Q-10.2 0.25 -10.95 -0.65 -9.9 0.7 -8.0 1.35 L-4.05 2.35 Q-6.35 2.6 -8.1 2.3 -10.3 2.0 -11.65 1.05 -11.05 1.5 -10.0 2.85 L-8.15 4.8 -6.15 6.05 -5.95 6.05 -5.8 6.15 -3.6 7.6 -3.15 7.75 -2.95 8.15 Q-2.15 9.65 -0.85 9.85 -1.75 9.8 -2.45 8.95 L-5.5 7.2 -7.05 6.15 -7.2 6.05 -7.4 6.05 -8.5 5.55 -8.4 6.05 -8.35 6.15 -7.9 6.95 -6.7 8.1 -9.65 8.85 Q-11.6 8.95 -12.5 8.15 L-10.65 9.8 Q-9.6 10.6 -8.45 10.8 L-12.0 11.0 Q-14.1 10.7 -15.15 9.3 L-14.15 11.55 Q-13.5 12.75 -12.7 13.35 L-15.55 11.7 -18.3 9.85 Q-20.15 8.35 -20.7 6.15 L-20.75 6.05 -20.8 6.05 -21.05 4.35 Q-21.1 5.35 -21.4 6.05 L-21.45 6.05 -21.5 6.15 Q-22.0 7.15 -23.0 7.85 L-24.8 8.45 -24.15 8.65 -25.25 8.45 Q-24.1 8.4 -23.85 7.25 L-23.8 6.05 -23.7 5.4 Q-23.45 3.6 -21.9 1.5 -22.95 1.75 -23.6 2.55 -24.2 3.3 -24.3 4.1 -24.2 2.8 -23.4 1.8 L-22.55 0.85 -21.65 -0.25 Q-21.05 -1.0 -20.4 -2.7 L-19.3 -5.35 Q-18.35 -7.45 -16.85 -8.85 -14.9 -10.65 -13.6 -11.25 L-11.5 -12.45 Q-10.3 -13.0 -9.3 -12.75 -10.25 -13.65 -8.25 -14.95 -6.55 -16.0 -5.25 -16.2 L-2.65 -16.7 Q-1.4 -17.15 -0.6 -18.15 L-0.7 -16.9 -1.2 -15.75 Q0.05 -16.55 2.3 -16.45 L4.2 -16.3 6.1 -16.25 7.9 -16.2 9.55 -15.6 11.2 -14.5 Q12.45 -13.6 12.75 -13.6 L13.55 -13.55 13.6 -14.75 13.25 -15.8 14.05 -14.75 14.25 -13.5 M0.75 -3.45 L2.15 -4.55 3.3 -5.7 2.25 -5.45 1.2 -5.35 Q2.3 -6.65 2.9 -8.15 0.85 -7.95 -1.85 -6.75 L-6.2 -4.45 -3.0 -4.8 Q-1.4 -5.15 -0.05 -5.8 L-1.9 -4.3 -3.85 -2.9 -6.05 -2.05 Q-7.45 -1.65 -8.05 -1.2 L-4.35 -0.7 Q-2.2 -0.8 0.55 -1.75 L4.75 -3.5 Q7.1 -4.7 8.15 -6.15 L4.6 -4.3 Q2.2 -3.2 0.75 -3.45" fill="#ffffff" fill-opacity="0.0" fill-rule="evenodd" stroke="none"/>
    <path d="M0.75 -3.45 Q2.2 -3.2 4.6 -4.3 L8.15 -6.15 Q7.1 -4.7 4.75 -3.5 L0.55 -1.75 Q-2.2 -0.8 -4.35 -0.7 L-8.05 -1.2 Q-7.45 -1.65 -6.05 -2.05 L-3.85 -2.9 -1.9 -4.3 -0.05 -5.8 Q-1.4 -5.15 -3.0 -4.8 L-6.2 -4.45 -1.85 -6.75 Q0.85 -7.95 2.9 -8.15 2.3 -6.65 1.2 -5.35 L2.25 -5.45 3.3 -5.7 2.15 -4.55 0.75 -3.45" fill="#ffffff" fill-opacity="0.2" fill-rule="evenodd" stroke="none"/>
    <path d="M-24.15 8.65 L-24.8 8.45 -23.0 7.85 Q-22.0 7.15 -21.5 6.15 L-21.45 6.05 -21.4 6.05 Q-21.1 5.35 -21.05 4.35 L-20.8 6.05 -20.75 6.05 -20.7 6.15 Q-20.15 8.35 -18.3 9.85 L-15.55 11.7 -12.7 13.35 Q-13.5 12.75 -14.15 11.55 L-15.15 9.3 Q-14.1 10.7 -12.0 11.0 L-8.45 10.8 Q-9.6 10.6 -10.65 9.8 L-12.5 8.15 Q-11.6 8.95 -9.65 8.85 L-6.7 8.1 -7.9 6.95 -8.35 6.15 -8.4 6.05 -8.5 5.55 -7.4 6.05 -7.2 6.05 -7.05 6.15 -5.5 7.2 -2.45 8.95 Q-1.75 9.8 -0.85 9.85 L-2.9 9.9 Q-4.15 9.4 -4.8 9.25 -4.15 11.2 -3.2 12.75 -2.05 14.75 -0.75 15.35 -2.55 14.55 -4.65 12.7 -3.95 14.45 -3.75 16.35 -3.5 18.55 -4.0 20.15 L-4.7 18.4 -5.5 16.7 Q-5.1 17.8 -5.25 19.6 L-5.5 22.55 Q-5.5 23.95 -5.0 24.85 L-3.7 26.4 -6.35 24.45 -9.35 22.7 Q-9.4 23.55 -8.85 24.3 L-7.6 25.25 Q-9.85 25.25 -10.95 24.25 -12.15 23.1 -12.2 20.85 L-14.35 21.3 -16.45 21.4 Q-15.5 21.35 -14.35 19.95 L-16.2 19.45 -16.8 19.5 Q-17.9 18.65 -18.5 17.1 -18.85 18.0 -19.65 18.55 -20.5 19.2 -21.35 19.2 -20.5 18.65 -20.3 17.8 -20.2 17.2 -20.45 16.15 L-20.85 14.4 Q-21.0 13.35 -20.7 12.55 -21.4 13.0 -22.2 13.1 L-23.8 13.1 Q-21.8 12.95 -21.7 11.7 L-21.85 10.35 -22.2 8.7 -23.55 8.8 -23.7 8.75 -23.8 8.7 -24.15 8.65 M-3.15 7.75 L-3.6 7.6 -5.8 6.15 -5.95 6.05 -6.15 6.05 -8.15 4.8 -10.0 2.85 Q-11.05 1.5 -11.65 1.05 -10.3 2.0 -8.1 2.3 -6.35 2.6 -4.05 2.35 L-8.0 1.35 Q-9.9 0.7 -10.95 -0.65 -10.2 0.25 -8.2 0.85 L-4.7 1.25 -1.2 0.6 Q0.15 0.1 2.05 -0.85 L4.4 -2.1 6.25 -3.8 Q5.65 -2.15 3.95 -0.5 L0.85 2.3 3.55 1.6 Q5.0 1.2 6.05 0.55 L8.5 -1.15 10.9 -2.95 Q10.7 -2.05 9.8 -0.75 L8.65 1.25 Q9.95 1.2 11.75 -0.05 L14.25 -2.25 16.05 -4.1 17.65 -6.05 17.45 -5.15 17.45 -4.15 16.9 -1.95 Q16.25 0.1 14.8 1.95 L14.25 2.65 13.0 3.25 8.85 4.65 Q11.55 3.5 13.2 1.75 15.1 -0.25 15.15 -2.5 13.85 -0.35 11.75 1.3 9.85 2.8 7.1 4.05 L3.3 5.2 -0.65 5.0 Q1.3 5.05 3.3 3.9 5.2 2.9 6.25 1.3 L5.1 2.1 3.9 2.9 0.85 4.0 -1.8 4.7 -4.5 5.15 -3.8 5.55 -3.7 6.05 -3.15 7.75" fill="#000000" fill-opacity="0.2" fill-rule="evenodd" stroke="none"/>
    <path d="M14.25 -13.5 L14.05 -14.75 13.25 -15.8 13.6 -14.75 13.55 -13.55 M-1.2 -15.75 L-0.7 -16.9 -0.6 -18.15 Q-1.4 -17.15 -2.65 -16.7 L-5.25 -16.2 Q-6.55 -16.0 -8.25 -14.95 -10.25 -13.65 -9.3 -12.75 M-24.3 4.1 Q-24.2 3.3 -23.6 2.55 -22.95 1.75 -21.9 1.5 -23.45 3.6 -23.7 5.4 L-23.8 6.05 -23.85 7.25 Q-24.1 8.4 -25.25 8.45 L-24.15 8.65 -23.8 8.7 -23.7 8.75 -23.55 8.8 -22.2 8.7 -21.85 10.35 -21.7 11.7 Q-21.8 12.95 -23.8 13.1 L-22.2 13.1 Q-21.4 13.0 -20.7 12.55 -21.0 13.35 -20.85 14.4 L-20.45 16.15 Q-20.2 17.2 -20.3 17.8 -20.5 18.65 -21.35 19.2 -20.5 19.2 -19.65 18.55 -18.85 18.0 -18.5 17.1 -17.9 18.65 -16.8 19.5 L-16.2 19.45 -14.35 19.95 Q-15.5 21.35 -16.45 21.4 L-14.35 21.3 -12.2 20.85 Q-12.15 23.1 -10.95 24.25 -9.85 25.25 -7.6 25.25 L-8.85 24.3 Q-9.4 23.55 -9.35 22.7 L-6.35 24.45 -3.7 26.4 -5.0 24.85 Q-5.5 23.95 -5.5 22.55 L-5.25 19.6 Q-5.1 17.8 -5.5 16.7 L-4.7 18.4 -4.0 20.15 Q-3.5 18.55 -3.75 16.35 -3.95 14.45 -4.65 12.7 -2.55 14.55 -0.75 15.35 -2.05 14.75 -3.2 12.75 -4.15 11.2 -4.8 9.25 -4.15 9.4 -2.9 9.9 L-0.85 9.85 Q-2.15 9.65 -2.95 8.15 L-3.15 7.75 -3.7 6.05 -3.8 5.55 -4.5 5.15 M15.15 -2.5 Q15.1 -0.25 13.2 1.75 11.55 3.5 8.85 4.65 M6.25 1.3 Q5.2 2.9 3.3 3.9 1.3 5.05 -0.65 5.0" fill="none" stroke="#000000" stroke-linecap="square" stroke-linejoin="round" stroke-opacity="0.4" stroke-width="1.0"/>
    <path d="M21.3 -3.85 Q21.7 -4.75 21.6 -5.35 L21.05 -7.4 20.15 -9.3 19.45 -10.4 Q19.15 -10.8 18.25 -11.2 L17.55 -11.35 16.9 -11.5 Q16.7 -11.7 16.65 -12.05 L16.55 -12.5 Q15.7 -13.25 14.25 -13.5 M13.55 -13.55 L12.75 -13.6 Q12.45 -13.6 11.2 -14.5 L9.55 -15.6 7.9 -16.2 6.1 -16.25 4.2 -16.3 2.3 -16.45 Q0.05 -16.55 -1.2 -15.75 M-9.3 -12.75 Q-10.3 -13.0 -11.5 -12.45 L-13.6 -11.25 Q-14.9 -10.65 -16.85 -8.85 -18.35 -7.45 -19.3 -5.35 L-20.4 -2.7 Q-21.05 -1.0 -21.65 -0.25 L-22.55 0.85 -23.4 1.8 Q-24.2 2.8 -24.3 4.1 M14.25 2.65 L14.9 2.3 17.6 0.6 M8.85 4.65 L13.0 3.25 14.25 2.65 M-0.65 5.0 L3.3 5.2 7.1 4.05 Q9.85 2.8 11.75 1.3 13.85 -0.35 15.15 -2.5 M-4.5 5.15 L-1.8 4.7 0.85 4.0 3.9 2.9 5.1 2.1 6.25 1.3" fill="none" stroke="#000000" stroke-linecap="square" stroke-linejoin="round" stroke-opacity="0.6" stroke-width="1.0"/>
  </g>
</svg>
