<?xml version="1.0" encoding="UTF-8" standalone="no"?>
<svg xmlns:xlink="http://www.w3.org/1999/xlink" height="46.75px" width="34.85px" xmlns="http://www.w3.org/2000/svg">
  <g transform="matrix(1.0, 0.0, 0.0, 1.0, 17.55, 21.5)">
    <path d="M8.15 -14.7 L8.4 -14.5 8.25 -14.95 7.15 -17.85 6.8 -18.8 6.9 -18.7 8.6 -17.95 8.95 -17.7 9.7 -17.05 Q10.75 -16.15 11.1 -14.95 L11.85 -12.25 11.9 -11.75 12.4 -16.1 12.5 -15.95 13.45 -14.85 13.95 -14.15 Q15.5 -11.9 15.35 -10.1 L15.9 -11.9 16.0 -12.15 16.05 -12.25 16.5 -13.5 16.4 -12.95 16.4 -12.15 16.35 -11.55 16.6 -7.35 Q16.75 -3.75 16.25 -3.05 L14.65 -2.75 Q13.5 -2.3 12.9 -1.85 L11.9 -0.95 Q9.8 -2.4 6.05 -3.25 L1.95 -3.75 Q0.75 -3.5 0.35 -3.15 L-1.0 -1.75 Q-1.65 -0.7 -1.95 1.2 L-3.6 -0.1 Q-3.1 2.05 -2.95 3.9 L-3.55 4.05 -5.15 2.0 -7.0 0.1 -6.7 1.25 -6.5 2.35 -9.1 0.05 -9.0 1.85 -8.85 3.7 Q-10.2 3.1 -11.55 1.75 -13.3 0.6 -15.2 -2.1 L-15.3 -2.2 Q-15.0 -1.0 -13.95 0.95 -12.8 3.0 -12.0 3.45 -13.5 2.75 -14.3 1.95 -13.5 3.0 -13.25 4.75 L-12.9 7.65 -15.1 5.2 -15.05 4.4 -15.6 2.5 -16.4 0.25 -16.55 -0.35 -16.55 -0.5 -16.6 -0.8 -16.55 -0.8 -15.75 -0.45 -15.45 -0.35 -15.45 -0.4 -15.5 -0.45 -15.5 -0.5 -16.1 -2.15 -16.7 -4.95 -16.75 -5.35 -16.7 -4.95 -16.75 -5.3 -16.75 -5.35 -16.8 -5.9 -16.9 -7.8 -16.85 -9.35 -16.55 -11.9 -16.5 -11.6 -16.4 -11.05 -16.25 -10.3 -15.45 -8.35 -15.2 -7.35 -15.15 -12.45 -14.75 -13.25 -13.7 -15.4 -13.35 -16.1 -13.35 -16.15 -13.3 -16.15 -13.3 -15.4 Q-13.2 -12.7 -12.2 -13.0 -11.5 -13.2 -11.05 -13.8 L-10.8 -14.45 -10.6 -15.4 Q-10.0 -18.1 -9.05 -19.2 L-8.75 -19.55 Q-8.75 -17.85 -8.05 -16.65 L-7.7 -16.45 -7.05 -16.7 -6.6 -17.05 -6.45 -17.2 Q-7.0 -15.7 -6.85 -13.75 L-6.3 -10.05 -7.05 -11.05 -8.4 -13.2 -8.4 -11.8 -7.45 -9.0 -7.05 -8.15 -6.4 -7.05 -5.5 -5.9 -3.1 -3.95 -3.0 -3.95 -4.45 -5.9 -5.05 -8.05 -5.2 -9.0 Q-5.6 -11.25 -5.35 -13.55 L-3.3 -10.05 -2.65 -9.0 -1.2 -6.6 -2.15 -9.0 -2.9 -11.05 Q-3.9 -13.95 -4.65 -15.4 -2.9 -14.4 -1.1 -11.6 L0.4 -9.0 1.45 -6.6 0.95 -9.0 Q0.15 -11.95 -1.4 -16.15 L1.95 -13.7 Q3.75 -12.3 4.65 -10.35 L5.2 -9.0 6.2 -5.9 6.6 -4.7 6.7 -4.35 6.85 -5.4 6.95 -5.9 7.15 -9.0 6.8 -11.8 7.65 -9.0 8.3 -6.7 8.1 -9.0 7.9 -10.1 7.55 -12.4 7.45 -13.5 7.85 -12.4 8.5 -10.7 9.2 -9.0 9.5 -7.95 9.9 -5.9 10.0 -5.4 10.4 -3.45 10.7 -5.9 10.8 -9.0 Q10.7 -12.3 9.9 -14.6 L9.7 -15.05 9.7 -14.95 Q10.25 -11.5 10.2 -9.75 L8.95 -12.7 8.1 -14.1 Q7.5 -14.95 6.75 -14.8 6.05 -14.6 6.4 -13.5 L5.45 -15.25 4.2 -17.0 4.7 -13.25 2.55 -16.5 0.2 -19.05 -0.7 -20.6 0.8 -20.05 Q2.5 -19.15 3.35 -17.15 L3.4 -20.85 3.45 -20.8 3.5 -20.65 3.55 -20.6 6.5 -16.5 7.95 -14.95 7.9 -14.95 8.15 -14.7 M-10.4 -10.6 L-11.05 -11.9 -11.15 -10.1 -11.1 -8.15 -12.05 -9.25 -13.0 -10.45 -12.9 -8.45 -12.75 -7.15 -12.7 -6.85 -12.65 -6.5 -12.8 -6.85 -12.95 -7.15 -14.0 -9.35 -13.65 -7.15 -13.6 -6.85 -13.3 -5.9 -12.9 -5.25 Q-11.85 -3.9 -8.9 -2.75 L-8.6 -2.9 -9.95 -4.85 -10.45 -5.9 -10.7 -6.85 -10.75 -7.15 -10.8 -7.35 -10.65 -7.15 -10.45 -6.85 -9.7 -5.9 -8.8 -5.2 -6.6 -3.7 -7.95 -5.9 -8.35 -7.15 -8.45 -7.4 -10.4 -10.6" fill="#000000" fill-opacity="0.2" fill-rule="evenodd" stroke="none"/>
    <path d="M0.2 -19.05 L2.55 -16.5 4.7 -13.25 4.2 -17.0 5.45 -15.25 6.4 -13.5 Q6.05 -14.6 6.75 -14.8 7.5 -14.95 8.1 -14.1 L8.95 -12.7 10.2 -9.75 Q10.25 -11.5 9.7 -14.95 L9.7 -15.05 9.9 -14.6 Q10.7 -12.3 10.8 -9.0 L10.7 -5.9 10.4 -3.45 10.0 -5.4 9.9 -5.9 9.5 -7.95 9.2 -9.0 8.5 -10.7 7.85 -12.4 7.45 -13.5 7.55 -12.4 7.9 -10.1 8.1 -9.0 8.3 -6.7 7.65 -9.0 6.8 -11.8 7.15 -9.0 6.95 -5.9 6.85 -5.4 6.7 -4.35 6.6 -4.7 6.2 -5.9 5.2 -9.0 4.65 -10.35 Q3.75 -12.3 1.95 -13.7 L-1.4 -16.15 Q0.15 -11.95 0.95 -9.0 L1.45 -6.6 0.4 -9.0 -1.1 -11.6 Q-2.9 -14.4 -4.65 -15.4 -3.9 -13.95 -2.9 -11.05 L-2.15 -9.0 -1.2 -6.6 -2.65 -9.0 -3.3 -10.05 -5.35 -13.55 Q-5.6 -11.25 -5.2 -9.0 L-5.05 -8.05 -4.45 -5.9 -3.0 -3.95 -3.1 -3.95 -5.5 -5.9 -6.4 -7.05 -7.05 -8.15 -7.45 -9.0 -8.4 -11.8 -8.4 -13.2 -7.05 -11.05 -6.3 -10.05 -6.85 -13.75 Q-7.0 -15.7 -6.45 -17.2 -4.45 -18.7 -3.7 -18.65 L1.1 -17.5 0.2 -19.05 M-14.75 -13.25 L-15.15 -12.45 -15.2 -7.35 -15.45 -8.35 -15.65 -9.7 Q-15.7 -11.4 -15.15 -12.5 L-14.75 -13.25 M-16.4 0.25 L-15.6 2.5 -15.05 4.4 -15.55 2.8 -16.4 0.25 M-15.1 5.2 L-12.9 7.65 -13.25 4.75 Q-13.5 3.0 -14.3 1.95 -13.5 2.75 -12.0 3.45 -12.8 3.0 -13.95 0.95 -15.0 -1.0 -15.3 -2.2 L-15.2 -2.1 Q-13.3 0.6 -11.55 1.75 -10.2 3.1 -8.85 3.7 L-9.0 1.85 -9.1 0.05 -6.5 2.35 -6.7 1.25 -7.0 0.1 -5.15 2.0 -3.55 4.05 Q-5.25 4.65 -5.35 7.3 -5.5 10.85 -5.15 11.95 L-6.55 12.7 Q-10.35 16.5 -6.65 24.6 L-9.8 21.35 Q-13.1 17.5 -14.0 14.8 L-14.65 11.4 -14.85 7.65 -15.1 5.2 M-2.95 3.9 Q-3.1 2.05 -3.6 -0.1 L-1.95 1.2 -2.1 3.85 -2.95 3.9 M-10.4 -10.6 L-8.45 -7.4 -8.35 -7.15 -7.95 -5.9 -6.6 -3.7 -8.8 -5.2 -9.7 -5.9 -10.45 -6.85 -10.65 -7.15 -10.8 -7.35 -10.75 -7.15 -10.7 -6.85 -10.45 -5.9 -9.95 -4.85 -8.6 -2.9 -8.9 -2.75 Q-11.85 -3.9 -12.9 -5.25 L-13.3 -5.9 -13.6 -6.85 -13.65 -7.15 -14.0 -9.35 -12.95 -7.15 -12.8 -6.85 -12.65 -6.5 -12.7 -6.85 -12.75 -7.15 -12.9 -8.45 -13.0 -10.45 -12.05 -9.25 -11.1 -8.15 -11.15 -10.1 -11.05 -11.9 -10.4 -10.6" fill="#ffffff" fill-opacity="0.0" fill-rule="evenodd" stroke="none"/>
    <path d="M8.15 -14.7 L7.9 -14.95 7.95 -14.95 8.15 -14.7" fill="#945c47" fill-rule="evenodd" stroke="none"/>
    <path d="M16.25 -3.05 Q16.75 -3.75 16.6 -7.35 L16.35 -11.55 16.4 -12.15 16.4 -12.95 16.5 -13.5 16.05 -12.25 16.0 -12.15 15.9 -11.9 15.35 -10.1 Q15.5 -11.9 13.95 -14.15 L13.45 -14.85 12.5 -15.95 12.4 -16.1 11.9 -11.75 11.85 -12.25 11.1 -14.95 Q10.75 -16.15 9.7 -17.05 L8.95 -17.7 8.6 -17.95 6.9 -18.7 6.8 -18.8 7.15 -17.85 8.25 -14.95 8.4 -14.5 8.15 -14.7 7.95 -14.95 6.5 -16.5 3.55 -20.6 3.5 -20.65 3.45 -20.8 3.4 -20.85 3.35 -17.15 Q2.5 -19.15 0.8 -20.05 L-0.7 -20.6 0.2 -19.05 1.1 -17.5 -3.7 -18.65 Q-4.45 -18.7 -6.45 -17.2 L-6.6 -17.05 -7.05 -16.7 -7.7 -16.45 -8.05 -16.65 Q-8.75 -17.85 -8.75 -19.55 L-9.05 -19.2 Q-10.0 -18.1 -10.6 -15.4 L-10.8 -14.45 -11.05 -13.8 Q-11.5 -13.2 -12.2 -13.0 -13.2 -12.7 -13.3 -15.4 L-13.3 -16.15 -13.35 -16.15 -13.35 -16.1 -13.7 -15.4 -14.75 -13.25 -15.15 -12.5 Q-15.7 -11.4 -15.65 -9.7 L-15.45 -8.35 -16.25 -10.3 -16.4 -11.05 -16.5 -11.6 -16.55 -11.9 -16.85 -9.35 -16.9 -7.8 -16.8 -5.9 -16.75 -5.35 -16.7 -4.95 -16.1 -2.15 -15.5 -0.5 -15.5 -0.45 -15.45 -0.4 M-15.45 -0.35 L-15.75 -0.45 -16.55 -0.8 -16.6 -0.8 -16.55 -0.5 -16.55 -0.35 -16.4 0.25 -15.55 2.8 -15.05 4.4 -15.1 5.2 -14.85 7.65 -14.65 11.4 -14.0 14.8 Q-13.1 17.5 -9.8 21.35 L-6.65 24.6 Q-10.35 16.5 -6.55 12.7 L-5.15 11.95" fill="none" stroke="#000000" stroke-linecap="square" stroke-linejoin="round" stroke-opacity="0.6" stroke-width="1.0"/>
    <path d="M-3.55 4.05 L-2.95 3.9 -2.1 3.85 -1.95 1.2 Q-1.65 -0.7 -1.0 -1.75 L0.35 -3.15 Q0.75 -3.5 1.95 -3.75 L6.05 -3.25 Q9.8 -2.4 11.9 -0.95 L12.9 -1.85 Q13.5 -2.3 14.65 -2.75 L16.25 -3.05 M-5.15 11.95 Q-5.5 10.85 -5.35 7.3 -5.25 4.65 -3.55 4.05" fill="none" stroke="#000000" stroke-linecap="square" stroke-linejoin="round" stroke-opacity="0.4" stroke-width="1.0"/>
  </g>
</svg>
