<?xml version="1.0" encoding="UTF-8" standalone="no"?>
<svg xmlns:xlink="http://www.w3.org/1999/xlink" height="39.5px" width="41.0px" xmlns="http://www.w3.org/2000/svg">
  <g transform="matrix(1.0, 0.0, 0.0, 1.0, 24.75, 15.7)">
    <path d="M-19.35 0.8 L-19.2 -0.85 Q-17.85 -6.0 -14.65 -9.1 -11.5 -12.25 -8.2 -13.55 -5.1 -14.75 -1.7 -15.0 L3.6 -14.5 Q6.7 -13.8 9.3 -12.45 12.2 -10.9 13.8 -8.9 15.65 -6.6 15.6 -3.9 L14.95 -4.5 14.15 -4.8 13.3 -4.9 13.2 -4.9 10.05 -5.05 8.55 -4.75 8.3 -4.75 7.95 -4.55 7.6 -4.3 7.55 -4.25 7.15 -3.95 7.15 -3.9 4.85 -1.9 4.25 -1.35 3.55 -0.9 3.45 -0.9 3.4 -0.85 1.95 0.3 Q3.45 -0.25 4.45 -0.85 L4.5 -0.9 4.6 -0.9 5.45 -1.35 5.0 -0.9 4.95 -0.9 4.95 -0.85 Q3.35 1.65 1.8 3.05 -0.85 5.4 -3.9 5.2 L-1.8 3.25 0.05 1.05 -2.0 2.5 -4.1 3.9 Q-3.55 2.1 -2.2 0.15 L-1.4 -0.85 -1.35 -0.9 -1.25 -0.9 -0.65 -1.35 0.45 -2.2 Q-0.6 -1.95 -1.65 -1.35 L-2.4 -0.9 -2.5 -0.9 -2.55 -0.85 -2.75 -0.65 Q-4.15 0.9 -5.05 2.7 -5.2 0.95 -4.75 -0.85 L-4.75 -0.9 -4.7 -0.9 -4.5 -1.35 -3.8 -2.45 -2.45 -3.9 -1.75 -4.55 -1.5 -4.75 -1.35 -4.75 -0.3 -6.15 Q-1.3 -5.85 -2.4 -4.75 L-2.6 -4.75 -2.9 -4.55 -3.75 -3.9 -4.35 -3.4 -6.25 -1.35 -6.55 -0.9 -6.6 -0.9 -6.6 -0.85 -7.0 0.1 -7.55 2.65 -6.65 3.45 -5.95 4.25 -5.3 6.75 -5.15 7.85 -5.25 7.7 -5.15 7.9 -5.15 8.55 -5.35 9.35 -6.0 11.0 Q-6.9 12.9 -8.0 13.95 -8.85 14.75 -10.1 15.25 L-12.55 15.7 -9.25 15.6 -7.4 14.55 -6.55 13.95 -4.95 12.45 -6.6 14.6 Q-7.6 15.75 -8.7 16.25 -9.95 16.85 -11.75 16.7 L-14.8 16.3 Q-11.1 19.0 -6.6 16.2 -7.9 17.9 -10.95 18.5 -14.15 19.1 -15.7 17.65 -14.65 19.1 -12.95 19.7 L-9.55 19.8 -12.8 20.15 Q-14.75 19.9 -15.95 19.05 L-17.15 17.5 -17.95 15.7 Q-18.9 17.25 -17.6 19.05 L-16.35 20.45 -15.2 21.65 -17.5 19.7 Q-19.7 17.4 -19.9 15.35 L-19.9 16.05 -19.6 17.25 Q-20.05 16.2 -19.95 15.25 -20.6 16.55 -20.55 18.1 L-21.05 17.55 Q-22.3 16.35 -23.1 14.8 -23.95 13.2 -24.1 11.5 -24.25 9.75 -23.3 7.5 L-22.55 5.9 Q-21.9 5.35 -21.1 5.15 -22.2 6.15 -22.35 8.25 L-22.25 11.55 Q-22.35 10.05 -21.65 8.8 -21.0 7.55 -19.65 6.65 -20.7 8.0 -21.0 10.25 -21.3 12.65 -20.3 13.9 L-20.25 13.75 Q-20.15 10.1 -18.45 7.9 -19.25 9.3 -18.95 11.15 -18.65 13.1 -17.35 13.95 -17.9 13.55 -17.85 11.9 L-17.5 9.7 Q-17.25 9.0 -16.65 8.4 L-16.9 9.15 -17.0 11.35 -16.4 9.95 -15.5 8.65 -15.7 10.05 -15.95 11.45 -13.4 11.35 -13.05 11.25 -14.45 12.4 -16.9 12.3 Q-16.3 13.3 -14.75 13.3 L-12.3 12.7 Q-13.35 13.4 -14.35 13.75 L-16.55 14.4 Q-15.95 15.55 -13.85 15.45 -12.3 15.35 -10.7 14.7 -9.25 14.1 -8.85 12.85 -8.45 11.75 -8.95 10.35 L-9.25 9.55 -6.9 9.3 Q-7.3 9.35 -7.8 5.6 L-8.25 1.0 -8.4 -0.85 -8.4 -0.9 -8.45 -1.35 -8.45 -2.6 -8.15 -3.9 -7.85 -4.55 -7.75 -4.75 -7.65 -4.75 -7.3 -5.6 -7.95 -4.75 -8.1 -4.75 -8.3 -4.55 -8.95 -3.9 -9.0 -3.85 -10.3 -2.25 -10.95 -1.35 -11.25 -0.9 -11.25 -0.85 Q-11.7 0.35 -11.6 1.0 L-11.7 0.9 -11.9 0.8 -12.45 -0.85 -12.45 -0.9 -12.55 -1.15 -12.55 -1.35 Q-12.65 -2.15 -12.4 -2.75 L-13.05 -1.35 -13.1 -1.35 -13.3 -0.9 -13.35 -0.9 -13.35 -0.85 -13.75 0.25 -14.35 0.1 -14.65 -0.85 -14.7 -0.9 -14.75 -0.9 -14.85 -1.05 -14.95 -1.35 -15.15 -2.45 -14.75 -3.9 -14.5 -4.35 -14.35 -4.55 -14.25 -4.75 -14.15 -4.75 -13.05 -6.7 -14.7 -4.75 -14.85 -4.75 -15.05 -4.55 -15.55 -3.9 -16.15 -2.55 -16.3 -1.35 -16.25 -0.9 -16.25 -0.85 -16.15 -0.05 -16.3 -0.05 Q-18.05 -0.05 -19.35 0.8 M-13.95 6.75 L-14.85 5.4 Q-16.05 3.8 -17.3 3.05 -15.85 3.6 -14.5 5.3 L-13.6 6.85 -13.7 6.8 -13.95 6.75" fill="#ffffff" fill-opacity="0.0" fill-rule="evenodd" stroke="none"/>
    <path d="M-19.35 0.8 Q-18.05 -0.05 -16.3 -0.05 L-16.15 -0.05 -16.25 -0.85 -16.25 -0.9 -16.3 -1.35 -16.15 -2.55 -15.55 -3.9 -15.05 -4.55 -14.85 -4.75 -14.7 -4.75 -13.05 -6.7 -14.15 -4.75 -14.25 -4.75 -14.35 -4.55 -14.5 -4.35 -14.75 -3.9 -15.15 -2.45 -14.95 -1.35 -14.85 -1.05 -14.75 -0.9 -14.7 -0.9 -14.65 -0.85 -14.35 0.1 -13.75 0.25 -13.35 -0.85 -13.35 -0.9 -13.3 -0.9 -13.1 -1.35 -13.05 -1.35 -12.4 -2.75 Q-12.65 -2.15 -12.55 -1.35 L-12.55 -1.15 -12.45 -0.9 -12.45 -0.85 -11.9 0.8 -11.7 0.9 -11.6 1.0 Q-11.7 0.35 -11.25 -0.85 L-11.25 -0.9 -10.95 -1.35 -10.3 -2.25 -9.0 -3.85 -8.95 -3.9 -8.3 -4.55 -8.1 -4.75 -7.95 -4.75 -7.3 -5.6 -7.65 -4.75 -7.75 -4.75 -7.85 -4.55 -8.15 -3.9 -8.45 -2.6 -8.45 -1.35 -8.4 -0.9 -8.4 -0.85 -8.25 1.0 -7.8 5.6 Q-7.3 9.35 -6.9 9.3 L-9.25 9.55 -8.95 10.35 Q-8.45 11.75 -8.85 12.85 -9.25 14.1 -10.7 14.7 -12.3 15.35 -13.85 15.45 -15.95 15.55 -16.55 14.4 L-14.35 13.75 Q-13.35 13.4 -12.3 12.7 L-14.75 13.3 Q-16.3 13.3 -16.9 12.3 L-14.45 12.4 -13.05 11.25 -13.4 11.35 -15.95 11.45 -15.7 10.05 -15.5 8.65 -16.4 9.95 -17.0 11.35 -16.9 9.15 -16.65 8.4 Q-17.25 9.0 -17.5 9.7 L-17.85 11.9 Q-17.9 13.55 -17.35 13.95 -18.65 13.1 -18.95 11.15 -19.25 9.3 -18.45 7.9 -20.15 10.1 -20.25 13.75 L-20.3 13.9 Q-21.3 12.65 -21.0 10.25 -20.7 8.0 -19.65 6.65 -21.0 7.55 -21.65 8.8 -22.35 10.05 -22.25 11.55 L-22.35 8.25 Q-22.2 6.15 -21.1 5.15 -21.9 5.35 -22.55 5.9 L-22.6 5.95 -22.0 4.7 -21.65 3.75 Q-21.05 1.95 -19.6 0.95 L-19.35 0.8 M-20.55 18.1 Q-20.6 16.55 -19.95 15.25 -20.05 16.2 -19.6 17.25 L-19.4 17.95 Q-18.4 20.6 -15.65 21.5 L-15.45 21.6 -15.2 21.65 -16.35 20.45 -17.6 19.05 Q-18.9 17.25 -17.95 15.7 L-17.15 17.5 -15.95 19.05 Q-14.75 19.9 -12.8 20.15 L-9.55 19.8 -12.95 19.7 Q-14.65 19.1 -15.7 17.65 -14.15 19.1 -10.95 18.5 -7.9 17.9 -6.6 16.2 -11.1 19.0 -14.8 16.3 L-11.75 16.7 Q-9.95 16.85 -8.7 16.25 -7.6 15.75 -6.6 14.6 L-4.95 12.45 -6.55 13.95 -7.4 14.55 -6.55 13.65 Q-5.3 12.2 -5.0 10.45 -4.9 9.75 -4.95 9.05 L-5.15 7.85 -5.3 6.75 -5.95 4.25 -6.65 3.45 -7.55 2.65 -7.0 0.1 -6.6 -0.85 -6.6 -0.9 -6.55 -0.9 -6.25 -1.35 -4.35 -3.4 -3.75 -3.9 -2.9 -4.55 -2.6 -4.75 -2.4 -4.75 Q-1.3 -5.85 -0.3 -6.15 L-1.35 -4.75 -1.5 -4.75 -1.75 -4.55 -2.45 -3.9 -3.8 -2.45 -4.5 -1.35 -4.7 -0.9 -4.75 -0.9 -4.75 -0.85 Q-5.2 0.95 -5.05 2.7 -4.15 0.9 -2.75 -0.65 L-2.55 -0.85 -2.5 -0.9 -2.4 -0.9 -1.65 -1.35 Q-0.6 -1.95 0.45 -2.2 L-0.65 -1.35 -1.25 -0.9 -1.35 -0.9 -1.4 -0.85 -2.2 0.15 Q-3.55 2.1 -4.1 3.9 L-2.0 2.5 0.05 1.05 -1.8 3.25 -3.9 5.2 Q-0.85 5.4 1.8 3.05 3.35 1.65 4.95 -0.85 L4.95 -0.9 5.0 -0.9 5.45 -1.35 4.6 -0.9 4.5 -0.9 4.45 -0.85 Q3.45 -0.25 1.95 0.3 L3.4 -0.85 3.45 -0.9 3.55 -0.9 4.25 -1.35 4.85 -1.9 7.15 -3.9 7.15 -3.95 7.55 -4.25 7.6 -4.3 7.95 -4.55 8.3 -4.75 8.55 -4.75 10.05 -5.05 13.2 -4.9 11.45 -4.75 10.05 -4.55 9.95 -4.5 9.65 -4.3 9.3 -4.1 9.05 -3.9 8.25 -3.25 7.1 -1.9 6.8 -1.35 6.5 -0.85 5.7 1.45 Q4.85 4.0 3.85 5.3 2.35 7.35 0.15 8.6 -1.75 9.65 -3.6 9.8 -3.3 11.7 -3.5 13.6 -3.7 15.6 -4.6 17.45 -5.45 19.25 -6.9 20.8 -8.65 22.7 -10.7 23.05 -12.6 23.4 -15.2 22.45 L-17.1 21.55 -18.85 20.4 -19.75 19.25 -19.8 19.2 -20.55 18.15 -20.55 18.1 M-13.95 6.75 L-13.7 6.8 -13.6 6.85 -14.5 5.3 Q-15.85 3.6 -17.3 3.05 -16.05 3.8 -14.85 5.4 L-13.95 6.75" fill="#000000" fill-opacity="0.2" fill-rule="evenodd" stroke="none"/>
    <path d="M-19.6 17.25 L-19.9 16.05 -19.9 15.35 Q-19.7 17.4 -17.5 19.7 L-15.2 21.65 -15.45 21.6 -15.65 21.5 Q-18.4 20.6 -19.4 17.95 L-19.6 17.25 M-7.4 14.55 L-9.25 15.6 -12.55 15.7 -10.1 15.25 Q-8.85 14.75 -8.0 13.95 -6.9 12.9 -6.0 11.0 L-5.35 9.35 -5.15 8.55 -5.15 7.9 -5.25 7.7 -5.15 7.85 -4.95 9.05 Q-4.9 9.75 -5.0 10.45 -5.3 12.2 -6.55 13.65 L-7.4 14.55" fill="#ffffff" fill-opacity="0.2" fill-rule="evenodd" stroke="none"/>
    <path d="M13.2 -4.9 L13.3 -4.9 14.15 -4.8 14.95 -4.5 15.6 -3.9 Q15.65 -6.6 13.8 -8.9 12.2 -10.9 9.3 -12.45 6.7 -13.8 3.6 -14.5 L-1.7 -15.0 Q-5.1 -14.75 -8.2 -13.55 -11.5 -12.25 -14.65 -9.1 -17.85 -6.0 -19.2 -0.85 L-19.35 0.8 -19.6 0.95 Q-21.05 1.95 -21.65 3.75 L-22.0 4.7 -22.6 5.95 -22.55 5.9 -23.3 7.5 Q-24.25 9.75 -24.1 11.5 -23.95 13.2 -23.1 14.8 -22.3 16.35 -21.05 17.55 L-20.55 18.1 -20.55 18.15 -19.8 19.2 -19.75 19.25 -18.85 20.4 -17.1 21.55 -15.2 22.45 Q-12.6 23.4 -10.7 23.05 -8.65 22.7 -6.9 20.8 -5.45 19.25 -4.6 17.45 -3.7 15.6 -3.5 13.6 -3.3 11.7 -3.6 9.8 -1.75 9.65 0.15 8.6 2.35 7.35 3.85 5.3 4.85 4.0 5.7 1.45 L6.5 -0.85 6.8 -1.35 7.1 -1.9 8.25 -3.25 9.05 -3.9 9.3 -4.1 9.65 -4.3 9.95 -4.5 10.05 -4.55 11.45 -4.75 13.2 -4.9 Z" fill="none" stroke="#000000" stroke-linecap="square" stroke-linejoin="round" stroke-opacity="0.6" stroke-width="1.0"/>
  </g>
</svg>
