<?xml version="1.0" encoding="UTF-8" standalone="no"?>
<svg xmlns:xlink="http://www.w3.org/1999/xlink" height="58.85px" width="35.0px" xmlns="http://www.w3.org/2000/svg">
  <g transform="matrix(1.0, 0.0, 0.0, 1.0, 16.25, 15.7)">
    <path d="M-15.3 41.85 L-15.35 41.7 Q-15.55 40.75 -15.6 12.75 L-15.45 6.1 Q-15.25 1.9 -14.55 -1.6 -13.25 -7.8 -10.75 -10.35 -6.25 -14.8 0.05 -15.05 3.6 -15.2 7.1 -14.0 L8.7 -13.65 10.15 -13.0 11.6 -12.05 14.2 -9.75 14.7 -9.2 15.6 -8.0 16.4 -6.75 16.65 -6.3 17.35 -4.65 17.6 -3.95 Q18.2 -2.1 18.4 -0.1 L18.45 1.25 18.35 4.0 18.25 3.95 18.35 3.9 18.1 3.9 16.85 3.9 Q16.85 0.5 16.2 -2.85 16.65 -0.15 16.45 3.9 L15.55 3.95 11.75 4.25 11.25 0.2 10.85 -2.4 10.85 4.35 9.4 4.5 4.55 4.95 5.65 4.65 Q5.65 1.9 5.8 -0.65 5.95 -4.65 6.3 -6.85 L5.1 -3.3 Q3.9 0.55 3.9 2.55 3.5 0.75 3.7 -1.9 4.1 -7.1 7.0 -11.1 5.65 -10.4 4.1 -7.95 1.1 -2.9 0.4 6.1 L0.4 6.2 0.2 9.55 Q-0.45 21.7 -0.5 27.55 L-0.55 27.55 Q-0.65 40.5 -0.1 42.5 L-1.4 42.5 -1.65 9.95 -2.95 22.1 -3.15 6.15 -3.15 6.1 -3.2 5.4 -3.25 6.1 -3.25 6.15 -3.8 21.2 Q-4.15 38.0 -3.2 42.35 L-4.5 42.35 -5.25 28.75 -5.9 39.15 -6.55 11.1 -7.85 28.2 -7.9 24.2 Q-8.05 19.9 -8.35 18.55 L-9.4 14.1 -10.45 35.1 -11.45 12.2 -13.3 31.8 -13.55 10.8 Q-13.7 19.1 -15.3 41.85 M15.55 3.95 Q15.95 1.1 15.55 -1.8 14.9 -6.2 12.55 -9.75 L12.4 -9.95 12.9 -8.95 14.0 -6.1 Q15.55 -1.25 15.4 3.95 L15.55 3.95 M9.25 -6.35 Q9.75 -0.65 8.9 4.2 9.55 2.1 9.8 -0.95 10.3 -6.9 8.55 -11.1 L8.8 -9.75 9.25 -6.35 M-2.35 -6.7 Q-0.25 -10.1 2.25 -11.3 L0.15 -10.5 -2.1 -9.5 -2.05 -10.15 -1.8 -10.7 -3.3 -10.25 Q-4.3 -9.8 -4.75 -9.75 L-4.4 -10.55 Q-4.05 -11.05 -4.05 -11.35 -4.05 -11.05 -5.9 -10.25 -7.75 -9.5 -8.15 -9.55 L-7.8 -10.55 -7.3 -11.55 Q-8.95 -11.35 -10.35 -9.85 -11.45 -8.75 -12.3 -6.9 L-12.7 -5.9 -12.8 -4.8 Q-12.8 -4.65 -11.35 -6.25 L-10.55 -7.1 -9.45 -7.5 Q-10.0 -5.7 -11.0 -3.45 L-9.5 -6.0 Q-8.35 -7.7 -7.45 -7.8 L-7.45 -7.05 -7.4 -6.25 -6.65 -7.0 -5.8 -7.7 -6.25 -6.15 -6.4 -4.6 -5.55 -5.7 Q-4.6 -6.55 -4.2 -6.5 -4.7 -6.05 -4.9 -5.05 L-5.1 -3.45 -5.15 -1.95 -5.35 -0.7 -2.35 -6.7" fill="#ffffff" fill-opacity="0.0" fill-rule="evenodd" stroke="none"/>
    <path d="M-15.3 41.85 Q-13.7 19.1 -13.55 10.8 L-13.3 31.8 -11.45 12.2 -10.45 35.1 -9.4 14.1 -8.35 18.55 Q-8.05 19.9 -7.9 24.2 L-7.85 28.2 -6.55 11.1 -5.9 39.15 -6.05 42.1 -6.75 39.6 Q-7.45 35.85 -7.6 29.25 L-8.1 41.95 -9.3 42.1 -11.45 41.7 Q-12.3 41.4 -12.45 37.9 L-12.5 34.55 -13.8 41.45 -14.4 41.9 -14.5 41.95 -14.8 42.15 -15.1 42.15 -15.3 41.9 -15.3 41.85 M-3.2 42.35 Q-4.15 38.0 -3.8 21.2 L-3.25 6.15 -3.25 6.1 -3.2 5.4 -3.15 6.1 -3.15 6.15 -2.95 22.1 -1.65 9.95 -1.4 42.5 -1.9 42.5 -2.95 30.65 -3.2 42.35 M0.4 6.2 L0.4 6.1 Q1.1 -2.9 4.1 -7.95 5.65 -10.4 7.0 -11.1 4.1 -7.1 3.7 -1.9 3.5 0.75 3.9 2.55 3.9 0.55 5.1 -3.3 L6.3 -6.85 Q5.95 -4.65 5.8 -0.65 5.65 1.9 5.65 4.65 L4.55 4.95 2.75 5.35 Q2.0 2.15 2.6 -1.15 3.0 -3.5 4.1 -5.65 L3.25 -4.55 Q1.95 -1.85 1.8 1.5 1.65 3.6 2.0 5.6 1.2 5.85 0.6 6.15 L0.5 6.15 0.4 6.2 M15.55 3.95 L15.4 3.95 Q15.55 -1.25 14.0 -6.1 L12.9 -8.95 12.4 -9.95 12.55 -9.75 Q14.9 -6.2 15.55 -1.8 15.95 1.1 15.55 3.95 M9.25 -6.35 L8.8 -9.75 8.55 -11.1 Q10.3 -6.9 9.8 -0.95 9.55 2.1 8.9 4.2 9.75 -0.65 9.25 -6.35" fill="#000000" fill-opacity="0.2" fill-rule="evenodd" stroke="none"/>
    <path d="M-2.35 -6.7 L-5.35 -0.7 -5.15 -1.95 -5.1 -3.45 -4.9 -5.05 Q-4.7 -6.05 -4.2 -6.5 -4.6 -6.55 -5.55 -5.7 L-6.4 -4.6 -6.25 -6.15 -5.8 -7.7 -6.65 -7.0 -7.4 -6.25 -7.45 -7.05 -7.45 -7.8 Q-8.35 -7.7 -9.5 -6.0 L-11.0 -3.45 Q-10.0 -5.7 -9.45 -7.5 L-10.55 -7.1 -11.35 -6.25 Q-12.8 -4.65 -12.8 -4.8 L-12.7 -5.9 -12.3 -6.9 Q-11.45 -8.75 -10.35 -9.85 -8.95 -11.35 -7.3 -11.55 L-7.8 -10.55 -8.15 -9.55 Q-7.75 -9.5 -5.9 -10.25 -4.05 -11.05 -4.05 -11.35 -4.05 -11.05 -4.4 -10.55 L-4.75 -9.75 Q-4.3 -9.8 -3.3 -10.25 L-1.8 -10.7 -2.05 -10.15 -2.1 -9.5 0.15 -10.5 2.25 -11.3 Q-0.25 -10.1 -2.35 -6.7" fill="#ffffff" fill-opacity="0.2" fill-rule="evenodd" stroke="none"/>
    <path d="M15.6 -8.0 L14.7 -9.2 14.2 -9.75 11.6 -12.05 10.15 -13.0 8.7 -13.65 7.1 -14.0 Q3.6 -15.2 0.05 -15.05 -6.25 -14.8 -10.75 -10.35 -13.25 -7.8 -14.55 -1.6 -15.25 1.9 -15.45 6.1 L-15.6 12.75 Q-15.55 40.75 -15.35 41.7 L-15.3 41.85 -15.3 41.9 -15.1 42.15 -14.8 42.15 -14.5 41.95 -14.4 41.9 -13.8 41.45 -12.5 34.55 -12.45 37.9 Q-12.3 41.4 -11.45 41.7 L-9.3 42.1 -8.1 41.95 -7.6 29.25 Q-7.45 35.85 -6.75 39.6 L-6.05 42.1 -5.9 39.15 -5.25 28.75 -4.5 42.35 -3.2 42.35 -2.95 30.65 -1.9 42.5 -1.4 42.5 -0.1 42.5 Q-0.65 40.5 -0.55 27.55 L-0.5 27.55 Q-0.45 21.7 0.2 9.55 L0.4 6.2 0.5 6.15 M4.55 4.95 L9.4 4.5 10.85 4.35 10.85 -2.4 11.25 0.2 11.75 4.25 15.55 3.95 16.45 3.9 Q16.65 -0.15 16.2 -2.85 16.85 0.5 16.85 3.9 L18.1 3.9 M0.6 6.15 Q1.2 5.85 2.0 5.6 1.65 3.6 1.8 1.5 1.95 -1.85 3.25 -4.55 L4.1 -5.65 Q3.0 -3.5 2.6 -1.15 2.0 2.15 2.75 5.35 L4.55 4.95" fill="none" stroke="#000000" stroke-linecap="square" stroke-linejoin="round" stroke-opacity="0.6" stroke-width="1.0"/>
  </g>
</svg>
