<?xml version="1.0" encoding="UTF-8" standalone="no"?>
<svg xmlns:xlink="http://www.w3.org/1999/xlink" height="10.9px" width="29.15px" xmlns="http://www.w3.org/2000/svg">
  <g transform="matrix(1.0, 0.0, 0.0, 1.0, 2.6, 0.4)">
    <path d="M-1.95 2.35 L2.05 2.4 Q3.05 1.0 5.45 0.8 7.9 0.55 9.2 0.85 10.5 1.1 11.05 2.1 L25.9 0.25 25.65 1.25 Q18.7 2.55 11.35 3.05 11.75 4.95 9.85 7.4 7.95 9.85 6.35 9.85 4.7 9.85 2.95 7.55 1.15 5.2 1.7 3.35 L-1.75 3.3 -1.95 2.35" fill="#ffffff" fill-opacity="0.0" fill-rule="evenodd" stroke="none"/>
    <path d="M-1.95 2.35 L2.05 2.4 Q3.05 1.0 5.45 0.8 7.9 0.55 9.2 0.85 10.5 1.1 11.05 2.1 L25.9 0.25 25.65 1.25 Q18.7 2.55 11.35 3.05 11.75 4.95 9.85 7.4 7.95 9.85 6.35 9.85 4.7 9.85 2.95 7.55 1.15 5.2 1.7 3.35 L-1.75 3.3 -1.95 2.35 Z" fill="none" stroke="#000000" stroke-linecap="square" stroke-linejoin="round" stroke-opacity="0.6" stroke-width="1.0"/>
  </g>
</svg>
