<?xml version="1.0" encoding="UTF-8" standalone="no"?>
<svg xmlns:xlink="http://www.w3.org/1999/xlink" height="41.55px" width="34.05px" xmlns="http://www.w3.org/2000/svg">
  <g transform="matrix(1.0, 0.0, 0.0, 1.0, 16.3, 15.7)">
    <path d="M-14.1 -8.75 L-11.9 -10.5 -10.65 -10.55 -10.05 -11.1 -9.0 -10.35 -8.0 -12.9 -5.5 -11.95 -4.3 -14.55 -2.75 -13.05 -1.15 -14.55 0.2 -13.6 1.05 -14.9 1.05 -15.05 1.1 -14.9 1.15 -15.05 1.15 -14.9 2.0 -13.6 3.4 -14.55 4.55 -12.95 6.5 -14.55 8.05 -12.15 10.2 -12.9 11.3 -10.15 10.8 -10.15 9.6 -10.0 9.35 -9.4 9.05 -8.85 Q8.85 -8.75 8.55 -9.2 L8.05 -9.55 7.65 -9.4 7.5 -9.3 7.05 -9.05 5.95 -8.7 Q5.75 -8.7 5.65 -8.85 5.35 -9.0 5.1 -9.9 L3.95 -8.45 3.85 -8.45 3.75 -8.7 Q3.4 -9.3 3.35 -10.0 L3.25 -10.5 3.0 -10.0 2.4 -8.7 1.7 -9.85 1.1 -11.2 0.95 -10.0 0.95 -9.8 -0.6 -9.9 -0.8 -9.2 -2.0 -9.55 -2.55 -9.3 -3.1 -9.3 Q-3.75 -9.15 -4.4 -9.55 L-5.85 -10.4 -5.8 -10.0 -5.85 -9.4 -5.85 -8.45 Q-6.4 -8.6 -7.25 -9.9 L-7.05 -8.45 Q-7.75 -8.45 -8.2 -9.0 L-8.05 -8.25 -9.35 -8.45 Q-10.1 -8.55 -10.1 -7.5 L-10.65 -7.7 -11.85 -8.35 Q-13.1 -8.95 -13.55 -8.95 L-14.1 -8.7 -14.1 -8.75 -14.1 -8.7 -14.15 -8.7 -14.15 -8.65 -14.2 -8.65 -14.15 -8.7 -14.1 -8.75 M11.3 -10.15 L12.25 -11.1 12.8 -10.5 12.85 -10.5 Q13.6 -10.0 14.1 -10.5 L15.65 -7.75 Q15.4 -7.55 15.3 -7.65 L14.85 -7.65 14.7 -8.25 14.6 -8.35 Q14.3 -8.9 14.35 -9.05 L13.8 -8.35 13.65 -8.25 13.2 -8.0 13.25 -8.25 13.2 -8.95 13.2 -9.75 12.8 -9.55 12.75 -9.55 12.25 -9.3 12.2 -9.8 12.05 -10.0 12.05 -10.15 11.3 -10.15" fill="#ffffff" fill-opacity="0.2" fill-rule="evenodd" stroke="none"/>
    <path d="M-14.1 -8.7 L-13.55 -8.95 Q-13.1 -8.95 -11.85 -8.35 L-10.65 -7.7 -10.1 -7.5 Q-10.1 -8.55 -9.35 -8.45 L-8.05 -8.25 -8.2 -9.0 Q-7.75 -8.45 -7.05 -8.45 L-7.25 -9.9 Q-6.4 -8.6 -5.85 -8.45 L-5.85 -9.4 -5.8 -10.0 -5.85 -10.4 -4.4 -9.55 Q-3.75 -9.15 -3.1 -9.3 L-3.05 -6.15 -3.05 -5.5 -3.05 -5.15 -3.05 -5.1 Q-2.95 -3.4 -3.3 -2.45 L-5.0 -4.55 Q-5.05 -3.0 -4.2 -1.1 L-4.4 -1.2 Q-5.5 -2.4 -6.15 -4.05 L-6.45 -5.05 -6.5 -5.1 -6.55 -5.3 -6.65 -5.8 -6.65 -5.5 -6.65 -5.1 Q-6.6 -3.65 -5.9 -1.9 L-5.05 0.0 -6.0 -0.35 -7.05 -0.5 -6.3 0.1 -6.2 0.2 -5.85 0.4 -5.65 0.4 -5.35 0.7 -6.45 0.4 -7.4 0.4 -6.65 0.9 -5.6 1.15 -7.5 1.3 -9.55 1.45 Q-9.25 1.85 -7.5 2.15 L-5.35 2.8 -8.4 3.25 -10.1 3.05 -11.5 2.8 -10.15 3.2 -8.25 3.8 -5.0 4.65 -5.0 4.7 -8.45 5.95 -12.15 6.7 -9.2 6.65 -6.25 6.45 Q-8.85 7.4 -13.05 9.35 L-10.15 8.9 -7.3 8.1 -9.95 10.0 Q-11.1 11.0 -11.95 12.45 L-10.9 12.3 -13.55 15.2 -14.2 13.65 -14.85 9.95 -14.9 9.85 Q-15.3 8.45 -15.55 1.1 L-15.55 0.35 -15.6 0.2 -15.65 -1.6 -15.65 -1.75 -15.55 -5.1 -15.3 -5.55 -14.15 -8.65 -14.1 -8.7 -14.15 -8.65 -14.15 -8.7 -14.1 -8.7 M-2.55 -9.3 L-2.0 -9.55 -0.8 -9.2 -0.6 -9.9 0.95 -9.8 0.95 -10.0 1.1 -11.2 1.7 -9.85 2.4 -8.7 3.0 -10.0 3.25 -10.5 3.35 -10.0 Q3.4 -9.3 3.75 -8.7 L3.55 -6.15 3.4 -5.5 3.3 -5.1 3.15 -4.15 2.7 -5.1 2.55 -5.5 2.5 -5.55 2.25 -6.15 1.8 -9.2 1.7 -6.15 1.55 -5.5 1.5 -5.1 1.5 -4.05 0.9 -5.1 0.75 -5.35 0.7 -5.5 0.3 -6.15 Q0.15 -6.5 -0.05 -8.25 L-0.1 -6.15 -0.25 -5.5 -0.3 -5.1 -0.5 -3.7 -1.4 -5.1 -1.65 -5.5 -1.8 -5.75 -2.0 -6.15 -2.55 -9.3 M3.95 -8.45 L5.1 -9.9 Q5.35 -9.0 5.65 -8.85 5.75 -8.7 5.95 -8.7 L7.05 -9.05 7.5 -9.3 7.65 -9.4 8.05 -9.55 8.55 -9.2 Q8.85 -8.75 9.05 -8.85 L9.35 -9.4 9.6 -10.0 10.8 -10.15 11.3 -10.15 12.05 -10.15 12.05 -10.0 12.2 -9.8 12.25 -9.3 12.75 -9.55 12.8 -9.55 13.2 -9.75 13.2 -8.95 13.25 -8.25 13.2 -8.0 13.65 -8.25 13.8 -8.35 14.35 -9.05 Q14.3 -8.9 14.6 -8.35 L14.7 -8.25 14.85 -7.65 15.3 -7.65 Q15.4 -7.55 15.65 -7.75 L16.25 -9.8 16.5 -6.15 16.75 -4.9 17.1 -0.9 16.6 -1.15 Q16.2 -1.2 16.0 -1.4 L15.65 -5.1 15.55 -5.4 15.45 -5.65 15.4 -5.4 15.35 -5.1 15.15 -4.4 14.7 -3.15 13.9 -4.4 13.6 -5.1 13.55 -5.4 13.55 -5.75 13.4 -5.4 13.3 -5.1 13.2 -4.8 12.8 -3.9 Q12.5 -4.25 12.45 -4.95 L12.45 -5.1 12.4 -5.4 12.4 -5.5 12.4 -6.1 12.15 -5.5 12.1 -5.4 12.05 -5.1 12.0 -4.9 11.75 -3.65 11.5 -3.65 Q11.05 -4.1 10.7 -5.05 L10.7 -5.1 10.55 -5.5 10.3 -6.15 10.1 -8.1 10.1 -6.15 10.05 -5.5 10.05 -5.4 10.05 -5.1 10.0 -4.25 9.55 -5.1 9.35 -5.45 9.35 -5.5 9.1 -6.15 8.9 -8.25 8.85 -8.35 8.85 -8.25 9.0 -6.15 9.1 -5.5 9.1 -5.1 9.1 -4.9 9.1 -4.45 8.9 -5.1 8.7 -5.5 8.45 -6.15 8.2 -8.25 8.15 -8.45 8.05 -6.15 7.85 -5.5 7.7 -5.1 7.0 -4.05 Q6.75 -4.4 6.55 -5.1 L6.4 -5.5 6.15 -6.15 5.65 -8.85 5.55 -6.15 5.45 -5.5 5.4 -5.4 5.35 -5.1 5.2 -3.9 4.5 -5.05 4.5 -5.1 4.35 -5.5 4.15 -6.15 4.1 -6.4 3.95 -8.45 M-11.6 -2.3 L-10.85 -1.2 -11.45 -5.05 -11.85 -3.65 -11.6 -2.3 M-13.55 -2.3 Q-13.4 -2.75 -13.4 -3.4 L-13.65 -4.8 -13.95 -1.6 -13.55 -2.3 M-9.55 -6.05 L-9.4 -5.5 -9.3 -5.1 -8.85 -3.45 -8.25 -1.35 Q-8.0 -2.1 -8.05 -3.1 -8.15 -4.25 -8.65 -5.1 L-8.95 -5.5 -9.55 -6.05" fill="#ffffff" fill-opacity="0.0" fill-rule="evenodd" stroke="none"/>
    <path d="M-3.1 -9.3 L-2.55 -9.3 -2.0 -6.15 -1.8 -5.75 -1.65 -5.5 -1.4 -5.1 -0.5 -3.7 -0.3 -5.1 -0.25 -5.5 -0.1 -6.15 -0.05 -8.25 Q0.15 -6.5 0.3 -6.15 L0.7 -5.5 0.75 -5.35 0.9 -5.1 1.5 -4.05 1.5 -5.1 1.55 -5.5 1.7 -6.15 1.8 -9.2 2.25 -6.15 2.5 -5.55 2.55 -5.5 2.7 -5.1 3.15 -4.15 3.3 -5.1 3.4 -5.5 3.55 -6.15 3.75 -8.7 3.85 -8.45 3.95 -8.45 4.1 -6.4 4.15 -6.15 4.35 -5.5 4.5 -5.1 4.5 -5.05 5.2 -3.9 5.35 -5.1 5.4 -5.4 5.45 -5.5 5.55 -6.15 5.65 -8.85 6.15 -6.15 6.4 -5.5 6.55 -5.1 Q6.75 -4.4 7.0 -4.05 L7.7 -5.1 7.85 -5.5 8.05 -6.15 8.15 -8.45 8.2 -8.25 8.45 -6.15 8.7 -5.5 8.9 -5.1 9.1 -4.45 9.1 -4.9 9.1 -5.1 9.1 -5.5 9.0 -6.15 8.85 -8.25 8.85 -8.35 8.9 -8.25 9.1 -6.15 9.35 -5.5 9.35 -5.45 9.55 -5.1 10.0 -4.25 10.05 -5.1 10.05 -5.4 10.05 -5.5 10.1 -6.15 10.1 -8.1 10.3 -6.15 10.55 -5.5 10.7 -5.1 10.7 -5.05 Q11.05 -4.1 11.5 -3.65 L11.25 -3.65 11.2 -3.65 Q9.6 -2.25 9.65 -1.6 9.35 -2.05 7.0 -2.7 L3.65 -3.35 Q0.3 -3.4 -1.8 -1.95 L-3.6 0.2 -3.7 0.4 -3.8 0.4 -3.95 0.7 -4.6 2.3 -5.0 4.65 -8.25 3.8 -10.15 3.2 -11.5 2.8 -10.1 3.05 -8.4 3.25 -5.35 2.8 -7.5 2.15 Q-9.25 1.85 -9.55 1.45 L-7.5 1.3 -5.6 1.15 -6.65 0.9 -7.4 0.4 -6.45 0.4 -5.35 0.7 -5.65 0.4 -5.85 0.4 -6.2 0.2 -6.3 0.1 -7.05 -0.5 -6.0 -0.35 -5.05 0.0 -5.9 -1.9 Q-6.6 -3.65 -6.65 -5.1 L-6.65 -5.5 -6.65 -5.8 -6.55 -5.3 -6.5 -5.1 -6.45 -5.05 -6.15 -4.05 Q-5.5 -2.4 -4.4 -1.2 L-4.2 -1.1 Q-5.05 -3.0 -5.0 -4.55 L-3.3 -2.45 Q-2.95 -3.4 -3.05 -5.1 L-3.05 -5.15 -3.05 -5.5 -3.05 -6.15 -3.1 -9.3 M16.0 -1.4 L15.8 -1.6 15.45 -1.95 15.35 -2.05 Q14.25 -3.0 13.35 -3.4 L11.75 -3.65 12.0 -4.9 12.05 -5.1 12.1 -5.4 12.15 -5.5 12.4 -6.1 12.4 -5.5 12.4 -5.4 12.45 -5.1 12.45 -4.95 Q12.5 -4.25 12.8 -3.9 L13.2 -4.8 13.3 -5.1 13.4 -5.4 13.55 -5.75 13.55 -5.4 13.6 -5.1 13.9 -4.4 14.7 -3.15 15.15 -4.4 15.35 -5.1 15.4 -5.4 15.45 -5.65 15.55 -5.4 15.65 -5.1 16.0 -1.4 M-5.0 4.7 L-5.1 5.9 -5.15 7.9 -6.55 12.75 Q-9.2 13.8 -8.55 18.4 -7.9 22.95 -6.2 25.2 L-7.05 24.55 -8.25 23.45 -11.3 19.45 -13.55 15.2 -10.9 12.3 -11.95 12.45 Q-11.1 11.0 -9.95 10.0 L-7.3 8.1 -10.15 8.9 -13.05 9.35 Q-8.85 7.4 -6.25 6.45 L-9.2 6.65 -12.15 6.7 -8.45 5.95 -5.0 4.7 M-11.6 -2.3 L-11.85 -3.65 -11.45 -5.05 -10.85 -1.2 -11.6 -2.3 M-13.55 -2.3 L-13.95 -1.6 -13.65 -4.8 -13.4 -3.4 Q-13.4 -2.75 -13.55 -2.3 M-9.55 -6.05 L-8.95 -5.5 -8.65 -5.1 Q-8.15 -4.25 -8.05 -3.1 -8.0 -2.1 -8.25 -1.35 L-8.85 -3.45 -9.3 -5.1 -9.4 -5.5 -9.55 -6.05" fill="#000000" fill-opacity="0.2" fill-rule="evenodd" stroke="none"/>
    <path d="M16.25 -9.8 L16.5 -6.15 16.75 -4.9 17.1 -0.9 16.6 -1.15 Q16.2 -1.2 16.0 -1.4 L15.8 -1.6 15.45 -1.95 15.35 -2.05 Q14.25 -3.0 13.35 -3.4 L11.75 -3.65 11.5 -3.65 11.25 -3.65 11.2 -3.65 Q9.6 -2.25 9.65 -1.6 9.35 -2.05 7.0 -2.7 L3.65 -3.35 Q0.3 -3.4 -1.8 -1.95 L-3.6 0.2 -3.7 0.4 M-3.8 0.4 L-3.95 0.7 -4.6 2.3 -5.0 4.65 M-5.0 4.7 L-5.1 5.9 -5.15 7.9 -6.55 12.75 Q-9.2 13.8 -8.55 18.4 -7.9 22.95 -6.2 25.2 L-7.05 24.55 -8.25 23.45 -11.3 19.45 -13.55 15.2 -14.2 13.65 -14.85 9.95 -14.9 9.85 Q-15.3 8.45 -15.55 1.1 L-15.55 0.35 -15.6 0.2 -15.65 -1.6 -15.65 -1.75 -15.55 -5.1 -15.3 -5.55 -14.15 -8.65 -14.2 -8.65 M-14.15 -8.65 L-14.1 -8.7 M-14.15 -8.7 L-14.15 -8.65" fill="none" stroke="#000000" stroke-linecap="square" stroke-linejoin="round" stroke-opacity="0.6" stroke-width="1.0"/>
    <path d="M11.3 -10.15 L10.2 -12.9 8.05 -12.15 6.5 -14.55 4.55 -12.95 3.4 -14.55 2.0 -13.6 1.15 -14.9 1.15 -15.05 1.1 -14.9 1.05 -15.05 1.05 -14.9 0.2 -13.6 -1.15 -14.55 -2.75 -13.05 -4.3 -14.55 -5.5 -11.95 -8.0 -12.9 -9.0 -10.35 -10.05 -11.1 -10.65 -10.55 -11.9 -10.5 -14.1 -8.75 -14.1 -8.7 -14.15 -8.7 -14.1 -8.75 M11.3 -10.15 L12.25 -11.1 12.8 -10.5 12.85 -10.5 Q13.6 -10.0 14.1 -10.5 L15.65 -7.75 16.25 -9.8 M-14.2 -8.65 L-14.15 -8.7" fill="none" stroke="#000000" stroke-linecap="square" stroke-linejoin="round" stroke-opacity="0.4" stroke-width="1.0"/>
  </g>
</svg>
