<?xml version="1.0" encoding="UTF-8" standalone="no"?>
<svg xmlns:xlink="http://www.w3.org/1999/xlink" height="40.65px" width="35.3px" xmlns="http://www.w3.org/2000/svg">
  <g transform="matrix(1.0, 0.0, 0.0, 1.0, 19.95, 16.05)">
    <path d="M10.65 -13.9 L10.85 -13.7 11.55 -12.05 11.6 -10.55 11.1 -11.0 10.6 -11.45 10.6 -11.05 10.7 -10.7 Q8.85 -12.35 8.45 -13.9 L8.6 -12.45 8.7 -11.0 7.9 -11.7 7.15 -12.5 7.3 -11.8 7.4 -11.1 6.3 -12.25 5.15 -13.4 5.2 -12.9 5.2 -12.35 4.55 -12.75 3.8 -13.15 Q3.95 -12.5 4.45 -11.75 L2.95 -13.0 1.25 -14.25 1.5 -14.65 3.2 -13.05 2.75 -13.95 2.7 -14.95 3.8 -14.05 4.8 -13.05 Q4.55 -14.25 4.65 -14.95 L5.45 -13.9 6.2 -12.9 6.35 -13.55 6.6 -14.2 7.6 -12.6 8.0 -13.7 8.45 -14.8 9.05 -13.6 9.8 -12.5 10.0 -12.8 10.2 -13.05 10.65 -12.6 11.05 -11.95 10.8 -12.9 10.65 -13.9 M-7.15 -13.2 L-7.25 -13.8 Q-7.4 -14.65 -7.2 -15.25 -6.95 -14.25 -6.4 -13.65 L-4.8 -12.2 -3.2 -10.75 -4.75 -11.55 -6.45 -12.1 -5.45 -11.3 -7.45 -11.45 -9.4 -11.7 -8.4 -10.7 -10.6 -11.05 -10.2 -10.25 -9.45 -9.55 -11.3 -10.75 Q-12.05 -11.6 -12.25 -12.6 L-12.2 -12.8 -11.25 -11.3 -11.3 -11.85 -11.3 -12.35 -10.35 -12.0 -9.35 -11.6 -10.0 -12.35 -10.55 -13.15 Q-9.6 -12.9 -8.75 -12.1 L-8.75 -12.6 -8.7 -13.1 Q-7.75 -13.0 -7.0 -12.4 L-7.1 -12.95 -7.15 -13.2 M-13.2 -9.45 Q-12.25 -8.6 -11.8 -8.8 L-12.25 -8.6 -12.75 -8.4 -13.05 -8.4 -13.35 -8.2 -14.9 -7.1 -13.4 -7.45 Q-12.55 -7.6 -11.95 -7.9 L-13.5 -6.2 -11.55 -6.65 -9.6 -7.25 -12.55 -5.35 -15.45 -3.4 Q-15.45 -4.2 -14.9 -5.2 L-16.15 -4.35 -17.4 -3.4 -16.75 -4.55 Q-16.5 -5.25 -16.6 -5.9 L-17.25 -5.95 -17.95 -6.0 -16.7 -7.7 -15.9 -8.5 -15.8 -8.6 -15.55 -8.6 -15.35 -8.8 -16.3 -8.85 -15.3 -9.1 -14.2 -8.95 Q-15.35 -9.85 -15.15 -10.75 L-14.25 -9.95 Q-13.7 -9.55 -13.2 -9.4 L-13.2 -9.45 M-18.75 0.75 L-16.4 -1.05 -14.0 -2.95 Q-15.3 -0.15 -15.7 1.85 L-14.75 0.55 -15.2 2.35 -15.55 4.2 -15.2 4.0 -14.9 3.75 Q-14.95 4.45 -15.5 5.6 L-16.2 7.4 -15.75 6.85 -15.3 6.35 -15.7 8.05 -15.75 8.4 -15.8 8.45 -16.05 9.5 -15.35 8.45 -15.3 8.45 -15.25 8.4 -13.6 5.6 -14.0 7.8 -14.15 8.4 -14.15 8.45 -14.2 8.45 -14.45 9.6 -13.45 8.45 -13.4 8.45 -13.35 8.4 -13.2 8.15 -12.05 6.05 -12.55 8.4 -12.55 8.45 -12.65 8.8 Q-12.9 10.25 -13.3 10.95 L-11.7 9.0 -11.2 8.45 -11.15 8.45 -11.1 8.4 -9.95 6.9 -10.65 8.4 -10.7 8.45 -10.75 8.45 -11.15 9.3 -12.2 11.5 -12.8 12.4 -13.4 13.35 -13.55 11.7 -14.2 12.55 -14.65 13.5 -14.35 11.55 -14.9 13.05 -15.0 13.7 -15.0 13.8 -15.0 14.35 -14.45 14.0 -13.85 13.8 -13.85 14.6 -13.95 15.4 -13.15 14.65 -12.25 14.0 -12.5 15.0 -12.75 16.05 -11.8 15.1 -10.9 14.0 -11.3 14.95 -11.55 15.9 -10.4 14.7 -10.7 13.8 -10.7 13.7 Q-10.8 13.05 -10.4 12.3 L-9.3 11.0 -8.45 10.7 -8.25 9.55 -10.7 11.25 -8.9 8.7 -8.7 8.45 -8.65 8.4 -7.8 6.65 -7.45 5.5 -7.8 5.9 -8.7 6.8 -9.95 8.15 -7.8 4.0 -7.05 2.75 -7.8 2.85 -8.35 3.1 -9.5 3.95 -8.05 1.75 -7.8 1.4 -6.85 -0.7 -7.8 -0.05 -8.4 0.35 -9.9 1.4 -8.4 -0.95 -7.8 -1.7 -6.8 -3.1 -7.8 -2.85 -7.95 -2.85 -9.1 -2.65 -7.8 -3.75 -7.6 -4.0 -6.2 -5.5 Q-6.65 -5.95 -7.7 -6.25 L-7.8 -6.25 -9.35 -6.55 -7.8 -7.05 -7.3 -7.15 -6.15 -7.5 -6.55 -8.15 -6.8 -8.4 -5.0 -8.4 -4.1 -8.15 -4.15 -8.4 -4.25 -8.6 -4.75 -9.45 -5.9 -10.7 -3.3 -8.7 -3.55 -9.65 -3.95 -10.55 Q-3.3 -10.3 -2.65 -9.75 L-1.55 -8.85 -1.65 -9.7 -1.8 -10.55 -0.4 -8.6 -0.3 -8.4 -0.2 -8.4 -0.15 -8.6 Q-0.15 -9.3 -0.45 -10.25 L-1.1 -12.2 Q-0.15 -11.7 0.5 -10.7 L1.45 -8.85 Q1.15 -9.7 1.15 -10.55 L1.95 -9.35 2.2 -8.6 2.25 -8.4 2.3 -8.4 2.3 -7.95 2.3 -8.4 2.3 -8.6 2.3 -9.1 2.45 -10.15 3.35 -8.6 3.4 -8.4 3.45 -8.4 3.65 -7.5 3.6 -8.4 3.55 -8.4 3.55 -8.6 3.25 -10.2 2.3 -12.6 Q3.35 -11.9 4.1 -10.55 L4.8 -8.6 4.85 -8.5 4.85 -8.4 4.9 -8.6 4.95 -9.3 4.95 -10.55 5.35 -9.1 5.55 -8.6 5.65 -8.4 5.7 -8.4 5.9 -7.45 5.95 -8.4 6.0 -8.4 6.1 -8.6 6.45 -9.05 6.65 -8.85 6.85 -8.6 6.45 -10.25 Q6.0 -11.3 6.05 -11.85 L7.5 -10.2 8.6 -8.6 8.7 -8.4 8.7 -8.6 8.7 -9.4 Q8.7 -9.95 8.85 -10.3 L9.4 -9.7 9.9 -9.05 9.5 -10.4 9.1 -11.75 10.55 -9.85 11.1 -8.6 11.1 -8.4 11.1 -7.75 11.35 -8.4 11.4 -8.4 11.55 -8.6 12.7 -10.0 12.7 -9.15 12.75 -8.6 12.75 -8.4 12.85 -8.4 13.0 -8.6 13.25 -9.35 13.4 -10.55 13.6 -9.25 13.7 -8.6 13.7 -8.4 13.75 -8.4 13.85 -7.9 14.25 -8.4 14.35 -8.4 14.5 -8.6 14.65 -9.0 14.55 -8.55 14.5 -8.4 14.05 -7.1 Q14.2 -6.7 13.7 -6.15 12.05 -4.2 4.35 -5.1 L-0.7 -5.95 -2.9 -6.45 Q-4.1 -5.7 -4.75 -3.95 -5.35 -2.4 -5.55 -0.05 L-5.6 3.8 -5.55 4.65 -6.05 6.9 -6.1 8.4 -6.1 8.45 -5.95 9.7 -5.25 11.8 -6.5 12.95 Q-7.15 13.2 -7.55 13.8 L-7.65 13.8 Q-9.55 16.05 -7.0 23.95 L-9.9 20.4 -11.0 20.0 Q-10.85 20.3 -10.85 20.8 L-10.9 21.65 -11.4 20.2 Q-11.65 19.25 -12.05 18.85 L-12.5 18.7 -13.05 18.45 -13.45 17.8 -13.8 17.05 -13.95 17.65 -14.0 18.25 -15.0 15.8 -15.3 16.1 -15.35 15.1 Q-15.45 14.65 -15.7 14.3 L-16.0 14.95 -16.35 15.6 -16.35 13.85 -16.35 13.8 Q-16.4 12.7 -16.6 11.8 L-17.35 13.55 Q-17.3 10.95 -17.4 9.85 L-17.9 10.55 -17.7 8.8 -17.6 8.4 -17.4 6.65 -17.95 7.25 -18.5 7.85 Q-18.55 6.95 -18.2 5.55 L-17.8 3.3 -18.0 3.5 -18.15 3.75 -17.65 2.0 -16.95 0.55 -18.75 0.75 M4.85 -8.4 L4.85 -8.15 4.85 -8.4 M-15.9 -8.5 Q-15.65 -8.5 -15.55 -8.6 -15.65 -8.5 -15.9 -8.5 M-11.3 -2.2 L-10.2 -3.45 -11.0 -1.25 -9.4 -1.75 -12.35 3.75 -11.0 -0.25 -13.3 1.7 Q-12.55 -0.55 -11.3 -2.2" fill="#000000" fill-opacity="0.2" fill-rule="evenodd" stroke="none"/>
    <path d="M1.25 -14.25 L2.95 -13.0 4.45 -11.75 Q3.95 -12.5 3.8 -13.15 L4.55 -12.75 5.2 -12.35 5.2 -12.9 5.15 -13.4 6.3 -12.25 7.4 -11.1 7.3 -11.8 7.15 -12.5 7.9 -11.7 8.7 -11.0 8.6 -12.45 8.45 -13.9 Q8.85 -12.35 10.7 -10.7 L10.6 -11.05 10.6 -11.45 11.1 -11.0 11.6 -10.55 11.55 -12.05 10.85 -13.7 10.65 -13.9 11.9 -12.6 12.8 -11.15 12.8 -12.35 12.65 -13.55 Q13.75 -12.65 14.35 -11.2 14.8 -10.05 14.65 -9.0 L14.5 -8.6 14.35 -8.4 14.25 -8.4 13.85 -7.9 13.75 -8.4 13.7 -8.4 13.7 -8.6 13.6 -9.25 13.4 -10.55 13.25 -9.35 13.0 -8.6 12.85 -8.4 12.75 -8.4 12.75 -8.6 12.7 -9.15 12.7 -10.0 11.55 -8.6 11.4 -8.4 11.35 -8.4 11.1 -7.75 11.1 -8.4 11.1 -8.6 10.55 -9.85 9.1 -11.75 9.5 -10.4 9.9 -9.05 9.4 -9.7 8.85 -10.3 Q8.7 -9.95 8.7 -9.4 L8.7 -8.6 8.7 -8.4 8.6 -8.6 7.5 -10.2 6.05 -11.85 Q6.0 -11.3 6.45 -10.25 L6.85 -8.6 6.65 -8.85 6.45 -9.05 6.1 -8.6 6.0 -8.4 5.95 -8.4 5.9 -7.45 5.7 -8.4 5.65 -8.4 5.55 -8.6 5.35 -9.1 4.95 -10.55 4.95 -9.3 4.9 -8.6 4.85 -8.4 4.85 -8.5 4.8 -8.6 4.1 -10.55 Q3.35 -11.9 2.3 -12.6 L3.25 -10.2 3.55 -8.6 3.55 -8.4 3.6 -8.4 3.65 -7.5 3.45 -8.4 3.4 -8.4 3.35 -8.6 2.45 -10.15 2.3 -9.1 2.3 -8.6 2.3 -8.4 2.3 -7.95 2.3 -8.4 2.25 -8.4 2.2 -8.6 1.95 -9.35 1.15 -10.55 Q1.15 -9.7 1.45 -8.85 L0.5 -10.7 Q-0.15 -11.7 -1.1 -12.2 L-0.45 -10.25 Q-0.15 -9.3 -0.15 -8.6 L-0.2 -8.4 -0.3 -8.4 -0.4 -8.6 -1.8 -10.55 -1.65 -9.7 -1.55 -8.85 -2.65 -9.75 Q-3.3 -10.3 -3.95 -10.55 L-3.55 -9.65 -3.3 -8.7 -5.9 -10.7 -4.75 -9.45 -4.25 -8.6 -4.15 -8.4 -4.1 -8.15 -5.0 -8.4 -6.8 -8.4 -6.55 -8.15 -6.15 -7.5 -7.3 -7.15 -7.8 -7.05 -9.35 -6.55 -7.8 -6.25 -7.7 -6.25 Q-6.65 -5.95 -6.2 -5.5 L-7.6 -4.0 -7.8 -3.75 -9.1 -2.65 -7.95 -2.85 -7.8 -2.85 -6.8 -3.1 -7.8 -1.7 -8.4 -0.95 -9.9 1.4 -8.4 0.35 -7.8 -0.05 -6.85 -0.7 -7.8 1.4 -8.05 1.75 -9.5 3.95 -8.35 3.1 -7.8 2.85 -7.05 2.75 -7.8 4.0 -9.95 8.15 -8.7 6.8 -7.8 5.9 -7.45 5.5 -7.8 6.65 -8.65 8.4 -8.7 8.45 -8.9 8.7 -10.7 11.25 -8.25 9.55 -8.45 10.7 -9.3 11.0 -10.4 12.3 Q-10.8 13.05 -10.7 13.7 L-10.7 13.8 -10.4 14.7 -11.55 15.9 -11.3 14.95 -10.9 14.0 -11.8 15.1 -12.75 16.05 -12.5 15.0 -12.25 14.0 -13.15 14.65 -13.95 15.4 -13.85 14.6 -13.85 13.8 -14.45 14.0 -15.0 14.35 -15.0 13.8 -15.0 13.7 -14.9 13.05 -14.35 11.55 -14.65 13.5 -14.2 12.55 -13.55 11.7 -13.4 13.35 -12.8 12.4 -12.2 11.5 -11.15 9.3 -10.75 8.45 -10.7 8.45 -10.65 8.4 -9.95 6.9 -11.1 8.4 -11.15 8.45 -11.2 8.45 -11.7 9.0 -13.3 10.95 Q-12.9 10.25 -12.65 8.8 L-12.55 8.45 -12.55 8.4 -12.05 6.05 -13.2 8.15 -13.35 8.4 -13.4 8.45 -13.45 8.45 -14.45 9.6 -14.2 8.45 -14.15 8.45 -14.15 8.4 -14.0 7.8 -13.6 5.6 -15.25 8.4 -15.3 8.45 -15.35 8.45 -16.05 9.5 -15.8 8.45 -15.75 8.4 -15.7 8.05 -15.3 6.35 -15.75 6.85 -16.2 7.4 -15.5 5.6 Q-14.95 4.45 -14.9 3.75 L-15.2 4.0 -15.55 4.2 -15.2 2.35 -14.75 0.55 -15.7 1.85 Q-15.3 -0.15 -14.0 -2.95 L-16.4 -1.05 -18.75 0.75 -18.8 0.75 -19.3 0.75 -17.85 -1.0 -16.55 -2.8 -17.15 -2.85 -17.75 -2.95 -17.4 -3.4 -16.15 -4.35 -14.9 -5.2 Q-15.45 -4.2 -15.45 -3.4 L-12.55 -5.35 -9.6 -7.25 -11.55 -6.65 -13.5 -6.2 -11.95 -7.9 Q-12.55 -7.6 -13.4 -7.45 L-14.9 -7.1 -13.35 -8.2 -13.05 -8.4 -12.75 -8.4 -12.25 -8.6 -11.8 -8.8 Q-12.25 -8.6 -13.2 -9.45 L-13.15 -10.0 -13.15 -10.6 -12.85 -10.2 -12.6 -9.8 -12.5 -11.3 -12.25 -12.6 Q-12.05 -11.6 -11.3 -10.75 L-9.45 -9.55 -10.2 -10.25 -10.6 -11.05 -8.4 -10.7 -9.4 -11.7 -7.45 -11.45 -5.45 -11.3 -6.45 -12.1 -4.75 -11.55 -3.2 -10.75 -4.8 -12.2 -6.4 -13.65 Q-6.95 -14.25 -7.2 -15.25 -7.4 -14.65 -7.25 -13.8 L-7.15 -13.2 -7.3 -13.9 Q-7.45 -14.8 -7.15 -15.4 L-6.0 -14.25 -4.8 -13.15 -4.6 -13.6 -4.35 -14.05 -3.85 -13.4 -3.5 -12.65 Q-3.0 -12.95 -2.65 -13.55 L-2.2 -14.65 -1.15 -13.35 -1.3 -14.95 -0.2 -13.65 -0.15 -14.15 -0.15 -14.65 0.65 -13.2 1.25 -14.25 M4.85 -8.4 L4.85 -8.15 4.85 -8.4 M-16.6 -5.9 Q-16.5 -5.25 -16.75 -4.55 L-17.4 -3.4 -16.9 -4.3 Q-16.5 -5.1 -16.6 -5.9 M-11.3 -2.2 Q-12.55 -0.55 -13.3 1.7 L-11.0 -0.25 -12.35 3.75 -9.4 -1.75 -11.0 -1.25 -10.2 -3.45 -11.3 -2.2" fill="#ffffff" fill-opacity="0.0" fill-rule="evenodd" stroke="none"/>
    <path d="M10.65 -13.9 L10.8 -12.9 11.05 -11.95 10.65 -12.6 10.2 -13.05 10.0 -12.8 9.8 -12.5 9.05 -13.6 8.45 -14.8 8.0 -13.7 7.6 -12.6 6.6 -14.2 6.35 -13.55 6.2 -12.9 5.45 -13.9 4.65 -14.95 Q4.55 -14.25 4.8 -13.05 L3.8 -14.05 2.7 -14.95 2.75 -13.95 3.2 -13.05 1.5 -14.65 1.25 -14.25 0.65 -13.2 -0.15 -14.65 -0.15 -14.15 -0.2 -13.65 -1.3 -14.95 -1.15 -13.35 -2.2 -14.65 -2.65 -13.55 Q-3.0 -12.95 -3.5 -12.65 L-3.85 -13.4 -4.35 -14.05 -4.6 -13.6 -4.8 -13.15 -6.0 -14.25 -7.15 -15.4 Q-7.45 -14.8 -7.3 -13.9 L-7.15 -13.2 -7.1 -12.95 -7.0 -12.4 Q-7.75 -13.0 -8.7 -13.1 L-8.75 -12.6 -8.75 -12.1 Q-9.6 -12.9 -10.55 -13.15 L-10.0 -12.35 -9.35 -11.6 -10.35 -12.0 -11.3 -12.35 -11.3 -11.85 -11.25 -11.3 -12.2 -12.8 -12.25 -12.6 -12.5 -11.3 -12.6 -9.8 -12.85 -10.2 -13.15 -10.6 -13.15 -10.0 -13.2 -9.45 -13.2 -9.4 Q-13.7 -9.55 -14.25 -9.95 L-15.15 -10.75 Q-15.35 -9.85 -14.2 -8.95 L-15.3 -9.1 -16.3 -8.85 -15.35 -8.8 -15.55 -8.6 Q-15.65 -8.5 -15.9 -8.5 L-16.7 -7.7 -17.95 -6.0 -17.25 -5.95 -16.6 -5.9 Q-16.5 -5.1 -16.9 -4.3 L-17.4 -3.4 -17.75 -2.95 -17.15 -2.85 -16.55 -2.8 -17.85 -1.0 -19.3 0.75 -18.8 0.75 -18.75 0.75 -16.95 0.55 -17.65 2.0 -18.15 3.75 -18.0 3.5 -17.8 3.3 -18.2 5.55 Q-18.55 6.95 -18.5 7.85 L-17.95 7.25 -17.4 6.65 -17.6 8.4 -17.7 8.8 -17.9 10.55 -17.4 9.85 Q-17.3 10.95 -17.35 13.55 L-16.6 11.8 Q-16.4 12.7 -16.35 13.8 L-16.35 13.85 -16.35 15.6 -16.0 14.95 -15.7 14.3 Q-15.45 14.65 -15.35 15.1 L-15.3 16.1 -15.0 15.8 -14.0 18.25 -13.95 17.65 -13.8 17.05 -13.45 17.8 -13.05 18.45 -12.5 18.7 -12.05 18.85 Q-11.65 19.25 -11.4 20.2 L-10.9 21.65 -10.85 20.8 Q-10.85 20.3 -11.0 20.0 L-9.9 20.4 -7.0 23.95 M14.65 -9.0 Q14.8 -10.05 14.35 -11.2 13.75 -12.65 12.65 -13.55 L12.8 -12.35 12.8 -11.15 11.9 -12.6 10.65 -13.9 M14.5 -8.4 L14.05 -7.1 Q14.2 -6.7 13.7 -6.15 M14.5 -8.4 L14.55 -8.55 14.65 -9.0 M-15.8 -8.6 L-15.9 -8.5" fill="none" stroke="#000000" stroke-linecap="square" stroke-linejoin="round" stroke-opacity="0.4" stroke-width="1.0"/>
    <path d="M13.7 -6.15 Q12.05 -4.2 4.35 -5.1 L-0.7 -5.95 -2.9 -6.45 Q-4.1 -5.7 -4.75 -3.95 -5.35 -2.4 -5.55 -0.05 L-5.6 3.8 -5.55 4.65 -6.05 6.9 -6.1 8.4 -6.1 8.45 -5.95 9.7 -5.25 11.8 -6.5 12.95 Q-7.15 13.2 -7.55 13.8 M-7.65 13.8 Q-9.55 16.05 -7.0 23.95" fill="none" stroke="#000000" stroke-linecap="square" stroke-linejoin="round" stroke-opacity="0.6" stroke-width="1.0"/>
  </g>
</svg>
