<?xml version="1.0" encoding="UTF-8" standalone="no"?>
<svg xmlns:xlink="http://www.w3.org/1999/xlink" height="62.6px" width="44.2px" xmlns="http://www.w3.org/2000/svg">
  <g transform="matrix(1.0, 0.0, 0.0, 1.0, 25.6, 16.4)">
    <path d="M-22.45 19.1 L-22.55 19.15 -21.0 15.7 Q-20.45 14.25 -20.25 12.95 L-20.8 11.85 Q-21.7 9.9 -22.2 8.0 -22.7 6.15 -20.2 1.0 L-19.05 -1.25 -18.25 -3.75 Q-16.4 -8.05 -13.2 -11.0 -9.8 -14.1 -5.45 -15.2 -1.4 -16.2 3.1 -15.4 L6.2 -14.65 9.05 -13.85 12.65 -12.6 Q13.85 -12.05 15.05 -11.0 L17.05 -9.3 17.95 -8.25 17.95 -8.2 16.4 -3.4 15.1 -1.55 14.4 -1.05 Q13.85 -0.7 13.15 -0.5 L11.05 0.2 Q8.6 1.15 8.15 2.8 8.25 1.2 9.35 -0.95 L11.15 -4.5 6.5 -1.55 Q3.95 0.25 2.7 2.25 L3.45 0.25 4.4 -1.75 5.85 -3.75 6.7 -4.9 4.25 -2.15 Q1.95 0.15 1.15 1.4 -0.15 3.45 -0.9 6.0 L0.0 4.25 -1.15 6.6 Q-2.05 8.3 -1.8 11.1 L-1.6 13.4 -1.7 15.7 -1.85 16.3 -2.9 20.0 -3.0 20.4 Q-2.75 17.6 -2.9 15.5 -3.1 12.6 -4.05 10.7 -4.0 12.65 -4.5 14.95 L-5.55 19.0 -6.1 21.95 Q-5.65 21.2 -5.1 19.25 -4.55 17.35 -4.0 16.5 L-4.0 16.75 -4.65 18.3 Q-5.45 20.0 -5.55 22.5 L-5.4 26.8 Q-5.1 29.5 -4.05 32.45 -2.8 36.1 -1.25 37.4 -2.65 37.2 -4.1 35.3 L-6.05 32.1 -4.95 36.5 Q-4.15 39.05 -2.85 40.4 -6.25 39.5 -8.55 36.65 L-8.35 35.2 Q-8.0 32.75 -8.0 29.6 L-7.95 25.25 Q-7.95 23.1 -6.95 18.95 -5.95 14.7 -5.95 13.25 -6.85 15.45 -7.5 18.7 L-8.65 24.2 Q-8.95 25.35 -9.65 26.35 L-11.2 28.2 Q-12.0 29.2 -12.65 30.7 L-13.85 33.35 Q-14.4 29.3 -13.6 26.7 L-12.1 23.65 Q-11.05 21.8 -10.85 20.65 L-13.75 25.3 Q-15.55 28.05 -16.15 30.2 -16.6 28.3 -16.15 26.25 L-15.0 22.65 -13.7 19.05 Q-13.1 17.05 -13.2 15.3 -14.2 17.4 -16.0 19.55 L-15.05 14.6 Q-14.35 11.4 -14.4 9.45 -15.4 11.75 -17.4 14.1 L-21.3 18.05 -22.35 19.05 -22.45 19.1 -22.35 19.05 -22.4 19.1 -22.45 19.1 M0.8 -6.45 L-1.15 -4.1 Q-4.2 0.7 -5.8 10.2 L-3.55 3.35 Q-0.8 -4.1 1.6 -7.0 L0.8 -6.45 M1.45 -12.6 L3.6 -12.2 Q-5.9 -16.05 -11.3 -9.7 -13.0 -7.7 -14.1 -4.95 L-14.8 -2.6 Q-11.45 -11.2 -3.6 -12.55 -1.15 -13.0 1.45 -12.6 M-10.25 -4.8 L-9.0 -7.2 Q-12.35 -4.9 -14.05 -2.15 -15.65 0.4 -16.1 3.85 L-15.4 1.4 Q-14.65 -0.15 -13.5 -1.05 -14.4 0.15 -14.65 2.8 L-15.05 6.95 -13.65 3.05 Q-12.65 0.65 -11.6 -0.6 L-7.6 -4.8 -3.1 -8.15 Q-5.6 -7.55 -7.8 -6.05 -10.2 -4.4 -11.2 -2.35 L-10.25 -4.8 M-5.9 2.7 Q-8.35 7.2 -9.2 13.2 L-9.8 18.2 -8.35 13.55 -6.0 6.8 -4.35 2.05 -3.6 -0.6 -4.3 0.25 -5.9 2.7 M-20.15 7.45 L-19.8 2.85 -21.0 7.0 Q-21.25 8.25 -20.65 10.95 L-20.2 12.6 -20.2 12.05 -20.15 7.45" fill="#ffffff" fill-opacity="0.0" fill-rule="evenodd" stroke="none"/>
    <path d="M0.8 -6.45 L1.6 -7.0 Q-0.8 -4.1 -3.55 3.35 L-5.8 10.2 Q-4.2 0.7 -1.15 -4.1 L0.8 -6.45 M1.45 -12.6 Q-1.15 -13.0 -3.6 -12.55 -11.45 -11.2 -14.8 -2.6 L-14.1 -4.95 Q-13.0 -7.7 -11.3 -9.7 -5.9 -16.05 3.6 -12.2 L1.45 -12.6" fill="#ffffff" fill-opacity="0.2" fill-rule="evenodd" stroke="none"/>
    <path d="M-22.35 19.05 L-21.3 18.05 -17.4 14.1 Q-15.4 11.75 -14.4 9.45 -14.35 11.4 -15.05 14.6 L-16.0 19.55 Q-14.2 17.4 -13.2 15.3 -13.1 17.05 -13.7 19.05 L-15.0 22.65 -16.15 26.25 Q-16.6 28.3 -16.15 30.2 -15.55 28.05 -13.75 25.3 L-10.85 20.65 Q-11.05 21.8 -12.1 23.65 L-13.6 26.7 Q-14.4 29.3 -13.85 33.35 L-12.65 30.7 Q-12.0 29.2 -11.2 28.2 L-9.65 26.35 Q-8.95 25.35 -8.65 24.2 L-7.5 18.7 Q-6.85 15.45 -5.95 13.25 -5.95 14.7 -6.95 18.95 -7.95 23.1 -7.95 25.25 L-8.0 29.6 Q-8.0 32.75 -8.35 35.2 L-8.55 36.65 -8.9 38.05 Q-9.45 39.8 -11.5 42.0 -13.9 44.5 -14.5 45.55 L-12.7 41.25 Q-11.75 38.3 -12.05 36.8 -13.9 37.05 -15.75 40.1 L-17.15 42.65 -18.5 44.75 -19.15 39.25 Q-19.3 36.0 -18.75 33.75 L-18.65 33.35 -20.0 34.4 -20.75 35.25 -22.8 37.4 Q-23.95 38.55 -24.3 40.7 L-24.4 42.6 Q-25.6 38.4 -24.25 35.3 L-22.75 32.7 -20.8 30.2 Q-19.45 28.45 -19.35 26.45 L-19.4 26.05 -19.45 25.6 Q-21.05 26.95 -22.75 27.6 L-20.85 25.05 -19.0 22.35 -18.95 22.15 -20.4 23.0 -21.95 23.6 Q-21.25 23.25 -19.85 21.55 L-18.0 19.05 -17.4 17.6 -16.95 16.15 -17.25 16.25 -17.95 16.85 -18.05 16.95 -18.95 17.55 -20.15 18.1 -22.35 19.05 M-4.0 16.75 L-4.0 16.5 Q-4.55 17.35 -5.1 19.25 -5.65 21.2 -6.1 21.95 L-5.55 19.0 -4.5 14.95 Q-4.0 12.65 -4.05 10.7 -3.1 12.6 -2.9 15.5 -2.75 17.6 -3.0 20.4 L-3.05 20.65 -3.2 21.3 -3.45 23.9 Q-3.5 23.4 -4.05 22.4 L-4.6 20.7 Q-4.65 20.0 -4.3 18.6 L-4.0 16.75 M0.0 4.25 L-0.9 6.0 Q-0.15 3.45 1.15 1.4 1.95 0.15 4.25 -2.15 L6.7 -4.9 5.85 -3.75 4.4 -1.75 3.45 0.25 2.7 2.25 Q3.95 0.25 6.5 -1.55 L11.15 -4.5 9.35 -0.95 Q8.25 1.2 8.15 2.8 8.6 1.15 11.05 0.2 L13.15 -0.5 Q13.85 -0.7 14.4 -1.05 L15.1 -1.55 16.4 -3.4 17.95 -8.2 Q18.6 -2.65 17.2 -0.8 L17.15 -0.75 16.8 -0.3 16.65 -0.15 Q15.2 1.5 12.2 3.45 L12.05 3.6 11.75 3.75 8.8 5.6 7.2 6.6 5.9 7.5 4.8 8.4 Q3.85 9.2 3.25 9.95 L3.95 7.3 4.8 4.65 Q5.15 3.8 6.05 2.25 L7.35 -0.1 5.15 2.4 2.8 4.85 Q1.95 5.8 0.95 7.7 L-0.8 10.55 -0.45 7.4 0.0 4.25 M-5.9 2.7 L-4.3 0.25 -3.6 -0.6 -4.35 2.05 -6.0 6.8 -8.35 13.55 -9.8 18.2 -9.2 13.2 Q-8.35 7.2 -5.9 2.7 M-10.25 -4.8 L-11.2 -2.35 Q-10.2 -4.4 -7.8 -6.05 -5.6 -7.55 -3.1 -8.15 L-7.6 -4.8 -11.6 -0.6 Q-12.65 0.65 -13.65 3.05 L-15.05 6.95 -14.65 2.8 Q-14.4 0.15 -13.5 -1.05 -14.65 -0.15 -15.4 1.4 L-16.1 3.85 Q-15.65 0.4 -14.05 -2.15 -12.35 -4.9 -9.0 -7.2 L-10.25 -4.8" fill="#000000" fill-opacity="0.2" fill-rule="evenodd" stroke="none"/>
    <path d="M12.05 3.6 L12.2 3.45 Q15.2 1.5 16.65 -0.15 L16.8 -0.3 Q15.4 1.3 12.75 3.1 L12.05 3.6" fill="#945c47" fill-rule="evenodd" stroke="none"/>
    <path d="M17.95 -8.25 L17.05 -9.3 15.05 -11.0 Q13.85 -12.05 12.65 -12.6 L9.05 -13.85 6.2 -14.65 3.1 -15.4 Q-1.4 -16.2 -5.45 -15.2 -9.8 -14.1 -13.2 -11.0 -16.4 -8.05 -18.25 -3.75 L-19.05 -1.25 -20.2 1.0 Q-22.7 6.15 -22.2 8.0 -21.7 9.9 -20.8 11.85 L-20.25 12.95 Q-20.45 14.25 -21.0 15.7 L-22.55 19.15 -22.45 19.1 -22.35 19.05 -20.15 18.1 -18.95 17.55 -18.05 16.95 -17.95 16.85 -17.25 16.25 -16.95 16.15 -17.4 17.6 -18.0 19.05 -19.85 21.55 Q-21.25 23.25 -21.95 23.6 M-8.55 36.65 Q-6.25 39.5 -2.85 40.4 M-1.25 37.4 Q-2.8 36.1 -4.05 32.45 -5.1 29.5 -5.4 26.8 L-5.55 22.5 Q-5.45 20.0 -4.65 18.3 L-4.0 16.75 M-3.0 20.4 L-2.9 20.0 -1.85 16.3 -1.7 15.7 -1.6 13.4 -1.8 11.1 Q-2.05 8.3 -1.15 6.6 L0.0 4.25 M16.8 -0.3 L17.15 -0.75 17.2 -0.8 M16.8 -0.3 Q15.4 1.3 12.75 3.1 L12.05 3.6 11.75 3.75 8.8 5.6 7.2 6.6 5.9 7.5 4.8 8.4 Q3.85 9.2 3.25 9.95 L3.95 7.3 4.8 4.65 Q5.15 3.8 6.05 2.25 L7.35 -0.1 5.15 2.4 2.8 4.85 Q1.95 5.8 0.95 7.7 L-0.8 10.55 M-18.95 22.15 L-19.0 22.35 -20.85 25.05 -22.75 27.6 M-19.45 25.6 L-19.4 26.05 -19.35 26.45 Q-19.45 28.45 -20.8 30.2 L-22.75 32.7 -24.25 35.3 Q-25.6 38.4 -24.4 42.6 L-24.3 40.7 Q-23.95 38.55 -22.8 37.4 L-20.75 35.25 -20.0 34.4 -18.65 33.35 -18.75 33.75 Q-19.3 36.0 -19.15 39.25 L-18.5 44.75 -17.15 42.65 -15.75 40.1 Q-13.9 37.05 -12.05 36.8 -11.75 38.3 -12.7 41.25 L-14.5 45.55 Q-13.9 44.5 -11.5 42.0 -9.45 39.8 -8.9 38.05 L-8.55 36.65 M-3.45 23.9 L-3.2 21.3 -3.05 20.65 -3.0 20.4 M-22.45 19.1 L-22.4 19.1" fill="none" stroke="#000000" stroke-linecap="square" stroke-linejoin="round" stroke-opacity="0.6" stroke-width="1.0"/>
    <path d="M-2.85 40.4 Q-4.15 39.05 -4.95 36.5 L-6.05 32.1 -4.1 35.3 Q-2.65 37.2 -1.25 37.4 M-0.8 10.55 L-0.45 7.4 0.0 4.25 M-20.15 7.45 L-20.2 12.05 -20.2 12.6 -20.65 10.95 Q-21.25 8.25 -21.0 7.0 L-19.8 2.85 -20.15 7.45 M-21.95 23.6 L-20.4 23.0 -18.95 22.15 M-22.75 27.6 Q-21.05 26.95 -19.45 25.6 M-4.0 16.75 L-4.3 18.6 Q-4.65 20.0 -4.6 20.7 L-4.05 22.4 Q-3.5 23.4 -3.45 23.9" fill="none" stroke="#000000" stroke-linecap="square" stroke-linejoin="round" stroke-opacity="0.4" stroke-width="1.0"/>
  </g>
</svg>
