<?xml version="1.0" encoding="UTF-8" standalone="no"?>
<svg xmlns:xlink="http://www.w3.org/1999/xlink" height="49.15px" width="45.9px" xmlns="http://www.w3.org/2000/svg">
  <g transform="matrix(1.0, 0.0, 0.0, 1.0, 29.0, 17.6)">
    <path d="M10.75 -14.75 L11.95 -14.2 Q13.3 -13.85 14.4 -12.9 L14.6 -12.8 15.8 -11.4 16.1 -10.9 16.6 -9.8 16.9 -8.6 16.9 -8.3 Q16.95 -7.3 16.25 -5.7 L15.75 -4.45 15.6 -3.8 15.55 -3.55 15.5 -5.4 15.5 -5.45 15.1 -7.65 14.65 -8.6 14.4 -8.9 14.25 -9.0 13.15 -9.7 12.0 -9.95 10.75 -9.8 10.6 -9.75 10.6 -9.7 Q9.8 -9.5 9.2 -9.1 7.6 -7.95 7.6 -6.3 7.6 -5.35 8.4 -3.55 L8.45 -3.4 8.45 -3.35 8.5 -3.25 8.55 -3.25 9.35 0.55 9.3 1.9 Q9.05 3.2 8.1 4.15 L5.9 6.3 Q4.7 7.5 4.4 9.1 4.2 10.05 4.25 10.95 4.3 11.85 4.65 12.6 3.65 11.05 3.8 9.35 3.95 7.6 5.15 6.15 7.15 3.7 6.6 1.9 6.3 1.0 5.4 0.3 L5.55 0.4 5.2 -0.55 Q4.85 -1.5 4.75 -3.25 L4.75 -3.4 4.75 -3.55 4.7 -4.15 Q4.7 -6.45 5.75 -6.7 4.25 -6.4 3.4 -5.45 2.7 -4.65 2.5 -3.55 L2.5 -3.4 2.45 -3.25 2.45 -3.2 Q2.4 -2.4 2.65 -1.5 L3.2 0.0 3.45 1.9 3.1 3.0 2.1 4.55 1.25 5.95 Q0.45 7.4 0.9 9.55 L1.6 11.9 Q2.25 13.5 2.85 14.0 L3.4 14.65 Q2.5 14.25 1.8 13.2 L0.6 11.25 Q0.4 12.8 1.3 14.7 2.2 16.65 3.4 16.95 L1.65 16.8 Q0.75 16.7 -0.05 15.9 L-1.2 14.5 -2.25 13.05 Q-3.0 11.8 -3.25 9.8 L-3.4 6.25 Q-3.5 7.0 -4.3 8.75 -5.0 10.3 -5.1 11.4 -5.2 13.2 -4.6 14.3 L-2.85 16.35 Q-4.1 16.35 -5.3 15.3 L-7.3 13.3 -7.25 13.3 Q-8.2 11.55 -8.45 10.0 -8.85 10.45 -9.25 11.75 -9.7 12.6 -10.65 12.0 -11.35 11.6 -11.4 10.95 L-10.95 9.8 Q-12.8 11.55 -12.6 13.05 -12.5 13.85 -11.55 14.75 -10.5 15.7 -10.3 16.35 -10.0 17.35 -10.35 18.3 -10.55 18.85 -11.3 19.8 L-12.2 21.2 Q-12.55 22.0 -12.25 22.85 -13.2 22.45 -13.4 21.7 L-13.15 20.05 -12.5 18.4 Q-12.15 17.45 -12.25 16.85 L-13.95 17.3 Q-15.0 17.3 -15.1 16.4 -15.2 15.8 -14.5 15.2 -13.85 14.65 -14.15 13.85 -14.25 13.55 -15.15 13.1 -16.0 12.7 -16.25 11.95 -16.45 11.2 -16.2 10.35 -15.95 9.55 -15.35 9.05 L-17.0 9.95 -18.55 10.95 Q-17.75 11.8 -17.55 13.55 -17.35 15.4 -18.05 16.35 L-18.95 16.75 Q-19.65 16.95 -19.75 17.65 -19.8 18.2 -19.25 19.05 L-18.25 20.05 -19.85 19.05 -21.05 17.65 Q-21.45 16.5 -20.9 15.7 L-19.95 14.15 Q-19.6 13.05 -20.25 11.3 -20.9 9.55 -20.45 8.7 L-19.95 8.6 Q-20.05 7.6 -20.9 7.4 L-22.55 7.55 Q-21.65 8.85 -21.65 10.3 -21.65 11.85 -22.75 12.8 -22.4 11.55 -22.8 10.45 -22.9 10.0 -23.7 8.7 -24.3 7.6 -24.3 6.85 -24.35 5.65 -23.4 4.3 -24.1 4.35 -24.65 5.0 L-25.65 6.1 -26.45 6.4 -27.1 6.5 Q-27.25 7.2 -27.55 7.35 -27.15 7.05 -27.05 6.0 L-27.2 3.05 -27.35 1.9 -27.35 1.8 -27.2 0.55 -26.15 -0.7 Q-25.25 -1.65 -25.15 -1.45 L-25.9 -3.25 -25.95 -3.25 -26.0 -3.4 -26.0 -3.55 Q-26.3 -4.45 -25.65 -5.05 -25.3 -5.4 -23.8 -5.75 -22.45 -6.05 -22.05 -6.6 -21.7 -7.2 -22.05 -8.4 -22.4 -9.75 -22.2 -10.2 -21.8 -11.1 -20.65 -11.25 L-19.6 -11.45 -18.5 -11.75 -16.7 -12.9 -15.05 -14.2 Q-13.05 -15.45 -10.35 -15.95 L-5.2 -16.35 -3.75 -16.05 -2.3 -15.95 -0.8 -16.25 0.65 -16.6 3.4 -16.95 6.15 -16.45 7.45 -15.85 8.7 -15.3 10.75 -14.8 10.75 -14.75 M13.15 -12.5 L11.8 -12.3 11.15 -11.95 Q12.25 -12.3 13.15 -11.95 L14.25 -11.25 14.95 -10.25 15.6 -8.6 15.75 -7.9 15.8 -7.6 15.75 -8.3 15.75 -8.6 Q15.5 -10.4 14.9 -11.4 14.3 -12.35 13.3 -12.5 L13.15 -12.5 M2.4 -10.6 Q4.35 -11.85 6.4 -12.5 L7.95 -12.15 7.05 -12.7 9.3 -13.3 6.25 -13.05 3.35 -12.85 Q2.2 -12.25 1.45 -11.4 2.95 -12.5 4.75 -12.55 1.8 -11.45 -0.2 -8.7 L2.4 -10.6 M-1.05 -6.15 Q-1.7 -4.9 -0.9 -3.55 L-0.8 -3.4 -0.7 -3.25 -0.65 -3.25 -0.25 -2.45 Q0.05 -1.85 0.1 -1.15 -0.75 -0.6 -1.2 0.35 L-1.55 1.9 -1.55 2.05 Q-1.5 2.95 -0.85 3.4 -0.15 3.9 1.05 3.75 0.1 3.85 -0.1 2.75 L-0.1 1.9 0.2 0.8 Q0.45 0.15 1.25 -0.95 1.5 -1.4 1.2 -2.0 L0.5 -3.2 0.5 -3.25 0.4 -3.25 0.3 -3.4 0.2 -3.55 Q-0.3 -4.4 -0.1 -5.75 0.2 -7.45 1.5 -7.95 -0.35 -7.35 -1.05 -6.15 M-19.15 -5.7 L-19.15 -6.95 Q-19.3 -6.0 -20.65 -5.15 L-21.7 -4.55 -22.5 -3.7 -22.55 -3.55 -22.6 -3.4 -22.6 -3.25 Q-22.6 -2.65 -22.1 -2.2 L-21.35 -1.65 -20.75 -0.85 Q-20.55 -0.15 -21.2 0.9 L-21.65 1.9 -21.9 2.85 Q-21.85 4.05 -21.15 5.3 -20.35 6.55 -19.35 6.4 L-20.35 4.95 Q-20.75 4.0 -20.75 3.15 -20.75 2.35 -20.4 1.9 L-20.0 1.5 -19.35 1.0 -18.7 0.4 Q-18.3 -0.2 -18.55 -0.6 -18.7 -0.95 -19.35 -1.2 L-20.45 -1.9 Q-20.95 -2.35 -21.0 -3.0 L-21.0 -3.25 -20.95 -3.4 -20.9 -3.55 -20.6 -3.9 -19.7 -4.45 Q-19.15 -5.05 -19.15 -5.7 M-14.85 4.1 L-15.0 3.25 -15.05 1.9 Q-15.05 0.75 -14.6 0.0 L-13.5 -1.3 -12.3 -2.4 -11.7 -3.25 -11.6 -3.25 -11.5 -3.4 -11.45 -3.55 Q-11.25 -4.15 -11.45 -4.85 L-11.3 -4.8 -11.65 -5.4 Q-12.1 -6.2 -12.1 -7.95 -12.1 -10.0 -11.15 -10.25 -12.55 -9.95 -13.35 -9.1 -14.15 -8.3 -14.25 -7.05 L-14.05 -6.0 -13.55 -5.05 Q-13.1 -4.2 -13.4 -3.55 L-13.5 -3.4 -13.6 -3.25 -13.65 -3.25 -14.55 -1.85 -15.35 -0.7 Q-16.0 0.4 -15.8 1.9 L-15.7 2.5 -15.05 4.5 -14.6 5.45 -13.9 7.35 -14.0 6.35 -13.85 6.4 -14.0 6.25 -13.95 3.5 -13.7 1.9 Q-13.15 -1.2 -11.3 -2.8 L-12.15 -2.1 -13.8 -0.2 Q-14.45 0.8 -14.7 1.9 -14.95 2.95 -14.85 4.1 M-17.5 -9.75 Q-18.2 -8.65 -17.3 -7.3 L-16.75 -6.55 -16.45 -5.8 Q-17.25 -5.4 -17.65 -4.8 -18.1 -4.3 -18.0 -3.75 L-17.9 -3.55 -17.8 -3.4 -17.75 -3.25 -17.65 -3.25 -17.3 -2.9 -15.5 -2.6 Q-16.3 -2.55 -16.5 -3.25 L-16.55 -3.25 -16.6 -3.3 -16.6 -3.4 -16.6 -3.55 Q-16.65 -4.05 -16.3 -4.6 L-15.35 -5.6 Q-15.1 -5.9 -15.4 -6.3 L-16.05 -7.05 Q-16.85 -7.95 -16.6 -9.35 -16.35 -10.9 -15.15 -11.25 -16.85 -10.8 -17.5 -9.75 M-5.45 -4.65 L-5.95 -3.55 -6.1 -3.4 -6.25 -3.25 -6.35 -3.25 -7.0 -2.6 -8.15 -1.6 -9.0 -0.2 Q-9.45 1.0 -8.55 1.8 L-8.45 1.9 -7.8 2.5 -7.15 3.45 Q-6.95 4.15 -7.6 5.45 -8.35 6.8 -8.35 7.6 -8.35 9.0 -7.6 10.35 -6.75 11.85 -5.65 11.7 L-6.7 9.95 -7.15 7.95 Q-7.15 6.6 -6.35 6.05 L-5.65 5.55 -5.0 4.8 Q-4.55 4.1 -4.8 3.6 -5.0 3.35 -5.7 2.95 L-6.8 2.25 -7.1 1.9 -7.45 0.95 Q-7.5 0.0 -7.0 -0.5 -6.35 -0.95 -6.05 -1.45 -5.5 -2.3 -5.45 -3.25 L-5.45 -3.4 -5.45 -3.55 -5.45 -4.65 M-19.85 2.25 Q-21.25 4.1 -18.65 6.85 -19.3 6.1 -19.55 5.05 -19.95 3.4 -18.85 1.9 L-17.85 0.85 -18.55 1.15 -19.55 1.9 -19.85 2.25" fill="#ffffff" fill-opacity="0.0" fill-rule="evenodd" stroke="none"/>
    <path d="M2.4 -10.6 L-0.2 -8.7 Q1.8 -11.45 4.75 -12.55 2.95 -12.5 1.45 -11.4 2.2 -12.25 3.35 -12.85 L6.25 -13.05 9.3 -13.3 7.05 -12.7 7.95 -12.15 6.4 -12.5 Q4.35 -11.85 2.4 -10.6 M-14.6 5.45 L-14.0 6.35 -13.9 7.35 -14.6 5.45 M-14.0 6.25 Q-14.6 5.35 -14.85 4.1 -14.95 2.95 -14.7 1.9 -14.45 0.8 -13.8 -0.2 L-12.15 -2.1 -11.3 -2.8 Q-13.15 -1.2 -13.7 1.9 L-13.95 3.5 -14.0 6.25 M-19.85 2.25 L-19.55 1.9 -18.55 1.15 -17.85 0.85 -18.85 1.9 Q-19.95 3.4 -19.55 5.05 -19.3 6.1 -18.65 6.85 -21.25 4.1 -19.85 2.25" fill="#ffffff" fill-opacity="0.2" fill-rule="evenodd" stroke="none"/>
    <path d="M-27.55 7.35 Q-27.25 7.2 -27.1 6.5 L-26.45 6.4 -25.65 6.1 -24.65 5.0 Q-24.1 4.35 -23.4 4.3 -24.35 5.65 -24.3 6.85 -24.3 7.6 -23.7 8.7 -22.9 10.0 -22.8 10.45 -22.4 11.55 -22.75 12.8 -21.65 11.85 -21.65 10.3 -21.65 8.85 -22.55 7.55 L-20.9 7.4 Q-20.05 7.6 -19.95 8.6 L-20.45 8.7 Q-20.9 9.55 -20.25 11.3 -19.6 13.05 -19.95 14.15 L-20.9 15.7 Q-21.45 16.5 -21.05 17.65 L-19.85 19.05 -18.25 20.05 -19.25 19.05 Q-19.8 18.2 -19.75 17.65 -19.65 16.95 -18.95 16.75 L-18.05 16.35 Q-17.35 15.4 -17.55 13.55 -17.75 11.8 -18.55 10.95 L-17.0 9.95 -15.35 9.05 Q-15.95 9.55 -16.2 10.35 -16.45 11.2 -16.25 11.95 -16.0 12.7 -15.15 13.1 -14.25 13.55 -14.15 13.85 -13.85 14.65 -14.5 15.2 -15.2 15.8 -15.1 16.4 -15.0 17.3 -13.95 17.3 L-12.25 16.85 Q-12.15 17.45 -12.5 18.4 L-13.15 20.05 -13.4 21.7 Q-13.2 22.45 -12.25 22.85 -12.55 22.0 -12.2 21.2 L-11.3 19.8 Q-10.55 18.85 -10.35 18.3 -10.0 17.35 -10.3 16.35 -10.5 15.7 -11.55 14.75 -12.5 13.85 -12.6 13.05 -12.8 11.55 -10.95 9.8 L-11.4 10.95 Q-11.35 11.6 -10.65 12.0 -9.7 12.6 -9.25 11.75 -8.85 10.45 -8.45 10.0 -8.2 11.55 -7.25 13.3 L-7.3 13.3 Q-7.5 15.25 -6.75 17.05 L-5.95 18.7 -5.1 20.6 Q-4.55 22.15 -4.7 23.65 -4.75 24.45 -5.35 26.65 L-6.0 24.5 Q-6.35 23.25 -6.85 22.45 -6.7 24.5 -6.9 25.65 -7.2 27.2 -8.2 28.35 -9.4 29.8 -11.35 29.9 L-12.55 29.95 -12.95 29.95 -13.0 29.95 -14.6 30.4 Q-15.0 30.8 -15.45 30.9 -14.45 30.3 -14.85 28.3 L-15.9 25.4 Q-16.05 26.75 -17.0 27.65 L-17.9 28.35 -18.75 29.25 Q-17.5 27.6 -17.4 27.0 -17.3 26.15 -18.55 24.95 -19.75 23.95 -19.95 23.4 L-19.95 20.9 Q-20.4 21.5 -20.5 22.5 L-20.5 24.3 Q-20.8 23.65 -21.8 22.7 -22.7 21.8 -23.0 21.0 -23.55 19.65 -23.3 18.05 -23.15 16.9 -22.45 15.25 L-23.25 16.55 -23.9 18.0 Q-23.5 16.8 -24.0 15.25 L-25.2 12.45 -25.95 9.7 Q-26.0 8.2 -24.85 6.95 -25.65 7.7 -26.7 7.75 L-28.35 7.4 -27.55 7.35 M2.85 14.0 Q2.25 13.5 1.6 11.9 L0.9 9.55 Q0.45 7.4 1.25 5.95 L2.1 4.55 3.1 3.0 3.45 1.9 3.2 0.0 2.65 -1.5 Q2.4 -2.4 2.45 -3.2 L2.45 -3.25 2.5 -3.4 2.5 -3.55 Q2.7 -4.65 3.4 -5.45 4.25 -6.4 5.75 -6.7 4.7 -6.45 4.7 -4.15 L4.75 -3.55 4.75 -3.4 4.75 -3.25 Q4.85 -1.5 5.2 -0.55 L5.55 0.4 5.4 0.3 5.5 1.9 Q5.3 3.05 4.5 4.0 L3.25 5.3 Q2.45 6.05 2.05 6.75 1.55 7.7 1.55 9.0 L1.55 9.75 1.6 10.25 1.6 10.4 1.65 10.7 1.9 11.8 2.2 12.8 2.85 14.0 M4.65 12.6 Q4.3 11.85 4.25 10.95 4.2 10.05 4.4 9.1 4.7 7.5 5.9 6.3 L8.1 4.15 Q9.05 3.2 9.3 1.9 L9.35 0.55 8.55 -3.25 8.5 -3.25 8.45 -3.35 8.45 -3.4 8.4 -3.55 Q7.6 -5.35 7.6 -6.3 7.6 -7.95 9.2 -9.1 9.8 -9.5 10.6 -9.7 L10.6 -9.75 10.75 -9.8 12.0 -9.95 13.15 -9.7 14.25 -9.0 14.4 -8.9 14.65 -8.6 15.1 -7.65 15.5 -5.45 15.5 -5.4 15.4 -4.9 15.4 -4.85 15.35 -4.7 15.2 -4.1 15.15 -4.0 15.15 -3.95 15.05 -3.45 15.0 -3.4 15.0 -3.55 14.7 -6.05 14.35 -4.8 13.85 -3.8 13.85 -4.85 13.75 -5.9 13.4 -4.85 13.15 -4.25 13.0 -4.05 12.65 -6.05 Q12.65 -4.6 12.3 -3.9 L12.25 -4.15 12.0 -5.15 11.3 -6.1 Q10.95 -6.45 10.6 -6.5 9.85 -6.5 9.2 -5.75 8.4 -4.8 8.95 -3.55 L9.0 -3.4 9.1 -3.4 10.35 -0.55 Q10.8 0.65 10.75 1.9 L10.5 3.4 Q9.95 5.35 8.45 6.45 L6.85 7.25 Q5.75 7.8 5.35 8.25 4.75 9.0 4.7 10.35 L4.7 12.75 4.65 12.6 4.7 12.75 4.65 12.7 4.65 12.6 M13.15 -12.5 L13.3 -12.5 Q14.3 -12.35 14.9 -11.4 15.5 -10.4 15.75 -8.6 L15.75 -8.3 15.8 -7.6 15.75 -7.9 15.6 -8.6 14.95 -10.25 14.25 -11.25 13.15 -11.95 Q12.25 -12.3 11.15 -11.95 L11.8 -12.3 13.15 -12.5 M-1.05 -6.15 Q-0.35 -7.35 1.5 -7.95 0.2 -7.45 -0.1 -5.75 -0.3 -4.4 0.2 -3.55 L0.3 -3.4 0.4 -3.25 0.5 -3.25 0.5 -3.2 1.2 -2.0 Q1.5 -1.4 1.25 -0.95 0.45 0.15 0.2 0.8 L-0.1 1.9 -0.1 2.75 Q0.1 3.85 1.05 3.75 -0.15 3.9 -0.85 3.4 -1.5 2.95 -1.55 2.05 L-1.55 1.9 -1.2 0.35 Q-0.75 -0.6 0.1 -1.15 0.05 -1.85 -0.25 -2.45 L-0.65 -3.25 -0.7 -3.25 -0.8 -3.4 -0.9 -3.55 Q-1.7 -4.9 -1.05 -6.15 M15.5 -5.45 L15.4 -4.85 15.5 -5.45 M-14.6 5.45 L-15.05 4.5 -15.7 2.5 -15.8 1.9 Q-16.0 0.4 -15.35 -0.7 L-14.55 -1.85 -13.65 -3.25 -13.6 -3.25 -13.5 -3.4 -13.4 -3.55 Q-13.1 -4.2 -13.55 -5.05 L-14.05 -6.0 -14.25 -7.05 Q-14.15 -8.3 -13.35 -9.1 -12.55 -9.95 -11.15 -10.25 -12.1 -10.0 -12.1 -7.95 -12.1 -6.2 -11.65 -5.4 L-11.3 -4.8 -11.45 -4.85 Q-11.25 -4.15 -11.45 -3.55 L-11.5 -3.4 -11.6 -3.25 -11.7 -3.25 -12.3 -2.4 -13.5 -1.3 -14.6 0.0 Q-15.05 0.75 -15.05 1.9 L-15.0 3.25 -14.85 4.1 Q-14.6 5.35 -14.0 6.25 L-13.85 6.4 -14.0 6.35 -14.6 5.45 M-19.15 -5.7 Q-19.15 -5.05 -19.7 -4.45 L-20.6 -3.9 -20.9 -3.55 -20.95 -3.4 -21.0 -3.25 -21.0 -3.0 Q-20.95 -2.35 -20.45 -1.9 L-19.35 -1.2 Q-18.7 -0.95 -18.55 -0.6 -18.3 -0.2 -18.7 0.4 L-19.35 1.0 -20.0 1.5 -20.4 1.9 Q-20.75 2.35 -20.75 3.15 -20.75 4.0 -20.35 4.95 L-19.35 6.4 Q-20.35 6.55 -21.15 5.3 -21.85 4.05 -21.9 2.85 L-21.65 1.9 -21.2 0.9 Q-20.55 -0.15 -20.75 -0.85 L-21.35 -1.65 -22.1 -2.2 Q-22.6 -2.65 -22.6 -3.25 L-22.6 -3.4 -22.55 -3.55 -22.5 -3.7 -21.7 -4.55 -20.65 -5.15 Q-19.3 -6.0 -19.15 -6.95 L-19.15 -5.7 M-5.45 -4.65 L-5.45 -3.55 -5.45 -3.4 -5.45 -3.25 Q-5.5 -2.3 -6.05 -1.45 -6.35 -0.95 -7.0 -0.5 -7.5 0.0 -7.45 0.95 L-7.1 1.9 -6.8 2.25 -5.7 2.95 Q-5.0 3.35 -4.8 3.6 -4.55 4.1 -5.0 4.8 L-5.65 5.55 -6.35 6.05 Q-7.15 6.6 -7.15 7.95 L-6.7 9.95 -5.65 11.7 Q-6.75 11.85 -7.6 10.35 -8.35 9.0 -8.35 7.6 -8.35 6.8 -7.6 5.45 -6.95 4.15 -7.15 3.45 L-7.8 2.5 -8.45 1.9 -8.55 1.8 Q-9.45 1.0 -9.0 -0.2 L-8.15 -1.6 -7.0 -2.6 -6.35 -3.25 -6.25 -3.25 -6.1 -3.4 -5.95 -3.55 -5.45 -4.65 M-17.5 -9.75 Q-16.85 -10.8 -15.15 -11.25 -16.35 -10.9 -16.6 -9.35 -16.85 -7.95 -16.05 -7.05 L-15.4 -6.3 Q-15.1 -5.9 -15.35 -5.6 L-16.3 -4.6 Q-16.65 -4.05 -16.6 -3.55 L-16.6 -3.4 -16.6 -3.3 -16.55 -3.25 -16.5 -3.25 Q-16.3 -2.55 -15.5 -2.6 L-17.3 -2.9 -17.65 -3.25 -17.75 -3.25 -17.8 -3.4 -17.9 -3.55 -18.0 -3.75 Q-18.1 -4.3 -17.65 -4.8 -17.25 -5.4 -16.45 -5.8 L-16.75 -6.55 -17.3 -7.3 Q-18.2 -8.65 -17.5 -9.75" fill="#000000" fill-opacity="0.2" fill-rule="evenodd" stroke="none"/>
    <path d="M1.9 11.8 L1.65 10.7 1.7 10.9 1.9 11.8" fill="#945c47" fill-rule="evenodd" stroke="none"/>
    <path d="M15.8 -11.4 L14.6 -12.8 14.4 -12.9 Q13.3 -13.85 11.95 -14.2 L10.75 -14.75 M10.75 -14.8 L8.7 -15.3 7.45 -15.85 6.15 -16.45 3.4 -16.95 0.65 -16.6 -0.8 -16.25 -2.3 -15.95 -3.75 -16.05 -5.2 -16.35 -10.35 -15.95 Q-13.05 -15.45 -15.05 -14.2 L-16.7 -12.9 -18.5 -11.75 -19.6 -11.45 -20.65 -11.25 Q-21.8 -11.1 -22.2 -10.2 -22.4 -9.75 -22.05 -8.4 -21.7 -7.2 -22.05 -6.6 -22.45 -6.05 -23.8 -5.75 -25.3 -5.4 -25.65 -5.05 -26.3 -4.45 -26.0 -3.55 L-26.0 -3.4 -25.95 -3.25 M-25.9 -3.25 L-25.15 -1.45 Q-25.25 -1.65 -26.15 -0.7 L-27.2 0.55 -27.35 1.8 -27.35 1.9 -27.2 3.05 -27.05 6.0 Q-27.15 7.05 -27.55 7.35 L-28.35 7.4 -26.7 7.75 Q-25.65 7.7 -24.85 6.95 -26.0 8.2 -25.95 9.7 L-25.2 12.45 -24.0 15.25 Q-23.5 16.8 -23.9 18.0 M-7.3 13.3 L-5.3 15.3 Q-4.1 16.35 -2.85 16.35 L-4.6 14.3 Q-5.2 13.2 -5.1 11.4 -5.0 10.3 -4.3 8.75 -3.5 7.0 -3.4 6.25 L-3.25 9.8 Q-3.0 11.8 -2.25 13.05 L-1.2 14.5 -0.05 15.9 Q0.75 16.7 1.65 16.8 L3.4 16.95 M3.4 14.65 L2.85 14.0 2.2 12.8 1.9 11.8 1.7 10.9 1.65 10.7 1.6 10.4 1.6 10.25 1.55 9.75 1.55 9.0 Q1.55 7.7 2.05 6.75 2.45 6.05 3.25 5.3 L4.5 4.0 Q5.3 3.05 5.5 1.9 L5.4 0.3 Q6.3 1.0 6.6 1.9 7.15 3.7 5.15 6.15 3.95 7.6 3.8 9.35 3.65 11.05 4.65 12.6 L4.7 12.75 4.7 10.35 Q4.75 9.0 5.35 8.25 5.75 7.8 6.85 7.25 L8.45 6.45 Q9.95 5.35 10.5 3.4 L10.75 1.9 Q10.8 0.65 10.35 -0.55 L9.1 -3.4 M9.0 -3.4 L8.95 -3.55 Q8.4 -4.8 9.2 -5.75 9.85 -6.5 10.6 -6.5 10.95 -6.45 11.3 -6.1 L12.0 -5.15 12.25 -4.15 M-19.95 20.9 L-19.95 23.4 Q-19.75 23.95 -18.55 24.95 -17.3 26.15 -17.4 27.0 -17.5 27.6 -18.75 29.25 L-17.9 28.35 -17.0 27.65 Q-16.05 26.75 -15.9 25.4 L-14.85 28.3 Q-14.45 30.3 -15.45 30.9 -15.0 30.8 -14.6 30.4 L-13.0 29.95 -12.95 29.95 -12.55 29.95 -11.35 29.9 Q-9.4 29.8 -8.2 28.35 -7.2 27.2 -6.9 25.65 -6.7 24.5 -6.85 22.45 -6.35 23.25 -6.0 24.5 L-5.35 26.65 Q-4.75 24.45 -4.7 23.65 -4.55 22.15 -5.1 20.6 L-5.95 18.7 -6.75 17.05 Q-7.5 15.25 -7.3 13.3 M-22.45 15.25 Q-23.15 16.9 -23.3 18.05 -23.55 19.65 -23.0 21.0 -22.7 21.8 -21.8 22.7 -20.8 23.65 -20.5 24.3" fill="none" stroke="#000000" stroke-linecap="square" stroke-linejoin="round" stroke-opacity="0.6" stroke-width="1.0"/>
    <path d="M3.4 16.95 Q2.2 16.65 1.3 14.7 0.4 12.8 0.6 11.25 L1.8 13.2 Q2.5 14.25 3.4 14.65 M15.5 -5.4 L15.55 -3.55 15.6 -3.8 15.75 -4.45 M12.25 -4.15 L12.3 -3.9 Q12.65 -4.6 12.65 -6.05 L13.0 -4.05 13.15 -4.25 13.4 -4.85 13.75 -5.9 13.85 -4.85 13.85 -3.8 14.35 -4.8 14.7 -6.05 15.0 -3.55 15.0 -3.4 15.05 -3.45 15.15 -3.95 15.15 -4.0 15.2 -4.1 15.35 -4.7 15.4 -4.85 15.5 -5.45 M15.15 -3.95 L15.2 -4.1 M-23.9 18.0 L-23.25 16.55 -22.45 15.25 M-20.5 24.3 L-20.5 22.5 Q-20.4 21.5 -19.95 20.9" fill="none" stroke="#000000" stroke-linecap="square" stroke-linejoin="round" stroke-opacity="0.4" stroke-width="1.0"/>
  </g>
</svg>
