<?xml version="1.0" encoding="UTF-8" standalone="no"?>
<svg xmlns:xlink="http://www.w3.org/1999/xlink" height="57.45px" width="41.3px" xmlns="http://www.w3.org/2000/svg">
  <g transform="matrix(1.0, 0.0, 0.0, 1.0, 20.45, 14.95)">
    <path d="M-18.4 11.45 Q-18.75 7.9 -18.45 4.65 L-18.4 3.85 Q-17.55 -3.3 -14.0 -7.55 -10.4 -11.8 -3.85 -13.35 L0.95 -13.15 Q2.45 -14.75 6.0 -14.1 9.85 -13.3 14.1 -10.15 19.8 -5.75 20.15 2.7 20.35 6.9 19.35 10.25 16.0 9.45 10.6 4.55 5.45 -0.05 2.5 -4.6 0.8 -2.5 0.0 2.15 L-0.95 9.25 Q-1.1 12.0 2.75 22.15 2.05 21.9 -0.1 16.85 0.4 22.2 3.0 29.2 5.9 37.15 9.1 39.9 L7.3 39.65 4.7 38.55 Q3.7 38.05 2.35 36.2 0.95 34.35 0.9 33.5 L0.8 35.25 0.2 40.9 Q-1.0 40.15 -1.6 37.2 L-2.5 32.85 Q-3.65 38.7 -8.85 41.85 L-8.65 41.6 -8.55 41.5 Q-2.35 32.6 -3.55 27.2 L-3.2 25.15 Q-2.9 22.7 -3.35 20.7 -3.7 19.1 -4.5 17.7 L-5.25 16.55 Q-4.35 20.55 -5.5 24.6 -6.05 26.55 -6.8 27.75 -5.5 22.1 -7.65 16.8 -8.35 15.1 -9.3 13.65 L-10.1 12.55 Q-7.6 17.75 -8.7 23.8 -9.2 26.9 -10.25 28.9 -8.5 24.55 -10.55 19.3 -11.2 17.6 -12.2 16.0 L-13.0 14.8 Q-10.55 19.75 -10.95 23.75 -11.05 25.75 -11.75 26.8 -11.35 24.35 -12.3 21.3 L-13.0 19.55 -13.35 18.8 Q-12.1 22.1 -13.15 25.35 -13.1 26.05 -14.05 27.9 -15.2 30.05 -16.6 31.1 L-15.95 29.9 -15.2 28.35 Q-14.4 26.25 -14.4 24.4 L-14.45 23.1 -15.55 19.9 -16.1 18.25 -16.1 21.9 Q-17.8 16.9 -18.35 12.1 L-18.4 11.45 M1.95 -9.0 L2.8 -7.15 Q4.0 -4.75 5.55 -2.5 10.65 4.7 17.8 8.25 L10.85 0.5 13.8 3.6 Q17.05 6.7 18.4 7.25 L8.55 -4.1 9.0 -2.15 Q9.7 0.05 10.65 1.3 L7.5 -1.65 Q4.0 -5.35 1.95 -9.0 M13.45 -8.1 Q12.0 -9.55 10.4 -10.5 L9.0 -11.15 Q13.3 -8.95 16.4 -2.25 17.95 1.05 18.65 4.0 18.0 -3.6 13.45 -8.1 M-6.15 13.0 L-6.3 11.45 Q-6.4 9.55 -6.1 7.1 -5.25 0.15 -1.05 -5.25 -3.4 -3.4 -5.25 -0.2 -8.5 5.45 -6.7 11.45 L-6.15 13.0 M-13.4 -4.2 Q-14.7 -2.3 -15.45 -0.1 -17.4 5.6 -15.15 11.45 L-13.8 14.3 -14.55 11.45 -14.9 8.6 Q-15.35 1.55 -12.2 -5.7 L-13.4 -4.2" fill="#ffffff" fill-opacity="0.0" fill-rule="evenodd" stroke="none"/>
    <path d="M-16.6 31.1 Q-15.2 30.05 -14.05 27.9 -13.1 26.05 -13.15 25.35 -12.1 22.1 -13.35 18.8 L-13.0 19.55 -12.3 21.3 Q-11.35 24.35 -11.75 26.8 -11.05 25.75 -10.95 23.75 -10.55 19.75 -13.0 14.8 L-12.2 16.0 Q-11.2 17.6 -10.55 19.3 -8.5 24.55 -10.25 28.9 -9.2 26.9 -8.7 23.8 -7.6 17.75 -10.1 12.55 L-9.3 13.65 Q-8.35 15.1 -7.65 16.8 -5.5 22.1 -6.8 27.75 -6.05 26.55 -5.5 24.6 -4.35 20.55 -5.25 16.55 L-4.5 17.7 Q-3.7 19.1 -3.35 20.7 -2.9 22.7 -3.2 25.15 L-3.55 27.2 Q-2.35 32.6 -8.55 41.5 L-6.65 37.45 Q-5.5 34.5 -5.25 32.25 L-8.7 37.45 Q-11.0 40.7 -12.9 41.1 -11.85 40.85 -9.6 33.8 L-12.35 37.7 Q-14.7 40.9 -15.45 41.5 -14.85 41.0 -13.7 37.9 -12.5 34.6 -12.85 33.9 -17.1 37.95 -17.7 39.35 L-16.85 36.55 -15.75 33.25 -18.0 36.2 -19.8 39.4 Q-19.75 37.5 -18.9 35.5 L-17.05 31.95 -16.6 31.15 -16.65 31.15 -16.6 31.1 M1.95 -9.0 Q4.0 -5.35 7.5 -1.65 L10.65 1.3 Q9.7 0.05 9.0 -2.15 L8.55 -4.1 18.4 7.25 Q17.05 6.7 13.8 3.6 L10.85 0.5 17.8 8.25 Q10.65 4.7 5.55 -2.5 4.0 -4.75 2.8 -7.15 L1.95 -9.0 M-6.15 13.0 L-6.7 11.45 Q-8.5 5.45 -5.25 -0.2 -3.4 -3.4 -1.05 -5.25 -5.25 0.15 -6.1 7.1 -6.4 9.55 -6.3 11.45 L-6.15 13.0" fill="#000000" fill-opacity="0.2" fill-rule="evenodd" stroke="none"/>
    <path d="M13.45 -8.1 Q18.0 -3.6 18.65 4.0 17.95 1.05 16.4 -2.25 13.3 -8.95 9.0 -11.15 L10.4 -10.5 Q12.0 -9.55 13.45 -8.1 M-13.4 -4.2 L-12.2 -5.7 Q-15.35 1.55 -14.9 8.6 L-14.55 11.45 -13.8 14.3 -15.15 11.45 Q-17.4 5.6 -15.45 -0.1 -14.7 -2.3 -13.4 -4.2" fill="#ffffff" fill-opacity="0.2" fill-rule="evenodd" stroke="none"/>
    <path d="M9.1 39.9 Q5.9 37.15 3.0 29.2 0.4 22.2 -0.1 16.85 2.05 21.9 2.75 22.15 -1.1 12.0 -0.95 9.25 L0.0 2.15 Q0.8 -2.5 2.5 -4.6 5.45 -0.05 10.6 4.55 16.0 9.45 19.35 10.25 20.35 6.9 20.15 2.7 19.8 -5.75 14.1 -10.15 9.85 -13.3 6.0 -14.1 2.45 -14.75 0.95 -13.15 L-3.85 -13.35 Q-10.4 -11.8 -14.0 -7.55 -17.55 -3.3 -18.4 3.85 L-18.45 4.65 Q-18.75 7.9 -18.4 11.45 M-15.55 19.9 L-14.45 23.1 -14.4 24.4 Q-14.4 26.25 -15.2 28.35 L-15.95 29.9 -16.6 31.1 M-16.6 31.15 L-17.05 31.95 -18.9 35.5 Q-19.75 37.5 -19.8 39.4" fill="none" stroke="#000000" stroke-linecap="square" stroke-linejoin="round" stroke-opacity="0.6" stroke-width="1.0"/>
    <path d="M-18.4 11.45 L-18.35 12.1 Q-17.8 16.9 -16.1 21.9 L-16.1 18.25 -15.55 19.9 M-8.55 41.5 L-8.65 41.6 -8.85 41.85 Q-3.65 38.7 -2.5 32.85 L-1.6 37.2 Q-1.0 40.15 0.2 40.9 L0.8 35.25 0.9 33.5 Q0.95 34.35 2.35 36.2 3.7 38.05 4.7 38.55 L7.3 39.65 9.1 39.9 M-19.8 39.4 L-18.0 36.2 -15.75 33.25 -16.85 36.55 -17.7 39.35 Q-17.1 37.95 -12.85 33.9 -12.5 34.6 -13.7 37.9 -14.85 41.0 -15.45 41.5 -14.7 40.9 -12.35 37.7 L-9.6 33.8 Q-11.85 40.85 -12.9 41.1 -11.0 40.7 -8.7 37.45 L-5.25 32.25 Q-5.5 34.5 -6.65 37.45 L-8.55 41.5" fill="none" stroke="#000000" stroke-linecap="square" stroke-linejoin="round" stroke-opacity="0.4" stroke-width="1.0"/>
  </g>
</svg>
