<?xml version="1.0" encoding="UTF-8" standalone="no"?>
<svg xmlns:xlink="http://www.w3.org/1999/xlink" height="52.65px" width="40.7px" xmlns="http://www.w3.org/2000/svg">
  <g transform="matrix(1.0, 0.0, 0.0, 1.0, 22.4, 22.6)">
    <path d="M5.45 -11.4 Q5.1 -12.6 5.45 -14.95 6.2 -19.6 10.95 -21.8 L10.9 -20.5 Q10.9 -18.8 11.2 -16.95 11.85 -12.55 12.95 -9.9 L13.65 -8.4 14.2 -7.5 14.6 -6.9 15.55 -5.3 15.7 -5.15 16.3 -4.25 16.8 -3.55 Q18.3 -1.35 18.1 -0.1 L17.8 1.5 17.7 2.2 17.65 2.55 17.65 2.65 17.65 2.85 17.55 3.3 Q17.2 5.5 15.45 7.5 15.05 6.05 13.95 4.05 11.7 0.05 7.85 -2.5 L9.2 -0.8 Q10.55 1.1 10.65 2.2 10.2 1.25 8.95 0.1 6.45 -2.2 2.5 -3.4 -0.75 -4.35 -2.3 -5.7 -3.35 -6.6 -3.5 -7.45 -3.3 -6.1 -2.5 -4.75 -1.1 -2.55 1.65 -1.25 1.0 -0.85 -0.2 -0.55 -2.5 0.0 -5.1 -0.6 L-3.9 0.6 -1.15 2.8 -1.2 2.8 -3.8 2.35 Q-6.95 1.4 -9.5 -1.35 L-9.2 -0.45 -8.25 1.8 Q-6.5 5.35 -4.05 7.15 L-4.95 9.4 Q-8.9 9.25 -11.7 7.65 L-9.6 9.1 Q-7.2 10.65 -5.5 11.05 L-6.0 13.1 Q-9.3 16.3 -5.3 22.15 -6.75 23.05 -7.8 24.45 -9.5 26.7 -9.4 29.4 L-9.85 25.15 -9.8 23.45 -6.9 21.55 Q-8.65 21.45 -11.0 22.6 -12.4 23.3 -13.75 24.3 L-12.25 23.55 -12.9 23.8 -14.2 24.6 Q-13.65 23.05 -11.75 21.4 L-10.2 20.05 Q-12.3 16.0 -15.05 12.8 -17.2 11.3 -19.05 8.35 -22.8 2.45 -21.35 -4.7 L-20.55 -3.15 -18.3 0.35 Q-14.35 5.6 -10.0 6.2 L-11.55 3.15 Q-13.35 -0.35 -14.3 -0.8 L-15.2 -2.6 Q-16.65 -5.2 -16.75 -7.8 -17.15 -16.15 -4.2 -21.9 -5.05 -19.65 -5.35 -17.0 -5.8 -12.2 -4.0 -8.6 L-3.45 -10.35 Q-3.0 -12.4 -3.25 -13.65 L-3.0 -12.95 Q-2.6 -12.15 -1.8 -11.45 0.75 -9.25 6.25 -8.9 L5.45 -11.4 M-21.05 -0.1 Q-20.95 1.8 -20.3 3.7 -18.25 9.85 -11.9 14.35 -13.85 12.8 -16.0 10.0 -20.25 4.5 -21.1 -1.55 L-21.05 -0.1 M-7.2 -19.9 Q-10.2 -17.95 -12.2 -15.65 -18.7 -8.3 -12.95 -0.3 L-13.8 -2.3 Q-14.7 -4.8 -14.6 -7.4 -14.3 -15.45 -5.15 -21.05 L-7.2 -19.9" fill="#ffffff" fill-opacity="0.0" fill-rule="evenodd" stroke="none"/>
    <path d="M14.95 6.9 L13.0 4.95 11.7 3.8 14.95 6.9 M7.8 1.4 L7.15 1.15 4.95 0.6 Q6.3 0.75 7.8 1.4" fill="#89513e" fill-rule="evenodd" stroke="none"/>
    <path d="M-21.05 -0.1 L-21.1 -1.55 Q-20.25 4.5 -16.0 10.0 -13.85 12.8 -11.9 14.35 -18.25 9.85 -20.3 3.7 -20.95 1.8 -21.05 -0.1 M-7.2 -19.9 L-5.15 -21.05 Q-14.3 -15.45 -14.6 -7.4 -14.7 -4.8 -13.8 -2.3 L-12.95 -0.3 Q-18.7 -8.3 -12.2 -15.65 -10.2 -17.95 -7.2 -19.9" fill="#ffffff" fill-opacity="0.2" fill-rule="evenodd" stroke="none"/>
    <path d="M5.45 -11.4 L6.25 -8.9 Q0.75 -9.25 -1.8 -11.45 -2.6 -12.15 -3.0 -12.95 L-3.25 -13.65 Q-3.0 -12.4 -3.45 -10.35 L-4.0 -8.6 Q-5.8 -12.2 -5.35 -17.0 -5.05 -19.65 -4.2 -21.9 L-4.2 -21.95 -4.1 -21.95 -3.55 -20.8 -1.8 -17.9 Q1.35 -13.3 5.45 -11.4 M-14.3 -0.8 Q-13.35 -0.35 -11.55 3.15 L-10.0 6.2 Q-14.35 5.6 -18.3 0.35 L-20.55 -3.15 -21.35 -4.7 -20.6 -3.85 -18.75 -2.1 Q-15.75 0.35 -14.3 -0.8 M-12.25 23.55 L-13.75 24.3 Q-12.4 23.3 -11.0 22.6 -8.65 21.45 -6.9 21.55 L-9.8 23.45 -12.25 23.55 M-9.4 29.4 Q-9.5 26.7 -7.8 24.45 -6.75 23.05 -5.3 22.15 L-5.3 23.45 -5.3 23.85 -5.3 25.55 Q-7.4 26.15 -8.6 27.85 -9.2 28.65 -9.4 29.4 M-5.5 11.05 Q-7.2 10.65 -9.6 9.1 L-11.7 7.65 Q-8.9 9.25 -4.95 9.4 L-5.05 9.65 -5.5 11.05 M-4.05 7.15 Q-6.5 5.35 -8.25 1.8 L-9.2 -0.45 -9.5 -1.35 Q-6.95 1.4 -3.8 2.35 L-1.2 2.8 -1.15 2.8 -3.9 0.6 -5.1 -0.6 Q-2.5 0.0 -0.2 -0.55 1.0 -0.85 1.65 -1.25 -1.1 -2.55 -2.5 -4.75 -3.3 -6.1 -3.5 -7.45 -3.35 -6.6 -2.3 -5.7 -0.75 -4.35 2.5 -3.4 6.45 -2.2 8.95 0.1 10.2 1.25 10.65 2.2 10.55 1.1 9.2 -0.8 L7.85 -2.5 Q11.7 0.05 13.95 4.05 15.05 6.05 15.45 7.5 L14.95 6.9 11.7 3.8 9.8 2.5 7.8 1.4 Q6.3 0.75 4.95 0.6 L2.9 0.6 1.85 0.85 Q0.25 1.4 -1.15 2.8 L-2.05 3.85 -2.35 4.2 -3.85 6.7 -4.05 7.15" fill="#000000" fill-opacity="0.2" fill-rule="evenodd" stroke="none"/>
    <path d="M15.55 -5.3 L14.6 -6.9 14.2 -7.5 13.65 -8.4 12.95 -9.9 Q11.85 -12.55 11.2 -16.95 10.9 -18.8 10.9 -20.5 L10.95 -21.8 Q6.2 -19.6 5.45 -14.95 5.1 -12.6 5.45 -11.4 1.35 -13.3 -1.8 -17.9 L-3.55 -20.8 -4.1 -21.95 -4.2 -21.95 -4.2 -21.9 Q-17.15 -16.15 -16.75 -7.8 -16.65 -5.2 -15.2 -2.6 L-14.3 -0.8 Q-15.75 0.35 -18.75 -2.1 L-20.6 -3.85 -21.35 -4.7 Q-22.8 2.45 -19.05 8.35 -17.2 11.3 -15.05 12.8 -12.3 16.0 -10.2 20.05 L-11.75 21.4 Q-13.65 23.05 -14.2 24.6 L-12.9 23.8 -12.25 23.55 -9.8 23.45 -9.85 25.15 -9.4 29.4 Q-9.2 28.65 -8.6 27.85 -7.4 26.15 -5.3 25.55 L-5.3 23.85 -5.3 23.45 -5.3 22.15 Q-9.3 16.3 -6.0 13.1 L-5.5 11.05 -5.05 9.65 -4.95 9.4 -4.05 7.15 -3.85 6.7 -2.35 4.2 -2.05 3.85 -1.15 2.8 Q0.25 1.4 1.85 0.85 L2.9 0.6 4.95 0.6 7.15 1.15 7.8 1.4 9.8 2.5 11.7 3.8 13.0 4.95 14.95 6.9 15.45 7.5 Q17.2 5.5 17.55 3.3 L17.65 2.85 17.65 2.65" fill="none" stroke="#000000" stroke-linecap="square" stroke-linejoin="round" stroke-opacity="0.6" stroke-width="1.0"/>
  </g>
</svg>
