<?xml version="1.0" encoding="UTF-8" standalone="no"?>
<svg xmlns:xlink="http://www.w3.org/1999/xlink" height="48.55px" width="47.75px" xmlns="http://www.w3.org/2000/svg">
  <g transform="matrix(1.0, 0.0, 0.0, 1.0, 24.15, 16.55)">
    <path d="M3.15 5.1 L3.3 4.3 3.25 4.8 3.15 5.1" fill="#89513e" fill-rule="evenodd" stroke="none"/>
    <path d="M11.7 -12.25 L10.45 -12.7 8.7 -13.15 Q10.25 -12.9 11.7 -12.25" fill="#a97455" fill-rule="evenodd" stroke="none"/>
    <path d="M-10.5 5.95 Q-10.95 3.9 -11.05 1.7 L-11.0 -2.05 Q-11.0 0.65 -9.75 6.05 L-7.95 12.8 Q-9.2 10.6 -9.95 8.1 L-10.5 6.1 -10.5 5.95 M11.7 -12.25 L14.45 -10.95 Q20.55 -7.45 22.25 -0.8 21.1 -3.55 18.8 -6.45 15.5 -10.65 11.7 -12.25 M10.45 -6.15 L11.65 -7.0 Q7.05 -2.9 5.2 4.95 4.3 8.6 4.25 11.55 4.2 2.4 7.85 -3.2 9.05 -4.95 10.45 -6.15 M-8.4 -11.0 Q-4.35 -12.6 -1.35 -12.4 -8.1 -12.6 -15.5 -5.75 -19.2 -2.3 -21.55 1.15 -16.5 -7.85 -8.4 -11.0 M-2.15 -3.55 L-1.3 -5.55 Q-4.4 3.35 -2.15 11.7 -1.25 15.1 0.1 17.35 -4.6 10.05 -3.5 1.75 -3.15 -1.0 -2.15 -3.55 M-17.5 1.35 Q-17.7 3.85 -16.5 7.6 L-17.35 9.5 Q-18.35 11.45 -19.05 12.1 L-18.2 10.35 Q-17.35 8.5 -17.35 7.8 L-18.1 5.0 Q-18.5 1.75 -17.05 -0.35 L-17.25 0.05 -17.5 1.35" fill="#ffffff" fill-opacity="0.2" fill-rule="evenodd" stroke="none"/>
    <path d="M-20.6 13.8 L-18.0 12.0 Q-15.2 9.85 -14.25 8.1 L-13.5 12.1 -12.75 8.25 Q-11.8 4.25 -11.1 3.25 L-10.75 4.95 -10.5 5.95 -10.5 6.1 -9.95 8.1 -9.75 8.9 Q-8.1 14.65 -6.15 16.65 L-7.8 15.05 -6.55 18.05 -5.9 20.7 -6.15 24.65 -7.75 31.35 Q-7.75 28.25 -9.4 24.8 L-10.55 22.7 -11.1 21.95 -11.65 24.2 Q-14.05 21.25 -15.35 16.95 L-16.05 14.25 -16.2 13.2 -18.85 13.7 -20.6 13.8 M-6.65 9.6 L-6.95 8.1 Q-6.9 6.75 -6.45 4.7 -5.5 0.65 -3.55 -2.7 L-4.1 -0.5 Q-4.6 2.3 -4.55 5.15 -4.35 14.3 1.4 20.6 L-0.95 19.2 -1.8 18.45 -3.4 16.65 -4.45 15.1 Q-5.9 12.7 -6.65 9.6 M3.3 4.3 Q3.5 2.1 4.35 0.05 5.7 -3.25 8.4 -4.85 L7.6 -3.7 Q6.65 -2.15 5.9 -0.1 3.5 6.4 4.05 15.3 L3.4 11.8 3.35 11.45 3.35 11.3 Q2.85 8.05 3.1 5.75 L3.15 5.1 3.25 4.8 3.3 4.3 M12.5 -2.5 L14.2 -4.0 16.75 6.6 Q14.75 1.65 12.5 -2.5 M16.0 -0.25 L15.2 -6.25 15.9 -5.0 17.45 -1.65 Q19.5 4.0 18.85 9.05 18.25 5.7 17.1 2.4 L16.0 -0.25 M18.5 -2.5 L19.85 -1.8 Q21.3 -0.95 22.05 -0.15 L22.95 2.0 22.85 5.8 Q22.5 3.9 20.45 0.5 L18.5 -2.5" fill="#000000" fill-opacity="0.2" fill-rule="evenodd" stroke="none"/>
    <path d="M-20.6 13.8 L-18.95 10.25 -18.3 8.45 -18.5 7.2 -23.35 9.5 Q-22.75 6.1 -21.05 3.4 L-20.0 1.85 -19.55 1.35 -23.5 2.9 Q-22.3 -0.65 -17.9 -5.4 L-15.0 -8.3 -13.75 -9.45 -13.7 -9.4 Q-9.4 -12.7 -3.3 -13.3 L-3.15 -13.35 Q-5.8 -14.9 -9.1 -14.85 L-12.05 -14.5 -13.2 -14.2 Q-5.25 -17.4 1.2 -14.6 L3.45 -13.45 7.5 -13.85 9.55 -13.5 Q14.0 -12.9 17.65 -9.85 20.4 -7.6 21.9 -4.8 22.85 -3.0 22.95 1.6 L22.85 5.8 22.95 2.0 22.05 -0.15 Q21.3 -0.95 19.85 -1.8 L18.5 -2.5 Q20.15 0.55 19.65 5.1 19.45 7.4 18.85 9.05 19.5 4.0 17.45 -1.65 L15.9 -5.0 15.2 -6.25 16.0 -0.25 16.75 6.6 14.2 -4.0 12.5 -2.5 10.5 -1.0 9.75 -0.05 Q8.75 1.2 7.85 2.9 5.0 8.2 4.05 15.3 3.5 6.4 5.9 -0.1 6.65 -2.15 7.6 -3.7 L8.4 -4.85 Q5.7 -3.25 4.35 0.05 3.5 2.1 3.3 4.3 L2.65 5.4 1.45 8.6 Q-0.1 14.2 1.4 20.6 -4.35 14.3 -4.55 5.15 -4.6 2.3 -4.1 -0.5 L-3.55 -2.7 Q-5.5 0.65 -6.45 4.7 -6.9 6.75 -6.95 8.1 L-6.65 9.6 -7.1 7.35 -7.0 10.5 Q-6.7 14.2 -6.0 16.8 L-6.15 16.65 Q-8.1 14.65 -9.75 8.9 L-9.95 8.1 Q-9.2 10.6 -7.95 12.8 L-9.75 6.05 Q-11.0 0.65 -11.0 -2.05 L-11.05 1.7 Q-10.95 3.9 -10.5 5.95 L-10.75 4.95 -11.1 3.25 Q-11.8 4.25 -12.75 8.25 L-13.5 12.1 -14.25 8.1 Q-15.2 9.85 -18.0 12.0 L-20.6 13.8 M11.7 -12.25 Q15.5 -10.65 18.8 -6.45 21.1 -3.55 22.25 -0.8 20.55 -7.45 14.45 -10.95 L11.7 -12.25 Q10.25 -12.9 8.7 -13.15 L10.45 -12.7 11.7 -12.25 M10.45 -6.15 Q9.05 -4.95 7.85 -3.2 4.2 2.4 4.25 11.55 4.3 8.6 5.2 4.95 7.05 -2.9 11.65 -7.0 L10.45 -6.15 M-2.15 -3.55 Q-3.15 -1.0 -3.5 1.75 -4.6 10.05 0.1 17.35 -1.25 15.1 -2.15 11.7 -4.4 3.35 -1.3 -5.55 L-2.15 -3.55 M-8.4 -11.0 Q-16.5 -7.85 -21.55 1.15 -19.2 -2.3 -15.5 -5.75 -8.1 -12.6 -1.35 -12.4 -4.35 -12.6 -8.4 -11.0 M-17.5 1.35 L-17.25 0.05 -17.05 -0.35 Q-18.5 1.75 -18.1 5.0 L-17.35 7.8 Q-17.35 8.5 -18.2 10.35 L-19.05 12.1 Q-18.35 11.45 -17.35 9.5 L-16.5 7.6 Q-17.7 3.85 -17.5 1.35" fill="#ffffff" fill-opacity="0.0" fill-rule="evenodd" stroke="none"/>
    <path d="M22.85 5.8 L22.95 1.6 Q22.85 -3.0 21.9 -4.8 20.4 -7.6 17.65 -9.85 14.0 -12.9 9.55 -13.5 L7.5 -13.85 3.45 -13.45 1.2 -14.6 Q-5.25 -17.4 -13.2 -14.2 L-12.05 -14.5 -9.1 -14.85 Q-5.8 -14.9 -3.15 -13.35 L-3.3 -13.3 Q-9.4 -12.7 -13.7 -9.4 L-13.75 -9.45 -15.0 -8.3 -17.9 -5.4 Q-22.3 -0.65 -23.5 2.9 L-19.55 1.35 -20.0 1.85 -21.05 3.4 Q-22.75 6.1 -23.35 9.5 L-18.5 7.2 -18.3 8.45 -18.95 10.25 -20.6 13.8 -18.85 13.7 -16.2 13.2 -16.05 14.25 -15.35 16.95 Q-14.05 21.25 -11.65 24.2 L-11.1 21.95 -10.55 22.7 -9.4 24.8 Q-7.75 28.25 -7.75 31.35 L-6.15 24.65 -5.9 20.7 -6.55 18.05 -7.8 15.05 -6.15 16.65 -6.0 16.8 Q-6.7 14.2 -7.0 10.5 L-7.1 7.35 -6.65 9.6 Q-5.9 12.7 -4.45 15.1 L-3.4 16.65 -1.8 18.45 -0.95 19.2 1.4 20.6 Q-0.1 14.2 1.45 8.6 L2.65 5.4 3.3 4.3 3.15 5.1 3.1 5.75 Q2.85 8.05 3.35 11.3 L3.35 11.45 3.4 11.8 4.05 15.3 Q5.0 8.2 7.85 2.9 8.75 1.2 9.75 -0.05 L10.5 -1.0 12.5 -2.5 Q14.75 1.65 16.75 6.6 L16.0 -0.25 17.1 2.4 Q18.25 5.7 18.85 9.05 19.45 7.4 19.65 5.1 20.15 0.55 18.5 -2.5 L20.45 0.5 Q22.5 3.9 22.85 5.8 Z" fill="none" stroke="#000000" stroke-linecap="square" stroke-linejoin="round" stroke-opacity="0.6" stroke-width="1.0"/>
  </g>
</svg>
