<?xml version="1.0" encoding="UTF-8" standalone="no"?>
<svg xmlns:xlink="http://www.w3.org/1999/xlink" height="239.3px" width="365.2px" xmlns="http://www.w3.org/2000/svg">
  <g transform="matrix(1.0, 0.0, 0.0, 1.0, 182.6, 119.65)">
    <path d="M118.55 -83.6 L118.55 -119.15 142.95 -119.15 142.95 -83.6 142.95 -48.6 118.55 -48.6 118.55 -83.6 142.95 -83.6 118.55 -83.6 M118.55 -45.75 L142.95 -45.75 142.95 -10.2 118.55 -10.2 118.55 -45.75 M145.0 -45.75 L169.4 -45.75 169.4 -10.2 145.0 -10.2 145.0 -45.75 M169.4 -83.6 L169.4 -48.6 145.0 -48.6 145.0 -83.6 145.0 -119.15 169.4 -119.15 169.4 -84.1 169.4 -83.6 145.0 -83.6 169.4 -83.6 M182.1 119.15 L149.1 119.15 149.1 71.05 182.1 71.05 182.1 119.15 M140.25 71.05 L140.25 119.15 107.2 119.15 107.2 71.05 140.25 71.05 M-173.4 -45.75 L-149.0 -45.75 -149.0 -10.2 -173.4 -10.2 -173.4 -45.75 M-149.0 -83.6 L-149.0 -48.6 -173.4 -48.6 -173.4 -83.6 -173.4 -119.15 -149.0 -119.15 -149.0 -84.1 -149.0 -83.6 -173.4 -83.6 -149.0 -83.6 M-146.95 -83.6 L-146.95 -119.15 -122.55 -119.15 -122.55 -83.6 -122.55 -48.6 -146.95 -48.6 -146.95 -83.6 -122.55 -83.6 -146.95 -83.6 M-146.95 -10.2 L-146.95 -45.75 -122.55 -45.75 -122.55 -10.2 -146.95 -10.2 M-109.2 71.05 L-109.2 119.15 -142.25 119.15 -142.25 71.05 -109.2 71.05 M-149.05 119.15 L-182.1 119.15 -182.1 71.05 -149.05 71.05 -149.05 119.15" fill="#ffffff" fill-opacity="0.0" fill-rule="evenodd" stroke="none"/>
    <path d="M118.55 -45.75 L142.95 -45.75 142.95 -10.2 118.55 -10.2 118.55 -45.75 M145.0 -45.75 L169.4 -45.75 169.4 -10.2 145.0 -10.2 145.0 -45.75 M169.4 -83.6 L169.4 -48.6 145.0 -48.6 145.0 -83.6 145.0 -119.15 169.4 -119.15 169.4 -84.1 M169.4 -83.6 L145.0 -83.6 M182.1 119.15 L149.1 119.15 149.1 71.05 182.1 71.05 182.1 119.15 M140.25 71.05 L140.25 119.15 107.2 119.15 107.2 71.05 140.25 71.05 M-173.4 -45.75 L-149.0 -45.75 -149.0 -10.2 -173.4 -10.2 -173.4 -45.75 M-149.0 -83.6 L-149.0 -48.6 -173.4 -48.6 -173.4 -83.6 -173.4 -119.15 -149.0 -119.15 -149.0 -84.1 M-149.0 -83.6 L-173.4 -83.6 M-146.95 -83.6 L-146.95 -119.15 -122.55 -119.15 -122.55 -83.6 -122.55 -48.6 -146.95 -48.6 -146.95 -83.6 -122.55 -83.6 M-146.95 -10.2 L-146.95 -45.75 -122.55 -45.75 -122.55 -10.2 -146.95 -10.2 M-109.2 71.05 L-109.2 119.15 -142.25 119.15 -142.25 71.05 -109.2 71.05 M-149.05 119.15 L-182.1 119.15 -182.1 71.05 -149.05 71.05 -149.05 119.15" fill="none" stroke="#000000" stroke-linecap="butt" stroke-linejoin="miter-clip" stroke-miterlimit="10.0" stroke-width="1.0"/>
    <path d="M118.55 -83.6 L118.55 -119.15 142.95 -119.15 142.95 -83.6 142.95 -48.6 118.55 -48.6 118.55 -83.6 142.95 -83.6" fill="none" stroke="#000000" stroke-linecap="round" stroke-linejoin="miter-clip" stroke-miterlimit="10.0" stroke-width="1.0"/>
  </g>
</svg>
