<?xml version="1.0" encoding="UTF-8" standalone="no"?>
<svg xmlns:xlink="http://www.w3.org/1999/xlink" height="63.9px" width="52.1px" xmlns="http://www.w3.org/2000/svg">
  <g transform="matrix(1.0, 0.0, 0.0, 1.0, 26.05, 31.95)">
    <path d="M24.3 -17.75 L24.3 -24.35 25.55 -24.35 25.55 -17.75 24.3 -17.75 M24.3 23.85 L24.3 17.3 25.55 17.3 25.55 23.85 24.3 23.85 M2.85 -7.0 L2.85 5.35 1.35 5.35 1.35 -7.0 2.85 -7.0 M-24.2 -17.75 L-25.55 -17.75 -25.55 -24.35 -24.2 -24.35 -24.2 -17.75 M-1.1 -7.0 L-1.1 5.35 -2.6 5.35 -2.6 -7.0 -1.1 -7.0 M-24.2 23.85 L-25.55 23.85 -25.55 17.3 -24.2 17.3 -24.2 23.85" fill="#ffffff" fill-opacity="0.0" fill-rule="evenodd" stroke="none"/>
    <path d="M24.3 -24.35 L24.3 -17.75 24.3 17.3 24.3 23.85 24.3 31.45 0.1 31.45 0.1 -31.45 0.1 31.45 -24.2 31.45 -24.2 23.85 -24.2 17.3 -24.2 -17.75 -24.2 -24.35 -24.2 -31.45 0.1 -31.45 24.3 -31.45 24.3 -24.35 M2.85 -7.0 L1.35 -7.0 1.35 5.35 2.85 5.35 2.85 -7.0 M-1.1 -7.0 L-2.6 -7.0 -2.6 5.35 -1.1 5.35 -1.1 -7.0" fill="#000000" fill-opacity="0.2" fill-rule="evenodd" stroke="none"/>
    <path d="M2.85 -7.0 L2.85 5.35 1.35 5.35 1.35 -7.0 2.85 -7.0 M-1.1 -7.0 L-1.1 5.35 -2.6 5.35 -2.6 -7.0 -1.1 -7.0" fill="none" stroke="#000000" stroke-linecap="butt" stroke-linejoin="miter-clip" stroke-miterlimit="10.0" stroke-width="1.0"/>
    <path d="M24.3 -24.35 L24.3 -17.75 25.55 -17.75 25.55 -24.35 24.3 -24.35 24.3 -31.45 0.1 -31.45 -24.2 -31.45 -24.2 -24.35 -25.55 -24.35 -25.55 -17.75 -24.2 -17.75 -24.2 -24.35 M0.1 31.45 L24.3 31.45 24.3 23.85 24.3 17.3 24.3 -17.75 M24.3 23.85 L25.55 23.85 25.55 17.3 24.3 17.3 M-24.2 23.85 L-25.55 23.85 -25.55 17.3 -24.2 17.3 -24.2 -17.75 M-24.2 23.85 L-24.2 17.3 M0.1 31.45 L-24.2 31.45 -24.2 23.85" fill="none" stroke="#000000" stroke-linecap="round" stroke-linejoin="miter-clip" stroke-miterlimit="10.0" stroke-width="1.0"/>
    <path d="M0.1 -31.45 L0.1 31.45" fill="none" stroke="#000000" stroke-linecap="round" stroke-linejoin="miter-clip" stroke-miterlimit="10.0" stroke-opacity="0.6" stroke-width="1.0"/>
  </g>
</svg>
