<?xml version="1.0" encoding="UTF-8" standalone="no"?>
<svg xmlns:xlink="http://www.w3.org/1999/xlink" height="122.0px" width="89.4px" xmlns="http://www.w3.org/2000/svg">
  <g transform="matrix(1.0, 0.0, 0.0, 1.0, 44.7, 62.4)">
    <path d="M-0.25 -58.55 L0.2 -59.05 0.2 -58.55 Q24.75 -33.4 36.95 13.25 43.05 36.55 44.2 54.85 L0.2 59.1 -0.25 59.1 -44.2 54.85 Q-43.0 36.55 -36.95 13.25 -24.8 -33.4 -0.25 -58.55" fill="#ffffff" fill-opacity="0.0" fill-rule="evenodd" stroke="none"/>
    <path d="M-0.25 -58.55 Q-24.8 -33.4 -36.95 13.25 -43.0 36.55 -44.2 54.85 L-0.25 59.1 0.2 59.1 44.2 54.85 Q43.05 36.55 36.95 13.25 24.75 -33.4 0.2 -58.55 L0.2 -59.05 -0.25 -58.55 Z" fill="none" stroke="#000000" stroke-linecap="butt" stroke-linejoin="miter-clip" stroke-miterlimit="10.0" stroke-opacity="0.6" stroke-width="1.0"/>
    <path d="M0.2 -58.55 L0.2 42.5" fill="none" stroke="#000000" stroke-linecap="butt" stroke-linejoin="miter-clip" stroke-miterlimit="10.0" stroke-opacity="0.6" stroke-width="1.0"/>
    <path d="M-24.85 -21.2 L-24.85 45.55" fill="none" stroke="#000000" stroke-linecap="butt" stroke-linejoin="miter-clip" stroke-miterlimit="10.0" stroke-opacity="0.6" stroke-width="1.0"/>
    <path d="M-38.55 18.45 L38.35 18.45" fill="none" stroke="#000000" stroke-linecap="butt" stroke-linejoin="miter-clip" stroke-miterlimit="10.0" stroke-opacity="0.6" stroke-width="1.0"/>
    <path d="M-24.85 -21.2 L24.2 -21.2 24.2 45.45" fill="none" stroke="#000000" stroke-linecap="butt" stroke-linejoin="miter-clip" stroke-miterlimit="10.0" stroke-opacity="0.6" stroke-width="1.0"/>
  </g>
</svg>
