<?xml version="1.0" encoding="UTF-8" standalone="no"?>
<svg xmlns:xlink="http://www.w3.org/1999/xlink" height="32.65px" width="47.55px" xmlns="http://www.w3.org/2000/svg">
  <g transform="matrix(1.0, 0.0, 0.0, 1.0, 23.75, 16.3)">
    <path d="M20.3 -13.6 L23.15 -9.95 -5.45 15.85 -5.65 10.2 20.3 -13.6" fill="#000000" fill-opacity="0.2" fill-rule="evenodd" stroke="none"/>
    <path d="M-22.15 7.55 L3.65 -15.8 20.3 -13.6 -5.65 10.2 -22.15 7.55" fill="#000000" fill-opacity="0.003921569" fill-rule="evenodd" stroke="none"/>
    <path d="M-5.45 15.85 L-23.15 12.2 -22.15 7.55 -5.65 10.2 -5.45 15.85" fill="#000000" fill-opacity="0.09803922" fill-rule="evenodd" stroke="none"/>
    <path d="M-22.15 7.55 L3.65 -15.8 20.3 -13.6 23.15 -9.95 -5.45 15.85 -23.15 12.2 -22.15 7.55" fill="none" stroke="#000000" stroke-linecap="round" stroke-linejoin="miter-clip" stroke-miterlimit="10.0" stroke-opacity="0.8" stroke-width="1.0"/>
    <path d="M-22.15 7.55 L-5.65 10.2 20.3 -13.6 M-5.65 10.2 L-5.45 15.85" fill="none" stroke="#000000" stroke-linecap="round" stroke-linejoin="miter-clip" stroke-miterlimit="10.0" stroke-opacity="0.6" stroke-width="1.0"/>
  </g>
</svg>
