<?xml version="1.0" encoding="UTF-8" standalone="no"?>
<svg xmlns:xlink="http://www.w3.org/1999/xlink" height="22.65px" width="57.15px" xmlns="http://www.w3.org/2000/svg">
  <g transform="matrix(1.0, 0.0, 0.0, 1.0, 2.85, 0.45)">
    <path d="M45.2 14.7 L44.5 14.65 46.05 12.4 Q47.05 11.0 48.05 10.7 L50.8 10.95 53.6 11.4 Q52.8 13.9 49.75 14.55 L45.2 14.7 46.6 13.35 Q48.3 12.1 49.9 12.25 48.3 12.1 46.6 13.35 L45.2 14.7 M33.25 4.05 L33.9 3.9 34.45 3.65 33.45 3.25 32.5 2.7 32.15 2.15 31.75 1.6 Q30.85 0.75 29.2 0.6 L29.85 0.0 27.4 0.15 Q26.9 0.2 26.8 0.35 L26.55 1.05 26.0 3.8 23.85 2.45 21.55 2.3 Q20.75 2.75 20.15 3.85 L19.45 5.85 20.4 5.6 21.5 5.35 Q21.1 5.85 21.05 6.9 21.0 7.85 21.25 8.65 21.85 10.25 21.95 11.5 22.1 11.0 22.85 10.55 L23.9 9.65 25.25 6.9 25.55 9.5 Q25.65 11.3 26.7 11.75 L26.6 10.5 Q26.65 10.85 27.6 11.3 L28.85 11.75 29.95 12.1 30.75 12.85 30.45 11.3 31.1 12.2 Q30.85 11.5 31.2 9.7 31.5 8.15 30.75 7.2 L29.75 6.35 Q29.1 5.85 29.15 5.25 29.65 5.25 30.5 5.85 31.3 6.45 31.8 6.35 L31.7 6.25 31.65 6.1 32.95 6.45 34.25 6.55 33.9 5.25 Q33.75 4.4 33.25 4.05 M24.35 15.95 Q26.55 17.45 28.4 17.65 L29.8 17.55 28.4 17.65 Q26.55 17.45 24.35 15.95 M27.5 19.35 L26.45 18.25 25.5 17.05 Q25.0 16.6 23.4 15.85 L24.5 15.55 25.6 15.05 29.0 14.95 Q29.95 15.15 31.35 16.05 L33.55 17.45 30.65 19.35 Q29.05 20.2 27.5 19.35 M13.1 14.35 L12.35 14.15 14.25 12.2 Q15.45 10.95 16.55 10.85 17.55 10.7 19.2 11.5 L21.9 12.45 Q20.7 14.75 17.6 14.95 L13.1 14.35 14.65 13.25 Q16.55 12.25 18.1 12.65 16.55 12.25 14.65 13.25 L13.1 14.35 M6.35 7.2 L5.65 7.55 4.15 9.0 3.3 10.15 2.9 10.75 1.75 10.2 0.0 9.25 0.85 8.25 2.0 7.25 Q3.35 6.5 4.65 6.75 L6.35 7.2" fill="#ffffff" fill-opacity="0.0" fill-rule="evenodd" stroke="none"/>
    <path d="M29.8 17.55 L28.4 17.65 Q26.55 17.45 24.35 15.95 M27.5 19.35 Q29.05 20.2 30.65 19.35 L33.55 17.45 31.35 16.05 Q29.95 15.15 29.0 14.95 L25.6 15.05 24.5 15.55 23.4 15.85 Q25.0 16.6 25.5 17.05 L26.45 18.25 27.5 19.35 M13.1 14.35 L12.35 14.15 14.25 12.2 Q15.45 10.95 16.55 10.85 17.55 10.7 19.2 11.5 L21.9 12.45 Q20.7 14.75 17.6 14.95 L13.1 14.35 14.65 13.25 Q16.55 12.25 18.1 12.65 M6.35 7.2 L4.65 6.75 Q3.35 6.5 2.0 7.25 L0.85 8.25 0.0 9.25 1.75 10.2 2.9 10.75" fill="none" stroke="#000000" stroke-linecap="butt" stroke-linejoin="miter-clip" stroke-miterlimit="10.0" stroke-opacity="0.6" stroke-width="1.0"/>
    <path d="M33.25 4.05 L33.9 3.9 34.45 3.65 33.45 3.25 32.5 2.7 32.15 2.15 31.75 1.6 Q30.85 0.75 29.2 0.6 L29.85 0.0 27.4 0.15 Q26.9 0.2 26.8 0.35 L26.55 1.05 26.0 3.8 23.85 2.45 21.55 2.3 Q20.75 2.75 20.15 3.85 L19.45 5.85 20.4 5.6 21.5 5.35 Q21.1 5.85 21.05 6.9 21.0 7.85 21.25 8.65 21.85 10.25 21.95 11.5 22.1 11.0 22.85 10.55 L23.9 9.65 25.25 6.9 25.55 9.5 Q25.65 11.3 26.7 11.75 L26.6 10.5 Q26.65 10.85 27.6 11.3 L28.85 11.75 29.95 12.1 30.75 12.85 30.45 11.3 31.1 12.2 Q30.85 11.5 31.2 9.7 31.5 8.15 30.75 7.2 L29.75 6.35 Q29.1 5.85 29.15 5.25 29.65 5.25 30.5 5.85 31.3 6.45 31.8 6.35 L31.7 6.25 31.65 6.1 32.95 6.45 34.25 6.55 33.9 5.25 Q33.75 4.4 33.25 4.05" fill="none" stroke="#000000" stroke-linecap="butt" stroke-linejoin="miter-clip" stroke-miterlimit="10.0" stroke-opacity="0.6" stroke-width="0.9"/>
    <path d="M45.2 14.7 L44.5 14.65 46.05 12.4 Q47.05 11.0 48.05 10.7 L50.8 10.95 53.6 11.4 Q52.8 13.9 49.75 14.55 L45.2 14.7" fill="none" stroke="#000000" stroke-linecap="round" stroke-linejoin="miter-clip" stroke-miterlimit="10.0" stroke-opacity="0.6" stroke-width="1.0"/>
    <path d="M45.2 14.7 L46.6 13.35 Q48.3 12.1 49.9 12.25" fill="none" stroke="#000000" stroke-linecap="round" stroke-linejoin="miter-clip" stroke-miterlimit="10.0" stroke-opacity="0.6" stroke-width="1.0"/>
  </g>
</svg>
