<?xml version="1.0" encoding="UTF-8" standalone="no"?>
<svg xmlns:xlink="http://www.w3.org/1999/xlink" height="176.95px" width="42.15px" xmlns="http://www.w3.org/2000/svg">
  <g transform="matrix(1.0, 0.0, 0.0, 1.0, 22.4, 88.6)">
    <path d="M9.1 -45.75 Q10.35 -48.05 11.65 -41.95 12.8 -36.95 12.85 -33.85 L12.15 -17.55 15.85 -33.4 18.1 -31.95 13.25 -14.1 13.0 -10.15 Q12.75 -5.95 12.9 -4.85 L14.9 18.65 13.85 26.65 Q12.8 34.4 13.0 35.4 13.3 37.15 10.25 49.0 L9.55 52.8 Q8.85 57.2 8.75 60.0 8.5 67.25 9.45 70.25 10.2 72.6 10.5 79.8 11.45 85.95 15.85 86.75 L13.5 86.85 11.1 86.45 9.1 86.75 7.1 86.95 2.95 86.45 Q0.9 86.4 -1.05 87.85 2.05 85.4 3.8 81.9 4.4 80.65 4.6 77.75 L4.55 71.6 Q4.4 67.6 4.6 65.35 4.8 63.2 4.0 58.7 3.25 54.6 3.6 53.35 L4.3 51.15 5.0 48.35 Q5.5 46.1 4.95 43.3 4.45 40.9 3.6 39.6 L0.15 36.5 -3.3 33.75 Q-3.95 33.15 -3.05 28.25 L-1.3 20.95 Q-0.7 18.9 0.4 12.35 L1.4 6.15 3.3 19.4 Q4.35 26.3 4.85 28.35 L7.45 41.0 Q7.25 35.55 8.15 29.75 8.7 26.15 9.3 13.1 L9.8 0.75 9.45 -6.2 Q9.2 -13.3 9.5 -13.75 10.15 -14.7 10.5 -26.55 10.6 -29.5 9.85 -37.95 L9.1 -45.75" fill="#ffffff" fill-opacity="0.0" fill-rule="evenodd" stroke="none"/>
    <path d="M11.4 24.65 Q12.65 20.65 14.85 17.55 L14.9 18.65 13.85 26.65 Q12.8 34.4 13.0 35.4 13.3 37.15 10.25 49.0 L9.55 52.8 Q8.85 57.2 8.75 60.0 8.5 67.25 9.45 70.25 10.2 72.6 10.5 79.8 11.45 85.95 15.85 86.75 L13.5 86.85 11.1 86.45 9.1 86.75 7.1 86.95 2.95 86.45 5.7 83.45 Q7.1 81.3 7.05 76.5 6.75 71.25 6.9 69.2 8.15 71.5 7.95 76.65 7.7 82.35 8.35 84.35 9.7 79.6 8.8 72.05 7.45 63.55 7.05 59.7 L6.7 56.75 Q6.5 55.0 6.65 53.95 L7.75 49.95 8.9 45.95 Q10.0 40.85 10.1 32.2 10.15 28.55 11.4 24.65" fill="#000000" fill-opacity="0.2" fill-rule="evenodd" stroke="none"/>
    <path d="M7.45 41.0 L4.85 28.35 Q4.35 26.3 3.3 19.4 M-1.05 87.85 Q0.9 86.4 2.95 86.45 L7.1 86.95 9.1 86.75 11.1 86.45 13.5 86.85 15.85 86.75 Q11.45 85.95 10.5 79.8 10.2 72.6 9.45 70.25 8.5 67.25 8.75 60.0 8.85 57.2 9.55 52.8 L10.25 49.0 M13.0 -10.15 L13.25 -14.1" fill="none" stroke="#000000" stroke-linecap="butt" stroke-linejoin="miter-clip" stroke-miterlimit="10.0" stroke-width="1.0"/>
    <path d="M13.25 -14.1 L18.1 -31.95 15.85 -33.4 12.15 -17.55 12.85 -33.85 Q12.8 -36.95 11.65 -41.95 10.35 -48.05 9.1 -45.75 L9.85 -37.95 Q10.6 -29.5 10.5 -26.55 10.15 -14.7 9.5 -13.75 9.2 -13.3 9.45 -6.2 L9.8 0.75" fill="none" stroke="#000000" stroke-linecap="butt" stroke-linejoin="miter-clip" stroke-miterlimit="10.0" stroke-opacity="0.6" stroke-width="1.0"/>
    <path d="M9.8 0.75 L9.3 13.1 Q8.7 26.15 8.15 29.75 7.25 35.55 7.45 41.0 M3.3 19.4 L1.4 6.15 0.4 12.35 Q-0.7 18.9 -1.3 20.95 L-3.05 28.25 Q-3.95 33.15 -3.3 33.75 L0.15 36.5 3.6 39.6 Q4.45 40.9 4.95 43.3 5.5 46.1 5.0 48.35 L4.3 51.15 3.6 53.35 Q3.25 54.6 4.0 58.7 4.8 63.2 4.6 65.35 4.4 67.6 4.55 71.6 L4.6 77.75 Q4.4 80.65 3.8 81.9 2.05 85.4 -1.05 87.85 M10.25 49.0 Q13.3 37.15 13.0 35.4 12.8 34.4 13.85 26.65 L14.9 18.65 12.9 -4.85 Q12.75 -5.95 13.0 -10.15" fill="none" stroke="#000000" stroke-linecap="butt" stroke-linejoin="miter-clip" stroke-miterlimit="10.0" stroke-opacity="0.8" stroke-width="1.0"/>
    <path d="M-10.2 -25.5 Q-8.8 -24.75 -7.95 -23.9 L-1.45 -10.05 Q-0.85 -6.3 -1.6 -6.55 -2.0 -6.65 -4.95 -13.9 -8.05 -21.55 -8.7 -22.4 -9.35 -23.3 -13.5 -24.8 -16.85 -26.05 -16.0 -26.25 -13.05 -26.95 -10.2 -25.5" fill="#ffffff" fill-opacity="0.0" fill-rule="evenodd" stroke="none"/>
    <path d="M-10.2 -25.5 Q-13.05 -26.95 -16.0 -26.25 -16.85 -26.05 -13.5 -24.8 -9.35 -23.3 -8.7 -22.4 -8.05 -21.55 -4.95 -13.9 -2.0 -6.65 -1.6 -6.55 -0.85 -6.3 -1.45 -10.05 L-7.95 -23.9 Q-8.8 -24.75 -10.2 -25.5 Z" fill="none" stroke="#000000" stroke-linecap="butt" stroke-linejoin="miter-clip" stroke-miterlimit="10.0" stroke-opacity="0.6" stroke-width="1.0"/>
    <path d="M-13.0 -55.8 L-10.9 -56.15 -7.65 -52.55 -3.45 -47.5 Q-2.15 -45.55 5.4 -30.45 L4.7 -27.15 -4.95 -47.55 Q-7.3 -51.2 -10.05 -53.35 -11.8 -54.7 -15.7 -53.6 L-19.3 -52.2 Q-15.75 -54.9 -13.0 -55.8" fill="#ffffff" fill-opacity="0.0" fill-rule="evenodd" stroke="none"/>
    <path d="M-13.0 -55.8 Q-15.75 -54.9 -19.3 -52.2 L-15.7 -53.6 Q-11.8 -54.7 -10.05 -53.35 -7.3 -51.2 -4.95 -47.55 L4.7 -27.15 5.4 -30.45 Q-2.15 -45.55 -3.45 -47.5 L-7.65 -52.55 -10.9 -56.15 -13.0 -55.8 Z" fill="none" stroke="#000000" stroke-linecap="butt" stroke-linejoin="miter-clip" stroke-miterlimit="10.0" stroke-opacity="0.6" stroke-width="1.0"/>
    <path d="M9.75 -87.8 L11.15 -81.75 Q12.8 -75.4 13.75 -73.85 15.3 -71.4 18.9 -67.2 L19.25 -50.2 16.75 -50.15 17.3 -60.95 17.15 -65.05 16.9 -66.7 12.6 -69.85 10.6 -78.45 Q8.8 -87.15 9.75 -87.8" fill="#ffffff" fill-opacity="0.0" fill-rule="evenodd" stroke="none"/>
    <path d="M9.75 -87.8 L11.15 -81.75 Q12.8 -75.4 13.75 -73.85 15.3 -71.4 18.9 -67.2 L19.25 -50.2 16.75 -50.15 17.3 -60.95 17.15 -65.05 16.9 -66.7 12.6 -69.85 10.6 -78.45 Q8.8 -87.15 9.75 -87.8 Z" fill="none" stroke="#000000" stroke-linecap="butt" stroke-linejoin="miter-clip" stroke-miterlimit="10.0" stroke-opacity="0.6" stroke-width="1.0"/>
  </g>
</svg>
