<?xml version="1.0" encoding="UTF-8" standalone="no"?>
<svg xmlns:xlink="http://www.w3.org/1999/xlink" height="113.6px" width="64.2px" xmlns="http://www.w3.org/2000/svg">
  <g transform="matrix(1.0, 0.0, 0.0, 1.0, 32.1, 56.85)">
    <path d="M11.85 -39.7 L3.45 -39.2 Q-16.7 -38.55 -31.25 -43.3 L-31.45 -50.45 Q-3.25 -45.5 13.1 -47.45 L13.05 -39.85 11.85 -39.7 M-14.3 -53.45 L-12.25 -53.3 -13.0 -53.35 -13.85 -53.4 -14.3 -53.45 M-28.35 -43.3 L-27.95 -49.3 -29.95 -49.55 -29.95 -43.85 -28.35 -43.3 M-28.8 38.6 Q-18.1 42.75 -6.0 43.65 L12.65 42.95 12.6 55.1 13.35 55.0 5.15 56.0 5.15 56.1 5.15 56.0 13.35 55.0 23.25 52.2 24.45 51.7 24.85 51.5 26.9 50.45 28.3 49.5 28.45 49.35 28.45 49.5 Q26.95 50.85 23.25 52.3 15.9 55.3 5.15 56.1 L5.15 56.25 -5.15 56.25 5.15 56.25 5.15 56.35 0.0 56.35 -5.15 56.35 -5.15 56.25 -5.15 56.1 -5.15 56.0 Q-15.9 55.2 -23.25 52.2 L-28.45 49.35 -23.25 52.2 Q-15.9 55.2 -5.15 56.0 L-5.15 56.1 Q-15.9 55.3 -23.25 52.3 L-28.45 49.5 -28.45 49.35 -28.8 38.6 M-27.3 49.1 L-25.3 50.15 -25.4 40.75 -27.4 40.35 -27.3 49.1" fill="#ffffff" fill-opacity="0.0" fill-rule="evenodd" stroke="none"/>
    <path d="M17.65 -53.9 L19.0 -54.05 19.95 -54.2 20.45 -54.25 31.6 -55.95 31.2 -42.5 29.75 -42.2 28.9 -42.05 28.65 -42.0 29.75 -42.2 28.65 -42.0 13.3 -39.85 13.05 -39.85 13.1 -47.45 Q-3.25 -45.5 -31.45 -50.45 L-31.6 -56.35 Q-26.75 -55.05 -21.1 -54.25 L-15.15 -53.55 -14.3 -53.45 -13.85 -53.4 -15.15 -53.55 -13.85 -53.4 -13.0 -53.35 -12.25 -53.3 -9.15 -53.1 17.65 -53.9 31.6 -55.95 17.65 -53.9 M12.65 42.95 L12.65 42.8 15.95 42.25 25.7 39.8 28.75 38.8 28.45 49.35 28.3 49.5 26.9 50.45 24.85 51.5 24.45 51.7 23.25 52.2 13.35 55.0 12.6 55.1 12.65 42.95 M15.95 42.25 L12.65 42.8 12.65 42.75 15.95 42.25" fill="#000000" fill-opacity="0.2" fill-rule="evenodd" stroke="none"/>
    <path d="M-28.35 -43.3 L-29.95 -43.85 -29.95 -49.55 -27.95 -49.3 -28.35 -43.3 M-27.3 49.1 L-27.4 40.35 -25.4 40.75 -25.3 50.15 -27.3 49.1" fill="#ffffff" fill-opacity="0.4" fill-rule="evenodd" stroke="none"/>
    <path d="M31.6 -55.95 L31.2 -42.5 M-31.25 -43.3 L-31.45 -50.45 -31.6 -56.35 Q-26.75 -55.05 -21.1 -54.25 L-15.15 -53.55 -13.85 -53.4 -13.0 -53.35 -12.25 -53.3 -9.15 -53.1 17.65 -53.9 31.6 -55.95 M-28.8 38.45 L-28.8 38.6 -28.45 49.35 -23.25 52.2 Q-15.9 55.2 -5.15 56.0 L-5.15 56.1 -5.15 56.25 5.15 56.25 5.15 56.1 5.15 56.0 13.35 55.0 23.25 52.2 24.45 51.7 M28.75 38.8 L28.45 49.35 28.3 49.5 26.9 50.45" fill="none" stroke="#000000" stroke-linecap="butt" stroke-linejoin="miter-clip" stroke-miterlimit="10.0" stroke-width="1.0"/>
    <path d="M31.2 -42.5 L29.75 -42.2 28.65 -42.0 Q20.15 -40.45 11.85 -39.7 L3.45 -39.2 Q-16.7 -38.55 -31.25 -43.3 M12.65 42.8 L-6.0 43.5 Q-18.1 42.6 -28.8 38.45 M15.95 42.25 L25.7 39.8 28.75 38.8 M12.65 42.8 L15.95 42.25" fill="none" stroke="#000000" stroke-linecap="butt" stroke-linejoin="miter-clip" stroke-miterlimit="10.0" stroke-opacity="0.6" stroke-width="1.0"/>
  </g>
</svg>
