<?xml version="1.0" encoding="UTF-8" standalone="no"?>
<svg xmlns:xlink="http://www.w3.org/1999/xlink" height="25.4px" width="25.4px" xmlns="http://www.w3.org/2000/svg">
  <g transform="matrix(1.0, 0.0, 0.0, 1.0, 12.7, 12.7)">
    <path d="M12.0 -0.05 L7.5 4.5 7.5 1.5 3.5 1.5 3.5 -1.5 7.5 -1.5 7.5 -4.55 12.0 -0.05 M0.05 -12.0 L4.55 -7.5 1.5 -7.5 1.5 -3.5 -1.5 -3.5 -1.5 -7.5 -4.45 -7.5 0.05 -12.0 M0.0 12.0 L-4.5 7.5 -1.5 7.5 -1.5 3.5 1.5 3.5 1.5 7.5 4.5 7.5 0.0 12.0 M-12.0 0.0 L-7.5 -4.45 -7.5 -1.5 -3.5 -1.5 -3.5 1.5 -7.5 1.5 -7.5 4.5 -12.0 0.0" fill="#ffffff" fill-rule="evenodd" stroke="none"/>
    <path d="M12.0 -0.05 L7.5 4.5 7.5 1.5 3.5 1.5 3.5 -1.5 7.5 -1.5 7.5 -4.55 12.0 -0.05 M0.05 -12.0 L4.55 -7.5 1.5 -7.5 1.5 -3.5 -1.5 -3.5 -1.5 -7.5 -4.45 -7.5 0.05 -12.0 M0.0 12.0 L-4.5 7.5 -1.5 7.5 -1.5 3.5 1.5 3.5 1.5 7.5 4.5 7.5 0.0 12.0 M-12.0 0.0 L-7.5 -4.45 -7.5 -1.5 -3.5 -1.5 -3.5 1.5 -7.5 1.5 -7.5 4.5 -12.0 0.0" fill="none" stroke="#000000" stroke-linecap="square" stroke-linejoin="miter-clip" stroke-miterlimit="2.0" stroke-width="1.0"/>
  </g>
</svg>
