<?xml version="1.0" encoding="UTF-8" standalone="no"?>
<svg xmlns:xlink="http://www.w3.org/1999/xlink" height="19.65px" width="19.65px" xmlns="http://www.w3.org/2000/svg">
  <g transform="matrix(1.0, 0.0, 0.0, 1.0, 0.0, 0.0)">
    <path d="M5.15 8.5 L5.15 2.95 9.85 0.5 14.5 2.95 14.5 8.5 19.15 10.95 19.15 16.65 14.5 19.15 9.85 16.65 5.15 19.15 0.5 16.65 0.5 10.95 5.15 8.5 9.85 10.95 14.5 8.5 9.85 10.95 5.15 8.5 M9.85 16.65 L9.85 10.95 9.85 16.65" fill="#ffffff" fill-rule="evenodd" stroke="none"/>
    <path d="M5.15 8.5 L5.15 2.95 9.85 0.5 14.5 2.95 14.5 8.5 19.15 10.95 19.15 16.65 14.5 19.15 9.85 16.65 5.15 19.15 0.5 16.65 0.5 10.95 5.15 8.5 9.85 10.95 14.5 8.5 M9.85 10.95 L9.85 16.65" fill="none" stroke="#231f20" stroke-linecap="round" stroke-linejoin="round" stroke-width="1.0"/>
  </g>
</svg>
