<?xml version="1.0" encoding="UTF-8" standalone="no"?>
<svg xmlns:xlink="http://www.w3.org/1999/xlink" height="39.3px" width="25.5px" xmlns="http://www.w3.org/2000/svg">
  <g transform="matrix(1.0, 0.0, 0.0, 1.0, 12.75, 19.65)">
    <path d="M3.45 -17.45 Q4.7 -17.05 5.9 -15.8 8.7 -12.9 11.1 -5.35 L12.2 -1.4 Q12.4 -0.8 12.0 -0.05 L10.95 0.75 9.65 0.55 Q9.05 0.2 8.8 -0.5 L7.4 -5.35 5.05 -11.0 4.35 -12.15 4.5 -11.0 5.05 -6.0 5.55 -0.4 8.0 16.3 Q8.1 17.35 7.5 18.15 6.9 19.0 5.9 19.15 4.8 19.25 4.0 18.65 3.1 17.95 3.05 17.05 1.35 6.65 0.0 0.7 L-3.05 17.05 Q-3.1 18.0 -4.0 18.65 -4.8 19.25 -5.9 19.15 -6.9 19.0 -7.5 18.15 -8.05 17.35 -8.0 16.3 L-5.55 -0.4 -5.05 -6.0 -4.5 -11.0 -4.35 -12.15 -5.0 -11.0 Q-6.2 -8.85 -7.35 -5.35 L-8.8 -0.5 Q-9.05 0.2 -9.65 0.55 L-10.95 0.75 -12.0 -0.05 Q-12.4 -0.8 -12.2 -1.4 L-11.05 -5.35 Q-8.35 -14.0 -5.1 -16.55 -4.3 -17.2 -3.45 -17.45 L-3.3 -17.5 -3.2 -17.5 -1.8 -17.7 -1.7 -18.95 Q0.0 -19.35 1.65 -18.95 L1.75 -17.7 2.5 -17.65 3.3 -17.5 3.45 -17.45 Z" fill="none" stroke="#000000" stroke-linecap="round" stroke-linejoin="miter-clip" stroke-miterlimit="3.0" stroke-opacity="0.69803923" stroke-width="1.0"/>
  </g>
</svg>
