<?xml version="1.0" encoding="UTF-8" standalone="no"?>
<svg xmlns:xlink="http://www.w3.org/1999/xlink" height="20.1px" width="19.9px" xmlns="http://www.w3.org/2000/svg">
  <g transform="matrix(1.0, 0.0, 0.0, 1.0, 0.0, 0.0)">
    <path d="M19.7 6.35 Q20.15 8.2 19.7 8.8 19.4 9.25 18.3 9.2 15.05 8.95 13.95 10.05 12.9 11.15 13.25 12.55 13.55 13.85 14.7 14.65 17.0 16.05 16.2 17.95 15.3 20.1 10.1 20.1 5.85 20.1 2.95 17.15 0.0 14.25 0.0 10.05 0.0 5.85 2.95 2.9 5.85 0.0 10.1 0.0 13.6 0.0 16.3 1.7 19.05 3.45 19.7 6.35" fill="#ffffff" fill-rule="evenodd" stroke="none"/>
  </g>
</svg>
