<?xml version="1.0" encoding="UTF-8" standalone="no"?>
<svg xmlns:xlink="http://www.w3.org/1999/xlink" height="34.0px" width="17.45px" xmlns="http://www.w3.org/2000/svg">
  <g transform="matrix(1.0, 0.0, 0.0, 1.0, 8.75, 17.0)">
    <path d="M5.9 -15.05 Q7.35 -13.55 8.7 -10.8 L5.5 -9.35 5.05 -10.25 4.35 -11.4 4.5 -10.25 5.05 -5.25 5.35 -2.5 5.55 0.35 7.9 16.3 2.95 17.0 Q1.3 7.15 0.0 1.45 L-2.9 17.0 -7.9 16.35 -5.55 0.35 -5.3 -2.75 -5.05 -5.25 -4.5 -10.25 -4.35 -11.4 -5.0 -10.25 -5.55 -9.2 -8.75 -10.7 Q-7.0 -14.3 -5.1 -15.8 L-3.8 -16.55 -3.45 -16.7 -3.3 -16.75 0.0 -17.0 3.3 -16.75 3.45 -16.7 3.95 -16.5 Q4.95 -16.05 5.9 -15.05" fill="#ffffff" fill-opacity="0.0" fill-rule="evenodd" stroke="none"/>
  </g>
</svg>
