<?xml version="1.0" encoding="UTF-8" standalone="no"?>
<svg xmlns:xlink="http://www.w3.org/1999/xlink" height="35.5px" width="28.3px" xmlns="http://www.w3.org/2000/svg">
  <g transform="matrix(1.0, 0.0, 0.0, 1.0, 14.15, 17.75)">
    <path d="M11.45 -4.0 Q14.8 -4.25 14.0 0.65 13.2 5.5 10.1 5.55 L8.95 9.1 7.65 11.95 Q4.6 17.7 0.05 17.75 -4.9 17.8 -7.75 12.0 L-8.85 9.1 -9.85 5.55 Q-13.15 5.65 -14.0 0.65 -14.8 -4.25 -11.5 -4.0 -11.6 -7.0 -10.95 -9.4 -10.45 -11.5 -9.3 -13.2 -6.2 -17.75 0.05 -17.75 5.6 -17.75 8.8 -13.25 10.05 -11.55 10.7 -9.4 11.45 -6.95 11.45 -4.0" fill="#ffffff" fill-rule="evenodd" stroke="none"/>
  </g>
</svg>
