<?xml version="1.0" encoding="UTF-8" standalone="no"?>
<svg xmlns:xlink="http://www.w3.org/1999/xlink" height="12.0px" width="16.0px" xmlns="http://www.w3.org/2000/svg">
  <g transform="matrix(1.0, 0.0, 0.0, 1.0, 8.0, 6.0)">
    <path d="M5.0 -5.0 L5.0 -4.0 6.0 -4.0 6.0 -3.0 7.0 -3.0 7.0 -2.0 8.0 -2.0 8.0 0.0 7.0 0.0 7.0 1.0 6.0 1.0 6.0 2.0 5.0 2.0 5.0 1.0 4.0 1.0 4.0 0.0 5.0 0.0 5.0 -2.0 3.0 -2.0 3.0 -3.0 -4.0 -3.0 -4.0 -2.0 -5.0 -2.0 -5.0 0.0 -2.0 0.0 -2.0 -1.0 -1.0 -1.0 -1.0 0.0 1.0 0.0 1.0 1.0 3.0 1.0 3.0 2.0 4.0 2.0 4.0 3.0 3.0 3.0 3.0 4.0 1.0 4.0 1.0 5.0 -1.0 5.0 -1.0 6.0 -2.0 6.0 -2.0 5.0 -3.0 5.0 -3.0 3.0 -5.0 3.0 -5.0 2.0 -6.0 2.0 -6.0 1.0 -7.0 1.0 -7.0 0.0 -8.0 0.0 -8.0 -2.0 -7.0 -2.0 -7.0 -3.0 -6.0 -3.0 -6.0 -4.0 -5.0 -4.0 -5.0 -5.0 -3.0 -5.0 -3.0 -6.0 3.0 -6.0 3.0 -5.0 5.0 -5.0" fill="#ffffff" fill-opacity="0.49803922" fill-rule="evenodd" stroke="none"/>
    <path d="M3.0 -4.0 L5.0 -4.0 5.0 -3.0 6.0 -3.0 6.0 -2.0 7.0 -2.0 7.0 0.0 6.0 0.0 6.0 1.0 5.0 1.0 5.0 0.0 6.0 0.0 6.0 -2.0 5.0 -2.0 5.0 -3.0 3.0 -3.0 3.0 -4.0 -3.0 -4.0 -3.0 -3.0 -5.0 -3.0 -5.0 -2.0 -6.0 -2.0 -6.0 0.0 -5.0 0.0 -5.0 1.0 -3.0 1.0 -3.0 2.0 -1.0 2.0 -1.0 1.0 -2.0 1.0 -2.0 0.0 -1.0 0.0 -1.0 1.0 1.0 1.0 1.0 2.0 3.0 2.0 3.0 3.0 1.0 3.0 1.0 4.0 -1.0 4.0 -1.0 5.0 -2.0 5.0 -2.0 4.0 -1.0 4.0 -1.0 3.0 -3.0 3.0 -3.0 2.0 -5.0 2.0 -5.0 1.0 -6.0 1.0 -6.0 0.0 -7.0 0.0 -7.0 -2.0 -6.0 -2.0 -6.0 -3.0 -5.0 -3.0 -5.0 -4.0 -3.0 -4.0 -3.0 -5.0 3.0 -5.0 3.0 -4.0" fill="#000000" fill-rule="evenodd" stroke="none"/>
  </g>
</svg>
