<?xml version="1.0" encoding="UTF-8" standalone="no"?>
<svg xmlns:xlink="http://www.w3.org/1999/xlink" height="21.05px" width="20.85px" xmlns="http://www.w3.org/2000/svg">
  <g transform="matrix(1.0, 0.0, 0.0, 1.0, 0.0, 0.0)">
    <path d="M20.15 6.85 Q20.6 8.7 20.15 9.3 19.85 9.7 18.75 9.65 15.5 9.4 14.4 10.5 13.35 11.6 13.7 13.0 14.0 14.3 15.15 15.1 17.45 16.5 16.65 18.4 15.75 20.55 10.55 20.55 6.35 20.55 3.45 17.6 0.5 14.7 0.5 10.5 0.5 6.35 3.45 3.4 6.35 0.5 10.55 0.5 14.05 0.5 16.75 2.2 19.5 3.95 20.15 6.85" fill="#ffffff" fill-rule="evenodd" stroke="none"/>
    <path d="M20.15 6.85 Q19.5 3.95 16.75 2.2 14.05 0.5 10.55 0.5 6.35 0.5 3.45 3.4 0.5 6.35 0.5 10.5 0.5 14.7 3.45 17.6 6.35 20.55 10.55 20.55 15.75 20.55 16.65 18.4 17.45 16.5 15.15 15.1 14.0 14.3 13.7 13.0 13.35 11.6 14.4 10.5 15.5 9.4 18.75 9.65 19.85 9.7 20.15 9.3 20.6 8.7 20.15 6.85 Z" fill="none" stroke="#231f20" stroke-linecap="round" stroke-linejoin="round" stroke-width="1.0"/>
    <path d="M14.5 4.6 L14.5 4.75 Q14.45 5.3 14.0 5.75 13.5 6.25 12.85 6.25 12.15 6.25 11.65 5.75 11.2 5.3 11.15 4.75 L11.15 4.6 Q11.15 3.9 11.65 3.4 12.15 2.9 12.85 2.9 13.5 2.9 14.0 3.4 14.5 3.9 14.5 4.6 M8.65 5.95 Q8.65 6.65 8.15 7.15 7.65 7.65 7.0 7.65 6.3 7.65 5.8 7.15 5.3 6.65 5.3 5.95 5.3 5.25 5.8 4.8 6.3 4.3 7.0 4.3 7.65 4.3 8.15 4.8 8.65 5.25 8.65 5.95 M6.55 11.35 Q6.55 12.0 6.05 12.5 5.55 13.0 4.9 13.0 4.2 13.0 3.7 12.5 3.2 12.0 3.2 11.35 3.2 10.65 3.7 10.2 4.2 9.7 4.9 9.7 5.55 9.7 6.05 10.2 6.55 10.65 6.55 11.35 M10.15 15.7 Q10.15 16.4 9.65 16.9 9.15 17.4 8.45 17.4 7.75 17.4 7.3 16.9 6.8 16.4 6.8 15.7 6.8 15.0 7.3 14.55 7.75 14.05 8.45 14.05 9.15 14.05 9.65 14.55 10.15 15.0 10.15 15.7" fill="#000000" fill-rule="evenodd" stroke="none"/>
  </g>
</svg>
