<?xml version="1.0" encoding="UTF-8" standalone="no"?>
<svg xmlns:xlink="http://www.w3.org/1999/xlink" height="28.05px" width="32.05px" xmlns="http://www.w3.org/2000/svg">
  <g transform="matrix(1.0, 0.0, 0.0, 1.0, -1.95, -3.95)">
    <path d="M31.0 27.0 Q32.0 27.0 32.0 28.0 L32.0 31.0 31.7 31.7 31.0 32.0 5.0 32.0 Q4.0 32.0 4.0 31.0 L4.0 28.0 Q4.0 27.0 5.0 27.0 L31.0 27.0" fill="#000000" fill-rule="evenodd" stroke="none"/>
    <path d="M30.1 4.1 Q32.2 5.7 33.25 8.15 34.3 10.75 33.85 13.55 33.5 15.75 32.25 17.6 31.0 19.4 29.1 20.55 30.0 22.75 30.0 25.0 L6.0 25.0 Q6.0 22.65 6.85 20.55 4.95 19.4 3.7 17.6 2.45 15.75 2.1 13.55 1.65 10.75 2.7 8.15 3.75 5.7 5.85 4.1 6.15 3.85 6.45 4.1 6.75 4.3 6.6 4.65 5.65 7.2 6.15 9.85 6.9 13.7 10.4 15.7 13.65 13.0 18.0 13.0 22.3 13.0 25.55 15.7 29.05 13.7 29.8 9.85 30.3 7.2 29.35 4.65 29.2 4.3 29.5 4.1 29.8 3.85 30.1 4.1" fill="#000000" fill-rule="evenodd" stroke="none"/>
  </g>
</svg>
