<?xml version="1.0" encoding="UTF-8" standalone="no"?>
<svg xmlns:xlink="http://www.w3.org/1999/xlink" height="20.0px" width="17.4px" xmlns="http://www.w3.org/2000/svg">
  <g transform="matrix(1.0, 0.0, 0.0, 1.0, 8.6, 10.55)">
    <path d="M7.95 -5.35 Q7.2 -2.5 6.1 -1.05 L3.6 1.35 0.15 4.25 -4.05 0.35 -3.35 -0.4 -2.05 -2.3 -1.45 -4.25 Q-1.05 -5.6 -0.1 -6.85 1.0 -8.55 3.85 -9.5 6.75 -10.55 7.75 -9.5 8.75 -8.45 7.95 -5.35 M-1.1 5.5 Q-2.85 8.0 -4.3 8.65 -5.85 9.4 -7.05 8.4 -8.25 7.4 -8.1 5.65 -7.95 3.7 -5.35 1.6 L-1.1 5.5" fill="#ffffff" fill-rule="evenodd" stroke="none"/>
    <path d="M7.95 -5.35 Q8.75 -8.45 7.75 -9.5 6.75 -10.55 3.85 -9.5 1.0 -8.55 -0.1 -6.85 -1.05 -5.6 -1.45 -4.25 L-2.05 -2.3 -3.35 -0.4 -4.05 0.35 0.15 4.25 3.6 1.35 6.1 -1.05 Q7.2 -2.5 7.95 -5.35 M-1.1 5.5 Q-2.85 8.0 -4.3 8.65 -5.85 9.4 -7.05 8.4 -8.25 7.4 -8.1 5.65 -7.95 3.7 -5.35 1.6 L-1.1 5.5" fill="none" stroke="#000000" stroke-linecap="round" stroke-linejoin="round" stroke-width="1.0"/>
  </g>
</svg>
