<?xml version="1.0" encoding="UTF-8" standalone="no"?>
<svg xmlns:xlink="http://www.w3.org/1999/xlink" height="32.0px" width="32.0px" xmlns="http://www.w3.org/2000/svg">
  <g transform="matrix(1.0, 0.0, 0.0, 1.0, -1.95, -2.0)">
    <path d="M9.95 29.5 Q13.5 32.0 17.95 32.0 L19.1 31.95 19.15 30.25 Q16.5 29.7 12.95 27.45 L8.2 27.95 8.05 27.9 Q8.8 28.7 9.95 29.5 M6.8 9.55 Q5.1 11.8 4.4 14.6 3.7 17.35 4.15 20.2 L4.35 21.35 4.5 21.1 7.5 17.15 Q7.45 14.65 8.85 10.8 L6.8 9.55 M14.05 21.65 L13.85 26.1 Q17.65 28.4 19.9 28.7 L24.65 26.2 Q25.3 24.2 25.1 21.35 L20.0 18.45 19.95 18.4 14.05 21.65 M10.6 10.85 Q9.05 14.7 9.2 17.15 L13.65 20.0 19.75 16.65 19.8 11.95 Q17.65 9.65 15.2 8.3 L10.6 10.85 M26.2 6.7 Q22.5 4.0 17.95 4.0 L16.55 4.1 16.3 6.85 Q18.7 8.2 20.75 10.3 L25.4 9.45 26.2 6.7 M29.3 6.7 Q33.95 11.4 33.95 18.05 33.95 24.65 29.3 29.35 24.55 34.0 17.95 34.0 12.95 34.0 8.85 31.15 L6.65 29.35 6.35 29.05 Q3.95 26.5 2.85 23.25 2.35 21.9 2.15 20.5 1.6 16.7 2.75 13.05 3.95 9.4 6.65 6.7 11.35 2.0 17.95 2.0 24.5 2.0 29.3 6.7 M28.4 27.35 Q31.7 23.6 31.95 18.6 L29.15 17.3 26.65 20.2 Q26.95 23.9 26.35 26.15 L26.45 26.2 28.4 27.35 M31.9 16.75 Q31.4 11.65 27.85 8.1 L27.55 7.85 27.0 9.85 29.7 15.75 31.9 16.75" fill="#000000" fill-rule="evenodd" stroke="none"/>
  </g>
</svg>
