<?xml version="1.0" encoding="UTF-8" standalone="no"?>
<svg xmlns:xlink="http://www.w3.org/1999/xlink" height="21.0px" width="17.0px" xmlns="http://www.w3.org/2000/svg">
  <g transform="matrix(1.0, 0.0, 0.0, 1.0, 0.0, 0.0)">
    <path d="M8.55 20.5 L8.4 20.5 Q5.1 20.5 2.8 18.2 0.5 15.85 0.5 12.6 L0.5 8.4 Q0.5 5.15 2.8 2.8 5.1 0.5 8.4 0.5 L8.55 0.5 Q11.8 0.5 14.15 2.8 16.5 5.15 16.5 8.4 L16.5 12.6 Q16.5 15.85 14.15 18.2 11.8 20.5 8.55 20.5" fill="#ffffff" fill-rule="evenodd" stroke="none"/>
    <path d="M8.55 20.5 L8.4 20.5 Q5.1 20.5 2.8 18.2 0.5 15.85 0.5 12.6 L0.5 8.4 Q0.5 5.15 2.8 2.8 5.1 0.5 8.4 0.5 L8.55 0.5 Q11.8 0.5 14.15 2.8 16.5 5.15 16.5 8.4 L16.5 12.6 Q16.5 15.85 14.15 18.2 11.8 20.5 8.55 20.5 Z" fill="none" stroke="#000000" stroke-linecap="round" stroke-linejoin="round" stroke-width="1.0"/>
    <path d="M12.5 8.5 Q12.5 9.1 12.1 9.45 11.7 9.85 11.15 9.85 10.6 9.85 10.2 9.45 9.8 9.1 9.8 8.5 9.8 7.95 10.2 7.55 10.6 7.2 11.15 7.2 11.7 7.2 12.1 7.55 12.5 7.95 12.5 8.5 M7.15 8.5 Q7.15 9.1 6.75 9.45 6.4 9.85 5.8 9.85 5.25 9.85 4.85 9.45 4.5 9.1 4.5 8.5 4.5 7.95 4.85 7.55 5.25 7.2 5.8 7.2 6.4 7.2 6.75 7.55 7.15 7.95 7.15 8.5" fill="#231f20" fill-rule="evenodd" stroke="none"/>
    <path d="M5.8 13.85 Q6.8 15.15 8.5 15.15 10.1 15.15 11.15 13.85" fill="none" stroke="#231f20" stroke-linecap="round" stroke-linejoin="round" stroke-width="1.0"/>
  </g>
</svg>
