<?xml version="1.0" encoding="UTF-8" standalone="no"?>
<svg xmlns:xlink="http://www.w3.org/1999/xlink" height="17.0px" width="35.95px" xmlns="http://www.w3.org/2000/svg">
  <g transform="matrix(1.0, 0.0, 0.0, 1.0, 0.0, -9.5)">
    <path d="M2.5 26.5 L1.55 26.3 Q0.6 25.9 0.2 24.95 -0.2 24.0 0.2 23.0 5.85 9.5 12.8 9.5 15.6 9.5 17.6 12.0 18.8 13.5 20.25 17.0 L21.65 19.9 Q22.55 21.5 23.15 21.5 24.7 21.5 26.3 19.35 L29.05 14.7 31.4 10.6 Q31.95 9.75 33.0 9.55 34.0 9.35 34.85 9.9 35.7 10.45 35.9 11.5 36.1 12.5 35.55 13.35 L33.45 17.05 Q31.15 21.5 29.45 23.35 26.65 26.5 23.15 26.5 20.35 26.5 18.35 24.0 17.2 22.5 15.7 18.95 L14.3 16.05 Q13.4 14.5 12.8 14.5 11.5 14.5 9.85 16.2 7.4 18.8 4.8 24.95 4.15 26.5 2.5 26.5" fill="#000000" fill-rule="evenodd" stroke="none"/>
  </g>
</svg>
