<?xml version="1.0" encoding="UTF-8" standalone="no"?>
<svg xmlns:xlink="http://www.w3.org/1999/xlink" height="19.65px" width="19.65px" xmlns="http://www.w3.org/2000/svg">
  <g transform="matrix(1.0, 0.0, 0.0, 1.0, 0.0, 0.0)">
    <path d="M9.8 14.6 L9.8 10.6 6.5 8.8 3.15 10.6 3.15 14.6 6.5 16.4 9.8 14.6 13.15 16.4 16.5 14.6 16.5 10.6 13.15 8.8 13.15 4.9 9.8 3.1 6.5 4.9 6.5 8.8 6.5 4.9 9.8 3.1 13.15 4.9 13.15 8.8 16.5 10.6 16.5 14.6 13.15 16.4 9.8 14.6 6.5 16.4 3.15 14.6 3.15 10.6 6.5 8.8 9.8 10.6 13.15 8.8 9.8 10.6 9.8 14.6 M19.15 19.15 L0.5 19.15 0.5 0.5 19.15 0.5 19.15 19.15" fill="#ffffff" fill-rule="evenodd" stroke="none"/>
    <path d="M6.5 8.8 L6.5 4.9 9.8 3.1 13.15 4.9 13.15 8.8 16.5 10.6 16.5 14.6 13.15 16.4 9.8 14.6 6.5 16.4 3.15 14.6 3.15 10.6 6.5 8.8 9.8 10.6 13.15 8.8 M9.8 10.6 L9.8 14.6 M19.15 19.15 L0.5 19.15 0.5 0.5 19.15 0.5 19.15 19.15" fill="none" stroke="#231f20" stroke-linecap="round" stroke-linejoin="round" stroke-width="1.0"/>
  </g>
</svg>
