<?xml version="1.0" encoding="UTF-8" standalone="no"?>
<svg xmlns:xlink="http://www.w3.org/1999/xlink" height="17.05px" width="22.85px" xmlns="http://www.w3.org/2000/svg">
  <g transform="matrix(1.0, 0.0, 0.0, 1.0, 11.45, 8.5)">
    <path d="M0.45 -7.95 L1.2 -7.65 1.15 -7.65 1.85 -7.1 Q2.5 -7.95 3.85 -7.9 L4.1 -7.85 4.45 -7.85 4.6 -7.75 4.65 -7.75 4.75 -7.75 4.85 -7.75 5.35 -7.55 6.05 -7.2 6.1 -7.2 Q7.05 -6.65 7.1 -5.85 L7.35 -5.95 7.4 -5.95 Q8.0 -5.95 8.55 -5.55 L8.6 -5.5 9.0 -5.15 9.1 -4.95 9.25 -4.75 9.55 -3.95 9.55 -3.85 9.4 -3.2 9.4 -3.1 9.35 -3.0 Q11.1 -2.3 10.9 0.2 L10.9 0.3 Q10.75 2.65 9.05 2.95 9.35 3.75 8.75 4.4 L8.75 4.45 8.3 4.75 7.9 5.15 7.75 5.15 7.7 5.15 6.95 5.2 6.35 5.2 Q6.35 6.2 5.4 7.1 L5.35 7.1 4.3 7.75 4.25 7.75 3.8 7.9 3.8 7.95 3.55 8.0 3.3 8.0 2.65 8.05 Q0.85 8.05 0.1 6.8 -0.6 7.75 -2.1 7.75 L-2.3 7.75 -2.35 7.75 -2.75 7.7 -3.05 7.65 -3.2 7.65 -4.1 7.1 Q-4.75 6.5 -4.95 5.7 L-6.9 6.2 Q-8.85 6.2 -9.8 4.55 -10.7 3.0 -9.8 1.45 L-9.65 1.35 -10.45 0.4 -10.45 0.35 -10.9 -0.7 -10.9 -0.75 -10.9 -2.1 Q-10.35 -4.25 -8.2 -4.3 L-8.2 -4.4 Q-8.25 -5.85 -7.15 -6.85 L-6.95 -7.1 -6.9 -7.1 -6.85 -7.15 -6.05 -7.6 -5.0 -8.0 -4.95 -8.0 -4.4 -8.0 Q-3.05 -8.0 -2.1 -7.1 L-1.4 -7.7 -0.35 -8.0 -0.1 -8.0 0.1 -8.0 0.2 -8.0 0.45 -7.95" fill="#ffffff" fill-rule="evenodd" stroke="none"/>
    <path d="M0.45 -7.95 L1.2 -7.65 1.15 -7.65 1.85 -7.1 Q2.5 -7.95 3.85 -7.9 L4.1 -7.85 4.45 -7.85 4.6 -7.75 4.65 -7.75 4.75 -7.75 4.85 -7.75 5.35 -7.55 6.05 -7.2 6.1 -7.2 Q7.05 -6.65 7.1 -5.85 L7.35 -5.95 7.4 -5.95 Q8.0 -5.95 8.55 -5.55 L8.6 -5.5 9.0 -5.15 9.1 -4.95 9.25 -4.75 9.55 -3.95 9.55 -3.85 9.4 -3.2 9.4 -3.1 9.35 -3.0 Q11.1 -2.3 10.9 0.2 L10.9 0.3 Q10.75 2.65 9.05 2.95 9.35 3.75 8.75 4.4 L8.75 4.45 8.3 4.75 7.9 5.15 7.75 5.15 7.7 5.15 6.95 5.2 6.35 5.2 Q6.35 6.2 5.4 7.1 L5.35 7.1 4.3 7.75 4.25 7.75 3.8 7.9 3.8 7.95 3.55 8.0 3.3 8.0 2.65 8.05 Q0.85 8.05 0.1 6.8 -0.6 7.75 -2.1 7.75 L-2.3 7.75 -2.35 7.75 -2.75 7.7 -3.05 7.65 -3.2 7.65 -4.1 7.1 Q-4.75 6.5 -4.95 5.7 L-6.9 6.2 Q-8.85 6.2 -9.8 4.55 -10.7 3.0 -9.8 1.45 L-9.65 1.35 -10.45 0.4 -10.45 0.35 -10.9 -0.7 -10.9 -0.75 -10.9 -2.1 Q-10.35 -4.25 -8.2 -4.3 L-8.2 -4.4 Q-8.25 -5.85 -7.15 -6.85 L-6.95 -7.1 -6.9 -7.1 -6.85 -7.15 -6.05 -7.6 -5.0 -8.0 -4.95 -8.0 -4.4 -8.0 Q-3.05 -8.0 -2.1 -7.1 L-1.4 -7.7 -0.35 -8.0 -0.1 -8.0 0.1 -8.0 0.2 -8.0 0.45 -7.95 Z" fill="none" stroke="#000000" stroke-linecap="round" stroke-linejoin="round" stroke-width="1.0"/>
  </g>
</svg>
