<?xml version="1.0" encoding="UTF-8" standalone="no"?>
<svg xmlns:xlink="http://www.w3.org/1999/xlink" height="21.0px" width="14.35px" xmlns="http://www.w3.org/2000/svg">
  <g transform="matrix(1.0, 0.0, 0.0, 1.0, 0.0, 0.0)">
    <path d="M11.15 11.2 Q11.15 12.85 10.0 14.0 8.85 15.15 7.2 15.15 L7.1 15.15 Q5.45 15.15 4.35 14.0 3.15 12.85 3.15 11.2 L3.15 4.45 Q3.15 2.8 4.35 1.65 5.45 0.5 7.1 0.5 L7.2 0.5 Q8.85 0.5 10.0 1.65 11.15 2.8 11.15 4.45 L11.15 11.2" fill="#ffffff" fill-rule="evenodd" stroke="none"/>
    <path d="M13.85 11.15 Q13.85 13.9 11.85 15.85 9.95 17.85 7.2 17.85 L7.15 17.85 7.15 20.5 10.5 20.5 M3.85 20.5 L7.15 20.5 M7.15 17.85 L7.1 17.85 Q4.35 17.85 2.45 15.85 0.5 13.95 0.5 11.15" fill="none" stroke="#231f20" stroke-linecap="round" stroke-linejoin="round" stroke-width="1.0"/>
    <path d="M11.15 11.2 Q11.15 12.85 10.0 14.0 8.85 15.15 7.2 15.15 L7.1 15.15 Q5.45 15.15 4.35 14.0 3.15 12.85 3.15 11.2 L3.15 4.45 Q3.15 2.8 4.35 1.65 5.45 0.5 7.1 0.5 L7.2 0.5 Q8.85 0.5 10.0 1.65 11.15 2.8 11.15 4.45 L11.15 11.2" fill="none" stroke="#231f20" stroke-linecap="round" stroke-linejoin="round" stroke-width="1.0"/>
  </g>
</svg>
