<?xml version="1.0" encoding="UTF-8" standalone="no"?>
<svg xmlns:xlink="http://www.w3.org/1999/xlink" height="21.5px" width="20.0px" xmlns="http://www.w3.org/2000/svg">
  <g transform="matrix(1.0, 0.0, 0.0, 1.0, 1.0, 0.0)">
    <path d="M-0.5 17.0 L-0.45 8.0 5.0 12.45 -0.5 17.0 M18.5 8.0 L18.45 17.0 13.0 12.55 18.5 8.0" fill="#ffffff" fill-rule="evenodd" stroke="none"/>
    <path d="M13.05 5.1 L16.4 5.1 16.4 1.75 M4.15 4.4 Q4.8 2.7 6.35 1.6 7.9 0.5 9.8 0.5 11.7 0.5 13.3 1.6 14.8 2.7 15.45 4.4" fill="none" stroke="#231f20" stroke-linecap="round" stroke-linejoin="round" stroke-width="1.0"/>
    <path d="M18.5 8.0 L13.0 12.55 18.45 17.0 18.5 8.0 M-0.5 17.0 L5.0 12.45 -0.45 8.0 -0.5 17.0" fill="none" stroke="#000000" stroke-linecap="butt" stroke-linejoin="round" stroke-width="1.0"/>
    <path d="M9.0 17.0 L9.0 21.0 M9.0 11.0 L9.0 15.0 M9.0 5.0 L9.0 9.0" fill="none" stroke="#000000" stroke-linecap="butt" stroke-linejoin="round" stroke-width="1.0"/>
  </g>
</svg>
