<?xml version="1.0" encoding="UTF-8" standalone="no"?>
<svg xmlns:xlink="http://www.w3.org/1999/xlink" height="19.7px" width="17.0px" xmlns="http://www.w3.org/2000/svg">
  <g transform="matrix(1.0, 0.0, 0.0, 1.0, 0.0, 0.0)">
    <path d="M2.5 9.85 L2.5 6.5 Q2.5 4.0 4.25 2.25 6.0 0.5 8.5 0.5 10.95 0.5 12.7 2.25 14.5 4.0 14.5 6.5 L14.5 9.85 11.75 9.85 11.8 6.5 Q11.8 5.05 10.85 4.1 9.9 3.15 8.5 3.15 7.1 3.15 6.1 4.15 5.15 5.15 5.15 6.5 L5.15 9.85 2.5 9.85" fill="#ffffff" fill-rule="evenodd" stroke="none"/>
    <path d="M5.15 9.85 L5.15 6.5 Q5.15 5.15 6.1 4.15 7.1 3.15 8.5 3.15 9.9 3.15 10.85 4.1 11.8 5.05 11.8 6.5 L11.75 9.85 14.5 9.85 14.5 6.5 Q14.5 4.0 12.7 2.25 10.95 0.5 8.5 0.5 6.0 0.5 4.25 2.25 2.5 4.0 2.5 6.5 L2.5 9.85" fill="none" stroke="#231f20" stroke-linecap="round" stroke-linejoin="round" stroke-width="1.0"/>
    <path d="M10.5 12.5 Q10.5 11.7 9.9 11.1 9.3 10.5 8.5 10.5 7.65 10.5 7.05 11.1 6.5 11.7 6.5 12.5 6.5 13.35 7.05 13.9 L7.15 14.0 7.15 16.2 Q7.15 16.5 7.5 16.5 L9.5 16.5 9.8 16.2 9.8 14.0 9.9 13.9 Q10.5 13.35 10.5 12.5 M16.5 19.2 L0.5 19.2 0.5 8.5 16.5 8.5 16.5 19.2" fill="#ffffff" fill-rule="evenodd" stroke="none"/>
    <path d="M10.5 12.5 Q10.5 13.35 9.9 13.9 L9.8 14.0 9.8 16.2 9.5 16.5 7.5 16.5 Q7.15 16.5 7.15 16.2 L7.15 14.0 7.05 13.9 Q6.5 13.35 6.5 12.5 6.5 11.7 7.05 11.1 7.65 10.5 8.5 10.5 9.3 10.5 9.9 11.1 10.5 11.7 10.5 12.5" fill="#231f20" fill-rule="evenodd" stroke="none"/>
    <path d="M16.5 19.2 L0.5 19.2 0.5 8.5 16.5 8.5 16.5 19.2 Z" fill="none" stroke="#231f20" stroke-linecap="round" stroke-linejoin="round" stroke-width="1.0"/>
  </g>
</svg>
