<?xml version="1.0" encoding="UTF-8" standalone="no"?>
<svg xmlns:xlink="http://www.w3.org/1999/xlink" height="21.0px" width="21.0px" xmlns="http://www.w3.org/2000/svg">
  <g transform="matrix(1.0, 0.0, 0.0, 1.0, 0.0, 0.0)">
    <path d="M12.5 13.4 L16.5 11.2 20.5 13.4 20.5 18.3 16.5 20.5 12.5 18.3 12.5 13.4 M6.5 2.7 L10.5 0.5 14.5 2.7 14.5 7.6 10.5 9.85 6.5 7.6 6.5 2.7 M0.5 13.4 L4.5 11.2 8.5 13.4 8.5 18.3 4.5 20.5 0.5 18.3 0.5 13.4" fill="#ffffff" fill-rule="evenodd" stroke="none"/>
    <path d="M12.5 13.4 L16.5 11.2 20.5 13.4 20.5 18.3 16.5 20.5 12.5 18.3 12.5 13.4 M6.5 2.7 L10.5 0.5 14.5 2.7 14.5 7.6 10.5 9.85 6.5 7.6 6.5 2.7 M0.5 13.4 L4.5 11.2 8.5 13.4 8.5 18.3 4.5 20.5 0.5 18.3 0.5 13.4" fill="none" stroke="#231f20" stroke-linecap="round" stroke-linejoin="round" stroke-width="1.0"/>
  </g>
</svg>
