<?xml version="1.0" encoding="UTF-8" standalone="no"?>
<svg xmlns:xlink="http://www.w3.org/1999/xlink" height="21.0px" width="17.0px" xmlns="http://www.w3.org/2000/svg">
  <g transform="matrix(1.0, 0.0, 0.0, 1.0, 0.0, 0.0)">
    <path d="M8.6 20.5 L8.4 20.5 Q5.15 20.5 2.8 18.15 0.5 15.8 0.5 12.55 L0.5 8.4 Q0.5 5.1 2.8 2.8 5.15 0.5 8.4 0.5 L8.6 0.5 Q11.85 0.5 14.2 2.8 16.5 5.1 16.5 8.4 L16.5 12.55 Q16.5 15.8 14.2 18.15 11.85 20.5 8.6 20.5 M12.6 9.15 L10.0 7.8 12.6 6.5 10.0 7.8 12.6 9.15 M4.5 12.5 L12.5 12.5 Q12.5 14.0 11.35 15.25 10.15 16.5 8.5 16.5 6.9 16.5 5.7 15.25 4.5 14.0 4.5 12.5 4.5 14.0 5.7 15.25 6.9 16.5 8.5 16.5 10.15 16.5 11.35 15.25 12.5 14.0 12.5 12.5 L4.5 12.5 M4.6 6.5 L7.2 7.8 4.6 9.15 7.2 7.8 4.6 6.5" fill="#ffffff" fill-rule="evenodd" stroke="none"/>
    <path d="M8.6 20.5 L8.4 20.5 Q5.15 20.5 2.8 18.15 0.5 15.8 0.5 12.55 L0.5 8.4 Q0.5 5.1 2.8 2.8 5.15 0.5 8.4 0.5 L8.6 0.5 Q11.85 0.5 14.2 2.8 16.5 5.1 16.5 8.4 L16.5 12.55 Q16.5 15.8 14.2 18.15 11.85 20.5 8.6 20.5 M4.6 9.15 L7.2 7.8 4.6 6.5 M4.5 12.5 Q4.5 14.0 5.7 15.25 6.9 16.5 8.5 16.5 10.15 16.5 11.35 15.25 12.5 14.0 12.5 12.5 L4.5 12.5 M12.6 6.5 L10.0 7.8 12.6 9.15" fill="none" stroke="#231f20" stroke-linecap="round" stroke-linejoin="round" stroke-width="1.0"/>
  </g>
</svg>
