<?xml version="1.0" encoding="UTF-8" standalone="no"?>
<svg xmlns:xlink="http://www.w3.org/1999/xlink" height="20.75px" width="83.6px" xmlns="http://www.w3.org/2000/svg">
  <g transform="matrix(1.0, 0.0, 0.0, 1.0, 0.0, 0.0)">
    <path d="M78.0 14.4 Q78.0 14.95 77.65 15.3 77.3 15.65 76.75 15.65 L75.5 15.65 71.15 10.05 71.2 14.4 Q71.2 14.95 70.85 15.3 70.5 15.65 70.0 15.65 L68.25 15.65 68.25 6.5 Q68.25 6.0 68.6 5.65 68.95 5.25 69.45 5.25 L70.75 5.25 75.1 10.95 75.05 9.55 75.05 8.8 75.05 6.45 Q75.05 5.95 75.4 5.6 75.75 5.25 76.25 5.25 L78.0 5.25 78.0 14.4 M61.5 15.9 L59.3 15.55 Q58.3 15.2 57.6 14.5 56.85 13.8 56.5 12.8 56.05 11.75 56.05 10.45 56.05 9.2 56.5 8.2 56.85 7.2 57.6 6.45 58.3 5.75 59.3 5.4 L61.5 5.05 63.7 5.4 Q64.7 5.75 65.4 6.45 66.15 7.15 66.55 8.15 66.95 9.15 66.95 10.45 66.95 11.75 66.55 12.8 L65.4 14.5 Q64.7 15.2 63.7 15.55 L61.5 15.9 M61.5 7.5 Q60.3 7.5 59.55 8.35 58.8 9.15 58.8 10.45 58.8 11.75 59.55 12.55 60.35 13.4 61.5 13.4 62.7 13.4 63.45 12.55 64.15 11.75 64.15 10.45 64.15 9.15 63.45 8.3 62.7 7.5 61.5 7.5 M26.35 10.4 Q26.95 10.4 27.3 10.0 L27.6 9.1 27.3 8.2 Q26.95 7.8 26.35 7.8 L24.25 7.8 24.25 10.4 26.35 10.4 M26.35 5.25 Q28.35 5.25 29.5 6.4 L30.25 7.6 30.55 9.05 Q30.55 10.75 29.5 11.7 28.4 12.8 26.35 12.85 L24.25 12.85 24.25 14.4 Q24.25 14.95 23.9 15.3 L23.05 15.65 21.35 15.65 21.35 6.5 Q21.35 6.0 21.7 5.65 22.05 5.25 22.55 5.25 L26.35 5.25 M33.2 15.65 L31.65 15.65 31.65 6.5 Q31.65 6.0 32.05 5.65 32.4 5.25 32.9 5.25 L34.4 5.25 34.4 14.4 Q34.4 14.95 34.05 15.3 33.7 15.65 33.2 15.65 M42.4 10.45 L46.0 15.5 46.0 15.65 43.95 15.65 43.1 15.5 42.5 15.0 40.7 12.35 38.85 15.0 38.3 15.5 37.45 15.65 35.4 15.65 35.4 15.5 38.95 10.45 35.6 5.45 35.6 5.25 37.75 5.25 38.6 5.45 39.2 6.1 40.7 8.55 42.15 6.1 42.75 5.45 43.6 5.25 45.75 5.25 45.75 5.45 42.4 10.45 M49.55 7.7 L46.25 7.7 46.25 6.5 Q46.25 6.0 46.65 5.65 47.0 5.25 47.5 5.25 L56.15 5.25 56.15 6.5 55.8 7.3 55.05 7.7 52.5 7.7 52.5 14.4 Q52.5 14.95 52.1 15.3 51.75 15.65 51.25 15.65 L49.55 15.65 49.55 7.7" fill="#0e0e0e" fill-rule="evenodd" stroke="none"/>
    <path d="M10.35 5.2 L2.55 5.2 1.6 5.0 Q1.1 4.8 0.75 4.45 L0.2 3.6 0.0 2.6 0.0 0.0 7.8 0.0 8.8 0.2 Q9.25 0.4 9.6 0.75 L10.2 1.6 10.35 2.6 10.35 5.2" fill="#e92766" fill-rule="evenodd" stroke="none"/>
    <path d="M10.35 5.2 L13.0 5.2 14.0 5.4 14.8 5.95 15.35 6.8 15.55 7.8 15.55 10.4 10.35 10.4 10.35 5.2" fill="#9464d0" fill-rule="evenodd" stroke="none"/>
    <path d="M15.55 10.4 L15.55 13.0 15.35 14.0 14.8 14.8 14.0 15.4 13.0 15.6 10.35 15.6 10.35 10.4 15.55 10.4" fill="#1f48b9" fill-rule="evenodd" stroke="none"/>
    <path d="M0.0 15.6 L0.0 13.0 0.2 12.0 Q0.4 11.5 0.75 11.15 1.1 10.8 1.6 10.6 L2.6 10.4 5.2 10.4 5.2 15.6 0.0 15.6" fill="#21743f" fill-rule="evenodd" stroke="none"/>
    <path d="M5.2 15.6 L5.2 18.2 5.0 19.2 4.4 20.0 3.6 20.55 2.6 20.75 0.0 20.75 0.0 15.6 5.2 15.6" fill="#fcaf19" fill-rule="evenodd" stroke="none"/>
    <path d="M10.35 15.6 L5.2 15.6 5.2 10.4 10.35 10.4 10.35 15.6" fill="#1dc7f6" fill-rule="evenodd" stroke="none"/>
    <path d="M81.25 6.55 L80.95 6.6 80.95 7.2 81.2 7.2 81.65 7.05 81.7 6.9 81.65 6.7 Q81.55 6.55 81.25 6.55 M82.05 6.35 L82.3 6.85 81.8 7.35 81.8 7.4 Q82.1 7.5 82.2 7.95 L82.35 8.5 81.85 8.5 81.65 7.95 Q81.6 7.6 81.2 7.6 L80.95 7.6 80.95 8.45 80.4 8.45 80.45 6.25 81.3 6.15 81.65 6.2 82.05 6.35 M79.65 5.7 Q80.35 5.05 81.3 5.05 L81.65 5.1 Q82.4 5.2 82.95 5.75 83.6 6.4 83.6 7.3 83.6 8.25 82.9 8.9 82.35 9.45 81.65 9.55 L81.3 9.55 Q80.35 9.55 79.65 8.9 79.0 8.25 79.0 7.3 79.0 6.35 79.65 5.7 M81.3 5.55 Q80.55 5.5 80.05 6.05 79.55 6.55 79.55 7.3 79.55 8.05 80.05 8.6 80.55 9.1 81.3 9.1 L81.65 9.1 82.5 8.6 Q83.0 8.1 83.0 7.35 83.05 6.6 82.55 6.05 82.15 5.65 81.65 5.6 L81.3 5.55" fill="#000000" fill-opacity="0.49803922" fill-rule="evenodd" stroke="none"/>
  </g>
</svg>
