<?xml version="1.0" encoding="UTF-8" standalone="no"?>
<svg xmlns:xlink="http://www.w3.org/1999/xlink" height="22.0px" width="24.05px" xmlns="http://www.w3.org/2000/svg">
  <g transform="matrix(1.0, 0.0, 0.0, 1.0, 0.0, 0.0)">
    <path d="M4.05 22.0 L4.05 15.1 0.0 11.0 4.05 6.95 4.05 0.0 24.05 0.0 24.05 22.0 4.05 22.0" fill="#000000" fill-rule="evenodd" stroke="none"/>
    <path d="M11.25 6.8 Q12.55 5.45 14.3 5.45 16.05 5.45 17.0 6.7 18.05 8.1 18.05 10.2 L18.05 10.5 18.05 10.6 17.95 10.65 11.75 10.65 Q12.0 12.8 12.3 13.65 12.9 15.05 14.05 15.1 15.05 15.05 17.0 13.8 L17.1 13.8 17.15 13.85 17.65 14.9 17.65 15.0 17.65 15.05 16.05 16.05 Q15.05 16.55 14.2 16.6 L12.55 16.35 11.1 15.2 Q10.55 14.45 10.2 13.0 L10.25 13.0 Q9.9 11.7 9.9 10.4 9.9 8.3 11.25 6.85 L11.25 6.8 M12.05 9.2 L16.15 9.2 Q16.15 8.25 15.6 7.65 15.0 7.0 14.2 7.0 13.45 7.0 12.8 7.65 12.15 8.3 12.05 9.2" fill="#ffffff" fill-rule="evenodd" stroke="none"/>
  </g>
</svg>
