<?xml version="1.0" encoding="UTF-8" standalone="no"?>
<svg xmlns:xlink="http://www.w3.org/1999/xlink" height="67.0px" width="67.0px" xmlns="http://www.w3.org/2000/svg">
  <g transform="matrix(1.0, 0.0, 0.0, 1.0, 33.5, 33.5)">
    <path d="M22.6 -22.65 Q32.0 -13.25 32.0 0.0 32.0 13.3 22.6 22.6 13.25 32.0 0.0 32.0 -13.3 32.0 -22.7 22.6 -32.0 13.3 -32.0 0.0 -32.0 -13.25 -22.7 -22.65 -13.3 -32.0 0.0 -32.0 13.25 -32.0 22.6 -22.65" fill="#000000" fill-opacity="0.49803922" fill-rule="evenodd" stroke="none"/>
    <path d="M22.6 -22.65 Q32.0 -13.25 32.0 0.0 32.0 13.3 22.6 22.6 13.25 32.0 0.0 32.0 -13.3 32.0 -22.7 22.6 -32.0 13.3 -32.0 0.0 -32.0 -13.25 -22.7 -22.65 -13.3 -32.0 0.0 -32.0 13.25 -32.0 22.6 -22.65 Z" fill="none" stroke="#ffffff" stroke-linecap="round" stroke-linejoin="round" stroke-width="3.0"/>
    <path d="M-9.0 -12.0 L15.0 0.0 -9.0 12.0 -9.0 -12.0" fill="#ffffff" fill-rule="evenodd" stroke="none"/>
  </g>
</svg>
