<?xml version="1.0" encoding="UTF-8" standalone="no"?>
<svg xmlns:xlink="http://www.w3.org/1999/xlink" height="18.75px" width="15.6px" xmlns="http://www.w3.org/2000/svg">
  <g transform="matrix(1.0, 0.0, 0.0, 1.0, 9.05, 12.65)">
    <path d="M5.65 -8.95 L5.8 -8.8 6.55 -6.85 6.05 -7.4 Q3.8 -9.9 0.35 -9.9 -3.1 -9.9 -5.55 -7.4 -7.6 -5.35 -8.15 -2.5 -7.9 -6.7 -5.8 -8.8 -3.35 -11.3 0.1 -11.3 3.4 -11.3 5.65 -8.95 M0.1 6.1 Q-2.95 6.15 -5.2 4.2 -2.95 5.25 0.1 5.2 3.15 5.15 5.55 4.15 3.15 6.05 0.1 6.1" fill="#000000" fill-rule="evenodd" stroke="none"/>
    <path d="M5.65 -8.95 L5.25 -9.65 Q3.0 -12.15 -0.45 -12.15 -3.9 -12.15 -6.35 -9.65 -7.85 -8.15 -8.55 -6.2" fill="none" stroke="#000000" stroke-linecap="round" stroke-linejoin="round" stroke-opacity="0.6" stroke-width="1.0"/>
  </g>
</svg>
