<?xml version="1.0" encoding="UTF-8" standalone="no"?>
<svg xmlns:xlink="http://www.w3.org/1999/xlink" height="62.2px" width="62.2px" xmlns="http://www.w3.org/2000/svg">
  <g transform="matrix(1.0, 0.0, 0.0, 1.0, 31.05, 31.1)">
    <path d="M21.05 -22.8 Q31.15 -13.1 31.15 0.0 31.15 13.1 21.05 21.4 13.95 31.1 0.05 31.1 -14.15 31.1 -22.55 21.4 -31.05 13.1 -31.05 0.0 -31.05 -13.1 -22.55 -22.8 -14.15 -31.1 0.05 -31.1 13.95 -31.1 21.05 -22.8" fill="#ffffff" fill-opacity="0.0" fill-rule="evenodd" stroke="none"/>
    <path d="M5.4 -5.65 Q7.9 -3.2 7.9 0.0 7.9 3.2 5.4 5.4 3.6 7.75 0.05 7.75 -3.4 7.75 -5.5 5.4 -7.6 3.2 -7.6 0.0 -7.6 -3.2 -5.5 -5.65 -3.4 -7.75 0.05 -7.75 3.6 -7.75 5.4 -5.65" fill="#000000" fill-rule="evenodd" stroke="none"/>
    <path d="M1.55 4.65 Q2.3 5.4 2.3 6.25 2.3 7.2 1.55 7.85 1.0 8.5 0.05 8.5 -1.0 8.5 -1.55 7.85 -2.15 7.2 -2.15 6.25 -2.15 5.4 -1.55 4.65 -1.0 4.0 0.05 4.0 1.0 4.0 1.55 4.65" fill="#ffffff" fill-opacity="0.49803922" fill-rule="evenodd" stroke="none"/>
    <path d="M2.45 -3.05 Q1.6 -2.05 0.05 -2.05 -1.55 -2.05 -2.45 -3.05 -3.45 -4.05 -3.45 -5.5 -3.45 -6.9 -2.45 -8.0 -1.55 -9.0 0.05 -9.0 1.6 -9.0 2.45 -8.0 3.55 -6.9 3.55 -5.5 3.55 -4.05 2.45 -3.05" fill="#ffffff" fill-opacity="0.84705883" fill-rule="evenodd" stroke="none"/>
  </g>
</svg>
