<?xml version="1.0" encoding="UTF-8" standalone="no"?>
<svg xmlns:xlink="http://www.w3.org/1999/xlink" height="28.6px" width="20.8px" xmlns="http://www.w3.org/2000/svg">
  <g transform="matrix(1.0, 0.0, 0.0, 1.0, 10.1, 15.9)">
    <path d="M7.4 -11.6 Q10.45 -7.8 10.2 -1.9 9.95 4.0 7.2 8.05 4.45 12.0 0.25 12.2 -3.95 12.3 -6.7 8.35 -9.45 4.3 -9.6 -1.75 -9.75 -7.85 -6.8 -11.65 -3.85 -15.45 0.25 -15.4 4.35 -15.4 7.4 -11.6" fill="#ffffff" fill-opacity="0.0" fill-rule="evenodd" stroke="none"/>
    <path d="M7.4 -11.6 Q10.45 -7.8 10.2 -1.9 9.95 4.0 7.2 8.05 4.45 12.0 0.25 12.2 -3.95 12.3 -6.7 8.35 -9.45 4.3 -9.6 -1.75 -9.75 -7.85 -6.8 -11.65 -3.85 -15.45 0.25 -15.4 4.35 -15.4 7.4 -11.6 Z" fill="none" stroke="#000000" stroke-linecap="round" stroke-linejoin="round" stroke-width="1.0"/>
  </g>
</svg>
