<?xml version="1.0" encoding="UTF-8" standalone="no"?>
<svg xmlns:xlink="http://www.w3.org/1999/xlink" height="23.85px" width="16.95px" xmlns="http://www.w3.org/2000/svg">
  <g transform="matrix(1.0, 0.0, 0.0, 1.0, 8.2, 13.45)">
    <path d="M8.25 -1.6 Q8.35 3.1 6.05 6.45 3.75 9.75 0.25 9.9 -3.25 10.0 -5.55 6.7 -7.85 3.35 -7.7 -1.45 -7.6 -6.3 -5.3 -9.65 -3.0 -12.95 0.25 -12.95 3.5 -12.95 5.8 -9.65 8.1 -6.3 8.25 -1.6" fill="#ffffff" fill-opacity="0.0" fill-rule="evenodd" stroke="none"/>
    <path d="M8.25 -1.6 Q8.35 3.1 6.05 6.45 3.75 9.75 0.25 9.9 -3.25 10.0 -5.55 6.7 -7.85 3.35 -7.7 -1.45 -7.6 -6.3 -5.3 -9.65 -3.0 -12.95 0.25 -12.95 3.5 -12.95 5.8 -9.65 8.1 -6.3 8.25 -1.6 Z" fill="none" stroke="#000000" stroke-linecap="round" stroke-linejoin="round" stroke-width="1.0"/>
  </g>
</svg>
