<?xml version="1.0" encoding="UTF-8" standalone="no"?>
<svg xmlns:xlink="http://www.w3.org/1999/xlink" height="19.0px" width="25.6px" xmlns="http://www.w3.org/2000/svg">
  <g transform="matrix(1.0, 0.0, 0.0, 1.0, 0.95, 2.25)">
    <path d="M1.7 -1.7 L11.6 -0.9 Q17.35 0.0 20.65 1.4 24.05 2.8 24.15 3.35 L23.95 3.65 Q17.3 1.15 12.15 0.6 L0.1 0.1 0.05 0.1 0.1 0.15 Q5.95 3.9 9.9 7.2 13.85 10.45 18.05 16.2 L17.95 16.25 13.05 11.4 Q8.85 6.8 -0.4 1.25 L-0.45 1.2 Q0.1 0.95 0.1 0.35 L0.05 0.15 0.05 0.1 Q1.6 -1.15 1.7 -1.65 L1.7 -1.7 M0.1 0.15 L0.05 0.15 0.1 0.15 M0.1 0.35 Q0.1 0.95 -0.4 1.25 0.1 0.95 0.1 0.35 M1.7 -1.65 Q1.65 -1.15 0.1 0.1 1.65 -1.15 1.7 -1.65" fill="#ffffff" fill-opacity="0.0" fill-rule="evenodd" stroke="none"/>
    <path d="M1.7 -1.7 L11.6 -0.9 Q17.35 0.0 20.65 1.4 24.05 2.8 24.15 3.35 L23.95 3.65 Q17.3 1.15 12.15 0.6 L0.1 0.1 0.05 0.1 0.1 0.15 Q5.95 3.9 9.9 7.2 13.85 10.45 18.05 16.2 L17.95 16.25 13.05 11.4 Q8.85 6.8 -0.4 1.25 L-0.45 1.2" fill="none" stroke="#000000" stroke-linecap="round" stroke-linejoin="round" stroke-width="1.0"/>
    <path d="M0.1 0.1 L0.1 0.15 0.05 0.15 0.1 0.35 Q0.1 0.95 -0.4 1.25 M0.1 0.1 Q1.65 -1.15 1.7 -1.65" fill="none" stroke="#000000" stroke-linecap="round" stroke-linejoin="round" stroke-opacity="0.4" stroke-width="1.0"/>
  </g>
</svg>
