<?xml version="1.0" encoding="UTF-8" standalone="no"?>
<svg xmlns:xlink="http://www.w3.org/1999/xlink" height="19.2px" width="26.1px" xmlns="http://www.w3.org/2000/svg">
  <g transform="matrix(1.0, 0.0, 0.0, 1.0, -22.7, 16.1)">
    <path d="M26.2 1.9 L26.15 1.9 Q21.8 -3.1 22.9 -7.6 23.1 -8.65 23.7 -9.7 24.35 -11.0 25.55 -12.25 L26.15 -12.85 Q27.65 -14.1 28.45 -14.45 L33.25 -15.4 Q36.3 -15.9 40.2 -15.25 44.1 -14.6 47.0 -11.3 48.05 -10.05 48.25 -8.85 48.45 -7.85 48.05 -6.5 L45.8 -5.55 46.6 -4.7 44.7 -3.1 42.45 -1.5 36.35 1.7 Q32.55 3.4 26.2 1.9" fill="#ffffff" fill-opacity="0.0" fill-rule="evenodd" stroke="none"/>
    <path d="M25.55 -12.25 L26.15 -12.85 Q27.65 -14.1 28.45 -14.45 L33.25 -15.4 Q36.3 -15.9 40.2 -15.25 44.1 -14.6 47.0 -11.3 48.05 -10.05 48.25 -8.85 48.45 -7.85 48.05 -6.5 L45.8 -5.55 46.6 -4.7 44.7 -3.1 42.45 -1.5 36.35 1.7 Q32.55 3.4 26.2 1.9" fill="none" stroke="#000000" stroke-linecap="round" stroke-linejoin="round" stroke-width="1.0"/>
  </g>
</svg>
