<?xml version="1.0" encoding="UTF-8" standalone="no"?>
<svg xmlns:xlink="http://www.w3.org/1999/xlink" height="25.75px" width="23.15px" xmlns="http://www.w3.org/2000/svg">
  <g transform="matrix(1.0, 0.0, 0.0, 1.0, -1.15, 16.45)">
    <path d="M1.65 -11.8 L10.8 -15.1 13.35 -15.8 15.05 -15.95 Q18.7 -15.95 21.2 -13.4 L22.5 -11.85 Q23.8 -9.8 23.8 -7.15 23.8 -3.55 21.2 -1.0 19.6 0.7 17.85 1.7 12.85 4.6 9.75 8.8 1.8 -1.05 1.65 -11.8" fill="#ffffff" fill-opacity="0.0" fill-rule="evenodd" stroke="none"/>
    <path d="M1.65 -11.8 L10.8 -15.1 13.35 -15.8 15.05 -15.95 Q18.7 -15.95 21.2 -13.4 L22.5 -11.85 Q23.8 -9.8 23.8 -7.15 23.8 -3.55 21.2 -1.0 19.6 0.7 17.85 1.7 12.85 4.6 9.75 8.8" fill="none" stroke="#000000" stroke-linecap="round" stroke-linejoin="round" stroke-width="1.0"/>
  </g>
</svg>
