<?xml version="1.0" encoding="UTF-8" standalone="no"?>
<svg xmlns:xlink="http://www.w3.org/1999/xlink" height="39.7px" width="58.35px" xmlns="http://www.w3.org/2000/svg">
  <g transform="matrix(1.0, 0.0, 0.0, 1.0, 32.7, 18.7)">
    <path d="M25.15 5.3 Q24.0 9.5 21.9 11.3 19.5 13.3 14.15 15.75 L4.2 19.6 Q-3.05 22.1 -15.4 17.7 -19.35 16.25 -23.3 13.05 -27.65 9.55 -30.05 5.4 -32.25 1.65 -32.2 -4.15 L-31.9 -8.05 -31.3 -10.05 Q-29.35 -12.7 -24.7 -14.5 -21.05 -15.9 -14.3 -17.05 L-1.8 -18.2 9.25 -17.15 17.0 -15.3 Q22.3 -6.85 25.15 5.3" fill="#ffffff" fill-opacity="0.0" fill-rule="evenodd" stroke="none"/>
    <path d="M17.0 -15.3 L9.25 -17.15 -1.8 -18.2 -14.3 -17.05 Q-21.05 -15.9 -24.7 -14.5 -29.35 -12.7 -31.3 -10.05 L-31.9 -8.05 -32.2 -4.15 Q-32.25 1.65 -30.05 5.4 -27.65 9.55 -23.3 13.05 -19.35 16.25 -15.4 17.7 -3.05 22.1 4.2 19.6 L14.15 15.75 Q19.5 13.3 21.9 11.3 24.0 9.5 25.15 5.3" fill="none" stroke="#000000" stroke-linecap="round" stroke-linejoin="round" stroke-width="1.0"/>
  </g>
</svg>
