<?xml version="1.0" encoding="UTF-8" standalone="no"?>
<svg xmlns:xlink="http://www.w3.org/1999/xlink" height="8.65px" width="42.7px" xmlns="http://www.w3.org/2000/svg">
  <g transform="matrix(1.0, 0.0, 0.0, 1.0, 20.3, 4.5)">
    <path d="M12.65 1.3 L16.8 0.75 Q20.2 0.55 19.25 1.9 18.75 2.65 16.7 2.85 L13.85 3.05 12.55 3.2 8.75 3.65 Q6.6 3.65 5.1 2.6 L2.85 0.8 0.65 -1.0 Q-1.3 -2.55 -5.35 -1.45 L-8.6 -0.4 -11.5 0.5 -15.3 1.05 Q-17.8 1.1 -18.85 0.1 -19.4 -0.5 -19.4 -1.55 -19.35 -2.65 -18.75 -3.2 L-18.1 -3.6 -17.4 -3.55 Q-16.85 -3.2 -17.05 -2.45 L-17.2 -1.1 Q-16.9 -0.4 -15.95 -0.3 L-14.35 -0.45 Q-12.95 -0.75 -10.5 -1.55 L-6.65 -2.7 -1.8 -3.45 Q0.45 -3.35 2.65 -1.75 L5.0 -0.1 7.5 1.35 Q8.6 1.85 10.05 1.75 L12.65 1.3" fill="#ffffff" fill-opacity="0.0" fill-rule="evenodd" stroke="none"/>
    <path d="M12.65 1.3 L10.05 1.75 Q8.6 1.85 7.5 1.35 L5.0 -0.1 2.65 -1.75 Q0.45 -3.35 -1.8 -3.45 L-6.65 -2.7 -10.5 -1.55 Q-12.95 -0.75 -14.35 -0.45 L-15.95 -0.3 Q-16.9 -0.4 -17.2 -1.1 L-17.05 -2.45 Q-16.85 -3.2 -17.4 -3.55 L-18.1 -3.6 -18.75 -3.2 Q-19.35 -2.65 -19.4 -1.55 -19.4 -0.5 -18.85 0.1 -17.8 1.1 -15.3 1.05 L-11.5 0.5 -8.6 -0.4 -5.35 -1.45 Q-1.3 -2.55 0.65 -1.0 L2.85 0.8 5.1 2.6 Q6.6 3.65 8.75 3.65 L12.55 3.2 13.85 3.05 16.7 2.85 Q18.75 2.65 19.25 1.9 20.2 0.55 16.8 0.75 L12.65 1.3 Z" fill="none" stroke="#000000" stroke-linecap="butt" stroke-linejoin="miter-clip" stroke-miterlimit="10.0" stroke-opacity="0.6" stroke-width="1.0"/>
    <path d="M-17.3 -1.5 Q-17.85 -1.75 -18.5 -1.25 -19.15 -0.8 -19.0 -0.1" fill="none" stroke="#000000" stroke-linecap="butt" stroke-linejoin="miter-clip" stroke-miterlimit="10.0" stroke-opacity="0.4" stroke-width="1.0"/>
    <path d="M-14.35 -0.45 Q-14.7 -0.35 -14.7 0.25 -14.7 0.85 -14.35 1.0" fill="none" stroke="#000000" stroke-linecap="butt" stroke-linejoin="miter-clip" stroke-miterlimit="10.0" stroke-opacity="0.4" stroke-width="1.0"/>
    <path d="M-0.95 -2.5 Q-5.25 -2.85 -12.25 -0.5 L-10.4 -1.2 -6.2 -2.45 Q0.15 -3.95 1.95 -1.7 1.2 -2.35 -0.95 -2.5" fill="#ffffff" fill-opacity="0.6" fill-rule="evenodd" stroke="none"/>
    <path d="M-11.15 -1.35 Q-11.5 -1.2 -11.5 -0.5 -11.5 0.25 -11.0 0.4" fill="none" stroke="#000000" stroke-linecap="butt" stroke-linejoin="miter-clip" stroke-miterlimit="10.0" stroke-opacity="0.4" stroke-width="1.0"/>
    <path d="M-7.8 -2.4 Q-8.15 -2.25 -8.15 -1.55 -8.15 -0.85 -7.65 -0.7" fill="none" stroke="#000000" stroke-linecap="butt" stroke-linejoin="miter-clip" stroke-miterlimit="10.0" stroke-opacity="0.4" stroke-width="1.0"/>
    <path d="M-4.6 -3.2 L-5.05 -2.4 -4.85 -1.6" fill="none" stroke="#000000" stroke-linecap="butt" stroke-linejoin="miter-clip" stroke-miterlimit="10.0" stroke-opacity="0.4" stroke-width="1.0"/>
    <path d="M-1.15 -3.4 L-1.55 -2.65 -1.55 -1.85" fill="none" stroke="#000000" stroke-linecap="butt" stroke-linejoin="miter-clip" stroke-miterlimit="10.0" stroke-opacity="0.4" stroke-width="1.0"/>
    <path d="M1.95 -2.2 Q1.5 -2.15 1.25 -1.5 1.05 -0.9 1.2 -0.5" fill="none" stroke="#000000" stroke-linecap="butt" stroke-linejoin="miter-clip" stroke-miterlimit="10.0" stroke-opacity="0.4" stroke-width="1.0"/>
    <path d="M4.55 -0.4 L3.4 1.25" fill="none" stroke="#000000" stroke-linecap="butt" stroke-linejoin="miter-clip" stroke-miterlimit="10.0" stroke-opacity="0.4" stroke-width="1.0"/>
    <path d="M6.6 0.9 Q6.85 1.25 6.6 2.0 L5.95 3.1" fill="none" stroke="#000000" stroke-linecap="butt" stroke-linejoin="miter-clip" stroke-miterlimit="10.0" stroke-opacity="0.4" stroke-width="1.0"/>
    <path d="M8.9 1.75 Q9.3 1.8 9.35 2.6 9.35 3.4 9.05 3.65" fill="none" stroke="#000000" stroke-linecap="butt" stroke-linejoin="miter-clip" stroke-miterlimit="10.0" stroke-opacity="0.4" stroke-width="1.0"/>
    <path d="M12.3 1.4 L12.9 2.2 12.85 3.15" fill="none" stroke="#000000" stroke-linecap="butt" stroke-linejoin="miter-clip" stroke-miterlimit="10.0" stroke-opacity="0.4" stroke-width="1.0"/>
    <path d="M15.45 0.85 Q15.95 0.75 16.15 1.7 16.35 2.65 15.95 2.95" fill="none" stroke="#000000" stroke-linecap="butt" stroke-linejoin="miter-clip" stroke-miterlimit="10.0" stroke-opacity="0.4" stroke-width="1.0"/>
  </g>
</svg>
