<?xml version="1.0" encoding="UTF-8" standalone="no"?>
<svg xmlns:xlink="http://www.w3.org/1999/xlink" height="125.85px" width="193.2px" xmlns="http://www.w3.org/2000/svg">
  <g transform="matrix(1.0, 0.0, 0.0, 1.0, 96.6, 62.95)">
    <path d="M-96.6 4.8 L96.6 4.8 96.6 62.9 -96.6 62.9 -96.6 4.8" fill="#ffffff" fill-opacity="0.0" fill-rule="evenodd" stroke="none"/>
    <path d="M-96.6 -62.95 L96.6 -62.95 96.6 -3.6 -96.6 -3.6 -96.6 -62.95" fill="#ffffff" fill-opacity="0.0" fill-rule="evenodd" stroke="none"/>
    <path d="M53.7 4.8 L96.05 62.9 73.85 62.9 31.65 4.8 53.7 4.8" fill="#ffffff" fill-opacity="0.6" fill-rule="evenodd" stroke="none"/>
    <path d="M47.4 -3.6 L25.55 -3.6 -17.5 -62.95 4.2 -62.95 47.4 -3.6" fill="#ffffff" fill-opacity="0.6" fill-rule="evenodd" stroke="none"/>
    <path d="M5.4 4.8 L43.55 62.9 36.05 62.9 -4.55 4.8 5.4 4.8" fill="#ffffff" fill-opacity="0.6" fill-rule="evenodd" stroke="none"/>
    <path d="M0.0 -3.6 L-10.35 -3.6 -51.8 -62.95 -38.85 -62.95 0.0 -3.6" fill="#ffffff" fill-opacity="0.6" fill-rule="evenodd" stroke="none"/>
  </g>
</svg>
