<?xml version="1.0" encoding="UTF-8" standalone="no"?>
<svg xmlns:xlink="http://www.w3.org/1999/xlink" height="219.05px" width="783.0px" xmlns="http://www.w3.org/2000/svg">
  <g transform="matrix(1.0, 0.0, 0.0, 1.0, 681.55, 109.55)">
    <path d="M-673.25 -103.2 L-673.25 -62.5 -557.2 -62.5 -557.2 -103.2 -673.25 -103.2 M-673.25 -56.65 L-673.25 -16.75 -557.2 -16.75 -557.2 -56.65 -673.25 -56.65 M-681.05 -10.9 L-681.05 -109.05 -549.4 -109.05 -549.4 -10.9 -681.05 -10.9" fill="#ffffff" fill-opacity="0.0" fill-rule="evenodd" stroke="none"/>
    <path d="M-673.25 -56.65 L-557.2 -56.65 -557.2 -16.75 -673.25 -16.75 -673.25 -56.65 M-673.25 -103.2 L-557.2 -103.2 -557.2 -62.5 -673.25 -62.5 -673.25 -103.2" fill="none" stroke="#000000" stroke-linecap="butt" stroke-linejoin="miter-clip" stroke-miterlimit="10.0" stroke-opacity="0.6" stroke-width="1.0"/>
    <path d="M-681.05 -10.9 L-549.4 -10.9 -549.4 -109.05 -681.05 -109.05 -681.05 -10.9" fill="none" stroke="#000000" stroke-linecap="butt" stroke-linejoin="miter-clip" stroke-miterlimit="10.0" stroke-opacity="0.8" stroke-width="1.0"/>
    <path d="M99.7 -59.0 L100.95 -57.2 100.95 51.15 99.7 52.9 42.95 52.9 42.95 -59.0 99.7 -59.0 M95.2 -54.35 L46.8 -54.35 46.8 47.7 95.2 47.7 95.2 -54.35" fill="#ffffff" fill-opacity="0.0" fill-rule="evenodd" stroke="none"/>
    <path d="M95.2 -54.35 L95.2 47.7 46.8 47.7 46.8 -54.35 95.2 -54.35" fill="none" stroke="#000000" stroke-linecap="butt" stroke-linejoin="miter-clip" stroke-miterlimit="10.0" stroke-opacity="0.6" stroke-width="1.0"/>
    <path d="M99.7 -59.0 L42.95 -59.0 42.95 52.9 99.7 52.9 100.95 51.15 100.95 -57.2 99.7 -59.0" fill="none" stroke="#000000" stroke-linecap="butt" stroke-linejoin="miter-clip" stroke-miterlimit="10.0" stroke-opacity="0.8" stroke-width="1.0"/>
    <path d="M-172.3 -44.9 L-274.3 -44.9 -274.3 24.75 -172.3 24.75 -172.3 -44.9 M-279.55 -50.5 L-167.6 -50.5 -167.6 31.2 -169.35 32.85 -277.8 32.85 -279.55 31.2 -279.55 -50.5" fill="#ffffff" fill-opacity="0.0" fill-rule="evenodd" stroke="none"/>
    <path d="M-172.3 -44.9 L-172.3 24.75 -274.3 24.75 -274.3 -44.9 -172.3 -44.9" fill="none" stroke="#000000" stroke-linecap="butt" stroke-linejoin="miter-clip" stroke-miterlimit="10.0" stroke-opacity="0.6" stroke-width="1.0"/>
    <path d="M-279.55 -50.5 L-279.55 31.2 -277.8 32.85 -169.35 32.85 -167.6 31.2 -167.6 -50.5 -279.55 -50.5" fill="none" stroke="#000000" stroke-linecap="butt" stroke-linejoin="miter-clip" stroke-miterlimit="10.0" stroke-opacity="0.8" stroke-width="1.0"/>
    <path d="M-569.95 108.1 L-571.4 109.0 -661.25 109.0 -662.7 108.1 -662.7 60.6 -569.95 60.6 -569.95 108.1 M-573.8 104.35 L-573.8 63.9 -658.4 63.9 -658.4 104.35 -573.8 104.35" fill="#ffffff" fill-opacity="0.0" fill-rule="evenodd" stroke="none"/>
    <path d="M-569.95 108.1 L-569.95 60.6 -662.7 60.6 -662.7 108.1 -661.25 109.0 -571.4 109.0 -569.95 108.1" fill="none" stroke="#000000" stroke-linecap="butt" stroke-linejoin="miter-clip" stroke-miterlimit="10.0" stroke-width="1.0"/>
    <path d="M-573.8 104.35 L-658.4 104.35 -658.4 63.9 -573.8 63.9 -573.8 104.35" fill="none" stroke="#000000" stroke-linecap="butt" stroke-linejoin="miter-clip" stroke-miterlimit="10.0" stroke-opacity="0.4" stroke-width="1.0"/>
  </g>
</svg>
