<?xml version="1.0" encoding="UTF-8" standalone="no"?>
<svg xmlns:xlink="http://www.w3.org/1999/xlink" height="109.0px" width="55.15px" xmlns="http://www.w3.org/2000/svg">
  <g transform="matrix(1.0, 0.0, 0.0, 1.0, 27.3, 54.75)">
    <path d="M-0.75 -41.5 L-0.75 -35.9 -13.5 -35.9 -13.5 -36.7 -13.5 -41.15 -13.5 -42.2 -2.9 -42.2 -0.75 -42.2 -0.75 -41.5 M-17.25 22.45 L-16.4 22.45 -16.4 32.55 -17.35 32.55 -19.7 32.55 -20.4 32.55 -21.7 32.55 -23.15 32.55 -23.15 22.45 -21.6 22.45 -20.7 22.45 -20.0 22.45 -17.25 22.45 M-4.35 -40.0 L-4.35 -41.25 -12.55 -41.25 -12.55 -40.0 -4.35 -40.0 M-22.2 23.15 L-22.2 31.35 -21.7 31.35 -21.7 23.15 -22.2 23.15" fill="#ffffff" fill-opacity="0.0" fill-rule="evenodd" stroke="none"/>
    <path d="M9.0 -49.65 Q-3.5 -46.15 -4.95 -46.3 L21.2 -53.15 9.0 -49.65 M-4.35 -40.0 L-12.55 -40.0 -12.55 -41.25 -4.35 -41.25 -4.35 -40.0 M-20.7 22.45 Q-21.35 8.95 -23.1 2.9 -25.45 -5.3 -26.25 -14.15 L-26.55 -21.45 Q-25.95 -31.6 -20.2 -36.75 -18.4 -38.35 -16.3 -39.3 L-14.5 -39.9 -14.35 -39.2 -16.05 -38.6 Q-18.1 -37.7 -19.8 -36.15 -25.25 -31.2 -25.8 -21.45 L-25.5 -14.2 Q-24.75 -5.45 -22.4 2.7 -20.65 8.85 -20.0 22.45 L-20.7 22.45 M-22.2 23.15 L-21.7 23.15 -21.7 31.35 -22.2 31.35 -22.2 23.15 M-20.4 32.55 L-19.7 32.55 Q-19.55 43.35 -19.85 52.7 L-20.55 52.7 Q-20.25 43.3 -20.4 32.55" fill="#ffffff" fill-opacity="0.8" fill-rule="evenodd" stroke="none"/>
    <path d="M-2.9 -42.2 L-5.1 -43.6 Q-7.0 -45.35 -5.8 -47.0 L-3.3 -47.65 -5.9 -53.1 -3.95 -53.75 -1.6 -54.0 Q-1.1 -53.5 0.8 -48.7 L22.4 -54.25 22.15 -53.05 Q21.7 -51.7 20.5 -51.1 18.8 -50.25 2.35 -44.15 L25.8 -35.2 26.7 -34.3 Q27.55 -33.2 27.25 -32.3 L-0.75 -41.5 -0.75 -42.2 -2.9 -42.2 2.35 -44.15 -2.9 -42.2 M9.0 -49.65 L21.2 -53.15 -4.95 -46.3 Q-3.5 -46.15 9.0 -49.65 M0.8 -48.7 L-3.3 -47.65 0.8 -48.7" fill="#000000" fill-opacity="0.4" fill-rule="evenodd" stroke="none"/>
    <path d="M-13.5 -36.7 L-13.55 -36.7 Q-14.7 -36.4 -15.85 -35.7 -19.35 -33.45 -21.35 -28.15 -23.65 -22.25 -22.65 -12.7 -22.1 -7.35 -20.05 1.2 L-19.85 2.15 Q-18.6 7.5 -17.8 14.95 -17.3 19.6 -17.25 22.45 L-20.0 22.45 Q-20.65 8.85 -22.4 2.7 -24.75 -5.45 -25.5 -14.2 L-25.8 -21.45 Q-25.25 -31.2 -19.8 -36.15 -18.1 -37.7 -16.05 -38.6 L-14.35 -39.2 -14.5 -39.9 -16.3 -39.3 Q-18.4 -38.35 -20.2 -36.75 -25.95 -31.6 -26.55 -21.45 L-26.25 -14.15 Q-25.45 -5.3 -23.1 2.9 -21.35 8.95 -20.7 22.45 L-21.6 22.45 -22.1 15.8 Q-22.85 8.45 -24.05 3.15 L-24.3 2.2 Q-26.45 -6.95 -27.0 -12.7 -28.0 -23.0 -25.45 -29.7 -22.7 -36.85 -17.5 -39.75 -15.85 -40.65 -14.1 -41.05 L-13.5 -41.15 -13.5 -36.7 M-17.35 32.55 L-17.35 54.25 -21.7 54.25 -21.7 32.55 -20.4 32.55 Q-20.25 43.3 -20.55 52.7 L-19.85 52.7 Q-19.55 43.35 -19.7 32.55 L-17.35 32.55" fill="#000000" fill-opacity="0.6" fill-rule="evenodd" stroke="none"/>
    <path d="M-2.9 -42.2 L-5.1 -43.6 Q-7.0 -45.35 -5.8 -47.0 L-3.3 -47.65 -5.9 -53.1 -3.95 -53.75 -1.6 -54.0 Q-1.1 -53.5 0.8 -48.7 L22.4 -54.25 22.15 -53.05 Q21.7 -51.7 20.5 -51.1 18.8 -50.25 2.35 -44.15 L25.8 -35.2 26.7 -34.3 Q27.55 -33.2 27.25 -32.3 L-0.75 -41.5 -0.75 -35.9 -13.5 -35.9 -13.5 -36.7 -13.5 -41.15 -13.5 -42.2 -2.9 -42.2 2.35 -44.15 M-17.25 22.45 L-16.4 22.45 -16.4 32.55 -17.35 32.55 -19.7 32.55 -20.4 32.55 -21.7 32.55 -23.15 32.55 -23.15 22.45 -21.6 22.45 -20.7 22.45 -20.0 22.45 -17.25 22.45 M-2.9 -42.2 L-0.75 -42.2 -0.75 -41.5 M-3.3 -47.65 L0.8 -48.7" fill="none" stroke="#000000" stroke-linecap="butt" stroke-linejoin="miter-clip" stroke-miterlimit="10.0" stroke-width="1.0"/>
  </g>
</svg>
