<?xml version="1.0" encoding="UTF-8" standalone="no"?>
<svg xmlns:xlink="http://www.w3.org/1999/xlink" height="128.1px" width="33.1px" xmlns="http://www.w3.org/2000/svg">
  <g transform="matrix(1.0, 0.0, 0.0, 1.0, 16.55, 65.0)">
    <path d="M-8.7 -50.25 L-4.2 -51.0 -4.2 -56.05 -4.15 -56.05 -4.45 -57.7 Q-4.45 -59.7 -3.05 -61.15 -1.65 -62.55 0.35 -62.55 2.35 -62.55 3.8 -61.15 5.2 -59.7 5.2 -57.7 5.2 -56.25 4.45 -55.1 L4.45 -51.0 8.7 -50.25 Q14.5 -48.95 16.05 -46.65 L16.05 59.5 Q15.3 60.3 12.9 61.1 8.1 62.7 0.0 62.6 -8.1 62.7 -12.9 61.1 L-15.35 60.0 -16.05 59.5 -16.05 -46.65 Q-14.5 -48.95 -8.7 -50.25 M-4.15 -56.05 Q-3.85 -55.1 -3.05 -54.3 -1.6 -52.9 0.35 -52.9 2.35 -52.9 3.8 -54.3 L4.45 -55.1 3.8 -54.3 Q2.35 -52.9 0.35 -52.9 -1.6 -52.9 -3.05 -54.3 -3.85 -55.1 -4.15 -56.05 M3.85 -49.5 L4.45 -49.75 4.45 -51.0 4.45 -49.75 3.85 -49.5 2.0 -49.1 Q-1.05 -48.7 -4.2 -49.75 L-4.2 -50.65 -8.3 -49.95 Q-14.1 -48.7 -15.65 -46.5 L-15.65 59.3 -13.85 60.35 Q-11.85 61.2 -8.9 61.65 L-8.9 -46.75 -5.9 -46.75 Q-3.5 -46.85 -0.1 -47.8 L4.45 -49.3 3.85 -49.5 M-4.2 -51.0 L-4.2 -50.65 -4.2 -51.0 M13.85 -45.9 Q12.35 -48.0 8.75 -48.85 L5.45 -49.3 Q8.15 -48.7 10.2 -46.85 L11.7 -45.2 11.7 60.2 13.85 58.5 13.85 -45.9" fill="#ffffff" fill-opacity="0.0" fill-rule="evenodd" stroke="none"/>
    <path d="M3.85 -49.5 L4.45 -49.3 -0.1 -47.8 Q-3.5 -46.85 -5.9 -46.75 L-8.9 -46.75 -8.9 61.65 Q-11.85 61.2 -13.85 60.35 L-15.65 59.3 -15.65 -46.5 Q-14.1 -48.7 -8.3 -49.95 L-4.2 -50.65 -4.2 -49.75 Q-1.05 -48.7 2.0 -49.1 L3.85 -49.5" fill="#000000" fill-opacity="0.2" fill-rule="evenodd" stroke="none"/>
    <path d="M13.85 -45.9 L13.85 58.5 11.7 60.2 11.7 -45.2 10.2 -46.85 Q8.15 -48.7 5.45 -49.3 L8.75 -48.85 Q12.35 -48.0 13.85 -45.9" fill="#ffffff" fill-opacity="0.4" fill-rule="evenodd" stroke="none"/>
    <path d="M-4.2 -50.65 L-4.2 -51.0 M3.85 -49.5 L2.0 -49.1 Q-1.05 -48.7 -4.2 -49.75 L-4.2 -50.65" fill="none" stroke="#000000" stroke-linecap="butt" stroke-linejoin="miter-clip" stroke-miterlimit="10.0" stroke-width="1.0"/>
    <path d="M-8.7 -50.25 L-4.2 -51.0 -4.2 -56.05 -4.15 -56.05 -4.45 -57.7 Q-4.45 -59.7 -3.05 -61.15 -1.65 -62.55 0.35 -62.55 2.35 -62.55 3.8 -61.15 5.2 -59.7 5.2 -57.7 5.2 -56.25 4.45 -55.1" fill="none" stroke="#000000" stroke-linecap="butt" stroke-linejoin="miter-clip" stroke-miterlimit="10.0" stroke-width="1.0"/>
    <path d="M4.45 -55.1 L4.45 -51.0" fill="none" stroke="#000000" stroke-linecap="round" stroke-linejoin="miter-clip" stroke-miterlimit="10.0" stroke-width="1.0"/>
    <path d="M4.45 -51.0 L8.7 -50.25 Q14.5 -48.95 16.05 -46.65 L16.05 59.5 Q15.3 60.3 12.9 61.1 8.1 62.7 0.0 62.6 -8.1 62.7 -12.9 61.1 L-15.35 60.0 -16.05 59.5 -16.05 -46.65 Q-14.5 -48.95 -8.7 -50.25 M4.45 -55.1 L3.8 -54.3 Q2.35 -52.9 0.35 -52.9 -1.6 -52.9 -3.05 -54.3 -3.85 -55.1 -4.15 -56.05 M4.45 -51.0 L4.45 -49.75 3.85 -49.5" fill="none" stroke="#000000" stroke-linecap="round" stroke-linejoin="miter-clip" stroke-miterlimit="10.0" stroke-width="1.0"/>
  </g>
</svg>
