<?xml version="1.0" encoding="UTF-8" standalone="no"?>
<svg xmlns:xlink="http://www.w3.org/1999/xlink" height="130.65px" width="252.95px" xmlns="http://www.w3.org/2000/svg">
  <g transform="matrix(1.0, 0.0, 0.0, 1.0, 128.05, 65.8)">
    <path d="M27.55 -17.3 Q33.25 -18.1 39.0 -17.3 45.85 -16.3 49.3 -13.25 44.65 -8.6 31.95 -7.25 L13.0 -6.55 5.5 -6.7 -2.1 -6.95 -6.8 -6.95 Q-9.45 -7.15 -11.25 -8.2 -13.8 -9.7 -5.7 -13.1 1.5 -16.0 3.7 -16.15 L15.6 -16.45 27.55 -17.3 M-66.75 -14.4 L-66.3 -14.35 Q-44.4 -11.5 -37.7 -10.0 -14.6 -4.85 -17.75 3.2 -19.35 7.15 -31.4 10.55 -41.9 13.45 -47.4 13.25 L-60.05 11.75 -73.05 11.05 -90.45 13.0 Q-101.55 14.0 -107.55 11.9 -106.95 11.3 -106.1 9.2 L-105.0 6.55 Q-106.4 5.95 -113.0 5.3 -117.6 4.85 -119.3 3.85 -121.8 2.35 -120.5 -1.0 -118.4 -6.65 -111.05 -10.05 -116.0 -18.65 -124.4 -26.95 L-121.05 -24.8 Q-117.0 -21.95 -113.75 -18.35 -110.6 -14.85 -108.55 -11.05 -105.15 -12.35 -100.75 -13.2 -99.35 -32.45 -89.45 -44.2 L-91.55 -40.55 Q-93.95 -35.75 -95.85 -30.1 -98.5 -21.95 -99.55 -13.45 L-97.1 -13.85 Q-93.75 -20.55 -86.85 -24.35 -85.65 -49.2 -78.6 -62.2 L-83.4 -40.0 Q-84.85 -31.9 -85.7 -24.95 L-81.5 -26.75 -86.0 -22.55 -86.65 -15.0 Q-81.1 -15.35 -75.6 -15.15 -75.5 -18.65 -75.75 -23.15 L-76.8 -35.3 Q-72.95 -23.35 -73.6 -15.05 L-66.75 -14.4 -66.35 -12.65 -66.75 -14.4 M-67.1 -16.3 Q-67.8 -19.85 -68.15 -24.5 -69.3 -39.25 -66.0 -54.05 L-67.1 -34.7 Q-67.65 -21.8 -67.1 -16.3 M-111.05 -10.05 Q-108.9 -6.3 -107.4 -2.45 -104.9 3.95 -104.85 7.85 -103.85 -2.35 -108.55 -11.05 -103.85 -2.35 -104.85 7.85 -104.9 3.95 -107.4 -2.45 -108.9 -6.3 -111.05 -10.05 M-87.1 -15.0 L-87.0 -21.5 -90.75 -16.9 -92.45 -14.5 -87.1 -15.0 -86.9 -6.05 -87.1 -15.0 M-86.65 -15.0 L-86.9 -6.05 -86.65 -15.0 M-86.85 -24.35 L-86.9 -23.95 -87.0 -21.5 -86.9 -23.95 -86.85 -24.35 M-100.15 -3.0 L-99.65 -6.4 Q-98.85 -10.5 -97.1 -13.85 -98.85 -10.5 -99.65 -6.4 L-100.15 -3.0 Q-100.7 1.9 -99.85 6.3 -100.7 1.9 -100.15 -3.0 -100.15 -8.3 -99.55 -13.45 -100.15 -8.3 -100.15 -3.0 M-92.45 -14.5 Q-99.85 -3.4 -99.6 7.55 L-99.85 6.3 -99.6 7.55 Q-99.85 -3.4 -92.45 -14.5 M-86.7 -1.55 L-86.85 -3.8 -86.9 -6.05 -86.85 -3.8 -86.7 -1.55 M-100.75 -13.2 L-100.95 -9.7 Q-101.25 -0.05 -99.85 6.3 -101.25 -0.05 -100.95 -9.7 L-100.75 -13.2 M-85.7 -24.95 L-86.0 -22.55 -85.7 -24.95 M-55.8 -42.5 L-53.4 -45.05 Q-59.75 -34.75 -60.35 -23.65 -60.65 -18.1 -59.7 -14.6 -66.0 -24.5 -60.3 -35.75 -58.55 -39.25 -55.8 -42.5 M-75.6 -15.15 Q-75.75 -8.35 -77.15 -5.2 -75.2 -6.85 -74.15 -11.45 -73.75 -13.15 -73.6 -15.05 -73.75 -13.15 -74.15 -11.45 -75.2 -6.85 -77.15 -5.2 -75.75 -8.35 -75.6 -15.15" fill="#ffffff" fill-opacity="0.0" fill-rule="evenodd" stroke="none"/>
    <path d="M119.5 5.5 Q108.45 8.05 103.2 5.9 98.85 4.0 109.15 2.8 L120.25 1.9 Q125.05 2.35 124.3 3.5 123.7 4.55 119.5 5.5 M99.75 34.15 Q94.75 35.6 82.15 35.95 L70.6 36.05 55.65 34.6 Q41.65 32.5 46.05 29.05 50.55 25.55 65.55 24.7 73.0 24.25 79.6 24.55 99.3 24.4 105.15 27.35 108.1 28.75 107.05 30.25 L87.55 30.35 99.75 34.15 M85.65 6.25 Q91.65 9.1 86.35 12.1 81.4 14.95 67.3 15.1 L54.15 14.75 59.05 8.75 45.85 14.15 Q40.2 13.85 39.0 11.9 L38.85 10.0 Q39.55 5.75 57.1 4.3 L74.5 3.7 Q80.55 3.85 85.65 6.25" fill="#000000" fill-opacity="0.09803922" fill-rule="evenodd" stroke="none"/>
    <path d="M46.35 48.35 Q48.7 50.9 39.85 52.0 31.3 53.15 28.2 51.95 23.2 50.0 30.3 48.65 36.7 47.45 43.2 47.8 46.0 47.95 46.35 48.35 M-15.15 36.05 Q-20.1 38.9 -39.75 39.55 -59.55 40.3 -54.05 36.4 -49.1 32.9 -32.4 32.5 -8.4 32.15 -15.15 36.05 M-3.95 37.9 Q7.95 37.4 9.25 39.8 10.6 42.4 -4.25 43.15 -18.95 43.9 -17.0 40.6 -15.75 38.5 -3.95 37.9 M-28.5 62.2 Q-38.6 62.45 -37.85 59.95 -37.2 57.65 -27.95 55.4 -22.4 53.95 -12.3 53.45 0.0 52.85 -0.35 55.75 -0.9 59.8 -12.15 61.3 L-28.5 62.2" fill="#000000" fill-opacity="0.14901961" fill-rule="evenodd" stroke="none"/>
    <path d="M27.55 -17.3 L15.6 -16.45 3.7 -16.15 Q1.5 -16.0 -5.7 -13.1 -13.8 -9.7 -11.25 -8.2 -9.45 -7.15 -6.8 -6.95 L-2.1 -6.95 5.5 -6.7 13.0 -6.55 31.95 -7.25 Q44.65 -8.6 49.3 -13.25 45.85 -16.3 39.0 -17.3 33.25 -18.1 27.55 -17.3 M85.65 6.25 Q80.55 3.85 74.5 3.7 L57.1 4.3 Q39.55 5.75 38.85 10.0 L39.0 11.9 Q40.2 13.85 45.85 14.15 L59.05 8.75 54.15 14.75 67.3 15.1 Q81.4 14.95 86.35 12.1 91.65 9.1 85.65 6.25 M99.75 34.15 L87.55 30.35 107.05 30.25 Q108.1 28.75 105.15 27.35 99.3 24.4 79.6 24.55 73.0 24.25 65.55 24.7 50.55 25.55 46.05 29.05 41.65 32.5 55.65 34.6 L70.6 36.05 82.15 35.95 Q94.75 35.6 99.75 34.15 M119.5 5.5 Q123.7 4.55 124.3 3.5 125.05 2.35 120.25 1.9 L109.15 2.8 Q98.85 4.0 103.2 5.9 108.45 8.05 119.5 5.5 M46.35 48.35 Q48.7 50.9 39.85 52.0 31.3 53.15 28.2 51.95 23.2 50.0 30.3 48.65 36.7 47.45 43.2 47.8 46.0 47.95 46.35 48.35 M-55.8 -42.5 Q-58.55 -39.25 -60.3 -35.75 -66.0 -24.5 -59.7 -14.6 -60.65 -18.1 -60.35 -23.65 -59.75 -34.75 -53.4 -45.05 L-55.8 -42.5 M-15.15 36.05 Q-20.1 38.9 -39.75 39.55 -59.55 40.3 -54.05 36.4 -49.1 32.9 -32.4 32.5 -8.4 32.15 -15.15 36.05 M-3.95 37.9 Q7.95 37.4 9.25 39.8 10.6 42.4 -4.25 43.15 -18.95 43.9 -17.0 40.6 -15.75 38.5 -3.95 37.9 M-28.5 62.2 Q-38.6 62.45 -37.85 59.95 -37.2 57.65 -27.95 55.4 -22.4 53.95 -12.3 53.45 0.0 52.85 -0.35 55.75 -0.9 59.8 -12.15 61.3 L-28.5 62.2" fill="none" stroke="#000000" stroke-linecap="butt" stroke-linejoin="miter-clip" stroke-miterlimit="10.0" stroke-opacity="0.6" stroke-width="1.0"/>
    <path d="M-66.75 -14.4 L-66.3 -14.35 Q-44.4 -11.5 -37.7 -10.0 -14.6 -4.85 -17.75 3.2 -19.35 7.15 -31.4 10.55 -41.9 13.45 -47.4 13.25 L-60.05 11.75 -73.05 11.05 -90.45 13.0 Q-101.55 14.0 -107.55 11.9 -106.95 11.3 -106.1 9.2 L-105.0 6.55 Q-106.4 5.95 -113.0 5.3 -117.6 4.85 -119.3 3.85 -121.8 2.35 -120.5 -1.0 -118.4 -6.65 -111.05 -10.05 -116.0 -18.65 -124.4 -26.95 L-121.05 -24.8 Q-117.0 -21.95 -113.75 -18.35 -110.6 -14.85 -108.55 -11.05 -105.15 -12.35 -100.75 -13.2 -99.35 -32.45 -89.45 -44.2 L-91.55 -40.55 Q-93.95 -35.75 -95.85 -30.1 -98.5 -21.95 -99.55 -13.45 L-97.1 -13.85 Q-93.75 -20.55 -86.85 -24.35 -85.65 -49.2 -78.6 -62.2 L-83.4 -40.0 Q-84.85 -31.9 -85.7 -24.95 L-81.5 -26.75 -86.0 -22.55 -86.65 -15.0 Q-81.1 -15.35 -75.6 -15.15 -75.5 -18.65 -75.75 -23.15 L-76.8 -35.3 Q-72.95 -23.35 -73.6 -15.05 L-66.75 -14.4 -67.1 -16.3 Q-67.8 -19.85 -68.15 -24.5 -69.3 -39.25 -66.0 -54.05 L-67.1 -34.7 Q-67.65 -21.8 -67.1 -16.3 M-108.55 -11.05 Q-103.85 -2.35 -104.85 7.85 -104.9 3.95 -107.4 -2.45 -108.9 -6.3 -111.05 -10.05 M-87.1 -15.0 L-87.0 -21.5 -90.75 -16.9 -92.45 -14.5 -87.1 -15.0 -86.9 -6.05 -86.65 -15.0 M-87.0 -21.5 L-86.9 -23.95 -86.85 -24.35 M-97.1 -13.85 Q-98.85 -10.5 -99.65 -6.4 L-100.15 -3.0 Q-100.7 1.9 -99.85 6.3 L-99.6 7.55 Q-99.85 -3.4 -92.45 -14.5 M-99.85 6.3 Q-101.25 -0.05 -100.95 -9.7 L-100.75 -13.2 M-99.55 -13.45 Q-100.15 -8.3 -100.15 -3.0 M-86.0 -22.55 L-85.7 -24.95 M-73.6 -15.05 Q-73.75 -13.15 -74.15 -11.45 -75.2 -6.85 -77.15 -5.2 -75.75 -8.35 -75.6 -15.15" fill="none" stroke="#000000" stroke-linecap="round" stroke-linejoin="miter-clip" stroke-miterlimit="10.0" stroke-opacity="0.6" stroke-width="1.0"/>
    <path d="M-86.9 -6.05 L-86.85 -3.8 -86.7 -1.55" fill="none" stroke="#000000" stroke-linecap="round" stroke-linejoin="miter-clip" stroke-miterlimit="10.0" stroke-opacity="0.6" stroke-width="1.0"/>
    <path d="M-66.35 -12.65 L-66.75 -14.4" fill="none" stroke="#000000" stroke-linecap="butt" stroke-linejoin="miter-clip" stroke-miterlimit="10.0" stroke-opacity="0.6" stroke-width="1.0"/>
  </g>
</svg>
