<?xml version="1.0" encoding="UTF-8" standalone="no"?>
<svg xmlns:xlink="http://www.w3.org/1999/xlink" height="6.8px" width="6.8px" xmlns="http://www.w3.org/2000/svg">
  <g transform="matrix(1.0, 0.0, 0.0, 1.0, 3.4, 3.4)">
    <path d="M2.9 0.0 Q2.9 1.2 2.05 2.05 1.2 2.9 0.0 2.9 -1.2 2.9 -2.05 2.05 -2.9 1.2 -2.9 0.0 -2.9 -1.2 -2.05 -2.05 -1.2 -2.9 0.0 -2.9 1.2 -2.9 2.05 -2.05 2.9 -1.2 2.9 0.0" fill="#ffffff" fill-opacity="0.0" fill-rule="evenodd" stroke="none"/>
    <path d="M2.9 0.0 Q2.9 1.2 2.05 2.05 1.2 2.9 0.0 2.9 -1.2 2.9 -2.05 2.05 -2.9 1.2 -2.9 0.0 -2.9 -1.2 -2.05 -2.05 -1.2 -2.9 0.0 -2.9 1.2 -2.9 2.05 -2.05 2.9 -1.2 2.9 0.0 Z" fill="none" stroke="#000000" stroke-linecap="butt" stroke-linejoin="miter-clip" stroke-miterlimit="10.0" stroke-opacity="0.6" stroke-width="1.0"/>
  </g>
</svg>
