<?xml version="1.0" encoding="UTF-8" standalone="no"?>
<svg xmlns:xlink="http://www.w3.org/1999/xlink" height="969.6px" width="262.15px" xmlns="http://www.w3.org/2000/svg">
  <g transform="matrix(1.0, 0.0, 0.0, 1.0, 131.05, 484.8)">
    <path d="M-55.3 284.0 Q-31.85 266.8 -2.1 266.3 L-1.6 266.3 -1.3 266.3 -1.05 266.3 -0.35 266.3 Q31.35 266.3 55.9 285.0 L56.35 285.35 57.7 286.4 Q65.4 292.55 71.45 299.75 L76.25 305.85 Q81.3 312.85 84.9 320.55 88.35 328.45 90.55 337.1 82.75 367.85 57.7 387.65 32.2 407.75 -0.35 407.75 -32.9 407.75 -58.4 387.65 -83.45 368.0 -91.25 337.1 -88.9 327.7 -85.05 319.35 L-75.4 303.7 -69.1 296.25 -64.3 291.5 -60.1 287.8 -58.4 286.4 -55.3 284.0" fill="#000000" fill-opacity="0.6" fill-rule="evenodd" stroke="none"/>
    <path d="M-100.0 -387.8 L-99.65 -409.0 Q-99.5 -413.35 -98.45 -419.8 -96.2 -432.85 -91.1 -444.1 -74.45 -480.1 -34.85 -484.3 L-27.05 -484.3 Q12.55 -480.1 29.2 -444.1 37.6 -426.1 37.9 -409.0 L40.55 -381.4 Q31.3 -419.05 0.1 -434.05 -9.65 -438.7 -20.6 -440.5 L-29.45 -441.4 Q-50.55 -440.25 -66.4 -431.05 -50.55 -440.25 -29.45 -441.4 L-20.6 -440.5 Q-9.65 -438.7 0.1 -434.05 31.3 -419.05 40.55 -381.4 L108.6 331.65 109.55 335.65 Q112.0 347.4 112.0 360.2 112.0 367.55 111.2 374.6 L124.45 374.6 130.6 484.25 22.45 484.25 28.45 469.25 Q14.75 472.7 -0.35 472.7 -15.0 472.7 -28.25 469.45 L-22.4 484.25 -130.55 484.25 -124.4 374.6 -112.0 374.6 Q-112.85 367.55 -112.85 360.2 -112.85 353.85 -112.2 347.8 L-112.1 341.65 -100.0 -387.8 Q-99.2 -390.85 -97.25 -395.35 -93.2 -405.1 -86.75 -413.2 L-81.4 -419.25 -86.75 -413.2 Q-93.2 -405.1 -97.25 -395.35 -99.2 -390.85 -100.0 -387.8 M-66.4 -431.05 L-67.25 -463.15 Q-73.1 -458.2 -77.75 -448.6 -80.0 -443.8 -81.2 -439.9 L-81.4 -419.25 -88.85 274.1 -48.65 243.2 -66.4 -431.05 M84.9 320.55 Q81.3 312.85 76.25 305.85 L71.45 299.75 Q65.4 292.55 57.7 286.4 L56.35 285.35 55.9 285.0 Q31.35 266.3 -0.35 266.3 L-1.05 266.3 -1.3 266.3 -1.6 266.3 -2.1 266.3 Q-31.85 266.8 -55.3 284.0 L-60.1 287.8 -64.3 291.5 -69.1 296.25 -75.4 303.7 -85.05 319.35 Q-94.25 337.85 -94.25 360.2 -94.25 399.2 -66.8 426.65 -39.2 454.1 -0.35 454.1 38.5 454.1 65.95 426.65 93.55 399.05 93.55 360.2 93.55 338.6 84.9 320.55 M28.45 469.25 Q56.85 462.0 79.15 439.7 106.8 412.05 111.2 374.6 106.8 412.05 79.15 439.7 56.85 462.0 28.45 469.25 M108.6 331.65 Q101.4 303.05 79.15 280.7 46.3 247.85 -0.35 247.85 -47.0 247.85 -79.85 280.7 -108.35 309.2 -112.2 347.8 -108.35 309.2 -79.85 280.7 -47.0 247.85 -0.35 247.85 46.3 247.85 79.15 280.7 101.4 303.05 108.6 331.65 M-28.25 469.45 Q-57.25 462.3 -79.85 439.7 -107.65 412.05 -112.0 374.6 -107.65 412.05 -79.85 439.7 -57.25 462.3 -28.25 469.45" fill="#ffffff" fill-opacity="0.0" fill-rule="evenodd" stroke="none"/>
    <path d="M-81.4 -419.25 L-81.2 -439.9 Q-80.0 -443.8 -77.75 -448.6 -73.1 -458.2 -67.25 -463.15 L-66.4 -431.05 Q-74.65 -426.25 -81.4 -419.25 -74.65 -426.25 -66.4 -431.05 L-48.65 243.2 -88.85 274.1 -81.4 -419.25" fill="#ffffff" fill-opacity="0.6" fill-rule="evenodd" stroke="none"/>
    <path d="M-60.1 287.8 L-55.3 284.0 -58.4 286.4 -60.1 287.8" fill="#000000" fill-opacity="0.2" fill-rule="evenodd" stroke="none"/>
    <path d="M109.55 335.65 L124.45 374.6 111.2 374.6 Q112.0 367.55 112.0 360.2 112.0 347.4 109.55 335.65 M-124.4 374.6 L-112.1 341.65 -112.2 347.8 Q-112.85 353.85 -112.85 360.2 -112.85 367.55 -112.0 374.6 L-124.4 374.6 M84.9 320.55 Q93.55 338.6 93.55 360.2 93.55 399.05 65.95 426.65 38.5 454.1 -0.35 454.1 -39.2 454.1 -66.8 426.65 -94.25 399.2 -94.25 360.2 -94.25 337.85 -85.05 319.35 -88.9 327.7 -91.25 337.1 -83.45 368.0 -58.4 387.65 -32.9 407.75 -0.35 407.75 32.2 407.75 57.7 387.65 82.75 367.85 90.55 337.1 88.35 328.45 84.9 320.55" fill="#000000" fill-opacity="0.4" fill-rule="evenodd" stroke="none"/>
    <path d="M-66.4 -431.05 Q-74.65 -426.25 -81.4 -419.25 M-124.4 374.6 L-112.0 374.6 Q-112.85 367.55 -112.85 360.2 -112.85 353.85 -112.2 347.8 L-112.1 341.65 M-112.0 374.6 Q-107.65 412.05 -79.85 439.7 -57.25 462.3 -28.25 469.45" fill="none" stroke="#000000" stroke-linecap="butt" stroke-linejoin="miter-clip" stroke-miterlimit="10.0" stroke-width="1.0"/>
    <path d="M40.55 -381.4 L37.9 -409.0 Q37.6 -426.1 29.2 -444.1 12.55 -480.1 -27.05 -484.3 L-34.85 -484.3 Q-74.45 -480.1 -91.1 -444.1 -96.2 -432.85 -98.45 -419.8 -99.5 -413.35 -99.65 -409.0 L-100.0 -387.8 Q-99.2 -390.85 -97.25 -395.35 -93.2 -405.1 -86.75 -413.2 L-81.4 -419.25 M124.45 374.6 L130.6 484.25 22.45 484.25 28.45 469.25 Q14.75 472.7 -0.35 472.7 -15.0 472.7 -28.25 469.45 L-22.4 484.25 -130.55 484.25 -124.4 374.6 -112.1 341.65 -100.0 -387.8 M84.9 320.55 Q93.55 338.6 93.55 360.2 93.55 399.05 65.95 426.65 38.5 454.1 -0.35 454.1 -39.2 454.1 -66.8 426.65 -94.25 399.2 -94.25 360.2 -94.25 337.85 -85.05 319.35 L-75.4 303.7 -69.1 296.25 -64.3 291.5 -60.1 287.8 -55.3 284.0 -58.4 286.4 -60.1 287.8 M84.9 320.55 Q88.35 328.45 90.55 337.1 82.75 367.85 57.7 387.65 32.2 407.75 -0.35 407.75 -32.9 407.75 -58.4 387.65 -83.45 368.0 -91.25 337.1 -88.9 327.7 -85.05 319.35 M111.2 374.6 Q106.8 412.05 79.15 439.7 56.85 462.0 28.45 469.25" fill="none" stroke="#000000" stroke-linecap="round" stroke-linejoin="miter-clip" stroke-miterlimit="10.0" stroke-width="1.0"/>
    <path d="M-66.4 -431.05 Q-50.55 -440.25 -29.45 -441.4 L-20.6 -440.5 Q-9.65 -438.7 0.1 -434.05 31.3 -419.05 40.55 -381.4 M-55.3 284.0 Q-31.85 266.8 -2.1 266.3 L-1.6 266.3 -1.3 266.3 -1.05 266.3 -0.35 266.3 Q31.35 266.3 55.9 285.0 L56.35 285.35 57.7 286.4 Q65.4 292.55 71.45 299.75 L76.25 305.85 Q81.3 312.85 84.9 320.55 M-112.2 347.8 Q-108.35 309.2 -79.85 280.7 -47.0 247.85 -0.35 247.85 46.3 247.85 79.15 280.7 101.4 303.05 108.6 331.65" fill="none" stroke="#000000" stroke-linecap="butt" stroke-linejoin="miter-clip" stroke-miterlimit="10.0" stroke-width="1.0"/>
    <path d="M40.55 -381.4 L108.6 331.65 109.55 335.65 124.45 374.6 111.2 374.6 Q112.0 367.55 112.0 360.2 112.0 347.4 109.55 335.65" fill="none" stroke="#000000" stroke-linecap="round" stroke-linejoin="miter-clip" stroke-miterlimit="10.0" stroke-width="1.0"/>
    <path d="M40.1 -384.4 Q30.25 -419.15 3.25 -433.6 -6.2 -438.7 -16.9 -440.75 -24.55 -442.2 -30.55 -441.85 -66.8 -439.75 -86.8 -414.05 -93.1 -405.9 -97.1 -396.2 L-100.1 -387.4 -99.75 -398.25 -96.75 -406.25 Q-92.5 -415.6 -85.95 -423.45 -65.1 -448.3 -29.6 -448.3 -13.3 -448.3 1.75 -441.1 30.2 -427.55 39.1 -393.3 L40.1 -384.4 M62.35 -151.6 Q52.0 -188.65 20.8 -205.9 0.1 -217.15 -20.9 -217.15 -60.2 -217.0 -85.7 -189.4 -93.8 -180.55 -99.5 -169.9 -102.95 -163.45 -103.85 -160.15 L-103.7 -166.45 -100.1 -175.15 Q-95.15 -185.35 -87.5 -193.75 -63.05 -220.9 -21.05 -221.65 L-10.1 -220.3 Q2.8 -218.05 14.35 -212.95 51.25 -196.9 61.75 -158.95 L62.35 -151.6 M31.45 55.55 Q75.1 74.0 87.7 117.5 L88.6 124.7 Q77.95 87.35 39.85 66.65 12.4 51.65 -9.8 51.65 -61.4 51.65 -89.9 83.2 -98.8 93.05 -104.35 105.0 -107.15 110.95 -108.2 115.15 L-108.1 107.0 Q-106.95 103.15 -104.1 97.6 -98.4 86.65 -89.4 77.3 -60.85 47.65 -10.55 45.5 L2.35 47.0 Q17.65 49.7 31.45 55.55 M103.9 282.35 Q94.45 242.45 67.75 221.75 33.1 194.75 -27.65 203.15 -66.55 208.7 -92.55 240.2 -105.55 256.0 -110.9 270.85 L-110.7 264.2 Q-109.3 259.6 -106.0 253.1 -99.4 240.1 -89.4 229.35 -57.6 195.05 -3.35 195.05 L12.25 195.5 Q28.75 197.15 43.3 202.85 88.9 220.55 102.7 272.3 L103.9 282.35" fill="#ffffff" fill-opacity="0.8" fill-rule="evenodd" stroke="none"/>
    <path d="M-103.85 -157.6 Q-102.95 -161.2 -100.4 -166.6 -95.6 -177.4 -87.95 -186.4 -63.5 -215.35 -20.9 -215.8 2.05 -216.1 24.1 -201.7 50.8 -184.3 62.35 -152.5 M-108.35 115.7 L-104.45 106.4 Q-98.9 95.3 -90.05 85.7 -61.55 55.25 -10.7 53.15 L2.05 54.5 Q17.5 57.05 31.45 62.9 76.15 81.35 88.9 125.75 M-111.05 271.7 L-106.55 260.6 Q-99.95 247.4 -89.9 236.45 -57.8 201.2 -2.9 201.5 32.8 201.65 54.7 213.35 89.35 231.95 103.75 281.6" fill="none" stroke="#000000" stroke-linecap="butt" stroke-linejoin="miter-clip" stroke-miterlimit="10.0" stroke-opacity="0.8" stroke-width="1.0"/>
  </g>
</svg>
