<?xml version="1.0" encoding="UTF-8" standalone="no"?>
<svg xmlns:xlink="http://www.w3.org/1999/xlink" height="115.55px" width="86.45px" xmlns="http://www.w3.org/2000/svg">
  <g transform="matrix(1.0, 0.0, 0.0, 1.0, 43.25, 57.75)">
    <path d="M-13.15 34.85 L-7.2 47.05 -1.8 35.85 -7.7 23.65 -13.15 34.85 M-28.75 2.7 L-22.6 15.35 -17.2 4.15 -23.4 -8.6 -28.75 2.7 M-9.45 20.0 L-15.4 7.8 -20.85 19.0 -14.9 31.2 -9.45 20.0 M-13.65 4.15 L-7.7 16.35 -1.8 4.2 -7.7 -8.0 -13.65 4.15 M-9.5 -11.65 L-15.8 -24.65 -21.65 -12.3 -15.4 0.5 -9.5 -11.65 M-36.9 -10.5 L-35.5 -11.15 -30.55 -0.95 -25.2 -12.3 -30.8 -23.9 -36.9 -10.5 M-23.4 -40.3 L-29.1 -27.7 -23.45 -16.0 -17.6 -28.3 -23.4 -40.3 M-8.15 -40.7 L-14.05 -28.35 -7.7 -15.3 -1.8 -27.55 -8.15 -40.7 M1.75 35.85 L7.2 47.05 13.1 34.85 7.7 23.65 1.75 35.85 M5.9 20.0 L0.0 7.85 -5.95 20.0 0.0 32.2 5.9 20.0 M15.4 7.8 L9.45 20.0 14.9 31.2 20.8 19.0 15.4 7.8 M1.75 4.2 L7.7 16.35 13.6 4.15 7.7 -8.0 1.75 4.2 M22.6 15.35 L28.75 2.7 23.35 -8.6 17.15 4.15 22.6 15.35 M35.5 -11.15 L36.9 -10.5 30.8 -23.9 25.15 -12.3 30.55 -0.95 35.5 -11.15 M15.75 -24.65 L9.45 -11.65 15.4 0.5 21.6 -12.3 15.75 -24.65 M5.95 -11.7 L0.0 -23.9 -5.95 -11.7 0.0 0.55 5.95 -11.7 M8.15 -40.7 L1.75 -27.55 7.7 -15.3 14.0 -28.35 8.15 -40.7 M29.1 -27.7 L23.4 -40.3 17.55 -28.3 23.4 -16.0 29.1 -27.7 M2.0 -53.65 L4.9 -55.05 8.2 -48.1 11.05 -54.0 13.9 -52.6 9.95 -44.4 15.8 -32.0 21.65 -44.05 16.35 -55.8 19.25 -57.15 23.5 -47.8 27.5 -56.1 30.4 -54.7 25.2 -44.0 30.9 -31.4 35.9 -41.75 38.8 -40.35 32.6 -27.65 42.6 -5.6 39.7 -4.25 37.75 -8.55 32.3 2.7 39.4 17.75 36.55 19.15 30.5 6.4 24.35 19.0 33.05 36.9 30.15 38.25 22.6 22.65 16.65 34.85 22.7 47.25 19.8 48.65 14.9 38.5 8.95 50.7 11.45 55.75 8.55 57.15 6.25 52.35 4.95 51.7 5.45 50.7 0.0 39.5 -5.45 50.7 -4.95 51.7 -6.25 52.35 -8.6 57.15 -11.45 55.75 -9.0 50.7 -14.9 38.5 -19.85 48.65 -22.7 47.25 -16.7 34.85 -22.6 22.65 -30.2 38.25 -33.05 36.9 -24.4 19.0 -30.5 6.4 -36.55 19.15 -39.45 17.75 -32.3 2.7 -37.8 -8.55 -39.75 -4.25 -42.65 -5.6 -32.65 -27.65 -38.8 -40.35 -35.95 -41.75 -30.9 -31.4 -25.2 -44.0 -30.4 -54.7 -27.55 -56.1 -23.5 -47.8 -19.25 -57.15 -16.35 -55.8 -21.7 -44.05 -15.85 -32.0 -9.95 -44.4 -13.95 -52.6 -11.05 -54.0 -8.2 -48.1 -4.9 -55.05 -2.0 -53.65 -6.4 -44.4 0.0 -31.2 6.4 -44.4 2.0 -53.65" fill="#ffffff" fill-opacity="0.0" fill-rule="evenodd" stroke="none"/>
    <path d="M2.0 -53.65 L6.4 -44.4 0.0 -31.2 -6.4 -44.4 -2.0 -53.65 -4.9 -55.05 -8.2 -48.1 -11.05 -54.0 -13.95 -52.6 -9.95 -44.4 -15.85 -32.0 -21.7 -44.05 -16.35 -55.8 -19.25 -57.15 -23.5 -47.8 -27.55 -56.1 -30.4 -54.7 -25.2 -44.0 -30.9 -31.4 -35.95 -41.75 -38.8 -40.35 -32.65 -27.65 -42.65 -5.6 -39.75 -4.25 -37.8 -8.55 -32.3 2.7 -39.45 17.75 -36.55 19.15 -30.5 6.4 -24.4 19.0 -33.05 36.9 -30.2 38.25 -22.6 22.65 -16.7 34.85 -22.7 47.25 -19.85 48.65 -14.9 38.5 -9.0 50.7 -11.45 55.75 -8.6 57.15 -6.25 52.35 -4.95 51.7 -5.45 50.7 0.0 39.5 5.45 50.7 4.95 51.7 6.25 52.35 8.55 57.15 11.45 55.75 8.95 50.7 14.9 38.5 19.8 48.65 22.7 47.25 16.65 34.85 22.6 22.65 30.15 38.25 33.05 36.9 24.35 19.0 30.5 6.4 36.55 19.15 39.4 17.75 32.3 2.7 37.75 -8.55 39.7 -4.25 42.6 -5.6 32.6 -27.65 38.8 -40.35 35.9 -41.75 30.9 -31.4 25.2 -44.0 30.4 -54.7 27.5 -56.1 23.5 -47.8 19.25 -57.15 16.35 -55.8 21.65 -44.05 15.8 -32.0 9.95 -44.4 13.9 -52.6 11.05 -54.0 8.2 -48.1 4.9 -55.05 2.0 -53.65 M29.1 -27.7 L23.4 -16.0 17.55 -28.3 23.4 -40.3 29.1 -27.7 M8.15 -40.7 L14.0 -28.35 7.7 -15.3 1.75 -27.55 8.15 -40.7 M5.95 -11.7 L0.0 0.55 -5.95 -11.7 0.0 -23.9 5.95 -11.7 M15.75 -24.65 L21.6 -12.3 15.4 0.5 9.45 -11.65 15.75 -24.65 M35.5 -11.15 L30.55 -0.95 25.15 -12.3 30.8 -23.9 36.9 -10.5 35.5 -11.15 M22.6 15.35 L17.15 4.15 23.35 -8.6 28.75 2.7 22.6 15.35 M1.75 4.2 L7.7 -8.0 13.6 4.15 7.7 16.35 1.75 4.2 M15.4 7.8 L20.8 19.0 14.9 31.2 9.45 20.0 15.4 7.8 M5.9 20.0 L0.0 32.2 -5.95 20.0 0.0 7.85 5.9 20.0 M1.75 35.85 L7.7 23.65 13.1 34.85 7.2 47.05 1.75 35.85 M-8.15 -40.7 L-1.8 -27.55 -7.7 -15.3 -14.05 -28.35 -8.15 -40.7 M-23.4 -40.3 L-17.6 -28.3 -23.45 -16.0 -29.1 -27.7 -23.4 -40.3 M-36.9 -10.5 L-30.8 -23.9 -25.2 -12.3 -30.55 -0.95 -35.5 -11.15 -36.9 -10.5 M-9.5 -11.65 L-15.4 0.5 -21.65 -12.3 -15.8 -24.65 -9.5 -11.65 M-13.65 4.15 L-7.7 -8.0 -1.8 4.2 -7.7 16.35 -13.65 4.15 M-9.45 20.0 L-14.9 31.2 -20.85 19.0 -15.4 7.8 -9.45 20.0 M-28.75 2.7 L-23.4 -8.6 -17.2 4.15 -22.6 15.35 -28.75 2.7 M-13.15 34.85 L-7.7 23.65 -1.8 35.85 -7.2 47.05 -13.15 34.85" fill="none" stroke="#000000" stroke-linecap="butt" stroke-linejoin="miter-clip" stroke-miterlimit="10.0" stroke-opacity="0.6" stroke-width="1.0"/>
  </g>
</svg>
