<?xml version="1.0" encoding="UTF-8" standalone="no"?>
<svg xmlns:xlink="http://www.w3.org/1999/xlink" height="97.8px" width="18.4px" xmlns="http://www.w3.org/2000/svg">
  <g transform="matrix(1.0, 0.0, 0.0, 1.0, 9.5, 48.9)">
    <path d="M1.25 -47.0 L2.7 -44.9 8.4 47.8 6.6 48.4 5.65 48.35 Q4.45 48.1 3.3 47.2 L2.8 45.8 Q2.2 44.5 1.8 45.1 1.4 45.75 0.85 43.6 0.3 41.55 0.3 39.7 0.0 -0.5 0.6 -5.0 1.0 -7.85 -2.6 -22.75 L-6.3 -37.1 -8.4 -42.8 -5.7 -40.4 -7.2 -44.9 -6.35 -44.4 -4.2 -44.3 Q-3.3 -44.6 -3.5 -44.8 -4.2 -45.35 -4.2 -46.4 -4.2 -47.75 -2.7 -46.75 L-1.2 -45.5 -0.45 -46.4 Q0.2 -47.45 0.0 -48.2 -0.15 -48.95 1.25 -47.0 M4.2 40.7 L3.6 40.65 3.25 23.05 2.15 44.6 Q2.9 44.7 3.6 47.0 4.95 48.1 6.3 48.1 L6.55 48.1 8.1 47.55 6.0 13.15 Q5.15 23.0 4.2 40.7" fill="#ffffff" fill-opacity="0.0" fill-rule="evenodd" stroke="none"/>
    <path d="M4.2 40.7 Q5.15 23.0 6.0 13.15 L8.1 47.55 6.55 48.1 6.3 48.1 Q4.95 48.1 3.6 47.0 2.9 44.7 2.15 44.6 L3.25 23.05 3.6 40.65 4.2 40.7" fill="#000000" fill-opacity="0.4" fill-rule="evenodd" stroke="none"/>
    <path d="M1.25 -47.0 Q-0.15 -48.95 0.0 -48.2 0.2 -47.45 -0.45 -46.4 L-1.2 -45.5 -2.7 -46.75 Q-4.2 -47.75 -4.2 -46.4 -4.2 -45.35 -3.5 -44.8 -3.3 -44.6 -4.2 -44.3 L-6.35 -44.4 -7.2 -44.9 -5.7 -40.4 -8.4 -42.8 -6.3 -37.1 -2.6 -22.75 Q1.0 -7.85 0.6 -5.0 0.0 -0.5 0.3 39.7 0.3 41.55 0.85 43.6 1.4 45.75 1.8 45.1 2.2 44.5 2.8 45.8 L3.3 47.2 Q4.45 48.1 5.65 48.35 L6.6 48.4 8.4 47.8 2.7 -44.9 1.25 -47.0 Z" fill="none" stroke="#000000" stroke-linecap="butt" stroke-linejoin="miter-clip" stroke-miterlimit="10.0" stroke-width="1.0"/>
  </g>
</svg>
