<?xml version="1.0" encoding="UTF-8" standalone="no"?>
<svg xmlns:xlink="http://www.w3.org/1999/xlink" height="190.75px" width="135.05px" xmlns="http://www.w3.org/2000/svg">
  <g transform="matrix(1.0, 0.0, 0.0, 1.0, 67.55, 95.35)">
    <path d="M55.65 90.5 L55.65 94.9 41.35 94.9 41.35 90.5 55.65 90.5 M-43.05 90.5 L-43.05 94.9 -57.35 94.9 -57.35 90.5 -43.05 90.5 M1.65 -81.2 Q3.15 -80.85 4.35 -79.7 6.0 -78.0 6.0 -75.65 6.0 -73.3 4.35 -71.65 2.65 -70.0 0.3 -70.0 -2.05 -70.0 -3.7 -71.65 -4.9 -72.8 -5.25 -74.3 L-4.15 -72.8 Q-2.65 -71.25 -0.45 -71.25 1.65 -71.25 3.2 -72.8 4.7 -74.3 4.7 -76.45 4.7 -78.6 3.2 -80.1 L1.65 -81.2 M-52.95 -6.4 L-53.0 -8.1 Q-53.0 -18.9 -48.85 -28.75 -44.8 -38.25 -37.45 -45.6 -30.1 -52.95 -20.6 -57.0 -10.75 -61.15 0.05 -61.15 10.85 -61.15 20.7 -57.0 30.25 -52.95 37.6 -45.6 44.95 -38.25 48.95 -28.75 53.1 -18.9 53.1 -8.1 L53.1 -6.4 53.1 -4.7 Q53.1 6.1 48.95 16.0 44.95 25.5 37.6 32.85 22.05 48.4 0.05 48.4 -10.75 48.4 -20.6 44.2 -30.1 40.2 -37.45 32.85 -44.8 25.5 -48.85 16.0 -53.0 6.1 -53.0 -4.7 L-52.95 -6.4 Q-52.65 3.5 -48.85 12.55 -44.8 22.1 -37.45 29.45 -30.1 36.8 -20.6 40.8 -10.75 44.95 0.05 44.95 22.05 44.95 37.6 29.45 44.95 22.1 48.95 12.55 52.75 3.5 53.1 -6.4 52.75 3.5 48.95 12.55 44.95 22.1 37.6 29.45 22.05 44.95 0.05 44.95 -10.75 44.95 -20.6 40.8 -30.1 36.8 -37.45 29.45 -44.8 22.1 -48.85 12.55 -52.65 3.5 -52.95 -6.4 M30.45 -11.0 Q29.6 -2.95 31.4 1.15 32.95 4.6 30.9 10.5 26.1 18.45 18.0 23.1 9.7 27.9 0.05 27.9 -14.85 27.9 -25.4 17.35 -35.95 6.85 -35.95 -8.1 -35.95 -23.0 -25.4 -33.55 -14.85 -44.1 0.05 -44.1 9.75 -44.1 18.15 -39.25 26.25 -34.55 31.0 -26.5 32.0 -23.45 31.8 -20.8 L30.45 -11.0 M43.65 -8.1 Q43.65 -26.15 30.9 -38.9 18.1 -51.65 0.05 -51.65 -18.0 -51.65 -30.75 -38.9 -43.5 -26.15 -43.5 -8.1 -43.5 9.95 -30.75 22.7 -18.0 35.45 0.05 35.45 16.65 35.45 29.0 24.45 41.25 13.55 43.25 -2.7 L43.4 -2.9 43.35 -3.35 43.65 -8.1 M62.25 77.85 L66.7 77.85 66.7 90.15 62.25 90.15 20.25 90.15 -66.75 90.15 -66.75 82.5 -66.75 77.85 20.25 77.85 62.25 77.85 62.25 90.15 62.25 77.85 M20.25 77.85 L20.25 90.15 20.25 77.85 M-29.3 -81.05 L-58.65 -81.05 -58.9 -81.35 -29.1 -81.35 -29.3 -81.05 M-58.2 -80.45 Q-48.6 -72.4 -38.1 -75.8 -33.1 -77.4 -29.7 -80.45 -33.1 -75.85 -38.1 -73.45 -48.6 -68.45 -58.2 -80.45 M19.65 82.5 L-66.75 82.5 19.65 82.5" fill="#000000" fill-opacity="0.2" fill-rule="evenodd" stroke="none"/>
    <path d="M-57.35 90.5 L-67.05 90.5 -67.05 -63.95 -67.05 -88.15 -67.05 -94.85 67.0 -94.85 67.0 -88.15 67.0 -63.95 67.0 90.5 55.65 90.5 41.35 90.5 -43.05 90.5 -57.35 90.5 M34.4 -77.6 L31.95 -77.6 31.95 -76.8 34.4 -76.8 34.4 -77.6 34.4 -76.8 31.95 -76.8 31.95 -77.6 34.4 -77.6 M21.15 -79.25 L21.15 -80.1 8.35 -80.1 8.35 -79.25 21.15 -79.25 8.35 -79.25 8.35 -80.1 21.15 -80.1 21.15 -79.25 M21.15 -76.8 L21.15 -77.6 8.35 -77.6 8.35 -76.8 21.15 -76.8 8.35 -76.8 8.35 -77.6 21.15 -77.6 21.15 -76.8 M27.75 -77.6 L25.3 -77.6 25.3 -76.8 27.75 -76.8 27.75 -77.6 27.75 -76.8 25.3 -76.8 25.3 -77.6 27.75 -77.6 M50.1 -73.9 L47.55 -74.2 Q46.75 -80.4 55.65 -81.35 L64.65 -81.05 Q64.2 -75.0 55.85 -74.0 53.25 -73.7 50.1 -73.9 53.25 -73.7 55.85 -74.0 64.2 -75.0 64.65 -81.05 L55.65 -81.35 Q46.75 -80.4 47.55 -74.2 L50.1 -73.9 M41.45 -76.8 L41.45 -77.6 38.95 -77.6 38.95 -76.8 41.45 -76.8 38.95 -76.8 38.95 -77.6 41.45 -77.6 41.45 -76.8 M-5.25 -74.3 Q-4.9 -72.8 -3.7 -71.65 -2.05 -70.0 0.3 -70.0 2.65 -70.0 4.35 -71.65 6.0 -73.3 6.0 -75.65 6.0 -78.0 4.35 -79.7 3.15 -80.85 1.65 -81.2 L-0.45 -81.65 Q-2.65 -81.65 -4.15 -80.1 -5.7 -78.6 -5.7 -76.45 -5.7 -75.3 -5.25 -74.3 -5.7 -75.3 -5.7 -76.45 -5.7 -78.6 -4.15 -80.1 -2.65 -81.65 -0.45 -81.65 L1.65 -81.2 3.2 -80.1 Q4.7 -78.6 4.7 -76.45 4.7 -74.3 3.2 -72.8 1.65 -71.25 -0.45 -71.25 -2.65 -71.25 -4.15 -72.8 L-5.25 -74.3 M19.65 -71.75 Q19.35 -71.45 19.35 -71.1 19.35 -70.7 19.65 -70.4 19.95 -70.1 20.3 -70.1 20.7 -70.1 21.0 -70.4 L21.3 -71.1 21.0 -71.75 20.3 -72.05 Q19.95 -72.05 19.65 -71.75 M3.45 -76.45 Q3.45 -78.05 2.3 -79.25 1.2 -80.4 -0.45 -80.4 -2.1 -80.4 -3.3 -79.25 -4.45 -78.05 -4.45 -76.45 -4.45 -74.8 -3.3 -73.65 -2.1 -72.5 -0.45 -72.5 1.2 -72.5 2.3 -73.65 3.45 -74.8 3.45 -76.45 M19.2 -72.2 Q18.7 -71.75 18.7 -71.1 18.7 -70.4 19.2 -69.95 19.65 -69.45 20.3 -69.45 21.0 -69.45 21.45 -69.95 21.95 -70.4 21.95 -71.1 21.95 -71.75 21.45 -72.2 21.0 -72.7 20.3 -72.7 19.65 -72.7 19.2 -72.2 19.65 -72.7 20.3 -72.7 21.0 -72.7 21.45 -72.2 21.95 -71.75 21.95 -71.1 21.95 -70.4 21.45 -69.95 21.0 -69.45 20.3 -69.45 19.65 -69.45 19.2 -69.95 18.7 -70.4 18.7 -71.1 18.7 -71.75 19.2 -72.2 M37.55 -71.75 L36.9 -72.05 36.15 -71.75 Q35.9 -71.5 35.9 -71.1 35.9 -70.7 36.15 -70.4 36.45 -70.1 36.9 -70.1 37.25 -70.1 37.55 -70.4 L37.8 -71.1 37.55 -71.75 M36.85 -73.0 Q36.0 -73.0 35.45 -72.45 34.9 -71.9 34.9 -71.1 34.9 -70.25 35.45 -69.7 36.0 -69.15 36.85 -69.15 37.65 -69.15 38.25 -69.7 38.8 -70.25 38.8 -71.1 38.8 -71.9 38.25 -72.45 37.65 -73.0 36.85 -73.0 37.65 -73.0 38.25 -72.45 38.8 -71.9 38.8 -71.1 38.8 -70.25 38.25 -69.7 37.65 -69.15 36.85 -69.15 36.0 -69.15 35.45 -69.7 34.9 -70.25 34.9 -71.1 34.9 -71.9 35.45 -72.45 36.0 -73.0 36.85 -73.0 M26.1 -71.1 L25.8 -71.75 Q25.55 -72.05 25.15 -72.05 24.75 -72.05 24.45 -71.75 24.15 -71.45 24.15 -71.1 24.15 -70.7 24.45 -70.4 24.75 -70.1 25.15 -70.1 25.55 -70.1 25.8 -70.4 L26.1 -71.1 M26.85 -71.1 Q26.85 -71.75 26.4 -72.2 25.9 -72.7 25.2 -72.7 24.55 -72.7 24.05 -72.2 23.55 -71.75 23.55 -71.1 23.55 -70.4 24.05 -69.95 24.55 -69.45 25.2 -69.45 25.9 -69.45 26.4 -69.95 26.85 -70.4 26.85 -71.1 26.85 -70.4 26.4 -69.95 25.9 -69.45 25.2 -69.45 24.55 -69.45 24.05 -69.95 23.55 -70.4 23.55 -71.1 23.55 -71.75 24.05 -72.2 24.55 -72.7 25.2 -72.7 25.9 -72.7 26.4 -72.2 26.85 -71.75 26.85 -71.1 M53.1 -6.4 L53.1 -8.1 Q53.1 -18.9 48.95 -28.75 44.95 -38.25 37.6 -45.6 30.25 -52.95 20.7 -57.0 10.85 -61.15 0.05 -61.15 -10.75 -61.15 -20.6 -57.0 -30.1 -52.95 -37.45 -45.6 -44.8 -38.25 -48.85 -28.75 -53.0 -18.9 -53.0 -8.1 L-52.95 -6.4 -53.0 -4.7 Q-53.0 6.1 -48.85 16.0 -44.8 25.5 -37.45 32.85 -30.1 40.2 -20.6 44.2 -10.75 48.4 0.05 48.4 22.05 48.4 37.6 32.85 44.95 25.5 48.95 16.0 53.1 6.1 53.1 -4.7 L53.1 -6.4 M62.25 77.85 L62.25 74.8 62.05 73.75 Q61.5 72.6 59.95 72.1 L22.5 72.1 Q21.0 72.6 20.45 73.75 L20.25 74.75 20.25 77.85 20.25 74.75 20.45 73.75 Q21.0 72.6 22.5 72.1 L59.95 72.1 Q61.5 72.6 62.05 73.75 L62.25 74.8 62.25 77.85 20.25 77.85 -66.75 77.85 -66.75 82.5 -66.75 90.15 20.25 90.15 62.25 90.15 66.7 90.15 66.7 77.85 62.25 77.85 M-29.3 -81.05 L-29.1 -81.05 -29.7 -80.45 -29.1 -81.05 -29.3 -81.05 -29.1 -81.35 -58.9 -81.35 -58.65 -81.05 -29.3 -81.05 M-58.2 -80.45 L-58.9 -81.05 -58.65 -81.05 -58.9 -81.05 -58.2 -80.45 Q-48.6 -68.45 -38.1 -73.45 -33.1 -75.85 -29.7 -80.45 -33.1 -77.4 -38.1 -75.8 -48.6 -72.4 -58.2 -80.45 M-8.3 -72.1 L-9.0 -71.8 -9.3 -71.1 -9.0 -70.4 Q-8.7 -70.1 -8.3 -70.1 -7.9 -70.1 -7.6 -70.4 -7.3 -70.7 -7.3 -71.1 -7.3 -71.5 -7.6 -71.8 -7.9 -72.1 -8.3 -72.1 M-8.3 -73.0 Q-9.15 -73.0 -9.7 -72.45 -10.25 -71.9 -10.25 -71.1 -10.25 -70.25 -9.7 -69.7 -9.15 -69.15 -8.3 -69.15 -7.5 -69.15 -6.9 -69.7 -6.35 -70.25 -6.35 -71.1 -6.35 -71.9 -6.9 -72.45 -7.5 -73.0 -8.3 -73.0 -7.5 -73.0 -6.9 -72.45 -6.35 -71.9 -6.35 -71.1 -6.35 -70.25 -6.9 -69.7 -7.5 -69.15 -8.3 -69.15 -9.15 -69.15 -9.7 -69.7 -10.25 -70.25 -10.25 -71.1 -10.25 -71.9 -9.7 -72.45 -9.15 -73.0 -8.3 -73.0 M-67.05 -63.95 L67.0 -63.95 -67.05 -63.95 M-21.35 -88.15 L-67.05 -88.15 -21.35 -88.15 67.0 -88.15 -21.35 -88.15 -21.35 -64.25 -21.35 -88.15" fill="#ffffff" fill-opacity="0.0" fill-rule="evenodd" stroke="none"/>
    <path d="M3.45 -76.45 Q3.45 -74.8 2.3 -73.65 1.2 -72.5 -0.45 -72.5 -2.1 -72.5 -3.3 -73.65 -4.45 -74.8 -4.45 -76.45 -4.45 -78.05 -3.3 -79.25 -2.1 -80.4 -0.45 -80.4 1.2 -80.4 2.3 -79.25 3.45 -78.05 3.45 -76.45 M19.65 -71.75 Q19.95 -72.05 20.3 -72.05 L21.0 -71.75 21.3 -71.1 21.0 -70.4 Q20.7 -70.1 20.3 -70.1 19.95 -70.1 19.65 -70.4 19.35 -70.7 19.35 -71.1 19.35 -71.45 19.65 -71.75 M37.55 -71.75 L37.8 -71.1 37.55 -70.4 Q37.25 -70.1 36.9 -70.1 36.45 -70.1 36.15 -70.4 35.9 -70.7 35.9 -71.1 35.9 -71.5 36.15 -71.75 L36.9 -72.05 37.55 -71.75 M26.1 -71.1 L25.8 -70.4 Q25.55 -70.1 25.15 -70.1 24.75 -70.1 24.45 -70.4 24.15 -70.7 24.15 -71.1 24.15 -71.45 24.45 -71.75 24.75 -72.05 25.15 -72.05 25.55 -72.05 25.8 -71.75 L26.1 -71.1 M30.45 -11.0 L31.8 -20.8 Q32.0 -23.45 31.0 -26.5 26.25 -34.55 18.15 -39.25 9.75 -44.1 0.05 -44.1 -14.85 -44.1 -25.4 -33.55 -35.95 -23.0 -35.95 -8.1 -35.95 6.85 -25.4 17.35 -14.85 27.9 0.05 27.9 9.7 27.9 18.0 23.1 26.1 18.45 30.9 10.5 32.95 4.6 31.4 1.15 29.6 -2.95 30.45 -11.0 M0.05 -48.75 Q16.9 -48.75 28.8 -36.85 40.7 -24.95 40.7 -8.1 L40.5 -3.65 40.5 -3.2 40.4 -3.05 Q38.5 12.1 27.05 22.3 15.5 32.55 0.05 32.55 -16.8 32.55 -28.65 20.65 -40.6 8.75 -40.6 -8.1 -40.6 -24.95 -28.65 -36.85 -16.8 -48.75 0.05 -48.75 M-8.3 -72.1 Q-7.9 -72.1 -7.6 -71.8 -7.3 -71.5 -7.3 -71.1 -7.3 -70.7 -7.6 -70.4 -7.9 -70.1 -8.3 -70.1 -8.7 -70.1 -9.0 -70.4 L-9.3 -71.1 -9.0 -71.8 -8.3 -72.1" fill="#000000" fill-opacity="0.09803922" fill-rule="evenodd" stroke="none"/>
    <path d="M0.05 -48.75 Q-16.8 -48.75 -28.65 -36.85 -40.6 -24.95 -40.6 -8.1 -40.6 8.75 -28.65 20.65 -16.8 32.55 0.05 32.55 15.5 32.55 27.05 22.3 38.5 12.1 40.4 -3.05 L40.5 -3.2 40.5 -3.65 40.7 -8.1 Q40.7 -24.95 28.8 -36.85 16.9 -48.75 0.05 -48.75 M43.65 -8.1 L43.35 -3.35 43.4 -2.9 43.25 -2.7 Q41.25 13.55 29.0 24.45 16.65 35.45 0.05 35.45 -18.0 35.45 -30.75 22.7 -43.5 9.95 -43.5 -8.1 -43.5 -26.15 -30.75 -38.9 -18.0 -51.65 0.05 -51.65 18.1 -51.65 30.9 -38.9 43.65 -26.15 43.65 -8.1" fill="#000000" fill-opacity="0.29803923" fill-rule="evenodd" stroke="none"/>
    <path d="M-57.35 90.5 L-67.05 90.5 -67.05 -63.95 -67.05 -88.15 -67.05 -94.85 67.0 -94.85 67.0 -88.15 67.0 -63.95 67.0 90.5 55.65 90.5 55.65 94.9 41.35 94.9 41.35 90.5 -43.05 90.5 -43.05 94.9 -57.35 94.9 -57.35 90.5 -43.05 90.5 M41.45 -76.8 L38.95 -76.8 38.95 -77.6 41.45 -77.6 41.45 -76.8 M50.1 -73.9 Q53.25 -73.7 55.85 -74.0 64.2 -75.0 64.65 -81.05 L55.65 -81.35 Q46.75 -80.4 47.55 -74.2 L50.1 -73.9 M27.75 -77.6 L27.75 -76.8 25.3 -76.8 25.3 -77.6 27.75 -77.6 M21.15 -76.8 L8.35 -76.8 8.35 -77.6 21.15 -77.6 21.15 -76.8 M21.15 -79.25 L8.35 -79.25 8.35 -80.1 21.15 -80.1 21.15 -79.25 M34.4 -77.6 L34.4 -76.8 31.95 -76.8 31.95 -77.6 34.4 -77.6 M-5.25 -74.3 Q-5.7 -75.3 -5.7 -76.45 -5.7 -78.6 -4.15 -80.1 -2.65 -81.65 -0.45 -81.65 L1.65 -81.2 3.2 -80.1 Q4.7 -78.6 4.7 -76.45 4.7 -74.3 3.2 -72.8 1.65 -71.25 -0.45 -71.25 -2.65 -71.25 -4.15 -72.8 L-5.25 -74.3 M19.2 -72.2 Q19.65 -72.7 20.3 -72.7 21.0 -72.7 21.45 -72.2 21.95 -71.75 21.95 -71.1 21.95 -70.4 21.45 -69.95 21.0 -69.45 20.3 -69.45 19.65 -69.45 19.2 -69.95 18.7 -70.4 18.7 -71.1 18.7 -71.75 19.2 -72.2 M36.85 -73.0 Q37.65 -73.0 38.25 -72.45 38.8 -71.9 38.8 -71.1 38.8 -70.25 38.25 -69.7 37.65 -69.15 36.85 -69.15 36.0 -69.15 35.45 -69.7 34.9 -70.25 34.9 -71.1 34.9 -71.9 35.45 -72.45 36.0 -73.0 36.85 -73.0 M26.85 -71.1 Q26.85 -70.4 26.4 -69.95 25.9 -69.45 25.2 -69.45 24.55 -69.45 24.05 -69.95 23.55 -70.4 23.55 -71.1 23.55 -71.75 24.05 -72.2 24.55 -72.7 25.2 -72.7 25.9 -72.7 26.4 -72.2 26.85 -71.75 26.85 -71.1 M-52.95 -6.4 L-53.0 -8.1 Q-53.0 -18.9 -48.85 -28.75 -44.8 -38.25 -37.45 -45.6 -30.1 -52.95 -20.6 -57.0 -10.75 -61.15 0.05 -61.15 10.85 -61.15 20.7 -57.0 30.25 -52.95 37.6 -45.6 44.95 -38.25 48.95 -28.75 53.1 -18.9 53.1 -8.1 L53.1 -6.4 Q52.75 3.5 48.95 12.55 44.95 22.1 37.6 29.45 22.05 44.95 0.05 44.95 -10.75 44.95 -20.6 40.8 -30.1 36.8 -37.45 29.45 -44.8 22.1 -48.85 12.55 -52.65 3.5 -52.95 -6.4 M0.05 -48.75 Q-16.8 -48.75 -28.65 -36.85 -40.6 -24.95 -40.6 -8.1 -40.6 8.75 -28.65 20.65 -16.8 32.55 0.05 32.55 15.5 32.55 27.05 22.3 38.5 12.1 40.4 -3.05 L40.5 -3.2 40.5 -3.65 40.7 -8.1 Q40.7 -24.95 28.8 -36.85 16.9 -48.75 0.05 -48.75 M55.65 90.5 L41.35 90.5 M-29.7 -80.45 L-29.1 -81.05 -29.3 -81.05 -58.65 -81.05 -58.9 -81.05 -58.2 -80.45 Q-48.6 -72.4 -38.1 -75.8 -33.1 -77.4 -29.7 -80.45 M-8.3 -73.0 Q-7.5 -73.0 -6.9 -72.45 -6.35 -71.9 -6.35 -71.1 -6.35 -70.25 -6.9 -69.7 -7.5 -69.15 -8.3 -69.15 -9.15 -69.15 -9.7 -69.7 -10.25 -70.25 -10.25 -71.1 -10.25 -71.9 -9.7 -72.45 -9.15 -73.0 -8.3 -73.0" fill="none" stroke="#000000" stroke-linecap="butt" stroke-linejoin="miter-clip" stroke-miterlimit="10.0" stroke-width="1.0"/>
    <path d="M20.25 77.85 L20.25 74.75 20.45 73.75 Q21.0 72.6 22.5 72.1 L59.95 72.1 Q61.5 72.6 62.05 73.75 L62.25 74.8 62.25 77.85 62.25 90.15 M20.25 90.15 L20.25 77.85 M67.0 -88.15 L-21.35 -88.15 -21.35 -64.25 M-67.05 -88.15 L-21.35 -88.15 M67.0 -63.95 L-67.05 -63.95 M-66.75 82.5 L19.65 82.5" fill="none" stroke="#000000" stroke-linecap="butt" stroke-linejoin="miter-clip" stroke-miterlimit="10.0" stroke-opacity="0.8" stroke-width="1.0"/>
    <path d="M30.45 -11.0 Q29.6 -2.95 31.4 1.15 32.95 4.6 30.9 10.5 26.1 18.45 18.0 23.1 9.7 27.9 0.05 27.9 -14.85 27.9 -25.4 17.35 -35.95 6.85 -35.95 -8.1 -35.95 -23.0 -25.4 -33.55 -14.85 -44.1 0.05 -44.1 9.75 -44.1 18.15 -39.25 26.25 -34.55 31.0 -26.5 32.0 -23.45 31.8 -20.8 L30.45 -11.0" fill="none" stroke="#000000" stroke-linecap="butt" stroke-linejoin="miter-clip" stroke-miterlimit="10.0" stroke-opacity="0.6" stroke-width="1.0"/>
    <path d="M52.3 -8.1 Q52.3 13.55 37.0 28.85 21.7 44.15 0.05 44.15 -10.55 44.15 -20.25 40.0 -29.65 36.1 -36.9 28.85 -52.2 13.55 -52.2 -8.1 -52.2 -29.75 -36.9 -45.05 -21.6 -60.35 0.05 -60.35 21.7 -60.35 37.0 -45.05 44.25 -37.8 48.2 -28.4 52.3 -18.7 52.3 -8.1 Z" fill="none" stroke="#ffffff" stroke-linecap="butt" stroke-linejoin="miter-clip" stroke-miterlimit="10.0" stroke-width="1.0"/>
  </g>
</svg>
