<?xml version="1.0" encoding="UTF-8" standalone="no"?>
<svg xmlns:xlink="http://www.w3.org/1999/xlink" height="339.85px" width="229.85px" xmlns="http://www.w3.org/2000/svg">
  <g transform="matrix(1.0, 0.0, 0.0, 1.0, 114.9, 169.95)">
    <path d="M76.65 122.85 L76.65 -168.75 75.3 -168.75 75.3 122.85 73.95 122.85 75.3 122.85 75.3 167.4 76.65 167.4 76.65 122.85 114.45 122.85 114.45 169.4 -114.4 169.4 -114.4 -169.45 114.45 -169.45 114.45 122.85 76.65 122.85" fill="#ffffff" fill-opacity="0.0" fill-rule="evenodd" stroke="none"/>
    <path d="M75.3 122.85 L75.3 -168.75 76.65 -168.75 76.65 122.85 76.65 167.4 75.3 167.4 75.3 122.85" fill="#ffffff" fill-rule="evenodd" stroke="none"/>
    <path d="M114.45 122.85 L114.45 -169.45 -114.4 -169.45 -114.4 169.4 114.45 169.4 114.45 122.85" fill="none" stroke="#000000" stroke-linecap="butt" stroke-linejoin="miter-clip" stroke-miterlimit="10.0" stroke-width="1.0"/>
    <path d="M76.65 122.85 L114.45 122.85 M75.3 122.85 L73.95 122.85" fill="none" stroke="#000000" stroke-linecap="butt" stroke-linejoin="miter-clip" stroke-miterlimit="10.0" stroke-opacity="0.6" stroke-width="1.0"/>
  </g>
</svg>
