<?xml version="1.0" encoding="UTF-8" standalone="no"?>
<svg xmlns:xlink="http://www.w3.org/1999/xlink" height="17.1px" width="16.0px" xmlns="http://www.w3.org/2000/svg">
  <g transform="matrix(1.0, 0.0, 0.0, 1.0, 8.0, 9.1)">
    <path d="M3.65 -4.15 L3.9 -3.9 4.2 -3.6 5.45 -4.85 4.9 -5.4 3.65 -4.15 M0.4 -5.5 L0.4 -7.3 -0.4 -7.3 -0.4 -5.5 0.0 -5.55 0.4 -5.5 M5.5 -0.35 L5.5 0.0 5.5 0.45 7.35 0.45 7.35 -0.35 5.5 -0.35 M5.3 -5.3 Q7.5 -3.1 7.5 0.0 7.5 3.1 5.3 5.3 3.1 7.5 0.0 7.5 -3.15 7.5 -5.35 5.3 -7.5 3.1 -7.5 0.0 -7.5 -3.1 -5.35 -5.3 -3.15 -7.5 0.0 -7.5 3.1 -7.5 5.3 -5.3 M3.9 3.95 L3.6 4.25 4.9 5.55 5.45 4.95 4.2 3.7 3.9 3.95 M0.0 5.55 L-0.4 5.55 -0.4 7.4 0.4 7.4 0.4 5.55 0.0 5.55 M-3.95 -3.9 L-3.65 -4.15 -4.95 -5.4 -5.5 -4.85 -4.25 -3.6 -3.95 -3.9 M-7.4 -0.35 L-7.4 0.45 -5.5 0.45 -5.55 0.0 -5.55 -0.35 -7.4 -0.35 M-4.2 3.7 L-5.5 4.95 -4.95 5.55 -3.6 4.25 -3.95 3.95 -4.2 3.7" fill="#ffffff" fill-opacity="0.0" fill-rule="evenodd" stroke="none"/>
    <path d="M5.5 -0.35 L7.35 -0.35 7.35 0.45 5.5 0.45 5.5 0.0 5.5 -0.35 M0.4 -5.5 L0.0 -5.55 -0.4 -5.5 -0.4 -7.3 0.4 -7.3 0.4 -5.5 M3.65 -4.15 L4.9 -5.4 5.45 -4.85 4.2 -3.6 3.9 -3.9 3.65 -4.15 M-4.2 3.7 L-3.95 3.95 -3.6 4.25 -4.95 5.55 -5.5 4.95 -4.2 3.7 M-7.4 -0.35 L-5.55 -0.35 -5.55 0.0 -5.5 0.45 -7.4 0.45 -7.4 -0.35 M-3.95 -3.9 L-4.25 -3.6 -5.5 -4.85 -4.95 -5.4 -3.65 -4.15 -3.95 -3.9 M0.0 5.55 L0.4 5.55 0.4 7.4 -0.4 7.4 -0.4 5.55 0.0 5.55 M3.9 3.95 L4.2 3.7 5.45 4.95 4.9 5.55 3.6 4.25 3.9 3.95" fill="#ffffff" fill-rule="evenodd" stroke="none"/>
    <path d="M5.3 -5.3 Q7.5 -3.1 7.5 0.0 7.5 3.1 5.3 5.3 3.1 7.5 0.0 7.5 -3.15 7.5 -5.35 5.3 -7.5 3.1 -7.5 0.0 -7.5 -3.1 -5.35 -5.3 -3.15 -7.5 0.0 -7.5 3.1 -7.5 5.3 -5.3 Z" fill="none" stroke="#000000" stroke-linecap="butt" stroke-linejoin="miter-clip" stroke-miterlimit="10.0" stroke-opacity="0.8" stroke-width="1.0"/>
  </g>
</svg>
