<?xml version="1.0" encoding="UTF-8" standalone="no"?>
<svg xmlns:xlink="http://www.w3.org/1999/xlink" height="12.0px" width="3.8px" xmlns="http://www.w3.org/2000/svg">
  <g transform="matrix(1.0, 0.0, 0.0, 1.0, 1.9, 6.0)">
    <path d="M1.0 -3.9 Q1.4 -2.3 1.4 0.0 1.4 2.3 1.0 3.9 0.6 5.5 0.0 5.5 -0.55 5.5 -1.0 3.9 -1.4 2.25 -1.4 0.0 -1.4 -2.25 -1.0 -3.9 -0.55 -5.5 0.0 -5.5 0.6 -5.5 1.0 -3.9" fill="#ffffff" fill-opacity="0.0" fill-rule="evenodd" stroke="none"/>
    <path d="M1.0 -3.9 Q1.4 -2.3 1.4 0.0 1.4 2.3 1.0 3.9 0.6 5.5 0.0 5.5 -0.55 5.5 -1.0 3.9 -1.4 2.25 -1.4 0.0 -1.4 -2.25 -1.0 -3.9 -0.55 -5.5 0.0 -5.5 0.6 -5.5 1.0 -3.9 Z" fill="none" stroke="#000000" stroke-linecap="butt" stroke-linejoin="miter-clip" stroke-miterlimit="10.0" stroke-opacity="0.4" stroke-width="1.0"/>
    <path d="M-1.15 2.25 L-0.1 -5.2 0.0 -5.45 0.4 -5.2 -1.05 2.9 -1.15 2.25" fill="#ffffff" fill-opacity="0.6" fill-rule="evenodd" stroke="none"/>
    <path d="M-0.2 5.4 L-0.7 4.6 0.9 -3.95 1.15 -2.5 -0.2 5.4" fill="#ffffff" fill-opacity="0.6" fill-rule="evenodd" stroke="none"/>
  </g>
</svg>
