<?xml version="1.0" encoding="UTF-8" standalone="no"?>
<svg xmlns:xlink="http://www.w3.org/1999/xlink" height="142.85px" width="64.0px" xmlns="http://www.w3.org/2000/svg">
  <g transform="matrix(1.0, 0.0, 0.0, 1.0, 31.45, 71.7)">
    <path d="M-25.55 51.8 L-25.0 43.7 Q-24.3 36.4 -22.5 29.65 -27.55 34.1 -28.05 44.8 -28.35 50.8 -27.55 61.9 -32.15 50.85 -30.35 36.4 -28.65 22.95 -22.3 11.9 L-16.65 3.35 Q-13.5 -1.55 -12.65 -6.05 -11.8 -10.45 -11.95 -16.55 L-12.55 -27.15 Q-13.0 -38.2 -11.5 -45.5 -9.7 -54.8 -4.2 -62.2 -0.45 -67.3 4.05 -69.25 8.2 -71.05 14.55 -70.5 21.15 -70.0 24.3 -68.9 29.6 -66.85 30.8 -62.25 29.95 -65.05 20.8 -61.45 12.3 -58.2 10.35 -56.15 6.7 -52.05 3.9 -45.1 1.0 -38.0 1.0 -32.8 L1.65 -19.35 Q2.0 -11.5 1.25 -5.95 0.85 -3.5 0.65 1.95 0.4 7.1 -0.05 9.85 -0.6 12.75 -2.0 17.75 L-3.9 24.8 Q-1.4 12.5 -3.75 4.9 -3.65 9.4 -5.7 14.3 L-9.3 22.9 -9.8 26.3 Q-10.0 28.4 -10.5 29.65 -11.25 31.4 -12.95 34.0 L-15.65 38.1 Q-23.9 52.6 -24.35 68.9 -24.3 55.65 -23.4 49.15 -21.65 35.85 -15.8 28.5 -24.55 35.7 -25.55 51.8" fill="#ffffff" fill-opacity="0.0" fill-rule="evenodd" stroke="none"/>
    <path d="M-3.9 24.8 L-2.0 17.75 Q-0.6 12.75 -0.05 9.85 0.4 7.1 0.65 1.95 0.85 -3.5 1.25 -5.95 2.0 -11.5 1.65 -19.35 L1.0 -32.8 Q1.0 -38.0 3.9 -45.1 6.7 -52.05 10.35 -56.15 12.3 -58.2 20.8 -61.45 29.95 -65.05 30.8 -62.25 29.6 -66.85 24.3 -68.9 21.15 -70.0 14.55 -70.5 8.2 -71.05 4.05 -69.25 -0.45 -67.3 -4.2 -62.2 -9.7 -54.8 -11.5 -45.5 -13.0 -38.2 -12.55 -27.15 L-11.95 -16.55 Q-11.8 -10.45 -12.65 -6.05 -13.5 -1.55 -16.65 3.35 L-22.3 11.9 Q-28.65 22.95 -30.35 36.4 -32.15 50.85 -27.55 61.9 -28.35 50.8 -28.05 44.8 -27.55 34.1 -22.5 29.65 -24.3 36.4 -25.0 43.7 L-25.55 51.8 Q-24.55 35.7 -15.8 28.5 -21.65 35.85 -23.4 49.15 -24.3 55.65 -24.35 68.9 -23.9 52.6 -15.65 38.1 L-12.95 34.0 Q-11.25 31.4 -10.5 29.65 -10.0 28.4 -9.8 26.3 L-9.3 22.9 -5.7 14.3 Q-3.65 9.4 -3.75 4.9 -1.4 12.5 -3.9 24.8" fill="none" stroke="#000000" stroke-linecap="round" stroke-linejoin="miter-clip" stroke-miterlimit="10.0" stroke-opacity="0.6" stroke-width="1.0"/>
    <path d="M-3.9 24.8 L-3.95 25.1 -4.1 25.7 M-25.55 51.8 L-25.65 58.0 M-24.35 68.9 L-24.35 70.65" fill="none" stroke="#000000" stroke-linecap="round" stroke-linejoin="miter-clip" stroke-miterlimit="10.0" stroke-opacity="0.6" stroke-width="1.0"/>
    <path d="M28.5 -64.05 Q24.85 -64.05 17.75 -60.95 11.3 -58.1 9.9 -56.55 6.05 -52.3 3.2 -45.15 0.35 -38.05 0.35 -32.8 0.35 -29.25 0.7 -23.0 L1.1 -14.6 Q1.2 -10.05 0.6 -6.05 L0.0 1.5 Q-0.25 7.05 -0.7 9.7 L-2.05 15.7 Q-1.75 9.1 -3.2 4.7 L-4.4 4.9 Q-4.35 8.15 -5.25 11.25 L-7.45 16.65 -9.95 22.7 -10.4 25.9 Q-10.65 28.4 -11.1 29.45 -11.8 31.2 -14.15 34.6 L-16.2 37.85 Q-21.3 46.6 -23.45 56.2 -22.35 37.8 -15.35 28.95 L-16.25 28.05 Q-21.3 32.2 -23.85 39.3 L-23.4 36.4 Q-22.6 33.6 -21.0 30.75 L-17.15 24.8 Q-5.85 8.2 -4.2 -5.45 -3.45 -11.9 -3.55 -22.55 -3.7 -32.95 -3.1 -38.0 -2.15 -46.45 1.3 -53.5 L0.2 -54.15 Q-2.15 -50.8 -6.05 -43.35 L-6.1 -43.25 Q-5.7 -51.05 3.9 -61.55 L5.55 -63.3 5.2 -63.25 Q10.85 -67.15 16.7 -69.65 21.4 -69.25 24.2 -68.15 27.95 -66.8 29.45 -64.0 L28.5 -64.05" fill="#000000" fill-opacity="0.2" fill-rule="evenodd" stroke="none"/>
  </g>
</svg>
