<?xml version="1.0" encoding="UTF-8" standalone="no"?>
<svg xmlns:xlink="http://www.w3.org/1999/xlink" height="13.4px" width="66.45px" xmlns="http://www.w3.org/2000/svg">
  <g transform="matrix(1.0, 0.0, 0.0, 1.0, 33.25, 6.75)">
    <path d="M-28.6 4.6 L-31.8 4.2 Q-33.1 1.2 -32.6 -2.5 L-31.9 -5.6 -29.0 -6.25 Q-29.8 -2.1 -29.3 1.65 -29.05 3.55 -28.6 4.6" fill="#ffffff" fill-opacity="0.0" fill-rule="evenodd" stroke="none"/>
    <path d="M-29.0 -6.25 L-31.9 -5.6 -32.6 -2.5 Q-33.1 1.2 -31.8 4.2 L-28.6 4.6" fill="none" stroke="#000000" stroke-linecap="butt" stroke-linejoin="miter-clip" stroke-miterlimit="10.0" stroke-width="1.0"/>
    <path d="M-28.6 4.6 Q-29.05 3.55 -29.3 1.65 -29.8 -2.1 -29.0 -6.25 Z" fill="none" stroke="#000000" stroke-linecap="butt" stroke-linejoin="miter-clip" stroke-miterlimit="10.0" stroke-opacity="0.6" stroke-width="1.0"/>
    <path d="M32.6 0.25 Q32.35 2.0 31.75 3.2 L10.35 3.2 Q11.0 0.35 10.7 -3.05 L10.25 -5.85 31.25 -5.85 Q33.1 -3.25 32.6 0.25" fill="#ffffff" fill-opacity="0.0" fill-rule="evenodd" stroke="none"/>
    <path d="M32.6 0.25 Q33.1 -3.25 31.25 -5.85 L10.25 -5.85 10.7 -3.05 Q11.0 0.35 10.35 3.2 L31.75 3.2 Q32.35 2.0 32.6 0.25 Z" fill="none" stroke="#000000" stroke-linecap="butt" stroke-linejoin="miter-clip" stroke-miterlimit="10.0" stroke-opacity="0.6" stroke-width="1.0"/>
    <path d="M31.65 -3.7 L12.0 -3.8 11.5 -5.1 30.6 -5.1 31.15 -4.7 Q31.65 -4.25 31.65 -3.7" fill="#ffffff" fill-rule="evenodd" stroke="none"/>
    <path d="M-31.7 -4.85 L-29.5 -5.35 -29.75 -4.45 -32.05 -4.05 -31.7 -4.85" fill="#ffffff" fill-rule="evenodd" stroke="none"/>
    <path d="M-16.85 3.45 L-9.1 3.45 -9.1 6.25 -16.85 6.25 -16.85 3.45" fill="#ffffff" fill-opacity="0.0" fill-rule="evenodd" stroke="none"/>
  </g>
</svg>
