<?xml version="1.0" encoding="UTF-8" standalone="no"?>
<svg xmlns:xlink="http://www.w3.org/1999/xlink" height="157.1px" width="551.8px" xmlns="http://www.w3.org/2000/svg">
  <g transform="matrix(1.0, 0.0, 0.0, 1.0, 275.9, 78.55)">
    <path d="M32.1 -31.45 L32.15 -31.45 254.0 -31.45 243.3 5.7 204.9 5.7 168.75 5.7 204.9 5.7 193.05 78.05 166.05 78.05 168.75 5.7 156.35 5.7 136.5 5.7 156.35 5.7 156.85 46.05 135.0 46.05 136.5 5.7 126.95 5.7 32.3 5.7 32.1 -31.45 M-252.9 -31.45 L-37.35 -31.45 -37.65 5.7 -137.0 5.7 -146.55 5.7 -145.05 46.05 -156.7 46.05 -156.2 5.7 -146.55 5.7 -156.2 5.7 -168.65 5.7 -204.7 5.7 -168.65 5.7 -165.9 78.05 -192.9 78.05 -204.7 5.7 -242.55 5.7 -252.9 -31.45 M262.35 2.2 L261.1 2.9 259.65 3.55 261.05 2.9 262.35 2.2" fill="#000000" fill-opacity="0.09803922" fill-rule="evenodd" stroke="none"/>
    <path d="M126.95 5.7 L136.5 5.7 135.0 46.05 127.25 33.15 126.95 5.7 M156.35 5.7 L168.75 5.7 166.05 78.05 157.05 63.05 156.85 46.05 156.35 5.7 M-145.05 46.05 L-146.55 5.7 -137.0 5.7 -137.35 33.15 -145.05 46.05 M-156.2 5.7 L-156.7 46.05 -156.9 63.05 -165.9 78.05 -168.65 5.7 -156.2 5.7" fill="#000000" fill-opacity="0.4" fill-rule="evenodd" stroke="none"/>
    <path d="M-37.35 -31.45 L32.1 -31.45 32.3 5.7 -37.65 5.7 -37.35 -31.45 M243.3 5.7 L254.0 -31.45 256.8 -31.45 Q271.1 -31.45 274.4 -34.9 L264.6 0.05 262.35 2.2 261.05 2.9 259.65 3.55 Q254.55 5.65 246.45 5.7 L246.15 5.7 243.3 5.7 M-275.15 -37.45 L-275.1 -36.5 -275.4 -37.45 -275.15 -37.45 M-274.95 -35.95 Q-272.95 -31.45 -256.65 -31.45 L-252.9 -31.45 -242.55 5.7 -246.0 5.7 Q-253.85 5.7 -259.8 3.65 -262.75 2.6 -264.15 1.55 L-274.95 -35.95" fill="#000000" fill-opacity="0.29803923" fill-rule="evenodd" stroke="none"/>
    <path d="M32.15 -31.45 L29.4 -47.5 12.5 -47.5 Q4.7 -41.35 -3.9 -42.75 -9.45 -43.75 -14.4 -47.5 L-33.9 -47.5 -37.35 -31.45 -252.9 -31.45 -256.65 -31.45 Q-272.95 -31.45 -274.95 -35.95 L-275.1 -36.5 -275.15 -37.45 Q-275.1 -38.2 -274.65 -39.0 L-273.7 -40.45 -192.7 -74.95 Q-187.65 -77.5 -181.15 -77.95 -177.9 -78.15 -175.65 -77.95 L181.25 -77.95 Q187.8 -77.5 192.8 -74.95 L273.8 -40.45 Q276.05 -38.2 275.1 -35.95 L274.4 -34.9 Q271.1 -31.45 256.8 -31.45 L254.0 -31.45 32.15 -31.45" fill="#ffffff" fill-opacity="0.0" fill-rule="evenodd" stroke="none"/>
    <path d="M32.15 -31.45 L32.1 -31.45 -37.35 -31.45 -33.9 -47.5 -14.4 -47.5 Q-9.45 -43.75 -3.9 -42.75 4.7 -41.35 12.5 -47.5 L29.4 -47.5 32.15 -31.45" fill="#000000" fill-opacity="0.2" fill-rule="evenodd" stroke="none"/>
    <path d="M-37.65 5.7 L32.3 5.7 M-275.4 -37.45 L-275.1 -36.5 M-145.05 46.05 L-137.35 33.15 -137.0 5.7 -146.55 5.7 -156.2 5.7 -156.7 46.05 -145.05 46.05 M-165.9 78.05 L-156.9 63.05 -156.7 46.05 M-37.65 5.7 L-137.0 5.7 M-242.55 5.7 L-204.7 5.7 -168.65 5.7 -156.2 5.7 M-204.7 5.7 L-192.9 78.05 -165.9 78.05 M-274.95 -35.95 L-264.15 1.55 Q-262.75 2.6 -259.8 3.65 -253.85 5.7 -246.0 5.7 L-242.55 5.7" fill="none" stroke="#000000" stroke-linecap="butt" stroke-linejoin="miter-clip" stroke-miterlimit="10.0" stroke-width="1.0"/>
    <path d="M-37.35 -31.45 L32.1 -31.45 32.3 5.7 M-274.95 -35.95 Q-272.95 -31.45 -256.65 -31.45 L-252.9 -31.45 -37.35 -31.45 -37.65 5.7 M-146.55 5.7 L-145.05 46.05 M-165.9 78.05 L-168.65 5.7 M-242.55 5.7 L-252.9 -31.45" fill="none" stroke="#000000" stroke-linecap="butt" stroke-linejoin="miter-clip" stroke-miterlimit="10.0" stroke-opacity="0.8" stroke-width="1.0"/>
    <path d="M32.1 -31.45 L32.15 -31.45 M32.3 5.7 L126.95 5.7" fill="none" stroke="#000000" stroke-linecap="butt" stroke-linejoin="miter-clip" stroke-miterlimit="10.0" stroke-width="1.0"/>
    <path d="M32.15 -31.45 L29.4 -47.5 12.5 -47.5 Q4.7 -41.35 -3.9 -42.75 -9.45 -43.75 -14.4 -47.5 L-33.9 -47.5 -37.35 -31.45" fill="none" stroke="#000000" stroke-linecap="round" stroke-linejoin="miter-clip" stroke-miterlimit="10.0" stroke-opacity="0.6" stroke-width="1.0"/>
    <path d="M126.95 5.7 L136.5 5.7 156.35 5.7 168.75 5.7 204.9 5.7 243.3 5.7 246.15 5.7 246.45 5.7 Q254.55 5.65 259.65 3.55 L261.05 2.9 262.35 2.2 261.1 2.9 259.65 3.55 M274.4 -34.9 L264.6 0.05 262.35 2.2 M204.9 5.7 L193.05 78.05 166.05 78.05 157.05 63.05 156.85 46.05 135.0 46.05 127.25 33.15 126.95 5.7 M156.85 46.05 L156.35 5.7" fill="none" stroke="#000000" stroke-linecap="round" stroke-linejoin="miter-clip" stroke-miterlimit="10.0" stroke-width="1.0"/>
    <path d="M243.3 5.7 L254.0 -31.45 32.15 -31.45 M254.0 -31.45 L256.8 -31.45 Q271.1 -31.45 274.4 -34.9 M166.05 78.05 L168.75 5.7 M136.5 5.7 L135.0 46.05" fill="none" stroke="#000000" stroke-linecap="round" stroke-linejoin="miter-clip" stroke-miterlimit="10.0" stroke-opacity="0.8" stroke-width="1.0"/>
    <path d="M274.4 -34.9 L275.1 -35.95 Q276.05 -38.2 273.8 -40.45 L192.8 -74.95 Q187.8 -77.5 181.25 -77.95 L-175.65 -77.95 Q-177.9 -78.15 -181.15 -77.95 -187.65 -77.5 -192.7 -74.95 L-273.7 -40.45 -274.65 -39.0 Q-275.1 -38.2 -275.15 -37.45 L-275.1 -36.5 -274.95 -35.95" fill="none" stroke="#000000" stroke-linecap="round" stroke-linejoin="miter-clip" stroke-miterlimit="10.0" stroke-width="1.0"/>
    <path d="M-275.05 -37.65 Q-273.25 -32.95 -256.65 -32.95 L256.8 -32.95 Q273.0 -32.95 275.1 -37.45 M-272.05 -32.4 L-262.3 1.35 M256.4 -29.35 L246.95 4.1" fill="none" stroke="#ffffff" stroke-linecap="butt" stroke-linejoin="miter-clip" stroke-miterlimit="10.0" stroke-opacity="0.8" stroke-width="1.0"/>
    <path d="M-202.6 8.15 L-191.05 75.6 M171.45 7.65 L168.45 76.65" fill="none" stroke="#ffffff" stroke-linecap="butt" stroke-linejoin="miter-clip" stroke-miterlimit="10.0" stroke-width="1.0"/>
  </g>
</svg>
