<?xml version="1.0" encoding="UTF-8" standalone="no"?>
<svg xmlns:xlink="http://www.w3.org/1999/xlink" height="35.15px" width="34.6px" xmlns="http://www.w3.org/2000/svg">
  <g transform="matrix(1.0, 0.0, 0.0, 1.0, 16.0, 15.9)">
    <path d="M9.65 -11.75 L11.65 -13.55 Q11.2 -14.25 10.75 -14.25 L11.15 -13.75 11.2 -13.65 11.1 -13.6 9.3 -11.95 8.9 -11.85 8.9 -11.55 8.9 -11.85 9.3 -11.95 9.65 -11.75 9.75 -11.7 9.65 -11.75 M7.25 -11.3 L8.05 -12.2 Q10.0 -14.1 10.6 -14.3 11.0 -14.4 11.4 -13.95 L11.8 -13.5 Q11.15 -13.2 9.75 -11.7 L10.35 -11.2 10.7 -8.75 9.75 -7.45 10.7 -8.75 11.55 -9.75 13.8 -11.8 Q14.1 -11.9 14.5 -11.5 L14.8 -11.05 12.6 -8.75 11.15 -6.9 10.8 -6.25 10.75 -6.1 8.8 -1.65 8.75 -1.55 8.8 -1.65 10.75 -6.1 10.8 -6.25 10.8 -6.2 11.9 -7.55 13.8 -9.45 Q15.15 -9.75 14.2 -8.0 L10.8 -3.0 10.8 -2.95 9.95 -1.7 10.8 -2.95 10.55 1.2 10.0 6.85 9.55 9.4 9.2 9.7 Q8.95 9.55 8.9 8.3 L9.05 5.4 8.9 8.3 Q8.95 9.55 9.2 9.7 L9.25 12.25 Q9.25 13.15 8.8 13.0 L8.4 12.6 8.05 9.55 7.6 3.6 7.6 2.85 7.7 2.6 7.6 2.85 6.75 4.6 6.6 5.0 6.35 5.5 6.25 5.75 6.35 5.5 6.6 5.0 6.65 6.6 6.65 9.2 Q6.3 9.95 6.05 9.0 L6.05 8.85 6.05 9.0 5.9 10.25 5.95 12.7 Q5.95 13.6 5.55 13.45 L5.1 13.05 4.75 10.0 4.7 9.4 Q4.45 9.7 3.65 8.75 L2.9 7.75 Q3.2 5.95 4.35 3.6 L4.4 3.55 4.35 3.6 4.35 3.0 4.4 3.55 4.75 2.85 5.0 2.4 4.9 0.15 4.9 -0.7 4.85 -1.25 4.8 -2.55 4.2 -0.2 4.25 0.7 4.35 3.0 3.4 3.4 4.05 0.55 3.4 3.4 2.9 6.65 1.95 13.65 Q1.45 15.9 0.8 14.75 0.65 14.5 0.8 11.75 L0.85 11.0 0.7 11.1 Q0.25 11.25 0.25 10.35 L0.4 5.95 0.45 4.55 0.5 2.65 0.7 -3.3 0.5 2.65 0.45 4.55 -0.25 4.8 -0.2 5.85 -0.2 5.95 -0.5 6.9 -0.65 7.05 -0.7 7.05 -0.8 6.95 -0.7 7.05 -0.65 7.05 -0.5 6.9 -0.2 5.95 -0.2 6.9 -0.05 10.25 0.05 14.65 Q0.05 15.55 -0.35 15.35 L-0.8 15.0 -1.15 11.9 -1.45 8.0 -1.55 7.85 -1.55 5.55 -1.55 5.3 -2.2 5.55 -2.25 4.75 -2.5 5.35 -2.75 5.5 -2.5 5.35 -2.25 4.75 -2.15 4.35 -2.35 -0.7 -2.3 -6.55 -2.35 -7.05 -2.25 -7.25 -2.2 -7.95 -2.25 -8.1 -2.2 -7.95 -2.25 -7.25 -2.35 -7.05 -2.3 -6.55 -2.35 -0.7 -2.15 4.35 -2.25 4.75 -2.2 5.55 -2.15 6.6 Q-2.05 9.0 -2.2 9.2 -2.65 10.2 -3.0 8.2 L-3.3 5.95 -3.45 6.0 -3.35 7.15 Q-2.8 11.85 -2.8 13.25 -2.7 15.25 -3.4 14.35 L-3.9 11.8 -4.65 6.4 -4.7 6.2 Q-5.15 2.15 -5.2 -0.85 L-5.2 -1.3 -5.2 -0.85 Q-5.15 2.15 -4.7 6.2 L-4.65 6.4 -5.2 6.55 -5.5 6.55 -6.1 5.8 -6.1 5.7 -6.1 5.8 -6.65 10.25 Q-7.0 12.2 -7.45 11.25 L-7.45 8.6 -7.35 7.2 -7.5 7.5 Q-8.15 8.35 -8.1 6.35 L-7.75 2.05 -7.7 1.7 -7.65 1.5 -7.7 1.7 -7.75 2.05 -8.8 0.35 -8.85 1.8 Q-8.9 4.2 -9.25 7.75 L-9.6 10.8 -10.05 11.2 Q-10.45 11.4 -10.45 10.5 L-10.35 6.05 -10.2 2.75 -10.05 -3.45 -10.0 -3.95 -10.0 -4.2 -10.0 -3.95 -11.1 -6.15 -12.55 -8.0 -14.75 -10.35 -14.4 -10.75 Q-14.05 -11.2 -13.7 -11.1 L-11.45 -9.0 -9.85 -6.95 -9.3 -11.9 -9.05 -12.45 -8.5 -12.4 -8.1 -11.2 -8.3 -7.8 -8.45 -6.15 -8.55 -4.55 -8.65 -2.25 -8.55 -4.55 -8.45 -6.15 -8.3 -7.8 Q-7.85 -10.8 -7.65 -10.55 L-7.25 -9.5 -7.35 -13.75 Q-7.3 -14.2 -6.6 -13.65 L-5.95 -13.05 -5.75 -11.75 -5.75 -11.4 -5.75 -11.75 -5.6 -11.7 -4.85 -11.25 -4.25 -9.5 -4.0 -9.65 -3.25 -9.7 -3.0 -10.4 -3.55 -11.55 -3.1 -11.85 -2.4 -11.9 -1.65 -13.3 -0.85 -13.4 -0.35 -13.15 Q-0.8 -12.6 -1.45 -10.35 L-1.1 -9.35 -0.95 -9.8 Q-0.1 -12.2 0.35 -12.6 L1.1 -12.55 1.15 -12.55 1.15 -12.6 1.9 -13.05 2.65 -13.0 2.45 -11.9 2.45 -11.8 2.4 -11.7 2.45 -11.8 2.45 -11.9 2.5 -11.8 3.2 -11.7 4.0 -11.25 4.3 -10.4 4.55 -10.2 4.75 -9.65 4.85 -9.3 6.45 -14.8 Q6.75 -15.65 7.1 -15.3 L7.35 -14.85 6.85 -12.35 6.9 -12.3 7.25 -11.3 7.3 -11.1 7.25 -10.45 7.3 -10.6 7.85 -10.65 7.9 -10.5 7.85 -10.65 7.3 -10.6 7.25 -10.45 7.3 -11.1 7.25 -11.3 M8.9 -11.55 L8.65 -11.3 7.9 -10.5 8.05 -10.1 8.1 -10.0 8.95 -10.95 8.95 -10.85 8.95 -10.95 8.9 -11.55 M-0.35 -1.1 L-0.25 -6.55 -0.2 -7.05 0.4 -9.3 Q1.1 -11.7 1.55 -12.3 L1.15 -12.55 1.55 -12.3 Q1.1 -11.7 0.4 -9.3 L-0.2 -7.05 -0.25 -6.55 -0.35 -1.1 -0.35 0.55 -0.3 2.8 -0.1 0.75 0.0 -0.05 0.35 -2.45 0.75 -4.75 0.9 -5.5 1.65 -8.85 2.15 -11.0 2.35 -11.85 2.4 -12.0 2.6 -13.0 2.55 -13.1 2.45 -13.15 2.1 -13.05 2.1 -13.0 2.05 -12.7 1.6 -10.95 0.95 -8.05 0.05 -3.65 -0.35 -1.1 M0.5 -2.85 L0.0 0.75 -0.05 1.25 -0.25 3.55 -0.3 2.8 -0.25 3.55 -0.05 1.25 0.0 0.75 0.5 -2.85 0.7 -3.3 0.7 -3.55 0.75 -4.05 0.5 -2.85 M1.6 -8.25 L1.5 -7.85 0.75 -4.05 1.5 -7.85 1.6 -8.25 1.4 -5.05 1.35 -3.6 1.2 1.25 1.0 1.9 Q0.6 3.85 1.15 3.65 0.6 3.85 1.0 1.9 L1.2 1.25 1.9 -0.9 2.05 -3.6 2.05 -6.45 1.95 -9.75 1.6 -8.25 M2.05 -10.1 L1.95 -9.75 2.05 -10.1 2.05 -9.65 2.15 -5.1 2.15 -4.05 2.15 -3.75 2.1 -1.45 2.0 -1.15 2.05 -3.6 2.0 -1.15 2.1 -1.45 2.65 -2.85 2.65 -3.9 2.6 -7.15 2.55 -9.5 2.55 -9.7 2.55 -10.7 2.5 -11.35 2.5 -11.6 2.5 -11.65 2.45 -11.65 2.4 -11.7 2.05 -10.1 M-1.55 -7.7 L-1.1 -9.35 -1.55 -7.7 -1.8 -8.5 Q-2.55 -10.85 -3.0 -11.4 L-3.05 -11.45 -3.0 -11.55 -2.85 -11.65 -2.45 -11.85 -2.5 -11.85 Q-2.8 -12.0 -3.45 -11.5 -3.0 -10.85 -2.3 -8.6 L-2.25 -8.4 -1.75 -6.8 -1.55 -7.7 M-1.8 -6.55 L-1.75 -6.8 -1.8 -6.55 -2.05 -7.5 -2.25 -7.05 -1.9 -1.95 -1.95 -5.0 -1.8 -6.55 M-1.55 3.55 L-1.9 -1.05 -1.9 -1.75 -1.9 -1.95 -1.9 -1.75 -1.9 -1.05 -1.55 3.55 -1.5 4.8 -1.5 4.65 -1.5 4.2 -1.5 4.1 -1.5 4.2 -1.4 4.65 -1.3 5.4 -1.15 6.05 -1.3 5.4 -1.4 4.65 -1.5 4.2 -1.5 4.65 -1.5 4.1 -1.55 3.55 M-0.8 6.95 L-1.0 6.6 -1.15 6.05 -1.35 7.15 -1.35 7.2 -1.45 7.5 -1.45 7.6 -1.5 7.65 -1.45 7.7 -1.45 7.8 -1.4 7.9 -1.2 8.1 -0.95 7.7 -0.9 7.5 -0.85 7.25 -0.8 6.95 M-0.25 3.55 L-0.25 4.55 -0.25 4.8 -0.25 4.55 -0.25 3.55 M6.1 -9.4 L6.6 -11.6 6.8 -12.45 7.3 -14.85 7.25 -14.95 7.05 -14.6 6.35 -12.3 5.9 -10.75 5.5 -9.2 5.55 -9.25 5.6 -9.25 5.75 -9.3 6.1 -9.4 6.2 -9.45 6.75 -11.8 6.85 -12.35 6.75 -11.8 6.2 -9.45 6.1 -9.4 M9.75 -7.45 L9.6 -9.65 9.5 -11.45 9.5 -11.55 9.5 -11.75 9.2 -11.9 9.1 -11.95 9.0 -11.95 9.0 -11.85 9.0 -11.65 9.0 -11.05 9.0 -10.9 9.1 -9.75 9.3 -6.7 9.2 -6.6 9.3 -6.7 9.75 -7.45 M9.2 -6.6 L8.95 -10.85 8.1 -9.9 8.1 -10.0 8.1 -9.9 8.65 -5.35 8.75 -5.7 9.2 -6.6 M6.55 -0.2 L6.85 -5.8 7.0 -7.55 7.05 -8.2 7.15 -9.9 7.15 -10.15 7.2 -11.1 6.85 -12.05 6.75 -11.75 6.55 -10.55 6.4 -9.45 6.2 -9.45 6.4 -9.45 6.6 -9.2 6.3 -7.75 6.2 -6.9 6.2 -6.7 6.0 -3.4 5.95 -1.85 5.9 0.8 6.2 0.35 6.55 -0.2 6.65 -0.4 6.95 -6.0 7.0 -7.0 7.05 -7.65 7.0 -7.0 6.95 -6.0 6.65 -0.4 6.55 -0.2 M7.25 -10.2 L7.05 -7.65 7.3 -4.1 7.45 -2.15 8.05 -3.8 7.4 -10.1 7.3 -10.4 7.25 -10.2 7.25 -10.45 7.25 -10.2 M4.15 -0.6 L4.2 -0.7 4.8 -3.0 5.35 -4.95 5.4 -5.25 5.45 -5.45 5.85 -6.85 6.35 -8.45 6.5 -9.2 6.45 -9.35 6.35 -9.35 5.8 -9.25 5.8 -9.2 5.7 -8.7 5.15 -6.85 4.7 -5.1 4.05 -2.8 4.0 -2.6 3.75 -1.55 3.7 -1.5 3.55 -0.85 3.45 -0.55 3.2 0.6 Q2.35 4.15 2.05 6.65 L1.75 9.65 1.45 11.6 0.85 14.55 0.9 14.75 1.2 15.05 Q1.6 15.05 2.05 12.25 L2.75 6.65 3.3 3.45 4.0 0.2 4.15 -0.55 4.15 -0.6 M2.55 -11.75 L2.7 -11.65 3.1 -11.25 3.35 -11.0 3.55 -9.4 3.35 -11.0 3.1 -11.25 3.05 -11.6 3.05 -11.65 2.65 -11.75 2.55 -11.75 2.5 -11.8 2.45 -11.8 2.5 -11.8 2.55 -11.75 M4.35 -8.45 L4.1 -9.6 4.0 -9.95 3.65 -8.95 3.8 -7.05 4.35 -8.45 4.45 -8.75 4.7 -8.85 4.85 -9.3 4.7 -8.85 4.45 -8.75 4.35 -8.45 M4.3 -10.4 L4.0 -10.15 3.65 -9.1 4.0 -10.15 4.3 -10.4 M1.05 -12.2 L1.0 -12.15 Q0.55 -11.55 -0.15 -9.2 L-0.75 -6.9 Q-1.0 -5.05 -0.9 0.6 L-0.75 5.95 -0.8 6.15 -0.9 6.6 -0.7 6.9 -0.65 6.9 -0.45 6.5 -0.3 5.85 -0.45 0.4 Q-0.55 -5.2 -0.3 -7.05 L0.3 -9.3 Q1.0 -11.6 1.45 -12.25 L0.45 -12.6 0.95 -12.25 1.05 -12.2 M3.55 -9.4 L3.6 -9.0 3.65 -9.1 3.55 -9.4 M3.6 -8.1 L3.55 -8.95 3.6 -9.0 3.55 -8.95 3.6 -8.1 3.65 -7.0 3.65 -6.6 3.7 -6.75 3.65 -6.6 3.65 -7.0 3.7 -6.75 3.7 -6.8 3.6 -8.1 M3.8 -7.05 L3.7 -6.8 3.8 -7.05 M3.65 -6.6 L2.65 -2.9 2.65 -2.85 2.65 -2.9 3.65 -6.6 M0.9 10.15 L0.85 11.0 0.9 10.15 1.1 7.6 1.0 7.7 0.9 10.15 M1.15 3.8 L0.55 6.85 0.6 7.4 Q0.7 7.85 1.0 7.7 0.7 7.85 0.6 7.4 L0.55 6.85 1.15 3.8 1.15 3.65 1.15 3.8 M1.9 -0.9 L2.0 -1.15 1.9 -0.9 M4.2 -0.2 L4.2 -0.1 4.2 -0.2 M4.8 -2.55 L5.0 -3.3 5.35 -4.45 5.4 -3.9 5.35 -3.35 5.3 -1.3 5.2 1.75 5.2 2.0 5.15 2.1 5.0 2.4 5.15 2.1 5.2 2.0 5.2 1.75 5.3 -1.3 5.35 -3.35 5.4 -3.9 5.35 -4.45 5.0 -3.3 4.8 -2.55 M8.05 -3.8 L8.65 -5.35 8.05 -3.8 M5.25 5.8 Q5.1 5.45 5.35 4.15 L5.4 3.9 5.8 2.5 6.25 1.05 6.95 -0.85 7.35 -2.0 7.45 -2.15 7.35 -2.0 6.95 -0.85 6.25 1.05 5.8 2.5 5.4 3.9 5.35 4.15 Q5.1 5.45 5.25 5.8 L4.75 6.95 3.9 8.85 3.85 8.85 4.35 9.3 4.5 9.35 4.6 9.3 5.4 7.4 5.65 6.85 5.7 6.7 6.15 5.75 6.55 4.7 7.55 2.5 7.6 2.4 7.65 2.3 8.3 1.1 8.9 -0.05 10.7 -3.05 13.5 -7.05 Q14.8 -9.1 14.4 -9.35 L13.85 -9.35 13.75 -9.25 12.5 -7.0 10.0 -3.5 8.8 -1.6 8.75 -1.55 8.25 -0.2 8.1 0.05 7.6 1.3 7.55 1.55 7.45 1.8 6.55 4.15 6.2 5.0 5.6 5.8 5.55 5.85 5.25 5.8 M6.95 -0.85 L6.65 -0.4 6.95 -0.85 M5.35 -4.45 L5.45 -4.75 5.4 -3.9 5.45 -4.75 5.35 -4.45 M9.95 -1.7 L9.45 -0.8 9.35 -0.65 9.45 -0.8 9.35 2.2 9.05 6.15 9.0 7.1 Q8.9 9.45 9.2 9.6 L9.5 9.35 9.55 9.2 9.55 6.6 9.85 2.3 9.95 -1.7 M10.75 -6.1 L10.8 -6.2 10.75 -6.1 M7.0 -7.0 L7.2 -4.35 7.35 -2.0 7.2 -4.35 7.0 -7.0 M4.7 -8.85 L5.5 -9.2 4.7 -8.85 M6.3 -7.75 L5.45 -4.75 6.3 -7.75 M13.9 -11.75 L14.25 -11.25 14.3 -11.2 14.25 -11.15 Q13.6 -10.8 12.05 -8.85 L10.6 -7.0 Q9.65 -5.4 7.6 -0.1 L5.7 4.9 5.65 4.9 5.55 5.1 5.3 5.45 5.35 5.8 5.4 5.8 5.75 5.55 6.15 5.0 8.1 -0.1 Q10.15 -5.3 11.1 -6.9 L12.55 -8.8 Q14.0 -10.65 14.7 -11.1 L14.35 -11.5 13.9 -11.75 M8.9 0.2 L8.3 1.35 8.9 0.2 9.0 4.55 9.05 5.4 9.25 2.2 9.35 -0.65 8.9 0.2 M8.3 1.35 L7.7 2.6 7.7 3.6 Q7.8 7.25 8.45 12.55 L8.55 12.65 8.6 12.25 8.45 7.9 8.35 4.55 8.3 1.35 M5.2 2.0 L5.25 1.95 5.65 1.25 5.9 0.8 5.65 1.25 5.25 1.95 5.2 2.0 M6.25 5.75 L6.15 5.95 5.75 6.95 5.7 7.05 5.0 8.7 5.7 7.05 5.6 10.6 5.6 11.0 5.7 10.9 5.95 8.75 6.0 8.5 6.2 6.45 6.2 6.4 6.25 5.75 M4.05 0.55 L4.15 1.45 4.25 0.9 4.2 -0.1 4.05 0.55 M4.25 0.9 L4.35 3.0 4.25 0.9 M1.5 2.25 L1.35 2.6 1.35 2.65 1.2 2.8 1.15 2.9 0.9 3.15 1.0 3.55 1.15 3.55 1.2 3.5 1.5 2.25 2.1 0.1 2.65 -2.9 2.1 0.1 1.5 2.25 M1.2 3.5 L1.15 3.65 1.2 3.5 M2.1 0.1 L1.9 1.4 1.65 3.05 1.6 3.25 1.35 5.25 1.1 7.6 1.35 5.25 1.6 3.25 1.65 3.05 1.9 1.4 2.1 0.1 M4.75 9.25 L4.7 9.35 4.7 9.4 4.7 9.35 4.75 9.25 5.2 13.0 5.25 13.1 5.3 12.7 5.3 11.35 Q4.95 11.4 4.95 10.6 L5.0 8.7 4.75 9.25 M5.3 11.35 L5.35 11.3 5.8 10.95 5.9 10.25 5.8 10.95 5.35 11.3 5.3 11.35 M6.25 6.85 L6.15 7.85 6.05 8.85 6.35 9.45 6.6 9.2 6.6 9.0 6.25 6.85 6.35 5.5 6.25 6.85 M-7.55 0.45 L-7.55 0.25 -7.4 -1.65 Q-7.2 -4.5 -7.25 -8.5 L-7.25 -9.5 -7.25 -8.5 Q-7.2 -4.5 -7.4 -1.65 L-7.55 0.25 -7.55 0.45 -8.65 -2.25 -8.7 -1.15 -8.75 -0.9 -8.8 0.35 -8.75 -0.9 -8.7 -1.15 -8.05 0.6 -7.65 1.5 -7.55 0.45 M-5.7 -7.6 L-5.75 -5.85 Q-6.55 -2.4 -7.05 2.95 L-7.35 7.2 -7.05 2.95 Q-6.55 -2.4 -5.75 -5.85 L-5.7 -7.6 -5.5 -7.85 -5.65 -8.5 -5.7 -7.6 M-5.65 -8.85 L-5.65 -8.5 -5.65 -8.85 -5.35 -7.5 -5.05 -8.4 -4.8 -9.2 -4.25 -9.5 -4.8 -9.2 -5.05 -8.4 -5.35 -9.55 -5.75 -11.4 -5.65 -8.85 M-9.95 -5.15 L-9.85 -6.95 -9.95 -5.15 -10.55 -6.3 -12.0 -8.15 -14.15 -10.4 -14.25 -10.45 -14.2 -10.55 -13.85 -11.05 Q-14.2 -11.05 -14.65 -10.35 L-12.45 -8.05 -11.0 -6.2 -10.0 -4.2 -9.95 -5.15 M-6.8 -13.65 L-6.8 -13.7 -7.15 -13.85 -7.25 -13.85 -7.3 -13.75 -7.25 -11.7 -7.15 -6.1 Q-7.15 -2.25 -7.45 0.25 L-7.95 5.15 Q-8.15 7.6 -7.85 7.7 L-7.6 7.45 -7.5 7.3 -7.4 4.7 -6.95 0.4 -6.65 -5.95 -6.75 -11.55 -6.8 -13.65 M-1.55 -10.5 L-0.45 -13.15 -0.95 -13.3 -1.5 -13.3 -0.95 -13.05 -0.9 -13.05 -0.95 -12.95 -1.8 -11.0 -1.55 -10.5 -1.45 -10.35 -1.55 -10.5 M-2.4 -11.9 L-2.35 -11.85 -1.8 -11.0 -2.35 -11.85 -2.4 -11.9 M-3.95 -7.0 L-3.8 -7.5 -3.8 -7.6 -3.35 -9.6 -3.4 -9.75 -3.45 -9.75 -3.85 -9.65 -3.85 -9.6 -4.05 -8.6 -4.3 -7.55 -4.55 -6.55 -4.3 -6.8 -3.95 -7.0 -3.8 -7.05 -3.75 -7.3 -3.25 -9.6 -3.25 -9.7 -3.25 -9.6 -3.75 -7.3 -3.8 -7.05 -3.95 -7.0 M-4.1 -6.3 L-4.1 -5.85 -4.15 -4.65 -4.15 -4.35 -4.2 -2.0 -4.2 -1.5 -4.2 0.95 -4.05 6.2 -3.95 7.3 -3.45 11.55 -3.35 14.2 -3.3 14.3 -3.05 14.55 Q-2.75 14.5 -2.95 12.05 L-3.45 7.15 -3.55 6.05 -3.75 1.75 -3.75 1.2 -3.75 0.8 -3.65 -4.8 -3.6 -6.85 -3.65 -6.95 -3.75 -7.0 -3.85 -6.95 -3.95 -6.85 -4.1 -6.8 -4.1 -6.75 -4.1 -6.3 M-3.5 3.05 L-3.6 2.25 -3.65 -1.6 -3.5 -6.9 Q-3.55 -7.15 -3.8 -7.05 -3.55 -7.15 -3.5 -6.9 L-3.65 -1.6 -3.6 2.25 -3.5 3.05 -3.1 7.05 Q-2.8 9.45 -2.5 9.45 L-2.25 9.2 -2.25 9.0 -2.65 6.45 -2.75 5.5 Q-3.05 5.35 -3.35 4.05 L-3.5 3.05 M-2.5 -8.85 L-2.8 -7.75 -2.9 -6.05 -2.95 -2.45 -2.95 -0.6 -2.75 4.5 -2.8 4.9 -2.9 5.15 -2.75 5.35 -2.7 5.4 -2.65 5.4 -2.4 5.0 -2.3 4.6 -2.25 4.35 -2.45 -0.85 Q-2.55 -6.15 -2.3 -7.95 L-2.25 -8.1 -2.3 -8.3 -2.4 -8.55 -2.5 -8.85 -3.0 -10.4 -2.5 -8.85 M-2.25 -7.25 L-2.1 -7.65 -2.05 -7.5 -2.1 -7.65 -2.25 -7.25 M-2.2 -7.95 L-2.1 -7.65 -2.2 -7.95 M-5.75 -5.85 L-5.4 -7.35 -5.35 -7.5 -5.4 -7.35 -5.75 -5.85 M-8.15 -11.2 L-8.5 -12.15 -8.65 -11.85 Q-9.1 -10.05 -9.4 -3.5 L-9.55 2.75 -9.7 6.1 -9.8 10.5 -9.8 10.9 -9.7 10.8 Q-9.0 5.45 -8.95 1.8 L-8.55 -5.9 -8.15 -11.2 M-5.5 -7.85 L-5.4 -7.35 -5.5 -7.85 M-3.6 2.25 L-3.6 3.15 -3.45 6.0 -3.6 3.15 -3.6 2.25 M-5.15 -3.8 L-5.55 -2.1 -6.2 1.7 -6.45 3.35 -6.55 4.15 -6.55 4.4 -6.55 4.6 -7.0 8.45 -7.4 11.05 -7.4 11.2 -7.15 11.5 Q-6.85 11.5 -6.55 9.05 L-6.2 5.65 -6.15 5.5 -6.05 4.4 -6.05 4.15 -5.85 2.75 -5.2 -1.3 -5.15 -3.8 -4.95 -6.15 -4.55 -6.55 -4.95 -6.15 -5.15 -3.8 M-2.3 -6.55 L-2.0 -1.95 -1.55 5.3 -2.0 -1.95 -2.3 -6.55 M-7.4 -1.65 L-8.55 -4.55 -7.4 -1.65 M-3.6 3.15 L-3.3 5.95 -3.6 3.15 M-1.5 4.8 L-1.55 5.2 -1.55 5.55 -1.55 5.2 -1.5 4.8 M-0.25 4.55 L-0.05 1.25 -0.25 4.55 M-6.0 4.6 L-5.95 4.15 -5.8 2.95 -5.3 4.9 Q-5.0 6.3 -5.2 6.55 -5.0 6.3 -5.3 4.9 L-5.8 2.95 -5.95 4.15 -6.0 4.6 -6.1 5.7 -5.7 6.25 -5.3 6.55 -5.2 6.15 -5.6 5.6 -6.0 4.6 M-7.7 1.7 L-8.05 0.8 -8.75 -0.9 -8.05 0.8 -7.7 1.7 M-0.65 7.05 L-0.8 7.5 -0.7 7.05 -0.8 7.5 -0.65 7.05 M-1.4 8.1 L-1.45 8.0 -1.4 8.1 -0.7 14.95 -0.65 15.05 -0.6 14.65 -0.7 10.25 -0.8 7.5 Q-1.1 8.45 -1.4 8.1 M-5.8 2.95 L-5.2 -0.85 -5.8 2.95" fill="#ffffff" fill-opacity="0.0" fill-rule="evenodd" stroke="none"/>
    <path d="M9.3 -11.95 L11.1 -13.6 11.2 -13.65 11.15 -13.75 10.75 -14.25 Q11.2 -14.25 11.65 -13.55 L9.65 -11.75 9.3 -11.95 M7.9 -10.5 L8.65 -11.3 8.9 -11.55 8.95 -10.95 8.1 -10.0 8.05 -10.1 7.9 -10.5 M-0.35 -1.1 L0.05 -3.65 0.95 -8.05 1.6 -10.95 2.05 -12.7 2.1 -13.0 2.1 -13.05 2.45 -13.15 2.55 -13.1 2.6 -13.0 2.4 -12.0 2.35 -11.85 2.15 -11.0 1.65 -8.85 0.9 -5.5 0.75 -4.75 0.35 -2.45 0.0 -0.05 -0.1 0.75 -0.3 2.8 -0.35 0.55 -0.35 -1.1 M1.6 -8.25 L1.95 -9.75 2.05 -6.45 2.05 -3.6 1.9 -0.9 1.2 1.25 1.35 -3.6 1.4 -5.05 1.6 -8.25 M2.05 -10.1 L2.4 -11.7 2.45 -11.65 2.5 -11.65 2.5 -11.6 2.5 -11.35 2.55 -10.7 2.55 -9.7 2.55 -9.5 2.6 -7.15 2.65 -3.9 2.65 -2.85 2.1 -1.45 2.15 -3.75 2.15 -4.05 2.15 -5.1 2.05 -9.65 2.05 -10.1 M-1.55 -7.7 L-1.75 -6.8 -2.25 -8.4 -2.3 -8.6 Q-3.0 -10.85 -3.45 -11.5 -2.8 -12.0 -2.5 -11.85 L-2.45 -11.85 -2.85 -11.65 -3.0 -11.55 -3.05 -11.45 -3.0 -11.4 Q-2.55 -10.85 -1.8 -8.5 L-1.55 -7.7 M-1.8 -6.55 L-1.95 -5.0 -1.9 -1.95 -2.25 -7.05 -2.05 -7.5 -1.8 -6.55 M-1.55 3.55 L-1.5 4.1 -1.5 4.65 -1.5 4.8 -1.55 3.55 M-1.15 6.05 L-1.0 6.6 -0.8 6.95 -0.85 7.25 -0.9 7.5 -0.95 7.7 -1.2 8.1 -1.4 7.9 -1.45 7.8 -1.45 7.7 -1.5 7.65 -1.45 7.6 -1.45 7.5 -1.35 7.2 -1.35 7.15 -1.15 6.05 M5.5 -9.2 L5.9 -10.75 6.35 -12.3 7.05 -14.6 7.25 -14.95 7.3 -14.85 6.8 -12.45 6.6 -11.6 6.1 -9.4 5.75 -9.3 5.6 -9.25 5.55 -9.25 5.5 -9.2 M9.3 -6.7 L9.1 -9.75 9.0 -10.9 9.0 -11.05 9.0 -11.65 9.0 -11.85 9.0 -11.95 9.1 -11.95 9.2 -11.9 9.5 -11.75 9.5 -11.55 9.5 -11.45 9.6 -9.65 9.75 -7.45 9.3 -6.7 M6.4 -9.45 L6.55 -10.55 6.75 -11.75 6.85 -12.05 7.2 -11.1 7.15 -10.15 7.15 -9.9 7.05 -8.2 7.0 -7.55 6.85 -5.8 6.55 -0.2 6.2 0.35 5.9 0.8 5.95 -1.85 6.0 -3.4 6.2 -6.7 6.2 -6.9 6.3 -7.75 6.6 -9.2 6.4 -9.45 M7.05 -7.65 L7.25 -10.2 7.3 -10.4 7.4 -10.1 8.05 -3.8 7.45 -2.15 7.3 -4.1 7.05 -7.65 M4.15 -0.55 L4.0 0.2 3.3 3.45 2.75 6.65 2.05 12.25 Q1.6 15.05 1.2 15.05 L0.9 14.75 0.85 14.55 1.45 11.6 1.75 9.65 2.05 6.65 Q2.35 4.15 3.2 0.6 L3.45 -0.55 3.55 -0.85 3.7 -1.5 3.75 -1.55 4.0 -2.6 4.05 -2.8 4.7 -5.1 5.15 -6.85 5.7 -8.7 5.8 -9.2 5.8 -9.25 6.35 -9.35 6.45 -9.35 6.5 -9.2 6.35 -8.45 5.85 -6.85 5.45 -5.45 5.4 -5.25 5.35 -4.95 4.8 -3.0 4.2 -0.7 4.15 -0.6 4.15 -0.55 M3.1 -11.25 L2.7 -11.65 2.55 -11.75 2.65 -11.75 3.05 -11.65 3.05 -11.6 3.1 -11.25 M3.8 -7.05 L3.65 -8.95 4.0 -9.95 4.1 -9.6 4.35 -8.45 3.8 -7.05 M1.05 -12.2 L0.95 -12.25 0.45 -12.6 1.45 -12.25 Q1.0 -11.6 0.3 -9.3 L-0.3 -7.05 Q-0.55 -5.2 -0.45 0.4 L-0.3 5.85 -0.45 6.5 -0.65 6.9 -0.7 6.9 -0.9 6.6 -0.8 6.15 -0.75 5.95 -0.9 0.6 Q-1.0 -5.05 -0.75 -6.9 L-0.15 -9.2 Q0.55 -11.55 1.0 -12.15 L1.05 -12.2 M3.65 -9.1 L3.6 -9.0 3.55 -9.4 3.65 -9.1 M3.6 -8.1 L3.7 -6.8 3.7 -6.75 3.65 -7.0 3.6 -8.1 M0.9 10.15 L1.0 7.7 1.1 7.6 0.9 10.15 M1.15 3.8 L1.15 3.65 1.15 3.8 M4.8 -2.55 L4.85 -1.25 4.9 -0.7 4.9 0.15 5.0 2.4 4.75 2.85 4.4 3.55 4.35 3.0 4.25 0.7 4.2 -0.2 4.8 -2.55 M5.25 5.8 L5.55 5.85 5.6 5.8 6.2 5.0 6.55 4.15 7.45 1.8 7.55 1.55 7.6 1.3 8.1 0.05 8.25 -0.2 8.75 -1.55 8.8 -1.6 10.0 -3.5 12.5 -7.0 13.75 -9.25 13.85 -9.35 14.4 -9.35 Q14.8 -9.1 13.5 -7.05 L10.7 -3.05 8.9 -0.05 8.3 1.1 7.65 2.3 7.6 2.4 7.55 2.5 6.55 4.7 6.15 5.75 5.7 6.7 5.65 6.85 5.4 7.4 4.6 9.3 4.5 9.35 4.35 9.3 3.85 8.85 3.9 8.85 4.75 6.95 5.25 5.8 M9.45 -0.8 L9.95 -1.7 9.85 2.3 9.55 6.6 9.55 9.2 9.5 9.35 9.2 9.6 Q8.9 9.45 9.0 7.1 L9.05 6.15 9.35 2.2 9.45 -0.8 M13.9 -11.75 L14.35 -11.5 14.7 -11.1 Q14.0 -10.65 12.55 -8.8 L11.1 -6.9 Q10.15 -5.3 8.1 -0.1 L6.15 5.0 5.75 5.55 5.4 5.8 5.35 5.8 5.3 5.45 5.55 5.1 5.65 4.9 5.7 4.9 7.6 -0.1 Q9.65 -5.4 10.6 -7.0 L12.05 -8.85 Q13.6 -10.8 14.25 -11.15 L14.3 -11.2 14.25 -11.25 13.9 -11.75 M7.7 2.6 L8.3 1.35 8.35 4.55 8.45 7.9 8.6 12.25 8.55 12.65 8.45 12.55 Q7.8 7.25 7.7 3.6 L7.7 2.6 M5.7 7.05 L5.75 6.95 6.15 5.95 6.25 5.75 6.2 6.4 6.2 6.45 6.0 8.5 5.95 8.75 5.7 10.9 5.6 11.0 5.6 10.6 5.7 7.05 M1.2 3.5 L1.15 3.55 1.0 3.55 0.9 3.15 1.15 2.9 1.2 2.8 1.35 2.65 1.35 2.6 1.5 2.25 1.2 3.5 M4.75 9.25 L5.0 8.7 4.95 10.6 Q4.95 11.4 5.3 11.35 L5.3 12.7 5.25 13.1 5.2 13.0 4.75 9.25 M6.05 8.85 L6.15 7.85 6.25 6.85 6.6 9.0 6.6 9.2 6.35 9.45 6.05 8.85 M-7.55 0.45 L-7.65 1.5 -8.05 0.6 -8.7 -1.15 -8.65 -2.25 -7.55 0.45 M-5.65 -8.85 L-5.75 -11.4 -5.35 -9.55 -5.05 -8.4 -5.35 -7.5 -5.65 -8.85 M-9.95 -5.15 L-10.0 -4.2 -11.0 -6.2 -12.45 -8.05 -14.65 -10.35 Q-14.2 -11.05 -13.85 -11.05 L-14.2 -10.55 -14.25 -10.45 -14.15 -10.4 -12.0 -8.15 -10.55 -6.3 -9.95 -5.15 M-6.8 -13.65 L-6.75 -11.55 -6.65 -5.95 -6.95 0.4 -7.4 4.7 -7.5 7.3 -7.6 7.45 -7.85 7.7 Q-8.15 7.6 -7.95 5.15 L-7.45 0.25 Q-7.15 -2.25 -7.15 -6.1 L-7.25 -11.7 -7.3 -13.75 -7.25 -13.85 -7.15 -13.85 -6.8 -13.7 -6.8 -13.65 M-1.8 -11.0 L-0.95 -12.95 -0.9 -13.05 -0.95 -13.05 -1.5 -13.3 -0.95 -13.3 -0.45 -13.15 -1.55 -10.5 -1.8 -11.0 M-4.55 -6.55 L-4.3 -7.55 -4.05 -8.6 -3.85 -9.6 -3.85 -9.65 -3.45 -9.75 -3.4 -9.75 -3.35 -9.6 -3.8 -7.6 -3.8 -7.5 -3.95 -7.0 -4.3 -6.8 -4.55 -6.55 M-4.1 -6.3 L-4.1 -6.75 -4.1 -6.8 -3.95 -6.85 -3.85 -6.95 -3.75 -7.0 -3.65 -6.95 -3.6 -6.85 -3.65 -4.8 -3.75 0.8 -3.75 1.2 -3.75 1.75 -3.55 6.05 -3.45 7.15 -2.95 12.05 Q-2.75 14.5 -3.05 14.55 L-3.3 14.3 -3.35 14.2 -3.45 11.55 -3.95 7.3 -4.05 6.2 -4.2 0.95 -4.2 -1.5 -4.2 -2.0 -4.15 -4.35 -4.15 -4.65 -4.1 -5.85 -4.1 -6.3 M-3.5 3.05 L-3.35 4.05 Q-3.05 5.35 -2.75 5.5 L-2.65 6.45 -2.25 9.0 -2.25 9.2 -2.5 9.45 Q-2.8 9.45 -3.1 7.05 L-3.5 3.05 M-2.25 -8.1 L-2.3 -7.95 Q-2.55 -6.15 -2.45 -0.85 L-2.25 4.35 -2.3 4.6 -2.4 5.0 -2.65 5.4 -2.7 5.4 -2.75 5.35 -2.9 5.15 -2.8 4.9 -2.75 4.5 -2.95 -0.6 -2.95 -2.45 -2.9 -6.05 -2.8 -7.75 -2.5 -8.85 -2.4 -8.55 -2.3 -8.3 -2.25 -8.1 M-8.15 -11.2 L-8.55 -5.9 -8.95 1.8 Q-9.0 5.45 -9.7 10.8 L-9.8 10.9 -9.8 10.5 -9.7 6.1 -9.55 2.75 -9.4 -3.5 Q-9.1 -10.05 -8.65 -11.85 L-8.5 -12.15 -8.15 -11.2 M-5.2 -1.3 L-5.85 2.75 -6.05 4.15 -6.05 4.4 -6.15 5.5 -6.2 5.65 -6.55 9.05 Q-6.85 11.5 -7.15 11.5 L-7.4 11.2 -7.4 11.05 -7.0 8.45 -6.55 4.6 -6.55 4.4 -6.55 4.15 -6.45 3.35 -6.2 1.7 -5.55 -2.1 -5.15 -3.8 -5.2 -1.3 M-6.0 4.6 L-5.6 5.6 -5.2 6.15 -5.3 6.55 -5.7 6.25 -6.1 5.7 -6.0 4.6 M-1.4 8.1 Q-1.1 8.45 -0.8 7.5 L-0.7 10.25 -0.6 14.65 -0.65 15.05 -0.7 14.95 -1.4 8.1" fill="#000000" fill-opacity="0.2" fill-rule="evenodd" stroke="none"/>
    <path d="M4.15 -0.55 L4.15 -0.6" fill="none" stroke="#000000" stroke-linecap="butt" stroke-linejoin="miter-clip" stroke-miterlimit="10.0" stroke-width="1.0"/>
    <path d="M9.65 -11.75 L9.75 -11.7 Q11.15 -13.2 11.8 -13.5 L11.4 -13.95 Q11.0 -14.4 10.6 -14.3 10.0 -14.1 8.05 -12.2 L7.25 -11.3 7.3 -11.1 7.25 -10.45 7.3 -10.6 7.85 -10.65 7.9 -10.5 8.05 -10.1 8.1 -10.0 8.1 -9.9 8.95 -10.85 9.2 -6.6 9.3 -6.7 9.75 -7.45 10.7 -8.75 10.35 -11.2 9.75 -11.7 M8.9 -11.55 L8.9 -11.85 9.3 -11.95 9.65 -11.75 M2.45 -11.9 L2.65 -13.0 1.9 -13.05 1.15 -12.6 1.15 -12.55 1.55 -12.3 Q1.1 -11.7 0.4 -9.3 L-0.2 -7.05 -0.25 -6.55 -0.35 -1.1 -0.35 0.55 -0.3 2.8 -0.25 3.55 -0.05 1.25 0.0 0.75 0.5 -2.85 0.75 -4.05 1.5 -7.85 1.6 -8.25 1.95 -9.75 2.05 -10.1 2.4 -11.7 2.45 -11.8 2.45 -11.9 2.5 -11.8 3.2 -11.7 4.0 -11.25 4.3 -10.4 4.55 -10.2 4.75 -9.65 4.85 -9.3 6.45 -14.8 Q6.75 -15.65 7.1 -15.3 L7.35 -14.85 6.85 -12.35 6.9 -12.3 7.25 -11.3 M1.15 -12.55 L1.1 -12.55 0.35 -12.6 Q-0.1 -12.2 -0.95 -9.8 L-1.1 -9.35 -1.55 -7.7 -1.75 -6.8 -1.8 -6.55 -1.95 -5.0 -1.9 -1.95 -1.9 -1.75 -1.9 -1.05 -1.55 3.55 -1.5 4.1 -1.5 4.2 -1.4 4.65 -1.3 5.4 -1.15 6.05 -1.0 6.6 -0.8 6.95 -0.7 7.05 -0.65 7.05 -0.5 6.9 -0.2 5.95 -0.2 5.85 -0.25 4.8 -0.25 4.55 -0.25 3.55 M5.5 -9.2 L5.55 -9.25 5.6 -9.25 5.75 -9.3 6.1 -9.4 6.2 -9.45 6.75 -11.8 6.85 -12.35 M8.95 -10.95 L8.95 -10.85 M8.9 -11.55 L8.95 -10.95 M6.55 -0.2 L6.65 -0.4 6.95 -6.0 7.0 -7.0 7.05 -7.65 7.25 -10.2 7.25 -10.45 M6.4 -9.45 L6.2 -9.45 M5.9 0.8 L6.2 0.35 6.55 -0.2 M6.3 -7.75 L6.6 -9.2 6.4 -9.45 M3.1 -11.25 L2.7 -11.65 2.55 -11.75 2.5 -11.8 2.45 -11.8 M3.55 -9.4 L3.35 -11.0 3.1 -11.25 M3.8 -7.05 L4.35 -8.45 4.45 -8.75 4.7 -8.85 4.85 -9.3 M3.65 -9.1 L4.0 -10.15 4.3 -10.4 M3.55 -9.4 L3.6 -9.0 3.65 -9.1 M3.6 -9.0 L3.55 -8.95 3.6 -8.1 3.7 -6.8 3.8 -7.05 M3.65 -7.0 L3.65 -6.6 3.7 -6.75 3.7 -6.8 M3.65 -7.0 L3.6 -8.1 M1.95 -9.75 L2.05 -6.45 2.05 -3.6 2.0 -1.15 2.1 -1.45 2.65 -2.85 2.65 -2.9 3.65 -6.6 M0.75 -4.05 L0.7 -3.55 0.7 -3.3 0.5 2.65 0.45 4.55 0.4 5.95 0.25 10.35 Q0.25 11.25 0.7 11.1 L0.85 11.0 0.9 10.15 1.1 7.6 1.35 5.25 1.6 3.25 1.65 3.05 1.9 1.4 2.1 0.1 2.65 -2.9 M1.0 7.7 Q0.7 7.85 0.6 7.4 L0.55 6.85 1.15 3.8 1.15 3.65 Q0.6 3.85 1.0 1.9 L1.2 1.25 1.9 -0.9 2.0 -1.15 M4.8 -2.55 L4.2 -0.2 4.2 -0.1 4.05 0.55 3.4 3.4 4.35 3.0 4.25 0.9 4.2 -0.1 M4.4 3.55 L4.75 2.85 5.0 2.4 5.15 2.1 5.2 2.0 5.2 1.75 5.3 -1.3 5.35 -3.35 5.4 -3.9 5.35 -4.45 5.0 -3.3 4.8 -2.55 M0.7 -3.3 L0.5 -2.85 M8.65 -5.35 L8.05 -3.8 7.45 -2.15 7.35 -2.0 6.95 -0.85 6.25 1.05 5.8 2.5 5.4 3.9 5.35 4.15 Q5.1 5.45 5.25 5.8 L5.55 5.85 5.6 5.8 6.2 5.0 6.55 4.15 7.45 1.8 7.55 1.55 7.6 1.3 8.1 0.05 8.25 -0.2 8.75 -1.55 8.8 -1.65 10.75 -6.1 10.8 -6.25 11.15 -6.9 12.6 -8.75 14.8 -11.05 14.5 -11.5 Q14.1 -11.9 13.8 -11.8 L11.55 -9.75 10.7 -8.75 M8.1 -9.9 L8.65 -5.35 8.75 -5.7 9.2 -6.6 M5.4 -3.9 L5.45 -4.75 5.35 -4.45 M6.65 -0.4 L6.95 -0.85 M9.45 -0.8 L9.95 -1.7 10.8 -2.95 10.8 -3.0 14.2 -8.0 Q15.15 -9.75 13.8 -9.45 L11.9 -7.55 10.8 -6.2 10.75 -6.1 M9.35 -0.65 L9.45 -0.8 M7.35 -2.0 L7.2 -4.35 7.0 -7.0 M5.45 -4.75 L6.3 -7.75 M5.5 -9.2 L4.7 -8.85 M10.8 -6.2 L10.8 -6.25 M8.3 1.35 L8.9 0.2 9.35 -0.65 9.25 2.2 9.05 5.4 8.9 8.3 Q8.95 9.55 9.2 9.7 L9.55 9.4 10.0 6.85 10.55 1.2 10.8 -2.95 M7.7 2.6 L8.3 1.35 M7.7 2.6 L7.6 2.85 7.6 3.6 8.05 9.55 8.4 12.6 8.8 13.0 Q9.25 13.15 9.25 12.25 L9.2 9.7 M5.9 0.8 L5.65 1.25 5.25 1.95 5.2 2.0 M5.7 7.05 L5.75 6.95 6.15 5.95 6.25 5.75 6.35 5.5 6.6 5.0 6.75 4.6 7.6 2.85 M8.9 0.2 L9.0 4.55 9.05 5.4 M4.05 0.55 L4.15 1.45 4.25 0.9 M1.2 3.5 L1.5 2.25 2.1 0.1 M1.15 3.65 L1.2 3.5 M4.4 3.55 L4.35 3.6 Q3.2 5.95 2.9 7.75 L3.65 8.75 Q4.45 9.7 4.7 9.4 L4.7 9.35 4.75 9.25 5.0 8.7 5.7 7.05 M4.35 3.0 L4.35 3.6 M1.0 7.7 L1.1 7.6 M0.85 11.0 L0.8 11.75 Q0.65 14.5 0.8 14.75 1.45 15.9 1.95 13.65 L2.9 6.65 3.4 3.4 M4.7 9.4 L4.75 10.0 5.1 13.05 5.55 13.45 Q5.95 13.6 5.95 12.7 L5.9 10.25 5.8 10.95 5.35 11.3 5.3 11.35 Q4.95 11.4 4.95 10.6 L5.0 8.7 M6.05 9.0 L6.05 8.85 6.15 7.85 6.25 6.85 6.35 5.5 M6.05 9.0 Q6.3 9.95 6.65 9.2 L6.65 6.6 6.6 5.0 M5.9 10.25 L6.05 9.0 M-5.75 -11.75 L-5.95 -13.05 -6.6 -13.65 Q-7.3 -14.2 -7.35 -13.75 L-7.25 -9.5 -7.25 -8.5 Q-7.2 -4.5 -7.4 -1.65 L-7.55 0.25 -7.55 0.45 -7.65 1.5 -7.7 1.7 -7.75 2.05 -8.1 6.35 Q-8.15 8.35 -7.5 7.5 L-7.35 7.2 -7.05 2.95 Q-6.55 -2.4 -5.75 -5.85 L-5.7 -7.6 -5.65 -8.5 -5.65 -8.85 -5.75 -11.4 -5.75 -11.75 -5.6 -11.7 -4.85 -11.25 -4.25 -9.5 -4.0 -9.65 -3.25 -9.7 -3.0 -10.4 -3.55 -11.55 -3.1 -11.85 -2.4 -11.9 -1.65 -13.3 -0.85 -13.4 -0.35 -13.15 Q-0.8 -12.6 -1.45 -10.35 L-1.1 -9.35 M-8.3 -7.8 L-8.1 -11.2 -8.5 -12.4 -9.05 -12.45 -9.3 -11.9 -9.85 -6.95 -9.95 -5.15 -10.0 -4.2 -10.0 -3.95 -10.05 -3.45 -10.2 2.75 -10.35 6.05 -10.45 10.5 Q-10.45 11.4 -10.05 11.2 L-9.6 10.8 -9.25 7.75 Q-8.9 4.2 -8.85 1.8 L-8.8 0.35 -8.75 -0.9 -8.7 -1.15 -8.65 -2.25 -8.55 -4.55 -8.45 -6.15 -8.3 -7.8 Q-7.85 -10.8 -7.65 -10.55 L-7.25 -9.5 M-1.8 -11.0 L-1.55 -10.5 -1.45 -10.35 M-9.85 -6.95 L-11.45 -9.0 -13.7 -11.1 Q-14.05 -11.2 -14.4 -10.75 L-14.75 -10.35 -12.55 -8.0 -11.1 -6.15 -10.0 -3.95 M-1.8 -11.0 L-2.35 -11.85 -2.4 -11.9 M-4.55 -6.55 L-4.3 -6.8 -3.95 -7.0 -3.8 -7.05 -3.75 -7.3 -3.25 -9.6 -3.25 -9.7 M-3.8 -7.05 Q-3.55 -7.15 -3.5 -6.9 L-3.65 -1.6 -3.6 2.25 -3.5 3.05 -3.35 4.05 Q-3.05 5.35 -2.75 5.5 L-2.5 5.35 -2.25 4.75 -2.15 4.35 -2.35 -0.7 -2.3 -6.55 -2.35 -7.05 -2.25 -7.25 -2.2 -7.95 -2.25 -8.1 -2.3 -8.3 -2.4 -8.55 -2.5 -8.85 -3.0 -10.4 M-2.05 -7.5 L-2.1 -7.65 -2.25 -7.25 M-1.8 -6.55 L-2.05 -7.5 M-2.1 -7.65 L-2.2 -7.95 M-5.05 -8.4 L-4.8 -9.2 -4.25 -9.5 M-5.05 -8.4 L-5.35 -7.5 -5.4 -7.35 -5.75 -5.85 M-5.7 -7.6 L-5.5 -7.85 -5.65 -8.5 M-5.4 -7.35 L-5.5 -7.85 M-5.2 -1.3 L-5.2 -0.85 Q-5.15 2.15 -4.7 6.2 L-4.65 6.4 -3.9 11.8 -3.4 14.35 Q-2.7 15.25 -2.8 13.25 -2.8 11.85 -3.35 7.15 L-3.45 6.0 -3.6 3.15 -3.6 2.25 M-5.2 -1.3 L-5.15 -3.8 -4.95 -6.15 -4.55 -6.55 M-8.55 -4.55 L-7.4 -1.65 M-1.55 5.3 L-2.0 -1.95 -2.3 -6.55 M-3.45 6.0 L-3.3 5.95 -3.6 3.15 M-2.2 5.55 L-1.55 5.3 -1.55 5.55 -1.55 5.2 -1.5 4.8 -1.5 4.65 -1.5 4.2 M-2.2 5.55 L-2.25 4.75 M-1.5 4.1 L-1.5 4.65 M-0.05 1.25 L-0.25 4.55 M-8.8 0.35 L-7.75 2.05 M-8.75 -0.9 L-8.05 0.8 -7.7 1.7 M-5.2 6.55 Q-5.0 6.3 -5.3 4.9 L-5.8 2.95 -5.95 4.15 -6.0 4.6 -6.1 5.7 -6.1 5.8 -5.5 6.55 -5.2 6.55 -4.65 6.4 M-7.35 7.2 L-7.45 8.6 -7.45 11.25 Q-7.0 12.2 -6.65 10.25 L-6.1 5.8 M-0.7 7.05 L-0.8 7.5 -0.65 7.05 M-1.55 5.55 L-1.55 7.85 -1.45 8.0 -1.4 8.1 Q-1.1 8.45 -0.8 7.5 M-3.3 5.95 L-3.0 8.2 Q-2.65 10.2 -2.2 9.2 -2.05 9.0 -2.15 6.6 L-2.2 5.55 M-1.45 8.0 L-1.15 11.9 -0.8 15.0 -0.35 15.35 Q0.05 15.55 0.05 14.65 L-0.05 10.25 -0.2 6.9 -0.2 5.95 M-5.2 -0.85 L-5.8 2.95 M-0.25 4.8 L0.45 4.55" fill="none" stroke="#000000" stroke-linecap="butt" stroke-linejoin="miter-clip" stroke-miterlimit="10.0" stroke-opacity="0.6" stroke-width="1.0"/>
  </g>
</svg>
