<?xml version="1.0" encoding="UTF-8" standalone="no"?>
<svg xmlns:xlink="http://www.w3.org/1999/xlink" height="48.55px" width="28.4px" xmlns="http://www.w3.org/2000/svg">
  <g transform="matrix(1.0, 0.0, 0.0, 1.0, 13.7, 24.45)">
    <path d="M-1.6 4.85 L-1.3 1.5 Q-0.75 -3.45 0.2 -6.25 1.0 -8.7 1.15 -15.3 L1.1 -21.4 Q2.85 -23.15 1.3 -7.2 L0.8 -3.9 0.2 0.4 0.15 0.95 0.05 1.65 0.15 0.95 0.45 0.25 Q1.35 -1.7 1.95 -2.1 L4.45 -3.55 5.4 -3.85 6.75 -3.95 8.0 -3.45 8.95 -3.85 Q9.95 -4.1 10.7 -3.45 L10.85 -3.3 13.15 -1.2 10.35 -1.2 8.95 -0.75 8.45 -0.5 7.5 0.0 Q7.15 0.2 6.3 0.75 L5.9 1.0 Q4.8 1.6 3.8 1.6 L3.55 1.6 1.6 1.45 Q0.7 1.4 0.05 1.85 L-0.3 4.35 Q-0.5 6.3 -0.35 9.25 -0.2 13.85 -0.2 21.6 L-1.3 18.85 -1.65 9.8 -1.65 6.4 -1.65 6.15 -1.65 6.4 -3.1 6.55 -5.3 6.45 -5.9 6.15 -7.15 4.2 -5.35 4.4 -3.5 4.65 -5.35 4.4 -7.15 4.2 -7.4 3.6 Q-8.0 2.05 -8.4 1.65 L-8.6 1.5 Q-9.1 1.35 -11.4 1.5 L-13.15 1.5 -11.0 0.9 -8.75 0.65 -6.55 0.95 Q-6.05 1.05 -5.6 1.75 L-5.0 2.85 -4.9 3.0 -5.0 2.85 -5.6 1.75 Q-6.05 1.05 -6.55 0.95 L-6.15 1.0 Q-5.4 1.1 -4.0 1.95 -3.45 2.25 -2.85 2.7 L-2.45 3.1 -2.4 4.3 Q-2.35 5.15 -2.45 5.6 -2.35 5.15 -2.4 4.3 L-2.45 3.1 Q-1.95 3.65 -1.6 4.85 L-1.6 4.9 -1.65 6.15 -1.6 4.9 -1.6 4.85 M0.05 1.65 L0.05 1.85 0.05 1.65 Q0.25 1.2 1.2 0.6 1.55 0.35 2.8 -0.4 L4.1 -0.95 4.65 -1.15 4.1 -0.95 2.8 -0.4 Q1.55 0.35 1.2 0.6 0.25 1.2 0.05 1.65 M7.1 -2.9 L6.65 -2.55 5.4 -1.55 4.65 -1.15 5.4 -1.55 6.65 -2.55 7.1 -2.9 8.0 -3.45 7.1 -2.9 Q6.95 -0.65 6.3 0.75 6.95 -0.65 7.1 -2.9 M8.45 -0.5 Q8.4 -1.2 9.25 -2.1 L10.7 -3.45 9.25 -2.1 Q8.4 -1.2 8.45 -0.5 M3.55 1.6 Q3.6 1.2 4.15 0.3 L4.65 -1.15 4.15 0.3 Q3.6 1.2 3.55 1.6 M-3.5 4.65 Q-3.4 4.2 -3.6 3.3 L-4.0 1.95 -3.6 3.3 Q-3.4 4.2 -3.5 4.65 L-2.5 5.55 -2.45 5.6 -2.5 5.55 -3.5 4.65 -3.65 4.5 -4.9 3.0 -3.65 4.5 -3.5 4.65 M-2.45 5.6 L-3.9 6.05 -5.3 6.45 -3.9 6.05 -2.45 5.6 -1.65 6.15 -2.45 5.6 M-4.9 3.0 Q-5.15 2.75 -6.1 2.4 L-8.4 1.65 -6.1 2.4 Q-5.15 2.75 -4.9 3.0" fill="#ffffff" fill-opacity="0.0" fill-rule="evenodd" stroke="none"/>
    <path d="M0.15 0.95 L0.2 0.4 0.8 -3.9 1.3 -7.2 Q2.85 -23.15 1.1 -21.4 L1.15 -15.3 Q1.0 -8.7 0.2 -6.25 -0.75 -3.45 -1.3 1.5 L-1.6 4.85 -1.6 4.9 -1.65 6.15 -1.65 6.4 -1.65 9.8 -1.3 18.85 -0.2 21.6 Q-0.2 13.85 -0.35 9.25 -0.5 6.3 -0.3 4.35 L0.05 1.85 0.05 1.65 0.15 0.95 0.45 0.25 Q1.35 -1.7 1.95 -2.1 L4.45 -3.55 5.4 -3.85 6.75 -3.95 8.0 -3.45 8.95 -3.85 Q9.95 -4.1 10.7 -3.45 L10.85 -3.3 13.15 -1.2 10.35 -1.2 8.95 -0.75 8.45 -0.5 7.5 0.0 Q7.15 0.2 6.3 0.75 L5.9 1.0 Q4.8 1.6 3.8 1.6 L3.55 1.6 1.6 1.45 Q0.7 1.4 0.05 1.85 M-2.45 3.1 L-2.85 2.7 Q-3.45 2.25 -4.0 1.95 -5.4 1.1 -6.15 1.0 L-6.55 0.95 -8.75 0.65 -11.0 0.9 -13.15 1.5 -11.4 1.5 Q-9.1 1.35 -8.6 1.5 L-8.4 1.65 Q-8.0 2.05 -7.4 3.6 L-7.15 4.2 -5.9 6.15 -5.3 6.45 -3.1 6.55 -1.65 6.4 M-2.45 3.1 Q-1.95 3.65 -1.6 4.85" fill="none" stroke="#000000" stroke-linecap="round" stroke-linejoin="miter-clip" stroke-miterlimit="10.0" stroke-opacity="0.8" stroke-width="1.0"/>
    <path d="M0.05 1.65 Q0.25 1.2 1.2 0.6 1.55 0.35 2.8 -0.4 L4.1 -0.95 4.65 -1.15 5.4 -1.55 6.65 -2.55 7.1 -2.9 8.0 -3.45 M10.7 -3.45 L9.25 -2.1 Q8.4 -1.2 8.45 -0.5 M4.65 -1.15 L4.15 0.3 Q3.6 1.2 3.55 1.6 M6.3 0.75 Q6.95 -0.65 7.1 -2.9 M-4.0 1.95 L-3.6 3.3 Q-3.4 4.2 -3.5 4.65 L-2.5 5.55 -2.45 5.6 Q-2.35 5.15 -2.4 4.3 L-2.45 3.1 M-6.55 0.95 Q-6.05 1.05 -5.6 1.75 L-5.0 2.85 -4.9 3.0 -3.65 4.5 -3.5 4.65 -5.35 4.4 -7.15 4.2 M-5.3 6.45 L-3.9 6.05 -2.45 5.6 -1.65 6.15 M-8.4 1.65 L-6.1 2.4 Q-5.15 2.75 -4.9 3.0" fill="none" stroke="#000000" stroke-linecap="round" stroke-linejoin="miter-clip" stroke-miterlimit="10.0" stroke-opacity="0.6" stroke-width="1.0"/>
  </g>
</svg>
