<?xml version="1.0" encoding="UTF-8" standalone="no"?>
<svg xmlns:xlink="http://www.w3.org/1999/xlink" height="59.0px" width="322.2px" xmlns="http://www.w3.org/2000/svg">
  <g transform="matrix(1.0, 0.0, 0.0, 1.0, 161.1, 29.25)">
    <path d="M-125.25 8.0 L-124.15 5.8 Q-114.7 -11.95 -103.85 -19.2 L-80.1 -23.4 Q-47.1 -27.7 -0.45 -28.65 L-0.45 -28.7 0.4 -28.65 1.15 -28.7 1.15 -28.65 Q47.75 -27.7 80.9 -23.4 97.4 -21.15 104.6 -19.2 115.45 -11.95 125.0 5.8 L126.05 7.8 Q129.95 15.6 132.25 22.2 132.1 23.1 125.5 23.7 132.1 23.1 132.25 22.2 129.95 15.6 126.05 7.8 126.85 6.05 128.25 4.5 L131.3 1.95 Q150.8 0.35 157.1 6.15 162.2 10.85 158.6 20.15 155.95 27.0 143.8 28.35 137.9 29.0 128.6 28.15 126.45 27.95 125.5 23.7 111.75 24.95 70.1 24.7 35.65 24.5 0.4 23.6 -34.9 24.5 -69.35 24.7 -113.95 24.95 -126.55 23.55 -131.35 23.0 -131.5 22.2 -129.2 15.65 -125.25 8.0 -129.2 15.65 -131.5 22.2 -131.35 23.0 -126.55 23.55 L-128.3 25.85 Q-129.8 27.5 -131.3 28.3 -150.75 29.9 -157.1 24.15 -162.25 19.4 -158.6 10.1 -154.45 -0.55 -128.55 2.15 -126.15 2.4 -125.25 8.0 M48.9 -25.85 L19.15 -27.45 Q-13.9 -13.15 -89.55 24.0 L-82.3 24.1 -43.85 23.75 48.9 -25.85 M69.75 -24.0 L62.55 -24.7 -20.25 23.4 -2.55 22.95 69.75 -24.0" fill="#ffffff" fill-opacity="0.0" fill-rule="evenodd" stroke="none"/>
    <path d="M69.75 -24.0 L-2.55 22.95 -20.25 23.4 62.55 -24.7 69.75 -24.0 M48.9 -25.85 L-43.85 23.75 -82.3 24.1 -89.55 24.0 Q-13.9 -13.15 19.15 -27.45 L48.9 -25.85" fill="#ffffff" fill-opacity="0.8" fill-rule="evenodd" stroke="none"/>
    <path d="M126.05 7.8 Q126.85 6.05 128.25 4.5 L131.3 1.95 Q150.8 0.35 157.1 6.15 162.2 10.85 158.6 20.15 155.95 27.0 143.8 28.35 137.9 29.0 128.6 28.15 126.45 27.95 125.5 23.7 M-125.25 8.0 Q-126.15 2.4 -128.55 2.15 -154.45 -0.55 -158.6 10.1 -162.25 19.4 -157.1 24.15 -150.75 29.9 -131.3 28.3 -129.8 27.5 -128.3 25.85 L-126.55 23.55" fill="none" stroke="#000000" stroke-linecap="butt" stroke-linejoin="miter-clip" stroke-miterlimit="10.0" stroke-width="1.0"/>
    <path d="M126.05 7.8 L125.0 5.8 Q115.45 -11.95 104.6 -19.2 97.4 -21.15 80.9 -23.4 47.75 -27.7 1.15 -28.65 L1.15 -28.7 0.4 -28.65 -0.45 -28.7 -0.45 -28.65 Q-47.1 -27.7 -80.1 -23.4 L-103.85 -19.2 Q-114.7 -11.95 -124.15 5.8 L-125.25 8.0 Q-129.2 15.65 -131.5 22.2 -131.35 23.0 -126.55 23.55 -113.95 24.95 -69.35 24.7 -34.9 24.5 0.4 23.6 35.65 24.5 70.1 24.7 111.75 24.95 125.5 23.7 132.1 23.1 132.25 22.2 129.95 15.6 126.05 7.8 Z" fill="none" stroke="#000000" stroke-linecap="butt" stroke-linejoin="miter-clip" stroke-miterlimit="10.0" stroke-opacity="0.6" stroke-width="1.0"/>
  </g>
</svg>
