<?xml version="1.0" encoding="UTF-8" standalone="no"?>
<svg xmlns:xlink="http://www.w3.org/1999/xlink" height="128.65px" width="128.65px" xmlns="http://www.w3.org/2000/svg">
  <g transform="matrix(1.0, 0.0, 0.0, 1.0, 64.3, 64.3)">
    <path d="M27.1 -27.05 Q15.85 -38.35 0.05 -38.35 -15.8 -38.35 -27.05 -27.05 -38.25 -15.85 -38.25 0.05 -38.25 15.9 -27.05 27.1 -15.8 38.3 0.05 38.3 15.9 38.3 27.1 27.1 38.3 15.9 38.3 0.05 38.3 -15.85 27.1 -27.05 M9.95 -9.9 Q14.1 -5.8 14.1 0.05 14.1 5.85 9.95 9.95 5.85 14.05 0.05 14.05 -5.8 14.05 -9.9 9.95 -14.05 5.85 -14.05 0.05 -14.05 -5.8 -9.9 -9.9 -5.8 -14.05 0.05 -14.05 5.85 -14.05 9.95 -9.9 M45.2 -45.1 Q63.85 -26.45 63.85 0.05 63.85 26.4 45.2 45.2 26.5 63.85 0.05 63.85 -26.45 63.85 -45.1 45.2 -63.8 26.4 -63.8 0.05 -63.8 -26.45 -45.1 -45.1 -26.45 -63.8 0.05 -63.8 26.5 -63.8 45.2 -45.1" fill="#ffffff" fill-opacity="0.0" fill-rule="evenodd" stroke="none"/>
    <path d="M27.1 -27.05 Q38.3 -15.85 38.3 0.05 38.3 15.9 27.1 27.1 15.9 38.3 0.05 38.3 -15.8 38.3 -27.05 27.1 -38.25 15.9 -38.25 0.05 -38.25 -15.85 -27.05 -27.05 -15.8 -38.35 0.05 -38.35 15.85 -38.35 27.1 -27.05 M9.95 -9.9 Q14.1 -5.8 14.1 0.05 14.1 5.85 9.95 9.95 5.85 14.05 0.05 14.05 -5.8 14.05 -9.9 9.95 -14.05 5.85 -14.05 0.05 -14.05 -5.8 -9.9 -9.9 -5.8 -14.05 0.05 -14.05 5.85 -14.05 9.95 -9.9 M45.2 -45.1 Q63.85 -26.45 63.85 0.05 63.85 26.4 45.2 45.2 26.5 63.85 0.05 63.85 -26.45 63.85 -45.1 45.2 -63.8 26.4 -63.8 0.05 -63.8 -26.45 -45.1 -45.1 -26.45 -63.8 0.05 -63.8 26.5 -63.8 45.2 -45.1" fill="none" stroke="#000000" stroke-linecap="butt" stroke-linejoin="miter-clip" stroke-miterlimit="10.0" stroke-width="1.0"/>
  </g>
</svg>
