<?xml version="1.0" encoding="UTF-8" standalone="no"?>
<svg xmlns:xlink="http://www.w3.org/1999/xlink" height="44.45px" width="1236.55px" xmlns="http://www.w3.org/2000/svg">
  <g transform="matrix(1.0, 0.0, 0.0, 1.0, 618.0, 22.25)">
    <path d="M-614.0 -10.5 Q-610.0 -13.95 -604.4 -13.95 L-601.4 -13.95 Q-595.8 -13.95 -591.8 -10.5 -587.9 -7.05 -587.9 -2.25 -587.9 2.6 -591.8 6.0 -595.8 9.45 -601.4 9.45 L-604.4 9.45 Q-610.0 9.45 -614.0 6.0 -618.0 2.6 -618.0 -2.25 -618.0 -7.05 -614.0 -10.5" fill="#ffffff" fill-opacity="0.0" fill-rule="evenodd" stroke="none"/>
    <path d="M587.4 -21.15 L601.0 -21.75 Q606.6 -15.25 610.65 -6.1 616.05 6.1 618.0 21.7 L601.4 21.4 Q600.5 15.75 598.25 7.55 593.85 -8.8 587.4 -21.15" fill="#ffffff" fill-opacity="0.0" fill-rule="evenodd" stroke="none"/>
    <path d="M587.4 -21.15 Q593.85 -8.8 598.25 7.55 600.5 15.75 601.4 21.4 L618.0 21.7 Q616.05 6.1 610.65 -6.1 606.6 -15.25 601.0 -21.75 L587.4 -21.15 Z" fill="none" stroke="#000000" stroke-linecap="butt" stroke-linejoin="miter-clip" stroke-miterlimit="10.0" stroke-opacity="0.6" stroke-width="1.0"/>
  </g>
</svg>
