<?xml version="1.0" encoding="UTF-8" standalone="no"?>
<svg xmlns:xlink="http://www.w3.org/1999/xlink" height="12.1px" width="164.5px" xmlns="http://www.w3.org/2000/svg">
  <g transform="matrix(1.0, 0.0, 0.0, 1.0, 82.25, 6.05)">
    <path d="M41.85 -5.55 L41.85 5.55 17.4 5.55 17.4 -5.55 41.85 -5.55 M58.95 5.55 L58.95 -5.55 81.75 -5.55 81.75 5.55 58.95 5.55 M-36.05 -5.55 L-12.15 -5.55 -12.15 5.55 -36.05 5.55 -36.05 -5.55 M-54.75 5.55 L-81.75 5.55 -81.75 -5.55 -54.75 -5.55 -54.75 5.55" fill="#ffffff" fill-opacity="0.0" fill-rule="evenodd" stroke="none"/>
    <path d="M17.4 -5.55 L17.4 5.55 -12.15 5.55 -12.15 -5.55 17.4 -5.55" fill="#000000" fill-opacity="0.4" fill-rule="evenodd" stroke="none"/>
    <path d="M41.85 -5.55 L58.95 -5.55 58.95 5.55 41.85 5.55 41.85 -5.55 M-54.75 -5.55 L-36.05 -5.55 -36.05 5.55 -54.75 5.55 -54.75 -5.55" fill="#ffffff" fill-rule="evenodd" stroke="none"/>
    <path d="M58.95 -5.55 L41.85 -5.55 41.85 5.55 58.95 5.55 58.95 -5.55 81.75 -5.55 81.75 5.55 58.95 5.55 M41.85 -5.55 L17.4 -5.55 17.4 5.55 41.85 5.55 M-36.05 -5.55 L-12.15 -5.55 17.4 -5.55 M-54.75 -5.55 L-36.05 -5.55 -36.05 5.55 -12.15 5.55 -12.15 -5.55 M-54.75 5.55 L-81.75 5.55 -81.75 -5.55 -54.75 -5.55 -54.75 5.55 -36.05 5.55 M17.4 5.55 L-12.15 5.55" fill="none" stroke="#000000" stroke-linecap="round" stroke-linejoin="miter-clip" stroke-miterlimit="10.0" stroke-width="1.0"/>
  </g>
</svg>
