<?xml version="1.0" encoding="UTF-8" standalone="no"?>
<svg xmlns:xlink="http://www.w3.org/1999/xlink" height="154.2px" width="404.1px" xmlns="http://www.w3.org/2000/svg">
  <g transform="matrix(1.0, 0.0, 0.0, 1.0, 202.4, 77.55)">
    <path d="M-193.45 -76.15 L-153.45 -76.15 Q-150.25 -76.15 -148.0 -73.4 -145.65 -70.55 -145.65 -66.65 -145.65 -62.75 -148.0 -59.95 -150.25 -57.2 -153.45 -57.2 L-193.45 -57.2 Q-196.65 -57.2 -198.9 -59.95 -201.15 -62.75 -201.15 -66.65 -201.15 -70.6 -198.9 -73.4 -196.65 -76.15 -193.45 -76.15" fill="#ffffff" fill-opacity="0.0" fill-rule="evenodd" stroke="none"/>
    <path d="M-193.45 -76.15 L-153.45 -76.15 Q-150.25 -76.15 -148.0 -73.4 -145.65 -70.55 -145.65 -66.65 -145.65 -62.75 -148.0 -59.95 -150.25 -57.2 -153.45 -57.2 L-193.45 -57.2 Q-196.65 -57.2 -198.9 -59.95 -201.15 -62.75 -201.15 -66.65 -201.15 -70.6 -198.9 -73.4 -196.65 -76.15 -193.45 -76.15 Z" fill="none" stroke="#000000" stroke-linecap="butt" stroke-linejoin="miter-clip" stroke-miterlimit="10.0" stroke-width="1.0"/>
    <path d="M176.75 39.2 Q177.35 33.25 180.35 28.85 L183.2 25.7 190.85 31.85 Q198.6 39.05 199.25 44.65 200.25 53.65 201.2 75.65 L172.25 76.15 176.75 39.2" fill="#ffffff" fill-opacity="0.0" fill-rule="evenodd" stroke="none"/>
    <path d="M176.75 39.2 L172.25 76.15 201.2 75.65 Q200.25 53.65 199.25 44.65 198.6 39.05 190.85 31.85 L183.2 25.7 180.35 28.85 Q177.35 33.25 176.75 39.2 Z" fill="none" stroke="#000000" stroke-linecap="butt" stroke-linejoin="miter-clip" stroke-miterlimit="10.0" stroke-opacity="0.6" stroke-width="1.0"/>
  </g>
</svg>
