<?xml version="1.0" encoding="UTF-8" standalone="no"?>
<svg xmlns:xlink="http://www.w3.org/1999/xlink" height="199.6px" width="362.55px" xmlns="http://www.w3.org/2000/svg">
  <g transform="matrix(1.0, 0.0, 0.0, 1.0, 181.4, 101.45)">
    <path d="M-153.1 -44.4 Q-152.55 -36.15 -152.65 -27.45 -163.2 -36.0 -162.3 -46.75 -161.7 -54.75 -156.75 -58.8 -154.05 -61.0 -153.1 -44.4" fill="#ffffff" fill-opacity="0.0" fill-rule="evenodd" stroke="none"/>
    <path d="M-153.1 -44.4 Q-154.05 -61.0 -156.75 -58.8 -161.7 -54.75 -162.3 -46.75 -163.2 -36.0 -152.65 -27.45 -152.55 -36.15 -153.1 -44.4" fill="none" stroke="#000000" stroke-linecap="butt" stroke-linejoin="miter-clip" stroke-miterlimit="10.0" stroke-width="1.0"/>
    <path d="M-82.6 -87.9 L-74.95 -91.95 Q-66.15 -96.15 -60.85 -97.15 L-2.55 -100.0 Q62.7 -102.15 97.35 -99.25 L114.05 -97.5 Q131.55 -94.65 135.3 -88.8 L141.65 -82.05 Q149.4 -73.6 156.05 -64.9 177.5 -36.85 180.65 -16.65 L178.1 -6.15 Q173.7 6.0 164.3 14.3 161.55 14.6 157.45 16.25 149.15 19.55 142.1 26.4 119.6 48.2 117.8 96.8 L2.5 96.6 Q1.35 90.9 0.15 83.55 -2.2 68.85 -2.2 60.75 -2.2 52.55 0.35 14.9 1.55 -3.9 2.85 -21.1 L14.85 -98.7 M-161.4 -30.25 L-170.7 -17.25 Q-180.1 -3.75 -180.4 -1.0 -180.7 1.8 -180.55 40.2 L-180.4 79.5 Q-180.4 80.75 -178.75 88.4 L-177.1 95.85" fill="none" stroke="#000000" stroke-linecap="butt" stroke-linejoin="miter-clip" stroke-miterlimit="10.0" stroke-opacity="0.8" stroke-width="1.0"/>
  </g>
</svg>
