<?xml version="1.0" encoding="UTF-8" standalone="no"?>
<svg xmlns:xlink="http://www.w3.org/1999/xlink" height="13.25px" width="158.5px" xmlns="http://www.w3.org/2000/svg">
  <g transform="matrix(1.0, 0.0, 0.0, 1.0, 79.25, 6.65)">
    <path d="M-78.75 -6.15 L78.75 -6.15 78.75 6.1 -78.75 6.1 -78.75 -6.15" fill="#ffffff" fill-opacity="0.0" fill-rule="evenodd" stroke="none"/>
    <path d="M-78.75 -6.15 L78.75 -6.15 78.75 6.1 -78.75 6.1 -78.75 -6.15 Z" fill="none" stroke="#000000" stroke-linecap="butt" stroke-linejoin="miter-clip" stroke-miterlimit="10.0" stroke-width="1.0"/>
    <path d="M40.2 6.05 L40.2 -6.15 56.7 -6.15 56.7 6.1 40.2 6.1 40.2 6.05 M-34.8 6.1 L-52.8 6.1 -52.8 -6.15 -34.8 -6.15 -34.8 5.9 -34.8 6.1" fill="#ffffff" fill-rule="evenodd" stroke="none"/>
    <path d="M40.2 6.1 L56.7 6.1 56.7 -6.15 40.2 -6.15 40.2 6.05 M-34.8 6.1 L-52.8 6.1 -52.8 -6.15 -34.8 -6.15 -34.8 5.9" fill="none" stroke="#000000" stroke-linecap="butt" stroke-linejoin="miter-clip" stroke-miterlimit="10.0" stroke-width="1.0"/>
    <path d="M16.7 -6.15 L16.7 6.1 -11.8 6.1 -11.8 -6.15 16.7 -6.15" fill="#000000" fill-opacity="0.4" fill-rule="evenodd" stroke="none"/>
    <path d="M16.7 -6.15 L-11.8 -6.15 -11.8 6.1 16.7 6.1 16.7 -6.15 Z" fill="none" stroke="#000000" stroke-linecap="butt" stroke-linejoin="miter-clip" stroke-miterlimit="10.0" stroke-width="1.0"/>
  </g>
</svg>
