<?xml version="1.0" encoding="UTF-8" standalone="no"?>
<svg xmlns:xlink="http://www.w3.org/1999/xlink" height="6.9px" width="53.8px" xmlns="http://www.w3.org/2000/svg">
  <g transform="matrix(1.0, 0.0, 0.0, 1.0, 26.95, 3.5)">
    <path d="M-24.45 -1.6 L-26.2 -1.7 -26.4 -2.3 -26.1 -2.9 -24.3 -2.8 -9.15 -2.3 4.1 -1.75 25.7 -0.25 Q26.35 0.5 26.35 1.25 L26.2 1.9 25.45 2.9 3.85 1.35 -9.3 0.05 -24.45 -1.6" fill="#ffffff" fill-opacity="0.0" fill-rule="evenodd" stroke="none"/>
    <path d="M-24.45 -1.6 L-9.3 0.05 3.85 1.35 25.45 2.9 26.2 1.9 26.35 1.25 Q26.35 0.5 25.7 -0.25 L4.1 -1.75 -9.15 -2.3 -24.3 -2.8 -26.1 -2.9 -26.4 -2.3 -26.2 -1.7 -24.45 -1.6 Z" fill="none" stroke="#000000" stroke-linecap="butt" stroke-linejoin="miter-clip" stroke-miterlimit="10.0" stroke-opacity="0.8" stroke-width="1.0"/>
    <path d="M25.05 1.05 L-25.95 -2.5 25.1 0.15 25.05 1.05" fill="#ffffff" fill-opacity="0.8" fill-rule="evenodd" stroke="none"/>
  </g>
</svg>
