<?xml version="1.0" encoding="UTF-8" standalone="no"?>
<svg xmlns:xlink="http://www.w3.org/1999/xlink" height="155.05px" width="272.8px" xmlns="http://www.w3.org/2000/svg">
  <g transform="matrix(1.0, 0.0, 0.0, 1.0, 136.6, 77.5)">
    <path d="M-133.5 -72.25 Q-131.55 -76.2 -128.85 -76.85 -124.25 -78.05 -121.6 -70.65 -120.25 -67.0 -119.8 -63.05 L-119.65 -59.85 Q-119.6 -56.1 -120.1 -53.25 -121.8 -44.15 -128.7 -47.55 -132.6 -49.5 -134.4 -54.2 -136.0 -58.35 -135.7 -63.55 -135.4 -68.5 -133.5 -72.25" fill="#000000" fill-opacity="0.2" fill-rule="evenodd" stroke="none"/>
    <path d="M-133.5 -72.25 Q-135.4 -68.5 -135.7 -63.55 -136.0 -58.35 -134.4 -54.2 -132.6 -49.5 -128.7 -47.55 -121.8 -44.15 -120.1 -53.25 -119.6 -56.1 -119.65 -59.85 L-119.8 -63.05 Q-120.25 -67.0 -121.6 -70.65 -124.25 -78.05 -128.85 -76.85 -131.55 -76.2 -133.5 -72.25 Z" fill="none" stroke="#000000" stroke-linecap="butt" stroke-linejoin="miter-clip" stroke-miterlimit="10.0" stroke-width="1.0"/>
    <path d="M48.8 39.0 Q49.1 52.65 48.9 56.2 48.2 66.8 44.75 69.35 40.9 72.25 27.5 73.2 14.5 74.15 8.3 72.45 3.45 71.1 -2.8 68.7 L-8.1 66.55 11.05 14.9 14.6 13.3 Q18.95 11.55 23.2 10.6 36.7 7.6 43.65 14.25 L46.15 23.1 Q48.7 33.15 48.8 39.0" fill="#000000" fill-opacity="0.4" fill-rule="evenodd" stroke="none"/>
    <path d="M48.8 39.0 Q49.1 52.65 48.9 56.2 48.2 66.8 44.75 69.35 40.9 72.25 27.5 73.2 14.5 74.15 8.3 72.45 3.45 71.1 -2.8 68.7 L-8.1 66.55 11.05 14.9 14.6 13.3 Q18.95 11.55 23.2 10.6 36.7 7.6 43.65 14.25 L46.15 23.1 Q48.7 33.15 48.8 39.0 Z" fill="none" stroke="#000000" stroke-linecap="butt" stroke-linejoin="miter-clip" stroke-miterlimit="10.0" stroke-width="1.0"/>
    <path d="M127.3 4.0 L135.7 34.9 135.35 39.75 Q134.45 45.2 132.1 48.15 129.75 51.15 126.65 59.7 125.05 64.05 123.95 67.75 99.25 76.0 93.85 76.9 L83.25 76.25 76.7 74.9 Q73.25 70.15 74.9 65.85 75.4 64.5 76.4 63.35 L77.25 62.5 Q84.15 60.35 85.7 57.65 L87.15 54.0 Q88.2 50.75 89.4 48.25 92.15 42.35 83.4 30.5 80.65 26.8 77.1 22.95 L74.05 19.8 Q80.15 9.5 104.35 5.7 116.45 3.85 127.3 4.0" fill="#000000" fill-opacity="0.4" fill-rule="evenodd" stroke="none"/>
    <path d="M127.3 4.0 Q116.45 3.85 104.35 5.7 80.15 9.5 74.05 19.8 L77.1 22.95 Q80.65 26.8 83.4 30.5 92.15 42.35 89.4 48.25 88.2 50.75 87.15 54.0 L85.7 57.65 Q84.15 60.35 77.25 62.5 L76.4 63.35 Q75.4 64.5 74.9 65.85 73.25 70.15 76.7 74.9 L83.25 76.25 93.85 76.9 Q99.25 76.0 123.95 67.75 125.05 64.05 126.65 59.7 129.75 51.15 132.1 48.15 134.45 45.2 135.35 39.75 L135.7 34.9 127.3 4.0 Z" fill="none" stroke="#000000" stroke-linecap="butt" stroke-linejoin="miter-clip" stroke-miterlimit="10.0" stroke-width="1.0"/>
  </g>
</svg>
