<?xml version="1.0" encoding="UTF-8" standalone="no"?>
<svg xmlns:xlink="http://www.w3.org/1999/xlink" height="27.05px" width="71.3px" xmlns="http://www.w3.org/2000/svg">
  <g transform="matrix(1.0, 0.0, 0.0, 1.0, 35.65, 13.65)">
    <path d="M-16.2 -8.65 L-16.45 -7.5 Q-16.45 -4.75 -11.65 -2.8 -6.85 -0.85 0.0 -0.85 6.8 -0.85 11.65 -2.8 16.45 -4.75 16.45 -7.5 L16.35 -8.25 Q19.0 -10.0 21.4 -12.4 L21.6 -12.6 21.75 -12.5 Q27.2 -9.65 27.2 -5.9 27.2 -1.35 19.2 1.85 11.25 5.1 0.0 5.1 -11.3 5.1 -19.25 1.85 -27.2 -1.35 -27.2 -5.9 -27.2 -9.65 -21.85 -12.5 L-21.15 -12.85 -20.7 -12.4 Q-18.55 -10.25 -16.2 -8.65 M-23.85 -7.2 Q-21.25 -8.75 -17.7 -8.6 L-20.65 -10.75 -23.2 -9.9 Q-25.75 -8.5 -25.75 -5.65 -25.15 -6.45 -23.85 -7.2" fill="#ffffff" fill-opacity="0.2" fill-rule="evenodd" stroke="none"/>
    <path d="M-27.65 -8.05 Q-28.3 -7.2 -28.2 -5.8 L-27.9 -4.55 Q-31.45 -3.4 -33.1 -1.45 -33.95 -0.45 -34.1 0.25 -34.25 -4.1 -30.95 -6.5 -29.95 -7.25 -28.7 -7.7 L-27.65 -8.05 M-23.85 -7.2 Q-25.15 -6.45 -25.75 -5.65 -25.75 -8.5 -23.2 -9.9 L-20.65 -10.75 -17.7 -8.6 Q-21.25 -8.75 -23.85 -7.2" fill="#ffffff" fill-opacity="0.8" fill-rule="evenodd" stroke="none"/>
    <path d="M-21.85 -12.5 Q-27.2 -9.65 -27.2 -5.9 -27.2 -1.35 -19.25 1.85 -11.3 5.1 0.0 5.1 11.25 5.1 19.2 1.85 27.2 -1.35 27.2 -5.9 27.2 -9.65 21.75 -12.5 L24.85 -11.4 Q35.15 -7.2 35.15 -1.35 35.15 4.55 24.85 8.7 14.55 12.9 0.0 12.9 -14.55 12.9 -24.85 8.7 -35.15 4.55 -35.15 -1.35 -35.15 -7.2 -24.85 -11.4 L-21.85 -12.5 M-27.65 -8.05 L-28.7 -7.7 Q-29.95 -7.25 -30.95 -6.5 -34.25 -4.1 -34.1 0.25 -33.95 -0.45 -33.1 -1.45 -31.45 -3.4 -27.9 -4.55 L-28.2 -5.8 Q-28.3 -7.2 -27.65 -8.05" fill="#ffffff" fill-opacity="0.0" fill-rule="evenodd" stroke="none"/>
    <path d="M16.35 -8.25 L16.45 -7.5 Q16.45 -4.75 11.65 -2.8 6.8 -0.85 0.0 -0.85 -6.85 -0.85 -11.65 -2.8 -16.45 -4.75 -16.45 -7.5 L-16.2 -8.65 Q-9.0 -3.65 0.35 -3.65 9.3 -3.65 16.35 -8.25" fill="#302e2f" fill-opacity="0.2" fill-rule="evenodd" stroke="none"/>
    <path d="M16.35 -8.25 L16.45 -7.5 Q16.45 -4.75 11.65 -2.8 6.8 -0.85 0.0 -0.85 -6.85 -0.85 -11.65 -2.8 -16.45 -4.75 -16.45 -7.5 L-16.2 -8.65 M-21.15 -12.85 L-21.85 -12.5 -24.85 -11.4 Q-35.15 -7.2 -35.15 -1.35 -35.15 4.55 -24.85 8.7 -14.55 12.9 0.0 12.9 14.55 12.9 24.85 8.7 35.15 4.55 35.15 -1.35 35.15 -7.2 24.85 -11.4 L21.75 -12.5 21.6 -12.6" fill="none" stroke="#000000" stroke-linecap="butt" stroke-linejoin="miter-clip" stroke-miterlimit="10.0" stroke-width="1.0"/>
    <path d="M-21.85 -12.5 Q-27.2 -9.65 -27.2 -5.9 -27.2 -1.35 -19.25 1.85 -11.3 5.1 0.0 5.1 11.25 5.1 19.2 1.85 27.2 -1.35 27.2 -5.9 27.2 -9.65 21.75 -12.5" fill="none" stroke="#000000" stroke-linecap="butt" stroke-linejoin="miter-clip" stroke-miterlimit="10.0" stroke-opacity="0.6" stroke-width="1.0"/>
  </g>
</svg>
