<?xml version="1.0" encoding="UTF-8" standalone="no"?>
<svg xmlns:xlink="http://www.w3.org/1999/xlink" height="92.8px" width="92.7px" xmlns="http://www.w3.org/2000/svg">
  <g transform="matrix(1.0, 0.0, 0.0, 1.0, 46.2, 46.55)">
    <path d="M20.45 -37.95 L20.5 -37.95 21.25 -35.55 20.45 -37.95 21.25 -35.55 21.5 -34.8 22.2 -32.55 22.25 -32.35 21.5 -32.5 20.3 -32.75 16.2 -33.6 15.0 -33.8 14.6 -35.75 14.5 -36.15 14.6 -35.75 15.0 -33.8 14.95 -33.8 14.5 -36.15 13.75 -39.7 15.45 -39.35 20.45 -37.95 M22.25 -32.3 L22.25 -32.35 23.05 -32.1 23.3 -32.05 24.3 -31.8 28.2 -30.7 29.55 -27.1 30.45 -24.55 31.2 -21.95 31.2 -21.9 24.5 -23.15 24.5 -23.2 22.25 -32.3 23.05 -32.1 22.25 -32.3 M6.95 -34.8 L14.95 -33.8 16.5 -24.2 7.95 -24.75 8.5 -17.6 8.7 -14.55 8.7 -14.25 8.75 -13.65 8.85 -12.0 7.4 -11.95 0.0 -11.9 0.0 -24.8 2.65 -24.85 7.95 -24.75 6.95 -34.8 M0.0 -35.1 L0.0 -24.85 0.0 -24.8 -2.55 -24.75 0.0 -24.85 -2.55 -24.75 -5.6 -24.65 -6.9 -24.6 -6.85 -25.4 -6.8 -26.05 -6.85 -25.4 -6.9 -24.6 -6.95 -24.6 -6.95 -24.55 -15.1 -23.9 -15.45 -23.85 -15.1 -23.9 -6.95 -24.55 -7.3 -19.45 -7.65 -14.3 -7.7 -13.15 -7.8 -11.65 -9.15 -11.6 -11.8 -11.5 -16.0 -11.3 -16.75 -11.25 -16.8 -11.25 -16.15 -17.95 -15.65 -22.45 -15.45 -23.85 -15.45 -23.9 -6.95 -24.6 -6.85 -25.4 -6.8 -25.95 -6.8 -26.05 -6.65 -27.4 -6.15 -32.7 -6.1 -32.85 -6.1 -33.0 -6.0 -33.85 -5.9 -35.0 -4.6 -35.05 -1.7 -35.1 0.0 -35.1 M31.2 -21.95 L24.5 -23.2 31.2 -21.95 M31.25 -21.9 L38.2 -20.15 40.0 -14.65 40.5 -12.65 40.65 -12.0 40.7 -11.85 40.65 -12.0 40.5 -12.65 40.7 -11.85 40.8 -11.35 40.85 -11.2 40.9 -10.95 41.15 -9.65 40.25 -9.75 40.1 -9.8 39.8 -9.85 39.4 -9.9 33.7 -10.7 33.7 -10.85 33.55 -11.75 33.4 -12.6 33.1 -14.4 32.45 -17.35 32.2 -18.25 32.05 -18.8 31.85 -19.6 31.65 -20.45 31.2 -21.9 31.25 -21.9 31.65 -20.45 31.25 -21.9 M38.3 21.55 L38.3 21.6 31.4 23.4 31.4 23.35 31.4 23.4 38.3 21.6 37.95 22.4 37.6 23.2 34.15 29.65 33.85 30.15 33.4 30.85 33.35 30.95 33.3 30.95 33.25 31.0 32.9 31.1 32.6 31.2 32.35 31.3 31.5 31.65 27.95 32.85 27.6 32.95 28.35 31.35 30.95 24.75 31.05 24.4 31.35 23.4 31.35 23.35 31.4 23.35 38.3 21.55 M31.05 24.4 L31.4 23.4 31.35 23.4 31.4 23.4 31.05 24.4 M-8.05 14.25 L-8.05 14.3 -10.55 14.2 -8.05 14.3 -7.5 24.25 -7.45 24.9 -7.4 25.4 -7.3 26.4 -12.55 26.0 -14.5 25.85 -15.65 25.7 -15.85 25.7 -15.65 25.7 -14.5 25.85 -15.85 25.7 -16.2 22.85 -17.05 14.0 -14.05 14.1 -12.3 14.15 -10.75 14.2 -10.55 14.2 -8.05 14.25 M33.85 30.15 L33.3 30.95 32.9 31.1 33.3 30.95 33.85 30.15 M-5.2 -41.0 L-5.4 -39.3 -5.55 -38.0 -5.75 -36.6 -5.9 -35.0 -5.75 -36.6 -5.55 -38.0 -5.6 -37.4 -5.9 -35.0 -11.65 -34.5 -13.0 -34.3 -13.85 -34.25 -13.35 -36.8 -12.65 -40.0 -13.35 -36.8 -12.75 -40.0 -12.65 -40.0 -5.2 -41.0 M-13.85 -34.25 L-13.85 -34.2 -15.7 -33.95 -16.1 -33.85 -15.7 -33.95 -13.85 -34.2 -15.45 -23.9 -17.5 -23.65 -23.1 -22.85 -23.35 -22.85 -22.65 -26.15 -21.3 -31.65 -20.9 -33.0 -21.3 -31.65 -20.95 -33.0 -20.9 -33.0 -17.55 -33.65 -17.25 -33.7 -16.45 -33.85 -16.3 -33.85 -16.25 -33.85 -16.1 -33.85 -15.5 -34.0 -14.85 -34.1 -13.85 -34.25 M-17.25 -33.7 L-16.3 -33.85 -17.25 -33.7 M-25.3 -10.7 L-24.65 -10.7 -16.8 -11.25 -17.35 1.3 -26.1 1.3 Q-26.0 -4.55 -25.3 -10.65 L-24.65 -10.7 -25.3 -10.65 -25.3 -10.7 M-42.15 1.25 L-35.05 1.25 -34.8 7.2 -34.1 13.0 -34.15 13.0 -34.8 7.2 -34.15 13.0 -34.25 13.0 -38.5 12.75 -41.1 12.5 -38.5 12.75 -41.1 12.55 -41.1 12.5 Q-42.15 7.45 -42.15 1.25 M-16.15 -17.95 L-16.45 -14.85 -16.75 -11.25 -16.45 -14.85 -16.15 -17.95 M-7.45 24.9 L-7.3 26.4 -7.45 24.9 M-38.35 21.5 L-34.45 22.5 -31.75 23.1 -31.75 23.15 -34.1 22.6 -34.45 22.5 -34.1 22.6 -31.75 23.15 -30.0 28.0 -27.9 32.8 -27.9 32.85 -27.95 32.8 -27.9 32.8 -27.95 32.8 -27.9 32.85 -29.8 32.35 -30.4 32.15 -32.9 31.45 Q-36.05 26.95 -38.35 21.5 M-30.0 28.0 L-27.95 32.8 -29.8 32.35 -27.95 32.8 -30.0 28.0" fill="#ffffff" fill-opacity="0.29803923" fill-rule="evenodd" stroke="none"/>
    <path d="M20.5 -37.95 L20.45 -37.95 19.25 -41.45 20.45 -37.95 15.45 -39.35 13.75 -39.7 14.5 -36.15 14.95 -33.8 6.95 -34.8 6.75 -36.55 6.15 -40.85 6.75 -36.55 6.95 -34.8 0.0 -35.1 6.95 -34.8 7.95 -24.75 2.65 -24.85 0.0 -24.8 0.0 -24.85 0.0 -35.1 0.0 -41.15 6.15 -40.85 6.2 -40.85 13.05 -39.85 13.75 -39.7 13.3 -41.8 12.8 -43.85 12.8 -43.9 13.5 -43.65 13.7 -43.6 14.25 -43.4 15.7 -42.9 16.75 -42.5 17.3 -42.3 19.05 -41.6 19.25 -41.45 Q21.95 -40.2 24.45 -38.6 L25.65 -36.15 20.5 -37.95 25.65 -36.15 24.45 -38.6 Q27.65 -36.6 30.5 -34.05 L25.65 -36.15 27.65 -32.05 28.2 -30.7 27.65 -32.05 25.65 -36.15 30.5 -34.05 32.1 -32.55 34.35 -28.6 28.2 -30.7 34.35 -28.6 32.1 -32.55 32.15 -32.5 32.35 -32.3 34.05 -30.5 35.8 -28.45 36.2 -27.9 37.85 -25.65 38.7 -24.3 41.5 -19.2 38.2 -20.2 38.2 -20.15 38.2 -20.2 41.5 -19.2 41.85 -18.45 42.15 -17.75 Q43.75 -13.95 44.65 -10.0 L44.85 -8.9 45.1 -7.65 45.7 -2.0 45.75 0.05 45.75 1.25 42.3 1.3 42.2 -1.35 42.3 1.3 45.75 1.25 45.7 2.5 45.6 3.7 Q45.25 8.05 44.1 12.3 L41.15 12.8 Q40.15 17.25 38.35 21.55 L38.3 21.6 38.35 21.55 Q40.15 17.25 41.15 12.8 L44.1 12.3 42.15 17.85 41.35 19.7 40.8 20.8 38.35 21.55 37.6 23.2 38.35 21.55 40.8 20.8 39.95 22.35 Q37.3 27.1 34.0 30.65 L33.1 31.65 32.2 32.6 32.1 32.7 28.65 35.7 27.35 36.7 24.6 38.6 20.45 41.0 18.9 41.7 12.9 43.95 12.95 43.9 17.8 42.15 18.95 41.65 Q20.7 38.15 22.1 34.45 L15.2 35.7 15.2 35.65 15.2 35.7 22.1 34.45 Q20.7 38.15 18.95 41.65 L20.45 41.0 18.95 41.65 18.9 41.7 18.95 41.65 17.8 42.15 12.95 43.9 14.55 38.2 14.95 36.65 15.15 35.7 15.2 35.7 14.95 36.65 15.2 35.7 15.15 35.7 15.15 35.65 15.2 35.65 22.1 34.4 25.45 33.55 27.6 32.95 27.95 32.85 31.5 31.65 32.35 31.3 32.6 31.2 32.9 31.1 31.5 31.65 32.9 31.1 33.25 31.0 33.3 30.95 33.35 30.95 33.4 30.85 33.85 30.15 34.15 29.65 37.6 23.2 37.95 22.4 38.3 21.6 38.3 21.55 Q40.15 17.05 41.05 12.8 L41.15 12.8 Q42.35 7.2 42.3 1.3 L42.25 1.3 42.3 1.3 Q42.35 7.2 41.15 12.8 L41.05 12.8 Q42.25 6.9 42.25 1.3 L42.2 -1.35 42.0 -4.05 41.15 -9.6 41.15 -9.65 40.9 -10.95 40.85 -11.2 40.8 -11.35 40.7 -11.85 40.5 -12.65 40.0 -14.65 38.2 -20.15 31.25 -21.9 31.25 -21.95 31.2 -21.95 31.25 -21.95 31.25 -21.9 31.2 -21.9 31.2 -21.95 30.45 -24.55 29.55 -27.1 28.2 -30.7 24.3 -31.8 23.3 -32.05 23.05 -32.1 22.25 -32.35 22.2 -32.55 21.5 -34.8 21.25 -35.55 20.5 -37.95 M15.0 -33.8 L16.2 -33.6 20.3 -32.75 21.5 -32.5 22.25 -32.35 22.25 -32.3 21.5 -32.5 22.25 -32.3 24.5 -23.2 16.55 -24.2 15.0 -33.8 16.55 -24.2 24.5 -23.2 24.5 -23.15 16.55 -24.2 16.5 -24.2 17.85 -11.8 18.0 -10.1 18.5 1.35 9.3 1.35 9.25 -0.2 9.3 1.35 9.25 1.35 9.25 -0.2 9.25 -1.85 9.05 -7.5 8.95 -10.25 8.85 -11.95 8.85 -12.0 8.75 -13.65 8.7 -14.25 8.7 -14.55 8.5 -17.6 7.95 -24.75 16.5 -24.2 14.95 -33.8 15.0 -33.8 M21.5 -34.8 L21.85 -33.75 22.2 -32.55 21.85 -33.75 21.5 -34.8 M36.2 -27.9 L34.35 -28.6 35.3 -26.9 38.2 -20.2 31.25 -21.95 30.45 -24.55 31.25 -21.95 38.2 -20.2 35.3 -26.9 34.35 -28.6 36.2 -27.9 M17.3 -42.3 L17.8 -42.1 19.25 -41.45 17.8 -42.1 17.3 -42.3 M13.5 -43.65 L12.8 -43.85 13.5 -43.65 M0.0 -45.7 L0.0 -41.15 -5.15 -41.0 -5.2 -41.0 -4.85 -43.2 -5.15 -41.0 -4.85 -43.2 -4.55 -45.45 -3.2 -45.55 -3.2 -45.6 0.0 -45.7 M2.65 -24.85 L0.0 -24.85 2.65 -24.85 M-2.55 -24.75 L0.0 -24.8 0.0 -11.9 0.0 1.3 -4.35 1.3 -8.2 1.3 -8.1 -3.1 -8.1 -4.0 -7.8 -11.65 0.0 -11.9 -7.8 -11.65 -8.1 -4.0 -8.1 -3.1 -8.2 1.3 -4.35 1.3 0.0 1.3 0.0 1.35 0.0 14.45 -8.05 14.25 -8.2 1.3 -15.05 1.3 -16.15 1.3 -17.3 1.3 -16.75 -11.25 -17.3 1.3 -17.35 1.3 -16.8 -11.25 -16.75 -11.25 -16.0 -11.3 -11.8 -11.5 -9.15 -11.6 -7.8 -11.65 -7.7 -13.15 -7.65 -14.3 -7.3 -19.45 -6.95 -24.55 -6.95 -24.6 -6.9 -24.6 -5.6 -24.65 -2.55 -24.75 M-5.9 -35.0 L-6.0 -33.85 -6.1 -33.0 -6.1 -32.85 -6.15 -32.7 -6.65 -27.4 -6.8 -25.95 -6.85 -25.4 -6.95 -24.6 -15.45 -23.9 -13.85 -34.2 -13.85 -34.25 -13.0 -34.3 -11.65 -34.5 -5.9 -35.0 -6.1 -33.0 -5.9 -35.0 M33.7 -10.7 L28.5 -11.2 26.45 -11.35 26.2 -13.35 26.15 -13.55 26.1 -14.05 26.05 -14.35 26.0 -14.7 25.85 -15.7 24.5 -23.15 31.2 -21.9 31.65 -20.45 31.85 -19.6 32.05 -18.8 32.2 -18.25 32.45 -17.35 33.1 -14.4 33.4 -12.6 33.55 -11.75 33.7 -10.85 33.7 -10.7 M8.85 -11.95 L17.85 -11.8 8.85 -11.95 M33.4 -12.6 L33.0 -14.6 32.45 -17.35 33.0 -14.6 33.4 -12.6 M41.15 -9.6 L44.85 -8.9 41.15 -9.6 M25.45 14.2 L26.75 14.1 26.75 14.15 Q26.15 19.65 25.0 24.65 L17.05 25.8 17.0 25.8 8.45 26.45 9.2 14.55 8.45 26.45 8.4 26.45 1.7 26.65 0.0 26.65 0.0 14.5 0.0 14.45 1.65 14.5 0.0 14.5 1.65 14.5 9.15 14.55 9.2 14.55 18.15 14.45 18.2 14.45 19.45 14.45 25.45 14.2 26.75 14.15 25.45 14.2 M5.55 45.45 L3.5 45.65 0.0 45.75 0.0 36.55 1.1 36.55 0.0 36.55 0.0 36.5 1.1 36.55 1.45 36.55 1.65 36.55 2.35 36.55 3.35 36.55 4.6 36.5 7.2 36.4 7.2 36.45 3.35 36.55 7.2 36.45 7.0 38.1 5.55 45.45 M-25.0 38.35 Q-29.1 35.6 -32.15 32.6 L-33.8 30.8 -34.25 30.3 -34.85 29.6 -35.85 28.4 -36.15 28.0 -36.7 27.35 -37.75 25.9 -38.75 24.3 -40.75 20.8 -40.85 20.6 -42.1 17.85 -42.65 16.5 -44.05 12.3 -43.3 12.35 -41.15 12.55 -41.1 12.55 Q-40.0 17.5 -38.35 21.45 L-38.4 21.45 Q-40.2 17.1 -41.15 12.55 -40.2 17.1 -38.4 21.45 L-38.35 21.45 -38.35 21.5 Q-36.05 26.95 -32.9 31.45 L-30.4 32.15 -29.8 32.35 -27.9 32.85 -27.9 32.8 -30.0 28.0 -31.75 23.15 -31.75 23.1 -29.8 23.55 -23.85 24.6 Q-22.75 29.65 -21.0 34.35 L-21.35 34.3 -25.7 33.35 -26.55 33.15 -27.15 33.05 -27.2 33.0 -27.9 32.8 -27.2 33.0 -27.15 33.05 -27.9 32.85 -26.4 35.8 -25.0 38.3 Q-28.95 35.75 -32.3 32.35 L-32.4 32.25 -33.0 31.4 -32.9 31.45 -33.0 31.4 -32.4 32.25 -32.3 32.35 Q-28.95 35.75 -25.0 38.3 L-25.0 38.35 M-45.7 1.25 L-45.7 0.6 -45.7 0.05 -45.7 -0.6 -45.7 -0.9 -45.15 -6.9 -44.85 -8.9 -44.8 -8.9 -41.0 -9.3 -41.0 -9.25 -44.8 -8.9 -41.0 -9.25 Q-42.1 -3.9 -42.15 1.25 L-45.65 1.25 -45.7 1.25 M-41.55 -19.05 L-41.1 -19.95 -40.95 -20.25 -36.3 -27.75 -36.1 -28.0 -34.8 -29.55 -33.25 -31.3 -31.8 -32.8 -31.7 -32.9 -31.05 -33.55 -29.0 -35.25 -25.85 -37.65 -24.9 -38.3 -24.15 -38.75 -20.3 -40.9 -18.05 -41.95 Q-15.05 -43.25 -11.75 -44.15 L-12.75 -40.0 -13.3 -39.9 -19.2 -38.45 -18.05 -41.95 -19.2 -38.45 -13.3 -39.9 -12.75 -40.0 -13.35 -36.8 -13.85 -34.25 -13.55 -35.95 -13.35 -36.8 -13.55 -35.95 -13.85 -34.25 -14.85 -34.1 -15.6 -34.0 -16.15 -33.85 -16.3 -33.85 -16.15 -33.85 -16.25 -33.85 -16.3 -33.85 -16.45 -33.85 -17.25 -33.7 -17.55 -33.65 -20.9 -33.0 -20.6 -34.1 -19.2 -38.45 -22.3 -37.45 -19.2 -38.45 -20.6 -34.1 -20.9 -33.0 -20.95 -33.0 -21.3 -31.65 -22.65 -26.15 -23.35 -22.85 -24.6 -22.65 -29.9 -21.75 -31.8 -21.35 -28.95 -29.75 -28.45 -30.95 -26.65 -31.5 -21.65 -32.8 -20.95 -33.0 -19.3 -38.4 -22.3 -37.45 -25.2 -36.35 -26.0 -36.0 -25.95 -36.0 -24.9 -38.25 -25.95 -36.0 -26.0 -36.0 -26.05 -35.95 -26.05 -36.0 -26.0 -36.0 -26.05 -36.0 -26.05 -35.95 -27.95 -32.05 -26.15 -35.95 -26.6 -35.7 -26.2 -35.9 -28.45 -31.0 -30.95 -30.15 -31.8 -29.8 -30.95 -30.15 -28.45 -31.0 -28.5 -30.95 -28.9 -30.8 -29.2 -30.7 -31.8 -29.8 -33.9 -28.95 -31.8 -32.8 -32.3 -32.3 -33.25 -31.3 -32.3 -32.3 -31.8 -32.8 -33.9 -28.95 -34.05 -28.9 -34.1 -28.8 -35.0 -27.1 -37.65 -20.9 -38.05 -19.95 -39.8 -19.45 -41.5 -19.05 -41.55 -19.05 M25.45 33.55 L22.1 34.45 22.1 34.4 22.1 34.45 25.45 33.55 M18.2 14.45 Q17.8 20.3 17.05 25.8 17.8 20.3 18.2 14.45 M8.9 19.1 L8.85 20.05 8.95 18.8 8.9 19.1 M0.0 26.65 L0.0 36.5 -6.15 36.25 -7.05 28.95 -7.3 26.4 0.0 26.65 M34.0 30.65 L33.95 30.7 33.35 30.95 33.95 30.7 34.0 30.65 M32.35 32.35 L33.25 31.0 32.35 32.35 33.95 30.7 32.35 32.35 32.2 32.6 32.35 32.35 28.65 35.7 32.35 32.35 M24.6 38.6 L27.6 32.95 24.6 38.6 M-41.1 -19.95 L-41.5 -19.05 -41.1 -19.95 M-45.15 -6.9 L-44.8 -8.9 -45.15 -6.9 M-13.0 -34.3 L-13.85 -34.2 -13.0 -34.3 M-5.6 -24.65 L-6.9 -24.55 -6.9 -24.6 -6.9 -24.55 -5.6 -24.65 M-24.9 -38.3 L-24.9 -38.25 -24.9 -38.3 M-24.9 -38.25 L-24.15 -38.75 -24.9 -38.25 -25.85 -37.65 -24.9 -38.25 M-29.0 -35.25 L-30.95 -33.6 -31.05 -33.55 -30.95 -33.6 -29.0 -35.25 M-31.7 -32.9 L-30.95 -33.6 -31.7 -32.9 M-30.95 -33.6 L-26.3 -35.9 -26.15 -35.95 -26.3 -35.9 -30.95 -33.6 M-34.1 -28.8 L-36.1 -28.0 -34.1 -28.8 M-26.15 -35.95 L-26.05 -35.95 -26.15 -35.95 M-25.85 10.55 L-26.0 7.5 -26.1 1.3 -17.35 1.3 -17.35 2.25 -17.35 2.55 -17.3 6.25 -17.05 13.95 -17.05 14.0 -16.2 22.85 -15.85 25.7 -17.9 25.45 -23.85 24.6 -24.9 19.15 -25.6 13.55 -17.05 13.95 -25.6 13.55 -25.85 10.55 M-7.3 -19.45 L-6.9 -24.55 -6.95 -24.55 -6.9 -24.55 -7.3 -19.45 M-29.8 23.55 L-31.75 23.15 -29.8 23.55 M-36.15 28.0 L-37.75 25.9 -36.15 28.0 M-33.3 31.3 L-33.0 31.4 -33.3 31.3 -32.4 32.25 -33.3 31.3 -33.8 30.8 -33.3 31.3 M-32.15 32.6 L-32.4 32.25 -32.15 32.6 M-33.0 31.4 Q-36.3 26.55 -38.4 21.45 -36.3 26.55 -33.0 31.4 M-45.65 1.25 L-45.7 0.6 -45.65 1.25 M-40.75 20.8 L-38.4 21.45 -40.75 20.8" fill="#ffffff" fill-opacity="0.0" fill-rule="evenodd" stroke="none"/>
    <path d="M11.55 -44.25 L12.8 -43.9 12.8 -43.85 11.55 -44.25 12.8 -43.85 13.3 -41.8 13.75 -39.7 13.05 -39.85 6.2 -40.85 6.15 -40.85 5.55 -45.35 6.15 -40.85 0.0 -41.15 0.0 -45.7 3.3 -45.55 4.8 -45.45 5.55 -45.35 6.25 -45.25 7.0 -45.15 7.5 -45.1 9.35 -44.75 11.1 -44.35 11.55 -44.25 M25.0 24.65 L25.05 24.65 31.35 23.35 31.35 23.4 25.05 24.7 25.05 24.65 25.05 24.7 31.35 23.4 31.05 24.4 30.95 24.75 28.35 31.35 27.6 32.95 25.45 33.55 22.1 34.4 22.6 33.1 24.6 26.5 24.75 25.85 25.05 24.7 25.0 24.7 25.05 24.7 24.75 25.85 25.0 24.7 25.0 24.65 M0.0 45.75 L-0.6 45.75 -3.5 45.65 -4.45 45.55 -5.45 45.45 -11.7 44.25 -13.25 43.8 -16.0 42.85 -16.4 42.7 -17.65 42.25 Q-21.55 40.65 -25.0 38.35 L-25.0 38.3 -26.4 35.8 -27.9 32.85 -27.15 33.05 -26.55 33.15 -25.7 33.35 -21.35 34.3 -21.0 34.35 -15.8 35.25 -15.35 35.3 -14.05 35.45 -14.05 35.5 -15.35 35.3 -14.05 35.5 -14.05 35.45 -6.15 36.25 0.0 36.5 0.0 36.55 0.0 45.75 M-4.45 45.55 L-6.15 36.3 0.0 36.55 -6.15 36.3 -4.45 45.55 M-11.7 44.25 L-14.05 35.5 -11.35 35.8 -6.15 36.3 -6.15 36.25 -6.15 36.3 -11.35 35.8 -14.05 35.5 -11.7 44.25 M-26.0 -36.0 L-25.2 -36.35 -22.3 -37.45 -19.3 -38.4 -20.95 -33.0 -21.65 -32.8 -26.65 -31.5 -28.4 -31.0 -26.65 -31.5 -28.45 -30.95 -28.4 -31.0 -27.95 -32.05 -26.05 -35.95 -26.0 -36.0 M-26.05 -36.0 L-26.05 -35.95 -26.05 -36.0 M-17.65 42.2 L-21.0 34.35 -17.65 42.2 -16.4 42.7 -17.65 42.2 -17.8 42.15 Q-21.6 40.55 -25.0 38.3 -21.6 40.55 -17.8 42.15 L-17.65 42.2 -17.65 42.25 -17.65 42.2" fill="#000000" fill-opacity="0.29803923" fill-rule="evenodd" stroke="none"/>
    <path d="M0.0 -11.9 L7.4 -11.95 8.85 -12.0 8.85 -11.95 8.95 -10.25 9.05 -7.5 9.25 -1.85 9.25 -0.2 9.25 1.35 9.3 1.35 18.5 1.35 18.0 -10.1 17.9 -11.8 26.45 -11.35 Q27.25 -4.85 27.35 1.3 27.25 -4.85 26.45 -11.35 L17.9 -11.8 18.0 -10.1 17.85 -11.8 16.5 -24.2 16.55 -24.2 17.6 -14.9 17.9 -11.8 17.85 -11.8 17.9 -11.8 17.6 -14.9 16.55 -24.2 24.5 -23.15 25.85 -15.7 26.0 -14.5 25.85 -15.7 26.0 -14.7 26.0 -14.5 26.05 -14.4 26.05 -14.35 26.1 -13.95 26.15 -13.55 26.2 -13.35 26.45 -11.35 28.5 -11.2 33.7 -10.7 Q34.5 -5.3 34.65 -0.15 L34.65 0.2 34.65 1.3 27.35 1.3 26.0 1.35 18.5 1.35 18.45 8.0 18.35 11.25 18.15 14.45 9.2 14.55 9.3 1.35 9.2 14.55 9.15 14.55 9.25 1.35 4.75 1.35 3.6 1.35 0.0 1.35 0.0 1.3 3.6 1.35 0.0 1.3 0.0 -11.9 M0.0 -41.15 L0.0 -35.1 -1.7 -35.1 -4.6 -35.05 -5.9 -35.0 -5.6 -37.4 -5.45 -38.5 -5.4 -39.3 -5.2 -41.0 -5.15 -41.0 -5.45 -38.5 -5.15 -41.0 0.0 -41.15 M7.4 -11.95 L8.85 -11.95 7.4 -11.95 M26.05 -14.4 L26.1 -13.95 26.05 -14.4 M42.25 1.3 Q42.25 6.9 41.05 12.8 L33.7 13.65 Q34.7 7.6 34.7 1.35 L36.15 1.3 34.7 1.35 Q34.7 7.6 33.7 13.65 L33.65 13.65 Q34.6 7.85 34.65 1.35 L34.65 1.3 34.7 1.3 34.7 1.35 34.65 1.35 34.7 1.35 34.7 1.3 36.15 1.3 42.25 1.3 M26.8 14.1 L29.75 13.95 32.7 13.75 33.65 13.65 Q32.7 19.0 31.35 23.35 L25.05 24.65 25.0 24.65 Q26.15 19.65 26.75 14.15 L26.75 14.1 26.8 14.1 26.8 14.15 29.75 13.95 26.8 14.15 26.8 14.1 M26.75 14.15 L26.8 14.15 Q26.2 19.55 25.05 24.65 26.2 19.55 26.8 14.15 L26.75 14.15 M8.45 26.45 L17.0 25.8 17.0 25.85 Q16.25 30.85 15.15 35.65 L7.25 36.4 8.45 26.5 8.4 26.5 8.45 26.5 7.25 36.4 7.2 36.4 8.4 26.5 8.4 26.45 8.45 26.45 8.45 26.5 17.0 25.85 8.45 26.5 8.45 26.45 M0.0 14.45 L0.0 14.5 -8.05 14.3 0.0 14.5 0.0 26.65 -7.3 26.4 -7.4 25.4 -7.45 24.9 -7.5 24.25 -8.05 14.3 -8.05 14.25 0.0 14.45 M-41.0 -9.3 L-40.85 -9.9 -40.75 -10.55 -40.7 -10.85 -40.65 -11.1 -40.55 -11.55 -40.45 -11.95 -40.25 -12.7 -40.45 -11.95 -40.55 -11.55 -40.45 -12.0 -40.25 -12.7 -38.15 -19.65 -38.05 -19.9 -37.65 -20.9 -38.05 -19.9 -34.25 -20.85 -31.8 -21.35 -34.25 -20.85 -38.05 -19.9 -38.05 -19.95 -37.65 -20.9 -35.0 -27.1 -33.95 -28.85 -34.1 -28.8 -33.95 -28.85 -35.0 -27.1 -34.1 -28.8 -34.05 -28.9 -33.9 -28.95 -33.95 -28.85 -31.8 -29.8 -33.95 -28.85 -33.9 -28.95 -31.8 -29.8 -29.2 -30.7 -28.9 -30.8 -28.45 -30.95 -28.95 -29.75 -31.8 -21.35 -33.25 -15.35 -33.4 -14.85 -33.45 -14.6 -34.25 -9.95 -35.0 -1.35 -35.05 1.25 -28.3 1.3 -27.2 1.3 -26.1 1.3 -26.0 7.5 -25.85 10.55 -25.65 13.55 -25.85 10.55 -25.6 13.55 -25.65 13.55 -27.25 13.45 -34.1 13.0 -34.8 7.2 -35.05 1.25 -42.15 1.25 Q-42.1 -3.9 -41.0 -9.25 L-41.0 -9.3 M-4.85 -43.2 L-5.2 -41.0 -12.65 -40.0 -11.75 -44.15 -12.65 -40.0 -12.75 -40.0 -11.75 -44.15 -4.55 -45.45 -4.85 -43.2 M-23.35 -22.85 L-23.1 -22.85 -17.5 -23.65 -15.45 -23.9 -15.45 -23.85 -15.65 -22.45 -16.15 -17.95 -16.8 -11.25 -24.65 -10.7 -25.3 -10.7 -25.1 -12.0 -24.95 -13.35 -24.85 -14.0 -24.65 -15.15 -24.5 -16.2 -24.1 -18.8 -23.7 -21.15 -23.35 -22.85 M-17.5 -23.65 L-15.45 -23.85 -17.5 -23.65 M-33.4 -14.85 L-31.8 -21.35 -33.4 -14.85 M-41.0 -9.25 L-35.25 -9.85 -34.25 -9.95 -35.25 -9.85 -41.0 -9.25 M-17.3 1.3 L-16.15 1.3 -15.05 1.3 -8.2 1.3 -8.05 14.25 -10.55 14.2 -10.75 14.2 -12.3 14.15 -14.05 14.1 -14.8 14.05 -17.05 13.95 -17.3 6.25 -17.35 2.55 -17.35 2.25 -17.35 1.3 -17.3 1.3 -17.35 2.25 -17.3 1.3 M-14.5 25.85 L-12.55 26.0 -7.3 26.4 -7.05 28.95 -6.15 36.25 -14.05 35.45 Q-15.15 30.7 -15.85 25.7 L-14.5 25.85 M-34.1 13.0 L-33.1 18.15 -31.75 23.1 -34.45 22.5 -38.35 21.5 -38.35 21.45 -34.45 22.5 -38.35 21.45 Q-40.0 17.5 -41.1 12.55 L-38.5 12.75 -34.25 13.0 -34.15 13.0 -33.1 18.15 -34.15 13.0 -34.1 13.0" fill="#000000" fill-opacity="0.2" fill-rule="evenodd" stroke="none"/>
    <path d="M27.35 1.3 L34.65 1.3 34.65 0.2 34.65 -0.15 Q34.5 -5.3 33.7 -10.7 L39.4 -9.9 39.8 -9.85 40.1 -9.8 40.25 -9.75 41.15 -9.65 41.15 -9.6 42.0 -4.05 42.2 -1.35 42.25 1.3 36.15 1.3 34.7 1.3 34.65 1.3 34.65 1.35 Q34.6 7.85 33.65 13.65 L32.7 13.75 29.75 13.95 26.8 14.1 27.25 7.7 26.8 14.1 26.75 14.1 27.25 7.7 27.35 1.35 34.65 1.35 27.35 1.35 27.35 1.3 M41.15 -9.6 L40.25 -9.75 41.15 -9.6 M41.05 12.8 Q40.15 17.05 38.3 21.55 L31.4 23.35 31.35 23.35 Q32.7 19.0 33.65 13.65 L33.7 13.65 41.05 12.8 M34.65 0.2 L34.7 1.3 34.65 0.2 M31.4 23.35 Q32.9 18.6 33.7 13.65 32.9 18.6 31.4 23.35 M12.9 43.95 L11.1 44.4 5.55 45.45 7.0 38.1 7.25 36.45 7.2 36.45 7.25 36.45 7.0 38.1 7.2 36.45 7.2 36.4 7.25 36.4 15.15 35.65 Q16.25 30.85 17.0 25.85 L17.0 25.8 17.05 25.8 17.05 25.85 17.05 25.8 25.0 24.65 25.0 24.7 24.75 25.85 24.6 26.5 22.6 33.1 22.1 34.4 15.2 35.65 Q16.3 30.9 17.05 25.85 L25.0 24.7 17.05 25.85 Q16.3 30.9 15.2 35.65 L15.15 35.65 15.15 35.7 7.25 36.45 7.25 36.4 7.25 36.45 15.15 35.7 14.95 36.65 14.55 38.2 12.95 43.9 12.9 43.95 M-44.05 12.3 Q-45.1 8.45 -45.5 4.4 L-45.6 2.85 -45.6 2.45 -45.7 1.25 -45.65 1.25 -42.15 1.25 Q-42.15 7.45 -41.1 12.5 L-41.1 12.55 -41.15 12.55 -41.15 12.5 -41.1 12.5 -41.15 12.5 -41.15 12.55 -43.3 12.35 -44.05 12.3 M-44.85 -8.9 Q-43.75 -14.3 -41.55 -19.05 L-41.5 -19.05 -42.1 -17.75 Q-43.95 -13.45 -44.8 -8.9 -43.95 -13.45 -42.1 -17.75 L-41.5 -19.05 -39.8 -19.45 -38.05 -19.9 -39.8 -19.45 -38.05 -19.95 -38.05 -19.9 -38.15 -19.65 -40.25 -12.7 -40.45 -12.0 -40.55 -11.6 -40.65 -11.1 -40.7 -10.85 -40.75 -10.55 -40.85 -9.9 -41.0 -9.3 -44.8 -8.9 -44.85 -8.9 M0.0 1.35 L3.6 1.35 4.75 1.35 9.25 1.35 9.15 14.55 1.65 14.5 0.0 14.45 0.0 1.35 M0.0 26.65 L1.7 26.65 8.4 26.45 8.4 26.5 7.2 36.4 4.6 36.5 3.35 36.55 2.35 36.55 1.65 36.55 1.45 36.55 1.1 36.55 0.0 36.5 0.0 26.65 M17.0 25.85 L17.05 25.85 17.0 25.85 M8.4 26.5 L1.7 26.65 8.4 26.5 M12.95 43.9 L11.1 44.4 12.95 43.9 M-40.7 -10.85 L-40.85 -9.9 -40.7 -10.85 M-23.35 -22.85 L-23.7 -21.15 -24.1 -18.8 -24.5 -16.2 -24.65 -15.15 -24.85 -14.1 -24.95 -13.35 -25.1 -12.0 -25.3 -10.7 -26.05 -10.6 -34.25 -9.95 -33.45 -14.55 -33.25 -15.35 -31.8 -21.35 -29.9 -21.75 -24.6 -22.65 -23.35 -22.85 M-25.1 -12.0 L-24.9 -13.95 -24.1 -18.8 -24.9 -13.95 -25.1 -12.0 M-34.1 13.0 L-27.25 13.45 -25.65 13.55 -25.6 13.55 -24.9 19.15 -23.85 24.6 -17.9 25.45 -15.85 25.7 Q-15.15 30.7 -14.05 35.45 L-15.35 35.3 -15.8 35.25 -21.0 34.35 Q-22.75 29.65 -23.85 24.6 L-29.8 23.55 -31.75 23.1 -33.1 18.15 -34.1 13.0 M-24.9 19.15 L-25.65 13.55 -24.9 19.15 M-45.6 2.45 L-45.65 1.25 -45.6 2.45 M-43.3 12.35 L-41.15 12.5 Q-42.3 7.05 -42.15 1.25 -42.3 7.05 -41.15 12.5 L-43.3 12.35" fill="#000000" fill-opacity="0.49803922" fill-rule="evenodd" stroke="none"/>
    <path d="M24.45 -38.6 Q21.95 -40.2 19.25 -41.45 L17.8 -42.1 17.3 -42.3 16.75 -42.5 15.7 -42.9 14.25 -43.4 13.7 -43.6 13.5 -43.65 12.8 -43.85 11.55 -44.25 M30.5 -34.05 Q27.65 -36.6 24.45 -38.6 M32.1 -32.55 L30.5 -34.05 M35.8 -28.45 L34.05 -30.5 32.35 -32.3 32.15 -32.5 M11.1 -44.35 L9.35 -44.75 7.5 -45.1 7.0 -45.15 6.25 -45.25 4.8 -45.45 3.3 -45.55 0.0 -45.7 -3.2 -45.6 Q-10.75 -45.1 -17.8 -42.1 L-20.3 -40.9 -24.15 -38.75 -24.9 -38.25 -25.85 -37.65 -29.0 -35.25 -30.95 -33.6 -31.7 -32.9 M41.5 -19.2 L38.7 -24.3 37.85 -25.65 M44.65 -10.0 Q43.75 -13.95 42.15 -17.75 L41.85 -18.45 41.5 -19.2 M45.75 1.25 L45.75 0.05 45.7 -2.0 45.1 -7.65 44.65 -10.0 M44.1 12.3 Q45.25 8.05 45.6 3.7 L45.7 2.5 45.75 1.25 M40.8 20.8 L41.35 19.7 42.15 17.85 44.1 12.3 M40.8 20.8 L39.95 22.35 Q37.3 27.1 34.0 30.65 M28.65 35.7 L27.35 36.7 24.6 38.6 20.45 41.0 18.95 41.65 17.8 42.15 12.95 43.9 11.1 44.4 5.55 45.45 3.5 45.65 0.0 45.75 -0.6 45.75 -3.5 45.65 -4.45 45.55 -5.45 45.45 -11.7 44.25 -13.25 43.8 -16.0 42.85 M-33.8 30.8 L-34.25 30.3 -34.85 29.6 -35.85 28.4 -36.15 28.0 -37.75 25.9 -38.75 24.3 -40.75 20.8 -40.85 20.6 -42.1 17.85 -42.65 16.5 -44.05 12.3 Q-45.1 8.45 -45.5 4.4 L-45.6 2.85 -45.6 2.45 -45.65 1.25 -45.7 0.6 -45.7 0.05 -45.7 -0.6 -45.7 -0.9 -45.15 -6.9 -44.8 -8.9 Q-43.95 -13.45 -42.1 -17.75 L-41.5 -19.05 -41.1 -19.95 -40.95 -20.25 -36.3 -27.75 -36.1 -28.0 -34.8 -29.55 -33.25 -31.3 -32.3 -32.3 -31.8 -32.8 M2.35 36.55 L1.65 36.55 M32.35 32.35 L33.95 30.7 M28.65 35.7 L32.35 32.35 M-44.85 -8.9 L-44.8 -8.9 M-31.05 -33.55 L-30.95 -33.6 M-17.65 42.2 L-16.4 42.7 M-32.9 31.45 L-33.0 31.4 -32.4 32.25 -32.3 32.35 Q-28.95 35.75 -25.0 38.3 -21.6 40.55 -17.8 42.15 L-17.65 42.2 -17.65 42.25 M-33.3 31.3 L-32.4 32.25" fill="none" stroke="#000000" stroke-linecap="butt" stroke-linejoin="miter-clip" stroke-miterlimit="10.0" stroke-opacity="0.8" stroke-width="1.0"/>
    <path d="M36.2 -27.9 L35.8 -28.45 M37.85 -25.65 L36.2 -27.9" fill="none" stroke="#000000" stroke-linecap="butt" stroke-linejoin="miter-clip" stroke-miterlimit="10.0" stroke-opacity="0.6" stroke-width="1.0"/>
    <path d="M20.5 -37.95 L20.45 -37.95 21.25 -35.55 21.5 -34.8 21.85 -33.75 22.2 -32.55 22.25 -32.35 22.25 -32.3 21.5 -32.5 20.3 -32.75 16.2 -33.6 15.0 -33.8 16.55 -24.2 24.5 -23.2 22.25 -32.3 23.05 -32.1 23.3 -32.05 24.3 -31.8 28.2 -30.7 34.35 -28.6 32.1 -32.55 32.15 -32.5 M20.5 -37.95 L25.65 -36.15 24.45 -38.6 M19.25 -41.45 L20.45 -37.95 15.45 -39.35 13.75 -39.7 14.5 -36.15 14.6 -35.75 15.0 -33.8 14.95 -33.8 6.95 -34.8 0.0 -35.1 0.0 -24.85 2.65 -24.85 7.95 -24.75 6.95 -34.8 6.75 -36.55 6.15 -40.85 6.2 -40.85 13.05 -39.85 13.75 -39.7 13.3 -41.8 12.8 -43.85 12.8 -43.9 M28.2 -30.7 L27.65 -32.05 25.65 -36.15 30.5 -34.05 M28.2 -30.7 L29.55 -27.1 30.45 -24.55 31.25 -21.95 38.2 -20.2 35.3 -26.9 34.35 -28.6 36.2 -27.9 M11.55 -44.25 L11.1 -44.35 M5.55 -45.35 L6.15 -40.85 0.0 -41.15 0.0 -35.1 -1.7 -35.1 -4.6 -35.05 -5.9 -35.0 -5.75 -36.6 -5.55 -38.0 -5.45 -38.5 -5.15 -41.0 -4.85 -43.2 -4.55 -45.45 M0.0 -45.7 L0.0 -41.15 -5.15 -41.0 -5.2 -41.0 -12.65 -40.0 -13.35 -36.8 -13.55 -35.95 -13.85 -34.25 -13.85 -34.2 -13.0 -34.3 -11.65 -34.5 -5.9 -35.0 -6.1 -33.0 -6.1 -32.85 -6.15 -32.7 -6.65 -27.4 -6.8 -26.05 -6.85 -25.4 -6.9 -24.6 -6.9 -24.55 -5.6 -24.65 -2.55 -24.75 0.0 -24.85 0.0 -24.8 0.0 -11.9 7.4 -11.95 8.85 -11.95 8.85 -12.0 8.75 -13.65 8.7 -14.25 8.7 -14.55 8.5 -17.6 7.95 -24.75 16.5 -24.2 16.55 -24.2 17.6 -14.9 17.9 -11.8 18.0 -10.1 18.5 1.35 26.0 1.35 27.35 1.35 27.25 7.7 26.8 14.1 26.8 14.15 29.75 13.95 32.7 13.75 33.65 13.65 33.7 13.65 Q32.9 18.6 31.4 23.35 L31.4 23.4 38.3 21.6 38.35 21.55 Q40.15 17.25 41.15 12.8 L44.1 12.3 M17.85 -11.8 L17.9 -11.8 26.45 -11.35 26.2 -13.35 26.15 -13.55 26.1 -13.95 26.05 -14.4 26.0 -14.5 25.85 -15.7 24.5 -23.15 24.5 -23.2 31.2 -21.95 31.25 -21.95 31.25 -21.9 31.65 -20.45 31.85 -19.6 32.05 -18.8 32.2 -18.25 32.45 -17.35 33.0 -14.6 33.4 -12.6 33.55 -11.75 33.7 -10.85 33.7 -10.7 39.4 -9.9 39.8 -9.85 40.1 -9.8 40.25 -9.75 41.15 -9.6 41.15 -9.65 40.9 -10.95 40.85 -11.2 40.8 -11.35 40.7 -11.85 40.65 -12.0 40.5 -12.65 40.0 -14.65 38.2 -20.15 38.2 -20.2 41.5 -19.2 M9.25 -0.2 L9.25 -1.85 9.05 -7.5 8.95 -10.25 8.85 -11.95 17.85 -11.8 M27.35 1.3 Q27.25 -4.85 26.45 -11.35 L28.5 -11.2 33.7 -10.7 Q34.5 -5.3 34.65 -0.15 L34.65 0.2 34.7 1.3 34.7 1.35 Q34.7 7.6 33.7 13.65 L41.05 12.8 41.15 12.8 Q42.35 7.2 42.3 1.3 L42.25 1.3 36.15 1.3 34.7 1.35 34.65 1.35 27.35 1.35 27.35 1.3 M44.85 -8.9 L41.15 -9.6 42.0 -4.05 42.2 -1.35 42.3 1.3 45.75 1.25 M25.45 14.2 L26.75 14.15 26.8 14.15 Q26.2 19.55 25.05 24.65 L25.05 24.7 31.35 23.4 31.4 23.4 31.05 24.4 30.95 24.75 28.35 31.35 27.6 32.95 24.6 38.6 M37.6 23.2 L38.35 21.55 40.8 20.8 M-16.0 42.85 L-16.4 42.7 M-31.8 -32.8 L-31.7 -32.9 M24.75 25.85 L25.05 24.7 25.0 24.7 17.05 25.85 Q16.3 30.9 15.2 35.65 L15.2 35.7 22.1 34.45 Q20.7 38.15 18.95 41.65 L18.9 41.7 M24.75 25.85 L24.6 26.5 22.6 33.1 22.1 34.4 22.1 34.45 25.45 33.55 27.6 32.95 27.95 32.85 31.5 31.65 32.9 31.1 33.3 30.95 33.85 30.15 34.15 29.65 37.6 23.2 M18.35 11.25 L18.45 8.0 18.5 1.35 9.3 1.35 9.2 14.55 18.15 14.45 18.2 14.45 19.45 14.45 25.45 14.2 M18.35 11.25 L18.2 14.45 Q17.8 20.3 17.05 25.8 L17.05 25.85 17.0 25.85 8.45 26.5 7.25 36.4 7.25 36.45 15.15 35.7 15.2 35.7 14.95 36.65 14.55 38.2 12.95 43.9 12.9 43.95 M0.0 1.3 L0.0 1.35 0.0 14.45 0.0 14.5 1.65 14.5 9.15 14.55 9.2 14.55 8.45 26.45 8.45 26.5 8.4 26.5 1.7 26.65 0.0 26.65 0.0 36.5 0.0 36.55 -6.15 36.3 -4.45 45.55 M3.6 1.35 L0.0 1.3 0.0 -11.9 -7.8 -11.65 -8.1 -4.0 -8.1 -3.1 -8.2 1.3 -4.35 1.3 0.0 1.3 M3.6 1.35 L4.75 1.35 9.25 1.35 9.3 1.35 9.25 -0.2 M-8.05 14.25 L-8.05 14.3 0.0 14.5 0.0 26.65 -7.3 26.4 -7.45 24.9 -7.5 24.25 -8.05 14.3 -10.55 14.2 -10.75 14.2 -12.3 14.15 -14.05 14.1 -14.8 14.05 -17.05 13.95 -25.6 13.55 -25.65 13.55 -24.9 19.15 -23.85 24.6 -17.9 25.45 -15.85 25.7 -15.65 25.7 -14.5 25.85 -12.55 26.0 -7.3 26.4 -7.05 28.95 -6.15 36.25 -6.15 36.3 -11.35 35.8 -14.05 35.5 -11.7 44.25 M7.2 36.45 L7.25 36.45 7.0 38.1 5.55 45.45 M3.35 36.55 L7.2 36.45 M1.1 36.55 L0.0 36.55 0.0 45.75 M1.45 36.55 L1.1 36.55 M1.65 36.55 L1.45 36.55 M2.35 36.55 L3.35 36.55 M33.35 30.95 L33.95 30.7 34.0 30.65 M33.35 30.95 L33.3 30.95 33.25 31.0 32.35 32.35 32.2 32.6 M-41.5 -19.05 L-41.55 -19.05 M-41.0 -9.3 L-40.85 -9.9 -40.7 -10.85 -40.65 -11.1 -40.55 -11.55 -40.45 -11.95 -40.25 -12.7 -38.15 -19.65 -38.05 -19.9 -39.8 -19.45 -41.5 -19.05 M-44.8 -8.9 L-41.0 -9.25 -41.0 -9.3 M-3.2 -45.55 L-3.2 -45.6 M-11.75 -44.15 L-12.65 -40.0 -12.75 -40.0 -13.3 -39.9 -19.2 -38.45 -20.6 -34.1 -20.9 -33.0 -20.95 -33.0 -21.65 -32.8 -26.65 -31.5 -28.4 -31.0 -28.45 -31.0 -30.95 -30.15 -31.8 -29.8 -33.95 -28.85 -35.0 -27.1 -37.65 -20.9 -38.05 -19.9 -34.25 -20.85 -31.8 -21.35 -28.95 -29.75 -28.45 -30.95 -28.45 -31.0 -28.1 -31.8 -27.95 -32.05 -26.05 -35.95 -26.15 -35.95 -26.3 -35.9 -30.95 -33.6 M-18.05 -41.95 L-19.2 -38.45 -22.3 -37.45 -25.2 -36.35 -26.0 -36.0 -26.05 -36.0 -26.05 -35.95 -26.0 -36.0 -25.95 -36.0 -24.9 -38.25 -24.9 -38.3 M-16.1 -33.85 L-15.7 -33.95 -13.85 -34.2 -15.45 -23.9 -15.45 -23.85 -15.1 -23.9 -6.95 -24.55 -6.9 -24.55 -7.3 -19.45 -7.65 -14.3 -7.7 -13.15 -7.8 -11.65 -9.15 -11.6 -11.8 -11.5 -16.0 -11.3 -16.75 -11.25 -17.3 1.3 -16.15 1.3 -15.05 1.3 -8.2 1.3 -8.05 14.25 M-16.3 -33.85 L-16.15 -33.85 -16.1 -33.85 M-16.3 -33.85 L-17.25 -33.7 -17.55 -33.65 -20.9 -33.0 -21.3 -31.65 -22.65 -26.15 -23.35 -22.85 -23.1 -22.85 -17.5 -23.65 -15.45 -23.85 -15.65 -22.45 -16.15 -17.95 -16.45 -14.85 -16.75 -11.25 -16.8 -11.25 -24.65 -10.7 -25.3 -10.65 -26.05 -10.6 -34.25 -9.95 -35.25 -9.85 -41.0 -9.25 Q-42.1 -3.9 -42.15 1.25 L-35.05 1.25 -34.8 7.2 -34.15 13.0 -33.1 18.15 -31.75 23.1 -31.75 23.15 -29.8 23.55 -23.85 24.6 Q-22.75 29.65 -21.0 34.35 L-15.8 35.25 -15.35 35.3 -14.05 35.5 -14.05 35.45 Q-15.15 30.7 -15.85 25.7 L-16.2 22.85 -17.05 14.0 -17.05 13.95 -17.3 6.25 -17.35 2.55 -17.35 2.25 -17.3 1.3 -17.35 1.3 -26.1 1.3 Q-26.0 -4.55 -25.3 -10.65 L-25.3 -10.7 -25.1 -12.0 -24.9 -13.95 -24.1 -18.8 -23.7 -21.15 -23.35 -22.85 -24.6 -22.65 -29.9 -21.75 -31.8 -21.35 -33.4 -14.85 -33.45 -14.6 -34.25 -9.95 -35.0 -1.35 -35.05 1.25 -28.3 1.3 -27.2 1.3 -26.1 1.3 -26.0 7.5 -25.85 10.55 -25.65 13.55 -27.25 13.45 -34.1 13.0 -34.15 13.0 -34.25 13.0 -38.5 12.75 -41.1 12.5 -41.15 12.5 -41.15 12.55 Q-40.2 17.1 -38.4 21.45 L-38.35 21.45 -34.45 22.5 -34.1 22.6 -31.75 23.15 -30.0 28.0 -27.95 32.8 -27.9 32.85 -26.4 35.8 -25.0 38.3 -25.0 38.35 M-33.9 -28.95 L-33.95 -28.85 -34.1 -28.8 -36.1 -28.0 M-33.9 -28.95 L-31.8 -32.8 M-27.9 32.8 L-27.2 33.0 -27.15 33.05 -26.55 33.15 -25.7 33.35 -21.35 34.3 -21.0 34.35 -17.65 42.2 M-27.9 32.8 L-27.95 32.8 -29.8 32.35 -30.4 32.15 -32.9 31.45 M-33.0 31.4 L-33.3 31.3 -33.8 30.8 M-32.4 32.25 L-32.15 32.6 M-38.4 21.45 Q-36.3 26.55 -33.0 31.4 M-45.65 1.25 L-45.7 1.25 M-45.65 1.25 L-42.15 1.25 Q-42.3 7.05 -41.15 12.5 L-43.3 12.35 -44.05 12.3 M-38.4 21.45 L-40.75 20.8" fill="none" stroke="#000000" stroke-linecap="butt" stroke-linejoin="miter-clip" stroke-miterlimit="10.0" stroke-opacity="0.4" stroke-width="1.0"/>
    <path d="M-34.25 -9.95 L-25.3 -10.7 Q-26.0 -4.6 -26.1 1.3 L-35.05 1.25 Q-35.05 -4.1 -34.25 -9.95" fill="#ffffff" fill-opacity="0.0" fill-rule="evenodd" stroke="none"/>
    <path d="M27.35 1.3 Q27.4 7.95 26.75 14.1 L18.15 14.45 18.5 1.35 27.35 1.3" fill="#ffffff" fill-opacity="0.0" fill-rule="evenodd" stroke="none"/>
    <path d="M27.85 2.7 L31.05 3.45 28.0 -3.15 32.3 3.3 32.9 -1.6 33.0 2.5 37.3 -3.65 33.15 4.3 36.9 3.65 33.7 4.85 40.85 6.55 33.0 5.6 34.65 9.35 32.8 6.55 31.8 16.3 31.55 6.6 29.9 7.85 31.5 5.7 31.5 5.55 24.1 5.55 31.0 4.65 27.85 2.7" fill="#ffffff" fill-rule="evenodd" stroke="none"/>
    <path d="M-21.55 9.85 L-21.0 4.95 -20.9 9.05 -16.55 2.9 -20.75 10.85 -17.0 10.25 -20.2 11.4 -13.05 13.1 -20.9 12.2 -19.25 15.95 -21.1 13.1 -22.1 22.85 -22.35 13.2 -24.0 14.45 -22.35 12.3 -22.4 12.1 -29.75 12.1 -22.9 11.25 -26.05 9.25 -22.8 10.05 -25.9 3.4 -21.55 9.85" fill="#ffffff" fill-rule="evenodd" stroke="none"/>
    <path d="M-6.6 -24.7 L-0.4 -23.25 -7.2 -24.05 -5.8 -20.75 -7.4 -23.25 -8.25 -14.75 -8.5 -23.15 -9.9 -22.1 -8.5 -23.95 -8.5 -24.1 -14.95 -24.1 -8.95 -24.85 -11.7 -26.6 -8.9 -25.9 -11.55 -31.7 -7.8 -26.05 -7.3 -30.35 -7.2 -26.75 -3.45 -32.1 -7.1 -25.2 -3.8 -25.75 -6.6 -24.7" fill="#ffffff" fill-rule="evenodd" stroke="none"/>
  </g>
</svg>
