<?xml version="1.0" encoding="UTF-8" standalone="no"?>
<svg xmlns:xlink="http://www.w3.org/1999/xlink" height="143.05px" width="102.1px" xmlns="http://www.w3.org/2000/svg">
  <g transform="matrix(1.0, 0.0, 0.0, 1.0, 51.15, 71.85)">
    <path d="M-40.2 -55.05 Q-41.5 -56.3 -43.4 -59.35 -45.25 -62.45 -46.6 -63.7 -49.55 -65.65 -50.4 -66.9 -42.7 -69.85 -39.25 -70.4 -32.15 -71.6 -28.65 -67.9 -26.4 -65.45 -24.45 -60.05 -22.25 -53.9 -20.95 -51.8 -21.7 -52.95 -25.75 -52.55 L-31.05 -51.95 Q-33.55 -51.95 -35.9 -52.65 -38.65 -53.5 -40.2 -55.05" fill="#ffffff" fill-opacity="0.0" fill-rule="evenodd" stroke="none"/>
    <path d="M-40.2 -55.05 Q-38.65 -53.5 -35.9 -52.65 -33.55 -51.95 -31.05 -51.95 L-25.75 -52.55 Q-21.7 -52.95 -20.95 -51.8 -22.25 -53.9 -24.45 -60.05 -26.4 -65.45 -28.65 -67.9 -32.15 -71.6 -39.25 -70.4 -42.7 -69.85 -50.4 -66.9 -49.55 -65.65 -46.6 -63.7 -45.25 -62.45 -43.4 -59.35 -41.5 -56.3 -40.2 -55.05 Z" fill="none" stroke="#000000" stroke-linecap="butt" stroke-linejoin="miter-clip" stroke-miterlimit="10.0" stroke-opacity="0.6" stroke-width="1.0"/>
    <path d="M39.5 69.5 Q40.05 63.95 37.05 58.85 34.55 55.1 33.75 53.35 32.5 50.7 32.8 47.15 L34.05 40.65 Q34.9 35.25 33.65 34.65 44.9 40.2 47.1 42.3 52.8 47.65 48.75 56.15 48.05 57.75 43.25 63.2 40.15 66.7 39.5 69.5" fill="#ffffff" fill-opacity="0.0" fill-rule="evenodd" stroke="none"/>
    <path d="M39.5 69.5 Q39.35 70.05 39.35 70.7" fill="none" stroke="#000000" stroke-linecap="round" stroke-linejoin="miter-clip" stroke-miterlimit="10.0" stroke-opacity="0.6" stroke-width="1.0"/>
    <path d="M39.5 69.5 Q40.05 63.95 37.05 58.85 34.55 55.1 33.75 53.35 32.5 50.7 32.8 47.15 L34.05 40.65 Q34.9 35.25 33.65 34.65 44.9 40.2 47.1 42.3 52.8 47.65 48.75 56.15 48.05 57.75 43.25 63.2 40.15 66.7 39.5 69.5" fill="none" stroke="#000000" stroke-linecap="round" stroke-linejoin="miter-clip" stroke-miterlimit="10.0" stroke-opacity="0.6" stroke-width="1.0"/>
    <path d="M-46.45 36.6 Q-44.8 34.25 -44.35 29.75 -43.45 22.55 -42.75 20.9 -39.2 12.2 -31.4 12.8 -28.2 13.1 -16.7 17.7 -18.1 17.25 -21.4 21.4 L-25.35 26.6 Q-27.85 29.25 -30.7 30.1 L-36.9 31.35 Q-42.75 32.6 -46.45 36.6" fill="#ffffff" fill-opacity="0.0" fill-rule="evenodd" stroke="none"/>
    <path d="M-46.45 36.6 Q-42.75 32.6 -36.9 31.35 L-30.7 30.1 Q-27.85 29.25 -25.35 26.6 L-21.4 21.4 Q-18.1 17.25 -16.7 17.7 -28.2 13.1 -31.4 12.8 -39.2 12.2 -42.75 20.9 -43.45 22.55 -44.35 29.75 -44.8 34.25 -46.45 36.6" fill="none" stroke="#000000" stroke-linecap="round" stroke-linejoin="miter-clip" stroke-miterlimit="10.0" stroke-opacity="0.6" stroke-width="1.0"/>
    <path d="M-46.45 36.6 L-47.3 37.6" fill="none" stroke="#000000" stroke-linecap="round" stroke-linejoin="miter-clip" stroke-miterlimit="10.0" stroke-opacity="0.6" stroke-width="1.0"/>
  </g>
</svg>
