<?xml version="1.0" encoding="UTF-8" standalone="no"?>
<svg xmlns:xlink="http://www.w3.org/1999/xlink" height="107.95px" width="103.8px" xmlns="http://www.w3.org/2000/svg">
  <g transform="matrix(1.0, 0.0, 0.0, 1.0, 51.9, 54.65)">
    <path d="M-33.35 -12.25 Q-38.15 -12.05 -42.0 -15.25 -46.2 -18.85 -45.95 -24.0 -45.8 -28.4 -43.15 -31.8 L-41.6 -33.45 -43.4 -35.5 Q-46.1 -39.9 -42.7 -43.1 -40.05 -45.5 -35.1 -46.45 L-31.05 -46.65 -28.25 -49.4 Q-24.35 -52.55 -19.65 -52.75 -16.55 -52.9 -14.45 -51.65 -12.1 -50.2 -11.65 -47.3 -11.05 -43.35 -12.6 -37.75 L-10.45 -39.05 Q-8.3 -29.35 -13.35 -19.7 -14.85 -16.85 -16.65 -14.7 -15.05 -13.25 -14.7 -10.8 -13.95 -6.45 -15.6 -0.7 L-13.45 -2.0 Q-11.1 8.3 -16.5 18.6 -22.35 29.85 -32.95 30.3 -32.15 30.25 -30.3 24.95 -33.0 26.25 -37.05 26.55 -42.75 27.1 -47.15 23.35 -51.65 19.6 -51.4 14.1 -51.2 9.35 -48.4 5.75 L-46.75 3.95 -48.7 1.7 Q-51.6 -2.9 -47.85 -6.25 -44.95 -8.95 -39.8 -9.85 L-35.4 -10.15 -33.35 -12.25 -32.4 -13.05 Q-29.2 -15.65 -25.45 -16.35 -29.2 -15.65 -32.4 -13.05 L-33.35 -12.25 M-23.8 -21.7 L-24.75 -18.6 -25.45 -16.35 -24.75 -18.6 -23.8 -21.7 -26.7 -21.25 Q-27.95 -20.65 -29.05 -20.65 -32.8 -20.3 -35.65 -22.95 -38.4 -25.55 -38.8 -29.3 L-38.8 -31.0 -41.6 -33.45 -38.8 -31.0 -38.8 -29.3 Q-38.4 -25.55 -35.65 -22.95 -32.8 -20.3 -29.05 -20.65 -27.95 -20.65 -26.7 -21.25 L-23.8 -21.7 -21.3 -29.9 Q-20.2 -32.35 -16.95 -34.8 -20.2 -32.35 -21.3 -29.9 L-23.8 -21.7 M-16.95 -34.8 L-16.55 -35.15 -12.6 -37.75 -16.55 -35.15 -16.95 -34.8 Q-17.85 -38.15 -20.9 -39.75 -21.4 -43.85 -26.45 -45.65 -28.75 -46.5 -31.05 -46.65 -28.75 -46.5 -26.45 -45.65 -21.4 -43.85 -20.9 -39.75 -17.85 -38.15 -16.95 -34.8 M-16.65 -14.7 L-17.65 -15.5 Q-20.0 -16.9 -23.25 -16.65 L-25.45 -16.35 -23.25 -16.65 Q-20.0 -16.9 -17.65 -15.5 L-16.65 -14.7 M-31.45 -4.35 L-31.7 -4.4 -31.45 -4.35 -28.35 -3.95 -31.45 -4.35 Q-30.0 -4.2 -28.9 -3.55 -30.0 -4.2 -31.45 -4.35 M-43.7 6.6 Q-43.35 1.5 -37.6 -0.75 L-37.2 -1.65 Q-35.45 -5.1 -31.35 -5.1 -29.35 -5.1 -27.65 -4.4 L-28.35 -3.95 -27.65 -4.4 Q-29.35 -5.1 -31.35 -5.1 -35.45 -5.1 -37.2 -1.65 L-37.6 -0.75 Q-43.35 1.5 -43.7 6.6 L-43.7 8.4 Q-43.3 12.45 -40.35 15.2 -37.3 18.0 -33.3 17.65 -32.05 17.6 -30.8 17.05 -32.05 17.6 -33.3 17.65 -37.3 18.0 -40.35 15.2 -43.3 12.45 -43.7 8.4 L-43.7 6.6 -44.1 6.3 -46.75 3.95 -44.1 6.3 -43.7 6.6 M-26.8 -0.85 L-26.7 -0.5 Q-25.75 2.55 -27.0 7.2 -28.0 10.95 -29.8 14.1 -31.55 17.05 -32.55 16.9 L-30.8 17.05 -32.55 16.9 Q-31.55 17.05 -29.8 14.1 -28.0 10.95 -27.0 7.2 -25.75 2.55 -26.7 -0.5 L-26.8 -0.85 -27.65 -0.8 Q-31.55 -0.4 -33.4 1.3 -32.6 -1.05 -28.9 -3.55 -32.6 -1.05 -33.4 1.3 -31.55 -0.4 -27.65 -0.8 L-26.8 -0.85 Q-27.5 -2.7 -28.9 -3.55 -27.5 -2.7 -26.8 -0.85 M-27.7 16.6 L-30.8 17.05 -27.7 16.6 -25.05 7.7 Q-23.9 5.25 -20.3 2.5 -23.9 5.25 -25.05 7.7 L-27.7 16.6 -28.7 19.85 -30.3 24.95 -28.7 19.85 -27.7 16.6 M-24.6 -2.65 Q-21.55 -1.05 -20.5 2.0 L-20.3 2.5 -20.5 2.0 Q-21.55 -1.05 -24.6 -2.65 -26.2 -3.5 -28.35 -3.95 -26.2 -3.5 -24.6 -2.65 -25.0 -6.75 -29.75 -8.75 -32.5 -10.0 -35.4 -10.15 -32.5 -10.0 -29.75 -8.75 -25.0 -6.75 -24.6 -2.65 M48.4 34.0 Q47.65 35.95 46.4 37.8 43.45 41.95 39.6 41.75 L37.95 43.55 Q36.4 44.8 35.15 44.9 34.05 44.9 32.95 44.1 34.05 44.9 35.15 44.9 36.4 44.8 37.95 43.55 L39.6 41.75 Q43.45 41.95 46.4 37.8 47.65 35.95 48.4 34.0 L50.2 37.5 Q52.1 42.1 51.05 46.6 50.35 49.65 48.5 51.35 46.4 53.15 43.5 52.75 39.4 52.25 34.6 49.2 L32.95 44.1 34.6 49.2 35.15 51.5 Q25.25 50.8 17.4 43.25 8.85 35.0 11.3 25.4 11.1 26.1 15.5 29.2 14.95 26.4 15.75 22.65 16.75 17.45 21.3 14.55 25.8 11.5 30.7 13.15 35.0 14.65 37.5 18.15 L38.65 20.05 Q40.2 19.15 41.15 18.9 46.15 17.6 48.2 21.8 49.8 25.1 49.3 30.0 49.1 32.05 48.4 34.0 M22.3 33.75 Q22.25 32.3 22.7 30.85 22.45 29.55 22.7 28.45 23.45 24.75 26.9 22.75 30.15 20.85 33.85 21.55 L35.55 22.05 38.65 20.05 35.55 22.05 33.85 21.55 Q30.15 20.85 26.9 22.75 23.45 24.75 22.7 28.45 22.45 29.55 22.7 30.85 22.25 32.3 22.3 33.75 22.3 36.0 23.4 38.2 25.2 41.7 28.9 43.2 31.25 44.05 32.9 44.05 31.25 44.05 28.9 43.2 25.2 41.7 23.4 38.2 22.3 36.0 22.3 33.75 L19.55 31.95 15.5 29.2 19.55 31.95 22.3 33.75 M32.95 44.1 L32.9 44.05 32.95 44.1 M-20.3 2.5 Q-18.35 0.9 -15.6 -0.7 -18.35 0.9 -20.3 2.5" fill="#ffffff" fill-opacity="0.0" fill-rule="evenodd" stroke="none"/>
    <path d="M-33.35 -12.25 Q-38.15 -12.05 -42.0 -15.25 -46.2 -18.85 -45.95 -24.0 -45.8 -28.4 -43.15 -31.8 L-41.6 -33.45 -43.4 -35.5 Q-46.1 -39.9 -42.7 -43.1 -40.05 -45.5 -35.1 -46.45 L-31.05 -46.65 -28.25 -49.4 Q-24.35 -52.55 -19.65 -52.75 -16.55 -52.9 -14.45 -51.65 -12.1 -50.2 -11.65 -47.3 -11.05 -43.35 -12.6 -37.75 L-10.45 -39.05 Q-8.3 -29.35 -13.35 -19.7 -14.85 -16.85 -16.65 -14.7 -15.05 -13.25 -14.7 -10.8 -13.95 -6.45 -15.6 -0.7 L-13.45 -2.0 Q-11.1 8.3 -16.5 18.6 -22.35 29.85 -32.95 30.3 -32.15 30.25 -30.3 24.95 -33.0 26.25 -37.05 26.55 -42.75 27.1 -47.15 23.35 -51.65 19.6 -51.4 14.1 -51.2 9.35 -48.4 5.75 L-46.75 3.95 -48.7 1.7 Q-51.6 -2.9 -47.85 -6.25 -44.95 -8.95 -39.8 -9.85 L-35.4 -10.15 -33.35 -12.25 -32.4 -13.05 Q-29.2 -15.65 -25.45 -16.35 L-23.25 -16.65 Q-20.0 -16.9 -17.65 -15.5 L-16.65 -14.7 M48.4 34.0 Q49.1 32.05 49.3 30.0 49.8 25.1 48.2 21.8 46.15 17.6 41.15 18.9 40.2 19.15 38.65 20.05 L37.5 18.15 Q35.0 14.65 30.7 13.15 25.8 11.5 21.3 14.55 16.75 17.45 15.75 22.65 14.95 26.4 15.5 29.2 11.1 26.1 11.3 25.4 8.85 35.0 17.4 43.25 25.25 50.8 35.15 51.5 L34.6 49.2 Q39.4 52.25 43.5 52.75 46.4 53.15 48.5 51.35 50.35 49.65 51.05 46.6 52.1 42.1 50.2 37.5 L48.4 34.0" fill="none" stroke="#000000" stroke-linecap="round" stroke-linejoin="miter-clip" stroke-miterlimit="10.0" stroke-opacity="0.6" stroke-width="1.0"/>
    <path d="M-25.45 -16.35 L-24.75 -18.6 -23.8 -21.7 -26.7 -21.25 Q-27.95 -20.65 -29.05 -20.65 -32.8 -20.3 -35.65 -22.95 -38.4 -25.55 -38.8 -29.3 L-38.8 -31.0 -41.6 -33.45 M-12.6 -37.75 L-16.55 -35.15 -16.95 -34.8 Q-20.2 -32.35 -21.3 -29.9 L-23.8 -21.7 M-16.95 -34.8 Q-17.85 -38.15 -20.9 -39.75 -21.4 -43.85 -26.45 -45.65 -28.75 -46.5 -31.05 -46.65 M-31.45 -4.35 L-28.35 -3.95 -27.65 -4.4 Q-29.35 -5.1 -31.35 -5.1 -35.45 -5.1 -37.2 -1.65 L-37.6 -0.75 Q-43.35 1.5 -43.7 6.6 L-43.7 8.4 Q-43.3 12.45 -40.35 15.2 -37.3 18.0 -33.3 17.65 -32.05 17.6 -30.8 17.05 L-32.55 16.9 Q-31.55 17.05 -29.8 14.1 -28.0 10.95 -27.0 7.2 -25.75 2.55 -26.7 -0.5 L-26.8 -0.85 -27.65 -0.8 Q-31.55 -0.4 -33.4 1.3 -32.6 -1.05 -28.9 -3.55 -30.0 -4.2 -31.45 -4.35 M-28.9 -3.55 Q-27.5 -2.7 -26.8 -0.85 M-30.8 17.05 L-27.7 16.6 -25.05 7.7 Q-23.9 5.25 -20.3 2.5 L-20.5 2.0 Q-21.55 -1.05 -24.6 -2.65 -26.2 -3.5 -28.35 -3.95 M-35.4 -10.15 Q-32.5 -10.0 -29.75 -8.75 -25.0 -6.75 -24.6 -2.65 M-30.3 24.95 L-28.7 19.85 -27.7 16.6 M-43.7 6.6 L-44.1 6.3 -46.75 3.95 M32.95 44.1 Q34.05 44.9 35.15 44.9 36.4 44.8 37.95 43.55 L39.6 41.75 Q43.45 41.95 46.4 37.8 47.65 35.95 48.4 34.0 M38.65 20.05 L35.55 22.05 33.85 21.55 Q30.15 20.85 26.9 22.75 23.45 24.75 22.7 28.45 22.45 29.55 22.7 30.85 22.25 32.3 22.3 33.75 L19.55 31.95 15.5 29.2 M32.95 44.1 L34.6 49.2 M-15.6 -0.7 Q-18.35 0.9 -20.3 2.5" fill="none" stroke="#000000" stroke-linecap="round" stroke-linejoin="miter-clip" stroke-miterlimit="10.0" stroke-opacity="0.4" stroke-width="1.0"/>
    <path d="M-31.7 -4.4 L-31.45 -4.35" fill="none" stroke="#000000" stroke-linecap="butt" stroke-linejoin="miter-clip" stroke-miterlimit="10.0" stroke-opacity="0.4" stroke-width="1.0"/>
    <path d="M22.3 33.75 Q22.3 36.0 23.4 38.2 25.2 41.7 28.9 43.2 31.25 44.05 32.9 44.05" fill="none" stroke="#000000" stroke-linecap="round" stroke-linejoin="miter-clip" stroke-miterlimit="10.0" stroke-opacity="0.4" stroke-width="1.0"/>
    <path d="M32.9 44.05 L32.95 44.1" fill="none" stroke="#000000" stroke-linecap="butt" stroke-linejoin="miter-clip" stroke-miterlimit="10.0" stroke-width="1.0"/>
  </g>
</svg>
