<?xml version="1.0" encoding="UTF-8" standalone="no"?>
<svg xmlns:xlink="http://www.w3.org/1999/xlink" height="17.8px" width="31.0px" xmlns="http://www.w3.org/2000/svg">
  <g transform="matrix(1.0, 0.0, 0.0, 1.0, 16.55, 8.0)">
    <path d="M5.3 6.2 L5.1 6.15 4.75 6.15 Q4.8 5.7 4.25 4.5 L3.6 3.05 Q3.5 2.7 3.55 1.5 L3.6 0.4 2.55 0.95 1.7 1.1 0.7 1.0 Q0.45 0.95 0.7 -0.3 L0.8 -0.6 -0.35 -0.1 -0.3 0.05 -0.15 -0.05 0.2 -0.15 0.55 1.25 0.8 2.6 0.9 5.25 1.0 6.6 Q1.3 6.7 1.25 7.1 L1.2 7.5 0.95 7.0 0.7 6.8 Q0.5 6.5 0.45 4.5 L0.45 2.6 -0.3 0.4 -0.5 0.9 -1.0 1.7 Q-1.2 1.95 -1.2 0.9 L-1.35 0.3 -1.4 0.2 -1.7 0.3 -2.45 1.6 -2.75 3.25 -3.3 5.2 -3.55 5.3 -3.85 5.7 -3.85 5.35 Q-3.8 5.0 -3.55 4.95 L-2.75 1.6 -2.6 1.15 Q-3.15 1.6 -3.4 1.55 L-3.5 1.5 -5.45 3.05 Q-6.55 3.7 -7.95 4.35 L-8.4 4.6 -8.85 5.5 Q-9.05 5.85 -9.85 6.15 L-10.4 6.35 -9.8 5.85 -9.1 5.2 -8.85 4.65 -9.0 4.65 Q-10.45 3.35 -9.1 1.15 L-9.4 1.45 -12.05 4.15 -13.2 4.5 -13.95 4.55 -12.15 3.85 -9.45 1.05 -6.5 -2.05 -6.05 -2.15 -5.85 -1.95 -5.75 -1.95 -5.3 -2.65 Q-5.0 -2.75 -4.4 -1.7 L-4.25 -1.5 -3.9 -1.2 -3.35 -0.5 -3.1 -0.25 -2.7 -1.25 Q-2.6 -1.5 -2.45 -0.95 L-2.3 -0.55 -2.2 -0.7 -2.0 -1.0 -2.0 -1.1 -1.9 -2.1 Q-1.6 -2.85 0.1 -3.35 L2.55 -3.85 3.6 -3.75 3.65 -3.7 4.2 -4.55 Q5.1 -5.45 6.65 -5.0 L6.85 -4.95 7.35 -4.7 8.2 -3.7 8.9 -1.65 8.0 -1.5 7.05 -1.55 6.35 -1.6 5.6 -1.65 Q4.85 -1.8 4.35 -2.2 L4.05 -2.5 3.8 -2.8 Q3.5 -3.3 3.6 -3.6 L3.65 -3.7 3.6 -3.6 Q3.5 -3.3 3.8 -2.8 L4.05 -2.5 3.4 -2.5 3.3 -2.45 5.7 -1.4 5.65 -1.15 7.2 0.85 7.95 1.15 7.4 1.25 6.75 0.8 5.95 -0.1 5.8 -0.35 Q5.55 -0.7 5.45 -1.1 L5.4 -1.4 4.35 -1.7 Q4.05 -1.75 3.55 -2.15 L3.25 -2.4 2.6 -1.9 2.25 -1.6 2.1 -1.9 1.5 -1.8 1.0 -1.45 0.8 -0.6 1.0 -1.45 1.5 -1.8 2.1 -1.9 2.25 -1.6 2.2 -1.05 2.05 -0.15 3.0 -0.2 4.1 -0.25 4.0 1.35 3.85 3.05 4.35 4.45 5.0 5.9 5.3 6.2 M3.3 -2.45 L3.15 -2.5 3.25 -2.4 3.15 -2.5 3.3 -2.45 M-5.25 -1.75 L-5.4 -2.05 -5.5 -1.75 -5.25 -1.75 -4.55 -0.25 -3.5 1.5 -4.55 -0.25 -5.25 -1.75 M-8.4 4.6 L-5.5 -1.75 -8.4 4.6 M-5.9 -1.65 L-5.75 -1.95 -5.9 -1.65 -7.3 1.25 -8.85 4.65 -7.3 1.25 -5.9 -1.65 -7.5 -0.65 -9.0 1.0 -9.1 1.15 -9.0 1.0 -7.5 -0.65 -5.9 -1.65 M-3.05 0.8 L-3.2 0.75 -3.65 -0.05 -3.9 -0.7 -4.25 -1.5 -3.9 -0.7 -3.65 -0.05 -3.2 0.75 -3.05 0.8 -2.6 0.55 -2.45 0.4 -2.9 0.4 -3.05 0.8 M-2.2 0.15 L-2.45 0.4 -2.2 0.15 -1.85 -0.6 -2.2 0.15 -2.35 0.45 -2.6 1.15 -2.35 0.45 -2.2 0.15 M-2.0 -1.0 L-1.85 -0.6 -2.0 -1.0 M-2.3 -0.55 Q-2.7 -0.15 -2.95 -0.15 L-3.1 -0.25 -2.95 -0.15 Q-2.7 -0.15 -2.3 -0.55 M-0.65 -0.8 L-0.65 -0.75 -0.75 0.3 Q-0.95 1.3 -1.1 1.1 L-1.2 0.9 -1.1 1.1 Q-0.95 1.3 -0.75 0.3 L-0.65 -0.75 -0.65 -0.8 Q-0.75 -1.45 -1.1 -1.0 L-1.4 -0.45 -1.8 -0.7 -1.85 -0.6 -1.8 -0.7 -1.4 -0.45 -1.1 -1.0 Q-0.75 -1.45 -0.65 -0.8 L-0.55 -0.65 -0.35 -0.1 -0.55 -0.65 -0.65 -0.8 M-1.4 0.2 L-1.5 -0.15 -1.7 0.25 -1.7 0.3 -1.7 0.25 -1.5 -0.15 -1.4 0.2" fill="#ffffff" fill-opacity="0.0" fill-rule="evenodd" stroke="none"/>
    <path d="M5.3 6.2 L5.1 6.15 4.75 6.15 Q4.8 5.7 4.25 4.5 L3.6 3.05 Q3.5 2.7 3.55 1.5 L3.6 0.4 2.55 0.95 1.7 1.1 0.7 1.0 Q0.45 0.95 0.7 -0.3 L0.8 -0.6 -0.35 -0.1 -0.3 0.05 -0.15 -0.05 0.2 -0.15 0.55 1.25 0.8 2.6 0.9 5.25 1.0 6.6 Q1.3 6.7 1.25 7.1 L1.2 7.5 0.95 7.0 0.7 6.8 Q0.5 6.5 0.45 4.5 L0.45 2.6 -0.3 0.4 -0.5 0.9 -1.0 1.7 Q-1.2 1.95 -1.2 0.9 L-1.35 0.3 -1.4 0.2 -1.7 0.3 -2.45 1.6 -2.75 3.25 -3.3 5.2 -3.55 5.3 -3.85 5.7 -3.85 5.35 Q-3.8 5.0 -3.55 4.95 L-2.75 1.6 -2.6 1.15 Q-3.15 1.6 -3.4 1.55 L-3.5 1.5 -5.45 3.05 Q-6.55 3.7 -7.95 4.35 L-8.4 4.6 -8.85 5.5 Q-9.05 5.85 -9.85 6.15 L-10.4 6.35 -9.8 5.85 -9.1 5.2 -8.85 4.65 -9.0 4.65 Q-10.45 3.35 -9.1 1.15 L-9.4 1.45 -12.05 4.15 -13.2 4.5 -13.95 4.55 -12.15 3.85 -9.45 1.05 -6.5 -2.05 -6.05 -2.15 -5.85 -1.95 -5.75 -1.95 -5.3 -2.65 Q-5.0 -2.75 -4.4 -1.7 L-4.25 -1.5 -3.9 -1.2 -3.35 -0.5 -3.1 -0.25 -2.7 -1.25 Q-2.6 -1.5 -2.45 -0.95 L-2.3 -0.55 -2.2 -0.7 -2.0 -1.0 -2.0 -1.1 -1.9 -2.1 Q-1.6 -2.85 0.1 -3.35 L2.55 -3.85 3.6 -3.75 3.65 -3.7 4.2 -4.55 Q5.1 -5.45 6.65 -5.0 L6.85 -4.95 7.35 -4.7 8.2 -3.7 8.9 -1.65 8.0 -1.5 7.05 -1.55 6.35 -1.6 5.6 -1.65 Q4.85 -1.8 4.35 -2.2 L4.05 -2.5 3.8 -2.8 Q3.5 -3.3 3.6 -3.6 L3.65 -3.7 M2.25 -1.6 L2.1 -1.9 1.5 -1.8 1.0 -1.45 0.8 -0.6 M5.3 6.2 L5.0 5.9 4.35 4.45 3.85 3.05 4.0 1.35 4.1 -0.25 3.0 -0.2 2.05 -0.15 2.2 -1.05 2.25 -1.6 2.6 -1.9 3.25 -2.4 3.15 -2.5 3.3 -2.45 3.4 -2.5 4.05 -2.5 M3.25 -2.4 L3.55 -2.15 Q4.05 -1.75 4.35 -1.7 L5.4 -1.4 5.45 -1.1 Q5.55 -0.7 5.8 -0.35 L5.95 -0.1 6.75 0.8 7.4 1.25 7.95 1.15 7.2 0.85 5.65 -1.15 5.7 -1.4 3.3 -2.45 M-5.5 -1.75 L-5.4 -2.05 -5.25 -1.75 -4.55 -0.25 -3.5 1.5 M-5.25 -1.75 L-5.5 -1.75 -8.4 4.6 M-5.75 -1.95 L-5.9 -1.65 -7.3 1.25 -8.85 4.65 M-5.9 -1.65 L-7.5 -0.65 -9.0 1.0 -9.1 1.15 M-4.25 -1.5 L-3.9 -0.7 -3.65 -0.05 -3.2 0.75 -3.05 0.8 -2.9 0.4 -2.45 0.4 -2.2 0.15 -1.85 -0.6 -2.0 -1.0 M-3.1 -0.25 L-2.95 -0.15 Q-2.7 -0.15 -2.3 -0.55 M-1.2 0.9 L-1.1 1.1 Q-0.95 1.3 -0.75 0.3 L-0.65 -0.75 -0.65 -0.8 Q-0.75 -1.45 -1.1 -1.0 L-1.4 -0.45 -1.8 -0.7 -1.85 -0.6 M-0.35 -0.1 L-0.55 -0.65 -0.65 -0.8 M-1.7 0.3 L-1.7 0.25 -1.5 -0.15 -1.4 0.2 M-2.2 0.15 L-2.35 0.45 -2.6 1.15 M-3.05 0.8 L-2.6 0.55 -2.45 0.4" fill="none" stroke="#000000" stroke-linecap="round" stroke-linejoin="miter-clip" stroke-miterlimit="10.0" stroke-opacity="0.6" stroke-width="1.0"/>
    <path d="M6.85 -4.95 Q7.6 -6.1 9.7 -6.8 11.95 -7.55 13.95 -7.5 M7.35 -4.7 L8.3 -4.95 9.8 -5.15 11.3 -4.7 12.7 -3.9 M5.3 6.2 L5.65 6.4" fill="none" stroke="#000000" stroke-linecap="round" stroke-linejoin="miter-clip" stroke-miterlimit="10.0" stroke-opacity="0.6" stroke-width="1.0"/>
    <path d="M4.85 -2.9 L4.95 -3.25 Q5.5 -3.95 6.1 -3.55 L6.6 -3.05 Q6.25 -2.15 5.5 -2.4 L5.05 -2.7 4.85 -2.9" fill="#000000" fill-opacity="0.8" fill-rule="evenodd" stroke="none"/>
    <path d="M-6.65 -0.7 L-6.1 -1.1 Q-7.8 0.15 -8.65 2.15 L-9.1 3.85 Q-9.6 2.15 -7.9 0.35 L-6.65 -0.7" fill="#ffffff" fill-opacity="0.8" fill-rule="evenodd" stroke="none"/>
    <path d="M-1.05 -2.5 Q0.15 -3.5 3.2 -3.6 L1.2 -3.15 Q-0.9 -2.5 -1.7 -1.45 L-1.05 -2.5" fill="#ffffff" fill-opacity="0.8" fill-rule="evenodd" stroke="none"/>
    <path d="M4.7 -4.6 L5.6 -4.95 Q7.05 -5.2 8.1 -3.5 7.7 -4.0 7.05 -4.3 L4.35 -4.35 4.7 -4.6" fill="#ffffff" fill-opacity="0.8" fill-rule="evenodd" stroke="none"/>
    <path d="M5.7 -3.5 L6.05 -3.4 5.4 -3.2 4.95 -2.95 Q5.25 -3.5 5.7 -3.5" fill="#ffffff" fill-opacity="0.8" fill-rule="evenodd" stroke="none"/>
  </g>
</svg>
