<?xml version="1.0" encoding="UTF-8" standalone="no"?>
<svg xmlns:xlink="http://www.w3.org/1999/xlink" height="200.55px" width="283.7px" xmlns="http://www.w3.org/2000/svg">
  <g transform="matrix(1.0, 0.0, 0.0, 1.0, 141.85, 100.25)">
    <path d="M57.15 -95.3 L69.0 -98.35 57.15 -95.3 Q40.8 -95.95 21.55 -96.15 L2.5 -96.25 -22.7 -96.05 Q-43.5 -95.75 -60.75 -94.95 L-71.2 -94.4 Q-87.95 -93.35 -95.5 -92.1 -101.75 -91.1 -101.75 -89.9 -101.75 -87.65 -79.6 -85.9 L-71.2 -85.35 -35.05 -83.85 Q-17.7 -83.45 2.5 -83.45 L9.9 -83.45 Q28.4 -83.55 44.45 -83.95 L76.2 -85.35 87.85 -86.2 Q106.75 -87.8 106.75 -89.9 106.75 -91.65 92.7 -93.1 L76.2 -94.4 57.15 -95.3 M107.95 -95.75 L92.7 -93.1 107.95 -95.75 Q141.35 -92.75 141.35 -88.55 L141.35 -88.5 141.35 -55.9 Q141.35 -54.55 138.05 -53.35 L137.45 -53.15 134.25 -52.25 Q124.25 -49.85 100.35 -47.9 L99.95 -47.9 49.8 -45.3 Q31.05 -44.8 9.9 -44.65 L-0.05 -44.65 Q-21.9 -44.65 -41.35 -45.1 L-92.65 -47.35 -99.95 -47.9 Q-120.7 -49.55 -131.05 -51.55 L-135.15 -52.45 -135.15 -42.25 -81.3 -37.35 -7.5 -34.05 -6.55 -16.4 8.5 -15.6 Q27.0 -15.1 44.8 -16.45 L43.7 -35.0 Q66.05 -36.25 83.75 -39.0 L84.45 -39.15 84.45 -26.65 110.85 -28.2 110.85 -16.55 137.45 -20.95 137.45 -53.15 138.05 -53.35 138.05 67.2 135.3 71.65 Q130.55 77.05 120.8 81.7 89.55 96.8 19.2 99.3 6.9 99.85 1.15 99.8 L-10.05 99.6 -16.95 99.3 Q-87.25 96.8 -118.55 81.7 -128.3 77.05 -133.0 71.65 L-135.75 67.2 -135.75 0.8 Q-129.65 3.2 -120.6 5.45 L-120.6 -15.55 -135.75 -19.9 -135.75 -52.6 Q-141.35 -54.15 -141.35 -55.9 L-141.35 -88.5 -141.35 -88.55 Q-141.35 -92.55 -110.55 -95.5 L-99.95 -96.45 -64.5 -98.55 Q-45.3 -99.35 -23.3 -99.6 L-0.05 -99.75 22.15 -99.6 Q47.35 -99.35 69.0 -98.35 L99.95 -96.45 107.95 -95.75 M21.55 -96.15 L22.15 -99.6 21.55 -96.15 M49.8 -77.95 L49.8 -78.0 44.45 -83.95 49.8 -78.0 49.8 -77.95 99.95 -80.55 100.4 -80.55 99.95 -80.55 49.8 -77.95 Q31.05 -77.45 9.9 -77.3 31.05 -77.45 49.8 -77.95 L49.8 -45.3 49.8 -77.95 M9.9 -83.45 L9.9 -77.3 9.9 -83.45 M87.85 -86.2 L100.4 -80.6 100.4 -80.55 100.4 -80.6 87.85 -86.2 M34.0 -34.5 L22.7 -33.95 Q3.4 -33.15 -5.05 -34.05 L4.45 -34.0 Q20.05 -34.0 34.0 -34.5 M72.3 -9.55 L36.05 -8.05 34.8 8.8 58.45 7.85 71.2 6.2 72.3 -9.55 M9.9 -77.3 L9.9 -44.65 9.9 -77.3 -0.05 -77.3 Q-21.4 -77.3 -40.45 -77.7 -21.4 -77.3 -0.05 -77.3 L9.9 -77.3 M-41.35 -45.1 L-41.35 -76.7 -40.45 -77.7 -41.35 -76.7 -41.35 -45.1 M134.4 -84.9 Q141.3 -86.6 141.35 -88.5 141.3 -86.6 134.4 -84.9 L134.25 -52.25 134.4 -84.9 134.4 -85.0 106.75 -89.9 134.4 -85.0 134.4 -84.9 Q124.5 -82.5 100.4 -80.55 124.5 -82.5 134.4 -84.9 M128.75 -0.4 L128.75 -16.1 92.6 -12.0 92.6 4.9 Q101.7 4.9 116.1 2.3 L128.75 -0.4 M100.4 -80.55 L100.35 -47.9 100.4 -80.55 M137.45 2.4 L122.3 6.85 122.3 27.75 127.65 26.35 Q133.65 24.65 137.45 23.15 L137.45 2.4 M97.6 31.05 L114.75 27.15 114.75 9.5 74.5 14.95 73.35 34.0 Q79.2 34.85 97.6 31.05 M89.65 43.3 L89.65 63.1 103.2 61.7 Q118.45 59.0 127.55 53.25 L127.55 36.35 114.1 39.6 Q98.75 42.9 89.65 43.3 M40.8 27.0 L19.75 26.9 Q-2.85 26.45 -10.5 24.65 L-10.5 42.7 4.45 44.4 40.8 45.65 40.8 27.0 M9.9 0.2 L-11.15 0.15 Q-33.7 -0.3 -41.35 -2.15 L-41.35 15.95 -26.4 17.6 9.9 18.85 9.9 0.2 M8.15 50.3 L-12.9 50.25 Q-35.45 49.8 -43.15 47.95 L-43.15 66.05 -28.2 67.75 8.15 68.95 8.15 50.3 M-92.65 -80.0 L-92.65 -80.2 -79.6 -85.9 -92.65 -80.2 -92.65 -80.0 -40.45 -77.7 -92.65 -80.0 -99.95 -80.55 Q-120.7 -82.2 -131.05 -84.2 -120.7 -82.2 -99.95 -80.55 L-92.65 -80.0 -92.65 -47.35 -92.65 -80.0 M-95.5 -92.1 L-110.55 -95.5 -95.5 -92.1 M-35.05 -83.85 L-40.45 -77.7 -35.05 -83.85 M-131.05 -84.2 L-131.05 -51.55 -131.05 -84.2 -131.05 -84.25 -101.75 -89.9 -131.05 -84.25 -131.05 -84.2 Q-141.3 -86.2 -141.35 -88.5 -141.3 -86.2 -131.05 -84.2 M-135.75 -52.6 L-135.15 -52.45 -135.75 -52.6 M-127.55 -23.05 L-114.95 -20.45 Q-100.6 -17.85 -91.5 -17.85 L-91.5 -34.75 -127.55 -38.8 -127.55 -23.05 M-23.3 -99.6 L-22.7 -96.05 -23.3 -99.6 M-60.75 -94.95 L-64.5 -98.55 -60.75 -94.95 M-113.6 -13.2 L-113.6 4.5 -96.45 8.4 Q-78.05 12.1 -72.25 11.25 L-73.4 -7.75 -113.6 -13.2 M-18.6 25.8 L-39.7 25.75 Q-62.25 25.35 -69.9 23.55 L-69.9 41.55 -54.95 43.25 -18.6 44.45 -18.6 25.8 M-68.15 78.25 L-68.15 58.45 Q-77.25 58.05 -92.55 54.75 L-106.05 51.5 -106.05 68.4 Q-96.95 74.15 -81.6 76.85 -74.0 78.15 -68.15 78.25 M-88.55 40.35 L-88.55 20.6 Q-97.65 20.2 -112.95 16.9 L-126.4 13.6 -126.4 30.5 Q-117.3 36.25 -102.0 38.95 -94.35 40.25 -88.55 40.35" fill="#ffffff" fill-opacity="0.0" fill-rule="evenodd" stroke="none"/>
    <path d="M43.7 -35.0 L39.15 -34.75 34.0 -34.5 Q20.05 -34.0 4.45 -34.0 L-5.05 -34.05 -7.5 -34.05 -81.3 -37.35 -135.15 -42.25 -135.15 -52.45 -131.05 -51.55 Q-120.7 -49.55 -99.95 -47.9 L-92.65 -47.35 -41.35 -45.1 Q-21.9 -44.65 -0.05 -44.65 L9.9 -44.65 Q31.05 -44.8 49.8 -45.3 L99.95 -47.9 100.35 -47.9 Q124.25 -49.85 134.25 -52.25 L137.45 -53.15 137.45 -20.95 110.85 -16.55 110.85 -28.2 84.45 -26.65 84.45 -39.15 83.75 -39.0 Q66.05 -36.25 43.7 -35.0 M128.75 -0.4 L116.1 2.3 Q101.7 4.9 92.6 4.9 L92.6 -12.0 128.75 -16.1 128.75 -0.4 M137.45 2.4 L137.45 23.15 Q133.65 24.65 127.65 26.35 L122.3 27.75 122.3 6.85 137.45 2.4 M89.65 43.3 Q98.75 42.9 114.1 39.6 L127.55 36.35 127.55 53.25 Q118.45 59.0 103.2 61.7 L89.65 63.1 89.65 43.3 M8.15 50.3 L8.15 68.95 -28.2 67.75 -43.15 66.05 -43.15 47.95 Q-35.45 49.8 -12.9 50.25 L8.15 50.3 M9.9 0.2 L9.9 18.85 -26.4 17.6 -41.35 15.95 -41.35 -2.15 Q-33.7 -0.3 -11.15 0.15 L9.9 0.2 M40.8 27.0 L40.8 45.65 4.45 44.4 -10.5 42.7 -10.5 24.65 Q-2.85 26.45 19.75 26.9 L40.8 27.0 M-127.55 -23.05 L-127.55 -38.8 -91.5 -34.75 -91.5 -17.85 Q-100.6 -17.85 -114.95 -20.45 L-127.55 -23.05 M-135.75 -19.9 L-120.6 -15.55 -120.6 5.45 Q-129.65 3.2 -135.75 0.8 L-135.75 -19.9 M-18.6 25.8 L-18.6 44.45 -54.95 43.25 -69.9 41.55 -69.9 23.55 Q-62.25 25.35 -39.7 25.75 L-18.6 25.8 M-88.55 40.35 Q-94.35 40.25 -102.0 38.95 -117.3 36.25 -126.4 30.5 L-126.4 13.6 -112.95 16.9 Q-97.65 20.2 -88.55 20.6 L-88.55 40.35" fill="#000000" fill-opacity="0.2" fill-rule="evenodd" stroke="none"/>
    <path d="M34.0 -34.5 L39.15 -34.75 43.7 -35.0 44.8 -16.45 Q27.0 -15.1 8.5 -15.6 L-6.55 -16.4 -7.5 -34.05 -5.05 -34.05 Q3.4 -33.15 22.7 -33.95 L34.0 -34.5 M97.6 31.05 Q79.2 34.85 73.35 34.0 L74.5 14.95 114.75 9.5 114.75 27.15 97.6 31.05 M-113.6 -13.2 L-73.4 -7.75 -72.25 11.25 Q-78.05 12.1 -96.45 8.4 L-113.6 4.5 -113.6 -13.2" fill="#000000" fill-opacity="0.29803923" fill-rule="evenodd" stroke="none"/>
    <path d="M72.3 -9.55 L71.2 6.2 58.45 7.85 34.8 8.8 36.05 -8.05 72.3 -9.55 M-68.15 78.25 Q-74.0 78.15 -81.6 76.85 -96.95 74.15 -106.05 68.4 L-106.05 51.5 -92.55 54.75 Q-77.25 58.05 -68.15 58.45 L-68.15 78.25" fill="#ffffff" fill-opacity="0.2" fill-rule="evenodd" stroke="none"/>
    <path d="M57.15 -95.3 L76.2 -94.4 92.7 -93.1 Q106.75 -91.65 106.75 -89.9 106.75 -87.8 87.85 -86.2 L76.2 -85.35 44.45 -83.95 Q28.4 -83.55 9.9 -83.45 L2.5 -83.45 Q-17.7 -83.45 -35.05 -83.85 L-71.2 -85.35 -79.6 -85.9 Q-101.75 -87.65 -101.75 -89.9 -101.75 -91.1 -95.5 -92.1 -87.95 -93.35 -71.2 -94.4 L-60.75 -94.95 Q-43.5 -95.75 -22.7 -96.05 L2.5 -96.25 21.55 -96.15 Q40.8 -95.95 57.15 -95.3" fill="#000000" fill-opacity="0.49803922" fill-rule="evenodd" stroke="none"/>
    <path d="M57.15 -95.3 L76.2 -94.4 92.7 -93.1 Q106.75 -91.65 106.75 -89.9 106.75 -87.8 87.85 -86.2 L76.2 -85.35 44.45 -83.95 Q28.4 -83.55 9.9 -83.45 L2.5 -83.45 Q-17.7 -83.45 -35.05 -83.85 L-71.2 -85.35 -79.6 -85.9 Q-101.75 -87.65 -101.75 -89.9 -101.75 -91.1 -95.5 -92.1 -87.95 -93.35 -71.2 -94.4 L-60.75 -94.95 Q-43.5 -95.75 -22.7 -96.05 L2.5 -96.25 21.55 -96.15 Q40.8 -95.95 57.15 -95.3 M107.95 -95.75 L99.95 -96.45 69.0 -98.35 Q47.35 -99.35 22.15 -99.6 L-0.05 -99.75 -23.3 -99.6 Q-45.3 -99.35 -64.5 -98.55 L-99.95 -96.45 -110.55 -95.5 Q-141.35 -92.55 -141.35 -88.55 L-141.35 -88.5 -141.35 -55.9 Q-141.35 -54.15 -135.75 -52.6 L-135.75 -19.9 -135.75 0.8 -135.75 67.2 -133.0 71.65 Q-128.3 77.05 -118.55 81.7 -87.25 96.8 -16.95 99.3 L-10.05 99.6 1.15 99.8 Q6.9 99.85 19.2 99.3 89.55 96.8 120.8 81.7 130.55 77.05 135.3 71.65 L138.05 67.2 138.05 -53.35 Q141.35 -54.55 141.35 -55.9 L141.35 -88.5 Q141.3 -86.6 134.4 -84.9 124.5 -82.5 100.4 -80.55 L99.95 -80.55 49.8 -77.95 Q31.05 -77.45 9.9 -77.3 L-0.05 -77.3 Q-21.4 -77.3 -40.45 -77.7 L-92.65 -80.0 -99.95 -80.55 Q-120.7 -82.2 -131.05 -84.2 -141.3 -86.2 -141.35 -88.5 M137.45 -53.15 L134.25 -52.25 Q124.25 -49.85 100.35 -47.9 L99.95 -47.9 49.8 -45.3 Q31.05 -44.8 9.9 -44.65 L-0.05 -44.65 Q-21.9 -44.65 -41.35 -45.1 L-92.65 -47.35 -99.95 -47.9 Q-120.7 -49.55 -131.05 -51.55 L-135.15 -52.45 -135.75 -52.6 M107.95 -95.75 Q141.35 -92.75 141.35 -88.55 L141.35 -88.5 M138.05 -53.35 L137.45 -53.15" fill="none" stroke="#000000" stroke-linecap="butt" stroke-linejoin="miter-clip" stroke-miterlimit="10.0" stroke-width="1.0"/>
    <path d="M69.0 -98.35 L57.15 -95.3 M92.7 -93.1 L107.95 -95.75 M22.15 -99.6 L21.55 -96.15 M44.45 -83.95 L49.8 -78.0 49.8 -77.95 49.8 -45.3 M100.4 -80.55 L100.4 -80.6 87.85 -86.2 M9.9 -77.3 L9.9 -83.45 M9.9 -44.65 L9.9 -77.3 M-40.45 -77.7 L-41.35 -76.7 -41.35 -45.1 M134.4 -84.9 L134.25 -52.25 M134.4 -84.9 L134.4 -85.0 106.75 -89.9 M100.35 -47.9 L100.4 -80.55 M-79.6 -85.9 L-92.65 -80.2 -92.65 -80.0 -92.65 -47.35 M-40.45 -77.7 L-35.05 -83.85 M-110.55 -95.5 L-95.5 -92.1 M-131.05 -84.2 L-131.05 -84.25 -101.75 -89.9 M-131.05 -51.55 L-131.05 -84.2 M-64.5 -98.55 L-60.75 -94.95 M-22.7 -96.05 L-23.3 -99.6" fill="none" stroke="#000000" stroke-linecap="butt" stroke-linejoin="miter-clip" stroke-miterlimit="10.0" stroke-opacity="0.6" stroke-width="1.0"/>
  </g>
</svg>
