<?xml version="1.0" encoding="UTF-8" standalone="no"?>
<svg xmlns:xlink="http://www.w3.org/1999/xlink" height="470.8px" width="2135.05px" xmlns="http://www.w3.org/2000/svg">
  <g transform="matrix(1.0, 0.0, 0.0, 1.0, 1067.5, 235.3)">
    <path d="M1067.05 -116.75 L1067.05 217.9 874.9 217.9 874.9 -116.75 1067.05 -116.75 M346.0 -233.0 L389.5 -233.0 389.5 -201.65 346.0 -201.65 346.0 -233.0 M-564.5 -175.7 Q-540.35 -168.2 -515.3 -152.45 -494.6 -139.25 -466.25 -138.35 -452.15 -137.9 -442.1 -140.15 L-445.7 -126.2 Q-458.75 -124.4 -475.25 -126.05 -508.4 -129.05 -525.8 -145.4 -543.2 -161.75 -576.35 -163.1 L-597.35 -162.35 -605.9 -161.15 -611.15 -182.0 Q-589.1 -183.35 -564.5 -175.7 M-442.1 -103.55 L-442.1 213.55 -489.2 213.55 -489.2 -103.55 -442.1 -103.55 M-140.15 -234.8 L-75.65 -234.8 -75.65 -198.2 -140.15 -198.2 -140.15 -234.8" fill="#000000" fill-opacity="0.4" fill-rule="evenodd" stroke="none"/>
    <path d="M652.6 234.85 L-35.6 234.85 -35.6 32.65 652.6 32.65 652.6 234.85 M-772.55 145.0 L-800.3 233.95 -1062.05 233.95 -1067.0 78.85 -931.1 33.55 -772.55 145.0" fill="#000000" fill-opacity="0.69803923" fill-rule="evenodd" stroke="none"/>
    <path d="M1067.05 -116.75 L1067.05 217.9 874.9 217.9 874.9 -116.75 1067.05 -116.75 M346.0 -233.0 L389.5 -233.0 389.5 -201.65 346.0 -201.65 346.0 -233.0 M652.6 234.85 L-35.6 234.85 -35.6 32.65 652.6 32.65 652.6 234.85 M-564.5 -175.7 Q-589.1 -183.35 -611.15 -182.0 L-605.9 -161.15 -597.35 -162.35 -576.35 -163.1 Q-543.2 -161.75 -525.8 -145.4 -508.4 -129.05 -475.25 -126.05 -458.75 -124.4 -445.7 -126.2 L-442.1 -140.15 Q-452.15 -137.9 -466.25 -138.35 -494.6 -139.25 -515.3 -152.45 -540.35 -168.2 -564.5 -175.7 M-442.1 -103.55 L-442.1 213.55 -489.2 213.55 -489.2 -103.55 -442.1 -103.55 M-140.15 -234.8 L-75.65 -234.8 -75.65 -198.2 -140.15 -198.2 -140.15 -234.8 M-772.55 145.0 L-931.1 33.55 -1067.0 78.85 -1062.05 233.95 -800.3 233.95 -772.55 145.0" fill="none" stroke="#000000" stroke-linecap="butt" stroke-linejoin="miter-clip" stroke-miterlimit="10.0" stroke-width="1.0"/>
  </g>
</svg>
