<?xml version="1.0" encoding="UTF-8" standalone="no"?>
<svg xmlns:xlink="http://www.w3.org/1999/xlink" height="107.2px" width="2199.85px" xmlns="http://www.w3.org/2000/svg">
  <g transform="matrix(1.0, 0.0, 0.0, 1.0, 1099.95, 53.6)">
    <path d="M163.7 -0.9 L163.7 53.1 17.45 53.1 17.45 -0.9 163.7 -0.9" fill="#ffffff" fill-opacity="0.0" fill-rule="evenodd" stroke="none"/>
    <path d="M163.7 -0.9 L17.45 -0.9 17.45 53.1 163.7 53.1 163.7 -0.9 Z" fill="none" stroke="#000000" stroke-linecap="butt" stroke-linejoin="miter-clip" stroke-miterlimit="10.0" stroke-opacity="0.8" stroke-width="1.0"/>
    <path d="M1099.4 -30.45 L966.95 -30.45 966.95 -53.1 1099.4 -53.1 1099.4 -30.45" fill="#ffffff" fill-opacity="0.0" fill-rule="evenodd" stroke="none"/>
    <path d="M1099.4 -30.45 L966.95 -30.45 966.95 -53.1 1099.4 -53.1 1099.4 -30.45 Z" fill="none" stroke="#000000" stroke-linecap="butt" stroke-linejoin="miter-clip" stroke-miterlimit="10.0" stroke-opacity="0.8" stroke-width="1.0"/>
    <path d="M-469.3 -6.15 L-469.6 25.2 -1099.45 25.2 -1099.45 -6.15 -469.3 -6.15" fill="#ffffff" fill-opacity="0.0" fill-rule="evenodd" stroke="none"/>
    <path d="M-469.3 -6.15 L-1099.45 -6.15 -1099.45 25.2 -469.6 25.2 -469.3 -6.15 Z" fill="none" stroke="#000000" stroke-linecap="butt" stroke-linejoin="miter-clip" stroke-miterlimit="10.0" stroke-opacity="0.8" stroke-width="1.0"/>
  </g>
</svg>
