<?xml version="1.0" encoding="UTF-8" standalone="no"?>
<svg xmlns:xlink="http://www.w3.org/1999/xlink" height="76.0px" width="650.55px" xmlns="http://www.w3.org/2000/svg">
  <g transform="matrix(1.0, 0.0, 0.0, 1.0, 325.2, 12.75)">
    <path d="M-318.8 15.4 L-324.7 15.65 -324.7 6.95 -320.7 -12.25 -315.3 -12.25 -304.7 -0.35 -305.45 2.65 -318.8 2.65 -318.8 15.4" fill="#ffffff" fill-opacity="0.0" fill-rule="evenodd" stroke="none"/>
    <path d="M-65.85 46.85 L-84.75 46.85 -102.9 46.85 -127.85 36.25 283.3 36.25 283.3 50.55 162.2 50.55 129.05 42.95 112.9 39.25 110.05 41.4 102.7 46.85 -65.85 46.85" fill="#000000" fill-opacity="0.2" fill-rule="evenodd" stroke="none"/>
    <path d="M-65.85 46.85 Q-70.25 55.1 -72.8 56.65 -75.1 58.15 -80.4 57.75 -81.2 58.65 -83.0 59.65 -86.1 61.35 -96.0 62.25 -105.1 63.05 -107.2 62.55 L-169.2 59.55 Q-230.6 57.05 -236.4 58.35 L-238.1 58.55 Q-244.4 58.65 -258.4 51.25 L-271.2 43.85 -267.15 36.25 -258.25 36.25 Q-260.35 39.25 -264.0 38.95 L-266.1 42.65 -241.9 54.55 Q-115.3 57.45 -106.8 57.05 -93.1 56.45 -86.6 55.15 -86.4 53.05 -85.0 47.65 L-84.75 46.85 -65.85 46.85 M129.05 42.95 L129.8 43.65 Q140.0 53.15 140.1 55.15 146.6 56.45 160.3 57.05 165.6 57.35 231.0 55.95 L295.4 54.55 319.7 42.65 317.6 38.95 Q313.95 39.25 311.85 36.25 L320.65 36.25 324.7 43.85 311.9 51.25 Q297.9 58.65 291.6 58.55 L289.9 58.35 Q284.2 57.05 222.8 59.55 L160.7 62.55 149.6 62.25 Q139.6 61.35 136.5 59.65 135.0 58.75 134.0 57.75 128.6 58.15 126.3 56.65 124.2 55.35 113.1 44.45 L110.05 41.4 112.9 39.25 129.05 42.95" fill="#000000" fill-opacity="0.4" fill-rule="evenodd" stroke="none"/>
    <path d="M-304.7 -0.35 L-315.3 -12.25 -320.7 -12.25 -324.7 6.95 -324.7 15.65 -318.8 15.4 M-267.15 36.25 L-271.2 43.85 -258.4 51.25 Q-244.4 58.65 -238.1 58.55 L-236.4 58.35 Q-230.6 57.05 -169.2 59.55 L-107.2 62.55 Q-105.1 63.05 -96.0 62.25 -86.1 61.35 -83.0 59.65 -81.2 58.65 -80.4 57.75 -75.1 58.15 -72.8 56.65 -70.25 55.1 -65.85 46.85 L102.7 46.85 110.05 41.4 113.1 44.45 Q124.2 55.35 126.3 56.65 128.6 58.15 134.0 57.75 135.0 58.75 136.5 59.65 139.6 61.35 149.6 62.25 L160.7 62.55 222.8 59.55 Q284.2 57.05 289.9 58.35 L291.6 58.55 Q297.9 58.65 311.9 51.25 L324.7 43.85 320.65 36.25 M129.05 42.95 L129.8 43.65 Q140.0 53.15 140.1 55.15 146.6 56.45 160.3 57.05 165.6 57.35 231.0 55.95 L295.4 54.55 319.7 42.65 317.6 38.95 Q313.95 39.25 311.85 36.25 M283.3 36.25 L283.3 50.55 162.2 50.55 129.05 42.95" fill="none" stroke="#000000" stroke-linecap="butt" stroke-linejoin="miter-clip" stroke-miterlimit="10.0" stroke-width="1.0"/>
    <path d="M129.05 42.95 L112.9 39.25 110.05 41.4" fill="none" stroke="#000000" stroke-linecap="butt" stroke-linejoin="miter-clip" stroke-miterlimit="10.0" stroke-opacity="0.6" stroke-width="1.0"/>
    <path d="M-65.85 46.85 L-84.75 46.85" fill="none" stroke="#000000" stroke-linecap="butt" stroke-linejoin="miter-clip" stroke-miterlimit="10.0" stroke-opacity="0.6" stroke-width="1.0"/>
    <path d="M-84.75 46.85 L-85.0 47.65 Q-86.4 53.05 -86.6 55.15 -93.1 56.45 -106.8 57.05 -115.3 57.45 -241.9 54.55 L-266.1 42.65 -264.0 38.95 Q-260.35 39.25 -258.25 36.25" fill="none" stroke="#000000" stroke-linecap="round" stroke-linejoin="miter-clip" stroke-miterlimit="10.0" stroke-width="1.0"/>
    <path d="M-127.85 36.25 L-102.9 46.85 -84.75 46.85" fill="none" stroke="#000000" stroke-linecap="butt" stroke-linejoin="miter-clip" stroke-miterlimit="10.0" stroke-width="1.0"/>
  </g>
</svg>
