<?xml version="1.0" encoding="UTF-8" standalone="no"?>
<svg xmlns:xlink="http://www.w3.org/1999/xlink" height="34.6px" width="646.9px" xmlns="http://www.w3.org/2000/svg">
  <g transform="matrix(1.0, 0.0, 0.0, 1.0, 323.45, 15.8)">
    <path d="M28.95 -0.6 Q88.35 -1.1 147.15 -2.3 L-92.85 -2.3 Q-89.95 0.6 28.95 -0.6 M322.95 -11.9 L322.95 18.3 -322.95 18.3 -322.95 -15.3 -300.85 -15.3 -295.75 -5.1 310.15 -5.1 314.45 -11.9 322.95 -11.9 M-303.25 -11.7 L-300.25 -4.0 -297.25 -3.9 -301.95 -13.0 -321.65 -13.2 -303.25 -11.7" fill="#ffffff" fill-opacity="0.0" fill-rule="evenodd" stroke="none"/>
    <path d="M-303.25 -11.7 L-321.65 -13.2 -301.95 -13.0 -297.25 -3.9 -300.25 -4.0 -303.25 -11.7" fill="#ffffff" fill-rule="evenodd" stroke="none"/>
    <path d="M28.95 -0.6 Q-89.95 0.6 -92.85 -2.3 L147.15 -2.3 Q88.35 -1.1 28.95 -0.6" fill="#ffffff" fill-opacity="0.6" fill-rule="evenodd" stroke="none"/>
    <path d="M322.95 -11.9 L322.95 18.3 -322.95 18.3 -322.95 -15.3 -300.85 -15.3 -295.75 -5.1 310.15 -5.1 314.45 -11.9 322.95 -11.9 Z" fill="none" stroke="#000000" stroke-linecap="butt" stroke-linejoin="miter-clip" stroke-miterlimit="10.0" stroke-width="1.0"/>
  </g>
</svg>
