<?xml version="1.0" encoding="UTF-8" standalone="no"?>
<svg xmlns:xlink="http://www.w3.org/1999/xlink" height="86.1px" width="86.1px" xmlns="http://www.w3.org/2000/svg">
  <g transform="matrix(1.0, 0.0, 0.0, 1.0, 43.05, 43.05)">
    <path d="M0.05 -42.55 Q17.65 -42.55 30.15 -30.05 42.55 -17.55 42.55 0.05 42.55 17.65 30.15 30.15 17.65 42.55 0.05 42.55 -17.55 42.55 -30.05 30.15 -42.55 17.65 -42.55 0.05 -42.55 -17.55 -30.05 -30.05 -17.55 -42.55 0.05 -42.55" fill="#ffffff" fill-opacity="0.0" fill-rule="evenodd" stroke="none"/>
    <path d="M0.05 -42.55 Q17.65 -42.55 30.15 -30.05 42.55 -17.55 42.55 0.05 42.55 17.65 30.15 30.15 17.65 42.55 0.05 42.55 -17.55 42.55 -30.05 30.15 -42.55 17.65 -42.55 0.05 -42.55 -17.55 -30.05 -30.05 -17.55 -42.55 0.05 -42.55 Z" fill="none" stroke="#000000" stroke-linecap="butt" stroke-linejoin="miter-clip" stroke-miterlimit="10.0" stroke-opacity="0.6" stroke-width="1.0"/>
    <path d="M0.05 -31.75 Q13.15 -31.75 22.45 -22.45 31.75 -13.15 31.75 0.05 31.75 13.15 22.45 22.45 13.15 31.75 0.05 31.75 -13.15 31.75 -22.45 22.45 -31.75 13.15 -31.75 0.05 -31.75 -13.15 -22.45 -22.45 -13.15 -31.75 0.05 -31.75" fill="#ffffff" fill-opacity="0.0" fill-rule="evenodd" stroke="none"/>
    <path d="M0.05 -31.75 Q13.15 -31.75 22.45 -22.45 31.75 -13.15 31.75 0.05 31.75 13.15 22.45 22.45 13.15 31.75 0.05 31.75 -13.15 31.75 -22.45 22.45 -31.75 13.15 -31.75 0.05 -31.75 -13.15 -22.45 -22.45 -13.15 -31.75 0.05 -31.75 Z" fill="none" stroke="#000000" stroke-linecap="butt" stroke-linejoin="miter-clip" stroke-miterlimit="10.0" stroke-opacity="0.6" stroke-width="1.0"/>
    <path d="M-15.15 -15.15 Q-8.85 -21.35 0.05 -21.35 8.95 -21.35 15.15 -15.15 21.45 -8.85 21.45 0.05 21.45 8.95 15.15 15.15 8.95 21.45 0.05 21.45 -8.85 21.45 -15.15 15.15 -21.35 8.95 -21.35 0.05 -21.35 -8.85 -15.15 -15.15" fill="#000000" fill-opacity="0.2" fill-rule="evenodd" stroke="none"/>
    <path d="M-15.15 -15.15 Q-8.85 -21.35 0.05 -21.35 8.95 -21.35 15.15 -15.15 21.45 -8.85 21.45 0.05 21.45 8.95 15.15 15.15 8.95 21.45 0.05 21.45 -8.85 21.45 -15.15 15.15 -21.35 8.95 -21.35 0.05 -21.35 -8.85 -15.15 -15.15 Z" fill="none" stroke="#000000" stroke-linecap="butt" stroke-linejoin="miter-clip" stroke-miterlimit="10.0" stroke-opacity="0.6" stroke-width="1.0"/>
    <path d="M-9.55 0.25 Q-9.55 1.35 -10.25 2.05 -11.05 2.75 -12.15 2.75 -13.25 2.75 -13.95 2.05 -14.75 1.25 -14.75 0.25 -14.75 -0.85 -13.95 -1.65 -13.25 -2.35 -12.15 -2.35 -11.05 -2.35 -10.25 -1.65 -9.55 -0.85 -9.55 0.25" fill="#ffffff" fill-opacity="0.0" fill-rule="evenodd" stroke="none"/>
    <path d="M-9.55 0.25 Q-9.55 1.35 -10.25 2.05 -11.05 2.75 -12.15 2.75 -13.25 2.75 -13.95 2.05 -14.75 1.25 -14.75 0.25 -14.75 -0.85 -13.95 -1.65 -13.25 -2.35 -12.15 -2.35 -11.05 -2.35 -10.25 -1.65 -9.55 -0.85 -9.55 0.25 Z" fill="none" stroke="#000000" stroke-linecap="butt" stroke-linejoin="miter-clip" stroke-miterlimit="10.0" stroke-opacity="0.6" stroke-width="1.0"/>
    <path d="M16.75 0.25 Q16.75 1.35 16.05 2.05 15.25 2.75 14.15 2.75 13.15 2.75 12.35 2.05 11.65 1.35 11.65 0.25 11.65 -0.85 12.35 -1.65 13.05 -2.35 14.15 -2.35 15.25 -2.35 16.05 -1.65 16.75 -0.85 16.75 0.25" fill="#ffffff" fill-opacity="0.0" fill-rule="evenodd" stroke="none"/>
    <path d="M16.75 0.25 Q16.75 1.35 16.05 2.05 15.25 2.75 14.15 2.75 13.15 2.75 12.35 2.05 11.65 1.35 11.65 0.25 11.65 -0.85 12.35 -1.65 13.05 -2.35 14.15 -2.35 15.25 -2.35 16.05 -1.65 16.75 -0.85 16.75 0.25 Z" fill="none" stroke="#000000" stroke-linecap="butt" stroke-linejoin="miter-clip" stroke-miterlimit="10.0" stroke-opacity="0.6" stroke-width="1.0"/>
    <path d="M1.05 -10.35 Q0.05 -10.35 -0.75 -11.15 -1.55 -11.85 -1.55 -12.95 -1.55 -13.95 -0.75 -14.75 0.05 -15.55 1.05 -15.55 2.15 -15.55 2.85 -14.75 3.65 -13.95 3.65 -12.95 3.65 -11.85 2.85 -11.15 2.15 -10.35 1.05 -10.35" fill="#ffffff" fill-opacity="0.0" fill-rule="evenodd" stroke="none"/>
    <path d="M1.05 -10.35 Q0.05 -10.35 -0.75 -11.15 -1.55 -11.85 -1.55 -12.95 -1.55 -13.95 -0.75 -14.75 0.05 -15.55 1.05 -15.55 2.15 -15.55 2.85 -14.75 3.65 -13.95 3.65 -12.95 3.65 -11.85 2.85 -11.15 2.15 -10.35 1.05 -10.35 Z" fill="none" stroke="#000000" stroke-linecap="butt" stroke-linejoin="miter-clip" stroke-miterlimit="10.0" stroke-opacity="0.6" stroke-width="1.0"/>
    <path d="M1.05 15.95 Q-0.05 15.95 -0.75 15.25 -1.55 14.45 -1.55 13.35 -1.55 12.35 -0.75 11.55 0.05 10.75 1.05 10.75 2.15 10.75 2.85 11.55 3.65 12.35 3.65 13.35 3.65 14.45 2.85 15.25 2.15 15.95 1.05 15.95" fill="#ffffff" fill-opacity="0.0" fill-rule="evenodd" stroke="none"/>
    <path d="M1.05 15.95 Q-0.05 15.95 -0.75 15.25 -1.55 14.45 -1.55 13.35 -1.55 12.35 -0.75 11.55 0.05 10.75 1.05 10.75 2.15 10.75 2.85 11.55 3.65 12.35 3.65 13.35 3.65 14.45 2.85 15.25 2.15 15.95 1.05 15.95 Z" fill="none" stroke="#000000" stroke-linecap="butt" stroke-linejoin="miter-clip" stroke-miterlimit="10.0" stroke-opacity="0.6" stroke-width="1.0"/>
  </g>
</svg>
