<?xml version="1.0" encoding="UTF-8" standalone="no"?>
<svg xmlns:xlink="http://www.w3.org/1999/xlink" height="206.4px" width="288.45px" xmlns="http://www.w3.org/2000/svg">
  <g transform="matrix(1.0, 0.0, 0.0, 1.0, 144.35, 103.2)">
    <path d="M0.7 -93.3 L0.7 -28.7 101.6 -28.7 101.6 -93.3 0.7 -93.3 M107.6 -19.0 L97.0 -6.3 102.6 -10.7 Q108.4 -14.9 109.6 -13.7 111.6 -11.7 115.6 -3.0 114.8 -6.3 113.4 -10.0 110.5 -17.3 107.6 -19.0 M-123.7 -1.3 Q-123.0 -4.6 -121.5 -8.8 -118.5 -17.2 -114.4 -21.3 L-114.4 -102.7 110.3 -102.7 110.3 -21.3 Q114.5 -17.2 117.5 -8.8 L119.35 -2.5 122.4 -5.3 Q125.75 -8.55 127.9 -11.45 L126.0 -13.0 Q123.0 -16.0 123.0 -20.3 123.0 -24.6 126.0 -27.6 129.0 -30.7 133.3 -30.7 137.6 -30.7 140.6 -27.6 143.6 -24.6 143.6 -20.3 143.6 -16.0 140.6 -13.0 137.6 -10.0 133.3 -10.0 L131.85 -10.1 135.0 -15.0 Q133.8 -19.2 132.3 -18.4 L131.0 -16.7 Q129.95 -14.25 127.9 -11.45 129.95 -14.25 131.0 -16.7 L132.3 -18.4 Q133.8 -19.2 135.0 -15.0 L131.85 -10.1 130.7 -8.3 Q127.8 -4.05 125.05 -1.3 L135.0 -1.3 135.0 30.0 Q139.1 32.1 139.5 36.2 139.7 38.3 139.0 40.0 L94.05 40.0 75.6 64.7 75.6 100.7 5.6 102.3 5.6 102.7 -9.7 102.7 -9.7 102.3 -79.7 100.7 -79.7 64.7 -98.0 40.0 -143.0 40.0 Q-143.7 38.3 -143.5 36.2 -143.2 32.1 -139.0 30.0 L-139.0 -1.3 -123.7 -1.3 -119.0 1.9 Q-114.1 5.5 -113.7 8.0 -113.0 12.0 -113.7 32.7 -113.0 12.0 -113.7 8.0 -114.1 5.5 -119.0 1.9 L-123.7 -1.3 M116.3 0.0 L119.35 -2.5 116.3 0.0 117.5 0.5 116.3 0.0 M109.6 32.7 Q109.0 12.0 109.6 8.0 110.0 5.5 113.8 2.8 L117.5 0.5 121.0 2.0 125.05 -1.3 121.0 2.0 117.5 0.5 113.8 2.8 Q110.0 5.5 109.6 8.0 109.0 12.0 109.6 32.7 M94.05 40.0 L97.0 36.0 Q101.5 30.3 103.1 23.3 106.2 9.3 91.6 2.7 79.4 -2.9 45.3 -4.5 23.9 -5.5 -2.0 -4.9 -27.9 -5.5 -49.4 -4.5 -83.4 -2.9 -95.7 2.7 -110.3 9.3 -107.1 23.3 -105.5 30.3 -101.0 36.0 L-98.0 40.0 -101.0 36.0 Q-105.5 30.3 -107.1 23.3 -110.3 9.3 -95.7 2.7 -83.4 -2.9 -49.4 -4.5 -27.9 -5.5 -2.0 -4.9 23.9 -5.5 45.3 -4.5 79.4 -2.9 91.6 2.7 106.2 9.3 103.1 23.3 101.5 30.3 97.0 36.0 L94.05 40.0 M57.2 6.4 Q56.2 5.3 54.6 5.3 53.1 5.3 52.1 6.4 51.0 7.5 51.0 9.0 L51.0 83.0 Q51.0 84.5 52.1 85.6 53.1 86.7 54.6 86.7 56.2 86.7 57.2 85.6 58.3 84.5 58.3 83.0 L58.3 9.0 Q58.3 7.5 57.2 6.4 M43.1 6.4 Q42.0 5.3 40.5 5.3 38.9 5.3 37.9 6.4 36.8 7.5 36.8 9.0 L36.8 83.0 Q36.8 84.5 37.9 85.6 38.9 86.7 40.5 86.7 42.0 86.7 43.1 85.6 44.1 84.5 44.1 83.0 L44.1 9.0 Q44.1 7.5 43.1 6.4 M28.9 6.4 Q27.8 5.3 26.3 5.3 24.8 5.3 23.7 6.4 22.6 7.5 22.6 9.0 L22.6 83.0 Q22.6 84.5 23.7 85.6 24.8 86.7 26.3 86.7 27.8 86.7 28.9 85.6 30.0 84.5 30.0 83.0 L30.0 9.0 Q30.0 7.5 28.9 6.4 M-4.6 6.4 Q-5.7 7.5 -5.7 9.0 L-5.7 83.0 Q-5.7 84.5 -4.6 85.6 -3.6 86.7 -2.0 86.7 -0.5 86.7 0.6 85.6 1.6 84.5 1.6 83.0 L1.6 9.0 Q1.6 7.5 0.6 6.4 -0.5 5.3 -2.0 5.3 -3.6 5.3 -4.6 6.4 M8.5 9.0 L8.5 83.0 Q8.5 84.5 9.6 85.6 10.6 86.7 12.1 86.7 13.7 86.7 14.7 85.6 15.8 84.5 15.8 83.0 L15.8 9.0 Q15.8 7.5 14.7 6.4 13.7 5.3 12.1 5.3 10.6 5.3 9.6 6.4 8.5 7.5 8.5 9.0 M-112.4 -19.0 Q-115.3 -17.3 -118.1 -10.0 L-120.4 -3.0 Q-116.4 -11.7 -114.4 -13.7 -113.1 -14.9 -107.3 -10.7 L-101.7 -6.3 -112.4 -19.0 M-105.7 -93.3 L-105.7 -28.7 -4.7 -28.7 -4.7 -93.3 -105.7 -93.3 M-47.1 6.4 Q-48.2 7.5 -48.2 9.0 L-48.2 83.0 Q-48.2 84.5 -47.1 85.6 -46.1 86.7 -44.5 86.7 -43.0 86.7 -41.9 85.6 -40.9 84.5 -40.9 83.0 L-40.9 9.0 Q-40.9 7.5 -41.9 6.4 -43.0 5.3 -44.5 5.3 -46.1 5.3 -47.1 6.4 M-61.3 6.4 Q-62.4 7.5 -62.4 9.0 L-62.4 83.0 Q-62.4 84.5 -61.3 85.6 -60.2 86.7 -58.7 86.7 -57.2 86.7 -56.1 85.6 -55.0 84.5 -55.0 83.0 L-55.0 9.0 Q-55.0 7.5 -56.1 6.4 -57.2 5.3 -58.7 5.3 -60.2 5.3 -61.3 6.4 M-26.7 9.0 Q-26.7 7.5 -27.8 6.4 -28.8 5.3 -30.4 5.3 -31.9 5.3 -32.9 6.4 -34.0 7.5 -34.0 9.0 L-34.0 83.0 Q-34.0 84.5 -32.9 85.6 -31.9 86.7 -30.4 86.7 -28.8 86.7 -27.8 85.6 -26.7 84.5 -26.7 83.0 L-26.7 9.0 M-18.8 6.4 Q-19.9 7.5 -19.9 9.0 L-19.9 83.0 Q-19.9 84.5 -18.8 85.6 -17.7 86.7 -16.2 86.7 -14.7 86.7 -13.6 85.6 -12.5 84.5 -12.5 83.0 L-12.5 9.0 Q-12.5 7.5 -13.6 6.4 -14.7 5.3 -16.2 5.3 -17.7 5.3 -18.8 6.4" fill="#ffffff" fill-opacity="0.0" fill-rule="evenodd" stroke="none"/>
    <path d="M8.5 9.0 Q8.5 7.5 9.6 6.4 10.6 5.3 12.1 5.3 13.7 5.3 14.7 6.4 15.8 7.5 15.8 9.0 L15.8 83.0 Q15.8 84.5 14.7 85.6 13.7 86.7 12.1 86.7 10.6 86.7 9.6 85.6 8.5 84.5 8.5 83.0 L8.5 9.0 M-4.6 6.4 Q-3.6 5.3 -2.0 5.3 -0.5 5.3 0.6 6.4 1.6 7.5 1.6 9.0 L1.6 83.0 Q1.6 84.5 0.6 85.6 -0.5 86.7 -2.0 86.7 -3.6 86.7 -4.6 85.6 -5.7 84.5 -5.7 83.0 L-5.7 9.0 Q-5.7 7.5 -4.6 6.4 M28.9 6.4 Q30.0 7.5 30.0 9.0 L30.0 83.0 Q30.0 84.5 28.9 85.6 27.8 86.7 26.3 86.7 24.8 86.7 23.7 85.6 22.6 84.5 22.6 83.0 L22.6 9.0 Q22.6 7.5 23.7 6.4 24.8 5.3 26.3 5.3 27.8 5.3 28.9 6.4 M43.1 6.4 Q44.1 7.5 44.1 9.0 L44.1 83.0 Q44.1 84.5 43.1 85.6 42.0 86.7 40.5 86.7 38.9 86.7 37.9 85.6 36.8 84.5 36.8 83.0 L36.8 9.0 Q36.8 7.5 37.9 6.4 38.9 5.3 40.5 5.3 42.0 5.3 43.1 6.4 M57.2 6.4 Q58.3 7.5 58.3 9.0 L58.3 83.0 Q58.3 84.5 57.2 85.6 56.2 86.7 54.6 86.7 53.1 86.7 52.1 85.6 51.0 84.5 51.0 83.0 L51.0 9.0 Q51.0 7.5 52.1 6.4 53.1 5.3 54.6 5.3 56.2 5.3 57.2 6.4 M-18.8 6.4 Q-17.7 5.3 -16.2 5.3 -14.7 5.3 -13.6 6.4 -12.5 7.5 -12.5 9.0 L-12.5 83.0 Q-12.5 84.5 -13.6 85.6 -14.7 86.7 -16.2 86.7 -17.7 86.7 -18.8 85.6 -19.9 84.5 -19.9 83.0 L-19.9 9.0 Q-19.9 7.5 -18.8 6.4 M-26.7 9.0 L-26.7 83.0 Q-26.7 84.5 -27.8 85.6 -28.8 86.7 -30.4 86.7 -31.9 86.7 -32.9 85.6 -34.0 84.5 -34.0 83.0 L-34.0 9.0 Q-34.0 7.5 -32.9 6.4 -31.9 5.3 -30.4 5.3 -28.8 5.3 -27.8 6.4 -26.7 7.5 -26.7 9.0 M-61.3 6.4 Q-60.2 5.3 -58.7 5.3 -57.2 5.3 -56.1 6.4 -55.0 7.5 -55.0 9.0 L-55.0 83.0 Q-55.0 84.5 -56.1 85.6 -57.2 86.7 -58.7 86.7 -60.2 86.7 -61.3 85.6 -62.4 84.5 -62.4 83.0 L-62.4 9.0 Q-62.4 7.5 -61.3 6.4 M-47.1 6.4 Q-46.1 5.3 -44.5 5.3 -43.0 5.3 -41.9 6.4 -40.9 7.5 -40.9 9.0 L-40.9 83.0 Q-40.9 84.5 -41.9 85.6 -43.0 86.7 -44.5 86.7 -46.1 86.7 -47.1 85.6 -48.2 84.5 -48.2 83.0 L-48.2 9.0 Q-48.2 7.5 -47.1 6.4" fill="#000000" fill-opacity="0.2" fill-rule="evenodd" stroke="none"/>
    <path d="M107.6 -19.0 Q110.5 -17.3 113.4 -10.0 114.8 -6.3 115.6 -3.0 111.6 -11.7 109.6 -13.7 108.4 -14.9 102.6 -10.7 L97.0 -6.3 107.6 -19.0 M-112.4 -19.0 L-101.7 -6.3 -107.3 -10.7 Q-113.1 -14.9 -114.4 -13.7 -116.4 -11.7 -120.4 -3.0 L-118.1 -10.0 Q-115.3 -17.3 -112.4 -19.0" fill="#ffffff" fill-rule="evenodd" stroke="none"/>
    <path d="M119.35 -2.5 L117.5 -8.8 Q114.5 -17.2 110.3 -21.3 L110.3 -102.7 -114.4 -102.7 -114.4 -21.3 Q-118.5 -17.2 -121.5 -8.8 -123.0 -4.6 -123.7 -1.3 L-139.0 -1.3 -139.0 30.0 Q-143.2 32.1 -143.5 36.2 -143.7 38.3 -143.0 40.0 L-98.0 40.0 M131.85 -10.1 L133.3 -10.0 Q137.6 -10.0 140.6 -13.0 143.6 -16.0 143.6 -20.3 143.6 -24.6 140.6 -27.6 137.6 -30.7 133.3 -30.7 129.0 -30.7 126.0 -27.6 123.0 -24.6 123.0 -20.3 123.0 -16.0 126.0 -13.0 L127.9 -11.45 Q125.75 -8.55 122.4 -5.3 L119.35 -2.5 M131.85 -10.1 L130.7 -8.3 Q127.8 -4.05 125.05 -1.3 L135.0 -1.3 135.0 30.0 Q139.1 32.1 139.5 36.2 139.7 38.3 139.0 40.0 L94.05 40.0 M75.6 100.7 L5.6 102.3 5.6 102.7 -9.7 102.7 -9.7 102.3 -79.7 100.7 M116.3 0.0 L117.5 0.5" fill="none" stroke="#000000" stroke-linecap="butt" stroke-linejoin="miter-clip" stroke-miterlimit="10.0" stroke-width="1.0"/>
    <path d="M0.7 -93.3 L101.6 -93.3 101.6 -28.7 0.7 -28.7 0.7 -93.3 M-123.7 -1.3 L-119.0 1.9 Q-114.1 5.5 -113.7 8.0 -113.0 12.0 -113.7 32.7 M127.9 -11.45 Q129.95 -14.25 131.0 -16.7 L132.3 -18.4 Q133.8 -19.2 135.0 -15.0 L131.85 -10.1 M94.05 40.0 L75.6 64.7 75.6 100.7 M-79.7 100.7 L-79.7 64.7 -98.0 40.0 -101.0 36.0 Q-105.5 30.3 -107.1 23.3 -110.3 9.3 -95.7 2.7 -83.4 -2.9 -49.4 -4.5 -27.9 -5.5 -2.0 -4.9 23.9 -5.5 45.3 -4.5 79.4 -2.9 91.6 2.7 106.2 9.3 103.1 23.3 101.5 30.3 97.0 36.0 L94.05 40.0 M119.35 -2.5 L116.3 0.0 M117.5 0.5 L121.0 2.0 125.05 -1.3 M117.5 0.5 L113.8 2.8 Q110.0 5.5 109.6 8.0 109.0 12.0 109.6 32.7 M57.2 6.4 Q56.2 5.3 54.6 5.3 53.1 5.3 52.1 6.4 51.0 7.5 51.0 9.0 L51.0 83.0 Q51.0 84.5 52.1 85.6 53.1 86.7 54.6 86.7 56.2 86.7 57.2 85.6 58.3 84.5 58.3 83.0 L58.3 9.0 Q58.3 7.5 57.2 6.4 M43.1 6.4 Q42.0 5.3 40.5 5.3 38.9 5.3 37.9 6.4 36.8 7.5 36.8 9.0 L36.8 83.0 Q36.8 84.5 37.9 85.6 38.9 86.7 40.5 86.7 42.0 86.7 43.1 85.6 44.1 84.5 44.1 83.0 L44.1 9.0 Q44.1 7.5 43.1 6.4 M28.9 6.4 Q27.8 5.3 26.3 5.3 24.8 5.3 23.7 6.4 22.6 7.5 22.6 9.0 L22.6 83.0 Q22.6 84.5 23.7 85.6 24.8 86.7 26.3 86.7 27.8 86.7 28.9 85.6 30.0 84.5 30.0 83.0 L30.0 9.0 Q30.0 7.5 28.9 6.4 M-4.6 6.4 Q-5.7 7.5 -5.7 9.0 L-5.7 83.0 Q-5.7 84.5 -4.6 85.6 -3.6 86.7 -2.0 86.7 -0.5 86.7 0.6 85.6 1.6 84.5 1.6 83.0 L1.6 9.0 Q1.6 7.5 0.6 6.4 -0.5 5.3 -2.0 5.3 -3.6 5.3 -4.6 6.4 M8.5 9.0 L8.5 83.0 Q8.5 84.5 9.6 85.6 10.6 86.7 12.1 86.7 13.7 86.7 14.7 85.6 15.8 84.5 15.8 83.0 L15.8 9.0 Q15.8 7.5 14.7 6.4 13.7 5.3 12.1 5.3 10.6 5.3 9.6 6.4 8.5 7.5 8.5 9.0 M-105.7 -93.3 L-4.7 -93.3 -4.7 -28.7 -105.7 -28.7 -105.7 -93.3 M-18.8 6.4 Q-17.7 5.3 -16.2 5.3 -14.7 5.3 -13.6 6.4 -12.5 7.5 -12.5 9.0 L-12.5 83.0 Q-12.5 84.5 -13.6 85.6 -14.7 86.7 -16.2 86.7 -17.7 86.7 -18.8 85.6 -19.9 84.5 -19.9 83.0 L-19.9 9.0 Q-19.9 7.5 -18.8 6.4 M-26.7 9.0 L-26.7 83.0 Q-26.7 84.5 -27.8 85.6 -28.8 86.7 -30.4 86.7 -31.9 86.7 -32.9 85.6 -34.0 84.5 -34.0 83.0 L-34.0 9.0 Q-34.0 7.5 -32.9 6.4 -31.9 5.3 -30.4 5.3 -28.8 5.3 -27.8 6.4 -26.7 7.5 -26.7 9.0 M-61.3 6.4 Q-60.2 5.3 -58.7 5.3 -57.2 5.3 -56.1 6.4 -55.0 7.5 -55.0 9.0 L-55.0 83.0 Q-55.0 84.5 -56.1 85.6 -57.2 86.7 -58.7 86.7 -60.2 86.7 -61.3 85.6 -62.4 84.5 -62.4 83.0 L-62.4 9.0 Q-62.4 7.5 -61.3 6.4 M-47.1 6.4 Q-46.1 5.3 -44.5 5.3 -43.0 5.3 -41.9 6.4 -40.9 7.5 -40.9 9.0 L-40.9 83.0 Q-40.9 84.5 -41.9 85.6 -43.0 86.7 -44.5 86.7 -46.1 86.7 -47.1 85.6 -48.2 84.5 -48.2 83.0 L-48.2 9.0 Q-48.2 7.5 -47.1 6.4" fill="none" stroke="#000000" stroke-linecap="butt" stroke-linejoin="miter-clip" stroke-miterlimit="10.0" stroke-opacity="0.6" stroke-width="1.0"/>
  </g>
</svg>
