<?xml version="1.0" encoding="UTF-8" standalone="no"?>
<svg xmlns:xlink="http://www.w3.org/1999/xlink" height="47.7px" width="189.0px" xmlns="http://www.w3.org/2000/svg">
  <g transform="matrix(1.0, 0.0, 0.0, 1.0, 94.5, 23.85)">
    <path d="M66.0 16.65 Q66.0 13.85 68.0 11.95 69.9 9.95 72.7 9.95 75.5 9.95 77.4 11.95 79.4 13.85 79.4 16.65 79.4 19.45 77.4 21.35 75.5 23.35 72.7 23.35 69.9 23.35 68.0 21.35 66.0 19.45 66.0 16.65" fill="#f7f5fa" fill-opacity="0.0" fill-rule="evenodd" stroke="none"/>
    <path d="M66.0 16.65 Q66.0 19.45 68.0 21.35 69.9 23.35 72.7 23.35 75.5 23.35 77.4 21.35 79.4 19.45 79.4 16.65 79.4 13.85 77.4 11.95 75.5 9.95 72.7 9.95 69.9 9.95 68.0 11.95 66.0 13.85 66.0 16.65 Z" fill="none" stroke="#000000" stroke-linecap="butt" stroke-linejoin="miter-clip" stroke-miterlimit="10.0" stroke-width="1.0"/>
    <path d="M-65.3 16.65 Q-65.3 19.45 -67.3 21.35 -69.2 23.35 -72.0 23.35 -74.8 23.35 -76.7 21.35 -78.6 19.45 -78.6 16.65 -78.6 13.85 -76.7 11.95 -74.8 9.95 -72.0 9.95 -69.2 9.95 -67.3 11.95 -65.3 13.85 -65.3 16.65" fill="#f7f5fa" fill-opacity="0.0" fill-rule="evenodd" stroke="none"/>
    <path d="M-65.3 16.65 Q-65.3 19.45 -67.3 21.35 -69.2 23.35 -72.0 23.35 -74.8 23.35 -76.7 21.35 -78.6 19.45 -78.6 16.65 -78.6 13.85 -76.7 11.95 -74.8 9.95 -72.0 9.95 -69.2 9.95 -67.3 11.95 -65.3 13.85 -65.3 16.65 Z" fill="none" stroke="#000000" stroke-linecap="butt" stroke-linejoin="miter-clip" stroke-miterlimit="10.0" stroke-width="1.0"/>
    <path d="M-70.6 -19.35 Q-66.6 -15.35 -66.6 -9.65 -66.6 -4.05 -70.6 -0.05 -74.7 3.95 -80.3 3.95 -86.0 3.95 -90.0 -0.05 -94.0 -4.05 -94.0 -9.65 -94.0 -15.35 -90.0 -19.35 -86.0 -23.35 -80.3 -23.35 -74.7 -23.35 -70.6 -19.35" fill="#f7f5fa" fill-opacity="0.0" fill-rule="evenodd" stroke="none"/>
    <path d="M-71.8 -15.25 L-74.8 -18.55 Q-75.8 -7.55 -76.5 -6.55 -77.2 -5.55 -78.2 -15.55 L-80.8 -19.85 -79.8 -2.55 Q-79.8 -1.55 -80.9 -3.75 L-82.8 -7.25 Q-83.4 -8.05 -83.7 -13.35 L-84.2 -19.25 Q-84.4 -19.85 -85.6 -18.95 L-86.8 -17.85 Q-88.2 -3.85 -88.5 -2.25 -88.7 -1.25 -90.6 -18.65 -86.4 -23.35 -80.3 -23.35 -76.4 -23.35 -73.1 -21.25 -70.0 -19.35 -68.2 -15.95 -68.4 -10.05 -69.5 -5.55 -70.7 -0.35 -71.4 -7.25 L-71.8 -15.25" fill="#000000" fill-opacity="0.2" fill-rule="evenodd" stroke="none"/>
    <path d="M-70.6 -19.35 Q-66.6 -15.35 -66.6 -9.65 -66.6 -4.05 -70.6 -0.05 -74.7 3.95 -80.3 3.95 -86.0 3.95 -90.0 -0.05 -94.0 -4.05 -94.0 -9.65 -94.0 -15.35 -90.0 -19.35 -86.0 -23.35 -80.3 -23.35 -74.7 -23.35 -70.6 -19.35 Z" fill="none" stroke="#000000" stroke-linecap="butt" stroke-linejoin="miter-clip" stroke-miterlimit="10.0" stroke-width="1.0"/>
    <path d="M90.0 -19.35 Q94.0 -15.35 94.0 -9.65 94.0 -4.05 90.0 -0.05 86.0 3.95 80.4 3.95 74.7 3.95 70.7 -0.05 66.7 -4.05 66.7 -9.65 66.7 -15.35 70.7 -19.35 74.7 -23.35 80.4 -23.35 86.0 -23.35 90.0 -19.35" fill="#f7f5fa" fill-opacity="0.0" fill-rule="evenodd" stroke="none"/>
    <path d="M88.8 -15.25 L85.8 -18.55 Q84.8 -7.55 84.2 -6.55 83.5 -5.55 82.5 -15.55 L79.8 -19.85 80.8 -2.55 Q80.8 -1.55 79.7 -3.75 L77.8 -7.25 Q77.2 -8.05 76.9 -13.35 L76.5 -19.25 Q76.3 -19.85 75.0 -18.95 L73.8 -17.85 72.2 -2.25 Q72.0 -1.25 70.1 -18.65 74.2 -23.35 80.4 -23.35 84.2 -23.35 87.5 -21.25 90.8 -19.25 92.5 -15.95 92.3 -10.65 91.2 -5.55 90.0 -0.35 89.3 -7.25 L88.8 -15.25" fill="#000000" fill-opacity="0.2" fill-rule="evenodd" stroke="none"/>
    <path d="M90.0 -19.35 Q94.0 -15.35 94.0 -9.65 94.0 -4.05 90.0 -0.05 86.0 3.95 80.4 3.95 74.7 3.95 70.7 -0.05 66.7 -4.05 66.7 -9.65 66.7 -15.35 70.7 -19.35 74.7 -23.35 80.4 -23.35 86.0 -23.35 90.0 -19.35 Z" fill="none" stroke="#000000" stroke-linecap="butt" stroke-linejoin="miter-clip" stroke-miterlimit="10.0" stroke-width="1.0"/>
  </g>
</svg>
