<?xml version="1.0" encoding="UTF-8" standalone="no"?>
<svg xmlns:xlink="http://www.w3.org/1999/xlink" height="179.4px" width="176.15px" xmlns="http://www.w3.org/2000/svg">
  <g transform="matrix(1.0, 0.0, 0.0, 1.0, 88.1, 91.3)">
    <path d="M-35.9 -80.05 L-35.65 -80.05 -35.2 -80.3 Q-33.15 -81.25 -32.45 -80.05 L-32.05 -79.5 -26.85 -81.4 -27.4 -82.1 Q-27.65 -83.35 -25.45 -83.9 L-24.9 -84.0 -24.75 -84.0 Q-24.65 -84.0 -24.65 -84.15 L-24.1 -84.3 Q-21.9 -84.85 -21.6 -83.6 L-21.05 -83.05 -15.85 -84.15 -16.25 -85.0 Q-16.25 -86.2 -14.05 -86.5 L-13.5 -86.65 -13.2 -86.65 -12.8 -86.75 Q-10.35 -87.05 -10.35 -85.8 L-9.9 -85.0 -4.7 -85.55 -4.95 -86.35 Q-4.95 -87.6 -2.65 -87.6 L-1.25 -87.6 Q0.8 -87.6 1.1 -86.35 L1.35 -85.55 6.85 -85.25 6.6 -86.2 Q6.85 -87.45 9.05 -87.2 L9.6 -87.2 9.75 -87.05 10.45 -87.05 Q12.75 -86.75 12.5 -85.4 L12.75 -84.7 18.0 -83.75 18.0 -84.55 Q18.25 -85.8 20.6 -85.25 20.9 -85.1 21.0 -85.1 L21.3 -85.0 21.85 -84.85 Q24.05 -84.3 23.75 -83.05 L23.75 -82.25 27.9 -80.85 27.9 -81.8 Q28.45 -83.05 30.65 -82.1 L31.05 -81.95 31.2 -81.8 31.35 -81.8 31.9 -81.7 Q33.95 -80.6 33.55 -79.5 L33.55 -78.8 Q36.0 -77.55 38.5 -76.45 L38.6 -77.3 Q39.3 -78.5 41.25 -77.3 L41.8 -77.0 41.9 -77.0 41.9 -76.85 42.45 -76.6 43.7 -75.5 Q44.1 -74.8 43.85 -74.4 L43.7 -73.55 48.25 -70.7 48.5 -71.5 Q48.8 -71.9 49.6 -71.8 50.45 -71.65 51.15 -71.1 L51.55 -70.8 51.7 -70.7 51.8 -70.7 52.25 -70.25 Q54.15 -69.05 53.35 -67.8 L53.05 -67.1 57.2 -63.8 57.45 -64.5 Q58.4 -65.45 60.05 -63.8 L60.35 -63.4 60.5 -63.25 60.6 -63.25 61.05 -62.85 Q62.7 -61.2 61.7 -60.35 L61.45 -59.7 65.15 -55.55 65.55 -56.25 Q66.65 -57.05 68.05 -55.15 L68.3 -54.75 68.45 -54.75 68.45 -54.6 68.85 -54.2 Q70.1 -52.1 69.15 -51.55 L68.85 -51.0 72.05 -46.5 72.45 -47.05 Q73.4 -47.7 74.8 -45.65 L74.9 -45.25 75.05 -45.1 75.05 -44.95 75.35 -44.55 Q76.55 -42.65 75.45 -41.8 L75.05 -41.4 77.0 -37.55 77.55 -37.95 Q78.75 -38.65 79.6 -36.45 L79.85 -35.9 79.85 -35.75 80.0 -35.6 80.15 -35.2 Q81.1 -33.0 79.85 -32.45 L79.45 -32.05 81.4 -26.95 81.95 -27.35 Q83.15 -27.65 83.7 -25.45 L83.85 -24.9 84.0 -24.75 84.0 -24.6 84.15 -24.05 Q84.8 -21.85 83.45 -21.6 L83.05 -21.2 84.25 -15.8 84.8 -16.25 Q85.9 -16.25 86.45 -14.05 L86.45 -13.2 86.6 -12.65 Q86.9 -10.45 85.65 -10.2 L85.1 -9.9 Q85.5 -7.45 85.5 -4.7 L86.2 -4.95 Q87.45 -4.95 87.45 -2.6 L87.45 -1.8 87.55 -1.25 Q87.55 1.1 86.2 1.1 L85.65 1.25 85.35 6.75 86.05 6.6 Q87.3 6.85 87.0 9.05 L87.0 9.9 86.9 10.45 Q86.6 12.8 85.25 12.5 L84.7 12.65 83.7 18.0 84.4 18.0 Q85.65 18.3 85.1 20.6 L84.95 21.05 84.8 21.3 84.7 21.85 Q84.15 24.05 82.9 23.8 L82.35 23.8 80.95 27.9 81.65 28.05 Q83.05 28.3 81.95 30.65 L81.8 31.05 81.65 31.35 81.5 31.9 Q80.55 33.95 79.45 33.55 L78.75 33.55 76.45 38.5 77.1 38.65 Q78.35 39.3 77.1 41.25 L76.85 41.8 76.85 41.95 76.7 42.05 76.45 42.5 Q76.0 43.3 75.35 43.7 L74.25 43.85 73.55 43.7 70.65 48.4 71.35 48.55 Q72.45 49.35 70.95 51.15 L70.65 51.7 70.5 51.7 70.5 51.85 70.1 52.25 Q68.85 54.15 67.75 53.35 L67.1 53.2 63.65 57.2 64.35 57.45 Q65.3 58.45 63.65 60.1 L62.7 61.05 Q61.05 62.7 60.2 61.75 L59.5 61.45 55.4 65.15 56.1 65.6 Q56.9 66.55 55.1 68.05 L54.7 68.35 54.55 68.45 54.45 68.45 54.0 68.9 Q52.1 70.25 51.4 69.3 L50.7 68.9 46.3 71.9 46.85 72.45 Q47.55 73.55 45.5 74.8 L45.1 75.05 44.95 75.05 44.8 75.2 44.4 75.5 Q42.35 76.6 41.8 75.5 L41.1 74.95 37.25 77.0 37.95 77.55 Q38.5 78.8 36.3 79.6 L35.45 80.0 35.05 80.15 Q33.0 81.1 32.45 79.9 L31.9 79.35 26.65 81.25 27.2 81.95 Q27.5 83.2 25.3 83.85 L24.75 84.0 24.45 84.0 24.05 84.15 Q21.7 84.95 21.45 83.6 L20.9 82.9 15.65 84.0 16.05 84.85 Q16.35 85.95 13.85 86.5 L13.2 86.5 12.65 86.6 Q10.15 86.9 10.15 85.65 L9.75 84.95 4.5 85.4 4.8 86.2 Q4.8 87.6 2.45 87.6 L1.1 87.6 Q-1.1 87.6 -1.1 86.2 L-1.4 85.5 -6.9 85.25 -6.75 86.05 Q-6.9 86.6 -7.6 86.9 L-9.25 87.05 -10.05 87.05 -10.6 86.9 Q-12.95 86.6 -12.65 85.4 -12.65 84.95 -12.8 84.55 L-18.15 83.6 -18.15 84.4 Q-18.45 85.65 -20.65 85.1 L-21.2 84.95 -21.45 84.95 -21.45 84.85 -22.0 84.7 Q-24.2 84.15 -23.95 82.9 L-23.95 82.1 -28.05 80.85 -28.05 81.65 Q-28.5 82.9 -30.8 82.1 L-31.25 81.8 -31.35 81.8 -31.5 81.65 -32.05 81.55 Q-34.1 80.55 -33.7 79.45 L-33.7 78.65 -38.65 76.3 -38.8 77.15 Q-38.95 77.7 -39.75 77.7 -40.6 77.7 -41.4 77.15 L-41.95 76.85 -42.1 76.7 -42.65 76.6 Q-44.55 75.35 -44.0 74.25 L-43.9 73.55 -48.4 70.55 -48.7 71.35 Q-48.95 71.75 -49.8 71.65 -50.6 71.5 -51.3 70.95 L-51.7 70.65 -51.85 70.55 -52.0 70.55 -52.4 70.25 Q-54.2 68.75 -53.5 67.8 L-53.25 67.1 -57.35 63.65 -57.65 64.35 Q-58.6 65.3 -60.25 63.65 L-61.2 62.7 Q-62.7 61.2 -61.9 60.2 L-61.6 59.55 -65.35 55.55 -65.75 56.1 Q-66.55 56.9 -68.2 55.15 L-68.5 54.7 -68.65 54.6 -68.65 54.45 -69.05 54.05 Q-70.4 52.25 -69.3 51.4 L-69.05 50.85 -72.05 46.35 -72.6 46.9 -73.7 46.75 -74.8 45.5 -75.1 45.1 -75.25 44.95 -75.25 44.8 -75.5 44.4 Q-76.05 43.6 -76.05 42.75 -76.05 42.05 -75.65 41.8 L-75.25 41.25 -77.15 37.4 -77.7 37.95 Q-79.1 38.5 -79.75 36.3 L-80.05 35.75 -80.2 35.6 -80.3 35.05 Q-81.3 33.0 -80.05 32.45 L-79.65 32.05 -81.55 26.8 -82.1 27.2 Q-83.35 27.5 -83.9 25.3 -83.9 25.0 -84.05 24.75 L-84.15 24.75 -84.15 24.45 -84.3 24.05 Q-84.85 21.7 -83.6 21.45 L-83.2 21.15 -84.45 15.8 -85.0 16.1 Q-86.25 16.35 -86.5 14.0 L-86.65 13.45 -86.65 13.2 Q-86.65 12.9 -86.8 12.65 -87.05 10.45 -85.8 10.15 L-85.25 9.9 Q-85.4 7.3 -85.7 4.65 L-86.35 4.8 Q-87.6 4.8 -87.6 2.45 L-87.6 1.25 Q-87.6 -1.1 -86.35 -1.1 L-85.8 -1.4 -85.55 -6.9 -86.25 -6.75 Q-87.45 -7.0 -87.2 -9.2 L-87.2 -9.9 Q-87.05 -9.9 -87.05 -10.05 L-87.05 -10.6 Q-86.8 -12.95 -85.4 -12.65 -85.15 -12.65 -84.85 -12.8 -84.3 -15.4 -83.9 -18.15 L-84.6 -18.15 Q-85.8 -18.45 -85.25 -20.65 L-85.15 -21.2 -85.0 -21.3 -85.0 -21.45 -84.85 -22.0 Q-84.3 -24.2 -83.05 -23.95 L-82.5 -23.95 -81.15 -28.05 -81.85 -28.05 Q-83.2 -28.6 -82.1 -30.65 -81.95 -30.95 -81.95 -31.2 L-81.85 -31.35 -81.85 -31.5 Q-81.7 -31.75 -81.7 -32.05 -80.6 -34.25 -79.65 -33.7 L-78.95 -33.7 Q-77.7 -36.15 -76.6 -38.65 L-77.3 -38.8 Q-78.55 -39.35 -77.3 -41.4 L-77.0 -41.95 -76.9 -42.1 -76.6 -42.65 Q-76.2 -43.45 -75.5 -43.85 L-74.4 -44.0 -73.7 -43.85 -70.85 -48.4 -71.5 -48.7 Q-71.95 -48.95 -71.8 -49.8 -71.65 -50.6 -71.1 -51.3 L-70.85 -51.7 Q-70.7 -51.7 -70.7 -51.85 L-70.7 -52.0 -70.3 -52.4 Q-68.9 -54.2 -67.95 -53.5 L-67.25 -53.2 -63.8 -57.2 -64.5 -57.6 Q-64.9 -57.9 -64.8 -58.7 -64.5 -59.55 -63.8 -60.1 L-63.4 -60.5 -63.4 -60.65 Q-63.25 -60.65 -63.25 -60.8 -63.0 -60.9 -62.85 -61.05 -62.3 -61.75 -61.5 -62.0 L-60.4 -61.9 -59.7 -61.6 -55.55 -65.3 -56.25 -65.75 Q-57.1 -66.85 -55.3 -68.05 -55.0 -68.2 -54.75 -68.5 L-54.6 -68.6 -54.2 -68.9 Q-52.25 -70.25 -51.6 -69.3 L-50.9 -68.9 -46.5 -72.05 -47.05 -72.6 Q-47.3 -73.0 -46.9 -73.7 -46.5 -74.4 -45.65 -74.8 L-45.25 -75.1 -45.1 -75.2 -45.0 -75.2 -44.55 -75.5 Q-42.5 -76.75 -41.8 -75.5 L-41.25 -75.1 -37.4 -77.0 -38.1 -77.7 Q-38.65 -78.95 -36.45 -79.75 L-35.9 -80.05" fill="#ffffff" fill-opacity="0.0" fill-rule="evenodd" stroke="none"/>
    <path d="M-35.9 -80.05 L-36.45 -79.75 Q-38.65 -78.95 -38.1 -77.7 L-37.4 -77.0 -41.25 -75.1 -41.8 -75.5 Q-42.5 -76.75 -44.55 -75.5 L-45.0 -75.2 -45.1 -75.2 -45.25 -75.1 -45.65 -74.8 Q-46.5 -74.4 -46.9 -73.7 -47.3 -73.0 -47.05 -72.6 L-46.5 -72.05 -50.9 -68.9 -51.6 -69.3 Q-52.25 -70.25 -54.2 -68.9 L-54.6 -68.6 -54.75 -68.5 Q-55.0 -68.2 -55.3 -68.05 -57.1 -66.85 -56.25 -65.75 L-55.55 -65.3 -59.7 -61.6 -60.4 -61.9 -61.5 -62.0 Q-62.3 -61.75 -62.85 -61.05 -63.0 -60.9 -63.25 -60.8 -63.25 -60.65 -63.4 -60.65 L-63.4 -60.5 -63.8 -60.1 Q-64.5 -59.55 -64.8 -58.7 -64.9 -57.9 -64.5 -57.6 L-63.8 -57.2 -67.25 -53.2 -67.95 -53.5 Q-68.9 -54.2 -70.3 -52.4 L-70.7 -52.0 -70.7 -51.85 Q-70.7 -51.7 -70.85 -51.7 L-71.1 -51.3 Q-71.65 -50.6 -71.8 -49.8 -71.95 -48.95 -71.5 -48.7 L-70.85 -48.4 -73.7 -43.85 -74.4 -44.0 -75.5 -43.85 Q-76.2 -43.45 -76.6 -42.65 L-76.9 -42.1 -77.0 -41.95 -77.3 -41.4 Q-78.55 -39.35 -77.3 -38.8 L-76.6 -38.65 Q-77.7 -36.15 -78.95 -33.7 L-79.65 -33.7 Q-80.6 -34.25 -81.7 -32.05 -81.7 -31.75 -81.85 -31.5 L-81.85 -31.35 -81.95 -31.2 Q-81.95 -30.95 -82.1 -30.65 -83.2 -28.6 -81.85 -28.05 L-81.15 -28.05 -82.5 -23.95 -83.05 -23.95 Q-84.3 -24.2 -84.85 -22.0 L-85.0 -21.45 -85.0 -21.3 -85.15 -21.2 -85.25 -20.65 Q-85.8 -18.45 -84.6 -18.15 L-83.9 -18.15 Q-84.3 -15.4 -84.85 -12.8 -85.15 -12.65 -85.4 -12.65 -86.8 -12.95 -87.05 -10.6 L-87.05 -10.05 Q-87.05 -9.9 -87.2 -9.9 L-87.2 -9.2 Q-87.45 -7.0 -86.25 -6.75 L-85.55 -6.9 -85.8 -1.4 -86.35 -1.1 Q-87.6 -1.1 -87.6 1.25 L-87.6 2.45 Q-87.6 4.8 -86.35 4.8 L-85.7 4.65 Q-85.4 7.3 -85.25 9.9 L-85.8 10.15 Q-87.05 10.45 -86.8 12.65 -86.65 12.9 -86.65 13.2 L-86.65 13.45 -86.5 14.0 Q-86.25 16.35 -85.0 16.1 L-84.45 15.8 -83.2 21.15 -83.6 21.45 Q-84.85 21.7 -84.3 24.05 L-84.15 24.45 -84.15 24.75 -84.05 24.75 Q-83.9 25.0 -83.9 25.3 -83.35 27.5 -82.1 27.2 L-81.55 26.8 -79.65 32.05 -80.05 32.45 Q-81.3 33.0 -80.3 35.05 L-80.2 35.6 -80.05 35.75 -79.75 36.3 Q-79.1 38.5 -77.7 37.95 L-77.15 37.4 -75.25 41.25 -75.65 41.8 Q-76.05 42.05 -76.05 42.75 -76.05 43.6 -75.5 44.4 L-75.25 44.8 -75.25 44.95 -75.1 45.1 -74.8 45.5 -73.7 46.75 -72.6 46.9 -72.05 46.35 -69.05 50.85 -69.3 51.4 Q-70.4 52.25 -69.05 54.05 L-68.65 54.45 -68.65 54.6 -68.5 54.7 -68.2 55.15 Q-66.55 56.9 -65.75 56.1 L-65.35 55.55 -61.6 59.55 -61.9 60.2 Q-62.7 61.2 -61.2 62.7 L-60.25 63.65 Q-58.6 65.3 -57.65 64.35 L-57.35 63.65 -53.25 67.1 -53.5 67.8 Q-54.2 68.75 -52.4 70.25 L-52.0 70.55 -51.85 70.55 -51.7 70.65 -51.3 70.95 Q-50.6 71.5 -49.8 71.65 -48.95 71.75 -48.7 71.35 L-48.4 70.55 -43.9 73.55 -44.0 74.25 Q-44.55 75.35 -42.65 76.6 L-42.1 76.7 -41.95 76.85 -41.4 77.15 Q-40.6 77.7 -39.75 77.7 -38.95 77.7 -38.8 77.15 L-38.65 76.3 -33.7 78.65 -33.7 79.45 Q-34.1 80.55 -32.05 81.55 L-31.5 81.65 -31.35 81.8 -31.25 81.8 -30.8 82.1 Q-28.5 82.9 -28.05 81.65 L-28.05 80.85 -23.95 82.1 -23.95 82.9 Q-24.2 84.15 -22.0 84.7 L-21.45 84.85 -21.45 84.95 -21.2 84.95 -20.65 85.1 Q-18.45 85.65 -18.15 84.4 L-18.15 83.6 -12.8 84.55 Q-12.65 84.95 -12.65 85.4 -12.95 86.6 -10.6 86.9 L-10.05 87.05 -9.25 87.05 -7.6 86.9 Q-6.9 86.6 -6.75 86.05 L-6.9 85.25 -1.4 85.5 -1.1 86.2 Q-1.1 87.6 1.1 87.6 L2.45 87.6 Q4.8 87.6 4.8 86.2 L4.5 85.4 9.75 84.95 10.15 85.65 Q10.15 86.9 12.65 86.6 L13.2 86.5 13.85 86.5 Q16.35 85.95 16.05 84.85 L15.65 84.0 20.9 82.9 21.45 83.6 Q21.7 84.95 24.05 84.15 L24.45 84.0 24.75 84.0 25.3 83.85 Q27.5 83.2 27.2 81.95 L26.65 81.25 31.9 79.35 32.45 79.9 Q33.0 81.1 35.05 80.15 L35.45 80.0 36.3 79.6 Q38.5 78.8 37.95 77.55 L37.25 77.0 41.1 74.95 41.8 75.5 Q42.35 76.6 44.4 75.5 L44.8 75.2 44.95 75.05 45.1 75.05 45.5 74.8 Q47.55 73.55 46.85 72.45 L46.3 71.9 50.7 68.9 51.4 69.3 Q52.1 70.25 54.0 68.9 L54.45 68.45 54.55 68.45 54.7 68.35 55.1 68.05 Q56.9 66.55 56.1 65.6 L55.4 65.15 59.5 61.45 60.2 61.75 Q61.05 62.7 62.7 61.05 L63.65 60.1 Q65.3 58.45 64.35 57.45 L63.65 57.2 67.1 53.2 67.75 53.35 Q68.85 54.15 70.1 52.25 L70.5 51.85 70.5 51.7 70.65 51.7 70.95 51.15 Q72.45 49.35 71.35 48.55 L70.65 48.4 73.55 43.7 74.25 43.85 75.35 43.7 Q76.0 43.3 76.45 42.5 L76.7 42.05 76.85 41.95 76.85 41.8 77.1 41.25 Q78.35 39.3 77.1 38.65 L76.45 38.5 78.75 33.55 79.45 33.55 Q80.55 33.95 81.5 31.9 L81.65 31.35 81.8 31.05 81.95 30.65 Q83.05 28.3 81.65 28.05 L80.95 27.9 82.35 23.8 82.9 23.8 Q84.15 24.05 84.7 21.85 L84.8 21.3 84.95 21.05 85.1 20.6 Q85.65 18.3 84.4 18.0 L83.7 18.0 84.7 12.65 85.25 12.5 Q86.6 12.8 86.9 10.45 L87.0 9.9 87.0 9.05 Q87.3 6.85 86.05 6.6 L85.35 6.75 85.65 1.25 86.2 1.1 Q87.55 1.1 87.55 -1.25 L87.45 -1.8 87.45 -2.6 Q87.45 -4.95 86.2 -4.95 L85.5 -4.7 Q85.5 -7.45 85.1 -9.9 L85.65 -10.2 Q86.9 -10.45 86.6 -12.65 L86.45 -13.2 86.45 -14.05 Q85.9 -16.25 84.8 -16.25 L84.25 -15.8 83.05 -21.2 83.45 -21.6 Q84.8 -21.85 84.15 -24.05 L84.0 -24.6 84.0 -24.75 83.85 -24.9 83.7 -25.45 Q83.15 -27.65 81.95 -27.35 L81.4 -26.95 79.45 -32.05 79.85 -32.45 Q81.1 -33.0 80.15 -35.2 L80.0 -35.6 79.85 -35.75 79.85 -35.9 79.6 -36.45 Q78.75 -38.65 77.55 -37.95 L77.0 -37.55 75.05 -41.4 75.45 -41.8 Q76.55 -42.65 75.35 -44.55 L75.05 -44.95 75.05 -45.1 74.9 -45.25 74.8 -45.65 Q73.4 -47.7 72.45 -47.05 L72.05 -46.5 68.85 -51.0 69.15 -51.55 Q70.1 -52.1 68.85 -54.2 L68.45 -54.6 68.45 -54.75 68.3 -54.75 68.05 -55.15 Q66.65 -57.05 65.55 -56.25 L65.15 -55.55 61.45 -59.7 61.7 -60.35 Q62.7 -61.2 61.05 -62.85 L60.6 -63.25 60.5 -63.25 60.35 -63.4 60.05 -63.8 Q58.4 -65.45 57.45 -64.5 L57.2 -63.8 53.05 -67.1 53.35 -67.8 Q54.15 -69.05 52.25 -70.25 L51.8 -70.7 51.7 -70.7 51.55 -70.8 51.15 -71.1 Q50.45 -71.65 49.6 -71.8 48.8 -71.9 48.5 -71.5 L48.25 -70.7 43.7 -73.55 43.85 -74.4 Q44.1 -74.8 43.7 -75.5 L42.45 -76.6 41.9 -76.85 41.9 -77.0 41.8 -77.0 41.25 -77.3 Q39.3 -78.5 38.6 -77.3 L38.5 -76.45 Q36.0 -77.55 33.55 -78.8 L33.55 -79.5 Q33.95 -80.6 31.9 -81.7 L31.35 -81.8 31.2 -81.8 31.05 -81.95 30.65 -82.1 Q28.45 -83.05 27.9 -81.8 L27.9 -80.85 23.75 -82.25 23.75 -83.05 Q24.05 -84.3 21.85 -84.85 L21.3 -85.0 21.0 -85.1 Q20.9 -85.1 20.6 -85.25 18.25 -85.8 18.0 -84.55 L18.0 -83.75 12.75 -84.7 12.5 -85.4 Q12.75 -86.75 10.45 -87.05 L9.75 -87.05 9.6 -87.2 9.05 -87.2 Q6.85 -87.45 6.6 -86.2 L6.85 -85.25 1.35 -85.55 1.1 -86.35 Q0.8 -87.6 -1.25 -87.6 L-2.65 -87.6 Q-4.95 -87.6 -4.95 -86.35 L-4.7 -85.55 -9.9 -85.0 -10.35 -85.8 Q-10.35 -87.05 -12.8 -86.75 L-13.2 -86.65 -13.5 -86.65 -14.05 -86.5 Q-16.25 -86.2 -16.25 -85.0 L-15.85 -84.15 -21.05 -83.05 -21.6 -83.6 Q-21.9 -84.85 -24.1 -84.3 L-24.65 -84.15 Q-24.65 -84.0 -24.75 -84.0 L-24.9 -84.0 -25.45 -83.9 Q-27.65 -83.35 -27.4 -82.1 L-26.85 -81.4 -32.05 -79.5 -32.45 -80.05 Q-33.15 -81.25 -35.2 -80.3 L-35.65 -80.05 -35.9 -80.05 Z" fill="none" stroke="#000000" stroke-linecap="butt" stroke-linejoin="miter-clip" stroke-miterlimit="10.0" stroke-width="1.0"/>
  </g>
</svg>
