<?xml version="1.0" encoding="UTF-8" standalone="no"?>
<svg xmlns:xlink="http://www.w3.org/1999/xlink" height="303.5px" width="336.75px" xmlns="http://www.w3.org/2000/svg">
  <g transform="matrix(1.0, 0.0, 0.0, 1.0, 168.4, 151.75)">
    <path d="M167.75 73.45 L166.95 120.3 122.45 120.3 138.05 131.3 163.5 131.3 163.5 151.25 118.8 151.25 82.35 120.3 -50.8 120.3 -97.05 150.55 -146.55 150.55 -143.15 136.15 -125.95 136.15 -102.05 120.3 -167.9 120.3 -167.9 40.55 Q164.85 30.25 166.95 28.2 168.15 26.95 167.75 73.45 M112.6 50.9 L114.95 41.8 11.85 42.9 -91.3 41.8 -88.95 50.9 Q-89.25 51.45 -78.8 74.95 L-68.45 98.0 -68.35 98.2 -61.6 99.3 Q-54.05 98.75 -50.05 90.35 L73.7 90.35 Q77.7 98.75 85.25 99.3 88.7 99.55 91.4 98.45 L92.0 98.2 102.6 74.95 Q113.05 51.45 112.6 50.9 M122.45 120.3 L91.4 98.45 122.45 120.3 M-50.8 120.3 L-39.3 112.75 73.45 112.75 82.35 120.3 73.45 112.75 -39.3 112.75 -50.8 120.3 M-68.45 98.0 L-102.05 120.3 -68.45 98.0" fill="#000000" fill-opacity="0.4" fill-rule="evenodd" stroke="none"/>
    <path d="M112.6 50.9 Q113.05 51.45 102.6 74.95 L92.0 98.2 91.4 98.45 Q88.7 99.55 85.25 99.3 77.7 98.75 73.7 90.35 L-50.05 90.35 Q-54.05 98.75 -61.6 99.3 L-68.35 98.2 -68.45 98.0 -78.8 74.95 Q-89.25 51.45 -88.95 50.9 L-91.3 41.8 11.85 42.9 114.95 41.8 112.6 50.9 M84.7 95.7 Q87.6 95.85 89.8 93.9 84.45 95.7 79.75 91.05 L76.3 85.95 Q79.2 95.7 84.7 95.7 M27.9 69.15 L27.9 85.95 30.0 85.95 30.0 68.75 27.9 69.15 M19.1 71.1 L5.35 71.1 5.35 84.45 19.1 84.45 19.1 71.1 M1.1 69.15 L1.1 85.95 3.15 85.95 3.15 68.75 1.1 69.15 M32.05 71.1 L32.05 84.45 45.8 84.45 45.8 71.1 32.05 71.1 M-61.2 95.7 Q-55.8 94.9 -53.2 88.4 L-56.25 92.0 Q-60.2 95.3 -64.2 93.5 L-81.1 60.5 -66.0 95.3 -61.2 95.7 M-25.7 85.95 L-23.65 85.95 -23.65 68.75 -25.7 69.15 -25.7 85.95 M-21.6 84.45 L-7.85 84.45 -7.85 71.1 -21.6 71.1 -21.6 84.45" fill="#ffffff" fill-opacity="0.0" fill-rule="evenodd" stroke="none"/>
    <path d="M84.3 -143.8 L84.3 -141.35 161.15 -141.35 161.15 -143.8 84.3 -143.8 M82.9 -145.2 L162.65 -145.2 162.65 -125.95 82.9 -125.95 82.9 -145.2 M72.35 -147.4 L72.35 -149.85 -56.35 -149.85 -56.35 -147.4 72.35 -147.4 M73.7 -128.7 L-57.9 -128.7 -57.9 -151.25 73.7 -151.25 73.7 -128.7 M19.1 71.1 L19.1 84.45 5.35 84.45 5.35 71.1 19.1 71.1 M32.05 71.1 L45.8 71.1 45.8 84.45 32.05 84.45 32.05 71.1 M-70.8 -139.7 L-70.8 -141.2 -96.65 -141.2 -96.65 -139.7 -70.8 -139.7 M-69.3 -127.85 L-98.15 -127.85 -98.15 -142.45 -69.3 -142.45 -69.3 -127.85 M-21.6 84.45 L-21.6 71.1 -7.85 71.1 -7.85 84.45 -21.6 84.45" fill="#000000" fill-opacity="0.2" fill-rule="evenodd" stroke="none"/>
    <path d="M84.3 -143.8 L161.15 -143.8 161.15 -141.35 84.3 -141.35 84.3 -143.8 M72.35 -147.4 L-56.35 -147.4 -56.35 -149.85 72.35 -149.85 72.35 -147.4 M84.7 95.7 Q79.2 95.7 76.3 85.95 L79.75 91.05 Q84.45 95.7 89.8 93.9 87.6 95.85 84.7 95.7 M27.9 69.15 L30.0 68.75 30.0 85.95 27.9 85.95 27.9 69.15 M1.1 69.15 L3.15 68.75 3.15 85.95 1.1 85.95 1.1 69.15 M-70.8 -139.7 L-96.65 -139.7 -96.65 -141.2 -70.8 -141.2 -70.8 -139.7 M-25.7 85.95 L-25.7 69.15 -23.65 68.75 -23.65 85.95 -25.7 85.95 M-61.2 95.7 L-66.0 95.3 -81.1 60.5 -64.2 93.5 Q-60.2 95.3 -56.25 92.0 L-53.2 88.4 Q-55.8 94.9 -61.2 95.7" fill="#ffffff" fill-opacity="0.6" fill-rule="evenodd" stroke="none"/>
    <path d="M82.9 -145.2 L162.65 -145.2 162.65 -125.95 82.9 -125.95 82.9 -145.2 M73.7 -128.7 L-57.9 -128.7 -57.9 -151.25 73.7 -151.25 73.7 -128.7 M167.75 73.45 L166.95 120.3 122.45 120.3 138.05 131.3 163.5 131.3 163.5 151.25 118.8 151.25 82.35 120.3 -50.8 120.3 -97.05 150.55 -146.55 150.55 -143.15 136.15 -125.95 136.15 -102.05 120.3 -167.9 120.3 -167.9 40.55 Q164.85 30.25 166.95 28.2 168.15 26.95 167.75 73.45 M112.6 50.9 L114.95 41.8 11.85 42.9 -91.3 41.8 -88.95 50.9 Q-89.25 51.45 -78.8 74.95 L-68.45 98.0 -68.35 98.2 -61.6 99.3 Q-54.05 98.75 -50.05 90.35 L73.7 90.35 Q77.7 98.75 85.25 99.3 88.7 99.55 91.4 98.45 L92.0 98.2 102.6 74.95 Q113.05 51.45 112.6 50.9 M-69.3 -127.85 L-98.15 -127.85 -98.15 -142.45 -69.3 -142.45 -69.3 -127.85" fill="none" stroke="#000000" stroke-linecap="butt" stroke-linejoin="miter-clip" stroke-miterlimit="10.0" stroke-width="1.0"/>
    <path d="M19.1 71.1 L19.1 84.45 5.35 84.45 5.35 71.1 19.1 71.1 M32.05 71.1 L45.8 71.1 45.8 84.45 32.05 84.45 32.05 71.1 M82.35 120.3 L73.45 112.75 -39.3 112.75 -50.8 120.3 M91.4 98.45 L122.45 120.3 M-21.6 84.45 L-21.6 71.1 -7.85 71.1 -7.85 84.45 -21.6 84.45 M-102.05 120.3 L-68.45 98.0" fill="none" stroke="#000000" stroke-linecap="butt" stroke-linejoin="miter-clip" stroke-miterlimit="10.0" stroke-opacity="0.6" stroke-width="1.0"/>
  </g>
</svg>
