<?xml version="1.0" encoding="UTF-8" standalone="no"?>
<svg xmlns:xlink="http://www.w3.org/1999/xlink" height="57.8px" width="229.25px" xmlns="http://www.w3.org/2000/svg">
  <g transform="matrix(1.0, 0.0, 0.0, 1.0, 114.65, 28.9)">
    <path d="M61.3 -17.8 Q61.3 -19.45 60.2 -19.85 L57.45 -20.25 54.85 -19.85 Q53.75 -19.45 53.75 -17.8 L53.75 11.5 Q53.75 13.0 54.85 13.4 L57.45 13.7 60.2 13.4 Q61.3 13.0 61.3 11.5 L61.3 -17.8 M5.9 -17.8 Q5.9 -20.25 2.05 -20.25 L-0.7 -19.85 Q-1.8 -19.3 -1.8 -17.8 L-1.8 11.5 Q-1.8 13.0 -0.7 13.4 L2.05 13.7 4.8 13.4 Q5.9 13.0 5.9 11.5 L5.9 -17.8 M23.25 -19.85 L20.5 -20.25 Q18.55 -20.25 17.85 -19.85 16.75 -19.45 16.75 -17.8 L16.75 11.5 Q16.75 13.0 17.85 13.4 L20.5 13.7 23.25 13.4 Q24.35 13.0 24.35 11.5 L24.35 -17.8 Q24.35 -19.45 23.25 -19.85 M36.3 -19.85 Q35.2 -19.3 35.2 -17.8 L35.2 11.5 Q35.2 13.0 36.3 13.4 L39.05 13.7 41.8 13.4 Q42.9 13.0 42.9 11.5 L42.9 -17.8 Q42.9 -20.25 39.05 -20.25 37.1 -20.25 36.3 -19.85 M114.1 22.1 L114.1 28.4 -114.15 28.4 -114.15 22.1 -114.15 -28.4 114.1 -28.4 114.1 22.1 M-13.75 -19.85 L-16.5 -20.25 -19.1 -19.85 Q-20.2 -19.45 -20.2 -17.8 L-20.2 11.5 Q-20.2 13.0 -19.1 13.4 L-16.5 13.7 -13.75 13.4 Q-12.65 13.0 -12.65 11.5 L-12.65 -17.8 Q-12.65 -19.45 -13.75 -19.85 M-37.7 -19.85 Q-38.8 -19.3 -38.8 -17.8 L-38.8 11.5 Q-38.8 13.0 -37.7 13.4 L-34.95 13.7 -32.2 13.4 Q-31.1 13.0 -31.1 11.5 L-31.1 -17.8 Q-31.1 -20.25 -34.95 -20.25 L-37.7 -19.85 M-49.65 -17.8 Q-49.65 -19.45 -50.75 -19.85 L-53.35 -20.25 -56.1 -19.85 Q-57.2 -19.45 -57.2 -17.8 L-57.2 11.5 Q-57.2 13.0 -56.1 13.4 L-53.35 13.7 -50.75 13.4 Q-49.65 13.0 -49.65 11.5 L-49.65 -17.8" fill="#ffffff" fill-opacity="0.0" fill-rule="evenodd" stroke="none"/>
    <path d="M36.3 -19.85 Q37.1 -20.25 39.05 -20.25 42.9 -20.25 42.9 -17.8 L42.9 11.5 Q42.9 13.0 41.8 13.4 L39.05 13.7 36.3 13.4 Q35.2 13.0 35.2 11.5 L35.2 -17.8 Q35.2 -19.3 36.3 -19.85 M23.25 -19.85 Q24.35 -19.45 24.35 -17.8 L24.35 11.5 Q24.35 13.0 23.25 13.4 L20.5 13.7 17.85 13.4 Q16.75 13.0 16.75 11.5 L16.75 -17.8 Q16.75 -19.45 17.85 -19.85 18.55 -20.25 20.5 -20.25 L23.25 -19.85 M5.9 -17.8 L5.9 11.5 Q5.9 13.0 4.8 13.4 L2.05 13.7 -0.7 13.4 Q-1.8 13.0 -1.8 11.5 L-1.8 -17.8 Q-1.8 -19.3 -0.7 -19.85 L2.05 -20.25 Q5.9 -20.25 5.9 -17.8 M61.3 -17.8 L61.3 11.5 Q61.3 13.0 60.2 13.4 L57.45 13.7 54.85 13.4 Q53.75 13.0 53.75 11.5 L53.75 -17.8 Q53.75 -19.45 54.85 -19.85 L57.45 -20.25 60.2 -19.85 Q61.3 -19.45 61.3 -17.8 M-49.65 -17.8 L-49.65 11.5 Q-49.65 13.0 -50.75 13.4 L-53.35 13.7 -56.1 13.4 Q-57.2 13.0 -57.2 11.5 L-57.2 -17.8 Q-57.2 -19.45 -56.1 -19.85 L-53.35 -20.25 -50.75 -19.85 Q-49.65 -19.45 -49.65 -17.8 M-37.7 -19.85 L-34.95 -20.25 Q-31.1 -20.25 -31.1 -17.8 L-31.1 11.5 Q-31.1 13.0 -32.2 13.4 L-34.95 13.7 -37.7 13.4 Q-38.8 13.0 -38.8 11.5 L-38.8 -17.8 Q-38.8 -19.3 -37.7 -19.85 M-13.75 -19.85 Q-12.65 -19.45 -12.65 -17.8 L-12.65 11.5 Q-12.65 13.0 -13.75 13.4 L-16.5 13.7 -19.1 13.4 Q-20.2 13.0 -20.2 11.5 L-20.2 -17.8 Q-20.2 -19.45 -19.1 -19.85 L-16.5 -20.25 -13.75 -19.85" fill="#000000" fill-opacity="0.2" fill-rule="evenodd" stroke="none"/>
    <path d="M36.3 -19.85 Q37.1 -20.25 39.05 -20.25 42.9 -20.25 42.9 -17.8 L42.9 11.5 Q42.9 13.0 41.8 13.4 L39.05 13.7 36.3 13.4 Q35.2 13.0 35.2 11.5 L35.2 -17.8 Q35.2 -19.3 36.3 -19.85 M23.25 -19.85 Q24.35 -19.45 24.35 -17.8 L24.35 11.5 Q24.35 13.0 23.25 13.4 L20.5 13.7 17.85 13.4 Q16.75 13.0 16.75 11.5 L16.75 -17.8 Q16.75 -19.45 17.85 -19.85 18.55 -20.25 20.5 -20.25 L23.25 -19.85 M5.9 -17.8 L5.9 11.5 Q5.9 13.0 4.8 13.4 L2.05 13.7 -0.7 13.4 Q-1.8 13.0 -1.8 11.5 L-1.8 -17.8 Q-1.8 -19.3 -0.7 -19.85 L2.05 -20.25 Q5.9 -20.25 5.9 -17.8 M61.3 -17.8 L61.3 11.5 Q61.3 13.0 60.2 13.4 L57.45 13.7 54.85 13.4 Q53.75 13.0 53.75 11.5 L53.75 -17.8 Q53.75 -19.45 54.85 -19.85 L57.45 -20.25 60.2 -19.85 Q61.3 -19.45 61.3 -17.8 M-114.15 22.1 L-114.15 -28.4 114.1 -28.4 114.1 22.1 M-49.65 -17.8 L-49.65 11.5 Q-49.65 13.0 -50.75 13.4 L-53.35 13.7 -56.1 13.4 Q-57.2 13.0 -57.2 11.5 L-57.2 -17.8 Q-57.2 -19.45 -56.1 -19.85 L-53.35 -20.25 -50.75 -19.85 Q-49.65 -19.45 -49.65 -17.8 M-37.7 -19.85 L-34.95 -20.25 Q-31.1 -20.25 -31.1 -17.8 L-31.1 11.5 Q-31.1 13.0 -32.2 13.4 L-34.95 13.7 -37.7 13.4 Q-38.8 13.0 -38.8 11.5 L-38.8 -17.8 Q-38.8 -19.3 -37.7 -19.85 M-13.75 -19.85 Q-12.65 -19.45 -12.65 -17.8 L-12.65 11.5 Q-12.65 13.0 -13.75 13.4 L-16.5 13.7 -19.1 13.4 Q-20.2 13.0 -20.2 11.5 L-20.2 -17.8 Q-20.2 -19.45 -19.1 -19.85 L-16.5 -20.25 -13.75 -19.85" fill="none" stroke="#000000" stroke-linecap="butt" stroke-linejoin="miter-clip" stroke-miterlimit="10.0" stroke-opacity="0.6" stroke-width="1.0"/>
    <path d="M114.1 22.1 L114.1 28.4 -114.15 28.4 -114.15 22.1" fill="none" stroke="#000000" stroke-linecap="butt" stroke-linejoin="miter-clip" stroke-miterlimit="10.0" stroke-width="1.0"/>
  </g>
</svg>
