<?xml version="1.0" encoding="UTF-8" standalone="no"?>
<svg xmlns:xlink="http://www.w3.org/1999/xlink" height="147.8px" width="97.5px" xmlns="http://www.w3.org/2000/svg">
  <g transform="matrix(1.0, 0.0, 0.0, 1.0, 47.5, 73.95)">
    <path d="M-13.4 18.3 Q-13.3 19.1 -11.35 19.9 L-44.9 72.3 -45.65 72.9 -46.55 72.8 Q-46.95 72.6 -47.0 72.1 -47.05 71.6 -46.75 71.15 L-13.4 18.3" fill="#ffffff" fill-opacity="0.2" fill-rule="evenodd" stroke="none"/>
    <path d="M-13.4 18.3 L-46.75 71.15 Q-47.05 71.6 -47.0 72.1 -46.95 72.6 -46.55 72.8 L-45.65 72.9 -44.9 72.3 -11.35 19.9 Q-13.3 19.1 -13.4 18.3 Z" fill="none" stroke="#000000" stroke-linecap="butt" stroke-linejoin="miter-clip" stroke-miterlimit="10.0" stroke-opacity="0.6" stroke-width="1.0"/>
    <path d="M-13.4 18.4 Q-13.25 17.6 -9.2 11.15 L44.1 -72.45 Q44.35 -72.9 45.0 -72.95 L46.15 -72.65 46.95 -71.75 Q47.15 -71.15 46.85 -70.7 L4.9 -4.85 -2.4 6.65 -8.5 15.85 -9.95 17.9 -11.35 19.9 -12.75 19.6 Q-13.4 19.2 -13.4 18.45 L-13.4 18.4" fill="#ffffff" fill-opacity="0.0" fill-rule="evenodd" stroke="none"/>
    <path d="M-11.35 19.9 L-9.95 17.9 -8.5 15.85 -2.4 6.65 4.9 -4.85 46.85 -70.7 Q47.15 -71.15 46.95 -71.75 L46.15 -72.65 45.0 -72.95 Q44.35 -72.9 44.1 -72.45 L-9.2 11.15 Q-13.25 17.6 -13.4 18.4" fill="none" stroke="#000000" stroke-linecap="butt" stroke-linejoin="miter-clip" stroke-miterlimit="10.0" stroke-opacity="0.6" stroke-width="1.0"/>
    <path d="M-13.4 18.4 L-13.4 18.45 Q-13.4 19.2 -12.75 19.6 L-11.35 19.9 Z" fill="none" stroke="#000000" stroke-linecap="butt" stroke-linejoin="miter-clip" stroke-miterlimit="10.0" stroke-opacity="0.4" stroke-width="1.0"/>
  </g>
</svg>
