<?xml version="1.0" encoding="UTF-8" standalone="no"?>
<svg xmlns:xlink="http://www.w3.org/1999/xlink" height="12.75px" width="55.0px" xmlns="http://www.w3.org/2000/svg">
  <g transform="matrix(1.0, 0.0, 0.0, 1.0, 27.5, 6.35)">
    <path d="M19.8 -4.3 Q19.05 -3.5 19.05 -2.4 19.05 -1.3 19.8 -0.5 20.6 0.3 21.7 0.3 22.8 0.3 23.6 -0.5 24.35 -1.3 24.35 -2.4 24.35 -3.5 23.6 -4.3 22.8 -5.05 21.7 -5.05 20.6 -5.05 19.8 -4.3 M19.25 -4.85 Q20.25 -5.85 21.7 -5.85 23.15 -5.85 24.15 -4.85 25.2 -3.8 25.2 -2.4 25.2 -0.95 24.15 0.1 23.15 1.1 21.7 1.1 20.25 1.1 19.25 0.1 18.2 -0.95 18.2 -2.4 18.2 -3.8 19.25 -4.85" fill="#000000" fill-opacity="0.2" fill-rule="evenodd" stroke="none"/>
    <path d="M19.55 -2.2 Q19.55 -3.2 20.25 -3.85 20.9 -4.5 21.85 -4.5 22.75 -4.5 23.4 -3.95 22.7 -4.75 21.65 -4.75 20.7 -4.75 20.05 -4.05 19.35 -3.4 19.35 -2.4 19.35 -1.4 20.15 -0.7 19.55 -1.35 19.55 -2.2 M19.8 -4.3 Q20.6 -5.05 21.7 -5.05 22.8 -5.05 23.6 -4.3 24.35 -3.5 24.35 -2.4 24.35 -1.3 23.6 -0.5 22.8 0.3 21.7 0.3 20.6 0.3 19.8 -0.5 19.05 -1.3 19.05 -2.4 19.05 -3.5 19.8 -4.3 M11.5 4.95 L11.75 4.65 Q12.1 4.3 12.45 4.25 L12.05 4.2 Q11.6 4.3 11.5 4.95 M12.15 4.0 Q12.5 4.0 12.7 4.25 L12.95 4.8 12.7 5.4 12.15 5.65 11.55 5.4 11.35 4.8 11.55 4.25 12.15 4.0 M5.1 5.65 Q4.75 5.65 4.5 5.4 L4.25 4.8 4.5 4.25 Q4.75 4.0 5.1 4.0 5.4 4.0 5.65 4.25 L5.9 4.8 5.65 5.4 5.1 5.65 M8.6 4.0 L9.2 4.25 9.4 4.8 9.2 5.4 8.6 5.65 8.05 5.4 7.8 4.8 8.05 4.25 Q8.3 4.0 8.6 4.0 M8.25 4.65 Q8.55 4.3 8.9 4.25 L8.5 4.2 Q8.05 4.3 8.0 4.95 L8.25 4.65 M2.1 4.25 L2.35 4.8 2.1 5.4 1.55 5.65 0.95 5.4 0.7 4.8 Q0.7 4.5 0.95 4.25 1.2 4.0 1.55 4.0 1.9 4.0 2.1 4.25 M1.45 4.2 Q1.0 4.3 0.9 4.95 L1.15 4.65 Q1.5 4.3 1.85 4.25 L1.45 4.2 M4.45 4.95 L4.7 4.65 Q5.0 4.3 5.4 4.25 L5.0 4.2 Q4.55 4.3 4.45 4.95 M-26.65 -2.6 Q-27.0 -2.95 -27.0 -3.4 L-26.65 -4.25 Q-26.3 -4.6 -25.8 -4.6 -25.3 -4.6 -25.0 -4.25 -24.65 -3.9 -24.65 -3.4 -24.65 -2.95 -25.0 -2.6 -25.3 -2.25 -25.8 -2.25 -26.3 -2.25 -26.65 -2.6 M-26.4 -3.7 L-25.5 -4.25 -26.05 -4.25 Q-26.65 -4.1 -26.75 -3.25 L-26.4 -3.7 M-4.7 4.8 Q-4.7 5.15 -4.95 5.4 L-5.5 5.65 -6.1 5.4 -6.35 4.8 -6.1 4.25 Q-5.85 4.0 -5.5 4.0 -5.15 4.0 -4.95 4.25 L-4.7 4.8 M-2.8 4.8 L-2.55 4.25 Q-2.3 4.0 -2.0 4.0 -1.65 4.0 -1.4 4.25 -1.15 4.5 -1.15 4.8 L-1.4 5.4 -2.0 5.65 -2.55 5.4 -2.8 4.8 M-1.65 4.25 L-2.1 4.2 Q-2.55 4.3 -2.6 4.95 L-2.35 4.65 Q-2.05 4.3 -1.65 4.25 M-9.05 4.0 Q-8.7 4.0 -8.5 4.25 L-8.25 4.8 -8.5 5.4 -9.05 5.65 -9.6 5.4 -9.85 4.8 -9.6 4.25 Q-9.35 4.0 -9.05 4.0 M-9.45 4.65 Q-9.1 4.3 -8.75 4.25 L-9.15 4.2 Q-9.6 4.3 -9.65 4.95 L-9.45 4.65 M-5.2 4.25 L-5.65 4.2 Q-6.05 4.3 -6.15 4.95 L-5.9 4.65 Q-5.6 4.3 -5.2 4.25 M-13.15 4.25 L-12.6 4.0 Q-12.25 4.0 -12.0 4.25 L-11.75 4.8 -12.0 5.4 -12.6 5.65 -13.15 5.4 -13.4 4.8 -13.15 4.25 M-12.95 4.65 Q-12.65 4.3 -12.3 4.25 L-12.7 4.2 Q-13.1 4.3 -13.2 4.95 L-12.95 4.65" fill="#ffffff" fill-opacity="0.0" fill-rule="evenodd" stroke="none"/>
    <path d="M19.55 -2.2 Q19.55 -1.35 20.15 -0.7 19.35 -1.4 19.35 -2.4 19.35 -3.4 20.05 -4.05 20.7 -4.75 21.65 -4.75 22.7 -4.75 23.4 -3.95 22.75 -4.5 21.85 -4.5 20.9 -4.5 20.25 -3.85 19.55 -3.2 19.55 -2.2 M26.75 4.25 L15.5 4.25 15.5 3.95 26.75 3.95 26.75 4.25 M11.5 4.95 Q11.6 4.3 12.05 4.2 L12.45 4.25 Q12.1 4.3 11.75 4.65 L11.5 4.95 M8.25 4.65 L8.0 4.95 Q8.05 4.3 8.5 4.2 L8.9 4.25 Q8.55 4.3 8.25 4.65 M4.45 4.95 Q4.55 4.3 5.0 4.2 L5.4 4.25 Q5.0 4.3 4.7 4.65 L4.45 4.95 M1.45 4.2 L1.85 4.25 Q1.5 4.3 1.15 4.65 L0.9 4.95 Q1.0 4.3 1.45 4.2 M-26.4 -3.7 L-26.75 -3.25 Q-26.65 -4.1 -26.05 -4.25 L-25.5 -4.25 -26.4 -3.7 M-1.65 4.25 Q-2.05 4.3 -2.35 4.65 L-2.6 4.95 Q-2.55 4.3 -2.1 4.2 L-1.65 4.25 M-5.2 4.25 Q-5.6 4.3 -5.9 4.65 L-6.15 4.95 Q-6.05 4.3 -5.65 4.2 L-5.2 4.25 M-9.45 4.65 L-9.65 4.95 Q-9.6 4.3 -9.15 4.2 L-8.75 4.25 Q-9.1 4.3 -9.45 4.65 M-12.95 4.65 L-13.2 4.95 Q-13.1 4.3 -12.7 4.2 L-12.3 4.25 Q-12.65 4.3 -12.95 4.65" fill="#ffffff" fill-opacity="0.6" fill-rule="evenodd" stroke="none"/>
    <path d="M26.75 4.25 L26.75 3.95 15.5 3.95 15.5 4.25 26.75 4.25 M27.0 5.9 L15.25 5.9 15.25 3.8 27.0 3.8 27.0 5.9 M-25.1 -0.45 L-25.1 1.0 -26.5 1.0 -26.5 -0.45 -25.1 -0.45 M-25.1 4.15 L-25.1 5.65 -26.5 5.65 -26.5 4.15 -25.1 4.15" fill="#000000" fill-opacity="0.24705882" fill-rule="evenodd" stroke="none"/>
    <path d="M19.8 -4.3 Q20.6 -5.05 21.7 -5.05 22.8 -5.05 23.6 -4.3 24.35 -3.5 24.35 -2.4 24.35 -1.3 23.6 -0.5 22.8 0.3 21.7 0.3 20.6 0.3 19.8 -0.5 19.05 -1.3 19.05 -2.4 19.05 -3.5 19.8 -4.3 M19.25 -4.85 Q20.25 -5.85 21.7 -5.85 23.15 -5.85 24.15 -4.85 25.2 -3.8 25.2 -2.4 25.2 -0.95 24.15 0.1 23.15 1.1 21.7 1.1 20.25 1.1 19.25 0.1 18.2 -0.95 18.2 -2.4 18.2 -3.8 19.25 -4.85 M27.0 5.9 L15.25 5.9 15.25 3.8 27.0 3.8 27.0 5.9 M12.15 4.0 Q12.5 4.0 12.7 4.25 L12.95 4.8 12.7 5.4 12.15 5.65 11.55 5.4 11.35 4.8 11.55 4.25 12.15 4.0 M5.1 5.65 Q4.75 5.65 4.5 5.4 L4.25 4.8 4.5 4.25 Q4.75 4.0 5.1 4.0 5.4 4.0 5.65 4.25 L5.9 4.8 5.65 5.4 5.1 5.65 M8.6 4.0 L9.2 4.25 9.4 4.8 9.2 5.4 8.6 5.65 8.05 5.4 7.8 4.8 8.05 4.25 Q8.3 4.0 8.6 4.0 M2.1 4.25 L2.35 4.8 2.1 5.4 1.55 5.65 0.95 5.4 0.7 4.8 Q0.7 4.5 0.95 4.25 1.2 4.0 1.55 4.0 1.9 4.0 2.1 4.25 M-26.65 -2.6 Q-27.0 -2.95 -27.0 -3.4 L-26.65 -4.25 Q-26.3 -4.6 -25.8 -4.6 -25.3 -4.6 -25.0 -4.25 -24.65 -3.9 -24.65 -3.4 -24.65 -2.95 -25.0 -2.6 -25.3 -2.25 -25.8 -2.25 -26.3 -2.25 -26.65 -2.6 M-25.1 -0.45 L-25.1 1.0 -26.5 1.0 -26.5 -0.45 -25.1 -0.45 M-4.7 4.8 Q-4.7 5.15 -4.95 5.4 L-5.5 5.65 -6.1 5.4 -6.35 4.8 -6.1 4.25 Q-5.85 4.0 -5.5 4.0 -5.15 4.0 -4.95 4.25 L-4.7 4.8 M-2.8 4.8 L-2.55 4.25 Q-2.3 4.0 -2.0 4.0 -1.65 4.0 -1.4 4.25 -1.15 4.5 -1.15 4.8 L-1.4 5.4 -2.0 5.65 -2.55 5.4 -2.8 4.8 M-9.05 4.0 Q-8.7 4.0 -8.5 4.25 L-8.25 4.8 -8.5 5.4 -9.05 5.65 -9.6 5.4 -9.85 4.8 -9.6 4.25 Q-9.35 4.0 -9.05 4.0 M-13.15 4.25 L-12.6 4.0 Q-12.25 4.0 -12.0 4.25 L-11.75 4.8 -12.0 5.4 -12.6 5.65 -13.15 5.4 -13.4 4.8 -13.15 4.25 M-25.1 4.15 L-25.1 5.65 -26.5 5.65 -26.5 4.15 -25.1 4.15" fill="none" stroke="#000000" stroke-linecap="butt" stroke-linejoin="miter-clip" stroke-miterlimit="10.0" stroke-opacity="0.6" stroke-width="1.0"/>
  </g>
</svg>
