<?xml version="1.0" encoding="UTF-8" standalone="no"?>
<svg xmlns:xlink="http://www.w3.org/1999/xlink" height="329.5px" width="154.75px" xmlns="http://www.w3.org/2000/svg">
  <g transform="matrix(1.0, 0.0, 0.0, 1.0, 77.55, 164.65)">
    <path d="M3.75 -91.5 Q3.45 -99.6 4.45 -115.2 6.4 -146.85 12.4 -154.95 18.85 -163.5 30.25 -164.1 40.6 -164.55 50.35 -158.85 58.75 -154.05 56.8 -138.3 55.15 -123.75 48.4 -116.85 43.3 -111.9 35.8 -97.95 L31.3 -88.75 Q15.05 -93.6 3.75 -91.5 15.05 -93.6 31.3 -88.75 36.55 -87.2 42.4 -84.9 L54.55 -64.65 Q67.15 -41.7 70.3 -27.9 74.5 -9.75 76.15 12.9 77.8 37.5 74.35 43.05 L67.0 54.15 63.4 59.1 71.05 60.75 Q78.25 63.0 76.3 66.15 73.3 71.1 55.3 82.05 L52.45 96.75 Q47.2 113.4 35.35 124.05 16.3 141.15 -13.7 164.1 L-76.7 79.05 -47.85 73.9 -47.15 73.8 -46.4 73.65 -61.1 76.5 -54.65 86.1 Q-26.6 78.15 -23.6 76.05 -19.25 73.2 1.3 85.05 8.8 89.4 18.4 86.7 23.05 85.35 26.35 83.1 21.1 82.35 14.65 80.4 1.6 76.35 -4.7 70.05 -10.85 63.9 -9.95 56.4 L-7.7 50.1 -3.95 55.2 Q2.35 61.5 15.4 67.05 28.6 72.75 40.75 67.95 46.9 65.55 50.35 62.1 L29.35 64.05 Q12.55 62.25 5.8 52.05 1.15 45.2 1.45 35.55 2.9 34.5 4.5 32.1 L5.95 29.6 6.25 28.95 Q10.9 19.5 4.3 9.15 -1.95 -0.95 -6.7 -11.8 L-9.35 -18.3 Q-11.7 -24.35 -13.0 -29.2 -15.15 -37.05 -14.6 -41.85 -14.3 -44.85 -21.35 -51.45 -27.65 -57.15 -23.6 -63.9 -21.8 -66.9 -17.9 -75.15 -13.55 -82.8 -7.85 -86.7 -2.9 -90.25 3.75 -91.5 M34.3 -129.9 Q33.1 -121.2 26.05 -106.2 22.6 -98.55 19.3 -92.85 18.55 -98.85 18.25 -106.65 17.5 -122.1 19.3 -130.95 21.55 -141.45 28.75 -140.85 35.95 -140.4 34.3 -129.9 35.95 -140.4 28.75 -140.85 21.55 -141.45 19.3 -130.95 17.5 -122.1 18.25 -106.65 18.55 -98.85 19.3 -92.85 22.6 -98.55 26.05 -106.2 33.1 -121.2 34.3 -129.9 M35.05 -73.2 Q27.85 -80.55 18.4 -79.95 9.25 -79.35 -4.55 -64.35 -11.6 -56.7 -17.6 -48.0 L-15.35 -45.3 Q3.85 -64.5 13.3 -66.9 20.8 -68.7 31.3 -67.5 L40.3 -65.85 Q38.65 -69.6 35.05 -73.2 M-13.0 -29.2 L-3.35 -40.8 Q7.3 -52.95 12.4 -54.9 17.8 -56.85 32.5 -55.5 L46.3 -53.85 32.5 -55.5 Q17.8 -56.85 12.4 -54.9 7.3 -52.95 -3.35 -40.8 L-13.0 -29.2 M4.3 9.15 Q11.2 -7.65 19.0 -9.9 22.9 -11.1 25.3 -8.85 L27.85 9.6 Q29.8 29.1 27.4 34.05 24.85 39.15 16.3 33.15 L8.35 26.1 26.35 47.1 Q32.65 47.1 36.7 40.2 38.65 36.6 39.4 33.15 L38.35 -0.9 27.4 -14.85 Q24.85 -15.9 21.55 -16.35 14.65 -17.4 10.3 -14.85 5.95 -12.45 4.75 -1.35 4.15 4.2 4.3 9.15 M-6.7 -11.8 L0.7 -22.2 Q8.65 -33.6 12.4 -37.95 16.15 -42.3 32.2 -40.95 40.15 -40.35 47.35 -38.85 40.15 -40.35 32.2 -40.95 16.15 -42.3 12.4 -37.95 8.65 -33.6 0.7 -22.2 L-6.7 -11.8" fill="#ffffff" fill-opacity="0.0" fill-rule="evenodd" stroke="none"/>
    <path d="M-46.1 73.6 L-44.75 73.3 -44.4 73.25 -38.95 72.0 Q-14.6 66.1 -14.6 61.05 -14.6 55.5 -16.55 51.3 L-18.65 48.15 -11.3 41.7 Q-3.5 35.55 -1.7 36.15 -0.65 36.3 1.45 34.95 L1.45 35.55 Q1.15 45.2 5.8 52.05 12.55 62.25 29.35 64.05 L50.35 62.1 Q46.9 65.55 40.75 67.95 28.6 72.75 15.4 67.05 2.35 61.5 -3.95 55.2 L-7.7 50.1 -9.95 56.4 Q-10.85 63.9 -4.7 70.05 1.6 76.35 14.65 80.4 21.1 82.35 26.35 83.1 23.05 85.35 18.4 86.7 8.8 89.4 1.3 85.05 -19.25 73.2 -23.6 76.05 -26.6 78.15 -54.65 86.1 L-61.1 76.5 -46.4 73.65 -46.1 73.6 -45.65 73.5 -44.4 73.25 -45.65 73.5 -46.1 73.6 M35.05 -73.2 Q38.65 -69.6 40.3 -65.85 L31.3 -67.5 Q20.8 -68.7 13.3 -66.9 3.85 -64.5 -15.35 -45.3 L-17.6 -48.0 Q-11.6 -56.7 -4.55 -64.35 9.25 -79.35 18.4 -79.95 27.85 -80.55 35.05 -73.2 M4.3 9.15 Q4.15 4.2 4.75 -1.35 5.95 -12.45 10.3 -14.85 14.65 -17.4 21.55 -16.35 24.85 -15.9 27.4 -14.85 L38.35 -0.9 39.4 33.15 Q38.65 36.6 36.7 40.2 32.65 47.1 26.35 47.1 L8.35 26.1 16.3 33.15 Q24.85 39.15 27.4 34.05 29.8 29.1 27.85 9.6 L25.3 -8.85 Q22.9 -11.1 19.0 -9.9 11.2 -7.65 4.3 9.15 M1.45 35.55 Q-0.15 36.65 -1.7 36.15 -0.15 36.65 1.45 35.55" fill="#000000" fill-opacity="0.2" fill-rule="evenodd" stroke="none"/>
    <path d="M31.3 -88.75 L35.8 -97.95 Q43.3 -111.9 48.4 -116.85 55.15 -123.75 56.8 -138.3 58.75 -154.05 50.35 -158.85 40.6 -164.55 30.25 -164.1 18.85 -163.5 12.4 -154.95 6.4 -146.85 4.45 -115.2 3.45 -99.6 3.75 -91.5 15.05 -93.6 31.3 -88.75 36.55 -87.2 42.4 -84.9 L54.55 -64.65 Q67.15 -41.7 70.3 -27.9 74.5 -9.75 76.15 12.9 77.8 37.5 74.35 43.05 L67.0 54.15 63.4 59.1 71.05 60.75 Q78.25 63.0 76.3 66.15 73.3 71.1 55.3 82.05 L52.45 96.75 Q47.2 113.4 35.35 124.05 16.3 141.15 -13.7 164.1 L-76.7 79.05 -47.85 73.9 -47.15 73.8 -46.1 73.6 -45.65 73.5 -44.4 73.25 -38.95 72.0 Q-14.6 66.1 -14.6 61.05 -14.6 55.5 -16.55 51.3 L-18.65 48.15 -11.3 41.7 Q-3.5 35.55 -1.7 36.15 -0.15 36.65 1.45 35.55 2.9 34.5 4.5 32.1 L5.95 29.6 6.25 28.95 Q10.9 19.5 4.3 9.15 -1.95 -0.95 -6.7 -11.8 L-9.35 -18.3 Q-11.7 -24.35 -13.0 -29.2 -15.15 -37.05 -14.6 -41.85 -14.3 -44.85 -21.35 -51.45 -27.65 -57.15 -23.6 -63.9 -21.8 -66.9 -17.9 -75.15 -13.55 -82.8 -7.85 -86.7 -2.9 -90.25 3.75 -91.5" fill="none" stroke="#000000" stroke-linecap="butt" stroke-linejoin="miter-clip" stroke-miterlimit="10.0" stroke-width="1.0"/>
    <path d="M34.3 -129.9 Q35.95 -140.4 28.75 -140.85 21.55 -141.45 19.3 -130.95 17.5 -122.1 18.25 -106.65 18.55 -98.85 19.3 -92.85 22.6 -98.55 26.05 -106.2 33.1 -121.2 34.3 -129.9 M46.3 -53.85 L32.5 -55.5 Q17.8 -56.85 12.4 -54.9 7.3 -52.95 -3.35 -40.8 L-13.0 -29.2 M47.35 -38.85 Q40.15 -40.35 32.2 -40.95 16.15 -42.3 12.4 -37.95 8.65 -33.6 0.7 -22.2 L-6.7 -11.8" fill="none" stroke="#000000" stroke-linecap="butt" stroke-linejoin="miter-clip" stroke-miterlimit="10.0" stroke-opacity="0.6" stroke-width="1.0"/>
  </g>
</svg>
