<?xml version="1.0" encoding="UTF-8" standalone="no"?>
<svg xmlns:xlink="http://www.w3.org/1999/xlink" height="89.7px" width="89.7px" xmlns="http://www.w3.org/2000/svg">
  <g transform="matrix(1.0, 0.0, 0.0, 1.0, 44.85, 44.85)">
    <path d="M-14.95 7.1 Q-16.45 2.7 -15.8 -2.35 -14.65 -12.35 -4.45 -14.95 L-10.65 -9.3 Q-16.65 -1.75 -14.95 7.1" fill="#ffffff" fill-rule="evenodd" stroke="none"/>
    <path d="M17.05 33.15 L16.1 31.35 8.9 24.1 3.2 25.15 -0.05 25.45 Q-0.35 27.15 -0.8 28.7 -2.35 32.2 -2.55 34.9 -2.8 37.35 -2.05 38.4 -1.4 39.45 4.25 39.0 10.25 38.5 14.0 36.8 17.4 35.35 17.05 33.15 M35.15 1.5 L25.35 4.45 Q24.75 7.95 22.3 12.95 L24.85 15.15 Q27.15 18.1 29.45 19.7 31.35 21.05 32.7 20.95 33.95 20.75 36.3 15.6 38.7 10.25 39.0 6.05 39.35 2.45 37.25 1.65 L35.15 1.5 M22.0 -29.25 Q21.05 -28.6 20.75 -27.55 L17.7 -17.8 Q20.2 -15.4 23.15 -10.55 L26.3 -11.5 Q30.0 -11.6 32.6 -12.65 34.8 -13.6 35.55 -14.75 36.2 -15.8 33.15 -20.65 29.9 -25.65 26.6 -28.3 23.8 -30.5 22.0 -29.25 M-44.35 0.05 Q-44.35 -18.3 -31.35 -31.35 -18.3 -44.35 0.05 -44.35 18.45 -44.35 31.35 -31.35 44.35 -18.3 44.35 0.05 44.35 18.45 31.35 31.35 18.45 44.35 0.05 44.35 -18.3 44.35 -31.35 31.35 -44.35 18.45 -44.35 0.05 M-37.75 -5.2 Q-37.95 -1.5 -35.95 -0.7 L-33.85 -0.6 -24.1 -3.5 Q-23.65 -5.7 -22.3 -9.1 L-21.05 -12.15 -23.55 -14.25 Q-25.75 -17.15 -28.1 -18.75 -30.1 -20.1 -31.45 -20.0 -32.7 -19.9 -35.0 -14.75 -37.45 -9.3 -37.75 -5.2 M-31.35 13.6 Q-33.55 14.55 -34.3 15.7 -34.9 16.75 -31.85 21.6 -28.7 26.6 -25.45 29.15 -22.5 31.45 -20.75 30.2 L-19.45 28.5 -16.45 18.75 -20.1 14.25 -21.9 11.5 -25.05 12.35 Q-28.7 12.55 -31.35 13.6 M3.3 -37.55 Q2.7 -38.6 -3.0 -38.15 -8.95 -37.65 -12.75 -35.95 -16.1 -34.5 -15.8 -32.3 -15.7 -31.15 -14.85 -30.4 L-7.6 -23.15 Q-4.25 -24.2 1.3 -24.6 L2.05 -27.9 Q3.65 -31.25 3.85 -33.95 4.05 -36.4 3.3 -37.55" fill="#000000" fill-opacity="0.2" fill-rule="evenodd" stroke="none"/>
    <path d="M3.3 -37.55 Q4.05 -36.4 3.85 -33.95 3.65 -31.25 2.05 -27.9 L1.3 -24.6 Q-4.25 -24.2 -7.6 -23.15 L-14.85 -30.4 Q-15.7 -31.15 -15.8 -32.3 -16.1 -34.5 -12.75 -35.95 -8.95 -37.65 -3.0 -38.15 2.7 -38.6 3.3 -37.55 M-31.35 13.6 Q-28.7 12.55 -25.05 12.35 L-21.9 11.5 -20.1 14.25 -16.45 18.75 -19.45 28.5 -20.75 30.2 Q-22.5 31.45 -25.45 29.15 -28.7 26.6 -31.85 21.6 -34.9 16.75 -34.3 15.7 -33.55 14.55 -31.35 13.6 M-37.75 -5.2 Q-37.45 -9.3 -35.0 -14.75 -32.7 -19.9 -31.45 -20.0 -30.1 -20.1 -28.1 -18.75 -25.75 -17.15 -23.55 -14.25 L-21.05 -12.15 -22.3 -9.1 Q-23.65 -5.7 -24.1 -3.5 L-33.85 -0.6 -35.95 -0.7 Q-37.95 -1.5 -37.75 -5.2 M-44.35 0.05 Q-44.35 18.45 -31.35 31.35 -18.3 44.35 0.05 44.35 18.45 44.35 31.35 31.35 44.35 18.45 44.35 0.05 44.35 -18.3 31.35 -31.35 18.45 -44.35 0.05 -44.35 -18.3 -44.35 -31.35 -31.35 -44.35 -18.3 -44.35 0.05 M22.0 -29.25 Q23.8 -30.5 26.6 -28.3 29.9 -25.65 33.15 -20.65 36.2 -15.8 35.55 -14.75 34.8 -13.6 32.6 -12.65 30.0 -11.6 26.3 -11.5 L23.15 -10.55 Q20.2 -15.4 17.7 -17.8 L20.75 -27.55 Q21.05 -28.6 22.0 -29.25 M35.15 1.5 L37.25 1.65 Q39.35 2.45 39.0 6.05 38.7 10.25 36.3 15.6 33.95 20.75 32.7 20.95 31.35 21.05 29.45 19.7 27.15 18.1 24.85 15.15 L22.3 12.95 Q24.75 7.95 25.35 4.45 L35.15 1.5 M17.05 33.15 Q17.4 35.35 14.0 36.8 10.25 38.5 4.25 39.0 -1.4 39.45 -2.05 38.4 -2.8 37.35 -2.55 34.9 -2.35 32.2 -0.8 28.7 -0.35 27.15 -0.05 25.45 L3.2 25.15 8.9 24.1 16.1 31.35 17.05 33.15" fill="none" stroke="#000000" stroke-linecap="butt" stroke-linejoin="miter-clip" stroke-miterlimit="10.0" stroke-opacity="0.6" stroke-width="1.0"/>
    <path d="M13.9 -13.9 Q19.7 -8.15 19.7 0.05 19.7 8.15 13.9 13.9 8.15 19.7 0.05 19.7 -8.15 19.7 -13.9 13.9 -19.7 8.15 -19.7 0.05 -19.7 -8.15 -13.9 -13.9 -8.15 -19.7 0.05 -19.7 8.15 -19.7 13.9 -13.9" fill="#ffffff" fill-opacity="0.2" fill-rule="evenodd" stroke="none"/>
    <path d="M13.9 -13.9 Q19.7 -8.15 19.7 0.05 19.7 8.15 13.9 13.9 8.15 19.7 0.05 19.7 -8.15 19.7 -13.9 13.9 -19.7 8.15 -19.7 0.05 -19.7 -8.15 -13.9 -13.9 -8.15 -19.7 0.05 -19.7 8.15 -19.7 13.9 -13.9 Z" fill="none" stroke="#000000" stroke-linecap="butt" stroke-linejoin="miter-clip" stroke-miterlimit="10.0" stroke-opacity="0.6" stroke-width="1.0"/>
  </g>
</svg>
