<?xml version="1.0" encoding="UTF-8" standalone="no"?>
<svg xmlns:xlink="http://www.w3.org/1999/xlink" height="11.75px" width="22.05px" xmlns="http://www.w3.org/2000/svg">
  <g transform="matrix(1.0, 0.0, 0.0, 1.0, 11.0, 5.85)">
    <path d="M10.5 -1.5 L9.55 -1.35 8.45 -1.1 7.9 -0.95 7.05 -0.8 3.9 -0.25 2.6 -0.1 1.85 0.05 1.25 0.2 0.65 0.3 -0.1 0.5 -1.0 0.65 -2.4 0.75 -3.85 1.05 -5.6 1.05 -5.85 0.8 -5.9 0.75 -6.35 0.4 -6.95 0.05 -8.0 -0.85 -8.6 -1.15 -9.15 -1.75 -10.5 -2.75 -10.05 -3.1 -7.15 -3.3 -7.1 -3.3 -6.4 -3.5 -4.55 -3.75 -2.0 -4.0 -0.9 -4.4 -0.15 -4.55 -0.1 -4.55 0.55 -4.6 1.0 -4.6 1.6 -4.75 2.2 -4.9 3.4 -5.15 4.45 -5.35 5.25 -5.35 5.7 -5.3 6.4 -4.5 7.25 -4.0 8.15 -3.35 8.95 -2.85 9.4 -2.6 10.0 -2.15 10.55 -1.55 10.5 -1.5" fill="#ffffff" fill-opacity="0.0" fill-rule="evenodd" stroke="none"/>
    <path d="M-5.6 1.05 L-3.85 1.05 -2.4 0.75 -1.0 0.65 -0.1 0.5 0.65 0.3 1.25 0.2 1.85 0.05 2.6 -0.1 3.9 -0.25 7.05 -0.8 7.9 -0.95 8.45 -1.1 9.55 -1.35 10.5 -1.5 10.25 -0.65 10.2 0.55 10.25 0.75 10.3 1.15 10.25 1.85 10.25 2.4 6.6 3.1 4.85 3.5 3.8 3.65 2.75 3.9 2.2 3.95 1.65 4.05 1.25 4.15 0.65 4.3 -0.5 4.5 -1.5 4.65 -1.8 4.7 -2.05 4.75 -2.75 4.9 -3.25 4.95 -3.35 4.95 -4.0 5.05 -4.75 5.1 -5.35 5.15 -6.1 5.4 -6.15 5.35 -6.8 4.7 -6.25 5.25 -6.15 5.3 -6.15 5.0 -5.9 3.8 -5.9 2.95 -5.45 2.25 -5.55 1.85 -5.7 1.55 -5.6 1.05 M-6.4 -3.5 L-7.1 -3.3 -7.15 -3.3 -6.4 -3.5 M-10.25 0.55 L-10.4 0.0 -10.4 -0.05 -10.35 -1.15 -10.45 -1.6 -10.45 -1.65 -10.3 -1.15 -10.4 -0.05 -10.25 0.55 M-10.4 -2.15 L-10.45 -2.6 -10.4 -2.2 -10.4 -2.15" fill="#000000" fill-opacity="0.003921569" fill-rule="evenodd" stroke="none"/>
    <path d="M-10.5 -2.75 L-9.15 -1.75 -8.6 -1.15 -8.0 -0.85 -6.95 0.05 -6.35 0.4 -5.9 0.75 -5.85 0.8 -5.6 1.05 -5.7 1.55 -5.55 1.85 -5.45 2.25 -5.9 2.95 -5.9 3.8 -6.15 5.0 -6.15 5.3 -6.25 5.25 -6.8 4.7 -7.0 4.55 -7.45 4.15 -7.6 4.05 -7.75 3.95 -8.0 3.7 -8.3 3.45 -8.85 2.9 -9.5 2.4 -10.4 1.8 -10.2 0.75 -10.25 0.55 -10.4 -0.05 -10.3 -1.15 -10.45 -1.65 -10.4 -2.15 -10.4 -2.2 -10.45 -2.6 -10.5 -2.75" fill="#000000" fill-opacity="0.2" fill-rule="evenodd" stroke="none"/>
    <path d="M-5.7 1.55 L-5.55 1.85 -5.45 2.25 -5.9 2.95 -5.9 3.8 -6.15 5.0 M-6.15 5.35 L-6.1 5.4" fill="none" stroke="#000000" stroke-linecap="butt" stroke-linejoin="miter-clip" stroke-miterlimit="10.0" stroke-opacity="0.4" stroke-width="1.0"/>
    <path d="M10.55 -1.55 L10.0 -2.15 9.4 -2.6 8.95 -2.85 8.15 -3.35 7.25 -4.0 6.4 -4.5 5.7 -5.3 5.25 -5.35 4.45 -5.35 3.4 -5.15 2.2 -4.9 1.6 -4.75 1.0 -4.6 0.55 -4.6 -0.1 -4.55 -0.15 -4.55 -0.9 -4.4 -2.0 -4.0 -4.55 -3.75 M-6.15 5.0 L-6.15 5.3 -6.25 5.25 M-6.1 5.4 L-5.35 5.15 -4.75 5.1 -4.0 5.05 -3.35 4.95 -3.25 4.95 -2.75 4.9 -2.05 4.75 -1.8 4.7 -1.5 4.65 -0.5 4.5 0.65 4.3 1.25 4.15 1.65 4.05 2.2 3.95 2.75 3.9 3.8 3.65 4.85 3.5 6.6 3.1 10.25 2.4 10.25 1.85 10.3 1.15 10.25 0.75 10.2 0.55 10.25 -0.65 10.5 -1.5 M-10.2 0.75 L-10.4 1.8 -9.5 2.4 -8.85 2.9 -8.3 3.45 -8.0 3.7 -7.75 3.95 -7.6 4.05 -7.45 4.15 -7.0 4.55" fill="none" stroke="#000000" stroke-linecap="butt" stroke-linejoin="miter-clip" stroke-miterlimit="10.0" stroke-opacity="0.6" stroke-width="1.0"/>
    <path d="M-5.6 1.05 L-3.85 1.05 -2.4 0.75 -1.0 0.65 -0.1 0.5 0.65 0.3 1.25 0.2 1.85 0.05 2.6 -0.1 3.9 -0.25 7.05 -0.8 7.9 -0.95 8.45 -1.1 9.55 -1.35 10.5 -1.5 M-10.5 -2.75 L-9.15 -1.75 -8.6 -1.15 -8.0 -0.85 -6.95 0.05 -6.35 0.4 -5.9 0.75 -5.85 0.8 -5.6 1.05" fill="none" stroke="#000000" stroke-linecap="round" stroke-linejoin="miter-clip" stroke-miterlimit="10.0" stroke-opacity="0.4" stroke-width="1.0"/>
    <path d="M10.5 -1.5 L10.55 -1.55 M-6.8 4.7 L-6.15 5.35 M-10.25 0.55 L-10.2 0.75" fill="none" stroke="#000000" stroke-linecap="round" stroke-linejoin="miter-clip" stroke-miterlimit="10.0" stroke-opacity="0.6" stroke-width="1.0"/>
    <path d="M-4.55 -3.75 L-6.4 -3.5 M-6.25 5.25 L-6.8 4.7 -7.0 4.55" fill="none" stroke="#000000" stroke-linecap="butt" stroke-linejoin="miter-clip" stroke-miterlimit="10.0" stroke-opacity="0.6" stroke-width="1.0"/>
    <path d="M-6.4 -3.5 L-7.1 -3.3 -7.15 -3.3 -10.05 -3.1 -10.5 -2.75 -10.45 -2.6 -10.4 -2.2 -10.4 -2.15 -10.45 -2.6 M-10.25 0.55 L-10.4 0.0 -10.4 -0.05 -10.35 -1.15 -10.45 -1.6 -10.45 -1.65 -10.4 -2.15 M-10.45 -1.65 L-10.3 -1.15 -10.4 -0.05 -10.25 0.55 M-7.15 -3.3 L-6.4 -3.5" fill="none" stroke="#000000" stroke-linecap="round" stroke-linejoin="miter-clip" stroke-miterlimit="10.0" stroke-opacity="0.6" stroke-width="1.0"/>
    <path d="M-5.6 1.05 L-5.7 1.55" fill="none" stroke="#000000" stroke-linecap="round" stroke-linejoin="miter-clip" stroke-miterlimit="10.0" stroke-opacity="0.4" stroke-width="1.0"/>
    <path d="M-1.4 1.95 L-1.5 2.05 -1.75 2.1 -2.05 2.05 -2.15 1.95 -2.05 1.85 -1.75 1.8 -1.5 1.85 -1.4 1.95" fill="#000000" fill-opacity="0.2" fill-rule="evenodd" stroke="none"/>
    <path d="M-2.4 3.0 L-2.5 3.15 -2.85 3.2 -3.15 3.15 -3.3 3.0 -3.15 2.9 -2.85 2.8 -2.5 2.9 -2.4 3.0" fill="#000000" fill-opacity="0.2" fill-rule="evenodd" stroke="none"/>
    <path d="M-1.4 3.15 L-1.5 3.25 -1.75 3.3 -2.0 3.25 -2.1 3.15 -2.0 3.05 -1.75 3.0 -1.5 3.05 -1.4 3.15" fill="#000000" fill-opacity="0.2" fill-rule="evenodd" stroke="none"/>
    <path d="M-0.25 2.0 L-0.35 2.1 -0.6 2.15 -0.85 2.1 -0.95 2.0 -0.85 1.9 -0.6 1.85 -0.35 1.9 -0.25 2.0" fill="#000000" fill-opacity="0.2" fill-rule="evenodd" stroke="none"/>
    <path d="M1.7 1.7 L1.45 1.85 1.25 1.7 1.35 1.65 1.45 1.6 1.7 1.7" fill="#000000" fill-opacity="0.2" fill-rule="evenodd" stroke="none"/>
    <path d="M1.7 2.85 L1.45 2.95 1.35 2.9 1.25 2.85 1.35 2.75 1.45 2.7 1.7 2.85" fill="#000000" fill-opacity="0.2" fill-rule="evenodd" stroke="none"/>
    <path d="M0.55 1.7 L0.35 1.8 0.15 1.7 0.35 1.6 0.55 1.7" fill="#000000" fill-opacity="0.2" fill-rule="evenodd" stroke="none"/>
    <path d="M-1.8 4.05 L-2.0 4.15 -2.2 4.05 -2.15 3.95 -2.0 3.9 Q-1.8 3.9 -1.8 4.05" fill="#000000" fill-opacity="0.2" fill-rule="evenodd" stroke="none"/>
    <path d="M-4.65 4.05 L-4.85 4.15 -5.1 4.05 Q-5.1 3.9 -4.85 3.9 L-4.75 3.95 -4.65 4.05" fill="#000000" fill-opacity="0.2" fill-rule="evenodd" stroke="none"/>
    <path d="M-4.65 1.75 L-4.75 1.85 -4.85 1.9 -5.1 1.75 -4.85 1.65 -4.65 1.75" fill="#000000" fill-opacity="0.2" fill-rule="evenodd" stroke="none"/>
    <path d="M4.3 1.75 L4.2 1.85 4.1 1.9 3.95 1.85 3.85 1.75 Q3.85 1.65 4.1 1.65 4.3 1.65 4.3 1.75" fill="#000000" fill-opacity="0.2" fill-rule="evenodd" stroke="none"/>
    <path d="M2.9 0.4 L2.7 0.5 2.5 0.4 Q2.5 0.3 2.7 0.3 2.9 0.3 2.9 0.4" fill="#000000" fill-opacity="0.2" fill-rule="evenodd" stroke="none"/>
    <path d="M3.05 2.45 L2.95 2.55 2.8 2.6 2.6 2.55 2.55 2.45 2.6 2.35 2.8 2.3 2.95 2.35 3.05 2.45" fill="#000000" fill-opacity="0.2" fill-rule="evenodd" stroke="none"/>
    <path d="M3.9 0.85 L3.8 1.0 3.55 1.05 3.3 1.05 3.15 0.9 3.25 0.8 3.55 0.7 3.8 0.75 3.9 0.85" fill="#000000" fill-opacity="0.2" fill-rule="evenodd" stroke="none"/>
    <path d="M8.6 0.15 L8.45 0.25 8.1 0.3 7.8 0.2 7.7 0.05 7.85 -0.1 8.15 -0.1 8.5 0.0 8.6 0.15" fill="#000000" fill-opacity="0.2" fill-rule="evenodd" stroke="none"/>
    <path d="M4.0 2.05 L3.9 2.15 3.7 2.2 3.45 2.2 3.35 2.1 3.4 2.0 3.65 1.9 Q4.0 1.9 4.0 2.05" fill="#000000" fill-opacity="0.2" fill-rule="evenodd" stroke="none"/>
    <path d="M5.9 1.7 L5.6 1.85 5.35 1.85 5.2 1.75 5.3 1.65 5.55 1.6 5.8 1.6 5.9 1.7" fill="#000000" fill-opacity="0.2" fill-rule="evenodd" stroke="none"/>
    <path d="M6.95 0.35 L6.75 0.5 6.6 0.45 6.55 0.4 6.75 0.25 6.95 0.35" fill="#000000" fill-opacity="0.2" fill-rule="evenodd" stroke="none"/>
    <path d="M8.45 1.9 L8.3 2.05 8.05 1.95 8.25 1.8 8.4 1.85 8.45 1.9" fill="#000000" fill-opacity="0.2" fill-rule="evenodd" stroke="none"/>
    <path d="M5.85 0.45 L5.8 0.55 5.65 0.6 5.4 0.45 Q5.4 0.35 5.6 0.35 L5.75 0.35 5.85 0.45" fill="#000000" fill-opacity="0.2" fill-rule="evenodd" stroke="none"/>
    <path d="M3.7 2.95 L3.5 3.1 3.35 3.1 3.3 3.0 3.5 2.85 Q3.7 2.85 3.7 2.95" fill="#000000" fill-opacity="0.2" fill-rule="evenodd" stroke="none"/>
    <path d="M0.85 3.25 L0.65 3.35 Q0.45 3.4 0.45 3.25 0.4 3.15 0.65 3.15 L0.85 3.25" fill="#000000" fill-opacity="0.2" fill-rule="evenodd" stroke="none"/>
    <path d="M0.65 0.95 L0.45 1.1 0.3 1.1 0.25 1.0 0.4 0.85 0.65 0.95" fill="#000000" fill-opacity="0.2" fill-rule="evenodd" stroke="none"/>
    <path d="M9.55 0.15 L9.35 0.3 Q9.15 0.35 9.15 0.2 L9.35 0.05 9.55 0.15" fill="#000000" fill-opacity="0.2" fill-rule="evenodd" stroke="none"/>
    <path d="M8.6 -1.65 L8.4 -1.5 8.25 -1.55 8.2 -1.6 8.4 -1.75 8.6 -1.65" fill="#000000" fill-opacity="0.09803922" fill-rule="evenodd" stroke="none"/>
    <path d="M7.45 1.8 L7.4 1.9 7.25 2.0 7.05 1.95 6.95 1.85 7.05 1.75 7.2 1.7 7.4 1.7 7.45 1.8" fill="#000000" fill-opacity="0.2" fill-rule="evenodd" stroke="none"/>
    <path d="M-4.15 -2.8 L-4.25 -2.65 -4.55 -2.6 -4.8 -2.65 -4.95 -2.75 -4.85 -2.85 -4.55 -2.95 -4.3 -2.9 -4.15 -2.8" fill="#000000" fill-opacity="0.09803922" fill-rule="evenodd" stroke="none"/>
    <path d="M-6.35 -1.25 L-6.45 -1.1 -6.8 -1.05 -7.1 -1.05 -7.25 -1.2 -7.15 -1.35 -6.8 -1.4 -6.5 -1.4 -6.35 -1.25" fill="#000000" fill-opacity="0.09803922" fill-rule="evenodd" stroke="none"/>
    <path d="M-4.1 -1.6 L-4.2 -1.5 -4.4 -1.45 Q-4.75 -1.4 -4.75 -1.55 L-4.7 -1.65 -4.45 -1.75 Q-4.1 -1.75 -4.1 -1.6" fill="#000000" fill-opacity="0.09803922" fill-rule="evenodd" stroke="none"/>
    <path d="M-3.05 -2.85 Q-3.05 -2.7 -3.35 -2.7 L-3.7 -2.8 -3.65 -2.9 -3.4 -3.0 Q-3.05 -3.0 -3.05 -2.85" fill="#000000" fill-opacity="0.09803922" fill-rule="evenodd" stroke="none"/>
    <path d="M-1.15 -3.25 L-1.3 -3.15 Q-1.5 -3.1 -1.55 -3.25 L-1.35 -3.4 -1.2 -3.35 -1.15 -3.25" fill="#000000" fill-opacity="0.09803922" fill-rule="evenodd" stroke="none"/>
    <path d="M-1.05 -2.15 L-1.1 -2.1 -1.25 -2.05 Q-1.45 -2.0 -1.45 -2.15 L-1.25 -2.25 -1.1 -2.25 -1.05 -2.15" fill="#000000" fill-opacity="0.09803922" fill-rule="evenodd" stroke="none"/>
    <path d="M-2.25 -3.2 Q-2.25 -3.1 -2.45 -3.05 L-2.6 -3.1 -2.65 -3.15 -2.45 -3.3 -2.3 -3.3 -2.25 -3.2" fill="#000000" fill-opacity="0.09803922" fill-rule="evenodd" stroke="none"/>
    <path d="M-4.4 -0.7 L-4.6 -0.55 -4.75 -0.55 -4.8 -0.65 -4.6 -0.8 -4.4 -0.7" fill="#000000" fill-opacity="0.09803922" fill-rule="evenodd" stroke="none"/>
    <path d="M-9.6 -1.05 L-9.65 -0.95 -9.8 -0.9 Q-10.05 -0.9 -10.05 -1.0 L-9.85 -1.15 -9.6 -1.05" fill="#000000" fill-opacity="0.24705882" fill-rule="evenodd" stroke="none"/>
    <path d="M-8.75 -0.1 L-8.85 -0.05 -9.0 -0.05 -9.15 -0.25 -9.05 -0.3 -8.9 -0.3 -8.75 -0.1" fill="#000000" fill-opacity="0.24705882" fill-rule="evenodd" stroke="none"/>
    <path d="M-0.2 -0.45 Q-0.15 -0.35 -0.4 -0.3 -0.6 -0.3 -0.6 -0.4 L-0.4 -0.55 -0.25 -0.55 -0.2 -0.45" fill="#000000" fill-opacity="0.09803922" fill-rule="evenodd" stroke="none"/>
    <path d="M-3.35 -0.45 Q-3.3 -0.35 -3.55 -0.3 L-3.7 -0.35 -3.75 -0.4 Q-3.75 -0.55 -3.55 -0.55 L-3.35 -0.45" fill="#000000" fill-opacity="0.09803922" fill-rule="evenodd" stroke="none"/>
    <path d="M-7.45 -2.7 Q-7.45 -2.6 -7.65 -2.6 L-7.8 -2.6 -7.85 -2.7 -7.65 -2.8 -7.5 -2.8 -7.45 -2.7" fill="#000000" fill-opacity="0.09803922" fill-rule="evenodd" stroke="none"/>
    <path d="M1.45 -3.45 L1.3 -3.3 1.15 -3.3 1.05 -3.4 1.25 -3.55 1.4 -3.5 1.45 -3.45" fill="#000000" fill-opacity="0.09803922" fill-rule="evenodd" stroke="none"/>
    <path d="M0.3 -2.65 L0.05 -2.5 -0.2 -2.6 -0.15 -2.75 0.05 -2.8 0.2 -2.75 0.3 -2.65" fill="#000000" fill-opacity="0.09803922" fill-rule="evenodd" stroke="none"/>
    <path d="M1.2 -3.15 L0.9 -2.95 0.65 -2.95 Q0.55 -2.95 0.55 -3.0 L0.65 -3.15 0.85 -3.2 1.1 -3.2 1.2 -3.15" fill="#000000" fill-opacity="0.09803922" fill-rule="evenodd" stroke="none"/>
    <path d="M3.1 -3.65 L3.0 -3.5 2.75 -3.45 2.5 -3.4 2.4 -3.5 2.5 -3.65 2.7 -3.7 2.95 -3.7 3.1 -3.65" fill="#000000" fill-opacity="0.09803922" fill-rule="evenodd" stroke="none"/>
    <path d="M5.65 -3.6 L5.5 -3.45 Q5.3 -3.4 5.25 -3.55 L5.45 -3.7 5.65 -3.6" fill="#000000" fill-opacity="0.09803922" fill-rule="evenodd" stroke="none"/>
    <path d="M1.0 -2.2 L0.8 -2.05 0.65 -2.05 0.6 -2.1 0.8 -2.25 1.0 -2.2" fill="#000000" fill-opacity="0.09803922" fill-rule="evenodd" stroke="none"/>
    <path d="M-1.85 -1.7 L-2.0 -1.55 Q-2.25 -1.5 -2.25 -1.65 L-2.05 -1.8 -1.9 -1.75 -1.85 -1.7" fill="#000000" fill-opacity="0.09803922" fill-rule="evenodd" stroke="none"/>
    <path d="M-7.9 -1.85 L-8.05 -1.75 -8.3 -1.65 -8.55 -1.7 -8.7 -1.8 -8.6 -1.9 -8.3 -2.0 -8.05 -1.95 -7.9 -1.85" fill="#000000" fill-opacity="0.09803922" fill-rule="evenodd" stroke="none"/>
    <path d="M-6.8 -1.9 Q-6.75 -1.8 -7.1 -1.75 L-7.5 -1.85 -7.4 -1.95 -7.15 -2.05 Q-6.8 -2.05 -6.8 -1.9" fill="#000000" fill-opacity="0.09803922" fill-rule="evenodd" stroke="none"/>
    <path d="M-4.9 -2.35 L-4.95 -2.25 -5.1 -2.2 Q-5.3 -2.2 -5.3 -2.3 L-5.1 -2.45 -4.95 -2.4 -4.9 -2.35" fill="#000000" fill-opacity="0.09803922" fill-rule="evenodd" stroke="none"/>
    <path d="M-4.8 -1.2 L-4.85 -1.15 -5.0 -1.1 Q-5.2 -1.05 -5.2 -1.2 L-5.0 -1.35 -4.85 -1.3 -4.8 -1.2" fill="#000000" fill-opacity="0.09803922" fill-rule="evenodd" stroke="none"/>
    <path d="M-6.4 -2.2 L-6.2 -2.35 -6.05 -2.35 -6.0 -2.25 -6.2 -2.1 -6.35 -2.15 -6.4 -2.2" fill="#000000" fill-opacity="0.09803922" fill-rule="evenodd" stroke="none"/>
    <path d="M-2.3 -2.5 Q-2.25 -2.35 -2.5 -2.35 -2.7 -2.35 -2.7 -2.45 L-2.5 -2.6 -2.35 -2.55 -2.3 -2.5" fill="#000000" fill-opacity="0.09803922" fill-rule="evenodd" stroke="none"/>
    <path d="M-4.5 0.3 L-4.55 0.4 -4.75 0.5 -4.9 0.45 -5.0 0.35 -4.75 0.2 -4.5 0.3" fill="#000000" fill-opacity="0.09803922" fill-rule="evenodd" stroke="none"/>
    <path d="M-1.4 -0.15 L-1.75 0.05 -2.0 0.05 -2.1 -0.05 -1.8 -0.25 -1.4 -0.15" fill="#000000" fill-opacity="0.09803922" fill-rule="evenodd" stroke="none"/>
    <path d="M-2.75 -1.25 L-2.95 -1.1 -3.1 -1.1 -3.15 -1.15 -3.0 -1.35 -2.75 -1.25" fill="#000000" fill-opacity="0.09803922" fill-rule="evenodd" stroke="none"/>
    <path d="M-8.95 0.25 L-9.1 0.3 -9.35 0.3 -9.55 0.2 -9.65 0.05 -9.5 0.0 -9.25 0.0 -8.95 0.25" fill="#000000" fill-opacity="0.24705882" fill-rule="evenodd" stroke="none"/>
    <path d="M-7.05 0.55 L-7.25 0.6 -7.45 0.45 -7.2 0.4 -7.05 0.55" fill="#000000" fill-opacity="0.24705882" fill-rule="evenodd" stroke="none"/>
    <path d="M-7.35 1.65 L-7.45 1.7 -7.6 1.7 -7.75 1.6 -7.75 1.5 -7.55 1.45 -7.35 1.65" fill="#000000" fill-opacity="0.24705882" fill-rule="evenodd" stroke="none"/>
    <path d="M-8.95 -0.85 L-9.2 -0.8 -9.35 -1.0 -9.15 -1.05 -8.95 -0.85" fill="#000000" fill-opacity="0.24705882" fill-rule="evenodd" stroke="none"/>
    <path d="M-6.45 1.5 L-6.15 1.45 -6.0 1.55 -5.95 1.65 -6.05 1.75 -6.25 1.75 -6.4 1.65 -6.45 1.5" fill="#000000" fill-opacity="0.24705882" fill-rule="evenodd" stroke="none"/>
    <path d="M-8.3 1.75 L-8.35 1.85 -8.5 1.85 -8.7 1.7 -8.45 1.6 -8.3 1.75" fill="#000000" fill-opacity="0.24705882" fill-rule="evenodd" stroke="none"/>
    <path d="M-9.15 0.95 L-9.4 1.0 -9.55 0.85 -9.45 0.8 -9.3 0.8 -9.2 0.85 -9.15 0.95" fill="#000000" fill-opacity="0.24705882" fill-rule="evenodd" stroke="none"/>
    <path d="M-9.3 1.85 L-9.55 1.95 -9.7 1.75 -9.5 1.7 -9.3 1.85" fill="#000000" fill-opacity="0.24705882" fill-rule="evenodd" stroke="none"/>
    <path d="M-7.85 1.1 L-8.0 1.15 -8.2 1.15 -8.5 0.85 -8.35 0.8 -8.15 0.85 -7.9 0.95 -7.85 1.1" fill="#000000" fill-opacity="0.24705882" fill-rule="evenodd" stroke="none"/>
    <path d="M-6.75 2.45 L-6.6 2.65 -6.85 2.65 -6.95 2.45 -6.75 2.45" fill="#000000" fill-opacity="0.24705882" fill-rule="evenodd" stroke="none"/>
    <path d="M-7.6 3.35 L-7.8 3.25 -7.85 3.0 -7.7 3.0 -7.6 3.1 -7.6 3.35" fill="#000000" fill-opacity="0.24705882" fill-rule="evenodd" stroke="none"/>
    <path d="M-8.05 0.25 L-8.15 0.25 -8.25 0.15 -8.3 0.0 -8.3 -0.1 -8.05 0.0 -8.0 0.15 -8.05 0.25" fill="#000000" fill-opacity="0.24705882" fill-rule="evenodd" stroke="none"/>
    <path d="M-6.5 4.25 L-6.65 4.25 -6.75 4.15 -6.85 3.95 -6.8 3.85 Q-6.65 3.75 -6.5 3.95 L-6.5 4.25" fill="#000000" fill-opacity="0.24705882" fill-rule="evenodd" stroke="none"/>
    <path d="M-8.55 2.55 L-8.45 2.65 -8.35 2.8 -8.4 2.9 -8.5 2.9 -8.6 2.8 -8.7 2.65 -8.65 2.55 -8.55 2.55" fill="#000000" fill-opacity="0.24705882" fill-rule="evenodd" stroke="none"/>
    <path d="M-7.95 2.1 Q-8.05 2.15 -8.15 2.0 L-8.15 1.75 -7.95 1.85 -7.95 2.1" fill="#000000" fill-opacity="0.24705882" fill-rule="evenodd" stroke="none"/>
    <path d="M-9.25 2.3 L-9.45 2.25 -9.5 2.0 Q-9.4 1.9 -9.3 2.1 L-9.25 2.3" fill="#000000" fill-opacity="0.24705882" fill-rule="evenodd" stroke="none"/>
    <path d="M-5.6 -0.75 L-5.8 -0.6 Q-6.0 -0.55 -6.0 -0.7 L-5.8 -0.85 -5.65 -0.85 -5.6 -0.75" fill="#000000" fill-opacity="0.09803922" fill-rule="evenodd" stroke="none"/>
    <path d="M4.65 -3.65 L4.45 -3.45 Q4.2 -3.4 4.15 -3.55 L4.2 -3.65 4.4 -3.75 4.55 -3.75 4.65 -3.65" fill="#000000" fill-opacity="0.09803922" fill-rule="evenodd" stroke="none"/>
    <path d="M0.55 -0.7 L0.5 -0.55 0.25 -0.45 0.05 -0.4 -0.1 -0.5 -0.05 -0.6 0.2 -0.75 0.45 -0.75 0.55 -0.7" fill="#000000" fill-opacity="0.09803922" fill-rule="evenodd" stroke="none"/>
    <path d="M2.3 -1.55 L2.15 -1.35 1.9 -1.4 2.1 -1.6 2.25 -1.6 2.3 -1.55" fill="#000000" fill-opacity="0.09803922" fill-rule="evenodd" stroke="none"/>
    <path d="M3.15 -1.15 L3.0 -0.95 2.75 -1.0 2.9 -1.2 3.05 -1.2 3.15 -1.15" fill="#000000" fill-opacity="0.09803922" fill-rule="evenodd" stroke="none"/>
    <path d="M1.25 -1.2 L1.1 -1.05 0.85 -1.1 1.0 -1.25 1.25 -1.2" fill="#000000" fill-opacity="0.09803922" fill-rule="evenodd" stroke="none"/>
    <path d="M4.8 -2.3 L4.65 -2.15 4.4 -2.2 4.55 -2.35 4.7 -2.35 4.8 -2.3" fill="#000000" fill-opacity="0.09803922" fill-rule="evenodd" stroke="none"/>
    <path d="M3.8 -1.3 L3.8 -1.15 3.65 -1.05 3.45 -1.05 3.35 -1.15 3.4 -1.25 3.55 -1.35 3.7 -1.35 3.8 -1.3" fill="#000000" fill-opacity="0.09803922" fill-rule="evenodd" stroke="none"/>
    <path d="M4.65 -1.95 L4.6 -1.85 4.35 -1.7 4.15 -1.65 4.0 -1.7 4.05 -1.85 4.25 -1.95 4.65 -1.95" fill="#000000" fill-opacity="0.09803922" fill-rule="evenodd" stroke="none"/>
    <path d="M6.95 -1.8 L6.9 -1.65 6.7 -1.55 6.45 -1.5 Q6.35 -1.5 6.35 -1.55 L6.4 -1.65 6.6 -1.8 6.85 -1.85 6.95 -1.8" fill="#000000" fill-opacity="0.09803922" fill-rule="evenodd" stroke="none"/>
    <path d="M2.7 -2.5 L2.55 -2.3 2.35 -2.35 2.35 -2.45 2.5 -2.5 2.65 -2.55 2.7 -2.5" fill="#000000" fill-opacity="0.09803922" fill-rule="evenodd" stroke="none"/>
    <path d="M7.4 -3.2 L7.35 -3.1 7.25 -3.0 6.95 -3.0 7.1 -3.25 7.4 -3.2" fill="#000000" fill-opacity="0.09803922" fill-rule="evenodd" stroke="none"/>
  </g>
</svg>
