<?xml version="1.0" encoding="UTF-8" standalone="no"?>
<svg xmlns:xlink="http://www.w3.org/1999/xlink" height="31.6px" width="460.0px" xmlns="http://www.w3.org/2000/svg">
  <g transform="matrix(1.0, 0.0, 0.0, 1.0, 230.3, 15.8)">
    <path d="M-169.8 15.2 L-229.2 15.2 Q-216.3 0.45 -191.0 -8.35 -179.3 -12.4 -169.8 -13.95 L-169.8 0.8 -169.8 7.35 -169.8 15.2 M-172.2 -8.65 L-172.2 -11.25 Q-193.7 -5.85 -210.05 3.6 -215.15 6.6 -219.15 9.6 L-222.05 12.0 -217.55 12.75 Q-204.65 3.6 -187.1 -3.45 -178.35 -6.9 -172.2 -8.65" fill="#000000" fill-opacity="0.24705882" fill-rule="evenodd" stroke="none"/>
    <path d="M229.2 7.35 L229.2 15.3 -169.8 15.3 -169.8 15.2 -169.8 7.35 229.2 7.35" fill="#000000" fill-opacity="0.09803922" fill-rule="evenodd" stroke="none"/>
    <path d="M229.2 0.8 L229.2 7.35 -169.8 7.35 -169.8 0.8 229.2 0.8" fill="#000000" fill-opacity="0.2" fill-rule="evenodd" stroke="none"/>
    <path d="M229.2 -10.9 L229.2 0.8 -169.8 0.8 -169.8 -13.95 -169.8 -15.3 229.2 -15.3 229.2 -13.05 -166.95 -13.05 -166.95 -10.9 229.2 -10.9" fill="#ffffff" fill-opacity="0.0" fill-rule="evenodd" stroke="none"/>
    <path d="M229.2 -13.05 L229.2 -10.9 -166.95 -10.9 -166.95 -13.05 229.2 -13.05 M-172.2 -8.65 Q-178.35 -6.9 -187.1 -3.45 -204.65 3.6 -217.55 12.75 L-222.05 12.0 -219.15 9.6 Q-215.15 6.6 -210.05 3.6 -193.7 -5.85 -172.2 -11.25 L-172.2 -8.65" fill="#ffffff" fill-opacity="0.6" fill-rule="evenodd" stroke="none"/>
    <path d="M229.2 15.3 L-169.8 15.3 -169.8 15.2 -229.2 15.2 Q-216.3 0.45 -191.0 -8.35 -179.3 -12.4 -169.8 -13.95 L-169.8 -15.3 229.2 -15.3" fill="none" stroke="#000000" stroke-linecap="butt" stroke-linejoin="miter-clip" stroke-miterlimit="10.0" stroke-width="1.0"/>
    <path d="M-169.8 7.35 L-169.8 15.2 M-169.8 0.8 L-169.8 7.35 M-169.8 0.8 L-169.8 -13.95 M229.2 0.8 L-169.8 0.8" fill="none" stroke="#000000" stroke-linecap="butt" stroke-linejoin="miter-clip" stroke-miterlimit="10.0" stroke-opacity="0.6" stroke-width="1.0"/>
  </g>
</svg>
