<?xml version="1.0" encoding="UTF-8" standalone="no"?>
<svg xmlns:xlink="http://www.w3.org/1999/xlink" height="26.3px" width="79.25px" xmlns="http://www.w3.org/2000/svg">
  <g transform="matrix(1.0, 0.0, 0.0, 1.0, 39.6, 13.2)">
    <path d="M9.5 -8.65 L9.5 -11.15 -9.4 -11.15 -9.4 -8.65 9.5 -8.65 M35.35 -12.7 L35.35 -8.85 34.6 -7.45 Q33.35 -6.05 30.9 -6.05 L30.9 12.6 24.35 12.6 24.35 6.2 Q24.4 5.3 23.7 4.35 22.4 2.5 18.85 2.6 L11.3 2.55 18.85 2.6 Q22.4 2.5 23.7 4.35 24.4 5.3 24.35 6.2 L24.35 12.6 -24.25 12.6 -24.25 12.35 -24.25 12.6 -30.25 12.6 -30.25 -6.05 Q-32.8 -6.05 -34.0 -7.45 L-34.7 -8.85 -34.7 -12.7 35.35 -12.7 M30.9 -6.05 L-30.25 -6.05 30.9 -6.05 M11.3 2.55 L19.15 2.45 Q22.2 2.35 23.55 3.7 24.15 4.3 24.35 5.1 L24.45 5.8 24.45 12.35 24.9 12.35 24.9 5.8 24.8 5.0 Q24.55 4.1 23.9 3.4 22.4 1.9 19.15 1.95 L-18.95 1.95 Q-22.2 1.9 -23.7 3.4 -24.35 4.1 -24.6 5.0 L-24.7 5.8 -24.7 12.35 -24.25 12.35 -24.25 6.15 Q-24.25 5.25 -23.6 4.35 -22.3 2.5 -18.75 2.6 L-11.35 2.5 -18.75 2.6 Q-22.3 2.5 -23.6 4.35 -24.25 5.25 -24.25 6.15 L-24.25 5.8 -24.15 5.1 -23.35 3.7 Q-22.0 2.35 -18.95 2.45 L-11.35 2.5 3.75 2.5 11.3 2.55 M23.35 11.5 L23.35 5.65 -22.85 5.65 -22.85 11.5 23.35 11.5" fill="#ffffff" fill-opacity="0.0" fill-rule="evenodd" stroke="none"/>
    <path d="M36.9 -11.9 L38.45 -11.9 38.45 12.15 36.9 12.15 36.9 -11.9 M-24.25 12.35 L-24.7 12.35 -24.7 5.8 -24.6 5.0 Q-24.35 4.1 -23.7 3.4 -22.2 1.9 -18.95 1.95 L19.15 1.95 Q22.4 1.9 23.9 3.4 24.55 4.1 24.8 5.0 L24.9 5.8 24.9 12.35 24.45 12.35 24.45 5.8 24.35 5.1 Q24.15 4.3 23.55 3.7 22.2 2.35 19.15 2.45 L11.3 2.55 3.75 2.5 -11.35 2.5 -18.95 2.45 Q-22.0 2.35 -23.35 3.7 L-24.15 5.1 -24.25 5.8 -24.25 6.15 -24.25 12.35 M-38.2 -11.9 L-36.65 -11.9 -36.65 12.15 -38.2 12.15 -38.2 -11.9" fill="#ffffff" fill-opacity="0.6" fill-rule="evenodd" stroke="none"/>
    <path d="M36.9 -11.9 L36.9 12.15 38.45 12.15 38.45 -11.9 36.9 -11.9 M30.9 12.6 L30.9 -6.05 Q33.35 -6.05 34.6 -7.45 L35.35 -8.85 35.35 -12.7 39.15 -12.7 39.15 12.6 30.9 12.6 M-34.7 -12.7 L-34.7 -8.85 -34.0 -7.45 Q-32.8 -6.05 -30.25 -6.05 L-30.25 12.6 -39.1 12.6 -39.1 -12.7 -34.7 -12.7 M-38.2 -11.9 L-38.2 12.15 -36.65 12.15 -36.65 -11.9 -38.2 -11.9" fill="#ffffff" fill-opacity="0.2" fill-rule="evenodd" stroke="none"/>
    <path d="M9.5 -8.65 L-9.4 -8.65 -9.4 -11.15 9.5 -11.15 9.5 -8.65" fill="#000000" fill-opacity="0.2" fill-rule="evenodd" stroke="none"/>
    <path d="M23.35 11.5 L-22.85 11.5 -22.85 5.65 23.35 5.65 23.35 11.5" fill="#000000" fill-opacity="0.29803923" fill-rule="evenodd" stroke="none"/>
    <path d="M9.5 -8.65 L-9.4 -8.65 -9.4 -11.15 9.5 -11.15 9.5 -8.65 M35.35 -12.7 L35.35 -8.85 34.6 -7.45 Q33.35 -6.05 30.9 -6.05 L30.9 12.6 M-34.7 -12.7 L-34.7 -8.85 -34.0 -7.45 Q-32.8 -6.05 -30.25 -6.05 L30.9 -6.05 M11.3 2.55 L18.85 2.6 Q22.4 2.5 23.7 4.35 24.4 5.3 24.35 6.2 L24.35 12.6 M23.35 11.5 L-22.85 11.5 -22.85 5.65 23.35 5.65 23.35 11.5 M3.75 2.5 L11.3 2.55 M-30.25 12.6 L-30.25 -6.05 M-24.25 6.15 Q-24.25 5.25 -23.6 4.35 -22.3 2.5 -18.75 2.6 L-11.35 2.5 3.75 2.5 M-24.25 6.15 L-24.25 12.35 -24.25 12.6" fill="none" stroke="#000000" stroke-linecap="butt" stroke-linejoin="miter-clip" stroke-miterlimit="10.0" stroke-opacity="0.6" stroke-width="1.0"/>
    <path d="M30.9 12.6 L39.15 12.6 39.15 -12.7 35.35 -12.7 -34.7 -12.7 -39.1 -12.7 -39.1 12.6 -30.25 12.6 -24.25 12.6 24.35 12.6 30.9 12.6" fill="none" stroke="#000000" stroke-linecap="butt" stroke-linejoin="miter-clip" stroke-miterlimit="10.0" stroke-width="1.0"/>
  </g>
</svg>
