<?xml version="1.0" encoding="UTF-8" standalone="no"?>
<svg xmlns:xlink="http://www.w3.org/1999/xlink" height="109.05px" width="138.05px" xmlns="http://www.w3.org/2000/svg">
  <g transform="matrix(1.0, 0.0, 0.0, 1.0, 69.0, 52.25)">
    <path d="M0.0 -48.7 L37.8 -51.3 Q64.75 -52.55 68.5 -50.35 L68.55 -39.15 Q68.4 -25.45 67.35 -12.85 63.95 27.55 52.95 41.75 51.1 44.1 44.1 46.5 30.15 51.35 4.65 51.75 L-4.65 51.75 Q-30.1 51.35 -44.1 46.5 -48.45 45.0 -51.15 43.2 L-52.95 41.75 Q-63.95 27.55 -67.3 -12.85 -68.35 -25.45 -68.5 -39.15 L-68.45 -50.35 Q-64.7 -52.55 -37.75 -51.3 L0.0 -48.7" fill="#ffffff" fill-opacity="0.0" fill-rule="evenodd" stroke="none"/>
    <path d="M0.0 -48.7 L37.8 -51.3 Q64.75 -52.55 68.5 -50.35 L68.55 -39.15 Q68.4 -25.45 67.35 -12.85 63.95 27.55 52.95 41.75 52.0 42.95 49.0 44.45 42.9 47.55 32.45 49.4 35.65 43.75 37.45 37.65 41.35 24.3 40.8 -8.3 L39.5 -38.25 Q11.65 -35.15 -26.2 -38.5 -48.4 -40.45 -68.55 -44.0 L-68.45 -50.35 Q-64.7 -52.55 -37.75 -51.3 L0.0 -48.7" fill="#000000" fill-opacity="0.2" fill-rule="evenodd" stroke="none"/>
    <path d="M0.0 -48.7 L-37.75 -51.3 Q-64.7 -52.55 -68.45 -50.35 L-68.5 -39.15 Q-68.35 -25.45 -67.3 -12.85 -63.95 27.55 -52.95 41.75 L-51.15 43.2 Q-48.45 45.0 -44.1 46.5 -30.1 51.35 -4.65 51.75 L4.65 51.75 Q30.15 51.35 44.1 46.5 51.1 44.1 52.95 41.75 63.95 27.55 67.35 -12.85 68.4 -25.45 68.55 -39.15 L68.5 -50.35 Q64.75 -52.55 37.8 -51.3 L0.0 -48.7 Z" fill="none" stroke="#000000" stroke-linecap="butt" stroke-linejoin="miter-clip" stroke-miterlimit="10.0" stroke-width="1.0"/>
    <path d="M-64.2 -21.85 Q-62.05 -21.2 -60.35 -23.0 L-59.05 -24.95 Q-59.9 -7.9 -55.25 18.2 -52.9 31.3 -50.4 40.95 -58.4 31.45 -62.1 3.85 -63.25 -4.75 -63.85 -14.15 L-64.2 -21.85" fill="#ffffff" fill-opacity="0.6" fill-rule="evenodd" stroke="none"/>
  </g>
</svg>
