<?xml version="1.0" encoding="UTF-8" standalone="no"?>
<svg xmlns:xlink="http://www.w3.org/1999/xlink" height="20.8px" width="27.5px" xmlns="http://www.w3.org/2000/svg">
  <g transform="matrix(1.0, 0.0, 0.0, 1.0, 12.95, 10.25)">
    <path d="M-12.15 0.3 Q-11.35 -1.4 -8.55 -2.85 L-4.7 -4.4 5.8 -4.4 5.8 -7.15 5.85 -7.55 Q6.05 -8.25 7.0 -9.0 L7.9 -9.6 12.4 -4.4 12.4 9.2 9.55 9.55 Q7.0 9.35 6.05 7.1 L7.55 7.15 7.55 1.05 -12.15 0.3 M7.55 0.95 L7.55 1.05 7.55 0.95 Q6.7 -0.8 5.8 -4.4 6.7 -0.8 7.55 0.95 M12.4 -4.4 Q5.9 -5.25 5.8 -7.15 5.9 -5.25 12.4 -4.4" fill="#ffffff" fill-opacity="0.0" fill-rule="evenodd" stroke="none"/>
    <path d="M6.05 7.1 L-1.35 6.75 -11.25 6.1 Q-12.25 5.85 -12.35 5.25 L-12.45 1.65 -12.15 0.3 7.55 1.05 7.55 7.15 6.05 7.1" fill="#000000" fill-opacity="0.2" fill-rule="evenodd" stroke="none"/>
    <path d="M7.55 1.05 L7.55 0.95 M7.55 7.15 L7.55 1.05" fill="none" stroke="#000000" stroke-linecap="round" stroke-linejoin="round" stroke-opacity="0.6" stroke-width="1.0"/>
    <path d="M-12.15 0.3 Q-11.35 -1.4 -8.55 -2.85 L-4.7 -4.4 5.8 -4.4 5.8 -7.15 5.85 -7.55 Q6.05 -8.25 7.0 -9.0 L7.9 -9.6 12.4 -4.4 12.4 9.2 9.55 9.55 Q7.0 9.35 6.05 7.1 L-1.35 6.75 -11.25 6.1 Q-12.25 5.85 -12.35 5.25 L-12.45 1.65 -12.15 0.3" fill="none" stroke="#000000" stroke-linecap="round" stroke-linejoin="miter-clip" stroke-miterlimit="10.0" stroke-width="1.0"/>
    <path d="M-12.15 0.3 L7.55 1.05 M5.8 -7.15 Q5.9 -5.25 12.4 -4.4" fill="none" stroke="#000000" stroke-linecap="round" stroke-linejoin="miter-clip" stroke-miterlimit="10.0" stroke-opacity="0.6" stroke-width="1.0"/>
    <path d="M7.55 0.95 Q6.7 -0.8 5.8 -4.4" fill="none" stroke="#000000" stroke-linecap="butt" stroke-linejoin="miter-clip" stroke-miterlimit="10.0" stroke-opacity="0.6" stroke-width="1.0"/>
    <path d="M6.05 7.1 L7.55 7.15" fill="none" stroke="#000000" stroke-linecap="round" stroke-linejoin="miter-clip" stroke-miterlimit="10.0" stroke-width="1.0"/>
  </g>
</svg>
