<?xml version="1.0" encoding="UTF-8" standalone="no"?>
<svg xmlns:xlink="http://www.w3.org/1999/xlink" height="151.5px" width="247.1px" xmlns="http://www.w3.org/2000/svg">
  <g transform="matrix(1.0, 0.0, 0.0, 1.0, 123.55, 75.75)">
    <path d="M62.35 -75.25 L118.95 -75.25 118.95 75.25 62.35 75.25 62.35 -75.25 M60.75 75.25 L59.95 75.25 59.95 54.7 59.95 37.75 59.95 -31.05 59.95 -48.0 59.95 -75.25 60.75 -75.25 60.75 75.25 M-122.2 75.25 L-123.05 75.25 -123.05 -75.25 -122.2 -75.25 -122.2 75.25 M-120.65 -75.25 L-63.95 -75.25 -63.95 75.25 -120.65 75.25 -120.65 -75.25" fill="#ffffff" fill-opacity="0.0" fill-rule="evenodd" stroke="none"/>
    <path d="M118.95 -75.25 L123.05 -75.25 123.05 75.25 118.95 75.25 118.95 -75.25 M59.95 54.7 L56.85 54.7 56.85 37.75 59.95 37.75 59.95 54.7 M59.95 -31.05 L56.85 -31.05 56.85 -48.0 59.95 -48.0 59.95 -31.05 M-63.95 -75.25 L-59.9 -75.25 -59.9 -48.0 -57.1 -48.0 -57.1 -31.05 -59.9 -31.05 -59.9 37.75 -57.1 37.75 -57.1 54.7 -59.9 54.7 -59.9 75.25 -63.95 75.25 -63.95 -75.25 M-59.9 37.75 L-59.9 54.7 -59.9 37.75 M-59.9 -31.05 L-59.9 -48.0 -59.9 -31.05" fill="#000000" fill-opacity="0.2" fill-rule="evenodd" stroke="none"/>
    <path d="M60.75 -75.25 L62.35 -75.25 62.35 75.25 60.75 75.25 60.75 -75.25 M-122.2 -75.25 L-120.65 -75.25 -120.65 75.25 -122.2 75.25 -122.2 -75.25" fill="#ffffff" fill-opacity="0.6" fill-rule="evenodd" stroke="none"/>
    <path d="M60.75 -75.25 L62.35 -75.25 118.95 -75.25 123.05 -75.25 123.05 75.25 118.95 75.25 62.35 75.25 60.75 75.25 59.95 75.25 M59.95 -75.25 L60.75 -75.25 M-122.2 75.25 L-123.05 75.25 -123.05 -75.25 -122.2 -75.25 -120.65 -75.25 -63.95 -75.25 -59.9 -75.25 M-59.9 75.25 L-63.95 75.25 -120.65 75.25 -122.2 75.25" fill="none" stroke="#000000" stroke-linecap="butt" stroke-linejoin="miter-clip" stroke-miterlimit="10.0" stroke-width="1.0"/>
    <path d="M-59.9 -75.25 L-59.9 -48.0 -57.1 -48.0 -57.1 -31.05 -59.9 -31.05 -59.9 37.75 -57.1 37.75 -57.1 54.7 -59.9 54.7 -59.9 75.25 M-59.9 -48.0 L-59.9 -31.05 M-59.9 54.7 L-59.9 37.75" fill="none" stroke="#000000" stroke-linecap="butt" stroke-linejoin="miter-clip" stroke-miterlimit="10.0" stroke-opacity="0.6" stroke-width="1.0"/>
    <path d="M59.95 75.25 L59.95 54.7 59.95 37.75 M59.95 -31.05 L59.95 -48.0" fill="none" stroke="#000000" stroke-linecap="butt" stroke-linejoin="miter-clip" stroke-miterlimit="10.0" stroke-opacity="0.6" stroke-width="1.0"/>
    <path d="M59.95 54.7 L56.85 54.7 56.85 37.75 59.95 37.75 59.95 -31.05 56.85 -31.05 56.85 -48.0 59.95 -48.0" fill="none" stroke="#000000" stroke-linecap="round" stroke-linejoin="miter-clip" stroke-miterlimit="10.0" stroke-opacity="0.6" stroke-width="1.0"/>
    <path d="M59.95 -48.0 L59.95 -75.25" fill="none" stroke="#000000" stroke-linecap="round" stroke-linejoin="miter-clip" stroke-miterlimit="10.0" stroke-opacity="0.6" stroke-width="1.0"/>
  </g>
</svg>
