<?xml version="1.0" encoding="UTF-8" standalone="no"?>
<svg xmlns:xlink="http://www.w3.org/1999/xlink" height="7.25px" width="6.8px" xmlns="http://www.w3.org/2000/svg">
  <g transform="matrix(1.0, 0.0, 0.0, 1.0, 3.4, 3.65)">
    <path d="M2.65 -2.95 L2.9 -2.35 2.65 -1.8 2.1 -1.6 -2.15 -1.6 -2.7 -1.8 -2.9 -2.35 -2.7 -2.95 -2.15 -3.15 2.1 -3.15 2.65 -2.95" fill="#ffffff" fill-opacity="0.0" fill-rule="evenodd" stroke="none"/>
    <path d="M2.65 -2.95 L2.9 -2.35 2.65 -1.8 2.1 -1.6 -2.15 -1.6 -2.7 -1.8 -2.9 -2.35 -2.7 -2.95 -2.15 -3.15 2.1 -3.15 2.65 -2.95 Z" fill="none" stroke="#000000" stroke-linecap="butt" stroke-linejoin="miter-clip" stroke-miterlimit="10.0" stroke-opacity="0.6" stroke-width="1.0"/>
    <path d="M-2.7 2.9 L-2.9 2.35 -2.7 1.8 -2.15 1.55 2.1 1.55 Q2.4 1.55 2.65 1.8 L2.9 2.35 2.65 2.9 2.1 3.1 -2.15 3.1 -2.7 2.9" fill="#000000" fill-opacity="0.2" fill-rule="evenodd" stroke="none"/>
    <path d="M-2.7 2.9 L-2.9 2.35 -2.7 1.8 -2.15 1.55 2.1 1.55 Q2.4 1.55 2.65 1.8 L2.9 2.35 2.65 2.9 2.1 3.1 -2.15 3.1 -2.7 2.9 Z" fill="none" stroke="#000000" stroke-linecap="butt" stroke-linejoin="miter-clip" stroke-miterlimit="10.0" stroke-opacity="0.6" stroke-width="1.0"/>
  </g>
</svg>
