<?xml version="1.0" encoding="UTF-8" standalone="no"?>
<svg xmlns:xlink="http://www.w3.org/1999/xlink" height="100.6px" width="42.4px" xmlns="http://www.w3.org/2000/svg">
  <g transform="matrix(1.0, 0.0, 0.0, 1.0, 21.2, 50.3)">
    <path d="M20.7 -28.5 Q20.55 -35.25 14.65 -40.1 8.6 -45.0 0.0 -45.0 -8.6 -45.0 -14.65 -40.1 -20.55 -35.25 -20.7 -28.5 L-20.7 -33.0 Q-20.7 -39.95 -14.65 -44.9 -8.6 -49.8 0.0 -49.8 8.6 -49.8 14.65 -44.9 20.7 -39.95 20.7 -33.0 L20.7 -28.5" fill="#000000" fill-opacity="0.2" fill-rule="evenodd" stroke="none"/>
    <path d="M-20.7 -28.5 Q-20.55 -35.25 -14.65 -40.1 -8.6 -45.0 0.0 -45.0 8.6 -45.0 14.65 -40.1 20.55 -35.25 20.7 -28.5 L20.7 49.8 -20.7 49.8 -20.7 -28.5 M-17.4 -33.5 L-18.05 -31.65 Q-13.7 -38.0 -5.2 -41.45 -1.0 -43.15 2.35 -43.65 -8.8 -43.65 -14.5 -37.65 -16.3 -35.75 -17.4 -33.5" fill="#ffffff" fill-opacity="0.0" fill-rule="evenodd" stroke="none"/>
    <path d="M-17.4 -33.5 Q-16.3 -35.75 -14.5 -37.65 -8.8 -43.65 2.35 -43.65 -1.0 -43.15 -5.2 -41.45 -13.7 -38.0 -18.05 -31.65 L-17.4 -33.5" fill="#ffffff" fill-opacity="0.6" fill-rule="evenodd" stroke="none"/>
    <path d="M-20.7 -28.5 Q-20.55 -35.25 -14.65 -40.1 -8.6 -45.0 0.0 -45.0 8.6 -45.0 14.65 -40.1 20.55 -35.25 20.7 -28.5" fill="none" stroke="#000000" stroke-linecap="butt" stroke-linejoin="miter-clip" stroke-miterlimit="10.0" stroke-opacity="0.6" stroke-width="1.0"/>
    <path d="M20.7 -28.5 L20.7 -33.0 Q20.7 -39.95 14.65 -44.9 8.6 -49.8 0.0 -49.8 -8.6 -49.8 -14.65 -44.9 -20.7 -39.95 -20.7 -33.0 L-20.7 -28.5 -20.7 49.8 20.7 49.8 20.7 -28.5" fill="none" stroke="#000000" stroke-linecap="round" stroke-linejoin="miter-clip" stroke-miterlimit="10.0" stroke-width="1.0"/>
  </g>
</svg>
