<?xml version="1.0" encoding="UTF-8" standalone="no"?>
<svg xmlns:xlink="http://www.w3.org/1999/xlink" height="293.5px" width="172.75px" xmlns="http://www.w3.org/2000/svg">
  <g transform="matrix(1.0, 0.0, 0.0, 1.0, 86.35, 146.75)">
    <path d="M-85.85 -117.6 L-85.85 -146.25 85.9 -146.25 85.9 -117.6 -85.85 -117.6" fill="#ffffff" fill-opacity="0.0" fill-rule="evenodd" stroke="none"/>
    <path d="M-85.85 -117.6 L85.9 -117.6 85.9 -146.25 -85.85 -146.25 -85.85 -117.6 Z" fill="none" stroke="#000000" stroke-linecap="butt" stroke-linejoin="miter-clip" stroke-miterlimit="10.0" stroke-width="1.0"/>
    <path d="M-85.85 88.3 L85.9 88.3 85.9 146.25 -85.85 146.25 -85.85 88.3" fill="#ffffff" fill-opacity="0.0" fill-rule="evenodd" stroke="none"/>
    <path d="M-85.85 88.3 L-85.85 146.25 85.9 146.25 85.9 88.3 -85.85 88.3 Z" fill="none" stroke="#000000" stroke-linecap="butt" stroke-linejoin="miter-clip" stroke-miterlimit="10.0" stroke-width="1.0"/>
    <path d="M26.2 -123.95 L-24.05 -123.95 -24.05 -133.0 26.2 -133.0 26.2 -123.95" fill="#ffffff" fill-opacity="0.49803922" fill-rule="evenodd" stroke="none"/>
    <path d="M26.2 -123.95 L-24.05 -123.95 -24.05 -133.0 26.2 -133.0 26.2 -123.95 Z" fill="none" stroke="#000000" stroke-linecap="butt" stroke-linejoin="miter-clip" stroke-miterlimit="10.0" stroke-opacity="0.6" stroke-width="1.0"/>
    <path d="M-84.8 -145.2 L84.45 -145.2 84.45 -143.45 -84.8 -143.45 -84.8 -145.2" fill="#ffffff" fill-opacity="0.6" fill-rule="evenodd" stroke="none"/>
    <path d="M-84.8 88.8 L84.45 88.8 84.45 90.55 -84.8 90.55 -84.8 88.8" fill="#ffffff" fill-opacity="0.6" fill-rule="evenodd" stroke="none"/>
  </g>
</svg>
