<?xml version="1.0" encoding="UTF-8" standalone="no"?>
<svg xmlns:xlink="http://www.w3.org/1999/xlink" height="153.1px" width="83.6px" xmlns="http://www.w3.org/2000/svg">
  <g transform="matrix(1.0, 0.0, 0.0, 1.0, 41.8, 76.55)">
    <path d="M25.1 -73.75 Q28.3 -72.8 30.9 -71.2 40.55 -65.1 41.15 -49.45 41.9 -30.05 39.3 7.55 36.0 55.3 29.55 64.95 L27.15 67.95 Q22.7 72.45 15.2 74.55 8.45 76.35 0.0 76.0 -8.45 76.35 -15.2 74.55 -21.25 72.85 -25.35 69.55 -27.8 67.55 -29.55 64.95 -36.0 55.3 -39.3 7.55 -41.9 -30.05 -41.15 -49.45 -40.5 -66.2 -29.5 -71.95 -27.5 -73.05 -25.1 -73.75 -19.65 -75.35 -10.15 -75.85 L0.0 -76.0 10.15 -75.85 Q19.65 -75.35 25.1 -73.75" fill="#ffffff" fill-opacity="0.0" fill-rule="evenodd" stroke="none"/>
    <path d="M11.65 -74.45 Q9.75 -75.4 8.1 -75.95 19.05 -75.55 25.1 -73.75 40.4 -69.3 41.15 -49.45 41.9 -30.05 39.3 7.55 36.0 55.3 29.55 64.95 24.95 71.85 15.2 74.55 8.45 76.35 0.0 76.0 L-12.2 75.2 -4.25 73.85 Q0.35 72.9 3.7 71.25 10.3 68.15 11.9 67.0 17.05 63.3 13.25 60.0 L17.9 55.85 Q19.45 53.7 19.2 49.7 22.6 48.75 21.8 45.4 L21.0 42.6 Q20.55 40.95 20.8 40.05 21.05 39.25 22.75 37.9 24.2 36.75 24.1 34.7 24.05 33.45 23.3 31.9 L22.05 29.4 Q25.05 27.8 25.2 25.15 25.4 22.55 22.8 20.2 25.85 18.6 25.0 15.3 23.35 11.4 22.9 9.5 26.3 7.6 25.05 5.4 22.75 1.55 22.8 0.3 22.85 -0.85 24.0 -2.3 25.15 -3.8 25.25 -5.05 25.35 -6.6 24.4 -8.4 23.4 -10.25 22.15 -10.9 L24.35 -12.75 Q25.5 -13.8 25.75 -15.05 26.05 -16.65 24.8 -18.15 23.3 -19.95 23.15 -20.75 23.0 -21.55 25.1 -25.95 26.65 -29.15 23.75 -30.45 L25.25 -32.8 Q26.25 -34.4 26.15 -35.35 26.0 -36.6 24.45 -37.55 22.9 -38.5 22.8 -39.5 22.7 -40.3 24.1 -42.0 25.45 -43.7 25.35 -44.9 25.25 -46.2 24.05 -47.45 22.95 -48.6 21.65 -49.15 26.45 -54.95 22.2 -63.35 18.5 -70.75 11.65 -74.45" fill="#000000" fill-opacity="0.2" fill-rule="evenodd" stroke="none"/>
    <path d="M-40.5 -55.55 L-33.65 -56.55 -15.55 -58.2 Q14.6 -60.0 40.5 -55.5" fill="none" stroke="#000000" stroke-linecap="butt" stroke-linejoin="miter-clip" stroke-miterlimit="10.0" stroke-opacity="0.6" stroke-width="1.0"/>
    <path d="M-41.2 -46.05 L-34.15 -47.05 -15.55 -48.75 Q15.3 -50.55 41.2 -46.05" fill="none" stroke="#000000" stroke-linecap="butt" stroke-linejoin="miter-clip" stroke-miterlimit="10.0" stroke-opacity="0.6" stroke-width="1.0"/>
    <path d="M-41.15 -36.75 L-34.1 -37.7 -15.55 -39.25 Q15.25 -40.9 41.15 -36.4" fill="none" stroke="#000000" stroke-linecap="butt" stroke-linejoin="miter-clip" stroke-miterlimit="10.0" stroke-opacity="0.6" stroke-width="1.0"/>
    <path d="M-40.95 -27.35 L-34.0 -28.35 -15.55 -30.05 Q15.05 -31.8 40.95 -27.35" fill="none" stroke="#000000" stroke-linecap="butt" stroke-linejoin="miter-clip" stroke-miterlimit="10.0" stroke-opacity="0.6" stroke-width="1.0"/>
    <path d="M-40.65 -17.85 L-33.8 -18.85 -15.55 -20.55 Q14.75 -22.35 40.65 -17.85" fill="none" stroke="#000000" stroke-linecap="butt" stroke-linejoin="miter-clip" stroke-miterlimit="10.0" stroke-opacity="0.6" stroke-width="1.0"/>
    <path d="M-40.2 -8.6 L-33.45 -9.6 -15.55 -11.25 Q14.3 -13.05 40.2 -8.55" fill="none" stroke="#000000" stroke-linecap="butt" stroke-linejoin="miter-clip" stroke-miterlimit="10.0" stroke-opacity="0.6" stroke-width="1.0"/>
    <path d="M-39.7 0.85 L-15.95 -0.6 Q13.1 -1.55 39.7 0.85" fill="none" stroke="#000000" stroke-linecap="butt" stroke-linejoin="miter-clip" stroke-miterlimit="10.0" stroke-opacity="0.6" stroke-width="1.0"/>
    <path d="M-39.1 10.25 L-16.5 10.45 Q11.65 10.6 39.1 10.25" fill="none" stroke="#000000" stroke-linecap="butt" stroke-linejoin="miter-clip" stroke-miterlimit="10.0" stroke-opacity="0.6" stroke-width="1.0"/>
    <path d="M-38.35 19.15 L-16.8 20.35 Q10.4 21.15 38.35 19.25" fill="none" stroke="#000000" stroke-linecap="butt" stroke-linejoin="miter-clip" stroke-miterlimit="10.0" stroke-opacity="0.6" stroke-width="1.0"/>
    <path d="M-37.4 29.05 L-16.1 30.2 Q10.55 30.95 37.4 29.05" fill="none" stroke="#000000" stroke-linecap="butt" stroke-linejoin="miter-clip" stroke-miterlimit="10.0" stroke-opacity="0.6" stroke-width="1.0"/>
    <path d="M-36.2 39.0 L-15.55 40.15 Q10.3 40.9 36.2 39.0" fill="none" stroke="#000000" stroke-linecap="butt" stroke-linejoin="miter-clip" stroke-miterlimit="10.0" stroke-opacity="0.6" stroke-width="1.0"/>
    <path d="M-34.55 48.95 L-14.95 50.1 Q9.65 50.85 34.55 48.95" fill="none" stroke="#000000" stroke-linecap="butt" stroke-linejoin="miter-clip" stroke-miterlimit="10.0" stroke-opacity="0.6" stroke-width="1.0"/>
    <path d="M-32.15 58.9 L-13.95 60.1 Q8.95 60.95 32.15 59.05" fill="none" stroke="#000000" stroke-linecap="butt" stroke-linejoin="miter-clip" stroke-miterlimit="10.0" stroke-opacity="0.6" stroke-width="1.0"/>
    <path d="M-29.35 -72.05 Q-40.5 -66.3 -41.15 -49.45 -41.9 -30.05 -39.3 7.55 -36.0 55.3 -29.55 64.95 -27.85 67.5 -25.45 69.5 M26.9 68.2 L29.55 64.95 Q36.0 55.3 39.3 7.55 41.9 -30.05 41.15 -49.45 40.55 -65.2 30.8 -71.25" fill="none" stroke="#000000" stroke-linecap="butt" stroke-linejoin="miter-clip" stroke-miterlimit="10.0" stroke-width="1.0"/>
    <path d="M30.8 -71.25 Q28.25 -72.85 25.1 -73.75 19.65 -75.35 10.15 -75.85 L0.0 -76.0 -10.15 -75.85 Q-19.65 -75.35 -25.1 -73.75 -27.4 -73.1 -29.35 -72.05 M-25.45 69.5 L-25.1 69.75 Q-21.8 72.4 -17.15 73.95 L-15.2 74.55 Q-8.45 76.35 0.0 76.0 8.45 76.35 15.2 74.55 22.5 72.55 26.9 68.2" fill="none" stroke="#000000" stroke-linecap="butt" stroke-linejoin="miter-clip" stroke-miterlimit="10.0" stroke-opacity="0.6" stroke-width="1.0"/>
    <path d="M-26.75 -69.35 Q-32.25 -64.5 -32.95 -58.3 L-37.4 -58.0 -36.8 -59.9 Q-35.9 -62.25 -34.45 -64.35 -29.8 -71.05 -21.35 -72.95 -23.95 -71.75 -26.75 -69.35" fill="#ffffff" fill-opacity="0.6" fill-rule="evenodd" stroke="none"/>
  </g>
</svg>
