<?xml version="1.0" encoding="UTF-8" standalone="no"?>
<svg xmlns:xlink="http://www.w3.org/1999/xlink" height="29.85px" width="67.1px" xmlns="http://www.w3.org/2000/svg">
  <g transform="matrix(1.0, 0.0, 0.0, 1.0, 33.55, 15.15)">
    <path d="M-27.75 -7.55 L-27.5 -7.45 Q-28.8 -7.1 -29.85 -8.0 -30.75 -8.75 -31.0 -10.1 -31.25 -11.45 -30.65 -12.5 -29.95 -13.65 -28.5 -13.8 -26.65 -14.0 -25.0 -13.0 -23.2 -11.95 -22.9 -10.2 -22.65 -8.95 -23.3 -7.8 L-24.75 -7.45 -23.3 -7.8 -23.2 -7.8 -21.35 -7.4 Q-20.6 -6.9 -20.85 -5.9 L-21.7 -6.4 -22.7 -6.4 Q-21.85 -6.3 -22.2 -5.0 -22.5 -5.55 -23.1 -5.8 -24.25 -6.35 -25.7 -5.0 -27.35 -3.4 -26.0 -2.55 -24.7 -1.7 -22.6 -2.6 -20.9 -3.25 -19.85 -4.05 L-19.2 -4.7 -19.15 -4.35 -18.75 -3.75 -17.9 -3.5 -18.1 -3.25 -18.5 -2.95 -18.35 -2.0 -18.5 -2.95 -18.1 -3.25 -17.9 -3.5 -17.65 -4.05 -17.45 -4.95 Q-17.2 -6.1 -18.15 -6.45 L-19.1 -6.55 -19.1 -10.15 16.75 -10.15 13.1 -9.8 -18.5 -9.75 Q-14.2 -9.25 2.65 -9.45 L11.4 -9.6 -17.5 -6.8 -11.2 -6.55 -19.1 -6.55 -11.2 -6.55 12.6 -5.6 12.25 -4.7 Q11.95 -3.65 12.5 -3.0 L12.3 -2.65 11.65 -1.5 9.7 -0.95 Q7.5 -0.05 4.75 -0.05 2.05 -0.05 -0.15 -0.95 -2.05 -1.7 -4.45 -1.5 L-10.3 -0.55 -16.15 -0.9 -18.3 -1.9 -16.15 -0.9 -10.3 -0.55 -4.45 -1.5 Q-2.05 -1.7 -0.15 -0.95 2.05 -0.05 4.75 -0.05 7.5 -0.05 9.7 -0.95 L11.65 -1.5 11.6 -1.45 Q10.35 0.4 8.55 1.95 L7.1 3.1 5.7 4.0 Q3.25 5.4 0.3 6.1 L-3.9 6.75 -5.85 6.8 -6.65 6.65 -9.1 6.0 -10.15 5.6 Q-10.45 4.5 -11.2 3.45 L-11.65 3.1 -11.7 3.1 -13.95 3.25 Q-15.45 3.9 -15.7 5.6 L-14.2 7.1 Q-12.9 9.0 -13.9 10.7 L-14.9 11.9 -19.5 12.0 Q-17.9 11.9 -16.95 11.15 L-16.3 10.4 Q-15.3 9.0 -16.9 7.3 L-18.7 5.85 Q-19.25 3.6 -18.15 2.05 L-17.0 1.1 Q-18.45 -0.2 -19.45 -0.4 L-21.0 -0.3 Q-21.6 -0.15 -21.6 -1.05 L-21.5 -2.0 -23.05 -1.2 Q-24.9 -0.4 -26.4 -0.4 -27.75 -0.4 -27.65 -2.5 -27.45 -5.3 -27.7 -5.7 L-29.35 -5.75 -30.45 -4.8 Q-30.65 -6.4 -28.75 -6.85 -26.85 -7.3 -26.5 -5.9 -26.35 -6.55 -25.65 -7.0 L-25.55 -7.7 -25.6 -7.05 -25.25 -7.25 -24.75 -7.45 -24.5 -8.6 Q-24.2 -10.45 -26.25 -11.2 -28.25 -11.95 -29.1 -10.4 -29.65 -9.25 -28.95 -8.4 -28.55 -7.85 -27.75 -7.55 M23.4 -5.5 L22.6 -5.35 22.45 -5.25 22.25 -5.05 22.2 -5.0 22.1 -5.35 Q21.95 -6.3 22.7 -6.4 L21.7 -6.4 20.85 -5.9 Q20.6 -6.9 21.35 -7.4 22.0 -7.85 23.15 -7.8 L23.35 -7.8 Q22.65 -8.95 22.85 -10.2 23.2 -11.95 25.0 -13.0 26.65 -14.0 28.5 -13.8 29.95 -13.65 30.65 -12.5 31.25 -11.45 30.95 -10.1 30.75 -8.75 29.85 -8.0 28.85 -7.1 27.5 -7.45 L27.8 -7.55 28.95 -8.4 Q29.65 -9.25 29.1 -10.4 28.25 -11.95 26.25 -11.2 24.2 -10.45 24.5 -8.6 L24.55 -8.4 24.75 -7.45 25.25 -7.25 25.65 -7.0 Q25.4 -7.85 25.6 -8.4 25.45 -7.9 25.65 -7.0 L25.7 -7.0 Q26.35 -6.55 26.5 -5.9 26.85 -7.3 28.75 -6.85 30.65 -6.4 30.45 -4.8 L29.35 -5.75 27.7 -5.7 Q27.45 -5.3 27.65 -2.5 27.75 -0.4 26.4 -0.4 24.9 -0.4 23.05 -1.2 L21.5 -2.0 21.6 -1.05 Q21.6 -0.15 21.0 -0.3 L19.45 -0.4 Q18.45 -0.2 17.1 1.05 L17.0 1.15 18.05 2.05 Q19.2 3.6 18.65 5.85 L16.85 7.3 Q15.25 9.0 16.25 10.4 L16.85 11.15 Q17.85 11.9 19.45 12.0 L14.85 11.9 13.85 10.7 Q12.85 9.0 14.15 7.1 L15.65 5.6 Q15.35 3.9 13.9 3.25 L11.65 3.1 11.5 3.2 11.55 3.15 11.6 3.1 Q13.65 0.75 16.7 0.95 L16.8 0.95 16.85 1.0 17.25 0.35 18.0 -1.05 18.25 -1.8 18.3 -2.0 18.45 -2.95 18.05 -3.25 17.85 -3.5 Q18.4 -3.5 18.75 -3.75 L19.15 -4.35 19.2 -4.7 19.85 -4.05 Q20.9 -3.25 22.6 -2.6 24.7 -1.7 26.0 -2.55 27.35 -3.4 25.7 -5.0 24.25 -6.35 23.05 -5.8 L22.55 -5.35 22.45 -5.25 22.55 -5.35 23.4 -5.5 M27.9 -7.65 L27.95 -8.0 27.55 -8.8 27.45 -8.9 27.95 -8.15 27.9 -7.65 M-4.15 10.9 L-3.75 10.4 Q-3.65 10.05 -3.7 9.25 L-0.4 9.4 0.6 9.5 0.8 10.9 -4.15 10.9 M-3.85 8.3 L-4.1 7.1 -4.05 7.1 -3.95 7.6 -3.85 8.3 M-27.45 -8.9 L-27.55 -8.8 -27.95 -8.0 -27.85 -7.65 -27.95 -8.15 -27.45 -8.9 M-25.1 -12.4 L-29.75 -12.5 Q-30.45 -11.75 -30.45 -10.7 -29.55 -12.7 -27.25 -12.75 L-25.1 -12.4 M-25.65 -7.0 L-25.6 -7.05 -25.65 -7.0 M-27.3 -2.9 L-27.45 -1.75 Q-27.4 -0.6 -26.35 -0.7 L-23.75 -1.2 Q-22.45 -1.7 -20.45 -2.9 -21.65 -2.25 -23.05 -1.7 -25.8 -0.6 -26.7 -1.1 -27.25 -1.4 -27.35 -2.2 L-27.3 -2.9 M-16.85 1.0 L-17.0 1.1 -16.85 1.0 -17.3 0.35 Q-18.0 -0.75 -18.3 -1.9 -18.0 -0.75 -17.3 0.35 L-16.85 1.0 -16.85 0.95 -16.85 1.0 M-18.35 -2.0 L-18.3 -1.9 -18.35 -2.0 M-16.6 -5.2 Q-16.6 -4.15 -17.6 -3.3 L-16.5 -3.3 Q-16.05 -3.75 -15.85 -4.35 -15.45 -5.5 -16.8 -6.1 L-16.6 -5.2 M-18.5 -2.95 L-5.95 -2.55 Q4.35 -2.35 12.3 -2.65 4.35 -2.35 -5.95 -2.55 L-18.5 -2.95 M-10.45 -1.2 L-14.75 -1.3 -16.85 -1.75 Q-14.85 -0.1 -10.4 -0.85 -8.15 -1.2 -6.3 -1.95 L-10.45 -1.2 M6.75 -0.6 L10.25 -1.4 11.1 -1.8 6.8 -1.1 Q3.2 -0.7 1.25 -1.1 L2.15 -0.8 6.75 -0.6 M27.25 -12.75 Q29.55 -12.7 30.4 -10.7 30.4 -11.75 29.75 -12.5 L25.1 -12.4 27.25 -12.75 M24.75 -7.45 L24.4 -7.6 23.35 -7.8 24.4 -7.6 24.75 -7.45 M20.4 -2.9 Q22.45 -1.7 23.75 -1.2 L26.35 -0.7 Q27.4 -0.6 27.45 -1.75 L27.3 -2.9 27.35 -2.2 Q27.25 -1.4 26.7 -1.1 25.8 -0.6 23.0 -1.7 L20.4 -2.9 M17.0 1.15 L16.85 1.0 17.0 1.15 M17.35 2.1 L16.05 1.2 Q17.15 2.1 17.7 3.95 L18.05 5.6 Q18.55 3.45 17.35 2.1 M-16.35 1.45 L-16.1 1.2 -17.4 2.1 Q-18.6 3.45 -18.1 5.6 L-17.75 3.95 Q-17.3 2.4 -16.4 1.5 L-16.35 1.45 M-16.85 0.95 L-16.65 0.95 Q-13.65 0.75 -11.65 3.1 -13.65 0.75 -16.65 0.95 L-16.85 0.95" fill="#ffffff" fill-opacity="0.0" fill-rule="evenodd" stroke="none"/>
    <path d="M-25.1 -12.4 L-27.25 -12.75 Q-29.55 -12.7 -30.45 -10.7 -30.45 -11.75 -29.75 -12.5 L-25.1 -12.4 M-27.3 -2.9 L-27.35 -2.2 Q-27.25 -1.4 -26.7 -1.1 -25.8 -0.6 -23.05 -1.7 -21.65 -2.25 -20.45 -2.9 -22.45 -1.7 -23.75 -1.2 L-26.35 -0.7 Q-27.4 -0.6 -27.45 -1.75 L-27.3 -2.9 M-16.6 -5.2 L-16.8 -6.1 Q-15.45 -5.5 -15.85 -4.35 -16.05 -3.75 -16.5 -3.3 L-17.6 -3.3 Q-16.6 -4.15 -16.6 -5.2 M-10.45 -1.2 L-6.3 -1.95 Q-8.15 -1.2 -10.4 -0.85 -14.85 -0.1 -16.85 -1.75 L-14.75 -1.3 -10.45 -1.2 M11.4 -9.6 L2.65 -9.45 Q-14.2 -9.25 -18.5 -9.75 L13.1 -9.8 18.65 -9.8 11.4 -9.6 M6.75 -0.6 L2.15 -0.8 1.25 -1.1 Q3.2 -0.7 6.8 -1.1 L11.1 -1.8 10.25 -1.4 6.75 -0.6 M27.25 -12.75 L25.1 -12.4 29.75 -12.5 Q30.4 -11.75 30.4 -10.7 29.55 -12.7 27.25 -12.75 M20.4 -2.9 L23.0 -1.7 Q25.8 -0.6 26.7 -1.1 27.25 -1.4 27.35 -2.2 L27.3 -2.9 27.45 -1.75 Q27.4 -0.6 26.35 -0.7 L23.75 -1.2 Q22.45 -1.7 20.4 -2.9 M17.35 2.1 Q18.55 3.45 18.05 5.6 L17.7 3.95 Q17.15 2.1 16.05 1.2 L17.35 2.1 M-16.35 1.45 L-16.4 1.5 Q-17.3 2.4 -17.75 3.95 L-18.1 5.6 Q-18.6 3.45 -17.4 2.1 L-16.1 1.2 -16.35 1.45" fill="#ffffff" fill-opacity="0.6" fill-rule="evenodd" stroke="none"/>
    <path d="M-27.75 -7.55 Q-28.55 -7.85 -28.95 -8.4 -29.65 -9.25 -29.1 -10.4 -28.25 -11.95 -26.25 -11.2 -24.2 -10.45 -24.5 -8.6 L-24.75 -7.45 -25.25 -7.25 -25.6 -7.05 -25.55 -7.7 -25.55 -7.9 -25.75 -8.6 Q-26.45 -9.8 -27.45 -8.9 L-27.95 -8.15 -27.85 -7.65 -27.7 -7.55 -27.75 -7.55 M-22.2 -5.0 Q-22.7 -5.6 -23.4 -5.5 -24.05 -5.4 -24.45 -4.8 -24.9 -4.2 -24.65 -3.75 -24.4 -3.2 -23.3 -3.1 -22.0 -3.05 -20.65 -3.9 L-19.75 -5.0 Q-19.25 -5.8 -18.8 -5.8 -18.75 -4.35 -17.85 -4.1 L-17.65 -4.05 -17.9 -3.5 -18.75 -3.75 -19.15 -4.35 -19.2 -4.7 -19.85 -4.05 Q-20.9 -3.25 -22.6 -2.6 -24.7 -1.7 -26.0 -2.55 -27.35 -3.4 -25.7 -5.0 -24.25 -6.35 -23.1 -5.8 -22.5 -5.55 -22.2 -5.0 M16.75 -10.15 L19.05 -10.15 19.05 -6.55 18.55 -6.55 18.05 -6.45 Q17.15 -6.1 17.35 -4.95 L17.6 -4.05 17.85 -4.1 Q18.75 -4.35 18.75 -5.8 19.2 -5.8 19.75 -5.0 L20.65 -3.9 Q22.0 -3.05 23.3 -3.1 24.4 -3.2 24.65 -3.75 24.9 -4.2 24.45 -4.8 24.05 -5.4 23.4 -5.5 L22.55 -5.35 23.05 -5.8 Q24.25 -6.35 25.7 -5.0 27.35 -3.4 26.0 -2.55 24.7 -1.7 22.6 -2.6 20.9 -3.25 19.85 -4.05 L19.2 -4.7 19.15 -4.35 18.75 -3.75 Q18.4 -3.5 17.85 -3.5 L18.05 -3.25 18.45 -2.95 18.3 -2.0 18.25 -1.8 18.0 -1.05 17.15 -1.25 13.9 -1.7 11.65 -1.5 13.9 -1.7 17.15 -1.25 18.0 -1.05 17.25 0.35 16.85 1.0 16.8 0.95 16.7 0.95 Q13.65 0.75 11.6 3.1 L11.55 3.15 11.5 3.2 11.65 3.1 13.9 3.25 Q15.35 3.9 15.65 5.6 L14.15 7.1 Q12.85 9.0 13.85 10.7 L14.85 11.9 19.45 12.0 19.45 13.85 13.15 13.85 Q12.1 13.4 11.2 12.65 9.45 11.1 10.35 9.3 L11.1 8.3 11.4 7.8 11.6 7.35 11.55 6.9 10.7 6.05 10.1 5.6 9.05 6.0 8.5 6.2 6.55 6.65 5.7 6.85 2.7 7.2 2.45 8.3 Q2.2 9.9 2.35 10.4 L2.95 10.95 3.3 10.9 3.3 13.05 -4.7 13.05 -4.7 10.9 -4.35 10.95 -4.2 10.9 -4.15 10.9 0.8 10.9 0.6 9.5 -0.4 9.4 -3.7 9.25 -3.75 9.25 -3.85 8.3 -3.7 9.25 -3.85 8.3 -3.95 7.6 -4.05 7.1 -4.1 7.1 -6.05 6.8 -5.85 6.8 -3.9 6.75 0.3 6.1 Q3.25 5.4 5.7 4.0 L7.1 3.1 8.55 1.95 Q10.35 0.4 11.6 -1.45 L11.65 -1.5 12.3 -2.65 12.5 -3.0 Q11.95 -3.65 12.25 -4.7 L12.6 -5.6 -11.2 -6.55 -17.5 -6.8 11.4 -9.6 18.65 -9.8 13.1 -9.8 16.75 -10.15 M27.8 -7.55 L27.7 -7.55 27.85 -7.6 27.9 -7.65 27.95 -8.15 27.45 -8.9 27.25 -9.05 26.3 -9.05 25.9 -8.85 25.85 -8.8 25.7 -8.6 25.6 -8.4 25.5 -8.25 25.6 -8.4 Q25.4 -7.85 25.65 -7.0 L25.25 -7.25 24.75 -7.45 24.55 -8.4 24.5 -8.6 Q24.2 -10.45 26.25 -11.2 28.25 -11.95 29.1 -10.4 29.65 -9.25 28.95 -8.4 L27.8 -7.55 M30.45 -4.8 L28.8 -5.3 Q28.0 -5.3 28.15 -3.95 L28.7 -2.25 Q29.05 -1.2 28.6 -0.5 27.8 0.95 25.5 1.0 23.55 1.0 22.1 0.2 22.55 1.8 21.5 1.55 L19.5 0.7 19.25 0.65 Q18.2 0.5 17.1 1.05 18.45 -0.2 19.45 -0.4 L21.0 -0.3 Q21.6 -0.15 21.6 -1.05 L21.5 -2.0 23.05 -1.2 Q24.9 -0.4 26.4 -0.4 27.75 -0.4 27.65 -2.5 27.45 -5.3 27.7 -5.7 L29.35 -5.75 30.45 -4.8 M-10.15 5.6 L-10.75 6.05 -11.65 6.9 Q-11.85 7.25 -11.15 8.3 L-10.45 9.3 Q-9.5 11.1 -11.25 12.65 L-13.25 13.85 -19.5 13.85 -19.5 12.0 -14.9 11.9 -13.9 10.7 Q-12.9 9.0 -14.2 7.1 L-15.7 5.6 Q-15.45 3.9 -13.95 3.25 L-11.7 3.1 -11.65 3.1 -11.2 3.45 Q-10.45 4.5 -10.15 5.6 M-17.0 1.1 L-17.1 1.05 Q-18.3 0.4 -19.5 0.7 L-21.5 1.55 Q-22.55 1.8 -22.1 0.2 -23.55 1.0 -25.5 1.0 -27.8 0.95 -28.65 -0.5 -29.05 -1.2 -28.7 -2.25 L-28.15 -3.95 Q-28.0 -5.3 -28.8 -5.3 L-30.45 -4.8 -29.35 -5.75 -27.7 -5.7 Q-27.45 -5.3 -27.65 -2.5 -27.75 -0.4 -26.4 -0.4 -24.9 -0.4 -23.05 -1.2 L-21.5 -2.0 -21.6 -1.05 Q-21.6 -0.15 -21.0 -0.3 L-19.45 -0.4 Q-18.45 -0.2 -17.0 1.1 M18.55 -6.55 L-11.2 -6.55 18.55 -6.55 M12.3 -2.65 L16.8 -2.85 18.45 -2.95 16.8 -2.85 12.3 -2.65 M17.6 -4.05 L17.85 -3.5 17.6 -4.05 M10.1 5.6 L10.1 5.55 Q10.35 4.5 11.15 3.45 L11.5 3.2 11.15 3.45 Q10.35 4.5 10.1 5.55 L10.1 5.6 M-3.9 7.1 L-0.95 7.3 -0.7 7.3 -0.5 7.3 -0.05 7.3 2.7 7.2 -0.05 7.3 -0.5 7.3 -0.7 7.3 -0.95 7.3 -3.9 7.1 -4.05 7.05 -3.9 7.1 M-5.85 6.8 L-4.1 7.05 -4.05 7.05 -4.1 7.05 -5.85 6.8 M-4.35 10.95 L-4.15 10.9 -4.35 10.95" fill="#000000" fill-opacity="0.2" fill-rule="evenodd" stroke="none"/>
    <path d="M-24.75 -7.45 L-23.3 -7.8 M25.65 -8.45 L25.6 -8.4 Q25.4 -7.85 25.65 -7.0 L25.25 -7.25 24.75 -7.45 24.55 -8.4 M10.7 6.05 L10.1 5.6 10.1 5.55 Q10.35 4.5 11.15 3.45 L11.5 3.2 11.65 3.1 M-24.75 -7.45 L-25.25 -7.25 -25.6 -7.05 M-16.85 1.0 L-17.3 0.35 Q-18.0 -0.75 -18.3 -1.9 L-16.15 -0.9 -10.3 -0.55 -4.45 -1.5 Q-2.05 -1.7 -0.15 -0.95 2.05 -0.05 4.75 -0.05 7.5 -0.05 9.7 -0.95 L11.65 -1.5 13.9 -1.7 17.15 -1.25 18.0 -1.05 18.25 -1.8 18.3 -2.0 18.45 -2.95 16.8 -2.85 12.3 -2.65 Q4.35 -2.35 -5.95 -2.55 L-18.5 -2.95 -18.1 -3.25 -17.9 -3.5 M-18.35 -2.0 L-18.5 -2.95 M-19.1 -6.55 L-11.2 -6.55 18.55 -6.55 M23.35 -7.8 L24.4 -7.6 24.75 -7.45 M18.0 -1.05 L17.25 0.35 16.85 1.0 M16.8 0.95 L16.7 0.95 Q13.65 0.75 11.6 3.1 L11.55 3.15 11.5 3.2 M2.7 7.2 L-0.05 7.3 -0.5 7.3 -0.7 7.3 -0.95 7.3 -3.9 7.1 M-10.15 5.6 Q-10.45 4.5 -11.2 3.45 M-11.65 3.1 Q-13.65 0.75 -16.65 0.95 L-16.85 0.95" fill="none" stroke="#000000" stroke-linecap="butt" stroke-linejoin="miter-clip" stroke-miterlimit="10.0" stroke-opacity="0.6" stroke-width="1.0"/>
    <path d="M-17.65 -4.05 L-17.45 -4.95 Q-17.2 -6.1 -18.15 -6.45 M-19.1 -6.55 L-19.1 -10.15 16.75 -10.15 19.05 -10.15 19.05 -6.55 M18.55 -6.55 L18.05 -6.45 Q17.15 -6.1 17.35 -4.95 L17.6 -4.05 M27.9 -7.65 L27.95 -8.0 27.55 -8.8 27.25 -9.05 26.3 -9.05 25.9 -8.85 25.85 -8.8 25.65 -8.45 M10.1 5.6 L9.05 6.0 8.5 6.2 6.55 6.65 5.7 6.85 2.7 7.2 M-5.85 6.8 L-6.65 6.65 -9.1 6.0 M-18.3 -1.9 L-18.35 -2.0 M27.45 -8.9 L27.55 -8.8 M-4.05 7.05 L-4.1 7.05 -5.85 6.8" fill="none" stroke="#000000" stroke-linecap="butt" stroke-linejoin="miter-clip" stroke-miterlimit="10.0" stroke-width="1.0"/>
    <path d="M-27.75 -7.55 Q-28.55 -7.85 -28.95 -8.4 -29.65 -9.25 -29.1 -10.4 -28.25 -11.95 -26.25 -11.2 -24.2 -10.45 -24.5 -8.6 L-24.75 -7.45 M27.8 -7.55 L27.7 -7.55 27.85 -7.6 27.9 -7.65 27.95 -8.15 27.45 -8.9 27.25 -9.05 M-27.85 -7.65 L-27.7 -7.55 -27.75 -7.55 M-27.85 -7.65 L-27.95 -8.15 -27.45 -8.9 M-25.6 -7.05 L-25.55 -7.7 M-30.45 -4.8 L-29.35 -5.75 -27.7 -5.7 Q-27.45 -5.3 -27.65 -2.5 -27.75 -0.4 -26.4 -0.4 -24.9 -0.4 -23.05 -1.2 L-21.5 -2.0 -21.6 -1.05 Q-21.6 -0.15 -21.0 -0.3 L-19.45 -0.4 Q-18.45 -0.2 -17.0 1.1 M-17.9 -3.5 L-18.75 -3.75 -19.15 -4.35 -19.2 -4.7 -19.85 -4.05 Q-20.9 -3.25 -22.6 -2.6 -24.7 -1.7 -26.0 -2.55 -27.35 -3.4 -25.7 -5.0 -24.25 -6.35 -23.1 -5.8 -22.5 -5.55 -22.2 -5.0 M22.55 -5.35 L23.05 -5.8 Q24.25 -6.35 25.7 -5.0 27.35 -3.4 26.0 -2.55 24.7 -1.7 22.6 -2.6 20.9 -3.25 19.85 -4.05 L19.2 -4.7 19.15 -4.35 18.75 -3.75 Q18.4 -3.5 17.85 -3.5 M27.8 -7.55 L28.95 -8.4 Q29.65 -9.25 29.1 -10.4 28.25 -11.95 26.25 -11.2 24.2 -10.45 24.5 -8.6 L24.55 -8.4 M30.45 -4.8 L29.35 -5.75 27.7 -5.7 Q27.45 -5.3 27.65 -2.5 27.75 -0.4 26.4 -0.4 24.9 -0.4 23.05 -1.2 L21.5 -2.0 21.6 -1.05 Q21.6 -0.15 21.0 -0.3 L19.45 -0.4 Q18.45 -0.2 17.1 1.05 M23.4 -5.5 L22.55 -5.35 M11.65 3.1 L13.9 3.25 Q15.35 3.9 15.65 5.6 L14.15 7.1 Q12.85 9.0 13.85 10.7 L14.85 11.9 19.45 12.0 M-11.2 3.45 L-11.65 3.1 -11.7 3.1 -13.95 3.25 Q-15.45 3.9 -15.7 5.6 L-14.2 7.1 Q-12.9 9.0 -13.9 10.7 L-14.9 11.9 -19.5 12.0" fill="none" stroke="#000000" stroke-linecap="butt" stroke-linejoin="miter-clip" stroke-miterlimit="10.0" stroke-opacity="0.4" stroke-width="1.0"/>
    <path d="M-23.3 -7.8 Q-22.65 -8.95 -22.9 -10.2 -23.2 -11.95 -25.0 -13.0 -26.65 -14.0 -28.5 -13.8 -29.95 -13.65 -30.65 -12.5 -31.25 -11.45 -31.0 -10.1 -30.75 -8.75 -29.85 -8.0 -28.8 -7.1 -27.5 -7.45 L-27.75 -7.55 M-23.3 -7.8 L-23.2 -7.8 -21.35 -7.4 Q-20.6 -6.9 -20.85 -5.9 L-21.7 -6.4 -22.7 -6.4 Q-21.85 -6.3 -22.2 -5.0 -22.7 -5.6 -23.4 -5.5 -24.05 -5.4 -24.45 -4.8 -24.9 -4.2 -24.65 -3.75 -24.4 -3.2 -23.3 -3.1 -22.0 -3.05 -20.65 -3.9 L-19.75 -5.0 Q-19.25 -5.8 -18.8 -5.8 -18.75 -4.35 -17.85 -4.1 L-17.65 -4.05 -17.9 -3.5 M-18.15 -6.45 L-19.1 -6.55 M19.05 -6.55 L18.55 -6.55 M17.6 -4.05 L17.85 -4.1 Q18.75 -4.35 18.75 -5.8 19.2 -5.8 19.75 -5.0 L20.65 -3.9 Q22.0 -3.05 23.3 -3.1 24.4 -3.2 24.65 -3.75 24.9 -4.2 24.45 -4.8 24.05 -5.4 23.4 -5.5 L22.6 -5.35 22.45 -5.25 22.25 -5.05 22.2 -5.0 22.1 -5.35 Q21.95 -6.3 22.7 -6.4 L21.7 -6.4 20.85 -5.9 Q20.6 -6.9 21.35 -7.4 22.0 -7.85 23.15 -7.8 L23.35 -7.8 Q22.65 -8.95 22.85 -10.2 23.2 -11.95 25.0 -13.0 26.65 -14.0 28.5 -13.8 29.95 -13.65 30.65 -12.5 31.25 -11.45 30.95 -10.1 30.75 -8.75 29.85 -8.0 28.85 -7.1 27.5 -7.45 L27.8 -7.55 M25.6 -8.4 Q25.45 -7.9 25.65 -7.0 L25.7 -7.0 Q26.35 -6.55 26.5 -5.9 26.85 -7.3 28.75 -6.85 30.65 -6.4 30.45 -4.8 L28.8 -5.3 Q28.0 -5.3 28.15 -3.95 L28.7 -2.25 Q29.05 -1.2 28.6 -0.5 27.8 0.95 25.5 1.0 23.55 1.0 22.1 0.2 22.55 1.8 21.5 1.55 L19.5 0.7 19.25 0.65 Q18.2 0.5 17.1 1.05 L17.0 1.15 18.05 2.05 Q19.2 3.6 18.65 5.85 L16.85 7.3 Q15.25 9.0 16.25 10.4 L16.85 11.15 Q17.85 11.9 19.45 12.0 L19.45 13.85 13.15 13.85 Q12.1 13.4 11.2 12.65 9.45 11.1 10.35 9.3 L11.1 8.3 11.4 7.8 11.6 7.35 11.55 6.9 10.7 6.05 M2.7 7.2 L2.45 8.3 Q2.2 9.9 2.35 10.4 L2.95 10.95 3.3 10.9 3.3 13.05 -4.7 13.05 -4.7 10.9 -4.35 10.95 -4.15 10.9 -3.75 10.4 Q-3.65 10.05 -3.7 9.25 L-3.85 8.3 -4.1 7.1 M-9.1 6.0 L-10.15 5.6 -10.75 6.05 -11.65 6.9 Q-11.85 7.25 -11.15 8.3 L-10.45 9.3 Q-9.5 11.1 -11.25 12.65 L-13.25 13.85 -19.5 13.85 -19.5 12.0 Q-17.9 11.9 -16.95 11.15 L-16.3 10.4 Q-15.3 9.0 -16.9 7.3 L-18.7 5.85 Q-19.25 3.6 -18.15 2.05 L-17.0 1.1 -17.1 1.05 Q-18.3 0.4 -19.5 0.7 L-21.5 1.55 Q-22.55 1.8 -22.1 0.2 -23.55 1.0 -25.5 1.0 -27.8 0.95 -28.65 -0.5 -29.05 -1.2 -28.7 -2.25 L-28.15 -3.95 Q-28.0 -5.3 -28.8 -5.3 L-30.45 -4.8 Q-30.65 -6.4 -28.75 -6.85 -26.85 -7.3 -26.5 -5.9 -26.35 -6.55 -25.65 -7.0 L-25.55 -7.7 -25.55 -7.9 -25.75 -8.6 Q-26.45 -9.8 -27.45 -8.9 L-27.55 -8.8 -27.95 -8.0 -27.85 -7.65 M-25.6 -7.05 L-25.65 -7.0 M-17.0 1.1 L-16.85 1.0 -16.85 0.95 M17.85 -3.5 L18.05 -3.25 18.45 -2.95 M17.85 -3.5 L17.6 -4.05 M22.55 -5.35 L22.45 -5.25 M16.85 1.0 L17.0 1.15 M16.85 1.0 L16.8 0.95 M-3.9 7.1 L-4.05 7.05" fill="none" stroke="#000000" stroke-linecap="butt" stroke-linejoin="miter-clip" stroke-miterlimit="10.0" stroke-opacity="0.8" stroke-width="1.0"/>
  </g>
</svg>
