<?xml version="1.0" encoding="UTF-8" standalone="no"?>
<svg xmlns:xlink="http://www.w3.org/1999/xlink" height="128.75px" width="231.9px" xmlns="http://www.w3.org/2000/svg">
  <g transform="matrix(1.0, 0.0, 0.0, 1.0, 115.5, 64.35)">
    <path d="M-21.1 -60.6 Q-22.4 -59.5 -21.95 -57.1 L-10.85 20.75 -9.1 21.35 -14.85 -19.65 Q-20.45 -60.9 -19.75 -61.3 -20.45 -61.25 -21.1 -60.6 M-24.25 -60.2 Q-23.35 -62.9 -20.45 -63.25 L-4.7 -63.25 -2.1 -63.85 Q0.7 -63.85 1.75 -60.95 L16.3 14.9 19.25 20.05 Q23.65 25.5 30.9 26.55 43.25 28.35 60.4 31.5 81.3 35.35 82.8 36.5 84.4 37.7 85.9 43.65 L87.85 43.6 111.4 42.9 114.9 42.9 114.9 59.25 94.5 63.9 Q86.7 60.8 79.55 57.45 L52.25 58.9 Q16.9 59.35 16.9 57.5 16.9 55.75 -14.0 26.55 -14.0 28.3 -24.5 -57.45 -24.65 -58.8 -24.25 -60.2 M-23.25 17.75 L-21.6 17.8 -22.2 26.0 -114.35 20.75 -114.95 13.75 -111.7 13.9 -23.25 17.75 M79.55 57.45 Q87.5 56.4 87.5 54.55 87.5 50.0 86.0 44.05 L85.9 43.65 86.0 44.05 Q87.5 50.0 87.5 54.55 87.5 56.4 79.55 57.45" fill="#ffffff" fill-opacity="0.0" fill-rule="evenodd" stroke="none"/>
    <path d="M-21.1 -60.6 Q-20.45 -61.25 -19.75 -61.3 -20.45 -60.9 -14.85 -19.65 L-9.1 21.35 -10.85 20.75 -21.95 -57.1 Q-22.4 -59.5 -21.1 -60.6" fill="#ffffff" fill-opacity="0.6" fill-rule="evenodd" stroke="none"/>
    <path d="M-24.25 -60.2 Q-23.35 -62.9 -20.45 -63.25 L-4.7 -63.25 -2.1 -63.85 Q0.7 -63.85 1.75 -60.95 L16.3 14.9 19.25 20.05 Q23.65 25.5 30.9 26.55 43.25 28.35 60.4 31.5 81.3 35.35 82.8 36.5 84.4 37.7 85.9 43.65 L87.85 43.6 111.4 42.9 114.9 42.9 114.9 59.25 94.5 63.9 Q86.7 60.8 79.55 57.45 L52.25 58.9 Q16.9 59.35 16.9 57.5 16.9 55.75 -14.0 26.55 -14.0 28.3 -24.5 -57.45 -24.65 -58.8 -24.25 -60.2 M-111.7 13.9 L-114.95 13.75 -114.35 20.75 -22.2 26.0 -21.6 17.8 -23.25 17.75" fill="none" stroke="#000000" stroke-linecap="butt" stroke-linejoin="miter-clip" stroke-miterlimit="10.0" stroke-width="1.0"/>
    <path d="M-23.25 17.75 L-111.7 13.9 M85.9 43.65 L86.0 44.05 Q87.5 50.0 87.5 54.55 87.5 56.4 79.55 57.45" fill="none" stroke="#000000" stroke-linecap="butt" stroke-linejoin="miter-clip" stroke-miterlimit="10.0" stroke-opacity="0.6" stroke-width="1.0"/>
  </g>
</svg>
