<?xml version="1.0" encoding="UTF-8" standalone="no"?>
<svg xmlns:xlink="http://www.w3.org/1999/xlink" height="40.3px" width="40.35px" xmlns="http://www.w3.org/2000/svg">
  <g transform="matrix(1.0, 0.0, 0.0, 1.0, 20.2, 20.15)">
    <path d="M13.9 -13.85 Q19.65 -8.15 19.65 0.05 19.65 8.2 13.9 13.95 8.1 19.65 0.0 19.65 -8.15 19.65 -13.95 13.95 -19.7 8.2 -19.7 0.05 -19.7 -8.15 -13.95 -13.85 -8.15 -19.65 0.0 -19.65 8.1 -19.65 13.9 -13.85" fill="#ffffff" fill-opacity="0.0" fill-rule="evenodd" stroke="none"/>
    <path d="M13.9 -13.85 Q19.65 -8.15 19.65 0.05 19.65 8.2 13.9 13.95 8.1 19.65 0.0 19.65 -8.15 19.65 -13.95 13.95 -19.7 8.2 -19.7 0.05 -19.7 -8.15 -13.95 -13.85 -8.15 -19.65 0.0 -19.65 8.1 -19.65 13.9 -13.85 Z" fill="none" stroke="#000000" stroke-linecap="butt" stroke-linejoin="miter-clip" stroke-miterlimit="10.0" stroke-width="1.0"/>
  </g>
</svg>
