<?xml version="1.0" encoding="UTF-8" standalone="no"?>
<svg xmlns:xlink="http://www.w3.org/1999/xlink" height="47.5px" width="199.15px" xmlns="http://www.w3.org/2000/svg">
  <g transform="matrix(1.0, 0.0, 0.0, 1.0, 99.55, 23.75)">
    <path d="M-75.8 -23.25 Q-66.15 -23.25 -59.35 -16.4 -52.55 -9.6 -52.55 0.0 -52.55 9.7 -59.35 16.45 -66.1 23.25 -75.8 23.25 -85.4 23.25 -92.2 16.45 -99.05 9.65 -99.05 0.0 -99.05 -9.6 -92.2 -16.4 -85.4 -23.25 -75.8 -23.25" fill="#ffffff" fill-opacity="0.0" fill-rule="evenodd" stroke="none"/>
    <path d="M-75.8 -23.25 Q-66.15 -23.25 -59.35 -16.4 -52.55 -9.6 -52.55 0.0 -52.55 9.7 -59.35 16.45 -66.1 23.25 -75.8 23.25 -85.4 23.25 -92.2 16.45 -99.05 9.65 -99.05 0.0 -99.05 -9.6 -92.2 -16.4 -85.4 -23.25 -75.8 -23.25 Z" fill="none" stroke="#000000" stroke-linecap="butt" stroke-linejoin="miter-clip" stroke-miterlimit="10.0" stroke-width="1.0"/>
    <path d="M75.85 -23.25 Q85.45 -23.25 92.3 -16.4 99.1 -9.6 99.1 0.0 99.1 9.65 92.3 16.45 85.45 23.25 75.85 23.25 66.2 23.25 59.4 16.45 52.6 9.65 52.6 0.0 52.6 -9.6 59.4 -16.4 66.2 -23.25 75.85 -23.25" fill="#ffffff" fill-opacity="0.0" fill-rule="evenodd" stroke="none"/>
    <path d="M75.85 -23.25 Q85.45 -23.25 92.3 -16.4 99.1 -9.6 99.1 0.0 99.1 9.65 92.3 16.45 85.45 23.25 75.85 23.25 66.2 23.25 59.4 16.45 52.6 9.65 52.6 0.0 52.6 -9.6 59.4 -16.4 66.2 -23.25 75.85 -23.25 Z" fill="none" stroke="#000000" stroke-linecap="butt" stroke-linejoin="miter-clip" stroke-miterlimit="10.0" stroke-width="1.0"/>
  </g>
</svg>
