<?xml version="1.0" encoding="UTF-8" standalone="no"?>
<svg xmlns:xlink="http://www.w3.org/1999/xlink" height="48.05px" width="509.1px" xmlns="http://www.w3.org/2000/svg">
  <g transform="matrix(1.0, 0.0, 0.0, 1.0, 254.55, 24.05)">
    <path d="M21.8 -3.0 Q43.9 -0.3 43.75 1.55 43.5 4.4 25.15 10.95 L16.7 13.85 2.3 18.4 230.2 13.0 168.4 -17.65 Q147.05 -18.35 80.35 -18.05 L78.25 -23.5 80.35 -18.05 -4.9 -17.5 -138.8 -16.0 -96.7 -13.0 -47.35 -9.5 -38.2 -8.75 21.8 -3.0 25.15 10.95 21.8 -3.0 M-252.25 -1.45 Q-250.75 7.15 -242.05 11.9 -237.8 14.2 -233.75 14.8 L16.7 13.85 -233.75 14.8 Q-237.8 14.2 -242.05 11.9 -250.75 7.15 -252.25 -1.45 L-192.25 -23.5 78.25 -23.5 192.25 -23.5 252.25 -1.45 Q257.6 5.35 247.15 15.1 243.95 18.2 239.5 21.2 L235.75 23.5 63.25 19.85 63.25 17.2 -235.75 23.5 Q-242.0 20.0 -247.15 15.1 -257.6 5.35 -252.25 -1.45 M-96.7 -13.0 L-95.95 13.55 -96.7 -13.0 M-157.1 13.55 L-144.25 -16.0 -157.1 13.55 M-168.5 -17.65 L-230.3 13.0 -168.5 -17.65 M-35.0 13.55 L-38.2 -8.75 -35.0 13.55" fill="#ffffff" fill-opacity="0.0" fill-rule="evenodd" stroke="none"/>
    <path d="M21.8 -3.0 L18.7 -16.0 21.8 -3.0 -38.2 -8.75 -39.25 -16.0 -38.2 -8.75 -47.35 -9.5 -96.7 -13.0 -138.8 -16.0 -4.9 -17.5 80.35 -18.05 Q147.05 -18.35 168.4 -17.65 L230.2 13.0 2.3 18.4 16.7 13.85 25.15 10.95 Q43.5 4.4 43.75 1.55 43.9 -0.3 21.8 -3.0 M25.75 13.55 L25.15 10.95 25.75 13.55 M80.35 -18.05 L92.6 13.55 16.7 13.85 92.6 13.55 80.35 -18.05 M156.65 13.55 L135.25 -16.0 156.65 13.55 M-96.8 -16.0 L-96.7 -13.0 -96.8 -16.0" fill="#000000" fill-opacity="0.09803922" fill-rule="evenodd" stroke="none"/>
    <path d="M-252.25 -1.45 Q-257.6 5.35 -247.15 15.1 -242.0 20.0 -235.75 23.5 L63.25 17.2 63.25 19.85 235.75 23.5 239.5 21.2 Q243.95 18.2 247.15 15.1 257.6 5.35 252.25 -1.45 L192.25 -23.5 78.25 -23.5 M-192.25 -23.5 L-252.25 -1.45" fill="none" stroke="#000000" stroke-linecap="butt" stroke-linejoin="miter-clip" stroke-miterlimit="10.0" stroke-width="1.0"/>
    <path d="M18.7 -16.0 L21.8 -3.0 25.15 10.95 25.75 13.55 M78.25 -23.5 L80.35 -18.05 92.6 13.55 16.7 13.85 -233.75 14.8 Q-237.8 14.2 -242.05 11.9 -250.75 7.15 -252.25 -1.45 M168.4 -17.65 L230.2 13.0 M78.25 -23.5 L-192.25 -23.5 M-96.7 -13.0 L-96.8 -16.0 M135.25 -16.0 L156.65 13.55 M-39.25 -16.0 L-38.2 -8.75 -35.0 13.55 M-230.3 13.0 L-168.5 -17.65 M-144.25 -16.0 L-157.1 13.55 M-95.95 13.55 L-96.7 -13.0" fill="none" stroke="#000000" stroke-linecap="butt" stroke-linejoin="miter-clip" stroke-miterlimit="10.0" stroke-opacity="0.6" stroke-width="1.0"/>
  </g>
</svg>
