<?xml version="1.0" encoding="UTF-8" standalone="no"?>
<svg xmlns:xlink="http://www.w3.org/1999/xlink" height="19.2px" width="385.5px" xmlns="http://www.w3.org/2000/svg">
  <g transform="matrix(1.0, 0.0, 0.0, 1.0, 192.75, 9.25)">
    <path d="M162.25 -1.75 L192.25 -8.75 192.25 1.25 162.25 8.65 162.25 -1.75 162.25 8.65 161.75 8.75 -161.75 8.75 -162.25 8.65 -192.25 1.25 -192.25 -8.75 -162.25 -1.75 162.25 -1.75 M2.15 1.75 Q41.35 1.55 80.3 0.7 L-160.25 0.25 Q-154.55 2.75 2.15 1.75 M-162.25 -1.75 L-162.25 8.65 -162.25 -1.75" fill="#ffffff" fill-opacity="0.0" fill-rule="evenodd" stroke="none"/>
    <path d="M2.15 1.75 Q-154.55 2.75 -160.25 0.25 L80.3 0.7 Q41.35 1.55 2.15 1.75" fill="#ffffff" fill-opacity="0.6" fill-rule="evenodd" stroke="none"/>
    <path d="M192.25 -8.75 L162.25 -1.75 -162.25 -1.75 -192.25 -8.75 192.25 -8.75" fill="#ffffff" fill-opacity="0.2" fill-rule="evenodd" stroke="none"/>
    <path d="M162.25 8.65 L192.25 1.25 192.25 -8.75 -192.25 -8.75 -192.25 1.25 -162.25 8.65 -161.75 8.75 161.75 8.75 162.25 8.65" fill="none" stroke="#000000" stroke-linecap="butt" stroke-linejoin="miter-clip" stroke-miterlimit="10.0" stroke-width="1.0"/>
    <path d="M192.25 -8.75 L162.25 -1.75 162.25 8.65 M-192.25 -8.75 L-162.25 -1.75 162.25 -1.75 M-162.25 8.65 L-162.25 -1.75" fill="none" stroke="#000000" stroke-linecap="butt" stroke-linejoin="miter-clip" stroke-miterlimit="10.0" stroke-opacity="0.6" stroke-width="1.0"/>
  </g>
</svg>
