<?xml version="1.0" encoding="UTF-8" standalone="no"?>
<svg xmlns:xlink="http://www.w3.org/1999/xlink" height="138.0px" width="138.0px" xmlns="http://www.w3.org/2000/svg">
  <g transform="matrix(1.0, 0.0, 0.0, 1.0, 69.0, 69.0)">
    <path d="M31.35 -31.35 Q18.4 -44.35 0.05 -44.35 -18.35 -44.35 -31.35 -31.35 -44.35 -18.3 -44.35 0.05 -44.35 18.45 -31.35 31.35 -18.35 44.35 0.05 44.35 18.4 44.35 31.35 31.35 44.35 18.45 44.35 0.05 44.35 -18.3 31.35 -31.35 M0.05 -68.5 Q28.4 -68.5 48.45 -48.45 68.5 -28.4 68.5 0.05 68.5 28.4 48.45 48.45 28.4 68.5 0.05 68.5 -28.4 68.5 -48.45 48.45 -68.5 28.4 -68.5 0.05 -68.5 -28.4 -48.45 -48.45 -28.4 -68.5 0.05 -68.5" fill="#ffffff" fill-opacity="0.0" fill-rule="evenodd" stroke="none"/>
    <path d="M0.05 -68.5 Q-28.4 -68.5 -48.45 -48.45 -68.5 -28.4 -68.5 0.05 -68.5 28.4 -48.45 48.45 -28.4 68.5 0.05 68.5 28.4 68.5 48.45 48.45 68.5 28.4 68.5 0.05 68.5 -28.4 48.45 -48.45 28.4 -68.5 0.05 -68.5" fill="none" stroke="#000000" stroke-linecap="butt" stroke-linejoin="miter-clip" stroke-miterlimit="10.0" stroke-width="1.0"/>
    <path d="M31.35 -31.35 Q44.35 -18.3 44.35 0.05 44.35 18.45 31.35 31.35 18.4 44.35 0.05 44.35 -18.35 44.35 -31.35 31.35 -44.35 18.45 -44.35 0.05 -44.35 -18.3 -31.35 -31.35 -18.35 -44.35 0.05 -44.35 18.4 -44.35 31.35 -31.35" fill="none" stroke="#000000" stroke-linecap="butt" stroke-linejoin="miter-clip" stroke-miterlimit="10.0" stroke-opacity="0.6" stroke-width="1.0"/>
    <path d="M-51.3 -33.75 Q-59.05 -21.8 -62.65 -11.2 -60.0 -38.05 -36.9 -53.8 -29.65 -58.75 -21.25 -62.0 -17.05 -63.6 -14.35 -64.2 -35.65 -57.6 -51.3 -33.75" fill="#ffffff" fill-opacity="0.6" fill-rule="evenodd" stroke="none"/>
  </g>
</svg>
