<?xml version="1.0" encoding="UTF-8" standalone="no"?>
<svg xmlns:xlink="http://www.w3.org/1999/xlink" height="145.05px" width="47.55px" xmlns="http://www.w3.org/2000/svg">
  <g transform="matrix(1.0, 0.0, 0.0, 1.0, 23.95, 72.5)">
    <path d="M11.55 -72.0 L16.9 -70.15 Q22.45 -66.35 23.1 -56.8 L23.1 56.8 Q23.1 66.35 17.3 70.15 14.45 72.05 11.55 72.05 L-11.55 72.05 Q-18.8 72.05 -21.65 64.7 L-23.1 57.25 -23.1 -57.75 Q-23.1 -61.3 -21.65 -64.9 -18.8 -72.0 -11.55 -72.0 L11.55 -72.0" fill="#ffffff" fill-opacity="0.0" fill-rule="evenodd" stroke="none"/>
    <path d="M11.55 -72.0 L-11.55 -72.0 Q-18.8 -72.0 -21.65 -64.9 -23.1 -61.3 -23.1 -57.75 L-23.1 57.25 -21.65 64.7 Q-18.8 72.05 -11.55 72.05 L11.55 72.05 Q14.45 72.05 17.3 70.15 23.1 66.35 23.1 56.8 L23.1 -56.8 Q22.45 -66.35 16.9 -70.15 L11.55 -72.0 Z" fill="none" stroke="#000000" stroke-linecap="butt" stroke-linejoin="miter-clip" stroke-miterlimit="10.0" stroke-width="1.0"/>
  </g>
</svg>
