<?xml version="1.0" encoding="UTF-8" standalone="no"?>
<svg xmlns:xlink="http://www.w3.org/1999/xlink" height="205.75px" width="308.65px" xmlns="http://www.w3.org/2000/svg">
  <g transform="matrix(1.0, 0.0, 0.0, 1.0, 154.3, 101.55)">
    <path d="M-133.55 -11.9 L-127.85 -84.25 Q-127.75 -87.6 -126.5 -91.5 -124.15 -99.05 -118.9 -101.05 L118.7 -101.05 Q123.95 -99.05 126.35 -91.5 127.5 -87.6 127.6 -84.25 L133.35 -11.9 133.4 -11.3 138.65 -3.95 138.65 -2.85 138.65 0.7 138.65 -2.85 138.65 -3.95 133.4 -11.3 133.35 -11.9 133.4 -11.9 133.75 -11.95 135.6 -12.35 136.15 -12.5 136.15 -12.55 136.45 -18.3 Q136.85 -25.45 140.55 -25.45 L150.0 -25.25 152.0 -24.2 Q153.85 -22.4 153.85 -18.2 L153.85 -3.5 Q153.85 0.8 149.65 1.85 L142.0 2.15 Q140.0 2.15 138.65 0.7 L138.65 30.2 Q138.35 30.2 135.3 49.95 L132.35 69.55 132.35 95.3 99.9 98.15 107.55 94.25 Q116.9 91.6 119.2 89.0 121.65 86.25 123.75 63.4 125.6 41.65 125.0 39.65 122.8 33.05 120.7 30.0 114.5 21.15 102.95 19.15 L-3.1 17.6 -103.15 19.15 Q-114.7 21.15 -120.9 30.0 -123.0 33.05 -125.2 39.65 -125.85 41.65 -123.85 63.4 -121.85 86.25 -119.45 89.0 -117.15 91.6 -107.8 94.25 -106.4 94.65 -103.65 96.9 -101.0 99.0 -99.65 99.25 -101.0 99.0 -103.65 96.9 -106.4 94.65 -107.8 94.25 -117.15 91.6 -119.45 89.0 -121.85 86.25 -123.85 63.4 -125.85 41.65 -125.2 39.65 -123.0 33.05 -120.9 30.0 -114.7 21.15 -103.15 19.15 L-3.1 17.6 102.95 19.15 Q114.5 21.15 120.7 30.0 122.8 33.05 125.0 39.65 125.6 41.65 123.75 63.4 121.65 86.25 119.2 89.0 116.9 91.6 107.55 94.25 L99.9 98.15 98.75 96.35 Q94.5 97.4 86.95 98.25 L-3.95 98.75 -3.95 98.95 -13.1 98.95 -13.1 98.75 -80.95 99.15 Q-92.75 98.05 -98.95 96.35 L-99.3 97.8 -99.6 99.25 -99.65 99.25 -132.55 95.3 -132.55 69.55 -135.5 49.95 Q-138.55 30.2 -138.85 30.2 -139.35 30.2 -138.9 1.7 L-138.85 -3.45 -138.85 -3.95 -133.6 -11.3 -133.55 -11.9 -133.6 -11.3 -138.85 -3.95 -138.85 -3.45 -138.9 1.7 -140.05 2.05 -149.5 2.25 Q-153.15 2.25 -153.55 -4.85 -154.0 -14.2 -153.7 -17.45 -152.75 -25.35 -148.0 -25.35 L-140.35 -25.05 Q-136.15 -24.0 -136.15 -19.7 L-136.15 -12.5 Q-139.15 -13.4 -140.45 -15.15 L-143.6 -14.0 Q-146.35 -11.7 -143.9 -6.35 L-138.85 -3.45 -143.9 -6.35 Q-146.35 -11.7 -143.6 -14.0 L-140.45 -15.15 Q-139.15 -13.4 -136.15 -12.5 L-135.7 -12.35 -133.6 -11.9 -133.55 -11.9 M116.9 -79.95 Q114.7 -85.4 109.75 -86.35 L-110.0 -86.35 Q-114.95 -85.4 -117.15 -79.95 -118.3 -77.3 -118.4 -74.8 L-123.65 -12.85 4.45 -12.35 123.4 -12.85 118.15 -74.8 Q118.05 -77.3 116.9 -79.95 M138.65 -2.85 Q141.15 -4.15 143.8 -6.35 146.2 -11.7 143.45 -14.0 L140.2 -15.15 Q139.05 -13.45 136.15 -12.55 139.05 -13.45 140.2 -15.15 L143.45 -14.0 Q146.2 -11.7 143.8 -6.35 141.15 -4.15 138.65 -2.85 M135.9 -1.85 L130.65 -9.2 111.75 18.1 135.9 -1.85 M51.3 31.75 L47.6 31.25 43.95 31.75 Q42.35 32.4 42.35 34.4 L42.35 77.95 Q42.35 79.95 43.95 80.7 L47.6 81.1 51.3 80.7 Q52.85 79.95 52.85 77.95 L52.85 34.4 Q52.85 32.4 51.3 31.75 M59.9 34.4 L59.9 77.95 Q59.9 79.95 61.45 80.7 L65.15 81.1 68.9 80.7 Q70.4 79.95 70.4 77.95 L70.4 34.4 Q70.4 32.4 68.9 31.75 L65.15 31.25 Q62.5 31.25 61.45 31.75 59.9 32.4 59.9 34.4 M16.1 31.75 Q15.05 31.25 12.45 31.25 9.8 31.25 8.75 31.75 7.2 32.4 7.2 34.4 L7.2 77.95 Q7.2 79.95 8.75 80.7 L12.45 81.1 16.1 80.7 Q17.7 79.95 17.7 77.95 L17.7 34.4 Q17.7 32.4 16.1 31.75 M33.75 31.75 Q32.6 31.25 29.95 31.25 27.35 31.25 26.3 31.75 24.7 32.4 24.7 34.4 L24.7 77.95 Q24.7 79.95 26.3 80.7 L29.95 81.1 33.75 80.7 Q35.2 79.95 35.2 77.95 L35.2 34.4 Q35.2 32.4 33.75 31.75 M-121.0 -93.2 Q-120.4 -95.15 -117.75 -95.7 L-115.25 -95.8 -5.75 -97.6 -116.8 -97.9 Q-119.45 -97.25 -120.5 -95.15 L-121.0 -93.2 M-111.25 18.1 L-130.15 -9.2 -135.4 -1.85 -111.25 18.1 -109.8 17.3 Q-107.6 16.35 -103.7 16.0 -99.8 15.7 -41.95 15.6 L13.9 15.5 -102.65 12.85 Q-104.45 12.85 -106.45 13.5 -110.3 14.85 -111.25 18.1 M-69.05 31.75 Q-70.6 32.4 -70.6 34.4 L-70.6 77.95 Q-70.6 79.95 -69.05 80.7 L-65.35 81.1 -61.6 80.7 Q-60.1 79.95 -60.1 77.95 L-60.1 34.4 Q-60.1 32.4 -61.6 31.75 L-65.35 31.25 -69.05 31.75 M-51.5 31.75 Q-53.1 32.4 -53.1 34.4 L-53.1 77.95 Q-53.1 79.95 -51.5 80.7 L-47.85 81.1 -44.05 80.7 Q-42.6 79.95 -42.6 77.95 L-42.6 34.4 Q-42.6 32.4 -44.05 31.75 -45.2 31.25 -47.85 31.25 -50.45 31.25 -51.5 31.75 M-7.4 34.4 Q-7.4 32.4 -8.9 31.75 -10.05 31.25 -12.65 31.25 -15.3 31.25 -16.35 31.75 -17.9 32.4 -17.9 34.4 L-17.9 77.95 Q-17.9 79.95 -16.35 80.7 L-12.65 81.1 -8.9 80.7 Q-7.4 79.95 -7.4 77.95 L-7.4 34.4 M-24.95 34.4 Q-24.95 32.4 -26.4 31.75 L-30.2 31.25 Q-32.8 31.25 -33.85 31.75 -35.45 32.4 -35.45 34.4 L-35.45 77.95 Q-35.45 79.95 -33.85 80.7 L-30.2 81.1 -26.4 80.7 Q-24.95 79.95 -24.95 77.95 L-24.95 34.4" fill="#ffffff" fill-opacity="0.0" fill-rule="evenodd" stroke="none"/>
    <path d="M33.75 31.75 Q35.2 32.4 35.2 34.4 L35.2 77.95 Q35.2 79.95 33.75 80.7 L29.95 81.1 26.3 80.7 Q24.7 79.95 24.7 77.95 L24.7 34.4 Q24.7 32.4 26.3 31.75 27.35 31.25 29.95 31.25 32.6 31.25 33.75 31.75 M16.1 31.75 Q17.7 32.4 17.7 34.4 L17.7 77.95 Q17.7 79.95 16.1 80.7 L12.45 81.1 8.75 80.7 Q7.2 79.95 7.2 77.95 L7.2 34.4 Q7.2 32.4 8.75 31.75 9.8 31.25 12.45 31.25 15.05 31.25 16.1 31.75 M59.9 34.4 Q59.9 32.4 61.45 31.75 62.5 31.25 65.15 31.25 L68.9 31.75 Q70.4 32.4 70.4 34.4 L70.4 77.95 Q70.4 79.95 68.9 80.7 L65.15 81.1 61.45 80.7 Q59.9 79.95 59.9 77.95 L59.9 34.4 M51.3 31.75 Q52.85 32.4 52.85 34.4 L52.85 77.95 Q52.85 79.95 51.3 80.7 L47.6 81.1 43.95 80.7 Q42.35 79.95 42.35 77.95 L42.35 34.4 Q42.35 32.4 43.95 31.75 L47.6 31.25 51.3 31.75 M-24.95 34.4 L-24.95 77.95 Q-24.95 79.95 -26.4 80.7 L-30.2 81.1 -33.85 80.7 Q-35.45 79.95 -35.45 77.95 L-35.45 34.4 Q-35.45 32.4 -33.85 31.75 -32.8 31.25 -30.2 31.25 L-26.4 31.75 Q-24.95 32.4 -24.95 34.4 M-7.4 34.4 L-7.4 77.95 Q-7.4 79.95 -8.9 80.7 L-12.65 81.1 -16.35 80.7 Q-17.9 79.95 -17.9 77.95 L-17.9 34.4 Q-17.9 32.4 -16.35 31.75 -15.3 31.25 -12.65 31.25 -10.05 31.25 -8.9 31.75 -7.4 32.4 -7.4 34.4 M-51.5 31.75 Q-50.45 31.25 -47.85 31.25 -45.2 31.25 -44.05 31.75 -42.6 32.4 -42.6 34.4 L-42.6 77.95 Q-42.6 79.95 -44.05 80.7 L-47.85 81.1 -51.5 80.7 Q-53.1 79.95 -53.1 77.95 L-53.1 34.4 Q-53.1 32.4 -51.5 31.75 M-69.05 31.75 L-65.35 31.25 -61.6 31.75 Q-60.1 32.4 -60.1 34.4 L-60.1 77.95 Q-60.1 79.95 -61.6 80.7 L-65.35 81.1 -69.05 80.7 Q-70.6 79.95 -70.6 77.95 L-70.6 34.4 Q-70.6 32.4 -69.05 31.75" fill="#000000" fill-opacity="0.2" fill-rule="evenodd" stroke="none"/>
    <path d="M-121.0 -93.2 L-120.5 -95.15 Q-119.45 -97.25 -116.8 -97.9 L-5.75 -97.6 -115.25 -95.8 -117.75 -95.7 Q-120.4 -95.15 -121.0 -93.2" fill="#ffffff" fill-rule="evenodd" stroke="none"/>
    <path d="M135.9 -1.85 L111.75 18.1 130.65 -9.2 135.9 -1.85 M-111.25 18.1 L-135.4 -1.85 -130.15 -9.2 -111.25 18.1 Q-110.3 14.85 -106.45 13.5 -104.45 12.85 -102.65 12.85 L13.9 15.5 -41.95 15.6 Q-99.8 15.7 -103.7 16.0 -107.6 16.35 -109.8 17.3 L-111.25 18.1" fill="#ffffff" fill-opacity="0.6" fill-rule="evenodd" stroke="none"/>
    <path d="M133.35 -11.9 L127.6 -84.25 Q127.5 -87.6 126.35 -91.5 123.95 -99.05 118.7 -101.05 L-118.9 -101.05 Q-124.15 -99.05 -126.5 -91.5 -127.75 -87.6 -127.85 -84.25 L-133.55 -11.9 -133.6 -11.3 -138.85 -3.95 -138.85 -3.45 -138.9 1.7 Q-139.35 30.2 -138.85 30.2 -138.55 30.2 -135.5 49.95 L-132.55 69.55 -132.55 95.3 -99.65 99.25 M99.9 98.15 L132.35 95.3 132.35 69.55 135.3 49.95 Q138.35 30.2 138.65 30.2 L138.65 0.7 138.65 -2.85 138.65 -3.95 133.4 -11.3 133.35 -11.9 133.4 -11.9 133.75 -11.95 135.6 -12.35 136.15 -12.55 136.45 -18.3 Q136.85 -25.45 140.55 -25.45 L150.0 -25.25 152.0 -24.2 Q153.85 -22.4 153.85 -18.2 L153.85 -3.5 Q153.85 0.8 149.65 1.85 L142.0 2.15 Q140.0 2.15 138.65 0.7 M86.95 98.25 L99.9 98.15 M-80.95 99.15 L-99.6 99.25 M-136.15 -12.5 L-136.15 -19.7 Q-136.15 -24.0 -140.35 -25.05 L-148.0 -25.35 Q-152.75 -25.35 -153.7 -17.45 -154.0 -14.2 -153.55 -4.85 -153.15 2.25 -149.5 2.25 L-140.05 2.05 -138.9 1.7 M-133.55 -11.9 L-133.6 -11.9 -135.7 -12.35 M-80.95 99.15 L-13.1 98.75 -13.1 98.95 -3.95 98.95 -3.95 98.75 86.95 98.25" fill="none" stroke="#000000" stroke-linecap="butt" stroke-linejoin="miter-clip" stroke-miterlimit="10.0" stroke-width="1.0"/>
    <path d="M-99.65 99.25 Q-101.0 99.0 -103.65 96.9 -106.4 94.65 -107.8 94.25 -117.15 91.6 -119.45 89.0 -121.85 86.25 -123.85 63.4 -125.85 41.65 -125.2 39.65 -123.0 33.05 -120.9 30.0 -114.7 21.15 -103.15 19.15 L-3.1 17.6 102.95 19.15 Q114.5 21.15 120.7 30.0 122.8 33.05 125.0 39.65 125.6 41.65 123.75 63.4 121.65 86.25 119.2 89.0 116.9 91.6 107.55 94.25 L99.9 98.15 98.75 96.35 Q94.5 97.4 86.95 98.25 L39.95 100.65 Q17.25 101.2 -3.1 101.05 -21.8 101.4 -42.9 100.95 L-80.95 99.15 Q-92.75 98.05 -98.95 96.35 L-99.3 97.8 -99.6 99.25 -99.65 99.25 M116.9 -79.95 Q118.05 -77.3 118.15 -74.8 L123.4 -12.85 4.45 -12.35 -123.65 -12.85 -118.4 -74.8 Q-118.3 -77.3 -117.15 -79.95 -114.95 -85.4 -110.0 -86.35 L109.75 -86.35 Q114.7 -85.4 116.9 -79.95 M51.3 31.75 L47.6 31.25 43.95 31.75 Q42.35 32.4 42.35 34.4 L42.35 77.95 Q42.35 79.95 43.95 80.7 L47.6 81.1 51.3 80.7 Q52.85 79.95 52.85 77.95 L52.85 34.4 Q52.85 32.4 51.3 31.75 M59.9 34.4 L59.9 77.95 Q59.9 79.95 61.45 80.7 L65.15 81.1 68.9 80.7 Q70.4 79.95 70.4 77.95 L70.4 34.4 Q70.4 32.4 68.9 31.75 L65.15 31.25 Q62.5 31.25 61.45 31.75 59.9 32.4 59.9 34.4 M16.1 31.75 Q15.05 31.25 12.45 31.25 9.8 31.25 8.75 31.75 7.2 32.4 7.2 34.4 L7.2 77.95 Q7.2 79.95 8.75 80.7 L12.45 81.1 16.1 80.7 Q17.7 79.95 17.7 77.95 L17.7 34.4 Q17.7 32.4 16.1 31.75 M33.75 31.75 Q32.6 31.25 29.95 31.25 27.35 31.25 26.3 31.75 24.7 32.4 24.7 34.4 L24.7 77.95 Q24.7 79.95 26.3 80.7 L29.95 81.1 33.75 80.7 Q35.2 79.95 35.2 77.95 L35.2 34.4 Q35.2 32.4 33.75 31.75 M-136.15 -12.5 Q-139.15 -13.4 -140.45 -15.15 L-143.6 -14.0 Q-146.35 -11.7 -143.9 -6.35 L-138.85 -3.45 M-24.95 34.4 L-24.95 77.95 Q-24.95 79.95 -26.4 80.7 L-30.2 81.1 -33.85 80.7 Q-35.45 79.95 -35.45 77.95 L-35.45 34.4 Q-35.45 32.4 -33.85 31.75 -32.8 31.25 -30.2 31.25 L-26.4 31.75 Q-24.95 32.4 -24.95 34.4 M-7.4 34.4 L-7.4 77.95 Q-7.4 79.95 -8.9 80.7 L-12.65 81.1 -16.35 80.7 Q-17.9 79.95 -17.9 77.95 L-17.9 34.4 Q-17.9 32.4 -16.35 31.75 -15.3 31.25 -12.65 31.25 -10.05 31.25 -8.9 31.75 -7.4 32.4 -7.4 34.4 M-51.5 31.75 Q-50.45 31.25 -47.85 31.25 -45.2 31.25 -44.05 31.75 -42.6 32.4 -42.6 34.4 L-42.6 77.95 Q-42.6 79.95 -44.05 80.7 L-47.85 81.1 -51.5 80.7 Q-53.1 79.95 -53.1 77.95 L-53.1 34.4 Q-53.1 32.4 -51.5 31.75 M-69.05 31.75 L-65.35 31.25 -61.6 31.75 Q-60.1 32.4 -60.1 34.4 L-60.1 77.95 Q-60.1 79.95 -61.6 80.7 L-65.35 81.1 -69.05 80.7 Q-70.6 79.95 -70.6 77.95 L-70.6 34.4 Q-70.6 32.4 -69.05 31.75" fill="none" stroke="#000000" stroke-linecap="butt" stroke-linejoin="miter-clip" stroke-miterlimit="10.0" stroke-opacity="0.6" stroke-width="1.0"/>
    <path d="M136.15 -12.55 Q139.05 -13.45 140.2 -15.15 L143.45 -14.0 Q146.2 -11.7 143.8 -6.35 141.15 -4.15 138.65 -2.85" fill="none" stroke="#000000" stroke-linecap="round" stroke-linejoin="miter-clip" stroke-miterlimit="10.0" stroke-opacity="0.6" stroke-width="1.0"/>
    <path d="M136.15 -12.5 L136.15 -12.55" fill="none" stroke="#000000" stroke-linecap="butt" stroke-linejoin="miter-clip" stroke-miterlimit="10.0" stroke-width="1.0"/>
  </g>
</svg>
