<?xml version="1.0" encoding="UTF-8" standalone="no"?>
<svg xmlns:xlink="http://www.w3.org/1999/xlink" height="22.25px" width="52.25px" xmlns="http://www.w3.org/2000/svg">
  <g transform="matrix(1.0, 0.0, 0.0, 1.0, 26.1, 10.2)">
    <path d="M11.35 -7.95 L16.1 -8.35 11.35 -8.75 -0.15 -8.95 -11.7 -8.75 -16.5 -8.35 -11.7 -7.95 -0.15 -7.75 11.35 -7.95 M17.7 -8.3 Q15.9 -6.9 5.6 -6.1 L6.7 5.0 Q6.8 5.5 4.8 6.4 L3.25 7.0 -9.4 6.8 -20.05 6.2 -23.75 5.85 -20.05 6.2 -9.4 6.8 3.25 7.0 23.6 5.85 24.15 5.8 Q24.7 5.75 25.15 6.05 25.6 6.45 25.65 7.0 25.75 7.55 25.35 8.0 25.0 8.4 24.45 8.45 L0.35 9.7 -17.4 9.1 -24.45 8.45 Q-25.0 8.4 -25.35 7.95 L-25.6 6.95 Q-25.55 6.4 -25.1 6.05 L-24.1 5.8 -23.75 5.85 -17.85 -8.25 -17.45 -8.95 Q-16.7 -9.7 -15.1 -9.7 L14.9 -9.7 Q16.55 -9.7 17.3 -8.95 L17.7 -8.3 M-12.9 7.85 L-24.25 6.65 -24.75 6.7 Q-25.15 6.85 -24.7 7.2 L-18.5 7.75 -12.9 7.85" fill="#ffffff" fill-opacity="0.0" fill-rule="evenodd" stroke="none"/>
    <path d="M3.25 7.0 L4.8 6.4 Q6.8 5.5 6.7 5.0 L5.6 -6.1 Q15.9 -6.9 17.7 -8.3 L17.7 -8.25 23.6 5.85 3.25 7.0" fill="#000000" fill-opacity="0.2" fill-rule="evenodd" stroke="none"/>
    <path d="M-12.9 7.85 L-18.5 7.75 -24.7 7.2 Q-25.15 6.85 -24.75 6.7 L-24.25 6.65 -12.9 7.85" fill="#ffffff" fill-opacity="0.6" fill-rule="evenodd" stroke="none"/>
    <path d="M17.7 -8.3 L17.3 -8.95 Q16.55 -9.7 14.9 -9.7 L-15.1 -9.7 Q-16.7 -9.7 -17.45 -8.95 L-17.85 -8.25 -23.75 5.85 -24.1 5.8 -25.1 6.05 Q-25.55 6.4 -25.6 6.95 L-25.35 7.95 Q-25.0 8.4 -24.45 8.45 L-17.4 9.1 0.35 9.7 24.45 8.45 Q25.0 8.4 25.35 8.0 25.75 7.55 25.65 7.0 25.6 6.45 25.15 6.05 24.7 5.75 24.15 5.8 L23.6 5.85 17.7 -8.25 17.7 -8.3" fill="none" stroke="#000000" stroke-linecap="butt" stroke-linejoin="miter-clip" stroke-miterlimit="10.0" stroke-opacity="0.8" stroke-width="1.0"/>
    <path d="M-23.75 5.85 L-20.05 6.2 -9.4 6.8 3.25 7.0 23.6 5.85" fill="none" stroke="#000000" stroke-linecap="butt" stroke-linejoin="miter-clip" stroke-miterlimit="10.0" stroke-opacity="0.6" stroke-width="1.0"/>
  </g>
</svg>
