<?xml version="1.0" encoding="UTF-8" standalone="no"?>
<svg xmlns:xlink="http://www.w3.org/1999/xlink" height="463.0px" width="364.15px" xmlns="http://www.w3.org/2000/svg">
  <g transform="matrix(1.0, 0.0, 0.0, 1.0, 182.05, 231.5)">
    <path d="M93.85 -231.0 L143.05 -231.0 181.6 -194.1 117.1 -194.1 Q102.1 -219.3 93.85 -231.0 M45.25 -194.1 L-34.85 -194.1 -31.7 -231.0 24.85 -231.0 45.25 -194.1 M102.85 137.7 Q80.2 157.2 52.9 174.0 L52.9 76.95 102.85 76.95 102.85 137.7 M-152.45 -231.0 L-98.45 -231.0 -106.7 -194.1 -181.55 -194.1 -152.45 -231.0 M-57.35 226.95 L-57.35 76.95 -7.4 76.95 -7.4 206.25 Q-30.35 216.9 -57.35 226.95 M-167.75 231.0 L-167.75 76.95 -117.8 76.95 -117.8 231.0 -167.75 231.0" fill="#ffffff" fill-opacity="0.0" fill-rule="evenodd" stroke="none"/>
    <path d="M52.9 174.0 Q80.2 157.2 102.85 137.7 L102.85 231.0 52.9 231.0 52.9 174.0 M-57.35 226.95 Q-30.35 216.9 -7.4 206.25 L-7.4 231.0 -57.35 231.0 -57.35 226.95" fill="#000000" fill-opacity="0.09803922" fill-rule="evenodd" stroke="none"/>
    <path d="M117.1 -194.1 L181.6 -194.1 181.6 -161.25 117.1 -161.25 117.1 -194.1 M45.25 -194.1 L45.25 -161.25 -34.85 -161.25 -34.85 -194.1 45.25 -194.1 M-181.55 -194.1 L-106.7 -194.1 -106.7 -161.25 -181.55 -161.25 -181.55 -194.1" fill="#000000" fill-opacity="0.2" fill-rule="evenodd" stroke="none"/>
    <path d="M-34.85 -161.25 L45.25 -161.25 M24.85 -231.0 L-31.7 -231.0 M52.9 231.0 L102.85 231.0 M-98.45 -231.0 L-152.45 -231.0 M-181.55 -161.25 L-106.7 -161.25 M-7.4 231.0 L-57.35 231.0 M-167.75 231.0 L-117.8 231.0" fill="none" stroke="#000000" stroke-linecap="butt" stroke-linejoin="miter-clip" stroke-miterlimit="10.0" stroke-width="1.0"/>
    <path d="M45.25 -161.25 L45.25 -194.1 -34.85 -194.1 -34.85 -161.25 M45.25 -194.1 L24.85 -231.0 M-31.7 -231.0 L-34.85 -194.1 M102.85 137.7 L102.85 76.95 52.9 76.95 52.9 174.0 52.9 231.0 M102.85 231.0 L102.85 137.7 M-152.45 -231.0 L-181.55 -194.1 -106.7 -194.1 -98.45 -231.0 M-181.55 -194.1 L-181.55 -161.25 M-106.7 -161.25 L-106.7 -194.1 M-7.4 206.25 L-7.4 76.95 -57.35 76.95 -57.35 226.95 -57.35 231.0 M-7.4 206.25 L-7.4 231.0 M-117.8 231.0 L-117.8 76.95 -167.75 76.95 -167.75 231.0" fill="none" stroke="#000000" stroke-linecap="butt" stroke-linejoin="miter-clip" stroke-miterlimit="10.0" stroke-opacity="0.6" stroke-width="1.0"/>
    <path d="M181.6 -194.1 L143.05 -231.0 93.85 -231.0 M181.6 -194.1 L181.6 -161.25 117.1 -161.25" fill="none" stroke="#000000" stroke-linecap="round" stroke-linejoin="miter-clip" stroke-miterlimit="10.0" stroke-width="1.0"/>
    <path d="M93.85 -231.0 Q102.1 -219.3 117.1 -194.1 L117.1 -161.25" fill="none" stroke="#000000" stroke-linecap="butt" stroke-linejoin="miter-clip" stroke-miterlimit="10.0" stroke-opacity="0.6" stroke-width="1.0"/>
    <path d="M117.1 -194.1 L181.6 -194.1" fill="none" stroke="#000000" stroke-linecap="round" stroke-linejoin="miter-clip" stroke-miterlimit="10.0" stroke-opacity="0.6" stroke-width="1.0"/>
  </g>
</svg>
