<?xml version="1.0" encoding="UTF-8" standalone="no"?>
<svg xmlns:xlink="http://www.w3.org/1999/xlink" height="178.65px" width="145.35px" xmlns="http://www.w3.org/2000/svg">
  <g transform="matrix(1.0, 0.0, 0.0, 1.0, 72.75, 89.3)">
    <path d="M22.3 -67.4 L27.3 -70.25 16.55 -61.2 Q17.15 -63.95 22.3 -67.4 M35.35 -62.2 L64.35 -87.45 Q62.0 -83.4 35.35 -62.2 M-49.1 -36.45 Q-43.2 -35.7 -34.35 -32.5 L-53.2 -36.55 -49.1 -36.45" fill="#ffffff" fill-opacity="0.6" fill-rule="evenodd" stroke="none"/>
    <path d="M37.6 -53.25 L40.8 -52.4 Q43.3 -49.9 40.8 -49.0 L37.75 -48.7 16.15 -54.75 Q14.05 -57.5 14.75 -60.75 L15.85 -63.5 19.9 -67.45 Q24.75 -71.55 28.3 -72.65 31.9 -73.7 34.0 -71.95 35.05 -71.0 35.35 -69.95 L30.85 -67.0 Q26.5 -64.05 24.7 -62.2 L32.35 -62.2 63.0 -88.75 65.5 -88.3 Q68.1 -87.4 68.75 -85.05 L56.9 -71.95 55.6 -66.55 43.5 -55.75 37.6 -53.25 37.0 -53.45 37.6 -53.25 M23.5 -59.15 Q23.65 -58.6 24.1 -58.0 24.85 -57.0 26.0 -56.45 L37.0 -53.45 35.95 -59.15 39.1 -59.15 43.5 -55.75 39.1 -59.15 35.95 -59.15 23.5 -59.15 Q23.1 -60.5 24.3 -61.8 L24.7 -62.2 24.3 -61.8 Q23.1 -60.5 23.5 -59.15 M22.3 -67.4 Q17.15 -63.95 16.55 -61.2 L27.3 -70.25 22.3 -67.4 M35.35 -62.2 Q62.0 -83.4 64.35 -87.45 L35.35 -62.2 M56.3 83.7 Q60.6 78.95 66.6 80.6 L69.25 82.55 Q71.85 85.2 72.1 88.75 L53.25 88.75 Q54.15 86.05 56.3 83.7 M-49.1 -36.45 L-53.2 -36.55 -34.35 -32.5 Q-43.2 -35.7 -49.1 -36.45 M-47.45 -28.55 L-56.6 -30.2 Q-57.65 -32.7 -56.2 -35.55 L-54.6 -37.95 Q-53.1 -40.05 -42.9 -37.5 -37.85 -36.25 -33.0 -34.55 L-25.45 -35.0 Q-17.5 -35.3 -15.85 -34.9 -14.15 -34.45 -14.15 -31.25 -14.15 -29.65 -14.45 -28.15 -35.35 -25.8 -37.0 -26.45 -38.1 -26.9 -47.45 -28.55 M-56.1 82.55 Q-53.4 85.2 -53.2 88.75 L-72.1 88.75 Q-71.15 86.05 -68.95 83.7 -64.7 78.95 -58.7 80.6 L-56.1 82.55" fill="#ffffff" fill-opacity="0.0" fill-rule="evenodd" stroke="none"/>
    <path d="M37.6 -53.25 L40.8 -52.4 Q43.3 -49.9 40.8 -49.0 L37.75 -48.7 16.15 -54.75 Q14.05 -57.5 14.75 -60.75 L15.85 -63.5 19.9 -67.45 Q24.75 -71.55 28.3 -72.65 31.9 -73.7 34.0 -71.95 35.05 -71.0 35.35 -69.95 L30.85 -67.0 Q26.5 -64.05 24.7 -62.2 L32.35 -62.2 63.0 -88.75 65.5 -88.3 Q68.1 -87.4 68.75 -85.05 L56.9 -71.95 55.6 -66.55 43.5 -55.75 37.6 -53.25 37.0 -53.45 26.0 -56.45 Q24.85 -57.0 24.1 -58.0 23.65 -58.6 23.5 -59.15 L35.95 -59.15 37.0 -53.45 M56.3 83.7 Q60.6 78.95 66.6 80.6 L69.25 82.55 Q71.85 85.2 72.1 88.75 L53.25 88.75 Q54.15 86.05 56.3 83.7 M-47.45 -28.55 Q-38.1 -26.9 -37.0 -26.45 -35.35 -25.8 -14.45 -28.15 -14.15 -29.65 -14.15 -31.25 -14.15 -34.45 -15.85 -34.9 -17.5 -35.3 -25.45 -35.0 L-33.0 -34.55 Q-37.85 -36.25 -42.9 -37.5 -53.1 -40.05 -54.6 -37.95 L-56.2 -35.55 Q-57.65 -32.7 -56.6 -30.2 L-47.45 -28.55 M-56.1 82.55 Q-53.4 85.2 -53.2 88.75 L-72.1 88.75 Q-71.15 86.05 -68.95 83.7 -64.7 78.95 -58.7 80.6 L-56.1 82.55" fill="none" stroke="#000000" stroke-linecap="butt" stroke-linejoin="miter-clip" stroke-miterlimit="10.0" stroke-width="1.0"/>
    <path d="M23.5 -59.15 Q23.1 -60.5 24.3 -61.8 L24.7 -62.2 M43.5 -55.75 L39.1 -59.15 35.95 -59.15" fill="none" stroke="#000000" stroke-linecap="butt" stroke-linejoin="miter-clip" stroke-miterlimit="10.0" stroke-opacity="0.6" stroke-width="1.0"/>
  </g>
</svg>
