<?xml version="1.0" encoding="UTF-8" standalone="no"?>
<svg xmlns:xlink="http://www.w3.org/1999/xlink" height="102.65px" width="102.65px" xmlns="http://www.w3.org/2000/svg">
  <g transform="matrix(1.0, 0.0, 0.0, 1.0, 51.35, 51.3)">
    <path d="M0.05 -50.8 Q21.05 -50.8 35.9 -35.9 50.8 -21.05 50.8 -0.05 50.8 21.1 35.9 35.95 21.05 50.85 0.05 50.85 -21.1 50.85 -35.95 35.95 -50.85 21.1 -50.85 -0.05 -50.85 -21.05 -35.95 -35.9 -21.1 -50.8 0.05 -50.8" fill="#ffffff" fill-opacity="0.0" fill-rule="evenodd" stroke="none"/>
    <path d="M0.05 -50.8 Q21.05 -50.8 35.9 -35.9 50.8 -21.05 50.8 -0.05 50.8 21.1 35.9 35.95 21.05 50.85 0.05 50.85 -21.1 50.85 -35.95 35.95 -50.85 21.1 -50.85 -0.05 -50.85 -21.05 -35.95 -35.9 -21.1 -50.8 0.05 -50.8 Z" fill="none" stroke="#000000" stroke-linecap="butt" stroke-linejoin="miter-clip" stroke-miterlimit="10.0" stroke-opacity="0.6" stroke-width="1.0"/>
    <path d="M0.05 -37.9 Q15.65 -37.9 26.8 -26.8 37.9 -15.65 37.9 -0.05 37.9 15.7 26.8 26.85 15.65 37.95 0.05 37.95 -15.7 37.95 -26.85 26.85 -37.95 15.7 -37.95 -0.05 -37.95 -15.65 -26.85 -26.8 -15.7 -37.9 0.05 -37.9" fill="#ffffff" fill-opacity="0.0" fill-rule="evenodd" stroke="none"/>
    <path d="M0.05 -37.9 Q15.65 -37.9 26.8 -26.8 37.9 -15.65 37.9 -0.05 37.9 15.7 26.8 26.85 15.65 37.95 0.05 37.95 -15.7 37.95 -26.85 26.85 -37.95 15.7 -37.95 -0.05 -37.95 -15.65 -26.85 -26.8 -15.7 -37.9 0.05 -37.9 Z" fill="none" stroke="#000000" stroke-linecap="butt" stroke-linejoin="miter-clip" stroke-miterlimit="10.0" stroke-opacity="0.6" stroke-width="1.0"/>
    <path d="M0.05 -25.55 Q10.65 -25.55 18.05 -18.05 25.55 -10.55 25.55 -0.05 25.55 10.6 18.05 18.1 10.65 25.6 0.05 25.6 -10.6 25.6 -18.1 18.1 -25.6 10.6 -25.6 -0.05 -25.6 -10.55 -18.1 -18.05 -10.6 -25.55 0.05 -25.55" fill="#000000" fill-opacity="0.2" fill-rule="evenodd" stroke="none"/>
    <path d="M0.05 -25.55 Q10.65 -25.55 18.05 -18.05 25.55 -10.55 25.55 -0.05 25.55 10.6 18.05 18.1 10.65 25.6 0.05 25.6 -10.6 25.6 -18.1 18.1 -25.6 10.6 -25.6 -0.05 -25.6 -10.55 -18.1 -18.05 -10.6 -25.55 0.05 -25.55 Z" fill="none" stroke="#000000" stroke-linecap="butt" stroke-linejoin="miter-clip" stroke-miterlimit="10.0" stroke-opacity="0.6" stroke-width="1.0"/>
    <path d="M-11.45 0.2 Q-11.45 1.45 -12.35 2.45 -13.2 3.35 -14.45 3.35 -15.7 3.35 -16.7 2.45 -17.6 1.6 -17.6 0.2 -17.6 -1.05 -16.7 -1.9 -15.7 -2.8 -14.45 -2.8 -13.2 -2.8 -12.35 -1.9 -11.45 -1.05 -11.45 0.2" fill="#ffffff" fill-opacity="0.0" fill-rule="evenodd" stroke="none"/>
    <path d="M-11.45 0.2 Q-11.45 1.45 -12.35 2.45 -13.2 3.35 -14.45 3.35 -15.7 3.35 -16.7 2.45 -17.6 1.6 -17.6 0.2 -17.6 -1.05 -16.7 -1.9 -15.7 -2.8 -14.45 -2.8 -13.2 -2.8 -12.35 -1.9 -11.45 -1.05 -11.45 0.2 Z" fill="none" stroke="#000000" stroke-linecap="butt" stroke-linejoin="miter-clip" stroke-miterlimit="10.0" stroke-opacity="0.6" stroke-width="1.0"/>
    <path d="M20.05 0.2 Q20.05 1.6 19.15 2.45 18.3 3.35 16.9 3.35 15.65 3.35 14.8 2.45 13.9 1.45 13.9 0.2 13.9 -1.05 14.8 -1.9 15.65 -2.8 16.9 -2.8 18.15 -2.8 19.15 -1.9 20.05 -1.05 20.05 0.2" fill="#ffffff" fill-opacity="0.0" fill-rule="evenodd" stroke="none"/>
    <path d="M20.05 0.2 Q20.05 1.6 19.15 2.45 18.3 3.35 16.9 3.35 15.65 3.35 14.8 2.45 13.9 1.45 13.9 0.2 13.9 -1.05 14.8 -1.9 15.65 -2.8 16.9 -2.8 18.15 -2.8 19.15 -1.9 20.05 -1.05 20.05 0.2 Z" fill="none" stroke="#000000" stroke-linecap="butt" stroke-linejoin="miter-clip" stroke-miterlimit="10.0" stroke-opacity="0.6" stroke-width="1.0"/>
    <path d="M1.3 -12.4 Q0.05 -12.4 -0.95 -13.3 -1.85 -14.15 -1.85 -15.4 -1.85 -16.65 -0.95 -17.65 0.05 -18.55 1.3 -18.55 2.55 -18.55 3.4 -17.65 4.3 -16.65 4.3 -15.4 4.3 -14.15 3.4 -13.3 2.55 -12.4 1.3 -12.4" fill="#ffffff" fill-opacity="0.0" fill-rule="evenodd" stroke="none"/>
    <path d="M1.3 -12.4 Q0.05 -12.4 -0.95 -13.3 -1.85 -14.15 -1.85 -15.4 -1.85 -16.65 -0.95 -17.65 0.05 -18.55 1.3 -18.55 2.55 -18.55 3.4 -17.65 4.3 -16.65 4.3 -15.4 4.3 -14.15 3.4 -13.3 2.55 -12.4 1.3 -12.4 Z" fill="none" stroke="#000000" stroke-linecap="butt" stroke-linejoin="miter-clip" stroke-miterlimit="10.0" stroke-opacity="0.6" stroke-width="1.0"/>
    <path d="M1.3 19.1 Q0.05 19.1 -0.95 18.2 -1.85 17.35 -1.85 15.95 -1.85 14.7 -0.95 13.85 0.05 12.85 1.3 12.85 2.55 12.85 3.4 13.85 4.3 14.7 4.3 15.95 4.3 17.2 3.4 18.2 2.55 19.1 1.3 19.1" fill="#ffffff" fill-opacity="0.0" fill-rule="evenodd" stroke="none"/>
    <path d="M1.3 19.1 Q0.05 19.1 -0.95 18.2 -1.85 17.35 -1.85 15.95 -1.85 14.7 -0.95 13.85 0.05 12.85 1.3 12.85 2.55 12.85 3.4 13.85 4.3 14.7 4.3 15.95 4.3 17.2 3.4 18.2 2.55 19.1 1.3 19.1 Z" fill="none" stroke="#000000" stroke-linecap="butt" stroke-linejoin="miter-clip" stroke-miterlimit="10.0" stroke-opacity="0.6" stroke-width="1.0"/>
    <path d="M-46.2 -11.05 Q-44.7 -17.9 -39.95 -25.65 -30.35 -41.05 -13.7 -44.9 -19.85 -41.55 -25.95 -38.3 -39.6 -28.3 -46.2 -11.05" fill="#ffffff" fill-opacity="0.6" fill-rule="evenodd" stroke="none"/>
  </g>
</svg>
