<?xml version="1.0" encoding="UTF-8" standalone="no"?>
<svg xmlns:xlink="http://www.w3.org/1999/xlink" height="83.45px" width="296.05px" xmlns="http://www.w3.org/2000/svg">
  <g transform="matrix(1.0, 0.0, 0.0, 1.0, 148.05, 41.75)">
    <path d="M4.65 -37.3 L37.05 -38.75 -34.3 -38.75 Q-28.8 -36.4 4.65 -37.3 M129.6 -40.7 Q132.3 -33.35 133.1 -15.7 133.4 -8.2 133.4 9.65 L56.0 9.65 56.1 8.9 Q56.3 -17.6 54.5 -40.7 L129.6 -40.7 M95.85 -37.3 L128.25 -38.75 56.9 -38.75 Q62.4 -36.4 95.85 -37.3 M-132.25 9.65 Q-132.25 -8.2 -131.85 -15.7 -131.1 -33.35 -128.4 -40.7 L-53.35 -40.7 Q-55.15 -17.5 -54.85 8.9 L-54.85 9.65 -132.25 9.65 M-126.55 -38.75 Q-121.05 -36.4 -87.6 -37.3 L-55.2 -38.75 -126.55 -38.75 M-46.35 36.1 Q-46.35 34.0 -44.85 32.5 -43.35 31.0 -41.25 31.0 L43.65 31.0 Q45.8 31.0 47.25 32.5 48.75 34.0 48.75 36.1 48.75 38.2 47.25 39.7 45.75 41.2 43.65 41.2 L-41.25 41.2 Q-43.35 41.2 -44.85 39.7 -46.35 38.2 -46.35 36.1 M-52.45 36.1 Q-52.45 38.2 -53.95 39.7 -55.45 41.2 -57.55 41.2 L-142.45 41.2 Q-144.55 41.2 -146.05 39.7 -147.55 38.2 -147.55 36.1 -147.55 34.0 -146.05 32.5 -144.55 31.0 -142.45 31.0 L-57.55 31.0 Q-55.45 31.0 -53.95 32.5 -52.45 34.0 -52.45 36.1 M-142.2 32.5 Q-135.55 36.1 -95.7 34.7 L-57.15 32.5 -142.2 32.5 M146.0 39.7 Q144.5 41.2 142.4 41.2 L57.5 41.2 Q55.4 41.2 53.9 39.7 52.4 38.2 52.4 36.1 52.4 34.0 53.9 32.5 55.4 31.0 57.5 31.0 L142.4 31.0 Q144.6 31.0 146.0 32.5 147.5 34.0 147.5 36.1 147.5 38.2 146.0 39.7 M5.75 34.7 L44.3 32.5 -40.75 32.5 Q-34.05 36.1 5.75 34.7 M101.55 34.7 L140.0 32.5 54.95 32.5 Q61.65 36.1 101.55 34.7 M-36.9 10.45 L-36.9 -41.15 Q-22.05 -41.35 38.6 -41.05 L38.6 10.45 -36.9 10.45" fill="#ffffff" fill-opacity="0.0" fill-rule="evenodd" stroke="none"/>
    <path d="M4.65 -37.3 Q-28.8 -36.4 -34.3 -38.75 L37.05 -38.75 4.65 -37.3 M95.85 -37.3 Q62.4 -36.4 56.9 -38.75 L128.25 -38.75 95.85 -37.3 M-126.55 -38.75 L-55.2 -38.75 -87.6 -37.3 Q-121.05 -36.4 -126.55 -38.75 M-142.2 32.5 L-57.15 32.5 -95.7 34.7 Q-135.55 36.1 -142.2 32.5 M101.55 34.7 Q61.65 36.1 54.95 32.5 L140.0 32.5 101.55 34.7 M5.75 34.7 Q-34.05 36.1 -40.75 32.5 L44.3 32.5 5.75 34.7" fill="#ffffff" fill-opacity="0.6" fill-rule="evenodd" stroke="none"/>
    <path d="M133.4 9.65 L56.0 9.65 56.1 8.9 M54.5 -40.7 L129.6 -40.7 M-132.25 9.65 L-54.85 9.65 -54.85 8.9 M-53.35 -40.7 L-128.4 -40.7 M-46.35 36.1 Q-46.35 34.0 -44.85 32.5 -43.35 31.0 -41.25 31.0 L43.65 31.0 Q45.8 31.0 47.25 32.5 48.75 34.0 48.75 36.1 48.75 38.2 47.25 39.7 45.75 41.2 43.65 41.2 L-41.25 41.2 Q-43.35 41.2 -44.85 39.7 -46.35 38.2 -46.35 36.1 M-52.45 36.1 Q-52.45 38.2 -53.95 39.7 -55.45 41.2 -57.55 41.2 L-142.45 41.2 Q-144.55 41.2 -146.05 39.7 -147.55 38.2 -147.55 36.1 -147.55 34.0 -146.05 32.5 -144.55 31.0 -142.45 31.0 L-57.55 31.0 Q-55.45 31.0 -53.95 32.5 -52.45 34.0 -52.45 36.1 M146.0 39.7 Q144.5 41.2 142.4 41.2 L57.5 41.2 Q55.4 41.2 53.9 39.7 52.4 38.2 52.4 36.1 52.4 34.0 53.9 32.5 55.4 31.0 57.5 31.0 L142.4 31.0 Q144.6 31.0 146.0 32.5 147.5 34.0 147.5 36.1 147.5 38.2 146.0 39.7 M-36.9 10.45 L38.6 10.45 M38.6 -41.05 Q-22.05 -41.35 -36.9 -41.15" fill="none" stroke="#000000" stroke-linecap="butt" stroke-linejoin="miter-clip" stroke-miterlimit="10.0" stroke-width="1.0"/>
    <path d="M129.6 -40.7 Q132.3 -33.35 133.1 -15.7 133.4 -8.2 133.4 9.65 M56.1 8.9 Q56.3 -17.6 54.5 -40.7 M-128.4 -40.7 Q-131.1 -33.35 -131.85 -15.7 -132.25 -8.2 -132.25 9.65 M-54.85 8.9 Q-55.15 -17.5 -53.35 -40.7 M-36.9 -41.15 L-36.9 10.45 M38.6 10.45 L38.6 -41.05" fill="none" stroke="#000000" stroke-linecap="butt" stroke-linejoin="miter-clip" stroke-miterlimit="10.0" stroke-opacity="0.6" stroke-width="1.0"/>
  </g>
</svg>
