<?xml version="1.0" encoding="UTF-8" standalone="no"?>
<svg xmlns:xlink="http://www.w3.org/1999/xlink" height="91.5px" width="91.6px" xmlns="http://www.w3.org/2000/svg">
  <g transform="matrix(1.0, 0.0, 0.0, 1.0, 45.8, 45.75)">
    <path d="M0.0 -45.25 Q18.8 -45.25 32.0 -32.05 45.3 -18.75 45.3 -0.05 45.3 18.75 32.0 31.95 18.8 45.25 0.0 45.25 -18.7 45.25 -32.0 31.95 -45.3 18.75 -45.3 -0.05 -45.3 -18.75 -32.0 -32.05 -18.8 -45.25 0.0 -45.25" fill="#ffffff" fill-opacity="0.0" fill-rule="evenodd" stroke="none"/>
    <path d="M0.0 -45.25 Q18.8 -45.25 32.0 -32.05 45.3 -18.75 45.3 -0.05 45.3 18.75 32.0 31.95 18.8 45.25 0.0 45.25 -18.7 45.25 -32.0 31.95 -45.3 18.75 -45.3 -0.05 -45.3 -18.75 -32.0 -32.05 -18.8 -45.25 0.0 -45.25 Z" fill="none" stroke="#000000" stroke-linecap="butt" stroke-linejoin="miter-clip" stroke-miterlimit="10.0" stroke-opacity="0.6" stroke-width="1.0"/>
    <path d="M23.9 -23.85 Q33.8 -13.95 33.8 -0.05 33.8 13.95 23.9 23.85 14.0 33.75 0.0 33.75 -14.0 33.75 -23.9 23.85 -33.8 13.95 -33.8 -0.05 -33.8 -14.05 -23.9 -23.85 -14.0 -33.75 0.0 -33.75 14.0 -33.75 23.9 -23.85" fill="#ffffff" fill-opacity="0.0" fill-rule="evenodd" stroke="none"/>
    <path d="M23.9 -23.85 Q33.8 -13.95 33.8 -0.05 33.8 13.95 23.9 23.85 14.0 33.75 0.0 33.75 -14.0 33.75 -23.9 23.85 -33.8 13.95 -33.8 -0.05 -33.8 -14.05 -23.9 -23.85 -14.0 -33.75 0.0 -33.75 14.0 -33.75 23.9 -23.85 Z" fill="none" stroke="#000000" stroke-linecap="butt" stroke-linejoin="miter-clip" stroke-miterlimit="10.0" stroke-opacity="0.6" stroke-width="1.0"/>
    <path d="M22.8 -0.05 Q22.8 9.45 16.1 16.05 9.5 22.75 0.0 22.75 -9.4 22.75 -16.1 16.05 -22.8 9.45 -22.8 -0.05 -22.8 -9.45 -16.1 -16.05 -9.4 -22.75 0.0 -22.75 9.4 -22.75 16.1 -16.05 22.8 -9.45 22.8 -0.05" fill="#000000" fill-opacity="0.2" fill-rule="evenodd" stroke="none"/>
    <path d="M22.8 -0.05 Q22.8 9.45 16.1 16.05 9.5 22.75 0.0 22.75 -9.4 22.75 -16.1 16.05 -22.8 9.45 -22.8 -0.05 -22.8 -9.45 -16.1 -16.05 -9.4 -22.75 0.0 -22.75 9.4 -22.75 16.1 -16.05 22.8 -9.45 22.8 -0.05 Z" fill="none" stroke="#000000" stroke-linecap="butt" stroke-linejoin="miter-clip" stroke-miterlimit="10.0" stroke-opacity="0.6" stroke-width="1.0"/>
    <path d="M-10.2 0.15 Q-10.2 1.35 -11.0 2.15 -11.8 2.95 -12.9 2.95 -14.0 2.95 -14.9 2.15 -15.7 1.35 -15.7 0.15 -15.7 -0.95 -14.9 -1.75 -14.0 -2.55 -12.9 -2.55 -11.8 -2.55 -11.0 -1.75 -10.2 -0.95 -10.2 0.15" fill="#ffffff" fill-opacity="0.0" fill-rule="evenodd" stroke="none"/>
    <path d="M-10.2 0.15 Q-10.2 1.35 -11.0 2.15 -11.8 2.95 -12.9 2.95 -14.0 2.95 -14.9 2.15 -15.7 1.35 -15.7 0.15 -15.7 -0.95 -14.9 -1.75 -14.0 -2.55 -12.9 -2.55 -11.8 -2.55 -11.0 -1.75 -10.2 -0.95 -10.2 0.15 Z" fill="none" stroke="#000000" stroke-linecap="butt" stroke-linejoin="miter-clip" stroke-miterlimit="10.0" stroke-opacity="0.6" stroke-width="1.0"/>
    <path d="M17.8 0.15 Q17.8 1.35 17.0 2.15 16.2 2.95 15.1 2.95 14.0 2.95 13.1 2.15 12.3 1.35 12.3 0.15 12.3 -0.95 13.1 -1.75 14.0 -2.55 15.1 -2.55 16.2 -2.55 17.0 -1.75 17.8 -0.95 17.8 0.15" fill="#ffffff" fill-opacity="0.0" fill-rule="evenodd" stroke="none"/>
    <path d="M17.8 0.15 Q17.8 1.35 17.0 2.15 16.2 2.95 15.1 2.95 14.0 2.95 13.1 2.15 12.3 1.35 12.3 0.15 12.3 -0.95 13.1 -1.75 14.0 -2.55 15.1 -2.55 16.2 -2.55 17.0 -1.75 17.8 -0.95 17.8 0.15 Z" fill="none" stroke="#000000" stroke-linecap="butt" stroke-linejoin="miter-clip" stroke-miterlimit="10.0" stroke-opacity="0.6" stroke-width="1.0"/>
    <path d="M1.1 -11.05 Q0.0 -11.05 -0.9 -11.85 -1.7 -12.65 -1.7 -13.85 -1.7 -14.95 -0.9 -15.75 0.0 -16.55 1.1 -16.55 2.2 -16.55 3.0 -15.75 3.8 -14.95 3.8 -13.85 3.8 -12.65 3.0 -11.85 2.2 -11.05 1.1 -11.05" fill="#ffffff" fill-opacity="0.0" fill-rule="evenodd" stroke="none"/>
    <path d="M1.1 -11.05 Q0.0 -11.05 -0.9 -11.85 -1.7 -12.65 -1.7 -13.85 -1.7 -14.95 -0.9 -15.75 0.0 -16.55 1.1 -16.55 2.2 -16.55 3.0 -15.75 3.8 -14.95 3.8 -13.85 3.8 -12.65 3.0 -11.85 2.2 -11.05 1.1 -11.05 Z" fill="none" stroke="#000000" stroke-linecap="butt" stroke-linejoin="miter-clip" stroke-miterlimit="10.0" stroke-opacity="0.6" stroke-width="1.0"/>
    <path d="M1.1 16.95 Q0.0 16.95 -0.9 16.15 -1.7 15.35 -1.7 14.15 -1.7 13.05 -0.9 12.25 0.0 11.45 1.1 11.45 2.2 11.45 3.0 12.25 3.8 13.05 3.8 14.15 3.8 15.35 3.0 16.15 2.2 16.95 1.1 16.95" fill="#ffffff" fill-opacity="0.0" fill-rule="evenodd" stroke="none"/>
    <path d="M1.1 16.95 Q0.0 16.95 -0.9 16.15 -1.7 15.35 -1.7 14.15 -1.7 13.05 -0.9 12.25 0.0 11.45 1.1 11.45 2.2 11.45 3.0 12.25 3.8 13.05 3.8 14.15 3.8 15.35 3.0 16.15 2.2 16.95 1.1 16.95 Z" fill="none" stroke="#000000" stroke-linecap="butt" stroke-linejoin="miter-clip" stroke-miterlimit="10.0" stroke-opacity="0.6" stroke-width="1.0"/>
    <path d="M-41.4 -11.35 Q-39.1 -18.85 -33.1 -26.55 -21.0 -41.95 -1.9 -42.85 -3.7 -42.55 -6.7 -41.55 -12.5 -39.75 -17.9 -36.85 -35.1 -27.55 -41.4 -11.35" fill="#ffffff" fill-opacity="0.6" fill-rule="evenodd" stroke="none"/>
  </g>
</svg>
