<?xml version="1.0" encoding="UTF-8" standalone="no"?>
<svg xmlns:xlink="http://www.w3.org/1999/xlink" height="32.1px" width="32.1px" xmlns="http://www.w3.org/2000/svg">
  <g transform="matrix(1.0, 0.0, 0.0, 1.0, 16.05, 16.05)">
    <path d="M10.5 -11.4 Q15.55 -6.55 15.55 0.0 15.55 6.55 10.5 10.7 6.95 15.55 0.0 15.55 -7.1 15.55 -11.3 10.7 -15.55 6.55 -15.55 0.0 -15.55 -6.55 -11.3 -11.4 -7.1 -15.55 0.0 -15.55 6.95 -15.55 10.5 -11.4" fill="#ffffff" fill-opacity="0.0" fill-rule="evenodd" stroke="none"/>
    <path d="M10.5 -11.4 Q15.55 -6.55 15.55 0.0 15.55 6.55 10.5 10.7 6.95 15.55 0.0 15.55 -7.1 15.55 -11.3 10.7 -15.55 6.55 -15.55 0.0 -15.55 -6.55 -11.3 -11.4 -7.1 -15.55 0.0 -15.55 6.95 -15.55 10.5 -11.4 Z" fill="none" stroke="#000000" stroke-linecap="round" stroke-linejoin="miter-clip" stroke-miterlimit="3.0" stroke-opacity="0.2" stroke-width="1.0"/>
  </g>
</svg>
