<?xml version="1.0" encoding="UTF-8" standalone="no"?>
<svg xmlns:xlink="http://www.w3.org/1999/xlink" height="15.55px" width="15.8px" xmlns="http://www.w3.org/2000/svg">
  <g transform="matrix(1.0, 0.0, 0.0, 1.0, 12.65, -40.15)">
    <path d="M0.7 44.4 Q2.45 48.05 2.65 54.95 L-12.15 55.2 Q-12.0 48.55 -10.6 45.2 -9.5 42.5 -7.35 41.45 L-6.05 40.95 Q-4.6 40.4 -2.95 40.95 -1.0 41.5 0.3 43.65 L0.7 44.4 M-6.85 44.25 Q-7.9 44.95 -8.55 46.45 -9.45 48.6 -9.55 52.95 L0.05 52.75 Q-0.05 49.35 -0.7 47.2 L-1.2 45.95 Q-2.4 43.55 -4.6 43.55 -5.9 43.6 -6.85 44.25" fill="#ffffff" fill-opacity="0.0" fill-rule="evenodd" stroke="none"/>
    <path d="M0.7 44.4 Q2.45 48.05 2.65 54.95 L-12.15 55.2 Q-12.0 48.55 -10.6 45.2 -9.5 42.5 -7.35 41.45 L-6.05 40.95 Q-4.6 40.4 -2.95 40.95 -1.0 41.5 0.3 43.65 L0.7 44.4" fill="none" stroke="#000000" stroke-linecap="round" stroke-linejoin="round" stroke-width="1.0"/>
    <path d="M-6.85 44.25 Q-5.9 43.6 -4.6 43.55 -2.4 43.55 -1.2 45.95 L-0.7 47.2 Q-0.05 49.35 0.05 52.75 L-9.55 52.95 Q-9.45 48.6 -8.55 46.45 -7.9 44.95 -6.85 44.25" fill="none" stroke="#000000" stroke-linecap="round" stroke-linejoin="round" stroke-opacity="0.6" stroke-width="1.0"/>
  </g>
</svg>
