<?xml version="1.0" encoding="UTF-8" standalone="no"?>
<svg xmlns:xlink="http://www.w3.org/1999/xlink" height="40.2px" width="42.4px" xmlns="http://www.w3.org/2000/svg">
  <g transform="matrix(1.0, 0.0, 0.0, 1.0, 27.65, 16.0)">
    <path d="M-9.4 3.7 Q-4.35 -1.7 14.25 -15.5 L-5.8 7.3 Q-9.55 11.7 -21.15 23.7 -23.55 23.55 -25.7 21.0 -27.85 18.45 -26.8 16.75 L-19.95 12.2 Q-12.5 7.0 -9.4 3.7" fill="#ffffff" fill-opacity="0.0" fill-rule="evenodd" stroke="none"/>
    <path d="M-9.4 3.7 Q-4.35 -1.7 14.25 -15.5 L-5.8 7.3 Q-9.55 11.7 -21.15 23.7 -23.55 23.55 -25.7 21.0 -27.85 18.45 -26.8 16.75 L-19.95 12.2 Q-12.5 7.0 -9.4 3.7 Z" fill="none" stroke="#000000" stroke-linecap="round" stroke-linejoin="round" stroke-opacity="0.6" stroke-width="1.0"/>
    <path d="M6.4 -9.6 Q7.3 -8.55 9.05 -9.6 M-14.75 8.4 Q-11.35 11.15 -6.75 8.4 M-8.1 2.4 Q-5.75 4.2 -1.5 2.4 M-23.7 14.75 Q-18.35 16.8 -12.6 14.75 M-25.9 20.75 Q-22.1 21.8 -18.3 20.75 M-1.2 -3.6 Q1.1 -2.55 3.8 -3.6" fill="none" stroke="#000000" stroke-linecap="round" stroke-linejoin="round" stroke-opacity="0.4" stroke-width="1.0"/>
  </g>
</svg>
