<?xml version="1.0" encoding="UTF-8" standalone="no"?>
<svg xmlns:xlink="http://www.w3.org/1999/xlink" height="52.85px" width="49.15px" xmlns="http://www.w3.org/2000/svg">
  <g transform="matrix(1.0, 0.0, 0.0, 1.0, 24.55, 27.55)">
    <path d="M-24.05 -25.1 Q-23.5 -27.45 -21.65 -27.0 -16.55 4.1 4.2 19.6 6.15 -0.65 22.45 3.3 24.05 4.2 24.1 5.7 8.15 1.35 6.55 21.1 L5.75 24.8 3.5 23.6 Q-7.95 14.85 -14.8 2.6 -21.45 -9.35 -24.05 -25.1" fill="#ffffff" fill-opacity="0.0" fill-rule="evenodd" stroke="none"/>
    <path d="M24.1 5.7 Q24.05 4.2 22.45 3.3 6.15 -0.65 4.2 19.6 -16.55 4.1 -21.65 -27.0 -23.5 -27.45 -24.05 -25.1" fill="none" stroke="#000000" stroke-linecap="round" stroke-linejoin="round" stroke-width="1.0"/>
    <path d="M3.5 23.6 L5.75 24.8 6.55 21.1" fill="none" stroke="#000000" stroke-linecap="round" stroke-linejoin="round" stroke-opacity="0.4" stroke-width="1.0"/>
    <path d="M-24.05 -25.1 Q-21.45 -9.35 -14.8 2.6 -7.95 14.85 3.5 23.6 M6.55 21.1 Q8.15 1.35 24.1 5.7 Z" fill="none" stroke="#000000" stroke-linecap="round" stroke-linejoin="round" stroke-opacity="0.6" stroke-width="1.0"/>
  </g>
</svg>
