<?xml version="1.0" encoding="UTF-8" standalone="no"?>
<svg xmlns:xlink="http://www.w3.org/1999/xlink" height="71.15px" width="43.1px" xmlns="http://www.w3.org/2000/svg">
  <g transform="matrix(1.0, 0.0, 0.0, 1.0, 45.9, 72.85)">
    <path d="M-30.65 -44.8 Q-29.4 -48.0 -27.0 -50.55 L-22.55 -54.75 Q-24.65 -56.25 -28.05 -55.45 -23.9 -59.95 -20.75 -60.2 -21.45 -61.8 -23.9 -62.25 -21.9 -64.6 -16.9 -64.9 -17.15 -67.7 -19.75 -68.35 -14.9 -70.75 -11.15 -68.95 -11.3 -71.35 -13.6 -72.35 -2.2 -71.2 -3.4 -61.8 -8.2 -63.45 -14.1 -52.6 L-34.65 -14.4 Q-39.0 -6.2 -43.7 -2.2 -44.3 -3.2 -44.9 -5.85 -45.55 -8.5 -43.85 -13.35 -42.15 -18.25 -37.1 -22.75 -42.2 -23.75 -45.4 -20.35 -44.6 -23.25 -43.0 -25.4 L-39.65 -28.95 Q-37.65 -30.7 -35.5 -32.05 L-30.15 -35.35 Q-35.25 -35.7 -38.05 -33.4 -36.75 -37.7 -32.1 -41.25 -28.65 -43.85 -23.65 -45.8 -26.9 -47.2 -30.65 -44.8" fill="#ffffff" fill-opacity="0.0" fill-rule="evenodd" stroke="none"/>
    <path d="M-30.65 -44.8 Q-29.4 -48.0 -27.0 -50.55 L-22.55 -54.75 M-28.05 -55.45 Q-23.9 -59.95 -20.75 -60.2 M-23.9 -62.25 Q-21.9 -64.6 -16.9 -64.9 M-19.75 -68.35 Q-14.9 -70.75 -11.15 -68.95 M-13.6 -72.35 Q-2.2 -71.2 -3.4 -61.8 M-43.7 -2.2 Q-44.3 -3.2 -44.9 -5.85 -45.55 -8.5 -43.85 -13.35 -42.15 -18.25 -37.1 -22.75 M-45.4 -20.35 Q-44.6 -23.25 -43.0 -25.4 L-39.65 -28.95 Q-37.65 -30.7 -35.5 -32.05 L-30.15 -35.35 M-38.05 -33.4 Q-36.75 -37.7 -32.1 -41.25 -28.65 -43.85 -23.65 -45.8" fill="none" stroke="#000000" stroke-linecap="round" stroke-linejoin="round" stroke-width="1.0"/>
    <path d="M-22.55 -54.75 Q-24.65 -56.25 -28.05 -55.45 M-20.75 -60.2 Q-21.45 -61.8 -23.9 -62.25 M-16.9 -64.9 Q-17.15 -67.7 -19.75 -68.35 M-11.15 -68.95 Q-11.3 -71.35 -13.6 -72.35 M-37.1 -22.75 Q-42.2 -23.75 -45.4 -20.35 M-30.15 -35.35 Q-35.25 -35.7 -38.05 -33.4 M-23.65 -45.8 Q-26.9 -47.2 -30.65 -44.8" fill="none" stroke="#000000" stroke-linecap="round" stroke-linejoin="round" stroke-opacity="0.6" stroke-width="1.0"/>
    <path d="M-3.4 -61.8 Q-8.2 -63.45 -14.1 -52.6 L-34.65 -14.4 Q-39.0 -6.2 -43.7 -2.2" fill="none" stroke="#000000" stroke-linecap="round" stroke-linejoin="round" stroke-opacity="0.4" stroke-width="1.0"/>
  </g>
</svg>
