<?xml version="1.0" encoding="UTF-8" standalone="no"?>
<svg xmlns:xlink="http://www.w3.org/1999/xlink" height="106.75px" width="40.4px" xmlns="http://www.w3.org/2000/svg">
  <g transform="matrix(1.0, 0.0, 0.0, 1.0, 12.25, 2.75)">
    <path d="M-7.25 52.85 Q-6.5 43.45 -8.75 34.6 L-10.55 27.55 Q-11.9 21.5 -11.7 14.95 -11.55 8.35 -8.3 3.05 -5.1 -2.25 -2.0 -2.25 1.1 -2.25 2.85 -1.15 2.05 3.15 0.05 4.35 -1.95 5.5 -3.15 7.2 -4.35 8.9 -4.55 11.6 -4.55 14.6 -3.85 18.35 -2.8 24.3 -0.3 29.7 3.8 38.85 11.75 49.65 L19.25 59.2 Q36.85 80.55 17.55 103.5 19.7 95.1 14.65 90.2 13.95 97.15 9.25 98.55 10.15 88.7 6.7 80.05 6.8 84.6 3.8 86.2 4.55 68.65 -0.2 61.65 L-0.25 61.35 -0.25 61.4 Q0.0 65.85 -3.15 67.85 -2.45 62.25 -2.55 57.95 -2.6 52.05 -4.2 48.75 L-4.25 48.5 -4.3 48.55 Q-4.85 52.55 -7.25 52.85" fill="#ffffff" fill-opacity="0.0" fill-rule="evenodd" stroke="none"/>
    <path d="M14.65 90.2 Q19.7 95.1 17.55 103.5 36.85 80.55 19.25 59.2 L11.75 49.65 Q3.8 38.85 -0.3 29.7 -2.8 24.3 -3.85 18.35 -4.55 14.6 -4.55 11.6 -4.35 8.9 -3.15 7.2 -1.95 5.5 0.05 4.35 2.05 3.15 2.85 -1.15 1.1 -2.25 -2.0 -2.25 -5.1 -2.25 -8.3 3.05 -11.55 8.35 -11.7 14.95 -11.9 21.5 -10.55 27.55 L-8.75 34.6 Q-6.5 43.45 -7.25 52.85 M-4.3 48.55 L-4.25 48.5 -4.2 48.75 Q-2.6 52.05 -2.55 57.95 -2.45 62.25 -3.15 67.85 M-0.25 61.4 L-0.25 61.35 -0.2 61.65 Q4.55 68.65 3.8 86.2 M6.7 80.05 Q10.15 88.7 9.25 98.55 M-4.2 48.75 L-4.3 48.55 M-0.2 61.65 L-0.25 61.4" fill="none" stroke="#000000" stroke-linecap="round" stroke-linejoin="round" stroke-width="1.0"/>
    <path d="M-7.25 52.85 Q-4.85 52.55 -4.3 48.55 M-3.15 67.85 Q0.0 65.85 -0.25 61.4 M3.8 86.2 Q6.8 84.6 6.7 80.05 M9.25 98.55 Q13.95 97.15 14.65 90.2 Z" fill="none" stroke="#000000" stroke-linecap="round" stroke-linejoin="round" stroke-opacity="0.6" stroke-width="1.0"/>
  </g>
</svg>
