<?xml version="1.0" encoding="UTF-8" standalone="no"?>
<svg xmlns:xlink="http://www.w3.org/1999/xlink" height="16.4px" width="13.9px" xmlns="http://www.w3.org/2000/svg">
  <g transform="matrix(1.0, 0.0, 0.0, 1.0, 13.8, -37.25)">
    <path d="M-10.0 37.75 L-4.15 44.15 Q-1.75 46.8 -0.4 46.65 -1.2 51.95 -1.8 52.85 -2.35 53.75 -4.55 52.05 L-8.8 48.15 Q-10.8 45.95 -13.3 40.15 -12.65 38.35 -10.0 37.75" fill="#ffffff" fill-opacity="0.0" fill-rule="evenodd" stroke="none"/>
    <path d="M-0.4 46.65 Q-1.2 51.95 -1.8 52.85 -2.35 53.75 -4.55 52.05 L-8.8 48.15 Q-10.8 45.95 -13.3 40.15 -12.65 38.35 -10.0 37.75" fill="none" stroke="#000000" stroke-linecap="round" stroke-linejoin="round" stroke-width="1.0"/>
    <path d="M-10.0 37.75 L-4.15 44.15 Q-1.75 46.8 -0.4 46.65 Z" fill="none" stroke="#000000" stroke-linecap="round" stroke-linejoin="round" stroke-opacity="0.4" stroke-width="1.0"/>
  </g>
</svg>
