<?xml version="1.0" encoding="UTF-8" standalone="no"?>
<svg xmlns:xlink="http://www.w3.org/1999/xlink" height="49.45px" width="33.5px" xmlns="http://www.w3.org/2000/svg">
  <g transform="matrix(1.0, 0.0, 0.0, 1.0, 16.8, 18.35)">
    <path d="M16.2 -10.85 L16.2 -10.75 15.6 -8.0 13.95 -2.85 Q13.3 -1.1 10.1 3.25 7.3 7.0 7.25 8.6 7.15 11.1 9.3 18.05 11.25 24.55 10.85 26.0 9.6 30.65 2.7 31.05 -1.35 31.3 -9.7 29.8 L-12.0 28.05 Q-14.3 26.0 -14.45 24.35 -17.1 -7.45 -16.0 -10.85 -13.3 -19.3 -2.5 -18.25 6.65 -17.35 16.2 -10.85" fill="#ffffff" fill-opacity="0.0" fill-rule="evenodd" stroke="none"/>
    <path d="M16.2 -10.85 L16.2 -10.75 15.6 -8.0 13.95 -2.85 Q13.3 -1.1 10.1 3.25 7.3 7.0 7.25 8.6 7.15 11.1 9.3 18.05 11.25 24.55 10.85 26.0 M-9.7 29.8 L-12.0 28.05 Q-14.3 26.0 -14.45 24.35 -17.1 -7.45 -16.0 -10.85" fill="none" stroke="#000000" stroke-linecap="round" stroke-linejoin="round" stroke-width="1.0"/>
  </g>
</svg>
