<?xml version="1.0" encoding="UTF-8" standalone="no"?>
<svg xmlns:xlink="http://www.w3.org/1999/xlink" height="15.05px" width="14.4px" xmlns="http://www.w3.org/2000/svg">
  <g transform="matrix(1.0, 0.0, 0.0, 1.0, 10.75, -38.2)">
    <path d="M2.75 45.6 L2.8 46.0 Q3.55 51.65 2.65 52.4 1.5 53.3 -1.8 51.9 -5.1 50.45 -7.45 47.8 -11.15 43.65 -10.0 40.85 L-8.65 38.7 Q-0.5 47.8 2.75 45.6" fill="#ffffff" fill-opacity="0.0" fill-rule="evenodd" stroke="none"/>
    <path d="M2.75 45.6 L2.8 46.0 Q3.55 51.65 2.65 52.4 1.5 53.3 -1.8 51.9 -5.1 50.45 -7.45 47.8 -11.15 43.65 -10.0 40.85 L-8.65 38.7" fill="none" stroke="#000000" stroke-linecap="round" stroke-linejoin="round" stroke-width="1.0"/>
    <path d="M-8.65 38.7 Q-0.5 47.8 2.75 45.6 Z" fill="none" stroke="#000000" stroke-linecap="round" stroke-linejoin="round" stroke-opacity="0.4" stroke-width="1.0"/>
  </g>
</svg>
