<?xml version="1.0" encoding="UTF-8" standalone="no"?>
<svg xmlns:xlink="http://www.w3.org/1999/xlink" height="15.0px" width="42.45px" xmlns="http://www.w3.org/2000/svg">
  <g transform="matrix(1.0, 0.0, 0.0, 1.0, 26.45, 8.15)">
    <path d="M11.6 -4.7 Q14.1 -2.15 15.15 1.95 15.6 4.1 15.1 4.6 14.7 5.0 13.1 5.45 L11.05 5.7 Q10.7 5.5 10.5 4.4 L10.35 3.3 Q9.75 1.55 7.7 0.05 5.8 -1.3 4.1 -1.5 2.7 -1.65 -2.95 -0.3 -7.55 0.85 -11.9 2.2 -13.45 2.65 -17.6 4.45 -20.95 5.85 -23.0 6.1 -25.15 6.4 -25.5 5.7 -25.8 5.15 -25.8 3.35 -25.85 1.45 -25.5 1.1 -25.25 0.85 -23.1 0.55 L-19.55 -0.15 -13.4 -2.55 -13.4 -2.6 -4.7 -5.6 Q1.0 -7.45 4.6 -7.5 8.7 -7.55 11.6 -4.7" fill="#ffffff" fill-opacity="0.0" fill-rule="evenodd" stroke="none"/>
    <path d="M11.6 -4.7 Q14.1 -2.15 15.15 1.95 15.6 4.1 15.1 4.6 14.7 5.0 13.1 5.45 L11.05 5.7 Q10.7 5.5 10.5 4.4 L10.35 3.3 Q9.75 1.55 7.7 0.05 5.8 -1.3 4.1 -1.5 2.7 -1.65 -2.95 -0.3 -7.55 0.85 -11.9 2.2 -13.45 2.65 -17.6 4.45 -20.95 5.85 -23.0 6.1 -25.15 6.4 -25.5 5.7 -25.8 5.15 -25.8 3.35 -25.85 1.45 -25.5 1.1 -25.25 0.85 -23.1 0.55 L-19.55 -0.15 -13.4 -2.55 -13.4 -2.6 -4.7 -5.6 Q1.0 -7.45 4.6 -7.5 8.7 -7.55 11.6 -4.7 Z" fill="none" stroke="#000000" stroke-linecap="square" stroke-linejoin="miter-clip" stroke-miterlimit="3.0" stroke-opacity="0.69803923" stroke-width="1.0"/>
  </g>
</svg>
